<?xml version="1.0" encoding="UTF-8"?>
<svg xmlns="http://www.w3.org/2000/svg" version="1.1" width="300" height="300" viewBox="0 0 300 300"><rect x="0" y="0" width="300" height="300" fill="#ffffff"/><g transform="scale(4.348)"><g transform="translate(0,0)"><path fill-rule="evenodd" d="M8 0L8 1L9 1L9 2L8 2L8 5L9 5L9 6L8 6L8 7L9 7L9 6L10 6L10 7L11 7L11 9L10 9L10 10L11 10L11 11L12 11L12 10L13 10L13 12L14 12L14 10L15 10L15 13L10 13L10 14L9 14L9 11L7 11L7 10L6 10L6 11L4 11L4 10L3 10L3 12L2 12L2 13L3 13L3 14L4 14L4 15L5 15L5 14L6 14L6 15L7 15L7 14L8 14L8 15L10 15L10 16L9 16L9 19L8 19L8 20L6 20L6 21L8 21L8 22L9 22L9 23L11 23L11 24L13 24L13 23L11 23L11 22L12 22L12 21L13 21L13 22L14 22L14 23L16 23L16 21L14 21L14 20L12 20L12 19L14 19L14 18L15 18L15 19L16 19L16 18L15 18L15 16L14 16L14 15L15 15L15 13L19 13L19 14L17 14L17 15L16 15L16 16L17 16L17 15L19 15L19 14L21 14L21 15L20 15L20 19L19 19L19 21L18 21L18 19L17 19L17 21L18 21L18 22L17 22L17 25L16 25L16 24L14 24L14 25L13 25L13 26L14 26L14 25L15 25L15 26L17 26L17 25L19 25L19 26L18 26L18 27L19 27L19 29L21 29L21 30L22 30L22 31L21 31L21 33L22 33L22 35L23 35L23 36L24 36L24 37L25 37L25 39L23 39L23 38L22 38L22 37L20 37L20 35L21 35L21 34L19 34L19 33L17 33L17 34L16 34L16 32L17 32L17 30L18 30L18 31L20 31L20 30L18 30L18 29L16 29L16 28L17 28L17 27L16 27L16 28L15 28L15 27L13 27L13 28L9 28L9 27L8 27L8 25L9 25L9 26L10 26L10 27L12 27L12 25L11 25L11 26L10 26L10 25L9 25L9 24L8 24L8 25L7 25L7 24L5 24L5 23L7 23L7 22L5 22L5 18L4 18L4 17L5 17L5 16L3 16L3 18L4 18L4 19L2 19L2 16L1 16L1 15L2 15L2 14L1 14L1 15L0 15L0 16L1 16L1 19L0 19L0 20L1 20L1 21L0 21L0 25L1 25L1 21L2 21L2 20L4 20L4 23L2 23L2 24L3 24L3 25L4 25L4 27L5 27L5 28L2 28L2 27L3 27L3 26L1 26L1 29L3 29L3 30L1 30L1 32L0 32L0 34L2 34L2 31L3 31L3 33L4 33L4 35L2 35L2 36L1 36L1 35L0 35L0 37L1 37L1 38L0 38L0 40L1 40L1 42L2 42L2 43L1 43L1 44L4 44L4 45L0 45L0 47L2 47L2 48L0 48L0 50L1 50L1 49L2 49L2 48L4 48L4 49L3 49L3 51L0 51L0 52L1 52L1 53L0 53L0 54L2 54L2 56L1 56L1 57L0 57L0 61L1 61L1 58L2 58L2 59L3 59L3 58L4 58L4 59L7 59L7 58L4 58L4 57L7 57L7 56L8 56L8 57L9 57L9 58L8 58L8 60L9 60L9 61L8 61L8 62L9 62L9 63L11 63L11 64L9 64L9 65L8 65L8 69L10 69L10 68L11 68L11 69L13 69L13 68L11 68L11 67L12 67L12 66L11 66L11 64L12 64L12 65L13 65L13 63L14 63L14 64L15 64L15 65L14 65L14 66L13 66L13 67L14 67L14 68L15 68L15 69L16 69L16 68L15 68L15 67L14 67L14 66L17 66L17 67L18 67L18 64L19 64L19 67L20 67L20 69L21 69L21 68L22 68L22 69L26 69L26 68L28 68L28 69L30 69L30 67L32 67L32 68L33 68L33 66L37 66L37 67L38 67L38 68L39 68L39 69L42 69L42 68L40 68L40 67L41 67L41 66L42 66L42 65L40 65L40 64L41 64L41 62L39 62L39 61L40 61L40 60L41 60L41 61L42 61L42 60L41 60L41 59L42 59L42 58L43 58L43 56L41 56L41 55L42 55L42 54L41 54L41 55L40 55L40 54L39 54L39 53L40 53L40 52L39 52L39 51L35 51L35 49L34 49L34 48L38 48L38 49L36 49L36 50L40 50L40 49L39 49L39 47L40 47L40 48L42 48L42 49L44 49L44 48L43 48L43 47L45 47L45 46L43 46L43 45L42 45L42 44L41 44L41 45L40 45L40 44L37 44L37 47L36 47L36 46L34 46L34 45L35 45L35 44L33 44L33 43L34 43L34 42L36 42L36 43L37 43L37 42L36 42L36 41L34 41L34 39L36 39L36 40L37 40L37 41L38 41L38 40L37 40L37 37L38 37L38 38L39 38L39 42L38 42L38 43L39 43L39 42L40 42L40 43L43 43L43 42L42 42L42 41L41 41L41 42L40 42L40 40L41 40L41 39L42 39L42 38L41 38L41 37L38 37L38 33L37 33L37 32L38 32L38 30L37 30L37 29L36 29L36 28L37 28L37 27L35 27L35 30L34 30L34 28L33 28L33 27L34 27L34 26L33 26L33 24L32 24L32 25L31 25L31 24L30 24L30 21L29 21L29 24L28 24L28 22L26 22L26 21L25 21L25 20L27 20L27 21L28 21L28 20L27 20L27 19L26 19L26 18L24 18L24 17L25 17L25 16L26 16L26 17L28 17L28 18L30 18L30 20L31 20L31 21L32 21L32 22L31 22L31 23L32 23L32 22L34 22L34 25L35 25L35 24L36 24L36 25L37 25L37 26L38 26L38 29L39 29L39 31L40 31L40 32L39 32L39 33L40 33L40 34L39 34L39 35L41 35L41 36L42 36L42 37L43 37L43 38L44 38L44 39L45 39L45 40L43 40L43 41L45 41L45 42L44 42L44 43L45 43L45 42L46 42L46 44L45 44L45 45L46 45L46 44L47 44L47 47L46 47L46 48L45 48L45 50L44 50L44 52L43 52L43 51L42 51L42 52L43 52L43 54L44 54L44 55L46 55L46 54L47 54L47 55L48 55L48 56L49 56L49 59L48 59L48 58L47 58L47 59L48 59L48 60L46 60L46 59L45 59L45 58L44 58L44 59L43 59L43 63L44 63L44 64L43 64L43 65L45 65L45 62L46 62L46 63L47 63L47 64L48 64L48 63L49 63L49 65L48 65L48 66L47 66L47 65L46 65L46 68L45 68L45 69L47 69L47 67L48 67L48 68L49 68L49 69L50 69L50 68L49 68L49 67L50 67L50 66L49 66L49 65L52 65L52 64L56 64L56 65L55 65L55 66L54 66L54 65L53 65L53 68L51 68L51 69L53 69L53 68L54 68L54 69L56 69L56 67L57 67L57 66L58 66L58 67L60 67L60 68L59 68L59 69L60 69L60 68L61 68L61 67L62 67L62 69L63 69L63 66L65 66L65 65L66 65L66 66L68 66L68 65L69 65L69 63L68 63L68 65L67 65L67 63L65 63L65 61L66 61L66 60L65 60L65 58L64 58L64 60L62 60L62 59L63 59L63 58L61 58L61 57L63 57L63 56L62 56L62 55L60 55L60 56L61 56L61 57L59 57L59 59L58 59L58 58L57 58L57 57L58 57L58 56L59 56L59 55L57 55L57 54L59 54L59 53L62 53L62 54L65 54L65 53L66 53L66 55L67 55L67 57L69 57L69 55L68 55L68 54L69 54L69 52L68 52L68 51L65 51L65 50L66 50L66 49L65 49L65 50L64 50L64 48L66 48L66 46L67 46L67 47L68 47L68 48L67 48L67 50L68 50L68 48L69 48L69 43L68 43L68 42L66 42L66 40L67 40L67 38L63 38L63 37L66 37L66 35L67 35L67 37L68 37L68 38L69 38L69 37L68 37L68 36L69 36L69 33L68 33L68 34L67 34L67 32L65 32L65 31L63 31L63 32L62 32L62 31L61 31L61 32L58 32L58 31L55 31L55 32L54 32L54 35L51 35L51 34L50 34L50 32L49 32L49 31L50 31L50 30L49 30L49 29L51 29L51 33L52 33L52 34L53 34L53 32L52 32L52 31L53 31L53 30L54 30L54 29L53 29L53 30L52 30L52 29L51 29L51 26L52 26L52 28L53 28L53 27L54 27L54 26L52 26L52 25L49 25L49 24L50 24L50 23L52 23L52 22L53 22L53 23L56 23L56 24L55 24L55 27L58 27L58 28L55 28L55 30L59 30L59 31L60 31L60 28L62 28L62 29L63 29L63 30L65 30L65 29L63 29L63 28L62 28L62 27L63 27L63 24L65 24L65 25L64 25L64 26L65 26L65 27L64 27L64 28L65 28L65 27L66 27L66 30L67 30L67 31L68 31L68 32L69 32L69 31L68 31L68 29L69 29L69 28L68 28L68 27L66 27L66 26L67 26L67 25L69 25L69 24L66 24L66 23L65 23L65 22L64 22L64 23L63 23L63 22L62 22L62 20L59 20L59 19L57 19L57 20L58 20L58 21L60 21L60 22L61 22L61 23L62 23L62 25L61 25L61 26L60 26L60 27L58 27L58 26L56 26L56 24L57 24L57 25L59 25L59 23L58 23L58 24L57 24L57 22L55 22L55 21L54 21L54 20L55 20L55 19L56 19L56 18L60 18L60 19L61 19L61 18L60 18L60 17L64 17L64 15L62 15L62 14L64 14L64 13L63 13L63 12L64 12L64 10L62 10L62 8L60 8L60 7L61 7L61 6L60 6L60 7L59 7L59 4L57 4L57 5L56 5L56 7L57 7L57 5L58 5L58 7L59 7L59 8L57 8L57 10L55 10L55 9L53 9L53 6L52 6L52 5L51 5L51 4L50 4L50 2L51 2L51 1L53 1L53 2L52 2L52 3L53 3L53 4L56 4L56 2L58 2L58 3L59 3L59 2L58 2L58 1L61 1L61 0L56 0L56 2L55 2L55 0L51 0L51 1L50 1L50 0L49 0L49 2L45 2L45 0L44 0L44 2L42 2L42 1L43 1L43 0L41 0L41 1L40 1L40 3L41 3L41 2L42 2L42 4L43 4L43 5L42 5L42 7L41 7L41 6L40 6L40 7L41 7L41 8L39 8L39 10L38 10L38 8L37 8L37 4L38 4L38 5L39 5L39 4L38 4L38 0L33 0L33 1L32 1L32 0L31 0L31 1L32 1L32 2L31 2L31 3L29 3L29 6L28 6L28 8L27 8L27 6L26 6L26 5L28 5L28 2L29 2L29 1L30 1L30 0L28 0L28 2L27 2L27 1L25 1L25 0L23 0L23 1L22 1L22 0L21 0L21 1L19 1L19 0L16 0L16 1L15 1L15 0L14 0L14 1L15 1L15 2L17 2L17 1L19 1L19 2L18 2L18 3L15 3L15 4L17 4L17 6L16 6L16 5L13 5L13 4L11 4L11 3L14 3L14 2L12 2L12 1L9 1L9 0ZM47 0L47 1L48 1L48 0ZM21 1L21 2L20 2L20 3L21 3L21 7L22 7L22 8L21 8L21 9L20 9L20 10L21 10L21 11L22 11L22 12L20 12L20 13L21 13L21 14L22 14L22 15L23 15L23 16L22 16L22 17L21 17L21 18L23 18L23 19L20 19L20 20L23 20L23 21L20 21L20 22L18 22L18 24L21 24L21 26L19 26L19 27L20 27L20 28L21 28L21 27L22 27L22 29L24 29L24 30L27 30L27 29L24 29L24 27L26 27L26 28L29 28L29 29L30 29L30 30L29 30L29 31L28 31L28 32L27 32L27 31L25 31L25 34L27 34L27 35L24 35L24 34L23 34L23 35L24 35L24 36L25 36L25 37L26 37L26 38L27 38L27 39L28 39L28 38L29 38L29 36L31 36L31 37L30 37L30 38L31 38L31 37L32 37L32 39L34 39L34 38L36 38L36 37L32 37L32 33L31 33L31 31L33 31L33 30L32 30L32 29L33 29L33 28L31 28L31 25L30 25L30 24L29 24L29 25L28 25L28 24L27 24L27 23L26 23L26 25L24 25L24 27L23 27L23 25L22 25L22 24L23 24L23 23L24 23L24 24L25 24L25 22L23 22L23 21L24 21L24 18L23 18L23 17L24 17L24 16L25 16L25 15L24 15L24 14L25 14L25 13L26 13L26 16L28 16L28 17L30 17L30 18L31 18L31 19L32 19L32 17L33 17L33 14L36 14L36 15L34 15L34 17L35 17L35 18L36 18L36 17L37 17L37 19L34 19L34 18L33 18L33 19L34 19L34 22L35 22L35 23L38 23L38 22L35 22L35 21L36 21L36 20L37 20L37 19L38 19L38 20L41 20L41 19L39 19L39 14L40 14L40 17L41 17L41 16L42 16L42 18L43 18L43 19L42 19L42 21L44 21L44 22L42 22L42 24L41 24L41 23L39 23L39 25L40 25L40 26L39 26L39 29L41 29L41 30L40 30L40 31L41 31L41 33L42 33L42 32L43 32L43 35L42 35L42 36L43 36L43 35L45 35L45 34L46 34L46 35L47 35L47 36L49 36L49 35L50 35L50 36L51 36L51 38L49 38L49 37L48 37L48 39L47 39L47 37L46 37L46 38L45 38L45 36L44 36L44 38L45 38L45 39L47 39L47 40L46 40L46 41L48 41L48 42L47 42L47 44L48 44L48 45L49 45L49 46L50 46L50 47L48 47L48 48L49 48L49 49L48 49L48 50L47 50L47 48L46 48L46 50L47 50L47 51L50 51L50 52L52 52L52 53L49 53L49 52L47 52L47 53L48 53L48 54L51 54L51 55L50 55L50 56L52 56L52 54L53 54L53 56L54 56L54 57L53 57L53 58L52 58L52 57L50 57L50 58L52 58L52 61L51 61L51 62L50 62L50 64L51 64L51 63L55 63L55 59L56 59L56 62L57 62L57 64L58 64L58 65L59 65L59 66L61 66L61 65L59 65L59 64L60 64L60 60L59 60L59 61L58 61L58 62L57 62L57 60L58 60L58 59L57 59L57 58L56 58L56 57L57 57L57 55L56 55L56 54L57 54L57 53L59 53L59 51L57 51L57 50L56 50L56 51L55 51L55 52L57 52L57 53L54 53L54 54L53 54L53 52L54 52L54 50L55 50L55 46L56 46L56 49L57 49L57 47L58 47L58 48L59 48L59 49L58 49L58 50L59 50L59 49L61 49L61 48L62 48L62 49L63 49L63 47L61 47L61 48L60 48L60 47L59 47L59 45L61 45L61 46L62 46L62 45L61 45L61 44L62 44L62 43L65 43L65 44L66 44L66 45L63 45L63 46L64 46L64 47L65 47L65 46L66 46L66 45L68 45L68 44L67 44L67 43L65 43L65 42L62 42L62 43L61 43L61 44L59 44L59 43L60 43L60 42L61 42L61 41L59 41L59 40L58 40L58 41L59 41L59 43L58 43L58 44L57 44L57 41L54 41L54 40L52 40L52 39L51 39L51 38L54 38L54 39L55 39L55 40L56 40L56 39L55 39L55 37L53 37L53 36L51 36L51 35L50 35L50 34L48 34L48 33L49 33L49 32L48 32L48 33L47 33L47 31L43 31L43 28L46 28L46 29L49 29L49 25L48 25L48 24L47 24L47 25L46 25L46 23L49 23L49 21L50 21L50 22L51 22L51 20L52 20L52 19L51 19L51 17L53 17L53 16L52 16L52 13L53 13L53 14L55 14L55 15L54 15L54 18L56 18L56 17L55 17L55 15L56 15L56 16L57 16L57 15L58 15L58 16L59 16L59 15L58 15L58 14L60 14L60 15L61 15L61 16L62 16L62 15L61 15L61 12L62 12L62 10L60 10L60 13L59 13L59 11L57 11L57 12L56 12L56 11L55 11L55 10L53 10L53 9L52 9L52 8L50 8L50 5L49 5L49 7L48 7L48 6L47 6L47 7L46 7L46 5L48 5L48 4L47 4L47 3L46 3L46 5L45 5L45 8L44 8L44 6L43 6L43 9L45 9L45 10L46 10L46 11L45 11L45 12L44 12L44 10L43 10L43 12L41 12L41 13L42 13L42 14L43 14L43 12L44 12L44 13L46 13L46 14L45 14L45 17L44 17L44 18L43 18L43 16L44 16L44 15L41 15L41 14L40 14L40 11L42 11L42 10L39 10L39 12L38 12L38 10L37 10L37 12L36 12L36 9L35 9L35 10L34 10L34 11L32 11L32 13L29 13L29 12L27 12L27 10L26 10L26 9L27 9L27 8L26 8L26 6L25 6L25 5L26 5L26 4L27 4L27 3L26 3L26 4L25 4L25 3L24 3L24 2L22 2L22 1ZM33 1L33 2L36 2L36 3L37 3L37 1ZM9 2L9 3L10 3L10 2ZM53 2L53 3L54 3L54 2ZM31 3L31 4L33 4L33 3ZM44 3L44 4L45 4L45 3ZM60 3L60 5L61 5L61 3ZM22 4L22 7L23 7L23 4ZM40 4L40 5L41 5L41 4ZM11 5L11 7L12 7L12 8L14 8L14 9L15 9L15 10L16 10L16 11L17 11L17 12L19 12L19 11L17 11L17 10L16 10L16 9L15 9L15 7L16 7L16 6L15 6L15 7L14 7L14 6L13 6L13 5ZM18 5L18 6L17 6L17 7L18 7L18 8L17 8L17 9L18 9L18 10L19 10L19 7L20 7L20 5ZM33 5L33 8L36 8L36 5ZM12 6L12 7L13 7L13 6ZM18 6L18 7L19 7L19 6ZM24 6L24 7L25 7L25 6ZM29 6L29 7L30 7L30 6ZM31 6L31 8L32 8L32 6ZM34 6L34 7L35 7L35 6ZM38 6L38 7L39 7L39 6ZM51 6L51 7L52 7L52 6ZM54 6L54 8L55 8L55 6ZM0 8L0 13L1 13L1 11L2 11L2 9L4 9L4 8ZM6 8L6 9L7 9L7 8ZM8 8L8 10L9 10L9 8ZM22 8L22 9L23 9L23 10L22 10L22 11L23 11L23 13L22 13L22 14L23 14L23 13L25 13L25 10L24 10L24 9L23 9L23 8ZM28 8L28 10L29 10L29 11L30 11L30 12L31 12L31 11L30 11L30 9L29 9L29 8ZM41 8L41 9L42 9L42 8ZM46 8L46 9L47 9L47 11L48 11L48 12L47 12L47 13L49 13L49 14L48 14L48 16L49 16L49 17L51 17L51 16L50 16L50 15L51 15L51 13L52 13L52 9L51 9L51 11L50 11L50 8L49 8L49 9L48 9L48 8ZM64 8L64 9L65 9L65 10L66 10L66 11L65 11L65 20L63 20L63 21L66 21L66 22L67 22L67 23L69 23L69 22L67 22L67 20L69 20L69 19L68 19L68 18L69 18L69 16L68 16L68 15L66 15L66 14L67 14L67 13L68 13L68 14L69 14L69 12L68 12L68 11L69 11L69 8L68 8L68 10L67 10L67 8ZM11 9L11 10L12 10L12 9ZM32 9L32 10L33 10L33 9ZM58 9L58 10L59 10L59 9ZM6 11L6 12L5 12L5 13L6 13L6 14L7 14L7 13L8 13L8 12L7 12L7 11ZM34 11L34 13L36 13L36 12L35 12L35 11ZM49 11L49 12L50 12L50 13L51 13L51 12L50 12L50 11ZM54 11L54 12L53 12L53 13L55 13L55 14L56 14L56 15L57 15L57 14L58 14L58 13L56 13L56 12L55 12L55 11ZM66 11L66 12L67 12L67 11ZM6 12L6 13L7 13L7 12ZM37 12L37 14L39 14L39 13L38 13L38 12ZM27 13L27 14L28 14L28 13ZM32 13L32 14L30 14L30 15L31 15L31 16L32 16L32 14L33 14L33 13ZM11 14L11 15L12 15L12 17L11 17L11 18L10 18L10 19L9 19L9 20L11 20L11 19L12 19L12 18L14 18L14 17L13 17L13 15L14 15L14 14L13 14L13 15L12 15L12 14ZM46 14L46 17L45 17L45 18L44 18L44 20L45 20L45 21L46 21L46 19L45 19L45 18L47 18L47 22L48 22L48 20L49 20L49 19L50 19L50 18L48 18L48 17L47 17L47 14ZM37 15L37 17L38 17L38 15ZM6 16L6 17L7 17L7 18L6 18L6 19L7 19L7 18L8 18L8 16ZM18 16L18 17L19 17L19 16ZM35 16L35 17L36 17L36 16ZM66 16L66 17L67 17L67 18L68 18L68 17L67 17L67 16ZM62 18L62 19L63 19L63 18ZM53 19L53 20L54 20L54 19ZM66 19L66 20L67 20L67 19ZM9 21L9 22L11 22L11 21ZM40 21L40 22L41 22L41 21ZM20 22L20 23L23 23L23 22ZM43 23L43 24L42 24L42 25L44 25L44 27L45 27L45 26L46 26L46 28L47 28L47 27L48 27L48 26L46 26L46 25L44 25L44 23ZM37 24L37 25L38 25L38 24ZM53 24L53 25L54 25L54 24ZM5 25L5 26L7 26L7 25ZM27 25L27 27L28 27L28 25ZM29 26L29 28L30 28L30 26ZM32 26L32 27L33 27L33 26ZM41 26L41 27L42 27L42 28L41 28L41 29L42 29L42 28L43 28L43 27L42 27L42 26ZM61 26L61 27L62 27L62 26ZM6 27L6 28L5 28L5 29L6 29L6 30L3 30L3 31L4 31L4 32L7 32L7 31L6 31L6 30L9 30L9 29L8 29L8 27ZM6 28L6 29L7 29L7 28ZM13 28L13 29L15 29L15 28ZM58 28L58 29L59 29L59 28ZM10 29L10 31L9 31L9 33L10 33L10 34L9 34L9 35L10 35L10 36L11 36L11 37L10 37L10 38L7 38L7 37L6 37L6 38L7 38L7 39L5 39L5 40L7 40L7 41L6 41L6 42L5 42L5 41L4 41L4 40L3 40L3 41L2 41L2 42L3 42L3 43L6 43L6 44L5 44L5 45L6 45L6 46L5 46L5 47L4 47L4 48L5 48L5 49L4 49L4 50L5 50L5 51L3 51L3 53L4 53L4 54L5 54L5 53L6 53L6 54L7 54L7 53L8 53L8 55L13 55L13 54L11 54L11 53L14 53L14 54L15 54L15 53L14 53L14 52L17 52L17 54L16 54L16 55L14 55L14 56L13 56L13 57L10 57L10 56L9 56L9 57L10 57L10 58L11 58L11 60L10 60L10 62L11 62L11 63L13 63L13 62L14 62L14 60L15 60L15 61L16 61L16 62L15 62L15 63L16 63L16 62L17 62L17 63L19 63L19 64L20 64L20 62L18 62L18 61L17 61L17 59L18 59L18 60L19 60L19 59L20 59L20 60L21 60L21 64L22 64L22 65L20 65L20 67L21 67L21 66L22 66L22 68L23 68L23 65L24 65L24 68L26 68L26 67L25 67L25 64L26 64L26 66L27 66L27 65L28 65L28 66L29 66L29 64L30 64L30 65L31 65L31 64L30 64L30 63L31 63L31 62L32 62L32 61L30 61L30 63L29 63L29 64L28 64L28 63L27 63L27 64L26 64L26 62L25 62L25 59L26 59L26 58L29 58L29 59L30 59L30 60L32 60L32 59L33 59L33 60L35 60L35 58L36 58L36 56L38 56L38 55L39 55L39 56L40 56L40 55L39 55L39 54L38 54L38 53L39 53L39 52L35 52L35 51L34 51L34 50L33 50L33 49L32 49L32 48L33 48L33 47L34 47L34 46L33 46L33 45L32 45L32 43L33 43L33 42L31 42L31 41L30 41L30 40L31 40L31 39L29 39L29 40L28 40L28 41L29 41L29 43L28 43L28 42L27 42L27 41L26 41L26 42L23 42L23 43L22 43L22 44L23 44L23 45L20 45L20 44L18 44L18 43L17 43L17 42L16 42L16 41L19 41L19 43L21 43L21 41L23 41L23 39L22 39L22 38L21 38L21 41L19 41L19 37L18 37L18 39L16 39L16 41L15 41L15 40L14 40L14 41L12 41L12 42L13 42L13 43L11 43L11 40L10 40L10 42L9 42L9 43L10 43L10 44L7 44L7 43L8 43L8 42L7 42L7 41L9 41L9 40L7 40L7 39L12 39L12 36L11 36L11 35L12 35L12 33L13 33L13 34L14 34L14 35L13 35L13 36L14 36L14 38L13 38L13 39L15 39L15 37L16 37L16 38L17 38L17 36L18 36L18 35L19 35L19 34L17 34L17 36L16 36L16 34L15 34L15 32L16 32L16 31L14 31L14 30L12 30L12 29ZM44 29L44 30L45 30L45 29ZM11 30L11 32L10 32L10 33L12 33L12 32L14 32L14 31L12 31L12 30ZM30 30L30 31L31 31L31 30ZM35 30L35 32L37 32L37 31L36 31L36 30ZM22 31L22 32L23 32L23 33L24 33L24 31ZM26 32L26 33L27 33L27 32ZM28 32L28 35L27 35L27 38L28 38L28 35L29 35L29 34L31 34L31 33L30 33L30 32ZM55 32L55 34L56 34L56 33L57 33L57 35L55 35L55 36L56 36L56 38L57 38L57 39L60 39L60 40L62 40L62 39L63 39L63 38L62 38L62 37L61 37L61 38L59 38L59 37L60 37L60 35L59 35L59 37L58 37L58 38L57 38L57 36L58 36L58 34L59 34L59 33L58 33L58 32ZM5 33L5 36L8 36L8 33ZM33 33L33 36L36 36L36 33ZM44 33L44 34L45 34L45 33ZM61 33L61 36L64 36L64 33ZM65 33L65 34L66 34L66 33ZM6 34L6 35L7 35L7 34ZM34 34L34 35L35 35L35 34ZM62 34L62 35L63 35L63 34ZM2 36L2 37L3 37L3 38L5 38L5 37L3 37L3 36ZM1 38L1 39L2 39L2 38ZM48 39L48 40L49 40L49 39ZM50 39L50 40L51 40L51 39ZM24 40L24 41L25 41L25 40ZM14 41L14 42L15 42L15 41ZM52 41L52 42L54 42L54 43L55 43L55 45L54 45L54 44L51 44L51 43L49 43L49 42L48 42L48 44L51 44L51 45L52 45L52 46L55 46L55 45L56 45L56 46L57 46L57 45L56 45L56 42L54 42L54 41ZM6 42L6 43L7 43L7 42ZM26 42L26 43L24 43L24 44L25 44L25 45L23 45L23 49L22 49L22 46L21 46L21 50L20 50L20 49L19 49L19 50L18 50L18 48L19 48L19 47L20 47L20 45L18 45L18 44L17 44L17 45L18 45L18 48L17 48L17 50L16 50L16 48L15 48L15 47L16 47L16 46L15 46L15 45L16 45L16 44L15 44L15 43L13 43L13 44L12 44L12 45L14 45L14 47L12 47L12 46L11 46L11 47L12 47L12 48L9 48L9 46L10 46L10 45L11 45L11 44L10 44L10 45L8 45L8 47L7 47L7 46L6 46L6 47L5 47L5 48L6 48L6 49L7 49L7 50L6 50L6 51L5 51L5 52L4 52L4 53L5 53L5 52L6 52L6 53L7 53L7 52L6 52L6 51L7 51L7 50L8 50L8 51L9 51L9 49L10 49L10 51L11 51L11 50L12 50L12 52L13 52L13 50L12 50L12 48L14 48L14 50L16 50L16 51L19 51L19 52L20 52L20 53L22 53L22 56L21 56L21 55L16 55L16 59L15 59L15 57L13 57L13 58L14 58L14 59L15 59L15 60L16 60L16 59L17 59L17 57L18 57L18 56L21 56L21 60L22 60L22 56L23 56L23 57L24 57L24 58L25 58L25 57L24 57L24 55L23 55L23 54L24 54L24 53L25 53L25 55L26 55L26 53L27 53L27 54L29 54L29 52L28 52L28 51L32 51L32 52L31 52L31 54L30 54L30 55L31 55L31 54L32 54L32 55L35 55L35 53L33 53L33 50L32 50L32 49L31 49L31 48L32 48L32 47L30 47L30 48L29 48L29 47L27 47L27 45L26 45L26 44L27 44L27 42ZM30 42L30 43L29 43L29 44L28 44L28 45L30 45L30 46L31 46L31 45L30 45L30 44L31 44L31 42ZM6 44L6 45L7 45L7 44ZM14 44L14 45L15 45L15 44ZM58 44L58 45L59 45L59 44ZM38 45L38 47L39 47L39 45ZM41 45L41 47L42 47L42 45ZM2 46L2 47L3 47L3 46ZM24 46L24 47L25 47L25 49L23 49L23 50L24 50L24 51L22 51L22 53L24 53L24 52L25 52L25 49L27 49L27 50L26 50L26 52L27 52L27 50L29 50L29 48L27 48L27 47L26 47L26 46ZM6 47L6 48L7 48L7 49L8 49L8 48L7 48L7 47ZM50 47L50 49L49 49L49 50L50 50L50 51L51 51L51 50L52 50L52 51L53 51L53 49L52 49L52 47ZM60 50L60 52L61 52L61 51L63 51L63 53L65 53L65 51L64 51L64 50ZM45 51L45 53L46 53L46 51ZM67 52L67 54L68 54L68 52ZM18 53L18 54L19 54L19 53ZM36 53L36 55L37 55L37 53ZM3 55L3 57L2 57L2 58L3 58L3 57L4 57L4 55ZM6 55L6 56L7 56L7 55ZM64 55L64 57L65 57L65 55ZM27 56L27 57L29 57L29 58L30 58L30 59L31 59L31 57L32 57L32 58L33 58L33 59L34 59L34 57L35 57L35 56L33 56L33 57L32 57L32 56L31 56L31 57L29 57L29 56ZM45 56L45 57L46 57L46 56ZM19 57L19 58L20 58L20 57ZM38 57L38 58L37 58L37 59L36 59L36 60L37 60L37 61L38 61L38 60L40 60L40 58L39 58L39 57ZM54 57L54 59L53 59L53 60L54 60L54 59L55 59L55 57ZM60 58L60 59L61 59L61 58ZM67 58L67 59L69 59L69 58ZM12 59L12 60L13 60L13 59ZM27 59L27 60L26 60L26 61L28 61L28 62L29 62L29 60L28 60L28 59ZM50 59L50 60L49 60L49 61L46 61L46 62L47 62L47 63L48 63L48 62L49 62L49 61L50 61L50 60L51 60L51 59ZM3 60L3 61L5 61L5 60ZM6 60L6 61L7 61L7 60ZM44 60L44 61L45 61L45 60ZM67 60L67 62L69 62L69 61L68 61L68 60ZM11 61L11 62L12 62L12 61ZM22 61L22 63L23 63L23 61ZM33 61L33 64L36 64L36 61ZM52 61L52 62L53 62L53 61ZM61 61L61 64L64 64L64 61ZM24 62L24 63L25 63L25 62ZM34 62L34 63L35 63L35 62ZM37 62L37 64L38 64L38 63L39 63L39 62ZM62 62L62 63L63 63L63 62ZM16 64L16 65L17 65L17 64ZM9 65L9 66L10 66L10 65ZM37 65L37 66L39 66L39 67L40 67L40 66L39 66L39 65ZM62 65L62 66L63 66L63 65ZM44 66L44 67L45 67L45 66ZM51 66L51 67L52 67L52 66ZM55 66L55 67L56 67L56 66ZM64 67L64 68L65 68L65 69L66 69L66 68L65 68L65 67ZM68 67L68 68L69 68L69 67ZM17 68L17 69L18 69L18 68ZM57 68L57 69L58 69L58 68ZM0 0L0 7L7 7L7 0ZM1 1L1 6L6 6L6 1ZM2 2L2 5L5 5L5 2ZM62 0L62 7L69 7L69 0ZM63 1L63 6L68 6L68 1ZM64 2L64 5L67 5L67 2ZM0 62L0 69L7 69L7 62ZM1 63L1 68L6 68L6 63ZM2 64L2 67L5 67L5 64Z" fill="#000000"/></g></g></svg>
