<?xml version="1.0" encoding="UTF-8"?>
<svg xmlns="http://www.w3.org/2000/svg" version="1.1" width="300" height="300" viewBox="0 0 300 300"><rect x="0" y="0" width="300" height="300" fill="#ffffff"/><g transform="scale(4.348)"><g transform="translate(0,0)"><path fill-rule="evenodd" d="M8 0L8 4L9 4L9 2L11 2L11 3L10 3L10 7L9 7L9 5L8 5L8 7L9 7L9 9L10 9L10 11L11 11L11 10L12 10L12 9L10 9L10 8L12 8L12 7L13 7L13 6L12 6L12 7L11 7L11 3L12 3L12 4L13 4L13 5L14 5L14 4L13 4L13 3L15 3L15 2L16 2L16 3L18 3L18 2L19 2L19 1L20 1L20 2L22 2L22 3L19 3L19 5L17 5L17 4L15 4L15 5L16 5L16 8L17 8L17 10L16 10L16 9L15 9L15 8L14 8L14 9L13 9L13 11L12 11L12 12L10 12L10 13L12 13L12 12L13 12L13 11L15 11L15 14L14 14L14 13L13 13L13 14L9 14L9 15L10 15L10 16L11 16L11 15L15 15L15 14L16 14L16 17L18 17L18 18L19 18L19 17L21 17L21 18L20 18L20 19L18 19L18 21L16 21L16 20L15 20L15 21L13 21L13 20L12 20L12 18L11 18L11 17L10 17L10 18L11 18L11 20L10 20L10 19L9 19L9 16L6 16L6 15L7 15L7 14L6 14L6 15L5 15L5 14L4 14L4 15L3 15L3 13L4 13L4 12L0 12L0 14L2 14L2 15L0 15L0 18L1 18L1 20L0 20L0 21L1 21L1 23L0 23L0 25L1 25L1 26L0 26L0 31L1 31L1 30L3 30L3 29L4 29L4 27L2 27L2 28L1 28L1 26L2 26L2 25L3 25L3 26L6 26L6 27L5 27L5 28L6 28L6 29L5 29L5 32L4 32L4 31L2 31L2 34L3 34L3 33L4 33L4 37L3 37L3 38L4 38L4 39L7 39L7 40L3 40L3 39L2 39L2 37L1 37L1 34L0 34L0 39L2 39L2 40L1 40L1 41L3 41L3 42L2 42L2 43L1 43L1 42L0 42L0 43L1 43L1 44L3 44L3 43L4 43L4 44L6 44L6 45L4 45L4 46L2 46L2 45L0 45L0 46L2 46L2 47L4 47L4 46L6 46L6 47L5 47L5 48L4 48L4 49L3 49L3 48L2 48L2 49L1 49L1 50L0 50L0 52L1 52L1 55L0 55L0 56L1 56L1 57L0 57L0 61L1 61L1 57L2 57L2 53L3 53L3 52L4 52L4 53L7 53L7 54L6 54L6 55L5 55L5 54L4 54L4 55L3 55L3 56L6 56L6 57L8 57L8 58L5 58L5 57L3 57L3 58L2 58L2 59L3 59L3 58L4 58L4 59L8 59L8 58L9 58L9 55L10 55L10 56L11 56L11 57L13 57L13 56L14 56L14 58L11 58L11 60L10 60L10 59L9 59L9 60L6 60L6 61L8 61L8 62L9 62L9 63L8 63L8 65L11 65L11 66L9 66L9 67L8 67L8 69L10 69L10 68L11 68L11 66L12 66L12 65L14 65L14 64L15 64L15 66L14 66L14 68L15 68L15 66L16 66L16 63L18 63L18 61L19 61L19 60L20 60L20 62L19 62L19 64L18 64L18 65L17 65L17 66L18 66L18 67L17 67L17 68L16 68L16 69L20 69L20 68L18 68L18 67L20 67L20 66L21 66L21 65L22 65L22 64L21 64L21 63L24 63L24 64L23 64L23 67L25 67L25 66L27 66L27 67L26 67L26 69L29 69L29 67L28 67L28 64L29 64L29 66L30 66L30 67L31 67L31 66L30 66L30 65L32 65L32 67L33 67L33 68L32 68L32 69L33 69L33 68L34 68L34 69L40 69L40 68L42 68L42 67L43 67L43 68L44 68L44 69L46 69L46 68L45 68L45 66L46 66L46 67L48 67L48 68L47 68L47 69L50 69L50 68L51 68L51 69L52 69L52 68L54 68L54 69L55 69L55 68L54 68L54 66L55 66L55 67L57 67L57 68L56 68L56 69L57 69L57 68L58 68L58 65L60 65L60 66L61 66L61 65L62 65L62 67L61 67L61 68L60 68L60 67L59 67L59 69L64 69L64 67L65 67L65 66L66 66L66 67L67 67L67 66L69 66L69 64L68 64L68 62L69 62L69 60L67 60L67 61L65 61L65 60L63 60L63 59L62 59L62 58L64 58L64 59L68 59L68 58L69 58L69 55L68 55L68 53L69 53L69 52L68 52L68 51L69 51L69 47L67 47L67 48L68 48L68 51L67 51L67 49L65 49L65 51L67 51L67 55L68 55L68 56L65 56L65 58L64 58L64 55L65 55L65 54L66 54L66 52L65 52L65 54L64 54L64 53L63 53L63 54L64 54L64 55L62 55L62 52L63 52L63 51L64 51L64 48L65 48L65 47L66 47L66 46L67 46L67 44L68 44L68 45L69 45L69 43L68 43L68 42L69 42L69 41L68 41L68 40L67 40L67 42L66 42L66 43L67 43L67 44L66 44L66 46L64 46L64 44L65 44L65 42L64 42L64 44L61 44L61 45L59 45L59 46L58 46L58 45L57 45L57 43L56 43L56 45L55 45L55 44L54 44L54 43L55 43L55 40L56 40L56 42L58 42L58 40L61 40L61 39L62 39L62 37L65 37L65 35L68 35L68 33L69 33L69 32L67 32L67 34L65 34L65 33L66 33L66 32L63 32L63 31L62 31L62 30L64 30L64 31L68 31L68 30L64 30L64 29L62 29L62 28L63 28L63 26L64 26L64 27L68 27L68 26L69 26L69 25L68 25L68 22L69 22L69 20L68 20L68 18L67 18L67 17L68 17L68 16L69 16L69 15L68 15L68 13L67 13L67 12L66 12L66 13L67 13L67 15L68 15L68 16L66 16L66 18L65 18L65 17L64 17L64 16L65 16L65 14L64 14L64 11L63 11L63 10L64 10L64 8L63 8L63 9L62 9L62 10L61 10L61 8L59 8L59 4L57 4L57 5L56 5L56 7L57 7L57 5L58 5L58 8L56 8L56 9L55 9L55 8L53 8L53 5L54 5L54 7L55 7L55 4L56 4L56 1L57 1L57 3L59 3L59 2L58 2L58 1L61 1L61 0L56 0L56 1L55 1L55 0L54 0L54 1L53 1L53 0L52 0L52 1L53 1L53 2L52 2L52 4L50 4L50 3L49 3L49 2L50 2L50 1L51 1L51 0L50 0L50 1L48 1L48 3L49 3L49 4L48 4L48 5L47 5L47 6L46 6L46 7L45 7L45 6L44 6L44 9L43 9L43 5L44 5L44 3L45 3L45 5L46 5L46 3L45 3L45 2L47 2L47 1L44 1L44 0L41 0L41 1L39 1L39 0L38 0L38 2L37 2L37 1L36 1L36 0L34 0L34 4L32 4L32 3L33 3L33 0L32 0L32 3L31 3L31 1L30 1L30 3L31 3L31 4L30 4L30 5L29 5L29 6L28 6L28 4L29 4L29 2L28 2L28 3L27 3L27 2L26 2L26 3L25 3L25 4L23 4L23 3L24 3L24 2L25 2L25 1L26 1L26 0L22 0L22 1L21 1L21 0L17 0L17 1L13 1L13 0L12 0L12 1L11 1L11 0L10 0L10 1L9 1L9 0ZM12 1L12 3L13 3L13 1ZM23 1L23 2L24 2L24 1ZM35 1L35 2L36 2L36 1ZM41 1L41 2L40 2L40 3L39 3L39 2L38 2L38 3L37 3L37 5L38 5L38 4L39 4L39 5L40 5L40 6L39 6L39 7L38 7L38 6L37 6L37 7L38 7L38 9L37 9L37 10L36 10L36 9L35 9L35 10L34 10L34 9L33 9L33 10L32 10L32 8L31 8L31 9L28 9L28 10L30 10L30 11L32 11L32 12L31 12L31 13L32 13L32 16L33 16L33 19L29 19L29 16L28 16L28 15L29 15L29 14L30 14L30 13L29 13L29 12L28 12L28 11L26 11L26 5L24 5L24 6L23 6L23 5L21 5L21 7L20 7L20 5L19 5L19 7L18 7L18 6L17 6L17 8L19 8L19 7L20 7L20 9L19 9L19 10L18 10L18 11L17 11L17 12L16 12L16 14L17 14L17 15L18 15L18 14L17 14L17 12L18 12L18 11L19 11L19 10L20 10L20 12L19 12L19 14L20 14L20 16L21 16L21 15L22 15L22 14L20 14L20 12L22 12L22 13L24 13L24 11L23 11L23 12L22 12L22 10L23 10L23 9L24 9L24 10L25 10L25 11L26 11L26 12L27 12L27 13L25 13L25 14L26 14L26 16L27 16L27 17L25 17L25 15L24 15L24 17L25 17L25 18L23 18L23 16L22 16L22 18L21 18L21 19L22 19L22 18L23 18L23 19L24 19L24 20L22 20L22 21L21 21L21 23L20 23L20 24L19 24L19 23L18 23L18 24L19 24L19 25L21 25L21 27L19 27L19 28L20 28L20 29L19 29L19 30L18 30L18 29L17 29L17 26L16 26L16 27L15 27L15 28L16 28L16 30L18 30L18 31L17 31L17 33L14 33L14 34L10 34L10 32L11 32L11 30L12 30L12 29L14 29L14 30L13 30L13 32L12 32L12 33L13 33L13 32L14 32L14 30L15 30L15 29L14 29L14 27L13 27L13 28L11 28L11 29L10 29L10 27L11 27L11 26L12 26L12 25L13 25L13 26L15 26L15 25L17 25L17 24L15 24L15 25L14 25L14 23L15 23L15 22L16 22L16 21L15 21L15 22L14 22L14 23L13 23L13 21L10 21L10 23L13 23L13 24L12 24L12 25L11 25L11 26L10 26L10 25L8 25L8 24L9 24L9 22L8 22L8 21L9 21L9 19L8 19L8 18L7 18L7 17L6 17L6 16L5 16L5 18L4 18L4 17L3 17L3 15L2 15L2 16L1 16L1 18L2 18L2 19L4 19L4 20L3 20L3 21L4 21L4 22L2 22L2 23L1 23L1 24L2 24L2 23L3 23L3 25L4 25L4 24L7 24L7 25L6 25L6 26L10 26L10 27L6 27L6 28L8 28L8 30L9 30L9 31L10 31L10 32L9 32L9 34L10 34L10 35L11 35L11 36L15 36L15 37L16 37L16 39L14 39L14 41L12 41L12 40L13 40L13 38L12 38L12 39L10 39L10 38L8 38L8 37L6 37L6 38L7 38L7 39L9 39L9 40L7 40L7 41L6 41L6 42L7 42L7 43L6 43L6 44L7 44L7 45L6 45L6 46L7 46L7 47L6 47L6 48L5 48L5 50L7 50L7 51L6 51L6 52L8 52L8 54L9 54L9 53L10 53L10 54L11 54L11 56L12 56L12 55L13 55L13 53L12 53L12 51L15 51L15 52L14 52L14 53L15 53L15 52L16 52L16 51L17 51L17 52L18 52L18 51L20 51L20 50L21 50L21 52L22 52L22 53L21 53L21 54L20 54L20 52L19 52L19 53L16 53L16 54L14 54L14 56L15 56L15 57L17 57L17 58L16 58L16 59L14 59L14 61L13 61L13 64L14 64L14 61L16 61L16 62L15 62L15 63L16 63L16 62L17 62L17 60L19 60L19 59L17 59L17 58L18 58L18 57L17 57L17 56L20 56L20 55L22 55L22 56L24 56L24 55L26 55L26 56L25 56L25 58L24 58L24 57L21 57L21 58L20 58L20 57L19 57L19 58L20 58L20 59L21 59L21 60L22 60L22 61L21 61L21 62L20 62L20 63L21 63L21 62L22 62L22 61L26 61L26 60L27 60L27 59L28 59L28 58L31 58L31 59L29 59L29 60L31 60L31 62L30 62L30 63L32 63L32 60L33 60L33 59L34 59L34 60L37 60L37 62L38 62L38 63L37 63L37 64L38 64L38 65L39 65L39 67L38 67L38 68L40 68L40 67L41 67L41 66L40 66L40 65L41 65L41 63L40 63L40 62L41 62L41 60L42 60L42 59L43 59L43 62L42 62L42 63L43 63L43 67L44 67L44 63L45 63L45 65L46 65L46 66L47 66L47 65L46 65L46 63L47 63L47 62L50 62L50 64L49 64L49 63L48 63L48 64L49 64L49 65L48 65L48 66L50 66L50 67L49 67L49 68L50 68L50 67L51 67L51 68L52 68L52 67L51 67L51 66L50 66L50 64L51 64L51 62L52 62L52 63L53 63L53 62L52 62L52 61L55 61L55 62L54 62L54 63L59 63L59 62L60 62L60 59L61 59L61 60L62 60L62 59L61 59L61 58L62 58L62 56L61 56L61 57L60 57L60 56L59 56L59 55L58 55L58 56L57 56L57 57L56 57L56 55L57 55L57 54L56 54L56 53L55 53L55 57L56 57L56 58L55 58L55 60L52 60L52 61L51 61L51 62L50 62L50 60L51 60L51 59L52 59L52 58L53 58L53 59L54 59L54 58L53 58L53 57L54 57L54 56L53 56L53 55L54 55L54 53L53 53L53 52L55 52L55 51L57 51L57 52L58 52L58 54L60 54L60 55L61 55L61 53L60 53L60 52L59 52L59 51L60 51L60 50L61 50L61 51L63 51L63 50L62 50L62 48L64 48L64 46L62 46L62 45L61 45L61 46L60 46L60 47L59 47L59 49L58 49L58 46L57 46L57 45L56 45L56 46L57 46L57 47L56 47L56 48L55 48L55 47L54 47L54 46L51 46L51 47L49 47L49 46L48 46L48 45L46 45L46 46L45 46L45 45L44 45L44 43L48 43L48 42L50 42L50 43L49 43L49 45L50 45L50 44L52 44L52 45L53 45L53 44L52 44L52 43L54 43L54 42L53 42L53 40L55 40L55 39L56 39L56 40L58 40L58 39L57 39L57 37L58 37L58 38L59 38L59 37L60 37L60 39L61 39L61 37L60 37L60 36L59 36L59 35L60 35L60 34L59 34L59 33L60 33L60 31L61 31L61 32L62 32L62 31L61 31L61 30L62 30L62 29L61 29L61 30L59 30L59 29L58 29L58 28L59 28L59 27L60 27L60 28L62 28L62 27L61 27L61 26L59 26L59 25L60 25L60 23L59 23L59 21L58 21L58 22L57 22L57 21L56 21L56 20L58 20L58 18L59 18L59 17L61 17L61 18L60 18L60 19L62 19L62 13L63 13L63 12L62 12L62 13L61 13L61 11L59 11L59 12L58 12L58 10L59 10L59 8L58 8L58 10L57 10L57 13L56 13L56 12L55 12L55 11L56 11L56 10L53 10L53 12L52 12L52 11L51 11L51 10L50 10L50 9L49 9L49 10L50 10L50 11L48 11L48 12L49 12L49 13L48 13L48 14L47 14L47 12L45 12L45 13L44 13L44 10L45 10L45 11L46 11L46 10L47 10L47 8L50 8L50 6L51 6L51 8L52 8L52 9L53 9L53 8L52 8L52 5L53 5L53 4L52 4L52 5L49 5L49 7L48 7L48 6L47 6L47 8L45 8L45 9L44 9L44 10L40 10L40 9L42 9L42 5L41 5L41 4L40 4L40 3L41 3L41 2L42 2L42 1ZM54 1L54 2L55 2L55 1ZM43 2L43 3L42 3L42 4L43 4L43 3L44 3L44 2ZM26 3L26 4L27 4L27 3ZM35 3L35 4L36 4L36 3ZM54 3L54 4L55 4L55 3ZM60 3L60 5L61 5L61 3ZM31 4L31 5L30 5L30 6L29 6L29 7L28 7L28 6L27 6L27 7L28 7L28 8L30 8L30 6L31 6L31 7L32 7L32 6L31 6L31 5L32 5L32 4ZM33 5L33 8L36 8L36 5ZM14 6L14 7L15 7L15 6ZM22 6L22 8L23 8L23 6ZM24 6L24 9L25 9L25 6ZM34 6L34 7L35 7L35 6ZM40 6L40 8L39 8L39 9L38 9L38 11L37 11L37 12L38 12L38 16L36 16L36 15L34 15L34 16L35 16L35 18L37 18L37 19L34 19L34 20L35 20L35 21L36 21L36 22L37 22L37 24L36 24L36 26L37 26L37 25L38 25L38 26L39 26L39 27L38 27L38 28L39 28L39 29L38 29L38 30L37 30L37 29L36 29L36 30L37 30L37 31L34 31L34 30L35 30L35 29L34 29L34 30L33 30L33 29L31 29L31 28L32 28L32 27L33 27L33 26L34 26L34 25L35 25L35 22L34 22L34 21L31 21L31 20L29 20L29 19L26 19L26 18L25 18L25 20L24 20L24 21L23 21L23 22L25 22L25 20L26 20L26 22L28 22L28 23L23 23L23 24L22 24L22 23L21 23L21 25L24 25L24 26L25 26L25 27L26 27L26 29L24 29L24 27L23 27L23 26L22 26L22 27L23 27L23 29L22 29L22 28L21 28L21 29L20 29L20 30L19 30L19 31L20 31L20 30L22 30L22 31L23 31L23 29L24 29L24 30L27 30L27 31L24 31L24 32L23 32L23 33L21 33L21 32L20 32L20 33L19 33L19 32L18 32L18 33L17 33L17 34L14 34L14 35L15 35L15 36L16 36L16 37L17 37L17 38L19 38L19 37L20 37L20 40L19 40L19 39L16 39L16 40L15 40L15 41L16 41L16 40L17 40L17 41L20 41L20 42L21 42L21 43L20 43L20 44L21 44L21 45L20 45L20 48L19 48L19 43L18 43L18 44L17 44L17 42L16 42L16 43L14 43L14 46L13 46L13 47L12 47L12 45L11 45L11 42L12 42L12 41L11 41L11 40L10 40L10 41L9 41L9 42L8 42L8 41L7 41L7 42L8 42L8 43L9 43L9 45L11 45L11 47L12 47L12 48L10 48L10 50L9 50L9 48L8 48L8 49L7 49L7 48L6 48L6 49L7 49L7 50L8 50L8 52L9 52L9 51L11 51L11 50L14 50L14 48L15 48L15 50L16 50L16 49L18 49L18 50L19 50L19 49L22 49L22 48L25 48L25 49L23 49L23 51L22 51L22 52L25 52L25 51L27 51L27 52L26 52L26 53L23 53L23 54L26 54L26 53L27 53L27 54L28 54L28 55L27 55L27 56L26 56L26 57L27 57L27 58L25 58L25 60L26 60L26 59L27 59L27 58L28 58L28 57L31 57L31 58L32 58L32 59L33 59L33 58L34 58L34 59L35 59L35 58L34 58L34 56L35 56L35 57L37 57L37 56L36 56L36 55L37 55L37 53L38 53L38 54L40 54L40 55L39 55L39 56L38 56L38 60L39 60L39 61L38 61L38 62L39 62L39 61L40 61L40 60L41 60L41 59L42 59L42 58L44 58L44 57L45 57L45 59L44 59L44 61L46 61L46 60L47 60L47 61L49 61L49 60L47 60L47 59L49 59L49 55L47 55L47 54L48 54L48 53L50 53L50 54L51 54L51 55L52 55L52 54L53 54L53 53L52 53L52 52L53 52L53 51L50 51L50 50L55 50L55 48L54 48L54 47L51 47L51 48L49 48L49 47L47 47L47 46L46 46L46 48L47 48L47 49L50 49L50 50L46 50L46 49L45 49L45 48L44 48L44 47L42 47L42 46L43 46L43 45L42 45L42 43L43 43L43 42L44 42L44 41L45 41L45 42L46 42L46 39L45 39L45 37L46 37L46 36L47 36L47 37L50 37L50 38L51 38L51 37L52 37L52 35L53 35L53 33L54 33L54 35L55 35L55 36L56 36L56 37L57 37L57 36L58 36L58 37L59 37L59 36L58 36L58 35L59 35L59 34L58 34L58 33L59 33L59 32L58 32L58 31L59 31L59 30L58 30L58 29L57 29L57 27L59 27L59 26L58 26L58 24L59 24L59 23L58 23L58 24L57 24L57 23L56 23L56 25L53 25L53 26L52 26L52 27L51 27L51 25L52 25L52 23L53 23L53 24L54 24L54 22L55 22L55 21L53 21L53 22L52 22L52 23L50 23L50 22L51 22L51 21L52 21L52 19L51 19L51 20L50 20L50 22L49 22L49 19L50 19L50 18L51 18L51 17L52 17L52 18L54 18L54 20L56 20L56 19L55 19L55 17L52 17L52 16L54 16L54 15L55 15L55 16L56 16L56 18L58 18L58 17L57 17L57 16L58 16L58 15L59 15L59 16L61 16L61 15L59 15L59 14L58 14L58 13L57 13L57 14L56 14L56 15L55 15L55 13L54 13L54 15L53 15L53 14L52 14L52 12L51 12L51 11L50 11L50 14L49 14L49 15L48 15L48 17L50 17L50 18L47 18L47 19L46 19L46 20L47 20L47 21L48 21L48 22L46 22L46 21L45 21L45 20L44 20L44 21L45 21L45 22L46 22L46 23L44 23L44 22L43 22L43 19L42 19L42 20L41 20L41 23L40 23L40 21L39 21L39 20L38 20L38 22L37 22L37 19L38 19L38 18L39 18L39 19L40 19L40 18L39 18L39 17L40 17L40 12L41 12L41 16L42 16L42 17L41 17L41 18L44 18L44 19L45 19L45 17L46 17L46 16L47 16L47 14L46 14L46 13L45 13L45 14L44 14L44 13L43 13L43 11L42 11L42 12L41 12L41 11L40 11L40 10L39 10L39 9L40 9L40 8L41 8L41 6ZM60 6L60 7L61 7L61 6ZM0 8L0 10L2 10L2 11L4 11L4 10L2 10L2 8ZM4 8L4 9L7 9L7 8ZM65 8L65 10L66 10L66 11L67 11L67 9L69 9L69 8ZM14 9L14 10L15 10L15 11L16 11L16 10L15 10L15 9ZM20 9L20 10L22 10L22 9ZM45 9L45 10L46 10L46 9ZM6 10L6 11L7 11L7 12L6 12L6 13L7 13L7 12L9 12L9 11L7 11L7 10ZM33 10L33 11L34 11L34 12L32 12L32 13L34 13L34 12L35 12L35 14L37 14L37 13L36 13L36 11L34 11L34 10ZM38 11L38 12L40 12L40 11ZM68 11L68 12L69 12L69 11ZM59 12L59 13L60 13L60 14L61 14L61 13L60 13L60 12ZM27 13L27 15L28 15L28 13ZM42 14L42 15L43 15L43 17L44 17L44 14ZM45 14L45 15L46 15L46 14ZM50 14L50 16L52 16L52 14ZM63 14L63 15L64 15L64 14ZM56 15L56 16L57 16L57 15ZM12 16L12 17L13 17L13 19L14 19L14 18L15 18L15 16L14 16L14 17L13 17L13 16ZM18 16L18 17L19 17L19 16ZM38 16L38 17L37 17L37 18L38 18L38 17L39 17L39 16ZM2 17L2 18L3 18L3 17ZM27 17L27 18L28 18L28 17ZM63 17L63 19L64 19L64 17ZM5 18L5 20L4 20L4 21L8 21L8 19L7 19L7 18ZM16 18L16 19L17 19L17 18ZM6 19L6 20L7 20L7 19ZM65 19L65 20L64 20L64 22L62 22L62 20L61 20L61 23L62 23L62 24L63 24L63 23L64 23L64 25L65 25L65 24L67 24L67 22L68 22L68 20L67 20L67 19ZM1 20L1 21L2 21L2 20ZM65 20L65 21L66 21L66 22L64 22L64 23L66 23L66 22L67 22L67 21L66 21L66 20ZM18 21L18 22L20 22L20 21ZM28 21L28 22L29 22L29 21ZM30 21L30 22L31 22L31 21ZM4 22L4 23L8 23L8 22ZM42 22L42 24L43 24L43 26L41 26L41 24L40 24L40 23L39 23L39 24L40 24L40 27L39 27L39 28L40 28L40 30L41 30L41 32L40 32L40 34L41 34L41 33L44 33L44 34L43 34L43 35L41 35L41 36L40 36L40 35L38 35L38 33L39 33L39 30L38 30L38 33L37 33L37 35L38 35L38 36L37 36L37 38L35 38L35 39L34 39L34 38L33 38L33 37L32 37L32 35L31 35L31 34L32 34L32 33L27 33L27 34L26 34L26 35L25 35L25 34L24 34L24 33L26 33L26 32L24 32L24 33L23 33L23 34L20 34L20 35L19 35L19 34L18 34L18 36L22 36L22 37L21 37L21 38L22 38L22 37L23 37L23 36L24 36L24 35L25 35L25 37L26 37L26 39L27 39L27 37L26 37L26 35L27 35L27 36L28 36L28 38L30 38L30 37L29 37L29 36L30 36L30 35L31 35L31 37L32 37L32 38L31 38L31 39L28 39L28 40L27 40L27 41L24 41L24 40L25 40L25 38L24 38L24 39L23 39L23 40L22 40L22 39L21 39L21 40L20 40L20 41L22 41L22 43L21 43L21 44L22 44L22 47L21 47L21 48L22 48L22 47L25 47L25 48L27 48L27 51L28 51L28 50L29 50L29 49L28 49L28 48L29 48L29 47L30 47L30 45L28 45L28 46L27 46L27 45L26 45L26 44L28 44L28 43L26 43L26 42L27 42L27 41L28 41L28 42L29 42L29 44L31 44L31 47L32 47L32 46L34 46L34 47L33 47L33 48L32 48L32 49L31 49L31 51L29 51L29 52L31 52L31 53L28 53L28 52L27 52L27 53L28 53L28 54L31 54L31 55L29 55L29 56L31 56L31 57L32 57L32 58L33 58L33 56L31 56L31 55L34 55L34 54L35 54L35 55L36 55L36 54L35 54L35 53L37 53L37 52L38 52L38 53L39 53L39 52L38 52L38 51L39 51L39 50L38 50L38 49L39 49L39 48L38 48L38 49L35 49L35 48L37 48L37 47L38 47L38 45L40 45L40 46L39 46L39 47L40 47L40 51L41 51L41 52L40 52L40 54L41 54L41 55L40 55L40 57L39 57L39 58L40 58L40 59L39 59L39 60L40 60L40 59L41 59L41 58L40 58L40 57L41 57L41 55L42 55L42 56L43 56L43 57L44 57L44 56L43 56L43 55L44 55L44 54L45 54L45 53L46 53L46 54L47 54L47 52L50 52L50 51L47 51L47 52L46 52L46 51L44 51L44 52L43 52L43 50L42 50L42 51L41 51L41 49L42 49L42 47L40 47L40 46L41 46L41 43L42 43L42 41L41 41L41 39L40 39L40 38L38 38L38 37L39 37L39 36L40 36L40 37L43 37L43 41L44 41L44 40L45 40L45 39L44 39L44 36L43 36L43 35L44 35L44 34L45 34L45 35L46 35L46 34L47 34L47 35L48 35L48 36L49 36L49 35L48 35L48 34L50 34L50 33L51 33L51 35L50 35L50 37L51 37L51 35L52 35L52 33L53 33L53 32L54 32L54 33L56 33L56 34L55 34L55 35L56 35L56 36L57 36L57 33L58 33L58 32L57 32L57 33L56 33L56 30L57 30L57 31L58 31L58 30L57 30L57 29L56 29L56 26L54 26L54 29L56 29L56 30L55 30L55 31L53 31L53 32L52 32L52 33L51 33L51 31L52 31L52 29L53 29L53 28L52 28L52 29L51 29L51 30L50 30L50 29L48 29L48 30L47 30L47 29L46 29L46 28L45 28L45 27L44 27L44 28L43 28L43 29L44 29L44 30L43 30L43 31L42 31L42 29L41 29L41 28L42 28L42 27L43 27L43 26L44 26L44 23L43 23L43 22ZM28 23L28 24L31 24L31 23ZM32 23L32 25L31 25L31 26L30 26L30 25L28 25L28 26L26 26L26 27L27 27L27 29L28 29L28 30L29 30L29 31L30 31L30 32L31 32L31 29L30 29L30 27L32 27L32 25L34 25L34 23ZM47 23L47 25L46 25L46 26L47 26L47 25L48 25L48 27L47 27L47 28L48 28L48 27L49 27L49 25L50 25L50 23L49 23L49 25L48 25L48 23ZM25 24L25 25L26 25L26 24ZM28 27L28 28L29 28L29 27ZM34 27L34 28L35 28L35 27ZM40 27L40 28L41 28L41 27ZM50 27L50 28L51 28L51 27ZM44 28L44 29L45 29L45 28ZM68 28L68 29L69 29L69 28ZM6 29L6 30L7 30L7 29ZM9 29L9 30L10 30L10 29ZM29 29L29 30L30 30L30 29ZM32 30L32 32L33 32L33 30ZM44 30L44 33L45 33L45 34L46 34L46 33L45 33L45 30ZM6 31L6 32L7 32L7 31ZM15 31L15 32L16 32L16 31ZM27 31L27 32L28 32L28 31ZM46 31L46 32L47 32L47 34L48 34L48 33L50 33L50 31L49 31L49 32L47 32L47 31ZM0 32L0 33L1 33L1 32ZM5 33L5 36L8 36L8 33ZM33 33L33 36L36 36L36 33ZM61 33L61 36L64 36L64 33ZM6 34L6 35L7 35L7 34ZM28 34L28 36L29 36L29 35L30 35L30 34ZM34 34L34 35L35 35L35 34ZM62 34L62 35L63 35L63 34ZM2 35L2 36L3 36L3 35ZM16 35L16 36L17 36L17 35ZM22 35L22 36L23 36L23 35ZM53 36L53 38L52 38L52 39L53 39L53 38L55 38L55 37L54 37L54 36ZM66 36L66 38L67 38L67 39L68 39L68 38L69 38L69 36L68 36L68 38L67 38L67 36ZM4 37L4 38L5 38L5 37ZM32 38L32 39L31 39L31 40L29 40L29 41L31 41L31 42L32 42L32 40L34 40L34 39L33 39L33 38ZM37 38L37 39L38 39L38 42L37 42L37 41L36 41L36 42L37 42L37 43L38 43L38 44L37 44L37 45L38 45L38 44L39 44L39 43L38 43L38 42L41 42L41 41L40 41L40 39L38 39L38 38ZM47 38L47 41L49 41L49 38ZM64 38L64 39L63 39L63 41L65 41L65 40L64 40L64 39L65 39L65 38ZM50 40L50 42L51 42L51 43L52 43L52 40ZM4 41L4 43L5 43L5 41ZM10 41L10 42L9 42L9 43L10 43L10 42L11 42L11 41ZM23 41L23 43L22 43L22 44L23 44L23 43L24 43L24 45L23 45L23 46L25 46L25 47L26 47L26 45L25 45L25 44L26 44L26 43L25 43L25 42L24 42L24 41ZM33 41L33 42L35 42L35 41ZM59 41L59 43L58 43L58 44L59 44L59 43L62 43L62 41ZM12 43L12 44L13 44L13 43ZM34 43L34 44L32 44L32 45L34 45L34 44L35 44L35 43ZM16 44L16 46L15 46L15 48L17 48L17 47L18 47L18 46L17 46L17 44ZM7 45L7 46L8 46L8 45ZM28 46L28 47L27 47L27 48L28 48L28 47L29 47L29 46ZM35 46L35 47L37 47L37 46ZM61 46L61 47L60 47L60 48L62 48L62 46ZM13 47L13 48L14 48L14 47ZM18 48L18 49L19 49L19 48ZM43 48L43 49L44 49L44 50L45 50L45 49L44 49L44 48ZM52 48L52 49L54 49L54 48ZM56 48L56 49L57 49L57 50L58 50L58 51L59 51L59 50L58 50L58 49L57 49L57 48ZM2 49L2 50L1 50L1 52L3 52L3 51L4 51L4 50L3 50L3 49ZM33 49L33 51L31 51L31 52L33 52L33 54L34 54L34 52L35 52L35 49ZM2 50L2 51L3 51L3 50ZM37 50L37 51L38 51L38 50ZM10 52L10 53L11 53L11 54L12 54L12 53L11 53L11 52ZM42 52L42 53L41 53L41 54L44 54L44 53L45 53L45 52L44 52L44 53L43 53L43 52ZM31 53L31 54L32 54L32 53ZM51 53L51 54L52 54L52 53ZM18 54L18 55L19 55L19 54ZM6 55L6 56L7 56L7 55ZM15 55L15 56L17 56L17 55ZM27 56L27 57L28 57L28 56ZM46 57L46 58L47 58L47 57ZM50 57L50 59L51 59L51 58L52 58L52 57ZM57 57L57 58L56 58L56 59L57 59L57 60L56 60L56 62L57 62L57 61L58 61L58 59L60 59L60 58L58 58L58 57ZM66 57L66 58L68 58L68 57ZM21 58L21 59L23 59L23 60L24 60L24 59L23 59L23 58ZM12 59L12 60L13 60L13 59ZM3 60L3 61L5 61L5 60ZM9 61L9 62L10 62L10 61ZM28 61L28 63L29 63L29 61ZM33 61L33 64L36 64L36 61ZM61 61L61 64L64 64L64 61ZM67 61L67 62L66 62L66 63L65 63L65 65L68 65L68 64L67 64L67 62L68 62L68 61ZM34 62L34 63L35 63L35 62ZM62 62L62 63L63 63L63 62ZM25 63L25 65L27 65L27 64L26 64L26 63ZM11 64L11 65L12 65L12 64ZM19 64L19 65L20 65L20 64ZM39 64L39 65L40 65L40 64ZM52 64L52 65L55 65L55 66L56 66L56 65L55 65L55 64ZM57 64L57 65L58 65L58 64ZM34 65L34 67L35 67L35 68L37 68L37 67L36 67L36 65ZM63 66L63 67L62 67L62 68L63 68L63 67L64 67L64 66ZM12 67L12 69L13 69L13 67ZM21 67L21 69L22 69L22 67ZM27 67L27 68L28 68L28 67ZM30 68L30 69L31 69L31 68ZM66 68L66 69L67 69L67 68ZM68 68L68 69L69 69L69 68ZM0 0L0 7L7 7L7 0ZM1 1L1 6L6 6L6 1ZM2 2L2 5L5 5L5 2ZM62 0L62 7L69 7L69 0ZM63 1L63 6L68 6L68 1ZM64 2L64 5L67 5L67 2ZM0 62L0 69L7 69L7 62ZM1 63L1 68L6 68L6 63ZM2 64L2 67L5 67L5 64Z" fill="#000000"/></g></g></svg>
