<?xml version="1.0" encoding="UTF-8"?>
<svg xmlns="http://www.w3.org/2000/svg" version="1.1" width="300" height="300" viewBox="0 0 300 300"><rect x="0" y="0" width="300" height="300" fill="#ffffff"/><g transform="scale(4.348)"><g transform="translate(0,0)"><path fill-rule="evenodd" d="M8 0L8 4L9 4L9 5L8 5L8 7L9 7L9 5L11 5L11 6L10 6L10 8L9 8L9 10L10 10L10 9L11 9L11 10L12 10L12 14L13 14L13 15L14 15L14 16L13 16L13 18L14 18L14 16L15 16L15 14L17 14L17 13L18 13L18 15L17 15L17 16L16 16L16 17L15 17L15 19L12 19L12 21L10 21L10 22L9 22L9 19L11 19L11 18L12 18L12 15L11 15L11 17L10 17L10 18L9 18L9 19L7 19L7 18L6 18L6 19L7 19L7 20L3 20L3 19L4 19L4 18L2 18L2 19L1 19L1 20L0 20L0 21L1 21L1 20L3 20L3 21L4 21L4 22L0 22L0 23L2 23L2 24L0 24L0 26L2 26L2 27L0 27L0 28L2 28L2 27L3 27L3 29L4 29L4 27L5 27L5 26L6 26L6 27L7 27L7 26L8 26L8 29L7 29L7 28L6 28L6 29L5 29L5 30L2 30L2 29L0 29L0 32L1 32L1 31L3 31L3 32L4 32L4 35L3 35L3 33L2 33L2 35L0 35L0 37L1 37L1 40L2 40L2 41L3 41L3 42L2 42L2 43L3 43L3 46L2 46L2 44L1 44L1 43L0 43L0 44L1 44L1 46L0 46L0 47L1 47L1 48L0 48L0 51L2 51L2 53L1 53L1 54L0 54L0 56L1 56L1 54L2 54L2 55L3 55L3 57L1 57L1 58L0 58L0 61L1 61L1 58L2 58L2 59L3 59L3 57L5 57L5 54L6 54L6 55L8 55L8 53L9 53L9 54L10 54L10 55L9 55L9 56L8 56L8 57L7 57L7 56L6 56L6 57L7 57L7 58L4 58L4 59L8 59L8 60L10 60L10 59L11 59L11 60L12 60L12 61L13 61L13 60L14 60L14 62L13 62L13 63L15 63L15 64L16 64L16 65L15 65L15 66L14 66L14 64L12 64L12 62L11 62L11 61L10 61L10 62L9 62L9 61L8 61L8 62L9 62L9 63L8 63L8 65L9 65L9 63L10 63L10 66L11 66L11 67L8 67L8 69L10 69L10 68L11 68L11 69L14 69L14 67L15 67L15 68L17 68L17 69L19 69L19 67L20 67L20 66L21 66L21 65L22 65L22 63L23 63L23 67L22 67L22 68L21 68L21 69L22 69L22 68L24 68L24 69L25 69L25 68L24 68L24 66L26 66L26 69L28 69L28 68L27 68L27 67L28 67L28 66L29 66L29 69L31 69L31 67L32 67L32 69L33 69L33 68L34 68L34 69L35 69L35 68L34 68L34 67L35 67L35 66L34 66L34 65L36 65L36 66L37 66L37 67L39 67L39 66L40 66L40 63L41 63L41 67L40 67L40 68L38 68L38 69L40 69L40 68L41 68L41 69L43 69L43 68L41 68L41 67L43 67L43 63L42 63L42 62L43 62L43 61L42 61L42 58L45 58L45 59L44 59L44 69L46 69L46 67L45 67L45 62L46 62L46 61L47 61L47 63L46 63L46 64L47 64L47 65L50 65L50 66L49 66L49 67L50 67L50 68L48 68L48 67L47 67L47 69L52 69L52 68L53 68L53 69L55 69L55 68L53 68L53 67L55 67L55 63L56 63L56 66L57 66L57 67L56 67L56 69L57 69L57 67L58 67L58 68L59 68L59 69L60 69L60 67L59 67L59 66L58 66L58 65L59 65L59 64L58 64L58 65L57 65L57 63L56 63L56 62L55 62L55 61L53 61L53 62L51 62L51 61L52 61L52 60L51 60L51 59L50 59L50 62L51 62L51 63L49 63L49 59L47 59L47 58L49 58L49 57L50 57L50 58L51 58L51 57L52 57L52 58L56 58L56 59L54 59L54 60L56 60L56 61L57 61L57 62L58 62L58 60L56 60L56 59L58 59L58 55L59 55L59 54L58 54L58 52L56 52L56 51L59 51L59 50L58 50L58 49L59 49L59 48L61 48L61 51L60 51L60 53L62 53L62 52L64 52L64 47L66 47L66 46L67 46L67 47L68 47L68 48L67 48L67 49L65 49L65 51L66 51L66 50L67 50L67 53L69 53L69 52L68 52L68 50L67 50L67 49L68 49L68 48L69 48L69 47L68 47L68 46L69 46L69 43L68 43L68 42L69 42L69 39L68 39L68 38L69 38L69 35L68 35L68 33L67 33L67 35L68 35L68 37L66 37L66 36L65 36L65 34L66 34L66 32L63 32L63 31L62 31L62 30L64 30L64 31L67 31L67 32L68 32L68 31L67 31L67 30L65 30L65 29L66 29L66 27L65 27L65 29L64 29L64 27L62 27L62 26L67 26L67 28L68 28L68 29L69 29L69 27L68 27L68 26L67 26L67 24L65 24L65 23L64 23L64 24L63 24L63 22L64 22L64 20L65 20L65 19L67 19L67 20L68 20L68 21L67 21L67 22L66 22L66 23L68 23L68 24L69 24L69 23L68 23L68 21L69 21L69 20L68 20L68 18L67 18L67 17L69 17L69 15L68 15L68 12L65 12L65 13L67 13L67 16L66 16L66 18L65 18L65 17L64 17L64 16L65 16L65 15L63 15L63 13L64 13L64 11L65 11L65 10L66 10L66 9L67 9L67 11L68 11L68 9L69 9L69 8L65 8L65 9L64 9L64 8L63 8L63 9L62 9L62 10L64 10L64 11L60 11L60 10L61 10L61 9L60 9L60 8L59 8L59 4L57 4L57 6L56 6L56 5L55 5L55 4L56 4L56 3L59 3L59 2L58 2L58 1L61 1L61 0L58 0L58 1L55 1L55 0L54 0L54 1L53 1L53 2L52 2L52 0L50 0L50 2L49 2L49 0L48 0L48 1L46 1L46 0L45 0L45 1L44 1L44 0L41 0L41 1L40 1L40 0L37 0L37 1L36 1L36 0L35 0L35 1L36 1L36 2L34 2L34 4L32 4L32 5L31 5L31 4L30 4L30 5L28 5L28 4L29 4L29 3L28 3L28 4L27 4L27 5L25 5L25 3L27 3L27 1L28 1L28 2L30 2L30 3L32 3L32 2L33 2L33 0L32 0L32 2L31 2L31 1L30 1L30 0L23 0L23 1L25 1L25 3L24 3L24 2L23 2L23 3L22 3L22 0L17 0L17 1L16 1L16 0L14 0L14 1L13 1L13 2L12 2L12 1L11 1L11 2L10 2L10 1L9 1L9 0ZM17 1L17 3L15 3L15 2L13 2L13 3L12 3L12 2L11 2L11 3L9 3L9 4L11 4L11 3L12 3L12 5L14 5L14 6L13 6L13 8L16 8L16 9L14 9L14 10L13 10L13 9L12 9L12 6L11 6L11 9L12 9L12 10L13 10L13 11L14 11L14 13L13 13L13 14L14 14L14 13L15 13L15 11L16 11L16 13L17 13L17 12L18 12L18 11L16 11L16 9L17 9L17 8L18 8L18 6L17 6L17 5L18 5L18 4L19 4L19 5L20 5L20 6L19 6L19 7L20 7L20 6L21 6L21 9L22 9L22 10L21 10L21 11L20 11L20 8L19 8L19 11L20 11L20 13L19 13L19 14L20 14L20 15L19 15L19 16L18 16L18 17L17 17L17 19L16 19L16 20L13 20L13 21L12 21L12 22L11 22L11 23L10 23L10 25L11 25L11 24L12 24L12 26L11 26L11 27L9 27L9 28L11 28L11 31L6 31L6 30L7 30L7 29L6 29L6 30L5 30L5 31L6 31L6 32L9 32L9 34L10 34L10 35L12 35L12 36L11 36L11 37L9 37L9 38L10 38L10 39L11 39L11 40L8 40L8 39L6 39L6 38L7 38L7 37L4 37L4 36L3 36L3 35L2 35L2 37L4 37L4 38L2 38L2 39L3 39L3 40L4 40L4 39L5 39L5 42L8 42L8 43L6 43L6 44L7 44L7 45L6 45L6 46L3 46L3 48L2 48L2 51L3 51L3 53L4 53L4 54L3 54L3 55L4 55L4 54L5 54L5 53L6 53L6 54L7 54L7 53L8 53L8 51L5 51L5 53L4 53L4 51L3 51L3 50L5 50L5 49L4 49L4 47L6 47L6 48L9 48L9 46L7 46L7 45L9 45L9 44L10 44L10 45L11 45L11 43L12 43L12 45L13 45L13 44L14 44L14 45L15 45L15 44L14 44L14 43L13 43L13 41L12 41L12 39L13 39L13 40L14 40L14 42L15 42L15 43L16 43L16 42L17 42L17 43L18 43L18 44L19 44L19 43L20 43L20 45L19 45L19 47L22 47L22 49L19 49L19 48L18 48L18 49L17 49L17 47L18 47L18 45L17 45L17 44L16 44L16 46L14 46L14 47L13 47L13 46L11 46L11 48L10 48L10 49L8 49L8 50L9 50L9 52L10 52L10 51L11 51L11 50L12 50L12 49L13 49L13 51L12 51L12 52L11 52L11 55L10 55L10 56L11 56L11 57L14 57L14 58L12 58L12 59L14 59L14 60L15 60L15 61L16 61L16 62L15 62L15 63L17 63L17 65L16 65L16 67L17 67L17 68L18 68L18 67L19 67L19 66L17 66L17 65L18 65L18 64L19 64L19 65L20 65L20 64L21 64L21 62L20 62L20 61L21 61L21 60L22 60L22 62L23 62L23 63L24 63L24 64L25 64L25 65L29 65L29 63L28 63L28 62L29 62L29 61L27 61L27 63L28 63L28 64L26 64L26 63L25 63L25 62L26 62L26 60L25 60L25 58L26 58L26 59L27 59L27 60L28 60L28 58L29 58L29 57L30 57L30 56L31 56L31 59L29 59L29 60L31 60L31 59L32 59L32 60L33 60L33 58L34 58L34 57L35 57L35 58L38 58L38 59L39 59L39 58L40 58L40 59L41 59L41 58L40 58L40 57L41 57L41 56L42 56L42 57L44 57L44 54L45 54L45 53L46 53L46 54L47 54L47 57L46 57L46 58L47 58L47 57L48 57L48 53L46 53L46 52L49 52L49 54L50 54L50 53L51 53L51 56L50 56L50 55L49 55L49 56L50 56L50 57L51 57L51 56L52 56L52 57L56 57L56 58L57 58L57 57L56 57L56 54L55 54L55 56L52 56L52 55L54 55L54 53L53 53L53 51L54 51L54 52L55 52L55 53L56 53L56 52L55 52L55 51L56 51L56 50L57 50L57 49L58 49L58 47L56 47L56 44L57 44L57 45L58 45L58 46L59 46L59 47L60 47L60 46L62 46L62 47L61 47L61 48L62 48L62 51L61 51L61 52L62 52L62 51L63 51L63 48L62 48L62 47L64 47L64 46L66 46L66 45L65 45L65 44L67 44L67 42L68 42L68 41L67 41L67 38L65 38L65 37L62 37L62 39L61 39L61 38L60 38L60 36L59 36L59 35L60 35L60 34L59 34L59 33L60 33L60 32L62 32L62 31L60 31L60 30L59 30L59 28L62 28L62 29L61 29L61 30L62 30L62 29L63 29L63 28L62 28L62 27L61 27L61 26L62 26L62 25L63 25L63 24L62 24L62 15L61 15L61 18L59 18L59 16L57 16L57 17L56 17L56 15L58 15L58 14L59 14L59 13L61 13L61 14L62 14L62 13L63 13L63 12L62 12L62 13L61 13L61 12L59 12L59 11L57 11L57 12L58 12L58 14L57 14L57 13L56 13L56 10L53 10L53 11L52 11L52 13L51 13L51 12L49 12L49 15L48 15L48 16L49 16L49 15L50 15L50 16L52 16L52 17L51 17L51 18L52 18L52 19L50 19L50 17L49 17L49 18L48 18L48 17L47 17L47 15L45 15L45 14L44 14L44 15L43 15L43 17L44 17L44 15L45 15L45 17L46 17L46 19L44 19L44 18L41 18L41 17L42 17L42 16L40 16L40 21L39 21L39 20L38 20L38 21L37 21L37 19L39 19L39 18L38 18L38 17L39 17L39 15L42 15L42 13L43 13L43 12L42 12L42 10L41 10L41 9L43 9L43 11L45 11L45 13L46 13L46 14L47 14L47 13L46 13L46 12L47 12L47 11L46 11L46 10L47 10L47 8L49 8L49 7L50 7L50 9L49 9L49 11L50 11L50 9L51 9L51 10L52 10L52 9L56 9L56 8L55 8L55 7L56 7L56 6L55 6L55 7L54 7L54 5L53 5L53 7L54 7L54 8L52 8L52 3L51 3L51 2L50 2L50 3L49 3L49 2L48 2L48 3L47 3L47 4L46 4L46 5L44 5L44 4L45 4L45 3L46 3L46 1L45 1L45 3L44 3L44 2L42 2L42 1L41 1L41 2L42 2L42 3L44 3L44 4L43 4L43 5L44 5L44 6L43 6L43 8L41 8L41 7L42 7L42 5L41 5L41 4L40 4L40 1L37 1L37 3L36 3L36 4L37 4L37 3L38 3L38 4L40 4L40 5L39 5L39 7L40 7L40 11L41 11L41 14L40 14L40 13L39 13L39 11L38 11L38 12L36 12L36 13L37 13L37 14L35 14L35 13L34 13L34 11L36 11L36 9L35 9L35 10L34 10L34 9L33 9L33 10L32 10L32 9L31 9L31 8L32 8L32 6L31 6L31 5L30 5L30 6L29 6L29 7L30 7L30 6L31 6L31 8L30 8L30 9L27 9L27 10L26 10L26 8L25 8L25 7L26 7L26 6L25 6L25 7L24 7L24 5L22 5L22 3L21 3L21 2L20 2L20 1ZM54 1L54 2L53 2L53 4L55 4L55 3L54 3L54 2L55 2L55 1ZM18 2L18 3L19 3L19 2ZM13 3L13 4L14 4L14 5L17 5L17 4L15 4L15 3ZM20 3L20 5L21 5L21 3ZM60 3L60 5L61 5L61 3ZM50 4L50 5L49 5L49 6L48 6L48 5L47 5L47 6L46 6L46 7L45 7L45 6L44 6L44 7L45 7L45 8L44 8L44 9L45 9L45 10L46 10L46 9L45 9L45 8L47 8L47 6L48 6L48 7L49 7L49 6L50 6L50 7L51 7L51 4ZM33 5L33 8L36 8L36 5ZM37 5L37 9L39 9L39 8L38 8L38 5ZM14 6L14 7L15 7L15 6ZM16 6L16 7L17 7L17 6ZM22 6L22 8L23 8L23 6ZM27 6L27 8L28 8L28 6ZM34 6L34 7L35 7L35 6ZM40 6L40 7L41 7L41 6ZM57 6L57 7L58 7L58 6ZM60 6L60 7L61 7L61 6ZM0 8L0 9L1 9L1 10L2 10L2 11L0 11L0 13L1 13L1 15L2 15L2 17L3 17L3 16L4 16L4 15L5 15L5 16L6 16L6 17L7 17L7 16L8 16L8 17L9 17L9 16L10 16L10 14L11 14L11 13L10 13L10 14L9 14L9 13L8 13L8 12L9 12L9 11L8 11L8 9L7 9L7 8L4 8L4 10L5 10L5 13L8 13L8 14L9 14L9 16L8 16L8 15L7 15L7 14L6 14L6 15L5 15L5 14L4 14L4 15L3 15L3 14L2 14L2 13L1 13L1 12L2 12L2 11L3 11L3 13L4 13L4 11L3 11L3 9L2 9L2 8ZM24 8L24 9L23 9L23 11L24 11L24 12L23 12L23 13L22 13L22 11L21 11L21 13L20 13L20 14L21 14L21 16L19 16L19 17L18 17L18 18L19 18L19 17L21 17L21 18L20 18L20 19L17 19L17 22L18 22L18 21L20 21L20 23L21 23L21 24L18 24L18 23L17 23L17 25L15 25L15 24L16 24L16 22L15 22L15 24L13 24L13 25L15 25L15 27L16 27L16 26L18 26L18 28L17 28L17 29L18 29L18 30L16 30L16 28L15 28L15 29L14 29L14 27L11 27L11 28L13 28L13 29L12 29L12 31L11 31L11 32L12 32L12 33L11 33L11 34L12 34L12 35L14 35L14 34L15 34L15 36L12 36L12 38L11 38L11 39L12 39L12 38L14 38L14 37L15 37L15 41L16 41L16 40L17 40L17 42L18 42L18 41L20 41L20 43L21 43L21 45L20 45L20 46L22 46L22 43L24 43L24 44L23 44L23 50L25 50L25 51L26 51L26 50L27 50L27 49L28 49L28 48L29 48L29 49L34 49L34 50L33 50L33 51L34 51L34 52L35 52L35 50L36 50L36 49L34 49L34 46L35 46L35 47L36 47L36 48L37 48L37 49L38 49L38 51L37 51L37 52L36 52L36 53L38 53L38 52L39 52L39 56L38 56L38 55L37 55L37 56L35 56L35 57L37 57L37 56L38 56L38 58L39 58L39 57L40 57L40 55L41 55L41 53L40 53L40 48L41 48L41 47L38 47L38 48L37 48L37 47L36 47L36 46L35 46L35 45L34 45L34 44L33 44L33 45L32 45L32 43L36 43L36 42L37 42L37 41L38 41L38 44L36 44L36 45L38 45L38 46L39 46L39 45L40 45L40 46L41 46L41 45L42 45L42 49L41 49L41 52L42 52L42 55L43 55L43 54L44 54L44 53L45 53L45 50L46 50L46 51L47 51L47 50L46 50L46 49L45 49L45 48L47 48L47 49L48 49L48 51L49 51L49 52L50 52L50 51L49 51L49 48L48 48L48 47L49 47L49 45L50 45L50 47L51 47L51 48L50 48L50 50L51 50L51 53L52 53L52 54L53 54L53 53L52 53L52 51L53 51L53 50L55 50L55 49L52 49L52 48L55 48L55 45L54 45L54 43L53 43L53 42L55 42L55 41L53 41L53 42L52 42L52 40L51 40L51 39L52 39L52 38L55 38L55 39L54 39L54 40L56 40L56 42L58 42L58 41L59 41L59 38L58 38L58 35L59 35L59 34L58 34L58 32L59 32L59 31L56 31L56 30L58 30L58 25L59 25L59 26L61 26L61 25L62 25L62 24L61 24L61 25L59 25L59 24L60 24L60 23L59 23L59 22L61 22L61 19L60 19L60 21L59 21L59 22L58 22L58 21L57 21L57 19L58 19L58 20L59 20L59 19L58 19L58 17L57 17L57 19L56 19L56 21L57 21L57 22L58 22L58 25L57 25L57 23L55 23L55 25L54 25L54 22L55 22L55 21L53 21L53 27L52 27L52 26L51 26L51 25L52 25L52 20L51 20L51 21L50 21L50 23L48 23L48 25L47 25L47 22L48 22L48 21L49 21L49 20L48 20L48 19L46 19L46 20L44 20L44 23L45 23L45 24L44 24L44 25L43 25L43 24L42 24L42 25L41 25L41 26L43 26L43 28L42 28L42 27L40 27L40 24L41 24L41 23L42 23L42 22L43 22L43 21L41 21L41 23L40 23L40 22L39 22L39 23L40 23L40 24L38 24L38 26L39 26L39 27L40 27L40 28L42 28L42 30L40 30L40 29L39 29L39 28L38 28L38 27L37 27L37 28L36 28L36 29L34 29L34 28L35 28L35 27L36 27L36 26L37 26L37 23L36 23L36 25L35 25L35 23L33 23L33 25L32 25L32 22L31 22L31 24L30 24L30 25L29 25L29 24L27 24L27 23L26 23L26 25L25 25L25 24L22 24L22 23L21 23L21 21L22 21L22 20L23 20L23 22L26 22L26 21L27 21L27 22L28 22L28 20L29 20L29 21L33 21L33 20L32 20L32 19L31 19L31 17L32 17L32 15L31 15L31 14L33 14L33 12L32 12L32 13L31 13L31 12L29 12L29 10L27 10L27 11L26 11L26 10L24 10L24 9L25 9L25 8ZM51 8L51 9L52 9L52 8ZM6 9L6 10L7 10L7 9ZM30 9L30 11L32 11L32 10L31 10L31 9ZM58 9L58 10L59 10L59 9ZM33 10L33 11L34 11L34 10ZM6 11L6 12L7 12L7 11ZM10 11L10 12L11 12L11 11ZM25 11L25 13L26 13L26 14L25 14L25 15L26 15L26 16L28 16L28 17L27 17L27 18L26 18L26 17L25 17L25 21L26 21L26 20L27 20L27 19L28 19L28 18L29 18L29 19L30 19L30 18L29 18L29 16L28 16L28 15L27 15L27 13L26 13L26 11ZM53 11L53 12L54 12L54 13L53 13L53 14L54 14L54 15L52 15L52 14L51 14L51 13L50 13L50 14L51 14L51 15L52 15L52 16L53 16L53 17L52 17L52 18L53 18L53 19L54 19L54 20L55 20L55 19L54 19L54 18L56 18L56 17L55 17L55 16L54 16L54 15L55 15L55 14L56 14L56 13L55 13L55 11ZM28 12L28 14L30 14L30 13L29 13L29 12ZM38 13L38 14L37 14L37 15L36 15L36 16L35 16L35 14L34 14L34 15L33 15L33 17L34 17L34 16L35 16L35 18L33 18L33 19L34 19L34 20L35 20L35 19L36 19L36 17L38 17L38 16L37 16L37 15L38 15L38 14L39 14L39 13ZM22 14L22 16L21 16L21 17L23 17L23 14ZM6 15L6 16L7 16L7 15ZM30 15L30 16L31 16L31 15ZM0 16L0 18L1 18L1 16ZM63 17L63 19L64 19L64 17ZM21 18L21 19L23 19L23 18ZM42 19L42 20L43 20L43 19ZM7 20L7 21L5 21L5 22L4 22L4 23L3 23L3 25L2 25L2 26L3 26L3 27L4 27L4 26L5 26L5 23L6 23L6 24L7 24L7 25L6 25L6 26L7 26L7 25L9 25L9 24L7 24L7 23L6 23L6 22L8 22L8 20ZM35 21L35 22L37 22L37 21ZM46 21L46 22L47 22L47 21ZM13 22L13 23L14 23L14 22ZM29 22L29 23L30 23L30 22ZM50 23L50 24L51 24L51 23ZM64 24L64 25L65 25L65 24ZM19 25L19 28L20 28L20 29L19 29L19 30L18 30L18 31L17 31L17 32L16 32L16 31L15 31L15 30L13 30L13 31L12 31L12 32L13 32L13 33L14 33L14 32L15 32L15 33L16 33L16 35L17 35L17 36L16 36L16 39L19 39L19 38L17 38L17 36L18 36L18 35L19 35L19 37L21 37L21 38L20 38L20 39L21 39L21 41L22 41L22 42L23 42L23 41L24 41L24 42L25 42L25 47L24 47L24 48L25 48L25 47L26 47L26 48L27 48L27 46L26 46L26 42L30 42L30 41L32 41L32 42L31 42L31 43L32 43L32 42L33 42L33 41L32 41L32 40L30 40L30 41L24 41L24 40L25 40L25 38L26 38L26 40L28 40L28 39L30 39L30 38L29 38L29 34L30 34L30 33L29 33L29 32L26 32L26 31L25 31L25 30L26 30L26 28L27 28L27 27L26 27L26 28L25 28L25 26L24 26L24 25L21 25L21 26L23 26L23 27L24 27L24 28L21 28L21 27L20 27L20 25ZM27 25L27 26L28 26L28 27L29 27L29 28L30 28L30 27L33 27L33 28L32 28L32 29L31 29L31 30L30 30L30 29L27 29L27 30L28 30L28 31L29 31L29 30L30 30L30 31L32 31L32 32L35 32L35 31L39 31L39 30L38 30L38 29L37 29L37 30L34 30L34 31L33 31L33 28L34 28L34 27L35 27L35 26L34 26L34 25L33 25L33 26L29 26L29 25ZM46 25L46 26L47 26L47 25ZM48 25L48 27L50 27L50 28L49 28L49 29L48 29L48 30L47 30L47 27L45 27L45 28L46 28L46 31L45 31L45 29L44 29L44 28L43 28L43 31L40 31L40 33L44 33L44 34L43 34L43 35L41 35L41 34L39 34L39 35L38 35L38 33L39 33L39 32L38 32L38 33L37 33L37 37L31 37L31 39L34 39L34 41L35 41L35 40L37 40L37 37L38 37L38 36L39 36L39 35L40 35L40 37L39 37L39 38L38 38L38 41L39 41L39 39L40 39L40 41L41 41L41 37L43 37L43 38L45 38L45 37L46 37L46 42L45 42L45 43L44 43L44 40L45 40L45 39L43 39L43 42L39 42L39 43L41 43L41 44L43 44L43 45L44 45L44 46L43 46L43 47L44 47L44 48L43 48L43 49L44 49L44 50L45 50L45 49L44 49L44 48L45 48L45 47L46 47L46 46L47 46L47 45L46 45L46 46L45 46L45 45L44 45L44 44L45 44L45 43L46 43L46 44L48 44L48 43L49 43L49 44L50 44L50 45L51 45L51 44L52 44L52 45L53 45L53 44L52 44L52 42L50 42L50 41L47 41L47 38L48 38L48 39L49 39L49 40L50 40L50 39L51 39L51 38L52 38L52 37L53 37L53 36L54 36L54 37L55 37L55 38L56 38L56 40L57 40L57 37L56 37L56 32L55 32L55 35L54 35L54 34L53 34L53 32L54 32L54 31L55 31L55 30L53 30L53 32L52 32L52 34L51 34L51 35L49 35L49 33L50 33L50 32L49 32L49 33L48 33L48 34L47 34L47 33L46 33L46 32L47 32L47 31L52 31L52 29L54 29L54 28L55 28L55 29L56 29L56 28L57 28L57 26L56 26L56 25L55 25L55 26L56 26L56 28L55 28L55 27L54 27L54 28L52 28L52 29L51 29L51 26L50 26L50 25ZM33 26L33 27L34 27L34 26ZM8 29L8 30L9 30L9 29ZM20 29L20 30L21 30L21 31L19 31L19 32L18 32L18 33L17 33L17 34L19 34L19 35L20 35L20 34L21 34L21 33L22 33L22 32L24 32L24 33L23 33L23 34L24 34L24 35L26 35L26 34L27 34L27 35L28 35L28 34L29 34L29 33L25 33L25 31L23 31L23 30L25 30L25 29ZM50 29L50 30L51 30L51 29ZM13 31L13 32L14 32L14 31ZM44 31L44 33L45 33L45 34L44 34L44 37L45 37L45 34L46 34L46 37L49 37L49 36L47 36L47 34L46 34L46 33L45 33L45 31ZM19 32L19 33L20 33L20 32ZM0 33L0 34L1 34L1 33ZM5 33L5 36L8 36L8 33ZM33 33L33 36L36 36L36 33ZM61 33L61 36L64 36L64 33ZM6 34L6 35L7 35L7 34ZM34 34L34 35L35 35L35 34ZM52 34L52 36L51 36L51 37L50 37L50 38L49 38L49 39L50 39L50 38L51 38L51 37L52 37L52 36L53 36L53 34ZM62 34L62 35L63 35L63 34ZM22 35L22 36L21 36L21 37L22 37L22 38L21 38L21 39L22 39L22 40L23 40L23 39L24 39L24 38L25 38L25 37L24 37L24 36L23 36L23 35ZM30 35L30 36L31 36L31 35ZM22 36L22 37L23 37L23 36ZM26 36L26 37L27 37L27 38L28 38L28 37L27 37L27 36ZM64 38L64 39L62 39L62 40L61 40L61 39L60 39L60 41L61 41L61 42L59 42L59 44L58 44L58 43L57 43L57 44L58 44L58 45L59 45L59 44L61 44L61 43L62 43L62 41L63 41L63 44L62 44L62 46L64 46L64 45L63 45L63 44L64 44L64 41L65 41L65 42L67 42L67 41L65 41L65 40L64 40L64 39L65 39L65 38ZM6 40L6 41L8 41L8 40ZM63 40L63 41L64 41L64 40ZM9 41L9 43L8 43L8 44L9 44L9 43L11 43L11 41ZM3 42L3 43L4 43L4 42ZM47 42L47 43L48 43L48 42ZM49 42L49 43L50 43L50 44L51 44L51 43L50 43L50 42ZM27 43L27 44L28 44L28 47L31 47L31 48L33 48L33 47L32 47L32 46L31 46L31 45L29 45L29 43ZM43 43L43 44L44 44L44 43ZM55 43L55 44L56 44L56 43ZM38 44L38 45L39 45L39 44ZM6 46L6 47L7 47L7 46ZM12 47L12 48L11 48L11 49L12 49L12 48L13 48L13 49L14 49L14 52L12 52L12 56L13 56L13 54L14 54L14 57L15 57L15 59L16 59L16 58L17 58L17 59L18 59L18 58L19 58L19 60L18 60L18 61L17 61L17 63L18 63L18 61L20 61L20 60L21 60L21 59L22 59L22 60L23 60L23 61L24 61L24 62L25 62L25 61L24 61L24 59L22 59L22 58L21 58L21 57L24 57L24 58L25 58L25 56L26 56L26 58L28 58L28 57L27 57L27 56L26 56L26 54L28 54L28 56L29 56L29 55L30 55L30 54L28 54L28 53L31 53L31 54L32 54L32 53L33 53L33 55L31 55L31 56L33 56L33 57L32 57L32 58L33 58L33 57L34 57L34 56L33 56L33 55L35 55L35 54L34 54L34 53L33 53L33 52L32 52L32 53L31 53L31 50L28 50L28 51L27 51L27 52L26 52L26 54L25 54L25 53L24 53L24 52L23 52L23 54L24 54L24 55L25 55L25 56L22 56L22 55L21 55L21 53L22 53L22 50L20 50L20 51L18 51L18 50L19 50L19 49L18 49L18 50L16 50L16 48L15 48L15 47L14 47L14 48L13 48L13 47ZM14 48L14 49L15 49L15 48ZM38 48L38 49L39 49L39 48ZM56 48L56 49L57 49L57 48ZM6 49L6 50L7 50L7 49ZM25 49L25 50L26 50L26 49ZM51 49L51 50L52 50L52 49ZM15 50L15 52L14 52L14 53L16 53L16 56L15 56L15 57L17 57L17 55L19 55L19 58L20 58L20 59L21 59L21 58L20 58L20 53L19 53L19 54L18 54L18 53L17 53L17 51L16 51L16 50ZM42 50L42 51L43 51L43 53L44 53L44 51L43 51L43 50ZM6 52L6 53L7 53L7 52ZM63 53L63 54L64 54L64 55L61 55L61 54L60 54L60 55L61 55L61 56L60 56L60 57L59 57L59 58L61 58L61 59L59 59L59 60L60 60L60 62L59 62L59 63L60 63L60 66L61 66L61 69L62 69L62 66L64 66L64 67L63 67L63 69L64 69L64 68L65 68L65 69L67 69L67 68L65 68L65 66L64 66L64 65L65 65L65 63L66 63L66 62L67 62L67 64L68 64L68 65L67 65L67 66L69 66L69 64L68 64L68 62L67 62L67 61L68 61L68 60L69 60L69 59L68 59L68 58L69 58L69 56L68 56L68 55L67 55L67 54L66 54L66 55L67 55L67 56L68 56L68 58L65 58L65 59L64 59L64 60L61 60L61 59L62 59L62 58L64 58L64 57L63 57L63 56L64 56L64 55L65 55L65 54L64 54L64 53ZM57 54L57 55L58 55L58 54ZM61 56L61 58L62 58L62 56ZM8 57L8 59L9 59L9 57ZM35 59L35 60L37 60L37 59ZM65 59L65 61L66 61L66 60L67 60L67 59ZM3 60L3 61L5 61L5 60ZM6 60L6 61L7 61L7 60ZM39 60L39 62L38 62L38 61L37 61L37 62L38 62L38 64L37 64L37 66L38 66L38 65L39 65L39 63L40 63L40 62L41 62L41 60ZM45 60L45 61L46 61L46 60ZM33 61L33 64L36 64L36 61ZM61 61L61 64L64 64L64 61ZM31 62L31 63L30 63L30 64L31 64L31 65L30 65L30 66L31 66L31 65L32 65L32 66L33 66L33 65L32 65L32 64L31 64L31 63L32 63L32 62ZM34 62L34 63L35 63L35 62ZM53 62L53 63L52 63L52 65L51 65L51 66L50 66L50 67L51 67L51 66L52 66L52 67L53 67L53 63L54 63L54 62ZM62 62L62 63L63 63L63 62ZM19 63L19 64L20 64L20 63ZM11 64L11 65L12 65L12 64ZM61 65L61 66L62 66L62 65ZM12 66L12 68L13 68L13 67L14 67L14 66ZM36 68L36 69L37 69L37 68ZM68 68L68 69L69 69L69 68ZM0 0L0 7L7 7L7 0ZM1 1L1 6L6 6L6 1ZM2 2L2 5L5 5L5 2ZM62 0L62 7L69 7L69 0ZM63 1L63 6L68 6L68 1ZM64 2L64 5L67 5L67 2ZM0 62L0 69L7 69L7 62ZM1 63L1 68L6 68L6 63ZM2 64L2 67L5 67L5 64Z" fill="#000000"/></g></g></svg>
