<?xml version="1.0" encoding="UTF-8"?>
<svg xmlns="http://www.w3.org/2000/svg" version="1.1" width="300" height="300" viewBox="0 0 300 300"><rect x="0" y="0" width="300" height="300" fill="#ffffff"/><g transform="scale(4.348)"><g transform="translate(0,0)"><path fill-rule="evenodd" d="M14 0L14 1L13 1L13 2L15 2L15 3L13 3L13 4L11 4L11 3L10 3L10 2L11 2L11 1L9 1L9 3L8 3L8 5L9 5L9 6L8 6L8 7L9 7L9 6L10 6L10 7L11 7L11 6L12 6L12 7L13 7L13 6L12 6L12 5L14 5L14 4L15 4L15 6L14 6L14 7L15 7L15 6L16 6L16 7L17 7L17 8L15 8L15 9L12 9L12 8L9 8L9 10L8 10L8 8L5 8L5 9L3 9L3 10L2 10L2 11L1 11L1 13L0 13L0 14L1 14L1 16L0 16L0 19L2 19L2 20L0 20L0 21L1 21L1 22L0 22L0 27L1 27L1 28L0 28L0 31L3 31L3 32L2 32L2 33L1 33L1 32L0 32L0 33L1 33L1 35L0 35L0 37L1 37L1 39L2 39L2 40L1 40L1 41L0 41L0 42L2 42L2 43L1 43L1 45L0 45L0 46L1 46L1 47L0 47L0 48L1 48L1 49L0 49L0 56L1 56L1 55L2 55L2 57L3 57L3 58L2 58L2 59L3 59L3 58L4 58L4 59L7 59L7 60L6 60L6 61L8 61L8 64L9 64L9 66L11 66L11 63L13 63L13 64L12 64L12 66L13 66L13 67L16 67L16 65L17 65L17 67L19 67L19 65L20 65L20 64L19 64L19 62L20 62L20 63L21 63L21 62L20 62L20 61L21 61L21 60L20 60L20 61L19 61L19 60L18 60L18 59L17 59L17 58L19 58L19 59L21 59L21 57L20 57L20 56L21 56L21 54L20 54L20 53L19 53L19 52L20 52L20 51L22 51L22 49L23 49L23 48L25 48L25 49L24 49L24 50L23 50L23 51L25 51L25 49L28 49L28 47L29 47L29 50L30 50L30 49L31 49L31 50L32 50L32 52L31 52L31 51L28 51L28 52L27 52L27 54L28 54L28 55L29 55L29 57L27 57L27 58L26 58L26 57L25 57L25 56L27 56L27 55L26 55L26 52L25 52L25 53L23 53L23 54L25 54L25 56L23 56L23 55L22 55L22 58L23 58L23 59L24 59L24 60L25 60L25 58L26 58L26 62L25 62L25 61L24 61L24 62L23 62L23 60L22 60L22 62L23 62L23 66L22 66L22 65L21 65L21 66L20 66L20 67L21 67L21 68L17 68L17 69L21 69L21 68L22 68L22 67L23 67L23 68L25 68L25 69L26 69L26 68L25 68L25 65L27 65L27 66L26 66L26 67L27 67L27 68L28 68L28 69L29 69L29 68L30 68L30 69L32 69L32 68L31 68L31 67L32 67L32 65L33 65L33 66L34 66L34 65L39 65L39 66L40 66L40 67L42 67L42 69L44 69L44 68L45 68L45 67L46 67L46 68L47 68L47 69L49 69L49 68L48 68L48 67L49 67L49 66L50 66L50 67L51 67L51 66L52 66L52 67L53 67L53 69L56 69L56 67L57 67L57 69L59 69L59 68L60 68L60 69L63 69L63 68L62 68L62 66L61 66L61 65L64 65L64 68L65 68L65 69L68 69L68 68L67 68L67 67L69 67L69 66L67 66L67 65L65 65L65 64L67 64L67 62L69 62L69 61L68 61L68 58L69 58L69 57L67 57L67 56L69 56L69 53L66 53L66 52L69 52L69 50L68 50L68 49L69 49L69 47L68 47L68 46L69 46L69 45L67 45L67 44L69 44L69 41L68 41L68 43L65 43L65 42L64 42L64 43L63 43L63 42L62 42L62 41L63 41L63 39L62 39L62 38L63 38L63 37L65 37L65 40L64 40L64 41L65 41L65 40L66 40L66 41L67 41L67 40L68 40L68 37L69 37L69 36L68 36L68 37L67 37L67 39L66 39L66 36L67 36L67 35L68 35L68 34L67 34L67 35L66 35L66 34L65 34L65 33L66 33L66 32L67 32L67 31L66 31L66 30L65 30L65 29L64 29L64 31L63 31L63 30L62 30L62 27L61 27L61 26L62 26L62 25L63 25L63 24L60 24L60 25L59 25L59 31L58 31L58 29L57 29L57 31L56 31L56 32L55 32L55 31L54 31L54 30L56 30L56 28L57 28L57 27L56 27L56 26L58 26L58 24L57 24L57 23L56 23L56 22L58 22L58 23L61 23L61 22L63 22L63 23L64 23L64 22L65 22L65 21L64 21L64 22L63 22L63 20L61 20L61 19L62 19L62 16L61 16L61 15L60 15L60 16L61 16L61 17L59 17L59 18L58 18L58 17L56 17L56 16L57 16L57 14L58 14L58 13L59 13L59 14L62 14L62 15L63 15L63 14L62 14L62 13L63 13L63 12L64 12L64 14L65 14L65 15L64 15L64 16L66 16L66 18L68 18L68 19L65 19L65 17L64 17L64 19L65 19L65 20L67 20L67 21L66 21L66 22L67 22L67 23L65 23L65 24L64 24L64 26L63 26L63 28L67 28L67 30L68 30L68 33L69 33L69 28L67 28L67 27L68 27L68 26L67 26L67 25L68 25L68 19L69 19L69 17L67 17L67 16L68 16L68 13L69 13L69 11L68 11L68 10L69 10L69 9L68 9L68 10L67 10L67 11L63 11L63 9L61 9L61 6L60 6L60 8L57 8L57 5L56 5L56 4L58 4L58 7L59 7L59 4L58 4L58 3L59 3L59 2L57 2L57 0L56 0L56 2L57 2L57 3L55 3L55 2L54 2L54 1L55 1L55 0L54 0L54 1L53 1L53 2L54 2L54 3L55 3L55 4L53 4L53 3L51 3L51 4L52 4L52 7L51 7L51 6L50 6L50 7L49 7L49 6L48 6L48 7L47 7L47 6L46 6L46 5L44 5L44 4L49 4L49 5L50 5L50 4L49 4L49 3L50 3L50 1L51 1L51 2L52 2L52 0L50 0L50 1L48 1L48 0L46 0L46 1L45 1L45 2L43 2L43 1L44 1L44 0L42 0L42 3L43 3L43 4L41 4L41 3L38 3L38 2L37 2L37 1L36 1L36 0L32 0L32 1L33 1L33 2L31 2L31 0L27 0L27 1L30 1L30 2L29 2L29 3L28 3L28 4L30 4L30 5L29 5L29 6L28 6L28 5L27 5L27 3L26 3L26 0L24 0L24 2L25 2L25 3L23 3L23 0L22 0L22 5L23 5L23 6L22 6L22 7L21 7L21 5L20 5L20 4L19 4L19 3L17 3L17 2L18 2L18 1L19 1L19 2L20 2L20 1L21 1L21 0L18 0L18 1L16 1L16 0ZM38 0L38 1L39 1L39 2L41 2L41 0ZM58 0L58 1L61 1L61 0ZM15 1L15 2L16 2L16 1ZM46 1L46 2L47 2L47 3L49 3L49 2L47 2L47 1ZM30 2L30 3L31 3L31 2ZM33 2L33 3L35 3L35 4L36 4L36 3L37 3L37 4L38 4L38 5L37 5L37 7L38 7L38 8L37 8L37 9L41 9L41 8L43 8L43 9L44 9L44 10L42 10L42 11L41 11L41 10L37 10L37 12L36 12L36 11L34 11L34 12L33 12L33 9L32 9L32 5L30 5L30 6L29 6L29 7L30 7L30 8L31 8L31 9L29 9L29 10L27 10L27 11L26 11L26 9L27 9L27 8L28 8L28 6L27 6L27 8L26 8L26 9L24 9L24 8L23 8L23 7L24 7L24 6L25 6L25 7L26 7L26 6L25 6L25 5L26 5L26 4L25 4L25 5L24 5L24 6L23 6L23 7L22 7L22 9L24 9L24 10L20 10L20 11L19 11L19 10L18 10L18 9L17 9L17 10L18 10L18 11L19 11L19 12L20 12L20 14L18 14L18 15L17 15L17 13L18 13L18 12L15 12L15 11L14 11L14 12L12 12L12 11L11 11L11 9L10 9L10 10L9 10L9 11L10 11L10 12L7 12L7 11L6 11L6 10L7 10L7 9L5 9L5 10L3 10L3 12L2 12L2 15L3 15L3 16L1 16L1 17L2 17L2 19L6 19L6 20L7 20L7 21L6 21L6 22L7 22L7 23L5 23L5 22L4 22L4 21L5 21L5 20L4 20L4 21L2 21L2 22L4 22L4 25L5 25L5 24L7 24L7 23L8 23L8 25L9 25L9 24L10 24L10 26L11 26L11 27L10 27L10 29L11 29L11 27L12 27L12 29L13 29L13 28L14 28L14 29L15 29L15 26L14 26L14 27L13 27L13 26L12 26L12 25L11 25L11 24L13 24L13 25L15 25L15 24L17 24L17 27L16 27L16 28L17 28L17 27L19 27L19 26L18 26L18 23L15 23L15 22L14 22L14 24L13 24L13 20L14 20L14 21L15 21L15 19L14 19L14 18L11 18L11 19L13 19L13 20L10 20L10 21L11 21L11 24L10 24L10 23L9 23L9 17L10 17L10 16L9 16L9 17L8 17L8 18L7 18L7 17L3 17L3 16L8 16L8 15L9 15L9 14L10 14L10 12L11 12L11 15L12 15L12 16L11 16L11 17L15 17L15 16L13 16L13 15L15 15L15 14L16 14L16 17L17 17L17 19L16 19L16 20L19 20L19 19L18 19L18 17L22 17L22 18L20 18L20 19L21 19L21 20L20 20L20 21L21 21L21 24L20 24L20 22L19 22L19 21L16 21L16 22L19 22L19 24L20 24L20 27L21 27L21 28L20 28L20 30L19 30L19 29L18 29L18 30L19 30L19 31L20 31L20 33L19 33L19 34L18 34L18 35L17 35L17 34L16 34L16 35L15 35L15 36L14 36L14 37L13 37L13 36L12 36L12 35L13 35L13 34L15 34L15 33L16 33L16 31L17 31L17 29L16 29L16 31L15 31L15 33L10 33L10 32L11 32L11 31L10 31L10 32L9 32L9 31L8 31L8 30L9 30L9 27L8 27L8 28L7 28L7 27L6 27L6 28L7 28L7 29L6 29L6 30L7 30L7 31L6 31L6 32L7 32L7 31L8 31L8 32L9 32L9 33L10 33L10 34L9 34L9 35L11 35L11 36L9 36L9 38L7 38L7 37L5 37L5 39L6 39L6 40L3 40L3 41L2 41L2 42L3 42L3 43L2 43L2 45L1 45L1 46L2 46L2 45L5 45L5 46L4 46L4 48L3 48L3 49L2 49L2 50L4 50L4 51L1 51L1 53L3 53L3 52L4 52L4 51L5 51L5 50L4 50L4 48L5 48L5 49L6 49L6 50L8 50L8 49L9 49L9 50L10 50L10 48L9 48L9 46L11 46L11 45L8 45L8 44L10 44L10 43L14 43L14 44L12 44L12 45L13 45L13 47L12 47L12 49L11 49L11 51L9 51L9 53L8 53L8 54L9 54L9 55L11 55L11 56L12 56L12 55L13 55L13 54L14 54L14 57L13 57L13 58L12 58L12 57L10 57L10 58L8 58L8 61L9 61L9 63L11 63L11 62L13 62L13 61L14 61L14 60L13 60L13 59L14 59L14 58L15 58L15 54L14 54L14 53L12 53L12 54L11 54L11 53L10 53L10 52L13 52L13 50L14 50L14 52L15 52L15 53L16 53L16 58L17 58L17 55L18 55L18 54L19 54L19 56L20 56L20 54L19 54L19 53L18 53L18 51L17 51L17 50L18 50L18 49L19 49L19 48L21 48L21 49L22 49L22 48L23 48L23 46L21 46L21 47L20 47L20 46L19 46L19 45L24 45L24 44L25 44L25 42L26 42L26 45L25 45L25 46L26 46L26 47L25 47L25 48L27 48L27 47L28 47L28 46L27 46L27 44L28 44L28 45L29 45L29 46L30 46L30 45L29 45L29 44L31 44L31 45L32 45L32 46L31 46L31 47L30 47L30 48L31 48L31 47L32 47L32 46L34 46L34 45L35 45L35 47L37 47L37 46L38 46L38 44L39 44L39 47L38 47L38 50L37 50L37 51L38 51L38 52L39 52L39 53L38 53L38 54L36 54L36 55L37 55L37 56L35 56L35 55L34 55L34 56L33 56L33 55L31 55L31 54L32 54L32 53L28 53L28 54L30 54L30 55L31 55L31 57L29 57L29 58L28 58L28 60L29 60L29 61L28 61L28 62L29 62L29 63L25 63L25 62L24 62L24 63L25 63L25 64L27 64L27 65L28 65L28 68L29 68L29 67L31 67L31 66L29 66L29 63L30 63L30 62L29 62L29 61L30 61L30 60L31 60L31 61L32 61L32 60L34 60L34 59L38 59L38 60L39 60L39 61L38 61L38 62L37 62L37 64L38 64L38 63L39 63L39 65L40 65L40 66L41 66L41 64L44 64L44 67L43 67L43 66L42 66L42 67L43 67L43 68L44 68L44 67L45 67L45 64L46 64L46 66L47 66L47 64L46 64L46 63L47 63L47 61L48 61L48 60L49 60L49 61L50 61L50 62L48 62L48 64L49 64L49 65L48 65L48 66L49 66L49 65L50 65L50 66L51 66L51 65L55 65L55 64L56 64L56 66L55 66L55 67L54 67L54 66L53 66L53 67L54 67L54 68L55 68L55 67L56 67L56 66L57 66L57 67L60 67L60 66L59 66L59 65L60 65L60 64L59 64L59 65L57 65L57 64L58 64L58 62L59 62L59 60L63 60L63 59L67 59L67 57L66 57L66 56L64 56L64 54L65 54L65 55L66 55L66 54L65 54L65 52L66 52L66 51L68 51L68 50L66 50L66 49L67 49L67 48L66 48L66 49L64 49L64 47L63 47L63 45L65 45L65 47L66 47L66 44L65 44L65 43L64 43L64 44L62 44L62 42L61 42L61 43L60 43L60 41L61 41L61 40L62 40L62 39L61 39L61 38L62 38L62 37L61 37L61 38L60 38L60 37L59 37L59 36L60 36L60 34L58 34L58 38L57 38L57 37L56 37L56 35L57 35L57 33L59 33L59 32L61 32L61 31L62 31L62 30L60 30L60 31L59 31L59 32L56 32L56 33L55 33L55 34L56 34L56 35L55 35L55 38L56 38L56 39L57 39L57 40L56 40L56 41L57 41L57 44L56 44L56 42L52 42L52 44L51 44L51 43L50 43L50 42L51 42L51 41L50 41L50 39L52 39L52 41L53 41L53 39L54 39L54 38L53 38L53 37L52 37L52 35L51 35L51 34L53 34L53 35L54 35L54 34L53 34L53 33L54 33L54 32L53 32L53 29L54 29L54 26L52 26L52 27L50 27L50 30L51 30L51 29L52 29L52 32L51 32L51 31L49 31L49 30L48 30L48 31L47 31L47 29L48 29L48 28L49 28L49 27L48 27L48 26L49 26L49 25L48 25L48 26L47 26L47 23L48 23L48 24L49 24L49 22L48 22L48 21L47 21L47 22L46 22L46 23L44 23L44 22L45 22L45 21L46 21L46 20L48 20L48 19L46 19L46 20L45 20L45 13L46 13L46 15L47 15L47 16L48 16L48 14L49 14L49 16L50 16L50 17L48 17L48 18L49 18L49 19L51 19L51 22L50 22L50 24L51 24L51 25L50 25L50 26L51 26L51 25L52 25L52 24L53 24L53 23L54 23L54 25L55 25L55 26L56 26L56 24L55 24L55 23L54 23L54 22L53 22L53 23L52 23L52 21L55 21L55 20L56 20L56 21L57 21L57 20L56 20L56 19L57 19L57 18L54 18L54 20L52 20L52 19L51 19L51 18L52 18L52 17L55 17L55 15L56 15L56 14L57 14L57 13L56 13L56 14L54 14L54 13L55 13L55 11L57 11L57 12L58 12L58 9L57 9L57 8L56 8L56 9L55 9L55 11L54 11L54 10L52 10L52 9L53 9L53 8L55 8L55 7L56 7L56 6L55 6L55 7L54 7L54 5L53 5L53 7L52 7L52 8L51 8L51 7L50 7L50 8L51 8L51 11L52 11L52 12L51 12L51 13L50 13L50 11L49 11L49 10L45 10L45 8L46 8L46 9L47 9L47 7L46 7L46 6L45 6L45 8L43 8L43 7L44 7L44 6L43 6L43 7L42 7L42 6L41 6L41 4L38 4L38 3L37 3L37 2L36 2L36 3L35 3L35 2ZM15 3L15 4L16 4L16 6L17 6L17 7L18 7L18 8L19 8L19 9L21 9L21 7L20 7L20 5L18 5L18 4L17 4L17 3ZM60 3L60 5L61 5L61 3ZM10 4L10 6L11 6L11 4ZM17 5L17 6L18 6L18 7L19 7L19 8L20 8L20 7L19 7L19 6L18 6L18 5ZM33 5L33 8L36 8L36 5ZM30 6L30 7L31 7L31 6ZM34 6L34 7L35 7L35 6ZM38 6L38 7L39 7L39 8L40 8L40 7L41 7L41 6L40 6L40 7L39 7L39 6ZM0 8L0 9L2 9L2 8ZM64 8L64 9L66 9L66 8ZM35 9L35 10L36 10L36 9ZM56 9L56 10L57 10L57 9ZM29 10L29 12L28 12L28 13L27 13L27 12L26 12L26 11L25 11L25 13L24 13L24 11L20 11L20 12L22 12L22 13L23 13L23 14L21 14L21 15L19 15L19 16L23 16L23 18L22 18L22 19L24 19L24 20L23 20L23 21L22 21L22 24L23 24L23 23L25 23L25 24L24 24L24 26L21 26L21 27L24 27L24 28L23 28L23 30L22 30L22 31L21 31L21 30L20 30L20 31L21 31L21 32L23 32L23 33L24 33L24 34L25 34L25 33L26 33L26 35L27 35L27 36L26 36L26 37L27 37L27 39L26 39L26 38L25 38L25 37L23 37L23 34L22 34L22 36L21 36L21 38L20 38L20 37L19 37L19 35L20 35L20 34L21 34L21 33L20 33L20 34L19 34L19 35L18 35L18 37L19 37L19 38L17 38L17 39L16 39L16 36L17 36L17 35L16 35L16 36L15 36L15 39L16 39L16 40L17 40L17 42L16 42L16 43L18 43L18 42L19 42L19 41L21 41L21 42L22 42L22 40L24 40L24 41L23 41L23 43L22 43L22 44L24 44L24 41L26 41L26 42L27 42L27 41L26 41L26 40L27 40L27 39L28 39L28 37L29 37L29 36L30 36L30 38L32 38L32 39L29 39L29 40L28 40L28 41L31 41L31 42L28 42L28 43L31 43L31 44L32 44L32 43L33 43L33 40L32 40L32 39L33 39L33 38L34 38L34 40L35 40L35 41L34 41L34 44L36 44L36 45L37 45L37 42L38 42L38 43L39 43L39 42L42 42L42 43L43 43L43 44L42 44L42 45L40 45L40 46L42 46L42 47L41 47L41 48L40 48L40 47L39 47L39 48L40 48L40 49L39 49L39 50L38 50L38 51L41 51L41 53L42 53L42 54L44 54L44 52L45 52L45 48L46 48L46 49L47 49L47 48L48 48L48 51L47 51L47 50L46 50L46 51L47 51L47 52L46 52L46 53L45 53L45 54L46 54L46 55L49 55L49 54L50 54L50 53L51 53L51 54L52 54L52 53L51 53L51 51L52 51L52 52L55 52L55 53L53 53L53 55L52 55L52 56L54 56L54 57L52 57L52 58L51 58L51 57L50 57L50 56L46 56L46 57L45 57L45 58L44 58L44 59L43 59L43 60L42 60L42 58L43 58L43 57L44 57L44 56L43 56L43 55L40 55L40 56L41 56L41 57L42 57L42 58L39 58L39 57L38 57L38 56L39 56L39 54L40 54L40 53L39 53L39 54L38 54L38 56L37 56L37 58L38 58L38 59L40 59L40 62L39 62L39 63L40 63L40 64L41 64L41 62L43 62L43 63L44 63L44 62L43 62L43 60L44 60L44 61L45 61L45 63L46 63L46 58L48 58L48 59L54 59L54 58L55 58L55 59L56 59L56 58L59 58L59 59L62 59L62 58L66 58L66 57L63 57L63 54L64 54L64 52L62 52L62 51L61 51L61 50L62 50L62 49L63 49L63 51L66 51L66 50L64 50L64 49L63 49L63 47L62 47L62 45L61 45L61 46L59 46L59 43L58 43L58 44L57 44L57 46L55 46L55 45L56 45L56 44L55 44L55 43L54 43L54 44L53 44L53 46L55 46L55 47L54 47L54 48L55 48L55 47L58 47L58 48L56 48L56 49L53 49L53 47L52 47L52 49L51 49L51 50L50 50L50 48L51 48L51 45L50 45L50 43L48 43L48 44L47 44L47 45L45 45L45 48L44 48L44 47L43 47L43 44L45 44L45 43L44 43L44 42L43 42L43 41L44 41L44 40L43 40L43 39L47 39L47 38L50 38L50 37L49 37L49 35L50 35L50 34L51 34L51 32L47 32L47 33L45 33L45 34L44 34L44 35L43 35L43 36L44 36L44 37L42 37L42 36L40 36L40 38L39 38L39 39L38 39L38 40L37 40L37 38L38 38L38 37L37 37L37 35L38 35L38 36L39 36L39 35L41 35L41 34L43 34L43 33L44 33L44 32L46 32L46 31L45 31L45 29L46 29L46 25L45 25L45 24L44 24L44 25L41 25L41 24L43 24L43 23L42 23L42 22L43 22L43 21L44 21L44 20L43 20L43 19L44 19L44 18L43 18L43 17L44 17L44 16L42 16L42 17L41 17L41 18L40 18L40 17L39 17L39 16L38 16L38 15L37 15L37 14L38 14L38 12L40 12L40 14L39 14L39 15L43 15L43 14L44 14L44 13L45 13L45 12L44 12L44 11L43 11L43 12L44 12L44 13L42 13L42 12L40 12L40 11L38 11L38 12L37 12L37 13L36 13L36 14L34 14L34 15L32 15L32 14L33 14L33 12L32 12L32 11L31 11L31 10ZM59 10L59 12L60 12L60 13L62 13L62 12L61 12L61 10ZM46 11L46 13L47 13L47 12L48 12L48 13L49 13L49 14L50 14L50 15L51 15L51 17L52 17L52 15L54 15L54 14L53 14L53 13L54 13L54 12L52 12L52 14L50 14L50 13L49 13L49 11ZM67 11L67 13L66 13L66 12L65 12L65 14L67 14L67 13L68 13L68 11ZM4 12L4 14L5 14L5 12ZM6 12L6 13L7 13L7 12ZM29 12L29 13L28 13L28 14L30 14L30 12ZM31 12L31 14L32 14L32 12ZM34 12L34 13L35 13L35 12ZM6 14L6 15L7 15L7 14ZM12 14L12 15L13 15L13 14ZM23 14L23 16L24 16L24 17L27 17L27 16L28 16L28 18L25 18L25 20L26 20L26 21L25 21L25 22L27 22L27 23L26 23L26 24L25 24L25 25L26 25L26 27L25 27L25 28L24 28L24 29L25 29L25 30L24 30L24 33L25 33L25 30L27 30L27 31L28 31L28 32L26 32L26 33L27 33L27 35L28 35L28 36L27 36L27 37L28 37L28 36L29 36L29 35L30 35L30 36L32 36L32 35L30 35L30 33L29 33L29 34L28 34L28 32L31 32L31 34L32 34L32 32L35 32L35 31L36 31L36 30L34 30L34 29L38 29L38 30L39 30L39 29L43 29L43 30L42 30L42 31L43 31L43 32L40 32L40 33L39 33L39 34L38 34L38 35L39 35L39 34L41 34L41 33L43 33L43 32L44 32L44 31L43 31L43 30L44 30L44 29L45 29L45 25L44 25L44 28L39 28L39 27L37 27L37 28L33 28L33 29L31 29L31 30L30 30L30 29L28 29L28 27L27 27L27 26L30 26L30 24L28 24L28 23L31 23L31 21L30 21L30 22L27 22L27 21L28 21L28 20L29 20L29 18L30 18L30 19L31 19L31 18L32 18L32 22L33 22L33 23L32 23L32 24L31 24L31 25L32 25L32 26L31 26L31 27L29 27L29 28L31 28L31 27L32 27L32 26L33 26L33 27L34 27L34 26L36 26L36 24L37 24L37 23L38 23L38 25L37 25L37 26L39 26L39 25L40 25L40 26L41 26L41 27L43 27L43 26L41 26L41 25L40 25L40 22L39 22L39 23L38 23L38 22L37 22L37 21L38 21L38 20L37 20L37 19L36 19L36 18L35 18L35 19L34 19L34 20L37 20L37 21L35 21L35 22L37 22L37 23L34 23L34 21L33 21L33 16L31 16L31 18L30 18L30 17L29 17L29 16L28 16L28 15L27 15L27 14L26 14L26 15L27 15L27 16L25 16L25 14ZM17 16L17 17L18 17L18 16ZM34 16L34 17L35 17L35 16ZM38 17L38 18L39 18L39 17ZM46 17L46 18L47 18L47 17ZM6 18L6 19L7 19L7 20L8 20L8 19L7 19L7 18ZM41 18L41 19L42 19L42 18ZM59 18L59 19L58 19L58 21L59 21L59 22L60 22L60 21L61 21L61 20L60 20L60 21L59 21L59 19L60 19L60 18ZM26 19L26 20L27 20L27 19ZM40 20L40 21L42 21L42 20ZM1 23L1 24L3 24L3 23ZM33 23L33 24L34 24L34 25L33 25L33 26L34 26L34 25L35 25L35 24L34 24L34 23ZM51 23L51 24L52 24L52 23ZM26 24L26 25L27 25L27 24ZM1 25L1 26L3 26L3 25ZM6 25L6 26L7 26L7 25ZM64 26L64 27L67 27L67 26ZM2 27L2 29L1 29L1 30L2 30L2 29L3 29L3 27ZM47 27L47 28L48 28L48 27ZM55 27L55 28L56 28L56 27ZM25 28L25 29L26 29L26 28ZM4 29L4 30L3 30L3 31L5 31L5 29ZM7 29L7 30L8 30L8 29ZM27 29L27 30L28 30L28 31L29 31L29 30L28 30L28 29ZM12 30L12 32L13 32L13 30ZM32 30L32 31L31 31L31 32L32 32L32 31L34 31L34 30ZM40 30L40 31L41 31L41 30ZM3 32L3 33L4 33L4 32ZM17 32L17 33L18 33L18 32ZM5 33L5 36L8 36L8 33ZM33 33L33 36L36 36L36 33ZM48 33L48 34L49 34L49 33ZM61 33L61 36L64 36L64 33ZM6 34L6 35L7 35L7 34ZM34 34L34 35L35 35L35 34ZM45 34L45 35L47 35L47 34ZM62 34L62 35L63 35L63 34ZM1 35L1 37L2 37L2 38L3 38L3 35ZM24 35L24 36L25 36L25 35ZM46 36L46 38L47 38L47 37L48 37L48 36ZM12 37L12 38L11 38L11 39L10 39L10 38L9 38L9 39L10 39L10 41L11 41L11 40L12 40L12 41L13 41L13 42L14 42L14 43L15 43L15 42L14 42L14 39L12 39L12 38L13 38L13 37ZM35 37L35 39L36 39L36 37ZM44 37L44 38L45 38L45 37ZM6 38L6 39L7 39L7 38ZM19 38L19 39L17 39L17 40L19 40L19 39L20 39L20 40L21 40L21 39L20 39L20 38ZM22 38L22 39L23 39L23 38ZM24 38L24 39L25 39L25 40L26 40L26 39L25 39L25 38ZM41 38L41 39L39 39L39 41L38 41L38 42L39 42L39 41L41 41L41 39L43 39L43 38ZM59 38L59 39L60 39L60 38ZM6 40L6 41L7 41L7 42L5 42L5 41L3 41L3 42L5 42L5 44L6 44L6 45L7 45L7 46L6 46L6 47L7 47L7 48L6 48L6 49L7 49L7 48L8 48L8 45L7 45L7 44L6 44L6 43L7 43L7 42L8 42L8 43L10 43L10 42L8 42L8 41L7 41L7 40ZM31 40L31 41L32 41L32 40ZM36 40L36 41L35 41L35 42L37 42L37 40ZM47 40L47 41L49 41L49 42L50 42L50 41L49 41L49 40ZM54 40L54 41L55 41L55 40ZM57 40L57 41L59 41L59 40ZM45 41L45 42L46 42L46 41ZM19 43L19 44L14 44L14 45L15 45L15 46L14 46L14 47L13 47L13 48L14 48L14 50L15 50L15 48L17 48L17 47L18 47L18 46L17 46L17 45L19 45L19 44L20 44L20 43ZM40 43L40 44L41 44L41 43ZM47 45L47 46L46 46L46 48L47 48L47 47L48 47L48 48L50 48L50 47L49 47L49 46L50 46L50 45ZM1 47L1 48L2 48L2 47ZM14 47L14 48L15 48L15 47ZM33 47L33 48L32 48L32 50L33 50L33 48L34 48L34 47ZM42 47L42 48L43 48L43 50L44 50L44 48L43 48L43 47ZM60 47L60 49L58 49L58 50L57 50L57 49L56 49L56 50L57 50L57 51L59 51L59 50L60 50L60 49L61 49L61 48L62 48L62 47ZM35 48L35 50L34 50L34 51L33 51L33 53L34 53L34 54L35 54L35 52L34 52L34 51L35 51L35 50L36 50L36 48ZM52 49L52 51L53 51L53 49ZM19 50L19 51L20 51L20 50ZM26 50L26 51L27 51L27 50ZM41 50L41 51L42 51L42 50ZM49 50L49 51L50 51L50 50ZM6 51L6 52L7 52L7 51ZM43 51L43 52L42 52L42 53L43 53L43 52L44 52L44 51ZM55 51L55 52L56 52L56 53L55 53L55 54L54 54L54 55L56 55L56 57L57 57L57 56L58 56L58 57L60 57L60 58L62 58L62 57L60 57L60 56L61 56L61 55L62 55L62 54L63 54L63 53L62 53L62 52L61 52L61 51L60 51L60 52L59 52L59 53L58 53L58 55L56 55L56 53L57 53L57 52L56 52L56 51ZM16 52L16 53L17 53L17 54L18 54L18 53L17 53L17 52ZM49 52L49 53L48 53L48 54L49 54L49 53L50 53L50 52ZM60 52L60 53L59 53L59 54L62 54L62 53L61 53L61 52ZM6 53L6 54L2 54L2 55L3 55L3 56L5 56L5 57L4 57L4 58L7 58L7 57L6 57L6 56L7 56L7 55L6 55L6 54L7 54L7 53ZM46 53L46 54L47 54L47 53ZM5 55L5 56L6 56L6 55ZM59 55L59 56L60 56L60 55ZM8 56L8 57L9 57L9 56ZM32 56L32 57L31 57L31 58L30 58L30 59L29 59L29 60L30 60L30 59L31 59L31 58L32 58L32 59L34 59L34 58L36 58L36 57L33 57L33 56ZM42 56L42 57L43 57L43 56ZM0 57L0 61L1 61L1 57ZM23 57L23 58L24 58L24 57ZM49 57L49 58L50 58L50 57ZM11 58L11 61L10 61L10 62L11 62L11 61L13 61L13 60L12 60L12 58ZM9 59L9 60L10 60L10 59ZM44 59L44 60L45 60L45 59ZM57 59L57 60L56 60L56 61L54 61L54 60L52 60L52 62L54 62L54 63L51 63L51 64L50 64L50 65L51 65L51 64L55 64L55 62L56 62L56 63L57 63L57 62L58 62L58 61L57 61L57 60L58 60L58 59ZM3 60L3 61L5 61L5 60ZM17 60L17 61L16 61L16 63L14 63L14 64L13 64L13 66L14 66L14 64L17 64L17 65L18 65L18 64L17 64L17 63L18 63L18 62L19 62L19 61L18 61L18 60ZM41 60L41 61L42 61L42 60ZM50 60L50 61L51 61L51 60ZM66 60L66 61L67 61L67 60ZM17 61L17 62L18 62L18 61ZM33 61L33 64L36 64L36 61ZM56 61L56 62L57 62L57 61ZM61 61L61 64L64 64L64 61ZM31 62L31 63L32 63L32 62ZM34 62L34 63L35 63L35 62ZM62 62L62 63L63 63L63 62ZM65 62L65 63L66 63L66 62ZM31 64L31 65L32 65L32 64ZM21 66L21 67L22 67L22 66ZM35 66L35 68L34 68L34 69L37 69L37 68L38 68L38 67L36 67L36 66ZM8 67L8 69L11 69L11 68L12 68L12 67L10 67L10 68L9 68L9 67ZM13 68L13 69L16 69L16 68ZM0 0L0 7L7 7L7 0ZM1 1L1 6L6 6L6 1ZM2 2L2 5L5 5L5 2ZM62 0L62 7L69 7L69 0ZM63 1L63 6L68 6L68 1ZM64 2L64 5L67 5L67 2ZM0 62L0 69L7 69L7 62ZM1 63L1 68L6 68L6 63ZM2 64L2 67L5 67L5 64Z" fill="#000000"/></g></g></svg>
