<?xml version="1.0" encoding="UTF-8"?>
<svg xmlns="http://www.w3.org/2000/svg" version="1.1" width="300" height="300" viewBox="0 0 300 300"><rect x="0" y="0" width="300" height="300" fill="#ffffff"/><g transform="scale(4.348)"><g transform="translate(0,0)"><path fill-rule="evenodd" d="M8 0L8 1L9 1L9 2L8 2L8 5L9 5L9 6L8 6L8 7L9 7L9 6L10 6L10 8L8 8L8 9L7 9L7 8L6 8L6 9L4 9L4 8L0 8L0 9L1 9L1 10L2 10L2 9L4 9L4 10L3 10L3 13L4 13L4 14L5 14L5 13L4 13L4 11L7 11L7 12L6 12L6 13L7 13L7 14L6 14L6 15L3 15L3 14L1 14L1 15L3 15L3 16L0 16L0 18L1 18L1 20L0 20L0 21L1 21L1 22L0 22L0 26L1 26L1 23L2 23L2 22L3 22L3 23L7 23L7 24L6 24L6 25L5 25L5 26L3 26L3 25L4 25L4 24L2 24L2 26L3 26L3 29L0 29L0 32L1 32L1 30L2 30L2 31L5 31L5 32L3 32L3 33L2 33L2 34L0 34L0 35L2 35L2 36L1 36L1 37L0 37L0 38L1 38L1 39L0 39L0 42L1 42L1 43L0 43L0 49L1 49L1 50L2 50L2 51L0 51L0 54L1 54L1 53L2 53L2 51L4 51L4 50L5 50L5 51L7 51L7 50L5 50L5 49L3 49L3 48L5 48L5 47L3 47L3 46L4 46L4 44L6 44L6 45L5 45L5 46L6 46L6 47L7 47L7 48L6 48L6 49L7 49L7 48L8 48L8 49L9 49L9 48L10 48L10 47L9 47L9 46L11 46L11 48L12 48L12 47L13 47L13 49L14 49L14 51L15 51L15 52L16 52L16 53L15 53L15 55L14 55L14 56L16 56L16 59L15 59L15 57L13 57L13 56L12 56L12 57L13 57L13 58L14 58L14 59L15 59L15 60L16 60L16 59L17 59L17 60L18 60L18 62L20 62L20 63L17 63L17 62L16 62L16 61L15 61L15 63L14 63L14 60L13 60L13 61L11 61L11 62L10 62L10 60L11 60L11 57L10 57L10 56L11 56L11 55L10 55L10 54L9 54L9 53L10 53L10 52L11 52L11 53L12 53L12 55L13 55L13 54L14 54L14 53L12 53L12 52L11 52L11 51L8 51L8 52L6 52L6 53L7 53L7 54L5 54L5 55L4 55L4 54L3 54L3 55L2 55L2 56L1 56L1 55L0 55L0 56L1 56L1 57L0 57L0 61L1 61L1 58L2 58L2 59L3 59L3 58L4 58L4 59L8 59L8 60L6 60L6 61L8 61L8 62L10 62L10 63L12 63L12 62L13 62L13 63L14 63L14 65L13 65L13 64L12 64L12 66L11 66L11 64L10 64L10 66L11 66L11 67L10 67L10 68L9 68L9 65L8 65L8 69L13 69L13 68L11 68L11 67L14 67L14 68L15 68L15 69L16 69L16 68L17 68L17 69L18 69L18 68L19 68L19 69L26 69L26 68L25 68L25 67L27 67L27 68L29 68L29 69L30 69L30 67L31 67L31 68L34 68L34 69L35 69L35 68L34 68L34 67L38 67L38 68L39 68L39 69L41 69L41 68L40 68L40 67L41 67L41 66L42 66L42 65L40 65L40 64L41 64L41 62L39 62L39 61L40 61L40 60L41 60L41 61L42 61L42 60L41 60L41 59L42 59L42 58L43 58L43 56L41 56L41 55L42 55L42 54L41 54L41 53L43 53L43 54L44 54L44 55L46 55L46 54L47 54L47 52L49 52L49 51L47 51L47 50L46 50L46 48L47 48L47 49L50 49L50 51L53 51L53 50L52 50L52 49L50 49L50 47L49 47L49 46L50 46L50 45L54 45L54 47L52 47L52 46L51 46L51 47L52 47L52 48L54 48L54 49L56 49L56 45L54 45L54 43L53 43L53 42L54 42L54 40L53 40L53 42L51 42L51 43L50 43L50 44L49 44L49 43L48 43L48 44L47 44L47 47L46 47L46 46L45 46L45 45L44 45L44 47L46 47L46 48L45 48L45 50L44 50L44 52L41 52L41 53L40 53L40 51L38 51L38 50L40 50L40 49L36 49L36 50L37 50L37 51L35 51L35 50L34 50L34 49L33 49L33 48L37 48L37 47L38 47L38 46L37 46L37 44L38 44L38 45L39 45L39 47L40 47L40 48L42 48L42 49L44 49L44 48L43 48L43 45L42 45L42 44L41 44L41 45L40 45L40 44L39 44L39 43L37 43L37 44L36 44L36 45L35 45L35 42L34 42L34 40L35 40L35 41L36 41L36 40L38 40L38 41L39 41L39 42L40 42L40 43L43 43L43 42L42 42L42 41L41 41L41 42L40 42L40 40L41 40L41 39L42 39L42 38L41 38L41 37L40 37L40 38L39 38L39 37L38 37L38 35L39 35L39 36L42 36L42 37L43 37L43 38L44 38L44 39L45 39L45 40L43 40L43 41L45 41L45 42L44 42L44 44L45 44L45 42L46 42L46 43L47 43L47 42L49 42L49 41L50 41L50 39L53 39L53 37L51 37L51 35L52 35L52 36L54 36L54 37L55 37L55 38L54 38L54 39L57 39L57 38L58 38L58 40L59 40L59 41L57 41L57 40L55 40L55 41L56 41L56 42L55 42L55 44L58 44L58 45L59 45L59 46L58 46L58 47L57 47L57 48L58 48L58 49L59 49L59 48L60 48L60 49L61 49L61 52L59 52L59 51L60 51L60 50L59 50L59 51L58 51L58 50L57 50L57 51L56 51L56 50L54 50L54 51L56 51L56 52L54 52L54 53L53 53L53 54L52 54L52 55L51 55L51 54L50 54L50 55L49 55L49 54L48 54L48 55L47 55L47 57L48 57L48 56L50 56L50 55L51 55L51 58L52 58L52 59L50 59L50 60L53 60L53 58L54 58L54 59L55 59L55 61L56 61L56 59L55 59L55 56L58 56L58 55L59 55L59 56L62 56L62 55L61 55L61 54L62 54L62 53L61 53L61 52L63 52L63 51L62 51L62 50L64 50L64 51L65 51L65 53L63 53L63 54L65 54L65 53L66 53L66 52L68 52L68 53L67 53L67 54L66 54L66 55L68 55L68 54L69 54L69 52L68 52L68 51L65 51L65 50L64 50L64 49L62 49L62 48L61 48L61 47L63 47L63 46L62 46L62 45L61 45L61 44L63 44L63 43L62 43L62 42L65 42L65 38L66 38L66 43L68 43L68 44L69 44L69 43L68 43L68 42L67 42L67 37L68 37L68 38L69 38L69 37L68 37L68 36L69 36L69 33L68 33L68 34L65 34L65 33L67 33L67 32L65 32L65 31L63 31L63 32L62 32L62 31L61 31L61 30L60 30L60 28L61 28L61 29L62 29L62 27L63 27L63 29L64 29L64 27L65 27L65 29L66 29L66 30L67 30L67 31L68 31L68 29L69 29L69 28L68 28L68 27L65 27L65 26L64 26L64 25L62 25L62 27L60 27L60 28L59 28L59 27L58 27L58 28L55 28L55 27L54 27L54 29L53 29L53 31L52 31L52 30L51 30L51 32L49 32L49 34L47 34L47 35L46 35L46 34L45 34L45 33L44 33L44 34L45 34L45 35L43 35L43 32L42 32L42 33L41 33L41 31L40 31L40 30L41 30L41 29L42 29L42 28L43 28L43 31L44 31L44 30L45 30L45 28L43 28L43 27L42 27L42 26L41 26L41 27L42 27L42 28L41 28L41 29L39 29L39 28L38 28L38 26L40 26L40 25L39 25L39 23L40 23L40 22L41 22L41 24L42 24L42 25L44 25L44 27L45 27L45 26L46 26L46 27L48 27L48 26L46 26L46 25L47 25L47 24L48 24L48 25L49 25L49 26L51 26L51 29L52 29L52 28L53 28L53 26L51 26L51 25L50 25L50 24L53 24L53 23L52 23L52 22L50 22L50 21L53 21L53 22L55 22L55 23L54 23L54 24L55 24L55 25L56 25L56 24L57 24L57 26L58 26L58 25L59 25L59 26L60 26L60 24L57 24L57 23L59 23L59 22L60 22L60 23L61 23L61 22L62 22L62 24L63 24L63 22L62 22L62 21L59 21L59 20L60 20L60 17L64 17L64 15L65 15L65 17L66 17L66 18L67 18L67 20L64 20L64 19L63 19L63 18L62 18L62 19L61 19L61 20L63 20L63 21L67 21L67 20L69 20L69 19L68 19L68 18L69 18L69 17L68 17L68 16L67 16L67 15L66 15L66 14L69 14L69 12L68 12L68 11L69 11L69 10L68 10L68 9L69 9L69 8L68 8L68 9L67 9L67 8L64 8L64 9L63 9L63 11L61 11L61 12L62 12L62 13L61 13L61 14L60 14L60 15L59 15L59 14L58 14L58 12L57 12L57 11L59 11L59 12L60 12L60 11L59 11L59 10L62 10L62 8L61 8L61 9L60 9L60 8L59 8L59 10L57 10L57 11L56 11L56 10L55 10L55 6L56 6L56 8L57 8L57 9L58 9L58 8L57 8L57 6L58 6L58 7L59 7L59 4L56 4L56 0L54 0L54 2L55 2L55 4L56 4L56 5L55 5L55 6L54 6L54 5L53 5L53 4L54 4L54 3L53 3L53 1L50 1L50 0L49 0L49 2L45 2L45 0L44 0L44 2L43 2L43 6L42 6L42 5L41 5L41 4L40 4L40 7L39 7L39 6L38 6L38 7L37 7L37 4L38 4L38 5L39 5L39 4L38 4L38 1L37 1L37 2L36 2L36 0L33 0L33 1L32 1L32 0L30 0L30 2L29 2L29 0L28 0L28 2L27 2L27 1L25 1L25 0L21 0L21 1L19 1L19 0L17 0L17 2L18 2L18 1L19 1L19 3L16 3L16 4L15 4L15 5L14 5L14 4L13 4L13 2L12 2L12 3L11 3L11 1L13 1L13 0ZM15 0L15 2L16 2L16 0ZM41 0L41 1L40 1L40 2L42 2L42 1L43 1L43 0ZM58 0L58 1L57 1L57 2L58 2L58 3L59 3L59 2L58 2L58 1L61 1L61 0ZM21 1L21 2L20 2L20 3L21 3L21 5L20 5L20 4L18 4L18 5L15 5L15 7L14 7L14 6L13 6L13 7L12 7L12 5L13 5L13 4L11 4L11 5L10 5L10 4L9 4L9 5L10 5L10 6L11 6L11 8L14 8L14 9L13 9L13 10L14 10L14 12L16 12L16 13L15 13L15 14L14 14L14 13L13 13L13 14L11 14L11 13L12 13L12 10L10 10L10 11L11 11L11 12L10 12L10 14L11 14L11 15L9 15L9 12L8 12L8 14L7 14L7 15L6 15L6 16L3 16L3 17L6 17L6 18L4 18L4 19L2 19L2 20L5 20L5 21L3 21L3 22L7 22L7 23L8 23L8 24L7 24L7 25L6 25L6 26L5 26L5 28L4 28L4 29L5 29L5 31L6 31L6 32L7 32L7 31L6 31L6 30L9 30L9 29L8 29L8 28L7 28L7 27L8 27L8 26L9 26L9 28L10 28L10 29L11 29L11 30L10 30L10 31L11 31L11 32L9 32L9 31L8 31L8 32L9 32L9 35L10 35L10 36L9 36L9 37L8 37L8 40L7 40L7 39L6 39L6 40L5 40L5 39L4 39L4 40L3 40L3 37L4 37L4 36L3 36L3 37L1 37L1 38L2 38L2 40L1 40L1 41L2 41L2 42L3 42L3 43L2 43L2 45L1 45L1 49L2 49L2 46L3 46L3 43L4 43L4 42L5 42L5 43L6 43L6 44L7 44L7 45L6 45L6 46L9 46L9 45L10 45L10 44L9 44L9 43L6 43L6 42L8 42L8 41L9 41L9 42L10 42L10 41L11 41L11 39L12 39L12 40L13 40L13 43L12 43L12 42L11 42L11 43L12 43L12 44L14 44L14 45L15 45L15 46L16 46L16 47L15 47L15 48L14 48L14 49L15 49L15 48L16 48L16 50L15 50L15 51L16 51L16 50L17 50L17 48L18 48L18 50L19 50L19 49L20 49L20 50L21 50L21 49L23 49L23 48L24 48L24 50L23 50L23 51L22 51L22 53L19 53L19 51L17 51L17 53L18 53L18 54L19 54L19 55L17 55L17 54L16 54L16 56L18 56L18 57L17 57L17 58L18 58L18 57L19 57L19 59L18 59L18 60L20 60L20 61L22 61L22 62L21 62L21 63L20 63L20 64L21 64L21 63L23 63L23 62L24 62L24 64L22 64L22 65L20 65L20 67L19 67L19 68L20 68L20 67L21 67L21 68L23 68L23 65L24 65L24 66L25 66L25 64L26 64L26 66L27 66L27 65L28 65L28 66L29 66L29 65L31 65L31 64L28 64L28 63L27 63L27 64L26 64L26 61L27 61L27 60L30 60L30 59L31 59L31 60L35 60L35 57L36 57L36 60L38 60L38 61L39 61L39 60L40 60L40 58L39 58L39 57L38 57L38 56L40 56L40 55L41 55L41 54L40 54L40 53L39 53L39 52L37 52L37 53L36 53L36 52L35 52L35 51L34 51L34 50L33 50L33 49L32 49L32 48L33 48L33 46L35 46L35 45L31 45L31 43L32 43L32 44L34 44L34 43L32 43L32 40L33 40L33 39L34 39L34 38L36 38L36 37L30 37L30 38L32 38L32 40L31 40L31 39L29 39L29 40L28 40L28 38L29 38L29 36L32 36L32 32L31 32L31 30L32 30L32 31L33 31L33 30L32 30L32 29L34 29L34 30L35 30L35 32L37 32L37 33L38 33L38 34L40 34L40 33L39 33L39 32L40 32L40 31L36 31L36 30L35 30L35 27L37 27L37 25L38 25L38 24L37 24L37 23L38 23L38 22L37 22L37 19L36 19L36 21L35 21L35 22L34 22L34 21L33 21L33 20L32 20L32 22L31 22L31 19L32 19L32 18L31 18L31 16L29 16L29 15L30 15L30 14L32 14L32 13L33 13L33 14L36 14L36 15L34 15L34 17L33 17L33 18L34 18L34 17L35 17L35 18L36 18L36 17L37 17L37 18L38 18L38 20L39 20L39 21L40 21L40 20L39 20L39 17L37 17L37 15L38 15L38 16L39 16L39 14L40 14L40 17L41 17L41 16L42 16L42 18L43 18L43 19L41 19L41 20L43 20L43 21L44 21L44 22L43 22L43 23L42 23L42 24L43 24L43 23L44 23L44 25L46 25L46 23L49 23L49 22L47 22L47 19L46 19L46 21L45 21L45 20L44 20L44 18L45 18L45 17L46 17L46 16L45 16L45 17L44 17L44 18L43 18L43 16L44 16L44 15L47 15L47 18L52 18L52 17L53 17L53 16L54 16L54 19L55 19L55 18L56 18L56 19L57 19L57 20L55 20L55 22L59 22L59 21L58 21L58 20L59 20L59 18L57 18L57 17L55 17L55 16L57 16L57 15L58 15L58 14L55 14L55 13L57 13L57 12L56 12L56 11L55 11L55 10L53 10L53 12L52 12L52 10L51 10L51 9L52 9L52 8L51 8L51 9L49 9L49 8L50 8L50 6L51 6L51 7L52 7L52 6L53 6L53 7L54 7L54 6L53 6L53 5L52 5L52 4L53 4L53 3L52 3L52 2L50 2L50 3L49 3L49 4L48 4L48 3L46 3L46 5L45 5L45 8L44 8L44 6L43 6L43 9L45 9L45 10L46 10L46 11L44 11L44 10L43 10L43 11L44 11L44 13L43 13L43 12L41 12L41 13L42 13L42 14L44 14L44 15L41 15L41 14L40 14L40 11L42 11L42 10L41 10L41 9L42 9L42 8L41 8L41 7L42 7L42 6L41 6L41 7L40 7L40 8L41 8L41 9L40 9L40 11L37 11L37 12L36 12L36 9L34 9L34 10L33 10L33 11L32 11L32 13L29 13L29 11L30 11L30 12L31 12L31 11L30 11L30 9L27 9L27 8L25 8L25 7L26 7L26 6L25 6L25 1L23 1L23 2L22 2L22 1ZM31 1L31 2L30 2L30 3L31 3L31 4L29 4L29 2L28 2L28 3L27 3L27 2L26 2L26 4L28 4L28 6L27 6L27 7L28 7L28 8L29 8L29 7L30 7L30 6L29 6L29 5L31 5L31 4L33 4L33 2L35 2L35 3L34 3L34 4L36 4L36 2L35 2L35 1L33 1L33 2L32 2L32 1ZM23 2L23 4L22 4L22 7L21 7L21 6L20 6L20 7L21 7L21 8L22 8L22 9L23 9L23 11L20 11L20 9L19 9L19 11L18 11L18 10L17 10L17 14L15 14L15 15L14 15L14 14L13 14L13 15L14 15L14 16L12 16L12 15L11 15L11 16L9 16L9 18L10 18L10 17L11 17L11 19L10 19L10 20L9 20L9 19L8 19L8 20L9 20L9 22L8 22L8 21L7 21L7 20L6 20L6 21L7 21L7 22L8 22L8 23L9 23L9 22L11 22L11 21L12 21L12 23L10 23L10 24L11 24L11 25L10 25L10 27L13 27L13 28L12 28L12 29L14 29L14 28L15 28L15 27L13 27L13 26L14 26L14 25L13 25L13 21L14 21L14 22L15 22L15 21L17 21L17 22L16 22L16 23L17 23L17 25L16 25L16 24L15 24L15 23L14 23L14 24L15 24L15 26L17 26L17 27L16 27L16 28L19 28L19 27L20 27L20 29L21 29L21 31L20 31L20 30L19 30L19 29L15 29L15 30L13 30L13 31L12 31L12 30L11 30L11 31L12 31L12 33L11 33L11 38L10 38L10 37L9 37L9 41L10 41L10 39L11 39L11 38L12 38L12 36L13 36L13 35L14 35L14 37L15 37L15 38L13 38L13 39L15 39L15 41L16 41L16 42L19 42L19 43L17 43L17 46L18 46L18 48L19 48L19 47L21 47L21 46L19 46L19 45L18 45L18 44L19 44L19 43L20 43L20 45L23 45L23 46L22 46L22 47L23 47L23 46L25 46L25 45L23 45L23 42L26 42L26 43L28 43L28 44L27 44L27 45L26 45L26 47L30 47L30 48L29 48L29 49L31 49L31 50L27 50L27 49L25 49L25 50L24 50L24 51L25 51L25 54L24 54L24 53L23 53L23 54L22 54L22 56L20 56L20 55L19 55L19 56L20 56L20 57L21 57L21 58L20 58L20 59L22 59L22 60L23 60L23 61L24 61L24 60L23 60L23 59L22 59L22 56L23 56L23 57L24 57L24 58L27 58L27 57L29 57L29 58L28 58L28 59L30 59L30 58L31 58L31 57L29 57L29 55L28 55L28 54L29 54L29 52L31 52L31 51L33 51L33 50L32 50L32 49L31 49L31 48L32 48L32 47L31 47L31 46L30 46L30 44L29 44L29 43L30 43L30 42L29 42L29 41L27 41L27 39L25 39L25 38L24 38L24 39L25 39L25 41L24 41L24 40L23 40L23 41L21 41L21 37L20 37L20 35L21 35L21 36L23 36L23 37L26 37L26 38L28 38L28 37L26 37L26 36L28 36L28 35L30 35L30 34L29 34L29 33L30 33L30 32L28 32L28 31L29 31L29 28L27 28L27 27L26 27L26 26L28 26L28 24L27 24L27 23L26 23L26 21L24 21L24 19L25 19L25 20L26 20L26 18L24 18L24 17L23 17L23 18L22 18L22 16L26 16L26 17L28 17L28 18L29 18L29 19L31 19L31 18L30 18L30 17L28 17L28 15L27 15L27 16L26 16L26 13L25 13L25 10L24 10L24 9L23 9L23 8L24 8L24 7L25 7L25 6L24 6L24 2ZM44 3L44 4L45 4L45 3ZM50 3L50 4L49 4L49 5L51 5L51 3ZM60 3L60 5L61 5L61 3ZM47 4L47 5L46 5L46 7L47 7L47 6L48 6L48 7L49 7L49 6L48 6L48 4ZM33 5L33 8L36 8L36 5ZM16 6L16 7L15 7L15 10L16 10L16 9L18 9L18 8L19 8L19 6L18 6L18 8L16 8L16 7L17 7L17 6ZM23 6L23 7L22 7L22 8L23 8L23 7L24 7L24 6ZM28 6L28 7L29 7L29 6ZM31 6L31 8L32 8L32 6ZM34 6L34 7L35 7L35 6ZM60 6L60 7L61 7L61 6ZM37 8L37 9L38 9L38 10L39 10L39 9L38 9L38 8ZM46 8L46 9L47 9L47 11L46 11L46 12L45 12L45 14L46 14L46 12L47 12L47 13L49 13L49 14L48 14L48 16L49 16L49 17L52 17L52 16L53 16L53 15L54 15L54 16L55 16L55 14L53 14L53 13L52 13L52 14L53 14L53 15L51 15L51 16L50 16L50 15L49 15L49 14L51 14L51 11L50 11L50 10L49 10L49 9L48 9L48 8ZM53 8L53 9L54 9L54 8ZM6 9L6 10L7 10L7 9ZM8 9L8 10L9 10L9 9ZM31 9L31 10L32 10L32 9ZM64 9L64 11L65 11L65 9ZM28 10L28 11L29 11L29 10ZM34 10L34 11L33 11L33 13L36 13L36 12L35 12L35 10ZM66 10L66 12L63 12L63 14L61 14L61 15L60 15L60 16L62 16L62 15L64 15L64 13L68 13L68 12L67 12L67 10ZM0 11L0 12L1 12L1 11ZM47 11L47 12L48 12L48 11ZM49 11L49 12L50 12L50 11ZM54 11L54 12L55 12L55 11ZM21 12L21 13L22 13L22 14L20 14L20 13L18 13L18 14L19 14L19 15L16 15L16 16L17 16L17 17L15 17L15 16L14 16L14 17L12 17L12 16L11 16L11 17L12 17L12 19L11 19L11 20L12 20L12 19L13 19L13 20L14 20L14 21L15 21L15 20L16 20L16 19L15 19L15 18L17 18L17 20L18 20L18 22L17 22L17 23L18 23L18 24L19 24L19 25L21 25L21 27L22 27L22 26L23 26L23 25L22 25L22 24L23 24L23 23L20 23L20 22L21 22L21 19L20 19L20 16L19 16L19 15L22 15L22 14L23 14L23 15L25 15L25 13L24 13L24 12ZM37 12L37 14L39 14L39 13L38 13L38 12ZM27 13L27 14L28 14L28 13ZM7 15L7 16L6 16L6 17L7 17L7 18L6 18L6 19L7 19L7 18L8 18L8 15ZM32 15L32 16L33 16L33 15ZM18 16L18 17L19 17L19 16ZM35 16L35 17L36 17L36 16ZM58 16L58 17L59 17L59 16ZM66 16L66 17L67 17L67 18L68 18L68 17L67 17L67 16ZM1 17L1 18L2 18L2 17ZM23 18L23 19L22 19L22 20L23 20L23 19L24 19L24 18ZM19 19L19 20L20 20L20 19ZM34 19L34 20L35 20L35 19ZM49 19L49 20L48 20L48 21L49 21L49 20L51 20L51 19ZM28 20L28 21L29 21L29 22L28 22L28 23L29 23L29 24L30 24L30 25L31 25L31 24L30 24L30 21L29 21L29 20ZM53 20L53 21L54 21L54 20ZM19 21L19 22L18 22L18 23L19 23L19 22L20 22L20 21ZM22 21L22 22L23 22L23 21ZM24 22L24 24L26 24L26 25L27 25L27 24L26 24L26 23L25 23L25 22ZM32 22L32 23L33 23L33 25L34 25L34 27L35 27L35 25L36 25L36 23L34 23L34 22ZM64 22L64 24L65 24L65 25L66 25L66 26L68 26L68 25L69 25L69 22L67 22L67 23L68 23L68 24L66 24L66 23L65 23L65 22ZM8 24L8 25L7 25L7 26L6 26L6 27L7 27L7 26L8 26L8 25L9 25L9 24ZM12 25L12 26L13 26L13 25ZM24 25L24 27L23 27L23 28L22 28L22 29L23 29L23 28L24 28L24 30L23 30L23 32L24 32L24 31L25 31L25 34L24 34L24 35L23 35L23 36L25 36L25 35L26 35L26 34L27 34L27 35L28 35L28 32L27 32L27 31L28 31L28 30L27 30L27 29L25 29L25 28L24 28L24 27L25 27L25 25ZM29 26L29 27L30 27L30 28L33 28L33 27L32 27L32 26L31 26L31 27L30 27L30 26ZM63 26L63 27L64 27L64 26ZM1 27L1 28L2 28L2 27ZM49 27L49 29L46 29L46 31L45 31L45 32L47 32L47 33L48 33L48 32L47 32L47 31L50 31L50 30L49 30L49 29L50 29L50 27ZM6 28L6 29L7 29L7 28ZM36 28L36 29L37 29L37 30L39 30L39 29L37 29L37 28ZM54 29L54 30L56 30L56 33L55 33L55 31L53 31L53 33L50 33L50 34L52 34L52 35L54 35L54 36L55 36L55 35L54 35L54 33L55 33L55 34L56 34L56 33L57 33L57 34L58 34L58 35L57 35L57 36L56 36L56 37L57 37L57 36L59 36L59 37L58 37L58 38L59 38L59 40L62 40L62 41L63 41L63 40L62 40L62 39L63 39L63 38L65 38L65 37L67 37L67 35L66 35L66 36L65 36L65 37L63 37L63 38L62 38L62 37L60 37L60 34L59 34L59 32L60 32L60 31L59 31L59 30L56 30L56 29ZM17 30L17 32L16 32L16 31L14 31L14 32L13 32L13 33L12 33L12 35L13 35L13 34L14 34L14 35L15 35L15 36L16 36L16 34L17 34L17 33L19 33L19 34L21 34L21 32L22 32L22 31L21 31L21 32L19 32L19 31L18 31L18 30ZM25 30L25 31L27 31L27 30ZM57 31L57 33L58 33L58 31ZM14 32L14 33L15 33L15 34L16 34L16 32ZM26 32L26 33L27 33L27 32ZM5 33L5 36L8 36L8 33ZM22 33L22 34L23 34L23 33ZM33 33L33 36L36 36L36 33ZM61 33L61 36L64 36L64 33ZM6 34L6 35L7 35L7 34ZM34 34L34 35L35 35L35 34ZM62 34L62 35L63 35L63 34ZM17 35L17 36L18 36L18 35ZM48 35L48 36L49 36L49 37L46 37L46 38L45 38L45 36L44 36L44 38L45 38L45 39L47 39L47 40L46 40L46 41L49 41L49 40L48 40L48 39L50 39L50 36L49 36L49 35ZM6 37L6 38L7 38L7 37ZM16 37L16 38L15 38L15 39L17 39L17 40L16 40L16 41L19 41L19 42L21 42L21 41L20 41L20 39L19 39L19 40L18 40L18 39L17 39L17 37ZM18 37L18 38L19 38L19 37ZM37 37L37 39L38 39L38 40L39 40L39 38L38 38L38 37ZM22 38L22 39L23 39L23 38ZM47 38L47 39L48 39L48 38ZM60 38L60 39L61 39L61 38ZM68 39L68 40L69 40L69 39ZM6 40L6 41L7 41L7 40ZM30 40L30 41L31 41L31 40ZM51 40L51 41L52 41L52 40ZM59 41L59 42L56 42L56 43L58 43L58 44L59 44L59 45L60 45L60 44L61 44L61 41ZM59 42L59 43L60 43L60 42ZM21 43L21 44L22 44L22 43ZM24 43L24 44L25 44L25 43ZM51 43L51 44L52 44L52 43ZM8 44L8 45L9 45L9 44ZM15 44L15 45L16 45L16 44ZM28 44L28 45L27 45L27 46L29 46L29 44ZM48 44L48 45L49 45L49 44ZM65 44L65 45L66 45L66 46L64 46L64 47L65 47L65 48L66 48L66 46L67 46L67 49L66 49L66 50L68 50L68 49L69 49L69 46L68 46L68 45L66 45L66 44ZM11 45L11 46L13 46L13 47L14 47L14 46L13 46L13 45ZM41 45L41 47L42 47L42 45ZM36 46L36 47L37 47L37 46ZM60 46L60 47L61 47L61 46ZM8 47L8 48L9 48L9 47ZM24 47L24 48L25 48L25 47ZM54 47L54 48L55 48L55 47ZM11 49L11 50L12 50L12 49ZM25 50L25 51L26 51L26 52L27 52L27 53L26 53L26 55L24 55L24 54L23 54L23 55L24 55L24 57L27 57L27 56L26 56L26 55L27 55L27 53L28 53L28 52L29 52L29 51L28 51L28 52L27 52L27 51L26 51L26 50ZM45 51L45 53L46 53L46 51ZM3 52L3 53L4 53L4 52ZM32 52L32 59L34 59L34 58L33 58L33 57L35 57L35 56L36 56L36 54L35 54L35 53L33 53L33 52ZM51 52L51 53L52 53L52 52ZM38 53L38 54L39 54L39 53ZM54 53L54 55L52 55L52 56L54 56L54 55L55 55L55 53ZM57 53L57 55L58 55L58 53ZM59 53L59 55L60 55L60 54L61 54L61 53ZM30 54L30 55L31 55L31 54ZM34 54L34 55L33 55L33 56L35 56L35 54ZM6 55L6 56L7 56L7 57L6 57L6 58L8 58L8 59L9 59L9 58L8 58L8 55ZM9 55L9 56L10 56L10 55ZM37 55L37 56L38 56L38 55ZM64 55L64 56L63 56L63 57L62 57L62 58L61 58L61 57L60 57L60 58L59 58L59 59L57 59L57 60L58 60L58 61L57 61L57 62L54 62L54 61L53 61L53 62L52 62L52 61L49 61L49 59L48 59L48 58L47 58L47 59L45 59L45 58L44 58L44 59L43 59L43 61L44 61L44 60L45 60L45 62L44 62L44 64L43 64L43 65L45 65L45 62L46 62L46 63L47 63L47 64L50 64L50 65L51 65L51 67L53 67L53 68L51 68L51 69L54 69L54 68L55 68L55 67L54 67L54 65L52 65L52 64L53 64L53 63L54 63L54 64L56 64L56 68L57 68L57 69L59 69L59 68L61 68L61 67L62 67L62 69L65 69L65 68L63 68L63 67L62 67L62 65L63 65L63 66L64 66L64 65L65 65L65 66L66 66L66 67L67 67L67 66L68 66L68 65L69 65L69 63L68 63L68 65L67 65L67 63L65 63L65 60L66 60L66 59L69 59L69 57L68 57L68 58L65 58L65 60L64 60L64 58L63 58L63 57L67 57L67 56L65 56L65 55ZM2 56L2 57L4 57L4 56ZM45 56L45 57L46 57L46 56ZM37 57L37 58L38 58L38 59L39 59L39 58L38 58L38 57ZM49 57L49 58L50 58L50 57ZM25 59L25 61L26 61L26 60L27 60L27 59ZM47 59L47 60L48 60L48 59ZM59 59L59 61L58 61L58 63L60 63L60 62L59 62L59 61L60 61L60 59ZM61 59L61 60L62 60L62 59ZM3 60L3 61L5 61L5 60ZM67 60L67 61L68 61L68 60ZM28 61L28 62L29 62L29 63L31 63L31 62L32 62L32 61L30 61L30 62L29 62L29 61ZM33 61L33 64L36 64L36 61ZM46 61L46 62L47 62L47 63L48 63L48 62L49 62L49 61ZM61 61L61 64L64 64L64 61ZM34 62L34 63L35 63L35 62ZM38 62L38 63L37 63L37 64L38 64L38 63L39 63L39 62ZM50 62L50 64L51 64L51 62ZM62 62L62 63L63 63L63 62ZM16 63L16 65L17 65L17 63ZM18 64L18 66L19 66L19 64ZM58 64L58 65L59 65L59 64ZM35 65L35 66L36 66L36 65ZM38 65L38 66L39 66L39 67L40 67L40 66L39 66L39 65ZM46 65L46 68L45 68L45 69L48 69L48 68L47 68L47 65ZM48 65L48 66L49 66L49 69L50 69L50 66L49 66L49 65ZM60 65L60 66L61 66L61 65ZM66 65L66 66L67 66L67 65ZM15 66L15 67L16 67L16 66ZM33 66L33 67L34 67L34 66ZM44 66L44 67L45 67L45 66ZM57 66L57 68L59 68L59 67L58 67L58 66ZM17 67L17 68L18 68L18 67ZM68 67L68 68L69 68L69 67ZM42 68L42 69L43 69L43 68ZM66 68L66 69L67 69L67 68ZM0 0L0 7L7 7L7 0ZM1 1L1 6L6 6L6 1ZM2 2L2 5L5 5L5 2ZM62 0L62 7L69 7L69 0ZM63 1L63 6L68 6L68 1ZM64 2L64 5L67 5L67 2ZM0 62L0 69L7 69L7 62ZM1 63L1 68L6 68L6 63ZM2 64L2 67L5 67L5 64Z" fill="#000000"/></g></g></svg>
