<?xml version="1.0" encoding="UTF-8"?>
<svg xmlns="http://www.w3.org/2000/svg" version="1.1" width="300" height="300" viewBox="0 0 300 300"><rect x="0" y="0" width="300" height="300" fill="#ffffff"/><g transform="scale(4.348)"><g transform="translate(0,0)"><path fill-rule="evenodd" d="M9 0L9 1L8 1L8 2L9 2L9 1L11 1L11 0ZM12 0L12 2L13 2L13 0ZM14 0L14 1L15 1L15 2L16 2L16 3L13 3L13 4L12 4L12 3L11 3L11 2L10 2L10 4L9 4L9 3L8 3L8 4L9 4L9 5L8 5L8 7L9 7L9 6L10 6L10 7L11 7L11 6L12 6L12 8L10 8L10 9L9 9L9 8L6 8L6 9L9 9L9 10L12 10L12 12L11 12L11 11L9 11L9 12L8 12L8 11L7 11L7 10L6 10L6 11L7 11L7 12L6 12L6 13L4 13L4 12L5 12L5 11L4 11L4 12L2 12L2 14L3 14L3 13L4 13L4 14L5 14L5 15L4 15L4 16L3 16L3 18L0 18L0 19L1 19L1 20L0 20L0 21L1 21L1 20L2 20L2 22L1 22L1 23L3 23L3 22L5 22L5 19L4 19L4 20L2 20L2 19L3 19L3 18L5 18L5 17L4 17L4 16L6 16L6 17L7 17L7 16L8 16L8 15L7 15L7 14L9 14L9 13L10 13L10 12L11 12L11 15L12 15L12 13L14 13L14 14L13 14L13 15L14 15L14 16L12 16L12 17L11 17L11 19L9 19L9 18L8 18L8 19L7 19L7 18L6 18L6 19L7 19L7 20L6 20L6 21L7 21L7 20L8 20L8 19L9 19L9 21L10 21L10 22L12 22L12 23L11 23L11 25L12 25L12 24L13 24L13 26L14 26L14 28L13 28L13 27L12 27L12 26L11 26L11 27L9 27L9 26L10 26L10 24L9 24L9 22L6 22L6 23L4 23L4 24L0 24L0 27L1 27L1 28L0 28L0 34L1 34L1 33L2 33L2 34L3 34L3 35L2 35L2 36L1 36L1 35L0 35L0 37L1 37L1 38L3 38L3 39L4 39L4 41L3 41L3 40L2 40L2 39L0 39L0 40L1 40L1 42L2 42L2 43L3 43L3 42L4 42L4 44L6 44L6 45L8 45L8 44L6 44L6 43L7 43L7 42L6 42L6 41L8 41L8 43L9 43L9 49L7 49L7 48L8 48L8 46L5 46L5 47L4 47L4 45L3 45L3 47L1 47L1 46L2 46L2 45L0 45L0 47L1 47L1 49L0 49L0 50L1 50L1 51L0 51L0 54L1 54L1 55L0 55L0 56L1 56L1 57L2 57L2 59L3 59L3 58L4 58L4 59L7 59L7 58L8 58L8 57L9 57L9 59L10 59L10 60L9 60L9 61L8 61L8 60L6 60L6 61L8 61L8 63L9 63L9 64L8 64L8 69L13 69L13 68L16 68L16 67L17 67L17 66L19 66L19 67L20 67L20 66L19 66L19 65L20 65L20 64L19 64L19 63L20 63L20 60L17 60L17 59L20 59L20 56L22 56L22 57L21 57L21 59L22 59L22 60L21 60L21 61L22 61L22 62L21 62L21 63L22 63L22 62L25 62L25 63L26 63L26 64L23 64L23 66L21 66L21 67L23 67L23 68L25 68L25 69L26 69L26 68L27 68L27 69L28 69L28 68L29 68L29 69L32 69L32 68L29 68L29 65L32 65L32 66L31 66L31 67L34 67L34 66L33 66L33 65L37 65L37 67L35 67L35 68L34 68L34 69L35 69L35 68L36 68L36 69L38 69L38 68L37 68L37 67L39 67L39 66L38 66L38 64L41 64L41 66L40 66L40 67L41 67L41 69L42 69L42 67L41 67L41 66L44 66L44 68L43 68L43 69L44 69L44 68L47 68L47 69L49 69L49 68L48 68L48 66L49 66L49 67L50 67L50 68L51 68L51 67L52 67L52 65L51 65L51 67L50 67L50 65L49 65L49 64L51 64L51 63L52 63L52 62L54 62L54 63L53 63L53 66L54 66L54 67L53 67L53 69L56 69L56 68L57 68L57 66L58 66L58 67L60 67L60 69L62 69L62 67L63 67L63 68L64 68L64 69L68 69L68 68L67 68L67 67L65 67L65 68L64 68L64 67L63 67L63 66L64 66L64 65L65 65L65 66L67 66L67 65L68 65L68 62L69 62L69 61L68 61L68 60L69 60L69 59L68 59L68 58L69 58L69 57L68 57L68 56L67 56L67 55L68 55L68 54L69 54L69 53L68 53L68 54L67 54L67 52L68 52L68 50L69 50L69 48L68 48L68 46L69 46L69 45L68 45L68 42L66 42L66 43L65 43L65 42L63 42L63 41L66 41L66 40L67 40L67 39L68 39L68 36L69 36L69 35L68 35L68 34L69 34L69 33L68 33L68 32L67 32L67 31L68 31L68 30L67 30L67 31L65 31L65 29L66 29L66 28L67 28L67 29L68 29L68 27L67 27L67 26L69 26L69 23L68 23L68 22L67 22L67 21L68 21L68 18L69 18L69 16L68 16L68 14L69 14L69 13L68 13L68 14L65 14L65 16L66 16L66 18L65 18L65 17L63 17L63 18L62 18L62 16L64 16L64 15L62 15L62 13L63 13L63 14L64 14L64 13L63 13L63 12L65 12L65 13L67 13L67 11L66 11L66 10L69 10L69 9L68 9L68 8L67 8L67 9L66 9L66 8L65 8L65 10L64 10L64 11L63 11L63 10L61 10L61 9L62 9L62 8L61 8L61 6L60 6L60 8L59 8L59 4L58 4L58 3L59 3L59 2L58 2L58 1L61 1L61 0L56 0L56 2L57 2L57 4L56 4L56 3L54 3L54 4L51 4L51 2L55 2L55 0L52 0L52 1L51 1L51 2L50 2L50 0L47 0L47 1L48 1L48 2L47 2L47 3L48 3L48 4L47 4L47 5L49 5L49 6L48 6L48 7L47 7L47 6L46 6L46 5L44 5L44 3L45 3L45 4L46 4L46 3L45 3L45 2L44 2L44 3L43 3L43 0L39 0L39 1L38 1L38 0L35 0L35 4L33 4L33 3L32 3L32 2L33 2L33 1L34 1L34 0L33 0L33 1L32 1L32 0L31 0L31 1L30 1L30 0L28 0L28 1L25 1L25 0L23 0L23 1L24 1L24 2L25 2L25 3L23 3L23 4L22 4L22 5L21 5L21 6L20 6L20 5L19 5L19 4L21 4L21 3L18 3L18 2L20 2L20 1L19 1L19 0ZM21 0L21 2L22 2L22 0ZM44 0L44 1L45 1L45 0ZM16 1L16 2L17 2L17 1ZM31 1L31 2L32 2L32 1ZM37 1L37 2L36 2L36 3L38 3L38 4L37 4L37 5L38 5L38 6L37 6L37 7L38 7L38 6L39 6L39 7L40 7L40 6L41 6L41 8L37 8L37 9L38 9L38 10L36 10L36 9L35 9L35 10L34 10L34 11L33 11L33 10L32 10L32 11L31 11L31 12L32 12L32 13L31 13L31 14L32 14L32 17L33 17L33 18L31 18L31 19L32 19L32 20L31 20L31 21L30 21L30 20L29 20L29 19L30 19L30 17L29 17L29 16L31 16L31 15L29 15L29 16L27 16L27 15L28 15L28 14L29 14L29 12L28 12L28 11L27 11L27 12L26 12L26 10L29 10L29 11L30 11L30 9L32 9L32 8L31 8L31 7L32 7L32 5L30 5L30 4L29 4L29 3L30 3L30 2L29 2L29 3L28 3L28 2L27 2L27 3L26 3L26 5L28 5L28 6L27 6L27 7L26 7L26 6L25 6L25 5L22 5L22 6L21 6L21 7L20 7L20 6L19 6L19 5L18 5L18 4L17 4L17 3L16 3L16 4L15 4L15 5L14 5L14 6L13 6L13 8L12 8L12 9L13 9L13 11L14 11L14 13L16 13L16 15L15 15L15 14L14 14L14 15L15 15L15 16L16 16L16 17L17 17L17 18L16 18L16 19L17 19L17 20L16 20L16 21L17 21L17 20L19 20L19 19L20 19L20 18L19 18L19 19L17 19L17 18L18 18L18 17L21 17L21 20L20 20L20 22L17 22L17 23L18 23L18 24L19 24L19 23L20 23L20 26L18 26L18 27L19 27L19 29L20 29L20 30L19 30L19 31L20 31L20 30L21 30L21 29L22 29L22 31L23 31L23 32L20 32L20 33L19 33L19 34L17 34L17 33L18 33L18 32L17 32L17 31L18 31L18 30L17 30L17 29L14 29L14 30L16 30L16 31L15 31L15 32L13 32L13 30L11 30L11 29L10 29L10 28L9 28L9 27L8 27L8 26L9 26L9 24L8 24L8 25L6 25L6 24L7 24L7 23L6 23L6 24L5 24L5 25L3 25L3 26L5 26L5 25L6 25L6 26L7 26L7 27L6 27L6 28L3 28L3 27L2 27L2 28L3 28L3 32L7 32L7 31L5 31L5 30L7 30L7 29L8 29L8 28L9 28L9 29L10 29L10 30L11 30L11 31L10 31L10 33L11 33L11 31L12 31L12 33L13 33L13 36L14 36L14 37L15 37L15 39L17 39L17 40L15 40L15 41L14 41L14 40L13 40L13 37L11 37L11 35L10 35L10 34L9 34L9 35L10 35L10 38L8 38L8 37L6 37L6 38L4 38L4 37L3 37L3 38L4 38L4 39L6 39L6 40L8 40L8 41L9 41L9 43L10 43L10 46L11 46L11 43L12 43L12 42L13 42L13 43L16 43L16 45L15 45L15 47L14 47L14 48L16 48L16 47L17 47L17 48L18 48L18 49L14 49L14 50L16 50L16 51L15 51L15 53L14 53L14 51L13 51L13 46L14 46L14 45L13 45L13 44L12 44L12 45L13 45L13 46L12 46L12 48L10 48L10 49L9 49L9 50L8 50L8 51L13 51L13 52L12 52L12 53L14 53L14 55L13 55L13 54L12 54L12 55L13 55L13 56L14 56L14 55L15 55L15 56L16 56L16 57L15 57L15 58L14 58L14 59L13 59L13 57L12 57L12 56L10 56L10 57L12 57L12 58L11 58L11 59L12 59L12 60L14 60L14 59L15 59L15 60L16 60L16 61L12 61L12 62L11 62L11 63L13 63L13 64L15 64L15 63L18 63L18 62L19 62L19 61L17 61L17 60L16 60L16 59L15 59L15 58L16 58L16 57L17 57L17 58L19 58L19 57L17 57L17 56L20 56L20 55L22 55L22 54L24 54L24 53L25 53L25 52L26 52L26 54L25 54L25 55L24 55L24 56L26 56L26 59L25 59L25 60L24 60L24 59L23 59L23 58L24 58L24 57L22 57L22 59L23 59L23 60L22 60L22 61L25 61L25 60L26 60L26 62L27 62L27 61L28 61L28 63L27 63L27 64L28 64L28 65L25 65L25 66L23 66L23 67L25 67L25 68L26 68L26 67L27 67L27 68L28 68L28 67L27 67L27 66L28 66L28 65L29 65L29 64L31 64L31 63L32 63L32 60L33 60L33 58L34 58L34 59L38 59L38 58L39 58L39 57L41 57L41 56L39 56L39 55L43 55L43 56L42 56L42 57L43 57L43 60L42 60L42 58L41 58L41 59L40 59L40 62L39 62L39 60L37 60L37 61L38 61L38 63L37 63L37 64L38 64L38 63L41 63L41 64L44 64L44 66L45 66L45 67L46 67L46 66L47 66L47 64L48 64L48 63L51 63L51 61L54 61L54 60L53 60L53 58L51 58L51 57L55 57L55 56L56 56L56 58L54 58L54 59L55 59L55 60L56 60L56 61L55 61L55 63L54 63L54 65L55 65L55 66L57 66L57 65L58 65L58 66L60 66L60 65L59 65L59 64L55 64L55 63L56 63L56 61L57 61L57 63L58 63L58 62L59 62L59 63L60 63L60 62L59 62L59 61L60 61L60 60L61 60L61 59L60 59L60 58L61 58L61 57L62 57L62 60L64 60L64 59L65 59L65 57L66 57L66 58L68 58L68 57L67 57L67 56L64 56L64 57L63 57L63 56L62 56L62 55L67 55L67 54L66 54L66 52L65 52L65 51L66 51L66 50L65 50L65 49L67 49L67 48L65 48L65 47L66 47L66 44L64 44L64 43L63 43L63 42L62 42L62 41L61 41L61 39L60 39L60 37L59 37L59 36L60 36L60 35L59 35L59 33L58 33L58 32L59 32L59 31L58 31L58 30L59 30L59 28L61 28L61 26L59 26L59 24L60 24L60 23L61 23L61 24L62 24L62 28L63 28L63 29L62 29L62 31L63 31L63 32L64 32L64 31L63 31L63 29L65 29L65 28L63 28L63 27L65 27L65 26L63 26L63 25L66 25L66 24L63 24L63 22L65 22L65 23L66 23L66 22L65 22L65 21L66 21L66 20L65 20L65 18L63 18L63 21L62 21L62 22L60 22L60 21L61 21L61 20L62 20L62 18L61 18L61 20L60 20L60 18L59 18L59 17L60 17L60 15L61 15L61 16L62 16L62 15L61 15L61 14L59 14L59 13L62 13L62 11L61 11L61 10L59 10L59 9L57 9L57 8L58 8L58 4L57 4L57 5L56 5L56 6L55 6L55 7L54 7L54 6L53 6L53 5L52 5L52 6L51 6L51 8L50 8L50 6L49 6L49 8L50 8L50 10L52 10L52 11L53 11L53 10L52 10L52 9L53 9L53 8L55 8L55 7L56 7L56 6L57 6L57 8L56 8L56 9L55 9L55 11L54 11L54 12L51 12L51 13L50 13L50 11L49 11L49 10L47 10L47 7L46 7L46 6L45 6L45 7L44 7L44 5L43 5L43 7L42 7L42 5L41 5L41 3L42 3L42 1L41 1L41 2L40 2L40 3L39 3L39 2L38 2L38 1ZM48 2L48 3L49 3L49 2ZM27 3L27 4L28 4L28 3ZM31 3L31 4L32 4L32 3ZM60 3L60 5L61 5L61 3ZM10 4L10 5L12 5L12 4ZM16 4L16 7L17 7L17 8L16 8L16 9L15 9L15 8L14 8L14 11L15 11L15 12L17 12L17 13L18 13L18 14L17 14L17 15L16 15L16 16L17 16L17 17L18 17L18 16L17 16L17 15L18 15L18 14L20 14L20 15L19 15L19 16L21 16L21 17L22 17L22 18L23 18L23 19L22 19L22 20L23 20L23 22L22 22L22 21L21 21L21 22L22 22L22 23L21 23L21 24L22 24L22 25L21 25L21 26L22 26L22 25L24 25L24 26L23 26L23 27L24 27L24 28L23 28L23 29L24 29L24 30L23 30L23 31L26 31L26 32L24 32L24 33L23 33L23 34L22 34L22 33L21 33L21 34L22 34L22 35L23 35L23 34L25 34L25 33L28 33L28 34L26 34L26 36L25 36L25 35L24 35L24 36L23 36L23 37L21 37L21 38L20 38L20 36L19 36L19 35L20 35L20 34L19 34L19 35L16 35L16 33L17 33L17 32L16 32L16 33L14 33L14 36L15 36L15 37L17 37L17 38L19 38L19 40L18 40L18 41L17 41L17 45L18 45L18 46L17 46L17 47L18 47L18 46L20 46L20 47L19 47L19 48L20 48L20 47L21 47L21 46L22 46L22 47L25 47L25 48L26 48L26 47L25 47L25 45L26 45L26 44L27 44L27 45L29 45L29 46L27 46L27 48L28 48L28 47L29 47L29 49L30 49L30 50L29 50L29 52L28 52L28 51L27 51L27 50L28 50L28 49L27 49L27 50L26 50L26 49L24 49L24 48L23 48L23 49L22 49L22 48L21 48L21 49L18 49L18 50L17 50L17 52L16 52L16 53L19 53L19 54L15 54L15 55L20 55L20 53L19 53L19 52L21 52L21 49L22 49L22 51L25 51L25 50L26 50L26 51L27 51L27 52L28 52L28 53L27 53L27 54L28 54L28 53L31 53L31 54L30 54L30 55L26 55L26 56L27 56L27 57L29 57L29 60L28 60L28 59L27 59L27 60L28 60L28 61L29 61L29 62L31 62L31 60L32 60L32 59L31 59L31 54L32 54L32 56L34 56L34 55L33 55L33 53L34 53L34 52L33 52L33 51L34 51L34 49L31 49L31 48L30 48L30 47L31 47L31 46L30 46L30 45L31 45L31 44L32 44L32 45L33 45L33 44L32 44L32 43L33 43L33 42L34 42L34 43L35 43L35 44L36 44L36 45L35 45L35 46L32 46L32 47L33 47L33 48L36 48L36 47L37 47L37 46L38 46L38 45L39 45L39 46L40 46L40 47L38 47L38 49L37 49L37 50L36 50L36 49L35 49L35 50L36 50L36 51L35 51L35 53L37 53L37 54L39 54L39 51L41 51L41 52L42 52L42 53L41 53L41 54L43 54L43 53L44 53L44 56L43 56L43 57L44 57L44 56L46 56L46 57L49 57L49 58L48 58L48 59L49 59L49 60L45 60L45 59L46 59L46 58L45 58L45 59L44 59L44 60L43 60L43 61L42 61L42 60L41 60L41 62L42 62L42 63L43 63L43 61L44 61L44 64L45 64L45 66L46 66L46 64L45 64L45 61L47 61L47 62L46 62L46 63L47 63L47 62L50 62L50 61L51 61L51 60L50 60L50 59L51 59L51 58L50 58L50 57L51 57L51 56L52 56L52 55L53 55L53 56L55 56L55 55L56 55L56 54L55 54L55 53L56 53L56 52L57 52L57 53L59 53L59 52L63 52L63 53L62 53L62 54L61 54L61 55L57 55L57 56L58 56L58 57L59 57L59 56L61 56L61 55L62 55L62 54L63 54L63 53L64 53L64 52L63 52L63 51L64 51L64 50L63 50L63 51L60 51L60 49L61 49L61 50L62 50L62 49L61 49L61 48L62 48L62 46L63 46L63 45L62 45L62 46L57 46L57 45L59 45L59 44L60 44L60 43L59 43L59 42L61 42L61 41L59 41L59 42L57 42L57 41L58 41L58 39L59 39L59 40L60 40L60 39L59 39L59 38L57 38L57 37L56 37L56 36L59 36L59 35L56 35L56 34L57 34L57 33L55 33L55 32L57 32L57 31L56 31L56 30L57 30L57 29L56 29L56 28L55 28L55 25L56 25L56 24L55 24L55 21L56 21L56 22L57 22L57 21L56 21L56 19L55 19L55 20L53 20L53 19L52 19L52 20L50 20L50 19L48 19L48 20L46 20L46 21L47 21L47 24L46 24L46 22L44 22L44 20L43 20L43 21L40 21L40 20L42 20L42 19L43 19L43 17L44 17L44 16L45 16L45 17L47 17L47 18L44 18L44 19L47 19L47 18L48 18L48 17L49 17L49 18L50 18L50 17L49 17L49 16L50 16L50 13L49 13L49 12L47 12L47 14L49 14L49 16L48 16L48 15L47 15L47 16L46 16L46 15L44 15L44 16L42 16L42 17L41 17L41 18L39 18L39 19L38 19L38 17L39 17L39 16L40 16L40 15L42 15L42 14L44 14L44 13L42 13L42 14L41 14L41 12L42 12L42 10L45 10L45 9L46 9L46 7L45 7L45 9L44 9L44 8L43 8L43 9L40 9L40 10L41 10L41 12L40 12L40 11L37 11L37 14L35 14L35 15L36 15L36 16L35 16L35 19L37 19L37 20L38 20L38 21L36 21L36 20L35 20L35 22L34 22L34 21L33 21L33 20L32 20L32 21L31 21L31 22L30 22L30 21L29 21L29 22L28 22L28 24L27 24L27 23L26 23L26 22L25 22L25 21L26 21L26 20L24 20L24 19L25 19L25 18L26 18L26 19L27 19L27 20L28 20L28 19L27 19L27 18L28 18L28 17L27 17L27 18L26 18L26 17L24 17L24 16L26 16L26 15L24 15L24 16L23 16L23 17L22 17L22 16L21 16L21 14L20 14L20 13L19 13L19 10L20 10L20 9L19 9L19 6L18 6L18 5L17 5L17 4ZM39 4L39 5L40 5L40 4ZM50 4L50 5L51 5L51 4ZM29 5L29 6L28 6L28 7L29 7L29 6L30 6L30 7L31 7L31 6L30 6L30 5ZM33 5L33 8L36 8L36 5ZM14 6L14 7L15 7L15 6ZM17 6L17 7L18 7L18 6ZM22 6L22 7L23 7L23 8L24 8L24 9L23 9L23 10L24 10L24 9L25 9L25 10L26 10L26 8L25 8L25 6L24 6L24 7L23 7L23 6ZM34 6L34 7L35 7L35 6ZM52 6L52 8L53 8L53 6ZM0 8L0 9L1 9L1 10L0 10L0 12L1 12L1 10L2 10L2 11L3 11L3 10L4 10L4 9L5 9L5 8ZM21 8L21 9L22 9L22 8ZM27 8L27 9L30 9L30 8ZM63 8L63 9L64 9L64 8ZM16 9L16 11L17 11L17 12L18 12L18 10L19 10L19 9ZM56 9L56 10L57 10L57 11L56 11L56 12L55 12L55 13L54 13L54 14L53 14L53 13L52 13L52 14L51 14L51 16L54 16L54 17L53 17L53 18L56 18L56 15L57 15L57 13L56 13L56 12L58 12L58 13L59 13L59 10L57 10L57 9ZM35 10L35 11L36 11L36 10ZM23 11L23 13L22 13L22 15L23 15L23 14L25 14L25 13L26 13L26 14L27 14L27 13L28 13L28 12L27 12L27 13L26 13L26 12L24 12L24 11ZM43 11L43 12L45 12L45 11ZM60 11L60 12L61 12L61 11ZM33 12L33 14L34 14L34 13L36 13L36 12ZM38 12L38 14L37 14L37 16L38 16L38 15L40 15L40 14L39 14L39 13L40 13L40 12ZM0 13L0 15L1 15L1 13ZM6 13L6 14L7 14L7 13ZM55 13L55 14L54 14L54 15L56 15L56 13ZM52 14L52 15L53 15L53 14ZM6 15L6 16L7 16L7 15ZM9 15L9 16L10 16L10 15ZM33 15L33 16L34 16L34 15ZM0 16L0 17L1 17L1 16ZM47 16L47 17L48 17L48 16ZM57 16L57 17L58 17L58 16ZM67 16L67 17L68 17L68 16ZM12 17L12 18L13 18L13 19L14 19L14 20L13 20L13 22L14 22L14 23L15 23L15 24L16 24L16 25L15 25L15 26L16 26L16 25L17 25L17 24L16 24L16 23L15 23L15 19L14 19L14 18L15 18L15 17ZM51 17L51 18L52 18L52 17ZM39 19L39 20L40 20L40 19ZM57 19L57 20L59 20L59 21L60 21L60 20L59 20L59 19ZM11 20L11 21L12 21L12 20ZM49 20L49 21L48 21L48 22L49 22L49 21L50 21L50 24L49 24L49 23L48 23L48 24L47 24L47 25L46 25L46 24L45 24L45 23L44 23L44 22L43 22L43 24L44 24L44 25L43 25L43 26L46 26L46 27L44 27L44 29L43 29L43 30L42 30L42 27L39 27L39 26L41 26L41 25L42 25L42 24L41 24L41 23L42 23L42 22L40 22L40 23L39 23L39 22L37 22L37 23L39 23L39 25L38 25L38 24L37 24L37 25L38 25L38 26L37 26L37 27L38 27L38 28L40 28L40 29L38 29L38 30L37 30L37 31L36 31L36 32L38 32L38 34L39 34L39 35L37 35L37 36L38 36L38 37L36 37L36 38L35 38L35 37L34 37L34 38L30 38L30 37L29 37L29 36L28 36L28 35L27 35L27 36L26 36L26 37L27 37L27 38L28 38L28 40L27 40L27 39L26 39L26 38L25 38L25 40L26 40L26 42L27 42L27 43L28 43L28 44L29 44L29 45L30 45L30 44L29 44L29 43L32 43L32 42L33 42L33 41L34 41L34 42L35 42L35 41L36 41L36 43L37 43L37 45L36 45L36 46L35 46L35 47L36 47L36 46L37 46L37 45L38 45L38 43L40 43L40 44L39 44L39 45L40 45L40 44L41 44L41 43L40 43L40 41L41 41L41 40L44 40L44 42L43 42L43 44L44 44L44 45L43 45L43 46L42 46L42 45L41 45L41 46L42 46L42 48L41 48L41 47L40 47L40 48L39 48L39 49L38 49L38 50L37 50L37 51L39 51L39 50L41 50L41 51L42 51L42 50L41 50L41 49L42 49L42 48L43 48L43 46L44 46L44 49L43 49L43 50L44 50L44 49L45 49L45 52L44 52L44 51L43 51L43 52L44 52L44 53L45 53L45 54L46 54L46 56L47 56L47 55L48 55L48 53L45 53L45 52L46 52L46 51L47 51L47 50L49 50L49 51L50 51L50 54L49 54L49 57L50 57L50 56L51 56L51 55L50 55L50 54L51 54L51 53L53 53L53 54L54 54L54 55L55 55L55 54L54 54L54 53L53 53L53 51L54 51L54 50L53 50L53 49L54 49L54 48L56 48L56 50L55 50L55 51L57 51L57 50L58 50L58 52L59 52L59 49L60 49L60 48L61 48L61 47L57 47L57 48L56 48L56 47L53 47L53 43L54 43L54 42L53 42L53 41L55 41L55 40L56 40L56 41L57 41L57 38L55 38L55 40L52 40L52 39L54 39L54 38L52 38L52 37L53 37L53 34L52 34L52 33L54 33L54 32L55 32L55 31L54 31L54 32L52 32L52 31L51 31L51 30L53 30L53 28L54 28L54 29L55 29L55 28L54 28L54 27L53 27L53 26L52 26L52 25L55 25L55 24L53 24L53 23L51 23L51 22L53 22L53 20L52 20L52 21L50 21L50 20ZM23 22L23 24L26 24L26 25L25 25L25 27L26 27L26 26L27 26L27 28L26 28L26 29L25 29L25 28L24 28L24 29L25 29L25 30L28 30L28 31L27 31L27 32L28 32L28 33L29 33L29 29L27 29L27 28L31 28L31 29L32 29L32 28L31 28L31 27L33 27L33 30L30 30L30 31L32 31L32 32L34 32L34 31L33 31L33 30L34 30L34 29L36 29L36 28L35 28L35 27L36 27L36 26L35 26L35 27L33 27L33 26L32 26L32 25L33 25L33 24L35 24L35 25L36 25L36 24L35 24L35 23L34 23L34 22L33 22L33 23L32 23L32 22L31 22L31 23L32 23L32 25L31 25L31 27L28 27L28 26L29 26L29 25L30 25L30 24L28 24L28 25L27 25L27 24L26 24L26 23L25 23L25 22ZM29 22L29 23L30 23L30 22ZM58 23L58 24L59 24L59 23ZM67 23L67 25L68 25L68 23ZM48 24L48 25L47 25L47 27L49 27L49 28L45 28L45 30L43 30L43 31L40 31L40 30L39 30L39 31L38 31L38 32L43 32L43 33L40 33L40 35L41 35L41 36L43 36L43 37L41 37L41 38L40 38L40 37L39 37L39 39L38 39L38 38L36 38L36 39L32 39L32 41L30 41L30 40L29 40L29 41L30 41L30 42L32 42L32 41L33 41L33 40L37 40L37 39L38 39L38 41L37 41L37 43L38 43L38 41L39 41L39 40L41 40L41 38L43 38L43 39L45 39L45 40L47 40L47 42L46 42L46 43L45 43L45 42L44 42L44 44L45 44L45 45L47 45L47 46L49 46L49 47L50 47L50 49L49 49L49 48L47 48L47 49L49 49L49 50L50 50L50 49L51 49L51 46L50 46L50 44L48 44L48 43L50 43L50 41L51 41L51 40L50 40L50 37L51 37L51 36L52 36L52 34L51 34L51 36L50 36L50 33L51 33L51 32L50 32L50 31L49 31L49 30L50 30L50 29L49 29L49 28L50 28L50 27L51 27L51 26L50 26L50 25L49 25L49 24ZM1 25L1 26L2 26L2 25ZM56 26L56 27L57 27L57 28L59 28L59 26L58 26L58 27L57 27L57 26ZM7 27L7 28L6 28L6 29L7 29L7 28L8 28L8 27ZM15 27L15 28L16 28L16 27ZM21 27L21 28L22 28L22 27ZM52 27L52 28L51 28L51 29L52 29L52 28L53 28L53 27ZM4 29L4 30L5 30L5 29ZM46 29L46 30L45 30L45 32L44 32L44 31L43 31L43 32L44 32L44 33L43 33L43 34L41 34L41 35L43 35L43 36L44 36L44 37L45 37L45 38L49 38L49 37L50 37L50 36L49 36L49 37L45 37L45 36L48 36L48 35L49 35L49 33L50 33L50 32L49 32L49 33L48 33L48 34L47 34L47 33L45 33L45 32L46 32L46 30L47 30L47 29ZM48 29L48 30L49 30L49 29ZM1 30L1 32L2 32L2 30ZM60 30L60 31L61 31L61 30ZM8 31L8 32L9 32L9 31ZM47 31L47 32L48 32L48 31ZM66 32L66 33L65 33L65 34L66 34L66 35L67 35L67 36L66 36L66 38L65 38L65 37L64 37L64 38L62 38L62 37L61 37L61 38L62 38L62 40L63 40L63 39L65 39L65 40L66 40L66 39L67 39L67 36L68 36L68 35L67 35L67 34L68 34L68 33L67 33L67 32ZM5 33L5 36L8 36L8 33ZM31 33L31 34L32 34L32 33ZM33 33L33 36L36 36L36 33ZM44 33L44 36L45 36L45 33ZM61 33L61 36L64 36L64 33ZM66 33L66 34L67 34L67 33ZM6 34L6 35L7 35L7 34ZM29 34L29 35L30 35L30 34ZM34 34L34 35L35 35L35 34ZM62 34L62 35L63 35L63 34ZM15 35L15 36L16 36L16 35ZM55 35L55 36L54 36L54 37L55 37L55 36L56 36L56 35ZM24 36L24 37L25 37L25 36ZM27 36L27 37L28 37L28 36ZM31 36L31 37L32 37L32 36ZM6 38L6 39L7 39L7 38ZM22 38L22 39L21 39L21 40L22 40L22 41L20 41L20 42L23 42L23 43L22 43L22 44L21 44L21 43L20 43L20 44L19 44L19 43L18 43L18 44L19 44L19 45L20 45L20 46L21 46L21 45L23 45L23 43L24 43L24 44L25 44L25 41L24 41L24 40L23 40L23 39L24 39L24 38ZM29 38L29 39L30 39L30 38ZM11 39L11 40L12 40L12 41L13 41L13 40L12 40L12 39ZM47 39L47 40L48 40L48 39ZM9 40L9 41L10 41L10 40ZM68 40L68 41L69 41L69 40ZM4 41L4 42L5 42L5 43L6 43L6 42L5 42L5 41ZM15 41L15 42L16 42L16 41ZM18 41L18 42L19 42L19 41ZM23 41L23 42L24 42L24 41ZM51 42L51 43L53 43L53 42ZM0 43L0 44L1 44L1 43ZM46 43L46 44L47 44L47 43ZM56 43L56 45L55 45L55 46L56 46L56 45L57 45L57 43ZM61 43L61 44L63 44L63 43ZM20 44L20 45L21 45L21 44ZM64 46L64 47L65 47L65 46ZM5 47L5 49L6 49L6 50L7 50L7 49L6 49L6 48L7 48L7 47ZM45 47L45 49L46 49L46 47ZM57 48L57 49L59 49L59 48ZM64 48L64 49L65 49L65 48ZM1 49L1 50L2 50L2 49ZM10 49L10 50L12 50L12 49ZM23 49L23 50L24 50L24 49ZM4 50L4 52L3 52L3 51L1 51L1 52L3 52L3 54L2 54L2 53L1 53L1 54L2 54L2 55L1 55L1 56L2 56L2 57L3 57L3 56L4 56L4 58L5 58L5 56L9 56L9 55L10 55L10 53L9 53L9 52L7 52L7 51L6 51L6 52L7 52L7 53L5 53L5 50ZM19 50L19 51L18 51L18 52L19 52L19 51L20 51L20 50ZM30 50L30 51L33 51L33 50ZM51 50L51 51L53 51L53 50ZM23 52L23 53L24 53L24 52ZM32 52L32 53L33 53L33 52ZM37 52L37 53L38 53L38 52ZM4 53L4 54L3 54L3 55L2 55L2 56L3 56L3 55L4 55L4 56L5 56L5 55L7 55L7 54L8 54L8 55L9 55L9 54L8 54L8 53L7 53L7 54L5 54L5 53ZM21 53L21 54L22 54L22 53ZM35 55L35 58L38 58L38 55ZM29 56L29 57L30 57L30 56ZM36 56L36 57L37 57L37 56ZM6 57L6 58L7 58L7 57ZM32 57L32 58L33 58L33 57ZM0 58L0 61L1 61L1 58ZM49 58L49 59L50 59L50 58ZM57 58L57 59L58 59L58 58ZM67 59L67 60L65 60L65 61L67 61L67 62L68 62L68 61L67 61L67 60L68 60L68 59ZM3 60L3 61L5 61L5 60ZM10 60L10 61L11 61L11 60ZM44 60L44 61L45 61L45 60ZM58 60L58 61L59 61L59 60ZM33 61L33 64L36 64L36 61ZM61 61L61 64L64 64L64 61ZM13 62L13 63L14 63L14 62ZM34 62L34 63L35 63L35 62ZM62 62L62 63L63 63L63 62ZM65 62L65 63L66 63L66 62ZM9 64L9 65L10 65L10 66L11 66L11 67L9 67L9 68L12 68L12 65L10 65L10 64ZM16 64L16 65L15 65L15 66L17 66L17 65L18 65L18 64ZM65 64L65 65L67 65L67 64ZM61 65L61 67L62 67L62 66L63 66L63 65ZM55 67L55 68L56 68L56 67ZM17 68L17 69L21 69L21 68ZM58 68L58 69L59 69L59 68ZM0 0L0 7L7 7L7 0ZM1 1L1 6L6 6L6 1ZM2 2L2 5L5 5L5 2ZM62 0L62 7L69 7L69 0ZM63 1L63 6L68 6L68 1ZM64 2L64 5L67 5L67 2ZM0 62L0 69L7 69L7 62ZM1 63L1 68L6 68L6 63ZM2 64L2 67L5 67L5 64Z" fill="#000000"/></g></g></svg>
