<?xml version="1.0" encoding="UTF-8"?>
<svg xmlns="http://www.w3.org/2000/svg" version="1.1" width="300" height="300" viewBox="0 0 300 300"><rect x="0" y="0" width="300" height="300" fill="#ffffff"/><g transform="scale(4.348)"><g transform="translate(0,0)"><path fill-rule="evenodd" d="M8 0L8 1L9 1L9 3L10 3L10 5L11 5L11 4L12 4L12 5L13 5L13 6L12 6L12 7L13 7L13 8L12 8L12 9L9 9L9 11L8 11L8 12L6 12L6 11L7 11L7 10L8 10L8 9L7 9L7 8L6 8L6 9L7 9L7 10L5 10L5 8L3 8L3 9L2 9L2 8L0 8L0 12L3 12L3 11L2 11L2 10L3 10L3 9L4 9L4 10L5 10L5 11L4 11L4 12L6 12L6 13L7 13L7 14L6 14L6 15L5 15L5 13L4 13L4 14L3 14L3 13L2 13L2 14L1 14L1 15L0 15L0 18L2 18L2 20L3 20L3 22L2 22L2 21L1 21L1 22L0 22L0 23L1 23L1 25L0 25L0 28L1 28L1 29L2 29L2 31L0 31L0 33L1 33L1 34L0 34L0 37L2 37L2 36L3 36L3 37L4 37L4 38L3 38L3 39L4 39L4 38L6 38L6 39L9 39L9 41L10 41L10 38L11 38L11 39L12 39L12 40L13 40L13 42L12 42L12 43L11 43L11 44L12 44L12 45L10 45L10 46L9 46L9 47L7 47L7 46L6 46L6 45L7 45L7 44L8 44L8 45L9 45L9 43L7 43L7 42L8 42L8 40L6 40L6 41L7 41L7 42L5 42L5 41L4 41L4 42L5 42L5 44L4 44L4 43L2 43L2 45L1 45L1 46L2 46L2 48L3 48L3 49L0 49L0 50L1 50L1 51L0 51L0 53L1 53L1 52L2 52L2 53L3 53L3 52L2 52L2 50L3 50L3 49L4 49L4 48L5 48L5 52L6 52L6 53L5 53L5 56L6 56L6 57L4 57L4 56L3 56L3 55L4 55L4 54L1 54L1 55L0 55L0 56L1 56L1 57L0 57L0 61L1 61L1 58L2 58L2 59L3 59L3 57L4 57L4 59L7 59L7 60L6 60L6 61L7 61L7 60L9 60L9 59L10 59L10 61L8 61L8 62L9 62L9 63L10 63L10 64L8 64L8 66L11 66L11 68L10 68L10 67L8 67L8 69L9 69L9 68L10 68L10 69L12 69L12 66L13 66L13 65L14 65L14 66L15 66L15 62L16 62L16 63L17 63L17 64L16 64L16 67L17 67L17 65L18 65L18 66L19 66L19 65L21 65L21 66L20 66L20 67L19 67L19 68L16 68L16 69L19 69L19 68L20 68L20 69L25 69L25 68L22 68L22 67L24 67L24 66L25 66L25 67L27 67L27 68L28 68L28 66L31 66L31 67L29 67L29 68L30 68L30 69L31 69L31 68L33 68L33 69L37 69L37 67L36 67L36 66L37 66L37 64L38 64L38 65L39 65L39 64L41 64L41 63L44 63L44 61L45 61L45 62L46 62L46 63L45 63L45 64L42 64L42 66L41 66L41 67L40 67L40 66L39 66L39 67L38 67L38 69L39 69L39 67L40 67L40 69L41 69L41 67L42 67L42 69L43 69L43 68L45 68L45 69L46 69L46 68L47 68L47 69L50 69L50 68L51 68L51 67L50 67L50 65L49 65L49 64L48 64L48 63L47 63L47 62L46 62L46 61L47 61L47 60L48 60L48 61L50 61L50 62L51 62L51 64L54 64L54 66L53 66L53 65L52 65L52 67L53 67L53 68L52 68L52 69L53 69L53 68L54 68L54 69L55 69L55 67L56 67L56 66L57 66L57 67L58 67L58 66L60 66L60 67L59 67L59 68L58 68L58 69L59 69L59 68L61 68L61 67L62 67L62 68L63 68L63 67L62 67L62 66L64 66L64 67L65 67L65 68L64 68L64 69L65 69L65 68L69 68L69 66L66 66L66 64L67 64L67 65L69 65L69 63L67 63L67 62L68 62L68 61L67 61L67 60L69 60L69 56L68 56L68 55L69 55L69 49L68 49L68 48L69 48L69 45L68 45L68 46L67 46L67 42L66 42L66 41L67 41L67 40L69 40L69 39L66 39L66 38L67 38L67 37L66 37L66 36L67 36L67 35L69 35L69 34L67 34L67 33L66 33L66 32L68 32L68 33L69 33L69 32L68 32L68 31L69 31L69 30L68 30L68 28L69 28L69 27L68 27L68 28L67 28L67 26L66 26L66 25L68 25L68 26L69 26L69 25L68 25L68 23L69 23L69 21L67 21L67 19L65 19L65 18L64 18L64 19L65 19L65 20L64 20L64 21L63 21L63 19L62 19L62 17L63 17L63 16L61 16L61 15L64 15L64 16L65 16L65 17L66 17L66 18L68 18L68 20L69 20L69 17L67 17L67 14L65 14L65 15L64 15L64 14L63 14L63 13L62 13L62 12L64 12L64 13L67 13L67 11L68 11L68 14L69 14L69 10L67 10L67 9L64 9L64 10L63 10L63 8L62 8L62 9L61 9L61 8L60 8L60 7L61 7L61 6L60 6L60 7L59 7L59 4L58 4L58 3L59 3L59 2L57 2L57 1L61 1L61 0L57 0L57 1L56 1L56 2L55 2L55 0L54 0L54 2L55 2L55 3L54 3L54 5L53 5L53 1L51 1L51 0L50 0L50 1L49 1L49 0L48 0L48 1L47 1L47 0L46 0L46 1L44 1L44 0L42 0L42 7L43 7L43 6L44 6L44 8L45 8L45 10L47 10L47 12L46 12L46 13L45 13L45 11L43 11L43 12L44 12L44 13L42 13L42 11L41 11L41 12L40 12L40 14L39 14L39 13L38 13L38 12L37 12L37 10L43 10L43 8L41 8L41 6L40 6L40 5L39 5L39 4L41 4L41 0L38 0L38 1L39 1L39 2L37 2L37 1L36 1L36 0L34 0L34 1L35 1L35 2L34 2L34 3L30 3L30 2L33 2L33 0L32 0L32 1L30 1L30 0L27 0L27 1L30 1L30 2L28 2L28 4L29 4L29 5L27 5L27 2L26 2L26 3L25 3L25 2L24 2L24 1L26 1L26 0L24 0L24 1L23 1L23 0L22 0L22 1L23 1L23 2L24 2L24 5L27 5L27 6L26 6L26 7L25 7L25 6L24 6L24 7L23 7L23 3L22 3L22 2L21 2L21 0L18 0L18 2L17 2L17 4L16 4L16 1L17 1L17 0L12 0L12 1L15 1L15 2L14 2L14 4L13 4L13 2L11 2L11 3L10 3L10 1L11 1L11 0ZM19 1L19 2L18 2L18 3L19 3L19 2L20 2L20 4L21 4L21 2L20 2L20 1ZM46 1L46 2L45 2L45 3L49 3L49 4L48 4L48 6L47 6L47 7L46 7L46 5L47 5L47 4L43 4L43 5L45 5L45 8L47 8L47 7L48 7L48 6L49 6L49 7L50 7L50 8L51 8L51 9L52 9L52 8L51 8L51 7L52 7L52 6L53 6L53 9L56 9L56 11L55 11L55 13L56 13L56 11L57 11L57 13L58 13L58 14L59 14L59 15L61 15L61 14L62 14L62 13L61 13L61 12L60 12L60 11L62 11L62 10L60 10L60 11L59 11L59 10L58 10L58 11L57 11L57 9L60 9L60 8L59 8L59 7L58 7L58 5L57 5L57 4L56 4L56 5L55 5L55 8L54 8L54 6L53 6L53 5L51 5L51 7L50 7L50 6L49 6L49 4L51 4L51 1L50 1L50 2L47 2L47 1ZM39 2L39 3L36 3L36 4L39 4L39 3L40 3L40 2ZM43 2L43 3L44 3L44 2ZM60 3L60 5L61 5L61 3ZM14 4L14 5L15 5L15 8L13 8L13 10L14 10L14 11L12 11L12 10L11 10L11 12L12 12L12 13L13 13L13 12L14 12L14 13L15 13L15 14L14 14L14 16L13 16L13 14L12 14L12 15L11 15L11 16L10 16L10 15L9 15L9 14L11 14L11 13L9 13L9 12L10 12L10 11L9 11L9 12L8 12L8 16L7 16L7 15L6 15L6 16L5 16L5 15L4 15L4 17L3 17L3 16L2 16L2 15L3 15L3 14L2 14L2 15L1 15L1 16L2 16L2 17L3 17L3 18L4 18L4 17L5 17L5 19L6 19L6 20L7 20L7 19L8 19L8 18L9 18L9 16L10 16L10 17L14 17L14 18L13 18L13 19L12 19L12 18L10 18L10 19L9 19L9 20L8 20L8 21L9 21L9 20L10 20L10 21L11 21L11 22L12 22L12 21L11 21L11 20L13 20L13 21L15 21L15 22L14 22L14 23L12 23L12 24L8 24L8 23L10 23L10 22L7 22L7 21L6 21L6 22L5 22L5 20L4 20L4 19L3 19L3 20L4 20L4 23L6 23L6 24L5 24L5 25L3 25L3 26L2 26L2 27L4 27L4 26L7 26L7 25L9 25L9 26L8 26L8 27L9 27L9 26L10 26L10 25L13 25L13 26L12 26L12 29L11 29L11 30L9 30L9 28L7 28L7 27L5 27L5 28L7 28L7 29L5 29L5 30L4 30L4 29L3 29L3 28L2 28L2 29L3 29L3 31L2 31L2 32L1 32L1 33L3 33L3 32L4 32L4 31L5 31L5 32L7 32L7 31L8 31L8 32L9 32L9 33L10 33L10 35L9 35L9 36L10 36L10 37L11 37L11 38L12 38L12 39L13 39L13 38L14 38L14 36L16 36L16 38L15 38L15 39L14 39L14 40L15 40L15 41L14 41L14 42L13 42L13 43L12 43L12 44L13 44L13 43L15 43L15 44L14 44L14 45L13 45L13 46L15 46L15 47L16 47L16 50L17 50L17 53L18 53L18 55L17 55L17 54L16 54L16 56L19 56L19 55L20 55L20 54L21 54L21 59L20 59L20 58L19 58L19 57L16 57L16 58L18 58L18 60L17 60L17 59L16 59L16 60L17 60L17 61L16 61L16 62L17 62L17 63L18 63L18 62L20 62L20 64L21 64L21 65L23 65L23 66L24 66L24 63L22 63L22 60L23 60L23 62L24 62L24 61L26 61L26 59L27 59L27 56L28 56L28 57L29 57L29 58L31 58L31 59L28 59L28 60L29 60L29 61L28 61L28 62L27 62L27 63L26 63L26 62L25 62L25 64L26 64L26 65L25 65L25 66L27 66L27 65L30 65L30 64L31 64L31 65L32 65L32 67L34 67L34 68L36 68L36 67L35 67L35 66L33 66L33 65L32 65L32 64L31 64L31 63L29 63L29 64L27 64L27 63L28 63L28 62L32 62L32 61L30 61L30 60L32 60L32 58L34 58L34 59L35 59L35 60L36 60L36 59L37 59L37 63L40 63L40 62L41 62L41 61L44 61L44 60L45 60L45 61L46 61L46 60L47 60L47 58L46 58L46 59L45 59L45 57L47 57L47 56L48 56L48 52L47 52L47 51L45 51L45 53L46 53L46 52L47 52L47 55L45 55L45 56L42 56L42 57L43 57L43 59L42 59L42 58L41 58L41 57L40 57L40 55L39 55L39 58L41 58L41 61L40 61L40 59L39 59L39 62L38 62L38 59L37 59L37 58L36 58L36 57L37 57L37 56L36 56L36 57L34 57L34 56L35 56L35 55L36 55L36 54L35 54L35 55L34 55L34 54L33 54L33 55L31 55L31 54L32 54L32 53L30 53L30 52L29 52L29 53L30 53L30 55L31 55L31 56L33 56L33 57L32 57L32 58L31 58L31 57L29 57L29 55L28 55L28 54L27 54L27 53L26 53L26 55L23 55L23 54L24 54L24 52L22 52L22 50L21 50L21 49L22 49L22 48L21 48L21 47L24 47L24 46L21 46L21 47L20 47L20 46L15 46L15 44L21 44L21 45L22 45L22 44L23 44L23 45L24 45L24 44L25 44L25 46L27 46L27 47L25 47L25 48L27 48L27 47L28 47L28 46L27 46L27 45L30 45L30 46L29 46L29 48L28 48L28 49L27 49L27 50L26 50L26 51L25 51L25 52L26 52L26 51L27 51L27 52L28 52L28 50L29 50L29 51L31 51L31 50L30 50L30 48L31 48L31 47L33 47L33 48L32 48L32 51L33 51L33 53L37 53L37 52L34 52L34 51L33 51L33 49L34 49L34 50L35 50L35 49L36 49L36 50L38 50L38 49L39 49L39 50L40 50L40 51L41 51L41 52L39 52L39 51L38 51L38 54L41 54L41 55L44 55L44 54L41 54L41 52L42 52L42 53L43 53L43 51L44 51L44 50L45 50L45 49L46 49L46 50L48 50L48 49L46 49L46 48L49 48L49 46L50 46L50 49L49 49L49 51L50 51L50 49L52 49L52 50L53 50L53 49L54 49L54 48L53 48L53 47L54 47L54 46L53 46L53 45L52 45L52 44L54 44L54 45L55 45L55 49L56 49L56 50L55 50L55 52L57 52L57 53L55 53L55 54L51 54L51 53L54 53L54 52L52 52L52 51L51 51L51 52L49 52L49 53L50 53L50 55L51 55L51 59L50 59L50 58L49 58L49 57L50 57L50 56L49 56L49 57L48 57L48 58L49 58L49 59L48 59L48 60L49 60L49 59L50 59L50 60L51 60L51 62L53 62L53 61L52 61L52 60L54 60L54 61L55 61L55 62L54 62L54 63L55 63L55 64L56 64L56 63L57 63L57 64L58 64L58 65L59 65L59 64L60 64L60 63L59 63L59 62L60 62L60 61L58 61L58 59L59 59L59 58L60 58L60 60L61 60L61 57L60 57L60 56L62 56L62 58L63 58L63 59L64 59L64 58L63 58L63 56L64 56L64 54L63 54L63 47L64 47L64 46L63 46L63 45L64 45L64 43L66 43L66 42L64 42L64 43L63 43L63 44L62 44L62 39L63 39L63 40L65 40L65 39L64 39L64 38L66 38L66 37L62 37L62 38L60 38L60 39L59 39L59 40L58 40L58 38L59 38L59 37L58 37L58 38L57 38L57 37L56 37L56 36L57 36L57 35L60 35L60 32L58 32L58 31L59 31L59 30L60 30L60 28L61 28L61 29L62 29L62 30L61 30L61 32L63 32L63 31L65 31L65 30L64 30L64 29L66 29L66 31L68 31L68 30L67 30L67 28L65 28L65 27L64 27L64 26L65 26L65 25L66 25L66 22L67 22L67 21L66 21L66 22L65 22L65 25L64 25L64 24L63 24L63 22L59 22L59 24L57 24L57 25L56 25L56 23L58 23L58 21L62 21L62 19L61 19L61 18L60 18L60 16L58 16L58 17L59 17L59 19L58 19L58 18L57 18L57 17L55 17L55 18L54 18L54 17L53 17L53 15L51 15L51 16L50 16L50 15L49 15L49 14L50 14L50 13L52 13L52 11L53 11L53 12L54 12L54 10L51 10L51 12L50 12L50 13L48 13L48 12L47 12L47 13L46 13L46 14L45 14L45 13L44 13L44 14L45 14L45 15L42 15L42 14L40 14L40 15L39 15L39 14L38 14L38 13L37 13L37 12L35 12L35 13L32 13L32 12L33 12L33 11L32 11L32 10L34 10L34 9L32 9L32 8L31 8L31 7L32 7L32 5L29 5L29 7L30 7L30 8L31 8L31 9L29 9L29 8L28 8L28 6L27 6L27 8L25 8L25 7L24 7L24 8L23 8L23 7L22 7L22 5L21 5L21 7L22 7L22 8L23 8L23 9L24 9L24 11L23 11L23 10L19 10L19 11L18 11L18 10L17 10L17 11L16 11L16 13L15 13L15 10L14 10L14 9L15 9L15 8L19 8L19 9L21 9L21 8L19 8L19 7L20 7L20 6L19 6L19 7L18 7L18 5L19 5L19 4L18 4L18 5L17 5L17 7L16 7L16 4ZM33 5L33 8L36 8L36 5ZM38 5L38 6L37 6L37 9L40 9L40 6L39 6L39 5ZM8 6L8 8L9 8L9 6ZM10 6L10 8L11 8L11 6ZM13 6L13 7L14 7L14 6ZM30 6L30 7L31 7L31 6ZM34 6L34 7L35 7L35 6ZM38 6L38 7L39 7L39 6ZM56 6L56 7L57 7L57 8L58 8L58 7L57 7L57 6ZM24 8L24 9L25 9L25 8ZM68 8L68 9L69 9L69 8ZM1 9L1 10L2 10L2 9ZM27 9L27 12L26 12L26 11L25 11L25 12L23 12L23 11L20 11L20 12L21 12L21 13L19 13L19 12L18 12L18 14L17 14L17 15L16 15L16 14L15 14L15 16L14 16L14 17L15 17L15 18L14 18L14 20L15 20L15 21L16 21L16 23L17 23L17 24L15 24L15 23L14 23L14 26L15 26L15 28L14 28L14 27L13 27L13 29L12 29L12 30L11 30L11 31L10 31L10 32L11 32L11 31L12 31L12 33L11 33L11 35L10 35L10 36L11 36L11 37L12 37L12 36L11 36L11 35L13 35L13 34L14 34L14 33L15 33L15 35L16 35L16 34L18 34L18 35L17 35L17 36L18 36L18 37L17 37L17 38L18 38L18 41L19 41L19 43L20 43L20 41L21 41L21 44L22 44L22 43L23 43L23 44L24 44L24 42L23 42L23 41L25 41L25 43L26 43L26 44L27 44L27 43L26 43L26 42L28 42L28 43L30 43L30 45L31 45L31 46L30 46L30 47L31 47L31 46L32 46L32 45L31 45L31 43L32 43L32 44L33 44L33 46L34 46L34 45L35 45L35 47L34 47L34 49L35 49L35 47L36 47L36 49L38 49L38 48L39 48L39 44L38 44L38 43L39 43L39 42L40 42L40 41L39 41L39 39L38 39L38 38L40 38L40 39L42 39L42 40L43 40L43 41L42 41L42 42L41 42L41 43L40 43L40 45L41 45L41 47L43 47L43 48L40 48L40 50L42 50L42 51L43 51L43 50L44 50L44 49L45 49L45 48L46 48L46 47L47 47L47 46L49 46L49 44L50 44L50 46L51 46L51 48L52 48L52 49L53 49L53 48L52 48L52 47L53 47L53 46L51 46L51 44L52 44L52 42L51 42L51 43L50 43L50 41L49 41L49 38L48 38L48 37L50 37L50 38L51 38L51 36L50 36L50 35L52 35L52 37L53 37L53 38L52 38L52 39L50 39L50 40L52 40L52 39L53 39L53 38L54 38L54 39L55 39L55 40L53 40L53 41L54 41L54 42L53 42L53 43L54 43L54 44L58 44L58 45L57 45L57 46L59 46L59 48L56 48L56 49L57 49L57 50L58 50L58 49L59 49L59 51L58 51L58 52L59 52L59 53L58 53L58 54L59 54L59 56L58 56L58 55L57 55L57 54L55 54L55 56L58 56L58 57L57 57L57 58L59 58L59 56L60 56L60 54L59 54L59 53L60 53L60 52L59 52L59 51L61 51L61 50L62 50L62 47L63 47L63 46L61 46L61 48L60 48L60 45L59 45L59 44L60 44L60 43L61 43L61 40L59 40L59 41L57 41L57 38L55 38L55 37L54 37L54 36L55 36L55 32L54 32L54 33L53 33L53 32L52 32L52 33L53 33L53 34L51 34L51 33L49 33L49 32L47 32L47 31L48 31L48 29L49 29L49 31L50 31L50 29L49 29L49 28L48 28L48 29L47 29L47 28L45 28L45 27L49 27L49 26L50 26L50 27L51 27L51 29L52 29L52 31L53 31L53 29L52 29L52 27L54 27L54 28L55 28L55 29L54 29L54 31L55 31L55 29L57 29L57 30L56 30L56 32L57 32L57 34L56 34L56 35L57 35L57 34L59 34L59 33L58 33L58 32L57 32L57 31L58 31L58 30L59 30L59 29L57 29L57 28L58 28L58 27L57 27L57 28L55 28L55 26L56 26L56 25L55 25L55 23L53 23L53 22L51 22L51 21L49 21L49 20L50 20L50 16L49 16L49 15L48 15L48 20L46 20L46 18L47 18L47 14L48 14L48 13L47 13L47 14L46 14L46 16L41 16L41 17L40 17L40 18L41 18L41 17L42 17L42 20L40 20L40 21L39 21L39 18L38 18L38 17L39 17L39 15L37 15L37 13L36 13L36 14L35 14L35 15L31 15L31 16L30 16L30 18L29 18L29 17L28 17L28 16L29 16L29 15L30 15L30 13L31 13L31 14L32 14L32 13L31 13L31 12L32 12L32 11L30 11L30 10L29 10L29 9ZM35 9L35 11L36 11L36 9ZM28 10L28 12L30 12L30 11L29 11L29 10ZM48 10L48 11L49 11L49 10ZM65 10L65 12L66 12L66 11L67 11L67 10ZM58 12L58 13L59 13L59 14L61 14L61 13L60 13L60 12ZM25 13L25 14L23 14L23 16L22 16L22 14L18 14L18 15L17 15L17 16L15 16L15 17L20 17L20 15L21 15L21 17L23 17L23 18L22 18L22 20L21 20L21 18L20 18L20 19L19 19L19 20L21 20L21 22L19 22L19 21L18 21L18 18L15 18L15 19L16 19L16 20L17 20L17 21L18 21L18 23L19 23L19 25L18 25L18 24L17 24L17 25L18 25L18 27L19 27L19 28L20 28L20 27L21 27L21 28L22 28L22 30L21 30L21 29L20 29L20 30L19 30L19 29L18 29L18 28L17 28L17 26L16 26L16 29L18 29L18 30L19 30L19 34L20 34L20 33L21 33L21 35L18 35L18 36L20 36L20 37L19 37L19 38L20 38L20 37L22 37L22 38L24 38L24 37L25 37L25 38L26 38L26 36L27 36L27 37L28 37L28 38L29 38L29 39L26 39L26 40L25 40L25 41L26 41L26 40L29 40L29 41L30 41L30 42L32 42L32 41L30 41L30 40L29 40L29 39L31 39L31 40L33 40L33 41L35 41L35 45L36 45L36 43L38 43L38 42L39 42L39 41L38 41L38 42L36 42L36 41L37 41L37 40L34 40L34 39L35 39L35 38L36 38L36 39L37 39L37 38L38 38L38 37L39 37L39 36L38 36L38 35L39 35L39 34L37 34L37 37L35 37L35 38L33 38L33 37L32 37L32 38L33 38L33 39L31 39L31 38L30 38L30 36L32 36L32 35L29 35L29 34L28 34L28 33L29 33L29 32L28 32L28 31L24 31L24 29L25 29L25 30L28 30L28 28L31 28L31 27L30 27L30 23L31 23L31 22L32 22L32 24L31 24L31 26L33 26L33 25L34 25L34 27L35 27L35 26L36 26L36 25L35 25L35 24L34 24L34 23L36 23L36 21L35 21L35 20L36 20L36 19L34 19L34 21L33 21L33 22L32 22L32 19L33 19L33 17L32 17L32 16L31 16L31 18L30 18L30 19L31 19L31 21L30 21L30 23L29 23L29 22L27 22L27 21L29 21L29 18L27 18L27 19L26 19L26 18L25 18L25 19L26 19L26 20L25 20L25 21L26 21L26 22L27 22L27 23L26 23L26 24L25 24L25 25L26 25L26 26L25 26L25 28L24 28L24 27L23 27L23 28L22 28L22 27L21 27L21 26L24 26L24 22L23 22L23 23L22 23L22 20L23 20L23 21L24 21L24 17L23 17L23 16L25 16L25 17L26 17L26 16L25 16L25 15L27 15L27 16L28 16L28 14L29 14L29 13L28 13L28 14L27 14L27 13ZM55 14L55 15L57 15L57 14ZM35 15L35 16L34 16L34 18L37 18L37 20L38 20L38 18L37 18L37 17L38 17L38 16L37 16L37 15ZM6 16L6 17L7 17L7 16ZM36 16L36 17L37 17L37 16ZM43 17L43 18L44 18L44 19L45 19L45 17ZM6 18L6 19L7 19L7 18ZM51 18L51 19L52 19L52 21L53 21L53 20L54 20L54 18L53 18L53 19L52 19L52 18ZM56 18L56 19L57 19L57 18ZM0 19L0 20L1 20L1 19ZM60 19L60 20L61 20L61 19ZM43 20L43 21L44 21L44 22L45 22L45 20ZM55 20L55 21L54 21L54 22L56 22L56 20ZM57 20L57 21L58 21L58 20ZM34 21L34 22L35 22L35 21ZM47 21L47 22L46 22L46 23L45 23L45 25L46 25L46 26L47 26L47 24L49 24L49 25L50 25L50 24L51 24L51 25L52 25L52 24L51 24L51 23L49 23L49 22L48 22L48 21ZM6 22L6 23L7 23L7 22ZM37 22L37 23L41 23L41 22ZM42 22L42 24L43 24L43 25L44 25L44 23L43 23L43 22ZM47 22L47 23L46 23L46 24L47 24L47 23L48 23L48 22ZM2 23L2 24L3 24L3 23ZM20 23L20 24L21 24L21 23ZM60 23L60 24L59 24L59 26L60 26L60 27L59 27L59 28L60 28L60 27L61 27L61 26L62 26L62 27L63 27L63 25L62 25L62 24L61 24L61 23ZM6 24L6 25L7 25L7 24ZM26 24L26 25L27 25L27 26L28 26L28 27L27 27L27 28L25 28L25 29L27 29L27 28L28 28L28 27L29 27L29 26L28 26L28 24ZM32 24L32 25L33 25L33 24ZM39 24L39 25L40 25L40 27L42 27L42 28L38 28L38 30L39 30L39 33L40 33L40 31L44 31L44 32L41 32L41 33L43 33L43 34L42 34L42 35L41 35L41 34L40 34L40 36L43 36L43 38L44 38L44 39L45 39L45 41L48 41L48 42L45 42L45 43L46 43L46 44L44 44L44 43L41 43L41 44L43 44L43 45L45 45L45 46L43 46L43 47L44 47L44 48L43 48L43 49L44 49L44 48L45 48L45 47L46 47L46 45L47 45L47 44L48 44L48 42L49 42L49 41L48 41L48 39L47 39L47 37L48 37L48 33L47 33L47 34L46 34L46 35L45 35L45 32L46 32L46 31L44 31L44 30L45 30L45 29L43 29L43 30L42 30L42 28L43 28L43 27L45 27L45 26L41 26L41 25L40 25L40 24ZM53 24L53 25L54 25L54 24ZM20 25L20 26L21 26L21 25ZM37 26L37 27L38 27L38 26ZM51 26L51 27L52 27L52 26ZM10 27L10 28L11 28L11 27ZM23 28L23 29L24 29L24 28ZM32 28L32 29L29 29L29 30L31 30L31 32L32 32L32 30L34 30L34 31L33 31L33 32L35 32L35 31L36 31L36 29L37 29L37 28L36 28L36 29L35 29L35 28ZM7 29L7 30L5 30L5 31L7 31L7 30L8 30L8 31L9 31L9 30L8 30L8 29ZM13 29L13 31L15 31L15 29ZM39 29L39 30L41 30L41 29ZM20 30L20 31L21 31L21 30ZM22 30L22 35L21 35L21 36L22 36L22 37L23 37L23 36L22 36L22 35L23 35L23 33L24 33L24 34L25 34L25 33L24 33L24 31L23 31L23 30ZM62 30L62 31L63 31L63 30ZM16 31L16 33L18 33L18 32L17 32L17 31ZM37 31L37 33L38 33L38 31ZM5 33L5 36L8 36L8 33ZM12 33L12 34L13 34L13 33ZM26 33L26 35L27 35L27 36L28 36L28 37L29 37L29 35L27 35L27 33ZM33 33L33 36L36 36L36 33ZM61 33L61 36L64 36L64 33ZM3 34L3 35L4 35L4 34ZM6 34L6 35L7 35L7 34ZM34 34L34 35L35 35L35 34ZM49 34L49 35L50 35L50 34ZM53 34L53 35L54 35L54 34ZM62 34L62 35L63 35L63 34ZM65 34L65 36L66 36L66 35L67 35L67 34ZM1 35L1 36L2 36L2 35ZM24 35L24 36L25 36L25 35ZM43 35L43 36L44 36L44 38L45 38L45 39L46 39L46 36L47 36L47 35L46 35L46 36L45 36L45 35ZM68 36L68 38L69 38L69 36ZM6 37L6 38L8 38L8 37ZM0 38L0 40L1 40L1 41L0 41L0 44L1 44L1 41L2 41L2 40L1 40L1 38ZM15 39L15 40L17 40L17 39ZM19 39L19 41L20 41L20 40L21 40L21 39ZM23 39L23 40L22 40L22 41L23 41L23 40L24 40L24 39ZM16 41L16 43L18 43L18 42L17 42L17 41ZM68 41L68 44L69 44L69 41ZM54 42L54 43L57 43L57 42ZM59 42L59 43L60 43L60 42ZM6 43L6 44L5 44L5 45L3 45L3 47L6 47L6 48L7 48L7 47L6 47L6 46L5 46L5 45L6 45L6 44L7 44L7 43ZM33 43L33 44L34 44L34 43ZM61 44L61 45L62 45L62 44ZM65 44L65 46L66 46L66 44ZM10 46L10 47L9 47L9 49L10 49L10 50L8 50L8 49L6 49L6 50L7 50L7 51L6 51L6 52L7 52L7 53L6 53L6 54L7 54L7 53L8 53L8 51L10 51L10 50L11 50L11 51L12 51L12 52L13 52L13 51L14 51L14 50L15 50L15 49L13 49L13 47L11 47L11 46ZM36 46L36 47L38 47L38 46ZM10 47L10 48L11 48L11 47ZM17 47L17 48L18 48L18 47ZM19 47L19 49L18 49L18 50L19 50L19 52L18 52L18 53L19 53L19 54L20 54L20 53L21 53L21 52L20 52L20 51L21 51L21 50L19 50L19 49L21 49L21 48L20 48L20 47ZM65 47L65 48L64 48L64 50L65 50L65 51L66 51L66 50L68 50L68 49L67 49L67 48L68 48L68 47L67 47L67 48L66 48L66 47ZM23 48L23 49L24 49L24 48ZM65 48L65 49L66 49L66 48ZM60 49L60 50L61 50L61 49ZM12 50L12 51L13 51L13 50ZM15 51L15 52L14 52L14 53L12 53L12 55L10 55L10 56L8 56L8 55L9 55L9 54L10 54L10 52L9 52L9 54L8 54L8 55L6 55L6 56L8 56L8 57L6 57L6 58L8 58L8 59L9 59L9 58L8 58L8 57L10 57L10 56L11 56L11 57L13 57L13 58L12 58L12 59L11 59L11 58L10 58L10 59L11 59L11 60L13 60L13 61L12 61L12 62L11 62L11 61L10 61L10 63L11 63L11 64L12 64L12 65L11 65L11 66L12 66L12 65L13 65L13 64L14 64L14 63L13 63L13 62L14 62L14 60L15 60L15 59L14 59L14 58L15 58L15 55L13 55L13 54L15 54L15 53L16 53L16 51ZM64 52L64 53L65 53L65 55L68 55L68 52L66 52L66 53L65 53L65 52ZM22 53L22 54L23 54L23 53ZM61 53L61 54L62 54L62 55L63 55L63 54L62 54L62 53ZM66 53L66 54L67 54L67 53ZM12 55L12 56L13 56L13 55ZM22 55L22 56L23 56L23 57L22 57L22 58L23 58L23 57L24 57L24 59L23 59L23 60L25 60L25 58L26 58L26 57L25 57L25 56L23 56L23 55ZM26 55L26 56L27 56L27 55ZM2 56L2 57L3 57L3 56ZM52 56L52 58L53 58L53 57L54 57L54 58L55 58L55 59L54 59L54 60L56 60L56 61L57 61L57 62L58 62L58 61L57 61L57 60L56 60L56 58L55 58L55 57L54 57L54 56ZM65 56L65 57L66 57L66 58L65 58L65 60L66 60L66 58L67 58L67 56ZM35 58L35 59L36 59L36 58ZM13 59L13 60L14 60L14 59ZM19 59L19 60L18 60L18 61L20 61L20 62L21 62L21 61L20 61L20 59ZM21 59L21 60L22 60L22 59ZM43 59L43 60L44 60L44 59ZM3 60L3 61L5 61L5 60ZM33 61L33 64L36 64L36 61ZM61 61L61 64L64 64L64 61ZM34 62L34 63L35 63L35 62ZM62 62L62 63L63 63L63 62ZM65 62L65 63L66 63L66 62ZM12 63L12 64L13 64L13 63ZM21 63L21 64L22 64L22 63ZM58 63L58 64L59 64L59 63ZM47 64L47 66L49 66L49 65L48 65L48 64ZM44 65L44 67L45 67L45 65ZM55 65L55 66L56 66L56 65ZM61 65L61 66L62 66L62 65ZM64 65L64 66L65 66L65 65ZM21 66L21 67L22 67L22 66ZM42 66L42 67L43 67L43 66ZM48 67L48 68L50 68L50 67ZM13 68L13 69L15 69L15 68ZM0 0L0 7L7 7L7 0ZM1 1L1 6L6 6L6 1ZM2 2L2 5L5 5L5 2ZM62 0L62 7L69 7L69 0ZM63 1L63 6L68 6L68 1ZM64 2L64 5L67 5L67 2ZM0 62L0 69L7 69L7 62ZM1 63L1 68L6 68L6 63ZM2 64L2 67L5 67L5 64Z" fill="#000000"/></g></g></svg>
