<?xml version="1.0" encoding="UTF-8"?>
<svg xmlns="http://www.w3.org/2000/svg" version="1.1" width="300" height="300" viewBox="0 0 300 300"><rect x="0" y="0" width="300" height="300" fill="#ffffff"/><g transform="scale(4.348)"><g transform="translate(0,0)"><path fill-rule="evenodd" d="M11 0L11 1L8 1L8 2L13 2L13 0ZM14 0L14 1L16 1L16 2L18 2L18 3L15 3L15 2L14 2L14 3L13 3L13 4L11 4L11 3L10 3L10 5L8 5L8 7L9 7L9 6L10 6L10 8L6 8L6 9L7 9L7 10L5 10L5 8L0 8L0 9L1 9L1 10L2 10L2 11L0 11L0 12L2 12L2 11L3 11L3 13L4 13L4 12L6 12L6 13L5 13L5 14L4 14L4 15L3 15L3 14L2 14L2 13L0 13L0 16L1 16L1 19L2 19L2 20L3 20L3 21L4 21L4 22L3 22L3 23L5 23L5 21L7 21L7 22L6 22L6 23L7 23L7 24L6 24L6 25L8 25L8 24L9 24L9 25L10 25L10 26L9 26L9 27L10 27L10 26L11 26L11 28L9 28L9 29L8 29L8 30L9 30L9 31L7 31L7 30L6 30L6 29L7 29L7 28L8 28L8 27L7 27L7 26L6 26L6 27L4 27L4 28L3 28L3 27L2 27L2 25L1 25L1 24L0 24L0 26L1 26L1 27L2 27L2 28L3 28L3 29L2 29L2 30L0 30L0 32L1 32L1 31L4 31L4 32L2 32L2 34L3 34L3 33L4 33L4 35L2 35L2 36L1 36L1 35L0 35L0 38L1 38L1 39L0 39L0 42L1 42L1 44L0 44L0 45L1 45L1 46L0 46L0 49L1 49L1 50L2 50L2 51L1 51L1 52L0 52L0 55L4 55L4 56L2 56L2 57L0 57L0 61L1 61L1 58L2 58L2 59L3 59L3 58L4 58L4 59L7 59L7 58L6 58L6 57L7 57L7 56L8 56L8 59L10 59L10 62L12 62L12 61L11 61L11 60L13 60L13 62L14 62L14 61L15 61L15 59L16 59L16 60L17 60L17 62L15 62L15 64L18 64L18 65L17 65L17 66L16 66L16 67L15 67L15 65L13 65L13 67L12 67L12 66L11 66L11 65L12 65L12 64L10 64L10 63L9 63L9 60L8 60L8 63L9 63L9 64L8 64L8 69L10 69L10 68L11 68L11 69L14 69L14 67L15 67L15 68L16 68L16 69L22 69L22 68L23 68L23 69L26 69L26 68L27 68L27 67L28 67L28 68L29 68L29 69L32 69L32 67L33 67L33 66L34 66L34 67L35 67L35 68L36 68L36 69L38 69L38 68L37 68L37 67L39 67L39 66L37 66L37 65L38 65L38 64L41 64L41 66L40 66L40 67L41 67L41 68L43 68L43 69L44 69L44 68L48 68L48 69L49 69L49 68L48 68L48 66L50 66L50 67L51 67L51 68L52 68L52 67L53 67L53 69L56 69L56 68L54 68L54 67L56 67L56 66L57 66L57 67L58 67L58 66L57 66L57 65L59 65L59 67L61 67L61 68L60 68L60 69L65 69L65 68L67 68L67 69L68 69L68 68L67 68L67 67L65 67L65 68L62 68L62 67L61 67L61 66L62 66L62 65L64 65L64 66L66 66L66 65L65 65L65 64L67 64L67 65L68 65L68 62L67 62L67 59L68 59L68 57L67 57L67 56L68 56L68 54L69 54L69 53L66 53L66 54L67 54L67 55L60 55L60 54L61 54L61 53L62 53L62 52L63 52L63 53L64 53L64 52L63 52L63 51L61 51L61 50L62 50L62 48L64 48L64 47L65 47L65 48L67 48L67 49L65 49L65 50L66 50L66 51L65 51L65 52L68 52L68 50L69 50L69 49L68 49L68 48L69 48L69 47L68 47L68 46L69 46L69 45L68 45L68 44L69 44L69 43L68 43L68 42L67 42L67 41L66 41L66 40L67 40L67 39L68 39L68 36L69 36L69 35L68 35L68 34L69 34L69 32L68 32L68 34L67 34L67 33L66 33L66 32L67 32L67 31L68 31L68 28L69 28L69 27L67 27L67 26L69 26L69 24L68 24L68 22L69 22L69 21L68 21L68 18L69 18L69 15L68 15L68 10L67 10L67 11L64 11L64 10L65 10L65 9L66 9L66 8L65 8L65 9L64 9L64 8L63 8L63 10L61 10L61 9L62 9L62 8L61 8L61 9L60 9L60 7L61 7L61 6L60 6L60 7L59 7L59 4L58 4L58 5L56 5L56 7L55 7L55 4L56 4L56 2L55 2L55 0L53 0L53 1L54 1L54 2L53 2L53 4L51 4L51 5L50 5L50 4L49 4L49 3L50 3L50 2L49 2L49 3L48 3L48 1L47 1L47 3L48 3L48 4L47 4L47 5L48 5L48 7L47 7L47 6L46 6L46 5L44 5L44 3L45 3L45 4L46 4L46 3L45 3L45 2L44 2L44 3L43 3L43 0L39 0L39 1L38 1L38 0L37 0L37 1L36 1L36 0L35 0L35 1L32 1L32 0L31 0L31 1L32 1L32 2L31 2L31 3L29 3L29 1L30 1L30 0L28 0L28 1L26 1L26 3L25 3L25 4L24 4L24 3L23 3L23 2L21 2L21 3L19 3L19 2L20 2L20 1L19 1L19 0ZM21 0L21 1L22 1L22 0ZM23 0L23 1L25 1L25 0ZM44 0L44 1L45 1L45 0ZM49 0L49 1L50 1L50 0ZM51 0L51 3L52 3L52 0ZM56 0L56 1L57 1L57 3L59 3L59 2L58 2L58 1L61 1L61 0L58 0L58 1L57 1L57 0ZM35 1L35 2L32 2L32 4L33 4L33 3L34 3L34 4L35 4L35 2L36 2L36 1ZM37 1L37 3L36 3L36 4L37 4L37 5L38 5L38 6L37 6L37 7L38 7L38 8L39 8L39 9L38 9L38 10L36 10L36 9L34 9L34 10L32 10L32 9L31 9L31 8L32 8L32 5L31 5L31 4L29 4L29 3L28 3L28 2L27 2L27 3L26 3L26 4L25 4L25 5L24 5L24 4L23 4L23 3L21 3L21 4L17 4L17 5L20 5L20 6L19 6L19 7L18 7L18 6L17 6L17 7L16 7L16 4L15 4L15 3L14 3L14 5L13 5L13 7L12 7L12 6L11 6L11 8L10 8L10 9L8 9L8 10L7 10L7 11L6 11L6 12L7 12L7 11L8 11L8 12L11 12L11 11L12 11L12 14L11 14L11 13L9 13L9 14L10 14L10 15L13 15L13 16L12 16L12 17L15 17L15 18L16 18L16 17L15 17L15 16L14 16L14 15L15 15L15 14L16 14L16 15L17 15L17 16L18 16L18 17L17 17L17 19L16 19L16 20L15 20L15 21L16 21L16 22L17 22L17 21L18 21L18 23L15 23L15 22L14 22L14 21L13 21L13 20L14 20L14 18L13 18L13 20L12 20L12 19L11 19L11 18L10 18L10 17L11 17L11 16L10 16L10 17L9 17L9 15L8 15L8 14L7 14L7 13L6 13L6 14L7 14L7 15L4 15L4 16L3 16L3 18L2 18L2 19L3 19L3 20L7 20L7 19L11 19L11 20L9 20L9 22L8 22L8 23L9 23L9 22L10 22L10 24L11 24L11 25L14 25L14 26L13 26L13 27L12 27L12 29L13 29L13 30L16 30L16 31L14 31L14 32L13 32L13 31L11 31L11 30L10 30L10 31L9 31L9 32L10 32L10 34L11 34L11 37L12 37L12 38L11 38L11 39L10 39L10 38L9 38L9 37L8 37L8 38L7 38L7 37L6 37L6 38L4 38L4 36L2 36L2 38L4 38L4 39L5 39L5 40L3 40L3 39L2 39L2 40L3 40L3 41L2 41L2 42L3 42L3 41L4 41L4 42L5 42L5 43L4 43L4 44L3 44L3 43L2 43L2 44L1 44L1 45L2 45L2 46L1 46L1 48L2 48L2 50L4 50L4 51L5 51L5 53L6 53L6 54L4 54L4 53L3 53L3 51L2 51L2 53L1 53L1 54L4 54L4 55L5 55L5 56L4 56L4 57L6 57L6 56L7 56L7 55L8 55L8 56L9 56L9 57L10 57L10 56L13 56L13 55L14 55L14 57L15 57L15 58L16 58L16 57L17 57L17 56L18 56L18 55L19 55L19 56L20 56L20 58L21 58L21 59L22 59L22 58L24 58L24 57L22 57L22 56L21 56L21 55L22 55L22 54L21 54L21 53L23 53L23 54L24 54L24 55L25 55L25 56L26 56L26 57L27 57L27 58L29 58L29 57L30 57L30 56L29 56L29 55L30 55L30 54L29 54L29 53L28 53L28 52L31 52L31 57L33 57L33 58L30 58L30 59L29 59L29 60L31 60L31 59L32 59L32 60L35 60L35 59L33 59L33 58L35 58L35 57L36 57L36 59L37 59L37 60L39 60L39 57L41 57L41 56L39 56L39 54L36 54L36 55L35 55L35 53L36 53L36 52L35 52L35 51L36 51L36 50L37 50L37 47L38 47L38 48L39 48L39 49L38 49L38 51L39 51L39 53L43 53L43 56L42 56L42 57L43 57L43 60L42 60L42 58L41 58L41 59L40 59L40 62L39 62L39 61L38 61L38 62L37 62L37 64L38 64L38 63L41 63L41 64L44 64L44 66L41 66L41 67L43 67L43 68L44 68L44 66L45 66L45 67L46 67L46 66L48 66L48 65L47 65L47 64L49 64L49 65L50 65L50 66L53 66L53 65L54 65L54 64L51 64L51 62L54 62L54 63L55 63L55 64L56 64L56 65L57 65L57 64L58 64L58 62L59 62L59 65L60 65L60 60L62 60L62 59L63 59L63 60L65 60L65 59L67 59L67 57L66 57L66 56L62 56L62 57L61 57L61 56L58 56L58 57L57 57L57 56L56 56L56 53L57 53L57 54L58 54L58 55L59 55L59 53L60 53L60 52L61 52L61 51L59 51L59 50L60 50L60 49L61 49L61 48L62 48L62 47L63 47L63 46L65 46L65 47L66 47L66 44L63 44L63 42L65 42L65 43L66 43L66 41L63 41L63 42L62 42L62 44L61 44L61 42L59 42L59 41L60 41L60 40L62 40L62 39L65 39L65 40L66 40L66 38L67 38L67 36L68 36L68 35L67 35L67 34L66 34L66 33L65 33L65 34L66 34L66 35L67 35L67 36L65 36L65 37L64 37L64 38L62 38L62 37L57 37L57 36L60 36L60 35L59 35L59 32L61 32L61 30L59 30L59 29L62 29L62 31L63 31L63 32L64 32L64 31L67 31L67 28L66 28L66 27L65 27L65 28L64 28L64 27L63 27L63 28L64 28L64 29L62 29L62 26L63 26L63 24L64 24L64 25L65 25L65 26L67 26L67 25L68 25L68 24L67 24L67 25L66 25L66 24L64 24L64 23L63 23L63 21L65 21L65 20L66 20L66 21L67 21L67 22L66 22L66 23L67 23L67 22L68 22L68 21L67 21L67 20L66 20L66 19L67 19L67 18L66 18L66 16L65 16L65 14L67 14L67 13L66 13L66 12L64 12L64 11L63 11L63 12L62 12L62 11L60 11L60 13L59 13L59 11L58 11L58 10L60 10L60 9L58 9L58 8L59 8L59 7L58 7L58 6L57 6L57 7L58 7L58 8L56 8L56 10L53 10L53 9L55 9L55 8L51 8L51 9L50 9L50 10L47 10L47 7L46 7L46 6L45 6L45 7L44 7L44 5L41 5L41 2L42 2L42 1L41 1L41 2L38 2L38 1ZM54 2L54 3L55 3L55 2ZM8 3L8 4L9 4L9 3ZM27 3L27 4L28 4L28 3ZM37 3L37 4L38 4L38 3ZM42 3L42 4L43 4L43 3ZM60 3L60 5L61 5L61 3ZM21 4L21 6L20 6L20 7L19 7L19 8L17 8L17 9L16 9L16 7L15 7L15 6L14 6L14 8L11 8L11 10L12 10L12 11L13 11L13 12L14 12L14 10L15 10L15 9L16 9L16 10L17 10L17 9L19 9L19 10L18 10L18 12L17 12L17 11L16 11L16 12L17 12L17 15L18 15L18 14L19 14L19 15L21 15L21 14L22 14L22 15L23 15L23 18L21 18L21 17L18 17L18 18L20 18L20 19L18 19L18 21L19 21L19 22L20 22L20 20L21 20L21 19L23 19L23 20L24 20L24 19L25 19L25 21L23 21L23 22L22 22L22 21L21 21L21 22L22 22L22 23L21 23L21 24L20 24L20 23L18 23L18 24L17 24L17 25L16 25L16 24L15 24L15 25L16 25L16 26L14 26L14 27L13 27L13 29L14 29L14 28L15 28L15 29L16 29L16 28L17 28L17 30L18 30L18 31L17 31L17 32L16 32L16 33L17 33L17 34L15 34L15 32L14 32L14 34L15 34L15 35L17 35L17 34L18 34L18 36L17 36L17 38L18 38L18 39L19 39L19 40L17 40L17 39L16 39L16 38L15 38L15 37L14 37L14 35L13 35L13 36L12 36L12 37L13 37L13 38L15 38L15 39L11 39L11 41L9 41L9 40L10 40L10 39L9 39L9 38L8 38L8 39L7 39L7 38L6 38L6 39L7 39L7 40L5 40L5 42L6 42L6 43L7 43L7 44L4 44L4 46L2 46L2 48L3 48L3 49L5 49L5 50L6 50L6 51L7 51L7 50L6 50L6 49L8 49L8 48L10 48L10 49L9 49L9 50L8 50L8 51L9 51L9 52L8 52L8 53L9 53L9 52L10 52L10 53L11 53L11 54L12 54L12 55L13 55L13 54L12 54L12 53L16 53L16 52L17 52L17 54L20 54L20 53L19 53L19 52L22 52L22 51L21 51L21 50L22 50L22 49L18 49L18 48L17 48L17 47L18 47L18 46L15 46L15 48L14 48L14 49L12 49L12 48L11 48L11 45L12 45L12 44L14 44L14 45L15 45L15 44L16 44L16 43L15 43L15 44L14 44L14 43L12 43L12 41L13 41L13 42L14 42L14 41L13 41L13 40L15 40L15 39L16 39L16 40L17 40L17 42L18 42L18 41L19 41L19 42L20 42L20 43L19 43L19 44L17 44L17 45L19 45L19 46L20 46L20 45L21 45L21 48L22 48L22 47L25 47L25 48L26 48L26 47L25 47L25 46L27 46L27 48L28 48L28 47L30 47L30 46L28 46L28 45L34 45L34 46L32 46L32 47L35 47L35 48L36 48L36 47L37 47L37 46L38 46L38 45L39 45L39 46L40 46L40 47L39 47L39 48L40 48L40 47L41 47L41 48L42 48L42 49L41 49L41 50L39 50L39 51L41 51L41 52L42 52L42 51L44 51L44 52L43 52L43 53L44 53L44 56L43 56L43 57L44 57L44 56L46 56L46 57L47 57L47 58L48 58L48 59L49 59L49 58L50 58L50 60L45 60L45 59L46 59L46 58L45 58L45 59L44 59L44 60L43 60L43 61L42 61L42 60L41 60L41 62L42 62L42 63L43 63L43 61L44 61L44 62L46 62L46 63L47 63L47 62L50 62L50 61L51 61L51 58L50 58L50 57L51 57L51 56L53 56L53 54L55 54L55 53L56 53L56 52L55 52L55 51L54 51L54 52L55 52L55 53L53 53L53 54L52 54L52 55L51 55L51 54L50 54L50 52L51 52L51 51L52 51L52 50L56 50L56 51L57 51L57 52L58 52L58 53L59 53L59 52L58 52L58 50L57 50L57 49L56 49L56 47L57 47L57 45L59 45L59 46L61 46L61 47L62 47L62 45L63 45L63 44L62 44L62 45L59 45L59 44L58 44L58 43L59 43L59 42L57 42L57 43L56 43L56 44L55 44L55 43L54 43L54 42L56 42L56 40L57 40L57 41L59 41L59 40L58 40L58 39L56 39L56 38L57 38L57 37L56 37L56 36L55 36L55 35L54 35L54 34L55 34L55 33L56 33L56 34L57 34L57 35L58 35L58 34L57 34L57 33L58 33L58 32L57 32L57 30L58 30L58 31L59 31L59 30L58 30L58 29L57 29L57 30L56 30L56 27L57 27L57 28L61 28L61 27L60 27L60 26L62 26L62 23L61 23L61 22L62 22L62 21L63 21L63 20L62 20L62 21L59 21L59 23L60 23L60 25L59 25L59 24L58 24L58 22L57 22L57 21L58 21L58 20L57 20L57 21L56 21L56 19L57 19L57 17L58 17L58 16L57 16L57 13L58 13L58 11L57 11L57 10L58 10L58 9L57 9L57 10L56 10L56 12L55 12L55 11L54 11L54 12L55 12L55 13L53 13L53 14L52 14L52 16L51 16L51 14L50 14L50 12L51 12L51 11L52 11L52 12L53 12L53 10L50 10L50 11L49 11L49 12L47 12L47 14L50 14L50 15L49 15L49 16L45 16L45 15L44 15L44 16L42 16L42 17L41 17L41 18L39 18L39 19L37 19L37 18L38 18L38 16L40 16L40 15L42 15L42 14L43 14L43 13L44 13L44 12L45 12L45 11L43 11L43 13L42 13L42 14L41 14L41 12L42 12L42 10L45 10L45 9L46 9L46 7L45 7L45 9L44 9L44 8L43 8L43 9L41 9L41 12L40 12L40 11L39 11L39 12L38 12L38 13L36 13L36 12L34 12L34 11L33 11L33 12L34 12L34 13L33 13L33 14L32 14L32 15L31 15L31 14L30 14L30 13L32 13L32 12L30 12L30 13L29 13L29 14L30 14L30 15L31 15L31 16L29 16L29 17L32 17L32 18L33 18L33 19L34 19L34 17L32 17L32 15L33 15L33 16L34 16L34 15L33 15L33 14L34 14L34 13L36 13L36 14L35 14L35 15L37 15L37 18L36 18L36 17L35 17L35 21L34 21L34 20L32 20L32 19L31 19L31 18L29 18L29 20L28 20L28 19L27 19L27 21L26 21L26 17L25 17L25 16L26 16L26 15L24 15L24 14L27 14L27 13L26 13L26 10L27 10L27 12L29 12L29 11L28 11L28 10L27 10L27 9L26 9L26 8L29 8L29 9L30 9L30 11L32 11L32 10L31 10L31 9L30 9L30 8L29 8L29 6L30 6L30 7L31 7L31 6L30 6L30 5L27 5L27 6L26 6L26 8L25 8L25 6L24 6L24 5L23 5L23 4ZM39 4L39 5L40 5L40 7L39 7L39 6L38 6L38 7L39 7L39 8L40 8L40 7L41 7L41 5L40 5L40 4ZM22 5L22 6L21 6L21 7L20 7L20 14L21 14L21 13L24 13L24 12L25 12L25 10L26 10L26 9L24 9L24 6L23 6L23 5ZM33 5L33 8L36 8L36 5ZM49 5L49 8L50 8L50 5ZM52 5L52 6L51 6L51 7L52 7L52 6L53 6L53 7L54 7L54 5ZM22 6L22 7L23 7L23 6ZM27 6L27 7L28 7L28 6ZM34 6L34 7L35 7L35 6ZM42 6L42 7L43 7L43 6ZM21 8L21 9L22 9L22 8ZM67 8L67 9L68 9L68 8ZM2 9L2 10L3 10L3 11L5 11L5 10L3 10L3 9ZM12 9L12 10L13 10L13 9ZM23 9L23 10L24 10L24 9ZM39 9L39 10L40 10L40 9ZM8 10L8 11L9 11L9 10ZM21 10L21 11L22 11L22 10ZM35 10L35 11L36 11L36 10ZM23 11L23 12L24 12L24 11ZM39 12L39 13L38 13L38 15L40 15L40 14L39 14L39 13L40 13L40 12ZM56 12L56 13L55 13L55 14L53 14L53 15L55 15L55 16L54 16L54 17L53 17L53 16L52 16L52 17L50 17L50 16L49 16L49 17L48 17L48 18L47 18L47 17L45 17L45 16L44 16L44 17L43 17L43 20L42 20L42 19L40 19L40 20L39 20L39 21L43 21L43 20L44 20L44 22L41 22L41 23L39 23L39 22L37 22L37 23L34 23L34 22L32 22L32 24L31 24L31 25L32 25L32 24L33 24L33 26L31 26L31 27L30 27L30 26L29 26L29 25L30 25L30 24L29 24L29 25L27 25L27 24L28 24L28 23L30 23L30 22L31 22L31 21L32 21L32 20L31 20L31 19L30 19L30 20L29 20L29 21L27 21L27 22L24 22L24 24L26 24L26 25L25 25L25 26L26 26L26 27L28 27L28 28L29 28L29 27L30 27L30 28L31 28L31 29L27 29L27 28L26 28L26 30L27 30L27 31L28 31L28 33L25 33L25 32L26 32L26 31L24 31L24 32L23 32L23 30L22 30L22 29L23 29L23 28L24 28L24 27L23 27L23 28L22 28L22 27L21 27L21 29L20 29L20 26L21 26L21 25L22 25L22 26L24 26L24 25L22 25L22 24L21 24L21 25L20 25L20 26L17 26L17 27L19 27L19 29L18 29L18 30L19 30L19 31L20 31L20 30L21 30L21 31L22 31L22 32L20 32L20 33L19 33L19 34L20 34L20 35L19 35L19 37L20 37L20 38L19 38L19 39L20 39L20 38L21 38L21 37L22 37L22 39L21 39L21 40L19 40L19 41L20 41L20 42L21 42L21 43L20 43L20 44L19 44L19 45L20 45L20 44L21 44L21 45L22 45L22 46L23 46L23 45L24 45L24 44L25 44L25 43L26 43L26 45L28 45L28 44L30 44L30 43L32 43L32 44L33 44L33 43L32 43L32 41L33 41L33 42L34 42L34 45L35 45L35 42L36 42L36 43L38 43L38 44L36 44L36 45L38 45L38 44L39 44L39 45L40 45L40 44L41 44L41 43L40 43L40 41L41 41L41 40L44 40L44 42L43 42L43 44L44 44L44 45L43 45L43 46L42 46L42 45L41 45L41 46L42 46L42 48L43 48L43 46L44 46L44 49L43 49L43 50L44 50L44 49L45 49L45 52L44 52L44 53L45 53L45 54L46 54L46 56L47 56L47 57L48 57L48 56L49 56L49 57L50 57L50 56L49 56L49 55L48 55L48 54L49 54L49 53L48 53L48 54L47 54L47 53L45 53L45 52L46 52L46 51L47 51L47 52L49 52L49 51L51 51L51 49L50 49L50 48L52 48L52 49L53 49L53 48L52 48L52 47L50 47L50 46L54 46L54 47L56 47L56 45L57 45L57 44L56 44L56 45L55 45L55 46L54 46L54 45L53 45L53 44L54 44L54 43L53 43L53 44L51 44L51 43L52 43L52 42L53 42L53 41L55 41L55 40L56 40L56 39L55 39L55 40L51 40L51 41L50 41L50 42L49 42L49 41L47 41L47 40L50 40L50 38L51 38L51 39L53 39L53 38L52 38L52 37L54 37L54 36L53 36L53 34L52 34L52 36L50 36L50 35L51 35L51 33L53 33L53 32L56 32L56 33L57 33L57 32L56 32L56 31L55 31L55 30L52 30L52 29L54 29L54 28L55 28L55 27L54 27L54 26L53 26L53 25L54 25L54 24L53 24L53 23L52 23L52 22L53 22L53 20L52 20L52 19L51 19L51 20L52 20L52 21L50 21L50 23L49 23L49 21L46 21L46 20L47 20L47 19L48 19L48 18L52 18L52 17L53 17L53 18L54 18L54 20L55 20L55 19L56 19L56 18L54 18L54 17L55 17L55 16L56 16L56 17L57 17L57 16L56 16L56 13L57 13L57 12ZM61 12L61 13L60 13L60 14L59 14L59 20L61 20L61 19L60 19L60 18L62 18L62 19L63 19L63 18L65 18L65 19L66 19L66 18L65 18L65 17L63 17L63 18L62 18L62 16L64 16L64 15L63 15L63 14L64 14L64 12L63 12L63 14L62 14L62 12ZM13 13L13 14L15 14L15 13ZM1 14L1 15L2 15L2 14ZM60 14L60 15L61 15L61 16L62 16L62 15L61 15L61 14ZM7 15L7 16L6 16L6 17L8 17L8 15ZM27 15L27 16L28 16L28 15ZM67 15L67 17L68 17L68 15ZM4 16L4 19L7 19L7 18L5 18L5 16ZM27 17L27 18L28 18L28 17ZM23 18L23 19L24 19L24 18ZM44 18L44 19L45 19L45 18ZM36 19L36 21L35 21L35 22L36 22L36 21L38 21L38 20L37 20L37 19ZM49 19L49 20L50 20L50 19ZM0 20L0 23L2 23L2 22L1 22L1 20ZM30 20L30 21L29 21L29 22L30 22L30 21L31 21L31 20ZM10 21L10 22L12 22L12 21ZM55 21L55 22L56 22L56 21ZM44 22L44 23L45 23L45 24L46 24L46 25L47 25L47 26L48 26L48 27L49 27L49 26L50 26L50 29L49 29L49 28L47 28L47 30L46 30L46 28L45 28L45 27L46 27L46 26L43 26L43 25L44 25L44 24L43 24L43 23L41 23L41 24L42 24L42 25L41 25L41 26L38 26L38 25L39 25L39 23L38 23L38 25L35 25L35 24L34 24L34 23L33 23L33 24L34 24L34 25L35 25L35 26L36 26L36 27L35 27L35 28L36 28L36 29L34 29L34 30L33 30L33 27L34 27L34 26L33 26L33 27L31 27L31 28L32 28L32 29L31 29L31 30L30 30L30 31L31 31L31 32L29 32L29 33L28 33L28 34L26 34L26 35L28 35L28 36L27 36L27 37L28 37L28 36L29 36L29 38L26 38L26 39L25 39L25 37L26 37L26 36L24 36L24 37L23 37L23 39L25 39L25 40L24 40L24 41L23 41L23 42L24 42L24 41L25 41L25 42L26 42L26 43L27 43L27 44L28 44L28 43L29 43L29 42L28 42L28 41L30 41L30 42L31 42L31 41L30 41L30 40L28 40L28 39L30 39L30 38L32 38L32 39L31 39L31 40L33 40L33 41L34 41L34 42L35 42L35 41L34 41L34 40L36 40L36 42L38 42L38 43L39 43L39 44L40 44L40 43L39 43L39 42L38 42L38 41L39 41L39 40L41 40L41 39L39 39L39 40L38 40L38 38L37 38L37 39L33 39L33 38L34 38L34 37L35 37L35 38L36 38L36 37L38 37L38 36L37 36L37 34L38 34L38 33L39 33L39 32L43 32L43 33L40 33L40 35L39 35L39 36L40 36L40 35L41 35L41 36L42 36L42 35L41 35L41 34L43 34L43 33L44 33L44 36L43 36L43 37L39 37L39 38L42 38L42 39L45 39L45 40L47 40L47 38L48 38L48 39L49 39L49 38L50 38L50 36L45 36L45 33L48 33L48 34L47 34L47 35L50 35L50 33L51 33L51 32L53 32L53 31L52 31L52 30L51 30L51 32L50 32L50 33L49 33L49 31L50 31L50 29L51 29L51 28L54 28L54 27L53 27L53 26L50 26L50 25L49 25L49 24L48 24L48 22L47 22L47 24L46 24L46 22ZM11 23L11 24L12 24L12 23ZM13 23L13 24L14 24L14 23ZM26 23L26 24L27 24L27 23ZM50 23L50 24L51 24L51 23ZM55 23L55 24L56 24L56 25L55 25L55 26L58 26L58 27L59 27L59 25L58 25L58 24L57 24L57 23ZM3 24L3 26L4 26L4 25L5 25L5 24ZM47 24L47 25L48 25L48 26L49 26L49 25L48 25L48 24ZM26 25L26 26L27 26L27 25ZM28 26L28 27L29 27L29 26ZM6 27L6 28L7 28L7 27ZM15 27L15 28L16 28L16 27ZM38 27L38 28L37 28L37 29L36 29L36 30L37 30L37 29L38 29L38 31L39 31L39 30L40 30L40 31L43 31L43 32L44 32L44 33L45 33L45 32L44 32L44 31L46 31L46 32L47 32L47 31L46 31L46 30L45 30L45 28L44 28L44 31L43 31L43 30L42 30L42 27ZM0 28L0 29L1 29L1 28ZM38 28L38 29L40 29L40 28ZM65 28L65 29L66 29L66 28ZM19 29L19 30L20 30L20 29ZM48 29L48 30L49 30L49 29ZM4 30L4 31L5 31L5 30ZM32 30L32 32L31 32L31 33L29 33L29 36L30 36L30 34L31 34L31 35L32 35L32 34L31 34L31 33L32 33L32 32L34 32L34 31L33 31L33 30ZM6 31L6 32L7 32L7 31ZM35 31L35 32L37 32L37 33L38 33L38 32L37 32L37 31ZM11 32L11 34L12 34L12 33L13 33L13 32ZM17 32L17 33L18 33L18 32ZM5 33L5 36L8 36L8 33ZM21 33L21 34L22 34L22 35L21 35L21 36L23 36L23 34L25 34L25 33ZM33 33L33 36L36 36L36 33ZM61 33L61 36L64 36L64 33ZM6 34L6 35L7 35L7 34ZM34 34L34 35L35 35L35 34ZM62 34L62 35L63 35L63 34ZM31 36L31 37L32 37L32 36ZM44 36L44 37L45 37L45 38L47 38L47 37L45 37L45 36ZM48 37L48 38L49 38L49 37ZM55 37L55 38L56 38L56 37ZM65 37L65 38L66 38L66 37ZM59 38L59 39L60 39L60 38ZM61 38L61 39L62 39L62 38ZM21 40L21 41L22 41L22 40ZM26 40L26 42L27 42L27 41L28 41L28 40ZM68 40L68 41L69 41L69 40ZM6 41L6 42L8 42L8 44L7 44L7 45L6 45L6 46L8 46L8 45L11 45L11 44L12 44L12 43L10 43L10 42L9 42L9 41ZM15 41L15 42L16 42L16 41ZM51 41L51 42L52 42L52 41ZM44 42L44 43L45 43L45 45L47 45L47 46L50 46L50 45L51 45L51 44L50 44L50 43L49 43L49 42L48 42L48 43L47 43L47 42L46 42L46 43L45 43L45 42ZM21 43L21 44L24 44L24 43ZM46 43L46 44L47 44L47 43ZM48 43L48 44L49 44L49 45L50 45L50 44L49 44L49 43ZM67 43L67 44L68 44L68 43ZM4 46L4 47L3 47L3 48L4 48L4 47L5 47L5 46ZM9 46L9 47L10 47L10 46ZM13 46L13 47L14 47L14 46ZM35 46L35 47L36 47L36 46ZM6 47L6 48L5 48L5 49L6 49L6 48L8 48L8 47ZM45 47L45 49L46 49L46 47ZM47 47L47 49L48 49L48 50L50 50L50 49L49 49L49 48L50 48L50 47L49 47L49 48L48 48L48 47ZM59 47L59 48L60 48L60 47ZM16 48L16 49L15 49L15 50L14 50L14 51L13 51L13 50L12 50L12 49L11 49L11 50L10 50L10 51L13 51L13 52L15 52L15 50L16 50L16 51L17 51L17 52L19 52L19 51L20 51L20 50L19 50L19 51L18 51L18 49L17 49L17 48ZM23 48L23 51L25 51L25 53L24 53L24 52L23 52L23 53L24 53L24 54L25 54L25 55L26 55L26 56L27 56L27 57L29 57L29 56L28 56L28 55L26 55L26 52L28 52L28 51L27 51L27 50L28 50L28 49L27 49L27 50L26 50L26 49L24 49L24 48ZM29 48L29 49L30 49L30 50L32 50L32 55L33 55L33 53L34 53L34 52L33 52L33 51L34 51L34 50L33 50L33 48L32 48L32 49L31 49L31 48ZM35 49L35 50L36 50L36 49ZM41 50L41 51L42 51L42 50ZM6 52L6 53L7 53L7 52ZM11 52L11 53L12 53L12 52ZM37 52L37 53L38 53L38 52ZM27 53L27 54L28 54L28 53ZM6 54L6 55L7 55L7 54ZM9 54L9 55L10 55L10 54ZM15 54L15 57L16 57L16 54ZM40 54L40 55L42 55L42 54ZM36 55L36 57L37 57L37 58L38 58L38 56L37 56L37 55ZM47 55L47 56L48 56L48 55ZM54 55L54 57L52 57L52 58L53 58L53 59L54 59L54 62L58 62L58 61L56 61L56 58L55 58L55 57L56 57L56 56L55 56L55 55ZM11 57L11 58L10 58L10 59L12 59L12 58L13 58L13 57ZM21 57L21 58L22 58L22 57ZM59 57L59 58L60 58L60 57ZM65 57L65 58L66 58L66 57ZM17 58L17 59L18 59L18 60L19 60L19 59L18 59L18 58ZM25 58L25 60L24 60L24 59L23 59L23 60L21 60L21 61L20 61L20 62L19 62L19 61L18 61L18 62L17 62L17 63L18 63L18 62L19 62L19 63L21 63L21 64L20 64L20 65L19 65L19 66L17 66L17 67L16 67L16 68L18 68L18 67L19 67L19 68L22 68L22 67L23 67L23 68L25 68L25 67L27 67L27 66L28 66L28 65L29 65L29 63L28 63L28 62L30 62L30 63L32 63L32 61L28 61L28 60L26 60L26 58ZM61 58L61 59L62 59L62 58ZM63 58L63 59L64 59L64 58ZM57 59L57 60L59 60L59 59ZM3 60L3 61L5 61L5 60ZM6 60L6 61L7 61L7 60ZM25 60L25 61L21 61L21 63L22 63L22 64L23 64L23 66L25 66L25 65L28 65L28 63L27 63L27 62L28 62L28 61L26 61L26 60ZM44 60L44 61L45 61L45 60ZM68 60L68 61L69 61L69 60ZM25 61L25 62L26 62L26 61ZM33 61L33 64L36 64L36 61ZM46 61L46 62L47 62L47 61ZM61 61L61 64L64 64L64 61ZM23 62L23 64L26 64L26 63L24 63L24 62ZM34 62L34 63L35 63L35 62ZM62 62L62 63L63 63L63 62ZM65 62L65 63L66 63L66 62ZM44 63L44 64L45 64L45 66L46 66L46 64L45 64L45 63ZM49 63L49 64L50 64L50 65L51 65L51 64L50 64L50 63ZM56 63L56 64L57 64L57 63ZM21 65L21 66L22 66L22 65ZM30 65L30 66L32 66L32 65ZM34 65L34 66L35 66L35 65ZM10 66L10 67L9 67L9 68L10 68L10 67L11 67L11 66ZM19 66L19 67L20 67L20 66ZM29 67L29 68L30 68L30 67ZM33 68L33 69L34 69L34 68ZM58 68L58 69L59 69L59 68ZM0 0L0 7L7 7L7 0ZM1 1L1 6L6 6L6 1ZM2 2L2 5L5 5L5 2ZM62 0L62 7L69 7L69 0ZM63 1L63 6L68 6L68 1ZM64 2L64 5L67 5L67 2ZM0 62L0 69L7 69L7 62ZM1 63L1 68L6 68L6 63ZM2 64L2 67L5 67L5 64Z" fill="#000000"/></g></g></svg>
