<?xml version="1.0" encoding="UTF-8"?>
<svg xmlns="http://www.w3.org/2000/svg" version="1.1" width="300" height="300" viewBox="0 0 300 300"><rect x="0" y="0" width="300" height="300" fill="#ffffff"/><g transform="scale(4.348)"><g transform="translate(0,0)"><path fill-rule="evenodd" d="M8 0L8 4L9 4L9 5L8 5L8 7L9 7L9 8L10 8L10 10L9 10L9 9L7 9L7 8L4 8L4 9L7 9L7 10L6 10L6 11L7 11L7 12L5 12L5 13L4 13L4 12L3 12L3 11L4 11L4 10L3 10L3 9L2 9L2 8L0 8L0 9L2 9L2 10L1 10L1 11L2 11L2 14L1 14L1 15L0 15L0 16L1 16L1 15L2 15L2 14L3 14L3 15L7 15L7 16L6 16L6 17L9 17L9 16L10 16L10 17L12 17L12 16L11 16L11 15L12 15L12 13L10 13L10 12L11 12L11 10L12 10L12 12L13 12L13 13L15 13L15 11L16 11L16 13L18 13L18 15L17 15L17 14L16 14L16 15L15 15L15 14L13 14L13 17L14 17L14 16L15 16L15 17L16 17L16 15L17 15L17 17L18 17L18 18L16 18L16 19L13 19L13 20L15 20L15 21L14 21L14 23L15 23L15 24L16 24L16 23L18 23L18 24L17 24L17 25L15 25L15 26L14 26L14 27L11 27L11 26L10 26L10 25L11 25L11 23L12 23L12 22L13 22L13 21L12 21L12 19L11 19L11 18L8 18L8 20L6 20L6 21L4 21L4 22L3 22L3 21L2 21L2 20L3 20L3 18L4 18L4 19L7 19L7 18L5 18L5 16L4 16L4 17L3 17L3 16L2 16L2 17L0 17L0 18L1 18L1 19L0 19L0 20L1 20L1 21L0 21L0 23L1 23L1 24L0 24L0 28L1 28L1 30L0 30L0 33L2 33L2 35L0 35L0 37L1 37L1 38L2 38L2 40L0 40L0 41L1 41L1 42L0 42L0 43L1 43L1 48L2 48L2 49L0 49L0 50L2 50L2 51L1 51L1 52L3 52L3 50L2 50L2 49L3 49L3 48L4 48L4 49L5 49L5 50L4 50L4 53L2 53L2 54L4 54L4 55L5 55L5 56L6 56L6 57L7 57L7 58L5 58L5 57L4 57L4 56L3 56L3 55L1 55L1 53L0 53L0 55L1 55L1 56L2 56L2 57L0 57L0 61L1 61L1 58L2 58L2 59L3 59L3 57L4 57L4 59L7 59L7 60L6 60L6 61L8 61L8 62L10 62L10 63L11 63L11 65L13 65L13 67L12 67L12 68L10 68L10 67L8 67L8 69L9 69L9 68L10 68L10 69L12 69L12 68L13 68L13 69L14 69L14 67L15 67L15 68L17 68L17 69L20 69L20 68L17 68L17 67L18 67L18 66L19 66L19 67L20 67L20 66L21 66L21 69L22 69L22 67L26 67L26 66L27 66L27 67L28 67L28 66L30 66L30 65L31 65L31 67L33 67L33 66L34 66L34 68L32 68L32 69L35 69L35 67L37 67L37 66L34 66L34 65L38 65L38 67L39 67L39 68L38 68L38 69L40 69L40 68L41 68L41 69L42 69L42 67L43 67L43 63L42 63L42 62L44 62L44 69L46 69L46 67L45 67L45 62L46 62L46 61L47 61L47 63L46 63L46 64L47 64L47 65L50 65L50 66L47 66L47 67L48 67L48 68L47 68L47 69L49 69L49 68L51 68L51 69L52 69L52 68L54 68L54 69L55 69L55 67L57 67L57 68L56 68L56 69L57 69L57 68L58 68L58 69L59 69L59 66L58 66L58 65L60 65L60 66L61 66L61 67L67 67L67 66L69 66L69 65L66 65L66 66L65 66L65 63L66 63L66 62L67 62L67 64L68 64L68 62L69 62L69 59L68 59L68 57L69 57L69 55L68 55L68 53L69 53L69 52L68 52L68 50L67 50L67 53L66 53L66 52L65 52L65 51L66 51L66 50L64 50L64 49L65 49L65 47L66 47L66 46L67 46L67 47L68 47L68 46L69 46L69 44L68 44L68 41L67 41L67 40L66 40L66 41L67 41L67 42L65 42L65 43L64 43L64 44L63 44L63 43L58 43L58 44L60 44L60 45L59 45L59 46L58 46L58 45L57 45L57 44L56 44L56 43L57 43L57 42L58 42L58 41L57 41L57 40L59 40L59 39L60 39L60 40L61 40L61 41L59 41L59 42L62 42L62 38L61 38L61 39L60 39L60 37L65 37L65 35L66 35L66 34L67 34L67 35L68 35L68 37L66 37L66 39L68 39L68 38L69 38L69 35L68 35L68 32L69 32L69 31L68 31L68 26L66 26L66 25L67 25L67 24L68 24L68 23L67 23L67 22L65 22L65 21L67 21L67 20L68 20L68 21L69 21L69 20L68 20L68 18L67 18L67 17L68 17L68 16L69 16L69 15L68 15L68 14L69 14L69 12L68 12L68 14L67 14L67 16L66 16L66 18L67 18L67 20L65 20L65 17L64 17L64 16L65 16L65 14L64 14L64 15L62 15L62 19L63 19L63 17L64 17L64 20L63 20L63 21L62 21L62 20L61 20L61 19L58 19L58 17L57 17L57 16L59 16L59 18L61 18L61 16L59 16L59 14L61 14L61 13L62 13L62 14L63 14L63 13L64 13L64 12L63 12L63 11L64 11L64 10L65 10L65 11L68 11L68 10L69 10L69 8L65 8L65 9L64 9L64 8L63 8L63 9L61 9L61 6L60 6L60 7L59 7L59 4L58 4L58 5L57 5L57 4L56 4L56 2L57 2L57 3L59 3L59 2L57 2L57 1L56 1L56 2L55 2L55 4L54 4L54 2L53 2L53 1L55 1L55 0L52 0L52 1L51 1L51 0L50 0L50 1L47 1L47 2L46 2L46 0L45 0L45 1L44 1L44 0L41 0L41 1L40 1L40 0L38 0L38 1L40 1L40 4L41 4L41 5L40 5L40 7L39 7L39 4L38 4L38 3L37 3L37 4L35 4L35 3L36 3L36 2L37 2L37 0L36 0L36 1L34 1L34 0L32 0L32 1L31 1L31 4L30 4L30 5L29 5L29 6L28 6L28 8L26 8L26 7L27 7L27 5L28 5L28 4L29 4L29 3L27 3L27 1L28 1L28 2L30 2L30 0L22 0L22 4L21 4L21 3L20 3L20 5L19 5L19 6L18 6L18 7L17 7L17 6L16 6L16 4L15 4L15 3L16 3L16 2L17 2L17 3L19 3L19 1L20 1L20 2L21 2L21 0L16 0L16 1L15 1L15 0L14 0L14 2L15 2L15 3L13 3L13 0ZM58 0L58 1L61 1L61 0ZM10 1L10 2L9 2L9 4L10 4L10 5L9 5L9 7L10 7L10 6L11 6L11 9L12 9L12 10L14 10L14 11L15 11L15 10L16 10L16 11L17 11L17 10L19 10L19 11L18 11L18 12L22 12L22 13L21 13L21 14L20 14L20 13L19 13L19 14L20 14L20 16L21 16L21 15L22 15L22 13L23 13L23 12L24 12L24 11L23 11L23 12L22 12L22 11L20 11L20 8L21 8L21 9L22 9L22 10L23 10L23 9L24 9L24 10L25 10L25 9L26 9L26 11L25 11L25 13L26 13L26 14L25 14L25 15L26 15L26 16L28 16L28 17L27 17L27 19L28 19L28 18L29 18L29 19L30 19L30 18L29 18L29 15L28 15L28 14L29 14L29 13L28 13L28 12L31 12L31 13L32 13L32 12L33 12L33 15L32 15L32 14L31 14L31 15L32 15L32 18L31 18L31 19L32 19L32 20L31 20L31 21L29 21L29 20L28 20L28 23L27 23L27 22L26 22L26 17L25 17L25 16L24 16L24 17L23 17L23 16L22 16L22 17L23 17L23 18L22 18L22 19L24 19L24 20L25 20L25 22L26 22L26 24L25 24L25 23L24 23L24 24L25 24L25 25L26 25L26 26L24 26L24 25L21 25L21 24L19 24L19 25L21 25L21 26L22 26L22 27L24 27L24 28L22 28L22 29L25 29L25 30L26 30L26 28L27 28L27 29L28 29L28 32L26 32L26 31L25 31L25 33L29 33L29 34L28 34L28 35L27 35L27 34L24 34L24 35L23 35L23 32L24 32L24 31L23 31L23 30L22 30L22 34L20 34L20 35L19 35L19 34L17 34L17 33L18 33L18 32L19 32L19 33L20 33L20 31L21 31L21 30L20 30L20 29L21 29L21 27L20 27L20 26L19 26L19 28L20 28L20 29L19 29L19 30L18 30L18 31L17 31L17 27L18 27L18 25L17 25L17 26L16 26L16 27L14 27L14 28L15 28L15 29L16 29L16 32L17 32L17 33L16 33L16 35L15 35L15 33L14 33L14 31L15 31L15 30L14 30L14 31L13 31L13 28L12 28L12 32L11 32L11 33L10 33L10 32L9 32L9 33L10 33L10 34L9 34L9 39L8 39L8 37L6 37L6 38L7 38L7 39L6 39L6 40L5 40L5 39L4 39L4 38L5 38L5 37L4 37L4 35L2 35L2 36L1 36L1 37L4 37L4 38L3 38L3 39L4 39L4 41L5 41L5 42L4 42L4 44L3 44L3 43L2 43L2 44L3 44L3 45L2 45L2 46L3 46L3 47L2 47L2 48L3 48L3 47L5 47L5 48L8 48L8 49L6 49L6 50L8 50L8 54L7 54L7 53L6 53L6 52L7 52L7 51L5 51L5 54L7 54L7 55L6 55L6 56L7 56L7 57L8 57L8 58L7 58L7 59L9 59L9 60L11 60L11 63L12 63L12 64L13 64L13 65L14 65L14 66L15 66L15 67L17 67L17 65L18 65L18 64L19 64L19 65L20 65L20 63L22 63L22 65L21 65L21 66L23 66L23 65L29 65L29 64L28 64L28 62L29 62L29 63L30 63L30 64L31 64L31 65L32 65L32 66L33 66L33 65L32 65L32 64L31 64L31 63L32 63L32 62L31 62L31 63L30 63L30 62L29 62L29 60L28 60L28 58L29 58L29 59L33 59L33 58L35 58L35 56L37 56L37 55L38 55L38 57L36 57L36 59L34 59L34 60L37 60L37 64L38 64L38 65L39 65L39 64L38 64L38 63L40 63L40 66L39 66L39 67L41 67L41 63L40 63L40 62L41 62L41 60L39 60L39 59L38 59L38 60L37 60L37 58L38 58L38 57L39 57L39 58L40 58L40 59L41 59L41 58L40 58L40 57L41 57L41 56L42 56L42 57L44 57L44 54L45 54L45 53L46 53L46 54L49 54L49 55L47 55L47 56L49 56L49 57L46 57L46 58L49 58L49 59L50 59L50 60L49 60L49 63L51 63L51 62L52 62L52 63L53 63L53 61L54 61L54 60L55 60L55 62L56 62L56 63L55 63L55 66L53 66L53 64L52 64L52 67L55 67L55 66L56 66L56 63L58 63L58 64L57 64L57 65L58 65L58 64L59 64L59 62L60 62L60 60L59 60L59 59L58 59L58 62L57 62L57 61L56 61L56 60L57 60L57 59L56 59L56 58L57 58L57 57L58 57L58 58L61 58L61 57L60 57L60 55L61 55L61 54L62 54L62 55L64 55L64 56L63 56L63 57L62 57L62 59L63 59L63 57L64 57L64 60L65 60L65 61L67 61L67 62L68 62L68 60L67 60L67 56L68 56L68 55L67 55L67 54L65 54L65 52L62 52L62 53L61 53L61 52L58 52L58 50L59 50L59 51L60 51L60 50L61 50L61 51L64 51L64 50L62 50L62 49L64 49L64 47L63 47L63 44L61 44L61 46L60 46L60 47L59 47L59 49L58 49L58 50L57 50L57 52L58 52L58 53L56 53L56 55L54 55L54 54L52 54L52 53L53 53L53 52L54 52L54 53L55 53L55 50L56 50L56 48L58 48L58 47L55 47L55 46L53 46L53 45L54 45L54 44L55 44L55 45L56 45L56 46L57 46L57 45L56 45L56 44L55 44L55 43L54 43L54 41L55 41L55 42L56 42L56 40L57 40L57 39L58 39L58 38L59 38L59 37L60 37L60 36L59 36L59 37L58 37L58 35L54 35L54 33L55 33L55 34L56 34L56 33L55 33L55 32L53 32L53 31L55 31L55 30L53 30L53 31L52 31L52 33L51 33L51 30L52 30L52 29L53 29L53 27L54 27L54 28L55 28L55 29L56 29L56 28L57 28L57 29L58 29L58 30L59 30L59 29L60 29L60 28L61 28L61 32L62 32L62 31L63 31L63 32L66 32L66 33L67 33L67 32L68 32L68 31L65 31L65 30L67 30L67 27L62 27L62 23L63 23L63 22L64 22L64 21L65 21L65 20L64 20L64 21L63 21L63 22L62 22L62 21L61 21L61 22L62 22L62 23L60 23L60 22L59 22L59 21L58 21L58 19L57 19L57 18L56 18L56 16L57 16L57 15L58 15L58 14L59 14L59 11L58 11L58 12L57 12L57 13L58 13L58 14L56 14L56 13L55 13L55 11L57 11L57 10L53 10L53 11L52 11L52 13L51 13L51 12L50 12L50 9L51 9L51 10L52 10L52 9L56 9L56 8L53 8L53 7L54 7L54 5L53 5L53 7L52 7L52 5L50 5L50 4L52 4L52 2L51 2L51 1L50 1L50 3L49 3L49 2L48 2L48 3L47 3L47 4L46 4L46 5L44 5L44 4L45 4L45 3L46 3L46 2L45 2L45 3L44 3L44 2L42 2L42 1L41 1L41 2L42 2L42 3L41 3L41 4L43 4L43 5L44 5L44 6L43 6L43 8L40 8L40 9L43 9L43 12L42 12L42 10L39 10L39 11L37 11L37 12L36 12L36 13L34 13L34 11L36 11L36 9L35 9L35 10L34 10L34 11L33 11L33 10L32 10L32 8L30 8L30 9L28 9L28 12L27 12L27 13L26 13L26 11L27 11L27 9L26 9L26 8L25 8L25 9L24 9L24 8L22 8L22 6L23 6L23 7L24 7L24 6L25 6L25 7L26 7L26 6L25 6L25 5L27 5L27 3L26 3L26 2L25 2L25 1L23 1L23 2L24 2L24 3L23 3L23 5L20 5L20 6L19 6L19 9L17 9L17 8L16 8L16 6L15 6L15 7L14 7L14 6L13 6L13 7L12 7L12 5L11 5L11 3L12 3L12 2L11 2L11 1ZM32 1L32 2L33 2L33 3L32 3L32 4L31 4L31 5L30 5L30 6L29 6L29 7L30 7L30 6L31 6L31 7L32 7L32 6L31 6L31 5L32 5L32 4L34 4L34 1ZM10 2L10 3L11 3L11 2ZM24 3L24 5L25 5L25 4L26 4L26 3ZM43 3L43 4L44 4L44 3ZM60 3L60 5L61 5L61 3ZM14 4L14 5L15 5L15 4ZM17 4L17 5L18 5L18 4ZM47 4L47 6L46 6L46 7L45 7L45 6L44 6L44 7L45 7L45 8L44 8L44 9L45 9L45 10L46 10L46 11L44 11L44 13L42 13L42 15L39 15L39 13L40 13L40 14L41 14L41 11L39 11L39 12L38 12L38 18L39 18L39 19L34 19L34 22L33 22L33 20L32 20L32 22L31 22L31 24L30 24L30 25L29 25L29 26L28 26L28 25L27 25L27 24L26 24L26 25L27 25L27 26L26 26L26 27L27 27L27 28L28 28L28 27L29 27L29 26L31 26L31 25L32 25L32 23L34 23L34 25L33 25L33 26L34 26L34 28L35 28L35 27L36 27L36 26L37 26L37 28L36 28L36 29L33 29L33 31L34 31L34 30L35 30L35 31L36 31L36 29L38 29L38 30L39 30L39 31L37 31L37 32L32 32L32 30L31 30L31 31L30 31L30 29L32 29L32 28L33 28L33 27L30 27L30 28L29 28L29 31L30 31L30 32L29 32L29 33L30 33L30 34L29 34L29 38L28 38L28 37L27 37L27 35L26 35L26 37L27 37L27 38L25 38L25 37L24 37L24 36L25 36L25 35L24 35L24 36L23 36L23 37L24 37L24 38L21 38L21 37L22 37L22 35L21 35L21 37L20 37L20 36L18 36L18 35L16 35L16 36L17 36L17 38L16 38L16 37L15 37L15 38L14 38L14 37L12 37L12 38L14 38L14 41L16 41L16 40L17 40L17 42L16 42L16 43L15 43L15 44L14 44L14 43L13 43L13 41L12 41L12 42L11 42L11 43L10 43L10 41L8 41L8 40L6 40L6 41L8 41L8 42L5 42L5 44L4 44L4 46L5 46L5 47L8 47L8 45L9 45L9 44L10 44L10 47L9 47L9 48L10 48L10 49L8 49L8 50L10 50L10 51L9 51L9 52L10 52L10 53L9 53L9 54L10 54L10 53L11 53L11 54L13 54L13 50L14 50L14 51L16 51L16 48L15 48L15 47L16 47L16 45L18 45L18 47L17 47L17 49L18 49L18 50L17 50L17 52L15 52L15 54L14 54L14 57L13 57L13 58L12 58L12 59L11 59L11 57L12 57L12 56L13 56L13 55L12 55L12 56L10 56L10 55L8 55L8 56L9 56L9 59L11 59L11 60L12 60L12 62L14 62L14 61L15 61L15 62L16 62L16 65L15 65L15 63L13 63L13 64L14 64L14 65L15 65L15 66L16 66L16 65L17 65L17 63L18 63L18 61L20 61L20 62L21 62L21 61L22 61L22 60L23 60L23 62L25 62L25 63L26 63L26 64L27 64L27 62L28 62L28 60L27 60L27 59L26 59L26 58L25 58L25 56L22 56L22 55L20 55L20 56L18 56L18 55L19 55L19 54L18 54L18 53L19 53L19 52L20 52L20 54L22 54L22 52L23 52L23 51L24 51L24 50L25 50L25 51L26 51L26 54L25 54L25 52L24 52L24 53L23 53L23 54L25 54L25 55L26 55L26 57L27 57L27 58L28 58L28 56L27 56L27 55L30 55L30 54L32 54L32 53L31 53L31 52L33 52L33 51L34 51L34 52L35 52L35 53L36 53L36 52L35 52L35 51L36 51L36 49L35 49L35 50L34 50L34 48L30 48L30 47L28 47L28 48L26 48L26 47L25 47L25 44L26 44L26 46L28 46L28 45L27 45L27 44L26 44L26 43L28 43L28 44L29 44L29 46L30 46L30 45L31 45L31 46L32 46L32 47L33 47L33 46L34 46L34 44L33 44L33 43L34 43L34 40L35 40L35 42L36 42L36 43L37 43L37 44L38 44L38 45L35 45L35 47L36 47L36 48L37 48L37 49L38 49L38 50L37 50L37 53L38 53L38 52L39 52L39 54L44 54L44 53L45 53L45 50L46 50L46 51L47 51L47 50L46 50L46 49L45 49L45 48L47 48L47 49L48 49L48 50L49 50L49 49L50 49L50 50L55 50L55 49L54 49L54 47L53 47L53 46L52 46L52 43L53 43L53 41L52 41L52 38L53 38L53 40L54 40L54 39L55 39L55 36L54 36L54 37L52 37L52 36L53 36L53 34L52 34L52 35L51 35L51 37L50 37L50 35L49 35L49 33L50 33L50 34L51 34L51 33L50 33L50 30L51 30L51 28L50 28L50 27L52 27L52 26L53 26L53 25L52 25L52 22L55 22L55 24L56 24L56 26L55 26L55 25L54 25L54 27L56 27L56 26L58 26L58 25L57 25L57 24L58 24L58 23L59 23L59 27L60 27L60 26L61 26L61 24L60 24L60 23L59 23L59 22L58 22L58 21L57 21L57 20L56 20L56 19L54 19L54 20L53 20L53 21L52 21L52 19L51 19L51 20L50 20L50 18L51 18L51 17L52 17L52 16L53 16L53 14L55 14L55 15L54 15L54 16L56 16L56 14L55 14L55 13L53 13L53 14L51 14L51 13L50 13L50 12L49 12L49 9L50 9L50 8L51 8L51 9L52 9L52 8L51 8L51 6L50 6L50 8L47 8L47 6L48 6L48 7L49 7L49 4ZM33 5L33 8L36 8L36 5ZM37 5L37 8L38 8L38 5ZM56 5L56 6L55 6L55 7L56 7L56 6L57 6L57 7L58 7L58 6L57 6L57 5ZM20 6L20 7L21 7L21 6ZM34 6L34 7L35 7L35 6ZM41 6L41 7L42 7L42 6ZM13 7L13 9L14 9L14 10L15 10L15 8L14 8L14 7ZM45 8L45 9L46 9L46 10L47 10L47 8ZM57 8L57 9L58 9L58 10L59 10L59 9L58 9L58 8ZM30 9L30 10L31 10L31 11L32 11L32 10L31 10L31 9ZM37 9L37 10L38 10L38 9ZM65 9L65 10L66 10L66 9ZM67 9L67 10L68 10L68 9ZM8 10L8 12L7 12L7 13L6 13L6 14L7 14L7 13L8 13L8 15L9 15L9 14L10 14L10 13L9 13L9 12L10 12L10 11L9 11L9 10ZM53 11L53 12L54 12L54 11ZM61 11L61 12L60 12L60 13L61 13L61 12L62 12L62 13L63 13L63 12L62 12L62 11ZM45 12L45 13L44 13L44 14L43 14L43 17L44 17L44 14L45 14L45 15L46 15L46 14L47 14L47 13L46 13L46 12ZM66 12L66 13L67 13L67 12ZM27 13L27 14L28 14L28 13ZM36 13L36 14L37 14L37 13ZM45 13L45 14L46 14L46 13ZM49 13L49 14L50 14L50 16L49 16L49 15L48 15L48 16L49 16L49 18L47 18L47 17L46 17L46 16L45 16L45 19L44 19L44 18L41 18L41 17L42 17L42 16L40 16L40 19L39 19L39 20L38 20L38 21L36 21L36 20L35 20L35 22L34 22L34 23L35 23L35 25L37 25L37 26L38 26L38 25L37 25L37 24L39 24L39 22L40 22L40 23L41 23L41 24L40 24L40 27L39 27L39 29L40 29L40 30L42 30L42 28L43 28L43 29L44 29L44 28L45 28L45 27L43 27L43 26L41 26L41 25L42 25L42 24L43 24L43 25L44 25L44 24L45 24L45 23L44 23L44 20L46 20L46 19L47 19L47 21L46 21L46 22L48 22L48 23L47 23L47 25L46 25L46 26L47 26L47 27L46 27L46 29L45 29L45 30L43 30L43 31L40 31L40 33L44 33L44 34L43 34L43 35L41 35L41 34L39 34L39 35L38 35L38 32L37 32L37 37L36 37L36 38L35 38L35 37L32 37L32 36L31 36L31 35L30 35L30 36L31 36L31 37L32 37L32 38L31 38L31 40L30 40L30 41L29 41L29 39L30 39L30 38L29 38L29 39L28 39L28 38L27 38L27 39L26 39L26 40L25 40L25 39L23 39L23 40L22 40L22 39L21 39L21 41L22 41L22 43L21 43L21 44L22 44L22 49L19 49L19 48L18 48L18 49L19 49L19 50L18 50L18 51L20 51L20 50L21 50L21 51L22 51L22 49L25 49L25 50L26 50L26 51L28 51L28 50L31 50L31 51L33 51L33 49L29 49L29 48L28 48L28 49L27 49L27 50L26 50L26 49L25 49L25 47L24 47L24 46L23 46L23 45L24 45L24 43L23 43L23 41L24 41L24 42L25 42L25 43L26 43L26 42L25 42L25 41L26 41L26 40L27 40L27 39L28 39L28 42L30 42L30 41L32 41L32 42L31 42L31 43L30 43L30 44L31 44L31 45L33 45L33 44L32 44L32 43L33 43L33 41L32 41L32 40L33 40L33 39L32 39L32 38L34 38L34 39L35 39L35 40L37 40L37 42L38 42L38 44L39 44L39 43L41 43L41 44L43 44L43 43L44 43L44 40L45 40L45 39L43 39L43 42L38 42L38 41L39 41L39 38L40 38L40 41L41 41L41 37L42 37L42 36L43 36L43 38L45 38L45 37L46 37L46 42L45 42L45 43L47 43L47 44L48 44L48 43L50 43L50 44L49 44L49 46L50 46L50 44L51 44L51 43L50 43L50 41L49 41L49 42L47 42L47 39L48 39L48 40L50 40L50 37L48 37L48 35L47 35L47 37L46 37L46 34L48 34L48 33L46 33L46 34L45 34L45 33L44 33L44 31L49 31L49 30L50 30L50 29L48 29L48 30L47 30L47 27L50 27L50 25L49 25L49 26L47 26L47 25L48 25L48 23L49 23L49 22L50 22L50 24L51 24L51 22L52 22L52 21L51 21L51 22L50 22L50 20L49 20L49 22L48 22L48 19L49 19L49 18L50 18L50 16L51 16L51 14L50 14L50 13ZM34 14L34 15L33 15L33 18L34 18L34 16L36 16L36 17L35 17L35 18L37 18L37 15L35 15L35 14ZM18 16L18 17L19 17L19 18L18 18L18 20L19 20L19 22L20 22L20 23L22 23L22 24L23 24L23 20L22 20L22 21L21 21L21 22L20 22L20 20L19 20L19 19L20 19L20 18L21 18L21 17L19 17L19 16ZM2 17L2 18L3 18L3 17ZM24 17L24 18L25 18L25 17ZM53 17L53 18L55 18L55 17ZM9 19L9 20L8 20L8 22L10 22L10 21L11 21L11 20L10 20L10 19ZM16 19L16 21L17 21L17 19ZM40 19L40 20L39 20L39 21L40 21L40 22L43 22L43 20L41 20L41 19ZM40 20L40 21L41 21L41 20ZM55 20L55 22L57 22L57 23L58 23L58 22L57 22L57 21L56 21L56 20ZM6 21L6 22L7 22L7 21ZM1 22L1 23L2 23L2 25L1 25L1 26L2 26L2 28L3 28L3 25L4 25L4 26L5 26L5 25L6 25L6 26L8 26L8 27L9 27L9 28L10 28L10 29L9 29L9 30L8 30L8 31L6 31L6 30L7 30L7 29L5 29L5 28L7 28L7 27L5 27L5 28L4 28L4 29L5 29L5 31L4 31L4 30L3 30L3 29L2 29L2 30L1 30L1 32L2 32L2 33L4 33L4 32L5 32L5 31L6 31L6 32L8 32L8 31L9 31L9 30L10 30L10 31L11 31L11 27L9 27L9 26L8 26L8 25L6 25L6 24L7 24L7 23L4 23L4 24L3 24L3 23L2 23L2 22ZM15 22L15 23L16 23L16 22ZM29 22L29 23L30 23L30 22ZM8 23L8 24L9 24L9 25L10 25L10 24L9 24L9 23ZM64 23L64 25L63 25L63 26L64 26L64 25L65 25L65 24L67 24L67 23ZM12 24L12 25L14 25L14 24ZM40 27L40 28L42 28L42 27ZM57 27L57 28L58 28L58 29L59 29L59 28L58 28L58 27ZM61 27L61 28L62 28L62 27ZM62 29L62 30L64 30L64 29ZM2 30L2 31L3 31L3 32L4 32L4 31L3 31L3 30ZM56 30L56 31L57 31L57 33L58 33L58 34L59 34L59 35L60 35L60 34L59 34L59 32L58 32L58 31L57 31L57 30ZM12 32L12 33L11 33L11 34L12 34L12 33L13 33L13 32ZM5 33L5 36L8 36L8 33ZM33 33L33 36L36 36L36 33ZM61 33L61 36L64 36L64 33ZM6 34L6 35L7 35L7 34ZM34 34L34 35L35 35L35 34ZM44 34L44 37L45 37L45 34ZM62 34L62 35L63 35L63 34ZM10 35L10 39L9 39L9 40L11 40L11 35ZM40 35L40 36L38 36L38 37L37 37L37 39L38 39L38 38L39 38L39 37L40 37L40 36L41 36L41 35ZM56 36L56 37L57 37L57 38L58 38L58 37L57 37L57 36ZM19 37L19 42L17 42L17 43L18 43L18 44L20 44L20 37ZM51 37L51 38L52 38L52 37ZM15 38L15 40L16 40L16 38ZM17 38L17 39L18 39L18 38ZM64 38L64 39L63 39L63 41L65 41L65 40L64 40L64 39L65 39L65 38ZM12 39L12 40L13 40L13 39ZM24 40L24 41L25 41L25 40ZM2 41L2 42L3 42L3 41ZM51 41L51 42L52 42L52 41ZM6 43L6 44L7 44L7 43ZM11 43L11 45L12 45L12 44L13 44L13 45L14 45L14 47L13 47L13 48L12 48L12 49L11 49L11 51L10 51L10 52L12 52L12 49L13 49L13 48L14 48L14 50L15 50L15 48L14 48L14 47L15 47L15 45L14 45L14 44L13 44L13 43ZM22 43L22 44L23 44L23 43ZM65 43L65 44L64 44L64 46L66 46L66 45L65 45L65 44L67 44L67 45L68 45L68 44L67 44L67 43ZM45 44L45 45L44 45L44 48L43 48L43 49L44 49L44 50L45 50L45 49L44 49L44 48L45 48L45 47L46 47L46 46L47 46L47 45L46 45L46 44ZM5 45L5 46L7 46L7 45ZM19 45L19 47L21 47L21 46L20 46L20 45ZM39 45L39 47L41 47L41 48L40 48L40 51L41 51L41 49L42 49L42 45L41 45L41 46L40 46L40 45ZM45 45L45 46L46 46L46 45ZM36 46L36 47L37 47L37 48L38 48L38 49L39 49L39 48L38 48L38 47L37 47L37 46ZM61 46L61 47L60 47L60 48L61 48L61 49L62 49L62 46ZM49 47L49 48L50 48L50 49L51 49L51 48L50 48L50 47ZM52 48L52 49L53 49L53 48ZM67 48L67 49L68 49L68 48ZM38 50L38 51L39 51L39 50ZM42 50L42 51L43 51L43 53L44 53L44 51L43 51L43 50ZM50 51L50 52L51 52L51 53L50 53L50 55L51 55L51 53L52 53L52 51ZM17 52L17 53L16 53L16 55L17 55L17 53L18 53L18 52ZM27 52L27 53L28 53L28 54L30 54L30 53L28 53L28 52ZM40 52L40 53L42 53L42 52ZM46 52L46 53L49 53L49 52ZM33 53L33 54L34 54L34 55L36 55L36 54L34 54L34 53ZM60 53L60 54L59 54L59 55L60 55L60 54L61 54L61 53ZM62 53L62 54L64 54L64 55L65 55L65 54L64 54L64 53ZM39 55L39 57L40 57L40 55ZM52 55L52 56L51 56L51 57L50 57L50 59L51 59L51 57L52 57L52 56L53 56L53 58L52 58L52 59L54 59L54 58L56 58L56 57L57 57L57 56L58 56L58 55L57 55L57 56L56 56L56 57L55 57L55 56L54 56L54 55ZM15 56L15 57L17 57L17 56ZM20 56L20 57L19 57L19 59L17 59L17 58L16 58L16 59L15 59L15 61L16 61L16 62L17 62L17 61L18 61L18 60L19 60L19 59L20 59L20 57L21 57L21 60L20 60L20 61L21 61L21 60L22 60L22 58L23 58L23 59L24 59L24 61L25 61L25 62L26 62L26 60L25 60L25 58L24 58L24 57L21 57L21 56ZM30 56L30 57L29 57L29 58L31 58L31 57L34 57L34 56ZM64 56L64 57L65 57L65 56ZM42 58L42 61L44 61L44 62L45 62L45 61L46 61L46 59L45 59L45 58ZM13 59L13 60L14 60L14 59ZM43 59L43 60L44 60L44 61L45 61L45 60L44 60L44 59ZM3 60L3 61L5 61L5 60ZM31 60L31 61L32 61L32 60ZM38 60L38 62L39 62L39 60ZM51 60L51 61L50 61L50 62L51 62L51 61L52 61L52 60ZM33 61L33 64L36 64L36 61ZM61 61L61 64L64 64L64 61ZM34 62L34 63L35 63L35 62ZM62 62L62 63L63 63L63 62ZM8 63L8 65L9 65L9 66L10 66L10 64L9 64L9 63ZM23 63L23 64L24 64L24 63ZM50 66L50 67L51 67L51 66ZM29 67L29 68L28 68L28 69L31 69L31 68L30 68L30 67ZM23 68L23 69L25 69L25 68ZM26 68L26 69L27 69L27 68ZM36 68L36 69L37 69L37 68ZM60 68L60 69L61 69L61 68ZM63 68L63 69L67 69L67 68ZM68 68L68 69L69 69L69 68ZM0 0L0 7L7 7L7 0ZM1 1L1 6L6 6L6 1ZM2 2L2 5L5 5L5 2ZM62 0L62 7L69 7L69 0ZM63 1L63 6L68 6L68 1ZM64 2L64 5L67 5L67 2ZM0 62L0 69L7 69L7 62ZM1 63L1 68L6 68L6 63ZM2 64L2 67L5 67L5 64Z" fill="#000000"/></g></g></svg>
