<?xml version="1.0" encoding="UTF-8"?>
<svg xmlns="http://www.w3.org/2000/svg" version="1.1" width="300" height="300" viewBox="0 0 300 300"><rect x="0" y="0" width="300" height="300" fill="#ffffff"/><g transform="scale(4.615)"><g transform="translate(0,0)"><path fill-rule="evenodd" d="M8 0L8 1L9 1L9 0ZM11 0L11 2L8 2L8 5L9 5L9 4L10 4L10 7L11 7L11 8L10 8L10 9L9 9L9 8L8 8L8 9L9 9L9 10L10 10L10 11L11 11L11 10L14 10L14 12L13 12L13 11L12 11L12 12L13 12L13 13L12 13L12 14L13 14L13 15L14 15L14 14L13 14L13 13L14 13L14 12L17 12L17 13L15 13L15 15L16 15L16 16L15 16L15 17L17 17L17 20L16 20L16 23L13 23L13 20L14 20L14 21L15 21L15 19L13 19L13 20L12 20L12 21L10 21L10 20L9 20L9 19L10 19L10 18L9 18L9 15L11 15L11 16L10 16L10 17L11 17L11 19L12 19L12 18L13 18L13 17L14 17L14 16L12 16L12 15L11 15L11 13L10 13L10 12L9 12L9 11L8 11L8 10L5 10L5 9L4 9L4 8L0 8L0 9L3 9L3 10L2 10L2 12L3 12L3 10L5 10L5 11L4 11L4 12L5 12L5 13L8 13L8 14L9 14L9 15L7 15L7 14L6 14L6 15L7 15L7 16L5 16L5 15L3 15L3 16L4 16L4 17L5 17L5 18L4 18L4 19L5 19L5 18L6 18L6 19L7 19L7 18L9 18L9 19L8 19L8 20L9 20L9 21L10 21L10 22L9 22L9 23L10 23L10 22L11 22L11 23L13 23L13 24L11 24L11 25L13 25L13 26L11 26L11 27L10 27L10 25L9 25L9 24L6 24L6 25L5 25L5 23L8 23L8 21L7 21L7 20L3 20L3 19L2 19L2 20L0 20L0 22L1 22L1 23L2 23L2 24L1 24L1 25L0 25L0 26L1 26L1 25L3 25L3 26L4 26L4 25L5 25L5 26L6 26L6 27L7 27L7 26L8 26L8 27L10 27L10 28L11 28L11 30L10 30L10 29L9 29L9 28L6 28L6 29L5 29L5 27L4 27L4 29L3 29L3 27L2 27L2 28L1 28L1 29L0 29L0 30L1 30L1 29L2 29L2 31L3 31L3 30L4 30L4 32L2 32L2 33L1 33L1 31L0 31L0 34L1 34L1 35L2 35L2 36L0 36L0 38L1 38L1 37L2 37L2 36L3 36L3 38L2 38L2 39L0 39L0 41L3 41L3 43L2 43L2 42L1 42L1 43L0 43L0 45L1 45L1 46L0 46L0 48L2 48L2 45L1 45L1 43L2 43L2 44L6 44L6 45L4 45L4 46L3 46L3 47L5 47L5 48L3 48L3 50L2 50L2 51L1 51L1 50L0 50L0 51L1 51L1 52L0 52L0 54L1 54L1 52L2 52L2 55L3 55L3 56L1 56L1 55L0 55L0 56L1 56L1 57L3 57L3 56L4 56L4 57L5 57L5 56L4 56L4 54L3 54L3 51L4 51L4 49L5 49L5 51L7 51L7 52L6 52L6 53L7 53L7 52L8 52L8 51L7 51L7 50L6 50L6 49L8 49L8 47L7 47L7 46L6 46L6 45L7 45L7 44L10 44L10 46L9 46L9 51L10 51L10 52L11 52L11 53L12 53L12 52L16 52L16 53L14 53L14 55L15 55L15 57L14 57L14 58L13 58L13 54L9 54L9 53L8 53L8 54L5 54L5 55L7 55L7 56L6 56L6 57L7 57L7 56L8 56L8 54L9 54L9 56L10 56L10 58L9 58L9 57L8 57L8 58L9 58L9 59L10 59L10 60L9 60L9 61L8 61L8 65L9 65L9 61L10 61L10 62L11 62L11 63L10 63L10 65L11 65L11 64L12 64L12 65L18 65L18 64L19 64L19 65L20 65L20 64L19 64L19 63L18 63L18 62L19 62L19 61L20 61L20 62L23 62L23 63L22 63L22 64L23 64L23 65L29 65L29 64L30 64L30 63L29 63L29 62L27 62L27 61L26 61L26 59L27 59L27 57L29 57L29 58L28 58L28 59L29 59L29 58L30 58L30 62L33 62L33 63L31 63L31 64L32 64L32 65L33 65L33 63L35 63L35 64L34 64L34 65L35 65L35 64L36 64L36 63L37 63L37 62L40 62L40 63L41 63L41 64L42 64L42 65L45 65L45 64L44 64L44 60L45 60L45 63L48 63L48 64L50 64L50 65L52 65L52 63L53 63L53 65L54 65L54 64L55 64L55 65L56 65L56 64L57 64L57 63L56 63L56 64L55 64L55 63L54 63L54 62L53 62L53 61L57 61L57 62L58 62L58 61L59 61L59 63L60 63L60 64L61 64L61 65L62 65L62 64L61 64L61 63L60 63L60 62L62 62L62 61L64 61L64 60L62 60L62 61L61 61L61 59L64 59L64 56L65 56L65 55L64 55L64 56L63 56L63 55L62 55L62 54L61 54L61 55L59 55L59 56L56 56L56 55L57 55L57 54L58 54L58 51L59 51L59 50L58 50L58 49L61 49L61 48L59 48L59 47L63 47L63 49L62 49L62 50L60 50L60 52L59 52L59 54L60 54L60 53L61 53L61 52L62 52L62 50L63 50L63 54L65 54L65 53L64 53L64 52L65 52L65 49L64 49L64 48L65 48L65 47L64 47L64 46L63 46L63 45L62 45L62 44L63 44L63 43L61 43L61 42L63 42L63 40L64 40L64 41L65 41L65 38L62 38L62 37L65 37L65 36L64 36L64 34L63 34L63 33L65 33L65 31L64 31L64 32L63 32L63 31L62 31L62 30L60 30L60 29L58 29L58 28L59 28L59 27L60 27L60 26L58 26L58 25L61 25L61 23L63 23L63 24L64 24L64 22L62 22L62 20L64 20L64 19L62 19L62 18L65 18L65 17L64 17L64 16L62 16L62 15L65 15L65 13L64 13L64 12L61 12L61 9L63 9L63 8L60 8L60 9L59 9L59 11L58 11L58 10L56 10L56 8L55 8L55 5L54 5L54 4L56 4L56 5L57 5L57 4L56 4L56 3L57 3L57 1L56 1L56 0L55 0L55 1L56 1L56 3L55 3L55 2L54 2L54 1L53 1L53 2L52 2L52 0L51 0L51 1L50 1L50 0L48 0L48 1L50 1L50 2L49 2L49 3L48 3L48 2L46 2L46 3L45 3L45 5L42 5L42 8L43 8L43 6L44 6L44 7L45 7L45 5L46 5L46 3L47 3L47 6L46 6L46 7L47 7L47 6L48 6L48 8L49 8L49 9L47 9L47 10L48 10L48 11L46 11L46 10L45 10L45 14L46 14L46 12L48 12L48 13L47 13L47 14L48 14L48 15L47 15L47 16L50 16L50 15L51 15L51 13L52 13L52 15L53 15L53 16L54 16L54 15L55 15L55 14L58 14L58 15L57 15L57 16L58 16L58 15L59 15L59 16L62 16L62 17L60 17L60 18L61 18L61 19L60 19L60 20L61 20L61 21L59 21L59 24L57 24L57 25L55 25L55 26L56 26L56 27L55 27L55 28L57 28L57 30L56 30L56 31L54 31L54 29L53 29L53 32L49 32L49 34L47 34L47 36L48 36L48 37L49 37L49 38L48 38L48 40L49 40L49 39L50 39L50 41L51 41L51 39L52 39L52 40L53 40L53 41L52 41L52 42L50 42L50 43L52 43L52 42L53 42L53 43L56 43L56 41L55 41L55 42L54 42L54 40L57 40L57 42L58 42L58 41L59 41L59 44L57 44L57 45L58 45L58 46L56 46L56 44L54 44L54 45L53 45L53 44L49 44L49 43L48 43L48 42L49 42L49 41L48 41L48 42L47 42L47 40L46 40L46 41L45 41L45 39L47 39L47 38L46 38L46 37L45 37L45 38L44 38L44 37L43 37L43 35L42 35L42 34L43 34L43 33L42 33L42 32L43 32L43 31L44 31L44 32L45 32L45 31L46 31L46 33L48 33L48 32L47 32L47 31L52 31L52 30L49 30L49 29L50 29L50 28L49 28L49 27L48 27L48 26L46 26L46 25L49 25L49 26L50 26L50 27L54 27L54 26L52 26L52 25L49 25L49 24L47 24L47 23L48 23L48 20L46 20L46 19L47 19L47 18L48 18L48 17L46 17L46 16L41 16L41 15L40 15L40 16L39 16L39 18L38 18L38 14L40 14L40 13L39 13L39 12L38 12L38 11L39 11L39 10L40 10L40 11L41 11L41 13L43 13L43 14L42 14L42 15L43 15L43 14L44 14L44 12L42 12L42 11L41 11L41 10L44 10L44 9L41 9L41 8L40 8L40 7L41 7L41 6L40 6L40 5L39 5L39 2L38 2L38 4L37 4L37 2L36 2L36 3L33 3L33 4L32 4L32 2L33 2L33 1L32 1L32 2L31 2L31 3L30 3L30 2L29 2L29 3L30 3L30 4L29 4L29 6L28 6L28 8L27 8L27 9L26 9L26 10L25 10L25 9L23 9L23 8L26 8L26 7L27 7L27 6L26 6L26 7L25 7L25 6L24 6L24 7L23 7L23 6L22 6L22 3L23 3L23 2L21 2L21 1L20 1L20 0L19 0L19 2L21 2L21 4L19 4L19 3L18 3L18 0L16 0L16 2L15 2L15 4L16 4L16 5L17 5L17 3L18 3L18 4L19 4L19 5L18 5L18 7L19 7L19 9L18 9L18 8L15 8L15 9L14 9L14 8L12 8L12 7L13 7L13 6L14 6L14 7L15 7L15 6L14 6L14 5L13 5L13 3L14 3L14 2L13 2L13 3L12 3L12 5L11 5L11 4L10 4L10 3L11 3L11 2L12 2L12 0ZM22 0L22 1L23 1L23 0ZM24 0L24 1L26 1L26 2L28 2L28 0ZM29 0L29 1L31 1L31 0ZM35 0L35 1L36 1L36 0ZM37 0L37 1L38 1L38 0ZM39 0L39 1L40 1L40 3L41 3L41 4L42 4L42 2L41 2L41 1L43 1L43 4L44 4L44 2L45 2L45 0ZM24 2L24 3L25 3L25 2ZM50 2L50 3L49 3L49 4L48 4L48 6L49 6L49 8L50 8L50 6L49 6L49 4L50 4L50 3L51 3L51 5L53 5L53 9L52 9L52 8L51 8L51 9L49 9L49 10L50 10L50 11L49 11L49 12L50 12L50 13L51 13L51 10L53 10L53 9L54 9L54 5L53 5L53 3L54 3L54 2L53 2L53 3L52 3L52 2ZM25 4L25 5L28 5L28 4ZM35 4L35 5L36 5L36 4ZM31 5L31 8L34 8L34 5ZM37 5L37 7L36 7L36 6L35 6L35 8L36 8L36 9L38 9L38 10L39 10L39 9L38 9L38 8L37 8L37 7L38 7L38 6L39 6L39 7L40 7L40 6L39 6L39 5ZM8 6L8 7L9 7L9 6ZM11 6L11 7L12 7L12 6ZM16 6L16 7L17 7L17 6ZM19 6L19 7L20 7L20 10L19 10L19 11L20 11L20 10L23 10L23 9L21 9L21 7L22 7L22 6L21 6L21 7L20 7L20 6ZM29 6L29 8L28 8L28 9L27 9L27 10L30 10L30 12L31 12L31 13L34 13L34 14L35 14L35 16L34 16L34 17L35 17L35 18L34 18L34 20L33 20L33 18L32 18L32 20L31 20L31 18L30 18L30 17L29 17L29 16L28 16L28 15L29 15L29 14L27 14L27 12L28 12L28 13L29 13L29 11L27 11L27 12L26 12L26 13L25 13L25 14L26 14L26 15L24 15L24 12L25 12L25 11L21 11L21 12L19 12L19 13L20 13L20 14L21 14L21 15L22 15L22 17L23 17L23 15L24 15L24 19L23 19L23 20L22 20L22 18L21 18L21 17L20 17L20 16L19 16L19 15L18 15L18 14L17 14L17 17L18 17L18 19L19 19L19 18L21 18L21 20L20 20L20 22L18 22L18 21L17 21L17 22L18 22L18 24L19 24L19 25L20 25L20 24L19 24L19 23L20 23L20 22L21 22L21 20L22 20L22 23L21 23L21 25L22 25L22 26L26 26L26 27L22 27L22 28L21 28L21 29L20 29L20 31L19 31L19 28L16 28L16 29L15 29L15 27L17 27L17 26L18 26L18 27L19 27L19 26L18 26L18 25L17 25L17 23L16 23L16 24L15 24L15 25L16 25L16 26L15 26L15 27L14 27L14 26L13 26L13 27L14 27L14 28L13 28L13 30L14 30L14 29L15 29L15 31L9 31L9 33L11 33L11 34L10 34L10 36L9 36L9 35L6 35L6 36L7 36L7 37L5 37L5 38L7 38L7 37L9 37L9 38L8 38L8 39L6 39L6 40L7 40L7 41L6 41L6 42L7 42L7 41L8 41L8 42L9 42L9 41L10 41L10 42L11 42L11 43L10 43L10 44L11 44L11 43L12 43L12 42L14 42L14 43L13 43L13 45L11 45L11 47L10 47L10 50L11 50L11 51L13 51L13 50L15 50L15 51L16 51L16 52L17 52L17 54L20 54L20 55L21 55L21 57L20 57L20 58L21 58L21 59L18 59L18 60L20 60L20 61L21 61L21 60L22 60L22 61L23 61L23 60L24 60L24 59L23 59L23 60L22 60L22 56L24 56L24 57L25 57L25 58L26 58L26 57L27 57L27 56L29 56L29 57L30 57L30 56L29 56L29 55L25 55L25 52L26 52L26 54L27 54L27 53L29 53L29 54L30 54L30 55L31 55L31 56L32 56L32 54L33 54L33 56L36 56L36 57L35 57L35 59L36 59L36 60L37 60L37 57L38 57L38 58L39 58L39 56L40 56L40 55L41 55L41 52L42 52L42 54L43 54L43 52L44 52L44 51L46 51L46 50L48 50L48 51L49 51L49 49L46 49L46 48L47 48L47 47L46 47L46 46L47 46L47 44L48 44L48 45L49 45L49 44L48 44L48 43L47 43L47 44L46 44L46 43L44 43L44 45L43 45L43 46L41 46L41 45L42 45L42 44L43 44L43 43L42 43L42 44L41 44L41 45L39 45L39 44L38 44L38 46L39 46L39 47L40 47L40 50L39 50L39 51L37 51L37 50L36 50L36 49L35 49L35 48L36 48L36 47L37 47L37 44L36 44L36 45L35 45L35 42L36 42L36 41L37 41L37 43L40 43L40 41L41 41L41 40L43 40L43 37L41 37L41 36L42 36L42 35L41 35L41 33L40 33L40 34L39 34L39 32L41 32L41 30L42 30L42 31L43 31L43 30L44 30L44 31L45 31L45 29L47 29L47 30L46 30L46 31L47 31L47 30L48 30L48 29L49 29L49 28L45 28L45 27L46 27L46 26L45 26L45 27L44 27L44 28L45 28L45 29L43 29L43 26L44 26L44 25L45 25L45 23L46 23L46 22L47 22L47 21L46 21L46 20L43 20L43 18L45 18L45 19L46 19L46 18L45 18L45 17L42 17L42 18L41 18L41 19L40 19L40 18L39 18L39 19L36 19L36 21L37 21L37 20L41 20L41 19L42 19L42 20L43 20L43 21L45 21L45 23L44 23L44 22L43 22L43 23L42 23L42 21L38 21L38 22L37 22L37 24L38 24L38 25L36 25L36 26L35 26L35 25L34 25L34 24L36 24L36 23L34 23L34 22L35 22L35 18L37 18L37 16L36 16L36 14L37 14L37 13L35 13L35 12L36 12L36 11L37 11L37 10L36 10L36 11L35 11L35 12L32 12L32 11L34 11L34 10L35 10L35 9L32 9L32 10L30 10L30 6ZM32 6L32 7L33 7L33 6ZM51 6L51 7L52 7L52 6ZM56 6L56 7L57 7L57 6ZM6 8L6 9L7 9L7 8ZM11 8L11 9L12 9L12 8ZM57 8L57 9L58 9L58 8ZM64 8L64 9L65 9L65 8ZM54 10L54 14L55 14L55 13L57 13L57 11L56 11L56 10ZM63 10L63 11L64 11L64 10ZM0 11L0 13L1 13L1 11ZM6 11L6 12L7 12L7 11ZM17 11L17 12L18 12L18 11ZM52 11L52 13L53 13L53 11ZM2 13L2 14L0 14L0 15L2 15L2 14L3 14L3 13ZM22 13L22 15L23 15L23 13ZM58 13L58 14L59 14L59 13ZM60 13L60 15L62 15L62 14L61 14L61 13ZM30 14L30 15L31 15L31 16L33 16L33 15L31 15L31 14ZM0 16L0 18L1 18L1 17L2 17L2 16ZM11 16L11 17L12 17L12 16ZM25 16L25 19L29 19L29 17L27 17L27 16ZM40 16L40 17L41 17L41 16ZM51 16L51 18L50 18L50 19L49 19L49 23L52 23L52 24L56 24L56 23L55 23L55 22L56 22L56 20L57 20L57 21L58 21L58 19L57 19L57 18L59 18L59 17L57 17L57 18L56 18L56 20L54 20L54 23L52 23L52 22L53 22L53 20L52 20L52 19L54 19L54 17L53 17L53 18L52 18L52 16ZM6 17L6 18L7 18L7 17ZM26 17L26 18L27 18L27 17ZM51 18L51 19L50 19L50 22L52 22L52 21L51 21L51 19L52 19L52 18ZM24 20L24 21L23 21L23 23L22 23L22 24L23 24L23 25L26 25L26 26L28 26L28 27L29 27L29 28L31 28L31 29L28 29L28 30L26 30L26 29L27 29L27 27L26 27L26 28L25 28L25 30L22 30L22 29L21 29L21 31L20 31L20 32L21 32L21 34L20 34L20 33L19 33L19 36L18 36L18 34L16 34L16 35L14 35L14 34L15 34L15 32L14 32L14 33L13 33L13 32L11 32L11 33L13 33L13 35L12 35L12 34L11 34L11 36L10 36L10 38L11 38L11 39L13 39L13 40L12 40L12 41L11 41L11 40L10 40L10 41L11 41L11 42L12 42L12 41L14 41L14 39L15 39L15 41L16 41L16 42L17 42L17 43L16 43L16 47L15 47L15 50L16 50L16 47L18 47L18 48L17 48L17 51L19 51L19 52L18 52L18 53L22 53L22 54L21 54L21 55L22 55L22 54L23 54L23 55L24 55L24 53L23 53L23 52L24 52L24 51L22 51L22 50L23 50L23 49L22 49L22 50L21 50L21 49L20 49L20 48L21 48L21 47L22 47L22 48L24 48L24 49L25 49L25 50L26 50L26 52L32 52L32 53L33 53L33 54L34 54L34 52L33 52L33 51L36 51L36 52L37 52L37 51L36 51L36 50L35 50L35 49L34 49L34 48L35 48L35 47L34 47L34 46L33 46L33 47L31 47L31 46L32 46L32 45L33 45L33 44L30 44L30 42L31 42L31 40L32 40L32 41L36 41L36 39L37 39L37 41L40 41L40 39L39 39L39 37L37 37L37 36L39 36L39 34L38 34L38 32L39 32L39 31L40 31L40 27L41 27L41 29L42 29L42 26L41 26L41 25L40 25L40 27L39 27L39 25L38 25L38 28L39 28L39 30L37 30L37 31L36 31L36 30L35 30L35 28L34 28L34 29L33 29L33 28L31 28L31 26L32 26L32 27L33 27L33 26L34 26L34 25L33 25L33 26L32 26L32 24L34 24L34 23L33 23L33 21L32 21L32 23L31 23L31 24L30 24L30 22L31 22L31 21L30 21L30 20L28 20L28 21L29 21L29 24L27 24L27 25L26 25L26 23L27 23L27 22L25 22L25 20ZM26 20L26 21L27 21L27 20ZM3 21L3 23L4 23L4 21ZM5 21L5 22L7 22L7 21ZM24 22L24 23L23 23L23 24L24 24L24 23L25 23L25 22ZM40 22L40 23L39 23L39 24L41 24L41 22ZM3 24L3 25L4 25L4 24ZM29 24L29 25L28 25L28 26L29 26L29 27L30 27L30 26L29 26L29 25L30 25L30 24ZM43 24L43 25L44 25L44 24ZM6 25L6 26L7 26L7 25ZM8 25L8 26L9 26L9 25ZM63 25L63 26L61 26L61 28L62 28L62 27L63 27L63 29L65 29L65 28L64 28L64 27L65 27L65 26L64 26L64 25ZM20 26L20 27L21 27L21 26ZM57 26L57 27L58 27L58 26ZM36 27L36 28L37 28L37 27ZM51 28L51 29L52 29L52 28ZM4 29L4 30L5 30L5 29ZM6 29L6 30L7 30L7 29ZM16 29L16 30L18 30L18 29ZM32 29L32 30L33 30L33 29ZM28 30L28 36L27 36L27 35L26 35L26 34L27 34L27 31L26 31L26 32L25 32L25 31L24 31L24 32L23 32L23 33L22 33L22 34L21 34L21 35L23 35L23 33L26 33L26 34L25 34L25 37L23 37L23 36L22 36L22 38L23 38L23 39L27 39L27 41L26 41L26 43L24 43L24 42L25 42L25 41L24 41L24 42L23 42L23 40L22 40L22 39L20 39L20 38L19 38L19 37L21 37L21 36L19 36L19 37L18 37L18 36L17 36L17 35L16 35L16 36L17 36L17 37L16 37L16 38L15 38L15 36L13 36L13 38L15 38L15 39L16 39L16 40L17 40L17 42L19 42L19 44L18 44L18 43L17 43L17 44L18 44L18 45L17 45L17 46L18 46L18 45L19 45L19 44L20 44L20 45L21 45L21 46L19 46L19 48L20 48L20 47L21 47L21 46L22 46L22 47L23 47L23 46L22 46L22 43L23 43L23 45L24 45L24 46L26 46L26 45L27 45L27 46L29 46L29 48L28 48L28 47L26 47L26 49L27 49L27 48L28 48L28 50L27 50L27 51L28 51L28 50L29 50L29 49L30 49L30 51L32 51L32 50L31 50L31 49L33 49L33 50L34 50L34 49L33 49L33 48L31 48L31 47L30 47L30 44L29 44L29 42L30 42L30 41L29 41L29 40L30 40L30 39L29 39L29 37L30 37L30 38L31 38L31 39L32 39L32 40L34 40L34 39L33 39L33 38L31 38L31 37L30 37L30 36L29 36L29 35L30 35L30 32L29 32L29 30ZM5 31L5 34L8 34L8 31ZM17 31L17 33L18 33L18 32L19 32L19 31ZM21 31L21 32L22 32L22 31ZM31 31L31 34L34 34L34 31ZM57 31L57 34L60 34L60 31ZM6 32L6 33L7 33L7 32ZM32 32L32 33L33 33L33 32ZM36 32L36 33L37 33L37 32ZM53 32L53 33L54 33L54 32ZM58 32L58 33L59 33L59 32ZM61 32L61 35L60 35L60 36L63 36L63 34L62 34L62 32ZM2 33L2 34L3 34L3 36L4 36L4 34L3 34L3 33ZM44 33L44 34L45 34L45 33ZM50 33L50 34L49 34L49 35L50 35L50 36L49 36L49 37L51 37L51 38L50 38L50 39L51 39L51 38L52 38L52 39L53 39L53 40L54 40L54 39L55 39L55 37L56 37L56 39L57 39L57 37L58 37L58 38L59 38L59 39L58 39L58 40L59 40L59 39L60 39L60 42L61 42L61 37L59 37L59 35L57 35L57 37L56 37L56 36L55 36L55 34L56 34L56 33L55 33L55 34L54 34L54 36L53 36L53 35L52 35L52 34L51 34L51 33ZM37 34L37 35L38 35L38 34ZM50 34L50 35L51 35L51 36L52 36L52 35L51 35L51 34ZM31 35L31 36L32 36L32 37L33 37L33 35ZM34 35L34 36L36 36L36 35ZM44 35L44 36L45 36L45 35ZM11 36L11 37L12 37L12 36ZM25 37L25 38L27 38L27 39L28 39L28 40L29 40L29 39L28 39L28 37ZM34 37L34 38L37 38L37 37ZM18 38L18 39L19 39L19 38ZM41 38L41 39L42 39L42 38ZM53 38L53 39L54 39L54 38ZM2 39L2 40L3 40L3 41L4 41L4 40L5 40L5 39ZM8 39L8 41L9 41L9 39ZM38 39L38 40L39 40L39 39ZM62 39L62 40L63 40L63 39ZM21 41L21 42L20 42L20 44L21 44L21 43L22 43L22 41ZM27 41L27 43L26 43L26 44L28 44L28 45L29 45L29 44L28 44L28 42L29 42L29 41ZM42 41L42 42L45 42L45 41ZM6 43L6 44L7 44L7 43ZM14 43L14 45L15 45L15 43ZM64 43L64 44L65 44L65 43ZM45 44L45 45L46 45L46 44ZM60 44L60 45L61 45L61 46L62 46L62 45L61 45L61 44ZM50 45L50 46L51 46L51 47L52 47L52 48L51 48L51 49L52 49L52 50L50 50L50 51L52 51L52 50L54 50L54 51L55 51L55 53L53 53L53 52L52 52L52 53L51 53L51 52L50 52L50 53L49 53L49 52L46 52L46 53L44 53L44 55L42 55L42 56L43 56L43 57L45 57L45 56L46 56L46 58L47 58L47 59L48 59L48 60L49 60L49 61L50 61L50 60L51 60L51 63L50 63L50 64L51 64L51 63L52 63L52 61L53 61L53 60L54 60L54 59L52 59L52 57L51 57L51 56L50 56L50 55L53 55L53 54L54 54L54 56L55 56L55 54L57 54L57 53L56 53L56 51L57 51L57 49L58 49L58 47L59 47L59 46L58 46L58 47L57 47L57 48L54 48L54 49L53 49L53 47L55 47L55 46L53 46L53 45L52 45L52 46L51 46L51 45ZM13 46L13 47L12 47L12 50L13 50L13 49L14 49L14 48L13 48L13 47L14 47L14 46ZM40 46L40 47L41 47L41 48L43 48L43 50L46 50L46 49L44 49L44 48L46 48L46 47L45 47L45 46L44 46L44 48L43 48L43 47L41 47L41 46ZM52 46L52 47L53 47L53 46ZM6 47L6 48L5 48L5 49L6 49L6 48L7 48L7 47ZM49 47L49 48L50 48L50 47ZM30 48L30 49L31 49L31 48ZM38 48L38 49L39 49L39 48ZM18 49L18 50L19 50L19 49ZM55 49L55 50L56 50L56 49ZM63 49L63 50L64 50L64 49ZM20 50L20 52L21 52L21 50ZM40 50L40 52L41 52L41 51L42 51L42 52L43 52L43 51L42 51L42 50ZM4 52L4 53L5 53L5 52ZM30 53L30 54L31 54L31 53ZM35 53L35 55L37 55L37 56L38 56L38 55L37 55L37 53ZM46 53L46 55L47 55L47 57L48 57L48 58L49 58L49 59L51 59L51 60L52 60L52 59L51 59L51 58L50 58L50 57L48 57L48 53ZM39 54L39 55L40 55L40 54ZM10 55L10 56L11 56L11 59L12 59L12 55ZM16 55L16 56L18 56L18 58L19 58L19 55ZM44 55L44 56L45 56L45 55ZM61 56L61 57L62 57L62 58L63 58L63 56ZM15 57L15 58L14 58L14 59L13 59L13 60L12 60L12 61L11 61L11 62L12 62L12 61L13 61L13 63L12 63L12 64L13 64L13 63L14 63L14 64L15 64L15 62L18 62L18 61L17 61L17 57ZM31 57L31 60L34 60L34 57ZM55 57L55 58L56 58L56 57ZM57 57L57 60L60 60L60 57ZM32 58L32 59L33 59L33 58ZM40 58L40 59L39 59L39 60L38 60L38 61L42 61L42 62L43 62L43 60L44 60L44 58L42 58L42 59L41 59L41 58ZM58 58L58 59L59 59L59 58ZM40 59L40 60L41 60L41 59ZM55 59L55 60L56 60L56 59ZM14 60L14 62L15 62L15 60ZM28 60L28 61L29 61L29 60ZM46 60L46 62L47 62L47 60ZM24 61L24 63L23 63L23 64L24 64L24 63L25 63L25 64L26 64L26 63L27 63L27 64L29 64L29 63L27 63L27 62L26 62L26 63L25 63L25 61ZM33 61L33 62L34 62L34 61ZM36 61L36 62L35 62L35 63L36 63L36 62L37 62L37 61ZM48 62L48 63L49 63L49 62ZM64 62L64 63L63 63L63 65L64 65L64 63L65 63L65 62ZM16 63L16 64L17 64L17 63ZM38 63L38 64L37 64L37 65L40 65L40 64L39 64L39 63ZM0 0L0 7L7 7L7 0ZM1 1L1 6L6 6L6 1ZM2 2L2 5L5 5L5 2ZM58 0L58 7L65 7L65 0ZM59 1L59 6L64 6L64 1ZM60 2L60 5L63 5L63 2ZM0 58L0 65L7 65L7 58ZM1 59L1 64L6 64L6 59ZM2 60L2 63L5 63L5 60Z" fill="#000000"/></g></g></svg>
