<?xml version="1.0" encoding="UTF-8"?>
<svg xmlns="http://www.w3.org/2000/svg" version="1.1" width="300" height="300" viewBox="0 0 300 300"><rect x="0" y="0" width="300" height="300" fill="#ffffff"/><g transform="scale(4.348)"><g transform="translate(0,0)"><path fill-rule="evenodd" d="M10 0L10 1L8 1L8 2L9 2L9 3L8 3L8 4L10 4L10 5L11 5L11 6L10 6L10 7L9 7L9 5L8 5L8 7L9 7L9 8L6 8L6 9L5 9L5 8L0 8L0 9L2 9L2 11L1 11L1 12L0 12L0 13L1 13L1 14L0 14L0 15L1 15L1 16L0 16L0 17L1 17L1 18L0 18L0 19L1 19L1 18L3 18L3 19L5 19L5 18L6 18L6 19L8 19L8 20L9 20L9 18L6 18L6 17L8 17L8 15L7 15L7 14L8 14L8 13L7 13L7 12L5 12L5 13L7 13L7 14L5 14L5 15L3 15L3 14L4 14L4 10L5 10L5 11L8 11L8 12L9 12L9 11L8 11L8 10L10 10L10 13L9 13L9 17L10 17L10 21L11 21L11 22L9 22L9 21L7 21L7 20L5 20L5 21L3 21L3 22L2 22L2 23L3 23L3 24L5 24L5 22L6 22L6 23L7 23L7 24L6 24L6 25L5 25L5 26L4 26L4 27L3 27L3 25L2 25L2 24L1 24L1 20L0 20L0 25L2 25L2 27L3 27L3 28L1 28L1 26L0 26L0 28L1 28L1 29L2 29L2 30L0 30L0 31L1 31L1 32L0 32L0 33L1 33L1 36L0 36L0 37L1 37L1 38L0 38L0 41L2 41L2 40L3 40L3 41L4 41L4 42L5 42L5 43L7 43L7 44L6 44L6 45L7 45L7 46L6 46L6 47L5 47L5 46L3 46L3 45L2 45L2 44L1 44L1 43L3 43L3 42L0 42L0 45L1 45L1 46L2 46L2 47L0 47L0 53L1 53L1 54L5 54L5 53L7 53L7 54L6 54L6 55L2 55L2 56L1 56L1 57L0 57L0 61L1 61L1 58L2 58L2 59L3 59L3 58L4 58L4 59L7 59L7 58L5 58L5 56L6 56L6 57L9 57L9 59L8 59L8 63L9 63L9 62L10 62L10 64L8 64L8 69L9 69L9 66L10 66L10 67L14 67L14 66L13 66L13 64L14 64L14 65L15 65L15 64L14 64L14 62L12 62L12 63L11 63L11 62L10 62L10 61L11 61L11 58L12 58L12 59L13 59L13 60L12 60L12 61L13 61L13 60L14 60L14 61L15 61L15 60L14 60L14 59L16 59L16 60L17 60L17 62L16 62L16 63L17 63L17 64L18 64L18 65L17 65L17 66L16 66L16 67L15 67L15 68L16 68L16 67L17 67L17 69L22 69L22 68L24 68L24 69L26 69L26 68L27 68L27 67L28 67L28 68L29 68L29 69L32 69L32 68L31 68L31 67L34 67L34 68L36 68L36 69L38 69L38 68L37 68L37 67L39 67L39 68L41 68L41 66L44 66L44 68L42 68L42 69L44 69L44 68L47 68L47 69L49 69L49 68L48 68L48 67L47 67L47 66L48 66L48 65L49 65L49 66L50 66L50 67L51 67L51 68L52 68L52 66L54 66L54 67L53 67L53 68L54 68L54 69L56 69L56 68L55 68L55 67L56 67L56 66L55 66L55 65L56 65L56 64L55 64L55 63L54 63L54 62L55 62L55 61L56 61L56 62L58 62L58 63L59 63L59 64L57 64L57 65L60 65L60 66L59 66L59 67L58 67L58 68L57 68L57 69L58 69L58 68L60 68L60 69L62 69L62 67L63 67L63 68L67 68L67 69L68 69L68 68L67 68L67 67L66 67L66 66L67 66L67 65L69 65L69 64L68 64L68 61L69 61L69 59L68 59L68 58L69 58L69 57L68 57L68 58L67 58L67 59L66 59L66 57L67 57L67 56L68 56L68 55L67 55L67 54L69 54L69 53L67 53L67 52L68 52L68 50L69 50L69 49L68 49L68 48L67 48L67 47L68 47L68 46L67 46L67 45L68 45L68 44L67 44L67 43L68 43L68 42L69 42L69 41L68 41L68 42L67 42L67 40L68 40L68 38L67 38L67 37L68 37L68 36L69 36L69 35L68 35L68 34L69 34L69 33L68 33L68 32L69 32L69 31L68 31L68 29L69 29L69 28L67 28L67 27L68 27L68 26L67 26L67 25L69 25L69 24L68 24L68 18L69 18L69 17L67 17L67 15L68 15L68 16L69 16L69 15L68 15L68 14L69 14L69 13L68 13L68 14L65 14L65 16L66 16L66 18L65 18L65 17L63 17L63 18L62 18L62 16L64 16L64 15L63 15L63 14L64 14L64 13L63 13L63 14L62 14L62 12L64 12L64 11L62 11L62 8L61 8L61 6L60 6L60 7L59 7L59 4L57 4L57 5L58 5L58 7L59 7L59 9L60 9L60 10L61 10L61 11L60 11L60 12L59 12L59 11L56 11L56 10L57 10L57 9L56 9L56 7L57 7L57 6L56 6L56 4L53 4L53 5L52 5L52 4L51 4L51 6L50 6L50 7L49 7L49 6L48 6L48 7L47 7L47 6L46 6L46 5L44 5L44 3L45 3L45 4L46 4L46 3L45 3L45 2L44 2L44 3L43 3L43 0L41 0L41 1L38 1L38 0L37 0L37 1L35 1L35 4L32 4L32 3L33 3L33 2L32 2L32 1L30 1L30 0L28 0L28 1L25 1L25 0L23 0L23 1L24 1L24 2L26 2L26 3L24 3L24 4L21 4L21 3L23 3L23 2L22 2L22 1L21 1L21 3L17 3L17 1L18 1L18 2L20 2L20 1L19 1L19 0L13 0L13 1L14 1L14 3L15 3L15 1L16 1L16 5L14 5L14 4L13 4L13 3L12 3L12 4L10 4L10 3L11 3L11 2L10 2L10 1L11 1L11 0ZM33 0L33 1L34 1L34 0ZM44 0L44 1L45 1L45 0ZM47 0L47 4L49 4L49 5L50 5L50 4L49 4L49 3L50 3L50 0ZM51 0L51 1L52 1L52 0ZM53 0L53 1L55 1L55 2L54 2L54 3L59 3L59 2L57 2L57 1L61 1L61 0L56 0L56 1L55 1L55 0ZM41 1L41 2L37 2L37 3L38 3L38 4L37 4L37 5L38 5L38 6L37 6L37 7L38 7L38 6L39 6L39 7L40 7L40 5L41 5L41 2L42 2L42 1ZM27 2L27 3L26 3L26 4L25 4L25 7L26 7L26 9L24 9L24 8L23 8L23 7L24 7L24 6L23 6L23 5L22 5L22 6L21 6L21 4L20 4L20 6L19 6L19 8L20 8L20 12L21 12L21 13L19 13L19 14L18 14L18 13L17 13L17 12L16 12L16 11L19 11L19 9L18 9L18 8L17 8L17 7L18 7L18 6L17 6L17 5L19 5L19 4L17 4L17 5L16 5L16 6L15 6L15 7L14 7L14 6L13 6L13 5L12 5L12 6L11 6L11 8L10 8L10 10L12 10L12 11L11 11L11 12L12 12L12 14L10 14L10 16L12 16L12 18L13 18L13 19L14 19L14 21L12 21L12 22L11 22L11 23L12 23L12 24L11 24L11 25L10 25L10 26L9 26L9 23L8 23L8 26L7 26L7 25L6 25L6 26L7 26L7 27L6 27L6 28L5 28L5 27L4 27L4 28L3 28L3 30L2 30L2 31L3 31L3 32L2 32L2 33L3 33L3 34L2 34L2 36L3 36L3 37L2 37L2 39L4 39L4 40L5 40L5 37L4 37L4 36L3 36L3 35L4 35L4 33L3 33L3 32L5 32L5 31L6 31L6 32L9 32L9 33L11 33L11 35L12 35L12 36L10 36L10 34L9 34L9 36L10 36L10 38L9 38L9 37L8 37L8 38L9 38L9 39L6 39L6 40L10 40L10 39L12 39L12 40L13 40L13 41L12 41L12 43L11 43L11 42L10 42L10 41L6 41L6 42L9 42L9 43L8 43L8 44L9 44L9 45L10 45L10 46L8 46L8 47L10 47L10 49L9 49L9 48L7 48L7 47L6 47L6 48L5 48L5 49L3 49L3 53L4 53L4 51L5 51L5 52L7 52L7 51L8 51L8 55L10 55L10 57L11 57L11 56L12 56L12 57L13 57L13 58L16 58L16 57L17 57L17 55L18 55L18 54L17 54L17 53L16 53L16 52L19 52L19 53L20 53L20 56L21 56L21 57L20 57L20 58L17 58L17 59L19 59L19 61L18 61L18 62L17 62L17 63L18 63L18 62L19 62L19 63L20 63L20 65L19 65L19 66L20 66L20 67L19 67L19 68L22 68L22 67L24 67L24 68L25 68L25 67L27 67L27 66L28 66L28 65L29 65L29 66L30 66L30 65L29 65L29 64L30 64L30 63L29 63L29 62L31 62L31 63L32 63L32 60L33 60L33 59L32 59L32 58L31 58L31 61L27 61L27 60L28 60L28 59L29 59L29 60L30 60L30 59L29 59L29 57L30 57L30 56L29 56L29 57L27 57L27 56L26 56L26 53L28 53L28 54L27 54L27 55L30 55L30 53L28 53L28 52L29 52L29 50L30 50L30 51L32 51L32 52L34 52L34 53L33 53L33 54L32 54L32 53L31 53L31 56L32 56L32 57L35 57L35 58L34 58L34 59L35 59L35 58L37 58L37 57L38 57L38 58L39 58L39 57L41 57L41 56L39 56L39 54L40 54L40 55L43 55L43 56L42 56L42 57L43 57L43 60L42 60L42 58L41 58L41 59L40 59L40 62L39 62L39 61L38 61L38 60L39 60L39 59L38 59L38 60L37 60L37 61L38 61L38 66L39 66L39 67L40 67L40 66L41 66L41 64L44 64L44 66L45 66L45 67L46 67L46 66L47 66L47 65L48 65L48 64L50 64L50 63L51 63L51 61L50 61L50 58L51 58L51 60L52 60L52 63L53 63L53 64L51 64L51 65L50 65L50 66L51 66L51 65L55 65L55 64L54 64L54 63L53 63L53 62L54 62L54 61L55 61L55 60L56 60L56 61L58 61L58 62L59 62L59 61L60 61L60 60L61 60L61 58L62 58L62 60L65 60L65 59L64 59L64 58L65 58L65 57L66 57L66 56L64 56L64 57L63 57L63 56L62 56L62 55L66 55L66 54L65 54L65 53L66 53L66 52L65 52L65 51L66 51L66 50L67 50L67 48L65 48L65 47L66 47L66 44L64 44L64 43L65 43L65 41L66 41L66 40L65 40L65 41L64 41L64 40L62 40L62 39L65 39L65 38L66 38L66 39L67 39L67 38L66 38L66 37L67 37L67 36L68 36L68 35L67 35L67 36L65 36L65 37L64 37L64 38L62 38L62 37L60 37L60 38L62 38L62 39L59 39L59 37L57 37L57 36L60 36L60 35L58 35L58 34L59 34L59 32L62 32L62 31L63 31L63 32L64 32L64 30L65 30L65 31L67 31L67 32L66 32L66 33L65 33L65 35L66 35L66 33L67 33L67 34L68 34L68 33L67 33L67 32L68 32L68 31L67 31L67 28L66 28L66 29L65 29L65 28L63 28L63 29L62 29L62 26L63 26L63 27L64 27L64 26L63 26L63 25L65 25L65 22L66 22L66 23L67 23L67 22L66 22L66 21L67 21L67 20L66 20L66 19L65 19L65 18L63 18L63 19L62 19L62 18L59 18L59 17L57 17L57 14L58 14L58 16L59 16L59 13L57 13L57 12L55 12L55 13L57 13L57 14L54 14L54 16L56 16L56 17L55 17L55 19L53 19L53 20L51 20L51 21L50 21L50 22L49 22L49 21L46 21L46 20L48 20L48 18L49 18L49 17L50 17L50 19L51 19L51 17L53 17L53 16L52 16L52 15L53 15L53 13L54 13L54 12L50 12L50 11L51 11L51 9L53 9L53 8L55 8L55 7L56 7L56 6L55 6L55 7L54 7L54 6L53 6L53 7L52 7L52 6L51 6L51 7L50 7L50 8L51 8L51 9L50 9L50 10L47 10L47 7L46 7L46 6L45 6L45 7L44 7L44 5L43 5L43 7L42 7L42 6L41 6L41 8L38 8L38 12L39 12L39 13L38 13L38 14L37 14L37 17L36 17L36 18L35 18L35 19L33 19L33 18L34 18L34 17L35 17L35 16L36 16L36 15L35 15L35 14L36 14L36 13L37 13L37 10L36 10L36 9L34 9L34 10L36 10L36 11L33 11L33 9L32 9L32 11L30 11L30 9L31 9L31 8L32 8L32 5L31 5L31 4L29 4L29 3L30 3L30 2L29 2L29 3L28 3L28 2ZM31 2L31 3L32 3L32 2ZM60 3L60 5L61 5L61 3ZM26 4L26 7L27 7L27 6L28 6L28 7L29 7L29 6L30 6L30 7L31 7L31 6L30 6L30 5L29 5L29 6L28 6L28 5L27 5L27 4ZM33 5L33 8L36 8L36 5ZM12 6L12 7L13 7L13 8L14 8L14 9L15 9L15 11L14 11L14 10L13 10L13 9L12 9L12 8L11 8L11 9L12 9L12 10L13 10L13 11L14 11L14 12L15 12L15 11L16 11L16 9L15 9L15 8L16 8L16 7L17 7L17 6L16 6L16 7L15 7L15 8L14 8L14 7L13 7L13 6ZM20 6L20 7L21 7L21 6ZM22 6L22 7L23 7L23 6ZM34 6L34 7L35 7L35 6ZM45 7L45 9L44 9L44 8L43 8L43 9L40 9L40 10L39 10L39 12L40 12L40 13L39 13L39 14L40 14L40 15L38 15L38 16L40 16L40 15L42 15L42 14L43 14L43 13L44 13L44 11L43 11L43 13L42 13L42 14L41 14L41 12L42 12L42 10L45 10L45 9L46 9L46 7ZM21 8L21 9L22 9L22 8ZM27 8L27 9L26 9L26 10L27 10L27 11L26 11L26 12L24 12L24 11L23 11L23 12L24 12L24 13L23 13L23 14L24 14L24 15L23 15L23 17L22 17L22 16L21 16L21 17L18 17L18 16L17 16L17 15L18 15L18 14L17 14L17 15L16 15L16 14L15 14L15 13L14 13L14 15L15 15L15 16L14 16L14 17L13 17L13 18L14 18L14 17L15 17L15 19L18 19L18 20L16 20L16 21L17 21L17 22L16 22L16 23L15 23L15 24L14 24L14 27L13 27L13 24L12 24L12 25L11 25L11 27L12 27L12 28L11 28L11 30L12 30L12 32L11 32L11 31L10 31L10 30L9 30L9 31L10 31L10 32L11 32L11 33L12 33L12 32L14 32L14 31L13 31L13 30L12 30L12 29L13 29L13 28L14 28L14 27L16 27L16 28L15 28L15 29L14 29L14 30L15 30L15 31L16 31L16 30L15 30L15 29L16 29L16 28L17 28L17 29L18 29L18 31L17 31L17 32L18 32L18 33L17 33L17 35L16 35L16 34L15 34L15 33L16 33L16 32L15 32L15 33L14 33L14 34L13 34L13 36L12 36L12 37L11 37L11 38L12 38L12 39L13 39L13 40L16 40L16 38L15 38L15 37L16 37L16 36L17 36L17 38L20 38L20 39L17 39L17 45L18 45L18 46L15 46L15 45L16 45L16 43L15 43L15 42L16 42L16 41L14 41L14 43L15 43L15 45L14 45L14 46L13 46L13 47L12 47L12 45L13 45L13 43L12 43L12 44L11 44L11 49L12 49L12 50L10 50L10 51L9 51L9 50L8 50L8 51L9 51L9 52L10 52L10 54L11 54L11 55L13 55L13 57L16 57L16 56L14 56L14 55L15 55L15 54L16 54L16 53L15 53L15 51L14 51L14 50L15 50L15 49L13 49L13 47L15 47L15 48L16 48L16 49L18 49L18 50L20 50L20 51L19 51L19 52L22 52L22 51L21 51L21 49L18 49L18 48L17 48L17 47L18 47L18 46L19 46L19 45L21 45L21 44L24 44L24 45L23 45L23 46L22 46L22 47L21 47L21 46L20 46L20 48L22 48L22 47L23 47L23 48L26 48L26 47L25 47L25 45L26 45L26 46L27 46L27 45L26 45L26 44L27 44L27 43L28 43L28 41L30 41L30 42L29 42L29 43L31 43L31 44L29 44L29 46L28 46L28 47L27 47L27 48L29 48L29 49L31 49L31 50L33 50L33 51L34 51L34 50L35 50L35 52L36 52L36 53L37 53L37 54L39 54L39 51L41 51L41 52L43 52L43 53L40 53L40 54L43 54L43 53L44 53L44 56L43 56L43 57L44 57L44 56L46 56L46 57L49 57L49 58L48 58L48 59L49 59L49 58L50 58L50 57L51 57L51 54L50 54L50 53L49 53L49 50L50 50L50 49L49 49L49 48L51 48L51 47L52 47L52 46L55 46L55 47L56 47L56 48L54 48L54 49L52 49L52 50L51 50L51 51L50 51L50 52L52 52L52 50L53 50L53 53L52 53L52 56L53 56L53 57L54 57L54 58L53 58L53 59L52 59L52 60L53 60L53 61L54 61L54 60L53 60L53 59L54 59L54 58L55 58L55 59L56 59L56 58L55 58L55 57L56 57L56 56L55 56L55 55L54 55L54 54L55 54L55 53L56 53L56 55L57 55L57 56L58 56L58 55L59 55L59 54L60 54L60 53L59 53L59 52L60 52L60 51L61 51L61 52L62 52L62 53L64 53L64 51L61 51L61 50L62 50L62 49L65 49L65 48L63 48L63 47L62 47L62 46L61 46L61 44L62 44L62 45L64 45L64 44L62 44L62 42L60 42L60 43L59 43L59 42L58 42L58 41L56 41L56 40L57 40L57 38L56 38L56 36L57 36L57 34L58 34L58 32L57 32L57 34L55 34L55 33L56 33L56 32L53 32L53 33L52 33L52 34L53 34L53 38L54 38L54 39L52 39L52 40L53 40L53 42L52 42L52 41L51 41L51 44L50 44L50 45L49 45L49 44L48 44L48 43L50 43L50 39L48 39L48 40L47 40L47 38L45 38L45 37L49 37L49 38L50 38L50 37L51 37L51 38L52 38L52 37L51 37L51 36L52 36L52 35L51 35L51 34L50 34L50 33L49 33L49 32L46 32L46 31L50 31L50 32L51 32L51 31L50 31L50 29L51 29L51 26L50 26L50 25L51 25L51 22L52 22L52 23L53 23L53 22L57 22L57 21L59 21L59 24L60 24L60 25L59 25L59 26L58 26L58 25L57 25L57 26L55 26L55 25L56 25L56 24L55 24L55 23L54 23L54 24L53 24L53 25L52 25L52 26L55 26L55 27L56 27L56 28L53 28L53 31L56 31L56 30L55 30L55 29L56 29L56 28L57 28L57 26L58 26L58 29L59 29L59 30L61 30L61 31L62 31L62 29L61 29L61 28L60 28L60 27L59 27L59 26L62 26L62 25L63 25L63 24L64 24L64 23L63 23L63 24L62 24L62 25L61 25L61 24L60 24L60 22L61 22L61 23L62 23L62 21L63 21L63 22L64 22L64 21L63 21L63 20L62 20L62 19L59 19L59 18L57 18L57 17L56 17L56 18L57 18L57 21L56 21L56 20L55 20L55 21L51 21L51 22L50 22L50 23L49 23L49 22L47 22L47 24L46 24L46 22L44 22L44 20L41 20L41 21L39 21L39 20L40 20L40 19L43 19L43 17L44 17L44 16L45 16L45 18L44 18L44 19L45 19L45 18L46 18L46 19L47 19L47 18L46 18L46 17L49 17L49 16L50 16L50 15L51 15L51 14L52 14L52 13L51 13L51 14L50 14L50 12L47 12L47 14L50 14L50 15L48 15L48 16L46 16L46 14L44 14L44 16L42 16L42 17L41 17L41 18L39 18L39 19L38 19L38 17L37 17L37 18L36 18L36 19L35 19L35 20L36 20L36 21L33 21L33 22L32 22L32 19L31 19L31 18L33 18L33 16L34 16L34 15L33 15L33 16L32 16L32 15L31 15L31 13L32 13L32 12L30 12L30 11L29 11L29 10L27 10L27 9L28 9L28 8ZM29 8L29 9L30 9L30 8ZM60 8L60 9L61 9L61 8ZM63 8L63 10L64 10L64 8ZM65 8L65 13L67 13L67 11L68 11L68 12L69 12L69 11L68 11L68 8L67 8L67 9L66 9L66 8ZM3 9L3 10L4 10L4 9ZM6 9L6 10L7 10L7 9ZM17 9L17 10L18 10L18 9ZM23 9L23 10L24 10L24 9ZM55 9L55 10L52 10L52 11L55 11L55 10L56 10L56 9ZM40 10L40 12L41 12L41 10ZM66 10L66 11L67 11L67 10ZM2 11L2 12L1 12L1 13L2 13L2 12L3 12L3 11ZM21 11L21 12L22 12L22 11ZM28 11L28 13L27 13L27 12L26 12L26 13L25 13L25 15L26 15L26 16L25 16L25 17L26 17L26 18L27 18L27 19L25 19L25 18L23 18L23 20L20 20L20 22L21 22L21 23L20 23L20 26L19 26L19 25L18 25L18 22L17 22L17 23L16 23L16 25L15 25L15 26L16 26L16 25L18 25L18 27L17 27L17 28L20 28L20 31L19 31L19 32L20 32L20 33L19 33L19 34L20 34L20 35L19 35L19 37L20 37L20 38L21 38L21 37L22 37L22 39L21 39L21 40L22 40L22 41L20 41L20 40L19 40L19 41L20 41L20 42L19 42L19 43L18 43L18 44L20 44L20 42L21 42L21 43L22 43L22 42L23 42L23 43L24 43L24 44L26 44L26 43L25 43L25 42L27 42L27 41L28 41L28 40L30 40L30 41L31 41L31 43L32 43L32 44L33 44L33 45L31 45L31 47L29 47L29 48L31 48L31 49L36 49L36 50L37 50L37 49L38 49L38 51L39 51L39 50L41 50L41 51L42 51L42 50L41 50L41 49L42 49L42 48L43 48L43 47L44 47L44 49L43 49L43 50L44 50L44 49L45 49L45 52L44 52L44 51L43 51L43 52L44 52L44 53L45 53L45 54L46 54L46 56L48 56L48 55L49 55L49 57L50 57L50 55L49 55L49 53L45 53L45 52L46 52L46 51L47 51L47 47L48 47L48 48L49 48L49 47L50 47L50 46L52 46L52 45L54 45L54 44L51 44L51 45L50 45L50 46L47 46L47 45L46 45L46 44L47 44L47 43L46 43L46 42L49 42L49 41L47 41L47 40L45 40L45 39L41 39L41 38L39 38L39 37L41 37L41 36L42 36L42 37L43 37L43 36L44 36L44 37L45 37L45 36L47 36L47 35L49 35L49 37L50 37L50 36L51 36L51 35L50 35L50 34L48 34L48 33L46 33L46 32L44 32L44 29L45 29L45 28L46 28L46 27L47 27L47 28L49 28L49 29L48 29L48 30L49 30L49 29L50 29L50 27L47 27L47 25L48 25L48 24L49 24L49 25L50 25L50 24L49 24L49 23L48 23L48 24L47 24L47 25L46 25L46 24L45 24L45 23L44 23L44 22L42 22L42 21L41 21L41 22L42 22L42 23L43 23L43 24L44 24L44 25L43 25L43 26L46 26L46 27L45 27L45 28L44 28L44 27L43 27L43 28L44 28L44 29L43 29L43 30L42 30L42 27L39 27L39 26L41 26L41 25L42 25L42 24L39 24L39 23L40 23L40 22L37 22L37 23L38 23L38 24L36 24L36 23L35 23L35 22L33 22L33 23L31 23L31 27L33 27L33 30L31 30L31 31L32 31L32 32L34 32L34 31L33 31L33 30L34 30L34 29L36 29L36 28L35 28L35 27L36 27L36 26L35 26L35 27L34 27L34 26L32 26L32 24L33 24L33 25L34 25L34 24L35 24L35 25L38 25L38 28L40 28L40 29L37 29L37 30L40 30L40 31L43 31L43 32L38 32L38 31L35 31L35 32L38 32L38 33L37 33L37 34L39 34L39 35L37 35L37 36L38 36L38 37L34 37L34 38L32 38L32 37L31 37L31 38L30 38L30 37L29 37L29 36L28 36L28 35L27 35L27 34L28 34L28 33L29 33L29 32L28 32L28 33L25 33L25 34L23 34L23 36L21 36L21 35L22 35L22 34L21 34L21 33L23 33L23 32L22 32L22 31L24 31L24 32L26 32L26 31L25 31L25 30L29 30L29 25L30 25L30 24L28 24L28 23L27 23L27 22L29 22L29 23L30 23L30 22L31 22L31 21L30 21L30 20L31 20L31 19L30 19L30 18L31 18L31 17L29 17L29 16L28 16L28 15L30 15L30 14L29 14L29 11ZM61 11L61 12L60 12L60 13L61 13L61 12L62 12L62 11ZM33 12L33 14L34 14L34 13L36 13L36 12ZM45 12L45 13L46 13L46 12ZM21 13L21 14L22 14L22 13ZM26 13L26 14L27 14L27 13ZM12 14L12 16L13 16L13 14ZM19 14L19 16L20 16L20 14ZM2 15L2 16L1 16L1 17L3 17L3 18L4 18L4 17L3 17L3 15ZM6 15L6 16L5 16L5 17L6 17L6 16L7 16L7 15ZM61 15L61 16L62 16L62 15ZM15 16L15 17L17 17L17 18L18 18L18 19L20 19L20 18L18 18L18 17L17 17L17 16ZM21 17L21 18L22 18L22 17ZM27 17L27 18L28 18L28 17ZM11 19L11 20L12 20L12 19ZM24 19L24 20L25 20L25 21L23 21L23 22L22 22L22 21L21 21L21 22L22 22L22 23L21 23L21 24L22 24L22 25L21 25L21 26L22 26L22 27L20 27L20 28L23 28L23 27L24 27L24 29L23 29L23 30L25 30L25 29L26 29L26 28L27 28L27 29L28 29L28 26L27 26L27 25L26 25L26 23L25 23L25 24L23 24L23 22L25 22L25 21L26 21L26 20L25 20L25 19ZM27 19L27 21L28 21L28 19ZM29 19L29 20L30 20L30 19ZM58 19L58 20L59 20L59 21L60 21L60 20L59 20L59 19ZM37 20L37 21L38 21L38 20ZM61 20L61 21L62 21L62 20ZM65 20L65 21L66 21L66 20ZM6 21L6 22L7 22L7 21ZM14 21L14 22L15 22L15 21ZM29 21L29 22L30 22L30 21ZM12 22L12 23L13 23L13 22ZM33 23L33 24L34 24L34 23ZM38 24L38 25L39 25L39 24ZM22 25L22 26L24 26L24 25ZM25 25L25 27L26 27L26 25ZM8 26L8 27L7 27L7 28L6 28L6 29L5 29L5 28L4 28L4 31L5 31L5 30L6 30L6 31L7 31L7 30L6 30L6 29L9 29L9 28L8 28L8 27L9 27L9 26ZM31 28L31 29L32 29L32 28ZM59 28L59 29L60 29L60 28ZM21 29L21 31L22 31L22 29ZM46 29L46 30L45 30L45 31L46 31L46 30L47 30L47 29ZM63 29L63 30L64 30L64 29ZM43 32L43 33L40 33L40 35L39 35L39 36L40 36L40 35L41 35L41 34L43 34L43 33L44 33L44 36L45 36L45 33L44 33L44 32ZM5 33L5 36L8 36L8 33ZM31 33L31 35L30 35L30 34L29 34L29 35L30 35L30 36L31 36L31 35L32 35L32 33ZM33 33L33 36L36 36L36 33ZM61 33L61 36L64 36L64 33ZM6 34L6 35L7 35L7 34ZM25 34L25 35L26 35L26 36L25 36L25 37L23 37L23 38L25 38L25 39L23 39L23 40L24 40L24 41L23 41L23 42L24 42L24 41L26 41L26 40L25 40L25 39L27 39L27 40L28 40L28 39L30 39L30 38L25 38L25 37L26 37L26 36L27 36L27 37L28 37L28 36L27 36L27 35L26 35L26 34ZM34 34L34 35L35 35L35 34ZM54 34L54 36L56 36L56 35L55 35L55 34ZM62 34L62 35L63 35L63 34ZM17 35L17 36L18 36L18 35ZM42 35L42 36L43 36L43 35ZM13 36L13 37L14 37L14 36ZM3 37L3 38L4 38L4 37ZM6 37L6 38L7 38L7 37ZM35 38L35 39L33 39L33 40L32 40L32 39L31 39L31 40L32 40L32 42L33 42L33 43L34 43L34 44L37 44L37 45L36 45L36 47L35 47L35 46L32 46L32 47L33 47L33 48L36 48L36 47L38 47L38 44L40 44L40 45L39 45L39 46L40 46L40 47L39 47L39 48L38 48L38 49L39 49L39 48L40 48L40 47L41 47L41 48L42 48L42 46L44 46L44 44L46 44L46 43L45 43L45 42L44 42L44 40L41 40L41 39L38 39L38 38ZM55 38L55 39L54 39L54 40L56 40L56 38ZM37 39L37 41L36 41L36 42L34 42L34 41L35 41L35 40L34 40L34 41L33 41L33 42L34 42L34 43L37 43L37 44L38 44L38 42L39 42L39 43L40 43L40 44L41 44L41 43L40 43L40 41L41 41L41 40L39 40L39 41L38 41L38 39ZM61 40L61 41L62 41L62 40ZM37 41L37 42L38 42L38 41ZM55 41L55 42L53 42L53 43L55 43L55 44L56 44L56 46L57 46L57 47L58 47L58 48L59 48L59 49L57 49L57 48L56 48L56 49L55 49L55 51L54 51L54 52L55 52L55 51L56 51L56 50L58 50L58 52L56 52L56 53L57 53L57 54L59 54L59 53L58 53L58 52L59 52L59 50L61 50L61 49L62 49L62 47L60 47L60 48L59 48L59 45L60 45L60 44L61 44L61 43L60 43L60 44L59 44L59 43L58 43L58 42L57 42L57 43L55 43L55 42L56 42L56 41ZM63 41L63 42L64 42L64 41ZM43 42L43 43L44 43L44 42ZM66 42L66 43L67 43L67 42ZM58 44L58 45L59 45L59 44ZM41 45L41 46L42 46L42 45ZM45 46L45 49L46 49L46 46ZM64 46L64 47L65 47L65 46ZM2 47L2 48L4 48L4 47ZM6 48L6 49L5 49L5 51L7 51L7 50L6 50L6 49L7 49L7 48ZM1 49L1 51L2 51L2 49ZM22 49L22 50L25 50L25 52L24 52L24 51L23 51L23 52L24 52L24 53L21 53L21 54L22 54L22 55L21 55L21 56L22 56L22 57L21 57L21 58L20 58L20 60L23 60L23 61L24 61L24 62L23 62L23 64L24 64L24 65L23 65L23 66L25 66L25 65L28 65L28 63L27 63L27 62L25 62L25 61L26 61L26 60L27 60L27 59L28 59L28 58L26 58L26 60L25 60L25 57L26 57L26 56L23 56L23 54L24 54L24 55L25 55L25 53L26 53L26 52L28 52L28 51L26 51L26 49ZM27 49L27 50L28 50L28 49ZM10 51L10 52L13 52L13 53L14 53L14 51ZM1 52L1 53L2 53L2 52ZM37 52L37 53L38 53L38 52ZM53 53L53 54L54 54L54 53ZM33 54L33 55L34 55L34 54ZM61 54L61 55L62 55L62 54ZM6 55L6 56L7 56L7 55ZM35 55L35 57L37 57L37 56L38 56L38 55ZM53 55L53 56L54 56L54 57L55 57L55 56L54 56L54 55ZM3 56L3 57L4 57L4 56ZM60 56L60 57L59 57L59 59L60 59L60 58L61 58L61 57L62 57L62 58L63 58L63 57L62 57L62 56ZM22 57L22 58L24 58L24 57ZM45 58L45 59L44 59L44 60L43 60L43 61L42 61L42 60L41 60L41 62L42 62L42 63L43 63L43 61L44 61L44 60L45 60L45 61L47 61L47 62L44 62L44 64L45 64L45 66L46 66L46 64L45 64L45 63L47 63L47 64L48 64L48 63L47 63L47 62L50 62L50 61L49 61L49 60L46 60L46 58ZM23 59L23 60L24 60L24 61L25 61L25 60L24 60L24 59ZM57 59L57 60L58 60L58 59ZM67 59L67 60L68 60L68 59ZM3 60L3 61L5 61L5 60ZM6 60L6 61L7 61L7 60ZM9 60L9 61L10 61L10 60ZM19 61L19 62L20 62L20 63L21 63L21 62L20 62L20 61ZM33 61L33 64L36 64L36 61ZM61 61L61 64L64 64L64 61ZM34 62L34 63L35 63L35 62ZM62 62L62 63L63 63L63 62ZM65 62L65 63L66 63L66 62ZM25 63L25 64L26 64L26 63ZM39 63L39 64L41 64L41 63ZM10 64L10 66L11 66L11 65L12 65L12 64ZM65 64L65 65L61 65L61 67L60 67L60 68L61 68L61 67L62 67L62 66L63 66L63 67L65 67L65 65L67 65L67 64ZM31 65L31 66L32 66L32 65ZM33 65L33 66L34 66L34 67L37 67L37 65ZM21 66L21 67L22 67L22 66ZM29 67L29 68L30 68L30 67ZM10 68L10 69L12 69L12 68ZM0 0L0 7L7 7L7 0ZM1 1L1 6L6 6L6 1ZM2 2L2 5L5 5L5 2ZM62 0L62 7L69 7L69 0ZM63 1L63 6L68 6L68 1ZM64 2L64 5L67 5L67 2ZM0 62L0 69L7 69L7 62ZM1 63L1 68L6 68L6 63ZM2 64L2 67L5 67L5 64Z" fill="#000000"/></g></g></svg>
