<?xml version="1.0" encoding="UTF-8"?>
<svg xmlns="http://www.w3.org/2000/svg" version="1.1" width="300" height="300" viewBox="0 0 300 300"><rect x="0" y="0" width="300" height="300" fill="#ffffff"/><g transform="scale(4.348)"><g transform="translate(0,0)"><path fill-rule="evenodd" d="M8 0L8 4L9 4L9 5L8 5L8 7L9 7L9 6L10 6L10 8L9 8L9 9L10 9L10 8L12 8L12 7L13 7L13 6L14 6L14 7L15 7L15 6L14 6L14 5L16 5L16 4L17 4L17 3L18 3L18 2L17 2L17 3L15 3L15 4L13 4L13 2L11 2L11 1L12 1L12 0L11 0L11 1L9 1L9 0ZM13 0L13 1L14 1L14 2L16 2L16 1L20 1L20 2L22 2L22 3L19 3L19 4L20 4L20 7L19 7L19 6L18 6L18 5L17 5L17 6L16 6L16 7L17 7L17 8L14 8L14 9L13 9L13 10L15 10L15 11L17 11L17 10L18 10L18 9L20 9L20 10L19 10L19 11L18 11L18 12L15 12L15 13L14 13L14 12L13 12L13 11L12 11L12 10L11 10L11 11L12 11L12 12L9 12L9 10L8 10L8 9L7 9L7 8L4 8L4 9L5 9L5 11L4 11L4 10L3 10L3 9L2 9L2 8L0 8L0 13L1 13L1 9L2 9L2 11L4 11L4 12L3 12L3 13L2 13L2 14L3 14L3 15L2 15L2 18L1 18L1 19L0 19L0 22L1 22L1 23L0 23L0 27L3 27L3 29L2 29L2 28L1 28L1 29L0 29L0 30L1 30L1 32L0 32L0 34L1 34L1 35L0 35L0 37L1 37L1 38L0 38L0 39L1 39L1 40L2 40L2 39L1 39L1 38L2 38L2 36L1 36L1 35L2 35L2 34L1 34L1 33L2 33L2 32L3 32L3 33L4 33L4 34L3 34L3 35L4 35L4 37L3 37L3 41L2 41L2 42L5 42L5 44L6 44L6 45L7 45L7 46L6 46L6 47L8 47L8 49L7 49L7 48L6 48L6 49L5 49L5 47L2 47L2 49L0 49L0 56L1 56L1 53L2 53L2 54L3 54L3 56L2 56L2 57L3 57L3 56L4 56L4 57L5 57L5 58L4 58L4 59L11 59L11 60L10 60L10 61L9 61L9 60L6 60L6 61L8 61L8 62L10 62L10 63L8 63L8 65L10 65L10 67L11 67L11 66L12 66L12 69L13 69L13 67L14 67L14 69L17 69L17 68L16 68L16 65L17 65L17 66L19 66L19 67L18 67L18 69L20 69L20 68L19 68L19 67L20 67L20 66L21 66L21 69L22 69L22 67L23 67L23 68L24 68L24 67L25 67L25 68L26 68L26 69L27 69L27 67L28 67L28 66L29 66L29 68L28 68L28 69L31 69L31 68L32 68L32 69L33 69L33 68L32 68L32 67L34 67L34 68L35 68L35 67L34 67L34 65L35 65L35 66L36 66L36 65L38 65L38 67L39 67L39 66L40 66L40 63L41 63L41 67L40 67L40 68L38 68L38 69L40 69L40 68L41 68L41 67L43 67L43 63L42 63L42 62L44 62L44 69L46 69L46 67L45 67L45 62L46 62L46 61L45 61L45 59L46 59L46 60L47 60L47 63L46 63L46 64L47 64L47 65L48 65L48 66L49 66L49 67L48 67L48 69L50 69L50 66L51 66L51 65L52 65L52 66L53 66L53 67L51 67L51 69L52 69L52 68L54 68L54 69L55 69L55 67L54 67L54 66L55 66L55 64L53 64L53 65L52 65L52 63L53 63L53 62L55 62L55 63L56 63L56 66L57 66L57 67L58 67L58 68L56 68L56 69L61 69L61 68L62 68L62 69L64 69L64 67L67 67L67 66L69 66L69 65L66 65L66 66L64 66L64 65L65 65L65 63L66 63L66 62L67 62L67 64L69 64L69 63L68 63L68 62L69 62L69 61L68 61L68 58L69 58L69 57L68 57L68 56L69 56L69 55L67 55L67 53L69 53L69 52L68 52L68 50L67 50L67 52L65 52L65 50L64 50L64 49L65 49L65 47L66 47L66 46L67 46L67 47L68 47L68 49L69 49L69 47L68 47L68 45L69 45L69 44L68 44L68 42L69 42L69 40L68 40L68 42L67 42L67 44L65 44L65 45L66 45L66 46L65 46L65 47L63 47L63 48L62 48L62 46L61 46L61 45L63 45L63 46L64 46L64 45L63 45L63 44L64 44L64 43L65 43L65 42L64 42L64 43L63 43L63 44L61 44L61 45L60 45L60 46L58 46L58 45L57 45L57 43L56 43L56 45L54 45L54 43L53 43L53 42L56 42L56 41L57 41L57 42L58 42L58 40L56 40L56 41L51 41L51 40L50 40L50 43L51 43L51 45L50 45L50 44L49 44L49 42L48 42L48 44L47 44L47 43L46 43L46 44L44 44L44 46L46 46L46 45L47 45L47 47L45 47L45 48L44 48L44 47L43 47L43 44L41 44L41 43L38 43L38 42L43 42L43 39L45 39L45 40L44 40L44 43L45 43L45 42L46 42L46 37L47 37L47 41L49 41L49 39L51 39L51 38L52 38L52 39L54 39L54 38L55 38L55 37L54 37L54 36L53 36L53 34L52 34L52 32L56 32L56 35L55 35L55 33L54 33L54 35L55 35L55 36L56 36L56 37L57 37L57 38L58 38L58 39L59 39L59 40L60 40L60 42L59 42L59 43L58 43L58 44L59 44L59 43L62 43L62 42L63 42L63 41L65 41L65 40L64 40L64 39L66 39L66 38L67 38L67 39L68 39L68 38L69 38L69 35L68 35L68 32L67 32L67 33L66 33L66 32L63 32L63 31L61 31L61 29L62 29L62 30L63 30L63 29L64 29L64 28L65 28L65 29L66 29L66 28L65 28L65 27L63 27L63 26L64 26L64 24L65 24L65 22L64 22L64 20L65 20L65 18L66 18L66 19L67 19L67 20L66 20L66 22L67 22L67 20L68 20L68 21L69 21L69 20L68 20L68 18L66 18L66 17L67 17L67 16L68 16L68 14L69 14L69 11L68 11L68 10L69 10L69 8L65 8L65 9L64 9L64 8L63 8L63 9L62 9L62 10L61 10L61 8L58 8L58 7L59 7L59 4L57 4L57 5L56 5L56 2L57 2L57 3L59 3L59 2L58 2L58 1L61 1L61 0L56 0L56 2L55 2L55 0L52 0L52 1L54 1L54 2L52 2L52 4L50 4L50 3L49 3L49 1L48 1L48 3L49 3L49 4L50 4L50 5L51 5L51 6L50 6L50 8L51 8L51 9L49 9L49 8L47 8L47 6L46 6L46 7L45 7L45 6L44 6L44 5L46 5L46 4L47 4L47 2L46 2L46 3L45 3L45 1L46 1L46 0L45 0L45 1L44 1L44 0L40 0L40 2L39 2L39 3L40 3L40 4L41 4L41 5L42 5L42 7L41 7L41 6L40 6L40 5L39 5L39 4L38 4L38 3L37 3L37 4L34 4L34 3L36 3L36 2L38 2L38 1L39 1L39 0L38 0L38 1L34 1L34 3L33 3L33 4L32 4L32 3L31 3L31 1L33 1L33 0L31 0L31 1L30 1L30 0L23 0L23 2L22 2L22 0L16 0L16 1L15 1L15 0ZM50 0L50 2L51 2L51 0ZM24 1L24 2L23 2L23 4L24 4L24 3L25 3L25 1ZM27 1L27 3L26 3L26 4L28 4L28 5L27 5L27 7L26 7L26 6L25 6L25 7L24 7L24 6L23 6L23 5L21 5L21 7L20 7L20 8L21 8L21 9L22 9L22 14L23 14L23 15L19 15L19 16L18 16L18 17L17 17L17 16L16 16L16 15L18 15L18 14L17 14L17 13L15 13L15 14L14 14L14 15L13 15L13 14L12 14L12 15L11 15L11 14L10 14L10 13L9 13L9 12L8 12L8 13L6 13L6 14L7 14L7 15L6 15L6 16L7 16L7 17L6 17L6 18L5 18L5 19L6 19L6 20L7 20L7 19L6 19L6 18L8 18L8 22L7 22L7 21L4 21L4 22L5 22L5 24L7 24L7 25L5 25L5 27L4 27L4 28L5 28L5 30L7 30L7 31L5 31L5 32L11 32L11 33L12 33L12 34L11 34L11 35L10 35L10 36L9 36L9 37L8 37L8 40L7 40L7 39L6 39L6 40L7 40L7 41L6 41L6 42L8 42L8 40L10 40L10 41L11 41L11 40L12 40L12 41L14 41L14 42L11 42L11 43L10 43L10 44L9 44L9 43L8 43L8 44L7 44L7 43L6 43L6 44L7 44L7 45L8 45L8 46L9 46L9 47L10 47L10 48L9 48L9 49L8 49L8 50L7 50L7 49L6 49L6 50L7 50L7 51L5 51L5 50L4 50L4 48L3 48L3 49L2 49L2 50L1 50L1 51L3 51L3 52L2 52L2 53L3 53L3 52L4 52L4 53L5 53L5 54L7 54L7 55L4 55L4 56L7 56L7 57L6 57L6 58L7 58L7 57L8 57L8 56L10 56L10 57L9 57L9 58L11 58L11 57L14 57L14 58L13 58L13 59L14 59L14 58L15 58L15 57L17 57L17 56L15 56L15 55L14 55L14 54L13 54L13 53L15 53L15 54L17 54L17 55L18 55L18 53L15 53L15 52L13 52L13 53L11 53L11 52L10 52L10 50L12 50L12 51L13 51L13 50L14 50L14 51L16 51L16 52L17 52L17 50L18 50L18 49L19 49L19 51L20 51L20 50L21 50L21 51L22 51L22 50L23 50L23 49L25 49L25 52L22 52L22 53L21 53L21 55L22 55L22 56L24 56L24 55L23 55L23 53L25 53L25 58L24 58L24 57L21 57L21 56L20 56L20 53L19 53L19 57L21 57L21 58L22 58L22 59L20 59L20 58L16 58L16 59L15 59L15 60L12 60L12 61L11 61L11 62L12 62L12 61L14 61L14 62L13 62L13 64L11 64L11 63L10 63L10 64L11 64L11 65L12 65L12 66L13 66L13 64L15 64L15 65L16 65L16 64L17 64L17 65L18 65L18 64L19 64L19 65L20 65L20 64L19 64L19 63L21 63L21 62L22 62L22 61L23 61L23 64L22 64L22 66L23 66L23 67L24 67L24 66L23 66L23 64L24 64L24 63L25 63L25 65L29 65L29 64L31 64L31 65L32 65L32 66L33 66L33 65L32 65L32 64L31 64L31 63L32 63L32 62L31 62L31 61L29 61L29 60L32 60L32 58L33 58L33 55L32 55L32 54L33 54L33 53L34 53L34 54L35 54L35 53L36 53L36 55L35 55L35 56L34 56L34 59L33 59L33 60L34 60L34 59L35 59L35 60L38 60L38 61L37 61L37 64L38 64L38 61L39 61L39 63L40 63L40 62L41 62L41 60L38 60L38 59L39 59L39 58L40 58L40 59L41 59L41 58L40 58L40 57L41 57L41 56L42 56L42 57L44 57L44 54L45 54L45 53L46 53L46 54L48 54L48 55L49 55L49 57L46 57L46 58L47 58L47 59L49 59L49 58L50 58L50 59L51 59L51 60L52 60L52 61L51 61L51 62L50 62L50 60L49 60L49 63L47 63L47 64L49 64L49 66L50 66L50 65L51 65L51 62L52 62L52 61L54 61L54 60L52 60L52 58L50 58L50 56L52 56L52 57L55 57L55 59L56 59L56 60L55 60L55 62L56 62L56 63L58 63L58 64L57 64L57 65L58 65L58 66L59 66L59 67L60 67L60 68L61 68L61 67L62 67L62 68L63 68L63 67L64 67L64 66L62 66L62 65L61 65L61 66L60 66L60 63L59 63L59 62L60 62L60 59L61 59L61 60L62 60L62 59L63 59L63 60L64 60L64 59L65 59L65 61L66 61L66 60L67 60L67 59L65 59L65 58L68 58L68 57L65 57L65 56L67 56L67 55L66 55L66 54L65 54L65 52L64 52L64 50L62 50L62 48L61 48L61 49L60 49L60 47L61 47L61 46L60 46L60 47L59 47L59 48L57 48L57 49L58 49L58 50L57 50L57 52L58 52L58 50L59 50L59 51L60 51L60 50L61 50L61 51L63 51L63 52L62 52L62 55L61 55L61 57L62 57L62 59L61 59L61 58L60 58L60 56L59 56L59 55L58 55L58 54L61 54L61 52L59 52L59 53L58 53L58 54L56 54L56 53L55 53L55 54L56 54L56 56L53 56L53 55L54 55L54 54L52 54L52 53L53 53L53 52L54 52L54 51L56 51L56 49L55 49L55 47L56 47L56 46L57 46L57 45L56 45L56 46L54 46L54 48L52 48L52 50L50 50L50 49L51 49L51 47L52 47L52 46L51 46L51 47L50 47L50 45L49 45L49 47L50 47L50 49L48 49L48 47L47 47L47 48L45 48L45 49L44 49L44 48L43 48L43 49L44 49L44 50L45 50L45 53L44 53L44 51L43 51L43 50L42 50L42 52L43 52L43 53L44 53L44 54L41 54L41 55L40 55L40 57L39 57L39 52L40 52L40 53L41 53L41 52L40 52L40 51L41 51L41 49L42 49L42 45L41 45L41 46L40 46L40 45L39 45L39 47L41 47L41 48L40 48L40 51L39 51L39 52L38 52L38 53L36 53L36 52L37 52L37 51L38 51L38 49L39 49L39 48L38 48L38 45L37 45L37 46L36 46L36 45L35 45L35 43L36 43L36 44L38 44L38 43L36 43L36 42L38 42L38 41L39 41L39 38L38 38L38 39L37 39L37 37L38 37L38 36L40 36L40 37L41 37L41 39L40 39L40 41L41 41L41 39L42 39L42 36L43 36L43 38L45 38L45 37L46 37L46 34L47 34L47 36L49 36L49 37L50 37L50 36L51 36L51 35L52 35L52 34L50 34L50 33L51 33L51 32L52 32L52 30L53 30L53 31L56 31L56 30L57 30L57 32L58 32L58 33L57 33L57 35L56 35L56 36L57 36L57 37L58 37L58 38L59 38L59 39L61 39L61 38L59 38L59 37L60 37L60 36L57 36L57 35L60 35L60 32L59 32L59 31L58 31L58 30L59 30L59 29L61 29L61 26L59 26L59 25L60 25L60 23L61 23L61 25L63 25L63 22L62 22L62 21L61 21L61 22L59 22L59 20L64 20L64 17L66 17L66 16L67 16L67 13L68 13L68 11L64 11L64 10L63 10L63 12L62 12L62 11L59 11L59 9L58 9L58 8L57 8L57 11L58 11L58 12L57 12L57 13L55 13L55 12L52 12L52 13L51 13L51 12L50 12L50 11L49 11L49 12L50 12L50 13L49 13L49 15L50 15L50 16L52 16L52 17L51 17L51 18L52 18L52 21L51 21L51 19L50 19L50 20L49 20L49 19L48 19L48 18L49 18L49 17L48 17L48 15L46 15L46 14L47 14L47 12L46 12L46 14L43 14L43 17L44 17L44 15L45 15L45 19L44 19L44 18L41 18L41 17L42 17L42 16L40 16L40 19L41 19L41 20L40 20L40 21L39 21L39 20L38 20L38 21L37 21L37 20L36 20L36 21L35 21L35 20L34 20L34 19L39 19L39 18L38 18L38 17L37 17L37 18L36 18L36 17L35 17L35 16L36 16L36 15L37 15L37 16L38 16L38 15L37 15L37 14L36 14L36 13L39 13L39 15L42 15L42 13L44 13L44 12L42 12L42 10L41 10L41 9L43 9L43 11L46 11L46 10L47 10L47 8L45 8L45 7L44 7L44 6L43 6L43 8L41 8L41 7L40 7L40 6L39 6L39 7L38 7L38 5L37 5L37 8L39 8L39 11L41 11L41 14L40 14L40 13L39 13L39 12L38 12L38 9L37 9L37 12L36 12L36 13L33 13L33 14L31 14L31 13L32 13L32 12L33 12L33 11L34 11L34 9L33 9L33 10L32 10L32 11L31 11L31 10L30 10L30 9L31 9L31 8L30 8L30 9L28 9L28 8L29 8L29 7L30 7L30 6L31 6L31 7L32 7L32 6L31 6L31 5L32 5L32 4L31 4L31 3L30 3L30 2L28 2L28 1ZM41 1L41 2L42 2L42 1ZM10 2L10 3L11 3L11 2ZM43 2L43 3L44 3L44 4L43 4L43 5L44 5L44 4L45 4L45 3L44 3L44 2ZM54 2L54 3L53 3L53 4L52 4L52 5L53 5L53 4L54 4L54 3L55 3L55 2ZM28 3L28 4L29 4L29 3ZM60 3L60 5L61 5L61 3ZM10 4L10 6L11 6L11 7L12 7L12 5L13 5L13 4L12 4L12 5L11 5L11 4ZM30 4L30 5L28 5L28 7L27 7L27 8L26 8L26 7L25 7L25 8L24 8L24 7L23 7L23 6L22 6L22 8L24 8L24 9L23 9L23 11L24 11L24 13L23 13L23 14L25 14L25 13L27 13L27 14L28 14L28 16L26 16L26 15L24 15L24 16L23 16L23 18L20 18L20 19L19 19L19 17L22 17L22 16L19 16L19 17L18 17L18 18L17 18L17 17L9 17L9 16L11 16L11 15L10 15L10 14L8 14L8 15L9 15L9 16L8 16L8 18L11 18L11 20L10 20L10 19L9 19L9 20L10 20L10 21L9 21L9 22L11 22L11 23L10 23L10 24L9 24L9 23L8 23L8 25L11 25L11 26L10 26L10 28L11 28L11 29L10 29L10 30L11 30L11 31L12 31L12 30L14 30L14 29L15 29L15 31L13 31L13 32L15 32L15 34L16 34L16 36L17 36L17 38L18 38L18 39L16 39L16 37L15 37L15 36L14 36L14 34L12 34L12 35L11 35L11 36L10 36L10 38L12 38L12 40L14 40L14 38L15 38L15 41L16 41L16 40L17 40L17 41L18 41L18 42L19 42L19 43L18 43L18 44L17 44L17 42L16 42L16 43L13 43L13 46L14 46L14 47L15 47L15 46L16 46L16 47L17 47L17 49L18 49L18 48L19 48L19 49L21 49L21 50L22 50L22 47L23 47L23 48L24 48L24 47L25 47L25 49L26 49L26 51L27 51L27 52L26 52L26 54L28 54L28 53L29 53L29 55L28 55L28 57L27 57L27 55L26 55L26 57L27 57L27 58L25 58L25 60L26 60L26 61L24 61L24 59L22 59L22 60L20 60L20 62L21 62L21 61L22 61L22 60L23 60L23 61L24 61L24 62L25 62L25 63L26 63L26 64L29 64L29 63L31 63L31 62L28 62L28 61L27 61L27 60L26 60L26 59L28 59L28 60L29 60L29 59L31 59L31 58L32 58L32 56L30 56L30 57L29 57L29 55L30 55L30 53L31 53L31 54L32 54L32 51L31 51L31 50L30 50L30 49L33 49L33 51L34 51L34 52L35 52L35 50L36 50L36 49L35 49L35 50L34 50L34 48L35 48L35 47L36 47L36 48L37 48L37 49L38 49L38 48L37 48L37 47L36 47L36 46L35 46L35 45L31 45L31 42L32 42L32 41L33 41L33 42L34 42L34 43L35 43L35 42L34 42L34 39L36 39L36 38L34 38L34 39L33 39L33 38L32 38L32 37L37 37L37 32L38 32L38 35L39 35L39 34L41 34L41 36L42 36L42 35L43 35L43 34L44 34L44 37L45 37L45 34L46 34L46 33L49 33L49 32L48 32L48 31L47 31L47 30L48 30L48 29L50 29L50 30L51 30L51 29L52 29L52 28L53 28L53 30L56 30L56 29L57 29L57 30L58 30L58 29L59 29L59 28L60 28L60 27L59 27L59 26L58 26L58 25L57 25L57 24L59 24L59 22L58 22L58 21L57 21L57 20L56 20L56 19L53 19L53 20L56 20L56 21L52 21L52 22L53 22L53 23L52 23L52 24L50 24L50 26L49 26L49 27L48 27L48 25L49 25L49 23L48 23L48 25L47 25L47 22L49 22L49 20L47 20L47 19L46 19L46 20L44 20L44 23L45 23L45 24L44 24L44 25L43 25L43 24L42 24L42 25L41 25L41 26L43 26L43 28L42 28L42 27L40 27L40 24L41 24L41 22L40 22L40 23L37 23L37 24L35 24L35 23L34 23L34 22L33 22L33 21L34 21L34 20L33 20L33 21L32 21L32 22L31 22L31 23L34 23L34 24L35 24L35 27L34 27L34 26L33 26L33 24L32 24L32 25L31 25L31 24L30 24L30 25L29 25L29 24L28 24L28 25L27 25L27 23L28 23L28 21L31 21L31 20L32 20L32 19L33 19L33 18L31 18L31 16L32 16L32 17L34 17L34 18L35 18L35 17L34 17L34 16L35 16L35 14L34 14L34 15L33 15L33 16L32 16L32 15L31 15L31 16L29 16L29 15L30 15L30 13L31 13L31 12L30 12L30 13L29 13L29 12L28 12L28 13L27 13L27 12L26 12L26 11L29 11L29 10L28 10L28 9L27 9L27 8L28 8L28 7L29 7L29 6L30 6L30 5L31 5L31 4ZM33 5L33 8L36 8L36 5ZM55 5L55 7L54 7L54 6L53 6L53 7L52 7L52 6L51 6L51 7L52 7L52 9L51 9L51 10L52 10L52 11L55 11L55 10L52 10L52 9L53 9L53 7L54 7L54 8L55 8L55 9L56 9L56 8L55 8L55 7L56 7L56 5ZM57 5L57 7L58 7L58 5ZM17 6L17 7L18 7L18 8L17 8L17 9L18 9L18 8L19 8L19 7L18 7L18 6ZM34 6L34 7L35 7L35 6ZM48 6L48 7L49 7L49 6ZM60 6L60 7L61 7L61 6ZM25 8L25 9L24 9L24 10L25 10L25 11L26 11L26 10L25 10L25 9L26 9L26 8ZM44 8L44 9L45 9L45 10L46 10L46 9L45 9L45 8ZM6 9L6 10L7 10L7 9ZM15 9L15 10L16 10L16 9ZM35 9L35 11L36 11L36 9ZM65 9L65 10L66 10L66 9ZM67 9L67 10L68 10L68 9ZM20 10L20 11L19 11L19 12L20 12L20 11L21 11L21 10ZM6 11L6 12L7 12L7 11ZM58 12L58 13L57 13L57 14L58 14L58 15L56 15L56 17L57 17L57 19L60 19L60 18L61 18L61 13L62 13L62 14L63 14L63 15L62 15L62 19L63 19L63 17L64 17L64 16L65 16L65 15L64 15L64 14L65 14L65 13L64 13L64 12L63 12L63 13L62 13L62 12L61 12L61 13L60 13L60 12ZM66 12L66 13L67 13L67 12ZM4 13L4 15L3 15L3 16L5 16L5 13ZM19 13L19 14L20 14L20 13ZM28 13L28 14L29 14L29 13ZM50 13L50 15L51 15L51 13ZM52 13L52 15L53 15L53 14L54 14L54 15L55 15L55 13ZM58 13L58 14L59 14L59 15L58 15L58 16L57 16L57 17L58 17L58 18L59 18L59 17L58 17L58 16L59 16L59 15L60 15L60 14L59 14L59 13ZM63 13L63 14L64 14L64 13ZM15 14L15 15L14 15L14 16L15 16L15 15L16 15L16 14ZM24 16L24 17L25 17L25 19L21 19L21 20L22 20L22 22L21 22L21 23L20 23L20 24L19 24L19 22L20 22L20 21L19 21L19 22L18 22L18 21L17 21L17 20L16 20L16 19L17 19L17 18L16 18L16 19L15 19L15 18L12 18L12 20L13 20L13 22L14 22L14 23L15 23L15 25L14 25L14 26L13 26L13 25L12 25L12 24L13 24L13 23L11 23L11 25L12 25L12 26L11 26L11 28L12 28L12 29L13 29L13 27L15 27L15 29L16 29L16 32L17 32L17 33L16 33L16 34L17 34L17 36L18 36L18 35L19 35L19 38L20 38L20 39L21 39L21 40L19 40L19 39L18 39L18 40L19 40L19 42L20 42L20 43L19 43L19 48L21 48L21 47L22 47L22 46L23 46L23 44L24 44L24 43L23 43L23 41L24 41L24 42L26 42L26 40L27 40L27 37L28 37L28 42L27 42L27 43L26 43L26 44L25 44L25 45L26 45L26 46L25 46L25 47L26 47L26 48L28 48L28 49L27 49L27 51L28 51L28 50L29 50L29 49L30 49L30 48L34 48L34 47L35 47L35 46L33 46L33 47L32 47L32 46L29 46L29 45L28 45L28 44L27 44L27 43L29 43L29 42L30 42L30 41L31 41L31 40L32 40L32 38L31 38L31 40L30 40L30 41L29 41L29 39L30 39L30 38L29 38L29 36L31 36L31 37L32 37L32 36L31 36L31 35L32 35L32 33L31 33L31 35L30 35L30 33L29 33L29 32L28 32L28 31L32 31L32 32L37 32L37 31L38 31L38 29L37 29L37 30L34 30L34 31L33 31L33 29L36 29L36 28L39 28L39 29L40 29L40 30L42 30L42 28L40 28L40 27L37 27L37 26L38 26L38 25L39 25L39 24L37 24L37 26L36 26L36 27L35 27L35 28L34 28L34 27L33 27L33 26L30 26L30 28L31 28L31 27L33 27L33 28L32 28L32 29L31 29L31 30L30 30L30 29L27 29L27 32L26 32L26 31L25 31L25 30L23 30L23 31L25 31L25 33L29 33L29 34L28 34L28 35L27 35L27 34L25 34L25 35L27 35L27 37L26 37L26 36L24 36L24 37L23 37L23 35L24 35L24 34L23 34L23 32L22 32L22 38L23 38L23 40L22 40L22 39L21 39L21 38L20 38L20 36L21 36L21 34L20 34L20 35L19 35L19 34L17 34L17 33L18 33L18 32L19 32L19 33L20 33L20 32L21 32L21 31L22 31L22 29L26 29L26 28L28 28L28 27L27 27L27 26L24 26L24 25L21 25L21 26L20 26L20 24L21 24L21 23L22 23L22 24L23 24L23 20L25 20L25 22L24 22L24 24L25 24L25 25L26 25L26 24L25 24L25 22L27 22L27 21L28 21L28 20L27 20L27 21L26 21L26 20L25 20L25 19L28 19L28 18L29 18L29 19L31 19L31 18L29 18L29 16L28 16L28 17L27 17L27 18L26 18L26 17L25 17L25 16ZM46 16L46 17L47 17L47 16ZM53 16L53 17L52 17L52 18L55 18L55 16ZM3 17L3 18L2 18L2 20L4 20L4 17ZM18 19L18 20L19 20L19 19ZM42 19L42 20L41 20L41 21L42 21L42 23L43 23L43 19ZM2 21L2 22L3 22L3 21ZM11 21L11 22L12 22L12 21ZM15 21L15 23L17 23L17 25L15 25L15 27L16 27L16 26L17 26L17 27L19 27L19 26L17 26L17 25L19 25L19 24L18 24L18 22L17 22L17 21ZM46 21L46 22L47 22L47 21ZM50 21L50 23L51 23L51 21ZM56 21L56 23L55 23L55 22L54 22L54 23L55 23L55 26L53 26L53 24L52 24L52 26L53 26L53 28L55 28L55 29L56 29L56 27L57 27L57 25L56 25L56 23L58 23L58 22L57 22L57 21ZM6 22L6 23L7 23L7 22ZM29 22L29 23L30 23L30 22ZM61 22L61 23L62 23L62 22ZM2 23L2 24L3 24L3 25L4 25L4 24L3 24L3 23ZM68 23L68 24L69 24L69 23ZM28 25L28 26L29 26L29 25ZM46 25L46 26L47 26L47 25ZM65 25L65 26L67 26L67 28L68 28L68 29L67 29L67 30L65 30L65 31L68 31L68 30L69 30L69 28L68 28L68 26L69 26L69 25L68 25L68 26L67 26L67 25ZM6 26L6 27L7 27L7 26ZM8 26L8 28L9 28L9 26ZM22 26L22 27L21 27L21 29L20 29L20 28L16 28L16 29L17 29L17 31L18 31L18 30L19 30L19 31L20 31L20 30L21 30L21 29L22 29L22 27L23 27L23 28L24 28L24 27L23 27L23 26ZM50 26L50 27L49 27L49 28L50 28L50 29L51 29L51 28L52 28L52 27L51 27L51 26ZM55 26L55 27L56 27L56 26ZM25 27L25 28L26 28L26 27ZM45 27L45 28L46 28L46 27ZM50 27L50 28L51 28L51 27ZM58 27L58 28L57 28L57 29L58 29L58 28L59 28L59 27ZM62 27L62 28L63 28L63 27ZM6 28L6 29L7 29L7 28ZM43 28L43 29L44 29L44 31L40 31L40 33L44 33L44 34L45 34L45 33L44 33L44 31L46 31L46 30L47 30L47 29L46 29L46 30L45 30L45 29L44 29L44 28ZM3 29L3 30L2 30L2 31L3 31L3 30L4 30L4 29ZM8 29L8 30L9 30L9 29ZM19 29L19 30L20 30L20 29ZM5 33L5 36L8 36L8 33ZM33 33L33 36L36 36L36 33ZM61 33L61 36L64 36L64 33ZM6 34L6 35L7 35L7 34ZM34 34L34 35L35 35L35 34ZM49 34L49 35L50 35L50 34ZM62 34L62 35L63 35L63 34ZM65 34L65 35L66 35L66 37L68 37L68 35L67 35L67 34ZM11 36L11 37L12 37L12 38L13 38L13 37L14 37L14 36ZM52 36L52 37L53 37L53 36ZM6 37L6 38L7 38L7 37ZM24 37L24 39L26 39L26 38L25 38L25 37ZM62 37L62 40L61 40L61 42L62 42L62 40L63 40L63 39L64 39L64 38L65 38L65 37ZM4 38L4 39L5 39L5 38ZM10 39L10 40L11 40L11 39ZM24 40L24 41L25 41L25 40ZM36 40L36 41L38 41L38 40ZM66 40L66 41L67 41L67 40ZM20 41L20 42L21 42L21 45L20 45L20 47L21 47L21 46L22 46L22 41ZM0 43L0 44L1 44L1 45L2 45L2 46L4 46L4 44L3 44L3 45L2 45L2 44L1 44L1 43ZM11 43L11 45L12 45L12 43ZM52 43L52 45L53 45L53 43ZM8 44L8 45L9 45L9 44ZM14 44L14 45L15 45L15 44ZM26 44L26 45L27 45L27 46L28 46L28 48L29 48L29 46L28 46L28 45L27 45L27 44ZM16 45L16 46L17 46L17 47L18 47L18 46L17 46L17 45ZM0 46L0 48L1 48L1 46ZM10 46L10 47L12 47L12 48L13 48L13 49L12 49L12 50L13 50L13 49L14 49L14 50L16 50L16 48L15 48L15 49L14 49L14 48L13 48L13 47L12 47L12 46ZM10 48L10 49L9 49L9 50L8 50L8 51L9 51L9 50L10 50L10 49L11 49L11 48ZM63 48L63 49L64 49L64 48ZM45 49L45 50L46 50L46 51L48 51L48 50L46 50L46 49ZM53 49L53 50L52 50L52 52L51 52L51 53L50 53L50 54L49 54L49 52L46 52L46 53L48 53L48 54L49 54L49 55L50 55L50 54L51 54L51 53L52 53L52 52L53 52L53 50L55 50L55 49ZM59 49L59 50L60 50L60 49ZM49 50L49 51L50 51L50 50ZM4 51L4 52L5 52L5 51ZM29 51L29 52L31 52L31 51ZM6 52L6 53L7 53L7 52ZM10 53L10 56L11 56L11 53ZM63 53L63 54L64 54L64 55L63 55L63 56L62 56L62 57L63 57L63 58L64 58L64 57L63 57L63 56L64 56L64 55L65 55L65 54L64 54L64 53ZM12 55L12 56L13 56L13 55ZM57 55L57 56L56 56L56 59L57 59L57 58L58 58L58 59L59 59L59 58L58 58L58 57L57 57L57 56L58 56L58 55ZM35 56L35 58L37 58L37 57L38 57L38 58L39 58L39 57L38 57L38 56ZM0 57L0 61L1 61L1 57ZM28 57L28 59L29 59L29 57ZM2 58L2 59L3 59L3 58ZM42 58L42 61L44 61L44 62L45 62L45 61L44 61L44 59L45 59L45 58ZM17 59L17 61L19 61L19 59ZM3 60L3 61L5 61L5 60ZM56 60L56 62L57 62L57 61L58 61L58 60ZM15 61L15 62L14 62L14 63L15 63L15 64L16 64L16 63L18 63L18 62L16 62L16 61ZM33 61L33 64L36 64L36 61ZM61 61L61 64L64 64L64 61ZM67 61L67 62L68 62L68 61ZM27 62L27 63L28 63L28 62ZM34 62L34 63L35 63L35 62ZM62 62L62 63L63 63L63 62ZM58 64L58 65L59 65L59 64ZM14 66L14 67L15 67L15 66ZM25 66L25 67L27 67L27 66ZM8 67L8 69L10 69L10 68L9 68L9 67ZM36 68L36 69L37 69L37 68ZM42 68L42 69L43 69L43 68ZM65 68L65 69L67 69L67 68ZM68 68L68 69L69 69L69 68ZM0 0L0 7L7 7L7 0ZM1 1L1 6L6 6L6 1ZM2 2L2 5L5 5L5 2ZM62 0L62 7L69 7L69 0ZM63 1L63 6L68 6L68 1ZM64 2L64 5L67 5L67 2ZM0 62L0 69L7 69L7 62ZM1 63L1 68L6 68L6 63ZM2 64L2 67L5 67L5 64Z" fill="#000000"/></g></g></svg>
