<?xml version="1.0" encoding="UTF-8"?>
<svg xmlns="http://www.w3.org/2000/svg" version="1.1" width="300" height="300" viewBox="0 0 300 300"><rect x="0" y="0" width="300" height="300" fill="#ffffff"/><g transform="scale(4.348)"><g transform="translate(0,0)"><path fill-rule="evenodd" d="M10 0L10 1L8 1L8 3L9 3L9 4L8 4L8 8L6 8L6 9L7 9L7 10L6 10L6 11L5 11L5 9L4 9L4 8L3 8L3 9L2 9L2 8L0 8L0 9L2 9L2 10L4 10L4 12L3 12L3 14L1 14L1 13L0 13L0 15L1 15L1 16L0 16L0 18L1 18L1 19L0 19L0 20L2 20L2 19L3 19L3 22L2 22L2 21L0 21L0 23L1 23L1 24L2 24L2 25L1 25L1 26L0 26L0 27L1 27L1 26L2 26L2 27L3 27L3 26L2 26L2 25L3 25L3 24L4 24L4 26L5 26L5 24L4 24L4 21L7 21L7 22L6 22L6 23L9 23L9 24L10 24L10 26L9 26L9 27L8 27L8 28L9 28L9 30L8 30L8 29L7 29L7 28L6 28L6 27L7 27L7 26L6 26L6 27L5 27L5 28L0 28L0 29L2 29L2 32L3 32L3 34L4 34L4 36L3 36L3 35L2 35L2 34L1 34L1 32L0 32L0 36L1 36L1 35L2 35L2 37L1 37L1 38L0 38L0 39L2 39L2 38L3 38L3 39L4 39L4 41L3 41L3 40L0 40L0 41L1 41L1 45L2 45L2 46L0 46L0 47L1 47L1 49L2 49L2 50L1 50L1 51L0 51L0 52L1 52L1 53L0 53L0 54L4 54L4 53L5 53L5 52L6 52L6 53L7 53L7 54L6 54L6 55L3 55L3 56L5 56L5 58L4 58L4 57L2 57L2 56L1 56L1 55L0 55L0 57L1 57L1 58L0 58L0 61L1 61L1 58L2 58L2 59L3 59L3 58L4 58L4 59L7 59L7 60L6 60L6 61L7 61L7 60L10 60L10 61L8 61L8 63L9 63L9 64L10 64L10 65L11 65L11 66L12 66L12 67L11 67L11 68L10 68L10 66L9 66L9 65L8 65L8 66L9 66L9 67L8 67L8 69L12 69L12 68L13 68L13 69L14 69L14 67L16 67L16 68L15 68L15 69L17 69L17 68L18 68L18 69L21 69L21 68L19 68L19 67L22 67L22 69L26 69L26 68L27 68L27 69L29 69L29 68L30 68L30 69L32 69L32 68L34 68L34 67L38 67L38 66L39 66L39 67L40 67L40 68L39 68L39 69L42 69L42 67L40 67L40 66L39 66L39 65L40 65L40 64L41 64L41 66L42 66L42 65L43 65L43 64L44 64L44 66L45 66L45 67L44 67L44 68L43 68L43 69L44 69L44 68L45 68L45 69L47 69L47 68L46 68L46 65L45 65L45 63L46 63L46 62L47 62L47 65L49 65L49 64L50 64L50 66L49 66L49 67L51 67L51 65L52 65L52 64L50 64L50 63L48 63L48 62L47 62L47 61L49 61L49 62L50 62L50 60L51 60L51 61L53 61L53 60L54 60L54 59L55 59L55 61L57 61L57 63L58 63L58 65L59 65L59 63L60 63L60 65L61 65L61 66L59 66L59 67L58 67L58 68L57 68L57 64L56 64L56 67L55 67L55 66L54 66L54 65L55 65L55 64L53 64L53 67L52 67L52 68L50 68L50 69L55 69L55 68L57 68L57 69L60 69L60 68L59 68L59 67L61 67L61 68L62 68L62 66L63 66L63 68L64 68L64 69L66 69L66 68L64 68L64 67L65 67L65 66L66 66L66 65L65 65L65 63L67 63L67 66L68 66L68 67L69 67L69 63L68 63L68 62L69 62L69 60L68 60L68 62L65 62L65 61L66 61L66 59L67 59L67 57L68 57L68 55L69 55L69 54L68 54L68 55L67 55L67 56L66 56L66 58L64 58L64 59L63 59L63 58L62 58L62 57L61 57L61 56L64 56L64 55L65 55L65 54L62 54L62 53L61 53L61 52L63 52L63 51L62 51L62 50L63 50L63 49L64 49L64 51L65 51L65 53L66 53L66 54L67 54L67 53L69 53L69 52L67 52L67 53L66 53L66 51L68 51L68 50L69 50L69 49L67 49L67 50L65 50L65 49L64 49L64 48L66 48L66 47L67 47L67 48L68 48L68 47L69 47L69 46L68 46L68 47L67 47L67 46L66 46L66 45L67 45L67 44L69 44L69 39L68 39L68 38L67 38L67 37L69 37L69 36L68 36L68 35L69 35L69 33L68 33L68 31L69 31L69 30L67 30L67 29L66 29L66 30L67 30L67 34L66 34L66 33L65 33L65 32L63 32L63 30L65 30L65 29L64 29L64 28L59 28L59 25L58 25L58 28L56 28L56 26L57 26L57 23L58 23L58 24L59 24L59 23L61 23L61 22L56 22L56 24L55 24L55 25L56 25L56 26L55 26L55 27L53 27L53 26L51 26L51 27L49 27L49 26L50 26L50 25L49 25L49 24L51 24L51 25L54 25L54 24L51 24L51 23L53 23L53 22L52 22L52 21L54 21L54 20L55 20L55 21L56 21L56 20L57 20L57 21L61 21L61 20L57 20L57 19L56 19L56 20L55 20L55 18L57 18L57 16L58 16L58 17L59 17L59 19L61 19L61 18L60 18L60 17L61 17L61 16L62 16L62 18L63 18L63 20L62 20L62 21L63 21L63 22L62 22L62 23L63 23L63 22L64 22L64 23L65 23L65 24L62 24L62 25L61 25L61 26L62 26L62 25L65 25L65 24L66 24L66 26L63 26L63 27L66 27L66 26L67 26L67 28L68 28L68 29L69 29L69 27L68 27L68 24L69 24L69 22L68 22L68 19L69 19L69 18L67 18L67 21L65 21L65 20L66 20L66 19L65 19L65 17L64 17L64 15L65 15L65 14L66 14L66 15L67 15L67 16L66 16L66 17L67 17L67 16L68 16L68 17L69 17L69 15L68 15L68 14L69 14L69 12L68 12L68 11L69 11L69 9L68 9L68 8L66 8L66 9L67 9L67 10L68 10L68 11L67 11L67 12L66 12L66 10L65 10L65 11L64 11L64 10L63 10L63 11L64 11L64 12L63 12L63 13L64 13L64 15L62 15L62 12L61 12L61 14L60 14L60 11L62 11L62 10L60 10L60 11L59 11L59 10L58 10L58 11L59 11L59 12L56 12L56 13L55 13L55 12L53 12L53 11L55 11L55 10L56 10L56 11L57 11L57 9L56 9L56 8L55 8L55 6L54 6L54 8L52 8L52 10L53 10L53 11L51 11L51 10L50 10L50 11L48 11L48 12L47 12L47 11L46 11L46 10L45 10L45 9L44 9L44 8L43 8L43 6L44 6L44 7L45 7L45 8L46 8L46 9L47 9L47 6L48 6L48 7L49 7L49 6L50 6L50 7L51 7L51 6L52 6L52 7L53 7L53 5L57 5L57 6L56 6L56 7L57 7L57 6L58 6L58 7L59 7L59 4L58 4L58 5L57 5L57 4L53 4L53 5L52 5L52 4L50 4L50 2L49 2L49 1L51 1L51 3L53 3L53 2L52 2L52 1L51 1L51 0L48 0L48 2L47 2L47 0L45 0L45 2L44 2L44 3L45 3L45 4L44 4L44 5L43 5L43 4L40 4L40 5L43 5L43 6L42 6L42 7L41 7L41 6L40 6L40 7L39 7L39 4L36 4L36 3L35 3L35 2L34 2L34 1L37 1L37 2L39 2L39 3L43 3L43 2L42 2L42 1L43 1L43 0L38 0L38 1L37 1L37 0L34 0L34 1L33 1L33 0L32 0L32 2L33 2L33 3L35 3L35 4L32 4L32 5L28 5L28 4L27 4L27 5L25 5L25 4L26 4L26 3L28 3L28 0L26 0L26 1L27 1L27 2L24 2L24 1L25 1L25 0L23 0L23 2L24 2L24 5L23 5L23 4L22 4L22 5L21 5L21 3L19 3L19 4L17 4L17 3L18 3L18 2L20 2L20 1L21 1L21 2L22 2L22 1L21 1L21 0L20 0L20 1L19 1L19 0L16 0L16 1L18 1L18 2L15 2L15 0L14 0L14 2L13 2L13 1L12 1L12 0ZM29 0L29 3L30 3L30 2L31 2L31 1L30 1L30 0ZM53 0L53 1L55 1L55 2L54 2L54 3L55 3L55 2L56 2L56 1L57 1L57 2L58 2L58 3L59 3L59 2L58 2L58 1L61 1L61 0L58 0L58 1L57 1L57 0ZM11 1L11 2L12 2L12 1ZM40 1L40 2L41 2L41 1ZM9 2L9 3L10 3L10 2ZM14 2L14 4L13 4L13 5L14 5L14 6L13 6L13 7L12 7L12 6L11 6L11 5L12 5L12 3L11 3L11 4L10 4L10 5L9 5L9 8L8 8L8 10L7 10L7 11L6 11L6 12L7 12L7 13L5 13L5 15L4 15L4 14L3 14L3 15L4 15L4 16L7 16L7 17L6 17L6 18L8 18L8 16L7 16L7 15L8 15L8 14L7 14L7 13L8 13L8 12L9 12L9 13L11 13L11 11L12 11L12 10L11 10L11 9L12 9L12 8L13 8L13 12L12 12L12 13L13 13L13 14L9 14L9 15L12 15L12 16L9 16L9 18L10 18L10 19L12 19L12 20L10 20L10 22L11 22L11 23L12 23L12 24L11 24L11 25L12 25L12 24L14 24L14 23L15 23L15 22L16 22L16 24L15 24L15 28L12 28L12 27L14 27L14 26L10 26L10 30L13 30L13 29L15 29L15 30L16 30L16 31L14 31L14 32L13 32L13 33L12 33L12 32L10 32L10 31L9 31L9 32L10 32L10 33L11 33L11 34L10 34L10 36L9 36L9 37L8 37L8 38L10 38L10 36L11 36L11 39L10 39L10 40L11 40L11 41L9 41L9 42L7 42L7 41L6 41L6 40L7 40L7 39L5 39L5 41L4 41L4 42L5 42L5 43L4 43L4 44L2 44L2 45L3 45L3 46L5 46L5 48L3 48L3 51L1 51L1 52L3 52L3 53L4 53L4 52L5 52L5 51L6 51L6 52L9 52L9 51L10 51L10 50L8 50L8 49L10 49L10 48L9 48L9 47L12 47L12 51L11 51L11 52L10 52L10 53L12 53L12 54L10 54L10 55L9 55L9 54L7 54L7 55L6 55L6 56L7 56L7 55L9 55L9 56L8 56L8 57L9 57L9 59L11 59L11 61L10 61L10 64L11 64L11 65L12 65L12 64L11 64L11 63L15 63L15 62L16 62L16 64L15 64L15 66L17 66L17 65L18 65L18 66L19 66L19 65L20 65L20 63L22 63L22 65L21 65L21 66L23 66L23 63L24 63L24 62L27 62L27 61L25 61L25 59L26 59L26 58L29 58L29 59L28 59L28 61L29 61L29 62L30 62L30 63L31 63L31 65L32 65L32 67L31 67L31 66L28 66L28 65L29 65L29 63L28 63L28 64L25 64L25 65L24 65L24 67L25 67L25 68L26 68L26 66L25 66L25 65L27 65L27 68L29 68L29 67L31 67L31 68L32 68L32 67L34 67L34 66L35 66L35 65L32 65L32 61L29 61L29 60L30 60L30 58L32 58L32 57L28 57L28 56L32 56L32 55L33 55L33 56L35 56L35 57L34 57L34 60L35 60L35 58L37 58L37 59L36 59L36 60L37 60L37 59L38 59L38 58L39 58L39 59L40 59L40 60L38 60L38 62L37 62L37 63L38 63L38 64L37 64L37 65L36 65L36 66L38 66L38 64L39 64L39 63L38 63L38 62L39 62L39 61L40 61L40 60L42 60L42 61L41 61L41 62L43 62L43 63L45 63L45 62L46 62L46 60L45 60L45 59L47 59L47 60L48 60L48 58L49 58L49 59L50 59L50 58L51 58L51 55L54 55L54 57L53 57L53 58L52 58L52 59L51 59L51 60L52 60L52 59L54 59L54 58L55 58L55 56L56 56L56 57L57 57L57 58L56 58L56 59L58 59L58 58L60 58L60 57L59 57L59 56L60 56L60 54L59 54L59 53L60 53L60 48L61 48L61 50L62 50L62 45L61 45L61 46L60 46L60 45L59 45L59 44L58 44L58 43L59 43L59 42L60 42L60 43L62 43L62 42L63 42L63 44L64 44L64 42L65 42L65 44L67 44L67 42L66 42L66 41L67 41L67 39L65 39L65 40L66 40L66 41L64 41L64 40L63 40L63 38L62 38L62 40L60 40L60 38L61 38L61 37L60 37L60 35L59 35L59 33L58 33L58 30L59 30L59 31L60 31L60 32L62 32L62 31L61 31L61 30L62 30L62 29L60 29L60 30L59 30L59 29L57 29L57 31L55 31L55 29L56 29L56 28L52 28L52 29L54 29L54 30L53 30L53 31L54 31L54 33L53 33L53 34L55 34L55 32L56 32L56 33L57 33L57 34L56 34L56 35L55 35L55 36L54 36L54 35L53 35L53 39L52 39L52 41L54 41L54 42L56 42L56 40L57 40L57 43L53 43L53 44L56 44L56 45L57 45L57 46L55 46L55 45L53 45L53 46L52 46L52 45L50 45L50 46L49 46L49 45L48 45L48 43L47 43L47 40L46 40L46 41L45 41L45 42L44 42L44 40L45 40L45 39L47 39L47 38L48 38L48 37L47 37L47 36L48 36L48 35L51 35L51 31L52 31L52 30L50 30L50 29L51 29L51 28L50 28L50 29L49 29L49 31L50 31L50 34L49 34L49 33L48 33L48 32L44 32L44 31L45 31L45 29L44 29L44 28L45 28L45 27L46 27L46 31L47 31L47 27L48 27L48 26L49 26L49 25L48 25L48 24L47 24L47 23L50 23L50 22L51 22L51 21L49 21L49 22L47 22L47 21L48 21L48 20L46 20L46 18L47 18L47 19L48 19L48 17L46 17L46 15L45 15L45 14L46 14L46 11L43 11L43 10L44 10L44 9L43 9L43 8L42 8L42 9L38 9L38 8L37 8L37 9L36 9L36 11L35 11L35 9L32 9L32 8L28 8L28 5L27 5L27 7L26 7L26 6L25 6L25 5L24 5L24 6L23 6L23 5L22 5L22 6L21 6L21 5L20 5L20 4L19 4L19 5L17 5L17 7L16 7L16 6L15 6L15 2ZM48 2L48 3L46 3L46 6L45 6L45 5L44 5L44 6L45 6L45 7L46 7L46 6L47 6L47 5L48 5L48 4L49 4L49 5L50 5L50 4L49 4L49 2ZM60 3L60 5L61 5L61 3ZM19 5L19 6L18 6L18 7L19 7L19 8L18 8L18 9L16 9L16 7L15 7L15 6L14 6L14 8L15 8L15 9L14 9L14 10L16 10L16 11L15 11L15 14L13 14L13 16L12 16L12 17L11 17L11 18L12 18L12 19L13 19L13 20L12 20L12 21L11 21L11 22L12 22L12 23L14 23L14 22L15 22L15 21L16 21L16 22L17 22L17 21L16 21L16 20L18 20L18 22L19 22L19 23L20 23L20 24L21 24L21 26L22 26L22 27L20 27L20 25L19 25L19 24L16 24L16 25L17 25L17 26L18 26L18 25L19 25L19 28L17 28L17 27L16 27L16 28L15 28L15 29L16 29L16 28L17 28L17 29L20 29L20 32L17 32L17 31L16 31L16 33L19 33L19 34L17 34L17 35L18 35L18 36L17 36L17 37L16 37L16 38L17 38L17 37L19 37L19 38L18 38L18 39L19 39L19 38L20 38L20 40L21 40L21 38L20 38L20 37L23 37L23 36L21 36L21 35L24 35L24 37L25 37L25 40L24 40L24 38L22 38L22 39L23 39L23 40L24 40L24 41L23 41L23 42L26 42L26 41L27 41L27 40L29 40L29 41L30 41L30 40L31 40L31 42L30 42L30 43L29 43L29 42L27 42L27 43L26 43L26 44L25 44L25 43L24 43L24 44L22 44L22 43L21 43L21 48L20 48L20 46L19 46L19 47L18 47L18 45L20 45L20 44L19 44L19 43L20 43L20 42L21 42L21 41L19 41L19 40L18 40L18 41L17 41L17 42L16 42L16 39L15 39L15 38L14 38L14 36L13 36L13 35L12 35L12 34L11 34L11 36L13 36L13 39L11 39L11 40L12 40L12 41L13 41L13 39L15 39L15 40L14 40L14 42L12 42L12 43L11 43L11 42L10 42L10 43L11 43L11 45L9 45L9 43L8 43L8 44L4 44L4 45L5 45L5 46L6 46L6 47L7 47L7 46L6 46L6 45L9 45L9 46L12 46L12 45L13 45L13 47L14 47L14 48L13 48L13 50L14 50L14 51L13 51L13 53L17 53L17 55L19 55L19 54L18 54L18 53L20 53L20 55L21 55L21 58L19 58L19 59L20 59L20 61L19 61L19 60L18 60L18 59L17 59L17 56L16 56L16 55L15 55L15 56L16 56L16 60L13 60L13 59L12 59L12 58L11 58L11 59L12 59L12 60L13 60L13 62L14 62L14 61L16 61L16 62L17 62L17 63L20 63L20 61L21 61L21 62L22 62L22 61L24 61L24 60L23 60L23 59L25 59L25 58L26 58L26 56L25 56L25 54L26 54L26 53L29 53L29 54L27 54L27 56L28 56L28 55L29 55L29 54L30 54L30 55L31 55L31 52L32 52L32 53L33 53L33 51L29 51L29 49L31 49L31 50L34 50L34 51L38 51L38 52L35 52L35 53L36 53L36 55L37 55L37 56L36 56L36 57L37 57L37 56L38 56L38 57L39 57L39 58L40 58L40 59L41 59L41 56L40 56L40 55L42 55L42 54L41 54L41 53L40 53L40 51L38 51L38 48L39 48L39 49L40 49L40 50L41 50L41 51L43 51L43 52L44 52L44 53L43 53L43 54L44 54L44 53L45 53L45 51L46 51L46 53L48 53L48 54L46 54L46 55L44 55L44 56L43 56L43 58L42 58L42 59L43 59L43 62L45 62L45 60L44 60L44 59L45 59L45 58L44 58L44 56L45 56L45 57L46 57L46 56L47 56L47 55L51 55L51 54L54 54L54 53L52 53L52 52L51 52L51 53L50 53L50 52L47 52L47 50L48 50L48 49L49 49L49 48L46 48L46 47L47 47L47 46L46 46L46 47L45 47L45 46L44 46L44 48L43 48L43 47L42 47L42 45L44 45L44 44L45 44L45 45L46 45L46 44L47 44L47 43L46 43L46 42L45 42L45 43L44 43L44 44L42 44L42 45L40 45L40 44L41 44L41 43L43 43L43 42L42 42L42 41L43 41L43 40L44 40L44 39L45 39L45 36L44 36L44 34L45 34L45 35L46 35L46 34L45 34L45 33L44 33L44 32L43 32L43 35L42 35L42 36L43 36L43 38L42 38L42 39L41 39L41 38L39 38L39 40L38 40L38 43L39 43L39 44L37 44L37 45L36 45L36 44L35 44L35 42L36 42L36 41L37 41L37 40L35 40L35 39L36 39L36 38L37 38L37 39L38 39L38 38L37 38L37 37L41 37L41 36L40 36L40 35L41 35L41 33L42 33L42 32L40 32L40 31L41 31L41 30L40 30L40 31L37 31L37 30L35 30L35 29L34 29L34 30L35 30L35 31L36 31L36 32L32 32L32 31L33 31L33 30L32 30L32 31L31 31L31 29L32 29L32 28L33 28L33 27L32 27L32 28L29 28L29 31L31 31L31 32L30 32L30 33L29 33L29 32L28 32L28 31L26 31L26 30L27 30L27 28L26 28L26 25L28 25L28 26L27 26L27 27L29 27L29 24L30 24L30 25L31 25L31 26L30 26L30 27L31 27L31 26L32 26L32 25L31 25L31 24L30 24L30 23L32 23L32 24L33 24L33 26L34 26L34 27L37 27L37 28L36 28L36 29L38 29L38 30L39 30L39 27L38 27L38 25L37 25L37 26L35 26L35 25L36 25L36 23L38 23L38 24L39 24L39 25L40 25L40 26L41 26L41 24L42 24L42 25L46 25L46 27L47 27L47 25L46 25L46 23L44 23L44 22L43 22L43 24L42 24L42 22L41 22L41 19L42 19L42 21L44 21L44 20L43 20L43 18L45 18L45 15L44 15L44 14L45 14L45 12L44 12L44 14L43 14L43 15L41 15L41 16L42 16L42 17L41 17L41 19L40 19L40 20L39 20L39 17L40 17L40 11L39 11L39 10L37 10L37 11L36 11L36 12L35 12L35 13L34 13L34 10L32 10L32 9L31 9L31 10L30 10L30 9L29 9L29 10L28 10L28 11L27 11L27 9L28 9L28 8L27 8L27 9L26 9L26 8L25 8L25 6L24 6L24 8L23 8L23 6L22 6L22 9L24 9L24 10L25 10L25 11L21 11L21 10L20 10L20 11L18 11L18 12L17 12L17 10L18 10L18 9L19 9L19 8L20 8L20 9L21 9L21 8L20 8L20 7L21 7L21 6L20 6L20 5ZM33 5L33 8L36 8L36 5ZM37 5L37 7L38 7L38 5ZM10 6L10 7L11 7L11 6ZM19 6L19 7L20 7L20 6ZM29 6L29 7L30 7L30 6ZM31 6L31 7L32 7L32 6ZM34 6L34 7L35 7L35 6ZM60 6L60 7L61 7L61 6ZM40 7L40 8L41 8L41 7ZM48 8L48 9L51 9L51 8ZM54 8L54 9L53 9L53 10L55 10L55 8ZM59 8L59 9L61 9L61 8ZM62 8L62 9L65 9L65 8ZM8 10L8 11L7 11L7 12L8 12L8 11L9 11L9 12L10 12L10 11L11 11L11 10L10 10L10 11L9 11L9 10ZM31 10L31 11L28 11L28 12L31 12L31 11L32 11L32 10ZM41 10L41 12L43 12L43 11L42 11L42 10ZM0 11L0 12L1 12L1 11ZM20 11L20 12L19 12L19 13L18 13L18 14L15 14L15 15L16 15L16 16L14 16L14 17L12 17L12 18L17 18L17 19L22 19L22 20L23 20L23 17L24 17L24 18L25 18L25 19L24 19L24 20L25 20L25 19L26 19L26 21L22 21L22 22L23 22L23 23L24 23L24 24L26 24L26 22L27 22L27 24L28 24L28 22L29 22L29 23L30 23L30 21L28 21L28 20L27 20L27 19L26 19L26 17L24 17L24 16L28 16L28 18L29 18L29 20L30 20L30 17L29 17L29 16L30 16L30 15L29 15L29 16L28 16L28 15L27 15L27 14L28 14L28 13L27 13L27 14L25 14L25 13L26 13L26 11L25 11L25 13L21 13L21 11ZM50 11L50 12L51 12L51 11ZM36 12L36 13L35 13L35 15L34 15L34 17L33 17L33 15L31 15L31 16L32 16L32 17L31 17L31 19L32 19L32 23L33 23L33 24L35 24L35 23L34 23L34 22L35 22L35 21L34 21L34 19L35 19L35 16L36 16L36 14L37 14L37 12ZM38 12L38 15L37 15L37 19L36 19L36 21L37 21L37 22L38 22L38 20L37 20L37 19L38 19L38 16L39 16L39 12ZM65 12L65 13L66 13L66 12ZM67 12L67 14L68 14L68 12ZM19 13L19 15L17 15L17 16L16 16L16 17L18 17L18 16L19 16L19 17L21 17L21 18L22 18L22 15L25 15L25 14L20 14L20 13ZM30 13L30 14L33 14L33 13ZM41 13L41 14L42 14L42 13ZM47 13L47 14L48 14L48 15L49 15L49 16L50 16L50 17L49 17L49 18L50 18L50 17L51 17L51 16L50 16L50 15L49 15L49 13ZM50 13L50 14L52 14L52 17L54 17L54 18L55 18L55 17L56 17L56 16L55 16L55 15L58 15L58 16L59 16L59 17L60 17L60 16L61 16L61 15L60 15L60 14L59 14L59 15L58 15L58 13L56 13L56 14L55 14L55 13L53 13L53 14L52 14L52 13ZM6 14L6 15L7 15L7 14ZM20 15L20 16L21 16L21 15ZM2 16L2 17L1 17L1 18L2 18L2 17L3 17L3 16ZM43 16L43 17L42 17L42 18L43 18L43 17L44 17L44 16ZM32 18L32 19L34 19L34 18ZM51 18L51 19L50 19L50 20L51 20L51 19L52 19L52 20L54 20L54 19L53 19L53 18ZM4 19L4 20L5 20L5 19ZM6 19L6 20L7 20L7 21L8 21L8 22L9 22L9 19ZM14 19L14 20L13 20L13 21L12 21L12 22L13 22L13 21L15 21L15 19ZM19 20L19 22L21 22L21 20ZM45 20L45 21L46 21L46 20ZM64 21L64 22L65 22L65 23L66 23L66 24L68 24L68 22L65 22L65 21ZM1 22L1 23L2 23L2 24L3 24L3 23L2 23L2 22ZM6 24L6 25L8 25L8 24ZM22 24L22 25L23 25L23 24ZM24 25L24 26L23 26L23 27L22 27L22 29L21 29L21 28L20 28L20 29L21 29L21 31L23 31L23 33L22 33L22 34L23 34L23 33L24 33L24 35L25 35L25 37L26 37L26 35L25 35L25 32L26 32L26 31L25 31L25 30L26 30L26 28L25 28L25 27L24 27L24 26L25 26L25 25ZM42 26L42 27L41 27L41 28L42 28L42 29L43 29L43 30L44 30L44 29L43 29L43 28L44 28L44 27L45 27L45 26ZM23 27L23 28L24 28L24 29L22 29L22 30L23 30L23 31L24 31L24 32L25 32L25 31L24 31L24 29L25 29L25 28L24 28L24 27ZM42 27L42 28L43 28L43 27ZM3 29L3 30L5 30L5 29ZM6 29L6 30L7 30L7 31L6 31L6 32L7 32L7 31L8 31L8 30L7 30L7 29ZM0 30L0 31L1 31L1 30ZM18 30L18 31L19 31L19 30ZM20 32L20 34L19 34L19 35L20 35L20 34L21 34L21 32ZM27 32L27 33L26 33L26 34L27 34L27 38L26 38L26 40L25 40L25 41L26 41L26 40L27 40L27 39L28 39L28 32ZM38 32L38 33L37 33L37 35L38 35L38 34L40 34L40 33L39 33L39 32ZM5 33L5 36L8 36L8 33ZM33 33L33 36L36 36L36 33ZM61 33L61 36L64 36L64 33ZM6 34L6 35L7 35L7 34ZM29 34L29 36L32 36L32 35L30 35L30 34ZM34 34L34 35L35 35L35 34ZM47 34L47 35L48 35L48 34ZM57 34L57 35L56 35L56 36L55 36L55 38L54 38L54 39L53 39L53 40L55 40L55 38L56 38L56 37L57 37L57 36L58 36L58 38L57 38L57 40L58 40L58 41L59 41L59 40L58 40L58 39L59 39L59 38L60 38L60 37L59 37L59 35L58 35L58 34ZM62 34L62 35L63 35L63 34ZM67 34L67 35L66 35L66 36L65 36L65 38L66 38L66 37L67 37L67 35L68 35L68 34ZM19 36L19 37L20 37L20 36ZM3 37L3 38L5 38L5 37ZM6 37L6 38L7 38L7 37ZM30 37L30 38L29 38L29 39L31 39L31 40L33 40L33 37L32 37L32 38L31 38L31 37ZM35 37L35 38L34 38L34 39L35 39L35 38L36 38L36 37ZM46 37L46 38L47 38L47 37ZM50 37L50 39L48 39L48 40L49 40L49 41L48 41L48 42L49 42L49 44L52 44L52 42L50 42L50 40L51 40L51 37ZM8 39L8 40L9 40L9 39ZM34 40L34 42L35 42L35 40ZM40 40L40 41L39 41L39 42L40 42L40 43L41 43L41 42L40 42L40 41L41 41L41 40ZM62 40L62 41L61 41L61 42L62 42L62 41L63 41L63 40ZM2 41L2 43L3 43L3 41ZM32 41L32 42L31 42L31 43L30 43L30 44L29 44L29 43L27 43L27 44L26 44L26 45L22 45L22 47L23 47L23 49L22 49L22 50L21 50L21 51L23 51L23 52L22 52L22 53L21 53L21 54L22 54L22 58L23 58L23 57L24 57L24 58L25 58L25 57L24 57L24 56L23 56L23 55L24 55L24 54L25 54L25 53L26 53L26 52L27 52L27 49L26 49L26 47L25 47L25 48L24 48L24 46L28 46L28 48L30 48L30 47L31 47L31 45L30 45L30 44L31 44L31 43L32 43L32 44L34 44L34 43L32 43L32 42L33 42L33 41ZM6 42L6 43L7 43L7 42ZM17 43L17 45L15 45L15 44L13 44L13 45L14 45L14 46L15 46L15 47L16 47L16 46L17 46L17 45L18 45L18 43ZM27 44L27 45L29 45L29 44ZM57 44L57 45L58 45L58 44ZM32 45L32 47L33 47L33 46L34 46L34 45ZM38 45L38 46L37 46L37 48L35 48L35 49L34 49L34 50L36 50L36 49L37 49L37 48L38 48L38 47L39 47L39 45ZM63 45L63 46L64 46L64 47L66 47L66 46L65 46L65 45ZM29 46L29 47L30 47L30 46ZM35 46L35 47L36 47L36 46ZM51 46L51 47L50 47L50 49L55 49L55 51L56 51L56 52L55 52L55 53L56 53L56 54L55 54L55 55L56 55L56 56L57 56L57 57L58 57L58 55L59 55L59 54L58 54L58 55L57 55L57 51L56 51L56 50L57 50L57 48L58 48L58 51L59 51L59 48L60 48L60 46L59 46L59 47L58 47L58 46L57 46L57 47L56 47L56 48L54 48L54 47L55 47L55 46L53 46L53 47L52 47L52 46ZM17 47L17 48L16 48L16 49L15 49L15 50L16 50L16 51L17 51L17 50L16 50L16 49L17 49L17 48L18 48L18 51L19 51L19 52L20 52L20 50L19 50L19 49L20 49L20 48L18 48L18 47ZM40 47L40 48L41 48L41 50L44 50L44 49L42 49L42 48L41 48L41 47ZM5 48L5 50L4 50L4 51L3 51L3 52L4 52L4 51L5 51L5 50L6 50L6 51L7 51L7 50L6 50L6 49L8 49L8 48ZM31 48L31 49L32 49L32 48ZM45 48L45 50L46 50L46 48ZM25 49L25 50L23 50L23 51L25 51L25 52L24 52L24 53L23 53L23 54L24 54L24 53L25 53L25 52L26 52L26 51L25 51L25 50L26 50L26 49ZM49 50L49 51L53 51L53 52L54 52L54 50ZM28 51L28 52L29 52L29 51ZM38 52L38 53L37 53L37 55L38 55L38 54L39 54L39 55L40 55L40 53L39 53L39 52ZM58 52L58 53L59 53L59 52ZM49 53L49 54L50 54L50 53ZM13 54L13 55L10 55L10 56L9 56L9 57L10 57L10 56L14 56L14 54ZM33 54L33 55L35 55L35 54ZM61 54L61 55L62 55L62 54ZM18 56L18 57L20 57L20 56ZM48 56L48 57L50 57L50 56ZM6 57L6 58L7 58L7 57ZM61 58L61 59L62 59L62 58ZM68 58L68 59L69 59L69 58ZM31 59L31 60L33 60L33 59ZM59 59L59 62L58 62L58 63L59 63L59 62L60 62L60 59ZM3 60L3 61L5 61L5 60ZM17 60L17 62L18 62L18 60ZM33 61L33 64L36 64L36 61ZM61 61L61 64L64 64L64 61ZM34 62L34 63L35 63L35 62ZM51 62L51 63L54 63L54 62ZM55 62L55 63L56 63L56 62ZM62 62L62 63L63 63L63 62ZM16 64L16 65L17 65L17 64ZM18 64L18 65L19 65L19 64ZM13 65L13 67L14 67L14 65ZM35 68L35 69L38 69L38 68ZM48 68L48 69L49 69L49 68ZM67 68L67 69L68 69L68 68ZM0 0L0 7L7 7L7 0ZM1 1L1 6L6 6L6 1ZM2 2L2 5L5 5L5 2ZM62 0L62 7L69 7L69 0ZM63 1L63 6L68 6L68 1ZM64 2L64 5L67 5L67 2ZM0 62L0 69L7 69L7 62ZM1 63L1 68L6 68L6 63ZM2 64L2 67L5 67L5 64Z" fill="#000000"/></g></g></svg>
