<?xml version="1.0" encoding="UTF-8"?>
<svg xmlns="http://www.w3.org/2000/svg" version="1.1" width="300" height="300" viewBox="0 0 300 300"><rect x="0" y="0" width="300" height="300" fill="#ffffff"/><g transform="scale(4.348)"><g transform="translate(0,0)"><path fill-rule="evenodd" d="M8 0L8 4L9 4L9 5L8 5L8 7L9 7L9 6L10 6L10 8L12 8L12 9L11 9L11 10L12 10L12 11L11 11L11 12L14 12L14 11L15 11L15 12L16 12L16 13L18 13L18 15L17 15L17 17L18 17L18 18L17 18L17 20L18 20L18 21L14 21L14 20L12 20L12 18L11 18L11 19L10 19L10 18L9 18L9 17L10 17L10 16L12 16L12 17L13 17L13 16L14 16L14 15L15 15L15 14L14 14L14 15L13 15L13 16L12 16L12 15L11 15L11 14L12 14L12 13L11 13L11 14L10 14L10 12L8 12L8 11L10 11L10 9L8 9L8 11L7 11L7 10L6 10L6 9L7 9L7 8L4 8L4 9L3 9L3 10L2 10L2 8L0 8L0 9L1 9L1 10L2 10L2 12L1 12L1 13L2 13L2 12L3 12L3 13L4 13L4 14L3 14L3 15L4 15L4 16L1 16L1 15L2 15L2 14L1 14L1 15L0 15L0 16L1 16L1 17L0 17L0 19L1 19L1 17L2 17L2 19L3 19L3 20L0 20L0 25L2 25L2 26L0 26L0 27L1 27L1 28L2 28L2 26L3 26L3 29L1 29L1 30L4 30L4 31L0 31L0 32L1 32L1 33L0 33L0 35L2 35L2 36L3 36L3 35L4 35L4 37L2 37L2 38L4 38L4 39L5 39L5 40L2 40L2 39L1 39L1 38L0 38L0 39L1 39L1 41L0 41L0 42L3 42L3 43L4 43L4 42L5 42L5 44L6 44L6 45L4 45L4 44L3 44L3 45L2 45L2 46L1 46L1 48L0 48L0 53L1 53L1 55L2 55L2 57L1 57L1 56L0 56L0 57L1 57L1 58L0 58L0 61L1 61L1 58L2 58L2 59L3 59L3 58L4 58L4 59L8 59L8 62L9 62L9 61L10 61L10 63L8 63L8 65L9 65L9 67L8 67L8 69L9 69L9 68L10 68L10 67L11 67L11 68L12 68L12 69L13 69L13 67L12 67L12 66L14 66L14 69L20 69L20 68L19 68L19 67L20 67L20 66L21 66L21 69L22 69L22 67L23 67L23 69L24 69L24 68L25 68L25 69L27 69L27 68L26 68L26 67L25 67L25 66L27 66L27 67L28 67L28 66L30 66L30 65L31 65L31 67L33 67L33 68L32 68L32 69L33 69L33 68L34 68L34 69L35 69L35 67L36 67L36 66L35 66L35 67L33 67L33 66L34 66L34 65L37 65L37 63L38 63L38 62L39 62L39 61L38 61L38 60L41 60L41 62L40 62L40 63L39 63L39 64L38 64L38 66L37 66L37 67L39 67L39 68L38 68L38 69L40 69L40 68L42 68L42 69L43 69L43 63L42 63L42 62L43 62L43 61L42 61L42 58L45 58L45 59L44 59L44 61L45 61L45 62L44 62L44 69L46 69L46 67L45 67L45 63L46 63L46 64L47 64L47 66L48 66L48 67L49 67L49 59L48 59L48 57L50 57L50 62L51 62L51 59L52 59L52 58L51 58L51 57L52 57L52 56L53 56L53 55L55 55L55 54L56 54L56 57L53 57L53 58L56 58L56 57L57 57L57 58L58 58L58 59L57 59L57 60L56 60L56 63L55 63L55 60L54 60L54 59L53 59L53 60L54 60L54 61L53 61L53 63L51 63L51 65L50 65L50 67L51 67L51 69L52 69L52 68L53 68L53 69L54 69L54 68L55 68L55 69L59 69L59 68L62 68L62 69L63 69L63 68L64 68L64 69L67 69L67 68L65 68L65 67L67 67L67 66L69 66L69 63L68 63L68 60L69 60L69 59L68 59L68 57L69 57L69 55L68 55L68 53L69 53L69 52L68 52L68 50L67 50L67 49L68 49L68 48L69 48L69 47L68 47L68 46L69 46L69 44L68 44L68 43L67 43L67 42L66 42L66 43L67 43L67 44L66 44L66 46L64 46L64 44L65 44L65 42L64 42L64 43L63 43L63 44L62 44L62 42L63 42L63 41L65 41L65 40L64 40L64 39L65 39L65 38L64 38L64 39L60 39L60 38L58 38L58 37L59 37L59 36L60 36L60 37L62 37L62 38L63 38L63 37L66 37L66 39L67 39L67 40L66 40L66 41L68 41L68 38L69 38L69 35L68 35L68 33L69 33L69 31L68 31L68 30L69 30L69 28L67 28L67 30L63 30L63 29L64 29L64 28L65 28L65 27L68 27L68 26L67 26L67 24L68 24L68 22L67 22L67 20L68 20L68 21L69 21L69 20L68 20L68 18L67 18L67 16L66 16L66 17L64 17L64 16L65 16L65 15L64 15L64 14L65 14L65 13L64 13L64 12L65 12L65 11L68 11L68 10L65 10L65 11L62 11L62 20L63 20L63 21L62 21L62 23L61 23L61 24L60 24L60 23L58 23L58 24L57 24L57 23L56 23L56 22L57 22L57 21L58 21L58 20L59 20L59 21L60 21L60 22L61 22L61 21L60 21L60 19L61 19L61 13L59 13L59 14L58 14L58 13L57 13L57 10L58 10L58 11L60 11L60 12L61 12L61 8L60 8L60 7L61 7L61 6L60 6L60 7L59 7L59 4L58 4L58 5L55 5L55 4L56 4L56 3L55 3L55 2L53 2L53 1L56 1L56 2L57 2L57 3L59 3L59 2L57 2L57 1L61 1L61 0L57 0L57 1L56 1L56 0L53 0L53 1L52 1L52 4L53 4L53 6L52 6L52 7L51 7L51 3L50 3L50 1L51 1L51 0L50 0L50 1L48 1L48 2L47 2L47 1L44 1L44 0L40 0L40 4L38 4L38 3L37 3L37 2L38 2L38 1L39 1L39 0L38 0L38 1L36 1L36 0L34 0L34 1L33 1L33 0L31 0L31 1L30 1L30 0L22 0L22 3L20 3L20 5L18 5L18 3L19 3L19 1L20 1L20 2L21 2L21 0L16 0L16 1L17 1L17 2L16 2L16 4L14 4L14 3L13 3L13 5L12 5L12 3L11 3L11 2L10 2L10 0ZM11 0L11 1L12 1L12 2L14 2L14 1L15 1L15 0ZM23 1L23 3L24 3L24 4L25 4L25 5L24 5L24 6L23 6L23 5L20 5L20 6L19 6L19 7L18 7L18 6L17 6L17 7L16 7L16 5L17 5L17 4L16 4L16 5L15 5L15 7L14 7L14 6L13 6L13 7L12 7L12 6L11 6L11 3L10 3L10 2L9 2L9 4L10 4L10 6L11 6L11 7L12 7L12 8L13 8L13 9L12 9L12 10L14 10L14 8L17 8L17 9L16 9L16 10L15 10L15 11L16 11L16 12L17 12L17 9L18 9L18 10L19 10L19 16L18 16L18 17L19 17L19 18L18 18L18 20L19 20L19 19L20 19L20 18L21 18L21 19L22 19L22 18L23 18L23 16L22 16L22 15L20 15L20 11L21 11L21 12L22 12L22 13L23 13L23 12L24 12L24 11L22 11L22 10L23 10L23 9L24 9L24 10L25 10L25 9L26 9L26 10L27 10L27 11L26 11L26 12L28 12L28 14L29 14L29 15L28 15L28 17L27 17L27 18L26 18L26 17L25 17L25 15L26 15L26 16L27 16L27 13L25 13L25 15L24 15L24 17L25 17L25 18L24 18L24 19L25 19L25 22L26 22L26 23L25 23L25 26L24 26L24 25L21 25L21 26L23 26L23 27L21 27L21 29L23 29L23 31L25 31L25 32L24 32L24 33L29 33L29 34L28 34L28 35L27 35L27 37L28 37L28 39L30 39L30 38L29 38L29 36L30 36L30 35L31 35L31 36L32 36L32 35L31 35L31 33L29 33L29 32L30 32L30 31L32 31L32 32L35 32L35 31L37 31L37 30L38 30L38 29L37 29L37 30L36 30L36 28L37 28L37 26L38 26L38 27L39 27L39 29L40 29L40 30L42 30L42 28L43 28L43 29L44 29L44 28L45 28L45 29L46 29L46 30L47 30L47 31L48 31L48 32L50 32L50 33L49 33L49 37L46 37L46 34L47 34L47 35L48 35L48 34L47 34L47 33L46 33L46 32L45 32L45 33L44 33L44 30L43 30L43 31L40 31L40 33L44 33L44 34L43 34L43 35L41 35L41 34L38 34L38 33L39 33L39 32L38 32L38 33L37 33L37 34L38 34L38 35L37 35L37 37L36 37L36 39L35 39L35 37L32 37L32 38L31 38L31 39L32 39L32 40L33 40L33 41L32 41L32 42L30 42L30 41L31 41L31 40L30 40L30 41L28 41L28 43L32 43L32 44L31 44L31 45L33 45L33 47L32 47L32 46L31 46L31 48L32 48L32 49L31 49L31 54L30 54L30 55L29 55L29 53L27 53L27 55L28 55L28 56L27 56L27 57L28 57L28 58L26 58L26 52L24 52L24 53L25 53L25 54L24 54L24 56L25 56L25 58L24 58L24 57L21 57L21 60L20 60L20 57L17 57L17 56L14 56L14 59L13 59L13 57L12 57L12 58L11 58L11 55L13 55L13 54L14 54L14 53L15 53L15 52L16 52L16 54L17 54L17 55L18 55L18 56L20 56L20 55L22 55L22 56L23 56L23 52L22 52L22 53L21 53L21 54L20 54L20 52L19 52L19 53L18 53L18 52L17 52L17 51L16 51L16 50L18 50L18 49L19 49L19 51L20 51L20 50L21 50L21 51L22 51L22 50L21 50L21 49L25 49L25 51L28 51L28 50L29 50L29 47L28 47L28 49L27 49L27 50L26 50L26 49L25 49L25 47L26 47L26 48L27 48L27 46L26 46L26 38L24 38L24 39L23 39L23 40L22 40L22 39L21 39L21 41L22 41L22 42L23 42L23 41L24 41L24 42L25 42L25 47L24 47L24 48L23 48L23 47L20 47L20 48L21 48L21 49L19 49L19 48L18 48L18 49L16 49L16 50L15 50L15 49L14 49L14 47L15 47L15 46L11 46L11 45L12 45L12 44L14 44L14 42L15 42L15 43L16 43L16 42L17 42L17 44L15 44L15 45L16 45L16 48L17 48L17 47L18 47L18 45L17 45L17 44L19 44L19 46L20 46L20 45L21 45L21 46L22 46L22 45L23 45L23 44L24 44L24 43L23 43L23 44L22 44L22 43L20 43L20 44L19 44L19 43L18 43L18 42L20 42L20 37L21 37L21 34L22 34L22 38L23 38L23 37L24 37L24 36L23 36L23 35L24 35L24 34L22 34L22 33L23 33L23 32L22 32L22 30L21 30L21 32L22 32L22 33L21 33L21 34L20 34L20 35L19 35L19 34L18 34L18 35L16 35L16 38L15 38L15 34L14 34L14 33L15 33L15 32L16 32L16 31L15 31L15 32L14 32L14 31L13 31L13 29L14 29L14 28L16 28L16 30L18 30L18 31L17 31L17 33L16 33L16 34L17 34L17 33L18 33L18 32L19 32L19 33L20 33L20 25L19 25L19 27L18 27L18 26L16 26L16 27L15 27L15 26L13 26L13 25L17 25L17 24L16 24L16 22L15 22L15 23L14 23L14 22L13 22L13 21L10 21L10 19L5 19L5 18L8 18L8 16L9 16L9 14L8 14L8 15L6 15L6 14L7 14L7 13L8 13L8 12L7 12L7 11L6 11L6 12L4 12L4 11L3 11L3 12L4 12L4 13L6 13L6 14L5 14L5 15L6 15L6 16L7 16L7 17L3 17L3 18L4 18L4 20L3 20L3 21L2 21L2 25L3 25L3 24L4 24L4 26L5 26L5 27L4 27L4 29L6 29L6 30L7 30L7 31L6 31L6 32L8 32L8 30L9 30L9 32L10 32L10 34L11 34L11 35L12 35L12 34L13 34L13 35L14 35L14 38L13 38L13 37L12 37L12 38L7 38L7 37L6 37L6 38L5 38L5 37L4 37L4 38L5 38L5 39L6 39L6 40L7 40L7 41L5 41L5 42L7 42L7 43L6 43L6 44L7 44L7 45L6 45L6 46L4 46L4 47L3 47L3 48L4 48L4 49L5 49L5 48L4 48L4 47L6 47L6 48L8 48L8 52L7 52L7 51L6 51L6 52L5 52L5 50L3 50L3 49L2 49L2 48L1 48L1 49L2 49L2 50L3 50L3 51L1 51L1 53L2 53L2 54L3 54L3 55L5 55L5 54L7 54L7 55L6 55L6 56L5 56L5 57L6 57L6 58L7 58L7 57L8 57L8 56L10 56L10 58L9 58L9 59L10 59L10 60L11 60L11 61L12 61L12 62L14 62L14 63L15 63L15 65L16 65L16 66L15 66L15 68L16 68L16 66L17 66L17 65L18 65L18 64L19 64L19 65L20 65L20 64L22 64L22 66L23 66L23 64L22 64L22 63L20 63L20 64L19 64L19 62L20 62L20 61L21 61L21 62L23 62L23 63L24 63L24 64L25 64L25 65L30 65L30 64L31 64L31 65L32 65L32 66L33 66L33 65L32 65L32 64L31 64L31 63L32 63L32 62L31 62L31 61L32 61L32 60L33 60L33 57L31 57L31 58L30 58L30 59L29 59L29 57L30 57L30 56L32 56L32 55L33 55L33 56L34 56L34 60L38 60L38 59L35 59L35 56L36 56L36 57L37 57L37 56L38 56L38 57L39 57L39 58L40 58L40 59L41 59L41 58L40 58L40 57L41 57L41 56L42 56L42 57L44 57L44 54L45 54L45 53L46 53L46 54L47 54L47 57L46 57L46 58L47 58L47 57L48 57L48 55L49 55L49 56L50 56L50 57L51 57L51 55L53 55L53 53L54 53L54 52L53 52L53 50L52 50L52 49L53 49L53 48L52 48L52 47L50 47L50 45L51 45L51 46L53 46L53 47L54 47L54 48L55 48L55 49L56 49L56 48L57 48L57 47L54 47L54 45L56 45L56 46L57 46L57 45L58 45L58 47L60 47L60 46L59 46L59 45L60 45L60 44L61 44L61 46L62 46L62 48L61 48L61 49L62 49L62 51L61 51L61 50L59 50L59 49L60 49L60 48L58 48L58 50L57 50L57 51L58 51L58 52L57 52L57 53L58 53L58 55L57 55L57 56L58 56L58 58L62 58L62 60L64 60L64 59L63 59L63 58L62 58L62 56L63 56L63 55L64 55L64 58L65 58L65 57L66 57L66 58L67 58L67 57L68 57L68 55L64 55L64 54L65 54L65 53L66 53L66 52L67 52L67 50L66 50L66 49L67 49L67 46L68 46L68 45L67 45L67 46L66 46L66 47L65 47L65 49L62 49L62 48L64 48L64 47L63 47L63 46L62 46L62 44L61 44L61 43L60 43L60 39L58 39L58 38L57 38L57 37L58 37L58 36L57 36L57 35L59 35L59 32L62 32L62 31L63 31L63 32L66 32L66 33L67 33L67 32L68 32L68 31L63 31L63 30L62 30L62 29L63 29L63 28L62 28L62 27L60 27L60 26L59 26L59 25L60 25L60 24L58 24L58 26L57 26L57 25L56 25L56 23L55 23L55 22L56 22L56 21L55 21L55 20L53 20L53 19L55 19L55 18L56 18L56 19L57 19L57 20L58 20L58 19L59 19L59 17L58 17L58 16L59 16L59 15L58 15L58 14L56 14L56 12L52 12L52 13L55 13L55 14L53 14L53 16L52 16L52 15L50 15L50 13L51 13L51 12L50 12L50 11L49 11L49 12L50 12L50 13L49 13L49 16L50 16L50 17L49 17L49 18L50 18L50 17L51 17L51 16L52 16L52 18L51 18L51 19L50 19L50 20L49 20L49 21L46 21L46 22L49 22L49 23L50 23L50 24L51 24L51 23L50 23L50 21L55 21L55 22L52 22L52 25L56 25L56 26L57 26L57 27L56 27L56 28L55 28L55 27L54 27L54 28L53 28L53 27L51 27L51 28L50 28L50 25L48 25L48 23L47 23L47 25L46 25L46 26L47 26L47 25L48 25L48 27L49 27L49 28L50 28L50 29L48 29L48 30L47 30L47 28L46 28L46 27L43 27L43 26L41 26L41 25L42 25L42 24L43 24L43 25L44 25L44 24L45 24L45 23L44 23L44 20L46 20L46 18L47 18L47 19L48 19L48 15L47 15L47 16L46 16L46 14L47 14L47 13L46 13L46 12L47 12L47 11L46 11L46 10L47 10L47 8L49 8L49 10L50 10L50 9L51 9L51 7L50 7L50 6L49 6L49 5L50 5L50 3L47 3L47 4L46 4L46 5L44 5L44 4L45 4L45 3L46 3L46 2L45 2L45 3L44 3L44 2L42 2L42 1L41 1L41 2L42 2L42 3L41 3L41 4L40 4L40 5L39 5L39 8L38 8L38 5L37 5L37 8L38 8L38 9L37 9L37 12L36 12L36 13L37 13L37 14L35 14L35 13L34 13L34 11L36 11L36 9L35 9L35 10L34 10L34 9L32 9L32 11L31 11L31 10L30 10L30 9L31 9L31 8L30 8L30 9L28 9L28 10L27 10L27 9L26 9L26 6L27 6L27 8L28 8L28 6L29 6L29 7L30 7L30 6L31 6L31 7L32 7L32 6L31 6L31 5L32 5L32 4L33 4L33 3L34 3L34 4L35 4L35 3L36 3L36 4L37 4L37 3L36 3L36 1L35 1L35 3L34 3L34 2L33 2L33 1L32 1L32 2L31 2L31 3L29 3L29 2L30 2L30 1L29 1L29 2L28 2L28 1L26 1L26 2L24 2L24 1ZM17 2L17 3L18 3L18 2ZM26 2L26 3L25 3L25 4L26 4L26 5L25 5L25 6L24 6L24 7L23 7L23 6L22 6L22 8L24 8L24 9L25 9L25 8L24 8L24 7L25 7L25 6L26 6L26 5L28 5L28 4L29 4L29 6L30 6L30 5L31 5L31 4L32 4L32 3L33 3L33 2L32 2L32 3L31 3L31 4L29 4L29 3L27 3L27 2ZM26 3L26 4L27 4L27 3ZM43 3L43 4L41 4L41 6L40 6L40 7L41 7L41 8L43 8L43 6L44 6L44 7L45 7L45 8L44 8L44 9L45 9L45 10L46 10L46 9L45 9L45 8L47 8L47 6L48 6L48 7L49 7L49 8L50 8L50 7L49 7L49 6L48 6L48 5L49 5L49 4L48 4L48 5L47 5L47 6L46 6L46 7L45 7L45 6L44 6L44 5L43 5L43 4L44 4L44 3ZM60 3L60 5L61 5L61 3ZM33 5L33 8L36 8L36 5ZM20 6L20 7L19 7L19 8L18 8L18 7L17 7L17 8L18 8L18 9L19 9L19 8L20 8L20 10L22 10L22 9L21 9L21 8L20 8L20 7L21 7L21 6ZM34 6L34 7L35 7L35 6ZM41 6L41 7L42 7L42 6ZM53 6L53 7L54 7L54 8L52 8L52 9L55 9L55 11L56 11L56 10L57 10L57 9L58 9L58 10L59 10L59 9L60 9L60 8L59 8L59 9L58 9L58 6L57 6L57 9L56 9L56 8L55 8L55 7L56 7L56 6L55 6L55 7L54 7L54 6ZM13 7L13 8L14 8L14 7ZM39 8L39 9L38 9L38 10L39 10L39 9L40 9L40 8ZM63 8L63 9L62 9L62 10L64 10L64 8ZM65 8L65 9L69 9L69 8ZM41 9L41 10L40 10L40 11L38 11L38 12L37 12L37 13L38 13L38 15L36 15L36 16L35 16L35 14L34 14L34 15L33 15L33 12L32 12L32 13L31 13L31 11L30 11L30 10L29 10L29 11L28 11L28 12L30 12L30 13L29 13L29 14L30 14L30 13L31 13L31 15L33 15L33 16L32 16L32 17L34 17L34 16L35 16L35 17L38 17L38 18L39 18L39 19L34 19L34 18L33 18L33 19L34 19L34 20L36 20L36 21L38 21L38 20L39 20L39 21L40 21L40 23L39 23L39 25L38 25L38 23L37 23L37 25L36 25L36 23L35 23L35 22L34 22L34 21L33 21L33 20L32 20L32 19L31 19L31 20L29 20L29 18L31 18L31 16L30 16L30 15L29 15L29 18L28 18L28 19L27 19L27 20L26 20L26 22L27 22L27 23L28 23L28 21L27 21L27 20L29 20L29 23L30 23L30 21L32 21L32 22L31 22L31 24L30 24L30 25L29 25L29 24L28 24L28 25L27 25L27 24L26 24L26 25L27 25L27 28L26 28L26 26L25 26L25 28L26 28L26 30L25 30L25 29L24 29L24 27L23 27L23 29L24 29L24 30L25 30L25 31L26 31L26 32L27 32L27 30L28 30L28 29L30 29L30 30L31 30L31 29L32 29L32 28L33 28L33 27L31 27L31 28L28 28L28 25L29 25L29 27L30 27L30 26L31 26L31 25L32 25L32 26L33 26L33 25L34 25L34 26L35 26L35 27L34 27L34 28L35 28L35 27L36 27L36 26L37 26L37 25L38 25L38 26L39 26L39 27L40 27L40 28L42 28L42 27L40 27L40 23L41 23L41 22L43 22L43 20L42 20L42 19L40 19L40 16L42 16L42 17L41 17L41 18L44 18L44 19L45 19L45 18L46 18L46 16L45 16L45 15L44 15L44 13L45 13L45 14L46 14L46 13L45 13L45 12L46 12L46 11L44 11L44 13L42 13L42 15L39 15L39 13L40 13L40 14L41 14L41 10L42 10L42 12L43 12L43 9ZM33 10L33 11L34 11L34 10ZM6 12L6 13L7 13L7 12ZM38 12L38 13L39 13L39 12ZM66 12L66 13L67 13L67 12ZM68 12L68 14L67 14L67 15L68 15L68 14L69 14L69 12ZM63 13L63 14L64 14L64 13ZM43 15L43 17L44 17L44 15ZM54 15L54 17L53 17L53 18L52 18L52 19L53 19L53 18L55 18L55 16L56 16L56 17L57 17L57 19L58 19L58 17L57 17L57 16L58 16L58 15L57 15L57 16L56 16L56 15ZM15 16L15 19L16 19L16 16ZM19 16L19 17L21 17L21 18L22 18L22 16ZM68 16L68 17L69 17L69 16ZM63 17L63 20L64 20L64 21L63 21L63 22L64 22L64 21L65 21L65 20L67 20L67 19L65 19L65 20L64 20L64 17ZM13 18L13 19L14 19L14 18ZM25 18L25 19L26 19L26 18ZM39 19L39 20L40 20L40 21L41 21L41 20L40 20L40 19ZM6 20L6 21L7 21L7 20ZM8 20L8 22L9 22L9 23L10 23L10 24L8 24L8 23L7 23L7 22L6 22L6 23L4 23L4 22L3 22L3 23L4 23L4 24L5 24L5 26L6 26L6 27L5 27L5 28L6 28L6 29L7 29L7 30L8 30L8 29L9 29L9 28L8 28L8 27L7 27L7 26L6 26L6 25L7 25L7 24L8 24L8 26L9 26L9 25L10 25L10 24L11 24L11 23L12 23L12 25L11 25L11 26L12 26L12 25L13 25L13 23L12 23L12 22L9 22L9 20ZM22 20L22 22L20 22L20 21L18 21L18 24L19 24L19 22L20 22L20 23L22 23L22 24L23 24L23 23L24 23L24 22L23 22L23 20ZM33 22L33 23L32 23L32 25L33 25L33 24L34 24L34 25L35 25L35 24L34 24L34 22ZM65 22L65 23L64 23L64 26L63 26L63 27L64 27L64 26L65 26L65 24L67 24L67 23L66 23L66 22ZM6 23L6 24L7 24L7 23ZM53 23L53 24L54 24L54 23ZM62 24L62 25L63 25L63 24ZM58 26L58 27L57 27L57 28L56 28L56 29L52 29L52 31L53 31L53 32L56 32L56 33L50 33L50 34L52 34L52 35L51 35L51 36L50 36L50 37L49 37L49 39L48 39L48 38L47 38L47 41L50 41L50 43L48 43L48 42L47 42L47 43L46 43L46 44L44 44L44 45L43 45L43 44L41 44L41 43L39 43L39 42L43 42L43 39L45 39L45 40L44 40L44 43L45 43L45 42L46 42L46 37L45 37L45 34L46 34L46 33L45 33L45 34L44 34L44 37L45 37L45 38L43 38L43 36L41 36L41 35L40 35L40 36L38 36L38 37L37 37L37 39L38 39L38 40L37 40L37 41L33 41L33 42L34 42L34 43L33 43L33 45L34 45L34 44L35 44L35 43L37 43L37 41L38 41L38 43L39 43L39 44L36 44L36 45L38 45L38 47L36 47L36 46L35 46L35 47L36 47L36 48L37 48L37 49L38 49L38 50L39 50L39 51L37 51L37 52L35 52L35 51L36 51L36 49L32 49L32 51L34 51L34 52L35 52L35 53L38 53L38 52L39 52L39 54L40 54L40 52L42 52L42 53L41 53L41 54L42 54L42 55L43 55L43 54L44 54L44 53L45 53L45 50L46 50L46 51L47 51L47 50L46 50L46 49L45 49L45 48L47 48L47 49L48 49L48 50L49 50L49 49L50 49L50 50L51 50L51 49L52 49L52 48L51 48L51 49L50 49L50 47L49 47L49 45L50 45L50 44L51 44L51 45L52 45L52 44L53 44L53 45L54 45L54 43L52 43L52 41L51 41L51 39L52 39L52 38L53 38L53 42L56 42L56 41L57 41L57 44L56 44L56 43L55 43L55 44L56 44L56 45L57 45L57 44L58 44L58 45L59 45L59 44L58 44L58 43L59 43L59 42L58 42L58 41L59 41L59 40L58 40L58 39L56 39L56 41L54 41L54 40L55 40L55 38L56 38L56 37L57 37L57 36L56 36L56 35L57 35L57 34L56 34L56 33L57 33L57 32L56 32L56 30L57 30L57 31L58 31L58 32L59 32L59 31L58 31L58 29L59 29L59 30L60 30L60 31L62 31L62 30L61 30L61 29L62 29L62 28L60 28L60 27L59 27L59 26ZM6 27L6 28L7 28L7 27ZM10 27L10 29L11 29L11 31L10 31L10 32L12 32L12 33L11 33L11 34L12 34L12 33L13 33L13 32L12 32L12 29L13 29L13 28L14 28L14 27L13 27L13 28L12 28L12 29L11 29L11 27ZM58 27L58 28L57 28L57 29L58 29L58 28L59 28L59 29L60 29L60 28L59 28L59 27ZM17 28L17 29L19 29L19 28ZM33 29L33 31L34 31L34 30L35 30L35 29ZM50 29L50 30L51 30L51 29ZM53 30L53 31L55 31L55 30ZM4 31L4 32L5 32L5 31ZM28 31L28 32L29 32L29 31ZM50 31L50 32L51 32L51 31ZM2 32L2 33L1 33L1 34L4 34L4 33L3 33L3 32ZM5 33L5 36L8 36L8 33ZM33 33L33 36L36 36L36 33ZM61 33L61 36L64 36L64 33ZM6 34L6 35L7 35L7 34ZM25 34L25 37L26 37L26 34ZM34 34L34 35L35 35L35 34ZM55 34L55 35L52 35L52 37L51 37L51 38L52 38L52 37L54 37L54 36L55 36L55 37L56 37L56 36L55 36L55 35L56 35L56 34ZM62 34L62 35L63 35L63 34ZM65 34L65 36L66 36L66 37L68 37L68 35L66 35L66 34ZM9 35L9 36L10 36L10 35ZM0 36L0 37L1 37L1 36ZM17 36L17 39L16 39L16 40L15 40L15 38L14 38L14 39L13 39L13 38L12 38L12 39L11 39L11 40L12 40L12 42L11 42L11 43L13 43L13 40L15 40L15 41L16 41L16 40L17 40L17 42L18 42L18 41L19 41L19 37L20 37L20 36ZM40 36L40 37L39 37L39 38L38 38L38 39L40 39L40 41L41 41L41 39L40 39L40 38L41 38L41 36ZM6 38L6 39L7 39L7 38ZM32 38L32 39L33 39L33 38ZM8 39L8 40L9 40L9 39ZM12 39L12 40L13 40L13 39ZM34 39L34 40L35 40L35 39ZM24 40L24 41L25 41L25 40ZM38 40L38 41L39 41L39 40ZM57 40L57 41L58 41L58 40ZM61 40L61 41L62 41L62 40ZM7 41L7 42L8 42L8 43L7 43L7 44L8 44L8 45L7 45L7 46L6 46L6 47L8 47L8 48L9 48L9 47L8 47L8 46L10 46L10 49L11 49L11 46L10 46L10 45L11 45L11 44L8 44L8 43L10 43L10 42L9 42L9 41ZM1 43L1 44L2 44L2 43ZM47 43L47 44L46 44L46 47L47 47L47 44L48 44L48 43ZM51 43L51 44L52 44L52 43ZM21 44L21 45L22 45L22 44ZM27 44L27 45L28 45L28 46L29 46L29 45L28 45L28 44ZM39 45L39 47L38 47L38 48L39 48L39 47L41 47L41 48L40 48L40 51L39 51L39 52L40 52L40 51L41 51L41 49L42 49L42 45L41 45L41 46L40 46L40 45ZM44 45L44 46L43 46L43 47L44 47L44 48L43 48L43 49L44 49L44 50L45 50L45 49L44 49L44 48L45 48L45 45ZM12 47L12 49L13 49L13 47ZM33 47L33 48L34 48L34 47ZM48 47L48 48L49 48L49 47ZM6 49L6 50L7 50L7 49ZM10 50L10 51L11 51L11 50ZM42 50L42 51L43 51L43 53L44 53L44 51L43 51L43 50ZM54 50L54 51L56 51L56 50ZM58 50L58 51L59 51L59 50ZM63 50L63 51L62 51L62 52L61 52L61 51L60 51L60 52L61 52L61 53L62 53L62 54L60 54L60 53L59 53L59 52L58 52L58 53L59 53L59 55L58 55L58 56L59 56L59 55L60 55L60 56L61 56L61 55L62 55L62 54L64 54L64 53L62 53L62 52L63 52L63 51L64 51L64 52L65 52L65 51L66 51L66 50ZM12 51L12 52L9 52L9 54L8 54L8 53L7 53L7 52L6 52L6 53L7 53L7 54L8 54L8 55L7 55L7 56L6 56L6 57L7 57L7 56L8 56L8 55L10 55L10 53L11 53L11 54L12 54L12 53L13 53L13 52L15 52L15 51ZM51 51L51 53L50 53L50 52L46 52L46 53L48 53L48 54L49 54L49 55L50 55L50 54L52 54L52 51ZM4 52L4 54L5 54L5 52ZM32 52L32 53L33 53L33 54L34 54L34 56L35 56L35 55L36 55L36 54L34 54L34 53L33 53L33 52ZM17 53L17 54L18 54L18 53ZM49 53L49 54L50 54L50 53ZM19 54L19 55L20 55L20 54ZM39 55L39 57L40 57L40 55ZM3 56L3 57L4 57L4 56ZM28 56L28 57L29 57L29 56ZM15 57L15 59L14 59L14 60L15 60L15 62L16 62L16 60L15 60L15 59L16 59L16 58L17 58L17 57ZM10 58L10 59L11 59L11 58ZM18 58L18 59L19 59L19 58ZM22 58L22 60L21 60L21 61L22 61L22 60L23 60L23 61L24 61L24 62L25 62L25 63L26 63L26 64L27 64L27 62L28 62L28 64L29 64L29 63L30 63L30 62L28 62L28 60L29 60L29 61L31 61L31 60L32 60L32 59L31 59L31 60L29 60L29 59L26 59L26 58L25 58L25 60L26 60L26 62L25 62L25 61L24 61L24 59L23 59L23 58ZM12 59L12 61L13 61L13 59ZM46 59L46 60L45 60L45 61L46 61L46 63L47 63L47 59ZM58 59L58 60L59 60L59 61L58 61L58 62L57 62L57 63L56 63L56 64L54 64L54 63L53 63L53 64L52 64L52 65L51 65L51 66L52 66L52 67L57 67L57 65L58 65L58 66L59 66L59 67L58 67L58 68L59 68L59 67L61 67L61 66L59 66L59 65L60 65L60 64L59 64L59 65L58 65L58 63L60 63L60 62L59 62L59 61L60 61L60 60L59 60L59 59ZM65 59L65 60L68 60L68 59ZM3 60L3 61L5 61L5 60ZM6 60L6 61L7 61L7 60ZM17 60L17 63L16 63L16 65L17 65L17 63L18 63L18 61L20 61L20 60ZM33 61L33 64L36 64L36 61ZM37 61L37 62L38 62L38 61ZM61 61L61 64L64 64L64 61ZM34 62L34 63L35 63L35 62ZM62 62L62 63L63 63L63 62ZM66 62L66 63L65 63L65 65L64 65L64 66L63 66L63 67L62 67L62 68L63 68L63 67L64 67L64 66L65 66L65 65L68 65L68 63L67 63L67 62ZM12 63L12 64L13 64L13 63ZM40 63L40 66L39 66L39 67L41 67L41 63ZM56 64L56 65L53 65L53 66L56 66L56 65L57 65L57 64ZM10 65L10 66L11 66L11 65ZM18 66L18 67L17 67L17 68L18 68L18 67L19 67L19 66ZM29 67L29 68L28 68L28 69L31 69L31 68L30 68L30 67ZM36 68L36 69L37 69L37 68ZM47 68L47 69L50 69L50 68ZM68 68L68 69L69 69L69 68ZM0 0L0 7L7 7L7 0ZM1 1L1 6L6 6L6 1ZM2 2L2 5L5 5L5 2ZM62 0L62 7L69 7L69 0ZM63 1L63 6L68 6L68 1ZM64 2L64 5L67 5L67 2ZM0 62L0 69L7 69L7 62ZM1 63L1 68L6 68L6 63ZM2 64L2 67L5 67L5 64Z" fill="#000000"/></g></g></svg>
