<?xml version="1.0" encoding="UTF-8"?>
<svg xmlns="http://www.w3.org/2000/svg" version="1.1" width="300" height="300" viewBox="0 0 300 300"><rect x="0" y="0" width="300" height="300" fill="#ffffff"/><g transform="scale(4.348)"><g transform="translate(0,0)"><path fill-rule="evenodd" d="M8 0L8 4L9 4L9 5L8 5L8 7L9 7L9 5L10 5L10 8L11 8L11 12L10 12L10 10L8 10L8 9L7 9L7 8L4 8L4 9L3 9L3 10L2 10L2 8L0 8L0 12L2 12L2 14L1 14L1 15L2 15L2 14L3 14L3 13L4 13L4 15L3 15L3 16L4 16L4 15L5 15L5 13L7 13L7 12L8 12L8 11L9 11L9 12L10 12L10 13L12 13L12 12L14 12L14 13L13 13L13 15L12 15L12 14L10 14L10 15L9 15L9 14L6 14L6 15L7 15L7 16L5 16L5 17L2 17L2 16L0 16L0 17L1 17L1 18L2 18L2 19L3 19L3 22L2 22L2 20L1 20L1 19L0 19L0 23L1 23L1 24L2 24L2 26L4 26L4 27L3 27L3 28L0 28L0 29L1 29L1 30L0 30L0 32L1 32L1 31L2 31L2 30L6 30L6 31L4 31L4 32L3 32L3 33L2 33L2 34L1 34L1 33L0 33L0 37L1 37L1 39L0 39L0 40L1 40L1 39L2 39L2 40L5 40L5 42L3 42L3 41L2 41L2 44L0 44L0 47L3 47L3 48L2 48L2 49L1 49L1 50L0 50L0 51L2 51L2 50L3 50L3 52L4 52L4 56L5 56L5 53L7 53L7 54L6 54L6 55L7 55L7 56L6 56L6 57L4 57L4 59L8 59L8 58L6 58L6 57L8 57L8 56L9 56L9 60L6 60L6 61L8 61L8 62L9 62L9 60L10 60L10 61L11 61L11 60L14 60L14 59L16 59L16 58L17 58L17 59L18 59L18 58L20 58L20 59L19 59L19 60L18 60L18 61L17 61L17 63L16 63L16 61L13 61L13 63L11 63L11 62L10 62L10 63L8 63L8 65L9 65L9 67L8 67L8 69L11 69L11 67L10 67L10 66L12 66L12 69L13 69L13 67L14 67L14 68L16 68L16 69L19 69L19 67L20 67L20 66L21 66L21 67L23 67L23 69L24 69L24 68L25 68L25 69L29 69L29 67L28 67L28 64L27 64L27 62L28 62L28 63L29 63L29 64L30 64L30 65L29 65L29 66L30 66L30 67L31 67L31 68L30 68L30 69L38 69L38 68L39 68L39 69L40 69L40 68L41 68L41 69L42 69L42 67L43 67L43 68L44 68L44 69L46 69L46 67L47 67L47 69L50 69L50 68L51 68L51 69L52 69L52 68L53 68L53 67L54 67L54 69L55 69L55 68L56 68L56 69L59 69L59 68L60 68L60 67L59 67L59 66L58 66L58 65L57 65L57 64L56 64L56 63L58 63L58 61L59 61L59 60L58 60L58 61L57 61L57 60L56 60L56 59L58 59L58 57L57 57L57 56L59 56L59 55L61 55L61 56L60 56L60 57L59 57L59 59L60 59L60 66L62 66L62 67L61 67L61 68L62 68L62 69L63 69L63 68L62 68L62 67L64 67L64 68L65 68L65 69L67 69L67 68L65 68L65 67L66 67L66 66L65 66L65 63L66 63L66 62L67 62L67 66L69 66L69 64L68 64L68 62L69 62L69 61L68 61L68 62L67 62L67 60L69 60L69 59L68 59L68 58L69 58L69 57L68 57L68 55L67 55L67 53L69 53L69 52L68 52L68 51L69 51L69 48L68 48L68 46L67 46L67 45L68 45L68 44L69 44L69 43L68 43L68 42L69 42L69 39L68 39L68 38L69 38L69 36L68 36L68 38L67 38L67 39L68 39L68 40L66 40L66 41L68 41L68 42L67 42L67 43L68 43L68 44L66 44L66 46L65 46L65 47L64 47L64 45L63 45L63 44L62 44L62 45L61 45L61 46L58 46L58 45L59 45L59 44L61 44L61 43L62 43L62 41L65 41L65 40L64 40L64 39L65 39L65 38L66 38L66 37L67 37L67 36L66 36L66 37L65 37L65 35L66 35L66 34L67 34L67 35L68 35L68 33L69 33L69 32L68 32L68 33L66 33L66 32L63 32L63 31L61 31L61 32L60 32L60 33L59 33L59 34L60 34L60 35L58 35L58 32L59 32L59 31L60 31L60 30L61 30L61 28L62 28L62 27L63 27L63 29L62 29L62 30L64 30L64 31L68 31L68 30L69 30L69 29L68 29L68 28L67 28L67 29L68 29L68 30L65 30L65 29L64 29L64 28L65 28L65 27L66 27L66 26L67 26L67 27L68 27L68 26L69 26L69 25L68 25L68 24L69 24L69 23L68 23L68 22L69 22L69 20L68 20L68 18L67 18L67 17L68 17L68 14L69 14L69 11L68 11L68 10L69 10L69 8L65 8L65 11L64 11L64 10L63 10L63 9L64 9L64 8L63 8L63 9L62 9L62 12L61 12L61 13L60 13L60 12L59 12L59 11L60 11L60 10L61 10L61 8L56 8L56 7L57 7L57 6L58 6L58 7L59 7L59 4L58 4L58 3L59 3L59 2L58 2L58 1L61 1L61 0L58 0L58 1L57 1L57 6L56 6L56 1L55 1L55 0L53 0L53 2L52 2L52 0L50 0L50 1L48 1L48 0L47 0L47 1L46 1L46 0L45 0L45 1L44 1L44 0L41 0L41 1L39 1L39 0L38 0L38 1L36 1L36 0L35 0L35 1L36 1L36 2L38 2L38 7L37 7L37 4L35 4L35 2L34 2L34 1L33 1L33 0L32 0L32 1L30 1L30 0L29 0L29 1L30 1L30 3L31 3L31 4L30 4L30 5L29 5L29 6L28 6L28 4L29 4L29 2L28 2L28 3L27 3L27 6L26 6L26 7L25 7L25 6L24 6L24 7L23 7L23 6L22 6L22 8L24 8L24 9L23 9L23 11L22 11L22 12L21 12L21 13L20 13L20 14L22 14L22 12L23 12L23 11L24 11L24 13L23 13L23 15L19 15L19 12L20 12L20 11L21 11L21 10L22 10L22 9L21 9L21 8L20 8L20 10L19 10L19 12L16 12L16 10L17 10L17 11L18 11L18 9L19 9L19 8L18 8L18 9L17 9L17 6L18 6L18 7L19 7L19 5L20 5L20 7L21 7L21 5L26 5L26 3L24 3L24 2L25 2L25 1L26 1L26 2L27 2L27 1L26 1L26 0L23 0L23 2L22 2L22 4L21 4L21 3L19 3L19 2L17 2L17 3L19 3L19 4L16 4L16 1L20 1L20 2L21 2L21 0L13 0L13 1L14 1L14 3L13 3L13 2L10 2L10 1L12 1L12 0L10 0L10 1L9 1L9 0ZM32 1L32 4L31 4L31 5L30 5L30 6L29 6L29 7L28 7L28 6L27 6L27 7L26 7L26 8L25 8L25 7L24 7L24 8L25 8L25 9L24 9L24 10L25 10L25 11L26 11L26 12L27 12L27 11L26 11L26 10L25 10L25 9L26 9L26 8L27 8L27 9L28 9L28 15L29 15L29 16L27 16L27 13L25 13L25 14L24 14L24 15L23 15L23 16L21 16L21 17L19 17L19 16L18 16L18 17L15 17L15 16L16 16L16 15L18 15L18 13L17 13L17 14L16 14L16 13L14 13L14 14L15 14L15 16L13 16L13 17L15 17L15 18L14 18L14 19L13 19L13 18L12 18L12 16L11 16L11 15L10 15L10 16L9 16L9 17L10 17L10 16L11 16L11 18L12 18L12 19L13 19L13 20L16 20L16 22L15 22L15 23L16 23L16 24L15 24L15 25L14 25L14 26L13 26L13 27L15 27L15 29L16 29L16 30L18 30L18 31L17 31L17 33L16 33L16 31L15 31L15 30L14 30L14 29L13 29L13 30L14 30L14 31L13 31L13 32L12 32L12 29L11 29L11 28L9 28L9 29L8 29L8 27L9 27L9 26L7 26L7 25L5 25L5 24L7 24L7 23L6 23L6 22L7 22L7 21L10 21L10 22L9 22L9 24L8 24L8 25L10 25L10 27L11 27L11 26L12 26L12 25L10 25L10 24L12 24L12 23L14 23L14 22L12 22L12 20L11 20L11 19L10 19L10 20L7 20L7 19L9 19L9 18L7 18L7 17L6 17L6 18L3 18L3 19L4 19L4 21L5 21L5 22L4 22L4 23L5 23L5 24L3 24L3 25L5 25L5 28L3 28L3 29L6 29L6 30L8 30L8 32L9 32L9 34L10 34L10 35L11 35L11 33L12 33L12 34L13 34L13 35L14 35L14 36L12 36L12 37L11 37L11 36L9 36L9 37L8 37L8 38L11 38L11 39L12 39L12 38L13 38L13 37L14 37L14 39L15 39L15 40L16 40L16 41L14 41L14 40L13 40L13 42L15 42L15 43L14 43L14 45L13 45L13 46L12 46L12 44L10 44L10 45L11 45L11 46L9 46L9 45L6 45L6 46L5 46L5 47L6 47L6 48L4 48L4 52L8 52L8 54L9 54L9 56L10 56L10 57L12 57L12 55L14 55L14 56L15 56L15 57L13 57L13 58L12 58L12 59L13 59L13 58L15 58L15 57L17 57L17 56L19 56L19 57L21 57L21 60L19 60L19 61L18 61L18 63L17 63L17 64L16 64L16 66L15 66L15 67L16 67L16 68L17 68L17 67L16 67L16 66L17 66L17 65L18 65L18 64L19 64L19 65L20 65L20 64L21 64L21 63L22 63L22 65L21 65L21 66L23 66L23 67L25 67L25 66L23 66L23 65L24 65L24 63L23 63L23 61L26 61L26 60L27 60L27 61L28 61L28 62L29 62L29 63L30 63L30 61L29 61L29 60L28 60L28 59L30 59L30 58L31 58L31 60L32 60L32 59L33 59L33 56L34 56L34 58L35 58L35 59L34 59L34 60L37 60L37 62L38 62L38 63L37 63L37 65L36 65L36 66L35 66L35 65L34 65L34 67L35 67L35 68L38 68L38 67L37 67L37 66L38 66L38 64L40 64L40 65L39 65L39 68L40 68L40 67L41 67L41 63L43 63L43 67L44 67L44 68L45 68L45 67L44 67L44 63L45 63L45 65L46 65L46 66L47 66L47 65L46 65L46 63L45 63L45 62L44 62L44 60L45 60L45 61L46 61L46 62L47 62L47 64L49 64L49 63L50 63L50 65L49 65L49 66L48 66L48 68L50 68L50 65L51 65L51 66L53 66L53 64L52 64L52 65L51 65L51 63L52 63L52 62L53 62L53 63L54 63L54 65L56 65L56 66L54 66L54 67L56 67L56 68L57 68L57 67L58 67L58 68L59 68L59 67L58 67L58 66L57 66L57 65L56 65L56 64L55 64L55 63L56 63L56 62L57 62L57 61L56 61L56 60L55 60L55 59L56 59L56 58L55 58L55 59L54 59L54 57L56 57L56 56L57 56L57 53L58 53L58 55L59 55L59 53L60 53L60 54L61 54L61 53L62 53L62 56L61 56L61 58L60 58L60 59L61 59L61 58L62 58L62 60L64 60L64 59L65 59L65 61L66 61L66 60L67 60L67 58L68 58L68 57L67 57L67 55L66 55L66 54L65 54L65 53L67 53L67 51L68 51L68 48L67 48L67 46L66 46L66 47L65 47L65 48L64 48L64 50L63 50L63 49L62 49L62 48L63 48L63 45L62 45L62 48L59 48L59 47L56 47L56 44L57 44L57 45L58 45L58 44L59 44L59 43L58 43L58 42L61 42L61 40L63 40L63 39L64 39L64 38L65 38L65 37L63 37L63 38L62 38L62 37L61 37L61 38L62 38L62 39L61 39L61 40L59 40L59 39L58 39L58 38L59 38L59 37L60 37L60 36L58 36L58 38L57 38L57 37L56 37L56 36L57 36L57 34L56 34L56 32L55 32L55 30L53 30L53 31L52 31L52 33L51 33L51 34L50 34L50 32L51 32L51 31L50 31L50 29L51 29L51 28L50 28L50 27L51 27L51 26L50 26L50 25L48 25L48 23L49 23L49 24L50 24L50 23L52 23L52 21L53 21L53 24L52 24L52 26L53 26L53 25L55 25L55 27L52 27L52 29L53 29L53 28L55 28L55 29L56 29L56 28L58 28L58 30L56 30L56 31L59 31L59 29L60 29L60 28L61 28L61 27L60 27L60 26L59 26L59 25L61 25L61 26L62 26L62 25L63 25L63 24L62 24L62 23L64 23L64 22L66 22L66 23L65 23L65 24L64 24L64 25L66 25L66 24L68 24L68 23L67 23L67 22L68 22L68 20L67 20L67 19L65 19L65 20L64 20L64 17L65 17L65 18L66 18L66 16L67 16L67 14L68 14L68 11L67 11L67 10L66 10L66 11L65 11L65 12L64 12L64 11L63 11L63 12L62 12L62 13L61 13L61 14L60 14L60 13L59 13L59 12L58 12L58 11L57 11L57 10L53 10L53 8L52 8L52 10L51 10L51 12L50 12L50 11L47 11L47 12L50 12L50 13L49 13L49 14L48 14L48 13L46 13L46 12L45 12L45 13L46 13L46 14L44 14L44 11L43 11L43 14L42 14L42 15L43 15L43 17L44 17L44 15L45 15L45 17L46 17L46 18L47 18L47 20L46 20L46 19L44 19L44 18L41 18L41 19L42 19L42 20L43 20L43 24L40 24L40 23L42 23L42 22L41 22L41 20L40 20L40 21L39 21L39 19L38 19L38 17L39 17L39 16L38 16L38 15L39 15L39 14L38 14L38 13L39 13L39 12L38 12L38 13L37 13L37 11L40 11L40 17L42 17L42 16L41 16L41 12L42 12L42 10L41 10L41 8L40 8L40 10L38 10L38 9L39 9L39 7L40 7L40 6L41 6L41 7L42 7L42 8L43 8L43 9L44 9L44 10L45 10L45 11L46 11L46 10L47 10L47 8L49 8L49 10L50 10L50 8L51 8L51 7L52 7L52 5L53 5L53 4L52 4L52 2L51 2L51 1L50 1L50 4L52 4L52 5L48 5L48 4L49 4L49 3L48 3L48 2L46 2L46 1L45 1L45 2L46 2L46 3L44 3L44 2L43 2L43 3L42 3L42 4L43 4L43 3L44 3L44 5L40 5L40 6L39 6L39 7L38 7L38 8L37 8L37 10L36 10L36 9L34 9L34 11L33 11L33 9L32 9L32 8L31 8L31 9L29 9L29 8L30 8L30 6L31 6L31 7L32 7L32 6L31 6L31 5L32 5L32 4L33 4L33 3L34 3L34 2L33 2L33 1ZM41 1L41 2L42 2L42 1ZM54 1L54 2L53 2L53 3L54 3L54 4L55 4L55 3L54 3L54 2L55 2L55 1ZM9 2L9 4L10 4L10 5L11 5L11 8L12 8L12 9L13 9L13 10L14 10L14 9L13 9L13 7L14 7L14 8L15 8L15 7L16 7L16 6L17 6L17 5L15 5L15 4L14 4L14 6L13 6L13 5L11 5L11 4L10 4L10 2ZM12 3L12 4L13 4L13 3ZM39 3L39 4L40 4L40 3ZM46 3L46 4L45 4L45 6L44 6L44 7L43 7L43 6L42 6L42 7L43 7L43 8L44 8L44 9L45 9L45 10L46 10L46 9L45 9L45 8L47 8L47 6L46 6L46 4L47 4L47 3ZM60 3L60 5L61 5L61 3ZM33 5L33 8L36 8L36 5ZM12 6L12 7L13 7L13 6ZM14 6L14 7L15 7L15 6ZM34 6L34 7L35 7L35 6ZM45 6L45 7L44 7L44 8L45 8L45 7L46 7L46 6ZM48 6L48 7L49 7L49 8L50 8L50 7L51 7L51 6L50 6L50 7L49 7L49 6ZM53 6L53 7L54 7L54 6ZM55 6L55 7L56 7L56 6ZM60 6L60 7L61 7L61 6ZM27 7L27 8L28 8L28 7ZM55 8L55 9L56 9L56 8ZM6 9L6 10L7 10L7 11L5 11L5 12L4 12L4 13L5 13L5 12L7 12L7 11L8 11L8 10L7 10L7 9ZM58 9L58 10L59 10L59 9ZM3 10L3 11L2 11L2 12L3 12L3 11L4 11L4 10ZM29 10L29 12L30 12L30 13L29 13L29 15L30 15L30 16L29 16L29 19L27 19L27 18L28 18L28 17L27 17L27 16L26 16L26 14L25 14L25 17L24 17L24 16L23 16L23 17L21 17L21 18L20 18L20 19L19 19L19 20L17 20L17 18L15 18L15 19L16 19L16 20L17 20L17 22L16 22L16 23L17 23L17 25L15 25L15 27L16 27L16 26L17 26L17 25L19 25L19 24L20 24L20 27L19 27L19 26L18 26L18 27L17 27L17 29L18 29L18 30L19 30L19 29L20 29L20 33L19 33L19 32L18 32L18 33L17 33L17 34L19 34L19 35L18 35L18 36L16 36L16 33L15 33L15 31L14 31L14 32L13 32L13 34L14 34L14 35L15 35L15 36L14 36L14 37L15 37L15 38L16 38L16 37L17 37L17 38L19 38L19 37L20 37L20 40L18 40L18 39L16 39L16 40L17 40L17 42L16 42L16 43L15 43L15 46L13 46L13 47L12 47L12 46L11 46L11 47L10 47L10 50L9 50L9 48L8 48L8 49L7 49L7 48L6 48L6 49L7 49L7 50L5 50L5 51L8 51L8 50L9 50L9 54L11 54L11 55L12 55L12 54L13 54L13 53L14 53L14 55L17 55L17 54L18 54L18 53L19 53L19 52L20 52L20 54L21 54L21 53L22 53L22 54L23 54L23 56L22 56L22 55L20 55L20 56L21 56L21 57L24 57L24 58L25 58L25 60L26 60L26 59L28 59L28 56L29 56L29 57L31 57L31 58L32 58L32 57L31 57L31 56L29 56L29 55L31 55L31 54L28 54L28 53L31 53L31 52L29 52L29 51L31 51L31 50L32 50L32 51L33 51L33 52L32 52L32 53L33 53L33 54L32 54L32 56L33 56L33 54L34 54L34 56L35 56L35 54L37 54L37 53L36 53L36 52L35 52L35 50L34 50L34 48L35 48L35 49L36 49L36 50L37 50L37 52L38 52L38 55L37 55L37 57L38 57L38 58L37 58L37 59L38 59L38 58L39 58L39 59L40 59L40 60L39 60L39 61L38 61L38 62L40 62L40 63L41 63L41 62L43 62L43 63L44 63L44 62L43 62L43 61L42 61L42 60L44 60L44 59L46 59L46 61L47 61L47 62L48 62L48 63L49 63L49 60L47 60L47 58L46 58L46 57L48 57L48 58L49 58L49 59L50 59L50 62L51 62L51 61L52 61L52 60L51 60L51 59L52 59L52 58L51 58L51 57L52 57L52 55L51 55L51 57L50 57L50 55L49 55L49 54L46 54L46 52L47 52L47 53L50 53L50 54L52 54L52 52L53 52L53 51L54 51L54 52L55 52L55 50L56 50L56 53L53 53L53 56L55 56L55 55L56 55L56 53L57 53L57 51L58 51L58 53L59 53L59 52L61 52L61 51L62 51L62 52L63 52L63 51L62 51L62 49L61 49L61 50L60 50L60 51L58 51L58 49L57 49L57 48L56 48L56 49L52 49L52 48L54 48L54 46L55 46L55 45L54 45L54 44L53 44L53 43L54 43L54 42L55 42L55 44L56 44L56 43L57 43L57 44L58 44L58 43L57 43L57 42L58 42L58 39L57 39L57 38L55 38L55 37L52 37L52 36L54 36L54 35L55 35L55 36L56 36L56 34L55 34L55 32L54 32L54 35L53 35L53 34L52 34L52 36L51 36L51 37L50 37L50 34L49 34L49 36L47 36L47 35L46 35L46 33L49 33L49 32L47 32L47 31L49 31L49 29L50 29L50 28L49 28L49 27L48 27L48 25L47 25L47 22L49 22L49 23L50 23L50 22L51 22L51 21L52 21L52 18L53 18L53 21L54 21L54 23L55 23L55 24L56 24L56 26L57 26L57 25L59 25L59 24L60 24L60 23L62 23L62 22L64 22L64 20L63 20L63 17L64 17L64 16L65 16L65 15L64 15L64 14L65 14L65 13L64 13L64 12L63 12L63 13L62 13L62 14L63 14L63 15L62 15L62 20L61 20L61 19L60 19L60 18L61 18L61 15L60 15L60 17L59 17L59 19L58 19L58 17L57 17L57 16L56 16L56 17L49 17L49 16L48 16L48 15L47 15L47 14L46 14L46 16L47 16L47 17L49 17L49 19L48 19L48 20L47 20L47 22L46 22L46 21L45 21L45 20L44 20L44 25L45 25L45 27L40 27L40 24L39 24L39 25L38 25L38 23L40 23L40 22L39 22L39 21L38 21L38 20L37 20L37 19L35 19L35 18L36 18L36 17L35 17L35 18L33 18L33 16L32 16L32 13L34 13L34 12L35 12L35 13L36 13L36 14L37 14L37 15L34 15L34 16L37 16L37 17L38 17L38 16L37 16L37 15L38 15L38 14L37 14L37 13L36 13L36 11L34 11L34 12L32 12L32 11L30 11L30 10ZM40 10L40 11L41 11L41 10ZM14 11L14 12L15 12L15 11ZM52 11L52 12L51 12L51 13L50 13L50 15L51 15L51 13L52 13L52 14L56 14L56 15L58 15L58 16L59 16L59 14L58 14L58 12L57 12L57 11L56 11L56 13L52 13L52 12L53 12L53 11ZM31 12L31 13L30 13L30 15L31 15L31 13L32 13L32 12ZM56 13L56 14L57 14L57 13ZM63 13L63 14L64 14L64 13ZM43 14L43 15L44 15L44 14ZM53 15L53 16L55 16L55 15ZM18 17L18 18L19 18L19 17ZM25 17L25 18L24 18L24 19L26 19L26 18L27 18L27 17ZM56 17L56 19L55 19L55 23L56 23L56 19L57 19L57 20L58 20L58 22L57 22L57 23L60 23L60 22L59 22L59 20L58 20L58 19L57 19L57 17ZM6 18L6 19L5 19L5 21L7 21L7 20L6 20L6 19L7 19L7 18ZM22 18L22 21L21 21L21 22L20 22L20 20L19 20L19 21L18 21L18 23L19 23L19 22L20 22L20 23L22 23L22 24L25 24L25 25L26 25L26 24L25 24L25 23L24 23L24 22L23 22L23 21L25 21L25 22L27 22L27 23L28 23L28 24L27 24L27 25L28 25L28 27L27 27L27 26L26 26L26 27L25 27L25 26L24 26L24 25L21 25L21 26L23 26L23 27L24 27L24 28L25 28L25 29L26 29L26 27L27 27L27 28L30 28L30 27L32 27L32 28L31 28L31 29L33 29L33 30L32 30L32 32L33 32L33 30L34 30L34 31L35 31L35 32L36 32L36 31L37 31L37 33L38 33L38 32L39 32L39 33L44 33L44 34L43 34L43 35L44 35L44 34L45 34L45 33L44 33L44 31L42 31L42 29L41 29L41 28L40 28L40 27L39 27L39 26L38 26L38 25L37 25L37 26L36 26L36 24L35 24L35 25L33 25L33 23L32 23L32 22L33 22L33 21L32 21L32 20L33 20L33 18L31 18L31 19L29 19L29 20L31 20L31 21L30 21L30 22L31 22L31 23L28 23L28 22L29 22L29 21L28 21L28 22L27 22L27 21L26 21L26 20L23 20L23 18ZM31 19L31 20L32 20L32 19ZM49 19L49 20L50 20L50 21L49 21L49 22L50 22L50 21L51 21L51 19ZM65 20L65 21L67 21L67 20ZM37 21L37 22L34 22L34 23L38 23L38 21ZM61 21L61 22L62 22L62 21ZM1 22L1 23L2 23L2 22ZM10 22L10 23L12 23L12 22ZM31 23L31 24L29 24L29 25L30 25L30 26L29 26L29 27L30 27L30 26L31 26L31 25L32 25L32 27L33 27L33 25L32 25L32 23ZM0 25L0 26L1 26L1 25ZM41 25L41 26L43 26L43 25ZM46 25L46 26L47 26L47 25ZM6 26L6 27L7 27L7 26ZM63 26L63 27L65 27L65 26ZM21 27L21 28L22 28L22 29L23 29L23 28L22 28L22 27ZM34 27L34 28L33 28L33 29L34 29L34 30L35 30L35 29L34 29L34 28L35 28L35 27ZM37 27L37 28L38 28L38 27ZM46 27L46 28L45 28L45 29L46 29L46 31L45 31L45 32L46 32L46 31L47 31L47 29L48 29L48 27ZM6 28L6 29L7 29L7 28ZM39 28L39 29L37 29L37 31L41 31L41 30L39 30L39 29L40 29L40 28ZM46 28L46 29L47 29L47 28ZM10 29L10 31L9 31L9 32L10 32L10 31L11 31L11 29ZM28 29L28 31L29 31L29 32L31 32L31 30L30 30L30 29ZM43 29L43 30L44 30L44 29ZM25 30L25 31L27 31L27 30ZM29 30L29 31L30 31L30 30ZM6 31L6 32L7 32L7 31ZM21 31L21 32L22 32L22 33L26 33L26 32L24 32L24 31ZM5 33L5 36L8 36L8 33ZM14 33L14 34L15 34L15 33ZM27 33L27 34L26 34L26 35L23 35L23 34L20 34L20 35L19 35L19 36L20 36L20 37L21 37L21 36L22 36L22 37L24 37L24 36L25 36L25 37L26 37L26 40L25 40L25 39L23 39L23 40L22 40L22 39L21 39L21 41L22 41L22 43L19 43L19 42L20 42L20 41L19 41L19 42L17 42L17 43L18 43L18 44L19 44L19 48L18 48L18 49L17 49L17 47L18 47L18 46L17 46L17 44L16 44L16 46L15 46L15 47L14 47L14 48L13 48L13 49L11 49L11 50L10 50L10 51L11 51L11 52L10 52L10 53L11 53L11 54L12 54L12 51L13 51L13 52L14 52L14 53L15 53L15 51L14 51L14 49L15 49L15 48L16 48L16 50L18 50L18 51L20 51L20 50L22 50L22 53L24 53L24 51L25 51L25 50L22 50L22 49L23 49L23 48L22 48L22 49L19 49L19 48L21 48L21 46L23 46L23 47L24 47L24 46L23 46L23 45L24 45L24 43L23 43L23 41L24 41L24 42L25 42L25 43L26 43L26 44L25 44L25 45L26 45L26 47L25 47L25 48L27 48L27 51L28 51L28 50L30 50L30 49L28 49L28 48L29 48L29 47L32 47L32 46L33 46L33 45L32 45L32 44L34 44L34 46L37 46L37 45L35 45L35 43L36 43L36 44L37 44L37 43L38 43L38 44L39 44L39 45L40 45L40 46L41 46L41 42L39 42L39 43L38 43L38 41L39 41L39 40L37 40L37 39L40 39L40 41L41 41L41 40L43 40L43 42L44 42L44 43L42 43L42 45L44 45L44 46L42 46L42 47L41 47L41 48L40 48L40 49L39 49L39 47L35 47L35 48L37 48L37 50L38 50L38 51L39 51L39 52L40 52L40 53L39 53L39 54L40 54L40 57L39 57L39 58L40 58L40 59L41 59L41 60L40 60L40 61L41 61L41 60L42 60L42 59L41 59L41 58L40 58L40 57L44 57L44 58L45 58L45 57L44 57L44 56L42 56L42 55L43 55L43 54L44 54L44 55L46 55L46 54L45 54L45 53L44 53L44 52L46 52L46 50L47 50L47 49L46 49L46 48L45 48L45 47L46 47L46 46L47 46L47 48L48 48L48 47L49 47L49 48L50 48L50 49L49 49L49 50L48 50L48 51L50 51L50 53L51 53L51 52L52 52L52 51L53 51L53 50L52 50L52 49L51 49L51 48L52 48L52 47L53 47L53 44L52 44L52 43L53 43L53 40L54 40L54 39L55 39L55 38L54 38L54 39L53 39L53 40L52 40L52 38L50 38L50 37L49 37L49 38L48 38L48 39L51 39L51 40L50 40L50 41L49 41L49 42L50 42L50 43L48 43L48 42L47 42L47 36L46 36L46 37L45 37L45 39L44 39L44 40L43 40L43 39L42 39L42 38L41 38L41 39L40 39L40 37L41 37L41 34L40 34L40 37L39 37L39 38L38 38L38 37L37 37L37 38L36 38L36 37L35 37L35 40L34 40L34 39L33 39L33 41L32 41L32 42L31 42L31 41L28 41L28 40L32 40L32 38L33 38L33 37L31 37L31 39L28 39L28 40L27 40L27 37L26 37L26 36L28 36L28 38L30 38L30 37L29 37L29 36L30 36L30 35L31 35L31 36L32 36L32 33L31 33L31 34L30 34L30 35L29 35L29 36L28 36L28 34L29 34L29 33ZM33 33L33 36L36 36L36 33ZM61 33L61 36L64 36L64 33ZM3 34L3 35L1 35L1 36L3 36L3 37L4 37L4 38L2 38L2 39L6 39L6 40L8 40L8 41L9 41L9 42L7 42L7 41L6 41L6 42L7 42L7 43L5 43L5 44L7 44L7 43L12 43L12 42L11 42L11 40L10 40L10 39L6 39L6 38L7 38L7 37L6 37L6 38L5 38L5 37L4 37L4 34ZM6 34L6 35L7 35L7 34ZM34 34L34 35L35 35L35 34ZM62 34L62 35L63 35L63 34ZM22 35L22 36L23 36L23 35ZM15 36L15 37L16 37L16 36ZM43 36L43 38L44 38L44 36ZM45 39L45 40L44 40L44 41L45 41L45 42L46 42L46 39ZM9 40L9 41L10 41L10 40ZM24 40L24 41L25 41L25 40ZM26 40L26 43L27 43L27 42L28 42L28 44L26 44L26 45L27 45L27 48L28 48L28 47L29 47L29 46L28 46L28 44L29 44L29 45L31 45L31 42L28 42L28 41L27 41L27 40ZM36 40L36 41L33 41L33 43L35 43L35 42L36 42L36 43L37 43L37 40ZM51 40L51 41L50 41L50 42L51 42L51 41L52 41L52 40ZM56 41L56 42L57 42L57 41ZM0 42L0 43L1 43L1 42ZM64 42L64 43L66 43L66 42ZM22 43L22 44L20 44L20 46L21 46L21 45L22 45L22 44L23 44L23 43ZM44 43L44 45L45 45L45 46L44 46L44 47L42 47L42 49L40 49L40 50L39 50L39 49L38 49L38 50L39 50L39 51L40 51L40 52L41 52L41 51L42 51L42 50L43 50L43 51L45 51L45 50L46 50L46 49L45 49L45 48L44 48L44 47L45 47L45 46L46 46L46 45L47 45L47 46L48 46L48 45L49 45L49 44L48 44L48 43L47 43L47 44L46 44L46 45L45 45L45 43ZM50 43L50 44L51 44L51 45L50 45L50 46L49 46L49 47L52 47L52 46L51 46L51 45L52 45L52 44L51 44L51 43ZM1 45L1 46L4 46L4 45ZM6 46L6 47L7 47L7 46ZM11 47L11 48L12 48L12 47ZM33 47L33 48L34 48L34 47ZM43 48L43 49L44 49L44 50L45 50L45 49L44 49L44 48ZM18 49L18 50L19 50L19 49ZM32 49L32 50L33 50L33 49ZM50 49L50 50L51 50L51 49ZM66 49L66 50L64 50L64 52L65 52L65 51L67 51L67 49ZM16 51L16 52L17 52L17 51ZM25 52L25 53L26 53L26 52ZM27 52L27 53L28 53L28 52ZM34 52L34 54L35 54L35 52ZM42 52L42 53L40 53L40 54L43 54L43 52ZM0 53L0 55L2 55L2 56L0 56L0 61L1 61L1 57L2 57L2 59L3 59L3 57L2 57L2 56L3 56L3 55L2 55L2 53ZM16 53L16 54L17 54L17 53ZM63 53L63 54L64 54L64 55L63 55L63 56L62 56L62 57L63 57L63 58L64 58L64 57L63 57L63 56L64 56L64 55L65 55L65 58L66 58L66 55L65 55L65 54L64 54L64 53ZM26 54L26 55L24 55L24 56L25 56L25 58L27 58L27 57L26 57L26 55L28 55L28 54ZM38 55L38 56L39 56L39 55ZM10 58L10 59L11 59L11 58ZM23 59L23 60L24 60L24 59ZM3 60L3 61L5 61L5 60ZM21 60L21 61L20 61L20 62L19 62L19 64L20 64L20 63L21 63L21 62L22 62L22 60ZM53 60L53 61L54 61L54 63L55 63L55 60ZM31 61L31 63L32 63L32 61ZM33 61L33 64L36 64L36 61ZM61 61L61 64L64 64L64 61ZM14 62L14 63L13 63L13 64L14 64L14 63L15 63L15 62ZM34 62L34 63L35 63L35 62ZM62 62L62 63L63 63L63 62ZM10 63L10 64L9 64L9 65L12 65L12 64L11 64L11 63ZM25 63L25 65L27 65L27 64L26 64L26 63ZM13 65L13 66L14 66L14 65ZM30 65L30 66L31 66L31 67L32 67L32 65ZM62 65L62 66L63 66L63 65ZM9 67L9 68L10 68L10 67ZM26 67L26 68L28 68L28 67ZM21 68L21 69L22 69L22 68ZM68 68L68 69L69 69L69 68ZM0 0L0 7L7 7L7 0ZM1 1L1 6L6 6L6 1ZM2 2L2 5L5 5L5 2ZM62 0L62 7L69 7L69 0ZM63 1L63 6L68 6L68 1ZM64 2L64 5L67 5L67 2ZM0 62L0 69L7 69L7 62ZM1 63L1 68L6 68L6 63ZM2 64L2 67L5 67L5 64Z" fill="#000000"/></g></g></svg>
