<?xml version="1.0" encoding="UTF-8"?>
<svg xmlns="http://www.w3.org/2000/svg" version="1.1" width="300" height="300" viewBox="0 0 300 300"><rect x="0" y="0" width="300" height="300" fill="#ffffff"/><g transform="scale(4.615)"><g transform="translate(0,0)"><path fill-rule="evenodd" d="M8 0L8 4L9 4L9 5L8 5L8 7L9 7L9 6L10 6L10 9L11 9L11 6L12 6L12 10L13 10L13 12L12 12L12 13L10 13L10 12L8 12L8 11L9 11L9 10L8 10L8 11L7 11L7 10L6 10L6 9L7 9L7 8L4 8L4 9L3 9L3 10L4 10L4 12L6 12L6 13L9 13L9 14L8 14L8 16L5 16L5 15L4 15L4 14L5 14L5 13L4 13L4 14L3 14L3 11L2 11L2 8L0 8L0 9L1 9L1 13L0 13L0 14L1 14L1 16L0 16L0 17L1 17L1 16L2 16L2 18L1 18L1 19L2 19L2 18L4 18L4 19L3 19L3 21L1 21L1 20L0 20L0 22L1 22L1 23L2 23L2 22L3 22L3 21L4 21L4 22L6 22L6 23L5 23L5 24L6 24L6 25L5 25L5 26L6 26L6 27L4 27L4 26L3 26L3 24L2 24L2 25L1 25L1 24L0 24L0 26L1 26L1 27L0 27L0 28L1 28L1 29L2 29L2 30L3 30L3 31L1 31L1 30L0 30L0 31L1 31L1 32L0 32L0 33L4 33L4 35L9 35L9 38L5 38L5 37L8 37L8 36L4 36L4 37L2 37L2 38L5 38L5 39L4 39L4 40L6 40L6 41L4 41L4 42L3 42L3 39L1 39L1 40L2 40L2 42L1 42L1 41L0 41L0 42L1 42L1 45L0 45L0 49L1 49L1 50L2 50L2 51L7 51L7 52L5 52L5 53L4 53L4 52L3 52L3 53L2 53L2 55L3 55L3 56L1 56L1 55L0 55L0 56L1 56L1 57L3 57L3 56L4 56L4 57L5 57L5 56L4 56L4 54L5 54L5 55L8 55L8 54L10 54L10 55L11 55L11 54L12 54L12 53L14 53L14 52L15 52L15 54L16 54L16 51L17 51L17 53L18 53L18 55L19 55L19 56L17 56L17 55L14 55L14 54L13 54L13 57L14 57L14 56L15 56L15 58L14 58L14 60L15 60L15 61L16 61L16 56L17 56L17 61L18 61L18 62L19 62L19 63L17 63L17 62L16 62L16 63L15 63L15 62L14 62L14 61L13 61L13 60L12 60L12 57L11 57L11 56L8 56L8 58L9 58L9 57L10 57L10 58L11 58L11 59L8 59L8 61L9 61L9 63L8 63L8 65L9 65L9 64L10 64L10 65L11 65L11 64L13 64L13 65L14 65L14 63L15 63L15 64L16 64L16 65L19 65L19 63L20 63L20 62L21 62L21 63L22 63L22 64L24 64L24 63L22 63L22 62L23 62L23 61L24 61L24 62L25 62L25 60L24 60L24 59L26 59L26 58L25 58L25 56L24 56L24 55L22 55L22 54L21 54L21 53L23 53L23 54L27 54L27 55L26 55L26 57L27 57L27 59L28 59L28 60L26 60L26 61L29 61L29 62L28 62L28 64L27 64L27 62L26 62L26 65L31 65L31 64L29 64L29 63L30 63L30 62L31 62L31 61L34 61L34 65L37 65L37 63L38 63L38 65L40 65L40 64L44 64L44 65L46 65L46 64L44 64L44 63L43 63L43 62L44 62L44 61L45 61L45 63L49 63L49 61L50 61L50 62L51 62L51 63L50 63L50 64L47 64L47 65L50 65L50 64L51 64L51 65L52 65L52 64L53 64L53 63L55 63L55 64L54 64L54 65L56 65L56 62L55 62L55 61L54 61L54 59L53 59L53 58L55 58L55 57L56 57L56 59L55 59L55 60L56 60L56 61L58 61L58 62L57 62L57 63L58 63L58 64L59 64L59 65L62 65L62 61L63 61L63 60L64 60L64 61L65 61L65 58L64 58L64 59L63 59L63 57L64 57L64 56L65 56L65 53L64 53L64 51L65 51L65 49L64 49L64 51L63 51L63 55L64 55L64 56L62 56L62 55L61 55L61 56L56 56L56 55L59 55L59 54L62 54L62 51L61 51L61 50L63 50L63 48L62 48L62 46L64 46L64 48L65 48L65 46L64 46L64 44L65 44L65 38L64 38L64 37L65 37L65 34L64 34L64 31L65 31L65 29L64 29L64 28L62 28L62 26L59 26L59 27L61 27L61 28L59 28L59 30L58 30L58 27L57 27L57 25L58 25L58 24L56 24L56 22L57 22L57 23L59 23L59 25L63 25L63 26L64 26L64 27L65 27L65 26L64 26L64 25L65 25L65 22L64 22L64 21L65 21L65 17L64 17L64 16L65 16L65 13L64 13L64 12L63 12L63 14L64 14L64 16L62 16L62 14L61 14L61 13L62 13L62 11L63 11L63 9L65 9L65 8L61 8L61 9L60 9L60 8L59 8L59 9L60 9L60 10L58 10L58 9L57 9L57 6L56 6L56 7L55 7L55 5L54 5L54 4L56 4L56 5L57 5L57 4L56 4L56 3L57 3L57 1L56 1L56 0L55 0L55 1L56 1L56 3L55 3L55 2L54 2L54 1L53 1L53 3L52 3L52 1L51 1L51 0L50 0L50 1L48 1L48 2L47 2L47 3L46 3L46 2L45 2L45 1L46 1L46 0L41 0L41 2L40 2L40 1L39 1L39 0L38 0L38 1L36 1L36 0L35 0L35 3L38 3L38 7L37 7L37 6L36 6L36 4L34 4L34 2L33 2L33 1L34 1L34 0L29 0L29 1L28 1L28 0L27 0L27 1L26 1L26 0L22 0L22 1L25 1L25 3L26 3L26 2L27 2L27 1L28 1L28 2L29 2L29 3L30 3L30 5L29 5L29 6L28 6L28 7L27 7L27 5L28 5L28 4L26 4L26 5L25 5L25 4L24 4L24 2L22 2L22 3L19 3L19 4L18 4L18 3L17 3L17 1L18 1L18 2L19 2L19 1L21 1L21 0L19 0L19 1L18 1L18 0L17 0L17 1L16 1L16 2L15 2L15 0L14 0L14 2L11 2L11 3L10 3L10 4L9 4L9 2L10 2L10 1L9 1L9 0ZM12 0L12 1L13 1L13 0ZM38 1L38 2L39 2L39 1ZM43 1L43 2L42 2L42 3L41 3L41 4L40 4L40 3L39 3L39 5L41 5L41 7L42 7L42 5L41 5L41 4L45 4L45 3L43 3L43 2L44 2L44 1ZM50 1L50 2L49 2L49 3L47 3L47 4L46 4L46 5L45 5L45 8L46 8L46 10L45 10L45 9L44 9L44 8L40 8L40 6L39 6L39 7L38 7L38 8L37 8L37 10L35 10L35 9L34 9L34 12L35 12L35 11L37 11L37 15L36 15L36 16L38 16L38 15L39 15L39 16L40 16L40 19L41 19L41 20L40 20L40 26L39 26L39 27L40 27L40 26L41 26L41 27L42 27L42 28L40 28L40 29L41 29L41 31L42 31L42 32L43 32L43 33L44 33L44 34L42 34L42 35L44 35L44 36L43 36L43 38L41 38L41 39L39 39L39 40L38 40L38 37L37 37L37 41L35 41L35 43L38 43L38 44L40 44L40 47L39 47L39 46L38 46L38 45L34 45L34 44L33 44L33 43L34 43L34 41L33 41L33 40L32 40L32 39L34 39L34 40L35 40L35 39L36 39L36 38L35 38L35 39L34 39L34 36L33 36L33 35L32 35L32 36L33 36L33 38L32 38L32 37L31 37L31 36L29 36L29 35L30 35L30 32L29 32L29 33L28 33L28 34L26 34L26 32L28 32L28 31L26 31L26 30L29 30L29 31L30 31L30 30L31 30L31 29L32 29L32 27L31 27L31 26L33 26L33 25L32 25L32 22L31 22L31 23L30 23L30 21L28 21L28 22L27 22L27 23L25 23L25 22L23 22L23 21L27 21L27 20L26 20L26 19L25 19L25 18L26 18L26 14L25 14L25 13L26 13L26 10L24 10L24 9L26 9L26 8L24 8L24 9L23 9L23 8L22 8L22 15L21 15L21 16L20 16L20 17L19 17L19 19L20 19L20 20L18 20L18 21L17 21L17 19L18 19L18 17L17 17L17 16L19 16L19 15L20 15L20 14L21 14L21 13L19 13L19 14L17 14L17 12L15 12L15 11L17 11L17 9L15 9L15 8L14 8L14 9L13 9L13 10L15 10L15 11L14 11L14 12L15 12L15 13L13 13L13 14L14 14L14 16L13 16L13 15L10 15L10 16L12 16L12 18L11 18L11 17L9 17L9 16L8 16L8 17L6 17L6 18L5 18L5 19L4 19L4 20L5 20L5 21L6 21L6 22L7 22L7 23L6 23L6 24L7 24L7 25L6 25L6 26L7 26L7 25L11 25L11 23L12 23L12 24L13 24L13 22L14 22L14 24L15 24L15 25L14 25L14 26L15 26L15 25L16 25L16 27L17 27L17 28L16 28L16 29L14 29L14 28L13 28L13 27L11 27L11 28L12 28L12 30L13 30L13 32L12 32L12 33L14 33L14 34L13 34L13 35L12 35L12 34L11 34L11 31L9 31L9 35L10 35L10 37L11 37L11 35L12 35L12 37L13 37L13 35L14 35L14 38L9 38L9 39L11 39L11 41L13 41L13 40L12 40L12 39L15 39L15 40L16 40L16 42L15 42L15 41L14 41L14 42L15 42L15 45L17 45L17 44L20 44L20 41L25 41L25 43L24 43L24 44L23 44L23 43L22 43L22 42L21 42L21 45L18 45L18 46L16 46L16 47L15 47L15 46L13 46L13 45L12 45L12 44L11 44L11 43L12 43L12 42L9 42L9 43L8 43L8 45L5 45L5 44L7 44L7 43L6 43L6 42L8 42L8 41L10 41L10 40L8 40L8 39L6 39L6 40L7 40L7 41L6 41L6 42L4 42L4 44L3 44L3 42L2 42L2 45L5 45L5 48L7 48L7 49L3 49L3 48L4 48L4 47L3 47L3 46L2 46L2 47L1 47L1 48L2 48L2 50L8 50L8 52L7 52L7 53L5 53L5 54L7 54L7 53L8 53L8 52L9 52L9 53L11 53L11 51L10 51L10 49L11 49L11 48L12 48L12 50L13 50L13 51L12 51L12 52L13 52L13 51L14 51L14 50L15 50L15 51L16 51L16 50L17 50L17 51L18 51L18 49L17 49L17 47L18 47L18 48L19 48L19 47L20 47L20 46L21 46L21 48L22 48L22 50L21 50L21 51L19 51L19 52L18 52L18 53L19 53L19 55L21 55L21 56L22 56L22 57L23 57L23 56L22 56L22 55L21 55L21 54L20 54L20 52L21 52L21 51L22 51L22 52L23 52L23 53L24 53L24 51L25 51L25 53L28 53L28 55L27 55L27 57L28 57L28 58L30 58L30 57L29 57L29 56L28 56L28 55L29 55L29 54L30 54L30 53L31 53L31 55L32 55L32 56L34 56L34 54L32 54L32 53L31 53L31 52L32 52L32 49L31 49L31 50L30 50L30 48L27 48L27 49L28 49L28 50L27 50L27 52L26 52L26 51L25 51L25 50L26 50L26 48L25 48L25 50L24 50L24 51L23 51L23 48L24 48L24 47L23 47L23 46L21 46L21 45L24 45L24 46L25 46L25 45L26 45L26 47L29 47L29 46L30 46L30 45L29 45L29 43L30 43L30 44L32 44L32 45L31 45L31 48L32 48L32 45L34 45L34 46L33 46L33 47L34 47L34 46L35 46L35 47L37 47L37 49L36 49L36 50L35 50L35 51L34 51L34 48L33 48L33 51L34 51L34 52L33 52L33 53L34 53L34 52L35 52L35 51L36 51L36 52L38 52L38 53L36 53L36 54L35 54L35 55L36 55L36 56L37 56L37 57L35 57L35 60L37 60L37 62L38 62L38 63L39 63L39 62L38 62L38 59L39 59L39 58L38 58L38 57L39 57L39 56L37 56L37 55L39 55L39 54L38 54L38 53L39 53L39 52L40 52L40 55L42 55L42 57L41 57L41 56L40 56L40 57L41 57L41 59L42 59L42 61L44 61L44 59L45 59L45 61L46 61L46 62L48 62L48 61L47 61L47 60L46 60L46 59L47 59L47 58L48 58L48 60L49 60L49 58L48 58L48 57L45 57L45 58L43 58L43 59L42 59L42 57L44 57L44 56L43 56L43 54L44 54L44 55L49 55L49 56L50 56L50 57L51 57L51 60L50 60L50 61L51 61L51 62L52 62L52 63L53 63L53 62L52 62L52 61L53 61L53 60L52 60L52 58L53 58L53 57L55 57L55 55L54 55L54 54L52 54L52 55L51 55L51 54L50 54L50 52L52 52L52 53L54 53L54 52L55 52L55 51L56 51L56 53L57 53L57 54L59 54L59 53L60 53L60 52L57 52L57 51L58 51L58 49L57 49L57 51L56 51L56 49L55 49L55 50L54 50L54 51L53 51L53 52L52 52L52 50L53 50L53 48L54 48L54 47L51 47L51 46L52 46L52 45L53 45L53 44L52 44L52 41L53 41L53 40L52 40L52 41L51 41L51 44L52 44L52 45L51 45L51 46L50 46L50 44L49 44L49 46L48 46L48 47L51 47L51 49L52 49L52 50L51 50L51 51L50 51L50 52L49 52L49 50L50 50L50 48L49 48L49 49L47 49L47 45L48 45L48 43L47 43L47 45L46 45L46 42L48 42L48 41L46 41L46 39L45 39L45 38L44 38L44 36L45 36L45 35L44 35L44 34L45 34L45 33L44 33L44 32L45 32L45 31L46 31L46 32L50 32L50 33L49 33L49 35L48 35L48 33L46 33L46 34L47 34L47 35L46 35L46 38L49 38L49 39L47 39L47 40L49 40L49 39L50 39L50 40L51 40L51 39L50 39L50 37L51 37L51 38L52 38L52 39L53 39L53 38L52 38L52 37L53 37L53 36L54 36L54 37L55 37L55 39L54 39L54 40L56 40L56 42L53 42L53 43L54 43L54 45L55 45L55 46L56 46L56 47L55 47L55 48L56 48L56 47L58 47L58 45L60 45L60 44L57 44L57 46L56 46L56 45L55 45L55 44L56 44L56 42L57 42L57 43L58 43L58 41L57 41L57 40L59 40L59 41L60 41L60 40L59 40L59 39L57 39L57 40L56 40L56 38L58 38L58 37L59 37L59 36L61 36L61 37L62 37L62 38L60 38L60 39L62 39L62 40L63 40L63 41L61 41L61 42L59 42L59 43L62 43L62 44L61 44L61 46L59 46L59 48L60 48L60 47L61 47L61 46L62 46L62 45L63 45L63 44L64 44L64 42L63 42L63 41L64 41L64 38L63 38L63 37L64 37L64 36L63 36L63 35L64 35L64 34L63 34L63 31L64 31L64 29L63 29L63 30L62 30L62 29L60 29L60 30L62 30L62 31L61 31L61 33L62 33L62 34L61 34L61 35L58 35L58 37L55 37L55 36L56 36L56 32L55 32L55 31L56 31L56 24L55 24L55 26L52 26L52 25L54 25L54 24L52 24L52 21L54 21L54 20L55 20L55 19L54 19L54 17L53 17L53 16L52 16L52 15L51 15L51 14L50 14L50 13L52 13L52 14L53 14L53 15L55 15L55 16L56 16L56 15L57 15L57 14L56 14L56 12L57 12L57 13L58 13L58 14L59 14L59 13L58 13L58 11L57 11L57 10L56 10L56 9L55 9L55 11L51 11L51 10L50 10L50 8L49 8L49 7L50 7L50 6L49 6L49 7L48 7L48 5L47 5L47 4L49 4L49 5L50 5L50 4L51 4L51 7L52 7L52 10L53 10L53 8L55 8L55 7L54 7L54 5L53 5L53 7L52 7L52 3L51 3L51 1ZM31 2L31 3L32 3L32 4L33 4L33 2ZM11 3L11 4L12 4L12 3ZM13 3L13 4L14 4L14 3ZM15 3L15 4L16 4L16 6L15 6L15 5L12 5L12 6L13 6L13 7L14 7L14 6L15 6L15 7L16 7L16 6L17 6L17 8L19 8L19 9L21 9L21 7L22 7L22 6L23 6L23 7L24 7L24 5L23 5L23 4L22 4L22 5L21 5L21 7L20 7L20 4L19 4L19 7L18 7L18 5L17 5L17 4L16 4L16 3ZM49 3L49 4L50 4L50 3ZM53 3L53 4L54 4L54 3ZM10 5L10 6L11 6L11 5ZM31 5L31 8L34 8L34 5ZM43 5L43 7L44 7L44 5ZM46 5L46 8L47 8L47 9L49 9L49 8L47 8L47 5ZM25 6L25 7L26 7L26 6ZM29 6L29 7L28 7L28 10L30 10L30 11L28 11L28 12L27 12L27 13L29 13L29 14L28 14L28 15L27 15L27 17L28 17L28 20L31 20L31 21L32 21L32 20L33 20L33 21L34 21L34 23L33 23L33 24L35 24L35 21L34 21L34 19L32 19L32 20L31 20L31 19L30 19L30 17L32 17L32 18L33 18L33 17L32 17L32 16L33 16L33 15L34 15L34 18L35 18L35 19L36 19L36 20L38 20L38 21L37 21L37 23L38 23L38 21L39 21L39 20L38 20L38 17L37 17L37 18L36 18L36 17L35 17L35 13L32 13L32 12L31 12L31 11L32 11L32 9L30 9L30 6ZM32 6L32 7L33 7L33 6ZM35 6L35 7L36 7L36 6ZM39 8L39 9L38 9L38 11L39 11L39 13L38 13L38 14L39 14L39 15L40 15L40 16L41 16L41 17L42 17L42 19L44 19L44 21L45 21L45 24L44 24L44 25L43 25L43 20L41 20L41 21L42 21L42 23L41 23L41 24L42 24L42 27L44 27L44 30L43 30L43 29L42 29L42 31L44 31L44 30L46 30L46 28L47 28L47 29L50 29L50 31L51 31L51 29L52 29L52 32L51 32L51 33L50 33L50 34L51 34L51 33L52 33L52 32L53 32L53 29L54 29L54 31L55 31L55 28L54 28L54 27L52 27L52 28L51 28L51 29L50 29L50 28L47 28L47 27L45 27L45 24L46 24L46 25L47 25L47 26L48 26L48 25L49 25L49 27L51 27L51 25L52 25L52 24L51 24L51 21L52 21L52 20L53 20L53 19L52 19L52 18L53 18L53 17L52 17L52 16L51 16L51 17L49 17L49 16L50 16L50 15L48 15L48 17L47 17L47 14L48 14L48 13L50 13L50 12L51 12L51 11L49 11L49 12L46 12L46 11L48 11L48 10L46 10L46 11L45 11L45 10L44 10L44 11L43 11L43 9L40 9L40 8ZM4 9L4 10L5 10L5 11L6 11L6 12L7 12L7 11L6 11L6 10L5 10L5 9ZM61 9L61 11L62 11L62 9ZM10 10L10 11L11 11L11 10ZM18 10L18 11L19 11L19 12L21 12L21 10L20 10L20 11L19 11L19 10ZM64 10L64 11L65 11L65 10ZM23 11L23 12L24 12L24 13L23 13L23 15L22 15L22 16L21 16L21 17L20 17L20 18L22 18L22 16L23 16L23 15L24 15L24 17L23 17L23 19L24 19L24 18L25 18L25 14L24 14L24 13L25 13L25 11ZM40 11L40 15L41 15L41 16L43 16L43 18L44 18L44 16L45 16L45 17L46 17L46 20L45 20L45 21L46 21L46 22L47 22L47 23L49 23L49 22L50 22L50 19L47 19L47 17L46 17L46 14L47 14L47 13L46 13L46 12L45 12L45 13L43 13L43 14L41 14L41 11ZM42 11L42 12L43 12L43 11ZM55 11L55 12L56 12L56 11ZM59 11L59 12L60 12L60 11ZM30 12L30 13L31 13L31 12ZM53 12L53 14L55 14L55 15L56 15L56 14L55 14L55 13L54 13L54 12ZM15 13L15 15L16 15L16 13ZM45 13L45 14L46 14L46 13ZM2 14L2 15L3 15L3 16L4 16L4 15L3 15L3 14ZM6 14L6 15L7 15L7 14ZM32 14L32 15L33 15L33 14ZM60 14L60 15L58 15L58 16L57 16L57 17L58 17L58 18L56 18L56 17L55 17L55 18L56 18L56 19L58 19L58 18L59 18L59 21L58 21L58 20L56 20L56 21L55 21L55 22L53 22L53 23L55 23L55 22L56 22L56 21L58 21L58 22L59 22L59 21L60 21L60 19L61 19L61 18L59 18L59 16L60 16L60 15L61 15L61 14ZM15 16L15 17L16 17L16 16ZM61 16L61 17L62 17L62 20L63 20L63 21L64 21L64 17L62 17L62 16ZM13 17L13 19L12 19L12 22L13 22L13 21L14 21L14 22L15 22L15 23L16 23L16 22L17 22L17 25L18 25L18 26L19 26L19 24L20 24L20 29L19 29L19 27L18 27L18 28L17 28L17 30L16 30L16 31L14 31L14 32L15 32L15 33L17 33L17 34L16 34L16 35L15 35L15 34L14 34L14 35L15 35L15 39L16 39L16 40L17 40L17 41L18 41L18 42L19 42L19 41L20 41L20 40L23 40L23 38L24 38L24 40L26 40L26 42L28 42L28 41L29 41L29 40L30 40L30 39L31 39L31 37L30 37L30 39L25 39L25 37L26 37L26 38L28 38L28 37L29 37L29 36L28 36L28 37L27 37L27 36L26 36L26 35L25 35L25 32L26 32L26 31L25 31L25 32L24 32L24 31L23 31L23 32L24 32L24 33L22 33L22 30L21 30L21 29L22 29L22 26L23 26L23 27L24 27L24 28L23 28L23 29L24 29L24 30L25 30L25 29L27 29L27 28L28 28L28 25L29 25L29 26L30 26L30 25L31 25L31 24L28 24L28 25L27 25L27 24L23 24L23 22L22 22L22 23L21 23L21 24L20 24L20 23L19 23L19 21L18 21L18 22L17 22L17 21L15 21L15 20L13 20L13 19L15 19L15 18L14 18L14 17ZM51 17L51 18L52 18L52 17ZM6 18L6 19L5 19L5 20L6 20L6 21L8 21L8 23L9 23L9 24L10 24L10 23L11 23L11 22L10 22L10 21L9 21L9 20L8 20L8 19L10 19L10 18ZM16 18L16 19L17 19L17 18ZM6 19L6 20L7 20L7 19ZM21 19L21 20L20 20L20 22L21 22L21 21L23 21L23 20L22 20L22 19ZM51 19L51 20L52 20L52 19ZM47 20L47 22L49 22L49 20ZM61 21L61 23L62 23L62 24L63 24L63 25L64 25L64 24L63 24L63 23L64 23L64 22L62 22L62 21ZM28 22L28 23L29 23L29 22ZM21 24L21 25L23 25L23 24ZM49 24L49 25L50 25L50 24ZM25 25L25 26L24 26L24 27L25 27L25 28L27 28L27 27L25 27L25 26L27 26L27 25ZM34 25L34 27L33 27L33 28L34 28L34 30L35 30L35 31L36 31L36 29L35 29L35 28L34 28L34 27L36 27L36 28L38 28L38 29L37 29L37 30L38 30L38 29L39 29L39 28L38 28L38 25L37 25L37 27L36 27L36 26L35 26L35 25ZM2 26L2 27L1 27L1 28L3 28L3 30L4 30L4 29L5 29L5 30L11 30L11 29L10 29L10 28L9 28L9 27L8 27L8 28L7 28L7 27L6 27L6 28L7 28L7 29L5 29L5 28L4 28L4 27L3 27L3 26ZM29 27L29 30L30 30L30 27ZM8 28L8 29L9 29L9 28ZM52 28L52 29L53 29L53 28ZM17 30L17 32L18 32L18 30ZM20 30L20 31L19 31L19 34L18 34L18 35L16 35L16 39L17 39L17 40L18 40L18 39L19 39L19 40L20 40L20 37L19 37L19 38L17 38L17 37L18 37L18 36L19 36L19 34L20 34L20 35L21 35L21 37L22 37L22 38L23 38L23 37L24 37L24 36L22 36L22 35L21 35L21 34L22 34L22 33L21 33L21 34L20 34L20 32L21 32L21 30ZM47 30L47 31L48 31L48 30ZM3 31L3 32L4 32L4 31ZM5 31L5 34L8 34L8 31ZM31 31L31 34L34 34L34 31ZM37 31L37 36L38 36L38 35L39 35L39 34L38 34L38 31ZM39 31L39 32L40 32L40 34L41 34L41 32L40 32L40 31ZM57 31L57 34L60 34L60 31ZM6 32L6 33L7 33L7 32ZM32 32L32 33L33 33L33 32ZM54 32L54 33L53 33L53 34L52 34L52 35L51 35L51 37L52 37L52 36L53 36L53 35L54 35L54 34L55 34L55 32ZM58 32L58 33L59 33L59 32ZM0 34L0 36L1 36L1 35L2 35L2 36L3 36L3 34ZM10 34L10 35L11 35L11 34ZM28 34L28 35L29 35L29 34ZM62 34L62 35L61 35L61 36L62 36L62 35L63 35L63 34ZM40 35L40 37L41 37L41 35ZM49 35L49 36L47 36L47 37L50 37L50 35ZM43 38L43 39L44 39L44 41L43 41L43 40L41 40L41 41L40 41L40 42L39 42L39 41L38 41L38 42L39 42L39 43L40 43L40 42L41 42L41 43L43 43L43 44L41 44L41 46L43 46L43 47L42 47L42 48L41 48L41 50L42 50L42 51L41 51L41 52L42 52L42 53L41 53L41 54L43 54L43 53L46 53L46 52L45 52L45 51L46 51L46 48L45 48L45 47L46 47L46 45L45 45L45 44L44 44L44 43L45 43L45 42L46 42L46 41L45 41L45 39L44 39L44 38ZM62 38L62 39L63 39L63 38ZM31 40L31 41L30 41L30 43L31 43L31 41L32 41L32 42L33 42L33 41L32 41L32 40ZM49 41L49 43L50 43L50 41ZM43 42L43 43L44 43L44 42ZM62 42L62 43L63 43L63 42ZM16 43L16 44L17 44L17 43ZM27 43L27 44L26 44L26 45L27 45L27 46L28 46L28 45L27 45L27 44L28 44L28 43ZM9 44L9 46L11 46L11 47L9 47L9 48L8 48L8 46L6 46L6 47L7 47L7 48L8 48L8 50L9 50L9 48L11 48L11 47L12 47L12 48L14 48L14 49L15 49L15 50L16 50L16 48L15 48L15 47L12 47L12 45L10 45L10 44ZM24 44L24 45L25 45L25 44ZM43 44L43 45L44 45L44 44ZM37 46L37 47L38 47L38 51L40 51L40 49L39 49L39 47L38 47L38 46ZM22 47L22 48L23 48L23 47ZM43 47L43 49L44 49L44 51L45 51L45 49L44 49L44 47ZM61 48L61 49L62 49L62 48ZM19 49L19 50L20 50L20 49ZM47 50L47 54L48 54L48 53L49 53L49 52L48 52L48 50ZM28 51L28 53L29 53L29 52L30 52L30 51ZM42 51L42 52L43 52L43 51ZM0 52L0 53L1 53L1 52ZM3 53L3 54L4 54L4 53ZM52 55L52 56L51 56L51 57L52 57L52 56L53 56L53 55ZM6 56L6 57L7 57L7 56ZM19 56L19 57L18 57L18 58L20 58L20 56ZM61 56L61 58L62 58L62 56ZM31 57L31 60L34 60L34 57ZM57 57L57 60L60 60L60 57ZM32 58L32 59L33 59L33 58ZM37 58L37 59L38 59L38 58ZM58 58L58 59L59 59L59 58ZM18 59L18 60L19 60L19 61L20 61L20 60L22 60L22 61L21 61L21 62L22 62L22 61L23 61L23 60L22 60L22 59ZM62 59L62 60L61 60L61 61L59 61L59 63L60 63L60 64L61 64L61 61L62 61L62 60L63 60L63 59ZM9 60L9 61L10 61L10 60ZM11 60L11 61L12 61L12 63L14 63L14 62L13 62L13 61L12 61L12 60ZM40 60L40 61L41 61L41 60ZM51 60L51 61L52 61L52 60ZM35 61L35 62L36 62L36 61ZM41 62L41 63L42 63L42 62ZM63 62L63 65L64 65L64 64L65 64L65 62ZM10 63L10 64L11 64L11 63ZM32 63L32 64L33 64L33 63ZM35 63L35 64L36 64L36 63ZM0 0L0 7L7 7L7 0ZM1 1L1 6L6 6L6 1ZM2 2L2 5L5 5L5 2ZM58 0L58 7L65 7L65 0ZM59 1L59 6L64 6L64 1ZM60 2L60 5L63 5L63 2ZM0 58L0 65L7 65L7 58ZM1 59L1 64L6 64L6 59ZM2 60L2 63L5 63L5 60Z" fill="#000000"/></g></g></svg>
