<?xml version="1.0" encoding="UTF-8"?>
<svg xmlns="http://www.w3.org/2000/svg" version="1.1" width="300" height="300" viewBox="0 0 300 300"><rect x="0" y="0" width="300" height="300" fill="#ffffff"/><g transform="scale(4.348)"><g transform="translate(0,0)"><path fill-rule="evenodd" d="M9 0L9 1L8 1L8 2L10 2L10 0ZM15 0L15 1L14 1L14 2L13 2L13 1L11 1L11 3L8 3L8 4L9 4L9 5L8 5L8 7L9 7L9 8L6 8L6 9L5 9L5 8L0 8L0 9L3 9L3 10L0 10L0 11L1 11L1 12L2 12L2 13L0 13L0 14L2 14L2 13L3 13L3 15L2 15L2 16L0 16L0 18L3 18L3 21L2 21L2 22L1 22L1 19L0 19L0 22L1 22L1 23L2 23L2 26L1 26L1 27L0 27L0 31L2 31L2 32L0 32L0 33L1 33L1 34L0 34L0 35L1 35L1 34L2 34L2 32L4 32L4 33L3 33L3 36L2 36L2 37L3 37L3 38L1 38L1 42L0 42L0 46L1 46L1 49L2 49L2 50L0 50L0 51L2 51L2 50L3 50L3 51L4 51L4 49L7 49L7 48L8 48L8 49L9 49L9 50L8 50L8 54L10 54L10 56L9 56L9 55L7 55L7 54L3 54L3 53L4 53L4 52L3 52L3 53L2 53L2 52L1 52L1 53L0 53L0 55L2 55L2 56L0 56L0 61L1 61L1 57L2 57L2 59L3 59L3 57L4 57L4 59L7 59L7 58L8 58L8 59L9 59L9 58L11 58L11 57L10 57L10 56L11 56L11 55L12 55L12 56L13 56L13 55L14 55L14 57L12 57L12 59L16 59L16 60L15 60L15 61L14 61L14 62L15 62L15 63L13 63L13 61L12 61L12 60L6 60L6 61L8 61L8 63L9 63L9 64L8 64L8 69L9 69L9 67L10 67L10 69L11 69L11 66L10 66L10 65L11 65L11 62L10 62L10 61L12 61L12 64L13 64L13 65L14 65L14 66L13 66L13 68L14 68L14 69L16 69L16 68L15 68L15 67L16 67L16 66L15 66L15 65L16 65L16 64L18 64L18 65L17 65L17 66L18 66L18 67L17 67L17 69L21 69L21 68L19 68L19 67L20 67L20 66L19 66L19 65L20 65L20 63L19 63L19 62L20 62L20 61L21 61L21 63L22 63L22 61L21 61L21 60L20 60L20 59L19 59L19 60L17 60L17 58L20 58L20 57L19 57L19 55L18 55L18 56L17 56L17 54L18 54L18 53L19 53L19 54L20 54L20 56L22 56L22 57L21 57L21 59L22 59L22 60L23 60L23 63L26 63L26 64L23 64L23 67L25 67L25 68L23 68L23 69L26 69L26 67L25 67L25 65L28 65L28 66L27 66L27 67L28 67L28 68L27 68L27 69L28 69L28 68L29 68L29 69L32 69L32 68L33 68L33 69L34 69L34 68L33 68L33 65L35 65L35 66L36 66L36 67L35 67L35 68L36 68L36 69L38 69L38 68L37 68L37 67L39 67L39 66L38 66L38 64L37 64L37 63L38 63L38 59L39 59L39 62L40 62L40 59L41 59L41 58L42 58L42 60L41 60L41 62L42 62L42 63L43 63L43 62L44 62L44 60L45 60L45 61L47 61L47 62L45 62L45 63L44 63L44 64L41 64L41 63L39 63L39 64L41 64L41 66L40 66L40 67L41 67L41 66L44 66L44 68L43 68L43 69L44 69L44 68L47 68L47 69L49 69L49 67L47 67L47 66L46 66L46 64L45 64L45 63L47 63L47 62L50 62L50 61L49 61L49 60L45 60L45 59L46 59L46 58L45 58L45 59L44 59L44 60L43 60L43 57L44 57L44 56L46 56L46 57L47 57L47 59L48 59L48 58L49 58L49 59L50 59L50 60L51 60L51 62L53 62L53 65L51 65L51 68L50 68L50 69L51 69L51 68L52 68L52 66L55 66L55 67L53 67L53 69L54 69L54 68L55 68L55 69L56 69L56 68L55 68L55 67L56 67L56 66L55 66L55 64L57 64L57 65L59 65L59 64L60 64L60 66L58 66L58 68L59 68L59 67L60 67L60 68L62 68L62 67L63 67L63 69L64 69L64 67L63 67L63 66L64 66L64 65L65 65L65 64L67 64L67 65L66 65L66 66L67 66L67 65L69 65L69 64L68 64L68 62L67 62L67 61L69 61L69 59L68 59L68 58L65 58L65 60L63 60L63 59L64 59L64 58L63 58L63 59L62 59L62 57L66 57L66 56L67 56L67 57L68 57L68 56L69 56L69 55L68 55L68 54L69 54L69 53L68 53L68 54L66 54L66 55L63 55L63 56L62 56L62 57L61 57L61 56L60 56L60 57L61 57L61 60L60 60L60 61L59 61L59 60L57 60L57 61L59 61L59 62L56 62L56 63L55 63L55 61L56 61L56 60L55 60L55 61L54 61L54 60L53 60L53 59L54 59L54 58L55 58L55 57L56 57L56 58L57 58L57 59L59 59L59 58L57 58L57 57L56 57L56 56L57 56L57 55L59 55L59 54L57 54L57 53L59 53L59 52L61 52L61 51L62 51L62 54L60 54L60 55L62 55L62 54L63 54L63 53L64 53L64 52L63 52L63 51L64 51L64 50L63 50L63 48L62 48L62 44L65 44L65 45L66 45L66 47L65 47L65 48L67 48L67 51L65 51L65 52L66 52L66 53L67 53L67 52L68 52L68 50L69 50L69 49L68 49L68 48L69 48L69 47L68 47L68 46L67 46L67 45L69 45L69 43L68 43L68 42L66 42L66 41L67 41L67 39L68 39L68 41L69 41L69 39L68 39L68 36L69 36L69 35L68 35L68 34L69 34L69 31L68 31L68 30L69 30L69 29L68 29L68 28L69 28L69 27L68 27L68 26L69 26L69 24L68 24L68 23L67 23L67 22L69 22L69 21L68 21L68 18L69 18L69 16L68 16L68 13L69 13L69 12L67 12L67 11L68 11L68 8L67 8L67 9L66 9L66 8L65 8L65 9L66 9L66 10L67 10L67 11L65 11L65 10L62 10L62 8L61 8L61 6L60 6L60 7L59 7L59 4L57 4L57 6L56 6L56 8L55 8L55 9L54 9L54 8L53 8L53 6L52 6L52 8L51 8L51 10L50 10L50 8L49 8L49 6L48 6L48 7L47 7L47 6L46 6L46 5L44 5L44 3L45 3L45 4L46 4L46 3L45 3L45 2L44 2L44 3L42 3L42 4L39 4L39 5L41 5L41 6L40 6L40 7L41 7L41 6L42 6L42 7L43 7L43 5L44 5L44 7L45 7L45 9L44 9L44 8L43 8L43 9L40 9L40 10L37 10L37 9L38 9L38 7L39 7L39 6L38 6L38 5L37 5L37 4L38 4L38 3L37 3L37 2L39 2L39 3L41 3L41 1L42 1L42 2L43 2L43 0L41 0L41 1L35 1L35 2L36 2L36 3L35 3L35 4L31 4L31 3L32 3L32 2L34 2L34 1L32 1L32 0L30 0L30 1L29 1L29 0L28 0L28 1L27 1L27 2L26 2L26 3L25 3L25 2L23 2L23 1L25 1L25 0L21 0L21 2L23 2L23 4L22 4L22 3L19 3L19 2L20 2L20 1L19 1L19 0ZM44 0L44 1L45 1L45 0ZM48 0L48 1L47 1L47 5L50 5L50 3L52 3L52 2L54 2L54 1L57 1L57 3L59 3L59 2L58 2L58 1L61 1L61 0L58 0L58 1L57 1L57 0L54 0L54 1L50 1L50 0ZM15 1L15 2L14 2L14 4L15 4L15 3L16 3L16 5L15 5L15 8L16 8L16 6L17 6L17 7L18 7L18 5L19 5L19 4L18 4L18 5L17 5L17 3L16 3L16 2L17 2L17 1ZM31 1L31 2L32 2L32 1ZM49 1L49 2L48 2L48 3L50 3L50 1ZM27 2L27 3L26 3L26 4L25 4L25 5L26 5L26 6L25 6L25 8L26 8L26 11L25 11L25 9L24 9L24 8L23 8L23 7L24 7L24 5L22 5L22 4L20 4L20 6L19 6L19 7L20 7L20 6L21 6L21 8L22 8L22 9L20 9L20 8L19 8L19 9L20 9L20 10L18 10L18 9L14 9L14 10L13 10L13 11L14 11L14 12L15 12L15 13L13 13L13 14L12 14L12 12L10 12L10 17L9 17L9 15L8 15L8 14L9 14L9 12L8 12L8 10L7 10L7 9L6 9L6 10L7 10L7 11L5 11L5 9L4 9L4 10L3 10L3 12L4 12L4 14L5 14L5 15L4 15L4 16L3 16L3 17L4 17L4 18L5 18L5 17L6 17L6 18L7 18L7 19L5 19L5 20L4 20L4 21L3 21L3 26L5 26L5 27L4 27L4 28L3 28L3 27L1 27L1 29L2 29L2 28L3 28L3 30L2 30L2 31L3 31L3 30L4 30L4 29L6 29L6 30L5 30L5 31L6 31L6 32L8 32L8 30L9 30L9 31L10 31L10 32L9 32L9 34L10 34L10 36L11 36L11 35L12 35L12 34L13 34L13 33L15 33L15 34L14 34L14 35L13 35L13 36L12 36L12 38L11 38L11 37L10 37L10 39L9 39L9 38L8 38L8 37L6 37L6 38L5 38L5 37L4 37L4 36L3 36L3 37L4 37L4 38L3 38L3 40L2 40L2 42L1 42L1 43L2 43L2 44L1 44L1 46L3 46L3 47L2 47L2 49L3 49L3 48L4 48L4 47L6 47L6 48L7 48L7 47L6 47L6 46L8 46L8 47L9 47L9 48L11 48L11 49L10 49L10 50L9 50L9 51L10 51L10 52L11 52L11 53L10 53L10 54L11 54L11 53L12 53L12 54L13 54L13 53L14 53L14 55L15 55L15 56L16 56L16 57L14 57L14 58L16 58L16 57L17 57L17 56L16 56L16 55L15 55L15 54L17 54L17 53L18 53L18 52L19 52L19 51L20 51L20 50L19 50L19 51L18 51L18 49L24 49L24 48L25 48L25 49L26 49L26 50L23 50L23 52L20 52L20 54L21 54L21 55L22 55L22 54L23 54L23 56L26 56L26 57L25 57L25 58L26 58L26 59L25 59L25 60L24 60L24 59L23 59L23 58L24 58L24 57L22 57L22 59L23 59L23 60L24 60L24 61L25 61L25 62L28 62L28 63L27 63L27 64L28 64L28 65L29 65L29 66L30 66L30 65L29 65L29 64L31 64L31 63L32 63L32 61L29 61L29 60L33 60L33 59L34 59L34 58L35 58L35 59L37 59L37 58L39 58L39 57L41 57L41 56L39 56L39 55L43 55L43 56L42 56L42 57L43 57L43 56L44 56L44 53L45 53L45 54L46 54L46 56L48 56L48 55L47 55L47 53L45 53L45 52L46 52L46 51L47 51L47 52L48 52L48 50L49 50L49 51L50 51L50 52L49 52L49 53L50 53L50 54L49 54L49 56L50 56L50 58L54 58L54 55L55 55L55 56L56 56L56 55L55 55L55 54L56 54L56 53L57 53L57 50L58 50L58 52L59 52L59 49L60 49L60 51L61 51L61 50L62 50L62 51L63 51L63 50L62 50L62 49L60 49L60 48L61 48L61 46L60 46L60 48L59 48L59 45L60 45L60 44L62 44L62 43L63 43L63 42L64 42L64 43L65 43L65 41L63 41L63 42L62 42L62 40L63 40L63 39L67 39L67 37L64 37L64 38L62 38L62 37L61 37L61 38L60 38L60 37L57 37L57 36L60 36L60 35L59 35L59 34L60 34L60 32L61 32L61 31L63 31L63 32L64 32L64 31L67 31L67 32L66 32L66 34L65 34L65 35L67 35L67 36L68 36L68 35L67 35L67 34L68 34L68 31L67 31L67 30L68 30L68 29L67 29L67 28L68 28L68 27L67 27L67 26L68 26L68 24L67 24L67 26L66 26L66 25L65 25L65 24L64 24L64 23L63 23L63 22L64 22L64 21L65 21L65 22L67 22L67 20L65 20L65 19L67 19L67 18L63 18L63 17L66 17L66 16L65 16L65 14L67 14L67 13L65 13L65 11L64 11L64 12L62 12L62 11L61 11L61 10L59 10L59 9L60 9L60 8L59 8L59 7L58 7L58 6L57 6L57 7L58 7L58 8L56 8L56 9L55 9L55 10L53 10L53 11L55 11L55 12L52 12L52 10L51 10L51 12L52 12L52 13L50 13L50 14L47 14L47 12L49 12L49 11L50 11L50 10L47 10L47 7L46 7L46 6L45 6L45 7L46 7L46 9L45 9L45 10L42 10L42 12L41 12L41 10L40 10L40 12L39 12L39 11L37 11L37 10L36 10L36 9L35 9L35 10L33 10L33 9L31 9L31 8L32 8L32 5L30 5L30 4L29 4L29 3L30 3L30 2L29 2L29 3L28 3L28 2ZM55 2L55 3L54 3L54 4L53 4L53 5L54 5L54 7L55 7L55 5L56 5L56 2ZM60 3L60 5L61 5L61 3ZM51 4L51 5L52 5L52 4ZM9 5L9 7L10 7L10 6L11 6L11 8L9 8L9 9L11 9L11 11L12 11L12 8L13 8L13 7L14 7L14 6L13 6L13 5L12 5L12 6L11 6L11 5ZM21 5L21 6L22 6L22 7L23 7L23 6L22 6L22 5ZM27 5L27 6L26 6L26 8L28 8L28 9L30 9L30 10L29 10L29 11L26 11L26 12L24 12L24 11L22 11L22 12L21 12L21 13L22 13L22 14L21 14L21 15L20 15L20 12L19 12L19 11L18 11L18 12L17 12L17 10L15 10L15 11L16 11L16 13L18 13L18 14L17 14L17 15L18 15L18 14L19 14L19 16L23 16L23 17L18 17L18 16L16 16L16 14L15 14L15 15L14 15L14 14L13 14L13 15L11 15L11 16L14 16L14 17L18 17L18 20L17 20L17 18L12 18L12 17L10 17L10 18L11 18L11 19L8 19L8 21L10 21L10 22L11 22L11 23L14 23L14 24L13 24L13 25L12 25L12 26L14 26L14 24L15 24L15 25L16 25L16 26L15 26L15 27L14 27L14 28L15 28L15 29L16 29L16 28L17 28L17 29L18 29L18 31L17 31L17 30L16 30L16 31L17 31L17 32L18 32L18 33L17 33L17 34L15 34L15 35L18 35L18 36L17 36L17 38L15 38L15 39L14 39L14 38L13 38L13 39L14 39L14 41L15 41L15 42L12 42L12 44L11 44L11 42L8 42L8 43L10 43L10 44L11 44L11 46L12 46L12 44L13 44L13 43L15 43L15 45L14 45L14 46L15 46L15 47L16 47L16 48L17 48L17 49L18 49L18 48L17 48L17 47L18 47L18 46L20 46L20 45L21 45L21 46L26 46L26 43L28 43L28 42L27 42L27 41L28 41L28 40L29 40L29 41L30 41L30 42L29 42L29 43L30 43L30 44L28 44L28 45L30 45L30 46L31 46L31 45L33 45L33 46L32 46L32 47L33 47L33 46L34 46L34 48L36 48L36 47L37 47L37 50L36 50L36 49L35 49L35 52L36 52L36 53L37 53L37 54L36 54L36 55L35 55L35 54L33 54L33 53L34 53L34 52L32 52L32 51L34 51L34 49L33 49L33 48L32 48L32 49L31 49L31 48L29 48L29 49L30 49L30 50L29 50L29 51L30 51L30 50L32 50L32 51L31 51L31 52L28 52L28 51L24 51L24 53L23 53L23 54L24 54L24 55L25 55L25 53L26 53L26 55L27 55L27 53L26 53L26 52L28 52L28 53L29 53L29 54L30 54L30 55L28 55L28 56L27 56L27 57L29 57L29 58L27 58L27 60L29 60L29 59L31 59L31 56L32 56L32 59L33 59L33 55L34 55L34 56L37 56L37 57L39 57L39 56L37 56L37 54L43 54L43 53L44 53L44 52L45 52L45 49L46 49L46 46L45 46L45 45L44 45L44 44L46 44L46 45L47 45L47 46L49 46L49 47L52 47L52 48L51 48L51 49L52 49L52 50L51 50L51 52L53 52L53 53L51 53L51 54L52 54L52 56L51 56L51 57L52 57L52 56L53 56L53 55L54 55L54 54L55 54L55 53L56 53L56 51L55 51L55 50L56 50L56 48L53 48L53 47L52 47L52 45L51 45L51 46L50 46L50 44L53 44L53 46L55 46L55 47L58 47L58 46L57 46L57 45L58 45L58 44L57 44L57 43L58 43L58 42L57 42L57 41L56 41L56 40L59 40L59 39L60 39L60 38L56 38L56 40L55 40L55 37L56 37L56 36L55 36L55 35L56 35L56 34L57 34L57 33L56 33L56 32L55 32L55 29L56 29L56 31L57 31L57 32L58 32L58 31L57 31L57 29L56 29L56 28L57 28L57 26L58 26L58 28L59 28L59 30L62 30L62 29L63 29L63 30L64 30L64 29L63 29L63 28L67 28L67 27L63 27L63 26L65 26L65 25L63 25L63 24L61 24L61 23L62 23L62 20L63 20L63 18L62 18L62 16L64 16L64 15L63 15L63 14L64 14L64 13L63 13L63 14L62 14L62 12L61 12L61 11L59 11L59 13L60 13L60 14L59 14L59 16L58 16L58 17L59 17L59 18L57 18L57 17L56 17L56 16L57 16L57 15L58 15L58 14L56 14L56 16L55 16L55 15L54 15L54 14L55 14L55 13L56 13L56 12L58 12L58 11L57 11L57 10L56 10L56 12L55 12L55 13L53 13L53 15L51 15L51 16L53 16L53 15L54 15L54 16L55 16L55 17L51 17L51 18L48 18L48 19L47 19L47 18L46 18L46 17L50 17L50 16L49 16L49 15L48 15L48 16L47 16L47 14L45 14L45 13L44 13L44 12L45 12L45 11L43 11L43 13L42 13L42 14L41 14L41 12L40 12L40 13L39 13L39 14L38 14L38 12L37 12L37 13L36 13L36 12L34 12L34 11L33 11L33 12L34 12L34 13L33 13L33 14L34 14L34 13L36 13L36 14L35 14L35 15L37 15L37 18L36 18L36 17L34 17L34 18L33 18L33 16L34 16L34 15L33 15L33 16L32 16L32 14L31 14L31 15L29 15L29 14L28 14L28 15L29 15L29 18L31 18L31 19L29 19L29 20L28 20L28 19L26 19L26 17L25 17L25 16L26 16L26 15L24 15L24 14L25 14L25 13L26 13L26 14L27 14L27 13L32 13L32 12L29 12L29 11L30 11L30 10L31 10L31 11L32 11L32 10L31 10L31 9L30 9L30 8L29 8L29 6L30 6L30 7L31 7L31 6L30 6L30 5ZM33 5L33 8L36 8L36 5ZM12 6L12 7L13 7L13 6ZM27 6L27 7L28 7L28 6ZM34 6L34 7L35 7L35 6ZM37 6L37 7L38 7L38 6ZM50 6L50 7L51 7L51 6ZM52 8L52 9L53 9L53 8ZM58 8L58 9L59 9L59 8ZM63 8L63 9L64 9L64 8ZM23 9L23 10L24 10L24 9ZM9 10L9 11L10 11L10 10ZM20 10L20 11L21 11L21 10ZM35 10L35 11L36 11L36 10ZM5 12L5 14L6 14L6 15L7 15L7 16L6 16L6 17L7 17L7 18L8 18L8 17L7 17L7 16L8 16L8 15L7 15L7 14L8 14L8 12ZM22 12L22 13L24 13L24 12ZM26 12L26 13L27 13L27 12ZM60 12L60 13L61 13L61 12ZM6 13L6 14L7 14L7 13ZM43 13L43 14L42 14L42 15L40 15L40 14L39 14L39 15L38 15L38 18L37 18L37 19L39 19L39 18L41 18L41 17L42 17L42 16L44 16L44 17L43 17L43 20L42 20L42 19L40 19L40 20L39 20L39 22L37 22L37 23L32 23L32 26L30 26L30 27L33 27L33 28L34 28L34 29L33 29L33 30L31 30L31 29L32 29L32 28L31 28L31 29L28 29L28 28L29 28L29 27L28 27L28 26L29 26L29 25L30 25L30 24L29 24L29 25L28 25L28 24L27 24L27 23L26 23L26 21L27 21L27 22L29 22L29 23L30 23L30 22L35 22L35 19L36 19L36 18L34 18L34 19L33 19L33 18L32 18L32 20L31 20L31 21L30 21L30 20L29 20L29 21L27 21L27 20L26 20L26 21L25 21L25 23L26 23L26 26L25 26L25 27L26 27L26 29L25 29L25 30L23 30L23 32L20 32L20 31L21 31L21 30L22 30L22 29L23 29L23 28L24 28L24 27L23 27L23 26L24 26L24 25L22 25L22 24L21 24L21 23L22 23L22 22L23 22L23 20L25 20L25 19L24 19L24 18L21 18L21 20L19 20L19 21L18 21L18 22L19 22L19 23L17 23L17 22L16 22L16 25L17 25L17 24L19 24L19 23L20 23L20 24L21 24L21 25L20 25L20 26L21 26L21 27L19 27L19 26L18 26L18 27L19 27L19 29L20 29L20 31L19 31L19 32L20 32L20 33L19 33L19 34L20 34L20 35L19 35L19 36L20 36L20 39L19 39L19 41L18 41L18 42L19 42L19 41L20 41L20 44L19 44L19 43L18 43L18 44L19 44L19 45L20 45L20 44L21 44L21 45L23 45L23 43L24 43L24 44L25 44L25 42L26 42L26 41L27 41L27 39L26 39L26 38L28 38L28 39L29 39L29 40L30 40L30 41L31 41L31 44L33 44L33 45L34 45L34 46L35 46L35 47L36 47L36 46L35 46L35 45L36 45L36 44L34 44L34 43L35 43L35 42L32 42L32 41L31 41L31 39L32 39L32 40L33 40L33 41L35 41L35 40L33 40L33 37L32 37L32 38L30 38L30 37L29 37L29 36L28 36L28 35L27 35L27 34L28 34L28 33L29 33L29 32L31 32L31 33L30 33L30 34L29 34L29 35L30 35L30 34L31 34L31 36L32 36L32 32L34 32L34 31L33 31L33 30L34 30L34 29L36 29L36 30L37 30L37 31L39 31L39 30L40 30L40 31L43 31L43 32L39 32L39 33L38 33L38 32L37 32L37 33L38 33L38 34L37 34L37 36L38 36L38 37L34 37L34 38L38 38L38 39L37 39L37 41L38 41L38 42L37 42L37 46L39 46L39 47L38 47L38 48L39 48L39 49L38 49L38 51L39 51L39 53L43 53L43 52L44 52L44 51L43 51L43 52L42 52L42 50L41 50L41 49L42 49L42 48L43 48L43 47L44 47L44 49L43 49L43 50L44 50L44 49L45 49L45 46L44 46L44 45L43 45L43 46L42 46L42 45L41 45L41 46L42 46L42 48L41 48L41 47L40 47L40 46L39 46L39 45L40 45L40 44L41 44L41 43L40 43L40 41L41 41L41 40L44 40L44 42L43 42L43 43L44 43L44 42L45 42L45 43L46 43L46 42L49 42L49 43L48 43L48 44L49 44L49 43L50 43L50 42L54 42L54 43L57 43L57 42L56 42L56 41L55 41L55 42L54 42L54 41L53 41L53 39L52 39L52 38L53 38L53 37L55 37L55 36L54 36L54 35L55 35L55 34L56 34L56 33L55 33L55 32L53 32L53 29L55 29L55 28L56 28L56 25L58 25L58 26L59 26L59 28L61 28L61 29L62 29L62 27L61 27L61 26L63 26L63 25L61 25L61 26L59 26L59 25L58 25L58 24L59 24L59 23L60 23L60 22L59 22L59 21L60 21L60 20L62 20L62 18L59 18L59 19L60 19L60 20L59 20L59 21L57 21L57 20L58 20L58 19L57 19L57 20L55 20L55 19L54 19L54 18L51 18L51 19L48 19L48 20L47 20L47 19L46 19L46 18L45 18L45 16L44 16L44 15L45 15L45 14L44 14L44 13ZM22 14L22 15L23 15L23 14ZM43 14L43 15L44 15L44 14ZM39 15L39 16L40 16L40 15ZM61 15L61 16L59 16L59 17L61 17L61 16L62 16L62 15ZM4 16L4 17L5 17L5 16ZM31 16L31 17L32 17L32 16ZM27 17L27 18L28 18L28 17ZM19 18L19 19L20 19L20 18ZM44 18L44 19L45 19L45 18ZM52 19L52 20L48 20L48 21L47 21L47 20L46 20L46 21L47 21L47 22L48 22L48 21L49 21L49 22L50 22L50 24L52 24L52 23L54 23L54 24L53 24L53 26L51 26L51 28L52 28L52 27L55 27L55 25L56 25L56 24L57 24L57 23L58 23L58 22L57 22L57 21L56 21L56 22L55 22L55 20L54 20L54 19ZM6 20L6 21L7 21L7 20ZM10 20L10 21L11 21L11 22L13 22L13 21L14 21L14 23L15 23L15 21L14 21L14 20L12 20L12 21L11 21L11 20ZM16 20L16 21L17 21L17 20ZM37 20L37 21L38 21L38 20ZM41 20L41 22L39 22L39 23L41 23L41 24L42 24L42 25L41 25L41 26L39 26L39 27L38 27L38 23L37 23L37 24L36 24L36 25L35 25L35 26L36 26L36 27L35 27L35 28L36 28L36 29L37 29L37 30L38 30L38 29L40 29L40 28L39 28L39 27L42 27L42 30L43 30L43 29L44 29L44 32L43 32L43 33L40 33L40 36L39 36L39 37L40 37L40 36L41 36L41 34L43 34L43 33L44 33L44 36L43 36L43 37L41 37L41 38L39 38L39 39L38 39L38 40L41 40L41 38L42 38L42 39L45 39L45 40L47 40L47 41L49 41L49 42L50 42L50 41L51 41L51 39L50 39L50 35L52 35L52 33L51 33L51 34L50 34L50 33L49 33L49 30L50 30L50 29L49 29L49 28L50 28L50 27L49 27L49 26L50 26L50 25L49 25L49 24L48 24L48 23L47 23L47 24L46 24L46 22L44 22L44 20L43 20L43 21L42 21L42 20ZM52 20L52 21L50 21L50 22L54 22L54 23L55 23L55 24L54 24L54 25L55 25L55 24L56 24L56 23L55 23L55 22L54 22L54 21L53 21L53 20ZM4 21L4 25L8 25L8 26L6 26L6 27L7 27L7 28L6 28L6 29L9 29L9 28L10 28L10 27L9 27L9 26L11 26L11 24L10 24L10 23L9 23L9 22L8 22L8 24L6 24L6 23L7 23L7 22L6 22L6 23L5 23L5 21ZM19 21L19 22L20 22L20 21ZM29 21L29 22L30 22L30 21ZM41 22L41 23L43 23L43 24L44 24L44 25L43 25L43 26L46 26L46 28L45 28L45 27L43 27L43 28L44 28L44 29L45 29L45 30L47 30L47 28L49 28L49 27L47 27L47 25L48 25L48 24L47 24L47 25L46 25L46 24L45 24L45 23L44 23L44 22ZM0 24L0 25L1 25L1 24ZM9 24L9 25L10 25L10 24ZM21 25L21 26L22 26L22 25ZM27 25L27 26L26 26L26 27L27 27L27 26L28 26L28 25ZM8 27L8 28L9 28L9 27ZM11 27L11 28L12 28L12 30L11 30L11 29L10 29L10 30L11 30L11 31L12 31L12 30L13 30L13 32L10 32L10 33L11 33L11 34L12 34L12 33L13 33L13 32L15 32L15 33L16 33L16 32L15 32L15 31L14 31L14 30L13 30L13 28L12 28L12 27ZM15 27L15 28L16 28L16 27ZM37 27L37 29L38 29L38 27ZM21 28L21 29L22 29L22 28ZM48 29L48 30L49 30L49 29ZM51 29L51 30L52 30L52 29ZM6 30L6 31L7 31L7 30ZM25 30L25 31L26 31L26 32L25 32L25 33L23 33L23 34L22 34L22 33L21 33L21 35L23 35L23 36L24 36L24 37L22 37L22 38L21 38L21 39L20 39L20 41L22 41L22 40L21 40L21 39L22 39L22 38L26 38L26 36L25 36L25 35L26 35L26 34L25 34L25 33L28 33L28 31L31 31L31 32L32 32L32 31L31 31L31 30L28 30L28 31L27 31L27 30ZM46 31L46 32L44 32L44 33L45 33L45 36L44 36L44 37L45 37L45 38L48 38L48 39L47 39L47 40L48 40L48 39L49 39L49 37L45 37L45 36L49 36L49 35L48 35L48 33L46 33L46 32L47 32L47 31ZM5 33L5 36L8 36L8 33ZM33 33L33 36L36 36L36 33ZM53 33L53 34L55 34L55 33ZM61 33L61 36L64 36L64 33ZM6 34L6 35L7 35L7 34ZM23 34L23 35L24 35L24 34ZM34 34L34 35L35 35L35 34ZM62 34L62 35L63 35L63 34ZM14 36L14 37L16 37L16 36ZM6 38L6 39L7 39L7 38ZM29 38L29 39L30 39L30 38ZM61 38L61 40L62 40L62 38ZM4 39L4 40L5 40L5 41L4 41L4 43L5 43L5 42L6 42L6 43L7 43L7 42L6 42L6 41L7 41L7 40L5 40L5 39ZM8 39L8 41L10 41L10 40L11 40L11 41L13 41L13 40L12 40L12 39L10 39L10 40L9 40L9 39ZM15 39L15 41L16 41L16 42L15 42L15 43L16 43L16 45L15 45L15 46L17 46L17 40L16 40L16 39ZM24 39L24 41L23 41L23 42L24 42L24 41L26 41L26 40L25 40L25 39ZM59 41L59 42L61 42L61 43L62 43L62 42L61 42L61 41ZM2 42L2 43L3 43L3 42ZM21 42L21 43L22 43L22 42ZM38 42L38 45L39 45L39 44L40 44L40 43L39 43L39 42ZM59 43L59 44L60 44L60 43ZM2 44L2 45L5 45L5 46L6 46L6 45L8 45L8 46L9 46L9 47L10 47L10 46L9 46L9 45L8 45L8 44L6 44L6 45L5 45L5 44ZM56 44L56 45L55 45L55 46L56 46L56 45L57 45L57 44ZM63 46L63 47L64 47L64 46ZM13 47L13 49L12 49L12 50L13 50L13 49L15 49L15 48L14 48L14 47ZM19 47L19 48L23 48L23 47ZM25 47L25 48L26 48L26 47ZM39 47L39 48L40 48L40 47ZM47 47L47 49L49 49L49 50L50 50L50 49L49 49L49 48L48 48L48 47ZM52 48L52 49L53 49L53 48ZM57 48L57 49L59 49L59 48ZM27 49L27 50L28 50L28 49ZM32 49L32 50L33 50L33 49ZM5 50L5 52L6 52L6 53L7 53L7 52L6 52L6 51L7 51L7 50ZM16 50L16 51L17 51L17 50ZM39 50L39 51L40 51L40 52L41 52L41 50ZM52 50L52 51L53 51L53 52L54 52L54 50ZM12 51L12 53L13 53L13 51ZM14 51L14 52L15 52L15 53L16 53L16 52L15 52L15 51ZM37 52L37 53L38 53L38 52ZM31 53L31 55L32 55L32 53ZM3 55L3 56L2 56L2 57L3 57L3 56L4 56L4 57L6 57L6 58L7 58L7 57L6 57L6 56L7 56L7 55L6 55L6 56L5 56L5 55ZM67 55L67 56L68 56L68 55ZM29 56L29 57L30 57L30 56ZM58 56L58 57L59 57L59 56ZM51 59L51 60L52 60L52 61L53 61L53 60L52 60L52 59ZM67 59L67 60L68 60L68 59ZM3 60L3 61L5 61L5 60ZM16 60L16 61L15 61L15 62L16 62L16 63L15 63L15 64L16 64L16 63L18 63L18 62L19 62L19 61L20 61L20 60L19 60L19 61L17 61L17 60ZM25 60L25 61L26 61L26 60ZM42 60L42 61L43 61L43 60ZM33 61L33 64L36 64L36 61ZM61 61L61 64L64 64L64 61ZM30 62L30 63L31 63L31 62ZM34 62L34 63L35 63L35 62ZM59 62L59 63L57 63L57 64L59 64L59 63L60 63L60 62ZM62 62L62 63L63 63L63 62ZM65 62L65 63L66 63L66 62ZM48 63L48 64L47 64L47 65L49 65L49 66L50 66L50 64L51 64L51 63L50 63L50 64L49 64L49 63ZM54 63L54 64L55 64L55 63ZM9 64L9 65L10 65L10 64ZM44 64L44 66L45 66L45 67L46 67L46 66L45 66L45 64ZM31 65L31 66L32 66L32 65ZM36 65L36 66L37 66L37 65ZM61 65L61 67L62 67L62 65ZM21 66L21 67L22 67L22 66ZM30 67L30 68L32 68L32 67ZM65 67L65 68L67 68L67 69L68 69L68 68L67 68L67 67ZM41 68L41 69L42 69L42 68ZM0 0L0 7L7 7L7 0ZM1 1L1 6L6 6L6 1ZM2 2L2 5L5 5L5 2ZM62 0L62 7L69 7L69 0ZM63 1L63 6L68 6L68 1ZM64 2L64 5L67 5L67 2ZM0 62L0 69L7 69L7 62ZM1 63L1 68L6 68L6 63ZM2 64L2 67L5 67L5 64Z" fill="#000000"/></g></g></svg>
