<?xml version="1.0" encoding="UTF-8"?>
<svg xmlns="http://www.w3.org/2000/svg" version="1.1" width="300" height="300" viewBox="0 0 300 300"><rect x="0" y="0" width="300" height="300" fill="#ffffff"/><g transform="scale(4.348)"><g transform="translate(0,0)"><path fill-rule="evenodd" d="M8 0L8 4L9 4L9 2L12 2L12 4L14 4L14 7L13 7L13 5L12 5L12 8L11 8L11 3L10 3L10 8L11 8L11 9L10 9L10 10L11 10L11 11L13 11L13 13L12 13L12 12L11 12L11 13L10 13L10 14L11 14L11 15L9 15L9 18L10 18L10 19L11 19L11 21L9 21L9 22L8 22L8 20L5 20L5 19L7 19L7 18L5 18L5 16L4 16L4 15L7 15L7 16L6 16L6 17L7 17L7 16L8 16L8 15L7 15L7 14L4 14L4 13L8 13L8 14L9 14L9 10L8 10L8 11L7 11L7 10L6 10L6 9L7 9L7 8L4 8L4 9L2 9L2 8L0 8L0 9L2 9L2 10L1 10L1 11L0 11L0 12L2 12L2 13L1 13L1 15L0 15L0 16L1 16L1 17L0 17L0 20L1 20L1 22L0 22L0 24L1 24L1 25L3 25L3 26L1 26L1 27L2 27L2 28L5 28L5 29L7 29L7 30L5 30L5 31L7 31L7 30L8 30L8 31L10 31L10 32L4 32L4 34L3 34L3 32L2 32L2 33L1 33L1 34L0 34L0 38L1 38L1 37L2 37L2 38L3 38L3 39L0 39L0 42L1 42L1 40L3 40L3 41L4 41L4 42L2 42L2 43L5 43L5 41L8 41L8 42L10 42L10 41L11 41L11 44L13 44L13 45L14 45L14 47L13 47L13 48L14 48L14 49L13 49L13 51L14 51L14 52L15 52L15 53L14 53L14 54L11 54L11 56L12 56L12 57L10 57L10 56L9 56L9 58L10 58L10 59L11 59L11 58L12 58L12 59L14 59L14 60L15 60L15 61L14 61L14 62L13 62L13 63L15 63L15 64L12 64L12 63L11 63L11 62L10 62L10 61L13 61L13 60L10 60L10 61L8 61L8 60L9 60L9 59L8 59L8 60L6 60L6 61L8 61L8 62L9 62L9 63L8 63L8 65L9 65L9 63L10 63L10 64L11 64L11 65L12 65L12 66L13 66L13 67L10 67L10 66L9 66L9 67L8 67L8 69L10 69L10 68L11 68L11 69L15 69L15 68L16 68L16 67L18 67L18 68L17 68L17 69L19 69L19 67L20 67L20 66L21 66L21 67L22 67L22 68L23 68L23 69L24 69L24 68L23 68L23 67L26 67L26 66L27 66L27 67L28 67L28 66L30 66L30 65L31 65L31 68L30 68L30 67L29 67L29 69L31 69L31 68L32 68L32 69L35 69L35 66L37 66L37 67L39 67L39 68L38 68L38 69L40 69L40 67L39 67L39 66L40 66L40 63L41 63L41 69L42 69L42 67L43 67L43 63L44 63L44 69L46 69L46 67L45 67L45 63L46 63L46 64L47 64L47 66L48 66L48 65L50 65L50 66L49 66L49 67L48 67L48 69L49 69L49 68L50 68L50 69L52 69L52 68L53 68L53 69L55 69L55 68L56 68L56 69L57 69L57 68L58 68L58 67L57 67L57 68L56 68L56 66L58 66L58 64L59 64L59 65L60 65L60 66L61 66L61 67L62 67L62 66L64 66L64 67L67 67L67 66L69 66L69 63L68 63L68 62L67 62L67 61L68 61L68 60L66 60L66 61L65 61L65 59L68 59L68 55L67 55L67 53L69 53L69 52L68 52L68 50L67 50L67 52L66 52L66 54L64 54L64 53L63 53L63 52L65 52L65 51L66 51L66 49L65 49L65 51L64 51L64 49L63 49L63 48L62 48L62 46L64 46L64 44L65 44L65 45L66 45L66 46L65 46L65 47L64 47L64 48L65 48L65 47L66 47L66 46L67 46L67 47L68 47L68 48L67 48L67 49L68 49L68 48L69 48L69 47L68 47L68 46L69 46L69 44L68 44L68 45L67 45L67 44L65 44L65 43L68 43L68 42L64 42L64 43L62 43L62 42L63 42L63 41L66 41L66 39L65 39L65 38L67 38L67 41L69 41L69 39L68 39L68 38L69 38L69 35L68 35L68 33L69 33L69 31L68 31L68 30L69 30L69 29L68 29L68 28L69 28L69 27L68 27L68 26L69 26L69 25L68 25L68 26L67 26L67 27L68 27L68 28L67 28L67 30L64 30L64 28L65 28L65 29L66 29L66 28L65 28L65 25L67 25L67 24L65 24L65 23L68 23L68 24L69 24L69 23L68 23L68 22L67 22L67 20L68 20L68 21L69 21L69 20L68 20L68 18L67 18L67 20L65 20L65 18L66 18L66 17L67 17L67 16L68 16L68 17L69 17L69 16L68 16L68 14L69 14L69 13L68 13L68 12L69 12L69 11L68 11L68 10L69 10L69 8L65 8L65 9L64 9L64 8L63 8L63 9L62 9L62 10L64 10L64 12L63 12L63 11L60 11L60 10L61 10L61 9L59 9L59 8L60 8L60 7L61 7L61 6L60 6L60 7L59 7L59 4L57 4L57 5L56 5L56 2L57 2L57 3L59 3L59 2L57 2L57 1L56 1L56 0L53 0L53 2L51 2L51 3L52 3L52 4L53 4L53 5L51 5L51 4L50 4L50 5L51 5L51 6L50 6L50 7L49 7L49 5L47 5L47 6L46 6L46 7L45 7L45 6L44 6L44 5L46 5L46 4L47 4L47 2L46 2L46 3L45 3L45 1L46 1L46 0L45 0L45 1L44 1L44 0L40 0L40 4L41 4L41 5L43 5L43 6L42 6L42 7L41 7L41 6L40 6L40 8L38 8L38 7L39 7L39 4L38 4L38 3L37 3L37 4L35 4L35 3L36 3L36 2L38 2L38 1L39 1L39 0L38 0L38 1L37 1L37 0L35 0L35 2L34 2L34 4L32 4L32 2L33 2L33 0L32 0L32 1L31 1L31 0L30 0L30 1L31 1L31 2L29 2L29 0L23 0L23 3L22 3L22 0L16 0L16 1L14 1L14 2L12 2L12 0L11 0L11 1L10 1L10 0ZM48 0L48 2L50 2L50 1L52 1L52 0L50 0L50 1L49 1L49 0ZM58 0L58 1L61 1L61 0ZM17 1L17 2L15 2L15 3L14 3L14 4L16 4L16 5L15 5L15 7L14 7L14 8L12 8L12 9L13 9L13 11L14 11L14 10L15 10L15 9L14 9L14 8L16 8L16 6L17 6L17 8L18 8L18 6L17 6L17 4L18 4L18 5L19 5L19 10L20 10L20 8L21 8L21 9L22 9L22 10L21 10L21 11L20 11L20 13L19 13L19 14L20 14L20 16L22 16L22 17L19 17L19 16L18 16L18 17L17 17L17 18L18 18L18 17L19 17L19 19L18 19L18 20L19 20L19 19L20 19L20 18L22 18L22 19L21 19L21 20L22 20L22 21L21 21L21 22L20 22L20 21L19 21L19 22L18 22L18 21L17 21L17 19L16 19L16 16L15 16L15 19L14 19L14 17L11 17L11 16L10 16L10 17L11 17L11 19L12 19L12 21L11 21L11 22L9 22L9 24L8 24L8 22L7 22L7 21L6 21L6 22L7 22L7 23L6 23L6 24L5 24L5 23L4 23L4 24L3 24L3 25L4 25L4 27L6 27L6 28L7 28L7 29L8 29L8 30L10 30L10 29L8 29L8 28L9 28L9 26L8 26L8 25L9 25L9 24L10 24L10 23L12 23L12 24L11 24L11 25L10 25L10 27L11 27L11 29L13 29L13 30L11 30L11 31L12 31L12 32L11 32L11 33L9 33L9 37L10 37L10 40L8 40L8 41L10 41L10 40L11 40L11 39L12 39L12 40L14 40L14 42L15 42L15 43L13 43L13 42L12 42L12 43L13 43L13 44L15 44L15 45L16 45L16 51L18 51L18 52L16 52L16 55L17 55L17 56L15 56L15 54L14 54L14 55L13 55L13 57L12 57L12 58L13 58L13 57L14 57L14 56L15 56L15 57L17 57L17 56L19 56L19 57L21 57L21 58L20 58L20 59L19 59L19 58L16 58L16 59L15 59L15 58L14 58L14 59L15 59L15 60L16 60L16 64L17 64L17 65L15 65L15 66L14 66L14 65L13 65L13 66L14 66L14 67L13 67L13 68L14 68L14 67L16 67L16 66L17 66L17 65L18 65L18 64L19 64L19 65L20 65L20 64L22 64L22 67L23 67L23 65L29 65L29 64L31 64L31 65L32 65L32 66L33 66L33 65L32 65L32 64L31 64L31 63L32 63L32 62L31 62L31 63L27 63L27 64L26 64L26 63L24 63L24 64L22 64L22 63L23 63L23 61L25 61L25 62L26 62L26 52L27 52L27 51L28 51L28 50L29 50L29 52L31 52L31 51L32 51L32 54L30 54L30 53L27 53L27 55L28 55L28 56L27 56L27 57L28 57L28 58L29 58L29 59L28 59L28 60L30 60L30 59L32 59L32 58L33 58L33 60L34 60L34 58L35 58L35 60L37 60L37 63L40 63L40 62L41 62L41 60L39 60L39 58L40 58L40 59L41 59L41 58L40 58L40 57L41 57L41 56L42 56L42 57L44 57L44 54L45 54L45 53L46 53L46 54L47 54L47 56L49 56L49 57L48 57L48 59L49 59L49 60L50 60L50 59L51 59L51 60L52 60L52 63L54 63L54 61L53 61L53 60L54 60L54 59L53 59L53 57L54 57L54 56L55 56L55 57L56 57L56 58L55 58L55 61L56 61L56 60L58 60L58 62L57 62L57 64L58 64L58 63L59 63L59 61L60 61L60 59L63 59L63 60L64 60L64 59L65 59L65 58L67 58L67 55L64 55L64 54L63 54L63 53L62 53L62 55L64 55L64 58L63 58L63 56L62 56L62 57L61 57L61 55L59 55L59 57L58 57L58 55L57 55L57 53L58 53L58 54L60 54L60 53L61 53L61 52L62 52L62 51L63 51L63 49L62 49L62 48L59 48L59 47L58 47L58 46L59 46L59 45L61 45L61 46L60 46L60 47L61 47L61 46L62 46L62 43L61 43L61 42L62 42L62 40L63 40L63 39L64 39L64 40L65 40L65 39L64 39L64 38L65 38L65 37L68 37L68 35L67 35L67 34L66 34L66 35L65 35L65 37L63 37L63 38L62 38L62 40L61 40L61 41L60 41L60 40L59 40L59 37L60 37L60 39L61 39L61 37L60 37L60 36L59 36L59 35L60 35L60 34L59 34L59 32L61 32L61 31L63 31L63 32L66 32L66 33L68 33L68 31L64 31L64 30L62 30L62 28L61 28L61 27L63 27L63 28L64 28L64 27L63 27L63 26L64 26L64 25L65 25L65 24L64 24L64 22L65 22L65 20L64 20L64 22L63 22L63 23L62 23L62 12L59 12L59 9L58 9L58 8L59 8L59 7L58 7L58 6L57 6L57 7L58 7L58 8L57 8L57 9L56 9L56 8L52 8L52 9L56 9L56 10L57 10L57 11L58 11L58 12L57 12L57 13L58 13L58 14L57 14L57 15L56 15L56 13L55 13L55 10L53 10L53 11L52 11L52 10L51 10L51 12L50 12L50 13L51 13L51 12L52 12L52 14L51 14L51 15L50 15L50 16L49 16L49 18L48 18L48 20L49 20L49 21L48 21L48 22L47 22L47 21L46 21L46 22L47 22L47 25L46 25L46 26L47 26L47 27L43 27L43 26L41 26L41 25L42 25L42 24L43 24L43 25L44 25L44 24L45 24L45 23L44 23L44 20L46 20L46 18L47 18L47 17L48 17L48 15L47 15L47 17L46 17L46 15L45 15L45 17L46 17L46 18L45 18L45 19L44 19L44 18L41 18L41 17L42 17L42 16L40 16L40 19L39 19L39 18L38 18L38 17L39 17L39 16L38 16L38 15L37 15L37 14L36 14L36 13L37 13L37 12L38 12L38 13L39 13L39 15L42 15L42 13L43 13L43 14L44 14L44 12L42 12L42 10L41 10L41 9L43 9L43 11L46 11L46 14L47 14L47 11L46 11L46 10L47 10L47 8L49 8L49 7L48 7L48 6L47 6L47 8L45 8L45 7L44 7L44 6L43 6L43 8L40 8L40 9L39 9L39 11L37 11L37 12L36 12L36 13L33 13L33 15L32 15L32 14L31 14L31 15L30 15L30 13L29 13L29 12L28 12L28 11L29 11L29 10L30 10L30 9L31 9L31 8L32 8L32 6L31 6L31 5L32 5L32 4L31 4L31 3L29 3L29 2L28 2L28 1L27 1L27 3L26 3L26 4L25 4L25 2L26 2L26 1L25 1L25 2L24 2L24 4L25 4L25 7L24 7L24 6L23 6L23 5L22 5L22 3L21 3L21 2L20 2L20 1ZM41 1L41 2L42 2L42 1ZM55 1L55 2L54 2L54 3L55 3L55 2L56 2L56 1ZM18 2L18 3L19 3L19 4L20 4L20 7L21 7L21 3L19 3L19 2ZM43 2L43 3L41 3L41 4L43 4L43 5L44 5L44 4L45 4L45 3L44 3L44 2ZM27 3L27 4L26 4L26 7L27 7L27 5L28 5L28 4L29 4L29 3ZM43 3L43 4L44 4L44 3ZM60 3L60 5L61 5L61 3ZM30 4L30 5L29 5L29 6L28 6L28 8L26 8L26 9L25 9L25 8L24 8L24 9L23 9L23 10L22 10L22 11L24 11L24 12L23 12L23 13L20 13L20 14L22 14L22 15L23 15L23 17L22 17L22 18L23 18L23 17L24 17L24 18L25 18L25 21L23 21L23 23L24 23L24 24L22 24L22 23L21 23L21 24L20 24L20 23L18 23L18 25L13 25L13 24L15 24L15 21L16 21L16 22L17 22L17 21L16 21L16 20L15 20L15 21L14 21L14 19L13 19L13 18L12 18L12 19L13 19L13 21L14 21L14 22L12 22L12 23L13 23L13 24L12 24L12 25L11 25L11 26L15 26L15 27L16 27L16 26L18 26L18 28L17 28L17 29L18 29L18 30L16 30L16 28L14 28L14 27L12 27L12 28L14 28L14 30L16 30L16 31L18 31L18 30L19 30L19 32L18 32L18 33L17 33L17 34L18 34L18 35L17 35L17 36L16 36L16 33L15 33L15 31L14 31L14 32L13 32L13 34L10 34L10 36L11 36L11 35L15 35L15 36L12 36L12 37L11 37L11 38L12 38L12 39L13 39L13 37L15 37L15 38L14 38L14 39L15 39L15 41L16 41L16 40L17 40L17 42L16 42L16 43L15 43L15 44L16 44L16 45L17 45L17 46L18 46L18 47L17 47L17 49L18 49L18 50L19 50L19 49L22 49L22 51L23 51L23 52L24 52L24 53L23 53L23 54L24 54L24 55L23 55L23 56L22 56L22 55L21 55L21 57L24 57L24 58L25 58L25 56L24 56L24 55L25 55L25 52L26 52L26 51L25 51L25 49L26 49L26 50L27 50L27 49L28 49L28 47L29 47L29 49L30 49L30 51L31 51L31 49L33 49L33 51L34 51L34 52L35 52L35 50L36 50L36 49L35 49L35 50L34 50L34 48L35 48L35 47L36 47L36 48L37 48L37 49L38 49L38 50L39 50L39 51L37 51L37 52L36 52L36 53L35 53L35 55L36 55L36 54L37 54L37 53L38 53L38 52L39 52L39 53L40 53L40 52L41 52L41 53L42 53L42 55L43 55L43 54L44 54L44 53L45 53L45 50L46 50L46 51L47 51L47 50L46 50L46 49L45 49L45 48L47 48L47 47L48 47L48 50L49 50L49 49L50 49L50 52L46 52L46 53L48 53L48 54L49 54L49 55L50 55L50 54L52 54L52 52L53 52L53 53L54 53L54 55L56 55L56 57L57 57L57 58L58 58L58 60L59 60L59 59L60 59L60 58L61 58L61 57L60 57L60 58L58 58L58 57L57 57L57 55L56 55L56 53L57 53L57 52L56 52L56 53L55 53L55 51L52 51L52 52L51 52L51 50L55 50L55 48L53 48L53 47L57 47L57 48L56 48L56 50L58 50L58 52L61 52L61 51L62 51L62 49L61 49L61 50L60 50L60 49L59 49L59 50L58 50L58 49L57 49L57 48L58 48L58 47L57 47L57 46L58 46L58 44L56 44L56 46L55 46L55 45L54 45L54 43L55 43L55 41L54 41L54 39L53 39L53 38L55 38L55 39L56 39L56 42L58 42L58 43L59 43L59 44L61 44L61 43L60 43L60 42L58 42L58 41L57 41L57 39L58 39L58 37L59 37L59 36L58 36L58 37L57 37L57 36L56 36L56 35L55 35L55 34L56 34L56 33L57 33L57 34L58 34L58 35L59 35L59 34L58 34L58 33L57 33L57 31L58 31L58 32L59 32L59 31L60 31L60 30L61 30L61 29L59 29L59 28L58 28L58 25L57 25L57 24L59 24L59 23L60 23L60 24L61 24L61 25L59 25L59 27L61 27L61 25L62 25L62 26L63 26L63 25L64 25L64 24L63 24L63 25L62 25L62 23L61 23L61 21L60 21L60 20L61 20L61 19L60 19L60 18L61 18L61 16L58 16L58 17L57 17L57 16L56 16L56 15L55 15L55 13L53 13L53 14L52 14L52 16L50 16L50 19L51 19L51 20L50 20L50 22L51 22L51 23L52 23L52 24L50 24L50 23L48 23L48 25L47 25L47 26L49 26L49 25L50 25L50 27L51 27L51 29L50 29L50 28L49 28L49 27L47 27L47 30L48 30L48 29L50 29L50 30L49 30L49 31L46 31L46 28L44 28L44 29L43 29L43 28L42 28L42 27L40 27L40 24L41 24L41 23L43 23L43 20L42 20L42 21L41 21L41 23L40 23L40 22L39 22L39 23L40 23L40 24L36 24L36 25L35 25L35 23L34 23L34 22L33 22L33 21L34 21L34 20L35 20L35 22L37 22L37 21L38 21L38 20L39 20L39 21L40 21L40 20L39 20L39 19L37 19L37 21L36 21L36 20L35 20L35 19L36 19L36 17L38 17L38 16L36 16L36 15L35 15L35 14L34 14L34 15L33 15L33 17L34 17L34 18L32 18L32 19L29 19L29 18L28 18L28 19L26 19L26 18L27 18L27 17L28 17L28 16L29 16L29 17L30 17L30 18L31 18L31 17L32 17L32 15L31 15L31 16L30 16L30 15L28 15L28 12L27 12L27 11L28 11L28 10L27 10L27 9L30 9L30 8L31 8L31 6L30 6L30 5L31 5L31 4ZM8 5L8 7L9 7L9 5ZM33 5L33 8L36 8L36 5ZM37 5L37 7L38 7L38 5ZM55 5L55 7L56 7L56 5ZM22 6L22 8L23 8L23 6ZM29 6L29 7L30 7L30 6ZM34 6L34 7L35 7L35 6ZM51 6L51 7L50 7L50 8L51 8L51 7L52 7L52 6ZM53 6L53 7L54 7L54 6ZM37 8L37 10L38 10L38 8ZM44 8L44 9L45 9L45 10L46 10L46 9L45 9L45 8ZM4 9L4 10L3 10L3 13L2 13L2 14L3 14L3 15L4 15L4 14L3 14L3 13L4 13L4 12L7 12L7 11L5 11L5 9ZM16 9L16 11L15 11L15 12L14 12L14 14L13 14L13 15L12 15L12 16L14 16L14 15L15 15L15 14L16 14L16 13L17 13L17 15L18 15L18 13L17 13L17 9ZM24 9L24 10L25 10L25 9ZM35 9L35 11L36 11L36 9ZM49 9L49 11L50 11L50 9ZM65 9L65 10L67 10L67 9ZM26 10L26 11L25 11L25 13L26 13L26 14L25 14L25 15L26 15L26 16L27 16L27 13L26 13L26 11L27 11L27 10ZM32 10L32 11L31 11L31 13L32 13L32 12L33 12L33 11L34 11L34 10ZM40 10L40 11L39 11L39 13L40 13L40 14L41 14L41 10ZM53 11L53 12L54 12L54 11ZM65 11L65 12L64 12L64 13L63 13L63 15L64 15L64 13L65 13L65 16L64 16L64 17L63 17L63 19L64 19L64 17L66 17L66 16L67 16L67 13L65 13L65 12L68 12L68 11ZM15 12L15 13L16 13L16 12ZM58 12L58 13L59 13L59 14L58 14L58 15L60 15L60 14L61 14L61 13L59 13L59 12ZM1 15L1 16L2 16L2 17L1 17L1 18L2 18L2 19L1 19L1 20L2 20L2 21L3 21L3 22L5 22L5 21L4 21L4 20L2 20L2 19L5 19L5 18L3 18L3 17L4 17L4 16L2 16L2 15ZM43 15L43 17L44 17L44 15ZM53 15L53 16L52 16L52 17L51 17L51 18L52 18L52 17L53 17L53 16L55 16L55 17L56 17L56 19L55 19L55 20L53 20L53 19L52 19L52 21L51 21L51 22L52 22L52 21L55 21L55 22L54 22L54 24L52 24L52 26L53 26L53 25L55 25L55 26L54 26L54 27L55 27L55 30L56 30L56 31L57 31L57 29L58 29L58 31L59 31L59 29L58 29L58 28L57 28L57 27L55 27L55 26L56 26L56 24L57 24L57 21L58 21L58 22L60 22L60 21L59 21L59 20L57 20L57 19L58 19L58 18L59 18L59 17L58 17L58 18L57 18L57 17L56 17L56 16L55 16L55 15ZM24 16L24 17L25 17L25 18L26 18L26 17L25 17L25 16ZM34 16L34 17L35 17L35 16ZM22 19L22 20L24 20L24 19ZM32 19L32 20L34 20L34 19ZM28 20L28 22L27 22L27 21L25 21L25 22L24 22L24 23L25 23L25 22L27 22L27 23L26 23L26 24L25 24L25 26L24 26L24 25L21 25L21 26L22 26L22 27L20 27L20 25L18 25L18 26L19 26L19 27L20 27L20 29L19 29L19 30L20 30L20 29L21 29L21 28L22 28L22 29L26 29L26 28L28 28L28 26L29 26L29 27L33 27L33 28L32 28L32 29L27 29L27 30L29 30L29 31L28 31L28 32L26 32L26 31L25 31L25 33L29 33L29 34L28 34L28 35L27 35L27 34L24 34L24 35L23 35L23 34L20 34L20 35L19 35L19 36L21 36L21 35L22 35L22 37L21 37L21 38L23 38L23 37L25 37L25 39L24 39L24 40L22 40L22 39L21 39L21 41L22 41L22 42L21 42L21 43L19 43L19 42L20 42L20 37L16 37L16 36L15 36L15 37L16 37L16 38L15 38L15 39L18 39L18 40L19 40L19 41L18 41L18 42L17 42L17 44L18 44L18 43L19 43L19 44L20 44L20 45L19 45L19 48L18 48L18 49L19 49L19 48L20 48L20 45L21 45L21 44L22 44L22 47L23 47L23 44L24 44L24 43L22 43L22 42L23 42L23 41L24 41L24 42L26 42L26 38L27 38L27 37L25 37L25 35L26 35L26 36L28 36L28 38L29 38L29 39L30 39L30 37L29 37L29 36L30 36L30 35L29 35L29 34L31 34L31 35L32 35L32 34L31 34L31 33L29 33L29 31L30 31L30 30L31 30L31 31L32 31L32 32L37 32L37 33L38 33L38 32L37 32L37 30L34 30L34 31L33 31L33 28L34 28L34 29L36 29L36 28L38 28L38 29L40 29L40 30L42 30L42 28L40 28L40 27L37 27L37 26L38 26L38 25L37 25L37 26L36 26L36 27L35 27L35 25L34 25L34 23L32 23L32 24L33 24L33 25L32 25L32 26L29 26L29 25L30 25L30 24L31 24L31 22L32 22L32 21L29 21L29 20ZM56 20L56 21L57 21L57 20ZM1 22L1 23L2 23L2 22ZM28 22L28 23L27 23L27 24L26 24L26 25L27 25L27 26L26 26L26 27L25 27L25 28L26 28L26 27L27 27L27 26L28 26L28 25L27 25L27 24L28 24L28 23L30 23L30 22ZM55 22L55 23L56 23L56 22ZM16 23L16 24L17 24L17 23ZM4 24L4 25L5 25L5 26L6 26L6 27L7 27L7 28L8 28L8 26L6 26L6 25L8 25L8 24L6 24L6 25L5 25L5 24ZM33 26L33 27L34 27L34 28L35 28L35 27L34 27L34 26ZM22 27L22 28L24 28L24 27ZM0 28L0 32L1 32L1 31L2 31L2 29L1 29L1 28ZM52 28L52 30L50 30L50 31L49 31L49 32L50 32L50 33L49 33L49 34L48 34L48 33L46 33L46 32L45 32L45 33L44 33L44 31L40 31L40 33L44 33L44 34L43 34L43 36L42 36L42 35L41 35L41 34L39 34L39 35L37 35L37 37L32 37L32 38L31 38L31 40L30 40L30 41L29 41L29 40L28 40L28 39L27 39L27 40L28 40L28 42L27 42L27 43L26 43L26 44L25 44L25 45L26 45L26 46L24 46L24 47L26 47L26 48L27 48L27 47L28 47L28 46L29 46L29 47L30 47L30 48L34 48L34 47L35 47L35 46L36 46L36 47L37 47L37 48L38 48L38 49L39 49L39 47L41 47L41 48L40 48L40 51L41 51L41 52L43 52L43 53L44 53L44 51L43 51L43 50L42 50L42 51L41 51L41 49L42 49L42 45L41 45L41 46L40 46L40 45L39 45L39 47L38 47L38 43L41 43L41 44L43 44L43 46L44 46L44 48L43 48L43 49L44 49L44 50L45 50L45 49L44 49L44 48L45 48L45 46L44 46L44 40L45 40L45 39L43 39L43 38L45 38L45 37L46 37L46 42L45 42L45 45L46 45L46 46L47 46L47 45L46 45L46 44L48 44L48 43L49 43L49 46L50 46L50 44L51 44L51 43L50 43L50 41L51 41L51 42L52 42L52 43L54 43L54 42L52 42L52 41L53 41L53 39L52 39L52 38L53 38L53 37L54 37L54 36L55 36L55 37L56 37L56 36L55 36L55 35L54 35L54 33L55 33L55 31L53 31L53 28ZM56 28L56 29L57 29L57 28ZM3 29L3 30L4 30L4 29ZM44 29L44 30L45 30L45 29ZM22 30L22 31L21 31L21 32L22 32L22 33L24 33L24 32L23 32L23 30ZM50 31L50 32L51 32L51 33L50 33L50 35L49 35L49 36L48 36L48 34L46 34L46 33L45 33L45 34L44 34L44 37L45 37L45 34L46 34L46 37L49 37L49 36L50 36L50 38L47 38L47 41L50 41L50 40L51 40L51 37L52 37L52 36L53 36L53 33L54 33L54 32L53 32L53 31L52 31L52 32L51 32L51 31ZM19 32L19 33L20 33L20 32ZM52 32L52 33L51 33L51 35L52 35L52 33L53 33L53 32ZM5 33L5 36L8 36L8 33ZM14 33L14 34L15 34L15 33ZM33 33L33 36L36 36L36 33ZM61 33L61 36L64 36L64 33ZM1 34L1 35L3 35L3 34ZM6 34L6 35L7 35L7 34ZM34 34L34 35L35 35L35 34ZM62 34L62 35L63 35L63 34ZM39 35L39 36L38 36L38 37L37 37L37 39L38 39L38 40L37 40L37 41L36 41L36 40L35 40L35 43L34 43L34 44L35 44L35 43L37 43L37 41L38 41L38 42L43 42L43 39L41 39L41 38L43 38L43 37L40 37L40 35ZM3 36L3 37L4 37L4 36ZM5 37L5 38L7 38L7 37ZM39 37L39 38L38 38L38 39L40 39L40 41L41 41L41 39L40 39L40 37ZM8 38L8 39L9 39L9 38ZM32 38L32 40L31 40L31 41L30 41L30 43L29 43L29 44L26 44L26 45L29 45L29 46L30 46L30 47L31 47L31 46L32 46L32 47L34 47L34 46L35 46L35 45L31 45L31 44L30 44L30 43L31 43L31 41L33 41L33 42L32 42L32 44L33 44L33 42L34 42L34 39L36 39L36 38L34 38L34 39L33 39L33 38ZM56 38L56 39L57 39L57 38ZM3 39L3 40L4 40L4 39ZM6 39L6 40L7 40L7 39ZM48 39L48 40L49 40L49 39ZM24 40L24 41L25 41L25 40ZM38 40L38 41L39 41L39 40ZM6 42L6 43L7 43L7 42ZM8 43L8 44L9 44L9 45L10 45L10 46L9 46L9 47L8 47L8 48L9 48L9 49L10 49L10 50L9 50L9 52L5 52L5 51L7 51L7 50L8 50L8 49L7 49L7 48L5 48L5 49L4 49L4 48L3 48L3 46L4 46L4 45L7 45L7 46L6 46L6 47L7 47L7 46L8 46L8 45L7 45L7 44L0 44L0 45L1 45L1 46L2 46L2 47L0 47L0 49L1 49L1 50L0 50L0 51L1 51L1 50L3 50L3 52L2 52L2 53L1 53L1 52L0 52L0 54L2 54L2 55L0 55L0 57L1 57L1 58L0 58L0 61L1 61L1 58L2 58L2 59L3 59L3 58L2 58L2 57L4 57L4 59L7 59L7 58L8 58L8 57L7 57L7 56L8 56L8 55L10 55L10 54L8 54L8 53L9 53L9 52L10 52L10 53L13 53L13 52L12 52L12 51L11 51L11 48L12 48L12 47L10 47L10 46L11 46L11 45L10 45L10 44L9 44L9 43ZM36 44L36 46L37 46L37 44ZM52 44L52 45L51 45L51 47L50 47L50 48L51 48L51 47L52 47L52 46L53 46L53 44ZM30 45L30 46L31 46L31 45ZM9 47L9 48L10 48L10 47ZM1 48L1 49L3 49L3 50L4 50L4 51L5 51L5 50L7 50L7 49L5 49L5 50L4 50L4 49L3 49L3 48ZM22 48L22 49L24 49L24 48ZM52 48L52 49L53 49L53 48ZM14 49L14 50L15 50L15 49ZM20 50L20 51L19 51L19 52L18 52L18 53L17 53L17 55L19 55L19 54L18 54L18 53L19 53L19 52L20 52L20 54L22 54L22 52L21 52L21 50ZM59 50L59 51L60 51L60 50ZM24 51L24 52L25 52L25 51ZM50 52L50 53L49 53L49 54L50 54L50 53L51 53L51 52ZM3 53L3 55L2 55L2 56L4 56L4 57L6 57L6 58L7 58L7 57L6 57L6 56L7 56L7 55L5 55L5 56L4 56L4 53ZM5 53L5 54L7 54L7 53ZM33 53L33 55L31 55L31 56L30 56L30 57L29 57L29 58L31 58L31 57L33 57L33 58L34 58L34 53ZM28 54L28 55L30 55L30 54ZM40 54L40 55L37 55L37 56L35 56L35 58L36 58L36 59L37 59L37 58L36 58L36 57L37 57L37 56L38 56L38 58L39 58L39 57L40 57L40 55L41 55L41 54ZM51 55L51 57L50 57L50 58L49 58L49 59L50 59L50 58L51 58L51 59L52 59L52 60L53 60L53 59L52 59L52 58L51 58L51 57L52 57L52 56L53 56L53 55ZM46 57L46 58L47 58L47 57ZM21 58L21 59L20 59L20 60L19 60L19 59L17 59L17 61L20 61L20 62L19 62L19 64L20 64L20 63L21 63L21 62L22 62L22 59L23 59L23 60L24 60L24 59L23 59L23 58ZM42 58L42 61L44 61L44 60L45 60L45 61L46 61L46 62L47 62L47 61L46 61L46 60L45 60L45 58ZM43 59L43 60L44 60L44 59ZM3 60L3 61L5 61L5 60ZM38 60L38 62L39 62L39 60ZM28 61L28 62L30 62L30 61ZM33 61L33 64L36 64L36 61ZM49 61L49 64L50 64L50 65L51 65L51 66L50 66L50 68L51 68L51 67L54 67L54 68L55 68L55 66L52 66L52 65L55 65L55 64L52 64L52 65L51 65L51 64L50 64L50 63L51 63L51 62L50 62L50 61ZM61 61L61 64L64 64L64 61ZM17 62L17 63L18 63L18 62ZM34 62L34 63L35 63L35 62ZM42 62L42 63L43 63L43 62ZM55 62L55 63L56 63L56 62ZM62 62L62 63L63 63L63 62ZM66 62L66 63L65 63L65 65L66 65L66 66L67 66L67 64L68 64L68 63L67 63L67 62ZM47 63L47 64L48 64L48 63ZM37 64L37 65L38 65L38 64ZM34 65L34 66L35 66L35 65ZM61 65L61 66L62 66L62 65ZM18 66L18 67L19 67L19 66ZM9 67L9 68L10 68L10 67ZM32 67L32 68L34 68L34 67ZM25 68L25 69L27 69L27 68ZM36 68L36 69L37 69L37 68ZM65 68L65 69L67 69L67 68ZM68 68L68 69L69 69L69 68ZM0 0L0 7L7 7L7 0ZM1 1L1 6L6 6L6 1ZM2 2L2 5L5 5L5 2ZM62 0L62 7L69 7L69 0ZM63 1L63 6L68 6L68 1ZM64 2L64 5L67 5L67 2ZM0 62L0 69L7 69L7 62ZM1 63L1 68L6 68L6 63ZM2 64L2 67L5 67L5 64Z" fill="#000000"/></g></g></svg>
