<?xml version="1.0" encoding="UTF-8"?>
<svg xmlns="http://www.w3.org/2000/svg" version="1.1" width="300" height="300" viewBox="0 0 300 300"><rect x="0" y="0" width="300" height="300" fill="#ffffff"/><g transform="scale(4.348)"><g transform="translate(0,0)"><path fill-rule="evenodd" d="M11 0L11 2L10 2L10 8L11 8L11 10L9 10L9 9L8 9L8 8L9 8L9 4L8 4L8 8L6 8L6 9L4 9L4 8L3 8L3 9L2 9L2 8L0 8L0 11L1 11L1 9L2 9L2 13L1 13L1 12L0 12L0 13L1 13L1 15L0 15L0 18L1 18L1 19L0 19L0 21L1 21L1 22L0 22L0 24L1 24L1 23L2 23L2 24L4 24L4 23L2 23L2 21L4 21L4 20L6 20L6 21L7 21L7 22L6 22L6 23L7 23L7 22L9 22L9 23L11 23L11 22L9 22L9 21L12 21L12 23L14 23L14 22L13 22L13 21L14 21L14 17L15 17L15 16L14 16L14 15L13 15L13 14L12 14L12 15L10 15L10 13L12 13L12 11L11 11L11 10L13 10L13 12L14 12L14 13L15 13L15 14L16 14L16 17L18 17L18 16L19 16L19 17L22 17L22 19L19 19L19 20L18 20L18 19L17 19L17 20L16 20L16 18L15 18L15 21L16 21L16 22L17 22L17 23L15 23L15 24L16 24L16 25L17 25L17 27L16 27L16 28L17 28L17 27L18 27L18 25L20 25L20 24L21 24L21 26L24 26L24 27L23 27L23 28L24 28L24 27L25 27L25 26L24 26L24 25L27 25L27 24L30 24L30 25L31 25L31 26L29 26L29 25L28 25L28 26L27 26L27 28L26 28L26 30L24 30L24 29L22 29L22 28L21 28L21 27L20 27L20 26L19 26L19 28L18 28L18 29L17 29L17 30L18 30L18 31L19 31L19 28L20 28L20 30L21 30L21 29L22 29L22 30L23 30L23 31L24 31L24 32L22 32L22 31L21 31L21 34L20 34L20 32L17 32L17 31L15 31L15 29L14 29L14 27L13 27L13 28L12 28L12 26L13 26L13 25L14 25L14 26L15 26L15 25L14 25L14 24L12 24L12 25L11 25L11 26L10 26L10 24L9 24L9 26L8 26L8 24L6 24L6 25L4 25L4 27L3 27L3 28L4 28L4 30L5 30L5 32L3 32L3 33L2 33L2 35L1 35L1 36L0 36L0 37L1 37L1 38L0 38L0 40L2 40L2 42L1 42L1 41L0 41L0 43L1 43L1 45L0 45L0 48L1 48L1 49L3 49L3 48L4 48L4 52L3 52L3 53L4 53L4 54L3 54L3 56L6 56L6 57L2 57L2 54L1 54L1 53L2 53L2 52L1 52L1 51L2 51L2 50L0 50L0 55L1 55L1 56L0 56L0 61L1 61L1 58L2 58L2 59L3 59L3 58L4 58L4 59L7 59L7 60L6 60L6 61L8 61L8 63L9 63L9 62L10 62L10 63L12 63L12 65L11 65L11 64L10 64L10 65L8 65L8 66L9 66L9 67L8 67L8 69L9 69L9 67L10 67L10 65L11 65L11 67L13 67L13 68L12 68L12 69L14 69L14 68L15 68L15 69L17 69L17 67L21 67L21 68L20 68L20 69L24 69L24 68L25 68L25 69L26 69L26 66L27 66L27 65L25 65L25 64L29 64L29 65L28 65L28 66L29 66L29 67L30 67L30 69L32 69L32 65L33 65L33 68L35 68L35 69L38 69L38 68L35 68L35 67L36 67L36 66L35 66L35 67L34 67L34 65L38 65L38 66L39 66L39 69L42 69L42 68L41 68L41 67L40 67L40 66L39 66L39 65L40 65L40 64L41 64L41 66L42 66L42 65L43 65L43 64L44 64L44 66L45 66L45 67L44 67L44 68L43 68L43 69L44 69L44 68L45 68L45 69L47 69L47 68L46 68L46 65L45 65L45 63L47 63L47 65L49 65L49 64L50 64L50 63L49 63L49 64L48 64L48 62L47 62L47 61L49 61L49 62L50 62L50 61L51 61L51 63L53 63L53 67L52 67L52 64L51 64L51 65L50 65L50 67L48 67L48 66L47 66L47 67L48 67L48 69L50 69L50 68L51 68L51 69L56 69L56 68L55 68L55 67L58 67L58 68L60 68L60 69L61 69L61 68L62 68L62 67L61 67L61 66L63 66L63 69L64 69L64 67L67 67L67 66L68 66L68 67L69 67L69 63L68 63L68 64L67 64L67 66L66 66L66 65L65 65L65 63L67 63L67 62L69 62L69 56L68 56L68 55L69 55L69 54L67 54L67 53L69 53L69 52L65 52L65 54L63 54L63 51L64 51L64 50L65 50L65 51L68 51L68 50L69 50L69 46L68 46L68 43L69 43L69 41L68 41L68 38L67 38L67 37L69 37L69 36L68 36L68 35L69 35L69 30L68 30L68 29L69 29L69 27L68 27L68 26L69 26L69 25L68 25L68 23L69 23L69 21L68 21L68 19L69 19L69 18L67 18L67 20L65 20L65 17L64 17L64 15L65 15L65 14L66 14L66 15L68 15L68 16L69 16L69 15L68 15L68 14L69 14L69 9L68 9L68 8L66 8L66 9L65 9L65 8L62 8L62 9L65 9L65 10L68 10L68 11L67 11L67 12L66 12L66 11L64 11L64 10L62 10L62 11L59 11L59 10L58 10L58 8L61 8L61 6L60 6L60 7L59 7L59 4L57 4L57 6L56 6L56 7L55 7L55 6L54 6L54 7L55 7L55 9L56 9L56 7L57 7L57 12L56 12L56 10L53 10L53 5L56 5L56 4L53 4L53 5L51 5L51 4L50 4L50 3L51 3L51 2L48 2L48 3L49 3L49 4L50 4L50 7L49 7L49 6L48 6L48 5L47 5L47 6L46 6L46 3L47 3L47 2L46 2L46 1L47 1L47 0L45 0L45 2L44 2L44 3L45 3L45 4L44 4L44 5L43 5L43 4L42 4L42 3L43 3L43 2L42 2L42 1L43 1L43 0L38 0L38 1L37 1L37 0L34 0L34 2L33 2L33 3L31 3L31 2L32 2L32 1L33 1L33 0L30 0L30 3L31 3L31 4L30 4L30 5L29 5L29 6L28 6L28 4L29 4L29 3L28 3L28 0L26 0L26 3L27 3L27 4L26 4L26 5L25 5L25 4L24 4L24 3L25 3L25 2L24 2L24 1L25 1L25 0L22 0L22 2L21 2L21 3L19 3L19 2L20 2L20 1L21 1L21 0L20 0L20 1L19 1L19 0L15 0L15 1L14 1L14 0L13 0L13 2L12 2L12 0ZM48 0L48 1L51 1L51 0ZM53 0L53 1L52 1L52 3L54 3L54 1L55 1L55 0ZM57 0L57 1L56 1L56 3L57 3L57 2L58 2L58 3L59 3L59 2L58 2L58 1L61 1L61 0ZM8 1L8 3L9 3L9 1ZM17 1L17 4L16 4L16 3L15 3L15 2L13 2L13 4L14 4L14 3L15 3L15 5L17 5L17 4L18 4L18 6L17 6L17 8L14 8L14 9L13 9L13 8L12 8L12 6L11 6L11 8L12 8L12 9L13 9L13 10L14 10L14 12L16 12L16 14L17 14L17 15L19 15L19 16L21 16L21 13L20 13L20 14L19 14L19 13L17 13L17 11L19 11L19 10L22 10L22 11L21 11L21 12L23 12L23 11L25 11L25 13L23 13L23 14L22 14L22 17L23 17L23 16L24 16L24 18L23 18L23 19L22 19L22 20L25 20L25 21L22 21L22 22L23 22L23 24L22 24L22 25L23 25L23 24L26 24L26 21L27 21L27 22L28 22L28 23L30 23L30 24L31 24L31 25L32 25L32 26L31 26L31 28L32 28L32 29L31 29L31 31L32 31L32 32L31 32L31 33L30 33L30 31L29 31L29 33L30 33L30 34L29 34L29 35L30 35L30 36L31 36L31 37L30 37L30 38L28 38L28 37L27 37L27 38L26 38L26 40L25 40L25 41L26 41L26 40L27 40L27 38L28 38L28 39L31 39L31 40L30 40L30 41L28 41L28 42L23 42L23 41L24 41L24 40L23 40L23 39L24 39L24 38L25 38L25 37L26 37L26 36L25 36L25 35L26 35L26 34L27 34L27 36L28 36L28 32L27 32L27 33L26 33L26 34L25 34L25 32L26 32L26 31L28 31L28 30L30 30L30 29L29 29L29 26L28 26L28 28L27 28L27 30L26 30L26 31L25 31L25 32L24 32L24 33L22 33L22 34L23 34L23 35L24 35L24 38L23 38L23 39L22 39L22 37L20 37L20 39L19 39L19 41L18 41L18 42L17 42L17 39L18 39L18 38L19 38L19 37L17 37L17 38L16 38L16 37L15 37L15 36L16 36L16 35L17 35L17 36L19 36L19 35L20 35L20 34L19 34L19 33L17 33L17 32L16 32L16 35L15 35L15 36L14 36L14 35L13 35L13 34L10 34L10 33L11 33L11 32L10 32L10 33L9 33L9 36L10 36L10 35L13 35L13 36L12 36L12 39L9 39L9 38L11 38L11 37L5 37L5 38L8 38L8 39L6 39L6 40L7 40L7 41L5 41L5 40L4 40L4 39L3 39L3 38L4 38L4 35L3 35L3 38L1 38L1 39L2 39L2 40L4 40L4 41L3 41L3 42L2 42L2 44L3 44L3 45L4 45L4 48L5 48L5 49L6 49L6 50L5 50L5 53L6 53L6 54L4 54L4 55L6 55L6 56L7 56L7 57L6 57L6 58L7 58L7 59L8 59L8 60L9 60L9 59L10 59L10 58L9 58L9 56L8 56L8 54L9 54L9 55L10 55L10 57L11 57L11 59L12 59L12 60L11 60L11 62L12 62L12 63L13 63L13 61L15 61L15 62L14 62L14 64L13 64L13 67L15 67L15 68L16 68L16 67L17 67L17 65L18 65L18 66L19 66L19 65L20 65L20 63L21 63L21 64L22 64L22 65L23 65L23 64L22 64L22 63L21 63L21 61L20 61L20 62L19 62L19 63L16 63L16 64L15 64L15 62L16 62L16 56L15 56L15 57L14 57L14 56L11 56L11 54L12 54L12 55L14 55L14 54L15 54L15 55L18 55L18 56L17 56L17 59L18 59L18 60L17 60L17 62L18 62L18 60L19 60L19 59L21 59L21 60L23 60L23 61L22 61L22 62L26 62L26 61L25 61L25 59L23 59L23 57L24 57L24 58L25 58L25 57L24 57L24 55L25 55L25 56L26 56L26 60L27 60L27 63L29 63L29 62L30 62L30 64L31 64L31 65L32 65L32 61L29 61L29 60L30 60L30 59L29 59L29 58L31 58L31 57L32 57L32 55L33 55L33 56L35 56L35 57L34 57L34 60L35 60L35 59L36 59L36 60L37 60L37 61L38 61L38 63L39 63L39 61L40 61L40 60L42 60L42 61L41 61L41 62L43 62L43 63L45 63L45 62L46 62L46 61L47 61L47 60L48 60L48 59L49 59L49 58L50 58L50 59L51 59L51 61L52 61L52 59L54 59L54 60L53 60L53 62L54 62L54 64L56 64L56 63L55 63L55 62L57 62L57 66L61 66L61 65L60 65L60 64L59 64L59 62L58 62L58 61L60 61L60 60L59 60L59 58L61 58L61 59L62 59L62 58L63 58L63 59L64 59L64 58L65 58L65 59L66 59L66 60L65 60L65 62L67 62L67 59L68 59L68 58L66 58L66 57L65 57L65 56L67 56L67 57L68 57L68 56L67 56L67 54L65 54L65 55L64 55L64 56L62 56L62 57L57 57L57 55L56 55L56 54L59 54L59 55L58 55L58 56L61 56L61 55L62 55L62 54L59 54L59 53L61 53L61 52L62 52L62 51L63 51L63 50L64 50L64 49L65 49L65 50L67 50L67 49L68 49L68 46L67 46L67 45L66 45L66 46L65 46L65 45L63 45L63 43L62 43L62 44L61 44L61 42L63 42L63 40L62 40L62 39L63 39L63 37L60 37L60 35L58 35L58 34L59 34L59 32L61 32L61 31L63 31L63 32L65 32L65 35L66 35L66 36L65 36L65 38L66 38L66 39L65 39L65 41L64 41L64 43L65 43L65 44L67 44L67 42L68 42L68 41L67 41L67 38L66 38L66 37L67 37L67 35L68 35L68 34L67 34L67 33L68 33L68 31L67 31L67 30L66 30L66 29L68 29L68 27L66 27L66 26L67 26L67 25L66 25L66 24L67 24L67 23L68 23L68 21L67 21L67 23L66 23L66 24L65 24L65 22L66 22L66 21L64 21L64 22L63 22L63 21L62 21L62 19L63 19L63 20L64 20L64 19L63 19L63 18L62 18L62 16L61 16L61 17L60 17L60 19L57 19L57 20L56 20L56 19L55 19L55 17L56 17L56 18L59 18L59 15L58 15L58 16L57 16L57 15L56 15L56 13L54 13L54 11L53 11L53 14L52 14L52 13L50 13L50 14L52 14L52 15L51 15L51 16L50 16L50 15L49 15L49 13L47 13L47 14L48 14L48 15L46 15L46 13L44 13L44 12L45 12L45 11L43 11L43 10L44 10L44 9L45 9L45 10L46 10L46 12L48 12L48 11L49 11L49 12L51 12L51 11L50 11L50 10L52 10L52 9L51 9L51 8L52 8L52 6L51 6L51 7L50 7L50 8L49 8L49 7L48 7L48 6L47 6L47 9L46 9L46 8L45 8L45 7L46 7L46 6L45 6L45 5L44 5L44 6L43 6L43 8L42 8L42 9L40 9L40 17L39 17L39 19L41 19L41 21L39 21L39 22L40 22L40 23L39 23L39 24L41 24L41 26L40 26L40 25L38 25L38 26L39 26L39 28L37 28L37 27L35 27L35 26L37 26L37 24L36 24L36 23L35 23L35 22L38 22L38 20L37 20L37 21L36 21L36 20L35 20L35 22L34 22L34 21L33 21L33 20L34 20L34 19L35 19L35 18L36 18L36 17L37 17L37 19L38 19L38 17L37 17L37 16L39 16L39 15L38 15L38 14L39 14L39 12L38 12L38 11L39 11L39 9L38 9L38 10L37 10L37 9L36 9L36 11L33 11L33 12L34 12L34 13L35 13L35 12L36 12L36 13L37 13L37 12L38 12L38 14L37 14L37 16L35 16L35 15L36 15L36 14L35 14L35 15L34 15L34 17L32 17L32 16L33 16L33 15L32 15L32 14L33 14L33 13L31 13L31 14L30 14L30 10L31 10L31 11L32 11L32 10L31 10L31 9L32 9L32 8L28 8L28 6L27 6L27 8L26 8L26 6L25 6L25 5L24 5L24 6L23 6L23 5L22 5L22 6L21 6L21 7L20 7L20 6L19 6L19 5L20 5L20 4L19 4L19 3L18 3L18 2L19 2L19 1ZM35 1L35 2L36 2L36 4L39 4L39 7L40 7L40 8L41 8L41 7L42 7L42 5L40 5L40 4L41 4L41 3L42 3L42 2L41 2L41 1L40 1L40 2L41 2L41 3L39 3L39 2L37 2L37 1ZM11 2L11 4L12 4L12 2ZM23 2L23 3L22 3L22 4L23 4L23 3L24 3L24 2ZM34 3L34 4L35 4L35 3ZM60 3L60 5L61 5L61 3ZM31 4L31 5L32 5L32 4ZM33 5L33 8L36 8L36 5ZM37 5L37 8L38 8L38 5ZM13 6L13 7L14 7L14 6ZM15 6L15 7L16 7L16 6ZM18 6L18 9L20 9L20 7L19 7L19 6ZM22 6L22 9L24 9L24 10L25 10L25 11L26 11L26 10L27 10L27 9L28 9L28 8L27 8L27 9L26 9L26 8L25 8L25 6L24 6L24 8L23 8L23 6ZM29 6L29 7L30 7L30 6ZM31 6L31 7L32 7L32 6ZM34 6L34 7L35 7L35 6ZM40 6L40 7L41 7L41 6ZM44 6L44 7L45 7L45 6ZM57 6L57 7L58 7L58 6ZM43 8L43 9L44 9L44 8ZM48 8L48 9L49 9L49 8ZM6 9L6 10L8 10L8 9ZM14 9L14 10L16 10L16 9ZM29 9L29 10L30 10L30 9ZM3 10L3 11L4 11L4 10ZM41 10L41 12L43 12L43 11L42 11L42 10ZM6 11L6 12L5 12L5 13L4 13L4 12L3 12L3 13L4 13L4 15L3 15L3 14L2 14L2 15L1 15L1 16L4 16L4 17L5 17L5 16L8 16L8 18L7 18L7 17L6 17L6 18L7 18L7 19L6 19L6 20L7 20L7 19L10 19L10 20L12 20L12 18L13 18L13 17L14 17L14 16L13 16L13 15L12 15L12 16L10 16L10 17L9 17L9 14L8 14L8 15L5 15L5 14L7 14L7 13L10 13L10 12L11 12L11 11L8 11L8 12L7 12L7 11ZM28 11L28 12L26 12L26 13L25 13L25 14L24 14L24 16L25 16L25 17L26 17L26 18L24 18L24 19L25 19L25 20L26 20L26 19L27 19L27 21L29 21L29 22L30 22L30 23L31 23L31 21L32 21L32 20L31 20L31 19L32 19L32 18L30 18L30 17L31 17L31 15L30 15L30 14L29 14L29 11ZM36 11L36 12L37 12L37 11ZM62 11L62 12L64 12L64 11ZM6 12L6 13L7 13L7 12ZM57 12L57 14L58 14L58 12ZM59 12L59 14L61 14L61 12ZM67 12L67 14L68 14L68 12ZM27 13L27 14L25 14L25 16L27 16L27 15L28 15L28 13ZM41 13L41 14L42 14L42 13ZM62 13L62 15L64 15L64 14L63 14L63 13ZM54 14L54 15L55 15L55 14ZM4 15L4 16L5 16L5 15ZM41 15L41 16L42 16L42 17L41 17L41 19L43 19L43 18L45 18L45 15ZM28 16L28 18L29 18L29 16ZM43 16L43 17L42 17L42 18L43 18L43 17L44 17L44 16ZM47 16L47 17L48 17L48 18L49 18L49 16ZM51 16L51 17L50 17L50 19L51 19L51 18L53 18L53 19L54 19L54 21L56 21L56 20L55 20L55 19L54 19L54 17L55 17L55 16L53 16L53 17L52 17L52 16ZM56 16L56 17L57 17L57 16ZM66 16L66 17L67 17L67 16ZM1 17L1 18L2 18L2 17ZM11 17L11 18L12 18L12 17ZM46 18L46 20L45 20L45 21L46 21L46 20L47 20L47 18ZM2 19L2 20L4 20L4 19ZM60 19L60 20L61 20L61 19ZM17 20L17 22L18 22L18 20ZM19 20L19 22L21 22L21 21L20 21L20 20ZM29 20L29 21L30 21L30 20ZM42 20L42 21L44 21L44 20ZM48 20L48 22L47 22L47 24L48 24L48 25L51 25L51 26L48 26L48 27L47 27L47 25L46 25L46 23L44 23L44 22L41 22L41 24L42 24L42 25L46 25L46 28L45 28L45 26L42 26L42 27L41 27L41 28L42 28L42 29L43 29L43 30L45 30L45 31L44 31L44 32L43 32L43 36L42 36L42 35L41 35L41 33L42 33L42 32L40 32L40 31L41 31L41 30L40 30L40 31L39 31L39 29L38 29L38 30L37 30L37 28L36 28L36 29L34 29L34 30L35 30L35 31L37 31L37 32L32 32L32 34L31 34L31 36L32 36L32 38L33 38L33 39L32 39L32 40L31 40L31 41L32 41L32 42L33 42L33 43L31 43L31 44L30 44L30 43L29 43L29 42L28 42L28 44L27 44L27 45L26 45L26 43L24 43L24 44L22 44L22 43L23 43L23 42L21 42L21 39L20 39L20 42L21 42L21 44L20 44L20 43L19 43L19 42L18 42L18 43L17 43L17 42L16 42L16 39L15 39L15 42L14 42L14 41L13 41L13 40L14 40L14 39L13 39L13 40L12 40L12 41L11 41L11 40L10 40L10 41L9 41L9 43L8 43L8 44L9 44L9 45L10 45L10 44L11 44L11 43L10 43L10 41L11 41L11 42L12 42L12 41L13 41L13 43L14 43L14 44L12 44L12 45L13 45L13 46L14 46L14 44L15 44L15 47L11 47L11 46L10 46L10 47L11 47L11 48L10 48L10 49L11 49L11 50L13 50L13 51L14 51L14 50L15 50L15 49L14 49L14 48L15 48L15 47L16 47L16 50L18 50L18 51L15 51L15 52L10 52L10 51L9 51L9 49L8 49L8 47L9 47L9 46L8 46L8 45L7 45L7 44L6 44L6 45L5 45L5 47L7 47L7 48L6 48L6 49L8 49L8 50L6 50L6 51L7 51L7 52L6 52L6 53L7 53L7 54L6 54L6 55L7 55L7 54L8 54L8 53L9 53L9 54L10 54L10 53L13 53L13 54L14 54L14 53L20 53L20 56L21 56L21 59L22 59L22 54L24 54L24 53L25 53L25 54L26 54L26 56L27 56L27 52L28 52L28 53L31 53L31 54L30 54L30 55L31 55L31 54L32 54L32 51L33 51L33 50L32 50L32 49L31 49L31 48L33 48L33 47L35 47L35 48L34 48L34 49L35 49L35 48L38 48L38 47L37 47L37 46L38 46L38 44L34 44L34 43L35 43L35 42L36 42L36 41L35 41L35 42L34 42L34 40L35 40L35 37L36 37L36 39L38 39L38 38L37 38L37 37L39 37L39 35L40 35L40 37L41 37L41 38L39 38L39 41L38 41L38 40L37 40L37 41L38 41L38 42L37 42L37 43L39 43L39 49L40 49L40 50L41 50L41 53L43 53L43 54L44 54L44 53L45 53L45 51L46 51L46 53L47 53L47 54L46 54L46 55L44 55L44 56L43 56L43 58L42 58L42 59L43 59L43 62L44 62L44 61L45 61L45 60L46 60L46 59L45 59L45 58L44 58L44 56L45 56L45 57L46 57L46 56L48 56L48 58L47 58L47 59L48 59L48 58L49 58L49 56L50 56L50 55L51 55L51 53L52 53L52 52L50 52L50 55L49 55L49 56L48 56L48 55L47 55L47 54L48 54L48 53L49 53L49 52L47 52L47 51L51 51L51 50L50 50L50 49L58 49L58 51L57 51L57 52L56 52L56 53L55 53L55 52L53 52L53 55L52 55L52 56L51 56L51 57L56 57L56 55L55 55L55 56L53 56L53 55L54 55L54 53L55 53L55 54L56 54L56 53L57 53L57 52L58 52L58 53L59 53L59 52L61 52L61 51L59 51L59 47L58 47L58 48L57 48L57 47L56 47L56 46L57 46L57 45L56 45L56 44L54 44L54 40L55 40L55 38L56 38L56 39L57 39L57 40L56 40L56 41L57 41L57 40L58 40L58 39L59 39L59 40L61 40L61 39L62 39L62 38L61 38L61 39L60 39L60 38L59 38L59 36L58 36L58 38L56 38L56 37L57 37L57 36L56 36L56 34L55 34L55 36L54 36L54 34L53 34L53 33L56 33L56 32L59 32L59 30L60 30L60 31L61 31L61 30L60 30L60 29L59 29L59 28L60 28L60 27L58 27L58 26L59 26L59 25L57 25L57 24L58 24L58 22L54 22L54 24L55 24L55 23L57 23L57 24L56 24L56 25L55 25L55 26L57 26L57 28L56 28L56 29L57 29L57 28L58 28L58 29L59 29L59 30L58 30L58 31L57 31L57 30L55 30L55 31L53 31L53 30L54 30L54 29L55 29L55 28L54 28L54 26L52 26L52 25L53 25L53 24L52 24L52 22L53 22L53 20ZM58 20L58 21L59 21L59 20ZM49 21L49 22L50 22L50 23L49 23L49 24L50 24L50 23L51 23L51 22L52 22L52 21ZM33 22L33 23L32 23L32 25L33 25L33 23L34 23L34 22ZM59 22L59 23L60 23L60 25L61 25L61 27L63 27L63 26L64 26L64 25L65 25L65 24L63 24L63 22ZM17 23L17 24L18 24L18 23ZM19 23L19 24L20 24L20 23ZM42 23L42 24L43 24L43 23ZM34 24L34 26L33 26L33 27L32 27L32 28L33 28L33 27L34 27L34 26L35 26L35 25L36 25L36 24ZM61 24L61 25L62 25L62 26L63 26L63 24ZM6 25L6 26L5 26L5 29L6 29L6 30L7 30L7 31L6 31L6 32L7 32L7 31L8 31L8 32L9 32L9 31L10 31L10 30L11 30L11 31L12 31L12 33L13 33L13 32L14 32L14 34L15 34L15 31L14 31L14 29L11 29L11 27L10 27L10 26L9 26L9 27L10 27L10 30L9 30L9 31L8 31L8 30L7 30L7 29L6 29L6 28L7 28L7 27L6 27L6 26L7 26L7 25ZM1 26L1 27L0 27L0 28L1 28L1 29L0 29L0 30L1 30L1 31L2 31L2 30L3 30L3 29L2 29L2 28L1 28L1 27L2 27L2 26ZM51 26L51 27L52 27L52 26ZM42 27L42 28L43 28L43 29L44 29L44 27ZM64 27L64 28L65 28L65 29L66 29L66 27ZM8 28L8 29L9 29L9 28ZM50 28L50 29L49 29L49 31L47 31L47 32L44 32L44 33L45 33L45 34L44 34L44 36L45 36L45 39L44 39L44 40L43 40L43 41L42 41L42 42L43 42L43 43L41 43L41 42L40 42L40 41L41 41L41 40L40 40L40 41L39 41L39 42L40 42L40 43L41 43L41 44L40 44L40 45L42 45L42 47L43 47L43 48L44 48L44 47L43 47L43 45L42 45L42 44L43 44L43 43L44 43L44 45L45 45L45 46L46 46L46 48L45 48L45 50L46 50L46 48L47 48L47 47L49 47L49 49L50 49L50 47L51 47L51 46L52 46L52 47L53 47L53 48L54 48L54 46L55 46L55 45L54 45L54 44L53 44L53 43L52 43L52 42L51 42L51 43L49 43L49 44L51 44L51 43L52 43L52 44L53 44L53 45L50 45L50 46L49 46L49 45L48 45L48 43L47 43L47 40L46 40L46 41L45 41L45 42L44 42L44 40L45 40L45 39L47 39L47 38L46 38L46 37L47 37L47 35L48 35L48 36L49 36L49 35L48 35L48 34L47 34L47 33L48 33L48 32L49 32L49 34L50 34L50 35L52 35L52 33L51 33L51 32L50 32L50 31L51 31L51 30L50 30L50 29L51 29L51 28ZM52 28L52 30L53 30L53 29L54 29L54 28ZM61 28L61 29L62 29L62 30L63 30L63 31L64 31L64 30L63 30L63 28ZM45 29L45 30L47 30L47 29ZM12 30L12 31L13 31L13 30ZM32 30L32 31L33 31L33 30ZM0 32L0 33L1 33L1 32ZM38 32L38 33L37 33L37 35L39 35L39 34L40 34L40 33L39 33L39 32ZM5 33L5 36L8 36L8 33ZM33 33L33 36L36 36L36 33ZM61 33L61 36L64 36L64 33ZM6 34L6 35L7 35L7 34ZM34 34L34 35L35 35L35 34ZM45 34L45 35L46 35L46 34ZM62 34L62 35L63 35L63 34ZM21 35L21 36L22 36L22 35ZM1 36L1 37L2 37L2 36ZM13 36L13 38L15 38L15 37L14 37L14 36ZM53 36L53 38L55 38L55 37L54 37L54 36ZM42 37L42 38L41 38L41 39L43 39L43 37ZM50 37L50 39L48 39L48 40L51 40L51 41L53 41L53 40L52 40L52 39L51 39L51 37ZM8 39L8 40L9 40L9 39ZM32 40L32 41L33 41L33 40ZM7 41L7 42L3 42L3 43L7 43L7 42L8 42L8 41ZM48 41L48 42L50 42L50 41ZM45 42L45 43L46 43L46 44L45 44L45 45L46 45L46 44L47 44L47 43L46 43L46 42ZM56 42L56 43L58 43L58 45L61 45L61 44L59 44L59 43L58 43L58 42ZM65 42L65 43L66 43L66 42ZM16 44L16 47L17 47L17 48L18 48L18 50L19 50L19 51L18 51L18 52L20 52L20 50L19 50L19 49L20 49L20 47L21 47L21 46L22 46L22 47L23 47L23 51L22 51L22 53L23 53L23 51L24 51L24 52L25 52L25 53L26 53L26 52L27 52L27 49L26 49L26 47L25 47L25 49L24 49L24 46L25 46L25 45L20 45L20 47L19 47L19 45L18 45L18 44ZM28 44L28 45L27 45L27 46L28 46L28 47L27 47L27 48L28 48L28 47L29 47L29 48L31 48L31 45L32 45L32 47L33 47L33 45L32 45L32 44L31 44L31 45L30 45L30 44ZM1 45L1 46L2 46L2 47L1 47L1 48L2 48L2 47L3 47L3 46L2 46L2 45ZM6 45L6 46L7 46L7 45ZM17 45L17 47L18 47L18 48L19 48L19 47L18 47L18 45ZM29 45L29 46L30 46L30 45ZM35 45L35 47L36 47L36 46L37 46L37 45ZM60 46L60 48L62 48L62 49L60 49L60 50L63 50L63 48L64 48L64 46L62 46L62 47L61 47L61 46ZM66 46L66 47L65 47L65 48L66 48L66 47L67 47L67 46ZM40 47L40 48L41 48L41 50L44 50L44 49L42 49L42 48L41 48L41 47ZM62 47L62 48L63 48L63 47ZM11 48L11 49L12 49L12 48ZM25 49L25 52L26 52L26 49ZM36 49L36 50L34 50L34 51L37 51L37 50L38 50L38 52L35 52L35 55L37 55L37 53L38 53L38 52L39 52L39 53L40 53L40 52L39 52L39 50L38 50L38 49ZM29 50L29 51L28 51L28 52L30 52L30 51L32 51L32 50ZM52 50L52 51L54 51L54 50ZM8 51L8 52L9 52L9 53L10 53L10 52L9 52L9 51ZM42 51L42 52L43 52L43 53L44 53L44 52L43 52L43 51ZM58 51L58 52L59 52L59 51ZM18 54L18 55L19 55L19 54ZM38 54L38 57L39 57L39 58L40 58L40 59L38 59L38 58L37 58L37 56L36 56L36 57L35 57L35 58L37 58L37 59L38 59L38 61L39 61L39 60L40 60L40 59L41 59L41 56L40 56L40 54ZM41 54L41 55L42 55L42 54ZM28 55L28 56L29 56L29 57L31 57L31 56L29 56L29 55ZM18 56L18 57L19 57L19 56ZM7 57L7 58L8 58L8 57ZM14 58L14 60L15 60L15 58ZM51 58L51 59L52 59L52 58ZM55 58L55 59L56 59L56 60L55 60L55 61L57 61L57 60L58 60L58 58ZM28 59L28 60L29 60L29 59ZM31 59L31 60L33 60L33 59ZM44 59L44 60L45 60L45 59ZM3 60L3 61L5 61L5 60ZM28 61L28 62L29 62L29 61ZM33 61L33 64L36 64L36 61ZM61 61L61 64L64 64L64 61ZM34 62L34 63L35 63L35 62ZM62 62L62 63L63 63L63 62ZM14 64L14 66L15 66L15 67L16 67L16 66L15 66L15 64ZM16 64L16 65L17 65L17 64ZM18 64L18 65L19 65L19 64ZM58 64L58 65L59 65L59 64ZM24 65L24 66L21 66L21 67L24 67L24 66L25 66L25 65ZM29 65L29 66L30 66L30 65ZM54 65L54 66L55 66L55 65ZM63 65L63 66L64 66L64 65ZM51 67L51 68L52 68L52 67ZM60 67L60 68L61 68L61 67ZM18 68L18 69L19 69L19 68ZM27 68L27 69L29 69L29 68ZM66 68L66 69L68 69L68 68ZM0 0L0 7L7 7L7 0ZM1 1L1 6L6 6L6 1ZM2 2L2 5L5 5L5 2ZM62 0L62 7L69 7L69 0ZM63 1L63 6L68 6L68 1ZM64 2L64 5L67 5L67 2ZM0 62L0 69L7 69L7 62ZM1 63L1 68L6 68L6 63ZM2 64L2 67L5 67L5 64Z" fill="#000000"/></g></g></svg>
