<?xml version="1.0" encoding="UTF-8"?>
<svg xmlns="http://www.w3.org/2000/svg" version="1.1" width="300" height="300" viewBox="0 0 300 300"><rect x="0" y="0" width="300" height="300" fill="#ffffff"/><g transform="scale(4.348)"><g transform="translate(0,0)"><path fill-rule="evenodd" d="M9 0L9 1L8 1L8 2L10 2L10 3L11 3L11 4L12 4L12 3L16 3L16 4L15 4L15 5L13 5L13 6L12 6L12 7L11 7L11 5L10 5L10 4L9 4L9 3L8 3L8 4L9 4L9 5L8 5L8 7L9 7L9 5L10 5L10 10L11 10L11 11L8 11L8 10L9 10L9 8L6 8L6 9L7 9L7 10L6 10L6 11L7 11L7 12L5 12L5 11L4 11L4 10L2 10L2 9L5 9L5 8L0 8L0 12L1 12L1 14L0 14L0 20L1 20L1 19L2 19L2 21L3 21L3 23L2 23L2 22L1 22L1 21L0 21L0 22L1 22L1 23L0 23L0 24L1 24L1 26L0 26L0 27L2 27L2 28L0 28L0 29L2 29L2 28L3 28L3 30L0 30L0 32L1 32L1 31L2 31L2 33L3 33L3 34L4 34L4 35L3 35L3 36L2 36L2 34L1 34L1 36L0 36L0 39L1 39L1 37L2 37L2 39L3 39L3 36L4 36L4 40L6 40L6 41L7 41L7 42L6 42L6 43L7 43L7 44L6 44L6 45L7 45L7 46L6 46L6 47L5 47L5 48L4 48L4 47L3 47L3 44L5 44L5 41L3 41L3 40L2 40L2 43L0 43L0 45L1 45L1 46L0 46L0 48L1 48L1 46L2 46L2 47L3 47L3 48L4 48L4 49L5 49L5 53L7 53L7 54L6 54L6 55L5 55L5 54L4 54L4 55L3 55L3 53L2 53L2 51L1 51L1 50L2 50L2 49L0 49L0 61L1 61L1 58L2 58L2 59L3 59L3 58L4 58L4 59L7 59L7 60L6 60L6 61L8 61L8 63L10 63L10 62L11 62L11 61L9 61L9 60L11 60L11 59L12 59L12 61L13 61L13 62L15 62L15 64L14 64L14 66L11 66L11 67L10 67L10 65L12 65L12 63L11 63L11 64L10 64L10 65L9 65L9 64L8 64L8 69L9 69L9 68L11 68L11 69L12 69L12 68L13 68L13 69L15 69L15 68L16 68L16 67L17 67L17 66L18 66L18 68L17 68L17 69L22 69L22 68L19 68L19 67L20 67L20 66L19 66L19 65L20 65L20 64L21 64L21 62L25 62L25 63L26 63L26 64L24 64L24 65L23 65L23 66L24 66L24 67L26 67L26 68L24 68L24 69L26 69L26 68L27 68L27 67L28 67L28 68L29 68L29 69L32 69L32 67L33 67L33 65L36 65L36 66L35 66L35 68L36 68L36 69L38 69L38 68L37 68L37 67L39 67L39 68L40 68L40 67L41 67L41 66L44 66L44 68L43 68L43 67L42 67L42 68L41 68L41 69L44 69L44 68L48 68L48 69L50 69L50 65L51 65L51 64L50 64L50 65L49 65L49 64L48 64L48 63L47 63L47 62L50 62L50 61L51 61L51 60L52 60L52 59L51 59L51 58L47 58L47 59L51 59L51 60L46 60L46 61L47 61L47 62L46 62L46 63L47 63L47 65L48 65L48 67L47 67L47 66L46 66L46 64L45 64L45 61L44 61L44 59L43 59L43 57L44 57L44 56L46 56L46 57L49 57L49 56L50 56L50 55L49 55L49 54L50 54L50 53L51 53L51 52L53 52L53 53L54 53L54 54L51 54L51 56L55 56L55 57L53 57L53 58L54 58L54 59L55 59L55 57L56 57L56 54L57 54L57 53L58 53L58 52L57 52L57 53L56 53L56 52L55 52L55 51L52 51L52 50L55 50L55 49L56 49L56 51L58 51L58 50L57 50L57 49L59 49L59 52L60 52L60 53L59 53L59 54L58 54L58 55L57 55L57 57L59 57L59 56L60 56L60 53L62 53L62 52L63 52L63 53L64 53L64 52L66 52L66 53L67 53L67 54L66 54L66 55L62 55L62 54L61 54L61 57L62 57L62 56L68 56L68 58L65 58L65 59L64 59L64 60L60 60L60 59L62 59L62 58L60 58L60 59L59 59L59 60L57 60L57 61L59 61L59 62L56 62L56 60L55 60L55 61L54 61L54 60L53 60L53 61L54 61L54 62L51 62L51 63L54 63L54 64L53 64L53 65L52 65L52 67L53 67L53 66L54 66L54 69L56 69L56 68L55 68L55 65L56 65L56 67L57 67L57 69L61 69L61 68L62 68L62 69L64 69L64 68L66 68L66 69L68 69L68 68L67 68L67 67L64 67L64 68L62 68L62 66L61 66L61 65L64 65L64 66L67 66L67 65L65 65L65 64L67 64L67 62L69 62L69 61L65 61L65 60L67 60L67 59L68 59L68 60L69 60L69 59L68 59L68 58L69 58L69 56L68 56L68 55L67 55L67 54L69 54L69 53L67 53L67 52L68 52L68 50L69 50L69 49L67 49L67 50L66 50L66 51L64 51L64 52L63 52L63 51L61 51L61 50L62 50L62 49L61 49L61 48L62 48L62 46L63 46L63 45L66 45L66 47L65 47L65 46L64 46L64 47L65 47L65 48L64 48L64 49L63 49L63 50L64 50L64 49L65 49L65 48L67 48L67 46L69 46L69 45L67 45L67 43L68 43L68 44L69 44L69 43L68 43L68 41L67 41L67 39L68 39L68 38L67 38L67 37L68 37L68 36L69 36L69 35L68 35L68 34L69 34L69 33L68 33L68 34L67 34L67 33L66 33L66 32L68 32L68 30L69 30L69 29L68 29L68 26L66 26L66 25L64 25L64 24L67 24L67 25L69 25L69 23L68 23L68 22L69 22L69 21L68 21L68 18L69 18L69 16L68 16L68 17L67 17L67 15L68 15L68 13L69 13L69 11L68 11L68 10L69 10L69 9L68 9L68 8L67 8L67 11L64 11L64 10L65 10L65 9L66 9L66 8L65 8L65 9L64 9L64 8L63 8L63 9L64 9L64 10L63 10L63 11L62 11L62 13L60 13L60 12L59 12L59 13L60 13L60 14L59 14L59 15L60 15L60 16L57 16L57 15L58 15L58 14L57 14L57 13L58 13L58 12L57 12L57 11L61 11L61 10L62 10L62 8L61 8L61 6L60 6L60 8L59 8L59 4L58 4L58 5L57 5L57 6L56 6L56 5L55 5L55 4L56 4L56 2L55 2L55 1L61 1L61 0L53 0L53 1L51 1L51 3L50 3L50 4L49 4L49 3L48 3L48 2L50 2L50 0L49 0L49 1L48 1L48 2L47 2L47 3L48 3L48 4L47 4L47 5L48 5L48 7L47 7L47 6L46 6L46 5L44 5L44 3L45 3L45 4L46 4L46 3L45 3L45 2L46 2L46 1L45 1L45 0L44 0L44 1L45 1L45 2L44 2L44 3L43 3L43 0L41 0L41 1L38 1L38 0L37 0L37 1L35 1L35 0L34 0L34 1L33 1L33 2L34 2L34 1L35 1L35 3L32 3L32 2L30 2L30 0L28 0L28 1L27 1L27 2L28 2L28 3L27 3L27 4L26 4L26 1L25 1L25 0L23 0L23 1L24 1L24 2L23 2L23 3L24 3L24 4L22 4L22 5L20 5L20 4L21 4L21 3L19 3L19 2L20 2L20 1L19 1L19 0L17 0L17 1L16 1L16 0L15 0L15 1L14 1L14 0L13 0L13 2L12 2L12 1L11 1L11 2L10 2L10 0ZM31 0L31 1L32 1L32 0ZM17 1L17 2L16 2L16 3L18 3L18 1ZM21 1L21 2L22 2L22 1ZM41 1L41 2L42 2L42 1ZM53 1L53 2L52 2L52 3L51 3L51 4L50 4L50 5L51 5L51 4L54 4L54 3L55 3L55 2L54 2L54 1ZM24 2L24 3L25 3L25 2ZM37 2L37 3L38 3L38 4L37 4L37 5L38 5L38 6L37 6L37 8L38 8L38 6L39 6L39 7L40 7L40 6L39 6L39 4L40 4L40 5L41 5L41 3L39 3L39 2ZM53 2L53 3L54 3L54 2ZM57 2L57 3L59 3L59 2ZM28 3L28 4L27 4L27 5L26 5L26 4L25 4L25 5L22 5L22 6L21 6L21 8L20 8L20 6L19 6L19 8L20 8L20 11L21 11L21 13L19 13L19 14L18 14L18 13L17 13L17 12L18 12L18 11L19 11L19 10L18 10L18 9L17 9L17 8L18 8L18 6L17 6L17 7L16 7L16 5L17 5L17 4L16 4L16 5L15 5L15 7L14 7L14 6L13 6L13 7L14 7L14 8L15 8L15 9L14 9L14 12L12 12L12 11L11 11L11 12L10 12L10 13L8 13L8 12L7 12L7 13L6 13L6 14L8 14L8 15L9 15L9 16L8 16L8 17L9 17L9 18L7 18L7 17L5 17L5 16L3 16L3 15L1 15L1 16L3 16L3 17L2 17L2 18L3 18L3 20L4 20L4 18L3 18L3 17L5 17L5 18L7 18L7 19L6 19L6 20L7 20L7 19L9 19L9 18L10 18L10 21L9 21L9 20L8 20L8 21L5 21L5 22L4 22L4 23L3 23L3 24L2 24L2 23L1 23L1 24L2 24L2 27L4 27L4 28L5 28L5 27L6 27L6 28L7 28L7 29L6 29L6 30L5 30L5 29L4 29L4 30L3 30L3 31L4 31L4 32L5 32L5 31L6 31L6 32L7 32L7 31L6 31L6 30L7 30L7 29L8 29L8 28L10 28L10 30L8 30L8 32L9 32L9 35L10 35L10 36L9 36L9 37L6 37L6 38L5 38L5 39L6 39L6 40L7 40L7 39L8 39L8 38L10 38L10 37L11 37L11 40L10 40L10 41L9 41L9 42L10 42L10 41L11 41L11 43L12 43L12 45L11 45L11 44L7 44L7 45L9 45L9 49L8 49L8 48L7 48L7 47L6 47L6 48L7 48L7 49L6 49L6 50L8 50L8 52L7 52L7 51L6 51L6 52L7 52L7 53L8 53L8 52L9 52L9 55L8 55L8 56L10 56L10 57L11 57L11 58L9 58L9 59L8 59L8 57L6 57L6 56L7 56L7 55L6 55L6 56L5 56L5 55L4 55L4 58L5 58L5 57L6 57L6 58L7 58L7 59L8 59L8 60L9 60L9 59L11 59L11 58L12 58L12 59L13 59L13 57L14 57L14 56L15 56L15 55L14 55L14 54L15 54L15 53L16 53L16 54L17 54L17 55L16 55L16 57L15 57L15 58L14 58L14 59L15 59L15 62L17 62L17 63L16 63L16 64L17 64L17 65L15 65L15 67L16 67L16 66L17 66L17 65L18 65L18 64L17 64L17 63L18 63L18 62L19 62L19 64L20 64L20 62L21 62L21 61L25 61L25 62L28 62L28 63L27 63L27 64L28 64L28 65L25 65L25 66L28 66L28 65L29 65L29 64L31 64L31 63L32 63L32 60L35 60L35 59L38 59L38 60L39 60L39 59L38 59L38 58L39 58L39 57L41 57L41 56L39 56L39 55L40 55L40 53L43 53L43 56L42 56L42 57L43 57L43 56L44 56L44 53L45 53L45 54L46 54L46 56L49 56L49 55L47 55L47 54L48 54L48 53L45 53L45 52L46 52L46 51L47 51L47 50L48 50L48 49L47 49L47 47L49 47L49 46L51 46L51 45L54 45L54 44L51 44L51 43L50 43L50 42L51 42L51 41L50 41L50 42L48 42L48 41L47 41L47 40L48 40L48 39L47 39L47 40L45 40L45 39L41 39L41 40L39 40L39 37L40 37L40 38L41 38L41 37L43 37L43 36L44 36L44 37L45 37L45 38L47 38L47 37L45 37L45 36L48 36L48 35L49 35L49 37L50 37L50 39L51 39L51 40L52 40L52 42L53 42L53 41L55 41L55 44L56 44L56 46L57 46L57 48L56 48L56 47L55 47L55 46L52 46L52 47L51 47L51 48L52 48L52 49L50 49L50 48L49 48L49 49L50 49L50 50L52 50L52 49L53 49L53 48L52 48L52 47L55 47L55 48L56 48L56 49L57 49L57 48L59 48L59 49L60 49L60 48L61 48L61 46L62 46L62 45L61 45L61 43L60 43L60 42L61 42L61 41L62 41L62 44L63 44L63 43L65 43L65 42L66 42L66 40L65 40L65 41L64 41L64 40L63 40L63 41L62 41L62 39L65 39L65 38L66 38L66 39L67 39L67 38L66 38L66 37L67 37L67 36L68 36L68 35L67 35L67 36L66 36L66 37L64 37L64 38L63 38L63 37L60 37L60 35L59 35L59 34L60 34L60 32L59 32L59 33L58 33L58 31L60 31L60 30L59 30L59 29L60 29L60 28L61 28L61 29L62 29L62 31L63 31L63 32L64 32L64 31L67 31L67 28L66 28L66 27L65 27L65 26L64 26L64 25L62 25L62 23L63 23L63 24L64 24L64 23L63 23L63 21L64 21L64 22L65 22L65 23L67 23L67 24L68 24L68 23L67 23L67 22L66 22L66 21L65 21L65 19L67 19L67 17L66 17L66 16L65 16L65 14L67 14L67 13L68 13L68 11L67 11L67 13L66 13L66 12L64 12L64 11L63 11L63 13L62 13L62 14L61 14L61 16L62 16L62 18L60 18L60 19L59 19L59 17L57 17L57 16L56 16L56 15L57 15L57 14L56 14L56 13L57 13L57 12L56 12L56 9L57 9L57 10L59 10L59 8L57 8L57 7L58 7L58 6L57 6L57 7L56 7L56 6L55 6L55 7L54 7L54 5L52 5L52 6L51 6L51 7L50 7L50 6L49 6L49 7L50 7L50 9L49 9L49 10L47 10L47 7L46 7L46 6L45 6L45 7L44 7L44 5L43 5L43 7L42 7L42 6L41 6L41 8L39 8L39 9L38 9L38 10L36 10L36 9L35 9L35 10L34 10L34 9L31 9L31 7L32 7L32 5L30 5L30 4L29 4L29 3ZM31 3L31 4L32 4L32 3ZM35 3L35 4L36 4L36 3ZM60 3L60 5L61 5L61 3ZM18 4L18 5L19 5L19 4ZM25 5L25 6L24 6L24 7L23 7L23 6L22 6L22 7L23 7L23 8L24 8L24 9L23 9L23 10L24 10L24 9L26 9L26 10L25 10L25 11L26 11L26 12L24 12L24 11L23 11L23 12L24 12L24 13L23 13L23 14L25 14L25 13L26 13L26 14L27 14L27 15L29 15L29 17L31 17L31 19L30 19L30 18L29 18L29 20L28 20L28 19L27 19L27 18L28 18L28 17L27 17L27 18L26 18L26 17L18 17L18 16L17 16L17 15L18 15L18 14L17 14L17 15L16 15L16 14L13 14L13 13L12 13L12 12L11 12L11 13L10 13L10 14L9 14L9 15L10 15L10 16L9 16L9 17L10 17L10 16L11 16L11 15L12 15L12 16L13 16L13 17L11 17L11 18L13 18L13 17L14 17L14 18L17 18L17 19L15 19L15 20L14 20L14 25L13 25L13 24L12 24L12 23L11 23L11 21L12 21L12 22L13 22L13 21L12 21L12 20L11 20L11 21L10 21L10 22L9 22L9 23L10 23L10 24L8 24L8 25L7 25L7 24L6 24L6 25L5 25L5 23L8 23L8 22L5 22L5 23L4 23L4 25L3 25L3 26L6 26L6 27L7 27L7 26L9 26L9 25L10 25L10 28L11 28L11 27L12 27L12 26L14 26L14 27L13 27L13 28L14 28L14 29L16 29L16 28L17 28L17 29L18 29L18 31L17 31L17 30L16 30L16 31L17 31L17 32L16 32L16 33L15 33L15 30L14 30L14 34L16 34L16 33L17 33L17 35L20 35L20 34L19 34L19 33L20 33L20 31L19 31L19 30L20 30L20 27L21 27L21 28L23 28L23 27L24 27L24 28L25 28L25 29L21 29L21 31L22 31L22 32L23 32L23 31L26 31L26 32L24 32L24 33L22 33L22 35L21 35L21 36L23 36L23 37L24 37L24 41L23 41L23 42L21 42L21 43L20 43L20 44L19 44L19 42L20 42L20 41L19 41L19 40L21 40L21 41L22 41L22 40L21 40L21 39L22 39L22 37L21 37L21 39L20 39L20 36L17 36L17 39L19 39L19 40L17 40L17 41L18 41L18 42L17 42L17 43L18 43L18 44L17 44L17 45L18 45L18 46L14 46L14 45L16 45L16 43L15 43L15 42L16 42L16 41L15 41L15 40L14 40L14 38L15 38L15 39L16 39L16 38L15 38L15 37L14 37L14 36L13 36L13 35L11 35L11 36L13 36L13 37L14 37L14 38L12 38L12 42L13 42L13 45L12 45L12 48L10 48L10 49L9 49L9 50L10 50L10 49L11 49L11 51L12 51L12 52L11 52L11 53L10 53L10 56L12 56L12 57L13 57L13 56L14 56L14 55L11 55L11 54L12 54L12 53L13 53L13 54L14 54L14 53L15 53L15 52L14 52L14 53L13 53L13 51L16 51L16 53L17 53L17 54L18 54L18 53L19 53L19 55L21 55L21 56L22 56L22 57L21 57L21 58L22 58L22 59L21 59L21 60L23 60L23 59L24 59L24 60L25 60L25 61L26 61L26 60L25 60L25 59L26 59L26 56L28 56L28 55L27 55L27 54L28 54L28 53L29 53L29 54L30 54L30 55L29 55L29 56L30 56L30 57L29 57L29 58L28 58L28 59L29 59L29 60L27 60L27 61L31 61L31 60L32 60L32 59L35 59L35 58L33 58L33 57L31 57L31 53L32 53L32 55L33 55L33 56L35 56L35 57L36 57L36 58L38 58L38 57L39 57L39 56L38 56L38 57L37 57L37 55L34 55L34 54L33 54L33 53L34 53L34 52L31 52L31 51L29 51L29 52L28 52L28 51L27 51L27 50L28 50L28 49L27 49L27 50L26 50L26 49L25 49L25 48L26 48L26 47L25 47L25 45L26 45L26 44L27 44L27 43L28 43L28 42L26 42L26 38L27 38L27 41L28 41L28 38L27 38L27 37L26 37L26 36L25 36L25 35L26 35L26 34L25 34L25 33L28 33L28 34L27 34L27 35L28 35L28 36L29 36L29 39L30 39L30 38L32 38L32 40L37 40L37 39L38 39L38 38L37 38L37 39L33 39L33 38L34 38L34 37L35 37L35 38L36 38L36 37L38 37L38 36L37 36L37 34L38 34L38 35L39 35L39 36L42 36L42 35L41 35L41 34L43 34L43 33L44 33L44 36L45 36L45 33L47 33L47 34L50 34L50 29L51 29L51 30L52 30L52 29L51 29L51 27L52 27L52 28L55 28L55 29L53 29L53 31L51 31L51 32L53 32L53 31L56 31L56 30L57 30L57 29L56 29L56 27L58 27L58 29L59 29L59 28L60 28L60 27L59 27L59 26L62 26L62 27L61 27L61 28L62 28L62 27L64 27L64 28L65 28L65 29L64 29L64 30L63 30L63 31L64 31L64 30L65 30L65 29L66 29L66 28L65 28L65 27L64 27L64 26L62 26L62 25L61 25L61 23L62 23L62 20L61 20L61 19L60 19L60 20L59 20L59 21L60 21L60 22L58 22L58 20L57 20L57 21L56 21L56 19L58 19L58 18L56 18L56 16L55 16L55 15L56 15L56 14L55 14L55 13L56 13L56 12L55 12L55 9L56 9L56 7L55 7L55 8L54 8L54 9L51 9L51 10L49 10L49 12L47 12L47 14L50 14L50 15L49 15L49 16L48 16L48 15L46 15L46 16L45 16L45 15L44 15L44 14L45 14L45 13L44 13L44 11L43 11L43 13L42 13L42 14L41 14L41 12L42 12L42 10L45 10L45 9L46 9L46 7L45 7L45 9L44 9L44 8L43 8L43 9L41 9L41 12L40 12L40 10L39 10L39 12L38 12L38 13L36 13L36 12L34 12L34 13L33 13L33 14L32 14L32 15L31 15L31 13L32 13L32 12L29 12L29 11L28 11L28 12L27 12L27 11L26 11L26 10L28 10L28 9L30 9L30 11L32 11L32 10L31 10L31 9L30 9L30 8L29 8L29 6L30 6L30 7L31 7L31 6L30 6L30 5L29 5L29 6L28 6L28 9L26 9L26 8L24 8L24 7L25 7L25 6L26 6L26 7L27 7L27 6L26 6L26 5ZM33 5L33 8L36 8L36 5ZM34 6L34 7L35 7L35 6ZM52 6L52 7L53 7L53 6ZM21 8L21 9L22 9L22 8ZM60 8L60 9L61 9L61 8ZM11 9L11 10L13 10L13 9ZM16 9L16 11L17 11L17 9ZM1 10L1 11L2 11L2 10ZM35 10L35 11L36 11L36 10ZM51 10L51 11L52 11L52 12L51 12L51 13L50 13L50 12L49 12L49 13L50 13L50 14L51 14L51 13L53 13L53 14L54 14L54 15L55 15L55 14L54 14L54 13L55 13L55 12L54 12L54 10ZM3 11L3 12L2 12L2 14L3 14L3 12L4 12L4 11ZM15 12L15 13L16 13L16 12ZM26 12L26 13L27 13L27 14L29 14L29 15L30 15L30 16L31 16L31 17L32 17L32 16L33 16L33 18L34 18L34 17L35 17L35 18L37 18L37 19L39 19L39 21L40 21L40 22L37 22L37 23L36 23L36 24L35 24L35 23L32 23L32 24L31 24L31 26L29 26L29 25L30 25L30 24L28 24L28 25L27 25L27 23L30 23L30 22L32 22L32 21L34 21L34 22L35 22L35 20L36 20L36 19L32 19L32 21L30 21L30 20L29 20L29 21L27 21L27 19L26 19L26 21L27 21L27 22L23 22L23 21L24 21L24 20L23 20L23 19L25 19L25 18L23 18L23 19L22 19L22 20L21 20L21 21L20 21L20 20L19 20L19 19L20 19L20 18L19 18L19 19L18 19L18 20L19 20L19 21L18 21L18 22L19 22L19 23L17 23L17 22L16 22L16 23L17 23L17 24L16 24L16 25L15 25L15 26L16 26L16 25L17 25L17 24L19 24L19 25L20 25L20 26L18 26L18 27L17 27L17 28L19 28L19 27L20 27L20 26L21 26L21 25L22 25L22 26L24 26L24 25L22 25L22 24L21 24L21 23L22 23L22 22L23 22L23 24L24 24L24 23L26 23L26 26L25 26L25 27L26 27L26 26L27 26L27 28L26 28L26 29L25 29L25 30L28 30L28 31L27 31L27 32L28 32L28 33L29 33L29 34L32 34L32 33L29 33L29 32L30 32L30 31L29 31L29 30L30 30L30 29L28 29L28 28L30 28L30 27L33 27L33 28L34 28L34 29L33 29L33 30L31 30L31 31L32 31L32 32L34 32L34 31L33 31L33 30L34 30L34 29L35 29L35 30L36 30L36 28L35 28L35 27L36 27L36 26L35 26L35 27L33 27L33 25L32 25L32 24L34 24L34 25L38 25L38 30L37 30L37 31L36 31L36 32L37 32L37 33L38 33L38 34L39 34L39 35L40 35L40 33L43 33L43 32L44 32L44 33L45 33L45 32L44 32L44 31L45 31L45 30L46 30L46 32L48 32L48 31L47 31L47 28L49 28L49 29L48 29L48 30L49 30L49 29L50 29L50 27L51 27L51 25L52 25L52 27L54 27L54 26L53 26L53 23L54 23L54 25L55 25L55 24L56 24L56 25L57 25L57 26L59 26L59 24L60 24L60 23L59 23L59 24L58 24L58 22L56 22L56 23L54 23L54 22L53 22L53 20L52 20L52 19L51 19L51 18L52 18L52 17L53 17L53 16L52 16L52 15L50 15L50 16L49 16L49 17L50 17L50 26L49 26L49 27L47 27L47 25L48 25L48 24L49 24L49 23L48 23L48 24L47 24L47 22L49 22L49 21L46 21L46 20L48 20L48 19L49 19L49 18L48 18L48 19L47 19L47 17L48 17L48 16L47 16L47 17L45 17L45 16L44 16L44 15L43 15L43 14L44 14L44 13L43 13L43 14L42 14L42 15L40 15L40 14L39 14L39 13L40 13L40 12L39 12L39 13L38 13L38 14L37 14L37 17L35 17L35 16L36 16L36 15L35 15L35 14L36 14L36 13L34 13L34 14L33 14L33 15L32 15L32 16L31 16L31 15L30 15L30 13L27 13L27 12ZM11 13L11 14L10 14L10 15L11 15L11 14L12 14L12 15L13 15L13 16L14 16L14 15L13 15L13 14L12 14L12 13ZM21 13L21 14L20 14L20 15L19 15L19 16L20 16L20 15L21 15L21 14L22 14L22 13ZM63 13L63 15L62 15L62 16L64 16L64 13ZM6 15L6 16L7 16L7 15ZM15 15L15 17L16 17L16 15ZM22 15L22 16L23 16L23 15ZM25 15L25 16L26 16L26 15ZM33 15L33 16L34 16L34 15ZM38 15L38 16L40 16L40 15ZM42 16L42 17L41 17L41 18L39 18L39 19L41 19L41 20L42 20L42 21L41 21L41 22L40 22L40 23L37 23L37 24L38 24L38 25L39 25L39 24L42 24L42 25L41 25L41 26L39 26L39 27L42 27L42 30L43 30L43 31L40 31L40 30L38 30L38 31L37 31L37 32L38 32L38 33L39 33L39 32L43 32L43 31L44 31L44 30L45 30L45 29L44 29L44 27L46 27L46 26L43 26L43 25L44 25L44 24L43 24L43 23L41 23L41 22L44 22L44 23L45 23L45 24L46 24L46 25L47 25L47 24L46 24L46 22L44 22L44 20L43 20L43 17L44 17L44 16ZM54 16L54 17L55 17L55 16ZM17 17L17 18L18 18L18 17ZM37 17L37 18L38 18L38 17ZM63 17L63 18L62 18L62 19L63 19L63 18L65 18L65 17ZM44 18L44 19L45 19L45 18ZM55 18L55 19L54 19L54 20L55 20L55 19L56 19L56 18ZM16 20L16 21L17 21L17 20ZM37 20L37 21L38 21L38 20ZM51 20L51 21L52 21L52 20ZM60 20L60 21L61 21L61 20ZM19 21L19 22L20 22L20 21ZM21 21L21 22L22 22L22 21ZM29 21L29 22L30 22L30 21ZM51 22L51 23L53 23L53 22ZM19 23L19 24L20 24L20 23ZM10 24L10 25L11 25L11 24ZM57 24L57 25L58 25L58 24ZM6 25L6 26L7 26L7 25ZM55 26L55 27L56 27L56 26ZM15 27L15 28L16 28L16 27ZM31 28L31 29L32 29L32 28ZM39 28L39 29L40 29L40 28ZM11 29L11 30L13 30L13 29ZM43 29L43 30L44 30L44 29ZM10 31L10 33L11 33L11 32L12 32L12 34L13 34L13 31ZM17 32L17 33L18 33L18 32ZM55 32L55 33L52 33L52 34L51 34L51 36L50 36L50 37L51 37L51 39L52 39L52 40L55 40L55 41L56 41L56 43L57 43L57 41L58 41L58 40L59 40L59 39L60 39L60 38L59 38L59 39L57 39L57 37L56 37L56 35L57 35L57 34L56 34L56 35L55 35L55 33L56 33L56 32ZM5 33L5 36L8 36L8 33ZM33 33L33 36L36 36L36 33ZM61 33L61 36L64 36L64 33ZM6 34L6 35L7 35L7 34ZM23 34L23 35L24 35L24 34ZM34 34L34 35L35 35L35 34ZM52 34L52 36L51 36L51 37L54 37L54 36L53 36L53 35L54 35L54 34ZM62 34L62 35L63 35L63 34ZM15 35L15 36L16 36L16 35ZM29 35L29 36L30 36L30 35ZM31 35L31 37L32 37L32 35ZM24 36L24 37L25 37L25 38L26 38L26 37L25 37L25 36ZM55 37L55 40L56 40L56 41L57 41L57 40L56 40L56 37ZM6 38L6 39L7 39L7 38ZM61 38L61 39L62 39L62 38ZM13 40L13 42L15 42L15 41L14 41L14 40ZM29 40L29 41L30 41L30 43L31 43L31 41L30 41L30 40ZM41 40L41 41L40 41L40 43L39 43L39 44L40 44L40 45L39 45L39 46L40 46L40 47L37 47L37 46L38 46L38 45L37 45L37 44L38 44L38 41L37 41L37 43L34 43L34 44L33 44L33 43L32 43L32 44L28 44L28 45L27 45L27 46L28 46L28 47L27 47L27 48L29 48L29 49L30 49L30 50L32 50L32 51L34 51L34 50L32 50L32 49L33 49L33 48L36 48L36 47L37 47L37 50L36 50L36 49L35 49L35 50L36 50L36 51L35 51L35 54L39 54L39 52L40 52L40 51L41 51L41 52L43 52L43 53L44 53L44 52L45 52L45 49L46 49L46 47L47 47L47 46L49 46L49 45L50 45L50 43L49 43L49 44L48 44L48 42L46 42L46 43L47 43L47 44L46 44L46 45L47 45L47 46L46 46L46 47L45 47L45 46L44 46L44 43L45 43L45 42L44 42L44 40ZM24 41L24 42L23 42L23 43L22 43L22 44L20 44L20 46L18 46L18 47L17 47L17 48L16 48L16 49L15 49L15 47L13 47L13 48L14 48L14 49L12 49L12 51L13 51L13 50L14 50L14 49L15 49L15 50L17 50L17 51L18 51L18 49L22 49L22 50L21 50L21 52L19 52L19 53L20 53L20 54L21 54L21 55L22 55L22 54L23 54L23 52L22 52L22 51L23 51L23 49L24 49L24 48L25 48L25 47L24 47L24 46L23 46L23 43L24 43L24 44L25 44L25 41ZM32 41L32 42L33 42L33 41ZM34 41L34 42L36 42L36 41ZM59 41L59 42L58 42L58 43L59 43L59 44L60 44L60 43L59 43L59 42L60 42L60 41ZM7 42L7 43L8 43L8 42ZM43 42L43 43L44 43L44 42ZM40 43L40 44L41 44L41 43ZM1 44L1 45L2 45L2 44ZM34 44L34 45L30 45L30 46L29 46L29 45L28 45L28 46L29 46L29 47L30 47L30 48L31 48L31 49L32 49L32 48L33 48L33 47L34 47L34 45L36 45L36 46L35 46L35 47L36 47L36 46L37 46L37 45L36 45L36 44ZM57 44L57 45L58 45L58 44ZM21 45L21 46L20 46L20 48L22 48L22 45ZM41 45L41 46L42 46L42 48L41 48L41 47L40 47L40 48L38 48L38 51L39 51L39 50L41 50L41 51L42 51L42 50L41 50L41 49L42 49L42 48L43 48L43 47L44 47L44 49L43 49L43 50L44 50L44 49L45 49L45 47L44 47L44 46L42 46L42 45ZM32 46L32 47L33 47L33 46ZM68 47L68 48L69 48L69 47ZM17 48L17 49L18 49L18 48ZM19 50L19 51L20 51L20 50ZM24 50L24 53L25 53L25 56L26 56L26 54L27 54L27 53L28 53L28 52L27 52L27 51L26 51L26 50ZM9 51L9 52L10 52L10 51ZM25 51L25 53L26 53L26 51ZM43 51L43 52L44 52L44 51ZM50 51L50 52L51 52L51 51ZM60 51L60 52L61 52L61 51ZM17 52L17 53L18 53L18 52ZM37 52L37 53L38 53L38 52ZM1 53L1 54L2 54L2 53ZM21 53L21 54L22 54L22 53ZM55 53L55 54L54 54L54 55L55 55L55 54L56 54L56 53ZM2 56L2 57L3 57L3 56ZM17 56L17 57L16 57L16 58L15 58L15 59L16 59L16 60L18 60L18 61L17 61L17 62L18 62L18 61L19 61L19 62L20 62L20 57L19 57L19 56ZM17 57L17 58L18 58L18 59L19 59L19 57ZM22 57L22 58L24 58L24 57ZM29 58L29 59L30 59L30 58ZM31 58L31 59L32 59L32 58ZM41 58L41 59L40 59L40 62L39 62L39 61L38 61L38 62L37 62L37 63L38 63L38 65L37 65L37 66L36 66L36 67L37 67L37 66L39 66L39 67L40 67L40 66L41 66L41 64L44 64L44 66L45 66L45 67L46 67L46 66L45 66L45 64L44 64L44 61L43 61L43 60L42 60L42 58ZM45 58L45 59L46 59L46 58ZM56 58L56 59L57 59L57 58ZM3 60L3 61L5 61L5 60ZM41 60L41 62L42 62L42 63L43 63L43 61L42 61L42 60ZM59 60L59 61L60 61L60 60ZM33 61L33 64L36 64L36 61ZM61 61L61 64L64 64L64 61ZM29 62L29 63L31 63L31 62ZM34 62L34 63L35 63L35 62ZM38 62L38 63L39 63L39 64L41 64L41 63L39 63L39 62ZM54 62L54 63L55 63L55 64L54 64L54 65L55 65L55 64L56 64L56 65L57 65L57 66L58 66L58 67L59 67L59 68L60 68L60 67L59 67L59 65L60 65L60 64L59 64L59 63L60 63L60 62L59 62L59 63L57 63L57 64L56 64L56 62ZM62 62L62 63L63 63L63 62ZM65 62L65 63L66 63L66 62ZM22 63L22 64L23 64L23 63ZM68 63L68 65L69 65L69 63ZM57 64L57 65L59 65L59 64ZM30 65L30 66L32 66L32 65ZM30 67L30 68L31 68L31 67ZM48 67L48 68L49 68L49 67ZM33 68L33 69L34 69L34 68ZM0 0L0 7L7 7L7 0ZM1 1L1 6L6 6L6 1ZM2 2L2 5L5 5L5 2ZM62 0L62 7L69 7L69 0ZM63 1L63 6L68 6L68 1ZM64 2L64 5L67 5L67 2ZM0 62L0 69L7 69L7 62ZM1 63L1 68L6 68L6 63ZM2 64L2 67L5 67L5 64Z" fill="#000000"/></g></g></svg>
