<?xml version="1.0" encoding="UTF-8"?>
<svg xmlns="http://www.w3.org/2000/svg" version="1.1" width="300" height="300" viewBox="0 0 300 300"><rect x="0" y="0" width="300" height="300" fill="#ffffff"/><g transform="scale(4.348)"><g transform="translate(0,0)"><path fill-rule="evenodd" d="M8 0L8 4L10 4L10 3L11 3L11 1L10 1L10 0ZM12 0L12 1L13 1L13 2L14 2L14 3L12 3L12 5L13 5L13 6L12 6L12 7L11 7L11 6L10 6L10 7L11 7L11 8L9 8L9 9L10 9L10 10L11 10L11 9L12 9L12 8L13 8L13 9L14 9L14 11L17 11L17 10L18 10L18 9L20 9L20 10L19 10L19 11L20 11L20 10L21 10L21 13L19 13L19 12L17 12L17 13L18 13L18 15L17 15L17 14L16 14L16 13L15 13L15 12L14 12L14 14L13 14L13 13L12 13L12 12L13 12L13 10L12 10L12 12L11 12L11 11L9 11L9 10L8 10L8 11L7 11L7 10L5 10L5 11L4 11L4 10L3 10L3 9L2 9L2 8L0 8L0 11L1 11L1 10L2 10L2 11L3 11L3 12L5 12L5 14L4 14L4 13L3 13L3 14L4 14L4 16L3 16L3 15L2 15L2 14L1 14L1 15L0 15L0 17L1 17L1 18L0 18L0 19L1 19L1 20L2 20L2 22L3 22L3 23L1 23L1 24L3 24L3 26L1 26L1 27L0 27L0 29L1 29L1 27L3 27L3 28L2 28L2 30L0 30L0 31L2 31L2 32L1 32L1 34L2 34L2 35L3 35L3 36L4 36L4 37L3 37L3 38L1 38L1 36L0 36L0 38L1 38L1 39L4 39L4 40L5 40L5 39L7 39L7 40L6 40L6 41L4 41L4 42L5 42L5 43L7 43L7 44L6 44L6 45L5 45L5 46L4 46L4 48L3 48L3 45L4 45L4 44L3 44L3 43L2 43L2 47L1 47L1 43L0 43L0 49L1 49L1 50L0 50L0 51L2 51L2 50L3 50L3 52L2 52L2 53L1 53L1 54L0 54L0 55L1 55L1 54L2 54L2 53L3 53L3 54L4 54L4 55L7 55L7 56L3 56L3 55L2 55L2 56L3 56L3 57L2 57L2 59L3 59L3 57L7 57L7 56L9 56L9 55L11 55L11 56L10 56L10 57L8 57L8 60L6 60L6 61L8 61L8 62L9 62L9 63L8 63L8 65L10 65L10 67L8 67L8 69L11 69L11 67L13 67L13 68L17 68L17 69L19 69L19 68L18 68L18 66L19 66L19 67L20 67L20 66L21 66L21 67L22 67L22 68L23 68L23 69L24 69L24 68L23 68L23 67L26 67L26 69L27 69L27 67L28 67L28 66L30 66L30 65L31 65L31 67L33 67L33 68L32 68L32 69L33 69L33 68L34 68L34 69L35 69L35 68L34 68L34 67L35 67L35 66L36 66L36 65L37 65L37 67L39 67L39 66L40 66L40 63L41 63L41 67L40 67L40 68L38 68L38 69L40 69L40 68L43 68L43 63L42 63L42 62L43 62L43 61L42 61L42 58L45 58L45 59L44 59L44 62L45 62L45 63L44 63L44 69L46 69L46 67L45 67L45 63L46 63L46 64L47 64L47 63L48 63L48 65L47 65L47 66L48 66L48 65L50 65L50 66L49 66L49 68L48 68L48 67L47 67L47 69L52 69L52 68L53 68L53 69L55 69L55 68L53 68L53 67L55 67L55 64L54 64L54 65L52 65L52 64L53 64L53 62L55 62L55 61L54 61L54 60L55 60L55 58L56 58L56 57L57 57L57 58L58 58L58 59L57 59L57 60L56 60L56 61L57 61L57 62L56 62L56 66L58 66L58 64L59 64L59 63L58 63L58 61L59 61L59 62L60 62L60 66L61 66L61 67L57 67L57 68L56 68L56 69L58 69L58 68L62 68L62 69L63 69L63 68L62 68L62 66L63 66L63 65L65 65L65 66L64 66L64 69L67 69L67 68L65 68L65 67L66 67L66 65L65 65L65 63L66 63L66 62L67 62L67 64L69 64L69 63L68 63L68 62L69 62L69 61L68 61L68 60L67 60L67 61L66 61L66 59L68 59L68 58L69 58L69 55L68 55L68 53L69 53L69 52L68 52L68 50L67 50L67 52L66 52L66 53L67 53L67 54L66 54L66 55L65 55L65 54L64 54L64 53L62 53L62 52L64 52L64 50L63 50L63 51L62 51L62 50L61 50L61 51L59 51L59 50L58 50L58 49L57 49L57 48L56 48L56 49L57 49L57 50L56 50L56 51L55 51L55 48L54 48L54 47L57 47L57 46L58 46L58 48L59 48L59 47L60 47L60 48L61 48L61 49L65 49L65 51L66 51L66 49L65 49L65 47L66 47L66 46L67 46L67 47L68 47L68 49L69 49L69 47L68 47L68 46L69 46L69 44L68 44L68 45L67 45L67 44L66 44L66 46L65 46L65 47L64 47L64 45L65 45L65 44L64 44L64 43L65 43L65 42L64 42L64 41L65 41L65 40L64 40L64 39L68 39L68 38L69 38L69 35L68 35L68 33L69 33L69 31L68 31L68 30L69 30L69 29L68 29L68 28L69 28L69 27L68 27L68 21L69 21L69 20L68 20L68 18L67 18L67 16L68 16L68 14L69 14L69 11L67 11L67 12L66 12L66 13L67 13L67 12L68 12L68 14L67 14L67 16L66 16L66 18L67 18L67 20L65 20L65 17L64 17L64 16L65 16L65 14L64 14L64 12L63 12L63 11L64 11L64 10L66 10L66 9L69 9L69 8L65 8L65 9L64 9L64 8L63 8L63 9L62 9L62 10L63 10L63 11L61 11L61 12L63 12L63 13L62 13L62 14L64 14L64 15L62 15L62 19L61 19L61 20L60 20L60 21L59 21L59 23L57 23L57 22L58 22L58 21L57 21L57 20L59 20L59 19L60 19L60 18L61 18L61 15L59 15L59 14L58 14L58 13L57 13L57 12L59 12L59 13L60 13L60 14L61 14L61 13L60 13L60 10L61 10L61 8L60 8L60 9L59 9L59 11L57 11L57 6L58 6L58 8L59 8L59 4L58 4L58 3L59 3L59 2L58 2L58 1L61 1L61 0L58 0L58 1L57 1L57 0L56 0L56 2L57 2L57 5L56 5L56 7L55 7L55 4L56 4L56 3L55 3L55 0L50 0L50 5L49 5L49 6L48 6L48 7L49 7L49 8L47 8L47 6L46 6L46 7L45 7L45 6L44 6L44 5L46 5L46 4L48 4L48 3L49 3L49 2L48 2L48 1L49 1L49 0L48 0L48 1L47 1L47 2L46 2L46 3L45 3L45 1L46 1L46 0L45 0L45 1L44 1L44 0L41 0L41 1L40 1L40 0L37 0L37 1L36 1L36 0L35 0L35 1L34 1L34 0L32 0L32 1L30 1L30 0L23 0L23 1L24 1L24 2L22 2L22 3L19 3L19 1L20 1L20 2L21 2L21 1L22 1L22 0L16 0L16 1L15 1L15 0L14 0L14 1L13 1L13 0ZM9 1L9 2L10 2L10 1ZM16 1L16 2L15 2L15 3L17 3L17 5L18 5L18 4L19 4L19 3L18 3L18 1ZM27 1L27 3L26 3L26 2L25 2L25 5L24 5L24 6L23 6L23 5L21 5L21 7L20 7L20 5L19 5L19 7L18 7L18 6L17 6L17 7L16 7L16 5L15 5L15 4L14 4L14 5L15 5L15 7L16 7L16 10L17 10L17 9L18 9L18 8L19 8L19 7L20 7L20 9L22 9L22 13L21 13L21 14L20 14L20 15L19 15L19 16L18 16L18 17L17 17L17 16L16 16L16 14L15 14L15 19L16 19L16 20L17 20L17 19L18 19L18 17L19 17L19 19L20 19L20 18L21 18L21 17L19 17L19 16L20 16L20 15L21 15L21 16L22 16L22 17L23 17L23 15L21 15L21 14L23 14L23 12L24 12L24 11L23 11L23 9L24 9L24 10L26 10L26 11L25 11L25 13L26 13L26 14L25 14L25 15L26 15L26 16L28 16L28 17L27 17L27 18L26 18L26 17L25 17L25 19L24 19L24 20L26 20L26 19L28 19L28 18L30 18L30 17L29 17L29 16L28 16L28 15L27 15L27 13L28 13L28 14L30 14L30 13L28 13L28 12L29 12L29 11L28 11L28 10L30 10L30 11L31 11L31 13L32 13L32 12L33 12L33 14L31 14L31 15L30 15L30 16L31 16L31 15L32 15L32 18L33 18L33 19L29 19L29 20L31 20L31 21L30 21L30 23L28 23L28 22L29 22L29 21L28 21L28 22L27 22L27 21L25 21L25 22L23 22L23 20L22 20L22 21L21 21L21 23L20 23L20 24L19 24L19 25L17 25L17 24L15 24L15 23L16 23L16 22L15 22L15 20L14 20L14 22L15 22L15 23L12 23L12 24L11 24L11 22L13 22L13 21L10 21L10 20L12 20L12 18L14 18L14 16L13 16L13 17L12 17L12 16L11 16L11 17L9 17L9 15L13 15L13 14L12 14L12 13L11 13L11 14L10 14L10 12L9 12L9 11L8 11L8 12L7 12L7 11L5 11L5 12L7 12L7 13L6 13L6 14L7 14L7 13L8 13L8 14L9 14L9 15L5 15L5 16L4 16L4 17L6 17L6 18L5 18L5 19L2 19L2 18L1 18L1 19L2 19L2 20L4 20L4 21L3 21L3 22L4 22L4 23L3 23L3 24L4 24L4 26L7 26L7 27L6 27L6 28L7 28L7 27L8 27L8 29L9 29L9 30L7 30L7 29L6 29L6 30L4 30L4 29L3 29L3 31L4 31L4 32L7 32L7 31L9 31L9 32L10 32L10 33L9 33L9 34L10 34L10 36L9 36L9 37L8 37L8 38L9 38L9 39L8 39L8 40L7 40L7 41L6 41L6 42L7 42L7 43L8 43L8 45L6 45L6 46L9 46L9 47L10 47L10 43L9 43L9 42L10 42L10 40L12 40L12 39L13 39L13 40L14 40L14 39L15 39L15 38L14 38L14 39L13 39L13 38L12 38L12 37L13 37L13 36L14 36L14 34L15 34L15 33L16 33L16 34L17 34L17 33L18 33L18 32L19 32L19 33L20 33L20 31L19 31L19 30L20 30L20 28L21 28L21 26L23 26L23 27L22 27L22 33L21 33L21 34L20 34L20 35L19 35L19 34L18 34L18 35L19 35L19 36L21 36L21 35L22 35L22 38L24 38L24 37L25 37L25 38L27 38L27 39L26 39L26 40L25 40L25 41L24 41L24 39L23 39L23 40L22 40L22 39L21 39L21 38L20 38L20 37L19 37L19 38L20 38L20 39L21 39L21 41L22 41L22 42L21 42L21 43L20 43L20 40L19 40L19 41L18 41L18 42L19 42L19 44L21 44L21 43L22 43L22 46L23 46L23 44L24 44L24 43L22 43L22 42L23 42L23 41L24 41L24 42L25 42L25 41L26 41L26 42L27 42L27 43L30 43L30 41L31 41L31 45L33 45L33 44L34 44L34 45L37 45L37 46L36 46L36 47L35 47L35 46L33 46L33 47L32 47L32 46L30 46L30 45L27 45L27 46L26 46L26 43L25 43L25 47L26 47L26 48L28 48L28 49L27 49L27 50L26 50L26 49L25 49L25 48L23 48L23 47L22 47L22 49L19 49L19 48L21 48L21 47L20 47L20 45L15 45L15 46L12 46L12 45L14 45L14 43L16 43L16 42L17 42L17 40L18 40L18 38L17 38L17 35L15 35L15 37L16 37L16 38L17 38L17 40L16 40L16 41L12 41L12 42L11 42L11 46L12 46L12 47L11 47L11 48L10 48L10 49L11 49L11 48L12 48L12 50L14 50L14 52L13 52L13 51L12 51L12 52L10 52L10 51L11 51L11 50L10 50L10 51L9 51L9 53L6 53L6 54L7 54L7 55L9 55L9 53L10 53L10 54L11 54L11 55L12 55L12 57L10 57L10 58L9 58L9 60L12 60L12 62L11 62L11 61L9 61L9 62L11 62L11 63L9 63L9 64L10 64L10 65L11 65L11 66L13 66L13 65L14 65L14 66L15 66L15 67L17 67L17 65L18 65L18 64L19 64L19 65L20 65L20 64L22 64L22 66L23 66L23 61L25 61L25 62L26 62L26 60L27 60L27 61L28 61L28 62L27 62L27 63L28 63L28 64L26 64L26 63L25 63L25 65L30 65L30 64L31 64L31 65L32 65L32 66L33 66L33 67L34 67L34 66L35 66L35 65L34 65L34 66L33 66L33 65L32 65L32 64L31 64L31 63L32 63L32 62L31 62L31 63L28 63L28 62L29 62L29 61L28 61L28 60L27 60L27 57L28 57L28 58L29 58L29 59L30 59L30 58L29 58L29 57L30 57L30 56L31 56L31 60L33 60L33 59L32 59L32 58L34 58L34 59L35 59L35 60L38 60L38 59L39 59L39 58L40 58L40 59L41 59L41 58L40 58L40 57L41 57L41 56L42 56L42 57L44 57L44 54L45 54L45 53L46 53L46 54L47 54L47 53L46 53L46 52L47 52L47 51L46 51L46 50L47 50L47 48L49 48L49 50L48 50L48 52L49 52L49 50L50 50L50 48L51 48L51 47L52 47L52 49L51 49L51 50L52 50L52 49L54 49L54 48L53 48L53 47L52 47L52 46L51 46L51 47L50 47L50 48L49 48L49 47L47 47L47 45L44 45L44 44L45 44L45 43L46 43L46 44L48 44L48 43L50 43L50 37L51 37L51 38L52 38L52 39L53 39L53 38L52 38L52 37L53 37L53 36L54 36L54 35L55 35L55 38L54 38L54 39L55 39L55 41L56 41L56 40L58 40L58 38L59 38L59 37L60 37L60 39L61 39L61 37L60 37L60 36L59 36L59 37L58 37L58 38L57 38L57 37L56 37L56 36L58 36L58 35L57 35L57 34L56 34L56 32L52 32L52 33L51 33L51 34L50 34L50 32L51 32L51 30L52 30L52 29L54 29L54 28L55 28L55 30L53 30L53 31L55 31L55 30L56 30L56 28L58 28L58 31L59 31L59 28L61 28L61 26L62 26L62 25L63 25L63 24L62 24L62 25L61 25L61 24L60 24L60 23L59 23L59 24L60 24L60 25L61 25L61 26L59 26L59 25L58 25L58 24L57 24L57 23L56 23L56 24L55 24L55 23L54 23L54 25L56 25L56 24L57 24L57 25L58 25L58 27L57 27L57 26L56 26L56 28L55 28L55 26L52 26L52 25L53 25L53 24L52 24L52 23L53 23L53 17L56 17L56 19L55 19L55 18L54 18L54 19L55 19L55 22L56 22L56 20L57 20L57 17L56 17L56 16L58 16L58 19L59 19L59 15L57 15L57 13L56 13L56 8L55 8L55 12L54 12L54 11L53 11L53 12L52 12L52 13L51 13L51 15L50 15L50 16L49 16L49 18L47 18L47 17L46 17L46 16L45 16L45 17L46 17L46 18L45 18L45 19L44 19L44 18L41 18L41 17L42 17L42 16L40 16L40 19L39 19L39 18L38 18L38 17L39 17L39 15L42 15L42 13L43 13L43 12L42 12L42 10L41 10L41 9L43 9L43 11L46 11L46 10L47 10L47 8L45 8L45 7L44 7L44 6L43 6L43 5L44 5L44 4L45 4L45 3L44 3L44 2L42 2L42 1L41 1L41 2L42 2L42 3L44 3L44 4L43 4L43 5L41 5L41 4L40 4L40 1L37 1L37 3L36 3L36 1L35 1L35 3L34 3L34 1L33 1L33 2L32 2L32 3L30 3L30 2L28 2L28 1ZM52 1L52 2L51 2L51 5L53 5L53 4L52 4L52 2L53 2L53 1ZM47 2L47 3L48 3L48 2ZM27 3L27 5L26 5L26 7L25 7L25 6L24 6L24 7L25 7L25 8L24 8L24 9L25 9L25 8L26 8L26 10L28 10L28 9L30 9L30 10L31 10L31 11L32 11L32 10L33 10L33 11L34 11L34 13L35 13L35 14L34 14L34 15L33 15L33 17L34 17L34 16L35 16L35 18L37 18L37 15L38 15L38 14L39 14L39 13L40 13L40 14L41 14L41 10L40 10L40 11L39 11L39 9L40 9L40 8L43 8L43 6L42 6L42 7L41 7L41 6L40 6L40 5L39 5L39 4L38 4L38 3L37 3L37 4L36 4L36 3L35 3L35 4L34 4L34 3L32 3L32 5L31 5L31 4L29 4L29 3ZM60 3L60 5L61 5L61 3ZM28 4L28 5L27 5L27 7L28 7L28 8L29 8L29 7L30 7L30 6L31 6L31 8L30 8L30 9L31 9L31 10L32 10L32 9L31 9L31 8L32 8L32 6L31 6L31 5L30 5L30 6L29 6L29 7L28 7L28 5L29 5L29 4ZM8 5L8 7L9 7L9 5ZM33 5L33 8L36 8L36 5ZM37 5L37 7L38 7L38 8L37 8L37 10L38 10L38 9L39 9L39 7L40 7L40 6L39 6L39 7L38 7L38 5ZM13 6L13 8L14 8L14 6ZM22 6L22 8L23 8L23 6ZM34 6L34 7L35 7L35 6ZM49 6L49 7L50 7L50 8L49 8L49 14L50 14L50 8L52 8L52 10L51 10L51 11L52 11L52 10L53 10L53 8L52 8L52 6L51 6L51 7L50 7L50 6ZM53 6L53 7L54 7L54 6ZM60 6L60 7L61 7L61 6ZM17 7L17 8L18 8L18 7ZM4 8L4 9L7 9L7 8ZM44 8L44 9L45 9L45 10L46 10L46 9L45 9L45 8ZM33 9L33 10L34 10L34 11L36 11L36 9ZM63 9L63 10L64 10L64 9ZM26 11L26 13L27 13L27 11ZM38 11L38 12L36 12L36 13L37 13L37 14L35 14L35 16L36 16L36 15L37 15L37 14L38 14L38 12L39 12L39 11ZM0 12L0 13L1 13L1 12ZM45 12L45 13L44 13L44 14L45 14L45 15L46 15L46 14L47 14L47 13L46 13L46 12ZM45 13L45 14L46 14L46 13ZM53 13L53 14L52 14L52 15L53 15L53 14L54 14L54 15L55 15L55 16L56 16L56 15L55 15L55 14L56 14L56 13ZM1 15L1 17L2 17L2 15ZM43 15L43 17L44 17L44 15ZM6 16L6 17L7 17L7 18L6 18L6 19L8 19L8 20L10 20L10 19L11 19L11 18L10 18L10 19L9 19L9 18L8 18L8 16ZM50 16L50 18L51 18L51 19L49 19L49 20L48 20L48 19L47 19L47 18L46 18L46 20L44 20L44 23L45 23L45 24L44 24L44 25L43 25L43 24L42 24L42 25L41 25L41 26L43 26L43 27L45 27L45 28L44 28L44 30L43 30L43 28L42 28L42 27L40 27L40 24L41 24L41 21L40 21L40 24L37 24L37 25L34 25L34 26L33 26L33 24L32 24L32 21L31 21L31 24L30 24L30 25L29 25L29 26L28 26L28 25L27 25L27 24L28 24L28 23L27 23L27 22L26 22L26 23L25 23L25 24L24 24L24 23L23 23L23 24L22 24L22 23L21 23L21 25L19 25L19 26L18 26L18 27L17 27L17 29L19 29L19 28L20 28L20 26L21 26L21 25L24 25L24 26L26 26L26 29L23 29L23 35L24 35L24 36L23 36L23 37L24 37L24 36L25 36L25 37L27 37L27 38L28 38L28 39L27 39L27 40L26 40L26 41L27 41L27 42L28 42L28 41L30 41L30 40L31 40L31 41L32 41L32 40L33 40L33 42L32 42L32 44L33 44L33 42L34 42L34 44L35 44L35 41L36 41L36 40L35 40L35 41L34 41L34 39L38 39L38 38L40 38L40 39L39 39L39 40L38 40L38 42L43 42L43 39L45 39L45 40L44 40L44 43L45 43L45 42L46 42L46 37L48 37L48 39L47 39L47 41L49 41L49 37L50 37L50 34L49 34L49 32L50 32L50 31L49 31L49 32L47 32L47 31L46 31L46 29L47 29L47 30L48 30L48 29L50 29L50 30L51 30L51 29L52 29L52 28L54 28L54 27L50 27L50 28L49 28L49 27L48 27L48 25L50 25L50 26L51 26L51 25L52 25L52 24L51 24L51 23L52 23L52 22L51 22L51 21L52 21L52 16ZM63 17L63 19L62 19L62 20L61 20L61 23L62 23L62 21L63 21L63 22L64 22L64 26L65 26L65 28L64 28L64 27L62 27L62 28L64 28L64 29L63 29L63 30L67 30L67 28L68 28L68 27L67 27L67 25L66 25L66 24L67 24L67 22L66 22L66 23L65 23L65 20L64 20L64 21L63 21L63 19L64 19L64 17ZM16 18L16 19L17 19L17 18ZM34 19L34 20L35 20L35 21L36 21L36 19ZM37 19L37 21L38 21L38 20L39 20L39 19ZM41 19L41 20L42 20L42 19ZM5 20L5 21L4 21L4 22L5 22L5 21L7 21L7 22L6 22L6 23L4 23L4 24L6 24L6 25L7 25L7 26L8 26L8 25L7 25L7 24L9 24L9 25L11 25L11 26L12 26L12 27L11 27L11 29L10 29L10 26L9 26L9 29L10 29L10 30L9 30L9 31L10 31L10 32L11 32L11 33L10 33L10 34L11 34L11 33L12 33L12 32L14 32L14 33L13 33L13 34L12 34L12 35L11 35L11 36L13 36L13 34L14 34L14 33L15 33L15 32L16 32L16 33L17 33L17 31L18 31L18 30L17 30L17 31L16 31L16 28L15 28L15 27L16 27L16 26L17 26L17 25L15 25L15 24L14 24L14 25L13 25L13 24L12 24L12 25L11 25L11 24L9 24L9 23L10 23L10 21L9 21L9 22L8 22L8 21L7 21L7 20ZM19 20L19 22L18 22L18 21L17 21L17 22L18 22L18 23L19 23L19 22L20 22L20 20ZM49 20L49 21L46 21L46 22L50 22L50 23L49 23L49 24L50 24L50 23L51 23L51 22L50 22L50 20ZM67 20L67 21L68 21L68 20ZM33 21L33 23L34 23L34 24L35 24L35 22L34 22L34 21ZM42 21L42 23L43 23L43 21ZM7 22L7 23L6 23L6 24L7 24L7 23L8 23L8 22ZM26 23L26 24L25 24L25 25L26 25L26 26L27 26L27 25L26 25L26 24L27 24L27 23ZM47 23L47 25L46 25L46 26L47 26L47 25L48 25L48 23ZM12 25L12 26L13 26L13 25ZM31 25L31 26L29 26L29 27L27 27L27 28L31 28L31 27L33 27L33 28L32 28L32 29L31 29L31 30L32 30L32 32L35 32L35 31L39 31L39 30L38 30L38 28L39 28L39 29L40 29L40 30L42 30L42 28L40 28L40 27L38 27L38 28L37 28L37 26L36 26L36 27L35 27L35 26L34 26L34 27L33 27L33 26L32 26L32 25ZM65 25L65 26L66 26L66 25ZM12 27L12 29L13 29L13 27ZM23 27L23 28L24 28L24 27ZM34 27L34 28L35 28L35 27ZM36 28L36 29L33 29L33 31L34 31L34 30L37 30L37 28ZM50 28L50 29L51 29L51 28ZM65 28L65 29L66 29L66 28ZM14 29L14 30L13 30L13 31L15 31L15 29ZM27 29L27 30L29 30L29 32L26 32L26 31L25 31L25 33L29 33L29 32L30 32L30 29ZM61 29L61 32L62 32L62 29ZM6 30L6 31L7 31L7 30ZM11 30L11 31L12 31L12 30ZM44 30L44 31L40 31L40 33L44 33L44 34L43 34L43 35L42 35L42 36L40 36L40 38L41 38L41 37L42 37L42 36L43 36L43 38L42 38L42 39L43 39L43 38L45 38L45 37L46 37L46 34L48 34L48 35L47 35L47 36L48 36L48 35L49 35L49 34L48 34L48 33L46 33L46 32L45 32L45 33L44 33L44 31L45 31L45 30ZM63 31L63 32L66 32L66 33L65 33L65 34L66 34L66 35L65 35L65 37L62 37L62 40L63 40L63 39L64 39L64 38L65 38L65 37L66 37L66 38L68 38L68 35L67 35L67 32L68 32L68 31ZM37 32L37 34L38 34L38 32ZM58 32L58 34L59 34L59 35L60 35L60 33L59 33L59 32ZM3 33L3 35L4 35L4 33ZM5 33L5 36L8 36L8 33ZM33 33L33 36L36 36L36 33ZM45 33L45 34L44 34L44 37L45 37L45 34L46 34L46 33ZM52 33L52 34L51 34L51 37L52 37L52 34L55 34L55 35L56 35L56 34L55 34L55 33ZM61 33L61 36L64 36L64 33ZM6 34L6 35L7 35L7 34ZM24 34L24 35L25 35L25 36L28 36L28 38L29 38L29 39L30 39L30 37L29 37L29 34L28 34L28 35L27 35L27 34L26 34L26 35L25 35L25 34ZM34 34L34 35L35 35L35 34ZM39 34L39 35L37 35L37 37L31 37L31 39L32 39L32 38L33 38L33 39L34 39L34 38L37 38L37 37L38 37L38 36L39 36L39 35L41 35L41 34ZM62 34L62 35L63 35L63 34ZM6 37L6 38L7 38L7 37ZM9 37L9 38L10 38L10 37ZM4 38L4 39L5 39L5 38ZM11 38L11 39L12 39L12 38ZM9 39L9 40L8 40L8 41L9 41L9 40L10 40L10 39ZM40 39L40 41L41 41L41 39ZM27 40L27 41L28 41L28 40ZM52 40L52 41L51 41L51 44L52 44L52 45L55 45L55 46L56 46L56 43L58 43L58 44L57 44L57 45L58 45L58 46L61 46L61 44L63 44L63 45L62 45L62 48L64 48L64 47L63 47L63 45L64 45L64 44L63 44L63 43L64 43L64 42L63 42L63 41L62 41L62 43L61 43L61 44L59 44L59 41L60 41L60 42L61 42L61 41L60 41L60 40L59 40L59 41L57 41L57 42L56 42L56 43L55 43L55 44L52 44L52 43L53 43L53 42L52 42L52 41L54 41L54 40ZM67 41L67 43L68 43L68 41ZM12 42L12 43L14 43L14 42ZM36 42L36 43L37 43L37 45L38 45L38 48L37 48L37 47L36 47L36 48L37 48L37 49L38 49L38 51L37 51L37 53L36 53L36 52L35 52L35 50L36 50L36 49L34 49L34 47L33 47L33 48L30 48L30 49L29 49L29 50L28 50L28 51L27 51L27 52L26 52L26 50L25 50L25 49L22 49L22 51L21 51L21 50L20 50L20 51L19 51L19 52L18 52L18 51L17 51L17 52L16 52L16 51L15 51L15 52L14 52L14 53L13 53L13 54L12 54L12 55L13 55L13 54L14 54L14 56L13 56L13 57L12 57L12 58L10 58L10 59L12 59L12 60L13 60L13 62L14 62L14 60L15 60L15 59L16 59L16 58L18 58L18 59L17 59L17 61L19 61L19 60L18 60L18 59L19 59L19 58L20 58L20 59L22 59L22 60L20 60L20 63L19 63L19 64L20 64L20 63L21 63L21 62L22 62L22 60L24 60L24 59L22 59L22 58L21 58L21 57L24 57L24 58L25 58L25 59L26 59L26 58L25 58L25 55L27 55L27 53L29 53L29 54L28 54L28 57L29 57L29 55L30 55L30 54L32 54L32 52L33 52L33 51L34 51L34 52L35 52L35 53L36 53L36 54L34 54L34 53L33 53L33 54L34 54L34 55L33 55L33 56L32 56L32 57L34 57L34 58L36 58L36 57L37 57L37 56L39 56L39 57L38 57L38 58L39 58L39 57L40 57L40 55L41 55L41 54L42 54L42 55L43 55L43 54L44 54L44 53L45 53L45 50L46 50L46 49L45 49L45 48L47 48L47 47L45 47L45 48L44 48L44 47L43 47L43 46L44 46L44 45L43 45L43 44L41 44L41 43L37 43L37 42ZM47 42L47 43L48 43L48 42ZM38 44L38 45L39 45L39 47L41 47L41 48L40 48L40 51L39 51L39 52L38 52L38 53L37 53L37 55L34 55L34 57L35 57L35 56L37 56L37 55L39 55L39 52L40 52L40 54L41 54L41 53L44 53L44 51L43 51L43 50L42 50L42 51L41 51L41 49L42 49L42 45L41 45L41 46L40 46L40 45L39 45L39 44ZM49 44L49 45L50 45L50 44ZM58 44L58 45L59 45L59 44ZM15 46L15 47L16 47L16 46ZM18 46L18 47L17 47L17 48L16 48L16 49L15 49L15 48L14 48L14 47L13 47L13 48L14 48L14 49L15 49L15 50L16 50L16 49L18 49L18 50L19 50L19 49L18 49L18 48L19 48L19 46ZM28 46L28 47L29 47L29 46ZM6 47L6 48L4 48L4 50L5 50L5 51L4 51L4 52L5 52L5 51L6 51L6 52L7 52L7 51L8 51L8 50L7 50L7 49L9 49L9 48L7 48L7 47ZM1 48L1 49L3 49L3 48ZM6 48L6 49L7 49L7 48ZM38 48L38 49L39 49L39 48ZM43 48L43 49L44 49L44 50L45 50L45 49L44 49L44 48ZM30 49L30 50L29 50L29 52L30 52L30 50L31 50L31 51L33 51L33 50L34 50L34 49ZM6 50L6 51L7 51L7 50ZM24 51L24 52L22 52L22 53L21 53L21 54L20 54L20 53L18 53L18 52L17 52L17 53L16 53L16 55L15 55L15 56L14 56L14 57L13 57L13 58L14 58L14 57L17 57L17 53L18 53L18 55L20 55L20 56L19 56L19 57L21 57L21 55L22 55L22 56L23 56L23 53L24 53L24 52L25 52L25 54L26 54L26 52L25 52L25 51ZM40 51L40 52L41 52L41 51ZM42 51L42 52L43 52L43 51ZM52 51L52 53L51 53L51 55L50 55L50 53L48 53L48 54L49 54L49 59L50 59L50 60L51 60L51 59L54 59L54 58L53 58L53 56L52 56L52 57L51 57L51 58L50 58L50 56L51 56L51 55L54 55L54 57L56 57L56 55L59 55L59 56L57 56L57 57L58 57L58 58L62 58L62 59L61 59L61 60L62 60L62 59L63 59L63 57L62 57L62 56L61 56L61 57L60 57L60 55L59 55L59 53L60 53L60 54L62 54L62 55L64 55L64 59L65 59L65 55L64 55L64 54L62 54L62 53L60 53L60 52L59 52L59 53L56 53L56 52L55 52L55 53L56 53L56 55L54 55L54 53L53 53L53 52L54 52L54 51ZM4 53L4 54L5 54L5 53ZM14 53L14 54L15 54L15 53ZM52 53L52 54L53 54L53 53ZM47 55L47 57L46 57L46 58L47 58L47 57L48 57L48 55ZM66 55L66 58L68 58L68 57L67 57L67 56L68 56L68 55ZM0 56L0 61L1 61L1 56ZM26 56L26 57L27 57L27 56ZM4 58L4 59L7 59L7 58ZM58 59L58 60L57 60L57 61L58 61L58 60L59 60L59 61L60 61L60 60L59 60L59 59ZM3 60L3 61L5 61L5 60ZM39 60L39 62L38 62L38 61L37 61L37 65L39 65L39 64L38 64L38 63L40 63L40 62L41 62L41 60ZM46 60L46 63L47 63L47 60ZM52 60L52 61L51 61L51 62L50 62L50 61L49 61L49 64L50 64L50 65L51 65L51 64L52 64L52 61L53 61L53 60ZM15 61L15 63L14 63L14 64L16 64L16 65L15 65L15 66L16 66L16 65L17 65L17 64L16 64L16 61ZM33 61L33 64L36 64L36 61ZM61 61L61 64L64 64L64 61ZM17 62L17 63L18 63L18 62ZM34 62L34 63L35 63L35 62ZM62 62L62 63L63 63L63 62ZM11 63L11 64L12 64L12 65L13 65L13 64L12 64L12 63ZM61 65L61 66L62 66L62 65ZM67 65L67 66L69 66L69 65ZM26 66L26 67L27 67L27 66ZM50 66L50 68L51 68L51 67L52 67L52 66ZM29 67L29 69L31 69L31 68L30 68L30 67ZM36 68L36 69L37 69L37 68ZM68 68L68 69L69 69L69 68ZM0 0L0 7L7 7L7 0ZM1 1L1 6L6 6L6 1ZM2 2L2 5L5 5L5 2ZM62 0L62 7L69 7L69 0ZM63 1L63 6L68 6L68 1ZM64 2L64 5L67 5L67 2ZM0 62L0 69L7 69L7 62ZM1 63L1 68L6 68L6 63ZM2 64L2 67L5 67L5 64Z" fill="#000000"/></g></g></svg>
