<?xml version="1.0" encoding="UTF-8"?>
<svg xmlns="http://www.w3.org/2000/svg" version="1.1" width="300" height="300" viewBox="0 0 300 300"><rect x="0" y="0" width="300" height="300" fill="#ffffff"/><g transform="scale(4.348)"><g transform="translate(0,0)"><path fill-rule="evenodd" d="M10 0L10 1L8 1L8 2L10 2L10 3L8 3L8 4L9 4L9 5L8 5L8 7L9 7L9 8L6 8L6 9L5 9L5 8L0 8L0 9L1 9L1 10L0 10L0 12L1 12L1 10L2 10L2 13L4 13L4 14L5 14L5 13L8 13L8 14L6 14L6 15L4 15L4 16L3 16L3 14L2 14L2 16L3 16L3 18L5 18L5 17L7 17L7 18L6 18L6 19L5 19L5 21L3 21L3 20L2 20L2 21L0 21L0 22L2 22L2 23L1 23L1 24L0 24L0 26L1 26L1 27L0 27L0 29L1 29L1 30L2 30L2 31L1 31L1 32L0 32L0 33L1 33L1 35L2 35L2 34L3 34L3 33L4 33L4 35L3 35L3 37L7 37L7 38L4 38L4 39L3 39L3 38L2 38L2 37L0 37L0 39L1 39L1 42L3 42L3 41L4 41L4 39L5 39L5 42L4 42L4 44L2 44L2 45L4 45L4 46L3 46L3 47L2 47L2 46L1 46L1 47L2 47L2 48L1 48L1 49L0 49L0 54L1 54L1 55L0 55L0 56L1 56L1 58L0 58L0 61L1 61L1 58L2 58L2 59L3 59L3 58L4 58L4 59L8 59L8 60L6 60L6 61L8 61L8 63L9 63L9 62L10 62L10 63L11 63L11 61L10 61L10 60L13 60L13 62L14 62L14 63L15 63L15 64L16 64L16 63L15 63L15 61L14 61L14 60L15 60L15 59L16 59L16 60L18 60L18 61L17 61L17 62L18 62L18 63L17 63L17 64L18 64L18 65L17 65L17 66L15 66L15 67L13 67L13 66L14 66L14 65L13 65L13 66L11 66L11 69L12 69L12 68L13 68L13 69L14 69L14 68L15 68L15 69L22 69L22 68L19 68L19 67L20 67L20 66L19 66L19 65L20 65L20 63L22 63L22 62L20 62L20 61L19 61L19 59L20 59L20 57L21 57L21 58L22 58L22 59L24 59L24 60L23 60L23 63L24 63L24 64L25 64L25 65L21 65L21 67L22 67L22 66L23 66L23 67L25 67L25 68L23 68L23 69L26 69L26 67L25 67L25 65L28 65L28 66L27 66L27 67L28 67L28 68L29 68L29 69L32 69L32 68L30 68L30 67L33 67L33 69L35 69L35 68L36 68L36 69L38 69L38 68L37 68L37 67L39 67L39 68L41 68L41 66L44 66L44 68L43 68L43 67L42 67L42 68L43 68L43 69L44 69L44 68L47 68L47 69L49 69L49 68L50 68L50 69L51 69L51 68L50 68L50 64L49 64L49 63L48 63L48 64L47 64L47 65L48 65L48 66L46 66L46 64L45 64L45 63L46 63L46 62L45 62L45 61L46 61L46 58L45 58L45 61L44 61L44 59L43 59L43 57L44 57L44 56L46 56L46 57L48 57L48 58L47 58L47 59L49 59L49 58L50 58L50 57L51 57L51 55L53 55L53 54L55 54L55 53L56 53L56 54L57 54L57 55L56 55L56 56L55 56L55 57L52 57L52 58L51 58L51 59L52 59L52 58L53 58L53 60L54 60L54 61L53 61L53 62L52 62L52 61L51 61L51 63L53 63L53 62L55 62L55 64L57 64L57 65L58 65L58 64L59 64L59 63L60 63L60 66L57 66L57 67L61 67L61 68L62 68L62 67L61 67L61 66L62 66L62 65L64 65L64 66L65 66L65 64L68 64L68 61L69 61L69 59L68 59L68 57L67 57L67 58L66 58L66 57L65 57L65 60L62 60L62 57L63 57L63 56L67 56L67 55L68 55L68 56L69 56L69 55L68 55L68 54L69 54L69 53L68 53L68 54L66 54L66 55L62 55L62 54L63 54L63 53L64 53L64 51L62 51L62 50L63 50L63 49L62 49L62 48L64 48L64 47L65 47L65 48L67 48L67 49L66 49L66 50L67 50L67 51L65 51L65 53L67 53L67 52L68 52L68 50L69 50L69 49L68 49L68 48L69 48L69 47L67 47L67 46L69 46L69 45L68 45L68 41L69 41L69 40L68 40L68 38L67 38L67 37L68 37L68 36L69 36L69 35L68 35L68 34L69 34L69 33L68 33L68 34L67 34L67 35L65 35L65 34L66 34L66 32L68 32L68 28L69 28L69 27L66 27L66 26L64 26L64 27L63 27L63 26L62 26L62 21L63 21L63 20L62 20L62 19L63 19L63 18L65 18L65 20L67 20L67 22L64 22L64 23L63 23L63 24L65 24L65 25L67 25L67 26L69 26L69 23L68 23L68 18L69 18L69 17L67 17L67 15L68 15L68 13L67 13L67 14L64 14L64 13L63 13L63 14L64 14L64 15L62 15L62 12L63 12L63 11L65 11L65 12L68 12L68 10L69 10L69 9L68 9L68 8L67 8L67 9L66 9L66 8L65 8L65 9L64 9L64 8L63 8L63 11L62 11L62 8L61 8L61 6L60 6L60 8L59 8L59 10L57 10L57 11L56 11L56 10L55 10L55 9L56 9L56 7L57 7L57 6L56 6L56 5L57 5L57 4L58 4L58 7L59 7L59 4L58 4L58 3L59 3L59 2L58 2L58 1L61 1L61 0L58 0L58 1L57 1L57 0L53 0L53 1L52 1L52 0L51 0L51 2L50 2L50 0L49 0L49 2L50 2L50 4L49 4L49 3L48 3L48 2L47 2L47 1L48 1L48 0L47 0L47 1L46 1L46 0L44 0L44 1L46 1L46 2L47 2L47 3L48 3L48 4L47 4L47 5L48 5L48 4L49 4L49 5L50 5L50 7L51 7L51 6L52 6L52 7L53 7L53 5L54 5L54 7L55 7L55 8L54 8L54 9L52 9L52 10L53 10L53 11L55 11L55 12L57 12L57 13L59 13L59 15L62 15L62 16L59 16L59 19L57 19L57 18L56 18L56 15L57 15L57 16L58 16L58 15L57 15L57 14L56 14L56 13L52 13L52 14L55 14L55 15L53 15L53 18L52 18L52 17L51 17L51 18L49 18L49 17L50 17L50 16L51 16L51 15L50 15L50 16L47 16L47 15L46 15L46 14L45 14L45 13L46 13L46 12L45 12L45 13L44 13L44 11L43 11L43 13L42 13L42 14L41 14L41 12L42 12L42 10L45 10L45 9L46 9L46 7L47 7L47 10L49 10L49 11L50 11L50 13L49 13L49 12L47 12L47 14L50 14L50 13L51 13L51 12L52 12L52 11L51 11L51 10L50 10L50 9L51 9L51 8L49 8L49 6L48 6L48 7L47 7L47 6L46 6L46 5L44 5L44 3L45 3L45 4L46 4L46 3L45 3L45 2L44 2L44 3L43 3L43 0L39 0L39 1L38 1L38 0L37 0L37 1L33 1L33 2L35 2L35 4L32 4L32 2L31 2L31 1L30 1L30 0L28 0L28 1L26 1L26 3L25 3L25 2L22 2L22 1L25 1L25 0L21 0L21 2L22 2L22 3L19 3L19 2L20 2L20 1L19 1L19 0L17 0L17 1L19 1L19 2L18 2L18 3L16 3L16 2L15 2L15 0L14 0L14 3L13 3L13 1L12 1L12 0ZM37 1L37 3L36 3L36 4L37 4L37 5L38 5L38 6L37 6L37 8L38 8L38 10L36 10L36 9L31 9L31 8L32 8L32 5L30 5L30 4L29 4L29 3L30 3L30 2L29 2L29 3L28 3L28 2L27 2L27 3L26 3L26 4L27 4L27 5L24 5L24 6L23 6L23 5L22 5L22 4L24 4L24 3L22 3L22 4L19 4L19 5L20 5L20 6L19 6L19 7L18 7L18 5L17 5L17 4L16 4L16 5L17 5L17 7L16 7L16 6L15 6L15 5L13 5L13 7L14 7L14 6L15 6L15 8L10 8L10 9L9 9L9 11L8 11L8 13L10 13L10 12L9 12L9 11L11 11L11 12L13 12L13 13L11 13L11 14L12 14L12 15L10 15L10 14L8 14L8 15L9 15L9 16L10 16L10 18L12 18L12 17L15 17L15 15L14 15L14 13L15 13L15 14L18 14L18 15L16 15L16 20L15 20L15 18L13 18L13 19L12 19L12 21L11 21L11 20L10 20L10 22L9 22L9 20L7 20L7 19L9 19L9 18L7 18L7 19L6 19L6 20L7 20L7 21L6 21L6 22L5 22L5 23L4 23L4 24L3 24L3 23L2 23L2 24L1 24L1 25L2 25L2 27L1 27L1 29L2 29L2 30L3 30L3 31L2 31L2 32L3 32L3 31L4 31L4 32L8 32L8 30L7 30L7 29L8 29L8 28L9 28L9 29L10 29L10 30L9 30L9 35L10 35L10 36L9 36L9 38L10 38L10 39L12 39L12 37L13 37L13 36L14 36L14 37L15 37L15 39L16 39L16 38L19 38L19 39L17 39L17 40L13 40L13 42L12 42L12 43L11 43L11 42L10 42L10 41L12 41L12 40L10 40L10 41L8 41L8 40L9 40L9 39L8 39L8 40L7 40L7 39L6 39L6 40L7 40L7 41L6 41L6 42L5 42L5 44L7 44L7 43L8 43L8 45L13 45L13 44L15 44L15 43L16 43L16 44L19 44L19 45L20 45L20 46L18 46L18 45L15 45L15 46L18 46L18 47L17 47L17 48L16 48L16 49L15 49L15 47L14 47L14 46L12 46L12 47L11 47L11 48L10 48L10 46L9 46L9 47L8 47L8 48L7 48L7 47L6 47L6 46L7 46L7 45L5 45L5 46L4 46L4 50L5 50L5 49L6 49L6 50L10 50L10 51L11 51L11 52L9 52L9 51L8 51L8 55L6 55L6 54L7 54L7 53L5 53L5 54L3 54L3 52L4 52L4 51L3 51L3 52L2 52L2 50L1 50L1 52L2 52L2 55L4 55L4 56L2 56L2 57L5 57L5 56L7 56L7 57L6 57L6 58L8 58L8 59L9 59L9 58L10 58L10 59L12 59L12 57L13 57L13 59L14 59L14 58L16 58L16 57L17 57L17 56L19 56L19 57L20 57L20 56L21 56L21 57L22 57L22 58L24 58L24 57L22 57L22 56L21 56L21 55L22 55L22 54L23 54L23 53L24 53L24 52L23 52L23 51L24 51L24 50L21 50L21 51L22 51L22 52L20 52L20 55L19 55L19 54L18 54L18 53L15 53L15 52L17 52L17 51L18 51L18 49L26 49L26 50L25 50L25 51L26 51L26 55L25 55L25 54L24 54L24 55L25 55L25 56L26 56L26 59L27 59L27 60L26 60L26 62L27 62L27 63L28 63L28 65L29 65L29 66L32 66L32 65L29 65L29 64L30 64L30 63L32 63L32 60L34 60L34 59L36 59L36 58L37 58L37 59L38 59L38 58L39 58L39 57L41 57L41 56L39 56L39 54L40 54L40 55L41 55L41 54L40 54L40 53L41 53L41 52L42 52L42 53L43 53L43 54L42 54L42 55L43 55L43 56L42 56L42 57L43 57L43 56L44 56L44 53L45 53L45 54L46 54L46 56L47 56L47 55L51 55L51 53L55 53L55 52L56 52L56 53L57 53L57 54L58 54L58 57L57 57L57 56L56 56L56 58L57 58L57 59L55 59L55 58L54 58L54 60L56 60L56 61L57 61L57 62L56 62L56 63L58 63L58 62L60 62L60 60L61 60L61 59L60 59L60 60L58 60L58 59L59 59L59 57L60 57L60 56L61 56L61 55L60 55L60 54L62 54L62 53L63 53L63 52L62 52L62 51L58 51L58 52L59 52L59 53L57 53L57 50L59 50L59 49L60 49L60 50L62 50L62 49L60 49L60 48L62 48L62 47L63 47L63 46L65 46L65 47L66 47L66 44L65 44L65 43L67 43L67 41L68 41L68 40L67 40L67 41L66 41L66 40L65 40L65 41L63 41L63 39L65 39L65 37L66 37L66 36L65 36L65 37L64 37L64 38L63 38L63 37L62 37L62 43L60 43L60 44L59 44L59 45L57 45L57 43L59 43L59 41L61 41L61 37L60 37L60 35L58 35L58 34L60 34L60 32L59 32L59 31L60 31L60 30L59 30L59 28L61 28L61 29L62 29L62 31L63 31L63 32L64 32L64 31L67 31L67 28L66 28L66 29L65 29L65 28L63 28L63 27L62 27L62 28L61 28L61 26L60 26L60 27L59 27L59 25L57 25L57 24L58 24L58 23L61 23L61 22L60 22L60 21L62 21L62 20L61 20L61 19L62 19L62 18L63 18L63 17L65 17L65 18L66 18L66 19L67 19L67 18L66 18L66 16L65 16L65 15L64 15L64 16L62 16L62 18L61 18L61 19L59 19L59 20L57 20L57 19L56 19L56 21L55 21L55 22L56 22L56 23L55 23L55 24L56 24L56 25L55 25L55 27L54 27L54 26L52 26L52 25L53 25L53 23L54 23L54 22L53 22L53 20L49 20L49 19L47 19L47 16L44 16L44 15L45 15L45 14L44 14L44 13L43 13L43 14L42 14L42 15L40 15L40 14L39 14L39 13L40 13L40 12L41 12L41 9L43 9L43 8L44 8L44 9L45 9L45 7L46 7L46 6L45 6L45 7L44 7L44 5L41 5L41 4L42 4L42 3L41 3L41 2L42 2L42 1L41 1L41 2L38 2L38 1ZM55 1L55 3L56 3L56 4L55 4L55 5L56 5L56 4L57 4L57 1ZM11 2L11 3L10 3L10 5L9 5L9 7L10 7L10 6L11 6L11 7L12 7L12 5L11 5L11 3L12 3L12 4L13 4L13 3L12 3L12 2ZM51 2L51 4L50 4L50 5L51 5L51 4L52 4L52 5L53 5L53 4L54 4L54 2ZM14 3L14 4L15 4L15 3ZM27 3L27 4L28 4L28 3ZM37 3L37 4L38 4L38 3ZM60 3L60 5L61 5L61 3ZM39 4L39 5L40 5L40 8L39 8L39 10L38 10L38 12L37 12L37 13L36 13L36 12L34 12L34 13L33 13L33 14L34 14L34 13L35 13L35 15L36 15L36 16L35 16L35 17L33 17L33 16L34 16L34 15L33 15L33 16L32 16L32 14L31 14L31 13L32 13L32 12L31 12L31 11L32 11L32 10L31 10L31 9L30 9L30 8L28 8L28 7L29 7L29 6L30 6L30 7L31 7L31 6L30 6L30 5L27 5L27 6L26 6L26 8L25 8L25 6L24 6L24 9L23 9L23 10L24 10L24 9L26 9L26 8L28 8L28 9L30 9L30 10L31 10L31 11L26 11L26 10L25 10L25 11L26 11L26 12L25 12L25 13L23 13L23 14L24 14L24 15L23 15L23 17L24 17L24 18L26 18L26 20L25 20L25 21L23 21L23 22L22 22L22 21L21 21L21 22L22 22L22 23L21 23L21 24L22 24L22 25L21 25L21 28L23 28L23 29L22 29L22 30L23 30L23 31L22 31L22 32L23 32L23 33L22 33L22 36L24 36L24 35L23 35L23 34L25 34L25 37L23 37L23 38L25 38L25 40L24 40L24 39L23 39L23 40L24 40L24 41L23 41L23 42L20 42L20 41L22 41L22 40L21 40L21 39L22 39L22 38L20 38L20 36L17 36L17 35L18 35L18 34L19 34L19 35L20 35L20 34L19 34L19 33L20 33L20 31L19 31L19 30L20 30L20 28L19 28L19 27L18 27L18 26L20 26L20 25L19 25L19 24L20 24L20 23L18 23L18 24L17 24L17 25L16 25L16 24L15 24L15 22L17 22L17 21L19 21L19 22L20 22L20 21L19 21L19 20L21 20L21 19L22 19L22 20L23 20L23 19L22 19L22 18L21 18L21 17L18 17L18 16L17 16L17 17L18 17L18 19L19 19L19 20L17 20L17 21L12 21L12 22L10 22L10 24L12 24L12 25L13 25L13 23L14 23L14 26L13 26L13 28L11 28L11 25L8 25L8 24L9 24L9 23L7 23L7 22L6 22L6 23L5 23L5 24L6 24L6 25L5 25L5 26L3 26L3 27L2 27L2 28L3 28L3 30L4 30L4 28L6 28L6 29L7 29L7 28L6 28L6 27L8 27L8 26L10 26L10 27L9 27L9 28L11 28L11 29L12 29L12 30L15 30L15 29L13 29L13 28L15 28L15 27L16 27L16 28L18 28L18 29L17 29L17 30L18 30L18 31L16 31L16 32L15 32L15 31L13 31L13 32L15 32L15 33L14 33L14 34L13 34L13 35L12 35L12 34L11 34L11 33L12 33L12 32L11 32L11 33L10 33L10 35L11 35L11 37L12 37L12 36L13 36L13 35L14 35L14 34L15 34L15 35L16 35L16 36L15 36L15 37L19 37L19 38L20 38L20 40L17 40L17 42L18 42L18 43L19 43L19 44L21 44L21 43L23 43L23 44L24 44L24 45L23 45L23 46L24 46L24 47L25 47L25 48L26 48L26 47L25 47L25 46L26 46L26 43L28 43L28 44L27 44L27 45L30 45L30 47L29 47L29 46L27 46L27 48L28 48L28 47L29 47L29 49L31 49L31 50L33 50L33 51L34 51L34 50L36 50L36 51L35 51L35 52L38 52L38 53L37 53L37 54L35 54L35 56L37 56L37 58L38 58L38 55L37 55L37 54L39 54L39 51L41 51L41 50L42 50L42 52L43 52L43 53L44 53L44 52L45 52L45 53L49 53L49 54L50 54L50 53L51 53L51 52L50 52L50 47L51 47L51 48L52 48L52 46L55 46L55 47L54 47L54 49L52 49L52 50L51 50L51 51L52 51L52 50L53 50L53 52L55 52L55 49L56 49L56 50L57 50L57 49L59 49L59 48L58 48L58 46L57 46L57 45L56 45L56 44L55 44L55 43L56 43L56 40L57 40L57 41L59 41L59 40L58 40L58 39L57 39L57 38L56 38L56 36L57 36L57 37L58 37L58 35L56 35L56 36L55 36L55 35L54 35L54 34L55 34L55 33L56 33L56 32L58 32L58 33L57 33L57 34L58 34L58 33L59 33L59 32L58 32L58 31L59 31L59 30L57 30L57 29L56 29L56 28L54 28L54 27L53 27L53 29L51 29L51 30L53 30L53 31L51 31L51 32L54 32L54 31L56 31L56 32L55 32L55 33L52 33L52 34L53 34L53 35L51 35L51 34L49 34L49 31L50 31L50 29L49 29L49 28L50 28L50 27L51 27L51 28L52 28L52 27L51 27L51 26L50 26L50 25L49 25L49 24L50 24L50 23L49 23L49 24L48 24L48 22L50 22L50 21L49 21L49 20L46 20L46 21L48 21L48 22L47 22L47 24L46 24L46 22L44 22L44 20L43 20L43 17L44 17L44 16L42 16L42 17L41 17L41 18L39 18L39 19L37 19L37 18L38 18L38 17L39 17L39 16L40 16L40 15L39 15L39 14L38 14L38 12L40 12L40 11L39 11L39 10L40 10L40 8L41 8L41 5L40 5L40 4ZM21 5L21 6L20 6L20 9L19 9L19 8L18 8L18 7L17 7L17 8L15 8L15 11L14 11L14 12L16 12L16 13L18 13L18 14L19 14L19 16L20 16L20 12L22 12L22 11L19 11L19 10L20 10L20 9L22 9L22 8L21 8L21 6L22 6L22 7L23 7L23 6L22 6L22 5ZM33 5L33 8L36 8L36 5ZM27 6L27 7L28 7L28 6ZM34 6L34 7L35 7L35 6ZM38 6L38 7L39 7L39 6ZM42 6L42 7L43 7L43 6ZM55 6L55 7L56 7L56 6ZM60 8L60 9L61 9L61 8ZM3 9L3 10L5 10L5 11L3 11L3 12L4 12L4 13L5 13L5 12L7 12L7 11L6 11L6 10L8 10L8 9L6 9L6 10L5 10L5 9ZM10 9L10 10L11 10L11 11L13 11L13 9L12 9L12 10L11 10L11 9ZM67 9L67 10L68 10L68 9ZM16 10L16 11L18 11L18 12L19 12L19 11L18 11L18 10ZM35 10L35 11L36 11L36 10ZM59 10L59 11L61 11L61 12L60 12L60 13L61 13L61 12L62 12L62 11L61 11L61 10ZM65 10L65 11L66 11L66 10ZM23 11L23 12L24 12L24 11ZM26 12L26 13L25 13L25 15L26 15L26 16L24 16L24 17L26 17L26 18L27 18L27 19L28 19L28 20L26 20L26 22L27 22L27 23L26 23L26 26L27 26L27 27L25 27L25 28L26 28L26 29L25 29L25 30L28 30L28 31L27 31L27 32L28 32L28 33L25 33L25 34L26 34L26 37L27 37L27 38L26 38L26 41L24 41L24 42L23 42L23 43L24 43L24 44L25 44L25 42L26 42L26 41L27 41L27 42L29 42L29 44L30 44L30 43L33 43L33 45L32 45L32 44L31 44L31 47L30 47L30 48L31 48L31 49L33 49L33 50L34 50L34 49L36 49L36 50L37 50L37 51L38 51L38 50L41 50L41 49L42 49L42 48L43 48L43 46L42 46L42 45L41 45L41 46L42 46L42 48L41 48L41 47L40 47L40 46L39 46L39 45L40 45L40 44L41 44L41 43L40 43L40 41L41 41L41 40L44 40L44 42L43 42L43 43L44 43L44 45L45 45L45 46L44 46L44 49L43 49L43 50L44 50L44 49L45 49L45 52L46 52L46 51L47 51L47 50L49 50L49 49L47 49L47 47L49 47L49 46L52 46L52 45L53 45L53 43L54 43L54 42L53 42L53 43L51 43L51 41L53 41L53 40L52 40L52 39L54 39L54 38L53 38L53 36L51 36L51 37L50 37L50 36L49 36L49 34L47 34L47 33L45 33L45 32L44 32L44 31L45 31L45 30L47 30L47 29L45 29L45 28L46 28L46 27L47 27L47 28L49 28L49 27L47 27L47 25L48 25L48 24L47 24L47 25L46 25L46 24L45 24L45 23L44 23L44 22L43 22L43 24L44 24L44 25L43 25L43 26L46 26L46 27L44 27L44 29L43 29L43 30L42 30L42 27L39 27L39 28L40 28L40 29L38 29L38 26L41 26L41 25L42 25L42 24L38 24L38 23L42 23L42 22L37 22L37 23L36 23L36 24L37 24L37 25L38 25L38 26L37 26L37 29L38 29L38 30L37 30L37 31L35 31L35 32L37 32L37 31L38 31L38 30L40 30L40 31L43 31L43 32L39 32L39 33L38 33L38 34L37 34L37 36L38 36L38 37L36 37L36 39L37 39L37 38L38 38L38 39L41 39L41 40L38 40L38 44L37 44L37 45L38 45L38 46L37 46L37 47L36 47L36 46L35 46L35 47L32 47L32 46L34 46L34 45L35 45L35 42L34 42L34 41L35 41L35 37L34 37L34 38L32 38L32 36L31 36L31 38L30 38L30 37L29 37L29 36L30 36L30 35L29 35L29 36L28 36L28 35L27 35L27 34L28 34L28 33L30 33L30 34L31 34L31 35L32 35L32 34L31 34L31 33L32 33L32 32L34 32L34 31L33 31L33 30L34 30L34 29L35 29L35 30L36 30L36 28L35 28L35 27L36 27L36 26L34 26L34 27L33 27L33 25L35 25L35 23L34 23L34 22L36 22L36 18L37 18L37 17L36 17L36 18L35 18L35 19L34 19L34 18L33 18L33 19L32 19L32 20L33 20L33 21L30 21L30 20L29 20L29 19L30 19L30 18L29 18L29 15L30 15L30 16L31 16L31 15L30 15L30 14L29 14L29 12ZM21 13L21 14L22 14L22 13ZM26 13L26 14L27 14L27 15L29 15L29 14L27 14L27 13ZM0 14L0 18L1 18L1 19L0 19L0 20L1 20L1 19L2 19L2 17L1 17L1 14ZM37 14L37 16L38 16L38 14ZM6 15L6 16L7 16L7 15ZM4 16L4 17L5 17L5 16ZM11 16L11 17L12 17L12 16ZM54 16L54 17L55 17L55 16ZM27 17L27 18L28 18L28 17ZM19 18L19 19L20 19L20 18ZM44 18L44 19L46 19L46 18ZM51 18L51 19L52 19L52 18ZM53 18L53 19L54 19L54 20L55 20L55 19L54 19L54 18ZM33 19L33 20L34 20L34 21L33 21L33 22L30 22L30 21L29 21L29 20L28 20L28 21L27 21L27 22L28 22L28 21L29 21L29 22L30 22L30 23L28 23L28 25L27 25L27 26L28 26L28 27L27 27L27 28L28 28L28 29L31 29L31 30L30 30L30 31L28 31L28 32L30 32L30 33L31 33L31 32L32 32L32 31L31 31L31 30L33 30L33 27L30 27L30 28L29 28L29 26L31 26L31 25L33 25L33 24L31 24L31 23L33 23L33 22L34 22L34 21L35 21L35 20L34 20L34 19ZM40 19L40 20L39 20L39 21L43 21L43 20L42 20L42 19ZM37 20L37 21L38 21L38 20ZM59 20L59 21L60 21L60 20ZM2 21L2 22L3 22L3 21ZM51 21L51 23L53 23L53 22L52 22L52 21ZM6 23L6 24L7 24L7 23ZM23 23L23 24L25 24L25 23ZM56 23L56 24L57 24L57 23ZM67 23L67 24L68 24L68 23ZM2 24L2 25L3 25L3 24ZM29 24L29 25L28 25L28 26L29 26L29 25L30 25L30 24ZM6 25L6 26L5 26L5 27L6 27L6 26L7 26L7 25ZM15 25L15 26L16 26L16 25ZM22 25L22 27L23 27L23 28L24 28L24 27L23 27L23 26L24 26L24 25ZM56 25L56 27L57 27L57 28L59 28L59 27L58 27L58 26L57 26L57 25ZM31 28L31 29L32 29L32 28ZM18 29L18 30L19 30L19 29ZM44 29L44 30L43 30L43 31L44 31L44 30L45 30L45 29ZM48 29L48 30L49 30L49 29ZM64 29L64 30L65 30L65 29ZM6 30L6 31L7 31L7 30ZM56 30L56 31L57 31L57 30ZM24 31L24 32L26 32L26 31ZM46 31L46 32L47 32L47 31ZM17 32L17 33L15 33L15 34L17 34L17 33L18 33L18 32ZM43 32L43 33L40 33L40 35L41 35L41 36L43 36L43 37L41 37L41 38L43 38L43 39L45 39L45 40L47 40L47 41L49 41L49 42L46 42L46 44L45 44L45 45L47 45L47 46L46 46L46 47L45 47L45 49L46 49L46 47L47 47L47 46L49 46L49 45L50 45L50 43L49 43L49 42L50 42L50 41L49 41L49 38L50 38L50 37L49 37L49 36L45 36L45 33L44 33L44 32ZM5 33L5 36L8 36L8 33ZM33 33L33 36L36 36L36 33ZM43 33L43 34L41 34L41 35L43 35L43 36L44 36L44 37L45 37L45 38L47 38L47 40L48 40L48 38L49 38L49 37L48 37L48 38L47 38L47 37L45 37L45 36L44 36L44 33ZM61 33L61 36L64 36L64 33ZM6 34L6 35L7 35L7 34ZM34 34L34 35L35 35L35 34ZM62 34L62 35L63 35L63 34ZM67 35L67 36L68 36L68 35ZM27 36L27 37L28 37L28 36ZM54 36L54 37L55 37L55 36ZM51 37L51 38L52 38L52 37ZM59 37L59 39L60 39L60 37ZM1 38L1 39L2 39L2 38ZM13 38L13 39L14 39L14 38ZM27 38L27 39L28 39L28 40L27 40L27 41L30 41L30 42L33 42L33 41L34 41L34 40L33 40L33 41L30 41L30 40L29 40L29 39L30 39L30 38L29 38L29 39L28 39L28 38ZM55 38L55 40L56 40L56 38ZM66 38L66 39L67 39L67 38ZM31 39L31 40L32 40L32 39ZM2 40L2 41L3 41L3 40ZM15 41L15 42L14 42L14 43L15 43L15 42L16 42L16 41ZM6 42L6 43L7 43L7 42ZM8 42L8 43L9 43L9 42ZM19 42L19 43L20 43L20 42ZM36 42L36 43L37 43L37 42ZM44 42L44 43L45 43L45 42ZM63 42L63 43L62 43L62 46L61 46L61 45L59 45L59 46L60 46L60 47L62 47L62 46L63 46L63 45L64 45L64 44L63 44L63 43L65 43L65 42ZM0 43L0 44L1 44L1 43ZM12 43L12 44L13 44L13 43ZM39 43L39 44L40 44L40 43ZM48 43L48 44L49 44L49 43ZM54 44L54 45L55 45L55 46L56 46L56 45L55 45L55 44ZM21 45L21 46L20 46L20 47L19 47L19 48L22 48L22 45ZM5 47L5 48L6 48L6 49L7 49L7 48L6 48L6 47ZM35 47L35 48L36 48L36 47ZM37 47L37 48L38 48L38 47ZM39 47L39 48L40 48L40 47ZM2 48L2 49L3 49L3 48ZM9 48L9 49L10 49L10 48ZM12 48L12 53L13 53L13 51L15 51L15 49L14 49L14 48ZM17 48L17 49L18 49L18 48ZM56 48L56 49L57 49L57 48ZM27 49L27 50L26 50L26 51L27 51L27 53L29 53L29 54L27 54L27 55L29 55L29 56L30 56L30 57L29 57L29 59L28 59L28 61L27 61L27 62L28 62L28 63L29 63L29 62L31 62L31 60L32 60L32 59L33 59L33 57L32 57L32 59L31 59L31 56L32 56L32 55L31 55L31 53L32 53L32 54L33 54L33 56L34 56L34 54L33 54L33 53L34 53L34 52L32 52L32 51L30 51L30 50L29 50L29 52L28 52L28 51L27 51L27 50L28 50L28 49ZM37 49L37 50L38 50L38 49ZM16 50L16 51L17 51L17 50ZM19 50L19 51L20 51L20 50ZM5 51L5 52L7 52L7 51ZM43 51L43 52L44 52L44 51ZM49 52L49 53L50 53L50 52ZM9 53L9 54L10 54L10 53ZM21 53L21 54L22 54L22 53ZM59 53L59 54L60 54L60 53ZM11 54L11 55L12 55L12 56L13 56L13 57L16 57L16 56L15 56L15 55L16 55L16 54L15 54L15 55L12 55L12 54ZM29 54L29 55L30 55L30 54ZM8 55L8 56L9 56L9 57L8 57L8 58L9 58L9 57L10 57L10 56L9 56L9 55ZM27 56L27 57L28 57L28 56ZM49 56L49 57L50 57L50 56ZM18 58L18 59L19 59L19 58ZM41 58L41 59L40 59L40 62L39 62L39 61L38 61L38 64L39 64L39 65L38 65L38 66L39 66L39 67L40 67L40 66L41 66L41 64L44 64L44 66L45 66L45 67L46 67L46 66L45 66L45 64L44 64L44 63L45 63L45 62L44 62L44 61L43 61L43 60L42 60L42 58ZM63 58L63 59L64 59L64 58ZM29 59L29 60L30 60L30 59ZM67 59L67 61L68 61L68 59ZM3 60L3 61L5 61L5 60ZM24 60L24 61L25 61L25 60ZM41 60L41 62L42 62L42 63L43 63L43 61L42 61L42 60ZM47 60L47 62L50 62L50 60ZM65 60L65 61L66 61L66 60ZM18 61L18 62L19 62L19 63L20 63L20 62L19 62L19 61ZM28 61L28 62L29 62L29 61ZM33 61L33 64L36 64L36 61ZM61 61L61 64L64 64L64 61ZM34 62L34 63L35 63L35 62ZM62 62L62 63L63 63L63 62ZM65 62L65 63L66 63L66 62ZM12 63L12 64L13 64L13 63ZM25 63L25 64L26 64L26 63ZM39 63L39 64L41 64L41 63ZM8 64L8 69L9 69L9 66L10 66L10 65L11 65L11 64L10 64L10 65L9 65L9 64ZM34 65L34 66L33 66L33 67L34 67L34 66L35 66L35 67L37 67L37 65ZM54 65L54 66L53 66L53 67L54 67L54 66L56 66L56 65ZM51 66L51 67L52 67L52 66ZM66 66L66 67L65 67L65 68L64 68L64 67L63 67L63 68L64 68L64 69L65 69L65 68L67 68L67 69L68 69L68 68L67 68L67 66ZM16 67L16 68L17 68L17 67ZM48 67L48 68L49 68L49 67ZM55 67L55 69L56 69L56 67ZM0 0L0 7L7 7L7 0ZM1 1L1 6L6 6L6 1ZM2 2L2 5L5 5L5 2ZM62 0L62 7L69 7L69 0ZM63 1L63 6L68 6L68 1ZM64 2L64 5L67 5L67 2ZM0 62L0 69L7 69L7 62ZM1 63L1 68L6 68L6 63ZM2 64L2 67L5 67L5 64Z" fill="#000000"/></g></g></svg>
