<?xml version="1.0" encoding="UTF-8"?>
<svg xmlns="http://www.w3.org/2000/svg" version="1.1" width="300" height="300" viewBox="0 0 300 300"><rect x="0" y="0" width="300" height="300" fill="#ffffff"/><g transform="scale(4.348)"><g transform="translate(0,0)"><path fill-rule="evenodd" d="M15 0L15 2L16 2L16 4L15 4L15 3L11 3L11 2L12 2L12 1L10 1L10 4L9 4L9 3L8 3L8 4L9 4L9 5L8 5L8 7L9 7L9 6L10 6L10 8L6 8L6 9L8 9L8 10L6 10L6 11L5 11L5 10L4 10L4 9L5 9L5 8L0 8L0 12L1 12L1 13L0 13L0 15L1 15L1 16L2 16L2 17L0 17L0 19L1 19L1 20L0 20L0 24L2 24L2 25L3 25L3 24L4 24L4 25L5 25L5 26L6 26L6 27L5 27L5 28L4 28L4 29L3 29L3 27L2 27L2 26L1 26L1 25L0 25L0 26L1 26L1 27L0 27L0 28L2 28L2 30L0 30L0 32L1 32L1 33L0 33L0 35L1 35L1 36L0 36L0 38L1 38L1 37L2 37L2 39L3 39L3 38L4 38L4 40L3 40L3 41L4 41L4 40L5 40L5 42L6 42L6 43L5 43L5 44L3 44L3 43L2 43L2 42L0 42L0 46L1 46L1 47L0 47L0 48L1 48L1 49L0 49L0 50L1 50L1 51L0 51L0 52L2 52L2 54L1 54L1 53L0 53L0 54L1 54L1 57L0 57L0 61L1 61L1 58L2 58L2 59L3 59L3 57L2 57L2 56L3 56L3 55L4 55L4 59L7 59L7 58L8 58L8 57L9 57L9 55L7 55L7 54L9 54L9 52L8 52L8 53L7 53L7 52L6 52L6 51L8 51L8 50L9 50L9 51L10 51L10 52L11 52L11 53L10 53L10 54L11 54L11 56L12 56L12 58L11 58L11 57L10 57L10 58L9 58L9 60L8 60L8 63L9 63L9 64L8 64L8 69L14 69L14 67L13 67L13 66L12 66L12 65L15 65L15 64L14 64L14 63L13 63L13 64L12 64L12 62L11 62L11 63L9 63L9 61L10 61L10 58L11 58L11 60L13 60L13 59L14 59L14 61L13 61L13 62L15 62L15 63L16 63L16 64L18 64L18 65L17 65L17 67L20 67L20 66L19 66L19 65L20 65L20 64L21 64L21 63L23 63L23 62L25 62L25 63L26 63L26 64L23 64L23 67L22 67L22 66L21 66L21 67L22 67L22 68L24 68L24 69L26 69L26 68L27 68L27 69L28 69L28 68L29 68L29 69L32 69L32 68L31 68L31 67L33 67L33 66L34 66L34 68L36 68L36 69L38 69L38 68L37 68L37 67L39 67L39 68L42 68L42 69L44 69L44 68L48 68L48 69L50 69L50 67L49 67L49 66L50 66L50 65L49 65L49 63L47 63L47 66L46 66L46 64L45 64L45 63L46 63L46 62L45 62L45 61L46 61L46 60L47 60L47 62L50 62L50 61L49 61L49 60L47 60L47 59L48 59L48 57L51 57L51 58L49 58L49 59L51 59L51 60L52 60L52 59L51 59L51 58L52 58L52 57L51 57L51 56L49 56L49 55L50 55L50 53L49 53L49 52L55 52L55 53L53 53L53 54L51 54L51 55L53 55L53 54L55 54L55 53L56 53L56 55L54 55L54 57L53 57L53 58L55 58L55 61L51 61L51 63L50 63L50 64L52 64L52 62L54 62L54 63L53 63L53 66L52 66L52 65L51 65L51 66L52 66L52 67L58 67L58 68L57 68L57 69L59 69L59 68L60 68L60 69L64 69L64 68L65 68L65 69L68 69L68 68L67 68L67 67L66 67L66 66L65 66L65 64L67 64L67 65L68 65L68 64L69 64L69 63L68 63L68 64L67 64L67 62L69 62L69 61L67 61L67 60L69 60L69 59L68 59L68 58L67 58L67 59L65 59L65 60L63 60L63 59L64 59L64 58L63 58L63 59L62 59L62 57L65 57L65 58L66 58L66 57L67 57L67 55L68 55L68 56L69 56L69 55L68 55L68 54L69 54L69 53L68 53L68 54L67 54L67 53L65 53L65 55L62 55L62 54L63 54L63 53L64 53L64 52L63 52L63 51L64 51L64 50L63 50L63 51L61 51L61 50L62 50L62 49L65 49L65 48L67 48L67 47L68 47L68 48L69 48L69 47L68 47L68 46L69 46L69 44L68 44L68 42L69 42L69 40L68 40L68 42L67 42L67 39L68 39L68 36L69 36L69 35L68 35L68 34L69 34L69 32L68 32L68 34L67 34L67 33L66 33L66 32L67 32L67 31L68 31L68 30L67 30L67 31L65 31L65 30L64 30L64 29L63 29L63 30L64 30L64 32L63 32L63 31L62 31L62 29L61 29L61 28L62 28L62 27L61 27L61 26L62 26L62 25L59 25L59 26L60 26L60 27L57 27L57 26L56 26L56 27L54 27L54 26L55 26L55 25L56 25L56 18L57 18L57 17L59 17L59 19L58 19L58 20L57 20L57 21L60 21L60 22L58 22L58 23L60 23L60 24L62 24L62 23L63 23L63 24L67 24L67 23L68 23L68 25L69 25L69 23L68 23L68 22L67 22L67 21L68 21L68 18L69 18L69 17L67 17L67 15L68 15L68 16L69 16L69 15L68 15L68 12L69 12L69 11L68 11L68 12L67 12L67 10L69 10L69 9L68 9L68 8L67 8L67 9L66 9L66 8L65 8L65 10L64 10L64 11L63 11L63 10L62 10L62 8L61 8L61 6L60 6L60 8L59 8L59 4L57 4L57 6L56 6L56 2L55 2L55 0L51 0L51 3L50 3L50 0L49 0L49 3L47 3L47 4L49 4L49 6L48 6L48 7L47 7L47 6L46 6L46 5L44 5L44 3L45 3L45 4L46 4L46 3L45 3L45 2L47 2L47 1L48 1L48 0L47 0L47 1L45 1L45 0L44 0L44 1L45 1L45 2L44 2L44 3L43 3L43 0L39 0L39 1L38 1L38 0L37 0L37 1L36 1L36 0L35 0L35 1L34 1L34 0L33 0L33 1L32 1L32 4L31 4L31 3L29 3L29 1L30 1L30 0L28 0L28 1L27 1L27 2L26 2L26 1L25 1L25 0L23 0L23 1L22 1L22 2L23 2L23 1L25 1L25 2L26 2L26 3L25 3L25 4L24 4L24 3L23 3L23 4L22 4L22 3L20 3L20 4L19 4L19 2L20 2L20 1L19 1L19 0ZM56 0L56 1L57 1L57 3L59 3L59 2L58 2L58 1L61 1L61 0ZM8 1L8 2L9 2L9 1ZM17 1L17 3L18 3L18 1ZM33 1L33 3L35 3L35 2L36 2L36 1L35 1L35 2L34 2L34 1ZM37 1L37 3L36 3L36 4L37 4L37 5L38 5L38 6L37 6L37 7L38 7L38 8L37 8L37 9L38 9L38 11L37 11L37 10L36 10L36 9L35 9L35 10L34 10L34 9L31 9L31 8L32 8L32 5L30 5L30 4L29 4L29 3L28 3L28 2L27 2L27 3L26 3L26 4L25 4L25 7L24 7L24 4L23 4L23 5L22 5L22 4L20 4L20 5L18 5L18 4L16 4L16 5L18 5L18 6L17 6L17 8L19 8L19 9L20 9L20 10L22 10L22 11L21 11L21 13L19 13L19 14L18 14L18 15L17 15L17 14L15 14L15 15L17 15L17 16L16 16L16 17L17 17L17 18L16 18L16 21L15 21L15 20L14 20L14 19L15 19L15 16L14 16L14 17L12 17L12 15L11 15L11 16L10 16L10 15L9 15L9 14L10 14L10 12L11 12L11 11L16 11L16 12L14 12L14 13L17 13L17 11L19 11L19 12L20 12L20 11L19 11L19 10L17 10L17 9L16 9L16 8L15 8L15 7L16 7L16 6L15 6L15 7L14 7L14 5L13 5L13 4L12 4L12 5L11 5L11 4L10 4L10 5L11 5L11 7L12 7L12 6L13 6L13 8L15 8L15 10L11 10L11 8L10 8L10 10L11 10L11 11L9 11L9 10L8 10L8 11L6 11L6 12L5 12L5 11L4 11L4 12L3 12L3 13L1 13L1 14L2 14L2 16L3 16L3 19L4 19L4 16L5 16L5 18L7 18L7 17L8 17L8 18L9 18L9 20L8 20L8 19L5 19L5 20L3 20L3 22L5 22L5 20L8 20L8 21L6 21L6 22L8 22L8 23L6 23L6 24L8 24L8 27L6 27L6 28L5 28L5 29L6 29L6 30L5 30L5 31L4 31L4 32L3 32L3 30L2 30L2 31L1 31L1 32L2 32L2 36L3 36L3 37L4 37L4 36L3 36L3 33L4 33L4 32L8 32L8 31L10 31L10 32L11 32L11 33L9 33L9 34L12 34L12 32L11 32L11 31L12 31L12 30L13 30L13 31L14 31L14 29L13 29L13 25L14 25L14 26L16 26L16 25L17 25L17 28L16 28L16 27L15 27L15 30L17 30L17 31L16 31L16 32L13 32L13 35L14 35L14 37L13 37L13 36L11 36L11 35L10 35L10 36L9 36L9 37L10 37L10 39L9 39L9 40L8 40L8 38L7 38L7 37L5 37L5 39L6 39L6 40L7 40L7 41L6 41L6 42L7 42L7 43L6 43L6 44L9 44L9 45L8 45L8 46L7 46L7 45L4 45L4 46L7 46L7 47L6 47L6 48L8 48L8 47L9 47L9 46L11 46L11 45L12 45L12 44L11 44L11 43L13 43L13 44L14 44L14 43L13 43L13 42L14 42L14 41L13 41L13 40L12 40L12 41L13 41L13 42L11 42L11 39L14 39L14 40L15 40L15 41L16 41L16 42L15 42L15 43L16 43L16 44L15 44L15 45L16 45L16 46L15 46L15 47L14 47L14 46L12 46L12 47L11 47L11 50L10 50L10 51L11 51L11 52L12 52L12 53L11 53L11 54L12 54L12 55L13 55L13 56L14 56L14 57L13 57L13 58L12 58L12 59L13 59L13 58L14 58L14 59L15 59L15 60L16 60L16 61L15 61L15 62L16 62L16 63L18 63L18 62L19 62L19 64L20 64L20 62L21 62L21 61L25 61L25 62L27 62L27 64L28 64L28 65L25 65L25 66L24 66L24 68L26 68L26 67L27 67L27 68L28 68L28 67L27 67L27 66L28 66L28 65L29 65L29 66L30 66L30 67L31 67L31 66L32 66L32 65L31 65L31 66L30 66L30 65L29 65L29 64L31 64L31 63L32 63L32 60L31 60L31 59L32 59L32 58L31 58L31 59L30 59L30 60L31 60L31 62L29 62L29 60L28 60L28 61L27 61L27 58L28 58L28 59L29 59L29 57L30 57L30 56L28 56L28 55L30 55L30 54L31 54L31 57L33 57L33 58L35 58L35 57L36 57L36 56L33 56L33 55L36 55L36 54L37 54L37 55L39 55L39 54L37 54L37 53L38 53L38 52L37 52L37 53L35 53L35 51L36 51L36 50L37 50L37 49L38 49L38 51L39 51L39 53L42 53L42 52L44 52L44 53L43 53L43 56L42 56L42 57L43 57L43 59L44 59L44 61L45 61L45 58L46 58L46 59L47 59L47 57L46 57L46 56L48 56L48 54L49 54L49 53L48 53L48 54L47 54L47 53L45 53L45 52L46 52L46 51L47 51L47 52L48 52L48 51L51 51L51 50L52 50L52 49L53 49L53 48L52 48L52 46L51 46L51 45L55 45L55 42L56 42L56 43L59 43L59 45L57 45L57 44L56 44L56 46L54 46L54 49L55 49L55 50L56 50L56 53L57 53L57 54L59 54L59 57L57 57L57 55L56 55L56 58L58 58L58 60L57 60L57 59L56 59L56 61L55 61L55 63L56 63L56 65L57 65L57 66L58 66L58 67L59 67L59 66L60 66L60 65L57 65L57 63L58 63L58 64L59 64L59 63L58 63L58 62L60 62L60 60L61 60L61 57L60 57L60 56L62 56L62 55L60 55L60 53L61 53L61 54L62 54L62 52L61 52L61 51L60 51L60 52L59 52L59 53L57 53L57 52L58 52L58 51L59 51L59 49L60 49L60 50L61 50L61 49L62 49L62 48L64 48L64 47L63 47L63 46L65 46L65 47L66 47L66 44L65 44L65 45L63 45L63 44L62 44L62 43L63 43L63 42L64 42L64 43L65 43L65 41L66 41L66 40L65 40L65 41L63 41L63 39L65 39L65 38L66 38L66 39L67 39L67 38L66 38L66 37L67 37L67 36L68 36L68 35L67 35L67 36L66 36L66 35L65 35L65 36L66 36L66 37L64 37L64 38L62 38L62 37L60 37L60 35L58 35L58 34L60 34L60 32L59 32L59 31L56 31L56 29L57 29L57 30L59 30L59 29L60 29L60 28L59 28L59 29L57 29L57 27L56 27L56 29L55 29L55 31L53 31L53 30L52 30L52 32L51 32L51 33L50 33L50 34L51 34L51 33L52 33L52 35L51 35L51 36L50 36L50 38L48 38L48 39L47 39L47 40L45 40L45 39L43 39L43 38L40 38L40 37L43 37L43 36L44 36L44 37L45 37L45 38L47 38L47 37L45 37L45 36L48 36L48 34L47 34L47 33L45 33L45 32L44 32L44 31L46 31L46 32L48 32L48 31L47 31L47 29L46 29L46 28L49 28L49 27L48 27L48 26L49 26L49 25L50 25L50 28L51 28L51 29L50 29L50 30L49 30L49 29L48 29L48 30L49 30L49 32L50 32L50 31L51 31L51 29L53 29L53 28L54 28L54 27L53 27L53 26L54 26L54 25L53 25L53 20L55 20L55 19L54 19L54 18L53 18L53 16L52 16L52 14L51 14L51 13L53 13L53 14L54 14L54 15L56 15L56 17L57 17L57 15L58 15L58 16L59 16L59 17L60 17L60 16L62 16L62 18L60 18L60 19L59 19L59 20L60 20L60 21L62 21L62 22L60 22L60 23L62 23L62 22L63 22L63 21L64 21L64 22L65 22L65 23L67 23L67 22L65 22L65 19L67 19L67 18L63 18L63 17L66 17L66 16L65 16L65 15L64 15L64 16L62 16L62 15L63 15L63 13L65 13L65 14L67 14L67 12L63 12L63 13L62 13L62 14L61 14L61 15L59 15L59 12L60 12L60 13L61 13L61 11L62 11L62 10L61 10L61 11L60 11L60 10L59 10L59 9L58 9L58 6L57 6L57 7L56 7L56 6L55 6L55 8L56 8L56 9L55 9L55 11L54 11L54 10L52 10L52 11L51 11L51 8L52 8L52 9L54 9L54 8L52 8L52 6L53 6L53 7L54 7L54 6L53 6L53 5L52 5L52 4L55 4L55 2L54 2L54 1L52 1L52 3L51 3L51 4L50 4L50 3L49 3L49 4L50 4L50 6L49 6L49 9L50 9L50 10L47 10L47 7L46 7L46 6L45 6L45 7L44 7L44 5L43 5L43 7L42 7L42 6L41 6L41 4L43 4L43 3L39 3L39 2L38 2L38 1ZM41 1L41 2L42 2L42 1ZM27 3L27 4L28 4L28 3ZM37 3L37 4L38 4L38 3ZM60 3L60 5L61 5L61 3ZM39 4L39 6L38 6L38 7L39 7L39 8L40 8L40 7L41 7L41 6L40 6L40 4ZM20 5L20 7L19 7L19 6L18 6L18 7L19 7L19 8L21 8L21 9L22 9L22 8L21 8L21 6L22 6L22 7L23 7L23 8L24 8L24 9L23 9L23 10L24 10L24 9L26 9L26 8L27 8L27 9L28 9L28 7L29 7L29 6L30 6L30 7L31 7L31 6L30 6L30 5L27 5L27 6L26 6L26 8L24 8L24 7L23 7L23 6L22 6L22 5ZM33 5L33 8L36 8L36 5ZM27 6L27 7L28 7L28 6ZM34 6L34 7L35 7L35 6ZM39 6L39 7L40 7L40 6ZM50 6L50 7L51 7L51 6ZM45 7L45 9L44 9L44 8L43 8L43 9L40 9L40 10L39 10L39 12L37 12L37 13L36 13L36 12L34 12L34 11L33 11L33 12L34 12L34 13L33 13L33 14L32 14L32 15L31 15L31 13L32 13L32 12L31 12L31 11L32 11L32 10L31 10L31 9L30 9L30 8L29 8L29 9L30 9L30 10L25 10L25 12L24 12L24 11L23 11L23 12L24 12L24 13L23 13L23 14L27 14L27 13L26 13L26 11L30 11L30 12L29 12L29 14L30 14L30 15L31 15L31 16L29 16L29 18L31 18L31 19L29 19L29 20L28 20L28 19L27 19L27 20L28 20L28 21L26 21L26 17L24 17L24 16L23 16L23 15L22 15L22 16L23 16L23 19L24 19L24 18L25 18L25 20L24 20L24 21L23 21L23 22L22 22L22 23L21 23L21 22L20 22L20 21L19 21L19 20L21 20L21 18L22 18L22 17L18 17L18 16L17 16L17 17L18 17L18 18L20 18L20 19L19 19L19 20L17 20L17 21L18 21L18 22L20 22L20 25L19 25L19 23L18 23L18 24L17 24L17 23L16 23L16 24L14 24L14 23L15 23L15 22L14 22L14 21L13 21L13 20L12 20L12 21L9 21L9 22L14 22L14 23L13 23L13 24L14 24L14 25L16 25L16 24L17 24L17 25L19 25L19 26L20 26L20 25L21 25L21 28L23 28L23 27L24 27L24 28L25 28L25 29L23 29L23 30L25 30L25 31L26 31L26 32L25 32L25 33L23 33L23 34L21 34L21 35L24 35L24 37L22 37L22 38L21 38L21 39L20 39L20 37L21 37L21 36L20 36L20 37L19 37L19 35L20 35L20 34L19 34L19 33L20 33L20 32L22 32L22 31L20 31L20 32L19 32L19 30L20 30L20 27L19 27L19 28L17 28L17 29L18 29L18 31L17 31L17 32L16 32L16 33L17 33L17 34L15 34L15 33L14 33L14 35L15 35L15 36L17 36L17 39L18 39L18 41L17 41L17 43L18 43L18 44L16 44L16 45L19 45L19 46L20 46L20 45L21 45L21 44L20 44L20 45L19 45L19 43L20 43L20 41L22 41L22 40L21 40L21 39L22 39L22 38L25 38L25 39L23 39L23 40L24 40L24 41L23 41L23 42L21 42L21 43L23 43L23 47L22 47L22 46L21 46L21 47L20 47L20 48L23 48L23 49L18 49L18 48L17 48L17 47L18 47L18 46L17 46L17 47L16 47L16 48L17 48L17 49L18 49L18 50L20 50L20 51L19 51L19 52L17 52L17 57L16 57L16 56L15 56L15 57L16 57L16 58L15 58L15 59L16 59L16 60L17 60L17 61L19 61L19 62L20 62L20 61L21 61L21 60L20 60L20 59L21 59L21 58L22 58L22 57L24 57L24 58L23 58L23 59L24 59L24 60L25 60L25 61L26 61L26 60L25 60L25 59L26 59L26 58L27 58L27 57L28 57L28 56L27 56L27 57L26 57L26 55L27 55L27 54L26 54L26 49L24 49L24 48L23 48L23 47L25 47L25 48L26 48L26 47L25 47L25 46L26 46L26 43L28 43L28 44L27 44L27 45L28 45L28 44L29 44L29 47L28 47L28 46L27 46L27 48L29 48L29 52L28 52L28 51L27 51L27 52L28 52L28 53L31 53L31 54L32 54L32 55L33 55L33 53L34 53L34 52L33 52L33 53L32 53L32 52L31 52L31 51L30 51L30 50L32 50L32 51L34 51L34 50L36 50L36 49L33 49L33 48L36 48L36 47L37 47L37 46L38 46L38 44L40 44L40 45L39 45L39 46L40 46L40 47L39 47L39 48L38 48L38 49L39 49L39 48L40 48L40 47L41 47L41 48L42 48L42 49L41 49L41 50L39 50L39 51L41 51L41 52L42 52L42 51L44 51L44 52L45 52L45 49L46 49L46 47L47 47L47 46L49 46L49 48L47 48L47 49L49 49L49 50L50 50L50 49L49 49L49 48L50 48L50 47L51 47L51 46L49 46L49 45L50 45L50 44L51 44L51 43L52 43L52 42L53 42L53 43L54 43L54 42L55 42L55 41L56 41L56 40L55 40L55 39L56 39L56 38L57 38L57 41L59 41L59 39L60 39L60 38L59 38L59 39L58 39L58 38L57 38L57 37L58 37L58 35L56 35L56 36L55 36L55 35L53 35L53 38L52 38L52 39L51 39L51 38L50 38L50 39L49 39L49 40L47 40L47 41L48 41L48 42L50 42L50 43L49 43L49 44L48 44L48 43L47 43L47 42L46 42L46 43L45 43L45 42L44 42L44 40L41 40L41 39L39 39L39 40L38 40L38 38L36 38L36 37L38 37L38 36L37 36L37 35L39 35L39 36L41 36L41 34L43 34L43 33L44 33L44 36L45 36L45 33L44 33L44 32L43 32L43 31L40 31L40 30L36 30L36 29L37 29L37 27L42 27L42 30L43 30L43 29L44 29L44 30L45 30L45 29L44 29L44 28L46 28L46 26L43 26L43 25L44 25L44 24L43 24L43 23L42 23L42 22L44 22L44 23L45 23L45 24L46 24L46 25L47 25L47 26L48 26L48 25L49 25L49 24L48 24L48 23L47 23L47 24L46 24L46 22L44 22L44 20L43 20L43 21L40 21L40 20L41 20L41 19L43 19L43 17L44 17L44 16L45 16L45 17L46 17L46 16L47 16L47 19L48 19L48 20L46 20L46 21L48 21L48 22L50 22L50 20L49 20L49 19L48 19L48 18L50 18L50 19L51 19L51 18L50 18L50 17L51 17L51 15L50 15L50 12L51 12L51 11L49 11L49 12L47 12L47 11L46 11L46 12L45 12L45 13L47 13L47 14L45 14L45 15L44 15L44 16L42 16L42 17L41 17L41 18L39 18L39 19L37 19L37 18L38 18L38 16L40 16L40 15L42 15L42 14L43 14L43 13L44 13L44 11L43 11L43 13L42 13L42 14L41 14L41 12L42 12L42 10L45 10L45 9L46 9L46 7ZM60 8L60 9L61 9L61 8ZM63 8L63 9L64 9L64 8ZM1 9L1 10L2 10L2 9ZM56 9L56 10L57 10L57 11L56 11L56 12L53 12L53 13L54 13L54 14L55 14L55 13L56 13L56 15L57 15L57 13L56 13L56 12L59 12L59 11L58 11L58 10L57 10L57 9ZM35 10L35 11L36 11L36 10ZM40 10L40 12L39 12L39 13L37 13L37 14L39 14L39 15L40 15L40 14L39 14L39 13L40 13L40 12L41 12L41 10ZM65 10L65 11L66 11L66 10ZM8 11L8 12L6 12L6 13L5 13L5 14L4 14L4 15L7 15L7 14L9 14L9 11ZM6 13L6 14L7 14L7 13ZM11 13L11 14L12 14L12 13ZM34 13L34 14L33 14L33 15L32 15L32 17L31 17L31 18L32 18L32 20L34 20L34 22L36 22L36 20L37 20L37 21L38 21L38 20L37 20L37 19L34 19L34 18L35 18L35 17L36 17L36 16L37 16L37 15L35 15L35 14L36 14L36 13ZM13 14L13 15L14 15L14 14ZM20 14L20 15L21 15L21 14ZM47 14L47 16L49 16L49 17L50 17L50 15L49 15L49 14ZM8 15L8 17L9 17L9 15ZM25 15L25 16L26 16L26 15ZM33 15L33 16L34 16L34 15ZM45 15L45 16L46 16L46 15ZM6 16L6 17L7 17L7 16ZM27 17L27 18L28 18L28 17ZM32 17L32 18L34 18L34 17ZM10 18L10 20L11 20L11 19L12 19L12 18ZM13 18L13 19L14 19L14 18ZM44 18L44 19L46 19L46 18ZM52 18L52 20L53 20L53 18ZM62 18L62 21L63 21L63 20L64 20L64 19L63 19L63 18ZM39 19L39 20L40 20L40 19ZM60 19L60 20L61 20L61 19ZM25 21L25 22L26 22L26 21ZM28 21L28 22L27 22L27 24L26 24L26 25L25 25L25 27L26 27L26 30L29 30L29 31L28 31L28 33L25 33L25 34L24 34L24 35L25 35L25 37L27 37L27 38L26 38L26 39L27 39L27 40L25 40L25 41L24 41L24 42L23 42L23 43L24 43L24 44L25 44L25 43L26 43L26 42L25 42L25 41L28 41L28 43L29 43L29 44L30 44L30 43L29 43L29 42L30 42L30 41L31 41L31 43L32 43L32 44L33 44L33 45L30 45L30 46L31 46L31 49L32 49L32 50L33 50L33 49L32 49L32 48L33 48L33 47L32 47L32 46L35 46L35 47L36 47L36 46L35 46L35 43L34 43L34 44L33 44L33 43L32 43L32 37L31 37L31 38L30 38L30 37L29 37L29 36L32 36L32 35L31 35L31 34L32 34L32 32L34 32L34 31L33 31L33 30L34 30L34 29L36 29L36 28L35 28L35 27L36 27L36 26L35 26L35 23L31 23L31 24L32 24L32 25L31 25L31 26L29 26L29 25L30 25L30 24L28 24L28 23L30 23L30 22L31 22L31 21L30 21L30 22L29 22L29 21ZM32 21L32 22L33 22L33 21ZM39 21L39 22L37 22L37 23L36 23L36 24L37 24L37 25L38 25L38 26L41 26L41 25L42 25L42 24L39 24L39 23L40 23L40 21ZM1 22L1 23L2 23L2 24L3 24L3 23L2 23L2 22ZM23 22L23 23L24 23L24 22ZM4 23L4 24L5 24L5 23ZM8 23L8 24L9 24L9 23ZM10 23L10 25L9 25L9 26L10 26L10 25L11 25L11 26L12 26L12 25L11 25L11 23ZM50 23L50 25L51 25L51 23ZM54 23L54 24L55 24L55 23ZM21 24L21 25L22 25L22 27L23 27L23 26L24 26L24 25L22 25L22 24ZM38 24L38 25L39 25L39 24ZM47 24L47 25L48 25L48 24ZM57 24L57 25L58 25L58 24ZM6 25L6 26L7 26L7 25ZM32 25L32 26L34 26L34 25ZM52 25L52 26L53 26L53 25ZM66 25L66 26L65 26L65 27L66 27L66 28L65 28L65 29L66 29L66 28L68 28L68 29L69 29L69 27L68 27L68 26L67 26L67 25ZM26 26L26 27L27 27L27 29L28 29L28 27L29 27L29 26ZM63 26L63 27L64 27L64 26ZM66 26L66 27L67 27L67 26ZM9 27L9 28L10 28L10 27ZM11 27L11 28L12 28L12 27ZM30 27L30 28L29 28L29 29L31 29L31 32L29 32L29 33L28 33L28 34L27 34L27 35L28 35L28 36L27 36L27 37L28 37L28 36L29 36L29 33L30 33L30 34L31 34L31 32L32 32L32 30L33 30L33 27ZM51 27L51 28L53 28L53 27ZM6 28L6 29L8 29L8 28ZM31 28L31 29L32 29L32 28ZM38 28L38 29L40 29L40 28ZM21 29L21 30L22 30L22 29ZM6 30L6 31L7 31L7 30ZM10 30L10 31L11 31L11 30ZM35 30L35 32L37 32L37 31L36 31L36 30ZM60 30L60 31L61 31L61 30ZM17 32L17 33L18 33L18 32ZM38 32L38 33L37 33L37 34L39 34L39 35L40 35L40 33L43 33L43 32ZM55 32L55 33L53 33L53 34L55 34L55 33L56 33L56 34L57 34L57 33L56 33L56 32ZM5 33L5 36L8 36L8 33ZM33 33L33 36L36 36L36 33ZM61 33L61 36L64 36L64 33ZM6 34L6 35L7 35L7 34ZM17 34L17 35L19 35L19 34ZM25 34L25 35L26 35L26 34ZM34 34L34 35L35 35L35 34ZM62 34L62 35L63 35L63 34ZM10 36L10 37L11 37L11 38L12 38L12 37L11 37L11 36ZM54 36L54 37L55 37L55 38L56 38L56 37L57 37L57 36L56 36L56 37L55 37L55 36ZM34 37L34 38L35 38L35 39L36 39L36 38L35 38L35 37ZM6 38L6 39L7 39L7 38ZM14 38L14 39L15 39L15 40L16 40L16 39L15 39L15 38ZM18 38L18 39L19 39L19 38ZM28 38L28 39L30 39L30 38ZM53 38L53 39L52 39L52 40L51 40L51 39L50 39L50 42L51 42L51 41L53 41L53 40L54 40L54 41L55 41L55 40L54 40L54 38ZM61 38L61 39L62 39L62 38ZM0 40L0 41L2 41L2 40ZM9 40L9 43L11 43L11 42L10 42L10 40ZM19 40L19 41L18 41L18 42L19 42L19 41L20 41L20 40ZM28 40L28 41L30 41L30 40ZM33 40L33 42L34 42L34 41L35 41L35 42L36 42L36 43L37 43L37 44L38 44L38 43L40 43L40 44L41 44L41 43L40 43L40 41L41 41L41 40L39 40L39 41L38 41L38 40L37 40L37 41L36 41L36 40ZM60 40L60 42L59 42L59 43L62 43L62 42L63 42L63 41L61 41L61 40ZM37 41L37 42L38 42L38 41ZM43 42L43 43L44 43L44 42ZM1 43L1 44L2 44L2 43ZM10 44L10 45L11 45L11 44ZM43 44L43 45L44 45L44 49L43 49L43 50L44 50L44 49L45 49L45 46L47 46L47 44L46 44L46 45L45 45L45 44ZM60 44L60 45L59 45L59 46L56 46L56 47L57 47L57 49L59 49L59 46L61 46L61 48L62 48L62 46L63 46L63 45L61 45L61 44ZM41 45L41 46L42 46L42 48L43 48L43 46L42 46L42 45ZM2 46L2 47L1 47L1 48L4 48L4 49L2 49L2 51L3 51L3 54L2 54L2 55L3 55L3 54L5 54L5 57L6 57L6 58L7 58L7 57L8 57L8 56L7 56L7 55L6 55L6 54L7 54L7 53L6 53L6 52L5 52L5 51L4 51L4 50L8 50L8 49L5 49L5 47L3 47L3 46ZM13 47L13 48L14 48L14 47ZM29 47L29 48L30 48L30 47ZM9 48L9 49L10 49L10 48ZM51 48L51 49L52 49L52 48ZM55 48L55 49L56 49L56 48ZM13 49L13 50L12 50L12 52L13 52L13 50L14 50L14 49ZM23 49L23 50L24 50L24 49ZM27 49L27 50L28 50L28 49ZM66 49L66 50L65 50L65 52L68 52L68 50L69 50L69 49ZM15 50L15 51L14 51L14 54L13 54L13 55L14 55L14 54L15 54L15 55L16 55L16 54L15 54L15 51L16 51L16 50ZM41 50L41 51L42 51L42 50ZM19 52L19 53L20 53L20 54L21 54L21 55L20 55L20 56L21 56L21 57L17 57L17 60L18 60L18 59L20 59L20 58L21 58L21 57L22 57L22 56L21 56L21 55L22 55L22 54L21 54L21 53L23 53L23 52ZM5 53L5 54L6 54L6 53ZM44 53L44 56L43 56L43 57L44 57L44 56L46 56L46 54L45 54L45 53ZM23 54L23 55L26 55L26 54ZM40 54L40 55L42 55L42 54ZM66 54L66 55L67 55L67 54ZM6 56L6 57L7 57L7 56ZM39 56L39 57L38 57L38 58L37 58L37 59L38 59L38 60L39 60L39 57L41 57L41 56ZM25 57L25 58L26 58L26 57ZM41 58L41 59L40 59L40 62L39 62L39 61L38 61L38 63L37 63L37 64L38 64L38 66L39 66L39 67L40 67L40 66L41 66L41 67L42 67L42 68L44 68L44 66L45 66L45 67L46 67L46 66L45 66L45 64L44 64L44 63L45 63L45 62L44 62L44 63L42 63L42 62L41 62L41 60L42 60L42 61L43 61L43 60L42 60L42 58ZM3 60L3 61L5 61L5 60ZM6 60L6 61L7 61L7 60ZM19 60L19 61L20 61L20 60ZM58 60L58 61L57 61L57 62L58 62L58 61L59 61L59 60ZM33 61L33 64L36 64L36 61ZM61 61L61 64L64 64L64 61ZM34 62L34 63L35 63L35 62ZM62 62L62 63L63 63L63 62ZM65 62L65 63L66 63L66 62ZM38 63L38 64L41 64L41 66L44 66L44 64L41 64L41 63ZM9 64L9 65L10 65L10 66L9 66L9 67L10 67L10 66L11 66L11 65L10 65L10 64ZM54 64L54 65L55 65L55 64ZM34 65L34 66L35 66L35 65ZM36 65L36 66L37 66L37 65ZM48 65L48 66L47 66L47 67L48 67L48 68L49 68L49 67L48 67L48 66L49 66L49 65ZM61 65L61 66L62 66L62 67L61 67L61 68L63 68L63 67L65 67L65 66L62 66L62 65ZM11 67L11 68L12 68L12 67ZM15 67L15 69L21 69L21 68L16 68L16 67ZM54 68L54 69L56 69L56 68ZM0 0L0 7L7 7L7 0ZM1 1L1 6L6 6L6 1ZM2 2L2 5L5 5L5 2ZM62 0L62 7L69 7L69 0ZM63 1L63 6L68 6L68 1ZM64 2L64 5L67 5L67 2ZM0 62L0 69L7 69L7 62ZM1 63L1 68L6 68L6 63ZM2 64L2 67L5 67L5 64Z" fill="#000000"/></g></g></svg>
