<?xml version="1.0" encoding="UTF-8"?>
<svg xmlns="http://www.w3.org/2000/svg" version="1.1" width="300" height="300" viewBox="0 0 300 300"><rect x="0" y="0" width="300" height="300" fill="#ffffff"/><g transform="scale(4.348)"><g transform="translate(0,0)"><path fill-rule="evenodd" d="M8 0L8 1L9 1L9 2L8 2L8 5L9 5L9 4L10 4L10 3L11 3L11 2L14 2L14 3L15 3L15 0L14 0L14 1L13 1L13 0L11 0L11 1L10 1L10 0ZM16 0L16 3L17 3L17 4L14 4L14 7L15 7L15 8L16 8L16 9L14 9L14 8L13 8L13 3L12 3L12 5L11 5L11 6L10 6L10 7L9 7L9 6L8 6L8 7L9 7L9 8L8 8L8 10L6 10L6 9L7 9L7 8L6 8L6 9L5 9L5 11L4 11L4 12L3 12L3 11L2 11L2 10L0 10L0 11L2 11L2 13L1 13L1 16L0 16L0 18L2 18L2 20L1 20L1 19L0 19L0 24L1 24L1 25L0 25L0 30L1 30L1 32L0 32L0 34L1 34L1 33L2 33L2 34L3 34L3 31L2 31L2 30L1 30L1 29L3 29L3 30L4 30L4 35L3 35L3 37L4 37L4 38L2 38L2 37L0 37L0 38L2 38L2 39L1 39L1 41L0 41L0 42L2 42L2 44L1 44L1 43L0 43L0 44L1 44L1 45L3 45L3 46L2 46L2 47L4 47L4 48L3 48L3 50L4 50L4 53L0 53L0 57L2 57L2 56L3 56L3 58L2 58L2 59L3 59L3 58L4 58L4 59L7 59L7 60L6 60L6 61L7 61L7 60L9 60L9 61L8 61L8 62L9 62L9 65L8 65L8 69L9 69L9 66L10 66L10 67L11 67L11 66L12 66L12 68L10 68L10 69L14 69L14 68L13 68L13 67L15 67L15 68L16 68L16 69L18 69L18 67L17 67L17 66L18 66L18 64L19 64L19 67L20 67L20 69L21 69L21 68L22 68L22 69L24 69L24 67L25 67L25 68L26 68L26 67L27 67L27 68L28 68L28 69L30 69L30 67L31 67L31 68L33 68L33 69L34 69L34 66L35 66L35 67L36 67L36 65L39 65L39 66L37 66L37 67L38 67L38 68L39 68L39 69L41 69L41 66L42 66L42 65L40 65L40 64L41 64L41 62L39 62L39 61L40 61L40 60L41 60L41 61L42 61L42 60L41 60L41 59L42 59L42 58L43 58L43 56L41 56L41 55L42 55L42 52L43 52L43 54L44 54L44 55L46 55L46 54L48 54L48 55L50 55L50 56L51 56L51 58L50 58L50 57L49 57L49 59L48 59L48 58L47 58L47 59L48 59L48 60L45 60L45 61L44 61L44 59L45 59L45 58L44 58L44 59L43 59L43 63L44 63L44 64L43 64L43 65L45 65L45 63L47 63L47 62L46 62L46 61L49 61L49 62L48 62L48 63L49 63L49 64L50 64L50 65L51 65L51 66L50 66L50 68L51 68L51 69L53 69L53 68L54 68L54 69L56 69L56 66L57 66L57 69L59 69L59 68L60 68L60 69L63 69L63 66L65 66L65 67L67 67L67 66L68 66L68 64L69 64L69 63L68 63L68 64L67 64L67 63L65 63L65 60L66 60L66 59L65 59L65 60L64 60L64 58L63 58L63 57L62 57L62 58L61 58L61 55L62 55L62 54L66 54L66 53L67 53L67 55L68 55L68 54L69 54L69 52L68 52L68 51L67 51L67 50L68 50L68 49L69 49L69 48L67 48L67 50L66 50L66 51L65 51L65 50L63 50L63 49L62 49L62 48L64 48L64 49L65 49L65 48L66 48L66 46L68 46L68 47L69 47L69 45L68 45L68 44L67 44L67 45L66 45L66 46L64 46L64 47L63 47L63 46L62 46L62 45L61 45L61 43L62 43L62 44L63 44L63 45L65 45L65 43L62 43L62 42L60 42L60 38L59 38L59 39L57 39L57 38L58 38L58 37L56 37L56 36L58 36L58 35L59 35L59 34L58 34L58 33L57 33L57 35L55 35L55 32L59 32L59 33L60 33L60 37L62 37L62 38L63 38L63 40L62 40L62 39L61 39L61 40L62 40L62 41L64 41L64 42L65 42L65 40L67 40L67 37L68 37L68 38L69 38L69 37L68 37L68 36L69 36L69 33L68 33L68 34L67 34L67 36L66 36L66 34L65 34L65 33L67 33L67 32L69 32L69 31L68 31L68 30L67 30L67 29L69 29L69 27L68 27L68 28L67 28L67 26L69 26L69 24L66 24L66 23L69 23L69 21L65 21L65 20L64 20L64 19L63 19L63 18L62 18L62 19L61 19L61 18L60 18L60 17L64 17L64 15L63 15L63 13L62 13L62 12L66 12L66 11L67 11L67 13L65 13L65 17L66 17L66 16L68 16L68 15L66 15L66 14L67 14L67 13L68 13L68 12L69 12L69 8L68 8L68 9L67 9L67 8L64 8L64 9L63 9L63 11L61 11L61 15L62 15L62 16L59 16L59 17L57 17L57 16L58 16L58 15L60 15L60 14L58 14L58 12L57 12L57 10L56 10L56 12L57 12L57 13L55 13L55 14L54 14L54 13L52 13L52 10L51 10L51 11L50 11L50 12L49 12L49 10L50 10L50 8L51 8L51 9L53 9L53 12L55 12L55 9L54 9L54 8L56 8L56 7L57 7L57 8L58 8L58 9L59 9L59 11L60 11L60 10L62 10L62 8L60 8L60 7L61 7L61 6L60 6L60 7L59 7L59 4L57 4L57 5L58 5L58 7L57 7L57 6L56 6L56 7L55 7L55 6L54 6L54 7L53 7L53 4L50 4L50 3L49 3L49 2L48 2L48 1L50 1L50 0L47 0L47 2L45 2L45 0L44 0L44 2L43 2L43 6L42 6L42 5L41 5L41 4L42 4L42 3L41 3L41 4L38 4L38 2L37 2L37 3L36 3L36 2L34 2L34 1L35 1L35 0L33 0L33 3L35 3L35 4L32 4L32 3L31 3L31 2L32 2L32 0L31 0L31 1L30 1L30 0L28 0L28 2L27 2L27 1L26 1L26 3L25 3L25 5L28 5L28 7L27 7L27 6L26 6L26 8L27 8L27 10L28 10L28 11L25 11L25 10L26 10L26 9L25 9L25 10L24 10L24 9L23 9L23 8L24 8L24 7L25 7L25 6L24 6L24 3L23 3L23 2L24 2L24 1L25 1L25 0L23 0L23 1L19 1L19 0ZM37 0L37 1L38 1L38 0ZM39 0L39 1L40 1L40 2L42 2L42 1L43 1L43 0ZM53 0L53 1L56 1L56 2L55 2L55 3L54 3L54 2L52 2L52 3L54 3L54 4L55 4L55 5L56 5L56 2L58 2L58 3L59 3L59 2L58 2L58 1L61 1L61 0L57 0L57 1L56 1L56 0ZM17 1L17 3L18 3L18 1ZM20 2L20 3L19 3L19 4L20 4L20 3L21 3L21 7L22 7L22 8L21 8L21 9L20 9L20 11L17 11L17 12L16 12L16 10L18 10L18 9L19 9L19 8L20 8L20 6L19 6L19 5L18 5L18 6L17 6L17 8L18 8L18 9L16 9L16 10L14 10L14 11L15 11L15 12L14 12L14 14L15 14L15 17L14 17L14 15L13 15L13 14L12 14L12 15L11 15L11 14L9 14L9 13L10 13L10 11L12 11L12 9L13 9L13 8L9 8L9 9L11 9L11 10L9 10L9 13L8 13L8 12L7 12L7 11L6 11L6 12L5 12L5 14L3 14L3 13L2 13L2 15L3 15L3 16L1 16L1 17L3 17L3 18L4 18L4 19L5 19L5 18L8 18L8 19L12 19L12 18L13 18L13 17L14 17L14 18L15 18L15 17L16 17L16 16L17 16L17 18L16 18L16 19L15 19L15 21L16 21L16 22L17 22L17 23L15 23L15 24L14 24L14 23L13 23L13 21L14 21L14 19L13 19L13 21L12 21L12 20L11 20L11 22L12 22L12 23L10 23L10 20L7 20L7 19L6 19L6 20L5 20L5 21L4 21L4 22L3 22L3 21L1 21L1 23L2 23L2 22L3 22L3 23L5 23L5 24L2 24L2 25L3 25L3 28L4 28L4 26L8 26L8 27L11 27L11 26L14 26L14 25L15 25L15 24L16 24L16 25L17 25L17 23L18 23L18 24L19 24L19 25L21 25L21 26L22 26L22 27L20 27L20 28L19 28L19 27L18 27L18 26L15 26L15 29L14 29L14 30L15 30L15 31L16 31L16 33L15 33L15 36L14 36L14 33L13 33L13 32L14 32L14 31L13 31L13 30L11 30L11 31L13 31L13 32L10 32L10 31L9 31L9 29L10 29L10 28L9 28L9 29L8 29L8 30L7 30L7 29L6 29L6 30L7 30L7 31L6 31L6 32L8 32L8 31L9 31L9 37L5 37L5 38L4 38L4 39L5 39L5 38L7 38L7 39L6 39L6 40L5 40L5 41L3 41L3 39L2 39L2 41L3 41L3 45L4 45L4 47L5 47L5 44L7 44L7 45L6 45L6 46L7 46L7 47L6 47L6 48L4 48L4 50L5 50L5 52L7 52L7 53L6 53L6 54L7 54L7 53L8 53L8 56L9 56L9 55L10 55L10 57L9 57L9 58L8 58L8 57L6 57L6 58L8 58L8 59L9 59L9 58L11 58L11 59L10 59L10 60L12 60L12 59L13 59L13 60L14 60L14 57L13 57L13 56L15 56L15 59L16 59L16 62L15 62L15 61L12 61L12 62L13 62L13 63L14 63L14 64L15 64L15 65L14 65L14 66L15 66L15 65L17 65L17 63L19 63L19 64L20 64L20 62L18 62L18 60L19 60L19 61L21 61L21 62L22 62L22 65L20 65L20 67L21 67L21 66L23 66L23 67L22 67L22 68L23 68L23 67L24 67L24 66L25 66L25 64L26 64L26 66L27 66L27 65L28 65L28 66L29 66L29 64L30 64L30 65L31 65L31 62L32 62L32 58L33 58L33 60L35 60L35 59L36 59L36 60L37 60L37 61L39 61L39 60L40 60L40 58L39 58L39 57L38 57L38 58L37 58L37 59L36 59L36 57L32 57L32 56L33 56L33 55L34 55L34 54L33 54L33 55L32 55L32 54L31 54L31 51L30 51L30 50L31 50L31 49L32 49L32 52L33 52L33 53L35 53L35 54L36 54L36 53L37 53L37 55L35 55L35 56L37 56L37 55L39 55L39 56L40 56L40 55L41 55L41 54L40 54L40 55L39 55L39 54L38 54L38 53L39 53L39 52L40 52L40 53L41 53L41 51L43 51L43 52L44 52L44 50L45 50L45 48L46 48L46 50L47 50L47 49L48 49L48 51L50 51L50 52L51 52L51 50L52 50L52 51L53 51L53 52L52 52L52 53L53 53L53 54L54 54L54 55L56 55L56 54L57 54L57 53L55 53L55 52L56 52L56 51L55 51L55 52L54 52L54 50L56 50L56 49L57 49L57 48L58 48L58 47L59 47L59 49L58 49L58 53L59 53L59 52L62 52L62 51L63 51L63 50L62 50L62 49L61 49L61 48L60 48L60 47L59 47L59 45L60 45L60 42L59 42L59 45L57 45L57 44L56 44L56 43L58 43L58 42L56 42L56 41L54 41L54 40L52 40L52 39L53 39L53 38L54 38L54 39L55 39L55 40L56 40L56 38L55 38L55 37L54 37L54 36L55 36L55 35L54 35L54 34L52 34L52 33L50 33L50 34L47 34L47 32L48 32L48 33L49 33L49 31L50 31L50 32L51 32L51 29L53 29L53 28L54 28L54 27L56 27L56 28L57 28L57 29L56 29L56 31L57 31L57 29L58 29L58 28L57 28L57 27L58 27L58 26L59 26L59 27L60 27L60 30L59 30L59 32L61 32L61 31L62 31L62 32L63 32L63 31L62 31L62 30L63 30L63 28L62 28L62 27L65 27L65 26L67 26L67 25L65 25L65 23L66 23L66 22L65 22L65 21L64 21L64 23L63 23L63 21L62 21L62 22L61 22L61 23L59 23L59 22L60 22L60 21L58 21L58 20L55 20L55 21L56 21L56 22L53 22L53 23L54 23L54 24L56 24L56 25L57 25L57 24L58 24L58 26L57 26L57 27L56 27L56 26L55 26L55 25L53 25L53 24L50 24L50 23L49 23L49 25L48 25L48 24L47 24L47 25L46 25L46 23L47 23L47 21L50 21L50 22L51 22L51 23L52 23L52 21L50 21L50 20L48 20L48 19L50 19L50 18L52 18L52 19L53 19L53 20L54 20L54 18L55 18L55 16L52 16L52 13L51 13L51 12L50 12L50 13L51 13L51 15L48 15L48 14L49 14L49 13L47 13L47 12L48 12L48 11L47 11L47 9L46 9L46 8L48 8L48 9L49 9L49 7L50 7L50 6L51 6L51 7L52 7L52 8L53 8L53 7L52 7L52 6L51 6L51 5L50 5L50 6L49 6L49 7L48 7L48 5L49 5L49 4L47 4L47 3L48 3L48 2L47 2L47 3L46 3L46 5L45 5L45 8L44 8L44 6L43 6L43 9L45 9L45 10L46 10L46 14L43 14L43 13L45 13L45 12L44 12L44 10L43 10L43 12L41 12L41 13L42 13L42 14L43 14L43 15L41 15L41 14L40 14L40 11L42 11L42 10L41 10L41 9L42 9L42 8L41 8L41 7L42 7L42 6L41 6L41 7L40 7L40 5L38 5L38 4L37 4L37 8L38 8L38 10L37 10L37 12L36 12L36 9L34 9L34 10L33 10L33 11L32 11L32 13L29 13L29 12L30 12L30 11L31 11L31 10L30 10L30 9L29 9L29 7L30 7L30 6L29 6L29 7L28 7L28 10L30 10L30 11L29 11L29 12L26 12L26 13L25 13L25 12L22 12L22 11L23 11L23 9L22 9L22 8L23 8L23 7L24 7L24 6L23 6L23 7L22 7L22 4L23 4L23 3L22 3L22 2ZM28 2L28 3L26 3L26 4L28 4L28 5L31 5L31 4L29 4L29 3L30 3L30 2ZM44 3L44 4L45 4L45 3ZM60 3L60 5L61 5L61 3ZM33 5L33 8L36 8L36 5ZM46 5L46 7L47 7L47 5ZM11 6L11 7L12 7L12 6ZM15 6L15 7L16 7L16 6ZM18 6L18 7L19 7L19 6ZM31 6L31 7L32 7L32 6ZM34 6L34 7L35 7L35 6ZM38 6L38 7L39 7L39 9L41 9L41 8L40 8L40 7L39 7L39 6ZM58 7L58 8L59 8L59 7ZM0 8L0 9L4 9L4 8ZM31 8L31 9L32 9L32 8ZM65 9L65 10L67 10L67 9ZM34 10L34 11L33 11L33 13L32 13L32 14L30 14L30 15L27 15L27 16L26 16L26 14L25 14L25 15L23 15L23 13L22 13L22 14L21 14L21 12L20 12L20 13L19 13L19 12L17 12L17 13L19 13L19 14L17 14L17 15L19 15L19 16L18 16L18 17L19 17L19 16L20 16L20 19L19 19L19 18L17 18L17 19L16 19L16 21L17 21L17 22L20 22L20 23L23 23L23 24L22 24L22 25L23 25L23 27L22 27L22 28L21 28L21 30L22 30L22 28L23 28L23 27L24 27L24 28L25 28L25 31L22 31L22 32L21 32L21 34L19 34L19 33L17 33L17 34L16 34L16 36L15 36L15 37L13 37L13 34L12 34L12 33L10 33L10 35L11 35L11 34L12 34L12 39L9 39L9 38L8 38L8 39L9 39L9 40L6 40L6 41L5 41L5 42L4 42L4 44L5 44L5 43L7 43L7 44L8 44L8 43L9 43L9 41L10 41L10 45L8 45L8 47L7 47L7 48L6 48L6 49L5 49L5 50L6 50L6 51L7 51L7 52L8 52L8 53L9 53L9 54L10 54L10 52L11 52L11 53L12 53L12 54L11 54L11 55L12 55L12 56L13 56L13 53L14 53L14 52L15 52L15 50L16 50L16 49L10 49L10 47L12 47L12 48L14 48L14 47L15 47L15 48L16 48L16 47L17 47L17 46L18 46L18 48L17 48L17 50L18 50L18 48L19 48L19 47L21 47L21 46L22 46L22 48L23 48L23 50L20 50L20 49L19 49L19 52L20 52L20 53L22 53L22 56L21 56L21 55L20 55L20 56L19 56L19 57L18 57L18 56L17 56L17 55L19 55L19 54L17 54L17 53L15 53L15 55L16 55L16 59L17 59L17 60L18 60L18 59L17 59L17 58L19 58L19 59L21 59L21 60L23 60L23 59L22 59L22 56L23 56L23 57L24 57L24 58L25 58L25 61L26 61L26 64L29 64L29 63L28 63L28 62L27 62L27 61L26 61L26 59L27 59L27 57L29 57L29 58L28 58L28 61L29 61L29 62L30 62L30 61L31 61L31 59L30 59L30 58L32 58L32 57L29 57L29 54L30 54L30 55L31 55L31 54L30 54L30 53L29 53L29 52L28 52L28 51L29 51L29 50L27 50L27 49L25 49L25 50L24 50L24 48L25 48L25 47L24 47L24 46L25 46L25 45L24 45L24 44L27 44L27 42L25 42L25 41L28 41L28 42L29 42L29 39L31 39L31 40L30 40L30 41L32 41L32 40L33 40L33 41L34 41L34 42L35 42L35 43L36 43L36 41L34 41L34 40L33 40L33 38L29 38L29 39L26 39L26 40L25 40L25 39L24 39L24 40L23 40L23 41L21 41L21 38L22 38L22 39L23 39L23 38L22 38L22 37L20 37L20 35L21 35L21 34L22 34L22 35L25 35L25 37L26 37L26 38L28 38L28 37L26 37L26 36L28 36L28 35L30 35L30 36L29 36L29 37L36 37L36 38L37 38L37 37L38 37L38 38L39 38L39 40L38 40L38 41L39 41L39 42L40 42L40 43L43 43L43 45L42 45L42 44L41 44L41 45L40 45L40 44L38 44L38 42L37 42L37 45L35 45L35 44L34 44L34 43L31 43L31 42L30 42L30 43L29 43L29 46L26 46L26 47L28 47L28 48L29 48L29 49L31 49L31 48L32 48L32 47L30 47L30 44L31 44L31 45L35 45L35 46L33 46L33 47L35 47L35 48L37 48L37 49L36 49L36 50L40 50L40 49L39 49L39 48L37 48L37 47L38 47L38 45L39 45L39 47L40 47L40 48L42 48L42 49L44 49L44 48L43 48L43 47L44 47L44 46L45 46L45 47L46 47L46 48L48 48L48 49L49 49L49 50L51 50L51 49L52 49L52 50L53 50L53 49L52 49L52 47L53 47L53 48L54 48L54 46L55 46L55 49L56 49L56 48L57 48L57 47L58 47L58 46L57 46L57 45L56 45L56 46L55 46L55 45L54 45L54 44L52 44L52 43L53 43L53 42L54 42L54 43L56 43L56 42L54 42L54 41L53 41L53 42L52 42L52 40L51 40L51 42L52 42L52 43L51 43L51 46L52 46L52 47L51 47L51 49L49 49L49 47L50 47L50 45L48 45L48 44L50 44L50 42L49 42L49 41L50 41L50 39L48 39L48 38L51 38L51 35L48 35L48 36L47 36L47 35L46 35L46 34L45 34L45 33L44 33L44 34L45 34L45 35L43 35L43 32L42 32L42 33L41 33L41 31L40 31L40 30L41 30L41 29L42 29L42 28L43 28L43 29L45 29L45 32L47 32L47 31L49 31L49 29L45 29L45 28L44 28L44 27L45 27L45 26L46 26L46 27L48 27L48 26L46 26L46 25L44 25L44 23L43 23L43 24L42 24L42 22L44 22L44 21L43 21L43 20L42 20L42 19L43 19L43 18L44 18L44 20L45 20L45 21L46 21L46 19L47 19L47 17L48 17L48 18L49 18L49 17L48 17L48 15L47 15L47 16L46 16L46 17L45 17L45 15L44 15L44 16L43 16L43 18L42 18L42 16L41 16L41 17L40 17L40 14L39 14L39 13L38 13L38 12L37 12L37 15L36 15L36 12L35 12L35 10ZM39 10L39 11L40 11L40 10ZM6 12L6 13L7 13L7 14L6 14L6 15L7 15L7 16L6 16L6 17L9 17L9 16L10 16L10 18L11 18L11 17L12 17L12 16L13 16L13 15L12 15L12 16L10 16L10 15L9 15L9 16L8 16L8 13L7 13L7 12ZM11 12L11 13L12 13L12 12ZM59 12L59 13L60 13L60 12ZM27 13L27 14L28 14L28 13ZM33 13L33 14L35 14L35 13ZM20 14L20 16L22 16L22 17L24 17L24 18L25 18L25 19L22 19L22 20L23 20L23 21L21 21L21 19L20 19L20 20L19 20L19 19L18 19L18 21L20 21L20 22L23 22L23 23L24 23L24 24L26 24L26 25L24 25L24 27L26 27L26 28L27 28L27 29L26 29L26 30L27 30L27 29L30 29L30 30L28 30L28 32L27 32L27 31L25 31L25 35L28 35L28 32L29 32L29 33L30 33L30 34L31 34L31 36L32 36L32 32L31 32L31 30L32 30L32 31L33 31L33 30L32 30L32 29L34 29L34 30L35 30L35 27L38 27L38 28L36 28L36 30L37 30L37 31L38 31L38 32L37 32L37 33L38 33L38 34L40 34L40 33L38 33L38 32L40 32L40 31L39 31L39 29L41 29L41 28L42 28L42 27L44 27L44 25L42 25L42 24L41 24L41 21L42 21L42 20L41 20L41 19L40 19L40 20L41 20L41 21L40 21L40 22L39 22L39 24L38 24L38 22L35 22L35 21L36 21L36 20L35 20L35 19L34 19L34 18L36 18L36 17L37 17L37 19L38 19L38 20L39 20L39 17L38 17L38 15L39 15L39 14L38 14L38 15L37 15L37 16L36 16L36 15L34 15L34 17L33 17L33 15L32 15L32 16L28 16L28 17L26 17L26 16L23 16L23 15L21 15L21 14ZM4 15L4 18L5 18L5 15ZM56 15L56 16L57 16L57 15ZM28 17L28 18L30 18L30 17ZM31 17L31 18L32 18L32 19L29 19L29 20L27 20L27 18L26 18L26 20L27 20L27 21L30 21L30 20L31 20L31 22L32 22L32 20L33 20L33 21L34 21L34 20L33 20L33 17ZM44 17L44 18L45 18L45 17ZM52 17L52 18L54 18L54 17ZM68 17L68 18L65 18L65 19L67 19L67 20L69 20L69 19L68 19L68 18L69 18L69 17ZM56 18L56 19L57 19L57 18ZM58 18L58 19L59 19L59 20L61 20L61 19L60 19L60 18ZM6 20L6 21L7 21L7 20ZM24 20L24 21L23 21L23 22L24 22L24 23L26 23L26 24L27 24L27 22L26 22L26 21L25 21L25 20ZM8 21L8 22L5 22L5 23L8 23L8 26L9 26L9 25L10 25L10 26L11 26L11 25L12 25L12 24L11 24L11 25L10 25L10 23L9 23L9 21ZM28 22L28 23L29 23L29 24L30 24L30 25L31 25L31 27L30 27L30 26L29 26L29 27L30 27L30 28L33 28L33 27L32 27L32 26L33 26L33 25L34 25L34 27L35 27L35 25L34 25L34 24L36 24L36 23L35 23L35 22L33 22L33 25L32 25L32 24L30 24L30 22ZM56 22L56 24L57 24L57 22ZM62 23L62 24L63 24L63 23ZM6 24L6 25L7 25L7 24ZM13 24L13 25L14 25L14 24ZM59 24L59 25L60 25L60 24ZM26 25L26 27L27 27L27 28L28 28L28 25ZM38 25L38 27L39 27L39 26L40 26L40 25ZM49 25L49 27L50 27L50 28L51 28L51 27L52 27L52 28L53 28L53 25L52 25L52 26L51 26L51 25ZM61 25L61 26L64 26L64 25ZM41 26L41 27L42 27L42 26ZM50 26L50 27L51 27L51 26ZM6 27L6 28L7 28L7 27ZM16 27L16 28L17 28L17 27ZM12 28L12 29L13 29L13 28ZM38 28L38 29L39 29L39 28ZM64 28L64 31L65 31L65 32L67 32L67 30L66 30L66 28ZM4 29L4 30L5 30L5 29ZM15 29L15 30L16 30L16 31L17 31L17 29ZM23 29L23 30L24 30L24 29ZM54 29L54 30L53 30L53 33L54 33L54 31L55 31L55 29ZM18 30L18 31L19 31L19 30ZM46 30L46 31L47 31L47 30ZM60 30L60 31L61 31L61 30ZM35 31L35 32L36 32L36 31ZM26 32L26 33L27 33L27 32ZM5 33L5 36L8 36L8 33ZM23 33L23 34L24 34L24 33ZM33 33L33 36L36 36L36 33ZM61 33L61 36L64 36L64 33ZM6 34L6 35L7 35L7 34ZM17 34L17 35L18 35L18 36L19 36L19 34ZM34 34L34 35L35 35L35 34ZM62 34L62 35L63 35L63 34ZM1 35L1 36L2 36L2 35ZM38 35L38 37L41 37L41 38L43 38L43 39L41 39L41 40L40 40L40 42L41 42L41 41L42 41L42 42L43 42L43 43L44 43L44 45L43 45L43 46L44 46L44 45L45 45L45 46L46 46L46 47L47 47L47 45L46 45L46 42L45 42L45 41L43 41L43 40L45 40L45 39L47 39L47 40L46 40L46 41L47 41L47 42L48 42L48 41L49 41L49 40L48 40L48 39L47 39L47 38L48 38L48 37L46 37L46 38L45 38L45 36L44 36L44 38L43 38L43 35L40 35L40 36L39 36L39 35ZM53 35L53 36L54 36L54 35ZM10 36L10 38L11 38L11 36ZM16 36L16 38L17 38L17 36ZM23 36L23 37L24 37L24 36ZM41 36L41 37L42 37L42 36ZM49 36L49 37L50 37L50 36ZM65 36L65 37L63 37L63 38L65 38L65 39L66 39L66 38L65 38L65 37L66 37L66 36ZM52 37L52 38L53 38L53 37ZM13 38L13 39L12 39L12 40L13 40L13 41L11 41L11 44L13 44L13 43L12 43L12 42L14 42L14 41L15 41L15 43L14 43L14 44L15 44L15 47L16 47L16 46L17 46L17 45L16 45L16 44L17 44L17 42L16 42L16 41L17 41L17 39L15 39L15 38ZM18 38L18 41L19 41L19 43L18 43L18 45L20 45L20 46L21 46L21 45L20 45L20 44L19 44L19 43L20 43L20 42L21 42L21 41L19 41L19 39L20 39L20 38ZM44 38L44 39L45 39L45 38ZM13 39L13 40L15 40L15 41L16 41L16 40L15 40L15 39ZM35 39L35 40L37 40L37 39ZM68 39L68 40L69 40L69 39ZM24 40L24 41L25 41L25 40ZM57 40L57 41L58 41L58 40ZM6 41L6 42L8 42L8 41ZM66 41L66 43L68 43L68 41ZM22 42L22 43L21 43L21 44L22 44L22 43L23 43L23 44L24 44L24 43L25 43L25 42ZM44 42L44 43L45 43L45 42ZM47 43L47 44L48 44L48 43ZM11 45L11 46L12 46L12 45ZM13 45L13 47L14 47L14 45ZM41 45L41 47L42 47L42 45ZM52 45L52 46L53 46L53 45ZM9 46L9 47L8 47L8 50L9 50L9 51L8 51L8 52L10 52L10 51L11 51L11 52L12 52L12 51L11 51L11 50L9 50L9 47L10 47L10 46ZM36 46L36 47L37 47L37 46ZM56 46L56 47L57 47L57 46ZM23 47L23 48L24 48L24 47ZM0 48L0 52L1 52L1 48ZM6 49L6 50L7 50L7 49ZM33 49L33 50L34 50L34 51L35 51L35 52L39 52L39 51L35 51L35 50L34 50L34 49ZM59 49L59 51L60 51L60 49ZM23 50L23 51L22 51L22 53L24 53L24 55L23 55L23 56L24 56L24 57L27 57L27 55L26 55L26 54L27 54L27 53L28 53L28 52L27 52L27 50L25 50L25 51L24 51L24 50ZM2 51L2 52L3 52L3 51ZM17 51L17 52L18 52L18 51ZM23 51L23 52L24 52L24 53L25 53L25 54L26 54L26 53L27 53L27 52L24 52L24 51ZM45 51L45 53L46 53L46 51ZM64 51L64 52L63 52L63 53L65 53L65 51ZM47 52L47 53L49 53L49 52ZM67 52L67 53L68 53L68 52ZM50 53L50 54L51 54L51 56L52 56L52 54L51 54L51 53ZM60 53L60 55L59 55L59 56L58 56L58 55L57 55L57 56L55 56L55 59L54 59L54 61L53 61L53 59L52 59L52 60L49 60L49 61L53 61L53 63L52 63L52 66L51 66L51 68L53 68L53 67L54 67L54 68L55 68L55 65L54 65L54 66L53 66L53 64L54 64L54 62L56 62L56 61L58 61L58 63L59 63L59 64L57 64L57 63L56 63L56 64L57 64L57 65L60 65L60 66L61 66L61 67L60 67L60 68L61 68L61 67L62 67L62 66L63 66L63 65L62 65L62 66L61 66L61 65L60 65L60 62L59 62L59 61L60 61L60 60L58 60L58 59L61 59L61 58L60 58L60 55L61 55L61 53ZM3 54L3 55L5 55L5 56L7 56L7 55L5 55L5 54ZM1 55L1 56L2 56L2 55ZM64 55L64 57L65 57L65 58L66 58L66 57L68 57L68 58L67 58L67 61L68 61L68 59L69 59L69 56L65 56L65 55ZM20 56L20 58L21 58L21 56ZM45 56L45 57L46 57L46 56ZM47 56L47 57L48 57L48 56ZM53 56L53 57L54 57L54 56ZM56 57L56 59L55 59L55 61L56 61L56 59L58 59L58 58L57 58L57 57ZM0 58L0 61L1 61L1 58ZM34 58L34 59L35 59L35 58ZM29 59L29 60L30 60L30 59ZM37 59L37 60L38 60L38 59ZM62 59L62 60L63 60L63 59ZM3 60L3 61L5 61L5 60ZM10 61L10 63L11 63L11 64L12 64L12 63L11 63L11 61ZM22 61L22 62L23 62L23 61ZM33 61L33 64L36 64L36 61ZM61 61L61 64L64 64L64 61ZM24 62L24 63L23 63L23 66L24 66L24 64L25 64L25 62ZM34 62L34 63L35 63L35 62ZM37 62L37 64L38 64L38 63L39 63L39 62ZM50 62L50 64L51 64L51 62ZM62 62L62 63L63 63L63 62ZM15 63L15 64L16 64L16 63ZM10 65L10 66L11 66L11 65ZM46 65L46 68L45 68L45 69L48 69L48 68L49 68L49 65L48 65L48 66L47 66L47 65ZM65 65L65 66L67 66L67 65ZM39 66L39 68L40 68L40 66ZM44 66L44 67L45 67L45 66ZM52 66L52 67L53 67L53 66ZM58 66L58 67L59 67L59 66ZM16 67L16 68L17 68L17 67ZM47 67L47 68L48 68L48 67ZM68 67L68 68L69 68L69 67ZM64 68L64 69L65 69L65 68ZM66 68L66 69L67 69L67 68ZM0 0L0 7L7 7L7 0ZM1 1L1 6L6 6L6 1ZM2 2L2 5L5 5L5 2ZM62 0L62 7L69 7L69 0ZM63 1L63 6L68 6L68 1ZM64 2L64 5L67 5L67 2ZM0 62L0 69L7 69L7 62ZM1 63L1 68L6 68L6 63ZM2 64L2 67L5 67L5 64Z" fill="#000000"/></g></g></svg>
