<?xml version="1.0" encoding="UTF-8"?>
<svg xmlns="http://www.w3.org/2000/svg" version="1.1" width="300" height="300" viewBox="0 0 300 300"><rect x="0" y="0" width="300" height="300" fill="#ffffff"/><g transform="scale(4.348)"><g transform="translate(0,0)"><path fill-rule="evenodd" d="M8 0L8 4L10 4L10 5L8 5L8 7L9 7L9 9L7 9L7 8L4 8L4 9L5 9L5 10L6 10L6 11L7 11L7 10L8 10L8 11L9 11L9 10L12 10L12 9L13 9L13 8L14 8L14 7L15 7L15 8L16 8L16 9L15 9L15 10L14 10L14 12L16 12L16 15L15 15L15 16L14 16L14 17L16 17L16 18L17 18L17 17L18 17L18 19L17 19L17 22L15 22L15 23L14 23L14 24L12 24L12 23L13 23L13 22L14 22L14 21L16 21L16 20L15 20L15 18L12 18L12 17L13 17L13 15L14 15L14 13L12 13L12 11L10 11L10 13L12 13L12 14L9 14L9 15L8 15L8 17L7 17L7 16L5 16L5 17L2 17L2 19L1 19L1 20L0 20L0 22L5 22L5 23L7 23L7 24L4 24L4 23L3 23L3 24L1 24L1 25L0 25L0 26L2 26L2 27L1 27L1 28L2 28L2 29L1 29L1 30L0 30L0 32L1 32L1 33L2 33L2 34L1 34L1 35L0 35L0 36L3 36L3 34L4 34L4 37L3 37L3 38L1 38L1 39L0 39L0 40L2 40L2 39L3 39L3 38L4 38L4 37L5 37L5 39L8 39L8 38L9 38L9 42L10 42L10 43L9 43L9 44L8 44L8 43L7 43L7 42L8 42L8 40L6 40L6 41L3 41L3 42L5 42L5 43L7 43L7 44L6 44L6 45L7 45L7 46L5 46L5 44L3 44L3 43L2 43L2 42L0 42L0 44L3 44L3 45L4 45L4 46L5 46L5 47L7 47L7 48L4 48L4 47L3 47L3 50L4 50L4 49L5 49L5 50L6 50L6 51L5 51L5 52L4 52L4 51L3 51L3 52L1 52L1 49L2 49L2 45L1 45L1 47L0 47L0 52L1 52L1 54L0 54L0 55L2 55L2 56L0 56L0 57L3 57L3 58L2 58L2 59L3 59L3 58L4 58L4 59L7 59L7 60L6 60L6 61L8 61L8 62L9 62L9 61L10 61L10 65L9 65L9 63L8 63L8 65L9 65L9 66L11 66L11 67L13 67L13 69L16 69L16 68L17 68L17 69L19 69L19 68L18 68L18 67L20 67L20 66L22 66L22 68L23 68L23 69L24 69L24 67L25 67L25 69L27 69L27 67L28 67L28 66L30 66L30 65L31 65L31 67L33 67L33 66L34 66L34 65L35 65L35 66L36 66L36 65L38 65L38 67L39 67L39 66L40 66L40 63L41 63L41 67L40 67L40 68L38 68L38 69L40 69L40 68L42 68L42 69L43 69L43 63L42 63L42 62L43 62L43 61L42 61L42 58L45 58L45 59L44 59L44 69L46 69L46 67L45 67L45 62L46 62L46 61L45 61L45 60L46 60L46 59L47 59L47 63L46 63L46 64L47 64L47 65L48 65L48 66L47 66L47 67L48 67L48 69L49 69L49 68L50 68L50 69L52 69L52 68L54 68L54 69L58 69L58 68L57 68L57 67L59 67L59 66L58 66L58 65L59 65L59 63L60 63L60 66L61 66L61 67L60 67L60 68L59 68L59 69L61 69L61 68L62 68L62 69L63 69L63 68L64 68L64 69L67 69L67 68L65 68L65 63L66 63L66 62L67 62L67 65L66 65L66 66L69 66L69 63L68 63L68 61L67 61L67 60L68 60L68 58L69 58L69 57L68 57L68 56L67 56L67 58L66 58L66 56L65 56L65 58L64 58L64 57L63 57L63 56L64 56L64 55L65 55L65 54L66 54L66 55L68 55L68 53L69 53L69 52L68 52L68 50L67 50L67 49L65 49L65 47L66 47L66 46L67 46L67 48L68 48L68 46L67 46L67 44L66 44L66 46L64 46L64 41L67 41L67 43L68 43L68 44L69 44L69 43L68 43L68 42L69 42L69 41L68 41L68 38L69 38L69 35L68 35L68 32L67 32L67 33L66 33L66 32L63 32L63 31L64 31L64 30L65 30L65 31L68 31L68 30L69 30L69 29L68 29L68 28L67 28L67 30L65 30L65 29L64 29L64 28L65 28L65 27L68 27L68 26L69 26L69 25L68 25L68 26L67 26L67 24L65 24L65 25L64 25L64 22L63 22L63 21L64 21L64 20L65 20L65 19L67 19L67 20L66 20L66 21L65 21L65 22L66 22L66 23L68 23L68 24L69 24L69 23L68 23L68 22L69 22L69 20L68 20L68 18L67 18L67 16L66 16L66 17L64 17L64 16L65 16L65 13L67 13L67 12L65 12L65 13L64 13L64 11L62 11L62 12L61 12L61 13L60 13L60 11L61 11L61 9L60 9L60 8L59 8L59 10L58 10L58 8L56 8L56 7L57 7L57 5L58 5L58 7L59 7L59 4L57 4L57 5L55 5L55 4L56 4L56 3L59 3L59 2L58 2L58 1L61 1L61 0L57 0L57 1L56 1L56 0L53 0L53 1L55 1L55 2L52 2L52 1L51 1L51 0L50 0L50 2L49 2L49 0L47 0L47 2L46 2L46 3L45 3L45 1L46 1L46 0L45 0L45 1L44 1L44 0L41 0L41 1L40 1L40 0L37 0L37 1L36 1L36 0L35 0L35 1L34 1L34 0L32 0L32 1L31 1L31 0L22 0L22 1L21 1L21 0L16 0L16 4L15 4L15 2L14 2L14 1L15 1L15 0L14 0L14 1L13 1L13 0L12 0L12 1L13 1L13 2L12 2L12 4L13 4L13 5L11 5L11 4L10 4L10 1L9 1L9 0ZM19 1L19 2L17 2L17 4L16 4L16 5L15 5L15 7L16 7L16 8L17 8L17 7L18 7L18 5L20 5L20 6L19 6L19 8L20 8L20 9L16 9L16 10L15 10L15 11L16 11L16 12L18 12L18 11L17 11L17 10L19 10L19 12L21 12L21 11L20 11L20 9L22 9L22 11L23 11L23 12L22 12L22 13L21 13L21 14L20 14L20 13L19 13L19 14L20 14L20 15L19 15L19 16L18 16L18 17L19 17L19 19L18 19L18 20L19 20L19 22L20 22L20 20L19 20L19 19L20 19L20 18L21 18L21 17L24 17L24 16L25 16L25 15L26 15L26 16L28 16L28 17L27 17L27 19L28 19L28 18L29 18L29 16L28 16L28 15L27 15L27 13L26 13L26 12L28 12L28 14L29 14L29 12L31 12L31 13L32 13L32 12L33 12L33 11L36 11L36 9L35 9L35 10L34 10L34 9L31 9L31 8L32 8L32 6L31 6L31 5L32 5L32 2L33 2L33 3L34 3L34 4L35 4L35 3L36 3L36 1L35 1L35 3L34 3L34 1L32 1L32 2L30 2L30 3L29 3L29 2L28 2L28 1L27 1L27 3L26 3L26 2L25 2L25 1L24 1L24 2L23 2L23 3L24 3L24 4L25 4L25 3L26 3L26 5L20 5L20 3L21 3L21 4L22 4L22 2L20 2L20 1ZM37 1L37 3L38 3L38 4L40 4L40 5L39 5L39 8L40 8L40 10L38 10L38 9L37 9L37 11L40 11L40 10L41 10L41 14L40 14L40 13L39 13L39 12L38 12L38 13L37 13L37 12L36 12L36 13L33 13L33 14L30 14L30 15L32 15L32 16L31 16L31 18L30 18L30 19L32 19L32 20L31 20L31 21L28 21L28 20L27 20L27 21L26 21L26 17L25 17L25 18L24 18L24 19L25 19L25 21L26 21L26 22L27 22L27 23L26 23L26 24L25 24L25 23L24 23L24 24L25 24L25 26L24 26L24 25L21 25L21 23L22 23L22 24L23 24L23 20L22 20L22 19L23 19L23 18L22 18L22 19L21 19L21 20L22 20L22 21L21 21L21 23L20 23L20 24L19 24L19 23L18 23L18 22L17 22L17 24L16 24L16 23L15 23L15 25L14 25L14 26L15 26L15 25L17 25L17 24L19 24L19 25L18 25L18 26L16 26L16 27L15 27L15 29L16 29L16 30L18 30L18 31L17 31L17 32L16 32L16 31L15 31L15 32L14 32L14 34L13 34L13 33L12 33L12 31L13 31L13 29L14 29L14 27L12 27L12 26L13 26L13 25L11 25L11 24L10 24L10 23L12 23L12 22L13 22L13 19L11 19L11 18L10 18L10 17L12 17L12 15L13 15L13 14L12 14L12 15L11 15L11 16L9 16L9 18L7 18L7 17L5 17L5 18L7 18L7 19L6 19L6 20L5 20L5 19L4 19L4 18L3 18L3 19L2 19L2 20L1 20L1 21L6 21L6 22L8 22L8 23L9 23L9 25L6 25L6 26L8 26L8 27L5 27L5 26L3 26L3 27L2 27L2 28L4 28L4 29L2 29L2 30L1 30L1 31L2 31L2 32L3 32L3 33L4 33L4 32L9 32L9 34L10 34L10 32L9 32L9 31L10 31L10 30L12 30L12 31L11 31L11 34L12 34L12 35L9 35L9 38L10 38L10 39L11 39L11 38L10 38L10 37L11 37L11 36L12 36L12 37L13 37L13 35L14 35L14 36L15 36L15 37L16 37L16 38L17 38L17 37L16 37L16 36L15 36L15 35L14 35L14 34L15 34L15 33L16 33L16 35L17 35L17 36L22 36L22 37L21 37L21 38L22 38L22 37L23 37L23 39L25 39L25 41L24 41L24 40L22 40L22 39L21 39L21 41L22 41L22 43L23 43L23 44L22 44L22 45L21 45L21 42L20 42L20 40L19 40L19 39L20 39L20 37L19 37L19 38L18 38L18 40L19 40L19 43L20 43L20 45L17 45L17 44L15 44L15 45L14 45L14 46L13 46L13 49L12 49L12 44L13 44L13 43L12 43L12 42L15 42L15 43L16 43L16 42L18 42L18 41L17 41L17 39L15 39L15 40L16 40L16 41L14 41L14 40L13 40L13 39L12 39L12 40L10 40L10 41L12 41L12 42L11 42L11 43L10 43L10 44L9 44L9 47L8 47L8 48L7 48L7 49L6 49L6 50L8 50L8 52L7 52L7 51L6 51L6 52L7 52L7 53L3 53L3 56L4 56L4 57L5 57L5 58L7 58L7 59L8 59L8 61L9 61L9 60L11 60L11 63L13 63L13 62L12 62L12 61L13 61L13 60L14 60L14 58L13 58L13 60L12 60L12 57L17 57L17 58L16 58L16 59L15 59L15 61L16 61L16 62L15 62L15 63L14 63L14 64L15 64L15 63L16 63L16 64L17 64L17 65L15 65L15 67L17 67L17 65L18 65L18 64L19 64L19 65L20 65L20 64L21 64L21 63L20 63L20 61L18 61L18 63L16 63L16 62L17 62L17 60L18 60L18 59L17 59L17 58L20 58L20 60L22 60L22 62L23 62L23 61L25 61L25 62L26 62L26 58L27 58L27 57L26 57L26 55L25 55L25 54L26 54L26 49L25 49L25 50L22 50L22 54L20 54L20 53L19 53L19 54L17 54L17 52L15 52L15 53L13 53L13 54L11 54L11 55L10 55L10 52L11 52L11 53L12 53L12 51L13 51L13 50L14 50L14 51L15 51L15 50L14 50L14 48L16 48L16 50L18 50L18 51L20 51L20 50L21 50L21 49L23 49L23 48L24 48L24 47L26 47L26 48L28 48L28 49L27 49L27 51L28 51L28 50L29 50L29 52L31 52L31 53L32 53L32 54L30 54L30 55L29 55L29 56L28 56L28 54L29 54L29 53L27 53L27 56L28 56L28 58L29 58L29 59L31 59L31 61L32 61L32 58L33 58L33 59L34 59L34 58L35 58L35 60L37 60L37 62L38 62L38 65L39 65L39 63L40 63L40 62L41 62L41 60L39 60L39 62L38 62L38 59L39 59L39 58L40 58L40 59L41 59L41 58L40 58L40 57L41 57L41 56L42 56L42 57L44 57L44 54L45 54L45 53L46 53L46 54L47 54L47 57L46 57L46 58L47 58L47 57L48 57L48 55L49 55L49 54L48 54L48 53L46 53L46 52L49 52L49 53L51 53L51 55L50 55L50 57L49 57L49 58L48 58L48 59L50 59L50 60L49 60L49 63L50 63L50 64L49 64L49 66L50 66L50 68L51 68L51 67L52 67L52 66L53 66L53 67L54 67L54 68L55 68L55 67L57 67L57 66L56 66L56 65L55 65L55 67L54 67L54 65L53 65L53 64L54 64L54 63L55 63L55 62L56 62L56 63L57 63L57 65L58 65L58 63L59 63L59 61L60 61L60 59L61 59L61 58L60 58L60 56L59 56L59 53L60 53L60 55L64 55L64 54L65 54L65 53L67 53L67 50L66 50L66 51L65 51L65 49L64 49L64 51L65 51L65 52L62 52L62 53L64 53L64 54L61 54L61 53L60 53L60 52L59 52L59 53L58 53L58 56L57 56L57 55L56 55L56 52L57 52L57 51L58 51L58 50L59 50L59 51L61 51L61 50L62 50L62 51L63 51L63 50L62 50L62 48L64 48L64 47L63 47L63 46L62 46L62 47L61 47L61 46L60 46L60 47L61 47L61 49L60 49L60 48L59 48L59 49L58 49L58 50L56 50L56 48L58 48L58 46L59 46L59 45L60 45L60 44L59 44L59 43L61 43L61 45L63 45L63 41L64 41L64 40L67 40L67 39L64 39L64 38L67 38L67 37L68 37L68 35L67 35L67 34L65 34L65 37L62 37L62 39L61 39L61 40L59 40L59 39L58 39L58 38L59 38L59 37L60 37L60 38L61 38L61 37L60 37L60 36L59 36L59 35L60 35L60 34L59 34L59 33L60 33L60 32L62 32L62 31L63 31L63 30L64 30L64 29L63 29L63 27L64 27L64 26L63 26L63 27L62 27L62 25L63 25L63 24L62 24L62 23L63 23L63 22L62 22L62 21L63 21L63 20L64 20L64 17L63 17L63 20L62 20L62 21L61 21L61 22L60 22L60 23L59 23L59 19L60 19L60 18L59 18L59 17L60 17L60 16L61 16L61 19L62 19L62 15L64 15L64 13L63 13L63 12L62 12L62 13L61 13L61 14L60 14L60 13L58 13L58 12L57 12L57 13L56 13L56 12L55 12L55 11L58 11L58 10L56 10L56 8L55 8L55 7L56 7L56 6L55 6L55 7L54 7L54 5L53 5L53 4L52 4L52 3L51 3L51 4L52 4L52 5L53 5L53 7L52 7L52 6L51 6L51 7L52 7L52 10L50 10L50 8L49 8L49 7L50 7L50 6L49 6L49 7L48 7L48 5L47 5L47 4L49 4L49 5L50 5L50 3L48 3L48 2L47 2L47 4L46 4L46 5L44 5L44 4L45 4L45 3L44 3L44 2L43 2L43 3L42 3L42 4L43 4L43 5L41 5L41 4L40 4L40 3L39 3L39 2L40 2L40 1ZM41 1L41 2L42 2L42 1ZM55 2L55 3L56 3L56 2ZM13 3L13 4L14 4L14 3ZM27 3L27 5L26 5L26 7L25 7L25 6L24 6L24 7L25 7L25 8L24 8L24 9L23 9L23 11L24 11L24 13L23 13L23 14L22 14L22 15L21 15L21 16L19 16L19 17L21 17L21 16L23 16L23 15L24 15L24 14L25 14L25 12L26 12L26 11L27 11L27 9L30 9L30 10L31 10L31 11L32 11L32 10L31 10L31 9L30 9L30 8L31 8L31 6L30 6L30 5L31 5L31 4L29 4L29 3ZM43 3L43 4L44 4L44 3ZM60 3L60 5L61 5L61 3ZM28 4L28 5L27 5L27 7L26 7L26 8L25 8L25 9L24 9L24 10L25 10L25 11L26 11L26 10L25 10L25 9L26 9L26 8L27 8L27 7L28 7L28 8L29 8L29 7L30 7L30 6L29 6L29 7L28 7L28 5L29 5L29 4ZM13 5L13 7L12 7L12 6L11 6L11 9L12 9L12 8L13 8L13 7L14 7L14 5ZM33 5L33 8L36 8L36 5ZM37 5L37 8L38 8L38 5ZM40 5L40 8L43 8L43 6L44 6L44 7L45 7L45 8L44 8L44 9L45 9L45 10L46 10L46 11L43 11L43 9L41 9L41 10L42 10L42 12L44 12L44 13L45 13L45 14L43 14L43 13L42 13L42 15L39 15L39 16L38 16L38 15L37 15L37 16L36 16L36 15L35 15L35 14L34 14L34 15L33 15L33 17L34 17L34 16L35 16L35 18L37 18L37 17L38 17L38 18L39 18L39 19L34 19L34 18L33 18L33 21L32 21L32 23L31 23L31 24L30 24L30 25L29 25L29 26L33 26L33 25L35 25L35 26L34 26L34 28L35 28L35 27L36 27L36 26L37 26L37 28L36 28L36 29L33 29L33 31L34 31L34 30L37 30L37 28L38 28L38 27L40 27L40 28L42 28L42 30L40 30L40 29L38 29L38 31L35 31L35 32L32 32L32 31L31 31L31 32L30 32L30 31L29 31L29 30L28 30L28 29L27 29L27 28L29 28L29 29L32 29L32 28L33 28L33 27L30 27L30 28L29 28L29 27L28 27L28 25L27 25L27 24L26 24L26 26L25 26L25 28L24 28L24 27L23 27L23 26L21 26L21 25L20 25L20 26L18 26L18 27L17 27L17 28L16 28L16 29L20 29L20 30L19 30L19 32L18 32L18 33L17 33L17 35L18 35L18 34L19 34L19 35L20 35L20 34L23 34L23 35L22 35L22 36L23 36L23 37L24 37L24 38L25 38L25 37L24 37L24 36L23 36L23 35L25 35L25 36L26 36L26 37L27 37L27 38L26 38L26 39L27 39L27 40L26 40L26 41L25 41L25 42L24 42L24 41L23 41L23 43L24 43L24 45L22 45L22 47L21 47L21 45L20 45L20 47L21 47L21 48L19 48L19 46L18 46L18 47L17 47L17 46L16 46L16 45L15 45L15 46L16 46L16 47L17 47L17 49L18 49L18 50L19 50L19 49L21 49L21 48L23 48L23 47L24 47L24 46L26 46L26 45L29 45L29 47L28 47L28 48L29 48L29 49L30 49L30 51L31 51L31 49L32 49L32 51L34 51L34 52L35 52L35 55L37 55L37 56L36 56L36 57L35 57L35 58L36 58L36 59L37 59L37 56L38 56L38 58L39 58L39 57L40 57L40 55L41 55L41 54L42 54L42 55L43 55L43 54L44 54L44 53L45 53L45 50L46 50L46 51L47 51L47 50L46 50L46 49L45 49L45 48L47 48L47 49L48 49L48 51L49 51L49 52L50 52L50 51L51 51L51 50L53 50L53 53L52 53L52 52L51 52L51 53L52 53L52 54L53 54L53 53L54 53L54 55L52 55L52 56L51 56L51 57L50 57L50 58L51 58L51 59L52 59L52 60L51 60L51 61L50 61L50 62L51 62L51 65L50 65L50 66L52 66L52 64L53 64L53 63L52 63L52 62L55 62L55 61L52 61L52 60L53 60L53 58L56 58L56 57L57 57L57 58L58 58L58 59L57 59L57 60L56 60L56 59L55 59L55 60L56 60L56 61L57 61L57 62L58 62L58 60L59 60L59 59L60 59L60 58L58 58L58 57L59 57L59 56L58 56L58 57L57 57L57 56L56 56L56 55L55 55L55 51L54 51L54 50L55 50L55 47L52 47L52 44L53 44L53 46L56 46L56 47L57 47L57 46L58 46L58 45L59 45L59 44L58 44L58 43L59 43L59 42L58 42L58 41L57 41L57 40L56 40L56 38L58 38L58 37L59 37L59 36L56 36L56 35L59 35L59 34L58 34L58 32L59 32L59 31L58 31L58 29L59 29L59 30L60 30L60 31L61 31L61 28L62 28L62 27L60 27L60 26L61 26L61 25L62 25L62 24L59 24L59 23L58 23L58 21L57 21L57 20L58 20L58 17L59 17L59 14L58 14L58 13L57 13L57 14L58 14L58 16L57 16L57 15L56 15L56 17L54 17L54 16L55 16L55 15L54 15L54 14L55 14L55 12L54 12L54 13L52 13L52 12L53 12L53 11L50 11L50 10L49 10L49 8L47 8L47 6L46 6L46 7L45 7L45 6L44 6L44 5L43 5L43 6L42 6L42 7L41 7L41 5ZM9 6L9 7L10 7L10 6ZM16 6L16 7L17 7L17 6ZM20 6L20 8L21 8L21 6ZM22 6L22 8L23 8L23 6ZM34 6L34 7L35 7L35 6ZM60 6L60 7L61 7L61 6ZM53 7L53 8L54 8L54 7ZM0 8L0 12L1 12L1 14L0 14L0 15L1 15L1 16L0 16L0 18L1 18L1 16L2 16L2 14L3 14L3 12L1 12L1 11L4 11L4 10L3 10L3 9L2 9L2 8ZM45 8L45 9L46 9L46 10L47 10L47 8ZM63 8L63 9L62 9L62 10L63 10L63 9L64 9L64 10L65 10L65 11L66 11L66 10L67 10L67 11L68 11L68 14L67 14L67 15L68 15L68 17L69 17L69 15L68 15L68 14L69 14L69 11L68 11L68 10L69 10L69 8L65 8L65 9L64 9L64 8ZM6 9L6 10L7 10L7 9ZM53 9L53 10L55 10L55 9ZM67 9L67 10L68 10L68 9ZM28 10L28 11L29 11L29 10ZM46 11L46 14L45 14L45 19L44 19L44 18L41 18L41 17L42 17L42 16L40 16L40 19L39 19L39 20L38 20L38 21L37 21L37 20L35 20L35 21L33 21L33 23L32 23L32 25L33 25L33 23L39 23L39 24L40 24L40 27L42 27L42 28L43 28L43 30L44 30L44 31L40 31L40 33L44 33L44 34L43 34L43 35L42 35L42 36L40 36L40 37L43 37L43 38L45 38L45 37L46 37L46 42L45 42L45 43L44 43L44 40L45 40L45 39L43 39L43 42L38 42L38 41L39 41L39 39L40 39L40 41L41 41L41 39L40 39L40 38L38 38L38 39L37 39L37 37L38 37L38 36L39 36L39 35L41 35L41 34L39 34L39 35L37 35L37 37L36 37L36 39L35 39L35 40L34 40L34 41L35 41L35 40L38 40L38 41L36 41L36 42L35 42L35 44L31 44L31 43L33 43L33 41L32 41L32 40L30 40L30 41L27 41L27 43L28 43L28 44L29 44L29 43L28 43L28 42L30 42L30 41L32 41L32 42L31 42L31 43L30 43L30 44L31 44L31 45L35 45L35 44L36 44L36 45L37 45L37 46L36 46L36 47L35 47L35 46L33 46L33 47L32 47L32 46L31 46L31 47L30 47L30 48L32 48L32 49L33 49L33 47L34 47L34 50L35 50L35 49L36 49L36 51L35 51L35 52L37 52L37 51L39 51L39 50L38 50L38 49L39 49L39 47L41 47L41 48L40 48L40 51L41 51L41 52L40 52L40 53L42 53L42 51L43 51L43 53L44 53L44 51L43 51L43 50L42 50L42 51L41 51L41 49L42 49L42 45L41 45L41 46L40 46L40 45L39 45L39 46L38 46L38 45L37 45L37 43L38 43L38 44L39 44L39 43L41 43L41 44L43 44L43 47L44 47L44 48L43 48L43 49L44 49L44 50L45 50L45 49L44 49L44 48L45 48L45 46L44 46L44 44L46 44L46 47L47 47L47 48L49 48L49 50L50 50L50 48L51 48L51 47L50 47L50 48L49 48L49 47L47 47L47 44L48 44L48 43L49 43L49 42L50 42L50 44L49 44L49 46L50 46L50 44L51 44L51 42L52 42L52 41L54 41L54 40L52 40L52 41L51 41L51 42L50 42L50 41L48 41L48 43L47 43L47 37L48 37L48 35L49 35L49 36L50 36L50 37L49 37L49 40L50 40L50 39L51 39L51 38L52 38L52 39L55 39L55 38L56 38L56 36L55 36L55 34L53 34L53 32L55 32L55 33L56 33L56 34L57 34L57 33L56 33L56 32L57 32L57 30L56 30L56 32L55 32L55 30L54 30L54 31L53 31L53 30L52 30L52 29L56 29L56 27L57 27L57 25L55 25L55 23L56 23L56 21L55 21L55 22L54 22L54 24L52 24L52 29L51 29L51 27L50 27L50 28L49 28L49 29L48 29L48 30L47 30L47 29L46 29L46 27L45 27L45 29L46 29L46 30L44 30L44 27L43 27L43 26L41 26L41 25L42 25L42 24L43 24L43 25L44 25L44 24L45 24L45 23L44 23L44 20L46 20L46 19L47 19L47 20L49 20L49 21L48 21L48 23L47 23L47 25L46 25L46 26L47 26L47 25L48 25L48 27L49 27L49 26L50 26L50 25L51 25L51 24L50 24L50 23L51 23L51 22L52 22L52 23L53 23L53 22L52 22L52 21L53 21L53 20L54 20L54 17L53 17L53 14L52 14L52 15L51 15L51 14L50 14L50 13L51 13L51 12L50 12L50 13L49 13L49 15L47 15L47 16L49 16L49 15L50 15L50 16L52 16L52 17L51 17L51 18L50 18L50 17L48 17L48 18L47 18L47 17L46 17L46 14L47 14L47 11ZM5 12L5 13L4 13L4 15L5 15L5 13L8 13L8 12ZM17 13L17 15L16 15L16 16L17 16L17 15L18 15L18 13ZM38 13L38 14L39 14L39 13ZM62 13L62 14L61 14L61 15L62 15L62 14L63 14L63 13ZM6 14L6 15L7 15L7 14ZM43 15L43 17L44 17L44 15ZM52 17L52 18L51 18L51 19L49 19L49 20L51 20L51 21L50 21L50 22L49 22L49 23L48 23L48 25L50 25L50 24L49 24L49 23L50 23L50 22L51 22L51 21L52 21L52 19L53 19L53 17ZM56 17L56 18L55 18L55 19L56 19L56 18L57 18L57 17ZM7 19L7 20L6 20L6 21L7 21L7 20L8 20L8 21L10 21L10 19L9 19L9 20L8 20L8 19ZM41 19L41 21L42 21L42 23L43 23L43 21L42 21L42 19ZM39 20L39 23L40 23L40 24L41 24L41 23L40 23L40 20ZM67 20L67 22L68 22L68 20ZM11 21L11 22L12 22L12 21ZM27 21L27 22L28 22L28 23L30 23L30 22L28 22L28 21ZM36 21L36 22L37 22L37 21ZM46 21L46 22L47 22L47 21ZM61 22L61 23L62 23L62 22ZM57 23L57 24L58 24L58 23ZM35 24L35 25L36 25L36 24ZM37 24L37 25L38 25L38 24ZM9 25L9 26L10 26L10 25ZM53 25L53 27L54 27L54 28L55 28L55 27L56 27L56 26L55 26L55 25ZM58 25L58 28L57 28L57 29L58 29L58 28L59 28L59 29L60 29L60 28L59 28L59 25ZM20 26L20 29L21 29L21 26ZM26 26L26 27L27 27L27 26ZM54 26L54 27L55 27L55 26ZM8 27L8 28L9 28L9 29L11 29L11 28L12 28L12 27ZM22 27L22 30L23 30L23 31L22 31L22 32L21 32L21 33L29 33L29 34L28 34L28 35L27 35L27 37L28 37L28 38L27 38L27 39L28 39L28 38L29 38L29 39L30 39L30 37L29 37L29 36L31 36L31 37L32 37L32 38L31 38L31 39L32 39L32 38L33 38L33 39L34 39L34 38L35 38L35 37L32 37L32 32L31 32L31 35L30 35L30 33L29 33L29 32L26 32L26 31L25 31L25 30L26 30L26 28L25 28L25 30L23 30L23 27ZM5 28L5 29L4 29L4 30L3 30L3 32L4 32L4 30L6 30L6 31L7 31L7 30L6 30L6 29L7 29L7 28ZM50 29L50 30L49 30L49 32L47 32L47 30L46 30L46 31L44 31L44 33L45 33L45 34L44 34L44 37L45 37L45 34L46 34L46 37L47 37L47 35L48 35L48 34L49 34L49 35L50 35L50 36L51 36L51 37L50 37L50 38L51 38L51 37L52 37L52 38L55 38L55 37L54 37L54 36L53 36L53 34L52 34L52 32L53 32L53 31L52 31L52 32L51 32L51 33L50 33L50 30L51 30L51 29ZM62 29L62 30L63 30L63 29ZM20 30L20 31L21 31L21 30ZM27 30L27 31L28 31L28 30ZM24 31L24 32L25 32L25 31ZM19 32L19 33L20 33L20 32ZM38 32L38 33L39 33L39 32ZM5 33L5 36L8 36L8 33ZM33 33L33 36L36 36L36 33ZM46 33L46 34L48 34L48 33ZM49 33L49 34L50 34L50 35L51 35L51 36L52 36L52 37L53 37L53 36L52 36L52 34L50 34L50 33ZM61 33L61 36L64 36L64 33ZM6 34L6 35L7 35L7 34ZM25 34L25 35L26 35L26 34ZM34 34L34 35L35 35L35 34ZM62 34L62 35L63 35L63 34ZM6 37L6 38L7 38L7 37ZM62 39L62 41L63 41L63 40L64 40L64 39ZM55 40L55 42L56 42L56 43L55 43L55 44L54 44L54 42L53 42L53 44L54 44L54 45L56 45L56 46L57 46L57 45L58 45L58 44L57 44L57 43L58 43L58 42L57 42L57 41L56 41L56 40ZM6 41L6 42L7 42L7 41ZM25 42L25 45L26 45L26 42ZM36 42L36 43L37 43L37 42ZM61 42L61 43L62 43L62 42ZM11 43L11 44L12 44L12 43ZM43 43L43 44L44 44L44 43ZM46 43L46 44L47 44L47 43ZM56 44L56 45L57 45L57 44ZM10 45L10 46L11 46L11 45ZM9 47L9 48L8 48L8 50L9 50L9 51L12 51L12 50L9 50L9 48L10 48L10 49L11 49L11 48L10 48L10 47ZM36 47L36 48L37 48L37 49L38 49L38 48L37 48L37 47ZM18 48L18 49L19 49L19 48ZM52 48L52 49L53 49L53 48ZM59 49L59 50L60 50L60 49ZM23 51L23 56L22 56L22 55L21 55L21 56L17 56L17 55L16 55L16 53L15 53L15 55L16 55L16 56L17 56L17 57L20 57L20 58L21 58L21 59L23 59L23 60L24 60L24 59L23 59L23 58L21 58L21 57L24 57L24 58L25 58L25 56L24 56L24 54L25 54L25 52L24 52L24 51ZM8 52L8 53L9 53L9 52ZM32 52L32 53L33 53L33 56L32 56L32 57L34 57L34 53L33 53L33 52ZM38 52L38 53L36 53L36 54L37 54L37 55L39 55L39 52ZM4 54L4 55L5 55L5 56L6 56L6 57L7 57L7 58L8 58L8 59L9 59L9 58L11 58L11 56L10 56L10 57L9 57L9 58L8 58L8 54ZM6 55L6 56L7 56L7 55ZM13 55L13 56L14 56L14 55ZM54 55L54 56L52 56L52 57L54 57L54 56L55 56L55 57L56 57L56 56L55 56L55 55ZM30 56L30 57L29 57L29 58L31 58L31 56ZM61 56L61 57L62 57L62 59L63 59L63 60L64 60L64 59L63 59L63 57L62 57L62 56ZM0 58L0 61L1 61L1 58ZM27 59L27 60L28 60L28 62L27 62L27 63L29 63L29 64L26 64L26 63L25 63L25 64L23 64L23 63L22 63L22 66L23 66L23 65L30 65L30 64L31 64L31 65L32 65L32 66L33 66L33 65L32 65L32 64L31 64L31 63L32 63L32 62L29 62L29 60L28 60L28 59ZM65 59L65 60L67 60L67 59ZM3 60L3 61L5 61L5 60ZM33 61L33 64L36 64L36 61ZM51 61L51 62L52 62L52 61ZM61 61L61 64L64 64L64 61ZM34 62L34 63L35 63L35 62ZM62 62L62 63L63 63L63 62ZM19 63L19 64L20 64L20 63ZM12 65L12 66L13 66L13 65ZM61 65L61 66L62 66L62 68L63 68L63 65ZM25 66L25 67L27 67L27 66ZM8 67L8 69L10 69L10 67ZM29 67L29 69L31 69L31 68L30 68L30 67ZM34 67L34 68L35 68L35 67ZM11 68L11 69L12 69L12 68ZM32 68L32 69L33 69L33 68ZM36 68L36 69L37 69L37 68ZM68 68L68 69L69 69L69 68ZM0 0L0 7L7 7L7 0ZM1 1L1 6L6 6L6 1ZM2 2L2 5L5 5L5 2ZM62 0L62 7L69 7L69 0ZM63 1L63 6L68 6L68 1ZM64 2L64 5L67 5L67 2ZM0 62L0 69L7 69L7 62ZM1 63L1 68L6 68L6 63ZM2 64L2 67L5 67L5 64Z" fill="#000000"/></g></g></svg>
