<?xml version="1.0" encoding="UTF-8"?>
<svg xmlns="http://www.w3.org/2000/svg" version="1.1" width="300" height="300" viewBox="0 0 300 300"><rect x="0" y="0" width="300" height="300" fill="#ffffff"/><g transform="scale(4.615)"><g transform="translate(0,0)"><path fill-rule="evenodd" d="M8 0L8 2L9 2L9 1L12 1L12 0ZM13 0L13 1L14 1L14 0ZM15 0L15 2L14 2L14 3L15 3L15 2L16 2L16 0ZM17 0L17 1L18 1L18 0ZM20 0L20 1L21 1L21 0ZM24 0L24 1L23 1L23 2L22 2L22 3L23 3L23 4L22 4L22 5L23 5L23 6L22 6L22 7L21 7L21 6L20 6L20 8L22 8L22 9L23 9L23 11L24 11L24 7L25 7L25 8L26 8L26 9L27 9L27 11L28 11L28 12L26 12L26 13L25 13L25 12L22 12L22 10L19 10L19 8L18 8L18 7L19 7L19 6L18 6L18 7L17 7L17 4L16 4L16 5L15 5L15 6L14 6L14 5L13 5L13 4L11 4L11 3L12 3L12 2L10 2L10 3L9 3L9 4L8 4L8 10L6 10L6 9L7 9L7 8L5 8L5 9L4 9L4 10L2 10L2 13L3 13L3 14L2 14L2 15L0 15L0 16L1 16L1 17L0 17L0 18L1 18L1 19L0 19L0 21L1 21L1 19L2 19L2 21L3 21L3 23L4 23L4 26L3 26L3 25L2 25L2 23L1 23L1 22L0 22L0 23L1 23L1 25L0 25L0 29L1 29L1 30L3 30L3 31L4 31L4 32L1 32L1 35L2 35L2 34L3 34L3 36L4 36L4 35L5 35L5 36L6 36L6 37L7 37L7 38L4 38L4 37L3 37L3 39L2 39L2 37L0 37L0 38L1 38L1 39L0 39L0 41L1 41L1 42L2 42L2 44L4 44L4 45L1 45L1 44L0 44L0 45L1 45L1 46L3 46L3 47L1 47L1 50L0 50L0 53L1 53L1 54L2 54L2 55L3 55L3 56L1 56L1 55L0 55L0 56L1 56L1 57L3 57L3 56L4 56L4 57L5 57L5 56L4 56L4 54L5 54L5 55L8 55L8 54L9 54L9 53L8 53L8 54L5 54L5 51L7 51L7 50L6 50L6 49L9 49L9 50L10 50L10 49L12 49L12 48L13 48L13 47L14 47L14 51L13 51L13 50L11 50L11 51L12 51L12 52L13 52L13 53L11 53L11 52L10 52L10 56L8 56L8 58L9 58L9 57L10 57L10 59L12 59L12 57L13 57L13 55L12 55L12 54L13 54L13 53L14 53L14 56L15 56L15 58L13 58L13 61L12 61L12 60L10 60L10 62L8 62L8 65L9 65L9 63L11 63L11 64L10 64L10 65L11 65L11 64L12 64L12 65L13 65L13 63L14 63L14 65L15 65L15 62L14 62L14 59L16 59L16 57L17 57L17 56L15 56L15 55L17 55L17 54L16 54L16 53L17 53L17 52L16 52L16 51L15 51L15 50L16 50L16 49L17 49L17 47L16 47L16 46L18 46L18 47L19 47L19 48L18 48L18 50L20 50L20 51L18 51L18 52L19 52L19 55L18 55L18 57L19 57L19 58L17 58L17 59L18 59L18 60L16 60L16 61L17 61L17 62L16 62L16 63L17 63L17 64L18 64L18 65L19 65L19 58L20 58L20 61L21 61L21 62L20 62L20 63L21 63L21 65L24 65L24 64L23 64L23 63L22 63L22 62L23 62L23 60L24 60L24 61L25 61L25 62L24 62L24 63L26 63L26 65L27 65L27 64L28 64L28 63L29 63L29 65L31 65L31 64L32 64L32 63L33 63L33 65L34 65L34 63L35 63L35 64L36 64L36 65L37 65L37 63L36 63L36 62L35 62L35 60L36 60L36 61L37 61L37 62L38 62L38 65L39 65L39 64L40 64L40 65L43 65L43 64L42 64L42 63L41 63L41 61L43 61L43 62L44 62L44 63L45 63L45 64L44 64L44 65L47 65L47 64L48 64L48 65L50 65L50 64L51 64L51 63L50 63L50 64L48 64L48 63L49 63L49 62L48 62L48 61L50 61L50 59L49 59L49 54L46 54L46 53L47 53L47 50L46 50L46 49L47 49L47 46L46 46L46 45L47 45L47 44L48 44L48 51L49 51L49 50L50 50L50 49L51 49L51 47L52 47L52 50L51 50L51 51L50 51L50 52L51 52L51 51L52 51L52 53L53 53L53 54L52 54L52 55L53 55L53 56L52 56L52 57L53 57L53 59L54 59L54 61L53 61L53 60L52 60L52 61L53 61L53 62L52 62L52 63L53 63L53 62L54 62L54 64L52 64L52 65L54 65L54 64L55 64L55 62L54 62L54 61L56 61L56 64L57 64L57 65L59 65L59 64L58 64L58 63L59 63L59 61L60 61L60 63L61 63L61 64L60 64L60 65L63 65L63 64L62 64L62 62L63 62L63 63L65 63L65 62L63 62L63 60L64 60L64 61L65 61L65 60L64 60L64 59L65 59L65 58L64 58L64 59L63 59L63 57L64 57L64 56L65 56L65 53L62 53L62 51L63 51L63 52L64 52L64 51L65 51L65 48L64 48L64 47L65 47L65 46L64 46L64 45L65 45L65 42L64 42L64 41L65 41L65 36L64 36L64 35L65 35L65 34L64 34L64 35L63 35L63 36L64 36L64 37L63 37L63 38L62 38L62 37L61 37L61 38L58 38L58 37L59 37L59 36L60 36L60 35L61 35L61 36L62 36L62 34L63 34L63 33L62 33L62 30L63 30L63 29L64 29L64 33L65 33L65 26L64 26L64 25L65 25L65 21L64 21L64 24L63 24L63 25L62 25L62 23L60 23L60 21L61 21L61 22L62 22L62 21L63 21L63 20L65 20L65 18L64 18L64 17L65 17L65 16L64 16L64 15L65 15L65 10L64 10L64 11L63 11L63 10L62 10L62 9L61 9L61 8L56 8L56 7L57 7L57 6L56 6L56 7L55 7L55 5L54 5L54 4L56 4L56 5L57 5L57 4L56 4L56 3L57 3L57 1L56 1L56 0L55 0L55 1L56 1L56 3L55 3L55 2L54 2L54 1L53 1L53 0L50 0L50 1L51 1L51 3L50 3L50 2L49 2L49 3L50 3L50 5L51 5L51 6L50 6L50 7L51 7L51 11L50 11L50 9L49 9L49 6L48 6L48 11L47 11L47 10L46 10L46 9L47 9L47 5L48 5L48 1L49 1L49 0L46 0L46 2L45 2L45 3L47 3L47 4L45 4L45 5L44 5L44 3L43 3L43 4L42 4L42 7L41 7L41 4L40 4L40 3L42 3L42 2L44 2L44 1L45 1L45 0L42 0L42 2L40 2L40 1L39 1L39 0L38 0L38 1L37 1L37 2L38 2L38 1L39 1L39 3L38 3L38 5L35 5L35 4L36 4L36 1L35 1L35 0L34 0L34 1L35 1L35 3L34 3L34 2L30 2L30 1L31 1L31 0L30 0L30 1L29 1L29 0L27 0L27 2L26 2L26 3L28 3L28 5L27 5L27 4L26 4L26 7L25 7L25 6L24 6L24 5L25 5L25 3L24 3L24 1L25 1L25 0ZM32 0L32 1L33 1L33 0ZM28 1L28 3L29 3L29 4L31 4L31 3L29 3L29 1ZM52 1L52 4L53 4L53 1ZM18 2L18 3L19 3L19 4L18 4L18 5L21 5L21 3L20 3L20 2ZM32 3L32 4L34 4L34 3ZM9 4L9 5L10 5L10 6L9 6L9 7L10 7L10 8L11 8L11 9L10 9L10 10L8 10L8 11L6 11L6 10L4 10L4 12L5 12L5 14L3 14L3 15L2 15L2 17L3 17L3 16L5 16L5 17L4 17L4 19L3 19L3 18L2 18L2 19L3 19L3 20L4 20L4 23L5 23L5 25L6 25L6 26L7 26L7 27L6 27L6 28L7 28L7 27L8 27L8 29L9 29L9 36L7 36L7 35L6 35L6 36L7 36L7 37L10 37L10 38L11 38L11 39L10 39L10 41L9 41L9 40L7 40L7 39L8 39L8 38L7 38L7 39L5 39L5 40L4 40L4 39L3 39L3 40L4 40L4 41L3 41L3 42L4 42L4 44L10 44L10 45L8 45L8 46L10 46L10 48L9 48L9 49L10 49L10 48L12 48L12 46L13 46L13 44L12 44L12 46L10 46L10 45L11 45L11 42L13 42L13 43L14 43L14 44L15 44L15 40L17 40L17 41L16 41L16 43L18 43L18 42L19 42L19 44L21 44L21 46L20 46L20 47L21 47L21 49L20 49L20 48L19 48L19 49L20 49L20 50L21 50L21 51L20 51L20 56L19 56L19 57L20 57L20 58L21 58L21 60L22 60L22 58L23 58L23 57L22 57L22 55L23 55L23 56L24 56L24 58L25 58L25 57L26 57L26 56L28 56L28 58L29 58L29 57L30 57L30 56L31 56L31 53L32 53L32 56L33 56L33 55L34 55L34 56L35 56L35 59L36 59L36 60L37 60L37 61L38 61L38 62L39 62L39 61L40 61L40 60L41 60L41 59L43 59L43 58L44 58L44 59L45 59L45 61L44 61L44 60L43 60L43 61L44 61L44 62L45 62L45 61L46 61L46 64L47 64L47 61L48 61L48 60L49 60L49 59L48 59L48 60L47 60L47 59L46 59L46 58L48 58L48 57L47 57L47 55L46 55L46 54L45 54L45 53L46 53L46 50L45 50L45 49L46 49L46 48L45 48L45 49L44 49L44 48L43 48L43 49L42 49L42 48L41 48L41 49L42 49L42 50L43 50L43 51L40 51L40 47L41 47L41 45L42 45L42 46L45 46L45 47L46 47L46 46L45 46L45 45L46 45L46 42L47 42L47 41L48 41L48 42L49 42L49 41L50 41L50 42L51 42L51 43L52 43L52 44L51 44L51 45L50 45L50 43L48 43L48 44L49 44L49 45L50 45L50 46L49 46L49 49L50 49L50 46L52 46L52 47L53 47L53 49L54 49L54 50L52 50L52 51L56 51L56 50L55 50L55 49L54 49L54 46L55 46L55 48L56 48L56 46L57 46L57 52L58 52L58 53L55 53L55 52L53 52L53 53L54 53L54 54L55 54L55 55L54 55L54 58L56 58L56 57L55 57L55 55L56 55L56 54L57 54L57 56L58 56L58 54L59 54L59 56L60 56L60 54L62 54L62 56L61 56L61 58L62 58L62 56L63 56L63 55L64 55L64 54L62 54L62 53L61 53L61 50L63 50L63 49L60 49L60 50L59 50L59 47L58 47L58 45L60 45L60 46L61 46L61 45L60 45L60 42L61 42L61 41L62 41L62 45L64 45L64 42L63 42L63 41L64 41L64 40L63 40L63 39L64 39L64 38L63 38L63 39L62 39L62 40L61 40L61 39L58 39L58 38L57 38L57 37L58 37L58 35L57 35L57 36L56 36L56 34L55 34L55 33L54 33L54 32L55 32L55 31L56 31L56 30L57 30L57 29L58 29L58 30L59 30L59 29L60 29L60 30L61 30L61 29L62 29L62 28L64 28L64 26L62 26L62 25L61 25L61 26L62 26L62 28L61 28L61 27L60 27L60 28L59 28L59 29L58 29L58 27L59 27L59 26L60 26L60 23L59 23L59 24L58 24L58 22L59 22L59 21L58 21L58 20L57 20L57 19L58 19L58 18L59 18L59 19L60 19L60 18L61 18L61 19L62 19L62 20L63 20L63 19L64 19L64 18L63 18L63 19L62 19L62 17L60 17L60 16L61 16L61 15L62 15L62 16L63 16L63 17L64 17L64 16L63 16L63 15L64 15L64 14L63 14L63 11L62 11L62 14L61 14L61 15L60 15L60 11L61 11L61 10L60 10L60 9L58 9L58 10L57 10L57 9L56 9L56 10L55 10L55 8L54 8L54 5L52 5L52 6L51 6L51 7L52 7L52 6L53 6L53 8L54 8L54 10L53 10L53 9L52 9L52 11L54 11L54 12L55 12L55 13L54 13L54 14L55 14L55 16L56 16L56 18L55 18L55 17L54 17L54 15L52 15L52 12L51 12L51 13L50 13L50 14L49 14L49 13L48 13L48 14L49 14L49 15L47 15L47 12L46 12L46 11L43 11L43 9L44 9L44 10L45 10L45 9L44 9L44 6L43 6L43 9L42 9L42 8L41 8L41 10L40 10L40 11L39 11L39 7L40 7L40 6L39 6L39 5L38 5L38 6L37 6L37 7L36 7L36 6L35 6L35 9L34 9L34 12L33 12L33 13L32 13L32 12L31 12L31 11L30 11L30 9L28 9L28 10L29 10L29 11L30 11L30 12L29 12L29 14L28 14L28 15L30 15L30 17L28 17L28 18L27 18L27 17L26 17L26 16L27 16L27 15L26 15L26 14L27 14L27 13L26 13L26 14L24 14L24 15L26 15L26 16L25 16L25 17L24 17L24 18L25 18L25 19L24 19L24 20L22 20L22 19L23 19L23 17L22 17L22 16L23 16L23 13L22 13L22 12L21 12L21 11L20 11L20 12L21 12L21 14L20 14L20 15L21 15L21 16L20 16L20 19L19 19L19 17L18 17L18 16L19 16L19 14L18 14L18 12L19 12L19 11L17 11L17 12L16 12L16 13L17 13L17 14L18 14L18 15L17 15L17 17L16 17L16 18L17 18L17 22L16 22L16 23L18 23L18 24L17 24L17 25L16 25L16 26L17 26L17 25L18 25L18 26L19 26L19 27L18 27L18 28L17 28L17 27L16 27L16 28L13 28L13 29L12 29L12 30L14 30L14 31L12 31L12 32L11 32L11 31L10 31L10 29L11 29L11 28L12 28L12 27L13 27L13 26L14 26L14 27L15 27L15 26L14 26L14 25L15 25L15 24L14 24L14 23L15 23L15 22L14 22L14 23L13 23L13 21L14 21L14 20L16 20L16 19L14 19L14 17L13 17L13 19L12 19L12 18L11 18L11 17L10 17L10 16L11 16L11 15L12 15L12 16L15 16L15 15L16 15L16 14L14 14L14 15L13 15L13 13L15 13L15 12L14 12L14 11L16 11L16 9L17 9L17 10L18 10L18 8L16 8L16 6L15 6L15 8L14 8L14 6L13 6L13 5L12 5L12 6L11 6L11 4ZM23 4L23 5L24 5L24 4ZM28 5L28 6L27 6L27 8L28 8L28 6L29 6L29 7L30 7L30 6L29 6L29 5ZM31 5L31 8L34 8L34 5ZM10 6L10 7L11 7L11 6ZM12 6L12 7L13 7L13 6ZM23 6L23 7L22 7L22 8L23 8L23 7L24 7L24 6ZM32 6L32 7L33 7L33 6ZM38 6L38 7L39 7L39 6ZM45 6L45 7L46 7L46 6ZM0 8L0 10L1 10L1 9L3 9L3 8ZM12 8L12 9L11 9L11 10L10 10L10 11L8 11L8 12L6 12L6 13L8 13L8 14L5 14L5 16L6 16L6 17L7 17L7 18L5 18L5 19L7 19L7 20L5 20L5 21L8 21L8 22L9 22L9 26L8 26L8 25L7 25L7 24L8 24L8 23L7 23L7 22L5 22L5 23L7 23L7 24L6 24L6 25L7 25L7 26L8 26L8 27L10 27L10 28L9 28L9 29L10 29L10 28L11 28L11 27L10 27L10 25L11 25L11 26L12 26L12 25L13 25L13 24L12 24L12 25L11 25L11 23L10 23L10 22L11 22L11 21L13 21L13 20L14 20L14 19L13 19L13 20L12 20L12 19L11 19L11 18L10 18L10 17L9 17L9 18L8 18L8 17L7 17L7 16L9 16L9 14L10 14L10 15L11 15L11 13L12 13L12 12L13 12L13 11L12 11L12 10L15 10L15 9L16 9L16 8L15 8L15 9L14 9L14 8ZM36 8L36 10L35 10L35 11L36 11L36 13L35 13L35 12L34 12L34 13L35 13L35 15L34 15L34 17L33 17L33 15L31 15L31 14L32 14L32 13L31 13L31 12L30 12L30 15L31 15L31 18L30 18L30 19L29 19L29 20L30 20L30 21L31 21L31 22L32 22L32 25L31 25L31 24L30 24L30 23L29 23L29 22L28 22L28 23L26 23L26 26L24 26L24 25L25 25L25 24L24 24L24 23L21 23L21 22L20 22L20 20L21 20L21 19L20 19L20 20L19 20L19 19L18 19L18 20L19 20L19 22L18 22L18 23L19 23L19 24L18 24L18 25L19 25L19 26L20 26L20 25L19 25L19 24L22 24L22 25L23 25L23 27L24 27L24 29L25 29L25 30L24 30L24 31L26 31L26 33L25 33L25 32L24 32L24 33L23 33L23 32L22 32L22 31L21 31L21 30L20 30L20 31L21 31L21 32L22 32L22 34L20 34L20 33L19 33L19 31L18 31L18 30L16 30L16 31L18 31L18 33L19 33L19 34L17 34L17 35L16 35L16 33L17 33L17 32L15 32L15 31L14 31L14 34L13 34L13 33L12 33L12 34L11 34L11 33L10 33L10 34L11 34L11 35L10 35L10 37L11 37L11 35L12 35L12 37L13 37L13 39L12 39L12 41L13 41L13 40L14 40L14 36L13 36L13 35L15 35L15 38L16 38L16 36L17 36L17 38L18 38L18 39L17 39L17 40L18 40L18 41L19 41L19 42L20 42L20 43L21 43L21 44L22 44L22 45L23 45L23 47L22 47L22 46L21 46L21 47L22 47L22 50L23 50L23 51L22 51L22 52L23 52L23 51L24 51L24 53L23 53L23 55L24 55L24 56L26 56L26 55L27 55L27 54L28 54L28 55L29 55L29 56L30 56L30 54L28 54L28 53L30 53L30 52L27 52L27 51L26 51L26 52L27 52L27 54L24 54L24 53L25 53L25 51L24 51L24 49L25 49L25 50L26 50L26 49L27 49L27 50L28 50L28 51L29 51L29 50L28 50L28 49L31 49L31 50L30 50L30 51L32 51L32 53L33 53L33 52L34 52L34 51L35 51L35 50L36 50L36 51L38 51L38 49L39 49L39 47L40 47L40 45L41 45L41 44L42 44L42 45L43 45L43 44L42 44L42 43L43 43L43 42L42 42L42 40L43 40L43 38L42 38L42 37L45 37L45 38L44 38L44 45L45 45L45 42L46 42L46 40L45 40L45 38L46 38L46 39L47 39L47 40L48 40L48 41L49 41L49 40L48 40L48 39L50 39L50 40L51 40L51 41L52 41L52 43L53 43L53 42L54 42L54 43L55 43L55 42L57 42L57 41L58 41L58 43L56 43L56 44L55 44L55 46L56 46L56 44L57 44L57 45L58 45L58 43L59 43L59 42L60 42L60 41L61 41L61 40L59 40L59 41L58 41L58 39L56 39L56 40L55 40L55 38L56 38L56 36L55 36L55 34L54 34L54 33L53 33L53 32L54 32L54 31L53 31L53 30L54 30L54 28L52 28L52 27L56 27L56 29L55 29L55 30L56 30L56 29L57 29L57 27L58 27L58 24L57 24L57 27L56 27L56 24L55 24L55 23L54 23L54 24L52 24L52 23L53 23L53 22L54 22L54 20L55 20L55 22L56 22L56 21L57 21L57 22L58 22L58 21L57 21L57 20L55 20L55 19L54 19L54 20L52 20L52 18L53 18L53 16L52 16L52 18L51 18L51 19L50 19L50 16L51 16L51 14L50 14L50 15L49 15L49 16L48 16L48 18L49 18L49 20L48 20L48 19L47 19L47 20L44 20L44 21L43 21L43 23L42 23L42 24L40 24L40 25L41 25L41 26L40 26L40 27L41 27L41 28L40 28L40 29L39 29L39 32L40 32L40 34L38 34L38 33L37 33L37 32L38 32L38 31L36 31L36 33L35 33L35 30L34 30L34 29L35 29L35 28L34 28L34 25L33 25L33 24L36 24L36 25L37 25L37 26L36 26L36 27L37 27L37 26L38 26L38 28L36 28L36 29L37 29L37 30L38 30L38 28L39 28L39 26L38 26L38 25L39 25L39 24L36 24L36 21L37 21L37 23L38 23L38 20L39 20L39 19L40 19L40 17L41 17L41 19L42 19L42 17L43 17L43 18L46 18L46 17L45 17L45 16L46 16L46 15L45 15L45 14L46 14L46 13L45 13L45 12L44 12L44 13L45 13L45 14L44 14L44 15L45 15L45 16L44 16L44 17L43 17L43 16L42 16L42 15L43 15L43 14L42 14L42 12L43 12L43 11L42 11L42 12L41 12L41 11L40 11L40 13L39 13L39 14L38 14L38 13L37 13L37 10L38 10L38 9L37 9L37 8ZM63 8L63 9L65 9L65 8ZM32 9L32 11L33 11L33 9ZM25 10L25 11L26 11L26 10ZM54 10L54 11L55 11L55 12L56 12L56 13L55 13L55 14L56 14L56 15L57 15L57 18L56 18L56 19L57 19L57 18L58 18L58 17L59 17L59 18L60 18L60 17L59 17L59 14L58 14L58 11L60 11L60 10L58 10L58 11L57 11L57 10L56 10L56 11L55 11L55 10ZM0 11L0 14L1 14L1 11ZM10 11L10 13L11 13L11 11ZM36 13L36 15L35 15L35 17L34 17L34 18L35 18L35 19L34 19L34 23L35 23L35 21L36 21L36 20L38 20L38 19L39 19L39 17L40 17L40 16L41 16L41 13L40 13L40 16L39 16L39 17L38 17L38 15L37 15L37 13ZM56 13L56 14L57 14L57 13ZM21 14L21 15L22 15L22 14ZM6 15L6 16L7 16L7 15ZM36 16L36 17L37 17L37 18L36 18L36 19L37 19L37 18L38 18L38 17L37 17L37 16ZM17 17L17 18L18 18L18 17ZM25 17L25 18L26 18L26 17ZM9 18L9 19L10 19L10 18ZM31 18L31 19L30 19L30 20L31 20L31 19L32 19L32 18ZM26 19L26 20L28 20L28 19ZM8 20L8 21L9 21L9 22L10 22L10 21L11 21L11 20L10 20L10 21L9 21L9 20ZM24 20L24 21L23 21L23 22L24 22L24 21L25 21L25 20ZM40 20L40 21L39 21L39 23L40 23L40 21L41 21L41 20ZM47 20L47 21L45 21L45 23L46 23L46 26L47 26L47 27L45 27L45 26L44 26L44 23L43 23L43 25L42 25L42 26L41 26L41 27L43 27L43 28L42 28L42 29L41 29L41 31L40 31L40 32L41 32L41 31L43 31L43 33L42 33L42 34L44 34L44 35L45 35L45 34L44 34L44 32L45 32L45 33L46 33L46 34L48 34L48 35L49 35L49 36L51 36L51 37L50 37L50 38L51 38L51 39L53 39L53 41L54 41L54 42L55 42L55 41L54 41L54 39L53 39L53 37L54 37L54 38L55 38L55 37L54 37L54 34L53 34L53 33L52 33L52 32L53 32L53 31L52 31L52 30L51 30L51 29L52 29L52 28L51 28L51 25L52 25L52 24L51 24L51 23L52 23L52 22L53 22L53 21L52 21L52 20L50 20L50 21L48 21L48 20ZM51 21L51 22L52 22L52 21ZM19 22L19 23L20 23L20 22ZM48 22L48 23L47 23L47 24L48 24L48 25L47 25L47 26L48 26L48 29L49 29L49 30L48 30L48 31L49 31L49 32L48 32L48 34L50 34L50 35L51 35L51 36L52 36L52 37L53 37L53 36L52 36L52 33L51 33L51 32L52 32L52 31L49 31L49 30L50 30L50 25L51 25L51 24L50 24L50 23L49 23L49 22ZM28 23L28 26L27 26L27 27L28 27L28 28L29 28L29 27L30 27L30 29L31 29L31 30L33 30L33 29L34 29L34 28L33 28L33 26L31 26L31 27L30 27L30 24L29 24L29 23ZM48 23L48 24L49 24L49 23ZM54 24L54 26L55 26L55 24ZM48 25L48 26L49 26L49 25ZM4 26L4 27L3 27L3 28L2 28L2 27L1 27L1 29L3 29L3 30L4 30L4 29L3 29L3 28L5 28L5 26ZM28 26L28 27L29 27L29 26ZM43 26L43 27L44 27L44 30L46 30L46 31L45 31L45 32L46 32L46 31L47 31L47 30L46 30L46 29L47 29L47 28L45 28L45 27L44 27L44 26ZM19 27L19 28L18 28L18 29L19 29L19 28L20 28L20 29L21 29L21 28L22 28L22 29L23 29L23 28L22 28L22 27L21 27L21 28L20 28L20 27ZM16 28L16 29L17 29L17 28ZM25 28L25 29L26 29L26 31L27 31L27 30L29 30L29 31L28 31L28 32L27 32L27 33L26 33L26 34L27 34L27 33L28 33L28 35L29 35L29 37L28 37L28 36L27 36L27 35L26 35L26 36L27 36L27 37L26 37L26 38L25 38L25 37L24 37L24 38L25 38L25 39L24 39L24 40L25 40L25 39L26 39L26 40L27 40L27 41L28 41L28 43L27 43L27 44L29 44L29 42L30 42L30 45L28 45L28 46L27 46L27 48L31 48L31 49L32 49L32 51L34 51L34 50L35 50L35 49L36 49L36 42L37 42L37 41L36 41L36 42L35 42L35 43L34 43L34 41L35 41L35 40L34 40L34 37L36 37L36 38L35 38L35 39L37 39L37 40L38 40L38 44L39 44L39 45L38 45L38 46L37 46L37 49L38 49L38 46L39 46L39 45L40 45L40 44L39 44L39 40L38 40L38 39L39 39L39 37L40 37L40 39L41 39L41 40L42 40L42 38L41 38L41 37L42 37L42 35L41 35L41 34L40 34L40 35L39 35L39 37L38 37L38 39L37 39L37 37L36 37L36 35L37 35L37 36L38 36L38 35L37 35L37 33L36 33L36 35L32 35L32 38L31 38L31 36L30 36L30 33L28 33L28 32L30 32L30 30L29 30L29 29L26 29L26 28ZM32 28L32 29L33 29L33 28ZM60 28L60 29L61 29L61 28ZM6 29L6 30L7 30L7 29ZM14 29L14 30L15 30L15 29ZM5 31L5 34L8 34L8 31ZM31 31L31 34L34 34L34 31ZM57 31L57 34L60 34L60 31ZM6 32L6 33L7 33L7 32ZM32 32L32 33L33 33L33 32ZM49 32L49 33L50 33L50 34L51 34L51 33L50 33L50 32ZM58 32L58 33L59 33L59 32ZM3 33L3 34L4 34L4 33ZM24 33L24 34L23 34L23 35L22 35L22 36L24 36L24 34L25 34L25 33ZM61 33L61 34L62 34L62 33ZM12 34L12 35L13 35L13 34ZM19 34L19 35L18 35L18 36L20 36L20 38L19 38L19 37L18 37L18 38L19 38L19 39L18 39L18 40L19 40L19 41L20 41L20 42L21 42L21 43L22 43L22 44L23 44L23 43L22 43L22 42L23 42L23 41L22 41L22 40L21 40L21 39L22 39L22 38L23 38L23 37L22 37L22 38L21 38L21 36L20 36L20 34ZM40 35L40 37L41 37L41 35ZM46 35L46 36L45 36L45 37L46 37L46 38L47 38L47 39L48 39L48 36L47 36L47 35ZM33 36L33 37L34 37L34 36ZM46 36L46 37L47 37L47 36ZM27 37L27 40L28 40L28 41L29 41L29 39L28 39L28 37ZM20 38L20 39L19 39L19 40L20 40L20 41L21 41L21 42L22 42L22 41L21 41L21 40L20 40L20 39L21 39L21 38ZM1 39L1 40L2 40L2 39ZM31 39L31 42L32 42L32 39ZM6 40L6 41L4 41L4 42L6 42L6 43L7 43L7 42L6 42L6 41L7 41L7 40ZM8 41L8 42L9 42L9 43L10 43L10 42L11 42L11 41L10 41L10 42L9 42L9 41ZM24 41L24 42L25 42L25 43L24 43L24 44L25 44L25 46L24 46L24 47L26 47L26 42L25 42L25 41ZM40 41L40 42L41 42L41 43L42 43L42 42L41 42L41 41ZM31 43L31 45L30 45L30 46L29 46L29 47L30 47L30 46L31 46L31 47L32 47L32 49L33 49L33 50L34 50L34 49L33 49L33 47L32 47L32 43ZM17 44L17 45L18 45L18 46L19 46L19 45L18 45L18 44ZM33 44L33 46L34 46L34 47L35 47L35 46L34 46L34 44ZM52 44L52 46L54 46L54 45L53 45L53 44ZM4 45L4 47L5 47L5 48L8 48L8 47L6 47L6 46L7 46L7 45L6 45L6 46L5 46L5 45ZM14 45L14 47L15 47L15 45ZM63 46L63 47L62 47L62 48L63 48L63 47L64 47L64 46ZM60 47L60 48L61 48L61 47ZM2 48L2 50L1 50L1 51L2 51L2 54L4 54L4 51L5 51L5 50L3 50L3 48ZM23 48L23 49L24 49L24 48ZM25 48L25 49L26 49L26 48ZM43 49L43 50L44 50L44 49ZM58 50L58 52L60 52L60 51L59 51L59 50ZM43 51L43 52L40 52L40 53L41 53L41 54L38 54L38 52L36 52L36 53L35 53L35 54L34 54L34 55L35 55L35 56L36 56L36 58L37 58L37 59L38 59L38 61L39 61L39 59L41 59L41 54L42 54L42 55L43 55L43 54L44 54L44 53L45 53L45 51ZM6 52L6 53L7 53L7 52ZM14 52L14 53L16 53L16 52ZM43 52L43 53L42 53L42 54L43 54L43 53L44 53L44 52ZM48 52L48 53L49 53L49 52ZM21 54L21 55L22 55L22 54ZM35 54L35 55L36 55L36 56L37 56L37 57L38 57L38 59L39 59L39 58L40 58L40 57L38 57L38 56L39 56L39 55L36 55L36 54ZM11 55L11 56L10 56L10 57L11 57L11 56L12 56L12 55ZM45 55L45 56L44 56L44 57L45 57L45 58L46 58L46 57L45 57L45 56L46 56L46 55ZM50 55L50 56L51 56L51 55ZM6 56L6 57L7 57L7 56ZM20 56L20 57L21 57L21 56ZM42 56L42 57L43 57L43 56ZM31 57L31 60L34 60L34 57ZM57 57L57 60L60 60L60 57ZM26 58L26 59L24 59L24 60L25 60L25 61L26 61L26 60L27 60L27 62L26 62L26 63L28 63L28 62L29 62L29 63L30 63L30 64L31 64L31 63L32 63L32 62L33 62L33 63L34 63L34 61L32 61L32 62L29 62L29 60L30 60L30 59L28 59L28 60L27 60L27 58ZM32 58L32 59L33 59L33 58ZM51 58L51 59L52 59L52 58ZM58 58L58 59L59 59L59 58ZM8 59L8 60L9 60L9 59ZM62 59L62 60L61 60L61 61L62 61L62 60L63 60L63 59ZM11 61L11 62L12 62L12 63L13 63L13 62L12 62L12 61ZM57 61L57 62L58 62L58 61ZM40 63L40 64L41 64L41 63ZM64 64L64 65L65 65L65 64ZM0 0L0 7L7 7L7 0ZM1 1L1 6L6 6L6 1ZM2 2L2 5L5 5L5 2ZM58 0L58 7L65 7L65 0ZM59 1L59 6L64 6L64 1ZM60 2L60 5L63 5L63 2ZM0 58L0 65L7 65L7 58ZM1 59L1 64L6 64L6 59ZM2 60L2 63L5 63L5 60Z" fill="#000000"/></g></g></svg>
