<?xml version="1.0" encoding="UTF-8"?>
<svg xmlns="http://www.w3.org/2000/svg" version="1.1" width="300" height="300" viewBox="0 0 300 300"><rect x="0" y="0" width="300" height="300" fill="#ffffff"/><g transform="scale(4.348)"><g transform="translate(0,0)"><path fill-rule="evenodd" d="M9 0L9 1L8 1L8 2L9 2L9 1L11 1L11 2L10 2L10 4L9 4L9 3L8 3L8 4L9 4L9 5L8 5L8 7L9 7L9 6L10 6L10 7L11 7L11 8L6 8L6 9L5 9L5 8L0 8L0 10L1 10L1 9L2 9L2 10L3 10L3 9L4 9L4 11L5 11L5 10L6 10L6 11L7 11L7 12L6 12L6 13L7 13L7 14L5 14L5 13L4 13L4 12L3 12L3 11L2 11L2 13L1 13L1 15L0 15L0 16L1 16L1 17L0 17L0 18L3 18L3 16L1 16L1 15L3 15L3 14L5 14L5 16L6 16L6 17L5 17L5 20L4 20L4 21L5 21L5 20L6 20L6 21L7 21L7 22L6 22L6 23L4 23L4 22L2 22L2 20L1 20L1 19L0 19L0 21L1 21L1 22L0 22L0 24L1 24L1 25L2 25L2 27L3 27L3 26L4 26L4 25L5 25L5 26L6 26L6 27L4 27L4 28L3 28L3 29L2 29L2 28L0 28L0 30L1 30L1 32L3 32L3 33L4 33L4 35L1 35L1 34L0 34L0 37L1 37L1 38L0 38L0 40L1 40L1 42L2 42L2 43L0 43L0 44L1 44L1 45L0 45L0 46L2 46L2 48L3 48L3 50L2 50L2 52L0 52L0 53L2 53L2 52L3 52L3 51L5 51L5 52L4 52L4 55L5 55L5 56L4 56L4 59L7 59L7 60L6 60L6 61L8 61L8 63L10 63L10 62L11 62L11 64L10 64L10 65L11 65L11 64L12 64L12 65L13 65L13 67L12 67L12 66L11 66L11 67L10 67L10 66L9 66L9 64L8 64L8 69L9 69L9 67L10 67L10 69L12 69L12 68L13 68L13 69L16 69L16 67L17 67L17 69L22 69L22 68L18 68L18 67L20 67L20 66L19 66L19 65L20 65L20 63L22 63L22 64L25 64L25 65L23 65L23 66L22 66L22 65L21 65L21 67L23 67L23 69L26 69L26 68L25 68L25 67L26 67L26 66L25 66L25 65L28 65L28 66L27 66L27 67L28 67L28 68L27 68L27 69L28 69L28 68L29 68L29 69L32 69L32 68L33 68L33 69L34 69L34 68L33 68L33 65L35 65L35 66L36 66L36 67L35 67L35 68L36 68L36 69L38 69L38 68L37 68L37 67L39 67L39 66L38 66L38 65L39 65L39 64L41 64L41 66L40 66L40 67L41 67L41 68L42 68L42 69L44 69L44 68L47 68L47 69L50 69L50 65L51 65L51 64L50 64L50 63L47 63L47 66L46 66L46 64L45 64L45 63L46 63L46 62L45 62L45 61L47 61L47 62L50 62L50 61L51 61L51 63L54 63L54 64L55 64L55 65L53 65L53 66L51 66L51 68L52 68L52 67L53 67L53 69L54 69L54 68L55 68L55 69L56 69L56 68L55 68L55 65L56 65L56 67L57 67L57 65L58 65L58 63L59 63L59 64L60 64L60 66L58 66L58 67L59 67L59 69L60 69L60 68L62 68L62 67L63 67L63 69L65 69L65 68L67 68L67 69L68 69L68 68L67 68L67 67L65 67L65 68L64 68L64 67L63 67L63 65L65 65L65 64L69 64L69 63L68 63L68 62L67 62L67 61L69 61L69 60L67 60L67 59L68 59L68 57L69 57L69 56L68 56L68 55L67 55L67 54L69 54L69 53L67 53L67 54L66 54L66 52L68 52L68 50L69 50L69 49L68 49L68 48L69 48L69 47L68 47L68 43L66 43L66 42L69 42L69 41L65 41L65 40L67 40L67 39L68 39L68 40L69 40L69 39L68 39L68 38L67 38L67 37L68 37L68 36L69 36L69 35L68 35L68 34L69 34L69 33L68 33L68 32L69 32L69 31L68 31L68 32L67 32L67 31L64 31L64 32L63 32L63 31L62 31L62 29L63 29L63 28L64 28L64 27L63 27L63 28L62 28L62 29L61 29L61 27L62 27L62 25L61 25L61 24L63 24L63 23L65 23L65 25L64 25L64 26L65 26L65 29L66 29L66 28L69 28L69 27L68 27L68 25L69 25L69 24L68 24L68 23L67 23L67 22L69 22L69 21L68 21L68 18L69 18L69 17L67 17L67 16L69 16L69 15L68 15L68 14L69 14L69 13L68 13L68 12L69 12L69 11L68 11L68 10L69 10L69 9L68 9L68 8L67 8L67 9L66 9L66 8L65 8L65 9L64 9L64 8L63 8L63 10L62 10L62 8L61 8L61 6L60 6L60 9L59 9L59 10L62 10L62 12L61 12L61 13L59 13L59 14L61 14L61 15L62 15L62 16L61 16L61 17L59 17L59 15L58 15L58 16L57 16L57 17L56 17L56 16L55 16L55 15L54 15L54 14L56 14L56 15L57 15L57 14L56 14L56 13L51 13L51 14L49 14L49 13L50 13L50 12L53 12L53 11L55 11L55 12L60 12L60 11L56 11L56 10L55 10L55 8L57 8L57 9L58 9L58 8L57 8L57 6L56 6L56 3L55 3L55 2L57 2L57 4L58 4L58 7L59 7L59 4L58 4L58 3L59 3L59 2L58 2L58 1L61 1L61 0L51 0L51 1L50 1L50 0L49 0L49 1L48 1L48 0L47 0L47 1L45 1L45 0L44 0L44 1L45 1L45 2L44 2L44 3L43 3L43 0L39 0L39 1L38 1L38 0L37 0L37 1L34 1L34 0L33 0L33 1L32 1L32 2L33 2L33 1L34 1L34 2L35 2L35 4L33 4L33 3L32 3L32 4L31 4L31 2L30 2L30 0L28 0L28 1L27 1L27 2L24 2L24 1L25 1L25 0L23 0L23 1L22 1L22 0L21 0L21 1L22 1L22 2L21 2L21 3L20 3L20 4L19 4L19 3L17 3L17 1L19 1L19 2L20 2L20 1L19 1L19 0L16 0L16 3L14 3L14 2L15 2L15 1L13 1L13 0ZM12 1L12 2L13 2L13 1ZM37 1L37 3L36 3L36 4L37 4L37 5L38 5L38 6L37 6L37 8L38 8L38 9L37 9L37 10L36 10L36 9L35 9L35 10L33 10L33 9L31 9L31 8L32 8L32 5L30 5L30 6L29 6L29 3L28 3L28 2L27 2L27 3L26 3L26 4L25 4L25 7L24 7L24 6L23 6L23 5L22 5L22 6L21 6L21 8L22 8L22 9L20 9L20 5L21 5L21 4L24 4L24 2L23 2L23 3L21 3L21 4L20 4L20 5L19 5L19 9L20 9L20 10L17 10L17 11L15 11L15 10L16 10L16 6L17 6L17 7L18 7L18 6L17 6L17 5L18 5L18 4L17 4L17 5L15 5L15 7L14 7L14 6L13 6L13 4L12 4L12 5L11 5L11 4L10 4L10 6L11 6L11 7L12 7L12 6L13 6L13 7L14 7L14 8L15 8L15 10L14 10L14 9L10 9L10 12L9 12L9 10L7 10L7 9L6 9L6 10L7 10L7 11L8 11L8 12L7 12L7 13L8 13L8 12L9 12L9 14L10 14L10 12L11 12L11 13L12 13L12 11L13 11L13 10L14 10L14 11L15 11L15 13L16 13L16 14L15 14L15 15L17 15L17 16L15 16L15 17L13 17L13 16L14 16L14 13L13 13L13 14L11 14L11 15L10 15L10 17L13 17L13 19L12 19L12 18L9 18L9 19L12 19L12 20L11 20L11 21L8 21L8 22L7 22L7 23L6 23L6 24L5 24L5 25L6 25L6 26L7 26L7 27L6 27L6 28L4 28L4 30L2 30L2 31L4 31L4 30L5 30L5 29L6 29L6 30L7 30L7 31L5 31L5 32L10 32L10 31L8 31L8 30L10 30L10 28L9 28L9 27L8 27L8 26L9 26L9 25L8 25L8 26L7 26L7 25L6 25L6 24L7 24L7 23L8 23L8 22L10 22L10 23L9 23L9 24L10 24L10 25L11 25L11 26L13 26L13 27L12 27L12 28L14 28L14 26L16 26L16 25L17 25L17 26L18 26L18 27L21 27L21 28L19 28L19 29L20 29L20 30L19 30L19 32L20 32L20 33L19 33L19 34L20 34L20 35L19 35L19 36L21 36L21 37L17 37L17 36L18 36L18 35L15 35L15 34L17 34L17 33L18 33L18 32L17 32L17 31L18 31L18 29L17 29L17 28L16 28L16 27L15 27L15 28L16 28L16 29L15 29L15 30L13 30L13 32L14 32L14 33L15 33L15 34L13 34L13 33L9 33L9 35L10 35L10 34L12 34L12 36L13 36L13 38L14 38L14 39L12 39L12 37L11 37L11 36L10 36L10 37L9 37L9 38L10 38L10 39L8 39L8 37L6 37L6 38L5 38L5 37L4 37L4 40L2 40L2 39L3 39L3 36L1 36L1 37L2 37L2 38L1 38L1 40L2 40L2 42L3 42L3 41L5 41L5 43L3 43L3 44L2 44L2 45L4 45L4 46L3 46L3 47L5 47L5 48L4 48L4 49L5 49L5 48L8 48L8 47L9 47L9 46L10 46L10 45L11 45L11 46L14 46L14 47L13 47L13 48L12 48L12 47L10 47L10 49L11 49L11 48L12 48L12 50L11 50L11 51L9 51L9 53L10 53L10 52L13 52L13 53L11 53L11 54L13 54L13 55L12 55L12 56L13 56L13 57L10 57L10 56L11 56L11 55L9 55L9 57L10 57L10 58L12 58L12 59L8 59L8 60L11 60L11 62L12 62L12 61L13 61L13 63L14 63L14 59L13 59L13 58L16 58L16 57L17 57L17 56L16 56L16 57L15 57L15 55L17 55L17 54L18 54L18 53L16 53L16 52L14 52L14 51L12 51L12 50L13 50L13 48L14 48L14 50L16 50L16 51L18 51L18 52L19 52L19 53L20 53L20 54L19 54L19 55L20 55L20 56L19 56L19 57L20 57L20 59L22 59L22 60L21 60L21 61L20 61L20 62L21 62L21 61L22 61L22 63L23 63L23 60L24 60L24 61L25 61L25 62L29 62L29 60L31 60L31 62L30 62L30 63L27 63L27 64L28 64L28 65L29 65L29 64L31 64L31 63L32 63L32 60L35 60L35 59L36 59L36 58L35 58L35 56L33 56L33 55L32 55L32 53L28 53L28 52L34 52L34 53L33 53L33 54L34 54L34 55L36 55L36 54L35 54L35 51L36 51L36 50L37 50L37 51L38 51L38 50L41 50L41 51L39 51L39 54L37 54L37 55L42 55L42 54L40 54L40 53L42 53L42 52L44 52L44 53L43 53L43 56L42 56L42 57L43 57L43 59L44 59L44 61L43 61L43 60L42 60L42 58L41 58L41 59L40 59L40 62L39 62L39 60L38 60L38 59L37 59L37 60L38 60L38 62L37 62L37 63L38 63L38 64L39 64L39 63L41 63L41 64L44 64L44 66L41 66L41 67L43 67L43 68L44 68L44 66L45 66L45 67L46 67L46 66L45 66L45 64L44 64L44 61L45 61L45 58L46 58L46 60L49 60L49 61L50 61L50 58L51 58L51 57L52 57L52 58L53 58L53 59L52 59L52 60L51 60L51 61L55 61L55 64L56 64L56 65L57 65L57 64L56 64L56 61L57 61L57 62L59 62L59 63L60 63L60 60L61 60L61 58L62 58L62 60L65 60L65 57L66 57L66 58L67 58L67 57L68 57L68 56L65 56L65 57L63 57L63 56L61 56L61 55L65 55L65 52L66 52L66 51L65 51L65 50L66 50L66 49L67 49L67 48L68 48L68 47L67 47L67 48L65 48L65 47L66 47L66 44L65 44L65 41L63 41L63 39L65 39L65 38L66 38L66 37L64 37L64 38L62 38L62 39L60 39L60 37L58 37L58 36L60 36L60 35L59 35L59 32L60 32L60 31L61 31L61 32L62 32L62 31L61 31L61 30L59 30L59 28L57 28L57 26L59 26L59 27L61 27L61 26L59 26L59 25L60 25L60 24L61 24L61 22L60 22L60 21L62 21L62 23L63 23L63 22L67 22L67 21L66 21L66 20L65 20L65 18L66 18L66 19L67 19L67 18L66 18L66 16L65 16L65 14L68 14L68 13L65 13L65 12L64 12L64 11L67 11L67 12L68 12L68 11L67 11L67 10L66 10L66 9L65 9L65 10L63 10L63 12L62 12L62 13L61 13L61 14L63 14L63 15L64 15L64 16L62 16L62 18L59 18L59 17L57 17L57 18L58 18L58 20L57 20L57 19L56 19L56 18L55 18L55 19L54 19L54 20L50 20L50 18L51 18L51 17L52 17L52 18L53 18L53 17L55 17L55 16L51 16L51 15L49 15L49 14L47 14L47 12L50 12L50 11L49 11L49 10L51 10L51 9L54 9L54 5L53 5L53 7L52 7L52 6L51 6L51 4L55 4L55 3L54 3L54 1L53 1L53 2L52 2L52 1L51 1L51 3L50 3L50 1L49 1L49 2L48 2L48 3L49 3L49 4L47 4L47 2L45 2L45 3L44 3L44 5L43 5L43 7L42 7L42 5L41 5L41 8L38 8L38 6L39 6L39 7L40 7L40 6L39 6L39 4L43 4L43 3L42 3L42 1L41 1L41 2L38 2L38 1ZM37 3L37 4L38 4L38 3ZM45 3L45 4L46 4L46 3ZM60 3L60 5L61 5L61 3ZM26 4L26 5L27 5L27 6L26 6L26 7L25 7L25 8L24 8L24 7L23 7L23 6L22 6L22 7L23 7L23 8L24 8L24 9L23 9L23 10L24 10L24 9L25 9L25 12L24 12L24 11L22 11L22 12L20 12L20 11L18 11L18 12L16 12L16 13L18 13L18 14L17 14L17 15L18 15L18 14L20 14L20 13L22 13L22 16L23 16L23 17L24 17L24 18L22 18L22 17L18 17L18 16L17 16L17 17L18 17L18 18L14 18L14 19L13 19L13 20L12 20L12 21L14 21L14 19L16 19L16 21L17 21L17 23L15 23L15 22L13 22L13 23L15 23L15 24L14 24L14 25L13 25L13 26L14 26L14 25L16 25L16 24L17 24L17 25L18 25L18 26L20 26L20 24L18 24L18 23L19 23L19 22L20 22L20 23L21 23L21 24L22 24L22 25L21 25L21 27L24 27L24 28L23 28L23 29L24 29L24 30L20 30L20 31L21 31L21 32L22 32L22 31L23 31L23 32L24 32L24 31L26 31L26 32L25 32L25 33L23 33L23 34L22 34L22 33L21 33L21 36L23 36L23 37L21 37L21 39L20 39L20 38L19 38L19 39L18 39L18 38L15 38L15 37L14 37L14 38L15 38L15 40L16 40L16 39L17 39L17 40L18 40L18 41L17 41L17 43L18 43L18 44L17 44L17 45L21 45L21 46L19 46L19 47L21 47L21 46L22 46L22 47L23 47L23 48L26 48L26 47L24 47L24 46L27 46L27 45L26 45L26 44L28 44L28 43L31 43L31 44L29 44L29 46L28 46L28 47L29 47L29 49L30 49L30 50L29 50L29 51L30 51L30 50L33 50L33 51L34 51L34 49L31 49L31 45L34 45L34 47L35 47L35 48L36 48L36 47L38 47L38 49L37 49L37 50L38 50L38 49L39 49L39 48L40 48L40 47L41 47L41 48L42 48L42 49L41 49L41 50L42 50L42 51L44 51L44 52L45 52L45 53L44 53L44 56L43 56L43 57L44 57L44 56L46 56L46 57L47 57L47 58L48 58L48 59L49 59L49 58L50 58L50 57L51 57L51 54L49 54L49 55L50 55L50 57L49 57L49 56L48 56L48 55L47 55L47 56L46 56L46 54L45 54L45 53L47 53L47 54L48 54L48 53L50 53L50 52L51 52L51 53L52 53L52 52L53 52L53 54L52 54L52 56L55 56L55 57L53 57L53 58L54 58L54 59L53 59L53 60L54 60L54 59L56 59L56 58L57 58L57 57L58 57L58 56L57 56L57 57L56 57L56 55L57 55L57 53L56 53L56 52L59 52L59 51L60 51L60 50L58 50L58 49L59 49L59 48L61 48L61 49L62 49L62 50L61 50L61 51L62 51L62 52L60 52L60 53L62 53L62 54L63 54L63 53L64 53L64 52L63 52L63 51L64 51L64 50L63 50L63 49L62 49L62 48L61 48L61 47L62 47L62 45L63 45L63 43L64 43L64 42L63 42L63 41L62 41L62 42L63 42L63 43L61 43L61 44L60 44L60 45L59 45L59 44L58 44L58 43L59 43L59 42L60 42L60 41L61 41L61 40L60 40L60 41L59 41L59 42L58 42L58 43L55 43L55 42L56 42L56 35L55 35L55 37L51 37L51 38L50 38L50 33L51 33L51 35L52 35L52 33L51 33L51 31L50 31L50 29L51 29L51 30L52 30L52 32L53 32L53 30L55 30L55 29L56 29L56 31L57 31L57 30L58 30L58 32L59 32L59 30L58 30L58 29L56 29L56 28L54 28L54 29L52 29L52 28L53 28L53 27L52 27L52 26L50 26L50 24L48 24L48 23L47 23L47 24L46 24L46 22L44 22L44 20L43 20L43 21L42 21L42 19L43 19L43 17L44 17L44 16L45 16L45 17L46 17L46 16L47 16L47 17L49 17L49 18L48 18L48 19L47 19L47 18L44 18L44 19L47 19L47 20L46 20L46 21L49 21L49 22L50 22L50 23L54 23L54 24L53 24L53 26L54 26L54 27L56 27L56 26L57 26L57 25L58 25L58 24L59 24L59 23L60 23L60 22L58 22L58 21L57 21L57 22L56 22L56 19L55 19L55 21L51 21L51 22L50 22L50 21L49 21L49 18L50 18L50 17L51 17L51 16L50 16L50 17L49 17L49 15L48 15L48 16L47 16L47 15L46 15L46 16L45 16L45 14L43 14L43 13L44 13L44 12L43 12L43 13L42 13L42 14L41 14L41 12L42 12L42 10L45 10L45 9L46 9L46 7L47 7L47 10L49 10L49 9L50 9L50 7L51 7L51 6L50 6L50 7L49 7L49 6L48 6L48 7L47 7L47 6L46 6L46 5L44 5L44 7L45 7L45 9L44 9L44 8L43 8L43 9L41 9L41 12L40 12L40 10L37 10L37 11L39 11L39 12L37 12L37 13L36 13L36 12L34 12L34 11L33 11L33 12L34 12L34 13L33 13L33 14L32 14L32 15L31 15L31 14L30 14L30 13L32 13L32 12L31 12L31 11L32 11L32 10L31 10L31 9L30 9L30 8L29 8L29 9L30 9L30 11L29 11L29 10L27 10L27 11L29 11L29 12L30 12L30 13L29 13L29 14L27 14L27 13L25 13L25 12L26 12L26 8L27 8L27 6L28 6L28 7L29 7L29 6L28 6L28 5L27 5L27 4ZM49 4L49 5L50 5L50 4ZM33 5L33 8L36 8L36 5ZM30 6L30 7L31 7L31 6ZM34 6L34 7L35 7L35 6ZM45 6L45 7L46 7L46 6ZM55 6L55 7L56 7L56 6ZM35 10L35 11L36 11L36 10ZM0 11L0 12L1 12L1 11ZM45 11L45 12L46 12L46 11ZM22 12L22 13L24 13L24 12ZM39 12L39 13L38 13L38 14L37 14L37 15L38 15L38 14L39 14L39 15L40 15L40 16L37 16L37 17L38 17L38 19L39 19L39 18L41 18L41 17L42 17L42 16L44 16L44 15L43 15L43 14L42 14L42 15L40 15L40 14L39 14L39 13L40 13L40 12ZM2 13L2 14L3 14L3 13ZM34 13L34 14L33 14L33 15L32 15L32 16L31 16L31 18L32 18L32 20L31 20L31 21L30 21L30 22L29 22L29 16L27 16L27 14L23 14L23 16L24 16L24 17L26 17L26 18L24 18L24 19L21 19L21 20L19 20L19 21L18 21L18 20L17 20L17 21L18 21L18 22L19 22L19 21L20 21L20 22L21 22L21 23L22 23L22 22L23 22L23 21L24 21L24 19L26 19L26 18L27 18L27 19L28 19L28 21L27 21L27 20L26 20L26 21L27 21L27 22L26 22L26 23L25 23L25 24L26 24L26 26L25 26L25 27L26 27L26 29L25 29L25 28L24 28L24 29L25 29L25 30L29 30L29 31L30 31L30 32L31 32L31 31L30 31L30 30L29 30L29 29L27 29L27 28L31 28L31 29L32 29L32 28L31 28L31 27L33 27L33 28L34 28L34 29L33 29L33 30L32 30L32 32L34 32L34 31L33 31L33 30L34 30L34 29L36 29L36 28L35 28L35 27L36 27L36 26L35 26L35 25L34 25L34 24L38 24L38 26L37 26L37 27L39 27L39 28L40 28L40 29L38 29L38 28L37 28L37 29L38 29L38 30L37 30L37 31L35 31L35 32L38 32L38 34L39 34L39 35L37 35L37 36L38 36L38 37L36 37L36 38L35 38L35 37L34 37L34 38L35 38L35 39L36 39L36 38L38 38L38 39L41 39L41 40L36 40L36 41L38 41L38 42L37 42L37 43L40 43L40 44L39 44L39 45L38 45L38 44L35 44L35 40L33 40L33 38L32 38L32 36L31 36L31 35L32 35L32 33L31 33L31 35L30 35L30 36L31 36L31 38L30 38L30 37L29 37L29 36L28 36L28 35L27 35L27 34L28 34L28 33L29 33L29 34L30 34L30 33L29 33L29 32L28 32L28 33L25 33L25 34L23 34L23 35L24 35L24 37L23 37L23 38L22 38L22 39L21 39L21 40L22 40L22 41L20 41L20 40L19 40L19 41L18 41L18 42L19 42L19 41L20 41L20 44L21 44L21 45L24 45L24 44L26 44L26 43L25 43L25 42L27 42L27 43L28 43L28 42L30 42L30 41L31 41L31 43L33 43L33 42L32 42L32 40L33 40L33 41L34 41L34 45L35 45L35 47L36 47L36 46L37 46L37 45L38 45L38 46L39 46L39 47L40 47L40 46L39 46L39 45L40 45L40 44L41 44L41 43L40 43L40 41L41 41L41 40L44 40L44 42L43 42L43 43L44 43L44 46L42 46L42 45L41 45L41 46L42 46L42 48L43 48L43 47L44 47L44 49L43 49L43 50L44 50L44 49L45 49L45 52L46 52L46 51L51 51L51 52L52 52L52 51L53 51L53 52L54 52L54 53L55 53L55 54L54 54L54 55L55 55L55 54L56 54L56 53L55 53L55 51L53 51L53 49L54 49L54 48L52 48L52 46L53 46L53 47L55 47L55 46L56 46L56 45L57 45L57 46L58 46L58 47L57 47L57 48L56 48L56 49L55 49L55 50L56 50L56 49L58 49L58 48L59 48L59 47L61 47L61 46L59 46L59 45L57 45L57 44L56 44L56 45L55 45L55 44L54 44L54 42L53 42L53 40L52 40L52 39L55 39L55 38L52 38L52 39L50 39L50 38L49 38L49 40L50 40L50 46L51 46L51 47L50 47L50 48L49 48L49 46L47 46L47 45L45 45L45 44L47 44L47 43L48 43L48 44L49 44L49 43L48 43L48 42L47 42L47 40L48 40L48 38L47 38L47 37L45 37L45 36L49 36L49 34L48 34L48 33L45 33L45 32L46 32L46 31L47 31L47 32L50 32L50 31L47 31L47 29L46 29L46 28L49 28L49 29L48 29L48 30L49 30L49 29L50 29L50 28L52 28L52 27L50 27L50 26L49 26L49 27L47 27L47 25L48 25L48 24L47 24L47 25L46 25L46 24L45 24L45 23L44 23L44 22L43 22L43 24L44 24L44 25L43 25L43 26L46 26L46 27L45 27L45 28L44 28L44 27L43 27L43 28L44 28L44 29L45 29L45 30L44 30L44 31L43 31L43 30L42 30L42 27L39 27L39 26L41 26L41 25L42 25L42 24L38 24L38 23L39 23L39 22L37 22L37 23L34 23L34 24L33 24L33 23L31 23L31 24L32 24L32 25L31 25L31 27L30 27L30 26L29 26L29 25L30 25L30 24L27 24L27 22L29 22L29 23L30 23L30 22L31 22L31 21L32 21L32 22L33 22L33 21L35 21L35 22L36 22L36 21L38 21L38 20L37 20L37 19L34 19L34 18L32 18L32 16L33 16L33 17L35 17L35 16L36 16L36 15L35 15L35 13ZM63 13L63 14L65 14L65 13ZM7 14L7 15L6 15L6 16L7 16L7 17L6 17L6 18L7 18L7 17L9 17L9 15L8 15L8 14ZM52 14L52 15L53 15L53 14ZM11 15L11 16L12 16L12 15ZM19 15L19 16L21 16L21 15ZM24 15L24 16L26 16L26 15ZM33 15L33 16L34 16L34 15ZM27 17L27 18L28 18L28 17ZM63 17L63 18L62 18L62 19L63 19L63 18L65 18L65 17ZM19 18L19 19L20 19L20 18ZM6 19L6 20L8 20L8 19ZM40 19L40 20L39 20L39 21L40 21L40 22L41 22L41 23L42 23L42 22L41 22L41 19ZM59 19L59 21L60 21L60 20L61 20L61 19ZM35 20L35 21L36 21L36 20ZM11 22L11 24L12 24L12 22ZM54 22L54 23L55 23L55 24L54 24L54 25L55 25L55 26L56 26L56 25L57 25L57 24L56 24L56 22ZM57 22L57 23L58 23L58 22ZM2 23L2 25L4 25L4 24L3 24L3 23ZM55 24L55 25L56 25L56 24ZM22 25L22 26L24 26L24 25ZM33 25L33 27L34 27L34 25ZM27 26L27 27L29 27L29 26ZM6 28L6 29L7 29L7 30L8 30L8 29L7 29L7 28ZM11 29L11 30L12 30L12 29ZM67 29L67 30L69 30L69 29ZM15 30L15 31L16 31L16 30ZM39 30L39 31L38 31L38 32L43 32L43 33L40 33L40 35L39 35L39 36L41 36L41 37L39 37L39 38L41 38L41 39L42 39L42 38L43 38L43 39L45 39L45 40L47 40L47 38L45 38L45 37L44 37L44 36L45 36L45 33L44 33L44 32L45 32L45 31L46 31L46 30L45 30L45 31L44 31L44 32L43 32L43 31L40 31L40 30ZM11 31L11 32L12 32L12 31ZM15 32L15 33L17 33L17 32ZM55 32L55 33L53 33L53 35L54 35L54 34L55 34L55 33L56 33L56 32ZM66 32L66 33L67 33L67 34L65 34L65 35L67 35L67 36L68 36L68 35L67 35L67 34L68 34L68 33L67 33L67 32ZM5 33L5 36L8 36L8 33ZM33 33L33 36L36 36L36 33ZM43 33L43 34L41 34L41 35L43 35L43 36L44 36L44 33ZM61 33L61 36L64 36L64 33ZM6 34L6 35L7 35L7 34ZM25 34L25 35L26 35L26 34ZM34 34L34 35L35 35L35 34ZM57 34L57 36L58 36L58 34ZM62 34L62 35L63 35L63 34ZM25 36L25 37L24 37L24 38L25 38L25 40L24 40L24 41L23 41L23 42L24 42L24 41L26 41L26 38L25 38L25 37L26 37L26 36ZM6 38L6 39L7 39L7 38ZM27 38L27 40L28 40L28 38ZM29 38L29 39L30 39L30 38ZM31 39L31 40L32 40L32 39ZM6 40L6 41L7 41L7 42L6 42L6 43L5 43L5 44L4 44L4 45L8 45L8 44L9 44L9 43L8 43L8 41L9 41L9 42L10 42L10 41L11 41L11 43L10 43L10 44L13 44L13 45L15 45L15 44L16 44L16 43L15 43L15 42L16 42L16 41L15 41L15 42L14 42L14 41L13 41L13 40L12 40L12 41L11 41L11 40ZM29 40L29 41L30 41L30 40ZM57 40L57 41L58 41L58 40ZM12 41L12 43L13 43L13 41ZM51 41L51 44L52 44L52 41ZM44 42L44 43L45 43L45 42ZM46 42L46 43L47 43L47 42ZM6 43L6 44L7 44L7 43ZM14 43L14 44L15 44L15 43ZM21 43L21 44L22 44L22 43ZM23 43L23 44L24 44L24 43ZM61 44L61 45L62 45L62 44ZM51 45L51 46L52 46L52 45ZM53 45L53 46L55 46L55 45ZM5 46L5 47L8 47L8 46ZM15 46L15 47L16 47L16 48L15 48L15 49L16 49L16 48L17 48L17 49L18 49L18 51L19 51L19 52L24 52L24 53L23 53L23 54L22 54L22 53L21 53L21 54L22 54L22 55L21 55L21 56L22 56L22 57L21 57L21 58L22 58L22 57L24 57L24 58L23 58L23 59L24 59L24 60L25 60L25 61L26 61L26 60L28 60L28 59L29 59L29 58L32 58L32 59L33 59L33 57L31 57L31 54L30 54L30 55L26 55L26 52L28 52L28 51L27 51L27 50L28 50L28 49L27 49L27 50L26 50L26 49L22 49L22 48L21 48L21 49L18 49L18 48L17 48L17 47L18 47L18 46ZM32 46L32 47L33 47L33 46ZM44 46L44 47L45 47L45 49L46 49L46 46ZM0 47L0 48L1 48L1 47ZM63 47L63 48L64 48L64 47ZM47 48L47 49L49 49L49 50L50 50L50 49L52 49L52 48L50 48L50 49L49 49L49 48ZM6 49L6 50L7 50L7 51L6 51L6 52L5 52L5 53L6 53L6 54L8 54L8 53L6 53L6 52L8 52L8 50L9 50L9 49ZM21 49L21 50L22 50L22 49ZM35 49L35 50L36 50L36 49ZM0 50L0 51L1 51L1 50ZM19 50L19 51L20 51L20 50ZM51 50L51 51L52 51L52 50ZM57 50L57 51L58 51L58 50ZM62 50L62 51L63 51L63 50ZM36 52L36 53L38 53L38 52ZM62 52L62 53L63 53L63 52ZM15 53L15 54L16 54L16 53ZM27 53L27 54L28 54L28 53ZM2 54L2 55L0 55L0 56L1 56L1 58L0 58L0 61L1 61L1 58L2 58L2 59L3 59L3 58L2 58L2 55L3 55L3 54ZM60 54L60 55L61 55L61 54ZM6 55L6 56L7 56L7 57L6 57L6 58L8 58L8 55ZM25 55L25 56L26 56L26 57L27 57L27 58L29 58L29 57L30 57L30 56L26 56L26 55ZM38 56L38 57L37 57L37 58L39 58L39 57L41 57L41 56ZM47 56L47 57L48 57L48 58L49 58L49 57L48 57L48 56ZM60 56L60 57L59 57L59 59L57 59L57 61L59 61L59 59L60 59L60 58L61 58L61 56ZM55 57L55 58L56 58L56 57ZM17 58L17 59L18 59L18 60L19 60L19 59L18 59L18 58ZM25 58L25 60L26 60L26 58ZM63 58L63 59L64 59L64 58ZM12 59L12 60L13 60L13 59ZM15 59L15 60L16 60L16 61L15 61L15 62L16 62L16 63L18 63L18 62L19 62L19 61L18 61L18 62L17 62L17 60L16 60L16 59ZM3 60L3 61L5 61L5 60ZM41 60L41 62L42 62L42 63L43 63L43 61L42 61L42 60ZM55 60L55 61L56 61L56 60ZM33 61L33 64L36 64L36 61ZM61 61L61 64L64 64L64 61ZM34 62L34 63L35 63L35 62ZM38 62L38 63L39 63L39 62ZM62 62L62 63L63 63L63 62ZM65 62L65 63L66 63L66 62ZM25 63L25 64L26 64L26 63ZM13 64L13 65L14 65L14 66L17 66L17 65L18 65L18 64L16 64L16 65L15 65L15 64ZM49 64L49 65L48 65L48 66L47 66L47 68L48 68L48 67L49 67L49 65L50 65L50 64ZM31 65L31 66L29 66L29 68L32 68L32 67L31 67L31 66L32 66L32 65ZM36 65L36 66L37 66L37 65ZM66 65L66 66L67 66L67 65ZM53 66L53 67L54 67L54 66ZM11 67L11 68L12 68L12 67ZM0 0L0 7L7 7L7 0ZM1 1L1 6L6 6L6 1ZM2 2L2 5L5 5L5 2ZM62 0L62 7L69 7L69 0ZM63 1L63 6L68 6L68 1ZM64 2L64 5L67 5L67 2ZM0 62L0 69L7 69L7 62ZM1 63L1 68L6 68L6 63ZM2 64L2 67L5 67L5 64Z" fill="#000000"/></g></g></svg>
