<?xml version="1.0" encoding="UTF-8"?>
<svg xmlns="http://www.w3.org/2000/svg" version="1.1" width="300" height="300" viewBox="0 0 300 300"><rect x="0" y="0" width="300" height="300" fill="#ffffff"/><g transform="scale(4.348)"><g transform="translate(0,0)"><path fill-rule="evenodd" d="M8 0L8 4L9 4L9 5L8 5L8 7L9 7L9 6L10 6L10 8L9 8L9 10L6 10L6 11L8 11L8 12L9 12L9 15L8 15L8 13L7 13L7 12L6 12L6 13L5 13L5 11L4 11L4 12L3 12L3 10L4 10L4 9L7 9L7 8L4 8L4 9L2 9L2 8L0 8L0 9L2 9L2 11L1 11L1 12L3 12L3 13L2 13L2 14L1 14L1 13L0 13L0 14L1 14L1 16L4 16L4 17L1 17L1 19L0 19L0 20L1 20L1 21L2 21L2 20L4 20L4 24L6 24L6 25L7 25L7 24L6 24L6 23L7 23L7 22L8 22L8 21L9 21L9 24L10 24L10 25L9 25L9 26L4 26L4 27L3 27L3 25L2 25L2 24L3 24L3 22L2 22L2 23L1 23L1 22L0 22L0 24L1 24L1 26L0 26L0 27L1 27L1 26L2 26L2 29L5 29L5 30L6 30L6 31L8 31L8 32L4 32L4 34L3 34L3 31L4 31L4 30L3 30L3 31L2 31L2 30L1 30L1 28L0 28L0 30L1 30L1 31L0 31L0 32L1 32L1 33L2 33L2 34L0 34L0 35L2 35L2 37L1 37L1 36L0 36L0 38L1 38L1 40L2 40L2 41L0 41L0 42L2 42L2 43L0 43L0 49L1 49L1 51L0 51L0 52L1 52L1 54L0 54L0 57L1 57L1 58L0 58L0 61L1 61L1 58L2 58L2 59L3 59L3 58L2 58L2 57L4 57L4 59L7 59L7 60L6 60L6 61L8 61L8 62L9 62L9 63L8 63L8 65L9 65L9 67L8 67L8 69L11 69L11 68L13 68L13 69L19 69L19 67L20 67L20 66L21 66L21 65L22 65L22 64L24 64L24 65L23 65L23 66L22 66L22 68L23 68L23 69L25 69L25 68L26 68L26 69L28 69L28 68L26 68L26 67L25 67L25 66L27 66L27 67L28 67L28 66L30 66L30 65L31 65L31 67L33 67L33 66L34 66L34 65L37 65L37 67L39 67L39 66L40 66L40 63L41 63L41 67L40 67L40 68L38 68L38 69L40 69L40 68L41 68L41 69L42 69L42 68L43 68L43 63L44 63L44 69L46 69L46 67L45 67L45 63L44 63L44 61L45 61L45 62L46 62L46 61L47 61L47 63L46 63L46 64L47 64L47 65L48 65L48 66L47 66L47 67L48 67L48 69L52 69L52 68L53 68L53 69L54 69L54 68L55 68L55 67L56 67L56 65L57 65L57 66L58 66L58 65L57 65L57 64L58 64L58 63L57 63L57 62L58 62L58 60L60 60L60 66L61 66L61 65L62 65L62 66L64 66L64 67L63 67L63 69L64 69L64 68L65 68L65 66L64 66L64 65L65 65L65 63L66 63L66 62L67 62L67 61L69 61L69 60L68 60L68 58L69 58L69 57L68 57L68 58L67 58L67 61L65 61L65 60L64 60L64 55L66 55L66 54L64 54L64 53L63 53L63 52L64 52L64 51L62 51L62 50L63 50L63 49L65 49L65 51L66 51L66 50L67 50L67 52L65 52L65 53L69 53L69 52L68 52L68 50L67 50L67 49L69 49L69 48L67 48L67 49L65 49L65 47L66 47L66 46L67 46L67 47L68 47L68 46L69 46L69 43L68 43L68 45L67 45L67 44L66 44L66 46L65 46L65 47L64 47L64 48L62 48L62 45L63 45L63 46L64 46L64 44L65 44L65 42L64 42L64 41L65 41L65 40L64 40L64 39L66 39L66 38L67 38L67 39L68 39L68 40L66 40L66 41L69 41L69 39L68 39L68 38L69 38L69 35L68 35L68 33L69 33L69 31L68 31L68 30L69 30L69 28L68 28L68 26L69 26L69 25L68 25L68 26L65 26L65 25L67 25L67 24L68 24L68 22L69 22L69 20L68 20L68 18L67 18L67 16L66 16L66 17L64 17L64 16L65 16L65 13L67 13L67 12L68 12L68 14L67 14L67 15L68 15L68 16L69 16L69 15L68 15L68 14L69 14L69 12L68 12L68 11L67 11L67 12L65 12L65 13L64 13L64 14L63 14L63 13L62 13L62 12L63 12L63 11L66 11L66 10L67 10L67 9L69 9L69 8L65 8L65 10L63 10L63 9L64 9L64 8L63 8L63 9L62 9L62 10L61 10L61 9L60 9L60 7L61 7L61 6L60 6L60 7L59 7L59 4L58 4L58 8L59 8L59 9L60 9L60 10L59 10L59 12L61 12L61 13L59 13L59 14L58 14L58 13L57 13L57 12L58 12L58 9L57 9L57 4L56 4L56 2L57 2L57 3L59 3L59 2L58 2L58 1L61 1L61 0L57 0L57 1L56 1L56 0L54 0L54 1L53 1L53 0L50 0L50 2L49 2L49 1L48 1L48 0L47 0L47 1L44 1L44 0L41 0L41 1L40 1L40 0L37 0L37 1L35 1L35 0L32 0L32 1L31 1L31 0L30 0L30 1L31 1L31 2L29 2L29 0L23 0L23 2L22 2L22 3L20 3L20 5L17 5L17 3L19 3L19 2L17 2L17 3L15 3L15 4L14 4L14 5L17 5L17 6L16 6L16 7L15 7L15 6L14 6L14 7L15 7L15 11L14 11L14 9L13 9L13 8L12 8L12 7L13 7L13 6L12 6L12 4L13 4L13 2L11 2L11 0L10 0L10 2L9 2L9 0ZM12 0L12 1L13 1L13 0ZM15 0L15 2L16 2L16 0ZM17 0L17 1L20 1L20 2L21 2L21 1L22 1L22 0ZM24 1L24 2L23 2L23 4L25 4L25 3L24 3L24 2L25 2L25 1ZM26 1L26 5L27 5L27 8L28 8L28 6L29 6L29 7L30 7L30 6L31 6L31 8L30 8L30 9L28 9L28 14L27 14L27 13L25 13L25 14L24 14L24 15L22 15L22 14L20 14L20 13L21 13L21 12L22 12L22 13L23 13L23 12L24 12L24 11L23 11L23 12L22 12L22 10L23 10L23 9L24 9L24 10L25 10L25 9L26 9L26 11L27 11L27 9L26 9L26 6L25 6L25 5L24 5L24 6L23 6L23 5L20 5L20 6L19 6L19 9L16 9L16 10L20 10L20 6L21 6L21 9L22 9L22 10L21 10L21 11L17 11L17 12L20 12L20 13L19 13L19 14L20 14L20 16L21 16L21 15L22 15L22 17L19 17L19 16L18 16L18 17L17 17L17 18L16 18L16 17L15 17L15 18L13 18L13 16L14 16L14 13L13 13L13 11L12 11L12 10L13 10L13 9L11 9L11 8L10 8L10 11L9 11L9 12L10 12L10 13L11 13L11 14L10 14L10 15L9 15L9 16L8 16L8 15L6 15L6 16L8 16L8 17L6 17L6 18L5 18L5 17L4 17L4 20L7 20L7 21L5 21L5 22L7 22L7 21L8 21L8 20L9 20L9 21L10 21L10 22L12 22L12 21L13 21L13 19L14 19L14 20L15 20L15 19L18 19L18 20L19 20L19 25L18 25L18 26L16 26L16 27L15 27L15 25L17 25L17 24L18 24L18 23L16 23L16 22L17 22L17 20L16 20L16 21L15 21L15 22L14 22L14 23L16 23L16 24L15 24L15 25L14 25L14 24L13 24L13 26L14 26L14 27L15 27L15 28L14 28L14 29L16 29L16 30L13 30L13 31L12 31L12 30L11 30L11 31L12 31L12 32L10 32L10 34L9 34L9 37L4 37L4 35L3 35L3 34L2 34L2 35L3 35L3 37L2 37L2 40L3 40L3 41L2 41L2 42L3 42L3 41L4 41L4 39L5 39L5 38L8 38L8 39L6 39L6 40L5 40L5 41L6 41L6 42L7 42L7 41L9 41L9 42L8 42L8 43L5 43L5 42L4 42L4 45L2 45L2 44L3 44L3 43L2 43L2 44L1 44L1 49L3 49L3 50L4 50L4 48L5 48L5 47L6 47L6 48L7 48L7 47L6 47L6 46L8 46L8 47L10 47L10 48L9 48L9 49L11 49L11 48L12 48L12 47L10 47L10 43L11 43L11 42L12 42L12 44L11 44L11 45L12 45L12 46L13 46L13 45L12 45L12 44L13 44L13 41L14 41L14 42L15 42L15 43L16 43L16 42L17 42L17 43L18 43L18 44L19 44L19 45L21 45L21 46L23 46L23 48L22 48L22 47L20 47L20 46L19 46L19 48L18 48L18 49L17 49L17 47L18 47L18 46L17 46L17 44L15 44L15 45L14 45L14 46L15 46L15 45L16 45L16 50L15 50L15 48L14 48L14 49L13 49L13 50L15 50L15 53L16 53L16 54L17 54L17 55L19 55L19 56L21 56L21 55L22 55L22 56L28 56L28 58L29 58L29 57L30 57L30 56L32 56L32 54L33 54L33 53L34 53L34 54L35 54L35 55L34 55L34 57L32 57L32 58L31 58L31 59L32 59L32 58L33 58L33 59L34 59L34 60L37 60L37 65L38 65L38 64L39 64L39 63L40 63L40 62L41 62L41 60L39 60L39 58L40 58L40 59L41 59L41 58L40 58L40 57L41 57L41 56L42 56L42 57L44 57L44 54L45 54L45 53L46 53L46 54L48 54L48 55L47 55L47 56L49 56L49 54L50 54L50 52L51 52L51 51L53 51L53 50L50 50L50 49L49 49L49 51L50 51L50 52L49 52L49 54L48 54L48 53L46 53L46 52L47 52L47 51L46 51L46 50L48 50L48 49L47 49L47 48L45 48L45 45L46 45L46 46L47 46L47 45L46 45L46 43L47 43L47 44L48 44L48 43L49 43L49 44L50 44L50 45L49 45L49 47L48 47L48 48L52 48L52 49L53 49L53 48L54 48L54 49L56 49L56 48L58 48L58 46L59 46L59 49L58 49L58 50L56 50L56 51L59 51L59 53L58 53L58 52L57 52L57 53L56 53L56 52L55 52L55 53L56 53L56 56L55 56L55 55L54 55L54 56L52 56L52 55L53 55L53 54L52 54L52 53L54 53L54 52L52 52L52 53L51 53L51 56L50 56L50 57L46 57L46 58L47 58L47 59L48 59L48 58L49 58L49 60L50 60L50 61L49 61L49 64L50 64L50 65L49 65L49 68L50 68L50 67L52 67L52 66L50 66L50 65L51 65L51 62L50 62L50 61L51 61L51 60L52 60L52 63L54 63L54 64L55 64L55 65L56 65L56 64L57 64L57 63L56 63L56 62L55 62L55 63L54 63L54 61L56 61L56 60L58 60L58 58L59 58L59 57L62 57L62 59L61 59L61 60L62 60L62 59L63 59L63 57L62 57L62 56L61 56L61 55L60 55L60 54L61 54L61 52L60 52L60 51L61 51L61 50L62 50L62 48L60 48L60 46L59 46L59 45L60 45L60 43L61 43L61 42L62 42L62 44L61 44L61 45L62 45L62 44L63 44L63 43L64 43L64 42L63 42L63 41L62 41L62 40L63 40L63 39L64 39L64 38L65 38L65 37L68 37L68 35L67 35L67 33L68 33L68 31L63 31L63 30L67 30L67 27L65 27L65 28L64 28L64 25L65 25L65 24L67 24L67 22L66 22L66 20L67 20L67 21L68 21L68 20L67 20L67 18L65 18L65 20L64 20L64 17L63 17L63 19L62 19L62 15L63 15L63 14L62 14L62 13L61 13L61 14L62 14L62 15L61 15L61 16L57 16L57 17L56 17L56 15L55 15L55 14L56 14L56 13L55 13L55 12L53 12L53 11L52 11L52 13L51 13L51 14L50 14L50 12L49 12L49 15L47 15L47 12L45 12L45 13L44 13L44 12L42 12L42 10L40 10L40 9L43 9L43 11L46 11L46 10L47 10L47 8L49 8L49 11L50 11L50 8L51 8L51 7L52 7L52 5L53 5L53 7L54 7L54 8L52 8L52 9L51 9L51 10L52 10L52 9L55 9L55 7L56 7L56 4L55 4L55 1L54 1L54 2L53 2L53 4L52 4L52 3L51 3L51 2L52 2L52 1L51 1L51 2L50 2L50 3L51 3L51 5L50 5L50 4L49 4L49 3L48 3L48 2L47 2L47 4L46 4L46 5L44 5L44 4L45 4L45 3L46 3L46 2L45 2L45 3L44 3L44 2L42 2L42 1L41 1L41 2L40 2L40 1L37 1L37 2L36 2L36 3L35 3L35 4L37 4L37 3L38 3L38 4L39 4L39 5L40 5L40 6L39 6L39 7L40 7L40 6L41 6L41 7L42 7L42 6L41 6L41 4L43 4L43 5L44 5L44 6L43 6L43 8L40 8L40 9L39 9L39 10L38 10L38 9L37 9L37 10L38 10L38 12L36 12L36 13L33 13L33 15L32 15L32 14L30 14L30 13L29 13L29 12L31 12L31 13L32 13L32 12L34 12L34 10L32 10L32 11L31 11L31 10L30 10L30 9L32 9L32 6L31 6L31 5L32 5L32 2L31 2L31 3L29 3L29 2L28 2L28 1ZM33 1L33 3L34 3L34 1ZM39 2L39 3L40 3L40 4L41 4L41 3L42 3L42 2L41 2L41 3L40 3L40 2ZM9 3L9 4L11 4L11 3ZM27 3L27 5L28 5L28 3ZM43 3L43 4L44 4L44 3ZM60 3L60 5L61 5L61 3ZM29 4L29 6L30 6L30 5L31 5L31 4ZM53 4L53 5L54 5L54 7L55 7L55 4ZM33 5L33 8L36 8L36 5ZM37 5L37 8L38 8L38 5ZM47 5L47 6L46 6L46 7L45 7L45 6L44 6L44 7L45 7L45 8L44 8L44 9L45 9L45 10L46 10L46 9L45 9L45 8L47 8L47 6L48 6L48 7L49 7L49 8L50 8L50 7L51 7L51 6L50 6L50 7L49 7L49 5ZM11 6L11 7L12 7L12 6ZM17 6L17 8L18 8L18 6ZM22 6L22 8L24 8L24 9L25 9L25 8L24 8L24 7L25 7L25 6L24 6L24 7L23 7L23 6ZM34 6L34 7L35 7L35 6ZM35 9L35 11L36 11L36 9ZM39 10L39 12L38 12L38 15L35 15L35 14L34 14L34 15L33 15L33 16L32 16L32 15L30 15L30 14L29 14L29 15L27 15L27 16L26 16L26 15L25 15L25 16L24 16L24 17L22 17L22 19L21 19L21 18L20 18L20 19L19 19L19 17L18 17L18 19L19 19L19 20L20 20L20 24L21 24L21 25L19 25L19 26L18 26L18 28L17 28L17 31L16 31L16 32L14 32L14 35L16 35L16 36L15 36L15 37L14 37L14 36L13 36L13 35L12 35L12 34L10 34L10 37L9 37L9 41L10 41L10 38L11 38L11 40L12 40L12 39L13 39L13 40L14 40L14 41L16 41L16 40L18 40L18 41L17 41L17 42L18 42L18 41L19 41L19 40L21 40L21 39L22 39L22 40L24 40L24 41L23 41L23 43L24 43L24 45L23 45L23 46L24 46L24 47L25 47L25 49L24 49L24 48L23 48L23 49L22 49L22 48L19 48L19 49L18 49L18 51L19 51L19 52L17 52L17 50L16 50L16 52L17 52L17 54L19 54L19 55L20 55L20 54L22 54L22 52L23 52L23 55L26 55L26 53L27 53L27 54L28 54L28 56L29 56L29 55L30 55L30 54L32 54L32 53L31 53L31 50L30 50L30 49L32 49L32 52L33 52L33 51L34 51L34 52L35 52L35 51L36 51L36 49L35 49L35 50L34 50L34 44L35 44L35 43L36 43L36 42L37 42L37 43L38 43L38 44L37 44L37 45L38 45L38 46L37 46L37 47L36 47L36 46L35 46L35 47L36 47L36 48L37 48L37 49L38 49L38 50L37 50L37 52L36 52L36 53L35 53L35 54L36 54L36 55L35 55L35 58L34 58L34 59L35 59L35 58L36 58L36 57L37 57L37 56L36 56L36 55L37 55L37 53L38 53L38 52L39 52L39 53L40 53L40 54L39 54L39 55L38 55L38 58L37 58L37 59L38 59L38 58L39 58L39 57L40 57L40 55L42 55L42 54L44 54L44 53L45 53L45 50L46 50L46 49L45 49L45 48L44 48L44 47L43 47L43 46L44 46L44 45L45 45L45 44L44 44L44 45L43 45L43 44L41 44L41 43L38 43L38 42L43 42L43 39L45 39L45 40L44 40L44 43L45 43L45 42L46 42L46 37L47 37L47 38L49 38L49 37L50 37L50 38L51 38L51 37L52 37L52 35L53 35L53 36L55 36L55 35L54 35L54 34L55 34L55 33L56 33L56 35L57 35L57 34L58 34L58 35L59 35L59 36L60 36L60 39L59 39L59 38L58 38L58 36L56 36L56 37L53 37L53 38L52 38L52 40L51 40L51 39L50 39L50 42L51 42L51 43L50 43L50 44L51 44L51 45L50 45L50 47L52 47L52 48L53 48L53 47L52 47L52 46L51 46L51 45L52 45L52 42L56 42L56 43L55 43L55 44L56 44L56 45L54 45L54 47L55 47L55 46L56 46L56 47L57 47L57 46L58 46L58 44L56 44L56 43L57 43L57 42L58 42L58 41L57 41L57 38L58 38L58 39L59 39L59 40L60 40L60 42L59 42L59 43L60 43L60 42L61 42L61 39L62 39L62 37L65 37L65 35L66 35L66 34L65 34L65 33L66 33L66 32L63 32L63 31L62 31L62 32L61 32L61 29L62 29L62 30L63 30L63 29L64 29L64 28L62 28L62 27L59 27L59 28L60 28L60 29L59 29L59 32L58 32L58 33L57 33L57 31L58 31L58 25L57 25L57 23L59 23L59 25L60 25L60 26L61 26L61 25L62 25L62 26L63 26L63 24L61 24L61 25L60 25L60 23L62 23L62 22L63 22L63 23L64 23L64 22L63 22L63 21L64 21L64 20L62 20L62 19L61 19L61 17L59 17L59 18L58 18L58 17L57 17L57 19L58 19L58 21L57 21L57 20L56 20L56 21L55 21L55 19L54 19L54 18L55 18L55 16L54 16L54 14L55 14L55 13L52 13L52 15L51 15L51 17L50 17L50 18L49 18L49 19L50 19L50 18L51 18L51 21L50 21L50 20L47 20L47 19L46 19L46 20L44 20L44 23L45 23L45 24L44 24L44 25L43 25L43 24L42 24L42 25L41 25L41 26L43 26L43 28L42 28L42 27L40 27L40 24L41 24L41 23L43 23L43 20L42 20L42 19L40 19L40 16L42 16L42 17L41 17L41 18L44 18L44 19L45 19L45 17L46 17L46 16L47 16L47 18L48 18L48 17L49 17L49 16L47 16L47 15L46 15L46 13L45 13L45 15L44 15L44 13L42 13L42 15L39 15L39 13L40 13L40 14L41 14L41 11L40 11L40 10ZM54 10L54 11L56 11L56 10ZM60 10L60 11L61 11L61 12L62 12L62 11L61 11L61 10ZM10 11L10 12L11 12L11 11ZM15 11L15 13L16 13L16 11ZM4 13L4 14L2 14L2 15L4 15L4 14L5 14L5 13ZM6 13L6 14L7 14L7 13ZM17 13L17 14L16 14L16 15L15 15L15 16L17 16L17 15L18 15L18 13ZM36 13L36 14L37 14L37 13ZM12 14L12 15L11 15L11 18L10 18L10 19L11 19L11 20L12 20L12 16L13 16L13 14ZM57 14L57 15L58 15L58 14ZM29 15L29 16L28 16L28 17L27 17L27 19L28 19L28 18L29 18L29 16L30 16L30 15ZM38 15L38 16L39 16L39 15ZM43 15L43 17L44 17L44 15ZM45 15L45 16L46 16L46 15ZM9 16L9 17L10 17L10 16ZM31 16L31 17L32 17L32 18L33 18L33 17L32 17L32 16ZM34 16L34 17L35 17L35 18L34 18L34 19L32 19L32 20L31 20L31 18L30 18L30 19L29 19L29 20L27 20L27 21L25 21L25 23L24 23L24 24L25 24L25 25L26 25L26 24L25 24L25 23L27 23L27 21L28 21L28 26L29 26L29 27L28 27L28 28L30 28L30 27L33 27L33 28L32 28L32 29L28 29L28 30L32 30L32 32L31 32L31 33L32 33L32 32L37 32L37 33L38 33L38 32L37 32L37 30L38 30L38 31L39 31L39 30L38 30L38 29L40 29L40 30L42 30L42 28L40 28L40 27L39 27L39 26L38 26L38 25L39 25L39 24L40 24L40 22L41 22L41 20L40 20L40 19L39 19L39 18L38 18L38 17L37 17L37 18L36 18L36 16ZM52 16L52 17L51 17L51 18L52 18L52 17L54 17L54 16ZM25 17L25 18L24 18L24 19L26 19L26 17ZM6 18L6 19L7 19L7 20L8 20L8 19L9 19L9 18L8 18L8 19L7 19L7 18ZM59 18L59 19L60 19L60 18ZM1 19L1 20L2 20L2 19ZM34 19L34 20L35 20L35 21L33 21L33 20L32 20L32 21L33 21L33 22L35 22L35 21L38 21L38 20L39 20L39 21L40 21L40 20L39 20L39 19ZM52 19L52 21L51 21L51 24L52 24L52 25L51 25L51 26L50 26L50 25L49 25L49 26L47 26L47 25L48 25L48 23L50 23L50 21L49 21L49 22L47 22L47 21L46 21L46 22L47 22L47 25L46 25L46 26L47 26L47 27L50 27L50 28L49 28L49 29L48 29L48 30L47 30L47 28L46 28L46 27L44 27L44 28L43 28L43 29L44 29L44 28L45 28L45 29L46 29L46 30L47 30L47 32L50 32L50 31L51 31L51 32L52 32L52 33L51 33L51 35L50 35L50 36L51 36L51 35L52 35L52 33L55 33L55 30L56 30L56 31L57 31L57 29L56 29L56 28L57 28L57 27L55 27L55 30L53 30L53 29L54 29L54 25L53 25L53 24L54 24L54 22L53 22L53 20L54 20L54 19ZM22 20L22 21L21 21L21 23L22 23L22 24L23 24L23 20ZM30 20L30 21L29 21L29 23L30 23L30 21L31 21L31 20ZM60 20L60 21L58 21L58 22L60 22L60 21L61 21L61 22L62 22L62 21L61 21L61 20ZM56 21L56 22L57 22L57 21ZM52 22L52 24L53 24L53 22ZM65 22L65 23L66 23L66 22ZM11 23L11 25L10 25L10 27L11 27L11 26L12 26L12 23ZM31 23L31 24L30 24L30 25L29 25L29 26L31 26L31 25L32 25L32 26L33 26L33 25L34 25L34 28L33 28L33 31L34 31L34 30L35 30L35 31L36 31L36 29L38 29L38 28L39 28L39 27L38 27L38 26L37 26L37 25L38 25L38 23L37 23L37 25L36 25L36 23L34 23L34 24L32 24L32 23ZM55 23L55 26L56 26L56 23ZM34 24L34 25L35 25L35 24ZM21 25L21 26L19 26L19 30L18 30L18 31L17 31L17 33L15 33L15 34L16 34L16 35L17 35L17 36L16 36L16 38L15 38L15 40L16 40L16 39L17 39L17 38L18 38L18 40L19 40L19 39L20 39L20 37L21 37L21 38L23 38L23 39L25 39L25 38L26 38L26 39L27 39L27 37L26 37L26 36L28 36L28 38L29 38L29 39L28 39L28 42L27 42L27 41L26 41L26 40L25 40L25 41L24 41L24 42L25 42L25 45L26 45L26 46L25 46L25 47L26 47L26 48L28 48L28 49L27 49L27 51L26 51L26 49L25 49L25 53L26 53L26 52L27 52L27 51L28 51L28 50L29 50L29 52L30 52L30 50L29 50L29 48L32 48L32 49L33 49L33 47L32 47L32 46L30 46L30 45L28 45L28 44L29 44L29 43L28 43L28 42L30 42L30 41L31 41L31 43L30 43L30 44L32 44L32 45L33 45L33 44L32 44L32 43L33 43L33 41L31 41L31 40L32 40L32 38L35 38L35 37L31 37L31 40L30 40L30 41L29 41L29 39L30 39L30 37L29 37L29 34L30 34L30 36L32 36L32 34L30 34L30 33L29 33L29 31L28 31L28 32L26 32L26 31L25 31L25 32L24 32L24 30L21 30L21 31L20 31L20 28L21 28L21 27L22 27L22 26L23 26L23 27L24 27L24 28L25 28L25 30L26 30L26 28L27 28L27 26L26 26L26 28L25 28L25 26L24 26L24 25ZM52 25L52 28L51 28L51 29L50 29L50 30L51 30L51 29L52 29L52 28L53 28L53 25ZM36 26L36 27L35 27L35 28L34 28L34 29L36 29L36 28L38 28L38 27L37 27L37 26ZM5 27L5 29L6 29L6 30L7 30L7 29L6 29L6 28L8 28L8 29L9 29L9 30L8 30L8 31L9 31L9 30L10 30L10 29L11 29L11 28L9 28L9 27ZM12 28L12 29L13 29L13 28ZM22 28L22 29L23 29L23 28ZM43 30L43 31L40 31L40 33L44 33L44 34L43 34L43 36L41 36L41 34L39 34L39 35L37 35L37 37L36 37L36 39L34 39L34 41L35 41L35 42L34 42L34 43L35 43L35 42L36 42L36 41L37 41L37 42L38 42L38 41L39 41L39 39L40 39L40 41L41 41L41 37L43 37L43 38L42 38L42 39L43 39L43 38L45 38L45 37L46 37L46 34L47 34L47 35L48 35L48 36L49 36L49 34L50 34L50 33L49 33L49 34L47 34L47 33L46 33L46 34L45 34L45 33L44 33L44 30ZM52 30L52 32L53 32L53 30ZM1 31L1 32L2 32L2 31ZM19 31L19 32L18 32L18 33L17 33L17 35L20 35L20 34L22 34L22 31L21 31L21 32L20 32L20 31ZM12 32L12 33L13 33L13 32ZM19 32L19 33L20 33L20 32ZM59 32L59 33L58 33L58 34L59 34L59 35L60 35L60 32ZM5 33L5 36L8 36L8 33ZM23 33L23 34L26 34L26 35L25 35L25 36L26 36L26 35L28 35L28 34L29 34L29 33ZM33 33L33 36L36 36L36 33ZM61 33L61 36L64 36L64 33ZM6 34L6 35L7 35L7 34ZM34 34L34 35L35 35L35 34ZM44 34L44 37L45 37L45 34ZM62 34L62 35L63 35L63 34ZM23 35L23 37L24 37L24 38L25 38L25 37L24 37L24 35ZM39 35L39 36L38 36L38 37L37 37L37 39L38 39L38 38L39 38L39 37L40 37L40 35ZM12 36L12 37L13 37L13 38L14 38L14 37L13 37L13 36ZM17 36L17 37L18 37L18 38L19 38L19 36ZM21 36L21 37L22 37L22 36ZM55 38L55 39L54 39L54 41L56 41L56 42L57 42L57 41L56 41L56 38ZM47 39L47 42L49 42L49 40L48 40L48 39ZM6 40L6 41L7 41L7 40ZM37 40L37 41L38 41L38 40ZM52 40L52 41L51 41L51 42L52 42L52 41L53 41L53 40ZM20 41L20 42L19 42L19 44L20 44L20 42L21 42L21 45L22 45L22 41ZM25 41L25 42L26 42L26 45L27 45L27 46L28 46L28 45L27 45L27 44L28 44L28 43L27 43L27 42L26 42L26 41ZM66 42L66 43L67 43L67 42ZM5 44L5 46L6 46L6 45L7 45L7 44ZM8 44L8 45L9 45L9 44ZM38 44L38 45L39 45L39 46L38 46L38 47L37 47L37 48L38 48L38 49L39 49L39 47L41 47L41 48L40 48L40 53L44 53L44 51L43 51L43 50L42 50L42 51L43 51L43 52L41 52L41 49L42 49L42 45L41 45L41 46L40 46L40 45L39 45L39 44ZM56 45L56 46L57 46L57 45ZM2 46L2 48L4 48L4 47L3 47L3 46ZM28 47L28 48L29 48L29 47ZM43 48L43 49L44 49L44 50L45 50L45 49L44 49L44 48ZM6 49L6 50L5 50L5 51L4 51L4 52L3 52L3 51L2 51L2 52L3 52L3 53L4 53L4 54L2 54L2 55L1 55L1 56L2 56L2 55L3 55L3 56L4 56L4 57L6 57L6 58L7 58L7 57L9 57L9 58L8 58L8 61L12 61L12 63L13 63L13 64L10 64L10 63L9 63L9 64L10 64L10 66L11 66L11 65L12 65L12 66L13 66L13 68L14 68L14 66L15 66L15 68L16 68L16 66L17 66L17 67L19 67L19 66L17 66L17 65L18 65L18 64L19 64L19 65L20 65L20 63L21 63L21 64L22 64L22 63L25 63L25 65L29 65L29 64L26 64L26 63L25 63L25 62L26 62L26 60L28 60L28 62L27 62L27 63L29 63L29 60L28 60L28 59L26 59L26 60L25 60L25 58L27 58L27 57L25 57L25 58L24 58L24 57L21 57L21 58L20 58L20 57L19 57L19 58L20 58L20 59L22 59L22 63L21 63L21 62L20 62L20 60L19 60L19 61L17 61L17 58L16 58L16 59L15 59L15 58L14 58L14 57L17 57L17 56L15 56L15 54L13 54L13 53L14 53L14 51L13 51L13 53L11 53L11 54L10 54L10 52L9 52L9 51L10 51L10 50L7 50L7 49ZM19 49L19 51L20 51L20 50L21 50L21 51L22 51L22 50L21 50L21 49ZM23 49L23 51L24 51L24 49ZM6 50L6 51L7 51L7 52L4 52L4 53L7 53L7 54L5 54L5 55L4 55L4 56L5 56L5 55L7 55L7 56L6 56L6 57L7 57L7 56L9 56L9 57L11 57L11 60L12 60L12 59L14 59L14 61L15 61L15 63L14 63L14 62L13 62L13 63L14 63L14 64L13 64L13 65L14 65L14 64L15 64L15 66L16 66L16 60L15 60L15 59L14 59L14 58L12 58L12 57L13 57L13 56L14 56L14 55L13 55L13 56L9 56L9 55L10 55L10 54L9 54L9 53L7 53L7 52L8 52L8 51L7 51L7 50ZM11 50L11 52L12 52L12 50ZM38 50L38 51L39 51L39 50ZM19 53L19 54L20 54L20 53ZM28 53L28 54L30 54L30 53ZM57 53L57 54L58 54L58 53ZM62 53L62 55L64 55L64 54L63 54L63 53ZM7 54L7 55L8 55L8 54ZM58 55L58 57L57 57L57 56L56 56L56 57L57 57L57 58L58 58L58 57L59 57L59 55ZM67 55L67 56L68 56L68 55ZM51 56L51 57L50 57L50 58L51 58L51 57L52 57L52 56ZM53 57L53 58L52 58L52 59L53 59L53 60L54 60L54 58L55 58L55 60L56 60L56 58L55 58L55 57ZM65 57L65 58L66 58L66 57ZM9 58L9 59L10 59L10 58ZM42 58L42 61L44 61L44 60L45 60L45 61L46 61L46 59L45 59L45 58ZM23 59L23 62L25 62L25 61L24 61L24 59ZM43 59L43 60L44 60L44 59ZM50 59L50 60L51 60L51 59ZM3 60L3 61L5 61L5 60ZM31 60L31 61L32 61L32 60ZM33 61L33 64L36 64L36 61ZM38 61L38 62L39 62L39 61ZM61 61L61 64L64 64L64 61ZM17 62L17 63L18 63L18 62ZM31 62L31 63L30 63L30 64L31 64L31 65L32 65L32 66L33 66L33 65L32 65L32 64L31 64L31 63L32 63L32 62ZM34 62L34 63L35 63L35 62ZM42 62L42 63L43 63L43 62ZM62 62L62 63L63 63L63 62ZM67 63L67 64L68 64L68 65L66 65L66 66L69 66L69 64L68 64L68 63ZM52 64L52 65L53 65L53 64ZM53 66L53 67L55 67L55 66ZM9 67L9 68L10 68L10 67ZM24 67L24 68L25 68L25 67ZM29 67L29 69L31 69L31 68L30 68L30 67ZM34 67L34 68L35 68L35 67ZM57 67L57 68L56 68L56 69L57 69L57 68L58 68L58 69L59 69L59 68L58 68L58 67ZM61 67L61 69L62 69L62 67ZM32 68L32 69L33 69L33 68ZM36 68L36 69L37 69L37 68ZM66 68L66 69L67 69L67 68ZM68 68L68 69L69 69L69 68ZM0 0L0 7L7 7L7 0ZM1 1L1 6L6 6L6 1ZM2 2L2 5L5 5L5 2ZM62 0L62 7L69 7L69 0ZM63 1L63 6L68 6L68 1ZM64 2L64 5L67 5L67 2ZM0 62L0 69L7 69L7 62ZM1 63L1 68L6 68L6 63ZM2 64L2 67L5 67L5 64Z" fill="#000000"/></g></g></svg>
