<?xml version="1.0" encoding="UTF-8"?>
<svg xmlns="http://www.w3.org/2000/svg" version="1.1" width="300" height="300" viewBox="0 0 300 300"><rect x="0" y="0" width="300" height="300" fill="#ffffff"/><g transform="scale(4.615)"><g transform="translate(0,0)"><path fill-rule="evenodd" d="M8 0L8 1L9 1L9 2L8 2L8 5L9 5L9 6L8 6L8 7L9 7L9 8L8 8L8 9L9 9L9 8L10 8L10 7L11 7L11 6L10 6L10 4L11 4L11 5L12 5L12 4L15 4L15 3L16 3L16 7L17 7L17 6L18 6L18 8L17 8L17 9L16 9L16 8L15 8L15 6L14 6L14 5L13 5L13 6L12 6L12 8L13 8L13 6L14 6L14 9L16 9L16 10L14 10L14 11L15 11L15 12L17 12L17 14L16 14L16 15L17 15L17 14L18 14L18 15L19 15L19 16L20 16L20 17L21 17L21 18L22 18L22 20L21 20L21 19L18 19L18 17L17 17L17 16L15 16L15 15L14 15L14 16L15 16L15 17L13 17L13 18L12 18L12 14L13 14L13 13L14 13L14 12L13 12L13 13L12 13L12 11L13 11L13 9L11 9L11 10L9 10L9 11L8 11L8 12L6 12L6 11L7 11L7 10L5 10L5 9L4 9L4 8L0 8L0 9L3 9L3 10L5 10L5 12L4 12L4 11L2 11L2 12L1 12L1 10L0 10L0 16L1 16L1 15L2 15L2 14L1 14L1 13L2 13L2 12L4 12L4 15L5 15L5 14L6 14L6 15L7 15L7 16L6 16L6 17L5 17L5 18L3 18L3 19L2 19L2 21L1 21L1 20L0 20L0 21L1 21L1 22L0 22L0 23L3 23L3 21L7 21L7 22L4 22L4 26L2 26L2 28L1 28L1 26L0 26L0 28L1 28L1 29L2 29L2 28L4 28L4 27L5 27L5 29L8 29L8 26L9 26L9 25L12 25L12 26L14 26L14 25L15 25L15 26L16 26L16 23L17 23L17 21L18 21L18 22L19 22L19 24L17 24L17 25L18 25L18 26L20 26L20 27L13 27L13 28L12 28L12 29L13 29L13 32L11 32L11 31L12 31L12 30L10 30L10 28L11 28L11 27L10 27L10 28L9 28L9 30L4 30L4 31L3 31L3 32L1 32L1 31L2 31L2 30L1 30L1 31L0 31L0 33L1 33L1 34L0 34L0 36L2 36L2 37L0 37L0 38L2 38L2 39L3 39L3 38L2 38L2 37L4 37L4 36L5 36L5 38L4 38L4 39L7 39L7 40L6 40L6 41L5 41L5 40L4 40L4 41L5 41L5 42L3 42L3 40L2 40L2 41L0 41L0 42L2 42L2 43L4 43L4 45L3 45L3 44L2 44L2 45L0 45L0 48L1 48L1 46L4 46L4 48L6 48L6 49L7 49L7 48L6 48L6 47L8 47L8 46L9 46L9 48L8 48L8 50L10 50L10 51L11 51L11 52L9 52L9 51L7 51L7 50L6 50L6 51L7 51L7 52L5 52L5 53L3 53L3 51L5 51L5 50L3 50L3 47L2 47L2 49L1 49L1 52L0 52L0 53L2 53L2 55L3 55L3 56L1 56L1 55L0 55L0 56L1 56L1 57L3 57L3 56L4 56L4 57L5 57L5 56L4 56L4 54L5 54L5 55L7 55L7 56L6 56L6 57L7 57L7 56L10 56L10 57L11 57L11 58L10 58L10 59L12 59L12 60L10 60L10 61L8 61L8 65L13 65L13 64L14 64L14 65L18 65L18 64L19 64L19 65L20 65L20 64L19 64L19 63L17 63L17 62L15 62L15 61L14 61L14 59L15 59L15 60L17 60L17 61L20 61L20 62L21 62L21 61L20 61L20 60L17 60L17 59L19 59L19 58L20 58L20 57L19 57L19 58L18 58L18 57L17 57L17 56L19 56L19 55L20 55L20 54L19 54L19 55L18 55L18 54L17 54L17 53L15 53L15 50L16 50L16 51L20 51L20 53L22 53L22 54L21 54L21 55L22 55L22 56L21 56L21 58L22 58L22 57L23 57L23 58L25 58L25 60L24 60L24 59L22 59L22 60L23 60L23 61L22 61L22 63L24 63L24 64L23 64L23 65L27 65L27 64L25 64L25 63L24 63L24 61L26 61L26 62L27 62L27 63L30 63L30 64L32 64L32 63L31 63L31 62L33 62L33 63L35 63L35 64L34 64L34 65L35 65L35 64L36 64L36 63L37 63L37 62L40 62L40 63L38 63L38 64L37 64L37 65L40 65L40 64L41 64L41 65L45 65L45 64L44 64L44 63L43 63L43 62L44 62L44 60L45 60L45 57L46 57L46 56L45 56L45 54L47 54L47 51L48 51L48 52L50 52L50 53L51 53L51 54L54 54L54 53L55 53L55 52L56 52L56 55L57 55L57 54L58 54L58 53L57 53L57 52L58 52L58 51L59 51L59 50L57 50L57 51L56 51L56 49L55 49L55 52L53 52L53 49L52 49L52 50L51 50L51 47L52 47L52 46L51 46L51 47L50 47L50 49L49 49L49 47L47 47L47 48L46 48L46 46L43 46L43 44L44 44L44 43L45 43L45 44L46 44L46 43L47 43L47 42L48 42L48 44L47 44L47 46L48 46L48 44L49 44L49 46L50 46L50 45L53 45L53 47L54 47L54 48L55 48L55 47L56 47L56 48L57 48L57 47L58 47L58 49L60 49L60 48L61 48L61 45L62 45L62 46L63 46L63 49L62 49L62 50L60 50L60 51L61 51L61 52L62 52L62 50L64 50L64 51L65 51L65 49L64 49L64 48L65 48L65 47L64 47L64 46L63 46L63 45L65 45L65 43L64 43L64 44L63 44L63 43L61 43L61 42L60 42L60 40L61 40L61 41L62 41L62 40L61 40L61 39L63 39L63 42L64 42L64 39L65 39L65 38L64 38L64 37L63 37L63 36L61 36L61 33L62 33L62 34L63 34L63 35L64 35L64 36L65 36L65 35L64 35L64 33L65 33L65 31L64 31L64 32L63 32L63 29L62 29L62 27L61 27L61 21L62 21L62 22L63 22L63 23L64 23L64 22L63 22L63 21L64 21L64 20L65 20L65 19L64 19L64 20L63 20L63 19L62 19L62 18L63 18L63 17L64 17L64 16L62 16L62 15L65 15L65 11L64 11L64 10L65 10L65 8L64 8L64 10L63 10L63 8L60 8L60 9L59 9L59 11L55 11L55 10L56 10L56 8L57 8L57 9L58 9L58 8L57 8L57 6L56 6L56 8L55 8L55 5L53 5L53 6L52 6L52 4L50 4L50 3L53 3L53 2L54 2L54 4L56 4L56 5L57 5L57 4L56 4L56 3L57 3L57 1L56 1L56 0L55 0L55 1L56 1L56 3L55 3L55 2L54 2L54 0L52 0L52 1L50 1L50 0L48 0L48 1L50 1L50 2L48 2L48 3L47 3L47 2L45 2L45 0L39 0L39 1L38 1L38 0L37 0L37 2L36 2L36 3L33 3L33 4L32 4L32 1L31 1L31 0L29 0L29 1L28 1L28 0L24 0L24 1L26 1L26 2L28 2L28 3L30 3L30 2L29 2L29 1L31 1L31 4L29 4L29 5L28 5L28 4L25 4L25 5L27 5L27 6L26 6L26 8L27 8L27 9L26 9L26 10L25 10L25 8L24 8L24 7L25 7L25 6L24 6L24 5L23 5L23 6L22 6L22 3L23 3L23 4L24 4L24 3L25 3L25 2L24 2L24 3L23 3L23 2L21 2L21 1L20 1L20 0L19 0L19 3L18 3L18 0L17 0L17 3L16 3L16 1L15 1L15 0L14 0L14 2L13 2L13 0ZM22 0L22 1L23 1L23 0ZM35 0L35 1L36 1L36 0ZM11 1L11 2L9 2L9 4L10 4L10 3L11 3L11 2L12 2L12 1ZM39 1L39 5L37 5L37 8L36 8L36 6L35 6L35 9L32 9L32 10L31 10L31 9L29 9L29 8L28 8L28 6L27 6L27 8L28 8L28 10L27 10L27 12L26 12L26 11L25 11L25 12L26 12L26 13L25 13L25 14L26 14L26 15L24 15L24 12L23 12L23 9L24 9L24 8L23 8L23 9L20 9L20 10L19 10L19 11L22 11L22 12L19 12L19 13L20 13L20 14L21 14L21 15L22 15L22 17L24 17L24 18L23 18L23 19L24 19L24 20L25 20L25 22L27 22L27 23L24 23L24 21L23 21L23 20L22 20L22 23L20 23L20 25L22 25L22 26L26 26L26 27L27 27L27 30L28 30L28 32L25 32L25 31L24 31L24 32L25 32L25 37L23 37L23 36L22 36L22 38L23 38L23 39L21 39L21 40L22 40L22 41L23 41L23 42L22 42L22 43L23 43L23 42L25 42L25 43L24 43L24 44L23 44L23 45L24 45L24 46L26 46L26 45L27 45L27 46L29 46L29 48L28 48L28 47L26 47L26 49L24 49L24 48L23 48L23 47L22 47L22 45L21 45L21 44L20 44L20 45L21 45L21 46L19 46L19 43L20 43L20 42L21 42L21 41L19 41L19 40L20 40L20 37L18 37L18 36L19 36L19 34L18 34L18 36L17 36L17 32L18 32L18 33L20 33L20 34L21 34L21 35L23 35L23 34L24 34L24 33L23 33L23 34L21 34L21 32L22 32L22 31L21 31L21 29L22 29L22 30L26 30L26 29L25 29L25 28L24 28L24 27L23 27L23 28L21 28L21 27L20 27L20 28L21 28L21 29L20 29L20 31L19 31L19 30L18 30L18 29L19 29L19 28L16 28L16 29L14 29L14 30L15 30L15 31L14 31L14 34L16 34L16 36L17 36L17 37L16 37L16 38L15 38L15 39L13 39L13 38L12 38L12 39L11 39L11 40L10 40L10 38L9 38L9 36L7 36L7 35L6 35L6 36L7 36L7 37L6 37L6 38L7 38L7 39L9 39L9 40L7 40L7 41L6 41L6 42L5 42L5 45L4 45L4 46L5 46L5 47L6 47L6 46L8 46L8 45L9 45L9 43L10 43L10 45L11 45L11 47L10 47L10 48L9 48L9 49L11 49L11 51L12 51L12 50L14 50L14 49L11 49L11 47L13 47L13 48L14 48L14 46L12 46L12 45L14 45L14 44L11 44L11 43L12 43L12 42L11 42L11 40L12 40L12 39L13 39L13 40L14 40L14 41L13 41L13 43L14 43L14 42L15 42L15 43L16 43L16 44L15 44L15 47L16 47L16 50L19 50L19 49L17 49L17 47L19 47L19 48L20 48L20 49L21 49L21 50L20 50L20 51L21 51L21 50L22 50L22 51L23 51L23 53L24 53L24 54L25 54L25 52L26 52L26 54L27 54L27 52L28 52L28 53L29 53L29 55L27 55L27 56L26 56L26 57L27 57L27 59L26 59L26 61L27 61L27 62L29 62L29 61L28 61L28 60L30 60L30 59L29 59L29 56L32 56L32 54L33 54L33 56L35 56L35 54L33 54L33 52L32 52L32 54L31 54L31 52L28 52L28 51L27 51L27 52L26 52L26 50L27 50L27 49L28 49L28 50L29 50L29 49L30 49L30 51L33 51L33 50L34 50L34 49L35 49L35 50L36 50L36 51L35 51L35 53L37 53L37 55L36 55L36 57L35 57L35 59L36 59L36 60L37 60L37 58L36 58L36 57L38 57L38 58L39 58L39 60L38 60L38 61L41 61L41 64L43 64L43 63L42 63L42 62L43 62L43 60L42 60L42 59L41 59L41 60L40 60L40 57L38 57L38 55L40 55L40 56L41 56L41 57L45 57L45 56L44 56L44 55L40 55L40 53L41 53L41 52L42 52L42 54L45 54L45 53L44 53L44 52L42 52L42 51L37 51L37 50L36 50L36 49L35 49L35 48L36 48L36 47L37 47L37 44L36 44L36 45L35 45L35 43L36 43L36 41L37 41L37 43L38 43L38 42L39 42L39 43L41 43L41 41L42 41L42 42L43 42L43 41L44 41L44 40L43 40L43 41L42 41L42 39L46 39L46 40L47 40L47 39L48 39L48 42L49 42L49 43L52 43L52 44L54 44L54 45L55 45L55 46L56 46L56 47L57 47L57 45L55 45L55 44L59 44L59 45L58 45L58 47L59 47L59 48L60 48L60 47L59 47L59 45L60 45L60 44L59 44L59 42L58 42L58 41L59 41L59 40L58 40L58 37L59 37L59 39L60 39L60 38L63 38L63 37L61 37L61 36L60 36L60 35L57 35L57 36L58 36L58 37L56 37L56 34L53 34L53 33L54 33L54 32L55 32L55 31L56 31L56 30L57 30L57 29L54 29L54 30L53 30L53 31L51 31L51 32L50 32L50 31L48 31L48 33L45 33L45 32L46 32L46 31L47 31L47 30L48 30L48 29L50 29L50 30L52 30L52 29L53 29L53 28L52 28L52 29L51 29L51 26L52 26L52 27L55 27L55 28L56 28L56 27L57 27L57 26L55 26L55 25L54 25L54 24L56 24L56 23L54 23L54 24L53 24L53 21L51 21L51 20L53 20L53 19L52 19L52 18L51 18L51 17L50 17L50 18L51 18L51 20L50 20L50 23L51 23L51 26L50 26L50 27L49 27L49 26L47 26L47 24L45 24L45 23L47 23L47 22L49 22L49 20L48 20L48 21L46 21L46 20L47 20L47 19L46 19L46 20L43 20L43 19L44 19L44 18L43 18L43 14L44 14L44 16L45 16L45 17L46 17L46 16L47 16L47 17L48 17L48 19L49 19L49 16L48 16L48 15L51 15L51 16L52 16L52 17L53 17L53 18L54 18L54 19L55 19L55 20L54 20L54 21L55 21L55 22L58 22L58 24L57 24L57 25L58 25L58 26L59 26L59 27L60 27L60 28L58 28L58 29L60 29L60 30L61 30L61 31L62 31L62 29L61 29L61 27L60 27L60 25L59 25L59 21L61 21L61 20L60 20L60 18L61 18L61 17L62 17L62 16L59 16L59 15L58 15L58 14L59 14L59 13L58 13L58 14L57 14L57 15L56 15L56 14L55 14L55 13L56 13L56 12L54 12L54 10L53 10L53 9L52 9L52 12L49 12L49 10L48 10L48 9L49 9L49 8L48 8L48 6L49 6L49 7L50 7L50 5L49 5L49 4L47 4L47 3L45 3L45 2L43 2L43 1L41 1L41 3L40 3L40 1ZM52 1L52 2L53 2L53 1ZM14 2L14 3L15 3L15 2ZM20 2L20 3L19 3L19 4L18 4L18 3L17 3L17 5L19 5L19 4L21 4L21 2ZM37 2L37 4L38 4L38 2ZM41 3L41 4L42 4L42 3ZM43 3L43 4L44 4L44 3ZM35 4L35 5L36 5L36 4ZM45 4L45 5L42 5L42 7L43 7L43 6L44 6L44 8L45 8L45 6L46 6L46 7L47 7L47 6L46 6L46 4ZM31 5L31 8L34 8L34 5ZM39 5L39 6L38 6L38 7L39 7L39 9L41 9L41 10L40 10L40 11L42 11L42 13L43 13L43 8L41 8L41 6L40 6L40 5ZM9 6L9 7L10 7L10 6ZM19 6L19 8L18 8L18 9L19 9L19 8L21 8L21 7L22 7L22 6L21 6L21 7L20 7L20 6ZM23 6L23 7L24 7L24 6ZM29 6L29 7L30 7L30 6ZM32 6L32 7L33 7L33 6ZM39 6L39 7L40 7L40 6ZM51 6L51 8L53 8L53 7L54 7L54 6L53 6L53 7L52 7L52 6ZM6 8L6 9L7 9L7 8ZM46 8L46 9L47 9L47 8ZM37 9L37 10L34 10L34 13L33 13L33 14L34 14L34 13L37 13L37 14L36 14L36 16L37 16L37 18L35 18L35 17L34 17L34 16L35 16L35 15L33 15L33 16L32 16L32 12L33 12L33 11L32 11L32 12L30 12L30 10L29 10L29 11L28 11L28 12L27 12L27 14L29 14L29 15L28 15L28 17L27 17L27 16L25 16L25 19L28 19L28 20L26 20L26 21L27 21L27 22L28 22L28 25L27 25L27 27L28 27L28 28L31 28L31 29L28 29L28 30L29 30L29 32L30 32L30 35L29 35L29 34L28 34L28 35L29 35L29 36L28 36L28 37L29 37L29 38L30 38L30 42L31 42L31 44L30 44L30 43L29 43L29 39L27 39L27 37L25 37L25 38L24 38L24 41L25 41L25 42L26 42L26 43L29 43L29 44L28 44L28 45L29 45L29 44L30 44L30 47L31 47L31 48L30 48L30 49L31 49L31 50L33 50L33 49L34 49L34 48L35 48L35 47L34 47L34 46L33 46L33 47L31 47L31 46L32 46L32 45L33 45L33 42L31 42L31 41L36 41L36 39L39 39L39 40L37 40L37 41L40 41L40 39L39 39L39 38L40 38L40 37L37 37L37 36L39 36L39 35L40 35L40 34L41 34L41 35L42 35L42 36L41 36L41 37L43 37L43 38L46 38L46 39L47 39L47 38L48 38L48 39L49 39L49 40L50 40L50 39L49 39L49 38L51 38L51 41L52 41L52 43L55 43L55 42L54 42L54 41L55 41L55 39L54 39L54 38L53 38L53 39L52 39L52 38L51 38L51 36L53 36L53 37L55 37L55 35L54 35L54 36L53 36L53 34L50 34L50 33L48 33L48 34L47 34L47 36L45 36L45 34L44 34L44 33L43 33L43 32L45 32L45 31L46 31L46 30L47 30L47 28L49 28L49 27L46 27L46 26L45 26L45 25L44 25L44 24L43 24L43 20L42 20L42 18L41 18L41 17L40 17L40 16L41 16L41 15L42 15L42 14L41 14L41 15L39 15L39 16L37 16L37 15L38 15L38 14L40 14L40 13L39 13L39 12L38 12L38 9ZM44 9L44 12L45 12L45 9ZM50 9L50 10L51 10L51 9ZM61 9L61 12L63 12L63 10L62 10L62 9ZM11 10L11 11L9 11L9 12L10 12L10 13L9 13L9 15L8 15L8 18L7 18L7 17L6 17L6 18L5 18L5 19L4 19L4 20L5 20L5 19L6 19L6 20L8 20L8 18L11 18L11 16L10 16L10 14L12 14L12 13L11 13L11 11L12 11L12 10ZM17 11L17 12L18 12L18 11ZM35 11L35 12L36 12L36 11ZM47 11L47 12L46 12L46 13L45 13L45 14L46 14L46 15L45 15L45 16L46 16L46 15L48 15L48 14L52 14L52 15L53 15L53 16L55 16L55 15L53 15L53 13L49 13L49 12L48 12L48 11ZM5 12L5 13L6 13L6 14L7 14L7 13L6 13L6 12ZM28 12L28 13L30 13L30 12ZM21 13L21 14L22 14L22 15L23 15L23 16L24 16L24 15L23 15L23 14L22 14L22 13ZM46 13L46 14L47 14L47 13ZM60 13L60 15L61 15L61 14L63 14L63 13ZM30 14L30 15L31 15L31 14ZM2 16L2 17L4 17L4 16ZM9 16L9 17L10 17L10 16ZM16 17L16 18L17 18L17 17ZM26 17L26 18L27 18L27 17ZM29 17L29 18L30 18L30 17ZM32 17L32 19L29 19L29 20L28 20L28 22L29 22L29 23L30 23L30 24L29 24L29 25L28 25L28 26L30 26L30 27L31 27L31 28L32 28L32 26L33 26L33 29L32 29L32 30L33 30L33 29L35 29L35 30L36 30L36 31L37 31L37 32L36 32L36 33L38 33L38 34L37 34L37 35L38 35L38 34L40 34L40 33L38 33L38 31L37 31L37 30L39 30L39 28L38 28L38 25L39 25L39 27L40 27L40 31L39 31L39 32L41 32L41 33L42 33L42 32L43 32L43 30L44 30L44 31L45 31L45 30L44 30L44 29L42 29L42 32L41 32L41 28L42 28L42 27L40 27L40 25L41 25L41 24L42 24L42 26L43 26L43 27L44 27L44 28L45 28L45 29L46 29L46 27L45 27L45 26L44 26L44 25L43 25L43 24L42 24L42 21L38 21L38 22L37 22L37 23L36 23L36 24L37 24L37 25L36 25L36 27L35 27L35 25L34 25L34 24L35 24L35 23L34 23L34 22L35 22L35 18L34 18L34 20L33 20L33 17ZM38 17L38 18L39 18L39 19L36 19L36 21L37 21L37 20L41 20L41 19L40 19L40 18L39 18L39 17ZM57 17L57 18L55 18L55 19L56 19L56 21L58 21L58 20L57 20L57 18L59 18L59 17ZM6 18L6 19L7 19L7 18ZM13 18L13 20L14 20L14 21L13 21L13 22L12 22L12 19L10 19L10 20L9 20L9 21L8 21L8 22L7 22L7 23L5 23L5 24L7 24L7 23L8 23L8 22L9 22L9 23L13 23L13 25L14 25L14 24L15 24L15 23L16 23L16 20L15 20L15 19L14 19L14 18ZM10 20L10 22L11 22L11 20ZM19 20L19 21L20 21L20 22L21 22L21 20ZM29 20L29 22L31 22L31 21L30 21L30 20ZM62 20L62 21L63 21L63 20ZM14 21L14 22L15 22L15 21ZM32 21L32 22L33 22L33 21ZM40 22L40 23L39 23L39 24L41 24L41 22ZM51 22L51 23L52 23L52 22ZM23 23L23 24L24 24L24 25L26 25L26 24L24 24L24 23ZM31 23L31 24L30 24L30 26L32 26L32 24L34 24L34 23ZM48 23L48 24L49 24L49 25L50 25L50 24L49 24L49 23ZM0 24L0 25L1 25L1 24ZM8 24L8 25L5 25L5 26L8 26L8 25L9 25L9 24ZM63 24L63 28L64 28L64 29L65 29L65 28L64 28L64 27L65 27L65 26L64 26L64 24ZM33 25L33 26L34 26L34 25ZM52 25L52 26L53 26L53 25ZM6 27L6 28L7 28L7 27ZM34 27L34 28L35 28L35 27ZM36 27L36 28L37 28L37 27ZM16 29L16 30L17 30L17 29ZM54 30L54 31L53 31L53 32L51 32L51 33L53 33L53 32L54 32L54 31L55 31L55 30ZM5 31L5 34L8 34L8 31ZM20 31L20 32L21 32L21 31ZM31 31L31 34L34 34L34 31ZM57 31L57 34L60 34L60 31ZM3 32L3 34L4 34L4 32ZM6 32L6 33L7 33L7 32ZM10 32L10 34L9 34L9 35L10 35L10 34L11 34L11 36L10 36L10 37L11 37L11 36L12 36L12 37L15 37L15 36L14 36L14 35L13 35L13 34L12 34L12 33L11 33L11 32ZM15 32L15 33L16 33L16 32ZM32 32L32 33L33 33L33 32ZM58 32L58 33L59 33L59 32ZM26 34L26 35L27 35L27 34ZM42 34L42 35L43 35L43 36L44 36L44 37L45 37L45 36L44 36L44 34ZM49 34L49 35L48 35L48 36L49 36L49 35L50 35L50 36L51 36L51 35L50 35L50 34ZM12 35L12 36L13 36L13 35ZM31 35L31 37L30 37L30 36L29 36L29 37L30 37L30 38L31 38L31 40L33 40L33 39L32 39L32 38L31 38L31 37L32 37L32 36L33 36L33 35ZM35 35L35 36L36 36L36 35ZM59 36L59 37L60 37L60 36ZM33 37L33 38L34 38L34 37ZM35 37L35 38L37 38L37 37ZM46 37L46 38L47 38L47 37ZM18 38L18 39L19 39L19 38ZM25 38L25 40L27 40L27 41L26 41L26 42L27 42L27 41L28 41L28 40L27 40L27 39L26 39L26 38ZM41 38L41 39L42 39L42 38ZM0 39L0 40L1 40L1 39ZM16 39L16 40L15 40L15 42L16 42L16 43L18 43L18 42L17 42L17 41L16 41L16 40L17 40L17 39ZM56 39L56 40L57 40L57 41L56 41L56 43L57 43L57 41L58 41L58 40L57 40L57 39ZM9 40L9 41L10 41L10 40ZM52 40L52 41L54 41L54 40ZM6 42L6 43L9 43L9 42ZM10 42L10 43L11 43L11 42ZM0 43L0 44L1 44L1 43ZM6 44L6 45L5 45L5 46L6 46L6 45L7 45L7 44ZM16 44L16 47L17 47L17 46L18 46L18 44ZM38 44L38 46L39 46L39 47L40 47L40 48L38 48L38 49L41 49L41 50L43 50L43 51L45 51L45 52L46 52L46 50L49 50L49 49L46 49L46 48L44 48L44 47L43 47L43 46L41 46L41 45L42 45L42 44L41 44L41 45L39 45L39 44ZM40 46L40 47L41 47L41 49L43 49L43 50L46 50L46 49L43 49L43 47L41 47L41 46ZM20 47L20 48L21 48L21 47ZM31 48L31 49L33 49L33 48ZM24 50L24 51L25 51L25 50ZM13 51L13 53L14 53L14 55L13 55L13 54L12 54L12 55L11 55L11 57L12 57L12 59L14 59L14 57L15 57L15 58L16 58L16 59L17 59L17 57L15 57L15 53L14 53L14 51ZM36 51L36 52L37 52L37 51ZM50 51L50 52L51 52L51 51ZM8 52L8 54L7 54L7 53L5 53L5 54L7 54L7 55L8 55L8 54L9 54L9 52ZM18 52L18 53L19 53L19 52ZM39 52L39 53L40 53L40 52ZM52 52L52 53L53 53L53 52ZM59 52L59 55L60 55L60 56L53 56L53 55L52 55L52 56L50 56L50 54L49 54L49 53L48 53L48 54L49 54L49 57L48 57L48 55L47 55L47 57L48 57L48 58L47 58L47 59L48 59L48 60L47 60L47 63L48 63L48 64L49 64L49 63L50 63L50 64L51 64L51 65L52 65L52 63L51 63L51 62L53 62L53 61L58 61L58 63L60 63L60 64L62 64L62 63L60 63L60 62L62 62L62 60L61 60L61 59L63 59L63 60L65 60L65 59L64 59L64 55L60 55L60 52ZM64 52L64 53L63 53L63 54L64 54L64 53L65 53L65 52ZM10 53L10 54L11 54L11 53ZM16 54L16 56L17 56L17 54ZM22 54L22 55L23 55L23 56L24 56L24 57L25 57L25 55L23 55L23 54ZM12 55L12 57L13 57L13 55ZM62 56L62 57L61 57L61 58L62 58L62 57L63 57L63 56ZM8 57L8 58L9 58L9 57ZM31 57L31 60L34 60L34 57ZM50 57L50 58L49 58L49 61L51 61L51 59L52 59L52 61L53 61L53 60L56 60L56 59L55 59L55 58L56 58L56 57L55 57L55 58L53 58L53 57L52 57L52 58L51 58L51 57ZM57 57L57 60L60 60L60 57ZM32 58L32 59L33 59L33 58ZM50 58L50 59L51 59L51 58ZM52 58L52 59L53 59L53 58ZM58 58L58 59L59 59L59 58ZM10 61L10 62L9 62L9 64L10 64L10 63L12 63L12 64L13 64L13 63L14 63L14 64L15 64L15 63L14 63L14 61L13 61L13 62L12 62L12 61ZM30 61L30 62L31 62L31 61ZM33 61L33 62L34 62L34 61ZM36 61L36 62L35 62L35 63L36 63L36 62L37 62L37 61ZM45 61L45 62L46 62L46 61ZM48 62L48 63L49 63L49 62ZM64 62L64 63L63 63L63 65L64 65L64 63L65 63L65 62ZM16 63L16 64L17 64L17 63ZM53 63L53 64L54 64L54 65L55 65L55 63ZM56 63L56 64L57 64L57 65L58 65L58 64L57 64L57 63ZM21 64L21 65L22 65L22 64ZM28 64L28 65L29 65L29 64ZM0 0L0 7L7 7L7 0ZM1 1L1 6L6 6L6 1ZM2 2L2 5L5 5L5 2ZM58 0L58 7L65 7L65 0ZM59 1L59 6L64 6L64 1ZM60 2L60 5L63 5L63 2ZM0 58L0 65L7 65L7 58ZM1 59L1 64L6 64L6 59ZM2 60L2 63L5 63L5 60Z" fill="#000000"/></g></g></svg>
