<?xml version="1.0" encoding="UTF-8"?>
<svg xmlns="http://www.w3.org/2000/svg" version="1.1" width="300" height="300" viewBox="0 0 300 300"><rect x="0" y="0" width="300" height="300" fill="#ffffff"/><g transform="scale(4.348)"><g transform="translate(0,0)"><path fill-rule="evenodd" d="M8 0L8 4L10 4L10 5L11 5L11 2L12 2L12 1L13 1L13 0L11 0L11 1L9 1L9 0ZM16 0L16 1L15 1L15 2L16 2L16 1L20 1L20 2L21 2L21 0ZM22 0L22 3L20 3L20 5L19 5L19 4L18 4L18 7L19 7L19 6L20 6L20 10L22 10L22 11L20 11L20 12L19 12L19 10L18 10L18 9L19 9L19 8L18 8L18 9L16 9L16 10L17 10L17 11L15 11L15 12L13 12L13 13L11 13L11 12L12 12L12 10L13 10L13 11L14 11L14 10L13 10L13 9L11 9L11 8L10 8L10 7L11 7L11 6L10 6L10 7L9 7L9 5L8 5L8 7L9 7L9 8L10 8L10 9L9 9L9 10L10 10L10 9L11 9L11 12L9 12L9 13L8 13L8 14L4 14L4 13L5 13L5 11L4 11L4 12L3 12L3 10L6 10L6 11L7 11L7 12L6 12L6 13L7 13L7 12L8 12L8 11L7 11L7 10L6 10L6 9L7 9L7 8L4 8L4 9L2 9L2 8L0 8L0 10L2 10L2 12L3 12L3 13L2 13L2 14L1 14L1 12L0 12L0 14L1 14L1 15L0 15L0 17L3 17L3 18L2 18L2 19L3 19L3 20L2 20L2 21L3 21L3 22L2 22L2 23L1 23L1 24L0 24L0 27L1 27L1 28L0 28L0 33L1 33L1 35L2 35L2 36L3 36L3 34L4 34L4 37L5 37L5 39L7 39L7 40L6 40L6 41L8 41L8 43L9 43L9 41L8 41L8 39L9 39L9 38L6 38L6 37L9 37L9 36L11 36L11 39L12 39L12 41L10 41L10 42L12 42L12 41L13 41L13 40L14 40L14 41L16 41L16 40L17 40L17 41L18 41L18 42L16 42L16 43L11 43L11 45L10 45L10 44L9 44L9 45L10 45L10 49L11 49L11 51L8 51L8 50L9 50L9 47L7 47L7 46L5 46L5 45L4 45L4 43L7 43L7 42L4 42L4 41L3 41L3 42L2 42L2 41L1 41L1 40L0 40L0 43L3 43L3 44L0 44L0 46L1 46L1 47L0 47L0 49L1 49L1 50L2 50L2 51L1 51L1 52L0 52L0 53L1 53L1 52L5 52L5 51L8 51L8 52L9 52L9 53L10 53L10 52L11 52L11 51L12 51L12 53L11 53L11 54L10 54L10 55L9 55L9 56L10 56L10 55L13 55L13 56L12 56L12 57L10 57L10 58L8 58L8 57L7 57L7 56L8 56L8 53L7 53L7 52L6 52L6 53L3 53L3 54L2 54L2 56L1 56L1 55L0 55L0 57L2 57L2 59L3 59L3 55L4 55L4 54L6 54L6 55L5 55L5 56L4 56L4 59L7 59L7 60L6 60L6 61L8 61L8 62L9 62L9 59L10 59L10 61L13 61L13 60L14 60L14 64L13 64L13 65L11 65L11 66L9 66L9 67L8 67L8 69L9 69L9 68L11 68L11 69L15 69L15 68L16 68L16 66L15 66L15 65L17 65L17 69L19 69L19 67L20 67L20 66L22 66L22 67L23 67L23 66L27 66L27 67L24 67L24 68L23 68L23 69L24 69L24 68L25 68L25 69L27 69L27 67L28 67L28 66L29 66L29 68L28 68L28 69L31 69L31 68L32 68L32 69L33 69L33 68L32 68L32 67L33 67L33 66L34 66L34 65L35 65L35 67L34 67L34 68L35 68L35 67L39 67L39 66L40 66L40 63L41 63L41 67L40 67L40 68L38 68L38 69L40 69L40 68L41 68L41 69L42 69L42 68L41 68L41 67L43 67L43 63L44 63L44 69L46 69L46 67L45 67L45 63L46 63L46 64L47 64L47 65L49 65L49 64L50 64L50 68L48 68L48 67L47 67L47 69L50 69L50 68L51 68L51 69L52 69L52 68L53 68L53 67L55 67L55 68L54 68L54 69L55 69L55 68L56 68L56 69L59 69L59 68L60 68L60 67L59 67L59 66L58 66L58 65L57 65L57 63L55 63L55 64L54 64L54 65L53 65L53 67L52 67L52 64L53 64L53 63L54 63L54 62L55 62L55 61L52 61L52 60L51 60L51 59L50 59L50 60L49 60L49 59L48 59L48 58L49 58L49 56L47 56L47 55L49 55L49 53L50 53L50 54L53 54L53 53L54 53L54 55L53 55L53 56L54 56L54 57L53 57L53 59L54 59L54 60L55 60L55 59L54 59L54 58L56 58L56 57L57 57L57 60L56 60L56 62L57 62L57 61L59 61L59 62L60 62L60 63L58 63L58 64L59 64L59 65L60 65L60 66L62 66L62 67L63 67L63 69L65 69L65 67L67 67L67 66L69 66L69 64L68 64L68 65L67 65L67 66L64 66L64 65L65 65L65 63L66 63L66 62L67 62L67 63L68 63L68 62L69 62L69 61L68 61L68 60L69 60L69 59L68 59L68 58L69 58L69 57L68 57L68 58L67 58L67 59L68 59L68 60L66 60L66 61L65 61L65 59L64 59L64 60L63 60L63 59L62 59L62 58L64 58L64 57L63 57L63 56L64 56L64 55L65 55L65 54L64 54L64 53L62 53L62 52L63 52L63 51L62 51L62 50L64 50L64 52L65 52L65 51L67 51L67 52L66 52L66 55L67 55L67 56L68 56L68 54L67 54L67 53L69 53L69 52L68 52L68 50L66 50L66 49L65 49L65 50L64 50L64 48L65 48L65 47L66 47L66 46L67 46L67 47L68 47L68 49L69 49L69 47L68 47L68 38L69 38L69 35L68 35L68 32L69 32L69 31L68 31L68 30L64 30L64 27L66 27L66 26L67 26L67 27L68 27L68 28L67 28L67 29L68 29L68 28L69 28L69 27L68 27L68 26L69 26L69 25L68 25L68 24L69 24L69 23L68 23L68 21L69 21L69 20L68 20L68 18L67 18L67 16L66 16L66 18L67 18L67 20L65 20L65 17L64 17L64 16L65 16L65 15L62 15L62 19L63 19L63 17L64 17L64 20L63 20L63 21L62 21L62 20L61 20L61 21L59 21L59 20L58 20L58 19L59 19L59 18L60 18L60 19L61 19L61 16L59 16L59 18L58 18L58 15L59 15L59 14L58 14L58 13L60 13L60 14L61 14L61 13L62 13L62 14L65 14L65 13L62 13L62 12L63 12L63 9L64 9L64 11L68 11L68 12L67 12L67 13L68 13L68 14L67 14L67 15L68 15L68 17L69 17L69 15L68 15L68 14L69 14L69 13L68 13L68 12L69 12L69 11L68 11L68 10L69 10L69 8L65 8L65 9L64 9L64 8L63 8L63 9L62 9L62 12L61 12L61 11L60 11L60 12L59 12L59 11L53 11L53 10L55 10L55 8L56 8L56 10L57 10L57 9L58 9L58 7L59 7L59 10L61 10L61 9L60 9L60 8L61 8L61 6L60 6L60 7L59 7L59 4L58 4L58 5L57 5L57 6L56 6L56 7L55 7L55 5L56 5L56 3L55 3L55 1L56 1L56 0L52 0L52 1L51 1L51 0L50 0L50 1L49 1L49 0L48 0L48 1L49 1L49 3L50 3L50 2L51 2L51 3L52 3L52 4L50 4L50 5L48 5L48 7L49 7L49 6L50 6L50 7L51 7L51 5L53 5L53 6L52 6L52 7L53 7L53 10L52 10L52 9L51 9L51 8L47 8L47 6L46 6L46 7L45 7L45 6L44 6L44 5L46 5L46 4L47 4L47 3L48 3L48 2L47 2L47 1L46 1L46 0L45 0L45 1L44 1L44 0L40 0L40 2L39 2L39 3L40 3L40 4L38 4L38 3L37 3L37 2L38 2L38 1L39 1L39 0L38 0L38 1L35 1L35 0L32 0L32 1L31 1L31 0L30 0L30 1L29 1L29 0ZM57 0L57 1L61 1L61 0ZM23 1L23 2L24 2L24 4L25 4L25 2L26 2L26 1ZM27 1L27 3L26 3L26 4L28 4L28 5L27 5L27 7L26 7L26 5L25 5L25 7L24 7L24 6L23 6L23 5L20 5L20 6L21 6L21 9L22 9L22 10L23 10L23 9L24 9L24 10L25 10L25 13L26 13L26 14L24 14L24 15L21 15L21 14L22 14L22 13L23 13L23 12L24 12L24 11L23 11L23 12L22 12L22 13L21 13L21 12L20 12L20 13L19 13L19 15L20 15L20 16L22 16L22 17L19 17L19 16L18 16L18 17L16 17L16 16L17 16L17 15L18 15L18 14L17 14L17 13L16 13L16 16L15 16L15 17L14 17L14 16L11 16L11 17L12 17L12 18L16 18L16 19L15 19L15 20L13 20L13 19L12 19L12 20L11 20L11 21L10 21L10 20L9 20L9 19L6 19L6 18L8 18L8 17L9 17L9 18L10 18L10 19L11 19L11 18L10 18L10 16L7 16L7 15L6 15L6 16L5 16L5 15L4 15L4 14L2 14L2 15L1 15L1 16L2 16L2 15L3 15L3 17L5 17L5 18L3 18L3 19L4 19L4 20L5 20L5 21L6 21L6 22L7 22L7 21L6 21L6 20L9 20L9 22L8 22L8 24L9 24L9 25L8 25L8 26L9 26L9 27L8 27L8 28L7 28L7 27L6 27L6 26L7 26L7 25L6 25L6 24L7 24L7 23L6 23L6 24L5 24L5 25L3 25L3 23L2 23L2 24L1 24L1 26L5 26L5 27L4 27L4 29L3 29L3 30L2 30L2 31L1 31L1 32L2 32L2 34L3 34L3 32L4 32L4 31L6 31L6 32L8 32L8 31L9 31L9 30L10 30L10 29L11 29L11 27L10 27L10 26L11 26L11 25L17 25L17 26L16 26L16 27L15 27L15 26L14 26L14 27L13 27L13 26L12 26L12 27L13 27L13 28L14 28L14 29L13 29L13 30L12 30L12 32L11 32L11 31L10 31L10 32L9 32L9 34L10 34L10 35L11 35L11 34L12 34L12 33L13 33L13 36L12 36L12 38L13 38L13 36L14 36L14 38L15 38L15 37L16 37L16 38L17 38L17 37L16 37L16 35L15 35L15 36L14 36L14 32L15 32L15 33L16 33L16 34L17 34L17 33L18 33L18 32L19 32L19 33L20 33L20 32L22 32L22 33L21 33L21 34L20 34L20 35L19 35L19 34L18 34L18 35L19 35L19 36L21 36L21 35L22 35L22 38L23 38L23 40L22 40L22 39L21 39L21 41L22 41L22 42L23 42L23 41L24 41L24 42L25 42L25 41L26 41L26 39L28 39L28 42L27 42L27 43L29 43L29 44L31 44L31 45L33 45L33 47L32 47L32 46L30 46L30 47L29 47L29 45L27 45L27 46L22 46L22 45L24 45L24 43L23 43L23 44L22 44L22 45L21 45L21 47L23 47L23 48L22 48L22 49L23 49L23 48L24 48L24 49L25 49L25 52L24 52L24 51L23 51L23 52L22 52L22 53L21 53L21 54L20 54L20 53L18 53L18 52L17 52L17 53L16 53L16 56L15 56L15 55L14 55L14 56L15 56L15 57L17 57L17 56L18 56L18 54L20 54L20 55L19 55L19 56L20 56L20 57L19 57L19 59L17 59L17 58L16 58L16 59L15 59L15 58L14 58L14 60L15 60L15 61L16 61L16 62L15 62L15 63L16 63L16 62L17 62L17 61L18 61L18 63L17 63L17 65L18 65L18 64L19 64L19 65L20 65L20 64L21 64L21 63L22 63L22 66L23 66L23 65L24 65L24 64L23 64L23 63L25 63L25 65L29 65L29 66L30 66L30 65L29 65L29 64L26 64L26 63L25 63L25 62L26 62L26 60L27 60L27 59L28 59L28 62L27 62L27 63L28 63L28 62L31 62L31 63L32 63L32 62L31 62L31 61L29 61L29 59L32 59L32 60L33 60L33 59L34 59L34 60L37 60L37 59L38 59L38 60L39 60L39 63L38 63L38 61L37 61L37 65L36 65L36 66L38 66L38 65L39 65L39 63L40 63L40 62L41 62L41 60L39 60L39 59L38 59L38 56L39 56L39 55L40 55L40 57L39 57L39 58L40 58L40 59L41 59L41 58L40 58L40 57L41 57L41 56L42 56L42 57L44 57L44 54L45 54L45 53L46 53L46 54L48 54L48 53L46 53L46 52L52 52L52 53L53 53L53 52L52 52L52 50L53 50L53 49L56 49L56 50L55 50L55 51L54 51L54 52L55 52L55 53L56 53L56 52L58 52L58 54L56 54L56 55L55 55L55 57L56 57L56 55L57 55L57 56L58 56L58 54L59 54L59 53L60 53L60 52L58 52L58 51L60 51L60 50L62 50L62 47L63 47L63 45L62 45L62 47L61 47L61 46L59 46L59 45L60 45L60 44L61 44L61 43L59 43L59 41L60 41L60 40L59 40L59 41L58 41L58 39L59 39L59 37L60 37L60 36L58 36L58 35L60 35L60 34L59 34L59 32L60 32L60 31L61 31L61 30L62 30L62 31L63 31L63 32L66 32L66 33L67 33L67 31L64 31L64 30L62 30L62 29L61 29L61 30L59 30L59 29L58 29L58 30L59 30L59 31L58 31L58 35L56 35L56 34L55 34L55 35L56 35L56 36L52 36L52 35L54 35L54 32L55 32L55 33L56 33L56 32L57 32L57 29L56 29L56 28L59 28L59 27L60 27L60 28L61 28L61 27L62 27L62 28L63 28L63 26L62 26L62 25L61 25L61 26L59 26L59 25L60 25L60 24L61 24L61 23L62 23L62 24L64 24L64 25L66 25L66 24L68 24L68 23L66 23L66 21L65 21L65 20L64 20L64 23L63 23L63 22L62 22L62 21L61 21L61 23L59 23L59 21L58 21L58 20L57 20L57 21L56 21L56 16L57 16L57 14L56 14L56 12L53 12L53 11L52 11L52 13L53 13L53 14L52 14L52 15L51 15L51 14L50 14L50 12L49 12L49 15L47 15L47 13L46 13L46 15L47 15L47 16L45 16L45 19L44 19L44 18L41 18L41 17L42 17L42 16L40 16L40 19L39 19L39 18L38 18L38 17L39 17L39 16L38 16L38 15L37 15L37 14L35 14L35 13L33 13L33 14L32 14L32 16L31 16L31 15L29 15L29 16L28 16L28 17L27 17L27 18L26 18L26 17L25 17L25 18L24 18L24 19L23 19L23 20L22 20L22 21L21 21L21 22L20 22L20 21L19 21L19 22L18 22L18 21L17 21L17 19L20 19L20 18L22 18L22 17L24 17L24 16L25 16L25 15L26 15L26 16L27 16L27 15L28 15L28 14L29 14L29 12L31 12L31 13L32 13L32 12L34 12L34 10L35 10L35 11L36 11L36 9L34 9L34 10L33 10L33 9L32 9L32 11L31 11L31 10L30 10L30 9L31 9L31 8L32 8L32 6L31 6L31 5L32 5L32 3L34 3L34 4L35 4L35 3L34 3L34 2L35 2L35 1L34 1L34 2L33 2L33 1L32 1L32 2L31 2L31 3L30 3L30 2L28 2L28 1ZM41 1L41 2L42 2L42 3L44 3L44 4L43 4L43 5L44 5L44 4L45 4L45 3L46 3L46 2L45 2L45 3L44 3L44 2L42 2L42 1ZM52 1L52 2L54 2L54 1ZM9 2L9 3L10 3L10 2ZM17 2L17 3L19 3L19 2ZM57 2L57 3L59 3L59 2ZM12 3L12 4L14 4L14 3ZM15 3L15 4L16 4L16 5L14 5L14 7L15 7L15 6L16 6L16 7L17 7L17 4L16 4L16 3ZM28 3L28 4L29 4L29 3ZM60 3L60 5L61 5L61 3ZM30 4L30 5L29 5L29 6L28 6L28 8L29 8L29 9L30 9L30 8L31 8L31 6L30 6L30 5L31 5L31 4ZM40 4L40 5L39 5L39 7L40 7L40 5L41 5L41 4ZM12 5L12 7L13 7L13 5ZM33 5L33 8L36 8L36 5ZM37 5L37 8L38 8L38 5ZM22 6L22 8L23 8L23 6ZM29 6L29 7L30 7L30 6ZM34 6L34 7L35 7L35 6ZM41 6L41 7L42 7L42 6ZM43 6L43 8L40 8L40 10L39 10L39 11L40 11L40 10L41 10L41 14L40 14L40 13L39 13L39 12L38 12L38 11L37 11L37 12L36 12L36 13L39 13L39 15L42 15L42 13L43 13L43 14L44 14L44 15L43 15L43 17L44 17L44 15L45 15L45 14L44 14L44 13L43 13L43 12L42 12L42 10L41 10L41 9L43 9L43 11L45 11L45 12L46 12L46 10L47 10L47 8L45 8L45 7L44 7L44 6ZM53 6L53 7L54 7L54 6ZM57 6L57 7L56 7L56 8L57 8L57 7L58 7L58 6ZM25 7L25 8L24 8L24 9L25 9L25 8L26 8L26 10L27 10L27 11L26 11L26 13L27 13L27 14L28 14L28 11L30 11L30 10L28 10L28 9L27 9L27 8L26 8L26 7ZM44 8L44 9L45 9L45 10L46 10L46 9L45 9L45 8ZM37 9L37 10L38 10L38 9ZM49 9L49 11L51 11L51 10L50 10L50 9ZM65 9L65 10L68 10L68 9ZM60 12L60 13L61 13L61 12ZM10 13L10 14L11 14L11 13ZM13 13L13 14L12 14L12 15L13 15L13 14L14 14L14 13ZM20 13L20 14L21 14L21 13ZM54 13L54 15L56 15L56 14L55 14L55 13ZM8 14L8 15L9 15L9 14ZM34 14L34 15L33 15L33 16L32 16L32 17L33 17L33 19L34 19L34 20L33 20L33 21L34 21L34 20L35 20L35 22L37 22L37 21L38 21L38 20L39 20L39 21L40 21L40 20L43 20L43 19L40 19L40 20L39 20L39 19L38 19L38 18L37 18L37 19L35 19L35 17L37 17L37 16L36 16L36 15L35 15L35 14ZM49 15L49 16L47 16L47 17L49 17L49 16L50 16L50 18L49 18L49 19L50 19L50 22L48 22L48 25L47 25L47 22L46 22L46 21L49 21L49 20L47 20L47 19L48 19L48 18L47 18L47 19L46 19L46 20L44 20L44 23L45 23L45 24L44 24L44 25L43 25L43 24L42 24L42 25L41 25L41 26L43 26L43 28L42 28L42 27L40 27L40 24L41 24L41 23L43 23L43 21L41 21L41 22L40 22L40 24L37 24L37 25L36 25L36 24L35 24L35 23L34 23L34 24L32 24L32 23L33 23L33 22L32 22L32 19L31 19L31 16L29 16L29 18L28 18L28 19L27 19L27 20L26 20L26 18L25 18L25 20L23 20L23 23L25 23L25 24L22 24L22 23L21 23L21 24L20 24L20 23L19 23L19 24L17 24L17 25L18 25L18 26L17 26L17 27L19 27L19 28L17 28L17 29L20 29L20 31L19 31L19 32L20 32L20 31L22 31L22 30L24 30L24 32L23 32L23 33L22 33L22 34L27 34L27 35L26 35L26 37L24 37L24 36L25 36L25 35L23 35L23 38L24 38L24 41L25 41L25 39L26 39L26 37L27 37L27 38L28 38L28 36L27 36L27 35L28 35L28 34L29 34L29 37L30 37L30 39L29 39L29 41L30 41L30 42L32 42L32 41L33 41L33 43L32 43L32 44L33 44L33 45L34 45L34 42L35 42L35 43L36 43L36 42L35 42L35 41L33 41L33 40L34 40L34 38L32 38L32 39L33 39L33 40L31 40L31 37L35 37L35 39L36 39L36 37L37 37L37 40L38 40L38 43L37 43L37 44L36 44L36 45L38 45L38 46L37 46L37 47L36 47L36 46L35 46L35 47L34 47L34 48L33 48L33 49L32 49L32 48L31 48L31 47L30 47L30 48L29 48L29 47L28 47L28 48L26 48L26 47L25 47L25 49L26 49L26 51L27 51L27 52L26 52L26 53L22 53L22 54L24 54L24 55L23 55L23 56L22 56L22 55L21 55L21 57L20 57L20 59L19 59L19 60L18 60L18 61L19 61L19 60L20 60L20 62L19 62L19 64L20 64L20 62L21 62L21 61L22 61L22 59L23 59L23 61L24 61L24 62L25 62L25 61L24 61L24 59L23 59L23 58L21 58L21 57L24 57L24 58L25 58L25 59L26 59L26 57L27 57L27 58L28 58L28 57L29 57L29 58L31 58L31 57L34 57L34 58L36 58L36 59L37 59L37 56L36 56L36 57L34 57L34 55L35 55L35 54L34 54L34 53L33 53L33 51L34 51L34 52L35 52L35 53L38 53L38 52L39 52L39 54L40 54L40 55L41 55L41 54L42 54L42 55L43 55L43 54L44 54L44 53L45 53L45 50L46 50L46 51L48 51L48 50L49 50L49 49L50 49L50 50L51 50L51 49L52 49L52 48L54 48L54 47L56 47L56 49L57 49L57 50L56 50L56 51L55 51L55 52L56 52L56 51L58 51L58 49L57 49L57 47L58 47L58 45L57 45L57 43L55 43L55 39L54 39L54 38L56 38L56 37L57 37L57 39L58 39L58 36L56 36L56 37L53 37L53 38L52 38L52 39L51 39L51 37L52 37L52 36L51 36L51 37L49 37L49 35L47 35L47 34L48 34L48 33L50 33L50 34L51 34L51 35L52 35L52 34L51 34L51 33L52 33L52 32L54 32L54 31L55 31L55 32L56 32L56 31L55 31L55 30L56 30L56 29L52 29L52 27L51 27L51 26L53 26L53 27L56 27L56 26L55 26L55 25L57 25L57 27L59 27L59 26L58 26L58 25L59 25L59 23L56 23L56 21L53 21L53 22L52 22L52 21L51 21L51 19L53 19L53 20L55 20L55 16L53 16L53 17L54 17L54 19L53 19L53 18L52 18L52 16L51 16L51 15ZM6 16L6 17L7 17L7 16ZM34 16L34 17L35 17L35 16ZM18 17L18 18L19 18L19 17ZM0 18L0 20L1 20L1 18ZM50 18L50 19L51 19L51 18ZM57 18L57 19L58 19L58 18ZM29 19L29 20L28 20L28 22L27 22L27 23L26 23L26 20L25 20L25 23L26 23L26 24L25 24L25 26L24 26L24 25L21 25L21 26L22 26L22 27L24 27L24 28L22 28L22 29L24 29L24 28L25 28L25 29L26 29L26 28L25 28L25 27L26 27L26 24L27 24L27 25L28 25L28 26L27 26L27 28L28 28L28 27L29 27L29 29L28 29L28 30L27 30L27 31L28 31L28 30L29 30L29 31L32 31L32 32L35 32L35 31L37 31L37 32L38 32L38 33L37 33L37 34L38 34L38 35L37 35L37 37L38 37L38 36L39 36L39 35L40 35L40 37L39 37L39 38L38 38L38 40L39 40L39 39L40 39L40 41L41 41L41 34L38 34L38 33L39 33L39 32L38 32L38 29L37 29L37 30L34 30L34 31L33 31L33 29L36 29L36 28L39 28L39 29L40 29L40 30L42 30L42 28L40 28L40 27L37 27L37 26L38 26L38 25L37 25L37 26L36 26L36 27L35 27L35 28L34 28L34 27L33 27L33 26L34 26L34 25L32 25L32 24L31 24L31 21L30 21L30 20L31 20L31 19ZM36 20L36 21L37 21L37 20ZM67 20L67 21L68 21L68 20ZM0 21L0 22L1 22L1 21ZM11 21L11 24L12 24L12 21ZM13 21L13 22L15 22L15 21ZM29 21L29 22L28 22L28 23L27 23L27 24L28 24L28 25L29 25L29 26L32 26L32 25L31 25L31 24L30 24L30 25L29 25L29 24L28 24L28 23L30 23L30 21ZM57 21L57 22L58 22L58 21ZM4 22L4 23L5 23L5 22ZM9 22L9 23L10 23L10 22ZM16 22L16 23L14 23L14 24L16 24L16 23L18 23L18 22ZM50 22L50 23L51 23L51 22ZM52 23L52 25L55 25L55 23ZM64 23L64 24L65 24L65 23ZM49 24L49 25L48 25L48 27L49 27L49 26L50 26L50 24ZM5 25L5 26L6 26L6 25ZM9 25L9 26L10 26L10 25ZM19 25L19 27L20 27L20 25ZM46 25L46 26L47 26L47 25ZM67 25L67 26L68 26L68 25ZM2 27L2 28L1 28L1 29L2 29L2 28L3 28L3 27ZM5 27L5 28L6 28L6 29L7 29L7 30L6 30L6 31L7 31L7 30L9 30L9 29L7 29L7 28L6 28L6 27ZM31 27L31 28L30 28L30 29L29 29L29 30L30 30L30 29L32 29L32 28L33 28L33 27ZM44 27L44 28L43 28L43 29L44 29L44 28L45 28L45 27ZM50 27L50 28L51 28L51 27ZM20 28L20 29L21 29L21 28ZM46 28L46 30L47 30L47 32L49 32L49 31L50 31L50 33L51 33L51 32L52 32L52 31L53 31L53 30L52 30L52 29L51 29L51 31L50 31L50 29L48 29L48 30L47 30L47 28ZM15 29L15 31L16 31L16 33L17 33L17 31L18 31L18 30L16 30L16 29ZM13 30L13 32L14 32L14 30ZM43 30L43 31L40 31L40 33L44 33L44 34L43 34L43 36L42 36L42 37L43 37L43 38L45 38L45 37L46 37L46 42L45 42L45 44L46 44L46 43L47 43L47 44L48 44L48 43L49 43L49 42L50 42L50 44L51 44L51 43L52 43L52 42L53 42L53 44L52 44L52 45L51 45L51 46L52 46L52 45L54 45L54 44L55 44L55 43L54 43L54 42L53 42L53 40L54 40L54 39L52 39L52 42L50 42L50 39L49 39L49 37L46 37L46 34L47 34L47 33L46 33L46 34L45 34L45 33L44 33L44 31L45 31L45 30ZM2 31L2 32L3 32L3 31ZM25 31L25 32L24 32L24 33L30 33L30 36L32 36L32 33L30 33L30 32L26 32L26 31ZM10 32L10 33L11 33L11 32ZM5 33L5 36L8 36L8 33ZM33 33L33 36L36 36L36 33ZM61 33L61 36L64 36L64 33ZM6 34L6 35L7 35L7 34ZM34 34L34 35L35 35L35 34ZM44 34L44 37L45 37L45 34ZM62 34L62 35L63 35L63 34ZM65 34L65 37L63 37L63 38L62 38L62 37L61 37L61 39L64 39L64 40L65 40L65 39L64 39L64 38L65 38L65 37L66 37L66 38L68 38L68 35L67 35L67 34ZM0 36L0 37L1 37L1 39L2 39L2 40L4 40L4 38L3 38L3 39L2 39L2 37L1 37L1 36ZM66 36L66 37L67 37L67 36ZM19 37L19 39L20 39L20 37ZM47 38L47 42L48 42L48 41L49 41L49 39L48 39L48 38ZM14 39L14 40L15 40L15 39ZM43 39L43 42L39 42L39 43L41 43L41 44L43 44L43 43L44 43L44 40L45 40L45 39ZM66 39L66 41L64 41L64 42L63 42L63 40L61 40L61 41L62 41L62 44L63 44L63 43L64 43L64 47L65 47L65 46L66 46L66 44L67 44L67 43L64 43L64 42L67 42L67 39ZM30 40L30 41L31 41L31 40ZM56 40L56 41L57 41L57 42L58 42L58 41L57 41L57 40ZM19 41L19 42L20 42L20 41ZM3 42L3 43L4 43L4 42ZM19 43L19 48L18 48L18 49L16 49L16 48L17 48L17 47L18 47L18 45L17 45L17 44L14 44L14 45L16 45L16 47L15 47L15 46L14 46L14 47L13 47L13 48L12 48L12 47L11 47L11 49L14 49L14 50L13 50L13 52L14 52L14 53L12 53L12 54L14 54L14 53L15 53L15 51L17 51L17 50L18 50L18 49L19 49L19 51L20 51L20 50L21 50L21 51L22 51L22 50L21 50L21 49L19 49L19 48L20 48L20 43ZM25 43L25 45L26 45L26 43ZM58 43L58 44L59 44L59 43ZM6 44L6 45L8 45L8 44ZM1 45L1 46L2 46L2 45ZM11 45L11 46L12 46L12 45ZM39 45L39 46L38 46L38 48L39 48L39 47L41 47L41 48L40 48L40 54L41 54L41 52L42 52L42 53L44 53L44 51L43 51L43 50L42 50L42 51L41 51L41 49L42 49L42 45L41 45L41 46L40 46L40 45ZM43 45L43 47L44 47L44 48L43 48L43 49L44 49L44 50L45 50L45 49L46 49L46 50L48 50L48 49L47 49L47 48L45 48L45 47L46 47L46 46L47 46L47 45L46 45L46 46L44 46L44 45ZM49 45L49 47L48 47L48 48L50 48L50 49L51 49L51 48L52 48L52 47L50 47L50 45ZM55 45L55 46L56 46L56 45ZM4 46L4 47L5 47L5 48L3 48L3 47L2 47L2 48L1 48L1 49L2 49L2 50L3 50L3 51L5 51L5 49L6 49L6 50L7 50L7 49L8 49L8 48L7 48L7 47L5 47L5 46ZM14 47L14 49L15 49L15 50L16 50L16 49L15 49L15 47ZM35 47L35 48L34 48L34 50L35 50L35 49L36 49L36 51L35 51L35 52L37 52L37 51L38 51L38 49L37 49L37 48L36 48L36 47ZM60 47L60 49L59 49L59 50L60 50L60 49L61 49L61 47ZM2 48L2 49L3 49L3 48ZM6 48L6 49L7 49L7 48ZM28 48L28 49L27 49L27 51L28 51L28 50L29 50L29 52L32 52L32 49L31 49L31 51L30 51L30 50L29 50L29 48ZM44 48L44 49L45 49L45 48ZM42 51L42 52L43 52L43 51ZM27 52L27 53L26 53L26 54L25 54L25 55L24 55L24 56L25 56L25 57L26 57L26 54L27 54L27 53L28 53L28 54L29 54L29 53L28 53L28 52ZM6 53L6 54L7 54L7 53ZM17 53L17 54L18 54L18 53ZM30 53L30 55L27 55L27 57L28 57L28 56L29 56L29 57L30 57L30 56L33 56L33 55L32 55L32 54L33 54L33 53ZM61 53L61 54L62 54L62 55L61 55L61 56L60 56L60 55L59 55L59 57L58 57L58 59L59 59L59 57L62 57L62 56L63 56L63 55L64 55L64 54L62 54L62 53ZM36 54L36 55L37 55L37 54ZM6 55L6 56L5 56L5 57L6 57L6 58L7 58L7 57L6 57L6 56L7 56L7 55ZM12 57L12 58L10 58L10 59L12 59L12 58L13 58L13 57ZM46 57L46 58L47 58L47 57ZM50 57L50 58L52 58L52 57ZM65 57L65 58L66 58L66 57ZM0 58L0 61L1 61L1 58ZM42 58L42 61L43 61L43 62L42 62L42 63L43 63L43 62L45 62L45 61L46 61L46 63L47 63L47 64L48 64L48 63L47 63L47 61L46 61L46 59L45 59L45 58ZM20 59L20 60L21 60L21 59ZM43 59L43 60L44 60L44 61L45 61L45 60L44 60L44 59ZM61 59L61 60L62 60L62 59ZM3 60L3 61L5 61L5 60ZM50 60L50 61L49 61L49 63L51 63L51 64L52 64L52 61L51 61L51 60ZM59 60L59 61L60 61L60 60ZM33 61L33 64L36 64L36 61ZM50 61L50 62L51 62L51 61ZM61 61L61 64L64 64L64 61ZM22 62L22 63L23 63L23 62ZM34 62L34 63L35 63L35 62ZM62 62L62 63L63 63L63 62ZM8 63L8 65L10 65L10 64L12 64L12 63ZM31 64L31 65L32 65L32 66L33 66L33 65L32 65L32 64ZM55 64L55 67L57 67L57 68L58 68L58 67L57 67L57 66L56 66L56 64ZM13 65L13 66L14 66L14 65ZM11 66L11 68L12 68L12 66ZM18 66L18 67L19 67L19 66ZM63 66L63 67L64 67L64 66ZM14 67L14 68L15 68L15 67ZM36 68L36 69L37 69L37 68ZM68 68L68 69L69 69L69 68ZM0 0L0 7L7 7L7 0ZM1 1L1 6L6 6L6 1ZM2 2L2 5L5 5L5 2ZM62 0L62 7L69 7L69 0ZM63 1L63 6L68 6L68 1ZM64 2L64 5L67 5L67 2ZM0 62L0 69L7 69L7 62ZM1 63L1 68L6 68L6 63ZM2 64L2 67L5 67L5 64Z" fill="#000000"/></g></g></svg>
