<?xml version="1.0" encoding="UTF-8"?>
<svg xmlns="http://www.w3.org/2000/svg" version="1.1" width="300" height="300" viewBox="0 0 300 300"><rect x="0" y="0" width="300" height="300" fill="#ffffff"/><g transform="scale(4.348)"><g transform="translate(0,0)"><path fill-rule="evenodd" d="M8 0L8 4L9 4L9 5L8 5L8 7L9 7L9 6L10 6L10 7L11 7L11 9L8 9L8 11L7 11L7 10L6 10L6 9L7 9L7 8L4 8L4 10L3 10L3 12L4 12L4 10L5 10L5 11L7 11L7 12L5 12L5 13L4 13L4 14L5 14L5 16L6 16L6 17L5 17L5 18L4 18L4 16L3 16L3 15L2 15L2 14L0 14L0 16L1 16L1 17L0 17L0 21L2 21L2 20L1 20L1 19L2 19L2 18L1 18L1 17L2 17L2 16L3 16L3 19L4 19L4 20L3 20L3 22L1 22L1 25L0 25L0 27L1 27L1 28L0 28L0 30L1 30L1 31L0 31L0 33L1 33L1 31L2 31L2 30L4 30L4 31L3 31L3 32L2 32L2 33L3 33L3 36L4 36L4 37L3 37L3 38L1 38L1 39L2 39L2 41L3 41L3 42L2 42L2 43L0 43L0 44L1 44L1 45L3 45L3 47L0 47L0 48L1 48L1 49L0 49L0 50L1 50L1 49L3 49L3 50L2 50L2 51L0 51L0 52L2 52L2 51L3 51L3 50L4 50L4 51L8 51L8 53L7 53L7 52L5 52L5 53L4 53L4 54L5 54L5 53L7 53L7 54L6 54L6 55L5 55L5 56L6 56L6 57L3 57L3 56L4 56L4 55L1 55L1 54L3 54L3 53L1 53L1 54L0 54L0 61L1 61L1 57L2 57L2 59L3 59L3 58L4 58L4 59L7 59L7 58L8 58L8 57L7 57L7 56L8 56L8 53L9 53L9 54L10 54L10 55L9 55L9 57L10 57L10 56L11 56L11 58L10 58L10 59L8 59L8 60L6 60L6 61L8 61L8 62L9 62L9 63L8 63L8 65L9 65L9 67L8 67L8 69L9 69L9 67L10 67L10 66L11 66L11 64L10 64L10 63L12 63L12 66L13 66L13 67L12 67L12 68L10 68L10 69L13 69L13 68L14 68L14 69L15 69L15 68L16 68L16 65L15 65L15 64L16 64L16 60L15 60L15 62L14 62L14 60L13 60L13 63L12 63L12 62L11 62L11 61L12 61L12 59L13 59L13 58L14 58L14 59L16 59L16 58L17 58L17 59L18 59L18 60L17 60L17 63L18 63L18 61L19 61L19 59L18 59L18 58L19 58L19 57L20 57L20 59L23 59L23 61L24 61L24 62L25 62L25 63L26 63L26 64L27 64L27 65L23 65L23 66L22 66L22 64L20 64L20 63L19 63L19 64L18 64L18 65L17 65L17 66L19 66L19 67L20 67L20 66L21 66L21 69L22 69L22 67L23 67L23 68L24 68L24 69L25 69L25 67L26 67L26 66L27 66L27 67L28 67L28 68L26 68L26 69L29 69L29 67L28 67L28 64L30 64L30 65L29 65L29 66L30 66L30 67L31 67L31 66L30 66L30 65L32 65L32 67L33 67L33 68L32 68L32 69L33 69L33 68L34 68L34 69L40 69L40 68L41 68L41 67L43 67L43 62L46 62L46 61L47 61L47 64L46 64L46 63L44 63L44 67L45 67L45 68L44 68L44 69L45 69L45 68L46 68L46 69L47 69L47 68L46 68L46 67L45 67L45 66L46 66L46 65L48 65L48 66L49 66L49 67L48 67L48 69L50 69L50 66L51 66L51 69L52 69L52 68L53 68L53 67L55 67L55 68L54 68L54 69L55 69L55 68L56 68L56 69L59 69L59 68L58 68L58 67L59 67L59 66L61 66L61 65L62 65L62 67L60 67L60 68L61 68L61 69L63 69L63 68L64 68L64 67L66 67L66 66L65 66L65 63L66 63L66 62L67 62L67 63L68 63L68 60L66 60L66 61L65 61L65 59L64 59L64 60L61 60L61 59L62 59L62 58L64 58L64 57L61 57L61 56L64 56L64 55L67 55L67 56L65 56L65 58L66 58L66 59L68 59L68 58L69 58L69 57L68 57L68 55L67 55L67 53L69 53L69 52L68 52L68 51L69 51L69 49L68 49L68 51L67 51L67 49L65 49L65 50L64 50L64 48L65 48L65 47L66 47L66 46L67 46L67 48L68 48L68 45L67 45L67 44L66 44L66 46L65 46L65 47L64 47L64 44L63 44L63 43L62 43L62 41L65 41L65 40L64 40L64 39L65 39L65 38L67 38L67 39L68 39L68 38L69 38L69 36L68 36L68 37L67 37L67 36L66 36L66 37L65 37L65 34L66 34L66 32L63 32L63 31L62 31L62 32L57 32L57 30L58 30L58 28L56 28L56 29L53 29L53 30L56 30L56 31L55 31L55 32L56 32L56 34L55 34L55 33L52 33L52 32L54 32L54 31L52 31L52 29L50 29L50 28L49 28L49 27L52 27L52 26L55 26L55 27L53 27L53 28L55 28L55 27L56 27L56 26L57 26L57 27L60 27L60 29L59 29L59 31L60 31L60 30L61 30L61 29L62 29L62 30L63 30L63 29L64 29L64 31L67 31L67 35L68 35L68 33L69 33L69 31L67 31L67 30L65 30L65 29L66 29L66 27L65 27L65 25L64 25L64 23L65 23L65 22L64 22L64 23L63 23L63 21L64 21L64 20L65 20L65 19L67 19L67 20L68 20L68 22L67 22L67 21L66 21L66 22L67 22L67 23L68 23L68 24L69 24L69 23L68 23L68 22L69 22L69 20L68 20L68 18L65 18L65 17L64 17L64 16L65 16L65 14L63 14L63 13L64 13L64 12L65 12L65 11L66 11L66 10L67 10L67 11L68 11L68 12L66 12L66 13L68 13L68 14L67 14L67 15L68 15L68 14L69 14L69 11L68 11L68 9L69 9L69 8L65 8L65 9L64 9L64 8L63 8L63 9L62 9L62 11L61 11L61 9L60 9L60 8L61 8L61 6L60 6L60 7L59 7L59 4L58 4L58 3L59 3L59 2L58 2L58 1L61 1L61 0L57 0L57 2L56 2L56 0L52 0L52 1L51 1L51 0L50 0L50 1L49 1L49 0L47 0L47 2L48 2L48 3L49 3L49 2L50 2L50 5L48 5L48 4L47 4L47 6L46 6L46 7L45 7L45 6L44 6L44 7L45 7L45 8L44 8L44 9L41 9L41 10L40 10L40 7L41 7L41 8L43 8L43 4L44 4L44 2L46 2L46 0L45 0L45 1L44 1L44 0L41 0L41 1L39 1L39 0L38 0L38 1L39 1L39 3L40 3L40 4L38 4L38 5L37 5L37 4L36 4L36 3L38 3L38 2L37 2L37 1L34 1L34 0L32 0L32 1L31 1L31 0L30 0L30 3L31 3L31 2L32 2L32 3L33 3L33 2L32 2L32 1L34 1L34 4L32 4L32 5L31 5L31 4L30 4L30 5L29 5L29 6L28 6L28 4L29 4L29 2L28 2L28 3L27 3L27 1L26 1L26 0L23 0L23 1L25 1L25 2L26 2L26 3L25 3L25 4L24 4L24 3L22 3L22 2L21 2L21 1L22 1L22 0L17 0L17 1L16 1L16 2L17 2L17 3L16 3L16 4L15 4L15 2L13 2L13 1L15 1L15 0L13 0L13 1L12 1L12 2L13 2L13 5L11 5L11 6L10 6L10 4L11 4L11 3L10 3L10 2L11 2L11 0L10 0L10 1L9 1L9 0ZM17 1L17 2L18 2L18 1ZM19 1L19 3L17 3L17 4L18 4L18 5L13 5L13 7L14 7L14 8L13 8L13 11L12 11L12 9L11 9L11 10L10 10L10 11L9 11L9 12L7 12L7 13L6 13L6 14L7 14L7 15L6 15L6 16L8 16L8 19L5 19L5 20L4 20L4 23L2 23L2 25L1 25L1 26L2 26L2 25L4 25L4 26L3 26L3 28L2 28L2 29L3 29L3 28L4 28L4 30L7 30L7 29L5 29L5 28L4 28L4 26L5 26L5 27L6 27L6 28L9 28L9 29L8 29L8 31L6 31L6 32L9 32L9 30L11 30L11 29L12 29L12 28L11 28L11 27L13 27L13 30L12 30L12 31L11 31L11 32L12 32L12 33L11 33L11 34L9 34L9 35L10 35L10 36L9 36L9 37L8 37L8 38L7 38L7 37L6 37L6 38L7 38L7 39L6 39L6 40L5 40L5 39L3 39L3 40L5 40L5 42L7 42L7 43L6 43L6 44L7 44L7 45L6 45L6 46L9 46L9 47L6 47L6 48L5 48L5 49L6 49L6 50L7 50L7 49L6 49L6 48L8 48L8 49L10 49L10 48L11 48L11 47L10 47L10 46L12 46L12 47L15 47L15 45L16 45L16 48L14 48L14 49L11 49L11 50L13 50L13 51L10 51L10 52L9 52L9 53L10 53L10 54L11 54L11 53L10 53L10 52L12 52L12 53L14 53L14 52L15 52L15 50L14 50L14 49L16 49L16 50L18 50L18 49L19 49L19 51L20 51L20 50L21 50L21 51L22 51L22 50L23 50L23 51L24 51L24 52L22 52L22 53L21 53L21 55L22 55L22 56L23 56L23 53L26 53L26 54L24 54L24 55L26 55L26 56L25 56L25 58L24 58L24 57L21 57L21 58L23 58L23 59L24 59L24 61L26 61L26 56L27 56L27 55L28 55L28 54L31 54L31 55L29 55L29 56L28 56L28 59L27 59L27 60L28 60L28 59L29 59L29 60L30 60L30 58L31 58L31 59L32 59L32 60L33 60L33 59L34 59L34 57L36 57L36 56L37 56L37 55L36 55L36 54L35 54L35 52L37 52L37 54L38 54L38 56L39 56L39 54L40 54L40 53L41 53L41 55L40 55L40 57L39 57L39 58L38 58L38 57L37 57L37 58L38 58L38 59L39 59L39 58L40 58L40 61L39 61L39 62L40 62L40 65L39 65L39 64L38 64L38 65L39 65L39 66L40 66L40 67L38 67L38 68L40 68L40 67L41 67L41 66L40 66L40 65L41 65L41 63L42 63L42 62L40 62L40 61L44 61L44 60L45 60L45 61L46 61L46 59L44 59L44 58L42 58L42 59L41 59L41 58L40 58L40 57L44 57L44 56L45 56L45 55L46 55L46 54L47 54L47 56L49 56L49 58L50 58L50 59L49 59L49 62L50 62L50 63L48 63L48 64L49 64L49 66L50 66L50 65L51 65L51 64L52 64L52 66L53 66L53 64L54 64L54 65L55 65L55 66L56 66L56 65L55 65L55 62L56 62L56 63L58 63L58 64L57 64L57 65L58 65L58 66L57 66L57 67L56 67L56 68L57 68L57 67L58 67L58 66L59 66L59 63L60 63L60 59L61 59L61 57L60 57L60 52L59 52L59 51L60 51L60 50L59 50L59 49L60 49L60 48L59 48L59 49L58 49L58 50L57 50L57 49L56 49L56 48L58 48L58 47L55 47L55 49L56 49L56 50L53 50L53 51L52 51L52 49L54 49L54 48L53 48L53 47L54 47L54 45L56 45L56 46L57 46L57 45L58 45L58 46L59 46L59 45L62 45L62 43L61 43L61 42L60 42L60 39L61 39L61 40L63 40L63 39L64 39L64 38L65 38L65 37L61 37L61 38L60 38L60 39L58 39L58 38L59 38L59 37L60 37L60 36L59 36L59 35L60 35L60 33L58 33L58 34L56 34L56 36L55 36L55 34L52 34L52 33L51 33L51 30L50 30L50 29L49 29L49 30L47 30L47 29L48 29L48 27L49 27L49 26L47 26L47 25L48 25L48 23L47 23L47 22L48 22L48 21L47 21L47 20L46 20L46 19L47 19L47 17L46 17L46 16L45 16L45 17L46 17L46 18L45 18L45 19L44 19L44 18L41 18L41 17L42 17L42 16L41 16L41 15L43 15L43 17L44 17L44 15L43 15L43 14L44 14L44 13L43 13L43 11L41 11L41 12L40 12L40 13L39 13L39 14L40 14L40 17L39 17L39 18L38 18L38 16L39 16L39 15L38 15L38 13L37 13L37 10L38 10L38 6L37 6L37 10L36 10L36 9L35 9L35 11L36 11L36 14L35 14L35 13L34 13L34 11L33 11L33 10L34 10L34 9L32 9L32 6L31 6L31 5L30 5L30 6L29 6L29 7L28 7L28 6L27 6L27 7L28 7L28 8L30 8L30 6L31 6L31 9L26 9L26 8L25 8L25 9L24 9L24 8L22 8L22 6L23 6L23 7L24 7L24 6L25 6L25 7L26 7L26 6L25 6L25 5L22 5L22 3L21 3L21 2L20 2L20 1ZM41 1L41 2L40 2L40 3L41 3L41 4L40 4L40 5L39 5L39 7L40 7L40 6L41 6L41 7L42 7L42 6L41 6L41 4L43 4L43 2L42 2L42 1ZM52 1L52 2L54 2L54 3L53 3L53 4L52 4L52 3L51 3L51 4L52 4L52 5L51 5L51 7L52 7L52 10L53 10L53 7L54 7L54 5L53 5L53 4L54 4L54 3L56 3L56 5L57 5L57 3L56 3L56 2L54 2L54 1ZM35 2L35 3L36 3L36 2ZM41 2L41 3L42 3L42 2ZM20 3L20 5L18 5L18 7L19 7L19 8L16 8L16 9L15 9L15 8L14 8L14 12L15 12L15 15L16 15L16 18L15 18L15 19L14 19L14 17L15 17L15 16L14 16L14 13L13 13L13 12L9 12L9 13L7 13L7 14L8 14L8 16L9 16L9 18L10 18L10 19L8 19L8 21L7 21L7 20L6 20L6 21L7 21L7 22L6 22L6 23L7 23L7 24L4 24L4 25L7 25L7 26L6 26L6 27L7 27L7 26L8 26L8 27L9 27L9 28L10 28L10 29L11 29L11 28L10 28L10 27L11 27L11 26L10 26L10 27L9 27L9 26L8 26L8 25L7 25L7 24L8 24L8 23L7 23L7 22L9 22L9 25L10 25L10 23L11 23L11 25L12 25L12 26L14 26L14 27L16 27L16 26L18 26L18 28L17 28L17 31L16 31L16 32L17 32L17 31L18 31L18 30L19 30L19 31L20 31L20 33L19 33L19 32L18 32L18 33L17 33L17 34L16 34L16 33L15 33L15 32L14 32L14 31L15 31L15 30L16 30L16 28L14 28L14 29L15 29L15 30L13 30L13 31L12 31L12 32L13 32L13 33L12 33L12 34L11 34L11 36L10 36L10 37L9 37L9 38L12 38L12 40L15 40L15 41L16 41L16 40L17 40L17 42L16 42L16 43L14 43L14 42L13 42L13 41L11 41L11 42L8 42L8 40L11 40L11 39L8 39L8 40L6 40L6 41L7 41L7 42L8 42L8 43L11 43L11 44L10 44L10 45L9 45L9 44L8 44L8 45L9 45L9 46L10 46L10 45L11 45L11 44L13 44L13 45L12 45L12 46L13 46L13 45L14 45L14 44L17 44L17 45L19 45L19 44L20 44L20 48L19 48L19 46L18 46L18 47L17 47L17 48L16 48L16 49L18 49L18 48L19 48L19 49L21 49L21 50L22 50L22 41L21 41L21 39L22 39L22 40L23 40L23 39L24 39L24 41L23 41L23 43L24 43L24 45L23 45L23 48L24 48L24 47L26 47L26 45L31 45L31 44L30 44L30 43L29 43L29 44L28 44L28 42L26 42L26 43L25 43L25 42L24 42L24 41L34 41L34 43L33 43L33 44L32 44L32 45L34 45L34 46L35 46L35 47L34 47L34 48L33 48L33 46L32 46L32 47L31 47L31 46L30 46L30 47L31 47L31 48L29 48L29 47L28 47L28 46L27 46L27 48L25 48L25 49L23 49L23 50L26 50L26 53L27 53L27 54L28 54L28 53L31 53L31 52L32 52L32 53L33 53L33 54L34 54L34 52L35 52L35 49L38 49L38 50L39 50L39 51L37 51L37 52L38 52L38 54L39 54L39 51L40 51L40 50L41 50L41 51L42 51L42 50L43 50L43 52L44 52L44 53L45 53L45 54L46 54L46 52L47 52L47 53L50 53L50 54L51 54L51 53L52 53L52 54L53 54L53 53L54 53L54 55L53 55L53 57L52 57L52 55L51 55L51 57L50 57L50 58L51 58L51 57L52 57L52 58L53 58L53 59L52 59L52 60L51 60L51 59L50 59L50 62L51 62L51 61L52 61L52 62L53 62L53 63L52 63L52 64L53 64L53 63L54 63L54 62L55 62L55 60L54 60L54 59L55 59L55 56L54 56L54 55L56 55L56 58L57 58L57 60L56 60L56 62L57 62L57 61L58 61L58 60L59 60L59 59L60 59L60 57L59 57L59 55L58 55L58 51L57 51L57 52L56 52L56 53L55 53L55 52L54 52L54 51L53 51L53 53L52 53L52 51L51 51L51 49L52 49L52 48L50 48L50 49L49 49L49 47L53 47L53 45L52 45L52 44L54 44L54 43L55 43L55 44L56 44L56 45L57 45L57 44L58 44L58 45L59 45L59 44L58 44L58 43L55 43L55 41L54 41L54 40L53 40L53 41L54 41L54 43L53 43L53 42L52 42L52 44L50 44L50 46L49 46L49 47L48 47L48 46L46 46L46 44L47 44L47 45L49 45L49 44L47 44L47 43L46 43L46 44L44 44L44 45L45 45L45 46L46 46L46 48L44 48L44 47L42 47L42 46L43 46L43 40L42 40L42 41L40 41L40 39L43 39L43 38L44 38L44 37L48 37L48 38L49 38L49 40L48 40L48 39L47 39L47 42L49 42L49 43L50 43L50 42L51 42L51 41L52 41L52 39L51 39L51 38L52 38L52 36L53 36L53 35L52 35L52 34L51 34L51 33L50 33L50 32L47 32L47 30L46 30L46 29L47 29L47 26L46 26L46 25L47 25L47 23L46 23L46 21L45 21L45 20L44 20L44 21L43 21L43 20L42 20L42 21L41 21L41 22L42 22L42 23L40 23L40 22L39 22L39 21L38 21L38 20L39 20L39 19L41 19L41 18L39 18L39 19L38 19L38 18L37 18L37 15L36 15L36 16L35 16L35 15L34 15L34 16L35 16L35 17L33 17L33 16L32 16L32 13L33 13L33 12L32 12L32 11L31 11L31 10L29 10L29 11L28 11L28 10L26 10L26 9L25 9L25 10L24 10L24 9L23 9L23 10L22 10L22 9L21 9L21 6L20 6L20 5L21 5L21 3ZM26 3L26 4L27 4L27 3ZM45 3L45 5L46 5L46 3ZM60 3L60 5L61 5L61 3ZM33 5L33 8L36 8L36 5ZM11 6L11 7L12 7L12 6ZM14 6L14 7L15 7L15 6ZM16 6L16 7L17 7L17 6ZM19 6L19 7L20 7L20 6ZM34 6L34 7L35 7L35 6ZM47 6L47 8L45 8L45 9L46 9L46 10L44 10L44 11L46 11L46 12L45 12L45 13L46 13L46 14L45 14L45 15L46 15L46 14L48 14L48 15L47 15L47 16L49 16L49 13L47 13L47 11L46 11L46 10L47 10L47 8L49 8L49 7L50 7L50 6L49 6L49 7L48 7L48 6ZM52 6L52 7L53 7L53 6ZM55 6L55 7L56 7L56 6ZM57 6L57 7L58 7L58 10L56 10L56 11L58 11L58 14L59 14L59 15L58 15L58 16L57 16L57 14L56 14L56 13L55 13L55 12L54 12L54 13L55 13L55 14L56 14L56 16L55 16L55 15L54 15L54 14L53 14L53 16L52 16L52 15L51 15L51 16L50 16L50 17L51 17L51 21L52 21L52 22L53 22L53 21L55 21L55 20L54 20L54 19L55 19L55 18L53 18L53 19L52 19L52 17L56 17L56 19L57 19L57 20L58 20L58 22L56 22L56 23L55 23L55 22L54 22L54 23L52 23L52 25L51 25L51 26L52 26L52 25L53 25L53 24L54 24L54 25L55 25L55 26L56 26L56 23L57 23L57 24L58 24L58 26L59 26L59 25L60 25L60 24L61 24L61 25L63 25L63 24L62 24L62 21L63 21L63 19L64 19L64 17L63 17L63 19L62 19L62 15L63 15L63 14L62 14L62 13L63 13L63 12L64 12L64 11L65 11L65 10L64 10L64 11L63 11L63 12L62 12L62 13L61 13L61 11L58 11L58 10L59 10L59 7L58 7L58 6ZM0 8L0 13L2 13L2 11L1 11L1 10L2 10L2 8ZM19 8L19 10L20 10L20 8ZM55 8L55 9L56 9L56 8ZM16 9L16 10L15 10L15 11L16 11L16 12L18 12L18 11L16 11L16 10L17 10L17 9ZM49 9L49 10L50 10L50 11L51 11L51 12L50 12L50 13L51 13L51 14L52 14L52 13L53 13L53 12L52 12L52 11L51 11L51 10L50 10L50 9ZM21 10L21 11L19 11L19 13L21 13L21 12L22 12L22 13L23 13L23 12L24 12L24 11L22 11L22 10ZM25 10L25 11L26 11L26 12L27 12L27 13L25 13L25 14L26 14L26 16L27 16L27 17L25 17L25 15L24 15L24 14L22 14L22 15L20 15L20 14L19 14L19 15L20 15L20 16L22 16L22 18L21 18L21 17L19 17L19 16L18 16L18 17L17 17L17 18L16 18L16 19L15 19L15 20L14 20L14 19L12 19L12 18L13 18L13 17L14 17L14 16L12 16L12 18L11 18L11 16L10 16L10 15L11 15L11 13L10 13L10 14L9 14L9 16L10 16L10 18L11 18L11 19L10 19L10 20L13 20L13 21L17 21L17 20L18 20L18 19L20 19L20 18L21 18L21 20L22 20L22 21L21 21L21 23L20 23L20 24L19 24L19 22L20 22L20 21L18 21L18 22L17 22L17 24L13 24L13 22L12 22L12 24L13 24L13 25L14 25L14 26L15 26L15 25L17 25L17 24L19 24L19 25L18 25L18 26L19 26L19 25L21 25L21 26L20 26L20 27L21 27L21 26L22 26L22 27L24 27L24 28L25 28L25 29L26 29L26 27L27 27L27 25L28 25L28 26L30 26L30 25L29 25L29 24L31 24L31 23L32 23L32 24L34 24L34 25L32 25L32 26L31 26L31 27L29 27L29 28L31 28L31 29L30 29L30 30L29 30L29 29L27 29L27 30L25 30L25 31L28 31L28 32L30 32L30 31L31 31L31 29L33 29L33 30L32 30L32 32L33 32L33 30L34 30L34 31L35 31L35 32L37 32L37 34L38 34L38 35L37 35L37 37L35 37L35 38L34 38L34 39L35 39L35 40L34 40L34 41L35 41L35 43L34 43L34 45L35 45L35 43L36 43L36 45L37 45L37 47L35 47L35 48L34 48L34 49L33 49L33 48L32 48L32 50L31 50L31 51L29 51L29 52L31 52L31 51L32 51L32 52L33 52L33 50L34 50L34 49L35 49L35 48L37 48L37 47L38 47L38 48L39 48L39 47L40 47L40 46L41 46L41 45L42 45L42 44L41 44L41 43L42 43L42 42L38 42L38 41L39 41L39 38L38 38L38 35L39 35L39 34L38 34L38 32L39 32L39 33L44 33L44 34L43 34L43 36L41 36L41 34L40 34L40 38L41 38L41 37L44 37L44 34L45 34L45 35L46 35L46 36L47 36L47 35L46 35L46 34L47 34L47 33L46 33L46 32L45 32L45 33L44 33L44 30L43 30L43 31L41 31L41 29L44 29L44 28L46 28L46 27L45 27L45 26L44 26L44 24L45 24L45 23L44 23L44 24L40 24L40 23L38 23L38 21L37 21L37 18L35 18L35 19L36 19L36 21L37 21L37 22L35 22L35 21L34 21L34 19L33 19L33 18L32 18L32 21L33 21L33 22L34 22L34 23L32 23L32 22L31 22L31 21L30 21L30 22L31 22L31 23L28 23L28 22L29 22L29 21L28 21L28 22L26 22L26 19L29 19L29 20L31 20L31 19L29 19L29 16L31 16L31 15L29 15L29 13L28 13L28 11L26 11L26 10ZM39 10L39 11L38 11L38 12L39 12L39 11L40 11L40 10ZM54 10L54 11L55 11L55 10ZM29 11L29 12L30 12L30 11ZM48 11L48 12L49 12L49 11ZM31 12L31 13L30 13L30 14L31 14L31 13L32 13L32 12ZM41 12L41 13L40 13L40 14L43 14L43 13L42 13L42 12ZM51 12L51 13L52 13L52 12ZM59 12L59 14L61 14L61 13L60 13L60 12ZM17 13L17 15L18 15L18 13ZM27 13L27 15L28 15L28 16L29 16L29 15L28 15L28 13ZM12 14L12 15L13 15L13 14ZM22 15L22 16L23 16L23 18L24 18L24 20L23 20L23 19L22 19L22 20L23 20L23 22L25 22L25 19L26 19L26 18L25 18L25 17L24 17L24 16L23 16L23 15ZM59 15L59 16L58 16L58 17L57 17L57 16L56 16L56 17L57 17L57 19L58 19L58 20L59 20L59 19L60 19L60 18L61 18L61 16L60 16L60 15ZM51 16L51 17L52 17L52 16ZM66 16L66 17L67 17L67 16ZM68 16L68 17L69 17L69 16ZM6 17L6 18L7 18L7 17ZM18 17L18 18L19 18L19 17ZM27 17L27 18L28 18L28 17ZM48 17L48 19L49 19L49 17ZM58 17L58 18L59 18L59 17ZM61 19L61 21L59 21L59 22L60 22L60 23L58 23L58 24L60 24L60 23L61 23L61 21L62 21L62 19ZM9 21L9 22L11 22L11 21ZM49 21L49 25L50 25L50 23L51 23L51 22L50 22L50 21ZM15 22L15 23L16 23L16 22ZM21 23L21 25L24 25L24 26L25 26L25 27L26 27L26 25L27 25L27 24L28 24L28 23L27 23L27 24L26 24L26 23L25 23L25 24L22 24L22 23ZM34 23L34 24L36 24L36 26L37 26L37 28L38 28L38 29L34 29L34 30L37 30L37 32L38 32L38 31L40 31L40 28L41 28L41 27L40 27L40 24L38 24L38 23L37 23L37 24L36 24L36 23ZM54 23L54 24L55 24L55 23ZM25 24L25 25L26 25L26 24ZM34 25L34 26L32 26L32 27L31 27L31 28L32 28L32 27L34 27L34 28L35 28L35 25ZM37 25L37 26L38 26L38 25ZM41 25L41 26L43 26L43 25ZM66 25L66 26L67 26L67 29L69 29L69 27L68 27L68 26L69 26L69 25ZM39 27L39 28L40 28L40 27ZM62 27L62 28L64 28L64 29L65 29L65 27ZM19 28L19 30L20 30L20 31L22 31L22 30L23 30L23 32L22 32L22 33L21 33L21 34L20 34L20 35L19 35L19 34L17 34L17 35L16 35L16 39L17 39L17 36L18 36L18 35L19 35L19 36L22 36L22 38L24 38L24 39L25 39L25 38L26 38L26 35L27 35L27 36L28 36L28 38L30 38L30 37L29 37L29 36L30 36L30 35L31 35L31 39L28 39L28 40L31 40L31 39L32 39L32 40L33 40L33 38L32 38L32 35L31 35L31 34L32 34L32 33L27 33L27 34L25 34L25 36L24 36L24 37L23 37L23 35L24 35L24 34L23 34L23 33L26 33L26 32L24 32L24 30L23 30L23 28L22 28L22 29L21 29L21 30L20 30L20 28ZM56 29L56 30L57 30L57 29ZM28 30L28 31L29 31L29 30ZM49 30L49 31L50 31L50 30ZM3 32L3 33L4 33L4 32ZM5 33L5 36L8 36L8 33ZM13 33L13 35L12 35L12 38L14 38L14 36L13 36L13 35L15 35L15 33ZM33 33L33 36L36 36L36 33ZM45 33L45 34L46 34L46 33ZM48 33L48 36L49 36L49 34L50 34L50 35L51 35L51 36L50 36L50 37L51 37L51 36L52 36L52 35L51 35L51 34L50 34L50 33ZM61 33L61 36L64 36L64 33ZM0 34L0 35L2 35L2 34ZM6 34L6 35L7 35L7 34ZM28 34L28 36L29 36L29 35L30 35L30 34ZM34 34L34 35L35 35L35 34ZM58 34L58 35L57 35L57 36L56 36L56 37L55 37L55 36L54 36L54 37L53 37L53 38L55 38L55 40L56 40L56 41L57 41L57 42L58 42L58 39L57 39L57 38L58 38L58 37L59 37L59 36L58 36L58 35L59 35L59 34ZM62 34L62 35L63 35L63 34ZM1 36L1 37L2 37L2 36ZM57 36L57 37L56 37L56 38L57 38L57 37L58 37L58 36ZM4 37L4 38L5 38L5 37ZM19 37L19 38L20 38L20 39L21 39L21 38L20 38L20 37ZM24 37L24 38L25 38L25 37ZM35 38L35 39L37 39L37 38ZM61 38L61 39L62 39L62 38ZM18 39L18 40L19 40L19 39ZM26 39L26 40L27 40L27 39ZM44 39L44 41L45 41L45 42L44 42L44 43L45 43L45 42L46 42L46 39ZM50 39L50 40L51 40L51 39ZM56 39L56 40L57 40L57 39ZM0 40L0 41L1 41L1 40ZM36 40L36 43L38 43L38 42L37 42L37 41L38 41L38 40ZM66 40L66 42L64 42L64 43L67 43L67 40ZM68 40L68 41L69 41L69 40ZM19 41L19 42L17 42L17 43L18 43L18 44L19 44L19 42L20 42L20 44L21 44L21 42L20 42L20 41ZM49 41L49 42L50 42L50 41ZM59 42L59 43L60 43L60 44L61 44L61 43L60 43L60 42ZM2 43L2 44L3 44L3 45L4 45L4 46L5 46L5 44L4 44L4 43ZM13 43L13 44L14 44L14 43ZM26 43L26 44L25 44L25 45L26 45L26 44L27 44L27 43ZM39 43L39 44L38 44L38 46L39 46L39 45L40 45L40 43ZM68 43L68 44L69 44L69 43ZM62 46L62 48L61 48L61 49L62 49L62 51L61 51L61 52L62 52L62 53L61 53L61 54L62 54L62 55L64 55L64 54L65 54L65 52L67 52L67 51L65 51L65 52L64 52L64 50L63 50L63 46ZM3 47L3 49L4 49L4 47ZM9 47L9 48L10 48L10 47ZM41 47L41 48L40 48L40 49L42 49L42 47ZM47 47L47 49L46 49L46 51L44 51L44 52L46 52L46 51L47 51L47 52L51 52L51 51L49 51L49 49L48 49L48 47ZM27 48L27 51L28 51L28 50L29 50L29 49L28 49L28 48ZM43 48L43 49L44 49L44 50L45 50L45 49L44 49L44 48ZM47 50L47 51L48 51L48 50ZM16 51L16 52L17 52L17 51ZM62 51L62 52L63 52L63 51ZM27 52L27 53L28 53L28 52ZM41 52L41 53L42 53L42 55L41 55L41 56L43 56L43 55L44 55L44 54L43 54L43 53L42 53L42 52ZM15 53L15 54L12 54L12 55L13 55L13 56L12 56L12 58L13 58L13 56L15 56L15 57L14 57L14 58L15 58L15 57L17 57L17 56L18 56L18 55L19 55L19 56L20 56L20 53L19 53L19 54L18 54L18 53ZM56 53L56 55L57 55L57 57L58 57L58 58L59 58L59 57L58 57L58 55L57 55L57 53ZM62 53L62 54L64 54L64 53ZM16 54L16 56L17 56L17 55L18 55L18 54ZM6 55L6 56L7 56L7 55ZM31 55L31 56L29 56L29 57L31 57L31 58L32 58L32 57L31 57L31 56L32 56L32 55ZM35 55L35 56L36 56L36 55ZM49 55L49 56L50 56L50 55ZM33 56L33 57L34 57L34 56ZM6 57L6 58L7 58L7 57ZM46 57L46 58L47 58L47 57ZM66 57L66 58L67 58L67 57ZM35 59L35 60L37 60L37 63L38 63L38 60L37 60L37 59ZM42 59L42 60L44 60L44 59ZM47 59L47 61L48 61L48 59ZM3 60L3 61L5 61L5 60ZM9 60L9 62L10 62L10 61L11 61L11 60ZM20 60L20 62L21 62L21 61L22 61L22 60ZM52 60L52 61L54 61L54 60ZM27 61L27 63L28 63L28 62L29 62L29 61ZM31 61L31 63L32 63L32 61ZM33 61L33 64L36 64L36 61ZM61 61L61 64L64 64L64 61ZM22 62L22 63L23 63L23 64L24 64L24 63L23 63L23 62ZM34 62L34 63L35 63L35 62ZM62 62L62 63L63 63L63 62ZM13 63L13 64L15 64L15 63ZM19 64L19 65L20 65L20 64ZM68 64L68 65L67 65L67 66L69 66L69 64ZM13 65L13 66L14 66L14 65ZM34 65L34 68L37 68L37 67L35 67L35 66L36 66L36 65ZM23 66L23 67L25 67L25 66ZM63 66L63 67L62 67L62 68L63 68L63 67L64 67L64 66ZM17 67L17 69L20 69L20 68L18 68L18 67ZM30 68L30 69L31 69L31 68ZM42 68L42 69L43 69L43 68ZM65 68L65 69L67 69L67 68ZM68 68L68 69L69 69L69 68ZM0 0L0 7L7 7L7 0ZM1 1L1 6L6 6L6 1ZM2 2L2 5L5 5L5 2ZM62 0L62 7L69 7L69 0ZM63 1L63 6L68 6L68 1ZM64 2L64 5L67 5L67 2ZM0 62L0 69L7 69L7 62ZM1 63L1 68L6 68L6 63ZM2 64L2 67L5 67L5 64Z" fill="#000000"/></g></g></svg>
