<?xml version="1.0" encoding="UTF-8"?>
<svg xmlns="http://www.w3.org/2000/svg" version="1.1" width="300" height="300" viewBox="0 0 300 300"><rect x="0" y="0" width="300" height="300" fill="#ffffff"/><g transform="scale(4.348)"><g transform="translate(0,0)"><path fill-rule="evenodd" d="M10 0L10 1L8 1L8 2L10 2L10 3L8 3L8 4L9 4L9 5L8 5L8 7L9 7L9 8L6 8L6 9L5 9L5 8L0 8L0 9L3 9L3 10L4 10L4 12L2 12L2 11L1 11L1 10L0 10L0 11L1 11L1 12L0 12L0 13L1 13L1 14L0 14L0 15L2 15L2 13L3 13L3 15L5 15L5 13L7 13L7 14L6 14L6 15L7 15L7 16L5 16L5 17L4 17L4 16L3 16L3 17L2 17L2 16L0 16L0 18L1 18L1 19L2 19L2 20L1 20L1 23L0 23L0 25L1 25L1 26L0 26L0 29L1 29L1 30L2 30L2 33L1 33L1 32L0 32L0 34L3 34L3 36L2 36L2 37L3 37L3 38L1 38L1 36L0 36L0 38L1 38L1 41L3 41L3 40L4 40L4 39L5 39L5 40L6 40L6 41L7 41L7 42L5 42L5 43L7 43L7 42L8 42L8 41L13 41L13 40L14 40L14 39L16 39L16 38L14 38L14 37L17 37L17 38L18 38L18 39L17 39L17 40L18 40L18 41L17 41L17 43L18 43L18 44L17 44L17 45L19 45L19 46L20 46L20 47L21 47L21 48L23 48L23 50L26 50L26 51L24 51L24 53L23 53L23 54L22 54L22 55L20 55L20 53L19 53L19 52L22 52L22 51L21 51L21 50L22 50L22 49L18 49L18 48L17 48L17 47L18 47L18 46L14 46L14 45L15 45L15 44L16 44L16 43L15 43L15 44L14 44L14 42L16 42L16 41L14 41L14 42L12 42L12 43L10 43L10 42L9 42L9 43L10 43L10 44L9 44L9 45L11 45L11 46L8 46L8 45L7 45L7 44L6 44L6 45L4 45L4 44L2 44L2 43L1 43L1 44L0 44L0 46L1 46L1 45L2 45L2 46L3 46L3 45L4 45L4 46L5 46L5 47L7 47L7 48L6 48L6 49L5 49L5 48L4 48L4 47L3 47L3 48L2 48L2 49L1 49L1 47L0 47L0 49L1 49L1 50L2 50L2 53L3 53L3 51L4 51L4 52L5 52L5 51L7 51L7 52L6 52L6 53L7 53L7 54L6 54L6 55L7 55L7 56L3 56L3 57L1 57L1 56L0 56L0 57L1 57L1 58L0 58L0 61L1 61L1 58L2 58L2 59L3 59L3 57L4 57L4 59L8 59L8 63L9 63L9 64L8 64L8 69L11 69L11 66L12 66L12 65L13 65L13 64L12 64L12 63L14 63L14 65L15 65L15 66L16 66L16 67L14 67L14 66L13 66L13 67L12 67L12 68L13 68L13 69L15 69L15 68L16 68L16 69L17 69L17 68L18 68L18 69L19 69L19 67L20 67L20 66L19 66L19 65L20 65L20 64L21 64L21 63L20 63L20 60L22 60L22 59L21 59L21 58L22 58L22 57L24 57L24 58L23 58L23 59L24 59L24 60L25 60L25 61L21 61L21 62L22 62L22 64L25 64L25 65L23 65L23 66L21 66L21 68L20 68L20 69L21 69L21 68L23 68L23 66L25 66L25 67L24 67L24 69L26 69L26 67L28 67L28 68L27 68L27 69L28 69L28 68L29 68L29 69L32 69L32 68L30 68L30 67L35 67L35 68L36 68L36 69L38 69L38 68L37 68L37 67L39 67L39 68L41 68L41 69L44 69L44 68L47 68L47 69L49 69L49 68L50 68L50 69L51 69L51 68L50 68L50 67L52 67L52 66L50 66L50 65L49 65L49 64L48 64L48 63L47 63L47 62L50 62L50 60L52 60L52 59L53 59L53 60L54 60L54 61L53 61L53 62L52 62L52 61L51 61L51 63L50 63L50 64L51 64L51 63L53 63L53 62L56 62L56 63L54 63L54 64L55 64L55 65L53 65L53 66L54 66L54 67L53 67L53 68L54 68L54 69L56 69L56 68L57 68L57 69L58 69L58 68L59 68L59 69L60 69L60 68L61 68L61 69L64 69L64 68L61 68L61 65L64 65L64 66L65 66L65 69L68 69L68 68L67 68L67 67L66 67L66 66L67 66L67 65L66 65L66 66L65 66L65 64L69 64L69 63L67 63L67 62L69 62L69 61L67 61L67 59L68 59L68 60L69 60L69 59L68 59L68 58L69 58L69 56L68 56L68 55L66 55L66 54L69 54L69 53L66 53L66 52L68 52L68 50L69 50L69 49L66 49L66 50L64 50L64 51L66 51L66 52L65 52L65 55L62 55L62 54L61 54L61 53L62 53L62 52L63 52L63 53L64 53L64 52L63 52L63 51L62 51L62 50L63 50L63 49L65 49L65 48L67 48L67 47L68 47L68 45L67 45L67 43L68 43L68 44L69 44L69 43L68 43L68 42L67 42L67 40L68 40L68 36L69 36L69 35L68 35L68 34L69 34L69 33L68 33L68 34L67 34L67 35L65 35L65 34L66 34L66 32L67 32L67 31L68 31L68 32L69 32L69 31L68 31L68 30L69 30L69 29L68 29L68 28L69 28L69 27L68 27L68 26L67 26L67 24L68 24L68 25L69 25L69 24L68 24L68 22L69 22L69 21L68 21L68 18L69 18L69 15L68 15L68 14L69 14L69 13L68 13L68 12L69 12L69 11L68 11L68 10L69 10L69 9L68 9L68 8L67 8L67 9L68 9L68 10L67 10L67 11L65 11L65 10L64 10L64 11L65 11L65 12L67 12L67 13L68 13L68 14L65 14L65 16L66 16L66 18L65 18L65 17L63 17L63 18L62 18L62 16L64 16L64 15L63 15L63 14L64 14L64 13L63 13L63 11L61 11L61 10L62 10L62 8L61 8L61 6L60 6L60 7L59 7L59 4L58 4L58 3L59 3L59 2L57 2L57 4L56 4L56 1L57 1L57 0L52 0L52 1L50 1L50 0L49 0L49 1L50 1L50 2L49 2L49 3L48 3L48 2L47 2L47 1L45 1L45 0L44 0L44 1L45 1L45 2L44 2L44 3L43 3L43 0L39 0L39 1L38 1L38 0L35 0L35 1L34 1L34 2L35 2L35 3L33 3L33 2L32 2L32 0L30 0L30 1L29 1L29 0L28 0L28 1L27 1L27 2L28 2L28 3L27 3L27 4L26 4L26 3L25 3L25 2L26 2L26 1L25 1L25 0L21 0L21 3L17 3L17 2L15 2L15 3L13 3L13 4L11 4L11 3L12 3L12 2L13 2L13 1L12 1L12 0ZM14 0L14 1L15 1L15 0ZM17 0L17 1L19 1L19 2L20 2L20 1L19 1L19 0ZM58 0L58 1L61 1L61 0ZM11 1L11 2L12 2L12 1ZM22 1L22 2L23 2L23 1ZM24 1L24 2L25 2L25 1ZM30 1L30 2L31 2L31 3L32 3L32 4L33 4L33 3L32 3L32 2L31 2L31 1ZM37 1L37 3L38 3L38 4L37 4L37 5L38 5L38 6L37 6L37 7L38 7L38 10L36 10L36 9L32 9L32 5L30 5L30 6L29 6L29 3L28 3L28 4L27 4L27 5L26 5L26 4L25 4L25 5L24 5L24 6L23 6L23 5L22 5L22 6L21 6L21 7L20 7L20 6L19 6L19 4L17 4L17 3L15 3L15 4L14 4L14 6L13 6L13 7L12 7L12 5L11 5L11 4L10 4L10 5L9 5L9 7L10 7L10 9L9 9L9 10L8 10L8 9L6 9L6 10L5 10L5 9L4 9L4 10L5 10L5 11L6 11L6 12L8 12L8 13L10 13L10 11L11 11L11 14L12 14L12 11L13 11L13 15L11 15L11 16L15 16L15 17L12 17L12 18L13 18L13 19L11 19L11 18L10 18L10 14L9 14L9 16L7 16L7 17L5 17L5 18L4 18L4 17L3 17L3 18L4 18L4 19L3 19L3 20L2 20L2 21L4 21L4 20L7 20L7 21L5 21L5 29L4 29L4 30L5 30L5 31L4 31L4 32L3 32L3 33L4 33L4 32L7 32L7 31L10 31L10 32L11 32L11 34L10 34L10 35L11 35L11 36L10 36L10 37L12 37L12 38L13 38L13 39L12 39L12 40L13 40L13 39L14 39L14 38L13 38L13 37L14 37L14 34L16 34L16 35L15 35L15 36L17 36L17 35L18 35L18 36L21 36L21 37L20 37L20 38L19 38L19 39L18 39L18 40L19 40L19 39L20 39L20 38L22 38L22 39L21 39L21 40L20 40L20 42L19 42L19 41L18 41L18 42L19 42L19 43L21 43L21 44L20 44L20 46L22 46L22 47L23 47L23 48L25 48L25 49L26 49L26 50L27 50L27 51L26 51L26 53L25 53L25 54L29 54L29 55L27 55L27 56L26 56L26 55L25 55L25 57L27 57L27 58L26 58L26 59L25 59L25 60L26 60L26 61L25 61L25 62L23 62L23 63L25 63L25 64L26 64L26 63L25 63L25 62L27 62L27 61L28 61L28 63L27 63L27 64L28 64L28 65L25 65L25 66L28 66L28 65L30 65L30 66L32 66L32 65L30 65L30 64L28 64L28 63L30 63L30 61L28 61L28 60L29 60L29 59L28 59L28 60L27 60L27 58L29 58L29 57L30 57L30 56L29 56L29 55L30 55L30 53L27 53L27 51L28 51L28 52L31 52L31 56L32 56L32 52L31 52L31 51L33 51L33 52L34 52L34 53L33 53L33 58L32 58L32 57L31 57L31 59L34 59L34 60L36 60L36 59L37 59L37 61L38 61L38 63L37 63L37 64L38 64L38 65L37 65L37 66L36 66L36 67L37 67L37 66L39 66L39 67L40 67L40 66L41 66L41 67L42 67L42 68L44 68L44 66L45 66L45 67L46 67L46 66L47 66L47 68L48 68L48 66L49 66L49 67L50 67L50 66L49 66L49 65L47 65L47 63L46 63L46 62L47 62L47 60L49 60L49 59L48 59L48 58L51 58L51 57L52 57L52 58L53 58L53 59L54 59L54 60L56 60L56 62L59 62L59 63L58 63L58 64L60 64L60 60L65 60L65 61L66 61L66 60L65 60L65 56L66 56L66 59L67 59L67 58L68 58L68 57L67 57L67 56L66 56L66 55L65 55L65 56L64 56L64 57L62 57L62 59L61 59L61 57L60 57L60 56L62 56L62 55L60 55L60 54L59 54L59 53L60 53L60 52L59 52L59 50L60 50L60 51L61 51L61 52L62 52L62 51L61 51L61 50L62 50L62 49L63 49L63 48L65 48L65 47L66 47L66 44L65 44L65 45L62 45L62 43L63 43L63 44L64 44L64 43L65 43L65 41L64 41L64 40L62 40L62 39L67 39L67 38L66 38L66 37L64 37L64 38L62 38L62 39L60 39L60 38L61 38L61 37L57 37L57 36L58 36L58 35L56 35L56 38L55 38L55 39L56 39L56 38L57 38L57 40L54 40L54 41L55 41L55 43L57 43L57 44L56 44L56 45L55 45L55 46L53 46L53 48L52 48L52 47L50 47L50 46L51 46L51 45L53 45L53 44L54 44L54 43L51 43L51 40L52 40L52 42L53 42L53 40L52 40L52 39L53 39L53 35L52 35L52 36L51 36L51 34L53 34L53 32L54 32L54 33L55 33L55 34L54 34L54 36L55 36L55 34L60 34L60 33L57 33L57 32L58 32L58 31L59 31L59 32L62 32L62 31L63 31L63 32L64 32L64 30L65 30L65 31L67 31L67 30L68 30L68 29L67 29L67 28L68 28L68 27L67 27L67 26L66 26L66 25L65 25L65 24L63 24L63 21L65 21L65 22L64 22L64 23L66 23L66 22L68 22L68 21L67 21L67 20L65 20L65 18L63 18L63 19L62 19L62 18L59 18L59 17L61 17L61 16L62 16L62 14L63 14L63 13L62 13L62 12L60 12L60 11L59 11L59 9L60 9L60 8L59 8L59 7L58 7L58 4L57 4L57 5L56 5L56 6L55 6L55 7L56 7L56 10L53 10L53 11L52 11L52 12L51 12L51 13L50 13L50 14L47 14L47 13L45 13L45 12L44 12L44 13L43 13L43 11L47 11L47 12L49 12L49 10L51 10L51 9L55 9L55 8L52 8L52 6L53 6L53 7L54 7L54 6L53 6L53 4L55 4L55 3L54 3L54 1L52 1L52 3L51 3L51 2L50 2L50 3L49 3L49 4L47 4L47 2L45 2L45 3L44 3L44 5L43 5L43 7L42 7L42 6L41 6L41 5L40 5L40 6L39 6L39 4L41 4L41 3L42 3L42 4L43 4L43 3L42 3L42 1L41 1L41 2L40 2L40 3L39 3L39 2L38 2L38 1ZM21 3L21 4L20 4L20 5L21 5L21 4L24 4L24 3ZM35 3L35 4L36 4L36 3ZM45 3L45 4L46 4L46 3ZM50 3L50 4L49 4L49 6L48 6L48 7L47 7L47 6L46 6L46 5L44 5L44 7L45 7L45 9L44 9L44 8L43 8L43 9L39 9L39 10L40 10L40 11L37 11L37 14L35 14L35 15L36 15L36 16L35 16L35 19L36 19L36 20L35 20L35 26L34 26L34 24L32 24L32 23L31 23L31 22L34 22L34 20L33 20L33 21L32 21L32 20L29 20L29 21L31 21L31 22L30 22L30 23L29 23L29 22L27 22L27 25L26 25L26 23L25 23L25 21L26 21L26 20L28 20L28 19L27 19L27 18L28 18L28 17L27 17L27 18L26 18L26 17L24 17L24 16L26 16L26 15L24 15L24 14L27 14L27 15L28 15L28 16L29 16L29 19L34 19L34 18L33 18L33 16L34 16L34 15L33 15L33 14L34 14L34 13L36 13L36 12L34 12L34 11L36 11L36 10L34 10L34 11L33 11L33 12L34 12L34 13L33 13L33 14L32 14L32 15L30 15L30 13L32 13L32 12L31 12L31 11L32 11L32 9L30 9L30 8L29 8L29 9L30 9L30 10L27 10L27 9L26 9L26 8L24 8L24 7L25 7L25 6L26 6L26 7L27 7L27 6L28 6L28 7L29 7L29 6L28 6L28 5L27 5L27 6L26 6L26 5L25 5L25 6L24 6L24 7L23 7L23 6L22 6L22 7L23 7L23 8L24 8L24 9L23 9L23 10L24 10L24 9L26 9L26 10L25 10L25 12L24 12L24 11L22 11L22 10L20 10L20 9L19 9L19 8L20 8L20 7L19 7L19 6L18 6L18 5L17 5L17 4L15 4L15 6L14 6L14 7L15 7L15 6L16 6L16 8L17 8L17 9L14 9L14 11L15 11L15 13L14 13L14 15L15 15L15 16L17 16L17 17L18 17L18 18L20 18L20 19L18 19L18 20L17 20L17 18L16 18L16 19L15 19L15 18L14 18L14 20L12 20L12 21L13 21L13 23L15 23L15 21L14 21L14 20L16 20L16 21L17 21L17 22L16 22L16 23L17 23L17 22L18 22L18 21L19 21L19 22L20 22L20 24L17 24L17 25L16 25L16 24L15 24L15 25L14 25L14 26L15 26L15 27L16 27L16 28L15 28L15 29L16 29L16 28L17 28L17 30L18 30L18 31L17 31L17 32L18 32L18 33L17 33L17 34L18 34L18 35L20 35L20 34L19 34L19 33L20 33L20 32L22 32L22 31L20 31L20 32L19 32L19 30L20 30L20 29L21 29L21 30L25 30L25 31L26 31L26 32L23 32L23 34L22 34L22 33L21 33L21 34L22 34L22 35L23 35L23 37L24 37L24 38L26 38L26 40L25 40L25 39L23 39L23 40L24 40L24 41L23 41L23 42L22 42L22 43L23 43L23 46L24 46L24 47L25 47L25 48L26 48L26 47L25 47L25 46L26 46L26 44L28 44L28 45L29 45L29 46L28 46L28 47L27 47L27 48L28 48L28 47L29 47L29 46L30 46L30 47L31 47L31 41L30 41L30 40L29 40L29 39L30 39L30 38L32 38L32 39L31 39L31 40L32 40L32 39L33 39L33 38L34 38L34 39L35 39L35 40L37 40L37 41L34 41L34 42L35 42L35 43L34 43L34 44L35 44L35 45L34 45L34 47L35 47L35 48L36 48L36 47L37 47L37 50L36 50L36 49L35 49L35 50L36 50L36 51L35 51L35 54L36 54L36 55L34 55L34 56L37 56L37 58L38 58L38 60L39 60L39 62L40 62L40 59L41 59L41 58L42 58L42 60L41 60L41 62L42 62L42 63L43 63L43 61L44 61L44 60L43 60L43 57L44 57L44 56L46 56L46 57L47 57L47 58L48 58L48 57L50 57L50 56L53 56L53 54L55 54L55 53L56 53L56 52L55 52L55 49L56 49L56 51L58 51L58 50L57 50L57 49L58 49L58 48L60 48L60 47L61 47L61 49L60 49L60 50L61 50L61 49L62 49L62 45L61 45L61 43L62 43L62 42L64 42L64 41L62 41L62 40L61 40L61 41L60 41L60 42L61 42L61 43L59 43L59 44L60 44L60 45L61 45L61 46L60 46L60 47L58 47L58 46L57 46L57 45L58 45L58 44L57 44L57 45L56 45L56 46L55 46L55 47L56 47L56 48L54 48L54 49L51 49L51 48L50 48L50 49L49 49L49 48L47 48L47 49L48 49L48 50L49 50L49 51L48 51L48 52L47 52L47 51L46 51L46 52L45 52L45 49L46 49L46 46L45 46L45 45L44 45L44 44L45 44L45 42L44 42L44 40L41 40L41 39L40 39L40 37L39 37L39 40L41 40L41 41L40 41L40 43L38 43L38 38L37 38L37 39L35 39L35 38L36 38L36 37L38 37L38 36L37 36L37 35L38 35L38 33L39 33L39 32L43 32L43 33L40 33L40 36L41 36L41 38L42 38L42 39L45 39L45 40L47 40L47 41L48 41L48 42L46 42L46 43L47 43L47 46L50 46L50 45L51 45L51 43L50 43L50 40L51 40L51 39L50 39L50 35L48 35L48 36L45 36L45 33L44 33L44 32L46 32L46 33L47 33L47 34L50 34L50 32L49 32L49 30L50 30L50 29L49 29L49 28L50 28L50 27L49 27L49 26L50 26L50 24L51 24L51 23L53 23L53 24L54 24L54 25L52 25L52 26L51 26L51 28L53 28L53 27L52 27L52 26L54 26L54 28L55 28L55 29L51 29L51 31L52 31L52 32L53 32L53 31L54 31L54 32L55 32L55 33L56 33L56 32L57 32L57 29L56 29L56 28L59 28L59 27L56 27L56 28L55 28L55 24L57 24L57 25L58 25L58 24L59 24L59 25L60 25L60 26L62 26L62 25L63 25L63 27L62 27L62 29L61 29L61 27L60 27L60 29L59 29L59 30L61 30L61 31L62 31L62 29L63 29L63 27L64 27L64 28L65 28L65 29L66 29L66 28L67 28L67 27L66 27L66 26L65 26L65 25L63 25L63 24L62 24L62 21L63 21L63 20L64 20L64 19L63 19L63 20L62 20L62 19L60 19L60 20L59 20L59 19L58 19L58 18L56 18L56 14L57 14L57 13L51 13L51 15L52 15L52 16L51 16L51 17L52 17L52 18L49 18L49 16L50 16L50 15L49 15L49 16L48 16L48 15L47 15L47 18L46 18L46 16L45 16L45 15L44 15L44 14L43 14L43 13L42 13L42 14L41 14L41 12L42 12L42 10L45 10L45 9L46 9L46 7L47 7L47 10L49 10L49 9L50 9L50 8L51 8L51 6L52 6L52 4L51 4L51 3ZM60 3L60 5L61 5L61 3ZM50 4L50 5L51 5L51 4ZM33 5L33 8L36 8L36 5ZM10 6L10 7L11 7L11 8L12 8L12 9L11 9L11 10L12 10L12 9L13 9L13 8L12 8L12 7L11 7L11 6ZM17 6L17 8L19 8L19 7L18 7L18 6ZM30 6L30 7L31 7L31 6ZM34 6L34 7L35 7L35 6ZM38 6L38 7L39 7L39 8L40 8L40 7L41 7L41 6L40 6L40 7L39 7L39 6ZM45 6L45 7L46 7L46 6ZM49 6L49 8L50 8L50 6ZM56 6L56 7L57 7L57 6ZM21 8L21 9L22 9L22 8ZM57 8L57 9L58 9L58 8ZM63 8L63 9L64 9L64 8ZM65 8L65 9L66 9L66 8ZM17 9L17 11L16 11L16 12L17 12L17 11L19 11L19 12L22 12L22 13L20 13L20 14L22 14L22 15L19 15L19 14L18 14L18 13L16 13L16 15L17 15L17 16L18 16L18 17L22 17L22 18L23 18L23 16L22 16L22 15L23 15L23 14L22 14L22 13L23 13L23 12L22 12L22 11L19 11L19 9ZM6 10L6 11L8 11L8 12L9 12L9 11L10 11L10 10L9 10L9 11L8 11L8 10ZM56 10L56 11L54 11L54 12L57 12L57 11L58 11L58 10ZM26 11L26 13L27 13L27 14L29 14L29 13L30 13L30 12L29 12L29 13L27 13L27 11ZM40 11L40 12L39 12L39 13L38 13L38 14L37 14L37 15L40 15L40 16L37 16L37 17L38 17L38 18L37 18L37 19L39 19L39 21L40 21L40 24L39 24L39 25L38 25L38 23L39 23L39 22L37 22L37 25L38 25L38 26L37 26L37 29L38 29L38 31L39 31L39 30L40 30L40 31L43 31L43 32L44 32L44 31L43 31L43 30L44 30L44 29L45 29L45 30L46 30L46 32L48 32L48 31L47 31L47 29L45 29L45 28L49 28L49 27L47 27L47 25L48 25L48 24L50 24L50 22L53 22L53 23L57 23L57 22L58 22L58 23L59 23L59 24L60 24L60 25L62 25L62 24L60 24L60 23L59 23L59 20L57 20L57 19L56 19L56 22L53 22L53 21L55 21L55 18L54 18L54 19L53 19L53 18L52 18L52 19L50 19L50 20L49 20L49 21L50 21L50 22L48 22L48 21L46 21L46 20L47 20L47 19L46 19L46 18L45 18L45 16L44 16L44 15L43 15L43 14L42 14L42 15L40 15L40 14L39 14L39 13L40 13L40 12L41 12L41 11ZM67 11L67 12L68 12L68 11ZM4 12L4 13L5 13L5 12ZM58 12L58 13L59 13L59 15L61 15L61 14L62 14L62 13L60 13L60 12ZM17 14L17 15L18 15L18 14ZM54 14L54 15L55 15L55 14ZM29 15L29 16L30 16L30 15ZM32 15L32 16L31 16L31 18L32 18L32 16L33 16L33 15ZM42 16L42 17L41 17L41 18L39 18L39 19L40 19L40 20L41 20L41 22L42 22L42 23L41 23L41 24L42 24L42 25L41 25L41 26L39 26L39 27L38 27L38 28L39 28L39 29L40 29L40 28L39 28L39 27L42 27L42 30L43 30L43 29L44 29L44 28L45 28L45 27L46 27L46 26L43 26L43 25L44 25L44 24L43 24L43 22L44 22L44 23L45 23L45 24L46 24L46 25L47 25L47 24L48 24L48 23L47 23L47 24L46 24L46 22L44 22L44 20L43 20L43 17L44 17L44 16ZM52 16L52 17L53 17L53 16ZM58 16L58 17L59 17L59 16ZM1 17L1 18L2 18L2 17ZM5 18L5 19L8 19L8 20L9 20L9 21L8 21L8 24L6 24L6 25L7 25L7 26L6 26L6 27L7 27L7 26L9 26L9 25L10 25L10 23L9 23L9 21L10 21L10 22L11 22L11 21L10 21L10 20L9 20L9 19L10 19L10 18L9 18L9 19L8 19L8 18ZM25 18L25 20L26 20L26 18ZM44 18L44 19L45 19L45 18ZM48 18L48 19L49 19L49 18ZM21 19L21 21L20 21L20 20L19 20L19 21L20 21L20 22L21 22L21 23L22 23L22 22L23 22L23 21L24 21L24 19ZM52 19L52 20L51 20L51 21L52 21L52 20L53 20L53 19ZM36 20L36 21L38 21L38 20ZM42 20L42 21L43 21L43 20ZM21 21L21 22L22 22L22 21ZM2 22L2 23L1 23L1 25L2 25L2 27L1 27L1 28L2 28L2 29L3 29L3 25L4 25L4 24L3 24L3 25L2 25L2 23L4 23L4 22ZM6 22L6 23L7 23L7 22ZM11 23L11 26L10 26L10 27L11 27L11 26L12 26L12 28L13 28L13 29L14 29L14 28L13 28L13 26L12 26L12 25L13 25L13 24L12 24L12 23ZM21 24L21 25L17 25L17 26L18 26L18 28L19 28L19 29L20 29L20 26L21 26L21 25L22 25L22 26L24 26L24 25L22 25L22 24ZM28 24L28 25L27 25L27 28L26 28L26 25L25 25L25 28L26 28L26 30L28 30L28 33L25 33L25 34L23 34L23 35L25 35L25 36L24 36L24 37L25 37L25 36L26 36L26 38L28 38L28 39L29 39L29 38L30 38L30 37L29 37L29 36L28 36L28 35L27 35L27 34L28 34L28 33L30 33L30 35L32 35L32 32L34 32L34 31L33 31L33 30L34 30L34 29L36 29L36 28L35 28L35 27L36 27L36 26L35 26L35 27L34 27L34 26L33 26L33 25L32 25L32 24L31 24L31 25L32 25L32 26L31 26L31 27L33 27L33 28L34 28L34 29L33 29L33 30L32 30L32 32L31 32L31 31L30 31L30 30L31 30L31 29L32 29L32 28L31 28L31 29L30 29L30 26L29 26L29 25L30 25L30 24ZM15 25L15 26L16 26L16 25ZM64 26L64 27L65 27L65 26ZM21 27L21 29L23 29L23 28L24 28L24 27ZM28 27L28 28L27 28L27 29L29 29L29 30L30 30L30 29L29 29L29 27ZM43 27L43 28L44 28L44 27ZM6 28L6 29L8 29L8 28ZM9 28L9 29L10 29L10 31L11 31L11 28ZM48 29L48 30L49 30L49 29ZM55 29L55 32L56 32L56 29ZM6 30L6 31L7 31L7 30ZM12 30L12 31L14 31L14 32L12 32L12 33L16 33L16 32L15 32L15 31L16 31L16 30L15 30L15 31L14 31L14 30ZM29 31L29 32L30 32L30 33L31 33L31 32L30 32L30 31ZM35 31L35 32L37 32L37 33L38 33L38 32L37 32L37 31ZM5 33L5 36L8 36L8 33ZM33 33L33 36L36 36L36 33ZM43 33L43 34L41 34L41 35L43 35L43 36L42 36L42 37L43 37L43 36L44 36L44 37L45 37L45 38L47 38L47 37L45 37L45 36L44 36L44 33ZM61 33L61 36L64 36L64 33ZM6 34L6 35L7 35L7 34ZM34 34L34 35L35 35L35 34ZM62 34L62 35L63 35L63 34ZM26 35L26 36L27 36L27 35ZM59 35L59 36L60 36L60 35ZM67 35L67 36L68 36L68 35ZM3 36L3 37L4 37L4 38L7 38L7 37L4 37L4 36ZM12 36L12 37L13 37L13 36ZM31 36L31 37L32 37L32 36ZM8 37L8 38L9 38L9 39L10 39L10 38L9 38L9 37ZM34 37L34 38L35 38L35 37ZM48 37L48 39L47 39L47 40L48 40L48 39L49 39L49 37ZM51 37L51 38L52 38L52 37ZM2 39L2 40L3 40L3 39ZM6 39L6 40L7 40L7 41L8 41L8 39ZM59 39L59 40L57 40L57 41L56 41L56 42L57 42L57 43L58 43L58 42L57 42L57 41L59 41L59 40L60 40L60 39ZM21 40L21 41L22 41L22 40ZM26 40L26 41L24 41L24 42L23 42L23 43L24 43L24 44L26 44L26 42L29 42L29 43L30 43L30 41L27 41L27 40ZM32 41L32 45L33 45L33 41ZM61 41L61 42L62 42L62 41ZM3 42L3 43L4 43L4 42ZM36 42L36 43L35 43L35 44L36 44L36 43L37 43L37 45L35 45L35 47L36 47L36 46L37 46L37 47L38 47L38 48L39 48L39 49L38 49L38 50L37 50L37 51L39 51L39 52L40 52L40 53L39 53L39 54L37 54L37 55L38 55L38 56L39 56L39 57L38 57L38 58L39 58L39 57L41 57L41 56L39 56L39 54L40 54L40 55L42 55L42 54L41 54L41 53L43 53L43 56L42 56L42 57L43 57L43 56L44 56L44 53L45 53L45 54L46 54L46 56L50 56L50 55L51 55L51 53L55 53L55 52L54 52L54 51L53 51L53 50L51 50L51 49L50 49L50 52L51 52L51 53L50 53L50 54L49 54L49 53L48 53L48 54L49 54L49 55L47 55L47 53L45 53L45 52L44 52L44 51L43 51L43 52L40 52L40 51L39 51L39 50L41 50L41 51L42 51L42 50L41 50L41 49L42 49L42 48L43 48L43 46L44 46L44 45L43 45L43 46L42 46L42 45L41 45L41 46L42 46L42 48L41 48L41 47L40 47L40 46L39 46L39 45L40 45L40 44L41 44L41 43L40 43L40 44L39 44L39 45L38 45L38 43L37 43L37 42ZM43 42L43 44L44 44L44 42ZM48 42L48 44L49 44L49 45L50 45L50 43L49 43L49 42ZM66 42L66 43L67 43L67 42ZM12 43L12 44L13 44L13 45L12 45L12 46L13 46L13 45L14 45L14 44L13 44L13 43ZM6 45L6 46L7 46L7 45ZM37 45L37 46L38 46L38 47L39 47L39 48L40 48L40 47L39 47L39 46L38 46L38 45ZM32 46L32 47L33 47L33 46ZM63 46L63 47L64 47L64 46ZM10 47L10 49L9 49L9 48L7 48L7 49L6 49L6 50L7 50L7 49L9 49L9 50L11 50L11 51L10 51L10 53L11 53L11 54L10 54L10 55L9 55L9 54L8 54L8 55L9 55L9 56L8 56L8 57L5 57L5 58L8 58L8 59L9 59L9 56L10 56L10 55L14 55L14 56L13 56L13 57L12 57L12 58L10 58L10 59L11 59L11 60L13 60L13 59L15 59L15 60L16 60L16 61L14 61L14 63L16 63L16 62L17 62L17 63L18 63L18 62L19 62L19 61L17 61L17 60L18 60L18 59L19 59L19 60L20 60L20 58L21 58L21 57L22 57L22 56L21 56L21 57L20 57L20 55L19 55L19 57L17 57L17 56L16 56L16 57L14 57L14 56L15 56L15 55L18 55L18 54L19 54L19 53L17 53L17 51L16 51L16 50L18 50L18 49L15 49L15 48L16 48L16 47L15 47L15 48L14 48L14 47L12 47L12 48L11 48L11 47ZM44 47L44 49L43 49L43 50L44 50L44 49L45 49L45 47ZM57 47L57 48L56 48L56 49L57 49L57 48L58 48L58 47ZM12 48L12 49L11 49L11 50L13 50L13 51L14 51L14 50L15 50L15 49L13 49L13 48ZM29 48L29 51L30 51L30 50L33 50L33 51L34 51L34 50L33 50L33 49L31 49L31 48ZM2 49L2 50L3 50L3 49ZM27 49L27 50L28 50L28 49ZM19 50L19 51L20 51L20 50ZM11 51L11 53L12 53L12 54L13 54L13 52L12 52L12 51ZM15 51L15 52L14 52L14 53L15 53L15 52L16 52L16 51ZM51 51L51 52L52 52L52 51ZM0 52L0 53L1 53L1 52ZM8 52L8 53L9 53L9 52ZM37 52L37 53L38 53L38 52ZM43 52L43 53L44 53L44 52ZM58 52L58 53L59 53L59 52ZM4 53L4 54L5 54L5 53ZM0 54L0 55L2 55L2 54ZM56 54L56 55L55 55L55 57L53 57L53 58L55 58L55 59L58 59L58 60L57 60L57 61L59 61L59 59L60 59L60 57L59 57L59 56L60 56L60 55L59 55L59 54ZM56 55L56 58L59 58L59 57L58 57L58 56L57 56L57 55ZM16 57L16 58L15 58L15 59L16 59L16 60L17 60L17 57ZM19 57L19 58L20 58L20 57ZM12 58L12 59L13 59L13 58ZM35 58L35 59L36 59L36 58ZM45 58L45 60L47 60L47 59L46 59L46 58ZM63 58L63 59L64 59L64 58ZM3 60L3 61L5 61L5 60ZM6 60L6 61L7 61L7 60ZM31 60L31 63L32 63L32 60ZM42 60L42 61L43 61L43 60ZM9 61L9 63L10 63L10 64L9 64L9 65L10 65L10 66L11 66L11 65L10 65L10 64L11 64L11 63L10 63L10 62L12 62L12 61ZM33 61L33 64L36 64L36 61ZM61 61L61 64L64 64L64 61ZM34 62L34 63L35 63L35 62ZM44 62L44 64L41 64L41 63L38 63L38 64L41 64L41 66L44 66L44 64L45 64L45 66L46 66L46 64L45 64L45 62ZM62 62L62 63L63 63L63 62ZM65 62L65 63L66 63L66 62ZM15 64L15 65L16 65L16 66L17 66L17 67L16 67L16 68L17 68L17 67L19 67L19 66L17 66L17 65L18 65L18 64L17 64L17 65L16 65L16 64ZM56 64L56 65L57 65L57 66L55 66L55 67L54 67L54 68L56 68L56 67L57 67L57 68L58 68L58 67L59 67L59 65L57 65L57 64ZM33 65L33 66L35 66L35 65ZM57 66L57 67L58 67L58 66ZM62 66L62 67L63 67L63 66ZM13 67L13 68L14 68L14 67ZM33 68L33 69L34 69L34 68ZM0 0L0 7L7 7L7 0ZM1 1L1 6L6 6L6 1ZM2 2L2 5L5 5L5 2ZM62 0L62 7L69 7L69 0ZM63 1L63 6L68 6L68 1ZM64 2L64 5L67 5L67 2ZM0 62L0 69L7 69L7 62ZM1 63L1 68L6 68L6 63ZM2 64L2 67L5 67L5 64Z" fill="#000000"/></g></g></svg>
