<?xml version="1.0" encoding="UTF-8"?>
<svg xmlns="http://www.w3.org/2000/svg" version="1.1" width="300" height="300" viewBox="0 0 300 300"><rect x="0" y="0" width="300" height="300" fill="#ffffff"/><g transform="scale(4.348)"><g transform="translate(0,0)"><path fill-rule="evenodd" d="M8 0L8 4L10 4L10 5L12 5L12 7L11 7L11 6L10 6L10 8L9 8L9 10L10 10L10 11L8 11L8 9L7 9L7 8L4 8L4 9L3 9L3 10L4 10L4 9L5 9L5 11L3 11L3 12L2 12L2 11L1 11L1 10L0 10L0 11L1 11L1 12L2 12L2 15L4 15L4 14L3 14L3 13L5 13L5 16L4 16L4 18L3 18L3 16L1 16L1 15L0 15L0 17L1 17L1 18L0 18L0 20L1 20L1 19L2 19L2 20L3 20L3 21L0 21L0 23L1 23L1 24L0 24L0 26L1 26L1 27L0 27L0 30L1 30L1 29L2 29L2 27L3 27L3 28L4 28L4 29L5 29L5 30L4 30L4 31L3 31L3 30L2 30L2 31L0 31L0 34L1 34L1 33L2 33L2 32L4 32L4 33L3 33L3 34L2 34L2 35L1 35L1 36L2 36L2 35L3 35L3 34L4 34L4 36L3 36L3 37L2 37L2 38L1 38L1 37L0 37L0 41L1 41L1 43L0 43L0 49L1 49L1 50L0 50L0 53L1 53L1 54L0 54L0 56L2 56L2 57L0 57L0 61L1 61L1 58L2 58L2 59L3 59L3 58L4 58L4 59L7 59L7 58L8 58L8 60L6 60L6 61L8 61L8 62L9 62L9 61L13 61L13 62L14 62L14 63L13 63L13 64L12 64L12 66L11 66L11 65L10 65L10 63L8 63L8 65L10 65L10 68L11 68L11 67L12 67L12 69L13 69L13 68L14 68L14 69L20 69L20 68L19 68L19 67L20 67L20 66L21 66L21 69L22 69L22 67L23 67L23 68L24 68L24 69L25 69L25 67L26 67L26 69L27 69L27 67L28 67L28 66L29 66L29 69L31 69L31 68L32 68L32 69L33 69L33 68L34 68L34 69L35 69L35 67L36 67L36 65L38 65L38 67L39 67L39 66L40 66L40 63L41 63L41 67L40 67L40 68L38 68L38 69L40 69L40 68L41 68L41 69L42 69L42 67L43 67L43 63L42 63L42 62L43 62L43 61L42 61L42 58L45 58L45 59L44 59L44 69L46 69L46 67L45 67L45 62L46 62L46 64L47 64L47 66L49 66L49 65L50 65L50 67L51 67L51 69L52 69L52 68L54 68L54 67L55 67L55 69L59 69L59 67L55 67L55 65L57 65L57 66L58 66L58 65L59 65L59 64L58 64L58 61L59 61L59 63L60 63L60 66L61 66L61 68L62 68L62 69L65 69L65 68L64 68L64 67L66 67L66 66L64 66L64 67L63 67L63 68L62 68L62 66L63 66L63 65L65 65L65 63L66 63L66 62L67 62L67 63L68 63L68 62L69 62L69 61L68 61L68 60L69 60L69 59L68 59L68 57L69 57L69 55L67 55L67 53L69 53L69 52L68 52L68 50L67 50L67 49L66 49L66 50L67 50L67 53L66 53L66 52L65 52L65 50L64 50L64 49L65 49L65 48L63 48L63 47L62 47L62 46L58 46L58 45L57 45L57 44L56 44L56 46L55 46L55 43L56 43L56 42L58 42L58 40L59 40L59 38L61 38L61 39L60 39L60 42L59 42L59 43L58 43L58 44L59 44L59 43L60 43L60 45L61 45L61 43L62 43L62 41L65 41L65 40L64 40L64 39L67 39L67 40L66 40L66 41L69 41L69 39L68 39L68 38L69 38L69 35L68 35L68 33L69 33L69 31L68 31L68 30L69 30L69 27L68 27L68 22L69 22L69 20L68 20L68 18L67 18L67 17L69 17L69 15L68 15L68 14L69 14L69 12L68 12L68 14L67 14L67 16L66 16L66 17L64 17L64 16L65 16L65 15L63 15L63 14L64 14L64 13L63 13L63 11L60 11L60 10L61 10L61 8L60 8L60 9L59 9L59 4L58 4L58 8L57 8L57 6L56 6L56 5L55 5L55 4L56 4L56 2L57 2L57 3L59 3L59 2L58 2L58 1L61 1L61 0L56 0L56 1L55 1L55 0L52 0L52 2L51 2L51 0L50 0L50 2L49 2L49 0L48 0L48 1L47 1L47 2L46 2L46 3L45 3L45 1L46 1L46 0L45 0L45 1L44 1L44 0L41 0L41 1L40 1L40 0L35 0L35 1L34 1L34 4L32 4L32 5L31 5L31 4L29 4L29 6L28 6L28 8L26 8L26 10L24 10L24 9L25 9L25 8L24 8L24 9L23 9L23 10L22 10L22 9L21 9L21 5L23 5L23 6L22 6L22 8L23 8L23 6L24 6L24 7L25 7L25 6L26 6L26 7L27 7L27 6L26 6L26 5L28 5L28 3L27 3L27 2L25 2L25 1L28 1L28 2L30 2L30 3L33 3L33 2L31 2L31 1L33 1L33 0L31 0L31 1L30 1L30 0L23 0L23 2L22 2L22 4L21 4L21 3L19 3L19 2L17 2L17 1L20 1L20 2L21 2L21 1L22 1L22 0L16 0L16 1L15 1L15 0L14 0L14 1L12 1L12 2L11 2L11 1L9 1L9 0ZM37 1L37 2L35 2L35 3L36 3L36 4L37 4L37 3L38 3L38 4L39 4L39 7L38 7L38 5L37 5L37 10L38 10L38 11L37 11L37 12L36 12L36 13L37 13L37 14L35 14L35 13L33 13L33 14L32 14L32 16L31 16L31 18L30 18L30 17L29 17L29 16L30 16L30 15L31 15L31 13L32 13L32 12L34 12L34 9L33 9L33 10L32 10L32 11L31 11L31 13L30 13L30 11L29 11L29 12L28 12L28 11L27 11L27 10L26 10L26 11L27 11L27 13L25 13L25 14L24 14L24 15L20 15L20 13L21 13L21 12L22 12L22 13L24 13L24 11L21 11L21 10L20 10L20 5L19 5L19 7L18 7L18 6L17 6L17 5L18 5L18 4L19 4L19 3L17 3L17 4L14 4L14 3L15 3L15 2L12 2L12 3L11 3L11 2L9 2L9 3L10 3L10 4L12 4L12 5L16 5L16 6L15 6L15 7L16 7L16 6L17 6L17 7L18 7L18 8L19 8L19 10L18 10L18 9L17 9L17 8L16 8L16 9L15 9L15 8L14 8L14 9L13 9L13 8L11 8L11 9L12 9L12 10L11 10L11 11L12 11L12 10L13 10L13 12L14 12L14 10L16 10L16 11L17 11L17 12L16 12L16 13L17 13L17 14L15 14L15 13L14 13L14 16L12 16L12 15L13 15L13 14L12 14L12 12L11 12L11 14L10 14L10 13L9 13L9 12L7 12L7 11L6 11L6 12L5 12L5 13L6 13L6 14L7 14L7 15L6 15L6 16L5 16L5 17L6 17L6 18L10 18L10 19L9 19L9 21L8 21L8 22L7 22L7 21L6 21L6 20L7 20L7 19L6 19L6 20L5 20L5 18L4 18L4 19L3 19L3 20L4 20L4 23L3 23L3 24L4 24L4 23L6 23L6 24L5 24L5 25L6 25L6 26L7 26L7 25L8 25L8 27L6 27L6 28L5 28L5 29L6 29L6 30L7 30L7 29L6 29L6 28L9 28L9 29L10 29L10 28L11 28L11 29L12 29L12 30L11 30L11 31L12 31L12 32L11 32L11 33L12 33L12 34L11 34L11 35L9 35L9 36L11 36L11 37L12 37L12 38L10 38L10 37L3 37L3 39L2 39L2 40L1 40L1 41L3 41L3 42L4 42L4 44L3 44L3 43L2 43L2 44L1 44L1 49L2 49L2 50L3 50L3 52L4 52L4 53L6 53L6 54L2 54L2 56L3 56L3 57L2 57L2 58L3 58L3 57L4 57L4 56L3 56L3 55L6 55L6 56L7 56L7 57L6 57L6 58L7 58L7 57L8 57L8 58L10 58L10 60L11 60L11 59L13 59L13 61L14 61L14 62L15 62L15 63L14 63L14 64L13 64L13 66L12 66L12 67L13 67L13 66L14 66L14 65L16 65L16 66L15 66L15 67L14 67L14 68L16 68L16 66L17 66L17 65L18 65L18 64L19 64L19 65L20 65L20 61L18 61L18 60L19 60L19 58L20 58L20 57L17 57L17 56L20 56L20 55L22 55L22 56L25 56L25 57L26 57L26 56L27 56L27 57L28 57L28 58L27 58L27 60L28 60L28 62L30 62L30 64L31 64L31 65L29 65L29 64L28 64L28 63L27 63L27 64L26 64L26 63L25 63L25 62L24 62L24 63L23 63L23 62L22 62L22 61L26 61L26 62L27 62L27 61L26 61L26 58L24 58L24 57L21 57L21 59L20 59L20 60L21 60L21 59L22 59L22 61L21 61L21 62L22 62L22 63L23 63L23 64L22 64L22 66L23 66L23 67L24 67L24 66L23 66L23 64L24 64L24 63L25 63L25 65L29 65L29 66L31 66L31 65L32 65L32 66L33 66L33 65L32 65L32 64L31 64L31 63L32 63L32 62L31 62L31 61L29 61L29 60L31 60L31 59L32 59L32 60L33 60L33 59L34 59L34 60L37 60L37 58L36 58L36 57L37 57L37 56L38 56L38 57L39 57L39 58L40 58L40 59L41 59L41 58L40 58L40 57L41 57L41 56L42 56L42 57L44 57L44 54L45 54L45 53L46 53L46 54L47 54L47 53L46 53L46 52L50 52L50 53L49 53L49 54L50 54L50 55L47 55L47 56L49 56L49 57L48 57L48 59L50 59L50 60L49 60L49 63L50 63L50 65L51 65L51 66L52 66L52 67L54 67L54 66L52 66L52 65L55 65L55 63L56 63L56 62L57 62L57 61L58 61L58 60L59 60L59 61L60 61L60 60L59 60L59 59L60 59L60 58L59 58L59 57L60 57L60 52L58 52L58 54L57 54L57 55L56 55L56 54L55 54L55 55L54 55L54 53L53 53L53 52L55 52L55 51L57 51L57 49L58 49L58 51L61 51L61 50L62 50L62 51L64 51L64 50L62 50L62 47L61 47L61 49L60 49L60 48L59 48L59 47L58 47L58 48L57 48L57 47L55 47L55 48L53 48L53 47L52 47L52 46L53 46L53 43L55 43L55 42L53 42L53 41L56 41L56 40L58 40L58 38L59 38L59 37L60 37L60 36L59 36L59 35L60 35L60 34L59 34L59 33L58 33L58 34L57 34L57 35L56 35L56 36L52 36L52 37L51 37L51 38L52 38L52 39L50 39L50 35L49 35L49 34L50 34L50 33L51 33L51 31L52 31L52 30L53 30L53 32L52 32L52 34L51 34L51 35L53 35L53 33L55 33L55 34L56 34L56 33L55 33L55 30L56 30L56 31L57 31L57 29L56 29L56 28L59 28L59 29L58 29L58 30L59 30L59 32L61 32L61 31L60 31L60 30L59 30L59 29L60 29L60 28L59 28L59 27L60 27L60 26L59 26L59 25L56 25L56 24L57 24L57 22L56 22L56 19L58 19L58 20L57 20L57 21L58 21L58 22L59 22L59 21L60 21L60 20L61 20L61 23L60 23L60 25L61 25L61 28L62 28L62 29L61 29L61 30L62 30L62 31L63 31L63 32L66 32L66 33L65 33L65 34L67 34L67 32L68 32L68 31L65 31L65 30L67 30L67 28L68 28L68 27L65 27L65 28L64 28L64 29L63 29L63 28L62 28L62 27L63 27L63 26L62 26L62 25L63 25L63 24L64 24L64 25L65 25L65 24L67 24L67 22L68 22L68 20L67 20L67 18L65 18L65 20L64 20L64 22L63 22L63 23L62 23L62 21L63 21L63 19L64 19L64 17L63 17L63 19L62 19L62 15L61 15L61 14L62 14L62 12L60 12L60 13L58 13L58 12L57 12L57 13L58 13L58 14L59 14L59 15L56 15L56 13L55 13L55 12L52 12L52 14L50 14L50 13L51 13L51 12L50 12L50 13L49 13L49 15L47 15L47 12L46 12L46 10L47 10L47 8L50 8L50 9L49 9L49 11L50 11L50 9L51 9L51 8L52 8L52 9L53 9L53 8L55 8L55 9L56 9L56 10L57 10L57 9L56 9L56 8L55 8L55 7L56 7L56 6L55 6L55 7L54 7L54 5L53 5L53 4L54 4L54 3L55 3L55 2L54 2L54 3L53 3L53 4L52 4L52 3L51 3L51 2L50 2L50 4L49 4L49 2L48 2L48 3L47 3L47 4L46 4L46 5L44 5L44 4L45 4L45 3L44 3L44 2L42 2L42 1L41 1L41 2L40 2L40 1ZM39 2L39 3L40 3L40 7L41 7L41 8L43 8L43 6L44 6L44 7L45 7L45 8L44 8L44 9L45 9L45 10L46 10L46 9L45 9L45 8L47 8L47 6L48 6L48 7L49 7L49 4L47 4L47 6L46 6L46 7L45 7L45 6L44 6L44 5L43 5L43 4L44 4L44 3L43 3L43 4L41 4L41 3L40 3L40 2ZM24 3L24 4L25 4L25 5L26 5L26 4L27 4L27 3L26 3L26 4L25 4L25 3ZM60 3L60 5L61 5L61 3ZM50 4L50 5L51 5L51 6L50 6L50 8L51 8L51 6L52 6L52 7L53 7L53 6L52 6L52 4ZM8 5L8 7L9 7L9 5ZM30 5L30 6L29 6L29 7L30 7L30 6L31 6L31 8L30 8L30 9L28 9L28 10L30 10L30 9L32 9L32 6L31 6L31 5ZM33 5L33 8L36 8L36 5ZM41 5L41 7L42 7L42 5ZM13 6L13 7L14 7L14 6ZM34 6L34 7L35 7L35 6ZM60 6L60 7L61 7L61 6ZM0 8L0 9L2 9L2 8ZM63 8L63 9L62 9L62 10L63 10L63 9L64 9L64 11L65 11L65 10L66 10L66 11L67 11L67 9L69 9L69 8L65 8L65 9L64 9L64 8ZM6 9L6 10L7 10L7 9ZM16 9L16 10L17 10L17 11L18 11L18 12L17 12L17 13L18 13L18 15L16 15L16 16L14 16L14 17L13 17L13 18L14 18L14 17L15 17L15 21L16 21L16 22L14 22L14 23L16 23L16 24L17 24L17 25L14 25L14 24L13 24L13 22L10 22L10 23L9 23L9 22L8 22L8 23L9 23L9 25L10 25L10 26L9 26L9 27L12 27L12 29L13 29L13 30L12 30L12 31L13 31L13 32L12 32L12 33L14 33L14 34L15 34L15 37L13 37L13 34L12 34L12 37L13 37L13 38L12 38L12 40L11 40L11 39L9 39L9 38L8 38L8 39L7 39L7 38L4 38L4 39L3 39L3 40L4 40L4 42L5 42L5 40L6 40L6 41L7 41L7 42L6 42L6 43L5 43L5 44L6 44L6 45L7 45L7 44L6 44L6 43L8 43L8 47L7 47L7 46L6 46L6 47L7 47L7 48L5 48L5 45L4 45L4 47L3 47L3 50L4 50L4 49L5 49L5 50L6 50L6 51L5 51L5 52L6 52L6 53L7 53L7 52L6 52L6 51L8 51L8 54L6 54L6 55L9 55L9 57L10 57L10 58L12 58L12 57L13 57L13 59L14 59L14 58L15 58L15 59L16 59L16 58L17 58L17 57L13 57L13 56L12 56L12 55L11 55L11 54L12 54L12 53L11 53L11 54L9 54L9 53L10 53L10 52L13 52L13 53L14 53L14 54L13 54L13 55L14 55L14 56L16 56L16 55L18 55L18 54L16 54L16 52L17 52L17 53L20 53L20 54L19 54L19 55L20 55L20 54L21 54L21 53L22 53L22 52L23 52L23 49L24 49L24 50L25 50L25 49L26 49L26 51L27 51L27 52L26 52L26 53L25 53L25 52L24 52L24 53L23 53L23 55L25 55L25 54L26 54L26 55L27 55L27 54L28 54L28 56L29 56L29 55L30 55L30 54L28 54L28 53L31 53L31 54L32 54L32 55L31 55L31 56L30 56L30 57L29 57L29 58L28 58L28 59L30 59L30 58L31 58L31 57L33 57L33 58L32 58L32 59L33 59L33 58L34 58L34 59L36 59L36 58L34 58L34 56L35 56L35 57L36 57L36 56L35 56L35 55L33 55L33 54L34 54L34 53L33 53L33 54L32 54L32 52L31 52L31 50L30 50L30 49L32 49L32 48L31 48L31 47L30 47L30 46L28 46L28 44L27 44L27 43L28 43L28 42L26 42L26 41L30 41L30 42L29 42L29 45L31 45L31 46L32 46L32 47L33 47L33 48L34 48L34 47L33 47L33 45L34 45L34 42L37 42L37 40L38 40L38 43L39 43L39 45L38 45L38 44L37 44L37 45L38 45L38 46L37 46L37 47L36 47L36 45L35 45L35 47L36 47L36 48L37 48L37 49L38 49L38 51L37 51L37 53L38 53L38 52L39 52L39 51L40 51L40 48L41 48L41 47L39 47L39 45L40 45L40 46L41 46L41 45L42 45L42 49L41 49L41 51L42 51L42 52L41 52L41 53L42 53L42 55L43 55L43 54L44 54L44 53L45 53L45 50L46 50L46 51L50 51L50 52L51 52L51 53L50 53L50 54L51 54L51 53L52 53L52 54L53 54L53 53L52 53L52 51L53 51L53 50L55 50L55 49L52 49L52 47L51 47L51 46L52 46L52 43L53 43L53 42L52 42L52 43L51 43L51 41L50 41L50 40L48 40L48 38L49 38L49 35L48 35L48 34L49 34L49 32L50 32L50 31L49 31L49 32L48 32L48 31L44 31L44 29L45 29L45 27L46 27L46 28L47 28L47 30L48 30L48 29L50 29L50 30L52 30L52 28L53 28L53 27L56 27L56 25L53 25L53 26L52 26L52 24L55 24L55 19L56 19L56 18L58 18L58 19L59 19L59 20L58 20L58 21L59 21L59 20L60 20L60 19L61 19L61 15L59 15L59 16L58 16L58 17L57 17L57 16L56 16L56 15L55 15L55 13L53 13L53 14L52 14L52 15L51 15L51 16L50 16L50 15L49 15L49 16L47 16L47 15L46 15L46 13L45 13L45 11L43 11L43 9L41 9L41 10L40 10L40 9L38 9L38 10L39 10L39 13L38 13L38 12L37 12L37 13L38 13L38 14L37 14L37 15L35 15L35 14L34 14L34 15L33 15L33 18L32 18L32 19L31 19L31 20L29 20L29 18L28 18L28 19L26 19L26 18L27 18L27 17L28 17L28 16L26 16L26 15L25 15L25 17L22 17L22 16L19 16L19 13L20 13L20 12L19 12L19 11L20 11L20 10L19 10L19 11L18 11L18 10L17 10L17 9ZM35 9L35 11L36 11L36 9ZM58 9L58 11L59 11L59 9ZM41 10L41 14L40 14L40 13L39 13L39 15L37 15L37 16L34 16L34 19L32 19L32 20L31 20L31 21L30 21L30 23L28 23L28 22L29 22L29 20L28 20L28 22L27 22L27 21L25 21L25 22L23 22L23 20L25 20L25 18L26 18L26 17L25 17L25 18L24 18L24 19L23 19L23 18L22 18L22 17L19 17L19 16L18 16L18 17L17 17L17 16L16 16L16 17L17 17L17 19L16 19L16 20L17 20L17 19L20 19L20 18L22 18L22 19L23 19L23 20L22 20L22 21L21 21L21 22L20 22L20 20L19 20L19 21L17 21L17 23L19 23L19 22L20 22L20 23L22 23L22 24L23 24L23 23L25 23L25 25L26 25L26 22L27 22L27 23L28 23L28 24L29 24L29 25L28 25L28 27L29 27L29 28L27 28L27 29L28 29L28 31L30 31L30 29L29 29L29 28L30 28L30 27L33 27L33 28L32 28L32 29L31 29L31 31L32 31L32 32L35 32L35 31L37 31L37 30L38 30L38 31L39 31L39 30L38 30L38 29L40 29L40 30L42 30L42 28L43 28L43 29L44 29L44 28L43 28L43 26L41 26L41 25L42 25L42 24L43 24L43 25L44 25L44 24L45 24L45 23L44 23L44 20L46 20L46 19L44 19L44 18L41 18L41 17L42 17L42 16L40 16L40 19L39 19L39 18L38 18L38 17L39 17L39 15L42 15L42 13L43 13L43 12L42 12L42 10ZM52 10L52 11L55 11L55 10ZM6 12L6 13L7 13L7 12ZM66 12L66 13L67 13L67 12ZM8 13L8 14L9 14L9 15L7 15L7 16L6 16L6 17L8 17L8 16L10 16L10 17L11 17L11 19L12 19L12 16L11 16L11 15L12 15L12 14L11 14L11 15L10 15L10 14L9 14L9 13ZM27 13L27 15L28 15L28 13ZM29 13L29 15L30 15L30 13ZM60 13L60 14L61 14L61 13ZM43 14L43 17L44 17L44 15L45 15L45 14ZM53 14L53 16L52 16L52 17L51 17L51 18L50 18L50 16L49 16L49 17L48 17L48 18L47 18L47 17L46 17L46 16L45 16L45 17L46 17L46 18L47 18L47 21L46 21L46 22L48 22L48 23L47 23L47 25L46 25L46 26L47 26L47 27L49 27L49 26L50 26L50 25L51 25L51 23L52 23L52 22L53 22L53 23L54 23L54 22L53 22L53 20L54 20L54 19L55 19L55 18L54 18L54 19L53 19L53 18L52 18L52 17L56 17L56 16L55 16L55 15L54 15L54 14ZM18 17L18 18L19 18L19 17ZM35 17L35 18L37 18L37 17ZM58 17L58 18L59 18L59 19L60 19L60 18L59 18L59 17ZM48 18L48 22L49 22L49 23L48 23L48 25L47 25L47 26L49 26L49 24L50 24L50 22L52 22L52 21L50 21L50 20L49 20L49 18ZM51 18L51 19L52 19L52 18ZM13 19L13 20L12 20L12 21L14 21L14 19ZM34 19L34 20L33 20L33 23L34 23L34 24L33 24L33 25L32 25L32 23L31 23L31 24L30 24L30 25L29 25L29 27L30 27L30 26L31 26L31 25L32 25L32 26L33 26L33 27L34 27L34 28L35 28L35 27L36 27L36 26L37 26L37 27L38 27L38 28L36 28L36 29L38 29L38 28L39 28L39 27L40 27L40 28L42 28L42 27L40 27L40 20L39 20L39 19ZM42 19L42 20L41 20L41 22L43 22L43 19ZM10 20L10 21L11 21L11 20ZM34 20L34 23L38 23L38 25L37 25L37 26L38 26L38 27L39 27L39 26L38 26L38 25L39 25L39 20L38 20L38 21L36 21L36 20ZM65 20L65 22L64 22L64 24L65 24L65 23L66 23L66 22L67 22L67 21L66 21L66 20ZM31 21L31 22L32 22L32 21ZM49 21L49 22L50 22L50 21ZM1 22L1 23L2 23L2 22ZM6 22L6 23L7 23L7 22ZM10 23L10 24L12 24L12 23ZM58 23L58 24L59 24L59 23ZM61 23L61 25L62 25L62 23ZM1 24L1 26L3 26L3 27L5 27L5 26L3 26L3 25L2 25L2 24ZM6 24L6 25L7 25L7 24ZM20 24L20 25L19 25L19 27L20 27L20 28L19 28L19 30L18 30L18 31L17 31L17 33L16 33L16 31L15 31L15 32L14 32L14 33L16 33L16 34L17 34L17 35L18 35L18 34L17 34L17 33L18 33L18 32L19 32L19 33L20 33L20 32L22 32L22 33L21 33L21 34L20 34L20 35L19 35L19 36L20 36L20 37L19 37L19 39L20 39L20 37L21 37L21 35L22 35L22 38L23 38L23 37L26 37L26 38L25 38L25 39L24 39L24 40L22 40L22 39L21 39L21 40L20 40L20 41L18 41L18 42L17 42L17 39L18 39L18 37L17 37L17 36L16 36L16 38L17 38L17 39L16 39L16 41L15 41L15 42L14 42L14 40L13 40L13 42L11 42L11 44L10 44L10 45L11 45L11 44L12 44L12 45L13 45L13 44L14 44L14 43L16 43L16 42L17 42L17 43L18 43L18 44L19 44L19 45L21 45L21 46L22 46L22 47L23 47L23 48L22 48L22 49L23 49L23 48L24 48L24 49L25 49L25 48L24 48L24 47L26 47L26 48L28 48L28 49L27 49L27 51L28 51L28 50L29 50L29 51L30 51L30 50L29 50L29 48L30 48L30 47L29 47L29 48L28 48L28 47L27 47L27 45L26 45L26 43L25 43L25 46L24 46L24 47L23 47L23 44L24 44L24 43L22 43L22 42L23 42L23 41L24 41L24 42L25 42L25 41L26 41L26 40L27 40L27 39L26 39L26 38L27 38L27 37L26 37L26 36L28 36L28 38L29 38L29 39L28 39L28 40L29 40L29 39L30 39L30 37L29 37L29 34L28 34L28 35L26 35L26 34L24 34L24 36L23 36L23 34L22 34L22 33L23 33L23 32L22 32L22 31L25 31L25 32L24 32L24 33L30 33L30 34L31 34L31 35L30 35L30 36L31 36L31 35L32 35L32 33L30 33L30 32L26 32L26 31L25 31L25 30L21 30L21 31L20 31L20 28L22 28L22 29L23 29L23 27L24 27L24 28L25 28L25 29L26 29L26 28L25 28L25 27L27 27L27 26L24 26L24 25L21 25L21 24ZM35 24L35 25L36 25L36 24ZM11 25L11 26L12 26L12 27L14 27L14 28L13 28L13 29L14 29L14 30L13 30L13 31L14 31L14 30L15 30L15 29L16 29L16 30L17 30L17 29L16 29L16 28L17 28L17 27L18 27L18 25L17 25L17 26L16 26L16 27L15 27L15 26L12 26L12 25ZM20 25L20 26L21 26L21 27L23 27L23 26L21 26L21 25ZM33 25L33 26L34 26L34 27L35 27L35 26L34 26L34 25ZM66 25L66 26L67 26L67 25ZM51 26L51 27L50 27L50 28L52 28L52 26ZM33 29L33 31L34 31L34 30L35 30L35 29ZM53 29L53 30L55 30L55 29ZM62 29L62 30L63 30L63 31L64 31L64 30L65 30L65 29L64 29L64 30L63 30L63 29ZM8 30L8 31L6 31L6 32L8 32L8 31L9 31L9 32L10 32L10 31L9 31L9 30ZM4 31L4 32L5 32L5 31ZM19 31L19 32L20 32L20 31ZM40 31L40 33L44 33L44 34L43 34L43 35L41 35L41 34L38 34L38 33L39 33L39 32L37 32L37 37L36 37L36 39L34 39L34 41L32 41L32 42L30 42L30 43L32 43L32 44L31 44L31 45L33 45L33 43L32 43L32 42L34 42L34 41L36 41L36 40L37 40L37 37L38 37L38 36L39 36L39 35L41 35L41 36L40 36L40 37L41 37L41 36L43 36L43 38L42 38L42 39L43 39L43 42L39 42L39 43L41 43L41 44L43 44L43 45L44 45L44 44L45 44L45 43L47 43L47 44L48 44L48 43L50 43L50 41L47 41L47 37L48 37L48 35L47 35L47 37L46 37L46 34L48 34L48 33L46 33L46 32L45 32L45 33L44 33L44 31ZM5 33L5 36L8 36L8 33ZM33 33L33 36L36 36L36 33ZM45 33L45 34L44 34L44 37L45 37L45 38L43 38L43 39L45 39L45 40L44 40L44 43L43 43L43 44L44 44L44 43L45 43L45 42L46 42L46 37L45 37L45 34L46 34L46 33ZM61 33L61 36L64 36L64 33ZM6 34L6 35L7 35L7 34ZM34 34L34 35L35 35L35 34ZM62 34L62 35L63 35L63 34ZM25 35L25 36L26 36L26 35ZM65 35L65 37L63 37L63 38L62 38L62 37L61 37L61 38L62 38L62 39L61 39L61 40L63 40L63 39L64 39L64 38L66 38L66 36L67 36L67 38L68 38L68 35ZM56 36L56 38L55 38L55 37L52 37L52 38L53 38L53 39L54 39L54 40L55 40L55 39L56 39L56 38L58 38L58 37L59 37L59 36ZM31 37L31 39L32 39L32 40L33 40L33 39L32 39L32 38L35 38L35 37ZM38 38L38 40L39 40L39 38ZM54 38L54 39L55 39L55 38ZM6 39L6 40L7 40L7 41L8 41L8 42L10 42L10 41L11 41L11 40L10 40L10 41L8 41L8 40L9 40L9 39L8 39L8 40L7 40L7 39ZM40 39L40 41L41 41L41 39ZM24 40L24 41L25 41L25 40ZM30 40L30 41L31 41L31 40ZM20 41L20 42L19 42L19 44L20 44L20 43L21 43L21 45L22 45L22 43L21 43L21 42L22 42L22 41ZM13 42L13 43L14 43L14 42ZM60 42L60 43L61 43L61 42ZM66 42L66 43L67 43L67 42ZM63 43L63 44L62 44L62 45L63 45L63 46L64 46L64 43ZM68 43L68 44L65 44L65 45L66 45L66 46L65 46L65 47L66 47L66 46L67 46L67 47L68 47L68 49L69 49L69 47L68 47L68 46L69 46L69 43ZM15 44L15 45L14 45L14 46L15 46L15 47L13 47L13 46L12 46L12 47L13 47L13 48L9 48L9 49L12 49L12 51L13 51L13 52L14 52L14 53L15 53L15 52L16 52L16 50L17 50L17 52L19 52L19 51L20 51L20 50L21 50L21 51L22 51L22 50L21 50L21 49L19 49L19 48L20 48L20 46L19 46L19 48L18 48L18 49L16 49L16 50L15 50L15 49L14 49L14 48L17 48L17 47L18 47L18 46L17 46L17 44ZM49 44L49 45L50 45L50 44ZM2 45L2 46L3 46L3 45ZM15 45L15 46L16 46L16 45ZM46 45L46 47L47 47L47 48L45 48L45 46L44 46L44 48L43 48L43 49L44 49L44 50L45 50L45 49L46 49L46 50L47 50L47 49L48 49L48 50L50 50L50 49L48 49L48 47L47 47L47 45ZM67 45L67 46L68 46L68 45ZM9 46L9 47L11 47L11 46ZM38 47L38 48L39 48L39 47ZM49 47L49 48L50 48L50 47ZM44 48L44 49L45 49L45 48ZM56 48L56 49L57 49L57 48ZM58 48L58 49L59 49L59 50L60 50L60 49L59 49L59 48ZM6 49L6 50L7 50L7 49ZM13 49L13 50L14 50L14 51L15 51L15 50L14 50L14 49ZM18 49L18 51L19 51L19 49ZM33 49L33 50L32 50L32 51L34 51L34 52L35 52L35 51L36 51L36 49ZM10 50L10 51L11 51L11 50ZM42 50L42 51L43 51L43 53L44 53L44 51L43 51L43 50ZM51 50L51 51L52 51L52 50ZM1 51L1 52L2 52L2 51ZM62 52L62 53L61 53L61 55L64 55L64 56L63 56L63 57L62 57L62 56L61 56L61 58L62 58L62 60L63 60L63 57L64 57L64 60L66 60L66 61L67 61L67 62L68 62L68 61L67 61L67 60L68 60L68 59L67 59L67 57L68 57L68 56L67 56L67 55L66 55L66 54L65 54L65 52ZM39 53L39 57L40 57L40 53ZM62 53L62 54L64 54L64 55L65 55L65 54L64 54L64 53ZM14 54L14 55L15 55L15 54ZM58 54L58 56L59 56L59 54ZM32 55L32 56L33 56L33 55ZM55 55L55 56L53 56L53 58L54 58L54 60L53 60L53 59L52 59L52 56L50 56L50 58L51 58L51 60L50 60L50 62L51 62L51 61L52 61L52 64L51 64L51 65L52 65L52 64L53 64L53 62L56 62L56 61L57 61L57 60L58 60L58 57L57 57L57 56L56 56L56 55ZM10 56L10 57L12 57L12 56ZM55 56L55 61L56 61L56 60L57 60L57 59L56 59L56 56ZM64 56L64 57L65 57L65 56ZM66 56L66 57L67 57L67 56ZM46 57L46 58L47 58L47 57ZM23 59L23 60L24 60L24 59ZM38 59L38 60L39 60L39 62L38 62L38 61L37 61L37 62L38 62L38 63L40 63L40 62L41 62L41 60L39 60L39 59ZM46 59L46 60L45 60L45 61L46 61L46 62L47 62L47 59ZM3 60L3 61L5 61L5 60ZM52 60L52 61L53 61L53 60ZM15 61L15 62L16 62L16 64L17 64L17 63L18 63L18 61L17 61L17 62L16 62L16 61ZM33 61L33 64L36 64L36 61ZM61 61L61 64L64 64L64 61ZM34 62L34 63L35 63L35 62ZM62 62L62 63L63 63L63 62ZM68 64L68 65L67 65L67 66L69 66L69 64ZM34 65L34 66L35 66L35 65ZM8 67L8 69L9 69L9 67ZM17 67L17 68L18 68L18 67ZM32 67L32 68L33 68L33 67ZM47 67L47 69L50 69L50 68L48 68L48 67ZM36 68L36 69L37 69L37 68ZM68 68L68 69L69 69L69 68ZM0 0L0 7L7 7L7 0ZM1 1L1 6L6 6L6 1ZM2 2L2 5L5 5L5 2ZM62 0L62 7L69 7L69 0ZM63 1L63 6L68 6L68 1ZM64 2L64 5L67 5L67 2ZM0 62L0 69L7 69L7 62ZM1 63L1 68L6 68L6 63ZM2 64L2 67L5 67L5 64Z" fill="#000000"/></g></g></svg>
