<?xml version="1.0" encoding="UTF-8"?>
<svg xmlns="http://www.w3.org/2000/svg" version="1.1" width="300" height="300" viewBox="0 0 300 300"><rect x="0" y="0" width="300" height="300" fill="#ffffff"/><g transform="scale(4.348)"><g transform="translate(0,0)"><path fill-rule="evenodd" d="M8 0L8 4L9 4L9 2L11 2L11 3L10 3L10 4L13 4L13 3L12 3L12 1L14 1L14 0ZM15 0L15 2L14 2L14 4L15 4L15 3L16 3L16 2L18 2L18 1L20 1L20 2L21 2L21 3L19 3L19 4L18 4L18 5L19 5L19 4L20 4L20 5L21 5L21 3L22 3L22 5L24 5L24 7L25 7L25 6L26 6L26 9L25 9L25 8L24 8L24 9L23 9L23 10L22 10L22 9L21 9L21 8L20 8L20 7L21 7L21 6L20 6L20 7L19 7L19 6L18 6L18 7L17 7L17 6L16 6L16 5L14 5L14 7L13 7L13 6L12 6L12 7L13 7L13 8L12 8L12 10L13 10L13 9L14 9L14 11L13 11L13 13L12 13L12 14L13 14L13 13L14 13L14 11L15 11L15 12L16 12L16 13L15 13L15 14L14 14L14 15L15 15L15 14L16 14L16 13L18 13L18 15L17 15L17 17L18 17L18 19L15 19L15 18L13 18L13 21L14 21L14 22L13 22L13 24L12 24L12 23L11 23L11 26L10 26L10 23L8 23L8 22L6 22L6 23L8 23L8 24L6 24L6 25L5 25L5 24L4 24L4 25L5 25L5 27L7 27L7 26L6 26L6 25L9 25L9 26L8 26L8 28L9 28L9 32L8 32L8 30L6 30L6 31L5 31L5 30L4 30L4 32L2 32L2 31L3 31L3 29L5 29L5 28L4 28L4 26L2 26L2 25L3 25L3 23L5 23L5 20L6 20L6 21L9 21L9 22L12 22L12 21L11 21L11 14L10 14L10 15L8 15L8 16L6 16L6 15L7 15L7 14L6 14L6 15L5 15L5 16L6 16L6 17L4 17L4 14L5 14L5 13L3 13L3 12L2 12L2 11L0 11L0 12L1 12L1 13L0 13L0 14L2 14L2 13L3 13L3 15L1 15L1 16L0 16L0 21L1 21L1 20L2 20L2 21L3 21L3 22L2 22L2 24L0 24L0 26L1 26L1 27L0 27L0 28L1 28L1 30L2 30L2 31L0 31L0 33L3 33L3 34L4 34L4 35L3 35L3 36L2 36L2 37L4 37L4 38L3 38L3 39L2 39L2 38L1 38L1 34L0 34L0 38L1 38L1 39L2 39L2 41L4 41L4 42L6 42L6 43L9 43L9 40L10 40L10 41L11 41L11 40L10 40L10 39L11 39L11 38L9 38L9 37L10 37L10 34L11 34L11 36L12 36L12 38L13 38L13 39L14 39L14 40L15 40L15 41L16 41L16 40L17 40L17 42L16 42L16 43L15 43L15 42L13 42L13 40L12 40L12 45L8 45L8 46L9 46L9 47L7 47L7 46L5 46L5 48L4 48L4 46L3 46L3 45L7 45L7 44L4 44L4 43L2 43L2 44L1 44L1 45L0 45L0 46L1 46L1 47L0 47L0 52L1 52L1 50L2 50L2 48L1 48L1 47L2 47L2 46L3 46L3 49L5 49L5 51L7 51L7 52L6 52L6 53L5 53L5 52L4 52L4 50L3 50L3 51L2 51L2 54L0 54L0 55L1 55L1 56L0 56L0 57L1 57L1 58L0 58L0 61L1 61L1 58L2 58L2 59L3 59L3 56L4 56L4 55L5 55L5 58L4 58L4 59L7 59L7 60L6 60L6 61L8 61L8 62L9 62L9 63L8 63L8 65L10 65L10 66L9 66L9 67L8 67L8 69L9 69L9 68L11 68L11 69L12 69L12 68L13 68L13 69L15 69L15 68L17 68L17 69L20 69L20 68L19 68L19 67L20 67L20 66L21 66L21 69L22 69L22 66L23 66L23 67L24 67L24 68L23 68L23 69L24 69L24 68L25 68L25 69L27 69L27 67L28 67L28 66L30 66L30 65L31 65L31 67L32 67L32 69L33 69L33 67L34 67L34 68L35 68L35 67L37 67L37 66L34 66L34 65L38 65L38 67L39 67L39 68L38 68L38 69L40 69L40 67L39 67L39 66L40 66L40 63L41 63L41 68L42 68L42 67L43 67L43 63L44 63L44 69L46 69L46 67L45 67L45 63L44 63L44 62L45 62L45 61L47 61L47 63L46 63L46 64L47 64L47 65L49 65L49 64L50 64L50 68L47 68L47 69L52 69L52 68L53 68L53 69L54 69L54 68L53 68L53 67L52 67L52 64L53 64L53 66L55 66L55 65L54 65L54 63L55 63L55 62L56 62L56 66L58 66L58 67L59 67L59 66L58 66L58 65L57 65L57 64L59 64L59 63L57 63L57 62L58 62L58 57L59 57L59 58L61 58L61 59L60 59L60 61L59 61L59 62L60 62L60 66L61 66L61 65L62 65L62 66L64 66L64 67L63 67L63 68L62 68L62 67L61 67L61 68L58 68L58 69L61 69L61 68L62 68L62 69L63 69L63 68L64 68L64 67L66 67L66 66L69 66L69 64L68 64L68 65L66 65L66 66L64 66L64 65L65 65L65 63L66 63L66 62L67 62L67 61L66 61L66 60L64 60L64 57L63 57L63 59L62 59L62 57L59 57L59 55L60 55L60 56L61 56L61 55L62 55L62 53L61 53L61 52L64 52L64 51L67 51L67 53L66 53L66 52L65 52L65 54L64 54L64 53L63 53L63 54L64 54L64 55L63 55L63 56L64 56L64 55L66 55L66 54L67 54L67 53L69 53L69 52L68 52L68 50L66 50L66 49L65 49L65 47L66 47L66 46L67 46L67 47L68 47L68 48L67 48L67 49L69 49L69 47L68 47L68 46L67 46L67 44L68 44L68 45L69 45L69 44L68 44L68 42L69 42L69 40L64 40L64 39L65 39L65 38L66 38L66 39L68 39L68 38L69 38L69 35L68 35L68 33L69 33L69 32L68 32L68 33L66 33L66 32L63 32L63 31L61 31L61 32L60 32L60 33L59 33L59 34L60 34L60 35L58 35L58 36L56 36L56 35L57 35L57 34L55 34L55 32L56 32L56 33L58 33L58 32L59 32L59 31L60 31L60 30L61 30L61 29L62 29L62 30L64 30L64 27L65 27L65 29L66 29L66 27L65 27L65 25L67 25L67 27L68 27L68 29L67 29L67 30L65 30L65 31L68 31L68 30L69 30L69 27L68 27L68 25L67 25L67 24L65 24L65 23L64 23L64 20L65 20L65 22L67 22L67 23L68 23L68 24L69 24L69 23L68 23L68 22L69 22L69 20L68 20L68 18L67 18L67 20L68 20L68 21L66 21L66 19L65 19L65 18L66 18L66 17L67 17L67 16L66 16L66 17L64 17L64 16L65 16L65 14L64 14L64 15L62 15L62 20L61 20L61 19L59 19L59 20L58 20L58 17L57 17L57 16L59 16L59 18L61 18L61 15L59 15L59 14L61 14L61 13L62 13L62 14L63 14L63 13L64 13L64 12L65 12L65 10L66 10L66 11L68 11L68 10L67 10L67 9L69 9L69 8L65 8L65 10L64 10L64 8L63 8L63 9L62 9L62 10L61 10L61 9L60 9L60 8L61 8L61 6L60 6L60 7L59 7L59 4L58 4L58 8L56 8L56 9L52 9L52 7L53 7L53 6L54 6L54 8L55 8L55 6L56 6L56 7L57 7L57 4L56 4L56 3L59 3L59 2L57 2L57 1L61 1L61 0L57 0L57 1L55 1L55 0L53 0L53 1L52 1L52 0L50 0L50 3L51 3L51 1L52 1L52 4L53 4L53 6L52 6L52 7L51 7L51 4L50 4L50 7L49 7L49 5L48 5L48 7L49 7L49 8L47 8L47 6L46 6L46 7L45 7L45 6L44 6L44 5L46 5L46 4L47 4L47 2L48 2L48 3L49 3L49 0L48 0L48 1L47 1L47 2L46 2L46 3L45 3L45 1L46 1L46 0L45 0L45 1L44 1L44 0L41 0L41 1L40 1L40 0L37 0L37 1L36 1L36 0L35 0L35 1L36 1L36 3L35 3L35 2L34 2L34 0L31 0L31 1L30 1L30 0L23 0L23 1L22 1L22 2L21 2L21 0L17 0L17 1L16 1L16 0ZM23 1L23 2L22 2L22 3L23 3L23 4L25 4L25 5L27 5L27 8L28 8L28 6L29 6L29 7L30 7L30 6L31 6L31 8L30 8L30 9L26 9L26 10L27 10L27 11L25 11L25 13L26 13L26 14L23 14L23 13L24 13L24 11L23 11L23 12L22 12L22 14L20 14L20 13L21 13L21 12L20 12L20 13L19 13L19 14L20 14L20 15L19 15L19 16L18 16L18 17L19 17L19 19L20 19L20 18L21 18L21 19L23 19L23 20L22 20L22 22L20 22L20 21L21 21L21 20L20 20L20 21L18 21L18 22L17 22L17 20L15 20L15 19L14 19L14 21L16 21L16 23L15 23L15 22L14 22L14 24L13 24L13 25L12 25L12 26L11 26L11 27L12 27L12 30L14 30L14 31L15 31L15 32L16 32L16 31L15 31L15 30L14 30L14 29L16 29L16 30L18 30L18 31L17 31L17 33L15 33L15 35L16 35L16 36L15 36L15 37L14 37L14 36L13 36L13 37L14 37L14 39L15 39L15 40L16 40L16 39L17 39L17 40L19 40L19 41L18 41L18 42L17 42L17 43L18 43L18 44L19 44L19 45L21 45L21 44L22 44L22 50L21 50L21 49L19 49L19 48L20 48L20 47L21 47L21 46L19 46L19 48L18 48L18 49L16 49L16 48L17 48L17 47L18 47L18 45L17 45L17 44L16 44L16 46L15 46L15 45L14 45L14 47L12 47L12 48L13 48L13 49L11 49L11 50L10 50L10 49L9 49L9 48L10 48L10 47L9 47L9 48L7 48L7 47L6 47L6 48L7 48L7 49L6 49L6 50L7 50L7 49L8 49L8 50L9 50L9 51L11 51L11 52L10 52L10 55L11 55L11 56L10 56L10 58L11 58L11 60L9 60L9 62L10 62L10 61L11 61L11 60L14 60L14 59L15 59L15 61L16 61L16 62L17 62L17 61L18 61L18 63L17 63L17 64L16 64L16 63L15 63L15 62L14 62L14 65L13 65L13 66L14 66L14 65L16 65L16 66L15 66L15 67L14 67L14 68L15 68L15 67L18 67L18 66L17 66L17 65L18 65L18 64L19 64L19 65L20 65L20 64L21 64L21 63L22 63L22 62L23 62L23 64L22 64L22 65L21 65L21 66L22 66L22 65L23 65L23 64L25 64L25 65L30 65L30 64L28 64L28 63L29 63L29 61L28 61L28 60L27 60L27 57L28 57L28 59L29 59L29 60L30 60L30 59L31 59L31 60L32 60L32 57L33 57L33 56L34 56L34 59L33 59L33 60L34 60L34 59L35 59L35 60L39 60L39 62L38 62L38 61L37 61L37 62L38 62L38 63L40 63L40 62L41 62L41 60L39 60L39 59L35 59L35 58L36 58L36 57L37 57L37 58L38 58L38 57L39 57L39 58L40 58L40 59L41 59L41 58L40 58L40 57L41 57L41 56L42 56L42 57L44 57L44 54L45 54L45 53L46 53L46 54L47 54L47 55L49 55L49 57L48 57L48 59L49 59L49 60L51 60L51 58L52 58L52 61L51 61L51 62L50 62L50 61L49 61L49 63L48 63L48 64L49 64L49 63L51 63L51 64L52 64L52 63L53 63L53 61L54 61L54 60L53 60L53 59L54 59L54 58L53 58L53 57L56 57L56 56L57 56L57 53L58 53L58 55L59 55L59 53L60 53L60 54L61 54L61 53L60 53L60 51L64 51L64 50L65 50L65 49L64 49L64 47L65 47L65 46L66 46L66 45L65 45L65 44L67 44L67 42L66 42L66 41L64 41L64 42L62 42L62 40L63 40L63 39L64 39L64 38L65 38L65 37L66 37L66 36L67 36L67 37L68 37L68 35L67 35L67 34L66 34L66 33L65 33L65 34L66 34L66 35L65 35L65 37L63 37L63 38L62 38L62 39L61 39L61 37L60 37L60 36L59 36L59 37L58 37L58 38L57 38L57 37L56 37L56 36L52 36L52 37L56 37L56 38L54 38L54 39L52 39L52 38L51 38L51 39L50 39L50 37L51 37L51 35L52 35L52 34L53 34L53 35L55 35L55 34L53 34L53 31L51 31L51 30L50 30L50 29L53 29L53 28L54 28L54 29L56 29L56 30L54 30L54 31L56 31L56 30L57 30L57 31L58 31L58 30L59 30L59 29L58 29L58 28L59 28L59 27L60 27L60 28L61 28L61 26L62 26L62 25L61 25L61 24L64 24L64 25L65 25L65 24L64 24L64 23L63 23L63 22L62 22L62 21L61 21L61 20L60 20L60 21L61 21L61 22L59 22L59 21L58 21L58 20L57 20L57 21L56 21L56 22L55 22L55 23L53 23L53 21L55 21L55 20L53 20L53 19L54 19L54 17L53 17L53 16L55 16L55 17L56 17L56 18L55 18L55 19L57 19L57 17L56 17L56 16L57 16L57 15L58 15L58 14L59 14L59 11L60 11L60 9L59 9L59 8L58 8L58 10L59 10L59 11L58 11L58 14L57 14L57 13L56 13L56 10L57 10L57 9L56 9L56 10L53 10L53 11L52 11L52 10L51 10L51 11L52 11L52 13L51 13L51 12L50 12L50 9L51 9L51 8L50 8L50 9L49 9L49 12L50 12L50 13L49 13L49 15L47 15L47 13L46 13L46 10L47 10L47 8L45 8L45 7L44 7L44 6L43 6L43 5L44 5L44 4L45 4L45 3L44 3L44 2L42 2L42 1L41 1L41 4L40 4L40 1L37 1L37 3L38 3L38 4L39 4L39 5L40 5L40 6L39 6L39 8L38 8L38 5L37 5L37 8L38 8L38 9L37 9L37 11L38 11L38 12L39 12L39 10L40 10L40 9L43 9L43 11L45 11L45 13L44 13L44 12L42 12L42 10L41 10L41 14L40 14L40 13L39 13L39 14L38 14L38 13L37 13L37 12L36 12L36 13L33 13L33 14L32 14L32 16L31 16L31 18L30 18L30 17L29 17L29 16L30 16L30 15L31 15L31 13L32 13L32 12L34 12L34 10L33 10L33 9L32 9L32 11L31 11L31 10L30 10L30 9L31 9L31 8L32 8L32 6L31 6L31 5L32 5L32 2L30 2L30 3L29 3L29 2L28 2L28 1L27 1L27 3L26 3L26 1ZM23 2L23 3L24 3L24 2ZM33 2L33 3L34 3L34 4L35 4L35 3L34 3L34 2ZM55 2L55 3L53 3L53 4L55 4L55 3L56 3L56 2ZM27 3L27 5L28 5L28 3ZM43 3L43 4L41 4L41 5L43 5L43 4L44 4L44 3ZM60 3L60 5L61 5L61 3ZM30 4L30 5L29 5L29 6L30 6L30 5L31 5L31 4ZM8 5L8 7L9 7L9 5ZM33 5L33 8L36 8L36 5ZM10 6L10 8L9 8L9 9L8 9L8 10L4 10L4 12L5 12L5 11L9 11L9 12L6 12L6 13L8 13L8 14L9 14L9 12L12 12L12 11L9 11L9 9L10 9L10 8L11 8L11 6ZM15 6L15 7L16 7L16 6ZM22 6L22 8L23 8L23 6ZM34 6L34 7L35 7L35 6ZM40 6L40 7L41 7L41 8L43 8L43 6L42 6L42 7L41 7L41 6ZM0 8L0 10L3 10L3 9L2 9L2 8ZM4 8L4 9L7 9L7 8ZM15 8L15 9L16 9L16 10L19 10L19 11L16 11L16 12L19 12L19 11L22 11L22 10L20 10L20 8L19 8L19 9L17 9L17 8ZM39 8L39 9L38 9L38 10L39 10L39 9L40 9L40 8ZM44 8L44 9L45 9L45 10L46 10L46 9L45 9L45 8ZM24 9L24 10L25 10L25 9ZM35 9L35 11L36 11L36 9ZM28 10L28 12L26 12L26 13L27 13L27 16L26 16L26 15L24 15L24 17L23 17L23 19L24 19L24 18L25 18L25 17L26 17L26 18L27 18L27 17L28 17L28 15L30 15L30 13L31 13L31 11L30 11L30 10ZM63 10L63 11L64 11L64 10ZM54 11L54 12L53 12L53 14L51 14L51 13L50 13L50 15L49 15L49 16L46 16L46 17L45 17L45 15L46 15L46 13L45 13L45 15L44 15L44 17L43 17L43 14L44 14L44 13L42 13L42 15L39 15L39 17L38 17L38 16L37 16L37 15L38 15L38 14L37 14L37 13L36 13L36 14L37 14L37 15L36 15L36 16L35 16L35 14L34 14L34 15L33 15L33 17L34 17L34 16L35 16L35 19L34 19L34 18L32 18L32 19L31 19L31 20L29 20L29 18L28 18L28 19L27 19L27 20L26 20L26 22L27 22L27 23L25 23L25 21L23 21L23 24L22 24L22 23L21 23L21 25L20 25L20 23L19 23L19 22L18 22L18 23L17 23L17 25L15 25L15 24L14 24L14 26L15 26L15 27L16 27L16 26L17 26L17 25L18 25L18 27L19 27L19 25L20 25L20 27L21 27L21 29L20 29L20 28L16 28L16 29L18 29L18 30L19 30L19 29L20 29L20 30L22 30L22 32L20 32L20 33L19 33L19 32L18 32L18 33L17 33L17 34L19 34L19 35L18 35L18 36L16 36L16 37L15 37L15 39L16 39L16 37L17 37L17 38L18 38L18 39L19 39L19 40L20 40L20 42L19 42L19 43L21 43L21 42L22 42L22 43L24 43L24 45L23 45L23 46L27 46L27 47L29 47L29 49L30 49L30 51L31 51L31 52L29 52L29 50L28 50L28 51L25 51L25 52L23 52L23 50L25 50L25 49L26 49L26 50L27 50L27 49L28 49L28 48L26 48L26 47L23 47L23 48L25 48L25 49L23 49L23 50L22 50L22 51L21 51L21 50L20 50L20 51L18 51L18 50L19 50L19 49L18 49L18 50L17 50L17 51L16 51L16 52L17 52L17 53L20 53L20 54L19 54L19 55L16 55L16 53L14 53L14 52L15 52L15 50L16 50L16 49L15 49L15 50L14 50L14 51L13 51L13 50L11 50L11 51L13 51L13 53L14 53L14 54L12 54L12 55L13 55L13 57L15 57L15 59L16 59L16 58L17 58L17 57L19 57L19 58L18 58L18 59L20 59L20 58L21 58L21 57L24 57L24 58L25 58L25 59L26 59L26 57L27 57L27 56L28 56L28 57L29 57L29 58L31 58L31 57L32 57L32 56L33 56L33 55L31 55L31 56L30 56L30 57L29 57L29 55L30 55L30 54L32 54L32 53L31 53L31 52L32 52L32 51L34 51L34 52L35 52L35 54L34 54L34 53L33 53L33 54L34 54L34 56L35 56L35 57L36 57L36 55L37 55L37 54L36 54L36 53L38 53L38 52L39 52L39 53L40 53L40 54L39 54L39 55L38 55L38 56L37 56L37 57L38 57L38 56L39 56L39 57L40 57L40 55L41 55L41 54L42 54L42 55L43 55L43 54L44 54L44 53L45 53L45 50L46 50L46 51L48 51L48 50L46 50L46 49L45 49L45 48L47 48L47 49L50 49L50 50L51 50L51 51L50 51L50 52L51 52L51 53L50 53L50 55L51 55L51 54L52 54L52 52L53 52L53 54L54 54L54 56L56 56L56 53L57 53L57 52L56 52L56 51L57 51L57 50L58 50L58 49L59 49L59 48L62 48L62 45L63 45L63 47L64 47L64 44L65 44L65 42L64 42L64 44L63 44L63 43L62 43L62 42L61 42L61 39L60 39L60 38L58 38L58 40L59 40L59 39L60 39L60 41L59 41L59 42L58 42L58 41L57 41L57 38L56 38L56 39L55 39L55 40L54 40L54 41L53 41L53 42L51 42L51 41L52 41L52 40L50 40L50 39L49 39L49 32L50 32L50 31L49 31L49 32L46 32L46 33L45 33L45 31L46 31L46 29L47 29L47 30L48 30L48 29L50 29L50 28L51 28L51 27L52 27L52 24L53 24L53 26L57 26L57 28L56 28L56 29L57 29L57 30L58 30L58 29L57 29L57 28L58 28L58 25L59 25L59 26L61 26L61 25L59 25L59 24L60 24L60 23L59 23L59 22L58 22L58 21L57 21L57 22L58 22L58 24L56 24L56 23L55 23L55 24L53 24L53 23L52 23L52 24L51 24L51 22L52 22L52 21L50 21L50 18L51 18L51 19L52 19L52 18L51 18L51 17L52 17L52 16L53 16L53 14L54 14L54 15L55 15L55 16L56 16L56 15L57 15L57 14L56 14L56 13L54 13L54 12L55 12L55 11ZM61 11L61 12L60 12L60 13L61 13L61 12L62 12L62 13L63 13L63 12L62 12L62 11ZM28 12L28 14L29 14L29 12ZM66 12L66 13L67 13L67 15L68 15L68 14L69 14L69 13L67 13L67 12ZM12 15L12 16L13 16L13 17L16 17L16 16L13 16L13 15ZM22 15L22 16L19 16L19 17L21 17L21 18L22 18L22 16L23 16L23 15ZM50 15L50 16L52 16L52 15ZM1 16L1 18L2 18L2 19L3 19L3 21L4 21L4 18L3 18L3 17L2 17L2 16ZM8 16L8 17L6 17L6 18L9 18L9 19L6 19L6 20L10 20L10 16ZM40 16L40 19L39 19L39 18L38 18L38 17L36 17L36 19L39 19L39 20L38 20L38 21L37 21L37 20L35 20L35 21L34 21L34 22L35 22L35 23L36 23L36 24L37 24L37 26L36 26L36 27L35 27L35 26L34 26L34 25L33 25L33 26L32 26L32 25L31 25L31 27L26 27L26 26L27 26L27 25L26 25L26 24L25 24L25 25L26 25L26 26L24 26L24 25L21 25L21 26L23 26L23 27L22 27L22 30L23 30L23 29L25 29L25 30L26 30L26 28L31 28L31 27L33 27L33 28L32 28L32 29L30 29L30 30L29 30L29 29L28 29L28 32L26 32L26 31L25 31L25 32L24 32L24 31L23 31L23 32L22 32L22 33L21 33L21 34L20 34L20 35L19 35L19 38L20 38L20 36L22 36L22 38L23 38L23 36L24 36L24 35L23 35L23 33L29 33L29 32L30 32L30 30L31 30L31 31L32 31L32 32L37 32L37 37L33 37L33 38L32 38L32 33L31 33L31 39L32 39L32 40L30 40L30 41L28 41L28 40L29 40L29 39L30 39L30 37L29 37L29 34L28 34L28 35L27 35L27 34L26 34L26 36L28 36L28 40L27 40L27 41L28 41L28 42L27 42L27 43L28 43L28 42L29 42L29 43L30 43L30 44L31 44L31 43L32 43L32 45L36 45L36 47L35 47L35 46L33 46L33 47L32 47L32 46L31 46L31 47L30 47L30 48L32 48L32 49L31 49L31 51L32 51L32 49L33 49L33 50L35 50L35 52L37 52L37 51L38 51L38 49L39 49L39 48L38 48L38 47L37 47L37 45L39 45L39 47L41 47L41 48L40 48L40 51L39 51L39 52L40 52L40 53L41 53L41 52L43 52L43 53L44 53L44 51L43 51L43 50L42 50L42 51L41 51L41 49L42 49L42 45L41 45L41 46L40 46L40 45L39 45L39 44L37 44L37 42L38 42L38 43L41 43L41 44L43 44L43 47L44 47L44 48L43 48L43 49L44 49L44 50L45 50L45 49L44 49L44 48L45 48L45 45L44 45L44 44L43 44L43 43L44 43L44 40L45 40L45 39L43 39L43 38L45 38L45 37L46 37L46 42L45 42L45 44L46 44L46 47L47 47L47 44L48 44L48 42L47 42L47 37L48 37L48 33L46 33L46 34L45 34L45 33L44 33L44 30L45 30L45 29L44 29L44 28L45 28L45 27L44 27L44 28L43 28L43 26L41 26L41 25L42 25L42 24L43 24L43 25L44 25L44 24L45 24L45 23L44 23L44 20L46 20L46 19L47 19L47 20L49 20L49 18L50 18L50 17L49 17L49 18L48 18L48 19L47 19L47 17L46 17L46 19L44 19L44 18L41 18L41 17L42 17L42 16ZM63 17L63 20L64 20L64 17ZM32 19L32 20L31 20L31 21L30 21L30 23L29 23L29 20L27 20L27 21L28 21L28 26L29 26L29 25L30 25L30 24L31 24L31 23L32 23L32 24L33 24L33 23L32 23L32 22L31 22L31 21L32 21L32 20L33 20L33 19ZM41 19L41 21L40 21L40 20L39 20L39 21L40 21L40 22L39 22L39 24L38 24L38 26L37 26L37 27L38 27L38 28L36 28L36 29L33 29L33 31L34 31L34 30L37 30L37 29L38 29L38 31L37 31L37 32L38 32L38 35L39 35L39 34L41 34L41 35L40 35L40 36L38 36L38 37L37 37L37 40L36 40L36 42L37 42L37 40L38 40L38 38L39 38L39 41L38 41L38 42L43 42L43 39L42 39L42 38L43 38L43 37L40 37L40 36L43 36L43 34L44 34L44 37L45 37L45 34L44 34L44 33L40 33L40 31L43 31L43 30L44 30L44 29L43 29L43 28L42 28L42 27L40 27L40 23L41 23L41 22L42 22L42 23L43 23L43 20L42 20L42 19ZM36 21L36 22L37 22L37 21ZM46 21L46 22L47 22L47 21ZM49 21L49 22L48 22L48 23L47 23L47 25L46 25L46 26L47 26L47 25L48 25L48 27L49 27L49 28L50 28L50 27L49 27L49 25L48 25L48 23L50 23L50 21ZM61 22L61 23L62 23L62 22ZM18 23L18 24L19 24L19 23ZM55 24L55 25L56 25L56 24ZM9 26L9 28L10 28L10 30L11 30L11 28L10 28L10 26ZM33 26L33 27L34 27L34 28L35 28L35 27L34 27L34 26ZM63 26L63 27L62 27L62 28L63 28L63 27L64 27L64 26ZM1 27L1 28L2 28L2 27ZM23 27L23 28L24 28L24 27ZM25 27L25 28L26 28L26 27ZM39 27L39 29L40 29L40 30L42 30L42 28L40 28L40 27ZM6 28L6 29L7 29L7 28ZM13 28L13 29L14 29L14 28ZM6 31L6 32L7 32L7 31ZM11 31L11 32L9 32L9 33L11 33L11 34L12 34L12 35L13 35L13 34L12 34L12 31ZM13 32L13 33L14 33L14 32ZM51 32L51 33L50 33L50 35L51 35L51 34L52 34L52 32ZM5 33L5 36L8 36L8 33ZM33 33L33 36L36 36L36 33ZM61 33L61 36L64 36L64 33ZM6 34L6 35L7 35L7 34ZM21 34L21 35L22 35L22 36L23 36L23 35L22 35L22 34ZM34 34L34 35L35 35L35 34ZM46 34L46 37L47 37L47 34ZM62 34L62 35L63 35L63 34ZM5 37L5 38L4 38L4 39L3 39L3 40L4 40L4 41L6 41L6 42L8 42L8 41L6 41L6 40L8 40L8 38L7 38L7 37ZM25 37L25 38L27 38L27 37ZM39 37L39 38L40 38L40 41L41 41L41 38L40 38L40 37ZM6 38L6 39L7 39L7 38ZM34 38L34 40L32 40L32 41L34 41L34 40L35 40L35 39L36 39L36 38ZM4 39L4 40L5 40L5 39ZM21 39L21 41L22 41L22 42L23 42L23 41L24 41L24 42L25 42L25 45L26 45L26 39L24 39L24 40L22 40L22 39ZM24 40L24 41L25 41L25 40ZM30 41L30 42L31 42L31 41ZM49 41L49 43L50 43L50 41ZM10 42L10 43L11 43L11 42ZM33 42L33 44L35 44L35 42ZM54 42L54 43L53 43L53 44L52 44L52 43L51 43L51 44L52 44L52 45L51 45L51 46L52 46L52 47L51 47L51 48L52 48L52 51L51 51L51 52L52 52L52 51L55 51L55 50L53 50L53 49L54 49L54 48L55 48L55 49L56 49L56 47L55 47L55 46L56 46L56 43L57 43L57 44L58 44L58 43L57 43L57 42L56 42L56 43L55 43L55 42ZM59 42L59 45L58 45L58 46L60 46L60 47L61 47L61 45L60 45L60 44L62 44L62 43L60 43L60 42ZM13 43L13 44L14 44L14 43ZM54 43L54 44L53 44L53 47L52 47L52 48L54 48L54 46L55 46L55 45L54 45L54 44L55 44L55 43ZM2 44L2 45L3 45L3 44ZM28 44L28 46L29 46L29 44ZM36 44L36 45L37 45L37 44ZM49 44L49 45L50 45L50 44ZM14 47L14 48L15 48L15 47ZM33 47L33 49L34 49L34 47ZM36 47L36 48L37 48L37 49L38 49L38 48L37 48L37 47ZM48 47L48 48L49 48L49 47ZM57 48L57 49L58 49L58 48ZM35 49L35 50L36 50L36 49ZM62 49L62 50L64 50L64 49ZM17 51L17 52L18 52L18 51ZM58 51L58 53L59 53L59 51ZM3 52L3 53L4 53L4 54L5 54L5 53L4 53L4 52ZM8 52L8 53L6 53L6 54L7 54L7 55L6 55L6 56L7 56L7 57L6 57L6 58L7 58L7 59L8 59L8 56L9 56L9 52ZM11 52L11 53L12 53L12 52ZM22 52L22 54L21 54L21 55L22 55L22 56L23 56L23 52ZM25 52L25 54L24 54L24 56L25 56L25 57L26 57L26 55L27 55L27 54L26 54L26 52ZM27 52L27 53L28 53L28 55L29 55L29 53L28 53L28 52ZM46 52L46 53L49 53L49 52ZM55 52L55 53L56 53L56 52ZM2 54L2 56L1 56L1 57L2 57L2 56L3 56L3 54ZM14 54L14 55L15 55L15 57L17 57L17 56L16 56L16 55L15 55L15 54ZM35 54L35 55L36 55L36 54ZM7 55L7 56L8 56L8 55ZM19 55L19 57L21 57L21 56L20 56L20 55ZM67 55L67 56L65 56L65 57L68 57L68 58L67 58L67 60L68 60L68 61L69 61L69 60L68 60L68 58L69 58L69 57L68 57L68 56L69 56L69 55ZM51 56L51 57L50 57L50 58L49 58L49 59L50 59L50 58L51 58L51 57L52 57L52 56ZM46 57L46 58L47 58L47 57ZM22 58L22 59L21 59L21 61L20 61L20 62L19 62L19 64L20 64L20 62L22 62L22 59L23 59L23 62L25 62L25 63L26 63L26 64L27 64L27 62L28 62L28 61L27 61L27 60L26 60L26 62L25 62L25 61L24 61L24 59L23 59L23 58ZM42 58L42 61L43 61L43 62L42 62L42 63L43 63L43 62L44 62L44 59L45 59L45 58ZM55 58L55 61L56 61L56 62L57 62L57 61L56 61L56 60L57 60L57 59L56 59L56 58ZM46 59L46 60L47 60L47 59ZM61 59L61 60L62 60L62 59ZM3 60L3 61L5 61L5 60ZM18 60L18 61L19 61L19 60ZM12 61L12 63L10 63L10 65L11 65L11 64L12 64L12 63L13 63L13 61ZM33 61L33 64L36 64L36 61ZM61 61L61 64L64 64L64 61ZM31 62L31 63L32 63L32 62ZM34 62L34 63L35 63L35 62ZM62 62L62 63L63 63L63 62ZM31 64L31 65L32 65L32 66L33 66L33 65L32 65L32 64ZM25 66L25 68L26 68L26 66ZM11 67L11 68L12 68L12 67ZM29 67L29 69L31 69L31 68L30 68L30 67ZM55 67L55 68L56 68L56 69L57 69L57 68L56 68L56 67ZM36 68L36 69L37 69L37 68ZM65 68L65 69L67 69L67 68ZM68 68L68 69L69 69L69 68ZM0 0L0 7L7 7L7 0ZM1 1L1 6L6 6L6 1ZM2 2L2 5L5 5L5 2ZM62 0L62 7L69 7L69 0ZM63 1L63 6L68 6L68 1ZM64 2L64 5L67 5L67 2ZM0 62L0 69L7 69L7 62ZM1 63L1 68L6 68L6 63ZM2 64L2 67L5 67L5 64Z" fill="#000000"/></g></g></svg>
