<?xml version="1.0" encoding="UTF-8"?>
<svg xmlns="http://www.w3.org/2000/svg" version="1.1" width="300" height="300" viewBox="0 0 300 300"><rect x="0" y="0" width="300" height="300" fill="#ffffff"/><g transform="scale(4.348)"><g transform="translate(0,0)"><path fill-rule="evenodd" d="M9 0L9 1L8 1L8 2L9 2L9 1L10 1L10 3L11 3L11 4L10 4L10 7L9 7L9 5L8 5L8 7L9 7L9 8L6 8L6 9L5 9L5 8L0 8L0 10L1 10L1 9L2 9L2 12L0 12L0 15L1 15L1 13L2 13L2 19L1 19L1 20L2 20L2 21L0 21L0 22L1 22L1 23L0 23L0 29L2 29L2 31L0 31L0 32L3 32L3 29L2 29L2 28L1 28L1 27L2 27L2 26L3 26L3 23L4 23L4 24L5 24L5 23L7 23L7 24L6 24L6 25L7 25L7 26L5 26L5 25L4 25L4 27L3 27L3 28L4 28L4 27L5 27L5 28L6 28L6 29L7 29L7 30L4 30L4 35L3 35L3 33L1 33L1 35L0 35L0 38L1 38L1 37L2 37L2 39L3 39L3 36L4 36L4 39L5 39L5 37L8 37L8 38L6 38L6 39L7 39L7 40L6 40L6 41L5 41L5 42L4 42L4 40L3 40L3 41L2 41L2 42L4 42L4 43L2 43L2 44L0 44L0 45L1 45L1 48L2 48L2 44L3 44L3 46L4 46L4 44L6 44L6 45L5 45L5 46L6 46L6 47L8 47L8 48L5 48L5 49L7 49L7 50L6 50L6 51L7 51L7 52L4 52L4 47L3 47L3 49L0 49L0 52L1 52L1 50L3 50L3 51L2 51L2 53L1 53L1 54L3 54L3 53L4 53L4 54L5 54L5 56L6 56L6 57L8 57L8 58L9 58L9 57L11 57L11 59L10 59L10 60L9 60L9 59L7 59L7 58L5 58L5 57L3 57L3 58L2 58L2 59L3 59L3 58L4 58L4 59L7 59L7 60L6 60L6 61L8 61L8 63L9 63L9 61L10 61L10 62L11 62L11 64L10 64L10 65L11 65L11 67L12 67L12 68L13 68L13 69L16 69L16 68L15 68L15 65L17 65L17 66L16 66L16 67L17 67L17 69L22 69L22 68L23 68L23 69L26 69L26 68L27 68L27 69L28 69L28 68L29 68L29 69L32 69L32 68L30 68L30 67L33 67L33 65L35 65L35 66L34 66L34 68L36 68L36 69L38 69L38 68L37 68L37 66L38 66L38 67L39 67L39 66L38 66L38 65L39 65L39 64L41 64L41 66L40 66L40 67L41 67L41 68L42 68L42 69L44 69L44 68L47 68L47 69L50 69L50 68L48 68L48 66L49 66L49 67L50 67L50 65L49 65L49 63L48 63L48 64L47 64L47 65L48 65L48 66L46 66L46 64L45 64L45 63L44 63L44 62L45 62L45 61L46 61L46 60L47 60L47 62L50 62L50 60L51 60L51 58L52 58L52 60L53 60L53 62L52 62L52 61L51 61L51 63L50 63L50 64L51 64L51 63L53 63L53 62L56 62L56 64L55 64L55 63L54 63L54 64L55 64L55 65L52 65L52 66L51 66L51 68L52 68L52 66L55 66L55 65L56 65L56 66L57 66L57 65L58 65L58 64L59 64L59 69L60 69L60 68L61 68L61 69L62 69L62 67L63 67L63 68L64 68L64 69L65 69L65 68L67 68L67 69L68 69L68 68L67 68L67 65L68 65L68 64L67 64L67 63L68 63L68 62L69 62L69 61L68 61L68 62L67 62L67 61L66 61L66 60L67 60L67 59L68 59L68 60L69 60L69 59L68 59L68 57L67 57L67 58L66 58L66 57L65 57L65 58L63 58L63 60L62 60L62 58L61 58L61 57L62 57L62 56L69 56L69 55L67 55L67 54L69 54L69 53L66 53L66 52L68 52L68 50L69 50L69 47L68 47L68 46L69 46L69 45L68 45L68 44L67 44L67 43L68 43L68 42L69 42L69 41L67 41L67 39L68 39L68 36L69 36L69 35L68 35L68 34L69 34L69 32L68 32L68 34L67 34L67 33L66 33L66 32L67 32L67 31L68 31L68 30L69 30L69 27L68 27L68 26L69 26L69 24L68 24L68 18L69 18L69 15L68 15L68 14L65 14L65 13L63 13L63 11L62 11L62 8L61 8L61 6L60 6L60 9L59 9L59 10L57 10L57 9L56 9L56 8L57 8L57 6L56 6L56 8L54 8L54 9L52 9L52 10L51 10L51 11L50 11L50 9L51 9L51 8L53 8L53 6L54 6L54 7L55 7L55 5L56 5L56 3L55 3L55 4L53 4L53 5L52 5L52 4L51 4L51 3L52 3L52 2L55 2L55 0L53 0L53 1L52 1L52 0L51 0L51 3L50 3L50 0L49 0L49 1L48 1L48 2L47 2L47 1L46 1L46 0L44 0L44 1L46 1L46 2L47 2L47 4L49 4L49 5L47 5L47 6L46 6L46 5L44 5L44 3L45 3L45 4L46 4L46 3L45 3L45 2L44 2L44 3L42 3L42 2L43 2L43 0L39 0L39 1L38 1L38 0L35 0L35 1L34 1L34 2L36 2L36 3L35 3L35 4L32 4L32 3L33 3L33 2L32 2L32 3L29 3L29 1L30 1L30 2L31 2L31 1L30 1L30 0L28 0L28 1L27 1L27 2L26 2L26 1L25 1L25 0L21 0L21 1L24 1L24 3L25 3L25 4L21 4L21 3L23 3L23 2L21 2L21 3L20 3L20 4L19 4L19 2L20 2L20 1L19 1L19 0L15 0L15 2L13 2L13 1L14 1L14 0L12 0L12 1L10 1L10 0ZM56 0L56 1L57 1L57 4L58 4L58 7L59 7L59 4L58 4L58 3L59 3L59 2L58 2L58 1L61 1L61 0L58 0L58 1L57 1L57 0ZM16 1L16 2L15 2L15 3L12 3L12 2L11 2L11 3L12 3L12 4L11 4L11 5L12 5L12 4L13 4L13 5L16 5L16 6L15 6L15 8L14 8L14 6L13 6L13 7L12 7L12 6L11 6L11 7L10 7L10 8L9 8L9 9L8 9L8 10L10 10L10 12L11 12L11 14L10 14L10 15L9 15L9 12L8 12L8 11L6 11L6 10L7 10L7 9L6 9L6 10L5 10L5 14L7 14L7 15L5 15L5 16L4 16L4 17L3 17L3 18L4 18L4 19L2 19L2 20L4 20L4 22L5 22L5 21L6 21L6 22L7 22L7 21L6 21L6 20L7 20L7 19L5 19L5 17L6 17L6 18L8 18L8 19L9 19L9 18L10 18L10 19L12 19L12 21L11 21L11 23L9 23L9 22L10 22L10 20L8 20L8 25L9 25L9 24L10 24L10 25L11 25L11 26L12 26L12 27L11 27L11 28L10 28L10 27L9 27L9 26L8 26L8 27L6 27L6 28L8 28L8 29L9 29L9 28L10 28L10 29L11 29L11 28L12 28L12 27L13 27L13 26L14 26L14 25L12 25L12 24L14 24L14 22L15 22L15 24L16 24L16 25L15 25L15 26L16 26L16 25L17 25L17 24L19 24L19 25L20 25L20 26L18 26L18 28L19 28L19 29L20 29L20 30L21 30L21 29L22 29L22 30L23 30L23 28L24 28L24 29L25 29L25 30L31 30L31 29L32 29L32 28L31 28L31 27L33 27L33 30L32 30L32 32L31 32L31 31L27 31L27 32L28 32L28 33L25 33L25 32L26 32L26 31L24 31L24 33L23 33L23 32L22 32L22 31L20 31L20 33L19 33L19 34L20 34L20 35L18 35L18 34L17 34L17 33L18 33L18 32L16 32L16 33L15 33L15 34L17 34L17 35L15 35L15 36L13 36L13 37L15 37L15 38L14 38L14 39L13 39L13 38L12 38L12 37L11 37L11 38L8 38L8 40L9 40L9 39L10 39L10 41L9 41L9 42L8 42L8 41L6 41L6 42L7 42L7 43L6 43L6 44L7 44L7 43L9 43L9 44L8 44L8 46L9 46L9 48L8 48L8 49L10 49L10 51L9 51L9 50L7 50L7 51L9 51L9 52L7 52L7 53L6 53L6 54L8 54L8 53L9 53L9 52L10 52L10 51L12 51L12 52L13 52L13 51L14 51L14 49L15 49L15 50L18 50L18 49L21 49L21 50L22 50L22 49L26 49L26 51L25 51L25 52L26 52L26 53L25 53L25 55L24 55L24 54L23 54L23 56L25 56L25 55L26 55L26 57L27 57L27 58L26 58L26 59L27 59L27 60L26 60L26 62L27 62L27 63L28 63L28 65L25 65L25 64L26 64L26 63L25 63L25 62L23 62L23 61L25 61L25 60L24 60L24 59L23 59L23 58L24 58L24 57L22 57L22 56L21 56L21 55L22 55L22 54L21 54L21 53L23 53L23 52L24 52L24 51L23 51L23 52L19 52L19 53L18 53L18 51L17 51L17 52L15 52L15 54L17 54L17 55L18 55L18 54L19 54L19 55L20 55L20 56L19 56L19 57L20 57L20 60L21 60L21 61L18 61L18 60L19 60L19 59L18 59L18 60L16 60L16 59L15 59L15 58L16 58L16 57L17 57L17 56L16 56L16 57L14 57L14 59L15 59L15 60L13 60L13 59L11 59L11 62L12 62L12 67L13 67L13 68L14 68L14 67L13 67L13 66L14 66L14 65L15 65L15 63L16 63L16 64L17 64L17 65L18 65L18 64L17 64L17 63L18 63L18 62L20 62L20 65L19 65L19 66L20 66L20 67L19 67L19 68L22 68L22 67L23 67L23 68L26 68L26 67L25 67L25 66L28 66L28 65L29 65L29 66L30 66L30 65L29 65L29 64L30 64L30 63L32 63L32 61L31 61L31 62L29 62L29 60L31 60L31 59L32 59L32 60L33 60L33 58L34 58L34 59L35 59L35 60L36 60L36 59L37 59L37 58L36 58L36 57L37 57L37 56L39 56L39 57L38 57L38 62L37 62L37 65L38 65L38 64L39 64L39 63L41 63L41 64L44 64L44 66L41 66L41 67L43 67L43 68L44 68L44 66L45 66L45 67L46 67L46 66L45 66L45 64L44 64L44 63L42 63L42 62L41 62L41 60L42 60L42 61L43 61L43 60L44 60L44 61L45 61L45 60L46 60L46 59L47 59L47 60L50 60L50 58L51 58L51 57L54 57L54 56L51 56L51 57L50 57L50 55L52 55L52 54L54 54L54 55L55 55L55 56L56 56L56 57L55 57L55 59L56 59L56 62L59 62L59 64L60 64L60 62L59 62L59 61L60 61L60 60L61 60L61 58L60 58L60 57L61 57L61 56L59 56L59 55L61 55L61 54L62 54L62 55L66 55L66 54L65 54L65 52L66 52L66 51L67 51L67 50L66 50L66 49L68 49L68 47L67 47L67 48L63 48L63 46L65 46L65 47L66 47L66 44L65 44L65 42L67 42L67 41L66 41L66 40L65 40L65 41L64 41L64 40L62 40L62 39L65 39L65 37L67 37L67 36L68 36L68 35L67 35L67 34L66 34L66 35L67 35L67 36L65 36L65 37L64 37L64 38L62 38L62 39L60 39L60 40L56 40L56 39L55 39L55 38L56 38L56 37L57 37L57 39L59 39L59 38L60 38L60 37L58 37L58 36L60 36L60 35L58 35L58 34L60 34L60 33L58 33L58 32L57 32L57 31L58 31L58 30L59 30L59 31L60 31L60 30L59 30L59 29L57 29L57 28L58 28L58 26L59 26L59 27L61 27L61 26L64 26L64 28L63 28L63 27L62 27L62 28L63 28L63 29L62 29L62 31L61 31L61 32L62 32L62 31L63 31L63 32L64 32L64 31L67 31L67 30L68 30L68 27L67 27L67 26L68 26L68 24L63 24L63 21L66 21L66 20L65 20L65 18L63 18L63 17L66 17L66 18L67 18L67 17L66 17L66 16L65 16L65 15L64 15L64 14L63 14L63 13L62 13L62 15L61 15L61 14L59 14L59 13L61 13L61 11L60 11L60 10L59 10L59 12L58 12L58 11L57 11L57 10L56 10L56 9L55 9L55 10L52 10L52 11L51 11L51 13L50 13L50 12L49 12L49 10L47 10L47 7L48 7L48 6L47 6L47 7L46 7L46 6L45 6L45 7L44 7L44 5L43 5L43 7L42 7L42 5L41 5L41 4L42 4L42 3L41 3L41 2L42 2L42 1L41 1L41 2L40 2L40 3L39 3L39 2L38 2L38 1L37 1L37 3L38 3L38 4L37 4L37 5L38 5L38 6L37 6L37 7L38 7L38 6L39 6L39 7L40 7L40 6L41 6L41 8L38 8L38 10L40 10L40 12L38 12L38 14L39 14L39 15L40 15L40 16L39 16L39 17L38 17L38 15L37 15L37 17L36 17L36 18L37 18L37 17L38 17L38 19L39 19L39 20L40 20L40 21L39 21L39 22L37 22L37 23L36 23L36 25L38 25L38 26L41 26L41 25L42 25L42 24L38 24L38 23L39 23L39 22L40 22L40 21L43 21L43 20L44 20L44 22L42 22L42 23L43 23L43 24L44 24L44 25L43 25L43 26L46 26L46 27L47 27L47 28L49 28L49 27L48 27L48 26L49 26L49 25L50 25L50 28L52 28L52 29L50 29L50 30L49 30L49 29L48 29L48 30L49 30L49 31L47 31L47 32L49 32L49 33L50 33L50 34L48 34L48 33L45 33L45 32L46 32L46 31L45 31L45 30L47 30L47 29L45 29L45 27L43 27L43 28L44 28L44 29L43 29L43 30L42 30L42 27L39 27L39 28L40 28L40 29L38 29L38 27L37 27L37 29L38 29L38 30L37 30L37 31L35 31L35 32L38 32L38 35L37 35L37 36L38 36L38 37L36 37L36 38L38 38L38 39L37 39L37 40L35 40L35 39L34 39L34 38L35 38L35 37L34 37L34 38L33 38L33 37L32 37L32 38L30 38L30 37L29 37L29 36L28 36L28 35L26 35L26 34L28 34L28 33L30 33L30 34L29 34L29 35L30 35L30 34L31 34L31 36L32 36L32 32L34 32L34 31L33 31L33 30L34 30L34 29L36 29L36 28L35 28L35 27L36 27L36 26L35 26L35 23L32 23L32 24L31 24L31 26L30 26L30 27L28 27L28 29L27 29L27 28L26 28L26 29L25 29L25 28L24 28L24 27L23 27L23 28L21 28L21 29L20 29L20 28L19 28L19 27L20 27L20 26L21 26L21 27L22 27L22 26L24 26L24 25L22 25L22 24L21 24L21 23L22 23L22 22L23 22L23 23L24 23L24 24L25 24L25 23L24 23L24 22L23 22L23 21L24 21L24 19L22 19L22 18L21 18L21 19L22 19L22 20L20 20L20 22L19 22L19 21L18 21L18 22L19 22L19 23L17 23L17 21L14 21L14 20L13 20L13 19L12 19L12 18L13 18L13 16L14 16L14 15L15 15L15 11L16 11L16 12L17 12L17 11L16 11L16 10L15 10L15 8L16 8L16 9L17 9L17 7L18 7L18 5L19 5L19 8L20 8L20 10L18 10L18 11L19 11L19 13L20 13L20 14L21 14L21 13L22 13L22 15L19 15L19 14L18 14L18 13L16 13L16 15L17 15L17 16L18 16L18 17L16 17L16 16L15 16L15 18L14 18L14 19L15 19L15 20L18 20L18 19L15 19L15 18L18 18L18 17L23 17L23 18L24 18L24 17L26 17L26 19L25 19L25 20L26 20L26 21L25 21L25 22L26 22L26 25L25 25L25 27L27 27L27 26L29 26L29 25L30 25L30 24L28 24L28 23L30 23L30 22L33 22L33 20L35 20L35 21L34 21L34 22L35 22L35 21L38 21L38 20L35 20L35 16L36 16L36 15L35 15L35 14L36 14L36 13L37 13L37 10L36 10L36 9L34 9L34 10L32 10L32 8L31 8L31 7L32 7L32 5L30 5L30 4L29 4L29 3L28 3L28 2L27 2L27 3L26 3L26 4L25 4L25 7L24 7L24 6L23 6L23 5L22 5L22 6L21 6L21 7L20 7L20 5L21 5L21 4L20 4L20 5L19 5L19 4L15 4L15 3L16 3L16 2L17 2L17 3L18 3L18 2L19 2L19 1L18 1L18 2L17 2L17 1ZM48 2L48 3L49 3L49 4L50 4L50 5L51 5L51 7L52 7L52 5L51 5L51 4L50 4L50 3L49 3L49 2ZM8 3L8 4L9 4L9 3ZM27 3L27 4L28 4L28 3ZM60 3L60 5L61 5L61 3ZM26 5L26 7L25 7L25 8L24 8L24 7L23 7L23 6L22 6L22 7L23 7L23 8L24 8L24 9L23 9L23 10L22 10L22 11L23 11L23 12L24 12L24 13L23 13L23 14L27 14L27 16L29 16L29 20L28 20L28 19L27 19L27 21L26 21L26 22L27 22L27 21L29 21L29 22L30 22L30 21L31 21L31 19L33 19L33 17L32 17L32 16L31 16L31 15L33 15L33 16L34 16L34 15L33 15L33 14L34 14L34 13L36 13L36 12L34 12L34 11L33 11L33 12L34 12L34 13L33 13L33 14L30 14L30 15L28 15L28 14L27 14L27 13L25 13L25 12L26 12L26 10L27 10L27 12L29 12L29 13L32 13L32 12L29 12L29 10L27 10L27 9L28 9L28 8L29 8L29 9L30 9L30 10L31 10L31 11L32 11L32 10L31 10L31 9L30 9L30 8L29 8L29 6L30 6L30 7L31 7L31 6L30 6L30 5L29 5L29 6L28 6L28 8L27 8L27 5ZM33 5L33 8L36 8L36 5ZM39 5L39 6L40 6L40 5ZM16 6L16 7L17 7L17 6ZM34 6L34 7L35 7L35 6ZM49 6L49 7L50 7L50 6ZM45 7L45 9L44 9L44 8L43 8L43 9L40 9L40 10L41 10L41 12L40 12L40 13L39 13L39 14L40 14L40 15L42 15L42 14L43 14L43 13L44 13L44 14L45 14L45 13L44 13L44 12L46 12L46 13L47 13L47 14L50 14L50 13L49 13L49 12L46 12L46 11L44 11L44 12L43 12L43 13L42 13L42 14L41 14L41 12L42 12L42 10L45 10L45 9L46 9L46 7ZM10 8L10 10L12 10L12 9L11 9L11 8ZM21 8L21 9L22 9L22 8ZM26 8L26 9L24 9L24 10L23 10L23 11L24 11L24 12L25 12L25 10L26 10L26 9L27 9L27 8ZM49 8L49 9L50 9L50 8ZM63 8L63 10L64 10L64 11L65 11L65 12L68 12L68 13L69 13L69 11L68 11L68 10L69 10L69 9L68 9L68 8L67 8L67 9L66 9L66 8L65 8L65 10L64 10L64 8ZM3 9L3 11L4 11L4 9ZM13 9L13 12L14 12L14 11L15 11L15 10L14 10L14 9ZM35 10L35 11L36 11L36 10ZM65 10L65 11L66 11L66 10ZM11 11L11 12L12 12L12 11ZM20 11L20 13L21 13L21 11ZM53 11L53 12L55 12L55 13L53 13L53 14L55 14L55 15L53 15L53 16L55 16L55 17L53 17L53 18L54 18L54 19L55 19L55 20L53 20L53 19L51 19L51 18L49 18L49 16L50 16L50 15L49 15L49 16L48 16L48 15L44 15L44 16L42 16L42 17L41 17L41 18L39 18L39 19L40 19L40 20L42 20L42 19L43 19L43 17L44 17L44 16L48 16L48 18L44 18L44 19L48 19L48 20L46 20L46 21L49 21L49 22L47 22L47 24L46 24L46 22L44 22L44 23L45 23L45 24L46 24L46 25L47 25L47 26L48 26L48 25L49 25L49 24L48 24L48 23L50 23L50 25L51 25L51 27L52 27L52 28L53 28L53 30L51 30L51 31L52 31L52 32L50 32L50 33L52 33L52 32L53 32L53 30L55 30L55 29L56 29L56 31L55 31L55 33L53 33L53 34L55 34L55 33L56 33L56 35L53 35L53 36L54 36L54 37L53 37L53 38L55 38L55 37L56 37L56 35L57 35L57 36L58 36L58 35L57 35L57 34L58 34L58 33L56 33L56 31L57 31L57 29L56 29L56 28L55 28L55 29L54 29L54 27L57 27L57 26L58 26L58 25L57 25L57 26L56 26L56 23L57 23L57 22L58 22L58 24L59 24L59 22L58 22L58 21L57 21L57 22L56 22L56 21L55 21L55 20L58 20L58 18L57 18L57 19L55 19L55 17L56 17L56 15L58 15L58 14L56 14L56 12L57 12L57 11ZM2 12L2 13L3 13L3 15L4 15L4 12ZM6 12L6 13L8 13L8 12ZM51 13L51 16L52 16L52 13ZM12 14L12 15L14 15L14 14ZM17 14L17 15L18 15L18 14ZM7 15L7 16L6 16L6 17L8 17L8 15ZM10 15L10 16L9 16L9 17L10 17L10 18L11 18L11 15ZM22 15L22 16L23 16L23 17L24 17L24 16L23 16L23 15ZM25 15L25 16L26 16L26 15ZM62 15L62 16L59 16L59 19L61 19L61 18L62 18L62 19L63 19L63 20L64 20L64 19L63 19L63 18L62 18L62 16L64 16L64 15ZM67 15L67 16L68 16L68 15ZM0 16L0 18L1 18L1 16ZM57 16L57 17L58 17L58 16ZM27 17L27 18L28 18L28 17ZM31 17L31 18L30 18L30 19L31 19L31 18L32 18L32 17ZM19 18L19 19L20 19L20 18ZM49 19L49 21L50 21L50 23L51 23L51 21L53 21L53 20L51 20L51 21L50 21L50 19ZM29 20L29 21L30 21L30 20ZM59 20L59 21L60 21L60 22L61 22L61 23L60 23L60 24L61 24L61 25L59 25L59 26L61 26L61 25L62 25L62 24L61 24L61 23L62 23L62 21L60 21L60 20ZM12 22L12 23L13 23L13 22ZM20 22L20 23L21 23L21 22ZM52 22L52 23L53 23L53 22ZM55 22L55 23L56 23L56 22ZM66 22L66 23L67 23L67 22ZM1 23L1 26L2 26L2 23ZM16 23L16 24L17 24L17 23ZM27 24L27 25L26 25L26 26L27 26L27 25L28 25L28 24ZM32 24L32 26L33 26L33 27L34 27L34 25L33 25L33 24ZM47 24L47 25L48 25L48 24ZM51 24L51 25L54 25L54 24ZM21 25L21 26L22 26L22 25ZM64 25L64 26L65 26L65 29L66 29L66 28L67 28L67 27L66 27L66 26L65 26L65 25ZM52 26L52 27L53 27L53 26ZM14 27L14 30L13 30L13 29L12 29L12 30L11 30L11 32L12 32L12 33L10 33L10 32L9 32L9 30L7 30L7 31L6 31L6 32L9 32L9 33L10 33L10 35L9 35L9 36L10 36L10 35L11 35L11 34L12 34L12 35L14 35L14 34L12 34L12 33L13 33L13 32L12 32L12 30L13 30L13 31L15 31L15 30L17 30L17 31L18 31L18 29L15 29L15 28L16 28L16 27ZM29 28L29 29L31 29L31 28ZM44 29L44 30L43 30L43 31L40 31L40 30L39 30L39 31L38 31L38 32L43 32L43 33L40 33L40 35L39 35L39 36L41 36L41 34L43 34L43 33L44 33L44 36L43 36L43 37L41 37L41 38L40 38L40 37L39 37L39 39L38 39L38 41L37 41L37 43L34 43L34 44L35 44L35 45L37 45L37 46L36 46L36 47L35 47L35 46L32 46L32 47L35 47L35 48L36 48L36 47L37 47L37 48L38 48L38 47L39 47L39 48L40 48L40 47L41 47L41 48L42 48L42 49L41 49L41 50L39 50L39 51L37 51L37 50L38 50L38 49L37 49L37 50L36 50L36 49L33 49L33 48L32 48L32 49L31 49L31 48L30 48L30 47L31 47L31 45L33 45L33 43L32 43L32 44L31 44L31 43L30 43L30 44L29 44L29 46L30 46L30 47L28 47L28 46L27 46L27 48L29 48L29 49L31 49L31 50L32 50L32 52L28 52L28 51L27 51L27 53L30 53L30 55L29 55L29 54L26 54L26 55L27 55L27 56L30 56L30 57L29 57L29 59L31 59L31 58L33 58L33 57L31 57L31 56L35 56L35 57L36 57L36 56L37 56L37 55L31 55L31 54L33 54L33 53L34 53L34 52L33 52L33 51L34 51L34 50L36 50L36 51L35 51L35 52L36 52L36 53L37 53L37 54L39 54L39 52L40 52L40 51L41 51L41 52L43 52L43 53L41 53L41 55L39 55L39 56L41 56L41 57L39 57L39 62L38 62L38 63L39 63L39 62L40 62L40 59L41 59L41 58L42 58L42 60L43 60L43 57L44 57L44 56L46 56L46 57L47 57L47 58L48 58L48 59L49 59L49 58L50 58L50 57L49 57L49 56L48 56L48 55L50 55L50 53L49 53L49 52L50 52L50 51L51 51L51 52L52 52L52 50L53 50L53 53L54 53L54 54L55 54L55 55L56 55L56 56L57 56L57 55L56 55L56 54L58 54L58 55L59 55L59 54L60 54L60 53L59 53L59 54L58 54L58 52L57 52L57 51L59 51L59 52L61 52L61 51L62 51L62 53L64 53L64 52L63 52L63 51L62 51L62 50L63 50L63 49L62 49L62 50L61 50L61 48L62 48L62 45L61 45L61 44L60 44L60 45L59 45L59 43L58 43L58 42L57 42L57 41L56 41L56 40L55 40L55 39L52 39L52 40L53 40L53 41L52 41L52 42L53 42L53 43L54 43L54 44L55 44L55 45L53 45L53 46L52 46L52 45L51 45L51 44L50 44L50 41L51 41L51 40L50 40L50 37L51 37L51 38L52 38L52 37L51 37L51 36L50 36L50 35L47 35L47 36L45 36L45 33L44 33L44 32L45 32L45 31L44 31L44 30L45 30L45 29ZM63 29L63 30L64 30L64 29ZM43 31L43 32L44 32L44 31ZM30 32L30 33L31 33L31 32ZM5 33L5 36L8 36L8 33ZM21 33L21 36L18 36L18 35L17 35L17 36L15 36L15 37L17 37L17 38L15 38L15 39L17 39L17 38L18 38L18 39L19 39L19 40L17 40L17 43L18 43L18 44L16 44L16 43L15 43L15 45L19 45L19 48L20 48L20 45L19 45L19 44L24 44L24 45L23 45L23 46L22 46L22 47L21 47L21 49L22 49L22 47L24 47L24 46L26 46L26 43L29 43L29 42L28 42L28 41L30 41L30 42L31 42L31 41L30 41L30 40L29 40L29 39L30 39L30 38L29 38L29 39L28 39L28 38L26 38L26 36L25 36L25 37L21 37L21 36L24 36L24 35L25 35L25 33L24 33L24 34L23 34L23 33ZM33 33L33 36L36 36L36 33ZM61 33L61 36L64 36L64 33ZM6 34L6 35L7 35L7 34ZM34 34L34 35L35 35L35 34ZM62 34L62 35L63 35L63 34ZM27 36L27 37L28 37L28 36ZM44 36L44 37L45 37L45 38L47 38L47 40L45 40L45 39L42 39L42 38L41 38L41 40L39 40L39 41L38 41L38 43L37 43L37 45L38 45L38 46L39 46L39 47L40 47L40 46L39 46L39 45L40 45L40 44L41 44L41 43L40 43L40 41L41 41L41 40L44 40L44 42L43 42L43 44L44 44L44 46L42 46L42 45L41 45L41 46L42 46L42 48L43 48L43 47L44 47L44 49L43 49L43 50L44 50L44 49L45 49L45 52L44 52L44 51L43 51L43 52L44 52L44 53L43 53L43 56L42 56L42 57L43 57L43 56L44 56L44 53L45 53L45 54L46 54L46 56L47 56L47 57L48 57L48 56L47 56L47 53L45 53L45 52L46 52L46 51L48 51L48 50L47 50L47 47L48 47L48 48L49 48L49 49L50 49L50 50L51 50L51 49L54 49L54 48L56 48L56 49L55 49L55 50L56 50L56 49L57 49L57 50L59 50L59 49L60 49L60 48L61 48L61 47L60 47L60 46L59 46L59 45L57 45L57 44L56 44L56 46L55 46L55 47L52 47L52 48L51 48L51 49L50 49L50 48L49 48L49 47L50 47L50 46L51 46L51 45L50 45L50 44L49 44L49 43L48 43L48 42L49 42L49 41L50 41L50 40L49 40L49 39L48 39L48 38L49 38L49 37L50 37L50 36L49 36L49 37L48 37L48 38L47 38L47 37L45 37L45 36ZM19 37L19 38L20 38L20 39L21 39L21 40L19 40L19 41L20 41L20 42L19 42L19 43L20 43L20 42L23 42L23 43L24 43L24 44L25 44L25 42L27 42L27 41L28 41L28 39L27 39L27 40L26 40L26 41L24 41L24 40L25 40L25 39L26 39L26 38L22 38L22 39L21 39L21 37ZM11 38L11 40L13 40L13 41L10 41L10 43L13 43L13 41L14 41L14 40L13 40L13 39L12 39L12 38ZM31 39L31 40L32 40L32 42L33 42L33 41L34 41L34 42L35 42L35 41L34 41L34 39L33 39L33 40L32 40L32 39ZM21 40L21 41L22 41L22 40ZM47 40L47 42L46 42L46 44L45 44L45 45L46 45L46 44L47 44L47 46L45 46L45 49L46 49L46 47L47 47L47 46L50 46L50 45L49 45L49 44L48 44L48 43L47 43L47 42L48 42L48 41L49 41L49 40ZM54 40L54 41L55 41L55 42L54 42L54 43L57 43L57 42L56 42L56 41L55 41L55 40ZM60 40L60 41L59 41L59 42L60 42L60 43L62 43L62 42L61 42L61 41L62 41L62 40ZM0 41L0 42L1 42L1 41ZM15 41L15 42L16 42L16 41ZM23 41L23 42L24 42L24 41ZM44 42L44 43L45 43L45 42ZM38 43L38 45L39 45L39 44L40 44L40 43ZM9 44L9 45L10 45L10 47L12 47L12 48L10 48L10 49L12 49L12 50L13 50L13 47L14 47L14 48L17 48L17 49L18 49L18 48L17 48L17 47L18 47L18 46L17 46L17 47L14 47L14 44L13 44L13 45L12 45L12 44L11 44L11 45L10 45L10 44ZM27 44L27 45L28 45L28 44ZM6 45L6 46L7 46L7 45ZM11 45L11 46L12 46L12 45ZM67 45L67 46L68 46L68 45ZM56 46L56 47L57 47L57 48L58 48L58 47L59 47L59 46ZM25 47L25 48L26 48L26 47ZM27 49L27 50L28 50L28 49ZM32 49L32 50L33 50L33 49ZM19 50L19 51L20 51L20 50ZM29 50L29 51L30 51L30 50ZM41 50L41 51L42 51L42 50ZM60 50L60 51L61 51L61 50ZM65 50L65 51L66 51L66 50ZM55 51L55 52L54 52L54 53L55 53L55 54L56 54L56 53L57 53L57 52L56 52L56 51ZM32 52L32 53L33 53L33 52ZM37 52L37 53L38 53L38 52ZM55 52L55 53L56 53L56 52ZM10 53L10 54L11 54L11 53ZM12 53L12 54L13 54L13 55L11 55L11 57L12 57L12 58L13 58L13 56L14 56L14 53ZM17 53L17 54L18 54L18 53ZM19 53L19 54L20 54L20 53ZM48 53L48 54L49 54L49 53ZM2 55L2 56L4 56L4 55ZM6 55L6 56L7 56L7 55ZM0 56L0 61L1 61L1 56ZM20 56L20 57L21 57L21 58L22 58L22 57L21 57L21 56ZM27 58L27 59L28 59L28 58ZM35 58L35 59L36 59L36 58ZM45 58L45 59L44 59L44 60L45 60L45 59L46 59L46 58ZM56 58L56 59L58 59L58 60L57 60L57 61L58 61L58 60L59 60L59 58ZM21 59L21 60L23 60L23 59ZM64 59L64 60L66 60L66 59ZM3 60L3 61L5 61L5 60ZM8 60L8 61L9 61L9 60ZM54 60L54 61L55 61L55 60ZM12 61L12 62L13 62L13 61ZM14 61L14 62L15 62L15 61ZM17 61L17 62L18 62L18 61ZM21 61L21 63L22 63L22 61ZM33 61L33 64L36 64L36 61ZM61 61L61 64L64 64L64 61ZM28 62L28 63L29 63L29 62ZM34 62L34 63L35 63L35 62ZM62 62L62 63L63 63L63 62ZM65 62L65 63L66 63L66 62ZM13 63L13 64L14 64L14 63ZM24 63L24 64L25 64L25 63ZM57 63L57 64L56 64L56 65L57 65L57 64L58 64L58 63ZM8 64L8 69L11 69L11 68L10 68L10 67L9 67L9 64ZM65 64L65 66L64 66L64 65L62 65L62 66L61 66L61 67L62 67L62 66L63 66L63 67L64 67L64 68L65 68L65 67L66 67L66 65L67 65L67 64ZM23 65L23 66L25 66L25 65ZM31 65L31 66L32 66L32 65ZM17 66L17 67L18 67L18 66ZM21 66L21 67L22 67L22 66ZM27 67L27 68L28 68L28 67ZM53 67L53 68L54 68L54 69L56 69L56 68L55 68L55 67ZM57 67L57 68L58 68L58 67ZM0 0L0 7L7 7L7 0ZM1 1L1 6L6 6L6 1ZM2 2L2 5L5 5L5 2ZM62 0L62 7L69 7L69 0ZM63 1L63 6L68 6L68 1ZM64 2L64 5L67 5L67 2ZM0 62L0 69L7 69L7 62ZM1 63L1 68L6 68L6 63ZM2 64L2 67L5 67L5 64Z" fill="#000000"/></g></g></svg>
