<?xml version="1.0" encoding="UTF-8"?>
<svg xmlns="http://www.w3.org/2000/svg" version="1.1" width="300" height="300" viewBox="0 0 300 300"><rect x="0" y="0" width="300" height="300" fill="#ffffff"/><g transform="scale(4.348)"><g transform="translate(0,0)"><path fill-rule="evenodd" d="M8 0L8 2L9 2L9 4L8 4L8 10L6 10L6 11L5 11L5 14L6 14L6 15L5 15L5 16L3 16L3 15L2 15L2 14L3 14L3 13L4 13L4 12L3 12L3 11L4 11L4 9L3 9L3 8L0 8L0 12L1 12L1 13L0 13L0 15L1 15L1 17L0 17L0 20L1 20L1 19L2 19L2 21L1 21L1 22L0 22L0 23L1 23L1 24L0 24L0 26L1 26L1 24L3 24L3 23L1 23L1 22L2 22L2 21L3 21L3 22L4 22L4 23L8 23L8 22L5 22L5 21L9 21L9 22L10 22L10 23L9 23L9 24L10 24L10 25L11 25L11 26L8 26L8 31L7 31L7 30L5 30L5 31L4 31L4 29L5 29L5 27L7 27L7 26L6 26L6 25L8 25L8 24L5 24L5 25L3 25L3 26L2 26L2 27L1 27L1 28L0 28L0 29L1 29L1 31L2 31L2 32L1 32L1 33L0 33L0 36L2 36L2 34L3 34L3 35L4 35L4 38L3 38L3 37L2 37L2 38L3 38L3 39L2 39L2 40L0 40L0 41L1 41L1 42L0 42L0 43L1 43L1 44L2 44L2 45L1 45L1 47L0 47L0 49L4 49L4 50L3 50L3 51L1 51L1 53L0 53L0 56L1 56L1 57L7 57L7 58L4 58L4 59L10 59L10 60L9 60L9 61L8 61L8 62L9 62L9 63L8 63L8 64L9 64L9 63L10 63L10 66L8 66L8 69L9 69L9 68L11 68L11 69L12 69L12 68L11 68L11 67L13 67L13 69L17 69L17 68L18 68L18 69L20 69L20 68L19 68L19 67L18 67L18 65L19 65L19 64L18 64L18 63L19 63L19 62L20 62L20 61L19 61L19 60L18 60L18 62L16 62L16 61L17 61L17 59L16 59L16 58L18 58L18 57L19 57L19 59L20 59L20 60L22 60L22 62L21 62L21 63L20 63L20 65L21 65L21 66L20 66L20 67L21 67L21 66L22 66L22 65L23 65L23 67L22 67L22 69L25 69L25 67L26 67L26 69L29 69L29 67L30 67L30 69L31 69L31 67L30 67L30 66L31 66L31 64L32 64L32 66L34 66L34 67L33 67L33 68L32 68L32 69L33 69L33 68L34 68L34 69L37 69L37 68L36 68L36 67L37 67L37 66L34 66L34 65L37 65L37 64L38 64L38 65L39 65L39 66L40 66L40 65L41 65L41 67L40 67L40 69L43 69L43 68L42 68L42 65L43 65L43 67L44 67L44 69L45 69L45 67L44 67L44 65L47 65L47 64L48 64L48 65L49 65L49 66L47 66L47 67L46 67L46 69L49 69L49 66L50 66L50 67L53 67L53 66L54 66L54 68L52 68L52 69L54 69L54 68L56 68L56 69L60 69L60 68L62 68L62 69L63 69L63 68L62 68L62 67L61 67L61 66L62 66L62 65L65 65L65 66L64 66L64 67L65 67L65 68L64 68L64 69L67 69L67 68L66 68L66 67L69 67L69 66L66 66L66 63L67 63L67 62L68 62L68 64L67 64L67 65L68 65L68 64L69 64L69 62L68 62L68 60L69 60L69 58L68 58L68 57L69 57L69 56L68 56L68 55L69 55L69 52L68 52L68 51L69 51L69 48L68 48L68 47L69 47L69 45L68 45L68 44L69 44L69 41L68 41L68 40L66 40L66 39L67 39L67 38L66 38L66 35L67 35L67 34L66 34L66 33L65 33L65 32L66 32L66 30L67 30L67 29L68 29L68 31L69 31L69 26L68 26L68 28L67 28L67 29L66 29L66 30L65 30L65 28L64 28L64 29L63 29L63 28L62 28L62 27L63 27L63 26L66 26L66 27L67 27L67 26L66 26L66 22L65 22L65 20L66 20L66 21L67 21L67 20L68 20L68 24L69 24L69 20L68 20L68 19L69 19L69 17L67 17L67 16L66 16L66 15L67 15L67 14L68 14L68 16L69 16L69 14L68 14L68 13L69 13L69 10L68 10L68 13L67 13L67 12L66 12L66 10L67 10L67 9L69 9L69 8L67 8L67 9L66 9L66 10L65 10L65 11L64 11L64 10L62 10L62 9L65 9L65 8L61 8L61 6L60 6L60 8L61 8L61 10L60 10L60 9L59 9L59 4L58 4L58 3L59 3L59 2L58 2L58 1L61 1L61 0L58 0L58 1L57 1L57 0L56 0L56 1L55 1L55 0L50 0L50 1L48 1L48 0L46 0L46 1L45 1L45 2L46 2L46 3L47 3L47 2L46 2L46 1L48 1L48 2L49 2L49 3L51 3L51 4L50 4L50 5L47 5L47 4L46 4L46 5L47 5L47 6L46 6L46 7L47 7L47 8L44 8L44 9L43 9L43 11L41 11L41 10L42 10L42 8L43 8L43 6L42 6L42 5L43 5L43 4L44 4L44 7L45 7L45 4L44 4L44 2L43 2L43 3L42 3L42 2L41 2L41 1L40 1L40 0L38 0L38 2L37 2L37 4L34 4L34 3L35 3L35 2L36 2L36 1L37 1L37 0L35 0L35 2L34 2L34 3L33 3L33 2L32 2L32 3L31 3L31 2L30 2L30 0L29 0L29 1L28 1L28 2L29 2L29 4L28 4L28 3L27 3L27 2L26 2L26 3L25 3L25 2L22 2L22 3L21 3L21 2L20 2L20 1L22 1L22 0L18 0L18 2L19 2L19 3L20 3L20 7L21 7L21 8L20 8L20 9L19 9L19 8L18 8L18 7L19 7L19 6L18 6L18 7L17 7L17 6L16 6L16 5L17 5L17 4L18 4L18 5L19 5L19 4L18 4L18 3L17 3L17 0L15 0L15 1L14 1L14 0L13 0L13 1L11 1L11 0L10 0L10 1L9 1L9 0ZM24 0L24 1L27 1L27 0ZM32 0L32 1L34 1L34 0ZM42 0L42 1L44 1L44 0ZM15 1L15 2L11 2L11 3L16 3L16 4L15 4L15 5L14 5L14 6L13 6L13 5L12 5L12 4L11 4L11 5L12 5L12 6L11 6L11 7L12 7L12 6L13 6L13 7L14 7L14 8L17 8L17 7L16 7L16 6L15 6L15 5L16 5L16 4L17 4L17 3L16 3L16 1ZM39 1L39 3L38 3L38 4L39 4L39 3L40 3L40 4L41 4L41 5L40 5L40 6L39 6L39 5L38 5L38 6L37 6L37 8L38 8L38 6L39 6L39 7L40 7L40 8L39 8L39 9L38 9L38 10L37 10L37 9L35 9L35 11L34 11L34 13L32 13L32 12L33 12L33 11L32 11L32 9L31 9L31 8L32 8L32 4L33 4L33 3L32 3L32 4L31 4L31 3L30 3L30 4L31 4L31 8L30 8L30 6L29 6L29 5L28 5L28 4L27 4L27 3L26 3L26 5L27 5L27 7L26 7L26 6L25 6L25 5L24 5L24 6L23 6L23 3L22 3L22 4L21 4L21 7L22 7L22 8L23 8L23 7L24 7L24 6L25 6L25 7L26 7L26 8L25 8L25 10L24 10L24 11L25 11L25 13L24 13L24 15L22 15L22 16L23 16L23 18L22 18L22 19L21 19L21 18L20 18L20 19L21 19L21 21L20 21L20 20L19 20L19 21L18 21L18 18L19 18L19 16L20 16L20 14L23 14L23 13L22 13L22 12L21 12L21 11L19 11L19 10L17 10L17 11L18 11L18 12L16 12L16 11L15 11L15 12L14 12L14 13L13 13L13 11L14 11L14 10L16 10L16 9L13 9L13 8L10 8L10 10L9 10L9 11L10 11L10 12L9 12L9 13L8 13L8 11L6 11L6 12L7 12L7 13L6 13L6 14L7 14L7 13L8 13L8 14L9 14L9 13L10 13L10 14L11 14L11 16L10 16L10 15L8 15L8 16L7 16L7 15L6 15L6 16L7 16L7 17L5 17L5 18L3 18L3 19L4 19L4 20L3 20L3 21L4 21L4 20L5 20L5 19L6 19L6 20L7 20L7 19L6 19L6 18L7 18L7 17L8 17L8 16L9 16L9 19L8 19L8 20L9 20L9 21L10 21L10 20L9 20L9 19L10 19L10 17L12 17L12 18L13 18L13 16L14 16L14 15L15 15L15 14L14 14L14 13L16 13L16 15L17 15L17 18L16 18L16 19L15 19L15 17L14 17L14 23L13 23L13 24L12 24L12 22L13 22L13 19L11 19L11 21L12 21L12 22L11 22L11 23L10 23L10 24L12 24L12 26L11 26L11 28L10 28L10 27L9 27L9 33L10 33L10 34L9 34L9 38L8 38L8 39L9 39L9 40L10 40L10 41L8 41L8 40L7 40L7 39L6 39L6 38L7 38L7 37L5 37L5 38L4 38L4 39L3 39L3 40L4 40L4 39L5 39L5 42L3 42L3 41L2 41L2 42L3 42L3 46L2 46L2 47L3 47L3 48L4 48L4 49L5 49L5 47L4 47L4 46L7 46L7 47L6 47L6 48L7 48L7 49L6 49L6 50L4 50L4 51L3 51L3 52L5 52L5 53L6 53L6 54L7 54L7 55L5 55L5 56L8 56L8 58L10 58L10 56L9 56L9 55L11 55L11 56L12 56L12 54L10 54L10 52L11 52L11 51L12 51L12 53L13 53L13 54L14 54L14 55L13 55L13 57L11 57L11 59L12 59L12 60L10 60L10 61L9 61L9 62L10 62L10 63L12 63L12 64L11 64L11 66L13 66L13 65L14 65L14 66L17 66L17 64L16 64L16 62L14 62L14 61L15 61L15 59L14 59L14 57L15 57L15 54L16 54L16 55L17 55L17 57L18 57L18 51L15 51L15 47L16 47L16 46L17 46L17 49L16 49L16 50L19 50L19 48L21 48L21 50L20 50L20 51L21 51L21 53L20 53L20 54L21 54L21 56L20 56L20 55L19 55L19 56L20 56L20 59L22 59L22 60L23 60L23 62L22 62L22 64L21 64L21 65L22 65L22 64L23 64L23 65L24 65L24 67L23 67L23 68L24 68L24 67L25 67L25 66L26 66L26 67L27 67L27 64L29 64L29 61L30 61L30 62L32 62L32 60L31 60L31 59L30 59L30 58L31 58L31 57L30 57L30 58L29 58L29 56L28 56L28 55L29 55L29 54L30 54L30 52L32 52L32 53L31 53L31 54L32 54L32 53L33 53L33 52L32 52L32 51L33 51L33 50L34 50L34 48L35 48L35 46L36 46L36 45L34 45L34 42L32 42L32 41L31 41L31 40L30 40L30 39L31 39L31 37L30 37L30 36L32 36L32 32L33 32L33 31L32 31L32 32L31 32L31 31L30 31L30 32L29 32L29 34L28 34L28 35L29 35L29 34L30 34L30 32L31 32L31 35L30 35L30 36L29 36L29 37L28 37L28 39L24 39L24 40L25 40L25 42L24 42L24 43L25 43L25 45L24 45L24 46L26 46L26 43L27 43L27 44L28 44L28 46L29 46L29 47L28 47L28 48L27 48L27 47L26 47L26 48L27 48L27 49L26 49L26 50L25 50L25 47L24 47L24 50L23 50L23 49L22 49L22 48L23 48L23 47L19 47L19 46L18 46L18 44L19 44L19 43L20 43L20 42L21 42L21 41L20 41L20 40L19 40L19 39L18 39L18 38L20 38L20 39L21 39L21 37L22 37L22 38L27 38L27 37L26 37L26 36L27 36L27 35L25 35L25 36L23 36L23 37L22 37L22 35L24 35L24 34L27 34L27 32L28 32L28 31L27 31L27 29L26 29L26 28L28 28L28 30L30 30L30 28L31 28L31 27L29 27L29 25L28 25L28 27L27 27L27 26L25 26L25 25L24 25L24 24L25 24L25 21L26 21L26 19L27 19L27 21L28 21L28 22L27 22L27 23L26 23L26 24L27 24L27 23L28 23L28 22L29 22L29 21L28 21L28 20L29 20L29 19L30 19L30 20L31 20L31 21L32 21L32 20L33 20L33 18L32 18L32 20L31 20L31 19L30 19L30 16L31 16L31 17L32 17L32 16L33 16L33 17L34 17L34 21L33 21L33 22L34 22L34 24L33 24L33 23L32 23L32 26L34 26L34 24L35 24L35 23L36 23L36 22L37 22L37 21L36 21L36 20L37 20L37 19L38 19L38 18L39 18L39 17L40 17L40 19L41 19L41 20L42 20L42 24L43 24L43 25L42 25L42 26L41 26L41 25L40 25L40 24L41 24L41 21L40 21L40 20L38 20L38 21L39 21L39 23L37 23L37 25L36 25L36 26L37 26L37 27L36 27L36 28L38 28L38 27L39 27L39 25L40 25L40 28L43 28L43 29L40 29L40 30L42 30L42 35L43 35L43 37L42 37L42 36L41 36L41 37L42 37L42 38L40 38L40 35L41 35L41 34L39 34L39 33L40 33L40 31L39 31L39 33L38 33L38 31L36 31L36 30L37 30L37 29L36 29L36 30L34 30L34 31L36 31L36 32L37 32L37 33L38 33L38 34L37 34L37 38L36 38L36 37L33 37L33 38L32 38L32 40L33 40L33 41L34 41L34 40L35 40L35 39L36 39L36 40L37 40L37 39L38 39L38 42L37 42L37 41L35 41L35 43L36 43L36 44L37 44L37 43L38 43L38 47L37 47L37 48L36 48L36 49L37 49L37 48L38 48L38 50L39 50L39 49L40 49L40 51L39 51L39 52L38 52L38 53L40 53L40 54L39 54L39 55L38 55L38 57L37 57L37 58L35 58L35 57L36 57L36 56L37 56L37 53L36 53L36 54L35 54L35 53L34 53L34 56L33 56L33 55L32 55L32 58L35 58L35 59L36 59L36 60L37 60L37 61L38 61L38 62L39 62L39 63L38 63L38 64L39 64L39 65L40 65L40 62L41 62L41 61L42 61L42 62L43 62L43 65L44 65L44 62L45 62L45 63L46 63L46 64L47 64L47 61L48 61L48 63L49 63L49 65L50 65L50 66L53 66L53 65L54 65L54 66L56 66L56 64L55 64L55 63L57 63L57 61L56 61L56 60L58 60L58 63L59 63L59 64L57 64L57 67L56 67L56 68L57 68L57 67L58 67L58 68L60 68L60 66L61 66L61 65L59 65L59 64L60 64L60 63L59 63L59 62L60 62L60 61L59 61L59 60L60 60L60 59L62 59L62 60L63 60L63 59L64 59L64 60L65 60L65 61L66 61L66 62L67 62L67 61L66 61L66 60L68 60L68 58L67 58L67 59L66 59L66 58L65 58L65 57L64 57L64 54L65 54L65 53L66 53L66 57L68 57L68 56L67 56L67 55L68 55L68 54L67 54L67 51L68 51L68 50L67 50L67 49L68 49L68 48L67 48L67 47L68 47L68 46L67 46L67 45L64 45L64 46L67 46L67 47L66 47L66 50L65 50L65 49L64 49L64 51L65 51L65 53L64 53L64 54L63 54L63 56L62 56L62 57L60 57L60 59L59 59L59 60L58 60L58 58L59 58L59 55L62 55L62 49L61 49L61 48L60 48L60 47L62 47L62 48L63 48L63 47L62 47L62 46L63 46L63 45L62 45L62 44L63 44L63 43L64 43L64 44L65 44L65 43L64 43L64 42L65 42L65 40L64 40L64 38L65 38L65 39L66 39L66 38L65 38L65 37L60 37L60 35L59 35L59 37L58 37L58 39L54 39L54 38L55 38L55 37L56 37L56 34L57 34L57 33L56 33L56 32L54 32L54 30L55 30L55 31L56 31L56 30L57 30L57 31L58 31L58 32L59 32L59 33L58 33L58 34L59 34L59 33L60 33L60 32L61 32L61 31L62 31L62 30L63 30L63 31L64 31L64 30L63 30L63 29L62 29L62 30L61 30L61 29L60 29L60 28L61 28L61 27L62 27L62 26L63 26L63 25L64 25L64 24L65 24L65 23L64 23L64 22L63 22L63 21L64 21L64 20L65 20L65 19L64 19L64 16L65 16L65 15L66 15L66 12L65 12L65 15L64 15L64 11L63 11L63 13L62 13L62 12L60 12L60 10L59 10L59 9L58 9L58 6L57 6L57 7L56 7L56 5L58 5L58 4L57 4L57 1L56 1L56 2L55 2L55 5L54 5L54 4L53 4L53 3L54 3L54 2L53 2L53 1L50 1L50 2L53 2L53 3L52 3L52 4L51 4L51 5L52 5L52 6L51 6L51 8L50 8L50 6L49 6L49 7L48 7L48 6L47 6L47 7L48 7L48 8L47 8L47 9L46 9L46 10L45 10L45 12L47 12L47 13L46 13L46 14L47 14L47 13L48 13L48 15L46 15L46 17L44 17L44 15L43 15L43 14L44 14L44 12L42 12L42 13L41 13L41 11L38 11L38 10L40 10L40 8L42 8L42 6L41 6L41 5L42 5L42 3L40 3L40 1ZM60 3L60 5L61 5L61 3ZM52 4L52 5L53 5L53 6L52 6L52 10L53 10L53 11L48 11L48 9L49 9L49 8L48 8L48 9L47 9L47 10L46 10L46 11L48 11L48 13L49 13L49 15L48 15L48 17L47 17L47 19L48 19L48 21L47 21L47 22L46 22L46 21L45 21L45 20L46 20L46 19L45 19L45 20L44 20L44 21L43 21L43 23L44 23L44 21L45 21L45 23L47 23L47 26L46 26L46 25L45 25L45 24L44 24L44 25L45 25L45 27L46 27L46 28L47 28L47 27L48 27L48 29L47 29L47 30L48 30L48 33L49 33L49 34L46 34L46 33L45 33L45 31L44 31L44 34L43 34L43 35L44 35L44 37L43 37L43 38L45 38L45 39L46 39L46 41L45 41L45 40L44 40L44 41L43 41L43 39L42 39L42 41L41 41L41 39L40 39L40 38L38 38L38 39L40 39L40 41L39 41L39 42L38 42L38 43L39 43L39 42L42 42L42 43L41 43L41 44L42 44L42 45L43 45L43 44L42 44L42 43L44 43L44 45L45 45L45 46L44 46L44 47L41 47L41 48L40 48L40 49L41 49L41 51L40 51L40 53L43 53L43 52L41 52L41 51L43 51L43 50L42 50L42 49L43 49L43 48L44 48L44 50L46 50L46 51L44 51L44 54L43 54L43 55L44 55L44 57L45 57L45 58L42 58L42 57L41 57L41 56L42 56L42 55L41 55L41 54L40 54L40 58L39 58L39 59L38 59L38 60L39 60L39 61L41 61L41 60L39 60L39 59L40 59L40 58L41 58L41 59L43 59L43 60L44 60L44 61L45 61L45 60L44 60L44 59L47 59L47 58L48 58L48 61L49 61L49 63L51 63L51 64L52 64L52 65L53 65L53 64L54 64L54 65L55 65L55 64L54 64L54 63L55 63L55 62L54 62L54 61L55 61L55 60L54 60L54 61L53 61L53 58L54 58L54 59L57 59L57 58L58 58L58 56L56 56L56 57L57 57L57 58L54 58L54 56L55 56L55 55L54 55L54 49L55 49L55 48L54 48L54 47L53 47L53 48L52 48L52 46L53 46L53 44L52 44L52 45L51 45L51 43L52 43L52 41L53 41L53 43L54 43L54 45L55 45L55 46L57 46L57 47L56 47L56 50L55 50L55 53L56 53L56 55L57 55L57 54L58 54L58 55L59 55L59 54L58 54L58 52L57 52L57 51L58 51L58 49L59 49L59 50L61 50L61 49L60 49L60 48L58 48L58 47L60 47L60 45L61 45L61 46L62 46L62 45L61 45L61 44L62 44L62 43L63 43L63 42L64 42L64 41L63 41L63 40L62 40L62 39L63 39L63 38L62 38L62 39L61 39L61 38L60 38L60 39L59 39L59 43L58 43L58 44L56 44L56 45L55 45L55 42L56 42L56 41L57 41L57 40L56 40L56 41L55 41L55 42L54 42L54 39L53 39L53 38L54 38L54 36L55 36L55 35L54 35L54 36L52 36L52 37L53 37L53 38L52 38L52 39L51 39L51 38L50 38L50 37L49 37L49 36L50 36L50 33L51 33L51 32L50 32L50 31L51 31L51 30L54 30L54 29L55 29L55 26L56 26L56 27L57 27L57 28L56 28L56 29L57 29L57 30L58 30L58 29L59 29L59 30L60 30L60 29L59 29L59 28L60 28L60 27L61 27L61 26L62 26L62 24L60 24L60 23L62 23L62 21L63 21L63 19L62 19L62 17L63 17L63 14L62 14L62 13L61 13L61 14L60 14L60 17L59 17L59 14L58 14L58 13L59 13L59 12L57 12L57 11L58 11L58 9L57 9L57 8L56 8L56 7L55 7L55 6L54 6L54 5L53 5L53 4ZM9 5L9 7L10 7L10 5ZM33 5L33 8L36 8L36 5ZM14 6L14 7L15 7L15 6ZM22 6L22 7L23 7L23 6ZM28 6L28 7L27 7L27 8L26 8L26 10L25 10L25 11L26 11L26 14L25 14L25 15L24 15L24 16L25 16L25 18L24 18L24 20L22 20L22 21L21 21L21 22L22 22L22 21L23 21L23 22L24 22L24 21L25 21L25 18L26 18L26 17L27 17L27 16L26 16L26 15L28 15L28 17L29 17L29 16L30 16L30 15L31 15L31 16L32 16L32 15L33 15L33 14L32 14L32 15L31 15L31 12L29 12L29 11L28 11L28 9L29 9L29 8L28 8L28 7L29 7L29 6ZM34 6L34 7L35 7L35 6ZM40 6L40 7L41 7L41 6ZM53 6L53 9L54 9L54 11L53 11L53 13L54 13L54 14L55 14L55 13L56 13L56 14L57 14L57 13L56 13L56 12L55 12L55 11L56 11L56 8L55 8L55 9L54 9L54 6ZM5 8L5 9L7 9L7 8ZM11 9L11 13L12 13L12 11L13 11L13 10L12 10L12 9ZM20 9L20 10L21 10L21 9ZM22 9L22 10L23 10L23 9ZM33 9L33 10L34 10L34 9ZM30 10L30 11L31 11L31 10ZM61 10L61 11L62 11L62 10ZM1 11L1 12L2 12L2 13L3 13L3 12L2 12L2 11ZM27 11L27 13L28 13L28 15L29 15L29 13L28 13L28 11ZM36 11L36 12L38 12L38 11ZM18 12L18 13L17 13L17 14L18 14L18 13L19 13L19 14L20 14L20 12ZM49 12L49 13L50 13L50 14L51 14L51 15L49 15L49 16L50 16L50 18L49 18L49 20L50 20L50 22L49 22L49 21L48 21L48 22L47 22L47 23L48 23L48 22L49 22L49 23L50 23L50 24L49 24L49 25L50 25L50 28L49 28L49 29L50 29L50 30L51 30L51 29L52 29L52 28L53 28L53 29L54 29L54 26L55 26L55 25L56 25L56 26L57 26L57 25L56 25L56 24L57 24L57 23L56 23L56 22L57 22L57 21L56 21L56 16L58 16L58 15L56 15L56 16L55 16L55 15L53 15L53 16L55 16L55 17L54 17L54 18L52 18L52 16L51 16L51 15L52 15L52 14L51 14L51 13L52 13L52 12ZM54 12L54 13L55 13L55 12ZM36 13L36 15L37 15L37 14L38 14L38 17L37 17L37 16L36 16L36 17L35 17L35 16L34 16L34 17L35 17L35 18L36 18L36 19L37 19L37 18L38 18L38 17L39 17L39 14L38 14L38 13ZM40 13L40 14L41 14L41 13ZM12 14L12 15L14 15L14 14ZM34 14L34 15L35 15L35 14ZM61 14L61 17L60 17L60 19L58 19L58 18L59 18L59 17L58 17L58 18L57 18L57 19L58 19L58 20L60 20L60 22L59 22L59 21L58 21L58 22L59 22L59 23L60 23L60 22L61 22L61 21L62 21L62 19L61 19L61 17L62 17L62 14ZM18 15L18 16L19 16L19 15ZM42 15L42 16L40 16L40 17L41 17L41 18L42 18L42 20L43 20L43 19L44 19L44 18L42 18L42 17L43 17L43 15ZM36 17L36 18L37 18L37 17ZM66 17L66 18L67 18L67 19L66 19L66 20L67 20L67 19L68 19L68 18L67 18L67 17ZM28 18L28 19L29 19L29 18ZM50 18L50 19L51 19L51 22L50 22L50 23L53 23L53 24L52 24L52 25L51 25L51 24L50 24L50 25L51 25L51 27L53 27L53 26L54 26L54 25L55 25L55 24L56 24L56 23L55 23L55 24L54 24L54 23L53 23L53 22L54 22L54 21L55 21L55 18L54 18L54 21L53 21L53 19L51 19L51 18ZM16 19L16 20L17 20L17 19ZM15 21L15 24L14 24L14 25L13 25L13 26L14 26L14 25L15 25L15 28L16 28L16 29L15 29L15 30L16 30L16 29L17 29L17 32L16 32L16 31L14 31L14 27L13 27L13 30L12 30L12 28L11 28L11 30L10 30L10 31L11 31L11 32L10 32L10 33L11 33L11 32L13 32L13 31L14 31L14 32L15 32L15 33L14 33L14 34L13 34L13 33L12 33L12 34L13 34L13 35L14 35L14 36L12 36L12 35L10 35L10 36L11 36L11 37L10 37L10 39L11 39L11 40L12 40L12 38L14 38L14 39L13 39L13 42L15 42L15 40L14 40L14 39L15 39L15 38L16 38L16 37L17 37L17 38L18 38L18 37L19 37L19 36L18 36L18 35L19 35L19 34L18 34L18 33L19 33L19 32L20 32L20 33L21 33L21 34L20 34L20 35L22 35L22 34L23 34L23 32L25 32L25 30L26 30L26 29L25 29L25 30L24 30L24 28L23 28L23 26L22 26L22 29L21 29L21 28L20 28L20 27L21 27L21 26L20 26L20 27L19 27L19 28L18 28L18 26L19 26L19 24L18 24L18 26L17 26L17 23L20 23L20 21L19 21L19 22L17 22L17 23L16 23L16 21ZM34 21L34 22L36 22L36 21ZM52 21L52 22L53 22L53 21ZM22 23L22 24L23 24L23 23ZM30 23L30 24L31 24L31 23ZM39 23L39 24L38 24L38 25L37 25L37 26L38 26L38 25L39 25L39 24L40 24L40 23ZM53 24L53 25L52 25L52 26L53 26L53 25L54 25L54 24ZM58 24L58 27L59 27L59 24ZM30 25L30 26L31 26L31 25ZM60 25L60 26L61 26L61 25ZM3 26L3 27L4 27L4 26ZM16 26L16 27L17 27L17 26ZM24 26L24 27L25 27L25 28L26 28L26 27L25 27L25 26ZM42 26L42 27L43 27L43 26ZM28 27L28 28L29 28L29 27ZM34 27L34 28L32 28L32 29L34 29L34 28L35 28L35 27ZM6 28L6 29L7 29L7 28ZM17 28L17 29L18 29L18 30L19 30L19 29L20 29L20 31L21 31L21 33L22 33L22 31L21 31L21 29L20 29L20 28L19 28L19 29L18 29L18 28ZM44 28L44 30L46 30L46 29L45 29L45 28ZM57 28L57 29L58 29L58 28ZM38 29L38 30L39 30L39 29ZM2 30L2 31L3 31L3 33L4 33L4 31L3 31L3 30ZM11 30L11 31L12 31L12 30ZM23 30L23 31L24 31L24 30ZM6 31L6 32L7 32L7 31ZM18 31L18 32L19 32L19 31ZM26 31L26 32L27 32L27 31ZM59 31L59 32L60 32L60 31ZM49 32L49 33L50 33L50 32ZM52 32L52 33L54 33L54 32ZM67 32L67 33L68 33L68 37L69 37L69 32ZM5 33L5 36L8 36L8 33ZM16 33L16 36L15 36L15 37L14 37L14 38L15 38L15 37L16 37L16 36L17 36L17 37L18 37L18 36L17 36L17 35L18 35L18 34L17 34L17 33ZM33 33L33 36L36 36L36 33ZM61 33L61 36L64 36L64 33ZM6 34L6 35L7 35L7 34ZM14 34L14 35L15 35L15 34ZM34 34L34 35L35 35L35 34ZM44 34L44 35L46 35L46 39L47 39L47 41L46 41L46 42L45 42L45 41L44 41L44 43L45 43L45 44L46 44L46 46L45 46L45 47L44 47L44 48L47 48L47 49L46 49L46 50L49 50L49 51L48 51L48 52L46 52L46 54L49 54L49 55L45 55L45 54L44 54L44 55L45 55L45 57L46 57L46 58L47 58L47 57L48 57L48 58L49 58L49 61L50 61L50 62L52 62L52 64L53 64L53 62L52 62L52 58L51 58L51 57L52 57L52 56L54 56L54 55L53 55L53 54L51 54L51 53L52 53L52 52L53 52L53 51L52 51L52 50L53 50L53 49L52 49L52 48L49 48L49 47L51 47L51 45L50 45L50 44L49 44L49 45L48 45L48 44L46 44L46 43L48 43L48 42L47 42L47 41L48 41L48 38L49 38L49 37L48 37L48 36L49 36L49 35L46 35L46 34ZM52 34L52 35L53 35L53 34ZM62 34L62 35L63 35L63 34ZM38 36L38 37L39 37L39 36ZM0 37L0 38L1 38L1 37ZM11 37L11 38L12 38L12 37ZM29 37L29 38L30 38L30 37ZM68 38L68 39L69 39L69 38ZM22 39L22 40L23 40L23 39ZM28 39L28 40L29 40L29 39ZM49 39L49 41L50 41L50 42L49 42L49 43L50 43L50 42L51 42L51 41L50 41L50 40L51 40L51 39ZM6 40L6 41L7 41L7 42L5 42L5 43L4 43L4 44L5 44L5 45L9 45L9 44L8 44L8 43L7 43L7 42L8 42L8 41L7 41L7 40ZM16 40L16 41L17 41L17 40ZM18 40L18 41L19 41L19 42L18 42L18 43L19 43L19 42L20 42L20 41L19 41L19 40ZM26 40L26 41L27 41L27 43L28 43L28 41L27 41L27 40ZM60 40L60 42L61 42L61 43L62 43L62 42L61 42L61 40ZM11 41L11 42L10 42L10 44L11 44L11 45L10 45L10 46L8 46L8 47L7 47L7 48L8 48L8 47L9 47L9 49L10 49L10 50L9 50L9 51L8 51L8 52L6 52L6 51L7 51L7 50L8 50L8 49L7 49L7 50L6 50L6 51L5 51L5 52L6 52L6 53L7 53L7 54L9 54L9 53L8 53L8 52L10 52L10 50L12 50L12 51L13 51L13 52L14 52L14 53L15 53L15 51L14 51L14 50L13 50L13 49L14 49L14 48L13 48L13 49L11 49L11 48L12 48L12 47L11 47L11 48L10 48L10 46L12 46L12 45L14 45L14 44L15 44L15 43L13 43L13 44L12 44L12 43L11 43L11 42L12 42L12 41ZM22 41L22 42L23 42L23 41ZM42 41L42 42L43 42L43 41ZM66 41L66 42L67 42L67 41ZM16 42L16 43L17 43L17 42ZM25 42L25 43L26 43L26 42ZM29 42L29 46L31 46L31 47L30 47L30 50L28 50L28 51L29 51L29 52L30 52L30 50L31 50L31 51L32 51L32 48L31 48L31 47L32 47L32 46L31 46L31 45L32 45L32 42L31 42L31 43L30 43L30 42ZM36 42L36 43L37 43L37 42ZM5 43L5 44L7 44L7 43ZM59 43L59 44L58 44L58 46L59 46L59 44L60 44L60 43ZM66 43L66 44L68 44L68 43ZM16 44L16 45L15 45L15 46L13 46L13 47L15 47L15 46L16 46L16 45L17 45L17 44ZM21 44L21 45L20 45L20 46L21 46L21 45L22 45L22 46L23 46L23 45L22 45L22 44ZM40 45L40 46L41 46L41 45ZM47 45L47 46L46 46L46 47L47 47L47 48L48 48L48 49L49 49L49 48L48 48L48 45ZM49 45L49 46L50 46L50 45ZM33 46L33 48L34 48L34 46ZM18 47L18 48L19 48L19 47ZM38 47L38 48L39 48L39 47ZM28 48L28 49L29 49L29 48ZM57 48L57 49L58 49L58 48ZM22 50L22 51L23 51L23 52L22 52L22 53L23 53L23 55L22 55L22 56L23 56L23 55L24 55L24 57L25 57L25 54L26 54L26 53L27 53L27 55L26 55L26 58L28 58L28 59L27 59L27 60L26 60L26 59L25 59L25 58L24 58L24 59L25 59L25 60L26 60L26 61L27 61L27 62L28 62L28 61L29 61L29 60L30 60L30 61L31 61L31 60L30 60L30 59L29 59L29 58L28 58L28 56L27 56L27 55L28 55L28 52L26 52L26 53L25 53L25 54L24 54L24 51L25 51L25 50L24 50L24 51L23 51L23 50ZM35 50L35 51L34 51L34 52L35 52L35 51L36 51L36 52L37 52L37 51L36 51L36 50ZM56 50L56 51L57 51L57 50ZM49 51L49 52L48 52L48 53L49 53L49 52L50 52L50 53L51 53L51 52L52 52L52 51L51 51L51 52L50 52L50 51ZM60 51L60 52L59 52L59 53L61 53L61 51ZM2 53L2 54L3 54L3 56L4 56L4 53ZM30 55L30 56L31 56L31 55ZM50 55L50 57L51 57L51 56L52 56L52 55ZM34 56L34 57L35 57L35 56ZM48 56L48 57L49 57L49 56ZM63 57L63 58L62 58L62 59L63 59L63 58L64 58L64 57ZM0 58L0 61L1 61L1 58ZM2 58L2 59L3 59L3 58ZM12 58L12 59L13 59L13 60L12 60L12 62L13 62L13 61L14 61L14 59L13 59L13 58ZM22 58L22 59L23 59L23 58ZM28 59L28 60L29 60L29 59ZM33 59L33 60L34 60L34 59ZM50 59L50 61L51 61L51 59ZM65 59L65 60L66 60L66 59ZM3 60L3 61L5 61L5 60ZM6 60L6 61L7 61L7 60ZM46 60L46 61L47 61L47 60ZM10 61L10 62L11 62L11 61ZM33 61L33 64L36 64L36 61ZM61 61L61 64L64 64L64 61ZM24 62L24 63L23 63L23 64L24 64L24 65L25 65L25 64L24 64L24 63L25 63L25 62ZM34 62L34 63L35 63L35 62ZM62 62L62 63L63 63L63 62ZM13 63L13 64L15 64L15 63ZM26 63L26 64L27 64L27 63ZM41 63L41 65L42 65L42 63ZM28 66L28 67L29 67L29 66ZM14 67L14 68L15 68L15 67ZM16 67L16 68L17 68L17 67ZM38 68L38 69L39 69L39 68ZM50 68L50 69L51 69L51 68ZM68 68L68 69L69 69L69 68ZM0 0L0 7L7 7L7 0ZM1 1L1 6L6 6L6 1ZM2 2L2 5L5 5L5 2ZM62 0L62 7L69 7L69 0ZM63 1L63 6L68 6L68 1ZM64 2L64 5L67 5L67 2ZM0 62L0 69L7 69L7 62ZM1 63L1 68L6 68L6 63ZM2 64L2 67L5 67L5 64Z" fill="#000000"/></g></g></svg>
