<?xml version="1.0" encoding="UTF-8"?>
<svg xmlns="http://www.w3.org/2000/svg" version="1.1" width="300" height="300" viewBox="0 0 300 300"><rect x="0" y="0" width="300" height="300" fill="#ffffff"/><g transform="scale(4.348)"><g transform="translate(0,0)"><path fill-rule="evenodd" d="M9 0L9 1L8 1L8 2L9 2L9 1L12 1L12 0ZM13 0L13 2L12 2L12 3L10 3L10 4L9 4L9 3L8 3L8 4L9 4L9 5L8 5L8 7L9 7L9 6L10 6L10 7L11 7L11 5L10 5L10 4L12 4L12 3L14 3L14 5L16 5L16 7L15 7L15 6L14 6L14 7L13 7L13 6L12 6L12 8L13 8L13 9L11 9L11 8L10 8L10 10L13 10L13 9L14 9L14 11L13 11L13 12L16 12L16 14L15 14L15 15L14 15L14 14L13 14L13 15L12 15L12 13L11 13L11 12L12 12L12 11L8 11L8 9L9 9L9 8L6 8L6 9L7 9L7 10L6 10L6 11L5 11L5 12L6 12L6 13L5 13L5 14L6 14L6 15L4 15L4 16L5 16L5 17L7 17L7 18L5 18L5 19L2 19L2 18L4 18L4 17L3 17L3 13L4 13L4 11L3 11L3 10L4 10L4 9L5 9L5 8L0 8L0 10L2 10L2 11L0 11L0 12L1 12L1 13L0 13L0 15L1 15L1 16L0 16L0 17L1 17L1 19L0 19L0 20L1 20L1 19L2 19L2 20L5 20L5 21L3 21L3 22L2 22L2 21L1 21L1 23L3 23L3 22L5 22L5 21L7 21L7 22L6 22L6 23L4 23L4 25L2 25L2 26L4 26L4 25L5 25L5 26L6 26L6 27L3 27L3 29L2 29L2 30L1 30L1 29L0 29L0 34L4 34L4 37L7 37L7 38L3 38L3 37L0 37L0 40L3 40L3 39L4 39L4 41L7 41L7 42L5 42L5 44L3 44L3 45L8 45L8 46L9 46L9 44L12 44L12 46L14 46L14 47L11 47L11 48L10 48L10 47L7 47L7 46L6 46L6 47L7 47L7 48L6 48L6 49L5 49L5 46L4 46L4 48L3 48L3 47L2 47L2 44L1 44L1 43L3 43L3 42L1 42L1 43L0 43L0 45L1 45L1 48L0 48L0 49L1 49L1 48L3 48L3 49L2 49L2 50L3 50L3 51L2 51L2 53L0 53L0 54L2 54L2 53L3 53L3 54L4 54L4 53L5 53L5 54L6 54L6 55L4 55L4 56L1 56L1 55L0 55L0 57L1 57L1 58L0 58L0 61L1 61L1 58L2 58L2 59L3 59L3 58L2 58L2 57L4 57L4 59L7 59L7 60L6 60L6 61L8 61L8 63L9 63L9 60L8 60L8 59L9 59L9 58L10 58L10 55L11 55L11 54L12 54L12 56L11 56L11 60L10 60L10 64L8 64L8 69L9 69L9 65L10 65L10 64L18 64L18 65L17 65L17 69L19 69L19 68L18 68L18 67L20 67L20 66L19 66L19 65L20 65L20 64L22 64L22 62L24 62L24 63L26 63L26 64L25 64L25 65L23 65L23 66L25 66L25 67L24 67L24 68L23 68L23 69L26 69L26 68L27 68L27 69L28 69L28 68L29 68L29 69L32 69L32 67L34 67L34 66L33 66L33 65L36 65L36 66L35 66L35 68L34 68L34 69L35 69L35 68L36 68L36 69L38 69L38 68L37 68L37 67L39 67L39 66L38 66L38 65L39 65L39 64L41 64L41 66L40 66L40 67L41 67L41 66L44 66L44 68L43 68L43 67L42 67L42 69L44 69L44 68L47 68L47 69L51 69L51 68L52 68L52 66L53 66L53 67L54 67L54 66L55 66L55 65L56 65L56 66L57 66L57 67L58 67L58 66L57 66L57 65L59 65L59 64L60 64L60 66L59 66L59 67L61 67L61 68L60 68L60 69L62 69L62 66L61 66L61 65L63 65L63 66L64 66L64 65L65 65L65 68L66 68L66 69L68 69L68 68L67 68L67 65L65 65L65 64L67 64L67 63L68 63L68 64L69 64L69 63L68 63L68 62L67 62L67 60L68 60L68 57L69 57L69 56L68 56L68 54L69 54L69 53L66 53L66 52L68 52L68 50L69 50L69 49L68 49L68 48L67 48L67 47L68 47L68 46L69 46L69 45L68 45L68 46L67 46L67 44L68 44L68 41L69 41L69 39L68 39L68 38L67 38L67 37L68 37L68 36L69 36L69 35L68 35L68 34L69 34L69 33L68 33L68 32L67 32L67 31L68 31L68 30L69 30L69 29L68 29L68 26L69 26L69 23L68 23L68 22L69 22L69 21L68 21L68 18L69 18L69 15L68 15L68 13L69 13L69 12L68 12L68 13L67 13L67 11L68 11L68 10L67 10L67 11L65 11L65 9L66 9L66 8L65 8L65 9L64 9L64 8L63 8L63 9L64 9L64 10L62 10L62 8L60 8L60 9L59 9L59 10L57 10L57 11L56 11L56 10L55 10L55 9L56 9L56 8L57 8L57 9L58 9L58 8L57 8L57 6L58 6L58 7L59 7L59 4L58 4L58 5L57 5L57 4L56 4L56 3L55 3L55 2L56 2L56 1L55 1L55 0L54 0L54 1L53 1L53 0L52 0L52 1L51 1L51 3L50 3L50 4L49 4L49 2L50 2L50 0L49 0L49 1L47 1L47 2L48 2L48 3L47 3L47 4L49 4L49 5L48 5L48 7L47 7L47 6L46 6L46 5L44 5L44 3L45 3L45 4L46 4L46 3L45 3L45 2L46 2L46 1L45 1L45 0L44 0L44 1L45 1L45 2L44 2L44 3L43 3L43 0L41 0L41 1L38 1L38 0L37 0L37 1L36 1L36 0L35 0L35 1L31 1L31 2L32 2L32 4L31 4L31 3L29 3L29 1L30 1L30 0L28 0L28 1L27 1L27 2L28 2L28 3L27 3L27 4L28 4L28 3L29 3L29 6L28 6L28 5L26 5L26 8L25 8L25 4L26 4L26 2L25 2L25 3L24 3L24 4L22 4L22 3L20 3L20 4L19 4L19 3L18 3L18 2L17 2L17 4L19 4L19 5L18 5L18 7L17 7L17 5L16 5L16 4L15 4L15 2L16 2L16 1L19 1L19 2L20 2L20 1L19 1L19 0L16 0L16 1L15 1L15 0ZM21 0L21 2L23 2L23 1L25 1L25 0ZM58 0L58 1L57 1L57 3L59 3L59 2L58 2L58 1L61 1L61 0ZM14 1L14 2L15 2L15 1ZM35 1L35 2L33 2L33 4L36 4L36 3L38 3L38 4L37 4L37 5L38 5L38 6L37 6L37 7L38 7L38 8L39 8L39 9L38 9L38 10L36 10L36 9L35 9L35 10L36 10L36 11L33 11L33 9L31 9L31 8L32 8L32 5L30 5L30 6L29 6L29 7L28 7L28 6L27 6L27 8L26 8L26 11L25 11L25 9L24 9L24 6L23 6L23 5L22 5L22 4L20 4L20 5L19 5L19 7L18 7L18 8L20 8L20 10L18 10L18 9L17 9L17 7L16 7L16 8L15 8L15 7L14 7L14 8L15 8L15 10L18 10L18 11L17 11L17 12L18 12L18 11L19 11L19 13L20 13L20 15L21 15L21 16L19 16L19 14L18 14L18 15L17 15L17 14L16 14L16 15L17 15L17 16L15 16L15 17L14 17L14 19L15 19L15 18L16 18L16 20L13 20L13 18L12 18L12 17L13 17L13 16L12 16L12 17L11 17L11 15L10 15L10 14L8 14L8 16L7 16L7 15L6 15L6 16L7 16L7 17L10 17L10 19L11 19L11 18L12 18L12 21L11 21L11 22L12 22L12 23L9 23L9 22L7 22L7 23L6 23L6 24L5 24L5 25L6 25L6 26L8 26L8 27L9 27L9 28L8 28L8 30L7 30L7 29L6 29L6 28L7 28L7 27L6 27L6 28L5 28L5 29L3 29L3 30L2 30L2 31L3 31L3 32L2 32L2 33L4 33L4 32L7 32L7 31L8 31L8 32L9 32L9 30L10 30L10 32L11 32L11 33L12 33L12 32L11 32L11 30L12 30L12 29L13 29L13 30L15 30L15 32L13 32L13 34L12 34L12 36L11 36L11 35L10 35L10 37L9 37L9 38L10 38L10 39L9 39L9 40L7 40L7 39L6 39L6 40L7 40L7 41L10 41L10 42L9 42L9 43L12 43L12 42L13 42L13 44L14 44L14 45L15 45L15 46L17 46L17 45L15 45L15 44L14 44L14 43L16 43L16 44L18 44L18 43L17 43L17 39L14 39L14 41L16 41L16 42L13 42L13 39L11 39L11 38L13 38L13 37L12 37L12 36L13 36L13 35L16 35L16 36L14 36L14 38L17 38L17 36L20 36L20 38L22 38L22 39L21 39L21 40L22 40L22 41L20 41L20 40L19 40L19 41L18 41L18 42L19 42L19 45L20 45L20 46L18 46L18 47L17 47L17 48L18 48L18 49L15 49L15 48L16 48L16 47L15 47L15 48L11 48L11 50L10 50L10 49L8 49L8 48L7 48L7 49L6 49L6 50L8 50L8 51L6 51L6 52L5 52L5 53L6 53L6 54L8 54L8 52L9 52L9 54L10 54L10 53L12 53L12 52L11 52L11 51L12 51L12 50L13 50L13 49L14 49L14 51L13 51L13 52L14 52L14 55L13 55L13 56L12 56L12 57L15 57L15 58L14 58L14 59L12 59L12 60L11 60L11 63L12 63L12 61L13 61L13 60L14 60L14 59L15 59L15 60L16 60L16 61L14 61L14 63L15 63L15 62L16 62L16 63L18 63L18 62L19 62L19 64L20 64L20 62L22 62L22 61L25 61L25 62L26 62L26 61L27 61L27 63L28 63L28 65L25 65L25 66L26 66L26 67L27 67L27 68L28 68L28 67L27 67L27 66L28 66L28 65L29 65L29 66L30 66L30 65L29 65L29 63L30 63L30 62L29 62L29 61L27 61L27 60L31 60L31 63L32 63L32 60L35 60L35 58L33 58L33 59L32 59L32 56L31 56L31 59L27 59L27 58L29 58L29 57L30 57L30 56L29 56L29 57L27 57L27 56L26 56L26 55L27 55L27 54L29 54L29 55L30 55L30 54L29 54L29 53L27 53L27 51L28 51L28 52L32 52L32 53L31 53L31 55L33 55L33 57L35 57L35 55L37 55L37 56L36 56L36 57L38 57L38 58L37 58L37 60L38 60L38 63L37 63L37 64L38 64L38 63L41 63L41 64L44 64L44 66L45 66L45 67L46 67L46 66L47 66L47 67L48 67L48 68L49 68L49 67L51 67L51 66L52 66L52 65L53 65L53 66L54 66L54 65L55 65L55 64L53 64L53 62L54 62L54 63L56 63L56 65L57 65L57 64L59 64L59 63L56 63L56 62L59 62L59 61L60 61L60 60L62 60L62 59L63 59L63 60L65 60L65 59L67 59L67 56L66 56L66 57L65 57L65 56L62 56L62 57L60 57L60 56L61 56L61 55L60 55L60 54L62 54L62 55L65 55L65 52L66 52L66 51L67 51L67 48L65 48L65 47L66 47L66 45L63 45L63 43L64 43L64 44L65 44L65 43L67 43L67 41L68 41L68 39L67 39L67 38L66 38L66 39L67 39L67 41L66 41L66 40L65 40L65 41L64 41L64 40L63 40L63 39L65 39L65 37L66 37L66 36L65 36L65 37L64 37L64 38L62 38L62 37L60 37L60 35L59 35L59 34L60 34L60 33L58 33L58 31L57 31L57 30L59 30L59 31L60 31L60 30L59 30L59 29L60 29L60 28L61 28L61 29L62 29L62 30L61 30L61 31L63 31L63 32L64 32L64 31L67 31L67 30L68 30L68 29L67 29L67 28L66 28L66 29L65 29L65 28L64 28L64 27L65 27L65 26L66 26L66 25L65 25L65 24L62 24L62 22L65 22L65 21L66 21L66 23L67 23L67 24L68 24L68 23L67 23L67 21L66 21L66 20L65 20L65 19L66 19L66 18L63 18L63 17L66 17L66 16L65 16L65 14L67 14L67 13L65 13L65 11L63 11L63 12L62 12L62 11L61 11L61 12L58 12L58 13L57 13L57 12L53 12L53 11L54 11L54 10L53 10L53 8L54 8L54 9L55 9L55 8L54 8L54 5L53 5L53 4L55 4L55 5L56 5L56 4L55 4L55 3L54 3L54 2L55 2L55 1L54 1L54 2L52 2L52 3L51 3L51 4L50 4L50 5L51 5L51 4L52 4L52 6L51 6L51 7L50 7L50 6L49 6L49 7L50 7L50 8L49 8L49 9L50 9L50 10L47 10L47 7L46 7L46 6L45 6L45 7L44 7L44 5L41 5L41 4L43 4L43 3L42 3L42 1L41 1L41 2L40 2L40 3L39 3L39 2L36 2L36 1ZM60 3L60 5L61 5L61 3ZM39 4L39 5L40 5L40 4ZM20 5L20 7L21 7L21 6L22 6L22 7L23 7L23 6L22 6L22 5ZM33 5L33 8L36 8L36 5ZM30 6L30 7L31 7L31 6ZM34 6L34 7L35 7L35 6ZM38 6L38 7L39 7L39 8L40 8L40 7L41 7L41 6L40 6L40 7L39 7L39 6ZM42 6L42 7L43 7L43 6ZM52 6L52 7L53 7L53 6ZM55 6L55 7L56 7L56 6ZM60 6L60 7L61 7L61 6ZM45 7L45 9L44 9L44 8L43 8L43 9L41 9L41 12L40 12L40 11L37 11L37 12L38 12L38 13L36 13L36 12L33 12L33 14L32 14L32 15L31 15L31 13L32 13L32 12L28 12L28 10L27 10L27 11L26 11L26 12L24 12L24 11L22 11L22 12L20 12L20 13L22 13L22 14L21 14L21 15L22 15L22 16L23 16L23 17L18 17L18 16L17 16L17 17L16 17L16 18L17 18L17 20L16 20L16 21L14 21L14 22L13 22L13 21L12 21L12 22L13 22L13 24L10 24L10 25L9 25L9 24L8 24L8 23L7 23L7 24L6 24L6 25L7 25L7 24L8 24L8 25L9 25L9 26L11 26L11 25L12 25L12 28L11 28L11 27L10 27L10 30L11 30L11 29L12 29L12 28L13 28L13 29L14 29L14 28L13 28L13 27L14 27L14 26L15 26L15 27L16 27L16 28L15 28L15 29L16 29L16 28L17 28L17 30L18 30L18 31L16 31L16 33L14 33L14 34L16 34L16 35L17 35L17 34L18 34L18 35L20 35L20 34L19 34L19 33L20 33L20 32L19 32L19 31L20 31L20 29L19 29L19 27L17 27L17 26L18 26L18 25L19 25L19 26L20 26L20 25L19 25L19 24L20 24L20 23L19 23L19 22L20 22L20 21L19 21L19 20L21 20L21 19L22 19L22 18L23 18L23 20L25 20L25 21L23 21L23 22L22 22L22 21L21 21L21 22L22 22L22 23L21 23L21 24L22 24L22 25L21 25L21 27L20 27L20 28L21 28L21 29L22 29L22 30L21 30L21 31L22 31L22 32L21 32L21 33L22 33L22 35L21 35L21 36L27 36L27 37L23 37L23 38L25 38L25 39L23 39L23 40L24 40L24 41L23 41L23 42L24 42L24 41L25 41L25 42L26 42L26 43L25 43L25 44L24 44L24 43L23 43L23 44L24 44L24 45L23 45L23 46L20 46L20 48L21 48L21 49L18 49L18 50L17 50L17 54L15 54L15 55L14 55L14 56L15 56L15 57L16 57L16 58L15 58L15 59L16 59L16 60L17 60L17 61L19 61L19 62L20 62L20 59L22 59L22 57L24 57L24 58L23 58L23 59L24 59L24 60L25 60L25 61L26 61L26 60L25 60L25 59L26 59L26 58L25 58L25 57L26 57L26 56L25 56L25 55L23 55L23 54L26 54L26 49L25 49L25 48L26 48L26 47L25 47L25 46L26 46L26 43L27 43L27 42L26 42L26 40L27 40L27 41L28 41L28 40L29 40L29 41L30 41L30 42L29 42L29 44L27 44L27 45L29 45L29 46L28 46L28 47L27 47L27 48L30 48L30 49L29 49L29 50L30 50L30 49L31 49L31 50L32 50L32 51L34 51L34 50L32 50L32 49L33 49L33 48L36 48L36 47L37 47L37 48L38 48L38 47L37 47L37 46L38 46L38 45L39 45L39 46L40 46L40 47L39 47L39 48L40 48L40 47L41 47L41 48L42 48L42 49L41 49L41 50L38 50L38 49L37 49L37 50L36 50L36 49L35 49L35 50L36 50L36 51L35 51L35 52L38 52L38 53L37 53L37 54L39 54L39 55L38 55L38 57L39 57L39 58L38 58L38 60L39 60L39 62L40 62L40 59L41 59L41 58L42 58L42 60L41 60L41 62L42 62L42 63L43 63L43 61L44 61L44 60L47 60L47 62L46 62L46 63L47 63L47 65L49 65L49 66L50 66L50 64L52 64L52 62L51 62L51 63L50 63L50 64L49 64L49 63L47 63L47 62L50 62L50 61L49 61L49 60L47 60L47 59L48 59L48 58L50 58L50 59L52 59L52 60L53 60L53 61L54 61L54 62L56 62L56 59L57 59L57 58L56 58L56 54L57 54L57 56L60 56L60 55L58 55L58 54L57 54L57 53L56 53L56 52L57 52L57 51L56 51L56 50L57 50L57 49L54 49L54 48L57 48L57 47L59 47L59 46L60 46L60 47L61 47L61 50L60 50L60 49L59 49L59 51L61 51L61 52L60 52L60 53L59 53L59 54L60 54L60 53L62 53L62 54L63 54L63 53L64 53L64 52L65 52L65 50L63 50L63 51L61 51L61 50L62 50L62 46L63 46L63 47L65 47L65 46L63 46L63 45L62 45L62 40L60 40L60 39L62 39L62 38L60 38L60 37L59 37L59 36L58 36L58 35L57 35L57 34L56 34L56 32L57 32L57 31L56 31L56 30L55 30L55 29L56 29L56 28L54 28L54 27L55 27L55 25L56 25L56 27L57 27L57 28L59 28L59 27L60 27L60 26L61 26L61 27L64 27L64 26L65 26L65 25L63 25L63 26L62 26L62 25L60 25L60 24L61 24L61 22L62 22L62 19L63 19L63 18L62 18L62 16L64 16L64 14L61 14L61 13L62 13L62 12L61 12L61 13L59 13L59 14L61 14L61 15L62 15L62 16L61 16L61 17L59 17L59 18L62 18L62 19L61 19L61 21L59 21L59 23L58 23L58 22L56 22L56 20L57 20L57 21L58 21L58 20L59 20L59 19L58 19L58 18L56 18L56 20L55 20L55 21L53 21L53 22L52 22L52 23L50 23L50 24L54 24L54 23L56 23L56 24L55 24L55 25L51 25L51 26L50 26L50 25L49 25L49 24L48 24L48 23L47 23L47 24L46 24L46 22L44 22L44 20L43 20L43 17L44 17L44 16L45 16L45 17L49 17L49 18L48 18L48 19L47 19L47 20L46 20L46 21L48 21L48 22L50 22L50 21L49 21L49 20L50 20L50 15L47 15L47 16L45 16L45 15L44 15L44 16L42 16L42 17L41 17L41 18L39 18L39 19L37 19L37 18L38 18L38 17L37 17L37 16L36 16L36 18L34 18L34 17L32 17L32 15L33 15L33 16L34 16L34 15L33 15L33 14L34 14L34 13L35 13L35 15L37 15L37 14L38 14L38 13L39 13L39 14L40 14L40 15L38 15L38 16L40 16L40 15L42 15L42 14L44 14L44 13L42 13L42 14L41 14L41 12L42 12L42 10L45 10L45 9L46 9L46 7ZM21 8L21 9L22 9L22 8ZM27 8L27 9L28 9L28 8ZM29 8L29 9L30 9L30 11L32 11L32 10L31 10L31 9L30 9L30 8ZM67 8L67 9L68 9L68 8ZM2 9L2 10L3 10L3 9ZM23 9L23 10L24 10L24 9ZM51 9L51 10L50 10L50 11L49 11L49 12L47 12L47 11L46 11L46 13L47 13L47 14L50 14L50 12L51 12L51 10L52 10L52 9ZM20 10L20 11L21 11L21 10ZM6 11L6 12L7 12L7 13L6 13L6 14L7 14L7 13L8 13L8 11ZM43 11L43 12L45 12L45 11ZM2 12L2 13L3 13L3 12ZM9 12L9 13L10 13L10 12ZM22 12L22 13L24 13L24 12ZM26 12L26 13L25 13L25 14L22 14L22 15L23 15L23 16L24 16L24 17L26 17L26 19L28 19L28 20L26 20L26 21L25 21L25 22L23 22L23 24L25 24L25 23L27 23L27 24L26 24L26 25L25 25L25 26L27 26L27 27L25 27L25 28L24 28L24 27L23 27L23 26L24 26L24 25L22 25L22 29L25 29L25 28L26 28L26 30L28 30L28 31L27 31L27 32L28 32L28 33L25 33L25 34L23 34L23 35L27 35L27 36L28 36L28 37L27 37L27 38L26 38L26 39L28 39L28 38L29 38L29 36L28 36L28 35L27 35L27 34L28 34L28 33L29 33L29 35L30 35L30 36L31 36L31 38L30 38L30 39L29 39L29 40L30 40L30 41L31 41L31 40L32 40L32 35L30 35L30 33L29 33L29 31L30 31L30 32L31 32L31 31L32 31L32 32L34 32L34 31L33 31L33 30L34 30L34 29L36 29L36 30L35 30L35 32L37 32L37 33L38 33L38 35L37 35L37 36L38 36L38 37L36 37L36 38L35 38L35 37L34 37L34 39L33 39L33 41L35 41L35 42L36 42L36 43L35 43L35 44L34 44L34 43L32 43L32 42L30 42L30 44L31 44L31 45L30 45L30 46L31 46L31 47L30 47L30 48L31 48L31 49L32 49L32 48L33 48L33 47L32 47L32 46L34 46L34 45L35 45L35 47L36 47L36 46L37 46L37 45L38 45L38 44L36 44L36 43L37 43L37 40L35 40L35 39L37 39L37 38L38 38L38 40L39 40L39 41L38 41L38 43L40 43L40 44L39 44L39 45L40 45L40 44L41 44L41 43L40 43L40 41L41 41L41 40L44 40L44 42L43 42L43 44L44 44L44 45L43 45L43 46L42 46L42 45L41 45L41 46L42 46L42 48L43 48L43 46L44 46L44 49L43 49L43 50L44 50L44 49L45 49L45 52L44 52L44 51L42 51L42 50L41 50L41 51L39 51L39 53L42 53L42 52L44 52L44 53L43 53L43 56L42 56L42 57L43 57L43 60L42 60L42 61L43 61L43 60L44 60L44 59L45 59L45 58L46 58L46 59L47 59L47 57L48 57L48 56L49 56L49 57L50 57L50 58L51 58L51 57L53 57L53 58L52 58L52 59L53 59L53 58L54 58L54 59L55 59L55 58L54 58L54 56L53 56L53 55L52 55L52 53L53 53L53 52L55 52L55 51L52 51L52 50L51 50L51 49L53 49L53 48L52 48L52 47L49 47L49 46L51 46L51 45L53 45L53 42L52 42L52 43L51 43L51 44L50 44L50 42L51 42L51 41L53 41L53 40L54 40L54 41L55 41L55 42L54 42L54 44L55 44L55 42L56 42L56 45L55 45L55 47L56 47L56 45L57 45L57 46L59 46L59 45L60 45L60 44L61 44L61 43L60 43L60 44L59 44L59 45L57 45L57 43L58 43L58 42L59 42L59 41L60 41L60 40L59 40L59 39L60 39L60 38L59 38L59 37L57 37L57 35L56 35L56 34L54 34L54 35L55 35L55 36L56 36L56 37L55 37L55 38L56 38L56 39L55 39L55 40L54 40L54 38L52 38L52 37L54 37L54 36L53 36L53 35L52 35L52 36L51 36L51 37L49 37L49 38L51 38L51 39L50 39L50 42L49 42L49 43L48 43L48 41L47 41L47 40L48 40L48 39L47 39L47 40L45 40L45 39L43 39L43 38L42 38L42 39L41 39L41 40L39 40L39 37L40 37L40 38L41 38L41 35L43 35L43 36L44 36L44 37L45 37L45 38L48 38L48 37L45 37L45 36L47 36L47 35L49 35L49 36L50 36L50 35L51 35L51 33L55 33L55 32L54 32L54 30L53 30L53 27L54 27L54 26L51 26L51 27L50 27L50 28L49 28L49 27L47 27L47 25L48 25L48 24L47 24L47 25L46 25L46 24L45 24L45 23L44 23L44 22L43 22L43 24L44 24L44 25L43 25L43 26L46 26L46 27L43 27L43 28L44 28L44 29L43 29L43 30L42 30L42 27L38 27L38 28L37 28L37 29L36 29L36 28L35 28L35 27L36 27L36 26L34 26L34 25L33 25L33 24L37 24L37 23L38 23L38 26L41 26L41 25L42 25L42 24L41 24L41 23L40 23L40 22L37 22L37 21L38 21L38 20L36 20L36 19L34 19L34 20L33 20L33 19L32 19L32 18L31 18L31 19L32 19L32 20L31 20L31 21L30 21L30 20L29 20L29 16L31 16L31 15L30 15L30 14L29 14L29 13L27 13L27 12ZM39 12L39 13L40 13L40 12ZM26 13L26 14L27 14L27 13ZM51 13L51 14L52 14L52 13ZM53 13L53 14L56 14L56 16L55 16L55 15L54 15L54 16L53 16L53 15L51 15L51 16L53 16L53 17L51 17L51 18L54 18L54 19L52 19L52 20L51 20L51 21L52 21L52 20L54 20L54 19L55 19L55 17L56 17L56 16L57 16L57 14L56 14L56 13ZM9 15L9 16L10 16L10 15ZM25 15L25 16L26 16L26 15ZM27 15L27 16L29 16L29 15ZM58 15L58 16L60 16L60 15ZM1 16L1 17L2 17L2 16ZM17 17L17 18L18 18L18 20L17 20L17 21L18 21L18 22L19 22L19 21L18 21L18 20L19 20L19 19L20 19L20 18L18 18L18 17ZM27 17L27 18L28 18L28 17ZM8 18L8 19L6 19L6 20L8 20L8 21L10 21L10 20L8 20L8 19L9 19L9 18ZM44 18L44 19L46 19L46 18ZM39 19L39 20L40 20L40 21L41 21L41 20L42 20L42 21L43 21L43 20L42 20L42 19L41 19L41 20L40 20L40 19ZM57 19L57 20L58 20L58 19ZM32 20L32 21L31 21L31 22L30 22L30 21L29 21L29 22L27 22L27 21L26 21L26 22L27 22L27 23L28 23L28 25L29 25L29 26L32 26L32 25L31 25L31 24L32 24L32 23L37 23L37 22L34 22L34 21L35 21L35 20L34 20L34 21L33 21L33 20ZM32 21L32 22L33 22L33 21ZM16 22L16 23L17 23L17 22ZM29 22L29 23L30 23L30 22ZM53 22L53 23L54 23L54 22ZM57 23L57 24L56 24L56 25L57 25L57 27L59 27L59 26L60 26L60 25L59 25L59 24L58 24L58 23ZM13 24L13 25L15 25L15 26L16 26L16 25L18 25L18 24L16 24L16 25L15 25L15 24ZM29 24L29 25L30 25L30 24ZM57 24L57 25L58 25L58 24ZM0 25L0 26L1 26L1 25ZM33 26L33 27L30 27L30 28L27 28L27 29L31 29L31 30L30 30L30 31L31 31L31 30L33 30L33 27L34 27L34 26ZM0 27L0 28L2 28L2 27ZM51 27L51 28L52 28L52 27ZM31 28L31 29L32 29L32 28ZM39 28L39 29L40 29L40 28ZM45 28L45 29L47 29L47 32L46 32L46 30L44 30L44 32L43 32L43 31L40 31L40 30L39 30L39 31L37 31L37 30L38 30L38 29L37 29L37 30L36 30L36 31L37 31L37 32L38 32L38 33L39 33L39 32L43 32L43 33L40 33L40 35L39 35L39 36L40 36L40 35L41 35L41 34L43 34L43 33L44 33L44 36L45 36L45 33L48 33L48 34L50 34L50 33L51 33L51 32L52 32L52 31L51 31L51 32L50 32L50 31L49 31L49 30L50 30L50 29L49 29L49 28ZM62 28L62 29L64 29L64 30L65 30L65 29L64 29L64 28ZM48 29L48 30L49 30L49 29ZM51 29L51 30L52 30L52 29ZM3 30L3 31L5 31L5 30ZM6 30L6 31L7 31L7 30ZM23 30L23 31L24 31L24 32L22 32L22 33L24 33L24 32L26 32L26 31L25 31L25 30ZM17 32L17 33L16 33L16 34L17 34L17 33L18 33L18 32ZM44 32L44 33L45 33L45 32ZM49 32L49 33L50 33L50 32ZM66 32L66 33L67 33L67 34L68 34L68 33L67 33L67 32ZM5 33L5 36L8 36L8 33ZM31 33L31 34L32 34L32 33ZM33 33L33 36L36 36L36 33ZM61 33L61 36L64 36L64 33ZM6 34L6 35L7 35L7 34ZM34 34L34 35L35 35L35 34ZM62 34L62 35L63 35L63 34ZM65 34L65 35L66 35L66 34ZM0 35L0 36L1 36L1 35ZM2 35L2 36L3 36L3 35ZM67 35L67 36L68 36L68 35ZM56 37L56 38L57 38L57 37ZM10 39L10 40L11 40L11 41L12 41L12 40L11 40L11 39ZM56 39L56 40L55 40L55 41L56 41L56 42L57 42L57 41L56 41L56 40L58 40L58 39ZM19 41L19 42L20 42L20 43L22 43L22 42L20 42L20 41ZM7 42L7 43L6 43L6 44L8 44L8 42ZM44 42L44 43L45 43L45 42ZM46 42L46 43L47 43L47 44L46 44L46 45L47 45L47 46L49 46L49 45L50 45L50 44L48 44L48 43L47 43L47 42ZM31 43L31 44L32 44L32 45L34 45L34 44L32 44L32 43ZM20 44L20 45L21 45L21 44ZM10 45L10 46L11 46L11 45ZM45 46L45 49L46 49L46 46ZM21 47L21 48L22 48L22 49L21 49L21 51L22 51L22 52L19 52L19 51L20 51L20 50L19 50L19 51L18 51L18 52L19 52L19 53L20 53L20 55L22 55L22 54L21 54L21 53L23 53L23 52L24 52L24 51L25 51L25 50L24 50L24 51L23 51L23 50L22 50L22 49L23 49L23 47ZM24 47L24 48L25 48L25 47ZM48 47L48 48L47 48L47 49L49 49L49 50L48 50L48 51L46 51L46 52L45 52L45 53L44 53L44 56L43 56L43 57L44 57L44 56L46 56L46 57L47 57L47 56L48 56L48 55L49 55L49 56L50 56L50 55L51 55L51 54L50 54L50 53L51 53L51 52L49 52L49 51L51 51L51 50L50 50L50 48L49 48L49 47ZM27 49L27 50L28 50L28 49ZM4 50L4 51L3 51L3 53L4 53L4 51L5 51L5 50ZM9 50L9 51L10 51L10 50ZM37 50L37 51L38 51L38 50ZM0 51L0 52L1 52L1 51ZM63 51L63 52L64 52L64 51ZM6 52L6 53L7 53L7 52ZM33 52L33 53L32 53L32 54L33 54L33 53L34 53L34 52ZM45 53L45 54L46 54L46 56L47 56L47 53ZM48 53L48 54L49 54L49 55L50 55L50 54L49 54L49 53ZM55 53L55 54L54 54L54 55L55 55L55 54L56 54L56 53ZM34 54L34 55L35 55L35 54ZM40 54L40 55L41 55L41 54ZM6 55L6 56L7 56L7 57L5 57L5 56L4 56L4 57L5 57L5 58L9 58L9 57L8 57L8 56L9 56L9 55ZM15 55L15 56L16 56L16 57L17 57L17 55ZM21 56L21 57L19 57L19 59L18 59L18 58L17 58L17 60L19 60L19 59L20 59L20 58L21 58L21 57L22 57L22 56ZM39 56L39 57L41 57L41 56ZM62 57L62 58L59 58L59 59L58 59L58 60L57 60L57 61L58 61L58 60L60 60L60 59L62 59L62 58L63 58L63 57ZM64 58L64 59L65 59L65 58ZM31 59L31 60L32 60L32 59ZM3 60L3 61L5 61L5 60ZM54 60L54 61L55 61L55 60ZM33 61L33 64L36 64L36 61ZM61 61L61 64L64 64L64 61ZM28 62L28 63L29 63L29 62ZM34 62L34 63L35 63L35 62ZM44 62L44 64L45 64L45 66L46 66L46 64L45 64L45 62ZM62 62L62 63L63 63L63 62ZM65 62L65 63L66 63L66 62ZM12 65L12 66L13 66L13 67L14 67L14 66L13 66L13 65ZM31 65L31 66L32 66L32 65ZM36 66L36 67L37 67L37 66ZM10 67L10 69L11 69L11 67ZM15 67L15 68L14 68L14 69L15 69L15 68L16 68L16 67ZM21 67L21 68L20 68L20 69L21 69L21 68L22 68L22 67ZM29 67L29 68L30 68L30 67ZM63 67L63 68L64 68L64 67ZM12 68L12 69L13 69L13 68ZM54 68L54 69L56 69L56 68ZM57 68L57 69L58 69L58 68ZM0 0L0 7L7 7L7 0ZM1 1L1 6L6 6L6 1ZM2 2L2 5L5 5L5 2ZM62 0L62 7L69 7L69 0ZM63 1L63 6L68 6L68 1ZM64 2L64 5L67 5L67 2ZM0 62L0 69L7 69L7 62ZM1 63L1 68L6 68L6 63ZM2 64L2 67L5 67L5 64Z" fill="#000000"/></g></g></svg>
