<?xml version="1.0" encoding="UTF-8"?>
<svg xmlns="http://www.w3.org/2000/svg" version="1.1" width="300" height="300" viewBox="0 0 300 300"><rect x="0" y="0" width="300" height="300" fill="#ffffff"/><g transform="scale(4.348)"><g transform="translate(0,0)"><path fill-rule="evenodd" d="M10 0L10 1L8 1L8 2L9 2L9 3L8 3L8 4L10 4L10 5L8 5L8 7L9 7L9 6L10 6L10 8L11 8L11 9L10 9L10 12L11 12L11 13L7 13L7 12L6 12L6 11L8 11L8 12L9 12L9 11L8 11L8 10L9 10L9 8L6 8L6 9L5 9L5 8L0 8L0 11L2 11L2 10L5 10L5 11L3 11L3 12L2 12L2 13L1 13L1 12L0 12L0 13L1 13L1 14L0 14L0 15L1 15L1 14L3 14L3 17L2 17L2 19L1 19L1 20L0 20L0 21L1 21L1 22L0 22L0 23L1 23L1 24L0 24L0 25L1 25L1 24L2 24L2 25L3 25L3 26L4 26L4 27L5 27L5 26L6 26L6 27L7 27L7 28L6 28L6 29L7 29L7 30L4 30L4 33L2 33L2 34L0 34L0 35L2 35L2 37L3 37L3 39L5 39L5 40L4 40L4 41L5 41L5 42L3 42L3 40L2 40L2 38L1 38L1 37L0 37L0 38L1 38L1 39L0 39L0 40L2 40L2 42L0 42L0 45L2 45L2 46L0 46L0 48L1 48L1 50L0 50L0 52L3 52L3 53L2 53L2 54L1 54L1 53L0 53L0 54L1 54L1 55L0 55L0 61L1 61L1 58L2 58L2 59L3 59L3 58L4 58L4 59L7 59L7 58L6 58L6 57L7 57L7 56L5 56L5 55L4 55L4 54L5 54L5 53L4 53L4 52L3 52L3 49L5 49L5 48L6 48L6 49L7 49L7 50L6 50L6 51L8 51L8 49L10 49L10 52L9 52L9 53L7 53L7 52L6 52L6 53L7 53L7 54L6 54L6 55L8 55L8 58L9 58L9 60L6 60L6 61L8 61L8 63L11 63L11 64L8 64L8 69L9 69L9 68L11 68L11 69L12 69L12 67L13 67L13 66L14 66L14 65L17 65L17 66L15 66L15 67L17 67L17 68L15 68L15 69L21 69L21 68L19 68L19 67L20 67L20 66L19 66L19 65L20 65L20 63L19 63L19 62L20 62L20 61L19 61L19 60L20 60L20 59L21 59L21 60L23 60L23 59L24 59L24 60L25 60L25 61L23 61L23 62L25 62L25 63L26 63L26 64L23 64L23 66L21 66L21 67L23 67L23 66L25 66L25 68L23 68L23 69L26 69L26 66L25 66L25 65L28 65L28 66L27 66L27 67L28 67L28 68L29 68L29 69L32 69L32 67L33 67L33 65L35 65L35 67L34 67L34 68L36 68L36 69L38 69L38 68L37 68L37 67L39 67L39 68L43 68L43 69L44 69L44 68L47 68L47 69L50 69L50 67L48 67L48 66L50 66L50 65L51 65L51 68L52 68L52 67L53 67L53 66L56 66L56 65L54 65L54 64L57 64L57 65L58 65L58 64L57 64L57 63L56 63L56 62L55 62L55 61L56 61L56 60L55 60L55 59L56 59L56 58L57 58L57 59L59 59L59 58L61 58L61 59L62 59L62 58L63 58L63 57L62 57L62 56L65 56L65 57L67 57L67 56L68 56L68 54L69 54L69 53L67 53L67 52L68 52L68 50L69 50L69 47L68 47L68 44L67 44L67 42L69 42L69 40L68 40L68 41L67 41L67 39L68 39L68 38L65 38L65 39L63 39L63 41L65 41L65 42L63 42L63 45L66 45L66 47L64 47L64 46L63 46L63 49L62 49L62 46L61 46L61 45L60 45L60 47L59 47L59 48L58 48L58 46L57 46L57 45L56 45L56 42L57 42L57 41L59 41L59 42L58 42L58 43L59 43L59 44L58 44L58 45L59 45L59 44L62 44L62 42L61 42L61 41L62 41L62 38L61 38L61 40L60 40L60 41L59 41L59 40L57 40L57 41L56 41L56 39L55 39L55 38L57 38L57 37L58 37L58 36L57 36L57 35L56 35L56 34L55 34L55 33L56 33L56 32L58 32L58 33L57 33L57 34L58 34L58 35L60 35L60 37L59 37L59 39L60 39L60 37L63 37L63 38L64 38L64 37L65 37L65 36L66 36L66 37L68 37L68 36L69 36L69 35L68 35L68 34L69 34L69 31L68 31L68 29L67 29L67 31L64 31L64 32L63 32L63 31L61 31L61 30L62 30L62 29L63 29L63 30L64 30L64 29L63 29L63 28L67 28L67 27L68 27L68 26L66 26L66 25L69 25L69 24L68 24L68 22L69 22L69 21L68 21L68 18L69 18L69 17L67 17L67 15L68 15L68 16L69 16L69 15L68 15L68 13L69 13L69 11L68 11L68 10L69 10L69 9L68 9L68 8L67 8L67 11L64 11L64 12L63 12L63 11L61 11L61 13L59 13L59 14L61 14L61 15L57 15L57 17L56 17L56 13L54 13L54 14L53 14L53 15L54 15L54 14L55 14L55 17L54 17L54 16L53 16L53 17L51 17L51 16L47 16L47 17L48 17L48 18L47 18L47 20L46 20L46 21L47 21L47 24L46 24L46 22L44 22L44 20L43 20L43 17L44 17L44 16L45 16L45 17L46 17L46 16L45 16L45 15L47 15L47 14L50 14L50 15L52 15L52 12L53 12L53 11L54 11L54 12L57 12L57 13L58 13L58 12L60 12L60 11L58 11L58 10L57 10L57 11L55 11L55 9L53 9L53 10L52 10L52 8L53 8L53 5L54 5L54 8L57 8L57 9L58 9L58 8L57 8L57 6L56 6L56 7L55 7L55 5L56 5L56 3L55 3L55 2L53 2L53 3L54 3L54 4L53 4L53 5L52 5L52 4L51 4L51 5L49 5L49 3L48 3L48 1L45 1L45 0L44 0L44 1L45 1L45 2L44 2L44 3L43 3L43 4L41 4L41 5L40 5L40 7L39 7L39 6L38 6L38 5L37 5L37 4L38 4L38 3L36 3L36 2L37 2L37 1L38 1L38 2L39 2L39 3L40 3L40 2L41 2L41 1L42 1L42 2L43 2L43 0L39 0L39 1L38 1L38 0L36 0L36 1L33 1L33 2L35 2L35 4L34 4L34 3L33 3L33 4L32 4L32 3L29 3L29 1L32 1L32 0L28 0L28 1L27 1L27 2L28 2L28 3L27 3L27 4L26 4L26 3L25 3L25 2L26 2L26 1L25 1L25 0L21 0L21 2L23 2L23 1L25 1L25 2L24 2L24 3L23 3L23 4L22 4L22 3L17 3L17 1L19 1L19 2L20 2L20 1L19 1L19 0L16 0L16 1L14 1L14 2L16 2L16 4L15 4L15 5L16 5L16 7L15 7L15 6L14 6L14 7L15 7L15 8L14 8L14 10L13 10L13 9L12 9L12 8L13 8L13 5L14 5L14 3L13 3L13 4L12 4L12 5L11 5L11 4L10 4L10 1L11 1L11 2L12 2L12 0ZM49 0L49 1L50 1L50 2L51 2L51 3L52 3L52 1L56 1L56 2L57 2L57 3L59 3L59 2L57 2L57 1L61 1L61 0L57 0L57 1L56 1L56 0L52 0L52 1L50 1L50 0ZM45 2L45 3L44 3L44 5L41 5L41 8L37 8L37 9L38 9L38 10L36 10L36 9L31 9L31 7L32 7L32 5L30 5L30 4L29 4L29 3L28 3L28 4L27 4L27 5L30 5L30 6L29 6L29 8L28 8L28 9L27 9L27 7L28 7L28 6L27 6L27 7L26 7L26 5L22 5L22 4L20 4L20 6L19 6L19 7L18 7L18 6L17 6L17 7L16 7L16 8L15 8L15 9L17 9L17 7L18 7L18 8L19 8L19 7L20 7L20 12L19 12L19 13L20 13L20 14L21 14L21 15L19 15L19 14L18 14L18 15L17 15L17 14L16 14L16 13L17 13L17 12L18 12L18 11L19 11L19 10L17 10L17 11L16 11L16 13L15 13L15 12L14 12L14 11L15 11L15 10L14 10L14 11L13 11L13 12L12 12L12 13L13 13L13 12L14 12L14 13L15 13L15 14L14 14L14 15L13 15L13 14L11 14L11 15L10 15L10 14L9 14L9 15L10 15L10 16L9 16L9 19L8 19L8 16L7 16L7 15L6 15L6 16L7 16L7 17L5 17L5 18L4 18L4 19L5 19L5 20L1 20L1 21L5 21L5 20L9 20L9 21L11 21L11 23L12 23L12 24L11 24L11 26L10 26L10 24L9 24L9 23L8 23L8 21L6 21L6 22L7 22L7 23L6 23L6 24L7 24L7 25L6 25L6 26L7 26L7 25L9 25L9 27L8 27L8 29L10 29L10 30L11 30L11 29L13 29L13 28L14 28L14 29L15 29L15 30L16 30L16 31L15 31L15 33L13 33L13 32L14 32L14 31L13 31L13 32L11 32L11 31L9 31L9 30L8 30L8 31L9 31L9 33L10 33L10 32L11 32L11 34L17 34L17 36L15 36L15 35L12 35L12 36L13 36L13 38L12 38L12 39L11 39L11 38L10 38L10 36L11 36L11 35L10 35L10 36L9 36L9 37L6 37L6 38L5 38L5 37L4 37L4 34L2 34L2 35L3 35L3 37L4 37L4 38L5 38L5 39L6 39L6 40L5 40L5 41L6 41L6 42L7 42L7 43L6 43L6 44L5 44L5 45L4 45L4 44L3 44L3 43L1 43L1 44L3 44L3 48L5 48L5 47L6 47L6 48L7 48L7 47L6 47L6 46L7 46L7 45L6 45L6 44L8 44L8 47L11 47L11 49L12 49L12 48L14 48L14 47L11 47L11 46L9 46L9 45L10 45L10 44L11 44L11 45L12 45L12 46L15 46L15 50L17 50L17 51L18 51L18 49L21 49L21 52L19 52L19 53L16 53L16 51L15 51L15 53L16 53L16 54L14 54L14 55L13 55L13 58L12 58L12 55L11 55L11 56L10 56L10 54L11 54L11 53L13 53L13 52L14 52L14 51L13 51L13 50L14 50L14 49L13 49L13 50L12 50L12 51L11 51L11 53L9 53L9 58L10 58L10 57L11 57L11 60L13 60L13 58L14 58L14 57L15 57L15 58L16 58L16 57L17 57L17 56L18 56L18 55L19 55L19 56L20 56L20 55L22 55L22 54L23 54L23 55L25 55L25 56L26 56L26 57L25 57L25 58L26 58L26 59L25 59L25 60L26 60L26 62L27 62L27 63L28 63L28 65L29 65L29 66L30 66L30 65L29 65L29 64L30 64L30 63L28 63L28 62L31 62L31 63L32 63L32 60L33 60L33 59L34 59L34 60L35 60L35 57L36 57L36 56L34 56L34 55L33 55L33 54L36 54L36 53L38 53L38 52L35 52L35 51L36 51L36 50L37 50L37 51L39 51L39 52L40 52L40 53L39 53L39 54L37 54L37 55L38 55L38 58L36 58L36 59L39 59L39 57L41 57L41 56L39 56L39 54L40 54L40 55L42 55L42 54L40 54L40 53L43 53L43 56L42 56L42 57L43 57L43 60L42 60L42 58L41 58L41 59L40 59L40 62L39 62L39 61L38 61L38 63L37 63L37 64L38 64L38 65L37 65L37 66L39 66L39 67L40 67L40 66L41 66L41 67L43 67L43 68L44 68L44 66L45 66L45 67L46 67L46 66L47 66L47 64L49 64L49 65L50 65L50 64L51 64L51 65L53 65L53 64L54 64L54 62L53 62L53 63L51 63L51 61L53 61L53 60L54 60L54 61L55 61L55 60L54 60L54 58L53 58L53 59L52 59L52 60L50 60L50 58L51 58L51 57L55 57L55 56L53 56L53 55L52 55L52 54L54 54L54 55L55 55L55 54L56 54L56 57L57 57L57 58L59 58L59 57L60 57L60 56L61 56L61 55L65 55L65 53L66 53L66 52L65 52L65 51L67 51L67 49L68 49L68 47L67 47L67 48L64 48L64 49L63 49L63 50L62 50L62 49L60 49L60 48L61 48L61 47L60 47L60 48L59 48L59 49L57 49L57 48L56 48L56 47L55 47L55 46L54 46L54 45L55 45L55 43L54 43L54 44L53 44L53 42L51 42L51 41L55 41L55 40L54 40L54 38L53 38L53 37L54 37L54 36L53 36L53 35L55 35L55 36L56 36L56 37L57 37L57 36L56 36L56 35L55 35L55 34L53 34L53 35L52 35L52 36L51 36L51 33L55 33L55 31L54 31L54 30L53 30L53 31L51 31L51 30L52 30L52 29L54 29L54 28L52 28L52 27L53 27L53 26L54 26L54 27L55 27L55 28L56 28L56 29L57 29L57 30L56 30L56 31L59 31L59 29L60 29L60 27L61 27L61 29L62 29L62 28L63 28L63 27L66 27L66 26L65 26L65 23L64 23L64 22L67 22L67 20L66 20L66 19L67 19L67 18L66 18L66 16L65 16L65 15L64 15L64 14L67 14L67 12L68 12L68 11L67 11L67 12L64 12L64 14L63 14L63 12L62 12L62 13L61 13L61 14L63 14L63 15L64 15L64 16L62 16L62 15L61 15L61 16L62 16L62 18L61 18L61 19L59 19L59 17L57 17L57 18L56 18L56 17L55 17L55 19L54 19L54 20L51 20L51 17L50 17L50 18L49 18L49 19L48 19L48 20L47 20L47 21L48 21L48 20L50 20L50 22L49 22L49 23L48 23L48 24L47 24L47 25L46 25L46 24L45 24L45 23L44 23L44 22L41 22L41 21L43 21L43 20L42 20L42 19L40 19L40 20L39 20L39 22L37 22L37 24L35 24L35 23L34 23L34 22L33 22L33 21L34 21L34 20L35 20L35 21L36 21L36 18L37 18L37 17L36 17L36 18L35 18L35 13L34 13L34 12L36 12L36 13L37 13L37 11L38 11L38 10L40 10L40 12L38 12L38 15L40 15L40 16L38 16L38 19L39 19L39 18L41 18L41 17L42 17L42 16L44 16L44 15L45 15L45 14L47 14L47 13L45 13L45 12L44 12L44 11L47 11L47 12L49 12L49 13L50 13L50 14L51 14L51 13L50 13L50 12L49 12L49 11L51 11L51 12L52 12L52 10L51 10L51 8L52 8L52 6L51 6L51 7L50 7L50 6L49 6L49 5L48 5L48 4L47 4L47 2ZM45 3L45 4L46 4L46 3ZM60 3L60 5L61 5L61 3ZM16 4L16 5L17 5L17 4ZM58 4L58 7L59 7L59 8L60 8L60 9L59 9L59 10L62 10L62 8L61 8L61 6L60 6L60 7L59 7L59 4ZM10 5L10 6L11 6L11 8L12 8L12 6L11 6L11 5ZM21 5L21 6L20 6L20 7L21 7L21 6L22 6L22 7L23 7L23 6L22 6L22 5ZM33 5L33 8L36 8L36 5ZM44 5L44 7L45 7L45 9L44 9L44 8L43 8L43 9L40 9L40 10L41 10L41 12L40 12L40 13L39 13L39 14L40 14L40 15L42 15L42 14L43 14L43 13L44 13L44 14L45 14L45 13L44 13L44 12L43 12L43 13L42 13L42 14L41 14L41 12L42 12L42 10L45 10L45 9L46 9L46 7L47 7L47 10L50 10L50 9L49 9L49 6L48 6L48 7L47 7L47 6L46 6L46 5ZM24 6L24 9L23 9L23 10L21 10L21 12L20 12L20 13L21 13L21 14L22 14L22 13L21 13L21 12L22 12L22 11L23 11L23 12L24 12L24 13L23 13L23 14L27 14L27 15L28 15L28 14L27 14L27 13L26 13L26 11L29 11L29 18L30 18L30 19L31 19L31 20L28 20L28 19L27 19L27 18L28 18L28 17L27 17L27 18L26 18L26 17L24 17L24 16L23 16L23 17L24 17L24 18L26 18L26 20L25 20L25 21L23 21L23 22L22 22L22 23L21 23L21 22L20 22L20 21L19 21L19 20L22 20L22 18L21 18L21 17L18 17L18 16L17 16L17 15L16 15L16 14L15 14L15 15L16 15L16 17L15 17L15 16L14 16L14 19L15 19L15 21L13 21L13 20L11 20L11 21L12 21L12 23L13 23L13 24L12 24L12 25L13 25L13 26L12 26L12 27L9 27L9 28L10 28L10 29L11 29L11 28L13 28L13 27L16 27L16 28L15 28L15 29L16 29L16 28L17 28L17 29L19 29L19 30L18 30L18 31L17 31L17 32L18 32L18 33L17 33L17 34L18 34L18 35L20 35L20 34L19 34L19 33L20 33L20 32L22 32L22 31L21 31L21 30L20 30L20 27L19 27L19 28L17 28L17 26L20 26L20 23L21 23L21 24L22 24L22 25L21 25L21 28L23 28L23 29L22 29L22 30L23 30L23 32L24 32L24 33L21 33L21 36L23 36L23 34L24 34L24 37L23 37L23 38L25 38L25 39L24 39L24 41L23 41L23 42L24 42L24 41L26 41L26 40L25 40L25 39L27 39L27 41L28 41L28 40L29 40L29 41L30 41L30 42L33 42L33 44L32 44L32 43L29 43L29 42L28 42L28 44L27 44L27 42L25 42L25 44L24 44L24 43L23 43L23 44L24 44L24 45L23 45L23 46L26 46L26 44L27 44L27 45L30 45L30 46L28 46L28 47L30 47L30 48L29 48L29 49L31 49L31 50L33 50L33 51L34 51L34 50L36 50L36 49L31 49L31 44L32 44L32 45L33 45L33 44L36 44L36 45L37 45L37 46L36 46L36 47L35 47L35 45L34 45L34 47L35 47L35 48L36 48L36 47L37 47L37 48L38 48L38 47L39 47L39 48L40 48L40 47L41 47L41 48L42 48L42 49L41 49L41 50L39 50L39 51L40 51L40 52L43 52L43 53L44 53L44 56L43 56L43 57L44 57L44 56L46 56L46 57L49 57L49 58L50 58L50 57L51 57L51 56L46 56L46 54L45 54L45 53L49 53L49 51L51 51L51 52L52 52L52 51L51 51L51 50L56 50L56 48L54 48L54 46L53 46L53 45L51 45L51 44L52 44L52 43L51 43L51 44L50 44L50 41L51 41L51 40L47 40L47 39L48 39L48 38L45 38L45 37L50 37L50 36L49 36L49 34L50 34L50 33L51 33L51 32L50 32L50 29L52 29L52 28L51 28L51 27L52 27L52 25L51 25L51 24L52 24L52 22L54 22L54 24L55 24L55 25L54 25L54 26L55 26L55 25L56 25L56 24L57 24L57 25L58 25L58 24L60 24L60 25L59 25L59 27L57 27L57 26L56 26L56 27L57 27L57 28L59 28L59 27L60 27L60 26L61 26L61 27L63 27L63 26L64 26L64 25L63 25L63 24L64 24L64 23L63 23L63 22L62 22L62 21L61 21L61 20L59 20L59 22L62 22L62 23L63 23L63 24L62 24L62 25L61 25L61 23L58 23L58 22L57 22L57 23L56 23L56 22L55 22L55 21L51 21L51 22L50 22L50 23L49 23L49 24L48 24L48 25L47 25L47 26L48 26L48 27L50 27L50 29L49 29L49 28L47 28L47 30L45 30L45 29L44 29L44 27L45 27L45 28L46 28L46 26L43 26L43 25L44 25L44 24L43 24L43 23L41 23L41 22L39 22L39 24L37 24L37 25L35 25L35 24L34 24L34 23L33 23L33 22L32 22L32 21L33 21L33 20L34 20L34 19L35 19L35 18L34 18L34 19L33 19L33 16L34 16L34 15L33 15L33 14L34 14L34 13L33 13L33 14L32 14L32 15L31 15L31 14L30 14L30 13L32 13L32 12L31 12L31 11L32 11L32 10L31 10L31 9L30 9L30 8L29 8L29 9L30 9L30 10L25 10L25 12L24 12L24 11L23 11L23 10L24 10L24 9L26 9L26 7L25 7L25 6ZM30 6L30 7L31 7L31 6ZM34 6L34 7L35 7L35 6ZM37 6L37 7L38 7L38 6ZM42 6L42 7L43 7L43 6ZM45 6L45 7L46 7L46 6ZM21 8L21 9L22 9L22 8ZM63 8L63 10L64 10L64 8ZM65 8L65 9L66 9L66 8ZM6 9L6 10L8 10L8 9ZM11 10L11 11L12 11L12 10ZM35 10L35 11L36 11L36 10ZM33 11L33 12L34 12L34 11ZM57 11L57 12L58 12L58 11ZM4 12L4 13L3 13L3 14L4 14L4 16L5 16L5 13L6 13L6 14L7 14L7 13L6 13L6 12ZM12 15L12 18L11 18L11 17L10 17L10 18L11 18L11 19L12 19L12 18L13 18L13 15ZM21 15L21 16L22 16L22 15ZM25 15L25 16L26 16L26 15ZM32 15L32 16L31 16L31 17L32 17L32 16L33 16L33 15ZM36 15L36 16L37 16L37 15ZM0 16L0 17L1 17L1 16ZM17 17L17 18L18 18L18 17ZM63 17L63 18L62 18L62 19L63 19L63 20L64 20L64 19L63 19L63 18L65 18L65 19L66 19L66 18L65 18L65 17ZM5 18L5 19L7 19L7 18ZM19 18L19 19L20 19L20 18ZM44 18L44 19L45 19L45 18ZM57 18L57 19L55 19L55 20L57 20L57 21L58 21L58 20L57 20L57 19L58 19L58 18ZM9 19L9 20L10 20L10 19ZM16 19L16 25L15 25L15 22L14 22L14 24L13 24L13 25L14 25L14 26L16 26L16 25L17 25L17 24L18 24L18 23L17 23L17 21L18 21L18 22L19 22L19 21L18 21L18 20L17 20L17 19ZM23 19L23 20L24 20L24 19ZM32 19L32 20L31 20L31 21L27 21L27 20L26 20L26 22L29 22L29 23L30 23L30 22L31 22L31 21L32 21L32 20L33 20L33 19ZM37 20L37 21L38 21L38 20ZM65 20L65 21L66 21L66 20ZM1 22L1 23L2 23L2 22ZM23 22L23 24L26 24L26 25L25 25L25 26L26 26L26 27L27 27L27 26L28 26L28 27L33 27L33 28L34 28L34 29L33 29L33 30L31 30L31 29L32 29L32 28L31 28L31 29L30 29L30 28L29 28L29 29L28 29L28 28L26 28L26 29L25 29L25 28L24 28L24 27L23 27L23 28L24 28L24 29L25 29L25 30L28 30L28 31L27 31L27 32L28 32L28 33L25 33L25 34L26 34L26 35L25 35L25 37L27 37L27 39L29 39L29 40L30 40L30 41L34 41L34 43L38 43L38 44L37 44L37 45L38 45L38 46L37 46L37 47L38 47L38 46L39 46L39 47L40 47L40 46L39 46L39 45L40 45L40 44L41 44L41 43L40 43L40 41L41 41L41 40L44 40L44 42L43 42L43 43L44 43L44 42L45 42L45 43L46 43L46 42L48 42L48 44L49 44L49 45L50 45L50 46L47 46L47 45L46 45L46 44L44 44L44 45L46 45L46 46L45 46L45 47L44 47L44 46L42 46L42 45L41 45L41 46L42 46L42 48L43 48L43 47L44 47L44 49L43 49L43 50L44 50L44 49L45 49L45 52L44 52L44 51L43 51L43 52L44 52L44 53L45 53L45 52L46 52L46 51L47 51L47 52L48 52L48 51L49 51L49 50L51 50L51 49L54 49L54 48L51 48L51 49L50 49L50 48L49 48L49 47L50 47L50 46L51 46L51 45L50 45L50 44L49 44L49 41L47 41L47 40L45 40L45 39L41 39L41 38L40 38L40 39L41 39L41 40L38 40L38 39L39 39L39 36L40 36L40 37L41 37L41 36L42 36L42 37L43 37L43 36L44 36L44 37L45 37L45 36L47 36L47 33L45 33L45 32L44 32L44 29L43 29L43 30L42 30L42 27L38 27L38 28L37 28L37 29L38 29L38 30L37 30L37 31L36 31L36 32L37 32L37 33L38 33L38 35L37 35L37 36L38 36L38 37L36 37L36 39L37 39L37 40L36 40L36 41L37 41L37 40L38 40L38 42L35 42L35 39L33 39L33 38L32 38L32 37L31 37L31 38L30 38L30 39L29 39L29 36L30 36L30 35L32 35L32 33L31 33L31 34L30 34L30 33L29 33L29 32L31 32L31 31L32 31L32 32L34 32L34 31L33 31L33 30L34 30L34 29L35 29L35 30L36 30L36 28L35 28L35 27L36 27L36 26L35 26L35 25L34 25L34 24L33 24L33 23L31 23L31 24L33 24L33 25L31 25L31 26L29 26L29 25L30 25L30 24L28 24L28 23L27 23L27 24L26 24L26 23L24 23L24 22ZM3 23L3 24L4 24L4 23ZM7 23L7 24L8 24L8 23ZM50 23L50 24L49 24L49 25L48 25L48 26L49 26L49 25L50 25L50 26L51 26L51 25L50 25L50 24L51 24L51 23ZM27 24L27 25L26 25L26 26L27 26L27 25L28 25L28 24ZM39 24L39 25L38 25L38 26L41 26L41 25L42 25L42 24ZM4 25L4 26L5 26L5 25ZM22 25L22 26L24 26L24 25ZM33 25L33 27L35 27L35 26L34 26L34 25ZM62 25L62 26L63 26L63 25ZM1 26L1 27L2 27L2 28L1 28L1 30L0 30L0 33L1 33L1 31L2 31L2 30L3 30L3 29L2 29L2 28L3 28L3 27L2 27L2 26ZM4 28L4 29L5 29L5 28ZM38 28L38 29L40 29L40 28ZM29 29L29 30L30 30L30 29ZM48 29L48 30L49 30L49 29ZM19 30L19 32L20 32L20 30ZM38 30L38 33L39 33L39 32L43 32L43 33L40 33L40 36L41 36L41 34L43 34L43 33L44 33L44 36L45 36L45 33L44 33L44 32L43 32L43 31L40 31L40 30ZM5 31L5 32L7 32L7 31ZM24 31L24 32L26 32L26 31ZM28 31L28 32L29 32L29 31ZM46 31L46 32L49 32L49 33L50 33L50 32L49 32L49 31ZM60 31L60 32L61 32L61 31ZM67 31L67 32L66 32L66 33L65 33L65 35L67 35L67 36L68 36L68 35L67 35L67 34L68 34L68 31ZM5 33L5 36L8 36L8 33ZM28 33L28 34L27 34L27 35L26 35L26 36L27 36L27 37L28 37L28 36L29 36L29 33ZM33 33L33 36L36 36L36 33ZM58 33L58 34L59 34L59 33ZM61 33L61 36L64 36L64 33ZM66 33L66 34L67 34L67 33ZM6 34L6 35L7 35L7 34ZM34 34L34 35L35 35L35 34ZM62 34L62 35L63 35L63 34ZM27 35L27 36L28 36L28 35ZM17 36L17 38L18 38L18 39L19 39L19 40L17 40L17 41L18 41L18 42L20 42L20 43L21 43L21 44L17 44L17 45L19 45L19 46L20 46L20 47L21 47L21 48L22 48L22 47L21 47L21 46L20 46L20 45L21 45L21 44L22 44L22 42L20 42L20 41L22 41L22 40L21 40L21 39L22 39L22 38L21 38L21 39L20 39L20 36ZM34 37L34 38L35 38L35 37ZM51 37L51 38L49 38L49 39L51 39L51 38L52 38L52 37ZM6 38L6 39L8 39L8 38ZM37 38L37 39L38 39L38 38ZM10 39L10 41L9 41L9 40L8 40L8 41L7 41L7 40L6 40L6 41L7 41L7 42L8 42L8 44L9 44L9 43L10 43L10 42L11 42L11 44L12 44L12 42L13 42L13 43L15 43L15 45L16 45L16 43L15 43L15 42L16 42L16 41L14 41L14 42L13 42L13 40L14 40L14 39L12 39L12 40L11 40L11 39ZM31 39L31 40L33 40L33 39ZM52 39L52 40L53 40L53 39ZM8 41L8 42L9 42L9 41ZM66 41L66 42L65 42L65 43L66 43L66 42L67 42L67 41ZM38 42L38 43L39 43L39 44L40 44L40 43L39 43L39 42ZM59 42L59 43L61 43L61 42ZM13 44L13 45L14 45L14 44ZM5 45L5 46L6 46L6 45ZM17 46L17 47L16 47L16 48L17 48L17 49L18 49L18 48L17 48L17 47L18 47L18 46ZM32 46L32 47L33 47L33 46ZM46 46L46 47L45 47L45 49L46 49L46 47L47 47L47 48L48 48L48 50L47 50L47 51L48 51L48 50L49 50L49 48L48 48L48 47L47 47L47 46ZM52 46L52 47L53 47L53 46ZM25 47L25 48L26 48L26 47ZM23 48L23 49L22 49L22 50L23 50L23 51L22 51L22 52L23 52L23 54L25 54L25 53L26 53L26 54L27 54L27 55L26 55L26 56L27 56L27 57L26 57L26 58L27 58L27 57L28 57L28 56L30 56L30 57L29 57L29 58L28 58L28 59L27 59L27 61L28 61L28 59L29 59L29 61L31 61L31 60L32 60L32 59L29 59L29 58L32 58L32 57L33 57L33 56L31 56L31 52L32 52L32 54L33 54L33 53L34 53L34 52L32 52L32 51L31 51L31 52L28 52L28 51L26 51L26 52L25 52L25 50L26 50L26 49L24 49L24 48ZM23 49L23 50L24 50L24 49ZM27 49L27 50L28 50L28 49ZM37 49L37 50L38 50L38 49ZM59 49L59 50L58 50L58 51L57 51L57 52L58 52L58 51L62 51L62 52L60 52L60 53L59 53L59 54L58 54L58 53L57 53L57 54L58 54L58 55L57 55L57 56L59 56L59 54L60 54L60 55L61 55L61 54L62 54L62 52L63 52L63 53L64 53L64 52L63 52L63 51L64 51L64 50L63 50L63 51L62 51L62 50L60 50L60 49ZM4 50L4 51L5 51L5 50ZM19 50L19 51L20 51L20 50ZM41 50L41 51L42 51L42 50ZM53 51L53 53L54 53L54 54L55 54L55 53L56 53L56 52L55 52L55 51ZM26 52L26 53L27 53L27 54L29 54L29 55L30 55L30 54L29 54L29 53L27 53L27 52ZM19 53L19 54L20 54L20 53ZM60 53L60 54L61 54L61 53ZM16 54L16 55L18 55L18 54ZM49 54L49 55L51 55L51 54ZM1 55L1 56L2 56L2 58L3 58L3 57L4 57L4 58L5 58L5 57L4 57L4 56L3 56L3 55ZM14 55L14 56L15 56L15 57L16 57L16 56L15 56L15 55ZM21 56L21 57L19 57L19 59L18 59L18 58L17 58L17 59L18 59L18 60L16 60L16 59L15 59L15 60L16 60L16 61L13 61L13 63L12 63L12 64L11 64L11 65L10 65L10 67L12 67L12 66L13 66L13 64L14 64L14 63L15 63L15 64L17 64L17 65L18 65L18 64L17 64L17 63L18 63L18 62L19 62L19 61L18 61L18 60L19 60L19 59L20 59L20 58L21 58L21 57L22 57L22 59L23 59L23 58L24 58L24 57L22 57L22 56ZM61 57L61 58L62 58L62 57ZM68 57L68 58L67 58L67 59L65 59L65 58L64 58L64 59L65 59L65 60L60 60L60 61L59 61L59 62L58 62L58 61L57 61L57 62L58 62L58 63L60 63L60 66L59 66L59 67L60 67L60 68L61 68L61 69L62 69L62 66L64 66L64 65L65 65L65 67L63 67L63 69L64 69L64 68L67 68L67 69L68 69L68 68L67 68L67 67L66 67L66 66L67 66L67 65L65 65L65 64L67 64L67 63L68 63L68 65L69 65L69 63L68 63L68 62L69 62L69 61L68 61L68 60L69 60L69 59L68 59L68 58L69 58L69 57ZM45 58L45 61L44 61L44 60L43 60L43 61L42 61L42 60L41 60L41 62L42 62L42 63L43 63L43 61L44 61L44 62L45 62L45 61L46 61L46 58ZM47 58L47 59L48 59L48 58ZM67 59L67 60L68 60L68 59ZM3 60L3 61L5 61L5 60ZM9 60L9 62L10 62L10 60ZM47 60L47 62L46 62L46 63L47 63L47 62L50 62L50 60ZM11 61L11 62L12 62L12 61ZM17 61L17 62L18 62L18 61ZM21 61L21 64L22 64L22 61ZM33 61L33 64L36 64L36 61ZM61 61L61 64L64 64L64 61ZM67 61L67 62L68 62L68 61ZM15 62L15 63L16 63L16 62ZM34 62L34 63L35 63L35 62ZM62 62L62 63L63 63L63 62ZM65 62L65 63L66 63L66 62ZM38 63L38 64L41 64L41 66L44 66L44 64L45 64L45 66L46 66L46 64L45 64L45 63L44 63L44 64L41 64L41 63ZM11 65L11 66L12 66L12 65ZM31 65L31 66L32 66L32 65ZM61 65L61 66L62 66L62 65ZM18 66L18 67L19 67L19 66ZM57 66L57 67L56 67L56 68L55 68L55 67L54 67L54 68L55 68L55 69L56 69L56 68L57 68L57 69L58 69L58 66ZM29 67L29 68L30 68L30 67ZM13 68L13 69L14 69L14 68ZM0 0L0 7L7 7L7 0ZM1 1L1 6L6 6L6 1ZM2 2L2 5L5 5L5 2ZM62 0L62 7L69 7L69 0ZM63 1L63 6L68 6L68 1ZM64 2L64 5L67 5L67 2ZM0 62L0 69L7 69L7 62ZM1 63L1 68L6 68L6 63ZM2 64L2 67L5 67L5 64Z" fill="#000000"/></g></g></svg>
