<?xml version="1.0" encoding="UTF-8"?>
<svg xmlns="http://www.w3.org/2000/svg" version="1.1" width="300" height="300" viewBox="0 0 300 300"><rect x="0" y="0" width="300" height="300" fill="#ffffff"/><g transform="scale(4.348)"><g transform="translate(0,0)"><path fill-rule="evenodd" d="M8 0L8 4L9 4L9 5L8 5L8 7L9 7L9 8L10 8L10 11L11 11L11 15L9 15L9 16L8 16L8 15L7 15L7 14L8 14L8 12L9 12L9 14L10 14L10 12L9 12L9 11L7 11L7 10L8 10L8 9L7 9L7 8L4 8L4 9L2 9L2 8L0 8L0 9L1 9L1 12L0 12L0 14L1 14L1 17L0 17L0 18L1 18L1 19L0 19L0 26L2 26L2 27L4 27L4 29L7 29L7 28L8 28L8 24L6 24L6 23L7 23L7 22L6 22L6 21L7 21L7 20L6 20L6 21L5 21L5 19L7 19L7 18L6 18L6 17L7 17L7 16L8 16L8 17L9 17L9 18L8 18L8 21L9 21L9 20L10 20L10 19L11 19L11 18L14 18L14 19L15 19L15 20L13 20L13 22L12 22L12 20L11 20L11 21L10 21L10 22L9 22L9 25L10 25L10 27L9 27L9 32L8 32L8 30L4 30L4 31L7 31L7 32L4 32L4 34L1 34L1 33L2 33L2 31L3 31L3 29L2 29L2 28L1 28L1 29L2 29L2 31L0 31L0 35L4 35L4 36L0 36L0 38L1 38L1 39L0 39L0 41L1 41L1 39L3 39L3 42L0 42L0 46L1 46L1 43L3 43L3 45L2 45L2 47L1 47L1 48L0 48L0 51L1 51L1 50L4 50L4 52L3 52L3 51L2 51L2 52L3 52L3 53L1 53L1 52L0 52L0 56L1 56L1 57L0 57L0 61L1 61L1 58L2 58L2 59L3 59L3 58L2 58L2 57L3 57L3 56L5 56L5 57L4 57L4 59L7 59L7 58L5 58L5 57L7 57L7 56L8 56L8 55L9 55L9 57L10 57L10 58L8 58L8 59L11 59L11 60L12 60L12 61L11 61L11 63L10 63L10 60L9 60L9 61L8 61L8 60L6 60L6 61L8 61L8 62L9 62L9 63L8 63L8 65L9 65L9 64L11 64L11 66L9 66L9 67L8 67L8 69L9 69L9 68L10 68L10 67L11 67L11 66L12 66L12 68L11 68L11 69L13 69L13 65L14 65L14 69L17 69L17 67L16 67L16 68L15 68L15 66L16 66L16 65L14 65L14 64L13 64L13 63L14 63L14 62L13 62L13 59L14 59L14 60L15 60L15 62L16 62L16 63L15 63L15 64L16 64L16 63L18 63L18 61L20 61L20 65L19 65L19 64L18 64L18 65L17 65L17 66L19 66L19 67L18 67L18 69L19 69L19 67L20 67L20 66L21 66L21 65L22 65L22 68L23 68L23 69L24 69L24 68L25 68L25 69L28 69L28 68L27 68L27 67L28 67L28 66L29 66L29 65L30 65L30 66L31 66L31 67L30 67L30 68L29 68L29 69L31 69L31 68L32 68L32 69L35 69L35 67L34 67L34 68L32 68L32 67L33 67L33 66L32 66L32 65L36 65L36 67L39 67L39 66L40 66L40 63L41 63L41 67L40 67L40 68L38 68L38 69L40 69L40 68L41 68L41 67L43 67L43 63L42 63L42 62L43 62L43 61L42 61L42 58L45 58L45 60L44 60L44 59L43 59L43 60L44 60L44 61L45 61L45 62L44 62L44 69L46 69L46 67L45 67L45 63L46 63L46 64L47 64L47 63L48 63L48 65L47 65L47 66L48 66L48 65L50 65L50 67L49 67L49 68L48 68L48 67L47 67L47 69L52 69L52 68L53 68L53 69L55 69L55 67L56 67L56 69L58 69L58 68L59 68L59 67L58 67L58 65L57 65L57 64L59 64L59 66L61 66L61 68L62 68L62 69L63 69L63 68L62 68L62 67L64 67L64 69L65 69L65 67L66 67L66 66L69 66L69 63L68 63L68 62L69 62L69 59L68 59L68 58L69 58L69 57L68 57L68 58L67 58L67 61L65 61L65 60L64 60L64 57L67 57L67 56L64 56L64 55L68 55L68 56L69 56L69 55L68 55L68 53L69 53L69 52L68 52L68 50L67 50L67 53L66 53L66 50L63 50L63 49L65 49L65 47L66 47L66 46L67 46L67 48L68 48L68 49L69 49L69 47L68 47L68 46L69 46L69 44L68 44L68 46L67 46L67 44L64 44L64 43L65 43L65 42L64 42L64 41L68 41L68 42L67 42L67 43L68 43L68 42L69 42L69 41L68 41L68 38L69 38L69 35L68 35L68 32L69 32L69 31L68 31L68 30L69 30L69 28L68 28L68 30L65 30L65 29L66 29L66 28L65 28L65 25L66 25L66 26L67 26L67 27L68 27L68 25L67 25L67 24L65 24L65 23L64 23L64 22L65 22L65 21L66 21L66 23L68 23L68 24L69 24L69 23L68 23L68 21L69 21L69 20L68 20L68 18L67 18L67 16L66 16L66 17L64 17L64 16L65 16L65 13L67 13L67 12L68 12L68 14L67 14L67 15L68 15L68 14L69 14L69 11L67 11L67 10L65 10L65 9L69 9L69 8L65 8L65 9L64 9L64 8L63 8L63 9L62 9L62 11L61 11L61 12L62 12L62 14L61 14L61 13L60 13L60 11L59 11L59 12L58 12L58 9L57 9L57 6L58 6L58 8L60 8L60 7L61 7L61 6L60 6L60 7L59 7L59 4L58 4L58 3L59 3L59 2L58 2L58 1L61 1L61 0L57 0L57 1L56 1L56 0L53 0L53 1L52 1L52 0L50 0L50 1L49 1L49 0L48 0L48 1L49 1L49 2L48 2L48 3L49 3L49 2L50 2L50 3L52 3L52 7L51 7L51 4L50 4L50 5L49 5L49 6L48 6L48 7L49 7L49 8L47 8L47 6L46 6L46 7L45 7L45 6L44 6L44 5L46 5L46 4L47 4L47 1L46 1L46 0L45 0L45 1L44 1L44 0L40 0L40 4L38 4L38 3L37 3L37 4L36 4L36 3L35 3L35 1L36 1L36 2L38 2L38 1L39 1L39 0L38 0L38 1L36 1L36 0L35 0L35 1L34 1L34 4L32 4L32 5L31 5L31 6L30 6L30 5L29 5L29 6L28 6L28 8L26 8L26 11L25 11L25 10L24 10L24 9L25 9L25 4L26 4L26 7L27 7L27 5L28 5L28 4L29 4L29 3L30 3L30 2L31 2L31 3L32 3L32 1L33 1L33 0L31 0L31 1L30 1L30 0L23 0L23 1L26 1L26 2L27 2L27 1L28 1L28 2L29 2L29 3L28 3L28 4L26 4L26 3L24 3L24 5L23 5L23 3L22 3L22 4L21 4L21 3L19 3L19 4L18 4L18 7L17 7L17 3L15 3L15 4L14 4L14 5L15 5L15 6L14 6L14 7L15 7L15 9L14 9L14 10L15 10L15 9L16 9L16 13L15 13L15 12L14 12L14 11L13 11L13 12L12 12L12 10L13 10L13 8L12 8L12 7L13 7L13 3L12 3L12 1L13 1L13 2L14 2L14 0ZM15 0L15 2L16 2L16 1L17 1L17 2L19 2L19 1L20 1L20 2L22 2L22 1L21 1L21 0ZM41 1L41 2L42 2L42 1ZM45 1L45 3L44 3L44 2L43 2L43 3L41 3L41 4L40 4L40 5L39 5L39 7L40 7L40 10L38 10L38 9L37 9L37 12L36 12L36 13L33 13L33 14L32 14L32 17L31 17L31 18L32 18L32 20L34 20L34 19L33 19L33 18L35 18L35 16L34 16L34 17L33 17L33 15L34 15L34 14L35 14L35 15L36 15L36 16L38 16L38 17L36 17L36 19L35 19L35 20L37 20L37 19L39 19L39 18L38 18L38 17L39 17L39 16L38 16L38 12L39 12L39 11L41 11L41 14L40 14L40 13L39 13L39 15L42 15L42 13L44 13L44 14L43 14L43 17L44 17L44 14L45 14L45 17L46 17L46 18L45 18L45 19L44 19L44 18L41 18L41 17L42 17L42 16L40 16L40 21L39 21L39 20L38 20L38 21L37 21L37 22L34 22L34 21L33 21L33 22L34 22L34 23L35 23L35 25L32 25L32 24L33 24L33 23L31 23L31 22L32 22L32 21L29 21L29 20L27 20L27 19L28 19L28 18L29 18L29 19L30 19L30 20L31 20L31 19L30 19L30 18L29 18L29 16L28 16L28 15L27 15L27 13L28 13L28 14L29 14L29 15L31 15L31 14L29 14L29 13L28 13L28 12L27 12L27 11L26 11L26 12L24 12L24 11L20 11L20 9L22 9L22 10L23 10L23 9L24 9L24 6L23 6L23 5L21 5L21 7L20 7L20 5L19 5L19 7L20 7L20 9L18 9L18 8L17 8L17 9L18 9L18 11L17 11L17 12L22 12L22 13L21 13L21 14L22 14L22 15L20 15L20 13L19 13L19 16L18 16L18 17L17 17L17 16L15 16L15 15L16 15L16 14L17 14L17 15L18 15L18 14L17 14L17 13L16 13L16 14L15 14L15 15L14 15L14 14L13 14L13 13L14 13L14 12L13 12L13 13L12 13L12 14L13 14L13 15L11 15L11 17L10 17L10 18L9 18L9 19L10 19L10 18L11 18L11 17L12 17L12 16L15 16L15 17L14 17L14 18L15 18L15 19L20 19L20 18L21 18L21 20L22 20L22 22L21 22L21 23L20 23L20 24L19 24L19 22L20 22L20 21L16 21L16 20L15 20L15 22L14 22L14 23L12 23L12 24L13 24L13 25L14 25L14 27L13 27L13 29L12 29L12 30L10 30L10 31L11 31L11 32L12 32L12 33L11 33L11 34L12 34L12 33L14 33L14 34L15 34L15 33L16 33L16 35L13 35L13 36L12 36L12 37L11 37L11 38L9 38L9 37L8 37L8 38L7 38L7 37L6 37L6 38L7 38L7 39L6 39L6 40L5 40L5 39L4 39L4 38L5 38L5 37L4 37L4 38L3 38L3 37L2 37L2 38L3 38L3 39L4 39L4 42L5 42L5 43L4 43L4 46L3 46L3 47L2 47L2 48L1 48L1 49L4 49L4 50L5 50L5 51L6 51L6 52L5 52L5 53L4 53L4 55L5 55L5 56L7 56L7 55L8 55L8 54L10 54L10 55L11 55L11 54L12 54L12 55L13 55L13 56L15 56L15 57L17 57L17 56L18 56L18 55L19 55L19 58L20 58L20 61L21 61L21 62L22 62L22 61L23 61L23 63L22 63L22 65L23 65L23 63L24 63L24 61L26 61L26 62L27 62L27 63L28 63L28 64L26 64L26 63L25 63L25 65L29 65L29 63L30 63L30 64L31 64L31 65L32 65L32 64L31 64L31 63L32 63L32 62L31 62L31 63L30 63L30 62L29 62L29 61L26 61L26 60L27 60L27 59L29 59L29 57L30 57L30 56L33 56L33 53L34 53L34 54L35 54L35 56L34 56L34 57L32 57L32 58L30 58L30 59L33 59L33 60L37 60L37 62L38 62L38 63L37 63L37 65L39 65L39 64L38 64L38 63L40 63L40 62L41 62L41 60L39 60L39 62L38 62L38 57L39 57L39 58L40 58L40 59L41 59L41 58L40 58L40 57L41 57L41 56L42 56L42 57L44 57L44 54L45 54L45 53L46 53L46 54L48 54L48 56L49 56L49 57L46 57L46 58L48 58L48 59L49 59L49 63L50 63L50 64L52 64L52 65L51 65L51 66L53 66L53 64L52 64L52 61L56 61L56 60L58 60L58 61L57 61L57 62L56 62L56 64L55 64L55 62L53 62L53 63L54 63L54 64L55 64L55 65L56 65L56 64L57 64L57 63L59 63L59 64L60 64L60 63L59 63L59 61L60 61L60 60L59 60L59 59L58 59L58 58L61 58L61 57L62 57L62 60L63 60L63 57L64 57L64 56L62 56L62 55L64 55L64 54L65 54L65 51L63 51L63 50L62 50L62 48L63 48L63 47L64 47L64 46L66 46L66 45L64 45L64 44L63 44L63 45L64 45L64 46L62 46L62 43L63 43L63 42L62 42L62 43L61 43L61 42L60 42L60 43L61 43L61 45L60 45L60 44L59 44L59 45L58 45L58 46L62 46L62 48L60 48L60 47L59 47L59 49L58 49L58 50L57 50L57 49L56 49L56 48L58 48L58 47L56 47L56 48L55 48L55 50L53 50L53 51L52 51L52 50L51 50L51 51L49 51L49 53L46 53L46 52L47 52L47 51L46 51L46 50L47 50L47 48L45 48L45 47L44 47L44 46L45 46L45 45L44 45L44 44L46 44L46 47L47 47L47 44L48 44L48 43L49 43L49 44L50 44L50 45L49 45L49 47L50 47L50 48L49 48L49 49L51 49L51 47L52 47L52 49L54 49L54 48L53 48L53 47L54 47L54 45L56 45L56 46L57 46L57 45L56 45L56 44L55 44L55 43L54 43L54 45L53 45L53 44L52 44L52 43L51 43L51 44L50 44L50 41L51 41L51 42L52 42L52 41L53 41L53 40L55 40L55 41L56 41L56 42L57 42L57 44L58 44L58 42L59 42L59 41L60 41L60 40L59 40L59 41L58 41L58 38L59 38L59 37L60 37L60 38L62 38L62 39L61 39L61 41L62 41L62 40L63 40L63 41L64 41L64 40L67 40L67 38L66 38L66 39L64 39L64 38L65 38L65 37L68 37L68 35L67 35L67 34L65 34L65 37L63 37L63 38L62 38L62 37L60 37L60 36L59 36L59 37L58 37L58 38L57 38L57 39L56 39L56 36L58 36L58 34L59 34L59 33L58 33L58 34L57 34L57 33L56 33L56 30L57 30L57 31L58 31L58 30L59 30L59 29L61 29L61 31L63 31L63 32L66 32L66 33L67 33L67 32L68 32L68 31L63 31L63 30L64 30L64 29L65 29L65 28L64 28L64 29L63 29L63 28L62 28L62 27L61 27L61 26L60 26L60 25L63 25L63 26L64 26L64 25L65 25L65 24L64 24L64 23L63 23L63 22L62 22L62 20L63 20L63 19L64 19L64 17L63 17L63 19L62 19L62 15L60 15L60 14L59 14L59 13L58 13L58 12L57 12L57 13L56 13L56 12L54 12L54 11L52 11L52 10L53 10L53 8L55 8L55 7L56 7L56 5L57 5L57 2L56 2L56 1L55 1L55 3L56 3L56 4L55 4L55 7L54 7L54 5L53 5L53 8L52 8L52 10L51 10L51 11L52 11L52 13L51 13L51 12L50 12L50 13L49 13L49 14L50 14L50 15L46 15L46 14L47 14L47 11L46 11L46 10L47 10L47 8L45 8L45 7L44 7L44 6L43 6L43 8L41 8L41 7L42 7L42 5L41 5L41 4L43 4L43 5L44 5L44 4L45 4L45 3L46 3L46 1ZM50 1L50 2L52 2L52 1ZM53 1L53 2L54 2L54 1ZM10 2L10 3L9 3L9 4L10 4L10 5L9 5L9 7L10 7L10 8L11 8L11 10L12 10L12 8L11 8L11 7L12 7L12 6L11 6L11 7L10 7L10 5L12 5L12 4L11 4L11 2ZM43 3L43 4L44 4L44 3ZM60 3L60 5L61 5L61 3ZM33 5L33 8L36 8L36 5ZM37 5L37 7L38 7L38 5ZM15 6L15 7L16 7L16 6ZM22 6L22 8L23 8L23 6ZM29 6L29 7L30 7L30 6ZM31 6L31 7L32 7L32 6ZM34 6L34 7L35 7L35 6ZM40 6L40 7L41 7L41 6ZM49 6L49 7L50 7L50 8L49 8L49 11L50 11L50 9L51 9L51 7L50 7L50 6ZM28 8L28 11L29 11L29 12L31 12L31 13L32 13L32 12L33 12L33 11L36 11L36 9L33 9L33 10L32 10L32 11L30 11L30 9L32 9L32 8L30 8L30 9L29 9L29 8ZM44 8L44 9L45 9L45 10L46 10L46 9L45 9L45 8ZM5 9L5 11L2 11L2 13L1 13L1 14L4 14L4 12L7 12L7 11L6 11L6 10L7 10L7 9ZM41 9L41 10L42 10L42 12L43 12L43 9ZM59 9L59 10L61 10L61 9ZM63 9L63 15L64 15L64 13L65 13L65 12L67 12L67 11L64 11L64 9ZM55 10L55 11L57 11L57 10ZM44 11L44 13L45 13L45 14L46 14L46 13L45 13L45 12L46 12L46 11ZM26 12L26 13L27 13L27 12ZM5 13L5 14L7 14L7 13ZM23 13L23 17L21 17L21 16L19 16L19 17L18 17L18 18L19 18L19 17L21 17L21 18L22 18L22 19L23 19L23 20L24 20L24 21L23 21L23 22L26 22L26 21L27 21L27 23L25 23L25 24L24 24L24 23L23 23L23 24L22 24L22 23L21 23L21 24L20 24L20 27L19 27L19 26L18 26L18 25L19 25L19 24L18 24L18 22L16 22L16 23L17 23L17 24L18 24L18 25L15 25L15 23L14 23L14 25L15 25L15 27L16 27L16 26L17 26L17 29L18 29L18 30L17 30L17 31L16 31L16 29L15 29L15 30L14 30L14 33L15 33L15 32L17 32L17 31L18 31L18 30L19 30L19 32L18 32L18 33L17 33L17 34L18 34L18 35L20 35L20 34L21 34L21 35L22 35L22 36L20 36L20 38L19 38L19 40L18 40L18 38L16 38L16 36L17 36L17 37L19 37L19 36L17 36L17 35L16 35L16 36L15 36L15 38L14 38L14 39L13 39L13 38L12 38L12 39L13 39L13 40L14 40L14 42L13 42L13 41L12 41L12 40L11 40L11 39L10 39L10 40L9 40L9 41L8 41L8 40L6 40L6 41L5 41L5 42L6 42L6 43L5 43L5 47L7 47L7 48L5 48L5 50L6 50L6 51L8 51L8 53L10 53L10 52L11 52L11 53L13 53L13 55L15 55L15 56L17 56L17 55L18 55L18 54L19 54L19 55L20 55L20 54L22 54L22 50L23 50L23 51L24 51L24 50L25 50L25 49L26 49L26 51L25 51L25 52L26 52L26 53L23 53L23 56L22 56L22 55L21 55L21 56L20 56L20 58L21 58L21 61L22 61L22 59L23 59L23 61L24 61L24 59L23 59L23 58L21 58L21 57L24 57L24 58L25 58L25 59L26 59L26 58L25 58L25 56L26 56L26 57L27 57L27 58L28 58L28 56L29 56L29 55L30 55L30 54L31 54L31 53L33 53L33 52L29 52L29 50L28 50L28 51L27 51L27 49L28 49L28 48L29 48L29 49L32 49L32 51L34 51L34 52L35 52L35 54L37 54L37 53L38 53L38 52L39 52L39 53L40 53L40 52L41 52L41 54L40 54L40 55L38 55L38 56L37 56L37 57L36 57L36 58L34 58L34 59L36 59L36 58L37 58L37 57L38 57L38 56L39 56L39 57L40 57L40 55L41 55L41 54L42 54L42 55L43 55L43 54L44 54L44 53L45 53L45 50L46 50L46 49L45 49L45 48L44 48L44 47L43 47L43 46L44 46L44 45L43 45L43 44L41 44L41 43L39 43L39 44L38 44L38 42L43 42L43 39L45 39L45 40L44 40L44 43L45 43L45 42L46 42L46 37L48 37L48 38L49 38L49 40L48 40L48 39L47 39L47 41L49 41L49 40L51 40L51 41L52 41L52 40L53 40L53 39L52 39L52 38L55 38L55 37L52 37L52 36L56 36L56 35L55 35L55 34L56 34L56 33L50 33L50 31L47 31L47 30L48 30L48 29L50 29L50 30L51 30L51 31L53 31L53 32L55 32L55 30L56 30L56 29L57 29L57 30L58 30L58 29L59 29L59 28L58 28L58 27L59 27L59 26L58 26L58 25L60 25L60 24L58 24L58 23L57 23L57 22L58 22L58 21L57 21L57 20L58 20L58 19L60 19L60 18L61 18L61 17L59 17L59 18L58 18L58 17L57 17L57 16L58 16L58 15L59 15L59 14L58 14L58 13L57 13L57 14L58 14L58 15L57 15L57 16L56 16L56 15L53 15L53 16L54 16L54 17L53 17L53 19L54 19L54 20L53 20L53 22L52 22L52 20L50 20L50 18L51 18L51 19L52 19L52 14L55 14L55 13L52 13L52 14L51 14L51 13L50 13L50 14L51 14L51 17L50 17L50 16L47 16L47 17L48 17L48 18L49 18L49 20L48 20L48 19L47 19L47 18L46 18L46 20L44 20L44 23L45 23L45 24L44 24L44 25L43 25L43 24L42 24L42 25L41 25L41 26L43 26L43 28L42 28L42 27L40 27L40 24L41 24L41 23L42 23L42 22L43 22L43 21L41 21L41 22L40 22L40 23L39 23L39 25L38 25L38 24L36 24L36 25L35 25L35 26L33 26L33 27L30 27L30 28L29 28L29 27L28 27L28 25L27 25L27 23L28 23L28 21L27 21L27 20L26 20L26 18L27 18L27 17L28 17L28 16L26 16L26 15L25 15L25 13ZM2 15L2 17L3 17L3 18L4 18L4 19L5 19L5 17L6 17L6 16L7 16L7 15L6 15L6 16L5 16L5 15L4 15L4 17L3 17L3 15ZM24 16L24 17L23 17L23 18L24 18L24 19L25 19L25 18L26 18L26 17L25 17L25 16ZM55 16L55 18L54 18L54 19L56 19L56 20L55 20L55 23L53 23L53 24L52 24L52 23L51 23L51 22L50 22L50 20L49 20L49 22L50 22L50 23L49 23L49 24L50 24L50 23L51 23L51 24L52 24L52 26L50 26L50 25L49 25L49 26L47 26L47 25L48 25L48 22L47 22L47 21L46 21L46 22L47 22L47 25L46 25L46 26L47 26L47 27L50 27L50 28L52 28L52 29L54 29L54 28L55 28L55 29L56 29L56 27L58 27L58 26L57 26L57 25L58 25L58 24L57 24L57 25L55 25L55 26L53 26L53 25L54 25L54 24L55 24L55 23L56 23L56 20L57 20L57 19L58 19L58 18L57 18L57 17L56 17L56 16ZM68 16L68 17L69 17L69 16ZM16 17L16 18L17 18L17 17ZM24 17L24 18L25 18L25 17ZM49 17L49 18L50 18L50 17ZM56 18L56 19L57 19L57 18ZM66 18L66 19L65 19L65 20L64 20L64 21L65 21L65 20L67 20L67 21L68 21L68 20L67 20L67 18ZM1 19L1 22L2 22L2 20L3 20L3 22L4 22L4 23L6 23L6 22L5 22L5 21L4 21L4 20L3 20L3 19ZM42 19L42 20L43 20L43 19ZM61 19L61 20L60 20L60 21L59 21L59 23L60 23L60 22L61 22L61 24L63 24L63 25L64 25L64 24L63 24L63 23L62 23L62 22L61 22L61 20L62 20L62 19ZM25 20L25 21L26 21L26 20ZM10 22L10 25L11 25L11 26L12 26L12 25L11 25L11 22ZM29 22L29 23L30 23L30 22ZM1 23L1 25L2 25L2 26L3 26L3 25L4 25L4 27L5 27L5 28L7 28L7 27L5 27L5 26L7 26L7 25L5 25L5 24L3 24L3 23ZM2 24L2 25L3 25L3 24ZM25 24L25 26L24 26L24 25L21 25L21 26L22 26L22 28L21 28L21 29L23 29L23 27L24 27L24 29L26 29L26 28L28 28L28 27L26 27L26 24ZM30 24L30 25L29 25L29 26L32 26L32 25L31 25L31 24ZM37 25L37 26L36 26L36 27L35 27L35 28L34 28L34 27L33 27L33 28L32 28L32 29L27 29L27 32L26 32L26 31L25 31L25 30L23 30L23 31L22 31L22 33L23 33L23 32L24 32L24 33L30 33L30 34L31 34L31 36L32 36L32 32L36 32L36 31L37 31L37 30L34 30L34 31L33 31L33 28L34 28L34 29L36 29L36 28L37 28L37 29L38 29L38 28L37 28L37 27L38 27L38 25ZM55 26L55 27L56 27L56 26ZM11 27L11 28L10 28L10 29L11 29L11 28L12 28L12 27ZM25 27L25 28L26 28L26 27ZM39 27L39 29L40 29L40 30L42 30L42 28L40 28L40 27ZM44 27L44 28L43 28L43 30L44 30L44 31L40 31L40 33L44 33L44 34L43 34L43 35L41 35L41 34L38 34L38 33L39 33L39 32L37 32L37 34L38 34L38 35L37 35L37 37L36 37L36 39L35 39L35 40L34 40L34 41L36 41L36 40L37 40L37 37L38 37L38 36L40 36L40 38L38 38L38 39L40 39L40 41L41 41L41 39L42 39L42 37L43 37L43 38L45 38L45 37L46 37L46 34L47 34L47 33L46 33L46 32L45 32L45 33L44 33L44 31L45 31L45 29L44 29L44 28L46 28L46 30L47 30L47 28L46 28L46 27ZM53 27L53 28L54 28L54 27ZM19 28L19 30L20 30L20 28ZM57 28L57 29L58 29L58 28ZM61 28L61 29L62 29L62 30L63 30L63 29L62 29L62 28ZM29 30L29 31L30 31L30 33L31 33L31 32L32 32L32 31L30 31L30 30ZM12 31L12 32L13 32L13 31ZM24 31L24 32L25 32L25 31ZM19 32L19 33L20 33L20 32ZM5 33L5 36L8 36L8 33ZM9 33L9 34L10 34L10 33ZM33 33L33 36L36 36L36 33ZM45 33L45 34L44 34L44 37L45 37L45 34L46 34L46 33ZM48 33L48 34L49 34L49 35L50 35L50 36L52 36L52 35L54 35L54 34L52 34L52 35L50 35L50 33ZM61 33L61 36L64 36L64 33ZM6 34L6 35L7 35L7 34ZM22 34L22 35L23 35L23 34ZM26 34L26 35L27 35L27 37L26 37L26 36L25 36L25 35L24 35L24 37L23 37L23 36L22 36L22 37L21 37L21 38L20 38L20 39L21 39L21 41L22 41L22 42L23 42L23 41L24 41L24 42L25 42L25 41L26 41L26 42L27 42L27 43L28 43L28 42L29 42L29 44L30 44L30 43L31 43L31 44L32 44L32 45L33 45L33 46L34 46L34 49L33 49L33 47L32 47L32 46L31 46L31 45L30 45L30 47L29 47L29 45L28 45L28 44L27 44L27 45L28 45L28 47L29 47L29 48L32 48L32 49L33 49L33 50L35 50L35 49L36 49L36 51L35 51L35 52L37 52L37 51L38 51L38 49L37 49L37 48L36 48L36 47L38 47L38 48L39 48L39 47L41 47L41 48L40 48L40 51L39 51L39 52L40 52L40 51L41 51L41 52L43 52L43 53L44 53L44 51L43 51L43 50L42 50L42 51L41 51L41 49L42 49L42 45L41 45L41 46L40 46L40 45L39 45L39 46L38 46L38 44L37 44L37 43L36 43L36 42L35 42L35 43L36 43L36 44L34 44L34 45L33 45L33 44L32 44L32 43L33 43L33 41L32 41L32 42L30 42L30 41L31 41L31 40L32 40L32 39L34 39L34 38L35 38L35 37L32 37L32 38L31 38L31 40L30 40L30 41L29 41L29 39L30 39L30 37L29 37L29 34L28 34L28 35L27 35L27 34ZM34 34L34 35L35 35L35 34ZM62 34L62 35L63 35L63 34ZM9 35L9 36L11 36L11 35ZM41 36L41 37L42 37L42 36ZM22 37L22 38L21 38L21 39L22 39L22 40L23 40L23 37ZM24 37L24 39L26 39L26 41L27 41L27 42L28 42L28 40L27 40L27 39L26 39L26 38L25 38L25 37ZM27 37L27 38L28 38L28 39L29 39L29 38L28 38L28 37ZM51 37L51 38L52 38L52 37ZM15 38L15 39L14 39L14 40L15 40L15 39L16 39L16 38ZM40 38L40 39L41 39L41 38ZM63 39L63 40L64 40L64 39ZM16 40L16 41L15 41L15 43L16 43L16 42L17 42L17 43L18 43L18 44L19 44L19 42L20 42L20 41L18 41L18 40ZM24 40L24 41L25 41L25 40ZM56 40L56 41L57 41L57 42L58 42L58 41L57 41L57 40ZM6 41L6 42L7 42L7 43L6 43L6 44L9 44L9 42L8 42L8 41ZM11 41L11 42L10 42L10 45L9 45L9 46L12 46L12 47L11 47L11 48L7 48L7 49L6 49L6 50L7 50L7 49L9 49L9 50L8 50L8 51L10 51L10 50L12 50L12 52L13 52L13 48L15 48L15 47L16 47L16 50L18 50L18 51L16 51L16 52L19 52L19 51L20 51L20 50L21 50L21 49L19 49L19 48L20 48L20 47L21 47L21 48L22 48L22 49L23 49L23 50L24 50L24 49L25 49L25 47L26 47L26 48L27 48L27 46L26 46L26 43L25 43L25 46L23 46L23 47L22 47L22 45L24 45L24 43L23 43L23 44L22 44L22 43L20 43L20 44L22 44L22 45L21 45L21 46L20 46L20 45L13 45L13 44L14 44L14 43L13 43L13 44L12 44L12 41ZM17 41L17 42L18 42L18 41ZM37 41L37 42L38 42L38 41ZM46 43L46 44L47 44L47 43ZM51 44L51 45L50 45L50 47L51 47L51 45L52 45L52 47L53 47L53 45L52 45L52 44ZM6 45L6 46L7 46L7 47L8 47L8 46L7 46L7 45ZM34 45L34 46L35 46L35 47L36 47L36 45ZM14 46L14 47L15 47L15 46ZM16 46L16 47L17 47L17 49L18 49L18 50L19 50L19 49L18 49L18 48L19 48L19 46L18 46L18 47L17 47L17 46ZM12 47L12 48L11 48L11 49L12 49L12 48L13 48L13 47ZM23 47L23 49L24 49L24 47ZM43 48L43 49L44 49L44 50L45 50L45 49L44 49L44 48ZM60 49L60 51L56 51L56 50L55 50L55 52L54 52L54 51L53 51L53 54L54 54L54 56L53 56L53 55L52 55L52 56L50 56L50 55L51 55L51 54L52 54L52 52L51 52L51 53L50 53L50 55L49 55L49 56L50 56L50 58L49 58L49 59L50 59L50 62L51 62L51 59L52 59L52 58L53 58L53 57L54 57L54 59L53 59L53 60L54 60L54 59L57 59L57 58L58 58L58 57L59 57L59 56L58 56L58 55L57 55L57 56L56 56L56 57L57 57L57 58L55 58L55 57L54 57L54 56L55 56L55 55L56 55L56 54L57 54L57 53L59 53L59 52L60 52L60 55L62 55L62 52L63 52L63 51L62 51L62 50L61 50L61 49ZM14 50L14 52L15 52L15 50ZM30 50L30 51L31 51L31 50ZM26 51L26 52L27 52L27 53L26 53L26 55L27 55L27 53L28 53L28 55L29 55L29 54L30 54L30 53L28 53L28 52L27 52L27 51ZM6 52L6 53L5 53L5 55L7 55L7 54L6 54L6 53L7 53L7 52ZM55 52L55 53L56 53L56 52ZM14 53L14 54L15 54L15 55L16 55L16 54L18 54L18 53L16 53L16 54L15 54L15 53ZM19 53L19 54L20 54L20 53ZM63 53L63 54L64 54L64 53ZM1 54L1 55L2 55L2 54ZM24 54L24 56L25 56L25 54ZM10 56L10 57L11 57L11 59L13 59L13 58L14 58L14 57L12 57L12 56ZM52 56L52 57L51 57L51 58L50 58L50 59L51 59L51 58L52 58L52 57L53 57L53 56ZM57 56L57 57L58 57L58 56ZM16 58L16 59L15 59L15 60L16 60L16 62L17 62L17 60L18 60L18 59L17 59L17 58ZM46 59L46 60L45 60L45 61L46 61L46 63L47 63L47 59ZM3 60L3 61L5 61L5 60ZM31 60L31 61L32 61L32 60ZM33 61L33 64L36 64L36 61ZM61 61L61 64L64 64L64 61ZM67 61L67 62L66 62L66 63L65 63L65 66L66 66L66 65L68 65L68 63L67 63L67 62L68 62L68 61ZM28 62L28 63L29 63L29 62ZM34 62L34 63L35 63L35 62ZM62 62L62 63L63 63L63 62ZM12 64L12 65L13 65L13 64ZM25 66L25 67L27 67L27 66ZM56 66L56 67L57 67L57 66ZM36 68L36 69L37 69L37 68ZM66 68L66 69L67 69L67 68ZM68 68L68 69L69 69L69 68ZM0 0L0 7L7 7L7 0ZM1 1L1 6L6 6L6 1ZM2 2L2 5L5 5L5 2ZM62 0L62 7L69 7L69 0ZM63 1L63 6L68 6L68 1ZM64 2L64 5L67 5L67 2ZM0 62L0 69L7 69L7 62ZM1 63L1 68L6 68L6 63ZM2 64L2 67L5 67L5 64Z" fill="#000000"/></g></g></svg>
