<?xml version="1.0" encoding="UTF-8"?>
<svg xmlns="http://www.w3.org/2000/svg" version="1.1" width="300" height="300" viewBox="0 0 300 300"><rect x="0" y="0" width="300" height="300" fill="#ffffff"/><g transform="scale(4.348)"><g transform="translate(0,0)"><path fill-rule="evenodd" d="M8 0L8 2L9 2L9 3L10 3L10 4L8 4L8 9L7 9L7 8L5 8L5 9L3 9L3 8L0 8L0 9L1 9L1 10L0 10L0 13L1 13L1 12L3 12L3 13L2 13L2 14L0 14L0 15L2 15L2 14L4 14L4 15L3 15L3 18L4 18L4 19L3 19L3 20L1 20L1 21L5 21L5 22L4 22L4 23L2 23L2 22L0 22L0 24L6 24L6 25L0 25L0 26L1 26L1 28L0 28L0 31L1 31L1 28L2 28L2 29L4 29L4 30L6 30L6 31L7 31L7 32L4 32L4 31L3 31L3 30L2 30L2 32L1 32L1 33L0 33L0 36L1 36L1 34L3 34L3 35L4 35L4 36L2 36L2 38L1 38L1 39L0 39L0 40L1 40L1 39L2 39L2 38L3 38L3 40L4 40L4 42L3 42L3 45L0 45L0 48L1 48L1 49L0 49L0 52L1 52L1 53L0 53L0 55L1 55L1 56L0 56L0 61L1 61L1 58L2 58L2 59L3 59L3 58L2 58L2 57L1 57L1 56L2 56L2 54L3 54L3 56L4 56L4 54L5 54L5 55L7 55L7 54L6 54L6 53L8 53L8 54L9 54L9 55L8 55L8 57L9 57L9 58L8 58L8 60L6 60L6 61L8 61L8 62L9 62L9 63L8 63L8 64L9 64L9 65L10 65L10 66L11 66L11 65L12 65L12 64L11 64L11 65L10 65L10 64L9 64L9 63L12 63L12 62L13 62L13 60L16 60L16 61L14 61L14 62L15 62L15 63L14 63L14 64L15 64L15 63L17 63L17 64L16 64L16 65L13 65L13 66L12 66L12 67L10 67L10 69L12 69L12 68L13 68L13 69L17 69L17 68L13 68L13 67L14 67L14 66L15 66L15 67L16 67L16 65L17 65L17 66L18 66L18 69L19 69L19 66L18 66L18 65L19 65L19 64L18 64L18 63L19 63L19 62L20 62L20 61L21 61L21 64L20 64L20 65L21 65L21 64L22 64L22 66L20 66L20 67L21 67L21 69L23 69L23 68L24 68L24 69L25 69L25 67L26 67L26 69L27 69L27 68L28 68L28 65L29 65L29 66L31 66L31 68L30 68L30 67L29 67L29 69L31 69L31 68L32 68L32 69L35 69L35 67L34 67L34 68L33 68L33 67L32 67L32 65L35 65L35 66L36 66L36 65L37 65L37 62L38 62L38 63L39 63L39 62L40 62L40 63L41 63L41 62L42 62L42 65L41 65L41 64L40 64L40 65L39 65L39 67L40 67L40 69L43 69L43 67L44 67L44 65L45 65L45 66L46 66L46 65L47 65L47 67L45 67L45 68L44 68L44 69L46 69L46 68L48 68L48 69L50 69L50 68L52 68L52 69L53 69L53 68L52 68L52 67L53 67L53 66L50 66L50 65L51 65L51 64L52 64L52 65L53 65L53 64L52 64L52 61L53 61L53 60L54 60L54 61L55 61L55 60L56 60L56 61L57 61L57 60L56 60L56 59L57 59L57 58L58 58L58 59L59 59L59 58L58 58L58 56L59 56L59 57L60 57L60 54L61 54L61 53L60 53L60 52L61 52L61 51L60 51L60 52L58 52L58 51L59 51L59 50L58 50L58 49L60 49L60 50L61 50L61 49L60 49L60 48L62 48L62 49L63 49L63 48L64 48L64 47L65 47L65 49L66 49L66 47L67 47L67 48L68 48L68 47L69 47L69 45L67 45L67 44L68 44L68 43L69 43L69 40L68 40L68 39L69 39L69 38L68 38L68 39L67 39L67 40L66 40L66 38L67 38L67 37L66 37L66 38L64 38L64 40L66 40L66 41L65 41L65 42L64 42L64 43L65 43L65 44L64 44L64 45L63 45L63 46L62 46L62 44L63 44L63 42L62 42L62 43L60 43L60 42L59 42L59 43L60 43L60 44L58 44L58 41L61 41L61 39L60 39L60 40L59 40L59 38L60 38L60 37L61 37L61 38L62 38L62 40L63 40L63 38L62 38L62 37L65 37L65 36L66 36L66 35L65 35L65 34L66 34L66 33L65 33L65 32L66 32L66 30L67 30L67 29L69 29L69 26L68 26L68 25L67 25L67 24L66 24L66 23L67 23L67 22L66 22L66 21L67 21L67 20L68 20L68 24L69 24L69 20L68 20L68 19L69 19L69 17L67 17L67 16L66 16L66 15L67 15L67 14L68 14L68 16L69 16L69 14L68 14L68 13L69 13L69 10L68 10L68 9L69 9L69 8L67 8L67 9L66 9L66 10L64 10L64 9L65 9L65 8L61 8L61 6L60 6L60 7L59 7L59 4L58 4L58 3L59 3L59 2L56 2L56 1L61 1L61 0L50 0L50 1L53 1L53 2L50 2L50 3L49 3L49 4L47 4L47 3L46 3L46 2L47 2L47 0L46 0L46 1L45 1L45 3L46 3L46 5L44 5L44 3L43 3L43 4L42 4L42 2L41 2L41 0L38 0L38 1L37 1L37 0L35 0L35 2L34 2L34 0L32 0L32 9L33 9L33 10L31 10L31 4L30 4L30 3L29 3L29 2L28 2L28 3L29 3L29 4L28 4L28 5L26 5L26 3L27 3L27 2L26 2L26 0L24 0L24 2L23 2L23 1L22 1L22 0L18 0L18 1L17 1L17 0L16 0L16 1L14 1L14 3L12 3L12 2L13 2L13 1L10 1L10 0ZM27 0L27 1L30 1L30 0ZM42 0L42 1L44 1L44 0ZM9 1L9 2L10 2L10 1ZM16 1L16 2L15 2L15 4L14 4L14 5L13 5L13 7L14 7L14 5L15 5L15 4L16 4L16 6L15 6L15 9L14 9L14 8L12 8L12 6L11 6L11 8L12 8L12 10L11 10L11 9L9 9L9 10L8 10L8 11L5 11L5 10L3 10L3 9L2 9L2 10L1 10L1 11L2 11L2 10L3 10L3 11L4 11L4 12L7 12L7 13L5 13L5 14L8 14L8 12L9 12L9 13L11 13L11 15L10 15L10 17L9 17L9 15L8 15L8 17L9 17L9 20L8 20L8 23L6 23L6 24L8 24L8 23L9 23L9 25L8 25L8 26L7 26L7 25L6 25L6 26L7 26L7 27L6 27L6 28L4 28L4 27L5 27L5 26L3 26L3 27L2 27L2 28L4 28L4 29L6 29L6 30L7 30L7 31L8 31L8 29L10 29L10 30L9 30L9 32L11 32L11 33L13 33L13 36L12 36L12 39L13 39L13 40L12 40L12 41L8 41L8 42L7 42L7 41L5 41L5 42L4 42L4 45L3 45L3 46L1 46L1 48L2 48L2 49L1 49L1 52L2 52L2 53L3 53L3 54L4 54L4 50L3 50L3 52L2 52L2 49L3 49L3 48L5 48L5 50L7 50L7 51L5 51L5 53L6 53L6 52L8 52L8 53L9 53L9 54L11 54L11 55L10 55L10 56L9 56L9 57L10 57L10 58L11 58L11 59L9 59L9 60L8 60L8 61L9 61L9 60L10 60L10 62L12 62L12 61L11 61L11 60L13 60L13 59L15 59L15 58L14 58L14 57L15 57L15 56L13 56L13 55L12 55L12 54L11 54L11 51L12 51L12 50L13 50L13 49L16 49L16 52L17 52L17 53L16 53L16 56L17 56L17 57L18 57L18 60L22 60L22 59L20 59L20 58L23 58L23 61L24 61L24 62L22 62L22 64L23 64L23 65L24 65L24 66L27 66L27 65L28 65L28 64L29 64L29 65L30 65L30 60L32 60L32 59L33 59L33 58L34 58L34 60L35 60L35 59L36 59L36 60L37 60L37 59L36 59L36 58L37 58L37 55L38 55L38 56L39 56L39 57L38 57L38 60L39 60L39 61L38 61L38 62L39 62L39 61L40 61L40 60L41 60L41 61L42 61L42 62L43 62L43 65L42 65L42 67L43 67L43 65L44 65L44 63L45 63L45 64L46 64L46 63L45 63L45 61L44 61L44 60L46 60L46 62L47 62L47 63L48 63L48 64L47 64L47 65L48 65L48 64L49 64L49 61L48 61L48 60L46 60L46 59L44 59L44 60L43 60L43 61L42 61L42 59L43 59L43 58L45 58L45 57L46 57L46 58L47 58L47 57L48 57L48 58L49 58L49 59L50 59L50 60L51 60L51 61L50 61L50 62L51 62L51 61L52 61L52 60L51 60L51 57L52 57L52 55L53 55L53 56L54 56L54 55L55 55L55 54L56 54L56 56L55 56L55 57L54 57L54 58L53 58L53 59L54 59L54 60L55 60L55 59L54 59L54 58L55 58L55 57L56 57L56 56L58 56L58 54L59 54L59 53L58 53L58 54L57 54L57 53L56 53L56 52L57 52L57 51L58 51L58 50L56 50L56 48L57 48L57 46L56 46L56 44L57 44L57 43L56 43L56 44L55 44L55 41L56 41L56 40L57 40L57 39L58 39L58 38L59 38L59 37L58 37L58 38L57 38L57 37L56 37L56 36L57 36L57 34L56 34L56 32L57 32L57 33L58 33L58 36L60 36L60 35L59 35L59 33L60 33L60 31L61 31L61 23L60 23L60 22L61 22L61 20L62 20L62 19L64 19L64 20L63 20L63 21L62 21L62 22L64 22L64 20L65 20L65 21L66 21L66 20L67 20L67 19L68 19L68 18L67 18L67 17L66 17L66 18L65 18L65 19L64 19L64 16L65 16L65 15L66 15L66 13L68 13L68 10L66 10L66 13L65 13L65 14L64 14L64 10L63 10L63 9L62 9L62 10L61 10L61 8L58 8L58 10L59 10L59 9L60 9L60 10L61 10L61 12L60 12L60 11L59 11L59 13L58 13L58 14L59 14L59 15L57 15L57 13L56 13L56 16L55 16L55 15L54 15L54 14L55 14L55 11L57 11L57 12L58 12L58 11L57 11L57 9L56 9L56 10L55 10L55 9L54 9L54 11L52 11L52 10L51 10L51 9L52 9L52 8L55 8L55 7L56 7L56 5L54 5L54 4L55 4L55 3L56 3L56 4L57 4L57 3L56 3L56 2L55 2L55 3L54 3L54 4L53 4L53 3L52 3L52 5L51 5L51 7L52 7L52 8L51 8L51 9L50 9L50 11L51 11L51 13L50 13L50 12L49 12L49 9L48 9L48 8L50 8L50 6L49 6L49 7L48 7L48 5L46 5L46 6L45 6L45 7L44 7L44 6L43 6L43 5L42 5L42 4L41 4L41 3L40 3L40 1L39 1L39 3L38 3L38 2L37 2L37 1L36 1L36 2L35 2L35 4L37 4L37 7L38 7L38 6L39 6L39 8L38 8L38 10L39 10L39 11L36 11L36 10L37 10L37 9L35 9L35 11L34 11L34 12L33 12L33 11L32 11L32 12L31 12L31 13L30 13L30 11L29 11L29 12L28 12L28 11L27 11L27 9L28 9L28 10L30 10L30 8L28 8L28 6L29 6L29 7L30 7L30 6L29 6L29 5L28 5L28 6L27 6L27 7L26 7L26 5L24 5L24 6L23 6L23 3L22 3L22 1L20 1L20 2L21 2L21 7L20 7L20 3L19 3L19 1L18 1L18 4L17 4L17 3L16 3L16 2L17 2L17 1ZM33 2L33 4L34 4L34 2ZM11 3L11 5L12 5L12 3ZM39 3L39 4L38 4L38 5L40 5L40 9L39 9L39 10L40 10L40 9L41 9L41 8L42 8L42 9L43 9L43 10L44 10L44 9L45 9L45 10L46 10L46 11L44 11L44 13L45 13L45 14L46 14L46 15L47 15L47 14L48 14L48 13L49 13L49 14L50 14L50 13L49 13L49 12L48 12L48 9L47 9L47 8L48 8L48 7L47 7L47 6L46 6L46 7L47 7L47 8L44 8L44 9L43 9L43 6L42 6L42 7L41 7L41 5L40 5L40 3ZM50 3L50 4L51 4L51 3ZM60 3L60 5L61 5L61 3ZM18 4L18 5L19 5L19 4ZM9 5L9 8L10 8L10 5ZM33 5L33 8L36 8L36 5ZM52 5L52 7L53 7L53 5ZM57 5L57 7L58 7L58 5ZM16 6L16 7L17 7L17 8L16 8L16 9L17 9L17 10L16 10L16 11L15 11L15 10L13 10L13 13L14 13L14 14L15 14L15 13L16 13L16 15L17 15L17 13L16 13L16 12L17 12L17 11L18 11L18 13L19 13L19 15L18 15L18 16L19 16L19 19L18 19L18 18L17 18L17 16L16 16L16 18L17 18L17 19L18 19L18 20L16 20L16 19L13 19L13 18L14 18L14 17L13 17L13 14L12 14L12 17L13 17L13 18L12 18L12 21L13 21L13 20L15 20L15 23L14 23L14 22L12 22L12 23L10 23L10 24L12 24L12 25L10 25L10 26L9 26L9 28L11 28L11 27L10 27L10 26L12 26L12 27L14 27L14 26L15 26L15 28L12 28L12 29L11 29L11 30L12 30L12 32L13 32L13 31L14 31L14 32L15 32L15 34L14 34L14 35L15 35L15 36L13 36L13 37L14 37L14 40L13 40L13 41L14 41L14 40L15 40L15 38L16 38L16 41L17 41L17 42L16 42L16 43L18 43L18 45L17 45L17 44L16 44L16 45L15 45L15 42L13 42L13 43L14 43L14 45L11 45L11 44L12 44L12 43L10 43L10 42L9 42L9 43L10 43L10 45L9 45L9 44L8 44L8 43L7 43L7 42L5 42L5 43L7 43L7 44L6 44L6 45L7 45L7 46L3 46L3 47L5 47L5 48L6 48L6 49L7 49L7 48L9 48L9 49L10 49L10 48L12 48L12 46L13 46L13 47L14 47L14 45L15 45L15 47L16 47L16 49L17 49L17 47L16 47L16 45L17 45L17 46L18 46L18 45L19 45L19 46L20 46L20 47L18 47L18 48L19 48L19 50L17 50L17 51L18 51L18 53L17 53L17 55L18 55L18 57L19 57L19 58L20 58L20 57L21 57L21 56L20 56L20 55L21 55L21 54L22 54L22 53L23 53L23 54L24 54L24 55L22 55L22 56L24 56L24 57L25 57L25 56L24 56L24 55L26 55L26 54L28 54L28 55L29 55L29 56L30 56L30 58L28 58L28 56L26 56L26 57L27 57L27 58L28 58L28 59L27 59L27 60L26 60L26 59L25 59L25 58L24 58L24 59L25 59L25 60L26 60L26 61L27 61L27 62L28 62L28 63L26 63L26 64L28 64L28 63L29 63L29 62L28 62L28 61L29 61L29 60L28 60L28 59L30 59L30 58L31 58L31 59L32 59L32 58L33 58L33 57L32 57L32 56L33 56L33 54L34 54L34 58L36 58L36 57L35 57L35 56L36 56L36 55L37 55L37 54L38 54L38 55L40 55L40 58L39 58L39 59L40 59L40 58L41 58L41 57L43 57L43 56L41 56L41 55L43 55L43 54L42 54L42 53L43 53L43 50L42 50L42 49L43 49L43 48L44 48L44 50L45 50L45 51L44 51L44 53L45 53L45 54L44 54L44 55L48 55L48 57L49 57L49 56L50 56L50 57L51 57L51 55L52 55L52 54L53 54L53 51L54 51L54 49L55 49L55 48L56 48L56 46L54 46L54 45L55 45L55 44L54 44L54 41L55 41L55 40L56 40L56 37L55 37L55 38L54 38L54 36L53 36L53 34L54 34L54 35L56 35L56 34L54 34L54 32L53 32L53 31L54 31L54 29L55 29L55 26L56 26L56 27L57 27L57 28L56 28L56 29L57 29L57 30L56 30L56 31L57 31L57 30L58 30L58 33L59 33L59 31L60 31L60 27L58 27L58 23L57 23L57 24L56 24L56 25L55 25L55 24L54 24L54 23L53 23L53 24L52 24L52 22L53 22L53 21L54 21L54 20L55 20L55 19L57 19L57 18L58 18L58 20L56 20L56 21L55 21L55 22L56 22L56 21L57 21L57 22L58 22L58 20L59 20L59 22L60 22L60 17L61 17L61 19L62 19L62 17L63 17L63 15L64 15L64 14L62 14L62 12L63 12L63 11L62 11L62 12L61 12L61 15L60 15L60 16L58 16L58 17L57 17L57 16L56 16L56 17L55 17L55 16L53 16L53 14L54 14L54 12L52 12L52 13L53 13L53 14L51 14L51 15L49 15L49 16L48 16L48 18L47 18L47 20L46 20L46 19L45 19L45 20L44 20L44 21L43 21L43 19L44 19L44 18L42 18L42 17L43 17L43 15L44 15L44 17L45 17L45 18L46 18L46 17L45 17L45 15L44 15L44 14L42 14L42 12L43 12L43 11L42 11L42 12L40 12L40 14L42 14L42 16L41 16L41 15L40 15L40 17L39 17L39 18L40 18L40 22L39 22L39 23L41 23L41 20L42 20L42 21L43 21L43 22L44 22L44 21L45 21L45 23L44 23L44 26L42 26L42 25L43 25L43 24L40 24L40 25L39 25L39 27L40 27L40 25L41 25L41 26L42 26L42 27L44 27L44 34L43 34L43 35L44 35L44 37L45 37L45 39L46 39L46 41L45 41L45 40L44 40L44 39L43 39L43 40L42 40L42 37L43 37L43 36L42 36L42 37L41 37L41 36L40 36L40 37L41 37L41 39L40 39L40 38L38 38L38 37L39 37L39 35L38 35L38 33L39 33L39 34L40 34L40 33L41 33L41 35L42 35L42 28L40 28L40 30L38 30L38 29L39 29L39 28L38 28L38 27L37 27L37 26L38 26L38 24L37 24L37 23L38 23L38 20L39 20L39 19L38 19L38 15L39 15L39 14L38 14L38 12L37 12L37 13L36 13L36 15L37 15L37 16L36 16L36 20L35 20L35 22L34 22L34 21L33 21L33 20L32 20L32 19L33 19L33 18L34 18L34 17L35 17L35 16L34 16L34 15L33 15L33 12L32 12L32 15L30 15L30 14L28 14L28 12L26 12L26 10L25 10L25 8L26 8L26 9L27 9L27 8L26 8L26 7L25 7L25 6L24 6L24 7L25 7L25 8L22 8L22 7L23 7L23 6L22 6L22 7L21 7L21 10L20 10L20 8L18 8L18 7L19 7L19 6L18 6L18 7L17 7L17 6ZM34 6L34 7L35 7L35 6ZM54 6L54 7L55 7L55 6ZM17 8L17 9L18 9L18 11L19 11L19 12L20 12L20 10L19 10L19 9L18 9L18 8ZM6 9L6 10L7 10L7 9ZM22 9L22 10L23 10L23 9ZM46 9L46 10L47 10L47 9ZM9 10L9 11L10 11L10 12L11 12L11 11L10 11L10 10ZM24 10L24 11L25 11L25 10ZM21 11L21 12L22 12L22 11ZM46 11L46 12L47 12L47 13L46 13L46 14L47 14L47 13L48 13L48 12L47 12L47 11ZM34 12L34 13L35 13L35 12ZM20 13L20 15L21 15L21 18L20 18L20 19L21 19L21 18L23 18L23 17L24 17L24 19L26 19L26 20L25 20L25 21L24 21L24 20L23 20L23 21L22 21L22 20L21 20L21 21L20 21L20 20L19 20L19 21L20 21L20 22L21 22L21 23L20 23L20 24L19 24L19 22L18 22L18 23L17 23L17 22L16 22L16 23L15 23L15 24L13 24L13 23L12 23L12 24L13 24L13 25L12 25L12 26L13 26L13 25L15 25L15 24L17 24L17 26L16 26L16 27L17 27L17 29L16 29L16 28L15 28L15 29L16 29L16 30L14 30L14 31L16 31L16 32L17 32L17 30L18 30L18 27L19 27L19 25L20 25L20 26L23 26L23 27L22 27L22 28L21 28L21 27L20 27L20 28L21 28L21 29L20 29L20 31L18 31L18 32L19 32L19 33L18 33L18 34L17 34L17 33L16 33L16 36L15 36L15 37L16 37L16 38L18 38L18 36L19 36L19 37L20 37L20 38L19 38L19 39L18 39L18 40L17 40L17 41L18 41L18 40L19 40L19 39L21 39L21 38L23 38L23 37L24 37L24 39L22 39L22 40L24 40L24 39L25 39L25 37L26 37L26 38L27 38L27 37L28 37L28 38L30 38L30 40L28 40L28 39L26 39L26 40L25 40L25 42L24 42L24 43L25 43L25 42L26 42L26 44L25 44L25 45L24 45L24 44L23 44L23 45L24 45L24 46L23 46L23 49L22 49L22 43L23 43L23 41L22 41L22 43L21 43L21 40L20 40L20 42L18 42L18 43L20 43L20 44L19 44L19 45L20 45L20 46L21 46L21 50L20 50L20 51L22 51L22 50L23 50L23 53L24 53L24 54L26 54L26 51L25 51L25 53L24 53L24 50L27 50L27 52L28 52L28 54L30 54L30 56L32 56L32 55L31 55L31 54L32 54L32 53L34 53L34 54L35 54L35 55L36 55L36 54L37 54L37 53L38 53L38 54L39 54L39 53L40 53L40 52L41 52L41 50L40 50L40 51L39 51L39 49L40 49L40 48L41 48L41 47L42 47L42 46L43 46L43 47L44 47L44 48L45 48L45 47L44 47L44 46L43 46L43 45L44 45L44 44L45 44L45 45L46 45L46 46L48 46L48 47L49 47L49 48L50 48L50 50L49 50L49 51L48 51L48 48L47 48L47 47L46 47L46 48L47 48L47 49L46 49L46 50L47 50L47 53L46 53L46 54L49 54L49 55L50 55L50 54L52 54L52 50L53 50L53 49L54 49L54 47L53 47L53 49L52 49L52 50L51 50L51 47L52 47L52 46L53 46L53 45L52 45L52 44L53 44L53 43L52 43L52 42L53 42L53 41L50 41L50 42L51 42L51 43L49 43L49 41L48 41L48 39L49 39L49 40L50 40L50 39L51 39L51 38L52 38L52 39L53 39L53 40L54 40L54 38L52 38L52 35L47 35L47 33L48 33L48 32L50 32L50 31L48 31L48 30L49 30L49 29L48 29L48 27L46 27L46 28L45 28L45 29L46 29L46 30L45 30L45 31L46 31L46 32L45 32L45 33L46 33L46 35L45 35L45 34L44 34L44 35L45 35L45 36L46 36L46 39L47 39L47 41L46 41L46 42L45 42L45 41L44 41L44 40L43 40L43 41L42 41L42 40L41 40L41 42L39 42L39 41L40 41L40 39L38 39L38 40L37 40L37 39L36 39L36 40L37 40L37 41L36 41L36 42L35 42L35 41L34 41L34 40L35 40L35 39L34 39L34 40L33 40L33 39L32 39L32 40L31 40L31 37L32 37L32 38L33 38L33 37L32 37L32 36L31 36L31 37L30 37L30 36L29 36L29 35L28 35L28 34L31 34L31 33L30 33L30 32L31 32L31 31L32 31L32 32L35 32L35 31L36 31L36 30L37 30L37 29L38 29L38 28L37 28L37 27L36 27L36 26L37 26L37 25L36 25L36 22L37 22L37 21L36 21L36 22L35 22L35 23L34 23L34 24L33 24L33 21L31 21L31 22L30 22L30 24L28 24L28 22L29 22L29 21L30 21L30 20L31 20L31 19L32 19L32 18L33 18L33 17L30 17L30 16L29 16L29 15L28 15L28 14L27 14L27 15L26 15L26 14L25 14L25 13L24 13L24 14L23 14L23 15L22 15L22 14L21 14L21 13ZM59 13L59 14L60 14L60 13ZM37 14L37 15L38 15L38 14ZM6 15L6 16L5 16L5 17L4 17L4 18L5 18L5 19L4 19L4 20L5 20L5 21L6 21L6 22L7 22L7 21L6 21L6 20L7 20L7 19L8 19L8 18L7 18L7 17L6 17L6 16L7 16L7 15ZM14 15L14 16L15 16L15 15ZM23 15L23 16L22 16L22 17L23 17L23 16L24 16L24 17L25 17L25 18L28 18L28 17L29 17L29 20L30 20L30 17L29 17L29 16L28 16L28 15L27 15L27 16L26 16L26 15L25 15L25 16L24 16L24 15ZM32 15L32 16L33 16L33 15ZM61 15L61 17L62 17L62 15ZM1 16L1 17L0 17L0 19L1 19L1 18L2 18L2 16ZM49 16L49 17L50 17L50 18L49 18L49 20L51 20L51 21L50 21L50 22L49 22L49 21L48 21L48 20L47 20L47 21L46 21L46 22L47 22L47 23L45 23L45 25L46 25L46 26L47 26L47 23L48 23L48 22L49 22L49 23L50 23L50 24L51 24L51 25L50 25L50 27L49 27L49 28L50 28L50 30L51 30L51 28L50 28L50 27L51 27L51 25L52 25L52 24L51 24L51 23L50 23L50 22L51 22L51 21L52 21L52 20L51 20L51 19L50 19L50 18L53 18L53 19L54 19L54 18L55 18L55 17L54 17L54 18L53 18L53 17L51 17L51 16ZM10 17L10 18L11 18L11 17ZM40 17L40 18L41 18L41 19L42 19L42 18L41 18L41 17ZM58 17L58 18L59 18L59 17ZM6 18L6 19L7 19L7 18ZM66 18L66 19L65 19L65 20L66 20L66 19L67 19L67 18ZM10 19L10 20L11 20L11 19ZM26 20L26 22L28 22L28 21L27 21L27 20ZM9 21L9 22L11 22L11 21ZM23 21L23 23L22 23L22 24L23 24L23 23L24 23L24 25L25 25L25 26L24 26L24 27L25 27L25 26L26 26L26 29L27 29L27 27L28 27L28 25L27 25L27 23L26 23L26 24L25 24L25 23L24 23L24 21ZM47 21L47 22L48 22L48 21ZM65 22L65 23L62 23L62 24L63 24L63 25L62 25L62 26L63 26L63 25L64 25L64 24L65 24L65 27L62 27L62 28L63 28L63 29L62 29L62 31L63 31L63 30L66 30L66 29L67 29L67 28L68 28L68 26L66 26L66 24L65 24L65 23L66 23L66 22ZM18 24L18 25L19 25L19 24ZM30 24L30 25L31 25L31 24ZM32 24L32 26L30 26L30 31L31 31L31 28L32 28L32 26L33 26L33 29L34 29L34 30L32 30L32 31L34 31L34 30L35 30L35 29L36 29L36 27L35 27L35 26L34 26L34 25L35 25L35 24L34 24L34 25L33 25L33 24ZM53 24L53 25L54 25L54 26L55 26L55 25L54 25L54 24ZM59 24L59 26L60 26L60 24ZM34 27L34 28L35 28L35 27ZM53 27L53 28L54 28L54 27ZM6 28L6 29L7 29L7 28ZM22 28L22 29L21 29L21 30L22 30L22 31L24 31L24 32L22 32L22 33L21 33L21 32L20 32L20 33L21 33L21 34L20 34L20 35L21 35L21 36L20 36L20 37L21 37L21 36L22 36L22 37L23 37L23 36L24 36L24 37L25 37L25 36L24 36L24 35L25 35L25 34L24 34L24 33L25 33L25 32L26 32L26 33L27 33L27 32L28 32L28 30L25 30L25 31L24 31L24 29L25 29L25 28ZM46 28L46 29L47 29L47 28ZM58 28L58 30L59 30L59 28ZM64 28L64 29L65 29L65 28ZM40 30L40 31L38 31L38 32L39 32L39 33L40 33L40 32L41 32L41 30ZM46 30L46 31L47 31L47 32L48 32L48 31L47 31L47 30ZM52 30L52 31L53 31L53 30ZM68 30L68 31L69 31L69 30ZM2 32L2 33L3 33L3 34L4 34L4 32ZM67 32L67 33L68 33L68 35L69 35L69 32ZM5 33L5 36L8 36L8 33ZM9 33L9 34L10 34L10 33ZM22 33L22 34L21 34L21 35L22 35L22 36L23 36L23 35L24 35L24 34L23 34L23 33ZM33 33L33 36L36 36L36 33ZM50 33L50 34L53 34L53 33ZM61 33L61 36L64 36L64 33ZM6 34L6 35L7 35L7 34ZM11 34L11 35L12 35L12 34ZM18 34L18 35L17 35L17 36L16 36L16 37L17 37L17 36L18 36L18 35L19 35L19 34ZM26 34L26 35L27 35L27 36L26 36L26 37L27 37L27 36L28 36L28 37L29 37L29 36L28 36L28 35L27 35L27 34ZM34 34L34 35L35 35L35 34ZM62 34L62 35L63 35L63 34ZM9 35L9 36L10 36L10 37L11 37L11 36L10 36L10 35ZM46 35L46 36L47 36L47 35ZM37 36L37 37L36 37L36 38L37 38L37 37L38 37L38 36ZM48 36L48 38L49 38L49 36ZM68 36L68 37L69 37L69 36ZM6 37L6 38L4 38L4 39L5 39L5 40L8 40L8 38L9 38L9 37ZM6 38L6 39L7 39L7 38ZM9 39L9 40L10 40L10 39ZM26 40L26 42L27 42L27 43L28 43L28 42L27 42L27 40ZM30 40L30 43L29 43L29 44L26 44L26 47L27 47L27 48L25 48L25 46L24 46L24 49L23 49L23 50L24 50L24 49L28 49L28 47L30 47L30 46L31 46L31 48L30 48L30 49L29 49L29 50L28 50L28 51L29 51L29 52L30 52L30 54L31 54L31 53L32 53L32 52L30 52L30 49L32 49L32 50L31 50L31 51L35 51L35 52L34 52L34 53L35 53L35 54L36 54L36 53L37 53L37 52L38 52L38 53L39 53L39 51L38 51L38 49L39 49L39 46L40 46L40 45L41 45L41 46L42 46L42 45L41 45L41 43L38 43L38 41L37 41L37 48L36 48L36 44L35 44L35 42L34 42L34 45L33 45L33 43L32 43L32 42L33 42L33 40L32 40L32 42L31 42L31 40ZM47 41L47 42L48 42L48 41ZM66 41L66 42L65 42L65 43L66 43L66 44L67 44L67 43L66 43L66 42L67 42L67 41ZM43 42L43 43L42 43L42 44L44 44L44 42ZM1 43L1 44L2 44L2 43ZM45 43L45 44L46 44L46 43ZM48 43L48 46L49 46L49 43ZM29 44L29 45L28 45L28 46L27 46L27 47L28 47L28 46L29 46L29 45L30 45L30 44ZM38 44L38 46L39 46L39 45L40 45L40 44ZM50 44L50 45L51 45L51 46L52 46L52 45L51 45L51 44ZM60 44L60 45L58 45L58 46L59 46L59 47L60 47L60 46L61 46L61 47L62 47L62 48L63 48L63 47L62 47L62 46L61 46L61 44ZM34 45L34 46L32 46L32 47L34 47L34 48L33 48L33 49L34 49L34 50L35 50L35 51L36 51L36 52L37 52L37 51L36 51L36 50L35 50L35 49L36 49L36 48L35 48L35 45ZM64 45L64 46L67 46L67 47L68 47L68 46L67 46L67 45ZM6 47L6 48L7 48L7 47ZM9 47L9 48L10 48L10 47ZM34 48L34 49L35 49L35 48ZM67 49L67 50L65 50L65 51L64 51L64 52L63 52L63 50L62 50L62 52L63 52L63 54L62 54L62 55L61 55L61 57L62 57L62 59L60 59L60 60L58 60L58 61L60 61L60 62L59 62L59 63L58 63L58 64L57 64L57 62L56 62L56 63L55 63L55 64L54 64L54 65L55 65L55 67L56 67L56 69L57 69L57 68L58 68L58 67L59 67L59 68L60 68L60 67L61 67L61 68L62 68L62 69L63 69L63 68L64 68L64 69L67 69L67 68L66 68L66 67L69 67L69 66L67 66L67 65L66 65L66 63L67 63L67 62L66 62L66 61L67 61L67 60L69 60L69 58L68 58L68 59L67 59L67 60L66 60L66 59L65 59L65 58L67 58L67 57L68 57L68 55L69 55L69 52L68 52L68 49ZM8 50L8 52L9 52L9 53L10 53L10 52L9 52L9 51L11 51L11 50ZM55 50L55 52L54 52L54 53L55 53L55 52L56 52L56 50ZM13 51L13 52L15 52L15 51ZM45 51L45 52L46 52L46 51ZM66 51L66 52L67 52L67 51ZM21 52L21 53L20 53L20 54L19 54L19 53L18 53L18 55L20 55L20 54L21 54L21 53L22 53L22 52ZM48 52L48 53L49 53L49 54L50 54L50 53L51 53L51 52L50 52L50 53L49 53L49 52ZM64 53L64 54L63 54L63 55L62 55L62 57L64 57L64 58L65 58L65 57L64 57L64 54L65 54L65 55L66 55L66 56L67 56L67 55L66 55L66 54L67 54L67 53L66 53L66 54L65 54L65 53ZM6 56L6 57L5 57L5 58L4 58L4 59L7 59L7 58L6 58L6 57L7 57L7 56ZM10 56L10 57L11 57L11 56ZM19 56L19 57L20 57L20 56ZM44 56L44 57L45 57L45 56ZM31 57L31 58L32 58L32 57ZM16 58L16 59L17 59L17 58ZM62 59L62 60L63 60L63 59ZM64 59L64 60L65 60L65 59ZM3 60L3 61L5 61L5 60ZM16 61L16 62L17 62L17 61ZM33 61L33 64L36 64L36 61ZM47 61L47 62L48 62L48 61ZM61 61L61 64L64 64L64 61ZM68 61L68 65L69 65L69 61ZM24 62L24 63L23 63L23 64L24 64L24 65L25 65L25 62ZM34 62L34 63L35 63L35 62ZM62 62L62 63L63 63L63 62ZM50 63L50 64L51 64L51 63ZM59 63L59 64L58 64L58 66L59 66L59 67L60 67L60 66L61 66L61 67L62 67L62 68L63 68L63 67L62 67L62 66L63 66L63 65L62 65L62 66L61 66L61 65L59 65L59 64L60 64L60 63ZM55 64L55 65L56 65L56 67L57 67L57 65L56 65L56 64ZM40 65L40 66L41 66L41 65ZM65 65L65 67L64 67L64 68L65 68L65 67L66 67L66 65ZM8 66L8 69L9 69L9 66ZM49 66L49 67L48 67L48 68L50 68L50 66ZM22 67L22 68L23 68L23 67ZM37 67L37 68L36 68L36 69L37 69L37 68L38 68L38 67ZM68 68L68 69L69 69L69 68ZM0 0L0 7L7 7L7 0ZM1 1L1 6L6 6L6 1ZM2 2L2 5L5 5L5 2ZM62 0L62 7L69 7L69 0ZM63 1L63 6L68 6L68 1ZM64 2L64 5L67 5L67 2ZM0 62L0 69L7 69L7 62ZM1 63L1 68L6 68L6 63ZM2 64L2 67L5 67L5 64Z" fill="#000000"/></g></g></svg>
