<?xml version="1.0" encoding="UTF-8"?>
<svg xmlns="http://www.w3.org/2000/svg" version="1.1" width="300" height="300" viewBox="0 0 300 300"><rect x="0" y="0" width="300" height="300" fill="#ffffff"/><g transform="scale(4.348)"><g transform="translate(0,0)"><path fill-rule="evenodd" d="M8 0L8 1L9 1L9 2L8 2L8 5L9 5L9 4L11 4L11 3L12 3L12 5L11 5L11 6L10 6L10 7L9 7L9 6L8 6L8 7L9 7L9 8L8 8L8 9L10 9L10 10L8 10L8 11L7 11L7 10L4 10L4 8L0 8L0 13L1 13L1 14L0 14L0 18L2 18L2 17L3 17L3 16L1 16L1 15L4 15L4 16L5 16L5 17L4 17L4 18L5 18L5 19L7 19L7 20L6 20L6 21L7 21L7 22L6 22L6 23L7 23L7 24L5 24L5 23L4 23L4 22L5 22L5 20L4 20L4 21L0 21L0 23L1 23L1 25L0 25L0 27L1 27L1 25L4 25L4 24L5 24L5 28L3 28L3 27L4 27L4 26L3 26L3 27L2 27L2 28L0 28L0 31L1 31L1 32L0 32L0 33L2 33L2 34L0 34L0 39L1 39L1 36L2 36L2 34L4 34L4 37L2 37L2 40L0 40L0 41L1 41L1 42L0 42L0 44L1 44L1 45L0 45L0 46L1 46L1 47L0 47L0 51L1 51L1 52L0 52L0 53L1 53L1 52L2 52L2 55L1 55L1 54L0 54L0 55L1 55L1 57L2 57L2 56L3 56L3 52L4 52L4 53L5 53L5 51L4 51L4 50L5 50L5 49L3 49L3 48L4 48L4 47L2 47L2 45L5 45L5 44L6 44L6 45L7 45L7 46L5 46L5 47L8 47L8 46L9 46L9 45L7 45L7 44L6 44L6 43L7 43L7 42L6 42L6 43L5 43L5 44L4 44L4 42L5 42L5 40L4 40L4 37L7 37L7 38L5 38L5 39L7 39L7 40L6 40L6 41L7 41L7 40L8 40L8 41L9 41L9 42L10 42L10 41L9 41L9 40L10 40L10 38L9 38L9 36L10 36L10 34L9 34L9 33L10 33L10 32L9 32L9 30L8 30L8 29L9 29L9 28L8 28L8 27L9 27L9 25L8 25L8 27L7 27L7 26L6 26L6 25L7 25L7 24L9 24L9 23L10 23L10 26L12 26L12 27L11 27L11 29L10 29L10 31L11 31L11 29L13 29L13 32L11 32L11 33L12 33L12 34L13 34L13 32L16 32L16 33L17 33L17 35L18 35L18 36L17 36L17 38L18 38L18 40L20 40L20 41L21 41L21 42L17 42L17 41L16 41L16 40L15 40L15 38L16 38L16 37L15 37L15 38L13 38L13 37L14 37L14 36L13 36L13 35L12 35L12 36L11 36L11 37L12 37L12 38L13 38L13 39L11 39L11 42L12 42L12 43L13 43L13 39L14 39L14 41L16 41L16 42L17 42L17 43L18 43L18 44L15 44L15 45L14 45L14 44L13 44L13 45L14 45L14 47L15 47L15 48L12 48L12 49L11 49L11 50L10 50L10 51L11 51L11 53L10 53L10 56L11 56L11 57L12 57L12 56L11 56L11 53L12 53L12 54L14 54L14 55L13 55L13 57L14 57L14 58L11 58L11 60L9 60L9 59L10 59L10 57L9 57L9 59L7 59L7 58L8 58L8 56L9 56L9 54L6 54L6 55L7 55L7 56L6 56L6 57L5 57L5 56L4 56L4 57L3 57L3 58L2 58L2 59L3 59L3 58L4 58L4 59L7 59L7 60L6 60L6 61L8 61L8 62L9 62L9 64L10 64L10 66L9 66L9 65L8 65L8 69L10 69L10 68L11 68L11 64L13 64L13 65L15 65L15 67L18 67L18 68L19 68L19 67L20 67L20 69L23 69L23 68L24 68L24 67L26 67L26 64L27 64L27 69L28 69L28 67L30 67L30 66L31 66L31 65L28 65L28 64L27 64L27 62L28 62L28 63L29 63L29 64L32 64L32 65L33 65L33 66L32 66L32 67L33 67L33 68L34 68L34 66L35 66L35 69L36 69L36 67L37 67L37 68L38 68L38 67L37 67L37 66L36 66L36 65L37 65L37 64L39 64L39 65L40 65L40 66L42 66L42 65L40 65L40 64L41 64L41 61L42 61L42 60L43 60L43 63L44 63L44 64L43 64L43 65L45 65L45 66L44 66L44 67L41 67L41 68L40 68L40 67L39 67L39 69L41 69L41 68L42 68L42 69L43 69L43 68L45 68L45 69L46 69L46 68L47 68L47 69L48 69L48 68L49 68L49 69L55 69L55 68L57 68L57 69L63 69L63 66L64 66L64 65L67 65L67 66L68 66L68 65L69 65L69 63L68 63L68 64L67 64L67 63L65 63L65 60L66 60L66 59L65 59L65 58L66 58L66 57L65 57L65 55L66 55L66 54L65 54L65 53L63 53L63 54L65 54L65 55L64 55L64 56L63 56L63 55L62 55L62 53L61 53L61 47L63 47L63 45L65 45L65 44L64 44L64 43L68 43L68 44L69 44L69 43L68 43L68 41L67 41L67 39L66 39L66 37L65 37L65 36L66 36L66 35L67 35L67 38L69 38L69 37L68 37L68 35L69 35L69 33L68 33L68 32L69 32L69 31L68 31L68 29L69 29L69 27L66 27L66 26L63 26L63 25L64 25L64 23L65 23L65 24L66 24L66 23L65 23L65 20L64 20L64 19L63 19L63 18L62 18L62 19L63 19L63 21L64 21L64 23L60 23L60 24L59 24L59 23L58 23L58 24L59 24L59 25L61 25L61 26L62 26L62 27L66 27L66 30L67 30L67 32L65 32L65 29L64 29L64 28L63 28L63 29L64 29L64 30L63 30L63 32L57 32L57 31L58 31L58 30L60 30L60 31L62 31L62 30L60 30L60 29L61 29L61 27L59 27L59 26L58 26L58 25L57 25L57 27L58 27L58 28L56 28L56 24L57 24L57 23L56 23L56 22L57 22L57 21L60 21L60 22L62 22L62 20L59 20L59 18L60 18L60 19L61 19L61 18L60 18L60 17L64 17L64 15L65 15L65 17L66 17L66 16L68 16L68 15L66 15L66 14L69 14L69 13L67 13L67 12L68 12L68 11L69 11L69 8L68 8L68 10L67 10L67 8L64 8L64 9L63 9L63 10L62 10L62 8L61 8L61 9L60 9L60 7L61 7L61 6L60 6L60 7L59 7L59 4L58 4L58 3L59 3L59 2L58 2L58 3L57 3L57 4L56 4L56 3L55 3L55 2L54 2L54 1L55 1L55 0L53 0L53 1L52 1L52 0L51 0L51 1L50 1L50 0L49 0L49 2L47 2L47 3L46 3L46 2L45 2L45 0L44 0L44 2L43 2L43 5L44 5L44 8L45 8L45 5L46 5L46 7L47 7L47 6L48 6L48 7L49 7L49 6L50 6L50 7L51 7L51 6L50 6L50 5L52 5L52 8L50 8L50 9L48 9L48 8L46 8L46 9L47 9L47 11L49 11L49 12L47 12L47 13L48 13L48 14L49 14L49 15L47 15L47 14L46 14L46 13L45 13L45 15L44 15L44 16L43 16L43 18L42 18L42 16L41 16L41 19L42 19L42 20L40 20L40 19L39 19L39 18L40 18L40 16L39 16L39 18L38 18L38 19L37 19L37 17L35 17L35 18L32 18L32 17L33 17L33 16L32 16L32 15L31 15L31 14L30 14L30 15L31 15L31 16L32 16L32 17L30 17L30 18L32 18L32 19L31 19L31 21L32 21L32 22L30 22L30 20L29 20L29 26L28 26L28 25L27 25L27 26L28 26L28 27L26 27L26 28L25 28L25 27L24 27L24 25L26 25L26 24L27 24L27 23L28 23L28 22L26 22L26 21L24 21L24 20L27 20L27 21L28 21L28 20L27 20L27 18L28 18L28 19L29 19L29 17L27 17L27 16L29 16L29 14L28 14L28 12L29 12L29 13L32 13L32 12L31 12L31 10L32 10L32 11L33 11L33 12L35 12L35 13L36 13L36 14L35 14L35 15L36 15L36 14L39 14L39 15L40 15L40 14L41 14L41 13L40 13L40 14L39 14L39 12L42 12L42 13L43 13L43 14L44 14L44 13L43 13L43 12L42 12L42 11L39 11L39 12L38 12L38 11L37 11L37 13L36 13L36 12L35 12L35 11L33 11L33 10L34 10L34 9L36 9L36 10L38 10L38 8L39 8L39 9L40 9L40 10L43 10L43 11L44 11L44 12L45 12L45 11L46 11L46 10L43 10L43 6L42 6L42 9L41 9L41 8L39 8L39 6L38 6L38 5L40 5L40 4L39 4L39 3L41 3L41 4L42 4L42 3L41 3L41 2L42 2L42 1L43 1L43 0L41 0L41 2L39 2L39 3L36 3L36 2L34 2L34 1L32 1L32 0L30 0L30 1L29 1L29 2L26 2L26 1L28 1L28 0L26 0L26 1L25 1L25 0L21 0L21 1L19 1L19 0L16 0L16 1L19 1L19 2L17 2L17 4L19 4L19 6L18 6L18 5L17 5L17 6L16 6L16 7L17 7L17 9L15 9L15 10L12 10L12 11L11 11L11 13L12 13L12 14L11 14L11 15L8 15L8 13L9 13L9 11L10 11L10 10L11 10L11 9L12 9L12 8L13 8L13 9L14 9L14 8L15 8L15 6L14 6L14 5L16 5L16 4L15 4L15 1L14 1L14 0L13 0L13 1L14 1L14 2L13 2L13 3L12 3L12 2L11 2L11 3L10 3L10 1L12 1L12 0L10 0L10 1L9 1L9 0ZM37 0L37 2L38 2L38 0ZM56 0L56 1L61 1L61 0ZM23 1L23 3L22 3L22 2L20 2L20 3L19 3L19 4L20 4L20 3L21 3L21 7L22 7L22 8L21 8L21 9L20 9L20 11L18 11L18 10L16 10L16 11L12 11L12 12L13 12L13 14L12 14L12 15L11 15L11 16L10 16L10 20L7 20L7 21L9 21L9 22L8 22L8 23L9 23L9 22L10 22L10 23L12 23L12 22L13 22L13 23L14 23L14 22L13 22L13 21L14 21L14 18L15 18L15 20L16 20L16 21L17 21L17 18L19 18L19 19L20 19L20 20L18 20L18 21L20 21L20 22L16 22L16 23L15 23L15 24L14 24L14 25L12 25L12 24L11 24L11 25L12 25L12 26L14 26L14 25L15 25L15 24L16 24L16 25L17 25L17 26L15 26L15 29L14 29L14 31L16 31L16 32L17 32L17 33L19 33L19 34L21 34L21 32L22 32L22 31L21 31L21 29L22 29L22 30L23 30L23 31L26 31L26 32L25 32L25 34L24 34L24 35L20 35L20 36L19 36L19 37L18 37L18 38L19 38L19 37L20 37L20 36L21 36L21 37L23 37L23 36L24 36L24 38L23 38L23 39L22 39L22 38L21 38L21 41L23 41L23 40L24 40L24 41L25 41L25 42L21 42L21 44L20 44L20 46L21 46L21 44L22 44L22 43L23 43L23 44L24 44L24 45L25 45L25 46L24 46L24 50L21 50L21 48L22 48L22 49L23 49L23 47L19 47L19 48L18 48L18 46L17 46L17 45L15 45L15 46L16 46L16 48L18 48L18 50L19 50L19 49L20 49L20 50L21 50L21 51L25 51L25 52L27 52L27 53L24 53L24 52L22 52L22 53L24 53L24 54L25 54L25 55L23 55L23 56L22 56L22 54L21 54L21 53L20 53L20 52L19 52L19 51L17 51L17 49L16 49L16 50L15 50L15 49L12 49L12 50L11 50L11 51L12 51L12 52L13 52L13 53L14 53L14 52L16 52L16 51L17 51L17 54L15 54L15 55L16 55L16 56L15 56L15 59L12 59L12 61L13 61L13 62L12 62L12 63L13 63L13 64L14 64L14 63L15 63L15 62L14 62L14 61L15 61L15 59L16 59L16 62L17 62L17 63L20 63L20 64L21 64L21 63L22 63L22 65L20 65L20 67L22 67L22 68L23 68L23 67L24 67L24 66L25 66L25 64L26 64L26 62L25 62L25 59L27 59L27 60L26 60L26 61L27 61L27 60L28 60L28 62L29 62L29 63L30 63L30 62L31 62L31 61L32 61L32 59L33 59L33 60L34 60L34 58L36 58L36 60L37 60L37 61L41 61L41 60L39 60L39 59L40 59L40 58L39 58L39 57L38 57L38 58L36 58L36 57L37 57L37 56L38 56L38 54L40 54L40 55L39 55L39 56L40 56L40 55L41 55L41 57L42 57L42 56L43 56L43 54L44 54L44 57L43 57L43 58L44 58L44 57L45 57L45 59L43 59L43 60L44 60L44 63L45 63L45 64L46 64L46 65L47 65L47 66L45 66L45 67L47 67L47 68L48 68L48 66L50 66L50 67L52 67L52 68L55 68L55 67L56 67L56 66L55 66L55 65L54 65L54 66L53 66L53 64L54 64L54 63L55 63L55 64L56 64L56 63L57 63L57 68L61 68L61 67L62 67L62 66L63 66L63 65L62 65L62 66L61 66L61 65L59 65L59 64L58 64L58 63L60 63L60 60L59 60L59 57L60 57L60 59L61 59L61 57L63 57L63 59L62 59L62 60L65 60L65 59L64 59L64 58L65 58L65 57L63 57L63 56L60 56L60 55L61 55L61 54L60 54L60 53L59 53L59 54L60 54L60 55L58 55L58 52L59 52L59 50L60 50L60 47L61 47L61 46L62 46L62 45L61 45L61 44L59 44L59 43L60 43L60 41L61 41L61 42L62 42L62 43L63 43L63 41L64 41L64 40L63 40L63 41L62 41L62 39L63 39L63 38L65 38L65 37L60 37L60 35L59 35L59 33L57 33L57 32L53 32L53 33L52 33L52 32L51 32L51 28L52 28L52 30L53 30L53 29L54 29L54 30L56 30L56 31L57 31L57 30L56 30L56 29L54 29L54 28L52 28L52 27L55 27L55 24L54 24L54 25L53 25L53 24L49 24L49 25L48 25L48 24L47 24L47 25L46 25L46 22L47 22L47 21L46 21L46 20L47 20L47 18L46 18L46 20L44 20L44 18L45 18L45 17L46 17L46 16L47 16L47 17L49 17L49 18L51 18L51 15L52 15L52 17L54 17L54 18L53 18L53 21L52 21L52 20L51 20L51 19L48 19L48 22L49 22L49 23L50 23L50 22L51 22L51 23L54 23L54 19L55 19L55 22L56 22L56 21L57 21L57 20L58 20L58 19L57 19L57 17L59 17L59 15L58 15L58 14L59 14L59 12L60 12L60 14L61 14L61 16L62 16L62 13L63 13L63 15L64 15L64 13L66 13L66 12L67 12L67 11L66 11L66 12L62 12L62 13L61 13L61 11L59 11L59 12L58 12L58 11L57 11L57 8L58 8L58 10L59 10L59 7L58 7L58 6L57 6L57 5L55 5L55 3L54 3L54 2L53 2L53 3L51 3L51 2L50 2L50 3L49 3L49 4L46 4L46 3L45 3L45 2L44 2L44 5L45 5L45 4L46 4L46 5L49 5L49 4L50 4L50 3L51 3L51 4L53 4L53 9L50 9L50 11L53 11L53 12L51 12L51 15L49 15L49 16L47 16L47 15L46 15L46 16L45 16L45 17L44 17L44 18L43 18L43 20L42 20L42 21L39 21L39 20L36 20L36 21L37 21L37 22L35 22L35 21L34 21L34 22L35 22L35 23L36 23L36 24L37 24L37 25L36 25L36 27L37 27L37 25L40 25L40 26L39 26L39 27L38 27L38 29L35 29L35 27L34 27L34 25L35 25L35 24L33 24L33 22L32 22L32 24L31 24L31 23L30 23L30 24L31 24L31 25L30 25L30 26L29 26L29 27L30 27L30 28L28 28L28 29L31 29L31 26L33 26L33 27L32 27L32 31L33 31L33 32L36 32L36 31L33 31L33 30L37 30L37 32L38 32L38 31L39 31L39 27L40 27L40 32L41 32L41 33L42 33L42 32L43 32L43 35L40 35L40 34L39 34L39 33L38 33L38 34L37 34L37 35L38 35L38 36L39 36L39 35L40 35L40 38L43 38L43 39L44 39L44 40L45 40L45 38L46 38L46 39L47 39L47 40L46 40L46 41L47 41L47 43L46 43L46 42L45 42L45 41L44 41L44 42L43 42L43 41L42 41L42 42L43 42L43 44L42 44L42 45L45 45L45 46L46 46L46 47L47 47L47 46L50 46L50 47L51 47L51 48L49 48L49 50L48 50L48 51L46 51L46 50L47 50L47 48L46 48L46 50L45 50L45 47L43 47L43 46L42 46L42 47L43 47L43 48L44 48L44 49L42 49L42 48L38 48L38 47L36 47L36 48L38 48L38 49L41 49L41 51L40 51L40 50L38 50L38 51L40 51L40 53L39 53L39 52L35 52L35 51L34 51L34 50L36 50L36 51L37 51L37 49L35 49L35 48L33 48L33 51L34 51L34 53L35 53L35 55L34 55L34 56L36 56L36 57L33 57L33 56L32 56L32 54L30 54L30 53L33 53L33 52L29 52L29 51L30 51L30 50L31 50L31 49L32 49L32 47L33 47L33 46L30 46L30 45L31 45L31 43L32 43L32 45L33 45L33 44L34 44L34 43L35 43L35 45L36 45L36 44L39 44L39 45L38 45L38 46L39 46L39 47L41 47L41 45L40 45L40 44L39 44L39 43L40 43L40 42L41 42L41 40L42 40L42 39L41 39L41 40L40 40L40 42L39 42L39 40L38 40L38 41L37 41L37 40L36 40L36 41L37 41L37 42L38 42L38 43L35 43L35 39L37 39L37 37L35 37L35 39L33 39L33 37L32 37L32 36L31 36L31 37L30 37L30 38L29 38L29 36L26 36L26 37L28 37L28 38L27 38L27 39L28 39L28 38L29 38L29 39L30 39L30 38L31 38L31 37L32 37L32 40L28 40L28 41L29 41L29 42L30 42L30 41L33 41L33 40L34 40L34 42L31 42L31 43L30 43L30 45L27 45L27 44L28 44L28 43L27 43L27 44L24 44L24 43L26 43L26 40L24 40L24 39L25 39L25 35L26 35L26 34L27 34L27 29L26 29L26 30L25 30L25 29L24 29L24 30L23 30L23 28L24 28L24 27L23 27L23 25L22 25L22 24L23 24L23 23L24 23L24 24L25 24L25 23L26 23L26 22L23 22L23 21L22 21L22 22L23 22L23 23L21 23L21 19L20 19L20 16L22 16L22 17L21 17L21 18L23 18L23 19L24 19L24 18L26 18L26 16L27 16L27 15L28 15L28 14L27 14L27 11L28 11L28 10L29 10L29 11L30 11L30 10L31 10L31 8L32 8L32 6L31 6L31 8L30 8L30 6L29 6L29 8L30 8L30 9L28 9L28 6L27 6L27 7L26 7L26 6L25 6L25 7L24 7L24 6L23 6L23 7L22 7L22 4L23 4L23 5L27 5L27 3L26 3L26 4L25 4L25 3L24 3L24 1ZM30 1L30 2L31 2L31 4L30 4L30 5L31 5L31 4L33 4L33 2L32 2L32 1ZM28 3L28 5L29 5L29 3ZM35 3L35 4L36 4L36 3ZM60 3L60 5L61 5L61 3ZM12 5L12 6L11 6L11 7L10 7L10 9L11 9L11 7L12 7L12 6L13 6L13 8L14 8L14 6L13 6L13 5ZM33 5L33 8L36 8L36 5ZM17 6L17 7L18 7L18 9L19 9L19 8L20 8L20 6L19 6L19 7L18 7L18 6ZM34 6L34 7L35 7L35 6ZM37 6L37 7L38 7L38 6ZM40 6L40 7L41 7L41 6ZM54 6L54 7L55 7L55 9L53 9L53 11L54 11L54 10L55 10L55 9L56 9L56 7L57 7L57 6L56 6L56 7L55 7L55 6ZM6 8L6 9L7 9L7 8ZM22 8L22 9L23 9L23 10L22 10L22 11L23 11L23 12L25 12L25 10L26 10L26 9L25 9L25 10L24 10L24 9L23 9L23 8ZM2 9L2 10L1 10L1 11L2 11L2 12L3 12L3 11L2 11L2 10L3 10L3 9ZM32 9L32 10L33 10L33 9ZM65 9L65 10L63 10L63 11L65 11L65 10L66 10L66 9ZM4 11L4 13L2 13L2 14L4 14L4 15L6 15L6 16L7 16L7 15L6 15L6 14L7 14L7 13L6 13L6 12L7 12L7 11ZM17 11L17 13L15 13L15 14L14 14L14 15L13 15L13 16L12 16L12 17L11 17L11 22L12 22L12 21L13 21L13 20L12 20L12 19L13 19L13 18L14 18L14 15L16 15L16 16L17 16L17 15L19 15L19 16L18 16L18 17L19 17L19 16L20 16L20 15L19 15L19 14L21 14L21 15L23 15L23 14L21 14L21 13L19 13L19 12L18 12L18 11ZM55 11L55 13L56 13L56 12L57 12L57 11ZM49 12L49 13L50 13L50 12ZM4 13L4 14L5 14L5 13ZM18 13L18 14L19 14L19 13ZM25 13L25 14L24 14L24 15L25 15L25 16L23 16L23 18L24 18L24 17L25 17L25 16L26 16L26 15L25 15L25 14L26 14L26 13ZM52 13L52 14L53 14L53 16L55 16L55 18L56 18L56 17L57 17L57 16L58 16L58 15L57 15L57 16L56 16L56 14L55 14L55 15L54 15L54 14L53 14L53 13ZM57 13L57 14L58 14L58 13ZM16 14L16 15L17 15L17 14ZM33 14L33 15L34 15L34 14ZM37 15L37 16L38 16L38 15ZM8 16L8 17L6 17L6 18L8 18L8 19L9 19L9 16ZM68 17L68 18L67 18L67 20L66 20L66 21L67 21L67 22L68 22L68 23L69 23L69 21L67 21L67 20L69 20L69 19L68 19L68 18L69 18L69 17ZM0 19L0 20L1 20L1 19ZM2 19L2 20L3 20L3 19ZM34 19L34 20L35 20L35 19ZM56 19L56 20L57 20L57 19ZM49 20L49 22L50 22L50 20ZM42 21L42 23L44 23L44 21ZM37 22L37 23L38 23L38 24L41 24L41 25L42 25L42 24L41 24L41 22L40 22L40 23L38 23L38 22ZM16 23L16 24L17 24L17 25L18 25L18 26L17 26L17 27L16 27L16 28L17 28L17 27L19 27L19 29L21 29L21 28L23 28L23 27L21 27L21 25L19 25L19 24L21 24L21 23L19 23L19 24L18 24L18 23ZM32 24L32 25L33 25L33 24ZM43 24L43 27L42 27L42 26L41 26L41 27L42 27L42 28L43 28L43 30L44 30L44 31L45 31L45 33L44 33L44 34L45 34L45 33L46 33L46 32L47 32L47 34L46 34L46 37L50 37L50 39L48 39L48 38L47 38L47 39L48 39L48 40L50 40L50 41L52 41L52 40L53 40L53 43L55 43L55 42L54 42L54 40L53 40L53 39L51 39L51 37L50 37L50 36L51 36L51 35L52 35L52 36L53 36L53 34L51 34L51 35L50 35L50 34L49 34L49 35L48 35L48 36L47 36L47 34L48 34L48 32L47 32L47 30L48 30L48 26L46 26L46 25L44 25L44 24ZM62 24L62 25L63 25L63 24ZM68 24L68 25L67 25L67 26L68 26L68 25L69 25L69 24ZM49 25L49 26L50 26L50 28L51 28L51 26L52 26L52 25ZM44 26L44 27L43 27L43 28L44 28L44 27L46 27L46 28L45 28L45 31L46 31L46 28L47 28L47 27L46 27L46 26ZM6 27L6 28L5 28L5 29L4 29L4 30L3 30L3 31L2 31L2 32L3 32L3 33L4 33L4 32L3 32L3 31L4 31L4 30L5 30L5 31L6 31L6 32L8 32L8 30L7 30L7 29L6 29L6 28L7 28L7 27ZM13 27L13 28L14 28L14 27ZM33 28L33 29L34 29L34 28ZM1 29L1 30L2 30L2 29ZM15 29L15 30L16 30L16 31L17 31L17 29ZM41 29L41 31L42 31L42 29ZM6 30L6 31L7 31L7 30ZM18 30L18 31L19 31L19 32L20 32L20 30ZM29 30L29 31L28 31L28 35L29 35L29 34L30 34L30 35L32 35L32 33L31 33L31 32L30 32L30 33L29 33L29 31L30 31L30 30ZM23 32L23 33L22 33L22 34L23 34L23 33L24 33L24 32ZM5 33L5 36L8 36L8 33ZM14 33L14 34L15 34L15 33ZM30 33L30 34L31 34L31 33ZM33 33L33 36L36 36L36 33ZM54 33L54 35L55 35L55 37L56 37L56 35L55 35L55 33ZM56 33L56 34L57 34L57 33ZM61 33L61 36L64 36L64 33ZM65 33L65 34L68 34L68 33ZM6 34L6 35L7 35L7 34ZM34 34L34 35L35 35L35 34ZM62 34L62 35L63 35L63 34ZM15 35L15 36L16 36L16 35ZM43 35L43 36L41 36L41 37L44 37L44 36L45 36L45 35ZM49 35L49 36L50 36L50 35ZM12 36L12 37L13 37L13 36ZM57 36L57 38L55 38L55 40L56 40L56 41L57 41L57 42L56 42L56 44L58 44L58 45L59 45L59 47L57 47L57 48L59 48L59 47L60 47L60 46L61 46L61 45L59 45L59 44L58 44L58 42L59 42L59 41L60 41L60 40L59 40L59 39L57 39L57 38L58 38L58 37L59 37L59 38L60 38L60 39L61 39L61 38L60 38L60 37L59 37L59 36ZM52 37L52 38L53 38L53 37ZM8 38L8 40L9 40L9 38ZM38 38L38 39L39 39L39 38ZM50 39L50 40L51 40L51 39ZM65 39L65 42L67 42L67 41L66 41L66 39ZM3 40L3 41L2 41L2 42L1 42L1 44L2 44L2 42L3 42L3 41L4 41L4 40ZM57 40L57 41L58 41L58 40ZM48 42L48 43L49 43L49 44L50 44L50 43L49 43L49 42ZM9 43L9 44L10 44L10 45L11 45L11 44L10 44L10 43ZM18 44L18 45L19 45L19 44ZM45 44L45 45L48 45L48 44ZM51 44L51 45L52 45L52 46L51 46L51 47L53 47L53 44ZM54 44L54 47L56 47L56 45L55 45L55 44ZM26 45L26 46L25 46L25 48L26 48L26 47L27 47L27 49L26 49L26 50L25 50L25 51L27 51L27 52L28 52L28 53L27 53L27 54L29 54L29 52L28 52L28 51L29 51L29 50L30 50L30 49L31 49L31 47L29 47L29 46L27 46L27 45ZM66 45L66 46L65 46L65 47L64 47L64 48L62 48L62 49L63 49L63 50L64 50L64 48L66 48L66 46L68 46L68 49L66 49L66 50L67 50L67 51L66 51L66 53L67 53L67 52L68 52L68 54L67 54L67 57L68 57L68 58L67 58L67 61L69 61L69 60L68 60L68 59L69 59L69 55L68 55L68 54L69 54L69 52L68 52L68 51L69 51L69 45ZM34 46L34 47L35 47L35 46ZM1 47L1 48L2 48L2 47ZM9 47L9 48L11 48L11 47ZM6 48L6 49L7 49L7 50L6 50L6 51L9 51L9 50L8 50L8 49L7 49L7 48ZM55 48L55 49L56 49L56 48ZM27 49L27 50L29 50L29 49ZM50 49L50 51L52 51L52 52L50 52L50 53L51 53L51 57L52 57L52 60L53 60L53 61L52 61L52 62L53 62L53 63L54 63L54 62L53 62L53 61L54 61L54 60L53 60L53 59L54 59L54 58L56 58L56 59L55 59L55 63L56 63L56 62L57 62L57 63L58 63L58 62L57 62L57 61L56 61L56 59L57 59L57 60L58 60L58 58L57 58L57 57L55 57L55 56L57 56L57 54L56 54L56 55L54 55L54 53L52 53L52 52L53 52L53 49L52 49L52 50L51 50L51 49ZM57 49L57 50L56 50L56 51L55 51L55 50L54 50L54 51L55 51L55 53L57 53L57 52L58 52L58 51L57 51L57 50L58 50L58 49ZM13 50L13 52L14 52L14 50ZM44 50L44 51L42 51L42 52L41 52L41 54L42 54L42 52L43 52L43 53L44 53L44 54L45 54L45 55L46 55L46 54L47 54L47 52L46 52L46 51L45 51L45 50ZM2 51L2 52L3 52L3 51ZM44 51L44 52L45 52L45 51ZM62 51L62 52L65 52L65 51ZM6 52L6 53L7 53L7 52ZM8 52L8 53L9 53L9 52ZM36 53L36 54L37 54L37 53ZM48 53L48 54L49 54L49 55L48 55L48 56L50 56L50 54L49 54L49 53ZM17 54L17 56L16 56L16 59L18 59L18 60L17 60L17 62L19 62L19 61L20 61L20 62L22 62L22 63L24 63L24 60L23 60L23 59L22 59L22 56L21 56L21 59L20 59L20 56L19 56L19 54ZM20 54L20 55L21 55L21 54ZM25 55L25 56L27 56L27 57L24 57L24 56L23 56L23 57L24 57L24 58L27 58L27 57L30 57L30 56L27 56L27 55ZM52 55L52 56L53 56L53 57L54 57L54 56L53 56L53 55ZM18 56L18 57L17 57L17 58L19 58L19 56ZM45 56L45 57L46 57L46 56ZM6 57L6 58L7 58L7 57ZM32 57L32 58L33 58L33 57ZM0 58L0 61L1 61L1 58ZM28 58L28 59L29 59L29 61L31 61L31 59L29 59L29 58ZM38 58L38 59L39 59L39 58ZM47 58L47 59L46 59L46 60L45 60L45 63L46 63L46 61L49 61L49 62L47 62L47 63L48 63L48 64L49 64L49 63L50 63L50 62L51 62L51 61L50 61L50 58L49 58L49 59L48 59L48 58ZM19 59L19 60L20 60L20 59ZM21 59L21 61L22 61L22 62L23 62L23 60L22 60L22 59ZM3 60L3 61L5 61L5 60ZM8 60L8 61L9 61L9 62L10 62L10 64L11 64L11 62L10 62L10 61L9 61L9 60ZM33 61L33 64L36 64L36 61ZM61 61L61 64L64 64L64 61ZM34 62L34 63L35 63L35 62ZM37 62L37 63L39 63L39 64L40 64L40 63L39 63L39 62ZM62 62L62 63L63 63L63 62ZM15 64L15 65L16 65L16 64ZM18 64L18 66L19 66L19 64ZM51 64L51 65L52 65L52 64ZM22 65L22 66L24 66L24 65ZM58 65L58 67L61 67L61 66L59 66L59 65ZM52 66L52 67L53 67L53 66ZM65 66L65 67L64 67L64 68L65 68L65 69L66 69L66 68L65 68L65 67L66 67L66 66ZM9 67L9 68L10 68L10 67ZM12 67L12 68L13 68L13 69L14 69L14 68L13 68L13 67ZM68 67L68 68L69 68L69 67ZM15 68L15 69L16 69L16 68ZM0 0L0 7L7 7L7 0ZM1 1L1 6L6 6L6 1ZM2 2L2 5L5 5L5 2ZM62 0L62 7L69 7L69 0ZM63 1L63 6L68 6L68 1ZM64 2L64 5L67 5L67 2ZM0 62L0 69L7 69L7 62ZM1 63L1 68L6 68L6 63ZM2 64L2 67L5 67L5 64Z" fill="#000000"/></g></g></svg>
