<?xml version="1.0" encoding="UTF-8"?>
<svg xmlns="http://www.w3.org/2000/svg" version="1.1" width="300" height="300" viewBox="0 0 300 300"><rect x="0" y="0" width="300" height="300" fill="#ffffff"/><g transform="scale(4.348)"><g transform="translate(0,0)"><path fill-rule="evenodd" d="M8 0L8 4L9 4L9 3L11 3L11 4L15 4L15 5L14 5L14 7L13 7L13 5L10 5L10 7L11 7L11 6L12 6L12 7L13 7L13 8L15 8L15 6L16 6L16 7L17 7L17 8L16 8L16 9L12 9L12 8L10 8L10 10L9 10L9 13L8 13L8 12L6 12L6 11L7 11L7 10L6 10L6 9L7 9L7 8L4 8L4 9L5 9L5 10L4 10L4 11L3 11L3 12L2 12L2 10L1 10L1 12L0 12L0 13L1 13L1 12L2 12L2 14L4 14L4 13L7 13L7 14L5 14L5 15L7 15L7 14L9 14L9 13L10 13L10 16L9 16L9 17L8 17L8 18L9 18L9 20L6 20L6 19L7 19L7 18L6 18L6 17L7 17L7 16L5 16L5 17L4 17L4 16L3 16L3 18L2 18L2 22L3 22L3 23L0 23L0 25L3 25L3 24L4 24L4 23L5 23L5 24L6 24L6 25L9 25L9 26L8 26L8 27L7 27L7 26L5 26L5 27L3 27L3 26L2 26L2 30L0 30L0 31L1 31L1 32L2 32L2 31L3 31L3 32L4 32L4 35L3 35L3 34L2 34L2 33L0 33L0 34L1 34L1 38L0 38L0 40L1 40L1 39L2 39L2 40L4 40L4 41L1 41L1 42L0 42L0 43L1 43L1 44L0 44L0 49L1 49L1 51L0 51L0 52L1 52L1 54L0 54L0 55L1 55L1 58L0 58L0 61L1 61L1 58L2 58L2 59L3 59L3 58L4 58L4 59L7 59L7 58L5 58L5 57L8 57L8 58L9 58L9 59L10 59L10 58L11 58L11 59L12 59L12 58L14 58L14 59L13 59L13 60L14 60L14 61L13 61L13 63L12 63L12 62L11 62L11 61L10 61L10 60L9 60L9 61L8 61L8 60L6 60L6 61L8 61L8 62L9 62L9 63L8 63L8 65L9 65L9 63L10 63L10 66L12 66L12 67L10 67L10 68L9 68L9 67L8 67L8 69L10 69L10 68L13 68L13 66L12 66L12 65L11 65L11 63L12 63L12 64L13 64L13 63L15 63L15 64L14 64L14 69L20 69L20 68L18 68L18 67L20 67L20 66L22 66L22 67L21 67L21 69L22 69L22 67L23 67L23 69L24 69L24 68L25 68L25 69L29 69L29 67L28 67L28 64L29 64L29 66L30 66L30 67L31 67L31 65L32 65L32 67L33 67L33 68L32 68L32 69L34 69L34 68L35 68L35 69L37 69L37 68L38 68L38 66L39 66L39 65L40 65L40 66L41 66L41 67L40 67L40 68L39 68L39 69L40 69L40 68L41 68L41 67L43 67L43 68L42 68L42 69L43 69L43 68L44 68L44 69L46 69L46 68L44 68L44 67L46 67L46 65L49 65L49 64L51 64L51 65L50 65L50 66L51 66L51 67L52 67L52 68L51 68L51 69L52 69L52 68L53 68L53 69L54 69L54 67L55 67L55 68L56 68L56 69L58 69L58 68L59 68L59 67L58 67L58 68L57 68L57 67L56 67L56 66L58 66L58 65L60 65L60 66L62 66L62 67L61 67L61 68L60 68L60 69L61 69L61 68L62 68L62 69L63 69L63 68L62 68L62 67L63 67L63 66L64 66L64 69L65 69L65 67L67 67L67 66L69 66L69 64L68 64L68 62L69 62L69 59L68 59L68 58L69 58L69 56L68 56L68 54L67 54L67 56L65 56L65 57L68 57L68 58L67 58L67 59L68 59L68 62L67 62L67 60L65 60L65 58L64 58L64 57L63 57L63 56L64 56L64 55L66 55L66 54L64 54L64 53L63 53L63 52L65 52L65 53L66 53L66 50L64 50L64 51L59 51L59 50L58 50L58 49L57 49L57 46L58 46L58 48L59 48L59 47L60 47L60 48L61 48L61 49L62 49L62 48L63 48L63 49L65 49L65 47L66 47L66 46L67 46L67 47L68 47L68 51L67 51L67 53L69 53L69 52L68 52L68 51L69 51L69 47L68 47L68 45L69 45L69 44L68 44L68 45L67 45L67 44L64 44L64 45L63 45L63 44L61 44L61 43L62 43L62 42L64 42L64 43L66 43L66 42L64 42L64 41L65 41L65 40L64 40L64 39L67 39L67 40L66 40L66 41L67 41L67 40L68 40L68 41L69 41L69 39L68 39L68 38L69 38L69 36L68 36L68 37L65 37L65 34L67 34L67 35L68 35L68 33L69 33L69 32L68 32L68 33L66 33L66 32L63 32L63 31L68 31L68 30L69 30L69 29L68 29L68 28L69 28L69 27L68 27L68 26L69 26L69 25L67 25L67 24L68 24L68 22L69 22L69 20L68 20L68 18L67 18L67 17L68 17L68 16L69 16L69 15L68 15L68 13L67 13L67 12L66 12L66 13L67 13L67 15L68 15L68 16L66 16L66 17L64 17L64 16L65 16L65 15L64 15L64 13L62 13L62 12L63 12L63 10L64 10L64 11L66 11L66 10L67 10L67 11L68 11L68 12L69 12L69 11L68 11L68 9L69 9L69 8L65 8L65 10L64 10L64 8L63 8L63 9L62 9L62 11L61 11L61 8L60 8L60 7L61 7L61 6L60 6L60 7L59 7L59 4L58 4L58 8L59 8L59 14L58 14L58 13L57 13L57 12L58 12L58 9L57 9L57 4L56 4L56 3L59 3L59 2L57 2L57 1L55 1L55 0L50 0L50 1L48 1L48 0L47 0L47 1L46 1L46 0L45 0L45 1L44 1L44 0L40 0L40 7L39 7L39 4L38 4L38 3L39 3L39 2L38 2L38 1L39 1L39 0L38 0L38 1L37 1L37 0L36 0L36 1L34 1L34 4L32 4L32 5L31 5L31 4L30 4L30 5L29 5L29 6L28 6L28 4L29 4L29 2L28 2L28 3L27 3L27 5L26 5L26 2L27 2L27 1L26 1L26 0L22 0L22 4L21 4L21 3L19 3L19 5L17 5L17 3L18 3L18 2L17 2L17 3L16 3L16 2L15 2L15 1L16 1L16 0L13 0L13 1L14 1L14 2L11 2L11 0L10 0L10 1L9 1L9 0ZM17 0L17 1L20 1L20 2L21 2L21 0ZM29 0L29 1L30 1L30 3L31 3L31 1L30 1L30 0ZM32 0L32 1L33 1L33 0ZM58 0L58 1L61 1L61 0ZM23 1L23 2L24 2L24 3L23 3L23 4L24 4L24 3L25 3L25 2L26 2L26 1ZM41 1L41 2L42 2L42 3L41 3L41 4L43 4L43 5L41 5L41 7L42 7L42 8L40 8L40 9L44 9L44 8L45 8L45 9L46 9L46 10L45 10L45 11L46 11L46 14L45 14L45 15L46 15L46 14L47 14L47 11L46 11L46 10L47 10L47 8L49 8L49 11L48 11L48 12L49 12L49 11L50 11L50 9L51 9L51 12L50 12L50 13L48 13L48 14L50 14L50 15L48 15L48 16L49 16L49 17L48 17L48 19L47 19L47 20L46 20L46 18L47 18L47 16L45 16L45 17L46 17L46 18L45 18L45 19L44 19L44 18L41 18L41 17L42 17L42 16L40 16L40 15L43 15L43 17L44 17L44 14L41 14L41 13L44 13L44 12L43 12L43 11L44 11L44 10L42 10L42 12L41 12L41 11L40 11L40 15L39 15L39 14L38 14L38 13L37 13L37 11L38 11L38 12L39 12L39 11L38 11L38 9L39 9L39 7L38 7L38 6L37 6L37 7L38 7L38 9L37 9L37 10L36 10L36 9L35 9L35 11L36 11L36 14L35 14L35 12L34 12L34 11L33 11L33 10L34 10L34 9L33 9L33 10L32 10L32 6L31 6L31 5L30 5L30 6L29 6L29 7L28 7L28 6L27 6L27 7L28 7L28 8L30 8L30 6L31 6L31 9L28 9L28 10L27 10L27 11L26 11L26 6L25 6L25 5L24 5L24 6L23 6L23 5L21 5L21 7L20 7L20 5L19 5L19 7L20 7L20 8L19 8L19 10L18 10L18 9L17 9L17 10L18 10L18 11L14 11L14 12L13 12L13 11L12 11L12 9L11 9L11 10L10 10L10 13L11 13L11 11L12 11L12 13L14 13L14 12L15 12L15 13L17 13L17 15L18 15L18 13L17 13L17 12L18 12L18 11L19 11L19 15L20 15L20 16L21 16L21 14L20 14L20 11L21 11L21 12L22 12L22 13L24 13L24 11L23 11L23 9L24 9L24 10L25 10L25 11L26 11L26 12L27 12L27 11L28 11L28 14L27 14L27 13L25 13L25 14L26 14L26 16L27 16L27 17L25 17L25 15L24 15L24 14L23 14L23 15L22 15L22 17L23 17L23 18L22 18L22 22L20 22L20 21L18 21L18 23L16 23L16 22L17 22L17 20L18 20L18 19L17 19L17 18L18 18L18 17L19 17L19 19L20 19L20 18L21 18L21 17L19 17L19 16L18 16L18 17L17 17L17 16L16 16L16 14L15 14L15 16L13 16L13 17L12 17L12 19L11 19L11 20L10 20L10 21L8 21L8 24L10 24L10 23L13 23L13 24L14 24L14 25L18 25L18 26L16 26L16 27L15 27L15 28L14 28L14 29L12 29L12 31L13 31L13 32L11 32L11 29L10 29L10 31L9 31L9 30L8 30L8 31L9 31L9 33L12 33L12 34L11 34L11 37L8 37L8 38L7 38L7 37L6 37L6 38L5 38L5 39L4 39L4 38L3 38L3 37L4 37L4 36L3 36L3 35L2 35L2 36L3 36L3 37L2 37L2 39L4 39L4 40L5 40L5 41L6 41L6 42L4 42L4 43L3 43L3 42L2 42L2 44L4 44L4 43L6 43L6 44L5 44L5 45L4 45L4 46L3 46L3 45L2 45L2 47L1 47L1 49L2 49L2 50L3 50L3 51L2 51L2 53L3 53L3 51L4 51L4 52L5 52L5 49L6 49L6 50L10 50L10 51L12 51L12 52L11 52L11 53L12 53L12 55L14 55L14 56L11 56L11 55L10 55L10 54L9 54L9 51L8 51L8 52L7 52L7 51L6 51L6 52L7 52L7 53L5 53L5 54L3 54L3 56L2 56L2 58L3 58L3 57L4 57L4 56L5 56L5 54L7 54L7 55L6 55L6 56L10 56L10 57L11 57L11 58L12 58L12 57L14 57L14 58L15 58L15 57L17 57L17 56L20 56L20 55L19 55L19 54L20 54L20 53L19 53L19 54L18 54L18 53L16 53L16 52L19 52L19 51L20 51L20 50L21 50L21 51L22 51L22 50L21 50L21 49L19 49L19 48L18 48L18 49L17 49L17 47L18 47L18 46L17 46L17 44L18 44L18 43L20 43L20 44L19 44L19 47L20 47L20 44L22 44L22 47L21 47L21 48L22 48L22 49L24 49L24 47L25 47L25 48L27 48L27 50L26 50L26 51L25 51L25 50L24 50L24 51L23 51L23 52L22 52L22 53L21 53L21 55L22 55L22 56L23 56L23 54L24 54L24 56L25 56L25 58L24 58L24 57L21 57L21 58L20 58L20 57L19 57L19 58L20 58L20 60L21 60L21 59L22 59L22 58L23 58L23 59L24 59L24 60L22 60L22 61L21 61L21 62L22 62L22 63L21 63L21 64L22 64L22 66L23 66L23 65L27 65L27 64L26 64L26 63L24 63L24 64L22 64L22 63L23 63L23 62L22 62L22 61L25 61L25 62L26 62L26 58L27 58L27 57L28 57L28 58L29 58L29 59L30 59L30 58L31 58L31 59L32 59L32 60L33 60L33 59L34 59L34 60L37 60L37 62L38 62L38 65L37 65L37 66L36 66L36 65L34 65L34 67L35 67L35 66L36 66L36 68L37 68L37 66L38 66L38 65L39 65L39 64L40 64L40 65L41 65L41 63L40 63L40 62L38 62L38 61L39 61L39 59L37 59L37 58L35 58L35 56L37 56L37 57L38 57L38 56L39 56L39 54L40 54L40 57L39 57L39 58L40 58L40 59L41 59L41 60L40 60L40 61L44 61L44 62L42 62L42 63L43 63L43 67L44 67L44 62L45 62L45 63L48 63L48 62L49 62L49 63L51 63L51 64L52 64L52 65L51 65L51 66L52 66L52 65L53 65L53 67L54 67L54 65L55 65L55 63L56 63L56 62L57 62L57 61L58 61L58 63L57 63L57 65L58 65L58 63L60 63L60 59L61 59L61 60L62 60L62 59L63 59L63 60L64 60L64 59L63 59L63 57L62 57L62 56L61 56L61 55L59 55L59 57L58 57L58 56L57 56L57 55L58 55L58 54L62 54L62 55L64 55L64 54L62 54L62 53L60 53L60 52L59 52L59 53L58 53L58 52L57 52L57 53L56 53L56 52L55 52L55 54L56 54L56 55L55 55L55 56L54 56L54 57L56 57L56 58L55 58L55 59L54 59L54 58L53 58L53 59L50 59L50 60L49 60L49 61L47 61L47 60L48 60L48 58L49 58L49 57L50 57L50 56L52 56L52 57L51 57L51 58L52 58L52 57L53 57L53 55L54 55L54 53L53 53L53 51L52 51L52 55L51 55L51 54L50 54L50 53L51 53L51 51L50 51L50 49L49 49L49 51L47 51L47 50L48 50L48 49L47 49L47 48L46 48L46 47L47 47L47 46L50 46L50 45L51 45L51 42L52 42L52 46L51 46L51 48L52 48L52 49L53 49L53 48L54 48L54 47L55 47L55 46L57 46L57 45L56 45L56 44L58 44L58 43L59 43L59 42L60 42L60 43L61 43L61 42L62 42L62 41L63 41L63 39L64 39L64 38L65 38L65 37L62 37L62 39L61 39L61 40L59 40L59 39L58 39L58 38L59 38L59 37L60 37L60 38L61 38L61 37L60 37L60 36L58 36L58 35L57 35L57 34L55 34L55 35L53 35L53 36L52 36L52 35L51 35L51 36L50 36L50 37L48 37L48 40L49 40L49 38L50 38L50 41L47 41L47 37L46 37L46 34L49 34L49 35L50 35L50 33L46 33L46 34L45 34L45 33L44 33L44 31L45 31L45 32L46 32L46 31L47 31L47 32L50 32L50 29L49 29L49 30L48 30L48 29L46 29L46 28L45 28L45 29L46 29L46 31L45 31L45 30L44 30L44 28L43 28L43 27L41 27L41 25L42 25L42 24L40 24L40 23L42 23L42 20L43 20L43 22L44 22L44 23L43 23L43 25L44 25L44 24L45 24L45 23L46 23L46 22L47 22L47 25L46 25L46 26L47 26L47 27L49 27L49 26L50 26L50 25L51 25L51 27L50 27L50 28L51 28L51 27L52 27L52 26L53 26L53 27L54 27L54 29L56 29L56 27L57 27L57 28L61 28L61 27L62 27L62 28L64 28L64 29L63 29L63 30L64 30L64 29L65 29L65 30L67 30L67 28L68 28L68 27L65 27L65 28L64 28L64 27L63 27L63 26L62 26L62 25L61 25L61 26L60 26L60 27L57 27L57 25L56 25L56 24L57 24L57 23L58 23L58 24L59 24L59 25L58 25L58 26L59 26L59 25L60 25L60 24L62 24L62 23L63 23L63 24L64 24L64 25L65 25L65 26L67 26L67 25L65 25L65 24L67 24L67 22L68 22L68 20L67 20L67 18L65 18L65 20L64 20L64 21L63 21L63 22L62 22L62 21L61 21L61 20L63 20L63 19L64 19L64 17L63 17L63 19L62 19L62 15L63 15L63 14L62 14L62 13L61 13L61 11L60 11L60 13L61 13L61 14L59 14L59 15L58 15L58 16L57 16L57 17L56 17L56 15L57 15L57 13L55 13L55 14L56 14L56 15L55 15L55 19L57 19L57 21L56 21L56 22L54 22L54 23L53 23L53 22L52 22L52 21L53 21L53 20L54 20L54 18L53 18L53 17L54 17L54 16L52 16L52 14L53 14L53 15L54 15L54 14L53 14L53 13L54 13L54 11L55 11L55 10L54 10L54 11L53 11L53 12L52 12L52 10L53 10L53 8L52 8L52 9L51 9L51 7L52 7L52 6L51 6L51 7L50 7L50 3L51 3L51 4L52 4L52 5L53 5L53 7L54 7L54 5L53 5L53 4L55 4L55 5L56 5L56 4L55 4L55 3L56 3L56 2L54 2L54 1L50 1L50 2L45 2L45 3L43 3L43 2L42 2L42 1ZM14 2L14 3L15 3L15 4L16 4L16 3L15 3L15 2ZM51 2L51 3L52 3L52 4L53 4L53 3L54 3L54 2ZM36 3L36 4L37 4L37 5L38 5L38 4L37 4L37 3ZM46 3L46 4L44 4L44 5L46 5L46 4L47 4L47 3ZM60 3L60 5L61 5L61 3ZM48 4L48 5L47 5L47 6L46 6L46 7L45 7L45 6L44 6L44 7L45 7L45 8L47 8L47 6L48 6L48 7L49 7L49 8L50 8L50 7L49 7L49 4ZM8 5L8 7L9 7L9 5ZM33 5L33 8L36 8L36 5ZM17 6L17 7L18 7L18 6ZM22 6L22 8L24 8L24 9L25 9L25 8L24 8L24 7L25 7L25 6L24 6L24 7L23 7L23 6ZM34 6L34 7L35 7L35 6ZM42 6L42 7L43 7L43 6ZM55 6L55 8L54 8L54 9L56 9L56 11L57 11L57 9L56 9L56 6ZM0 8L0 9L2 9L2 8ZM20 8L20 10L21 10L21 11L22 11L22 12L23 12L23 11L22 11L22 9L21 9L21 8ZM5 10L5 11L6 11L6 10ZM30 10L30 11L31 11L31 12L29 12L29 13L31 13L31 15L29 15L29 14L28 14L28 15L27 15L27 16L28 16L28 15L29 15L29 19L27 19L27 18L28 18L28 17L27 17L27 18L25 18L25 17L24 17L24 16L23 16L23 17L24 17L24 18L23 18L23 22L24 22L24 23L23 23L23 24L22 24L22 23L21 23L21 24L20 24L20 23L18 23L18 25L19 25L19 24L20 24L20 26L21 26L21 25L24 25L24 26L25 26L25 27L26 27L26 29L25 29L25 28L24 28L24 27L23 27L23 26L22 26L22 27L21 27L21 28L20 28L20 30L21 30L21 32L20 32L20 33L19 33L19 32L18 32L18 33L17 33L17 35L20 35L20 34L21 34L21 36L20 36L20 38L16 38L16 37L19 37L19 36L16 36L16 32L17 32L17 31L18 31L18 30L19 30L19 28L17 28L17 29L18 29L18 30L17 30L17 31L16 31L16 32L15 32L15 35L14 35L14 36L16 36L16 37L14 37L14 39L13 39L13 37L11 37L11 40L12 40L12 39L13 39L13 41L11 41L11 42L12 42L12 43L11 43L11 44L12 44L12 43L14 43L14 46L15 46L15 48L14 48L14 49L13 49L13 50L14 50L14 49L15 49L15 50L16 50L16 51L17 51L17 50L16 50L16 49L15 49L15 48L16 48L16 44L17 44L17 42L18 42L18 41L19 41L19 40L21 40L21 39L22 39L22 40L24 40L24 41L23 41L23 42L22 42L22 41L20 41L20 43L21 43L21 42L22 42L22 43L24 43L24 45L23 45L23 46L25 46L25 47L26 47L26 45L30 45L30 46L29 46L29 47L28 47L28 49L32 49L32 51L33 51L33 52L32 52L32 53L33 53L33 54L32 54L32 55L31 55L31 54L28 54L28 53L31 53L31 52L29 52L29 51L31 51L31 50L28 50L28 51L26 51L26 54L25 54L25 53L24 53L24 52L23 52L23 53L24 53L24 54L25 54L25 56L26 56L26 57L27 57L27 56L28 56L28 57L31 57L31 56L32 56L32 57L33 57L33 58L34 58L34 56L35 56L35 55L37 55L37 54L34 54L34 52L35 52L35 50L36 50L36 49L38 49L38 50L39 50L39 49L40 49L40 51L38 51L38 52L37 52L37 53L38 53L38 54L39 54L39 53L40 53L40 54L41 54L41 57L40 57L40 58L41 58L41 59L42 59L42 60L44 60L44 61L45 61L45 62L46 62L46 59L47 59L47 58L46 58L46 57L49 57L49 56L50 56L50 54L46 54L46 51L45 51L45 50L44 50L44 49L45 49L45 48L44 48L44 46L43 46L43 44L44 44L44 45L46 45L46 44L44 44L44 43L43 43L43 40L44 40L44 41L45 41L45 42L46 42L46 37L45 37L45 34L44 34L44 33L41 33L41 34L40 34L40 32L41 32L41 30L42 30L42 31L44 31L44 30L43 30L43 28L41 28L41 27L40 27L40 24L39 24L39 23L40 23L40 20L39 20L39 19L40 19L40 18L39 18L39 17L40 17L40 16L39 16L39 15L38 15L38 14L37 14L37 15L38 15L38 16L39 16L39 17L38 17L38 19L34 19L34 20L32 20L32 19L33 19L33 18L34 18L34 17L33 17L33 16L32 16L32 13L34 13L34 12L32 12L32 11L31 11L31 10ZM3 12L3 13L4 13L4 12ZM31 12L31 13L32 13L32 12ZM51 12L51 13L50 13L50 14L52 14L52 12ZM11 14L11 16L10 16L10 17L11 17L11 16L12 16L12 15L14 15L14 14ZM1 15L1 17L0 17L0 18L1 18L1 17L2 17L2 15ZM34 15L34 16L35 16L35 18L36 18L36 16L35 16L35 15ZM15 16L15 17L16 17L16 18L13 18L13 19L16 19L16 20L15 20L15 22L13 22L13 23L14 23L14 24L16 24L16 23L15 23L15 22L16 22L16 20L17 20L17 19L16 19L16 18L17 18L17 17L16 17L16 16ZM51 16L51 17L50 17L50 18L51 18L51 20L50 20L50 19L48 19L48 20L47 20L47 22L48 22L48 25L47 25L47 26L49 26L49 24L50 24L50 23L49 23L49 20L50 20L50 22L51 22L51 23L52 23L52 24L51 24L51 25L52 25L52 24L53 24L53 26L56 26L56 25L54 25L54 24L55 24L55 23L54 23L54 24L53 24L53 23L52 23L52 22L51 22L51 21L52 21L52 16ZM59 16L59 18L58 18L58 17L57 17L57 18L58 18L58 21L60 21L60 22L59 22L59 23L60 23L60 22L61 22L61 21L60 21L60 20L61 20L61 16ZM3 18L3 19L4 19L4 18ZM5 18L5 19L6 19L6 18ZM31 18L31 19L29 19L29 20L31 20L31 19L32 19L32 18ZM24 19L24 20L25 20L25 21L26 21L26 22L25 22L25 23L26 23L26 24L25 24L25 25L26 25L26 27L27 27L27 28L28 28L28 30L25 30L25 31L28 31L28 32L29 32L29 31L30 31L30 32L31 32L31 30L30 30L30 29L29 29L29 28L30 28L30 27L29 27L29 28L28 28L28 26L30 26L30 25L28 25L28 24L31 24L31 27L32 27L32 28L31 28L31 29L33 29L33 30L32 30L32 32L33 32L33 30L34 30L34 31L35 31L35 32L36 32L36 31L37 31L37 33L38 33L38 32L39 32L39 31L40 31L40 30L41 30L41 28L40 28L40 27L38 27L38 28L37 28L37 26L36 26L36 25L35 25L35 24L34 24L34 23L36 23L36 24L37 24L37 25L39 25L39 24L38 24L38 23L37 23L37 22L38 22L38 20L37 20L37 22L34 22L34 21L33 21L33 22L32 22L32 21L30 21L30 22L32 22L32 24L31 24L31 23L28 23L28 22L29 22L29 21L28 21L28 22L27 22L27 21L26 21L26 19ZM3 20L3 22L4 22L4 20ZM11 20L11 22L12 22L12 21L13 21L13 20ZM35 20L35 21L36 21L36 20ZM44 20L44 21L45 21L45 22L46 22L46 21L45 21L45 20ZM66 20L66 21L67 21L67 20ZM0 21L0 22L1 22L1 21ZM6 21L6 22L5 22L5 23L6 23L6 24L7 24L7 23L6 23L6 22L7 22L7 21ZM64 21L64 22L63 22L63 23L64 23L64 24L65 24L65 23L66 23L66 22L65 22L65 21ZM26 22L26 23L27 23L27 24L26 24L26 25L27 25L27 26L28 26L28 25L27 25L27 24L28 24L28 23L27 23L27 22ZM33 22L33 23L34 23L34 22ZM56 22L56 23L57 23L57 22ZM64 22L64 23L65 23L65 22ZM32 24L32 27L34 27L34 28L35 28L35 25L34 25L34 24ZM12 25L12 26L9 26L9 27L8 27L8 28L7 28L7 27L5 27L5 30L7 30L7 29L8 29L8 28L9 28L9 27L10 27L10 28L12 28L12 27L14 27L14 26L13 26L13 25ZM33 25L33 26L34 26L34 25ZM0 26L0 28L1 28L1 26ZM18 26L18 27L19 27L19 26ZM44 26L44 27L45 27L45 26ZM3 28L3 31L4 31L4 28ZM6 28L6 29L7 29L7 28ZM15 28L15 30L16 30L16 28ZM22 28L22 33L21 33L21 34L22 34L22 38L23 38L23 39L25 39L25 41L24 41L24 42L25 42L25 43L26 43L26 44L25 44L25 45L26 45L26 44L27 44L27 43L26 43L26 42L27 42L27 41L26 41L26 39L25 39L25 38L26 38L26 36L28 36L28 38L30 38L30 37L29 37L29 36L30 36L30 35L31 35L31 36L32 36L32 34L30 34L30 33L27 33L27 34L26 34L26 35L25 35L25 34L24 34L24 35L25 35L25 36L23 36L23 32L24 32L24 30L23 30L23 28ZM38 28L38 30L37 30L37 31L38 31L38 30L39 30L39 29L40 29L40 28ZM52 28L52 30L51 30L51 33L54 33L54 32L55 32L55 33L56 33L56 32L57 32L57 33L58 33L58 34L59 34L59 35L60 35L60 34L59 34L59 33L60 33L60 32L59 32L59 31L58 31L58 30L59 30L59 29L58 29L58 30L56 30L56 31L55 31L55 30L53 30L53 28ZM34 29L34 30L35 30L35 29ZM61 29L61 31L62 31L62 29ZM13 30L13 31L14 31L14 30ZM28 30L28 31L29 31L29 30ZM52 30L52 31L53 31L53 32L54 32L54 31L53 31L53 30ZM5 31L5 32L7 32L7 31ZM57 31L57 32L58 32L58 33L59 33L59 32L58 32L58 31ZM25 32L25 33L26 33L26 32ZM5 33L5 36L8 36L8 33ZM13 33L13 34L12 34L12 35L13 35L13 34L14 34L14 33ZM33 33L33 36L36 36L36 33ZM61 33L61 36L64 36L64 33ZM6 34L6 35L7 35L7 34ZM9 34L9 35L10 35L10 34ZM28 34L28 36L29 36L29 35L30 35L30 34ZM34 34L34 35L35 35L35 34ZM39 34L39 35L40 35L40 34ZM43 34L43 35L42 35L42 36L40 36L40 37L43 37L43 38L40 38L40 41L41 41L41 42L39 42L39 43L38 43L38 40L39 40L39 38L38 38L38 35L37 35L37 38L36 38L36 37L35 37L35 40L34 40L34 41L33 41L33 37L32 37L32 38L31 38L31 39L28 39L28 43L31 43L31 47L30 47L30 48L31 48L31 47L32 47L32 46L33 46L33 47L34 47L34 48L32 48L32 49L35 49L35 48L40 48L40 49L42 49L42 47L43 47L43 46L42 46L42 47L41 47L41 48L40 48L40 46L41 46L41 43L42 43L42 40L43 40L43 39L44 39L44 40L45 40L45 39L44 39L44 36L43 36L43 35L44 35L44 34ZM62 34L62 35L63 35L63 34ZM55 35L55 36L54 36L54 37L52 37L52 36L51 36L51 37L50 37L50 38L51 38L51 39L52 39L52 38L55 38L55 36L56 36L56 39L53 39L53 40L54 40L54 41L53 41L53 43L55 43L55 44L56 44L56 43L57 43L57 42L58 42L58 41L59 41L59 40L58 40L58 41L57 41L57 38L58 38L58 36L56 36L56 35ZM23 37L23 38L25 38L25 37ZM51 37L51 38L52 38L52 37ZM6 38L6 39L5 39L5 40L6 40L6 41L7 41L7 42L6 42L6 43L7 43L7 44L6 44L6 45L7 45L7 46L6 46L6 47L5 47L5 46L4 46L4 48L3 48L3 49L4 49L4 48L6 48L6 49L8 49L8 48L9 48L9 49L11 49L11 50L12 50L12 49L11 49L11 47L10 47L10 46L12 46L12 48L13 48L13 46L12 46L12 45L10 45L10 46L9 46L9 47L7 47L7 46L8 46L8 45L9 45L9 44L10 44L10 39L9 39L9 42L8 42L8 39L7 39L7 38ZM15 38L15 39L16 39L16 38ZM20 38L20 39L21 39L21 38ZM37 38L37 40L38 40L38 38ZM6 39L6 40L7 40L7 39ZM17 39L17 40L16 40L16 41L14 41L14 43L16 43L16 42L17 42L17 41L18 41L18 40L19 40L19 39ZM31 39L31 40L29 40L29 41L32 41L32 45L34 45L34 43L35 43L35 41L36 41L36 40L35 40L35 41L34 41L34 43L33 43L33 41L32 41L32 39ZM51 40L51 41L50 41L50 42L49 42L49 43L47 43L47 45L49 45L49 44L50 44L50 42L51 42L51 41L52 41L52 40ZM25 41L25 42L26 42L26 41ZM60 41L60 42L61 42L61 41ZM36 42L36 43L37 43L37 42ZM67 42L67 43L68 43L68 42ZM37 44L37 45L35 45L35 47L39 47L39 46L40 46L40 45L38 45L38 44ZM59 44L59 45L58 45L58 46L60 46L60 47L61 47L61 48L62 48L62 47L63 47L63 45L62 45L62 47L61 47L61 46L60 46L60 45L61 45L61 44ZM37 45L37 46L38 46L38 45ZM53 45L53 46L52 46L52 48L53 48L53 46L55 46L55 45ZM64 45L64 47L65 47L65 46L66 46L66 45ZM6 47L6 48L7 48L7 47ZM9 47L9 48L10 48L10 47ZM22 47L22 48L23 48L23 47ZM49 47L49 48L50 48L50 47ZM43 48L43 49L44 49L44 48ZM55 48L55 51L57 51L57 49L56 49L56 48ZM18 49L18 50L19 50L19 49ZM42 50L42 52L41 52L41 51L40 51L40 53L43 53L43 54L42 54L42 57L44 57L44 56L43 56L43 54L44 54L44 55L45 55L45 53L44 53L44 52L45 52L45 51L44 51L44 52L43 52L43 50ZM49 51L49 52L47 52L47 53L50 53L50 51ZM12 52L12 53L13 53L13 54L14 54L14 55L15 55L15 56L14 56L14 57L15 57L15 56L17 56L17 55L18 55L18 54L16 54L16 53L15 53L15 52L14 52L14 53L13 53L13 52ZM27 52L27 53L28 53L28 52ZM38 52L38 53L39 53L39 52ZM7 53L7 54L8 54L8 53ZM57 53L57 54L58 54L58 53ZM1 54L1 55L2 55L2 54ZM26 54L26 55L28 55L28 54ZM29 55L29 56L31 56L31 55ZM32 55L32 56L34 56L34 55ZM47 55L47 56L49 56L49 55ZM56 56L56 57L57 57L57 58L56 58L56 59L57 59L57 58L58 58L58 61L59 61L59 59L60 59L60 58L61 58L61 59L62 59L62 58L61 58L61 57L59 57L59 58L58 58L58 57L57 57L57 56ZM16 58L16 59L14 59L14 60L16 60L16 63L17 63L17 65L16 65L16 64L15 64L15 65L16 65L16 67L15 67L15 68L16 68L16 67L17 67L17 65L18 65L18 64L19 64L19 65L20 65L20 63L19 63L19 62L20 62L20 61L18 61L18 60L19 60L19 59L17 59L17 58ZM42 58L42 59L43 59L43 58ZM44 58L44 60L45 60L45 58ZM27 59L27 60L28 60L28 63L30 63L30 64L31 64L31 63L32 63L32 61L29 61L29 60L28 60L28 59ZM3 60L3 61L5 61L5 60ZM56 60L56 61L57 61L57 60ZM9 61L9 62L10 62L10 61ZM14 61L14 62L15 62L15 61ZM17 61L17 63L18 63L18 61ZM33 61L33 64L36 64L36 61ZM50 61L50 62L51 62L51 63L52 63L52 64L53 64L53 65L54 65L54 63L55 63L55 61L53 61L53 63L52 63L52 62L51 62L51 61ZM61 61L61 64L64 64L64 61ZM34 62L34 63L35 63L35 62ZM62 62L62 63L63 63L63 62ZM66 62L66 63L65 63L65 66L66 66L66 65L67 65L67 62ZM45 64L45 65L46 65L46 64ZM26 66L26 67L25 67L25 68L28 68L28 67L27 67L27 66ZM47 66L47 67L48 67L48 66ZM49 67L49 68L47 68L47 69L50 69L50 67ZM30 68L30 69L31 69L31 68ZM68 68L68 69L69 69L69 68ZM0 0L0 7L7 7L7 0ZM1 1L1 6L6 6L6 1ZM2 2L2 5L5 5L5 2ZM62 0L62 7L69 7L69 0ZM63 1L63 6L68 6L68 1ZM64 2L64 5L67 5L67 2ZM0 62L0 69L7 69L7 62ZM1 63L1 68L6 68L6 63ZM2 64L2 67L5 67L5 64Z" fill="#000000"/></g></g></svg>
