<?xml version="1.0" encoding="UTF-8"?>
<svg xmlns="http://www.w3.org/2000/svg" version="1.1" width="300" height="300" viewBox="0 0 300 300"><rect x="0" y="0" width="300" height="300" fill="#ffffff"/><g transform="scale(4.348)"><g transform="translate(0,0)"><path fill-rule="evenodd" d="M9 0L9 1L8 1L8 2L9 2L9 1L10 1L10 3L8 3L8 4L9 4L9 5L8 5L8 7L9 7L9 8L6 8L6 9L7 9L7 10L4 10L4 9L5 9L5 8L0 8L0 10L1 10L1 9L3 9L3 10L2 10L2 12L3 12L3 13L1 13L1 12L0 12L0 13L1 13L1 14L0 14L0 17L1 17L1 19L0 19L0 21L2 21L2 22L0 22L0 23L7 23L7 24L4 24L4 25L5 25L5 27L4 27L4 30L5 30L5 31L4 31L4 35L3 35L3 36L4 36L4 37L3 37L3 38L2 38L2 36L1 36L1 37L0 37L0 39L3 39L3 41L2 41L2 40L0 40L0 41L1 41L1 42L0 42L0 43L4 43L4 44L3 44L3 45L4 45L4 46L3 46L3 47L2 47L2 48L1 48L1 49L0 49L0 50L2 50L2 48L3 48L3 49L4 49L4 48L5 48L5 51L4 51L4 50L3 50L3 51L1 51L1 52L0 52L0 55L2 55L2 59L3 59L3 58L4 58L4 59L8 59L8 60L6 60L6 61L8 61L8 63L9 63L9 62L11 62L11 61L14 61L14 62L12 62L12 64L13 64L13 63L15 63L15 60L12 60L12 58L11 58L11 57L10 57L10 56L9 56L9 55L10 55L10 54L12 54L12 55L11 55L11 56L12 56L12 57L13 57L13 56L12 56L12 55L14 55L14 57L16 57L16 58L14 58L14 59L16 59L16 60L18 60L18 61L17 61L17 62L18 62L18 63L17 63L17 64L15 64L15 65L17 65L17 66L18 66L18 67L17 67L17 69L22 69L22 68L19 68L19 67L20 67L20 66L19 66L19 65L20 65L20 64L22 64L22 63L23 63L23 65L21 65L21 67L23 67L23 68L25 68L25 69L26 69L26 68L25 68L25 67L26 67L26 66L25 66L25 65L28 65L28 66L27 66L27 67L28 67L28 68L27 68L27 69L28 69L28 68L29 68L29 69L32 69L32 68L33 68L33 69L34 69L34 68L33 68L33 67L34 67L34 66L33 66L33 65L37 65L37 66L35 66L35 68L36 68L36 69L38 69L38 68L37 68L37 66L38 66L38 67L39 67L39 68L41 68L41 69L44 69L44 68L47 68L47 69L49 69L49 66L50 66L50 69L51 69L51 67L52 67L52 66L50 66L50 65L51 65L51 64L50 64L50 65L49 65L49 64L48 64L48 63L47 63L47 66L46 66L46 64L45 64L45 63L46 63L46 62L45 62L45 61L46 61L46 60L47 60L47 62L50 62L50 61L49 61L49 60L53 60L53 59L54 59L54 60L55 60L55 61L53 61L53 62L52 62L52 61L51 61L51 63L54 63L54 64L53 64L53 65L54 65L54 66L53 66L53 68L54 68L54 69L56 69L56 68L55 68L55 67L56 67L56 66L57 66L57 67L58 67L58 66L57 66L57 65L58 65L58 64L60 64L60 65L59 65L59 67L60 67L60 68L59 68L59 69L60 69L60 68L61 68L61 69L62 69L62 67L63 67L63 66L62 66L62 67L61 67L61 65L64 65L64 66L65 66L65 68L64 68L64 69L68 69L68 68L67 68L67 66L66 66L66 65L65 65L65 64L67 64L67 62L69 62L69 61L67 61L67 59L68 59L68 60L69 60L69 59L68 59L68 56L69 56L69 55L68 55L68 54L69 54L69 53L68 53L68 54L66 54L66 53L65 53L65 54L66 54L66 55L62 55L62 53L64 53L64 52L68 52L68 50L69 50L69 49L67 49L67 50L66 50L66 49L65 49L65 50L63 50L63 49L64 49L64 48L63 48L63 47L65 47L65 48L69 48L69 47L68 47L68 41L69 41L69 40L67 40L67 39L68 39L68 38L67 38L67 39L61 39L61 41L60 41L60 42L61 42L61 43L62 43L62 44L60 44L60 45L59 45L59 44L58 44L58 45L59 45L59 46L60 46L60 47L62 47L62 48L63 48L63 49L62 49L62 50L61 50L61 48L60 48L60 49L59 49L59 50L56 50L56 49L54 49L54 48L57 48L57 49L58 49L58 48L59 48L59 47L58 47L58 48L57 48L57 46L56 46L56 44L57 44L57 43L56 43L56 44L55 44L55 42L57 42L57 41L58 41L58 40L59 40L59 39L57 39L57 41L56 41L56 40L54 40L54 41L51 41L51 40L50 40L50 33L51 33L51 35L52 35L52 34L53 34L53 38L52 38L52 39L56 39L56 38L57 38L57 37L56 37L56 35L57 35L57 36L58 36L58 35L60 35L60 37L59 37L59 38L64 38L64 37L65 37L65 38L66 38L66 37L65 37L65 36L67 36L67 37L68 37L68 36L69 36L69 35L68 35L68 34L69 34L69 33L68 33L68 32L69 32L69 31L68 31L68 30L69 30L69 29L68 29L68 28L67 28L67 27L68 27L68 26L67 26L67 25L69 25L69 24L68 24L68 23L63 23L63 22L62 22L62 21L63 21L63 20L62 20L62 19L63 19L63 18L65 18L65 20L66 20L66 22L69 22L69 21L68 21L68 18L69 18L69 17L68 17L68 14L65 14L65 16L66 16L66 17L63 17L63 18L62 18L62 16L64 16L64 14L63 14L63 15L62 15L62 16L61 16L61 14L62 14L62 13L63 13L63 11L62 11L62 8L61 8L61 9L59 9L59 10L60 10L60 11L58 11L58 10L57 10L57 11L56 11L56 8L57 8L57 5L56 5L56 7L55 7L55 4L56 4L56 3L55 3L55 4L54 4L54 3L53 3L53 4L51 4L51 3L52 3L52 1L53 1L53 2L55 2L55 0L52 0L52 1L51 1L51 2L50 2L50 0L49 0L49 1L48 1L48 0L47 0L47 1L46 1L46 0L44 0L44 1L46 1L46 2L47 2L47 4L48 4L48 7L47 7L47 6L46 6L46 5L44 5L44 3L45 3L45 4L46 4L46 3L45 3L45 2L44 2L44 3L43 3L43 0L41 0L41 1L36 1L36 0L35 0L35 1L34 1L34 2L35 2L35 1L36 1L36 2L39 2L39 3L42 3L42 4L41 4L41 5L44 5L44 7L45 7L45 9L44 9L44 8L43 8L43 9L41 9L41 12L40 12L40 11L39 11L39 10L40 10L40 8L41 8L41 6L40 6L40 5L39 5L39 6L38 6L38 5L37 5L37 4L38 4L38 3L36 3L36 4L35 4L35 3L33 3L33 2L32 2L32 3L29 3L29 0L28 0L28 1L27 1L27 2L26 2L26 3L24 3L24 4L22 4L22 3L19 3L19 2L20 2L20 1L19 1L19 0L17 0L17 5L16 5L16 3L15 3L15 5L14 5L14 2L16 2L16 1L15 1L15 0L14 0L14 1L13 1L13 0L12 0L12 1L11 1L11 0ZM21 0L21 2L22 2L22 1L24 1L24 2L25 2L25 0ZM30 0L30 1L32 1L32 0ZM56 0L56 1L61 1L61 0ZM12 1L12 2L11 2L11 4L10 4L10 5L9 5L9 7L10 7L10 6L11 6L11 7L12 7L12 8L13 8L13 7L14 7L14 9L12 9L12 10L14 10L14 9L15 9L15 10L16 10L16 13L15 13L15 12L14 12L14 11L13 11L13 12L14 12L14 13L15 13L15 14L16 14L16 16L18 16L18 17L15 17L15 15L14 15L14 14L13 14L13 13L11 13L11 12L8 12L8 13L9 13L9 14L8 14L8 15L10 15L10 14L13 14L13 15L14 15L14 17L13 17L13 18L15 18L15 19L16 19L16 20L14 20L14 19L11 19L11 18L12 18L12 17L11 17L11 16L12 16L12 15L11 15L11 16L10 16L10 17L9 17L9 16L7 16L7 15L6 15L6 14L7 14L7 13L6 13L6 12L7 12L7 11L6 11L6 12L5 12L5 11L3 11L3 12L5 12L5 14L4 14L4 13L3 13L3 14L4 14L4 15L3 15L3 16L2 16L2 18L4 18L4 19L6 19L6 20L4 20L4 21L5 21L5 22L8 22L8 23L9 23L9 24L8 24L8 25L9 25L9 24L10 24L10 26L9 26L9 28L7 28L7 27L8 27L8 26L7 26L7 25L6 25L6 26L7 26L7 27L5 27L5 28L7 28L7 29L6 29L6 30L7 30L7 29L8 29L8 30L9 30L9 31L10 31L10 30L12 30L12 29L11 29L11 27L12 27L12 28L13 28L13 27L14 27L14 28L16 28L16 29L15 29L15 30L17 30L17 31L18 31L18 30L17 30L17 28L16 28L16 27L15 27L15 26L16 26L16 25L17 25L17 27L19 27L19 28L20 28L20 30L19 30L19 32L20 32L20 33L19 33L19 34L20 34L20 35L19 35L19 36L21 36L21 37L20 37L20 39L21 39L21 40L22 40L22 41L20 41L20 40L19 40L19 41L20 41L20 42L19 42L19 44L20 44L20 46L18 46L18 45L15 45L15 43L16 43L16 44L18 44L18 43L17 43L17 40L18 40L18 39L17 39L17 40L15 40L15 38L17 38L17 37L13 37L13 35L14 35L14 36L18 36L18 34L17 34L17 33L18 33L18 32L17 32L17 33L16 33L16 32L14 32L14 31L12 31L12 32L9 32L9 33L10 33L10 34L11 34L11 36L10 36L10 35L9 35L9 36L10 36L10 37L13 37L13 38L12 38L12 40L11 40L11 38L8 38L8 37L6 37L6 38L5 38L5 37L4 37L4 38L3 38L3 39L5 39L5 41L3 41L3 42L4 42L4 43L5 43L5 44L4 44L4 45L6 45L6 46L7 46L7 47L6 47L6 48L7 48L7 47L8 47L8 50L7 50L7 49L6 49L6 50L7 50L7 51L6 51L6 52L4 52L4 53L5 53L5 54L4 54L4 55L3 55L3 53L1 53L1 54L2 54L2 55L3 55L3 56L5 56L5 58L9 58L9 61L10 61L10 57L8 57L8 55L6 55L6 56L5 56L5 54L7 54L7 53L6 53L6 52L7 52L7 51L9 51L9 50L11 50L11 47L12 47L12 48L13 48L13 47L14 47L14 49L15 49L15 50L14 50L14 51L16 51L16 50L17 50L17 51L20 51L20 50L18 50L18 49L21 49L21 50L23 50L23 51L24 51L24 50L23 50L23 49L26 49L26 50L25 50L25 52L19 52L19 53L18 53L18 52L15 52L15 53L12 53L12 52L13 52L13 51L11 51L11 53L12 53L12 54L14 54L14 55L15 55L15 56L16 56L16 57L17 57L17 59L18 59L18 58L19 58L19 57L20 57L20 59L19 59L19 61L18 61L18 62L19 62L19 64L20 64L20 63L21 63L21 62L23 62L23 63L24 63L24 64L26 64L26 63L24 63L24 62L23 62L23 61L25 61L25 62L26 62L26 61L27 61L27 63L28 63L28 65L29 65L29 66L30 66L30 65L29 65L29 64L31 64L31 63L32 63L32 61L27 61L27 60L26 60L26 58L25 58L25 60L24 60L24 59L23 59L23 58L24 58L24 57L22 57L22 56L21 56L21 55L22 55L22 54L23 54L23 53L25 53L25 52L26 52L26 54L29 54L29 55L28 55L28 56L29 56L29 57L27 57L27 55L26 55L26 57L27 57L27 59L29 59L29 60L31 60L31 59L32 59L32 57L34 57L34 59L35 59L35 58L36 58L36 59L37 59L37 60L38 60L38 63L41 63L41 64L39 64L39 65L38 65L38 64L37 64L37 65L38 65L38 66L39 66L39 67L40 67L40 66L41 66L41 67L43 67L43 68L44 68L44 66L45 66L45 67L46 67L46 66L45 66L45 64L44 64L44 62L43 62L43 63L42 63L42 62L41 62L41 60L42 60L42 61L43 61L43 60L42 60L42 58L41 58L41 59L40 59L40 62L39 62L39 60L38 60L38 59L39 59L39 57L41 57L41 56L39 56L39 57L38 57L38 58L36 58L36 57L37 57L37 56L36 56L36 57L35 57L35 54L37 54L37 55L39 55L39 54L40 54L40 55L42 55L42 54L40 54L40 53L42 53L42 52L44 52L44 53L43 53L43 56L42 56L42 57L43 57L43 59L44 59L44 61L45 61L45 60L46 60L46 59L47 59L47 60L49 60L49 59L51 59L51 58L52 58L52 59L53 59L53 58L52 58L52 57L55 57L55 58L54 58L54 59L55 59L55 58L56 58L56 62L54 62L54 63L57 63L57 64L56 64L56 65L55 65L55 64L54 64L54 65L55 65L55 66L54 66L54 67L55 67L55 66L56 66L56 65L57 65L57 64L58 64L58 62L59 62L59 61L60 61L60 60L65 60L65 59L67 59L67 57L66 57L66 56L63 56L63 57L61 57L61 58L59 58L59 57L60 57L60 56L59 56L59 57L57 57L57 56L56 56L56 55L57 55L57 54L58 54L58 55L59 55L59 54L60 54L60 55L61 55L61 54L60 54L60 52L61 52L61 53L62 53L62 51L63 51L63 50L62 50L62 51L61 51L61 50L60 50L60 51L56 51L56 50L52 50L52 51L53 51L53 52L51 52L51 49L50 49L50 48L52 48L52 49L53 49L53 48L52 48L52 47L50 47L50 46L51 46L51 45L52 45L52 46L54 46L54 47L56 47L56 46L54 46L54 44L53 44L53 43L54 43L54 42L53 42L53 43L52 43L52 42L51 42L51 41L50 41L50 43L49 43L49 41L47 41L47 40L49 40L49 37L48 37L48 36L49 36L49 35L48 35L48 36L47 36L47 34L48 34L48 33L46 33L46 32L47 32L47 29L45 29L45 27L43 27L43 28L44 28L44 29L43 29L43 30L42 30L42 27L39 27L39 28L40 28L40 29L38 29L38 30L37 30L37 29L36 29L36 28L35 28L35 27L36 27L36 26L34 26L34 27L33 27L33 25L34 25L34 24L35 24L35 25L36 25L36 24L35 24L35 22L37 22L37 26L41 26L41 25L42 25L42 24L39 24L39 23L43 23L43 24L44 24L44 25L43 25L43 26L46 26L46 28L49 28L49 29L48 29L48 30L49 30L49 31L50 31L50 32L51 32L51 33L55 33L55 32L53 32L53 31L56 31L56 29L57 29L57 30L58 30L58 31L57 31L57 32L56 32L56 34L55 34L55 35L54 35L54 36L55 36L55 35L56 35L56 34L60 34L60 32L59 32L59 31L60 31L60 30L59 30L59 29L57 29L57 26L59 26L59 25L62 25L62 26L61 26L61 27L62 27L62 28L61 28L61 29L62 29L62 31L61 31L61 32L62 32L62 31L63 31L63 32L64 32L64 31L67 31L67 32L66 32L66 33L67 33L67 34L65 34L65 35L67 35L67 36L68 36L68 35L67 35L67 34L68 34L68 33L67 33L67 32L68 32L68 31L67 31L67 28L66 28L66 27L62 27L62 26L63 26L63 25L65 25L65 26L66 26L66 24L63 24L63 25L62 25L62 22L60 22L60 23L61 23L61 24L58 24L58 25L57 25L57 23L58 23L58 22L59 22L59 21L62 21L62 20L60 20L60 19L62 19L62 18L59 18L59 17L57 17L57 16L58 16L58 15L59 15L59 12L58 12L58 13L57 13L57 12L56 12L56 11L55 11L55 10L53 10L53 8L55 8L55 7L54 7L54 5L53 5L53 8L52 8L52 6L51 6L51 4L50 4L50 3L49 3L49 4L50 4L50 5L49 5L49 9L50 9L50 10L47 10L47 7L46 7L46 6L45 6L45 7L46 7L46 9L45 9L45 10L42 10L42 12L41 12L41 14L42 14L42 15L40 15L40 14L39 14L39 13L40 13L40 12L39 12L39 11L38 11L38 12L37 12L37 10L36 10L36 9L34 9L34 10L36 10L36 11L33 11L33 10L32 10L32 9L31 9L31 8L32 8L32 5L31 5L31 4L27 4L27 3L28 3L28 2L27 2L27 3L26 3L26 4L25 4L25 5L24 5L24 6L23 6L23 5L22 5L22 4L18 4L18 5L17 5L17 7L18 7L18 8L19 8L19 9L20 9L20 10L23 10L23 11L22 11L22 12L20 12L20 14L21 14L21 15L20 15L20 16L19 16L19 14L18 14L18 15L17 15L17 11L18 11L18 12L19 12L19 11L18 11L18 10L17 10L17 9L15 9L15 8L16 8L16 5L15 5L15 7L14 7L14 5L12 5L12 4L13 4L13 3L12 3L12 2L13 2L13 1ZM41 1L41 2L42 2L42 1ZM57 2L57 4L58 4L58 7L59 7L59 8L60 8L60 7L61 7L61 6L60 6L60 7L59 7L59 4L58 4L58 3L59 3L59 2ZM32 3L32 4L33 4L33 3ZM60 3L60 5L61 5L61 3ZM26 4L26 5L25 5L25 6L24 6L24 7L23 7L23 6L22 6L22 5L21 5L21 6L20 6L20 5L18 5L18 7L19 7L19 6L20 6L20 7L21 7L21 6L22 6L22 7L23 7L23 8L24 8L24 9L23 9L23 10L24 10L24 9L25 9L25 12L24 12L24 11L23 11L23 14L27 14L27 16L28 16L28 15L29 15L29 17L31 17L31 18L29 18L29 19L30 19L30 20L29 20L29 21L31 21L31 22L30 22L30 23L28 23L28 25L29 25L29 26L26 26L26 27L25 27L25 25L26 25L26 24L25 24L25 23L26 23L26 22L25 22L25 21L26 21L26 19L27 19L27 21L28 21L28 19L27 19L27 18L28 18L28 17L27 17L27 18L26 18L26 17L24 17L24 16L23 16L23 18L25 18L25 19L24 19L24 21L23 21L23 22L22 22L22 21L21 21L21 22L20 22L20 21L19 21L19 20L22 20L22 17L18 17L18 18L17 18L17 19L18 19L18 20L17 20L17 21L16 21L16 22L15 22L15 21L14 21L14 22L13 22L13 20L11 20L11 19L8 19L8 22L9 22L9 20L11 20L11 21L10 21L10 24L11 24L11 23L12 23L12 22L13 22L13 24L12 24L12 25L11 25L11 26L10 26L10 27L11 27L11 26L14 26L14 25L16 25L16 22L17 22L17 23L19 23L19 22L20 22L20 24L22 24L22 25L21 25L21 26L22 26L22 25L24 25L24 26L23 26L23 27L20 27L20 28L23 28L23 27L24 27L24 28L25 28L25 29L22 29L22 30L25 30L25 31L26 31L26 32L24 32L24 31L21 31L21 30L20 30L20 32L23 32L23 34L22 34L22 35L21 35L21 36L23 36L23 37L21 37L21 39L22 39L22 38L23 38L23 37L24 37L24 39L23 39L23 40L24 40L24 41L23 41L23 42L24 42L24 41L26 41L26 38L27 38L27 39L28 39L28 40L27 40L27 41L30 41L30 42L32 42L32 45L33 45L33 46L32 46L32 47L33 47L33 46L34 46L34 48L36 48L36 47L37 47L37 48L38 48L38 47L39 47L39 48L40 48L40 47L41 47L41 48L42 48L42 49L41 49L41 50L39 50L39 51L37 51L37 50L38 50L38 49L37 49L37 50L36 50L36 49L35 49L35 53L36 53L36 52L38 52L38 53L37 53L37 54L39 54L39 52L40 52L40 51L41 51L41 50L42 50L42 51L44 51L44 52L45 52L45 53L44 53L44 56L43 56L43 57L44 57L44 56L46 56L46 57L47 57L47 58L48 58L48 59L49 59L49 58L50 58L50 57L51 57L51 56L52 56L52 55L53 55L53 56L54 56L54 54L55 54L55 55L56 55L56 54L57 54L57 53L58 53L58 52L57 52L57 53L56 53L56 51L55 51L55 52L53 52L53 53L51 53L51 52L50 52L50 49L49 49L49 48L48 48L48 47L47 47L47 46L50 46L50 45L49 45L49 44L48 44L48 42L46 42L46 43L45 43L45 42L44 42L44 40L41 40L41 39L42 39L42 38L43 38L43 39L45 39L45 40L47 40L47 39L48 39L48 38L45 38L45 37L47 37L47 36L45 36L45 33L44 33L44 32L46 32L46 30L45 30L45 31L44 31L44 32L43 32L43 31L40 31L40 30L38 30L38 33L37 33L37 30L36 30L36 29L34 29L34 28L33 28L33 27L31 27L31 28L30 28L30 27L29 27L29 26L32 26L32 23L31 23L31 22L32 22L32 21L33 21L33 22L34 22L34 21L33 21L33 20L32 20L32 19L36 19L36 20L38 20L38 21L37 21L37 22L39 22L39 19L40 19L40 20L41 20L41 22L44 22L44 23L45 23L45 24L46 24L46 25L47 25L47 26L48 26L48 27L50 27L50 29L49 29L49 30L50 30L50 31L51 31L51 32L52 32L52 30L55 30L55 29L56 29L56 24L55 24L55 23L56 23L56 18L57 18L57 20L59 20L59 18L57 18L57 17L56 17L56 16L57 16L57 13L56 13L56 12L55 12L55 13L54 13L54 14L53 14L53 13L52 13L52 14L53 14L53 15L52 15L52 16L53 16L53 17L51 17L51 16L50 16L50 17L49 17L49 15L48 15L48 16L47 16L47 14L50 14L50 15L51 15L51 14L50 14L50 13L51 13L51 12L52 12L52 11L51 11L51 10L52 10L52 8L50 8L50 9L51 9L51 10L50 10L50 11L49 11L49 12L47 12L47 14L45 14L45 13L44 13L44 11L43 11L43 13L42 13L42 14L43 14L43 13L44 13L44 16L42 16L42 17L41 17L41 18L39 18L39 19L38 19L38 15L39 15L39 16L40 16L40 15L39 15L39 14L38 14L38 13L36 13L36 12L33 12L33 14L32 14L32 15L30 15L30 14L27 14L27 13L32 13L32 12L30 12L30 11L32 11L32 10L31 10L31 9L30 9L30 8L29 8L29 9L30 9L30 10L29 10L29 12L28 12L28 10L27 10L27 11L26 11L26 8L24 8L24 7L25 7L25 6L26 6L26 7L27 7L27 6L28 6L28 7L29 7L29 6L30 6L30 7L31 7L31 6L30 6L30 5L29 5L29 6L28 6L28 5L27 5L27 4ZM33 5L33 8L36 8L36 5ZM12 6L12 7L13 7L13 6ZM34 6L34 7L35 7L35 6ZM37 6L37 9L38 9L38 10L39 10L39 9L38 9L38 8L40 8L40 6L39 6L39 7L38 7L38 6ZM42 6L42 7L43 7L43 6ZM50 6L50 7L51 7L51 6ZM10 8L10 9L8 9L8 11L9 11L9 10L10 10L10 11L11 11L11 10L10 10L10 9L11 9L11 8ZM20 8L20 9L22 9L22 8ZM27 8L27 9L28 9L28 8ZM63 8L63 9L64 9L64 8ZM65 8L65 9L66 9L66 10L67 10L67 11L65 11L65 10L64 10L64 12L65 12L65 13L68 13L68 12L69 12L69 11L68 11L68 8L67 8L67 9L66 9L66 8ZM45 11L45 12L46 12L46 11ZM60 11L60 13L62 13L62 11ZM67 11L67 12L68 12L68 11ZM26 12L26 13L27 13L27 12ZM49 12L49 13L50 13L50 12ZM21 13L21 14L22 14L22 13ZM34 13L34 14L33 14L33 15L32 15L32 16L31 16L31 17L32 17L32 16L33 16L33 17L34 17L34 18L36 18L36 16L37 16L37 15L38 15L38 14L37 14L37 15L35 15L35 13ZM55 13L55 14L54 14L54 15L55 15L55 16L56 16L56 13ZM1 14L1 15L2 15L2 14ZM21 15L21 16L22 16L22 15ZM25 15L25 16L26 16L26 15ZM33 15L33 16L34 16L34 15ZM4 16L4 17L5 17L5 18L6 18L6 19L7 19L7 18L9 18L9 17L7 17L7 16ZM44 16L44 17L43 17L43 20L42 20L42 19L41 19L41 20L42 20L42 21L43 21L43 20L44 20L44 22L46 22L46 24L47 24L47 25L48 25L48 26L49 26L49 25L50 25L50 26L51 26L51 29L50 29L50 30L51 30L51 29L53 29L53 28L54 28L54 29L55 29L55 28L54 28L54 27L53 27L53 26L51 26L51 25L53 25L53 24L51 24L51 23L55 23L55 22L53 22L53 20L52 20L52 18L51 18L51 17L50 17L50 18L49 18L49 17L48 17L48 18L49 18L49 19L48 19L48 20L49 20L49 21L48 21L48 22L47 22L47 21L46 21L46 20L47 20L47 19L46 19L46 18L47 18L47 16ZM6 17L6 18L7 18L7 17ZM10 17L10 18L11 18L11 17ZM45 17L45 18L44 18L44 19L45 19L45 18L46 18L46 17ZM66 17L66 19L67 19L67 17ZM19 18L19 19L20 19L20 18ZM53 18L53 19L54 19L54 20L55 20L55 19L54 19L54 18ZM2 19L2 20L3 20L3 19ZM49 19L49 20L51 20L51 19ZM6 20L6 21L7 21L7 20ZM11 21L11 22L12 22L12 21ZM18 21L18 22L19 22L19 21ZM49 21L49 22L48 22L48 23L47 23L47 24L48 24L48 25L49 25L49 24L50 24L50 23L51 23L51 22L50 22L50 21ZM57 21L57 22L58 22L58 21ZM64 21L64 22L65 22L65 21ZM21 22L21 23L22 23L22 22ZM49 22L49 23L48 23L48 24L49 24L49 23L50 23L50 22ZM0 24L0 31L3 31L3 30L1 30L1 29L3 29L3 27L2 27L2 28L1 28L1 26L2 26L2 24ZM17 24L17 25L19 25L19 26L20 26L20 25L19 25L19 24ZM29 24L29 25L30 25L30 24ZM26 27L26 29L25 29L25 30L27 30L27 31L29 31L29 32L28 32L28 33L25 33L25 35L24 35L24 37L25 37L25 36L26 36L26 37L27 37L27 38L28 38L28 39L29 39L29 40L30 40L30 41L31 41L31 40L32 40L32 35L31 35L31 34L32 34L32 32L34 32L34 31L33 31L33 30L34 30L34 29L33 29L33 30L31 30L31 31L32 31L32 32L31 32L31 34L29 34L29 35L30 35L30 36L31 36L31 38L30 38L30 39L29 39L29 36L28 36L28 35L27 35L27 36L26 36L26 34L28 34L28 33L29 33L29 32L30 32L30 31L29 31L29 28L28 28L28 27ZM37 27L37 28L38 28L38 27ZM9 28L9 30L10 30L10 28ZM27 28L27 29L28 29L28 28ZM31 28L31 29L32 29L32 28ZM65 28L65 29L64 29L64 30L65 30L65 29L66 29L66 28ZM35 30L35 31L36 31L36 30ZM5 31L5 32L7 32L7 31ZM1 32L1 34L3 34L3 33L2 33L2 32ZM13 32L13 33L11 33L11 34L12 34L12 35L13 35L13 33L14 33L14 34L15 34L15 35L17 35L17 34L15 34L15 33L14 33L14 32ZM39 32L39 33L38 33L38 35L37 35L37 36L38 36L38 37L34 37L34 38L36 38L36 39L37 39L37 38L38 38L38 40L37 40L37 41L38 41L38 42L35 42L35 43L37 43L37 45L38 45L38 46L39 46L39 47L40 47L40 46L39 46L39 45L40 45L40 44L41 44L41 43L40 43L40 41L41 41L41 40L39 40L39 39L41 39L41 36L40 36L40 33L43 33L43 34L41 34L41 35L42 35L42 36L44 36L44 37L45 37L45 36L44 36L44 33L43 33L43 32ZM57 32L57 33L58 33L58 32ZM5 33L5 36L8 36L8 33ZM33 33L33 36L36 36L36 33ZM61 33L61 36L64 36L64 33ZM6 34L6 35L7 35L7 34ZM34 34L34 35L35 35L35 34ZM62 34L62 35L63 35L63 34ZM27 36L27 37L28 37L28 36ZM39 36L39 37L40 37L40 36ZM55 37L55 38L56 38L56 37ZM6 38L6 39L8 39L8 38ZM13 38L13 40L14 40L14 41L15 41L15 42L16 42L16 41L15 41L15 40L14 40L14 38ZM9 39L9 40L6 40L6 41L7 41L7 42L5 42L5 43L7 43L7 44L6 44L6 45L7 45L7 44L9 44L9 45L8 45L8 46L9 46L9 47L10 47L10 45L11 45L11 44L12 44L12 45L14 45L14 44L13 44L13 43L14 43L14 42L13 42L13 41L11 41L11 42L10 42L10 43L7 43L7 42L9 42L9 41L10 41L10 39ZM34 40L34 41L32 41L32 42L34 42L34 41L35 41L35 40ZM62 40L62 41L61 41L61 42L62 42L62 43L64 43L64 44L63 44L63 45L62 45L62 47L63 47L63 46L65 46L65 47L66 47L66 45L65 45L65 42L66 42L66 41L67 41L67 40L65 40L65 41L64 41L64 40ZM11 42L11 43L10 43L10 44L11 44L11 43L13 43L13 42ZM25 42L25 44L24 44L24 43L23 43L23 44L24 44L24 45L21 45L21 48L23 48L23 47L22 47L22 46L25 46L25 45L26 45L26 46L28 46L28 45L29 45L29 46L31 46L31 44L28 44L28 43L27 43L27 42ZM43 42L43 43L44 43L44 42ZM58 42L58 43L59 43L59 42ZM20 43L20 44L21 44L21 43ZM26 43L26 45L28 45L28 44L27 44L27 43ZM38 43L38 44L40 44L40 43ZM50 43L50 44L51 44L51 43ZM0 44L0 45L1 45L1 46L2 46L2 44ZM33 44L33 45L34 45L34 46L35 46L35 47L36 47L36 44ZM43 44L43 45L45 45L45 46L42 46L42 45L41 45L41 46L42 46L42 48L43 48L43 47L44 47L44 49L43 49L43 50L44 50L44 49L45 49L45 52L46 52L46 51L47 51L47 52L48 52L48 51L47 51L47 50L48 50L48 49L47 49L47 47L46 47L46 49L45 49L45 46L47 46L47 44L46 44L46 45L45 45L45 44ZM12 46L12 47L13 47L13 46ZM17 46L17 47L15 47L15 49L16 49L16 48L17 48L17 49L18 49L18 48L17 48L17 47L18 47L18 46ZM3 47L3 48L4 48L4 47ZM19 47L19 48L20 48L20 47ZM25 47L25 48L26 48L26 47ZM28 47L28 48L29 48L29 50L32 50L32 51L29 51L29 52L28 52L28 51L27 51L27 50L28 50L28 49L27 49L27 50L26 50L26 51L27 51L27 53L29 53L29 54L30 54L30 55L29 55L29 56L30 56L30 57L29 57L29 58L30 58L30 59L31 59L31 57L32 57L32 55L31 55L31 52L33 52L33 53L32 53L32 54L33 54L33 53L34 53L34 52L33 52L33 51L34 51L34 50L32 50L32 49L33 49L33 48L32 48L32 49L31 49L31 47L30 47L30 48L29 48L29 47ZM9 48L9 49L10 49L10 48ZM65 50L65 51L66 51L66 50ZM9 52L9 54L10 54L10 52ZM49 52L49 53L50 53L50 55L47 55L47 54L48 54L48 53L45 53L45 54L46 54L46 56L49 56L49 57L50 57L50 55L51 55L51 53L50 53L50 52ZM17 53L17 54L15 54L15 55L17 55L17 54L18 54L18 53ZM19 53L19 54L20 54L20 53ZM53 53L53 54L54 54L54 53ZM55 53L55 54L56 54L56 53ZM18 55L18 56L17 56L17 57L19 57L19 55ZM24 55L24 56L25 56L25 55ZM33 55L33 56L34 56L34 55ZM67 55L67 56L68 56L68 55ZM6 56L6 57L7 57L7 56ZM55 56L55 57L56 57L56 56ZM0 57L0 61L1 61L1 57ZM21 57L21 59L22 59L22 57ZM45 58L45 59L46 59L46 58ZM61 58L61 59L62 59L62 58ZM63 58L63 59L64 59L64 58ZM57 59L57 60L58 60L58 59ZM3 60L3 61L5 61L5 60ZM20 60L20 61L19 61L19 62L20 62L20 61L21 61L21 60ZM25 60L25 61L26 61L26 60ZM33 61L33 64L36 64L36 61ZM57 61L57 62L58 62L58 61ZM61 61L61 64L64 64L64 61ZM30 62L30 63L31 63L31 62ZM34 62L34 63L35 63L35 62ZM62 62L62 63L63 63L63 62ZM65 62L65 63L66 63L66 62ZM68 63L68 64L69 64L69 63ZM8 64L8 69L11 69L11 68L10 68L10 65L11 65L11 66L12 66L12 65L11 65L11 64L10 64L10 65L9 65L9 64ZM17 64L17 65L18 65L18 64ZM41 64L41 66L44 66L44 64ZM31 65L31 66L32 66L32 65ZM48 65L48 66L47 66L47 68L48 68L48 66L49 66L49 65ZM24 66L24 67L25 67L25 66ZM12 67L12 68L13 68L13 69L16 69L16 68L14 68L14 67ZM29 67L29 68L30 68L30 67ZM31 67L31 68L32 68L32 67ZM0 0L0 7L7 7L7 0ZM1 1L1 6L6 6L6 1ZM2 2L2 5L5 5L5 2ZM62 0L62 7L69 7L69 0ZM63 1L63 6L68 6L68 1ZM64 2L64 5L67 5L67 2ZM0 62L0 69L7 69L7 62ZM1 63L1 68L6 68L6 63ZM2 64L2 67L5 67L5 64Z" fill="#000000"/></g></g></svg>
