<?xml version="1.0" encoding="UTF-8"?>
<svg xmlns="http://www.w3.org/2000/svg" version="1.1" width="300" height="300" viewBox="0 0 300 300"><rect x="0" y="0" width="300" height="300" fill="#ffffff"/><g transform="scale(4.348)"><g transform="translate(0,0)"><path fill-rule="evenodd" d="M15 0L15 1L14 1L14 2L15 2L15 3L16 3L16 5L17 5L17 6L16 6L16 7L17 7L17 6L18 6L18 8L17 8L17 9L19 9L19 10L18 10L18 11L17 11L17 10L15 10L15 8L14 8L14 10L12 10L12 9L10 9L10 12L11 12L11 13L13 13L13 15L12 15L12 14L10 14L10 13L7 13L7 12L9 12L9 10L6 10L6 11L5 11L5 12L4 12L4 11L3 11L3 10L5 10L5 9L8 9L8 8L5 8L5 9L2 9L2 8L0 8L0 10L2 10L2 11L1 11L1 12L2 12L2 11L3 11L3 12L4 12L4 13L3 13L3 16L4 16L4 17L2 17L2 16L1 16L1 15L2 15L2 14L1 14L1 13L0 13L0 14L1 14L1 15L0 15L0 21L1 21L1 22L2 22L2 23L0 23L0 26L1 26L1 27L2 27L2 29L1 29L1 28L0 28L0 31L1 31L1 32L0 32L0 34L1 34L1 32L2 32L2 31L3 31L3 33L2 33L2 35L0 35L0 38L1 38L1 36L2 36L2 39L0 39L0 41L1 41L1 42L0 42L0 44L1 44L1 46L2 46L2 43L3 43L3 42L4 42L4 43L5 43L5 44L3 44L3 48L0 48L0 52L1 52L1 54L0 54L0 55L2 55L2 56L1 56L1 57L0 57L0 61L1 61L1 57L2 57L2 56L3 56L3 57L4 57L4 55L5 55L5 56L6 56L6 57L8 57L8 56L6 56L6 55L7 55L7 54L6 54L6 55L5 55L5 53L8 53L8 55L9 55L9 54L10 54L10 52L12 52L12 51L18 51L18 50L20 50L20 51L19 51L19 52L15 52L15 55L13 55L13 56L12 56L12 57L11 57L11 59L10 59L10 56L11 56L11 55L12 55L12 54L14 54L14 53L12 53L12 54L11 54L11 55L10 55L10 56L9 56L9 58L8 58L8 59L7 59L7 58L4 58L4 59L7 59L7 60L6 60L6 61L7 61L7 60L8 60L8 64L10 64L10 63L9 63L9 62L11 62L11 66L12 66L12 67L13 67L13 68L12 68L12 69L13 69L13 68L14 68L14 69L15 69L15 68L14 68L14 67L15 67L15 66L16 66L16 68L17 68L17 69L19 69L19 68L17 68L17 66L18 66L18 67L19 67L19 65L20 65L20 64L21 64L21 63L22 63L22 64L23 64L23 65L22 65L22 66L20 66L20 67L22 67L22 68L23 68L23 67L24 67L24 66L25 66L25 69L26 69L26 67L27 67L27 69L28 69L28 68L29 68L29 69L32 69L32 68L29 68L29 67L30 67L30 66L29 66L29 65L32 65L32 66L33 66L33 65L36 65L36 66L37 66L37 65L39 65L39 66L40 66L40 65L39 65L39 64L37 64L37 63L38 63L38 60L37 60L37 58L38 58L38 59L41 59L41 58L42 58L42 60L43 60L43 57L44 57L44 58L45 58L45 59L44 59L44 61L41 61L41 60L39 60L39 61L41 61L41 62L42 62L42 63L43 63L43 62L44 62L44 63L45 63L45 65L46 65L46 64L47 64L47 65L48 65L48 66L47 66L47 67L46 67L46 68L47 68L47 69L49 69L49 67L50 67L50 65L49 65L49 63L48 63L48 64L47 64L47 63L46 63L46 61L47 61L47 62L50 62L50 61L51 61L51 60L52 60L52 61L53 61L53 62L51 62L51 63L52 63L52 64L54 64L54 62L56 62L56 63L55 63L55 65L51 65L51 67L53 67L53 66L56 66L56 64L57 64L57 67L55 67L55 68L53 68L53 69L55 69L55 68L58 68L58 69L59 69L59 68L62 68L62 65L63 65L63 66L64 66L64 68L63 68L63 69L64 69L64 68L65 68L65 69L68 69L68 68L67 68L67 67L69 67L69 66L67 66L67 65L65 65L65 64L67 64L67 63L68 63L68 62L69 62L69 61L68 61L68 60L69 60L69 59L68 59L68 58L65 58L65 57L63 57L63 56L62 56L62 58L61 58L61 56L60 56L60 59L61 59L61 60L59 60L59 62L58 62L58 58L59 58L59 56L57 56L57 58L56 58L56 59L57 59L57 60L56 60L56 61L53 61L53 60L55 60L55 57L56 57L56 55L60 55L60 54L58 54L58 52L59 52L59 51L60 51L60 48L59 48L59 50L58 50L58 49L57 49L57 48L58 48L58 47L57 47L57 46L59 46L59 47L60 47L60 46L61 46L61 52L62 52L62 53L63 53L63 54L62 54L62 55L63 55L63 54L64 54L64 56L66 56L66 57L69 57L69 56L67 56L67 52L69 52L69 51L68 51L68 50L69 50L69 49L67 49L67 51L65 51L65 50L63 50L63 51L64 51L64 52L62 52L62 49L63 49L63 48L62 48L62 46L65 46L65 45L66 45L66 47L65 47L65 49L66 49L66 48L68 48L68 47L67 47L67 46L68 46L68 45L67 45L67 44L68 44L68 43L69 43L69 39L68 39L68 38L67 38L67 35L68 35L68 37L69 37L69 35L68 35L68 34L67 34L67 33L68 33L68 31L69 31L69 29L67 29L67 30L68 30L68 31L66 31L66 30L65 30L65 29L63 29L63 30L62 30L62 29L61 29L61 28L69 28L69 27L68 27L68 26L69 26L69 25L68 25L68 26L67 26L67 25L66 25L66 24L68 24L68 22L69 22L69 21L68 21L68 19L69 19L69 15L68 15L68 14L69 14L69 11L67 11L67 10L68 10L68 9L66 9L66 8L64 8L64 9L65 9L65 10L64 10L64 11L65 11L65 12L64 12L64 14L63 14L63 15L64 15L64 16L66 16L66 18L68 18L68 19L65 19L65 17L64 17L64 19L63 19L63 20L62 20L62 16L59 16L59 15L62 15L62 13L63 13L63 11L62 11L62 13L59 13L59 11L58 11L58 13L57 13L57 10L60 10L60 12L61 12L61 10L63 10L63 9L60 9L60 8L61 8L61 6L60 6L60 7L59 7L59 4L58 4L58 3L59 3L59 2L58 2L58 1L61 1L61 0L58 0L58 1L57 1L57 3L56 3L56 2L55 2L55 0L54 0L54 4L53 4L53 3L51 3L51 2L52 2L52 1L53 1L53 0L50 0L50 1L49 1L49 0L48 0L48 2L47 2L47 0L46 0L46 2L47 2L47 3L46 3L46 4L47 4L47 5L48 5L48 4L49 4L49 6L48 6L48 7L47 7L47 6L46 6L46 7L47 7L47 9L46 9L46 8L45 8L45 10L51 10L51 11L50 11L50 12L48 12L48 13L47 13L47 12L46 12L46 13L45 13L45 12L44 12L44 13L45 13L45 14L46 14L46 13L47 13L47 14L50 14L50 12L51 12L51 11L52 11L52 13L51 13L51 14L52 14L52 15L49 15L49 16L48 16L48 15L45 15L45 17L46 17L46 16L48 16L48 19L50 19L50 17L49 17L49 16L51 16L51 18L52 18L52 15L53 15L53 16L55 16L55 17L53 17L53 19L51 19L51 20L50 20L50 21L49 21L49 20L46 20L46 19L45 19L45 20L46 20L46 21L44 21L44 20L43 20L43 19L44 19L44 18L43 18L43 17L44 17L44 16L42 16L42 17L41 17L41 18L42 18L42 20L41 20L41 22L39 22L39 23L40 23L40 25L39 25L39 26L38 26L38 24L37 24L37 22L38 22L38 21L39 21L39 20L40 20L40 17L39 17L39 18L38 18L38 16L39 16L39 15L38 15L38 16L36 16L36 15L37 15L37 14L38 14L38 13L35 13L35 15L34 15L34 16L35 16L35 17L32 17L32 16L33 16L33 15L32 15L32 14L31 14L31 16L29 16L29 15L25 15L25 16L23 16L23 17L22 17L22 16L21 16L21 17L18 17L18 16L17 16L17 15L18 15L18 14L19 14L19 16L20 16L20 11L21 11L21 12L22 12L22 13L23 13L23 14L25 14L25 12L24 12L24 11L21 11L21 10L24 10L24 9L26 9L26 11L27 11L27 12L26 12L26 14L28 14L28 13L29 13L29 12L28 12L28 10L29 10L29 11L32 11L32 10L33 10L33 12L32 12L32 13L34 13L34 11L36 11L36 10L39 10L39 9L37 9L37 6L38 6L38 8L40 8L40 7L41 7L41 6L40 6L40 7L39 7L39 6L38 6L38 5L37 5L37 4L39 4L39 5L40 5L40 4L41 4L41 5L44 5L44 7L45 7L45 5L44 5L44 4L45 4L45 2L44 2L44 3L42 3L42 4L41 4L41 3L40 3L40 2L41 2L41 0L40 0L40 2L39 2L39 0L37 0L37 1L36 1L36 0L34 0L34 1L33 1L33 0L32 0L32 1L28 1L28 3L29 3L29 4L31 4L31 5L32 5L32 8L31 8L31 9L30 9L30 8L28 8L28 7L29 7L29 6L30 6L30 7L31 7L31 6L30 6L30 5L29 5L29 6L28 6L28 7L27 7L27 6L26 6L26 7L25 7L25 5L27 5L27 3L26 3L26 2L27 2L27 0L24 0L24 1L25 1L25 2L23 2L23 1L22 1L22 0L18 0L18 1L16 1L16 0ZM42 0L42 2L43 2L43 1L44 1L44 0ZM9 1L9 2L11 2L11 1ZM12 1L12 2L13 2L13 1ZM15 1L15 2L16 2L16 3L20 3L20 4L17 4L17 5L20 5L20 6L19 6L19 7L20 7L20 6L21 6L21 7L22 7L22 9L24 9L24 8L23 8L23 7L24 7L24 6L23 6L23 5L21 5L21 2L22 2L22 1L20 1L20 2L19 2L19 1L18 1L18 2L16 2L16 1ZM32 1L32 2L33 2L33 4L35 4L35 3L36 3L36 2L35 2L35 1L34 1L34 2L33 2L33 1ZM50 1L50 2L48 2L48 3L47 3L47 4L48 4L48 3L50 3L50 5L51 5L51 8L50 8L50 9L54 9L54 8L52 8L52 6L53 6L53 7L54 7L54 5L53 5L53 4L51 4L51 3L50 3L50 2L51 2L51 1ZM29 2L29 3L30 3L30 2ZM37 2L37 3L39 3L39 2ZM8 3L8 5L9 5L9 6L8 6L8 7L9 7L9 8L11 8L11 5L10 5L10 4L9 4L9 3ZM13 3L13 6L12 6L12 8L13 8L13 6L14 6L14 7L15 7L15 6L14 6L14 3ZM23 3L23 4L24 4L24 3ZM25 3L25 4L26 4L26 3ZM60 3L60 5L61 5L61 3ZM55 4L55 7L56 7L56 5L58 5L58 4ZM33 5L33 8L36 8L36 5ZM9 6L9 7L10 7L10 6ZM22 6L22 7L23 7L23 6ZM34 6L34 7L35 7L35 6ZM42 6L42 7L43 7L43 6ZM49 6L49 7L50 7L50 6ZM57 6L57 7L58 7L58 8L56 8L56 9L58 9L58 8L59 8L59 7L58 7L58 6ZM26 7L26 9L28 9L28 8L27 8L27 7ZM20 8L20 9L21 9L21 8ZM43 8L43 9L40 9L40 10L41 10L41 13L40 13L40 16L41 16L41 15L42 15L42 14L43 14L43 15L44 15L44 14L43 14L43 13L42 13L42 10L44 10L44 8ZM29 9L29 10L30 10L30 9ZM31 9L31 10L32 10L32 9ZM33 9L33 10L34 10L34 9ZM35 9L35 10L36 10L36 9ZM14 10L14 11L13 11L13 13L14 13L14 12L15 12L15 10ZM19 10L19 11L18 11L18 12L17 12L17 11L16 11L16 12L17 12L17 13L16 13L16 14L15 14L15 15L13 15L13 16L12 16L12 18L14 18L14 17L15 17L15 19L17 19L17 20L18 20L18 17L16 17L16 15L17 15L17 13L18 13L18 12L19 12L19 11L20 11L20 10ZM55 10L55 11L56 11L56 10ZM65 10L65 11L66 11L66 10ZM6 11L6 12L5 12L5 13L4 13L4 14L7 14L7 15L4 15L4 16L7 16L7 15L8 15L8 16L10 16L10 17L11 17L11 16L10 16L10 14L7 14L7 13L6 13L6 12L7 12L7 11ZM37 11L37 12L39 12L39 11ZM23 12L23 13L24 13L24 12ZM30 12L30 13L31 13L31 12ZM53 12L53 13L52 13L52 14L54 14L54 15L56 15L56 14L57 14L57 13L56 13L56 14L54 14L54 12ZM66 12L66 13L65 13L65 14L68 14L68 13L67 13L67 12ZM41 13L41 14L42 14L42 13ZM58 13L58 15L57 15L57 16L56 16L56 18L55 18L55 19L54 19L54 20L52 20L52 21L55 21L55 19L56 19L56 23L58 23L58 24L59 24L59 25L58 25L58 26L59 26L59 25L61 25L61 26L63 26L63 27L66 27L66 26L65 26L65 25L64 25L64 23L65 23L65 22L66 22L66 23L67 23L67 22L68 22L68 21L67 21L67 22L66 22L66 20L65 20L65 19L64 19L64 20L63 20L63 21L65 21L65 22L64 22L64 23L63 23L63 22L62 22L62 24L59 24L59 23L58 23L58 21L59 21L59 20L60 20L60 19L59 19L59 17L58 17L58 21L57 21L57 19L56 19L56 18L57 18L57 16L58 16L58 15L59 15L59 13ZM21 14L21 15L22 15L22 14ZM67 15L67 17L68 17L68 15ZM13 16L13 17L14 17L14 16ZM25 16L25 17L26 17L26 18L27 18L27 20L26 20L26 19L23 19L23 18L20 18L20 19L22 19L22 20L19 20L19 21L18 21L18 22L17 22L17 23L16 23L16 22L15 22L15 21L14 21L14 20L13 20L13 21L14 21L14 22L13 22L13 23L11 23L11 22L12 22L12 21L10 21L10 22L9 22L9 23L8 23L8 21L9 21L9 20L8 20L8 19L11 19L11 20L12 20L12 19L11 19L11 18L9 18L9 17L5 17L5 18L4 18L4 23L3 23L3 24L4 24L4 26L2 26L2 25L1 25L1 26L2 26L2 27L3 27L3 30L4 30L4 32L5 32L5 29L4 29L4 28L5 28L5 26L7 26L7 25L5 25L5 24L4 24L4 23L5 23L5 22L7 22L7 23L6 23L6 24L7 24L7 23L8 23L8 26L9 26L9 23L10 23L10 25L11 25L11 24L12 24L12 26L14 26L14 27L13 27L13 28L12 28L12 27L11 27L11 26L10 26L10 27L9 27L9 28L10 28L10 29L9 29L9 30L8 30L8 31L6 31L6 32L9 32L9 31L11 31L11 32L12 32L12 33L13 33L13 32L14 32L14 34L12 34L12 37L13 37L13 35L15 35L15 30L14 30L14 31L13 31L13 29L15 29L15 28L14 28L14 27L15 27L15 25L13 25L13 24L15 24L15 23L16 23L16 24L17 24L17 27L16 27L16 28L19 28L19 29L16 29L16 30L19 30L19 32L20 32L20 33L19 33L19 34L20 34L20 35L19 35L19 37L20 37L20 38L18 38L18 34L17 34L17 37L16 37L16 36L15 36L15 37L14 37L14 38L11 38L11 36L10 36L10 37L6 37L6 38L7 38L7 39L5 39L5 38L3 38L3 39L4 39L4 42L5 42L5 43L6 43L6 44L7 44L7 45L4 45L4 47L5 47L5 46L8 46L8 45L9 45L9 44L11 44L11 45L10 45L10 46L14 46L14 45L17 45L17 46L18 46L18 47L17 47L17 49L16 49L16 50L18 50L18 49L19 49L19 47L21 47L21 49L22 49L22 48L23 48L23 49L24 49L24 48L23 48L23 47L22 47L22 46L18 46L18 45L17 45L17 43L19 43L19 44L20 44L20 45L24 45L24 44L26 44L26 46L24 46L24 47L26 47L26 48L27 48L27 49L26 49L26 51L25 51L25 52L26 52L26 53L25 53L25 54L24 54L24 56L26 56L26 57L25 57L25 60L24 60L24 59L23 59L23 58L24 58L24 57L23 57L23 58L22 58L22 55L23 55L23 51L24 51L24 50L22 50L22 51L20 51L20 54L18 54L18 53L16 53L16 58L17 58L17 59L19 59L19 60L20 60L20 62L19 62L19 61L18 61L18 62L17 62L17 61L16 61L16 63L18 63L18 62L19 62L19 63L20 63L20 62L21 62L21 61L22 61L22 62L23 62L23 61L25 61L25 62L24 62L24 63L23 63L23 64L24 64L24 63L25 63L25 64L28 64L28 65L29 65L29 64L31 64L31 63L32 63L32 61L31 61L31 62L30 62L30 63L25 63L25 62L26 62L26 58L27 58L27 56L29 56L29 57L30 57L30 56L29 56L29 55L28 55L28 54L31 54L31 53L28 53L28 51L29 51L29 52L31 52L31 51L33 51L33 50L34 50L34 51L36 51L36 50L37 50L37 51L38 51L38 52L37 52L37 53L38 53L38 52L39 52L39 54L40 54L40 53L43 53L43 54L44 54L44 55L43 55L43 56L42 56L42 57L43 57L43 56L44 56L44 57L46 57L46 56L47 56L47 57L48 57L48 58L46 58L46 59L47 59L47 61L48 61L48 60L49 60L49 59L48 59L48 58L49 58L49 57L50 57L50 56L51 56L51 58L50 58L50 59L51 59L51 58L53 58L53 56L55 56L55 55L56 55L56 54L57 54L57 52L56 52L56 51L58 51L58 50L57 50L57 49L56 49L56 51L55 51L55 52L53 52L53 51L54 51L54 50L53 50L53 51L52 51L52 50L51 50L51 49L52 49L52 48L55 48L55 47L53 47L53 43L56 43L56 45L58 45L58 44L59 44L59 45L61 45L61 44L62 44L62 45L65 45L65 44L64 44L64 42L65 42L65 43L66 43L66 42L67 42L67 41L68 41L68 40L67 40L67 41L66 41L66 40L65 40L65 38L66 38L66 39L67 39L67 38L66 38L66 37L62 37L62 41L61 41L61 37L60 37L60 38L59 38L59 37L58 37L58 38L59 38L59 39L57 39L57 38L56 38L56 36L60 36L60 35L59 35L59 34L56 34L56 36L55 36L55 35L53 35L53 33L55 33L55 32L56 32L56 33L59 33L59 31L61 31L61 30L59 30L59 29L60 29L60 27L58 27L58 28L56 28L56 27L57 27L57 26L56 26L56 25L55 25L55 24L54 24L54 23L55 23L55 22L53 22L53 23L52 23L52 24L50 24L50 26L49 26L49 27L47 27L47 23L48 23L48 24L49 24L49 21L48 21L48 22L46 22L46 23L44 23L44 22L43 22L43 26L45 26L45 25L46 25L46 27L44 27L44 30L42 30L42 27L41 27L41 28L40 28L40 30L42 30L42 31L43 31L43 32L40 32L40 31L39 31L39 33L40 33L40 34L38 34L38 35L37 35L37 37L36 37L36 38L35 38L35 37L33 37L33 38L35 38L35 39L37 39L37 40L34 40L34 39L33 39L33 40L32 40L32 36L31 36L31 35L32 35L32 32L33 32L33 31L32 31L32 32L31 32L31 29L32 29L32 28L33 28L33 26L34 26L34 25L36 25L36 24L35 24L35 22L37 22L37 21L38 21L38 20L37 20L37 21L35 21L35 22L34 22L34 25L33 25L33 23L31 23L31 24L32 24L32 26L30 26L30 27L29 27L29 24L28 24L28 27L29 27L29 28L26 28L26 29L25 29L25 28L24 28L24 27L22 27L22 26L24 26L24 22L23 22L23 24L22 24L22 21L23 21L23 20L26 20L26 21L27 21L27 20L28 20L28 21L30 21L30 22L27 22L27 23L26 23L26 24L25 24L25 27L26 27L26 26L27 26L27 25L26 25L26 24L27 24L27 23L30 23L30 22L31 22L31 21L34 21L34 20L36 20L36 17L35 17L35 19L34 19L34 18L33 18L33 19L32 19L32 20L31 20L31 18L30 18L30 17L29 17L29 16ZM1 17L1 18L2 18L2 17ZM5 18L5 19L8 19L8 18ZM28 18L28 19L29 19L29 20L30 20L30 21L31 21L31 20L30 20L30 18ZM1 19L1 21L2 21L2 20L3 20L3 19ZM33 19L33 20L34 20L34 19ZM6 20L6 21L8 21L8 20ZM61 20L61 21L62 21L62 20ZM19 21L19 22L21 22L21 21ZM41 22L41 23L42 23L42 22ZM50 22L50 23L51 23L51 22ZM17 23L17 24L18 24L18 26L19 26L19 27L20 27L20 25L21 25L21 24L20 24L20 23L19 23L19 24L18 24L18 23ZM19 24L19 25L20 25L20 24ZM44 24L44 25L45 25L45 24ZM52 24L52 26L55 26L55 25L53 25L53 24ZM62 24L62 25L63 25L63 24ZM40 25L40 26L41 26L41 25ZM35 26L35 27L36 27L36 26ZM37 26L37 27L38 27L38 26ZM6 27L6 28L7 28L7 27ZM30 27L30 28L29 28L29 29L31 29L31 28L32 28L32 27ZM46 27L46 29L45 29L45 30L44 30L44 32L43 32L43 33L41 33L41 34L40 34L40 35L39 35L39 36L38 36L38 37L39 37L39 36L40 36L40 38L39 38L39 39L44 39L44 40L41 40L41 41L39 41L39 40L37 40L37 42L38 42L38 43L36 43L36 44L37 44L37 45L38 45L38 46L36 46L36 47L35 47L35 46L34 46L34 44L35 44L35 43L34 43L34 41L32 41L32 42L31 42L31 41L30 41L30 40L29 40L29 39L30 39L30 38L31 38L31 36L30 36L30 35L31 35L31 34L30 34L30 33L31 33L31 32L30 32L30 30L28 30L28 29L27 29L27 31L26 31L26 32L25 32L25 33L23 33L23 34L22 34L22 36L20 36L20 37L21 37L21 38L20 38L20 39L21 39L21 40L19 40L19 39L18 39L18 38L16 38L16 37L15 37L15 38L14 38L14 40L13 40L13 44L12 44L12 40L11 40L11 39L10 39L10 38L9 38L9 39L8 39L8 40L11 40L11 41L7 41L7 40L6 40L6 41L7 41L7 42L6 42L6 43L7 43L7 42L9 42L9 43L8 43L8 44L9 44L9 43L11 43L11 44L12 44L12 45L13 45L13 44L14 44L14 42L15 42L15 40L16 40L16 39L17 39L17 42L16 42L16 43L17 43L17 42L18 42L18 41L21 41L21 42L22 42L22 44L24 44L24 41L25 41L25 42L26 42L26 40L29 40L29 41L30 41L30 42L28 42L28 41L27 41L27 43L26 43L26 44L28 44L28 45L27 45L27 46L30 46L30 45L31 45L31 44L30 44L30 43L32 43L32 47L33 47L33 48L30 48L30 50L33 50L33 48L34 48L34 50L36 50L36 47L37 47L37 50L38 50L38 51L41 51L41 50L42 50L42 52L43 52L43 53L44 53L44 54L45 54L45 55L44 55L44 56L45 56L45 55L47 55L47 56L48 56L48 57L49 57L49 56L50 56L50 55L51 55L51 56L52 56L52 55L51 55L51 54L52 54L52 53L51 53L51 51L50 51L50 49L51 49L51 48L50 48L50 49L49 49L49 47L47 47L47 46L50 46L50 47L52 47L52 45L51 45L51 44L52 44L52 43L53 43L53 41L54 41L54 42L55 42L55 40L56 40L56 38L55 38L55 37L54 37L54 36L52 36L52 38L46 38L46 35L45 35L45 34L49 34L49 35L50 35L50 37L51 37L51 33L50 33L50 32L51 32L51 31L52 31L52 30L53 30L53 31L54 31L54 32L55 32L55 31L54 31L54 30L55 30L55 29L56 29L56 28L55 28L55 27L54 27L54 28L53 28L53 29L52 29L52 30L50 30L50 29L51 29L51 27L49 27L49 28L47 28L47 27ZM11 28L11 29L12 29L12 28ZM23 28L23 29L21 29L21 32L24 32L24 30L25 30L25 29L24 29L24 28ZM34 28L34 29L35 29L35 30L34 30L34 31L36 31L36 28ZM38 28L38 30L37 30L37 31L38 31L38 30L39 30L39 28ZM6 29L6 30L7 30L7 29ZM19 29L19 30L20 30L20 29ZM46 29L46 30L45 30L45 32L44 32L44 33L43 33L43 34L41 34L41 35L40 35L40 36L41 36L41 37L44 37L44 34L45 34L45 33L46 33L46 32L47 32L47 31L48 31L48 30L49 30L49 31L50 31L50 30L49 30L49 29L48 29L48 30L47 30L47 29ZM57 29L57 30L56 30L56 31L57 31L57 32L58 32L58 31L59 31L59 30L58 30L58 29ZM57 30L57 31L58 31L58 30ZM12 31L12 32L13 32L13 31ZM16 31L16 32L17 32L17 33L18 33L18 32L17 32L17 31ZM27 31L27 32L28 32L28 34L29 34L29 35L30 35L30 34L29 34L29 31ZM66 32L66 33L67 33L67 32ZM5 33L5 36L8 36L8 33ZM9 33L9 35L10 35L10 34L11 34L11 33ZM20 33L20 34L21 34L21 33ZM25 33L25 34L26 34L26 35L24 35L24 34L23 34L23 37L26 37L26 38L22 38L22 39L23 39L23 40L22 40L22 42L23 42L23 41L24 41L24 40L26 40L26 38L27 38L27 39L28 39L28 38L29 38L29 37L30 37L30 36L29 36L29 37L28 37L28 38L27 38L27 37L26 37L26 35L27 35L27 34L26 34L26 33ZM33 33L33 36L36 36L36 33ZM49 33L49 34L50 34L50 33ZM61 33L61 36L64 36L64 33ZM6 34L6 35L7 35L7 34ZM34 34L34 35L35 35L35 34ZM62 34L62 35L63 35L63 34ZM65 34L65 35L66 35L66 34ZM2 35L2 36L3 36L3 37L4 37L4 36L3 36L3 35ZM41 35L41 36L43 36L43 35ZM48 36L48 37L49 37L49 36ZM15 38L15 39L16 39L16 38ZM37 38L37 39L38 39L38 38ZM45 39L45 40L44 40L44 43L43 43L43 44L44 44L44 45L43 45L43 46L42 46L42 45L40 45L40 44L41 44L41 43L42 43L42 42L39 42L39 41L38 41L38 42L39 42L39 43L38 43L38 45L39 45L39 47L38 47L38 48L39 48L39 49L38 49L38 50L39 50L39 49L40 49L40 50L41 50L41 49L40 49L40 48L41 48L41 47L40 47L40 46L42 46L42 48L43 48L43 50L44 50L44 48L47 48L47 49L46 49L46 50L45 50L45 51L43 51L43 52L44 52L44 53L45 53L45 51L46 51L46 52L47 52L47 51L48 51L48 50L49 50L49 49L48 49L48 48L47 48L47 47L45 47L45 46L44 46L44 45L45 45L45 44L46 44L46 43L47 43L47 40L48 40L48 39ZM50 39L50 40L51 40L51 41L50 41L50 42L49 42L49 43L48 43L48 44L49 44L49 45L50 45L50 44L51 44L51 43L52 43L52 41L53 41L53 40L55 40L55 39L53 39L53 40L51 40L51 39ZM2 40L2 41L3 41L3 40ZM57 40L57 42L56 42L56 43L57 43L57 44L58 44L58 43L57 43L57 42L58 42L58 40ZM64 40L64 41L65 41L65 42L66 42L66 41L65 41L65 40ZM35 41L35 42L36 42L36 41ZM45 41L45 42L46 42L46 41ZM59 41L59 44L61 44L61 43L60 43L60 41ZM62 41L62 43L63 43L63 41ZM1 42L1 43L2 43L2 42ZM19 42L19 43L20 43L20 42ZM32 42L32 43L33 43L33 42ZM50 42L50 43L49 43L49 44L50 44L50 43L51 43L51 42ZM28 43L28 44L29 44L29 43ZM15 46L15 47L12 47L12 49L15 49L15 47L16 47L16 46ZM33 46L33 47L34 47L34 48L35 48L35 47L34 47L34 46ZM43 46L43 48L44 48L44 46ZM6 47L6 48L8 48L8 47ZM10 47L10 48L9 48L9 49L8 49L8 50L7 50L7 49L6 49L6 50L7 50L7 51L5 51L5 49L4 49L4 48L3 48L3 49L2 49L2 50L1 50L1 51L2 51L2 53L5 53L5 52L8 52L8 51L9 51L9 50L10 50L10 51L12 51L12 50L11 50L11 47ZM27 47L27 48L28 48L28 49L29 49L29 48L28 48L28 47ZM3 49L3 50L2 50L2 51L3 51L3 52L5 52L5 51L3 51L3 50L4 50L4 49ZM49 51L49 52L50 52L50 51ZM32 52L32 53L33 53L33 52ZM34 52L34 54L35 54L35 53L36 53L36 52ZM55 52L55 53L53 53L53 55L54 55L54 54L56 54L56 52ZM64 52L64 54L65 54L65 52ZM26 53L26 56L27 56L27 54L28 54L28 53ZM46 53L46 54L48 54L48 53ZM50 53L50 54L51 54L51 53ZM68 53L68 55L69 55L69 53ZM3 54L3 55L4 55L4 54ZM17 54L17 55L18 55L18 56L17 56L17 58L19 58L19 59L20 59L20 58L21 58L21 54L20 54L20 55L18 55L18 54ZM36 54L36 55L37 55L37 56L36 56L36 57L37 57L37 56L38 56L38 57L39 57L39 58L41 58L41 56L40 56L40 55L39 55L39 56L38 56L38 55L37 55L37 54ZM41 54L41 55L42 55L42 54ZM31 55L31 59L30 59L30 60L29 60L29 61L28 61L28 60L27 60L27 61L28 61L28 62L29 62L29 61L30 61L30 60L32 60L32 59L33 59L33 60L35 60L35 59L36 59L36 58L35 58L35 55L34 55L34 56L33 56L33 55ZM48 55L48 56L49 56L49 55ZM13 56L13 60L14 60L14 61L13 61L13 62L12 62L12 60L11 60L11 62L12 62L12 63L13 63L13 62L14 62L14 63L15 63L15 59L14 59L14 58L15 58L15 57L14 57L14 56ZM19 57L19 58L20 58L20 57ZM2 58L2 59L3 59L3 58ZM28 58L28 59L29 59L29 58ZM33 58L33 59L34 59L34 58ZM62 58L62 59L63 59L63 60L65 60L65 61L67 61L67 62L68 62L68 61L67 61L67 60L66 60L66 59L63 59L63 58ZM52 59L52 60L53 60L53 59ZM3 60L3 61L5 61L5 60ZM9 60L9 61L10 61L10 60ZM22 60L22 61L23 61L23 60ZM33 61L33 64L36 64L36 61ZM56 61L56 62L57 62L57 61ZM61 61L61 64L64 64L64 61ZM34 62L34 63L35 63L35 62ZM62 62L62 63L63 63L63 62ZM65 62L65 63L66 63L66 62ZM57 63L57 64L58 64L58 68L59 68L59 67L60 67L60 64L58 64L58 63ZM12 64L12 65L13 65L13 67L14 67L14 65L16 65L16 66L17 66L17 65L18 65L18 64L17 64L17 65L16 65L16 64ZM41 64L41 67L42 67L42 68L43 68L43 69L44 69L44 68L45 68L45 67L44 67L44 64ZM9 65L9 67L8 67L8 69L9 69L9 68L10 68L10 69L11 69L11 68L10 68L10 65ZM25 65L25 66L27 66L27 65ZM22 66L22 67L23 67L23 66ZM28 66L28 67L29 67L29 66ZM42 66L42 67L43 67L43 68L44 68L44 67L43 67L43 66ZM48 66L48 67L49 67L49 66ZM33 67L33 68L36 68L36 69L38 69L38 68L37 68L37 67ZM39 67L39 68L40 68L40 67ZM20 68L20 69L21 69L21 68ZM50 68L50 69L51 69L51 68ZM0 0L0 7L7 7L7 0ZM1 1L1 6L6 6L6 1ZM2 2L2 5L5 5L5 2ZM62 0L62 7L69 7L69 0ZM63 1L63 6L68 6L68 1ZM64 2L64 5L67 5L67 2ZM0 62L0 69L7 69L7 62ZM1 63L1 68L6 68L6 63ZM2 64L2 67L5 67L5 64Z" fill="#000000"/></g></g></svg>
