<?xml version="1.0" encoding="UTF-8"?>
<svg xmlns="http://www.w3.org/2000/svg" version="1.1" width="300" height="300" viewBox="0 0 300 300"><rect x="0" y="0" width="300" height="300" fill="#ffffff"/><g transform="scale(4.348)"><g transform="translate(0,0)"><path fill-rule="evenodd" d="M10 0L10 1L8 1L8 2L9 2L9 3L8 3L8 4L10 4L10 8L6 8L6 9L7 9L7 10L4 10L4 9L5 9L5 8L0 8L0 12L1 12L1 13L2 13L2 11L1 11L1 9L2 9L2 10L3 10L3 11L4 11L4 12L5 12L5 11L7 11L7 12L6 12L6 13L4 13L4 14L2 14L2 15L4 15L4 16L3 16L3 18L2 18L2 20L4 20L4 19L7 19L7 20L6 20L6 21L7 21L7 20L10 20L10 21L8 21L8 23L9 23L9 22L10 22L10 21L12 21L12 20L13 20L13 22L12 22L12 24L13 24L13 25L12 25L12 26L15 26L15 27L14 27L14 28L13 28L13 30L14 30L14 29L16 29L16 28L17 28L17 30L18 30L18 31L16 31L16 33L15 33L15 32L14 32L14 31L11 31L11 30L12 30L12 29L11 29L11 30L10 30L10 31L11 31L11 32L12 32L12 34L11 34L11 35L10 35L10 36L9 36L9 34L10 34L10 33L9 33L9 31L7 31L7 30L6 30L6 29L8 29L8 28L6 28L6 29L5 29L5 28L4 28L4 27L3 27L3 28L2 28L2 27L0 27L0 29L1 29L1 30L2 30L2 31L1 31L1 32L2 32L2 31L3 31L3 30L6 30L6 31L4 31L4 32L3 32L3 34L2 34L2 33L1 33L1 38L2 38L2 39L1 39L1 40L0 40L0 41L1 41L1 43L2 43L2 41L1 41L1 40L2 40L2 39L3 39L3 40L4 40L4 39L3 39L3 37L4 37L4 38L5 38L5 41L3 41L3 43L5 43L5 44L3 44L3 46L2 46L2 47L0 47L0 48L2 48L2 47L3 47L3 49L2 49L2 50L1 50L1 51L2 51L2 52L0 52L0 53L1 53L1 54L0 54L0 55L1 55L1 56L3 56L3 55L4 55L4 54L5 54L5 57L4 57L4 59L7 59L7 60L6 60L6 61L7 61L7 60L8 60L8 63L10 63L10 64L11 64L11 65L10 65L10 66L9 66L9 64L8 64L8 69L12 69L12 67L11 67L11 65L12 65L12 66L13 66L13 69L15 69L15 67L14 67L14 66L15 66L15 64L18 64L18 65L17 65L17 67L16 67L16 69L22 69L22 68L17 68L17 67L18 67L18 66L19 66L19 67L20 67L20 66L19 66L19 65L20 65L20 64L23 64L23 66L21 66L21 67L24 67L24 68L23 68L23 69L26 69L26 68L27 68L27 69L28 69L28 68L29 68L29 69L32 69L32 67L33 67L33 65L36 65L36 66L37 66L37 67L35 67L35 66L34 66L34 67L35 67L35 68L36 68L36 69L38 69L38 68L37 68L37 67L39 67L39 68L40 68L40 67L41 67L41 66L44 66L44 68L43 68L43 67L42 67L42 68L43 68L43 69L44 69L44 68L47 68L47 69L51 69L51 68L52 68L52 67L53 67L53 66L54 66L54 67L56 67L56 68L55 68L55 69L56 69L56 68L57 68L57 69L58 69L58 68L62 68L62 67L63 67L63 66L61 66L61 65L64 65L64 66L66 66L66 67L65 67L65 69L68 69L68 68L67 68L67 65L68 65L68 64L67 64L67 63L68 63L68 62L69 62L69 61L68 61L68 58L69 58L69 57L68 57L68 55L67 55L67 54L69 54L69 53L67 53L67 52L68 52L68 50L69 50L69 47L68 47L68 44L67 44L67 43L68 43L68 40L67 40L67 39L68 39L68 38L67 38L67 37L68 37L68 36L69 36L69 35L68 35L68 34L69 34L69 31L68 31L68 30L69 30L69 29L68 29L68 26L69 26L69 24L68 24L68 22L69 22L69 21L68 21L68 18L69 18L69 17L67 17L67 15L68 15L68 12L67 12L67 11L68 11L68 8L67 8L67 11L65 11L65 9L66 9L66 8L65 8L65 9L64 9L64 8L63 8L63 9L64 9L64 10L63 10L63 11L62 11L62 8L61 8L61 6L60 6L60 7L59 7L59 4L57 4L57 5L56 5L56 1L55 1L55 0L51 0L51 2L52 2L52 1L53 1L53 2L54 2L54 1L55 1L55 4L54 4L54 3L53 3L53 4L51 4L51 3L48 3L48 2L47 2L47 3L48 3L48 5L49 5L49 6L48 6L48 7L47 7L47 6L46 6L46 5L44 5L44 3L45 3L45 4L46 4L46 3L45 3L45 2L44 2L44 3L43 3L43 0L41 0L41 1L38 1L38 0L37 0L37 1L35 1L35 0L33 0L33 1L32 1L32 0L31 0L31 1L30 1L30 0L28 0L28 1L25 1L25 0L23 0L23 1L25 1L25 2L23 2L23 4L22 4L22 3L19 3L19 2L20 2L20 1L19 1L19 0L16 0L16 2L15 2L15 3L14 3L14 1L15 1L15 0L14 0L14 1L13 1L13 0ZM21 0L21 2L22 2L22 0ZM44 0L44 1L45 1L45 0ZM48 0L48 1L49 1L49 2L50 2L50 0ZM57 0L57 3L59 3L59 2L58 2L58 1L61 1L61 0ZM12 1L12 2L11 2L11 3L10 3L10 4L12 4L12 6L11 6L11 9L13 9L13 7L14 7L14 6L13 6L13 4L14 4L14 5L15 5L15 7L16 7L16 5L17 5L17 8L15 8L15 11L16 11L16 10L17 10L17 11L20 11L20 12L19 12L19 13L20 13L20 15L22 15L22 14L23 14L23 16L19 16L19 14L18 14L18 15L16 15L16 14L17 14L17 12L15 12L15 13L14 13L14 12L12 12L12 13L11 13L11 14L13 14L13 16L12 16L12 17L13 17L13 18L14 18L14 17L13 17L13 16L18 16L18 17L17 17L17 18L18 18L18 17L21 17L21 20L19 20L19 21L17 21L17 22L19 22L19 21L20 21L20 23L22 23L22 22L23 22L23 21L24 21L24 20L23 20L23 19L24 19L24 18L23 18L23 16L25 16L25 17L26 17L26 19L28 19L28 20L26 20L26 23L23 23L23 24L25 24L25 25L28 25L28 26L26 26L26 27L25 27L25 28L24 28L24 27L23 27L23 26L24 26L24 25L22 25L22 24L21 24L21 25L20 25L20 26L19 26L19 25L18 25L18 24L19 24L19 23L18 23L18 24L16 24L16 25L15 25L15 26L16 26L16 25L18 25L18 26L17 26L17 27L19 27L19 29L20 29L20 31L19 31L19 32L20 32L20 33L19 33L19 34L17 34L17 33L18 33L18 32L17 32L17 33L16 33L16 34L15 34L15 33L13 33L13 35L11 35L11 38L9 38L9 39L8 39L8 38L7 38L7 37L6 37L6 38L7 38L7 39L6 39L6 40L7 40L7 41L5 41L5 42L8 42L8 43L6 43L6 44L8 44L8 48L7 48L7 47L6 47L6 46L7 46L7 45L6 45L6 46L5 46L5 45L4 45L4 47L6 47L6 48L4 48L4 50L2 50L2 51L6 51L6 52L5 52L5 54L7 54L7 55L6 55L6 56L7 56L7 57L6 57L6 58L8 58L8 59L9 59L9 62L10 62L10 63L11 63L11 62L13 62L13 64L14 64L14 62L17 62L17 63L18 63L18 62L19 62L19 64L20 64L20 62L21 62L21 61L25 61L25 62L22 62L22 63L23 63L23 64L26 64L26 63L25 63L25 62L29 62L29 63L28 63L28 65L25 65L25 68L26 68L26 67L27 67L27 68L28 68L28 67L27 67L27 66L28 66L28 65L30 65L30 66L32 66L32 65L30 65L30 64L31 64L31 63L32 63L32 58L30 58L30 59L29 59L29 57L30 57L30 56L29 56L29 57L27 57L27 56L28 56L28 55L27 55L27 54L29 54L29 55L30 55L30 53L27 53L27 52L26 52L26 51L25 51L25 50L23 50L23 48L20 48L20 47L21 47L21 46L22 46L22 47L23 47L23 45L24 45L24 44L26 44L26 45L25 45L25 47L24 47L24 48L25 48L25 49L26 49L26 50L27 50L27 51L28 51L28 52L29 52L29 50L30 50L30 52L31 52L31 57L35 57L35 59L36 59L36 57L38 57L38 58L37 58L37 61L38 61L38 63L37 63L37 64L38 64L38 65L37 65L37 66L39 66L39 67L40 67L40 66L41 66L41 64L44 64L44 66L45 66L45 67L46 67L46 66L47 66L47 67L48 67L48 68L49 68L49 67L50 67L50 68L51 68L51 66L53 66L53 65L55 65L55 66L56 66L56 67L59 67L59 66L60 66L60 60L63 60L63 58L65 58L65 56L66 56L66 58L68 58L68 57L67 57L67 56L66 56L66 55L65 55L65 52L64 52L64 53L62 53L62 51L63 51L63 50L67 50L67 49L68 49L68 48L64 48L64 49L63 49L63 46L64 46L64 47L66 47L66 44L62 44L62 43L63 43L63 42L65 42L65 43L67 43L67 42L66 42L66 40L65 40L65 41L63 41L63 40L62 40L62 43L61 43L61 41L60 41L60 40L61 40L61 39L66 39L66 38L65 38L65 37L64 37L64 38L63 38L63 37L62 37L62 38L61 38L61 39L60 39L60 38L59 38L59 37L60 37L60 35L58 35L58 34L59 34L59 33L58 33L58 32L61 32L61 31L63 31L63 32L64 32L64 31L67 31L67 32L66 32L66 33L67 33L67 34L66 34L66 35L65 35L65 36L66 36L66 37L67 37L67 36L68 36L68 35L67 35L67 34L68 34L68 31L67 31L67 28L66 28L66 27L65 27L65 26L66 26L66 25L65 25L65 24L63 24L63 21L64 21L64 22L65 22L65 23L66 23L66 22L65 22L65 19L66 19L66 18L63 18L63 17L66 17L66 16L65 16L65 15L64 15L64 14L67 14L67 13L66 13L66 12L65 12L65 11L64 11L64 12L63 12L63 13L62 13L62 15L61 15L61 14L60 14L60 13L61 13L61 12L60 12L60 11L59 11L59 7L58 7L58 5L57 5L57 8L54 8L54 5L53 5L53 8L51 8L51 9L50 9L50 6L49 6L49 9L50 9L50 10L47 10L47 7L46 7L46 6L45 6L45 7L44 7L44 5L43 5L43 7L42 7L42 5L41 5L41 4L42 4L42 3L41 3L41 2L42 2L42 1L41 1L41 2L40 2L40 3L39 3L39 2L37 2L37 3L38 3L38 4L37 4L37 5L38 5L38 6L37 6L37 7L38 7L38 6L39 6L39 7L40 7L40 6L41 6L41 8L37 8L37 9L38 9L38 10L36 10L36 9L35 9L35 10L36 10L36 11L34 11L34 10L33 10L33 9L32 9L32 11L30 11L30 9L31 9L31 8L32 8L32 5L30 5L30 6L29 6L29 3L31 3L31 4L32 4L32 3L33 3L33 4L36 4L36 3L35 3L35 1L33 1L33 2L30 2L30 1L29 1L29 3L28 3L28 2L27 2L27 3L26 3L26 2L25 2L25 3L26 3L26 6L25 6L25 5L24 5L24 6L23 6L23 5L22 5L22 4L20 4L20 6L19 6L19 7L18 7L18 5L19 5L19 4L16 4L16 3L18 3L18 2L19 2L19 1L17 1L17 2L16 2L16 3L15 3L15 4L14 4L14 3L13 3L13 4L12 4L12 2L13 2L13 1ZM27 3L27 4L28 4L28 3ZM60 3L60 5L61 5L61 3ZM15 4L15 5L16 5L16 4ZM39 4L39 5L40 5L40 4ZM49 4L49 5L51 5L51 4ZM8 5L8 7L9 7L9 5ZM21 5L21 6L20 6L20 9L19 9L19 8L17 8L17 10L20 10L20 9L22 9L22 8L21 8L21 6L22 6L22 7L23 7L23 8L24 8L24 9L23 9L23 10L24 10L24 9L25 9L25 10L26 10L26 11L25 11L25 12L24 12L24 11L22 11L22 12L24 12L24 13L23 13L23 14L27 14L27 13L28 13L28 12L29 12L29 13L30 13L30 14L31 14L31 15L29 15L29 14L28 14L28 15L27 15L27 16L29 16L29 18L30 18L30 19L29 19L29 20L30 20L30 21L29 21L29 22L27 22L27 23L26 23L26 24L28 24L28 25L29 25L29 26L28 26L28 27L29 27L29 31L27 31L27 30L25 30L25 29L26 29L26 28L25 28L25 29L24 29L24 28L23 28L23 27L21 27L21 26L22 26L22 25L21 25L21 26L20 26L20 28L23 28L23 29L22 29L22 30L25 30L25 31L26 31L26 32L25 32L25 33L24 33L24 31L20 31L20 32L23 32L23 34L22 34L22 33L21 33L21 34L22 34L22 35L23 35L23 36L24 36L24 37L23 37L23 38L25 38L25 37L26 37L26 36L27 36L27 35L28 35L28 36L29 36L29 37L30 37L30 38L27 38L27 39L26 39L26 40L25 40L25 39L24 39L24 41L23 41L23 42L24 42L24 41L25 41L25 43L26 43L26 44L28 44L28 45L26 45L26 46L28 46L28 45L33 45L33 46L32 46L32 47L33 47L33 46L34 46L34 48L36 48L36 47L37 47L37 48L38 48L38 47L39 47L39 48L40 48L40 47L41 47L41 48L42 48L42 49L41 49L41 50L39 50L39 51L38 51L38 49L37 49L37 50L36 50L36 49L35 49L35 50L36 50L36 51L35 51L35 53L36 53L36 54L35 54L35 57L36 57L36 56L37 56L37 54L40 54L40 55L39 55L39 56L38 56L38 57L39 57L39 59L38 59L38 61L39 61L39 62L40 62L40 59L41 59L41 58L42 58L42 60L41 60L41 62L42 62L42 63L44 63L44 64L45 64L45 66L46 66L46 64L45 64L45 63L47 63L47 62L50 62L50 61L51 61L51 62L52 62L52 61L51 61L51 60L52 60L52 59L51 59L51 58L49 58L49 59L51 59L51 60L50 60L50 61L49 61L49 60L47 60L47 62L45 62L45 61L46 61L46 58L45 58L45 59L44 59L44 60L43 60L43 57L44 57L44 56L46 56L46 57L47 57L47 56L48 56L48 57L50 57L50 56L51 56L51 57L52 57L52 58L54 58L54 59L53 59L53 60L54 60L54 61L53 61L53 62L55 62L55 61L56 61L56 59L57 59L57 58L56 58L56 56L55 56L55 55L56 55L56 54L55 54L55 53L56 53L56 52L53 52L53 53L51 53L51 52L49 52L49 51L48 51L48 50L47 50L47 51L46 51L46 52L45 52L45 49L46 49L46 47L47 47L47 49L49 49L49 50L50 50L50 51L51 51L51 50L50 50L50 49L51 49L51 48L52 48L52 47L51 47L51 46L49 46L49 45L50 45L50 44L53 44L53 45L52 45L52 46L54 46L54 48L55 48L55 49L53 49L53 50L52 50L52 51L56 51L56 50L57 50L57 51L58 51L58 50L57 50L57 49L58 49L58 46L56 46L56 43L57 43L57 45L59 45L59 42L60 42L60 41L59 41L59 40L60 40L60 39L59 39L59 38L57 38L57 37L56 37L56 34L55 34L55 33L56 33L56 32L53 32L53 35L54 35L54 34L55 34L55 37L53 37L53 38L54 38L54 39L53 39L53 42L51 42L51 43L50 43L50 41L49 41L49 40L50 40L50 39L51 39L51 40L52 40L52 39L51 39L51 38L52 38L52 37L51 37L51 38L49 38L49 36L50 36L50 35L49 35L49 34L50 34L50 33L51 33L51 32L52 32L52 30L51 30L51 32L50 32L50 29L51 29L51 28L52 28L52 27L53 27L53 30L55 30L55 31L56 31L56 30L55 30L55 29L56 29L56 28L55 28L55 29L54 29L54 27L53 27L53 26L55 26L55 27L58 27L58 28L57 28L57 29L59 29L59 30L58 30L58 31L57 31L57 32L58 32L58 31L59 31L59 30L62 30L62 29L63 29L63 30L65 30L65 29L66 29L66 28L65 28L65 27L63 27L63 26L64 26L64 25L63 25L63 26L61 26L61 25L62 25L62 21L63 21L63 20L64 20L64 19L63 19L63 18L62 18L62 16L64 16L64 15L62 15L62 16L61 16L61 15L60 15L60 14L59 14L59 16L58 16L58 17L59 17L59 18L62 18L62 19L63 19L63 20L61 20L61 19L59 19L59 20L58 20L58 19L57 19L57 18L55 18L55 17L56 17L56 14L57 14L57 15L58 15L58 14L57 14L57 13L56 13L56 12L57 12L57 10L56 10L56 9L54 9L54 8L53 8L53 10L51 10L51 11L50 11L50 13L49 13L49 12L46 12L46 11L45 11L45 13L44 13L44 12L43 12L43 13L42 13L42 14L41 14L41 12L42 12L42 10L45 10L45 9L46 9L46 7L45 7L45 9L44 9L44 8L43 8L43 9L41 9L41 12L40 12L40 11L39 11L39 10L38 10L38 11L37 11L37 14L35 14L35 15L36 15L36 16L35 16L35 17L33 17L33 16L34 16L34 15L33 15L33 14L34 14L34 13L36 13L36 12L34 12L34 11L33 11L33 12L34 12L34 13L33 13L33 14L31 14L31 13L32 13L32 12L30 12L30 11L27 11L27 10L28 10L28 9L30 9L30 8L28 8L28 9L27 9L27 10L26 10L26 7L27 7L27 6L28 6L28 7L29 7L29 6L28 6L28 5L27 5L27 6L26 6L26 7L25 7L25 6L24 6L24 7L23 7L23 6L22 6L22 5ZM33 5L33 8L36 8L36 5ZM12 6L12 7L13 7L13 6ZM30 6L30 7L31 7L31 6ZM34 6L34 7L35 7L35 6ZM51 6L51 7L52 7L52 6ZM55 6L55 7L56 7L56 6ZM24 7L24 8L25 8L25 7ZM60 8L60 9L61 9L61 8ZM8 9L8 11L10 11L10 12L11 12L11 11L10 11L10 9ZM55 10L55 11L53 11L53 12L51 12L51 13L50 13L50 14L47 14L47 13L45 13L45 14L44 14L44 13L43 13L43 14L42 14L42 15L40 15L40 14L39 14L39 13L40 13L40 12L38 12L38 14L37 14L37 17L36 17L36 18L37 18L37 19L39 19L39 21L43 21L43 20L44 20L44 22L43 22L43 24L44 24L44 25L43 25L43 26L46 26L46 27L44 27L44 29L43 29L43 30L42 30L42 27L39 27L39 28L40 28L40 29L38 29L38 28L37 28L37 29L38 29L38 30L37 30L37 31L38 31L38 30L40 30L40 31L43 31L43 32L39 32L39 33L38 33L38 32L37 32L37 33L38 33L38 34L37 34L37 36L38 36L38 37L36 37L36 39L35 39L35 40L33 40L33 39L34 39L34 38L35 38L35 37L34 37L34 38L33 38L33 39L32 39L32 38L30 38L30 39L29 39L29 40L26 40L26 41L27 41L27 43L28 43L28 44L30 44L30 43L28 43L28 42L30 42L30 41L31 41L31 43L32 43L32 44L33 44L33 45L34 45L34 46L35 46L35 47L36 47L36 45L38 45L38 46L37 46L37 47L38 47L38 46L39 46L39 47L40 47L40 46L39 46L39 45L40 45L40 44L41 44L41 43L40 43L40 41L41 41L41 40L44 40L44 42L43 42L43 43L44 43L44 42L45 42L45 44L43 44L43 45L45 45L45 46L42 46L42 45L41 45L41 46L42 46L42 48L43 48L43 47L44 47L44 49L43 49L43 50L44 50L44 49L45 49L45 47L46 47L46 46L47 46L47 47L48 47L48 48L49 48L49 49L50 49L50 48L51 48L51 47L49 47L49 46L47 46L47 45L46 45L46 44L47 44L47 43L48 43L48 44L50 44L50 43L48 43L48 41L47 41L47 40L48 40L48 38L47 38L47 37L45 37L45 36L49 36L49 35L48 35L48 34L49 34L49 33L50 33L50 32L49 32L49 31L47 31L47 29L46 29L46 28L49 28L49 29L48 29L48 30L49 30L49 29L50 29L50 27L47 27L47 25L48 25L48 24L49 24L49 25L50 25L50 26L51 26L51 25L53 25L53 23L55 23L55 24L56 24L56 25L55 25L55 26L58 26L58 27L59 27L59 23L60 23L60 22L59 22L59 21L60 21L60 20L59 20L59 21L57 21L57 20L56 20L56 19L55 19L55 18L54 18L54 17L53 17L53 16L55 16L55 15L54 15L54 14L53 14L53 13L55 13L55 14L56 14L56 13L55 13L55 12L56 12L56 10ZM26 11L26 12L25 12L25 13L27 13L27 11ZM7 12L7 13L6 13L6 14L5 14L5 16L4 16L4 18L5 18L5 17L6 17L6 18L7 18L7 19L10 19L10 20L12 20L12 19L10 19L10 18L11 18L11 16L9 16L9 17L8 17L8 16L7 16L7 15L8 15L8 14L7 14L7 13L9 13L9 12ZM59 12L59 13L60 13L60 12ZM13 13L13 14L14 14L14 15L15 15L15 14L14 14L14 13ZM21 13L21 14L22 14L22 13ZM63 13L63 14L64 14L64 13ZM6 14L6 15L7 15L7 14ZM9 14L9 15L10 15L10 14ZM38 14L38 17L37 17L37 18L38 18L38 17L39 17L39 16L40 16L40 15L39 15L39 14ZM43 14L43 15L44 15L44 16L42 16L42 17L41 17L41 18L39 18L39 19L41 19L41 20L42 20L42 19L43 19L43 17L44 17L44 16L45 16L45 18L44 18L44 19L45 19L45 18L46 18L46 19L47 19L47 18L48 18L48 19L50 19L50 16L49 16L49 15L48 15L48 16L45 16L45 15L44 15L44 14ZM50 14L50 15L51 15L51 14ZM0 15L0 17L2 17L2 16L1 16L1 15ZM25 15L25 16L26 16L26 15ZM31 15L31 17L32 17L32 16L33 16L33 15ZM52 15L52 16L51 16L51 17L52 17L52 16L53 16L53 15ZM6 16L6 17L7 17L7 16ZM59 16L59 17L61 17L61 16ZM9 17L9 18L10 18L10 17ZM15 17L15 19L16 19L16 17ZM27 17L27 18L28 18L28 17ZM46 17L46 18L47 18L47 17ZM48 17L48 18L49 18L49 17ZM19 18L19 19L20 19L20 18ZM31 18L31 19L32 19L32 20L31 20L31 21L30 21L30 22L29 22L29 23L30 23L30 22L31 22L31 23L32 23L32 24L31 24L31 25L32 25L32 26L31 26L31 27L30 27L30 26L29 26L29 27L30 27L30 28L31 28L31 29L30 29L30 30L31 30L31 31L32 31L32 32L34 32L34 31L33 31L33 30L34 30L34 29L35 29L35 30L36 30L36 28L35 28L35 27L36 27L36 26L35 26L35 25L36 25L36 24L35 24L35 23L34 23L34 24L33 24L33 22L35 22L35 21L38 21L38 20L35 20L35 19L32 19L32 18ZM53 18L53 19L52 19L52 20L54 20L54 18ZM13 19L13 20L14 20L14 19ZM17 19L17 20L18 20L18 19ZM15 20L15 21L16 21L16 20ZM33 20L33 21L31 21L31 22L33 22L33 21L34 21L34 20ZM46 20L46 21L47 21L47 22L48 22L48 21L49 21L49 22L50 22L50 23L51 23L51 22L50 22L50 21L49 21L49 20ZM55 20L55 21L53 21L53 22L55 22L55 21L56 21L56 22L57 22L57 23L58 23L58 22L57 22L57 21L56 21L56 20ZM0 21L0 26L1 26L1 25L2 25L2 24L3 24L3 25L4 25L4 26L5 26L5 25L4 25L4 24L6 24L6 25L8 25L8 26L9 26L9 29L10 29L10 28L12 28L12 27L11 27L11 26L9 26L9 25L8 25L8 24L6 24L6 23L7 23L7 22L5 22L5 21L4 21L4 22L3 22L3 23L1 23L1 22L2 22L2 21ZM21 21L21 22L22 22L22 21ZM4 22L4 23L5 23L5 22ZM14 22L14 24L15 24L15 22ZM37 22L37 23L42 23L42 22ZM44 22L44 23L45 23L45 24L46 24L46 25L47 25L47 24L48 24L48 23L47 23L47 24L46 24L46 22ZM29 24L29 25L30 25L30 24ZM32 24L32 25L33 25L33 24ZM34 24L34 25L35 25L35 24ZM39 24L39 25L37 25L37 26L41 26L41 25L42 25L42 24ZM50 24L50 25L51 25L51 24ZM57 24L57 25L58 25L58 24ZM67 25L67 26L68 26L68 25ZM6 26L6 27L7 27L7 26ZM33 26L33 27L31 27L31 28L32 28L32 29L31 29L31 30L33 30L33 29L34 29L34 28L33 28L33 27L34 27L34 26ZM60 26L60 27L61 27L61 26ZM15 27L15 28L16 28L16 27ZM62 27L62 28L63 28L63 29L65 29L65 28L63 28L63 27ZM3 28L3 29L2 29L2 30L3 30L3 29L4 29L4 28ZM27 28L27 29L28 29L28 28ZM59 28L59 29L61 29L61 28ZM44 29L44 30L45 30L45 29ZM6 31L6 32L7 32L7 31ZM44 31L44 32L43 32L43 33L40 33L40 35L41 35L41 37L40 37L40 38L39 38L39 40L38 40L38 41L37 41L37 39L38 39L38 38L37 38L37 39L36 39L36 40L35 40L35 44L37 44L37 43L36 43L36 42L38 42L38 44L40 44L40 43L39 43L39 42L38 42L38 41L39 41L39 40L41 40L41 39L42 39L42 38L43 38L43 39L45 39L45 40L47 40L47 38L45 38L45 37L44 37L44 36L45 36L45 33L44 33L44 32L46 32L46 33L47 33L47 34L48 34L48 33L49 33L49 32L46 32L46 31ZM28 32L28 33L25 33L25 36L26 36L26 34L28 34L28 33L29 33L29 36L30 36L30 33L29 33L29 32ZM5 33L5 36L8 36L8 33ZM33 33L33 36L36 36L36 33ZM43 33L43 34L41 34L41 35L43 35L43 36L42 36L42 37L41 37L41 38L40 38L40 39L41 39L41 38L42 38L42 37L43 37L43 36L44 36L44 33ZM57 33L57 34L58 34L58 33ZM61 33L61 36L64 36L64 33ZM3 34L3 35L4 35L4 34ZM6 34L6 35L7 35L7 34ZM16 34L16 36L17 36L17 38L15 38L15 39L13 39L13 40L12 40L12 41L11 41L11 39L12 39L12 38L14 38L14 36L15 36L15 35L14 35L14 36L12 36L12 38L11 38L11 39L10 39L10 40L9 40L9 43L8 43L8 44L9 44L9 46L11 46L11 47L10 47L10 48L8 48L8 49L11 49L11 50L10 50L10 51L11 51L11 52L12 52L12 53L11 53L11 54L10 54L10 52L8 52L8 51L9 51L9 50L6 50L6 49L7 49L7 48L6 48L6 49L5 49L5 50L6 50L6 51L7 51L7 52L6 52L6 53L7 53L7 54L8 54L8 53L9 53L9 56L8 56L8 55L7 55L7 56L8 56L8 57L10 57L10 55L11 55L11 56L13 56L13 57L16 57L16 58L13 58L13 61L14 61L14 59L16 59L16 60L17 60L17 62L18 62L18 61L19 61L19 62L20 62L20 61L19 61L19 59L20 59L20 55L19 55L19 54L20 54L20 52L21 52L21 50L22 50L22 49L18 49L18 48L17 48L17 47L18 47L18 46L19 46L19 47L20 47L20 45L21 45L21 44L24 44L24 43L22 43L22 42L21 42L21 44L20 44L20 43L19 43L19 42L20 42L20 40L21 40L21 41L22 41L22 40L21 40L21 39L22 39L22 38L21 38L21 39L20 39L20 37L21 37L21 36L20 36L20 37L19 37L19 36L18 36L18 35L17 35L17 34ZM19 34L19 35L20 35L20 34ZM34 34L34 35L35 35L35 34ZM62 34L62 35L63 35L63 34ZM31 35L31 37L32 37L32 35ZM57 35L57 36L58 36L58 37L59 37L59 36L58 36L58 35ZM66 35L66 36L67 36L67 35ZM17 38L17 39L16 39L16 40L15 40L15 41L16 41L16 42L14 42L14 43L13 43L13 41L12 41L12 42L11 42L11 41L10 41L10 42L11 42L11 43L9 43L9 44L10 44L10 45L11 45L11 46L12 46L12 47L14 47L14 46L15 46L15 47L17 47L17 46L18 46L18 45L14 45L14 43L16 43L16 44L18 44L18 43L17 43L17 41L18 41L18 42L19 42L19 41L18 41L18 40L17 40L17 39L18 39L18 38ZM55 38L55 39L54 39L54 40L56 40L56 42L59 42L59 41L57 41L57 40L59 40L59 39L57 39L57 40L56 40L56 38ZM7 39L7 40L8 40L8 39ZM19 39L19 40L20 40L20 39ZM29 40L29 41L30 41L30 40ZM32 40L32 43L34 43L34 42L33 42L33 40ZM46 42L46 43L47 43L47 42ZM54 42L54 43L53 43L53 44L54 44L54 43L55 43L55 42ZM11 43L11 44L12 44L12 43ZM1 44L1 45L2 45L2 44ZM60 45L60 46L59 46L59 48L60 48L60 49L59 49L59 51L62 51L62 50L63 50L63 49L62 49L62 46L61 46L61 45ZM55 46L55 48L56 48L56 49L57 49L57 48L56 48L56 46ZM25 47L25 48L26 48L26 47ZM30 47L30 48L29 48L29 49L31 49L31 50L32 50L32 56L34 56L34 54L33 54L33 53L34 53L34 52L33 52L33 51L34 51L34 50L33 50L33 48L32 48L32 49L31 49L31 47ZM60 47L60 48L61 48L61 47ZM13 48L13 49L12 49L12 50L11 50L11 51L12 51L12 50L13 50L13 53L16 53L16 57L17 57L17 58L18 58L18 59L19 59L19 58L18 58L18 57L17 57L17 56L19 56L19 55L17 55L17 54L19 54L19 53L16 53L16 52L17 52L17 51L18 51L18 49L15 49L15 48ZM14 49L14 52L15 52L15 49ZM27 49L27 50L28 50L28 49ZM60 49L60 50L62 50L62 49ZM19 50L19 51L20 51L20 50ZM41 50L41 52L40 52L40 51L39 51L39 52L40 52L40 54L41 54L41 55L42 55L42 54L41 54L41 52L44 52L44 53L43 53L43 56L42 56L42 57L43 57L43 56L44 56L44 53L45 53L45 54L46 54L46 56L47 56L47 55L48 55L48 56L50 56L50 54L51 54L51 56L52 56L52 57L54 57L54 56L52 56L52 54L51 54L51 53L50 53L50 54L47 54L47 53L45 53L45 52L44 52L44 51L42 51L42 50ZM22 51L22 52L23 52L23 54L22 54L22 55L21 55L21 56L22 56L22 57L21 57L21 58L22 58L22 57L24 57L24 58L23 58L23 59L24 59L24 60L25 60L25 61L26 61L26 59L27 59L27 61L28 61L28 59L27 59L27 57L25 57L25 56L27 56L27 55L26 55L26 52L25 52L25 51L24 51L24 52L23 52L23 51ZM2 52L2 54L1 54L1 55L2 55L2 54L3 54L3 53L4 53L4 52ZM36 52L36 53L38 53L38 52ZM60 52L60 54L59 54L59 55L58 55L58 54L57 54L57 55L58 55L58 56L60 56L60 54L61 54L61 57L60 57L60 58L59 58L59 59L58 59L58 60L59 60L59 59L60 59L60 58L61 58L61 59L62 59L62 58L61 58L61 57L63 57L63 56L65 56L65 55L63 55L63 56L62 56L62 53L61 53L61 52ZM11 54L11 55L14 55L14 54ZM54 54L54 55L55 55L55 54ZM39 56L39 57L41 57L41 56ZM0 57L0 61L1 61L1 57ZM2 57L2 59L3 59L3 57ZM11 57L11 59L10 59L10 58L9 58L9 59L10 59L10 60L12 60L12 57ZM33 58L33 59L34 59L34 58ZM47 58L47 59L48 59L48 58ZM55 58L55 59L56 59L56 58ZM21 59L21 60L22 60L22 59ZM3 60L3 61L5 61L5 60ZM29 60L29 62L30 62L30 63L29 63L29 64L30 64L30 63L31 63L31 60ZM42 60L42 61L43 61L43 62L44 62L44 61L45 61L45 60L44 60L44 61L43 61L43 60ZM66 60L66 61L67 61L67 62L68 62L68 61L67 61L67 60ZM33 61L33 64L36 64L36 61ZM57 61L57 62L58 62L58 63L57 63L57 65L59 65L59 62L58 62L58 61ZM61 61L61 64L64 64L64 61ZM34 62L34 63L35 63L35 62ZM62 62L62 63L63 63L63 62ZM65 62L65 63L66 63L66 62ZM38 63L38 64L41 64L41 63ZM48 63L48 64L47 64L47 66L48 66L48 67L49 67L49 66L50 66L50 64L49 64L49 63ZM51 63L51 64L52 64L52 63ZM54 63L54 64L55 64L55 65L56 65L56 63ZM65 64L65 65L67 65L67 64ZM10 67L10 68L11 68L11 67ZM30 67L30 68L31 68L31 67ZM33 68L33 69L34 69L34 68ZM63 68L63 69L64 69L64 68ZM0 0L0 7L7 7L7 0ZM1 1L1 6L6 6L6 1ZM2 2L2 5L5 5L5 2ZM62 0L62 7L69 7L69 0ZM63 1L63 6L68 6L68 1ZM64 2L64 5L67 5L67 2ZM0 62L0 69L7 69L7 62ZM1 63L1 68L6 68L6 63ZM2 64L2 67L5 67L5 64Z" fill="#000000"/></g></g></svg>
