<?xml version="1.0" encoding="UTF-8"?>
<svg xmlns="http://www.w3.org/2000/svg" version="1.1" width="300" height="300" viewBox="0 0 300 300"><rect x="0" y="0" width="300" height="300" fill="#ffffff"/><g transform="scale(4.348)"><g transform="translate(0,0)"><path fill-rule="evenodd" d="M8 0L8 1L9 1L9 2L8 2L8 5L9 5L9 3L10 3L10 4L11 4L11 5L10 5L10 7L9 7L9 6L8 6L8 7L9 7L9 8L8 8L8 9L9 9L9 10L10 10L10 11L9 11L9 12L8 12L8 10L4 10L4 8L0 8L0 9L1 9L1 10L4 10L4 12L3 12L3 11L0 11L0 13L1 13L1 12L3 12L3 13L2 13L2 14L0 14L0 20L1 20L1 22L2 22L2 21L3 21L3 22L4 22L4 23L5 23L5 26L4 26L4 25L2 25L2 24L1 24L1 23L0 23L0 25L2 25L2 26L1 26L1 27L0 27L0 28L2 28L2 30L1 30L1 31L0 31L0 32L1 32L1 35L0 35L0 40L1 40L1 41L0 41L0 42L1 42L1 43L2 43L2 42L3 42L3 43L5 43L5 44L4 44L4 45L0 45L0 46L1 46L1 47L0 47L0 48L1 48L1 49L0 49L0 50L1 50L1 51L2 51L2 54L1 54L1 55L0 55L0 56L1 56L1 58L0 58L0 61L1 61L1 58L2 58L2 59L3 59L3 58L2 58L2 56L1 56L1 55L3 55L3 57L4 57L4 59L7 59L7 58L5 58L5 57L7 57L7 56L8 56L8 59L9 59L9 60L8 60L8 62L9 62L9 61L10 61L10 59L12 59L12 60L13 60L13 59L14 59L14 60L15 60L15 61L11 61L11 63L9 63L9 65L8 65L8 69L10 69L10 68L11 68L11 69L12 69L12 66L13 66L13 65L14 65L14 66L15 66L15 65L16 65L16 66L18 66L18 67L20 67L20 69L21 69L21 68L22 68L22 69L24 69L24 67L25 67L25 66L26 66L26 64L27 64L27 62L28 62L28 63L30 63L30 62L31 62L31 65L30 65L30 64L29 64L29 66L28 66L28 65L27 65L27 69L30 69L30 68L31 68L31 67L32 67L32 68L33 68L33 67L34 67L34 68L35 68L35 67L37 67L37 66L36 66L36 65L37 65L37 64L38 64L38 63L37 63L37 62L39 62L39 66L38 66L38 68L39 68L39 69L42 69L42 68L43 68L43 67L42 67L42 68L41 68L41 66L42 66L42 65L40 65L40 64L41 64L41 62L39 62L39 61L40 61L40 60L41 60L41 61L42 61L42 60L41 60L41 59L42 59L42 58L43 58L43 56L41 56L41 55L40 55L40 52L39 52L39 51L38 51L38 50L40 50L40 49L39 49L39 47L40 47L40 48L42 48L42 49L44 49L44 48L43 48L43 47L44 47L44 45L42 45L42 44L41 44L41 45L40 45L40 44L39 44L39 43L38 43L38 42L37 42L37 41L39 41L39 42L40 42L40 43L43 43L43 42L42 42L42 41L41 41L41 42L40 42L40 40L41 40L41 38L40 38L40 37L38 37L38 33L37 33L37 31L38 31L38 30L34 30L34 28L33 28L33 27L32 27L32 26L33 26L33 25L34 25L34 26L35 26L35 25L34 25L34 24L35 24L35 22L38 22L38 23L39 23L39 24L38 24L38 25L37 25L37 23L36 23L36 25L37 25L37 27L35 27L35 29L36 29L36 28L37 28L37 29L39 29L39 31L40 31L40 32L39 32L39 33L40 33L40 34L39 34L39 35L40 35L40 36L41 36L41 35L42 35L42 37L43 37L43 38L44 38L44 39L45 39L45 40L43 40L43 41L45 41L45 42L44 42L44 43L45 43L45 45L47 45L47 47L46 47L46 46L45 46L45 47L46 47L46 48L45 48L45 50L44 50L44 52L43 52L43 51L41 51L41 54L42 54L42 55L43 55L43 54L44 54L44 55L46 55L46 54L47 54L47 57L48 57L48 56L49 56L49 54L47 54L47 52L49 52L49 53L52 53L52 52L54 52L54 53L53 53L53 54L52 54L52 56L51 56L51 54L50 54L50 57L49 57L49 58L50 58L50 57L51 57L51 58L52 58L52 59L51 59L51 60L50 60L50 59L48 59L48 58L47 58L47 59L46 59L46 60L45 60L45 61L44 61L44 59L45 59L45 58L44 58L44 59L43 59L43 61L44 61L44 62L43 62L43 63L44 63L44 64L43 64L43 65L45 65L45 62L46 62L46 61L49 61L49 62L48 62L48 63L47 63L47 64L48 64L48 63L50 63L50 64L51 64L51 67L50 67L50 66L49 66L49 65L46 65L46 68L45 68L45 69L48 69L48 68L49 68L49 69L50 69L50 68L51 68L51 69L53 69L53 68L56 68L56 66L55 66L55 67L53 67L53 68L51 68L51 67L52 67L52 66L54 66L54 65L57 65L57 67L58 67L58 66L59 66L59 68L61 68L61 69L65 69L65 67L66 67L66 66L65 66L65 65L67 65L67 66L68 66L68 65L69 65L69 64L68 64L68 63L65 63L65 60L66 60L66 59L65 59L65 58L64 58L64 59L65 59L65 60L63 60L63 57L62 57L62 54L67 54L67 52L68 52L68 54L69 54L69 52L68 52L68 51L66 51L66 50L68 50L68 48L67 48L67 49L65 49L65 50L64 50L64 47L63 47L63 46L59 46L59 47L58 47L58 49L57 49L57 50L56 50L56 49L55 49L55 48L54 48L54 47L56 47L56 48L57 48L57 47L56 47L56 45L53 45L53 44L52 44L52 40L54 40L54 39L55 39L55 40L56 40L56 41L55 41L55 42L57 42L57 45L58 45L58 42L59 42L59 44L62 44L62 43L60 43L60 38L63 38L63 39L62 39L62 41L63 41L63 43L65 43L65 41L67 41L67 42L66 42L66 43L68 43L68 41L69 41L69 40L68 40L68 39L67 39L67 38L66 38L66 36L65 36L65 34L66 34L66 35L67 35L67 37L68 37L68 38L69 38L69 37L68 37L68 36L69 36L69 33L68 33L68 34L67 34L67 32L65 32L65 31L63 31L63 30L62 30L62 31L61 31L61 30L60 30L60 29L61 29L61 28L62 28L62 29L64 29L64 30L65 30L65 29L64 29L64 28L65 28L65 27L66 27L66 30L67 30L67 29L68 29L68 30L69 30L69 27L68 27L68 28L67 28L67 27L66 27L66 26L65 26L65 25L67 25L67 26L69 26L69 22L67 22L67 21L66 21L66 22L65 22L65 20L64 20L64 19L63 19L63 18L62 18L62 20L58 20L58 21L60 21L60 22L55 22L55 20L57 20L57 19L59 19L59 18L60 18L60 17L59 17L59 16L58 16L58 15L60 15L60 16L61 16L61 17L64 17L64 15L65 15L65 18L66 18L66 19L67 19L67 20L69 20L69 19L68 19L68 18L69 18L69 15L68 15L68 18L66 18L66 16L67 16L67 15L66 15L66 14L67 14L67 12L68 12L68 13L69 13L69 10L68 10L68 9L69 9L69 8L68 8L68 9L67 9L67 8L64 8L64 9L63 9L63 11L61 11L61 10L62 10L62 8L60 8L60 7L61 7L61 6L60 6L60 7L59 7L59 4L56 4L56 3L55 3L55 1L56 1L56 2L58 2L58 3L59 3L59 2L58 2L58 1L61 1L61 0L57 0L57 1L56 1L56 0L53 0L53 2L52 2L52 1L50 1L50 0L49 0L49 2L50 2L50 3L47 3L47 2L48 2L48 1L47 1L47 2L46 2L46 1L45 1L45 0L44 0L44 2L42 2L42 1L43 1L43 0L41 0L41 1L40 1L40 2L39 2L39 3L41 3L41 2L42 2L42 4L43 4L43 6L42 6L42 5L40 5L40 4L38 4L38 1L37 1L37 3L35 3L35 0L34 0L34 2L33 2L33 3L32 3L32 4L31 4L31 2L29 2L29 0L28 0L28 2L27 2L27 1L25 1L25 0L23 0L23 1L22 1L22 2L21 2L21 1L19 1L19 0L15 0L15 1L14 1L14 0L13 0L13 1L14 1L14 3L15 3L15 6L14 6L14 7L13 7L13 5L14 5L14 4L13 4L13 3L12 3L12 4L11 4L11 1L12 1L12 0L10 0L10 1L9 1L9 0ZM30 0L30 1L32 1L32 0ZM15 1L15 3L17 3L17 1ZM18 1L18 3L19 3L19 4L20 4L20 3L21 3L21 4L23 4L23 7L22 7L22 5L21 5L21 7L22 7L22 8L18 8L18 9L16 9L16 11L17 11L17 12L16 12L16 13L15 13L15 12L14 12L14 11L15 11L15 9L14 9L14 8L13 8L13 7L12 7L12 5L13 5L13 4L12 4L12 5L11 5L11 9L10 9L10 8L9 8L9 9L10 9L10 10L11 10L11 11L10 11L10 12L9 12L9 13L5 13L5 12L4 12L4 13L3 13L3 15L1 15L1 16L2 16L2 18L1 18L1 20L2 20L2 19L3 19L3 18L5 18L5 20L4 20L4 21L5 21L5 22L10 22L10 23L9 23L9 24L8 24L8 23L6 23L6 24L7 24L7 25L6 25L6 26L5 26L5 27L3 27L3 26L2 26L2 28L3 28L3 29L4 29L4 30L2 30L2 31L1 31L1 32L2 32L2 33L3 33L3 34L2 34L2 35L4 35L4 31L5 31L5 32L8 32L8 31L10 31L10 32L9 32L9 35L10 35L10 34L11 34L11 37L10 37L10 36L9 36L9 37L10 37L10 38L8 38L8 37L5 37L5 38L4 38L4 36L2 36L2 38L1 38L1 40L2 40L2 41L3 41L3 42L5 42L5 43L6 43L6 44L5 44L5 45L4 45L4 46L7 46L7 47L5 47L5 48L3 48L3 47L2 47L2 51L4 51L4 52L3 52L3 55L4 55L4 54L7 54L7 55L5 55L5 56L7 56L7 55L9 55L9 54L10 54L10 52L9 52L9 54L7 54L7 53L8 53L8 52L7 52L7 51L10 51L10 50L11 50L11 52L12 52L12 51L13 51L13 50L11 50L11 49L10 49L10 48L9 48L9 46L11 46L11 47L12 47L12 46L14 46L14 44L15 44L15 46L16 46L16 48L18 48L18 50L17 50L17 49L16 49L16 50L15 50L15 49L14 49L14 47L13 47L13 49L14 49L14 51L16 51L16 52L15 52L15 53L14 53L14 52L13 52L13 54L15 54L15 53L17 53L17 51L18 51L18 53L19 53L19 54L20 54L20 55L18 55L18 54L17 54L17 55L16 55L16 56L15 56L15 58L14 58L14 55L12 55L12 58L14 58L14 59L16 59L16 62L15 62L15 63L19 63L19 64L18 64L18 66L19 66L19 64L21 64L21 63L22 63L22 62L21 62L21 63L19 63L19 62L17 62L17 60L18 60L18 59L16 59L16 56L18 56L18 57L19 57L19 56L20 56L20 55L21 55L21 56L22 56L22 59L21 59L21 57L20 57L20 58L19 58L19 60L22 60L22 61L23 61L23 64L22 64L22 65L23 65L23 64L24 64L24 66L25 66L25 64L26 64L26 62L25 62L25 60L26 60L26 61L27 61L27 60L28 60L28 62L29 62L29 60L28 60L28 59L30 59L30 60L31 60L31 62L32 62L32 60L34 60L34 59L35 59L35 58L36 58L36 57L37 57L37 56L38 56L38 55L39 55L39 56L40 56L40 55L39 55L39 54L38 54L38 53L39 53L39 52L36 52L36 53L35 53L35 51L37 51L37 50L36 50L36 49L38 49L38 48L33 48L33 47L34 47L34 46L33 46L33 45L32 45L32 44L31 44L31 43L32 43L32 42L31 42L31 41L33 41L33 44L35 44L35 45L37 45L37 43L35 43L35 42L36 42L36 41L35 41L35 40L34 40L34 41L33 41L33 39L34 39L34 38L35 38L35 39L36 39L36 37L32 37L32 38L33 38L33 39L29 39L29 35L28 35L28 32L30 32L30 33L29 33L29 34L31 34L31 35L30 35L30 36L31 36L31 35L32 35L32 32L30 32L30 30L27 30L27 29L24 29L24 30L27 30L27 31L25 31L25 35L24 35L24 37L23 37L23 35L20 35L20 36L21 36L21 37L23 37L23 39L22 39L22 38L21 38L21 40L20 40L20 46L19 46L19 48L18 48L18 46L17 46L17 43L18 43L18 42L16 42L16 41L17 41L17 40L16 40L16 41L14 41L14 42L15 42L15 43L14 43L14 44L12 44L12 45L11 45L11 44L10 44L10 43L11 43L11 42L10 42L10 40L12 40L12 39L11 39L11 38L15 38L15 39L19 39L19 37L18 37L18 38L17 38L17 37L16 37L16 38L15 38L15 33L13 33L13 34L12 34L12 33L11 33L11 31L10 31L10 30L8 30L8 31L6 31L6 30L7 30L7 29L8 29L8 28L7 28L7 27L6 27L6 26L7 26L7 25L11 25L11 27L12 27L12 29L11 29L11 30L13 30L13 31L12 31L12 32L13 32L13 31L15 31L15 32L16 32L16 34L17 34L17 33L19 33L19 34L18 34L18 35L19 35L19 34L21 34L21 32L23 32L23 33L22 33L22 34L23 34L23 33L24 33L24 32L23 32L23 31L21 31L21 29L22 29L22 30L23 30L23 28L24 28L24 27L29 27L29 26L30 26L30 28L29 28L29 29L31 29L31 31L33 31L33 30L32 30L32 29L33 29L33 28L31 28L31 26L32 26L32 24L33 24L33 23L31 23L31 22L32 22L32 21L31 21L31 20L30 20L30 21L29 21L29 18L30 18L30 17L31 17L31 19L34 19L34 20L35 20L35 19L34 19L34 18L38 18L38 20L39 20L39 21L40 21L40 20L39 20L39 17L38 17L38 16L39 16L39 15L38 15L38 12L36 12L36 9L35 9L35 12L36 12L36 13L33 13L33 11L34 11L34 10L33 10L33 9L32 9L32 6L31 6L31 9L32 9L32 10L33 10L33 11L32 11L32 13L29 13L29 12L31 12L31 10L30 10L30 9L29 9L29 8L28 8L28 10L27 10L27 8L26 8L26 6L27 6L27 7L28 7L28 6L27 6L27 5L26 5L26 6L25 6L25 7L24 7L24 5L25 5L25 2L23 2L23 3L21 3L21 2L20 2L20 3L19 3L19 1ZM28 2L28 3L26 3L26 4L28 4L28 5L31 5L31 4L29 4L29 2ZM51 2L51 3L50 3L50 4L52 4L52 5L51 5L51 7L50 7L50 5L49 5L49 4L48 4L48 5L49 5L49 7L48 7L48 6L47 6L47 7L46 7L46 5L47 5L47 3L46 3L46 5L45 5L45 8L44 8L44 6L43 6L43 9L45 9L45 10L46 10L46 12L44 12L44 10L43 10L43 12L41 12L41 13L42 13L42 14L43 14L43 15L41 15L41 14L40 14L40 10L41 10L41 11L42 11L42 10L41 10L41 9L42 9L42 8L41 8L41 7L42 7L42 6L41 6L41 7L40 7L40 5L38 5L38 4L37 4L37 7L38 7L38 6L39 6L39 7L40 7L40 8L41 8L41 9L38 9L38 8L37 8L37 9L38 9L38 10L39 10L39 14L40 14L40 17L41 17L41 16L42 16L42 18L43 18L43 19L41 19L41 21L44 21L44 22L42 22L42 24L39 24L39 25L40 25L40 26L38 26L38 27L37 27L37 28L39 28L39 29L41 29L41 30L40 30L40 31L41 31L41 33L42 33L42 32L43 32L43 35L45 35L45 34L46 34L46 35L47 35L47 36L48 36L48 35L47 35L47 34L49 34L49 36L50 36L50 37L51 37L51 38L50 38L50 39L49 39L49 38L48 38L48 39L47 39L47 37L46 37L46 38L45 38L45 36L44 36L44 38L45 38L45 39L47 39L47 40L46 40L46 41L47 41L47 42L48 42L48 43L46 43L46 42L45 42L45 43L46 43L46 44L48 44L48 45L49 45L49 46L50 46L50 47L49 47L49 48L50 48L50 49L52 49L52 50L51 50L51 51L50 51L50 50L48 50L48 49L47 49L47 48L46 48L46 50L47 50L47 51L50 51L50 52L51 52L51 51L52 51L52 50L54 50L54 51L55 51L55 49L54 49L54 48L51 48L51 47L53 47L53 46L51 46L51 44L48 44L48 43L50 43L50 42L51 42L51 41L50 41L50 40L52 40L52 39L54 39L54 38L55 38L55 39L57 39L57 38L55 38L55 37L54 37L54 36L55 36L55 35L56 35L56 34L57 34L57 33L58 33L58 34L59 34L59 32L61 32L61 31L60 31L60 30L57 30L57 31L56 31L56 30L55 30L55 28L57 28L57 23L56 23L56 27L55 27L55 28L52 28L52 29L49 29L49 27L50 27L50 26L48 26L48 24L47 24L47 25L46 25L46 23L48 23L48 21L49 21L49 20L50 20L50 19L53 19L53 21L50 21L50 22L49 22L49 23L50 23L50 22L52 22L52 23L53 23L53 24L50 24L50 25L51 25L51 27L54 27L54 26L55 26L55 25L53 25L53 24L54 24L54 23L55 23L55 22L53 22L53 21L54 21L54 18L55 18L55 19L56 19L56 18L57 18L57 17L58 17L58 16L57 16L57 15L56 15L56 14L57 14L57 12L56 12L56 13L54 13L54 14L55 14L55 15L53 15L53 12L52 12L52 11L54 11L54 12L55 12L55 11L56 11L56 9L57 9L57 11L59 11L59 12L58 12L58 14L59 14L59 12L60 12L60 14L61 14L61 13L62 13L62 12L61 12L61 11L59 11L59 10L60 10L60 9L59 9L59 7L58 7L58 6L57 6L57 5L56 5L56 4L53 4L53 3L52 3L52 2ZM23 3L23 4L24 4L24 3ZM34 3L34 4L35 4L35 3ZM44 3L44 4L45 4L45 3ZM60 3L60 5L61 5L61 3ZM16 4L16 5L17 5L17 7L16 7L16 6L15 6L15 8L17 8L17 7L18 7L18 6L19 6L19 7L20 7L20 6L19 6L19 5L17 5L17 4ZM33 5L33 8L36 8L36 5ZM29 6L29 7L30 7L30 6ZM34 6L34 7L35 7L35 6ZM52 6L52 8L50 8L50 9L53 9L53 10L55 10L55 8L54 8L54 9L53 9L53 6ZM54 6L54 7L55 7L55 6ZM56 6L56 8L58 8L58 7L57 7L57 6ZM23 7L23 8L22 8L22 9L23 9L23 10L22 10L22 11L23 11L23 13L22 13L22 14L21 14L21 12L20 12L20 11L21 11L21 10L20 10L20 9L19 9L19 10L17 10L17 11L19 11L19 12L17 12L17 14L14 14L14 12L13 12L13 11L14 11L14 10L13 10L13 8L12 8L12 9L11 9L11 10L13 10L13 11L12 11L12 12L10 12L10 13L9 13L9 16L10 16L10 18L11 18L11 19L12 19L12 21L11 21L11 22L12 22L12 21L13 21L13 24L15 24L15 25L12 25L12 26L17 26L17 27L16 27L16 29L14 29L14 27L13 27L13 29L14 29L14 30L15 30L15 31L16 31L16 32L17 32L17 30L18 30L18 31L19 31L19 32L20 32L20 30L19 30L19 29L21 29L21 28L22 28L22 27L24 27L24 25L25 25L25 26L28 26L28 25L26 25L26 24L28 24L28 22L25 22L25 20L24 20L24 21L23 21L23 19L24 19L24 18L23 18L23 17L22 17L22 16L24 16L24 17L25 17L25 16L26 16L26 17L28 17L28 18L29 18L29 17L28 17L28 15L27 15L27 16L26 16L26 12L25 12L25 10L26 10L26 11L27 11L27 10L26 10L26 9L25 9L25 10L24 10L24 9L23 9L23 8L24 8L24 7ZM6 8L6 9L7 9L7 8ZM46 8L46 9L47 9L47 11L48 11L48 12L47 12L47 13L49 13L49 14L48 14L48 15L47 15L47 14L46 14L46 13L44 13L44 12L43 12L43 13L44 13L44 14L45 14L45 15L44 15L44 16L43 16L43 18L44 18L44 20L45 20L45 21L46 21L46 19L45 19L45 18L48 18L48 19L47 19L47 21L48 21L48 20L49 20L49 18L48 18L48 15L50 15L50 16L51 16L51 17L52 17L52 16L53 16L53 18L54 18L54 17L55 17L55 18L56 18L56 17L57 17L57 16L56 16L56 15L55 15L55 16L53 16L53 15L52 15L52 14L51 14L51 11L52 11L52 10L51 10L51 11L50 11L50 10L49 10L49 9L48 9L48 8ZM64 9L64 10L65 10L65 11L64 11L64 13L66 13L66 12L67 12L67 11L66 11L66 10L65 10L65 9ZM19 10L19 11L20 11L20 10ZM28 10L28 11L29 11L29 10ZM6 11L6 12L7 12L7 11ZM49 11L49 13L50 13L50 11ZM65 11L65 12L66 12L66 11ZM12 13L12 14L13 14L13 13ZM18 13L18 14L19 14L19 15L17 15L17 18L16 18L16 17L15 17L15 16L16 16L16 15L14 15L14 17L13 17L13 18L12 18L12 19L13 19L13 18L14 18L14 17L15 17L15 18L16 18L16 20L15 20L15 19L14 19L14 20L15 20L15 21L16 21L16 20L17 20L17 21L18 21L18 22L17 22L17 23L16 23L16 22L15 22L15 23L16 23L16 25L17 25L17 26L20 26L20 28L21 28L21 26L23 26L23 25L22 25L22 24L23 24L23 23L21 23L21 20L22 20L22 19L20 19L20 16L22 16L22 15L21 15L21 14L20 14L20 13ZM23 13L23 14L24 14L24 16L25 16L25 13ZM27 13L27 14L28 14L28 13ZM32 13L32 14L33 14L33 17L32 17L32 15L31 15L31 14L29 14L29 16L30 16L30 15L31 15L31 17L32 17L32 18L33 18L33 17L34 17L34 15L35 15L35 16L36 16L36 14L33 14L33 13ZM5 14L5 15L4 15L4 16L3 16L3 17L4 17L4 16L5 16L5 17L7 17L7 18L6 18L6 19L8 19L8 20L9 20L9 19L8 19L8 18L9 18L9 17L8 17L8 16L5 16L5 15L7 15L7 14ZM62 14L62 15L61 15L61 16L62 16L62 15L64 15L64 14ZM11 15L11 16L12 16L12 15ZM19 15L19 16L18 16L18 17L19 17L19 16L20 16L20 15ZM37 15L37 16L38 16L38 15ZM46 15L46 16L45 16L45 17L44 17L44 18L45 18L45 17L46 17L46 16L47 16L47 15ZM51 15L51 16L52 16L52 15ZM21 17L21 18L22 18L22 17ZM17 18L17 20L18 20L18 19L19 19L19 22L18 22L18 23L17 23L17 25L20 25L20 26L21 26L21 23L19 23L19 22L20 22L20 19L19 19L19 18ZM25 18L25 19L26 19L26 20L27 20L27 19L26 19L26 18ZM36 19L36 21L37 21L37 19ZM5 20L5 21L7 21L7 20ZM62 20L62 22L63 22L63 23L62 23L62 24L63 24L63 27L62 27L62 25L58 25L58 26L61 26L61 27L62 27L62 28L63 28L63 27L65 27L65 26L64 26L64 25L65 25L65 23L64 23L64 21L63 21L63 20ZM22 21L22 22L23 22L23 21ZM33 21L33 22L34 22L34 21ZM29 22L29 24L30 24L30 25L31 25L31 24L30 24L30 22ZM39 22L39 23L40 23L40 22ZM11 23L11 24L12 24L12 23ZM18 23L18 24L19 24L19 23ZM24 23L24 24L26 24L26 23ZM43 23L43 24L42 24L42 25L44 25L44 28L43 28L43 27L42 27L42 26L41 26L41 27L42 27L42 28L41 28L41 29L42 29L42 28L43 28L43 31L46 31L46 30L47 30L47 33L48 33L48 32L50 32L50 33L49 33L49 34L50 34L50 36L51 36L51 35L52 35L52 36L54 36L54 34L56 34L56 33L55 33L55 32L56 32L56 31L55 31L55 30L54 30L54 29L52 29L52 30L53 30L53 31L55 31L55 32L54 32L54 33L53 33L53 32L51 32L51 31L50 31L50 30L49 30L49 29L47 29L47 28L45 28L45 26L46 26L46 27L47 27L47 26L46 26L46 25L44 25L44 23ZM59 23L59 24L61 24L61 23ZM66 23L66 24L68 24L68 23ZM8 26L8 27L10 27L10 26ZM6 28L6 29L7 29L7 28ZM9 28L9 29L10 29L10 28ZM18 28L18 29L19 29L19 28ZM58 28L58 29L59 29L59 28ZM2 31L2 32L3 32L3 31ZM27 31L27 32L26 32L26 33L27 33L27 32L28 32L28 31ZM35 31L35 32L36 32L36 31ZM62 31L62 32L63 32L63 31ZM5 33L5 36L8 36L8 33ZM33 33L33 36L36 36L36 33ZM44 33L44 34L45 34L45 33ZM50 33L50 34L51 34L51 33ZM61 33L61 36L64 36L64 33ZM6 34L6 35L7 35L7 34ZM34 34L34 35L35 35L35 34ZM52 34L52 35L53 35L53 34ZM62 34L62 35L63 35L63 34ZM13 35L13 36L12 36L12 37L13 37L13 36L14 36L14 35ZM27 35L27 38L28 38L28 35ZM59 35L59 37L58 37L58 38L60 38L60 35ZM56 36L56 37L57 37L57 36ZM25 37L25 38L24 38L24 39L25 39L25 38L26 38L26 37ZM30 37L30 38L31 38L31 37ZM37 37L37 40L38 40L38 39L39 39L39 38L38 38L38 37ZM52 37L52 38L53 38L53 37ZM63 37L63 38L65 38L65 37ZM2 38L2 40L3 40L3 41L5 41L5 42L6 42L6 43L8 43L8 46L9 46L9 43L8 43L8 42L9 42L9 41L8 41L8 40L10 40L10 39L8 39L8 40L5 40L5 39L3 39L3 38ZM6 38L6 39L7 39L7 38ZM27 39L27 40L25 40L25 41L24 41L24 40L23 40L23 41L21 41L21 42L26 42L26 43L24 43L24 44L21 44L21 45L23 45L23 46L22 46L22 47L21 47L21 46L20 46L20 47L21 47L21 48L23 48L23 46L24 46L24 49L25 49L25 50L27 50L27 52L25 52L25 54L27 54L27 53L28 53L28 54L30 54L30 55L31 55L31 53L32 53L32 55L34 55L34 56L33 56L33 57L32 57L32 56L31 56L31 57L29 57L29 58L30 58L30 59L31 59L31 58L33 58L33 59L34 59L34 58L35 58L35 57L36 57L36 56L35 56L35 55L34 55L34 54L35 54L35 53L33 53L33 52L31 52L31 53L29 53L29 52L28 52L28 51L33 51L33 48L32 48L32 47L31 47L31 46L29 46L29 47L30 47L30 48L29 48L29 49L31 49L31 50L27 50L27 49L25 49L25 46L26 46L26 47L27 47L27 46L26 46L26 45L24 45L24 44L27 44L27 42L29 42L29 40L28 40L28 39ZM58 39L58 40L57 40L57 41L58 41L58 40L59 40L59 39ZM18 40L18 41L19 41L19 40ZM30 40L30 41L31 41L31 40ZM63 40L63 41L64 41L64 40ZM67 40L67 41L68 41L68 40ZM6 41L6 42L8 42L8 41ZM26 41L26 42L27 42L27 41ZM34 41L34 42L35 42L35 41ZM48 41L48 42L49 42L49 41ZM53 41L53 42L54 42L54 41ZM12 42L12 43L13 43L13 42ZM30 42L30 43L29 43L29 44L28 44L28 45L30 45L30 43L31 43L31 42ZM6 44L6 45L7 45L7 44ZM18 44L18 45L19 45L19 44ZM63 44L63 45L66 45L66 46L65 46L65 48L66 48L66 46L67 46L67 47L69 47L69 46L68 46L68 44L67 44L67 45L66 45L66 44ZM38 45L38 46L36 46L36 47L38 47L38 46L39 46L39 45ZM41 45L41 47L42 47L42 45ZM59 47L59 49L58 49L58 50L57 50L57 51L56 51L56 52L61 52L61 50L60 50L60 51L59 51L59 49L62 49L62 51L63 51L63 49L62 49L62 48L63 48L63 47L62 47L62 48L60 48L60 47ZM6 48L6 49L5 49L5 50L4 50L4 49L3 49L3 50L4 50L4 51L5 51L5 53L7 53L7 52L6 52L6 51L7 51L7 50L10 50L10 49L7 49L7 48ZM31 48L31 49L32 49L32 48ZM6 49L6 50L7 50L7 49ZM19 49L19 50L18 50L18 51L19 51L19 52L20 52L20 53L22 53L22 52L24 52L24 50L23 50L23 49L21 49L21 50L20 50L20 49ZM34 49L34 51L35 51L35 49ZM16 50L16 51L17 51L17 50ZM21 50L21 51L23 51L23 50ZM45 51L45 53L46 53L46 51ZM64 51L64 52L62 52L62 53L61 53L61 54L62 54L62 53L66 53L66 52L65 52L65 51ZM23 53L23 54L22 54L22 56L23 56L23 57L24 57L24 58L25 58L25 59L26 59L26 60L27 60L27 59L28 59L28 58L26 58L26 57L24 57L24 56L23 56L23 55L24 55L24 53ZM36 53L36 54L37 54L37 53ZM42 53L42 54L43 54L43 53ZM54 53L54 55L53 55L53 56L54 56L54 55L55 55L55 53ZM56 53L56 55L57 55L57 56L55 56L55 57L57 57L57 58L56 58L56 62L55 62L55 60L54 60L54 57L53 57L53 59L52 59L52 60L51 60L51 61L53 61L53 64L52 64L52 65L53 65L53 64L54 64L54 62L55 62L55 64L56 64L56 63L57 63L57 65L59 65L59 66L62 66L62 67L63 67L63 68L64 68L64 67L65 67L65 66L64 66L64 65L63 65L63 66L62 66L62 65L60 65L60 60L59 60L59 59L58 59L58 58L60 58L60 59L61 59L61 60L62 60L62 57L61 57L61 58L60 58L60 56L59 56L59 54L60 54L60 53L59 53L59 54L58 54L58 55L57 55L57 53ZM10 55L10 56L9 56L9 59L10 59L10 58L11 58L11 55ZM64 55L64 57L66 57L66 56L65 56L65 55ZM67 55L67 57L68 57L68 58L67 58L67 59L68 59L68 60L69 60L69 57L68 57L68 55ZM45 56L45 57L46 57L46 56ZM38 57L38 58L39 58L39 59L36 59L36 60L40 60L40 58L39 58L39 57ZM22 59L22 60L23 60L23 59ZM47 59L47 60L48 60L48 59ZM3 60L3 61L5 61L5 60ZM6 60L6 61L7 61L7 60ZM53 60L53 61L54 61L54 60ZM33 61L33 64L36 64L36 61ZM57 61L57 63L58 63L58 64L59 64L59 63L58 63L58 61ZM61 61L61 64L64 64L64 61ZM67 61L67 62L69 62L69 61ZM12 62L12 63L11 63L11 64L10 64L10 67L9 67L9 68L10 68L10 67L11 67L11 66L12 66L12 65L13 65L13 63L14 63L14 62ZM24 62L24 63L25 63L25 62ZM34 62L34 63L35 63L35 62ZM50 62L50 63L52 63L52 62ZM62 62L62 63L63 63L63 62ZM14 64L14 65L15 65L15 64ZM67 64L67 65L68 65L68 64ZM20 65L20 67L23 67L23 66L21 66L21 65ZM29 66L29 67L31 67L31 66ZM34 66L34 67L35 67L35 66ZM39 66L39 68L40 68L40 66ZM44 66L44 67L45 67L45 66ZM47 66L47 68L48 68L48 67L49 67L49 66ZM15 67L15 68L13 68L13 69L18 69L18 68L16 68L16 67ZM68 67L68 68L69 68L69 67ZM57 68L57 69L58 69L58 68ZM66 68L66 69L67 69L67 68ZM0 0L0 7L7 7L7 0ZM1 1L1 6L6 6L6 1ZM2 2L2 5L5 5L5 2ZM62 0L62 7L69 7L69 0ZM63 1L63 6L68 6L68 1ZM64 2L64 5L67 5L67 2ZM0 62L0 69L7 69L7 62ZM1 63L1 68L6 68L6 63ZM2 64L2 67L5 67L5 64Z" fill="#000000"/></g></g></svg>
