<?xml version="1.0" encoding="UTF-8"?>
<svg xmlns="http://www.w3.org/2000/svg" version="1.1" width="300" height="300" viewBox="0 0 300 300"><rect x="0" y="0" width="300" height="300" fill="#ffffff"/><g transform="scale(4.348)"><g transform="translate(0,0)"><path fill-rule="evenodd" d="M10 0L10 1L8 1L8 2L10 2L10 3L11 3L11 2L10 2L10 1L11 1L11 0ZM14 0L14 1L13 1L13 2L12 2L12 4L11 4L11 5L10 5L10 4L9 4L9 3L8 3L8 4L9 4L9 5L8 5L8 7L9 7L9 8L6 8L6 9L5 9L5 8L0 8L0 10L1 10L1 9L2 9L2 11L0 11L0 12L1 12L1 16L0 16L0 19L2 19L2 20L0 20L0 22L2 22L2 23L4 23L4 22L5 22L5 23L8 23L8 22L5 22L5 21L8 21L8 19L7 19L7 18L6 18L6 19L7 19L7 20L5 20L5 19L2 19L2 17L3 17L3 18L5 18L5 17L8 17L8 18L9 18L9 20L10 20L10 19L11 19L11 18L9 18L9 17L12 17L12 18L13 18L13 15L12 15L12 13L13 13L13 14L14 14L14 15L15 15L15 16L14 16L14 18L15 18L15 19L14 19L14 20L15 20L15 21L12 21L12 20L13 20L13 19L12 19L12 20L11 20L11 21L9 21L9 24L8 24L8 26L9 26L9 27L10 27L10 28L9 28L9 29L10 29L10 28L11 28L11 31L10 31L10 32L6 32L6 31L7 31L7 30L6 30L6 29L7 29L7 28L6 28L6 27L7 27L7 26L6 26L6 27L2 27L2 26L5 26L5 25L7 25L7 24L1 24L1 23L0 23L0 25L1 25L1 27L0 27L0 28L1 28L1 27L2 27L2 29L0 29L0 31L2 31L2 32L0 32L0 34L1 34L1 35L2 35L2 36L1 36L1 37L0 37L0 38L1 38L1 37L2 37L2 36L3 36L3 39L1 39L1 40L0 40L0 43L1 43L1 42L2 42L2 44L1 44L1 45L0 45L0 46L2 46L2 47L1 47L1 48L2 48L2 49L3 49L3 50L1 50L1 49L0 49L0 51L1 51L1 52L0 52L0 54L1 54L1 53L4 53L4 52L3 52L3 50L5 50L5 52L6 52L6 53L5 53L5 54L4 54L4 55L3 55L3 54L2 54L2 55L0 55L0 56L4 56L4 57L0 57L0 61L1 61L1 58L2 58L2 59L3 59L3 58L4 58L4 59L7 59L7 60L6 60L6 61L8 61L8 63L10 63L10 62L11 62L11 64L8 64L8 69L9 69L9 68L10 68L10 69L12 69L12 68L13 68L13 67L14 67L14 63L15 63L15 65L17 65L17 66L19 66L19 67L18 67L18 68L14 68L14 69L22 69L22 68L19 68L19 67L20 67L20 66L19 66L19 65L20 65L20 64L19 64L19 62L20 62L20 63L21 63L21 64L23 64L23 66L21 66L21 67L23 67L23 68L25 68L25 69L26 69L26 68L27 68L27 67L29 67L29 68L28 68L28 69L29 69L29 68L30 68L30 69L32 69L32 68L31 68L31 67L30 67L30 65L31 65L31 66L32 66L32 67L33 67L33 69L37 69L37 68L38 68L38 67L37 67L37 66L38 66L38 65L37 65L37 64L39 64L39 63L37 63L37 62L38 62L38 61L39 61L39 62L40 62L40 61L39 61L39 60L41 60L41 63L40 63L40 64L41 64L41 66L44 66L44 67L43 67L43 68L42 68L42 69L44 69L44 67L45 67L45 66L46 66L46 68L45 68L45 69L47 69L47 68L48 68L48 69L50 69L50 68L52 68L52 67L55 67L55 68L53 68L53 69L55 69L55 68L58 68L58 69L59 69L59 68L60 68L60 67L61 67L61 68L62 68L62 67L61 67L61 66L62 66L62 65L63 65L63 66L64 66L64 65L65 65L65 66L66 66L66 67L65 67L65 68L64 68L64 67L63 67L63 69L65 69L65 68L66 68L66 69L68 69L68 68L67 68L67 66L66 66L66 65L65 65L65 64L69 64L69 63L67 63L67 62L69 62L69 59L68 59L68 58L69 58L69 56L68 56L68 54L69 54L69 53L67 53L67 52L68 52L68 51L69 51L69 50L68 50L68 49L65 49L65 48L67 48L67 46L69 46L69 45L68 45L68 44L67 44L67 43L66 43L66 42L63 42L63 43L65 43L65 44L66 44L66 47L65 47L65 46L64 46L64 47L63 47L63 48L64 48L64 49L62 49L62 46L60 46L60 45L59 45L59 44L58 44L58 42L56 42L56 41L51 41L51 42L50 42L50 41L49 41L49 40L47 40L47 38L45 38L45 37L49 37L49 38L48 38L48 39L49 39L49 38L50 38L50 37L49 37L49 36L50 36L50 35L51 35L51 36L52 36L52 34L54 34L54 35L53 35L53 38L52 38L52 39L51 39L51 40L52 40L52 39L53 39L53 38L54 38L54 39L55 39L55 40L57 40L57 41L58 41L58 40L57 40L57 39L56 39L56 38L57 38L57 37L60 37L60 39L59 39L59 40L60 40L60 41L59 41L59 42L60 42L60 43L62 43L62 41L61 41L61 40L60 40L60 39L62 39L62 38L64 38L64 37L66 37L66 38L65 38L65 39L63 39L63 41L67 41L67 42L69 42L69 41L68 41L68 40L69 40L69 39L68 39L68 38L67 38L67 37L68 37L68 36L67 36L67 35L68 35L68 34L69 34L69 33L68 33L68 34L67 34L67 35L66 35L66 34L65 34L65 33L66 33L66 32L67 32L67 31L68 31L68 30L69 30L69 29L67 29L67 31L64 31L64 30L65 30L65 29L64 29L64 28L67 28L67 27L64 27L64 28L63 28L63 26L62 26L62 23L63 23L63 24L67 24L67 25L64 25L64 26L69 26L69 24L68 24L68 23L66 23L66 22L69 22L69 21L68 21L68 18L69 18L69 16L68 16L68 14L62 14L62 13L63 13L63 12L64 12L64 11L65 11L65 12L66 12L66 13L67 13L67 12L68 12L68 13L69 13L69 12L68 12L68 10L67 10L67 9L68 9L68 8L67 8L67 9L66 9L66 8L65 8L65 9L64 9L64 8L63 8L63 9L64 9L64 10L61 10L61 9L62 9L62 8L61 8L61 6L60 6L60 7L59 7L59 4L57 4L57 6L56 6L56 5L55 5L55 4L56 4L56 3L59 3L59 2L58 2L58 1L61 1L61 0L57 0L57 2L56 2L56 3L55 3L55 2L53 2L53 5L52 5L52 4L51 4L51 6L50 6L50 8L49 8L49 5L50 5L50 4L49 4L49 3L48 3L48 1L49 1L49 2L50 2L50 0L47 0L47 2L46 2L46 1L45 1L45 0L44 0L44 1L45 1L45 2L46 2L46 3L45 3L45 4L47 4L47 3L48 3L48 4L49 4L49 5L48 5L48 7L47 7L47 5L44 5L44 2L43 2L43 0L39 0L39 1L38 1L38 0L37 0L37 1L34 1L34 0L33 0L33 1L34 1L34 2L35 2L35 3L33 3L33 2L32 2L32 3L33 3L33 4L31 4L31 3L30 3L30 2L31 2L31 1L32 1L32 0L29 0L29 1L30 1L30 2L29 2L29 4L30 4L30 5L29 5L29 6L28 6L28 7L27 7L27 4L28 4L28 3L27 3L27 4L26 4L26 3L24 3L24 4L22 4L22 5L21 5L21 6L20 6L20 4L21 4L21 3L18 3L18 2L20 2L20 1L19 1L19 0L16 0L16 1L15 1L15 0ZM21 0L21 2L22 2L22 3L23 3L23 1L24 1L24 2L26 2L26 1L27 1L27 2L28 2L28 0L26 0L26 1L25 1L25 0L23 0L23 1L22 1L22 0ZM51 0L51 3L52 3L52 1L56 1L56 0ZM14 1L14 2L13 2L13 4L14 4L14 5L11 5L11 7L10 7L10 6L9 6L9 7L10 7L10 8L9 8L9 9L8 9L8 11L6 11L6 10L7 10L7 9L6 9L6 10L5 10L5 9L4 9L4 10L5 10L5 11L4 11L4 12L3 12L3 11L2 11L2 14L3 14L3 15L2 15L2 16L4 16L4 17L5 17L5 16L7 16L7 15L8 15L8 12L9 12L9 15L10 15L10 16L12 16L12 15L10 15L10 14L11 14L11 12L9 12L9 9L10 9L10 10L14 10L14 11L13 11L13 12L15 12L15 13L14 13L14 14L15 14L15 13L16 13L16 9L15 9L15 8L20 8L20 10L21 10L21 11L20 11L20 15L19 15L19 14L18 14L18 15L17 15L17 14L16 14L16 18L18 18L18 17L22 17L22 18L21 18L21 20L19 20L19 21L20 21L20 22L19 22L19 25L20 25L20 27L19 27L19 26L18 26L18 25L17 25L17 24L18 24L18 23L17 23L17 22L16 22L16 23L14 23L14 22L13 22L13 23L11 23L11 22L10 22L10 24L9 24L9 26L10 26L10 27L11 27L11 28L12 28L12 30L13 30L13 31L12 31L12 32L11 32L11 33L10 33L10 34L11 34L11 35L9 35L9 37L8 37L8 38L7 38L7 37L6 37L6 38L7 38L7 39L5 39L5 38L4 38L4 39L3 39L3 40L2 40L2 41L3 41L3 40L4 40L4 39L5 39L5 41L6 41L6 42L5 42L5 43L4 43L4 45L3 45L3 44L2 44L2 45L3 45L3 47L4 47L4 49L6 49L6 50L7 50L7 49L6 49L6 48L7 48L7 47L9 47L9 48L8 48L8 51L6 51L6 52L7 52L7 53L6 53L6 54L5 54L5 55L4 55L4 56L5 56L5 55L6 55L6 56L7 56L7 57L5 57L5 58L8 58L8 57L9 57L9 59L8 59L8 60L10 60L10 59L11 59L11 58L10 58L10 56L11 56L11 57L12 57L12 58L13 58L13 59L12 59L12 60L11 60L11 61L12 61L12 60L14 60L14 61L13 61L13 62L15 62L15 63L16 63L16 64L17 64L17 65L18 65L18 64L17 64L17 63L18 63L18 62L19 62L19 61L20 61L20 62L22 62L22 63L23 63L23 62L22 62L22 61L23 61L23 60L24 60L24 61L25 61L25 60L24 60L24 59L23 59L23 58L24 58L24 57L22 57L22 56L21 56L21 55L22 55L22 54L23 54L23 55L24 55L24 56L25 56L25 57L27 57L27 59L26 59L26 62L27 62L27 63L28 63L28 64L27 64L27 65L25 65L25 67L27 67L27 66L29 66L29 64L31 64L31 65L32 65L32 66L35 66L35 65L32 65L32 64L31 64L31 63L32 63L32 62L29 62L29 61L27 61L27 60L30 60L30 58L31 58L31 59L32 59L32 60L31 60L31 61L32 61L32 60L33 60L33 59L32 59L32 58L31 58L31 57L29 57L29 55L31 55L31 56L32 56L32 57L33 57L33 58L35 58L35 56L36 56L36 55L37 55L37 56L38 56L38 60L37 60L37 61L38 61L38 60L39 60L39 57L41 57L41 58L42 58L42 59L41 59L41 60L43 60L43 59L44 59L44 62L43 62L43 63L41 63L41 64L44 64L44 66L45 66L45 65L46 65L46 66L47 66L47 65L46 65L46 64L48 64L48 63L49 63L49 65L50 65L50 66L49 66L49 67L48 67L48 68L50 68L50 66L51 66L51 65L54 65L54 64L51 64L51 62L53 62L53 63L54 63L54 62L53 62L53 60L52 60L52 59L54 59L54 60L55 60L55 58L53 58L53 57L55 57L55 55L56 55L56 62L59 62L59 63L58 63L58 64L55 64L55 65L56 65L56 66L55 66L55 67L56 67L56 66L57 66L57 67L58 67L58 66L59 66L59 65L60 65L60 64L59 64L59 63L60 63L60 62L59 62L59 61L60 61L60 60L65 60L65 61L66 61L66 60L65 60L65 59L67 59L67 58L68 58L68 56L64 56L64 57L63 57L63 56L62 56L62 57L63 57L63 58L62 58L62 59L60 59L60 58L61 58L61 57L60 57L60 56L61 56L61 55L65 55L65 53L66 53L66 52L64 52L64 53L63 53L63 52L62 52L62 51L64 51L64 50L65 50L65 51L68 51L68 50L65 50L65 49L64 49L64 50L62 50L62 49L61 49L61 50L60 50L60 51L61 51L61 52L59 52L59 49L60 49L60 48L61 48L61 47L60 47L60 48L59 48L59 45L57 45L57 43L56 43L56 42L55 42L55 43L56 43L56 45L55 45L55 44L54 44L54 43L53 43L53 44L51 44L51 45L49 45L49 46L51 46L51 45L52 45L52 47L48 47L48 48L47 48L47 46L48 46L48 45L46 45L46 44L50 44L50 42L48 42L48 43L46 43L46 42L47 42L47 40L45 40L45 38L44 38L44 37L45 37L45 36L44 36L44 33L45 33L45 34L47 34L47 33L46 33L46 32L44 32L44 31L46 31L46 30L47 30L47 31L48 31L48 30L49 30L49 33L50 33L50 34L52 34L52 33L54 33L54 32L53 32L53 30L52 30L52 29L53 29L53 28L54 28L54 27L55 27L55 28L56 28L56 29L55 29L55 30L56 30L56 31L58 31L58 32L59 32L59 33L57 33L57 32L56 32L56 33L57 33L57 35L56 35L56 34L55 34L55 35L56 35L56 37L57 37L57 36L60 36L60 35L59 35L59 34L60 34L60 32L62 32L62 31L63 31L63 32L64 32L64 31L63 31L63 28L62 28L62 30L59 30L59 29L58 29L58 30L57 30L57 28L58 28L58 26L59 26L59 27L61 27L61 26L59 26L59 24L60 24L60 25L61 25L61 24L60 24L60 23L59 23L59 24L57 24L57 23L58 23L58 22L59 22L59 21L57 21L57 20L60 20L60 19L61 19L61 20L63 20L63 21L62 21L62 22L61 22L61 23L62 23L62 22L66 22L66 21L67 21L67 20L65 20L65 18L63 18L63 17L66 17L66 18L67 18L67 17L68 17L68 16L67 16L67 17L66 17L66 16L65 16L65 15L64 15L64 16L62 16L62 14L59 14L59 13L62 13L62 12L60 12L60 9L61 9L61 8L60 8L60 9L57 9L57 8L59 8L59 7L58 7L58 6L57 6L57 8L56 8L56 10L59 10L59 13L58 13L58 12L55 12L55 10L53 10L53 12L52 12L52 10L51 10L51 9L55 9L55 7L56 7L56 6L55 6L55 7L54 7L54 6L53 6L53 8L51 8L51 9L49 9L49 10L47 10L47 7L46 7L46 6L45 6L45 7L44 7L44 5L39 5L39 4L43 4L43 2L42 2L42 1L39 1L39 2L38 2L38 1L37 1L37 2L38 2L38 3L39 3L39 4L38 4L38 6L37 6L37 7L38 7L38 8L37 8L37 9L38 9L38 10L37 10L37 12L36 12L36 11L34 11L34 12L33 12L33 9L32 9L32 8L31 8L31 7L32 7L32 5L30 5L30 6L29 6L29 7L30 7L30 8L31 8L31 9L29 9L29 8L28 8L28 9L27 9L27 7L26 7L26 4L25 4L25 5L24 5L24 6L23 6L23 5L22 5L22 6L21 6L21 8L20 8L20 6L19 6L19 7L18 7L18 5L19 5L19 4L18 4L18 5L17 5L17 3L16 3L16 2L18 2L18 1L16 1L16 2L15 2L15 1ZM41 2L41 3L42 3L42 2ZM60 3L60 5L61 5L61 3ZM15 4L15 5L16 5L16 7L17 7L17 5L16 5L16 4ZM33 5L33 8L36 8L36 5ZM12 6L12 7L11 7L11 8L10 8L10 9L12 9L12 7L13 7L13 6ZM14 6L14 8L13 8L13 9L14 9L14 8L15 8L15 6ZM22 6L22 7L23 7L23 8L24 8L24 9L23 9L23 10L24 10L24 9L25 9L25 10L26 10L26 11L25 11L25 12L26 12L26 11L27 11L27 13L22 13L22 16L26 16L26 14L27 14L27 15L30 15L30 16L29 16L29 18L28 18L28 19L27 19L27 17L28 17L28 16L27 16L27 17L23 17L23 18L25 18L25 19L22 19L22 20L23 20L23 22L22 22L22 21L21 21L21 22L20 22L20 23L21 23L21 24L22 24L22 25L21 25L21 27L20 27L20 29L19 29L19 28L17 28L17 25L16 25L16 24L15 24L15 25L16 25L16 26L14 26L14 25L13 25L13 24L12 24L12 25L11 25L11 27L12 27L12 28L15 28L15 27L16 27L16 28L17 28L17 30L16 30L16 31L17 31L17 32L15 32L15 29L14 29L14 31L13 31L13 32L12 32L12 33L14 33L14 32L15 32L15 33L17 33L17 34L13 34L13 35L16 35L16 36L15 36L15 37L14 37L14 39L15 39L15 40L13 40L13 41L14 41L14 42L16 42L16 41L15 41L15 40L17 40L17 43L18 43L18 44L17 44L17 45L21 45L21 46L25 46L25 47L26 47L26 46L27 46L27 45L26 45L26 43L27 43L27 44L28 44L28 43L29 43L29 44L30 44L30 45L29 45L29 47L28 47L28 48L27 48L27 50L28 50L28 49L29 49L29 50L31 50L31 48L34 48L34 47L33 47L33 46L35 46L35 45L37 45L37 47L35 47L35 49L34 49L34 50L33 50L33 49L32 49L32 50L33 50L33 51L29 51L29 52L28 52L28 51L26 51L26 50L25 50L25 49L24 49L24 48L23 48L23 49L22 49L22 47L19 47L19 48L21 48L21 49L18 49L18 48L17 48L17 47L18 47L18 46L15 46L15 45L16 45L16 43L15 43L15 45L14 45L14 46L12 46L12 45L13 45L13 44L14 44L14 43L12 43L12 41L11 41L11 40L10 40L10 42L11 42L11 43L12 43L12 45L11 45L11 44L10 44L10 43L9 43L9 42L6 42L6 43L5 43L5 44L6 44L6 45L5 45L5 46L4 46L4 47L7 47L7 46L9 46L9 44L10 44L10 47L11 47L11 48L13 48L13 47L14 47L14 51L15 51L15 53L17 53L17 55L18 55L18 56L17 56L17 57L16 57L16 56L15 56L15 57L14 57L14 55L16 55L16 54L14 54L14 53L13 53L13 50L12 50L12 49L10 49L10 48L9 48L9 52L8 52L8 54L9 54L9 55L7 55L7 54L6 54L6 55L7 55L7 56L9 56L9 55L11 55L11 56L12 56L12 57L13 57L13 58L15 58L15 59L14 59L14 60L15 60L15 61L16 61L16 60L18 60L18 61L17 61L17 62L16 62L16 63L17 63L17 62L18 62L18 61L19 61L19 60L20 60L20 61L22 61L22 60L20 60L20 59L19 59L19 58L20 58L20 56L19 56L19 54L20 54L20 55L21 55L21 54L20 54L20 53L19 53L19 52L25 52L25 53L23 53L23 54L26 54L26 55L25 55L25 56L28 56L28 55L27 55L27 54L26 54L26 52L27 52L27 53L31 53L31 54L32 54L32 55L33 55L33 56L35 56L35 55L36 55L36 53L37 53L37 55L38 55L38 52L39 52L39 53L40 53L40 54L39 54L39 56L41 56L41 55L40 55L40 54L42 54L42 56L43 56L43 57L42 57L42 58L44 58L44 59L45 59L45 61L49 61L49 63L50 63L50 61L52 61L52 60L50 60L50 61L49 61L49 59L50 59L50 57L51 57L51 58L52 58L52 57L51 57L51 56L52 56L52 55L54 55L54 54L56 54L56 55L58 55L58 56L57 56L57 57L59 57L59 58L60 58L60 57L59 57L59 54L56 54L56 51L55 51L55 52L53 52L53 51L52 51L52 50L57 50L57 49L58 49L58 48L57 48L57 47L58 47L58 46L57 46L57 45L56 45L56 48L55 48L55 47L52 47L52 48L48 48L48 49L51 49L51 50L49 50L49 52L47 52L47 51L48 51L48 50L47 50L47 51L45 51L45 49L44 49L44 43L42 43L42 42L43 42L43 41L44 41L44 42L45 42L45 41L44 41L44 38L43 38L43 37L44 37L44 36L43 36L43 35L42 35L42 36L43 36L43 37L39 37L39 36L40 36L40 35L39 35L39 34L40 34L40 33L39 33L39 32L37 32L37 30L38 30L38 31L40 31L40 30L41 30L41 32L43 32L43 33L41 33L41 34L43 34L43 33L44 33L44 32L43 32L43 31L44 31L44 30L46 30L46 28L45 28L45 29L44 29L44 28L41 28L41 29L40 29L40 30L38 30L38 29L39 29L39 27L43 27L43 25L44 25L44 27L46 27L46 26L45 26L45 25L44 25L44 23L45 23L45 24L46 24L46 25L47 25L47 26L48 26L48 27L47 27L47 30L48 30L48 29L49 29L49 30L50 30L50 31L52 31L52 30L50 30L50 29L49 29L49 28L50 28L50 27L52 27L52 28L51 28L51 29L52 29L52 28L53 28L53 27L52 27L52 26L57 26L57 25L56 25L56 24L55 24L55 21L56 21L56 22L57 22L57 21L56 21L56 20L55 20L55 21L53 21L53 22L51 22L51 24L52 24L52 23L54 23L54 24L55 24L55 25L52 25L52 26L48 26L48 25L49 25L49 24L50 24L50 21L51 21L51 18L53 18L53 19L52 19L52 20L53 20L53 19L54 19L54 18L55 18L55 17L56 17L56 19L60 19L60 18L62 18L62 19L63 19L63 20L64 20L64 19L63 19L63 18L62 18L62 16L61 16L61 15L59 15L59 16L57 16L57 17L56 17L56 15L55 15L55 17L54 17L54 16L53 16L53 15L54 15L54 14L57 14L57 15L58 15L58 14L57 14L57 13L55 13L55 12L54 12L54 14L53 14L53 13L51 13L51 10L49 10L49 11L48 11L48 12L46 12L46 11L45 11L45 13L44 13L44 12L43 12L43 11L44 11L44 10L45 10L45 9L46 9L46 7L45 7L45 9L44 9L44 7L43 7L43 6L42 6L42 7L43 7L43 9L39 9L39 12L40 12L40 10L41 10L41 13L39 13L39 14L38 14L38 12L37 12L37 13L36 13L36 12L34 12L34 13L32 13L32 11L30 11L30 10L26 10L26 7L25 7L25 6L24 6L24 7L23 7L23 6ZM30 6L30 7L31 7L31 6ZM34 6L34 7L35 7L35 6ZM38 6L38 7L39 7L39 6ZM40 6L40 7L41 7L41 6ZM51 6L51 7L52 7L52 6ZM21 8L21 9L22 9L22 8ZM17 9L17 12L18 12L18 11L19 11L19 10L18 10L18 9ZM35 9L35 10L36 10L36 9ZM43 9L43 10L44 10L44 9ZM65 9L65 11L67 11L67 10L66 10L66 9ZM5 11L5 12L4 12L4 14L5 14L5 12L6 12L6 13L7 13L7 12L6 12L6 11ZM22 11L22 12L24 12L24 11ZM42 12L42 13L43 13L43 15L42 15L42 14L41 14L41 15L39 15L39 17L38 17L38 20L37 20L37 19L32 19L32 18L33 18L33 16L34 16L34 17L35 17L35 18L36 18L36 17L35 17L35 15L34 15L34 14L36 14L36 13L34 13L34 14L32 14L32 13L27 13L27 14L32 14L32 16L31 16L31 18L29 18L29 19L28 19L28 20L27 20L27 19L25 19L25 20L26 20L26 21L25 21L25 22L26 22L26 23L31 23L31 21L32 21L32 22L33 22L33 23L32 23L32 24L31 24L31 26L30 26L30 25L29 25L29 24L28 24L28 25L27 25L27 24L26 24L26 25L25 25L25 26L26 26L26 27L25 27L25 28L26 28L26 29L25 29L25 30L24 30L24 32L25 32L25 31L27 31L27 30L29 30L29 31L30 31L30 32L31 32L31 33L28 33L28 32L26 32L26 33L25 33L25 34L26 34L26 35L27 35L27 36L26 36L26 37L27 37L27 38L28 38L28 39L31 39L31 41L28 41L28 40L26 40L26 38L25 38L25 40L26 40L26 41L24 41L24 40L23 40L23 39L24 39L24 38L22 38L22 37L23 37L23 36L24 36L24 37L25 37L25 36L24 36L24 34L23 34L23 35L22 35L22 34L21 34L21 33L23 33L23 30L21 30L21 29L24 29L24 27L23 27L23 26L24 26L24 25L22 25L22 28L21 28L21 29L20 29L20 30L19 30L19 31L20 31L20 33L19 33L19 34L17 34L17 36L22 36L22 37L19 37L19 39L18 39L18 38L17 38L17 37L15 37L15 38L16 38L16 39L17 39L17 40L19 40L19 39L20 39L20 38L22 38L22 39L21 39L21 40L22 40L22 41L19 41L19 42L21 42L21 43L19 43L19 44L21 44L21 45L24 45L24 44L25 44L25 43L26 43L26 41L28 41L28 42L29 42L29 43L34 43L34 41L35 41L35 43L36 43L36 41L37 41L37 40L36 40L36 41L35 41L35 39L36 39L36 37L35 37L35 39L33 39L33 42L32 42L32 35L30 35L30 34L31 34L31 33L32 33L32 32L33 32L33 29L31 29L31 30L32 30L32 32L31 32L31 31L30 31L30 30L29 30L29 26L30 26L30 27L32 27L32 28L35 28L35 29L38 29L38 28L35 28L35 27L34 27L34 26L36 26L36 25L38 25L38 27L39 27L39 26L41 26L41 25L42 25L42 24L43 24L43 23L44 23L44 22L45 22L45 23L46 23L46 24L47 24L47 25L48 25L48 24L49 24L49 23L48 23L48 24L47 24L47 22L49 22L49 21L50 21L50 19L49 19L49 21L47 21L47 20L46 20L46 19L47 19L47 18L51 18L51 17L45 17L45 16L52 16L52 17L53 17L53 16L52 16L52 15L53 15L53 14L52 14L52 15L51 15L51 13L50 13L50 12L49 12L49 13L48 13L48 14L49 14L49 13L50 13L50 15L47 15L47 13L45 13L45 16L44 16L44 13L43 13L43 12ZM6 14L6 15L7 15L7 14ZM23 14L23 15L24 15L24 14ZM37 14L37 16L38 16L38 14ZM4 15L4 16L5 16L5 15ZM8 16L8 17L9 17L9 16ZM17 16L17 17L18 17L18 16ZM42 16L42 17L41 17L41 19L42 19L42 20L41 20L41 21L39 21L39 20L38 20L38 21L37 21L37 20L35 20L35 21L37 21L37 22L34 22L34 20L33 20L33 22L34 22L34 23L37 23L37 22L38 22L38 23L39 23L39 24L38 24L38 25L39 25L39 24L41 24L41 23L42 23L42 22L43 22L43 21L44 21L44 19L46 19L46 18L44 18L44 19L43 19L43 17L44 17L44 16ZM39 17L39 18L40 18L40 17ZM57 17L57 18L59 18L59 17ZM19 18L19 19L20 19L20 18ZM17 19L17 20L16 20L16 21L17 21L17 20L18 20L18 19ZM29 19L29 20L28 20L28 21L29 21L29 22L30 22L30 21L31 21L31 20L32 20L32 19ZM3 20L3 22L4 22L4 21L5 21L5 20ZM26 21L26 22L27 22L27 21ZM38 21L38 22L39 22L39 23L41 23L41 22L42 22L42 21L41 21L41 22L39 22L39 21ZM21 22L21 23L22 23L22 22ZM23 22L23 24L25 24L25 23L24 23L24 22ZM32 24L32 25L33 25L33 26L32 26L32 27L33 27L33 26L34 26L34 25L36 25L36 24ZM12 25L12 27L14 27L14 26L13 26L13 25ZM26 25L26 26L27 26L27 25ZM26 27L26 28L27 28L27 29L28 29L28 27ZM48 27L48 28L49 28L49 27ZM56 27L56 28L57 28L57 27ZM3 29L3 30L2 30L2 31L4 31L4 29ZM5 30L5 31L6 31L6 30ZM8 30L8 31L9 31L9 30ZM17 30L17 31L18 31L18 30ZM20 30L20 31L21 31L21 32L22 32L22 31L21 31L21 30ZM42 30L42 31L43 31L43 30ZM58 30L58 31L59 31L59 30ZM34 31L34 32L35 32L35 31ZM2 32L2 35L3 35L3 34L4 34L4 33L3 33L3 32ZM17 32L17 33L18 33L18 32ZM5 33L5 36L8 36L8 33ZM27 33L27 34L28 34L28 33ZM33 33L33 36L36 36L36 33ZM37 33L37 34L39 34L39 33ZM61 33L61 36L64 36L64 33ZM6 34L6 35L7 35L7 34ZM19 34L19 35L20 35L20 34ZM34 34L34 35L35 35L35 34ZM62 34L62 35L63 35L63 34ZM11 35L11 36L10 36L10 37L9 37L9 38L8 38L8 39L7 39L7 40L6 40L6 41L8 41L8 39L9 39L9 38L10 38L10 39L12 39L12 38L13 38L13 36L12 36L12 35ZM29 35L29 37L30 37L30 38L31 38L31 36L30 36L30 35ZM37 35L37 37L38 37L38 42L37 42L37 43L38 43L38 44L37 44L37 45L38 45L38 47L37 47L37 49L35 49L35 50L34 50L34 52L31 52L31 53L33 53L33 55L35 55L35 53L36 53L36 52L35 52L35 50L37 50L37 52L38 52L38 50L39 50L39 49L42 49L42 48L43 48L43 47L42 47L42 48L41 48L41 46L40 46L40 45L41 45L41 44L40 44L40 41L41 41L41 42L42 42L42 41L41 41L41 40L43 40L43 38L42 38L42 39L41 39L41 38L40 38L40 39L41 39L41 40L39 40L39 37L38 37L38 35ZM54 36L54 37L55 37L55 36ZM10 37L10 38L12 38L12 37ZM33 37L33 38L34 38L34 37ZM61 37L61 38L62 38L62 37ZM23 41L23 42L22 42L22 43L21 43L21 44L24 44L24 43L23 43L23 42L24 42L24 41ZM60 41L60 42L61 42L61 41ZM38 42L38 43L39 43L39 42ZM51 42L51 43L52 43L52 42ZM6 43L6 44L7 44L7 45L6 45L6 46L7 46L7 45L8 45L8 43ZM45 43L45 44L46 44L46 43ZM32 44L32 45L35 45L35 44ZM39 44L39 45L40 45L40 44ZM42 44L42 45L43 45L43 44ZM62 44L62 45L63 45L63 44ZM25 45L25 46L26 46L26 45ZM30 45L30 47L32 47L32 46L31 46L31 45ZM53 45L53 46L55 46L55 45ZM39 46L39 47L40 47L40 46ZM15 47L15 48L16 48L16 49L15 49L15 50L17 50L17 51L18 51L18 52L19 52L19 51L20 51L20 50L19 50L19 51L18 51L18 49L17 49L17 48L16 48L16 47ZM45 47L45 48L46 48L46 49L47 49L47 48L46 48L46 47ZM64 47L64 48L65 48L65 47ZM38 48L38 49L37 49L37 50L38 50L38 49L39 49L39 48ZM52 48L52 49L54 49L54 48ZM56 48L56 49L57 49L57 48ZM21 49L21 50L22 50L22 51L25 51L25 52L26 52L26 51L25 51L25 50L24 50L24 49L23 49L23 50L22 50L22 49ZM43 49L43 50L44 50L44 49ZM40 50L40 51L39 51L39 52L40 52L40 53L42 53L42 52L40 52L40 51L42 51L42 50ZM61 50L61 51L62 51L62 50ZM10 51L10 54L11 54L11 53L12 53L12 52L11 52L11 51ZM44 51L44 53L43 53L43 54L44 54L44 58L46 58L46 60L47 60L47 58L48 58L48 57L46 57L46 56L51 56L51 55L52 55L52 54L51 54L51 53L53 53L53 52L51 52L51 51L50 51L50 52L51 52L51 53L50 53L50 54L49 54L49 53L47 53L47 52L46 52L46 53L45 53L45 51ZM57 51L57 52L58 52L58 53L59 53L59 52L58 52L58 51ZM61 52L61 54L60 54L60 55L61 55L61 54L62 54L62 52ZM13 54L13 55L14 55L14 54ZM45 54L45 56L46 56L46 54ZM48 54L48 55L49 55L49 54ZM66 54L66 55L67 55L67 54ZM15 57L15 58L16 58L16 57ZM17 57L17 58L19 58L19 57ZM21 57L21 59L22 59L22 57ZM36 57L36 59L34 59L34 60L36 60L36 59L37 59L37 57ZM65 57L65 58L66 58L66 57ZM63 58L63 59L64 59L64 58ZM15 59L15 60L16 60L16 59ZM18 59L18 60L19 60L19 59ZM58 59L58 60L57 60L57 61L59 61L59 59ZM3 60L3 61L5 61L5 60ZM67 60L67 61L68 61L68 60ZM9 61L9 62L10 62L10 61ZM33 61L33 64L36 64L36 61ZM61 61L61 64L64 64L64 61ZM34 62L34 63L35 63L35 62ZM44 62L44 64L46 64L46 63L45 63L45 62ZM62 62L62 63L63 63L63 62ZM65 62L65 63L66 63L66 62ZM12 63L12 64L13 64L13 63ZM25 63L25 64L26 64L26 63ZM9 65L9 66L10 66L10 67L11 67L11 68L12 68L12 67L11 67L11 66L10 66L10 65ZM36 65L36 66L37 66L37 65ZM39 65L39 66L40 66L40 65ZM57 65L57 66L58 66L58 65ZM15 66L15 67L16 67L16 66ZM35 67L35 68L36 68L36 67ZM39 67L39 68L41 68L41 67ZM0 0L0 7L7 7L7 0ZM1 1L1 6L6 6L6 1ZM2 2L2 5L5 5L5 2ZM62 0L62 7L69 7L69 0ZM63 1L63 6L68 6L68 1ZM64 2L64 5L67 5L67 2ZM0 62L0 69L7 69L7 62ZM1 63L1 68L6 68L6 63ZM2 64L2 67L5 67L5 64Z" fill="#000000"/></g></g></svg>
