<?xml version="1.0" encoding="UTF-8"?>
<svg xmlns="http://www.w3.org/2000/svg" version="1.1" width="300" height="300" viewBox="0 0 300 300"><rect x="0" y="0" width="300" height="300" fill="#ffffff"/><g transform="scale(4.348)"><g transform="translate(0,0)"><path fill-rule="evenodd" d="M12 0L12 1L10 1L10 2L9 2L9 1L8 1L8 2L9 2L9 3L8 3L8 4L9 4L9 5L8 5L8 7L9 7L9 5L12 5L12 7L11 7L11 6L10 6L10 7L11 7L11 8L6 8L6 9L5 9L5 8L0 8L0 9L1 9L1 10L0 10L0 13L1 13L1 15L0 15L0 16L1 16L1 15L5 15L5 16L2 16L2 17L3 17L3 19L2 19L2 18L1 18L1 17L0 17L0 18L1 18L1 19L0 19L0 20L1 20L1 21L0 21L0 22L1 22L1 23L2 23L2 24L0 24L0 26L1 26L1 25L5 25L5 24L3 24L3 21L2 21L2 20L4 20L4 21L5 21L5 22L4 22L4 23L7 23L7 24L6 24L6 25L7 25L7 26L6 26L6 27L7 27L7 28L5 28L5 27L4 27L4 28L3 28L3 29L2 29L2 28L1 28L1 27L0 27L0 29L2 29L2 30L3 30L3 29L7 29L7 30L5 30L5 31L3 31L3 32L2 32L2 31L0 31L0 40L1 40L1 41L0 41L0 43L1 43L1 41L2 41L2 39L4 39L4 38L5 38L5 37L9 37L9 39L7 39L7 38L6 38L6 39L5 39L5 40L4 40L4 41L5 41L5 42L6 42L6 43L7 43L7 44L5 44L5 45L4 45L4 42L3 42L3 45L2 45L2 46L1 46L1 47L0 47L0 52L2 52L2 54L1 54L1 53L0 53L0 54L1 54L1 55L0 55L0 61L1 61L1 56L2 56L2 57L3 57L3 58L2 58L2 59L3 59L3 58L4 58L4 59L7 59L7 60L6 60L6 61L7 61L7 60L8 60L8 59L9 59L9 60L10 60L10 62L9 62L9 61L8 61L8 63L11 63L11 60L12 60L12 62L13 62L13 63L12 63L12 64L11 64L11 65L12 65L12 66L10 66L10 65L9 65L9 64L8 64L8 69L16 69L16 67L18 67L18 68L17 68L17 69L21 69L21 68L19 68L19 67L20 67L20 66L19 66L19 65L20 65L20 64L21 64L21 63L22 63L22 62L23 62L23 63L26 63L26 64L23 64L23 66L22 66L22 67L23 67L23 69L24 69L24 68L27 68L27 69L28 69L28 68L29 68L29 69L32 69L32 68L31 68L31 67L33 67L33 66L34 66L34 67L35 67L35 68L36 68L36 69L38 69L38 68L37 68L37 67L39 67L39 66L38 66L38 64L41 64L41 66L40 66L40 67L41 67L41 66L44 66L44 68L43 68L43 67L42 67L42 68L41 68L41 69L42 69L42 68L43 68L43 69L44 69L44 68L47 68L47 69L49 69L49 68L48 68L48 66L49 66L49 67L50 67L50 65L51 65L51 66L52 66L52 65L51 65L51 64L49 64L49 63L48 63L48 64L47 64L47 66L46 66L46 64L45 64L45 63L44 63L44 62L46 62L46 63L47 63L47 62L50 62L50 59L51 59L51 58L52 58L52 57L51 57L51 58L50 58L50 56L51 56L51 55L53 55L53 56L55 56L55 57L53 57L53 59L54 59L54 58L56 58L56 59L57 59L57 58L56 58L56 55L57 55L57 56L60 56L60 57L59 57L59 58L61 58L61 59L62 59L62 58L63 58L63 56L66 56L66 57L65 57L65 58L66 58L66 57L67 57L67 59L64 59L64 60L60 60L60 64L59 64L59 65L60 65L60 66L59 66L59 67L61 67L61 65L64 65L64 66L62 66L62 67L64 67L64 66L65 66L65 68L61 68L61 69L65 69L65 68L66 68L66 69L68 69L68 68L67 68L67 67L66 67L66 66L67 66L67 65L68 65L68 64L67 64L67 63L68 63L68 62L69 62L69 61L68 61L68 60L69 60L69 59L68 59L68 57L69 57L69 56L68 56L68 54L69 54L69 53L66 53L66 52L68 52L68 50L69 50L69 48L68 48L68 46L69 46L69 45L67 45L67 42L69 42L69 39L68 39L68 38L65 38L65 39L61 39L61 38L62 38L62 37L63 37L63 38L64 38L64 37L68 37L68 36L69 36L69 35L68 35L68 34L69 34L69 33L68 33L68 34L67 34L67 33L66 33L66 32L69 32L69 31L68 31L68 30L69 30L69 29L67 29L67 31L65 31L65 30L64 30L64 29L63 29L63 30L64 30L64 32L63 32L63 31L62 31L62 28L65 28L65 29L66 29L66 28L69 28L69 27L68 27L68 26L69 26L69 23L68 23L68 22L67 22L67 21L68 21L68 18L69 18L69 17L68 17L68 16L69 16L69 15L68 15L68 13L67 13L67 11L68 11L68 8L67 8L67 9L66 9L66 8L65 8L65 9L64 9L64 8L63 8L63 10L64 10L64 12L66 12L66 13L67 13L67 14L65 14L65 13L64 13L64 15L63 15L63 14L62 14L62 12L63 12L63 11L62 11L62 8L61 8L61 6L60 6L60 7L59 7L59 4L58 4L58 7L57 7L57 6L56 6L56 2L57 2L57 3L59 3L59 2L57 2L57 0L51 0L51 1L52 1L52 2L50 2L50 4L51 4L51 3L52 3L52 2L54 2L54 3L53 3L53 5L54 5L54 7L53 7L53 6L52 6L52 7L51 7L51 5L49 5L49 3L48 3L48 2L47 2L47 1L48 1L48 0L47 0L47 1L46 1L46 0L44 0L44 1L46 1L46 2L47 2L47 4L48 4L48 5L47 5L47 6L46 6L46 5L44 5L44 3L45 3L45 4L46 4L46 3L45 3L45 2L44 2L44 3L42 3L42 2L43 2L43 0L39 0L39 1L38 1L38 0L33 0L33 2L32 2L32 3L29 3L29 1L30 1L30 2L31 2L31 1L32 1L32 0L31 0L31 1L30 1L30 0L28 0L28 1L27 1L27 2L26 2L26 1L25 1L25 0L21 0L21 2L24 2L24 3L23 3L23 4L22 4L22 3L16 3L16 2L20 2L20 1L19 1L19 0L17 0L17 1L16 1L16 0L14 0L14 1L13 1L13 0ZM49 0L49 1L50 1L50 0ZM58 0L58 1L61 1L61 0ZM12 1L12 2L13 2L13 1ZM37 1L37 2L33 2L33 3L32 3L32 4L33 4L33 3L34 3L34 4L36 4L36 3L38 3L38 4L37 4L37 5L38 5L38 6L37 6L37 9L38 9L38 10L36 10L36 9L32 9L32 8L31 8L31 7L32 7L32 5L30 5L30 4L29 4L29 3L28 3L28 2L27 2L27 3L26 3L26 4L25 4L25 8L26 8L26 10L25 10L25 9L24 9L24 8L23 8L23 7L24 7L24 6L23 6L23 5L22 5L22 4L19 4L19 5L20 5L20 6L19 6L19 9L20 9L20 11L18 11L18 10L17 10L17 12L20 12L20 15L19 15L19 14L18 14L18 15L16 15L16 16L15 16L15 17L14 17L14 16L12 16L12 17L11 17L11 15L9 15L9 14L12 14L12 15L15 15L15 14L14 14L14 13L15 13L15 12L16 12L16 11L15 11L15 8L13 8L13 9L12 9L12 10L11 10L11 9L8 9L8 10L7 10L7 9L6 9L6 10L2 10L2 11L3 11L3 13L4 13L4 12L5 12L5 11L6 11L6 12L7 12L7 11L9 11L9 12L8 12L8 13L5 13L5 15L6 15L6 16L7 16L7 15L6 15L6 14L8 14L8 16L9 16L9 17L8 17L8 18L10 18L10 19L9 19L9 20L7 20L7 19L6 19L6 18L7 18L7 17L5 17L5 18L4 18L4 20L5 20L5 21L6 21L6 22L7 22L7 21L8 21L8 22L10 22L10 23L9 23L9 24L8 24L8 26L7 26L7 27L9 27L9 25L12 25L12 23L13 23L13 24L14 24L14 23L16 23L16 21L15 21L15 22L14 22L14 19L13 19L13 18L15 18L15 19L16 19L16 20L19 20L19 19L20 19L20 18L19 18L19 19L17 19L17 18L18 18L18 17L21 17L21 19L22 19L22 20L20 20L20 22L21 22L21 23L20 23L20 24L21 24L21 25L19 25L19 26L17 26L17 27L19 27L19 29L20 29L20 30L21 30L21 29L22 29L22 31L21 31L21 32L20 32L20 31L19 31L19 32L20 32L20 33L19 33L19 34L17 34L17 33L18 33L18 32L17 32L17 31L18 31L18 30L17 30L17 28L16 28L16 27L15 27L15 26L16 26L16 25L17 25L17 24L16 24L16 25L15 25L15 26L14 26L14 25L13 25L13 27L14 27L14 28L16 28L16 29L15 29L15 35L16 35L16 36L15 36L15 41L16 41L16 42L15 42L15 43L14 43L14 44L12 44L12 42L14 42L14 41L13 41L13 39L14 39L14 38L13 38L13 37L14 37L14 36L12 36L12 35L14 35L14 34L11 34L11 33L12 33L12 30L13 30L13 28L12 28L12 27L11 27L11 26L10 26L10 27L11 27L11 28L10 28L10 29L8 29L8 30L10 30L10 29L11 29L11 31L10 31L10 32L11 32L11 33L9 33L9 34L10 34L10 35L9 35L9 37L12 37L12 38L13 38L13 39L12 39L12 40L10 40L10 41L12 41L12 42L9 42L9 41L6 41L6 40L7 40L7 39L6 39L6 40L5 40L5 41L6 41L6 42L9 42L9 44L7 44L7 45L5 45L5 46L2 46L2 47L1 47L1 50L2 50L2 49L3 49L3 54L2 54L2 55L3 55L3 54L4 54L4 56L3 56L3 57L4 57L4 58L5 58L5 57L6 57L6 58L9 58L9 59L10 59L10 57L6 57L6 56L9 56L9 55L8 55L8 54L9 54L9 53L10 53L10 52L9 52L9 51L11 51L11 50L10 50L10 49L11 49L11 48L12 48L12 47L13 47L13 49L12 49L12 52L14 52L14 51L13 51L13 49L14 49L14 50L16 50L16 51L15 51L15 54L13 54L13 53L11 53L11 54L12 54L12 55L15 55L15 54L17 54L17 55L16 55L16 57L15 57L15 58L16 58L16 57L17 57L17 58L19 58L19 57L20 57L20 58L21 58L21 57L22 57L22 59L17 59L17 60L16 60L16 59L15 59L15 60L14 60L14 61L15 61L15 63L16 63L16 62L17 62L17 63L18 63L18 62L20 62L20 63L21 63L21 61L23 61L23 62L24 62L24 61L25 61L25 62L27 62L27 61L28 61L28 63L27 63L27 64L28 64L28 65L25 65L25 67L27 67L27 68L28 68L28 67L27 67L27 66L28 66L28 65L29 65L29 64L30 64L30 63L29 63L29 62L31 62L31 63L32 63L32 59L34 59L34 60L35 60L35 59L37 59L37 60L38 60L38 62L37 62L37 64L38 64L38 62L39 62L39 63L41 63L41 64L44 64L44 66L45 66L45 67L46 67L46 66L45 66L45 64L44 64L44 63L42 63L42 62L41 62L41 60L42 60L42 61L43 61L43 62L44 62L44 61L46 61L46 62L47 62L47 60L49 60L49 59L50 59L50 58L49 58L49 57L48 57L48 58L49 58L49 59L47 59L47 57L46 57L46 56L47 56L47 55L49 55L49 56L50 56L50 55L51 55L51 53L55 53L55 54L53 54L53 55L56 55L56 53L57 53L57 55L61 55L61 54L60 54L60 52L61 52L61 51L60 51L60 52L59 52L59 51L58 51L58 50L59 50L59 49L60 49L60 50L61 50L61 49L62 49L62 51L63 51L63 52L62 52L62 56L61 56L61 58L62 58L62 56L63 56L63 55L65 55L65 54L66 54L66 53L65 53L65 52L64 52L64 51L67 51L67 50L66 50L66 49L68 49L68 48L65 48L65 47L66 47L66 44L63 44L63 46L62 46L62 48L61 48L61 49L60 49L60 48L59 48L59 46L60 46L60 47L61 47L61 46L60 46L60 45L61 45L61 44L62 44L62 43L66 43L66 42L65 42L65 41L64 41L64 40L62 40L62 41L61 41L61 42L59 42L59 41L60 41L60 40L61 40L61 39L60 39L60 40L59 40L59 39L58 39L58 40L56 40L56 43L55 43L55 44L54 44L54 45L55 45L55 46L53 46L53 43L51 43L51 42L53 42L53 41L54 41L54 40L52 40L52 39L54 39L54 38L52 38L52 37L53 37L53 34L54 34L54 35L55 35L55 36L54 36L54 37L55 37L55 38L56 38L56 39L57 39L57 38L61 38L61 37L60 37L60 35L59 35L59 34L60 34L60 33L59 33L59 32L60 32L60 31L61 31L61 30L59 30L59 28L61 28L61 27L65 27L65 28L66 28L66 27L65 27L65 26L63 26L63 25L65 25L65 24L63 24L63 23L67 23L67 22L66 22L66 20L65 20L65 18L66 18L66 19L67 19L67 18L66 18L66 16L65 16L65 15L64 15L64 16L62 16L62 14L59 14L59 13L61 13L61 12L62 12L62 11L61 11L61 12L60 12L60 11L59 11L59 12L55 12L55 11L53 11L53 9L54 9L54 8L56 8L56 9L55 9L55 10L56 10L56 11L57 11L57 10L60 10L60 9L61 9L61 8L60 8L60 9L57 9L57 8L56 8L56 6L55 6L55 7L54 7L54 8L50 8L50 11L52 11L52 12L50 12L50 15L51 15L51 14L52 14L52 13L56 13L56 14L53 14L53 15L52 15L52 16L49 16L49 14L47 14L47 12L49 12L49 10L47 10L47 7L48 7L48 6L47 6L47 7L46 7L46 6L45 6L45 7L44 7L44 5L43 5L43 7L42 7L42 6L41 6L41 5L40 5L40 4L41 4L41 2L42 2L42 1L41 1L41 2L38 2L38 1ZM14 2L14 4L13 4L13 3L12 3L12 5L14 5L14 4L15 4L15 7L16 7L16 9L17 9L17 7L18 7L18 6L17 6L17 7L16 7L16 5L17 5L17 4L15 4L15 2ZM9 3L9 4L10 4L10 3ZM27 3L27 4L26 4L26 8L28 8L28 9L30 9L30 10L29 10L29 11L28 11L28 10L27 10L27 12L29 12L29 14L27 14L27 13L25 13L25 12L26 12L26 11L25 11L25 12L24 12L24 11L23 11L23 12L24 12L24 13L21 13L21 17L22 17L22 18L24 18L24 19L23 19L23 22L22 22L22 23L21 23L21 24L22 24L22 25L21 25L21 26L20 26L20 27L21 27L21 28L20 28L20 29L21 29L21 28L22 28L22 27L21 27L21 26L22 26L22 25L24 25L24 26L23 26L23 27L24 27L24 28L25 28L25 29L23 29L23 30L25 30L25 31L26 31L26 32L25 32L25 33L21 33L21 35L23 35L23 34L25 34L25 33L28 33L28 34L26 34L26 36L24 36L24 37L21 37L21 38L20 38L20 37L19 37L19 36L18 36L18 35L17 35L17 38L18 38L18 39L19 39L19 38L20 38L20 40L17 40L17 41L19 41L19 42L17 42L17 43L18 43L18 44L17 44L17 46L16 46L16 48L17 48L17 49L18 49L18 50L17 50L17 51L19 51L19 52L16 52L16 53L19 53L19 54L20 54L20 57L21 57L21 56L22 56L22 57L24 57L24 58L23 58L23 59L24 59L24 60L23 60L23 61L24 61L24 60L25 60L25 61L26 61L26 60L27 60L27 59L29 59L29 58L33 58L33 57L31 57L31 54L30 54L30 55L29 55L29 54L26 54L26 52L27 52L27 53L31 53L31 51L30 51L30 49L31 49L31 50L32 50L32 54L33 54L33 55L32 55L32 56L33 56L33 55L34 55L34 54L33 54L33 53L34 53L34 52L33 52L33 51L34 51L34 49L33 49L33 48L32 48L32 49L31 49L31 46L27 46L27 45L28 45L28 43L29 43L29 42L26 42L26 43L25 43L25 44L24 44L24 43L22 43L22 44L24 44L24 45L21 45L21 46L24 46L24 47L23 47L23 48L26 48L26 47L25 47L25 46L27 46L27 48L28 48L28 47L29 47L29 52L28 52L28 51L26 51L26 49L18 49L18 48L17 48L17 47L18 47L18 46L19 46L19 48L20 48L20 45L19 45L19 44L21 44L21 42L20 42L20 40L21 40L21 41L22 41L22 40L21 40L21 39L22 39L22 38L23 38L23 39L25 39L25 38L26 38L26 39L27 39L27 37L28 37L28 36L29 36L29 37L30 37L30 38L29 38L29 39L28 39L28 40L27 40L27 41L30 41L30 43L31 43L31 41L30 41L30 40L29 40L29 39L30 39L30 38L32 38L32 40L33 40L33 41L32 41L32 44L29 44L29 45L33 45L33 46L32 46L32 47L33 47L33 46L34 46L34 47L35 47L35 48L36 48L36 47L37 47L37 48L38 48L38 47L39 47L39 48L40 48L40 47L41 47L41 48L42 48L42 49L41 49L41 50L39 50L39 51L37 51L37 50L38 50L38 49L37 49L37 50L36 50L36 49L35 49L35 52L36 52L36 53L37 53L37 54L41 54L41 55L39 55L39 56L41 56L41 57L39 57L39 58L37 58L37 57L38 57L38 56L37 56L37 55L36 55L36 54L35 54L35 57L36 57L36 58L37 58L37 59L38 59L38 60L39 60L39 62L40 62L40 59L41 59L41 58L42 58L42 60L43 60L43 61L44 61L44 59L43 59L43 57L44 57L44 56L46 56L46 54L45 54L45 53L48 53L48 54L50 54L50 53L51 53L51 52L50 52L50 51L51 51L51 50L49 50L49 51L48 51L48 52L47 52L47 51L46 51L46 52L45 52L45 49L46 49L46 47L47 47L47 49L52 49L52 48L53 48L53 47L52 47L52 46L49 46L49 45L50 45L50 44L48 44L48 43L50 43L50 41L49 41L49 39L50 39L50 36L48 36L48 35L49 35L49 34L50 34L50 35L52 35L52 33L51 33L51 32L53 32L53 31L55 31L55 32L57 32L57 33L58 33L58 32L57 32L57 31L56 31L56 30L57 30L57 29L56 29L56 27L57 27L57 26L58 26L58 28L59 28L59 26L62 26L62 25L63 25L63 24L62 24L62 21L63 21L63 18L65 18L65 17L63 17L63 18L62 18L62 16L61 16L61 15L60 15L60 16L59 16L59 20L60 20L60 21L59 21L59 23L57 23L57 24L58 24L58 25L56 25L56 24L53 24L53 26L52 26L52 25L51 25L51 23L52 23L52 22L50 22L50 20L46 20L46 21L49 21L49 22L50 22L50 25L49 25L49 24L48 24L48 23L47 23L47 24L46 24L46 22L44 22L44 20L43 20L43 17L44 17L44 16L47 16L47 17L49 17L49 16L47 16L47 14L43 14L43 13L44 13L44 12L43 12L43 13L42 13L42 14L41 14L41 12L42 12L42 10L45 10L45 9L46 9L46 7L45 7L45 9L44 9L44 8L43 8L43 9L41 9L41 10L38 10L38 11L37 11L37 13L36 13L36 12L33 12L33 14L31 14L31 13L32 13L32 12L31 12L31 11L32 11L32 10L31 10L31 9L30 9L30 8L29 8L29 6L30 6L30 7L31 7L31 6L30 6L30 5L27 5L27 4L28 4L28 3ZM54 3L54 4L55 4L55 3ZM60 3L60 5L61 5L61 3ZM21 5L21 6L20 6L20 9L22 9L22 8L21 8L21 6L22 6L22 7L23 7L23 6L22 6L22 5ZM33 5L33 8L36 8L36 5ZM13 6L13 7L14 7L14 6ZM27 6L27 7L28 7L28 6ZM34 6L34 7L35 7L35 6ZM38 6L38 7L39 7L39 6ZM40 6L40 8L38 8L38 9L40 9L40 8L41 8L41 6ZM49 6L49 7L50 7L50 6ZM23 9L23 10L24 10L24 9ZM51 9L51 10L52 10L52 9ZM56 9L56 10L57 10L57 9ZM6 10L6 11L7 11L7 10ZM10 10L10 12L9 12L9 13L11 13L11 10ZM33 10L33 11L36 11L36 10ZM66 10L66 11L67 11L67 10ZM13 11L13 12L15 12L15 11ZM21 11L21 12L22 12L22 11ZM29 11L29 12L30 12L30 11ZM38 11L38 14L37 14L37 15L36 15L36 16L37 16L37 17L36 17L36 18L37 18L37 19L35 19L35 18L34 18L34 19L32 19L32 18L31 18L31 17L29 17L29 16L30 16L30 15L31 15L31 16L32 16L32 17L35 17L35 14L36 14L36 13L34 13L34 14L33 14L33 15L31 15L31 14L29 14L29 16L27 16L27 14L22 14L22 15L23 15L23 16L22 16L22 17L23 17L23 16L24 16L24 17L26 17L26 18L25 18L25 19L26 19L26 18L27 18L27 19L28 19L28 20L29 20L29 18L30 18L30 19L32 19L32 20L31 20L31 21L30 21L30 22L29 22L29 21L27 21L27 20L26 20L26 21L25 21L25 22L24 22L24 23L23 23L23 24L24 24L24 23L25 23L25 24L26 24L26 30L29 30L29 28L31 28L31 29L32 29L32 28L31 28L31 27L33 27L33 28L34 28L34 29L33 29L33 30L31 30L31 31L32 31L32 32L34 32L34 31L33 31L33 30L34 30L34 29L36 29L36 28L35 28L35 27L36 27L36 26L35 26L35 27L33 27L33 26L31 26L31 27L29 27L29 25L30 25L30 24L29 24L29 25L28 25L28 23L30 23L30 22L32 22L32 20L35 20L35 22L37 22L37 23L38 23L38 24L36 24L36 23L34 23L34 21L33 21L33 23L31 23L31 25L32 25L32 24L34 24L34 25L38 25L38 26L37 26L37 27L38 27L38 28L37 28L37 29L38 29L38 30L37 30L37 31L35 31L35 32L37 32L37 31L39 31L39 30L40 30L40 31L43 31L43 32L39 32L39 33L38 33L38 34L37 34L37 36L38 36L38 37L34 37L34 38L35 38L35 39L34 39L34 41L33 41L33 42L34 42L34 41L35 41L35 42L36 42L36 43L37 43L37 41L38 41L38 43L40 43L40 44L39 44L39 45L38 45L38 44L36 44L36 45L35 45L35 43L34 43L34 44L33 44L33 45L35 45L35 47L36 47L36 45L38 45L38 46L37 46L37 47L38 47L38 46L39 46L39 47L40 47L40 46L39 46L39 45L40 45L40 44L41 44L41 43L40 43L40 41L41 41L41 40L44 40L44 42L43 42L43 43L44 43L44 42L45 42L45 44L43 44L43 45L44 45L44 46L42 46L42 45L41 45L41 46L42 46L42 48L43 48L43 47L44 47L44 49L43 49L43 50L44 50L44 49L45 49L45 47L46 47L46 46L47 46L47 47L48 47L48 48L50 48L50 47L49 47L49 46L47 46L47 43L46 43L46 42L49 42L49 41L47 41L47 40L48 40L48 39L49 39L49 37L45 37L45 36L47 36L47 33L45 33L45 32L44 32L44 31L45 31L45 30L46 30L46 32L49 32L49 33L50 33L50 34L51 34L51 33L50 33L50 32L51 32L51 31L53 31L53 30L51 30L51 29L53 29L53 28L55 28L55 27L56 27L56 25L55 25L55 27L53 27L53 28L51 28L51 27L50 27L50 28L49 28L49 27L47 27L47 25L48 25L48 24L47 24L47 25L46 25L46 24L45 24L45 23L44 23L44 22L41 22L41 20L42 20L42 19L41 19L41 20L40 20L40 19L39 19L39 18L41 18L41 17L42 17L42 16L44 16L44 15L43 15L43 14L42 14L42 15L40 15L40 14L39 14L39 13L40 13L40 12L41 12L41 11L40 11L40 12L39 12L39 11ZM45 12L45 13L46 13L46 12ZM12 13L12 14L13 14L13 13ZM16 13L16 14L17 14L17 13ZM57 14L57 15L58 15L58 14ZM25 15L25 16L26 16L26 15ZM33 15L33 16L34 16L34 15ZM38 15L38 16L40 16L40 15ZM53 15L53 16L55 16L55 17L53 17L53 18L52 18L52 17L51 17L51 18L48 18L48 19L52 19L52 20L51 20L51 21L52 21L52 20L53 20L53 22L54 22L54 23L55 23L55 22L57 22L57 21L58 21L58 19L57 19L57 21L56 21L56 20L54 20L54 19L55 19L55 18L57 18L57 17L56 17L56 16L55 16L55 15ZM16 16L16 17L15 17L15 18L17 18L17 17L18 17L18 16ZM27 17L27 18L28 18L28 17ZM37 17L37 18L38 18L38 17ZM44 18L44 19L46 19L46 18ZM53 18L53 19L54 19L54 18ZM60 18L60 19L61 19L61 21L62 21L62 18ZM1 19L1 20L2 20L2 19ZM11 19L11 20L10 20L10 22L13 22L13 23L14 23L14 22L13 22L13 19ZM37 19L37 20L36 20L36 21L37 21L37 22L39 22L39 19ZM6 20L6 21L7 21L7 20ZM37 20L37 21L38 21L38 20ZM1 21L1 22L2 22L2 21ZM17 21L17 22L19 22L19 21ZM64 21L64 22L65 22L65 21ZM25 22L25 23L26 23L26 22ZM60 22L60 23L59 23L59 25L58 25L58 26L59 26L59 25L60 25L60 23L61 23L61 22ZM10 23L10 24L11 24L11 23ZM18 23L18 24L19 24L19 23ZM41 23L41 24L42 24L42 25L41 25L41 26L38 26L38 27L42 27L42 30L43 30L43 29L44 29L44 28L46 28L46 26L43 26L43 25L44 25L44 24L43 24L43 23ZM61 24L61 25L62 25L62 24ZM50 25L50 26L51 26L51 25ZM28 27L28 28L27 28L27 29L28 29L28 28L29 28L29 27ZM43 27L43 28L44 28L44 27ZM39 28L39 29L40 29L40 28ZM47 28L47 31L50 31L50 29L49 29L49 28ZM48 29L48 30L49 30L49 29ZM16 30L16 31L17 31L17 30ZM5 31L5 32L8 32L8 31ZM13 31L13 32L14 32L14 31ZM22 31L22 32L24 32L24 31ZM27 31L27 32L28 32L28 33L29 33L29 36L30 36L30 35L31 35L31 37L32 37L32 34L30 34L30 33L29 33L29 32L30 32L30 31ZM1 32L1 35L2 35L2 34L3 34L3 36L2 36L2 37L1 37L1 38L4 38L4 37L3 37L3 36L4 36L4 34L3 34L3 33L4 33L4 32L3 32L3 33L2 33L2 32ZM16 32L16 33L17 33L17 32ZM43 32L43 33L40 33L40 35L41 35L41 34L43 34L43 33L44 33L44 36L43 36L43 37L42 37L42 36L41 36L41 37L40 37L40 38L39 38L39 39L38 39L38 38L36 38L36 39L35 39L35 40L38 40L38 41L39 41L39 40L41 40L41 39L42 39L42 38L43 38L43 39L45 39L45 40L47 40L47 39L48 39L48 38L45 38L45 37L44 37L44 36L45 36L45 33L44 33L44 32ZM5 33L5 36L8 36L8 33ZM33 33L33 36L36 36L36 33ZM54 33L54 34L55 34L55 33ZM61 33L61 36L64 36L64 33ZM6 34L6 35L7 35L7 34ZM19 34L19 35L20 35L20 34ZM34 34L34 35L35 35L35 34ZM57 34L57 35L56 35L56 36L55 36L55 37L56 37L56 38L57 38L57 37L58 37L58 34ZM62 34L62 35L63 35L63 34ZM65 34L65 35L66 35L66 34ZM27 35L27 36L26 36L26 37L27 37L27 36L28 36L28 35ZM67 35L67 36L68 36L68 35ZM56 36L56 37L57 37L57 36ZM10 38L10 39L11 39L11 38ZM65 39L65 40L66 40L66 41L68 41L68 39L67 39L67 40L66 40L66 39ZM24 40L24 41L23 41L23 42L24 42L24 41L26 41L26 40ZM62 41L62 42L61 42L61 43L62 43L62 42L63 42L63 41ZM19 42L19 43L20 43L20 42ZM15 43L15 44L14 44L14 45L15 45L15 44L16 44L16 43ZM26 43L26 45L27 45L27 43ZM59 43L59 44L58 44L58 45L59 45L59 44L60 44L60 43ZM68 43L68 44L69 44L69 43ZM9 44L9 45L10 45L10 47L9 47L9 46L8 46L8 45L7 45L7 46L6 46L6 47L5 47L5 48L4 48L4 47L2 47L2 48L4 48L4 49L5 49L5 50L4 50L4 52L5 52L5 56L6 56L6 55L7 55L7 54L8 54L8 51L9 51L9 49L10 49L10 47L12 47L12 46L13 46L13 47L14 47L14 48L15 48L15 46L13 46L13 45L10 45L10 44ZM55 44L55 45L56 45L56 46L55 46L55 47L54 47L54 49L53 49L53 50L54 50L54 51L53 51L53 52L55 52L55 53L56 53L56 52L58 52L58 53L59 53L59 52L58 52L58 51L55 51L55 50L57 50L57 49L56 49L56 48L57 48L57 47L58 47L58 46L57 46L57 45L56 45L56 44ZM45 45L45 46L44 46L44 47L45 47L45 46L46 46L46 45ZM7 46L7 47L6 47L6 48L5 48L5 49L6 49L6 50L5 50L5 52L7 52L7 51L8 51L8 50L7 50L7 49L8 49L8 48L9 48L9 47L8 47L8 46ZM7 47L7 48L6 48L6 49L7 49L7 48L8 48L8 47ZM21 47L21 48L22 48L22 47ZM51 47L51 48L52 48L52 47ZM63 47L63 48L62 48L62 49L65 49L65 48L64 48L64 47ZM58 48L58 49L59 49L59 48ZM27 49L27 50L28 50L28 49ZM32 49L32 50L33 50L33 49ZM6 50L6 51L7 51L7 50ZM19 50L19 51L20 51L20 50ZM23 50L23 52L20 52L20 54L21 54L21 55L22 55L22 54L23 54L23 56L24 56L24 53L25 53L25 52L24 52L24 51L25 51L25 50ZM41 50L41 52L39 52L39 53L41 53L41 54L42 54L42 55L43 55L43 56L42 56L42 57L43 57L43 56L44 56L44 53L45 53L45 52L44 52L44 51L43 51L43 52L42 52L42 50ZM23 52L23 53L24 53L24 52ZM37 52L37 53L38 53L38 52ZM41 52L41 53L42 53L42 54L43 54L43 53L44 53L44 52L43 52L43 53L42 53L42 52ZM49 52L49 53L50 53L50 52ZM63 52L63 53L64 53L64 52ZM6 53L6 54L7 54L7 53ZM21 53L21 54L22 54L22 53ZM17 55L17 57L19 57L19 56L18 56L18 55ZM25 55L25 56L26 56L26 58L25 58L25 60L26 60L26 58L29 58L29 57L30 57L30 56L28 56L28 55L27 55L27 56L26 56L26 55ZM11 56L11 59L12 59L12 56ZM45 58L45 60L46 60L46 58ZM30 59L30 60L28 60L28 61L31 61L31 59ZM58 59L58 60L59 60L59 59ZM67 59L67 60L65 60L65 61L67 61L67 62L68 62L68 61L67 61L67 60L68 60L68 59ZM3 60L3 61L5 61L5 60ZM15 60L15 61L16 61L16 60ZM17 60L17 61L21 61L21 60ZM53 60L53 62L52 62L52 61L51 61L51 63L53 63L53 64L54 64L54 63L53 63L53 62L55 62L55 61L56 61L56 60L55 60L55 61L54 61L54 60ZM33 61L33 64L36 64L36 61ZM57 61L57 62L58 62L58 63L55 63L55 64L57 64L57 65L56 65L56 66L55 66L55 65L53 65L53 66L54 66L54 67L53 67L53 68L54 68L54 69L56 69L56 68L54 68L54 67L56 67L56 66L57 66L57 65L58 65L58 63L59 63L59 62L58 62L58 61ZM61 61L61 64L64 64L64 61ZM34 62L34 63L35 63L35 62ZM62 62L62 63L63 63L63 62ZM65 62L65 63L66 63L66 62ZM13 63L13 64L12 64L12 65L13 65L13 66L12 66L12 68L13 68L13 67L14 67L14 68L15 68L15 67L16 67L16 66L17 66L17 65L18 65L18 64L16 64L16 65L15 65L15 64L14 64L14 63ZM13 64L13 65L14 65L14 64ZM65 64L65 65L67 65L67 64ZM31 65L31 66L30 66L30 67L31 67L31 66L32 66L32 65ZM34 65L34 66L35 66L35 67L36 67L36 66L35 66L35 65ZM9 66L9 68L10 68L10 66ZM18 66L18 67L19 67L19 66ZM23 66L23 67L24 67L24 66ZM33 68L33 69L34 69L34 68ZM50 68L50 69L51 69L51 68ZM57 68L57 69L58 69L58 68ZM0 0L0 7L7 7L7 0ZM1 1L1 6L6 6L6 1ZM2 2L2 5L5 5L5 2ZM62 0L62 7L69 7L69 0ZM63 1L63 6L68 6L68 1ZM64 2L64 5L67 5L67 2ZM0 62L0 69L7 69L7 62ZM1 63L1 68L6 68L6 63ZM2 64L2 67L5 67L5 64Z" fill="#000000"/></g></g></svg>
