<?xml version="1.0" encoding="UTF-8"?>
<svg xmlns="http://www.w3.org/2000/svg" version="1.1" width="300" height="300" viewBox="0 0 300 300"><rect x="0" y="0" width="300" height="300" fill="#ffffff"/><g transform="scale(4.348)"><g transform="translate(0,0)"><path fill-rule="evenodd" d="M8 0L8 4L11 4L11 5L8 5L8 7L9 7L9 6L10 6L10 7L11 7L11 8L13 8L13 6L14 6L14 7L15 7L15 8L14 8L14 9L15 9L15 8L16 8L16 7L17 7L17 8L18 8L18 9L16 9L16 10L15 10L15 11L14 11L14 10L13 10L13 9L11 9L11 11L10 11L10 9L8 9L8 10L6 10L6 9L7 9L7 8L4 8L4 9L2 9L2 8L0 8L0 9L2 9L2 11L1 11L1 10L0 10L0 11L1 11L1 12L2 12L2 11L3 11L3 12L4 12L4 17L5 17L5 14L6 14L6 15L7 15L7 16L6 16L6 17L7 17L7 18L2 18L2 17L3 17L3 16L2 16L2 17L1 17L1 15L3 15L3 13L2 13L2 14L1 14L1 13L0 13L0 14L1 14L1 15L0 15L0 18L2 18L2 19L0 19L0 21L1 21L1 22L2 22L2 23L1 23L1 24L0 24L0 25L1 25L1 24L2 24L2 26L1 26L1 27L0 27L0 32L1 32L1 33L0 33L0 34L1 34L1 33L3 33L3 36L4 36L4 37L8 37L8 38L9 38L9 41L10 41L10 39L11 39L11 43L10 43L10 42L8 42L8 40L6 40L6 39L7 39L7 38L5 38L5 40L6 40L6 41L3 41L3 42L6 42L6 43L3 43L3 46L4 46L4 47L7 47L7 48L5 48L5 50L6 50L6 51L5 51L5 52L6 52L6 53L7 53L7 52L6 52L6 51L8 51L8 53L10 53L10 54L9 54L9 55L8 55L8 54L5 54L5 53L3 53L3 54L4 54L4 55L3 55L3 56L6 56L6 57L4 57L4 59L7 59L7 60L6 60L6 61L7 61L7 60L8 60L8 62L10 62L10 61L11 61L11 62L13 62L13 60L14 60L14 59L16 59L16 58L17 58L17 57L18 57L18 58L19 58L19 55L20 55L20 59L17 59L17 61L20 61L20 62L19 62L19 63L21 63L21 64L20 64L20 65L19 65L19 64L18 64L18 65L17 65L17 64L16 64L16 63L18 63L18 62L16 62L16 61L15 61L15 62L14 62L14 64L15 64L15 65L13 65L13 67L12 67L12 65L11 65L11 63L10 63L10 64L9 64L9 63L8 63L8 65L9 65L9 66L10 66L10 65L11 65L11 67L10 67L10 68L13 68L13 67L15 67L15 66L16 66L16 67L17 67L17 68L16 68L16 69L20 69L20 68L18 68L18 67L17 67L17 66L19 66L19 67L20 67L20 66L21 66L21 65L22 65L22 63L23 63L23 62L25 62L25 63L26 63L26 64L27 64L27 65L25 65L25 64L24 64L24 65L23 65L23 66L27 66L27 67L25 67L25 68L24 68L24 67L23 67L23 69L25 69L25 68L26 68L26 69L29 69L29 67L28 67L28 61L29 61L29 66L30 66L30 67L31 67L31 65L32 65L32 69L33 69L33 68L34 68L34 67L33 67L33 66L34 66L34 65L35 65L35 66L36 66L36 67L35 67L35 69L38 69L38 68L39 68L39 69L40 69L40 68L41 68L41 69L43 69L43 68L44 68L44 69L46 69L46 65L50 65L50 67L48 67L48 66L47 66L47 67L48 67L48 69L49 69L49 68L50 68L50 69L52 69L52 68L55 68L55 67L56 67L56 66L57 66L57 65L58 65L58 64L59 64L59 65L60 65L60 66L61 66L61 68L60 68L60 67L59 67L59 68L60 68L60 69L64 69L64 68L65 68L65 66L66 66L66 67L67 67L67 66L69 66L69 65L68 65L68 64L69 64L69 63L68 63L68 62L69 62L69 60L67 60L67 61L66 61L66 60L64 60L64 57L65 57L65 56L64 56L64 55L66 55L66 54L67 54L67 59L68 59L68 58L69 58L69 57L68 57L68 54L67 54L67 53L69 53L69 52L68 52L68 51L69 51L69 47L68 47L68 46L69 46L69 45L68 45L68 46L67 46L67 44L68 44L68 43L67 43L67 44L65 44L65 43L63 43L63 44L64 44L64 45L63 45L63 46L64 46L64 47L66 47L66 46L67 46L67 47L68 47L68 51L67 51L67 50L65 50L65 51L64 51L64 49L63 49L63 48L62 48L62 44L61 44L61 43L62 43L62 42L64 42L64 41L66 41L66 42L67 42L67 41L68 41L68 40L69 40L69 39L68 39L68 38L69 38L69 36L68 36L68 38L67 38L67 36L66 36L66 38L64 38L64 39L60 39L60 38L61 38L61 37L62 37L62 38L63 38L63 37L65 37L65 35L68 35L68 32L69 32L69 31L68 31L68 29L69 29L69 27L68 27L68 26L69 26L69 25L68 25L68 24L69 24L69 23L68 23L68 21L69 21L69 20L68 20L68 18L65 18L65 17L64 17L64 16L65 16L65 13L64 13L64 11L68 11L68 12L66 12L66 13L68 13L68 14L67 14L67 16L66 16L66 17L68 17L68 16L69 16L69 15L68 15L68 14L69 14L69 11L68 11L68 10L69 10L69 8L65 8L65 9L67 9L67 10L64 10L64 8L63 8L63 9L61 9L61 6L60 6L60 7L59 7L59 4L58 4L58 7L57 7L57 4L56 4L56 3L59 3L59 2L57 2L57 0L56 0L56 1L55 1L55 0L54 0L54 1L53 1L53 0L50 0L50 1L49 1L49 0L48 0L48 1L49 1L49 3L52 3L52 4L53 4L53 5L51 5L51 4L50 4L50 5L51 5L51 6L50 6L50 7L49 7L49 6L48 6L48 5L46 5L46 2L45 2L45 1L46 1L46 0L45 0L45 1L44 1L44 0L40 0L40 2L38 2L38 5L37 5L37 0L31 0L31 1L30 1L30 0L29 0L29 1L30 1L30 3L31 3L31 4L30 4L30 5L29 5L29 6L28 6L28 4L29 4L29 2L28 2L28 3L27 3L27 2L25 2L25 4L24 4L24 3L23 3L23 2L22 2L22 3L19 3L19 4L18 4L18 5L17 5L17 6L16 6L16 7L15 7L15 6L14 6L14 5L15 5L15 3L13 3L13 2L12 2L12 1L11 1L11 0L10 0L10 2L9 2L9 0ZM14 0L14 1L15 1L15 2L17 2L17 3L16 3L16 4L17 4L17 3L18 3L18 2L19 2L19 1L20 1L20 2L21 2L21 1L22 1L22 0ZM23 0L23 1L26 1L26 0ZM38 0L38 1L39 1L39 0ZM58 0L58 1L61 1L61 0ZM17 1L17 2L18 2L18 1ZM31 1L31 3L32 3L32 4L31 4L31 5L30 5L30 6L29 6L29 7L28 7L28 6L27 6L27 7L28 7L28 8L27 8L27 9L26 9L26 8L25 8L25 7L26 7L26 6L25 6L25 5L26 5L26 4L27 4L27 3L26 3L26 4L25 4L25 5L21 5L21 9L22 9L22 10L20 10L20 9L18 9L18 10L19 10L19 11L18 11L18 12L19 12L19 13L21 13L21 12L22 12L22 13L23 13L23 12L24 12L24 11L23 11L23 12L22 12L22 10L23 10L23 9L24 9L24 10L25 10L25 11L26 11L26 12L27 12L27 13L25 13L25 14L26 14L26 16L27 16L27 17L25 17L25 18L24 18L24 20L25 20L25 22L24 22L24 23L23 23L23 19L21 19L21 20L22 20L22 21L21 21L21 23L22 23L22 24L24 24L24 23L25 23L25 25L26 25L26 23L28 23L28 24L31 24L31 23L32 23L32 25L31 25L31 26L30 26L30 25L27 25L27 26L26 26L26 27L25 27L25 26L24 26L24 25L21 25L21 24L20 24L20 21L18 21L18 24L20 24L20 25L19 25L19 30L18 30L18 29L17 29L17 27L18 27L18 25L17 25L17 23L16 23L16 22L15 22L15 21L13 21L13 20L16 20L16 21L17 21L17 20L19 20L19 19L20 19L20 18L23 18L23 17L24 17L24 16L23 16L23 14L22 14L22 17L19 17L19 16L21 16L21 15L19 15L19 16L18 16L18 17L17 17L17 18L16 18L16 16L17 16L17 15L18 15L18 13L16 13L16 12L14 12L14 11L13 11L13 10L12 10L12 12L10 12L10 11L8 11L8 13L9 13L9 14L7 14L7 13L6 13L6 12L7 12L7 11L5 11L5 10L3 10L3 11L5 11L5 13L6 13L6 14L7 14L7 15L10 15L10 16L9 16L9 17L10 17L10 18L11 18L11 19L10 19L10 21L8 21L8 22L7 22L7 21L5 21L5 20L3 20L3 19L2 19L2 21L4 21L4 22L3 22L3 24L4 24L4 25L3 25L3 26L4 26L4 25L5 25L5 24L8 24L8 23L9 23L9 22L11 22L11 23L10 23L10 24L9 24L9 25L10 25L10 24L11 24L11 23L12 23L12 22L11 22L11 21L13 21L13 24L12 24L12 26L10 26L10 27L9 27L9 26L8 26L8 25L6 25L6 26L5 26L5 27L2 27L2 28L1 28L1 32L2 32L2 31L4 31L4 30L3 30L3 29L2 29L2 28L5 28L5 29L6 29L6 30L5 30L5 31L6 31L6 32L8 32L8 31L6 31L6 30L8 30L8 29L9 29L9 31L10 31L10 32L9 32L9 35L10 35L10 36L9 36L9 37L12 37L12 38L11 38L11 39L12 39L12 43L11 43L11 44L10 44L10 43L9 43L9 47L8 47L8 48L7 48L7 49L6 49L6 50L10 50L10 51L9 51L9 52L10 52L10 53L11 53L11 52L10 52L10 51L11 51L11 50L12 50L12 51L13 51L13 52L12 52L12 53L13 53L13 52L14 52L14 51L15 51L15 50L14 50L14 49L16 49L16 54L18 54L18 53L17 53L17 52L18 52L18 51L20 51L20 50L21 50L21 52L22 52L22 53L21 53L21 54L20 54L20 53L19 53L19 54L20 54L20 55L22 55L22 56L23 56L23 53L26 53L26 55L25 55L25 54L24 54L24 55L25 55L25 58L24 58L24 57L21 57L21 60L20 60L20 61L23 61L23 60L22 60L22 59L24 59L24 61L25 61L25 62L26 62L26 60L28 60L28 58L30 58L30 59L31 59L31 60L32 60L32 59L33 59L33 57L29 57L29 56L31 56L31 55L32 55L32 56L34 56L34 60L37 60L37 59L38 59L38 60L39 60L39 59L38 59L38 57L39 57L39 58L40 58L40 59L42 59L42 58L40 58L40 57L41 57L41 56L43 56L43 57L44 57L44 56L43 56L43 55L44 55L44 54L45 54L45 55L46 55L46 54L47 54L47 55L48 55L48 56L49 56L49 57L50 57L50 56L51 56L51 57L52 57L52 58L51 58L51 60L52 60L52 61L53 61L53 55L54 55L54 54L53 54L53 52L52 52L52 51L53 51L53 48L54 48L54 49L56 49L56 50L55 50L55 51L54 51L54 53L56 53L56 54L57 54L57 53L58 53L58 54L61 54L61 53L62 53L62 52L61 52L61 51L63 51L63 50L62 50L62 48L61 48L61 47L59 47L59 46L61 46L61 44L58 44L58 43L59 43L59 41L61 41L61 42L62 42L62 41L61 41L61 40L59 40L59 39L58 39L58 38L60 38L60 37L59 37L59 36L57 36L57 37L58 37L58 38L56 38L56 34L57 34L57 33L56 33L56 32L57 32L57 29L56 29L56 28L58 28L58 30L59 30L59 27L58 27L58 26L59 26L59 25L61 25L61 26L60 26L60 27L61 27L61 26L62 26L62 24L64 24L64 25L63 25L63 26L64 26L64 25L65 25L65 27L66 27L66 29L65 29L65 28L64 28L64 29L63 29L63 30L62 30L62 29L61 29L61 31L60 31L60 32L61 32L61 31L63 31L63 32L66 32L66 33L67 33L67 32L68 32L68 31L64 31L64 30L67 30L67 28L68 28L68 27L67 27L67 26L68 26L68 25L67 25L67 26L66 26L66 25L65 25L65 24L68 24L68 23L67 23L67 21L68 21L68 20L67 20L67 19L65 19L65 20L64 20L64 21L63 21L63 20L62 20L62 15L64 15L64 13L63 13L63 12L62 12L62 13L61 13L61 12L60 12L60 11L61 11L61 10L60 10L60 11L59 11L59 8L58 8L58 9L56 9L56 8L57 8L57 7L56 7L56 4L55 4L55 8L52 8L52 6L51 6L51 7L50 7L50 8L49 8L49 7L48 7L48 6L47 6L47 8L45 8L45 9L43 9L43 11L44 11L44 12L41 12L41 11L42 11L42 10L41 10L41 9L42 9L42 8L43 8L43 7L44 7L44 6L45 6L45 7L46 7L46 5L45 5L45 3L44 3L44 2L43 2L43 3L44 3L44 6L43 6L43 7L42 7L42 5L41 5L41 7L40 7L40 6L39 6L39 5L40 5L40 3L41 3L41 2L42 2L42 1L41 1L41 2L40 2L40 3L39 3L39 5L38 5L38 6L37 6L37 7L38 7L38 6L39 6L39 7L40 7L40 10L39 10L39 11L37 11L37 10L36 10L36 9L34 9L34 10L35 10L35 11L36 11L36 15L35 15L35 13L32 13L32 12L33 12L33 10L32 10L32 8L31 8L31 9L29 9L29 8L30 8L30 6L31 6L31 7L32 7L32 6L31 6L31 5L32 5L32 4L34 4L34 2L33 2L33 1ZM51 1L51 2L53 2L53 1ZM54 1L54 2L55 2L55 1ZM11 2L11 4L12 4L12 6L11 6L11 7L12 7L12 6L13 6L13 4L12 4L12 2ZM32 2L32 3L33 3L33 2ZM47 2L47 3L48 3L48 2ZM35 3L35 4L36 4L36 3ZM53 3L53 4L54 4L54 3ZM60 3L60 5L61 5L61 3ZM19 4L19 5L18 5L18 6L17 6L17 7L18 7L18 6L19 6L19 7L20 7L20 4ZM33 5L33 8L36 8L36 5ZM53 5L53 7L54 7L54 5ZM22 6L22 8L24 8L24 9L25 9L25 10L26 10L26 11L27 11L27 10L28 10L28 12L29 12L29 14L28 14L28 13L27 13L27 15L28 15L28 16L29 16L29 17L30 17L30 18L29 18L29 19L27 19L27 20L26 20L26 18L25 18L25 20L26 20L26 22L28 22L28 23L31 23L31 22L30 22L30 21L32 21L32 22L33 22L33 20L32 20L32 19L34 19L34 20L38 20L38 19L39 19L39 21L36 21L36 22L37 22L37 23L35 23L35 22L34 22L34 24L33 24L33 25L32 25L32 27L30 27L30 28L29 28L29 26L28 26L28 28L27 28L27 27L26 27L26 29L22 29L22 28L24 28L24 27L23 27L23 26L21 26L21 25L20 25L20 33L19 33L19 32L18 32L18 33L17 33L17 31L18 31L18 30L17 30L17 31L16 31L16 32L14 32L14 30L16 30L16 29L14 29L14 30L13 30L13 28L11 28L11 30L10 30L10 31L11 31L11 32L13 32L13 33L12 33L12 34L13 34L13 35L12 35L12 37L14 37L14 36L15 36L15 38L14 38L14 40L13 40L13 41L14 41L14 42L15 42L15 41L16 41L16 40L17 40L17 42L16 42L16 43L12 43L12 45L10 45L10 47L9 47L9 48L10 48L10 49L11 49L11 48L12 48L12 50L13 50L13 51L14 51L14 50L13 50L13 49L14 49L14 48L12 48L12 46L13 46L13 47L16 47L16 44L17 44L17 46L18 46L18 47L17 47L17 48L16 48L16 49L18 49L18 50L17 50L17 51L18 51L18 50L19 50L19 49L21 49L21 50L22 50L22 51L24 51L24 52L25 52L25 50L26 50L26 51L27 51L27 52L26 52L26 53L27 53L27 54L28 54L28 55L26 55L26 58L25 58L25 60L26 60L26 59L27 59L27 58L28 58L28 57L27 57L27 56L29 56L29 55L31 55L31 54L28 54L28 53L31 53L31 52L32 52L32 53L33 53L33 54L32 54L32 55L34 55L34 56L35 56L35 55L37 55L37 53L36 53L36 52L35 52L35 50L37 50L37 52L38 52L38 56L37 56L37 57L36 57L36 58L35 58L35 59L37 59L37 57L38 57L38 56L39 56L39 57L40 57L40 55L39 55L39 51L40 51L40 50L41 50L41 53L40 53L40 54L42 54L42 55L43 55L43 54L44 54L44 53L45 53L45 54L46 54L46 53L45 53L45 52L46 52L46 51L45 51L45 50L46 50L46 49L48 49L48 50L49 50L49 51L51 51L51 50L52 50L52 48L53 48L53 45L54 45L54 47L55 47L55 48L56 48L56 49L59 49L59 50L60 50L60 51L61 51L61 50L60 50L60 49L61 49L61 48L60 48L60 49L59 49L59 48L58 48L58 45L57 45L57 44L56 44L56 43L55 43L55 41L54 41L54 39L55 39L55 40L56 40L56 41L58 41L58 39L56 39L56 38L55 38L55 36L54 36L54 37L53 37L53 38L52 38L52 40L48 40L48 37L49 37L49 39L51 39L51 37L52 37L52 36L53 36L53 34L54 34L54 35L55 35L55 34L56 34L56 33L55 33L55 32L56 32L56 30L55 30L55 27L53 27L53 26L56 26L56 27L57 27L57 26L58 26L58 25L59 25L59 23L57 23L57 24L56 24L56 23L54 23L54 22L56 22L56 21L57 21L57 20L58 20L58 21L59 21L59 22L61 22L61 21L62 21L62 23L60 23L60 24L62 24L62 23L64 23L64 24L65 24L65 23L64 23L64 22L63 22L63 21L62 21L62 20L60 20L60 21L59 21L59 20L58 20L58 19L59 19L59 18L61 18L61 16L60 16L60 15L59 15L59 14L58 14L58 12L59 12L59 13L60 13L60 14L61 14L61 15L62 15L62 14L63 14L63 13L62 13L62 14L61 14L61 13L60 13L60 12L59 12L59 11L58 11L58 12L57 12L57 10L56 10L56 9L53 9L53 10L52 10L52 8L50 8L50 9L49 9L49 8L47 8L47 10L46 10L46 9L45 9L45 10L44 10L44 11L45 11L45 10L46 10L46 11L49 11L49 12L47 12L47 13L48 13L48 14L46 14L46 12L44 12L44 13L41 13L41 15L39 15L39 17L38 17L38 19L35 19L35 18L34 18L34 17L33 17L33 16L32 16L32 13L31 13L31 12L32 12L32 11L31 11L31 12L30 12L30 11L29 11L29 10L28 10L28 9L27 9L27 10L26 10L26 9L25 9L25 8L24 8L24 7L25 7L25 6L24 6L24 7L23 7L23 6ZM34 6L34 7L35 7L35 6ZM37 8L37 9L38 9L38 8ZM16 10L16 11L17 11L17 10ZM53 10L53 11L52 11L52 13L51 13L51 12L50 12L50 13L49 13L49 14L50 14L50 13L51 13L51 15L52 15L52 14L53 14L53 13L54 13L54 12L53 12L53 11L55 11L55 13L56 13L56 14L55 14L55 15L54 15L54 16L52 16L52 17L51 17L51 16L50 16L50 17L49 17L49 18L48 18L48 17L46 17L46 15L45 15L45 14L42 14L42 15L43 15L43 17L44 17L44 15L45 15L45 17L46 17L46 18L47 18L47 19L44 19L44 18L41 18L41 17L42 17L42 16L40 16L40 18L39 18L39 19L40 19L40 18L41 18L41 20L40 20L40 21L39 21L39 22L41 22L41 24L40 24L40 27L41 27L41 28L40 28L40 31L38 31L38 29L37 29L37 28L38 28L38 27L39 27L39 26L38 26L38 23L37 23L37 26L36 26L36 24L34 24L34 26L33 26L33 27L32 27L32 28L31 28L31 29L33 29L33 30L32 30L32 32L31 32L31 34L30 34L30 35L29 35L29 36L28 36L28 34L29 34L29 33L27 33L27 36L28 36L28 38L30 38L30 37L29 37L29 36L30 36L30 35L31 35L31 36L32 36L32 35L31 35L31 34L32 34L32 32L33 32L33 30L34 30L34 31L35 31L35 32L36 32L36 31L38 31L38 32L40 32L40 34L41 34L41 33L44 33L44 34L43 34L43 35L42 35L42 36L41 36L41 35L38 35L38 36L40 36L40 37L39 37L39 38L38 38L38 37L37 37L37 38L36 38L36 37L35 37L35 38L33 38L33 37L32 37L32 38L31 38L31 39L28 39L28 40L27 40L27 41L28 41L28 42L27 42L27 43L26 43L26 39L27 39L27 37L26 37L26 34L22 34L22 33L23 33L23 32L24 32L24 33L26 33L26 32L24 32L24 31L23 31L23 32L22 32L22 33L21 33L21 34L20 34L20 35L19 35L19 34L17 34L17 33L15 33L15 34L14 34L14 33L13 33L13 34L14 34L14 35L13 35L13 36L14 36L14 35L15 35L15 36L16 36L16 38L15 38L15 39L17 39L17 36L18 36L18 35L19 35L19 36L20 36L20 37L19 37L19 39L20 39L20 37L21 37L21 38L23 38L23 37L24 37L24 36L25 36L25 38L24 38L24 39L23 39L23 40L22 40L22 39L21 39L21 41L22 41L22 42L23 42L23 41L24 41L24 42L25 42L25 43L26 43L26 44L25 44L25 45L26 45L26 47L25 47L25 46L23 46L23 45L24 45L24 43L22 43L22 45L21 45L21 43L20 43L20 41L19 41L19 42L17 42L17 44L18 44L18 43L20 43L20 44L19 44L19 46L20 46L20 45L21 45L21 47L22 47L22 46L23 46L23 47L25 47L25 48L24 48L24 49L23 49L23 48L21 48L21 49L23 49L23 50L24 50L24 49L25 49L25 48L27 48L27 51L28 51L28 50L31 50L31 51L29 51L29 52L31 52L31 51L32 51L32 50L35 50L35 48L39 48L39 46L40 46L40 49L42 49L42 47L43 47L43 46L44 46L44 48L43 48L43 49L44 49L44 50L45 50L45 49L46 49L46 48L45 48L45 47L46 47L46 46L47 46L47 48L50 48L50 49L49 49L49 50L50 50L50 49L51 49L51 48L52 48L52 47L51 47L51 48L50 48L50 47L49 47L49 46L50 46L50 45L51 45L51 46L52 46L52 45L53 45L53 44L52 44L52 42L53 42L53 43L54 43L54 44L55 44L55 46L56 46L56 44L55 44L55 43L54 43L54 41L53 41L53 40L52 40L52 42L50 42L50 41L49 41L49 42L47 42L47 34L48 34L48 36L49 36L49 34L50 34L50 35L51 35L51 36L50 36L50 37L51 37L51 36L52 36L52 34L50 34L50 32L51 32L51 31L52 31L52 33L53 33L53 31L52 31L52 29L54 29L54 28L52 28L52 26L53 26L53 22L52 22L52 21L56 21L56 20L57 20L57 19L58 19L58 18L59 18L59 16L58 16L58 15L57 15L57 16L58 16L58 18L57 18L57 17L56 17L56 14L57 14L57 13L56 13L56 10ZM63 10L63 11L64 11L64 10ZM20 11L20 12L21 12L21 11ZM39 11L39 13L38 13L38 12L37 12L37 13L38 13L38 14L40 14L40 11ZM9 12L9 13L10 13L10 12ZM12 13L12 15L11 15L11 16L10 16L10 17L11 17L11 18L12 18L12 20L13 20L13 18L14 18L14 19L15 19L15 18L14 18L14 17L13 17L13 18L12 18L12 17L11 17L11 16L12 16L12 15L13 15L13 16L16 16L16 15L15 15L15 14L16 14L16 13L14 13L14 14L13 14L13 13ZM30 14L30 15L29 15L29 16L31 16L31 14ZM34 15L34 16L35 16L35 17L36 17L36 18L37 18L37 17L36 17L36 16L35 16L35 15ZM37 15L37 16L38 16L38 15ZM47 15L47 16L49 16L49 15ZM7 16L7 17L8 17L8 16ZM54 16L54 20L56 20L56 19L55 19L55 16ZM18 17L18 18L17 18L17 19L16 19L16 20L17 20L17 19L19 19L19 17ZM27 17L27 18L28 18L28 17ZM50 17L50 18L51 18L51 17ZM63 17L63 19L64 19L64 17ZM31 18L31 19L29 19L29 20L31 20L31 19L32 19L32 18ZM52 18L52 19L51 19L51 21L50 21L50 22L51 22L51 24L50 24L50 23L48 23L48 25L47 25L47 22L46 22L46 20L44 20L44 19L42 19L42 20L41 20L41 21L42 21L42 23L43 23L43 20L44 20L44 26L43 26L43 25L42 25L42 24L41 24L41 27L42 27L42 26L43 26L43 28L44 28L44 29L41 29L41 31L40 31L40 32L41 32L41 31L43 31L43 30L44 30L44 29L47 29L47 30L49 30L49 29L50 29L50 31L47 31L47 33L49 33L49 32L50 32L50 31L51 31L51 29L52 29L52 28L51 28L51 26L52 26L52 22L51 22L51 21L52 21L52 19L53 19L53 18ZM6 19L6 20L8 20L8 19ZM47 19L47 21L49 21L49 20L50 20L50 19L49 19L49 20L48 20L48 19ZM66 20L66 21L65 21L65 22L66 22L66 21L67 21L67 20ZM28 21L28 22L29 22L29 21ZM5 22L5 23L7 23L7 22ZM45 22L45 23L46 23L46 22ZM13 24L13 26L12 26L12 27L14 27L14 25L15 25L15 27L16 27L16 26L17 26L17 25L15 25L15 24ZM49 24L49 25L50 25L50 24ZM55 24L55 25L56 25L56 26L57 26L57 25L56 25L56 24ZM46 25L46 26L47 26L47 27L46 27L46 28L48 28L48 27L49 27L49 28L50 28L50 29L51 29L51 28L50 28L50 27L49 27L49 26L47 26L47 25ZM6 26L6 27L7 27L7 28L6 28L6 29L7 29L7 28L9 28L9 27L8 27L8 26ZM34 26L34 28L33 28L33 29L34 29L34 30L35 30L35 29L34 29L34 28L35 28L35 26ZM44 26L44 27L45 27L45 26ZM62 27L62 28L63 28L63 27ZM27 29L27 30L25 30L25 31L28 31L28 32L29 32L29 31L30 31L30 29ZM11 30L11 31L13 31L13 30ZM21 30L21 31L22 31L22 30ZM44 31L44 33L45 33L45 34L44 34L44 35L43 35L43 36L44 36L44 39L43 39L43 37L42 37L42 40L41 40L41 41L40 41L40 39L41 39L41 38L39 38L39 39L37 39L37 40L36 40L36 41L34 41L34 40L35 40L35 39L36 39L36 38L35 38L35 39L34 39L34 40L33 40L33 44L32 44L32 43L29 43L29 44L28 44L28 45L27 45L27 44L26 44L26 45L27 45L27 48L28 48L28 49L32 49L32 48L33 48L33 49L34 49L34 48L35 48L35 47L37 47L37 45L38 45L38 46L39 46L39 45L40 45L40 46L43 46L43 45L44 45L44 46L46 46L46 45L45 45L45 44L47 44L47 46L48 46L48 45L49 45L49 44L50 44L50 42L49 42L49 44L47 44L47 43L42 43L42 45L40 45L40 43L38 43L38 42L46 42L46 39L45 39L45 38L46 38L46 31ZM58 31L58 35L60 35L60 34L59 34L59 31ZM5 33L5 36L8 36L8 33ZM10 33L10 35L11 35L11 33ZM33 33L33 36L36 36L36 33ZM61 33L61 36L64 36L64 33ZM6 34L6 35L7 35L7 34ZM34 34L34 35L35 35L35 34ZM62 34L62 35L63 35L63 34ZM0 35L0 37L1 37L1 38L2 38L2 39L4 39L4 38L2 38L2 35ZM16 35L16 36L17 36L17 35ZM21 35L21 37L22 37L22 35ZM23 35L23 36L24 36L24 35ZM12 38L12 39L13 39L13 38ZM25 38L25 39L26 39L26 38ZM32 38L32 39L33 39L33 38ZM0 39L0 40L1 40L1 39ZM44 39L44 40L42 40L42 41L44 41L44 40L45 40L45 39ZM64 39L64 40L65 40L65 39ZM66 39L66 41L67 41L67 40L68 40L68 39ZM24 40L24 41L25 41L25 40ZM29 40L29 41L31 41L31 42L32 42L32 40ZM6 41L6 42L7 42L7 43L6 43L6 44L8 44L8 42L7 42L7 41ZM36 41L36 42L34 42L34 43L35 43L35 44L34 44L34 46L33 46L33 45L32 45L32 44L31 44L31 46L29 46L29 45L28 45L28 48L31 48L31 47L32 47L32 46L33 46L33 48L34 48L34 46L35 46L35 45L36 45L36 44L38 44L38 43L36 43L36 42L38 42L38 41ZM0 44L0 46L1 46L1 47L0 47L0 50L1 50L1 48L2 48L2 51L3 51L3 50L4 50L4 48L2 48L2 45L1 45L1 44ZM13 44L13 45L14 45L14 44ZM51 44L51 45L52 45L52 44ZM4 45L4 46L5 46L5 45ZM6 45L6 46L7 46L7 45ZM64 45L64 46L66 46L66 45ZM10 47L10 48L11 48L11 47ZM56 47L56 48L57 48L57 47ZM18 48L18 49L19 49L19 48ZM44 48L44 49L45 49L45 48ZM37 49L37 50L38 50L38 49ZM42 50L42 52L43 52L43 53L44 53L44 52L45 52L45 51L44 51L44 52L43 52L43 50ZM0 51L0 52L1 52L1 53L0 53L0 54L2 54L2 52L1 52L1 51ZM55 51L55 52L56 52L56 53L57 53L57 51ZM58 51L58 52L59 52L59 51ZM65 51L65 52L63 52L63 53L64 53L64 54L62 54L62 55L64 55L64 54L66 54L66 53L67 53L67 51ZM27 52L27 53L28 53L28 52ZM34 52L34 55L35 55L35 54L36 54L36 53L35 53L35 52ZM47 52L47 53L48 53L48 54L49 54L49 53L50 53L50 54L51 54L51 55L52 55L52 52L51 52L51 53L50 53L50 52ZM14 53L14 55L15 55L15 53ZM11 54L11 55L9 55L9 56L8 56L8 59L9 59L9 58L10 58L10 59L11 59L11 61L12 61L12 60L13 60L13 59L14 59L14 58L15 58L15 57L17 57L17 55L16 55L16 56L15 56L15 57L14 57L14 58L12 58L12 57L13 57L13 56L12 56L12 57L10 57L10 56L11 56L11 55L13 55L13 54ZM0 55L0 56L1 56L1 58L0 58L0 61L1 61L1 58L2 58L2 59L3 59L3 58L2 58L2 55ZM6 55L6 56L7 56L7 55ZM56 55L56 56L55 56L55 58L56 58L56 59L54 59L54 60L55 60L55 61L56 61L56 60L58 60L58 59L59 59L59 58L61 58L61 55L59 55L59 57L58 57L58 56L57 56L57 55ZM56 56L56 58L57 58L57 59L58 59L58 57L57 57L57 56ZM62 56L62 57L64 57L64 56ZM6 57L6 58L7 58L7 57ZM46 57L46 58L47 58L47 60L50 60L50 59L49 59L49 58L48 58L48 57ZM11 58L11 59L12 59L12 58ZM44 58L44 60L43 60L43 62L44 62L44 63L43 63L43 67L44 67L44 63L46 63L46 64L45 64L45 65L46 65L46 64L47 64L47 63L48 63L48 62L49 62L49 64L50 64L50 65L51 65L51 66L52 66L52 67L50 67L50 68L52 68L52 67L53 67L53 64L52 64L52 65L51 65L51 64L50 64L50 63L51 63L51 62L50 62L50 61L48 61L48 62L47 62L47 61L46 61L46 60L45 60L45 58ZM62 58L62 59L61 59L61 60L63 60L63 58ZM3 60L3 61L5 61L5 60ZM9 60L9 61L10 61L10 60ZM40 60L40 61L39 61L39 62L38 62L38 61L37 61L37 62L38 62L38 64L39 64L39 62L40 62L40 63L41 63L41 62L40 62L40 61L41 61L41 60ZM44 60L44 62L46 62L46 63L47 63L47 62L46 62L46 61L45 61L45 60ZM59 60L59 61L57 61L57 62L56 62L56 63L60 63L60 60ZM31 61L31 63L30 63L30 64L31 64L31 63L32 63L32 61ZM33 61L33 64L36 64L36 61ZM61 61L61 64L64 64L64 61ZM67 61L67 62L66 62L66 63L65 63L65 65L63 65L63 66L62 66L62 65L61 65L61 66L62 66L62 68L63 68L63 67L64 67L64 66L65 66L65 65L66 65L66 66L67 66L67 64L68 64L68 63L67 63L67 62L68 62L68 61ZM21 62L21 63L22 63L22 62ZM34 62L34 63L35 63L35 62ZM62 62L62 63L63 63L63 62ZM12 63L12 64L13 64L13 63ZM54 63L54 64L55 64L55 63ZM40 64L40 65L39 65L39 66L38 66L38 65L37 65L37 66L38 66L38 67L36 67L36 68L38 68L38 67L40 67L40 66L41 66L41 64ZM16 65L16 66L17 66L17 65ZM8 67L8 69L9 69L9 67ZM21 67L21 69L22 69L22 67ZM27 67L27 68L28 68L28 67ZM57 67L57 68L56 68L56 69L57 69L57 68L58 68L58 67ZM14 68L14 69L15 69L15 68ZM30 68L30 69L31 69L31 68ZM68 68L68 69L69 69L69 68ZM0 0L0 7L7 7L7 0ZM1 1L1 6L6 6L6 1ZM2 2L2 5L5 5L5 2ZM62 0L62 7L69 7L69 0ZM63 1L63 6L68 6L68 1ZM64 2L64 5L67 5L67 2ZM0 62L0 69L7 69L7 62ZM1 63L1 68L6 68L6 63ZM2 64L2 67L5 67L5 64Z" fill="#000000"/></g></g></svg>
