<?xml version="1.0" encoding="UTF-8"?>
<svg xmlns="http://www.w3.org/2000/svg" version="1.1" width="300" height="300" viewBox="0 0 300 300"><rect x="0" y="0" width="300" height="300" fill="#ffffff"/><g transform="scale(4.615)"><g transform="translate(0,0)"><path fill-rule="evenodd" d="M8 0L8 1L9 1L9 2L8 2L8 5L10 5L10 9L11 9L11 11L8 11L8 10L9 10L9 8L8 8L8 10L5 10L5 9L4 9L4 8L0 8L0 9L1 9L1 10L0 10L0 11L1 11L1 12L2 12L2 13L3 13L3 12L5 12L5 11L7 11L7 12L6 12L6 13L4 13L4 16L3 16L3 15L2 15L2 14L1 14L1 15L0 15L0 17L1 17L1 18L2 18L2 19L0 19L0 20L2 20L2 21L0 21L0 23L1 23L1 24L0 24L0 27L2 27L2 28L1 28L1 29L0 29L0 32L1 32L1 30L2 30L2 34L3 34L3 36L2 36L2 35L1 35L1 33L0 33L0 36L1 36L1 37L0 37L0 43L1 43L1 42L2 42L2 43L3 43L3 40L4 40L4 41L5 41L5 44L4 44L4 45L3 45L3 44L1 44L1 50L0 50L0 54L1 54L1 52L2 52L2 55L3 55L3 56L1 56L1 55L0 55L0 56L1 56L1 57L3 57L3 56L4 56L4 57L5 57L5 56L4 56L4 54L5 54L5 55L7 55L7 54L6 54L6 53L8 53L8 51L9 51L9 54L8 54L8 55L10 55L10 53L11 53L11 56L12 56L12 53L13 53L13 55L14 55L14 56L15 56L15 57L18 57L18 58L16 58L16 59L15 59L15 58L14 58L14 57L12 57L12 58L13 58L13 60L17 60L17 61L20 61L20 62L21 62L21 65L22 65L22 64L23 64L23 65L27 65L27 63L29 63L29 62L30 62L30 63L31 63L31 64L32 64L32 63L31 63L31 62L33 62L33 63L35 63L35 64L34 64L34 65L35 65L35 64L36 64L36 63L37 63L37 62L40 62L40 63L41 63L41 64L42 64L42 65L45 65L45 64L43 64L43 63L44 63L44 61L43 61L43 62L41 62L41 61L42 61L42 60L41 60L41 59L42 59L42 58L43 58L43 59L44 59L44 60L45 60L45 57L48 57L48 55L46 55L46 54L47 54L47 53L45 53L45 51L47 51L47 52L49 52L49 53L50 53L50 51L49 51L49 50L51 50L51 47L50 47L50 49L49 49L49 46L50 46L50 45L48 45L48 44L47 44L47 43L49 43L49 44L50 44L50 43L49 43L49 41L48 41L48 42L47 42L47 40L50 40L50 41L51 41L51 39L48 39L48 38L47 38L47 40L46 40L46 39L45 39L45 38L46 38L46 37L47 37L47 36L48 36L48 37L49 37L49 38L52 38L52 35L53 35L53 36L54 36L54 37L55 37L55 38L56 38L56 41L57 41L57 40L58 40L58 39L59 39L59 43L58 43L58 42L57 42L57 47L56 47L56 44L55 44L55 42L54 42L54 38L53 38L53 39L52 39L52 40L53 40L53 41L52 41L52 43L51 43L51 45L53 45L53 46L55 46L55 47L54 47L54 48L53 48L53 49L52 49L52 51L51 51L51 53L52 53L52 51L54 51L54 53L53 53L53 54L52 54L52 56L51 56L51 57L52 57L52 58L50 58L50 57L49 57L49 58L50 58L50 59L46 59L46 60L48 60L48 61L49 61L49 62L47 62L47 63L48 63L48 64L49 64L49 65L50 65L50 63L49 63L49 62L51 62L51 65L52 65L52 63L53 63L53 65L54 65L54 64L56 64L56 65L58 65L58 64L56 64L56 63L55 63L55 62L56 62L56 61L59 61L59 63L60 63L60 64L62 64L62 63L63 63L63 65L64 65L64 63L65 63L65 62L64 62L64 63L63 63L63 62L61 62L61 61L62 61L62 60L61 60L61 58L62 58L62 59L63 59L63 60L64 60L64 58L62 58L62 57L61 57L61 56L63 56L63 55L61 55L61 54L60 54L60 53L59 53L59 55L61 55L61 56L55 56L55 57L53 57L53 55L56 55L56 54L57 54L57 53L58 53L58 52L59 52L59 51L60 51L60 52L62 52L62 50L64 50L64 52L63 52L63 54L65 54L65 53L64 53L64 52L65 52L65 49L64 49L64 48L65 48L65 47L64 47L64 46L63 46L63 45L65 45L65 44L64 44L64 43L63 43L63 42L64 42L64 40L65 40L65 38L63 38L63 36L65 36L65 35L64 35L64 33L65 33L65 31L64 31L64 32L63 32L63 31L61 31L61 30L63 30L63 29L64 29L64 28L65 28L65 23L64 23L64 22L63 22L63 23L64 23L64 26L62 26L62 27L61 27L61 30L59 30L59 29L58 29L58 28L59 28L59 27L60 27L60 26L61 26L61 25L63 25L63 24L61 24L61 23L62 23L62 20L63 20L63 21L64 21L64 19L62 19L62 18L65 18L65 17L64 17L64 16L63 16L63 17L60 17L60 18L59 18L59 14L60 14L60 15L61 15L61 16L62 16L62 14L63 14L63 15L65 15L65 13L63 13L63 12L62 12L62 13L61 13L61 11L62 11L62 10L61 10L61 9L63 9L63 11L64 11L64 12L65 12L65 11L64 11L64 9L65 9L65 8L64 8L64 9L63 9L63 8L60 8L60 10L59 10L59 11L57 11L57 13L56 13L56 11L54 11L54 10L56 10L56 8L57 8L57 9L58 9L58 8L57 8L57 6L56 6L56 7L55 7L55 5L54 5L54 4L56 4L56 5L57 5L57 4L56 4L56 3L57 3L57 1L56 1L56 0L55 0L55 1L56 1L56 3L55 3L55 2L54 2L54 0L53 0L53 2L52 2L52 0L51 0L51 1L50 1L50 0L47 0L47 1L48 1L48 2L46 2L46 1L43 1L43 0L41 0L41 1L43 1L43 2L42 2L42 4L43 4L43 5L42 5L42 7L41 7L41 6L40 6L40 5L39 5L39 2L40 2L40 3L41 3L41 2L40 2L40 0L39 0L39 1L38 1L38 0L37 0L37 1L38 1L38 4L37 4L37 2L36 2L36 3L33 3L33 4L32 4L32 2L31 2L31 1L32 1L32 0L29 0L29 2L31 2L31 3L30 3L30 4L29 4L29 6L28 6L28 7L29 7L29 9L30 9L30 10L29 10L29 13L28 13L28 12L27 12L27 10L26 10L26 9L25 9L25 8L27 8L27 5L28 5L28 4L25 4L25 6L24 6L24 9L23 9L23 6L22 6L22 7L21 7L21 5L22 5L22 3L23 3L23 2L21 2L21 4L20 4L20 3L18 3L18 0L17 0L17 3L16 3L16 5L13 5L13 6L12 6L12 4L11 4L11 3L13 3L13 4L14 4L14 3L13 3L13 2L14 2L14 1L15 1L15 0L14 0L14 1L13 1L13 0L12 0L12 1L11 1L11 0L10 0L10 1L9 1L9 0ZM22 0L22 1L23 1L23 0ZM24 0L24 1L26 1L26 2L28 2L28 0ZM35 0L35 1L36 1L36 0ZM12 1L12 2L13 2L13 1ZM19 1L19 2L20 2L20 1ZM24 2L24 3L25 3L25 2ZM43 2L43 4L44 4L44 6L43 6L43 7L44 7L44 6L45 6L45 8L41 8L41 9L38 9L38 10L40 10L40 11L38 11L38 12L39 12L39 13L40 13L40 14L38 14L38 16L40 16L40 17L41 17L41 16L42 16L42 15L41 15L41 14L43 14L43 16L45 16L45 12L46 12L46 14L47 14L47 16L46 16L46 17L48 17L48 19L46 19L46 18L45 18L45 17L42 17L42 18L41 18L41 19L40 19L40 18L39 18L39 17L38 17L38 18L39 18L39 19L36 19L36 21L37 21L37 20L41 20L41 19L42 19L42 20L43 20L43 21L44 21L44 22L43 22L43 23L42 23L42 21L38 21L38 22L37 22L37 24L38 24L38 25L34 25L34 24L36 24L36 23L34 23L34 22L35 22L35 18L37 18L37 16L36 16L36 14L37 14L37 13L35 13L35 12L36 12L36 11L37 11L37 8L40 8L40 6L39 6L39 5L37 5L37 7L36 7L36 6L35 6L35 8L36 8L36 11L35 11L35 12L32 12L32 11L34 11L34 10L35 10L35 9L32 9L32 10L30 10L30 12L31 12L31 13L34 13L34 15L35 15L35 16L34 16L34 17L35 17L35 18L34 18L34 20L32 20L32 19L33 19L33 18L32 18L32 19L29 19L29 18L31 18L31 17L29 17L29 16L28 16L28 15L29 15L29 14L27 14L27 12L26 12L26 11L25 11L25 10L24 10L24 12L23 12L23 11L22 11L22 10L23 10L23 9L21 9L21 8L20 8L20 10L19 10L19 8L18 8L18 9L17 9L17 7L18 7L18 6L19 6L19 7L20 7L20 6L19 6L19 4L18 4L18 3L17 3L17 5L16 5L16 6L15 6L15 7L16 7L16 8L13 8L13 9L12 9L12 6L11 6L11 9L12 9L12 11L11 11L11 12L9 12L9 13L8 13L8 12L7 12L7 13L6 13L6 14L5 14L5 15L6 15L6 16L8 16L8 15L6 15L6 14L9 14L9 15L10 15L10 16L9 16L9 17L6 17L6 18L3 18L3 17L2 17L2 18L3 18L3 19L2 19L2 20L3 20L3 21L2 21L2 23L3 23L3 24L2 24L2 25L1 25L1 26L3 26L3 24L4 24L4 22L3 22L3 21L4 21L4 20L5 20L5 21L6 21L6 22L7 22L7 21L8 21L8 23L6 23L6 24L7 24L7 25L6 25L6 26L5 26L5 28L4 28L4 29L2 29L2 30L5 30L5 28L8 28L8 27L9 27L9 29L12 29L12 30L10 30L10 32L11 32L11 33L12 33L12 32L14 32L14 33L13 33L13 34L14 34L14 35L12 35L12 37L11 37L11 36L8 36L8 40L7 40L7 39L6 39L6 40L5 40L5 38L7 38L7 37L6 37L6 36L7 36L7 35L6 35L6 36L5 36L5 35L4 35L4 37L5 37L5 38L4 38L4 40L5 40L5 41L6 41L6 42L7 42L7 41L9 41L9 43L6 43L6 44L5 44L5 45L4 45L4 46L5 46L5 47L4 47L4 48L7 48L7 49L6 49L6 50L7 50L7 49L8 49L8 47L9 47L9 48L10 48L10 50L11 50L11 49L13 49L13 48L10 48L10 47L9 47L9 46L11 46L11 47L12 47L12 46L11 46L11 45L13 45L13 46L14 46L14 47L16 47L16 48L15 48L15 49L14 49L14 51L16 51L16 53L17 53L17 55L15 55L15 56L17 56L17 55L19 55L19 56L18 56L18 57L19 57L19 56L22 56L22 55L24 55L24 54L25 54L25 52L26 52L26 55L25 55L25 57L26 57L26 58L25 58L25 59L24 59L24 60L26 60L26 62L25 62L25 61L24 61L24 63L23 63L23 64L24 64L24 63L25 63L25 64L26 64L26 63L27 63L27 62L29 62L29 61L28 61L28 59L26 59L26 58L29 58L29 57L30 57L30 55L34 55L34 56L35 56L35 54L34 54L34 52L32 52L32 51L31 51L31 49L32 49L32 48L31 48L31 49L30 49L30 47L29 47L29 48L28 48L28 47L27 47L27 48L26 48L26 47L25 47L25 48L26 48L26 49L24 49L24 48L22 48L22 47L23 47L23 45L24 45L24 46L25 46L25 45L26 45L26 46L31 46L31 47L33 47L33 46L34 46L34 47L35 47L35 48L33 48L33 50L34 50L34 49L35 49L35 50L36 50L36 51L35 51L35 53L37 53L37 55L36 55L36 57L37 57L37 58L36 58L36 60L37 60L37 58L38 58L38 59L39 59L39 60L38 60L38 61L41 61L41 60L40 60L40 58L41 58L41 57L42 57L42 56L43 56L43 58L44 58L44 57L45 57L45 56L44 56L44 55L45 55L45 53L44 53L44 54L43 54L43 52L44 52L44 51L45 51L45 50L44 50L44 51L43 51L43 49L46 49L46 50L47 50L47 51L48 51L48 50L49 50L49 49L48 49L48 48L47 48L47 47L46 47L46 46L47 46L47 45L46 45L46 43L47 43L47 42L46 42L46 43L45 43L45 42L44 42L44 43L43 43L43 41L42 41L42 42L41 42L41 40L42 40L42 39L43 39L43 40L45 40L45 39L44 39L44 37L46 37L46 35L47 35L47 33L46 33L46 30L45 30L45 32L44 32L44 31L43 31L43 28L42 28L42 29L41 29L41 26L45 26L45 27L44 27L44 28L45 28L45 27L46 27L46 26L47 26L47 25L46 25L46 26L45 26L45 24L44 24L44 25L42 25L42 24L43 24L43 23L45 23L45 22L47 22L47 21L46 21L46 20L48 20L48 21L49 21L49 20L50 20L50 19L49 19L49 18L51 18L51 20L52 20L52 18L51 18L51 17L49 17L49 14L48 14L48 13L47 13L47 12L51 12L51 13L52 13L52 14L53 14L53 15L51 15L51 14L50 14L50 16L52 16L52 17L53 17L53 15L56 15L56 16L55 16L55 17L54 17L54 18L53 18L53 21L52 21L52 23L51 23L51 21L50 21L50 22L48 22L48 23L46 23L46 24L48 24L48 23L49 23L49 25L48 25L48 27L47 27L47 28L46 28L46 29L47 29L47 31L48 31L48 35L49 35L49 37L50 37L50 34L51 34L51 35L52 35L52 34L51 34L51 32L53 32L53 33L55 33L55 34L53 34L53 35L55 35L55 37L56 37L56 38L57 38L57 37L56 37L56 32L53 32L53 31L54 31L54 30L57 30L57 29L54 29L54 30L53 30L53 31L50 31L50 30L52 30L52 29L53 29L53 27L54 27L54 28L55 28L55 27L58 27L58 26L59 26L59 24L60 24L60 23L58 23L58 22L59 22L59 21L61 21L61 20L60 20L60 19L58 19L58 20L56 20L56 19L55 19L55 18L57 18L57 17L56 17L56 16L57 16L57 15L58 15L58 14L59 14L59 13L60 13L60 14L61 14L61 13L60 13L60 12L59 12L59 13L58 13L58 14L57 14L57 15L56 15L56 14L55 14L55 13L54 13L54 11L53 11L53 9L55 9L55 8L53 8L53 7L54 7L54 5L53 5L53 3L54 3L54 2L53 2L53 3L51 3L51 2L49 2L49 4L52 4L52 5L47 5L47 4L48 4L48 3L47 3L47 4L46 4L46 3L44 3L44 2ZM9 3L9 4L10 4L10 5L11 5L11 4L10 4L10 3ZM35 4L35 5L36 5L36 4ZM45 4L45 6L46 6L46 7L47 7L47 6L46 6L46 4ZM17 5L17 6L16 6L16 7L17 7L17 6L18 6L18 5ZM31 5L31 8L34 8L34 5ZM52 5L52 7L53 7L53 5ZM8 6L8 7L9 7L9 6ZM13 6L13 7L14 7L14 6ZM25 6L25 7L26 7L26 6ZM29 6L29 7L30 7L30 6ZM32 6L32 7L33 7L33 6ZM38 6L38 7L39 7L39 6ZM48 6L48 8L51 8L51 9L53 9L53 8L51 8L51 6L50 6L50 7L49 7L49 6ZM6 8L6 9L7 9L7 8ZM45 8L45 9L46 9L46 8ZM13 9L13 11L12 11L12 15L13 15L13 16L11 16L11 18L10 18L10 17L9 17L9 19L8 19L8 21L9 21L9 23L8 23L8 25L7 25L7 26L6 26L6 27L7 27L7 26L10 26L10 25L11 25L11 26L13 26L13 25L11 25L11 24L13 24L13 23L14 23L14 24L15 24L15 25L14 25L14 26L16 26L16 27L17 27L17 28L18 28L18 25L19 25L19 26L20 26L20 28L19 28L19 29L18 29L18 30L17 30L17 29L16 29L16 28L14 28L14 27L11 27L11 28L12 28L12 29L13 29L13 28L14 28L14 32L15 32L15 29L16 29L16 30L17 30L17 31L18 31L18 30L19 30L19 31L20 31L20 32L19 32L19 33L18 33L18 32L16 32L16 33L18 33L18 34L16 34L16 35L17 35L17 36L16 36L16 37L17 37L17 36L18 36L18 37L20 37L20 39L24 39L24 40L23 40L23 41L22 41L22 40L21 40L21 41L22 41L22 42L21 42L21 43L17 43L17 42L18 42L18 41L12 41L12 42L11 42L11 43L9 43L9 45L11 45L11 44L13 44L13 45L14 45L14 46L15 46L15 43L17 43L17 44L16 44L16 47L17 47L17 51L19 51L19 50L20 50L20 52L21 52L21 53L22 53L22 54L24 54L24 53L23 53L23 51L22 51L22 49L20 49L20 48L21 48L21 47L22 47L22 45L23 45L23 42L24 42L24 43L25 43L25 44L28 44L28 45L31 45L31 46L32 46L32 45L33 45L33 42L32 42L32 43L31 43L31 44L30 44L30 43L28 43L28 42L29 42L29 41L30 41L30 39L31 39L31 40L33 40L33 41L36 41L36 42L37 42L37 41L40 41L40 39L42 39L42 38L41 38L41 37L44 37L44 36L45 36L45 34L44 34L44 35L42 35L42 34L43 34L43 31L42 31L42 30L41 30L41 32L39 32L39 31L40 31L40 27L39 27L39 26L41 26L41 25L38 25L38 28L39 28L39 30L37 30L37 31L36 31L36 30L35 30L35 29L33 29L33 28L31 28L31 27L30 27L30 26L32 26L32 27L33 27L33 26L34 26L34 25L33 25L33 26L32 26L32 24L34 24L34 23L31 23L31 24L30 24L30 23L28 23L28 22L26 22L26 23L27 23L27 25L26 25L26 24L25 24L25 26L27 26L27 28L26 28L26 27L23 27L23 26L22 26L22 25L21 25L21 24L23 24L23 23L21 23L21 24L20 24L20 20L19 20L19 19L18 19L18 18L16 18L16 23L14 23L14 22L15 22L15 18L14 18L14 17L15 17L15 16L14 16L14 13L15 13L15 14L16 14L16 11L15 11L15 12L14 12L14 10L15 10L15 9ZM16 9L16 10L17 10L17 11L19 11L19 12L17 12L17 13L19 13L19 15L18 15L18 16L21 16L21 17L22 17L22 20L21 20L21 22L22 22L22 20L24 20L24 21L23 21L23 22L25 22L25 20L24 20L24 19L23 19L23 18L24 18L24 15L25 15L25 19L27 19L27 20L26 20L26 21L29 21L29 22L31 22L31 20L28 20L28 18L29 18L29 17L28 17L28 16L27 16L27 15L26 15L26 14L25 14L25 13L26 13L26 12L24 12L24 15L23 15L23 14L22 14L22 13L21 13L21 14L20 14L20 13L19 13L19 12L22 12L22 11L21 11L21 10L20 10L20 11L19 11L19 10L17 10L17 9ZM41 9L41 10L42 10L42 11L45 11L45 10L43 10L43 9ZM49 9L49 10L50 10L50 11L51 11L51 12L53 12L53 11L52 11L52 10L50 10L50 9ZM3 10L3 11L2 11L2 12L3 12L3 11L5 11L5 10ZM47 10L47 11L46 11L46 12L47 12L47 11L48 11L48 10ZM42 12L42 13L44 13L44 12ZM10 13L10 14L11 14L11 13ZM21 14L21 16L22 16L22 17L23 17L23 15L22 15L22 14ZM30 14L30 15L31 15L31 14ZM32 14L32 16L33 16L33 14ZM4 16L4 17L5 17L5 16ZM13 16L13 17L12 17L12 18L11 18L11 20L12 20L12 19L13 19L13 20L14 20L14 18L13 18L13 17L14 17L14 16ZM16 16L16 17L17 17L17 16ZM26 17L26 18L27 18L27 17ZM6 18L6 19L7 19L7 18ZM20 18L20 19L21 19L21 18ZM43 18L43 19L45 19L45 20L46 20L46 19L45 19L45 18ZM3 19L3 20L4 20L4 19ZM54 19L54 21L53 21L53 23L54 23L54 24L55 24L55 25L56 25L56 26L58 26L58 25L57 25L57 24L58 24L58 23L57 23L57 24L55 24L55 23L56 23L56 20L55 20L55 19ZM6 20L6 21L7 21L7 20ZM9 20L9 21L10 21L10 20ZM13 21L13 22L14 22L14 21ZM17 21L17 22L18 22L18 24L19 24L19 22L18 22L18 21ZM40 22L40 23L41 23L41 22ZM9 23L9 24L10 24L10 23ZM16 23L16 24L17 24L17 23ZM50 24L50 25L49 25L49 27L50 27L50 28L51 28L51 29L52 29L52 28L51 28L51 24ZM16 25L16 26L17 26L17 25ZM28 25L28 26L29 26L29 25ZM52 26L52 27L53 27L53 26ZM21 27L21 28L22 28L22 30L21 30L21 29L20 29L20 31L22 31L22 32L23 32L23 31L22 31L22 30L28 30L28 32L29 32L29 33L27 33L27 31L24 31L24 32L25 32L25 34L24 34L24 33L20 33L20 34L21 34L21 35L25 35L25 36L24 36L24 38L25 38L25 40L24 40L24 42L26 42L26 43L27 43L27 42L28 42L28 41L25 41L25 40L28 40L28 39L27 39L27 38L25 38L25 37L28 37L28 38L29 38L29 37L30 37L30 36L29 36L29 35L30 35L30 32L29 32L29 30L28 30L28 29L31 29L31 28L29 28L29 27L28 27L28 28L27 28L27 29L25 29L25 28L23 28L23 27ZM36 27L36 28L37 28L37 27ZM62 27L62 28L63 28L63 27ZM6 29L6 30L8 30L8 29ZM48 29L48 30L49 30L49 29ZM5 31L5 34L8 34L8 31ZM11 31L11 32L12 32L12 31ZM31 31L31 34L34 34L34 31ZM37 31L37 32L36 32L36 33L38 33L38 34L37 34L37 35L38 35L38 34L39 34L39 36L37 36L37 37L35 37L35 38L37 38L37 37L41 37L41 36L42 36L42 35L40 35L40 34L41 34L41 33L42 33L42 32L41 32L41 33L40 33L40 34L39 34L39 32L38 32L38 31ZM57 31L57 34L60 34L60 31ZM6 32L6 33L7 33L7 32ZM32 32L32 33L33 33L33 32ZM58 32L58 33L59 33L59 32ZM3 33L3 34L4 34L4 33ZM9 33L9 34L10 34L10 35L11 35L11 34L10 34L10 33ZM49 33L49 34L50 34L50 33ZM61 33L61 36L63 36L63 34L62 34L62 33ZM18 34L18 36L19 36L19 34ZM26 34L26 35L27 35L27 34ZM28 34L28 35L29 35L29 34ZM34 35L34 36L36 36L36 35ZM57 35L57 36L58 36L58 37L59 37L59 39L61 39L61 37L59 37L59 35ZM13 36L13 37L15 37L15 36ZM22 36L22 38L23 38L23 36ZM31 36L31 37L33 37L33 38L32 38L32 39L33 39L33 38L34 38L34 37L33 37L33 36ZM1 37L1 38L3 38L3 37ZM9 37L9 39L11 39L11 40L14 40L14 39L15 39L15 38L14 38L14 39L12 39L12 38L11 38L11 37ZM16 38L16 39L17 39L17 38ZM18 38L18 40L19 40L19 38ZM62 38L62 42L61 42L61 40L60 40L60 42L61 42L61 43L62 43L62 42L63 42L63 38ZM2 39L2 40L1 40L1 41L2 41L2 40L3 40L3 39ZM36 39L36 41L37 41L37 39ZM38 39L38 40L39 40L39 39ZM6 40L6 41L7 41L7 40ZM9 40L9 41L10 41L10 40ZM12 42L12 43L13 43L13 42ZM38 42L38 43L35 43L35 45L36 45L36 44L37 44L37 47L36 47L36 48L35 48L35 49L36 49L36 50L37 50L37 51L36 51L36 52L37 52L37 51L39 51L39 53L40 53L40 52L41 52L41 54L39 54L39 55L38 55L38 57L39 57L39 58L40 58L40 57L41 57L41 56L42 56L42 55L43 55L43 54L42 54L42 52L43 52L43 51L42 51L42 50L41 50L41 51L39 51L39 50L40 50L40 49L38 49L38 48L40 48L40 47L41 47L41 49L42 49L42 48L43 48L43 46L44 46L44 45L42 45L42 43L40 43L40 42ZM21 43L21 44L20 44L20 45L21 45L21 44L22 44L22 43ZM44 43L44 44L45 44L45 43ZM6 44L6 45L5 45L5 46L6 46L6 47L8 47L8 45L7 45L7 44ZM18 44L18 45L17 45L17 47L19 47L19 48L20 48L20 47L21 47L21 46L19 46L19 44ZM38 44L38 46L39 46L39 47L40 47L40 46L41 46L41 45L39 45L39 44ZM60 44L60 45L63 45L63 44ZM6 45L6 46L7 46L7 45ZM58 45L58 47L57 47L57 48L55 48L55 49L53 49L53 50L54 50L54 51L55 51L55 49L58 49L58 50L56 50L56 51L57 51L57 52L58 52L58 50L62 50L62 49L63 49L63 47L62 47L62 46L61 46L61 48L60 48L60 47L59 47L59 45ZM2 46L2 48L3 48L3 46ZM44 47L44 48L46 48L46 47ZM58 47L58 49L59 49L59 47ZM61 48L61 49L62 49L62 48ZM4 49L4 50L3 50L3 51L4 51L4 52L7 52L7 51L5 51L5 49ZM15 49L15 50L16 50L16 49ZM18 49L18 50L19 50L19 49ZM26 49L26 52L29 52L29 53L27 53L27 54L28 54L28 55L27 55L27 56L28 56L28 57L29 57L29 56L28 56L28 55L29 55L29 53L31 53L31 51L30 51L30 49L29 49L29 50L28 50L28 49ZM1 50L1 51L2 51L2 50ZM12 50L12 51L10 51L10 52L12 52L12 51L13 51L13 50ZM24 50L24 51L25 51L25 50ZM29 51L29 52L30 52L30 51ZM41 51L41 52L42 52L42 51ZM13 52L13 53L14 53L14 54L15 54L15 53L14 53L14 52ZM18 52L18 53L19 53L19 52ZM55 52L55 53L54 53L54 54L56 54L56 52ZM3 53L3 54L4 54L4 53ZM19 54L19 55L20 55L20 54ZM50 54L50 55L49 55L49 56L50 56L50 55L51 55L51 54ZM39 55L39 56L41 56L41 55ZM6 56L6 57L7 57L7 56ZM8 56L8 58L9 58L9 59L10 59L10 58L11 58L11 57L9 57L9 56ZM23 56L23 57L22 57L22 58L23 58L23 57L24 57L24 56ZM64 56L64 57L65 57L65 56ZM20 57L20 61L21 61L21 62L22 62L22 61L23 61L23 59L21 59L21 57ZM31 57L31 60L34 60L34 57ZM57 57L57 60L60 60L60 57ZM32 58L32 59L33 59L33 58ZM52 58L52 59L53 59L53 60L51 60L51 59L50 59L50 60L51 60L51 62L52 62L52 61L53 61L53 63L54 63L54 62L55 62L55 61L56 61L56 60L55 60L55 59L56 59L56 58L54 58L54 59L53 59L53 58ZM58 58L58 59L59 59L59 58ZM17 59L17 60L19 60L19 59ZM29 59L29 60L30 60L30 59ZM9 60L9 61L8 61L8 65L9 65L9 62L10 62L10 63L11 63L11 65L13 65L13 63L11 63L11 62L12 62L12 61L11 61L11 62L10 62L10 60ZM53 60L53 61L54 61L54 60ZM13 61L13 62L14 62L14 63L15 63L15 65L18 65L18 64L19 64L19 62L14 62L14 61ZM30 61L30 62L31 62L31 61ZM33 61L33 62L34 62L34 61ZM36 61L36 62L35 62L35 63L36 63L36 62L37 62L37 61ZM45 62L45 63L46 63L46 62ZM60 62L60 63L61 63L61 62ZM16 63L16 64L17 64L17 63ZM38 63L38 64L37 64L37 65L40 65L40 64L39 64L39 63ZM28 64L28 65L29 65L29 64ZM0 0L0 7L7 7L7 0ZM1 1L1 6L6 6L6 1ZM2 2L2 5L5 5L5 2ZM58 0L58 7L65 7L65 0ZM59 1L59 6L64 6L64 1ZM60 2L60 5L63 5L63 2ZM0 58L0 65L7 65L7 58ZM1 59L1 64L6 64L6 59ZM2 60L2 63L5 63L5 60Z" fill="#000000"/></g></g></svg>
