<?xml version="1.0" encoding="UTF-8"?>
<svg xmlns="http://www.w3.org/2000/svg" version="1.1" width="300" height="300" viewBox="0 0 300 300"><rect x="0" y="0" width="300" height="300" fill="#ffffff"/><g transform="scale(4.348)"><g transform="translate(0,0)"><path fill-rule="evenodd" d="M8 0L8 4L9 4L9 5L8 5L8 7L9 7L9 11L11 11L11 13L12 13L12 12L15 12L15 14L11 14L11 15L12 15L12 16L14 16L14 17L16 17L16 16L17 16L17 17L18 17L18 18L17 18L17 19L15 19L15 20L17 20L17 21L16 21L16 24L17 24L17 25L15 25L15 26L14 26L14 24L15 24L15 23L14 23L14 24L13 24L13 23L12 23L12 21L11 21L11 20L9 20L9 19L10 19L10 18L12 18L12 17L10 17L10 15L8 15L8 14L10 14L10 12L8 12L8 9L7 9L7 8L4 8L4 10L5 10L5 11L4 11L4 12L3 12L3 11L1 11L1 10L3 10L3 9L2 9L2 8L0 8L0 9L1 9L1 10L0 10L0 12L1 12L1 13L0 13L0 14L1 14L1 16L0 16L0 20L1 20L1 19L4 19L4 17L7 17L7 16L9 16L9 17L10 17L10 18L9 18L9 19L8 19L8 20L6 20L6 21L5 21L5 20L4 20L4 21L3 21L3 20L2 20L2 21L3 21L3 22L5 22L5 23L2 23L2 22L1 22L1 21L0 21L0 25L1 25L1 26L0 26L0 30L1 30L1 32L2 32L2 33L4 33L4 34L2 34L2 36L1 36L1 33L0 33L0 36L1 36L1 37L0 37L0 40L3 40L3 39L4 39L4 40L6 40L6 41L7 41L7 42L6 42L6 43L7 43L7 44L5 44L5 41L4 41L4 44L3 44L3 43L0 43L0 44L3 44L3 45L4 45L4 46L3 46L3 47L2 47L2 46L1 46L1 45L0 45L0 47L2 47L2 48L0 48L0 53L1 53L1 54L0 54L0 61L1 61L1 58L2 58L2 59L3 59L3 57L4 57L4 55L5 55L5 56L6 56L6 57L5 57L5 58L4 58L4 59L7 59L7 58L6 58L6 57L8 57L8 62L9 62L9 63L8 63L8 65L9 65L9 66L10 66L10 67L11 67L11 66L10 66L10 65L9 65L9 64L15 64L15 63L18 63L18 62L16 62L16 60L15 60L15 61L14 61L14 62L15 62L15 63L10 63L10 62L9 62L9 61L10 61L10 60L11 60L11 61L13 61L13 60L14 60L14 59L16 59L16 58L17 58L17 61L19 61L19 64L18 64L18 65L17 65L17 64L16 64L16 65L15 65L15 66L16 66L16 68L14 68L14 67L13 67L13 66L14 66L14 65L12 65L12 67L13 67L13 68L14 68L14 69L17 69L17 67L18 67L18 69L19 69L19 67L20 67L20 66L21 66L21 67L22 67L22 68L23 68L23 67L24 67L24 68L25 68L25 66L26 66L26 69L28 69L28 68L27 68L27 67L28 67L28 66L30 66L30 65L31 65L31 67L32 67L32 69L33 69L33 66L34 66L34 68L35 68L35 66L37 66L37 67L39 67L39 68L38 68L38 69L40 69L40 67L39 67L39 66L40 66L40 63L41 63L41 69L42 69L42 68L43 68L43 63L44 63L44 69L46 69L46 67L45 67L45 63L46 63L46 64L47 64L47 66L48 66L48 67L49 67L49 68L47 68L47 69L50 69L50 66L52 66L52 68L51 68L51 69L52 69L52 68L53 68L53 69L55 69L55 68L56 68L56 69L58 69L58 68L56 68L56 65L57 65L57 67L59 67L59 68L62 68L62 69L64 69L64 67L67 67L67 66L69 66L69 65L67 65L67 66L65 66L65 63L66 63L66 62L67 62L67 64L68 64L68 62L69 62L69 59L68 59L68 58L69 58L69 56L68 56L68 57L67 57L67 56L66 56L66 57L67 57L67 59L68 59L68 60L65 60L65 58L64 58L64 57L65 57L65 56L64 56L64 55L68 55L68 53L69 53L69 52L68 52L68 50L64 50L64 48L65 48L65 47L66 47L66 46L67 46L67 44L65 44L65 45L66 45L66 46L65 46L65 47L64 47L64 43L61 43L61 41L62 41L62 42L63 42L63 41L66 41L66 43L68 43L68 44L69 44L69 43L68 43L68 42L67 42L67 41L66 41L66 40L64 40L64 39L65 39L65 38L64 38L64 39L63 39L63 41L62 41L62 38L63 38L63 37L66 37L66 39L68 39L68 38L69 38L69 35L68 35L68 33L69 33L69 32L68 32L68 30L65 30L65 29L66 29L66 27L65 27L65 25L66 25L66 26L67 26L67 27L68 27L68 28L67 28L67 29L68 29L68 28L69 28L69 27L68 27L68 26L69 26L69 25L68 25L68 24L69 24L69 23L68 23L68 22L69 22L69 20L68 20L68 18L66 18L66 17L68 17L68 16L66 16L66 17L64 17L64 16L65 16L65 13L64 13L64 12L63 12L63 11L62 11L62 10L64 10L64 8L63 8L63 9L62 9L62 10L61 10L61 9L60 9L60 8L61 8L61 6L60 6L60 7L59 7L59 4L58 4L58 8L56 8L56 9L54 9L54 8L53 8L53 9L52 9L52 8L51 8L51 4L50 4L50 8L47 8L47 6L46 6L46 7L45 7L45 6L44 6L44 5L46 5L46 4L47 4L47 3L50 3L50 1L51 1L51 0L50 0L50 1L49 1L49 2L47 2L47 1L46 1L46 0L45 0L45 1L44 1L44 0L41 0L41 1L40 1L40 0L37 0L37 1L36 1L36 0L35 0L35 2L34 2L34 3L33 3L33 4L32 4L32 2L33 2L33 1L34 1L34 0L32 0L32 1L31 1L31 0L23 0L23 1L24 1L24 2L22 2L22 0L16 0L16 1L17 1L17 3L18 3L18 1L20 1L20 2L22 2L22 4L21 4L21 3L19 3L19 4L17 4L17 5L15 5L15 4L16 4L16 2L14 2L14 1L15 1L15 0L14 0L14 1L13 1L13 2L14 2L14 3L12 3L12 4L11 4L11 2L12 2L12 1L11 1L11 2L9 2L9 1L10 1L10 0ZM53 0L53 1L52 1L52 2L51 2L51 3L52 3L52 4L53 4L53 5L52 5L52 7L53 7L53 5L54 5L54 7L55 7L55 5L56 5L56 7L57 7L57 5L56 5L56 3L59 3L59 2L56 2L56 3L55 3L55 0ZM57 0L57 1L61 1L61 0ZM26 1L26 4L25 4L25 2L24 2L24 3L23 3L23 4L25 4L25 5L24 5L24 6L23 6L23 5L21 5L21 8L20 8L20 4L19 4L19 7L18 7L18 6L17 6L17 7L18 7L18 8L20 8L20 9L19 9L19 10L18 10L18 9L17 9L17 8L16 8L16 6L15 6L15 8L13 8L13 10L11 10L11 9L12 9L12 8L10 8L10 10L11 10L11 11L14 11L14 9L15 9L15 11L16 11L16 12L18 12L18 11L19 11L19 12L20 12L20 13L19 13L19 14L20 14L20 15L19 15L19 16L18 16L18 17L19 17L19 18L18 18L18 19L20 19L20 18L22 18L22 19L21 19L21 20L22 20L22 22L21 22L21 23L20 23L20 24L19 24L19 22L20 22L20 21L19 21L19 22L18 22L18 21L17 21L17 23L18 23L18 24L19 24L19 27L18 27L18 26L16 26L16 27L15 27L15 29L14 29L14 30L13 30L13 28L12 28L12 29L11 29L11 30L10 30L10 29L9 29L9 26L12 26L12 23L11 23L11 22L9 22L9 21L6 21L6 22L9 22L9 23L11 23L11 24L10 24L10 25L8 25L8 24L7 24L7 23L6 23L6 24L7 24L7 25L6 25L6 26L5 26L5 30L3 30L3 29L4 29L4 25L5 25L5 24L3 24L3 27L2 27L2 28L3 28L3 29L2 29L2 31L5 31L5 30L8 30L8 31L6 31L6 32L9 32L9 35L11 35L11 37L10 37L10 36L9 36L9 37L10 37L10 38L9 38L9 39L8 39L8 40L7 40L7 39L6 39L6 38L7 38L7 37L6 37L6 38L5 38L5 37L3 37L3 36L4 36L4 35L3 35L3 36L2 36L2 37L1 37L1 39L2 39L2 38L5 38L5 39L6 39L6 40L7 40L7 41L8 41L8 44L7 44L7 45L6 45L6 46L5 46L5 47L4 47L4 48L2 48L2 49L3 49L3 50L1 50L1 51L2 51L2 54L1 54L1 55L4 55L4 54L3 54L3 52L4 52L4 50L5 50L5 49L4 49L4 48L5 48L5 47L6 47L6 48L8 48L8 49L9 49L9 50L8 50L8 51L6 51L6 52L5 52L5 53L6 53L6 54L5 54L5 55L6 55L6 56L7 56L7 55L6 55L6 54L7 54L7 53L6 53L6 52L8 52L8 51L9 51L9 54L8 54L8 55L9 55L9 58L12 58L12 56L13 56L13 55L11 55L11 56L10 56L10 53L11 53L11 52L12 52L12 50L11 50L11 48L12 48L12 47L13 47L13 46L15 46L15 44L14 44L14 43L16 43L16 42L18 42L18 43L19 43L19 42L20 42L20 41L19 41L19 42L18 42L18 41L17 41L17 38L18 38L18 39L19 39L19 38L20 38L20 36L22 36L22 37L23 37L23 36L24 36L24 37L25 37L25 38L26 38L26 35L25 35L25 34L24 34L24 35L23 35L23 34L22 34L22 35L21 35L21 34L20 34L20 35L17 35L17 36L16 36L16 34L17 34L17 33L18 33L18 32L19 32L19 33L20 33L20 32L19 32L19 30L20 30L20 29L21 29L21 32L22 32L22 33L23 33L23 32L22 32L22 30L23 30L23 31L25 31L25 33L29 33L29 34L28 34L28 35L27 35L27 37L28 37L28 38L27 38L27 39L24 39L24 38L23 38L23 39L24 39L24 40L22 40L22 39L21 39L21 41L22 41L22 42L21 42L21 43L20 43L20 44L21 44L21 43L23 43L23 44L22 44L22 45L21 45L21 46L20 46L20 45L19 45L19 46L20 46L20 47L19 47L19 48L18 48L18 49L17 49L17 47L18 47L18 46L17 46L17 44L16 44L16 48L15 48L15 49L14 49L14 48L13 48L13 49L14 49L14 50L13 50L13 52L14 52L14 51L15 51L15 49L16 49L16 54L15 54L15 53L14 53L14 54L15 54L15 55L14 55L14 58L13 58L13 59L14 59L14 58L15 58L15 57L17 57L17 58L18 58L18 59L19 59L19 61L21 61L21 60L22 60L22 62L23 62L23 63L24 63L24 64L22 64L22 63L21 63L21 62L20 62L20 64L19 64L19 65L20 65L20 64L22 64L22 67L23 67L23 65L29 65L29 64L30 64L30 63L32 63L32 62L30 62L30 63L29 63L29 60L30 60L30 59L32 59L32 60L31 60L31 61L32 61L32 60L33 60L33 59L34 59L34 60L37 60L37 62L38 62L38 64L37 64L37 65L39 65L39 63L40 63L40 62L41 62L41 60L39 60L39 58L40 58L40 59L41 59L41 58L40 58L40 57L41 57L41 56L42 56L42 57L44 57L44 54L45 54L45 53L46 53L46 54L47 54L47 53L46 53L46 52L47 52L47 51L46 51L46 50L48 50L48 51L50 51L50 52L49 52L49 53L48 53L48 55L47 55L47 57L46 57L46 58L47 58L47 59L46 59L46 63L47 63L47 64L49 64L49 66L50 66L50 64L49 64L49 63L51 63L51 64L52 64L52 66L53 66L53 64L55 64L55 65L56 65L56 62L54 62L54 63L53 63L53 62L52 62L52 61L56 61L56 60L57 60L57 61L58 61L58 63L57 63L57 65L58 65L58 66L59 66L59 67L61 67L61 66L59 66L59 65L60 65L60 62L59 62L59 61L60 61L60 60L59 60L59 61L58 61L58 60L57 60L57 59L58 59L58 58L59 58L59 59L61 59L61 60L62 60L62 59L63 59L63 60L64 60L64 59L63 59L63 57L64 57L64 56L63 56L63 57L60 57L60 55L59 55L59 53L60 53L60 54L61 54L61 52L62 52L62 51L63 51L63 53L62 53L62 55L64 55L64 54L67 54L67 51L65 51L65 52L64 52L64 50L62 50L62 51L61 51L61 50L59 50L59 49L60 49L60 48L58 48L58 46L59 46L59 47L60 47L60 46L62 46L62 48L61 48L61 49L62 49L62 48L63 48L63 46L62 46L62 45L61 45L61 44L59 44L59 43L58 43L58 44L57 44L57 45L56 45L56 43L57 43L57 42L56 42L56 43L54 43L54 41L56 41L56 39L57 39L57 41L58 41L58 42L60 42L60 41L61 41L61 40L59 40L59 41L58 41L58 38L59 38L59 36L58 36L58 35L57 35L57 36L58 36L58 38L57 38L57 37L56 37L56 32L55 32L55 31L56 31L56 30L57 30L57 32L61 32L61 31L62 31L62 29L61 29L61 30L60 30L60 31L59 31L59 29L58 29L58 28L61 28L61 27L62 27L62 28L64 28L64 29L65 29L65 28L64 28L64 26L63 26L63 27L62 27L62 25L63 25L63 24L62 24L62 23L63 23L63 22L65 22L65 23L64 23L64 25L65 25L65 24L68 24L68 23L67 23L67 22L65 22L65 20L67 20L67 21L68 21L68 20L67 20L67 19L66 19L66 18L65 18L65 20L64 20L64 17L63 17L63 20L62 20L62 15L64 15L64 13L63 13L63 12L62 12L62 11L61 11L61 10L60 10L60 11L59 11L59 12L60 12L60 13L61 13L61 14L59 14L59 13L58 13L58 14L59 14L59 15L58 15L58 16L57 16L57 15L56 15L56 14L57 14L57 13L56 13L56 11L57 11L57 12L58 12L58 10L59 10L59 8L58 8L58 10L57 10L57 9L56 9L56 11L55 11L55 10L53 10L53 11L52 11L52 13L51 13L51 14L50 14L50 12L49 12L49 14L50 14L50 16L49 16L49 17L47 17L47 16L48 16L48 15L47 15L47 11L46 11L46 10L47 10L47 8L45 8L45 7L44 7L44 6L43 6L43 5L44 5L44 4L45 4L45 3L46 3L46 1L45 1L45 3L44 3L44 2L42 2L42 1L41 1L41 2L42 2L42 3L41 3L41 4L43 4L43 5L40 5L40 1L37 1L37 3L38 3L38 4L39 4L39 5L40 5L40 6L39 6L39 7L40 7L40 6L41 6L41 7L42 7L42 6L43 6L43 8L40 8L40 9L39 9L39 10L38 10L38 9L37 9L37 11L38 11L38 13L37 13L37 12L36 12L36 13L34 13L34 11L33 11L33 10L32 10L32 11L29 11L29 10L30 10L30 9L32 9L32 6L31 6L31 5L32 5L32 4L31 4L31 3L29 3L29 2L31 2L31 1L29 1L29 2L28 2L28 1ZM53 1L53 2L54 2L54 1ZM28 3L28 4L26 4L26 7L25 7L25 6L24 6L24 7L23 7L23 6L22 6L22 8L24 8L24 9L23 9L23 10L22 10L22 9L20 9L20 10L19 10L19 11L20 11L20 12L21 12L21 13L20 13L20 14L21 14L21 16L19 16L19 17L22 17L22 12L23 12L23 11L24 11L24 13L23 13L23 17L24 17L24 18L23 18L23 19L22 19L22 20L26 20L26 21L23 21L23 23L25 23L25 22L27 22L27 23L26 23L26 25L25 25L25 24L22 24L22 23L21 23L21 25L20 25L20 27L19 27L19 28L18 28L18 29L17 29L17 28L16 28L16 29L15 29L15 30L14 30L14 31L13 31L13 30L12 30L12 31L13 31L13 33L12 33L12 32L11 32L11 31L10 31L10 30L9 30L9 31L10 31L10 34L12 34L12 36L14 36L14 35L15 35L15 34L16 34L16 33L17 33L17 31L18 31L18 29L20 29L20 28L21 28L21 29L22 29L22 27L23 27L23 28L24 28L24 27L23 27L23 26L21 26L21 25L24 25L24 26L25 26L25 28L26 28L26 29L23 29L23 30L25 30L25 31L26 31L26 32L28 32L28 29L29 29L29 30L30 30L30 29L32 29L32 28L33 28L33 27L34 27L34 28L35 28L35 27L36 27L36 26L37 26L37 28L36 28L36 30L37 30L37 29L38 29L38 30L39 30L39 31L36 31L36 32L32 32L32 31L31 31L31 32L29 32L29 33L30 33L30 34L31 34L31 32L32 32L32 37L31 37L31 36L30 36L30 35L29 35L29 38L30 38L30 39L27 39L27 40L26 40L26 42L24 42L24 41L25 41L25 40L24 40L24 41L23 41L23 43L24 43L24 44L23 44L23 45L22 45L22 47L21 47L21 48L19 48L19 49L18 49L18 50L19 50L19 49L22 49L22 50L20 50L20 51L19 51L19 52L17 52L17 53L20 53L20 54L16 54L16 55L15 55L15 56L17 56L17 57L19 57L19 56L18 56L18 55L21 55L21 56L20 56L20 59L21 59L21 57L24 57L24 58L25 58L25 59L26 59L26 57L27 57L27 60L26 60L26 61L24 61L24 59L23 59L23 58L22 58L22 60L23 60L23 61L24 61L24 63L26 63L26 64L29 64L29 63L27 63L27 62L28 62L28 61L27 61L27 60L28 60L28 59L30 59L30 58L31 58L31 57L32 57L32 56L33 56L33 58L34 58L34 59L35 59L35 58L36 58L36 59L37 59L37 60L38 60L38 62L39 62L39 60L38 60L38 58L39 58L39 57L40 57L40 55L42 55L42 54L44 54L44 53L45 53L45 50L46 50L46 49L45 49L45 48L47 48L47 49L50 49L50 51L51 51L51 52L50 52L50 54L49 54L49 55L48 55L48 57L49 57L49 55L50 55L50 54L51 54L51 57L50 57L50 62L51 62L51 63L52 63L52 64L53 64L53 63L52 63L52 62L51 62L51 61L52 61L52 60L51 60L51 58L52 58L52 59L53 59L53 60L54 60L54 59L55 59L55 58L56 58L56 57L57 57L57 58L58 58L58 57L59 57L59 56L57 56L57 55L58 55L58 52L59 52L59 50L58 50L58 48L57 48L57 46L58 46L58 45L59 45L59 44L58 44L58 45L57 45L57 46L56 46L56 45L54 45L54 43L53 43L53 41L52 41L52 40L54 40L54 39L55 39L55 38L56 38L56 37L53 37L53 39L52 39L52 40L51 40L51 39L50 39L50 43L51 43L51 41L52 41L52 44L51 44L51 45L50 45L50 44L49 44L49 43L48 43L48 42L49 42L49 40L48 40L48 39L47 39L47 41L48 41L48 42L47 42L47 43L46 43L46 44L45 44L45 42L46 42L46 37L47 37L47 38L49 38L49 37L50 37L50 38L52 38L52 36L55 36L55 35L54 35L54 34L55 34L55 32L54 32L54 31L55 31L55 30L56 30L56 29L57 29L57 30L58 30L58 29L57 29L57 28L56 28L56 27L60 27L60 26L61 26L61 25L62 25L62 24L61 24L61 23L62 23L62 22L63 22L63 21L64 21L64 20L63 20L63 21L62 21L62 20L61 20L61 21L59 21L59 23L60 23L60 24L61 24L61 25L59 25L59 26L58 26L58 25L57 25L57 24L58 24L58 23L57 23L57 24L56 24L56 25L57 25L57 26L56 26L56 27L55 27L55 24L54 24L54 23L55 23L55 21L53 21L53 23L52 23L52 20L51 20L51 19L53 19L53 18L54 18L54 20L55 20L55 18L56 18L56 19L58 19L58 20L56 20L56 22L57 22L57 21L58 21L58 20L59 20L59 19L60 19L60 18L61 18L61 17L59 17L59 18L58 18L58 17L57 17L57 16L56 16L56 17L55 17L55 14L56 14L56 13L55 13L55 12L54 12L54 13L53 13L53 16L54 16L54 17L52 17L52 16L50 16L50 18L51 18L51 19L50 19L50 22L49 22L49 19L48 19L48 18L47 18L47 19L46 19L46 20L44 20L44 23L45 23L45 24L44 24L44 25L43 25L43 24L42 24L42 25L41 25L41 26L43 26L43 28L42 28L42 27L40 27L40 24L41 24L41 23L42 23L42 22L43 22L43 20L42 20L42 19L41 19L41 22L40 22L40 24L39 24L39 23L38 23L38 24L37 24L37 23L35 23L35 22L34 22L34 20L35 20L35 19L36 19L36 17L37 17L37 16L38 16L38 18L39 18L39 19L37 19L37 21L36 21L36 22L37 22L37 21L38 21L38 20L39 20L39 21L40 21L40 20L39 20L39 19L40 19L40 16L42 16L42 17L41 17L41 18L44 18L44 19L45 19L45 15L46 15L46 13L45 13L45 11L43 11L43 9L40 9L40 10L39 10L39 13L38 13L38 14L39 14L39 13L40 13L40 14L41 14L41 10L42 10L42 12L43 12L43 13L42 13L42 15L39 15L39 16L38 16L38 15L37 15L37 16L36 16L36 15L35 15L35 14L34 14L34 15L33 15L33 12L32 12L32 13L31 13L31 12L29 12L29 11L28 11L28 12L26 12L26 11L25 11L25 10L24 10L24 9L25 9L25 8L26 8L26 10L27 10L27 9L30 9L30 8L31 8L31 6L30 6L30 5L31 5L31 4L30 4L30 5L28 5L28 4L29 4L29 3ZM34 3L34 4L36 4L36 3ZM43 3L43 4L44 4L44 3ZM53 3L53 4L54 4L54 3ZM60 3L60 5L61 5L61 3ZM48 4L48 5L49 5L49 4ZM11 5L11 7L12 7L12 6L13 6L13 7L14 7L14 6L13 6L13 5ZM27 5L27 7L26 7L26 8L27 8L27 7L28 7L28 8L29 8L29 7L30 7L30 6L29 6L29 7L28 7L28 5ZM33 5L33 8L36 8L36 5ZM37 5L37 8L38 8L38 5ZM9 6L9 7L10 7L10 6ZM34 6L34 7L35 7L35 6ZM48 6L48 7L49 7L49 6ZM24 7L24 8L25 8L25 7ZM15 8L15 9L16 9L16 8ZM44 8L44 9L45 9L45 10L46 10L46 9L45 9L45 8ZM50 8L50 9L49 9L49 10L50 10L50 11L51 11L51 10L52 10L52 9L51 9L51 8ZM65 8L65 11L66 11L66 10L67 10L67 11L68 11L68 13L67 13L67 12L66 12L66 13L67 13L67 15L68 15L68 14L69 14L69 11L68 11L68 10L67 10L67 9L69 9L69 8ZM5 9L5 10L7 10L7 9ZM34 9L34 10L35 10L35 11L36 11L36 9ZM50 9L50 10L51 10L51 9ZM16 10L16 11L17 11L17 10ZM20 10L20 11L22 11L22 10ZM6 11L6 12L5 12L5 13L4 13L4 14L5 14L5 13L6 13L6 14L7 14L7 13L6 13L6 12L7 12L7 11ZM60 11L60 12L61 12L61 13L62 13L62 14L63 14L63 13L62 13L62 12L61 12L61 11ZM2 12L2 13L3 13L3 12ZM25 12L25 15L26 15L26 16L28 16L28 17L27 17L27 18L26 18L26 17L25 17L25 16L24 16L24 17L25 17L25 18L26 18L26 19L28 19L28 18L31 18L31 19L29 19L29 21L28 21L28 23L27 23L27 24L29 24L29 25L28 25L28 26L29 26L29 29L30 29L30 27L33 27L33 26L29 26L29 25L30 25L30 24L31 24L31 25L34 25L34 23L31 23L31 22L32 22L32 20L34 20L34 19L35 19L35 18L34 18L34 17L35 17L35 16L34 16L34 17L32 17L32 16L33 16L33 15L32 15L32 14L31 14L31 15L32 15L32 16L31 16L31 17L29 17L29 12L28 12L28 14L27 14L27 13L26 13L26 12ZM16 13L16 14L15 14L15 15L14 15L14 16L15 16L15 15L16 15L16 14L17 14L17 15L18 15L18 13ZM43 13L43 14L44 14L44 15L43 15L43 17L44 17L44 15L45 15L45 14L44 14L44 13ZM3 15L3 16L2 16L2 17L1 17L1 18L3 18L3 16L5 16L5 15ZM6 15L6 16L7 16L7 15ZM59 15L59 16L60 16L60 15ZM6 18L6 19L7 19L7 18ZM13 18L13 19L12 19L12 20L14 20L14 18ZM32 18L32 19L31 19L31 20L30 20L30 21L29 21L29 23L30 23L30 21L31 21L31 20L32 20L32 19L34 19L34 18ZM14 21L14 22L15 22L15 21ZM46 21L46 22L47 22L47 25L46 25L46 26L47 26L47 27L49 27L49 26L50 26L50 28L51 28L51 26L52 26L52 29L56 29L56 28L54 28L54 25L53 25L53 24L52 24L52 23L51 23L51 22L50 22L50 25L49 25L49 26L47 26L47 25L48 25L48 23L49 23L49 22L48 22L48 21ZM61 21L61 22L62 22L62 21ZM1 23L1 24L2 24L2 23ZM35 24L35 25L36 25L36 24ZM38 24L38 25L37 25L37 26L38 26L38 28L39 28L39 29L40 29L40 30L42 30L42 28L40 28L40 27L39 27L39 26L38 26L38 25L39 25L39 24ZM51 24L51 25L50 25L50 26L51 26L51 25L52 25L52 24ZM7 25L7 26L6 26L6 27L7 27L7 26L8 26L8 25ZM26 25L26 27L27 27L27 25ZM67 25L67 26L68 26L68 25ZM10 27L10 28L11 28L11 27ZM44 27L44 28L43 28L43 31L40 31L40 33L44 33L44 34L43 34L43 35L41 35L41 34L39 34L39 35L38 35L38 32L37 32L37 37L36 37L36 38L35 38L35 37L32 37L32 38L31 38L31 40L30 40L30 41L27 41L27 42L28 42L28 43L29 43L29 44L28 44L28 47L27 47L27 46L26 46L26 44L27 44L27 43L26 43L26 44L25 44L25 47L24 47L24 46L23 46L23 47L24 47L24 48L25 48L25 47L26 47L26 48L28 48L28 49L27 49L27 50L26 50L26 49L25 49L25 51L24 51L24 52L23 52L23 50L22 50L22 53L21 53L21 55L22 55L22 56L24 56L24 55L25 55L25 57L26 57L26 52L27 52L27 51L28 51L28 50L31 50L31 51L32 51L32 52L33 52L33 53L31 53L31 54L30 54L30 55L29 55L29 56L28 56L28 54L29 54L29 53L27 53L27 56L28 56L28 58L29 58L29 57L30 57L30 56L31 56L31 55L33 55L33 56L34 56L34 58L35 58L35 57L36 57L36 56L37 56L37 55L38 55L38 56L39 56L39 55L40 55L40 54L41 54L41 53L44 53L44 51L43 51L43 50L42 50L42 51L41 51L41 49L42 49L42 45L41 45L41 46L40 46L40 45L39 45L39 43L41 43L41 44L43 44L43 45L44 45L44 46L43 46L43 47L44 47L44 48L43 48L43 49L44 49L44 50L45 50L45 49L44 49L44 48L45 48L45 47L47 47L47 48L49 48L49 47L50 47L50 48L52 48L52 49L54 49L54 48L52 48L52 47L50 47L50 45L49 45L49 47L47 47L47 44L48 44L48 43L47 43L47 44L46 44L46 45L44 45L44 40L45 40L45 39L43 39L43 38L45 38L45 37L46 37L46 34L47 34L47 33L46 33L46 34L45 34L45 33L44 33L44 30L45 30L45 31L46 31L46 30L47 30L47 32L49 32L49 30L50 30L50 32L51 32L51 31L52 31L52 33L54 33L54 32L53 32L53 31L52 31L52 30L50 30L50 29L48 29L48 30L47 30L47 29L46 29L46 28L45 28L45 27ZM6 28L6 29L7 29L7 28ZM27 28L27 29L28 29L28 28ZM44 28L44 29L45 29L45 30L46 30L46 29L45 29L45 28ZM16 29L16 30L17 30L17 29ZM33 29L33 31L34 31L34 30L35 30L35 29ZM63 30L63 32L66 32L66 33L67 33L67 31L64 31L64 30ZM14 31L14 33L13 33L13 34L14 34L14 33L15 33L15 32L16 32L16 31ZM5 33L5 36L8 36L8 33ZM33 33L33 36L36 36L36 33ZM48 33L48 36L50 36L50 37L51 37L51 36L52 36L52 34L51 34L51 36L50 36L50 33ZM58 33L58 34L59 34L59 33ZM61 33L61 36L64 36L64 33ZM6 34L6 35L7 35L7 34ZM34 34L34 35L35 35L35 34ZM44 34L44 37L45 37L45 34ZM62 34L62 35L63 35L63 34ZM65 34L65 36L67 36L67 38L68 38L68 35L67 35L67 34ZM22 35L22 36L23 36L23 35ZM17 36L17 37L19 37L19 36ZM38 36L38 37L37 37L37 41L33 41L33 42L32 42L32 43L33 43L33 42L36 42L36 43L37 43L37 44L36 44L36 45L38 45L38 46L37 46L37 47L36 47L36 46L35 46L35 47L34 47L34 48L33 48L33 49L32 49L32 48L31 48L31 47L28 47L28 48L29 48L29 49L32 49L32 51L34 51L34 52L35 52L35 51L36 51L36 49L35 49L35 50L34 50L34 48L35 48L35 47L36 47L36 48L37 48L37 49L38 49L38 51L37 51L37 52L36 52L36 53L35 53L35 54L34 54L34 53L33 53L33 54L34 54L34 56L35 56L35 55L36 55L36 54L37 54L37 53L38 53L38 52L39 52L39 54L40 54L40 48L41 48L41 47L38 47L38 46L39 46L39 45L38 45L38 43L39 43L39 42L43 42L43 39L42 39L42 38L43 38L43 37L42 37L42 36L41 36L41 41L40 41L40 36ZM11 37L11 38L10 38L10 39L9 39L9 42L10 42L10 43L12 43L12 45L13 45L13 43L14 43L14 42L15 42L15 41L16 41L16 37L15 37L15 39L13 39L13 37ZM11 38L11 39L12 39L12 40L11 40L11 41L10 41L10 42L12 42L12 40L13 40L13 42L14 42L14 40L13 40L13 39L12 39L12 38ZM32 38L32 40L31 40L31 41L30 41L30 42L31 42L31 41L32 41L32 40L33 40L33 39L34 39L34 40L35 40L35 38ZM38 38L38 40L39 40L39 38ZM60 38L60 39L61 39L61 38ZM0 41L0 42L1 42L1 41ZM37 41L37 43L38 43L38 41ZM34 43L34 44L33 44L33 45L31 45L31 44L29 44L29 46L32 46L32 47L33 47L33 45L34 45L34 44L35 44L35 43ZM4 44L4 45L5 45L5 44ZM8 44L8 46L6 46L6 47L9 47L9 48L10 48L10 47L11 47L11 44L10 44L10 45L9 45L9 44ZM52 44L52 45L53 45L53 47L54 47L54 45L53 45L53 44ZM9 46L9 47L10 47L10 46ZM37 47L37 48L38 48L38 49L39 49L39 48L38 48L38 47ZM67 47L67 48L68 48L68 49L69 49L69 48L68 48L68 47ZM22 48L22 49L23 49L23 48ZM6 49L6 50L7 50L7 49ZM55 49L55 50L53 50L53 51L52 51L52 53L51 53L51 54L52 54L52 55L53 55L53 54L52 54L52 53L54 53L54 52L53 52L53 51L55 51L55 50L56 50L56 49ZM10 50L10 51L11 51L11 50ZM57 50L57 51L58 51L58 50ZM42 51L42 52L43 52L43 51ZM60 51L60 52L61 52L61 51ZM65 52L65 53L66 53L66 52ZM23 53L23 55L24 55L24 54L25 54L25 53ZM56 53L56 54L55 54L55 55L54 55L54 56L55 56L55 57L56 57L56 54L57 54L57 53ZM63 53L63 54L64 54L64 53ZM52 56L52 57L53 57L53 59L54 59L54 57L53 57L53 56ZM37 57L37 58L38 58L38 57ZM42 58L42 61L44 61L44 62L45 62L45 61L44 61L44 60L45 60L45 58ZM61 58L61 59L62 59L62 58ZM43 59L43 60L44 60L44 59ZM47 59L47 63L49 63L49 59ZM3 60L3 61L5 61L5 60ZM6 60L6 61L7 61L7 60ZM26 61L26 62L27 62L27 61ZM33 61L33 64L36 64L36 61ZM61 61L61 64L64 64L64 61ZM34 62L34 63L35 63L35 62ZM42 62L42 63L43 63L43 62ZM62 62L62 63L63 63L63 62ZM58 63L58 65L59 65L59 63ZM31 64L31 65L32 65L32 66L33 66L33 65L32 65L32 64ZM16 65L16 66L17 66L17 65ZM34 65L34 66L35 66L35 65ZM54 66L54 67L53 67L53 68L54 68L54 67L55 67L55 66ZM62 66L62 68L63 68L63 67L64 67L64 66ZM8 67L8 69L9 69L9 67ZM29 67L29 69L31 69L31 68L30 68L30 67ZM10 68L10 69L12 69L12 68ZM36 68L36 69L37 69L37 68ZM68 68L68 69L69 69L69 68ZM0 0L0 7L7 7L7 0ZM1 1L1 6L6 6L6 1ZM2 2L2 5L5 5L5 2ZM62 0L62 7L69 7L69 0ZM63 1L63 6L68 6L68 1ZM64 2L64 5L67 5L67 2ZM0 62L0 69L7 69L7 62ZM1 63L1 68L6 68L6 63ZM2 64L2 67L5 67L5 64Z" fill="#000000"/></g></g></svg>
