<?xml version="1.0" encoding="UTF-8"?>
<svg xmlns="http://www.w3.org/2000/svg" version="1.1" width="300" height="300" viewBox="0 0 300 300"><rect x="0" y="0" width="300" height="300" fill="#ffffff"/><g transform="scale(4.348)"><g transform="translate(0,0)"><path fill-rule="evenodd" d="M9 0L9 1L8 1L8 2L9 2L9 1L10 1L10 4L11 4L11 5L10 5L10 7L9 7L9 5L8 5L8 7L9 7L9 8L6 8L6 9L5 9L5 8L0 8L0 10L1 10L1 9L5 9L5 10L6 10L6 11L1 11L1 12L6 12L6 13L7 13L7 14L4 14L4 13L1 13L1 15L0 15L0 16L1 16L1 18L0 18L0 20L1 20L1 22L0 22L0 24L1 24L1 25L0 25L0 27L2 27L2 28L3 28L3 29L2 29L2 30L1 30L1 31L0 31L0 32L1 32L1 33L0 33L0 35L1 35L1 33L2 33L2 34L3 34L3 35L2 35L2 38L0 38L0 42L1 42L1 41L2 41L2 39L3 39L3 42L2 42L2 45L0 45L0 47L1 47L1 46L2 46L2 47L3 47L3 49L2 49L2 48L1 48L1 49L0 49L0 53L1 53L1 54L2 54L2 56L5 56L5 57L8 57L8 58L4 58L4 57L3 57L3 58L2 58L2 59L3 59L3 58L4 58L4 59L7 59L7 60L6 60L6 61L8 61L8 63L9 63L9 64L8 64L8 69L9 69L9 68L11 68L11 69L13 69L13 67L14 67L14 69L16 69L16 68L15 68L15 67L18 67L18 66L19 66L19 67L20 67L20 66L19 66L19 65L20 65L20 64L22 64L22 63L20 63L20 64L19 64L19 62L20 62L20 61L19 61L19 60L21 60L21 59L20 59L20 56L22 56L22 57L21 57L21 58L22 58L22 57L24 57L24 58L23 58L23 59L24 59L24 60L23 60L23 64L25 64L25 65L23 65L23 66L24 66L24 67L23 67L23 69L24 69L24 67L25 67L25 69L26 69L26 67L25 67L25 65L28 65L28 66L27 66L27 67L28 67L28 68L29 68L29 69L32 69L32 68L30 68L30 67L33 67L33 65L37 65L37 66L36 66L36 67L35 67L35 66L34 66L34 67L35 67L35 68L34 68L34 69L35 69L35 68L36 68L36 69L38 69L38 68L37 68L37 66L38 66L38 67L39 67L39 66L38 66L38 65L39 65L39 64L41 64L41 66L40 66L40 67L41 67L41 69L42 69L42 67L41 67L41 66L44 66L44 68L43 68L43 69L44 69L44 68L47 68L47 69L49 69L49 68L48 68L48 67L49 67L49 66L50 66L50 69L51 69L51 67L53 67L53 66L54 66L54 68L53 68L53 69L54 69L54 68L55 68L55 69L56 69L56 67L55 67L55 66L56 66L56 64L55 64L55 65L52 65L52 66L50 66L50 63L48 63L48 64L47 64L47 66L46 66L46 64L45 64L45 63L44 63L44 64L41 64L41 63L39 63L39 62L40 62L40 59L41 59L41 58L42 58L42 60L41 60L41 62L42 62L42 63L43 63L43 61L44 61L44 59L43 59L43 57L44 57L44 56L46 56L46 57L47 57L47 58L48 58L48 59L49 59L49 60L47 60L47 59L46 59L46 58L45 58L45 62L46 62L46 63L47 63L47 62L50 62L50 61L49 61L49 60L50 60L50 59L49 59L49 58L50 58L50 57L51 57L51 58L55 58L55 59L53 59L53 60L54 60L54 61L53 61L53 62L52 62L52 61L51 61L51 62L52 62L52 63L53 63L53 62L55 62L55 61L56 61L56 60L55 60L55 59L56 59L56 58L57 58L57 61L59 61L59 62L56 62L56 63L57 63L57 65L59 65L59 64L60 64L60 66L58 66L58 67L62 67L62 66L61 66L61 65L63 65L63 66L64 66L64 65L65 65L65 66L66 66L66 67L65 67L65 69L68 69L68 68L67 68L67 66L66 66L66 65L65 65L65 64L67 64L67 65L68 65L68 64L69 64L69 63L68 63L68 64L67 64L67 62L69 62L69 61L68 61L68 54L69 54L69 53L66 53L66 54L65 54L65 55L63 55L63 57L64 57L64 56L65 56L65 58L66 58L66 56L67 56L67 59L65 59L65 60L62 60L62 58L61 58L61 57L62 57L62 54L61 54L61 51L62 51L62 52L63 52L63 53L64 53L64 51L62 51L62 50L63 50L63 48L67 48L67 47L68 47L68 48L69 48L69 47L68 47L68 46L69 46L69 45L68 45L68 44L69 44L69 43L68 43L68 42L67 42L67 39L68 39L68 41L69 41L69 39L68 39L68 38L67 38L67 37L68 37L68 36L69 36L69 35L68 35L68 34L69 34L69 33L68 33L68 34L67 34L67 33L66 33L66 32L69 32L69 31L68 31L68 30L69 30L69 29L68 29L68 28L69 28L69 27L68 27L68 25L69 25L69 24L68 24L68 18L69 18L69 17L67 17L67 15L68 15L68 16L69 16L69 15L68 15L68 13L67 13L67 11L68 11L68 12L69 12L69 11L68 11L68 8L67 8L67 9L66 9L66 8L65 8L65 9L64 9L64 8L63 8L63 10L64 10L64 11L62 11L62 8L61 8L61 9L59 9L59 10L61 10L61 13L60 13L60 12L59 12L59 11L58 11L58 10L56 10L56 8L57 8L57 9L58 9L58 8L57 8L57 6L56 6L56 8L55 8L55 9L54 9L54 8L53 8L53 6L54 6L54 7L55 7L55 4L56 4L56 3L54 3L54 4L51 4L51 6L50 6L50 4L49 4L49 3L47 3L47 4L49 4L49 5L48 5L48 7L47 7L47 6L46 6L46 5L44 5L44 3L45 3L45 4L46 4L46 3L45 3L45 2L44 2L44 3L43 3L43 0L41 0L41 1L38 1L38 0L33 0L33 1L32 1L32 0L31 0L31 1L32 1L32 3L29 3L29 0L28 0L28 1L26 1L26 2L25 2L25 0L21 0L21 3L17 3L17 2L16 2L16 1L18 1L18 2L20 2L20 1L19 1L19 0L16 0L16 1L15 1L15 0L14 0L14 1L12 1L12 0L11 0L11 1L10 1L10 0ZM44 0L44 1L45 1L45 0ZM47 0L47 1L46 1L46 2L49 2L49 1L50 1L50 3L52 3L52 2L54 2L54 1L57 1L57 3L59 3L59 2L58 2L58 1L61 1L61 0L58 0L58 1L57 1L57 0L54 0L54 1L52 1L52 2L51 2L51 1L50 1L50 0L49 0L49 1L48 1L48 0ZM11 1L11 4L13 4L13 5L11 5L11 7L10 7L10 11L11 11L11 12L9 12L9 11L8 11L8 10L7 10L7 9L6 9L6 10L7 10L7 11L6 11L6 12L7 12L7 13L8 13L8 16L9 16L9 13L10 13L10 14L11 14L11 12L12 12L12 11L11 11L11 9L12 9L12 10L13 10L13 11L14 11L14 10L15 10L15 9L16 9L16 11L17 11L17 12L16 12L16 14L15 14L15 13L14 13L14 12L13 12L13 13L12 13L12 14L13 14L13 15L11 15L11 16L10 16L10 17L9 17L9 18L7 18L7 17L6 17L6 18L5 18L5 17L4 17L4 16L7 16L7 15L2 15L2 16L3 16L3 18L1 18L1 20L3 20L3 21L4 21L4 20L5 20L5 19L6 19L6 20L7 20L7 19L10 19L10 17L12 17L12 19L13 19L13 21L14 21L14 22L13 22L13 23L14 23L14 24L13 24L13 25L12 25L12 27L10 27L10 28L9 28L9 26L8 26L8 24L9 24L9 25L10 25L10 26L11 26L11 24L12 24L12 23L11 23L11 22L12 22L12 21L9 21L9 20L8 20L8 22L7 22L7 21L5 21L5 22L4 22L4 23L3 23L3 22L1 22L1 23L2 23L2 24L4 24L4 23L6 23L6 24L5 24L5 25L6 25L6 26L3 26L3 25L2 25L2 26L3 26L3 28L4 28L4 27L6 27L6 28L5 28L5 29L4 29L4 30L2 30L2 32L3 32L3 34L4 34L4 32L7 32L7 31L8 31L8 32L10 32L10 33L9 33L9 34L11 34L11 35L14 35L14 37L13 37L13 36L12 36L12 39L10 39L10 41L11 41L11 43L9 43L9 44L8 44L8 45L9 45L9 44L10 44L10 46L12 46L12 47L13 47L13 49L10 49L10 47L9 47L9 46L8 46L8 49L10 49L10 50L13 50L13 51L11 51L11 54L10 54L10 51L9 51L9 50L7 50L7 49L6 49L6 50L4 50L4 51L6 51L6 52L7 52L7 53L5 53L5 52L2 52L2 50L1 50L1 52L2 52L2 53L3 53L3 54L4 54L4 53L5 53L5 56L7 56L7 55L9 55L9 56L8 56L8 57L9 57L9 56L12 56L12 55L11 55L11 54L12 54L12 52L13 52L13 56L14 56L14 55L15 55L15 54L17 54L17 55L16 55L16 57L14 57L14 59L15 59L15 60L16 60L16 61L13 61L13 62L14 62L14 63L12 63L12 62L11 62L11 61L12 61L12 60L13 60L13 59L12 59L12 58L13 58L13 57L12 57L12 58L11 58L11 57L10 57L10 58L9 58L9 59L8 59L8 61L10 61L10 64L9 64L9 67L10 67L10 66L12 66L12 65L11 65L11 64L15 64L15 65L13 65L13 66L14 66L14 67L15 67L15 66L17 66L17 65L18 65L18 64L17 64L17 63L18 63L18 62L19 62L19 61L18 61L18 60L16 60L16 59L15 59L15 58L16 58L16 57L17 57L17 55L18 55L18 56L20 56L20 54L21 54L21 55L22 55L22 54L23 54L23 52L24 52L24 53L25 53L25 55L23 55L23 56L26 56L26 57L25 57L25 58L26 58L26 57L27 57L27 58L29 58L29 57L30 57L30 56L29 56L29 57L27 57L27 56L26 56L26 53L27 53L27 54L29 54L29 55L30 55L30 54L29 54L29 53L27 53L27 51L28 51L28 52L29 52L29 50L30 50L30 51L32 51L32 52L34 52L34 53L33 53L33 54L32 54L32 53L31 53L31 55L32 55L32 56L33 56L33 57L34 57L34 58L35 58L35 56L34 56L34 55L37 55L37 58L36 58L36 59L37 59L37 60L38 60L38 62L37 62L37 63L38 63L38 64L37 64L37 65L38 65L38 64L39 64L39 63L38 63L38 62L39 62L39 60L38 60L38 59L37 59L37 58L39 58L39 57L41 57L41 56L39 56L39 54L40 54L40 55L43 55L43 56L42 56L42 57L43 57L43 56L44 56L44 53L45 53L45 54L46 54L46 56L49 56L49 55L51 55L51 53L53 53L53 54L54 54L54 55L55 55L55 56L53 56L53 55L52 55L52 56L51 56L51 57L55 57L55 56L56 56L56 57L57 57L57 58L59 58L59 57L60 57L60 56L61 56L61 54L60 54L60 52L59 52L59 49L60 49L60 51L61 51L61 50L62 50L62 47L64 47L64 46L65 46L65 47L66 47L66 44L65 44L65 43L63 43L63 42L65 42L65 41L66 41L66 40L65 40L65 41L63 41L63 40L62 40L62 41L63 41L63 42L62 42L62 44L61 44L61 43L60 43L60 42L61 42L61 39L60 39L60 38L62 38L62 39L65 39L65 37L67 37L67 36L68 36L68 35L67 35L67 34L66 34L66 35L67 35L67 36L65 36L65 37L64 37L64 38L63 38L63 37L59 37L59 36L60 36L60 35L58 35L58 34L60 34L60 33L58 33L58 32L61 32L61 30L59 30L59 29L58 29L58 27L59 27L59 28L61 28L61 29L62 29L62 31L63 31L63 32L64 32L64 31L67 31L67 28L68 28L68 27L67 27L67 28L66 28L66 29L65 29L65 26L67 26L67 25L65 25L65 24L63 24L63 25L62 25L62 23L64 23L64 22L65 22L65 23L67 23L67 22L65 22L65 21L66 21L66 20L65 20L65 19L66 19L66 18L63 18L63 17L66 17L66 16L65 16L65 15L64 15L64 16L62 16L62 15L63 15L63 13L65 13L65 14L67 14L67 13L66 13L66 12L65 12L65 11L64 11L64 12L63 12L63 13L62 13L62 15L61 15L61 16L60 16L60 15L59 15L59 12L58 12L58 13L57 13L57 12L56 12L56 10L55 10L55 11L53 11L53 10L52 10L52 11L53 11L53 12L50 12L50 14L47 14L47 12L49 12L49 10L51 10L51 9L50 9L50 8L52 8L52 9L53 9L53 8L52 8L52 6L51 6L51 7L50 7L50 6L49 6L49 10L47 10L47 7L46 7L46 6L45 6L45 7L44 7L44 5L43 5L43 7L42 7L42 6L41 6L41 5L40 5L40 4L41 4L41 3L42 3L42 1L41 1L41 3L39 3L39 2L36 2L36 4L37 4L37 5L38 5L38 6L37 6L37 7L38 7L38 8L37 8L37 9L38 9L38 10L36 10L36 9L34 9L34 10L36 10L36 11L33 11L33 9L32 9L32 8L31 8L31 7L32 7L32 5L30 5L30 4L29 4L29 3L28 3L28 2L26 2L26 4L25 4L25 3L24 3L24 4L23 4L23 3L21 3L21 4L19 4L19 5L21 5L21 4L23 4L23 5L22 5L22 6L21 6L21 7L20 7L20 6L19 6L19 7L18 7L18 6L17 6L17 3L16 3L16 2L13 2L13 3L12 3L12 1ZM22 1L22 2L24 2L24 1ZM33 1L33 3L32 3L32 4L33 4L33 3L35 3L35 1ZM8 3L8 4L9 4L9 3ZM13 3L13 4L14 4L14 5L13 5L13 6L12 6L12 8L13 8L13 6L14 6L14 7L15 7L15 8L16 8L16 9L17 9L17 10L18 10L18 12L17 12L17 15L14 15L14 17L13 17L13 16L12 16L12 17L13 17L13 18L14 18L14 17L16 17L16 18L15 18L15 19L14 19L14 20L15 20L15 19L17 19L17 17L18 17L18 18L20 18L20 19L19 19L19 20L18 20L18 21L17 21L17 20L16 20L16 21L17 21L17 22L18 22L18 21L19 21L19 22L20 22L20 21L21 21L21 19L22 19L22 20L23 20L23 22L22 22L22 23L21 23L21 24L20 24L20 23L18 23L18 24L17 24L17 23L16 23L16 22L15 22L15 25L16 25L16 26L13 26L13 27L12 27L12 28L10 28L10 29L9 29L9 30L8 30L8 31L10 31L10 32L11 32L11 34L14 34L14 33L12 33L12 32L11 32L11 30L10 30L10 29L12 29L12 28L13 28L13 30L12 30L12 31L13 31L13 32L15 32L15 31L14 31L14 28L13 28L13 27L16 27L16 28L17 28L17 30L16 30L16 31L17 31L17 32L16 32L16 33L15 33L15 34L16 34L16 33L17 33L17 34L18 34L18 35L17 35L17 39L16 39L16 38L14 38L14 39L13 39L13 40L14 40L14 41L15 41L15 42L16 42L16 41L15 41L15 40L17 40L17 41L19 41L19 42L17 42L17 45L18 45L18 46L17 46L17 47L16 47L16 49L15 49L15 47L14 47L14 49L13 49L13 50L16 50L16 49L18 49L18 51L19 51L19 52L15 52L15 51L14 51L14 54L15 54L15 53L19 53L19 54L20 54L20 53L19 53L19 52L23 52L23 51L24 51L24 52L25 52L25 53L26 53L26 52L25 52L25 51L26 51L26 49L25 49L25 48L26 48L26 47L25 47L25 45L26 45L26 46L27 46L27 45L30 45L30 46L31 46L31 45L33 45L33 46L32 46L32 47L33 47L33 46L34 46L34 47L35 47L35 48L36 48L36 47L39 47L39 48L38 48L38 49L37 49L37 50L36 50L36 49L35 49L35 50L36 50L36 51L35 51L35 53L36 53L36 52L38 52L38 53L37 53L37 54L39 54L39 51L41 51L41 50L42 50L42 52L43 52L43 53L41 53L41 54L43 54L43 53L44 53L44 52L45 52L45 53L49 53L49 54L50 54L50 53L49 53L49 52L50 52L50 49L51 49L51 48L52 48L52 47L51 47L51 46L49 46L49 45L50 45L50 43L49 43L49 44L48 44L48 42L46 42L46 43L47 43L47 44L46 44L46 45L47 45L47 46L49 46L49 47L51 47L51 48L50 48L50 49L49 49L49 48L47 48L47 49L49 49L49 50L47 50L47 51L46 51L46 52L45 52L45 49L46 49L46 47L45 47L45 49L44 49L44 46L45 46L45 45L44 45L44 46L43 46L43 44L45 44L45 42L44 42L44 40L41 40L41 39L39 39L39 40L41 40L41 41L40 41L40 43L38 43L38 40L37 40L37 39L38 39L38 38L36 38L36 37L38 37L38 36L37 36L37 35L39 35L39 36L42 36L42 37L41 37L41 38L42 38L42 39L45 39L45 40L47 40L47 41L49 41L49 42L50 42L50 41L49 41L49 40L52 40L52 39L50 39L50 36L49 36L49 35L48 35L48 34L50 34L50 32L49 32L49 30L50 30L50 29L51 29L51 30L52 30L52 31L53 31L53 30L55 30L55 29L56 29L56 31L55 31L55 32L54 32L54 33L53 33L53 35L54 35L54 34L55 34L55 35L56 35L56 36L55 36L55 37L52 37L52 38L54 38L54 39L53 39L53 41L51 41L51 44L52 44L52 43L53 43L53 42L54 42L54 44L55 44L55 45L52 45L52 46L54 46L54 47L57 47L57 48L58 48L58 46L57 46L57 45L58 45L58 44L57 44L57 43L58 43L58 42L57 42L57 43L56 43L56 42L55 42L55 41L56 41L56 40L57 40L57 41L59 41L59 42L60 42L60 41L59 41L59 40L60 40L60 39L59 39L59 38L57 38L57 37L56 37L56 36L57 36L57 35L56 35L56 34L58 34L58 33L56 33L56 34L55 34L55 32L58 32L58 30L57 30L57 29L56 29L56 28L57 28L57 27L58 27L58 26L56 26L56 25L55 25L55 24L57 24L57 23L56 23L56 22L55 22L55 20L57 20L57 19L56 19L56 18L57 18L57 17L56 17L56 14L55 14L55 13L56 13L56 12L53 12L53 13L51 13L51 16L50 16L50 17L51 17L51 18L49 18L49 19L48 19L48 18L47 18L47 20L46 20L46 21L47 21L47 24L46 24L46 22L44 22L44 20L43 20L43 17L44 17L44 16L45 16L45 17L46 17L46 15L44 15L44 16L42 16L42 17L41 17L41 18L39 18L39 19L37 19L37 18L38 18L38 16L40 16L40 15L42 15L42 14L43 14L43 13L44 13L44 14L45 14L45 13L46 13L46 12L47 12L47 11L46 11L46 12L45 12L45 11L43 11L43 13L42 13L42 14L41 14L41 12L42 12L42 10L45 10L45 9L46 9L46 7L45 7L45 9L44 9L44 8L43 8L43 9L40 9L40 10L38 10L38 11L37 11L37 13L36 13L36 12L33 12L33 14L32 14L32 15L30 15L30 16L29 16L29 14L31 14L31 13L32 13L32 12L29 12L29 11L32 11L32 10L31 10L31 9L30 9L30 8L29 8L29 6L30 6L30 7L31 7L31 6L30 6L30 5L27 5L27 4L28 4L28 3L27 3L27 4L26 4L26 8L25 8L25 6L24 6L24 5L25 5L25 4L24 4L24 5L23 5L23 6L22 6L22 7L23 7L23 6L24 6L24 9L23 9L23 10L24 10L24 9L26 9L26 10L27 10L27 11L26 11L26 12L24 12L24 11L23 11L23 12L24 12L24 13L21 13L21 12L20 12L20 11L22 11L22 10L20 10L20 7L19 7L19 8L18 8L18 7L17 7L17 6L16 6L16 5L15 5L15 4L16 4L16 3ZM37 3L37 4L38 4L38 3ZM60 3L60 5L61 5L61 3ZM57 4L57 5L58 5L58 7L59 7L59 8L60 8L60 7L61 7L61 6L60 6L60 7L59 7L59 4ZM33 5L33 8L36 8L36 5ZM39 5L39 6L38 6L38 7L39 7L39 6L40 6L40 7L41 7L41 6L40 6L40 5ZM15 6L15 7L16 7L16 8L17 8L17 7L16 7L16 6ZM27 6L27 7L28 7L28 6ZM34 6L34 7L35 7L35 6ZM21 8L21 9L22 9L22 8ZM26 8L26 9L27 9L27 10L28 10L28 11L27 11L27 12L26 12L26 13L25 13L25 15L26 15L26 16L25 16L25 17L26 17L26 18L25 18L25 19L24 19L24 18L23 18L23 16L22 16L22 15L24 15L24 14L22 14L22 15L21 15L21 16L20 16L20 14L21 14L21 13L19 13L19 14L18 14L18 15L17 15L17 16L16 16L16 17L17 17L17 16L18 16L18 17L22 17L22 18L23 18L23 19L24 19L24 20L25 20L25 21L27 21L27 22L24 22L24 23L23 23L23 24L24 24L24 23L26 23L26 25L25 25L25 27L26 27L26 29L25 29L25 30L24 30L24 32L23 32L23 30L22 30L22 29L24 29L24 27L22 27L22 26L24 26L24 25L22 25L22 24L21 24L21 25L17 25L17 24L16 24L16 25L17 25L17 28L19 28L19 27L20 27L20 31L19 31L19 32L20 32L20 33L19 33L19 34L20 34L20 35L19 35L19 36L20 36L20 38L18 38L18 39L17 39L17 40L18 40L18 39L20 39L20 38L21 38L21 37L23 37L23 38L22 38L22 39L21 39L21 40L22 40L22 41L20 41L20 40L19 40L19 41L20 41L20 42L22 42L22 44L21 44L21 43L20 43L20 44L19 44L19 43L18 43L18 44L19 44L19 45L20 45L20 46L18 46L18 47L17 47L17 48L18 48L18 49L22 49L22 50L23 50L23 49L24 49L24 48L25 48L25 47L23 47L23 46L22 46L22 47L23 47L23 48L21 48L21 47L20 47L20 46L21 46L21 45L24 45L24 44L26 44L26 45L27 45L27 44L31 44L31 43L32 43L32 44L33 44L33 45L34 45L34 46L35 46L35 47L36 47L36 46L37 46L37 45L36 45L36 44L35 44L35 42L34 42L34 41L36 41L36 42L37 42L37 40L34 40L34 39L35 39L35 37L34 37L34 38L33 38L33 40L32 40L32 37L31 37L31 38L30 38L30 37L29 37L29 36L28 36L28 35L26 35L26 34L28 34L28 33L29 33L29 31L31 31L31 30L30 30L30 29L27 29L27 28L31 28L31 29L32 29L32 28L31 28L31 27L33 27L33 28L34 28L34 29L33 29L33 30L32 30L32 32L34 32L34 31L33 31L33 30L34 30L34 29L35 29L35 30L36 30L36 28L35 28L35 27L36 27L36 26L35 26L35 27L33 27L33 26L31 26L31 27L29 27L29 25L30 25L30 24L29 24L29 25L27 25L27 24L28 24L28 23L27 23L27 22L29 22L29 23L30 23L30 22L31 22L31 21L30 21L30 22L29 22L29 21L27 21L27 20L25 20L25 19L26 19L26 18L27 18L27 19L28 19L28 20L29 20L29 19L31 19L31 18L32 18L32 20L35 20L35 21L34 21L34 22L33 22L33 21L32 21L32 22L33 22L33 23L31 23L31 24L32 24L32 25L34 25L34 24L36 24L36 23L35 23L35 22L36 22L36 21L38 21L38 20L37 20L37 19L35 19L35 16L36 16L36 15L35 15L35 14L36 14L36 13L34 13L34 14L33 14L33 15L32 15L32 16L31 16L31 18L29 18L29 16L28 16L28 14L29 14L29 12L28 12L28 11L29 11L29 10L30 10L30 9L27 9L27 8ZM19 10L19 11L20 11L20 10ZM40 10L40 12L39 12L39 11L38 11L38 14L37 14L37 16L38 16L38 14L39 14L39 15L40 15L40 14L39 14L39 13L40 13L40 12L41 12L41 10ZM66 10L66 11L67 11L67 10ZM8 12L8 13L9 13L9 12ZM44 12L44 13L45 13L45 12ZM13 13L13 14L14 14L14 13ZM26 13L26 14L27 14L27 13ZM54 14L54 15L52 15L52 16L51 16L51 17L53 17L53 18L52 18L52 19L49 19L49 20L51 20L51 21L50 21L50 23L48 23L48 24L47 24L47 25L46 25L46 24L45 24L45 23L44 23L44 22L41 22L41 21L42 21L42 20L40 20L40 19L39 19L39 21L40 21L40 22L41 22L41 23L43 23L43 24L44 24L44 25L43 25L43 26L46 26L46 27L43 27L43 28L44 28L44 29L45 29L45 30L42 30L42 27L39 27L39 26L41 26L41 25L42 25L42 24L37 24L37 25L38 25L38 27L37 27L37 28L38 28L38 27L39 27L39 28L40 28L40 29L38 29L38 30L37 30L37 31L38 31L38 30L40 30L40 31L43 31L43 32L38 32L38 33L37 33L37 34L39 34L39 35L40 35L40 33L43 33L43 34L41 34L41 35L42 35L42 36L44 36L44 37L45 37L45 38L47 38L47 37L45 37L45 36L47 36L47 33L45 33L45 32L44 32L44 31L46 31L46 32L48 32L48 31L47 31L47 29L45 29L45 28L49 28L49 27L50 27L50 28L51 28L51 29L55 29L55 28L56 28L56 26L55 26L55 28L52 28L52 27L51 27L51 25L52 25L52 26L53 26L53 20L55 20L55 18L56 18L56 17L55 17L55 16L54 16L54 15L55 15L55 14ZM57 14L57 15L58 15L58 17L59 17L59 18L60 18L60 19L59 19L59 20L61 20L61 21L59 21L59 22L58 22L58 21L57 21L57 22L58 22L58 23L60 23L60 25L59 25L59 27L60 27L60 26L61 26L61 28L62 28L62 27L63 27L63 28L64 28L64 27L63 27L63 26L62 26L62 25L61 25L61 23L62 23L62 21L63 21L63 22L64 22L64 21L63 21L63 20L64 20L64 19L63 19L63 18L62 18L62 16L61 16L61 17L59 17L59 15L58 15L58 14ZM33 15L33 16L32 16L32 18L33 18L33 19L34 19L34 18L33 18L33 16L34 16L34 15ZM48 15L48 16L47 16L47 17L49 17L49 15ZM27 17L27 18L28 18L28 17ZM36 17L36 18L37 18L37 17ZM54 17L54 18L53 18L53 19L52 19L52 20L53 20L53 19L54 19L54 18L55 18L55 17ZM3 18L3 19L5 19L5 18ZM6 18L6 19L7 19L7 18ZM44 18L44 19L45 19L45 18ZM61 18L61 19L62 19L62 18ZM19 20L19 21L20 21L20 20ZM48 21L48 22L49 22L49 21ZM6 22L6 23L7 23L7 24L6 24L6 25L7 25L7 24L8 24L8 23L9 23L9 24L10 24L10 22L8 22L8 23L7 23L7 22ZM37 22L37 23L39 23L39 22ZM54 22L54 23L55 23L55 22ZM60 22L60 23L61 23L61 22ZM33 23L33 24L34 24L34 23ZM48 24L48 25L47 25L47 26L48 26L48 27L49 27L49 26L50 26L50 24ZM21 25L21 26L22 26L22 25ZM26 25L26 27L27 27L27 25ZM48 25L48 26L49 26L49 25ZM64 25L64 26L65 26L65 25ZM6 26L6 27L7 27L7 28L6 28L6 29L7 29L7 28L8 28L8 27L7 27L7 26ZM21 27L21 29L22 29L22 27ZM0 28L0 29L1 29L1 28ZM48 29L48 30L49 30L49 29ZM63 29L63 30L65 30L65 29ZM4 30L4 31L3 31L3 32L4 32L4 31L7 31L7 30ZM17 30L17 31L18 31L18 30ZM25 30L25 31L26 31L26 32L25 32L25 33L23 33L23 34L22 34L22 33L21 33L21 35L23 35L23 37L24 37L24 39L23 39L23 40L24 40L24 41L23 41L23 42L24 42L24 41L25 41L25 43L26 43L26 44L27 44L27 42L26 42L26 40L27 40L27 41L28 41L28 40L29 40L29 41L30 41L30 42L29 42L29 43L31 43L31 41L30 41L30 40L29 40L29 39L30 39L30 38L26 38L26 35L25 35L25 33L28 33L28 32L27 32L27 31L28 31L28 30ZM21 31L21 32L22 32L22 31ZM17 32L17 33L18 33L18 32ZM43 32L43 33L44 33L44 36L45 36L45 33L44 33L44 32ZM5 33L5 36L8 36L8 33ZM30 33L30 34L31 34L31 35L30 35L30 36L31 36L31 35L32 35L32 33ZM33 33L33 36L36 36L36 33ZM51 33L51 34L52 34L52 33ZM61 33L61 36L64 36L64 33ZM6 34L6 35L7 35L7 34ZM23 34L23 35L24 35L24 34ZM34 34L34 35L35 35L35 34ZM62 34L62 35L63 35L63 34ZM51 35L51 36L52 36L52 35ZM0 36L0 37L1 37L1 36ZM3 36L3 39L4 39L4 40L7 40L7 41L6 41L6 42L7 42L7 43L6 43L6 44L3 44L3 45L4 45L4 48L7 48L7 47L6 47L6 46L7 46L7 45L6 45L6 44L7 44L7 43L8 43L8 39L9 39L9 38L10 38L10 37L11 37L11 36L9 36L9 38L8 38L8 37L6 37L6 38L5 38L5 39L4 39L4 36ZM24 36L24 37L25 37L25 36ZM27 36L27 37L28 37L28 36ZM39 37L39 38L40 38L40 37ZM6 38L6 39L7 39L7 38ZM25 38L25 40L26 40L26 38ZM48 38L48 39L47 39L47 40L49 40L49 38ZM55 38L55 40L54 40L54 41L55 41L55 40L56 40L56 39L57 39L57 40L59 40L59 39L57 39L57 38ZM14 39L14 40L15 40L15 39ZM11 40L11 41L12 41L12 43L11 43L11 44L12 44L12 45L13 45L13 43L14 43L14 44L15 44L15 45L14 45L14 46L15 46L15 45L16 45L16 43L14 43L14 42L13 42L13 41L12 41L12 40ZM4 41L4 43L5 43L5 41ZM32 41L32 42L33 42L33 44L34 44L34 42L33 42L33 41ZM43 42L43 43L44 43L44 42ZM66 42L66 43L67 43L67 44L68 44L68 43L67 43L67 42ZM23 43L23 44L24 44L24 43ZM37 43L37 44L38 44L38 43ZM40 43L40 44L39 44L39 45L38 45L38 46L39 46L39 47L40 47L40 48L39 48L39 49L38 49L38 51L39 51L39 50L41 50L41 49L42 49L42 48L43 48L43 46L42 46L42 45L41 45L41 46L42 46L42 48L41 48L41 47L40 47L40 46L39 46L39 45L40 45L40 44L41 44L41 43ZM59 43L59 44L60 44L60 43ZM20 44L20 45L21 45L21 44ZM56 44L56 45L55 45L55 46L56 46L56 45L57 45L57 44ZM60 45L60 47L59 47L59 48L60 48L60 49L61 49L61 48L60 48L60 47L62 47L62 46L63 46L63 45ZM19 47L19 48L20 48L20 47ZM28 47L28 48L29 48L29 49L30 49L30 50L33 50L33 51L34 51L34 49L31 49L31 48L29 48L29 47ZM53 48L53 53L54 53L54 54L55 54L55 53L56 53L56 56L57 56L57 57L58 57L58 56L60 56L60 55L58 55L58 54L57 54L57 53L56 53L56 52L55 52L55 51L56 51L56 48ZM27 49L27 50L28 50L28 49ZM43 49L43 50L44 50L44 49ZM65 49L65 50L66 50L66 51L65 51L65 52L68 52L68 50L69 50L69 49L67 49L67 50L66 50L66 49ZM6 50L6 51L7 51L7 52L8 52L8 54L9 54L9 51L7 51L7 50ZM19 50L19 51L20 51L20 50ZM43 51L43 52L44 52L44 51ZM47 51L47 52L48 52L48 51ZM51 51L51 52L52 52L52 51ZM57 51L57 52L58 52L58 51ZM21 53L21 54L22 54L22 53ZM6 54L6 55L7 55L7 54ZM66 54L66 55L67 55L67 54ZM38 56L38 57L39 57L39 56ZM0 57L0 61L1 61L1 57ZM17 58L17 59L19 59L19 58ZM31 58L31 59L32 59L32 60L33 60L33 59L32 59L32 58ZM63 58L63 59L64 59L64 58ZM9 59L9 60L10 60L10 61L11 61L11 60L10 60L10 59ZM26 59L26 61L25 61L25 60L24 60L24 61L25 61L25 62L28 62L28 63L27 63L27 64L28 64L28 65L29 65L29 64L31 64L31 63L32 63L32 61L27 61L27 60L30 60L30 59ZM51 59L51 60L52 60L52 59ZM60 59L60 60L59 60L59 61L60 61L60 60L61 60L61 59ZM3 60L3 61L5 61L5 60ZM42 60L42 61L43 61L43 60ZM65 60L65 61L66 61L66 60ZM17 61L17 62L15 62L15 64L16 64L16 63L17 63L17 62L18 62L18 61ZM21 61L21 62L22 62L22 61ZM33 61L33 64L36 64L36 61ZM46 61L46 62L47 62L47 61ZM61 61L61 64L64 64L64 61ZM29 62L29 63L31 63L31 62ZM34 62L34 63L35 63L35 62ZM62 62L62 63L63 63L63 62ZM65 62L65 63L66 63L66 62ZM25 63L25 64L26 64L26 63ZM58 63L58 64L59 64L59 63ZM44 64L44 66L45 66L45 67L46 67L46 66L45 66L45 64ZM21 65L21 66L22 66L22 65ZM30 65L30 66L32 66L32 65ZM48 65L48 66L49 66L49 65ZM63 67L63 68L61 68L61 69L63 69L63 68L64 68L64 67ZM17 68L17 69L21 69L21 68ZM57 68L57 69L59 69L59 68ZM0 0L0 7L7 7L7 0ZM1 1L1 6L6 6L6 1ZM2 2L2 5L5 5L5 2ZM62 0L62 7L69 7L69 0ZM63 1L63 6L68 6L68 1ZM64 2L64 5L67 5L67 2ZM0 62L0 69L7 69L7 62ZM1 63L1 68L6 68L6 63ZM2 64L2 67L5 67L5 64Z" fill="#000000"/></g></g></svg>
