<?xml version="1.0" encoding="UTF-8"?>
<svg xmlns="http://www.w3.org/2000/svg" version="1.1" width="300" height="300" viewBox="0 0 300 300"><rect x="0" y="0" width="300" height="300" fill="#ffffff"/><g transform="scale(4.348)"><g transform="translate(0,0)"><path fill-rule="evenodd" d="M12 0L12 1L13 1L13 2L14 2L14 4L13 4L13 3L12 3L12 2L11 2L11 4L12 4L12 5L10 5L10 7L9 7L9 5L8 5L8 7L9 7L9 8L6 8L6 9L5 9L5 8L0 8L0 9L1 9L1 10L0 10L0 12L1 12L1 10L2 10L2 12L5 12L5 13L4 13L4 14L1 14L1 13L0 13L0 14L1 14L1 15L2 15L2 16L0 16L0 21L1 21L1 17L2 17L2 16L3 16L3 15L4 15L4 16L5 16L5 15L7 15L7 16L6 16L6 17L4 17L4 18L3 18L3 19L2 19L2 21L3 21L3 22L2 22L2 23L0 23L0 24L2 24L2 23L3 23L3 25L5 25L5 26L6 26L6 27L7 27L7 26L6 26L6 25L7 25L7 24L6 24L6 23L8 23L8 24L9 24L9 25L11 25L11 24L10 24L10 22L9 22L9 21L8 21L8 20L10 20L10 19L9 19L9 16L8 16L8 13L7 13L7 12L8 12L8 11L9 11L9 12L10 12L10 14L9 14L9 15L10 15L10 14L11 14L11 19L12 19L12 18L13 18L13 19L14 19L14 17L13 17L13 16L12 16L12 14L15 14L15 15L14 15L14 16L15 16L15 15L18 15L18 14L20 14L20 13L21 13L21 14L24 14L24 15L19 15L19 16L24 16L24 17L23 17L23 18L21 18L21 17L18 17L18 16L17 16L17 17L15 17L15 19L16 19L16 20L15 20L15 21L13 21L13 22L12 22L12 20L11 20L11 23L12 23L12 24L14 24L14 25L13 25L13 26L12 26L12 27L13 27L13 28L14 28L14 29L11 29L11 26L8 26L8 27L10 27L10 28L8 28L8 30L14 30L14 31L13 31L13 32L12 32L12 33L11 33L11 32L10 32L10 31L9 31L9 32L6 32L6 31L7 31L7 30L5 30L5 31L4 31L4 30L3 30L3 29L2 29L2 28L3 28L3 27L1 27L1 26L2 26L2 25L1 25L1 26L0 26L0 27L1 27L1 29L0 29L0 30L1 30L1 33L0 33L0 34L4 34L4 35L3 35L3 36L2 36L2 37L1 37L1 35L0 35L0 38L2 38L2 40L1 40L1 39L0 39L0 40L1 40L1 41L0 41L0 42L3 42L3 41L2 41L2 40L6 40L6 41L8 41L8 40L9 40L9 41L10 41L10 42L12 42L12 43L14 43L14 46L13 46L13 44L12 44L12 46L11 46L11 48L9 48L9 47L10 47L10 44L9 44L9 42L8 42L8 44L6 44L6 43L7 43L7 42L5 42L5 44L3 44L3 43L0 43L0 44L1 44L1 47L0 47L0 49L1 49L1 50L0 50L0 53L1 53L1 54L0 54L0 55L3 55L3 56L1 56L1 57L0 57L0 61L1 61L1 57L2 57L2 59L3 59L3 56L5 56L5 57L7 57L7 58L4 58L4 59L7 59L7 60L6 60L6 61L8 61L8 63L9 63L9 64L8 64L8 69L11 69L11 68L9 68L9 67L12 67L12 68L13 68L13 69L22 69L22 68L19 68L19 67L20 67L20 66L19 66L19 65L20 65L20 64L23 64L23 67L24 67L24 68L23 68L23 69L26 69L26 68L27 68L27 69L32 69L32 68L29 68L29 65L30 65L30 66L31 66L31 67L34 67L34 66L33 66L33 65L35 65L35 68L36 68L36 69L38 69L38 68L37 68L37 66L38 66L38 67L39 67L39 66L38 66L38 65L37 65L37 64L41 64L41 66L40 66L40 67L41 67L41 69L44 69L44 68L48 68L48 69L49 69L49 68L48 68L48 67L47 67L47 66L46 66L46 64L45 64L45 63L44 63L44 62L43 62L43 61L44 61L44 60L45 60L45 61L47 61L47 62L50 62L50 61L51 61L51 63L50 63L50 65L49 65L49 64L47 64L47 65L48 65L48 66L50 66L50 65L51 65L51 67L50 67L50 69L51 69L51 67L52 67L52 66L53 66L53 69L56 69L56 67L54 67L54 66L57 66L57 67L59 67L59 68L60 68L60 67L61 67L61 68L62 68L62 69L65 69L65 68L66 68L66 69L68 69L68 68L67 68L67 67L65 67L65 68L64 68L64 67L63 67L63 66L62 66L62 67L61 67L61 65L64 65L64 66L65 66L65 64L67 64L67 65L66 65L66 66L67 66L67 65L69 65L69 63L68 63L68 62L67 62L67 59L68 59L68 60L69 60L69 59L68 59L68 58L69 58L69 57L68 57L68 54L69 54L69 53L66 53L66 52L68 52L68 50L69 50L69 49L68 49L68 45L67 45L67 44L68 44L68 42L69 42L69 40L68 40L68 38L67 38L67 37L68 37L68 36L69 36L69 35L68 35L68 34L69 34L69 31L68 31L68 34L66 34L66 32L67 32L67 31L64 31L64 32L63 32L63 31L62 31L62 32L60 32L60 34L59 34L59 35L60 35L60 38L59 38L59 39L60 39L60 38L61 38L61 41L60 41L60 42L58 42L58 43L57 43L57 42L56 42L56 39L57 39L57 37L56 37L56 35L57 35L57 36L58 36L58 37L59 37L59 36L58 36L58 34L56 34L56 35L55 35L55 37L52 37L52 38L55 38L55 39L53 39L53 41L54 41L54 42L52 42L52 41L51 41L51 42L50 42L50 41L49 41L49 40L50 40L50 37L51 37L51 36L52 36L52 34L53 34L53 35L54 35L54 34L55 34L55 33L56 33L56 32L57 32L57 30L58 30L58 31L59 31L59 30L62 30L62 28L64 28L64 27L65 27L65 28L67 28L67 27L68 27L68 29L67 29L67 30L69 30L69 27L68 27L68 26L67 26L67 27L65 27L65 26L66 26L66 25L65 25L65 26L63 26L63 27L61 27L61 26L62 26L62 25L63 25L63 24L67 24L67 25L69 25L69 24L68 24L68 22L69 22L69 21L68 21L68 18L69 18L69 17L68 17L68 16L67 16L67 15L68 15L68 13L69 13L69 12L68 12L68 10L69 10L69 9L68 9L68 8L67 8L67 10L66 10L66 8L65 8L65 9L64 9L64 8L63 8L63 11L62 11L62 13L60 13L60 12L59 12L59 13L60 13L60 14L59 14L59 15L58 15L58 14L57 14L57 15L58 15L58 17L59 17L59 19L57 19L57 17L56 17L56 15L54 15L54 16L53 16L53 18L51 18L51 19L52 19L52 20L50 20L50 16L52 16L52 15L53 15L53 14L56 14L56 13L55 13L55 12L57 12L57 13L58 13L58 11L59 11L59 10L60 10L60 11L61 11L61 10L62 10L62 8L61 8L61 6L60 6L60 9L59 9L59 10L58 10L58 9L57 9L57 10L56 10L56 9L55 9L55 8L57 8L57 6L56 6L56 3L59 3L59 2L58 2L58 1L61 1L61 0L57 0L57 1L56 1L56 0L54 0L54 1L53 1L53 0L51 0L51 3L50 3L50 2L49 2L49 3L48 3L48 2L47 2L47 3L48 3L48 5L47 5L47 6L46 6L46 5L44 5L44 3L45 3L45 4L46 4L46 3L45 3L45 2L46 2L46 1L45 1L45 0L44 0L44 1L45 1L45 2L44 2L44 3L43 3L43 0L41 0L41 1L38 1L38 0L35 0L35 3L36 3L36 4L33 4L33 3L32 3L32 2L33 2L33 1L32 1L32 0L31 0L31 1L32 1L32 2L31 2L31 3L29 3L29 0L28 0L28 1L25 1L25 0L23 0L23 1L22 1L22 2L21 2L21 3L20 3L20 4L19 4L19 3L17 3L17 2L16 2L16 1L13 1L13 0ZM17 0L17 1L19 1L19 2L20 2L20 1L19 1L19 0ZM47 0L47 1L48 1L48 0ZM49 0L49 1L50 1L50 0ZM8 1L8 2L9 2L9 1ZM23 1L23 2L22 2L22 3L21 3L21 4L20 4L20 5L17 5L17 3L15 3L15 4L16 4L16 5L12 5L12 6L11 6L11 7L10 7L10 8L11 8L11 10L13 10L13 11L12 11L12 12L11 12L11 11L10 11L10 10L9 10L9 9L6 9L6 10L5 10L5 9L4 9L4 10L5 10L5 11L6 11L6 12L7 12L7 11L8 11L8 10L9 10L9 11L10 11L10 12L11 12L11 13L15 13L15 14L16 14L16 12L17 12L17 11L19 11L19 10L17 10L17 9L16 9L16 10L15 10L15 9L14 9L14 6L15 6L15 8L20 8L20 11L21 11L21 10L23 10L23 11L22 11L22 12L21 12L21 13L27 13L27 14L25 14L25 15L26 15L26 16L25 16L25 17L26 17L26 18L25 18L25 19L24 19L24 18L23 18L23 20L22 20L22 19L21 19L21 20L20 20L20 22L21 22L21 23L20 23L20 24L19 24L19 25L20 25L20 26L18 26L18 28L19 28L19 29L20 29L20 31L19 31L19 32L20 32L20 33L19 33L19 34L20 34L20 35L19 35L19 36L20 36L20 39L21 39L21 40L22 40L22 41L20 41L20 40L19 40L19 39L18 39L18 37L17 37L17 36L18 36L18 35L16 35L16 37L15 37L15 35L14 35L14 34L17 34L17 33L18 33L18 32L17 32L17 31L18 31L18 30L17 30L17 28L16 28L16 27L15 27L15 26L16 26L16 25L17 25L17 24L18 24L18 23L16 23L16 25L15 25L15 26L14 26L14 27L15 27L15 30L16 30L16 31L15 31L15 32L13 32L13 33L12 33L12 35L11 35L11 33L10 33L10 34L9 34L9 35L10 35L10 37L9 37L9 38L8 38L8 37L6 37L6 38L5 38L5 37L4 37L4 38L5 38L5 39L6 39L6 40L7 40L7 39L6 39L6 38L8 38L8 39L10 39L10 41L12 41L12 40L13 40L13 39L15 39L15 38L16 38L16 40L14 40L14 41L13 41L13 42L15 42L15 43L16 43L16 44L15 44L15 48L16 48L16 49L14 49L14 47L13 47L13 46L12 46L12 47L13 47L13 48L12 48L12 49L10 49L10 51L12 51L12 49L14 49L14 50L13 50L13 53L12 53L12 52L11 52L11 53L8 53L8 52L9 52L9 51L8 51L8 50L9 50L9 49L8 49L8 47L9 47L9 46L8 46L8 45L9 45L9 44L8 44L8 45L6 45L6 44L5 44L5 45L6 45L6 46L8 46L8 47L6 47L6 48L7 48L7 49L6 49L6 50L4 50L4 49L5 49L5 48L3 48L3 47L2 47L2 48L1 48L1 49L2 49L2 48L3 48L3 50L2 50L2 51L1 51L1 52L2 52L2 51L3 51L3 50L4 50L4 51L6 51L6 52L7 52L7 53L4 53L4 52L3 52L3 53L2 53L2 54L3 54L3 55L6 55L6 56L7 56L7 55L6 55L6 54L7 54L7 53L8 53L8 54L11 54L11 55L14 55L14 56L15 56L15 55L14 55L14 54L13 54L13 53L15 53L15 54L16 54L16 55L17 55L17 56L16 56L16 57L14 57L14 58L16 58L16 57L17 57L17 58L18 58L18 57L17 57L17 56L18 56L18 55L17 55L17 53L18 53L18 54L19 54L19 53L20 53L20 55L19 55L19 57L20 57L20 58L21 58L21 59L19 59L19 61L18 61L18 60L16 60L16 59L14 59L14 61L15 61L15 62L17 62L17 63L16 63L16 65L15 65L15 63L14 63L14 64L13 64L13 67L14 67L14 65L15 65L15 68L16 68L16 67L18 67L18 66L17 66L17 65L18 65L18 64L17 64L17 63L18 63L18 62L19 62L19 64L20 64L20 62L22 62L22 63L24 63L24 64L26 64L26 63L25 63L25 62L29 62L29 60L26 60L26 59L27 59L27 58L29 58L29 57L30 57L30 56L29 56L29 55L30 55L30 54L31 54L31 56L33 56L33 57L32 57L32 58L31 58L31 62L30 62L30 63L27 63L27 64L28 64L28 65L25 65L25 68L26 68L26 67L27 67L27 68L28 68L28 67L27 67L27 66L28 66L28 65L29 65L29 64L30 64L30 63L32 63L32 60L33 60L33 59L32 59L32 58L35 58L35 55L33 55L33 54L35 54L35 53L36 53L36 54L37 54L37 55L39 55L39 54L37 54L37 53L38 53L38 52L37 52L37 53L36 53L36 52L35 52L35 51L36 51L36 50L37 50L37 51L38 51L38 50L41 50L41 52L39 52L39 53L43 53L43 56L42 56L42 57L43 57L43 60L42 60L42 58L41 58L41 59L40 59L40 62L39 62L39 61L38 61L38 62L37 62L37 63L38 63L38 62L39 62L39 63L41 63L41 64L44 64L44 66L41 66L41 67L43 67L43 68L44 68L44 66L45 66L45 67L46 67L46 66L45 66L45 64L44 64L44 63L42 63L42 62L41 62L41 60L42 60L42 61L43 61L43 60L44 60L44 59L45 59L45 58L46 58L46 60L51 60L51 61L55 61L55 63L56 63L56 65L57 65L57 66L60 66L60 65L59 65L59 63L60 63L60 60L65 60L65 61L66 61L66 60L65 60L65 59L67 59L67 58L68 58L68 57L67 57L67 56L64 56L64 57L63 57L63 56L62 56L62 55L66 55L66 53L65 53L65 52L64 52L64 50L65 50L65 51L67 51L67 50L66 50L66 49L67 49L67 48L65 48L65 47L66 47L66 44L65 44L65 42L67 42L67 41L68 41L68 40L66 40L66 39L67 39L67 38L66 38L66 37L64 37L64 38L62 38L62 39L65 39L65 40L66 40L66 41L64 41L64 40L62 40L62 41L61 41L61 42L62 42L62 43L60 43L60 44L59 44L59 43L58 43L58 44L59 44L59 45L57 45L57 44L56 44L56 43L55 43L55 42L54 42L54 44L56 44L56 46L57 46L57 48L56 48L56 49L57 49L57 50L56 50L56 51L55 51L55 52L54 52L54 51L53 51L53 50L52 50L52 49L55 49L55 47L52 47L52 46L53 46L53 44L50 44L50 42L49 42L49 43L48 43L48 42L47 42L47 40L48 40L48 39L47 39L47 40L45 40L45 39L42 39L42 38L41 38L41 36L42 36L42 37L43 37L43 36L44 36L44 37L45 37L45 38L48 38L48 36L49 36L49 35L48 35L48 34L47 34L47 33L45 33L45 32L46 32L46 31L47 31L47 32L49 32L49 31L47 31L47 29L46 29L46 27L47 27L47 28L49 28L49 29L48 29L48 30L49 30L49 29L50 29L50 32L52 32L52 33L50 33L50 35L51 35L51 34L52 34L52 33L55 33L55 32L56 32L56 29L57 29L57 28L58 28L58 27L56 27L56 26L59 26L59 22L60 22L60 21L62 21L62 22L61 22L61 24L60 24L60 25L62 25L62 24L63 24L63 23L67 23L67 22L68 22L68 21L67 21L67 20L65 20L65 19L67 19L67 18L66 18L66 16L65 16L65 15L64 15L64 14L63 14L63 13L65 13L65 14L67 14L67 13L66 13L66 12L63 12L63 13L62 13L62 14L61 14L61 16L62 16L62 18L60 18L60 19L62 19L62 18L63 18L63 21L62 21L62 20L60 20L60 21L57 21L57 19L56 19L56 21L55 21L55 19L54 19L54 20L52 20L52 21L50 21L50 22L49 22L49 21L48 21L48 22L47 22L47 21L46 21L46 20L49 20L49 19L48 19L48 18L49 18L49 17L45 17L45 16L46 16L46 15L47 15L47 16L49 16L49 14L47 14L47 12L49 12L49 13L50 13L50 15L51 15L51 13L52 13L52 14L53 14L53 13L54 13L54 12L55 12L55 11L56 11L56 10L55 10L55 11L54 11L54 10L53 10L53 9L54 9L54 5L53 5L53 4L54 4L54 3L53 3L53 1L52 1L52 3L51 3L51 4L50 4L50 3L49 3L49 4L50 4L50 5L51 5L51 4L52 4L52 6L51 6L51 7L52 7L52 8L50 8L50 6L49 6L49 9L50 9L50 10L51 10L51 11L52 11L52 12L51 12L51 13L50 13L50 12L49 12L49 10L47 10L47 7L48 7L48 6L47 6L47 7L46 7L46 6L45 6L45 7L44 7L44 5L43 5L43 7L42 7L42 5L41 5L41 4L42 4L42 3L41 3L41 2L42 2L42 1L41 1L41 2L40 2L40 3L39 3L39 2L36 2L36 3L38 3L38 4L37 4L37 5L38 5L38 6L37 6L37 9L38 9L38 10L36 10L36 9L35 9L35 10L36 10L36 11L34 11L34 10L33 10L33 9L31 9L31 8L32 8L32 5L30 5L30 6L29 6L29 3L28 3L28 2L25 2L25 1ZM54 1L54 2L55 2L55 3L56 3L56 1ZM8 3L8 4L10 4L10 3ZM23 3L23 4L21 4L21 5L20 5L20 7L21 7L21 6L22 6L22 7L23 7L23 8L24 8L24 9L23 9L23 10L24 10L24 9L26 9L26 10L25 10L25 12L26 12L26 11L27 11L27 13L28 13L28 12L29 12L29 13L32 13L32 12L31 12L31 11L32 11L32 10L31 10L31 9L30 9L30 8L29 8L29 9L30 9L30 10L29 10L29 11L28 11L28 10L27 10L27 9L28 9L28 8L27 8L27 9L26 9L26 8L25 8L25 5L26 5L26 7L27 7L27 6L28 6L28 7L29 7L29 6L28 6L28 5L27 5L27 4L28 4L28 3L27 3L27 4L25 4L25 3ZM31 3L31 4L32 4L32 3ZM60 3L60 5L61 5L61 3ZM39 4L39 5L40 5L40 4ZM57 4L57 5L58 5L58 7L59 7L59 4ZM16 5L16 7L17 7L17 5ZM22 5L22 6L23 6L23 7L24 7L24 5ZM33 5L33 8L36 8L36 5ZM12 6L12 7L13 7L13 6ZM18 6L18 7L19 7L19 6ZM30 6L30 7L31 7L31 6ZM34 6L34 7L35 7L35 6ZM38 6L38 8L39 8L39 6ZM40 6L40 7L41 7L41 6ZM52 6L52 7L53 7L53 6ZM55 6L55 7L56 7L56 6ZM45 7L45 9L44 9L44 8L43 8L43 9L40 9L40 11L37 11L37 14L35 14L35 15L37 15L37 17L35 17L35 18L33 18L33 17L32 17L32 15L33 15L33 16L34 16L34 15L33 15L33 14L34 14L34 13L36 13L36 12L34 12L34 11L33 11L33 12L34 12L34 13L33 13L33 14L31 14L31 16L29 16L29 20L30 20L30 21L29 21L29 22L30 22L30 23L28 23L28 24L27 24L27 25L26 25L26 23L24 23L24 24L23 24L23 22L25 22L25 21L26 21L26 22L27 22L27 21L28 21L28 19L25 19L25 20L23 20L23 22L22 22L22 23L21 23L21 24L22 24L22 25L21 25L21 26L22 26L22 27L21 27L21 28L22 28L22 27L24 27L24 28L23 28L23 32L24 32L24 31L26 31L26 32L25 32L25 33L23 33L23 34L21 34L21 36L23 36L23 37L24 37L24 38L23 38L23 39L24 39L24 41L23 41L23 42L24 42L24 41L25 41L25 43L26 43L26 44L27 44L27 45L25 45L25 44L24 44L24 43L19 43L19 42L20 42L20 41L19 41L19 40L17 40L17 43L18 43L18 44L17 44L17 45L18 45L18 46L16 46L16 48L17 48L17 49L18 49L18 50L14 50L14 51L18 51L18 53L19 53L19 52L21 52L21 49L18 49L18 48L17 48L17 47L18 47L18 46L19 46L19 45L21 45L21 47L19 47L19 48L23 48L23 47L25 47L25 48L26 48L26 47L25 47L25 46L27 46L27 47L29 47L29 49L31 49L31 50L33 50L33 51L34 51L34 50L33 50L33 49L31 49L31 48L30 48L30 47L31 47L31 46L30 46L30 45L31 45L31 41L30 41L30 40L27 40L27 38L26 38L26 39L25 39L25 37L26 37L26 36L25 36L25 37L24 37L24 35L23 35L23 34L25 34L25 35L26 35L26 34L25 34L25 33L28 33L28 34L27 34L27 35L28 35L28 36L27 36L27 37L28 37L28 36L29 36L29 37L30 37L30 38L28 38L28 39L30 39L30 38L32 38L32 39L33 39L33 40L36 40L36 41L35 41L35 42L36 42L36 43L34 43L34 44L37 44L37 45L35 45L35 46L34 46L34 45L33 45L33 44L32 44L32 45L33 45L33 46L32 46L32 47L33 47L33 48L36 48L36 47L37 47L37 48L38 48L38 47L39 47L39 48L40 48L40 47L41 47L41 48L42 48L42 49L41 49L41 50L42 50L42 51L44 51L44 52L43 52L43 53L44 53L44 56L43 56L43 57L44 57L44 56L46 56L46 57L47 57L47 58L48 58L48 57L49 57L49 59L50 59L50 57L51 57L51 56L53 56L53 57L54 57L54 58L53 58L53 60L55 60L55 61L56 61L56 63L59 63L59 62L57 62L57 61L59 61L59 60L58 60L58 59L57 59L57 57L56 57L56 56L53 56L53 55L54 55L54 54L55 54L55 53L56 53L56 54L57 54L57 53L56 53L56 52L55 52L55 53L54 53L54 52L53 52L53 53L51 53L51 52L50 52L50 49L51 49L51 48L52 48L52 47L51 47L51 46L52 46L52 45L51 45L51 46L49 46L49 45L50 45L50 44L48 44L48 43L47 43L47 42L46 42L46 43L47 43L47 46L49 46L49 47L51 47L51 48L50 48L50 49L49 49L49 48L48 48L48 47L47 47L47 48L48 48L48 49L47 49L47 50L48 50L48 49L49 49L49 52L47 52L47 51L46 51L46 52L45 52L45 49L46 49L46 46L45 46L45 49L44 49L44 46L43 46L43 45L44 45L44 43L45 43L45 42L44 42L44 40L41 40L41 38L40 38L40 39L38 39L38 38L37 38L37 39L35 39L35 38L36 38L36 37L38 37L38 36L37 36L37 34L38 34L38 33L39 33L39 32L43 32L43 33L40 33L40 35L41 35L41 34L43 34L43 33L44 33L44 36L45 36L45 37L47 37L47 36L48 36L48 35L47 35L47 36L45 36L45 33L44 33L44 32L45 32L45 30L44 30L44 32L43 32L43 31L40 31L40 30L36 30L36 29L38 29L38 28L39 28L39 29L40 29L40 28L39 28L39 27L42 27L42 30L43 30L43 29L44 29L44 28L45 28L45 27L46 27L46 26L43 26L43 25L44 25L44 24L43 24L43 23L42 23L42 22L44 22L44 23L45 23L45 24L46 24L46 25L47 25L47 27L49 27L49 28L50 28L50 27L51 27L51 28L52 28L52 27L53 27L53 26L54 26L54 27L55 27L55 29L54 29L54 28L53 28L53 30L54 30L54 31L55 31L55 29L56 29L56 27L55 27L55 25L56 25L56 24L55 24L55 25L52 25L52 26L50 26L50 25L49 25L49 24L48 24L48 23L49 23L49 22L48 22L48 23L47 23L47 24L46 24L46 22L44 22L44 20L43 20L43 21L42 21L42 22L41 22L41 21L40 21L40 20L42 20L42 19L43 19L43 17L44 17L44 16L45 16L45 15L46 15L46 14L45 14L45 15L44 15L44 16L42 16L42 17L41 17L41 18L39 18L39 19L38 19L38 17L39 17L39 16L40 16L40 15L42 15L42 14L43 14L43 13L44 13L44 12L46 12L46 11L43 11L43 13L42 13L42 14L41 14L41 12L42 12L42 10L45 10L45 9L46 9L46 7ZM12 8L12 9L13 9L13 10L14 10L14 11L13 11L13 12L14 12L14 11L15 11L15 12L16 12L16 11L17 11L17 10L16 10L16 11L15 11L15 10L14 10L14 9L13 9L13 8ZM21 8L21 9L22 9L22 8ZM6 10L6 11L7 11L7 10ZM52 10L52 11L53 11L53 12L54 12L54 11L53 11L53 10ZM57 10L57 11L58 11L58 10ZM23 11L23 12L24 12L24 11ZM40 11L40 12L38 12L38 14L37 14L37 15L38 15L38 16L39 16L39 15L40 15L40 14L39 14L39 13L40 13L40 12L41 12L41 11ZM6 13L6 14L7 14L7 13ZM17 13L17 14L18 14L18 13ZM4 14L4 15L5 15L5 14ZM28 14L28 15L29 15L29 14ZM38 14L38 15L39 15L39 14ZM62 14L62 16L64 16L64 15L63 15L63 14ZM54 16L54 17L55 17L55 16ZM6 17L6 18L7 18L7 19L6 19L6 20L8 20L8 17ZM17 17L17 18L16 18L16 19L17 19L17 20L19 20L19 19L20 19L20 18L19 18L19 19L18 19L18 17ZM27 17L27 18L28 18L28 17ZM63 17L63 18L65 18L65 17ZM4 18L4 19L3 19L3 21L5 21L5 18ZM31 18L31 19L32 19L32 20L33 20L33 23L32 23L32 25L31 25L31 26L30 26L30 27L29 27L29 28L31 28L31 29L32 29L32 28L31 28L31 27L33 27L33 28L34 28L34 29L33 29L33 30L31 30L31 31L32 31L32 32L34 32L34 31L33 31L33 30L34 30L34 29L36 29L36 28L35 28L35 27L36 27L36 26L35 26L35 25L36 25L36 24L37 24L37 25L38 25L38 26L37 26L37 27L38 27L38 26L41 26L41 25L42 25L42 24L41 24L41 22L37 22L37 21L38 21L38 20L37 20L37 21L35 21L35 20L36 20L36 19L33 19L33 18ZM44 18L44 19L47 19L47 18ZM39 19L39 20L40 20L40 19ZM26 20L26 21L27 21L27 20ZM6 21L6 22L7 22L7 21ZM15 21L15 22L13 22L13 23L14 23L14 24L15 24L15 22L16 22L16 21ZM18 21L18 22L19 22L19 21ZM30 21L30 22L32 22L32 21ZM53 21L53 22L52 22L52 23L51 23L51 24L52 24L52 23L53 23L53 24L54 24L54 22L55 22L55 23L56 23L56 22L57 22L57 21L56 21L56 22L55 22L55 21ZM65 21L65 22L67 22L67 21ZM3 22L3 23L4 23L4 24L5 24L5 23L4 23L4 22ZM34 22L34 23L35 23L35 24L36 24L36 23L37 23L37 22ZM62 22L62 23L63 23L63 22ZM39 23L39 24L38 24L38 25L39 25L39 24L40 24L40 23ZM57 23L57 24L58 24L58 23ZM29 24L29 25L27 25L27 26L26 26L26 25L25 25L25 28L26 28L26 29L25 29L25 30L30 30L30 29L28 29L28 27L27 27L27 26L29 26L29 25L30 25L30 24ZM33 24L33 25L32 25L32 26L34 26L34 27L35 27L35 26L34 26L34 24ZM47 24L47 25L48 25L48 24ZM22 25L22 26L24 26L24 25ZM19 27L19 28L20 28L20 27ZM60 27L60 28L61 28L61 27ZM5 28L5 29L7 29L7 28ZM1 29L1 30L2 30L2 33L4 33L4 31L3 31L3 30L2 30L2 29ZM21 29L21 30L22 30L22 29ZM58 29L58 30L59 30L59 29ZM63 29L63 30L65 30L65 29ZM51 30L51 31L52 31L52 32L53 32L53 31L52 31L52 30ZM28 31L28 33L29 33L29 32L30 32L30 31ZM35 31L35 32L37 32L37 33L38 33L38 31ZM16 32L16 33L17 33L17 32ZM58 32L58 33L59 33L59 32ZM5 33L5 36L8 36L8 33ZM31 33L31 34L32 34L32 33ZM33 33L33 36L36 36L36 33ZM61 33L61 36L64 36L64 33ZM6 34L6 35L7 35L7 34ZM29 34L29 36L30 36L30 34ZM34 34L34 35L35 35L35 34ZM62 34L62 35L63 35L63 34ZM65 34L65 35L66 35L66 34ZM12 35L12 37L10 37L10 38L11 38L11 39L13 39L13 37L14 37L14 36L13 36L13 35ZM42 35L42 36L43 36L43 35ZM67 35L67 36L68 36L68 35ZM31 36L31 37L32 37L32 36ZM21 37L21 39L22 39L22 37ZM34 37L34 38L35 38L35 37ZM65 38L65 39L66 39L66 38ZM37 39L37 40L38 40L38 39ZM51 39L51 40L52 40L52 39ZM26 40L26 42L27 42L27 44L28 44L28 45L27 45L27 46L29 46L29 45L30 45L30 44L29 44L29 42L30 42L30 41L27 41L27 40ZM39 40L39 41L38 41L38 42L37 42L37 44L38 44L38 46L37 46L37 47L38 47L38 46L39 46L39 47L40 47L40 46L39 46L39 45L40 45L40 44L41 44L41 43L40 43L40 41L41 41L41 40ZM54 40L54 41L55 41L55 40ZM57 40L57 41L58 41L58 40ZM15 41L15 42L16 42L16 41ZM18 41L18 42L19 42L19 41ZM32 41L32 43L33 43L33 41ZM63 41L63 42L64 42L64 41ZM43 42L43 43L44 43L44 42ZM38 43L38 44L40 44L40 43ZM63 43L63 44L64 44L64 43ZM21 44L21 45L22 45L22 46L23 46L23 45L24 45L24 44ZM45 44L45 45L46 45L46 44ZM60 44L60 45L59 45L59 48L57 48L57 49L59 49L59 50L57 50L57 52L60 52L60 53L59 53L59 56L58 56L58 55L57 55L57 56L58 56L58 57L59 57L59 56L60 56L60 53L61 53L61 52L60 52L60 51L62 51L62 52L63 52L63 53L64 53L64 52L63 52L63 51L62 51L62 50L63 50L63 49L64 49L64 47L62 47L62 46L63 46L63 45L62 45L62 44ZM41 45L41 46L42 46L42 48L43 48L43 46L42 46L42 45ZM4 46L4 47L5 47L5 46ZM33 46L33 47L34 47L34 46ZM35 46L35 47L36 47L36 46ZM60 46L60 48L59 48L59 49L60 49L60 50L62 50L62 49L63 49L63 48L62 48L62 47L61 47L61 46ZM60 48L60 49L62 49L62 48ZM7 49L7 50L6 50L6 51L7 51L7 52L8 52L8 51L7 51L7 50L8 50L8 49ZM22 49L22 50L23 50L23 51L22 51L22 52L23 52L23 51L25 51L25 50L26 50L26 51L27 51L27 52L28 52L28 53L31 53L31 52L32 52L32 54L33 54L33 53L34 53L34 52L32 52L32 51L30 51L30 50L29 50L29 52L28 52L28 51L27 51L27 50L28 50L28 49L27 49L27 50L26 50L26 49ZM35 49L35 50L36 50L36 49ZM37 49L37 50L38 50L38 49ZM43 49L43 50L44 50L44 49ZM18 50L18 51L20 51L20 50ZM16 52L16 53L17 53L17 52ZM24 52L24 53L23 53L23 54L22 54L22 55L21 55L21 56L20 56L20 57L21 57L21 58L22 58L22 59L21 59L21 60L20 60L20 61L19 61L19 62L20 62L20 61L21 61L21 60L22 60L22 59L24 59L24 60L25 60L25 61L22 61L22 62L25 62L25 61L26 61L26 60L25 60L25 58L27 58L27 57L25 57L25 55L26 55L26 56L28 56L28 55L29 55L29 54L28 54L28 55L26 55L26 54L27 54L27 53L26 53L26 52ZM44 52L44 53L45 53L45 54L46 54L46 56L47 56L47 57L48 57L48 56L51 56L51 53L50 53L50 55L48 55L48 53L45 53L45 52ZM3 53L3 54L4 54L4 53ZM11 53L11 54L12 54L12 53ZM25 53L25 54L23 54L23 55L25 55L25 54L26 54L26 53ZM53 53L53 54L54 54L54 53ZM40 54L40 55L42 55L42 54ZM61 54L61 55L62 55L62 54ZM8 55L8 56L9 56L9 57L8 57L8 58L7 58L7 59L9 59L9 60L11 60L11 62L13 62L13 58L12 58L12 59L11 59L11 57L12 57L12 56L11 56L11 57L10 57L10 55ZM47 55L47 56L48 56L48 55ZM21 56L21 57L22 57L22 58L24 58L24 57L22 57L22 56ZM37 56L37 57L38 57L38 58L37 58L37 60L38 60L38 59L39 59L39 57L41 57L41 56L39 56L39 57L38 57L38 56ZM61 56L61 57L60 57L60 58L59 58L59 59L60 59L60 58L61 58L61 59L62 59L62 58L63 58L63 59L64 59L64 58L63 58L63 57L62 57L62 56ZM9 57L9 58L10 58L10 57ZM65 57L65 58L66 58L66 57ZM51 58L51 60L52 60L52 58ZM54 58L54 59L55 59L55 60L56 60L56 61L57 61L57 59L55 59L55 58ZM3 60L3 61L5 61L5 60ZM15 60L15 61L16 61L16 60ZM9 61L9 63L10 63L10 61ZM17 61L17 62L18 62L18 61ZM33 61L33 64L36 64L36 61ZM61 61L61 64L64 64L64 61ZM34 62L34 63L35 63L35 62ZM52 62L52 63L51 63L51 65L53 65L53 66L54 66L54 65L53 65L53 64L54 64L54 62ZM62 62L62 63L63 63L63 62ZM65 62L65 63L66 63L66 62ZM11 63L11 64L9 64L9 65L10 65L10 66L11 66L11 65L12 65L12 63ZM57 64L57 65L58 65L58 64ZM31 65L31 66L32 66L32 65ZM62 67L62 68L63 68L63 67ZM33 68L33 69L34 69L34 68ZM57 68L57 69L58 69L58 68ZM0 0L0 7L7 7L7 0ZM1 1L1 6L6 6L6 1ZM2 2L2 5L5 5L5 2ZM62 0L62 7L69 7L69 0ZM63 1L63 6L68 6L68 1ZM64 2L64 5L67 5L67 2ZM0 62L0 69L7 69L7 62ZM1 63L1 68L6 68L6 63ZM2 64L2 67L5 67L5 64Z" fill="#000000"/></g></g></svg>
