<?xml version="1.0" encoding="UTF-8"?>
<svg xmlns="http://www.w3.org/2000/svg" version="1.1" width="300" height="300" viewBox="0 0 300 300"><rect x="0" y="0" width="300" height="300" fill="#ffffff"/><g transform="scale(4.348)"><g transform="translate(0,0)"><path fill-rule="evenodd" d="M10 0L10 1L11 1L11 2L9 2L9 1L8 1L8 2L9 2L9 3L8 3L8 4L9 4L9 3L11 3L11 4L10 4L10 9L9 9L9 8L6 8L6 9L5 9L5 8L0 8L0 9L3 9L3 10L4 10L4 11L2 11L2 10L1 10L1 11L2 11L2 12L1 12L1 13L0 13L0 14L1 14L1 13L3 13L3 14L2 14L2 15L0 15L0 16L1 16L1 17L0 17L0 18L2 18L2 19L3 19L3 20L0 20L0 23L1 23L1 22L2 22L2 21L3 21L3 20L4 20L4 18L5 18L5 17L8 17L8 16L6 16L6 15L8 15L8 14L9 14L9 16L10 16L10 17L9 17L9 19L8 19L8 18L6 18L6 19L7 19L7 20L5 20L5 21L7 21L7 22L6 22L6 23L5 23L5 22L3 22L3 23L5 23L5 25L7 25L7 26L6 26L6 27L4 27L4 29L3 29L3 30L2 30L2 31L0 31L0 32L2 32L2 33L4 33L4 36L2 36L2 35L3 35L3 34L0 34L0 35L1 35L1 36L0 36L0 37L1 37L1 38L0 38L0 39L2 39L2 37L5 37L5 38L3 38L3 40L2 40L2 41L3 41L3 40L4 40L4 43L3 43L3 42L1 42L1 40L0 40L0 43L1 43L1 44L3 44L3 45L2 45L2 46L3 46L3 48L2 48L2 47L0 47L0 48L1 48L1 49L0 49L0 50L1 50L1 49L2 49L2 50L4 50L4 51L5 51L5 52L3 52L3 53L1 53L1 51L0 51L0 54L3 54L3 55L2 55L2 57L3 57L3 58L2 58L2 59L3 59L3 58L4 58L4 59L9 59L9 61L8 61L8 63L9 63L9 61L10 61L10 64L12 64L12 65L11 65L11 66L10 66L10 65L9 65L9 64L8 64L8 69L9 69L9 68L10 68L10 69L14 69L14 68L15 68L15 66L12 66L12 65L14 65L14 63L16 63L16 64L15 64L15 65L17 65L17 66L18 66L18 67L17 67L17 68L16 68L16 69L17 69L17 68L18 68L18 69L22 69L22 68L18 68L18 67L20 67L20 66L19 66L19 65L20 65L20 61L19 61L19 59L18 59L18 58L17 58L17 57L19 57L19 58L20 58L20 60L22 60L22 59L21 59L21 58L22 58L22 57L24 57L24 58L23 58L23 59L24 59L24 60L25 60L25 61L23 61L23 62L25 62L25 63L26 63L26 64L24 64L24 63L22 63L22 61L21 61L21 64L24 64L24 65L23 65L23 67L24 67L24 68L25 68L25 69L26 69L26 66L25 66L25 65L28 65L28 66L27 66L27 67L28 67L28 68L27 68L27 69L32 69L32 67L35 67L35 68L36 68L36 69L38 69L38 68L37 68L37 67L36 67L36 66L38 66L38 67L39 67L39 66L38 66L38 65L39 65L39 64L41 64L41 66L40 66L40 67L41 67L41 66L44 66L44 68L42 68L42 69L44 69L44 68L48 68L48 69L49 69L49 68L48 68L48 67L49 67L49 66L50 66L50 67L52 67L52 65L51 65L51 66L50 66L50 65L49 65L49 64L50 64L50 63L48 63L48 64L47 64L47 66L46 66L46 64L45 64L45 62L44 62L44 60L43 60L43 57L44 57L44 56L46 56L46 57L47 57L47 58L48 58L48 59L49 59L49 60L47 60L47 59L46 59L46 58L45 58L45 61L47 61L47 62L50 62L50 61L51 61L51 63L53 63L53 64L55 64L55 65L53 65L53 66L54 66L54 69L56 69L56 68L57 68L57 65L58 65L58 64L57 64L57 65L56 65L56 63L60 63L60 65L59 65L59 66L58 66L58 68L60 68L60 69L61 69L61 68L62 68L62 69L63 69L63 68L64 68L64 67L63 67L63 68L62 68L62 66L61 66L61 65L63 65L63 66L64 66L64 65L65 65L65 68L67 68L67 69L68 69L68 68L67 68L67 67L66 67L66 66L67 66L67 65L65 65L65 64L67 64L67 63L68 63L68 65L69 65L69 63L68 63L68 62L67 62L67 60L68 60L68 61L69 61L69 60L68 60L68 58L69 58L69 57L68 57L68 56L69 56L69 55L66 55L66 54L65 54L65 55L63 55L63 56L62 56L62 54L63 54L63 53L64 53L64 52L63 52L63 51L64 51L64 50L63 50L63 51L61 51L61 50L62 50L62 49L65 49L65 48L67 48L67 49L66 49L66 50L65 50L65 53L66 53L66 52L68 52L68 50L69 50L69 49L68 49L68 48L69 48L69 47L68 47L68 45L67 45L67 44L68 44L68 43L67 43L67 42L69 42L69 41L67 41L67 42L66 42L66 41L65 41L65 40L68 40L68 38L67 38L67 37L68 37L68 36L69 36L69 35L68 35L68 34L69 34L69 33L68 33L68 34L67 34L67 33L66 33L66 32L67 32L67 31L68 31L68 32L69 32L69 31L68 31L68 30L67 30L67 31L65 31L65 29L64 29L64 30L63 30L63 31L62 31L62 32L61 32L61 30L62 30L62 29L63 29L63 28L62 28L62 27L60 27L60 28L61 28L61 29L59 29L59 26L62 26L62 25L60 25L60 24L61 24L61 22L62 22L62 24L63 24L63 26L65 26L65 25L68 25L68 26L67 26L67 27L64 27L64 28L67 28L67 27L68 27L68 28L69 28L69 27L68 27L68 26L69 26L69 23L68 23L68 18L69 18L69 17L67 17L67 16L69 16L69 15L68 15L68 14L65 14L65 16L66 16L66 17L63 17L63 18L62 18L62 16L64 16L64 15L62 15L62 13L63 13L63 14L64 14L64 13L63 13L63 11L64 11L64 12L66 12L66 13L69 13L69 12L67 12L67 11L68 11L68 8L67 8L67 9L66 9L66 8L65 8L65 9L64 9L64 8L63 8L63 9L64 9L64 10L62 10L62 8L61 8L61 6L60 6L60 8L61 8L61 9L59 9L59 4L58 4L58 7L57 7L57 6L56 6L56 7L55 7L55 3L59 3L59 2L56 2L56 1L55 1L55 0L53 0L53 1L52 1L52 0L51 0L51 1L50 1L50 0L49 0L49 1L48 1L48 0L47 0L47 1L46 1L46 2L47 2L47 3L48 3L48 4L47 4L47 6L46 6L46 5L44 5L44 3L45 3L45 4L46 4L46 3L45 3L45 2L44 2L44 3L43 3L43 0L41 0L41 1L35 1L35 4L33 4L33 3L32 3L32 4L31 4L31 2L32 2L32 1L31 1L31 2L30 2L30 0L28 0L28 1L27 1L27 2L28 2L28 3L27 3L27 4L28 4L28 3L29 3L29 4L30 4L30 5L27 5L27 6L26 6L26 5L25 5L25 4L26 4L26 1L25 1L25 0L23 0L23 1L21 1L21 3L20 3L20 4L19 4L19 3L17 3L17 2L18 2L18 1L19 1L19 2L20 2L20 1L19 1L19 0L16 0L16 2L15 2L15 3L13 3L13 6L12 6L12 7L11 7L11 5L12 5L12 3L11 3L11 2L13 2L13 1L15 1L15 0L13 0L13 1L12 1L12 0ZM33 0L33 2L34 2L34 0ZM44 0L44 1L45 1L45 0ZM58 0L58 1L61 1L61 0ZM23 1L23 2L24 2L24 1ZM41 1L41 2L42 2L42 1ZM47 1L47 2L48 2L48 3L50 3L50 4L49 4L49 5L51 5L51 7L52 7L52 6L53 6L53 7L54 7L54 6L53 6L53 3L55 3L55 2L54 2L54 1L53 1L53 2L51 2L51 3L50 3L50 1L49 1L49 2L48 2L48 1ZM37 2L37 3L38 3L38 4L37 4L37 5L38 5L38 6L37 6L37 8L38 8L38 6L39 6L39 7L40 7L40 6L41 6L41 8L39 8L39 9L38 9L38 10L36 10L36 9L34 9L34 10L32 10L32 9L31 9L31 8L32 8L32 5L30 5L30 6L29 6L29 8L28 8L28 9L27 9L27 7L28 7L28 6L27 6L27 7L26 7L26 6L25 6L25 8L26 8L26 9L24 9L24 8L23 8L23 7L24 7L24 5L22 5L22 6L21 6L21 7L20 7L20 5L21 5L21 4L23 4L23 3L21 3L21 4L20 4L20 5L19 5L19 7L20 7L20 10L19 10L19 9L17 9L17 8L16 8L16 5L15 5L15 8L14 8L14 9L13 9L13 7L14 7L14 6L13 6L13 7L12 7L12 9L13 9L13 10L14 10L14 11L12 11L12 10L11 10L11 11L10 11L10 12L11 12L11 13L13 13L13 12L14 12L14 14L12 14L12 15L11 15L11 18L10 18L10 19L11 19L11 20L10 20L10 21L9 21L9 20L8 20L8 21L9 21L9 23L8 23L8 22L7 22L7 23L6 23L6 24L7 24L7 25L8 25L8 27L9 27L9 23L10 23L10 21L11 21L11 20L12 20L12 21L13 21L13 20L14 20L14 21L15 21L15 19L13 19L13 20L12 20L12 19L11 19L11 18L18 18L18 17L22 17L22 18L21 18L21 20L20 20L20 22L19 22L19 21L18 21L18 20L17 20L17 19L16 19L16 20L17 20L17 21L16 21L16 22L14 22L14 23L13 23L13 22L11 22L11 24L10 24L10 28L8 28L8 29L6 29L6 28L7 28L7 27L6 27L6 28L5 28L5 29L6 29L6 30L5 30L5 32L8 32L8 31L10 31L10 32L9 32L9 34L10 34L10 35L11 35L11 34L12 34L12 37L14 37L14 38L9 38L9 37L11 37L11 36L9 36L9 37L8 37L8 38L9 38L9 40L7 40L7 39L6 39L6 38L7 38L7 37L6 37L6 38L5 38L5 41L6 41L6 42L7 42L7 41L8 41L8 44L7 44L7 43L6 43L6 44L7 44L7 45L6 45L6 46L9 46L9 47L8 47L8 48L9 48L9 47L11 47L11 49L10 49L10 50L11 50L11 53L9 53L9 52L10 52L10 51L9 51L9 49L6 49L6 50L5 50L5 48L7 48L7 47L5 47L5 48L3 48L3 49L4 49L4 50L5 50L5 51L6 51L6 52L5 52L5 53L3 53L3 54L4 54L4 56L5 56L5 57L6 57L6 58L7 58L7 57L8 57L8 58L9 58L9 59L10 59L10 60L11 60L11 63L12 63L12 64L13 64L13 63L14 63L14 62L16 62L16 63L18 63L18 62L19 62L19 61L17 61L17 60L18 60L18 59L17 59L17 60L16 60L16 59L15 59L15 60L14 60L14 59L13 59L13 60L12 60L12 59L11 59L11 57L14 57L14 56L12 56L12 55L11 55L11 56L9 56L9 57L8 57L8 56L7 56L7 55L6 55L6 54L8 54L8 53L9 53L9 54L11 54L11 53L13 53L13 55L17 55L17 53L16 53L16 51L15 51L15 50L18 50L18 49L22 49L22 50L23 50L23 51L24 51L24 52L25 52L25 50L24 50L24 49L26 49L26 54L28 54L28 55L30 55L30 54L31 54L31 56L32 56L32 57L35 57L35 58L36 58L36 59L35 59L35 60L36 60L36 59L38 59L38 58L39 58L39 57L41 57L41 56L39 56L39 55L41 55L41 53L43 53L43 54L42 54L42 55L43 55L43 56L42 56L42 57L43 57L43 56L44 56L44 53L45 53L45 54L46 54L46 56L48 56L48 53L45 53L45 52L46 52L46 51L47 51L47 52L48 52L48 51L47 51L47 50L49 50L49 49L50 49L50 51L51 51L51 50L52 50L52 51L53 51L53 52L50 52L50 53L49 53L49 54L54 54L54 55L51 55L51 57L50 57L50 56L49 56L49 57L48 57L48 58L51 58L51 59L50 59L50 60L51 60L51 61L54 61L54 60L55 60L55 58L56 58L56 61L57 61L57 62L59 62L59 61L60 61L60 60L62 60L62 59L63 59L63 60L65 60L65 61L66 61L66 60L65 60L65 59L67 59L67 58L68 58L68 57L67 57L67 56L63 56L63 57L61 57L61 56L59 56L59 55L58 55L58 56L57 56L57 55L56 55L56 54L59 54L59 53L61 53L61 54L60 54L60 55L61 55L61 54L62 54L62 53L61 53L61 51L57 51L57 50L60 50L60 49L62 49L62 47L63 47L63 46L65 46L65 47L64 47L64 48L65 48L65 47L66 47L66 45L65 45L65 44L62 44L62 43L66 43L66 42L65 42L65 41L64 41L64 40L63 40L63 39L67 39L67 38L65 38L65 37L66 37L66 36L65 36L65 37L64 37L64 38L62 38L62 39L60 39L60 38L61 38L61 37L60 37L60 35L59 35L59 31L60 31L60 30L59 30L59 29L57 29L57 27L56 27L56 26L54 26L54 25L55 25L55 24L56 24L56 25L57 25L57 26L59 26L59 25L57 25L57 24L60 24L60 23L59 23L59 22L60 22L60 21L61 21L61 20L60 20L60 19L62 19L62 20L63 20L63 21L62 21L62 22L63 22L63 21L64 21L64 22L65 22L65 23L66 23L66 20L65 20L65 18L63 18L63 19L62 19L62 18L60 18L60 19L58 19L58 21L57 21L57 20L55 20L55 19L57 19L57 18L59 18L59 16L62 16L62 15L61 15L61 14L60 14L60 13L61 13L61 12L60 12L60 10L59 10L59 9L57 9L57 8L56 8L56 10L57 10L57 11L58 11L58 12L56 12L56 17L57 17L57 18L53 18L53 17L54 17L54 16L51 16L51 15L50 15L50 14L52 14L52 13L53 13L53 12L54 12L54 11L55 11L55 10L53 10L53 9L55 9L55 8L50 8L50 11L49 11L49 10L47 10L47 7L48 7L48 6L47 6L47 7L46 7L46 6L45 6L45 7L44 7L44 5L40 5L40 6L39 6L39 4L43 4L43 3L39 3L39 2ZM15 3L15 4L17 4L17 5L18 5L18 4L17 4L17 3ZM60 3L60 5L61 5L61 3ZM51 4L51 5L52 5L52 4ZM8 5L8 7L9 7L9 5ZM33 5L33 8L36 8L36 5ZM17 6L17 7L18 7L18 6ZM22 6L22 7L23 7L23 6ZM30 6L30 7L31 7L31 6ZM34 6L34 7L35 7L35 6ZM42 6L42 7L43 7L43 6ZM49 6L49 7L50 7L50 6ZM45 7L45 9L44 9L44 8L43 8L43 9L40 9L40 10L38 10L38 11L37 11L37 14L35 14L35 15L38 15L38 11L39 11L39 12L40 12L40 13L39 13L39 14L40 14L40 15L39 15L39 16L37 16L37 18L36 18L36 17L34 17L34 18L33 18L33 16L34 16L34 15L33 15L33 14L34 14L34 13L36 13L36 12L34 12L34 11L36 11L36 10L34 10L34 11L33 11L33 12L34 12L34 13L33 13L33 14L32 14L32 15L31 15L31 14L30 14L30 16L29 16L29 14L27 14L27 13L32 13L32 12L31 12L31 11L32 11L32 10L31 10L31 9L30 9L30 8L29 8L29 9L30 9L30 11L29 11L29 10L27 10L27 9L26 9L26 10L25 10L25 12L24 12L24 11L21 11L21 12L20 12L20 11L18 11L18 12L17 12L17 13L16 13L16 12L15 12L15 11L16 11L16 10L15 10L15 11L14 11L14 12L15 12L15 14L14 14L14 15L12 15L12 17L15 17L15 16L16 16L16 17L18 17L18 16L16 16L16 15L18 15L18 14L19 14L19 15L20 15L20 13L21 13L21 16L23 16L23 15L22 15L22 13L21 13L21 12L24 12L24 13L23 13L23 14L27 14L27 16L29 16L29 17L31 17L31 16L32 16L32 18L31 18L31 19L29 19L29 20L28 20L28 19L27 19L27 21L26 21L26 20L25 20L25 19L26 19L26 17L25 17L25 16L26 16L26 15L25 15L25 16L24 16L24 17L23 17L23 18L22 18L22 19L24 19L24 20L25 20L25 21L23 21L23 22L22 22L22 21L21 21L21 22L22 22L22 23L21 23L21 24L22 24L22 25L21 25L21 26L20 26L20 25L19 25L19 24L20 24L20 23L19 23L19 24L18 24L18 23L17 23L17 22L18 22L18 21L17 21L17 22L16 22L16 23L15 23L15 24L14 24L14 25L12 25L12 24L13 24L13 23L12 23L12 24L11 24L11 25L12 25L12 27L13 27L13 28L12 28L12 29L11 29L11 28L10 28L10 29L9 29L9 30L12 30L12 29L18 29L18 31L17 31L17 32L15 32L15 31L16 31L16 30L15 30L15 31L14 31L14 30L13 30L13 31L11 31L11 32L12 32L12 33L13 33L13 34L14 34L14 33L13 33L13 32L15 32L15 33L17 33L17 35L16 35L16 34L15 34L15 36L14 36L14 35L13 35L13 36L14 36L14 37L15 37L15 36L17 36L17 39L16 39L16 38L15 38L15 40L17 40L17 43L18 43L18 44L17 44L17 45L19 45L19 46L20 46L20 47L19 47L19 48L20 48L20 47L21 47L21 48L23 48L23 49L24 49L24 47L25 47L25 48L26 48L26 47L25 47L25 45L26 45L26 46L27 46L27 47L29 47L29 50L33 50L33 51L34 51L34 49L31 49L31 46L30 46L30 45L33 45L33 46L32 46L32 47L33 47L33 48L36 48L36 47L37 47L37 48L38 48L38 47L39 47L39 48L40 48L40 47L41 47L41 48L42 48L42 49L41 49L41 50L39 50L39 51L38 51L38 49L37 49L37 50L36 50L36 49L35 49L35 50L36 50L36 51L35 51L35 53L37 53L37 54L40 54L40 53L39 53L39 52L40 52L40 51L41 51L41 50L42 50L42 52L43 52L43 53L44 53L44 52L45 52L45 49L46 49L46 46L45 46L45 45L44 45L44 44L43 44L43 42L44 42L44 43L45 43L45 44L46 44L46 45L47 45L47 46L49 46L49 47L48 47L48 48L47 48L47 49L49 49L49 48L50 48L50 49L51 49L51 48L50 48L50 47L51 47L51 46L52 46L52 47L53 47L53 46L56 46L56 47L54 47L54 49L52 49L52 50L53 50L53 51L56 51L56 52L55 52L55 53L54 53L54 52L53 52L53 53L54 53L54 54L55 54L55 53L56 53L56 52L57 52L57 51L56 51L56 50L55 50L55 49L56 49L56 47L57 47L57 46L56 46L56 43L57 43L57 45L59 45L59 47L60 47L60 46L61 46L61 47L62 47L62 46L63 46L63 45L62 45L62 44L61 44L61 43L62 43L62 41L61 41L61 40L60 40L60 39L59 39L59 38L60 38L60 37L59 37L59 38L57 38L57 37L56 37L56 35L54 35L54 34L55 34L55 33L56 33L56 34L57 34L57 33L58 33L58 32L57 32L57 31L59 31L59 30L57 30L57 31L56 31L56 30L55 30L55 29L56 29L56 27L54 27L54 26L53 26L53 27L52 27L52 26L50 26L50 25L51 25L51 24L50 24L50 25L49 25L49 24L48 24L48 23L49 23L49 22L50 22L50 23L51 23L51 22L50 22L50 21L52 21L52 20L53 20L53 18L51 18L51 19L52 19L52 20L50 20L50 21L49 21L49 18L50 18L50 17L49 17L49 16L50 16L50 15L48 15L48 16L47 16L47 17L49 17L49 18L46 18L46 16L45 16L45 15L44 15L44 16L42 16L42 17L41 17L41 18L39 18L39 19L37 19L37 18L38 18L38 17L39 17L39 16L40 16L40 15L42 15L42 14L43 14L43 13L42 13L42 14L41 14L41 12L42 12L42 10L45 10L45 9L46 9L46 7ZM15 8L15 9L16 9L16 8ZM21 8L21 9L22 9L22 8ZM6 9L6 10L5 10L5 12L4 12L4 13L5 13L5 12L7 12L7 13L6 13L6 14L5 14L5 15L6 15L6 14L7 14L7 13L9 13L9 14L10 14L10 13L9 13L9 12L8 12L8 11L9 11L9 9L8 9L8 11L6 11L6 10L7 10L7 9ZM23 9L23 10L24 10L24 9ZM26 10L26 13L27 13L27 10ZM40 10L40 12L41 12L41 10ZM51 10L51 11L50 11L50 13L49 13L49 12L46 12L46 11L43 11L43 12L45 12L45 13L44 13L44 14L45 14L45 13L47 13L47 14L50 14L50 13L51 13L51 12L52 12L52 11L53 11L53 10ZM61 10L61 11L62 11L62 10ZM64 10L64 11L66 11L66 10ZM11 11L11 12L12 12L12 11ZM28 11L28 12L29 12L29 11ZM19 12L19 13L20 13L20 12ZM58 12L58 13L60 13L60 12ZM17 13L17 14L18 14L18 13ZM53 14L53 15L54 15L54 14ZM59 14L59 15L58 15L58 16L59 16L59 15L60 15L60 14ZM2 15L2 18L4 18L4 17L5 17L5 16L4 16L4 15ZM14 15L14 16L15 16L15 15ZM32 15L32 16L33 16L33 15ZM3 16L3 17L4 17L4 16ZM44 16L44 17L43 17L43 20L44 20L44 22L43 22L43 24L44 24L44 25L43 25L43 26L46 26L46 27L43 27L43 28L44 28L44 29L43 29L43 30L42 30L42 27L38 27L38 28L37 28L37 29L36 29L36 28L35 28L35 27L36 27L36 26L35 26L35 25L38 25L38 26L41 26L41 25L42 25L42 24L39 24L39 22L40 22L40 23L41 23L41 22L40 22L40 21L41 21L41 20L40 20L40 19L39 19L39 22L37 22L37 23L33 23L33 22L31 22L31 21L30 21L30 20L29 20L29 21L27 21L27 22L26 22L26 21L25 21L25 23L26 23L26 25L27 25L27 27L26 27L26 26L25 26L25 27L26 27L26 29L25 29L25 28L24 28L24 27L20 27L20 26L19 26L19 25L18 25L18 24L17 24L17 23L16 23L16 25L14 25L14 28L16 28L16 27L15 27L15 26L16 26L16 25L18 25L18 28L19 28L19 27L20 27L20 30L19 30L19 32L20 32L20 33L19 33L19 34L20 34L20 35L19 35L19 36L20 36L20 38L21 38L21 37L23 37L23 36L24 36L24 37L25 37L25 36L26 36L26 37L27 37L27 39L29 39L29 40L26 40L26 38L22 38L22 39L21 39L21 40L19 40L19 41L18 41L18 42L19 42L19 45L20 45L20 46L21 46L21 45L24 45L24 44L26 44L26 45L27 45L27 46L29 46L29 47L30 47L30 46L29 46L29 45L27 45L27 44L28 44L28 42L30 42L30 41L31 41L31 43L29 43L29 44L32 44L32 43L34 43L34 44L33 44L33 45L34 45L34 46L33 46L33 47L34 47L34 46L35 46L35 47L36 47L36 46L37 46L37 47L38 47L38 46L39 46L39 47L40 47L40 46L39 46L39 45L40 45L40 44L41 44L41 43L40 43L40 41L41 41L41 40L44 40L44 42L45 42L45 43L46 43L46 42L47 42L47 43L48 43L48 44L50 44L50 46L51 46L51 45L52 45L52 46L53 46L53 45L55 45L55 42L51 42L51 41L53 41L53 40L54 40L54 41L55 41L55 40L56 40L56 42L57 42L57 43L58 43L58 42L59 42L59 43L61 43L61 41L60 41L60 40L59 40L59 41L58 41L58 39L57 39L57 40L56 40L56 39L55 39L55 38L53 38L53 39L50 39L50 38L51 38L51 37L54 37L54 36L53 36L53 34L54 34L54 33L55 33L55 31L53 31L53 28L50 28L50 30L49 30L49 29L48 29L48 30L49 30L49 33L50 33L50 34L49 34L49 35L48 35L48 36L47 36L47 34L48 34L48 33L46 33L46 32L47 32L47 31L46 31L46 32L44 32L44 30L47 30L47 29L45 29L45 28L49 28L49 27L48 27L48 26L49 26L49 25L48 25L48 24L47 24L47 23L48 23L48 22L49 22L49 21L46 21L46 20L48 20L48 19L46 19L46 18L45 18L45 16ZM27 17L27 18L28 18L28 17ZM66 17L66 19L67 19L67 17ZM19 18L19 19L20 19L20 18ZM32 18L32 21L33 21L33 20L34 20L34 21L36 21L36 19L33 19L33 18ZM44 18L44 19L45 19L45 18ZM63 19L63 20L64 20L64 19ZM37 20L37 21L38 21L38 20ZM59 20L59 21L60 21L60 20ZM29 21L29 22L30 22L30 23L27 23L27 24L30 24L30 25L29 25L29 27L30 27L30 28L28 28L28 29L30 29L30 31L29 31L29 30L28 30L28 31L27 31L27 30L25 30L25 29L24 29L24 28L23 28L23 29L22 29L22 28L21 28L21 29L22 29L22 30L25 30L25 31L26 31L26 32L25 32L25 33L24 33L24 31L23 31L23 33L24 33L24 36L25 36L25 35L26 35L26 34L25 34L25 33L28 33L28 34L27 34L27 35L28 35L28 36L29 36L29 39L30 39L30 38L34 38L34 37L35 37L35 39L33 39L33 40L35 40L35 41L36 41L36 40L37 40L37 43L35 43L35 45L37 45L37 46L38 46L38 45L39 45L39 44L40 44L40 43L38 43L38 40L41 40L41 39L45 39L45 40L47 40L47 41L48 41L48 42L50 42L50 41L49 41L49 40L47 40L47 39L48 39L48 38L45 38L45 37L47 37L47 36L45 36L45 33L44 33L44 32L43 32L43 31L40 31L40 30L39 30L39 31L38 31L38 29L37 29L37 30L35 30L35 29L34 29L34 28L33 28L33 27L30 27L30 26L31 26L31 24L32 24L32 26L34 26L34 24L32 24L32 23L31 23L31 22L30 22L30 21ZM53 21L53 23L54 23L54 24L53 24L53 25L54 25L54 24L55 24L55 23L56 23L56 22L57 22L57 21L56 21L56 22L55 22L55 21ZM44 22L44 23L45 23L45 24L46 24L46 25L47 25L47 26L48 26L48 25L47 25L47 24L46 24L46 22ZM37 23L37 24L38 24L38 23ZM63 23L63 24L64 24L64 25L65 25L65 24L64 24L64 23ZM0 24L0 26L2 26L2 27L0 27L0 28L2 28L2 27L3 27L3 26L2 26L2 25L3 25L3 24L2 24L2 25L1 25L1 24ZM22 25L22 26L24 26L24 25ZM31 28L31 29L32 29L32 28ZM39 28L39 29L40 29L40 28ZM54 28L54 29L55 29L55 28ZM33 29L33 30L32 30L32 32L31 32L31 31L30 31L30 32L29 32L29 31L28 31L28 33L30 33L30 34L29 34L29 35L30 35L30 36L31 36L31 37L32 37L32 36L31 36L31 35L32 35L32 34L31 34L31 33L32 33L32 32L34 32L34 31L33 31L33 30L34 30L34 29ZM51 29L51 30L52 30L52 29ZM3 30L3 31L2 31L2 32L3 32L3 31L4 31L4 30ZM6 30L6 31L7 31L7 30ZM20 31L20 32L21 32L21 31ZM50 31L50 32L51 32L51 33L52 33L52 32L53 32L53 33L54 33L54 32L53 32L53 31L52 31L52 32L51 32L51 31ZM63 31L63 32L64 32L64 31ZM17 32L17 33L18 33L18 32ZM30 32L30 33L31 33L31 32ZM37 32L37 33L38 33L38 34L37 34L37 36L38 36L38 37L36 37L36 39L37 39L37 40L38 40L38 39L41 39L41 38L40 38L40 37L41 37L41 36L40 36L40 33L43 33L43 34L41 34L41 35L43 35L43 36L42 36L42 37L43 37L43 36L44 36L44 37L45 37L45 36L44 36L44 33L43 33L43 32L39 32L39 33L38 33L38 32ZM56 32L56 33L57 33L57 32ZM5 33L5 36L8 36L8 33ZM21 33L21 34L22 34L22 35L21 35L21 36L23 36L23 34L22 34L22 33ZM33 33L33 36L36 36L36 33ZM61 33L61 36L64 36L64 33ZM6 34L6 35L7 35L7 34ZM30 34L30 35L31 35L31 34ZM34 34L34 35L35 35L35 34ZM62 34L62 35L63 35L63 34ZM65 34L65 35L67 35L67 36L68 36L68 35L67 35L67 34ZM17 35L17 36L18 36L18 35ZM57 35L57 36L59 36L59 35ZM48 36L48 37L49 37L49 38L50 38L50 36ZM37 38L37 39L38 39L38 38ZM10 39L10 40L9 40L9 44L8 44L8 45L11 45L11 43L10 43L10 41L12 41L12 42L14 42L14 40L11 40L11 39ZM24 39L24 41L23 41L23 42L24 42L24 41L26 41L26 42L25 42L25 43L26 43L26 44L27 44L27 41L26 41L26 40L25 40L25 39ZM31 39L31 40L32 40L32 39ZM54 39L54 40L55 40L55 39ZM6 40L6 41L7 41L7 40ZM21 40L21 41L22 41L22 40ZM29 40L29 41L30 41L30 40ZM15 41L15 42L16 42L16 41ZM19 41L19 42L20 42L20 41ZM32 41L32 42L34 42L34 41ZM57 41L57 42L58 42L58 41ZM21 42L21 43L20 43L20 45L21 45L21 44L24 44L24 43L22 43L22 42ZM4 43L4 45L5 45L5 43ZM15 43L15 44L14 44L14 46L13 46L13 48L14 48L14 47L15 47L15 49L18 49L18 48L17 48L17 47L18 47L18 46L15 46L15 44L16 44L16 43ZM37 43L37 45L38 45L38 43ZM50 43L50 44L53 44L53 43ZM59 44L59 45L60 45L60 44ZM0 45L0 46L1 46L1 45ZM41 45L41 46L42 46L42 48L43 48L43 46L42 46L42 45ZM61 45L61 46L62 46L62 45ZM44 47L44 49L43 49L43 50L44 50L44 49L45 49L45 47ZM67 47L67 48L68 48L68 47ZM13 49L13 50L12 50L12 52L13 52L13 53L14 53L14 54L15 54L15 51L14 51L14 52L13 52L13 50L14 50L14 49ZM27 49L27 50L28 50L28 49ZM6 50L6 51L7 51L7 50ZM19 50L19 51L17 51L17 52L19 52L19 53L20 53L20 54L19 54L19 55L20 55L20 56L19 56L19 57L20 57L20 58L21 58L21 57L22 57L22 56L21 56L21 55L22 55L22 54L23 54L23 55L24 55L24 56L26 56L26 58L28 58L28 59L31 59L31 62L29 62L29 60L27 60L27 59L26 59L26 61L25 61L25 62L27 62L27 63L29 63L29 64L28 64L28 65L29 65L29 68L31 68L31 66L32 66L32 65L31 65L31 66L30 66L30 65L29 65L29 64L31 64L31 63L32 63L32 59L33 59L33 58L29 58L29 57L30 57L30 56L28 56L28 57L27 57L27 55L25 55L25 54L23 54L23 52L19 52L19 51L20 51L20 50ZM8 51L8 52L6 52L6 53L5 53L5 54L6 54L6 53L8 53L8 52L9 52L9 51ZM27 51L27 53L29 53L29 54L30 54L30 53L32 53L32 56L34 56L34 55L35 55L35 57L36 57L36 58L38 58L38 57L39 57L39 56L37 56L37 55L35 55L35 54L33 54L33 53L34 53L34 52L32 52L32 51L29 51L29 52L28 52L28 51ZM43 51L43 52L44 52L44 51ZM37 52L37 53L38 53L38 52ZM21 53L21 54L22 54L22 53ZM67 53L67 54L69 54L69 53ZM5 55L5 56L6 56L6 57L7 57L7 56L6 56L6 55ZM16 56L16 57L15 57L15 58L16 58L16 57L17 57L17 56ZM36 56L36 57L37 57L37 56ZM54 56L54 58L53 58L53 59L51 59L51 60L54 60L54 58L55 58L55 57L56 57L56 58L57 58L57 59L58 59L58 58L57 58L57 57L56 57L56 56ZM58 56L58 57L59 57L59 58L60 58L60 57L59 57L59 56ZM0 57L0 61L1 61L1 57ZM51 57L51 58L52 58L52 57ZM41 58L41 59L40 59L40 62L39 62L39 61L38 61L38 63L37 63L37 65L38 65L38 64L39 64L39 63L41 63L41 64L44 64L44 66L45 66L45 67L46 67L46 66L45 66L45 64L44 64L44 62L43 62L43 63L42 63L42 62L41 62L41 60L42 60L42 61L43 61L43 60L42 60L42 58ZM61 58L61 59L62 59L62 58ZM64 58L64 59L65 59L65 58ZM3 60L3 61L5 61L5 60ZM6 60L6 61L7 61L7 60ZM13 60L13 61L14 61L14 60ZM57 60L57 61L59 61L59 60ZM33 61L33 64L36 64L36 61ZM61 61L61 64L64 64L64 61ZM34 62L34 63L35 63L35 62ZM55 62L55 63L56 63L56 62ZM62 62L62 63L63 63L63 62ZM65 62L65 63L66 63L66 62ZM17 64L17 65L18 65L18 64ZM33 65L33 66L35 66L35 65ZM48 65L48 66L47 66L47 67L48 67L48 66L49 66L49 65ZM55 65L55 66L56 66L56 65ZM9 66L9 67L10 67L10 68L12 68L12 66L11 66L11 67L10 67L10 66ZM21 66L21 67L22 67L22 66ZM24 66L24 67L25 67L25 66ZM60 67L60 68L61 68L61 67ZM33 68L33 69L34 69L34 68ZM0 0L0 7L7 7L7 0ZM1 1L1 6L6 6L6 1ZM2 2L2 5L5 5L5 2ZM62 0L62 7L69 7L69 0ZM63 1L63 6L68 6L68 1ZM64 2L64 5L67 5L67 2ZM0 62L0 69L7 69L7 62ZM1 63L1 68L6 68L6 63ZM2 64L2 67L5 67L5 64Z" fill="#000000"/></g></g></svg>
