<?xml version="1.0" encoding="UTF-8"?>
<svg xmlns="http://www.w3.org/2000/svg" version="1.1" width="300" height="300" viewBox="0 0 300 300"><rect x="0" y="0" width="300" height="300" fill="#ffffff"/><g transform="scale(4.348)"><g transform="translate(0,0)"><path fill-rule="evenodd" d="M9 0L9 1L8 1L8 2L9 2L9 3L8 3L8 4L10 4L10 5L8 5L8 7L9 7L9 8L6 8L6 9L5 9L5 8L0 8L0 12L1 12L1 11L2 11L2 12L6 12L6 13L7 13L7 14L5 14L5 13L0 13L0 14L1 14L1 15L0 15L0 16L1 16L1 15L2 15L2 17L0 17L0 18L2 18L2 19L0 19L0 20L2 20L2 19L4 19L4 20L3 20L3 21L1 21L1 22L3 22L3 23L1 23L1 24L0 24L0 25L2 25L2 27L1 27L1 26L0 26L0 27L1 27L1 28L3 28L3 29L2 29L2 30L1 30L1 29L0 29L0 30L1 30L1 32L0 32L0 35L3 35L3 33L2 33L2 34L1 34L1 32L2 32L2 31L3 31L3 32L4 32L4 37L3 37L3 38L6 38L6 39L7 39L7 40L5 40L5 39L4 39L4 40L3 40L3 39L2 39L2 40L3 40L3 41L4 41L4 40L5 40L5 42L4 42L4 45L3 45L3 48L5 48L5 46L6 46L6 47L8 47L8 48L9 48L9 46L8 46L8 44L10 44L10 48L11 48L11 49L13 49L13 50L11 50L11 51L12 51L12 52L11 52L11 53L10 53L10 51L9 51L9 50L10 50L10 49L8 49L8 51L7 51L7 50L5 50L5 51L3 51L3 49L2 49L2 44L3 44L3 42L2 42L2 41L1 41L1 42L2 42L2 43L0 43L0 44L1 44L1 49L2 49L2 52L1 52L1 51L0 51L0 54L1 54L1 53L2 53L2 52L4 52L4 55L3 55L3 54L2 54L2 55L1 55L1 56L0 56L0 61L1 61L1 57L3 57L3 58L2 58L2 59L3 59L3 58L4 58L4 59L7 59L7 58L6 58L6 57L7 57L7 56L8 56L8 55L7 55L7 54L8 54L8 53L10 53L10 54L9 54L9 57L8 57L8 60L6 60L6 61L8 61L8 63L9 63L9 64L8 64L8 69L12 69L12 68L13 68L13 67L14 67L14 68L15 68L15 66L13 66L13 65L17 65L17 68L16 68L16 69L19 69L19 67L20 67L20 66L19 66L19 65L20 65L20 64L19 64L19 63L21 63L21 64L25 64L25 65L23 65L23 66L25 66L25 65L28 65L28 66L27 66L27 67L24 67L24 68L25 68L25 69L26 69L26 68L27 68L27 69L32 69L32 68L29 68L29 65L30 65L30 66L31 66L31 67L34 67L34 66L33 66L33 65L37 65L37 67L35 67L35 68L34 68L34 69L35 69L35 68L36 68L36 69L38 69L38 68L37 68L37 67L39 67L39 66L38 66L38 65L39 65L39 64L41 64L41 66L40 66L40 67L41 67L41 66L44 66L44 68L43 68L43 67L42 67L42 68L41 68L41 69L44 69L44 68L47 68L47 69L49 69L49 68L50 68L50 67L49 67L49 66L50 66L50 65L49 65L49 64L50 64L50 63L49 63L49 64L48 64L48 63L47 63L47 64L48 64L48 65L49 65L49 66L48 66L48 68L47 68L47 66L46 66L46 64L45 64L45 63L46 63L46 62L45 62L45 61L47 61L47 62L50 62L50 61L51 61L51 62L54 62L54 63L53 63L53 65L51 65L51 66L55 66L55 67L56 67L56 64L54 64L54 63L59 63L59 64L60 64L60 65L59 65L59 66L58 66L58 64L57 64L57 66L58 66L58 67L59 67L59 69L65 69L65 68L67 68L67 69L68 69L68 68L67 68L67 67L66 67L66 66L67 66L67 65L68 65L68 61L69 61L69 60L68 60L68 61L65 61L65 60L67 60L67 59L68 59L68 56L69 56L69 55L68 55L68 54L69 54L69 53L68 53L68 54L67 54L67 55L66 55L66 54L65 54L65 55L63 55L63 57L65 57L65 58L63 58L63 60L60 60L60 59L62 59L62 58L61 58L61 57L62 57L62 54L63 54L63 53L64 53L64 51L65 51L65 53L66 53L66 52L68 52L68 50L69 50L69 49L68 49L68 48L69 48L69 47L68 47L68 46L67 46L67 44L68 44L68 41L69 41L69 39L68 39L68 38L67 38L67 37L68 37L68 36L69 36L69 35L68 35L68 34L69 34L69 32L68 32L68 31L64 31L64 32L63 32L63 31L62 31L62 29L61 29L61 28L62 28L62 27L59 27L59 26L62 26L62 25L63 25L63 28L65 28L65 29L64 29L64 30L65 30L65 29L66 29L66 28L67 28L67 30L69 30L69 29L68 29L68 28L69 28L69 27L68 27L68 26L69 26L69 24L68 24L68 22L69 22L69 21L68 21L68 18L69 18L69 17L67 17L67 16L68 16L68 14L69 14L69 12L68 12L68 14L64 14L64 13L63 13L63 11L65 11L65 12L66 12L66 13L67 13L67 11L68 11L68 10L69 10L69 9L68 9L68 8L67 8L67 9L68 9L68 10L66 10L66 8L65 8L65 9L64 9L64 8L63 8L63 9L64 9L64 10L63 10L63 11L61 11L61 10L62 10L62 8L60 8L60 9L59 9L59 10L60 10L60 11L58 11L58 12L61 12L61 13L59 13L59 14L62 14L62 13L63 13L63 14L64 14L64 15L62 15L62 16L59 16L59 15L58 15L58 14L57 14L57 13L56 13L56 12L57 12L57 9L56 9L56 12L55 12L55 13L51 13L51 12L52 12L52 11L50 11L50 9L51 9L51 8L53 8L53 6L52 6L52 4L51 4L51 3L52 3L52 1L51 1L51 2L50 2L50 4L49 4L49 3L48 3L48 2L49 2L49 1L50 1L50 0L48 0L48 1L47 1L47 4L48 4L48 5L47 5L47 6L46 6L46 5L44 5L44 3L45 3L45 4L46 4L46 3L45 3L45 2L44 2L44 3L43 3L43 4L39 4L39 6L38 6L38 5L37 5L37 4L38 4L38 3L36 3L36 2L41 2L41 3L42 3L42 2L43 2L43 0L41 0L41 1L38 1L38 0L35 0L35 1L34 1L34 2L35 2L35 3L36 3L36 4L33 4L33 3L32 3L32 4L31 4L31 3L29 3L29 1L32 1L32 2L33 2L33 1L32 1L32 0L28 0L28 1L27 1L27 2L26 2L26 1L25 1L25 0L21 0L21 3L17 3L17 2L18 2L18 1L19 1L19 2L20 2L20 1L19 1L19 0L17 0L17 2L16 2L16 0L11 0L11 1L10 1L10 0ZM44 0L44 1L45 1L45 0ZM54 0L54 1L53 1L53 2L54 2L54 1L55 1L55 2L56 2L56 1L57 1L57 0L56 0L56 1L55 1L55 0ZM58 0L58 1L61 1L61 0ZM12 1L12 2L13 2L13 3L11 3L11 2L10 2L10 3L11 3L11 4L12 4L12 5L10 5L10 6L9 6L9 7L10 7L10 6L11 6L11 9L10 9L10 10L11 10L11 12L10 12L10 11L9 11L9 10L7 10L7 9L6 9L6 10L7 10L7 11L6 11L6 12L7 12L7 11L9 11L9 12L10 12L10 13L8 13L8 14L7 14L7 15L6 15L6 16L7 16L7 15L9 15L9 17L8 17L8 18L7 18L7 17L6 17L6 18L5 18L5 19L6 19L6 20L7 20L7 21L6 21L6 22L7 22L7 21L8 21L8 23L6 23L6 24L8 24L8 23L9 23L9 27L8 27L8 25L5 25L5 24L4 24L4 23L3 23L3 27L5 27L5 30L3 30L3 31L5 31L5 30L7 30L7 31L6 31L6 32L9 32L9 34L10 34L10 35L11 35L11 36L9 36L9 37L8 37L8 38L7 38L7 37L6 37L6 38L7 38L7 39L10 39L10 40L8 40L8 41L9 41L9 42L10 42L10 43L12 43L12 42L13 42L13 44L12 44L12 45L11 45L11 48L13 48L13 47L14 47L14 46L15 46L15 48L14 48L14 50L17 50L17 52L19 52L19 53L16 53L16 52L15 52L15 53L14 53L14 54L11 54L11 55L10 55L10 56L11 56L11 55L13 55L13 56L12 56L12 57L9 57L9 58L12 58L12 59L11 59L11 60L10 60L10 59L9 59L9 60L8 60L8 61L9 61L9 60L10 60L10 61L11 61L11 60L12 60L12 61L14 61L14 62L15 62L15 63L12 63L12 65L13 65L13 64L15 64L15 63L18 63L18 62L21 62L21 63L22 63L22 62L23 62L23 63L25 63L25 64L26 64L26 63L25 63L25 62L27 62L27 64L28 64L28 65L29 65L29 64L31 64L31 63L32 63L32 60L33 60L33 59L32 59L32 57L35 57L35 56L36 56L36 55L38 55L38 56L37 56L37 57L38 57L38 58L37 58L37 61L38 61L38 64L39 64L39 63L41 63L41 64L44 64L44 66L45 66L45 67L46 67L46 66L45 66L45 64L44 64L44 63L45 63L45 62L44 62L44 61L45 61L45 60L49 60L49 61L50 61L50 59L49 59L49 58L52 58L52 57L53 57L53 58L54 58L54 59L52 59L52 60L51 60L51 61L55 61L55 58L56 58L56 62L60 62L60 60L59 60L59 61L57 61L57 60L58 60L58 59L57 59L57 58L59 58L59 59L60 59L60 58L59 58L59 57L60 57L60 56L61 56L61 55L60 55L60 54L59 54L59 53L61 53L61 54L62 54L62 53L63 53L63 52L61 52L61 51L63 51L63 50L65 50L65 49L67 49L67 48L65 48L65 47L66 47L66 44L65 44L65 43L64 43L64 42L66 42L66 41L68 41L68 40L65 40L65 41L64 41L64 40L63 40L63 39L67 39L67 38L65 38L65 37L64 37L64 38L62 38L62 37L61 37L61 38L60 38L60 35L58 35L58 34L60 34L60 33L58 33L58 34L57 34L57 32L59 32L59 29L60 29L60 28L58 28L58 27L56 27L56 26L59 26L59 25L62 25L62 24L61 24L61 23L59 23L59 21L62 21L62 23L63 23L63 22L65 22L65 23L67 23L67 22L68 22L68 21L67 21L67 20L65 20L65 19L67 19L67 18L66 18L66 16L65 16L65 15L64 15L64 16L62 16L62 18L61 18L61 19L59 19L59 17L58 17L58 15L56 15L56 13L55 13L55 15L56 15L56 18L53 18L53 17L55 17L55 16L54 16L54 15L53 15L53 14L51 14L51 13L50 13L50 12L49 12L49 10L47 10L47 7L48 7L48 6L47 6L47 7L46 7L46 6L45 6L45 7L44 7L44 5L43 5L43 7L42 7L42 6L41 6L41 5L40 5L40 6L39 6L39 7L40 7L40 6L41 6L41 8L39 8L39 9L38 9L38 8L37 8L37 9L38 9L38 12L37 12L37 10L36 10L36 9L35 9L35 10L36 10L36 11L34 11L34 10L33 10L33 9L32 9L32 11L31 11L31 12L32 12L32 13L31 13L31 14L33 14L33 15L32 15L32 16L31 16L31 15L29 15L29 16L27 16L27 14L30 14L30 13L29 13L29 11L26 11L26 10L30 10L30 9L31 9L31 8L32 8L32 5L30 5L30 6L29 6L29 7L28 7L28 5L29 5L29 3L28 3L28 2L27 2L27 3L26 3L26 6L25 6L25 7L24 7L24 6L23 6L23 5L22 5L22 6L21 6L21 4L23 4L23 3L24 3L24 4L25 4L25 2L24 2L24 1L23 1L23 3L21 3L21 4L20 4L20 6L19 6L19 5L18 5L18 4L17 4L17 3L16 3L16 2L15 2L15 1L14 1L14 2L13 2L13 1ZM41 1L41 2L42 2L42 1ZM14 2L14 3L13 3L13 5L12 5L12 8L13 8L13 10L14 10L14 11L13 11L13 12L14 12L14 11L15 11L15 12L16 12L16 13L18 13L18 14L17 14L17 15L13 15L13 16L10 16L10 18L9 18L9 19L7 19L7 18L6 18L6 19L7 19L7 20L8 20L8 21L10 21L10 23L13 23L13 22L11 22L11 21L12 21L12 20L10 20L10 18L11 18L11 19L13 19L13 21L14 21L14 25L16 25L16 26L13 26L13 27L10 27L10 28L9 28L9 29L8 29L8 28L6 28L6 29L8 29L8 31L9 31L9 32L10 32L10 33L11 33L11 35L13 35L13 36L14 36L14 35L13 35L13 33L14 33L14 32L15 32L15 31L16 31L16 30L15 30L15 29L14 29L14 28L13 28L13 27L16 27L16 28L17 28L17 30L18 30L18 31L17 31L17 32L16 32L16 33L17 33L17 34L19 34L19 35L17 35L17 38L15 38L15 37L14 37L14 40L16 40L16 39L17 39L17 38L18 38L18 39L19 39L19 40L17 40L17 41L18 41L18 42L17 42L17 45L18 45L18 46L17 46L17 47L16 47L16 48L15 48L15 49L18 49L18 50L20 50L20 51L19 51L19 52L22 52L22 51L21 51L21 50L22 50L22 49L18 49L18 48L17 48L17 47L18 47L18 46L19 46L19 47L20 47L20 48L23 48L23 50L24 50L24 51L23 51L23 54L22 54L22 55L19 55L19 54L20 54L20 53L19 53L19 54L16 54L16 53L15 53L15 54L16 54L16 55L15 55L15 56L14 56L14 57L13 57L13 58L14 58L14 57L16 57L16 58L15 58L15 59L16 59L16 60L15 60L15 61L16 61L16 60L17 60L17 62L18 62L18 61L21 61L21 60L20 60L20 56L22 56L22 57L21 57L21 58L22 58L22 59L24 59L24 60L25 60L25 61L23 61L23 62L25 62L25 61L26 61L26 60L25 60L25 59L26 59L26 58L27 58L27 57L25 57L25 56L24 56L24 55L23 55L23 54L25 54L25 53L26 53L26 55L27 55L27 56L28 56L28 55L29 55L29 56L30 56L30 57L29 57L29 59L30 59L30 58L31 58L31 56L32 56L32 55L31 55L31 54L30 54L30 53L32 53L32 54L33 54L33 55L34 55L34 56L35 56L35 55L36 55L36 54L35 54L35 55L34 55L34 54L33 54L33 53L34 53L34 52L28 52L28 51L27 51L27 50L28 50L28 49L27 49L27 50L26 50L26 49L24 49L24 47L25 47L25 48L26 48L26 47L25 47L25 46L26 46L26 44L27 44L27 45L30 45L30 46L28 46L28 47L27 47L27 48L29 48L29 51L30 51L30 50L32 50L32 51L34 51L34 50L32 50L32 49L33 49L33 48L36 48L36 47L37 47L37 46L38 46L38 45L39 45L39 46L40 46L40 47L38 47L38 49L37 49L37 50L36 50L36 49L35 49L35 50L36 50L36 51L35 51L35 52L38 52L38 53L37 53L37 54L39 54L39 56L41 56L41 57L39 57L39 58L38 58L38 61L39 61L39 62L40 62L40 59L41 59L41 58L42 58L42 60L41 60L41 62L42 62L42 63L44 63L44 62L43 62L43 61L44 61L44 59L43 59L43 57L44 57L44 56L46 56L46 57L47 57L47 59L48 59L48 58L49 58L49 56L52 56L52 55L54 55L54 56L55 56L55 57L54 57L54 58L55 58L55 57L56 57L56 55L57 55L57 56L60 56L60 55L58 55L58 54L57 54L57 53L56 53L56 52L55 52L55 51L56 51L56 50L57 50L57 51L59 51L59 52L58 52L58 53L59 53L59 52L60 52L60 51L61 51L61 50L62 50L62 49L63 49L63 48L62 48L62 49L61 49L61 48L60 48L60 49L59 49L59 50L57 50L57 49L56 49L56 48L58 48L58 46L56 46L56 45L53 45L53 46L52 46L52 45L51 45L51 46L50 46L50 44L53 44L53 42L54 42L54 44L57 44L57 43L55 43L55 41L56 41L56 42L57 42L57 41L58 41L58 40L59 40L59 39L60 39L60 38L59 38L59 39L58 39L58 40L57 40L57 41L56 41L56 39L55 39L55 38L57 38L57 37L56 37L56 36L55 36L55 35L56 35L56 34L55 34L55 32L57 32L57 31L58 31L58 30L57 30L57 29L56 29L56 27L53 27L53 28L54 28L54 29L53 29L53 30L55 30L55 29L56 29L56 30L57 30L57 31L50 31L50 29L51 29L51 28L52 28L52 27L50 27L50 29L49 29L49 28L46 28L46 29L47 29L47 30L45 30L45 31L44 31L44 28L43 28L43 27L46 27L46 26L43 26L43 25L44 25L44 24L43 24L43 23L41 23L41 22L44 22L44 23L45 23L45 24L46 24L46 25L47 25L47 26L48 26L48 27L49 27L49 26L50 26L50 25L51 25L51 26L52 26L52 25L51 25L51 23L53 23L53 24L54 24L54 25L53 25L53 26L55 26L55 25L56 25L56 24L55 24L55 23L57 23L57 21L58 21L58 19L57 19L57 21L56 21L56 20L55 20L55 21L53 21L53 22L51 22L51 23L50 23L50 20L51 20L51 21L52 21L52 20L54 20L54 19L53 19L53 18L52 18L52 17L51 17L51 18L50 18L50 16L53 16L53 15L51 15L51 14L50 14L50 13L49 13L49 12L47 12L47 11L44 11L44 12L43 12L43 13L42 13L42 14L41 14L41 12L42 12L42 10L45 10L45 9L46 9L46 7L45 7L45 9L44 9L44 8L43 8L43 9L41 9L41 12L40 12L40 11L39 11L39 12L40 12L40 13L39 13L39 14L40 14L40 15L38 15L38 13L37 13L37 14L35 14L35 15L38 15L38 16L37 16L37 17L36 17L36 18L35 18L35 19L37 19L37 20L38 20L38 21L37 21L37 22L35 22L35 23L36 23L36 25L35 25L35 24L34 24L34 22L33 22L33 21L34 21L34 20L32 20L32 18L33 18L33 16L34 16L34 15L33 15L33 16L32 16L32 17L31 17L31 16L29 16L29 18L31 18L31 19L29 19L29 22L30 22L30 23L28 23L28 24L30 24L30 25L29 25L29 30L30 30L30 31L31 31L31 32L29 32L29 31L28 31L28 30L26 30L26 28L25 28L25 26L26 26L26 27L27 27L27 28L28 28L28 26L26 26L26 22L27 22L27 21L26 21L26 17L24 17L24 15L25 15L25 16L26 16L26 15L25 15L25 14L27 14L27 13L26 13L26 11L25 11L25 12L24 12L24 11L23 11L23 10L24 10L24 9L25 9L25 10L26 10L26 8L27 8L27 9L28 9L28 8L27 8L27 6L26 6L26 7L25 7L25 8L24 8L24 9L23 9L23 10L20 10L20 9L19 9L19 6L18 6L18 5L17 5L17 4L15 4L15 2ZM57 2L57 3L59 3L59 2ZM27 3L27 4L28 4L28 3ZM53 3L53 5L54 5L54 9L53 9L53 10L55 10L55 8L58 8L58 7L59 7L59 4L58 4L58 7L57 7L57 6L56 6L56 3ZM60 3L60 5L61 5L61 3ZM14 4L14 5L13 5L13 8L14 8L14 6L15 6L15 7L16 7L16 8L15 8L15 10L16 10L16 9L17 9L17 12L18 12L18 11L19 11L19 13L20 13L20 14L18 14L18 15L17 15L17 16L16 16L16 17L13 17L13 19L14 19L14 20L15 20L15 24L16 24L16 25L17 25L17 24L18 24L18 23L17 23L17 22L19 22L19 21L17 21L17 22L16 22L16 20L15 20L15 19L17 19L17 20L19 20L19 19L20 19L20 18L19 18L19 19L17 19L17 18L18 18L18 17L21 17L21 19L22 19L22 20L20 20L20 22L21 22L21 23L20 23L20 24L19 24L19 25L20 25L20 26L18 26L18 27L17 27L17 28L19 28L19 29L20 29L20 30L21 30L21 29L22 29L22 31L24 31L24 33L25 33L25 34L26 34L26 35L27 35L27 36L26 36L26 37L27 37L27 38L23 38L23 37L24 37L24 36L25 36L25 35L23 35L23 36L21 36L21 33L22 33L22 34L23 34L23 32L20 32L20 31L19 31L19 32L20 32L20 33L19 33L19 34L20 34L20 35L19 35L19 37L20 37L20 38L22 38L22 39L21 39L21 40L19 40L19 41L20 41L20 42L19 42L19 43L18 43L18 44L19 44L19 45L20 45L20 47L21 47L21 45L22 45L22 46L23 46L23 45L24 45L24 44L26 44L26 42L25 42L25 41L28 41L28 42L27 42L27 44L31 44L31 47L29 47L29 48L31 48L31 49L32 49L32 48L33 48L33 47L34 47L34 46L35 46L35 47L36 47L36 46L37 46L37 45L38 45L38 44L39 44L39 45L40 45L40 44L41 44L41 43L40 43L40 41L41 41L41 40L44 40L44 42L43 42L43 43L44 43L44 46L42 46L42 45L41 45L41 46L42 46L42 48L41 48L41 47L40 47L40 48L39 48L39 49L38 49L38 50L37 50L37 51L38 51L38 50L41 50L41 51L40 51L40 52L39 52L39 53L41 53L41 51L42 51L42 50L41 50L41 49L42 49L42 48L43 48L43 47L44 47L44 49L43 49L43 50L44 50L44 49L45 49L45 52L44 52L44 51L43 51L43 52L44 52L44 53L43 53L43 56L42 56L42 57L43 57L43 56L44 56L44 53L45 53L45 54L46 54L46 56L48 56L48 55L49 55L49 54L48 54L48 55L47 55L47 53L45 53L45 52L46 52L46 51L47 51L47 47L49 47L49 49L50 49L50 51L49 51L49 53L50 53L50 54L51 54L51 55L52 55L52 54L51 54L51 53L53 53L53 52L54 52L54 50L51 50L51 49L53 49L53 48L56 48L56 46L54 46L54 47L49 47L49 46L47 46L47 44L46 44L46 42L47 42L47 40L49 40L49 41L48 41L48 42L49 42L49 43L48 43L48 44L50 44L50 43L51 43L51 40L52 40L52 41L55 41L55 39L53 39L53 38L52 38L52 37L53 37L53 35L52 35L52 36L51 36L51 33L52 33L52 34L53 34L53 33L54 33L54 32L51 32L51 33L50 33L50 32L49 32L49 31L47 31L47 32L49 32L49 33L50 33L50 36L49 36L49 37L45 37L45 36L47 36L47 35L48 35L48 33L45 33L45 32L46 32L46 31L45 31L45 32L44 32L44 31L43 31L43 30L42 30L42 27L39 27L39 26L41 26L41 25L42 25L42 24L39 24L39 25L38 25L38 23L39 23L39 22L37 22L37 25L38 25L38 28L37 28L37 29L36 29L36 28L35 28L35 27L36 27L36 26L35 26L35 25L34 25L34 24L33 24L33 22L32 22L32 20L31 20L31 21L30 21L30 22L31 22L31 23L32 23L32 25L31 25L31 27L30 27L30 28L31 28L31 29L32 29L32 28L31 28L31 27L33 27L33 28L34 28L34 29L33 29L33 30L31 30L31 31L32 31L32 32L34 32L34 31L33 31L33 30L34 30L34 29L36 29L36 30L37 30L37 29L38 29L38 31L37 31L37 32L38 32L38 34L39 34L39 35L37 35L37 36L38 36L38 37L36 37L36 38L35 38L35 37L34 37L34 38L35 38L35 39L36 39L36 38L38 38L38 39L37 39L37 40L39 40L39 41L38 41L38 44L36 44L36 43L37 43L37 42L36 42L36 40L33 40L33 38L30 38L30 37L29 37L29 36L30 36L30 35L31 35L31 36L32 36L32 34L30 34L30 33L29 33L29 32L28 32L28 31L27 31L27 32L28 32L28 33L25 33L25 32L26 32L26 31L25 31L25 30L23 30L23 29L25 29L25 28L24 28L24 27L21 27L21 28L20 28L20 26L21 26L21 25L22 25L22 26L24 26L24 25L22 25L22 24L21 24L21 23L22 23L22 22L23 22L23 19L24 19L24 18L23 18L23 19L22 19L22 17L23 17L23 14L22 14L22 13L23 13L23 11L20 11L20 10L18 10L18 9L17 9L17 7L18 7L18 6L17 6L17 5L16 5L16 6L15 6L15 4ZM50 4L50 5L49 5L49 9L50 9L50 5L51 5L51 4ZM33 5L33 8L36 8L36 5ZM16 6L16 7L17 7L17 6ZM20 6L20 8L21 8L21 9L22 9L22 8L21 8L21 6ZM22 6L22 7L23 7L23 6ZM30 6L30 7L31 7L31 6ZM34 6L34 7L35 7L35 6ZM37 6L37 7L38 7L38 6ZM51 6L51 7L52 7L52 6ZM55 6L55 7L56 7L56 6ZM60 6L60 7L61 7L61 6ZM29 8L29 9L30 9L30 8ZM2 9L2 10L3 10L3 11L5 11L5 9ZM11 9L11 10L12 10L12 9ZM39 9L39 10L40 10L40 9ZM33 11L33 12L34 12L34 13L33 13L33 14L34 14L34 13L36 13L36 12L34 12L34 11ZM53 11L53 12L54 12L54 11ZM11 12L11 14L12 14L12 12ZM20 12L20 13L22 13L22 12ZM44 12L44 13L43 13L43 14L42 14L42 15L40 15L40 16L38 16L38 19L39 19L39 18L41 18L41 17L42 17L42 16L44 16L44 17L43 17L43 19L40 19L40 20L39 20L39 21L43 21L43 20L44 20L44 22L46 22L46 24L47 24L47 25L48 25L48 26L49 26L49 25L50 25L50 23L48 23L48 22L49 22L49 21L48 21L48 22L47 22L47 21L46 21L46 20L47 20L47 19L48 19L48 20L50 20L50 18L49 18L49 17L45 17L45 16L44 16L44 13L45 13L45 15L47 15L47 16L48 16L48 15L50 15L50 14L47 14L47 13L45 13L45 12ZM13 13L13 14L14 14L14 13ZM2 14L2 15L5 15L5 14ZM20 14L20 15L19 15L19 16L21 16L21 17L22 17L22 15L21 15L21 14ZM4 16L4 17L2 17L2 18L4 18L4 17L5 17L5 16ZM17 16L17 17L18 17L18 16ZM27 17L27 18L28 18L28 17ZM63 17L63 18L62 18L62 21L63 21L63 20L64 20L64 19L63 19L63 18L65 18L65 17ZM14 18L14 19L15 19L15 18ZM44 18L44 19L47 19L47 18ZM48 18L48 19L49 19L49 18ZM27 19L27 20L28 20L28 19ZM51 19L51 20L52 20L52 19ZM4 20L4 21L5 21L5 20ZM65 21L65 22L66 22L66 21ZM24 22L24 24L25 24L25 22ZM53 22L53 23L54 23L54 22ZM47 23L47 24L48 24L48 25L49 25L49 24L48 24L48 23ZM10 24L10 26L11 26L11 24ZM57 24L57 25L59 25L59 24ZM63 24L63 25L65 25L65 24ZM4 25L4 26L5 26L5 27L7 27L7 26L5 26L5 25ZM32 25L32 26L33 26L33 27L35 27L35 26L34 26L34 25ZM67 25L67 26L68 26L68 25ZM64 26L64 27L65 27L65 28L66 28L66 27L65 27L65 26ZM67 27L67 28L68 28L68 27ZM11 28L11 29L9 29L9 30L10 30L10 32L11 32L11 30L12 30L12 31L14 31L14 30L12 30L12 29L13 29L13 28ZM38 28L38 29L40 29L40 28ZM48 29L48 30L49 30L49 29ZM39 30L39 31L38 31L38 32L43 32L43 33L40 33L40 35L41 35L41 34L43 34L43 33L44 33L44 36L43 36L43 37L42 37L42 36L41 36L41 37L42 37L42 38L40 38L40 37L39 37L39 40L41 40L41 39L42 39L42 38L43 38L43 39L45 39L45 40L47 40L47 38L45 38L45 37L44 37L44 36L45 36L45 33L44 33L44 32L43 32L43 31L40 31L40 30ZM60 30L60 31L61 31L61 32L62 32L62 31L61 31L61 30ZM12 32L12 33L13 33L13 32ZM17 32L17 33L18 33L18 32ZM66 32L66 34L68 34L68 32ZM5 33L5 36L8 36L8 33ZM28 33L28 34L27 34L27 35L28 35L28 36L27 36L27 37L28 37L28 36L29 36L29 33ZM33 33L33 36L36 36L36 33ZM61 33L61 36L64 36L64 33ZM6 34L6 35L7 35L7 34ZM15 34L15 35L16 35L16 34ZM34 34L34 35L35 35L35 34ZM54 34L54 35L55 35L55 34ZM62 34L62 35L63 35L63 34ZM57 35L57 36L58 36L58 37L59 37L59 36L58 36L58 35ZM67 35L67 36L68 36L68 35ZM50 36L50 37L51 37L51 36ZM54 36L54 37L55 37L55 36ZM0 37L0 38L2 38L2 37ZM9 37L9 38L10 38L10 37ZM12 37L12 38L11 38L11 40L10 40L10 41L11 41L11 42L12 42L12 39L13 39L13 37ZM27 38L27 39L24 39L24 41L23 41L23 42L20 42L20 43L19 43L19 44L20 44L20 45L21 45L21 44L24 44L24 43L23 43L23 42L24 42L24 41L25 41L25 40L27 40L27 39L28 39L28 38ZM29 38L29 39L30 39L30 38ZM48 38L48 39L49 39L49 40L51 40L51 38ZM61 38L61 40L60 40L60 42L58 42L58 43L60 43L60 42L61 42L61 44L60 44L60 45L65 45L65 44L62 44L62 42L63 42L63 41L62 41L62 38ZM31 39L31 41L30 41L30 40L28 40L28 41L30 41L30 42L32 42L32 45L33 45L33 46L32 46L32 47L33 47L33 46L34 46L34 45L33 45L33 44L34 44L34 42L35 42L35 43L36 43L36 42L35 42L35 41L34 41L34 42L32 42L32 41L33 41L33 40L32 40L32 39ZM52 39L52 40L53 40L53 39ZM21 40L21 41L22 41L22 40ZM6 41L6 42L7 42L7 43L5 43L5 44L8 44L8 42L7 42L7 41ZM13 41L13 42L16 42L16 41ZM49 41L49 42L50 42L50 41ZM44 42L44 43L45 43L45 42ZM14 43L14 44L15 44L15 45L16 45L16 43ZM20 43L20 44L21 44L21 43ZM39 43L39 44L40 44L40 43ZM58 44L58 45L59 45L59 44ZM6 45L6 46L7 46L7 45ZM12 45L12 47L13 47L13 45ZM44 46L44 47L45 47L45 49L46 49L46 47L45 47L45 46ZM60 46L60 47L62 47L62 46ZM63 46L63 47L65 47L65 46ZM6 48L6 49L7 49L7 48ZM50 48L50 49L51 49L51 48ZM55 49L55 50L56 50L56 49ZM25 50L25 52L26 52L26 53L28 53L28 54L27 54L27 55L28 55L28 54L29 54L29 55L30 55L30 54L29 54L29 53L28 53L28 52L27 52L27 51L26 51L26 50ZM6 51L6 52L7 52L7 53L5 53L5 55L4 55L4 56L3 56L3 57L4 57L4 58L5 58L5 57L6 57L6 56L7 56L7 55L6 55L6 54L7 54L7 53L8 53L8 52L9 52L9 51L8 51L8 52L7 52L7 51ZM13 51L13 52L12 52L12 53L13 53L13 52L14 52L14 51ZM50 52L50 53L51 53L51 52ZM55 53L55 54L54 54L54 55L56 55L56 53ZM40 54L40 55L41 55L41 54ZM16 55L16 57L17 57L17 59L19 59L19 57L17 57L17 55ZM67 55L67 56L68 56L68 55ZM4 56L4 57L5 57L5 56ZM22 57L22 58L24 58L24 57ZM66 57L66 58L65 58L65 59L67 59L67 57ZM45 58L45 59L46 59L46 58ZM13 59L13 60L14 60L14 59ZM3 60L3 61L5 61L5 60ZM27 60L27 61L29 61L29 62L30 62L30 63L31 63L31 60ZM42 60L42 61L43 61L43 60ZM33 61L33 64L36 64L36 61ZM61 61L61 64L64 64L64 61ZM34 62L34 63L35 63L35 62ZM62 62L62 63L63 63L63 62ZM65 62L65 63L66 63L66 62ZM9 64L9 68L10 68L10 67L11 67L11 64ZM17 64L17 65L18 65L18 64ZM65 64L65 65L67 65L67 64ZM31 65L31 66L32 66L32 65ZM63 65L63 66L61 66L61 68L63 68L63 66L64 66L64 67L65 67L65 66L64 66L64 65ZM12 66L12 67L13 67L13 66ZM18 66L18 67L19 67L19 66ZM21 67L21 68L20 68L20 69L21 69L21 68L23 68L23 67ZM27 67L27 68L28 68L28 67ZM51 67L51 68L52 68L52 67ZM54 68L54 69L56 69L56 68ZM57 68L57 69L58 69L58 68ZM0 0L0 7L7 7L7 0ZM1 1L1 6L6 6L6 1ZM2 2L2 5L5 5L5 2ZM62 0L62 7L69 7L69 0ZM63 1L63 6L68 6L68 1ZM64 2L64 5L67 5L67 2ZM0 62L0 69L7 69L7 62ZM1 63L1 68L6 68L6 63ZM2 64L2 67L5 67L5 64Z" fill="#000000"/></g></g></svg>
