<?xml version="1.0" encoding="UTF-8"?>
<svg xmlns="http://www.w3.org/2000/svg" version="1.1" width="300" height="300" viewBox="0 0 300 300"><rect x="0" y="0" width="300" height="300" fill="#ffffff"/><g transform="scale(4.348)"><g transform="translate(0,0)"><path fill-rule="evenodd" d="M8 0L8 2L9 2L9 3L10 3L10 4L11 4L11 6L10 6L10 5L9 5L9 4L8 4L8 9L9 9L9 10L10 10L10 9L11 9L11 11L10 11L10 14L11 14L11 11L12 11L12 13L15 13L15 14L12 14L12 15L13 15L13 16L11 16L11 18L10 18L10 17L8 17L8 16L9 16L9 15L7 15L7 14L6 14L6 13L8 13L8 14L9 14L9 13L8 13L8 12L6 12L6 11L8 11L8 10L6 10L6 11L3 11L3 12L2 12L2 11L1 11L1 10L3 10L3 8L0 8L0 11L1 11L1 12L2 12L2 13L3 13L3 12L4 12L4 14L5 14L5 15L3 15L3 14L1 14L1 13L0 13L0 15L1 15L1 16L0 16L0 18L1 18L1 19L2 19L2 18L1 18L1 17L2 17L2 15L3 15L3 17L4 17L4 18L3 18L3 19L4 19L4 18L6 18L6 19L5 19L5 20L6 20L6 21L4 21L4 20L2 20L2 21L4 21L4 22L6 22L6 23L8 23L8 24L10 24L10 25L9 25L9 26L8 26L8 25L7 25L7 24L6 24L6 25L7 25L7 26L6 26L6 27L5 27L5 23L3 23L3 22L1 22L1 23L0 23L0 24L2 24L2 25L0 25L0 26L1 26L1 27L2 27L2 29L1 29L1 28L0 28L0 29L1 29L1 30L4 30L4 29L5 29L5 28L6 28L6 29L7 29L7 28L8 28L8 27L9 27L9 29L8 29L8 30L10 30L10 29L11 29L11 30L13 30L13 32L12 32L12 33L11 33L11 32L10 32L10 31L7 31L7 30L6 30L6 31L4 31L4 32L2 32L2 31L0 31L0 37L1 37L1 38L4 38L4 37L8 37L8 38L6 38L6 39L8 39L8 40L10 40L10 41L8 41L8 42L6 42L6 41L7 41L7 40L4 40L4 42L5 42L5 43L4 43L4 44L2 44L2 43L1 43L1 42L2 42L2 41L3 41L3 40L2 40L2 39L0 39L0 41L1 41L1 42L0 42L0 44L2 44L2 47L3 47L3 46L4 46L4 45L5 45L5 43L8 43L8 44L6 44L6 45L8 45L8 44L9 44L9 45L10 45L10 46L9 46L9 48L8 48L8 46L5 46L5 47L4 47L4 48L5 48L5 47L7 47L7 48L6 48L6 49L4 49L4 50L2 50L2 51L1 51L1 54L2 54L2 52L3 52L3 51L4 51L4 52L6 52L6 53L5 53L5 54L4 54L4 55L2 55L2 59L3 59L3 58L4 58L4 59L8 59L8 60L9 60L9 61L8 61L8 62L9 62L9 61L10 61L10 63L8 63L8 64L10 64L10 65L9 65L9 66L8 66L8 69L9 69L9 68L10 68L10 67L11 67L11 68L12 68L12 69L14 69L14 65L15 65L15 69L17 69L17 67L18 67L18 69L19 69L19 67L18 67L18 65L19 65L19 64L18 64L18 63L19 63L19 62L20 62L20 61L19 61L19 60L20 60L20 59L21 59L21 63L22 63L22 62L24 62L24 64L22 64L22 65L21 65L21 64L20 64L20 65L21 65L21 66L20 66L20 67L21 67L21 69L23 69L23 67L24 67L24 68L25 68L25 69L28 69L28 68L29 68L29 67L30 67L30 69L31 69L31 67L30 67L30 66L31 66L31 64L32 64L32 66L33 66L33 65L35 65L35 66L36 66L36 67L34 67L34 68L33 68L33 67L32 67L32 69L34 69L34 68L35 68L35 69L37 69L37 68L36 68L36 67L37 67L37 64L38 64L38 65L39 65L39 66L40 66L40 65L41 65L41 68L40 68L40 67L39 67L39 68L38 68L38 69L39 69L39 68L40 68L40 69L42 69L42 65L43 65L43 67L44 67L44 69L45 69L45 67L44 67L44 65L47 65L47 64L46 64L46 61L47 61L47 63L48 63L48 61L49 61L49 63L51 63L51 62L50 62L50 61L52 61L52 62L53 62L53 63L55 63L55 67L54 67L54 64L52 64L52 65L53 65L53 67L54 67L54 68L52 68L52 69L55 69L55 68L56 68L56 69L57 69L57 68L58 68L58 69L60 69L60 68L62 68L62 69L64 69L64 68L62 68L62 67L65 67L65 69L67 69L67 68L66 68L66 67L69 67L69 66L66 66L66 63L68 63L68 64L67 64L67 65L69 65L69 61L68 61L68 60L66 60L66 59L67 59L67 58L68 58L68 59L69 59L69 58L68 58L68 57L69 57L69 56L68 56L68 55L69 55L69 52L68 52L68 51L69 51L69 48L67 48L67 49L66 49L66 47L67 47L67 46L68 46L68 47L69 47L69 42L68 42L68 40L69 40L69 38L68 38L68 40L66 40L66 39L65 39L65 38L66 38L66 37L67 37L67 36L66 36L66 35L67 35L67 34L65 34L65 32L66 32L66 30L68 30L68 31L67 31L67 32L68 32L68 37L69 37L69 28L68 28L68 27L69 27L69 26L68 26L68 27L67 27L67 24L68 24L68 23L69 23L69 20L68 20L68 19L69 19L69 17L68 17L68 16L69 16L69 8L67 8L67 10L68 10L68 16L66 16L66 15L67 15L67 12L66 12L66 10L64 10L64 9L65 9L65 8L60 8L60 7L61 7L61 6L60 6L60 7L59 7L59 4L58 4L58 3L59 3L59 2L58 2L58 1L61 1L61 0L58 0L58 1L56 1L56 0L54 0L54 1L55 1L55 4L54 4L54 2L53 2L53 0L50 0L50 2L49 2L49 1L48 1L48 0L46 0L46 1L48 1L48 2L49 2L49 3L50 3L50 5L49 5L49 6L48 6L48 7L47 7L47 6L46 6L46 7L47 7L47 8L44 8L44 9L43 9L43 11L41 11L41 13L40 13L40 14L41 14L41 13L42 13L42 12L43 12L43 15L42 15L42 16L40 16L40 17L39 17L39 15L38 15L38 17L37 17L37 16L36 16L36 17L35 17L35 16L34 16L34 17L35 17L35 18L36 18L36 19L35 19L35 20L37 20L37 22L36 22L36 23L37 23L37 26L36 26L36 24L34 24L34 22L33 22L33 21L34 21L34 19L33 19L33 17L32 17L32 15L33 15L33 14L31 14L31 16L30 16L30 17L29 17L29 16L28 16L28 15L30 15L30 13L31 13L31 10L32 10L32 11L33 11L33 10L32 10L32 9L34 9L34 10L35 10L35 9L37 9L37 11L36 11L36 12L37 12L37 13L36 13L36 15L37 15L37 13L38 13L38 12L37 12L37 11L38 11L38 9L39 9L39 11L40 11L40 9L41 9L41 10L42 10L42 8L43 8L43 6L42 6L42 5L43 5L43 4L44 4L44 7L45 7L45 4L44 4L44 2L41 2L41 0L40 0L40 3L39 3L39 0L38 0L38 1L37 1L37 3L36 3L36 4L34 4L34 3L35 3L35 1L34 1L34 0L32 0L32 3L31 3L31 2L30 2L30 1L31 1L31 0L30 0L30 1L28 1L28 2L29 2L29 3L28 3L28 5L29 5L29 6L28 6L28 7L27 7L27 6L26 6L26 5L25 5L25 3L24 3L24 5L23 5L23 6L22 6L22 7L21 7L21 2L22 2L22 3L23 3L23 2L25 2L25 1L26 1L26 3L27 3L27 0L24 0L24 1L23 1L23 0L18 0L18 1L17 1L17 0L16 0L16 1L17 1L17 2L16 2L16 3L15 3L15 2L14 2L14 1L13 1L13 2L12 2L12 1L11 1L11 0L10 0L10 1L9 1L9 0ZM42 0L42 1L44 1L44 0ZM20 1L20 2L21 2L21 1ZM22 1L22 2L23 2L23 1ZM33 1L33 3L32 3L32 4L31 4L31 3L30 3L30 4L31 4L31 8L30 8L30 6L29 6L29 7L28 7L28 8L27 8L27 7L26 7L26 6L25 6L25 5L24 5L24 6L23 6L23 7L22 7L22 8L24 8L24 6L25 6L25 7L26 7L26 8L25 8L25 9L26 9L26 11L25 11L25 10L24 10L24 11L25 11L25 13L24 13L24 15L23 15L23 13L22 13L22 12L23 12L23 9L22 9L22 10L21 10L21 9L20 9L20 8L21 8L21 7L20 7L20 3L18 3L18 2L17 2L17 3L16 3L16 4L13 4L13 3L12 3L12 4L13 4L13 5L12 5L12 6L11 6L11 7L10 7L10 6L9 6L9 7L10 7L10 8L9 8L9 9L10 9L10 8L12 8L12 11L14 11L14 12L15 12L15 13L16 13L16 11L17 11L17 14L15 14L15 16L16 16L16 18L15 18L15 17L14 17L14 18L13 18L13 17L12 17L12 19L9 19L9 18L8 18L8 17L6 17L6 16L7 16L7 15L6 15L6 16L5 16L5 17L6 17L6 18L7 18L7 19L6 19L6 20L8 20L8 23L9 23L9 21L10 21L10 22L11 22L11 23L10 23L10 24L11 24L11 23L12 23L12 22L13 22L13 24L12 24L12 26L11 26L11 25L10 25L10 26L11 26L11 27L10 27L10 28L12 28L12 29L13 29L13 30L14 30L14 29L13 29L13 28L12 28L12 26L13 26L13 27L14 27L14 26L13 26L13 25L14 25L14 23L15 23L15 24L16 24L16 23L18 23L18 24L17 24L17 25L18 25L18 26L16 26L16 27L18 27L18 28L19 28L19 29L20 29L20 30L19 30L19 31L18 31L18 32L19 32L19 33L18 33L18 35L17 35L17 37L16 37L16 35L11 35L11 33L10 33L10 34L9 34L9 35L10 35L10 37L11 37L11 38L8 38L8 39L11 39L11 38L12 38L12 39L13 39L13 40L11 40L11 41L14 41L14 42L12 42L12 43L11 43L11 45L12 45L12 47L10 47L10 49L8 49L8 50L7 50L7 49L6 49L6 50L5 50L5 51L6 51L6 52L7 52L7 51L8 51L8 50L9 50L9 51L10 51L10 52L9 52L9 54L8 54L8 53L6 53L6 54L5 54L5 58L7 58L7 57L8 57L8 58L10 58L10 57L11 57L11 60L10 60L10 59L9 59L9 60L10 60L10 61L11 61L11 62L13 62L13 60L14 60L14 61L15 61L15 58L14 58L14 59L13 59L13 60L12 60L12 58L13 58L13 57L15 57L15 55L14 55L14 53L13 53L13 51L14 51L14 52L16 52L16 55L17 55L17 58L16 58L16 59L17 59L17 61L16 61L16 62L18 62L18 59L19 59L19 57L18 57L18 56L21 56L21 57L20 57L20 58L23 58L23 59L22 59L22 60L23 60L23 61L24 61L24 62L25 62L25 64L24 64L24 66L25 66L25 67L26 67L26 68L27 68L27 67L26 67L26 66L27 66L27 64L26 64L26 63L27 63L27 61L26 61L26 59L27 59L27 60L28 60L28 64L29 64L29 65L30 65L30 64L31 64L31 62L32 62L32 61L30 61L30 60L32 60L32 59L30 59L30 58L31 58L31 57L30 57L30 58L29 58L29 57L28 57L28 56L29 56L29 55L28 55L28 56L27 56L27 57L26 57L26 54L27 54L27 53L26 53L26 52L28 52L28 54L30 54L30 51L31 51L31 52L32 52L32 53L31 53L31 54L32 54L32 53L33 53L33 52L32 52L32 51L31 51L31 50L30 50L30 51L28 51L28 50L29 50L29 49L30 49L30 47L29 47L29 45L30 45L30 43L31 43L31 46L32 46L32 47L31 47L31 48L33 48L33 50L34 50L34 47L35 47L35 46L36 46L36 45L34 45L34 44L35 44L35 43L34 43L34 40L35 40L35 42L36 42L36 41L37 41L37 39L38 39L38 44L37 44L37 43L36 43L36 44L37 44L37 45L38 45L38 46L37 46L37 47L38 47L38 48L36 48L36 49L38 49L38 50L37 50L37 51L36 51L36 50L35 50L35 51L34 51L34 52L35 52L35 51L36 51L36 52L37 52L37 51L38 51L38 50L39 50L39 49L40 49L40 51L41 51L41 49L40 49L40 48L41 48L41 47L44 47L44 48L43 48L43 49L42 49L42 50L43 50L43 51L42 51L42 54L44 54L44 55L42 55L42 56L41 56L41 57L42 57L42 58L45 58L45 57L46 57L46 58L47 58L47 57L48 57L48 58L49 58L49 59L53 59L53 57L52 57L52 56L51 56L51 55L53 55L53 56L54 56L54 55L55 55L55 54L56 54L56 56L55 56L55 57L54 57L54 58L55 58L55 57L56 57L56 58L57 58L57 57L56 57L56 56L58 56L58 55L57 55L57 53L56 53L56 52L58 52L58 54L60 54L60 55L62 55L62 56L61 56L61 60L63 60L63 59L62 59L62 58L63 58L63 57L62 57L62 56L64 56L64 54L65 54L65 53L66 53L66 57L68 57L68 56L67 56L67 55L68 55L68 54L67 54L67 51L68 51L68 50L67 50L67 51L66 51L66 50L65 50L65 49L64 49L64 50L63 50L63 48L65 48L65 47L64 47L64 46L67 46L67 45L68 45L68 42L67 42L67 41L66 41L66 40L64 40L64 38L65 38L65 37L61 37L61 38L60 38L60 37L59 37L59 36L60 36L60 32L61 32L61 29L60 29L60 30L59 30L59 28L58 28L58 27L60 27L60 28L62 28L62 30L63 30L63 31L64 31L64 30L66 30L66 29L68 29L68 28L67 28L67 27L66 27L66 26L65 26L65 25L66 25L66 24L67 24L67 23L66 23L66 24L65 24L65 22L67 22L67 21L68 21L68 20L67 20L67 19L68 19L68 18L67 18L67 17L65 17L65 19L64 19L64 16L65 16L65 15L66 15L66 13L65 13L65 15L64 15L64 12L63 12L63 13L62 13L62 12L60 12L60 16L59 16L59 15L58 15L58 14L59 14L59 13L58 13L58 11L59 11L59 9L60 9L60 10L61 10L61 11L62 11L62 10L63 10L63 11L64 11L64 10L63 10L63 9L62 9L62 10L61 10L61 9L60 9L60 8L59 8L59 9L58 9L58 4L57 4L57 2L56 2L56 5L54 5L54 4L53 4L53 3L52 3L52 4L53 4L53 5L51 5L51 8L50 8L50 10L49 10L49 9L48 9L48 8L49 8L49 7L50 7L50 6L49 6L49 7L48 7L48 8L47 8L47 9L46 9L46 10L45 10L45 13L44 13L44 14L45 14L45 13L46 13L46 14L47 14L47 13L48 13L48 15L50 15L50 16L51 16L51 17L50 17L50 18L49 18L49 21L48 21L48 19L46 19L46 20L45 20L45 17L44 17L44 15L43 15L43 17L42 17L42 18L41 18L41 17L40 17L40 19L39 19L39 20L38 20L38 21L39 21L39 22L40 22L40 24L39 24L39 23L38 23L38 24L39 24L39 25L38 25L38 26L37 26L37 27L36 27L36 28L39 28L39 25L40 25L40 28L43 28L43 27L45 27L45 25L46 25L46 26L47 26L47 29L46 29L46 28L45 28L45 32L46 32L46 34L44 34L44 31L43 31L43 30L44 30L44 29L40 29L40 30L42 30L42 35L41 35L41 34L39 34L39 33L40 33L40 31L39 31L39 29L35 29L35 30L34 30L34 31L35 31L35 32L36 32L36 30L37 30L37 32L38 32L38 34L39 34L39 35L37 35L37 38L36 38L36 37L33 37L33 42L32 42L32 43L31 43L31 40L30 40L30 39L31 39L31 38L32 38L32 36L31 36L31 35L32 35L32 32L33 32L33 31L32 31L32 30L31 30L31 29L30 29L30 28L31 28L31 26L32 26L32 25L30 25L30 27L29 27L29 28L27 28L27 27L28 27L28 26L29 26L29 25L28 25L28 24L27 24L27 23L28 23L28 22L30 22L30 18L32 18L32 17L30 17L30 18L29 18L29 17L28 17L28 16L27 16L27 15L26 15L26 16L27 16L27 17L26 17L26 18L27 18L27 20L29 20L29 21L28 21L28 22L27 22L27 23L26 23L26 24L25 24L25 22L26 22L26 19L25 19L25 16L24 16L24 15L25 15L25 14L26 14L26 12L27 12L27 13L28 13L28 14L29 14L29 13L30 13L30 12L29 12L29 10L31 10L31 9L32 9L32 4L33 4L33 3L34 3L34 1ZM51 1L51 2L52 2L52 1ZM46 2L46 3L47 3L47 2ZM17 3L17 4L18 4L18 3ZM38 3L38 4L39 4L39 5L38 5L38 6L37 6L37 7L38 7L38 6L39 6L39 9L40 9L40 6L39 6L39 5L40 5L40 4L41 4L41 5L42 5L42 4L41 4L41 3L40 3L40 4L39 4L39 3ZM60 3L60 5L61 5L61 3ZM46 4L46 5L47 5L47 4ZM13 5L13 6L12 6L12 8L13 8L13 9L14 9L14 8L15 8L15 9L16 9L16 8L15 8L15 6L16 6L16 7L17 7L17 6L16 6L16 5L15 5L15 6L14 6L14 5ZM18 5L18 9L19 9L19 10L20 10L20 11L21 11L21 10L20 10L20 9L19 9L19 5ZM33 5L33 8L36 8L36 5ZM56 5L56 7L57 7L57 5ZM13 6L13 8L14 8L14 6ZM34 6L34 7L35 7L35 6ZM41 6L41 8L42 8L42 6ZM52 6L52 9L51 9L51 10L50 10L50 11L48 11L48 9L47 9L47 10L46 10L46 11L48 11L48 13L50 13L50 12L51 12L51 10L52 10L52 11L54 11L54 12L52 12L52 13L51 13L51 16L52 16L52 19L50 19L50 21L49 21L49 22L48 22L48 21L47 21L47 22L46 22L46 21L45 21L45 20L44 20L44 21L43 21L43 23L44 23L44 21L45 21L45 23L47 23L47 26L48 26L48 29L47 29L47 30L48 30L48 33L47 33L47 34L46 34L46 35L44 35L44 34L43 34L43 35L42 35L42 36L40 36L40 35L39 35L39 36L38 36L38 37L39 37L39 38L38 38L38 39L40 39L40 41L39 41L39 42L42 42L42 43L41 43L41 44L42 44L42 45L44 45L44 46L45 46L45 47L46 47L46 45L47 45L47 47L48 47L48 45L49 45L49 47L50 47L50 48L48 48L48 50L50 50L50 48L52 48L52 49L51 49L51 50L53 50L53 51L52 51L52 53L51 53L51 52L50 52L50 51L48 51L48 53L47 53L47 54L46 54L46 52L47 52L47 50L46 50L46 49L47 49L47 48L44 48L44 50L46 50L46 51L44 51L44 54L45 54L45 55L44 55L44 57L45 57L45 55L48 55L48 57L49 57L49 58L50 58L50 57L51 57L51 58L52 58L52 57L51 57L51 56L50 56L50 57L49 57L49 54L50 54L50 55L51 55L51 54L52 54L52 53L53 53L53 54L54 54L54 53L55 53L55 52L56 52L56 51L57 51L57 50L58 50L58 51L59 51L59 53L60 53L60 54L61 54L61 53L62 53L62 55L63 55L63 54L64 54L64 53L65 53L65 51L63 51L63 50L62 50L62 48L63 48L63 46L64 46L64 40L62 40L62 39L63 39L63 38L62 38L62 39L60 39L60 38L59 38L59 39L60 39L60 40L58 40L58 35L57 35L57 34L58 34L58 33L59 33L59 32L60 32L60 31L59 31L59 30L58 30L58 28L57 28L57 26L58 26L58 25L59 25L59 26L60 26L60 21L61 21L61 22L62 22L62 25L63 25L63 22L64 22L64 21L65 21L65 20L64 20L64 21L63 21L63 20L62 20L62 17L63 17L63 15L62 15L62 17L61 17L61 16L60 16L60 17L59 17L59 16L58 16L58 15L57 15L57 16L56 16L56 18L55 18L55 19L53 19L53 18L54 18L54 17L55 17L55 15L54 15L54 16L52 16L52 15L53 15L53 14L54 14L54 13L55 13L55 11L56 11L56 13L57 13L57 14L58 14L58 13L57 13L57 11L58 11L58 9L57 9L57 8L56 8L56 10L54 10L54 9L53 9L53 8L55 8L55 6L54 6L54 7L53 7L53 6ZM5 8L5 9L4 9L4 10L5 10L5 9L7 9L7 8ZM26 8L26 9L27 9L27 8ZM37 8L37 9L38 9L38 8ZM52 9L52 10L53 10L53 9ZM14 10L14 11L15 11L15 10ZM17 10L17 11L18 11L18 10ZM27 10L27 11L28 11L28 10ZM5 12L5 13L6 13L6 12ZM18 12L18 13L19 13L19 15L18 15L18 16L19 16L19 18L18 18L18 19L19 19L19 20L18 20L18 21L16 21L16 20L17 20L17 18L16 18L16 19L14 19L14 20L15 20L15 23L16 23L16 22L18 22L18 23L19 23L19 24L18 24L18 25L19 25L19 27L21 27L21 26L20 26L20 23L21 23L21 22L22 22L22 21L23 21L23 23L22 23L22 24L23 24L23 23L24 23L24 21L25 21L25 19L24 19L24 16L23 16L23 15L22 15L22 18L21 18L21 16L20 16L20 15L21 15L21 14L20 14L20 12ZM28 12L28 13L29 13L29 12ZM32 12L32 13L33 13L33 12ZM46 12L46 13L47 13L47 12ZM52 13L52 14L53 14L53 13ZM34 14L34 15L35 15L35 14ZM45 15L45 16L46 16L46 18L48 18L48 16L46 16L46 15ZM57 16L57 17L58 17L58 18L56 18L56 19L58 19L58 18L59 18L59 21L58 21L58 22L57 22L57 21L56 21L56 20L54 20L54 22L53 22L53 21L52 21L52 22L53 22L53 23L54 23L54 22L55 22L55 23L56 23L56 24L54 24L54 25L52 25L52 23L49 23L49 25L48 25L48 26L49 26L49 28L50 28L50 30L52 30L52 29L51 29L51 27L52 27L52 26L53 26L53 27L54 27L54 28L55 28L55 29L54 29L54 31L52 31L52 32L50 32L50 31L49 31L49 32L50 32L50 34L51 34L51 36L50 36L50 38L52 38L52 39L53 39L53 40L55 40L55 39L53 39L53 38L52 38L52 36L53 36L53 37L54 37L54 38L56 38L56 36L57 36L57 35L56 35L56 36L55 36L55 34L56 34L56 31L57 31L57 30L56 30L56 27L55 27L55 26L57 26L57 25L58 25L58 22L59 22L59 21L60 21L60 20L61 20L61 21L62 21L62 22L63 22L63 21L62 21L62 20L61 20L61 17L60 17L60 18L59 18L59 17L58 17L58 16ZM38 17L38 18L37 18L37 19L38 19L38 18L39 18L39 17ZM20 18L20 19L21 19L21 21L20 21L20 20L19 20L19 21L18 21L18 22L19 22L19 21L20 21L20 22L21 22L21 21L22 21L22 20L23 20L23 21L24 21L24 20L23 20L23 19L21 19L21 18ZM28 18L28 19L29 19L29 18ZM42 18L42 19L44 19L44 18ZM12 19L12 20L13 20L13 19ZM32 19L32 20L33 20L33 19ZM40 19L40 22L41 22L41 24L40 24L40 25L41 25L41 26L42 26L42 27L43 27L43 26L42 26L42 25L43 25L43 24L42 24L42 21L41 21L41 19ZM10 20L10 21L11 21L11 20ZM6 21L6 22L7 22L7 21ZM13 21L13 22L14 22L14 21ZM31 21L31 23L30 23L30 24L33 24L33 25L34 25L34 26L35 26L35 25L34 25L34 24L33 24L33 22L32 22L32 21ZM50 21L50 22L51 22L51 21ZM55 21L55 22L56 22L56 23L57 23L57 22L56 22L56 21ZM47 22L47 23L48 23L48 22ZM2 23L2 24L3 24L3 25L4 25L4 24L3 24L3 23ZM24 24L24 25L25 25L25 26L24 26L24 27L25 27L25 28L26 28L26 29L27 29L27 28L26 28L26 27L25 27L25 26L26 26L26 25L27 25L27 26L28 26L28 25L27 25L27 24L26 24L26 25L25 25L25 24ZM44 24L44 25L45 25L45 24ZM50 24L50 25L49 25L49 26L50 26L50 25L51 25L51 24ZM56 24L56 25L57 25L57 24ZM64 24L64 25L65 25L65 24ZM7 26L7 27L6 27L6 28L7 28L7 27L8 27L8 26ZM64 26L64 27L63 27L63 28L64 28L64 29L65 29L65 28L64 28L64 27L65 27L65 26ZM3 27L3 29L4 29L4 27ZM22 27L22 29L23 29L23 30L24 30L24 31L22 31L22 30L20 30L20 33L21 33L21 34L20 34L20 35L21 35L21 36L20 36L20 37L19 37L19 35L18 35L18 37L17 37L17 38L16 38L16 37L15 37L15 36L14 36L14 37L13 37L13 36L11 36L11 37L13 37L13 39L14 39L14 40L15 40L15 38L16 38L16 41L17 41L17 42L16 42L16 43L18 43L18 45L19 45L19 47L18 47L18 48L19 48L19 51L18 51L18 50L17 50L17 51L16 51L16 48L17 48L17 47L16 47L16 45L17 45L17 44L16 44L16 45L15 45L15 43L12 43L12 45L13 45L13 47L12 47L12 48L11 48L11 50L10 50L10 51L11 51L11 50L12 50L12 51L13 51L13 50L14 50L14 51L16 51L16 52L17 52L17 51L18 51L18 54L17 54L17 55L19 55L19 54L20 54L20 53L21 53L21 51L20 51L20 50L22 50L22 51L23 51L23 50L24 50L24 51L25 51L25 52L22 52L22 54L24 54L24 53L25 53L25 54L26 54L26 53L25 53L25 52L26 52L26 51L27 51L27 50L26 50L26 49L27 49L27 48L28 48L28 49L29 49L29 47L28 47L28 45L29 45L29 44L27 44L27 43L26 43L26 46L25 46L25 47L24 47L24 45L25 45L25 43L24 43L24 42L25 42L25 38L26 38L26 41L27 41L27 42L28 42L28 40L29 40L29 38L30 38L30 37L31 37L31 36L30 36L30 37L29 37L29 35L28 35L28 34L31 34L31 32L32 32L32 31L31 31L31 30L28 30L28 32L27 32L27 31L26 31L26 32L27 32L27 34L26 34L26 35L24 35L24 36L25 36L25 38L24 38L24 39L23 39L23 38L22 38L22 37L23 37L23 36L22 36L22 34L24 34L24 33L25 33L25 30L24 30L24 29L23 29L23 27ZM34 27L34 28L35 28L35 27ZM20 28L20 29L21 29L21 28ZM32 28L32 29L33 29L33 28ZM16 29L16 30L17 30L17 29ZM55 30L55 31L56 31L56 30ZM6 31L6 32L7 32L7 31ZM14 31L14 33L15 33L15 31ZM16 31L16 32L17 32L17 31ZM30 31L30 32L31 32L31 31ZM38 31L38 32L39 32L39 31ZM58 31L58 32L57 32L57 33L58 33L58 32L59 32L59 31ZM21 32L21 33L22 33L22 32ZM52 32L52 35L53 35L53 36L54 36L54 35L53 35L53 34L54 34L54 33L55 33L55 32ZM1 33L1 34L2 34L2 35L3 35L3 36L4 36L4 33ZM5 33L5 36L8 36L8 33ZM16 33L16 34L17 34L17 33ZM33 33L33 36L36 36L36 33ZM48 33L48 34L47 34L47 35L46 35L46 39L45 39L45 38L43 38L43 37L44 37L44 35L43 35L43 36L42 36L42 38L41 38L41 37L40 37L40 36L39 36L39 37L40 37L40 38L41 38L41 41L42 41L42 42L43 42L43 41L44 41L44 43L45 43L45 45L46 45L46 44L47 44L47 45L48 45L48 44L47 44L47 43L50 43L50 47L51 47L51 46L53 46L53 45L54 45L54 46L55 46L55 45L56 45L56 48L55 48L55 47L54 47L54 48L53 48L53 47L52 47L52 48L53 48L53 49L54 49L54 51L55 51L55 49L56 49L56 48L58 48L58 50L59 50L59 51L62 51L62 50L59 50L59 48L60 48L60 49L61 49L61 48L62 48L62 46L63 46L63 45L61 45L61 44L60 44L60 43L62 43L62 44L63 44L63 43L62 43L62 42L60 42L60 41L61 41L61 40L60 40L60 41L58 41L58 44L60 44L60 46L61 46L61 48L60 48L60 47L59 47L59 45L58 45L58 47L57 47L57 45L56 45L56 44L55 44L55 41L54 41L54 43L53 43L53 45L52 45L52 43L50 43L50 42L53 42L53 41L52 41L52 40L51 40L51 39L47 39L47 37L48 37L48 38L49 38L49 37L48 37L48 36L49 36L49 33ZM61 33L61 36L64 36L64 33ZM6 34L6 35L7 35L7 34ZM34 34L34 35L35 35L35 34ZM62 34L62 35L63 35L63 34ZM47 35L47 36L48 36L48 35ZM1 36L1 37L2 37L2 36ZM21 36L21 37L20 37L20 38L19 38L19 37L18 37L18 38L17 38L17 41L18 41L18 42L19 42L19 41L20 41L20 42L21 42L21 40L20 40L20 38L21 38L21 37L22 37L22 36ZM28 37L28 38L27 38L27 40L28 40L28 38L29 38L29 37ZM18 38L18 41L19 41L19 38ZM34 38L34 39L35 39L35 40L36 40L36 38ZM42 38L42 41L43 41L43 38ZM22 39L22 40L23 40L23 39ZM46 39L46 41L45 41L45 40L44 40L44 41L45 41L45 42L46 42L46 41L47 41L47 39ZM1 40L1 41L2 41L2 40ZM48 40L48 41L49 41L49 42L50 42L50 40ZM22 41L22 42L23 42L23 41ZM56 41L56 42L57 42L57 41ZM8 42L8 43L9 43L9 44L10 44L10 42ZM29 42L29 43L30 43L30 42ZM59 42L59 43L60 43L60 42ZM19 43L19 45L20 45L20 46L21 46L21 47L19 47L19 48L21 48L21 49L22 49L22 48L21 48L21 47L22 47L22 46L23 46L23 45L22 45L22 43L21 43L21 45L20 45L20 43ZM32 43L32 44L33 44L33 43ZM42 43L42 44L43 44L43 43ZM65 43L65 45L67 45L67 44L66 44L66 43ZM38 44L38 45L39 45L39 44ZM0 45L0 46L1 46L1 45ZM14 45L14 48L13 48L13 49L12 49L12 50L13 50L13 49L14 49L14 50L15 50L15 45ZM21 45L21 46L22 46L22 45ZM40 45L40 46L41 46L41 45ZM0 47L0 48L1 48L1 49L0 49L0 50L1 50L1 49L2 49L2 48L1 48L1 47ZM23 47L23 48L24 48L24 50L25 50L25 51L26 51L26 50L25 50L25 48L24 48L24 47ZM26 47L26 48L27 48L27 47ZM58 47L58 48L59 48L59 47ZM6 50L6 51L7 51L7 50ZM10 52L10 54L12 54L12 55L11 55L11 56L12 56L12 55L13 55L13 53L11 53L11 52ZM19 52L19 53L20 53L20 52ZM38 52L38 53L39 53L39 55L37 55L37 53L34 53L34 54L36 54L36 56L35 56L35 55L34 55L34 56L33 56L33 57L34 57L34 58L33 58L33 59L34 59L34 60L35 60L35 59L36 59L36 60L38 60L38 62L39 62L39 63L38 63L38 64L39 64L39 65L40 65L40 62L41 62L41 61L42 61L42 62L44 62L44 63L43 63L43 65L44 65L44 63L45 63L45 62L44 62L44 60L46 60L46 59L41 59L41 58L40 58L40 53L39 53L39 52ZM53 52L53 53L54 53L54 52ZM60 52L60 53L61 53L61 52ZM62 52L62 53L63 53L63 52ZM48 53L48 54L49 54L49 53ZM50 53L50 54L51 54L51 53ZM6 54L6 55L7 55L7 56L6 56L6 57L7 57L7 56L8 56L8 54ZM0 55L0 57L1 57L1 55ZM22 55L22 56L23 56L23 55ZM30 55L30 56L32 56L32 55ZM3 56L3 57L4 57L4 56ZM24 56L24 57L25 57L25 56ZM34 56L34 57L35 57L35 58L34 58L34 59L35 59L35 58L38 58L38 60L39 60L39 61L41 61L41 60L39 60L39 59L40 59L40 58L38 58L38 57L39 57L39 56L38 56L38 57L37 57L37 56L36 56L36 57L35 57L35 56ZM27 57L27 59L29 59L29 58L28 58L28 57ZM58 57L58 58L59 58L59 57ZM64 57L64 58L65 58L65 59L64 59L64 60L65 60L65 61L66 61L66 62L67 62L67 61L66 61L66 60L65 60L65 59L66 59L66 58L65 58L65 57ZM0 58L0 61L1 61L1 58ZM24 58L24 59L26 59L26 58ZM47 59L47 61L48 61L48 59ZM54 59L54 60L53 60L53 61L54 61L54 62L55 62L55 61L56 61L56 63L58 63L58 66L56 66L56 67L58 67L58 68L60 68L60 66L61 66L61 67L62 67L62 66L63 66L63 65L62 65L62 66L61 66L61 65L60 65L60 63L59 63L59 59L58 59L58 60L57 60L57 59L56 59L56 60L55 60L55 59ZM3 60L3 61L5 61L5 60ZM6 60L6 61L7 61L7 60ZM49 60L49 61L50 61L50 60ZM54 60L54 61L55 61L55 60ZM56 60L56 61L57 61L57 62L58 62L58 61L57 61L57 60ZM29 61L29 63L30 63L30 61ZM33 61L33 64L36 64L36 61ZM61 61L61 64L64 64L64 61ZM34 62L34 63L35 63L35 62ZM62 62L62 63L63 63L63 62ZM11 63L11 67L12 67L12 68L13 68L13 67L12 67L12 64L14 64L14 63ZM41 63L41 65L42 65L42 63ZM15 64L15 65L16 65L16 67L17 67L17 64ZM48 64L48 66L47 66L47 67L46 67L46 69L47 69L47 68L48 68L48 69L50 69L50 68L49 68L49 67L50 67L50 65L51 65L51 64ZM22 65L22 67L23 67L23 65ZM9 66L9 67L10 67L10 66ZM28 66L28 67L29 67L29 66ZM48 66L48 67L49 67L49 66ZM68 68L68 69L69 69L69 68ZM0 0L0 7L7 7L7 0ZM1 1L1 6L6 6L6 1ZM2 2L2 5L5 5L5 2ZM62 0L62 7L69 7L69 0ZM63 1L63 6L68 6L68 1ZM64 2L64 5L67 5L67 2ZM0 62L0 69L7 69L7 62ZM1 63L1 68L6 68L6 63ZM2 64L2 67L5 67L5 64Z" fill="#000000"/></g></g></svg>
