<?xml version="1.0" encoding="UTF-8"?>
<svg xmlns="http://www.w3.org/2000/svg" version="1.1" width="300" height="300" viewBox="0 0 300 300"><rect x="0" y="0" width="300" height="300" fill="#ffffff"/><g transform="scale(4.348)"><g transform="translate(0,0)"><path fill-rule="evenodd" d="M8 0L8 4L9 4L9 3L12 3L12 4L10 4L10 7L9 7L9 5L8 5L8 7L9 7L9 8L12 8L12 9L9 9L9 10L12 10L12 11L10 11L10 12L9 12L9 11L8 11L8 10L6 10L6 9L7 9L7 8L4 8L4 9L2 9L2 8L0 8L0 11L1 11L1 12L0 12L0 13L2 13L2 15L3 15L3 16L1 16L1 14L0 14L0 17L1 17L1 19L0 19L0 21L1 21L1 22L0 22L0 25L1 25L1 27L2 27L2 28L4 28L4 27L5 27L5 26L4 26L4 25L5 25L5 21L7 21L7 22L6 22L6 23L7 23L7 24L6 24L6 25L7 25L7 24L8 24L8 25L9 25L9 26L10 26L10 27L11 27L11 29L10 29L10 28L9 28L9 30L8 30L8 29L7 29L7 28L8 28L8 27L7 27L7 26L6 26L6 27L7 27L7 28L6 28L6 29L7 29L7 30L5 30L5 31L4 31L4 30L3 30L3 31L1 31L1 30L2 30L2 29L0 29L0 32L1 32L1 33L0 33L0 34L1 34L1 35L2 35L2 32L3 32L3 34L4 34L4 35L3 35L3 36L0 36L0 38L1 38L1 40L0 40L0 41L1 41L1 40L2 40L2 41L3 41L3 40L2 40L2 38L3 38L3 39L4 39L4 41L7 41L7 42L6 42L6 43L5 43L5 42L4 42L4 43L3 43L3 42L2 42L2 43L3 43L3 44L1 44L1 43L0 43L0 44L1 44L1 45L2 45L2 46L0 46L0 48L1 48L1 47L2 47L2 46L3 46L3 44L4 44L4 46L5 46L5 47L4 47L4 48L3 48L3 49L4 49L4 51L5 51L5 49L9 49L9 51L8 51L8 52L9 52L9 51L10 51L10 50L11 50L11 52L12 52L12 51L13 51L13 50L15 50L15 49L18 49L18 50L19 50L19 49L21 49L21 50L20 50L20 51L17 51L17 50L16 50L16 52L13 52L13 53L10 53L10 54L9 54L9 55L8 55L8 53L7 53L7 52L3 52L3 51L2 51L2 53L0 53L0 61L1 61L1 58L2 58L2 59L3 59L3 58L2 58L2 57L3 57L3 56L2 56L2 54L3 54L3 53L4 53L4 54L5 54L5 55L4 55L4 57L5 57L5 58L4 58L4 59L7 59L7 60L6 60L6 61L8 61L8 62L11 62L11 64L10 64L10 63L8 63L8 65L14 65L14 62L16 62L16 60L15 60L15 61L14 61L14 60L13 60L13 59L16 59L16 58L17 58L17 59L18 59L18 58L19 58L19 60L18 60L18 61L17 61L17 63L15 63L15 66L14 66L14 67L13 67L13 66L10 66L10 67L8 67L8 69L9 69L9 68L10 68L10 69L13 69L13 68L14 68L14 67L15 67L15 66L16 66L16 64L17 64L17 63L18 63L18 61L19 61L19 60L20 60L20 63L19 63L19 64L18 64L18 65L17 65L17 66L19 66L19 67L18 67L18 68L17 68L17 67L16 67L16 68L15 68L15 69L16 69L16 68L17 68L17 69L19 69L19 67L20 67L20 66L22 66L22 64L23 64L23 67L22 67L22 68L21 68L21 69L22 69L22 68L23 68L23 69L24 69L24 66L27 66L27 67L26 67L26 68L25 68L25 69L27 69L27 67L28 67L28 66L30 66L30 65L31 65L31 67L30 67L30 68L29 68L29 69L31 69L31 67L33 67L33 68L32 68L32 69L33 69L33 68L34 68L34 69L35 69L35 68L34 68L34 67L35 67L35 66L34 66L34 65L37 65L37 67L39 67L39 66L40 66L40 63L41 63L41 67L40 67L40 68L38 68L38 69L40 69L40 68L41 68L41 67L43 67L43 63L42 63L42 62L43 62L43 61L42 61L42 58L45 58L45 60L44 60L44 59L43 59L43 60L44 60L44 69L46 69L46 67L45 67L45 62L46 62L46 61L47 61L47 63L46 63L46 64L47 64L47 65L48 65L48 68L47 68L47 69L52 69L52 68L53 68L53 67L52 67L52 66L51 66L51 65L52 65L52 63L53 63L53 64L56 64L56 65L53 65L53 66L54 66L54 69L55 69L55 68L56 68L56 69L60 69L60 67L59 67L59 68L58 68L58 67L57 67L57 66L56 66L56 65L59 65L59 64L60 64L60 66L61 66L61 67L62 67L62 66L63 66L63 65L65 65L65 66L64 66L64 68L65 68L65 69L67 69L67 68L65 68L65 66L69 66L69 64L68 64L68 65L65 65L65 63L66 63L66 62L67 62L67 63L68 63L68 60L65 60L65 59L68 59L68 58L69 58L69 56L68 56L68 55L67 55L67 58L65 58L65 59L64 59L64 60L61 60L61 59L62 59L62 57L63 57L63 58L64 58L64 55L65 55L65 57L66 57L66 55L65 55L65 54L67 54L67 53L69 53L69 52L68 52L68 50L64 50L64 48L63 48L63 49L62 49L62 46L63 46L63 47L66 47L66 46L67 46L67 47L68 47L68 48L69 48L69 47L68 47L68 46L67 46L67 44L68 44L68 42L69 42L69 39L68 39L68 38L69 38L69 35L68 35L68 33L69 33L69 32L67 32L67 34L65 34L65 33L66 33L66 32L63 32L63 30L64 30L64 31L68 31L68 30L65 30L65 29L66 29L66 27L65 27L65 26L67 26L67 28L68 28L68 29L69 29L69 28L68 28L68 26L69 26L69 25L68 25L68 24L69 24L69 23L68 23L68 22L69 22L69 20L68 20L68 18L67 18L67 17L68 17L68 12L69 12L69 11L68 11L68 10L69 10L69 8L65 8L65 9L64 9L64 8L63 8L63 9L60 9L60 8L59 8L59 4L58 4L58 5L57 5L57 6L56 6L56 5L55 5L55 4L56 4L56 2L57 2L57 3L59 3L59 2L58 2L58 1L61 1L61 0L57 0L57 1L55 1L55 0L52 0L52 1L51 1L51 0L50 0L50 1L49 1L49 0L47 0L47 1L44 1L44 0L41 0L41 1L40 1L40 0L38 0L38 1L40 1L40 7L39 7L39 4L38 4L38 3L37 3L37 1L36 1L36 0L35 0L35 1L34 1L34 3L33 3L33 0L32 0L32 1L30 1L30 0L23 0L23 1L22 1L22 0L17 0L17 1L14 1L14 0L13 0L13 1L14 1L14 2L13 2L13 3L12 3L12 0L11 0L11 2L10 2L10 1L9 1L9 0ZM19 1L19 2L17 2L17 3L16 3L16 2L14 2L14 3L13 3L13 5L11 5L11 7L12 7L12 8L13 8L13 10L14 10L14 11L12 11L12 12L13 12L13 15L14 15L14 17L13 17L13 18L12 18L12 19L14 19L14 17L16 17L16 19L15 19L15 20L11 20L11 19L10 19L10 18L11 18L11 17L12 17L12 15L8 15L8 17L3 17L3 18L2 18L2 20L1 20L1 21L3 21L3 22L1 22L1 24L2 24L2 25L3 25L3 24L4 24L4 21L5 21L5 19L6 19L6 20L7 20L7 21L8 21L8 19L10 19L10 20L11 20L11 21L9 21L9 22L10 22L10 23L9 23L9 24L10 24L10 25L12 25L12 24L10 24L10 23L13 23L13 24L15 24L15 25L17 25L17 26L16 26L16 27L15 27L15 26L14 26L14 28L13 28L13 27L12 27L12 26L11 26L11 27L12 27L12 28L13 28L13 29L12 29L12 30L13 30L13 29L14 29L14 31L15 31L15 33L16 33L16 34L15 34L15 35L16 35L16 39L18 39L18 40L20 40L20 41L19 41L19 42L18 42L18 41L17 41L17 40L16 40L16 41L15 41L15 39L14 39L14 40L13 40L13 41L12 41L12 40L10 40L10 41L11 41L11 42L12 42L12 43L10 43L10 42L9 42L9 44L10 44L10 45L6 45L6 44L7 44L7 43L6 43L6 44L5 44L5 43L4 43L4 44L5 44L5 46L7 46L7 47L5 47L5 48L8 48L8 47L9 47L9 48L10 48L10 49L11 49L11 50L12 50L12 49L14 49L14 48L12 48L12 46L11 46L11 45L12 45L12 44L13 44L13 42L15 42L15 43L16 43L16 42L17 42L17 44L16 44L16 46L13 46L13 47L16 47L16 48L17 48L17 47L18 47L18 46L17 46L17 44L18 44L18 43L19 43L19 48L18 48L18 49L19 49L19 48L20 48L20 44L21 44L21 42L20 42L20 41L22 41L22 42L23 42L23 41L24 41L24 42L25 42L25 41L26 41L26 40L25 40L25 38L23 38L23 39L24 39L24 40L22 40L22 39L21 39L21 40L20 40L20 36L22 36L22 37L21 37L21 38L22 38L22 37L24 37L24 36L22 36L22 35L23 35L23 33L30 33L30 34L28 34L28 35L27 35L27 34L24 34L24 35L25 35L25 37L26 37L26 36L27 36L27 37L28 37L28 38L29 38L29 39L28 39L28 43L29 43L29 42L30 42L30 41L31 41L31 40L30 40L30 41L29 41L29 39L30 39L30 37L29 37L29 35L30 35L30 36L31 36L31 35L32 35L32 33L30 33L30 32L29 32L29 31L30 31L30 29L27 29L27 30L29 30L29 31L28 31L28 32L26 32L26 31L25 31L25 32L24 32L24 31L23 31L23 30L22 30L22 31L23 31L23 32L22 32L22 33L21 33L21 34L20 34L20 35L19 35L19 34L17 34L17 33L18 33L18 32L19 32L19 33L20 33L20 31L21 31L21 30L20 30L20 29L23 29L23 27L24 27L24 28L25 28L25 29L26 29L26 27L27 27L27 28L28 28L28 27L33 27L33 28L32 28L32 29L31 29L31 30L32 30L32 32L35 32L35 31L37 31L37 30L38 30L38 31L39 31L39 30L38 30L38 29L40 29L40 30L42 30L42 28L43 28L43 31L40 31L40 33L44 33L44 34L43 34L43 35L41 35L41 34L39 34L39 35L37 35L37 37L31 37L31 39L32 39L32 40L33 40L33 39L32 39L32 38L37 38L37 37L38 37L38 36L40 36L40 37L39 37L39 38L38 38L38 39L34 39L34 41L35 41L35 42L37 42L37 43L34 43L34 42L33 42L33 41L32 41L32 42L31 42L31 45L30 45L30 47L31 47L31 48L32 48L32 49L29 49L29 48L28 48L28 49L27 49L27 51L28 51L28 50L29 50L29 52L31 52L31 54L30 54L30 53L28 53L28 54L27 54L27 53L26 53L26 51L24 51L24 50L21 50L21 52L22 52L22 53L21 53L21 55L22 55L22 56L23 56L23 54L24 54L24 56L25 56L25 55L26 55L26 56L28 56L28 59L29 59L29 57L30 57L30 56L31 56L31 55L32 55L32 56L34 56L34 57L31 57L31 58L30 58L30 60L33 60L33 59L34 59L34 60L37 60L37 62L38 62L38 63L37 63L37 65L38 65L38 63L40 63L40 62L41 62L41 60L39 60L39 62L38 62L38 59L39 59L39 58L40 58L40 59L41 59L41 58L40 58L40 57L41 57L41 56L42 56L42 57L44 57L44 54L45 54L45 53L46 53L46 54L47 54L47 53L46 53L46 52L49 52L49 54L50 54L50 53L51 53L51 54L52 54L52 55L53 55L53 54L52 54L52 53L54 53L54 52L55 52L55 53L56 53L56 52L58 52L58 55L57 55L57 54L56 54L56 55L55 55L55 57L56 57L56 56L57 56L57 57L58 57L58 58L56 58L56 59L55 59L55 58L52 58L52 57L53 57L53 56L52 56L52 57L51 57L51 56L50 56L50 55L49 55L49 56L50 56L50 57L49 57L49 59L50 59L50 60L49 60L49 64L50 64L50 65L49 65L49 68L52 68L52 67L51 67L51 66L50 66L50 65L51 65L51 63L52 63L52 62L53 62L53 59L54 59L54 61L55 61L55 62L54 62L54 63L56 63L56 64L57 64L57 63L56 63L56 60L57 60L57 61L58 61L58 63L60 63L60 62L59 62L59 61L60 61L60 59L61 59L61 58L59 58L59 57L60 57L60 55L64 55L64 54L65 54L65 52L63 52L63 53L64 53L64 54L62 54L62 53L61 53L61 52L62 52L62 51L64 51L64 50L62 50L62 51L61 51L61 48L59 48L59 47L58 47L58 48L59 48L59 49L58 49L58 50L57 50L57 49L56 49L56 48L57 48L57 47L56 47L56 48L54 48L54 44L55 44L55 46L56 46L56 44L55 44L55 43L54 43L54 41L56 41L56 42L57 42L57 44L58 44L58 46L61 46L61 45L63 45L63 44L61 44L61 43L64 43L64 46L66 46L66 45L65 45L65 44L67 44L67 43L66 43L66 41L63 41L63 42L62 42L62 41L61 41L61 40L59 40L59 38L60 38L60 39L64 39L64 40L68 40L68 39L67 39L67 38L68 38L68 35L65 35L65 37L63 37L63 38L62 38L62 37L60 37L60 36L57 36L57 33L56 33L56 32L57 32L57 31L56 31L56 30L57 30L57 29L56 29L56 28L58 28L58 31L59 31L59 32L58 32L58 35L59 35L59 32L61 32L61 31L62 31L62 29L61 29L61 31L60 31L60 30L59 30L59 29L60 29L60 28L61 28L61 27L62 27L62 28L63 28L63 26L64 26L64 25L67 25L67 24L68 24L68 23L64 23L64 22L68 22L68 20L67 20L67 18L66 18L66 16L67 16L67 13L65 13L65 12L68 12L68 11L67 11L67 10L68 10L68 9L67 9L67 10L66 10L66 11L65 11L65 10L64 10L64 11L63 11L63 12L62 12L62 11L61 11L61 10L60 10L60 9L58 9L58 8L57 8L57 9L58 9L58 12L57 12L57 13L58 13L58 14L59 14L59 13L61 13L61 14L62 14L62 15L61 15L61 16L60 16L60 15L59 15L59 17L58 17L58 19L60 19L60 20L61 20L61 24L60 24L60 23L58 23L58 22L59 22L59 21L58 21L58 20L57 20L57 21L56 21L56 15L57 15L57 14L56 14L56 13L55 13L55 14L56 14L56 15L55 15L55 18L54 18L54 19L52 19L52 17L53 17L53 16L54 16L54 14L53 14L53 12L52 12L52 10L53 10L53 11L55 11L55 10L56 10L56 11L57 11L57 10L56 10L56 8L55 8L55 7L56 7L56 6L55 6L55 7L54 7L54 5L50 5L50 2L51 2L51 4L52 4L52 2L51 2L51 1L50 1L50 2L49 2L49 1L48 1L48 2L47 2L47 4L46 4L46 5L44 5L44 4L45 4L45 3L46 3L46 2L45 2L45 3L44 3L44 2L42 2L42 1L41 1L41 2L42 2L42 3L41 3L41 4L43 4L43 5L44 5L44 6L43 6L43 8L40 8L40 10L38 10L38 9L37 9L37 11L38 11L38 13L37 13L37 12L36 12L36 13L37 13L37 14L35 14L35 13L34 13L34 11L36 11L36 9L35 9L35 10L34 10L34 9L33 9L33 10L32 10L32 9L31 9L31 8L30 8L30 9L26 9L26 8L28 8L28 6L29 6L29 7L30 7L30 6L31 6L31 7L32 7L32 6L31 6L31 5L32 5L32 4L33 4L33 3L32 3L32 4L31 4L31 3L30 3L30 2L28 2L28 1L25 1L25 2L23 2L23 5L22 5L22 3L21 3L21 2L20 2L20 1ZM53 1L53 2L54 2L54 3L55 3L55 1ZM25 2L25 3L24 3L24 5L23 5L23 6L22 6L22 8L24 8L24 9L23 9L23 10L22 10L22 9L20 9L20 8L21 8L21 3L19 3L19 4L16 4L16 3L15 3L15 5L14 5L14 7L13 7L13 6L12 6L12 7L13 7L13 8L14 8L14 9L15 9L15 11L14 11L14 15L16 15L16 16L17 16L17 17L18 17L18 18L19 18L19 17L22 17L22 16L23 16L23 15L24 15L24 14L25 14L25 13L27 13L27 15L28 15L28 16L26 16L26 15L25 15L25 16L24 16L24 17L23 17L23 19L24 19L24 21L23 21L23 22L24 22L24 23L23 23L23 24L22 24L22 23L21 23L21 24L20 24L20 23L19 23L19 20L20 20L20 22L22 22L22 20L21 20L21 19L22 19L22 18L20 18L20 19L17 19L17 20L16 20L16 21L15 21L15 22L14 22L14 21L13 21L13 23L15 23L15 24L16 24L16 23L15 23L15 22L17 22L17 25L20 25L20 26L21 26L21 25L24 25L24 26L27 26L27 27L28 27L28 25L27 25L27 24L26 24L26 25L25 25L25 23L26 23L26 22L25 22L25 20L26 20L26 21L27 21L27 22L28 22L28 20L29 20L29 21L33 21L33 22L31 22L31 23L34 23L34 24L36 24L36 23L34 23L34 22L35 22L35 21L33 21L33 20L32 20L32 19L34 19L34 20L36 20L36 19L34 19L34 18L35 18L35 17L36 17L36 18L37 18L37 17L38 17L38 18L39 18L39 19L37 19L37 21L38 21L38 20L39 20L39 21L40 21L40 20L43 20L43 19L40 19L40 16L42 16L42 17L41 17L41 18L44 18L44 19L45 19L45 18L46 18L46 20L44 20L44 23L45 23L45 24L44 24L44 25L43 25L43 24L42 24L42 25L41 25L41 26L43 26L43 27L44 27L44 30L45 30L45 28L46 28L46 29L47 29L47 30L48 30L48 29L49 29L49 28L50 28L50 30L51 30L51 31L52 31L52 32L51 32L51 33L49 33L49 32L48 32L48 31L44 31L44 33L45 33L45 34L44 34L44 37L45 37L45 38L43 38L43 36L41 36L41 37L40 37L40 38L39 38L39 41L38 41L38 46L37 46L37 47L36 47L36 46L35 46L35 47L34 47L34 48L33 48L33 50L32 50L32 51L34 51L34 52L35 52L35 50L36 50L36 49L34 49L34 48L35 48L35 47L36 47L36 48L37 48L37 49L38 49L38 50L37 50L37 52L36 52L36 53L35 53L35 54L34 54L34 53L33 53L33 52L32 52L32 53L33 53L33 54L32 54L32 55L34 55L34 56L35 56L35 57L34 57L34 59L35 59L35 57L38 57L38 58L39 58L39 57L40 57L40 54L42 54L42 55L43 55L43 54L44 54L44 53L45 53L45 50L46 50L46 51L51 51L51 53L52 53L52 51L53 51L53 50L55 50L55 51L56 51L56 50L55 50L55 49L53 49L53 50L52 50L52 48L53 48L53 47L52 47L52 43L53 43L53 42L52 42L52 40L51 40L51 41L50 41L50 39L51 39L51 38L52 38L52 36L53 36L53 35L54 35L54 34L56 34L56 33L52 33L52 32L53 32L53 31L54 31L54 32L55 32L55 30L56 30L56 29L54 29L54 28L53 28L53 30L52 30L52 29L51 29L51 27L52 27L52 21L51 21L51 20L49 20L49 19L50 19L50 18L51 18L51 17L52 17L52 15L53 15L53 14L52 14L52 12L51 12L51 9L52 9L52 8L53 8L53 10L55 10L55 9L54 9L54 8L53 8L53 6L52 6L52 7L51 7L51 6L50 6L50 7L49 7L49 6L48 6L48 7L49 7L49 8L47 8L47 6L46 6L46 7L45 7L45 6L44 6L44 7L45 7L45 8L44 8L44 9L45 9L45 10L46 10L46 13L45 13L45 11L44 11L44 13L42 13L42 15L39 15L39 13L40 13L40 14L41 14L41 11L39 11L39 13L38 13L38 16L37 16L37 17L36 17L36 16L35 16L35 14L34 14L34 15L33 15L33 16L32 16L32 14L33 14L33 12L32 12L32 13L31 13L31 11L32 11L32 10L31 10L31 9L30 9L30 10L31 10L31 11L30 11L30 12L29 12L29 10L28 10L28 12L29 12L29 14L28 14L28 13L27 13L27 12L26 12L26 11L27 11L27 10L26 10L26 9L25 9L25 8L26 8L26 7L27 7L27 5L28 5L28 4L29 4L29 3L27 3L27 4L26 4L26 2ZM35 2L35 3L36 3L36 4L37 4L37 3L36 3L36 2ZM48 2L48 3L49 3L49 2ZM43 3L43 4L44 4L44 3ZM60 3L60 5L61 5L61 3ZM25 4L25 5L24 5L24 6L23 6L23 7L24 7L24 6L25 6L25 7L26 7L26 4ZM30 4L30 5L29 5L29 6L30 6L30 5L31 5L31 4ZM48 4L48 5L49 5L49 4ZM15 5L15 9L16 9L16 12L18 12L18 11L19 11L19 14L20 14L20 11L21 11L21 10L20 10L20 9L19 9L19 10L18 10L18 11L17 11L17 9L16 9L16 8L20 8L20 5L19 5L19 7L18 7L18 5L17 5L17 7L16 7L16 5ZM33 5L33 8L36 8L36 5ZM37 5L37 7L38 7L38 8L39 8L39 7L38 7L38 5ZM34 6L34 7L35 7L35 6ZM41 6L41 7L42 7L42 6ZM57 6L57 7L58 7L58 6ZM60 6L60 7L61 7L61 6ZM50 7L50 8L49 8L49 9L50 9L50 8L51 8L51 7ZM45 8L45 9L46 9L46 10L47 10L47 8ZM1 9L1 11L2 11L2 13L3 13L3 15L4 15L4 16L7 16L7 15L6 15L6 14L12 14L12 13L5 13L5 12L8 12L8 11L4 11L4 13L3 13L3 10L2 10L2 9ZM4 9L4 10L5 10L5 9ZM24 9L24 10L25 10L25 9ZM41 9L41 10L42 10L42 12L43 12L43 9ZM19 10L19 11L20 11L20 10ZM33 10L33 11L34 11L34 10ZM59 10L59 12L58 12L58 13L59 13L59 12L61 12L61 13L62 13L62 14L63 14L63 13L64 13L64 15L62 15L62 26L63 26L63 25L64 25L64 23L63 23L63 22L64 22L64 20L65 20L65 21L66 21L66 20L65 20L65 17L64 17L64 16L65 16L65 13L64 13L64 12L65 12L65 11L64 11L64 12L63 12L63 13L62 13L62 12L61 12L61 11L60 11L60 10ZM23 11L23 12L22 12L22 13L21 13L21 15L19 15L19 16L18 16L18 17L19 17L19 16L22 16L22 13L25 13L25 12L24 12L24 11ZM49 11L49 15L50 15L50 16L49 16L49 18L50 18L50 16L51 16L51 15L50 15L50 11ZM4 13L4 14L5 14L5 13ZM15 13L15 14L16 14L16 15L18 15L18 13L17 13L17 14L16 14L16 13ZM46 13L46 15L47 15L47 13ZM30 14L30 15L29 15L29 16L28 16L28 17L27 17L27 18L26 18L26 17L25 17L25 18L24 18L24 19L25 19L25 18L26 18L26 20L27 20L27 19L28 19L28 18L29 18L29 19L32 19L32 18L34 18L34 17L35 17L35 16L34 16L34 17L32 17L32 16L31 16L31 14ZM44 14L44 15L43 15L43 17L44 17L44 15L45 15L45 14ZM10 16L10 17L8 17L8 18L6 18L6 19L8 19L8 18L10 18L10 17L11 17L11 16ZM29 16L29 17L30 17L30 18L32 18L32 17L31 17L31 16ZM46 16L46 18L47 18L47 19L48 19L48 18L47 18L47 16ZM59 17L59 18L60 18L60 19L61 19L61 17ZM63 17L63 20L64 20L64 17ZM3 18L3 20L4 20L4 19L5 19L5 18ZM39 19L39 20L40 20L40 19ZM54 19L54 20L53 20L53 27L54 27L54 26L55 26L55 27L56 27L56 26L55 26L55 25L54 25L54 22L56 22L56 23L57 23L57 22L58 22L58 21L57 21L57 22L56 22L56 21L54 21L54 20L55 20L55 19ZM11 21L11 22L12 22L12 21ZM41 21L41 22L43 22L43 21ZM46 21L46 22L47 22L47 21ZM48 21L48 22L49 22L49 24L51 24L51 22L50 22L50 21ZM7 22L7 23L8 23L8 22ZM29 22L29 23L30 23L30 22ZM39 22L39 23L37 23L37 25L34 25L34 26L33 26L33 24L32 24L32 26L33 26L33 27L34 27L34 28L35 28L35 27L36 27L36 26L37 26L37 28L36 28L36 29L38 29L38 28L39 28L39 27L40 27L40 28L42 28L42 27L40 27L40 24L41 24L41 23L40 23L40 22ZM2 23L2 24L3 24L3 23ZM18 23L18 24L19 24L19 23ZM47 23L47 25L46 25L46 26L47 26L47 25L48 25L48 27L49 27L49 26L50 26L50 25L48 25L48 23ZM30 24L30 25L29 25L29 26L31 26L31 24ZM38 24L38 25L37 25L37 26L38 26L38 25L39 25L39 24ZM56 24L56 25L58 25L58 24ZM59 25L59 26L60 26L60 27L59 27L59 28L60 28L60 27L61 27L61 25ZM2 26L2 27L4 27L4 26ZM18 26L18 28L17 28L17 29L18 29L18 30L17 30L17 31L16 31L16 33L17 33L17 31L18 31L18 30L19 30L19 29L20 29L20 28L21 28L21 27L19 27L19 26ZM22 26L22 27L23 27L23 26ZM34 26L34 27L35 27L35 26ZM14 28L14 29L15 29L15 30L16 30L16 28ZM64 28L64 29L65 29L65 28ZM33 29L33 31L34 31L34 30L35 30L35 29ZM9 30L9 33L10 33L10 34L9 34L9 37L10 37L10 38L8 38L8 39L6 39L6 40L9 40L9 39L11 39L11 38L12 38L12 39L13 39L13 37L10 37L10 36L12 36L12 34L13 34L13 35L14 35L14 34L13 34L13 33L14 33L14 32L13 32L13 31L12 31L12 32L11 32L11 31L10 31L10 30ZM3 31L3 32L4 32L4 31ZM6 31L6 32L8 32L8 31ZM37 32L37 33L38 33L38 32ZM45 32L45 33L46 33L46 34L45 34L45 37L46 37L46 42L45 42L45 43L47 43L47 44L48 44L48 43L49 43L49 42L50 42L50 44L49 44L49 46L50 46L50 44L51 44L51 43L52 43L52 42L50 42L50 41L48 41L48 43L47 43L47 39L49 39L49 38L48 38L48 37L46 37L46 34L47 34L47 35L48 35L48 34L47 34L47 33L46 33L46 32ZM5 33L5 36L8 36L8 33ZM11 33L11 34L10 34L10 35L11 35L11 34L12 34L12 33ZM33 33L33 36L36 36L36 33ZM61 33L61 36L64 36L64 33ZM6 34L6 35L7 35L7 34ZM16 34L16 35L17 35L17 34ZM21 34L21 35L22 35L22 34ZM30 34L30 35L31 35L31 34ZM34 34L34 35L35 35L35 34ZM51 34L51 35L52 35L52 34ZM62 34L62 35L63 35L63 34ZM55 35L55 36L54 36L54 37L53 37L53 39L55 39L55 40L56 40L56 41L57 41L57 42L58 42L58 37L57 37L57 36L56 36L56 35ZM3 36L3 38L5 38L5 37L4 37L4 36ZM14 36L14 38L15 38L15 36ZM17 36L17 38L18 38L18 39L19 39L19 36ZM50 36L50 37L51 37L51 36ZM55 36L55 38L56 38L56 40L57 40L57 37L56 37L56 36ZM66 36L66 37L65 37L65 38L64 38L64 39L66 39L66 38L67 38L67 36ZM1 37L1 38L2 38L2 37ZM6 37L6 38L7 38L7 37ZM26 38L26 39L27 39L27 38ZM40 39L40 41L41 41L41 39ZM43 39L43 42L39 42L39 43L41 43L41 44L43 44L43 43L44 43L44 40L45 40L45 39ZM24 40L24 41L25 41L25 40ZM53 40L53 41L54 41L54 40ZM60 41L60 43L61 43L61 41ZM67 41L67 42L68 42L68 41ZM64 42L64 43L65 43L65 42ZM22 43L22 46L23 46L23 47L22 47L22 49L24 49L24 48L25 48L25 47L26 47L26 48L27 48L27 45L28 45L28 47L29 47L29 45L28 45L28 44L27 44L27 43L26 43L26 44L25 44L25 47L24 47L24 46L23 46L23 45L24 45L24 43ZM32 43L32 44L33 44L33 45L31 45L31 46L32 46L32 47L33 47L33 45L34 45L34 44L33 44L33 43ZM14 44L14 45L15 45L15 44ZM26 44L26 45L27 45L27 44ZM60 44L60 45L61 45L61 44ZM39 45L39 47L37 47L37 48L38 48L38 49L39 49L39 47L41 47L41 48L40 48L40 51L39 51L39 50L38 50L38 51L39 51L39 52L38 52L38 53L37 53L37 55L36 55L36 54L35 54L35 56L37 56L37 55L38 55L38 56L39 56L39 54L40 54L40 53L42 53L42 52L41 52L41 49L42 49L42 45L41 45L41 46L40 46L40 45ZM44 45L44 48L43 48L43 49L44 49L44 50L45 50L45 49L46 49L46 50L48 50L48 49L47 49L47 48L45 48L45 47L46 47L46 46L47 46L47 45L46 45L46 46L45 46L45 45ZM9 46L9 47L10 47L10 46ZM16 46L16 47L17 47L17 46ZM23 47L23 48L24 48L24 47ZM49 47L49 48L50 48L50 47ZM44 48L44 49L45 49L45 48ZM1 49L1 50L2 50L2 49ZM25 49L25 50L26 50L26 49ZM49 49L49 50L50 50L50 49ZM59 49L59 50L60 50L60 49ZM6 50L6 51L7 51L7 50ZM30 50L30 51L31 51L31 50ZM42 50L42 51L43 51L43 53L44 53L44 51L43 51L43 50ZM22 51L22 52L23 52L23 53L24 53L24 54L26 54L26 55L27 55L27 54L26 54L26 53L24 53L24 52L23 52L23 51ZM58 51L58 52L59 52L59 51ZM60 51L60 52L61 52L61 51ZM66 51L66 53L67 53L67 51ZM19 52L19 57L21 57L21 58L20 58L20 60L22 60L22 61L21 61L21 64L22 64L22 61L23 61L23 64L25 64L25 65L30 65L30 62L29 62L29 61L26 61L26 58L27 58L27 57L25 57L25 58L24 58L24 57L21 57L21 56L20 56L20 52ZM6 53L6 54L7 54L7 53ZM13 53L13 54L10 54L10 57L9 57L9 58L8 58L8 60L9 60L9 61L10 61L10 60L11 60L11 62L12 62L12 64L13 64L13 62L12 62L12 60L11 60L11 59L10 59L10 58L11 58L11 56L12 56L12 57L13 57L13 58L15 58L15 57L17 57L17 56L15 56L15 57L13 57L13 56L14 56L14 55L16 55L16 54L17 54L17 55L18 55L18 54L17 54L17 53L16 53L16 54L14 54L14 53ZM59 53L59 55L58 55L58 56L59 56L59 55L60 55L60 54L61 54L61 53ZM13 54L13 55L14 55L14 54ZM28 54L28 56L29 56L29 55L30 55L30 54ZM5 55L5 57L6 57L6 58L7 58L7 57L8 57L8 56L7 56L7 55ZM47 55L47 57L46 57L46 58L47 58L47 59L46 59L46 60L45 60L45 61L46 61L46 60L47 60L47 59L48 59L48 58L47 58L47 57L48 57L48 55ZM6 56L6 57L7 57L7 56ZM50 57L50 59L52 59L52 58L51 58L51 57ZM21 58L21 59L23 59L23 61L24 61L24 63L26 63L26 64L29 64L29 63L28 63L28 62L26 62L26 61L24 61L24 59L23 59L23 58ZM32 58L32 59L33 59L33 58ZM58 58L58 61L59 61L59 58ZM9 59L9 60L10 60L10 59ZM3 60L3 61L5 61L5 60ZM51 60L51 61L50 61L50 62L52 62L52 60ZM33 61L33 64L36 64L36 61ZM61 61L61 64L64 64L64 61ZM31 62L31 63L32 63L32 62ZM34 62L34 63L35 63L35 62ZM62 62L62 63L63 63L63 62ZM19 64L19 65L20 65L20 64ZM31 64L31 65L32 65L32 66L33 66L33 65L32 65L32 64ZM61 65L61 66L62 66L62 65ZM55 66L55 67L56 67L56 66ZM10 67L10 68L11 68L11 67ZM12 67L12 68L13 68L13 67ZM36 68L36 69L37 69L37 68ZM42 68L42 69L43 69L43 68ZM68 68L68 69L69 69L69 68ZM0 0L0 7L7 7L7 0ZM1 1L1 6L6 6L6 1ZM2 2L2 5L5 5L5 2ZM62 0L62 7L69 7L69 0ZM63 1L63 6L68 6L68 1ZM64 2L64 5L67 5L67 2ZM0 62L0 69L7 69L7 62ZM1 63L1 68L6 68L6 63ZM2 64L2 67L5 67L5 64Z" fill="#000000"/></g></g></svg>
