<?xml version="1.0" encoding="UTF-8"?>
<svg xmlns="http://www.w3.org/2000/svg" version="1.1" width="300" height="300" viewBox="0 0 300 300"><rect x="0" y="0" width="300" height="300" fill="#ffffff"/><g transform="scale(4.348)"><g transform="translate(0,0)"><path fill-rule="evenodd" d="M10 0L10 1L8 1L8 2L9 2L9 3L8 3L8 4L9 4L9 5L8 5L8 7L9 7L9 5L10 5L10 4L11 4L11 3L14 3L14 4L13 4L13 5L11 5L11 6L10 6L10 8L6 8L6 9L7 9L7 10L4 10L4 11L9 11L9 14L10 14L10 13L11 13L11 12L12 12L12 14L11 14L11 15L10 15L10 16L9 16L9 15L8 15L8 14L6 14L6 13L8 13L8 12L3 12L3 14L4 14L4 15L2 15L2 14L1 14L1 13L2 13L2 12L1 12L1 11L0 11L0 14L1 14L1 15L2 15L2 16L1 16L1 17L2 17L2 16L5 16L5 18L4 18L4 17L3 17L3 18L0 18L0 19L2 19L2 20L1 20L1 21L0 21L0 23L1 23L1 22L2 22L2 23L3 23L3 24L1 24L1 25L0 25L0 26L2 26L2 27L1 27L1 29L2 29L2 30L1 30L1 31L2 31L2 30L5 30L5 31L4 31L4 33L2 33L2 32L1 32L1 33L0 33L0 38L1 38L1 34L2 34L2 35L4 35L4 37L2 37L2 39L1 39L1 40L2 40L2 41L1 41L1 42L0 42L0 43L2 43L2 44L1 44L1 45L2 45L2 46L5 46L5 48L4 48L4 47L0 47L0 49L1 49L1 50L2 50L2 52L0 52L0 53L2 53L2 52L3 52L3 53L4 53L4 54L6 54L6 55L3 55L3 56L2 56L2 54L1 54L1 55L0 55L0 56L1 56L1 57L2 57L2 59L3 59L3 58L4 58L4 59L7 59L7 60L6 60L6 61L7 61L7 60L8 60L8 63L9 63L9 64L8 64L8 69L10 69L10 66L11 66L11 67L12 67L12 66L13 66L13 67L14 67L14 68L16 68L16 69L19 69L19 67L20 67L20 66L19 66L19 65L20 65L20 64L21 64L21 63L23 63L23 65L21 65L21 68L20 68L20 69L21 69L21 68L23 68L23 69L26 69L26 68L27 68L27 67L28 67L28 68L29 68L29 69L32 69L32 67L34 67L34 68L36 68L36 69L38 69L38 68L37 68L37 67L39 67L39 66L37 66L37 65L39 65L39 64L41 64L41 66L40 66L40 67L41 67L41 66L44 66L44 68L43 68L43 67L42 67L42 68L41 68L41 69L44 69L44 68L47 68L47 69L51 69L51 68L52 68L52 66L50 66L50 65L49 65L49 64L50 64L50 63L49 63L49 64L47 64L47 65L48 65L48 66L50 66L50 67L51 67L51 68L48 68L48 67L47 67L47 66L46 66L46 64L45 64L45 63L44 63L44 62L45 62L45 61L44 61L44 60L43 60L43 57L44 57L44 56L46 56L46 57L49 57L49 58L48 58L48 59L50 59L50 60L47 60L47 62L46 62L46 63L47 63L47 62L50 62L50 61L51 61L51 64L52 64L52 63L53 63L53 66L55 66L55 64L57 64L57 65L56 65L56 68L55 68L55 69L56 69L56 68L57 68L57 69L59 69L59 67L62 67L62 66L64 66L64 65L65 65L65 64L69 64L69 63L67 63L67 62L69 62L69 61L68 61L68 60L69 60L69 59L68 59L68 58L69 58L69 56L68 56L68 58L67 58L67 59L65 59L65 58L63 58L63 57L62 57L62 56L60 56L60 57L59 57L59 56L58 56L58 55L59 55L59 54L60 54L60 55L62 55L62 54L61 54L61 53L62 53L62 52L63 52L63 53L64 53L64 51L60 51L60 50L57 50L57 51L55 51L55 53L52 53L52 55L51 55L51 54L50 54L50 53L49 53L49 52L52 52L52 51L53 51L53 52L54 52L54 51L53 51L53 50L56 50L56 47L58 47L58 48L60 48L60 47L61 47L61 48L62 48L62 46L63 46L63 45L66 45L66 47L65 47L65 46L64 46L64 47L63 47L63 48L69 48L69 47L68 47L68 44L67 44L67 43L68 43L68 42L69 42L69 39L68 39L68 36L69 36L69 35L68 35L68 34L69 34L69 33L68 33L68 32L69 32L69 31L68 31L68 29L69 29L69 27L68 27L68 25L69 25L69 24L68 24L68 18L69 18L69 16L68 16L68 14L65 14L65 13L64 13L64 12L66 12L66 13L67 13L67 11L68 11L68 13L69 13L69 11L68 11L68 10L67 10L67 9L68 9L68 8L67 8L67 9L66 9L66 8L65 8L65 10L64 10L64 12L63 12L63 10L61 10L61 9L62 9L62 8L61 8L61 6L60 6L60 7L59 7L59 4L57 4L57 6L56 6L56 7L57 7L57 9L56 9L56 8L54 8L54 7L55 7L55 4L56 4L56 3L59 3L59 2L58 2L58 1L61 1L61 0L56 0L56 1L55 1L55 0L53 0L53 1L55 1L55 2L54 2L54 4L53 4L53 6L52 6L52 5L47 5L47 6L46 6L46 5L44 5L44 3L45 3L45 4L46 4L46 3L45 3L45 2L46 2L46 1L45 1L45 0L44 0L44 1L45 1L45 2L44 2L44 3L42 3L42 4L40 4L40 5L44 5L44 7L45 7L45 9L44 9L44 8L43 8L43 9L39 9L39 8L41 8L41 6L40 6L40 7L39 7L39 6L38 6L38 5L37 5L37 4L38 4L38 3L36 3L36 4L31 4L31 3L32 3L32 2L34 2L34 0L33 0L33 1L32 1L32 0L28 0L28 1L27 1L27 2L25 2L25 0L21 0L21 3L19 3L19 2L20 2L20 1L19 1L19 0L17 0L17 1L18 1L18 4L17 4L17 3L15 3L15 2L16 2L16 0L13 0L13 1L11 1L11 0ZM36 0L36 1L35 1L35 2L41 2L41 1L42 1L42 2L43 2L43 0L41 0L41 1L38 1L38 0ZM47 0L47 1L48 1L48 0ZM49 0L49 1L50 1L50 0ZM51 0L51 2L50 2L50 3L48 3L48 2L47 2L47 3L48 3L48 4L50 4L50 3L52 3L52 0ZM10 1L10 3L11 3L11 1ZM13 1L13 2L14 2L14 1ZM23 1L23 3L21 3L21 4L18 4L18 5L20 5L20 6L19 6L19 7L20 7L20 6L21 6L21 8L20 8L20 10L19 10L19 9L18 9L18 6L17 6L17 4L16 4L16 5L15 5L15 4L14 4L14 5L13 5L13 7L12 7L12 6L11 6L11 7L12 7L12 8L10 8L10 9L9 9L9 10L10 10L10 12L11 12L11 10L12 10L12 8L13 8L13 9L14 9L14 8L13 8L13 7L14 7L14 5L15 5L15 9L16 9L16 10L15 10L15 11L14 11L14 10L13 10L13 11L14 11L14 13L13 13L13 14L12 14L12 15L13 15L13 16L14 16L14 17L15 17L15 16L14 16L14 15L16 15L16 17L17 17L17 18L16 18L16 20L17 20L17 19L18 19L18 17L23 17L23 16L24 16L24 17L26 17L26 18L25 18L25 19L24 19L24 18L23 18L23 19L22 19L22 20L19 20L19 21L18 21L18 22L17 22L17 21L15 21L15 19L14 19L14 18L13 18L13 17L12 17L12 16L10 16L10 17L9 17L9 16L8 16L8 19L11 19L11 18L13 18L13 19L14 19L14 21L15 21L15 23L14 23L14 22L13 22L13 20L12 20L12 22L11 22L11 23L10 23L10 22L9 22L9 21L11 21L11 20L7 20L7 19L6 19L6 18L7 18L7 17L6 17L6 18L5 18L5 20L4 20L4 23L5 23L5 21L6 21L6 22L7 22L7 21L8 21L8 23L6 23L6 24L8 24L8 25L6 25L6 26L8 26L8 27L5 27L5 28L4 28L4 27L2 27L2 28L3 28L3 29L5 29L5 30L8 30L8 31L9 31L9 33L11 33L11 35L12 35L12 36L10 36L10 35L9 35L9 37L5 37L5 38L3 38L3 39L2 39L2 40L4 40L4 41L2 41L2 43L3 43L3 44L2 44L2 45L3 45L3 44L5 44L5 43L6 43L6 44L7 44L7 45L6 45L6 46L7 46L7 47L6 47L6 48L7 48L7 49L6 49L6 50L7 50L7 51L6 51L6 52L5 52L5 51L4 51L4 53L6 53L6 54L7 54L7 55L6 55L6 56L3 56L3 57L4 57L4 58L5 58L5 57L6 57L6 58L7 58L7 57L6 57L6 56L8 56L8 54L10 54L10 53L12 53L12 54L13 54L13 52L12 52L12 51L11 51L11 52L10 52L10 53L8 53L8 52L9 52L9 51L10 51L10 50L9 50L9 51L8 51L8 49L13 49L13 47L15 47L15 48L16 48L16 47L17 47L17 48L18 48L18 49L15 49L15 50L14 50L14 52L15 52L15 54L16 54L16 55L17 55L17 52L15 52L15 51L16 51L16 50L17 50L17 51L18 51L18 49L22 49L22 50L23 50L23 51L25 51L25 52L24 52L24 53L25 53L25 52L26 52L26 54L25 54L25 55L28 55L28 56L25 56L25 57L27 57L27 58L26 58L26 59L25 59L25 60L24 60L24 59L23 59L23 58L24 58L24 57L22 57L22 56L20 56L20 54L21 54L21 55L22 55L22 54L23 54L23 52L19 52L19 53L20 53L20 54L18 54L18 56L19 56L19 57L20 57L20 58L18 58L18 59L19 59L19 61L18 61L18 60L16 60L16 59L15 59L15 58L16 58L16 57L17 57L17 56L16 56L16 57L15 57L15 56L14 56L14 55L13 55L13 56L14 56L14 57L12 57L12 56L11 56L11 57L10 57L10 58L9 58L9 62L11 62L11 63L10 63L10 64L11 64L11 63L12 63L12 65L14 65L14 67L16 67L16 68L17 68L17 67L16 67L16 66L17 66L17 65L18 65L18 64L17 64L17 63L18 63L18 62L19 62L19 63L20 63L20 62L21 62L21 61L23 61L23 62L24 62L24 63L25 63L25 64L26 64L26 63L25 63L25 62L26 62L26 61L27 61L27 62L28 62L28 63L27 63L27 64L28 64L28 65L25 65L25 67L27 67L27 66L28 66L28 65L29 65L29 64L30 64L30 63L32 63L32 61L31 61L31 62L30 62L30 63L29 63L29 61L27 61L27 59L28 59L28 60L30 60L30 59L32 59L32 60L33 60L33 59L37 59L37 58L35 58L35 57L38 57L38 60L39 60L39 57L41 57L41 56L39 56L39 55L41 55L41 54L42 54L42 55L43 55L43 56L42 56L42 57L43 57L43 56L44 56L44 53L45 53L45 54L46 54L46 56L51 56L51 57L50 57L50 59L51 59L51 61L53 61L53 60L54 60L54 59L52 59L52 58L53 58L53 57L55 57L55 56L56 56L56 57L57 57L57 58L55 58L55 60L56 60L56 61L55 61L55 62L56 62L56 63L58 63L58 62L59 62L59 61L60 61L60 60L63 60L63 58L62 58L62 57L61 57L61 58L60 58L60 59L59 59L59 57L57 57L57 56L56 56L56 55L58 55L58 54L59 54L59 53L60 53L60 52L59 52L59 51L58 51L58 52L56 52L56 53L57 53L57 54L56 54L56 55L55 55L55 54L53 54L53 55L54 55L54 56L51 56L51 55L50 55L50 54L48 54L48 53L45 53L45 52L46 52L46 51L47 51L47 52L49 52L49 51L52 51L52 50L51 50L51 49L54 49L54 48L53 48L53 46L54 46L54 47L55 47L55 46L56 46L56 45L57 45L57 46L59 46L59 47L60 47L60 46L61 46L61 44L62 44L62 45L63 45L63 43L67 43L67 42L68 42L68 39L67 39L67 40L66 40L66 39L65 39L65 38L66 38L66 36L65 36L65 37L64 37L64 38L63 38L63 37L60 37L60 34L59 34L59 31L58 31L58 30L59 30L59 29L60 29L60 27L61 27L61 26L59 26L59 25L61 25L61 24L62 24L62 26L63 26L63 27L62 27L62 28L61 28L61 29L62 29L62 30L61 30L61 31L60 31L60 32L61 32L61 31L63 31L63 32L64 32L64 31L67 31L67 32L66 32L66 33L65 33L65 35L67 35L67 36L68 36L68 35L67 35L67 34L68 34L68 33L67 33L67 32L68 32L68 31L67 31L67 29L68 29L68 27L67 27L67 26L66 26L66 25L68 25L68 24L62 24L62 23L63 23L63 22L65 22L65 23L66 23L66 22L67 22L67 20L66 20L66 19L67 19L67 17L68 17L68 16L67 16L67 17L66 17L66 16L65 16L65 14L64 14L64 13L63 13L63 12L62 12L62 11L60 11L60 10L59 10L59 9L58 9L58 10L56 10L56 9L55 9L55 11L57 11L57 12L54 12L54 13L53 13L53 12L52 12L52 11L51 11L51 9L54 9L54 8L53 8L53 7L54 7L54 6L53 6L53 7L52 7L52 6L51 6L51 7L50 7L50 6L49 6L49 7L50 7L50 8L51 8L51 9L50 9L50 11L51 11L51 12L52 12L52 15L51 15L51 13L50 13L50 15L51 15L51 16L52 16L52 18L51 18L51 17L50 17L50 16L49 16L49 14L47 14L47 12L49 12L49 10L47 10L47 7L48 7L48 6L47 6L47 7L46 7L46 6L45 6L45 7L46 7L46 9L45 9L45 10L42 10L42 12L41 12L41 10L40 10L40 12L38 12L38 10L39 10L39 9L38 9L38 10L36 10L36 9L35 9L35 10L36 10L36 11L33 11L33 9L32 9L32 8L31 8L31 7L32 7L32 5L30 5L30 6L29 6L29 7L28 7L28 5L29 5L29 3L28 3L28 2L27 2L27 3L26 3L26 4L27 4L27 5L26 5L26 6L25 6L25 7L26 7L26 6L27 6L27 8L26 8L26 9L24 9L24 8L23 8L23 7L24 7L24 6L23 6L23 5L22 5L22 6L21 6L21 4L25 4L25 2L24 2L24 1ZM31 1L31 2L30 2L30 3L31 3L31 2L32 2L32 1ZM56 1L56 2L55 2L55 3L56 3L56 2L57 2L57 1ZM27 3L27 4L28 4L28 3ZM60 3L60 5L61 5L61 3ZM33 5L33 8L36 8L36 5ZM16 6L16 7L17 7L17 6ZM22 6L22 7L23 7L23 6ZM30 6L30 7L31 7L31 6ZM34 6L34 7L35 7L35 6ZM37 6L37 8L38 8L38 6ZM42 6L42 7L43 7L43 6ZM57 6L57 7L58 7L58 6ZM51 7L51 8L52 8L52 7ZM0 8L0 9L2 9L2 10L3 10L3 9L5 9L5 8ZM21 8L21 9L22 9L22 8ZM28 8L28 9L30 9L30 10L29 10L29 14L27 14L27 13L25 13L25 12L26 12L26 10L27 10L27 9L26 9L26 10L25 10L25 12L24 12L24 11L23 11L23 10L24 10L24 9L23 9L23 10L22 10L22 11L21 11L21 10L20 10L20 11L19 11L19 10L18 10L18 9L17 9L17 10L18 10L18 11L16 11L16 12L17 12L17 13L18 13L18 14L17 14L17 15L18 15L18 14L19 14L19 13L21 13L21 12L22 12L22 11L23 11L23 14L27 14L27 16L29 16L29 18L30 18L30 19L29 19L29 22L27 22L27 23L28 23L28 24L27 24L27 25L26 25L26 24L25 24L25 23L26 23L26 22L25 22L25 21L26 21L26 20L27 20L27 21L28 21L28 19L27 19L27 18L28 18L28 17L27 17L27 18L26 18L26 20L25 20L25 21L23 21L23 22L22 22L22 21L21 21L21 22L22 22L22 23L21 23L21 24L20 24L20 23L19 23L19 22L20 22L20 21L19 21L19 22L18 22L18 24L17 24L17 25L16 25L16 24L15 24L15 25L14 25L14 26L13 26L13 25L12 25L12 24L13 24L13 22L12 22L12 23L11 23L11 24L10 24L10 23L9 23L9 24L10 24L10 25L8 25L8 26L9 26L9 27L8 27L8 28L9 28L9 31L12 31L12 30L13 30L13 32L14 32L14 33L12 33L12 34L15 34L15 31L16 31L16 30L15 30L15 29L17 29L17 30L18 30L18 31L17 31L17 32L16 32L16 33L17 33L17 34L16 34L16 35L17 35L17 37L19 37L19 38L18 38L18 39L19 39L19 40L17 40L17 41L18 41L18 42L17 42L17 45L18 45L18 46L17 46L17 47L18 47L18 46L20 46L20 47L19 47L19 48L20 48L20 47L21 47L21 48L22 48L22 47L21 47L21 46L20 46L20 43L21 43L21 42L20 42L20 41L22 41L22 40L21 40L21 39L22 39L22 38L24 38L24 39L25 39L25 40L24 40L24 41L23 41L23 42L24 42L24 41L26 41L26 44L24 44L24 43L23 43L23 44L24 44L24 45L23 45L23 47L24 47L24 49L23 49L23 50L25 50L25 51L27 51L27 52L28 52L28 53L29 53L29 54L30 54L30 55L29 55L29 56L30 56L30 57L29 57L29 58L31 58L31 57L32 57L32 58L33 58L33 56L38 56L38 57L39 57L39 56L38 56L38 55L35 55L35 54L34 54L34 55L33 55L33 53L34 53L34 52L33 52L33 51L34 51L34 50L35 50L35 53L36 53L36 54L39 54L39 53L40 53L40 52L42 52L42 54L43 54L43 53L44 53L44 52L45 52L45 49L46 49L46 46L45 46L45 45L47 45L47 46L50 46L50 47L47 47L47 49L48 49L48 50L50 50L50 49L49 49L49 48L52 48L52 46L53 46L53 45L54 45L54 46L55 46L55 45L56 45L56 43L55 43L55 41L56 41L56 42L57 42L57 41L58 41L58 39L57 39L57 37L59 37L59 36L57 36L57 37L56 37L56 34L57 34L57 35L59 35L59 34L57 34L57 33L56 33L56 30L55 30L55 29L56 29L56 28L59 28L59 26L58 26L58 25L59 25L59 24L58 24L58 23L59 23L59 22L61 22L61 23L60 23L60 24L61 24L61 23L62 23L62 20L61 20L61 19L60 19L60 21L59 21L59 19L55 19L55 18L57 18L57 17L59 17L59 18L62 18L62 19L63 19L63 18L66 18L66 17L63 17L63 18L62 18L62 16L64 16L64 15L62 15L62 12L61 12L61 13L60 13L60 11L59 11L59 10L58 10L58 11L59 11L59 12L58 12L58 13L59 13L59 16L57 16L57 17L56 17L56 15L57 15L57 13L54 13L54 14L53 14L53 15L52 15L52 16L53 16L53 18L54 18L54 19L55 19L55 20L57 20L57 21L56 21L56 22L55 22L55 21L53 21L53 23L54 23L54 24L53 24L53 25L52 25L52 26L49 26L49 25L50 25L50 24L51 24L51 22L50 22L50 21L52 21L52 20L53 20L53 19L52 19L52 20L50 20L50 21L49 21L49 18L50 18L50 19L51 19L51 18L50 18L50 17L49 17L49 16L47 16L47 15L46 15L46 14L44 14L44 12L46 12L46 11L43 11L43 13L42 13L42 14L41 14L41 12L40 12L40 13L39 13L39 14L37 14L37 13L38 13L38 12L37 12L37 13L36 13L36 12L33 12L33 14L34 14L34 13L35 13L35 15L38 15L38 16L40 16L40 15L42 15L42 14L44 14L44 16L42 16L42 17L41 17L41 18L39 18L39 19L37 19L37 18L38 18L38 17L37 17L37 18L36 18L36 17L35 17L35 18L36 18L36 20L34 20L34 21L37 21L37 22L35 22L35 23L37 23L37 24L33 24L33 25L32 25L32 26L33 26L33 27L31 27L31 24L32 24L32 23L33 23L33 22L32 22L32 21L33 21L33 20L32 20L32 19L31 19L31 18L33 18L33 17L32 17L32 15L31 15L31 13L32 13L32 12L30 12L30 10L31 10L31 11L32 11L32 9L30 9L30 8ZM60 8L60 9L61 9L61 8ZM63 8L63 9L64 9L64 8ZM10 9L10 10L11 10L11 9ZM65 10L65 11L66 11L66 10ZM18 11L18 12L19 12L19 11ZM15 13L15 14L16 14L16 13ZM5 14L5 15L6 15L6 16L7 16L7 15L6 15L6 14ZM21 14L21 16L23 16L23 15L22 15L22 14ZM39 14L39 15L40 15L40 14ZM54 14L54 15L53 15L53 16L54 16L54 17L55 17L55 15L56 15L56 14ZM19 15L19 16L20 16L20 15ZM25 15L25 16L26 16L26 15ZM29 15L29 16L30 16L30 15ZM33 15L33 16L34 16L34 15ZM60 15L60 16L62 16L62 15ZM17 16L17 17L18 17L18 16ZM44 16L44 17L43 17L43 20L44 20L44 22L43 22L43 24L44 24L44 25L43 25L43 26L46 26L46 27L43 27L43 28L44 28L44 29L45 29L45 30L42 30L42 27L38 27L38 26L41 26L41 25L42 25L42 24L37 24L37 25L38 25L38 26L37 26L37 28L40 28L40 29L38 29L38 30L37 30L37 29L36 29L36 28L35 28L35 27L36 27L36 26L35 26L35 27L33 27L33 30L29 30L29 28L31 28L31 29L32 29L32 28L31 28L31 27L29 27L29 28L28 28L28 29L27 29L27 28L26 28L26 30L29 30L29 31L27 31L27 32L28 32L28 33L25 33L25 32L26 32L26 31L25 31L25 30L23 30L23 31L22 31L22 29L25 29L25 28L24 28L24 27L21 27L21 25L22 25L22 26L24 26L24 25L22 25L22 24L21 24L21 25L20 25L20 24L19 24L19 25L20 25L20 26L18 26L18 27L19 27L19 29L20 29L20 31L19 31L19 32L20 32L20 33L19 33L19 34L20 34L20 35L19 35L19 37L20 37L20 38L19 38L19 39L20 39L20 38L22 38L22 37L23 37L23 36L24 36L24 37L25 37L25 39L26 39L26 37L27 37L27 40L26 40L26 41L27 41L27 43L29 43L29 44L28 44L28 45L27 45L27 44L26 44L26 46L24 46L24 47L26 47L26 48L25 48L25 49L26 49L26 50L27 50L27 51L28 51L28 52L29 52L29 53L30 53L30 54L31 54L31 56L33 56L33 55L32 55L32 50L33 50L33 49L36 49L36 50L37 50L37 51L38 51L38 50L41 50L41 51L42 51L42 50L41 50L41 49L42 49L42 48L43 48L43 47L44 47L44 49L43 49L43 50L44 50L44 49L45 49L45 47L44 47L44 46L42 46L42 45L41 45L41 46L42 46L42 48L41 48L41 47L40 47L40 46L39 46L39 45L40 45L40 44L41 44L41 43L40 43L40 41L41 41L41 40L44 40L44 42L43 42L43 43L44 43L44 42L45 42L45 43L46 43L46 42L48 42L48 44L49 44L49 45L50 45L50 46L52 46L52 45L53 45L53 43L54 43L54 42L53 42L53 41L55 41L55 40L56 40L56 41L57 41L57 40L56 40L56 37L55 37L55 40L53 40L53 39L54 39L54 38L52 38L52 37L54 37L54 36L53 36L53 34L54 34L54 35L55 35L55 34L56 34L56 33L55 33L55 32L51 32L51 33L50 33L50 31L52 31L52 30L51 30L51 29L50 29L50 30L49 30L49 29L48 29L48 30L49 30L49 33L50 33L50 34L47 34L47 33L45 33L45 32L44 32L44 31L46 31L46 32L47 32L47 31L46 31L46 30L47 30L47 28L49 28L49 27L47 27L47 25L48 25L48 24L50 24L50 22L48 22L48 21L46 21L46 20L48 20L48 19L47 19L47 17L45 17L45 16ZM48 17L48 18L49 18L49 17ZM19 18L19 19L20 19L20 18ZM44 18L44 19L46 19L46 18ZM39 19L39 21L42 21L42 20L41 20L41 19ZM6 20L6 21L7 21L7 20ZM31 20L31 21L30 21L30 22L29 22L29 23L30 23L30 22L31 22L31 21L32 21L32 20ZM37 20L37 21L38 21L38 20ZM65 20L65 21L66 21L66 20ZM58 21L58 22L56 22L56 23L55 23L55 24L56 24L56 25L55 25L55 26L56 26L56 25L57 25L57 23L58 23L58 22L59 22L59 21ZM23 22L23 23L24 23L24 22ZM37 22L37 23L39 23L39 22ZM41 22L41 23L42 23L42 22ZM44 22L44 23L45 23L45 24L46 24L46 25L47 25L47 24L48 24L48 23L47 23L47 24L46 24L46 22ZM3 24L3 26L5 26L5 25L4 25L4 24ZM28 24L28 25L27 25L27 26L26 26L26 25L25 25L25 27L28 27L28 26L29 26L29 25L30 25L30 24ZM10 25L10 30L12 30L12 29L15 29L15 28L16 28L16 27L15 27L15 26L16 26L16 25L15 25L15 26L14 26L14 27L15 27L15 28L13 28L13 27L12 27L12 25ZM52 26L52 27L50 27L50 28L52 28L52 29L54 29L54 27L53 27L53 26ZM57 26L57 27L58 27L58 26ZM11 27L11 29L12 29L12 27ZM20 27L20 29L22 29L22 28L21 28L21 27ZM46 27L46 28L45 28L45 29L46 29L46 28L47 28L47 27ZM52 27L52 28L53 28L53 27ZM55 27L55 28L56 28L56 27ZM63 27L63 28L67 28L67 27ZM6 28L6 29L7 29L7 28ZM34 29L34 30L33 30L33 31L34 31L34 32L32 32L32 31L29 31L29 33L28 33L28 34L27 34L27 35L26 35L26 34L25 34L25 33L24 33L24 31L23 31L23 33L22 33L22 35L24 35L24 36L25 36L25 37L26 37L26 36L27 36L27 37L28 37L28 36L29 36L29 37L30 37L30 38L28 38L28 39L30 39L30 38L31 38L31 37L32 37L32 38L33 38L33 40L34 40L34 37L38 37L38 36L37 36L37 34L38 34L38 35L39 35L39 36L40 36L40 35L41 35L41 37L40 37L40 38L39 38L39 39L38 39L38 38L37 38L37 39L35 39L35 41L36 41L36 40L37 40L37 43L36 43L36 42L34 42L34 41L30 41L30 40L27 40L27 41L30 41L30 43L31 43L31 44L29 44L29 46L28 46L28 47L27 47L27 48L29 48L29 49L31 49L31 50L32 50L32 49L33 49L33 48L36 48L36 47L38 47L38 49L37 49L37 50L38 50L38 49L39 49L39 48L40 48L40 47L39 47L39 46L38 46L38 45L37 45L37 44L40 44L40 43L38 43L38 41L39 41L39 40L41 40L41 39L42 39L42 38L43 38L43 39L45 39L45 40L47 40L47 41L48 41L48 42L49 42L49 44L50 44L50 45L51 45L51 44L52 44L52 43L53 43L53 42L52 42L52 41L51 41L51 44L50 44L50 41L49 41L49 38L50 38L50 39L51 39L51 40L52 40L52 39L51 39L51 38L50 38L50 37L49 37L49 36L50 36L50 35L51 35L51 36L52 36L52 35L51 35L51 34L52 34L52 33L51 33L51 34L50 34L50 35L47 35L47 36L45 36L45 33L44 33L44 32L43 32L43 31L40 31L40 30L38 30L38 31L37 31L37 30L35 30L35 29ZM63 29L63 30L64 30L64 29ZM6 31L6 32L7 32L7 31ZM20 31L20 32L21 32L21 31ZM35 31L35 32L37 32L37 31ZM57 31L57 32L58 32L58 31ZM17 32L17 33L18 33L18 32ZM31 32L31 33L32 33L32 32ZM38 32L38 34L39 34L39 35L40 35L40 33L43 33L43 34L41 34L41 35L43 35L43 36L42 36L42 37L43 37L43 36L44 36L44 37L45 37L45 38L47 38L47 37L45 37L45 36L44 36L44 33L43 33L43 32ZM5 33L5 36L8 36L8 33ZM23 33L23 34L24 34L24 35L25 35L25 36L26 36L26 35L25 35L25 34L24 34L24 33ZM33 33L33 36L36 36L36 33ZM54 33L54 34L55 34L55 33ZM61 33L61 36L64 36L64 33ZM66 33L66 34L67 34L67 33ZM6 34L6 35L7 35L7 34ZM29 34L29 36L32 36L32 34ZM34 34L34 35L35 35L35 34ZM62 34L62 35L63 35L63 34ZM14 35L14 36L12 36L12 37L10 37L10 38L9 38L9 39L11 39L11 40L13 40L13 41L15 41L15 42L14 42L14 43L12 43L12 44L11 44L11 43L10 43L10 44L8 44L8 45L10 45L10 46L11 46L11 45L12 45L12 46L13 46L13 45L12 45L12 44L14 44L14 45L15 45L15 44L16 44L16 43L15 43L15 42L16 42L16 41L15 41L15 40L16 40L16 39L17 39L17 38L16 38L16 39L15 39L15 40L14 40L14 36L15 36L15 35ZM27 35L27 36L28 36L28 35ZM12 37L12 39L13 39L13 37ZM6 38L6 39L7 39L7 40L6 40L6 41L5 41L5 42L4 42L4 43L5 43L5 42L6 42L6 43L8 43L8 42L9 42L9 40L8 40L8 39L7 39L7 38ZM40 38L40 39L41 39L41 38ZM60 38L60 39L59 39L59 40L60 40L60 41L59 41L59 42L58 42L58 43L57 43L57 45L59 45L59 44L61 44L61 43L62 43L62 40L64 40L64 41L66 41L66 40L65 40L65 39L62 39L62 38ZM4 39L4 40L5 40L5 39ZM31 39L31 40L32 40L32 39ZM47 39L47 40L48 40L48 39ZM60 39L60 40L62 40L62 39ZM7 40L7 41L6 41L6 42L7 42L7 41L8 41L8 40ZM10 41L10 42L11 42L11 41ZM60 41L60 42L59 42L59 43L61 43L61 41ZM31 42L31 43L32 43L32 42ZM33 42L33 43L34 43L34 42ZM18 43L18 44L19 44L19 43ZM10 44L10 45L11 45L11 44ZM31 44L31 45L30 45L30 46L31 46L31 47L30 47L30 48L31 48L31 49L32 49L32 48L33 48L33 47L32 47L32 46L35 46L35 47L36 47L36 46L37 46L37 45L36 45L36 44L33 44L33 45L32 45L32 44ZM43 44L43 45L45 45L45 44ZM35 45L35 46L36 46L36 45ZM7 47L7 48L10 48L10 47ZM11 47L11 48L12 48L12 47ZM2 49L2 50L4 50L4 49ZM27 49L27 50L28 50L28 49ZM61 49L61 50L62 50L62 49ZM65 49L65 53L66 53L66 54L67 54L67 55L63 55L63 56L67 56L67 55L68 55L68 54L69 54L69 53L68 53L68 54L67 54L67 53L66 53L66 52L68 52L68 50L69 50L69 49L67 49L67 50L66 50L66 49ZM19 50L19 51L20 51L20 50ZM29 50L29 51L30 51L30 50ZM7 51L7 52L6 52L6 53L7 53L7 52L8 52L8 51ZM39 51L39 52L40 52L40 51ZM43 51L43 52L44 52L44 51ZM30 52L30 53L31 53L31 52ZM37 52L37 53L38 53L38 52ZM9 55L9 56L10 56L10 55ZM14 57L14 58L12 58L12 59L14 59L14 58L15 58L15 57ZM21 57L21 58L20 58L20 59L22 59L22 60L23 60L23 61L24 61L24 62L25 62L25 61L26 61L26 60L25 60L25 61L24 61L24 60L23 60L23 59L22 59L22 57ZM0 58L0 61L1 61L1 58ZM10 58L10 59L11 59L11 58ZM41 58L41 59L40 59L40 62L39 62L39 61L38 61L38 64L39 64L39 63L41 63L41 64L44 64L44 66L45 66L45 67L46 67L46 66L45 66L45 64L44 64L44 63L42 63L42 62L41 62L41 60L42 60L42 61L43 61L43 62L44 62L44 61L43 61L43 60L42 60L42 58ZM45 58L45 59L46 59L46 58ZM61 58L61 59L62 59L62 58ZM67 59L67 60L65 60L65 61L67 61L67 60L68 60L68 59ZM3 60L3 61L5 61L5 60ZM11 60L11 61L13 61L13 62L12 62L12 63L13 63L13 64L14 64L14 65L17 65L17 64L15 64L15 63L16 63L16 62L15 62L15 61L16 61L16 60L14 60L14 61L13 61L13 60ZM58 60L58 61L57 61L57 62L58 62L58 61L59 61L59 60ZM17 61L17 62L18 62L18 61ZM19 61L19 62L20 62L20 61ZM33 61L33 64L36 64L36 61ZM61 61L61 64L64 64L64 61ZM14 62L14 63L15 63L15 62ZM34 62L34 63L35 63L35 62ZM53 62L53 63L54 63L54 62ZM62 62L62 63L63 63L63 62ZM65 62L65 63L66 63L66 62ZM58 64L58 65L57 65L57 66L58 66L58 67L59 67L59 66L60 66L60 65L59 65L59 64ZM9 65L9 66L10 66L10 65ZM30 65L30 66L29 66L29 68L31 68L31 67L30 67L30 66L32 66L32 65ZM33 65L33 66L35 66L35 65ZM61 65L61 66L62 66L62 65ZM66 65L66 66L67 66L67 65ZM23 67L23 68L24 68L24 67ZM63 67L63 68L60 68L60 69L63 69L63 68L64 68L64 67ZM65 67L65 69L68 69L68 68L67 68L67 67ZM11 68L11 69L13 69L13 68ZM53 68L53 69L54 69L54 68ZM0 0L0 7L7 7L7 0ZM1 1L1 6L6 6L6 1ZM2 2L2 5L5 5L5 2ZM62 0L62 7L69 7L69 0ZM63 1L63 6L68 6L68 1ZM64 2L64 5L67 5L67 2ZM0 62L0 69L7 69L7 62ZM1 63L1 68L6 68L6 63ZM2 64L2 67L5 67L5 64Z" fill="#000000"/></g></g></svg>
