<?xml version="1.0" encoding="UTF-8"?>
<svg xmlns="http://www.w3.org/2000/svg" version="1.1" width="300" height="300" viewBox="0 0 300 300"><rect x="0" y="0" width="300" height="300" fill="#ffffff"/><g transform="scale(4.348)"><g transform="translate(0,0)"><path fill-rule="evenodd" d="M9 0L9 1L8 1L8 2L9 2L9 1L11 1L11 2L10 2L10 3L11 3L11 4L10 4L10 5L12 5L12 7L13 7L13 6L14 6L14 7L15 7L15 8L17 8L17 9L14 9L14 8L11 8L11 9L12 9L12 10L11 10L11 11L10 11L10 10L9 10L9 13L8 13L8 14L6 14L6 13L7 13L7 12L5 12L5 11L8 11L8 10L6 10L6 9L9 9L9 8L10 8L10 7L11 7L11 6L10 6L10 7L9 7L9 5L8 5L8 7L9 7L9 8L6 8L6 9L5 9L5 8L0 8L0 9L1 9L1 10L0 10L0 11L1 11L1 13L0 13L0 14L1 14L1 15L0 15L0 16L1 16L1 17L0 17L0 20L2 20L2 19L1 19L1 18L2 18L2 17L3 17L3 16L1 16L1 15L2 15L2 13L3 13L3 15L11 15L11 16L9 16L9 17L11 17L11 16L12 16L12 15L13 15L13 14L14 14L14 13L15 13L15 12L16 12L16 15L15 15L15 16L16 16L16 17L15 17L15 18L14 18L14 17L13 17L13 19L15 19L15 20L17 20L17 25L16 25L16 23L14 23L14 24L13 24L13 23L12 23L12 22L11 22L11 24L10 24L10 25L9 25L9 22L10 22L10 21L11 21L11 20L12 20L12 19L11 19L11 18L8 18L8 16L6 16L6 17L5 17L5 16L4 16L4 18L6 18L6 19L7 19L7 18L8 18L8 19L9 19L9 20L8 20L8 21L7 21L7 20L5 20L5 21L7 21L7 22L4 22L4 20L3 20L3 21L0 21L0 23L1 23L1 22L4 22L4 23L3 23L3 24L2 24L2 25L1 25L1 24L0 24L0 25L1 25L1 26L2 26L2 27L0 27L0 28L1 28L1 29L0 29L0 30L1 30L1 29L2 29L2 30L3 30L3 29L2 29L2 27L3 27L3 28L4 28L4 27L5 27L5 28L6 28L6 29L7 29L7 30L6 30L6 31L7 31L7 30L9 30L9 29L10 29L10 30L11 30L11 29L13 29L13 26L14 26L14 25L16 25L16 26L15 26L15 27L16 27L16 28L14 28L14 31L11 31L11 32L9 32L9 31L8 31L8 32L5 32L5 29L4 29L4 31L2 31L2 32L3 32L3 34L2 34L2 36L1 36L1 31L0 31L0 36L1 36L1 38L0 38L0 40L1 40L1 41L2 41L2 42L1 42L1 43L0 43L0 44L1 44L1 45L2 45L2 46L1 46L1 50L2 50L2 47L3 47L3 46L4 46L4 45L7 45L7 44L5 44L5 42L6 42L6 43L7 43L7 42L9 42L9 43L8 43L8 44L9 44L9 47L11 47L11 48L9 48L9 49L11 49L11 51L13 51L13 49L14 49L14 50L15 50L15 51L14 51L14 52L13 52L13 57L11 57L11 56L12 56L12 55L11 55L11 54L10 54L10 56L9 56L9 55L8 55L8 54L9 54L9 52L10 52L10 50L9 50L9 51L8 51L8 52L6 52L6 51L7 51L7 50L8 50L8 49L7 49L7 48L6 48L6 47L8 47L8 46L5 46L5 48L3 48L3 49L4 49L4 50L3 50L3 51L1 51L1 52L0 52L0 53L1 53L1 54L0 54L0 55L1 55L1 54L2 54L2 56L0 56L0 61L1 61L1 58L2 58L2 59L3 59L3 58L4 58L4 59L8 59L8 60L6 60L6 61L8 61L8 63L9 63L9 64L8 64L8 69L14 69L14 68L15 68L15 69L19 69L19 67L20 67L20 66L19 66L19 65L20 65L20 63L19 63L19 62L20 62L20 60L19 60L19 59L21 59L21 60L22 60L22 59L21 59L21 58L22 58L22 57L24 57L24 58L23 58L23 59L24 59L24 60L25 60L25 61L23 61L23 62L22 62L22 61L21 61L21 64L25 64L25 65L23 65L23 66L25 66L25 65L28 65L28 66L27 66L27 67L28 67L28 68L29 68L29 69L32 69L32 68L31 68L31 67L35 67L35 68L36 68L36 69L38 69L38 68L37 68L37 67L36 67L36 66L38 66L38 67L39 67L39 68L40 68L40 67L41 67L41 69L44 69L44 68L47 68L47 69L49 69L49 68L50 68L50 69L51 69L51 68L52 68L52 67L53 67L53 66L54 66L54 68L55 68L55 69L56 69L56 67L57 67L57 65L59 65L59 68L60 68L60 69L61 69L61 68L62 68L62 67L63 67L63 68L64 68L64 67L63 67L63 66L62 66L62 67L61 67L61 65L65 65L65 69L68 69L68 68L67 68L67 67L66 67L66 66L67 66L67 65L68 65L68 62L69 62L69 60L68 60L68 56L69 56L69 55L68 55L68 54L69 54L69 53L67 53L67 54L66 54L66 55L62 55L62 54L61 54L61 56L62 56L62 58L61 58L61 57L59 57L59 56L60 56L60 55L59 55L59 56L58 56L58 55L57 55L57 53L56 53L56 52L55 52L55 50L57 50L57 51L58 51L58 52L59 52L59 51L61 51L61 52L62 52L62 53L64 53L64 51L61 51L61 50L62 50L62 49L63 49L63 50L64 50L64 49L65 49L65 50L66 50L66 51L65 51L65 53L66 53L66 52L68 52L68 50L69 50L69 47L68 47L68 46L69 46L69 45L68 45L68 46L67 46L67 44L69 44L69 43L64 43L64 44L63 44L63 43L62 43L62 41L63 41L63 42L64 42L64 41L65 41L65 40L66 40L66 42L69 42L69 39L68 39L68 38L67 38L67 37L68 37L68 36L69 36L69 35L68 35L68 34L69 34L69 32L67 32L67 31L64 31L64 30L65 30L65 29L66 29L66 28L67 28L67 26L69 26L69 24L68 24L68 22L66 22L66 21L68 21L68 18L69 18L69 17L67 17L67 16L69 16L69 15L68 15L68 14L63 14L63 15L62 15L62 16L59 16L59 15L61 15L61 14L62 14L62 13L64 13L64 12L66 12L66 13L68 13L68 10L67 10L67 9L68 9L68 8L67 8L67 9L66 9L66 8L65 8L65 10L66 10L66 11L64 11L64 10L63 10L63 11L62 11L62 13L60 13L60 12L61 12L61 11L57 11L57 10L56 10L56 12L55 12L55 9L56 9L56 8L55 8L55 9L51 9L51 8L53 8L53 5L54 5L54 7L55 7L55 4L56 4L56 7L57 7L57 6L58 6L58 7L59 7L59 4L56 4L56 3L59 3L59 2L58 2L58 1L61 1L61 0L56 0L56 3L55 3L55 4L54 4L54 3L53 3L53 5L52 5L52 4L51 4L51 3L52 3L52 1L50 1L50 0L48 0L48 1L50 1L50 2L49 2L49 3L47 3L47 4L49 4L49 5L47 5L47 6L46 6L46 5L44 5L44 3L45 3L45 4L46 4L46 3L45 3L45 2L44 2L44 3L43 3L43 0L41 0L41 1L38 1L38 0L36 0L36 1L35 1L35 0L33 0L33 1L32 1L32 0L30 0L30 1L29 1L29 0L28 0L28 1L27 1L27 2L26 2L26 3L25 3L25 0L23 0L23 1L24 1L24 2L22 2L22 1L21 1L21 3L19 3L19 2L20 2L20 1L19 1L19 0L17 0L17 1L16 1L16 0L15 0L15 1L14 1L14 0ZM44 0L44 1L45 1L45 0ZM53 0L53 2L55 2L55 0ZM13 1L13 2L11 2L11 3L14 3L14 5L16 5L16 4L17 4L17 5L18 5L18 6L17 6L17 8L19 8L19 9L20 9L20 10L23 10L23 11L24 11L24 12L26 12L26 13L25 13L25 14L22 14L22 13L23 13L23 12L22 12L22 11L21 11L21 12L20 12L20 16L19 16L19 14L18 14L18 13L17 13L17 14L18 14L18 15L17 15L17 16L18 16L18 17L17 17L17 20L19 20L19 21L20 21L20 22L19 22L19 25L18 25L18 27L17 27L17 28L19 28L19 29L20 29L20 31L19 31L19 32L20 32L20 33L19 33L19 34L20 34L20 35L19 35L19 36L21 36L21 37L20 37L20 38L19 38L19 39L18 39L18 38L17 38L17 37L15 37L15 36L14 36L14 40L13 40L13 37L12 37L12 43L13 43L13 41L16 41L16 42L14 42L14 44L15 44L15 46L17 46L17 44L18 44L18 43L17 43L17 41L18 41L18 42L19 42L19 43L20 43L20 44L21 44L21 45L20 45L20 46L18 46L18 47L17 47L17 48L18 48L18 49L15 49L15 50L18 50L18 49L21 49L21 51L22 51L22 52L19 52L19 51L20 51L20 50L19 50L19 51L18 51L18 52L19 52L19 53L20 53L20 54L21 54L21 55L22 55L22 54L21 54L21 53L23 53L23 52L24 52L24 53L25 53L25 52L24 52L24 51L25 51L25 50L24 50L24 51L23 51L23 49L26 49L26 54L23 54L23 56L24 56L24 55L25 55L25 57L27 57L27 58L26 58L26 59L25 59L25 60L26 60L26 61L25 61L25 62L26 62L26 61L28 61L28 62L27 62L27 63L28 63L28 65L29 65L29 64L31 64L31 63L32 63L32 60L33 60L33 59L34 59L34 60L36 60L36 59L38 59L38 60L37 60L37 61L38 61L38 62L37 62L37 63L38 63L38 62L39 62L39 63L41 63L41 64L39 64L39 65L38 65L38 64L37 64L37 65L38 65L38 66L39 66L39 67L40 67L40 66L41 66L41 67L43 67L43 68L44 68L44 66L45 66L45 67L46 67L46 66L47 66L47 64L48 64L48 63L49 63L49 64L50 64L50 63L51 63L51 65L50 65L50 68L51 68L51 65L53 65L53 63L55 63L55 62L56 62L56 63L57 63L57 64L54 64L54 65L57 65L57 64L58 64L58 62L59 62L59 64L60 64L60 62L59 62L59 61L60 61L60 60L62 60L62 59L63 59L63 60L65 60L65 57L66 57L66 58L67 58L67 56L64 56L64 57L63 57L63 58L62 58L62 59L61 59L61 58L59 58L59 57L57 57L57 56L56 56L56 53L55 53L55 54L54 54L54 53L53 53L53 50L52 50L52 49L53 49L53 48L51 48L51 47L50 47L50 46L53 46L53 47L56 47L56 49L57 49L57 50L58 50L58 51L59 51L59 50L60 50L60 49L61 49L61 48L59 48L59 47L61 47L61 46L62 46L62 48L63 48L63 49L64 49L64 48L65 48L65 49L68 49L68 47L67 47L67 48L65 48L65 47L66 47L66 44L65 44L65 45L63 45L63 44L62 44L62 45L61 45L61 43L60 43L60 44L59 44L59 43L58 43L58 42L60 42L60 41L61 41L61 38L60 38L60 39L59 39L59 37L60 37L60 35L59 35L59 34L60 34L60 33L59 33L59 32L60 32L60 31L63 31L63 32L64 32L64 31L63 31L63 29L65 29L65 28L66 28L66 27L65 27L65 26L67 26L67 25L65 25L65 24L64 24L64 23L65 23L65 22L64 22L64 21L66 21L66 20L65 20L65 18L63 18L63 17L66 17L66 18L67 18L67 17L66 17L66 16L65 16L65 15L64 15L64 16L62 16L62 18L60 18L60 19L59 19L59 16L58 16L58 15L59 15L59 13L57 13L57 12L56 12L56 13L55 13L55 12L54 12L54 11L53 11L53 10L51 10L51 9L50 9L50 10L47 10L47 7L48 7L48 6L47 6L47 7L46 7L46 6L45 6L45 7L44 7L44 5L43 5L43 7L42 7L42 6L41 6L41 5L40 5L40 4L43 4L43 3L39 3L39 2L36 2L36 3L35 3L35 1L33 1L33 2L32 2L32 1L31 1L31 4L33 4L33 3L35 3L35 4L36 4L36 3L38 3L38 4L37 4L37 5L38 5L38 6L37 6L37 10L36 10L36 9L34 9L34 10L32 10L32 9L31 9L31 8L32 8L32 5L30 5L30 6L29 6L29 7L28 7L28 5L29 5L29 3L30 3L30 2L29 2L29 3L28 3L28 2L27 2L27 3L26 3L26 4L25 4L25 3L21 3L21 4L20 4L20 5L21 5L21 4L25 4L25 5L22 5L22 6L21 6L21 8L20 8L20 6L19 6L19 5L18 5L18 4L17 4L17 3L18 3L18 2L17 2L17 3L14 3L14 1ZM15 1L15 2L16 2L16 1ZM41 1L41 2L42 2L42 1ZM50 2L50 3L49 3L49 4L50 4L50 5L49 5L49 8L50 8L50 6L51 6L51 7L52 7L52 5L51 5L51 4L50 4L50 3L51 3L51 2ZM8 3L8 4L9 4L9 3ZM27 3L27 4L28 4L28 3ZM60 3L60 5L61 5L61 3ZM12 4L12 5L13 5L13 4ZM25 5L25 6L24 6L24 9L23 9L23 10L24 10L24 9L25 9L25 11L26 11L26 12L27 12L27 11L28 11L28 10L26 10L26 8L25 8L25 6L26 6L26 7L27 7L27 5ZM33 5L33 8L36 8L36 5ZM39 5L39 6L38 6L38 7L39 7L39 6L40 6L40 8L38 8L38 9L39 9L39 10L37 10L37 11L39 11L39 12L37 12L37 13L36 13L36 12L34 12L34 11L33 11L33 12L34 12L34 13L33 13L33 14L34 14L34 13L35 13L35 17L36 17L36 16L37 16L37 18L35 18L35 19L36 19L36 20L33 20L33 21L32 21L32 22L30 22L30 21L31 21L31 20L32 20L32 18L33 18L33 16L34 16L34 15L33 15L33 16L32 16L32 15L31 15L31 14L30 14L30 13L32 13L32 12L31 12L31 11L32 11L32 10L31 10L31 9L30 9L30 8L27 8L27 9L30 9L30 10L29 10L29 12L30 12L30 13L29 13L29 14L28 14L28 15L27 15L27 16L28 16L28 15L29 15L29 18L30 18L30 19L29 19L29 20L30 20L30 21L29 21L29 22L27 22L27 21L28 21L28 19L26 19L26 17L24 17L24 16L23 16L23 17L22 17L22 16L21 16L21 17L18 17L18 18L20 18L20 19L19 19L19 20L20 20L20 21L21 21L21 22L20 22L20 25L19 25L19 26L20 26L20 27L19 27L19 28L20 28L20 29L21 29L21 28L22 28L22 27L21 27L21 26L22 26L22 25L24 25L24 26L23 26L23 27L24 27L24 28L25 28L25 29L22 29L22 30L21 30L21 32L23 32L23 33L21 33L21 34L22 34L22 35L23 35L23 36L24 36L24 35L23 35L23 34L25 34L25 33L28 33L28 34L26 34L26 35L25 35L25 37L23 37L23 38L24 38L24 41L23 41L23 42L24 42L24 41L25 41L25 42L26 42L26 44L24 44L24 43L22 43L22 42L21 42L21 44L23 44L23 46L20 46L20 47L21 47L21 48L22 48L22 47L23 47L23 46L24 46L24 47L25 47L25 48L26 48L26 47L25 47L25 45L26 45L26 44L27 44L27 45L29 45L29 46L28 46L28 47L27 47L27 48L28 48L28 47L29 47L29 50L33 50L33 51L34 51L34 49L31 49L31 48L30 48L30 47L29 47L29 46L31 46L31 44L27 44L27 43L28 43L28 42L27 42L27 41L28 41L28 40L29 40L29 41L30 41L30 43L31 43L31 42L32 42L32 41L33 41L33 40L34 40L34 39L35 39L35 40L37 40L37 39L38 39L38 38L37 38L37 39L35 39L35 38L34 38L34 37L38 37L38 36L37 36L37 34L38 34L38 32L43 32L43 33L40 33L40 35L39 35L39 36L40 36L40 35L41 35L41 34L43 34L43 33L44 33L44 36L43 36L43 37L42 37L42 36L41 36L41 37L40 37L40 38L42 38L42 39L45 39L45 40L47 40L47 41L49 41L49 42L46 42L46 43L47 43L47 46L46 46L46 45L44 45L44 46L46 46L46 47L45 47L45 49L44 49L44 47L43 47L43 48L42 48L42 46L43 46L43 44L45 44L45 42L44 42L44 40L41 40L41 39L39 39L39 40L41 40L41 41L40 41L40 43L39 43L39 42L38 42L38 41L34 41L34 42L35 42L35 45L33 45L33 44L32 44L32 45L33 45L33 46L32 46L32 47L33 47L33 46L34 46L34 47L35 47L35 48L36 48L36 47L37 47L37 48L38 48L38 47L39 47L39 48L40 48L40 47L41 47L41 48L42 48L42 49L41 49L41 50L39 50L39 51L37 51L37 50L38 50L38 49L37 49L37 50L36 50L36 49L35 49L35 52L38 52L38 53L37 53L37 54L36 54L36 55L31 55L31 54L33 54L33 53L34 53L34 52L33 52L33 53L32 53L32 51L29 51L29 52L28 52L28 51L27 51L27 53L29 53L29 54L27 54L27 57L29 57L29 58L27 58L27 60L28 60L28 61L31 61L31 60L30 60L30 59L31 59L31 58L32 58L32 59L33 59L33 58L32 58L32 57L33 57L33 56L35 56L35 57L36 57L36 58L35 58L35 59L36 59L36 58L38 58L38 59L39 59L39 62L40 62L40 59L41 59L41 58L42 58L42 60L41 60L41 62L42 62L42 63L43 63L43 61L44 61L44 59L43 59L43 57L44 57L44 56L46 56L46 57L47 57L47 59L46 59L46 58L45 58L45 60L47 60L47 62L46 62L46 61L45 61L45 62L46 62L46 63L47 63L47 62L50 62L50 61L51 61L51 63L53 63L53 62L55 62L55 61L56 61L56 56L55 56L55 55L54 55L54 54L53 54L53 53L51 53L51 54L52 54L52 56L51 56L51 55L50 55L50 52L51 52L51 50L50 50L50 49L49 49L49 48L50 48L50 47L47 47L47 46L50 46L50 45L51 45L51 43L53 43L53 42L55 42L55 41L56 41L56 42L57 42L57 41L56 41L56 40L55 40L55 39L58 39L58 41L59 41L59 39L58 39L58 38L56 38L56 36L55 36L55 37L52 37L52 38L53 38L53 39L52 39L52 40L55 40L55 41L53 41L53 42L51 42L51 43L50 43L50 45L49 45L49 44L48 44L48 43L49 43L49 42L50 42L50 41L49 41L49 38L50 38L50 40L51 40L51 38L50 38L50 36L48 36L48 35L51 35L51 34L52 34L52 35L55 35L55 34L56 34L56 32L59 32L59 31L58 31L58 30L57 30L57 31L56 31L56 30L55 30L55 29L56 29L56 28L55 28L55 27L56 27L56 26L57 26L57 27L58 27L58 28L57 28L57 29L59 29L59 30L62 30L62 29L63 29L63 28L64 28L64 27L63 27L63 26L64 26L64 24L63 24L63 26L62 26L62 24L61 24L61 23L60 23L60 22L62 22L62 21L63 21L63 20L62 20L62 21L61 21L61 19L60 19L60 20L57 20L57 19L56 19L56 18L57 18L57 17L58 17L58 16L57 16L57 17L56 17L56 14L57 14L57 15L58 15L58 14L57 14L57 13L56 13L56 14L55 14L55 13L54 13L54 12L53 12L53 13L54 13L54 14L53 14L53 15L52 15L52 13L51 13L51 10L50 10L50 11L49 11L49 12L47 12L47 11L46 11L46 12L45 12L45 13L44 13L44 12L43 12L43 13L42 13L42 14L41 14L41 12L42 12L42 10L45 10L45 9L46 9L46 7L45 7L45 9L44 9L44 8L43 8L43 9L41 9L41 10L40 10L40 8L41 8L41 6L40 6L40 5ZM15 6L15 7L16 7L16 6ZM18 6L18 7L19 7L19 6ZM22 6L22 7L23 7L23 6ZM30 6L30 7L31 7L31 6ZM34 6L34 7L35 7L35 6ZM60 6L60 7L61 7L61 6ZM21 8L21 9L22 9L22 8ZM57 8L57 9L58 9L58 8ZM60 8L60 9L59 9L59 10L62 10L62 8ZM63 8L63 9L64 9L64 8ZM2 9L2 10L3 10L3 12L4 12L4 9ZM13 9L13 10L14 10L14 9ZM17 9L17 10L15 10L15 11L14 11L14 12L13 12L13 11L11 11L11 12L13 12L13 13L14 13L14 12L15 12L15 11L17 11L17 12L18 12L18 11L19 11L19 10L18 10L18 9ZM30 10L30 11L31 11L31 10ZM35 10L35 11L36 11L36 10ZM39 10L39 11L40 11L40 12L39 12L39 13L37 13L37 14L39 14L39 15L40 15L40 16L38 16L38 15L37 15L37 16L38 16L38 18L37 18L37 19L39 19L39 21L42 21L42 20L40 20L40 19L39 19L39 18L41 18L41 17L42 17L42 16L44 16L44 17L43 17L43 20L44 20L44 22L41 22L41 23L40 23L40 22L37 22L37 21L38 21L38 20L37 20L37 21L33 21L33 23L32 23L32 25L31 25L31 27L33 27L33 28L34 28L34 29L33 29L33 30L31 30L31 31L30 31L30 32L31 32L31 33L29 33L29 32L28 32L28 31L29 31L29 29L28 29L28 28L30 28L30 26L29 26L29 25L30 25L30 24L29 24L29 25L28 25L28 24L27 24L27 23L26 23L26 22L24 22L24 23L23 23L23 24L25 24L25 25L27 25L27 27L26 27L26 26L25 26L25 27L26 27L26 30L28 30L28 31L27 31L27 32L28 32L28 33L29 33L29 34L31 34L31 35L32 35L32 32L34 32L34 31L33 31L33 30L34 30L34 29L35 29L35 30L37 30L37 29L36 29L36 28L35 28L35 27L36 27L36 26L35 26L35 25L36 25L36 24L38 24L38 26L41 26L41 25L42 25L42 24L41 24L41 23L43 23L43 24L44 24L44 25L43 25L43 26L46 26L46 27L43 27L43 28L44 28L44 29L45 29L45 30L42 30L42 27L37 27L37 28L40 28L40 29L38 29L38 31L39 31L39 30L40 30L40 31L43 31L43 32L44 32L44 33L45 33L45 36L44 36L44 37L45 37L45 38L49 38L49 37L48 37L48 36L47 36L47 33L46 33L46 32L47 32L47 29L45 29L45 28L49 28L49 29L48 29L48 30L49 30L49 29L50 29L50 31L49 31L49 32L50 32L50 34L51 34L51 33L52 33L52 34L53 34L53 33L55 33L55 32L54 32L54 31L53 31L53 30L51 30L51 29L50 29L50 27L47 27L47 25L48 25L48 24L50 24L50 22L51 22L51 21L55 21L55 20L56 20L56 22L57 22L57 23L59 23L59 21L57 21L57 20L56 20L56 19L54 19L54 18L53 18L53 19L54 19L54 20L51 20L51 21L50 21L50 22L49 22L49 23L48 23L48 22L47 22L47 21L46 21L46 20L47 20L47 19L46 19L46 18L49 18L49 20L50 20L50 18L51 18L51 19L52 19L52 18L51 18L51 16L52 16L52 17L54 17L54 16L55 16L55 14L54 14L54 15L53 15L53 16L52 16L52 15L50 15L50 14L51 14L51 13L50 13L50 12L49 12L49 13L50 13L50 14L47 14L47 13L45 13L45 15L46 15L46 16L47 16L47 15L50 15L50 16L49 16L49 17L46 17L46 18L45 18L45 16L44 16L44 15L43 15L43 14L44 14L44 13L43 13L43 14L42 14L42 15L40 15L40 14L39 14L39 13L40 13L40 12L41 12L41 11L40 11L40 10ZM63 11L63 12L64 12L64 11ZM9 13L9 14L10 14L10 13ZM26 13L26 14L27 14L27 13ZM11 14L11 15L12 15L12 14ZM21 14L21 15L22 15L22 14ZM25 15L25 16L26 16L26 15ZM31 16L31 17L32 17L32 16ZM6 17L6 18L7 18L7 17ZM21 17L21 19L22 19L22 20L21 20L21 21L22 21L22 22L21 22L21 23L22 23L22 22L23 22L23 21L27 21L27 20L24 20L24 18L23 18L23 19L22 19L22 17ZM27 17L27 18L28 18L28 17ZM49 17L49 18L50 18L50 17ZM55 17L55 18L56 18L56 17ZM44 18L44 19L45 19L45 18ZM62 18L62 19L63 19L63 18ZM10 19L10 20L11 20L11 19ZM13 20L13 22L15 22L15 21L14 21L14 20ZM7 22L7 23L6 23L6 24L7 24L7 25L5 25L5 23L4 23L4 25L3 25L3 27L4 27L4 25L5 25L5 26L7 26L7 27L6 27L6 28L8 28L8 29L9 29L9 28L12 28L12 27L11 27L11 25L13 25L13 24L11 24L11 25L10 25L10 27L8 27L8 26L9 26L9 25L8 25L8 24L7 24L7 23L8 23L8 22ZM29 22L29 23L30 23L30 22ZM35 22L35 23L37 23L37 22ZM44 22L44 23L45 23L45 24L46 24L46 25L47 25L47 24L48 24L48 23L47 23L47 24L46 24L46 22ZM54 22L54 23L51 23L51 25L50 25L50 26L53 26L53 28L52 28L52 27L51 27L51 28L52 28L52 29L55 29L55 28L54 28L54 26L53 26L53 25L55 25L55 24L56 24L56 25L57 25L57 26L59 26L59 25L60 25L60 24L58 24L58 25L57 25L57 24L56 24L56 23L55 23L55 22ZM63 22L63 23L64 23L64 22ZM25 23L25 24L26 24L26 23ZM39 23L39 24L40 24L40 23ZM54 23L54 24L55 24L55 23ZM21 24L21 25L20 25L20 26L21 26L21 25L22 25L22 24ZM33 24L33 27L35 27L35 26L34 26L34 24ZM7 25L7 26L8 26L8 25ZM28 26L28 27L29 27L29 26ZM60 27L60 28L59 28L59 29L60 29L60 28L61 28L61 27ZM62 27L62 28L63 28L63 27ZM68 27L68 28L69 28L69 27ZM31 28L31 29L32 29L32 28ZM15 29L15 30L16 30L16 31L14 31L14 33L13 33L13 32L11 32L11 34L10 34L10 35L11 35L11 34L12 34L12 36L13 36L13 34L14 34L14 35L15 35L15 34L16 34L16 35L17 35L17 36L18 36L18 35L17 35L17 33L18 33L18 32L17 32L17 31L18 31L18 29ZM67 29L67 30L69 30L69 29ZM22 30L22 31L23 31L23 32L24 32L24 33L25 33L25 32L26 32L26 31L25 31L25 30ZM45 30L45 31L44 31L44 32L46 32L46 30ZM31 31L31 32L32 32L32 31ZM50 31L50 32L52 32L52 31ZM15 32L15 33L14 33L14 34L15 34L15 33L16 33L16 32ZM66 32L66 33L67 33L67 34L68 34L68 33L67 33L67 32ZM5 33L5 36L8 36L8 33ZM33 33L33 36L36 36L36 33ZM48 33L48 34L49 34L49 33ZM61 33L61 36L64 36L64 33ZM6 34L6 35L7 35L7 34ZM34 34L34 35L35 35L35 34ZM62 34L62 35L63 35L63 34ZM26 35L26 37L27 37L27 38L25 38L25 40L26 40L26 41L27 41L27 39L28 39L28 38L29 38L29 36L28 36L28 35ZM67 35L67 36L66 36L66 37L67 37L67 36L68 36L68 35ZM3 36L3 37L2 37L2 38L3 38L3 39L4 39L4 40L2 40L2 41L4 41L4 42L2 42L2 43L1 43L1 44L2 44L2 45L4 45L4 44L2 44L2 43L4 43L4 42L5 42L5 41L6 41L6 42L7 42L7 41L6 41L6 40L8 40L8 41L9 41L9 42L10 42L10 43L9 43L9 44L10 44L10 45L11 45L11 46L12 46L12 48L14 48L14 47L13 47L13 46L12 46L12 44L10 44L10 43L11 43L11 42L10 42L10 41L11 41L11 37L10 37L10 36L9 36L9 38L8 38L8 39L6 39L6 38L7 38L7 37L4 37L4 36ZM45 36L45 37L47 37L47 36ZM57 36L57 37L58 37L58 36ZM31 37L31 38L30 38L30 39L29 39L29 40L30 40L30 41L32 41L32 37ZM62 37L62 39L65 39L65 37L64 37L64 38L63 38L63 37ZM4 38L4 39L5 39L5 40L4 40L4 41L5 41L5 40L6 40L6 39L5 39L5 38ZM9 38L9 39L8 39L8 40L10 40L10 38ZM15 38L15 40L18 40L18 41L19 41L19 42L20 42L20 41L19 41L19 40L21 40L21 41L22 41L22 40L21 40L21 39L22 39L22 38L20 38L20 39L19 39L19 40L18 40L18 39L16 39L16 38ZM33 38L33 39L34 39L34 38ZM66 38L66 39L67 39L67 41L68 41L68 39L67 39L67 38ZM47 39L47 40L48 40L48 39ZM63 40L63 41L64 41L64 40ZM37 42L37 44L38 44L38 45L35 45L35 47L36 47L36 46L39 46L39 47L40 47L40 46L39 46L39 45L40 45L40 44L41 44L41 43L40 43L40 44L39 44L39 43L38 43L38 42ZM43 42L43 43L44 43L44 42ZM15 43L15 44L16 44L16 43ZM55 43L55 44L53 44L53 46L56 46L56 47L58 47L58 46L56 46L56 43ZM58 44L58 45L59 45L59 44ZM41 45L41 46L42 46L42 45ZM60 45L60 46L61 46L61 45ZM62 45L62 46L63 46L63 45ZM46 47L46 49L45 49L45 52L44 52L44 51L43 51L43 52L44 52L44 53L43 53L43 54L42 54L42 53L41 53L41 51L42 51L42 50L41 50L41 51L39 51L39 53L41 53L41 54L42 54L42 55L43 55L43 56L42 56L42 57L43 57L43 56L44 56L44 53L45 53L45 54L46 54L46 56L47 56L47 55L49 55L49 54L48 54L48 53L45 53L45 52L46 52L46 51L50 51L50 50L49 50L49 49L47 49L47 47ZM63 47L63 48L64 48L64 47ZM54 48L54 49L55 49L55 48ZM57 48L57 49L58 49L58 48ZM5 49L5 50L4 50L4 51L3 51L3 53L4 53L4 51L6 51L6 50L7 50L7 49ZM27 49L27 50L28 50L28 49ZM43 49L43 50L44 50L44 49ZM16 51L16 52L14 52L14 59L15 59L15 60L14 60L14 61L15 61L15 62L14 62L14 64L13 64L13 65L16 65L16 67L15 67L15 68L16 68L16 67L17 67L17 68L18 68L18 67L17 67L17 65L18 65L18 64L17 64L17 63L18 63L18 62L19 62L19 61L18 61L18 60L16 60L16 59L15 59L15 58L16 58L16 57L17 57L17 59L18 59L18 57L17 57L17 56L18 56L18 53L16 53L16 52L17 52L17 51ZM5 52L5 53L6 53L6 54L5 54L5 55L6 55L6 56L7 56L7 57L6 57L6 58L7 58L7 57L8 57L8 58L9 58L9 59L10 59L10 60L9 60L9 62L10 62L10 64L9 64L9 67L11 67L11 68L12 68L12 67L13 67L13 66L12 66L12 67L11 67L11 65L10 65L10 64L12 64L12 63L13 63L13 60L12 60L12 63L11 63L11 61L10 61L10 60L11 60L11 58L9 58L9 57L8 57L8 56L7 56L7 55L6 55L6 54L7 54L7 53L6 53L6 52ZM11 52L11 53L12 53L12 52ZM59 53L59 54L60 54L60 53ZM3 54L3 55L4 55L4 54ZM15 54L15 55L16 55L16 56L15 56L15 57L16 57L16 56L17 56L17 55L16 55L16 54ZM29 54L29 55L28 55L28 56L29 56L29 57L30 57L30 56L29 56L29 55L30 55L30 54ZM37 54L37 55L38 55L38 56L36 56L36 57L38 57L38 58L39 58L39 57L41 57L41 56L39 56L39 55L40 55L40 54ZM19 55L19 56L20 56L20 58L21 58L21 57L22 57L22 56L20 56L20 55ZM49 56L49 57L48 57L48 58L49 58L49 57L50 57L50 59L47 59L47 60L49 60L49 61L50 61L50 59L51 59L51 58L52 58L52 60L51 60L51 61L52 61L52 62L53 62L53 61L55 61L55 58L52 58L52 57L54 57L54 56L52 56L52 57L50 57L50 56ZM4 57L4 58L5 58L5 57ZM12 58L12 59L13 59L13 58ZM29 58L29 59L30 59L30 58ZM57 58L57 59L58 59L58 60L59 60L59 59L58 59L58 58ZM63 58L63 59L64 59L64 58ZM53 59L53 60L54 60L54 59ZM3 60L3 61L5 61L5 60ZM42 60L42 61L43 61L43 60ZM17 61L17 62L16 62L16 63L15 63L15 64L16 64L16 65L17 65L17 64L16 64L16 63L17 63L17 62L18 62L18 61ZM33 61L33 64L36 64L36 61ZM57 61L57 62L58 62L58 61ZM61 61L61 64L64 64L64 61ZM67 61L67 62L68 62L68 61ZM23 62L23 63L24 63L24 62ZM28 62L28 63L31 63L31 62ZM34 62L34 63L35 63L35 62ZM62 62L62 63L63 63L63 62ZM65 62L65 63L66 63L66 62ZM25 63L25 64L26 64L26 63ZM44 63L44 64L41 64L41 66L44 66L44 64L45 64L45 66L46 66L46 64L45 64L45 63ZM65 64L65 65L67 65L67 64ZM30 65L30 66L32 66L32 65ZM33 65L33 66L35 66L35 65ZM48 65L48 66L49 66L49 65ZM55 66L55 67L56 67L56 66ZM21 67L21 68L20 68L20 69L21 69L21 68L22 68L22 67ZM23 67L23 69L24 69L24 68L26 68L26 67ZM29 67L29 68L30 68L30 67ZM47 67L47 68L48 68L48 67ZM60 67L60 68L61 68L61 67ZM33 68L33 69L34 69L34 68ZM0 0L0 7L7 7L7 0ZM1 1L1 6L6 6L6 1ZM2 2L2 5L5 5L5 2ZM62 0L62 7L69 7L69 0ZM63 1L63 6L68 6L68 1ZM64 2L64 5L67 5L67 2ZM0 62L0 69L7 69L7 62ZM1 63L1 68L6 68L6 63ZM2 64L2 67L5 67L5 64Z" fill="#000000"/></g></g></svg>
