<?xml version="1.0" encoding="UTF-8"?>
<svg xmlns="http://www.w3.org/2000/svg" version="1.1" width="300" height="300" viewBox="0 0 300 300"><rect x="0" y="0" width="300" height="300" fill="#ffffff"/><g transform="scale(4.348)"><g transform="translate(0,0)"><path fill-rule="evenodd" d="M8 0L8 4L12 4L12 5L13 5L13 4L14 4L14 3L13 3L13 2L14 2L14 1L15 1L15 2L16 2L16 3L19 3L19 1L20 1L20 2L21 2L21 0L16 0L16 1L15 1L15 0L13 0L13 2L12 2L12 3L10 3L10 2L11 2L11 0ZM22 0L22 1L24 1L24 2L23 2L23 3L22 3L22 4L21 4L21 3L20 3L20 5L19 5L19 4L17 4L17 5L16 5L16 7L15 7L15 6L14 6L14 7L15 7L15 8L13 8L13 6L12 6L12 8L11 8L11 9L12 9L12 11L11 11L11 12L12 12L12 13L11 13L11 17L9 17L9 16L10 16L10 15L7 15L7 14L6 14L6 13L8 13L8 14L9 14L9 12L10 12L10 9L9 9L9 12L6 12L6 11L8 11L8 10L6 10L6 11L5 11L5 10L3 10L3 9L2 9L2 8L0 8L0 9L1 9L1 11L0 11L0 13L1 13L1 16L0 16L0 17L2 17L2 14L3 14L3 15L4 15L4 16L5 16L5 15L4 15L4 13L5 13L5 14L6 14L6 15L7 15L7 16L6 16L6 17L9 17L9 18L8 18L8 21L9 21L9 22L6 22L6 21L7 21L7 20L5 20L5 25L4 25L4 27L5 27L5 28L4 28L4 29L3 29L3 26L2 26L2 25L3 25L3 24L4 24L4 23L3 23L3 22L4 22L4 19L3 19L3 18L1 18L1 20L2 20L2 19L3 19L3 22L2 22L2 24L1 24L1 22L0 22L0 24L1 24L1 25L0 25L0 28L2 28L2 29L1 29L1 30L0 30L0 31L2 31L2 32L1 32L1 33L2 33L2 34L0 34L0 37L2 37L2 38L1 38L1 40L2 40L2 42L0 42L0 43L4 43L4 44L1 44L1 45L4 45L4 46L3 46L3 47L4 47L4 51L3 51L3 52L1 52L1 53L0 53L0 57L4 57L4 56L5 56L5 55L4 55L4 53L5 53L5 52L6 52L6 53L9 53L9 56L6 56L6 57L5 57L5 58L4 58L4 59L10 59L10 61L9 61L9 60L6 60L6 61L8 61L8 62L10 62L10 61L11 61L11 58L12 58L12 59L13 59L13 58L14 58L14 57L15 57L15 59L16 59L16 58L17 58L17 59L18 59L18 61L17 61L17 63L15 63L15 62L16 62L16 60L12 60L12 62L13 62L13 63L14 63L14 66L16 66L16 68L15 68L15 69L16 69L16 68L17 68L17 69L20 69L20 68L19 68L19 67L20 67L20 66L21 66L21 69L22 69L22 66L24 66L24 67L23 67L23 68L24 68L24 69L25 69L25 68L24 68L24 67L26 67L26 69L27 69L27 67L28 67L28 66L30 66L30 65L31 65L31 67L30 67L30 68L29 68L29 69L31 69L31 67L32 67L32 69L33 69L33 66L34 66L34 65L35 65L35 66L37 66L37 65L38 65L38 67L39 67L39 68L38 68L38 69L40 69L40 67L39 67L39 66L40 66L40 63L41 63L41 67L43 67L43 63L42 63L42 62L44 62L44 69L46 69L46 67L45 67L45 63L46 63L46 64L47 64L47 66L49 66L49 64L50 64L50 67L48 67L48 69L49 69L49 68L50 68L50 69L52 69L52 68L53 68L53 69L54 69L54 67L56 67L56 69L57 69L57 68L59 68L59 69L60 69L60 67L59 67L59 66L61 66L61 65L62 65L62 66L63 66L63 65L65 65L65 66L64 66L64 67L63 67L63 68L62 68L62 67L61 67L61 69L65 69L65 68L64 68L64 67L67 67L67 66L69 66L69 63L68 63L68 62L69 62L69 59L68 59L68 54L67 54L67 53L69 53L69 52L68 52L68 50L66 50L66 49L65 49L65 50L64 50L64 49L63 49L63 48L65 48L65 47L66 47L66 46L67 46L67 48L68 48L68 49L69 49L69 48L68 48L68 46L67 46L67 44L64 44L64 43L63 43L63 44L62 44L62 42L61 42L61 41L66 41L66 42L65 42L65 43L68 43L68 40L69 40L69 39L68 39L68 38L69 38L69 35L68 35L68 33L69 33L69 32L67 32L67 34L65 34L65 33L66 33L66 32L63 32L63 31L62 31L62 30L63 30L63 29L64 29L64 28L65 28L65 29L66 29L66 27L65 27L65 26L67 26L67 28L68 28L68 25L67 25L67 24L65 24L65 22L66 22L66 23L68 23L68 24L69 24L69 23L68 23L68 22L69 22L69 20L68 20L68 18L67 18L67 17L68 17L68 16L69 16L69 15L68 15L68 13L67 13L67 12L69 12L69 11L68 11L68 10L67 10L67 9L69 9L69 8L65 8L65 9L64 9L64 8L63 8L63 9L61 9L61 8L60 8L60 7L61 7L61 6L60 6L60 7L59 7L59 4L58 4L58 8L59 8L59 10L58 10L58 9L57 9L57 8L56 8L56 7L57 7L57 5L55 5L55 4L56 4L56 3L54 3L54 2L52 2L52 1L56 1L56 2L57 2L57 3L59 3L59 2L58 2L58 1L61 1L61 0L52 0L52 1L51 1L51 0L50 0L50 2L49 2L49 0L48 0L48 2L47 2L47 1L46 1L46 0L45 0L45 1L44 1L44 0L40 0L40 4L38 4L38 3L37 3L37 2L38 2L38 1L39 1L39 0L38 0L38 1L37 1L37 0L35 0L35 1L34 1L34 4L33 4L33 0L32 0L32 1L31 1L31 0L30 0L30 1L31 1L31 2L29 2L29 0ZM25 1L25 3L26 3L26 4L25 4L25 7L24 7L24 6L23 6L23 5L20 5L20 6L19 6L19 5L18 5L18 6L17 6L17 9L18 9L18 10L20 10L20 11L21 11L21 12L22 12L22 13L21 13L21 15L22 15L22 13L25 13L25 15L26 15L26 16L27 16L27 15L29 15L29 13L28 13L28 12L30 12L30 11L31 11L31 13L32 13L32 12L34 12L34 10L33 10L33 9L32 9L32 6L31 6L31 5L32 5L32 2L31 2L31 3L29 3L29 2L28 2L28 1L27 1L27 2L26 2L26 1ZM41 1L41 3L42 3L42 4L43 4L43 5L44 5L44 6L43 6L43 8L40 8L40 9L43 9L43 11L46 11L46 14L43 14L43 17L44 17L44 15L45 15L45 17L46 17L46 18L48 18L48 19L51 19L51 18L50 18L50 17L51 17L51 16L52 16L52 21L51 21L51 22L52 22L52 23L50 23L50 20L49 20L49 21L46 21L46 22L49 22L49 26L47 26L47 25L48 25L48 23L47 23L47 25L46 25L46 26L47 26L47 27L49 27L49 28L50 28L50 29L48 29L48 30L47 30L47 28L46 28L46 27L45 27L45 29L43 29L43 31L40 31L40 33L44 33L44 34L43 34L43 35L41 35L41 34L39 34L39 35L37 35L37 37L36 37L36 38L37 38L37 37L38 37L38 36L39 36L39 37L40 37L40 38L38 38L38 40L37 40L37 39L35 39L35 37L31 37L31 39L34 39L34 40L33 40L33 41L32 41L32 40L30 40L30 41L28 41L28 40L29 40L29 39L30 39L30 37L29 37L29 34L30 34L30 33L29 33L29 32L26 32L26 31L25 31L25 30L22 30L22 31L20 31L20 29L19 29L19 30L18 30L18 31L17 31L17 26L16 26L16 27L15 27L15 28L14 28L14 26L12 26L12 25L11 25L11 24L8 24L8 23L6 23L6 24L8 24L8 25L9 25L9 26L11 26L11 27L10 27L10 28L9 28L9 27L8 27L8 26L7 26L7 25L6 25L6 26L5 26L5 27L6 27L6 28L9 28L9 29L8 29L8 30L7 30L7 29L5 29L5 30L4 30L4 31L3 31L3 32L7 32L7 31L9 31L9 34L10 34L10 35L11 35L11 36L12 36L12 37L13 37L13 39L12 39L12 40L10 40L10 38L11 38L11 37L9 37L9 39L8 39L8 37L4 37L4 35L3 35L3 36L2 36L2 37L4 37L4 40L3 40L3 38L2 38L2 40L3 40L3 41L4 41L4 43L5 43L5 42L7 42L7 41L5 41L5 40L8 40L8 41L9 41L9 42L10 42L10 41L15 41L15 42L14 42L14 43L13 43L13 42L12 42L12 47L13 47L13 45L15 45L15 44L14 44L14 43L16 43L16 42L17 42L17 43L18 43L18 44L19 44L19 45L17 45L17 44L16 44L16 48L15 48L15 47L14 47L14 48L13 48L13 50L14 50L14 48L15 48L15 49L16 49L16 50L15 50L15 52L16 52L16 51L17 51L17 50L18 50L18 51L20 51L20 50L21 50L21 52L22 52L22 53L21 53L21 54L20 54L20 52L19 52L19 53L18 53L18 52L17 52L17 53L15 53L15 54L14 54L14 53L13 53L13 52L14 52L14 51L12 51L12 50L11 50L11 49L10 49L10 48L11 48L11 46L8 46L8 49L6 49L6 48L7 48L7 47L5 47L5 46L4 46L4 47L5 47L5 49L6 49L6 50L7 50L7 51L6 51L6 52L7 52L7 51L8 51L8 52L9 52L9 53L11 53L11 54L10 54L10 55L11 55L11 57L12 57L12 58L13 58L13 57L14 57L14 56L15 56L15 57L17 57L17 56L16 56L16 54L17 54L17 53L18 53L18 54L20 54L20 55L18 55L18 56L19 56L19 57L21 57L21 58L22 58L22 59L19 59L19 58L18 58L18 59L19 59L19 60L22 60L22 61L21 61L21 62L20 62L20 61L18 61L18 63L17 63L17 64L16 64L16 66L17 66L17 65L18 65L18 64L19 64L19 65L20 65L20 64L19 64L19 62L20 62L20 63L21 63L21 64L22 64L22 65L21 65L21 66L22 66L22 65L30 65L30 64L31 64L31 65L32 65L32 66L33 66L33 65L32 65L32 64L31 64L31 63L32 63L32 62L31 62L31 61L32 61L32 58L33 58L33 60L37 60L37 62L38 62L38 63L37 63L37 64L38 64L38 65L39 65L39 64L38 64L38 63L40 63L40 62L41 62L41 60L38 60L38 59L39 59L39 58L40 58L40 59L41 59L41 58L40 58L40 57L41 57L41 56L42 56L42 57L44 57L44 54L45 54L45 53L46 53L46 54L47 54L47 53L46 53L46 52L47 52L47 51L46 51L46 50L47 50L47 49L48 49L48 47L47 47L47 48L45 48L45 45L44 45L44 40L45 40L45 39L43 39L43 42L38 42L38 40L39 40L39 39L40 39L40 41L41 41L41 39L40 39L40 38L41 38L41 37L42 37L42 36L43 36L43 38L45 38L45 37L46 37L46 42L45 42L45 43L46 43L46 44L48 44L48 41L47 41L47 39L48 39L48 40L50 40L50 41L49 41L49 43L50 43L50 44L52 44L52 46L51 46L51 47L50 47L50 45L49 45L49 47L50 47L50 49L49 49L49 50L50 50L50 52L49 52L49 51L48 51L48 52L49 52L49 54L48 54L48 55L49 55L49 58L48 58L48 59L49 59L49 60L50 60L50 59L51 59L51 60L52 60L52 61L51 61L51 62L50 62L50 61L49 61L49 63L47 63L47 64L49 64L49 63L50 63L50 64L52 64L52 65L51 65L51 66L53 66L53 65L55 65L55 63L56 63L56 62L54 62L54 64L52 64L52 61L53 61L53 60L55 60L55 61L56 61L56 60L57 60L57 61L58 61L58 63L57 63L57 65L56 65L56 66L57 66L57 65L58 65L58 66L59 66L59 65L60 65L60 64L59 64L59 65L58 65L58 63L59 63L59 61L60 61L60 60L59 60L59 59L60 59L60 58L61 58L61 57L62 57L62 56L61 56L61 57L60 57L60 55L59 55L59 53L60 53L60 54L61 54L61 55L64 55L64 56L63 56L63 57L64 57L64 60L65 60L65 61L67 61L67 62L66 62L66 63L65 63L65 65L68 65L68 63L67 63L67 62L68 62L68 59L67 59L67 57L66 57L66 56L67 56L67 55L66 55L66 54L65 54L65 52L66 52L66 53L67 53L67 51L64 51L64 50L63 50L63 49L62 49L62 51L61 51L61 53L60 53L60 52L59 52L59 51L60 51L60 50L59 50L59 49L60 49L60 47L61 47L61 48L62 48L62 47L65 47L65 46L66 46L66 45L64 45L64 44L63 44L63 45L62 45L62 44L61 44L61 43L60 43L60 42L59 42L59 41L60 41L60 40L59 40L59 39L57 39L57 37L58 37L58 38L59 38L59 37L60 37L60 39L61 39L61 40L62 40L62 39L64 39L64 40L68 40L68 39L66 39L66 38L65 38L65 37L66 37L66 36L67 36L67 37L68 37L68 35L65 35L65 37L63 37L63 38L62 38L62 37L60 37L60 36L59 36L59 37L58 37L58 36L57 36L57 35L60 35L60 34L59 34L59 33L60 33L60 31L61 31L61 30L62 30L62 29L63 29L63 26L62 26L62 24L63 24L63 23L64 23L64 22L65 22L65 21L67 21L67 22L68 22L68 20L67 20L67 19L66 19L66 16L68 16L68 15L67 15L67 13L65 13L65 12L67 12L67 10L66 10L66 11L64 11L64 10L63 10L63 12L62 12L62 13L61 13L61 10L59 10L59 11L58 11L58 10L57 10L57 11L58 11L58 12L57 12L57 13L55 13L55 12L52 12L52 11L55 11L55 10L52 10L52 9L54 9L54 8L55 8L55 9L56 9L56 8L55 8L55 7L56 7L56 6L55 6L55 7L54 7L54 6L53 6L53 7L54 7L54 8L52 8L52 5L50 5L50 3L51 3L51 4L52 4L52 2L50 2L50 3L49 3L49 2L48 2L48 3L47 3L47 4L46 4L46 5L44 5L44 4L45 4L45 3L46 3L46 2L45 2L45 3L44 3L44 2L42 2L42 1ZM35 2L35 3L36 3L36 4L37 4L37 3L36 3L36 2ZM12 3L12 4L13 4L13 3ZM28 3L28 4L26 4L26 5L27 5L27 6L26 6L26 7L27 7L27 6L28 6L28 9L27 9L27 8L26 8L26 9L25 9L25 8L24 8L24 7L23 7L23 6L22 6L22 8L24 8L24 9L23 9L23 11L22 11L22 12L23 12L23 11L24 11L24 12L25 12L25 13L27 13L27 14L28 14L28 13L27 13L27 12L26 12L26 11L30 11L30 10L31 10L31 11L32 11L32 10L31 10L31 9L30 9L30 8L31 8L31 6L30 6L30 5L31 5L31 4L29 4L29 3ZM43 3L43 4L44 4L44 3ZM60 3L60 5L61 5L61 3ZM28 4L28 5L29 5L29 4ZM40 4L40 5L39 5L39 7L40 7L40 5L41 5L41 4ZM48 4L48 5L47 5L47 6L46 6L46 7L45 7L45 6L44 6L44 7L45 7L45 8L44 8L44 9L45 9L45 10L46 10L46 11L47 11L47 14L46 14L46 16L47 16L47 15L48 15L48 17L49 17L49 15L51 15L51 13L52 13L52 15L53 15L53 14L54 14L54 17L53 17L53 18L55 18L55 19L53 19L53 21L52 21L52 22L53 22L53 23L52 23L52 24L50 24L50 28L51 28L51 29L50 29L50 32L49 32L49 31L46 31L46 29L45 29L45 30L44 30L44 33L45 33L45 34L44 34L44 37L45 37L45 34L46 34L46 37L50 37L50 38L48 38L48 39L50 39L50 40L51 40L51 41L50 41L50 43L51 43L51 41L52 41L52 44L53 44L53 46L52 46L52 47L53 47L53 48L54 48L54 46L56 46L56 47L55 47L55 49L53 49L53 51L52 51L52 49L50 49L50 50L51 50L51 52L50 52L50 54L49 54L49 55L50 55L50 54L53 54L53 53L54 53L54 55L55 55L55 56L53 56L53 55L52 55L52 56L50 56L50 58L49 58L49 59L50 59L50 58L51 58L51 57L52 57L52 56L53 56L53 57L54 57L54 59L55 59L55 60L56 60L56 59L59 59L59 58L60 58L60 57L59 57L59 55L57 55L57 53L59 53L59 52L58 52L58 51L59 51L59 50L58 50L58 48L59 48L59 47L60 47L60 46L61 46L61 47L62 47L62 46L61 46L61 44L60 44L60 45L59 45L59 44L58 44L58 43L56 43L56 45L54 45L54 43L53 43L53 42L55 42L55 37L53 37L53 38L52 38L52 40L51 40L51 39L50 39L50 38L51 38L51 37L52 37L52 36L56 36L56 37L57 37L57 36L56 36L56 34L57 34L57 31L58 31L58 29L59 29L59 30L61 30L61 28L62 28L62 27L61 27L61 25L60 25L60 24L62 24L62 23L63 23L63 22L64 22L64 20L65 20L65 17L64 17L64 16L65 16L65 15L64 15L64 14L65 14L65 13L64 13L64 14L63 14L63 13L62 13L62 14L63 14L63 15L62 15L62 19L61 19L61 17L59 17L59 18L58 18L58 15L59 15L59 14L61 14L61 13L60 13L60 11L59 11L59 12L58 12L58 13L57 13L57 14L58 14L58 15L56 15L56 14L55 14L55 13L52 13L52 12L51 12L51 11L52 11L52 10L51 10L51 9L52 9L52 8L51 8L51 9L49 9L49 8L50 8L50 7L51 7L51 6L50 6L50 5L49 5L49 4ZM8 5L8 7L9 7L9 8L10 8L10 7L11 7L11 6L10 6L10 5ZM33 5L33 8L36 8L36 5ZM37 5L37 8L38 8L38 5ZM9 6L9 7L10 7L10 6ZM18 6L18 7L19 7L19 6ZM20 6L20 8L18 8L18 9L20 9L20 10L22 10L22 9L21 9L21 6ZM29 6L29 7L30 7L30 6ZM34 6L34 7L35 7L35 6ZM41 6L41 7L42 7L42 6ZM47 6L47 8L45 8L45 9L46 9L46 10L47 10L47 8L49 8L49 7L50 7L50 6L49 6L49 7L48 7L48 6ZM4 8L4 9L7 9L7 8ZM12 8L12 9L13 9L13 8ZM14 9L14 10L13 10L13 11L12 11L12 12L13 12L13 11L14 11L14 12L15 12L15 14L16 14L16 17L17 17L17 18L15 18L15 17L14 17L14 16L15 16L15 15L14 15L14 16L12 16L12 17L13 17L13 18L11 18L11 19L10 19L10 20L9 20L9 21L10 21L10 22L9 22L9 23L10 23L10 22L11 22L11 21L12 21L12 20L13 20L13 23L12 23L12 24L13 24L13 25L14 25L14 24L15 24L15 25L17 25L17 24L16 24L16 23L15 23L15 22L18 22L18 24L19 24L19 22L20 22L20 20L19 20L19 21L17 21L17 20L16 20L16 19L17 19L17 18L18 18L18 17L19 17L19 19L20 19L20 18L21 18L21 20L22 20L22 21L21 21L21 23L20 23L20 25L19 25L19 27L20 27L20 25L21 25L21 27L22 27L22 26L23 26L23 27L24 27L24 29L26 29L26 28L29 28L29 27L33 27L33 28L32 28L32 29L31 29L31 30L30 30L30 29L28 29L28 31L29 31L29 30L30 30L30 31L32 31L32 32L31 32L31 33L32 33L32 32L36 32L36 31L39 31L39 30L38 30L38 29L37 29L37 30L36 30L36 28L37 28L37 26L38 26L38 25L37 25L37 26L36 26L36 27L35 27L35 26L34 26L34 25L36 25L36 24L39 24L39 23L40 23L40 22L41 22L41 24L40 24L40 27L38 27L38 28L39 28L39 29L40 29L40 30L42 30L42 28L43 28L43 26L41 26L41 25L42 25L42 24L43 24L43 25L44 25L44 24L45 24L45 23L44 23L44 20L46 20L46 19L44 19L44 18L41 18L41 17L42 17L42 16L40 16L40 19L39 19L39 18L38 18L38 17L39 17L39 16L38 16L38 15L42 15L42 13L43 13L43 12L42 12L42 10L39 10L39 11L38 11L38 12L36 12L36 13L33 13L33 15L32 15L32 14L31 14L31 15L32 15L32 16L31 16L31 19L29 19L29 20L28 20L28 22L27 22L27 21L26 21L26 20L27 20L27 19L28 19L28 18L29 18L29 16L28 16L28 17L27 17L27 19L26 19L26 17L25 17L25 16L24 16L24 17L25 17L25 18L24 18L24 19L22 19L22 17L23 17L23 16L22 16L22 17L19 17L19 16L18 16L18 17L17 17L17 15L18 15L18 14L17 14L17 13L16 13L16 12L19 12L19 14L20 14L20 12L19 12L19 11L17 11L17 10L16 10L16 9ZM24 9L24 10L25 10L25 11L26 11L26 10L27 10L27 9L26 9L26 10L25 10L25 9ZM28 9L28 10L30 10L30 9ZM35 9L35 11L36 11L36 9ZM37 9L37 10L38 10L38 9ZM2 10L2 11L3 11L3 12L5 12L5 13L6 13L6 12L5 12L5 11L3 11L3 10ZM14 10L14 11L16 11L16 10ZM39 11L39 13L38 13L38 14L37 14L37 13L36 13L36 14L37 14L37 15L36 15L36 16L35 16L35 14L34 14L34 15L33 15L33 16L32 16L32 17L33 17L33 18L32 18L32 19L31 19L31 20L29 20L29 22L28 22L28 23L30 23L30 21L31 21L31 22L32 22L32 21L31 21L31 20L32 20L32 19L34 19L34 20L35 20L35 19L36 19L36 21L38 21L38 20L39 20L39 22L40 22L40 20L41 20L41 22L43 22L43 20L41 20L41 19L40 19L40 20L39 20L39 19L36 19L36 17L37 17L37 15L38 15L38 14L39 14L39 13L40 13L40 14L41 14L41 11ZM49 11L49 14L50 14L50 11ZM1 12L1 13L2 13L2 12ZM12 13L12 15L13 15L13 13ZM58 13L58 14L59 14L59 13ZM55 15L55 17L56 17L56 19L57 19L57 21L56 21L56 22L55 22L55 23L53 23L53 24L52 24L52 25L51 25L51 26L52 26L52 27L53 27L53 26L52 26L52 25L56 25L56 22L57 22L57 25L58 25L58 26L60 26L60 25L58 25L58 23L59 23L59 24L60 24L60 23L62 23L62 20L63 20L63 19L64 19L64 17L63 17L63 19L62 19L62 20L60 20L60 21L58 21L58 19L57 19L57 17L56 17L56 15ZM34 16L34 18L35 18L35 16ZM5 18L5 19L7 19L7 18ZM13 18L13 20L14 20L14 18ZM59 18L59 19L60 19L60 18ZM11 19L11 20L12 20L12 19ZM15 20L15 21L16 21L16 20ZM23 21L23 22L25 22L25 23L24 23L24 24L22 24L22 23L21 23L21 25L24 25L24 26L25 26L25 28L26 28L26 26L27 26L27 27L28 27L28 25L29 25L29 26L33 26L33 27L34 27L34 28L33 28L33 31L34 31L34 30L35 30L35 29L34 29L34 28L35 28L35 27L34 27L34 26L33 26L33 25L32 25L32 23L31 23L31 24L30 24L30 25L29 25L29 24L28 24L28 25L27 25L27 24L26 24L26 21ZM33 21L33 23L34 23L34 24L36 24L36 23L34 23L34 21ZM57 21L57 22L58 22L58 21ZM60 21L60 22L61 22L61 21ZM13 23L13 24L14 24L14 23ZM25 24L25 26L26 26L26 24ZM64 24L64 26L65 26L65 24ZM6 26L6 27L7 27L7 26ZM56 26L56 27L54 27L54 28L55 28L55 29L56 29L56 30L55 30L55 31L51 31L51 34L50 34L50 33L48 33L48 35L47 35L47 36L48 36L48 35L49 35L49 36L50 36L50 37L51 37L51 36L52 36L52 35L51 35L51 34L53 34L53 35L55 35L55 34L56 34L56 33L55 33L55 31L56 31L56 30L57 30L57 29L58 29L58 28L59 28L59 27L58 27L58 28L57 28L57 29L56 29L56 27L57 27L57 26ZM12 27L12 28L11 28L11 29L12 29L12 33L11 33L11 34L12 34L12 33L14 33L14 32L15 32L15 34L13 34L13 35L12 35L12 36L14 36L14 37L15 37L15 39L13 39L13 40L15 40L15 41L16 41L16 40L17 40L17 41L20 41L20 42L19 42L19 43L21 43L21 45L19 45L19 46L18 46L18 47L17 47L17 49L18 49L18 50L19 50L19 49L21 49L21 50L22 50L22 51L23 51L23 52L24 52L24 51L25 51L25 49L26 49L26 50L27 50L27 49L28 49L28 48L29 48L29 50L28 50L28 51L27 51L27 52L26 52L26 53L23 53L23 54L24 54L24 55L25 55L25 56L22 56L22 55L20 55L20 56L21 56L21 57L24 57L24 58L25 58L25 57L27 57L27 58L26 58L26 61L24 61L24 59L22 59L22 60L23 60L23 61L22 61L22 62L21 62L21 63L23 63L23 61L24 61L24 63L26 63L26 64L30 64L30 63L27 63L27 62L28 62L28 60L29 60L29 61L31 61L31 59L30 59L30 58L32 58L32 57L34 57L34 56L35 56L35 58L34 58L34 59L35 59L35 58L37 58L37 59L38 59L38 58L39 58L39 57L40 57L40 55L41 55L41 54L42 54L42 55L43 55L43 54L44 54L44 53L45 53L45 50L46 50L46 49L45 49L45 48L44 48L44 47L43 47L43 44L41 44L41 43L39 43L39 45L38 45L38 44L36 44L36 43L38 43L38 42L37 42L37 40L36 40L36 43L34 43L34 42L35 42L35 41L33 41L33 45L31 45L31 42L32 42L32 41L30 41L30 43L27 43L27 42L28 42L28 41L27 41L27 40L28 40L28 39L29 39L29 38L28 38L28 37L27 37L27 36L25 36L25 34L26 34L26 35L28 35L28 34L29 34L29 33L24 33L24 32L25 32L25 31L24 31L24 32L23 32L23 34L24 34L24 35L22 35L22 36L20 36L20 38L19 38L19 36L17 36L17 38L16 38L16 36L15 36L15 35L16 35L16 33L17 33L17 35L18 35L18 34L19 34L19 35L20 35L20 34L22 34L22 32L20 32L20 33L19 33L19 32L18 32L18 33L17 33L17 31L16 31L16 32L15 32L15 30L16 30L16 29L15 29L15 30L14 30L14 28L13 28L13 27ZM40 27L40 28L42 28L42 27ZM60 27L60 28L61 28L61 27ZM22 28L22 29L23 29L23 28ZM52 28L52 29L53 29L53 28ZM9 29L9 31L10 31L10 29ZM67 29L67 30L64 30L64 31L68 31L68 29ZM5 30L5 31L7 31L7 30ZM13 31L13 32L14 32L14 31ZM38 32L38 33L39 33L39 32ZM45 32L45 33L46 33L46 34L47 34L47 33L46 33L46 32ZM5 33L5 36L8 36L8 33ZM33 33L33 36L36 36L36 33ZM53 33L53 34L55 34L55 33ZM61 33L61 36L64 36L64 33ZM6 34L6 35L7 35L7 34ZM34 34L34 35L35 35L35 34ZM62 34L62 35L63 35L63 34ZM30 35L30 36L31 36L31 35ZM22 36L22 37L21 37L21 38L20 38L20 39L19 39L19 38L17 38L17 39L19 39L19 40L20 40L20 39L21 39L21 41L22 41L22 42L21 42L21 43L22 43L22 48L21 48L21 47L20 47L20 46L19 46L19 47L20 47L20 48L21 48L21 49L25 49L25 47L26 47L26 48L28 48L28 47L27 47L27 45L26 45L26 44L27 44L27 43L26 43L26 44L25 44L25 45L26 45L26 46L24 46L24 48L23 48L23 45L24 45L24 43L22 43L22 42L23 42L23 41L24 41L24 42L25 42L25 41L26 41L26 42L27 42L27 41L26 41L26 40L27 40L27 39L28 39L28 38L27 38L27 37L25 37L25 38L24 38L24 39L23 39L23 40L22 40L22 39L21 39L21 38L23 38L23 37L24 37L24 36ZM6 38L6 39L7 39L7 38ZM25 38L25 39L26 39L26 38ZM61 38L61 39L62 39L62 38ZM64 38L64 39L65 39L65 38ZM15 39L15 40L16 40L16 39ZM53 39L53 40L52 40L52 41L54 41L54 39ZM9 40L9 41L10 41L10 40ZM24 40L24 41L25 41L25 40ZM56 40L56 41L58 41L58 40ZM6 43L6 44L7 44L7 43ZM8 43L8 44L10 44L10 45L11 45L11 44L10 44L10 43ZM4 44L4 45L5 45L5 44ZM28 44L28 46L29 46L29 48L34 48L34 50L35 50L35 49L36 49L36 51L35 51L35 52L34 52L34 51L33 51L33 49L30 49L30 50L29 50L29 52L30 52L30 50L31 50L31 52L32 52L32 51L33 51L33 53L32 53L32 54L30 54L30 53L28 53L28 54L25 54L25 55L27 55L27 56L28 56L28 58L27 58L27 60L28 60L28 58L29 58L29 57L30 57L30 56L31 56L31 57L32 57L32 56L33 56L33 55L34 55L34 54L35 54L35 55L36 55L36 56L38 56L38 57L37 57L37 58L38 58L38 57L39 57L39 56L38 56L38 55L40 55L40 54L41 54L41 53L42 53L42 51L43 51L43 53L44 53L44 51L43 51L43 50L42 50L42 51L41 51L41 49L42 49L42 45L41 45L41 46L40 46L40 45L39 45L39 47L38 47L38 45L37 45L37 46L36 46L36 47L35 47L35 46L34 46L34 45L35 45L35 44L34 44L34 45L33 45L33 46L34 46L34 47L32 47L32 46L29 46L29 44ZM57 44L57 45L56 45L56 46L57 46L57 45L58 45L58 47L59 47L59 45L58 45L58 44ZM68 44L68 45L69 45L69 44ZM6 45L6 46L7 46L7 45ZM46 45L46 46L47 46L47 45ZM63 45L63 46L64 46L64 45ZM0 46L0 47L2 47L2 46ZM9 47L9 48L10 48L10 47ZM34 47L34 48L35 48L35 47ZM36 47L36 48L37 48L37 49L38 49L38 50L39 50L39 51L37 51L37 53L38 53L38 52L39 52L39 54L40 54L40 52L41 52L41 51L40 51L40 48L41 48L41 47L39 47L39 49L38 49L38 48L37 48L37 47ZM0 48L0 50L1 50L1 51L2 51L2 50L3 50L3 49L2 49L2 48ZM18 48L18 49L19 49L19 48ZM43 48L43 49L44 49L44 50L45 50L45 49L44 49L44 48ZM9 49L9 50L8 50L8 51L10 51L10 52L12 52L12 51L11 51L11 50L10 50L10 49ZM56 49L56 50L55 50L55 51L58 51L58 50L57 50L57 49ZM39 51L39 52L40 52L40 51ZM62 51L62 53L61 53L61 54L64 54L64 55L65 55L65 54L64 54L64 53L63 53L63 51ZM35 52L35 53L36 53L36 52ZM52 52L52 53L53 53L53 52ZM54 52L54 53L55 53L55 52ZM2 53L2 55L3 55L3 53ZM33 53L33 54L34 54L34 53ZM6 54L6 55L8 55L8 54ZM12 54L12 55L13 55L13 56L12 56L12 57L13 57L13 56L14 56L14 54ZM28 54L28 55L30 55L30 54ZM36 54L36 55L37 55L37 54ZM31 55L31 56L32 56L32 55ZM56 55L56 56L55 56L55 58L56 58L56 56L57 56L57 55ZM9 56L9 57L8 57L8 58L10 58L10 56ZM64 56L64 57L65 57L65 56ZM6 57L6 58L7 58L7 57ZM46 57L46 58L47 58L47 57ZM58 57L58 58L59 58L59 57ZM0 58L0 61L1 61L1 58ZM2 58L2 59L3 59L3 58ZM42 58L42 61L44 61L44 59L45 59L45 61L46 61L46 62L47 62L47 61L46 61L46 60L47 60L47 59L45 59L45 58ZM62 58L62 59L61 59L61 60L63 60L63 58ZM3 60L3 61L5 61L5 60ZM26 61L26 62L27 62L27 61ZM33 61L33 64L36 64L36 61ZM38 61L38 62L39 62L39 61ZM61 61L61 64L64 64L64 61ZM34 62L34 63L35 63L35 62ZM62 62L62 63L63 63L63 62ZM8 63L8 65L9 65L9 64L12 64L12 63ZM10 66L10 67L8 67L8 69L10 69L10 68L11 68L11 69L13 69L13 66L12 66L12 68L11 68L11 66ZM18 66L18 67L19 67L19 66ZM34 67L34 68L35 68L35 67ZM50 67L50 68L51 68L51 67ZM36 68L36 69L37 69L37 68ZM41 68L41 69L43 69L43 68ZM66 68L66 69L67 69L67 68ZM68 68L68 69L69 69L69 68ZM0 0L0 7L7 7L7 0ZM1 1L1 6L6 6L6 1ZM2 2L2 5L5 5L5 2ZM62 0L62 7L69 7L69 0ZM63 1L63 6L68 6L68 1ZM64 2L64 5L67 5L67 2ZM0 62L0 69L7 69L7 62ZM1 63L1 68L6 68L6 63ZM2 64L2 67L5 67L5 64Z" fill="#000000"/></g></g></svg>
