<?xml version="1.0" encoding="UTF-8"?>
<svg xmlns="http://www.w3.org/2000/svg" version="1.1" width="300" height="300" viewBox="0 0 300 300"><rect x="0" y="0" width="300" height="300" fill="#ffffff"/><g transform="scale(4.348)"><g transform="translate(0,0)"><path fill-rule="evenodd" d="M8 0L8 1L9 1L9 2L8 2L8 5L9 5L9 4L10 4L10 5L11 5L11 6L10 6L10 7L9 7L9 6L8 6L8 7L9 7L9 8L8 8L8 9L7 9L7 8L6 8L6 9L7 9L7 10L5 10L5 9L4 9L4 8L0 8L0 10L1 10L1 11L0 11L0 13L3 13L3 14L1 14L1 15L0 15L0 17L1 17L1 19L0 19L0 22L1 22L1 23L0 23L0 24L1 24L1 26L2 26L2 27L0 27L0 32L1 32L1 33L2 33L2 35L3 35L3 36L1 36L1 35L0 35L0 36L1 36L1 38L0 38L0 40L1 40L1 42L0 42L0 44L1 44L1 42L3 42L3 43L5 43L5 44L6 44L6 45L5 45L5 46L6 46L6 47L7 47L7 48L5 48L5 47L4 47L4 46L3 46L3 48L2 48L2 49L0 49L0 50L1 50L1 51L0 51L0 52L1 52L1 51L2 51L2 53L3 53L3 54L2 54L2 55L1 55L1 54L0 54L0 56L1 56L1 57L3 57L3 58L2 58L2 59L3 59L3 58L4 58L4 59L7 59L7 58L8 58L8 62L10 62L10 61L11 61L11 62L12 62L12 60L10 60L10 59L11 59L11 57L10 57L10 59L9 59L9 56L8 56L8 55L7 55L7 54L6 54L6 53L7 53L7 52L6 52L6 53L5 53L5 54L4 54L4 53L3 53L3 51L4 51L4 52L5 52L5 50L6 50L6 51L7 51L7 50L8 50L8 51L9 51L9 52L10 52L10 54L11 54L11 53L12 53L12 55L10 55L10 56L13 56L13 57L15 57L15 56L16 56L16 59L15 59L15 58L13 58L13 59L15 59L15 60L13 60L13 61L15 61L15 62L16 62L16 63L14 63L14 62L13 62L13 65L11 65L11 64L12 64L12 63L11 63L11 64L10 64L10 63L9 63L9 65L8 65L8 69L10 69L10 67L11 67L11 68L13 68L13 67L11 67L11 66L13 66L13 65L14 65L14 68L15 68L15 65L16 65L16 66L17 66L17 67L20 67L20 69L21 69L21 68L22 68L22 69L23 69L23 68L24 68L24 67L25 67L25 68L26 68L26 67L27 67L27 69L28 69L28 67L30 67L30 66L31 66L31 65L30 65L30 66L29 66L29 65L28 65L28 63L29 63L29 62L31 62L31 64L32 64L32 65L33 65L33 66L32 66L32 67L31 67L31 69L32 69L32 67L33 67L33 66L35 66L35 67L34 67L34 68L33 68L33 69L34 69L34 68L35 68L35 69L36 69L36 68L35 68L35 67L37 67L37 66L36 66L36 65L37 65L37 63L40 63L40 64L39 64L39 65L40 65L40 66L39 66L39 67L38 67L38 68L37 68L37 69L41 69L41 68L40 68L40 67L41 67L41 66L42 66L42 65L40 65L40 64L41 64L41 62L39 62L39 61L38 61L38 59L39 59L39 58L40 58L40 60L41 60L41 59L42 59L42 60L43 60L43 61L44 61L44 62L43 62L43 63L44 63L44 64L43 64L43 65L45 65L45 66L44 66L44 68L45 68L45 67L46 67L46 68L47 68L47 67L48 67L48 68L49 68L49 67L50 67L50 68L51 68L51 69L53 69L53 68L54 68L54 69L55 69L55 68L56 68L56 66L54 66L54 65L57 65L57 66L58 66L58 67L57 67L57 69L65 69L65 67L64 67L64 65L67 65L67 66L68 66L68 65L69 65L69 64L67 64L67 63L65 63L65 61L67 61L67 60L69 60L69 56L68 56L68 55L67 55L67 52L68 52L68 54L69 54L69 52L68 52L68 51L69 51L69 45L66 45L66 44L65 44L65 43L64 43L64 44L65 44L65 45L66 45L66 46L65 46L65 47L64 47L64 49L65 49L65 51L64 51L64 50L63 50L63 48L62 48L62 50L63 50L63 51L62 51L62 53L63 53L63 54L65 54L65 53L63 53L63 52L66 52L66 55L67 55L67 57L68 57L68 58L65 58L65 59L63 59L63 57L62 57L62 58L61 58L61 57L59 57L59 58L58 58L58 60L60 60L60 61L59 61L59 63L58 63L58 61L57 61L57 62L55 62L55 63L54 63L54 62L53 62L53 61L52 61L52 63L50 63L50 62L51 62L51 61L50 61L50 59L51 59L51 60L53 60L53 59L52 59L52 58L50 58L50 57L54 57L54 61L56 61L56 59L57 59L57 57L54 57L54 56L57 56L57 55L54 55L54 53L52 53L52 52L51 52L51 50L53 50L53 52L55 52L55 53L56 53L56 54L59 54L59 55L58 55L58 56L59 56L59 55L60 55L60 56L61 56L61 55L62 55L62 54L61 54L61 55L60 55L60 52L58 52L58 49L59 49L59 51L61 51L61 50L60 50L60 49L59 49L59 48L60 48L60 47L63 47L63 43L62 43L62 41L64 41L64 42L65 42L65 40L67 40L67 39L65 39L65 38L63 38L63 39L62 39L62 37L68 37L68 38L69 38L69 37L68 37L68 35L69 35L69 31L68 31L68 28L69 28L69 27L68 27L68 28L67 28L67 27L66 27L66 25L67 25L67 26L69 26L69 24L66 24L66 23L69 23L69 22L67 22L67 20L69 20L69 19L68 19L68 18L69 18L69 15L68 15L68 16L67 16L67 15L66 15L66 14L69 14L69 13L68 13L68 12L69 12L69 10L67 10L67 8L64 8L64 9L63 9L63 10L65 10L65 14L63 14L63 13L64 13L64 11L62 11L62 8L61 8L61 6L60 6L60 7L59 7L59 4L56 4L56 3L57 3L57 1L61 1L61 0L57 0L57 1L56 1L56 0L52 0L52 1L50 1L50 0L47 0L47 1L48 1L48 2L50 2L50 3L47 3L47 5L48 5L48 4L50 4L50 8L49 8L49 9L48 9L48 8L46 8L46 9L47 9L47 11L46 11L46 10L45 10L45 9L43 9L43 8L42 8L42 11L41 11L41 8L39 8L39 6L40 6L40 7L41 7L41 5L39 5L39 4L38 4L38 3L41 3L41 4L43 4L43 5L42 5L42 7L43 7L43 5L44 5L44 8L45 8L45 5L46 5L46 4L44 4L44 2L45 2L45 3L46 3L46 2L45 2L45 0L44 0L44 2L43 2L43 3L42 3L42 1L43 1L43 0L39 0L39 1L38 1L38 0L35 0L35 1L34 1L34 2L33 2L33 4L32 4L32 2L30 2L30 1L32 1L32 0L30 0L30 1L29 1L29 2L27 2L27 1L28 1L28 0L26 0L26 1L25 1L25 0L21 0L21 1L19 1L19 0L17 0L17 1L15 1L15 0L13 0L13 2L14 2L14 1L15 1L15 2L17 2L17 3L16 3L16 5L17 5L17 6L16 6L16 7L17 7L17 8L16 8L16 9L15 9L15 8L14 8L14 7L15 7L15 6L14 6L14 7L13 7L13 6L12 6L12 5L15 5L15 3L13 3L13 4L11 4L11 3L10 3L10 0ZM11 1L11 2L12 2L12 1ZM17 1L17 2L19 2L19 1ZM21 1L21 2L20 2L20 3L21 3L21 4L23 4L23 5L26 5L26 6L25 6L25 7L24 7L24 6L23 6L23 7L22 7L22 5L21 5L21 7L22 7L22 8L20 8L20 4L17 4L17 5L18 5L18 6L17 6L17 7L18 7L18 6L19 6L19 8L18 8L18 9L16 9L16 10L14 10L14 9L13 9L13 7L12 7L12 6L11 6L11 8L12 8L12 9L13 9L13 10L9 10L9 9L10 9L10 8L9 8L9 9L8 9L8 10L7 10L7 11L4 11L4 9L2 9L2 10L3 10L3 12L5 12L5 13L4 13L4 14L5 14L5 15L3 15L3 16L4 16L4 17L3 17L3 18L2 18L2 19L1 19L1 22L2 22L2 19L4 19L4 21L3 21L3 25L2 25L2 26L3 26L3 28L2 28L2 29L3 29L3 30L1 30L1 32L2 32L2 33L3 33L3 34L4 34L4 29L6 29L6 30L5 30L5 32L7 32L7 31L6 31L6 30L9 30L9 34L10 34L10 32L12 32L12 35L11 35L11 36L10 36L10 35L9 35L9 36L10 36L10 37L8 37L8 40L7 40L7 39L4 39L4 40L5 40L5 41L4 41L4 42L5 42L5 41L6 41L6 42L7 42L7 41L11 41L11 43L10 43L10 42L9 42L9 43L8 43L8 44L9 44L9 43L10 43L10 44L11 44L11 46L12 46L12 43L13 43L13 45L14 45L14 42L13 42L13 41L14 41L14 40L13 40L13 41L12 41L12 40L9 40L9 39L10 39L10 37L12 37L12 39L15 39L15 36L14 36L14 35L16 35L16 36L18 36L18 35L17 35L17 33L19 33L19 34L21 34L21 35L20 35L20 36L19 36L19 37L16 37L16 41L15 41L15 44L17 44L17 42L16 42L16 41L19 41L19 43L18 43L18 45L15 45L15 48L14 48L14 46L13 46L13 47L12 47L12 49L11 49L11 50L10 50L10 49L8 49L8 50L10 50L10 51L11 51L11 52L12 52L12 53L13 53L13 55L14 55L14 56L15 56L15 55L14 55L14 54L16 54L16 55L19 55L19 56L18 56L18 57L17 57L17 58L18 58L18 60L19 60L19 61L20 61L20 60L21 60L21 59L23 59L23 60L22 60L22 61L23 61L23 63L22 63L22 62L20 62L20 63L19 63L19 62L18 62L18 61L17 61L17 59L16 59L16 60L15 60L15 61L16 61L16 62L17 62L17 63L19 63L19 64L18 64L18 66L19 66L19 64L21 64L21 63L22 63L22 65L20 65L20 67L22 67L22 68L23 68L23 64L24 64L24 62L25 62L25 64L26 64L26 66L27 66L27 64L26 64L26 62L25 62L25 60L26 60L26 61L28 61L28 62L29 62L29 60L30 60L30 59L32 59L32 60L31 60L31 61L32 61L32 60L33 60L33 59L35 59L35 60L37 60L37 59L38 59L38 58L39 58L39 57L38 57L38 58L37 58L37 59L36 59L36 57L35 57L35 58L31 58L31 57L33 57L33 56L32 56L32 55L33 55L33 54L30 54L30 53L32 53L32 52L33 52L33 51L34 51L34 53L35 53L35 51L34 51L34 49L35 49L35 48L32 48L32 47L33 47L33 46L34 46L34 47L35 47L35 46L36 46L36 45L37 45L37 46L38 46L38 47L36 47L36 48L39 48L39 50L37 50L37 49L36 49L36 51L37 51L37 52L38 52L38 51L44 51L44 52L45 52L45 53L44 53L44 55L41 55L41 54L40 54L40 53L41 53L41 52L40 52L40 53L38 53L38 54L39 54L39 55L38 55L38 56L40 56L40 55L41 55L41 56L43 56L43 58L44 58L44 61L45 61L45 59L47 59L47 56L48 56L48 57L49 57L49 56L50 56L50 55L51 55L51 56L53 56L53 55L52 55L52 54L51 54L51 53L50 53L50 51L49 51L49 49L50 49L50 48L51 48L51 47L52 47L52 49L53 49L53 50L54 50L54 51L55 51L55 50L56 50L56 49L58 49L58 48L59 48L59 45L62 45L62 44L60 44L60 43L61 43L61 41L60 41L60 42L59 42L59 43L58 43L58 42L57 42L57 41L59 41L59 40L58 40L58 39L59 39L59 38L60 38L60 40L61 40L61 37L60 37L60 34L59 34L59 33L60 33L60 32L63 32L63 31L62 31L62 30L64 30L64 31L65 31L65 32L67 32L67 30L66 30L66 27L65 27L65 28L64 28L64 27L62 27L62 28L61 28L61 27L60 27L60 26L61 26L61 25L63 25L63 26L65 26L65 23L66 23L66 22L65 22L65 21L63 21L63 20L60 20L60 21L62 21L62 22L64 22L64 25L63 25L63 23L61 23L61 22L59 22L59 21L58 21L58 20L54 20L54 18L55 18L55 19L62 19L62 18L63 18L63 19L64 19L64 20L65 20L65 19L66 19L66 20L67 20L67 18L68 18L68 17L67 17L67 16L66 16L66 17L65 17L65 15L64 15L64 17L61 17L61 16L62 16L62 15L63 15L63 14L61 14L61 13L62 13L62 12L61 12L61 11L59 11L59 9L61 9L61 8L58 8L58 9L57 9L57 7L58 7L58 5L55 5L55 4L54 4L54 3L56 3L56 2L53 2L53 1L52 1L52 2L51 2L51 3L50 3L50 4L52 4L52 6L51 6L51 7L52 7L52 6L53 6L53 7L54 7L54 8L55 8L55 7L56 7L56 9L57 9L57 10L54 10L54 11L53 11L53 10L52 10L52 8L51 8L51 9L50 9L50 11L47 11L47 12L50 12L50 13L52 13L52 14L53 14L53 13L54 13L54 14L55 14L55 15L50 15L50 14L47 14L47 13L46 13L46 14L47 14L47 16L46 16L46 17L50 17L50 18L53 18L53 20L54 20L54 21L56 21L56 22L54 22L54 23L58 23L58 22L59 22L59 23L60 23L60 24L61 24L61 25L59 25L59 24L56 24L56 26L55 26L55 24L53 24L53 22L52 22L52 23L50 23L50 24L49 24L49 25L52 25L52 26L50 26L50 27L49 27L49 26L48 26L48 24L47 24L47 25L46 25L46 23L47 23L47 22L48 22L48 21L50 21L50 22L51 22L51 20L52 20L52 19L51 19L51 20L48 20L48 19L47 19L47 20L48 20L48 21L45 21L45 20L44 20L44 18L45 18L45 19L46 19L46 18L45 18L45 17L44 17L44 18L43 18L43 16L44 16L44 15L45 15L45 11L44 11L44 13L42 13L42 12L43 12L43 11L42 11L42 12L41 12L41 11L39 11L39 9L38 9L38 8L37 8L37 9L38 9L38 10L36 10L36 9L32 9L32 6L31 6L31 8L30 8L30 6L29 6L29 8L28 8L28 6L27 6L27 3L26 3L26 2L25 2L25 1ZM35 1L35 2L37 2L37 3L38 3L38 1ZM40 1L40 2L41 2L41 1ZM21 2L21 3L22 3L22 2ZM23 2L23 3L24 3L24 4L26 4L26 3L24 3L24 2ZM52 2L52 3L53 3L53 2ZM58 2L58 3L59 3L59 2ZM28 3L28 5L29 5L29 3ZM35 3L35 4L36 4L36 3ZM60 3L60 5L61 5L61 3ZM30 4L30 5L31 5L31 4ZM33 5L33 8L36 8L36 5ZM37 5L37 7L38 7L38 6L39 6L39 5ZM26 6L26 7L25 7L25 8L26 8L26 7L27 7L27 6ZM34 6L34 7L35 7L35 6ZM46 6L46 7L47 7L47 6ZM48 6L48 7L49 7L49 6ZM54 6L54 7L55 7L55 6ZM56 6L56 7L57 7L57 6ZM23 7L23 8L22 8L22 9L23 9L23 11L22 11L22 10L21 10L21 12L25 12L25 10L26 10L26 9L25 9L25 10L24 10L24 9L23 9L23 8L24 8L24 7ZM27 8L27 10L28 10L28 8ZM29 8L29 9L30 9L30 8ZM68 8L68 9L69 9L69 8ZM18 9L18 10L16 10L16 11L10 11L10 12L9 12L9 10L8 10L8 11L7 11L7 12L6 12L6 13L8 13L8 16L6 16L6 15L7 15L7 14L6 14L6 15L5 15L5 18L6 18L6 19L7 19L7 20L6 20L6 21L4 21L4 23L5 23L5 24L4 24L4 25L3 25L3 26L4 26L4 27L7 27L7 26L6 26L6 25L7 25L7 24L6 24L6 23L7 23L7 22L8 22L8 18L6 18L6 17L9 17L9 20L10 20L10 22L11 22L11 20L12 20L12 22L14 22L14 23L15 23L15 24L11 24L11 23L10 23L10 24L9 24L9 28L6 28L6 29L10 29L10 31L12 31L12 32L13 32L13 34L14 34L14 32L15 32L15 33L16 33L16 30L17 30L17 27L19 27L19 29L21 29L21 30L20 30L20 32L21 32L21 34L22 34L22 35L21 35L21 36L20 36L20 37L19 37L19 38L17 38L17 40L18 40L18 39L19 39L19 40L21 40L21 39L19 39L19 38L21 38L21 36L23 36L23 37L22 37L22 39L27 39L27 40L25 40L25 41L24 41L24 40L23 40L23 41L21 41L21 42L20 42L20 45L18 45L18 48L15 48L15 49L13 49L13 50L12 50L12 51L13 51L13 52L15 52L15 53L16 53L16 54L17 54L17 52L20 52L20 53L21 53L21 54L20 54L20 57L21 57L21 58L19 58L19 60L20 60L20 59L21 59L21 58L22 58L22 56L23 56L23 57L24 57L24 58L25 58L25 59L26 59L26 58L27 58L27 59L28 59L28 58L27 58L27 57L30 57L30 56L27 56L27 55L26 55L26 53L27 53L27 54L29 54L29 52L31 52L31 51L33 51L33 50L30 50L30 49L31 49L31 47L30 47L30 48L29 48L29 46L30 46L30 44L31 44L31 42L33 42L33 43L34 43L34 46L35 46L35 45L36 45L36 44L35 44L35 43L34 43L34 42L35 42L35 41L34 41L34 40L37 40L37 41L36 41L36 42L37 42L37 41L39 41L39 42L40 42L40 44L39 44L39 43L38 43L38 45L39 45L39 46L43 46L43 47L39 47L39 48L42 48L42 49L44 49L44 48L43 48L43 47L44 47L44 45L41 45L41 43L44 43L44 44L45 44L45 45L47 45L47 46L46 46L46 47L45 47L45 48L46 48L46 47L47 47L47 46L48 46L48 43L49 43L49 41L50 41L50 40L49 40L49 41L46 41L46 40L47 40L47 39L46 39L46 37L45 37L45 39L44 39L44 38L42 38L42 39L44 39L44 40L41 40L41 39L39 39L39 40L38 40L38 39L37 39L37 38L41 38L41 37L40 37L40 35L39 35L39 34L38 34L38 33L41 33L41 36L42 36L42 35L43 35L43 37L44 37L44 36L47 36L47 37L49 37L49 38L48 38L48 39L49 39L49 38L51 38L51 39L52 39L52 40L51 40L51 42L50 42L50 43L51 43L51 44L50 44L50 45L53 45L53 46L55 46L55 47L54 47L54 48L53 48L53 49L54 49L54 48L55 48L55 49L56 49L56 48L55 48L55 47L56 47L56 46L57 46L57 47L58 47L58 46L57 46L57 45L58 45L58 43L56 43L56 42L55 42L55 43L56 43L56 44L57 44L57 45L56 45L56 46L55 46L55 44L54 44L54 42L53 42L53 41L52 41L52 40L53 40L53 39L54 39L54 38L53 38L53 37L51 37L51 36L50 36L50 35L51 35L51 34L52 34L52 33L53 33L53 35L52 35L52 36L54 36L54 37L56 37L56 36L54 36L54 34L55 34L55 35L57 35L57 33L59 33L59 32L60 32L60 31L58 31L58 30L60 30L60 29L59 29L59 27L57 27L57 28L55 28L55 26L54 26L54 27L53 27L53 30L50 30L50 33L48 33L48 32L47 32L47 31L48 31L48 27L47 27L47 26L46 26L46 25L45 25L45 26L46 26L46 27L45 27L45 28L43 28L43 27L44 27L44 26L43 26L43 27L42 27L42 26L41 26L41 27L42 27L42 28L43 28L43 30L44 30L44 31L46 31L46 32L47 32L47 33L48 33L48 34L50 34L50 35L49 35L49 36L48 36L48 35L43 35L43 32L42 32L42 33L41 33L41 31L42 31L42 30L41 30L41 29L40 29L40 28L39 28L39 26L40 26L40 25L38 25L38 28L37 28L37 27L36 27L36 24L39 24L39 23L40 23L40 24L41 24L41 25L42 25L42 24L41 24L41 23L40 23L40 22L39 22L39 23L38 23L38 22L37 22L37 23L36 23L36 24L35 24L35 23L34 23L34 21L36 21L36 19L38 19L38 20L39 20L39 21L41 21L41 22L43 22L43 21L41 21L41 19L43 19L43 18L42 18L42 16L41 16L41 17L40 17L40 16L39 16L39 17L40 17L40 19L38 19L38 18L35 18L35 17L33 17L33 16L32 16L32 15L31 15L31 14L30 14L30 16L32 16L32 17L30 17L30 18L32 18L32 17L33 17L33 18L35 18L35 20L34 20L34 19L31 19L31 21L32 21L32 22L30 22L30 20L29 20L29 24L28 24L28 25L29 25L29 26L28 26L28 27L26 27L26 28L25 28L25 27L24 27L24 25L25 25L25 26L27 26L27 25L26 25L26 24L22 24L22 25L23 25L23 26L21 26L21 25L19 25L19 24L21 24L21 23L23 23L23 22L25 22L25 20L26 20L26 19L27 19L27 18L28 18L28 19L29 19L29 17L27 17L27 16L26 16L26 15L25 15L25 14L26 14L26 13L25 13L25 14L24 14L24 15L25 15L25 16L24 16L24 17L25 17L25 16L26 16L26 19L24 19L24 21L23 21L23 19L21 19L21 17L22 17L22 18L23 18L23 17L22 17L22 16L20 16L20 15L21 15L21 13L20 13L20 12L19 12L19 11L20 11L20 9ZM31 9L31 10L32 10L32 11L33 11L33 12L35 12L35 15L36 15L36 16L37 16L37 17L38 17L38 15L39 15L39 14L40 14L40 13L38 13L38 11L37 11L37 15L36 15L36 12L35 12L35 10L34 10L34 11L33 11L33 10L32 10L32 9ZM18 10L18 11L19 11L19 10ZM66 10L66 12L67 12L67 10ZM1 11L1 12L2 12L2 11ZM16 11L16 12L15 12L15 13L14 13L14 14L15 14L15 16L14 16L14 15L13 15L13 13L9 13L9 14L12 14L12 15L10 15L10 16L9 16L9 17L10 17L10 16L11 16L11 18L10 18L10 20L11 20L11 18L12 18L12 15L13 15L13 17L14 17L14 18L16 18L16 19L15 19L15 20L17 20L17 18L19 18L19 19L20 19L20 20L21 20L21 19L20 19L20 16L19 16L19 15L17 15L17 14L15 14L15 13L16 13L16 12L17 12L17 11ZM29 11L29 13L32 13L32 12L31 12L31 11ZM50 11L50 12L51 12L51 11ZM52 11L52 12L53 12L53 11ZM54 11L54 13L55 13L55 14L57 14L57 15L60 15L60 16L59 16L59 17L57 17L57 16L56 16L56 15L55 15L55 16L53 16L53 18L54 18L54 17L55 17L55 18L60 18L60 16L61 16L61 15L60 15L60 14L58 14L58 13L60 13L60 12L59 12L59 11L56 11L56 12L58 12L58 13L55 13L55 11ZM18 13L18 14L19 14L19 13ZM27 13L27 14L28 14L28 13ZM22 14L22 15L23 15L23 14ZM33 14L33 15L34 15L34 14ZM41 14L41 15L42 15L42 14ZM43 14L43 15L44 15L44 14ZM49 15L49 16L50 16L50 17L52 17L52 16L50 16L50 15ZM1 16L1 17L2 17L2 16ZM15 16L15 17L16 17L16 18L17 18L17 16ZM18 16L18 17L19 17L19 16ZM12 19L12 20L13 20L13 21L14 21L14 22L15 22L15 23L16 23L16 25L17 25L17 23L18 23L18 24L19 24L19 23L21 23L21 22L23 22L23 21L20 21L20 22L17 22L17 23L16 23L16 21L14 21L14 20L13 20L13 19ZM18 20L18 21L19 21L19 20ZM27 20L27 21L28 21L28 20ZM6 21L6 22L5 22L5 23L6 23L6 22L7 22L7 21ZM44 21L44 22L45 22L45 21ZM27 22L27 23L28 23L28 22ZM32 22L32 24L31 24L31 23L30 23L30 24L31 24L31 25L30 25L30 28L29 28L29 27L28 27L28 28L29 28L29 29L30 29L30 30L28 30L28 31L27 31L27 29L26 29L26 30L25 30L25 29L24 29L24 30L23 30L23 28L24 28L24 27L21 27L21 26L20 26L20 27L21 27L21 28L22 28L22 30L23 30L23 31L21 31L21 32L23 32L23 33L22 33L22 34L23 34L23 33L25 33L25 34L26 34L26 35L23 35L23 36L24 36L24 38L25 38L25 36L26 36L26 38L27 38L27 39L28 39L28 38L29 38L29 39L30 39L30 38L31 38L31 37L32 37L32 38L33 38L33 39L35 39L35 38L33 38L33 37L32 37L32 36L31 36L31 37L30 37L30 38L29 38L29 36L27 36L27 32L28 32L28 35L29 35L29 31L30 31L30 30L31 30L31 25L32 25L32 24L33 24L33 25L34 25L34 26L33 26L33 27L32 27L32 31L33 31L33 32L36 32L36 31L33 31L33 30L39 30L39 32L40 32L40 30L39 30L39 29L35 29L35 25L34 25L34 23L33 23L33 22ZM43 23L43 25L44 25L44 23ZM5 24L5 25L4 25L4 26L5 26L5 25L6 25L6 24ZM10 24L10 26L11 26L11 24ZM12 25L12 26L13 26L13 27L14 27L14 28L15 28L15 29L13 29L13 31L14 31L14 30L15 30L15 29L16 29L16 27L17 27L17 26L13 26L13 25ZM57 25L57 26L58 26L58 25ZM10 27L10 28L11 28L11 29L12 29L12 27ZM50 27L50 28L51 28L51 29L52 29L52 28L51 28L51 27ZM3 28L3 29L4 29L4 28ZM33 28L33 29L34 29L34 28ZM45 28L45 29L44 29L44 30L45 30L45 29L46 29L46 28ZM57 28L57 29L56 29L56 32L55 32L55 34L56 34L56 33L57 33L57 32L58 32L58 31L57 31L57 29L58 29L58 28ZM62 28L62 29L63 29L63 28ZM54 29L54 30L53 30L53 31L51 31L51 32L53 32L53 33L54 33L54 32L53 32L53 31L55 31L55 29ZM64 29L64 30L65 30L65 29ZM18 30L18 31L19 31L19 30ZM46 30L46 31L47 31L47 30ZM2 31L2 32L3 32L3 31ZM23 31L23 32L26 32L26 31ZM37 31L37 33L38 33L38 31ZM30 32L30 33L31 33L31 32ZM5 33L5 36L8 36L8 33ZM33 33L33 36L36 36L36 33ZM44 33L44 34L45 34L45 33ZM50 33L50 34L51 34L51 33ZM61 33L61 36L64 36L64 33ZM65 33L65 34L66 34L66 36L67 36L67 34L68 34L68 33L67 33L67 34L66 34L66 33ZM6 34L6 35L7 35L7 34ZM30 34L30 35L31 35L31 34ZM34 34L34 35L35 35L35 34ZM58 34L58 35L59 35L59 34ZM62 34L62 35L63 35L63 34ZM12 35L12 36L13 36L13 37L14 37L14 36L13 36L13 35ZM37 35L37 36L38 36L38 37L39 37L39 35ZM49 36L49 37L50 37L50 36ZM57 36L57 38L58 38L58 37L59 37L59 36ZM2 37L2 38L7 38L7 37ZM27 37L27 38L28 38L28 37ZM36 37L36 38L37 38L37 37ZM1 39L1 40L2 40L2 41L3 41L3 40L2 40L2 39ZM31 39L31 40L29 40L29 42L30 42L30 41L31 41L31 40L32 40L32 41L33 41L33 40L32 40L32 39ZM55 39L55 41L57 41L57 40L56 40L56 39ZM6 40L6 41L7 41L7 40ZM40 40L40 42L41 42L41 40ZM68 40L68 41L67 41L67 42L66 42L66 43L68 43L68 44L69 44L69 43L68 43L68 42L69 42L69 40ZM27 41L27 42L28 42L28 41ZM42 41L42 42L43 42L43 41ZM44 41L44 42L45 42L45 43L46 43L46 44L47 44L47 43L46 43L46 42L45 42L45 41ZM21 42L21 44L22 44L22 43L23 43L23 44L24 44L24 45L25 45L25 46L26 46L26 45L27 45L27 44L24 44L24 43L26 43L26 42ZM51 42L51 43L52 43L52 44L53 44L53 45L54 45L54 44L53 44L53 42ZM6 43L6 44L7 44L7 43ZM28 43L28 46L29 46L29 43ZM2 44L2 45L1 45L1 46L2 46L2 45L3 45L3 44ZM6 45L6 46L8 46L8 48L9 48L9 47L10 47L10 48L11 48L11 47L10 47L10 46L9 46L9 45ZM20 45L20 47L21 47L21 48L18 48L18 51L19 51L19 49L20 49L20 50L21 50L21 49L23 49L23 48L24 48L24 51L23 51L23 50L22 50L22 51L21 51L21 52L22 52L22 53L23 53L23 52L24 52L24 51L25 51L25 52L26 52L26 51L25 51L25 50L26 50L26 49L27 49L27 50L29 50L29 51L28 51L28 52L27 52L27 53L28 53L28 52L29 52L29 51L30 51L30 50L29 50L29 49L27 49L27 47L26 47L26 48L24 48L24 46L23 46L23 47L21 47L21 45ZM31 45L31 46L33 46L33 45ZM16 46L16 47L17 47L17 46ZM49 46L49 47L50 47L50 46ZM66 46L66 48L65 48L65 49L68 49L68 46ZM3 48L3 50L5 50L5 48ZM47 48L47 50L46 50L46 49L45 49L45 50L44 50L44 51L45 51L45 52L46 52L46 53L45 53L45 54L47 54L47 55L50 55L50 54L47 54L47 52L49 52L49 51L48 51L48 49L49 49L49 48ZM6 49L6 50L7 50L7 49ZM16 49L16 50L14 50L14 51L16 51L16 52L17 52L17 51L16 51L16 50L17 50L17 49ZM45 50L45 51L46 51L46 50ZM66 50L66 51L67 51L67 50ZM42 52L42 54L43 54L43 52ZM57 52L57 53L58 53L58 52ZM8 53L8 54L9 54L9 53ZM24 53L24 54L23 54L23 56L24 56L24 57L25 57L25 58L26 58L26 57L27 57L27 56L26 56L26 55L25 55L25 53ZM36 53L36 54L35 54L35 55L34 55L34 56L37 56L37 53ZM21 54L21 56L22 56L22 54ZM2 55L2 56L3 56L3 57L4 57L4 58L7 58L7 57L8 57L8 56L7 56L7 55L5 55L5 56L7 56L7 57L4 57L4 55ZM64 55L64 57L65 57L65 55ZM45 56L45 57L44 57L44 58L45 58L45 57L46 57L46 56ZM0 58L0 61L1 61L1 58ZM48 58L48 60L49 60L49 59L50 59L50 58ZM55 58L55 59L56 59L56 58ZM60 58L60 59L61 59L61 58ZM62 59L62 60L63 60L63 59ZM66 59L66 60L67 60L67 59ZM3 60L3 61L5 61L5 60ZM6 60L6 61L7 61L7 60ZM46 60L46 62L45 62L45 64L46 64L46 65L48 65L48 66L50 66L50 67L51 67L51 68L53 68L53 65L54 65L54 64L53 64L53 63L52 63L52 67L51 67L51 65L49 65L49 63L48 63L48 64L47 64L47 62L49 62L49 61L47 61L47 60ZM33 61L33 64L36 64L36 61ZM61 61L61 64L64 64L64 61ZM34 62L34 63L35 63L35 62ZM62 62L62 63L63 63L63 62ZM55 63L55 64L57 64L57 65L60 65L60 66L61 66L61 67L60 67L60 68L61 68L61 67L62 67L62 66L63 66L63 65L60 65L60 64L57 64L57 63ZM9 65L9 67L10 67L10 66L11 66L11 65ZM24 65L24 66L25 66L25 65ZM46 66L46 67L47 67L47 66ZM58 67L58 68L59 68L59 67ZM63 67L63 68L64 68L64 67ZM68 67L68 68L69 68L69 67ZM17 68L17 69L18 69L18 68ZM42 68L42 69L43 69L43 68ZM0 0L0 7L7 7L7 0ZM1 1L1 6L6 6L6 1ZM2 2L2 5L5 5L5 2ZM62 0L62 7L69 7L69 0ZM63 1L63 6L68 6L68 1ZM64 2L64 5L67 5L67 2ZM0 62L0 69L7 69L7 62ZM1 63L1 68L6 68L6 63ZM2 64L2 67L5 67L5 64Z" fill="#000000"/></g></g></svg>
