<?xml version="1.0" encoding="UTF-8"?>
<svg xmlns="http://www.w3.org/2000/svg" version="1.1" width="300" height="300" viewBox="0 0 300 300"><rect x="0" y="0" width="300" height="300" fill="#ffffff"/><g transform="scale(4.348)"><g transform="translate(0,0)"><path fill-rule="evenodd" d="M8 0L8 1L11 1L11 3L12 3L12 4L9 4L9 2L8 2L8 5L9 5L9 6L8 6L8 7L9 7L9 8L8 8L8 9L7 9L7 8L6 8L6 9L5 9L5 10L4 10L4 12L3 12L3 11L2 11L2 12L0 12L0 16L2 16L2 15L3 15L3 16L4 16L4 17L7 17L7 16L6 16L6 15L8 15L8 16L9 16L9 18L8 18L8 19L7 19L7 18L6 18L6 19L5 19L5 18L3 18L3 17L1 17L1 18L0 18L0 19L1 19L1 20L0 20L0 22L1 22L1 21L2 21L2 22L3 22L3 23L1 23L1 24L0 24L0 27L1 27L1 28L2 28L2 29L1 29L1 30L0 30L0 31L2 31L2 33L0 33L0 35L1 35L1 34L2 34L2 33L3 33L3 34L4 34L4 36L0 36L0 38L1 38L1 37L3 37L3 38L4 38L4 39L5 39L5 38L6 38L6 39L7 39L7 40L5 40L5 41L4 41L4 40L3 40L3 41L4 41L4 43L2 43L2 42L1 42L1 41L2 41L2 39L0 39L0 42L1 42L1 43L0 43L0 45L1 45L1 46L0 46L0 47L1 47L1 48L0 48L0 49L1 49L1 50L2 50L2 52L0 52L0 53L1 53L1 54L0 54L0 56L1 56L1 57L0 57L0 61L1 61L1 57L2 57L2 59L3 59L3 56L4 56L4 54L6 54L6 55L5 55L5 56L6 56L6 57L5 57L5 58L4 58L4 59L7 59L7 60L6 60L6 61L8 61L8 62L9 62L9 64L10 64L10 65L8 65L8 69L9 69L9 68L11 68L11 69L12 69L12 68L13 68L13 69L14 69L14 68L15 68L15 69L18 69L18 67L20 67L20 68L19 68L19 69L25 69L25 68L27 68L27 69L30 69L30 68L33 68L33 69L35 69L35 67L38 67L38 68L39 68L39 69L42 69L42 68L43 68L43 67L42 67L42 68L40 68L40 67L41 67L41 66L42 66L42 65L40 65L40 64L41 64L41 62L39 62L39 61L40 61L40 60L41 60L41 61L42 61L42 60L41 60L41 59L42 59L42 58L43 58L43 56L41 56L41 55L40 55L40 56L39 56L39 55L37 55L37 54L35 54L35 53L37 53L37 52L39 52L39 51L38 51L38 50L40 50L40 49L38 49L38 48L39 48L39 47L40 47L40 48L42 48L42 49L44 49L44 48L43 48L43 45L42 45L42 44L41 44L41 45L40 45L40 44L39 44L39 43L38 43L38 42L37 42L37 43L38 43L38 44L36 44L36 45L35 45L35 43L33 43L33 44L32 44L32 43L31 43L31 42L33 42L33 41L34 41L34 42L36 42L36 41L34 41L34 39L35 39L35 40L37 40L37 41L38 41L38 40L37 40L37 37L38 37L38 38L40 38L40 39L39 39L39 42L40 42L40 43L43 43L43 42L42 42L42 41L41 41L41 42L40 42L40 40L41 40L41 38L40 38L40 37L38 37L38 35L37 35L37 34L38 34L38 33L37 33L37 32L38 32L38 30L37 30L37 29L36 29L36 28L39 28L39 27L38 27L38 26L40 26L40 25L39 25L39 22L40 22L40 21L41 21L41 23L40 23L40 24L42 24L42 25L44 25L44 27L42 27L42 26L41 26L41 27L42 27L42 28L41 28L41 29L39 29L39 31L40 31L40 32L39 32L39 33L40 33L40 34L39 34L39 36L40 36L40 35L41 35L41 36L42 36L42 35L43 35L43 38L42 38L42 39L43 39L43 38L44 38L44 39L45 39L45 40L43 40L43 41L45 41L45 42L44 42L44 43L45 43L45 45L44 45L44 46L45 46L45 47L46 47L46 48L45 48L45 50L44 50L44 52L43 52L43 51L40 51L40 52L41 52L41 54L42 54L42 52L43 52L43 54L44 54L44 55L46 55L46 54L47 54L47 55L49 55L49 53L48 53L48 54L47 54L47 52L49 52L49 51L51 51L51 49L49 49L49 48L50 48L50 46L49 46L49 45L48 45L48 44L49 44L49 43L50 43L50 44L51 44L51 45L52 45L52 46L51 46L51 48L53 48L53 49L52 49L52 51L53 51L53 52L55 52L55 53L57 53L57 54L56 54L56 55L55 55L55 56L57 56L57 54L59 54L59 53L60 53L60 56L61 56L61 55L62 55L62 54L65 54L65 55L64 55L64 57L65 57L65 58L66 58L66 57L67 57L67 60L66 60L66 59L63 59L63 56L62 56L62 58L61 58L61 57L59 57L59 56L58 56L58 57L59 57L59 59L58 59L58 58L57 58L57 57L54 57L54 56L52 56L52 55L54 55L54 54L52 54L52 55L51 55L51 54L50 54L50 57L51 57L51 58L53 58L53 59L55 59L55 62L52 62L52 63L50 63L50 62L51 62L51 61L50 61L50 58L49 58L49 57L48 57L48 56L47 56L47 58L49 58L49 59L48 59L48 60L45 60L45 61L44 61L44 60L43 60L43 61L44 61L44 62L43 62L43 63L44 63L44 64L43 64L43 65L45 65L45 63L46 63L46 61L49 61L49 62L48 62L48 63L50 63L50 64L49 64L49 65L50 65L50 64L51 64L51 66L50 66L50 67L51 67L51 66L52 66L52 67L53 67L53 68L51 68L51 69L53 69L53 68L54 68L54 69L55 69L55 68L57 68L57 66L58 66L58 69L60 69L60 68L61 68L61 69L62 69L62 68L63 68L63 69L66 69L66 68L63 68L63 67L62 67L62 66L60 66L60 65L64 65L64 66L65 66L65 67L66 67L66 66L68 66L68 63L65 63L65 61L68 61L68 62L69 62L69 61L68 61L68 59L69 59L69 58L68 58L68 57L69 57L69 56L65 56L65 55L68 55L68 54L69 54L69 52L68 52L68 51L66 51L66 50L65 50L65 53L60 53L60 49L59 49L59 52L58 52L58 53L57 53L57 51L58 51L58 49L56 49L56 48L55 48L55 47L56 47L56 41L57 41L57 40L59 40L59 41L58 41L58 44L59 44L59 41L61 41L61 40L59 40L59 38L58 38L58 37L57 37L57 40L54 40L54 41L55 41L55 45L54 45L54 44L52 44L52 43L54 43L54 42L51 42L51 43L50 43L50 42L49 42L49 41L48 41L48 42L47 42L47 41L46 41L46 40L47 40L47 39L48 39L48 40L49 40L49 39L48 39L48 38L49 38L49 36L50 36L50 39L51 39L51 41L52 41L52 39L53 39L53 38L51 38L51 36L53 36L53 37L55 37L55 38L56 38L56 36L55 36L55 35L54 35L54 34L55 34L55 33L56 33L56 34L57 34L57 33L56 33L56 31L55 31L55 30L57 30L57 31L60 31L60 32L59 32L59 34L60 34L60 36L59 36L59 35L58 35L58 36L59 36L59 37L60 37L60 39L61 39L61 38L62 38L62 37L66 37L66 39L65 39L65 38L63 38L63 40L62 40L62 41L63 41L63 42L66 42L66 43L67 43L67 45L66 45L66 46L64 46L64 47L63 47L63 46L61 46L61 45L59 45L59 47L57 47L57 48L62 48L62 49L61 49L61 50L62 50L62 49L63 49L63 51L61 51L61 52L63 52L63 51L64 51L64 48L66 48L66 46L67 46L67 50L68 50L68 48L69 48L69 45L68 45L68 44L69 44L69 43L68 43L68 42L69 42L69 41L67 41L67 38L69 38L69 37L68 37L68 36L69 36L69 32L68 32L68 30L69 30L69 29L68 29L68 30L67 30L67 28L68 28L68 25L69 25L69 24L68 24L68 25L67 25L67 24L66 24L66 22L67 22L67 23L69 23L69 22L68 22L68 21L67 21L67 20L69 20L69 19L68 19L68 18L69 18L69 17L68 17L68 18L67 18L67 20L66 20L66 19L65 19L65 20L61 20L61 19L58 19L58 20L59 20L59 22L58 22L58 23L57 23L57 26L58 26L58 25L62 25L62 27L61 27L61 26L60 26L60 27L58 27L58 28L55 28L55 26L54 26L54 28L55 28L55 30L54 30L54 29L53 29L53 32L52 32L52 30L51 30L51 31L50 31L50 30L49 30L49 29L45 29L45 28L44 28L44 27L45 27L45 26L46 26L46 27L48 27L48 26L46 26L46 25L47 25L47 24L48 24L48 25L49 25L49 26L50 26L50 27L51 27L51 29L52 29L52 28L53 28L53 25L52 25L52 27L51 27L51 25L49 25L49 23L51 23L51 22L50 22L50 21L49 21L49 23L46 23L46 25L44 25L44 23L43 23L43 24L42 24L42 22L44 22L44 21L43 21L43 18L44 18L44 20L45 20L45 21L46 21L46 18L47 18L47 17L45 17L45 16L50 16L50 17L52 17L52 16L50 16L50 15L52 15L52 14L51 14L51 13L50 13L50 12L51 12L51 11L52 11L52 9L53 9L53 10L56 10L56 7L57 7L57 8L58 8L58 9L59 9L59 10L58 10L58 11L61 11L61 10L62 10L62 12L61 12L61 14L60 14L60 15L59 15L59 14L58 14L58 12L57 12L57 11L56 11L56 12L55 12L55 14L58 14L58 15L56 15L56 16L55 16L55 18L54 18L54 16L53 16L53 18L54 18L54 19L52 19L52 18L51 18L51 19L50 19L50 18L49 18L49 17L48 17L48 18L49 18L49 19L48 19L48 20L52 20L52 21L53 21L53 22L52 22L52 23L53 23L53 24L54 24L54 25L56 25L56 24L54 24L54 23L55 23L55 22L56 22L56 21L55 21L55 20L57 20L57 19L55 19L55 18L56 18L56 17L57 17L57 18L60 18L60 17L59 17L59 16L61 16L61 17L64 17L64 15L62 15L62 16L61 16L61 14L63 14L63 11L65 11L65 12L66 12L66 13L65 13L65 18L66 18L66 16L67 16L67 15L66 15L66 14L69 14L69 12L68 12L68 11L69 11L69 8L68 8L68 9L67 9L67 8L64 8L64 9L63 9L63 10L62 10L62 8L61 8L61 9L59 9L59 8L58 8L58 7L59 7L59 4L58 4L58 7L57 7L57 6L56 6L56 7L55 7L55 6L54 6L54 5L52 5L52 4L49 4L49 3L47 3L47 1L48 1L48 0L47 0L47 1L45 1L45 0L44 0L44 2L42 2L42 1L43 1L43 0L39 0L39 1L40 1L40 3L41 3L41 4L42 4L42 3L43 3L43 6L42 6L42 5L39 5L39 4L38 4L38 2L36 2L36 0L35 0L35 2L34 2L34 0L33 0L33 1L32 1L32 0L30 0L30 1L29 1L29 0L28 0L28 2L27 2L27 1L26 1L26 3L25 3L25 0L21 0L21 1L19 1L19 0L17 0L17 4L16 4L16 5L15 5L15 4L14 4L14 3L16 3L16 0L14 0L14 1L15 1L15 2L12 2L12 1L13 1L13 0ZM37 0L37 1L38 1L38 0ZM49 0L49 2L50 2L50 3L51 3L51 1L50 1L50 0ZM53 0L53 1L52 1L52 3L53 3L53 4L56 4L56 3L55 3L55 2L58 2L58 3L59 3L59 2L58 2L58 1L61 1L61 0L57 0L57 1L56 1L56 0ZM18 1L18 2L19 2L19 1ZM21 1L21 2L20 2L20 3L21 3L21 5L20 5L20 4L19 4L19 7L18 7L18 6L17 6L17 7L18 7L18 11L17 11L17 12L16 12L16 11L15 11L15 9L16 9L16 10L17 10L17 9L16 9L16 6L15 6L15 5L14 5L14 6L13 6L13 5L11 5L11 7L10 7L10 6L9 6L9 7L10 7L10 8L11 8L11 7L12 7L12 6L13 6L13 8L12 8L12 9L11 9L11 10L10 10L10 9L8 9L8 10L10 10L10 11L6 11L6 10L7 10L7 9L6 9L6 10L5 10L5 13L6 13L6 14L8 14L8 15L9 15L9 14L10 14L10 16L11 16L11 17L10 17L10 18L11 18L11 19L10 19L10 21L11 21L11 22L9 22L9 20L7 20L7 19L6 19L6 20L5 20L5 19L4 19L4 20L3 20L3 19L2 19L2 18L1 18L1 19L2 19L2 20L3 20L3 22L4 22L4 20L5 20L5 23L6 23L6 24L4 24L4 23L3 23L3 24L4 24L4 27L2 27L2 28L3 28L3 29L4 29L4 30L8 30L8 29L9 29L9 30L10 30L10 31L11 31L11 32L10 32L10 34L11 34L11 35L9 35L9 37L10 37L10 38L8 38L8 37L6 37L6 38L7 38L7 39L8 39L8 40L9 40L9 39L10 39L10 40L12 40L12 39L13 39L13 37L14 37L14 36L15 36L15 35L16 35L16 34L17 34L17 33L19 33L19 34L22 34L22 32L21 32L21 31L20 31L20 30L21 30L21 29L22 29L22 31L23 31L23 33L24 33L24 31L25 31L25 34L24 34L24 36L21 36L21 35L20 35L20 36L21 36L21 38L19 38L19 37L17 37L17 36L18 36L18 35L17 35L17 36L16 36L16 38L15 38L15 39L14 39L14 40L13 40L13 41L14 41L14 43L13 43L13 44L12 44L12 43L10 43L10 45L12 45L12 46L8 46L8 45L5 45L5 44L8 44L8 42L9 42L9 41L6 41L6 42L7 42L7 43L4 43L4 45L2 45L2 44L1 44L1 45L2 45L2 46L1 46L1 47L2 47L2 50L3 50L3 47L4 47L4 49L6 49L6 50L7 50L7 51L6 51L6 52L4 52L4 51L5 51L5 50L4 50L4 51L3 51L3 53L6 53L6 54L7 54L7 53L8 53L8 54L9 54L9 55L6 55L6 56L7 56L7 57L6 57L6 58L8 58L8 61L10 61L10 63L11 63L11 61L12 61L12 62L13 62L13 61L14 61L14 60L15 60L15 59L16 59L16 62L15 62L15 63L19 63L19 64L18 64L18 66L19 66L19 64L21 64L21 63L19 63L19 62L17 62L17 60L19 60L19 61L21 61L21 60L20 60L20 58L21 58L21 59L22 59L22 61L23 61L23 60L24 60L24 64L23 64L23 63L22 63L22 65L20 65L20 67L21 67L21 68L22 68L22 67L23 67L23 66L22 66L22 65L24 65L24 68L25 68L25 67L27 67L27 65L28 65L28 66L29 66L29 67L31 67L31 66L29 66L29 65L31 65L31 64L30 64L30 62L32 62L32 60L33 60L33 59L32 59L32 58L31 58L31 59L29 59L29 57L31 57L31 55L32 55L32 57L33 57L33 58L36 58L36 60L38 60L38 61L39 61L39 60L40 60L40 58L39 58L39 56L38 56L38 58L36 58L36 57L37 57L37 55L35 55L35 56L36 56L36 57L33 57L33 56L34 56L34 55L33 55L33 54L31 54L31 55L30 55L30 53L35 53L35 51L37 51L37 50L36 50L36 49L37 49L37 48L38 48L38 46L39 46L39 45L38 45L38 46L37 46L37 45L36 45L36 47L37 47L37 48L33 48L33 45L32 45L32 44L31 44L31 43L30 43L30 46L29 46L29 42L31 42L31 41L33 41L33 39L34 39L34 38L35 38L35 39L36 39L36 37L32 37L32 33L31 33L31 32L30 32L30 33L31 33L31 34L29 34L29 35L28 35L28 32L29 32L29 31L31 31L31 30L32 30L32 31L33 31L33 30L32 30L32 29L34 29L34 30L35 30L35 31L36 31L36 30L35 30L35 27L37 27L37 25L38 25L38 24L37 24L37 23L38 23L38 22L35 22L35 21L37 21L37 20L36 20L36 18L35 18L35 19L34 19L34 21L33 21L33 22L32 22L32 19L31 19L31 20L30 20L30 18L31 18L31 17L33 17L33 18L34 18L34 17L35 17L35 16L36 16L36 17L37 17L37 19L38 19L38 20L39 20L39 17L37 17L37 16L38 16L38 15L37 15L37 12L38 12L38 13L39 13L39 14L40 14L40 17L41 17L41 16L42 16L42 18L43 18L43 16L44 16L44 15L45 15L45 11L44 11L44 10L43 10L43 11L44 11L44 13L43 13L43 12L41 12L41 13L42 13L42 14L44 14L44 15L41 15L41 14L40 14L40 11L39 11L39 12L38 12L38 11L37 11L37 12L36 12L36 9L31 9L31 10L30 10L30 9L27 9L27 7L28 7L28 8L29 8L29 7L30 7L30 6L29 6L29 7L28 7L28 5L29 5L29 3L30 3L30 2L28 2L28 5L26 5L26 4L27 4L27 3L26 3L26 4L23 4L23 2L24 2L24 1L23 1L23 2L22 2L22 1ZM54 1L54 2L53 2L53 3L54 3L54 2L55 2L55 1ZM35 2L35 3L32 3L32 4L36 4L36 2ZM41 2L41 3L42 3L42 2ZM44 3L44 4L45 4L45 3ZM46 3L46 5L45 5L45 8L44 8L44 6L43 6L43 9L45 9L45 10L46 10L46 11L47 11L47 12L48 12L48 11L47 11L47 9L46 9L46 8L48 8L48 9L50 9L50 10L49 10L49 12L50 12L50 11L51 11L51 9L52 9L52 8L51 8L51 9L50 9L50 6L51 6L51 7L52 7L52 6L51 6L51 5L50 5L50 6L49 6L49 7L48 7L48 5L49 5L49 4L47 4L47 3ZM60 3L60 5L61 5L61 3ZM22 4L22 7L21 7L21 6L20 6L20 8L19 8L19 12L17 12L17 14L16 14L16 12L14 12L14 11L12 11L12 10L11 10L11 11L12 11L12 12L14 12L14 13L11 13L11 14L12 14L12 15L11 15L11 16L12 16L12 17L13 17L13 19L14 19L14 16L16 16L16 15L19 15L19 14L18 14L18 13L20 13L20 19L19 19L19 18L17 18L17 17L15 17L15 21L14 21L14 20L12 20L12 19L11 19L11 20L12 20L12 22L11 22L11 23L10 23L10 24L9 24L9 23L8 23L8 21L7 21L7 20L6 20L6 21L7 21L7 22L6 22L6 23L7 23L7 24L6 24L6 25L8 25L8 26L9 26L9 27L7 27L7 26L6 26L6 27L7 27L7 28L6 28L6 29L7 29L7 28L10 28L10 27L11 27L11 28L12 28L12 30L11 30L11 29L10 29L10 30L11 30L11 31L12 31L12 32L11 32L11 34L12 34L12 35L11 35L11 36L14 36L14 35L13 35L13 33L15 33L15 32L16 32L16 33L17 33L17 32L16 32L16 30L18 30L18 31L19 31L19 29L16 29L16 28L20 28L20 29L21 29L21 28L20 28L20 27L19 27L19 26L18 26L18 25L20 25L20 26L21 26L21 23L23 23L23 24L22 24L22 25L23 25L23 27L24 27L24 28L25 28L25 29L27 29L27 30L25 30L25 31L27 31L27 32L26 32L26 33L27 33L27 32L28 32L28 30L29 30L29 27L31 27L31 28L33 28L33 27L34 27L34 24L35 24L35 25L36 25L36 23L35 23L35 22L33 22L33 25L32 25L32 22L31 22L31 24L30 24L30 21L29 21L29 20L27 20L27 19L26 19L26 18L24 18L24 17L25 17L25 16L26 16L26 17L28 17L28 18L30 18L30 17L28 17L28 16L26 16L26 13L25 13L25 11L27 11L27 12L28 12L28 11L27 11L27 9L26 9L26 10L24 10L24 9L23 9L23 8L24 8L24 7L25 7L25 6L26 6L26 7L27 7L27 6L26 6L26 5L25 5L25 6L24 6L24 5L23 5L23 4ZM37 4L37 7L38 7L38 6L39 6L39 7L40 7L40 8L41 8L41 9L39 9L39 8L37 8L37 9L38 9L38 10L41 10L41 11L42 11L42 10L41 10L41 9L42 9L42 8L41 8L41 7L42 7L42 6L41 6L41 7L40 7L40 6L39 6L39 5L38 5L38 4ZM33 5L33 8L36 8L36 5ZM46 5L46 7L47 7L47 5ZM14 6L14 8L15 8L15 6ZM23 6L23 7L22 7L22 8L20 8L20 12L21 12L21 13L22 13L22 14L21 14L21 16L22 16L22 17L21 17L21 19L20 19L20 22L19 22L19 23L21 23L21 19L22 19L22 20L24 20L24 21L26 21L26 22L25 22L25 23L24 23L24 22L23 22L23 21L22 21L22 22L23 22L23 23L24 23L24 24L25 24L25 23L26 23L26 22L27 22L27 24L26 24L26 25L24 25L24 27L25 27L25 28L27 28L27 27L29 27L29 26L32 26L32 27L33 27L33 26L32 26L32 25L30 25L30 24L29 24L29 23L28 23L28 22L29 22L29 21L27 21L27 20L26 20L26 19L24 19L24 18L23 18L23 19L22 19L22 17L23 17L23 15L22 15L22 14L25 14L25 13L23 13L23 9L22 9L22 8L23 8L23 7L24 7L24 6ZM31 6L31 8L32 8L32 6ZM34 6L34 7L35 7L35 6ZM53 6L53 9L55 9L55 7L54 7L54 6ZM60 6L60 7L61 7L61 6ZM0 8L0 9L2 9L2 10L3 10L3 9L4 9L4 8ZM13 9L13 10L14 10L14 9ZM0 10L0 11L1 11L1 10ZM21 10L21 12L22 12L22 10ZM31 10L31 12L30 12L30 11L29 11L29 14L28 14L28 13L27 13L27 14L28 14L28 15L30 15L30 14L31 14L31 16L32 16L32 15L33 15L33 17L34 17L34 15L36 15L36 14L33 14L33 13L32 13L32 11L33 11L33 12L34 12L34 13L36 13L36 12L35 12L35 11L34 11L34 10ZM65 10L65 11L66 11L66 12L67 12L67 13L68 13L68 12L67 12L67 11L68 11L68 10L67 10L67 11L66 11L66 10ZM53 11L53 12L54 12L54 11ZM2 12L2 13L1 13L1 14L2 14L2 13L3 13L3 12ZM6 12L6 13L8 13L8 12ZM56 12L56 13L57 13L57 12ZM31 13L31 14L32 14L32 13ZM46 13L46 14L47 14L47 15L48 15L48 14L49 14L49 15L50 15L50 13ZM3 14L3 15L4 15L4 14ZM15 14L15 15L16 15L16 14ZM53 14L53 15L54 15L54 14ZM12 15L12 16L14 16L14 15ZM58 15L58 16L59 16L59 15ZM18 16L18 17L19 17L19 16ZM44 17L44 18L45 18L45 17ZM16 18L16 19L17 19L17 18ZM62 18L62 19L63 19L63 18ZM18 19L18 21L17 21L17 22L18 22L18 21L19 21L19 19ZM41 20L41 21L42 21L42 20ZM53 20L53 21L54 21L54 20ZM60 20L60 21L61 21L61 20ZM13 21L13 22L12 22L12 23L11 23L11 24L10 24L10 26L11 26L11 25L12 25L12 26L13 26L13 25L12 25L12 23L13 23L13 22L14 22L14 21ZM15 21L15 23L16 23L16 25L17 25L17 24L18 24L18 23L16 23L16 21ZM47 21L47 22L48 22L48 21ZM62 21L62 22L61 22L61 23L58 23L58 24L62 24L62 25L65 25L65 26L66 26L66 27L65 27L65 28L64 28L64 27L62 27L62 28L61 28L61 27L60 27L60 30L61 30L61 32L63 32L63 31L65 31L65 32L67 32L67 34L68 34L68 32L67 32L67 30L66 30L66 27L67 27L67 25L66 25L66 24L65 24L65 23L64 23L64 22L66 22L66 21L64 21L64 22L63 22L63 21ZM62 23L62 24L63 24L63 23ZM8 24L8 25L9 25L9 24ZM14 24L14 27L15 27L15 28L14 28L14 29L15 29L15 28L16 28L16 27L17 27L17 26L15 26L15 24ZM27 24L27 25L26 25L26 26L25 26L25 27L26 27L26 26L28 26L28 25L29 25L29 24ZM2 25L2 26L3 26L3 25ZM4 27L4 29L5 29L5 27ZM42 28L42 29L41 29L41 30L40 30L40 31L41 31L41 33L42 33L42 32L43 32L43 35L45 35L45 34L46 34L46 35L47 35L47 36L49 36L49 33L50 33L50 35L51 35L51 34L52 34L52 35L53 35L53 33L54 33L54 32L53 32L53 33L51 33L51 32L49 32L49 31L47 31L47 30L46 30L46 31L43 31L43 28ZM58 28L58 29L59 29L59 28ZM62 28L62 29L63 29L63 30L62 30L62 31L63 31L63 30L64 30L64 28ZM23 29L23 31L24 31L24 29ZM30 29L30 30L31 30L31 29ZM13 30L13 31L14 31L14 30ZM4 31L4 32L3 32L3 33L4 33L4 32L7 32L7 31ZM8 31L8 32L9 32L9 31ZM12 32L12 33L13 33L13 32ZM47 32L47 34L48 34L48 32ZM5 33L5 36L8 36L8 33ZM33 33L33 36L36 36L36 33ZM44 33L44 34L45 34L45 33ZM61 33L61 36L64 36L64 33ZM65 33L65 34L66 34L66 33ZM6 34L6 35L7 35L7 34ZM26 34L26 35L25 35L25 36L24 36L24 37L26 37L26 38L27 38L27 39L25 39L25 38L24 38L24 39L25 39L25 41L24 41L24 40L23 40L23 41L21 41L21 39L20 39L20 40L19 40L19 41L16 41L16 40L17 40L17 38L16 38L16 40L14 40L14 41L16 41L16 42L19 42L19 43L17 43L17 44L15 44L15 43L14 43L14 44L13 44L13 45L14 45L14 47L13 47L13 48L12 48L12 47L11 47L11 48L12 48L12 49L13 49L13 51L14 51L14 52L15 52L15 51L17 51L17 52L16 52L16 53L15 53L15 54L14 54L14 53L13 53L13 54L14 54L14 56L15 56L15 55L16 55L16 59L17 59L17 57L18 57L18 58L19 58L19 57L18 57L18 56L20 56L20 57L21 57L21 58L22 58L22 56L23 56L23 57L24 57L24 58L25 58L25 59L26 59L26 60L25 60L25 61L26 61L26 64L25 64L25 66L26 66L26 64L28 64L28 63L29 63L29 62L28 62L28 61L26 61L26 60L27 60L27 59L28 59L28 60L29 60L29 61L31 61L31 60L29 60L29 59L28 59L28 58L27 58L27 57L26 57L26 55L23 55L23 54L24 54L24 52L25 52L25 54L29 54L29 52L28 52L28 51L29 51L29 50L27 50L27 49L25 49L25 48L23 48L23 47L25 47L25 45L23 45L23 44L22 44L22 42L25 42L25 41L26 41L26 43L27 43L27 44L28 44L28 43L27 43L27 42L29 42L29 39L33 39L33 38L32 38L32 37L31 37L31 36L29 36L29 37L31 37L31 38L28 38L28 37L26 37L26 36L28 36L28 35L27 35L27 34ZM34 34L34 35L35 35L35 34ZM62 34L62 35L63 35L63 34ZM65 35L65 36L66 36L66 37L67 37L67 35ZM44 36L44 38L45 38L45 39L47 39L47 38L48 38L48 37L46 37L46 38L45 38L45 36ZM11 37L11 38L12 38L12 37ZM22 38L22 39L23 39L23 38ZM68 39L68 40L69 40L69 39ZM27 40L27 41L28 41L28 40ZM30 40L30 41L31 41L31 40ZM65 40L65 41L66 41L66 42L67 42L67 41L66 41L66 40ZM19 41L19 42L20 42L20 43L19 43L19 44L18 44L18 45L15 45L15 46L16 46L16 48L15 48L15 47L14 47L14 48L13 48L13 49L14 49L14 51L15 51L15 49L16 49L16 50L17 50L17 51L18 51L18 50L19 50L19 49L20 49L20 50L21 50L21 48L22 48L22 49L23 49L23 51L22 51L22 53L23 53L23 52L24 52L24 50L25 50L25 49L23 49L23 48L22 48L22 46L23 46L23 45L21 45L21 44L20 44L20 43L21 43L21 41ZM45 42L45 43L46 43L46 45L45 45L45 46L46 46L46 47L47 47L47 44L48 44L48 43L46 43L46 42ZM60 42L60 44L61 44L61 43L62 43L62 42ZM24 43L24 44L25 44L25 43ZM63 43L63 45L65 45L65 44L64 44L64 43ZM4 45L4 47L5 47L5 48L6 48L6 49L7 49L7 50L9 50L9 51L7 51L7 52L6 52L6 53L7 53L7 52L8 52L8 53L9 53L9 54L10 54L10 55L11 55L11 56L10 56L10 58L9 58L9 60L10 60L10 58L11 58L11 59L12 59L12 60L13 60L13 59L15 59L15 57L13 57L13 56L12 56L12 55L11 55L11 54L12 54L12 52L11 52L11 49L10 49L10 48L9 48L9 47L8 47L8 46L6 46L6 47L5 47L5 45ZM19 45L19 46L18 46L18 48L17 48L17 50L18 50L18 48L19 48L19 46L20 46L20 45ZM41 45L41 47L42 47L42 45ZM53 45L53 47L54 47L54 45ZM67 45L67 46L68 46L68 45ZM2 46L2 47L3 47L3 46ZM26 46L26 47L27 47L27 48L29 48L29 49L30 49L30 51L32 51L32 52L33 52L33 50L32 50L32 49L33 49L33 48L32 48L32 47L31 47L31 48L30 48L30 47L29 47L29 46L28 46L28 47L27 47L27 46ZM60 46L60 47L61 47L61 46ZM6 47L6 48L7 48L7 49L8 49L8 48L7 48L7 47ZM48 47L48 48L49 48L49 47ZM14 48L14 49L15 49L15 48ZM31 48L31 49L32 49L32 48ZM46 48L46 50L47 50L47 48ZM34 49L34 51L35 51L35 49ZM48 49L48 50L49 50L49 49ZM53 49L53 50L54 50L54 51L57 51L57 50L55 50L55 49ZM45 51L45 53L46 53L46 51ZM10 52L10 54L11 54L11 52ZM17 52L17 53L18 53L18 54L19 54L19 55L20 55L20 56L22 56L22 54L21 54L21 53L19 53L19 52ZM50 52L50 53L52 53L52 52ZM67 52L67 53L68 53L68 52ZM38 53L38 54L39 54L39 53ZM65 53L65 54L66 54L66 53ZM1 54L1 56L3 56L3 55L2 55L2 54ZM27 55L27 56L28 56L28 55ZM11 56L11 57L12 57L12 56ZM24 56L24 57L25 57L25 56ZM45 56L45 57L46 57L46 56ZM12 58L12 59L13 59L13 58ZM38 58L38 60L39 60L39 58ZM44 58L44 59L45 59L45 58ZM55 58L55 59L56 59L56 64L57 64L57 65L60 65L60 64L59 64L59 63L60 63L60 60L58 60L58 59L56 59L56 58ZM60 58L60 59L61 59L61 60L63 60L63 59L61 59L61 58ZM34 59L34 60L35 60L35 59ZM3 60L3 61L5 61L5 60ZM53 60L53 61L54 61L54 60ZM33 61L33 64L36 64L36 61ZM61 61L61 64L64 64L64 61ZM34 62L34 63L35 63L35 62ZM37 62L37 64L38 64L38 63L39 63L39 62ZM57 62L57 63L58 63L58 62ZM62 62L62 63L63 63L63 62ZM13 63L13 64L12 64L12 66L11 66L11 65L10 65L10 66L11 66L11 67L12 67L12 66L13 66L13 64L14 64L14 63ZM53 63L53 64L52 64L52 66L54 66L54 68L55 68L55 67L56 67L56 66L55 66L55 65L53 65L53 64L55 64L55 63ZM15 64L15 65L17 65L17 64ZM36 65L36 66L37 66L37 65ZM38 65L38 66L39 66L39 67L40 67L40 66L39 66L39 65ZM46 65L46 68L45 68L45 69L48 69L48 68L49 68L49 69L50 69L50 68L49 68L49 66L48 66L48 68L47 68L47 65ZM65 65L65 66L66 66L66 65ZM14 66L14 67L16 67L16 66ZM33 66L33 67L34 67L34 66ZM44 66L44 67L45 67L45 66ZM59 67L59 68L60 68L60 67ZM68 67L68 68L69 68L69 67ZM0 0L0 7L7 7L7 0ZM1 1L1 6L6 6L6 1ZM2 2L2 5L5 5L5 2ZM62 0L62 7L69 7L69 0ZM63 1L63 6L68 6L68 1ZM64 2L64 5L67 5L67 2ZM0 62L0 69L7 69L7 62ZM1 63L1 68L6 68L6 63ZM2 64L2 67L5 67L5 64Z" fill="#000000"/></g></g></svg>
