<?xml version="1.0" encoding="UTF-8"?>
<svg xmlns="http://www.w3.org/2000/svg" version="1.1" width="300" height="300" viewBox="0 0 300 300"><rect x="0" y="0" width="300" height="300" fill="#ffffff"/><g transform="scale(4.348)"><g transform="translate(0,0)"><path fill-rule="evenodd" d="M8 0L8 4L9 4L9 5L8 5L8 7L9 7L9 10L8 10L8 9L7 9L7 8L4 8L4 9L3 9L3 10L1 10L1 9L2 9L2 8L0 8L0 11L1 11L1 13L2 13L2 14L3 14L3 16L4 16L4 15L5 15L5 17L4 17L4 18L3 18L3 17L2 17L2 15L1 15L1 14L0 14L0 20L2 20L2 21L0 21L0 25L2 25L2 26L0 26L0 27L2 27L2 28L0 28L0 31L1 31L1 30L3 30L3 32L2 32L2 34L1 34L1 32L0 32L0 34L1 34L1 35L0 35L0 38L1 38L1 39L0 39L0 40L1 40L1 41L0 41L0 42L1 42L1 43L2 43L2 44L4 44L4 42L5 42L5 45L3 45L3 46L1 46L1 44L0 44L0 53L1 53L1 51L2 51L2 54L0 54L0 55L3 55L3 56L1 56L1 57L0 57L0 61L1 61L1 57L3 57L3 58L2 58L2 59L3 59L3 58L4 58L4 59L8 59L8 60L9 60L9 61L8 61L8 62L9 62L9 63L8 63L8 65L9 65L9 66L10 66L10 68L11 68L11 69L19 69L19 67L20 67L20 66L22 66L22 68L23 68L23 69L24 69L24 68L25 68L25 69L27 69L27 68L26 68L26 67L28 67L28 66L30 66L30 65L31 65L31 67L34 67L34 68L35 68L35 67L34 67L34 65L37 65L37 60L38 60L38 59L37 59L37 57L38 57L38 58L39 58L39 60L41 60L41 62L40 62L40 63L39 63L39 61L38 61L38 64L39 64L39 65L38 65L38 66L37 66L37 67L39 67L39 66L40 66L40 63L41 63L41 67L40 67L40 68L38 68L38 69L40 69L40 68L41 68L41 69L43 69L43 63L44 63L44 69L46 69L46 67L45 67L45 63L44 63L44 62L46 62L46 64L47 64L47 63L48 63L48 65L49 65L49 59L51 59L51 60L50 60L50 62L51 62L51 61L52 61L52 64L51 64L51 65L50 65L50 66L49 66L49 67L50 67L50 66L51 66L51 68L47 68L47 69L52 69L52 68L53 68L53 69L54 69L54 67L52 67L52 64L53 64L53 66L55 66L55 67L56 67L56 69L59 69L59 68L62 68L62 69L64 69L64 68L65 68L65 69L67 69L67 68L65 68L65 67L67 67L67 66L69 66L69 64L68 64L68 62L67 62L67 61L69 61L69 59L68 59L68 58L69 58L69 57L68 57L68 56L69 56L69 55L68 55L68 53L69 53L69 52L68 52L68 50L67 50L67 49L68 49L68 48L69 48L69 47L68 47L68 45L69 45L69 43L68 43L68 42L69 42L69 41L68 41L68 38L69 38L69 35L68 35L68 33L69 33L69 31L67 31L67 30L65 30L65 29L64 29L64 28L65 28L65 27L66 27L66 25L65 25L65 26L64 26L64 24L65 24L65 23L64 23L64 22L65 22L65 21L66 21L66 22L67 22L67 23L68 23L68 24L67 24L67 28L68 28L68 29L69 29L69 28L68 28L68 24L69 24L69 23L68 23L68 21L69 21L69 20L68 20L68 18L67 18L67 17L69 17L69 15L68 15L68 14L69 14L69 13L68 13L68 12L67 12L67 13L68 13L68 14L67 14L67 15L68 15L68 16L66 16L66 19L67 19L67 20L65 20L65 17L64 17L64 16L65 16L65 15L64 15L64 14L65 14L65 13L64 13L64 12L63 12L63 10L64 10L64 11L68 11L68 10L65 10L65 9L69 9L69 8L65 8L65 9L64 9L64 8L63 8L63 9L62 9L62 11L60 11L60 10L61 10L61 9L59 9L59 4L57 4L57 5L56 5L56 3L59 3L59 2L58 2L58 1L61 1L61 0L58 0L58 1L57 1L57 0L52 0L52 1L54 1L54 2L52 2L52 4L51 4L51 2L50 2L50 1L51 1L51 0L50 0L50 1L49 1L49 2L46 2L46 3L45 3L45 1L46 1L46 0L45 0L45 1L44 1L44 0L40 0L40 2L39 2L39 3L40 3L40 5L39 5L39 4L38 4L38 3L37 3L37 4L35 4L35 2L38 2L38 1L39 1L39 0L38 0L38 1L34 1L34 3L33 3L33 0L32 0L32 1L31 1L31 2L29 2L29 0L22 0L22 1L21 1L21 0L15 0L15 1L16 1L16 2L14 2L14 1L13 1L13 0L12 0L12 2L14 2L14 3L12 3L12 4L11 4L11 1L10 1L10 4L9 4L9 0ZM19 1L19 2L17 2L17 3L14 3L14 4L13 4L13 5L14 5L14 4L16 4L16 6L15 6L15 7L14 7L14 6L13 6L13 9L12 9L12 6L11 6L11 9L12 9L12 12L14 12L14 13L11 13L11 10L10 10L10 11L6 11L6 12L5 12L5 9L4 9L4 10L3 10L3 11L4 11L4 12L5 12L5 13L6 13L6 14L8 14L8 15L6 15L6 16L7 16L7 17L5 17L5 19L2 19L2 20L4 20L4 21L5 21L5 24L7 24L7 25L5 25L5 26L2 26L2 27L3 27L3 28L5 28L5 29L4 29L4 32L5 32L5 30L7 30L7 29L8 29L8 28L9 28L9 31L10 31L10 32L9 32L9 34L10 34L10 32L11 32L11 34L12 34L12 37L10 37L10 35L9 35L9 37L10 37L10 38L9 38L9 39L8 39L8 37L5 37L5 38L7 38L7 39L6 39L6 40L7 40L7 39L8 39L8 40L9 40L9 39L10 39L10 40L11 40L11 41L9 41L9 44L10 44L10 42L11 42L11 41L12 41L12 42L13 42L13 44L12 44L12 45L8 45L8 46L10 46L10 48L12 48L12 45L13 45L13 47L14 47L14 48L13 48L13 49L10 49L10 50L9 50L9 51L10 51L10 52L11 52L11 51L12 51L12 50L14 50L14 51L13 51L13 52L12 52L12 54L11 54L11 53L10 53L10 54L11 54L11 55L8 55L8 57L5 57L5 58L9 58L9 60L10 60L10 61L9 61L9 62L10 62L10 63L9 63L9 64L10 64L10 63L11 63L11 65L10 65L10 66L11 66L11 65L12 65L12 67L13 67L13 66L14 66L14 68L16 68L16 67L17 67L17 68L18 68L18 67L19 67L19 66L17 66L17 65L18 65L18 64L19 64L19 65L20 65L20 64L19 64L19 63L20 63L20 61L17 61L17 59L18 59L18 60L19 60L19 59L20 59L20 60L22 60L22 61L21 61L21 63L25 63L25 65L30 65L30 63L32 63L32 62L30 62L30 61L29 61L29 60L31 60L31 61L32 61L32 58L36 58L36 57L35 57L35 56L37 56L37 55L40 55L40 57L39 57L39 56L38 56L38 57L39 57L39 58L40 58L40 59L41 59L41 58L40 58L40 57L41 57L41 56L42 56L42 57L44 57L44 54L45 54L45 53L46 53L46 54L47 54L47 53L46 53L46 52L47 52L47 51L48 51L48 52L50 52L50 51L49 51L49 50L47 50L47 48L45 48L45 45L46 45L46 46L47 46L47 44L48 44L48 43L49 43L49 42L50 42L50 44L49 44L49 45L50 45L50 44L51 44L51 42L52 42L52 45L51 45L51 46L52 46L52 47L53 47L53 46L52 46L52 45L54 45L54 44L55 44L55 46L56 46L56 44L58 44L58 43L59 43L59 42L60 42L60 39L61 39L61 40L62 40L62 39L64 39L64 40L63 40L63 41L61 41L61 42L62 42L62 43L61 43L61 44L59 44L59 45L58 45L58 46L57 46L57 47L58 47L58 48L57 48L57 49L55 49L55 50L56 50L56 51L55 51L55 52L54 52L54 53L53 53L53 51L52 51L52 50L53 50L53 49L54 49L54 48L52 48L52 49L51 49L51 51L52 51L52 54L51 54L51 55L50 55L50 57L51 57L51 56L52 56L52 57L55 57L55 58L54 58L54 59L55 59L55 60L54 60L54 61L55 61L55 62L54 62L54 64L55 64L55 66L57 66L57 67L58 67L58 68L59 68L59 67L62 67L62 68L64 68L64 65L63 65L63 67L62 67L62 66L60 66L60 63L59 63L59 62L60 62L60 59L61 59L61 60L62 60L62 59L63 59L63 60L64 60L64 59L63 59L63 58L62 58L62 57L64 57L64 58L68 58L68 57L67 57L67 56L68 56L68 55L67 55L67 53L66 53L66 54L65 54L65 52L67 52L67 51L65 51L65 52L64 52L64 51L63 51L63 50L66 50L66 49L67 49L67 48L68 48L68 47L67 47L67 46L66 46L66 45L65 45L65 44L67 44L67 45L68 45L68 43L65 43L65 44L64 44L64 43L63 43L63 41L64 41L64 42L67 42L67 38L68 38L68 35L67 35L67 33L68 33L68 32L67 32L67 31L63 31L63 32L66 32L66 33L65 33L65 34L66 34L66 35L65 35L65 36L67 36L67 38L65 38L65 37L63 37L63 38L62 38L62 37L58 37L58 38L57 38L57 39L58 39L58 40L57 40L57 41L58 41L58 42L56 42L56 43L55 43L55 42L54 42L54 43L53 43L53 40L55 40L55 41L56 41L56 39L53 39L53 38L52 38L52 37L54 37L54 36L55 36L55 37L56 37L56 36L58 36L58 35L57 35L57 34L55 34L55 35L54 35L54 34L53 34L53 36L52 36L52 37L51 37L51 38L50 38L50 36L51 36L51 35L52 35L52 34L51 34L51 35L50 35L50 36L49 36L49 40L50 40L50 39L51 39L51 40L52 40L52 41L51 41L51 42L50 42L50 41L48 41L48 43L47 43L47 39L48 39L48 38L47 38L47 37L48 37L48 35L47 35L47 37L46 37L46 34L50 34L50 33L51 33L51 30L50 30L50 28L49 28L49 29L48 29L48 30L47 30L47 29L46 29L46 28L45 28L45 29L43 29L43 31L40 31L40 33L44 33L44 34L43 34L43 35L41 35L41 34L38 34L38 32L37 32L37 31L39 31L39 30L38 30L38 29L40 29L40 30L42 30L42 28L43 28L43 26L41 26L41 25L42 25L42 24L43 24L43 25L44 25L44 24L45 24L45 23L44 23L44 20L46 20L46 19L47 19L47 21L46 21L46 22L48 22L48 23L47 23L47 25L46 25L46 26L47 26L47 25L48 25L48 27L49 27L49 26L50 26L50 27L51 27L51 29L54 29L54 28L55 28L55 30L53 30L53 31L52 31L52 33L53 33L53 32L54 32L54 31L55 31L55 30L56 30L56 31L57 31L57 33L58 33L58 34L59 34L59 33L58 33L58 32L59 32L59 31L58 31L58 30L59 30L59 27L58 27L58 30L57 30L57 29L56 29L56 28L57 28L57 27L56 27L56 28L55 28L55 26L56 26L56 23L57 23L57 21L58 21L58 22L59 22L59 21L61 21L61 22L60 22L60 23L58 23L58 24L57 24L57 25L58 25L58 26L59 26L59 25L61 25L61 24L62 24L62 21L61 21L61 19L62 19L62 20L63 20L63 19L64 19L64 17L63 17L63 19L62 19L62 15L63 15L63 14L64 14L64 13L63 13L63 14L62 14L62 12L59 12L59 11L58 11L58 10L59 10L59 9L58 9L58 10L56 10L56 11L55 11L55 10L53 10L53 12L52 12L52 13L51 13L51 14L53 14L53 15L50 15L50 11L51 11L51 10L50 10L50 9L51 9L51 8L50 8L50 6L51 6L51 7L52 7L52 9L54 9L54 8L55 8L55 7L56 7L56 6L55 6L55 7L54 7L54 5L52 5L52 6L51 6L51 5L50 5L50 2L49 2L49 3L47 3L47 4L46 4L46 5L44 5L44 4L45 4L45 3L44 3L44 2L43 2L43 3L44 3L44 4L43 4L43 5L44 5L44 6L43 6L43 8L41 8L41 7L42 7L42 6L41 6L41 5L40 5L40 6L39 6L39 7L40 7L40 9L43 9L43 11L45 11L45 13L46 13L46 14L45 14L45 15L46 15L46 14L47 14L47 13L46 13L46 12L47 12L47 11L46 11L46 10L47 10L47 8L50 8L50 9L49 9L49 18L50 18L50 19L49 19L49 21L48 21L48 18L47 18L47 17L46 17L46 16L45 16L45 17L46 17L46 19L44 19L44 18L41 18L41 17L42 17L42 16L40 16L40 19L39 19L39 18L38 18L38 15L37 15L37 14L38 14L38 13L37 13L37 12L36 12L36 13L37 13L37 14L35 14L35 13L33 13L33 15L32 15L32 14L31 14L31 13L32 13L32 12L34 12L34 9L32 9L32 11L31 11L31 13L30 13L30 12L29 12L29 10L30 10L30 9L31 9L31 8L32 8L32 6L31 6L31 5L32 5L32 4L33 4L33 3L32 3L32 2L31 2L31 3L29 3L29 2L28 2L28 1L27 1L27 2L26 2L26 4L25 4L25 5L24 5L24 3L25 3L25 2L24 2L24 1L23 1L23 5L21 5L21 9L22 9L22 10L23 10L23 9L24 9L24 10L25 10L25 13L26 13L26 14L23 14L23 16L22 16L22 15L21 15L21 14L20 14L20 11L21 11L21 10L20 10L20 8L19 8L19 10L20 10L20 11L19 11L19 14L20 14L20 16L22 16L22 18L23 18L23 19L22 19L22 22L21 22L21 23L20 23L20 24L19 24L19 22L20 22L20 21L18 21L18 22L17 22L17 23L16 23L16 21L14 21L14 22L13 22L13 20L14 20L14 19L17 19L17 20L18 20L18 19L20 19L20 18L21 18L21 17L19 17L19 16L18 16L18 17L17 17L17 18L15 18L15 17L14 17L14 16L12 16L12 15L15 15L15 16L17 16L17 15L18 15L18 13L16 13L16 12L17 12L17 11L16 11L16 10L14 10L14 9L15 9L15 8L16 8L16 9L17 9L17 7L18 7L18 6L19 6L19 7L20 7L20 4L19 4L19 3L22 3L22 2L20 2L20 1ZM41 1L41 2L40 2L40 3L41 3L41 2L42 2L42 1ZM55 1L55 3L54 3L54 4L55 4L55 3L56 3L56 1ZM28 3L28 4L26 4L26 7L25 7L25 6L24 6L24 7L25 7L25 8L24 8L24 9L25 9L25 8L26 8L26 10L27 10L27 11L26 11L26 13L27 13L27 14L28 14L28 12L27 12L27 11L28 11L28 9L30 9L30 8L31 8L31 6L30 6L30 5L31 5L31 4L32 4L32 3L31 3L31 4L30 4L30 5L28 5L28 4L29 4L29 3ZM60 3L60 5L61 5L61 3ZM10 4L10 5L11 5L11 4ZM17 4L17 5L18 5L18 4ZM47 4L47 5L48 5L48 7L49 7L49 6L50 6L50 5L49 5L49 4ZM33 5L33 8L36 8L36 5ZM37 5L37 8L38 8L38 9L37 9L37 10L38 10L38 12L39 12L39 10L38 10L38 9L39 9L39 8L38 8L38 5ZM57 5L57 7L58 7L58 5ZM9 6L9 7L10 7L10 6ZM16 6L16 7L17 7L17 6ZM22 6L22 8L23 8L23 6ZM27 6L27 7L26 7L26 8L28 8L28 6ZM29 6L29 7L30 7L30 6ZM34 6L34 7L35 7L35 6ZM40 6L40 7L41 7L41 6ZM44 6L44 7L45 7L45 8L44 8L44 9L45 9L45 10L46 10L46 9L45 9L45 8L47 8L47 6L46 6L46 7L45 7L45 6ZM52 6L52 7L53 7L53 8L54 8L54 7L53 7L53 6ZM60 6L60 8L61 8L61 6ZM6 9L6 10L7 10L7 9ZM35 9L35 11L36 11L36 9ZM41 10L41 14L40 14L40 13L39 13L39 15L42 15L42 13L43 13L43 17L44 17L44 12L42 12L42 10ZM14 11L14 12L16 12L16 11ZM22 11L22 13L24 13L24 11ZM56 11L56 13L55 13L55 12L54 12L54 15L55 15L55 16L54 16L54 17L53 17L53 18L52 18L52 19L54 19L54 20L55 20L55 21L53 21L53 22L52 22L52 20L51 20L51 19L50 19L50 22L49 22L49 23L48 23L48 25L50 25L50 26L51 26L51 27L53 27L53 28L54 28L54 26L55 26L55 25L52 25L52 23L53 23L53 24L55 24L55 23L54 23L54 22L55 22L55 21L57 21L57 19L58 19L58 20L59 20L59 18L61 18L61 15L62 15L62 14L61 14L61 13L59 13L59 12L58 12L58 11ZM2 12L2 13L3 13L3 14L4 14L4 13L3 13L3 12ZM6 12L6 13L7 13L7 12ZM8 12L8 14L9 14L9 12ZM57 12L57 13L56 13L56 14L55 14L55 15L56 15L56 16L55 16L55 18L54 18L54 19L55 19L55 18L56 18L56 19L57 19L57 17L58 17L58 18L59 18L59 15L58 15L58 14L59 14L59 13L58 13L58 12ZM10 13L10 14L11 14L11 13ZM15 13L15 14L16 14L16 15L17 15L17 14L16 14L16 13ZM29 13L29 14L30 14L30 16L29 16L29 18L28 18L28 19L27 19L27 20L26 20L26 18L27 18L27 17L28 17L28 15L27 15L27 16L26 16L26 15L24 15L24 16L23 16L23 17L24 17L24 19L23 19L23 22L25 22L25 24L22 24L22 23L21 23L21 24L20 24L20 26L21 26L21 27L20 27L20 28L19 28L19 24L17 24L17 25L15 25L15 24L16 24L16 23L15 23L15 24L13 24L13 25L12 25L12 26L9 26L9 25L10 25L10 23L11 23L11 24L12 24L12 23L11 23L11 22L8 22L8 21L9 21L9 20L10 20L10 21L11 21L11 20L12 20L12 19L11 19L11 20L10 20L10 18L11 18L11 17L12 17L12 16L11 16L11 15L10 15L10 16L9 16L9 15L8 15L8 16L9 16L9 17L10 17L10 18L8 18L8 20L5 20L5 21L7 21L7 22L6 22L6 23L7 23L7 24L8 24L8 25L7 25L7 26L5 26L5 27L7 27L7 28L6 28L6 29L7 29L7 28L8 28L8 26L9 26L9 28L11 28L11 30L10 30L10 31L12 31L12 34L13 34L13 36L14 36L14 37L12 37L12 38L11 38L11 40L12 40L12 39L13 39L13 38L15 38L15 39L14 39L14 41L16 41L16 40L17 40L17 41L19 41L19 39L17 39L17 38L16 38L16 36L17 36L17 37L19 37L19 35L20 35L20 34L21 34L21 36L20 36L20 40L21 40L21 39L22 39L22 40L24 40L24 41L23 41L23 43L22 43L22 44L21 44L21 45L20 45L20 42L22 42L22 41L20 41L20 42L19 42L19 44L18 44L18 43L17 43L17 42L16 42L16 43L15 43L15 44L17 44L17 45L20 45L20 47L19 47L19 46L18 46L18 47L17 47L17 48L16 48L16 45L14 45L14 46L15 46L15 48L14 48L14 49L18 49L18 50L19 50L19 49L22 49L22 48L23 48L23 50L22 50L22 51L21 51L21 50L20 50L20 51L19 51L19 52L18 52L18 51L17 51L17 50L15 50L15 53L13 53L13 54L15 54L15 55L14 55L14 57L13 57L13 59L14 59L14 57L15 57L15 59L16 59L16 58L18 58L18 59L19 59L19 56L20 56L20 58L21 58L21 59L22 59L22 60L23 60L23 61L22 61L22 62L25 62L25 63L26 63L26 64L27 64L27 62L28 62L28 63L30 63L30 62L28 62L28 60L29 60L29 59L27 59L27 58L28 58L28 56L27 56L27 55L30 55L30 54L32 54L32 57L31 57L31 56L30 56L30 57L29 57L29 58L32 58L32 57L34 57L34 56L35 56L35 55L36 55L36 54L35 54L35 55L34 55L34 53L33 53L33 51L34 51L34 52L35 52L35 51L36 51L36 49L35 49L35 50L34 50L34 48L35 48L35 47L36 47L36 48L37 48L37 49L38 49L38 51L37 51L37 52L36 52L36 53L38 53L38 52L39 52L39 51L40 51L40 48L41 48L41 47L39 47L39 48L38 48L38 47L36 47L36 46L35 46L35 45L36 45L36 43L37 43L37 41L38 41L38 42L43 42L43 39L45 39L45 40L44 40L44 43L43 43L43 44L41 44L41 43L39 43L39 45L38 45L38 44L37 44L37 45L38 45L38 46L39 46L39 45L40 45L40 46L41 46L41 45L42 45L42 49L41 49L41 51L42 51L42 52L43 52L43 51L44 51L44 53L40 53L40 55L41 55L41 54L42 54L42 55L43 55L43 54L44 54L44 53L45 53L45 50L46 50L46 51L47 51L47 50L46 50L46 49L45 49L45 48L44 48L44 47L43 47L43 46L44 46L44 45L45 45L45 44L44 44L44 43L45 43L45 42L46 42L46 37L45 37L45 34L46 34L46 33L49 33L49 32L50 32L50 30L49 30L49 32L48 32L48 31L47 31L47 30L46 30L46 29L45 29L45 30L46 30L46 31L47 31L47 32L46 32L46 33L45 33L45 31L44 31L44 33L45 33L45 34L44 34L44 37L45 37L45 38L43 38L43 36L42 36L42 37L40 37L40 35L39 35L39 36L38 36L38 37L37 37L37 35L38 35L38 34L37 34L37 32L32 32L32 30L31 30L31 29L32 29L32 28L33 28L33 27L34 27L34 28L35 28L35 27L36 27L36 26L37 26L37 25L38 25L38 26L39 26L39 27L38 27L38 28L36 28L36 29L33 29L33 31L34 31L34 30L37 30L37 29L38 29L38 28L39 28L39 27L40 27L40 28L42 28L42 27L40 27L40 24L41 24L41 23L42 23L42 22L43 22L43 21L41 21L41 23L40 23L40 22L39 22L39 23L40 23L40 24L39 24L39 25L38 25L38 23L34 23L34 22L35 22L35 21L38 21L38 20L39 20L39 19L37 19L37 20L35 20L35 19L34 19L34 20L32 20L32 19L33 19L33 18L32 18L32 17L34 17L34 18L36 18L36 17L37 17L37 15L36 15L36 16L35 16L35 14L34 14L34 15L33 15L33 16L32 16L32 15L31 15L31 14L30 14L30 13ZM57 13L57 14L58 14L58 13ZM57 15L57 16L56 16L56 17L57 17L57 16L58 16L58 15ZM24 16L24 17L25 17L25 18L26 18L26 17L25 17L25 16ZM31 16L31 17L32 17L32 16ZM34 16L34 17L35 17L35 16ZM50 16L50 18L51 18L51 16ZM13 17L13 18L14 18L14 17ZM18 17L18 18L17 18L17 19L18 19L18 18L19 18L19 17ZM6 18L6 19L7 19L7 18ZM30 18L30 19L29 19L29 20L27 20L27 21L26 21L26 20L25 20L25 19L24 19L24 20L25 20L25 22L26 22L26 23L27 23L27 25L28 25L28 28L27 28L27 27L25 27L25 26L26 26L26 24L25 24L25 26L24 26L24 25L21 25L21 26L22 26L22 27L24 27L24 28L22 28L22 29L21 29L21 28L20 28L20 29L19 29L19 30L18 30L18 31L17 31L17 33L16 33L16 34L15 34L15 32L16 32L16 31L15 31L15 30L14 30L14 28L15 28L15 29L16 29L16 30L17 30L17 28L18 28L18 26L16 26L16 27L14 27L14 26L13 26L13 27L12 27L12 28L13 28L13 30L12 30L12 31L13 31L13 32L14 32L14 33L13 33L13 34L14 34L14 36L16 36L16 34L17 34L17 33L18 33L18 32L19 32L19 33L20 33L20 32L21 32L21 30L22 30L22 31L25 31L25 32L24 32L24 33L29 33L29 34L28 34L28 35L27 35L27 34L25 34L25 35L24 35L24 34L22 34L22 33L23 33L23 32L22 32L22 33L21 33L21 34L22 34L22 37L21 37L21 38L23 38L23 35L24 35L24 37L26 37L26 40L25 40L25 41L24 41L24 42L25 42L25 43L26 43L26 44L25 44L25 45L26 45L26 46L24 46L24 47L26 47L26 48L28 48L28 49L27 49L27 51L28 51L28 50L29 50L29 52L32 52L32 49L33 49L33 48L34 48L34 47L35 47L35 46L33 46L33 47L32 47L32 46L31 46L31 47L30 47L30 45L28 45L28 43L31 43L31 44L32 44L32 45L33 45L33 44L32 44L32 43L34 43L34 45L35 45L35 43L36 43L36 42L35 42L35 43L34 43L34 41L37 41L37 37L36 37L36 38L35 38L35 37L33 37L33 38L35 38L35 40L34 40L34 41L32 41L32 40L33 40L33 39L32 39L32 34L31 34L31 33L29 33L29 32L31 32L31 30L30 30L30 29L28 29L28 28L29 28L29 25L30 25L30 24L31 24L31 21L30 21L30 23L29 23L29 20L31 20L31 18ZM41 19L41 20L43 20L43 19ZM64 20L64 21L63 21L63 22L64 22L64 21L65 21L65 20ZM67 20L67 21L68 21L68 20ZM2 21L2 25L3 25L3 21ZM27 21L27 22L28 22L28 21ZM7 22L7 23L8 23L8 22ZM32 22L32 25L31 25L31 26L30 26L30 27L33 27L33 26L34 26L34 25L36 25L36 24L34 24L34 23L33 23L33 22ZM50 22L50 23L49 23L49 24L50 24L50 25L51 25L51 26L52 26L52 25L51 25L51 23L52 23L52 22ZM33 24L33 25L32 25L32 26L33 26L33 25L34 25L34 24ZM60 26L60 27L61 27L61 26ZM63 26L63 27L62 27L62 28L64 28L64 26ZM26 28L26 30L25 30L25 29L23 29L23 30L25 30L25 31L26 31L26 32L27 32L27 31L29 31L29 30L28 30L28 29L27 29L27 28ZM20 29L20 30L19 30L19 31L20 31L20 30L21 30L21 29ZM61 29L61 31L60 31L60 32L61 32L61 31L62 31L62 29ZM63 29L63 30L64 30L64 29ZM6 31L6 32L8 32L8 31ZM14 31L14 32L15 32L15 31ZM55 32L55 33L56 33L56 32ZM5 33L5 36L8 36L8 33ZM33 33L33 36L36 36L36 33ZM61 33L61 36L64 36L64 33ZM6 34L6 35L7 35L7 34ZM34 34L34 35L35 35L35 34ZM62 34L62 35L63 35L63 34ZM30 35L30 36L29 36L29 37L30 37L30 39L29 39L29 40L28 40L28 39L27 39L27 40L26 40L26 43L28 43L28 41L30 41L30 42L32 42L32 41L30 41L30 40L32 40L32 39L31 39L31 35ZM55 35L55 36L56 36L56 35ZM1 36L1 37L2 37L2 38L3 38L3 36ZM26 36L26 37L27 37L27 38L28 38L28 37L27 37L27 36ZM39 37L39 38L38 38L38 40L39 40L39 38L40 38L40 37ZM24 38L24 39L25 39L25 38ZM42 38L42 39L43 39L43 38ZM51 38L51 39L52 39L52 40L53 40L53 39L52 39L52 38ZM58 38L58 39L59 39L59 38ZM61 38L61 39L62 39L62 38ZM64 38L64 39L65 39L65 38ZM1 39L1 40L2 40L2 39ZM4 39L4 40L5 40L5 39ZM15 39L15 40L16 40L16 39ZM40 39L40 41L41 41L41 39ZM27 40L27 41L28 41L28 40ZM58 40L58 41L59 41L59 40ZM64 40L64 41L65 41L65 40ZM2 41L2 42L4 42L4 41ZM6 41L6 42L7 42L7 43L6 43L6 44L7 44L7 43L8 43L8 42L7 42L7 41ZM23 43L23 44L22 44L22 46L21 46L21 47L20 47L20 48L21 48L21 47L22 47L22 46L23 46L23 44L24 44L24 43ZM46 43L46 44L47 44L47 43ZM62 43L62 45L61 45L61 46L58 46L58 47L62 47L62 48L61 48L61 49L65 49L65 48L63 48L63 47L66 47L66 46L64 46L64 44L63 44L63 43ZM26 44L26 45L27 45L27 47L28 47L28 48L29 48L29 50L30 50L30 51L31 51L31 50L30 50L30 49L32 49L32 48L29 48L29 47L28 47L28 45L27 45L27 44ZM43 44L43 45L44 45L44 44ZM6 45L6 46L4 46L4 47L5 47L5 49L4 49L4 51L5 51L5 49L6 49L6 50L8 50L8 49L9 49L9 47L6 47L6 46L7 46L7 45ZM62 45L62 47L63 47L63 45ZM2 47L2 48L1 48L1 50L3 50L3 47ZM49 47L49 48L50 48L50 47ZM6 48L6 49L7 49L7 48ZM18 48L18 49L19 49L19 48ZM43 48L43 49L44 49L44 50L45 50L45 49L44 49L44 48ZM25 49L25 50L26 50L26 49ZM57 49L57 50L58 50L58 51L56 51L56 53L54 53L54 55L53 55L53 56L55 56L55 55L56 55L56 58L55 58L55 59L56 59L56 58L57 58L57 60L56 60L56 62L55 62L55 64L56 64L56 65L57 65L57 66L58 66L58 65L59 65L59 64L58 64L58 63L57 63L57 64L56 64L56 62L57 62L57 61L58 61L58 59L59 59L59 58L58 58L58 56L59 56L59 55L60 55L60 58L61 58L61 59L62 59L62 58L61 58L61 56L62 56L62 54L64 54L64 55L63 55L63 56L64 56L64 57L66 57L66 55L65 55L65 54L64 54L64 53L63 53L63 51L62 51L62 50L61 50L61 51L59 51L59 50L58 50L58 49ZM23 50L23 52L22 52L22 54L20 54L20 52L19 52L19 55L17 55L17 56L15 56L15 57L17 57L17 56L19 56L19 55L20 55L20 56L21 56L21 55L22 55L22 56L23 56L23 52L24 52L24 53L25 53L25 54L24 54L24 56L25 56L25 58L24 58L24 57L21 57L21 58L22 58L22 59L24 59L24 61L25 61L25 62L26 62L26 52L24 52L24 50ZM42 50L42 51L43 51L43 50ZM6 51L6 52L3 52L3 53L4 53L4 54L3 54L3 55L4 55L4 54L7 54L7 53L6 53L6 52L7 52L7 51ZM8 52L8 53L9 53L9 52ZM27 52L27 53L28 53L28 54L30 54L30 53L28 53L28 52ZM58 52L58 55L57 55L57 56L58 56L58 55L59 55L59 53L60 53L60 54L61 54L61 53L62 53L62 52L61 52L61 53L60 53L60 52ZM16 53L16 54L17 54L17 53ZM32 53L32 54L33 54L33 53ZM48 53L48 55L47 55L47 57L46 57L46 58L47 58L47 59L49 59L49 58L47 58L47 57L48 57L48 55L49 55L49 54L50 54L50 53ZM6 55L6 56L7 56L7 55ZM11 55L11 56L10 56L10 57L9 57L9 58L10 58L10 59L11 59L11 57L12 57L12 55ZM33 55L33 56L34 56L34 55ZM64 55L64 56L65 56L65 55ZM3 56L3 57L4 57L4 56ZM42 58L42 61L43 61L43 62L42 62L42 63L43 63L43 62L44 62L44 60L45 60L45 61L46 61L46 62L47 62L47 61L46 61L46 59L45 59L45 58ZM51 58L51 59L52 59L52 61L53 61L53 59L52 59L52 58ZM35 59L35 60L37 60L37 59ZM43 59L43 60L44 60L44 59ZM65 59L65 61L66 61L66 60L67 60L67 59ZM3 60L3 61L5 61L5 60ZM6 60L6 61L7 61L7 60ZM12 60L12 61L13 61L13 62L11 62L11 63L12 63L12 65L13 65L13 64L14 64L14 63L13 63L13 62L14 62L14 60ZM15 60L15 62L16 62L16 63L15 63L15 65L14 65L14 66L15 66L15 67L16 67L16 66L15 66L15 65L17 65L17 64L16 64L16 63L18 63L18 62L16 62L16 60ZM33 61L33 64L36 64L36 61ZM61 61L61 64L64 64L64 61ZM34 62L34 63L35 63L35 62ZM62 62L62 63L63 63L63 62ZM66 62L66 63L65 63L65 66L67 66L67 62ZM22 64L22 66L23 66L23 67L26 67L26 66L23 66L23 65L24 65L24 64ZM31 64L31 65L32 65L32 66L33 66L33 65L32 65L32 64ZM57 64L57 65L58 65L58 64ZM47 66L47 67L48 67L48 66ZM8 67L8 69L9 69L9 67ZM29 67L29 68L28 68L28 69L31 69L31 68L30 68L30 67ZM32 68L32 69L33 69L33 68ZM36 68L36 69L37 69L37 68ZM68 68L68 69L69 69L69 68ZM0 0L0 7L7 7L7 0ZM1 1L1 6L6 6L6 1ZM2 2L2 5L5 5L5 2ZM62 0L62 7L69 7L69 0ZM63 1L63 6L68 6L68 1ZM64 2L64 5L67 5L67 2ZM0 62L0 69L7 69L7 62ZM1 63L1 68L6 68L6 63ZM2 64L2 67L5 67L5 64Z" fill="#000000"/></g></g></svg>
