<?xml version="1.0" encoding="UTF-8"?>
<svg xmlns="http://www.w3.org/2000/svg" version="1.1" width="300" height="300" viewBox="0 0 300 300"><rect x="0" y="0" width="300" height="300" fill="#ffffff"/><g transform="scale(4.348)"><g transform="translate(0,0)"><path fill-rule="evenodd" d="M10 0L10 2L9 2L9 1L8 1L8 2L9 2L9 3L8 3L8 4L9 4L9 5L8 5L8 7L9 7L9 8L6 8L6 9L9 9L9 10L8 10L8 11L7 11L7 10L5 10L5 8L0 8L0 9L4 9L4 10L1 10L1 12L0 12L0 19L1 19L1 13L3 13L3 12L2 12L2 11L4 11L4 12L5 12L5 13L4 13L4 14L2 14L2 19L4 19L4 20L2 20L2 21L3 21L3 23L2 23L2 22L1 22L1 23L2 23L2 24L1 24L1 25L0 25L0 27L7 27L7 28L3 28L3 29L2 29L2 30L0 30L0 31L1 31L1 32L0 32L0 33L1 33L1 32L2 32L2 30L3 30L3 31L4 31L4 33L3 33L3 34L2 34L2 35L4 35L4 36L1 36L1 35L0 35L0 40L1 40L1 43L2 43L2 45L1 45L1 44L0 44L0 45L1 45L1 46L0 46L0 47L1 47L1 48L2 48L2 49L0 49L0 50L3 50L3 48L4 48L4 47L5 47L5 46L4 46L4 47L3 47L3 46L2 46L2 45L3 45L3 44L5 44L5 45L8 45L8 46L10 46L10 47L12 47L12 48L8 48L8 47L7 47L7 46L6 46L6 47L7 47L7 48L5 48L5 49L4 49L4 53L5 53L5 54L3 54L3 52L2 52L2 51L0 51L0 53L2 53L2 54L1 54L1 55L2 55L2 54L3 54L3 56L5 56L5 58L4 58L4 59L7 59L7 58L6 58L6 57L8 57L8 56L9 56L9 55L10 55L10 57L9 57L9 59L10 59L10 60L11 60L11 59L12 59L12 61L13 61L13 60L14 60L14 58L15 58L15 59L16 59L16 60L15 60L15 61L16 61L16 60L17 60L17 61L19 61L19 62L18 62L18 63L15 63L15 62L13 62L13 63L15 63L15 64L12 64L12 66L11 66L11 69L12 69L12 68L13 68L13 69L16 69L16 67L18 67L18 68L17 68L17 69L19 69L19 67L20 67L20 66L19 66L19 65L20 65L20 64L22 64L22 62L23 62L23 64L24 64L24 65L21 65L21 68L20 68L20 69L21 69L21 68L23 68L23 69L26 69L26 68L27 68L27 69L28 69L28 68L29 68L29 69L32 69L32 68L30 68L30 67L33 67L33 69L35 69L35 68L36 68L36 69L38 69L38 68L37 68L37 67L39 67L39 66L37 66L37 65L38 65L38 60L39 60L39 62L40 62L40 59L41 59L41 58L42 58L42 60L41 60L41 62L42 62L42 63L43 63L43 62L46 62L46 63L47 63L47 65L48 65L48 67L47 67L47 66L46 66L46 64L45 64L45 63L44 63L44 64L41 64L41 63L39 63L39 64L41 64L41 66L40 66L40 67L41 67L41 68L43 68L43 69L44 69L44 68L48 68L48 69L49 69L49 68L48 68L48 67L50 67L50 68L52 68L52 66L55 66L55 67L56 67L56 68L54 68L54 69L56 69L56 68L57 68L57 69L61 69L61 68L62 68L62 69L68 69L68 68L67 68L67 67L63 67L63 68L62 68L62 65L63 65L63 66L64 66L64 65L65 65L65 64L67 64L67 63L68 63L68 64L69 64L69 63L68 63L68 62L67 62L67 61L65 61L65 60L68 60L68 61L69 61L69 60L68 60L68 58L69 58L69 55L68 55L68 54L69 54L69 53L68 53L68 54L67 54L67 55L62 55L62 54L61 54L61 53L62 53L62 52L63 52L63 53L64 53L64 52L63 52L63 51L64 51L64 50L63 50L63 51L61 51L61 50L62 50L62 49L61 49L61 48L60 48L60 49L59 49L59 48L58 48L58 49L59 49L59 50L57 50L57 51L61 51L61 53L59 53L59 54L58 54L58 52L57 52L57 54L56 54L56 55L55 55L55 56L54 56L54 58L53 58L53 57L51 57L51 56L53 56L53 55L54 55L54 54L55 54L55 53L56 53L56 52L55 52L55 51L56 51L56 49L55 49L55 48L57 48L57 47L58 47L58 46L56 46L56 44L57 44L57 45L58 45L58 44L57 44L57 43L56 43L56 44L55 44L55 45L51 45L51 44L50 44L50 41L51 41L51 42L52 42L52 43L54 43L54 42L57 42L57 41L58 41L58 40L59 40L59 39L60 39L60 38L61 38L61 39L62 39L62 40L63 40L63 41L61 41L61 42L63 42L63 43L59 43L59 44L60 44L60 45L62 45L62 46L61 46L61 47L62 47L62 48L63 48L63 49L64 49L64 47L65 47L65 48L67 48L67 49L66 49L66 50L67 50L67 51L65 51L65 54L66 54L66 53L67 53L67 52L68 52L68 50L69 50L69 49L68 49L68 46L67 46L67 44L68 44L68 42L63 42L63 41L65 41L65 40L68 40L68 41L69 41L69 40L68 40L68 38L66 38L66 37L68 37L68 36L69 36L69 35L68 35L68 34L69 34L69 31L68 31L68 30L69 30L69 29L68 29L68 28L69 28L69 27L68 27L68 25L69 25L69 23L68 23L68 22L64 22L64 21L63 21L63 23L65 23L65 24L66 24L66 25L65 25L65 29L63 29L63 28L64 28L64 26L63 26L63 27L62 27L62 25L61 25L61 24L62 24L62 20L61 20L61 19L60 19L60 18L62 18L62 19L63 19L63 20L64 20L64 19L63 19L63 18L66 18L66 20L65 20L65 21L66 21L66 20L67 20L67 21L68 21L68 18L69 18L69 17L67 17L67 15L68 15L68 13L69 13L69 11L68 11L68 10L67 10L67 9L68 9L68 8L67 8L67 9L66 9L66 8L65 8L65 10L64 10L64 8L63 8L63 10L62 10L62 8L61 8L61 6L60 6L60 7L59 7L59 4L55 4L55 3L59 3L59 2L55 2L55 3L53 3L53 4L51 4L51 3L52 3L52 2L54 2L54 1L56 1L56 0L51 0L51 2L50 2L50 0L49 0L49 2L50 2L50 4L49 4L49 3L48 3L48 1L47 1L47 4L49 4L49 5L47 5L47 6L46 6L46 5L44 5L44 3L45 3L45 4L46 4L46 3L45 3L45 2L44 2L44 3L42 3L42 4L39 4L39 6L38 6L38 5L37 5L37 4L38 4L38 3L35 3L35 4L34 4L34 3L33 3L33 2L35 2L35 1L36 1L36 2L39 2L39 3L41 3L41 1L42 1L42 2L43 2L43 0L41 0L41 1L38 1L38 0L37 0L37 1L36 1L36 0L35 0L35 1L34 1L34 0L33 0L33 2L32 2L32 3L30 3L30 2L31 2L31 1L32 1L32 0L30 0L30 1L29 1L29 0L28 0L28 1L26 1L26 3L27 3L27 4L25 4L25 3L23 3L23 4L22 4L22 3L18 3L18 2L20 2L20 1L19 1L19 0L17 0L17 1L16 1L16 0L15 0L15 1L13 1L13 3L12 3L12 2L11 2L11 1L12 1L12 0ZM21 0L21 2L23 2L23 1L24 1L24 2L25 2L25 0L23 0L23 1L22 1L22 0ZM44 0L44 1L45 1L45 0ZM57 0L57 1L61 1L61 0ZM14 2L14 3L13 3L13 4L11 4L11 5L9 5L9 7L10 7L10 6L11 6L11 7L12 7L12 9L11 9L11 10L10 10L10 11L8 11L8 12L7 12L7 11L5 11L5 12L7 12L7 13L6 13L6 14L8 14L8 13L9 13L9 14L11 14L11 13L13 13L13 14L12 14L12 15L8 15L8 17L6 17L6 16L7 16L7 15L6 15L6 16L5 16L5 18L4 18L4 16L3 16L3 18L4 18L4 19L5 19L5 18L8 18L8 19L6 19L6 20L5 20L5 21L4 21L4 23L3 23L3 24L4 24L4 25L3 25L3 26L4 26L4 25L5 25L5 24L4 24L4 23L5 23L5 21L6 21L6 22L7 22L7 23L6 23L6 24L7 24L7 25L6 25L6 26L8 26L8 29L6 29L6 30L7 30L7 31L5 31L5 32L7 32L7 31L8 31L8 30L9 30L9 31L10 31L10 32L9 32L9 33L11 33L11 32L12 32L12 33L13 33L13 31L10 31L10 30L9 30L9 28L10 28L10 29L13 29L13 30L14 30L14 32L15 32L15 30L17 30L17 31L18 31L18 30L19 30L19 29L18 29L18 30L17 30L17 28L16 28L16 27L15 27L15 29L13 29L13 28L14 28L14 27L13 27L13 26L14 26L14 24L15 24L15 23L14 23L14 22L13 22L13 20L14 20L14 21L15 21L15 20L18 20L18 19L16 19L16 16L18 16L18 17L17 17L17 18L18 18L18 17L21 17L21 18L22 18L22 19L23 19L23 20L20 20L20 22L19 22L19 21L17 21L17 22L19 22L19 23L17 23L17 24L16 24L16 25L15 25L15 26L16 26L16 25L17 25L17 26L18 26L18 27L20 27L20 30L22 30L22 31L23 31L23 30L22 30L22 29L23 29L23 28L24 28L24 29L25 29L25 28L26 28L26 30L27 30L27 31L28 31L28 30L29 30L29 31L30 31L30 32L28 32L28 33L25 33L25 34L23 34L23 35L22 35L22 34L21 34L21 33L24 33L24 32L26 32L26 31L24 31L24 32L20 32L20 31L19 31L19 32L20 32L20 33L19 33L19 34L18 34L18 35L17 35L17 33L18 33L18 32L16 32L16 33L15 33L15 34L16 34L16 35L17 35L17 36L15 36L15 35L14 35L14 34L13 34L13 35L12 35L12 34L11 34L11 35L12 35L12 36L11 36L11 37L12 37L12 40L11 40L11 38L10 38L10 40L9 40L9 39L6 39L6 40L7 40L7 41L6 41L6 42L7 42L7 43L5 43L5 44L7 44L7 43L8 43L8 42L9 42L9 43L10 43L10 46L11 46L11 45L12 45L12 47L13 47L13 48L12 48L12 49L10 49L10 52L9 52L9 51L8 51L8 52L7 52L7 51L6 51L6 50L8 50L8 48L7 48L7 49L6 49L6 50L5 50L5 51L6 51L6 52L5 52L5 53L6 53L6 54L5 54L5 56L8 56L8 55L6 55L6 54L7 54L7 53L8 53L8 54L11 54L11 56L12 56L12 55L13 55L13 57L10 57L10 59L11 59L11 58L13 58L13 57L14 57L14 56L15 56L15 55L14 55L14 53L15 53L15 54L17 54L17 55L16 55L16 57L15 57L15 58L16 58L16 57L17 57L17 55L18 55L18 54L17 54L17 51L18 51L18 49L21 49L21 51L22 51L22 52L19 52L19 53L20 53L20 54L21 54L21 55L22 55L22 54L23 54L23 56L25 56L25 57L27 57L27 58L28 58L28 60L26 60L26 58L25 58L25 60L24 60L24 59L23 59L23 58L24 58L24 57L22 57L22 56L20 56L20 55L19 55L19 56L20 56L20 60L19 60L19 58L18 58L18 59L17 59L17 60L19 60L19 61L20 61L20 62L19 62L19 63L20 63L20 62L21 62L21 61L23 61L23 62L24 62L24 61L25 61L25 62L27 62L27 61L28 61L28 62L29 62L29 63L30 63L30 62L29 62L29 61L28 61L28 60L30 60L30 59L31 59L31 60L32 60L32 59L33 59L33 57L34 57L34 58L36 58L36 59L37 59L37 60L38 60L38 59L39 59L39 57L41 57L41 56L39 56L39 54L36 54L36 52L35 52L35 50L34 50L34 49L36 49L36 50L37 50L37 49L38 49L38 51L39 51L39 53L41 53L41 51L42 51L42 52L44 52L44 53L43 53L43 54L42 54L42 55L43 55L43 56L42 56L42 57L43 57L43 60L42 60L42 61L43 61L43 60L44 60L44 61L46 61L46 62L47 62L47 63L48 63L48 64L50 64L50 67L51 67L51 65L55 65L55 66L56 66L56 67L58 67L58 68L60 68L60 67L58 67L58 66L60 66L60 65L59 65L59 64L60 64L60 63L59 63L59 64L58 64L58 66L56 66L56 65L57 65L57 63L56 63L56 61L57 61L57 62L59 62L59 61L60 61L60 60L61 60L61 58L62 58L62 59L63 59L63 60L64 60L64 59L65 59L65 57L66 57L66 58L68 58L68 55L67 55L67 57L66 57L66 56L62 56L62 55L58 55L58 54L57 54L57 55L56 55L56 59L55 59L55 58L54 58L54 59L52 59L52 58L51 58L51 57L50 57L50 54L51 54L51 55L52 55L52 54L53 54L53 51L52 51L52 50L53 50L53 48L52 48L52 47L50 47L50 46L51 46L51 45L50 45L50 44L49 44L49 41L50 41L50 40L51 40L51 41L52 41L52 42L53 42L53 41L55 41L55 40L56 40L56 41L57 41L57 40L58 40L58 39L59 39L59 37L60 37L60 34L59 34L59 32L58 32L58 31L60 31L60 30L59 30L59 29L62 29L62 30L61 30L61 31L63 31L63 32L64 32L64 31L67 31L67 32L66 32L66 33L65 33L65 34L66 34L66 33L67 33L67 34L68 34L68 31L67 31L67 28L66 28L66 29L65 29L65 30L63 30L63 29L62 29L62 27L61 27L61 26L60 26L60 27L59 27L59 29L58 29L58 27L57 27L57 26L59 26L59 24L58 24L58 23L56 23L56 22L59 22L59 23L60 23L60 22L59 22L59 21L60 21L60 19L59 19L59 17L61 17L61 16L62 16L62 18L63 18L63 17L66 17L66 16L65 16L65 15L64 15L64 14L63 14L63 12L64 12L64 13L65 13L65 14L67 14L67 13L68 13L68 11L67 11L67 10L66 10L66 11L67 11L67 13L66 13L66 12L64 12L64 11L63 11L63 12L62 12L62 14L63 14L63 15L64 15L64 16L62 16L62 15L61 15L61 14L60 14L60 13L61 13L61 12L60 12L60 11L62 11L62 10L59 10L59 9L61 9L61 8L59 8L59 7L58 7L58 6L57 6L57 7L56 7L56 5L55 5L55 7L54 7L54 6L53 6L53 5L52 5L52 6L51 6L51 4L50 4L50 5L49 5L49 9L50 9L50 11L51 11L51 13L50 13L50 15L49 15L49 14L47 14L47 13L46 13L46 12L49 12L49 10L47 10L47 7L48 7L48 6L47 6L47 7L46 7L46 6L45 6L45 7L44 7L44 5L43 5L43 7L42 7L42 6L41 6L41 5L40 5L40 6L39 6L39 9L38 9L38 6L37 6L37 9L38 9L38 11L37 11L37 10L36 10L36 9L35 9L35 10L36 10L36 11L33 11L33 10L32 10L32 11L31 11L31 12L32 12L32 13L31 13L31 14L30 14L30 13L29 13L29 12L30 12L30 11L27 11L27 10L30 10L30 9L32 9L32 8L31 8L31 7L32 7L32 5L30 5L30 4L29 4L29 3L28 3L28 2L27 2L27 3L28 3L28 4L27 4L27 5L24 5L24 6L23 6L23 5L22 5L22 4L16 4L16 3L17 3L17 2ZM9 3L9 4L10 4L10 3ZM32 3L32 4L33 4L33 3ZM60 3L60 5L61 5L61 3ZM13 4L13 5L11 5L11 6L12 6L12 7L13 7L13 5L14 5L14 7L15 7L15 5L16 5L16 4L15 4L15 5L14 5L14 4ZM18 5L18 7L19 7L19 6L20 6L20 7L21 7L21 6L22 6L22 7L23 7L23 6L22 6L22 5L21 5L21 6L20 6L20 5ZM28 5L28 7L29 7L29 6L30 6L30 7L31 7L31 6L30 6L30 5ZM33 5L33 8L36 8L36 5ZM16 6L16 8L15 8L15 9L16 9L16 10L15 10L15 12L14 12L14 13L15 13L15 12L16 12L16 10L18 10L18 11L19 11L19 10L20 10L20 8L17 8L17 6ZM24 6L24 9L23 9L23 10L24 10L24 9L25 9L25 12L24 12L24 11L20 11L20 12L17 12L17 13L18 13L18 14L17 14L17 15L18 15L18 14L20 14L20 15L19 15L19 16L20 16L20 15L21 15L21 17L22 17L22 18L26 18L26 17L25 17L25 16L26 16L26 15L25 15L25 16L23 16L23 17L22 17L22 15L23 15L23 14L27 14L27 16L28 16L28 15L29 15L29 17L31 17L31 18L29 18L29 20L30 20L30 21L29 21L29 22L28 22L28 24L30 24L30 25L29 25L29 27L28 27L28 29L27 29L27 30L28 30L28 29L31 29L31 30L30 30L30 31L31 31L31 32L30 32L30 33L28 33L28 34L27 34L27 35L28 35L28 36L27 36L27 37L26 37L26 36L25 36L25 35L23 35L23 37L24 37L24 38L27 38L27 37L28 37L28 36L29 36L29 37L30 37L30 38L29 38L29 39L30 39L30 38L32 38L32 41L30 41L30 40L27 40L27 41L30 41L30 42L29 42L29 44L27 44L27 45L26 45L26 43L27 43L27 42L26 42L26 43L25 43L25 44L24 44L24 43L23 43L23 42L24 42L24 41L26 41L26 39L24 39L24 41L23 41L23 42L20 42L20 41L22 41L22 40L21 40L21 39L22 39L22 38L20 38L20 37L19 37L19 36L17 36L17 38L18 38L18 39L19 39L19 40L17 40L17 41L19 41L19 44L16 44L16 43L14 43L14 44L13 44L13 43L12 43L12 42L16 42L16 41L15 41L15 39L16 39L16 38L15 38L15 37L14 37L14 38L13 38L13 39L14 39L14 40L12 40L12 42L11 42L11 40L10 40L10 41L9 41L9 40L8 40L8 41L7 41L7 42L8 42L8 41L9 41L9 42L11 42L11 43L12 43L12 45L13 45L13 47L16 47L16 48L15 48L15 49L18 49L18 48L17 48L17 47L18 47L18 46L20 46L20 45L19 45L19 44L20 44L20 43L21 43L21 44L24 44L24 45L21 45L21 47L19 47L19 48L22 48L22 47L23 47L23 46L24 46L24 48L23 48L23 54L24 54L24 55L25 55L25 54L26 54L26 56L27 56L27 54L28 54L28 53L29 53L29 54L30 54L30 55L28 55L28 56L30 56L30 57L29 57L29 58L32 58L32 57L33 57L33 56L34 56L34 54L33 54L33 53L34 53L34 52L33 52L33 51L34 51L34 50L33 50L33 49L31 49L31 48L30 48L30 49L29 49L29 52L28 52L28 51L27 51L27 52L28 52L28 53L27 53L27 54L26 54L26 52L24 52L24 51L26 51L26 49L25 49L25 48L26 48L26 47L25 47L25 46L27 46L27 45L29 45L29 46L28 46L28 47L27 47L27 48L28 48L28 47L29 47L29 46L30 46L30 47L31 47L31 46L30 46L30 45L31 45L31 44L32 44L32 45L33 45L33 46L32 46L32 47L35 47L35 48L36 48L36 47L37 47L37 48L38 48L38 47L39 47L39 48L40 48L40 47L41 47L41 48L42 48L42 49L41 49L41 50L39 50L39 51L41 51L41 50L42 50L42 51L44 51L44 52L45 52L45 53L44 53L44 56L43 56L43 57L44 57L44 56L46 56L46 57L47 57L47 59L50 59L50 60L46 60L46 58L45 58L45 59L44 59L44 60L46 60L46 61L47 61L47 62L50 62L50 60L51 60L51 58L48 58L48 57L49 57L49 56L46 56L46 54L45 54L45 53L49 53L49 54L47 54L47 55L49 55L49 54L50 54L50 53L49 53L49 52L47 52L47 51L50 51L50 52L52 52L52 51L51 51L51 50L49 50L49 49L50 49L50 47L47 47L47 46L50 46L50 45L49 45L49 44L48 44L48 42L46 42L46 43L47 43L47 44L46 44L46 45L47 45L47 46L46 46L46 47L45 47L45 49L44 49L44 44L45 44L45 42L44 42L44 40L41 40L41 39L38 39L38 38L36 38L36 39L35 39L35 38L34 38L34 37L38 37L38 36L37 36L37 34L38 34L38 33L39 33L39 32L43 32L43 33L40 33L40 35L41 35L41 34L43 34L43 33L44 33L44 36L42 36L42 37L40 37L40 38L42 38L42 39L45 39L45 40L47 40L47 41L49 41L49 40L50 40L50 39L49 39L49 38L50 38L50 37L51 37L51 36L45 36L45 33L44 33L44 32L46 32L46 33L49 33L49 35L50 35L50 33L49 33L49 30L50 30L50 29L51 29L51 30L53 30L53 32L54 32L54 31L55 31L55 33L53 33L53 34L54 34L54 35L55 35L55 37L52 37L52 38L55 38L55 39L54 39L54 40L55 40L55 39L56 39L56 35L55 35L55 33L56 33L56 32L57 32L57 31L58 31L58 30L56 30L56 26L57 26L57 25L56 25L56 23L55 23L55 24L54 24L54 23L53 23L53 22L56 22L56 20L57 20L57 21L59 21L59 19L58 19L58 18L57 18L57 17L56 17L56 16L57 16L57 15L58 15L58 16L61 16L61 15L60 15L60 14L59 14L59 15L58 15L58 14L57 14L57 13L56 13L56 12L58 12L58 11L59 11L59 10L57 10L57 9L58 9L58 8L57 8L57 9L56 9L56 7L55 7L55 8L54 8L54 9L53 9L53 10L54 10L54 13L52 13L52 14L53 14L53 15L52 15L52 16L53 16L53 15L54 15L54 14L55 14L55 13L56 13L56 14L57 14L57 15L56 15L56 16L55 16L55 17L51 17L51 15L50 15L50 17L49 17L49 16L45 16L45 15L44 15L44 16L42 16L42 17L41 17L41 18L39 18L39 19L38 19L38 17L39 17L39 16L40 16L40 15L42 15L42 14L43 14L43 13L44 13L44 11L43 11L43 13L42 13L42 14L41 14L41 12L42 12L42 10L45 10L45 9L46 9L46 7L45 7L45 9L44 9L44 8L43 8L43 9L41 9L41 10L40 10L40 11L39 11L39 12L40 12L40 13L39 13L39 14L38 14L38 12L37 12L37 13L36 13L36 12L33 12L33 14L34 14L34 13L35 13L35 15L37 15L37 18L36 18L36 17L35 17L35 19L37 19L37 20L32 20L32 19L33 19L33 18L34 18L34 17L33 17L33 16L34 16L34 15L33 15L33 16L32 16L32 15L31 15L31 16L30 16L30 15L29 15L29 14L27 14L27 13L25 13L25 12L26 12L26 8L27 8L27 6L26 6L26 7L25 7L25 6ZM34 6L34 7L35 7L35 6ZM40 6L40 8L41 8L41 6ZM50 6L50 8L51 8L51 6ZM52 6L52 7L53 7L53 6ZM13 8L13 9L12 9L12 10L11 10L11 11L10 11L10 12L9 12L9 13L10 13L10 12L12 12L12 10L13 10L13 9L14 9L14 8ZM16 8L16 9L17 9L17 8ZM21 8L21 9L22 9L22 8ZM29 8L29 9L30 9L30 8ZM55 9L55 12L56 12L56 9ZM40 11L40 12L41 12L41 11ZM20 12L20 14L21 14L21 15L22 15L22 14L23 14L23 13L24 13L24 12ZM59 12L59 13L60 13L60 12ZM21 13L21 14L22 14L22 13ZM4 14L4 15L5 15L5 14ZM37 14L37 15L38 15L38 16L39 16L39 15L40 15L40 14L39 14L39 15L38 15L38 14ZM9 16L9 17L8 17L8 18L9 18L9 20L6 20L6 21L7 21L7 22L9 22L9 23L8 23L8 26L9 26L9 24L11 24L11 22L12 22L12 21L11 21L11 20L10 20L10 19L12 19L12 18L14 18L14 20L15 20L15 17L14 17L14 16L13 16L13 17L12 17L12 16L11 16L11 17L10 17L10 16ZM31 16L31 17L32 17L32 16ZM44 16L44 17L43 17L43 20L42 20L42 21L43 21L43 20L44 20L44 22L43 22L43 24L44 24L44 25L43 25L43 26L46 26L46 27L45 27L45 28L44 28L44 30L46 30L46 32L47 32L47 28L49 28L49 27L48 27L48 26L52 26L52 25L53 25L53 26L54 26L54 27L50 27L50 28L51 28L51 29L54 29L54 28L55 28L55 26L54 26L54 24L51 24L51 23L50 23L50 22L53 22L53 21L55 21L55 20L56 20L56 19L57 19L57 18L56 18L56 17L55 17L55 19L54 19L54 18L53 18L53 20L52 20L52 19L51 19L51 17L50 17L50 18L49 18L49 17L48 17L48 18L49 18L49 19L50 19L50 20L49 20L49 21L50 21L50 22L48 22L48 24L47 24L47 21L46 21L46 20L48 20L48 19L46 19L46 18L47 18L47 17L46 17L46 18L45 18L45 16ZM9 17L9 18L10 18L10 17ZM27 17L27 18L28 18L28 17ZM19 18L19 19L20 19L20 18ZM31 18L31 19L32 19L32 18ZM44 18L44 19L45 19L45 18ZM27 19L27 21L26 21L26 20L23 20L23 22L22 22L22 21L21 21L21 22L22 22L22 23L21 23L21 24L20 24L20 23L19 23L19 24L17 24L17 25L18 25L18 26L20 26L20 25L21 25L21 27L24 27L24 28L25 28L25 27L26 27L26 26L27 26L27 25L25 25L25 23L26 23L26 22L27 22L27 21L28 21L28 19ZM39 19L39 21L41 21L41 19ZM31 20L31 21L30 21L30 22L29 22L29 23L30 23L30 22L31 22L31 23L32 23L32 24L31 24L31 27L33 27L33 30L31 30L31 31L32 31L32 32L34 32L34 31L33 31L33 30L34 30L34 29L35 29L35 30L37 30L37 31L35 31L35 32L37 32L37 33L38 33L38 31L39 31L39 30L40 30L40 31L43 31L43 32L44 32L44 31L43 31L43 30L42 30L42 27L39 27L39 28L40 28L40 29L38 29L38 30L37 30L37 29L36 29L36 28L35 28L35 27L36 27L36 26L34 26L34 24L35 24L35 25L38 25L38 26L41 26L41 25L42 25L42 24L41 24L41 23L42 23L42 22L40 22L40 24L39 24L39 25L38 25L38 23L39 23L39 22L37 22L37 23L35 23L35 22L34 22L34 21L33 21L33 22L32 22L32 20ZM37 20L37 21L38 21L38 20ZM51 20L51 21L52 21L52 20ZM10 21L10 22L11 22L11 21ZM23 22L23 23L25 23L25 22ZM33 22L33 23L34 23L34 22ZM44 22L44 23L45 23L45 24L46 24L46 25L47 25L47 26L48 26L48 25L49 25L49 24L48 24L48 25L47 25L47 24L46 24L46 22ZM12 23L12 24L14 24L14 23ZM67 23L67 24L68 24L68 23ZM21 24L21 25L22 25L22 26L24 26L24 25L22 25L22 24ZM50 24L50 25L51 25L51 24ZM1 25L1 26L2 26L2 25ZM11 25L11 26L10 26L10 27L12 27L12 28L13 28L13 27L12 27L12 26L13 26L13 25ZM29 27L29 28L30 28L30 27ZM37 27L37 28L38 28L38 27ZM60 27L60 28L61 28L61 27ZM0 28L0 29L1 29L1 28ZM31 28L31 29L32 29L32 28ZM3 29L3 30L5 30L5 29ZM48 29L48 30L49 30L49 29ZM50 31L50 32L51 32L51 31ZM5 33L5 36L8 36L8 33ZM30 33L30 34L29 34L29 35L30 35L30 34L32 34L32 33ZM33 33L33 36L36 36L36 33ZM51 33L51 35L52 35L52 33ZM61 33L61 36L64 36L64 33ZM6 34L6 35L7 35L7 34ZM9 34L9 35L10 35L10 34ZM19 34L19 35L20 35L20 34ZM34 34L34 35L35 35L35 34ZM62 34L62 35L63 35L63 34ZM57 35L57 36L59 36L59 35ZM67 35L67 36L68 36L68 35ZM9 36L9 37L6 37L6 38L9 38L9 37L10 37L10 36ZM12 36L12 37L13 37L13 36ZM24 36L24 37L25 37L25 36ZM44 36L44 37L45 37L45 38L47 38L47 40L49 40L49 39L48 39L48 38L49 38L49 37L48 37L48 38L47 38L47 37L45 37L45 36ZM65 36L65 37L64 37L64 38L63 38L63 37L62 37L62 39L65 39L65 37L66 37L66 36ZM1 37L1 39L2 39L2 40L4 40L4 41L2 41L2 43L3 43L3 42L5 42L5 37L3 37L3 38L2 38L2 37ZM3 38L3 39L4 39L4 38ZM19 38L19 39L20 39L20 38ZM34 39L34 40L33 40L33 42L35 42L35 43L36 43L36 40L35 40L35 39ZM37 39L37 41L38 41L38 42L37 42L37 43L38 43L38 42L39 42L39 43L40 43L40 44L39 44L39 45L38 45L38 44L37 44L37 45L38 45L38 46L39 46L39 47L40 47L40 46L39 46L39 45L40 45L40 44L41 44L41 43L40 43L40 41L41 41L41 40L39 40L39 41L38 41L38 39ZM51 39L51 40L52 40L52 39ZM19 40L19 41L20 41L20 40ZM59 41L59 42L60 42L60 41ZM31 42L31 43L30 43L30 44L31 44L31 43L32 43L32 44L33 44L33 45L35 45L35 47L36 47L36 44L33 44L33 43L32 43L32 42ZM43 42L43 44L44 44L44 42ZM64 43L64 44L65 44L65 45L63 45L63 44L62 44L62 45L63 45L63 46L62 46L62 47L64 47L64 46L65 46L65 47L66 47L66 44L65 44L65 43ZM15 44L15 46L18 46L18 45L16 45L16 44ZM41 45L41 46L42 46L42 48L43 48L43 46L42 46L42 45ZM1 46L1 47L2 47L2 46ZM46 47L46 49L45 49L45 52L46 52L46 51L47 51L47 50L48 50L48 49L47 49L47 47ZM54 47L54 48L55 48L55 47ZM13 48L13 49L12 49L12 51L13 51L13 49L14 49L14 48ZM51 48L51 49L52 49L52 48ZM27 49L27 50L28 50L28 49ZM30 49L30 51L33 51L33 50L31 50L31 49ZM43 49L43 50L44 50L44 49ZM60 49L60 50L61 50L61 49ZM14 50L14 52L16 52L16 51L15 51L15 50ZM19 50L19 51L20 51L20 50ZM6 52L6 53L7 53L7 52ZM10 52L10 53L12 53L12 54L13 54L13 53L12 53L12 52ZM31 52L31 55L32 55L32 56L31 56L31 57L32 57L32 56L33 56L33 55L32 55L32 52ZM37 52L37 53L38 53L38 52ZM54 52L54 53L55 53L55 52ZM21 53L21 54L22 54L22 53ZM35 54L35 55L36 55L36 56L37 56L37 55L36 55L36 54ZM57 55L57 56L58 56L58 55ZM38 56L38 57L37 57L37 58L38 58L38 57L39 57L39 56ZM60 56L60 58L59 58L59 59L57 59L57 61L59 61L59 59L60 59L60 58L61 58L61 56ZM0 57L0 61L1 61L1 58L2 58L2 59L3 59L3 57ZM21 57L21 58L22 58L22 57ZM62 57L62 58L63 58L63 57ZM21 59L21 60L20 60L20 61L21 61L21 60L22 60L22 59ZM34 59L34 60L35 60L35 59ZM3 60L3 61L5 61L5 60ZM6 60L6 61L7 61L7 60ZM8 60L8 63L9 63L9 64L8 64L8 69L9 69L9 66L10 66L10 65L11 65L11 63L12 63L12 62L11 62L11 61L10 61L10 63L9 63L9 60ZM23 60L23 61L24 61L24 60ZM25 60L25 61L26 61L26 60ZM54 60L54 61L51 61L51 64L52 64L52 62L53 62L53 63L55 63L55 61L56 61L56 60ZM31 61L31 63L32 63L32 61ZM33 61L33 64L36 64L36 61ZM61 61L61 64L64 64L64 61ZM34 62L34 63L35 63L35 62ZM62 62L62 63L63 63L63 62ZM65 62L65 63L66 63L66 62ZM25 63L25 64L26 64L26 63ZM9 64L9 65L10 65L10 64ZM15 64L15 65L16 65L16 66L15 66L15 67L16 67L16 66L17 66L17 65L18 65L18 64L17 64L17 65L16 65L16 64ZM28 64L28 65L25 65L25 67L27 67L27 68L28 68L28 67L27 67L27 66L28 66L28 65L30 65L30 66L32 66L32 65L30 65L30 64ZM44 64L44 66L41 66L41 67L43 67L43 68L44 68L44 66L45 66L45 67L46 67L46 66L45 66L45 64ZM55 64L55 65L56 65L56 64ZM13 65L13 66L14 66L14 65ZM33 65L33 67L34 67L34 66L35 66L35 65ZM22 66L22 67L24 67L24 66ZM0 0L0 7L7 7L7 0ZM1 1L1 6L6 6L6 1ZM2 2L2 5L5 5L5 2ZM62 0L62 7L69 7L69 0ZM63 1L63 6L68 6L68 1ZM64 2L64 5L67 5L67 2ZM0 62L0 69L7 69L7 62ZM1 63L1 68L6 68L6 63ZM2 64L2 67L5 67L5 64Z" fill="#000000"/></g></g></svg>
