<?xml version="1.0" encoding="UTF-8"?>
<svg xmlns="http://www.w3.org/2000/svg" version="1.1" width="300" height="300" viewBox="0 0 300 300"><rect x="0" y="0" width="300" height="300" fill="#ffffff"/><g transform="scale(4.348)"><g transform="translate(0,0)"><path fill-rule="evenodd" d="M8 0L8 1L9 1L9 0ZM10 0L10 2L8 2L8 5L9 5L9 4L11 4L11 5L10 5L10 7L11 7L11 9L12 9L12 10L13 10L13 11L14 11L14 12L15 12L15 9L16 9L16 10L17 10L17 11L16 11L16 12L17 12L17 13L16 13L16 14L15 14L15 13L14 13L14 14L15 14L15 15L14 15L14 18L15 18L15 16L16 16L16 18L17 18L17 15L19 15L19 14L20 14L20 15L21 15L21 16L20 16L20 19L12 19L12 18L13 18L13 16L12 16L12 17L11 17L11 20L14 20L14 21L16 21L16 22L17 22L17 25L16 25L16 24L15 24L15 25L14 25L14 24L13 24L13 23L14 23L14 22L13 22L13 21L12 21L12 22L13 22L13 23L10 23L10 22L11 22L11 21L10 21L10 20L9 20L9 21L10 21L10 22L9 22L9 23L7 23L7 22L8 22L8 18L9 18L9 19L10 19L10 16L9 16L9 15L11 15L11 14L12 14L12 12L11 12L11 11L9 11L9 10L8 10L8 9L9 9L9 8L8 8L8 9L7 9L7 8L6 8L6 9L4 9L4 8L0 8L0 13L2 13L2 16L3 16L3 15L4 15L4 14L3 14L3 13L2 13L2 12L1 12L1 11L2 11L2 9L4 9L4 10L5 10L5 11L7 11L7 10L8 10L8 12L11 12L11 13L10 13L10 14L9 14L9 13L7 13L7 12L6 12L6 13L7 13L7 14L5 14L5 15L7 15L7 14L9 14L9 15L8 15L8 16L9 16L9 17L8 17L8 18L6 18L6 17L7 17L7 16L5 16L5 18L4 18L4 17L3 17L3 18L1 18L1 19L5 19L5 18L6 18L6 19L7 19L7 20L5 20L5 21L4 21L4 20L3 20L3 21L0 21L0 23L1 23L1 24L0 24L0 25L1 25L1 26L0 26L0 27L3 27L3 28L1 28L1 29L0 29L0 33L1 33L1 34L0 34L0 37L1 37L1 38L2 38L2 39L3 39L3 37L2 37L2 36L4 36L4 39L5 39L5 37L8 37L8 38L6 38L6 39L9 39L9 38L10 38L10 40L11 40L11 41L14 41L14 42L15 42L15 41L16 41L16 42L17 42L17 43L18 43L18 42L17 42L17 41L16 41L16 40L17 40L17 39L18 39L18 40L19 40L19 45L18 45L18 44L15 44L15 43L11 43L11 42L10 42L10 41L9 41L9 40L8 40L8 41L9 41L9 42L10 42L10 43L11 43L11 44L12 44L12 45L11 45L11 46L13 46L13 47L12 47L12 48L16 48L16 49L15 49L15 51L16 51L16 49L17 49L17 50L18 50L18 48L20 48L20 47L19 47L19 46L20 46L20 45L23 45L23 47L21 47L21 48L24 48L24 49L25 49L25 50L23 50L23 49L22 49L22 50L23 50L23 51L21 51L21 50L20 50L20 49L19 49L19 52L20 52L20 53L21 53L21 54L22 54L22 56L21 56L21 55L20 55L20 54L17 54L17 53L15 53L15 55L14 55L14 54L13 54L13 56L12 56L12 58L10 58L10 57L11 57L11 54L12 54L12 52L13 52L13 53L14 53L14 49L11 49L11 47L10 47L10 44L9 44L9 43L8 43L8 42L6 42L6 41L7 41L7 40L4 40L4 41L5 41L5 42L6 42L6 43L8 43L8 44L9 44L9 47L10 47L10 48L8 48L8 45L7 45L7 44L5 44L5 43L1 43L1 41L2 41L2 42L3 42L3 40L1 40L1 39L0 39L0 40L1 40L1 41L0 41L0 43L1 43L1 44L2 44L2 46L3 46L3 45L4 45L4 46L5 46L5 45L7 45L7 46L6 46L6 47L7 47L7 48L6 48L6 49L3 49L3 48L2 48L2 47L1 47L1 46L0 46L0 47L1 47L1 48L0 48L0 49L1 49L1 54L2 54L2 56L3 56L3 57L5 57L5 56L6 56L6 57L8 57L8 58L4 58L4 59L9 59L9 60L8 60L8 62L9 62L9 61L10 61L10 66L11 66L11 68L13 68L13 66L14 66L14 68L15 68L15 69L18 69L18 67L17 67L17 68L16 68L16 67L15 67L15 66L18 66L18 64L19 64L19 67L20 67L20 69L21 69L21 68L22 68L22 69L23 69L23 68L24 68L24 67L23 67L23 68L22 68L22 67L20 67L20 65L21 65L21 66L24 66L24 65L25 65L25 68L26 68L26 64L27 64L27 63L30 63L30 62L31 62L31 65L29 65L29 66L28 66L28 65L27 65L27 68L28 68L28 69L30 69L30 68L31 68L31 67L33 67L33 68L34 68L34 69L35 69L35 68L34 68L34 67L38 67L38 68L39 68L39 69L43 69L43 68L42 68L42 67L41 67L41 66L42 66L42 65L40 65L40 64L41 64L41 62L39 62L39 61L40 61L40 60L41 60L41 61L42 61L42 60L41 60L41 59L42 59L42 58L43 58L43 56L41 56L41 55L43 55L43 54L44 54L44 55L46 55L46 54L47 54L47 50L48 50L48 52L49 52L49 53L48 53L48 56L49 56L49 53L51 53L51 54L50 54L50 56L51 56L51 58L50 58L50 57L49 57L49 59L48 59L48 57L47 57L47 59L48 59L48 60L47 60L47 61L49 61L49 62L48 62L48 63L50 63L50 62L53 62L53 61L55 61L55 62L54 62L54 63L53 63L53 64L56 64L56 65L57 65L57 63L58 63L58 61L56 61L56 60L55 60L55 56L52 56L52 55L53 55L53 54L54 54L54 53L55 53L55 55L56 55L56 54L60 54L60 55L57 55L57 56L58 56L58 57L59 57L59 56L61 56L61 57L60 57L60 58L59 58L59 59L58 59L58 58L57 58L57 57L56 57L56 59L57 59L57 60L59 60L59 59L60 59L60 64L58 64L58 67L56 67L56 66L54 66L54 65L53 65L53 66L51 66L51 67L50 67L50 66L49 66L49 65L50 65L50 64L49 64L49 65L48 65L48 66L47 66L47 65L46 65L46 68L45 68L45 69L47 69L47 67L48 67L48 68L49 68L49 69L50 69L50 68L51 68L51 69L53 69L53 68L54 68L54 69L55 69L55 68L57 68L57 69L58 69L58 67L59 67L59 68L60 68L60 69L61 69L61 68L63 68L63 69L65 69L65 68L64 68L64 65L66 65L66 66L65 66L65 67L67 67L67 66L68 66L68 65L69 65L69 64L68 64L68 61L67 61L67 63L65 63L65 61L66 61L66 59L68 59L68 60L69 60L69 58L68 58L68 57L69 57L69 55L68 55L68 54L69 54L69 52L68 52L68 51L67 51L67 50L68 50L68 49L65 49L65 50L64 50L64 48L66 48L66 46L67 46L67 48L69 48L69 46L67 46L67 45L66 45L66 46L61 46L61 44L62 44L62 43L60 43L60 42L63 42L63 41L64 41L64 44L63 44L63 45L65 45L65 43L67 43L67 44L68 44L68 42L69 42L69 39L66 39L66 38L63 38L63 37L67 37L67 38L69 38L69 37L68 37L68 36L69 36L69 31L68 31L68 30L69 30L69 29L68 29L68 30L67 30L67 24L66 24L66 23L63 23L63 22L64 22L64 21L65 21L65 22L67 22L67 23L69 23L69 21L68 21L68 22L67 22L67 21L66 21L66 20L63 20L63 18L62 18L62 21L61 21L61 20L60 20L60 19L61 19L61 18L60 18L60 17L59 17L59 16L61 16L61 17L64 17L64 15L65 15L65 17L66 17L66 16L67 16L67 15L66 15L66 14L69 14L69 13L68 13L68 11L69 11L69 10L64 10L64 9L67 9L67 8L64 8L64 9L63 9L63 10L64 10L64 11L62 11L62 13L61 13L61 15L60 15L60 12L61 12L61 10L62 10L62 8L61 8L61 6L60 6L60 8L61 8L61 9L59 9L59 10L58 10L58 8L57 8L57 10L56 10L56 7L57 7L57 6L56 6L56 5L58 5L58 7L59 7L59 4L56 4L56 5L55 5L55 6L54 6L54 5L52 5L52 8L50 8L50 7L51 7L51 6L50 6L50 7L49 7L49 5L51 5L51 3L50 3L50 2L51 2L51 1L52 1L52 3L53 3L53 4L54 4L54 2L53 2L53 1L55 1L55 0L53 0L53 1L52 1L52 0L51 0L51 1L50 1L50 0L47 0L47 1L46 1L46 0L44 0L44 2L43 2L43 6L42 6L42 5L40 5L40 4L38 4L38 1L37 1L37 2L36 2L36 4L33 4L33 3L35 3L35 2L34 2L34 1L32 1L32 0L30 0L30 1L32 1L32 2L33 2L33 3L32 3L32 4L31 4L31 3L29 3L29 5L28 5L28 4L26 4L26 3L23 3L23 2L21 2L21 1L24 1L24 2L27 2L27 3L28 3L28 2L29 2L29 0L28 0L28 2L27 2L27 1L25 1L25 0L21 0L21 1L19 1L19 0L17 0L17 1L16 1L16 2L15 2L15 4L16 4L16 3L17 3L17 6L16 6L16 5L14 5L14 3L13 3L13 2L12 2L12 1L11 1L11 0ZM13 0L13 1L14 1L14 0ZM41 0L41 1L40 1L40 2L39 2L39 3L41 3L41 2L42 2L42 1L43 1L43 0ZM56 0L56 3L57 3L57 1L61 1L61 0ZM17 1L17 3L18 3L18 2L19 2L19 1ZM47 1L47 2L48 2L48 3L49 3L49 4L50 4L50 3L49 3L49 2L48 2L48 1ZM10 2L10 3L11 3L11 2ZM20 2L20 3L21 3L21 4L23 4L23 5L25 5L25 4L23 4L23 3L21 3L21 2ZM58 2L58 3L59 3L59 2ZM44 3L44 4L45 4L45 3ZM46 3L46 5L45 5L45 8L44 8L44 6L43 6L43 9L45 9L45 10L46 10L46 11L45 11L45 12L44 12L44 10L43 10L43 12L41 12L41 13L42 13L42 14L43 14L43 12L44 12L44 15L41 15L41 14L40 14L40 11L42 11L42 10L41 10L41 9L42 9L42 8L41 8L41 7L42 7L42 6L41 6L41 7L40 7L40 6L39 6L39 5L38 5L38 4L37 4L37 8L38 8L38 10L37 10L37 11L38 11L38 12L36 12L36 9L35 9L35 12L36 12L36 16L35 16L35 15L34 15L34 17L33 17L33 14L35 14L35 13L33 13L33 11L34 11L34 9L32 9L32 10L33 10L33 11L32 11L32 13L31 13L31 15L32 15L32 16L29 16L29 15L30 15L30 12L31 12L31 10L30 10L30 9L28 9L28 8L29 8L29 7L30 7L30 6L29 6L29 7L28 7L28 5L27 5L27 7L26 7L26 6L25 6L25 7L24 7L24 6L23 6L23 7L22 7L22 5L20 5L20 4L18 4L18 6L17 6L17 7L18 7L18 6L19 6L19 7L20 7L20 6L21 6L21 7L22 7L22 8L18 8L18 9L17 9L17 10L18 10L18 11L17 11L17 12L18 12L18 11L19 11L19 13L17 13L17 14L16 14L16 15L17 15L17 14L19 14L19 13L22 13L22 14L23 14L23 15L22 15L22 16L21 16L21 17L22 17L22 18L23 18L23 19L20 19L20 23L19 23L19 25L21 25L21 26L19 26L19 28L16 28L16 27L18 27L18 26L15 26L15 28L16 28L16 29L17 29L17 31L16 31L16 30L15 30L15 29L14 29L14 31L13 31L13 32L12 32L12 31L11 31L11 30L12 30L12 29L13 29L13 28L14 28L14 25L11 25L11 27L10 27L10 24L9 24L9 25L8 25L8 26L7 26L7 25L6 25L6 24L7 24L7 23L5 23L5 22L1 22L1 23L4 23L4 25L3 25L3 27L4 27L4 28L3 28L3 29L4 29L4 28L5 28L5 26L4 26L4 25L6 25L6 26L7 26L7 27L6 27L6 28L7 28L7 29L5 29L5 30L7 30L7 31L6 31L6 32L8 32L8 30L9 30L9 32L10 32L10 31L11 31L11 32L12 32L12 34L11 34L11 33L10 33L10 34L9 34L9 35L11 35L11 36L13 36L13 37L12 37L12 38L11 38L11 37L10 37L10 36L9 36L9 37L10 37L10 38L11 38L11 40L13 40L13 39L14 39L14 35L17 35L17 36L15 36L15 37L16 37L16 39L17 39L17 38L18 38L18 39L21 39L21 40L20 40L20 42L21 42L21 44L24 44L24 45L25 45L25 46L24 46L24 47L25 47L25 49L27 49L27 50L31 50L31 49L32 49L32 48L33 48L33 52L29 52L29 51L28 51L28 52L27 52L27 53L25 53L25 52L26 52L26 51L25 51L25 52L24 52L24 51L23 51L23 52L22 52L22 53L23 53L23 52L24 52L24 55L23 55L23 56L22 56L22 59L23 59L23 60L21 60L21 59L20 59L20 61L21 61L21 62L20 62L20 64L22 64L22 65L23 65L23 64L26 64L26 61L28 61L28 62L29 62L29 60L30 60L30 59L31 59L31 60L32 60L32 57L33 57L33 56L37 56L37 57L36 57L36 58L35 58L35 57L34 57L34 58L33 58L33 60L34 60L34 58L35 58L35 59L36 59L36 60L38 60L38 61L39 61L39 60L40 60L40 58L39 58L39 57L38 57L38 55L39 55L39 56L40 56L40 55L39 55L39 54L41 54L41 52L42 52L42 51L43 51L43 52L44 52L44 50L45 50L45 48L46 48L46 50L47 50L47 48L46 48L46 47L47 47L47 45L45 45L45 44L44 44L44 42L45 42L45 43L46 43L46 44L48 44L48 45L50 45L50 47L48 47L48 48L49 48L49 49L48 49L48 50L49 50L49 49L50 49L50 47L51 47L51 49L53 49L53 50L54 50L54 51L53 51L53 52L52 52L52 53L53 53L53 52L56 52L56 51L57 51L57 53L59 53L59 51L58 51L58 50L60 50L60 48L59 48L59 49L58 49L58 48L57 48L57 46L58 46L58 47L59 47L59 46L60 46L60 47L61 47L61 48L64 48L64 47L61 47L61 46L60 46L60 44L59 44L59 45L57 45L57 44L56 44L56 43L57 43L57 42L56 42L56 41L55 41L55 40L53 40L53 39L55 39L55 35L56 35L56 33L57 33L57 34L58 34L58 35L57 35L57 36L56 36L56 37L57 37L57 36L60 36L60 34L59 34L59 32L60 32L60 31L58 31L58 32L57 32L57 29L56 29L56 33L55 33L55 34L53 34L53 35L50 35L50 34L51 34L51 32L53 32L53 33L54 33L54 32L55 32L55 31L53 31L53 30L51 30L51 28L50 28L50 27L52 27L52 29L54 29L54 30L55 30L55 28L57 28L57 27L59 27L59 28L58 28L58 29L60 29L60 30L61 30L61 31L62 31L62 32L63 32L63 31L65 31L65 32L67 32L67 33L65 33L65 34L66 34L66 36L67 36L67 34L68 34L68 32L67 32L67 30L66 30L66 29L65 29L65 28L64 28L64 27L63 27L63 26L65 26L65 27L66 27L66 25L65 25L65 24L63 24L63 23L59 23L59 24L58 24L58 23L56 23L56 22L53 22L53 23L54 23L54 24L51 24L51 23L52 23L52 20L51 20L51 19L52 19L52 18L53 18L53 17L54 17L54 18L55 18L55 19L56 19L56 21L57 21L57 22L59 22L59 21L60 21L60 20L59 20L59 21L58 21L58 19L59 19L59 18L57 18L57 17L55 17L55 16L53 16L53 15L52 15L52 17L50 17L50 16L51 16L51 15L50 15L50 16L49 16L49 15L48 15L48 14L49 14L49 13L50 13L50 11L51 11L51 9L50 9L50 10L49 10L49 13L47 13L47 12L48 12L48 11L47 11L47 9L46 9L46 8L48 8L48 9L49 9L49 7L48 7L48 5L47 5L47 3ZM60 3L60 5L61 5L61 3ZM13 5L13 7L12 7L12 6L11 6L11 7L12 7L12 8L13 8L13 7L14 7L14 5ZM33 5L33 8L36 8L36 5ZM46 5L46 7L47 7L47 5ZM8 6L8 7L9 7L9 6ZM15 6L15 7L16 7L16 6ZM31 6L31 8L32 8L32 6ZM34 6L34 7L35 7L35 6ZM38 6L38 7L39 7L39 6ZM53 6L53 9L55 9L55 7L56 7L56 6L55 6L55 7L54 7L54 6ZM27 7L27 8L28 8L28 7ZM14 8L14 9L13 9L13 10L14 10L14 9L15 9L15 8ZM22 8L22 9L23 9L23 11L22 11L22 10L21 10L21 11L20 11L20 9L19 9L19 11L20 11L20 12L24 12L24 13L26 13L26 12L27 12L27 10L26 10L26 9L25 9L25 10L24 10L24 9L23 9L23 8ZM39 8L39 9L41 9L41 8ZM68 8L68 9L69 9L69 8ZM6 9L6 10L7 10L7 9ZM25 10L25 11L26 11L26 10ZM38 10L38 11L40 11L40 10ZM52 10L52 11L53 11L53 12L51 12L51 14L52 14L52 13L53 13L53 14L55 14L55 15L56 15L56 16L57 16L57 15L56 15L56 14L55 14L55 13L53 13L53 12L56 12L56 13L58 13L58 14L59 14L59 12L60 12L60 11L59 11L59 12L56 12L56 11L53 11L53 10ZM3 11L3 12L4 12L4 13L5 13L5 12L4 12L4 11ZM28 11L28 12L29 12L29 11ZM64 11L64 12L63 12L63 14L62 14L62 15L61 15L61 16L62 16L62 15L63 15L63 14L65 14L65 13L66 13L66 12L67 12L67 11L66 11L66 12L65 12L65 11ZM38 12L38 13L37 13L37 14L38 14L38 15L37 15L37 17L35 17L35 18L34 18L34 19L33 19L33 17L32 17L32 19L31 19L31 18L30 18L30 17L28 17L28 16L26 16L26 14L24 14L24 15L25 15L25 16L26 16L26 17L28 17L28 18L30 18L30 20L31 20L31 24L30 24L30 21L29 21L29 20L27 20L27 21L29 21L29 22L25 22L25 21L24 21L24 20L26 20L26 18L24 18L24 16L23 16L23 18L24 18L24 19L23 19L23 20L21 20L21 23L23 23L23 24L22 24L22 25L23 25L23 26L22 26L22 27L21 27L21 28L19 28L19 29L18 29L18 31L19 31L19 32L20 32L20 30L19 30L19 29L21 29L21 31L22 31L22 34L19 34L19 33L17 33L17 34L18 34L18 35L19 35L19 36L17 36L17 37L19 37L19 38L21 38L21 37L19 37L19 36L20 36L20 35L23 35L23 36L24 36L24 37L26 37L26 36L27 36L27 38L26 38L26 40L25 40L25 41L24 41L24 39L25 39L25 38L24 38L24 39L23 39L23 37L22 37L22 39L23 39L23 41L21 41L21 42L25 42L25 43L24 43L24 44L28 44L28 45L29 45L29 46L28 46L28 47L27 47L27 46L26 46L26 47L27 47L27 48L29 48L29 49L31 49L31 48L32 48L32 47L30 47L30 48L29 48L29 46L30 46L30 44L31 44L31 45L33 45L33 46L34 46L34 47L35 47L35 48L38 48L38 49L36 49L36 50L37 50L37 51L35 51L35 50L34 50L34 51L35 51L35 52L36 52L36 53L37 53L37 52L39 52L39 53L38 53L38 54L39 54L39 53L40 53L40 52L41 52L41 51L38 51L38 50L40 50L40 49L39 49L39 47L40 47L40 48L42 48L42 49L44 49L44 48L43 48L43 47L44 47L44 46L45 46L45 45L42 45L42 44L41 44L41 45L40 45L40 44L39 44L39 47L38 47L38 46L37 46L37 45L35 45L35 44L31 44L31 43L30 43L30 44L28 44L28 42L29 42L29 39L32 39L32 41L31 41L31 40L30 40L30 41L31 41L31 42L34 42L34 40L35 40L35 43L36 43L36 40L38 40L38 39L36 39L36 38L37 38L37 37L38 37L38 38L39 38L39 37L38 37L38 33L37 33L37 30L34 30L34 28L33 28L33 27L35 27L35 29L36 29L36 28L37 28L37 27L35 27L35 25L37 25L37 26L40 26L40 25L39 25L39 24L38 24L38 25L37 25L37 24L36 24L36 23L35 23L35 22L38 22L38 23L39 23L39 20L40 20L40 22L44 22L44 21L42 21L42 20L41 20L41 19L43 19L43 18L44 18L44 20L45 20L45 21L46 21L46 19L47 19L47 21L48 21L48 22L47 22L47 23L46 23L46 25L44 25L44 23L43 23L43 24L42 24L42 23L41 23L41 24L42 24L42 25L44 25L44 28L43 28L43 27L42 27L42 26L41 26L41 27L42 27L42 28L41 28L41 29L39 29L39 31L40 31L40 32L39 32L39 33L40 33L40 34L39 34L39 35L41 35L41 37L40 37L40 38L41 38L41 39L39 39L39 42L38 42L38 43L37 43L37 44L38 44L38 43L39 43L39 42L40 42L40 43L43 43L43 42L42 42L42 41L41 41L41 42L40 42L40 40L41 40L41 39L42 39L42 38L41 38L41 37L42 37L42 35L43 35L43 38L44 38L44 39L45 39L45 40L43 40L43 41L45 41L45 42L46 42L46 43L47 43L47 41L46 41L46 40L47 40L47 39L49 39L49 38L48 38L48 37L50 37L50 40L49 40L49 41L48 41L48 44L51 44L51 46L53 46L53 47L54 47L54 48L53 48L53 49L55 49L55 51L56 51L56 50L58 50L58 49L56 49L56 48L55 48L55 44L54 44L54 41L53 41L53 42L50 42L50 43L49 43L49 41L52 41L52 40L51 40L51 36L50 36L50 35L46 35L46 34L45 34L45 33L46 33L46 32L45 32L45 33L44 33L44 34L45 34L45 35L43 35L43 32L42 32L42 33L41 33L41 31L40 31L40 30L41 30L41 29L42 29L42 28L43 28L43 30L44 30L44 31L46 31L46 30L47 30L47 31L49 31L49 34L50 34L50 30L49 30L49 29L46 29L46 28L45 28L45 26L46 26L46 27L47 27L47 26L46 26L46 25L47 25L47 24L48 24L48 26L49 26L49 27L50 27L50 26L51 26L51 25L49 25L49 23L51 23L51 22L50 22L50 21L48 21L48 19L49 19L49 18L48 18L48 17L46 17L46 15L47 15L47 14L46 14L46 12L45 12L45 15L44 15L44 16L43 16L43 18L42 18L42 16L41 16L41 17L40 17L40 14L39 14L39 12ZM27 13L27 15L29 15L29 14L28 14L28 13ZM32 13L32 14L33 14L33 13ZM0 14L0 16L1 16L1 14ZM38 15L38 16L39 16L39 15ZM68 15L68 18L67 18L67 20L69 20L69 19L68 19L68 18L69 18L69 15ZM18 16L18 17L19 17L19 16ZM37 17L37 18L38 18L38 20L39 20L39 17ZM44 17L44 18L45 18L45 19L46 19L46 17ZM35 18L35 19L34 19L34 20L36 20L36 21L37 21L37 19L36 19L36 18ZM50 18L50 19L51 19L51 18ZM18 20L18 21L17 21L17 22L18 22L18 21L19 21L19 20ZM32 20L32 24L31 24L31 25L30 25L30 24L29 24L29 23L28 23L28 24L27 24L27 23L26 23L26 25L24 25L24 27L23 27L23 28L22 28L22 29L24 29L24 30L25 30L25 29L24 29L24 27L25 27L25 26L27 26L27 25L28 25L28 27L30 27L30 28L27 28L27 27L26 27L26 28L27 28L27 29L26 29L26 30L27 30L27 29L29 29L29 31L30 31L30 29L31 29L31 31L33 31L33 30L32 30L32 29L33 29L33 28L31 28L31 25L32 25L32 24L33 24L33 20ZM54 20L54 21L55 21L55 20ZM6 21L6 22L7 22L7 21ZM22 21L22 22L23 22L23 23L25 23L25 22L23 22L23 21ZM34 21L34 22L35 22L35 21ZM62 21L62 22L63 22L63 21ZM48 22L48 23L49 23L49 22ZM55 23L55 24L54 24L54 25L56 25L56 23ZM1 24L1 25L2 25L2 24ZM28 24L28 25L29 25L29 24ZM34 24L34 25L35 25L35 24ZM57 24L57 26L55 26L55 27L54 27L54 26L53 26L53 28L55 28L55 27L57 27L57 26L58 26L58 24ZM59 24L59 25L61 25L61 29L62 29L62 26L63 26L63 25L61 25L61 24ZM68 24L68 25L69 25L69 24ZM12 26L12 27L13 27L13 26ZM32 26L32 27L33 27L33 26ZM8 27L8 29L7 29L7 30L8 30L8 29L11 29L11 28L10 28L10 27ZM38 27L38 28L39 28L39 27ZM68 27L68 28L69 28L69 27ZM63 28L63 30L64 30L64 28ZM1 29L1 30L2 30L2 31L1 31L1 33L2 33L2 34L1 34L1 35L3 35L3 34L4 34L4 33L3 33L3 32L5 32L5 31L3 31L3 30L2 30L2 29ZM44 29L44 30L45 30L45 29ZM22 30L22 31L23 31L23 30ZM15 31L15 33L14 33L14 32L13 32L13 34L12 34L12 35L14 35L14 34L16 34L16 31ZM25 31L25 35L24 35L24 34L23 34L23 35L24 35L24 36L25 36L25 35L28 35L28 39L29 39L29 35L30 35L30 36L31 36L31 37L30 37L30 38L33 38L33 39L34 39L34 38L36 38L36 37L32 37L32 36L31 36L31 35L32 35L32 33L31 33L31 32L30 32L30 33L31 33L31 34L29 34L29 35L28 35L28 31ZM35 31L35 32L36 32L36 31ZM26 32L26 33L27 33L27 32ZM47 32L47 33L48 33L48 32ZM5 33L5 36L8 36L8 33ZM33 33L33 36L36 36L36 33ZM61 33L61 36L64 36L64 33ZM6 34L6 35L7 35L7 34ZM34 34L34 35L35 35L35 34ZM62 34L62 35L63 35L63 34ZM53 35L53 37L52 37L52 38L53 38L53 37L54 37L54 35ZM44 36L44 38L45 38L45 39L47 39L47 37L48 37L48 36L47 36L47 37L46 37L46 38L45 38L45 36ZM58 37L58 38L59 38L59 37ZM60 37L60 40L61 40L61 41L62 41L62 39L63 39L63 38L61 38L61 37ZM56 38L56 39L57 39L57 41L59 41L59 42L58 42L58 43L59 43L59 42L60 42L60 41L59 41L59 39L57 39L57 38ZM14 40L14 41L15 41L15 40ZM27 40L27 41L26 41L26 42L27 42L27 41L28 41L28 40ZM65 40L65 41L67 41L67 40ZM52 43L52 44L53 44L53 43ZM4 44L4 45L5 45L5 44ZM13 45L13 46L14 46L14 47L15 47L15 46L17 46L17 47L16 47L16 48L18 48L18 46L17 46L17 45L15 45L15 46L14 46L14 45ZM41 45L41 47L42 47L42 45ZM56 45L56 46L57 46L57 45ZM36 46L36 47L37 47L37 46ZM4 47L4 48L5 48L5 47ZM2 49L2 51L3 51L3 52L2 52L2 54L3 54L3 55L4 55L4 56L5 56L5 55L6 55L6 56L8 56L8 57L9 57L9 56L10 56L10 55L9 55L9 52L10 52L10 51L11 51L11 52L12 52L12 51L13 51L13 50L11 50L11 49L8 49L8 50L7 50L7 49L6 49L6 50L7 50L7 51L5 51L5 50L4 50L4 51L3 51L3 49ZM61 49L61 53L62 53L62 55L63 55L63 56L62 56L62 57L61 57L61 58L62 58L62 57L63 57L63 60L65 60L65 59L64 59L64 58L65 58L65 57L66 57L66 58L67 58L67 55L65 55L65 54L63 54L63 53L66 53L66 54L68 54L68 52L65 52L65 51L66 51L66 50L65 50L65 51L64 51L64 52L62 52L62 51L63 51L63 49ZM8 50L8 51L7 51L7 52L5 52L5 53L4 53L4 52L3 52L3 53L4 53L4 55L5 55L5 53L8 53L8 51L9 51L9 50ZM50 50L50 51L49 51L49 52L51 52L51 51L52 51L52 50ZM17 51L17 52L18 52L18 51ZM45 51L45 53L46 53L46 51ZM28 52L28 53L27 53L27 56L28 56L28 55L29 55L29 54L30 54L30 55L31 55L31 57L29 57L29 59L28 59L28 60L29 60L29 59L30 59L30 58L31 58L31 57L32 57L32 56L33 56L33 55L37 55L37 54L35 54L35 53L31 53L31 54L30 54L30 53L29 53L29 52ZM42 53L42 54L43 54L43 53ZM6 54L6 55L8 55L8 54ZM31 54L31 55L32 55L32 54ZM51 54L51 55L52 55L52 54ZM0 55L0 56L1 56L1 55ZM15 55L15 56L13 56L13 58L12 58L12 59L10 59L10 58L9 58L9 59L10 59L10 61L11 61L11 60L13 60L13 59L14 59L14 58L15 58L15 59L16 59L16 62L17 62L17 63L19 63L19 62L17 62L17 60L18 60L18 59L16 59L16 56L18 56L18 57L20 57L20 58L21 58L21 56L19 56L19 55ZM64 55L64 56L65 56L65 55ZM23 56L23 57L24 57L24 58L25 58L25 59L26 59L26 60L25 60L25 61L26 61L26 60L27 60L27 58L25 58L25 57L24 57L24 56ZM45 56L45 57L46 57L46 56ZM0 57L0 61L1 61L1 57ZM37 57L37 58L36 58L36 59L39 59L39 58L38 58L38 57ZM52 57L52 58L51 58L51 59L52 59L52 61L53 61L53 59L54 59L54 58L53 58L53 57ZM2 58L2 59L3 59L3 58ZM44 58L44 59L43 59L43 63L44 63L44 64L43 64L43 65L45 65L45 63L46 63L46 61L44 61L44 59L45 59L45 58ZM52 58L52 59L53 59L53 58ZM61 59L61 60L62 60L62 59ZM3 60L3 61L5 61L5 60ZM6 60L6 61L7 61L7 60ZM14 60L14 61L12 61L12 63L11 63L11 66L13 66L13 64L15 64L15 65L14 65L14 66L15 66L15 65L17 65L17 64L16 64L16 63L15 63L15 62L14 62L14 61L15 61L15 60ZM49 60L49 61L51 61L51 60ZM31 61L31 62L32 62L32 61ZM33 61L33 64L36 64L36 61ZM61 61L61 64L64 64L64 61ZM13 62L13 63L14 63L14 62ZM22 62L22 63L23 63L23 62ZM24 62L24 63L25 63L25 62ZM34 62L34 63L35 63L35 62ZM38 62L38 63L37 63L37 64L38 64L38 63L39 63L39 62ZM62 62L62 63L63 63L63 62ZM51 64L51 65L52 65L52 64ZM67 64L67 65L68 65L68 64ZM8 65L8 69L10 69L10 68L9 68L9 65ZM33 65L33 67L34 67L34 65ZM36 65L36 66L37 66L37 65ZM38 65L38 66L39 66L39 67L40 67L40 68L41 68L41 67L40 67L40 66L39 66L39 65ZM59 65L59 66L61 66L61 65ZM62 65L62 66L63 66L63 65ZM44 66L44 67L45 67L45 66ZM53 66L53 67L51 67L51 68L53 68L53 67L54 67L54 66ZM29 67L29 68L30 68L30 67ZM60 67L60 68L61 68L61 67ZM68 67L68 68L69 68L69 67ZM66 68L66 69L67 69L67 68ZM0 0L0 7L7 7L7 0ZM1 1L1 6L6 6L6 1ZM2 2L2 5L5 5L5 2ZM62 0L62 7L69 7L69 0ZM63 1L63 6L68 6L68 1ZM64 2L64 5L67 5L67 2ZM0 62L0 69L7 69L7 62ZM1 63L1 68L6 68L6 63ZM2 64L2 67L5 67L5 64Z" fill="#000000"/></g></g></svg>
