<?xml version="1.0" encoding="UTF-8"?>
<svg xmlns="http://www.w3.org/2000/svg" version="1.1" width="300" height="300" viewBox="0 0 300 300"><rect x="0" y="0" width="300" height="300" fill="#ffffff"/><g transform="scale(4.615)"><g transform="translate(0,0)"><path fill-rule="evenodd" d="M8 0L8 1L9 1L9 2L8 2L8 5L9 5L9 6L8 6L8 7L9 7L9 6L10 6L10 8L8 8L8 9L10 9L10 10L12 10L12 12L11 12L11 11L10 11L10 12L9 12L9 13L10 13L10 14L11 14L11 13L13 13L13 15L9 15L9 14L8 14L8 11L9 11L9 10L8 10L8 11L7 11L7 10L6 10L6 9L7 9L7 8L6 8L6 9L4 9L4 8L0 8L0 13L1 13L1 14L0 14L0 15L1 15L1 16L0 16L0 18L2 18L2 19L1 19L1 20L0 20L0 22L1 22L1 23L2 23L2 24L3 24L3 25L2 25L2 26L1 26L1 27L0 27L0 33L1 33L1 34L2 34L2 35L1 35L1 36L0 36L0 39L1 39L1 40L0 40L0 44L1 44L1 45L0 45L0 46L1 46L1 47L0 47L0 48L1 48L1 49L0 49L0 50L1 50L1 49L3 49L3 50L4 50L4 51L3 51L3 53L1 53L1 51L0 51L0 53L1 53L1 54L2 54L2 55L3 55L3 56L1 56L1 55L0 55L0 56L1 56L1 57L3 57L3 56L4 56L4 57L5 57L5 56L4 56L4 52L5 52L5 51L7 51L7 52L6 52L6 53L5 53L5 55L7 55L7 56L6 56L6 57L7 57L7 56L8 56L8 58L9 58L9 59L11 59L11 60L12 60L12 63L10 63L10 61L8 61L8 65L9 65L9 64L10 64L10 65L11 65L11 64L12 64L12 65L17 65L17 64L19 64L19 65L20 65L20 64L19 64L19 62L18 62L18 61L20 61L20 62L21 62L21 63L24 63L24 64L23 64L23 65L30 65L30 63L29 63L29 62L27 62L27 63L26 63L26 62L25 62L25 63L24 63L24 61L26 61L26 60L27 60L27 59L22 59L22 58L20 58L20 57L18 57L18 55L17 55L17 51L19 51L19 50L21 50L21 53L22 53L22 54L23 54L23 55L24 55L24 56L21 56L21 57L23 57L23 58L25 58L25 57L24 57L24 56L27 56L27 55L29 55L29 56L30 56L30 57L29 57L29 58L28 58L28 61L29 61L29 59L30 59L30 62L33 62L33 63L35 63L35 64L34 64L34 65L35 65L35 64L36 64L36 63L37 63L37 62L40 62L40 63L38 63L38 64L37 64L37 65L40 65L40 63L41 63L41 65L42 65L42 64L43 64L43 65L45 65L45 64L46 64L46 65L47 65L47 63L48 63L48 64L49 64L49 65L50 65L50 63L51 63L51 61L52 61L52 63L53 63L53 61L52 61L52 58L53 58L53 60L54 60L54 61L55 61L55 62L54 62L54 63L55 63L55 64L53 64L53 65L57 65L57 64L56 64L56 61L57 61L57 62L58 62L58 61L59 61L59 63L60 63L60 64L62 64L62 63L63 63L63 65L64 65L64 63L65 63L65 62L64 62L64 63L63 63L63 62L62 62L62 60L61 60L61 59L64 59L64 60L63 60L63 61L65 61L65 59L64 59L64 58L61 58L61 57L65 57L65 55L61 55L61 56L60 56L60 53L58 53L58 51L59 51L59 47L60 47L60 48L61 48L61 45L63 45L63 44L64 44L64 45L65 45L65 44L64 44L64 43L63 43L63 42L64 42L64 41L63 41L63 42L62 42L62 40L61 40L61 38L59 38L59 37L58 37L58 36L57 36L57 35L60 35L60 36L61 36L61 37L63 37L63 38L64 38L64 40L65 40L65 37L64 37L64 36L65 36L65 35L64 35L64 33L65 33L65 31L64 31L64 32L63 32L63 31L62 31L62 30L61 30L61 29L60 29L60 27L61 27L61 28L62 28L62 29L63 29L63 28L64 28L64 29L65 29L65 25L64 25L64 26L63 26L63 25L62 25L62 24L61 24L61 23L64 23L64 24L65 24L65 23L64 23L64 22L62 22L62 20L63 20L63 21L64 21L64 20L65 20L65 19L62 19L62 18L63 18L63 17L64 17L64 18L65 18L65 17L64 17L64 16L62 16L62 15L65 15L65 13L64 13L64 12L65 12L65 11L64 11L64 10L62 10L62 9L63 9L63 8L60 8L60 9L61 9L61 10L62 10L62 11L63 11L63 13L62 13L62 12L61 12L61 11L60 11L60 10L59 10L59 11L58 11L58 10L57 10L57 11L55 11L55 10L56 10L56 9L55 9L55 8L56 8L56 7L57 7L57 6L56 6L56 7L55 7L55 5L54 5L54 7L53 7L53 4L56 4L56 5L57 5L57 4L56 4L56 3L57 3L57 1L56 1L56 0L55 0L55 1L56 1L56 3L55 3L55 2L54 2L54 0L51 0L51 1L52 1L52 2L47 2L47 1L46 1L46 2L45 2L45 1L43 1L43 0L39 0L39 1L40 1L40 3L41 3L41 4L42 4L42 3L43 3L43 4L44 4L44 3L43 3L43 2L45 2L45 3L48 3L48 4L47 4L47 6L46 6L46 5L45 5L45 6L44 6L44 7L43 7L43 6L42 6L42 7L41 7L41 6L40 6L40 5L39 5L39 2L38 2L38 4L37 4L37 2L36 2L36 3L33 3L33 4L32 4L32 2L33 2L33 1L32 1L32 0L29 0L29 1L28 1L28 2L27 2L27 0L26 0L26 2L27 2L27 3L28 3L28 4L25 4L25 3L24 3L24 4L25 4L25 5L24 5L24 8L25 8L25 6L26 6L26 8L27 8L27 9L26 9L26 10L25 10L25 9L23 9L23 6L22 6L22 3L23 3L23 2L21 2L21 1L19 1L19 2L21 2L21 3L18 3L18 0L17 0L17 3L15 3L15 5L13 5L13 3L14 3L14 2L13 2L13 3L12 3L12 9L11 9L11 6L10 6L10 4L11 4L11 3L9 3L9 2L12 2L12 1L13 1L13 0L12 0L12 1L9 1L9 0ZM14 0L14 1L15 1L15 0ZM22 0L22 1L25 1L25 0ZM35 0L35 1L36 1L36 0ZM37 0L37 1L38 1L38 0ZM48 0L48 1L50 1L50 0ZM29 1L29 2L30 2L30 3L29 3L29 4L28 4L28 5L29 5L29 4L31 4L31 2L32 2L32 1ZM41 1L41 3L42 3L42 2L43 2L43 1ZM52 2L52 4L53 4L53 3L54 3L54 2ZM17 3L17 4L16 4L16 5L15 5L15 7L16 7L16 5L17 5L17 8L16 8L16 10L15 10L15 8L14 8L14 10L15 10L15 11L17 11L17 8L18 8L18 9L19 9L19 11L18 11L18 12L19 12L19 13L20 13L20 14L21 14L21 16L22 16L22 17L24 17L24 19L23 19L23 20L22 20L22 18L21 18L21 17L19 17L19 16L16 16L16 15L14 15L14 16L16 16L16 17L17 17L17 18L15 18L15 17L14 17L14 18L15 18L15 19L17 19L17 18L18 18L18 19L19 19L19 18L21 18L21 20L20 20L20 23L19 23L19 22L18 22L18 21L17 21L17 23L16 23L16 20L15 20L15 22L14 22L14 19L13 19L13 20L12 20L12 16L11 16L11 17L9 17L9 15L8 15L8 14L7 14L7 13L6 13L6 12L7 12L7 11L5 11L5 10L3 10L3 9L2 9L2 12L1 12L1 13L2 13L2 14L1 14L1 15L2 15L2 16L1 16L1 17L4 17L4 18L3 18L3 19L2 19L2 20L1 20L1 21L2 21L2 22L3 22L3 21L5 21L5 20L3 20L3 19L5 19L5 18L7 18L7 19L6 19L6 20L7 20L7 21L6 21L6 22L4 22L4 23L3 23L3 24L4 24L4 23L5 23L5 24L7 24L7 25L6 25L6 26L7 26L7 27L6 27L6 28L7 28L7 29L5 29L5 28L3 28L3 27L1 27L1 29L2 29L2 30L1 30L1 33L2 33L2 34L3 34L3 32L2 32L2 30L3 30L3 31L4 31L4 30L8 30L8 29L9 29L9 31L11 31L11 29L12 29L12 32L11 32L11 33L13 33L13 34L12 34L12 35L11 35L11 34L9 34L9 35L6 35L6 36L5 36L5 38L9 38L9 39L6 39L6 40L5 40L5 39L4 39L4 40L5 40L5 41L4 41L4 42L3 42L3 40L1 40L1 42L2 42L2 43L1 43L1 44L3 44L3 45L5 45L5 46L3 46L3 48L4 48L4 49L5 49L5 50L7 50L7 51L10 51L10 53L11 53L11 54L10 54L10 55L11 55L11 54L12 54L12 53L13 53L13 54L14 54L14 55L15 55L15 56L17 56L17 55L15 55L15 53L16 53L16 52L15 52L15 53L13 53L13 51L15 51L15 49L16 49L16 50L19 50L19 49L17 49L17 48L20 48L20 49L22 49L22 51L24 51L24 54L25 54L25 52L26 52L26 55L27 55L27 53L29 53L29 54L30 54L30 55L31 55L31 56L32 56L32 55L34 55L34 56L35 56L35 57L36 57L36 58L35 58L35 59L36 59L36 60L37 60L37 57L38 57L38 58L39 58L39 60L38 60L38 61L41 61L41 62L42 62L42 63L43 63L43 64L45 64L45 63L46 63L46 62L48 62L48 63L49 63L49 62L48 62L48 61L47 61L47 60L45 60L45 59L44 59L44 58L45 58L45 54L44 54L44 53L43 53L43 52L42 52L42 51L43 51L43 49L45 49L45 48L44 48L44 47L45 47L45 46L46 46L46 48L48 48L48 47L52 47L52 50L50 50L50 51L49 51L49 50L48 50L48 55L47 55L47 57L46 57L46 58L47 58L47 59L48 59L48 60L49 60L49 61L51 61L51 59L49 59L49 57L50 57L50 58L52 58L52 57L50 57L50 56L51 56L51 55L52 55L52 56L55 56L55 55L56 55L56 52L55 52L55 53L54 53L54 51L53 51L53 52L52 52L52 50L58 50L58 47L59 47L59 45L61 45L61 44L59 44L59 42L55 42L55 41L56 41L56 39L55 39L55 37L56 37L56 38L57 38L57 36L55 36L55 34L56 34L56 33L55 33L55 32L56 32L56 31L55 31L55 30L57 30L57 29L54 29L54 33L55 33L55 34L54 34L54 36L53 36L53 33L50 33L50 34L51 34L51 35L50 35L50 36L51 36L51 37L53 37L53 38L54 38L54 39L51 39L51 38L49 38L49 37L46 37L46 36L45 36L45 35L47 35L47 36L48 36L48 34L47 34L47 33L46 33L46 31L48 31L48 33L49 33L49 32L50 32L50 31L48 31L48 30L49 30L49 28L51 28L51 27L54 27L54 28L55 28L55 27L58 27L58 26L61 26L61 25L60 25L60 24L59 24L59 21L61 21L61 20L60 20L60 19L61 19L61 15L62 15L62 14L61 14L61 13L60 13L60 14L59 14L59 13L58 13L58 14L57 14L57 15L55 15L55 13L57 13L57 12L55 12L55 11L54 11L54 13L53 13L53 10L52 10L52 9L50 9L50 8L49 8L49 7L50 7L50 6L51 6L51 7L52 7L52 8L53 8L53 9L54 9L54 8L53 8L53 7L52 7L52 5L50 5L50 6L49 6L49 4L50 4L50 3L49 3L49 4L48 4L48 6L47 6L47 7L46 7L46 6L45 6L45 7L44 7L44 10L43 10L43 11L42 11L42 12L41 12L41 11L38 11L38 12L39 12L39 13L40 13L40 14L38 14L38 17L37 17L37 16L36 16L36 14L37 14L37 13L34 13L34 14L33 14L33 12L32 12L32 13L31 13L31 14L30 14L30 15L31 15L31 16L33 16L33 15L34 15L34 14L35 14L35 16L34 16L34 17L35 17L35 18L34 18L34 20L33 20L33 19L32 19L32 22L33 22L33 23L34 23L34 24L32 24L32 26L31 26L31 28L30 28L30 29L31 29L31 30L32 30L32 29L31 29L31 28L33 28L33 29L34 29L34 28L35 28L35 30L36 30L36 31L37 31L37 32L36 32L36 33L37 33L37 32L42 32L42 33L45 33L45 35L44 35L44 34L40 34L40 33L38 33L38 34L37 34L37 35L38 35L38 34L40 34L40 35L39 35L39 36L37 36L37 37L34 37L34 38L37 38L37 37L40 37L40 38L39 38L39 39L38 39L38 40L40 40L40 41L41 41L41 40L42 40L42 39L43 39L43 40L45 40L45 41L44 41L44 43L45 43L45 44L43 44L43 41L42 41L42 42L41 42L41 44L43 44L43 46L41 46L41 45L39 45L39 44L38 44L38 46L39 46L39 47L40 47L40 48L38 48L38 49L40 49L40 50L42 50L42 51L37 51L37 50L36 50L36 49L35 49L35 48L36 48L36 47L37 47L37 44L36 44L36 45L35 45L35 43L37 43L37 42L38 42L38 43L39 43L39 41L37 41L37 40L36 40L36 39L35 39L35 41L31 41L31 42L30 42L30 41L29 41L29 43L27 43L27 44L26 44L26 40L28 40L28 39L29 39L29 40L31 40L31 39L29 39L29 36L30 36L30 32L29 32L29 30L28 30L28 29L29 29L29 27L30 27L30 26L29 26L29 25L30 25L30 24L31 24L31 22L30 22L30 24L29 24L29 21L28 21L28 20L29 20L29 18L30 18L30 20L31 20L31 17L29 17L29 16L28 16L28 15L29 15L29 14L27 14L27 15L26 15L26 14L25 14L25 15L24 15L24 12L26 12L26 13L27 13L27 12L26 12L26 11L25 11L25 10L24 10L24 12L23 12L23 11L21 11L21 10L23 10L23 9L20 9L20 8L22 8L22 6L21 6L21 7L20 7L20 6L19 6L19 4L18 4L18 3ZM35 4L35 5L36 5L36 4ZM31 5L31 8L34 8L34 5ZM37 5L37 7L36 7L36 6L35 6L35 8L36 8L36 11L35 11L35 12L36 12L36 11L37 11L37 9L38 9L38 10L41 10L41 9L43 9L43 7L42 7L42 8L41 8L41 9L40 9L40 8L39 8L39 9L38 9L38 6L39 6L39 7L40 7L40 6L39 6L39 5ZM13 6L13 7L14 7L14 6ZM18 6L18 7L19 7L19 6ZM27 6L27 7L28 7L28 9L27 9L27 11L28 11L28 10L29 10L29 11L30 11L30 12L31 12L31 11L34 11L34 10L35 10L35 9L32 9L32 10L31 10L31 9L30 9L30 6L29 6L29 7L28 7L28 6ZM32 6L32 7L33 7L33 6ZM48 6L48 7L49 7L49 6ZM45 7L45 11L43 11L43 13L44 13L44 12L45 12L45 13L49 13L49 14L52 14L52 16L51 16L51 17L52 17L52 16L53 16L53 13L49 13L49 12L50 12L50 9L48 9L48 8L46 8L46 7ZM57 8L57 9L58 9L58 8ZM64 8L64 9L65 9L65 8ZM12 9L12 10L13 10L13 9ZM29 9L29 10L30 10L30 9ZM46 9L46 10L47 10L47 9ZM4 11L4 12L5 12L5 11ZM13 11L13 12L14 12L14 11ZM19 11L19 12L21 12L21 11ZM45 11L45 12L46 12L46 11ZM47 11L47 12L49 12L49 11ZM51 11L51 12L52 12L52 11ZM2 12L2 13L3 13L3 12ZM15 12L15 13L17 13L17 12ZM28 12L28 13L29 13L29 12ZM21 13L21 14L22 14L22 13ZM2 14L2 15L3 15L3 16L4 16L4 17L7 17L7 16L5 16L5 15L7 15L7 14L5 14L5 15L4 15L4 14ZM18 14L18 15L19 15L19 14ZM32 14L32 15L33 15L33 14ZM43 14L43 16L41 16L41 15L39 15L39 17L40 17L40 16L41 16L41 18L40 18L40 19L41 19L41 18L42 18L42 17L45 17L45 18L43 18L43 20L46 20L46 21L48 21L48 23L47 23L47 22L45 22L45 24L47 24L47 25L49 25L49 26L50 26L50 27L51 27L51 25L49 25L49 24L50 24L50 23L52 23L52 22L55 22L55 23L53 23L53 24L54 24L54 25L55 25L55 26L58 26L58 25L59 25L59 24L56 24L56 21L57 21L57 18L59 18L59 17L57 17L57 18L55 18L55 19L54 19L54 18L52 18L52 20L49 20L49 19L51 19L51 18L50 18L50 16L49 16L49 15L48 15L48 14L47 14L47 15L46 15L46 14L45 14L45 16L44 16L44 14ZM58 14L58 15L59 15L59 16L60 16L60 15L61 15L61 14L60 14L60 15L59 15L59 14ZM23 15L23 16L24 16L24 15ZM47 15L47 16L45 16L45 17L48 17L48 19L49 19L49 16L48 16L48 15ZM25 16L25 19L27 19L27 20L26 20L26 21L27 21L27 20L28 20L28 18L29 18L29 17L27 17L27 16ZM8 17L8 18L9 18L9 17ZM26 17L26 18L27 18L27 17ZM32 17L32 18L33 18L33 17ZM10 18L10 19L7 19L7 20L8 20L8 21L9 21L9 20L10 20L10 22L6 22L6 23L8 23L8 24L9 24L9 25L12 25L12 23L14 23L14 22L12 22L12 20L11 20L11 18ZM35 18L35 22L34 22L34 23L36 23L36 24L34 24L34 25L33 25L33 26L32 26L32 27L33 27L33 26L34 26L34 25L35 25L35 26L36 26L36 28L37 28L37 26L39 26L39 24L38 24L38 25L37 25L37 22L38 22L38 21L42 21L42 24L41 24L41 22L40 22L40 24L41 24L41 25L40 25L40 26L41 26L41 31L42 31L42 32L43 32L43 30L42 30L42 29L45 29L45 30L44 30L44 32L45 32L45 30L47 30L47 29L46 29L46 27L47 27L47 28L49 28L49 27L48 27L48 26L46 26L46 25L44 25L44 24L43 24L43 22L44 22L44 21L42 21L42 20L37 20L37 21L36 21L36 19L39 19L39 18ZM46 19L46 20L47 20L47 19ZM53 19L53 21L55 21L55 20L56 20L56 19L55 19L55 20L54 20L54 19ZM58 19L58 21L59 21L59 19ZM2 20L2 21L3 21L3 20ZM21 20L21 24L23 24L23 23L24 23L24 22L25 22L25 21L23 21L23 23L22 23L22 20ZM48 20L48 21L49 21L49 20ZM50 21L50 22L52 22L52 21ZM10 22L10 23L9 23L9 24L10 24L10 23L11 23L11 22ZM26 22L26 23L27 23L27 22ZM57 22L57 23L58 23L58 22ZM15 23L15 26L13 26L13 27L16 27L16 23ZM17 23L17 25L19 25L19 26L20 26L20 27L18 27L18 26L17 26L17 27L18 27L18 28L19 28L19 29L16 29L16 28L15 28L15 29L14 29L14 28L12 28L12 29L13 29L13 30L14 30L14 32L15 32L15 33L14 33L14 36L13 36L13 35L12 35L12 36L13 36L13 37L14 37L14 36L15 36L15 33L17 33L17 34L16 34L16 35L17 35L17 36L18 36L18 37L19 37L19 38L20 38L20 39L21 39L21 40L19 40L19 41L18 41L18 42L19 42L19 43L16 43L16 47L15 47L15 46L14 46L14 44L15 44L15 42L17 42L17 41L16 41L16 39L17 39L17 40L18 40L18 38L16 38L16 37L15 37L15 38L12 38L12 41L13 41L13 43L10 43L10 42L11 42L11 41L10 41L10 39L11 39L11 37L9 37L9 36L10 36L10 35L9 35L9 36L6 36L6 37L9 37L9 38L10 38L10 39L9 39L9 40L8 40L8 41L7 41L7 40L6 40L6 41L5 41L5 42L4 42L4 43L3 43L3 44L5 44L5 45L9 45L9 47L8 47L8 46L6 46L6 47L7 47L7 48L5 48L5 49L8 49L8 48L10 48L10 46L11 46L11 48L12 48L12 49L13 49L13 50L12 50L12 51L13 51L13 50L14 50L14 49L15 49L15 48L16 48L16 47L17 47L17 46L21 46L21 47L20 47L20 48L24 48L24 49L25 49L25 50L26 50L26 52L28 52L28 51L30 51L30 54L31 54L31 55L32 55L32 54L31 54L31 51L32 51L32 52L33 52L33 51L36 51L36 52L37 52L37 51L36 51L36 50L35 50L35 49L34 49L34 50L33 50L33 49L32 49L32 48L35 48L35 47L34 47L34 46L33 46L33 47L31 47L31 46L32 46L32 45L33 45L33 42L32 42L32 43L29 43L29 44L28 44L28 45L29 45L29 44L30 44L30 47L31 47L31 48L30 48L30 49L29 49L29 50L28 50L28 49L26 49L26 48L27 48L27 47L28 47L28 48L29 48L29 46L27 46L27 47L25 47L25 46L26 46L26 45L25 45L25 46L24 46L24 45L23 45L23 44L21 44L21 43L20 43L20 42L19 42L19 41L22 41L22 40L23 40L23 42L24 42L24 41L25 41L25 40L26 40L26 39L25 39L25 40L24 40L24 39L23 39L23 38L24 38L24 36L25 36L25 34L26 34L26 35L27 35L27 33L29 33L29 32L28 32L28 30L26 30L26 29L27 29L27 28L28 28L28 27L29 27L29 26L28 26L28 25L26 25L26 24L25 24L25 25L26 25L26 26L28 26L28 27L25 27L25 26L24 26L24 27L23 27L23 26L21 26L21 25L19 25L19 23ZM48 23L48 24L49 24L49 23ZM42 24L42 25L41 25L41 26L43 26L43 28L44 28L44 27L46 27L46 26L44 26L44 25L43 25L43 24ZM55 24L55 25L56 25L56 24ZM4 25L4 27L5 27L5 25ZM52 25L52 26L53 26L53 25ZM9 26L9 27L10 27L10 26ZM11 26L11 27L12 27L12 26ZM62 26L62 28L63 28L63 26ZM20 27L20 28L22 28L22 29L23 29L23 30L25 30L25 27L24 27L24 28L22 28L22 27ZM38 27L38 28L39 28L39 30L37 30L37 31L40 31L40 27ZM9 28L9 29L11 29L11 28ZM52 28L52 29L50 29L50 30L51 30L51 32L53 32L53 30L52 30L52 29L53 29L53 28ZM58 28L58 29L59 29L59 28ZM3 29L3 30L4 30L4 29ZM15 29L15 32L17 32L17 30L16 30L16 29ZM20 29L20 31L19 31L19 30L18 30L18 31L19 31L19 32L18 32L18 33L20 33L20 34L21 34L21 35L23 35L23 34L21 34L21 32L22 32L22 31L21 31L21 29ZM5 31L5 34L8 34L8 31ZM20 31L20 32L21 32L21 31ZM24 31L24 32L23 32L23 33L27 33L27 32L25 32L25 31ZM31 31L31 34L34 34L34 31ZM57 31L57 34L60 34L60 31ZM61 31L61 36L64 36L64 35L63 35L63 34L62 34L62 31ZM6 32L6 33L7 33L7 32ZM32 32L32 33L33 33L33 32ZM58 32L58 33L59 33L59 32ZM18 34L18 36L19 36L19 37L21 37L21 36L19 36L19 34ZM28 34L28 35L29 35L29 34ZM2 35L2 36L1 36L1 37L2 37L2 38L1 38L1 39L2 39L2 38L3 38L3 35ZM31 35L31 37L30 37L30 38L31 38L31 37L32 37L32 36L34 36L34 35ZM35 35L35 36L36 36L36 35ZM42 35L42 36L41 36L41 37L44 37L44 35ZM51 35L51 36L52 36L52 35ZM22 36L22 38L23 38L23 36ZM27 36L27 37L25 37L25 38L28 38L28 36ZM45 37L45 38L43 38L43 39L45 39L45 38L46 38L46 41L45 41L45 43L46 43L46 42L48 42L48 44L49 44L49 42L48 42L48 41L47 41L47 40L48 40L48 39L47 39L47 38L46 38L46 37ZM32 38L32 39L33 39L33 40L34 40L34 39L33 39L33 38ZM40 38L40 40L41 40L41 39L42 39L42 38ZM14 39L14 40L15 40L15 39ZM49 39L49 41L52 41L52 40L50 40L50 39ZM57 39L57 41L59 41L59 39ZM60 40L60 42L61 42L61 43L62 43L62 42L61 42L61 40ZM6 41L6 42L7 42L7 41ZM27 41L27 42L28 42L28 41ZM35 41L35 42L36 42L36 41ZM53 41L53 43L52 43L52 42L51 42L51 43L50 43L50 45L49 45L49 46L50 46L50 45L51 45L51 46L52 46L52 47L53 47L53 49L55 49L55 46L56 46L56 45L57 45L57 47L58 47L58 45L59 45L59 44L58 44L58 43L57 43L57 44L54 44L54 43L55 43L55 42L54 42L54 41ZM6 43L6 44L8 44L8 43ZM9 43L9 44L10 44L10 45L11 45L11 46L12 46L12 45L13 45L13 44L10 44L10 43ZM18 44L18 45L19 45L19 44ZM20 44L20 45L21 45L21 44ZM45 44L45 45L44 45L44 46L43 46L43 47L42 47L42 48L41 48L41 49L43 49L43 47L44 47L44 46L45 46L45 45L47 45L47 44ZM51 44L51 45L52 45L52 46L53 46L53 45L54 45L54 44L53 44L53 45L52 45L52 44ZM1 45L1 46L2 46L2 45ZM13 46L13 47L14 47L14 48L13 48L13 49L14 49L14 48L15 48L15 47L14 47L14 46ZM40 46L40 47L41 47L41 46ZM62 46L62 47L63 47L63 49L62 49L62 50L60 50L60 51L61 51L61 52L62 52L62 50L64 50L64 51L65 51L65 49L64 49L64 48L65 48L65 47L64 47L64 46ZM1 47L1 48L2 48L2 47ZM49 48L49 49L50 49L50 48ZM56 48L56 49L57 49L57 48ZM9 49L9 50L11 50L11 49ZM30 49L30 51L31 51L31 49ZM46 49L46 50L44 50L44 52L45 52L45 53L46 53L46 51L47 51L47 49ZM27 50L27 51L28 51L28 50ZM8 52L8 53L9 53L9 52ZM11 52L11 53L12 53L12 52ZM18 52L18 53L19 53L19 52ZM34 52L34 53L33 53L33 54L35 54L35 55L36 55L36 56L37 56L37 53L35 53L35 52ZM39 52L39 53L40 53L40 54L41 54L41 55L44 55L44 54L42 54L42 52L41 52L41 53L40 53L40 52ZM49 52L49 53L50 53L50 52ZM51 52L51 54L52 54L52 55L54 55L54 54L53 54L53 53L52 53L52 52ZM63 52L63 53L64 53L64 52ZM6 53L6 54L7 54L7 55L8 55L8 54L7 54L7 53ZM57 53L57 56L59 56L59 54L58 54L58 53ZM61 53L61 54L62 54L62 53ZM19 54L19 55L20 55L20 54ZM12 55L12 56L13 56L13 57L10 57L10 56L9 56L9 57L10 57L10 58L11 58L11 59L12 59L12 60L15 60L15 62L13 62L13 64L15 64L15 62L17 62L17 63L16 63L16 64L17 64L17 63L18 63L18 62L17 62L17 60L18 60L18 59L17 59L17 58L18 58L18 57L15 57L15 58L14 58L14 56L13 56L13 55ZM48 55L48 56L50 56L50 55ZM39 56L39 58L40 58L40 60L41 60L41 61L44 61L44 59L43 59L43 57L42 57L42 56ZM31 57L31 60L34 60L34 57ZM47 57L47 58L48 58L48 57ZM57 57L57 60L60 60L60 57ZM12 58L12 59L13 59L13 58ZM19 58L19 59L20 59L20 58ZM32 58L32 59L33 59L33 58ZM54 58L54 60L55 60L55 59L56 59L56 58ZM58 58L58 59L59 59L59 58ZM15 59L15 60L16 60L16 59ZM21 59L21 60L20 60L20 61L23 61L23 60L22 60L22 59ZM41 59L41 60L43 60L43 59ZM33 61L33 62L34 62L34 61ZM36 61L36 62L35 62L35 63L36 63L36 62L37 62L37 61ZM45 61L45 62L43 62L43 63L45 63L45 62L46 62L46 61ZM60 62L60 63L61 63L61 62ZM25 63L25 64L26 64L26 63ZM27 63L27 64L29 64L29 63ZM31 63L31 65L33 65L33 64L32 64L32 63ZM51 64L51 65L52 65L52 64ZM0 0L0 7L7 7L7 0ZM1 1L1 6L6 6L6 1ZM2 2L2 5L5 5L5 2ZM58 0L58 7L65 7L65 0ZM59 1L59 6L64 6L64 1ZM60 2L60 5L63 5L63 2ZM0 58L0 65L7 65L7 58ZM1 59L1 64L6 64L6 59ZM2 60L2 63L5 63L5 60Z" fill="#000000"/></g></g></svg>
