<?xml version="1.0" encoding="UTF-8"?>
<svg xmlns="http://www.w3.org/2000/svg" version="1.1" width="300" height="300" viewBox="0 0 300 300"><rect x="0" y="0" width="300" height="300" fill="#ffffff"/><g transform="scale(4.348)"><g transform="translate(0,0)"><path fill-rule="evenodd" d="M8 0L8 2L9 2L9 3L14 3L14 2L15 2L15 3L16 3L16 4L15 4L15 5L14 5L14 7L13 7L13 6L12 6L12 5L13 5L13 4L12 4L12 5L11 5L11 4L10 4L10 5L9 5L9 4L8 4L8 9L7 9L7 8L5 8L5 9L4 9L4 10L5 10L5 9L7 9L7 10L6 10L6 11L7 11L7 12L6 12L6 13L5 13L5 12L4 12L4 13L5 13L5 14L6 14L6 15L9 15L9 16L8 16L8 21L9 21L9 22L6 22L6 23L5 23L5 22L4 22L4 21L3 21L3 20L6 20L6 21L7 21L7 20L6 20L6 19L7 19L7 18L5 18L5 16L4 16L4 14L2 14L2 13L3 13L3 11L2 11L2 13L1 13L1 10L0 10L0 15L1 15L1 17L0 17L0 18L1 18L1 19L0 19L0 20L1 20L1 23L0 23L0 24L1 24L1 23L2 23L2 24L3 24L3 22L4 22L4 23L5 23L5 27L7 27L7 28L6 28L6 29L8 29L8 30L6 30L6 31L7 31L7 32L3 32L3 30L4 30L4 31L5 31L5 30L4 30L4 29L5 29L5 28L4 28L4 25L3 25L3 26L2 26L2 27L0 27L0 29L1 29L1 30L2 30L2 32L1 32L1 31L0 31L0 34L1 34L1 35L0 35L0 37L1 37L1 38L0 38L0 39L2 39L2 38L3 38L3 37L7 37L7 38L4 38L4 39L3 39L3 43L4 43L4 40L5 40L5 42L6 42L6 43L5 43L5 44L6 44L6 45L7 45L7 46L6 46L6 47L8 47L8 48L6 48L6 49L8 49L8 50L6 50L6 51L8 51L8 50L10 50L10 48L11 48L11 47L14 47L14 48L12 48L12 49L15 49L15 51L12 51L12 50L11 50L11 52L16 52L16 51L18 51L18 54L17 54L17 55L16 55L16 53L15 53L15 54L14 54L14 53L12 53L12 54L13 54L13 56L15 56L15 57L13 57L13 58L12 58L12 55L10 55L10 56L9 56L9 55L8 55L8 57L7 57L7 56L6 56L6 57L7 57L7 58L5 58L5 55L7 55L7 54L5 54L5 55L4 55L4 53L3 53L3 51L2 51L2 49L5 49L5 48L4 48L4 47L5 47L5 45L1 45L1 44L2 44L2 43L1 43L1 40L0 40L0 43L1 43L1 44L0 44L0 45L1 45L1 46L0 46L0 49L1 49L1 52L0 52L0 56L2 56L2 59L3 59L3 58L4 58L4 59L7 59L7 58L8 58L8 59L9 59L9 60L6 60L6 61L8 61L8 62L9 62L9 63L8 63L8 64L10 64L10 62L11 62L11 64L12 64L12 62L11 62L11 61L10 61L10 60L12 60L12 61L14 61L14 62L13 62L13 64L16 64L16 65L13 65L13 67L12 67L12 65L9 65L9 66L8 66L8 69L9 69L9 68L10 68L10 69L12 69L12 68L13 68L13 69L14 69L14 68L15 68L15 69L17 69L17 68L15 68L15 67L16 67L16 65L17 65L17 66L18 66L18 65L19 65L19 64L20 64L20 65L21 65L21 66L20 66L20 67L21 67L21 69L25 69L25 68L26 68L26 69L28 69L28 68L29 68L29 67L28 67L28 66L30 66L30 67L31 67L31 64L32 64L32 66L33 66L33 68L32 68L32 69L33 69L33 68L34 68L34 67L35 67L35 69L37 69L37 68L36 68L36 67L35 67L35 66L36 66L36 65L37 65L37 64L38 64L38 65L39 65L39 66L40 66L40 65L41 65L41 67L42 67L42 68L40 68L40 67L39 67L39 68L38 68L38 69L39 69L39 68L40 68L40 69L43 69L43 67L44 67L44 69L45 69L45 67L44 67L44 65L47 65L47 67L46 67L46 69L47 69L47 68L48 68L48 69L51 69L51 67L53 67L53 66L54 66L54 65L55 65L55 64L54 64L54 65L53 65L53 63L54 63L54 61L53 61L53 59L52 59L52 58L54 58L54 60L55 60L55 59L58 59L58 61L59 61L59 63L60 63L60 64L59 64L59 65L63 65L63 66L64 66L64 69L65 69L65 68L66 68L66 69L67 69L67 68L66 68L66 66L65 66L65 65L66 65L66 63L67 63L67 65L68 65L68 63L69 63L69 58L68 58L68 57L69 57L69 52L68 52L68 51L69 51L69 49L67 49L67 50L66 50L66 47L67 47L67 48L68 48L68 47L69 47L69 44L68 44L68 43L69 43L69 41L68 41L68 40L66 40L66 39L65 39L65 38L66 38L66 37L67 37L67 36L66 36L66 35L67 35L67 34L66 34L66 33L65 33L65 32L66 32L66 30L68 30L68 31L69 31L69 29L68 29L68 28L69 28L69 25L67 25L67 24L69 24L69 22L68 22L68 21L69 21L69 20L68 20L68 19L69 19L69 17L68 17L68 16L69 16L69 12L68 12L68 11L69 11L69 10L68 10L68 11L67 11L67 10L66 10L66 9L65 9L65 8L60 8L60 7L61 7L61 6L60 6L60 7L59 7L59 4L58 4L58 3L59 3L59 2L58 2L58 1L61 1L61 0L58 0L58 1L55 1L55 0L54 0L54 1L55 1L55 2L54 2L54 3L55 3L55 4L54 4L54 5L52 5L52 3L53 3L53 2L51 2L51 3L50 3L50 1L53 1L53 0L50 0L50 1L49 1L49 3L50 3L50 5L52 5L52 7L51 7L51 6L50 6L50 7L51 7L51 8L50 8L50 9L49 9L49 8L48 8L48 7L49 7L49 5L48 5L48 3L47 3L47 2L48 2L48 0L46 0L46 3L47 3L47 4L46 4L46 5L48 5L48 7L47 7L47 6L46 6L46 7L47 7L47 8L44 8L44 9L43 9L43 11L41 11L41 10L42 10L42 8L43 8L43 6L42 6L42 5L43 5L43 4L44 4L44 7L45 7L45 4L44 4L44 2L41 2L41 1L40 1L40 0L38 0L38 2L36 2L36 0L34 0L34 1L35 1L35 2L34 2L34 3L33 3L33 4L32 4L32 2L30 2L30 1L28 1L28 2L29 2L29 4L28 4L28 9L27 9L27 8L26 8L26 7L27 7L27 6L26 6L26 7L25 7L25 6L24 6L24 5L25 5L25 4L26 4L26 5L27 5L27 4L26 4L26 3L25 3L25 4L24 4L24 3L23 3L23 2L27 2L27 0L24 0L24 1L23 1L23 0L22 0L22 1L23 1L23 2L22 2L22 3L23 3L23 4L24 4L24 5L23 5L23 6L22 6L22 7L21 7L21 6L20 6L20 5L21 5L21 2L20 2L20 1L21 1L21 0L18 0L18 1L16 1L16 0ZM31 0L31 1L33 1L33 0ZM42 0L42 1L44 1L44 0ZM11 1L11 2L14 2L14 1ZM18 1L18 2L16 2L16 3L18 3L18 5L19 5L19 1ZM39 1L39 2L40 2L40 4L41 4L41 5L42 5L42 3L41 3L41 2L40 2L40 1ZM55 2L55 3L56 3L56 5L54 5L54 6L53 6L53 7L54 7L54 8L53 8L53 9L52 9L52 11L51 11L51 9L50 9L50 11L51 11L51 12L50 12L50 14L51 14L51 15L50 15L50 16L51 16L51 15L52 15L52 12L53 12L53 11L54 11L54 12L55 12L55 11L54 11L54 10L56 10L56 8L57 8L57 9L58 9L58 10L57 10L57 12L58 12L58 14L59 14L59 12L58 12L58 10L59 10L59 11L60 11L60 15L58 15L58 16L57 16L57 15L55 15L55 13L54 13L54 14L53 14L53 15L54 15L54 19L53 19L53 20L54 20L54 22L53 22L53 21L52 21L52 20L51 20L51 21L50 21L50 20L49 20L49 19L50 19L50 18L51 18L51 17L50 17L50 18L49 18L49 19L47 19L47 18L48 18L48 16L49 16L49 13L48 13L48 11L49 11L49 9L48 9L48 8L47 8L47 9L46 9L46 10L45 10L45 11L46 11L46 12L47 12L47 13L46 13L46 14L45 14L45 13L44 13L44 14L45 14L45 15L46 15L46 14L47 14L47 13L48 13L48 16L47 16L47 17L44 17L44 15L43 15L43 12L42 12L42 13L41 13L41 11L37 11L37 9L35 9L35 11L34 11L34 10L33 10L33 9L32 9L32 8L30 8L30 6L29 6L29 9L28 9L28 10L29 10L29 11L28 11L28 12L29 12L29 13L28 13L28 14L27 14L27 15L26 15L26 16L27 16L27 17L26 17L26 18L25 18L25 17L24 17L24 19L23 19L23 20L24 20L24 22L23 22L23 21L22 21L22 20L21 20L21 21L20 21L20 23L19 23L19 22L17 22L17 23L16 23L16 24L17 24L17 25L18 25L18 28L17 28L17 29L16 29L16 30L17 30L17 29L18 29L18 28L19 28L19 25L20 25L20 26L22 26L22 27L20 27L20 30L19 30L19 31L18 31L18 32L19 32L19 33L18 33L18 35L17 35L17 33L16 33L16 32L17 32L17 31L16 31L16 32L13 32L13 31L15 31L15 29L14 29L14 28L15 28L15 25L13 25L13 26L12 26L12 27L14 27L14 28L12 28L12 29L11 29L11 28L9 28L9 27L11 27L11 26L7 26L7 25L6 25L6 26L7 26L7 27L8 27L8 29L11 29L11 30L9 30L9 31L8 31L8 32L9 32L9 33L10 33L10 34L9 34L9 35L10 35L10 36L9 36L9 37L8 37L8 38L9 38L9 40L7 40L7 39L5 39L5 40L7 40L7 41L6 41L6 42L7 42L7 43L6 43L6 44L7 44L7 45L8 45L8 46L9 46L9 48L8 48L8 49L9 49L9 48L10 48L10 47L11 47L11 46L12 46L12 45L11 45L11 46L9 46L9 45L10 45L10 43L11 43L11 42L12 42L12 41L13 41L13 40L11 40L11 37L13 37L13 38L14 38L14 37L16 37L16 38L15 38L15 39L14 39L14 41L15 41L15 43L14 43L14 42L13 42L13 43L12 43L12 44L13 44L13 43L14 43L14 45L16 45L16 47L15 47L15 46L14 46L14 47L15 47L15 48L16 48L16 47L17 47L17 49L16 49L16 50L18 50L18 51L19 51L19 48L20 48L20 47L21 47L21 50L20 50L20 51L22 51L22 52L21 52L21 53L20 53L20 52L19 52L19 53L20 53L20 55L19 55L19 56L20 56L20 58L19 58L19 60L20 60L20 58L21 58L21 59L22 59L22 58L23 58L23 61L22 61L22 60L21 60L21 61L20 61L20 64L21 64L21 65L22 65L22 66L23 66L23 67L22 67L22 68L25 68L25 67L26 67L26 68L27 68L27 67L26 67L26 66L27 66L27 64L26 64L26 63L29 63L29 64L30 64L30 62L32 62L32 61L30 61L30 60L29 60L29 59L31 59L31 58L32 58L32 60L35 60L35 59L36 59L36 60L37 60L37 59L36 59L36 58L35 58L35 57L34 57L34 55L33 55L33 54L32 54L32 53L33 53L33 52L31 52L31 49L30 49L30 48L33 48L33 49L34 49L34 50L35 50L35 49L34 49L34 47L35 47L35 46L37 46L37 48L36 48L36 49L37 49L37 48L38 48L38 50L39 50L39 49L40 49L40 52L38 52L38 53L40 53L40 55L36 55L36 54L37 54L37 53L36 53L36 52L37 52L37 51L36 51L36 52L35 52L35 51L34 51L34 52L35 52L35 53L34 53L34 54L35 54L35 55L36 55L36 57L38 57L38 60L41 60L41 61L38 61L38 62L39 62L39 63L38 63L38 64L39 64L39 65L40 65L40 62L41 62L41 61L42 61L42 62L43 62L43 65L42 65L42 63L41 63L41 65L42 65L42 67L43 67L43 65L44 65L44 62L45 62L45 63L46 63L46 64L47 64L47 65L48 65L48 64L47 64L47 61L48 61L48 63L49 63L49 64L50 64L50 66L53 66L53 65L52 65L52 63L53 63L53 62L52 62L52 63L51 63L51 64L50 64L50 63L49 63L49 61L48 61L48 59L49 59L49 60L50 60L50 59L49 59L49 58L48 58L48 56L49 56L49 57L50 57L50 58L52 58L52 56L54 56L54 58L57 58L57 57L58 57L58 59L59 59L59 60L60 60L60 59L61 59L61 60L64 60L64 59L66 59L66 60L65 60L65 61L66 61L66 62L67 62L67 63L68 63L68 60L67 60L67 59L68 59L68 58L67 58L67 59L66 59L66 58L65 58L65 57L66 57L66 56L67 56L67 57L68 57L68 53L67 53L67 51L68 51L68 50L67 50L67 51L66 51L66 50L65 50L65 46L67 46L67 47L68 47L68 44L67 44L67 43L68 43L68 41L67 41L67 43L66 43L66 44L67 44L67 45L64 45L64 44L65 44L65 43L64 43L64 42L65 42L65 40L64 40L64 38L65 38L65 37L63 37L63 41L64 41L64 42L63 42L63 43L64 43L64 44L63 44L63 45L62 45L62 37L61 37L61 41L60 41L60 42L59 42L59 41L58 41L58 38L60 38L60 37L58 37L58 36L57 36L57 35L56 35L56 36L55 36L55 34L56 34L56 32L57 32L57 33L58 33L58 34L59 34L59 36L60 36L60 34L59 34L59 33L60 33L60 32L61 32L61 31L60 31L60 32L57 32L57 31L59 31L59 28L58 28L58 29L56 29L56 28L57 28L57 27L58 27L58 26L59 26L59 27L60 27L60 26L61 26L61 27L62 27L62 28L63 28L63 29L62 29L62 30L66 30L66 29L67 29L67 26L66 26L66 24L67 24L67 23L68 23L68 22L67 22L67 21L68 21L68 20L67 20L67 19L68 19L68 18L67 18L67 17L65 17L65 19L64 19L64 16L65 16L65 15L66 15L66 16L68 16L68 12L67 12L67 11L66 11L66 12L65 12L65 14L64 14L64 9L62 9L62 10L63 10L63 12L62 12L62 11L60 11L60 10L61 10L61 9L60 9L60 8L59 8L59 7L58 7L58 6L57 6L57 2ZM30 3L30 4L29 4L29 5L30 5L30 4L31 4L31 7L32 7L32 4L31 4L31 3ZM34 3L34 4L35 4L35 3ZM36 3L36 4L37 4L37 3ZM38 3L38 4L39 4L39 3ZM60 3L60 5L61 5L61 3ZM16 4L16 5L15 5L15 7L16 7L16 6L17 6L17 8L16 8L16 9L15 9L15 8L14 8L14 9L13 9L13 8L12 8L12 6L11 6L11 5L10 5L10 6L9 6L9 8L11 8L11 11L10 11L10 12L7 12L7 13L6 13L6 14L9 14L9 15L10 15L10 16L9 16L9 18L12 18L12 19L10 19L10 20L9 20L9 21L10 21L10 22L11 22L11 23L9 23L9 24L11 24L11 23L15 23L15 22L14 22L14 21L16 21L16 20L17 20L17 21L18 21L18 20L19 20L19 19L18 19L18 18L19 18L19 16L18 16L18 15L20 15L20 16L21 16L21 17L22 17L22 18L23 18L23 17L22 17L22 15L20 15L20 14L23 14L23 15L24 15L24 14L26 14L26 11L25 11L25 10L24 10L24 11L25 11L25 13L24 13L24 12L23 12L23 13L22 13L22 10L23 10L23 9L22 9L22 10L21 10L21 9L20 9L20 10L21 10L21 11L17 11L17 10L18 10L18 6L17 6L17 4ZM33 5L33 8L36 8L36 5ZM38 5L38 6L37 6L37 7L38 7L38 10L40 10L40 8L42 8L42 6L41 6L41 7L40 7L40 5ZM10 6L10 7L11 7L11 6ZM19 6L19 8L21 8L21 7L20 7L20 6ZM23 6L23 7L22 7L22 8L23 8L23 7L24 7L24 8L25 8L25 9L26 9L26 10L27 10L27 9L26 9L26 8L25 8L25 7L24 7L24 6ZM34 6L34 7L35 7L35 6ZM38 6L38 7L39 7L39 6ZM54 6L54 7L55 7L55 6ZM56 6L56 7L57 7L57 6ZM0 8L0 9L2 9L2 10L3 10L3 8ZM58 8L58 9L59 9L59 10L60 10L60 9L59 9L59 8ZM67 8L67 9L69 9L69 8ZM12 9L12 11L11 11L11 13L9 13L9 14L10 14L10 15L13 15L13 16L14 16L14 17L12 17L12 16L10 16L10 17L12 17L12 18L13 18L13 19L14 19L14 20L15 20L15 16L14 16L14 15L16 15L16 16L17 16L17 14L18 14L18 13L19 13L19 14L20 14L20 13L21 13L21 12L20 12L20 13L19 13L19 12L18 12L18 13L17 13L17 11L15 11L15 9L14 9L14 12L13 12L13 9ZM47 9L47 10L46 10L46 11L48 11L48 9ZM53 9L53 10L54 10L54 9ZM7 10L7 11L9 11L9 10ZM30 10L30 11L29 11L29 12L30 12L30 13L31 13L31 12L30 12L30 11L31 11L31 10ZM32 10L32 11L33 11L33 10ZM36 11L36 12L37 12L37 13L38 13L38 12L37 12L37 11ZM12 12L12 13L11 13L11 14L12 14L12 13L13 13L13 12ZM14 12L14 13L15 13L15 14L16 14L16 12ZM32 12L32 13L33 13L33 12ZM61 12L61 15L60 15L60 17L59 17L59 16L58 16L58 17L57 17L57 16L56 16L56 17L55 17L55 18L56 18L56 19L54 19L54 20L55 20L55 21L57 21L57 22L56 22L56 23L55 23L55 22L54 22L54 23L53 23L53 22L52 22L52 21L51 21L51 22L50 22L50 21L49 21L49 20L48 20L48 23L47 23L47 22L46 22L46 21L45 21L45 20L46 20L46 19L45 19L45 20L44 20L44 21L43 21L43 20L42 20L42 19L44 19L44 18L42 18L42 17L43 17L43 15L42 15L42 16L40 16L40 17L39 17L39 15L38 15L38 16L36 16L36 17L35 17L35 16L34 16L34 17L33 17L33 16L32 16L32 15L33 15L33 14L30 14L30 15L28 15L28 17L29 17L29 16L30 16L30 18L28 18L28 19L30 19L30 22L29 22L29 23L28 23L28 20L26 20L26 19L27 19L27 18L26 18L26 19L25 19L25 20L26 20L26 21L27 21L27 22L26 22L26 24L24 24L24 25L25 25L25 26L24 26L24 27L26 27L26 29L27 29L27 31L26 31L26 32L27 32L27 34L26 34L26 37L25 37L25 38L24 38L24 39L25 39L25 40L22 40L22 39L23 39L23 36L25 36L25 35L24 35L24 33L25 33L25 30L24 30L24 28L23 28L23 27L22 27L22 31L21 31L21 32L20 32L20 33L21 33L21 32L22 32L22 33L23 33L23 36L22 36L22 35L21 35L21 34L20 34L20 35L21 35L21 36L22 36L22 38L20 38L20 36L18 36L18 37L17 37L17 35L16 35L16 33L15 33L15 34L14 34L14 36L13 36L13 35L11 35L11 34L10 34L10 35L11 35L11 36L10 36L10 37L11 37L11 36L13 36L13 37L14 37L14 36L15 36L15 35L16 35L16 37L17 37L17 38L16 38L16 39L18 39L18 41L17 41L17 40L16 40L16 41L17 41L17 42L16 42L16 43L18 43L18 46L19 46L19 47L18 47L18 48L19 48L19 47L20 47L20 45L21 45L21 46L22 46L22 45L23 45L23 47L22 47L22 49L23 49L23 50L24 50L24 47L25 47L25 52L22 52L22 53L21 53L21 54L22 54L22 53L23 53L23 55L22 55L22 56L24 56L24 57L25 57L25 58L24 58L24 59L25 59L25 60L26 60L26 61L25 61L25 62L24 62L24 65L23 65L23 63L21 63L21 64L22 64L22 65L23 65L23 66L24 66L24 65L25 65L25 62L26 62L26 61L27 61L27 62L28 62L28 61L29 61L29 60L28 60L28 59L29 59L29 58L30 58L30 57L32 57L32 58L33 58L33 59L35 59L35 58L34 58L34 57L33 57L33 55L32 55L32 54L30 54L30 53L31 53L31 52L30 52L30 51L29 51L29 50L30 50L30 49L29 49L29 48L28 48L28 47L32 47L32 46L28 46L28 45L27 45L27 44L29 44L29 43L28 43L28 41L29 41L29 38L28 38L28 37L29 37L29 36L30 36L30 37L32 37L32 38L31 38L31 39L30 39L30 40L31 40L31 41L32 41L32 42L31 42L31 43L30 43L30 45L32 45L32 44L33 44L33 43L32 43L32 42L34 42L34 45L33 45L33 47L34 47L34 46L35 46L35 41L36 41L36 42L38 42L38 44L36 44L36 45L37 45L37 46L38 46L38 44L39 44L39 42L42 42L42 43L41 43L41 44L42 44L42 45L43 45L43 46L45 46L45 47L46 47L46 45L47 45L47 47L48 47L48 49L49 49L49 50L48 50L48 51L47 51L47 50L46 50L46 49L47 49L47 48L44 48L44 47L41 47L41 48L40 48L40 49L41 49L41 51L42 51L42 52L40 52L40 53L41 53L41 55L40 55L40 58L39 58L39 59L40 59L40 58L41 58L41 59L45 59L45 60L44 60L44 61L47 61L47 58L46 58L46 57L45 57L45 55L47 55L47 54L46 54L46 52L48 52L48 55L50 55L50 53L51 53L51 54L53 54L53 52L54 52L54 53L55 53L55 52L56 52L56 53L57 53L57 54L56 54L56 57L57 57L57 54L58 54L58 55L60 55L60 56L59 56L59 59L60 59L60 57L61 57L61 56L63 56L63 58L62 58L62 59L64 59L64 57L65 57L65 56L66 56L66 53L65 53L65 52L66 52L66 51L64 51L64 50L62 50L62 49L63 49L63 48L64 48L64 47L63 47L63 46L64 46L64 45L63 45L63 46L62 46L62 47L61 47L61 42L60 42L60 43L59 43L59 45L60 45L60 46L58 46L58 44L56 44L56 43L57 43L57 42L56 42L56 43L55 43L55 42L54 42L54 41L57 41L57 38L58 38L58 37L57 37L57 36L56 36L56 37L55 37L55 36L54 36L54 35L53 35L53 34L54 34L54 33L55 33L55 32L54 32L54 25L55 25L55 24L56 24L56 26L55 26L55 27L57 27L57 26L58 26L58 25L59 25L59 24L61 24L61 26L62 26L62 23L63 23L63 24L64 24L64 25L63 25L63 27L65 27L65 28L64 28L64 29L66 29L66 26L64 26L64 25L65 25L65 24L66 24L66 21L67 21L67 20L66 20L66 19L65 19L65 20L64 20L64 19L62 19L62 17L63 17L63 15L64 15L64 14L62 14L62 12ZM66 12L66 15L67 15L67 12ZM23 13L23 14L24 14L24 13ZM40 13L40 14L41 14L41 13ZM56 13L56 14L57 14L57 13ZM1 14L1 15L2 15L2 16L3 16L3 17L1 17L1 18L3 18L3 19L2 19L2 20L3 20L3 19L4 19L4 16L3 16L3 15L2 15L2 14ZM13 14L13 15L14 15L14 14ZM34 14L34 15L35 15L35 14ZM36 14L36 15L37 15L37 14ZM30 15L30 16L31 16L31 17L32 17L32 16L31 16L31 15ZM61 15L61 17L60 17L60 18L59 18L59 17L58 17L58 18L59 18L59 19L57 19L57 20L58 20L58 24L57 24L57 23L56 23L56 24L57 24L57 25L58 25L58 24L59 24L59 23L60 23L60 22L61 22L61 23L62 23L62 22L63 22L63 23L64 23L64 24L65 24L65 23L64 23L64 22L63 22L63 21L64 21L64 20L62 20L62 19L61 19L61 17L62 17L62 15ZM6 16L6 17L7 17L7 16ZM38 17L38 18L39 18L39 17ZM40 17L40 20L38 20L38 21L39 21L39 23L40 23L40 24L38 24L38 23L37 23L37 24L38 24L38 26L39 26L39 25L40 25L40 28L43 28L43 29L40 29L40 30L42 30L42 35L41 35L41 34L39 34L39 33L40 33L40 31L39 31L39 32L38 32L38 35L37 35L37 39L36 39L36 40L37 40L37 41L38 41L38 42L39 42L39 41L40 41L40 38L41 38L41 37L40 37L40 35L41 35L41 36L43 36L43 37L42 37L42 39L41 39L41 41L42 41L42 42L43 42L43 41L44 41L44 43L42 43L42 44L43 44L43 45L44 45L44 44L45 44L45 45L46 45L46 44L45 44L45 43L48 43L48 42L47 42L47 41L48 41L48 39L47 39L47 37L48 37L48 36L49 36L49 37L50 37L50 38L51 38L51 39L49 39L49 41L50 41L50 44L49 44L49 45L48 45L48 44L47 44L47 45L48 45L48 47L50 47L50 48L51 48L51 49L50 49L50 52L51 52L51 53L52 53L52 52L53 52L53 51L54 51L54 50L55 50L55 51L57 51L57 53L58 53L58 54L60 54L60 55L61 55L61 52L60 52L60 53L58 53L58 52L59 52L59 51L60 51L60 50L59 50L59 49L58 49L58 50L56 50L56 48L58 48L58 46L57 46L57 45L56 45L56 44L55 44L55 43L54 43L54 44L55 44L55 45L54 45L54 48L53 48L53 47L52 47L52 46L53 46L53 45L52 45L52 44L53 44L53 43L52 43L52 41L51 41L51 39L52 39L52 38L53 38L53 37L52 37L52 36L53 36L53 35L52 35L52 32L53 32L53 29L52 29L52 28L53 28L53 27L52 27L52 26L53 26L53 25L52 25L52 24L53 24L53 23L52 23L52 22L51 22L51 23L52 23L52 24L51 24L51 25L50 25L50 26L51 26L51 27L50 27L50 28L49 28L49 29L50 29L50 30L49 30L49 31L50 31L50 32L51 32L51 33L50 33L50 35L51 35L51 37L50 37L50 36L49 36L49 34L48 34L48 30L47 30L47 29L48 29L48 27L46 27L46 28L45 28L45 25L46 25L46 26L47 26L47 23L45 23L45 21L44 21L44 23L43 23L43 21L42 21L42 20L41 20L41 19L42 19L42 18L41 18L41 17ZM52 17L52 18L53 18L53 17ZM56 17L56 18L57 18L57 17ZM20 18L20 19L21 19L21 18ZM32 18L32 20L31 20L31 21L32 21L32 22L31 22L31 23L30 23L30 24L31 24L31 23L32 23L32 25L30 25L30 27L28 27L28 26L29 26L29 24L28 24L28 26L26 26L26 27L28 27L28 30L31 30L31 29L30 29L30 28L31 28L31 26L32 26L32 25L33 25L33 27L34 27L34 28L32 28L32 29L34 29L34 28L35 28L35 25L34 25L34 24L35 24L35 23L36 23L36 22L37 22L37 20L36 20L36 18L34 18L34 20L35 20L35 21L34 21L34 22L35 22L35 23L34 23L34 24L33 24L33 18ZM10 20L10 21L11 21L11 22L12 22L12 21L13 21L13 20L12 20L12 21L11 21L11 20ZM40 20L40 21L41 21L41 20ZM60 20L60 21L59 21L59 22L60 22L60 21L61 21L61 22L62 22L62 21L61 21L61 20ZM65 20L65 21L66 21L66 20ZM35 21L35 22L36 22L36 21ZM24 22L24 23L25 23L25 22ZM40 22L40 23L41 23L41 24L40 24L40 25L41 25L41 26L42 26L42 27L43 27L43 28L44 28L44 29L43 29L43 30L44 30L44 34L43 34L43 35L44 35L44 37L43 37L43 38L45 38L45 39L46 39L46 41L45 41L45 40L44 40L44 41L45 41L45 42L46 42L46 41L47 41L47 39L46 39L46 35L47 35L47 36L48 36L48 34L46 34L46 33L45 33L45 31L46 31L46 29L47 29L47 28L46 28L46 29L45 29L45 28L44 28L44 27L43 27L43 26L42 26L42 25L43 25L43 24L42 24L42 23L41 23L41 22ZM6 23L6 24L8 24L8 23ZM18 23L18 25L19 25L19 23ZM20 23L20 25L21 25L21 23ZM22 23L22 24L23 24L23 23ZM49 23L49 24L50 24L50 23ZM54 23L54 24L55 24L55 23ZM44 24L44 25L45 25L45 24ZM0 25L0 26L1 26L1 25ZM36 25L36 26L37 26L37 25ZM16 26L16 27L17 27L17 26ZM2 27L2 28L1 28L1 29L4 29L4 28L3 28L3 27ZM36 27L36 28L38 28L38 30L37 30L37 29L36 29L36 30L34 30L34 31L35 31L35 32L36 32L36 30L37 30L37 31L38 31L38 30L39 30L39 27ZM51 27L51 28L52 28L52 27ZM12 29L12 30L14 30L14 29ZM44 29L44 30L45 30L45 29ZM51 29L51 30L50 30L50 31L51 31L51 30L52 30L52 29ZM60 29L60 30L61 30L61 29ZM23 30L23 33L24 33L24 30ZM56 30L56 31L57 31L57 30ZM28 31L28 32L29 32L29 31ZM32 31L32 32L31 32L31 33L32 33L32 32L33 32L33 31ZM2 32L2 33L1 33L1 34L3 34L3 36L4 36L4 33L3 33L3 32ZM10 32L10 33L13 33L13 32ZM67 32L67 33L68 33L68 37L69 37L69 33L68 33L68 32ZM5 33L5 36L8 36L8 33ZM33 33L33 36L36 36L36 33ZM61 33L61 36L64 36L64 33ZM6 34L6 35L7 35L7 34ZM28 34L28 35L29 35L29 34ZM30 34L30 35L31 35L31 34ZM34 34L34 35L35 35L35 34ZM44 34L44 35L46 35L46 34ZM62 34L62 35L63 35L63 34ZM1 36L1 37L2 37L2 36ZM38 36L38 37L39 37L39 38L38 38L38 40L39 40L39 38L40 38L40 37L39 37L39 36ZM18 37L18 39L19 39L19 41L20 41L20 42L18 42L18 43L20 43L20 42L21 42L21 45L22 45L22 43L23 43L23 41L22 41L22 42L21 42L21 40L20 40L20 38L19 38L19 37ZM33 37L33 40L32 40L32 41L33 41L33 40L34 40L34 39L35 39L35 37ZM54 37L54 38L55 38L55 39L56 39L56 38L55 38L55 37ZM27 38L27 39L26 39L26 40L25 40L25 41L26 41L26 42L24 42L24 43L25 43L25 45L24 45L24 44L23 44L23 45L24 45L24 46L25 46L25 45L26 45L26 46L27 46L27 47L26 47L26 48L27 48L27 49L26 49L26 52L25 52L25 53L24 53L24 54L26 54L26 52L27 52L27 53L28 53L28 54L27 54L27 56L28 56L28 55L29 55L29 53L30 53L30 52L29 52L29 51L28 51L28 50L29 50L29 49L28 49L28 48L27 48L27 47L28 47L28 46L27 46L27 45L26 45L26 43L27 43L27 41L26 41L26 40L28 40L28 38ZM68 38L68 39L69 39L69 38ZM42 39L42 41L43 41L43 39ZM59 39L59 40L60 40L60 39ZM9 40L9 41L7 41L7 42L11 42L11 41L10 41L10 40ZM8 43L8 44L9 44L9 43ZM16 44L16 45L17 45L17 44ZM19 44L19 45L20 45L20 44ZM50 44L50 45L49 45L49 46L50 46L50 45L51 45L51 46L52 46L52 45L51 45L51 44ZM40 45L40 46L41 46L41 45ZM55 45L55 46L56 46L56 45ZM1 46L1 49L2 49L2 47L4 47L4 46ZM38 47L38 48L39 48L39 47ZM51 47L51 48L52 48L52 49L51 49L51 51L53 51L53 50L54 50L54 49L55 49L55 48L56 48L56 47L55 47L55 48L54 48L54 49L53 49L53 48L52 48L52 47ZM59 47L59 48L60 48L60 49L61 49L61 48L60 48L60 47ZM62 47L62 48L63 48L63 47ZM43 48L43 49L42 49L42 50L43 50L43 53L42 53L42 56L41 56L41 57L42 57L42 58L45 58L45 57L44 57L44 55L45 55L45 54L44 54L44 51L46 51L46 50L44 50L44 48ZM4 50L4 51L5 51L5 50ZM58 50L58 51L59 51L59 50ZM48 51L48 52L49 52L49 51ZM63 51L63 52L64 52L64 51ZM1 52L1 55L3 55L3 56L4 56L4 55L3 55L3 53L2 53L2 52ZM6 52L6 53L9 53L9 52ZM10 53L10 54L11 54L11 53ZM64 53L64 54L63 54L63 56L64 56L64 54L65 54L65 53ZM43 54L43 55L44 55L44 54ZM17 55L17 58L16 58L16 59L18 59L18 55ZM24 55L24 56L26 56L26 55ZM30 55L30 56L31 56L31 55ZM54 55L54 56L55 56L55 55ZM10 56L10 57L11 57L11 56ZM8 57L8 58L9 58L9 57ZM28 57L28 58L29 58L29 57ZM0 58L0 61L1 61L1 58ZM11 58L11 59L12 59L12 58ZM14 58L14 59L13 59L13 60L14 60L14 61L16 61L16 62L15 62L15 63L16 63L16 64L17 64L17 63L16 63L16 62L17 62L17 61L16 61L16 60L14 60L14 59L15 59L15 58ZM25 58L25 59L26 59L26 58ZM3 60L3 61L5 61L5 60ZM56 60L56 62L55 62L55 63L56 63L56 66L55 66L55 68L54 68L54 69L55 69L55 68L56 68L56 69L57 69L57 68L58 68L58 67L57 67L57 65L58 65L58 64L57 64L57 60ZM21 61L21 62L22 62L22 61ZM33 61L33 64L36 64L36 61ZM50 61L50 62L51 62L51 61ZM61 61L61 64L64 64L64 61ZM34 62L34 63L35 63L35 62ZM62 62L62 63L63 63L63 62ZM18 63L18 64L19 64L19 63ZM34 65L34 66L35 66L35 65ZM9 66L9 67L10 67L10 68L11 68L11 66ZM60 66L60 67L59 67L59 68L60 68L60 69L61 69L61 68L60 68L60 67L61 67L61 66ZM67 66L67 67L69 67L69 66ZM13 67L13 68L14 68L14 67ZM18 68L18 69L19 69L19 68ZM30 68L30 69L31 69L31 68ZM52 68L52 69L53 69L53 68ZM68 68L68 69L69 69L69 68ZM0 0L0 7L7 7L7 0ZM1 1L1 6L6 6L6 1ZM2 2L2 5L5 5L5 2ZM62 0L62 7L69 7L69 0ZM63 1L63 6L68 6L68 1ZM64 2L64 5L67 5L67 2ZM0 62L0 69L7 69L7 62ZM1 63L1 68L6 68L6 63ZM2 64L2 67L5 67L5 64Z" fill="#000000"/></g></g></svg>
