<?xml version="1.0" encoding="UTF-8"?>
<svg xmlns="http://www.w3.org/2000/svg" version="1.1" width="300" height="300" viewBox="0 0 300 300"><rect x="0" y="0" width="300" height="300" fill="#ffffff"/><g transform="scale(4.348)"><g transform="translate(0,0)"><path fill-rule="evenodd" d="M8 0L8 1L9 1L9 2L8 2L8 5L10 5L10 4L9 4L9 2L10 2L10 3L11 3L11 4L12 4L12 5L11 5L11 6L10 6L10 7L9 7L9 6L8 6L8 7L9 7L9 8L8 8L8 9L9 9L9 11L8 11L8 10L6 10L6 9L7 9L7 8L6 8L6 9L5 9L5 11L7 11L7 12L6 12L6 13L7 13L7 12L9 12L9 14L8 14L8 15L7 15L7 14L5 14L5 15L7 15L7 16L6 16L6 17L8 17L8 18L5 18L5 17L2 17L2 16L3 16L3 14L4 14L4 13L1 13L1 12L0 12L0 16L1 16L1 17L2 17L2 18L1 18L1 22L0 22L0 23L1 23L1 24L0 24L0 25L2 25L2 23L1 23L1 22L3 22L3 23L4 23L4 24L3 24L3 27L5 27L5 26L4 26L4 24L6 24L6 25L7 25L7 24L6 24L6 23L8 23L8 24L10 24L10 25L12 25L12 24L10 24L10 23L8 23L8 22L6 22L6 23L5 23L5 22L3 22L3 21L2 21L2 18L3 18L3 19L7 19L7 20L6 20L6 21L7 21L7 20L8 20L8 18L9 18L9 19L11 19L11 20L9 20L9 21L11 21L11 20L13 20L13 21L14 21L14 19L15 19L15 18L14 18L14 17L13 17L13 16L15 16L15 17L16 17L16 16L15 16L15 15L16 15L16 14L15 14L15 13L16 13L16 11L17 11L17 15L19 15L19 16L18 16L18 17L19 17L19 16L20 16L20 19L19 19L19 18L18 18L18 19L19 19L19 22L20 22L20 23L24 23L24 24L22 24L22 25L23 25L23 27L21 27L21 29L22 29L22 28L23 28L23 30L20 30L20 32L21 32L21 34L19 34L19 33L17 33L17 34L19 34L19 35L18 35L18 36L17 36L17 35L15 35L15 34L16 34L16 32L17 32L17 31L15 31L15 32L14 32L14 28L15 28L15 26L17 26L17 27L16 27L16 28L17 28L17 27L19 27L19 26L21 26L21 25L20 25L20 24L18 24L18 21L17 21L17 22L16 22L16 21L15 21L15 22L16 22L16 23L17 23L17 25L16 25L16 24L15 24L15 25L14 25L14 22L13 22L13 26L12 26L12 27L10 27L10 28L8 28L8 27L9 27L9 25L8 25L8 27L7 27L7 26L6 26L6 27L7 27L7 28L6 28L6 29L5 29L5 30L4 30L4 29L3 29L3 31L2 31L2 30L1 30L1 28L2 28L2 27L0 27L0 30L1 30L1 33L0 33L0 37L1 37L1 39L2 39L2 38L3 38L3 39L4 39L4 38L5 38L5 37L9 37L9 36L10 36L10 38L9 38L9 40L10 40L10 41L8 41L8 39L7 39L7 38L6 38L6 39L5 39L5 40L6 40L6 41L7 41L7 42L5 42L5 41L3 41L3 40L2 40L2 41L1 41L1 42L2 42L2 41L3 41L3 43L7 43L7 42L8 42L8 44L2 44L2 43L1 43L1 44L0 44L0 45L1 45L1 47L0 47L0 48L1 48L1 47L2 47L2 45L3 45L3 47L4 47L4 48L3 48L3 49L2 49L2 51L1 51L1 52L0 52L0 54L1 54L1 53L2 53L2 52L3 52L3 54L4 54L4 56L3 56L3 55L2 55L2 56L3 56L3 57L2 57L2 59L3 59L3 57L4 57L4 59L8 59L8 57L7 57L7 56L6 56L6 55L8 55L8 56L9 56L9 57L10 57L10 56L11 56L11 55L10 55L10 54L9 54L9 53L11 53L11 54L13 54L13 53L11 53L11 52L10 52L10 51L9 51L9 49L10 49L10 50L11 50L11 49L10 49L10 47L11 47L11 46L12 46L12 47L14 47L14 48L13 48L13 49L12 49L12 50L13 50L13 51L12 51L12 52L15 52L15 53L14 53L14 55L16 55L16 59L15 59L15 60L14 60L14 61L13 61L13 58L12 58L12 57L11 57L11 58L10 58L10 59L9 59L9 60L6 60L6 61L8 61L8 62L9 62L9 63L11 63L11 64L14 64L14 65L15 65L15 66L18 66L18 64L19 64L19 67L14 67L14 66L12 66L12 65L8 65L8 69L9 69L9 68L10 68L10 69L12 69L12 68L10 68L10 67L9 67L9 66L11 66L11 67L14 67L14 68L13 68L13 69L14 69L14 68L15 68L15 69L18 69L18 68L19 68L19 67L20 67L20 69L21 69L21 68L22 68L22 69L24 69L24 68L22 68L22 67L23 67L23 66L24 66L24 65L22 65L22 64L25 64L25 66L26 66L26 64L27 64L27 62L26 62L26 64L25 64L25 62L24 62L24 60L23 60L23 62L21 62L21 61L20 61L20 59L19 59L19 60L18 60L18 58L20 58L20 57L21 57L21 60L22 60L22 56L23 56L23 57L24 57L24 58L27 58L27 59L25 59L25 61L26 61L26 60L27 60L27 59L28 59L28 58L27 58L27 57L26 57L26 56L25 56L25 57L24 57L24 56L23 56L23 54L24 54L24 55L26 55L26 54L24 54L24 53L28 53L28 54L30 54L30 55L31 55L31 57L29 57L29 60L28 60L28 61L32 61L32 62L29 62L29 63L31 63L31 65L29 65L29 66L28 66L28 65L27 65L27 68L28 68L28 69L30 69L30 67L31 67L31 68L34 68L34 69L35 69L35 68L34 68L34 67L38 67L38 68L39 68L39 69L41 69L41 68L42 68L42 67L41 67L41 66L42 66L42 65L40 65L40 64L41 64L41 62L39 62L39 61L40 61L40 60L41 60L41 61L42 61L42 60L41 60L41 59L42 59L42 58L43 58L43 56L41 56L41 55L42 55L42 53L43 53L43 54L44 54L44 55L46 55L46 54L47 54L47 55L48 55L48 56L49 56L49 57L48 57L48 58L50 58L50 56L51 56L51 58L52 58L52 59L51 59L51 61L50 61L50 59L48 59L48 60L47 60L47 61L49 61L49 62L48 62L48 64L50 64L50 62L51 62L51 63L53 63L53 64L56 64L56 65L57 65L57 69L59 69L59 68L60 68L60 69L63 69L63 68L64 68L64 69L65 69L65 68L64 68L64 67L63 67L63 66L64 66L64 65L65 65L65 67L66 67L66 65L67 65L67 66L68 66L68 65L69 65L69 64L67 64L67 63L68 63L68 61L67 61L67 60L69 60L69 58L65 58L65 59L63 59L63 57L62 57L62 58L61 58L61 57L60 57L60 58L59 58L59 59L60 59L60 62L59 62L59 63L60 63L60 65L61 65L61 66L59 66L59 65L58 65L58 61L59 61L59 60L58 60L58 61L56 61L56 59L54 59L54 58L56 58L56 57L55 57L55 56L54 56L54 57L53 57L53 56L51 56L51 55L49 55L49 53L48 53L48 54L47 54L47 51L48 51L48 52L49 52L49 51L48 51L48 50L50 50L50 53L51 53L51 54L52 54L52 55L54 55L54 54L53 54L53 53L52 53L52 52L51 52L51 51L53 51L53 52L55 52L55 54L56 54L56 56L58 56L58 54L59 54L59 55L60 55L60 56L61 56L61 55L62 55L62 54L65 54L65 55L64 55L64 57L67 57L67 56L69 56L69 55L68 55L68 54L69 54L69 52L68 52L68 51L65 51L65 50L64 50L64 48L66 48L66 46L68 46L68 47L67 47L67 48L68 48L68 47L69 47L69 44L68 44L68 45L66 45L66 44L65 44L65 43L66 43L66 42L67 42L67 38L66 38L66 35L65 35L65 34L66 34L66 33L68 33L68 34L67 34L67 37L68 37L68 38L69 38L69 37L68 37L68 36L69 36L69 31L67 31L67 32L65 32L65 31L63 31L63 32L59 32L59 31L60 31L60 28L62 28L62 29L63 29L63 30L65 30L65 29L66 29L66 30L67 30L67 28L68 28L68 30L69 30L69 27L65 27L65 25L67 25L67 26L69 26L69 24L66 24L66 21L67 21L67 23L69 23L69 21L67 21L67 20L69 20L69 19L68 19L68 18L69 18L69 15L68 15L68 16L67 16L67 15L66 15L66 14L69 14L69 8L68 8L68 10L65 10L65 9L67 9L67 8L64 8L64 9L63 9L63 11L62 11L62 12L61 12L61 11L60 11L60 10L62 10L62 8L61 8L61 6L60 6L60 7L59 7L59 4L58 4L58 3L59 3L59 2L58 2L58 1L61 1L61 0L58 0L58 1L57 1L57 0L56 0L56 1L55 1L55 0L52 0L52 1L50 1L50 0L49 0L49 2L47 2L47 1L48 1L48 0L47 0L47 1L45 1L45 0L44 0L44 2L43 2L43 6L42 6L42 5L40 5L40 4L38 4L38 2L37 2L37 3L36 3L36 2L35 2L35 1L34 1L34 0L33 0L33 4L32 4L32 2L31 2L31 1L32 1L32 0L30 0L30 2L29 2L29 0L28 0L28 2L27 2L27 1L25 1L25 0L23 0L23 2L22 2L22 0L21 0L21 1L19 1L19 0L17 0L17 1L19 1L19 3L18 3L18 2L17 2L17 3L18 3L18 5L17 5L17 4L16 4L16 0L14 0L14 1L15 1L15 4L14 4L14 2L12 2L12 1L13 1L13 0L12 0L12 1L11 1L11 0ZM37 0L37 1L38 1L38 0ZM39 0L39 1L40 1L40 2L39 2L39 3L41 3L41 2L42 2L42 1L43 1L43 0ZM10 1L10 2L11 2L11 3L12 3L12 4L13 4L13 3L12 3L12 2L11 2L11 1ZM24 1L24 3L22 3L22 4L23 4L23 5L24 5L24 6L23 6L23 7L22 7L22 5L21 5L21 7L22 7L22 8L20 8L20 6L19 6L19 8L16 8L16 6L17 6L17 7L18 7L18 6L17 6L17 5L16 5L16 6L15 6L15 5L12 5L12 6L11 6L11 8L12 8L12 6L13 6L13 8L16 8L16 9L18 9L18 10L17 10L17 11L18 11L18 12L19 12L19 11L20 11L20 10L22 10L22 11L23 11L23 9L24 9L24 10L25 10L25 11L27 11L27 12L26 12L26 13L23 13L23 12L20 12L20 13L22 13L22 15L21 15L21 14L19 14L19 13L18 13L18 14L19 14L19 15L20 15L20 16L22 16L22 17L21 17L21 18L22 18L22 19L23 19L23 20L24 20L24 21L27 21L27 22L28 22L28 24L26 24L26 25L24 25L24 27L23 27L23 28L24 28L24 27L26 27L26 28L29 28L29 26L31 26L31 25L33 25L33 26L32 26L32 27L33 27L33 28L30 28L30 29L31 29L31 30L28 30L28 29L26 29L26 30L27 30L27 31L25 31L25 29L24 29L24 30L23 30L23 33L25 33L25 34L27 34L27 35L26 35L26 37L25 37L25 36L24 36L24 35L23 35L23 36L21 36L21 35L22 35L22 34L21 34L21 35L20 35L20 37L21 37L21 38L19 38L19 37L17 37L17 36L15 36L15 35L13 35L13 34L12 34L12 33L13 33L13 30L12 30L12 28L14 28L14 27L12 27L12 28L11 28L11 29L8 29L8 28L7 28L7 29L6 29L6 30L5 30L5 31L4 31L4 32L2 32L2 34L1 34L1 35L2 35L2 36L1 36L1 37L3 37L3 38L4 38L4 37L3 37L3 35L2 35L2 34L3 34L3 33L4 33L4 32L5 32L5 31L6 31L6 32L9 32L9 33L10 33L10 34L9 34L9 35L11 35L11 34L12 34L12 36L11 36L11 37L12 37L12 38L10 38L10 39L11 39L11 41L13 41L13 42L15 42L15 46L14 46L14 47L15 47L15 49L16 49L16 50L17 50L17 51L15 51L15 50L14 50L14 49L13 49L13 50L14 50L14 51L15 51L15 52L17 52L17 53L19 53L19 56L18 56L18 57L17 57L17 58L18 58L18 57L19 57L19 56L20 56L20 54L21 54L21 56L22 56L22 53L23 53L23 52L22 52L22 53L20 53L20 52L19 52L19 49L20 49L20 50L21 50L21 51L23 51L23 50L24 50L24 51L26 51L26 50L25 50L25 49L27 49L27 50L29 50L29 51L28 51L28 52L29 52L29 53L30 53L30 54L31 54L31 55L32 55L32 56L35 56L35 57L34 57L34 58L33 58L33 57L32 57L32 58L31 58L31 59L30 59L30 60L31 60L31 59L32 59L32 58L33 58L33 60L37 60L37 61L38 61L38 60L40 60L40 58L39 58L39 56L40 56L40 55L41 55L41 54L40 54L40 53L41 53L41 52L42 52L42 51L43 51L43 52L44 52L44 50L45 50L45 48L46 48L46 50L47 50L47 48L48 48L48 47L47 47L47 48L46 48L46 46L47 46L47 44L48 44L48 45L49 45L49 46L50 46L50 47L49 47L49 49L51 49L51 50L54 50L54 51L55 51L55 52L57 52L57 53L56 53L56 54L57 54L57 53L59 53L59 52L62 52L62 51L63 51L63 53L65 53L65 54L66 54L66 56L67 56L67 54L68 54L68 52L67 52L67 54L66 54L66 52L64 52L64 51L63 51L63 48L62 48L62 49L61 49L61 51L59 51L59 50L60 50L60 47L58 47L58 46L63 46L63 47L64 47L64 46L66 46L66 45L65 45L65 44L62 44L62 43L63 43L63 41L64 41L64 40L63 40L63 38L65 38L65 37L60 37L60 35L59 35L59 37L58 37L58 38L57 38L57 39L55 39L55 34L54 34L54 37L53 37L53 36L52 36L52 35L53 35L53 34L52 34L52 33L51 33L51 32L53 32L53 33L54 33L54 32L53 32L53 28L54 28L54 30L55 30L55 27L56 27L56 28L57 28L57 25L58 25L58 27L59 27L59 28L58 28L58 29L59 29L59 28L60 28L60 26L61 26L61 27L62 27L62 28L64 28L64 29L65 29L65 27L64 27L64 26L63 26L63 27L62 27L62 26L61 26L61 25L65 25L65 23L64 23L64 21L63 21L63 20L65 20L65 21L66 21L66 20L67 20L67 19L65 19L65 18L68 18L68 17L67 17L67 16L66 16L66 17L65 17L65 14L64 14L64 13L68 13L68 12L67 12L67 11L66 11L66 12L65 12L65 11L63 11L63 14L61 14L61 12L60 12L60 11L59 11L59 9L60 9L60 8L59 8L59 7L58 7L58 6L57 6L57 3L58 3L58 2L57 2L57 1L56 1L56 4L54 4L54 3L51 3L51 2L50 2L50 3L51 3L51 7L52 7L52 8L54 8L54 9L55 9L55 10L52 10L52 9L50 9L50 10L49 10L49 11L50 11L50 10L51 10L51 12L50 12L50 13L52 13L52 14L49 14L49 13L46 13L46 11L47 11L47 12L48 12L48 11L47 11L47 9L46 9L46 8L48 8L48 9L49 9L49 7L50 7L50 4L49 4L49 7L48 7L48 5L47 5L47 4L48 4L48 3L46 3L46 5L45 5L45 8L44 8L44 6L43 6L43 9L45 9L45 10L46 10L46 11L44 11L44 10L43 10L43 12L41 12L41 13L42 13L42 14L44 14L44 15L41 15L41 14L40 14L40 11L42 11L42 10L40 10L40 9L38 9L38 8L37 8L37 9L38 9L38 10L37 10L37 11L39 11L39 14L40 14L40 17L41 17L41 16L42 16L42 18L43 18L43 19L41 19L41 21L42 21L42 20L43 20L43 21L44 21L44 22L42 22L42 24L41 24L41 22L39 22L39 24L36 24L36 23L38 23L38 22L35 22L35 19L36 19L36 21L37 21L37 19L38 19L38 20L39 20L39 21L40 21L40 20L39 20L39 16L38 16L38 15L37 15L37 14L36 14L36 15L34 15L34 17L33 17L33 18L31 18L31 15L30 15L30 16L29 16L29 15L28 15L28 14L29 14L29 13L28 13L28 14L27 14L27 12L28 12L28 10L29 10L29 11L30 11L30 12L31 12L31 10L33 10L33 9L31 9L31 10L30 10L30 9L27 9L27 8L26 8L26 6L25 6L25 4L24 4L24 3L25 3L25 1ZM20 2L20 3L19 3L19 4L20 4L20 3L21 3L21 2ZM26 2L26 5L27 5L27 7L28 7L28 8L29 8L29 7L30 7L30 6L29 6L29 7L28 7L28 5L29 5L29 2L28 2L28 5L27 5L27 2ZM30 2L30 3L31 3L31 2ZM44 3L44 4L45 4L45 3ZM60 3L60 5L61 5L61 3ZM30 4L30 5L31 5L31 4ZM37 4L37 7L38 7L38 6L39 6L39 8L41 8L41 9L42 9L42 8L41 8L41 7L42 7L42 6L41 6L41 7L40 7L40 6L39 6L39 5L38 5L38 4ZM33 5L33 8L36 8L36 5ZM46 5L46 7L47 7L47 5ZM55 5L55 6L54 6L54 8L55 8L55 6L56 6L56 8L57 8L57 9L56 9L56 10L57 10L57 11L54 11L54 12L53 12L53 13L56 13L56 12L57 12L57 11L58 11L58 10L57 10L57 9L59 9L59 8L57 8L57 6L56 6L56 5ZM14 6L14 7L15 7L15 6ZM24 6L24 7L25 7L25 6ZM31 6L31 8L32 8L32 6ZM34 6L34 7L35 7L35 6ZM52 6L52 7L53 7L53 6ZM0 8L0 9L1 9L1 10L0 10L0 11L1 11L1 10L2 10L2 11L3 11L3 10L4 10L4 8ZM9 8L9 9L10 9L10 10L11 10L11 11L10 11L10 12L12 12L12 13L10 13L10 14L9 14L9 15L12 15L12 16L13 16L13 15L15 15L15 14L14 14L14 12L13 12L13 11L12 11L12 9L10 9L10 8ZM19 8L19 10L18 10L18 11L19 11L19 10L20 10L20 8ZM22 8L22 9L23 9L23 8ZM25 9L25 10L26 10L26 9ZM35 9L35 12L36 12L36 13L38 13L38 12L36 12L36 9ZM32 11L32 13L31 13L31 14L32 14L32 13L33 13L33 14L35 14L35 13L34 13L34 11ZM43 12L43 13L44 13L44 14L45 14L45 15L44 15L44 16L43 16L43 18L44 18L44 20L45 20L45 21L46 21L46 19L47 19L47 21L48 21L48 19L47 19L47 18L48 18L48 17L46 17L46 19L45 19L45 18L44 18L44 17L45 17L45 15L47 15L47 16L49 16L49 17L52 17L52 15L53 15L53 16L54 16L54 15L55 15L55 14L52 14L52 15L50 15L50 16L49 16L49 14L48 14L48 15L47 15L47 14L46 14L46 13L44 13L44 12ZM58 12L58 13L57 13L57 16L55 16L55 17L57 17L57 18L54 18L54 17L53 17L53 19L51 19L51 18L50 18L50 21L49 21L49 22L47 22L47 23L46 23L46 25L44 25L44 23L43 23L43 24L42 24L42 25L44 25L44 27L42 27L42 26L41 26L41 27L42 27L42 28L41 28L41 29L39 29L39 30L38 30L38 31L37 31L37 30L36 30L36 28L37 28L37 29L38 29L38 28L39 28L39 27L38 27L38 26L40 26L40 25L37 25L37 27L35 27L35 26L34 26L34 27L35 27L35 30L34 30L34 28L33 28L33 29L32 29L32 30L31 30L31 33L32 33L32 37L31 37L31 36L29 36L29 37L31 37L31 38L28 38L28 35L31 35L31 34L29 34L29 33L30 33L30 32L28 32L28 31L27 31L27 32L26 32L26 33L27 33L27 32L28 32L28 35L27 35L27 38L28 38L28 39L31 39L31 40L30 40L30 41L31 41L31 40L33 40L33 42L34 42L34 40L35 40L35 41L38 41L38 40L37 40L37 37L38 37L38 38L39 38L39 42L40 42L40 43L43 43L43 42L42 42L42 41L41 41L41 42L40 42L40 40L41 40L41 39L42 39L42 38L41 38L41 39L40 39L40 38L39 38L39 37L38 37L38 35L40 35L40 36L41 36L41 37L42 37L42 35L43 35L43 38L44 38L44 39L45 39L45 40L43 40L43 41L45 41L45 42L44 42L44 43L45 43L45 45L44 45L44 47L45 47L45 45L46 45L46 43L47 43L47 42L48 42L48 44L49 44L49 43L50 43L50 42L49 42L49 41L51 41L51 45L53 45L53 47L52 47L52 48L53 48L53 49L54 49L54 47L56 47L56 48L58 48L58 47L56 47L56 46L57 46L57 45L56 45L56 46L55 46L55 44L54 44L54 45L53 45L53 44L52 44L52 42L54 42L54 43L56 43L56 44L58 44L58 45L59 45L59 44L58 44L58 43L60 43L60 42L61 42L61 43L62 43L62 42L61 42L61 41L62 41L62 40L60 40L60 38L59 38L59 41L57 41L57 40L58 40L58 39L57 39L57 40L55 40L55 41L57 41L57 42L54 42L54 41L51 41L51 39L52 39L52 40L54 40L54 39L53 39L53 37L50 37L50 33L48 33L48 32L47 32L47 33L48 33L48 35L46 35L46 34L45 34L45 33L46 33L46 32L45 32L45 33L44 33L44 34L45 34L45 35L43 35L43 32L42 32L42 33L41 33L41 31L40 31L40 30L41 30L41 29L42 29L42 28L43 28L43 31L45 31L45 30L47 30L47 31L49 31L49 32L50 32L50 30L49 30L49 29L50 29L50 27L52 27L52 28L53 28L53 26L52 26L52 25L50 25L50 24L49 24L49 23L51 23L51 24L53 24L53 25L54 25L54 24L53 24L53 22L55 22L55 21L56 21L56 23L55 23L55 25L56 25L56 23L57 23L57 24L58 24L58 25L59 25L59 22L60 22L60 23L61 23L61 22L62 22L62 24L63 24L63 22L62 22L62 21L61 21L61 20L62 20L62 19L63 19L63 18L62 18L62 19L61 19L61 20L60 20L60 21L59 21L59 20L57 20L57 21L56 21L56 19L58 19L58 18L60 18L60 17L64 17L64 15L62 15L62 16L61 16L61 14L60 14L60 15L59 15L59 14L58 14L58 13L59 13L59 12ZM12 14L12 15L13 15L13 14ZM23 14L23 18L24 18L24 14ZM25 14L25 16L26 16L26 17L28 17L28 18L30 18L30 17L28 17L28 16L26 16L26 14ZM32 15L32 16L33 16L33 15ZM36 15L36 16L37 16L37 17L35 17L35 18L34 18L34 19L29 19L29 20L27 20L27 18L26 18L26 19L25 19L25 20L27 20L27 21L30 21L30 20L31 20L31 24L30 24L30 22L29 22L29 24L30 24L30 25L31 25L31 24L32 24L32 22L34 22L34 23L33 23L33 25L34 25L34 24L35 24L35 22L34 22L34 21L33 21L33 20L34 20L34 19L35 19L35 18L36 18L36 19L37 19L37 17L38 17L38 16L37 16L37 15ZM58 15L58 17L59 17L59 15ZM8 16L8 17L11 17L11 18L12 18L12 17L11 17L11 16ZM16 19L16 20L17 20L17 19ZM20 19L20 22L23 22L23 21L21 21L21 19ZM53 19L53 21L50 21L50 22L53 22L53 21L54 21L54 19ZM4 20L4 21L5 21L5 20ZM57 21L57 22L59 22L59 21ZM11 22L11 23L12 23L12 22ZM25 22L25 23L26 23L26 22ZM47 24L47 25L46 25L46 26L45 26L45 28L47 28L47 29L49 29L49 27L50 27L50 26L48 26L48 24ZM26 25L26 27L28 27L28 25ZM46 26L46 27L47 27L47 26ZM54 26L54 27L55 27L55 26ZM37 27L37 28L38 28L38 27ZM7 29L7 30L6 30L6 31L7 31L7 30L8 30L8 31L9 31L9 32L10 32L10 33L11 33L11 31L12 31L12 30L11 30L11 31L10 31L10 30L8 30L8 29ZM15 29L15 30L17 30L17 29ZM56 29L56 31L55 31L55 33L56 33L56 34L57 34L57 36L56 36L56 37L57 37L57 36L58 36L58 34L59 34L59 33L57 33L57 32L56 32L56 31L59 31L59 30L57 30L57 29ZM18 30L18 31L19 31L19 30ZM32 30L32 31L33 31L33 30ZM51 30L51 31L52 31L52 30ZM61 30L61 31L62 31L62 30ZM24 31L24 32L25 32L25 31ZM35 31L35 32L36 32L36 31ZM38 31L38 32L40 32L40 31ZM5 33L5 36L8 36L8 33ZM33 33L33 36L36 36L36 33ZM38 33L38 34L37 34L37 35L38 35L38 34L40 34L40 33ZM61 33L61 36L64 36L64 33ZM6 34L6 35L7 35L7 34ZM34 34L34 35L35 35L35 34ZM51 34L51 35L52 35L52 34ZM62 34L62 35L63 35L63 34ZM12 36L12 37L13 37L13 36ZM14 36L14 37L15 37L15 38L13 38L13 40L14 40L14 41L16 41L16 42L17 42L17 43L18 43L18 44L17 44L17 46L18 46L18 48L16 48L16 49L17 49L17 50L18 50L18 48L20 48L20 47L19 47L19 46L20 46L20 45L23 45L23 46L22 46L22 48L23 48L23 49L24 49L24 47L23 47L23 46L25 46L25 45L23 45L23 44L22 44L22 43L23 43L23 42L25 42L25 43L24 43L24 44L25 44L25 43L27 43L27 42L28 42L28 43L29 43L29 41L27 41L27 40L25 40L25 39L23 39L23 37L24 37L24 36L23 36L23 37L22 37L22 39L23 39L23 41L21 41L21 44L20 44L20 40L21 40L21 39L18 39L18 38L16 38L16 37L15 37L15 36ZM44 36L44 38L45 38L45 39L47 39L47 40L46 40L46 41L49 41L49 40L50 40L50 39L51 39L51 38L49 38L49 37L46 37L46 38L45 38L45 36ZM32 37L32 39L33 39L33 40L34 40L34 39L36 39L36 37ZM33 38L33 39L34 39L34 38ZM47 38L47 39L49 39L49 38ZM6 39L6 40L7 40L7 39ZM14 39L14 40L16 40L16 41L17 41L17 42L19 42L19 40L18 40L18 39ZM68 39L68 40L69 40L69 39ZM24 40L24 41L25 41L25 42L27 42L27 41L25 41L25 40ZM65 41L65 42L66 42L66 41ZM68 41L68 42L69 42L69 41ZM10 42L10 43L11 43L11 45L10 45L10 44L8 44L8 45L6 45L6 46L4 46L4 47L5 47L5 48L7 48L7 47L6 47L6 46L8 46L8 48L9 48L9 45L10 45L10 46L11 46L11 45L13 45L13 44L12 44L12 42ZM30 42L30 43L31 43L31 42ZM35 42L35 43L36 43L36 42ZM37 42L37 45L35 45L35 44L33 44L33 43L32 43L32 44L31 44L31 45L30 45L30 44L29 44L29 45L30 45L30 47L31 47L31 48L29 48L29 46L28 46L28 44L27 44L27 45L26 45L26 47L27 47L27 46L28 46L28 48L29 48L29 50L30 50L30 51L33 51L33 50L32 50L32 49L33 49L33 48L32 48L32 47L31 47L31 45L33 45L33 46L34 46L34 47L35 47L35 48L37 48L37 49L36 49L36 50L37 50L37 51L35 51L35 50L34 50L34 51L35 51L35 53L32 53L32 52L31 52L31 54L33 54L33 55L35 55L35 56L36 56L36 59L37 59L37 58L38 58L38 59L39 59L39 58L38 58L38 56L39 56L39 55L37 55L37 56L36 56L36 54L37 54L37 52L39 52L39 53L38 53L38 54L39 54L39 53L40 53L40 52L41 52L41 51L38 51L38 50L40 50L40 49L39 49L39 48L37 48L37 47L36 47L36 46L38 46L38 47L40 47L40 48L42 48L42 49L44 49L44 48L43 48L43 45L42 45L42 44L41 44L41 45L40 45L40 44L39 44L39 43L38 43L38 42ZM45 42L45 43L46 43L46 42ZM57 42L57 43L58 43L58 42ZM18 44L18 45L20 45L20 44ZM38 44L38 46L39 46L39 44ZM34 45L34 46L35 46L35 45ZM41 45L41 47L42 47L42 45ZM15 46L15 47L16 47L16 46ZM31 48L31 49L30 49L30 50L31 50L31 49L32 49L32 48ZM4 49L4 50L3 50L3 52L4 52L4 51L5 51L5 53L4 53L4 54L5 54L5 53L6 53L6 54L8 54L8 55L9 55L9 54L8 54L8 52L9 52L9 51L8 51L8 49L6 49L6 50L7 50L7 51L5 51L5 49ZM21 49L21 50L22 50L22 49ZM56 49L56 50L55 50L55 51L56 51L56 50L57 50L57 51L58 51L58 50L57 50L57 49ZM67 49L67 50L68 50L68 49ZM7 51L7 52L6 52L6 53L7 53L7 52L8 52L8 51ZM45 51L45 53L46 53L46 51ZM35 53L35 54L36 54L36 53ZM60 53L60 54L61 54L61 53ZM27 55L27 56L29 56L29 55ZM45 56L45 57L46 57L46 56ZM5 57L5 58L7 58L7 57ZM14 57L14 58L15 58L15 57ZM52 57L52 58L53 58L53 57ZM0 58L0 61L1 61L1 58ZM34 58L34 59L35 59L35 58ZM44 58L44 59L43 59L43 61L44 61L44 60L45 60L45 63L44 63L44 64L43 64L43 65L45 65L45 63L47 63L47 62L46 62L46 59L45 59L45 58ZM57 58L57 59L58 59L58 58ZM10 59L10 61L11 61L11 59ZM16 59L16 60L15 60L15 61L14 61L14 64L15 64L15 63L16 63L16 65L17 65L17 63L20 63L20 64L21 64L21 63L20 63L20 62L18 62L18 60L17 60L17 59ZM52 59L52 61L51 61L51 62L53 62L53 63L54 63L54 62L56 62L56 61L53 61L53 59ZM61 59L61 60L62 60L62 59ZM66 59L66 60L65 60L65 63L67 63L67 61L66 61L66 60L67 60L67 59ZM3 60L3 61L5 61L5 60ZM15 61L15 62L16 62L16 63L17 63L17 62L16 62L16 61ZM33 61L33 64L36 64L36 61ZM61 61L61 64L64 64L64 61ZM11 62L11 63L13 63L13 62ZM34 62L34 63L35 63L35 62ZM62 62L62 63L63 63L63 62ZM51 64L51 65L52 65L52 64ZM20 65L20 67L21 67L21 65ZM33 65L33 67L34 67L34 65ZM37 65L37 66L39 66L39 68L40 68L40 66L39 66L39 65ZM46 65L46 68L45 68L45 69L48 69L48 68L49 68L49 67L48 67L48 68L47 68L47 65ZM48 65L48 66L49 66L49 65ZM53 65L53 66L52 66L52 67L53 67L53 68L51 68L51 66L50 66L50 68L51 68L51 69L53 69L53 68L54 68L54 69L55 69L55 68L54 68L54 67L56 67L56 66L54 66L54 65ZM62 65L62 66L61 66L61 67L62 67L62 66L63 66L63 65ZM44 66L44 67L45 67L45 66ZM25 67L25 68L26 68L26 67ZM58 67L58 68L59 68L59 67ZM68 67L68 68L69 68L69 67ZM0 0L0 7L7 7L7 0ZM1 1L1 6L6 6L6 1ZM2 2L2 5L5 5L5 2ZM62 0L62 7L69 7L69 0ZM63 1L63 6L68 6L68 1ZM64 2L64 5L67 5L67 2ZM0 62L0 69L7 69L7 62ZM1 63L1 68L6 68L6 63ZM2 64L2 67L5 67L5 64Z" fill="#000000"/></g></g></svg>
