<?xml version="1.0" encoding="UTF-8"?>
<svg xmlns="http://www.w3.org/2000/svg" version="1.1" width="300" height="300" viewBox="0 0 300 300"><rect x="0" y="0" width="300" height="300" fill="#ffffff"/><g transform="scale(4.348)"><g transform="translate(0,0)"><path fill-rule="evenodd" d="M12 0L12 2L11 2L11 1L10 1L10 2L9 2L9 1L8 1L8 2L9 2L9 3L8 3L8 4L10 4L10 3L12 3L12 4L11 4L11 5L8 5L8 7L9 7L9 8L6 8L6 9L5 9L5 8L0 8L0 11L1 11L1 15L0 15L0 16L1 16L1 15L2 15L2 11L1 11L1 10L2 10L2 9L3 9L3 12L4 12L4 13L3 13L3 15L5 15L5 16L6 16L6 17L7 17L7 18L5 18L5 17L4 17L4 18L3 18L3 17L2 17L2 18L1 18L1 19L0 19L0 20L3 20L3 21L1 21L1 22L0 22L0 23L1 23L1 24L2 24L2 25L0 25L0 31L1 31L1 32L0 32L0 33L1 33L1 32L2 32L2 35L0 35L0 37L1 37L1 38L2 38L2 37L3 37L3 38L4 38L4 37L7 37L7 38L6 38L6 39L7 39L7 40L4 40L4 41L5 41L5 44L4 44L4 45L5 45L5 47L7 47L7 46L6 46L6 45L7 45L7 44L6 44L6 43L8 43L8 45L9 45L9 46L8 46L8 48L11 48L11 47L9 47L9 46L11 46L11 43L13 43L13 44L12 44L12 45L15 45L15 44L16 44L16 43L15 43L15 42L16 42L16 41L15 41L15 40L17 40L17 41L19 41L19 44L17 44L17 45L19 45L19 46L20 46L20 48L22 48L22 47L23 47L23 48L24 48L24 47L25 47L25 48L26 48L26 47L25 47L25 46L26 46L26 43L27 43L27 45L28 45L28 44L29 44L29 42L28 42L28 43L27 43L27 41L26 41L26 40L27 40L27 39L26 39L26 38L27 38L27 37L28 37L28 36L29 36L29 38L28 38L28 39L30 39L30 38L31 38L31 37L32 37L32 41L30 41L30 40L28 40L28 41L30 41L30 42L33 42L33 44L32 44L32 45L33 45L33 46L32 46L32 47L33 47L33 48L36 48L36 47L37 47L37 48L38 48L38 47L37 47L37 46L38 46L38 45L39 45L39 46L40 46L40 47L39 47L39 48L40 48L40 47L41 47L41 48L42 48L42 49L41 49L41 50L38 50L38 49L37 49L37 50L36 50L36 49L31 49L31 47L30 47L30 48L29 48L29 49L31 49L31 50L33 50L33 51L34 51L34 50L36 50L36 51L35 51L35 52L38 52L38 53L37 53L37 54L39 54L39 56L41 56L41 57L39 57L39 62L38 62L38 59L37 59L37 58L38 58L38 57L36 57L36 56L38 56L38 55L36 55L36 54L35 54L35 55L34 55L34 54L33 54L33 53L34 53L34 52L32 52L32 51L29 51L29 52L28 52L28 51L27 51L27 50L28 50L28 49L27 49L27 50L26 50L26 49L23 49L23 50L26 50L26 51L27 51L27 52L28 52L28 53L29 53L29 54L30 54L30 55L29 55L29 56L30 56L30 57L29 57L29 59L30 59L30 60L28 60L28 61L27 61L27 62L25 62L25 61L26 61L26 60L27 60L27 59L28 59L28 58L27 58L27 57L28 57L28 55L27 55L27 54L26 54L26 55L27 55L27 57L26 57L26 56L25 56L25 53L26 53L26 52L24 52L24 51L23 51L23 54L22 54L22 53L21 53L21 54L22 54L22 55L21 55L21 56L20 56L20 57L19 57L19 56L18 56L18 54L20 54L20 53L19 53L19 52L22 52L22 51L21 51L21 50L22 50L22 49L18 49L18 48L17 48L17 47L18 47L18 46L14 46L14 47L13 47L13 46L12 46L12 47L13 47L13 48L12 48L12 49L11 49L11 50L10 50L10 52L11 52L11 53L9 53L9 51L8 51L8 50L9 50L9 49L8 49L8 50L5 50L5 49L7 49L7 48L5 48L5 49L4 49L4 48L3 48L3 49L0 49L0 51L1 51L1 52L2 52L2 54L1 54L1 53L0 53L0 54L1 54L1 56L0 56L0 57L1 57L1 56L2 56L2 59L3 59L3 57L4 57L4 59L8 59L8 58L6 58L6 57L8 57L8 56L11 56L11 57L12 57L12 56L11 56L11 55L15 55L15 57L16 57L16 58L12 58L12 60L10 60L10 59L11 59L11 58L10 58L10 57L9 57L9 61L8 61L8 63L9 63L9 64L8 64L8 69L9 69L9 68L10 68L10 69L14 69L14 67L15 67L15 68L16 68L16 69L22 69L22 68L18 68L18 67L20 67L20 66L19 66L19 65L20 65L20 64L19 64L19 63L21 63L21 62L20 62L20 61L19 61L19 60L18 60L18 59L19 59L19 58L20 58L20 59L22 59L22 60L21 60L21 61L22 61L22 64L24 64L24 65L21 65L21 66L22 66L22 67L23 67L23 66L25 66L25 67L24 67L24 68L23 68L23 69L24 69L24 68L25 68L25 67L28 67L28 68L29 68L29 69L32 69L32 67L34 67L34 68L36 68L36 69L38 69L38 68L37 68L37 66L38 66L38 67L39 67L39 66L38 66L38 65L37 65L37 64L38 64L38 63L39 63L39 64L41 64L41 66L40 66L40 67L41 67L41 68L42 68L42 67L41 67L41 66L44 66L44 68L43 68L43 69L44 69L44 68L47 68L47 69L49 69L49 68L47 68L47 67L50 67L50 69L51 69L51 68L52 68L52 67L53 67L53 69L54 69L54 68L55 68L55 69L56 69L56 68L55 68L55 67L57 67L57 69L58 69L58 68L59 68L59 69L62 69L62 67L63 67L63 68L64 68L64 69L65 69L65 68L67 68L67 69L68 69L68 68L67 68L67 67L63 67L63 65L64 65L64 66L65 66L65 64L67 64L67 65L66 65L66 66L67 66L67 65L68 65L68 64L69 64L69 63L68 63L68 62L67 62L67 60L69 60L69 59L68 59L68 57L67 57L67 55L68 55L68 56L69 56L69 55L68 55L68 54L69 54L69 53L68 53L68 54L66 54L66 52L68 52L68 50L69 50L69 49L68 49L68 48L69 48L69 47L68 47L68 45L69 45L69 44L68 44L68 43L67 43L67 42L69 42L69 39L68 39L68 38L65 38L65 39L63 39L63 41L62 41L62 42L61 42L61 44L60 44L60 45L59 45L59 44L58 44L58 43L57 43L57 45L56 45L56 43L55 43L55 45L54 45L54 43L53 43L53 42L55 42L55 41L56 41L56 42L57 42L57 41L59 41L59 40L60 40L60 41L61 41L61 40L60 40L60 39L62 39L62 38L64 38L64 37L65 37L65 36L67 36L67 37L68 37L68 36L69 36L69 35L68 35L68 34L69 34L69 33L68 33L68 34L67 34L67 33L66 33L66 32L67 32L67 31L64 31L64 32L63 32L63 30L62 30L62 29L63 29L63 27L64 27L64 28L69 28L69 27L68 27L68 26L67 26L67 27L64 27L64 26L66 26L66 25L69 25L69 24L68 24L68 23L67 23L67 22L69 22L69 21L68 21L68 18L69 18L69 17L68 17L68 16L69 16L69 15L68 15L68 13L67 13L67 12L68 12L68 10L69 10L69 9L68 9L68 8L67 8L67 9L66 9L66 8L65 8L65 9L64 9L64 8L63 8L63 9L64 9L64 10L65 10L65 9L66 9L66 10L67 10L67 11L64 11L64 12L66 12L66 13L67 13L67 14L64 14L64 13L63 13L63 10L62 10L62 8L60 8L60 7L61 7L61 6L60 6L60 7L59 7L59 4L58 4L58 3L59 3L59 2L56 2L56 3L55 3L55 0L52 0L52 1L51 1L51 3L52 3L52 1L53 1L53 2L54 2L54 3L55 3L55 4L53 4L53 5L50 5L50 4L49 4L49 3L48 3L48 1L50 1L50 0L47 0L47 1L45 1L45 0L44 0L44 1L45 1L45 2L44 2L44 3L43 3L43 0L41 0L41 1L35 1L35 4L33 4L33 2L32 2L32 1L31 1L31 2L30 2L30 0L28 0L28 1L26 1L26 2L25 2L25 0L21 0L21 1L22 1L22 2L23 2L23 1L24 1L24 2L25 2L25 4L22 4L22 3L20 3L20 4L19 4L19 3L18 3L18 2L17 2L17 3L16 3L16 4L15 4L15 6L14 6L14 8L12 8L12 7L13 7L13 5L14 5L14 3L13 3L13 0ZM17 0L17 1L19 1L19 2L20 2L20 1L19 1L19 0ZM56 0L56 1L61 1L61 0ZM14 1L14 2L15 2L15 1ZM41 1L41 2L37 2L37 3L38 3L38 4L37 4L37 5L38 5L38 6L37 6L37 7L38 7L38 6L39 6L39 7L40 7L40 6L41 6L41 8L37 8L37 9L38 9L38 10L36 10L36 9L33 9L33 10L32 10L32 9L31 9L31 8L32 8L32 5L30 5L30 6L29 6L29 7L28 7L28 5L29 5L29 3L28 3L28 2L26 2L26 4L25 4L25 5L24 5L24 6L23 6L23 5L22 5L22 4L20 4L20 5L19 5L19 4L18 4L18 5L19 5L19 9L17 9L17 11L16 11L16 10L15 10L15 11L14 11L14 10L13 10L13 9L10 9L10 8L11 8L11 7L12 7L12 5L13 5L13 4L12 4L12 5L11 5L11 7L10 7L10 6L9 6L9 7L10 7L10 8L9 8L9 9L8 9L8 10L7 10L7 9L6 9L6 10L7 10L7 11L4 11L4 12L5 12L5 13L4 13L4 14L10 14L10 16L9 16L9 15L8 15L8 17L9 17L9 18L8 18L8 19L10 19L10 18L13 18L13 17L11 17L11 16L12 16L12 15L13 15L13 14L14 14L14 15L15 15L15 14L16 14L16 16L15 16L15 17L14 17L14 18L15 18L15 17L17 17L17 18L16 18L16 19L14 19L14 21L11 21L11 20L9 20L9 21L8 21L8 20L7 20L7 19L5 19L5 18L4 18L4 19L3 19L3 20L4 20L4 21L5 21L5 22L4 22L4 24L3 24L3 25L2 25L2 26L3 26L3 28L5 28L5 29L3 29L3 30L2 30L2 32L3 32L3 31L4 31L4 32L5 32L5 29L6 29L6 30L7 30L7 29L9 29L9 31L10 31L10 32L9 32L9 37L8 37L8 39L9 39L9 41L8 41L8 43L10 43L10 42L13 42L13 41L14 41L14 42L15 42L15 41L14 41L14 40L15 40L15 39L16 39L16 38L17 38L17 40L18 40L18 39L19 39L19 38L17 38L17 36L18 36L18 35L19 35L19 37L20 37L20 39L21 39L21 40L22 40L22 41L20 41L20 43L21 43L21 45L20 45L20 44L19 44L19 45L20 45L20 46L21 46L21 45L24 45L24 44L25 44L25 43L26 43L26 41L24 41L24 40L26 40L26 39L25 39L25 38L23 38L23 36L24 36L24 37L25 37L25 36L26 36L26 37L27 37L27 36L28 36L28 35L26 35L26 34L28 34L28 33L29 33L29 35L31 35L31 34L32 34L32 32L34 32L34 31L33 31L33 30L34 30L34 29L36 29L36 28L35 28L35 27L36 27L36 26L35 26L35 25L36 25L36 23L34 23L34 22L35 22L35 21L36 21L36 20L37 20L37 21L38 21L38 20L37 20L37 19L39 19L39 20L40 20L40 22L41 22L41 20L40 20L40 19L39 19L39 18L41 18L41 17L42 17L42 16L44 16L44 17L43 17L43 19L42 19L42 21L43 21L43 20L44 20L44 22L43 22L43 24L44 24L44 25L43 25L43 26L46 26L46 27L43 27L43 28L44 28L44 29L43 29L43 30L42 30L42 27L37 27L37 28L40 28L40 29L38 29L38 30L37 30L37 31L39 31L39 30L40 30L40 31L43 31L43 32L39 32L39 33L38 33L38 32L37 32L37 33L38 33L38 34L37 34L37 36L38 36L38 37L36 37L36 38L35 38L35 37L34 37L34 38L33 38L33 40L34 40L34 41L33 41L33 42L34 42L34 41L35 41L35 42L36 42L36 43L35 43L35 44L33 44L33 45L38 45L38 43L40 43L40 44L39 44L39 45L40 45L40 44L41 44L41 43L40 43L40 41L41 41L41 40L44 40L44 42L43 42L43 44L44 44L44 45L46 45L46 46L42 46L42 45L41 45L41 46L42 46L42 48L43 48L43 47L44 47L44 49L43 49L43 50L44 50L44 49L45 49L45 52L44 52L44 51L43 51L43 52L42 52L42 50L41 50L41 52L40 52L40 51L39 51L39 52L40 52L40 53L39 53L39 54L40 54L40 55L42 55L42 54L40 54L40 53L43 53L43 56L42 56L42 57L43 57L43 60L42 60L42 58L41 58L41 59L40 59L40 62L39 62L39 63L41 63L41 64L44 64L44 66L45 66L45 67L46 67L46 66L49 66L49 65L50 65L50 67L51 67L51 66L52 66L52 65L55 65L55 66L53 66L53 67L55 67L55 66L56 66L56 65L57 65L57 67L58 67L58 66L59 66L59 65L60 65L60 64L59 64L59 63L56 63L56 62L59 62L59 61L60 61L60 60L61 60L61 59L60 59L60 60L59 60L59 61L57 61L57 60L58 60L58 59L59 59L59 57L60 57L60 56L61 56L61 58L62 58L62 60L65 60L65 59L67 59L67 57L66 57L66 56L63 56L63 57L62 57L62 56L61 56L61 52L59 52L59 49L60 49L60 48L61 48L61 49L63 49L63 50L62 50L62 51L64 51L64 53L63 53L63 52L62 52L62 55L65 55L65 52L66 52L66 51L67 51L67 48L68 48L68 47L67 47L67 48L65 48L65 47L66 47L66 44L65 44L65 43L66 43L66 42L67 42L67 41L68 41L68 40L65 40L65 41L63 41L63 42L62 42L62 44L61 44L61 45L62 45L62 44L63 44L63 46L62 46L62 47L60 47L60 46L59 46L59 45L57 45L57 46L58 46L58 47L56 47L56 45L55 45L55 48L56 48L56 51L53 51L53 48L54 48L54 47L53 47L53 46L51 46L51 45L53 45L53 44L51 44L51 45L50 45L50 43L51 43L51 42L53 42L53 40L51 40L51 37L53 37L53 34L54 34L54 35L55 35L55 34L56 34L56 33L57 33L57 34L59 34L59 36L58 36L58 35L56 35L56 37L55 37L55 36L54 36L54 37L55 37L55 39L56 39L56 41L57 41L57 39L60 39L60 37L59 37L59 36L60 36L60 34L59 34L59 33L57 33L57 31L58 31L58 30L59 30L59 31L60 31L60 30L59 30L59 29L60 29L60 28L58 28L58 27L59 27L59 25L58 25L58 24L57 24L57 22L58 22L58 23L59 23L59 24L60 24L60 23L59 23L59 21L62 21L62 22L61 22L61 23L62 23L62 24L61 24L61 25L62 25L62 26L61 26L61 29L62 29L62 27L63 27L63 26L64 26L64 25L65 25L65 23L64 23L64 22L67 22L67 21L66 21L66 20L65 20L65 19L67 19L67 18L63 18L63 17L66 17L66 16L65 16L65 15L64 15L64 16L62 16L62 14L63 14L63 13L62 13L62 12L55 12L55 11L56 11L56 9L57 9L57 10L59 10L59 11L62 11L62 10L59 10L59 8L58 8L58 4L57 4L57 3L56 3L56 4L57 4L57 5L55 5L55 7L56 7L56 6L57 6L57 8L56 8L56 9L55 9L55 8L54 8L54 9L55 9L55 10L53 10L53 11L54 11L54 12L52 12L52 10L51 10L51 9L53 9L53 8L52 8L52 6L51 6L51 9L50 9L50 5L49 5L49 9L50 9L50 10L47 10L47 7L48 7L48 6L47 6L47 5L48 5L48 4L47 4L47 2L45 2L45 3L44 3L44 5L43 5L43 7L42 7L42 5L41 5L41 4L42 4L42 3L41 3L41 2L42 2L42 1ZM31 2L31 4L32 4L32 2ZM27 3L27 4L26 4L26 5L27 5L27 4L28 4L28 3ZM45 3L45 4L46 4L46 3ZM60 3L60 5L61 5L61 3ZM39 4L39 6L40 6L40 4ZM20 5L20 9L19 9L19 11L18 11L18 12L17 12L17 13L18 13L18 14L17 14L17 15L18 15L18 14L20 14L20 15L21 15L21 16L23 16L23 17L18 17L18 16L17 16L17 17L18 17L18 20L17 20L17 21L16 21L16 20L15 20L15 21L14 21L14 22L13 22L13 23L12 23L12 22L11 22L11 23L12 23L12 24L10 24L10 25L8 25L8 24L9 24L9 23L10 23L10 22L8 22L8 23L7 23L7 22L5 22L5 23L7 23L7 24L6 24L6 25L3 25L3 26L4 26L4 27L5 27L5 28L6 28L6 29L7 29L7 28L9 28L9 29L10 29L10 31L11 31L11 29L13 29L13 28L14 28L14 29L16 29L16 28L17 28L17 29L19 29L19 30L18 30L18 31L17 31L17 32L16 32L16 33L15 33L15 31L16 31L16 30L15 30L15 31L13 31L13 30L12 30L12 31L13 31L13 34L14 34L14 36L16 36L16 35L15 35L15 34L16 34L16 33L17 33L17 34L19 34L19 35L20 35L20 34L19 34L19 33L20 33L20 32L21 32L21 31L22 31L22 32L23 32L23 33L22 33L22 34L21 34L21 36L20 36L20 37L21 37L21 36L23 36L23 35L24 35L24 34L25 34L25 33L28 33L28 32L27 32L27 31L30 31L30 32L29 32L29 33L30 33L30 34L31 34L31 32L32 32L32 30L33 30L33 29L34 29L34 28L33 28L33 27L29 27L29 26L31 26L31 24L32 24L32 23L33 23L33 22L32 22L32 19L31 19L31 20L29 20L29 21L31 21L31 22L30 22L30 23L28 23L28 24L27 24L27 23L26 23L26 22L27 22L27 21L26 21L26 19L27 19L27 20L28 20L28 19L27 19L27 18L28 18L28 17L27 17L27 18L26 18L26 17L25 17L25 16L26 16L26 15L24 15L24 16L23 16L23 15L22 15L22 14L27 14L27 13L26 13L26 11L27 11L27 12L29 12L29 14L28 14L28 15L29 15L29 14L30 14L30 15L31 15L31 16L29 16L29 17L32 17L32 18L33 18L33 19L34 19L34 18L35 18L35 19L37 19L37 18L38 18L38 15L39 15L39 16L40 16L40 15L42 15L42 14L43 14L43 13L44 13L44 14L45 14L45 15L44 15L44 16L45 16L45 17L46 17L46 16L47 16L47 18L48 18L48 19L47 19L47 20L46 20L46 21L47 21L47 22L48 22L48 21L49 21L49 23L50 23L50 25L49 25L49 24L48 24L48 23L47 23L47 24L46 24L46 22L44 22L44 23L45 23L45 24L46 24L46 25L47 25L47 26L48 26L48 27L49 27L49 28L47 28L47 27L46 27L46 28L47 28L47 31L49 31L49 32L46 32L46 31L45 31L45 30L44 30L44 32L43 32L43 33L40 33L40 36L42 36L42 37L41 37L41 39L40 39L40 37L39 37L39 40L41 40L41 39L45 39L45 40L47 40L47 41L49 41L49 43L50 43L50 40L47 40L47 38L45 38L45 37L49 37L49 39L50 39L50 37L51 37L51 36L52 36L52 35L51 35L51 36L50 36L50 37L49 37L49 36L45 36L45 33L47 33L47 34L48 34L48 35L50 35L50 33L49 33L49 32L50 32L50 31L49 31L49 30L50 30L50 29L49 29L49 28L50 28L50 27L51 27L51 28L52 28L52 27L53 27L53 26L54 26L54 28L53 28L53 30L54 30L54 31L56 31L56 30L58 30L58 29L56 29L56 24L55 24L55 22L56 22L56 21L53 21L53 22L51 22L51 23L50 23L50 21L49 21L49 20L51 20L51 19L52 19L52 20L54 20L54 19L53 19L53 18L55 18L55 20L59 20L59 19L60 19L60 20L62 20L62 19L63 19L63 20L64 20L64 19L63 19L63 18L62 18L62 16L61 16L61 15L60 15L60 17L59 17L59 19L57 19L57 18L55 18L55 17L56 17L56 16L58 16L58 14L57 14L57 15L56 15L56 16L54 16L54 17L51 17L51 15L53 15L53 14L56 14L56 13L55 13L55 12L54 12L54 13L53 13L53 14L52 14L52 13L51 13L51 11L49 11L49 12L46 12L46 13L47 13L47 14L50 14L50 13L51 13L51 15L49 15L49 16L47 16L47 15L46 15L46 14L45 14L45 13L44 13L44 12L43 12L43 13L42 13L42 14L41 14L41 12L42 12L42 10L45 10L45 9L46 9L46 7L47 7L47 6L46 6L46 5L44 5L44 7L45 7L45 9L44 9L44 8L43 8L43 9L39 9L39 11L38 11L38 13L39 13L39 14L37 14L37 13L36 13L36 12L34 12L34 13L33 13L33 14L32 14L32 15L31 15L31 14L30 14L30 13L32 13L32 12L29 12L29 11L28 11L28 9L30 9L30 11L32 11L32 10L31 10L31 9L30 9L30 8L28 8L28 9L27 9L27 10L26 10L26 7L27 7L27 6L26 6L26 7L25 7L25 6L24 6L24 9L23 9L23 10L22 10L22 11L23 11L23 12L24 12L24 13L22 13L22 14L20 14L20 13L21 13L21 12L20 12L20 11L21 11L21 10L20 10L20 9L22 9L22 8L21 8L21 6L22 6L22 7L23 7L23 6L22 6L22 5ZM33 5L33 8L36 8L36 5ZM53 5L53 7L54 7L54 5ZM15 6L15 7L16 7L16 6ZM17 6L17 7L18 7L18 6ZM30 6L30 7L31 7L31 6ZM34 6L34 7L35 7L35 6ZM45 6L45 7L46 7L46 6ZM15 8L15 9L16 9L16 8ZM4 9L4 10L5 10L5 9ZM9 9L9 10L8 10L8 11L7 11L7 12L6 12L6 13L8 13L8 11L9 11L9 13L10 13L10 12L11 12L11 15L12 15L12 12L13 12L13 13L14 13L14 14L15 14L15 13L16 13L16 11L15 11L15 12L13 12L13 11L12 11L12 12L11 12L11 10L10 10L10 9ZM24 9L24 10L23 10L23 11L24 11L24 12L25 12L25 9ZM9 10L9 11L10 11L10 10ZM35 10L35 11L36 11L36 10ZM40 10L40 12L39 12L39 13L40 13L40 12L41 12L41 10ZM19 12L19 13L20 13L20 12ZM49 12L49 13L50 13L50 12ZM34 13L34 14L33 14L33 15L32 15L32 17L33 17L33 18L34 18L34 17L35 17L35 13ZM59 13L59 14L62 14L62 13ZM39 14L39 15L40 15L40 14ZM6 15L6 16L7 16L7 15ZM33 15L33 16L34 16L34 15ZM36 15L36 16L37 16L37 15ZM45 15L45 16L46 16L46 15ZM67 15L67 16L68 16L68 15ZM50 17L50 19L51 19L51 17ZM19 18L19 19L20 19L20 18ZM21 18L21 20L19 20L19 21L20 21L20 23L22 23L22 22L23 22L23 21L25 21L25 22L24 22L24 23L23 23L23 24L24 24L24 23L25 23L25 24L26 24L26 27L27 27L27 26L29 26L29 25L30 25L30 24L29 24L29 25L27 25L27 24L26 24L26 23L25 23L25 22L26 22L26 21L25 21L25 20L24 20L24 18ZM44 18L44 19L46 19L46 18ZM60 18L60 19L62 19L62 18ZM4 19L4 20L5 20L5 21L7 21L7 20L5 20L5 19ZM48 19L48 20L47 20L47 21L48 21L48 20L49 20L49 19ZM17 21L17 22L16 22L16 23L17 23L17 22L18 22L18 23L19 23L19 22L18 22L18 21ZM63 21L63 22L62 22L62 23L63 23L63 24L64 24L64 23L63 23L63 22L64 22L64 21ZM2 22L2 23L3 23L3 22ZM31 22L31 23L32 23L32 22ZM37 22L37 26L41 26L41 25L42 25L42 24L39 24L39 25L38 25L38 23L39 23L39 22ZM53 22L53 23L52 23L52 24L51 24L51 25L50 25L50 26L53 26L53 25L54 25L54 24L53 24L53 23L54 23L54 22ZM12 24L12 25L11 25L11 26L10 26L10 27L9 27L9 28L10 28L10 29L11 29L11 28L12 28L12 27L13 27L13 26L14 26L14 28L16 28L16 27L15 27L15 26L16 26L16 25L17 25L17 24L16 24L16 25L15 25L15 26L14 26L14 24ZM21 24L21 25L20 25L20 26L19 26L19 25L18 25L18 27L17 27L17 28L20 28L20 30L19 30L19 32L20 32L20 30L22 30L22 29L23 29L23 30L24 30L24 29L25 29L25 28L24 28L24 27L23 27L23 26L24 26L24 25L22 25L22 24ZM33 24L33 25L32 25L32 26L33 26L33 25L35 25L35 24ZM47 24L47 25L48 25L48 26L49 26L49 25L48 25L48 24ZM6 25L6 26L5 26L5 27L6 27L6 28L7 28L7 27L6 27L6 26L7 26L7 25ZM12 25L12 26L11 26L11 27L10 27L10 28L11 28L11 27L12 27L12 26L13 26L13 25ZM21 25L21 26L22 26L22 25ZM34 26L34 27L35 27L35 26ZM57 26L57 27L58 27L58 26ZM1 27L1 29L2 29L2 27ZM20 27L20 28L21 28L21 29L22 29L22 28L23 28L23 29L24 29L24 28L23 28L23 27L22 27L22 28L21 28L21 27ZM26 28L26 30L29 30L29 29L30 29L30 30L31 30L31 29L32 29L32 28L31 28L31 29L30 29L30 28L29 28L29 29L28 29L28 28ZM48 29L48 30L49 30L49 29ZM64 29L64 30L65 30L65 29ZM67 29L67 30L69 30L69 29ZM51 30L51 31L52 31L52 30ZM61 30L61 32L62 32L62 30ZM6 31L6 32L7 32L7 31ZM24 31L24 33L25 33L25 32L26 32L26 31ZM68 31L68 32L69 32L69 31ZM11 32L11 34L12 34L12 32ZM17 32L17 33L18 33L18 32ZM44 32L44 33L43 33L43 34L41 34L41 35L43 35L43 36L44 36L44 37L45 37L45 36L44 36L44 33L45 33L45 32ZM53 32L53 33L54 33L54 34L55 34L55 33L56 33L56 32L55 32L55 33L54 33L54 32ZM5 33L5 36L8 36L8 33ZM14 33L14 34L15 34L15 33ZM33 33L33 36L36 36L36 33ZM48 33L48 34L49 34L49 33ZM61 33L61 36L64 36L64 33ZM3 34L3 35L2 35L2 36L3 36L3 37L4 37L4 36L3 36L3 35L4 35L4 34ZM6 34L6 35L7 35L7 34ZM34 34L34 35L35 35L35 34ZM62 34L62 35L63 35L63 34ZM65 34L65 35L67 35L67 36L68 36L68 35L67 35L67 34ZM11 35L11 36L10 36L10 37L9 37L9 39L10 39L10 40L11 40L11 41L12 41L12 40L14 40L14 39L15 39L15 38L14 38L14 37L12 37L12 36L13 36L13 35ZM56 37L56 39L57 39L57 37ZM10 38L10 39L11 39L11 40L12 40L12 39L13 39L13 38L12 38L12 39L11 39L11 38ZM21 38L21 39L22 39L22 38ZM36 38L36 39L35 39L35 40L38 40L38 38ZM52 38L52 39L54 39L54 38ZM0 39L0 42L1 42L1 44L2 44L2 45L1 45L1 47L0 47L0 48L2 48L2 47L3 47L3 46L2 46L2 45L3 45L3 42L1 42L1 41L3 41L3 39L2 39L2 40L1 40L1 39ZM54 40L54 41L55 41L55 40ZM6 41L6 42L7 42L7 41ZM23 41L23 42L24 42L24 41ZM37 41L37 43L36 43L36 44L37 44L37 43L38 43L38 41ZM65 41L65 42L63 42L63 43L65 43L65 42L66 42L66 41ZM44 42L44 43L45 43L45 42ZM46 42L46 43L47 43L47 46L46 46L46 47L45 47L45 49L46 49L46 47L47 47L47 48L48 48L48 49L47 49L47 50L48 50L48 51L46 51L46 52L45 52L45 53L44 53L44 52L43 52L43 53L44 53L44 56L43 56L43 57L44 57L44 56L46 56L46 57L47 57L47 59L50 59L50 60L47 60L47 62L43 62L43 61L44 61L44 60L46 60L46 58L45 58L45 59L44 59L44 60L43 60L43 61L42 61L42 60L41 60L41 62L42 62L42 63L44 63L44 64L45 64L45 66L46 66L46 64L45 64L45 63L47 63L47 62L50 62L50 60L52 60L52 59L53 59L53 58L55 58L55 57L56 57L56 55L57 55L57 57L59 57L59 56L60 56L60 55L59 55L59 56L58 56L58 54L57 54L57 53L58 53L58 52L57 52L57 53L56 53L56 52L53 52L53 51L52 51L52 52L51 52L51 54L52 54L52 56L50 56L50 57L49 57L49 56L46 56L46 54L45 54L45 53L48 53L48 54L47 54L47 55L48 55L48 54L49 54L49 55L50 55L50 51L51 51L51 50L48 50L48 49L49 49L49 48L48 48L48 47L47 47L47 46L50 46L50 47L51 47L51 48L50 48L50 49L51 49L51 48L52 48L52 47L51 47L51 46L50 46L50 45L49 45L49 44L48 44L48 42ZM14 43L14 44L15 44L15 43ZM23 43L23 44L24 44L24 43ZM30 43L30 45L29 45L29 46L27 46L27 48L28 48L28 47L29 47L29 46L30 46L30 45L31 45L31 43ZM5 44L5 45L6 45L6 44ZM9 44L9 45L10 45L10 44ZM67 44L67 45L68 45L68 44ZM23 46L23 47L24 47L24 46ZM33 46L33 47L34 47L34 46ZM35 46L35 47L36 47L36 46ZM63 46L63 47L64 47L64 46ZM14 47L14 48L13 48L13 49L12 49L12 50L11 50L11 52L12 52L12 53L11 53L11 54L9 54L9 53L4 53L4 52L8 52L8 51L5 51L5 50L4 50L4 51L3 51L3 50L2 50L2 52L3 52L3 53L4 53L4 56L5 56L5 57L6 57L6 56L7 56L7 55L5 55L5 54L9 54L9 55L11 55L11 54L12 54L12 53L13 53L13 54L14 54L14 53L15 53L15 54L16 54L16 55L17 55L17 54L18 54L18 53L17 53L17 52L19 52L19 51L20 51L20 50L18 50L18 49L17 49L17 48L15 48L15 47ZM58 47L58 48L57 48L57 49L59 49L59 47ZM63 48L63 49L64 49L64 48ZM65 49L65 51L66 51L66 49ZM14 50L14 51L17 51L17 50ZM37 50L37 51L38 51L38 50ZM57 50L57 51L58 51L58 50ZM60 50L60 51L61 51L61 50ZM12 51L12 52L13 52L13 53L14 53L14 52L13 52L13 51ZM15 52L15 53L16 53L16 52ZM31 52L31 53L30 53L30 54L31 54L31 55L32 55L32 56L33 56L33 57L32 57L32 58L31 58L31 59L34 59L34 60L35 60L35 59L34 59L34 58L36 58L36 57L35 57L35 56L34 56L34 55L33 55L33 54L32 54L32 52ZM52 52L52 53L53 53L53 52ZM55 53L55 54L54 54L54 55L53 55L53 56L52 56L52 57L50 57L50 59L51 59L51 58L52 58L52 57L54 57L54 56L55 56L55 54L56 54L56 53ZM59 53L59 54L60 54L60 53ZM2 54L2 56L3 56L3 54ZM23 54L23 56L24 56L24 54ZM16 56L16 57L17 57L17 56ZM21 56L21 57L20 57L20 58L21 58L21 57L22 57L22 59L23 59L23 60L22 60L22 61L25 61L25 60L24 60L24 59L23 59L23 58L24 58L24 57L22 57L22 56ZM48 57L48 58L49 58L49 57ZM65 57L65 58L66 58L66 57ZM0 58L0 61L1 61L1 58ZM17 58L17 59L18 59L18 58ZM26 58L26 59L27 59L27 58ZM56 58L56 59L55 59L55 60L54 60L54 61L51 61L51 63L53 63L53 64L55 64L55 65L56 65L56 64L55 64L55 61L56 61L56 59L58 59L58 58ZM63 58L63 59L64 59L64 58ZM13 59L13 60L12 60L12 63L13 63L13 60L15 60L15 61L14 61L14 64L12 64L12 65L11 65L11 66L15 66L15 67L16 67L16 68L17 68L17 67L16 67L16 66L17 66L17 65L18 65L18 64L17 64L17 63L18 63L18 62L19 62L19 61L18 61L18 62L17 62L17 60L16 60L16 59ZM3 60L3 61L5 61L5 60ZM6 60L6 61L7 61L7 60ZM31 60L31 62L30 62L30 61L28 61L28 62L27 62L27 63L28 63L28 62L29 62L29 64L28 64L28 65L25 65L25 66L28 66L28 65L29 65L29 64L30 64L30 63L32 63L32 60ZM9 61L9 63L10 63L10 64L11 64L11 63L10 63L10 61ZM33 61L33 64L36 64L36 61ZM61 61L61 64L64 64L64 61ZM16 62L16 63L17 63L17 62ZM23 62L23 63L25 63L25 64L26 64L26 63L25 63L25 62ZM34 62L34 63L35 63L35 62ZM37 62L37 63L38 63L38 62ZM53 62L53 63L54 63L54 62ZM62 62L62 63L63 63L63 62ZM65 62L65 63L66 63L66 62ZM49 63L49 64L47 64L47 65L49 65L49 64L50 64L50 63ZM67 63L67 64L68 64L68 63ZM9 65L9 67L10 67L10 65ZM31 65L31 66L29 66L29 68L31 68L31 66L32 66L32 65ZM33 65L33 66L34 66L34 67L35 67L35 66L36 66L36 65ZM61 66L61 67L60 67L60 68L61 68L61 67L62 67L62 66ZM11 67L11 68L13 68L13 67ZM0 0L0 7L7 7L7 0ZM1 1L1 6L6 6L6 1ZM2 2L2 5L5 5L5 2ZM62 0L62 7L69 7L69 0ZM63 1L63 6L68 6L68 1ZM64 2L64 5L67 5L67 2ZM0 62L0 69L7 69L7 62ZM1 63L1 68L6 68L6 63ZM2 64L2 67L5 67L5 64Z" fill="#000000"/></g></g></svg>
