<?xml version="1.0" encoding="UTF-8"?>
<svg xmlns="http://www.w3.org/2000/svg" version="1.1" width="300" height="300" viewBox="0 0 300 300"><rect x="0" y="0" width="300" height="300" fill="#ffffff"/><g transform="scale(4.348)"><g transform="translate(0,0)"><path fill-rule="evenodd" d="M11 0L11 1L12 1L12 2L10 2L10 4L9 4L9 3L8 3L8 4L9 4L9 5L8 5L8 7L9 7L9 8L6 8L6 9L9 9L9 10L6 10L6 11L5 11L5 13L4 13L4 12L3 12L3 11L4 11L4 10L5 10L5 8L0 8L0 9L1 9L1 11L0 11L0 12L1 12L1 11L2 11L2 12L3 12L3 14L4 14L4 15L3 15L3 17L2 17L2 13L0 13L0 18L1 18L1 17L2 17L2 18L3 18L3 20L0 20L0 21L1 21L1 22L0 22L0 28L1 28L1 29L0 29L0 32L1 32L1 34L0 34L0 38L1 38L1 40L0 40L0 41L1 41L1 40L3 40L3 41L2 41L2 43L3 43L3 44L4 44L4 45L2 45L2 44L1 44L1 45L2 45L2 46L1 46L1 47L0 47L0 48L1 48L1 49L0 49L0 52L1 52L1 53L0 53L0 54L1 54L1 55L0 55L0 56L1 56L1 57L0 57L0 61L1 61L1 58L2 58L2 59L3 59L3 58L4 58L4 59L7 59L7 60L6 60L6 61L8 61L8 63L11 63L11 64L8 64L8 69L13 69L13 68L14 68L14 69L16 69L16 67L17 67L17 69L21 69L21 68L19 68L19 67L20 67L20 66L19 66L19 65L20 65L20 64L19 64L19 63L21 63L21 64L23 64L23 63L24 63L24 64L25 64L25 65L23 65L23 69L26 69L26 68L27 68L27 69L28 69L28 68L29 68L29 69L32 69L32 68L31 68L31 67L33 67L33 69L35 69L35 68L36 68L36 69L38 69L38 68L37 68L37 66L38 66L38 67L39 67L39 68L42 68L42 69L44 69L44 68L48 68L48 69L49 69L49 68L48 68L48 66L49 66L49 67L50 67L50 69L51 69L51 68L52 68L52 67L53 67L53 68L54 68L54 69L56 69L56 67L55 67L55 68L54 68L54 67L53 67L53 66L55 66L55 65L56 65L56 66L57 66L57 65L59 65L59 64L60 64L60 66L58 66L58 67L59 67L59 68L60 68L60 69L61 69L61 68L62 68L62 67L63 67L63 68L64 68L64 69L68 69L68 68L67 68L67 67L63 67L63 66L64 66L64 65L65 65L65 66L67 66L67 65L65 65L65 64L67 64L67 62L69 62L69 60L68 60L68 58L69 58L69 57L68 57L68 56L69 56L69 55L68 55L68 54L69 54L69 53L68 53L68 54L67 54L67 55L63 55L63 56L62 56L62 54L63 54L63 53L64 53L64 52L63 52L63 51L65 51L65 53L66 53L66 52L68 52L68 50L69 50L69 49L67 49L67 51L65 51L65 50L66 50L66 49L65 49L65 50L63 50L63 51L61 51L61 50L62 50L62 49L64 49L64 48L67 48L67 47L68 47L68 48L69 48L69 47L68 47L68 46L67 46L67 43L68 43L68 44L69 44L69 43L68 43L68 42L66 42L66 43L65 43L65 42L63 42L63 41L66 41L66 40L67 40L67 39L68 39L68 36L69 36L69 35L68 35L68 34L69 34L69 31L68 31L68 28L67 28L67 27L68 27L68 26L65 26L65 25L64 25L64 24L67 24L67 23L68 23L68 25L69 25L69 23L68 23L68 22L67 22L67 21L68 21L68 18L69 18L69 17L68 17L68 14L65 14L65 13L68 13L68 12L69 12L69 11L68 11L68 12L67 12L67 11L66 11L66 10L69 10L69 9L68 9L68 8L67 8L67 9L66 9L66 8L65 8L65 9L64 9L64 8L63 8L63 9L64 9L64 10L62 10L62 8L61 8L61 6L60 6L60 7L59 7L59 4L58 4L58 7L59 7L59 9L60 9L60 10L62 10L62 11L59 11L59 10L57 10L57 9L58 9L58 8L57 8L57 4L56 4L56 2L55 2L55 3L54 3L54 1L55 1L55 0L54 0L54 1L53 1L53 0L51 0L51 3L50 3L50 0L47 0L47 1L45 1L45 0L44 0L44 1L45 1L45 2L44 2L44 3L43 3L43 0L41 0L41 1L38 1L38 0L37 0L37 1L35 1L35 2L39 2L39 3L41 3L41 1L42 1L42 3L43 3L43 4L41 4L41 6L40 6L40 7L41 7L41 6L42 6L42 7L43 7L43 5L44 5L44 7L45 7L45 9L44 9L44 8L43 8L43 9L41 9L41 10L39 10L39 12L38 12L38 13L39 13L39 14L35 14L35 15L37 15L37 18L36 18L36 17L34 17L34 18L33 18L33 17L32 17L32 14L27 14L27 13L26 13L26 12L24 12L24 11L22 11L22 12L20 12L20 13L19 13L19 11L21 11L21 10L20 10L20 9L19 9L19 8L18 8L18 7L19 7L19 6L18 6L18 4L19 4L19 5L20 5L20 8L21 8L21 9L22 9L22 8L21 8L21 6L22 6L22 7L23 7L23 6L24 6L24 9L23 9L23 10L24 10L24 9L26 9L26 10L25 10L25 11L26 11L26 10L27 10L27 12L28 12L28 10L27 10L27 9L26 9L26 8L29 8L29 9L30 9L30 11L29 11L29 13L32 13L32 12L30 12L30 11L32 11L32 10L34 10L34 11L33 11L33 12L34 12L34 13L33 13L33 14L34 14L34 13L36 13L36 12L34 12L34 11L36 11L36 10L38 10L38 9L39 9L39 8L38 8L38 7L39 7L39 6L38 6L38 5L37 5L37 4L38 4L38 3L36 3L36 4L33 4L33 1L34 1L34 0L33 0L33 1L32 1L32 0L31 0L31 1L30 1L30 0L28 0L28 1L27 1L27 2L28 2L28 3L27 3L27 4L25 4L25 3L26 3L26 2L24 2L24 1L25 1L25 0L23 0L23 2L21 2L21 3L20 3L20 4L19 4L19 2L20 2L20 1L19 1L19 0L17 0L17 1L16 1L16 2L17 2L17 3L18 3L18 4L17 4L17 6L16 6L16 7L15 7L15 5L14 5L14 4L16 4L16 3L14 3L14 4L13 4L13 5L14 5L14 7L13 7L13 6L12 6L12 5L10 5L10 4L12 4L12 3L13 3L13 1L12 1L12 0ZM21 0L21 1L22 1L22 0ZM56 0L56 1L61 1L61 0ZM8 1L8 2L9 2L9 1ZM14 1L14 2L15 2L15 1ZM17 1L17 2L19 2L19 1ZM31 1L31 2L32 2L32 1ZM47 1L47 2L45 2L45 3L44 3L44 5L46 5L46 6L45 6L45 7L46 7L46 9L45 9L45 10L42 10L42 12L41 12L41 11L40 11L40 12L39 12L39 13L40 13L40 12L41 12L41 14L42 14L42 15L40 15L40 14L39 14L39 15L38 15L38 16L39 16L39 17L38 17L38 18L37 18L37 19L39 19L39 20L40 20L40 21L39 21L39 22L37 22L37 23L39 23L39 25L38 25L38 24L36 24L36 23L35 23L35 19L36 19L36 18L34 18L34 19L33 19L33 18L32 18L32 17L29 17L29 16L28 16L28 15L27 15L27 14L26 14L26 13L25 13L25 15L26 15L26 16L24 16L24 17L26 17L26 18L25 18L25 20L26 20L26 26L27 26L27 27L25 27L25 28L26 28L26 30L28 30L28 31L27 31L27 32L28 32L28 33L25 33L25 32L26 32L26 31L25 31L25 30L24 30L24 33L23 33L23 32L21 32L21 31L20 31L20 30L22 30L22 29L24 29L24 27L21 27L21 29L20 29L20 27L19 27L19 26L21 26L21 25L22 25L22 26L24 26L24 25L22 25L22 24L21 24L21 23L22 23L22 22L23 22L23 20L24 20L24 19L23 19L23 20L22 20L22 19L21 19L21 20L20 20L20 22L21 22L21 23L20 23L20 24L21 24L21 25L19 25L19 26L18 26L18 25L17 25L17 24L18 24L18 23L17 23L17 22L16 22L16 23L17 23L17 24L16 24L16 25L12 25L12 22L11 22L11 23L10 23L10 21L9 21L9 20L10 20L10 18L12 18L12 16L15 16L15 15L17 15L17 16L16 16L16 21L18 21L18 22L19 22L19 21L18 21L18 19L20 19L20 18L18 18L18 17L23 17L23 15L24 15L24 14L23 14L23 15L22 15L22 13L24 13L24 12L22 12L22 13L20 13L20 14L21 14L21 15L19 15L19 14L18 14L18 15L17 15L17 13L16 13L16 12L14 12L14 11L15 11L15 9L16 9L16 10L18 10L18 11L17 11L17 12L18 12L18 11L19 11L19 10L18 10L18 9L16 9L16 8L15 8L15 7L14 7L14 9L13 9L13 10L14 10L14 11L12 11L12 10L11 10L11 7L12 7L12 8L13 8L13 7L12 7L12 6L11 6L11 7L10 7L10 5L9 5L9 7L10 7L10 8L9 8L9 9L10 9L10 10L9 10L9 11L12 11L12 12L10 12L10 14L8 14L8 13L9 13L9 12L7 12L7 11L6 11L6 12L7 12L7 13L5 13L5 14L8 14L8 15L6 15L6 16L5 16L5 15L4 15L4 16L5 16L5 17L6 17L6 18L4 18L4 21L5 21L5 20L7 20L7 19L6 19L6 18L7 18L7 17L6 17L6 16L9 16L9 17L8 17L8 18L9 18L9 19L8 19L8 21L6 21L6 22L5 22L5 24L4 24L4 25L5 25L5 24L8 24L8 21L9 21L9 27L8 27L8 26L7 26L7 25L6 25L6 26L7 26L7 27L5 27L5 26L3 26L3 27L2 27L2 26L1 26L1 27L2 27L2 29L1 29L1 30L2 30L2 29L3 29L3 31L4 31L4 29L5 29L5 28L7 28L7 29L6 29L6 30L7 30L7 29L8 29L8 30L9 30L9 31L6 31L6 32L9 32L9 34L10 34L10 35L9 35L9 37L8 37L8 38L10 38L10 40L11 40L11 41L13 41L13 40L12 40L12 38L11 38L11 36L10 36L10 35L11 35L11 34L10 34L10 32L9 32L9 31L12 31L12 30L16 30L16 31L15 31L15 32L14 32L14 31L13 31L13 32L14 32L14 33L12 33L12 32L11 32L11 33L12 33L12 34L14 34L14 33L15 33L15 34L17 34L17 33L18 33L18 32L17 32L17 31L18 31L18 30L19 30L19 32L20 32L20 33L19 33L19 34L20 34L20 35L19 35L19 36L20 36L20 39L21 39L21 40L22 40L22 41L20 41L20 40L19 40L19 41L18 41L18 40L17 40L17 39L16 39L16 38L17 38L17 36L18 36L18 35L16 35L16 36L15 36L15 35L13 35L13 38L14 38L14 41L16 41L16 42L14 42L14 43L16 43L16 44L14 44L14 46L15 46L15 48L13 48L13 47L12 47L12 46L10 46L10 47L8 47L8 48L7 48L7 47L5 47L5 45L6 45L6 46L7 46L7 45L8 45L8 46L9 46L9 43L10 43L10 45L13 45L13 44L11 44L11 43L10 43L10 41L8 41L8 40L9 40L9 39L4 39L4 38L7 38L7 37L4 37L4 35L3 35L3 34L2 34L2 35L1 35L1 37L4 37L4 38L3 38L3 39L4 39L4 41L3 41L3 42L4 42L4 43L5 43L5 45L4 45L4 49L5 49L5 50L7 50L7 51L5 51L5 52L4 52L4 51L2 51L2 52L4 52L4 53L5 53L5 56L3 56L3 55L4 55L4 54L2 54L2 55L1 55L1 56L2 56L2 57L5 57L5 58L7 58L7 59L8 59L8 60L9 60L9 61L10 61L10 59L8 59L8 58L7 58L7 57L9 57L9 58L10 58L10 57L11 57L11 58L12 58L12 59L14 59L14 57L13 57L13 56L16 56L16 57L15 57L15 58L16 58L16 57L17 57L17 56L16 56L16 55L15 55L15 54L18 54L18 53L17 53L17 52L19 52L19 53L20 53L20 55L19 55L19 56L20 56L20 55L22 55L22 54L23 54L23 55L25 55L25 56L26 56L26 57L25 57L25 60L24 60L24 59L23 59L23 58L24 58L24 57L22 57L22 56L21 56L21 57L19 57L19 58L17 58L17 60L16 60L16 59L15 59L15 60L16 60L16 61L15 61L15 62L12 62L12 61L14 61L14 60L12 60L12 61L11 61L11 62L12 62L12 64L11 64L11 65L9 65L9 68L10 68L10 67L11 67L11 68L12 68L12 67L11 67L11 66L13 66L13 65L12 65L12 64L15 64L15 63L18 63L18 62L19 62L19 61L20 61L20 62L21 62L21 63L23 63L23 62L22 62L22 61L23 61L23 60L24 60L24 61L25 61L25 62L24 62L24 63L25 63L25 64L26 64L26 63L25 63L25 62L26 62L26 61L28 61L28 62L27 62L27 63L28 63L28 65L25 65L25 66L26 66L26 67L24 67L24 68L26 68L26 67L27 67L27 68L28 68L28 67L27 67L27 66L28 66L28 65L29 65L29 64L31 64L31 63L32 63L32 60L33 60L33 58L32 58L32 57L35 57L35 59L36 59L36 57L38 57L38 58L37 58L37 60L38 60L38 62L37 62L37 63L38 63L38 64L37 64L37 65L38 65L38 66L39 66L39 67L40 67L40 66L41 66L41 67L43 67L43 68L44 68L44 66L45 66L45 67L46 67L46 66L47 66L47 63L48 63L48 64L49 64L49 65L50 65L50 67L52 67L52 66L53 66L53 64L54 64L54 65L55 65L55 64L56 64L56 65L57 65L57 64L58 64L58 62L59 62L59 61L60 61L60 60L61 60L61 57L60 57L60 56L61 56L61 54L62 54L62 53L63 53L63 52L62 52L62 53L60 53L60 52L61 52L61 51L59 51L59 49L60 49L60 50L61 50L61 49L62 49L62 48L63 48L63 47L66 47L66 45L63 45L63 44L64 44L64 43L63 43L63 42L62 42L62 41L63 41L63 39L66 39L66 38L65 38L65 37L66 37L66 36L65 36L65 37L64 37L64 38L63 38L63 37L61 37L61 38L62 38L62 39L56 39L56 38L59 38L59 37L60 37L60 35L58 35L58 36L57 36L57 34L60 34L60 32L59 32L59 31L57 31L57 30L59 30L59 28L57 28L57 27L58 27L58 26L59 26L59 25L60 25L60 24L64 24L64 23L63 23L63 22L64 22L64 21L65 21L65 22L66 22L66 23L67 23L67 22L66 22L66 21L65 21L65 18L63 18L63 17L66 17L66 18L67 18L67 17L66 17L66 16L65 16L65 14L63 14L63 13L65 13L65 12L64 12L64 11L65 11L65 10L64 10L64 11L63 11L63 13L62 13L62 12L58 12L58 13L57 13L57 12L56 12L56 11L57 11L57 10L56 10L56 9L57 9L57 8L56 8L56 6L55 6L55 7L54 7L54 6L53 6L53 7L52 7L52 6L51 6L51 7L50 7L50 5L51 5L51 4L52 4L52 5L53 5L53 2L52 2L52 3L51 3L51 4L50 4L50 3L49 3L49 4L47 4L47 3L48 3L48 1ZM23 2L23 3L21 3L21 4L20 4L20 5L21 5L21 4L24 4L24 2ZM29 2L29 3L30 3L30 2ZM57 2L57 3L59 3L59 2ZM31 3L31 4L32 4L32 3ZM45 3L45 4L46 4L46 3ZM60 3L60 5L61 5L61 3ZM27 4L27 5L24 5L24 6L25 6L25 7L26 7L26 6L27 6L27 7L28 7L28 6L27 6L27 5L29 5L29 4ZM39 4L39 5L40 5L40 4ZM49 4L49 5L50 5L50 4ZM55 4L55 5L56 5L56 4ZM22 5L22 6L23 6L23 5ZM30 5L30 6L29 6L29 8L30 8L30 9L32 9L32 8L31 8L31 7L32 7L32 5ZM33 5L33 8L36 8L36 5ZM47 5L47 6L46 6L46 7L47 7L47 10L49 10L49 12L47 12L47 11L46 11L46 13L47 13L47 14L50 14L50 12L51 12L51 11L50 11L50 7L49 7L49 6L48 6L48 5ZM17 6L17 7L18 7L18 6ZM30 6L30 7L31 7L31 6ZM34 6L34 7L35 7L35 6ZM37 6L37 7L38 7L38 6ZM47 6L47 7L48 7L48 6ZM53 7L53 9L52 9L52 11L54 11L54 12L55 12L55 13L53 13L53 14L54 14L54 16L55 16L55 17L53 17L53 18L52 18L52 17L51 17L51 18L48 18L48 20L46 20L46 21L49 21L49 22L50 22L50 25L49 25L49 24L48 24L48 23L47 23L47 24L46 24L46 22L44 22L44 20L43 20L43 17L44 17L44 16L45 16L45 17L46 17L46 16L48 16L48 17L50 17L50 16L52 16L52 15L50 15L50 16L48 16L48 15L46 15L46 14L44 14L44 16L42 16L42 17L41 17L41 18L39 18L39 19L40 19L40 20L41 20L41 22L44 22L44 23L45 23L45 24L46 24L46 25L47 25L47 26L48 26L48 27L49 27L49 28L47 28L47 27L46 27L46 26L43 26L43 25L44 25L44 24L43 24L43 23L41 23L41 24L42 24L42 25L41 25L41 26L39 26L39 27L42 27L42 30L46 30L46 32L45 32L45 31L44 31L44 32L43 32L43 31L40 31L40 30L39 30L39 31L37 31L37 30L38 30L38 29L37 29L37 26L38 26L38 25L35 25L35 26L36 26L36 27L35 27L35 28L36 28L36 29L37 29L37 30L35 30L35 29L34 29L34 30L33 30L33 27L34 27L34 24L32 24L32 23L33 23L33 22L32 22L32 21L31 21L31 20L32 20L32 19L29 19L29 20L28 20L28 19L26 19L26 20L27 20L27 21L29 21L29 22L30 22L30 23L28 23L28 25L29 25L29 27L30 27L30 28L29 28L29 29L31 29L31 30L30 30L30 31L29 31L29 32L30 32L30 33L28 33L28 34L26 34L26 36L25 36L25 33L24 33L24 34L23 34L23 33L21 33L21 34L22 34L22 35L23 35L23 37L21 37L21 39L22 39L22 38L23 38L23 40L24 40L24 41L23 41L23 42L21 42L21 44L24 44L24 45L23 45L23 48L24 48L24 49L23 49L23 50L22 50L22 49L18 49L18 48L17 48L17 47L18 47L18 46L20 46L20 47L19 47L19 48L20 48L20 47L21 47L21 48L22 48L22 47L21 47L21 46L20 46L20 44L19 44L19 43L20 43L20 41L19 41L19 43L18 43L18 41L17 41L17 46L16 46L16 48L15 48L15 49L16 49L16 48L17 48L17 49L18 49L18 50L20 50L20 51L19 51L19 52L21 52L21 50L22 50L22 51L23 51L23 50L26 50L26 49L25 49L25 48L26 48L26 47L24 47L24 46L27 46L27 48L28 48L28 46L27 46L27 45L29 45L29 46L30 46L30 48L29 48L29 51L30 51L30 50L32 50L32 52L28 52L28 51L24 51L24 52L25 52L25 53L23 53L23 54L25 54L25 55L26 55L26 56L30 56L30 57L29 57L29 58L26 58L26 60L25 60L25 61L26 61L26 60L28 60L28 61L29 61L29 62L28 62L28 63L31 63L31 60L32 60L32 59L31 59L31 56L33 56L33 55L34 55L34 54L33 54L33 53L34 53L34 52L33 52L33 51L34 51L34 50L35 50L35 52L38 52L38 53L37 53L37 54L35 54L35 56L37 56L37 54L39 54L39 56L38 56L38 57L39 57L39 59L38 59L38 60L39 60L39 62L38 62L38 63L39 63L39 64L38 64L38 65L39 65L39 64L41 64L41 66L44 66L44 64L45 64L45 66L46 66L46 64L45 64L45 63L47 63L47 62L50 62L50 61L51 61L51 58L50 58L50 56L48 56L48 55L50 55L50 52L47 52L47 51L46 51L46 52L45 52L45 49L46 49L46 47L45 47L45 49L44 49L44 47L43 47L43 48L42 48L42 46L45 46L45 45L43 45L43 44L46 44L46 45L47 45L47 46L50 46L50 47L51 47L51 48L52 48L52 47L51 47L51 46L53 46L53 48L55 48L55 49L52 49L52 50L50 50L50 48L48 48L48 47L47 47L47 49L48 49L48 50L49 50L49 51L51 51L51 52L52 52L52 50L56 50L56 52L55 52L55 51L54 51L54 52L55 52L55 53L53 53L53 54L52 54L52 55L51 55L51 56L54 56L54 57L53 57L53 58L52 58L52 60L53 60L53 58L54 58L54 60L55 60L55 61L53 61L53 62L52 62L52 63L53 63L53 62L54 62L54 64L55 64L55 62L56 62L56 64L57 64L57 62L56 62L56 60L55 60L55 58L57 58L57 59L58 59L58 60L59 60L59 58L60 58L60 57L59 57L59 58L57 58L57 57L56 57L56 56L60 56L60 55L57 55L57 53L58 53L58 52L57 52L57 51L58 51L58 50L57 50L57 49L56 49L56 48L57 48L57 47L58 47L58 48L59 48L59 47L58 47L58 46L56 46L56 44L54 44L54 43L53 43L53 44L54 44L54 46L53 46L53 45L51 45L51 44L52 44L52 42L57 42L57 41L58 41L58 40L57 40L57 41L56 41L56 40L55 40L55 37L56 37L56 34L55 34L55 33L56 33L56 32L55 32L55 31L56 31L56 30L55 30L55 29L56 29L56 28L54 28L54 26L55 26L55 27L56 27L56 26L57 26L57 25L56 25L56 20L57 20L57 21L58 21L58 20L57 20L57 17L56 17L56 16L57 16L57 13L56 13L56 12L55 12L55 9L56 9L56 8L54 8L54 7ZM37 8L37 9L38 9L38 8ZM60 8L60 9L61 9L61 8ZM3 9L3 10L2 10L2 11L3 11L3 10L4 10L4 9ZM35 9L35 10L36 10L36 9ZM43 11L43 13L42 13L42 14L43 14L43 13L44 13L44 11ZM13 12L13 13L12 13L12 15L11 15L11 14L10 14L10 15L9 15L9 16L10 16L10 15L11 15L11 16L12 16L12 15L13 15L13 13L14 13L14 14L16 14L16 13L14 13L14 12ZM55 13L55 16L56 16L56 13ZM59 13L59 14L61 14L61 15L60 15L60 16L59 16L59 18L60 18L60 19L59 19L59 22L57 22L57 24L58 24L58 25L59 25L59 24L60 24L60 23L59 23L59 22L61 22L61 23L62 23L62 21L61 21L61 20L62 20L62 19L63 19L63 20L64 20L64 19L63 19L63 18L62 18L62 16L64 16L64 15L63 15L63 14L62 14L62 13ZM30 15L30 16L31 16L31 15ZM33 15L33 16L34 16L34 15ZM39 15L39 16L40 16L40 15ZM45 15L45 16L46 16L46 15ZM61 15L61 16L62 16L62 15ZM17 16L17 17L18 17L18 16ZM9 17L9 18L10 18L10 17ZM13 17L13 19L14 19L14 20L13 20L13 21L14 21L14 22L13 22L13 24L15 24L15 23L14 23L14 22L15 22L15 19L14 19L14 17ZM27 17L27 18L28 18L28 17ZM55 17L55 18L54 18L54 19L53 19L53 20L52 20L52 18L51 18L51 20L50 20L50 19L49 19L49 20L50 20L50 22L51 22L51 23L52 23L52 24L51 24L51 25L50 25L50 26L54 26L54 25L53 25L53 20L56 20L56 19L55 19L55 18L56 18L56 17ZM44 18L44 19L47 19L47 18ZM61 18L61 19L62 19L62 18ZM11 20L11 21L12 21L12 20ZM29 20L29 21L30 21L30 22L31 22L31 23L32 23L32 22L31 22L31 21L30 21L30 20ZM33 20L33 21L34 21L34 20ZM37 20L37 21L38 21L38 20ZM42 20L42 21L43 21L43 20ZM21 21L21 22L22 22L22 21ZM6 22L6 23L7 23L7 22ZM24 22L24 23L25 23L25 22ZM39 22L39 23L40 23L40 22ZM54 22L54 23L55 23L55 22ZM29 24L29 25L30 25L30 24ZM31 24L31 25L32 25L32 24ZM47 24L47 25L48 25L48 26L49 26L49 25L48 25L48 24ZM16 25L16 26L15 26L15 27L14 27L14 26L10 26L10 29L9 29L9 30L12 30L12 29L14 29L14 28L15 28L15 27L16 27L16 28L17 28L17 29L19 29L19 30L20 30L20 29L19 29L19 28L17 28L17 25ZM55 25L55 26L56 26L56 25ZM62 25L62 26L64 26L64 28L63 28L63 29L62 29L62 27L61 27L61 29L62 29L62 31L63 31L63 32L64 32L64 31L67 31L67 32L66 32L66 33L65 33L65 35L66 35L66 34L68 34L68 31L67 31L67 28L66 28L66 29L65 29L65 26L64 26L64 25ZM30 26L30 27L33 27L33 26ZM3 27L3 29L4 29L4 28L5 28L5 27ZM12 27L12 28L11 28L11 29L12 29L12 28L14 28L14 27ZM43 27L43 28L44 28L44 29L45 29L45 28L46 28L46 27L45 27L45 28L44 28L44 27ZM50 27L50 28L49 28L49 29L48 29L48 30L49 30L49 34L47 34L47 33L45 33L45 32L44 32L44 33L43 33L43 32L39 32L39 33L38 33L38 34L37 34L37 36L38 36L38 37L34 37L34 39L36 39L36 38L38 38L38 39L40 39L40 38L41 38L41 40L39 40L39 41L38 41L38 42L36 42L36 43L37 43L37 45L38 45L38 48L37 48L37 47L36 47L36 45L35 45L35 42L34 42L34 41L36 41L36 40L32 40L32 41L31 41L31 39L33 39L33 38L32 38L32 37L31 37L31 38L30 38L30 37L29 37L29 36L28 36L28 35L27 35L27 36L26 36L26 37L27 37L27 38L26 38L26 39L25 39L25 38L24 38L24 39L25 39L25 40L26 40L26 42L25 42L25 41L24 41L24 42L23 42L23 43L24 43L24 44L25 44L25 43L26 43L26 45L27 45L27 43L29 43L29 44L30 44L30 43L29 43L29 42L30 42L30 41L31 41L31 43L32 43L32 41L33 41L33 43L34 43L34 44L33 44L33 45L32 45L32 44L31 44L31 45L30 45L30 46L31 46L31 49L32 49L32 50L33 50L33 49L36 49L36 50L37 50L37 49L38 49L38 51L39 51L39 50L41 50L41 51L42 51L42 52L39 52L39 54L40 54L40 55L41 55L41 54L42 54L42 55L43 55L43 56L42 56L42 57L43 57L43 59L44 59L44 61L43 61L43 60L42 60L42 58L41 58L41 59L40 59L40 62L39 62L39 63L41 63L41 64L44 64L44 62L47 62L47 61L45 61L45 58L46 58L46 59L47 59L47 60L49 60L49 61L50 61L50 58L49 58L49 57L48 57L48 56L47 56L47 54L49 54L49 53L45 53L45 52L44 52L44 51L42 51L42 50L41 50L41 49L42 49L42 48L41 48L41 47L40 47L40 46L39 46L39 45L40 45L40 44L41 44L41 43L40 43L40 41L41 41L41 40L44 40L44 42L43 42L43 43L44 43L44 42L45 42L45 43L46 43L46 44L47 44L47 43L48 43L48 44L49 44L49 45L50 45L50 46L51 46L51 45L50 45L50 44L49 44L49 43L48 43L48 42L49 42L49 41L47 41L47 40L50 40L50 43L51 43L51 42L52 42L52 41L53 41L53 40L54 40L54 39L53 39L53 38L52 38L52 37L55 37L55 35L54 35L54 34L53 34L53 33L54 33L54 30L53 30L53 27ZM27 28L27 29L28 29L28 28ZM31 28L31 29L32 29L32 28ZM39 28L39 29L40 29L40 28ZM46 29L46 30L47 30L47 29ZM49 29L49 30L50 30L50 29ZM63 29L63 30L65 30L65 29ZM32 30L32 32L34 32L34 31L33 31L33 30ZM52 30L52 31L51 31L51 32L53 32L53 30ZM60 30L60 31L61 31L61 30ZM35 31L35 32L37 32L37 31ZM3 32L3 33L4 33L4 32ZM15 32L15 33L17 33L17 32ZM57 32L57 33L58 33L58 32ZM5 33L5 36L8 36L8 33ZM30 33L30 34L29 34L29 35L30 35L30 36L32 36L32 35L30 35L30 34L32 34L32 33ZM33 33L33 36L36 36L36 33ZM40 33L40 35L41 35L41 38L42 38L42 39L45 39L45 40L47 40L47 39L51 39L51 38L49 38L49 37L51 37L51 36L45 36L45 33L44 33L44 36L42 36L42 35L41 35L41 34L43 34L43 33ZM51 33L51 34L49 34L49 35L51 35L51 34L52 34L52 33ZM61 33L61 36L64 36L64 33ZM6 34L6 35L7 35L7 34ZM34 34L34 35L35 35L35 34ZM62 34L62 35L63 35L63 34ZM2 35L2 36L3 36L3 35ZM67 35L67 36L68 36L68 35ZM14 36L14 37L15 37L15 36ZM24 36L24 37L25 37L25 36ZM27 36L27 37L28 37L28 36ZM44 36L44 37L45 37L45 38L48 38L48 37L45 37L45 36ZM18 38L18 39L19 39L19 38ZM28 38L28 39L26 39L26 40L28 40L28 39L30 39L30 38ZM15 39L15 40L16 40L16 39ZM52 39L52 40L53 40L53 39ZM6 40L6 41L5 41L5 42L6 42L6 43L7 43L7 44L6 44L6 45L7 45L7 44L8 44L8 43L9 43L9 42L8 42L8 41L7 41L7 40ZM29 40L29 41L30 41L30 40ZM68 40L68 41L69 41L69 40ZM6 41L6 42L7 42L7 41ZM12 42L12 43L13 43L13 42ZM26 42L26 43L27 43L27 42ZM38 42L38 45L39 45L39 44L40 44L40 43L39 43L39 42ZM46 42L46 43L47 43L47 42ZM60 42L60 43L62 43L62 44L61 44L61 45L59 45L59 43L57 43L57 45L59 45L59 46L61 46L61 48L60 48L60 49L61 49L61 48L62 48L62 46L63 46L63 45L62 45L62 44L63 44L63 43L62 43L62 42ZM41 45L41 46L42 46L42 45ZM61 45L61 46L62 46L62 45ZM2 46L2 47L1 47L1 48L2 48L2 50L3 50L3 46ZM32 46L32 47L35 47L35 48L36 48L36 47L35 47L35 46ZM54 46L54 47L55 47L55 46ZM10 47L10 51L11 51L11 52L10 52L10 53L9 53L9 52L8 52L8 51L9 51L9 48L8 48L8 49L7 49L7 48L6 48L6 49L7 49L7 50L8 50L8 51L7 51L7 52L5 52L5 53L7 53L7 54L6 54L6 55L9 55L9 54L10 54L10 53L11 53L11 54L13 54L13 55L14 55L14 54L15 54L15 53L14 53L14 54L13 54L13 52L12 52L12 50L13 50L13 51L14 51L14 52L17 52L17 50L15 50L15 51L14 51L14 49L12 49L12 48L11 48L11 47ZM39 47L39 48L40 48L40 47ZM32 48L32 49L33 49L33 48ZM11 49L11 50L12 50L12 49ZM27 49L27 50L28 50L28 49ZM43 49L43 50L44 50L44 49ZM7 52L7 53L8 53L8 54L9 54L9 53L8 53L8 52ZM11 52L11 53L12 53L12 52ZM26 52L26 55L30 55L30 54L29 54L29 53L28 53L28 52ZM32 52L32 53L31 53L31 55L32 55L32 53L33 53L33 52ZM43 52L43 53L42 53L42 54L43 54L43 53L44 53L44 56L43 56L43 57L44 57L44 56L46 56L46 57L47 57L47 56L46 56L46 54L45 54L45 53L44 53L44 52ZM56 52L56 53L55 53L55 54L53 54L53 55L54 55L54 56L56 56L56 53L57 53L57 52ZM21 53L21 54L22 54L22 53ZM27 53L27 54L28 54L28 53ZM40 53L40 54L41 54L41 53ZM59 53L59 54L60 54L60 53ZM10 55L10 56L9 56L9 57L10 57L10 56L12 56L12 55ZM67 55L67 56L68 56L68 55ZM6 56L6 57L7 57L7 56ZM39 56L39 57L41 57L41 56ZM64 56L64 57L62 57L62 60L63 60L63 58L68 58L68 57L66 57L66 56ZM12 57L12 58L13 58L13 57ZM21 57L21 58L22 58L22 57ZM19 58L19 59L20 59L20 58ZM29 58L29 59L30 59L30 60L31 60L31 59L30 59L30 58ZM47 58L47 59L49 59L49 58ZM21 59L21 61L22 61L22 59ZM64 59L64 60L66 60L66 61L67 61L67 60L66 60L66 59ZM3 60L3 61L5 61L5 60ZM17 60L17 61L19 61L19 60ZM41 60L41 62L42 62L42 63L43 63L43 61L42 61L42 60ZM33 61L33 64L36 64L36 61ZM61 61L61 64L64 64L64 61ZM34 62L34 63L35 63L35 62ZM62 62L62 63L63 63L63 62ZM65 62L65 63L66 63L66 62ZM50 63L50 65L51 65L51 63ZM68 63L68 64L69 64L69 63ZM17 64L17 65L15 65L15 66L14 66L14 67L15 67L15 66L17 66L17 65L18 65L18 64ZM31 65L31 66L32 66L32 65ZM33 65L33 67L35 67L35 66L36 66L36 65ZM61 65L61 67L60 67L60 68L61 68L61 67L62 67L62 66L63 66L63 65ZM29 67L29 68L30 68L30 67ZM57 68L57 69L58 69L58 68ZM0 0L0 7L7 7L7 0ZM1 1L1 6L6 6L6 1ZM2 2L2 5L5 5L5 2ZM62 0L62 7L69 7L69 0ZM63 1L63 6L68 6L68 1ZM64 2L64 5L67 5L67 2ZM0 62L0 69L7 69L7 62ZM1 63L1 68L6 68L6 63ZM2 64L2 67L5 67L5 64Z" fill="#000000"/></g></g></svg>
