<?xml version="1.0" encoding="UTF-8"?>
<svg xmlns="http://www.w3.org/2000/svg" version="1.1" width="300" height="300" viewBox="0 0 300 300"><rect x="0" y="0" width="300" height="300" fill="#ffffff"/><g transform="scale(4.348)"><g transform="translate(0,0)"><path fill-rule="evenodd" d="M8 0L8 1L10 1L10 0ZM12 0L12 2L10 2L10 3L9 3L9 2L8 2L8 5L9 5L9 6L8 6L8 7L9 7L9 8L8 8L8 9L7 9L7 8L6 8L6 9L4 9L4 8L0 8L0 9L4 9L4 10L3 10L3 12L4 12L4 10L6 10L6 11L8 11L8 10L9 10L9 13L8 13L8 12L5 12L5 13L0 13L0 15L2 15L2 16L0 16L0 17L2 17L2 18L1 18L1 20L0 20L0 21L1 21L1 22L3 22L3 23L2 23L2 25L1 25L1 23L0 23L0 25L1 25L1 26L0 26L0 28L1 28L1 30L0 30L0 31L2 31L2 29L3 29L3 30L4 30L4 31L3 31L3 32L4 32L4 33L2 33L2 32L1 32L1 33L0 33L0 34L1 34L1 35L3 35L3 36L0 36L0 37L2 37L2 38L0 38L0 39L2 39L2 38L5 38L5 37L9 37L9 32L10 32L10 33L12 33L12 34L11 34L11 35L10 35L10 37L12 37L12 38L10 38L10 39L13 39L13 37L15 37L15 38L14 38L14 41L13 41L13 40L9 40L9 39L8 39L8 38L6 38L6 39L5 39L5 41L7 41L7 42L5 42L5 43L7 43L7 42L9 42L9 44L6 44L6 45L7 45L7 46L5 46L5 44L4 44L4 47L3 47L3 44L2 44L2 43L4 43L4 41L3 41L3 40L4 40L4 39L3 39L3 40L0 40L0 44L1 44L1 46L0 46L0 47L3 47L3 48L4 48L4 49L1 49L1 48L0 48L0 49L1 49L1 53L0 53L0 54L1 54L1 53L3 53L3 51L2 51L2 50L4 50L4 49L8 49L8 52L6 52L6 51L7 51L7 50L5 50L5 53L7 53L7 54L6 54L6 55L7 55L7 56L5 56L5 57L7 57L7 56L9 56L9 57L10 57L10 58L9 58L9 59L8 59L8 58L4 58L4 57L3 57L3 56L2 56L2 55L4 55L4 54L2 54L2 55L0 55L0 57L1 57L1 56L2 56L2 57L3 57L3 58L2 58L2 59L3 59L3 58L4 58L4 59L7 59L7 60L6 60L6 61L8 61L8 62L10 62L10 61L11 61L11 59L12 59L12 60L14 60L14 61L12 61L12 62L11 62L11 63L10 63L10 64L9 64L9 65L8 65L8 69L14 69L14 67L13 67L13 65L16 65L16 66L15 66L15 67L17 67L17 66L18 66L18 68L17 68L17 69L18 69L18 68L19 68L19 69L23 69L23 68L26 68L26 67L25 67L25 66L26 66L26 64L28 64L28 63L27 63L27 61L26 61L26 60L27 60L27 57L29 57L29 58L28 58L28 61L29 61L29 63L30 63L30 62L31 62L31 66L30 66L30 65L29 65L29 66L28 66L28 65L27 65L27 69L30 69L30 68L31 68L31 67L32 67L32 68L34 68L34 69L35 69L35 68L34 68L34 67L35 67L35 65L36 65L36 66L37 66L37 62L39 62L39 63L38 63L38 64L39 64L39 66L38 66L38 68L39 68L39 69L43 69L43 67L42 67L42 68L40 68L40 67L41 67L41 66L42 66L42 65L40 65L40 64L41 64L41 62L39 62L39 61L40 61L40 60L41 60L41 61L42 61L42 60L41 60L41 59L42 59L42 58L43 58L43 56L41 56L41 55L40 55L40 56L39 56L39 55L37 55L37 56L35 56L35 53L31 53L31 54L30 54L30 55L31 55L31 54L32 54L32 56L31 56L31 57L29 57L29 52L28 52L28 51L29 51L29 50L30 50L30 51L32 51L32 52L33 52L33 48L32 48L32 47L31 47L31 48L29 48L29 47L28 47L28 48L29 48L29 50L27 50L27 49L25 49L25 47L23 47L23 49L25 49L25 50L24 50L24 51L23 51L23 50L22 50L22 49L21 49L21 50L20 50L20 49L19 49L19 50L18 50L18 48L20 48L20 47L21 47L21 46L20 46L20 45L18 45L18 44L21 44L21 45L23 45L23 46L26 46L26 47L27 47L27 46L26 46L26 45L23 45L23 44L21 44L21 43L23 43L23 42L26 42L26 43L24 43L24 44L27 44L27 42L29 42L29 43L31 43L31 42L33 42L33 43L35 43L35 44L31 44L31 45L33 45L33 46L34 46L34 47L35 47L35 48L38 48L38 49L36 49L36 50L40 50L40 49L39 49L39 47L40 47L40 48L42 48L42 49L44 49L44 48L43 48L43 45L42 45L42 44L41 44L41 45L40 45L40 44L39 44L39 46L38 46L38 44L37 44L37 45L36 45L36 42L37 42L37 43L38 43L38 42L37 42L37 39L36 39L36 38L37 38L37 37L38 37L38 38L40 38L40 39L39 39L39 40L38 40L38 41L39 41L39 42L40 42L40 43L43 43L43 42L42 42L42 41L41 41L41 42L40 42L40 40L41 40L41 37L43 37L43 38L44 38L44 39L45 39L45 40L43 40L43 41L45 41L45 42L44 42L44 44L45 44L45 45L44 45L44 47L46 47L46 48L45 48L45 50L44 50L44 52L42 52L42 51L41 51L41 53L40 53L40 52L39 52L39 51L35 51L35 50L34 50L34 51L35 51L35 52L39 52L39 53L38 53L38 54L42 54L42 55L43 55L43 54L44 54L44 55L46 55L46 54L47 54L47 52L49 52L49 53L50 53L50 51L51 51L51 50L52 50L52 52L51 52L51 55L49 55L49 54L48 54L48 55L47 55L47 59L45 59L45 58L44 58L44 59L45 59L45 61L44 61L44 60L43 60L43 61L44 61L44 62L43 62L43 63L44 63L44 64L43 64L43 65L45 65L45 63L46 63L46 60L47 60L47 61L49 61L49 62L48 62L48 63L50 63L50 62L51 62L51 60L52 60L52 59L53 59L53 58L50 58L50 57L51 57L51 56L52 56L52 57L53 57L53 54L54 54L54 52L53 52L53 51L54 51L54 50L53 50L53 49L56 49L56 48L53 48L53 49L50 49L50 48L49 48L49 47L50 47L50 46L49 46L49 45L48 45L48 44L49 44L49 43L50 43L50 42L49 42L49 41L51 41L51 44L50 44L50 45L51 45L51 46L52 46L52 47L53 47L53 46L52 46L52 45L53 45L53 44L52 44L52 43L54 43L54 44L55 44L55 43L54 43L54 41L55 41L55 42L61 42L61 43L59 43L59 44L60 44L60 46L59 46L59 47L58 47L58 46L57 46L57 45L58 45L58 43L57 43L57 45L56 45L56 46L57 46L57 50L58 50L58 51L55 51L55 52L56 52L56 54L55 54L55 56L57 56L57 57L59 57L59 56L58 56L58 55L60 55L60 61L59 61L59 62L60 62L60 63L58 63L58 62L57 62L57 61L56 61L56 60L55 60L55 63L56 63L56 62L57 62L57 64L53 64L53 65L52 65L52 64L51 64L51 65L52 65L52 66L51 66L51 68L50 68L50 66L48 66L48 65L46 65L46 68L45 68L45 69L47 69L47 67L48 67L48 68L49 68L49 69L53 69L53 68L55 68L55 67L56 67L56 66L57 66L57 68L58 68L58 69L59 69L59 68L60 68L60 69L63 69L63 68L64 68L64 67L62 67L62 66L64 66L64 65L65 65L65 66L68 66L68 65L69 65L69 64L67 64L67 63L65 63L65 61L68 61L68 60L66 60L66 59L65 59L65 58L61 58L61 55L62 55L62 53L63 53L63 54L65 54L65 55L64 55L64 57L68 57L68 56L66 56L66 55L68 55L68 54L69 54L69 52L68 52L68 51L67 51L67 50L68 50L68 49L69 49L69 48L68 48L68 47L69 47L69 46L67 46L67 45L66 45L66 44L64 44L64 43L62 43L62 42L63 42L63 41L64 41L64 42L65 42L65 40L66 40L66 42L67 42L67 43L68 43L68 40L67 40L67 39L65 39L65 38L63 38L63 39L62 39L62 41L61 41L61 40L59 40L59 39L61 39L61 38L60 38L60 37L68 37L68 38L69 38L69 37L68 37L68 36L69 36L69 31L67 31L67 32L65 32L65 31L63 31L63 32L60 32L60 33L59 33L59 34L60 34L60 37L59 37L59 35L58 35L58 34L57 34L57 33L58 33L58 32L59 32L59 31L58 31L58 30L60 30L60 31L62 31L62 30L60 30L60 29L58 29L58 28L61 28L61 27L60 27L60 26L59 26L59 27L58 27L58 28L56 28L56 27L54 27L54 26L53 26L53 28L54 28L54 29L53 29L53 30L54 30L54 32L52 32L52 28L50 28L50 26L51 26L51 24L50 24L50 25L49 25L49 23L51 23L51 22L53 22L53 25L55 25L55 26L58 26L58 25L56 25L56 23L57 23L57 24L60 24L60 23L59 23L59 22L62 22L62 21L63 21L63 22L64 22L64 21L65 21L65 20L63 20L63 18L62 18L62 20L61 20L61 19L60 19L60 16L61 16L61 17L64 17L64 15L65 15L65 19L66 19L66 18L67 18L67 20L69 20L69 19L68 19L68 18L69 18L69 15L66 15L66 14L67 14L67 12L66 12L66 11L68 11L68 14L69 14L69 8L68 8L68 9L67 9L67 8L64 8L64 11L62 11L62 10L61 10L61 9L62 9L62 8L61 8L61 6L60 6L60 7L59 7L59 4L58 4L58 7L57 7L57 5L56 5L56 2L57 2L57 0L56 0L56 2L55 2L55 6L54 6L54 7L53 7L53 6L52 6L52 5L51 5L51 1L50 1L50 0L49 0L49 1L46 1L46 2L45 2L45 0L44 0L44 2L42 2L42 1L43 1L43 0L39 0L39 1L40 1L40 2L39 2L39 3L41 3L41 2L42 2L42 3L43 3L43 6L42 6L42 5L41 5L41 4L38 4L38 2L37 2L37 3L35 3L35 2L34 2L34 1L38 1L38 0L33 0L33 3L35 3L35 4L32 4L32 3L31 3L31 1L32 1L32 0L30 0L30 1L29 1L29 0L28 0L28 2L27 2L27 1L25 1L25 0L21 0L21 1L19 1L19 0L16 0L16 1L15 1L15 0L14 0L14 1L13 1L13 0ZM53 0L53 1L52 1L52 3L53 3L53 4L54 4L54 3L53 3L53 2L54 2L54 1L55 1L55 0ZM58 0L58 1L61 1L61 0ZM16 1L16 3L17 3L17 2L19 2L19 1ZM24 1L24 5L23 5L23 7L22 7L22 4L23 4L23 2L20 2L20 3L19 3L19 4L15 4L15 5L16 5L16 6L15 6L15 7L14 7L14 6L13 6L13 7L12 7L12 4L10 4L10 5L11 5L11 7L12 7L12 8L9 8L9 9L10 9L10 12L11 12L11 11L13 11L13 12L12 12L12 14L10 14L10 13L9 13L9 15L8 15L8 14L7 14L7 13L5 13L5 14L3 14L3 15L5 15L5 14L7 14L7 15L6 15L6 16L8 16L8 19L5 19L5 18L4 18L4 19L3 19L3 18L2 18L2 21L4 21L4 20L7 20L7 21L6 21L6 22L7 22L7 23L6 23L6 24L8 24L8 25L10 25L10 26L9 26L9 27L8 27L8 26L7 26L7 25L5 25L5 23L4 23L4 24L3 24L3 25L5 25L5 26L7 26L7 27L6 27L6 28L5 28L5 29L4 29L4 28L3 28L3 26L2 26L2 28L3 28L3 29L4 29L4 30L7 30L7 31L5 31L5 32L7 32L7 31L12 31L12 32L14 32L14 33L13 33L13 34L12 34L12 35L13 35L13 34L14 34L14 35L15 35L15 36L18 36L18 35L19 35L19 34L23 34L23 35L24 35L24 39L26 39L26 40L27 40L27 41L28 41L28 39L27 39L27 37L28 37L28 38L31 38L31 37L29 37L29 35L28 35L28 32L27 32L27 31L25 31L25 34L23 34L23 33L21 33L21 32L24 32L24 31L22 31L22 30L27 30L27 29L28 29L28 28L27 28L27 27L26 27L26 28L27 28L27 29L24 29L24 27L25 27L25 25L24 25L24 27L23 27L23 25L22 25L22 24L26 24L26 25L28 25L28 27L29 27L29 29L30 29L30 30L29 30L29 32L30 32L30 33L29 33L29 34L30 34L30 33L31 33L31 34L32 34L32 33L31 33L31 31L33 31L33 30L32 30L32 29L33 29L33 28L34 28L34 30L36 30L36 29L37 29L37 30L39 30L39 29L41 29L41 30L40 30L40 31L38 31L38 32L40 32L40 31L41 31L41 33L42 33L42 32L43 32L43 35L45 35L45 34L46 34L46 35L47 35L47 36L49 36L49 35L48 35L48 34L47 34L47 32L48 32L48 33L50 33L50 34L53 34L53 35L54 35L54 36L50 36L50 37L51 37L51 38L49 38L49 37L48 37L48 39L47 39L47 37L46 37L46 38L45 38L45 36L44 36L44 38L45 38L45 39L47 39L47 40L46 40L46 41L49 41L49 40L50 40L50 39L51 39L51 40L52 40L52 41L54 41L54 38L56 38L56 40L57 40L57 41L59 41L59 40L57 40L57 39L59 39L59 37L58 37L58 35L54 35L54 33L55 33L55 34L56 34L56 33L57 33L57 31L56 31L56 32L54 32L54 33L51 33L51 32L49 32L49 31L50 31L50 30L51 30L51 29L50 29L50 28L49 28L49 26L48 26L48 24L47 24L47 25L46 25L46 23L47 23L47 22L48 22L48 21L49 21L49 19L51 19L51 20L50 20L50 22L51 22L51 20L52 20L52 19L53 19L53 21L54 21L54 18L55 18L55 17L54 17L54 18L53 18L53 14L55 14L55 13L57 13L57 12L58 12L58 14L57 14L57 17L58 17L58 16L59 16L59 15L58 15L58 14L59 14L59 12L60 12L60 15L61 15L61 16L62 16L62 14L61 14L61 13L62 13L62 11L61 11L61 12L60 12L60 10L59 10L59 9L57 9L57 7L56 7L56 6L55 6L55 7L54 7L54 9L55 9L55 7L56 7L56 10L57 10L57 12L56 12L56 11L54 11L54 12L52 12L52 11L53 11L53 9L51 9L51 8L53 8L53 7L52 7L52 6L51 6L51 5L47 5L47 3L49 3L49 4L50 4L50 3L49 3L49 2L47 2L47 3L46 3L46 5L45 5L45 8L44 8L44 6L43 6L43 9L45 9L45 10L46 10L46 14L43 14L43 12L44 12L44 13L45 13L45 12L44 12L44 10L43 10L43 12L41 12L41 13L42 13L42 14L43 14L43 15L41 15L41 14L40 14L40 11L39 11L39 10L40 10L40 9L39 9L39 8L41 8L41 9L42 9L42 8L41 8L41 7L42 7L42 6L41 6L41 7L40 7L40 6L39 6L39 5L38 5L38 4L37 4L37 7L38 7L38 6L39 6L39 8L37 8L37 10L38 10L38 12L39 12L39 14L40 14L40 17L41 17L41 16L42 16L42 18L43 18L43 19L42 19L42 21L44 21L44 22L43 22L43 23L42 23L42 24L40 24L40 22L41 22L41 21L40 21L40 22L39 22L39 23L38 23L38 22L35 22L35 21L37 21L37 19L38 19L38 20L39 20L39 17L38 17L38 15L37 15L37 12L36 12L36 9L35 9L35 12L36 12L36 15L37 15L37 19L35 19L35 17L36 17L36 16L35 16L35 15L34 15L34 17L33 17L33 18L32 18L32 17L31 17L31 16L29 16L29 15L28 15L28 17L26 17L26 16L27 16L27 13L28 13L28 14L29 14L29 12L31 12L31 10L32 10L32 6L31 6L31 10L30 10L30 9L29 9L29 7L30 7L30 6L29 6L29 7L28 7L28 5L29 5L29 3L30 3L30 2L28 2L28 3L26 3L26 4L28 4L28 5L27 5L27 7L26 7L26 6L25 6L25 7L24 7L24 5L25 5L25 1ZM12 2L12 3L13 3L13 2ZM58 2L58 3L59 3L59 2ZM20 3L20 4L19 4L19 6L18 6L18 5L17 5L17 6L16 6L16 8L17 8L17 10L18 10L18 11L19 11L19 12L17 12L17 11L16 11L16 9L15 9L15 8L14 8L14 7L13 7L13 8L12 8L12 10L13 10L13 11L15 11L15 12L17 12L17 15L13 15L13 16L12 16L12 15L10 15L10 17L9 17L9 19L8 19L8 20L9 20L9 22L8 22L8 24L9 24L9 23L10 23L10 25L11 25L11 26L10 26L10 27L13 27L13 25L14 25L14 24L15 24L15 26L14 26L14 29L13 29L13 28L12 28L12 29L11 29L11 28L8 28L8 30L12 30L12 31L14 31L14 30L16 30L16 31L15 31L15 33L14 33L14 34L15 34L15 33L16 33L16 31L17 31L17 30L18 30L18 31L19 31L19 32L21 32L21 30L22 30L22 28L21 28L21 27L20 27L20 26L21 26L21 25L19 25L19 24L18 24L18 23L20 23L20 19L21 19L21 23L25 23L25 21L24 21L24 20L27 20L27 19L26 19L26 18L24 18L24 19L23 19L23 18L21 18L21 17L22 17L22 16L23 16L23 13L22 13L22 12L21 12L21 13L19 13L19 12L20 12L20 11L19 11L19 10L20 10L20 9L21 9L21 8L22 8L22 9L23 9L23 12L24 12L24 13L25 13L25 14L24 14L24 17L25 17L25 16L26 16L26 12L25 12L25 11L27 11L27 12L29 12L29 11L27 11L27 9L28 9L28 7L27 7L27 9L26 9L26 10L24 10L24 9L23 9L23 8L22 8L22 7L21 7L21 3ZM44 3L44 4L45 4L45 3ZM60 3L60 5L61 5L61 3ZM13 4L13 5L14 5L14 4ZM30 4L30 5L31 5L31 4ZM33 5L33 8L36 8L36 5ZM46 5L46 7L47 7L47 5ZM9 6L9 7L10 7L10 6ZM17 6L17 7L18 7L18 10L19 10L19 8L21 8L21 7L20 7L20 6L19 6L19 7L18 7L18 6ZM34 6L34 7L35 7L35 6ZM48 6L48 7L49 7L49 9L48 9L48 8L46 8L46 9L47 9L47 11L48 11L48 12L47 12L47 13L49 13L49 14L48 14L48 15L46 15L46 16L48 16L48 15L49 15L49 16L50 16L50 17L52 17L52 15L51 15L51 16L50 16L50 14L51 14L51 13L50 13L50 12L51 12L51 10L50 10L50 8L51 8L51 6L50 6L50 7L49 7L49 6ZM13 8L13 10L14 10L14 8ZM6 9L6 10L7 10L7 9ZM33 9L33 11L32 11L32 13L30 13L30 14L31 14L31 15L32 15L32 16L33 16L33 15L32 15L32 13L33 13L33 14L35 14L35 13L33 13L33 11L34 11L34 9ZM65 9L65 10L66 10L66 9ZM0 10L0 12L2 12L2 11L1 11L1 10ZM41 10L41 11L42 11L42 10ZM49 10L49 12L50 12L50 10ZM58 11L58 12L59 12L59 11ZM64 11L64 12L63 12L63 13L64 13L64 14L65 14L65 11ZM13 12L13 13L14 13L14 12ZM15 13L15 14L16 14L16 13ZM18 13L18 14L19 14L19 15L17 15L17 16L14 16L14 17L13 17L13 19L12 19L12 21L11 21L11 22L10 22L10 23L11 23L11 24L12 24L12 25L13 25L13 24L14 24L14 23L13 23L13 20L15 20L15 18L19 18L19 19L20 19L20 16L19 16L19 15L20 15L20 14L19 14L19 13ZM21 14L21 15L22 15L22 14ZM44 15L44 16L43 16L43 18L44 18L44 20L45 20L45 21L46 21L46 19L45 19L45 18L48 18L48 19L47 19L47 21L48 21L48 19L49 19L49 18L48 18L48 17L45 17L45 15ZM55 15L55 16L56 16L56 15ZM2 16L2 17L5 17L5 16ZM11 16L11 17L10 17L10 20L11 20L11 18L12 18L12 16ZM18 16L18 17L19 17L19 16ZM66 16L66 17L67 17L67 18L68 18L68 16ZM6 17L6 18L7 18L7 17ZM14 17L14 18L15 18L15 17ZM28 17L28 18L29 18L29 19L31 19L31 21L33 21L33 20L34 20L34 21L35 21L35 20L34 20L34 18L33 18L33 19L32 19L32 18L31 18L31 17L30 17L30 18L29 18L29 17ZM44 17L44 18L45 18L45 17ZM51 18L51 19L52 19L52 18ZM56 18L56 19L55 19L55 22L54 22L54 24L55 24L55 22L57 22L57 18ZM58 18L58 19L59 19L59 21L58 21L58 22L59 22L59 21L60 21L60 19L59 19L59 18ZM16 19L16 21L15 21L15 23L16 23L16 25L17 25L17 26L15 26L15 28L16 28L16 29L19 29L19 30L21 30L21 29L20 29L20 28L19 28L19 27L17 27L17 26L18 26L18 25L17 25L17 23L16 23L16 22L17 22L17 19ZM22 19L22 20L23 20L23 19ZM18 20L18 21L19 21L19 20ZM28 20L28 21L29 21L29 22L28 22L28 23L29 23L29 24L28 24L28 25L29 25L29 24L30 24L30 25L31 25L31 24L30 24L30 20ZM22 21L22 22L23 22L23 21ZM26 21L26 24L27 24L27 21ZM67 21L67 22L68 22L68 23L69 23L69 21ZM11 22L11 23L12 23L12 22ZM33 23L33 24L32 24L32 26L31 26L31 27L30 27L30 26L29 26L29 27L30 27L30 28L33 28L33 27L35 27L35 29L36 29L36 28L37 28L37 29L38 29L38 28L39 28L39 26L40 26L40 25L38 25L38 23L37 23L37 24L36 24L36 23ZM43 23L43 24L42 24L42 25L44 25L44 27L42 27L42 26L41 26L41 27L42 27L42 28L41 28L41 29L42 29L42 28L43 28L43 31L44 31L44 30L45 30L45 31L49 31L49 29L46 29L46 27L47 27L47 26L46 26L46 25L44 25L44 23ZM61 23L61 26L63 26L63 27L62 27L62 28L63 28L63 29L64 29L64 27L65 27L65 28L66 28L66 30L67 30L67 29L68 29L68 30L69 30L69 28L68 28L68 27L66 27L66 26L63 26L63 25L62 25L62 24L63 24L63 23ZM65 23L65 24L66 24L66 23ZM33 24L33 25L35 25L35 27L37 27L37 28L38 28L38 26L37 26L37 25L36 25L36 24ZM67 24L67 25L69 25L69 24ZM32 26L32 27L33 27L33 26ZM45 26L45 27L44 27L44 28L45 28L45 27L46 27L46 26ZM16 27L16 28L17 28L17 27ZM6 28L6 29L7 29L7 28ZM12 29L12 30L13 30L13 29ZM54 29L54 30L57 30L57 29ZM30 30L30 31L31 31L31 30ZM35 31L35 32L37 32L37 31ZM26 32L26 33L27 33L27 32ZM1 33L1 34L2 34L2 33ZM5 33L5 36L8 36L8 33ZM17 33L17 34L16 34L16 35L18 35L18 34L19 34L19 33ZM33 33L33 36L36 36L36 33ZM38 33L38 37L39 37L39 34L40 34L40 33ZM44 33L44 34L45 34L45 33ZM61 33L61 36L64 36L64 33ZM67 33L67 34L68 34L68 33ZM3 34L3 35L4 35L4 34ZM6 34L6 35L7 35L7 34ZM34 34L34 35L35 35L35 34ZM62 34L62 35L63 35L63 34ZM20 35L20 36L19 36L19 37L16 37L16 39L18 39L18 40L16 40L16 41L15 41L15 42L13 42L13 41L11 41L11 42L12 42L12 44L13 44L13 45L11 45L11 44L9 44L9 45L8 45L8 46L7 46L7 47L6 47L6 48L11 48L11 49L16 49L16 52L15 52L15 51L14 51L14 50L12 50L12 51L10 51L10 49L9 49L9 53L8 53L8 54L7 54L7 55L8 55L8 54L9 54L9 56L10 56L10 57L12 57L12 56L15 56L15 57L14 57L14 58L13 58L13 59L14 59L14 58L15 58L15 59L16 59L16 60L15 60L15 61L16 61L16 62L17 62L17 63L19 63L19 64L18 64L18 66L19 66L19 64L22 64L22 65L20 65L20 67L19 67L19 68L20 68L20 67L21 67L21 68L22 68L22 67L24 67L24 66L25 66L25 64L26 64L26 62L25 62L25 60L26 60L26 59L25 59L25 58L24 58L24 57L27 57L27 56L28 56L28 55L26 55L26 56L25 56L25 55L24 55L24 54L25 54L25 52L26 52L26 51L27 51L27 50L25 50L25 51L24 51L24 52L23 52L23 51L22 51L22 53L24 53L24 54L23 54L23 56L22 56L22 54L21 54L21 53L20 53L20 52L19 52L19 51L18 51L18 50L17 50L17 48L18 48L18 46L17 46L17 45L15 45L15 44L17 44L17 43L19 43L19 42L20 42L20 43L21 43L21 41L23 41L23 39L22 39L22 38L23 38L23 36L21 36L21 35ZM26 35L26 36L25 36L25 38L26 38L26 36L28 36L28 35ZM30 35L30 36L31 36L31 35ZM40 35L40 37L41 37L41 35ZM66 35L66 36L67 36L67 35ZM54 36L54 37L56 37L56 38L58 38L58 37L56 37L56 36ZM19 37L19 38L20 38L20 39L19 39L19 40L21 40L21 38L22 38L22 37ZM33 37L33 38L32 38L32 39L34 39L34 38L36 38L36 37ZM52 37L52 38L53 38L53 37ZM6 39L6 40L8 40L8 41L9 41L9 40L8 40L8 39ZM29 39L29 42L31 42L31 41L33 41L33 42L34 42L34 41L35 41L35 42L36 42L36 40L34 40L34 41L33 41L33 40L31 40L31 39ZM24 40L24 41L25 41L25 40ZM30 40L30 41L31 41L31 40ZM1 41L1 43L2 43L2 42L3 42L3 41ZM16 41L16 42L19 42L19 41ZM45 42L45 44L46 44L46 42ZM14 43L14 44L15 44L15 43ZM47 43L47 44L48 44L48 43ZM28 44L28 45L29 45L29 46L30 46L30 44ZM62 44L62 45L61 45L61 46L60 46L60 47L59 47L59 49L58 49L58 50L60 50L60 47L61 47L61 49L62 49L62 48L63 48L63 49L64 49L64 50L61 50L61 51L60 51L60 52L61 52L61 51L63 51L63 53L65 53L65 54L66 54L66 53L68 53L68 52L66 52L66 53L65 53L65 52L64 52L64 51L66 51L66 50L67 50L67 46L66 46L66 45L63 45L63 44ZM68 44L68 45L69 45L69 44ZM10 45L10 47L11 47L11 48L13 48L13 47L14 47L14 46L11 46L11 45ZM35 45L35 46L36 46L36 47L38 47L38 46L36 46L36 45ZM41 45L41 47L42 47L42 45ZM45 45L45 46L47 46L47 45ZM54 45L54 47L55 47L55 45ZM62 45L62 46L61 46L61 47L63 47L63 45ZM16 46L16 47L17 47L17 46ZM19 46L19 47L20 47L20 46ZM64 46L64 47L65 47L65 48L66 48L66 46ZM4 47L4 48L5 48L5 47ZM47 47L47 48L46 48L46 50L47 50L47 48L48 48L48 47ZM31 48L31 49L30 49L30 50L31 50L31 49L32 49L32 48ZM48 49L48 50L49 50L49 51L50 51L50 49ZM65 49L65 50L66 50L66 49ZM45 51L45 53L46 53L46 51ZM58 51L58 53L59 53L59 54L60 54L60 55L61 55L61 54L60 54L60 53L59 53L59 51ZM10 52L10 54L11 54L11 53L12 53L12 52ZM14 52L14 53L13 53L13 54L12 54L12 55L10 55L10 56L12 56L12 55L16 55L16 59L18 59L18 60L17 60L17 62L20 62L20 63L21 63L21 62L22 62L22 64L23 64L23 65L22 65L22 66L24 66L24 64L25 64L25 62L24 62L24 63L23 63L23 61L22 61L22 60L23 60L23 59L21 59L21 58L22 58L22 56L21 56L21 58L20 58L20 57L18 57L18 56L19 56L19 55L20 55L20 54L19 54L19 53L18 53L18 52L17 52L17 53L15 53L15 52ZM27 52L27 53L28 53L28 52ZM52 52L52 53L53 53L53 52ZM36 53L36 54L37 54L37 53ZM42 53L42 54L43 54L43 53ZM16 54L16 55L17 55L17 56L18 56L18 55L17 55L17 54ZM56 54L56 55L57 55L57 54ZM33 55L33 56L34 56L34 55ZM48 55L48 59L47 59L47 60L48 60L48 59L49 59L49 55ZM23 56L23 57L24 57L24 56ZM37 56L37 57L38 57L38 59L39 59L39 60L38 60L38 61L39 61L39 60L40 60L40 58L39 58L39 56ZM45 56L45 57L46 57L46 56ZM31 57L31 58L29 58L29 59L31 59L31 62L32 62L32 60L34 60L34 59L35 59L35 58L36 58L36 60L37 60L37 58L36 58L36 57L35 57L35 58L34 58L34 59L33 59L33 58L32 58L32 57ZM54 57L54 59L58 59L58 58L55 58L55 57ZM0 58L0 61L1 61L1 58ZM10 58L10 59L9 59L9 60L8 60L8 61L9 61L9 60L10 60L10 59L11 59L11 58ZM67 58L67 59L69 59L69 58ZM19 59L19 60L20 60L20 59ZM50 59L50 60L51 60L51 59ZM61 59L61 60L63 60L63 59ZM3 60L3 61L5 61L5 60ZM33 61L33 64L36 64L36 61ZM52 61L52 63L54 63L54 62L53 62L53 61ZM61 61L61 64L64 64L64 61ZM12 62L12 63L11 63L11 64L10 64L10 65L11 65L11 64L12 64L12 65L13 65L13 62ZM34 62L34 63L35 63L35 62ZM44 62L44 63L45 63L45 62ZM62 62L62 63L63 63L63 62ZM14 63L14 64L16 64L16 63ZM57 64L57 65L58 65L58 64ZM59 64L59 66L58 66L58 67L59 67L59 66L61 66L61 65L60 65L60 64ZM54 65L54 66L52 66L52 68L53 68L53 67L55 67L55 66L56 66L56 65ZM11 66L11 67L10 67L10 68L11 68L11 67L12 67L12 66ZM33 66L33 67L34 67L34 66ZM39 66L39 67L40 67L40 66ZM44 66L44 67L45 67L45 66ZM29 67L29 68L30 68L30 67ZM68 67L68 68L69 68L69 67ZM0 0L0 7L7 7L7 0ZM1 1L1 6L6 6L6 1ZM2 2L2 5L5 5L5 2ZM62 0L62 7L69 7L69 0ZM63 1L63 6L68 6L68 1ZM64 2L64 5L67 5L67 2ZM0 62L0 69L7 69L7 62ZM1 63L1 68L6 68L6 63ZM2 64L2 67L5 67L5 64Z" fill="#000000"/></g></g></svg>
