<?xml version="1.0" encoding="UTF-8"?>
<svg xmlns="http://www.w3.org/2000/svg" version="1.1" width="300" height="300" viewBox="0 0 300 300"><rect x="0" y="0" width="300" height="300" fill="#ffffff"/><g transform="scale(4.615)"><g transform="translate(0,0)"><path fill-rule="evenodd" d="M8 0L8 2L9 2L9 3L10 3L10 2L9 2L9 1L10 1L10 0ZM11 0L11 6L10 6L10 5L9 5L9 4L8 4L8 9L7 9L7 8L5 8L5 9L3 9L3 8L0 8L0 9L1 9L1 10L0 10L0 18L2 18L2 15L4 15L4 16L3 16L3 17L8 17L8 16L10 16L10 17L13 17L13 16L14 16L14 18L11 18L11 19L10 19L10 20L9 20L9 18L4 18L4 19L7 19L7 20L6 20L6 21L8 21L8 23L7 23L7 22L5 22L5 20L4 20L4 21L3 21L3 23L4 23L4 24L1 24L1 26L0 26L0 27L1 27L1 30L2 30L2 31L0 31L0 33L1 33L1 34L0 34L0 36L1 36L1 35L2 35L2 36L3 36L3 38L2 38L2 37L0 37L0 38L1 38L1 39L3 39L3 40L2 40L2 42L1 42L1 41L0 41L0 42L1 42L1 45L2 45L2 46L3 46L3 48L2 48L2 49L3 49L3 50L4 50L4 52L5 52L5 53L3 53L3 52L2 52L2 50L0 50L0 54L2 54L2 55L3 55L3 56L1 56L1 55L0 55L0 56L1 56L1 57L3 57L3 56L4 56L4 57L5 57L5 56L4 56L4 54L5 54L5 55L7 55L7 56L6 56L6 57L7 57L7 56L8 56L8 55L9 55L9 56L10 56L10 58L9 58L9 57L8 57L8 58L9 58L9 59L8 59L8 60L9 60L9 61L10 61L10 62L8 62L8 65L16 65L16 64L9 64L9 63L11 63L11 59L12 59L12 58L13 58L13 60L14 60L14 61L12 61L12 62L13 62L13 63L14 63L14 62L15 62L15 60L16 60L16 61L17 61L17 62L16 62L16 63L18 63L18 61L19 61L19 59L20 59L20 57L21 57L21 59L22 59L22 60L20 60L20 61L21 61L21 62L20 62L20 63L21 63L21 65L24 65L24 64L23 64L23 63L22 63L22 62L23 62L23 60L24 60L24 61L25 61L25 62L24 62L24 63L26 63L26 65L27 65L27 64L28 64L28 63L29 63L29 64L30 64L30 65L31 65L31 64L32 64L32 65L34 65L34 63L35 63L35 64L36 64L36 65L37 65L37 63L36 63L36 62L35 62L35 60L36 60L36 61L37 61L37 62L38 62L38 65L39 65L39 63L41 63L41 64L40 64L40 65L41 65L41 64L42 64L42 65L43 65L43 63L41 63L41 61L42 61L42 60L43 60L43 58L44 58L44 59L45 59L45 58L46 58L46 59L47 59L47 60L48 60L48 63L50 63L50 60L48 60L48 59L49 59L49 58L46 58L46 56L47 56L47 54L48 54L48 53L49 53L49 55L48 55L48 57L51 57L51 59L52 59L52 57L53 57L53 58L54 58L54 57L53 57L53 55L51 55L51 54L50 54L50 53L51 53L51 52L50 52L50 51L49 51L49 52L48 52L48 53L47 53L47 54L46 54L46 51L47 51L47 50L48 50L48 49L49 49L49 48L50 48L50 49L51 49L51 51L52 51L52 49L53 49L53 52L52 52L52 54L54 54L54 53L57 53L57 54L58 54L58 55L55 55L55 59L56 59L56 60L55 60L55 61L56 61L56 63L57 63L57 64L56 64L56 65L59 65L59 64L58 64L58 63L59 63L59 62L57 62L57 61L60 61L60 63L61 63L61 64L60 64L60 65L62 65L62 63L65 63L65 62L63 62L63 61L64 61L64 60L65 60L65 54L64 54L64 55L63 55L63 54L62 54L62 51L63 51L63 52L64 52L64 51L65 51L65 48L64 48L64 47L65 47L65 46L64 46L64 44L65 44L65 40L64 40L64 39L65 39L65 37L64 37L64 36L63 36L63 38L62 38L62 39L63 39L63 40L64 40L64 41L61 41L61 40L60 40L60 37L61 37L61 36L62 36L62 34L63 34L63 33L62 33L62 34L61 34L61 29L63 29L63 28L62 28L62 25L64 25L64 24L62 24L62 23L60 23L60 21L61 21L61 22L62 22L62 21L63 21L63 22L64 22L64 23L65 23L65 22L64 22L64 21L63 21L63 20L64 20L64 19L65 19L65 18L64 18L64 19L63 19L63 16L64 16L64 17L65 17L65 16L64 16L64 15L65 15L65 13L63 13L63 12L64 12L64 11L65 11L65 10L64 10L64 11L63 11L63 12L62 12L62 9L61 9L61 8L55 8L55 11L53 11L53 10L54 10L54 9L53 9L53 8L54 8L54 7L55 7L55 5L53 5L53 6L52 6L52 7L53 7L53 8L52 8L52 9L51 9L51 10L50 10L50 9L49 9L49 8L50 8L50 7L51 7L51 5L52 5L52 1L53 1L53 0L50 0L50 1L51 1L51 4L50 4L50 5L49 5L49 4L48 4L48 3L47 3L47 2L49 2L49 3L50 3L50 2L49 2L49 0L48 0L48 1L47 1L47 0L46 0L46 1L47 1L47 2L46 2L46 3L47 3L47 4L46 4L46 5L47 5L47 4L48 4L48 5L49 5L49 6L48 6L48 7L47 7L47 6L46 6L46 7L45 7L45 6L44 6L44 5L45 5L45 4L42 4L42 8L43 8L43 6L44 6L44 9L43 9L43 10L44 10L44 11L46 11L46 12L44 12L44 13L43 13L43 12L42 12L42 13L41 13L41 11L42 11L42 9L41 9L41 8L40 8L40 9L41 9L41 10L40 10L40 13L39 13L39 14L38 14L38 13L37 13L37 10L38 10L38 11L39 11L39 10L38 10L38 7L39 7L39 6L40 6L40 7L41 7L41 4L40 4L40 3L42 3L42 1L43 1L43 2L44 2L44 1L45 1L45 0L42 0L42 1L41 1L41 2L40 2L40 1L39 1L39 0L38 0L38 1L37 1L37 2L38 2L38 1L39 1L39 3L38 3L38 5L35 5L35 4L36 4L36 1L35 1L35 0L34 0L34 1L35 1L35 3L34 3L34 2L33 2L33 0L30 0L30 1L29 1L29 0L28 0L28 1L27 1L27 2L26 2L26 3L27 3L27 4L26 4L26 5L27 5L27 6L26 6L26 7L27 7L27 6L28 6L28 8L29 8L29 6L30 6L30 10L28 10L28 11L27 11L27 8L26 8L26 11L24 11L24 9L25 9L25 8L22 8L22 9L23 9L23 12L22 12L22 13L21 13L21 12L18 12L18 13L16 13L16 12L17 12L17 11L18 11L18 9L19 9L19 8L18 8L18 9L17 9L17 8L16 8L16 7L17 7L17 6L18 6L18 7L19 7L19 6L20 6L20 8L21 8L21 6L22 6L22 7L23 7L23 4L22 4L22 5L21 5L21 3L20 3L20 2L21 2L21 0L19 0L19 2L18 2L18 3L19 3L19 4L18 4L18 5L17 5L17 4L15 4L15 3L17 3L17 1L16 1L16 0L14 0L14 2L13 2L13 1L12 1L12 0ZM24 0L24 1L23 1L23 2L22 2L22 3L23 3L23 2L24 2L24 5L25 5L25 2L24 2L24 1L25 1L25 0ZM55 0L55 1L56 1L56 3L55 3L55 2L53 2L53 4L56 4L56 5L57 5L57 4L56 4L56 3L57 3L57 1L56 1L56 0ZM15 1L15 2L14 2L14 3L15 3L15 2L16 2L16 1ZM30 1L30 3L29 3L29 4L31 4L31 2L32 2L32 1ZM12 2L12 4L13 4L13 2ZM27 2L27 3L28 3L28 2ZM32 3L32 4L34 4L34 3ZM19 4L19 5L18 5L18 6L19 6L19 5L20 5L20 6L21 6L21 5L20 5L20 4ZM27 4L27 5L28 5L28 6L29 6L29 5L28 5L28 4ZM12 5L12 6L11 6L11 7L12 7L12 6L13 6L13 9L16 9L16 10L12 10L12 8L10 8L10 6L9 6L9 8L10 8L10 9L9 9L9 10L7 10L7 9L6 9L6 10L7 10L7 11L6 11L6 12L10 12L10 13L9 13L9 14L12 14L12 16L13 16L13 14L15 14L15 16L16 16L16 13L15 13L15 12L13 12L13 13L12 13L12 12L10 12L10 9L11 9L11 11L17 11L17 9L16 9L16 8L14 8L14 5ZM15 5L15 7L16 7L16 6L17 6L17 5ZM31 5L31 8L34 8L34 5ZM38 5L38 6L37 6L37 7L36 7L36 6L35 6L35 9L34 9L34 11L33 11L33 9L32 9L32 11L33 11L33 12L34 12L34 11L35 11L35 13L34 13L34 15L33 15L33 14L32 14L32 15L33 15L33 17L34 17L34 18L35 18L35 19L34 19L34 23L35 23L35 21L36 21L36 24L33 24L33 25L34 25L34 28L35 28L35 29L34 29L34 30L35 30L35 33L36 33L36 35L32 35L32 36L30 36L30 33L29 33L29 32L30 32L30 30L29 30L29 29L30 29L30 28L31 28L31 30L33 30L33 29L32 29L32 27L33 27L33 26L29 26L29 25L28 25L28 26L29 26L29 27L30 27L30 28L29 28L29 29L27 29L27 30L26 30L26 27L27 27L27 28L28 28L28 27L27 27L27 26L26 26L26 23L24 23L24 22L27 22L27 23L28 23L28 24L29 24L29 23L30 23L30 25L32 25L32 23L31 23L31 22L32 22L32 19L33 19L33 18L32 18L32 16L31 16L31 15L30 15L30 13L29 13L29 14L28 14L28 15L30 15L30 17L29 17L29 16L28 16L28 19L27 19L27 17L26 17L26 16L27 16L27 13L26 13L26 12L27 12L27 11L26 11L26 12L25 12L25 13L26 13L26 15L25 15L25 14L24 14L24 15L25 15L25 17L24 17L24 16L23 16L23 17L22 17L22 15L23 15L23 13L22 13L22 15L21 15L21 14L20 14L20 15L21 15L21 16L20 16L20 19L19 19L19 17L18 17L18 16L19 16L19 15L18 15L18 14L19 14L19 13L18 13L18 14L17 14L17 15L18 15L18 16L17 16L17 17L18 17L18 18L16 18L16 17L15 17L15 18L14 18L14 19L15 19L15 18L16 18L16 19L17 19L17 22L16 22L16 23L17 23L17 25L16 25L16 26L15 26L15 27L11 27L11 26L13 26L13 25L14 25L14 24L13 24L13 23L15 23L15 22L14 22L14 21L15 21L15 20L14 20L14 21L12 21L12 22L11 22L11 20L13 20L13 19L11 19L11 20L10 20L10 21L9 21L9 20L8 20L8 21L9 21L9 23L8 23L8 24L7 24L7 23L6 23L6 24L4 24L4 25L5 25L5 26L2 26L2 28L3 28L3 29L5 29L5 27L6 27L6 28L7 28L7 29L6 29L6 30L7 30L7 29L9 29L9 28L11 28L11 29L12 29L12 30L10 30L10 31L9 31L9 32L10 32L10 31L11 31L11 32L12 32L12 36L13 36L13 37L11 37L11 36L10 36L10 35L11 35L11 33L9 33L9 34L10 34L10 35L8 35L8 36L10 36L10 37L6 37L6 36L7 36L7 35L5 35L5 37L4 37L4 38L3 38L3 39L4 39L4 38L8 38L8 39L6 39L6 40L3 40L3 41L4 41L4 43L3 43L3 44L2 44L2 45L3 45L3 46L4 46L4 47L5 47L5 49L4 49L4 48L3 48L3 49L4 49L4 50L5 50L5 52L7 52L7 51L6 51L6 50L7 50L7 49L8 49L8 51L9 51L9 52L8 52L8 53L6 53L6 54L9 54L9 52L10 52L10 53L13 53L13 52L14 52L14 54L15 54L15 53L16 53L16 56L17 56L17 57L16 57L16 58L17 58L17 59L16 59L16 60L17 60L17 61L18 61L18 58L19 58L19 57L20 57L20 56L21 56L21 57L22 57L22 58L23 58L23 59L24 59L24 60L25 60L25 59L24 59L24 58L26 58L26 60L27 60L27 62L26 62L26 63L28 63L28 62L29 62L29 63L30 63L30 64L31 64L31 63L32 63L32 64L33 64L33 63L34 63L34 61L33 61L33 63L32 63L32 61L31 61L31 62L30 62L30 59L29 59L29 60L28 60L28 58L29 58L29 57L30 57L30 56L29 56L29 57L28 57L28 55L31 55L31 56L35 56L35 55L36 55L36 54L35 54L35 53L36 53L36 52L38 52L38 54L40 54L40 53L39 53L39 49L38 49L38 46L39 46L39 45L40 45L40 47L41 47L41 49L40 49L40 51L41 51L41 52L43 52L43 49L42 49L42 46L43 46L43 45L44 45L44 47L46 47L46 46L47 46L47 43L49 43L49 44L50 44L50 42L51 42L51 43L52 43L52 42L53 42L53 43L54 43L54 44L56 44L56 46L55 46L55 45L54 45L54 46L53 46L53 45L52 45L52 44L51 44L51 45L50 45L50 46L49 46L49 45L48 45L48 47L50 47L50 46L51 46L51 47L53 47L53 49L54 49L54 52L56 52L56 50L57 50L57 53L58 53L58 54L59 54L59 53L60 53L60 55L59 55L59 56L60 56L60 55L61 55L61 53L60 53L60 52L61 52L61 50L63 50L63 51L64 51L64 50L63 50L63 49L62 49L62 48L63 48L63 47L64 47L64 46L63 46L63 45L62 45L62 44L63 44L63 42L62 42L62 44L61 44L61 45L60 45L60 47L59 47L59 48L58 48L58 45L59 45L59 44L60 44L60 42L61 42L61 41L60 41L60 42L59 42L59 41L58 41L58 42L59 42L59 44L58 44L58 45L57 45L57 44L56 44L56 43L57 43L57 41L56 41L56 42L55 42L55 41L54 41L54 40L53 40L53 39L54 39L54 38L55 38L55 40L56 40L56 39L57 39L57 40L58 40L58 37L60 37L60 36L61 36L61 35L60 35L60 36L58 36L58 35L57 35L57 37L56 37L56 38L55 38L55 36L56 36L56 30L57 30L57 29L58 29L58 30L59 30L59 29L60 29L60 28L59 28L59 29L58 29L58 27L59 27L59 25L58 25L58 24L57 24L57 23L56 23L56 22L57 22L57 21L58 21L58 23L59 23L59 21L58 21L58 20L59 20L59 19L56 19L56 20L55 20L55 17L56 17L56 18L57 18L57 17L58 17L58 18L60 18L60 19L62 19L62 20L63 20L63 19L62 19L62 17L61 17L61 18L60 18L60 16L61 16L61 13L62 13L62 14L63 14L63 15L62 15L62 16L63 16L63 15L64 15L64 14L63 14L63 13L62 13L62 12L61 12L61 11L60 11L60 12L59 12L59 11L58 11L58 14L60 14L60 15L58 15L58 16L57 16L57 15L56 15L56 14L57 14L57 9L56 9L56 11L55 11L55 12L56 12L56 14L55 14L55 13L54 13L54 12L53 12L53 11L52 11L52 10L53 10L53 9L52 9L52 10L51 10L51 11L52 11L52 12L50 12L50 14L51 14L51 13L52 13L52 14L53 14L53 13L54 13L54 20L55 20L55 21L54 21L54 22L55 22L55 23L54 23L54 24L55 24L55 25L54 25L54 26L55 26L55 27L54 27L54 28L55 28L55 29L53 29L53 30L52 30L52 28L53 28L53 25L52 25L52 23L53 23L53 22L52 22L52 20L53 20L53 18L51 18L51 17L52 17L52 16L53 16L53 15L52 15L52 16L51 16L51 15L50 15L50 19L49 19L49 17L48 17L48 15L46 15L46 14L47 14L47 13L48 13L48 14L49 14L49 13L48 13L48 12L49 12L49 11L47 11L47 12L46 12L46 14L45 14L45 13L44 13L44 14L43 14L43 13L42 13L42 14L41 14L41 13L40 13L40 15L38 15L38 16L37 16L37 13L36 13L36 10L35 10L35 9L36 9L36 8L37 8L37 7L38 7L38 6L39 6L39 5ZM24 6L24 7L25 7L25 6ZM32 6L32 7L33 7L33 6ZM49 6L49 7L48 7L48 8L47 8L47 7L46 7L46 8L45 8L45 9L46 9L46 10L47 10L47 9L48 9L48 8L49 8L49 7L50 7L50 6ZM53 6L53 7L54 7L54 6ZM56 6L56 7L57 7L57 6ZM63 8L63 9L65 9L65 8ZM2 9L2 10L1 10L1 12L2 12L2 14L1 14L1 15L2 15L2 14L4 14L4 13L5 13L5 15L6 15L6 16L8 16L8 14L7 14L7 13L5 13L5 12L4 12L4 11L2 11L2 10L3 10L3 9ZM58 9L58 10L59 10L59 9ZM60 9L60 10L61 10L61 9ZM20 10L20 11L22 11L22 10ZM30 10L30 12L31 12L31 13L32 13L32 12L31 12L31 10ZM52 12L52 13L53 13L53 12ZM60 12L60 13L61 13L61 12ZM35 13L35 15L34 15L34 17L35 17L35 15L36 15L36 13ZM6 14L6 15L7 15L7 14ZM44 14L44 15L43 15L43 16L42 16L42 15L41 15L41 16L40 16L40 18L39 18L39 19L38 19L38 20L36 20L36 21L37 21L37 23L38 23L38 20L39 20L39 19L40 19L40 18L42 18L42 17L43 17L43 18L44 18L44 17L45 17L45 18L46 18L46 17L47 17L47 20L48 20L48 21L49 21L49 22L48 22L48 23L46 23L46 24L44 24L44 23L45 23L45 22L46 22L46 20L44 20L44 19L43 19L43 20L44 20L44 21L43 21L43 22L44 22L44 23L42 23L42 24L40 24L40 21L41 21L41 20L40 20L40 21L39 21L39 24L38 24L38 25L39 25L39 26L40 26L40 27L43 27L43 28L40 28L40 29L39 29L39 32L40 32L40 33L41 33L41 34L40 34L40 37L41 37L41 38L39 38L39 40L38 40L38 37L39 37L39 34L38 34L38 32L37 32L37 31L36 31L36 33L37 33L37 35L36 35L36 37L35 37L35 38L34 38L34 36L32 36L32 37L30 37L30 36L29 36L29 34L28 34L28 31L29 31L29 30L27 30L27 31L25 31L25 30L24 30L24 31L25 31L25 32L26 32L26 33L25 33L25 34L24 34L24 32L23 32L23 31L22 31L22 30L23 30L23 28L24 28L24 29L25 29L25 28L24 28L24 27L23 27L23 26L24 26L24 25L25 25L25 24L22 24L22 23L21 23L21 24L20 24L20 23L18 23L18 22L17 22L17 23L18 23L18 25L19 25L19 27L18 27L18 26L17 26L17 27L18 27L18 29L17 29L17 28L16 28L16 27L15 27L15 28L16 28L16 29L17 29L17 30L16 30L16 31L18 31L18 33L17 33L17 32L15 32L15 35L13 35L13 36L15 36L15 37L14 37L14 38L15 38L15 39L13 39L13 38L12 38L12 40L11 40L11 39L10 39L10 38L11 38L11 37L10 37L10 38L9 38L9 39L10 39L10 41L12 41L12 42L10 42L10 43L7 43L7 42L9 42L9 40L6 40L6 41L7 41L7 42L6 42L6 43L4 43L4 44L3 44L3 45L4 45L4 46L5 46L5 47L7 47L7 46L5 46L5 45L8 45L8 46L9 46L9 45L8 45L8 44L12 44L12 47L11 47L11 46L10 46L10 47L9 47L9 48L8 48L8 49L9 49L9 51L10 51L10 49L9 49L9 48L10 48L10 47L11 47L11 48L12 48L12 47L13 47L13 46L14 46L14 48L13 48L13 49L12 49L12 50L13 50L13 49L14 49L14 51L15 51L15 50L16 50L16 53L17 53L17 50L16 50L16 49L17 49L17 47L16 47L16 46L17 46L17 44L18 44L18 45L19 45L19 46L18 46L18 47L19 47L19 48L18 48L18 50L20 50L20 51L18 51L18 52L20 52L20 53L19 53L19 55L18 55L18 54L17 54L17 55L18 55L18 57L17 57L17 58L18 58L18 57L19 57L19 56L20 56L20 55L21 55L21 54L20 54L20 53L21 53L21 52L20 52L20 51L21 51L21 50L20 50L20 49L21 49L21 47L20 47L20 46L21 46L21 43L22 43L22 45L23 45L23 46L22 46L22 47L23 47L23 48L22 48L22 50L24 50L24 49L25 49L25 50L26 50L26 49L27 49L27 51L26 51L26 52L27 52L27 51L28 51L28 53L27 53L27 54L26 54L26 55L28 55L28 53L30 53L30 54L32 54L32 52L33 52L33 53L35 53L35 50L36 50L36 51L38 51L38 49L37 49L37 46L38 46L38 45L39 45L39 44L40 44L40 45L41 45L41 46L42 46L42 45L43 45L43 44L44 44L44 45L45 45L45 46L46 46L46 45L45 45L45 43L47 43L47 42L46 42L46 41L47 41L47 40L48 40L48 41L49 41L49 42L50 42L50 41L51 41L51 40L50 40L50 39L51 39L51 38L52 38L52 37L53 37L53 38L54 38L54 36L55 36L55 34L54 34L54 33L55 33L55 31L53 31L53 32L52 32L52 33L53 33L53 34L52 34L52 35L51 35L51 34L50 34L50 32L51 32L51 31L52 31L52 30L51 30L51 31L50 31L50 28L52 28L52 27L48 27L48 26L46 26L46 24L48 24L48 25L49 25L49 24L50 24L50 25L51 25L51 26L52 26L52 25L51 25L51 24L50 24L50 23L52 23L52 22L50 22L50 21L51 21L51 20L52 20L52 19L51 19L51 20L48 20L48 17L47 17L47 16L46 16L46 15L45 15L45 14ZM10 15L10 16L11 16L11 15ZM44 15L44 16L43 16L43 17L44 17L44 16L45 16L45 17L46 17L46 16L45 16L45 15ZM36 16L36 17L37 17L37 16ZM38 16L38 17L39 17L39 16ZM41 16L41 17L42 17L42 16ZM56 16L56 17L57 17L57 16ZM21 17L21 18L22 18L22 17ZM23 17L23 18L24 18L24 19L22 19L22 20L25 20L25 18L24 18L24 17ZM31 18L31 19L32 19L32 18ZM36 18L36 19L37 19L37 18ZM0 19L0 20L1 20L1 21L0 21L0 23L2 23L2 20L3 20L3 19ZM18 19L18 20L19 20L19 19ZM20 19L20 20L21 20L21 19ZM26 19L26 20L27 20L27 19ZM28 19L28 20L30 20L30 21L29 21L29 22L30 22L30 21L31 21L31 20L30 20L30 19ZM23 21L23 22L24 22L24 21ZM4 22L4 23L5 23L5 22ZM10 22L10 24L9 24L9 26L11 26L11 25L12 25L12 24L11 24L11 22ZM48 23L48 24L49 24L49 23ZM6 24L6 25L7 25L7 26L6 26L6 27L7 27L7 28L9 28L9 27L7 27L7 26L8 26L8 25L7 25L7 24ZM10 24L10 25L11 25L11 24ZM19 24L19 25L20 25L20 26L21 26L21 27L20 27L20 28L19 28L19 29L18 29L18 31L19 31L19 32L20 32L20 34L19 34L19 33L18 33L18 34L19 34L19 35L18 35L18 36L19 36L19 37L18 37L18 38L17 38L17 37L16 37L16 39L15 39L15 40L16 40L16 42L15 42L15 43L14 43L14 44L13 44L13 45L14 45L14 46L15 46L15 45L14 45L14 44L15 44L15 43L16 43L16 42L17 42L17 43L18 43L18 44L20 44L20 43L21 43L21 42L22 42L22 43L23 43L23 44L25 44L25 43L26 43L26 44L28 44L28 43L29 43L29 44L30 44L30 45L28 45L28 46L27 46L27 47L26 47L26 46L24 46L24 47L25 47L25 49L26 49L26 48L27 48L27 49L28 49L28 51L29 51L29 52L31 52L31 51L32 51L32 50L33 50L33 52L34 52L34 50L35 50L35 49L36 49L36 42L37 42L37 41L38 41L38 44L39 44L39 43L40 43L40 42L41 42L41 44L42 44L42 42L43 42L43 43L44 43L44 42L45 42L45 41L44 41L44 40L43 40L43 39L44 39L44 38L45 38L45 40L46 40L46 38L47 38L47 36L46 36L46 35L45 35L45 36L46 36L46 38L45 38L45 37L44 37L44 36L43 36L43 37L42 37L42 34L43 34L43 35L44 35L44 34L45 34L45 33L46 33L46 34L47 34L47 33L48 33L48 32L50 32L50 31L48 31L48 32L47 32L47 33L46 33L46 31L47 31L47 29L48 29L48 27L46 27L46 29L45 29L45 31L44 31L44 28L45 28L45 27L44 27L44 26L43 26L43 25L44 25L44 24L43 24L43 25L42 25L42 26L43 26L43 27L44 27L44 28L43 28L43 29L42 29L42 30L43 30L43 31L42 31L42 32L41 32L41 31L40 31L40 32L41 32L41 33L42 33L42 34L41 34L41 37L42 37L42 38L41 38L41 39L42 39L42 40L43 40L43 41L42 41L42 42L41 42L41 41L40 41L40 40L39 40L39 41L38 41L38 40L37 40L37 37L36 37L36 38L35 38L35 40L33 40L33 41L32 41L32 40L31 40L31 41L32 41L32 42L30 42L30 40L29 40L29 38L30 38L30 39L31 39L31 38L30 38L30 37L28 37L28 39L27 39L27 37L26 37L26 38L25 38L25 36L24 36L24 34L23 34L23 33L22 33L22 31L20 31L20 30L22 30L22 28L23 28L23 27L22 27L22 24L21 24L21 25L20 25L20 24ZM36 24L36 26L35 26L35 27L36 27L36 26L37 26L37 24ZM39 24L39 25L40 25L40 24ZM61 24L61 25L60 25L60 26L61 26L61 25L62 25L62 24ZM57 25L57 26L56 26L56 29L55 29L55 30L56 30L56 29L57 29L57 26L58 26L58 25ZM25 26L25 27L26 27L26 26ZM64 26L64 27L65 27L65 26ZM3 27L3 28L4 28L4 27ZM38 27L38 28L36 28L36 29L37 29L37 30L38 30L38 28L39 28L39 27ZM12 28L12 29L13 29L13 31L12 31L12 32L13 32L13 34L14 34L14 31L15 31L15 30L14 30L14 28ZM20 28L20 29L21 29L21 28ZM64 28L64 33L65 33L65 28ZM3 30L3 31L2 31L2 33L3 33L3 34L2 34L2 35L3 35L3 34L4 34L4 33L3 33L3 31L4 31L4 30ZM62 30L62 31L63 31L63 30ZM5 31L5 34L8 34L8 31ZM31 31L31 34L34 34L34 31ZM57 31L57 34L60 34L60 31ZM6 32L6 33L7 33L7 32ZM32 32L32 33L33 33L33 32ZM44 32L44 33L45 33L45 32ZM58 32L58 33L59 33L59 32ZM16 33L16 35L15 35L15 36L16 36L16 35L17 35L17 33ZM26 33L26 34L27 34L27 35L26 35L26 36L28 36L28 34L27 34L27 33ZM20 34L20 35L19 35L19 36L20 36L20 37L19 37L19 38L18 38L18 39L19 39L19 40L18 40L18 41L19 41L19 42L18 42L18 43L20 43L20 41L21 41L21 40L20 40L20 39L21 39L21 38L22 38L22 37L23 37L23 36L22 36L22 35L23 35L23 34ZM53 34L53 36L54 36L54 34ZM64 34L64 35L65 35L65 34ZM37 35L37 36L38 36L38 35ZM51 36L51 37L50 37L50 38L49 38L49 37L48 37L48 40L49 40L49 39L50 39L50 38L51 38L51 37L52 37L52 36ZM20 37L20 38L19 38L19 39L20 39L20 38L21 38L21 37ZM32 37L32 38L33 38L33 37ZM42 38L42 39L43 39L43 38ZM63 38L63 39L64 39L64 38ZM26 39L26 42L27 42L27 43L28 43L28 41L29 41L29 40L28 40L28 41L27 41L27 39ZM12 40L12 41L14 41L14 40ZM19 40L19 41L20 41L20 40ZM22 40L22 41L23 41L23 42L24 42L24 41L25 41L25 40L24 40L24 41L23 41L23 40ZM36 40L36 41L34 41L34 43L35 43L35 42L36 42L36 41L37 41L37 40ZM52 40L52 41L53 41L53 42L54 42L54 43L55 43L55 42L54 42L54 41L53 41L53 40ZM43 41L43 42L44 42L44 41ZM29 42L29 43L30 43L30 42ZM32 42L32 43L31 43L31 47L32 47L32 48L28 48L28 49L31 49L31 50L30 50L30 51L31 51L31 50L32 50L32 49L33 49L33 50L34 50L34 48L35 48L35 46L34 46L34 44L33 44L33 42ZM6 43L6 44L7 44L7 43ZM4 44L4 45L5 45L5 44ZM32 44L32 47L33 47L33 48L34 48L34 46L33 46L33 44ZM51 45L51 46L52 46L52 45ZM61 45L61 47L60 47L60 49L58 49L58 48L56 48L56 47L55 47L55 46L54 46L54 49L55 49L55 50L56 50L56 49L58 49L58 51L59 51L59 50L60 50L60 49L61 49L61 48L62 48L62 47L63 47L63 46L62 46L62 45ZM29 46L29 47L30 47L30 46ZM0 48L0 49L1 49L1 48ZM6 48L6 49L5 49L5 50L6 50L6 49L7 49L7 48ZM15 48L15 49L16 49L16 48ZM23 48L23 49L24 49L24 48ZM46 48L46 50L47 50L47 48ZM41 49L41 51L42 51L42 49ZM44 49L44 50L45 50L45 49ZM11 51L11 52L12 52L12 51ZM22 51L22 52L23 52L23 54L24 54L24 55L22 55L22 57L23 57L23 58L24 58L24 55L25 55L25 54L24 54L24 52L25 52L25 51L24 51L24 52L23 52L23 51ZM1 52L1 53L2 53L2 54L3 54L3 53L2 53L2 52ZM49 52L49 53L50 53L50 52ZM42 53L42 54L41 54L41 55L42 55L42 56L41 56L41 57L40 57L40 55L37 55L37 56L38 56L38 58L37 58L37 59L36 59L36 58L35 58L35 59L36 59L36 60L37 60L37 61L38 61L38 62L39 62L39 61L40 61L40 60L42 60L42 58L43 58L43 57L42 57L42 56L43 56L43 55L45 55L45 53L44 53L44 54L43 54L43 53ZM10 54L10 56L11 56L11 54ZM12 54L12 55L13 55L13 54ZM34 54L34 55L35 55L35 54ZM42 54L42 55L43 55L43 54ZM14 55L14 56L15 56L15 55ZM50 55L50 56L51 56L51 57L52 57L52 56L51 56L51 55ZM62 55L62 56L61 56L61 57L62 57L62 61L61 61L61 63L62 63L62 61L63 61L63 59L64 59L64 56L63 56L63 55ZM12 56L12 57L11 57L11 58L12 58L12 57L13 57L13 58L14 58L14 57L13 57L13 56ZM26 56L26 57L27 57L27 58L28 58L28 57L27 57L27 56ZM62 56L62 57L63 57L63 56ZM31 57L31 60L34 60L34 57ZM41 57L41 58L42 58L42 57ZM44 57L44 58L45 58L45 57ZM57 57L57 60L60 60L60 57ZM32 58L32 59L33 59L33 58ZM38 58L38 61L39 61L39 59L40 59L40 58ZM58 58L58 59L59 59L59 58ZM9 59L9 60L10 60L10 59ZM14 59L14 60L15 60L15 59ZM44 60L44 63L45 63L45 64L44 64L44 65L47 65L47 64L46 64L46 60ZM52 60L52 62L51 62L51 63L52 63L52 62L53 62L53 64L52 64L52 65L53 65L53 64L54 64L54 65L55 65L55 63L54 63L54 61L53 61L53 60ZM18 64L18 65L19 65L19 64ZM48 64L48 65L50 65L50 64ZM64 64L64 65L65 65L65 64ZM0 0L0 7L7 7L7 0ZM1 1L1 6L6 6L6 1ZM2 2L2 5L5 5L5 2ZM58 0L58 7L65 7L65 0ZM59 1L59 6L64 6L64 1ZM60 2L60 5L63 5L63 2ZM0 58L0 65L7 65L7 58ZM1 59L1 64L6 64L6 59ZM2 60L2 63L5 63L5 60Z" fill="#000000"/></g></g></svg>
