<?xml version="1.0" encoding="UTF-8"?>
<svg xmlns="http://www.w3.org/2000/svg" version="1.1" width="300" height="300" viewBox="0 0 300 300"><rect x="0" y="0" width="300" height="300" fill="#ffffff"/><g transform="scale(4.348)"><g transform="translate(0,0)"><path fill-rule="evenodd" d="M8 0L8 4L9 4L9 5L8 5L8 7L9 7L9 8L10 8L10 9L11 9L11 5L12 5L12 11L14 11L14 10L15 10L15 11L18 11L18 9L20 9L20 10L21 10L21 11L20 11L20 12L17 12L17 13L16 13L16 12L15 12L15 13L16 13L16 14L14 14L14 16L12 16L12 15L13 15L13 14L12 14L12 13L13 13L13 12L12 12L12 13L11 13L11 12L10 12L10 13L7 13L7 12L8 12L8 11L7 11L7 10L5 10L5 9L7 9L7 8L4 8L4 11L3 11L3 9L2 9L2 8L0 8L0 9L1 9L1 10L2 10L2 12L1 12L1 14L2 14L2 12L3 12L3 13L4 13L4 14L5 14L5 15L7 15L7 14L8 14L8 15L9 15L9 18L8 18L8 19L9 19L9 20L10 20L10 21L11 21L11 22L8 22L8 21L7 21L7 20L6 20L6 19L7 19L7 18L6 18L6 17L8 17L8 16L5 16L5 18L3 18L3 22L4 22L4 21L5 21L5 22L6 22L6 23L4 23L4 25L3 25L3 23L2 23L2 22L1 22L1 21L2 21L2 20L0 20L0 23L1 23L1 24L0 24L0 25L1 25L1 26L0 26L0 28L1 28L1 29L0 29L0 32L2 32L2 36L1 36L1 40L0 40L0 41L1 41L1 45L0 45L0 46L2 46L2 49L3 49L3 50L2 50L2 51L1 51L1 52L0 52L0 53L2 53L2 52L3 52L3 54L2 54L2 57L1 57L1 58L0 58L0 61L1 61L1 58L2 58L2 59L3 59L3 58L2 58L2 57L5 57L5 54L6 54L6 55L7 55L7 54L6 54L6 53L7 53L7 52L6 52L6 51L7 51L7 50L6 50L6 49L7 49L7 48L5 48L5 46L6 46L6 47L8 47L8 49L10 49L10 50L8 50L8 51L9 51L9 53L11 53L11 54L8 54L8 56L6 56L6 57L8 57L8 59L7 59L7 58L4 58L4 59L7 59L7 60L6 60L6 61L8 61L8 62L9 62L9 63L8 63L8 65L9 65L9 66L10 66L10 67L8 67L8 69L12 69L12 68L10 68L10 67L11 67L11 65L9 65L9 63L10 63L10 58L11 58L11 62L12 62L12 63L11 63L11 64L12 64L12 66L13 66L13 69L15 69L15 68L16 68L16 69L19 69L19 68L18 68L18 67L16 67L16 64L17 64L17 63L18 63L18 61L20 61L20 62L19 62L19 64L18 64L18 65L17 65L17 66L19 66L19 67L20 67L20 66L22 66L22 68L23 68L23 69L24 69L24 68L25 68L25 69L28 69L28 68L26 68L26 66L27 66L27 67L28 67L28 66L29 66L29 69L31 69L31 68L32 68L32 69L33 69L33 68L34 68L34 69L35 69L35 67L37 67L37 65L38 65L38 67L39 67L39 66L40 66L40 63L41 63L41 67L40 67L40 68L38 68L38 69L40 69L40 68L41 68L41 67L43 67L43 63L42 63L42 62L44 62L44 61L46 61L46 60L47 60L47 63L46 63L46 64L47 64L47 67L48 67L48 69L50 69L50 68L51 68L51 69L52 69L52 68L56 68L56 69L57 69L57 68L56 68L56 65L57 65L57 63L55 63L55 62L57 62L57 61L58 61L58 60L56 60L56 59L55 59L55 60L56 60L56 61L54 61L54 60L53 60L53 59L54 59L54 58L58 58L58 59L59 59L59 60L60 60L60 61L59 61L59 66L61 66L61 68L60 68L60 69L62 69L62 67L63 67L63 68L64 68L64 69L67 69L67 68L64 68L64 67L67 67L67 66L69 66L69 63L68 63L68 62L69 62L69 59L68 59L68 58L69 58L69 57L67 57L67 56L66 56L66 57L65 57L65 59L68 59L68 60L67 60L67 61L66 61L66 60L64 60L64 57L63 57L63 56L64 56L64 55L66 55L66 54L67 54L67 55L68 55L68 56L69 56L69 55L68 55L68 53L69 53L69 52L68 52L68 50L67 50L67 52L66 52L66 53L65 53L65 54L64 54L64 53L63 53L63 52L65 52L65 51L66 51L66 49L65 49L65 51L64 51L64 48L63 48L63 49L62 49L62 46L64 46L64 45L65 45L65 43L68 43L68 44L69 44L69 43L68 43L68 40L69 40L69 39L68 39L68 38L69 38L69 35L68 35L68 32L67 32L67 33L66 33L66 32L63 32L63 31L62 31L62 30L64 30L64 31L68 31L68 30L69 30L69 29L68 29L68 28L69 28L69 27L68 27L68 24L69 24L69 23L68 23L68 22L69 22L69 20L68 20L68 18L67 18L67 16L68 16L68 17L69 17L69 15L68 15L68 12L67 12L67 16L66 16L66 17L64 17L64 16L65 16L65 13L64 13L64 12L63 12L63 11L64 11L64 10L65 10L65 11L66 11L66 10L67 10L67 11L68 11L68 10L67 10L67 9L69 9L69 8L65 8L65 9L64 9L64 8L63 8L63 9L62 9L62 12L61 12L61 11L60 11L60 10L61 10L61 9L59 9L59 4L56 4L56 3L59 3L59 2L57 2L57 1L61 1L61 0L57 0L57 1L56 1L56 2L55 2L55 0L53 0L53 1L52 1L52 2L51 2L51 0L50 0L50 2L49 2L49 0L48 0L48 1L47 1L47 2L46 2L46 3L45 3L45 1L46 1L46 0L45 0L45 1L44 1L44 0L41 0L41 1L40 1L40 0L37 0L37 1L36 1L36 0L32 0L32 1L31 1L31 0L23 0L23 1L22 1L22 0L16 0L16 1L20 1L20 2L21 2L21 3L19 3L19 2L18 2L18 3L19 3L19 4L15 4L15 3L17 3L17 2L15 2L15 0L14 0L14 1L9 1L9 0ZM21 1L21 2L22 2L22 3L21 3L21 7L20 7L20 5L19 5L19 8L20 8L20 9L22 9L22 11L23 11L23 12L22 12L22 13L21 13L21 12L20 12L20 13L19 13L19 14L20 14L20 16L22 16L22 17L19 17L19 16L18 16L18 17L17 17L17 15L18 15L18 14L17 14L17 15L15 15L15 19L14 19L14 20L13 20L13 21L12 21L12 20L11 20L11 21L12 21L12 25L17 25L17 22L18 22L18 23L20 23L20 24L19 24L19 25L18 25L18 26L19 26L19 27L20 27L20 29L19 29L19 30L18 30L18 29L17 29L17 26L16 26L16 27L15 27L15 26L13 26L13 27L12 27L12 28L11 28L11 27L10 27L10 26L11 26L11 25L10 25L10 26L9 26L9 25L8 25L8 26L9 26L9 27L6 27L6 26L7 26L7 25L6 25L6 24L8 24L8 22L7 22L7 21L6 21L6 20L5 20L5 21L6 21L6 22L7 22L7 23L6 23L6 24L5 24L5 28L3 28L3 27L4 27L4 26L3 26L3 25L2 25L2 29L1 29L1 31L2 31L2 32L3 32L3 33L4 33L4 32L7 32L7 31L8 31L8 30L10 30L10 29L8 29L8 30L7 30L7 29L5 29L5 28L11 28L11 29L12 29L12 30L13 30L13 31L11 31L11 32L9 32L9 34L10 34L10 35L9 35L9 38L7 38L7 37L6 37L6 38L7 38L7 39L6 39L6 40L8 40L8 42L10 42L10 41L12 41L12 42L13 42L13 44L12 44L12 45L11 45L11 43L10 43L10 45L9 45L9 44L8 44L8 47L10 47L10 48L11 48L11 50L10 50L10 52L11 52L11 53L12 53L12 54L13 54L13 55L10 55L10 56L9 56L9 58L10 58L10 57L13 57L13 56L15 56L15 57L14 57L14 58L13 58L13 59L12 59L12 60L15 60L15 61L14 61L14 62L13 62L13 61L12 61L12 62L13 62L13 63L14 63L14 64L13 64L13 65L15 65L15 63L16 63L16 62L17 62L17 61L18 61L18 60L22 60L22 62L21 62L21 63L20 63L20 64L19 64L19 65L20 65L20 64L21 64L21 63L22 63L22 66L23 66L23 65L30 65L30 66L31 66L31 65L32 65L32 66L33 66L33 67L32 67L32 68L33 68L33 67L35 67L35 65L34 65L34 66L33 66L33 65L32 65L32 64L31 64L31 65L30 65L30 63L32 63L32 62L31 62L31 61L28 61L28 58L29 58L29 59L33 59L33 60L34 60L34 59L33 59L33 56L34 56L34 58L35 58L35 60L38 60L38 59L36 59L36 58L35 58L35 57L37 57L37 58L38 58L38 57L39 57L39 58L40 58L40 59L41 59L41 58L40 58L40 57L41 57L41 56L42 56L42 57L44 57L44 54L45 54L45 53L46 53L46 54L47 54L47 56L49 56L49 57L50 57L50 56L52 56L52 57L51 57L51 58L52 58L52 59L53 59L53 57L54 57L54 56L55 56L55 57L56 57L56 56L57 56L57 54L56 54L56 53L55 53L55 54L56 54L56 56L55 56L55 55L54 55L54 54L52 54L52 53L53 53L53 48L52 48L52 46L53 46L53 44L55 44L55 46L54 46L54 47L55 47L55 49L56 49L56 50L54 50L54 52L55 52L55 51L56 51L56 50L57 50L57 49L58 49L58 51L57 51L57 53L58 53L58 58L59 58L59 59L60 59L60 58L62 58L62 59L61 59L61 60L63 60L63 57L62 57L62 56L61 56L61 57L60 57L60 54L61 54L61 53L60 53L60 52L59 52L59 53L58 53L58 51L60 51L60 50L59 50L59 49L60 49L60 48L59 48L59 47L58 47L58 48L57 48L57 49L56 49L56 44L55 44L55 43L54 43L54 42L53 42L53 41L54 41L54 40L53 40L53 39L55 39L55 38L53 38L53 36L54 36L54 34L53 34L53 32L52 32L52 33L51 33L51 31L52 31L52 30L53 30L53 31L56 31L56 30L57 30L57 33L56 33L56 32L55 32L55 34L56 34L56 36L55 36L55 37L56 37L56 36L57 36L57 37L58 37L58 38L56 38L56 40L55 40L55 42L56 42L56 43L57 43L57 42L56 42L56 40L57 40L57 41L58 41L58 44L57 44L57 45L58 45L58 46L59 46L59 45L60 45L60 47L61 47L61 44L59 44L59 43L61 43L61 42L62 42L62 45L64 45L64 44L63 44L63 41L64 41L64 43L65 43L65 42L67 42L67 41L66 41L66 40L67 40L67 38L68 38L68 35L67 35L67 34L65 34L65 37L63 37L63 38L62 38L62 39L64 39L64 40L61 40L61 42L59 42L59 41L60 41L60 40L59 40L59 41L58 41L58 40L57 40L57 39L58 39L58 38L59 38L59 37L60 37L60 38L61 38L61 37L60 37L60 36L59 36L59 35L60 35L60 32L61 32L61 30L62 30L62 29L61 29L61 27L58 27L58 26L59 26L59 25L61 25L61 26L62 26L62 28L63 28L63 26L64 26L64 25L66 25L66 27L64 27L64 29L65 29L65 30L67 30L67 24L68 24L68 23L67 23L67 22L68 22L68 20L67 20L67 18L65 18L65 20L64 20L64 17L63 17L63 19L62 19L62 15L63 15L63 14L62 14L62 13L63 13L63 12L62 12L62 13L61 13L61 12L60 12L60 13L58 13L58 12L57 12L57 13L58 13L58 14L59 14L59 15L57 15L57 14L56 14L56 13L55 13L55 14L53 14L53 13L54 13L54 12L53 12L53 11L58 11L58 10L59 10L59 9L58 9L58 8L57 8L57 9L56 9L56 8L55 8L55 10L53 10L53 11L52 11L52 9L54 9L54 8L52 8L52 9L51 9L51 7L52 7L52 6L53 6L53 7L54 7L54 5L53 5L53 4L52 4L52 3L47 3L47 4L46 4L46 5L44 5L44 4L45 4L45 3L44 3L44 2L43 2L43 3L42 3L42 1L41 1L41 3L42 3L42 4L43 4L43 5L44 5L44 6L43 6L43 8L41 8L41 7L42 7L42 5L41 5L41 4L40 4L40 3L39 3L39 2L40 2L40 1L37 1L37 3L36 3L36 4L37 4L37 3L38 3L38 4L39 4L39 7L40 7L40 10L38 10L38 9L37 9L37 11L41 11L41 14L40 14L40 13L39 13L39 12L38 12L38 13L37 13L37 12L36 12L36 13L33 13L33 14L32 14L32 17L29 17L29 15L27 15L27 13L28 13L28 14L29 14L29 13L30 13L30 14L31 14L31 13L32 13L32 12L34 12L34 10L32 10L32 8L30 8L30 9L29 9L29 8L28 8L28 6L29 6L29 7L30 7L30 6L31 6L31 7L32 7L32 6L31 6L31 5L32 5L32 3L33 3L33 4L34 4L34 2L30 2L30 3L29 3L29 2L28 2L28 1L27 1L27 2L26 2L26 1L24 1L24 2L22 2L22 1ZM35 1L35 2L36 2L36 1ZM53 1L53 3L54 3L54 4L55 4L55 7L56 7L56 6L57 6L57 7L58 7L58 5L56 5L56 4L55 4L55 2L54 2L54 1ZM9 2L9 3L10 3L10 2ZM12 2L12 3L11 3L11 4L12 4L12 5L13 5L13 4L12 4L12 3L15 3L15 2ZM24 2L24 3L25 3L25 4L23 4L23 3L22 3L22 5L23 5L23 6L22 6L22 8L23 8L23 6L24 6L24 7L25 7L25 8L24 8L24 9L23 9L23 11L24 11L24 13L22 13L22 14L21 14L21 13L20 13L20 14L21 14L21 15L24 15L24 14L25 14L25 13L27 13L27 12L26 12L26 11L28 11L28 13L29 13L29 12L30 12L30 13L31 13L31 11L32 11L32 10L31 10L31 9L30 9L30 10L29 10L29 11L28 11L28 8L26 8L26 7L27 7L27 5L28 5L28 4L29 4L29 6L30 6L30 5L31 5L31 4L29 4L29 3L27 3L27 4L26 4L26 2ZM43 3L43 4L44 4L44 3ZM60 3L60 5L61 5L61 3ZM14 4L14 6L13 6L13 7L14 7L14 6L15 6L15 7L16 7L16 10L17 10L17 9L18 9L18 8L17 8L17 7L18 7L18 5L16 5L16 6L15 6L15 4ZM25 4L25 7L26 7L26 4ZM49 4L49 5L47 5L47 6L46 6L46 7L45 7L45 6L44 6L44 7L45 7L45 8L44 8L44 9L45 9L45 10L46 10L46 11L45 11L45 12L44 12L44 13L42 13L42 15L39 15L39 16L36 16L36 15L35 15L35 14L34 14L34 15L33 15L33 17L34 17L34 16L35 16L35 17L36 17L36 18L37 18L37 19L35 19L35 18L31 18L31 20L29 20L29 18L28 18L28 19L26 19L26 18L27 18L27 17L28 17L28 16L26 16L26 15L25 15L25 17L22 17L22 18L20 18L20 19L18 19L18 18L19 18L19 17L18 17L18 18L16 18L16 19L17 19L17 21L18 21L18 22L19 22L19 21L20 21L20 22L22 22L22 20L25 20L25 19L26 19L26 22L25 22L25 21L23 21L23 24L22 24L22 23L21 23L21 24L20 24L20 26L21 26L21 29L20 29L20 31L21 31L21 32L20 32L20 33L19 33L19 32L18 32L18 33L17 33L17 31L18 31L18 30L16 30L16 29L15 29L15 27L13 27L13 30L14 30L14 29L15 29L15 31L13 31L13 32L11 32L11 33L13 33L13 34L12 34L12 36L11 36L11 35L10 35L10 37L11 37L11 38L10 38L10 39L11 39L11 38L12 38L12 39L13 39L13 40L15 40L15 41L16 41L16 39L17 39L17 41L19 41L19 40L21 40L21 39L22 39L22 40L23 40L23 39L24 39L24 38L25 38L25 39L27 39L27 40L26 40L26 41L25 41L25 40L24 40L24 41L23 41L23 43L24 43L24 44L23 44L23 46L22 46L22 44L21 44L21 45L20 45L20 46L19 46L19 44L20 44L20 43L21 43L21 42L22 42L22 41L20 41L20 42L19 42L19 43L18 43L18 44L17 44L17 42L16 42L16 43L14 43L14 47L13 47L13 46L11 46L11 45L10 45L10 47L11 47L11 48L12 48L12 50L11 50L11 52L14 52L14 53L15 53L15 56L16 56L16 55L17 55L17 57L15 57L15 58L14 58L14 59L16 59L16 58L18 58L18 59L23 59L23 60L24 60L24 59L23 59L23 58L21 58L21 57L24 57L24 58L25 58L25 59L26 59L26 58L25 58L25 56L24 56L24 55L26 55L26 57L27 57L27 58L28 58L28 57L27 57L27 56L28 56L28 55L30 55L30 54L28 54L28 55L26 55L26 54L27 54L27 53L31 53L31 54L32 54L32 55L31 55L31 56L30 56L30 57L29 57L29 58L32 58L32 56L33 56L33 54L34 54L34 56L36 56L36 55L37 55L37 54L36 54L36 55L35 55L35 54L34 54L34 53L33 53L33 54L32 54L32 52L33 52L33 51L34 51L34 52L35 52L35 51L36 51L36 49L33 49L33 50L32 50L32 52L31 52L31 50L30 50L30 51L29 51L29 50L28 50L28 51L27 51L27 49L28 49L28 48L26 48L26 47L25 47L25 43L26 43L26 46L27 46L27 47L28 47L28 44L27 44L27 43L29 43L29 46L32 46L32 47L34 47L34 48L35 48L35 47L36 47L36 48L37 48L37 49L38 49L38 50L37 50L37 53L38 53L38 52L39 52L39 53L40 53L40 54L39 54L39 57L40 57L40 54L41 54L41 53L40 53L40 52L39 52L39 51L40 51L40 48L41 48L41 47L39 47L39 45L40 45L40 46L41 46L41 45L42 45L42 49L41 49L41 51L42 51L42 52L43 52L43 51L44 51L44 53L42 53L42 55L43 55L43 54L44 54L44 53L45 53L45 50L46 50L46 51L47 51L47 50L46 50L46 49L45 49L45 48L47 48L47 49L49 49L49 48L50 48L50 47L51 47L51 46L52 46L52 43L53 43L53 42L52 42L52 40L51 40L51 41L50 41L50 40L48 40L48 38L49 38L49 39L51 39L51 38L52 38L52 36L53 36L53 35L52 35L52 34L51 34L51 33L50 33L50 32L47 32L47 31L46 31L46 29L45 29L45 28L44 28L44 27L46 27L46 28L47 28L47 30L48 30L48 29L50 29L50 30L49 30L49 31L50 31L50 30L52 30L52 27L53 27L53 30L56 30L56 29L57 29L57 30L58 30L58 29L59 29L59 31L58 31L58 33L57 33L57 36L58 36L58 37L59 37L59 36L58 36L58 35L59 35L59 34L58 34L58 33L59 33L59 31L60 31L60 30L61 30L61 29L59 29L59 28L58 28L58 29L57 29L57 28L56 28L56 27L57 27L57 26L58 26L58 25L57 25L57 24L58 24L58 23L57 23L57 22L58 22L58 21L57 21L57 18L58 18L58 19L59 19L59 18L61 18L61 17L59 17L59 18L58 18L58 16L56 16L56 14L55 14L55 16L56 16L56 17L54 17L54 15L53 15L53 17L54 17L54 20L55 20L55 18L56 18L56 21L53 21L53 22L52 22L52 21L51 21L51 20L50 20L50 19L51 19L51 18L52 18L52 19L53 19L53 18L52 18L52 16L51 16L51 17L49 17L49 16L47 16L47 15L51 15L51 14L52 14L52 11L51 11L51 9L50 9L50 7L51 7L51 6L52 6L52 5L51 5L51 4ZM33 5L33 8L36 8L36 5ZM37 5L37 7L38 7L38 5ZM40 5L40 7L41 7L41 5ZM49 5L49 7L48 7L48 6L47 6L47 8L45 8L45 9L46 9L46 10L47 10L47 8L49 8L49 7L50 7L50 6L51 6L51 5ZM9 6L9 7L10 7L10 6ZM16 6L16 7L17 7L17 6ZM34 6L34 7L35 7L35 6ZM60 6L60 8L61 8L61 6ZM25 8L25 9L24 9L24 10L25 10L25 11L26 11L26 10L25 10L25 9L26 9L26 8ZM35 9L35 11L36 11L36 9ZM41 9L41 10L42 10L42 12L43 12L43 9ZM49 9L49 11L50 11L50 9ZM57 9L57 10L58 10L58 9ZM63 9L63 10L64 10L64 9ZM10 10L10 11L11 11L11 10ZM30 10L30 11L31 11L31 10ZM6 11L6 12L7 12L7 11ZM46 11L46 12L45 12L45 13L44 13L44 15L43 15L43 17L44 17L44 15L46 15L46 14L47 14L47 11ZM50 12L50 13L49 13L49 14L50 14L50 13L51 13L51 12ZM5 13L5 14L7 14L7 13ZM10 13L10 14L9 14L9 15L10 15L10 14L11 14L11 15L12 15L12 14L11 14L11 13ZM36 13L36 14L37 14L37 13ZM38 13L38 14L39 14L39 13ZM45 13L45 14L46 14L46 13ZM60 13L60 15L59 15L59 16L61 16L61 15L62 15L62 14L61 14L61 13ZM1 15L1 16L0 16L0 18L1 18L1 16L2 16L2 15ZM10 16L10 18L11 18L11 19L13 19L13 18L14 18L14 17L12 17L12 16ZM40 16L40 19L39 19L39 18L38 18L38 17L37 17L37 18L38 18L38 19L39 19L39 20L38 20L38 21L37 21L37 20L35 20L35 21L34 21L34 19L32 19L32 21L30 21L30 23L29 23L29 20L27 20L27 21L28 21L28 22L27 22L27 25L26 25L26 23L25 23L25 22L24 22L24 23L25 23L25 25L26 25L26 26L24 26L24 25L21 25L21 26L22 26L22 27L24 27L24 28L22 28L22 29L21 29L21 31L23 31L23 30L22 30L22 29L24 29L24 28L25 28L25 29L26 29L26 28L27 28L27 29L28 29L28 32L26 32L26 31L25 31L25 33L29 33L29 32L30 32L30 31L32 31L32 32L36 32L36 31L37 31L37 34L38 34L38 35L37 35L37 37L36 37L36 38L35 38L35 37L31 37L31 40L30 40L30 41L27 41L27 42L30 42L30 41L31 41L31 40L33 40L33 41L32 41L32 42L31 42L31 43L30 43L30 44L31 44L31 43L32 43L32 42L33 42L33 41L35 41L35 42L36 42L36 41L37 41L37 43L34 43L34 47L35 47L35 45L36 45L36 44L37 44L37 46L36 46L36 47L37 47L37 46L38 46L38 44L39 44L39 43L41 43L41 44L43 44L43 45L44 45L44 46L43 46L43 47L44 47L44 48L43 48L43 49L44 49L44 50L45 50L45 49L44 49L44 48L45 48L45 47L46 47L46 46L47 46L47 45L46 45L46 44L48 44L48 43L49 43L49 42L50 42L50 44L49 44L49 45L50 45L50 44L51 44L51 43L52 43L52 42L50 42L50 41L49 41L49 42L47 42L47 37L46 37L46 34L47 34L47 36L49 36L49 35L50 35L50 36L52 36L52 35L50 35L50 33L49 33L49 34L47 34L47 33L46 33L46 32L45 32L45 33L44 33L44 31L40 31L40 33L44 33L44 34L43 34L43 35L42 35L42 36L43 36L43 38L42 38L42 39L43 39L43 42L39 42L39 43L38 43L38 41L39 41L39 38L40 38L40 41L41 41L41 38L40 38L40 37L41 37L41 36L40 36L40 37L39 37L39 38L38 38L38 39L37 39L37 37L38 37L38 36L39 36L39 35L41 35L41 34L38 34L38 31L39 31L39 30L38 30L38 29L40 29L40 30L42 30L42 28L43 28L43 29L44 29L44 28L43 28L43 26L41 26L41 25L42 25L42 24L43 24L43 25L44 25L44 24L45 24L45 23L44 23L44 20L46 20L46 18L47 18L47 17L46 17L46 16L45 16L45 17L46 17L46 18L45 18L45 19L44 19L44 18L41 18L41 17L42 17L42 16ZM11 17L11 18L12 18L12 17ZM25 17L25 18L26 18L26 17ZM48 17L48 19L47 19L47 20L49 20L49 17ZM56 17L56 18L57 18L57 17ZM5 18L5 19L6 19L6 18ZM22 18L22 19L21 19L21 20L22 20L22 19L23 19L23 18ZM41 19L41 21L42 21L42 23L43 23L43 21L42 21L42 20L43 20L43 19ZM14 20L14 21L13 21L13 22L14 22L14 21L15 21L15 22L16 22L16 20ZM39 20L39 22L40 22L40 23L38 23L38 25L36 25L36 24L37 24L37 23L36 23L36 24L35 24L35 22L37 22L37 21L35 21L35 22L34 22L34 21L33 21L33 26L34 26L34 25L35 25L35 27L34 27L34 28L33 28L33 27L31 27L31 28L30 28L30 26L32 26L32 22L31 22L31 24L30 24L30 25L29 25L29 26L28 26L28 25L27 25L27 28L28 28L28 29L29 29L29 31L30 31L30 29L32 29L32 28L33 28L33 31L34 31L34 30L35 30L35 29L34 29L34 28L35 28L35 27L36 27L36 26L37 26L37 28L36 28L36 30L37 30L37 29L38 29L38 27L40 27L40 28L42 28L42 27L40 27L40 24L41 24L41 22L40 22L40 20ZM61 20L61 21L59 21L59 22L60 22L60 23L61 23L61 21L62 21L62 22L63 22L63 23L62 23L62 24L61 24L61 25L62 25L62 26L63 26L63 25L64 25L64 22L65 22L65 23L66 23L66 22L67 22L67 20L65 20L65 21L64 21L64 20L63 20L63 21L62 21L62 20ZM46 21L46 22L47 22L47 25L46 25L46 26L47 26L47 27L49 27L49 28L50 28L50 29L51 29L51 28L50 28L50 27L49 27L49 26L47 26L47 25L48 25L48 23L49 23L49 22L50 22L50 23L51 23L51 24L52 24L52 25L51 25L51 26L52 26L52 25L53 25L53 24L52 24L52 22L50 22L50 21L49 21L49 22L47 22L47 21ZM56 21L56 22L55 22L55 23L54 23L54 25L56 25L56 22L57 22L57 21ZM65 21L65 22L66 22L66 21ZM10 23L10 24L11 24L11 23ZM15 23L15 24L16 24L16 23ZM54 26L54 27L56 27L56 26ZM25 27L25 28L26 28L26 27ZM55 28L55 29L56 29L56 28ZM2 29L2 30L3 30L3 32L4 32L4 31L7 31L7 30L3 30L3 29ZM15 31L15 32L14 32L14 35L16 35L16 36L12 36L12 37L13 37L13 39L15 39L15 37L16 37L16 38L17 38L17 37L16 37L16 36L17 36L17 35L18 35L18 36L19 36L19 39L18 39L18 40L19 40L19 39L20 39L20 36L22 36L22 37L23 37L23 36L24 36L24 35L23 35L23 34L22 34L22 35L21 35L21 34L20 34L20 35L19 35L19 34L17 34L17 33L16 33L16 34L15 34L15 32L16 32L16 31ZM22 32L22 33L24 33L24 32ZM5 33L5 36L8 36L8 33ZM33 33L33 36L36 36L36 33ZM45 33L45 34L44 34L44 37L45 37L45 38L43 38L43 39L45 39L45 40L44 40L44 45L45 45L45 46L46 46L46 45L45 45L45 44L46 44L46 43L45 43L45 42L46 42L46 37L45 37L45 34L46 34L46 33ZM61 33L61 36L64 36L64 33ZM6 34L6 35L7 35L7 34ZM25 34L25 38L26 38L26 34ZM28 34L28 35L27 35L27 37L28 37L28 39L30 39L30 37L29 37L29 36L30 36L30 35L32 35L32 34ZM34 34L34 35L35 35L35 34ZM62 34L62 35L63 35L63 34ZM22 35L22 36L23 36L23 35ZM2 36L2 38L3 38L3 39L2 39L2 40L1 40L1 41L2 41L2 40L3 40L3 39L4 39L4 40L5 40L5 39L4 39L4 37L3 37L3 36ZM65 37L65 38L64 38L64 39L65 39L65 38L67 38L67 37ZM32 38L32 39L33 39L33 40L35 40L35 41L36 41L36 40L35 40L35 39L34 39L34 38ZM37 40L37 41L38 41L38 40ZM64 40L64 41L65 41L65 40ZM6 41L6 42L4 42L4 43L3 43L3 42L2 42L2 44L4 44L4 45L3 45L3 47L4 47L4 45L6 45L6 46L7 46L7 45L6 45L6 44L7 44L7 43L6 43L6 42L7 42L7 41ZM13 41L13 42L14 42L14 41ZM24 41L24 42L25 42L25 41ZM37 43L37 44L38 44L38 43ZM16 44L16 47L15 47L15 49L16 49L16 50L14 50L14 49L13 49L13 50L14 50L14 51L15 51L15 53L16 53L16 54L18 54L18 53L16 53L16 50L17 50L17 51L18 51L18 52L19 52L19 51L20 51L20 50L21 50L21 49L19 49L19 48L18 48L18 49L16 49L16 48L17 48L17 47L18 47L18 45L17 45L17 44ZM32 44L32 45L33 45L33 44ZM58 44L58 45L59 45L59 44ZM66 44L66 46L65 46L65 47L66 47L66 46L67 46L67 47L68 47L68 49L69 49L69 47L68 47L68 45L67 45L67 44ZM20 46L20 48L21 48L21 46ZM0 47L0 48L1 48L1 47ZM38 47L38 48L39 48L39 47ZM47 47L47 48L48 48L48 47ZM4 48L4 49L5 49L5 48ZM22 48L22 54L20 54L20 53L19 53L19 55L18 55L18 56L21 56L21 55L22 55L22 56L23 56L23 53L25 53L25 54L26 54L26 52L27 52L27 51L26 51L26 49L25 49L25 48ZM29 48L29 49L32 49L32 48ZM51 48L51 49L50 49L50 50L49 50L49 51L51 51L51 53L50 53L50 52L46 52L46 53L47 53L47 54L49 54L49 53L50 53L50 54L51 54L51 53L52 53L52 51L51 51L51 50L52 50L52 48ZM18 49L18 50L19 50L19 49ZM23 49L23 51L24 51L24 50L25 50L25 49ZM61 49L61 51L63 51L63 50L62 50L62 49ZM3 50L3 51L4 51L4 54L5 54L5 53L6 53L6 52L5 52L5 51L6 51L6 50L5 50L5 51L4 51L4 50ZM38 50L38 51L39 51L39 50ZM42 50L42 51L43 51L43 50ZM25 51L25 52L26 52L26 51ZM62 54L62 55L64 55L64 54ZM0 55L0 56L1 56L1 55ZM3 55L3 56L4 56L4 55ZM52 55L52 56L54 56L54 55ZM19 57L19 58L20 58L20 57ZM46 57L46 58L47 58L47 59L49 59L49 60L50 60L50 61L49 61L49 63L47 63L47 64L50 64L50 65L49 65L49 66L48 66L48 67L50 67L50 65L51 65L51 62L50 62L50 61L51 61L51 59L49 59L49 58L48 58L48 57ZM59 57L59 58L60 58L60 57ZM66 57L66 58L67 58L67 57ZM42 58L42 61L44 61L44 59L45 59L45 60L46 60L46 59L45 59L45 58ZM3 60L3 61L5 61L5 60ZM8 60L8 61L9 61L9 60ZM26 60L26 61L23 61L23 62L22 62L22 63L23 63L23 64L25 64L25 63L26 63L26 64L29 64L29 63L30 63L30 62L29 62L29 63L27 63L27 62L28 62L28 61L27 61L27 60ZM39 60L39 62L38 62L38 61L37 61L37 62L38 62L38 63L37 63L37 64L38 64L38 65L39 65L39 64L38 64L38 63L40 63L40 62L41 62L41 60ZM52 60L52 62L53 62L53 64L52 64L52 66L51 66L51 67L53 67L53 64L54 64L54 61L53 61L53 60ZM15 61L15 62L16 62L16 61ZM26 61L26 62L27 62L27 61ZM33 61L33 64L36 64L36 61ZM61 61L61 64L64 64L64 61ZM67 61L67 62L66 62L66 63L65 63L65 66L67 66L67 64L68 64L68 63L67 63L67 62L68 62L68 61ZM24 62L24 63L25 63L25 62ZM34 62L34 63L35 63L35 62ZM62 62L62 63L63 63L63 62ZM44 63L44 69L46 69L46 67L45 67L45 63ZM55 64L55 65L56 65L56 64ZM63 65L63 67L64 67L64 65ZM54 66L54 67L55 67L55 66ZM36 68L36 69L37 69L37 68ZM42 68L42 69L43 69L43 68ZM58 68L58 69L59 69L59 68ZM68 68L68 69L69 69L69 68ZM0 0L0 7L7 7L7 0ZM1 1L1 6L6 6L6 1ZM2 2L2 5L5 5L5 2ZM62 0L62 7L69 7L69 0ZM63 1L63 6L68 6L68 1ZM64 2L64 5L67 5L67 2ZM0 62L0 69L7 69L7 62ZM1 63L1 68L6 68L6 63ZM2 64L2 67L5 67L5 64Z" fill="#000000"/></g></g></svg>
