<?xml version="1.0" encoding="UTF-8"?>
<svg xmlns="http://www.w3.org/2000/svg" version="1.1" width="300" height="300" viewBox="0 0 300 300"><rect x="0" y="0" width="300" height="300" fill="#ffffff"/><g transform="scale(4.348)"><g transform="translate(0,0)"><path fill-rule="evenodd" d="M8 0L8 1L9 1L9 2L8 2L8 5L9 5L9 6L8 6L8 7L9 7L9 8L8 8L8 9L7 9L7 8L6 8L6 9L7 9L7 10L5 10L5 9L4 9L4 8L0 8L0 9L1 9L1 10L0 10L0 21L1 21L1 20L2 20L2 22L1 22L1 24L0 24L0 27L1 27L1 29L0 29L0 30L2 30L2 28L4 28L4 29L5 29L5 27L3 27L3 26L6 26L6 27L7 27L7 28L6 28L6 29L7 29L7 30L6 30L6 31L7 31L7 32L4 32L4 31L0 31L0 32L1 32L1 33L2 33L2 34L0 34L0 36L1 36L1 35L2 35L2 37L1 37L1 39L0 39L0 41L1 41L1 42L0 42L0 43L1 43L1 45L2 45L2 44L3 44L3 43L1 43L1 42L3 42L3 41L4 41L4 39L5 39L5 41L7 41L7 40L6 40L6 39L8 39L8 40L9 40L9 39L11 39L11 40L12 40L12 41L10 41L10 45L11 45L11 47L10 47L10 46L9 46L9 45L8 45L8 44L9 44L9 42L6 42L6 43L7 43L7 44L6 44L6 45L5 45L5 44L4 44L4 45L3 45L3 46L1 46L1 47L0 47L0 48L1 48L1 47L2 47L2 48L3 48L3 49L2 49L2 50L0 50L0 52L1 52L1 51L2 51L2 52L3 52L3 53L4 53L4 54L5 54L5 53L4 53L4 49L5 49L5 48L6 48L6 49L7 49L7 50L6 50L6 51L5 51L5 52L6 52L6 53L7 53L7 54L6 54L6 55L4 55L4 56L3 56L3 55L2 55L2 57L1 57L1 54L0 54L0 57L1 57L1 58L0 58L0 61L1 61L1 58L2 58L2 59L3 59L3 58L2 58L2 57L4 57L4 59L8 59L8 60L6 60L6 61L8 61L8 62L9 62L9 63L10 63L10 64L9 64L9 65L8 65L8 69L9 69L9 68L10 68L10 69L12 69L12 67L13 67L13 66L14 66L14 68L13 68L13 69L14 69L14 68L15 68L15 69L18 69L18 68L19 68L19 67L20 67L20 69L25 69L25 67L24 67L24 65L25 65L25 66L26 66L26 67L27 67L27 68L28 68L28 69L30 69L30 67L31 67L31 68L34 68L34 69L35 69L35 68L34 68L34 66L35 66L35 67L38 67L38 68L39 68L39 69L41 69L41 68L43 68L43 67L41 67L41 66L42 66L42 65L40 65L40 64L41 64L41 62L39 62L39 61L40 61L40 60L41 60L41 61L42 61L42 60L41 60L41 59L42 59L42 58L43 58L43 56L41 56L41 55L40 55L40 54L42 54L42 55L43 55L43 54L44 54L44 55L46 55L46 54L47 54L47 58L50 58L50 57L48 57L48 56L49 56L49 55L48 55L48 53L47 53L47 51L49 51L49 52L50 52L50 53L51 53L51 54L50 54L50 55L51 55L51 57L52 57L52 58L51 58L51 59L48 59L48 60L47 60L47 59L45 59L45 58L44 58L44 59L45 59L45 63L44 63L44 64L43 64L43 65L45 65L45 63L46 63L46 60L47 60L47 61L49 61L49 62L48 62L48 63L50 63L50 62L51 62L51 61L49 61L49 60L51 60L51 59L52 59L52 60L53 60L53 61L52 61L52 62L53 62L53 64L54 64L54 62L53 62L53 61L54 61L54 60L55 60L55 61L56 61L56 62L55 62L55 66L54 66L54 65L53 65L53 68L51 68L51 69L54 69L54 68L57 68L57 65L58 65L58 68L60 68L60 69L61 69L61 68L63 68L63 69L64 69L64 68L65 68L65 67L67 67L67 66L68 66L68 63L65 63L65 61L67 61L67 62L69 62L69 61L67 61L67 60L66 60L66 59L69 59L69 58L68 58L68 56L69 56L69 55L67 55L67 54L66 54L66 53L67 53L67 52L68 52L68 54L69 54L69 52L68 52L68 51L66 51L66 49L65 49L65 51L66 51L66 53L63 53L63 52L64 52L64 48L66 48L66 46L67 46L67 50L68 50L68 47L69 47L69 46L68 46L68 44L67 44L67 45L66 45L66 46L63 46L63 45L65 45L65 43L64 43L64 42L66 42L66 43L67 43L67 41L65 41L65 40L67 40L67 37L68 37L68 38L69 38L69 37L68 37L68 36L69 36L69 33L68 33L68 34L67 34L67 32L65 32L65 31L63 31L63 30L64 30L64 28L62 28L62 27L61 27L61 26L63 26L63 23L65 23L65 25L64 25L64 27L65 27L65 29L66 29L66 30L67 30L67 31L68 31L68 30L67 30L67 27L68 27L68 25L69 25L69 22L68 22L68 21L67 21L67 23L68 23L68 24L66 24L66 21L65 21L65 20L63 20L63 18L62 18L62 20L63 20L63 22L62 22L62 21L60 21L60 20L61 20L61 19L60 19L60 20L59 20L59 22L58 22L58 23L57 23L57 22L56 22L56 21L55 21L55 18L54 18L54 17L56 17L56 18L60 18L60 17L64 17L64 15L65 15L65 19L67 19L67 20L69 20L69 19L68 19L68 18L69 18L69 17L68 17L68 18L66 18L66 16L67 16L67 15L66 15L66 14L67 14L67 12L66 12L66 10L67 10L67 11L69 11L69 10L67 10L67 8L64 8L64 9L63 9L63 10L62 10L62 8L61 8L61 6L60 6L60 7L59 7L59 4L58 4L58 7L59 7L59 8L60 8L60 9L59 9L59 10L58 10L58 11L60 11L60 12L61 12L61 11L60 11L60 10L62 10L62 13L61 13L61 14L60 14L60 15L59 15L59 14L58 14L58 13L56 13L56 12L57 12L57 11L56 11L56 12L53 12L53 11L52 11L52 10L55 10L55 9L56 9L56 7L57 7L57 4L56 4L56 3L55 3L55 4L56 4L56 5L55 5L55 6L54 6L54 7L55 7L55 9L53 9L53 8L52 8L52 7L53 7L53 6L52 6L52 4L51 4L51 3L50 3L50 4L49 4L49 3L47 3L47 2L48 2L48 1L50 1L50 2L51 2L51 1L50 1L50 0L48 0L48 1L47 1L47 2L45 2L45 0L44 0L44 2L42 2L42 1L43 1L43 0L39 0L39 1L40 1L40 3L41 3L41 4L43 4L43 5L42 5L42 7L41 7L41 6L40 6L40 5L39 5L39 4L38 4L38 2L36 2L36 3L35 3L35 1L34 1L34 0L33 0L33 2L31 2L31 3L29 3L29 4L31 4L31 5L29 5L29 6L28 6L28 4L27 4L27 6L26 6L26 7L27 7L27 9L28 9L28 7L29 7L29 9L30 9L30 10L28 10L28 11L29 11L29 14L31 14L31 17L32 17L32 18L33 18L33 19L31 19L31 18L30 18L30 17L28 17L28 16L26 16L26 14L24 14L24 15L25 15L25 16L23 16L23 14L21 14L21 13L19 13L19 12L23 12L23 13L26 13L26 12L27 12L27 10L26 10L26 9L25 9L25 10L24 10L24 9L23 9L23 8L22 8L22 7L23 7L23 4L25 4L25 5L26 5L26 3L23 3L23 2L22 2L22 1L19 1L19 0L17 0L17 1L16 1L16 0L14 0L14 1L15 1L15 2L13 2L13 3L11 3L11 2L12 2L12 1L11 1L11 0ZM23 0L23 1L25 1L25 0ZM28 0L28 2L27 2L27 3L28 3L28 2L29 2L29 0ZM30 0L30 1L32 1L32 0ZM37 0L37 1L38 1L38 0ZM52 0L52 3L53 3L53 4L54 4L54 2L53 2L53 1L56 1L56 2L57 2L57 1L61 1L61 0L57 0L57 1L56 1L56 0ZM10 1L10 2L11 2L11 1ZM17 1L17 2L15 2L15 3L14 3L14 5L13 5L13 4L11 4L11 3L10 3L10 4L9 4L9 5L10 5L10 4L11 4L11 5L12 5L12 6L11 6L11 7L10 7L10 6L9 6L9 7L10 7L10 8L11 8L11 7L12 7L12 6L13 6L13 9L14 9L14 11L13 11L13 10L12 10L12 11L10 11L10 10L11 10L11 9L10 9L10 10L9 10L9 9L8 9L8 10L7 10L7 11L6 11L6 12L7 12L7 13L6 13L6 14L9 14L9 15L8 15L8 16L7 16L7 15L6 15L6 16L7 16L7 17L5 17L5 14L3 14L3 15L2 15L2 13L3 13L3 12L5 12L5 10L4 10L4 9L3 9L3 10L4 10L4 11L3 11L3 12L2 12L2 10L1 10L1 15L2 15L2 17L1 17L1 19L2 19L2 20L3 20L3 19L5 19L5 18L7 18L7 19L6 19L6 20L4 20L4 21L3 21L3 23L4 23L4 24L3 24L3 25L4 25L4 24L5 24L5 23L6 23L6 24L7 24L7 23L8 23L8 22L9 22L9 23L10 23L10 24L9 24L9 26L8 26L8 28L9 28L9 31L8 31L8 32L9 32L9 31L10 31L10 32L11 32L11 33L10 33L10 34L9 34L9 35L10 35L10 36L9 36L9 38L12 38L12 40L13 40L13 38L12 38L12 36L11 36L11 34L12 34L12 33L13 33L13 34L15 34L15 35L14 35L14 36L13 36L13 37L14 37L14 38L15 38L15 40L16 40L16 41L15 41L15 43L14 43L14 42L13 42L13 43L12 43L12 46L13 46L13 47L15 47L15 46L16 46L16 48L18 48L18 50L17 50L17 49L16 49L16 51L15 51L15 49L14 49L14 54L13 54L13 53L12 53L12 52L13 52L13 51L12 51L12 50L13 50L13 48L12 48L12 47L11 47L11 49L12 49L12 50L9 50L9 51L12 51L12 52L10 52L10 53L8 53L8 51L6 51L6 52L7 52L7 53L8 53L8 54L7 54L7 55L6 55L6 56L5 56L5 58L10 58L10 59L9 59L9 60L8 60L8 61L9 61L9 62L10 62L10 63L11 63L11 64L12 64L12 63L13 63L13 65L11 65L11 67L10 67L10 65L9 65L9 67L10 67L10 68L11 68L11 67L12 67L12 66L13 66L13 65L14 65L14 66L15 66L15 65L14 65L14 63L15 63L15 64L16 64L16 65L17 65L17 63L19 63L19 64L18 64L18 66L16 66L16 68L17 68L17 67L19 67L19 64L22 64L22 65L20 65L20 67L21 67L21 66L22 66L22 65L23 65L23 63L25 63L25 64L26 64L26 66L27 66L27 65L28 65L28 66L29 66L29 65L31 65L31 63L30 63L30 64L29 64L29 63L28 63L28 62L29 62L29 61L28 61L28 58L29 58L29 57L32 57L32 56L35 56L35 54L36 54L36 58L35 58L35 57L33 57L33 60L37 60L37 61L38 61L38 60L40 60L40 58L39 58L39 57L38 57L38 58L39 58L39 59L38 59L38 60L37 60L37 59L36 59L36 58L37 58L37 55L38 55L38 56L40 56L40 55L39 55L39 54L38 54L38 53L39 53L39 52L40 52L40 53L41 53L41 52L42 52L42 54L43 54L43 52L44 52L44 50L45 50L45 48L46 48L46 50L48 50L48 48L46 48L46 47L43 47L43 48L44 48L44 49L42 49L42 48L40 48L40 47L39 47L39 45L38 45L38 44L37 44L37 43L39 43L39 44L40 44L40 45L41 45L41 47L42 47L42 45L44 45L44 46L45 46L45 44L46 44L46 46L47 46L47 44L48 44L48 45L49 45L49 44L52 44L52 43L51 43L51 42L52 42L52 41L53 41L53 40L52 40L52 39L51 39L51 38L53 38L53 39L54 39L54 42L55 42L55 43L54 43L54 45L55 45L55 46L56 46L56 47L59 47L59 46L62 46L62 45L63 45L63 44L61 44L61 45L60 45L60 44L59 44L59 43L60 43L60 41L61 41L61 42L62 42L62 43L63 43L63 41L64 41L64 40L63 40L63 41L62 41L62 40L61 40L61 39L63 39L63 38L65 38L65 39L66 39L66 38L65 38L65 37L62 37L62 38L59 38L59 36L60 36L60 34L59 34L59 33L60 33L60 32L59 32L59 33L57 33L57 32L58 32L58 31L61 31L61 32L63 32L63 31L62 31L62 30L63 30L63 29L62 29L62 28L60 28L60 30L57 30L57 31L56 31L56 30L55 30L55 28L58 28L58 29L59 29L59 28L58 28L58 27L56 27L56 25L57 25L57 24L56 24L56 25L55 25L55 23L54 23L54 22L52 22L52 23L53 23L53 24L51 24L51 20L52 20L52 19L53 19L53 21L54 21L54 19L53 19L53 15L52 15L52 14L55 14L55 13L53 13L53 12L51 12L51 13L52 13L52 14L50 14L50 15L52 15L52 17L49 17L49 15L48 15L48 14L49 14L49 13L50 13L50 11L51 11L51 9L50 9L50 8L49 8L49 7L50 7L50 6L51 6L51 7L52 7L52 6L51 6L51 5L50 5L50 6L49 6L49 4L47 4L47 3L46 3L46 5L45 5L45 8L44 8L44 6L43 6L43 9L45 9L45 10L46 10L46 11L45 11L45 12L44 12L44 13L43 13L43 12L41 12L41 13L42 13L42 14L43 14L43 15L41 15L41 14L40 14L40 11L42 11L42 10L41 10L41 9L42 9L42 8L41 8L41 9L40 9L40 8L38 8L38 6L39 6L39 7L40 7L40 6L39 6L39 5L38 5L38 4L37 4L37 3L36 3L36 4L37 4L37 9L38 9L38 10L37 10L37 12L36 12L36 9L35 9L35 12L36 12L36 15L34 15L34 20L32 20L32 21L31 21L31 19L30 19L30 18L28 18L28 17L26 17L26 16L25 16L25 17L24 17L24 18L22 18L22 17L23 17L23 16L22 16L22 17L21 17L21 18L22 18L22 19L20 19L20 16L21 16L21 14L19 14L19 13L15 13L15 14L16 14L16 16L17 16L17 17L15 17L15 16L14 16L14 15L13 15L13 14L11 14L11 15L12 15L12 16L9 16L9 15L10 15L10 14L9 14L9 13L10 13L10 12L12 12L12 11L13 11L13 12L15 12L15 11L17 11L17 12L19 12L19 10L18 10L18 11L17 11L17 10L16 10L16 8L18 8L18 9L19 9L19 8L20 8L20 10L22 10L22 11L23 11L23 9L22 9L22 8L21 8L21 7L22 7L22 5L20 5L20 4L18 4L18 5L19 5L19 7L18 7L18 6L17 6L17 7L16 7L16 4L15 4L15 3L17 3L17 2L19 2L19 1ZM20 2L20 3L21 3L21 2ZM58 2L58 3L59 3L59 2ZM22 3L22 4L23 4L23 3ZM31 3L31 4L32 4L32 3ZM34 3L34 4L35 4L35 3ZM44 3L44 4L45 4L45 3ZM60 3L60 5L61 5L61 3ZM33 5L33 8L36 8L36 5ZM46 5L46 7L47 7L47 6L48 6L48 7L49 7L49 6L48 6L48 5ZM14 6L14 7L15 7L15 6ZM20 6L20 7L21 7L21 6ZM24 6L24 7L25 7L25 6ZM27 6L27 7L28 7L28 6ZM29 6L29 7L30 7L30 6ZM31 6L31 7L32 7L32 6ZM34 6L34 7L35 7L35 6ZM55 6L55 7L56 7L56 6ZM31 8L31 9L32 9L32 10L33 10L33 11L32 11L32 13L31 13L31 14L32 14L32 17L33 17L33 14L35 14L35 13L33 13L33 11L34 11L34 9L32 9L32 8ZM46 8L46 9L47 9L47 11L48 11L48 12L47 12L47 13L49 13L49 11L50 11L50 9L48 9L48 8ZM68 8L68 9L69 9L69 8ZM25 10L25 11L26 11L26 10ZM30 10L30 12L31 12L31 10ZM43 10L43 11L44 11L44 10ZM7 11L7 12L8 12L8 13L9 13L9 12L10 12L10 11ZM38 11L38 12L37 12L37 14L39 14L39 15L38 15L38 17L39 17L39 19L40 19L40 20L38 20L38 18L37 18L37 17L36 17L36 16L35 16L35 20L34 20L34 22L33 22L33 24L32 24L32 25L31 25L31 24L30 24L30 20L27 20L27 21L29 21L29 22L25 22L25 20L24 20L24 21L23 21L23 19L22 19L22 20L21 20L21 23L16 23L16 22L17 22L17 21L18 21L18 22L20 22L20 19L19 19L19 18L15 18L15 17L14 17L14 16L13 16L13 17L14 17L14 19L13 19L13 18L12 18L12 17L11 17L11 18L10 18L10 17L9 17L9 16L8 16L8 17L7 17L7 18L8 18L8 19L9 19L9 20L6 20L6 21L7 21L7 22L6 22L6 23L7 23L7 22L8 22L8 21L9 21L9 20L10 20L10 23L11 23L11 25L10 25L10 26L9 26L9 27L11 27L11 29L10 29L10 31L11 31L11 30L12 30L12 28L13 28L13 29L14 29L14 30L13 30L13 31L12 31L12 32L13 32L13 33L17 33L17 37L19 37L19 38L17 38L17 39L19 39L19 38L22 38L22 39L23 39L23 41L21 41L21 43L19 43L19 44L20 44L20 45L18 45L18 44L17 44L17 46L18 46L18 48L19 48L19 47L20 47L20 48L23 48L23 49L21 49L21 50L20 50L20 49L19 49L19 50L18 50L18 51L17 51L17 52L19 52L19 53L18 53L18 54L19 54L19 57L18 57L18 56L17 56L17 53L15 53L15 55L14 55L14 56L15 56L15 55L16 55L16 59L15 59L15 58L14 58L14 57L13 57L13 55L11 55L11 54L8 54L8 55L7 55L7 56L6 56L6 57L8 57L8 55L9 55L9 56L10 56L10 57L11 57L11 56L12 56L12 57L13 57L13 61L12 61L12 60L11 60L11 59L12 59L12 58L11 58L11 59L10 59L10 60L9 60L9 61L10 61L10 62L11 62L11 63L12 63L12 62L13 62L13 63L14 63L14 60L15 60L15 63L16 63L16 59L17 59L17 61L18 61L18 62L19 62L19 63L21 63L21 62L23 62L23 61L22 61L22 59L23 59L23 58L22 58L22 56L23 56L23 57L24 57L24 58L25 58L25 61L26 61L26 59L27 59L27 57L26 57L26 58L25 58L25 57L24 57L24 56L25 56L25 55L23 55L23 54L24 54L24 53L27 53L27 54L26 54L26 55L28 55L28 57L29 57L29 52L28 52L28 51L29 51L29 50L30 50L30 51L33 51L33 50L34 50L34 51L35 51L35 52L36 52L36 53L37 53L37 52L39 52L39 51L38 51L38 50L40 50L40 49L38 49L38 48L39 48L39 47L38 47L38 46L37 46L37 47L36 47L36 46L33 46L33 47L35 47L35 48L37 48L37 49L36 49L36 50L37 50L37 51L35 51L35 50L34 50L34 49L33 49L33 48L32 48L32 47L31 47L31 48L30 48L30 47L29 47L29 46L31 46L31 45L30 45L30 42L29 42L29 41L28 41L28 40L29 40L29 39L31 39L31 40L30 40L30 41L31 41L31 42L34 42L34 41L33 41L33 40L32 40L32 39L33 39L33 37L36 37L36 38L37 38L37 37L38 37L38 38L39 38L39 40L38 40L38 39L35 39L35 38L34 38L34 39L35 39L35 41L37 41L37 40L38 40L38 41L39 41L39 42L40 42L40 43L43 43L43 42L42 42L42 41L41 41L41 42L40 42L40 40L41 40L41 38L40 38L40 37L38 37L38 35L37 35L37 34L38 34L38 33L40 33L40 34L39 34L39 35L41 35L41 36L42 36L42 35L43 35L43 38L42 38L42 39L43 39L43 38L44 38L44 39L45 39L45 40L43 40L43 41L45 41L45 42L44 42L44 44L45 44L45 42L46 42L46 44L47 44L47 43L48 43L48 44L49 44L49 43L50 43L50 42L49 42L49 43L48 43L48 41L46 41L46 40L47 40L47 39L45 39L45 38L46 38L46 37L48 37L48 38L51 38L51 36L50 36L50 34L49 34L49 33L48 33L48 31L49 31L49 32L50 32L50 33L51 33L51 35L52 35L52 36L53 36L53 35L52 35L52 34L53 34L53 32L54 32L54 36L55 36L55 37L56 37L56 40L55 40L55 41L56 41L56 42L57 42L57 41L58 41L58 43L57 43L57 44L58 44L58 45L59 45L59 44L58 44L58 43L59 43L59 41L60 41L60 40L59 40L59 39L57 39L57 38L58 38L58 37L56 37L56 36L55 36L55 34L56 34L56 35L58 35L58 34L57 34L57 33L56 33L56 31L53 31L53 32L51 32L51 31L52 31L52 30L51 30L51 31L49 31L49 29L50 29L50 27L51 27L51 26L52 26L52 28L53 28L53 25L54 25L54 24L53 24L53 25L49 25L49 22L50 22L50 21L47 21L47 22L48 22L48 23L46 23L46 25L44 25L44 23L43 23L43 24L42 24L42 22L44 22L44 21L41 21L41 19L43 19L43 18L44 18L44 20L45 20L45 21L46 21L46 19L45 19L45 18L47 18L47 19L48 19L48 20L51 20L51 19L52 19L52 18L51 18L51 19L48 19L48 18L47 18L47 17L48 17L48 15L47 15L47 14L46 14L46 12L45 12L45 14L46 14L46 15L47 15L47 16L46 16L46 17L45 17L45 15L44 15L44 16L43 16L43 18L42 18L42 16L41 16L41 17L40 17L40 14L39 14L39 11ZM64 11L64 12L63 12L63 14L61 14L61 16L62 16L62 15L63 15L63 14L64 14L64 13L66 13L66 12L65 12L65 11ZM68 12L68 13L69 13L69 12ZM27 13L27 15L28 15L28 13ZM32 13L32 14L33 14L33 13ZM17 14L17 15L19 15L19 16L18 16L18 17L19 17L19 16L20 16L20 15L19 15L19 14ZM56 14L56 15L55 15L55 16L56 16L56 15L57 15L57 16L58 16L58 17L59 17L59 16L58 16L58 14ZM68 15L68 16L69 16L69 15ZM2 17L2 19L3 19L3 18L4 18L4 17ZM8 17L8 18L9 18L9 19L10 19L10 20L11 20L11 19L12 19L12 20L13 20L13 21L15 21L15 20L16 20L16 21L17 21L17 20L16 20L16 19L14 19L14 20L13 20L13 19L12 19L12 18L11 18L11 19L10 19L10 18L9 18L9 17ZM44 17L44 18L45 18L45 17ZM26 18L26 19L27 19L27 18ZM56 19L56 20L57 20L57 19ZM18 20L18 21L19 21L19 20ZM36 20L36 21L35 21L35 22L34 22L34 23L36 23L36 24L34 24L34 25L33 25L33 26L32 26L32 27L33 27L33 28L31 28L31 27L30 27L30 26L31 26L31 25L30 25L30 24L29 24L29 23L28 23L28 27L27 27L27 29L26 29L26 30L27 30L27 31L25 31L25 32L24 32L24 31L23 31L23 30L22 30L22 29L24 29L24 30L25 30L25 29L24 29L24 27L25 27L25 25L24 25L24 27L23 27L23 25L22 25L22 24L23 24L23 23L24 23L24 24L25 24L25 22L23 22L23 21L22 21L22 22L23 22L23 23L21 23L21 26L20 26L20 27L21 27L21 26L22 26L22 27L23 27L23 28L22 28L22 29L21 29L21 28L16 28L16 27L18 27L18 26L19 26L19 25L20 25L20 24L19 24L19 25L18 25L18 26L15 26L15 24L14 24L14 22L12 22L12 23L13 23L13 25L12 25L12 27L14 27L14 26L15 26L15 28L16 28L16 29L17 29L17 33L19 33L19 34L18 34L18 35L19 35L19 34L23 34L23 33L21 33L21 32L24 32L24 33L25 33L25 34L24 34L24 35L23 35L23 36L21 36L21 35L20 35L20 36L21 36L21 37L23 37L23 39L24 39L24 41L25 41L25 40L26 40L26 39L27 39L27 40L28 40L28 39L27 39L27 36L25 36L25 37L24 37L24 35L25 35L25 34L26 34L26 35L28 35L28 38L31 38L31 37L29 37L29 36L32 36L32 33L31 33L31 32L30 32L30 33L31 33L31 35L28 35L28 31L33 31L33 30L32 30L32 29L34 29L34 30L35 30L35 31L36 31L36 30L35 30L35 27L38 27L38 28L36 28L36 29L37 29L37 32L40 32L40 31L41 31L41 33L42 33L42 32L43 32L43 35L45 35L45 34L46 34L46 35L47 35L47 36L48 36L48 35L49 35L49 34L47 34L47 31L45 31L45 29L44 29L44 31L43 31L43 28L46 28L46 29L49 29L49 27L50 27L50 26L48 26L48 24L47 24L47 25L46 25L46 26L45 26L45 27L44 27L44 25L42 25L42 24L39 24L39 23L38 23L38 22L36 22L36 21L37 21L37 20ZM40 21L40 23L41 23L41 21ZM64 21L64 22L65 22L65 21ZM4 22L4 23L5 23L5 22ZM31 22L31 23L32 23L32 22ZM59 22L59 23L58 23L58 26L59 26L59 27L60 27L60 26L61 26L61 25L62 25L62 24L59 24L59 23L61 23L61 22ZM16 24L16 25L17 25L17 24ZM26 24L26 25L27 25L27 24ZM6 25L6 26L7 26L7 25ZM13 25L13 26L14 26L14 25ZM34 25L34 26L33 26L33 27L35 27L35 25ZM37 25L37 26L38 26L38 27L39 27L39 26L40 26L40 25ZM65 25L65 27L66 27L66 26L67 26L67 25ZM41 26L41 27L42 27L42 28L41 28L41 29L39 29L39 30L38 30L38 31L40 31L40 30L41 30L41 29L42 29L42 28L43 28L43 27L42 27L42 26ZM46 26L46 28L47 28L47 26ZM54 26L54 27L55 27L55 26ZM68 28L68 29L69 29L69 28ZM18 29L18 31L19 31L19 32L21 32L21 30L20 30L20 31L19 31L19 29ZM27 29L27 30L29 30L29 29ZM30 29L30 30L31 30L31 29ZM53 29L53 30L54 30L54 29ZM14 30L14 32L16 32L16 31L15 31L15 30ZM26 32L26 33L27 33L27 32ZM5 33L5 36L8 36L8 33ZM33 33L33 36L36 36L36 33ZM44 33L44 34L45 34L45 33ZM61 33L61 36L64 36L64 33ZM2 34L2 35L4 35L4 34ZM6 34L6 35L7 35L7 34ZM34 34L34 35L35 35L35 34ZM62 34L62 35L63 35L63 34ZM65 34L65 35L66 35L66 36L67 36L67 34ZM14 36L14 37L15 37L15 38L16 38L16 36ZM44 36L44 38L45 38L45 36ZM49 36L49 37L50 37L50 36ZM2 37L2 40L1 40L1 41L2 41L2 40L3 40L3 38L5 38L5 39L6 39L6 38L7 38L7 37ZM25 37L25 38L26 38L26 37ZM20 39L20 40L21 40L21 39ZM50 39L50 40L51 40L51 41L52 41L52 40L51 40L51 39ZM31 40L31 41L32 41L32 40ZM58 40L58 41L59 41L59 40ZM68 40L68 42L69 42L69 40ZM16 41L16 42L17 42L17 43L18 43L18 42L19 42L19 41L18 41L18 42L17 42L17 41ZM26 41L26 42L27 42L27 41ZM22 42L22 43L21 43L21 44L22 44L22 43L23 43L23 45L22 45L22 46L21 46L21 45L20 45L20 47L23 47L23 48L24 48L24 47L23 47L23 45L25 45L25 49L23 49L23 50L21 50L21 51L23 51L23 52L22 52L22 53L19 53L19 54L21 54L21 56L20 56L20 58L21 58L21 59L22 59L22 58L21 58L21 56L22 56L22 54L23 54L23 52L24 52L24 50L25 50L25 49L27 49L27 50L26 50L26 52L27 52L27 53L28 53L28 52L27 52L27 50L29 50L29 48L28 48L28 46L29 46L29 44L28 44L28 46L27 46L27 43L25 43L25 42ZM36 42L36 43L37 43L37 42ZM13 43L13 46L14 46L14 43ZM24 43L24 44L25 44L25 43ZM31 43L31 44L32 44L32 45L36 45L36 44L34 44L34 43ZM55 43L55 44L56 44L56 43ZM15 44L15 45L16 45L16 44ZM41 44L41 45L42 45L42 44ZM4 45L4 46L3 46L3 47L4 47L4 48L5 48L5 45ZM6 45L6 46L8 46L8 45ZM50 45L50 46L49 46L49 48L50 48L50 49L51 49L51 50L50 50L50 52L51 52L51 50L53 50L53 51L52 51L52 54L51 54L51 55L52 55L52 54L53 54L53 57L54 57L54 56L55 56L55 57L56 57L56 58L54 58L54 59L53 59L53 58L52 58L52 59L53 59L53 60L54 60L54 59L56 59L56 61L58 61L58 63L56 63L56 64L58 64L58 65L59 65L59 64L60 64L60 58L59 58L59 57L61 57L61 58L62 58L62 57L63 57L63 59L61 59L61 60L63 60L63 59L66 59L66 58L67 58L67 55L66 55L66 54L63 54L63 53L62 53L62 54L59 54L59 55L57 55L57 54L55 54L55 53L54 53L54 54L53 54L53 51L54 51L54 52L56 52L56 51L58 51L58 53L59 53L59 51L58 51L58 50L59 50L59 49L60 49L60 50L61 50L61 52L62 52L62 51L63 51L63 50L62 50L62 49L63 49L63 48L64 48L64 47L61 47L61 48L59 48L59 49L58 49L58 50L57 50L57 48L56 48L56 49L55 49L55 47L53 47L53 48L52 48L52 46L51 46L51 45ZM56 45L56 46L57 46L57 45ZM26 46L26 47L27 47L27 46ZM6 47L6 48L7 48L7 49L8 49L8 47ZM9 47L9 48L10 48L10 47ZM37 47L37 48L38 48L38 47ZM31 48L31 49L32 49L32 50L33 50L33 49L32 49L32 48ZM61 48L61 49L62 49L62 48ZM45 51L45 53L46 53L46 51ZM32 52L32 55L34 55L34 54L35 54L35 53L33 53L33 52ZM30 54L30 55L31 55L31 54ZM59 55L59 56L62 56L62 55ZM64 55L64 56L65 56L65 55ZM45 56L45 57L46 57L46 56ZM65 57L65 58L66 58L66 57ZM17 58L17 59L18 59L18 60L19 60L19 61L20 61L20 59L19 59L19 58ZM30 58L30 59L29 59L29 60L30 60L30 59L31 59L31 62L32 62L32 58ZM56 58L56 59L58 59L58 60L59 60L59 59L58 59L58 58ZM3 60L3 61L5 61L5 60ZM10 60L10 61L11 61L11 62L12 62L12 61L11 61L11 60ZM43 60L43 61L44 61L44 60ZM33 61L33 64L36 64L36 61ZM61 61L61 64L64 64L64 61ZM26 62L26 64L27 64L27 62ZM34 62L34 63L35 63L35 62ZM38 62L38 64L39 64L39 62ZM62 62L62 63L63 63L63 62ZM58 63L58 64L59 64L59 63ZM51 64L51 67L52 67L52 64ZM36 65L36 66L37 66L37 65ZM38 65L38 66L39 66L39 67L40 67L40 68L41 68L41 67L40 67L40 66L39 66L39 65ZM46 65L46 68L45 68L45 69L48 69L48 68L49 68L49 69L50 69L50 66L49 66L49 67L48 67L48 65ZM60 65L60 66L61 66L61 67L60 67L60 68L61 68L61 67L62 67L62 66L61 66L61 65ZM64 65L64 67L63 67L63 68L64 68L64 67L65 67L65 66L67 66L67 65ZM44 66L44 67L45 67L45 66ZM55 66L55 67L56 67L56 66ZM23 67L23 68L24 68L24 67ZM68 67L68 68L69 68L69 67ZM66 68L66 69L67 69L67 68ZM0 0L0 7L7 7L7 0ZM1 1L1 6L6 6L6 1ZM2 2L2 5L5 5L5 2ZM62 0L62 7L69 7L69 0ZM63 1L63 6L68 6L68 1ZM64 2L64 5L67 5L67 2ZM0 62L0 69L7 69L7 62ZM1 63L1 68L6 68L6 63ZM2 64L2 67L5 67L5 64Z" fill="#000000"/></g></g></svg>
