<?xml version="1.0" encoding="UTF-8"?>
<svg xmlns="http://www.w3.org/2000/svg" version="1.1" width="300" height="300" viewBox="0 0 300 300"><rect x="0" y="0" width="300" height="300" fill="#ffffff"/><g transform="scale(4.348)"><g transform="translate(0,0)"><path fill-rule="evenodd" d="M9 0L9 1L8 1L8 2L9 2L9 3L8 3L8 4L10 4L10 3L11 3L11 4L12 4L12 3L13 3L13 4L14 4L14 3L15 3L15 5L12 5L12 7L13 7L13 6L14 6L14 8L13 8L13 9L14 9L14 10L11 10L11 9L12 9L12 8L11 8L11 9L10 9L10 8L6 8L6 9L5 9L5 8L0 8L0 13L1 13L1 11L2 11L2 13L5 13L5 14L6 14L6 15L7 15L7 16L5 16L5 15L3 15L3 14L2 14L2 15L3 15L3 17L2 17L2 18L1 18L1 20L3 20L3 22L4 22L4 21L5 21L5 20L6 20L6 21L7 21L7 20L8 20L8 19L9 19L9 20L10 20L10 21L11 21L11 22L9 22L9 23L8 23L8 22L5 22L5 23L2 23L2 22L1 22L1 21L0 21L0 24L1 24L1 23L2 23L2 25L0 25L0 28L1 28L1 26L3 26L3 24L4 24L4 25L7 25L7 26L4 26L4 27L5 27L5 28L3 28L3 27L2 27L2 30L3 30L3 31L0 31L0 33L1 33L1 35L0 35L0 37L1 37L1 38L0 38L0 40L1 40L1 39L2 39L2 40L3 40L3 39L2 39L2 38L4 38L4 39L5 39L5 38L6 38L6 39L7 39L7 40L5 40L5 41L1 41L1 43L3 43L3 44L2 44L2 45L3 45L3 44L4 44L4 42L5 42L5 41L10 41L10 42L9 42L9 44L6 44L6 43L8 43L8 42L6 42L6 43L5 43L5 46L4 46L4 48L3 48L3 51L4 51L4 52L2 52L2 47L3 47L3 46L1 46L1 44L0 44L0 49L1 49L1 52L2 52L2 53L1 53L1 54L0 54L0 56L1 56L1 57L2 57L2 59L3 59L3 57L4 57L4 59L7 59L7 60L6 60L6 61L7 61L7 60L9 60L9 61L8 61L8 63L9 63L9 64L8 64L8 69L9 69L9 68L10 68L10 67L9 67L9 64L10 64L10 63L9 63L9 61L10 61L10 60L11 60L11 58L12 58L12 61L13 61L13 62L12 62L12 64L13 64L13 65L12 65L12 67L13 67L13 65L14 65L14 64L15 64L15 65L17 65L17 66L18 66L18 67L17 67L17 69L19 69L19 68L18 68L18 67L20 67L20 66L19 66L19 65L20 65L20 64L19 64L19 63L21 63L21 64L23 64L23 63L21 63L21 62L20 62L20 61L22 61L22 62L25 62L25 63L24 63L24 64L25 64L25 65L23 65L23 66L21 66L21 68L20 68L20 69L21 69L21 68L22 68L22 67L24 67L24 68L23 68L23 69L26 69L26 67L28 67L28 68L29 68L29 69L32 69L32 68L29 68L29 66L31 66L31 67L33 67L33 66L34 66L34 67L35 67L35 68L34 68L34 69L35 69L35 68L36 68L36 69L38 69L38 68L37 68L37 67L35 67L35 66L34 66L34 65L36 65L36 66L38 66L38 67L39 67L39 68L40 68L40 67L41 67L41 66L44 66L44 68L43 68L43 67L42 67L42 68L41 68L41 69L44 69L44 68L48 68L48 69L49 69L49 68L48 68L48 66L49 66L49 67L50 67L50 69L51 69L51 68L52 68L52 67L53 67L53 68L54 68L54 69L56 69L56 68L57 68L57 67L56 67L56 66L57 66L57 65L59 65L59 66L58 66L58 67L60 67L60 68L58 68L58 69L60 69L60 68L61 68L61 69L68 69L68 68L67 68L67 67L66 67L66 66L67 66L67 65L65 65L65 64L67 64L67 63L68 63L68 64L69 64L69 63L68 63L68 62L67 62L67 60L68 60L68 57L67 57L67 59L65 59L65 60L63 60L63 59L64 59L64 58L63 58L63 57L65 57L65 56L67 56L67 55L68 55L68 56L69 56L69 55L68 55L68 54L69 54L69 53L68 53L68 54L66 54L66 55L61 55L61 56L60 56L60 57L61 57L61 58L60 58L60 59L57 59L57 61L59 61L59 60L60 60L60 62L55 62L55 61L56 61L56 60L55 60L55 59L54 59L54 58L56 58L56 55L57 55L57 56L59 56L59 55L58 55L58 54L55 54L55 53L56 53L56 52L57 52L57 53L59 53L59 54L61 54L61 53L59 53L59 52L60 52L60 51L62 51L62 54L63 54L63 53L64 53L64 51L65 51L65 53L66 53L66 52L68 52L68 50L69 50L69 48L68 48L68 49L66 49L66 50L67 50L67 51L65 51L65 50L64 50L64 51L62 51L62 50L61 50L61 49L60 49L60 50L59 50L59 52L57 52L57 51L58 51L58 50L57 50L57 49L56 49L56 47L57 47L57 48L58 48L58 46L56 46L56 44L57 44L57 41L56 41L56 43L55 43L55 41L51 41L51 40L50 40L50 41L49 41L49 40L47 40L47 38L48 38L48 39L50 39L50 37L49 37L49 36L50 36L50 35L51 35L51 36L54 36L54 37L53 37L53 38L56 38L56 39L53 39L53 40L57 40L57 38L56 38L56 36L57 36L57 37L58 37L58 35L60 35L60 38L59 38L59 39L60 39L60 38L61 38L61 39L62 39L62 38L64 38L64 37L66 37L66 38L67 38L67 39L63 39L63 40L64 40L64 41L67 41L67 40L68 40L68 42L67 42L67 43L65 43L65 42L64 42L64 43L63 43L63 44L60 44L60 45L59 45L59 46L61 46L61 47L62 47L62 49L63 49L63 48L64 48L64 47L65 47L65 48L67 48L67 47L68 47L68 46L69 46L69 45L68 45L68 44L69 44L69 43L68 43L68 42L69 42L69 39L68 39L68 38L67 38L67 37L68 37L68 36L69 36L69 35L68 35L68 34L69 34L69 31L64 31L64 32L63 32L63 30L65 30L65 29L63 29L63 26L62 26L62 25L60 25L60 24L59 24L59 26L58 26L58 23L59 23L59 22L61 22L61 24L64 24L64 23L65 23L65 24L67 24L67 25L65 25L65 26L67 26L67 27L65 27L65 28L67 28L67 27L68 27L68 29L67 29L67 30L69 30L69 27L68 27L68 25L69 25L69 23L68 23L68 24L67 24L67 23L66 23L66 22L69 22L69 21L68 21L68 18L69 18L69 17L67 17L67 16L69 16L69 15L68 15L68 14L69 14L69 13L68 13L68 14L65 14L65 13L67 13L67 11L68 11L68 12L69 12L69 11L68 11L68 10L69 10L69 9L68 9L68 8L67 8L67 9L66 9L66 8L65 8L65 9L66 9L66 10L67 10L67 11L65 11L65 13L63 13L63 14L62 14L62 12L63 12L63 10L62 10L62 8L61 8L61 6L60 6L60 7L59 7L59 4L58 4L58 3L59 3L59 2L56 2L56 1L61 1L61 0L53 0L53 1L54 1L54 2L53 2L53 5L54 5L54 7L53 7L53 6L52 6L52 4L51 4L51 5L50 5L50 4L49 4L49 3L52 3L52 1L50 1L50 0L47 0L47 4L49 4L49 5L48 5L48 7L47 7L47 6L46 6L46 5L44 5L44 3L45 3L45 4L46 4L46 3L45 3L45 2L46 2L46 1L45 1L45 0L44 0L44 1L45 1L45 2L44 2L44 3L42 3L42 2L43 2L43 0L41 0L41 1L36 1L36 0L35 0L35 1L32 1L32 0L31 0L31 1L32 1L32 2L31 2L31 3L29 3L29 1L30 1L30 0L28 0L28 1L27 1L27 2L28 2L28 3L29 3L29 4L31 4L31 5L32 5L32 7L31 7L31 6L30 6L30 5L29 5L29 6L28 6L28 8L29 8L29 9L30 9L30 11L29 11L29 10L27 10L27 13L26 13L26 8L25 8L25 5L26 5L26 1L25 1L25 0L23 0L23 2L22 2L22 1L21 1L21 3L20 3L20 4L19 4L19 2L20 2L20 1L19 1L19 0L17 0L17 1L16 1L16 0L15 0L15 1L14 1L14 3L13 3L13 2L12 2L12 1L13 1L13 0L12 0L12 1L11 1L11 2L10 2L10 0ZM17 1L17 2L15 2L15 3L17 3L17 2L18 2L18 1ZM35 1L35 2L32 2L32 4L33 4L33 3L35 3L35 4L36 4L36 3L38 3L38 4L37 4L37 5L38 5L38 6L37 6L37 9L38 9L38 10L36 10L36 9L34 9L34 10L33 10L33 9L31 9L31 7L30 7L30 6L29 6L29 8L30 8L30 9L31 9L31 10L32 10L32 11L31 11L31 12L32 12L32 13L27 13L27 14L25 14L25 15L26 15L26 16L23 16L23 15L24 15L24 14L22 14L22 13L23 13L23 12L21 12L21 10L22 10L22 11L24 11L24 12L25 12L25 9L24 9L24 8L23 8L23 7L24 7L24 4L25 4L25 3L24 3L24 2L23 2L23 3L21 3L21 4L20 4L20 5L19 5L19 8L20 8L20 11L19 11L19 10L18 10L18 11L17 11L17 12L15 12L15 11L11 11L11 10L10 10L10 9L9 9L9 13L8 13L8 12L7 12L7 11L8 11L8 9L6 9L6 10L7 10L7 11L4 11L4 10L5 10L5 9L2 9L2 11L3 11L3 12L5 12L5 13L6 13L6 14L7 14L7 15L8 15L8 17L6 17L6 18L5 18L5 19L6 19L6 20L7 20L7 19L8 19L8 18L13 18L13 19L11 19L11 20L13 20L13 19L14 19L14 15L15 15L15 16L16 16L16 15L15 15L15 14L16 14L16 13L17 13L17 12L18 12L18 11L19 11L19 12L21 12L21 13L19 13L19 14L18 14L18 15L17 15L17 16L18 16L18 17L17 17L17 18L16 18L16 17L15 17L15 20L16 20L16 21L17 21L17 20L19 20L19 19L20 19L20 18L19 18L19 19L17 19L17 18L18 18L18 17L26 17L26 19L25 19L25 18L23 18L23 19L21 19L21 20L20 20L20 22L19 22L19 21L18 21L18 22L19 22L19 24L20 24L20 22L21 22L21 23L22 23L22 22L23 22L23 19L25 19L25 20L26 20L26 21L25 21L25 22L24 22L24 24L25 24L25 22L26 22L26 25L25 25L25 27L26 27L26 29L25 29L25 30L23 30L23 31L22 31L22 29L24 29L24 27L23 27L23 26L24 26L24 25L22 25L22 24L21 24L21 25L20 25L20 26L18 26L18 25L17 25L17 22L16 22L16 25L15 25L15 23L14 23L14 24L12 24L12 23L10 23L10 24L8 24L8 23L5 23L5 24L8 24L8 27L6 27L6 28L8 28L8 27L9 27L9 29L3 29L3 30L4 30L4 31L3 31L3 32L1 32L1 33L2 33L2 34L3 34L3 35L4 35L4 34L3 34L3 32L5 32L5 31L6 31L6 32L7 32L7 31L8 31L8 32L9 32L9 36L11 36L11 35L10 35L10 32L9 32L9 31L10 31L10 30L9 30L9 29L11 29L11 30L12 30L12 31L11 31L11 34L12 34L12 35L13 35L13 36L19 36L19 37L20 37L20 38L19 38L19 39L16 39L16 38L18 38L18 37L12 37L12 39L11 39L11 37L10 37L10 38L8 38L8 37L6 37L6 38L8 38L8 39L9 39L9 40L14 40L14 38L15 38L15 39L16 39L16 40L15 40L15 41L16 41L16 42L14 42L14 41L12 41L12 42L10 42L10 44L9 44L9 45L13 45L13 46L18 46L18 47L17 47L17 48L15 48L15 47L11 47L11 48L10 48L10 47L9 47L9 46L8 46L8 45L6 45L6 46L5 46L5 47L6 47L6 48L5 48L5 49L4 49L4 51L5 51L5 52L4 52L4 53L5 53L5 56L4 56L4 54L3 54L3 53L2 53L2 54L1 54L1 55L2 55L2 54L3 54L3 56L2 56L2 57L3 57L3 56L4 56L4 57L5 57L5 56L7 56L7 57L6 57L6 58L7 58L7 59L8 59L8 58L7 58L7 57L9 57L9 56L10 56L10 53L11 53L11 54L12 54L12 55L13 55L13 56L12 56L12 58L13 58L13 59L14 59L14 58L16 58L16 57L17 57L17 58L18 58L18 59L17 59L17 60L16 60L16 59L15 59L15 60L13 60L13 61L14 61L14 62L17 62L17 63L18 63L18 62L19 62L19 61L17 61L17 60L19 60L19 59L20 59L20 60L22 60L22 61L25 61L25 60L24 60L24 59L22 59L22 58L24 58L24 57L22 57L22 56L21 56L21 57L17 57L17 56L16 56L16 57L14 57L14 58L13 58L13 56L15 56L15 55L18 55L18 54L19 54L19 56L20 56L20 55L22 55L22 54L21 54L21 53L25 53L25 52L24 52L24 51L23 51L23 52L19 52L19 51L20 51L20 50L18 50L18 49L21 49L21 50L22 50L22 49L23 49L23 50L24 50L24 49L26 49L26 50L25 50L25 51L26 51L26 56L25 56L25 57L27 57L27 58L26 58L26 59L27 59L27 58L28 58L28 59L30 59L30 60L31 60L31 62L29 62L29 60L26 60L26 62L29 62L29 64L28 64L28 65L25 65L25 67L26 67L26 66L28 66L28 65L29 65L29 64L30 64L30 63L32 63L32 59L34 59L34 60L35 60L35 59L34 59L34 58L32 58L32 56L33 56L33 57L36 57L36 58L37 58L37 61L38 61L38 62L37 62L37 65L38 65L38 66L39 66L39 67L40 67L40 66L41 66L41 64L44 64L44 66L45 66L45 67L46 67L46 66L48 66L48 65L47 65L47 63L48 63L48 64L49 64L49 63L50 63L50 67L51 67L51 65L53 65L53 66L54 66L54 68L56 68L56 67L55 67L55 66L56 66L56 65L57 65L57 64L59 64L59 65L60 65L60 63L57 63L57 64L56 64L56 63L53 63L53 62L51 62L51 61L53 61L53 60L51 60L51 61L50 61L50 62L47 62L47 60L50 60L50 58L52 58L52 59L53 59L53 58L52 58L52 57L53 57L53 55L55 55L55 54L53 54L53 53L54 53L54 52L55 52L55 51L52 51L52 50L51 50L51 49L53 49L53 48L55 48L55 47L54 47L54 46L53 46L53 48L50 48L50 46L51 46L51 47L52 47L52 46L51 46L51 45L53 45L53 43L54 43L54 42L52 42L52 43L51 43L51 41L50 41L50 43L49 43L49 42L48 42L48 41L47 41L47 40L45 40L45 39L41 39L41 40L39 40L39 39L40 39L40 38L41 38L41 35L43 35L43 36L44 36L44 37L45 37L45 38L47 38L47 37L45 37L45 36L47 36L47 35L48 35L48 36L49 36L49 33L45 33L45 32L46 32L46 31L45 31L45 30L47 30L47 28L49 28L49 29L48 29L48 30L49 30L49 29L50 29L50 34L51 34L51 33L53 33L53 32L51 32L51 31L53 31L53 29L55 29L55 31L56 31L56 33L55 33L55 34L54 34L54 35L55 35L55 36L56 36L56 35L58 35L58 34L60 34L60 33L58 33L58 34L56 34L56 33L57 33L57 32L58 32L58 31L56 31L56 29L57 29L57 30L59 30L59 32L62 32L62 30L63 30L63 29L62 29L62 26L60 26L60 27L61 27L61 29L62 29L62 30L59 30L59 29L60 29L60 28L57 28L57 27L58 27L58 26L55 26L55 27L54 27L54 26L53 26L53 23L54 23L54 25L55 25L55 24L56 24L56 25L57 25L57 23L58 23L58 22L59 22L59 17L61 17L61 16L62 16L62 18L61 18L61 21L62 21L62 23L63 23L63 22L66 22L66 21L65 21L65 18L66 18L66 19L67 19L67 18L66 18L66 16L65 16L65 14L64 14L64 16L62 16L62 14L61 14L61 16L59 16L59 14L60 14L60 13L61 13L61 12L62 12L62 10L61 10L61 11L60 11L60 10L59 10L59 7L58 7L58 4L57 4L57 3L56 3L56 2L55 2L55 3L54 3L54 4L55 4L55 5L57 5L57 7L56 7L56 6L55 6L55 7L54 7L54 8L52 8L52 6L51 6L51 7L50 7L50 5L49 5L49 9L50 9L50 11L53 11L53 12L50 12L50 14L51 14L51 13L54 13L54 12L55 12L55 11L58 11L58 12L60 12L60 13L57 13L57 12L56 12L56 17L57 17L57 18L55 18L55 19L54 19L54 20L52 20L52 18L53 18L53 17L54 17L54 16L52 16L52 15L49 15L49 14L47 14L47 13L45 13L45 11L47 11L47 12L49 12L49 10L47 10L47 7L46 7L46 6L45 6L45 7L44 7L44 5L43 5L43 7L42 7L42 6L41 6L41 3L39 3L39 2L36 2L36 1ZM41 1L41 2L42 2L42 1ZM49 1L49 2L50 2L50 1ZM35 2L35 3L36 3L36 2ZM23 3L23 4L21 4L21 5L20 5L20 7L21 7L21 6L22 6L22 7L23 7L23 6L22 6L22 5L23 5L23 4L24 4L24 3ZM55 3L55 4L56 4L56 3ZM60 3L60 5L61 5L61 3ZM17 4L17 5L18 5L18 4ZM39 4L39 5L40 5L40 4ZM8 5L8 7L9 7L9 6L10 6L10 7L11 7L11 6L10 6L10 5ZM15 5L15 8L16 8L16 9L17 9L17 8L18 8L18 6L17 6L17 7L16 7L16 5ZM33 5L33 8L36 8L36 5ZM26 6L26 7L27 7L27 6ZM34 6L34 7L35 7L35 6ZM38 6L38 7L39 7L39 6ZM40 6L40 8L38 8L38 9L40 9L40 8L41 8L41 6ZM45 7L45 9L44 9L44 8L43 8L43 9L41 9L41 12L40 12L40 10L38 10L38 11L37 11L37 12L38 12L38 11L39 11L39 12L40 12L40 13L39 13L39 14L37 14L37 13L36 13L36 12L34 12L34 13L33 13L33 14L32 14L32 15L31 15L31 14L29 14L29 15L28 15L28 16L29 16L29 19L30 19L30 20L28 20L28 19L27 19L27 21L31 21L31 20L32 20L32 19L30 19L30 18L34 18L34 19L36 19L36 20L35 20L35 21L36 21L36 20L38 20L38 21L37 21L37 22L34 22L34 20L33 20L33 21L32 21L32 22L30 22L30 23L29 23L29 22L27 22L27 24L30 24L30 25L29 25L29 26L32 26L32 24L31 24L31 23L33 23L33 22L34 22L34 23L35 23L35 24L36 24L36 25L33 25L33 27L31 27L31 28L30 28L30 27L28 27L28 26L26 26L26 27L27 27L27 29L28 29L28 28L29 28L29 29L31 29L31 30L29 30L29 31L28 31L28 30L25 30L25 31L26 31L26 32L24 32L24 33L23 33L23 34L22 34L22 33L21 33L21 36L20 36L20 37L21 37L21 38L20 38L20 39L19 39L19 40L18 40L18 41L17 41L17 45L18 45L18 46L19 46L19 45L21 45L21 48L23 48L23 49L24 49L24 47L25 47L25 48L26 48L26 47L25 47L25 45L26 45L26 43L27 43L27 44L28 44L28 45L29 45L29 46L28 46L28 47L30 47L30 46L31 46L31 45L33 45L33 46L32 46L32 47L33 47L33 48L32 48L32 49L31 49L31 48L29 48L29 49L31 49L31 50L32 50L32 51L34 51L34 49L33 49L33 48L36 48L36 47L37 47L37 48L38 48L38 47L39 47L39 48L40 48L40 47L41 47L41 48L42 48L42 49L41 49L41 50L39 50L39 51L38 51L38 49L37 49L37 50L36 50L36 49L35 49L35 50L36 50L36 51L35 51L35 52L36 52L36 53L37 53L37 54L36 54L36 55L35 55L35 56L37 56L37 58L38 58L38 55L37 55L37 54L40 54L40 55L39 55L39 56L41 56L41 57L39 57L39 59L38 59L38 61L39 61L39 62L40 62L40 59L41 59L41 58L42 58L42 60L41 60L41 62L42 62L42 63L44 63L44 64L45 64L45 66L46 66L46 64L45 64L45 63L44 63L44 62L43 62L43 61L44 61L44 60L45 60L45 61L46 61L46 60L47 60L47 59L49 59L49 58L50 58L50 57L51 57L51 56L52 56L52 55L53 55L53 54L52 54L52 55L51 55L51 56L49 56L49 55L50 55L50 53L51 53L51 52L50 52L50 51L51 51L51 50L50 50L50 49L49 49L49 47L48 47L48 48L47 48L47 49L48 49L48 51L49 51L49 52L47 52L47 51L46 51L46 52L45 52L45 49L46 49L46 47L47 47L47 46L50 46L50 45L51 45L51 44L50 44L50 45L49 45L49 44L48 44L48 43L47 43L47 42L46 42L46 44L45 44L45 45L46 45L46 44L47 44L47 46L45 46L45 49L44 49L44 44L43 44L43 42L44 42L44 43L45 43L45 42L44 42L44 40L41 40L41 41L40 41L40 43L39 43L39 42L38 42L38 41L39 41L39 40L38 40L38 41L37 41L37 39L38 39L38 38L37 38L37 39L34 39L34 37L35 37L35 38L36 38L36 37L38 37L38 36L37 36L37 35L38 35L38 33L39 33L39 32L43 32L43 33L40 33L40 35L39 35L39 36L40 36L40 35L41 35L41 34L43 34L43 33L44 33L44 36L45 36L45 33L44 33L44 32L45 32L45 31L44 31L44 30L45 30L45 29L44 29L44 28L46 28L46 26L43 26L43 25L44 25L44 24L43 24L43 22L44 22L44 23L45 23L45 24L46 24L46 25L47 25L47 26L48 26L48 27L50 27L50 29L51 29L51 30L52 30L52 29L51 29L51 28L53 28L53 27L52 27L52 25L51 25L51 26L48 26L48 25L50 25L50 24L51 24L51 23L53 23L53 22L54 22L54 23L55 23L55 22L58 22L58 21L56 21L56 20L57 20L57 19L58 19L58 18L57 18L57 19L56 19L56 20L55 20L55 21L52 21L52 20L51 20L51 19L50 19L50 17L51 17L51 18L52 18L52 17L51 17L51 16L50 16L50 17L49 17L49 15L48 15L48 16L47 16L47 14L45 14L45 15L44 15L44 14L43 14L43 13L44 13L44 12L43 12L43 13L42 13L42 14L41 14L41 12L42 12L42 10L45 10L45 9L46 9L46 7ZM57 7L57 8L58 8L58 7ZM21 8L21 9L22 9L22 8ZM51 8L51 10L54 10L54 11L55 11L55 9L56 9L56 10L58 10L58 11L59 11L59 10L58 10L58 9L56 9L56 8L55 8L55 9L52 9L52 8ZM60 8L60 9L61 9L61 8ZM63 8L63 9L64 9L64 8ZM23 9L23 10L24 10L24 9ZM35 10L35 11L36 11L36 10ZM6 12L6 13L7 13L7 14L8 14L8 13L7 13L7 12ZM12 12L12 13L11 13L11 15L12 15L12 16L11 16L11 17L13 17L13 15L14 15L14 14L13 14L13 13L15 13L15 12ZM9 13L9 17L10 17L10 13ZM34 13L34 14L33 14L33 15L32 15L32 17L34 17L34 18L35 18L35 13ZM0 14L0 15L1 15L1 14ZM39 14L39 15L36 15L36 16L37 16L37 17L36 17L36 18L37 18L37 19L39 19L39 18L41 18L41 17L42 17L42 16L44 16L44 17L43 17L43 20L42 20L42 21L43 21L43 20L44 20L44 22L46 22L46 24L47 24L47 25L48 25L48 24L50 24L50 23L51 23L51 22L52 22L52 21L50 21L50 19L49 19L49 21L46 21L46 20L48 20L48 19L44 19L44 18L47 18L47 17L45 17L45 16L44 16L44 15L43 15L43 14L42 14L42 15L40 15L40 14ZM53 14L53 15L54 15L54 14ZM19 15L19 16L20 16L20 15ZM21 15L21 16L22 16L22 15ZM29 15L29 16L30 16L30 15ZM33 15L33 16L34 16L34 15ZM39 15L39 16L40 16L40 15ZM57 15L57 17L59 17L59 16L58 16L58 15ZM0 16L0 17L1 17L1 16ZM27 17L27 18L28 18L28 17ZM37 17L37 18L38 18L38 17ZM48 17L48 18L49 18L49 17ZM63 17L63 18L62 18L62 19L63 19L63 18L65 18L65 17ZM3 18L3 19L4 19L4 18ZM6 18L6 19L7 19L7 18ZM16 19L16 20L17 20L17 19ZM40 19L40 20L39 20L39 21L41 21L41 19ZM62 20L62 21L63 21L63 20ZM13 21L13 22L14 22L14 21ZM49 21L49 23L50 23L50 21ZM37 22L37 23L39 23L39 24L37 24L37 26L41 26L41 25L42 25L42 24L41 24L41 23L42 23L42 22L41 22L41 23L40 23L40 22ZM47 23L47 24L48 24L48 23ZM11 24L11 26L9 26L9 27L10 27L10 28L11 28L11 27L13 27L13 29L14 29L14 32L13 32L13 31L12 31L12 32L13 32L13 33L12 33L12 34L13 34L13 35L20 35L20 34L19 34L19 33L20 33L20 32L19 32L19 31L21 31L21 32L22 32L22 31L21 31L21 30L20 30L20 29L21 29L21 27L22 27L22 28L23 28L23 27L22 27L22 25L21 25L21 27L19 27L19 28L17 28L17 25L16 25L16 26L15 26L15 25L14 25L14 27L13 27L13 26L12 26L12 24ZM34 26L34 27L33 27L33 28L34 28L34 29L33 29L33 30L31 30L31 31L32 31L32 32L31 32L31 33L29 33L29 32L28 32L28 33L25 33L25 34L28 34L28 33L29 33L29 36L28 36L28 35L27 35L27 36L26 36L26 35L25 35L25 36L24 36L24 35L23 35L23 36L21 36L21 37L25 37L25 38L26 38L26 39L27 39L27 38L28 38L28 41L27 41L27 40L26 40L26 41L24 41L24 40L25 40L25 39L24 39L24 38L22 38L22 39L21 39L21 40L22 40L22 41L20 41L20 40L19 40L19 41L18 41L18 42L19 42L19 41L20 41L20 42L22 42L22 43L24 43L24 44L25 44L25 42L30 42L30 41L31 41L31 44L33 44L33 45L35 45L35 47L36 47L36 46L37 46L37 45L38 45L38 46L39 46L39 47L40 47L40 46L39 46L39 45L40 45L40 44L41 44L41 43L40 43L40 44L39 44L39 45L38 45L38 42L34 42L34 41L35 41L35 40L33 40L33 38L32 38L32 34L31 34L31 33L32 33L32 32L34 32L34 31L33 31L33 30L34 30L34 29L35 29L35 30L36 30L36 28L35 28L35 27L36 27L36 26ZM15 27L15 28L14 28L14 29L15 29L15 33L16 33L16 34L17 34L17 33L18 33L18 32L17 32L17 31L18 31L18 30L17 30L17 28L16 28L16 27ZM37 27L37 28L40 28L40 29L38 29L38 31L39 31L39 30L40 30L40 31L43 31L43 32L44 32L44 31L43 31L43 30L42 30L42 27ZM55 27L55 29L56 29L56 27ZM19 28L19 29L20 29L20 28ZM31 28L31 29L32 29L32 28ZM6 30L6 31L7 31L7 30ZM8 30L8 31L9 31L9 30ZM16 30L16 31L17 31L17 30ZM35 31L35 32L37 32L37 31ZM16 32L16 33L17 33L17 32ZM66 32L66 33L67 33L67 34L68 34L68 32ZM5 33L5 36L8 36L8 33ZM13 33L13 34L14 34L14 33ZM33 33L33 36L36 36L36 33ZM61 33L61 36L64 36L64 33ZM6 34L6 35L7 35L7 34ZM34 34L34 35L35 35L35 34ZM55 34L55 35L56 35L56 34ZM62 34L62 35L63 35L63 34ZM65 34L65 35L66 35L66 34ZM1 35L1 37L4 37L4 36L2 36L2 35ZM67 35L67 36L68 36L68 35ZM25 36L25 37L26 37L26 38L27 38L27 37L26 37L26 36ZM29 36L29 37L30 37L30 38L29 38L29 39L30 39L30 38L31 38L31 36ZM48 37L48 38L49 38L49 37ZM51 37L51 38L52 38L52 37ZM31 39L31 41L32 41L32 42L33 42L33 40L32 40L32 39ZM29 40L29 41L30 41L30 40ZM61 40L61 41L59 41L59 42L61 42L61 43L62 43L62 42L63 42L63 41L62 41L62 40ZM23 41L23 42L24 42L24 41ZM12 42L12 43L14 43L14 42ZM15 43L15 44L14 44L14 45L15 45L15 44L16 44L16 43ZM18 43L18 44L21 44L21 45L22 45L22 46L23 46L23 47L24 47L24 46L23 46L23 44L21 44L21 43ZM29 43L29 44L30 44L30 43ZM33 43L33 44L37 44L37 43ZM58 43L58 44L59 44L59 43ZM64 43L64 44L63 44L63 45L61 45L61 46L62 46L62 47L63 47L63 46L65 46L65 47L66 47L66 45L65 45L65 43ZM41 45L41 46L42 46L42 48L43 48L43 46L42 46L42 45ZM67 45L67 46L68 46L68 45ZM6 46L6 47L8 47L8 46ZM33 46L33 47L34 47L34 46ZM59 47L59 48L60 48L60 47ZM6 48L6 49L5 49L5 51L7 51L7 52L5 52L5 53L7 53L7 54L6 54L6 55L7 55L7 56L9 56L9 53L8 53L8 51L9 51L9 52L10 52L10 51L9 51L9 50L10 50L10 49L8 49L8 50L6 50L6 49L7 49L7 48ZM11 48L11 49L13 49L13 51L12 51L12 52L11 52L11 53L12 53L12 54L13 54L13 55L15 55L15 54L16 54L16 53L17 53L17 54L18 54L18 53L19 53L19 54L20 54L20 53L19 53L19 52L18 52L18 53L17 53L17 51L18 51L18 50L17 50L17 51L16 51L16 50L15 50L15 51L14 51L14 49L15 49L15 48ZM17 48L17 49L18 49L18 48ZM27 49L27 50L26 50L26 51L27 51L27 52L28 52L28 53L27 53L27 54L28 54L28 53L32 53L32 55L33 55L33 56L34 56L34 55L33 55L33 53L34 53L34 52L31 52L31 51L30 51L30 50L29 50L29 52L28 52L28 51L27 51L27 50L28 50L28 49ZM32 49L32 50L33 50L33 49ZM43 49L43 50L44 50L44 49ZM55 49L55 50L56 50L56 49ZM41 50L41 52L39 52L39 53L43 53L43 54L41 54L41 55L43 55L43 56L42 56L42 57L43 57L43 60L42 60L42 61L43 61L43 60L44 60L44 59L45 59L45 60L46 60L46 59L47 59L47 58L49 58L49 57L46 57L46 56L47 56L47 54L49 54L49 53L45 53L45 52L44 52L44 51L42 51L42 50ZM15 51L15 52L14 52L14 54L15 54L15 53L16 53L16 51ZM37 52L37 53L38 53L38 52ZM43 52L43 53L44 53L44 56L43 56L43 57L44 57L44 56L46 56L46 54L45 54L45 53L44 53L44 52ZM30 54L30 55L29 55L29 56L30 56L30 57L29 57L29 58L30 58L30 59L31 59L31 54ZM61 56L61 57L63 57L63 56ZM10 57L10 58L9 58L9 60L10 60L10 58L11 58L11 57ZM21 57L21 58L20 58L20 59L21 59L21 58L22 58L22 57ZM0 58L0 61L1 61L1 58ZM45 58L45 59L46 59L46 58ZM62 58L62 59L63 59L63 58ZM60 59L60 60L61 60L61 59ZM3 60L3 61L5 61L5 60ZM65 60L65 61L66 61L66 60ZM33 61L33 64L36 64L36 61ZM61 61L61 64L64 64L64 61ZM34 62L34 63L35 63L35 62ZM46 62L46 63L47 63L47 62ZM62 62L62 63L63 63L63 62ZM65 62L65 63L66 63L66 62ZM25 63L25 64L26 64L26 63ZM38 63L38 65L39 65L39 64L41 64L41 63ZM51 63L51 64L52 64L52 63ZM17 64L17 65L18 65L18 64ZM55 64L55 65L54 65L54 66L55 66L55 65L56 65L56 64ZM10 65L10 66L11 66L11 65ZM31 65L31 66L32 66L32 65ZM61 65L61 66L63 66L63 67L61 67L61 68L63 68L63 67L64 67L64 68L65 68L65 65L64 65L64 66L63 66L63 65ZM14 66L14 67L16 67L16 66ZM13 68L13 69L16 69L16 68ZM0 0L0 7L7 7L7 0ZM1 1L1 6L6 6L6 1ZM2 2L2 5L5 5L5 2ZM62 0L62 7L69 7L69 0ZM63 1L63 6L68 6L68 1ZM64 2L64 5L67 5L67 2ZM0 62L0 69L7 69L7 62ZM1 63L1 68L6 68L6 63ZM2 64L2 67L5 67L5 64Z" fill="#000000"/></g></g></svg>
