<?xml version="1.0" encoding="UTF-8"?>
<svg xmlns="http://www.w3.org/2000/svg" version="1.1" width="300" height="300" viewBox="0 0 300 300"><rect x="0" y="0" width="300" height="300" fill="#ffffff"/><g transform="scale(4.348)"><g transform="translate(0,0)"><path fill-rule="evenodd" d="M8 0L8 4L9 4L9 5L8 5L8 7L9 7L9 5L10 5L10 7L11 7L11 8L12 8L12 9L11 9L11 10L10 10L10 8L9 8L9 9L8 9L8 11L7 11L7 10L5 10L5 9L7 9L7 8L4 8L4 9L2 9L2 8L0 8L0 10L2 10L2 11L1 11L1 12L0 12L0 13L2 13L2 12L3 12L3 14L4 14L4 12L6 12L6 13L7 13L7 14L5 14L5 15L2 15L2 14L1 14L1 15L2 15L2 16L0 16L0 20L1 20L1 21L0 21L0 22L1 22L1 23L0 23L0 24L2 24L2 23L3 23L3 26L2 26L2 25L1 25L1 26L2 26L2 27L0 27L0 34L1 34L1 35L0 35L0 37L1 37L1 38L3 38L3 36L2 36L2 34L4 34L4 38L5 38L5 37L7 37L7 38L6 38L6 39L10 39L10 40L9 40L9 41L10 41L10 42L8 42L8 40L6 40L6 41L7 41L7 42L6 42L6 43L7 43L7 44L6 44L6 45L10 45L10 44L11 44L11 45L12 45L12 48L11 48L11 46L10 46L10 48L6 48L6 47L7 47L7 46L6 46L6 47L5 47L5 46L4 46L4 45L5 45L5 43L3 43L3 42L5 42L5 39L3 39L3 40L4 40L4 41L1 41L1 40L2 40L2 39L0 39L0 41L1 41L1 42L2 42L2 43L0 43L0 44L1 44L1 48L2 48L2 47L5 47L5 48L6 48L6 49L7 49L7 50L6 50L6 51L8 51L8 54L6 54L6 53L7 53L7 52L1 52L1 53L0 53L0 54L1 54L1 55L0 55L0 61L1 61L1 56L3 56L3 57L2 57L2 59L3 59L3 57L4 57L4 59L8 59L8 54L10 54L10 53L11 53L11 52L12 52L12 53L14 53L14 54L12 54L12 56L11 56L11 57L10 57L10 56L9 56L9 57L10 57L10 58L9 58L9 59L13 59L13 60L12 60L12 63L11 63L11 64L10 64L10 63L8 63L8 65L9 65L9 66L10 66L10 65L12 65L12 64L13 64L13 66L12 66L12 67L11 67L11 68L10 68L10 67L8 67L8 69L9 69L9 68L10 68L10 69L11 69L11 68L13 68L13 67L14 67L14 68L16 68L16 69L19 69L19 68L16 68L16 67L17 67L17 66L18 66L18 67L20 67L20 66L21 66L21 65L22 65L22 64L24 64L24 63L23 63L23 62L25 62L25 63L26 63L26 64L29 64L29 65L23 65L23 67L22 67L22 68L21 68L21 69L22 69L22 68L25 68L25 67L24 67L24 66L27 66L27 67L26 67L26 69L27 69L27 67L28 67L28 66L29 66L29 69L31 69L31 67L34 67L34 68L32 68L32 69L35 69L35 67L37 67L37 65L38 65L38 67L39 67L39 66L40 66L40 63L41 63L41 67L40 67L40 68L38 68L38 69L40 69L40 68L41 68L41 69L43 69L43 68L41 68L41 67L43 67L43 63L42 63L42 62L44 62L44 61L47 61L47 63L46 63L46 64L47 64L47 65L50 65L50 67L49 67L49 66L47 66L47 67L48 67L48 68L47 68L47 69L52 69L52 68L55 68L55 67L56 67L56 69L62 69L62 67L63 67L63 66L64 66L64 69L67 69L67 68L65 68L65 67L66 67L66 66L69 66L69 64L68 64L68 65L65 65L65 63L66 63L66 62L67 62L67 63L68 63L68 61L69 61L69 59L68 59L68 56L67 56L67 59L68 59L68 60L67 60L67 61L66 61L66 59L64 59L64 55L65 55L65 57L66 57L66 55L68 55L68 53L69 53L69 52L68 52L68 50L67 50L67 52L65 52L65 51L66 51L66 49L65 49L65 47L66 47L66 46L67 46L67 49L68 49L68 48L69 48L69 47L68 47L68 46L69 46L69 43L68 43L68 41L66 41L66 39L65 39L65 38L64 38L64 39L63 39L63 40L62 40L62 38L60 38L60 37L65 37L65 35L68 35L68 37L66 37L66 38L67 38L67 40L68 40L68 38L69 38L69 35L68 35L68 33L69 33L69 31L68 31L68 30L69 30L69 29L67 29L67 30L65 30L65 29L66 29L66 27L65 27L65 25L66 25L66 26L67 26L67 27L68 27L68 26L69 26L69 25L67 25L67 24L68 24L68 22L69 22L69 20L68 20L68 18L67 18L67 17L69 17L69 15L68 15L68 14L69 14L69 11L68 11L68 10L67 10L67 9L69 9L69 8L65 8L65 10L64 10L64 8L63 8L63 9L62 9L62 10L64 10L64 11L62 11L62 12L61 12L61 13L60 13L60 12L59 12L59 11L60 11L60 10L61 10L61 9L60 9L60 8L59 8L59 4L58 4L58 5L57 5L57 4L56 4L56 3L59 3L59 2L57 2L57 0L50 0L50 3L52 3L52 4L50 4L50 8L47 8L47 6L48 6L48 7L49 7L49 4L48 4L48 5L47 5L47 6L46 6L46 7L45 7L45 6L44 6L44 5L46 5L46 4L47 4L47 2L46 2L46 3L45 3L45 1L46 1L46 0L45 0L45 1L44 1L44 0L41 0L41 1L40 1L40 0L36 0L36 1L34 1L34 0L32 0L32 1L31 1L31 0L30 0L30 1L29 1L29 0L23 0L23 1L26 1L26 2L27 2L27 1L28 1L28 2L29 2L29 3L30 3L30 2L32 2L32 1L34 1L34 3L33 3L33 4L32 4L32 3L31 3L31 4L30 4L30 5L29 5L29 6L28 6L28 8L27 8L27 5L28 5L28 3L27 3L27 5L25 5L25 4L23 4L23 3L25 3L25 2L22 2L22 1L21 1L21 0L15 0L15 1L14 1L14 0L12 0L12 1L13 1L13 2L16 2L16 3L15 3L15 5L16 5L16 7L17 7L17 5L16 5L16 4L17 4L17 3L19 3L19 4L20 4L20 7L21 7L21 5L25 5L25 6L24 6L24 7L25 7L25 8L24 8L24 9L23 9L23 10L22 10L22 9L20 9L20 8L18 8L18 9L17 9L17 10L16 10L16 9L14 9L14 8L15 8L15 6L14 6L14 5L13 5L13 4L14 4L14 3L11 3L11 2L10 2L10 3L9 3L9 1L10 1L10 0ZM58 0L58 1L61 1L61 0ZM16 1L16 2L17 2L17 1ZM18 1L18 2L19 2L19 3L21 3L21 4L22 4L22 2L20 2L20 1ZM37 1L37 2L35 2L35 4L37 4L37 3L38 3L38 4L40 4L40 6L39 6L39 8L38 8L38 5L37 5L37 8L38 8L38 9L37 9L37 12L36 12L36 13L37 13L37 14L35 14L35 13L33 13L33 14L32 14L32 16L31 16L31 18L32 18L32 20L31 20L31 19L29 19L29 20L28 20L28 22L27 22L27 21L25 21L25 22L26 22L26 23L27 23L27 25L28 25L28 27L29 27L29 28L27 28L27 26L26 26L26 24L25 24L25 23L24 23L24 24L25 24L25 26L24 26L24 25L21 25L21 26L23 26L23 27L24 27L24 28L21 28L21 27L20 27L20 24L21 24L21 23L22 23L22 24L23 24L23 20L27 20L27 19L28 19L28 18L29 18L29 16L30 16L30 15L31 15L31 13L32 13L32 12L34 12L34 9L33 9L33 10L32 10L32 11L31 11L31 10L30 10L30 9L31 9L31 8L32 8L32 6L31 6L31 5L32 5L32 4L31 4L31 5L30 5L30 6L29 6L29 7L30 7L30 6L31 6L31 8L30 8L30 9L27 9L27 10L26 10L26 8L25 8L25 9L24 9L24 10L26 10L26 11L27 11L27 13L25 13L25 15L24 15L24 14L20 14L20 13L21 13L21 12L20 12L20 11L22 11L22 13L24 13L24 11L22 11L22 10L20 10L20 9L18 9L18 10L17 10L17 12L18 12L18 11L19 11L19 12L20 12L20 13L19 13L19 14L20 14L20 15L21 15L21 16L22 16L22 17L23 17L23 16L24 16L24 17L25 17L25 18L24 18L24 19L23 19L23 18L22 18L22 22L21 22L21 23L20 23L20 24L19 24L19 22L20 22L20 20L19 20L19 19L20 19L20 18L21 18L21 17L19 17L19 16L18 16L18 17L17 17L17 16L16 16L16 14L17 14L17 15L18 15L18 14L17 14L17 13L16 13L16 12L15 12L15 11L16 11L16 10L14 10L14 11L13 11L13 12L15 12L15 13L14 13L14 14L15 14L15 17L13 17L13 18L12 18L12 17L11 17L11 15L10 15L10 18L11 18L11 20L10 20L10 19L9 19L9 17L6 17L6 16L7 16L7 15L6 15L6 16L4 16L4 18L1 18L1 20L2 20L2 22L5 22L5 23L6 23L6 24L7 24L7 23L6 23L6 22L8 22L8 23L9 23L9 24L8 24L8 25L6 25L6 26L7 26L7 27L5 27L5 25L4 25L4 26L3 26L3 27L5 27L5 29L4 29L4 28L3 28L3 29L4 29L4 30L3 30L3 31L4 31L4 30L5 30L5 31L6 31L6 32L8 32L8 31L9 31L9 32L11 32L11 33L9 33L9 37L8 37L8 38L10 38L10 39L11 39L11 38L10 38L10 34L11 34L11 35L12 35L12 37L13 37L13 39L14 39L14 40L10 40L10 41L11 41L11 42L10 42L10 43L8 43L8 42L7 42L7 43L8 43L8 44L10 44L10 43L11 43L11 42L12 42L12 41L13 41L13 42L15 42L15 43L14 43L14 44L12 44L12 45L13 45L13 46L15 46L15 48L17 48L17 47L18 47L18 45L17 45L17 44L19 44L19 45L21 45L21 44L22 44L22 46L19 46L19 47L22 47L22 53L21 53L21 54L20 54L20 52L19 52L19 51L20 51L20 50L21 50L21 49L19 49L19 48L18 48L18 49L14 49L14 50L18 50L18 51L17 51L17 52L19 52L19 53L15 53L15 52L14 52L14 51L13 51L13 48L12 48L12 50L11 50L11 49L10 49L10 50L11 50L11 51L12 51L12 52L14 52L14 53L15 53L15 54L18 54L18 56L20 56L20 55L22 55L22 56L24 56L24 55L25 55L25 57L26 57L26 58L24 58L24 57L21 57L21 60L20 60L20 61L18 61L18 63L16 63L16 62L17 62L17 60L19 60L19 59L20 59L20 57L19 57L19 59L18 59L18 58L16 58L16 59L14 59L14 57L17 57L17 56L16 56L16 55L15 55L15 56L14 56L14 57L13 57L13 56L12 56L12 57L11 57L11 58L12 58L12 57L13 57L13 59L14 59L14 60L13 60L13 61L14 61L14 63L16 63L16 64L17 64L17 65L15 65L15 64L14 64L14 67L16 67L16 66L17 66L17 65L18 65L18 64L19 64L19 65L20 65L20 61L21 61L21 60L22 60L22 61L23 61L23 60L22 60L22 58L23 58L23 59L24 59L24 61L25 61L25 62L26 62L26 59L29 59L29 57L30 57L30 56L31 56L31 55L32 55L32 56L33 56L33 55L34 55L34 57L31 57L31 58L30 58L30 60L31 60L31 59L32 59L32 60L33 60L33 58L34 58L34 57L36 57L36 56L37 56L37 58L36 58L36 59L35 59L35 60L37 60L37 59L38 59L38 61L37 61L37 62L38 62L38 65L39 65L39 63L40 63L40 62L41 62L41 60L39 60L39 58L40 58L40 59L41 59L41 58L40 58L40 57L41 57L41 56L42 56L42 57L44 57L44 54L45 54L45 53L46 53L46 54L47 54L47 53L46 53L46 52L51 52L51 51L52 51L52 53L51 53L51 54L52 54L52 55L53 55L53 56L52 56L52 57L51 57L51 56L50 56L50 53L48 53L48 55L47 55L47 56L50 56L50 57L49 57L49 58L48 58L48 59L49 59L49 63L48 63L48 64L50 64L50 65L51 65L51 63L52 63L52 62L53 62L53 63L54 63L54 64L52 64L52 66L51 66L51 67L50 67L50 68L52 68L52 66L53 66L53 67L55 67L55 66L53 66L53 65L56 65L56 66L57 66L57 67L58 67L58 68L61 68L61 67L62 67L62 66L60 66L60 64L58 64L58 63L60 63L60 59L61 59L61 57L60 57L60 54L62 54L62 55L64 55L64 54L66 54L66 53L65 53L65 52L64 52L64 50L65 50L65 49L64 49L64 48L62 48L62 47L64 47L64 46L66 46L66 45L64 45L64 42L66 42L66 41L62 41L62 40L61 40L61 41L62 41L62 42L61 42L61 43L63 43L63 45L64 45L64 46L62 46L62 45L61 45L61 44L58 44L58 43L60 43L60 42L59 42L59 41L60 41L60 40L59 40L59 41L58 41L58 38L59 38L59 37L60 37L60 36L59 36L59 37L58 37L58 38L57 38L57 37L56 37L56 36L58 36L58 35L60 35L60 34L59 34L59 33L60 33L60 32L62 32L62 31L63 31L63 32L66 32L66 33L68 33L68 31L65 31L65 30L64 30L64 31L63 31L63 30L62 30L62 29L61 29L61 30L60 30L60 31L59 31L59 33L58 33L58 35L57 35L57 33L56 33L56 32L55 32L55 30L53 30L53 29L54 29L54 28L53 28L53 27L55 27L55 29L56 29L56 28L57 28L57 29L58 29L58 30L59 30L59 29L60 29L60 28L61 28L61 27L62 27L62 28L63 28L63 29L65 29L65 27L62 27L62 25L63 25L63 24L62 24L62 25L61 25L61 24L59 24L59 23L61 23L61 22L62 22L62 23L63 23L63 22L62 22L62 21L61 21L61 22L59 22L59 20L60 20L60 19L62 19L62 15L64 15L64 14L65 14L65 16L64 16L64 17L63 17L63 20L64 20L64 21L65 21L65 22L66 22L66 20L67 20L67 22L68 22L68 20L67 20L67 19L66 19L66 18L65 18L65 20L64 20L64 17L66 17L66 16L67 16L67 14L68 14L68 13L66 13L66 12L68 12L68 11L67 11L67 10L66 10L66 11L65 11L65 12L64 12L64 14L62 14L62 13L63 13L63 12L62 12L62 13L61 13L61 14L60 14L60 13L59 13L59 12L58 12L58 11L57 11L57 9L56 9L56 11L55 11L55 10L53 10L53 11L52 11L52 14L53 14L53 16L52 16L52 17L51 17L51 18L53 18L53 19L52 19L52 21L51 21L51 22L50 22L50 20L51 20L51 19L50 19L50 16L51 16L51 14L50 14L50 13L51 13L51 12L50 12L50 13L49 13L49 18L48 18L48 19L47 19L47 17L46 17L46 16L45 16L45 17L46 17L46 19L44 19L44 18L41 18L41 17L42 17L42 16L40 16L40 19L39 19L39 18L38 18L38 17L39 17L39 15L42 15L42 13L43 13L43 12L42 12L42 10L41 10L41 14L40 14L40 13L39 13L39 11L40 11L40 9L43 9L43 11L46 11L46 12L45 12L45 13L44 13L44 14L45 14L45 13L46 13L46 15L47 15L47 16L48 16L48 15L47 15L47 13L46 13L46 12L47 12L47 11L46 11L46 10L47 10L47 8L45 8L45 7L44 7L44 6L43 6L43 8L41 8L41 7L42 7L42 6L41 6L41 4L43 4L43 5L44 5L44 4L45 4L45 3L44 3L44 2L42 2L42 1L41 1L41 2L40 2L40 1ZM51 1L51 2L52 2L52 1ZM53 1L53 2L55 2L55 3L56 3L56 1ZM39 2L39 3L40 3L40 4L41 4L41 3L40 3L40 2ZM48 2L48 3L49 3L49 2ZM43 3L43 4L44 4L44 3ZM53 3L53 4L52 4L52 5L53 5L53 4L54 4L54 3ZM60 3L60 5L61 5L61 3ZM10 4L10 5L12 5L12 6L11 6L11 7L12 7L12 8L14 8L14 6L13 6L13 5L12 5L12 4ZM18 5L18 7L19 7L19 5ZM33 5L33 8L36 8L36 5ZM55 5L55 7L54 7L54 6L53 6L53 7L52 7L52 6L51 6L51 8L50 8L50 9L49 9L49 10L50 10L50 11L51 11L51 10L52 10L52 9L53 9L53 7L54 7L54 9L55 9L55 7L56 7L56 6L57 6L57 8L58 8L58 6L57 6L57 5ZM12 6L12 7L13 7L13 6ZM22 6L22 8L23 8L23 6ZM25 6L25 7L26 7L26 6ZM34 6L34 7L35 7L35 6ZM40 6L40 7L41 7L41 6ZM60 6L60 7L61 7L61 6ZM39 8L39 9L38 9L38 11L39 11L39 9L40 9L40 8ZM44 8L44 9L45 9L45 10L46 10L46 9L45 9L45 8ZM51 8L51 9L50 9L50 10L51 10L51 9L52 9L52 8ZM12 9L12 10L11 10L11 11L12 11L12 10L13 10L13 9ZM35 9L35 11L36 11L36 9ZM58 9L58 10L59 10L59 9ZM28 10L28 13L27 13L27 15L28 15L28 16L26 16L26 15L25 15L25 17L26 17L26 18L27 18L27 17L28 17L28 16L29 16L29 15L30 15L30 14L28 14L28 13L31 13L31 12L29 12L29 10ZM6 11L6 12L7 12L7 11ZM8 11L8 12L10 12L10 11ZM56 11L56 13L55 13L55 12L54 12L54 13L53 13L53 14L56 14L56 15L54 15L54 16L53 16L53 17L54 17L54 19L53 19L53 22L52 22L52 24L51 24L51 25L50 25L50 24L49 24L49 23L50 23L50 22L49 22L49 23L48 23L48 22L46 22L46 21L47 21L47 19L46 19L46 20L44 20L44 23L45 23L45 24L44 24L44 25L43 25L43 24L42 24L42 25L41 25L41 26L43 26L43 27L45 27L45 28L44 28L44 30L46 30L46 31L47 31L47 32L46 32L46 33L45 33L45 31L44 31L44 33L40 33L40 31L43 31L43 28L42 28L42 27L40 27L40 24L41 24L41 22L43 22L43 20L41 20L41 21L40 21L40 24L39 24L39 23L37 23L37 25L35 25L35 23L33 23L33 22L31 22L31 23L33 23L33 26L34 26L34 25L35 25L35 27L34 27L34 28L33 28L33 27L31 27L31 26L32 26L32 24L30 24L30 25L29 25L29 27L30 27L30 28L29 28L29 30L30 30L30 29L32 29L32 28L33 28L33 31L34 31L34 30L37 30L37 32L32 32L32 31L31 31L31 32L29 32L29 31L28 31L28 29L27 29L27 28L26 28L26 29L25 29L25 28L24 28L24 29L21 29L21 28L19 28L19 26L18 26L18 25L19 25L19 24L18 24L18 21L19 21L19 20L18 20L18 19L17 19L17 17L15 17L15 18L14 18L14 19L16 19L16 21L15 21L15 20L14 20L14 21L15 21L15 23L16 23L16 24L18 24L18 25L14 25L14 24L12 24L12 23L13 23L13 21L12 21L12 23L11 23L11 22L10 22L10 21L8 21L8 22L10 22L10 23L11 23L11 25L9 25L9 26L8 26L8 27L9 27L9 28L11 28L11 29L9 29L9 30L11 30L11 29L13 29L13 30L12 30L12 32L13 32L13 33L12 33L12 35L13 35L13 33L14 33L14 34L15 34L15 35L14 35L14 36L13 36L13 37L14 37L14 39L15 39L15 41L16 41L16 40L18 40L18 41L17 41L17 42L16 42L16 43L15 43L15 46L16 46L16 44L17 44L17 42L18 42L18 43L19 43L19 44L20 44L20 43L19 43L19 42L18 42L18 41L20 41L20 42L22 42L22 44L23 44L23 43L24 43L24 45L23 45L23 46L22 46L22 47L23 47L23 46L24 46L24 47L25 47L25 49L24 49L24 48L23 48L23 49L24 49L24 51L23 51L23 52L24 52L24 51L25 51L25 49L26 49L26 57L27 57L27 58L28 58L28 56L29 56L29 55L30 55L30 53L33 53L33 54L32 54L32 55L33 55L33 54L34 54L34 53L33 53L33 51L34 51L34 52L35 52L35 51L36 51L36 49L35 49L35 50L34 50L34 46L35 46L35 47L36 47L36 48L37 48L37 49L38 49L38 50L37 50L37 53L38 53L38 52L39 52L39 53L40 53L40 54L39 54L39 55L37 55L37 54L36 54L36 55L35 55L35 56L36 56L36 55L37 55L37 56L38 56L38 58L39 58L39 57L40 57L40 55L41 55L41 53L42 53L42 55L43 55L43 54L44 54L44 53L45 53L45 50L46 50L46 51L51 51L51 50L52 50L52 44L53 44L53 46L54 46L54 47L55 47L55 48L54 48L54 49L53 49L53 50L55 50L55 48L56 48L56 49L57 49L57 50L56 50L56 51L57 51L57 52L56 52L56 53L52 53L52 54L53 54L53 55L55 55L55 56L56 56L56 58L57 58L57 59L58 59L58 60L56 60L56 62L55 62L55 61L53 61L53 62L55 62L55 63L56 63L56 65L57 65L57 63L56 63L56 62L57 62L57 61L58 61L58 60L59 60L59 59L60 59L60 57L59 57L59 58L58 58L58 56L56 56L56 55L58 55L58 52L60 52L60 53L61 53L61 52L62 52L62 54L64 54L64 53L63 53L63 51L61 51L61 50L60 50L60 49L59 49L59 48L61 48L61 49L62 49L62 50L64 50L64 49L62 49L62 48L61 48L61 47L62 47L62 46L61 46L61 45L60 45L60 46L58 46L58 45L57 45L57 44L56 44L56 43L55 43L55 44L54 44L54 42L55 42L55 41L53 41L53 43L52 43L52 40L50 40L50 39L52 39L52 38L53 38L53 39L54 39L54 38L55 38L55 37L54 37L54 36L53 36L53 37L52 37L52 35L51 35L51 33L52 33L52 34L53 34L53 33L52 33L52 32L51 32L51 31L47 31L47 30L48 30L48 29L49 29L49 28L50 28L50 26L52 26L52 27L53 27L53 26L56 26L56 27L57 27L57 28L58 28L58 29L59 29L59 28L58 28L58 27L61 27L61 25L59 25L59 26L58 26L58 25L57 25L57 24L58 24L58 23L57 23L57 22L58 22L58 20L59 20L59 19L60 19L60 18L61 18L61 16L60 16L60 15L59 15L59 14L58 14L58 13L57 13L57 11ZM11 12L11 13L12 13L12 12ZM9 13L9 14L8 14L8 16L9 16L9 14L10 14L10 13ZM15 13L15 14L16 14L16 13ZM38 13L38 14L39 14L39 13ZM56 13L56 14L57 14L57 15L56 15L56 16L55 16L55 17L56 17L56 16L57 16L57 15L58 15L58 14L57 14L57 13ZM12 14L12 16L13 16L13 14ZM34 14L34 15L33 15L33 16L32 16L32 17L34 17L34 18L33 18L33 19L34 19L34 20L37 20L37 21L34 21L34 22L37 22L37 21L38 21L38 20L39 20L39 19L35 19L35 17L36 17L36 18L37 18L37 17L38 17L38 16L36 16L36 15L35 15L35 14ZM22 15L22 16L23 16L23 15ZM43 15L43 17L44 17L44 15ZM2 16L2 17L3 17L3 16ZM34 16L34 17L35 17L35 16ZM58 16L58 18L55 18L55 21L56 21L56 22L53 22L53 23L54 23L54 24L52 24L52 25L56 25L56 24L57 24L57 23L56 23L56 22L57 22L57 21L56 21L56 19L57 19L57 20L58 20L58 18L59 18L59 16ZM5 17L5 18L4 18L4 19L5 19L5 20L3 20L3 19L2 19L2 20L3 20L3 21L5 21L5 22L6 22L6 21L7 21L7 20L8 20L8 19L7 19L7 18L6 18L6 17ZM18 17L18 18L19 18L19 17ZM5 18L5 19L6 19L6 20L5 20L5 21L6 21L6 20L7 20L7 19L6 19L6 18ZM48 19L48 21L49 21L49 19ZM30 20L30 21L29 21L29 22L28 22L28 23L30 23L30 21L31 21L31 20ZM32 20L32 21L33 21L33 20ZM16 22L16 23L17 23L17 22ZM47 23L47 25L46 25L46 26L47 26L47 25L48 25L48 27L49 27L49 26L50 26L50 25L48 25L48 23ZM55 23L55 24L56 24L56 23ZM65 23L65 24L64 24L64 25L65 25L65 24L67 24L67 23ZM11 25L11 26L12 26L12 25ZM13 25L13 27L12 27L12 28L14 28L14 25ZM37 25L37 26L36 26L36 27L35 27L35 28L34 28L34 29L36 29L36 28L37 28L37 29L40 29L40 30L42 30L42 28L40 28L40 27L38 27L38 25ZM9 26L9 27L10 27L10 26ZM16 26L16 27L15 27L15 29L16 29L16 30L18 30L18 31L17 31L17 33L15 33L15 34L17 34L17 35L18 35L18 36L19 36L19 38L17 38L17 37L16 37L16 36L14 36L14 37L16 37L16 39L18 39L18 40L20 40L20 39L21 39L21 41L22 41L22 42L23 42L23 41L24 41L24 42L25 42L25 41L26 41L26 40L27 40L27 39L28 39L28 38L29 38L29 39L30 39L30 37L29 37L29 36L32 36L32 35L31 35L31 34L30 34L30 35L29 35L29 34L28 34L28 35L27 35L27 34L24 34L24 36L25 36L25 38L24 38L24 39L23 39L23 40L22 40L22 39L21 39L21 38L20 38L20 36L22 36L22 37L23 37L23 36L22 36L22 35L23 35L23 32L24 32L24 33L29 33L29 32L28 32L28 31L27 31L27 32L26 32L26 31L25 31L25 30L22 30L22 35L21 35L21 34L20 34L20 35L19 35L19 34L17 34L17 33L18 33L18 32L19 32L19 33L20 33L20 32L21 32L21 31L20 31L20 29L16 29L16 28L17 28L17 26ZM57 26L57 27L58 27L58 26ZM37 27L37 28L38 28L38 27ZM6 28L6 29L7 29L7 28ZM45 28L45 29L46 29L46 30L47 30L47 29L46 29L46 28ZM1 29L1 31L2 31L2 29ZM50 29L50 30L51 30L51 29ZM6 30L6 31L8 31L8 30ZM13 30L13 32L14 32L14 31L15 31L15 32L16 32L16 31L15 31L15 30ZM56 30L56 31L57 31L57 32L58 32L58 31L57 31L57 30ZM61 30L61 31L62 31L62 30ZM24 31L24 32L25 32L25 31ZM53 31L53 32L54 32L54 35L55 35L55 36L56 36L56 35L55 35L55 34L56 34L56 33L55 33L55 32L54 32L54 31ZM1 32L1 33L2 33L2 32ZM3 32L3 33L4 33L4 32ZM31 32L31 33L32 33L32 32ZM38 32L38 33L37 33L37 34L38 34L38 35L37 35L37 37L36 37L36 38L35 38L35 37L31 37L31 39L32 39L32 40L33 40L33 39L32 39L32 38L35 38L35 39L34 39L34 41L32 41L32 42L31 42L31 43L30 43L30 44L31 44L31 45L33 45L33 44L34 44L34 45L36 45L36 47L37 47L37 45L38 45L38 44L39 44L39 43L41 43L41 44L43 44L43 43L44 43L44 40L45 40L45 39L43 39L43 38L45 38L45 37L46 37L46 42L45 42L45 43L46 43L46 44L45 44L45 45L46 45L46 47L47 47L47 48L45 48L45 47L44 47L44 45L43 45L43 47L44 47L44 48L43 48L43 49L44 49L44 50L45 50L45 49L46 49L46 50L50 50L50 49L51 49L51 47L50 47L50 48L49 48L49 49L47 49L47 48L48 48L48 47L47 47L47 44L48 44L48 43L47 43L47 42L48 42L48 41L47 41L47 38L48 38L48 39L49 39L49 37L51 37L51 38L52 38L52 37L51 37L51 35L50 35L50 33L51 33L51 32L50 32L50 33L46 33L46 34L45 34L45 33L44 33L44 34L43 34L43 35L41 35L41 34L38 34L38 33L39 33L39 32ZM5 33L5 36L8 36L8 33ZM33 33L33 36L36 36L36 33ZM61 33L61 36L64 36L64 33ZM6 34L6 35L7 35L7 34ZM34 34L34 35L35 35L35 34ZM44 34L44 37L45 37L45 34ZM46 34L46 37L47 37L47 35L48 35L48 37L49 37L49 35L48 35L48 34ZM62 34L62 35L63 35L63 34ZM40 35L40 36L38 36L38 37L37 37L37 40L36 40L36 42L35 42L35 41L34 41L34 42L33 42L33 43L31 43L31 44L33 44L33 43L37 43L37 41L38 41L38 42L43 42L43 39L41 39L41 41L40 41L40 39L38 39L38 38L40 38L40 36L41 36L41 35ZM26 36L26 37L27 37L27 38L26 38L26 39L27 39L27 38L28 38L28 37L27 37L27 36ZM42 36L42 37L41 37L41 38L43 38L43 36ZM19 38L19 39L20 39L20 38ZM56 38L56 39L57 39L57 38ZM24 39L24 41L25 41L25 39ZM64 39L64 40L65 40L65 39ZM30 40L30 41L27 41L27 43L26 43L26 44L27 44L27 45L25 45L25 47L26 47L26 48L28 48L28 49L27 49L27 51L28 51L28 50L29 50L29 53L27 53L27 56L28 56L28 54L29 54L29 53L30 53L30 52L32 52L32 49L33 49L33 47L32 47L32 46L31 46L31 47L30 47L30 48L32 48L32 49L31 49L31 51L30 51L30 49L29 49L29 48L28 48L28 47L27 47L27 45L28 45L28 46L29 46L29 43L28 43L28 42L30 42L30 41L31 41L31 40ZM49 40L49 42L50 42L50 43L49 43L49 45L50 45L50 43L51 43L51 42L50 42L50 40ZM56 40L56 41L57 41L57 43L58 43L58 41L57 41L57 40ZM2 43L2 45L4 45L4 44L3 44L3 43ZM27 43L27 44L28 44L28 43ZM65 43L65 44L68 44L68 43ZM55 44L55 46L56 46L56 44ZM39 45L39 47L38 47L38 48L39 48L39 47L41 47L41 48L40 48L40 53L41 53L41 49L42 49L42 45L41 45L41 46L40 46L40 45ZM67 45L67 46L68 46L68 45ZM8 46L8 47L9 47L9 46ZM57 46L57 47L56 47L56 48L57 48L57 47L58 47L58 48L59 48L59 47L58 47L58 46ZM60 46L60 47L61 47L61 46ZM44 48L44 49L45 49L45 48ZM0 49L0 51L1 51L1 49ZM4 49L4 50L3 50L3 51L5 51L5 49ZM18 49L18 50L19 50L19 49ZM58 49L58 51L60 51L60 50L59 50L59 49ZM38 50L38 51L39 51L39 50ZM42 50L42 52L43 52L43 53L44 53L44 51L43 51L43 50ZM9 51L9 52L10 52L10 51ZM54 51L54 52L55 52L55 51ZM1 53L1 54L2 54L2 55L3 55L3 53ZM23 53L23 54L25 54L25 53ZM4 54L4 56L5 56L5 58L7 58L7 57L6 57L6 56L7 56L7 55L6 55L6 56L5 56L5 54ZM19 54L19 55L20 55L20 54ZM46 57L46 58L47 58L47 57ZM50 57L50 59L51 59L51 57ZM54 57L54 59L53 59L53 58L52 58L52 59L53 59L53 60L55 60L55 57ZM42 58L42 61L44 61L44 60L45 60L45 58ZM62 58L62 60L63 60L63 58ZM43 59L43 60L44 60L44 59ZM46 59L46 60L47 60L47 59ZM3 60L3 61L5 61L5 60ZM6 60L6 61L8 61L8 62L9 62L9 61L8 61L8 60ZM10 60L10 61L11 61L11 60ZM27 60L27 61L28 61L28 63L30 63L30 62L31 62L31 63L32 63L32 62L31 62L31 61L29 61L29 60ZM50 60L50 62L52 62L52 60ZM15 61L15 62L16 62L16 61ZM33 61L33 64L36 64L36 61ZM38 61L38 62L39 62L39 61ZM61 61L61 64L64 64L64 61ZM34 62L34 63L35 63L35 62ZM62 62L62 63L63 63L63 62ZM21 63L21 64L22 64L22 63ZM44 63L44 69L46 69L46 67L45 67L45 63ZM31 64L31 65L30 65L30 67L31 67L31 65L32 65L32 66L33 66L33 65L32 65L32 64ZM34 65L34 66L36 66L36 65ZM64 65L64 66L65 66L65 65ZM36 68L36 69L37 69L37 68ZM68 68L68 69L69 69L69 68ZM0 0L0 7L7 7L7 0ZM1 1L1 6L6 6L6 1ZM2 2L2 5L5 5L5 2ZM62 0L62 7L69 7L69 0ZM63 1L63 6L68 6L68 1ZM64 2L64 5L67 5L67 2ZM0 62L0 69L7 69L7 62ZM1 63L1 68L6 68L6 63ZM2 64L2 67L5 67L5 64Z" fill="#000000"/></g></g></svg>
