<?xml version="1.0" encoding="UTF-8"?>
<svg xmlns="http://www.w3.org/2000/svg" version="1.1" width="300" height="300" viewBox="0 0 300 300"><rect x="0" y="0" width="300" height="300" fill="#ffffff"/><g transform="scale(4.348)"><g transform="translate(0,0)"><path fill-rule="evenodd" d="M9 0L9 1L8 1L8 2L9 2L9 1L11 1L11 3L13 3L13 4L12 4L12 7L11 7L11 6L10 6L10 5L11 5L11 4L10 4L10 3L8 3L8 4L9 4L9 5L8 5L8 7L9 7L9 8L6 8L6 9L5 9L5 8L0 8L0 9L2 9L2 10L3 10L3 9L4 9L4 10L6 10L6 11L3 11L3 12L2 12L2 11L1 11L1 10L0 10L0 13L1 13L1 12L2 12L2 13L3 13L3 14L1 14L1 15L0 15L0 16L1 16L1 17L0 17L0 18L2 18L2 19L0 19L0 25L1 25L1 26L0 26L0 28L2 28L2 29L0 29L0 33L1 33L1 30L2 30L2 31L3 31L3 33L4 33L4 35L3 35L3 34L2 34L2 35L0 35L0 36L1 36L1 37L0 37L0 39L2 39L2 41L3 41L3 39L2 39L2 38L3 38L3 37L2 37L2 36L4 36L4 38L5 38L5 37L10 37L10 42L9 42L9 38L6 38L6 39L4 39L4 42L3 42L3 43L2 43L2 42L1 42L1 41L0 41L0 42L1 42L1 44L0 44L0 46L2 46L2 47L1 47L1 48L0 48L0 50L2 50L2 47L3 47L3 49L4 49L4 50L3 50L3 52L4 52L4 53L7 53L7 54L5 54L5 55L7 55L7 56L6 56L6 57L5 57L5 58L4 58L4 57L3 57L3 56L4 56L4 54L3 54L3 53L1 53L1 52L2 52L2 51L1 51L1 52L0 52L0 54L1 54L1 55L0 55L0 56L1 56L1 57L0 57L0 61L1 61L1 57L2 57L2 59L3 59L3 58L4 58L4 59L8 59L8 60L6 60L6 61L8 61L8 63L9 63L9 64L8 64L8 69L13 69L13 68L10 68L10 65L12 65L12 66L11 66L11 67L12 67L12 66L13 66L13 67L14 67L14 68L15 68L15 67L14 67L14 66L15 66L15 63L16 63L16 64L18 64L18 65L17 65L17 66L19 66L19 67L17 67L17 68L16 68L16 69L22 69L22 68L23 68L23 67L24 67L24 66L25 66L25 67L26 67L26 66L25 66L25 65L28 65L28 66L27 66L27 67L28 67L28 68L27 68L27 69L28 69L28 68L29 68L29 69L32 69L32 67L34 67L34 66L33 66L33 65L37 65L37 66L36 66L36 67L35 67L35 68L34 68L34 69L35 69L35 68L36 68L36 69L38 69L38 68L37 68L37 67L39 67L39 66L38 66L38 63L39 63L39 64L41 64L41 66L40 66L40 67L41 67L41 66L44 66L44 68L43 68L43 67L42 67L42 68L41 68L41 69L42 69L42 68L43 68L43 69L44 69L44 68L47 68L47 69L50 69L50 68L49 68L49 66L50 66L50 67L51 67L51 68L52 68L52 66L50 66L50 65L49 65L49 64L50 64L50 63L49 63L49 64L48 64L48 63L47 63L47 64L48 64L48 67L47 67L47 66L46 66L46 64L45 64L45 63L46 63L46 62L44 62L44 60L47 60L47 62L50 62L50 61L49 61L49 60L47 60L47 59L50 59L50 60L51 60L51 58L49 58L49 55L50 55L50 57L51 57L51 54L52 54L52 55L54 55L54 57L53 57L53 61L51 61L51 62L52 62L52 63L51 63L51 64L52 64L52 63L53 63L53 67L54 67L54 68L55 68L55 69L56 69L56 66L58 66L58 67L60 67L60 69L62 69L62 66L63 66L63 65L64 65L64 66L66 66L66 67L64 67L64 68L65 68L65 69L68 69L68 68L67 68L67 65L69 65L69 64L68 64L68 62L69 62L69 60L67 60L67 59L68 59L68 57L69 57L69 56L68 56L68 54L69 54L69 53L67 53L67 55L59 55L59 56L60 56L60 57L59 57L59 58L60 58L60 57L62 57L62 56L68 56L68 57L67 57L67 58L66 58L66 57L65 57L65 60L60 60L60 62L57 62L57 61L59 61L59 60L58 60L58 59L57 59L57 61L56 61L56 60L55 60L55 58L57 58L57 57L58 57L58 55L57 55L57 57L56 57L56 54L57 54L57 53L56 53L56 52L55 52L55 51L57 51L57 52L58 52L58 51L59 51L59 52L60 52L60 49L61 49L61 50L63 50L63 51L61 51L61 54L63 54L63 53L64 53L64 52L63 52L63 51L65 51L65 50L63 50L63 49L65 49L65 48L67 48L67 51L66 51L66 52L65 52L65 54L66 54L66 52L68 52L68 50L69 50L69 48L68 48L68 46L69 46L69 45L67 45L67 43L68 43L68 44L69 44L69 43L68 43L68 42L69 42L69 41L68 41L68 40L69 40L69 39L68 39L68 38L66 38L66 37L68 37L68 36L69 36L69 35L68 35L68 34L69 34L69 33L68 33L68 34L67 34L67 33L66 33L66 32L67 32L67 31L68 31L68 30L67 30L67 31L65 31L65 30L64 30L64 32L63 32L63 30L62 30L62 29L61 29L61 28L62 28L62 27L64 27L64 28L65 28L65 29L66 29L66 28L67 28L67 29L69 29L69 28L68 28L68 26L69 26L69 23L68 23L68 24L67 24L67 22L69 22L69 21L68 21L68 18L69 18L69 16L68 16L68 17L67 17L67 15L68 15L68 13L67 13L67 11L68 11L68 10L67 10L67 9L68 9L68 8L67 8L67 9L66 9L66 8L65 8L65 9L66 9L66 10L67 10L67 11L64 11L64 12L63 12L63 10L62 10L62 8L61 8L61 9L60 9L60 7L61 7L61 6L60 6L60 7L59 7L59 4L58 4L58 5L57 5L57 4L56 4L56 3L54 3L54 2L55 2L55 0L53 0L53 1L52 1L52 0L51 0L51 1L52 1L52 2L53 2L53 4L51 4L51 5L50 5L50 4L49 4L49 3L48 3L48 2L50 2L50 3L51 3L51 2L50 2L50 0L49 0L49 1L48 1L48 0L47 0L47 1L48 1L48 2L47 2L47 5L48 5L48 7L47 7L47 6L46 6L46 5L44 5L44 3L45 3L45 4L46 4L46 3L45 3L45 2L46 2L46 1L45 1L45 0L44 0L44 1L45 1L45 2L44 2L44 3L43 3L43 0L41 0L41 1L38 1L38 0L33 0L33 2L34 2L34 1L35 1L35 2L41 2L41 3L42 3L42 4L40 4L40 5L39 5L39 6L38 6L38 5L37 5L37 4L38 4L38 3L35 3L35 4L33 4L33 3L32 3L32 4L31 4L31 3L29 3L29 1L30 1L30 0L28 0L28 1L25 1L25 0L23 0L23 1L22 1L22 0L21 0L21 2L22 2L22 3L23 3L23 2L24 2L24 3L25 3L25 4L22 4L22 5L20 5L20 4L21 4L21 3L20 3L20 4L19 4L19 3L17 3L17 2L15 2L15 0L14 0L14 1L11 1L11 0ZM17 0L17 1L19 1L19 2L20 2L20 1L19 1L19 0ZM31 0L31 2L32 2L32 0ZM56 0L56 1L57 1L57 3L59 3L59 2L58 2L58 1L61 1L61 0ZM24 1L24 2L25 2L25 3L26 3L26 5L25 5L25 7L26 7L26 6L27 6L27 8L26 8L26 10L25 10L25 9L24 9L24 8L23 8L23 7L24 7L24 5L22 5L22 6L21 6L21 7L20 7L20 5L19 5L19 7L18 7L18 6L17 6L17 7L16 7L16 6L15 6L15 5L16 5L16 4L17 4L17 3L15 3L15 2L13 2L13 3L14 3L14 4L13 4L13 7L12 7L12 9L11 9L11 8L9 8L9 12L8 12L8 13L6 13L6 14L3 14L3 15L4 15L4 16L5 16L5 17L6 17L6 18L4 18L4 19L2 19L2 20L3 20L3 21L1 21L1 22L3 22L3 23L6 23L6 24L8 24L8 25L9 25L9 23L10 23L10 24L11 24L11 26L12 26L12 25L13 25L13 24L14 24L14 23L15 23L15 22L16 22L16 25L14 25L14 26L13 26L13 27L12 27L12 28L13 28L13 29L14 29L14 27L15 27L15 28L16 28L16 29L15 29L15 30L16 30L16 31L12 31L12 29L9 29L9 28L10 28L10 26L7 26L7 25L6 25L6 26L7 26L7 27L6 27L6 28L5 28L5 27L4 27L4 26L5 26L5 25L4 25L4 24L2 24L2 23L1 23L1 24L2 24L2 27L3 27L3 29L2 29L2 30L3 30L3 31L4 31L4 32L7 32L7 31L8 31L8 30L10 30L10 31L11 31L11 32L10 32L10 33L11 33L11 34L9 34L9 36L10 36L10 37L11 37L11 39L12 39L12 40L13 40L13 41L12 41L12 42L10 42L10 45L9 45L9 44L8 44L8 48L10 48L10 49L5 49L5 50L4 50L4 52L5 52L5 51L6 51L6 52L7 52L7 53L8 53L8 52L9 52L9 54L7 54L7 55L8 55L8 56L9 56L9 57L8 57L8 59L9 59L9 57L10 57L10 56L11 56L11 58L10 58L10 59L11 59L11 58L12 58L12 60L11 60L11 62L13 62L13 66L14 66L14 62L16 62L16 63L18 63L18 62L19 62L19 63L20 63L20 65L19 65L19 66L20 66L20 67L19 67L19 68L22 68L22 67L23 67L23 65L24 65L24 63L23 63L23 64L21 64L21 63L20 63L20 62L24 62L24 61L25 61L25 60L24 60L24 59L23 59L23 60L22 60L22 58L24 58L24 57L22 57L22 56L21 56L21 55L22 55L22 54L21 54L21 53L25 53L25 54L26 54L26 55L24 55L24 54L23 54L23 56L26 56L26 57L25 57L25 58L26 58L26 59L27 59L27 58L29 58L29 59L30 59L30 60L31 60L31 59L32 59L32 60L33 60L33 58L34 58L34 60L35 60L35 58L36 58L36 57L35 57L35 55L37 55L37 58L39 58L39 57L41 57L41 56L39 56L39 57L38 57L38 55L42 55L42 54L41 54L41 53L42 53L42 52L44 52L44 53L43 53L43 56L42 56L42 57L43 57L43 60L42 60L42 58L41 58L41 59L40 59L40 62L39 62L39 61L38 61L38 60L39 60L39 59L37 59L37 61L38 61L38 62L37 62L37 63L38 63L38 62L39 62L39 63L41 63L41 64L44 64L44 66L45 66L45 67L46 67L46 66L45 66L45 64L44 64L44 62L43 62L43 63L42 63L42 62L41 62L41 60L42 60L42 61L43 61L43 60L44 60L44 59L45 59L45 58L46 58L46 59L47 59L47 58L48 58L48 57L46 57L46 56L48 56L48 55L47 55L47 54L51 54L51 53L53 53L53 54L54 54L54 55L55 55L55 54L56 54L56 53L55 53L55 54L54 54L54 53L53 53L53 52L54 52L54 50L53 50L53 51L47 51L47 47L48 47L48 48L49 48L49 50L52 50L52 49L53 49L53 48L54 48L54 49L56 49L56 50L59 50L59 49L60 49L60 48L61 48L61 49L62 49L62 48L63 48L63 46L65 46L65 47L66 47L66 44L65 44L65 42L66 42L66 43L67 43L67 42L68 42L68 41L67 41L67 40L65 40L65 41L64 41L64 40L61 40L61 39L59 39L59 41L58 41L58 42L57 42L57 40L56 40L56 39L54 39L54 40L52 40L52 39L53 39L53 38L52 38L52 37L55 37L55 38L56 38L56 37L57 37L57 38L60 38L60 35L58 35L58 34L60 34L60 32L59 32L59 33L58 33L58 32L57 32L57 31L58 31L58 30L59 30L59 31L60 31L60 30L59 30L59 29L58 29L58 30L56 30L56 31L51 31L51 32L50 32L50 30L51 30L51 29L54 29L54 28L53 28L53 27L55 27L55 28L56 28L56 29L57 29L57 28L58 28L58 27L59 27L59 28L60 28L60 27L61 27L61 26L63 26L63 25L66 25L66 26L67 26L67 25L66 25L66 24L65 24L65 22L64 22L64 21L65 21L65 19L67 19L67 18L63 18L63 17L66 17L66 16L65 16L65 14L67 14L67 13L66 13L66 12L64 12L64 13L62 13L62 12L61 12L61 11L60 11L60 9L57 9L57 8L56 8L56 9L55 9L55 10L59 10L59 12L58 12L58 11L57 11L57 12L56 12L56 11L55 11L55 12L56 12L56 13L55 13L55 14L54 14L54 13L53 13L53 12L52 12L52 10L53 10L53 8L54 8L54 5L53 5L53 8L52 8L52 6L51 6L51 7L50 7L50 5L49 5L49 4L48 4L48 5L49 5L49 9L50 9L50 11L49 11L49 10L47 10L47 7L46 7L46 6L45 6L45 7L44 7L44 5L43 5L43 7L42 7L42 6L41 6L41 5L40 5L40 6L39 6L39 7L40 7L40 6L41 6L41 8L39 8L39 9L38 9L38 6L37 6L37 9L38 9L38 11L37 11L37 10L36 10L36 9L35 9L35 10L32 10L32 8L31 8L31 7L32 7L32 5L30 5L30 6L29 6L29 4L27 4L27 3L28 3L28 2L27 2L27 3L26 3L26 2L25 2L25 1ZM41 1L41 2L42 2L42 1ZM60 3L60 5L61 5L61 3ZM14 4L14 5L15 5L15 4ZM27 5L27 6L28 6L28 7L29 7L29 6L28 6L28 5ZM33 5L33 8L36 8L36 5ZM56 5L56 6L55 6L55 7L56 7L56 6L57 6L57 7L58 7L58 8L59 8L59 7L58 7L58 6L57 6L57 5ZM9 6L9 7L10 7L10 6ZM14 6L14 7L13 7L13 9L12 9L12 10L11 10L11 9L10 9L10 12L11 12L11 14L14 14L14 13L12 13L12 10L13 10L13 9L14 9L14 7L15 7L15 6ZM22 6L22 7L23 7L23 6ZM30 6L30 7L31 7L31 6ZM34 6L34 7L35 7L35 6ZM17 7L17 8L16 8L16 9L15 9L15 10L17 10L17 9L18 9L18 10L19 10L19 11L18 11L18 12L17 12L17 13L18 13L18 14L17 14L17 15L18 15L18 14L20 14L20 13L21 13L21 12L24 12L24 11L23 11L23 10L24 10L24 9L23 9L23 10L22 10L22 11L21 11L21 10L20 10L20 7L19 7L19 8L18 8L18 7ZM45 7L45 9L44 9L44 8L43 8L43 9L39 9L39 11L38 11L38 13L36 13L36 12L34 12L34 11L33 11L33 12L34 12L34 13L33 13L33 14L32 14L32 15L29 15L29 14L30 14L30 13L32 13L32 12L31 12L31 11L32 11L32 10L31 10L31 9L30 9L30 8L29 8L29 9L30 9L30 11L29 11L29 10L26 10L26 11L25 11L25 12L27 12L27 13L23 13L23 14L22 14L22 16L23 16L23 17L24 17L24 18L25 18L25 19L23 19L23 18L22 18L22 17L18 17L18 16L17 16L17 17L18 17L18 18L20 18L20 19L19 19L19 20L17 20L17 21L18 21L18 22L17 22L17 23L19 23L19 22L20 22L20 24L17 24L17 25L16 25L16 26L15 26L15 27L16 27L16 28L17 28L17 29L19 29L19 30L18 30L18 31L17 31L17 32L18 32L18 33L17 33L17 34L19 34L19 35L18 35L18 36L17 36L17 37L19 37L19 38L17 38L17 42L18 42L18 41L19 41L19 43L20 43L20 44L21 44L21 43L22 43L22 44L24 44L24 45L23 45L23 46L24 46L24 49L23 49L23 50L21 50L21 49L18 49L18 48L17 48L17 47L18 47L18 46L20 46L20 47L19 47L19 48L20 48L20 47L21 47L21 48L23 48L23 47L21 47L21 46L22 46L22 45L21 45L21 46L20 46L20 45L19 45L19 44L17 44L17 45L18 45L18 46L14 46L14 44L15 44L15 45L16 45L16 43L13 43L13 42L12 42L12 43L13 43L13 45L12 45L12 44L11 44L11 45L12 45L12 46L9 46L9 47L10 47L10 48L11 48L11 49L13 49L13 50L14 50L14 48L15 48L15 49L18 49L18 51L17 51L17 52L16 52L16 53L15 53L15 54L11 54L11 53L10 53L10 54L9 54L9 56L10 56L10 54L11 54L11 56L12 56L12 57L14 57L14 58L13 58L13 59L14 59L14 60L15 60L15 61L16 61L16 60L17 60L17 61L19 61L19 62L20 62L20 61L19 61L19 60L20 60L20 59L21 59L21 58L22 58L22 57L21 57L21 56L20 56L20 57L19 57L19 56L17 56L17 57L16 57L16 56L15 56L15 57L14 57L14 56L12 56L12 55L16 55L16 53L19 53L19 54L18 54L18 55L20 55L20 52L24 52L24 51L23 51L23 50L26 50L26 51L27 51L27 53L26 53L26 52L25 52L25 53L26 53L26 54L27 54L27 55L28 55L28 56L27 56L27 57L26 57L26 58L27 58L27 57L28 57L28 56L30 56L30 57L29 57L29 58L30 58L30 59L31 59L31 58L33 58L33 56L31 56L31 51L30 51L30 50L32 50L32 55L33 55L33 53L34 53L34 52L33 52L33 51L34 51L34 50L32 50L32 49L33 49L33 48L36 48L36 47L37 47L37 48L38 48L38 47L39 47L39 48L40 48L40 47L41 47L41 48L42 48L42 49L41 49L41 50L39 50L39 51L38 51L38 49L37 49L37 50L36 50L36 49L35 49L35 50L36 50L36 51L35 51L35 53L37 53L37 54L40 54L40 53L39 53L39 52L40 52L40 51L41 51L41 50L42 50L42 51L44 51L44 52L45 52L45 53L44 53L44 56L43 56L43 57L44 57L44 56L46 56L46 54L45 54L45 53L49 53L49 52L47 52L47 51L46 51L46 52L45 52L45 49L46 49L46 47L47 47L47 46L49 46L49 48L50 48L50 47L52 47L52 48L51 48L51 49L52 49L52 48L53 48L53 47L52 47L52 45L51 45L51 44L50 44L50 41L49 41L49 39L50 39L50 40L51 40L51 38L48 38L48 37L50 37L50 36L52 36L52 33L51 33L51 34L50 34L50 33L49 33L49 32L46 32L46 31L44 31L44 30L45 30L45 29L43 29L43 28L45 28L45 27L46 27L46 29L47 29L47 31L49 31L49 30L50 30L50 29L49 29L49 28L50 28L50 27L51 27L51 28L52 28L52 26L50 26L50 24L48 24L48 23L47 23L47 24L46 24L46 22L44 22L44 20L43 20L43 17L44 17L44 16L45 16L45 17L47 17L47 16L48 16L48 18L47 18L47 20L46 20L46 21L47 21L47 22L48 22L48 21L49 21L49 23L50 23L50 20L53 20L53 21L51 21L51 22L52 22L52 23L51 23L51 24L52 24L52 23L54 23L54 24L53 24L53 26L55 26L55 25L56 25L56 27L58 27L58 26L57 26L57 25L58 25L58 24L59 24L59 25L60 25L60 26L61 26L61 25L60 25L60 23L61 23L61 22L62 22L62 24L64 24L64 22L62 22L62 21L63 21L63 20L64 20L64 19L63 19L63 18L62 18L62 16L64 16L64 15L62 15L62 13L59 13L59 14L61 14L61 15L59 15L59 16L61 16L61 17L59 17L59 18L60 18L60 19L59 19L59 20L60 20L60 19L61 19L61 18L62 18L62 19L63 19L63 20L62 20L62 21L59 21L59 23L58 23L58 22L57 22L57 23L56 23L56 20L54 20L54 19L55 19L55 18L56 18L56 19L58 19L58 18L57 18L57 17L56 17L56 16L57 16L57 15L58 15L58 14L57 14L57 13L58 13L58 12L57 12L57 13L56 13L56 16L55 16L55 15L54 15L54 14L53 14L53 15L51 15L51 16L54 16L54 17L51 17L51 18L53 18L53 19L50 19L50 20L48 20L48 19L49 19L49 18L50 18L50 13L51 13L51 11L50 11L50 13L49 13L49 12L46 12L46 13L47 13L47 14L49 14L49 16L48 16L48 15L47 15L47 16L46 16L46 14L44 14L44 12L43 12L43 13L42 13L42 14L41 14L41 12L42 12L42 10L45 10L45 9L46 9L46 7ZM21 8L21 9L22 9L22 8ZM27 8L27 9L28 9L28 8ZM50 8L50 9L51 9L51 10L52 10L52 8ZM63 8L63 9L64 9L64 8ZM6 9L6 10L7 10L7 9ZM35 10L35 11L36 11L36 10ZM40 10L40 12L39 12L39 13L38 13L38 14L37 14L37 15L35 15L35 13L34 13L34 14L33 14L33 15L32 15L32 16L31 16L31 18L32 18L32 20L31 20L31 21L30 21L30 22L29 22L29 19L30 19L30 18L29 18L29 15L28 15L28 16L27 16L27 14L29 14L29 13L30 13L30 12L28 12L28 13L27 13L27 14L23 14L23 16L24 16L24 17L26 17L26 19L28 19L28 20L26 20L26 21L27 21L27 22L26 22L26 23L25 23L25 22L24 22L24 24L26 24L26 29L25 29L25 28L24 28L24 27L23 27L23 28L20 28L20 26L21 26L21 25L22 25L22 26L24 26L24 25L22 25L22 24L21 24L21 25L19 25L19 26L18 26L18 25L17 25L17 26L18 26L18 27L17 27L17 28L19 28L19 29L20 29L20 31L19 31L19 32L20 32L20 33L19 33L19 34L20 34L20 35L19 35L19 37L20 37L20 39L19 39L19 41L20 41L20 42L22 42L22 43L24 43L24 44L25 44L25 42L26 42L26 41L28 41L28 43L27 43L27 44L26 44L26 45L25 45L25 47L26 47L26 48L25 48L25 49L26 49L26 50L27 50L27 51L28 51L28 52L29 52L29 50L30 50L30 49L29 49L29 47L27 47L27 46L29 46L29 45L27 45L27 44L28 44L28 43L29 43L29 44L30 44L30 43L29 43L29 42L30 42L30 41L34 41L34 42L36 42L36 43L37 43L37 41L38 41L38 44L35 44L35 43L34 43L34 44L33 44L33 42L31 42L31 43L32 43L32 44L33 44L33 45L31 45L31 47L30 47L30 48L31 48L31 49L32 49L32 48L33 48L33 47L32 47L32 46L34 46L34 45L35 45L35 47L36 47L36 46L39 46L39 47L40 47L40 46L39 46L39 45L40 45L40 44L41 44L41 43L40 43L40 41L41 41L41 40L44 40L44 42L43 42L43 44L44 44L44 45L43 45L43 46L42 46L42 45L41 45L41 46L42 46L42 48L43 48L43 46L44 46L44 49L43 49L43 50L44 50L44 49L45 49L45 47L46 47L46 46L47 46L47 45L46 45L46 44L47 44L47 43L46 43L46 42L47 42L47 40L48 40L48 38L47 38L47 37L45 37L45 36L50 36L50 34L49 34L49 33L45 33L45 32L44 32L44 31L43 31L43 30L42 30L42 27L39 27L39 26L41 26L41 25L42 25L42 24L41 24L41 21L43 21L43 20L42 20L42 19L39 19L39 18L41 18L41 17L42 17L42 16L44 16L44 14L42 14L42 15L40 15L40 14L39 14L39 13L40 13L40 12L41 12L41 10ZM6 11L6 12L7 12L7 11ZM13 11L13 12L14 12L14 11ZM15 11L15 12L16 12L16 11ZM19 11L19 12L21 12L21 11ZM8 13L8 14L6 14L6 15L5 15L5 16L6 16L6 17L7 17L7 16L8 16L8 19L7 19L7 18L6 18L6 19L5 19L5 22L6 22L6 23L9 23L9 22L10 22L10 23L11 23L11 24L12 24L12 23L13 23L13 20L15 20L15 19L16 19L16 18L15 18L15 16L16 16L16 14L15 14L15 15L14 15L14 16L11 16L11 15L10 15L10 13ZM64 13L64 14L65 14L65 13ZM38 14L38 16L40 16L40 15L39 15L39 14ZM6 15L6 16L7 16L7 15ZM8 15L8 16L9 16L9 18L10 18L10 19L8 19L8 20L7 20L7 19L6 19L6 20L7 20L7 21L6 21L6 22L8 22L8 21L10 21L10 19L11 19L11 16L10 16L10 15ZM19 15L19 16L21 16L21 15ZM25 15L25 16L26 16L26 15ZM33 15L33 16L32 16L32 18L33 18L33 19L34 19L34 18L35 18L35 23L37 23L37 22L39 22L39 23L40 23L40 21L39 21L39 19L37 19L37 18L38 18L38 17L37 17L37 18L36 18L36 17L33 17L33 16L34 16L34 15ZM61 15L61 16L62 16L62 15ZM2 17L2 18L3 18L3 17ZM12 17L12 19L13 19L13 17ZM27 17L27 18L28 18L28 17ZM14 18L14 19L15 19L15 18ZM44 18L44 19L45 19L45 18ZM22 19L22 20L20 20L20 22L21 22L21 23L22 23L22 22L23 22L23 19ZM37 20L37 21L38 21L38 20ZM57 20L57 21L58 21L58 20ZM14 21L14 22L15 22L15 21ZM21 21L21 22L22 22L22 21ZM11 22L11 23L12 23L12 22ZM30 22L30 23L28 23L28 24L30 24L30 25L29 25L29 26L30 26L30 27L31 27L31 28L28 28L28 27L27 27L27 28L28 28L28 29L27 29L27 30L25 30L25 29L24 29L24 28L23 28L23 30L22 30L22 29L21 29L21 31L20 31L20 32L22 32L22 31L23 31L23 32L24 32L24 33L23 33L23 34L22 34L22 35L23 35L23 34L24 34L24 35L26 35L26 34L25 34L25 33L28 33L28 34L27 34L27 35L28 35L28 36L27 36L27 37L26 37L26 36L25 36L25 37L21 37L21 36L20 36L20 37L21 37L21 39L20 39L20 40L21 40L21 41L22 41L22 40L21 40L21 39L22 39L22 38L24 38L24 39L23 39L23 40L24 40L24 41L23 41L23 42L24 42L24 41L26 41L26 40L28 40L28 41L30 41L30 40L29 40L29 39L30 39L30 38L32 38L32 39L33 39L33 40L35 40L35 41L36 41L36 40L37 40L37 39L38 39L38 41L39 41L39 40L41 40L41 39L42 39L42 38L43 38L43 39L45 39L45 40L47 40L47 38L45 38L45 37L44 37L44 36L45 36L45 33L44 33L44 32L43 32L43 31L40 31L40 30L38 30L38 29L40 29L40 28L39 28L39 27L38 27L38 28L37 28L37 26L38 26L38 25L39 25L39 24L38 24L38 25L35 25L35 26L34 26L34 24L33 24L33 26L34 26L34 27L35 27L35 28L36 28L36 29L34 29L34 30L33 30L33 27L31 27L31 26L32 26L32 25L31 25L31 24L32 24L32 23L33 23L33 22ZM43 22L43 24L44 24L44 25L43 25L43 26L46 26L46 27L47 27L47 28L49 28L49 27L47 27L47 25L48 25L48 24L47 24L47 25L46 25L46 24L45 24L45 23L44 23L44 22ZM54 22L54 23L55 23L55 24L54 24L54 25L55 25L55 24L56 24L56 25L57 25L57 24L58 24L58 23L57 23L57 24L56 24L56 23L55 23L55 22ZM26 23L26 24L27 24L27 23ZM35 26L35 27L36 27L36 26ZM65 27L65 28L66 28L66 27ZM6 28L6 29L3 29L3 30L6 30L6 31L7 31L7 30L6 30L6 29L8 29L8 28ZM31 28L31 29L30 29L30 30L31 30L31 29L32 29L32 28ZM28 29L28 31L27 31L27 32L28 32L28 33L29 33L29 32L28 32L28 31L29 31L29 29ZM36 29L36 30L37 30L37 31L38 31L38 30L37 30L37 29ZM48 29L48 30L49 30L49 29ZM32 30L32 32L31 32L31 33L32 33L32 32L34 32L34 31L33 31L33 30ZM61 30L61 32L62 32L62 30ZM24 31L24 32L26 32L26 31ZM11 32L11 33L12 33L12 32ZM13 32L13 34L12 34L12 36L11 36L11 35L10 35L10 36L11 36L11 37L12 37L12 39L13 39L13 40L14 40L14 41L15 41L15 42L16 42L16 41L15 41L15 40L16 40L16 38L15 38L15 40L14 40L14 38L13 38L13 37L14 37L14 32ZM15 32L15 33L16 33L16 32ZM39 32L39 33L38 33L38 35L37 35L37 36L38 36L38 37L36 37L36 38L35 38L35 37L34 37L34 38L33 38L33 37L32 37L32 38L33 38L33 39L36 39L36 38L38 38L38 39L41 39L41 36L40 36L40 33L43 33L43 34L41 34L41 35L43 35L43 36L44 36L44 33L43 33L43 32ZM55 32L55 33L54 33L54 34L53 34L53 35L54 35L54 34L56 34L56 32ZM5 33L5 36L8 36L8 33ZM33 33L33 36L36 36L36 33ZM57 33L57 34L58 34L58 33ZM61 33L61 36L64 36L64 33ZM6 34L6 35L7 35L7 34ZM15 34L15 35L16 35L16 34ZM31 34L31 35L30 35L30 36L32 36L32 34ZM34 34L34 35L35 35L35 34ZM62 34L62 35L63 35L63 34ZM65 34L65 35L66 35L66 34ZM55 35L55 37L56 37L56 35ZM67 35L67 36L68 36L68 35ZM12 36L12 37L13 37L13 36ZM15 36L15 37L16 37L16 36ZM28 36L28 37L27 37L27 38L26 38L26 37L25 37L25 38L26 38L26 39L28 39L28 38L30 38L30 37L29 37L29 36ZM57 36L57 37L59 37L59 36ZM65 36L65 37L64 37L64 38L62 38L62 39L65 39L65 37L66 37L66 36ZM1 37L1 38L2 38L2 37ZM6 39L6 40L5 40L5 41L6 41L6 42L5 42L5 44L7 44L7 43L8 43L8 42L7 42L7 41L6 41L6 40L7 40L7 39ZM55 40L55 41L51 41L51 42L53 42L53 44L54 44L54 45L53 45L53 46L54 46L54 48L57 48L57 49L58 49L58 47L57 47L57 45L59 45L59 44L62 44L62 41L59 41L59 42L58 42L58 43L57 43L57 45L56 45L56 44L55 44L55 43L54 43L54 42L56 42L56 40ZM63 41L63 42L64 42L64 41ZM66 41L66 42L67 42L67 41ZM6 42L6 43L7 43L7 42ZM44 42L44 43L45 43L45 42ZM59 42L59 43L58 43L58 44L59 44L59 43L61 43L61 42ZM3 43L3 44L1 44L1 45L3 45L3 46L4 46L4 48L5 48L5 47L6 47L6 48L7 48L7 47L6 47L6 46L7 46L7 45L6 45L6 46L5 46L5 45L3 45L3 44L4 44L4 43ZM39 43L39 44L40 44L40 43ZM48 43L48 44L49 44L49 43ZM45 45L45 46L46 46L46 45ZM50 45L50 46L51 46L51 45ZM55 45L55 46L56 46L56 45ZM60 45L60 46L59 46L59 47L62 47L62 45ZM12 46L12 47L11 47L11 48L12 48L12 47L13 47L13 48L14 48L14 46ZM15 47L15 48L16 48L16 47ZM27 49L27 50L28 50L28 49ZM6 50L6 51L7 51L7 52L8 52L8 51L10 51L10 52L13 52L13 53L14 53L14 51L12 51L12 50L11 50L11 51L10 51L10 50L8 50L8 51L7 51L7 50ZM15 50L15 51L16 51L16 50ZM19 50L19 51L18 51L18 52L19 52L19 51L20 51L20 50ZM37 52L37 53L38 53L38 52ZM50 52L50 53L51 53L51 52ZM62 52L62 53L63 53L63 52ZM27 53L27 54L29 54L29 55L30 55L30 53ZM2 54L2 56L3 56L3 54ZM34 54L34 55L35 55L35 54ZM6 57L6 58L7 58L7 57ZM15 57L15 58L16 58L16 57ZM17 57L17 58L19 58L19 59L17 59L17 60L19 60L19 59L20 59L20 58L21 58L21 57L20 57L20 58L19 58L19 57ZM61 58L61 59L62 59L62 58ZM63 58L63 59L64 59L64 58ZM15 59L15 60L16 60L16 59ZM3 60L3 61L5 61L5 60ZM9 60L9 61L10 61L10 60ZM23 60L23 61L24 61L24 60ZM26 60L26 62L30 62L30 63L28 63L28 65L29 65L29 66L32 66L32 65L29 65L29 64L31 64L31 63L32 63L32 61L29 61L29 60ZM54 60L54 61L55 61L55 60ZM65 60L65 61L66 61L66 60ZM33 61L33 64L36 64L36 61ZM61 61L61 64L64 64L64 61ZM67 61L67 62L68 62L68 61ZM34 62L34 63L35 63L35 62ZM53 62L53 63L54 63L54 65L55 65L55 66L56 66L56 65L58 65L58 66L60 66L60 63L57 63L57 64L56 64L56 62L55 62L55 63L54 63L54 62ZM62 62L62 63L63 63L63 62ZM65 62L65 63L66 63L66 62ZM25 63L25 64L26 64L26 63ZM55 64L55 65L56 65L56 64ZM58 64L58 65L59 65L59 64ZM65 64L65 65L67 65L67 64ZM21 66L21 67L22 67L22 66ZM29 67L29 68L30 68L30 67ZM24 68L24 69L26 69L26 68ZM0 0L0 7L7 7L7 0ZM1 1L1 6L6 6L6 1ZM2 2L2 5L5 5L5 2ZM62 0L62 7L69 7L69 0ZM63 1L63 6L68 6L68 1ZM64 2L64 5L67 5L67 2ZM0 62L0 69L7 69L7 62ZM1 63L1 68L6 68L6 63ZM2 64L2 67L5 67L5 64Z" fill="#000000"/></g></g></svg>
