<?xml version="1.0" encoding="UTF-8"?>
<svg xmlns="http://www.w3.org/2000/svg" version="1.1" width="300" height="300" viewBox="0 0 300 300"><rect x="0" y="0" width="300" height="300" fill="#ffffff"/><g transform="scale(4.348)"><g transform="translate(0,0)"><path fill-rule="evenodd" d="M8 0L8 2L9 2L9 4L8 4L8 10L6 10L6 9L7 9L7 8L5 8L5 11L8 11L8 12L10 12L10 11L11 11L11 12L12 12L12 10L13 10L13 15L12 15L12 16L11 16L11 15L7 15L7 14L6 14L6 13L7 13L7 12L4 12L4 11L2 11L2 9L3 9L3 10L4 10L4 9L3 9L3 8L0 8L0 9L1 9L1 10L0 10L0 13L1 13L1 14L3 14L3 15L0 15L0 18L3 18L3 19L2 19L2 21L0 21L0 22L1 22L1 23L3 23L3 24L4 24L4 23L5 23L5 24L6 24L6 25L5 25L5 27L3 27L3 26L4 26L4 25L2 25L2 24L1 24L1 27L0 27L0 29L1 29L1 30L0 30L0 31L2 31L2 32L0 32L0 35L1 35L1 36L0 36L0 38L1 38L1 39L0 39L0 40L2 40L2 38L3 38L3 41L0 41L0 44L1 44L1 46L2 46L2 47L3 47L3 46L2 46L2 45L4 45L4 46L5 46L5 47L4 47L4 48L5 48L5 51L7 51L7 50L8 50L8 52L6 52L6 53L5 53L5 52L4 52L4 53L5 53L5 54L4 54L4 55L3 55L3 54L2 54L2 52L3 52L3 51L4 51L4 49L3 49L3 48L1 48L1 47L0 47L0 49L1 49L1 50L2 50L2 49L3 49L3 51L2 51L2 52L1 52L1 54L2 54L2 55L1 55L1 56L2 56L2 55L3 55L3 57L2 57L2 59L3 59L3 57L4 57L4 59L7 59L7 58L9 58L9 57L11 57L11 56L9 56L9 55L8 55L8 54L11 54L11 55L12 55L12 54L13 54L13 55L14 55L14 56L13 56L13 57L12 57L12 58L10 58L10 60L11 60L11 59L13 59L13 57L14 57L14 60L12 60L12 61L10 61L10 62L9 62L9 61L8 61L8 60L6 60L6 61L8 61L8 62L9 62L9 63L8 63L8 64L9 64L9 65L10 65L10 68L9 68L9 66L8 66L8 69L12 69L12 68L13 68L13 69L15 69L15 68L14 68L14 67L16 67L16 68L18 68L18 69L20 69L20 68L19 68L19 66L18 66L18 65L19 65L19 64L18 64L18 63L19 63L19 62L20 62L20 61L21 61L21 64L20 64L20 65L21 65L21 64L22 64L22 65L23 65L23 66L22 66L22 67L23 67L23 66L24 66L24 64L23 64L23 60L22 60L22 58L21 58L21 59L20 59L20 58L18 58L18 57L19 57L19 56L21 56L21 54L20 54L20 53L21 53L21 51L20 51L20 50L22 50L22 51L23 51L23 52L22 52L22 54L23 54L23 55L22 55L22 56L23 56L23 55L26 55L26 57L27 57L27 58L26 58L26 59L25 59L25 58L24 58L24 59L25 59L25 60L26 60L26 61L25 61L25 62L24 62L24 63L25 63L25 62L26 62L26 61L27 61L27 62L28 62L28 61L29 61L29 62L30 62L30 61L31 61L31 60L32 60L32 62L31 62L31 64L30 64L30 65L29 65L29 64L27 64L27 63L26 63L26 64L27 64L27 68L26 68L26 66L25 66L25 69L28 69L28 68L29 68L29 67L28 67L28 66L30 66L30 67L31 67L31 68L30 68L30 69L31 69L31 68L32 68L32 69L37 69L37 68L36 68L36 67L37 67L37 66L36 66L36 65L37 65L37 63L38 63L38 65L39 65L39 66L40 66L40 65L41 65L41 67L42 67L42 68L40 68L40 67L39 67L39 68L38 68L38 69L39 69L39 68L40 68L40 69L42 69L42 68L43 68L43 67L44 67L44 69L45 69L45 67L44 67L44 65L47 65L47 66L48 66L48 67L46 67L46 69L47 69L47 68L48 68L48 69L50 69L50 68L51 68L51 67L50 67L50 63L53 63L53 62L54 62L54 61L53 61L53 60L54 60L54 59L55 59L55 60L56 60L56 61L55 61L55 63L56 63L56 67L57 67L57 66L58 66L58 65L61 65L61 66L60 66L60 67L59 67L59 68L58 68L58 69L60 69L60 68L61 68L61 67L63 67L63 65L65 65L65 66L64 66L64 68L63 68L63 69L64 69L64 68L66 68L66 69L67 69L67 68L66 68L66 67L69 67L69 66L66 66L66 63L67 63L67 65L69 65L69 62L68 62L68 61L69 61L69 60L68 60L68 59L69 59L69 58L68 58L68 59L67 59L67 60L68 60L68 61L67 61L67 62L66 62L66 61L65 61L65 60L66 60L66 58L67 58L67 57L68 57L68 55L69 55L69 52L68 52L68 51L69 51L69 46L68 46L68 45L67 45L67 44L66 44L66 42L67 42L67 43L69 43L69 41L68 41L68 40L66 40L66 38L67 38L67 36L66 36L66 35L67 35L67 33L68 33L68 37L69 37L69 33L68 33L68 32L69 32L69 30L68 30L68 32L67 32L67 33L65 33L65 32L66 32L66 30L67 30L67 29L69 29L69 26L68 26L68 27L67 27L67 29L66 29L66 25L67 25L67 24L68 24L68 23L69 23L69 22L68 22L68 21L69 21L69 20L68 20L68 19L69 19L69 14L68 14L68 13L67 13L67 12L68 12L68 11L69 11L69 8L67 8L67 12L66 12L66 11L64 11L64 10L66 10L66 9L65 9L65 8L59 8L59 4L58 4L58 3L59 3L59 2L57 2L57 1L61 1L61 0L57 0L57 1L56 1L56 0L53 0L53 1L51 1L51 0L50 0L50 1L48 1L48 0L46 0L46 1L48 1L48 2L46 2L46 3L47 3L47 4L46 4L46 5L49 5L49 4L48 4L48 3L51 3L51 4L50 4L50 7L51 7L51 8L50 8L50 9L49 9L49 8L48 8L48 7L49 7L49 6L48 6L48 7L47 7L47 6L46 6L46 7L47 7L47 8L44 8L44 9L43 9L43 11L41 11L41 10L42 10L42 8L43 8L43 6L42 6L42 5L43 5L43 4L44 4L44 7L45 7L45 4L44 4L44 2L43 2L43 4L42 4L42 5L41 5L41 6L40 6L40 7L39 7L39 6L38 6L38 5L40 5L40 3L42 3L42 2L41 2L41 0L40 0L40 3L39 3L39 0L37 0L37 2L34 2L34 1L35 1L35 0L32 0L32 2L30 2L30 1L31 1L31 0L30 0L30 1L28 1L28 2L29 2L29 4L28 4L28 3L27 3L27 4L28 4L28 5L27 5L27 6L26 6L26 3L25 3L25 4L24 4L24 1L27 1L27 0L24 0L24 1L23 1L23 0L22 0L22 3L21 3L21 2L20 2L20 1L21 1L21 0L18 0L18 2L19 2L19 6L18 6L18 10L17 10L17 8L15 8L15 5L14 5L14 7L13 7L13 6L12 6L12 5L11 5L11 3L12 3L12 2L13 2L13 4L14 4L14 2L15 2L15 3L16 3L16 4L17 4L17 3L16 3L16 2L17 2L17 1L16 1L16 2L15 2L15 0L14 0L14 2L13 2L13 0L10 0L10 1L11 1L11 2L9 2L9 0ZM42 0L42 1L44 1L44 0ZM50 1L50 2L51 2L51 3L52 3L52 4L51 4L51 5L52 5L52 6L51 6L51 7L52 7L52 6L53 6L53 8L54 8L54 6L55 6L55 7L56 7L56 6L57 6L57 8L58 8L58 10L59 10L59 8L58 8L58 5L54 5L54 3L55 3L55 2L56 2L56 1L55 1L55 2L54 2L54 3L52 3L52 2L51 2L51 1ZM32 2L32 4L31 4L31 3L30 3L30 4L31 4L31 7L32 7L32 4L35 4L35 3L34 3L34 2ZM22 3L22 4L21 4L21 7L20 7L20 6L19 6L19 8L20 8L20 16L23 16L23 17L24 17L24 19L23 19L23 18L22 18L22 19L21 19L21 18L20 18L20 19L21 19L21 20L20 20L20 22L21 22L21 23L20 23L20 24L19 24L19 25L20 25L20 27L19 27L19 26L18 26L18 27L17 27L17 26L16 26L16 27L17 27L17 29L16 29L16 30L19 30L19 31L18 31L18 32L19 32L19 33L18 33L18 34L19 34L19 36L21 36L21 37L20 37L20 39L19 39L19 38L18 38L18 36L17 36L17 35L16 35L16 34L17 34L17 31L16 31L16 32L14 32L14 31L15 31L15 28L14 28L14 27L15 27L15 25L14 25L14 24L16 24L16 22L15 22L15 21L14 21L14 22L13 22L13 20L12 20L12 21L11 21L11 18L12 18L12 19L14 19L14 18L16 18L16 16L17 16L17 18L19 18L19 16L18 16L18 15L19 15L19 13L18 13L18 12L19 12L19 11L17 11L17 10L16 10L16 9L14 9L14 15L13 15L13 16L14 16L14 15L15 15L15 17L11 17L11 16L10 16L10 17L9 17L9 16L8 16L8 17L6 17L6 16L7 16L7 15L5 15L5 14L4 14L4 13L3 13L3 12L2 12L2 11L1 11L1 13L3 13L3 14L4 14L4 15L5 15L5 16L2 16L2 17L3 17L3 18L5 18L5 19L6 19L6 20L3 20L3 21L6 21L6 22L5 22L5 23L6 23L6 24L9 24L9 23L11 23L11 24L12 24L12 25L14 25L14 27L13 27L13 28L11 28L11 27L12 27L12 26L11 26L11 25L10 25L10 26L9 26L9 25L8 25L8 27L6 27L6 28L3 28L3 30L2 30L2 31L4 31L4 32L3 32L3 33L4 33L4 32L5 32L5 31L6 31L6 32L9 32L9 31L11 31L11 32L10 32L10 34L9 34L9 35L10 35L10 36L9 36L9 37L8 37L8 38L7 38L7 37L5 37L5 38L7 38L7 39L6 39L6 40L7 40L7 39L8 39L8 40L10 40L10 39L11 39L11 40L12 40L12 39L15 39L15 41L14 41L14 43L13 43L13 44L12 44L12 43L10 43L10 42L11 42L11 41L10 41L10 42L9 42L9 41L8 41L8 43L5 43L5 42L7 42L7 41L4 41L4 43L5 43L5 44L8 44L8 43L10 43L10 45L11 45L11 46L9 46L9 45L8 45L8 47L11 47L11 46L12 46L12 49L11 49L11 48L7 48L7 47L5 47L5 48L7 48L7 49L6 49L6 50L7 50L7 49L10 49L10 52L12 52L12 53L11 53L11 54L12 54L12 53L15 53L15 52L14 52L14 50L13 50L13 47L14 47L14 46L15 46L15 45L16 45L16 47L15 47L15 48L14 48L14 49L15 49L15 48L16 48L16 47L17 47L17 49L16 49L16 50L19 50L19 48L22 48L22 46L23 46L23 45L22 45L22 44L21 44L21 43L18 43L18 42L17 42L17 41L18 41L18 40L19 40L19 41L20 41L20 42L21 42L21 41L20 41L20 39L21 39L21 38L23 38L23 37L24 37L24 40L25 40L25 41L26 41L26 42L24 42L24 43L27 43L27 44L29 44L29 45L28 45L28 46L29 46L29 49L28 49L28 47L26 47L26 48L27 48L27 49L26 49L26 52L25 52L25 51L24 51L24 50L25 50L25 46L27 46L27 45L26 45L26 44L25 44L25 45L24 45L24 47L23 47L23 48L24 48L24 50L23 50L23 51L24 51L24 52L23 52L23 53L24 53L24 54L25 54L25 53L26 53L26 54L27 54L27 53L26 53L26 52L28 52L28 54L29 54L29 53L30 53L30 54L32 54L32 53L33 53L33 50L35 50L35 51L34 51L34 52L35 52L35 53L34 53L34 54L33 54L33 55L32 55L32 56L33 56L33 58L34 58L34 59L33 59L33 60L35 60L35 57L36 57L36 58L37 58L37 59L36 59L36 60L37 60L37 61L38 61L38 63L39 63L39 65L40 65L40 62L41 62L41 61L42 61L42 62L43 62L43 65L42 65L42 63L41 63L41 65L42 65L42 67L43 67L43 65L44 65L44 63L45 63L45 61L44 61L44 60L45 60L45 59L41 59L41 58L40 58L40 54L41 54L41 55L42 55L42 56L41 56L41 57L42 57L42 58L45 58L45 57L46 57L46 58L47 58L47 59L46 59L46 60L47 60L47 61L46 61L46 64L47 64L47 65L48 65L48 66L49 66L49 65L48 65L48 64L49 64L49 61L50 61L50 62L53 62L53 61L52 61L52 60L51 60L51 59L54 59L54 58L56 58L56 60L57 60L57 59L58 59L58 63L57 63L57 62L56 62L56 63L57 63L57 64L60 64L60 63L59 63L59 60L60 60L60 59L61 59L61 57L62 57L62 58L63 58L63 57L64 57L64 59L63 59L63 60L64 60L64 59L65 59L65 57L64 57L64 54L65 54L65 55L66 55L66 56L67 56L67 55L68 55L68 54L67 54L67 51L68 51L68 50L67 50L67 49L68 49L68 48L67 48L67 47L68 47L68 46L67 46L67 45L64 45L64 46L63 46L63 45L62 45L62 46L61 46L61 45L60 45L60 46L61 46L61 48L60 48L60 49L59 49L59 47L58 47L58 46L59 46L59 44L60 44L60 43L59 43L59 42L61 42L61 44L62 44L62 42L63 42L63 40L64 40L64 44L65 44L65 42L66 42L66 40L64 40L64 38L65 38L65 37L63 37L63 40L62 40L62 38L60 38L60 37L59 37L59 36L60 36L60 34L59 34L59 32L60 32L60 31L61 31L61 32L62 32L62 30L63 30L63 31L65 31L65 30L66 30L66 29L64 29L64 27L65 27L65 26L64 26L64 23L65 23L65 22L67 22L67 23L66 23L66 24L67 24L67 23L68 23L68 22L67 22L67 21L68 21L68 20L67 20L67 19L68 19L68 18L67 18L67 19L66 19L66 17L65 17L65 19L64 19L64 16L65 16L65 15L66 15L66 16L67 16L67 17L68 17L68 16L67 16L67 15L68 15L68 14L67 14L67 15L66 15L66 12L65 12L65 13L64 13L64 12L62 12L62 15L61 15L61 17L60 17L60 14L61 14L61 12L60 12L60 11L63 11L63 9L62 9L62 10L61 10L61 9L60 9L60 11L59 11L59 13L58 13L58 11L57 11L57 13L56 13L56 12L55 12L55 13L54 13L54 11L53 11L53 9L50 9L50 10L49 10L49 9L48 9L48 8L47 8L47 9L46 9L46 10L45 10L45 11L46 11L46 12L45 12L45 13L46 13L46 14L43 14L43 13L44 13L44 12L42 12L42 13L41 13L41 11L40 11L40 10L41 10L41 9L40 9L40 8L42 8L42 6L41 6L41 7L40 7L40 8L39 8L39 9L38 9L38 12L39 12L39 13L38 13L38 14L37 14L37 12L36 12L36 11L37 11L37 9L31 9L31 8L30 8L30 6L29 6L29 5L28 5L28 6L27 6L27 7L26 7L26 6L25 6L25 9L26 9L26 10L27 10L27 11L26 11L26 12L27 12L27 13L28 13L28 14L27 14L27 15L26 15L26 16L27 16L27 17L26 17L26 18L25 18L25 17L24 17L24 16L25 16L25 13L24 13L24 14L23 14L23 13L22 13L22 12L23 12L23 11L22 11L22 10L23 10L23 9L22 9L22 10L21 10L21 7L22 7L22 8L23 8L23 7L24 7L24 6L23 6L23 5L24 5L24 4L23 4L23 3ZM36 3L36 4L37 4L37 3ZM38 3L38 4L39 4L39 3ZM56 3L56 4L57 4L57 3ZM60 3L60 5L61 5L61 3ZM9 4L9 5L10 5L10 6L9 6L9 7L10 7L10 6L11 6L11 7L12 7L12 6L11 6L11 5L10 5L10 4ZM52 4L52 5L53 5L53 6L54 6L54 5L53 5L53 4ZM16 5L16 7L17 7L17 5ZM33 5L33 8L36 8L36 5ZM22 6L22 7L23 7L23 6ZM28 6L28 7L27 7L27 8L26 8L26 9L27 9L27 8L29 8L29 6ZM34 6L34 7L35 7L35 6ZM37 6L37 8L38 8L38 6ZM60 6L60 7L61 7L61 6ZM10 8L10 9L9 9L9 10L8 10L8 11L9 11L9 10L10 10L10 9L11 9L11 10L12 10L12 9L13 9L13 8ZM55 8L55 9L54 9L54 10L57 10L57 9L56 9L56 8ZM39 9L39 10L40 10L40 9ZM47 9L47 10L46 10L46 11L48 11L48 13L47 13L47 14L46 14L46 15L44 15L44 17L46 17L46 15L47 15L47 16L48 16L48 17L47 17L47 20L48 20L48 21L47 21L47 22L46 22L46 21L45 21L45 20L46 20L46 19L45 19L45 20L44 20L44 21L43 21L43 22L42 22L42 21L41 21L41 19L40 19L40 17L41 17L41 18L42 18L42 19L44 19L44 18L42 18L42 17L43 17L43 15L42 15L42 16L40 16L40 17L39 17L39 18L38 18L38 17L36 17L36 16L37 16L37 14L36 14L36 13L35 13L35 14L34 14L34 15L35 15L35 14L36 14L36 16L34 16L34 17L35 17L35 18L33 18L33 17L31 17L31 16L32 16L32 15L33 15L33 14L32 14L32 15L31 15L31 14L29 14L29 16L28 16L28 17L29 17L29 18L28 18L28 19L29 19L29 18L30 18L30 22L29 22L29 23L28 23L28 20L27 20L27 19L26 19L26 24L24 24L24 23L25 23L25 22L24 22L24 21L25 21L25 19L24 19L24 20L23 20L23 19L22 19L22 21L21 21L21 22L22 22L22 21L23 21L23 23L22 23L22 24L24 24L24 25L25 25L25 26L24 26L24 27L25 27L25 28L24 28L24 29L23 29L23 27L22 27L22 26L21 26L21 27L22 27L22 30L20 30L20 29L21 29L21 28L20 28L20 29L19 29L19 27L18 27L18 29L19 29L19 30L20 30L20 33L21 33L21 34L20 34L20 35L22 35L22 37L23 37L23 35L24 35L24 36L26 36L26 37L25 37L25 40L26 40L26 41L27 41L27 42L28 42L28 43L29 43L29 44L30 44L30 45L29 45L29 46L30 46L30 50L31 50L31 51L29 51L29 50L28 50L28 51L29 51L29 52L30 52L30 53L32 53L32 52L31 52L31 51L32 51L32 50L33 50L33 49L32 49L32 48L31 48L31 47L32 47L32 46L31 46L31 44L30 44L30 42L28 42L28 41L29 41L29 39L28 39L28 40L26 40L26 39L27 39L27 38L28 38L28 37L29 37L29 35L30 35L30 37L31 37L31 39L30 39L30 40L31 40L31 39L32 39L32 38L33 38L33 39L34 39L34 41L36 41L36 42L37 42L37 43L38 43L38 44L37 44L37 45L36 45L36 43L35 43L35 44L34 44L34 43L33 43L33 40L32 40L32 41L31 41L31 43L32 43L32 44L34 44L34 46L35 46L35 48L34 48L34 47L33 47L33 48L34 48L34 49L35 49L35 50L36 50L36 51L35 51L35 52L36 52L36 51L37 51L37 54L35 54L35 56L34 56L34 57L35 57L35 56L36 56L36 57L37 57L37 58L38 58L38 60L39 60L39 61L41 61L41 60L39 60L39 59L40 59L40 58L38 58L38 57L37 57L37 56L39 56L39 53L38 53L38 52L39 52L39 51L40 51L40 53L41 53L41 54L42 54L42 53L43 53L43 50L42 50L42 49L43 49L43 48L44 48L44 50L46 50L46 51L44 51L44 54L43 54L43 55L44 55L44 57L45 57L45 55L47 55L47 56L48 56L48 57L47 57L47 58L48 58L48 61L47 61L47 64L48 64L48 61L49 61L49 58L50 58L50 59L51 59L51 58L50 58L50 56L51 56L51 54L50 54L50 53L51 53L51 52L52 52L52 54L53 54L53 55L52 55L52 58L54 58L54 57L55 57L55 55L56 55L56 58L58 58L58 59L59 59L59 58L58 58L58 57L61 57L61 56L62 56L62 55L63 55L63 54L64 54L64 53L65 53L65 54L66 54L66 55L67 55L67 54L66 54L66 53L65 53L65 52L66 52L66 50L64 50L64 48L65 48L65 49L66 49L66 47L67 47L67 46L64 46L64 48L61 48L61 49L60 49L60 50L61 50L61 49L62 49L62 53L63 53L63 54L62 54L62 55L61 55L61 56L60 56L60 53L61 53L61 51L59 51L59 56L58 56L58 57L57 57L57 55L56 55L56 54L57 54L57 52L56 52L56 54L55 54L55 55L54 55L54 52L55 52L55 50L56 50L56 49L57 49L57 50L58 50L58 49L57 49L57 48L58 48L58 47L56 47L56 46L58 46L58 44L59 44L59 43L58 43L58 41L60 41L60 40L61 40L61 39L60 39L60 38L59 38L59 39L58 39L58 36L56 36L56 34L54 34L54 32L53 32L53 30L54 30L54 31L55 31L55 32L56 32L56 33L57 33L57 35L59 35L59 34L58 34L58 32L57 32L57 31L58 31L58 29L59 29L59 31L60 31L60 29L61 29L61 30L62 30L62 28L63 28L63 27L62 27L62 28L61 28L61 26L60 26L60 25L63 25L63 24L60 24L60 23L64 23L64 21L66 21L66 19L65 19L65 20L64 20L64 21L63 21L63 20L61 20L61 19L62 19L62 17L63 17L63 15L62 15L62 17L61 17L61 19L60 19L60 20L61 20L61 22L59 22L59 24L60 24L60 25L59 25L59 27L58 27L58 23L57 23L57 20L58 20L58 21L59 21L59 19L58 19L58 17L59 17L59 18L60 18L60 17L59 17L59 14L60 14L60 13L59 13L59 14L58 14L58 13L57 13L57 16L56 16L56 13L55 13L55 16L56 16L56 19L55 19L55 18L54 18L54 17L53 17L53 16L52 16L52 17L53 17L53 19L50 19L50 17L51 17L51 16L50 16L50 15L48 15L48 13L49 13L49 11L48 11L48 9ZM15 10L15 11L16 11L16 12L15 12L15 13L16 13L16 12L17 12L17 11L16 11L16 10ZM24 10L24 11L25 11L25 10ZM28 10L28 13L29 13L29 11L30 11L30 13L31 13L31 10ZM32 10L32 11L33 11L33 12L32 12L32 13L34 13L34 10ZM50 10L50 13L51 13L51 15L53 15L53 11L51 11L51 10ZM21 11L21 12L22 12L22 11ZM51 12L51 13L52 13L52 12ZM9 13L9 14L12 14L12 13ZM17 13L17 14L15 14L15 15L17 15L17 14L18 14L18 13ZM21 13L21 14L22 14L22 15L23 15L23 16L24 16L24 15L23 15L23 14L22 14L22 13ZM40 13L40 14L41 14L41 13ZM38 14L38 15L39 15L39 14ZM64 14L64 15L65 15L65 14ZM29 16L29 17L30 17L30 18L31 18L31 17L30 17L30 16ZM57 16L57 17L58 17L58 16ZM5 17L5 18L6 18L6 19L7 19L7 20L6 20L6 21L8 21L8 22L9 22L9 21L10 21L10 19L9 19L9 17L8 17L8 19L7 19L7 18L6 18L6 17ZM10 17L10 18L11 18L11 17ZM35 18L35 19L34 19L34 20L35 20L35 21L36 21L36 22L35 22L35 23L34 23L34 22L32 22L32 21L33 21L33 19L32 19L32 21L31 21L31 23L30 23L30 24L31 24L31 23L32 23L32 24L33 24L33 23L34 23L34 25L33 25L33 27L34 27L34 28L35 28L35 27L34 27L34 25L35 25L35 24L37 24L37 23L36 23L36 22L37 22L37 21L36 21L36 18ZM37 18L37 19L38 19L38 18ZM15 19L15 20L16 20L16 21L18 21L18 20L19 20L19 19L18 19L18 20L16 20L16 19ZM49 19L49 20L50 20L50 26L51 26L51 25L52 25L52 24L53 24L53 25L54 25L54 26L52 26L52 27L53 27L53 29L51 29L51 27L49 27L49 28L50 28L50 30L51 30L51 33L50 33L50 32L49 32L49 31L48 31L48 30L47 30L47 29L48 29L48 26L49 26L49 25L48 25L48 26L47 26L47 23L45 23L45 21L44 21L44 23L42 23L42 24L43 24L43 25L42 25L42 26L41 26L41 25L40 25L40 24L41 24L41 23L40 23L40 22L41 22L41 21L40 21L40 20L38 20L38 21L40 21L40 22L39 22L39 23L40 23L40 24L39 24L39 25L38 25L38 26L37 26L37 25L36 25L36 26L37 26L37 27L36 27L36 28L37 28L37 29L38 29L38 31L36 31L36 30L34 30L34 31L36 31L36 32L38 32L38 35L37 35L37 39L36 39L36 37L33 37L33 38L34 38L34 39L36 39L36 40L37 40L37 39L38 39L38 40L39 40L39 41L38 41L38 42L39 42L39 45L38 45L38 46L39 46L39 49L38 49L38 48L36 48L36 49L38 49L38 50L39 50L39 49L40 49L40 51L41 51L41 49L40 49L40 48L41 48L41 47L43 47L43 45L42 45L42 44L43 44L43 43L42 43L42 42L43 42L43 41L44 41L44 43L45 43L45 44L46 44L46 47L45 47L45 46L44 46L44 48L47 48L47 49L46 49L46 50L48 50L48 48L49 48L49 47L50 47L50 48L51 48L51 49L50 49L50 50L51 50L51 51L52 51L52 52L54 52L54 50L55 50L55 49L54 49L54 50L52 50L52 46L53 46L53 45L52 45L52 44L53 44L53 43L54 43L54 46L56 46L56 44L58 44L58 43L56 43L56 42L57 42L57 41L56 41L56 40L58 40L58 39L57 39L57 37L56 37L56 36L55 36L55 37L54 37L54 36L53 36L53 34L52 34L52 30L53 30L53 29L54 29L54 30L55 30L55 31L56 31L56 30L57 30L57 29L58 29L58 28L57 28L57 27L56 27L56 24L54 24L54 23L56 23L56 21L55 21L55 20L54 20L54 19L53 19L53 20L54 20L54 23L53 23L53 21L52 21L52 23L51 23L51 20L50 20L50 19ZM8 20L8 21L9 21L9 20ZM48 21L48 22L49 22L49 21ZM62 21L62 22L63 22L63 21ZM6 22L6 23L7 23L7 22ZM11 22L11 23L12 23L12 22ZM14 22L14 23L15 23L15 22ZM18 22L18 23L19 23L19 22ZM17 24L17 25L18 25L18 24ZM20 24L20 25L21 25L21 24ZM27 24L27 27L28 27L28 28L29 28L29 29L28 29L28 32L29 32L29 33L30 33L30 35L31 35L31 34L32 34L32 33L30 33L30 31L29 31L29 30L31 30L31 29L30 29L30 28L29 28L29 27L30 27L30 26L31 26L31 25L30 25L30 26L29 26L29 24ZM44 24L44 25L45 25L45 27L44 27L44 30L43 30L43 31L44 31L44 34L43 34L43 35L44 35L44 37L43 37L43 36L42 36L42 30L40 30L40 29L43 29L43 28L40 28L40 25L39 25L39 31L38 31L38 32L39 32L39 31L40 31L40 33L39 33L39 34L41 34L41 36L40 36L40 37L39 37L39 36L38 36L38 37L39 37L39 38L38 38L38 39L40 39L40 41L39 41L39 42L42 42L42 41L43 41L43 38L45 38L45 39L46 39L46 41L45 41L45 40L44 40L44 41L45 41L45 42L46 42L46 41L47 41L47 42L48 42L48 43L46 43L46 44L48 44L48 45L47 45L47 47L48 47L48 45L49 45L49 44L50 44L50 45L51 45L51 44L52 44L52 43L53 43L53 42L52 42L52 43L51 43L51 42L50 42L50 41L51 41L51 38L50 38L50 36L49 36L49 35L50 35L50 33L49 33L49 32L48 32L48 31L47 31L47 32L48 32L48 33L47 33L47 34L46 34L46 33L45 33L45 30L46 30L46 29L47 29L47 28L46 28L46 27L47 27L47 26L46 26L46 25L45 25L45 24ZM6 25L6 26L7 26L7 25ZM28 26L28 27L29 27L29 26ZM42 26L42 27L43 27L43 26ZM1 27L1 29L2 29L2 27ZM37 27L37 28L38 28L38 27ZM59 27L59 28L60 28L60 27ZM6 28L6 29L7 29L7 30L6 30L6 31L9 31L9 30L10 30L10 29L9 29L9 30L8 30L8 28ZM13 28L13 29L12 29L12 30L11 30L11 31L12 31L12 32L13 32L13 34L12 34L12 33L11 33L11 34L10 34L10 35L11 35L11 36L10 36L10 37L9 37L9 39L10 39L10 37L11 37L11 39L12 39L12 37L13 37L13 36L15 36L15 39L16 39L16 41L17 41L17 39L18 39L18 38L17 38L17 39L16 39L16 35L15 35L15 34L14 34L14 32L13 32L13 29L14 29L14 28ZM25 28L25 29L24 29L24 30L23 30L23 31L24 31L24 30L25 30L25 33L24 33L24 35L26 35L26 34L27 34L27 32L26 32L26 31L27 31L27 29L26 29L26 28ZM32 28L32 29L33 29L33 28ZM45 28L45 29L46 29L46 28ZM56 28L56 29L57 29L57 28ZM4 29L4 30L5 30L5 29ZM21 31L21 33L22 33L22 35L23 35L23 33L22 33L22 31ZM32 31L32 32L33 32L33 31ZM1 33L1 34L2 34L2 33ZM5 33L5 36L8 36L8 33ZM33 33L33 36L36 36L36 33ZM61 33L61 36L64 36L64 33ZM3 34L3 36L4 36L4 34ZM6 34L6 35L7 35L7 34ZM28 34L28 35L29 35L29 34ZM34 34L34 35L35 35L35 34ZM44 34L44 35L46 35L46 39L47 39L47 41L48 41L48 42L49 42L49 41L50 41L50 40L49 40L49 39L47 39L47 38L48 38L48 37L47 37L47 35L48 35L48 34L47 34L47 35L46 35L46 34ZM51 34L51 35L52 35L52 34ZM62 34L62 35L63 35L63 34ZM12 35L12 36L11 36L11 37L12 37L12 36L13 36L13 35ZM31 36L31 37L32 37L32 36ZM41 36L41 37L42 37L42 38L43 38L43 37L42 37L42 36ZM52 36L52 37L53 37L53 38L52 38L52 41L53 41L53 38L54 38L54 41L55 41L55 39L56 39L56 38L54 38L54 37L53 37L53 36ZM1 37L1 38L2 38L2 37ZM40 38L40 39L41 39L41 41L42 41L42 39L41 39L41 38ZM68 38L68 39L69 39L69 38ZM4 39L4 40L5 40L5 39ZM22 39L22 40L23 40L23 39ZM59 39L59 40L60 40L60 39ZM48 40L48 41L49 41L49 40ZM22 41L22 43L23 43L23 41ZM61 41L61 42L62 42L62 41ZM1 42L1 44L3 44L3 43L2 43L2 42ZM16 42L16 43L17 43L17 42ZM14 43L14 44L15 44L15 43ZM41 43L41 44L42 44L42 43ZM50 43L50 44L51 44L51 43ZM55 43L55 44L56 44L56 43ZM11 44L11 45L12 45L12 46L13 46L13 45L12 45L12 44ZM16 44L16 45L17 45L17 44ZM18 44L18 45L19 45L19 47L18 47L18 48L19 48L19 47L20 47L20 45L21 45L21 46L22 46L22 45L21 45L21 44ZM5 45L5 46L7 46L7 45ZM40 45L40 46L41 46L41 45ZM62 46L62 47L63 47L63 46ZM12 50L12 51L13 51L13 50ZM63 50L63 51L64 51L64 52L65 52L65 51L64 51L64 50ZM18 51L18 52L19 52L19 53L20 53L20 52L19 52L19 51ZM48 51L48 52L46 52L46 54L48 54L48 56L49 56L49 55L50 55L50 54L48 54L48 52L50 52L50 51ZM16 52L16 54L17 54L17 55L15 55L15 54L14 54L14 55L15 55L15 56L14 56L14 57L15 57L15 56L17 56L17 57L18 57L18 56L19 56L19 55L18 55L18 54L17 54L17 52ZM24 52L24 53L25 53L25 52ZM41 52L41 53L42 53L42 52ZM6 53L6 54L8 54L8 53ZM44 54L44 55L45 55L45 54ZM5 55L5 56L8 56L8 57L9 57L9 56L8 56L8 55ZM30 55L30 56L31 56L31 55ZM36 55L36 56L37 56L37 55ZM53 55L53 57L54 57L54 55ZM24 56L24 57L25 57L25 56ZM28 56L28 58L27 58L27 59L28 59L28 60L29 60L29 61L30 61L30 58L31 58L31 57L30 57L30 58L29 58L29 56ZM5 57L5 58L7 58L7 57ZM48 57L48 58L49 58L49 57ZM0 58L0 61L1 61L1 58ZM16 58L16 59L17 59L17 58ZM28 58L28 59L29 59L29 58ZM18 59L18 60L17 60L17 61L16 61L16 60L14 60L14 63L15 63L15 64L16 64L16 67L17 67L17 64L16 64L16 63L17 63L17 61L18 61L18 60L19 60L19 59ZM3 60L3 61L5 61L5 60ZM50 60L50 61L51 61L51 60ZM12 61L12 62L13 62L13 61ZM15 61L15 63L16 63L16 61ZM33 61L33 64L36 64L36 61ZM43 61L43 62L44 62L44 61ZM61 61L61 64L64 64L64 61ZM34 62L34 63L35 63L35 62ZM62 62L62 63L63 63L63 62ZM67 62L67 63L68 63L68 62ZM12 63L12 64L10 64L10 65L11 65L11 68L12 68L12 67L13 67L13 66L15 66L15 65L14 65L14 64L13 64L13 63ZM12 64L12 66L13 66L13 64ZM31 64L31 67L32 67L32 68L33 68L33 67L34 67L34 68L35 68L35 67L36 67L36 66L35 66L35 65L33 65L33 66L32 66L32 64ZM52 64L52 65L53 65L53 66L52 66L52 67L54 67L54 68L52 68L52 69L55 69L55 67L54 67L54 64ZM20 66L20 67L21 67L21 66ZM48 67L48 68L50 68L50 67ZM22 68L22 69L23 69L23 68ZM56 68L56 69L57 69L57 68ZM68 68L68 69L69 69L69 68ZM0 0L0 7L7 7L7 0ZM1 1L1 6L6 6L6 1ZM2 2L2 5L5 5L5 2ZM62 0L62 7L69 7L69 0ZM63 1L63 6L68 6L68 1ZM64 2L64 5L67 5L67 2ZM0 62L0 69L7 69L7 62ZM1 63L1 68L6 68L6 63ZM2 64L2 67L5 67L5 64Z" fill="#000000"/></g></g></svg>
