<?xml version="1.0" encoding="UTF-8"?>
<svg xmlns="http://www.w3.org/2000/svg" version="1.1" width="300" height="300" viewBox="0 0 300 300"><rect x="0" y="0" width="300" height="300" fill="#ffffff"/><g transform="scale(4.348)"><g transform="translate(0,0)"><path fill-rule="evenodd" d="M10 0L10 2L9 2L9 1L8 1L8 2L9 2L9 3L8 3L8 4L9 4L9 5L8 5L8 7L9 7L9 8L6 8L6 9L7 9L7 10L5 10L5 8L0 8L0 9L1 9L1 10L0 10L0 11L1 11L1 12L2 12L2 13L0 13L0 14L1 14L1 15L0 15L0 17L4 17L4 19L0 19L0 20L1 20L1 21L0 21L0 22L2 22L2 20L3 20L3 21L4 21L4 20L6 20L6 21L5 21L5 23L4 23L4 24L5 24L5 25L7 25L7 24L8 24L8 23L10 23L10 24L9 24L9 25L10 25L10 24L12 24L12 25L11 25L11 26L10 26L10 27L11 27L11 28L8 28L8 29L7 29L7 28L6 28L6 27L9 27L9 26L5 26L5 28L4 28L4 25L3 25L3 23L2 23L2 24L1 24L1 23L0 23L0 25L3 25L3 27L0 27L0 30L2 30L2 31L0 31L0 33L1 33L1 34L3 34L3 36L1 36L1 35L0 35L0 39L1 39L1 40L2 40L2 39L3 39L3 38L4 38L4 37L8 37L8 40L4 40L4 41L3 41L3 43L4 43L4 45L3 45L3 44L2 44L2 46L0 46L0 51L1 51L1 52L0 52L0 53L3 53L3 52L2 52L2 50L6 50L6 51L5 51L5 52L4 52L4 55L3 55L3 54L2 54L2 55L3 55L3 56L2 56L2 57L0 57L0 61L1 61L1 58L2 58L2 59L3 59L3 58L4 58L4 59L7 59L7 60L6 60L6 61L7 61L7 60L8 60L8 59L9 59L9 61L8 61L8 63L9 63L9 61L10 61L10 62L11 62L11 63L10 63L10 65L11 65L11 63L12 63L12 66L11 66L11 67L10 67L10 68L9 68L9 64L8 64L8 69L10 69L10 68L11 68L11 69L14 69L14 68L15 68L15 69L16 69L16 68L17 68L17 69L21 69L21 68L19 68L19 67L20 67L20 66L19 66L19 65L20 65L20 61L21 61L21 62L22 62L22 61L21 61L21 60L23 60L23 63L24 63L24 64L25 64L25 65L23 65L23 67L25 67L25 65L28 65L28 66L27 66L27 67L26 67L26 68L24 68L24 69L26 69L26 68L27 68L27 67L28 67L28 68L29 68L29 69L32 69L32 68L30 68L30 67L33 67L33 65L38 65L38 64L41 64L41 66L40 66L40 67L39 67L39 66L36 66L36 67L35 67L35 66L34 66L34 67L35 67L35 68L36 68L36 69L38 69L38 68L37 68L37 67L39 67L39 68L40 68L40 67L41 67L41 66L44 66L44 68L41 68L41 69L44 69L44 68L47 68L47 69L49 69L49 67L50 67L50 68L51 68L51 67L52 67L52 66L53 66L53 67L54 67L54 66L55 66L55 67L56 67L56 68L55 68L55 69L56 69L56 68L57 68L57 69L59 69L59 67L60 67L60 68L61 68L61 69L62 69L62 67L63 67L63 69L64 69L64 67L63 67L63 66L64 66L64 65L65 65L65 69L68 69L68 68L67 68L67 66L66 66L66 65L65 65L65 64L67 64L67 62L69 62L69 61L66 61L66 60L67 60L67 59L68 59L68 57L69 57L69 56L68 56L68 57L67 57L67 59L66 59L66 60L64 60L64 59L65 59L65 58L66 58L66 56L67 56L67 55L68 55L68 54L69 54L69 53L68 53L68 54L67 54L67 55L62 55L62 54L63 54L63 53L64 53L64 52L66 52L66 53L65 53L65 54L66 54L66 53L67 53L67 52L68 52L68 50L69 50L69 49L67 49L67 51L65 51L65 50L63 50L63 51L62 51L62 49L63 49L63 48L61 48L61 49L60 49L60 50L59 50L59 51L61 51L61 52L60 52L60 53L59 53L59 54L57 54L57 53L58 53L58 52L57 52L57 51L58 51L58 50L57 50L57 51L56 51L56 50L55 50L55 49L56 49L56 48L55 48L55 47L57 47L57 49L59 49L59 48L60 48L60 46L61 46L61 47L62 47L62 45L64 45L64 44L62 44L62 45L61 45L61 44L60 44L60 43L62 43L62 42L64 42L64 41L65 41L65 40L68 40L68 41L69 41L69 39L68 39L68 36L69 36L69 35L68 35L68 34L69 34L69 33L68 33L68 32L69 32L69 31L68 31L68 30L69 30L69 28L68 28L68 30L67 30L67 31L64 31L64 32L63 32L63 31L61 31L61 32L60 32L60 34L57 34L57 33L56 33L56 32L58 32L58 31L56 31L56 30L55 30L55 29L56 29L56 28L57 28L57 27L58 27L58 28L60 28L60 29L59 29L59 30L62 30L62 29L63 29L63 28L62 28L62 27L63 27L63 26L62 26L62 24L61 24L61 23L62 23L62 21L60 21L60 20L58 20L58 21L60 21L60 23L59 23L59 22L58 22L58 23L59 23L59 24L57 24L57 25L56 25L56 24L54 24L54 23L56 23L56 22L57 22L57 21L56 21L56 20L57 20L57 18L56 18L56 14L57 14L57 15L58 15L58 14L57 14L57 13L53 13L53 14L55 14L55 15L53 15L53 16L55 16L55 17L53 17L53 18L54 18L54 19L52 19L52 20L51 20L51 21L52 21L52 20L53 20L53 22L54 22L54 23L53 23L53 24L54 24L54 26L50 26L50 25L49 25L49 24L50 24L50 20L49 20L49 19L50 19L50 17L49 17L49 16L50 16L50 13L51 13L51 10L50 10L50 9L51 9L51 8L53 8L53 9L52 9L52 10L54 10L54 11L53 11L53 12L57 12L57 9L58 9L58 8L57 8L57 9L56 9L56 8L55 8L55 4L56 4L56 7L57 7L57 4L56 4L56 2L55 2L55 0L53 0L53 1L50 1L50 0L47 0L47 1L46 1L46 0L44 0L44 1L46 1L46 2L48 2L48 3L47 3L47 4L49 4L49 6L48 6L48 5L47 5L47 6L46 6L46 5L44 5L44 3L45 3L45 4L46 4L46 3L45 3L45 2L44 2L44 3L43 3L43 0L39 0L39 1L38 1L38 0L36 0L36 1L35 1L35 0L33 0L33 1L32 1L32 0L28 0L28 1L27 1L27 2L28 2L28 3L27 3L27 4L26 4L26 3L23 3L23 4L21 4L21 3L22 3L22 2L21 2L21 3L16 3L16 5L15 5L15 4L13 4L13 5L12 5L12 4L11 4L11 5L10 5L10 2L12 2L12 3L15 3L15 2L16 2L16 1L14 1L14 0L12 0L12 1L11 1L11 0ZM17 0L17 1L19 1L19 2L20 2L20 1L19 1L19 0ZM23 0L23 1L24 1L24 2L26 2L26 1L25 1L25 0ZM56 0L56 1L57 1L57 3L59 3L59 2L58 2L58 1L61 1L61 0ZM13 1L13 2L14 2L14 1ZM30 1L30 2L32 2L32 3L31 3L31 4L36 4L36 3L38 3L38 4L37 4L37 5L38 5L38 6L37 6L37 7L38 7L38 6L39 6L39 7L40 7L40 6L41 6L41 8L38 8L38 11L37 11L37 10L36 10L36 9L35 9L35 10L34 10L34 11L33 11L33 9L31 9L31 8L32 8L32 5L30 5L30 6L29 6L29 4L27 4L27 5L26 5L26 4L25 4L25 7L26 7L26 6L27 6L27 8L26 8L26 10L25 10L25 9L24 9L24 8L23 8L23 7L24 7L24 6L23 6L23 5L22 5L22 6L21 6L21 4L19 4L19 5L20 5L20 6L19 6L19 7L18 7L18 4L17 4L17 7L18 7L18 8L19 8L19 7L20 7L20 6L21 6L21 8L20 8L20 11L18 11L18 9L17 9L17 11L16 11L16 10L15 10L15 9L14 9L14 5L13 5L13 7L12 7L12 6L11 6L11 7L10 7L10 6L9 6L9 7L10 7L10 8L9 8L9 10L7 10L7 11L5 11L5 10L3 10L3 11L2 11L2 12L3 12L3 13L4 13L4 14L5 14L5 15L6 15L6 16L7 16L7 15L6 15L6 14L8 14L8 15L10 15L10 16L8 16L8 17L10 17L10 18L11 18L11 17L10 17L10 16L12 16L12 19L13 19L13 18L15 18L15 19L14 19L14 20L11 20L11 19L9 19L9 20L8 20L8 21L6 21L6 22L7 22L7 23L6 23L6 24L7 24L7 23L8 23L8 22L10 22L10 21L11 21L11 22L12 22L12 23L14 23L14 22L15 22L15 23L17 23L17 24L16 24L16 25L13 25L13 26L11 26L11 27L13 27L13 26L14 26L14 27L15 27L15 28L16 28L16 27L15 27L15 26L16 26L16 25L17 25L17 28L20 28L20 30L21 30L21 31L19 31L19 32L20 32L20 33L19 33L19 34L20 34L20 35L19 35L19 37L20 37L20 38L22 38L22 39L21 39L21 40L19 40L19 41L18 41L18 42L19 42L19 41L20 41L20 42L23 42L23 43L21 43L21 45L16 45L16 44L18 44L18 43L17 43L17 40L18 40L18 39L19 39L19 38L18 38L18 37L17 37L17 36L15 36L15 34L17 34L17 33L18 33L18 32L15 32L15 33L13 33L13 34L11 34L11 33L12 33L12 31L11 31L11 30L13 30L13 29L14 29L14 30L17 30L17 31L18 31L18 30L17 30L17 29L14 29L14 28L13 28L13 29L11 29L11 30L9 30L9 31L10 31L10 32L11 32L11 33L10 33L10 34L9 34L9 35L11 35L11 36L13 36L13 35L14 35L14 36L15 36L15 38L14 38L14 37L13 37L13 39L12 39L12 37L10 37L10 36L9 36L9 37L10 37L10 38L9 38L9 40L11 40L11 41L12 41L12 40L13 40L13 39L14 39L14 40L15 40L15 41L13 41L13 42L15 42L15 43L16 43L16 44L14 44L14 43L12 43L12 42L11 42L11 44L10 44L10 45L9 45L9 46L8 46L8 45L5 45L5 46L7 46L7 47L5 47L5 48L3 48L3 46L2 46L2 48L3 48L3 49L5 49L5 48L7 48L7 49L6 49L6 50L7 50L7 49L9 49L9 50L8 50L8 52L7 52L7 51L6 51L6 52L7 52L7 53L5 53L5 55L4 55L4 56L3 56L3 57L4 57L4 58L7 58L7 57L4 57L4 56L5 56L5 55L6 55L6 56L8 56L8 58L9 58L9 57L10 57L10 58L11 58L11 59L12 59L12 58L14 58L14 56L16 56L16 57L15 57L15 58L16 58L16 57L17 57L17 59L18 59L18 60L16 60L16 59L15 59L15 61L14 61L14 60L10 60L10 61L12 61L12 63L14 63L14 64L15 64L15 65L14 65L14 66L12 66L12 67L11 67L11 68L13 68L13 67L14 67L14 66L15 66L15 67L16 67L16 66L17 66L17 65L18 65L18 64L17 64L17 63L18 63L18 62L19 62L19 61L18 61L18 60L19 60L19 59L20 59L20 58L21 58L21 59L23 59L23 60L24 60L24 61L25 61L25 62L24 62L24 63L25 63L25 64L26 64L26 63L25 63L25 62L26 62L26 61L27 61L27 64L28 64L28 65L29 65L29 64L31 64L31 63L32 63L32 60L35 60L35 58L36 58L36 59L37 59L37 58L39 58L39 57L41 57L41 56L37 56L37 58L36 58L36 57L35 57L35 56L36 56L36 55L40 55L40 54L41 54L41 55L43 55L43 56L42 56L42 57L43 57L43 60L42 60L42 58L41 58L41 59L40 59L40 62L39 62L39 59L38 59L38 63L37 63L37 64L38 64L38 63L41 63L41 64L44 64L44 66L45 66L45 67L46 67L46 66L47 66L47 68L48 68L48 67L49 67L49 66L48 66L48 65L47 65L47 63L51 63L51 64L50 64L50 67L51 67L51 66L52 66L52 65L53 65L53 64L54 64L54 65L55 65L55 66L56 66L56 65L57 65L57 64L60 64L60 63L58 63L58 62L59 62L59 61L60 61L60 60L61 60L61 58L62 58L62 60L63 60L63 58L65 58L65 56L64 56L64 57L62 57L62 55L60 55L60 54L62 54L62 53L63 53L63 52L61 52L61 53L60 53L60 54L59 54L59 55L57 55L57 54L54 54L54 55L50 55L50 54L53 54L53 50L51 50L51 49L54 49L54 48L53 48L53 47L55 47L55 46L52 46L52 45L53 45L53 44L54 44L54 43L55 43L55 42L54 42L54 41L55 41L55 40L54 40L54 39L55 39L55 38L53 38L53 37L54 37L54 36L53 36L53 35L54 35L54 34L53 34L53 33L55 33L55 34L56 34L56 33L55 33L55 30L53 30L53 32L50 32L50 31L51 31L51 30L52 30L52 29L53 29L53 28L56 28L56 27L57 27L57 26L58 26L58 27L59 27L59 26L60 26L60 25L61 25L61 24L60 24L60 25L57 25L57 26L56 26L56 27L55 27L55 26L54 26L54 27L53 27L53 28L52 28L52 27L50 27L50 26L49 26L49 25L48 25L48 24L49 24L49 21L46 21L46 20L48 20L48 18L49 18L49 17L47 17L47 16L49 16L49 14L47 14L47 12L49 12L49 13L50 13L50 10L47 10L47 7L48 7L48 6L47 6L47 7L46 7L46 6L45 6L45 7L44 7L44 5L43 5L43 7L42 7L42 6L41 6L41 5L40 5L40 4L42 4L42 1L41 1L41 2L38 2L38 1L37 1L37 2L34 2L34 1L33 1L33 2L32 2L32 1ZM48 1L48 2L49 2L49 4L50 4L50 5L51 5L51 4L54 4L54 3L53 3L53 2L54 2L54 1L53 1L53 2L51 2L51 4L50 4L50 1ZM60 3L60 5L61 5L61 3ZM58 4L58 7L59 7L59 4ZM27 5L27 6L28 6L28 7L29 7L29 6L28 6L28 5ZM33 5L33 8L36 8L36 5ZM39 5L39 6L40 6L40 5ZM52 5L52 6L51 6L51 7L52 7L52 6L53 6L53 7L54 7L54 5ZM15 6L15 7L16 7L16 6ZM22 6L22 7L23 7L23 6ZM30 6L30 7L31 7L31 6ZM34 6L34 7L35 7L35 6ZM49 6L49 8L50 8L50 6ZM60 6L60 8L59 8L59 9L60 9L60 10L59 10L59 12L58 12L58 13L59 13L59 15L62 15L62 16L59 16L59 19L60 19L60 18L62 18L62 19L61 19L61 20L62 20L62 19L63 19L63 18L66 18L66 19L65 19L65 20L66 20L66 21L65 21L65 24L66 24L66 25L64 25L64 27L65 27L65 28L67 28L67 27L68 27L68 26L67 26L67 27L65 27L65 26L66 26L66 25L67 25L67 23L68 23L68 25L69 25L69 23L68 23L68 18L69 18L69 15L68 15L68 14L69 14L69 13L68 13L68 11L67 11L67 10L69 10L69 9L68 9L68 8L67 8L67 9L66 9L66 8L65 8L65 10L66 10L66 11L65 11L65 12L66 12L66 13L68 13L68 14L65 14L65 13L63 13L63 15L62 15L62 12L64 12L64 11L62 11L62 8L61 8L61 6ZM45 7L45 9L44 9L44 8L43 8L43 9L41 9L41 12L40 12L40 11L39 11L39 12L38 12L38 13L37 13L37 14L35 14L35 15L36 15L36 16L35 16L35 17L36 17L36 18L35 18L35 19L36 19L36 20L38 20L38 21L35 21L35 23L37 23L37 22L40 22L40 21L39 21L39 19L40 19L40 20L43 20L43 21L41 21L41 22L42 22L42 23L41 23L41 24L42 24L42 25L41 25L41 26L37 26L37 25L38 25L38 24L39 24L39 23L38 23L38 24L37 24L37 25L34 25L34 24L33 24L33 25L31 25L31 24L32 24L32 22L33 22L33 23L34 23L34 22L33 22L33 21L32 21L32 22L30 22L30 23L29 23L29 22L27 22L27 21L26 21L26 20L28 20L28 19L27 19L27 18L28 18L28 17L27 17L27 18L26 18L26 17L25 17L25 16L26 16L26 15L25 15L25 16L23 16L23 17L18 17L18 16L17 16L17 15L18 15L18 14L19 14L19 15L23 15L23 14L27 14L27 16L28 16L28 15L29 15L29 14L30 14L30 13L32 13L32 12L30 12L30 11L29 11L29 12L27 12L27 11L25 11L25 13L22 13L22 12L21 12L21 11L20 11L20 12L15 12L15 11L14 11L14 10L12 10L12 12L15 12L15 13L14 13L14 14L15 14L15 15L16 15L16 17L15 17L15 16L14 16L14 15L12 15L12 16L14 16L14 17L15 17L15 18L16 18L16 19L15 19L15 20L14 20L14 21L12 21L12 22L14 22L14 21L15 21L15 22L19 22L19 23L18 23L18 24L17 24L17 25L19 25L19 26L20 26L20 28L21 28L21 27L22 27L22 25L24 25L24 26L23 26L23 27L24 27L24 28L25 28L25 29L21 29L21 30L22 30L22 31L21 31L21 32L22 32L22 31L26 31L26 32L25 32L25 33L23 33L23 34L22 34L22 33L21 33L21 34L22 34L22 36L23 36L23 39L26 39L26 40L24 40L24 41L23 41L23 42L24 42L24 41L25 41L25 44L24 44L24 43L23 43L23 46L21 46L21 47L23 47L23 46L24 46L24 47L25 47L25 48L24 48L24 49L22 49L22 48L21 48L21 49L18 49L18 48L17 48L17 47L18 47L18 46L17 46L17 47L14 47L14 46L13 46L13 45L10 45L10 46L9 46L9 47L7 47L7 48L9 48L9 49L10 49L10 51L9 51L9 52L10 52L10 53L9 53L9 54L10 54L10 55L9 55L9 56L10 56L10 57L11 57L11 58L12 58L12 57L13 57L13 56L14 56L14 55L17 55L17 57L18 57L18 58L20 58L20 57L21 57L21 58L22 58L22 57L24 57L24 58L23 58L23 59L24 59L24 60L25 60L25 61L26 61L26 60L25 60L25 59L26 59L26 58L27 58L27 61L31 61L31 60L32 60L32 59L31 59L31 56L32 56L32 58L33 58L33 53L34 53L34 52L33 52L33 53L32 53L32 55L31 55L31 52L30 52L30 50L32 50L32 51L34 51L34 50L32 50L32 49L33 49L33 48L36 48L36 47L37 47L37 48L38 48L38 47L39 47L39 48L40 48L40 47L41 47L41 48L42 48L42 49L41 49L41 50L39 50L39 51L38 51L38 49L37 49L37 50L36 50L36 49L35 49L35 50L36 50L36 51L35 51L35 52L36 52L36 53L35 53L35 54L34 54L34 55L36 55L36 54L39 54L39 53L40 53L40 52L41 52L41 54L43 54L43 53L44 53L44 56L43 56L43 57L44 57L44 56L46 56L46 57L47 57L47 58L48 58L48 59L50 59L50 60L47 60L47 62L46 62L46 63L47 63L47 62L50 62L50 60L52 60L52 59L53 59L53 61L51 61L51 62L52 62L52 63L53 63L53 62L54 62L54 64L55 64L55 65L56 65L56 63L55 63L55 61L56 61L56 60L54 60L54 58L55 58L55 59L56 59L56 56L53 56L53 57L51 57L51 56L50 56L50 57L49 57L49 55L48 55L48 54L47 54L47 56L46 56L46 54L45 54L45 53L49 53L49 54L50 54L50 53L49 53L49 52L50 52L50 51L48 51L48 52L47 52L47 51L46 51L46 52L45 52L45 49L46 49L46 47L47 47L47 46L49 46L49 47L48 47L48 48L47 48L47 49L49 49L49 50L50 50L50 49L49 49L49 47L52 47L52 46L50 46L50 40L47 40L47 39L48 39L48 38L49 38L49 39L50 39L50 37L51 37L51 38L52 38L52 37L51 37L51 36L50 36L50 37L49 37L49 36L45 36L45 33L47 33L47 34L48 34L48 35L53 35L53 34L52 34L52 33L51 33L51 34L50 34L50 33L49 33L49 32L47 32L47 31L49 31L49 30L50 30L50 29L52 29L52 28L50 28L50 27L49 27L49 26L48 26L48 25L47 25L47 24L48 24L48 22L47 22L47 24L46 24L46 22L44 22L44 20L43 20L43 17L44 17L44 16L47 16L47 14L45 14L45 15L44 15L44 16L42 16L42 17L41 17L41 18L39 18L39 19L37 19L37 18L38 18L38 17L39 17L39 16L40 16L40 15L42 15L42 14L43 14L43 13L44 13L44 11L43 11L43 13L42 13L42 14L41 14L41 12L42 12L42 10L45 10L45 9L46 9L46 7ZM21 8L21 9L22 9L22 8ZM28 8L28 9L30 9L30 10L31 10L31 11L32 11L32 10L31 10L31 9L30 9L30 8ZM60 8L60 9L61 9L61 8ZM63 8L63 9L64 9L64 8ZM23 9L23 10L24 10L24 9ZM39 9L39 10L40 10L40 9ZM55 9L55 10L56 10L56 9ZM10 10L10 11L8 11L8 12L5 12L5 11L3 11L3 12L5 12L5 13L8 13L8 14L9 14L9 13L8 13L8 12L10 12L10 15L11 15L11 14L13 14L13 13L11 13L11 12L10 12L10 11L11 11L11 10ZM35 10L35 11L36 11L36 10ZM23 11L23 12L24 12L24 11ZM61 11L61 12L60 12L60 13L61 13L61 12L62 12L62 11ZM26 12L26 13L27 13L27 14L29 14L29 13L30 13L30 12L29 12L29 13L27 13L27 12ZM33 12L33 14L32 14L32 15L31 15L31 16L29 16L29 18L30 18L30 19L31 19L31 20L29 20L29 21L31 21L31 20L32 20L32 18L33 18L33 19L34 19L34 18L33 18L33 17L32 17L32 15L33 15L33 16L34 16L34 15L33 15L33 14L34 14L34 13L36 13L36 12ZM39 12L39 13L38 13L38 15L37 15L37 17L38 17L38 15L40 15L40 14L39 14L39 13L40 13L40 12ZM20 13L20 14L22 14L22 13ZM2 14L2 15L3 15L3 14ZM51 14L51 15L52 15L52 14ZM64 14L64 16L62 16L62 18L63 18L63 17L66 17L66 16L65 16L65 14ZM67 15L67 17L68 17L68 15ZM4 16L4 17L5 17L5 18L7 18L7 19L6 19L6 20L7 20L7 19L8 19L8 18L7 18L7 17L5 17L5 16ZM57 16L57 17L58 17L58 16ZM17 17L17 20L19 20L19 21L20 21L20 22L21 22L21 23L20 23L20 24L19 24L19 25L20 25L20 26L21 26L21 25L22 25L22 24L21 24L21 23L22 23L22 22L23 22L23 24L25 24L25 23L24 23L24 22L23 22L23 21L25 21L25 22L26 22L26 23L27 23L27 22L26 22L26 21L25 21L25 19L26 19L26 18L25 18L25 19L24 19L24 18L23 18L23 19L24 19L24 20L22 20L22 19L21 19L21 20L19 20L19 19L20 19L20 18L19 18L19 19L18 19L18 17ZM51 17L51 18L52 18L52 17ZM44 18L44 19L47 19L47 18ZM55 18L55 19L54 19L54 21L55 21L55 20L56 20L56 18ZM9 20L9 21L10 21L10 20ZM21 21L21 22L22 22L22 21ZM43 22L43 24L44 24L44 25L43 25L43 26L46 26L46 27L45 27L45 28L44 28L44 29L43 29L43 30L42 30L42 27L38 27L38 28L37 28L37 29L38 29L38 30L37 30L37 31L36 31L36 32L37 32L37 31L38 31L38 30L40 30L40 31L43 31L43 32L39 32L39 33L38 33L38 34L37 34L37 36L38 36L38 37L36 37L36 38L35 38L35 37L34 37L34 39L37 39L37 40L32 40L32 34L31 34L31 33L29 33L29 32L31 32L31 31L32 31L32 32L34 32L34 31L33 31L33 30L34 30L34 29L35 29L35 30L36 30L36 28L35 28L35 27L36 27L36 26L35 26L35 27L34 27L34 26L31 26L31 27L33 27L33 30L31 30L31 29L32 29L32 28L31 28L31 29L30 29L30 30L29 30L29 29L28 29L28 28L30 28L30 26L29 26L29 25L30 25L30 24L29 24L29 25L28 25L28 24L26 24L26 25L25 25L25 28L26 28L26 29L25 29L25 30L29 30L29 32L28 32L28 31L27 31L27 32L28 32L28 33L25 33L25 34L23 34L23 35L25 35L25 36L24 36L24 37L25 37L25 36L26 36L26 39L27 39L27 40L26 40L26 42L29 42L29 44L28 44L28 45L27 45L27 44L26 44L26 45L25 45L25 47L26 47L26 48L25 48L25 49L26 49L26 50L25 50L25 51L28 51L28 52L26 52L26 53L25 53L25 54L24 54L24 55L25 55L25 56L26 56L26 57L27 57L27 58L28 58L28 59L30 59L30 58L29 58L29 57L30 57L30 56L26 56L26 55L30 55L30 54L29 54L29 53L28 53L28 52L29 52L29 48L31 48L31 49L32 49L32 48L33 48L33 47L32 47L32 46L33 46L33 45L34 45L34 46L35 46L35 47L36 47L36 46L39 46L39 47L40 47L40 46L39 46L39 45L40 45L40 44L41 44L41 43L40 43L40 41L41 41L41 40L44 40L44 42L43 42L43 43L44 43L44 42L45 42L45 44L43 44L43 46L42 46L42 45L41 45L41 46L42 46L42 48L43 48L43 46L45 46L45 47L44 47L44 49L43 49L43 50L44 50L44 49L45 49L45 47L46 47L46 46L47 46L47 44L46 44L46 42L47 42L47 43L48 43L48 44L49 44L49 42L48 42L48 41L47 41L47 40L45 40L45 39L43 39L43 38L42 38L42 37L43 37L43 36L44 36L44 37L45 37L45 38L47 38L47 37L45 37L45 36L44 36L44 33L45 33L45 32L46 32L46 31L45 31L45 30L47 30L47 28L49 28L49 27L48 27L48 26L47 26L47 25L46 25L46 24L45 24L45 23L44 23L44 22ZM51 22L51 23L52 23L52 22ZM63 23L63 24L64 24L64 23ZM20 24L20 25L21 25L21 24ZM27 25L27 26L26 26L26 27L27 27L27 26L28 26L28 27L29 27L29 26L28 26L28 25ZM60 27L60 28L61 28L61 27ZM1 28L1 29L2 29L2 30L3 30L3 31L2 31L2 32L1 32L1 33L3 33L3 34L4 34L4 32L8 32L8 30L7 30L7 29L6 29L6 28L5 28L5 29L3 29L3 28ZM38 28L38 29L40 29L40 28ZM5 29L5 30L4 30L4 31L3 31L3 32L4 32L4 31L7 31L7 30L6 30L6 29ZM48 29L48 30L49 30L49 29ZM64 29L64 30L65 30L65 29ZM13 31L13 32L14 32L14 31ZM44 31L44 32L43 32L43 33L40 33L40 35L39 35L39 36L41 36L41 37L39 37L39 40L41 40L41 39L42 39L42 38L41 38L41 37L42 37L42 36L43 36L43 35L41 35L41 34L43 34L43 33L44 33L44 32L45 32L45 31ZM67 31L67 32L66 32L66 33L67 33L67 34L65 34L65 35L67 35L67 36L68 36L68 35L67 35L67 34L68 34L68 33L67 33L67 32L68 32L68 31ZM5 33L5 36L8 36L8 33ZM28 33L28 34L26 34L26 35L28 35L28 36L29 36L29 37L30 37L30 38L29 38L29 39L30 39L30 38L31 38L31 36L29 36L29 33ZM33 33L33 36L36 36L36 33ZM48 33L48 34L49 34L49 33ZM61 33L61 36L64 36L64 33ZM6 34L6 35L7 35L7 34ZM34 34L34 35L35 35L35 34ZM62 34L62 35L63 35L63 34ZM56 35L56 37L57 37L57 38L56 38L56 42L57 42L57 43L56 43L56 46L57 46L57 47L59 47L59 45L60 45L60 44L59 44L59 43L58 43L58 42L62 42L62 41L64 41L64 40L63 40L63 39L67 39L67 37L66 37L66 38L65 38L65 37L64 37L64 38L62 38L62 37L61 37L61 38L60 38L60 39L59 39L59 37L60 37L60 35L59 35L59 36L57 36L57 35ZM3 36L3 37L4 37L4 36ZM1 38L1 39L2 39L2 38ZM6 38L6 39L7 39L7 38ZM10 38L10 39L11 39L11 38ZM15 38L15 39L17 39L17 38ZM27 38L27 39L28 39L28 38ZM37 38L37 39L38 39L38 38ZM40 38L40 39L41 39L41 38ZM61 38L61 40L62 40L62 38ZM57 39L57 41L59 41L59 40L58 40L58 39ZM21 40L21 41L22 41L22 40ZM27 40L27 41L28 41L28 40ZM29 40L29 41L30 41L30 44L29 44L29 46L27 46L27 48L29 48L29 47L30 47L30 46L31 46L31 45L33 45L33 44L31 44L31 42L35 42L35 44L36 44L36 45L37 45L37 42L38 42L38 41L36 41L36 42L35 42L35 41L32 41L32 40L31 40L31 41L30 41L30 40ZM1 41L1 42L0 42L0 43L1 43L1 42L2 42L2 41ZM4 41L4 42L5 42L5 44L7 44L7 43L8 43L8 42L10 42L10 41ZM15 41L15 42L16 42L16 41ZM51 41L51 44L52 44L52 42L53 42L53 43L54 43L54 42L53 42L53 41ZM6 42L6 43L7 43L7 42ZM65 42L65 44L66 44L66 47L65 47L65 48L67 48L67 47L68 47L68 48L69 48L69 47L68 47L68 44L69 44L69 43L68 43L68 42L67 42L67 43L66 43L66 42ZM19 43L19 44L20 44L20 43ZM38 43L38 44L40 44L40 43ZM67 43L67 44L68 44L68 43ZM58 44L58 45L59 45L59 44ZM45 45L45 46L46 46L46 45ZM10 46L10 48L12 48L12 49L11 49L11 50L12 50L12 49L13 49L13 50L15 50L15 51L16 51L16 53L15 53L15 52L14 52L14 53L12 53L12 51L11 51L11 53L10 53L10 54L11 54L11 55L10 55L10 56L11 56L11 57L12 57L12 56L11 56L11 55L12 55L12 54L13 54L13 55L14 55L14 53L15 53L15 54L17 54L17 50L18 50L18 51L20 51L20 50L18 50L18 49L17 49L17 48L16 48L16 49L13 49L13 46ZM63 46L63 47L64 47L64 46ZM19 47L19 48L20 48L20 47ZM21 49L21 52L19 52L19 53L20 53L20 54L19 54L19 55L18 55L18 56L19 56L19 57L20 57L20 54L21 54L21 55L22 55L22 54L23 54L23 52L22 52L22 51L23 51L23 50L22 50L22 49ZM27 49L27 50L28 50L28 49ZM41 50L41 51L42 51L42 50ZM39 51L39 52L40 52L40 51ZM43 51L43 52L44 52L44 53L45 53L45 52L44 52L44 51ZM37 52L37 53L38 53L38 52ZM54 52L54 53L55 53L55 52ZM56 52L56 53L57 53L57 52ZM26 53L26 54L28 54L28 53ZM0 54L0 55L1 55L1 54ZM6 54L6 55L8 55L8 54ZM21 56L21 57L22 57L22 56ZM58 56L58 57L59 57L59 58L61 58L61 56L60 56L60 57L59 57L59 56ZM50 57L50 59L51 59L51 57ZM53 57L53 58L54 58L54 57ZM45 58L45 59L46 59L46 58ZM57 58L57 59L58 59L58 58ZM3 60L3 61L5 61L5 60ZM41 60L41 62L42 62L42 63L43 63L43 62L44 62L44 64L45 64L45 66L46 66L46 64L45 64L45 62L44 62L44 60L43 60L43 61L42 61L42 60ZM45 60L45 61L46 61L46 60ZM13 61L13 62L14 62L14 61ZM17 61L17 62L15 62L15 64L16 64L16 65L15 65L15 66L16 66L16 65L17 65L17 64L16 64L16 63L17 63L17 62L18 62L18 61ZM33 61L33 64L36 64L36 61ZM57 61L57 62L58 62L58 61ZM61 61L61 64L64 64L64 61ZM34 62L34 63L35 63L35 62ZM62 62L62 63L63 63L63 62ZM65 62L65 63L66 63L66 62ZM68 63L68 65L69 65L69 63ZM21 65L21 66L22 66L22 65ZM30 65L30 66L32 66L32 65ZM58 65L58 66L57 66L57 68L58 68L58 66L59 66L59 65ZM61 66L61 67L62 67L62 66ZM33 68L33 69L34 69L34 68ZM0 0L0 7L7 7L7 0ZM1 1L1 6L6 6L6 1ZM2 2L2 5L5 5L5 2ZM62 0L62 7L69 7L69 0ZM63 1L63 6L68 6L68 1ZM64 2L64 5L67 5L67 2ZM0 62L0 69L7 69L7 62ZM1 63L1 68L6 68L6 63ZM2 64L2 67L5 67L5 64Z" fill="#000000"/></g></g></svg>
