<?xml version="1.0" encoding="UTF-8"?>
<svg xmlns="http://www.w3.org/2000/svg" version="1.1" width="300" height="300" viewBox="0 0 300 300"><rect x="0" y="0" width="300" height="300" fill="#ffffff"/><g transform="scale(4.348)"><g transform="translate(0,0)"><path fill-rule="evenodd" d="M8 0L8 1L9 1L9 2L8 2L8 5L9 5L9 3L10 3L10 2L13 2L13 4L14 4L14 8L13 8L13 5L12 5L12 7L11 7L11 6L10 6L10 7L9 7L9 6L8 6L8 7L9 7L9 8L8 8L8 9L7 9L7 8L6 8L6 9L5 9L5 12L4 12L4 13L3 13L3 14L2 14L2 13L1 13L1 12L2 12L2 11L4 11L4 8L0 8L0 9L1 9L1 12L0 12L0 14L2 14L2 15L1 15L1 17L0 17L0 19L1 19L1 20L0 20L0 21L2 21L2 22L1 22L1 23L0 23L0 28L1 28L1 29L0 29L0 30L2 30L2 31L1 31L1 32L0 32L0 33L3 33L3 34L2 34L2 36L3 36L3 34L4 34L4 37L2 37L2 38L1 38L1 37L0 37L0 38L1 38L1 39L0 39L0 40L1 40L1 39L2 39L2 40L3 40L3 41L4 41L4 42L3 42L3 43L4 43L4 42L5 42L5 44L6 44L6 45L7 45L7 46L6 46L6 47L10 47L10 46L9 46L9 45L11 45L11 44L6 44L6 43L7 43L7 42L8 42L8 43L9 43L9 42L10 42L10 43L11 43L11 42L13 42L13 41L14 41L14 43L12 43L12 44L14 44L14 45L15 45L15 41L16 41L16 42L17 42L17 43L18 43L18 42L19 42L19 44L20 44L20 45L18 45L18 44L16 44L16 45L17 45L17 46L16 46L16 47L12 47L12 49L11 49L11 48L9 48L9 49L10 49L10 50L8 50L8 51L9 51L9 52L8 52L8 53L9 53L9 54L10 54L10 55L8 55L8 54L4 54L4 55L3 55L3 54L2 54L2 52L5 52L5 51L3 51L3 50L2 50L2 49L4 49L4 50L6 50L6 51L7 51L7 50L6 50L6 49L7 49L7 48L6 48L6 49L5 49L5 47L4 47L4 46L5 46L5 45L4 45L4 44L3 44L3 45L2 45L2 43L1 43L1 42L2 42L2 41L1 41L1 42L0 42L0 45L2 45L2 46L3 46L3 48L1 48L1 46L0 46L0 49L1 49L1 50L0 50L0 51L2 51L2 52L0 52L0 54L1 54L1 55L0 55L0 61L1 61L1 58L2 58L2 59L3 59L3 58L4 58L4 59L7 59L7 60L6 60L6 61L7 61L7 60L8 60L8 62L9 62L9 64L10 64L10 63L12 63L12 66L11 66L11 68L10 68L10 66L9 66L9 65L8 65L8 69L11 69L11 68L12 68L12 69L15 69L15 68L16 68L16 69L18 69L18 67L14 67L14 66L18 66L18 64L19 64L19 67L20 67L20 69L21 69L21 68L22 68L22 69L24 69L24 68L27 68L27 69L30 69L30 68L31 68L31 67L32 67L32 68L33 68L33 66L35 66L35 65L36 65L36 66L37 66L37 63L38 63L38 62L39 62L39 66L38 66L38 68L39 68L39 69L41 69L41 68L39 68L39 66L40 66L40 67L41 67L41 66L42 66L42 65L40 65L40 64L41 64L41 62L39 62L39 61L40 61L40 60L41 60L41 61L42 61L42 60L41 60L41 59L42 59L42 58L43 58L43 56L41 56L41 55L42 55L42 54L41 54L41 53L40 53L40 51L38 51L38 50L40 50L40 49L39 49L39 47L40 47L40 48L42 48L42 49L44 49L44 48L43 48L43 46L44 46L44 47L46 47L46 48L45 48L45 50L44 50L44 52L43 52L43 51L42 51L42 53L43 53L43 54L44 54L44 55L46 55L46 54L47 54L47 59L45 59L45 58L44 58L44 59L43 59L43 61L44 61L44 60L47 60L47 61L49 61L49 62L48 62L48 63L49 63L49 64L50 64L50 65L51 65L51 66L52 66L52 64L50 64L50 62L51 62L51 63L53 63L53 64L54 64L54 65L53 65L53 66L54 66L54 68L51 68L51 67L50 67L50 66L49 66L49 67L48 67L48 68L47 68L47 65L46 65L46 68L45 68L45 69L48 69L48 68L50 68L50 69L54 69L54 68L55 68L55 66L56 66L56 68L58 68L58 69L59 69L59 68L60 68L60 69L62 69L62 68L63 68L63 69L66 69L66 68L63 68L63 66L62 66L62 65L65 65L65 67L67 67L67 66L68 66L68 64L69 64L69 63L68 63L68 64L67 64L67 63L65 63L65 61L67 61L67 60L66 60L66 59L68 59L68 61L69 61L69 58L68 58L68 57L69 57L69 56L65 56L65 55L68 55L68 54L69 54L69 52L68 52L68 51L67 51L67 50L68 50L68 49L69 49L69 44L67 44L67 45L66 45L66 44L64 44L64 43L63 43L63 45L66 45L66 46L64 46L64 47L63 47L63 46L62 46L62 44L61 44L61 43L62 43L62 41L64 41L64 42L65 42L65 40L68 40L68 39L67 39L67 38L66 38L66 37L68 37L68 38L69 38L69 37L68 37L68 36L69 36L69 31L68 31L68 30L67 30L67 29L69 29L69 27L68 27L68 28L67 28L67 27L65 27L65 26L67 26L67 25L69 25L69 22L67 22L67 20L69 20L69 19L68 19L68 18L69 18L69 17L68 17L68 18L67 18L67 17L66 17L66 16L67 16L67 15L66 15L66 14L67 14L67 13L68 13L68 14L69 14L69 12L68 12L68 11L69 11L69 10L68 10L68 9L69 9L69 8L68 8L68 9L67 9L67 8L64 8L64 9L63 9L63 10L62 10L62 8L60 8L60 7L61 7L61 6L60 6L60 7L59 7L59 4L56 4L56 2L54 2L54 3L55 3L55 5L58 5L58 7L59 7L59 13L60 13L60 10L62 10L62 11L61 11L61 14L62 14L62 16L56 16L56 15L60 15L60 14L58 14L58 13L56 13L56 12L57 12L57 11L58 11L58 10L57 10L57 9L58 9L58 8L57 8L57 9L56 9L56 7L57 7L57 6L56 6L56 7L55 7L55 6L54 6L54 7L53 7L53 6L52 6L52 7L53 7L53 8L51 8L51 6L50 6L50 5L53 5L53 4L49 4L49 3L53 3L53 1L56 1L56 0L53 0L53 1L52 1L52 2L51 2L51 1L50 1L50 0L49 0L49 2L48 2L48 3L47 3L47 2L45 2L45 0L44 0L44 2L42 2L42 1L43 1L43 0L41 0L41 1L40 1L40 2L39 2L39 3L41 3L41 4L38 4L38 0L35 0L35 1L37 1L37 2L29 2L29 1L30 1L30 0L28 0L28 2L27 2L27 1L25 1L25 0L21 0L21 1L19 1L19 0L17 0L17 1L16 1L16 0L14 0L14 1L13 1L13 0L12 0L12 1L11 1L11 0ZM31 0L31 1L32 1L32 0ZM33 0L33 1L34 1L34 0ZM47 0L47 1L48 1L48 0ZM58 0L58 1L57 1L57 2L58 2L58 3L59 3L59 2L58 2L58 1L61 1L61 0ZM17 1L17 2L18 2L18 3L19 3L19 4L17 4L17 3L16 3L16 4L15 4L15 5L16 5L16 4L17 4L17 8L14 8L14 9L12 9L12 8L10 8L10 9L11 9L11 10L7 10L7 9L6 9L6 10L7 10L7 11L6 11L6 12L7 12L7 13L5 13L5 14L8 14L8 12L7 12L7 11L9 11L9 12L10 12L10 13L9 13L9 14L10 14L10 15L11 15L11 16L13 16L13 17L10 17L10 16L9 16L9 20L8 20L8 16L7 16L7 15L6 15L6 16L7 16L7 17L5 17L5 16L4 16L4 14L3 14L3 15L2 15L2 16L3 16L3 17L2 17L2 18L1 18L1 19L2 19L2 21L3 21L3 20L4 20L4 21L6 21L6 22L4 22L4 23L5 23L5 24L7 24L7 25L4 25L4 24L3 24L3 22L2 22L2 24L1 24L1 26L2 26L2 25L3 25L3 26L7 26L7 27L5 27L5 29L6 29L6 30L7 30L7 31L4 31L4 27L3 27L3 28L2 28L2 29L3 29L3 31L2 31L2 32L3 32L3 33L4 33L4 32L8 32L8 30L7 30L7 29L9 29L9 30L10 30L10 28L11 28L11 29L13 29L13 28L11 28L11 27L13 27L13 26L14 26L14 23L15 23L15 22L16 22L16 25L17 25L17 26L15 26L15 28L16 28L16 29L17 29L17 31L16 31L16 30L15 30L15 31L16 31L16 32L15 32L15 33L13 33L13 32L14 32L14 31L13 31L13 30L11 30L11 32L9 32L9 33L13 33L13 34L12 34L12 35L14 35L14 34L16 34L16 35L15 35L15 36L16 36L16 38L17 38L17 39L16 39L16 41L17 41L17 39L18 39L18 38L17 38L17 36L18 36L18 34L17 34L17 33L19 33L19 34L21 34L21 35L20 35L20 36L19 36L19 37L20 37L20 36L21 36L21 37L23 37L23 39L22 39L22 38L19 38L19 39L21 39L21 40L20 40L20 41L19 41L19 40L18 40L18 41L19 41L19 42L21 42L21 43L22 43L22 44L24 44L24 45L25 45L25 46L24 46L24 47L23 47L23 45L20 45L20 47L23 47L23 48L18 48L18 46L17 46L17 47L16 47L16 48L15 48L15 50L14 50L14 51L15 51L15 50L17 50L17 49L16 49L16 48L18 48L18 51L17 51L17 54L16 54L16 53L14 53L14 54L12 54L12 53L13 53L13 51L12 51L12 50L13 50L13 49L12 49L12 50L10 50L10 51L11 51L11 52L12 52L12 53L10 53L10 52L9 52L9 53L10 53L10 54L11 54L11 55L12 55L12 56L11 56L11 57L14 57L14 58L13 58L13 59L14 59L14 58L15 58L15 59L16 59L16 62L13 62L13 63L20 63L20 64L21 64L21 63L23 63L23 64L22 64L22 65L24 65L24 66L25 66L25 67L27 67L27 65L28 65L28 66L29 66L29 67L30 67L30 66L29 66L29 64L30 64L30 65L31 65L31 64L30 64L30 63L31 63L31 62L32 62L32 60L31 60L31 59L32 59L32 57L33 57L33 56L34 56L34 54L31 54L31 55L30 55L30 54L26 54L26 55L23 55L23 56L22 56L22 53L24 53L24 54L25 54L25 52L27 52L27 51L25 51L25 49L27 49L27 50L30 50L30 49L29 49L29 47L30 47L30 48L31 48L31 49L32 49L32 50L33 50L33 51L31 51L31 52L30 52L30 53L31 53L31 52L32 52L32 53L35 53L35 54L36 54L36 53L37 53L37 55L35 55L35 56L36 56L36 58L35 58L35 59L33 59L33 60L35 60L35 59L36 59L36 60L37 60L37 61L39 61L39 60L40 60L40 58L39 58L39 56L40 56L40 54L38 54L38 53L39 53L39 52L36 52L36 53L35 53L35 51L34 51L34 50L33 50L33 49L35 49L35 50L36 50L36 51L37 51L37 50L36 50L36 49L38 49L38 48L33 48L33 47L34 47L34 46L35 46L35 45L36 45L36 44L37 44L37 45L38 45L38 46L39 46L39 44L40 44L40 45L41 45L41 47L42 47L42 45L45 45L45 44L46 44L46 46L47 46L47 44L48 44L48 45L50 45L50 47L48 47L48 48L49 48L49 49L48 49L48 50L49 50L49 49L50 49L50 47L52 47L52 46L53 46L53 47L54 47L54 48L51 48L51 50L50 50L50 51L49 51L49 52L48 52L48 51L47 51L47 54L48 54L48 53L49 53L49 55L48 55L48 59L47 59L47 60L48 60L48 59L49 59L49 57L50 57L50 58L52 58L52 59L53 59L53 60L50 60L50 61L51 61L51 62L53 62L53 63L54 63L54 62L56 62L56 64L57 64L57 65L59 65L59 66L58 66L58 67L59 67L59 66L61 66L61 67L60 67L60 68L61 68L61 67L62 67L62 66L61 66L61 65L60 65L60 64L57 64L57 62L58 62L58 63L59 63L59 61L60 61L60 58L59 58L59 57L61 57L61 58L62 58L62 56L63 56L63 58L67 58L67 57L64 57L64 55L65 55L65 54L63 54L63 53L65 53L65 51L66 51L66 50L67 50L67 49L68 49L68 47L67 47L67 46L66 46L66 48L65 48L65 47L64 47L64 48L63 48L63 47L61 47L61 46L60 46L60 47L59 47L59 45L60 45L60 44L59 44L59 43L58 43L58 45L57 45L57 41L56 41L56 43L54 43L54 42L55 42L55 41L54 41L54 42L53 42L53 40L58 40L58 41L59 41L59 40L61 40L61 39L63 39L63 38L65 38L65 39L66 39L66 38L65 38L65 37L62 37L62 38L61 38L61 37L60 37L60 35L59 35L59 37L58 37L58 38L57 38L57 39L55 39L55 38L56 38L56 37L57 37L57 36L58 36L58 35L54 35L54 32L53 32L53 31L52 31L52 30L51 30L51 27L52 27L52 29L53 29L53 26L55 26L55 27L54 27L54 28L55 28L55 27L56 27L56 28L57 28L57 26L58 26L58 27L59 27L59 28L58 28L58 29L60 29L60 30L57 30L57 29L54 29L54 30L57 30L57 31L56 31L56 32L55 32L55 34L56 34L56 33L57 33L57 32L58 32L58 34L59 34L59 32L63 32L63 31L65 31L65 32L68 32L68 31L67 31L67 30L66 30L66 29L65 29L65 27L64 27L64 26L65 26L65 24L63 24L63 25L64 25L64 26L63 26L63 28L62 28L62 27L61 27L61 28L60 28L60 27L59 27L59 26L61 26L61 25L62 25L62 24L61 24L61 22L60 22L60 21L58 21L58 19L57 19L57 20L56 20L56 18L57 18L57 17L56 17L56 18L55 18L55 17L54 17L54 18L55 18L55 21L57 21L57 23L55 23L55 22L53 22L53 23L54 23L54 24L56 24L56 25L57 25L57 26L55 26L55 25L53 25L53 24L52 24L52 22L51 22L51 20L52 20L52 19L51 19L51 18L53 18L53 16L52 16L52 15L51 15L51 14L49 14L49 13L50 13L50 12L49 12L49 13L47 13L47 12L48 12L48 11L47 11L47 9L46 9L46 8L48 8L48 9L49 9L49 7L50 7L50 6L49 6L49 4L48 4L48 6L47 6L47 7L46 7L46 5L47 5L47 3L46 3L46 5L45 5L45 8L44 8L44 6L43 6L43 3L42 3L42 4L41 4L41 5L38 5L38 4L37 4L37 7L38 7L38 6L39 6L39 8L41 8L41 9L42 9L42 8L41 8L41 7L42 7L42 6L43 6L43 9L45 9L45 10L46 10L46 11L44 11L44 10L43 10L43 11L44 11L44 13L43 13L43 12L41 12L41 13L42 13L42 14L44 14L44 15L41 15L41 14L40 14L40 11L39 11L39 10L40 10L40 9L38 9L38 10L37 10L37 12L36 12L36 9L34 9L34 10L33 10L33 11L32 11L32 13L28 13L28 14L27 14L27 12L30 12L30 11L31 11L31 10L30 10L30 9L29 9L29 7L30 7L30 6L29 6L29 2L28 2L28 6L27 6L27 7L28 7L28 9L27 9L27 8L26 8L26 6L25 6L25 8L24 8L24 5L25 5L25 4L23 4L23 3L25 3L25 2L20 2L20 3L19 3L19 1ZM26 2L26 4L27 4L27 2ZM20 3L20 4L19 4L19 5L18 5L18 8L17 8L17 10L18 10L18 11L20 11L20 7L21 7L21 8L22 8L22 9L23 9L23 10L22 10L22 12L24 12L24 13L25 13L25 14L24 14L24 17L25 17L25 16L26 16L26 17L28 17L28 18L29 18L29 19L31 19L31 21L32 21L32 20L34 20L34 18L35 18L35 22L34 22L34 21L33 21L33 24L32 24L32 25L31 25L31 24L30 24L30 20L27 20L27 19L26 19L26 18L24 18L24 20L25 20L25 19L26 19L26 20L27 20L27 21L26 21L26 23L24 23L24 22L25 22L25 21L23 21L23 20L20 20L20 19L23 19L23 17L22 17L22 16L23 16L23 13L22 13L22 16L20 16L20 19L19 19L19 18L17 18L17 20L16 20L16 22L17 22L17 24L18 24L18 26L17 26L17 27L16 27L16 28L20 28L20 27L21 27L21 23L24 23L24 24L22 24L22 25L23 25L23 26L22 26L22 28L23 28L23 27L24 27L24 29L25 29L25 30L23 30L23 31L21 31L21 32L22 32L22 35L21 35L21 36L23 36L23 35L24 35L24 37L25 37L25 38L24 38L24 40L23 40L23 41L21 41L21 42L25 42L25 43L24 43L24 44L25 44L25 43L27 43L27 45L26 45L26 47L29 47L29 46L27 46L27 45L30 45L30 46L31 46L31 45L33 45L33 46L34 46L34 45L35 45L35 43L38 43L38 44L39 44L39 43L38 43L38 42L36 42L36 41L38 41L38 40L39 40L39 42L40 42L40 43L43 43L43 42L42 42L42 41L41 41L41 42L40 42L40 40L41 40L41 39L43 39L43 38L44 38L44 39L45 39L45 40L43 40L43 41L45 41L45 42L44 42L44 44L45 44L45 42L46 42L46 44L47 44L47 43L48 43L48 44L51 44L51 45L53 45L53 46L54 46L54 47L55 47L55 44L54 44L54 45L53 45L53 44L51 44L51 43L53 43L53 42L50 42L50 43L49 43L49 41L48 41L48 42L47 42L47 41L46 41L46 40L47 40L47 39L48 39L48 40L50 40L50 39L49 39L49 38L51 38L51 41L52 41L52 37L51 37L51 35L52 35L52 36L53 36L53 37L54 37L54 35L52 35L52 34L53 34L53 32L52 32L52 31L49 31L49 29L50 29L50 27L51 27L51 26L53 26L53 25L51 25L51 22L50 22L50 21L49 21L49 23L48 23L48 20L51 20L51 19L49 19L49 17L47 17L47 16L50 16L50 17L52 17L52 16L50 16L50 15L49 15L49 14L48 14L48 15L47 15L47 14L46 14L46 13L45 13L45 15L44 15L44 16L43 16L43 18L42 18L42 16L41 16L41 17L40 17L40 14L39 14L39 13L37 13L37 15L38 15L38 17L39 17L39 19L40 19L40 20L38 20L38 19L37 19L37 16L35 16L35 17L34 17L34 15L36 15L36 12L35 12L35 10L34 10L34 11L33 11L33 13L32 13L32 14L33 14L33 16L32 16L32 15L31 15L31 14L30 14L30 16L31 16L31 17L30 17L30 18L29 18L29 17L28 17L28 16L29 16L29 14L28 14L28 15L27 15L27 16L26 16L26 12L25 12L25 11L27 11L27 10L26 10L26 9L25 9L25 10L24 10L24 9L23 9L23 8L22 8L22 7L23 7L23 4L22 4L22 7L21 7L21 6L20 6L20 5L21 5L21 3ZM32 3L32 4L33 4L33 3ZM44 3L44 4L45 4L45 3ZM60 3L60 5L61 5L61 3ZM10 4L10 5L11 5L11 4ZM30 4L30 5L31 5L31 4ZM33 5L33 8L36 8L36 5ZM41 5L41 6L40 6L40 7L41 7L41 6L42 6L42 5ZM15 6L15 7L16 7L16 6ZM19 6L19 7L20 7L20 6ZM28 6L28 7L29 7L29 6ZM31 6L31 7L32 7L32 6ZM34 6L34 7L35 7L35 6ZM48 6L48 7L49 7L49 6ZM54 7L54 8L53 8L53 9L55 9L55 10L53 10L53 11L52 11L52 12L51 12L51 13L53 13L53 15L55 15L55 12L56 12L56 11L55 11L55 10L56 10L56 9L55 9L55 7ZM18 8L18 10L19 10L19 8ZM31 8L31 9L32 9L32 8ZM50 8L50 10L51 10L51 8ZM15 9L15 10L11 10L11 13L10 13L10 14L11 14L11 15L13 15L13 16L14 16L14 17L13 17L13 21L12 21L12 19L11 19L11 20L9 20L9 22L8 22L8 20L6 20L6 21L7 21L7 22L6 22L6 23L7 23L7 24L8 24L8 25L7 25L7 26L8 26L8 27L7 27L7 28L6 28L6 29L7 29L7 28L8 28L8 27L9 27L9 26L10 26L10 24L11 24L11 25L12 25L12 24L11 24L11 23L12 23L12 22L13 22L13 23L14 23L14 22L15 22L15 21L14 21L14 19L15 19L15 18L16 18L16 17L15 17L15 16L17 16L17 15L19 15L19 14L20 14L20 15L21 15L21 13L19 13L19 12L17 12L17 11L16 11L16 9ZM64 9L64 10L63 10L63 12L62 12L62 13L63 13L63 15L64 15L64 17L60 17L60 18L59 18L59 20L61 20L61 19L62 19L62 20L63 20L63 19L64 19L64 20L65 20L65 18L66 18L66 20L67 20L67 18L66 18L66 17L65 17L65 15L64 15L64 13L67 13L67 10L66 10L66 12L65 12L65 11L64 11L64 10L65 10L65 9ZM28 10L28 11L29 11L29 10ZM41 10L41 11L42 11L42 10ZM12 11L12 12L13 12L13 13L12 13L12 14L13 14L13 15L14 15L14 16L15 16L15 15L14 15L14 13L15 13L15 14L16 14L16 13L15 13L15 11ZM53 11L53 12L55 12L55 11ZM18 13L18 14L19 14L19 13ZM33 13L33 14L35 14L35 13ZM38 14L38 15L39 15L39 14ZM45 15L45 17L44 17L44 18L43 18L43 19L42 19L42 20L41 20L41 21L42 21L42 20L43 20L43 21L44 21L44 22L43 22L43 23L42 23L42 24L40 24L40 23L38 23L38 22L35 22L35 23L36 23L36 24L35 24L35 27L33 27L33 25L32 25L32 27L33 27L33 28L30 28L30 27L31 27L31 25L30 25L30 24L29 24L29 23L28 23L28 22L29 22L29 21L27 21L27 23L28 23L28 26L27 26L27 27L26 27L26 28L29 28L29 29L30 29L30 30L32 30L32 31L33 31L33 30L32 30L32 29L33 29L33 28L34 28L34 30L36 30L36 29L37 29L37 28L36 28L36 29L35 29L35 27L37 27L37 25L40 25L40 26L39 26L39 27L38 27L38 30L39 30L39 29L41 29L41 30L40 30L40 31L38 31L38 32L37 32L37 31L35 31L35 32L37 32L37 33L38 33L38 37L37 37L37 40L38 40L38 39L39 39L39 38L40 38L40 37L41 37L41 38L43 38L43 36L42 36L42 35L41 35L41 36L40 36L40 35L39 35L39 34L40 34L40 33L39 33L39 32L40 32L40 31L41 31L41 33L42 33L42 32L43 32L43 35L45 35L45 34L46 34L46 35L47 35L47 32L48 32L48 33L49 33L49 31L45 31L45 29L44 29L44 31L43 31L43 28L45 28L45 27L46 27L46 26L48 26L48 27L47 27L47 28L46 28L46 29L49 29L49 27L50 27L50 24L49 24L49 25L48 25L48 24L47 24L47 25L46 25L46 23L47 23L47 19L48 19L48 18L47 18L47 19L46 19L46 16L47 16L47 15ZM68 15L68 16L69 16L69 15ZM18 16L18 17L19 17L19 16ZM3 17L3 18L4 18L4 20L5 20L5 17ZM6 18L6 19L7 19L7 18ZM32 18L32 19L33 19L33 18ZM44 18L44 20L45 20L45 21L46 21L46 19L45 19L45 18ZM60 18L60 19L61 19L61 18ZM62 18L62 19L63 19L63 18ZM36 19L36 21L37 21L37 19ZM53 19L53 20L54 20L54 19ZM18 20L18 21L17 21L17 22L18 22L18 21L19 21L19 20ZM13 21L13 22L14 22L14 21ZM20 21L20 22L19 22L19 23L18 23L18 24L19 24L19 23L21 23L21 22L23 22L23 21ZM62 21L62 22L63 22L63 23L65 23L65 22L66 22L66 24L67 24L67 22L66 22L66 21L65 21L65 22L63 22L63 21ZM7 22L7 23L8 23L8 24L10 24L10 23L11 23L11 22L9 22L9 23L8 23L8 22ZM43 23L43 24L42 24L42 25L44 25L44 27L45 27L45 26L46 26L46 25L44 25L44 23ZM57 23L57 24L59 24L59 25L60 25L60 24L59 24L59 23ZM26 24L26 25L24 25L24 27L25 27L25 26L26 26L26 25L27 25L27 24ZM19 26L19 27L20 27L20 26ZM28 26L28 27L30 27L30 26ZM41 26L41 27L42 27L42 28L41 28L41 29L42 29L42 28L43 28L43 27L42 27L42 26ZM63 28L63 30L65 30L65 29L64 29L64 28ZM18 29L18 31L20 31L20 30L19 30L19 29ZM21 29L21 30L22 30L22 29ZM26 29L26 30L27 30L27 29ZM60 30L60 31L61 31L61 30ZM3 31L3 32L4 32L4 31ZM12 31L12 32L13 32L13 31ZM25 31L25 35L26 35L26 38L25 38L25 39L28 39L28 38L29 38L29 35L28 35L28 31ZM29 31L29 32L30 32L30 33L32 33L32 32L31 32L31 31ZM23 32L23 33L24 33L24 32ZM26 32L26 33L27 33L27 32ZM45 32L45 33L44 33L44 34L45 34L45 33L46 33L46 32ZM50 32L50 34L49 34L49 35L50 35L50 34L51 34L51 32ZM5 33L5 36L8 36L8 33ZM33 33L33 36L36 36L36 33ZM61 33L61 36L64 36L64 33ZM65 33L65 34L66 34L66 36L67 36L67 34L68 34L68 33L67 33L67 34L66 34L66 33ZM6 34L6 35L7 35L7 34ZM9 34L9 35L11 35L11 34ZM34 34L34 35L35 35L35 34ZM62 34L62 35L63 35L63 34ZM27 35L27 38L28 38L28 35ZM30 35L30 36L31 36L31 35ZM9 36L9 37L10 37L10 36ZM41 36L41 37L42 37L42 36ZM44 36L44 38L45 38L45 39L47 39L47 37L48 37L48 36L47 36L47 37L46 37L46 38L45 38L45 36ZM49 36L49 37L50 37L50 36ZM55 36L55 37L56 37L56 36ZM4 37L4 38L5 38L5 40L8 40L8 42L9 42L9 41L10 41L10 42L11 42L11 41L13 41L13 40L15 40L15 37L14 37L14 38L11 38L11 40L10 40L10 39L9 39L9 38L8 38L8 39L6 39L6 38L7 38L7 37ZM30 37L30 38L31 38L31 37ZM33 37L33 38L32 38L32 40L31 40L31 39L29 39L29 40L27 40L27 41L29 41L29 42L28 42L28 44L29 44L29 43L31 43L31 44L30 44L30 45L31 45L31 44L33 44L33 42L34 42L34 41L35 41L35 39L36 39L36 38L35 38L35 37ZM38 37L38 38L39 38L39 37ZM59 37L59 38L58 38L58 39L61 39L61 38L60 38L60 37ZM33 38L33 40L32 40L32 41L31 41L31 40L30 40L30 41L31 41L31 42L33 42L33 41L34 41L34 38ZM8 39L8 40L9 40L9 39ZM24 40L24 41L25 41L25 42L26 42L26 41L25 41L25 40ZM5 41L5 42L7 42L7 41ZM60 41L60 43L61 43L61 41ZM66 41L66 42L67 42L67 43L68 43L68 42L67 42L67 41ZM41 44L41 45L42 45L42 44ZM56 45L56 46L57 46L57 47L58 47L58 48L59 48L59 47L58 47L58 46L57 46L57 45ZM36 46L36 47L37 47L37 46ZM31 47L31 48L32 48L32 49L33 49L33 48L32 48L32 47ZM60 47L60 48L61 48L61 47ZM46 48L46 50L47 50L47 48ZM54 48L54 49L55 49L55 50L58 50L58 49L56 49L56 48ZM62 48L62 49L63 49L63 50L64 50L64 51L65 51L65 50L66 50L66 49L65 49L65 50L64 50L64 49L63 49L63 48ZM19 49L19 51L18 51L18 52L20 52L20 53L22 53L22 52L25 52L25 51L21 51L21 50L23 50L23 49L21 49L21 50L20 50L20 49ZM52 49L52 50L51 50L51 51L50 51L50 53L51 53L51 54L50 54L50 57L53 57L53 58L54 58L54 60L55 60L55 61L56 61L56 62L57 62L57 61L56 61L56 60L55 60L55 57L54 57L54 56L57 56L57 55L58 55L58 57L59 57L59 53L60 53L60 56L61 56L61 55L62 55L62 53L63 53L63 51L62 51L62 53L60 53L60 50L61 50L61 49L59 49L59 51L58 51L58 52L57 52L57 51L55 51L55 52L53 52L53 51L54 51L54 50L53 50L53 49ZM28 51L28 52L29 52L29 51ZM45 51L45 53L46 53L46 51ZM6 52L6 53L7 53L7 52ZM52 52L52 53L53 53L53 52ZM58 52L58 53L59 53L59 52ZM67 52L67 53L66 53L66 54L67 54L67 53L68 53L68 52ZM54 53L54 54L53 54L53 55L52 55L52 54L51 54L51 55L52 55L52 56L53 56L53 55L55 55L55 54L57 54L57 53ZM14 54L14 55L13 55L13 56L16 56L16 59L17 59L17 61L18 61L18 62L20 62L20 63L21 63L21 62L22 62L22 61L21 61L21 60L20 60L20 61L19 61L19 60L18 60L18 59L17 59L17 57L18 57L18 58L19 58L19 59L20 59L20 57L18 57L18 56L21 56L21 59L22 59L22 56L21 56L21 55L20 55L20 54L17 54L17 55L15 55L15 54ZM1 55L1 56L3 56L3 55ZM5 55L5 56L4 56L4 57L5 57L5 56L7 56L7 57L6 57L6 58L8 58L8 57L9 57L9 56L7 56L7 55ZM26 55L26 56L27 56L27 55ZM31 55L31 57L29 57L29 58L30 58L30 59L28 59L28 60L27 60L27 61L26 61L26 60L25 60L25 61L26 61L26 64L25 64L25 66L26 66L26 64L29 64L29 62L28 62L28 61L31 61L31 60L30 60L30 59L31 59L31 57L32 57L32 55ZM37 55L37 60L38 60L38 56L39 56L39 55ZM23 56L23 57L24 57L24 58L25 58L25 59L26 59L26 58L25 58L25 57L24 57L24 56ZM45 56L45 57L46 57L46 56ZM2 57L2 58L3 58L3 57ZM10 58L10 59L11 59L11 60L10 60L10 61L9 61L9 62L11 62L11 61L12 61L12 59L11 59L11 58ZM57 58L57 59L58 59L58 58ZM62 59L62 60L63 60L63 59ZM3 60L3 61L5 61L5 60ZM23 60L23 63L24 63L24 60ZM33 61L33 64L36 64L36 61ZM61 61L61 64L64 64L64 61ZM34 62L34 63L35 63L35 62ZM45 62L45 63L44 63L44 64L43 64L43 65L45 65L45 63L46 63L46 62ZM62 62L62 63L63 63L63 62ZM13 64L13 65L14 65L14 64ZM15 64L15 65L16 65L16 64ZM20 65L20 67L22 67L22 68L23 68L23 66L21 66L21 65ZM54 65L54 66L55 66L55 65ZM44 66L44 67L45 67L45 66ZM12 67L12 68L14 68L14 67ZM34 67L34 68L35 68L35 67ZM68 67L68 68L69 68L69 67ZM0 0L0 7L7 7L7 0ZM1 1L1 6L6 6L6 1ZM2 2L2 5L5 5L5 2ZM62 0L62 7L69 7L69 0ZM63 1L63 6L68 6L68 1ZM64 2L64 5L67 5L67 2ZM0 62L0 69L7 69L7 62ZM1 63L1 68L6 68L6 63ZM2 64L2 67L5 67L5 64Z" fill="#000000"/></g></g></svg>
