<?xml version="1.0" encoding="UTF-8"?>
<svg xmlns="http://www.w3.org/2000/svg" version="1.1" width="300" height="300" viewBox="0 0 300 300"><rect x="0" y="0" width="300" height="300" fill="#ffffff"/><g transform="scale(4.348)"><g transform="translate(0,0)"><path fill-rule="evenodd" d="M8 0L8 2L9 2L9 0ZM10 0L10 2L11 2L11 3L10 3L10 4L14 4L14 5L13 5L13 6L12 6L12 9L11 9L11 10L12 10L12 9L14 9L14 8L13 8L13 6L14 6L14 7L15 7L15 5L16 5L16 7L17 7L17 8L18 8L18 10L17 10L17 9L16 9L16 8L15 8L15 10L14 10L14 12L13 12L13 11L12 11L12 13L10 13L10 12L11 12L11 11L10 11L10 12L9 12L9 11L8 11L8 12L5 12L5 11L4 11L4 10L5 10L5 9L7 9L7 8L5 8L5 9L4 9L4 10L3 10L3 8L0 8L0 13L2 13L2 14L3 14L3 13L2 13L2 10L3 10L3 12L4 12L4 14L5 14L5 13L7 13L7 14L6 14L6 15L1 15L1 16L2 16L2 17L0 17L0 22L1 22L1 21L2 21L2 17L3 17L3 16L4 16L4 18L5 18L5 19L4 19L4 20L5 20L5 21L4 21L4 22L6 22L6 23L7 23L7 24L5 24L5 25L7 25L7 26L4 26L4 24L3 24L3 23L1 23L1 25L0 25L0 28L1 28L1 29L0 29L0 33L1 33L1 32L3 32L3 33L4 33L4 35L3 35L3 34L1 34L1 35L2 35L2 36L0 36L0 37L1 37L1 38L4 38L4 39L3 39L3 42L4 42L4 43L2 43L2 39L1 39L1 42L0 42L0 43L2 43L2 44L3 44L3 45L0 45L0 46L2 46L2 47L0 47L0 48L2 48L2 47L4 47L4 48L6 48L6 49L5 49L5 50L4 50L4 49L2 49L2 50L0 50L0 52L1 52L1 51L2 51L2 53L1 53L1 54L0 54L0 55L2 55L2 54L4 54L4 53L5 53L5 55L3 55L3 56L2 56L2 57L1 57L1 56L0 56L0 61L1 61L1 58L2 58L2 59L3 59L3 56L6 56L6 57L8 57L8 55L7 55L7 54L6 54L6 53L8 53L8 52L9 52L9 54L12 54L12 56L10 56L10 55L9 55L9 56L10 56L10 57L9 57L9 58L8 58L8 60L6 60L6 61L8 61L8 62L9 62L9 60L11 60L11 61L10 61L10 62L11 62L11 63L12 63L12 65L10 65L10 63L8 63L8 64L9 64L9 66L8 66L8 69L9 69L9 66L12 66L12 68L13 68L13 67L14 67L14 66L16 66L16 67L18 67L18 69L19 69L19 66L18 66L18 65L19 65L19 64L20 64L20 65L21 65L21 64L20 64L20 63L19 63L19 62L20 62L20 61L19 61L19 60L22 60L22 61L21 61L21 63L22 63L22 61L23 61L23 63L24 63L24 64L22 64L22 65L23 65L23 66L22 66L22 67L21 67L21 66L20 66L20 67L21 67L21 69L25 69L25 68L26 68L26 69L27 69L27 68L28 68L28 69L29 69L29 67L28 67L28 66L30 66L30 67L31 67L31 64L32 64L32 66L33 66L33 65L37 65L37 63L39 63L39 62L38 62L38 61L41 61L41 62L40 62L40 65L39 65L39 64L38 64L38 65L39 65L39 66L40 66L40 65L41 65L41 67L42 67L42 69L43 69L43 67L44 67L44 69L45 69L45 67L44 67L44 65L47 65L47 64L48 64L48 65L49 65L49 66L50 66L50 67L48 67L48 66L47 66L47 67L46 67L46 69L47 69L47 68L48 68L48 69L51 69L51 66L50 66L50 65L51 65L51 63L52 63L52 67L53 67L53 68L52 68L52 69L53 69L53 68L54 68L54 69L55 69L55 68L56 68L56 69L57 69L57 68L58 68L58 69L62 69L62 67L61 67L61 66L60 66L60 67L57 67L57 68L56 68L56 66L58 66L58 65L59 65L59 64L60 64L60 65L63 65L63 66L64 66L64 67L65 67L65 69L67 69L67 68L66 68L66 66L65 66L65 65L66 65L66 63L67 63L67 64L68 64L68 65L69 65L69 64L68 64L68 63L69 63L69 62L68 62L68 61L69 61L69 57L68 57L68 56L69 56L69 52L68 52L68 51L69 51L69 46L68 46L68 45L69 45L69 42L68 42L68 40L69 40L69 38L68 38L68 37L69 37L69 32L68 32L68 31L69 31L69 28L68 28L68 27L69 27L69 26L68 26L68 27L67 27L67 26L66 26L66 25L68 25L68 24L69 24L69 20L68 20L68 19L69 19L69 16L68 16L68 15L69 15L69 14L68 14L68 12L69 12L69 10L68 10L68 12L66 12L66 11L67 11L67 9L69 9L69 8L67 8L67 9L65 9L65 8L61 8L61 10L60 10L60 8L59 8L59 10L58 10L58 9L57 9L57 8L58 8L58 7L59 7L59 4L58 4L58 3L59 3L59 2L57 2L57 4L56 4L56 2L55 2L55 1L56 1L56 0L54 0L54 3L53 3L53 2L51 2L51 3L50 3L50 2L46 2L46 1L49 1L49 0L46 0L46 1L45 1L45 2L46 2L46 3L47 3L47 4L46 4L46 5L47 5L47 6L46 6L46 7L47 7L47 8L44 8L44 9L43 9L43 11L41 11L41 13L40 13L40 14L41 14L41 13L42 13L42 12L44 12L44 13L45 13L45 15L44 15L44 17L45 17L45 20L44 20L44 21L43 21L43 23L44 23L44 21L45 21L45 23L47 23L47 26L46 26L46 25L45 25L45 24L44 24L44 25L45 25L45 27L44 27L44 29L43 29L43 28L40 28L40 25L41 25L41 26L42 26L42 27L43 27L43 26L42 26L42 25L43 25L43 24L42 24L42 23L41 23L41 22L40 22L40 21L42 21L42 20L40 20L40 17L41 17L41 18L42 18L42 19L44 19L44 18L42 18L42 17L43 17L43 15L42 15L42 16L40 16L40 17L39 17L39 14L38 14L38 12L39 12L39 11L40 11L40 10L42 10L42 8L43 8L43 4L44 4L44 7L45 7L45 4L44 4L44 2L41 2L41 1L40 1L40 0L38 0L38 2L36 2L36 3L35 3L35 2L34 2L34 3L33 3L33 2L32 2L32 1L34 1L34 0L32 0L32 1L31 1L31 0L29 0L29 1L28 1L28 2L29 2L29 4L28 4L28 3L27 3L27 0L24 0L24 1L26 1L26 3L25 3L25 2L22 2L22 1L23 1L23 0L22 0L22 1L21 1L21 0L18 0L18 2L16 2L16 0L15 0L15 1L14 1L14 2L15 2L15 4L14 4L14 3L13 3L13 1L12 1L12 0ZM42 0L42 1L44 1L44 0ZM50 0L50 1L52 1L52 0ZM58 0L58 1L61 1L61 0ZM11 1L11 2L12 2L12 1ZM20 1L20 2L21 2L21 7L20 7L20 6L19 6L19 7L18 7L18 6L17 6L17 7L18 7L18 8L19 8L19 7L20 7L20 8L21 8L21 7L22 7L22 8L24 8L24 3L22 3L22 2L21 2L21 1ZM29 1L29 2L30 2L30 5L31 5L31 8L30 8L30 6L29 6L29 5L28 5L28 4L27 4L27 3L26 3L26 4L25 4L25 10L24 10L24 11L25 11L25 13L24 13L24 12L23 12L23 13L22 13L22 11L23 11L23 9L22 9L22 11L21 11L21 9L20 9L20 10L19 10L19 12L20 12L20 14L19 14L19 13L18 13L18 12L17 12L17 13L15 13L15 14L14 14L14 15L15 15L15 14L17 14L17 18L16 18L16 17L15 17L15 16L13 16L13 17L15 17L15 18L16 18L16 19L15 19L15 20L14 20L14 19L13 19L13 18L11 18L11 20L12 20L12 22L11 22L11 21L10 21L10 20L9 20L9 19L10 19L10 18L9 18L9 17L12 17L12 15L8 15L8 16L9 16L9 17L8 17L8 18L9 18L9 19L6 19L6 20L9 20L9 21L10 21L10 25L9 25L9 23L8 23L8 21L6 21L6 22L7 22L7 23L8 23L8 24L7 24L7 25L8 25L8 26L7 26L7 27L6 27L6 28L5 28L5 27L4 27L4 26L3 26L3 28L5 28L5 29L6 29L6 30L7 30L7 29L6 29L6 28L7 28L7 27L8 27L8 30L9 30L9 31L8 31L8 32L9 32L9 33L10 33L10 30L9 30L9 28L12 28L12 29L11 29L11 30L12 30L12 29L13 29L13 30L15 30L15 31L16 31L16 30L17 30L17 29L18 29L18 28L19 28L19 29L20 29L20 30L19 30L19 31L18 31L18 32L19 32L19 33L18 33L18 34L19 34L19 35L18 35L18 36L17 36L17 37L16 37L16 35L15 35L15 37L16 37L16 38L17 38L17 39L18 39L18 38L19 38L19 41L20 41L20 42L18 42L18 43L16 43L16 42L17 42L17 41L18 41L18 40L17 40L17 41L16 41L16 39L15 39L15 43L14 43L14 42L13 42L13 43L12 43L12 42L11 42L11 41L14 41L14 40L13 40L13 39L10 39L10 38L14 38L14 37L11 37L11 36L12 36L12 35L11 35L11 36L10 36L10 35L9 35L9 36L10 36L10 37L9 37L9 38L8 38L8 37L6 37L6 38L5 38L5 39L6 39L6 40L5 40L5 41L4 41L4 42L5 42L5 43L6 43L6 44L4 44L4 45L3 45L3 46L4 46L4 47L6 47L6 48L7 48L7 49L6 49L6 50L9 50L9 49L8 49L8 48L9 48L9 47L10 47L10 45L11 45L11 47L12 47L12 48L10 48L10 49L12 49L12 51L9 51L9 52L13 52L13 56L12 56L12 57L13 57L13 58L9 58L9 59L11 59L11 60L12 60L12 61L13 61L13 63L14 63L14 64L13 64L13 65L14 65L14 64L15 64L15 63L16 63L16 66L17 66L17 63L16 63L16 62L17 62L17 61L16 61L16 60L15 60L15 59L14 59L14 60L15 60L15 61L13 61L13 58L14 58L14 57L15 57L15 56L16 56L16 55L14 55L14 53L15 53L15 51L16 51L16 50L17 50L17 52L19 52L19 53L20 53L20 54L18 54L18 55L17 55L17 58L16 58L16 59L17 59L17 58L18 58L18 59L20 59L20 58L21 58L21 59L22 59L22 60L24 60L24 63L25 63L25 64L24 64L24 66L23 66L23 67L22 67L22 68L25 68L25 67L24 67L24 66L27 66L27 64L29 64L29 65L30 65L30 64L31 64L31 63L30 63L30 62L32 62L32 61L30 61L30 59L31 59L31 60L32 60L32 59L31 59L31 58L32 58L32 57L34 57L34 59L33 59L33 60L34 60L34 59L35 59L35 57L36 57L36 56L37 56L37 57L38 57L38 58L40 58L40 59L38 59L38 60L41 60L41 61L42 61L42 62L43 62L43 65L42 65L42 63L41 63L41 65L42 65L42 67L43 67L43 65L44 65L44 63L45 63L45 61L44 61L44 60L47 60L47 61L46 61L46 62L47 62L47 61L48 61L48 64L50 64L50 63L49 63L49 61L50 61L50 62L51 62L51 61L52 61L52 62L53 62L53 63L54 63L54 66L56 66L56 65L55 65L55 62L56 62L56 63L60 63L60 62L59 62L59 61L58 61L58 58L60 58L60 59L59 59L59 60L60 60L60 59L61 59L61 60L62 60L62 57L61 57L61 58L60 58L60 57L58 57L58 56L57 56L57 55L56 55L56 51L55 51L55 52L54 52L54 50L57 50L57 49L56 49L56 48L54 48L54 47L55 47L55 45L56 45L56 47L57 47L57 48L58 48L58 51L60 51L60 49L62 49L62 50L63 50L63 51L65 51L65 50L67 50L67 51L66 51L66 52L67 52L67 51L68 51L68 50L67 50L67 49L68 49L68 48L67 48L67 47L68 47L68 46L67 46L67 45L66 45L66 44L67 44L67 43L68 43L68 42L67 42L67 41L66 41L66 42L67 42L67 43L66 43L66 44L65 44L65 43L64 43L64 42L65 42L65 40L64 40L64 38L66 38L66 40L68 40L68 38L67 38L67 37L68 37L68 32L67 32L67 30L66 30L66 29L68 29L68 28L67 28L67 27L66 27L66 26L65 26L65 25L66 25L66 24L68 24L68 20L67 20L67 19L68 19L68 18L67 18L67 17L68 17L68 16L67 16L67 15L68 15L68 14L67 14L67 15L66 15L66 12L65 12L65 13L64 13L64 12L62 12L62 14L65 14L65 15L63 15L63 17L62 17L62 15L60 15L60 14L61 14L61 12L59 12L59 11L58 11L58 10L57 10L57 9L56 9L56 8L57 8L57 7L58 7L58 6L57 6L57 5L56 5L56 6L55 6L55 5L54 5L54 4L53 4L53 3L52 3L52 4L53 4L53 5L50 5L50 3L48 3L48 6L47 6L47 7L48 7L48 8L47 8L47 9L46 9L46 10L45 10L45 11L44 11L44 12L45 12L45 11L46 11L46 12L47 12L47 13L46 13L46 15L45 15L45 16L46 16L46 20L45 20L45 21L46 21L46 22L47 22L47 23L48 23L48 22L49 22L49 24L50 24L50 22L51 22L51 19L50 19L50 22L49 22L49 21L48 21L48 20L49 20L49 19L48 19L48 18L49 18L49 17L50 17L50 18L52 18L52 19L53 19L53 18L52 18L52 16L53 16L53 15L56 15L56 16L54 16L54 18L56 18L56 19L55 19L55 20L53 20L53 21L52 21L52 23L51 23L51 25L48 25L48 26L47 26L47 27L45 27L45 29L46 29L46 31L47 31L47 32L46 32L46 34L44 34L44 30L43 30L43 29L40 29L40 30L42 30L42 35L41 35L41 34L39 34L39 33L40 33L40 31L39 31L39 32L38 32L38 35L37 35L37 38L35 38L35 37L32 37L32 36L31 36L31 35L32 35L32 32L33 32L33 31L32 31L32 32L31 32L31 33L30 33L30 31L31 31L31 30L30 30L30 27L31 27L31 25L30 25L30 27L29 27L29 24L27 24L27 25L26 25L26 23L29 23L29 21L30 21L30 20L29 20L29 19L28 19L28 18L30 18L30 19L31 19L31 20L32 20L32 21L31 21L31 22L34 22L34 24L35 24L35 25L32 25L32 26L33 26L33 27L34 27L34 28L35 28L35 27L34 27L34 26L35 26L35 25L36 25L36 26L37 26L37 25L36 25L36 24L35 24L35 23L36 23L36 22L37 22L37 19L36 19L36 18L37 18L37 16L38 16L38 15L37 15L37 16L36 16L36 14L37 14L37 12L36 12L36 11L39 11L39 10L40 10L40 6L41 6L41 8L42 8L42 4L43 4L43 3L42 3L42 4L41 4L41 3L40 3L40 4L39 4L39 3L38 3L38 4L39 4L39 5L38 5L38 6L37 6L37 7L38 7L38 6L39 6L39 8L38 8L38 10L37 10L37 9L34 9L34 10L33 10L33 9L32 9L32 2L30 2L30 1ZM39 1L39 2L40 2L40 1ZM18 2L18 4L19 4L19 2ZM34 3L34 4L35 4L35 3ZM60 3L60 5L61 5L61 3ZM8 4L8 9L10 9L10 8L11 8L11 6L10 6L10 8L9 8L9 4ZM16 4L16 5L17 5L17 4ZM26 4L26 5L27 5L27 4ZM33 5L33 8L36 8L36 5ZM39 5L39 6L40 6L40 5ZM49 5L49 6L48 6L48 7L49 7L49 6L50 6L50 7L51 7L51 8L50 8L50 9L49 9L49 8L48 8L48 9L47 9L47 10L46 10L46 11L48 11L48 13L47 13L47 17L49 17L49 16L50 16L50 17L51 17L51 14L52 14L52 15L53 15L53 14L54 14L54 13L55 13L55 14L56 14L56 15L58 15L58 16L56 16L56 17L57 17L57 18L58 18L58 19L59 19L59 20L61 20L61 22L60 22L60 23L59 23L59 22L58 22L58 20L56 20L56 22L54 22L54 21L53 21L53 23L56 23L56 25L57 25L57 26L56 26L56 27L57 27L57 28L56 28L56 29L55 29L55 27L54 27L54 28L52 28L52 29L51 29L51 30L50 30L50 29L49 29L49 28L50 28L50 27L49 27L49 26L48 26L48 29L47 29L47 28L46 28L46 29L47 29L47 30L48 30L48 34L46 34L46 35L44 35L44 34L43 34L43 35L44 35L44 37L43 37L43 36L42 36L42 37L41 37L41 35L39 35L39 36L38 36L38 37L40 37L40 38L38 38L38 39L37 39L37 40L36 40L36 39L35 39L35 38L32 38L32 37L31 37L31 36L30 36L30 37L31 37L31 39L30 39L30 40L31 40L31 42L30 42L30 43L31 43L31 44L30 44L30 50L31 50L31 51L30 51L30 53L29 53L29 54L28 54L28 53L27 53L27 51L26 51L26 49L27 49L27 48L28 48L28 49L29 49L29 48L28 48L28 47L27 47L27 46L28 46L28 45L29 45L29 43L28 43L28 41L29 41L29 39L28 39L28 37L29 37L29 35L30 35L30 33L29 33L29 32L28 32L28 29L29 29L29 28L28 28L28 27L26 27L26 26L24 26L24 27L26 27L26 29L27 29L27 31L26 31L26 32L27 32L27 34L24 34L24 33L25 33L25 31L24 31L24 29L23 29L23 26L22 26L22 28L20 28L20 29L21 29L21 31L22 31L22 30L23 30L23 32L22 32L22 33L23 33L23 34L24 34L24 35L27 35L27 36L26 36L26 39L28 39L28 40L26 40L26 41L27 41L27 44L26 44L26 43L24 43L24 42L25 42L25 39L23 39L23 38L24 38L24 37L23 37L23 36L22 36L22 35L21 35L21 34L20 34L20 35L21 35L21 38L20 38L20 37L19 37L19 36L18 36L18 37L19 37L19 38L20 38L20 40L21 40L21 42L20 42L20 43L18 43L18 46L19 46L19 47L18 47L18 48L19 48L19 52L20 52L20 53L21 53L21 51L22 51L22 53L23 53L23 55L22 55L22 56L24 56L24 57L25 57L25 58L24 58L24 59L25 59L25 58L26 58L26 59L27 59L27 60L26 60L26 61L25 61L25 62L26 62L26 61L27 61L27 62L28 62L28 63L29 63L29 62L30 62L30 61L29 61L29 60L28 60L28 59L29 59L29 58L30 58L30 57L32 57L32 56L30 56L30 55L33 55L33 56L34 56L34 57L35 57L35 54L36 54L36 53L37 53L37 55L39 55L39 54L40 54L40 58L41 58L41 59L43 59L43 60L44 60L44 59L48 59L48 61L49 61L49 60L50 60L50 61L51 61L51 58L50 58L50 56L49 56L49 55L50 55L50 51L52 51L52 54L53 54L53 55L51 55L51 56L52 56L52 61L54 61L54 60L53 60L53 59L55 59L55 60L56 60L56 61L57 61L57 62L58 62L58 61L57 61L57 60L56 60L56 59L57 59L57 58L58 58L58 57L57 57L57 56L56 56L56 57L57 57L57 58L54 58L54 57L55 57L55 55L54 55L54 52L53 52L53 50L54 50L54 48L53 48L53 47L50 47L50 44L49 44L49 42L50 42L50 43L51 43L51 44L52 44L52 45L51 45L51 46L52 46L52 45L54 45L54 44L52 44L52 43L54 43L54 41L55 41L55 42L56 42L56 41L57 41L57 44L56 44L56 43L55 43L55 44L56 44L56 45L57 45L57 47L59 47L59 49L60 49L60 48L62 48L62 49L63 49L63 50L64 50L64 49L66 49L66 47L67 47L67 46L64 46L64 43L63 43L63 41L62 41L62 42L61 42L61 41L60 41L60 40L63 40L63 37L65 37L65 36L66 36L66 35L65 35L65 34L66 34L66 33L65 33L65 32L66 32L66 30L65 30L65 26L64 26L64 25L65 25L65 24L66 24L66 22L67 22L67 20L66 20L66 19L67 19L67 18L66 18L66 17L67 17L67 16L66 16L66 15L65 15L65 16L64 16L64 19L65 19L65 20L64 20L64 21L66 21L66 22L62 22L62 21L63 21L63 20L61 20L61 19L62 19L62 17L61 17L61 16L60 16L60 15L59 15L59 14L58 14L58 12L57 12L57 11L56 11L56 10L54 10L54 9L53 9L53 8L54 8L54 7L55 7L55 8L56 8L56 7L57 7L57 6L56 6L56 7L55 7L55 6L54 6L54 7L53 7L53 6L52 6L52 7L51 7L51 6L50 6L50 5ZM22 6L22 7L23 7L23 6ZM26 6L26 7L27 7L27 8L26 8L26 9L27 9L27 10L28 10L28 13L27 13L27 11L26 11L26 10L25 10L25 11L26 11L26 14L25 14L25 15L24 15L24 13L23 13L23 14L22 14L22 15L24 15L24 16L25 16L25 18L26 18L26 21L25 21L25 20L24 20L24 21L23 21L23 20L22 20L22 19L24 19L24 18L22 18L22 17L23 17L23 16L22 16L22 17L21 17L21 14L20 14L20 16L19 16L19 15L18 15L18 16L19 16L19 20L18 20L18 18L17 18L17 19L16 19L16 21L14 21L14 22L12 22L12 23L11 23L11 24L13 24L13 23L14 23L14 22L15 22L15 24L14 24L14 25L13 25L13 26L11 26L11 27L12 27L12 28L13 28L13 26L14 26L14 27L15 27L15 30L16 30L16 29L17 29L17 28L18 28L18 27L16 27L16 26L17 26L17 23L18 23L18 26L19 26L19 23L20 23L20 24L21 24L21 23L20 23L20 20L22 20L22 21L23 21L23 22L24 22L24 21L25 21L25 22L28 22L28 21L29 21L29 20L27 20L27 18L26 18L26 17L27 17L27 16L28 16L28 17L29 17L29 16L30 16L30 17L31 17L31 18L33 18L33 20L34 20L34 22L35 22L35 21L36 21L36 20L34 20L34 18L33 18L33 17L32 17L32 14L31 14L31 10L28 10L28 9L27 9L27 8L28 8L28 7L29 7L29 6L28 6L28 7L27 7L27 6ZM34 6L34 7L35 7L35 6ZM60 6L60 7L61 7L61 6ZM48 9L48 11L49 11L49 9ZM50 9L50 11L52 11L52 12L50 12L50 14L49 14L49 13L48 13L48 15L50 15L50 14L51 14L51 13L52 13L52 14L53 14L53 13L52 13L52 12L53 12L53 11L54 11L54 12L55 12L55 13L56 13L56 14L57 14L57 13L56 13L56 12L55 12L55 11L54 11L54 10L53 10L53 9ZM62 9L62 11L63 11L63 10L64 10L64 11L66 11L66 10L64 10L64 9ZM6 10L6 11L7 11L7 10ZM16 10L16 11L17 11L17 10ZM32 10L32 11L33 11L33 10ZM34 10L34 11L35 11L35 10ZM29 11L29 13L28 13L28 14L27 14L27 15L26 15L26 16L27 16L27 15L28 15L28 16L29 16L29 15L30 15L30 14L29 14L29 13L30 13L30 11ZM8 12L8 14L9 14L9 12ZM32 12L32 13L33 13L33 12ZM35 13L35 14L34 14L34 15L35 15L35 14L36 14L36 13ZM6 15L6 16L5 16L5 17L6 17L6 18L7 18L7 17L6 17L6 16L7 16L7 15ZM34 16L34 17L35 17L35 18L36 18L36 16ZM58 16L58 18L59 18L59 17L60 17L60 18L61 18L61 17L60 17L60 16ZM38 17L38 18L39 18L39 17ZM20 18L20 19L21 19L21 18ZM65 18L65 19L66 19L66 18ZM38 20L38 21L40 21L40 20ZM16 21L16 23L17 23L17 21ZM47 21L47 22L48 22L48 21ZM18 22L18 23L19 23L19 22ZM22 23L22 24L24 24L24 25L25 25L25 24L24 24L24 23ZM30 23L30 24L31 24L31 23ZM32 23L32 24L33 24L33 23ZM37 23L37 24L39 24L39 25L38 25L38 28L37 28L37 27L36 27L36 28L37 28L37 29L38 29L38 30L39 30L39 25L40 25L40 24L41 24L41 23L40 23L40 24L39 24L39 23ZM57 23L57 24L58 24L58 23ZM63 23L63 25L62 25L62 26L61 26L61 24L60 24L60 27L59 27L59 25L58 25L58 27L59 27L59 28L57 28L57 29L58 29L58 30L57 30L57 31L56 31L56 30L55 30L55 29L54 29L54 32L53 32L53 31L50 31L50 30L49 30L49 35L48 35L48 36L47 36L47 35L46 35L46 39L45 39L45 38L43 38L43 37L42 37L42 39L41 39L41 41L42 41L42 42L39 42L39 41L40 41L40 39L39 39L39 40L37 40L37 41L34 41L34 39L33 39L33 41L34 41L34 42L33 42L33 43L34 43L34 42L37 42L37 43L36 43L36 44L37 44L37 45L36 45L36 46L37 46L37 48L36 48L36 49L37 49L37 48L38 48L38 50L39 50L39 49L40 49L40 51L41 51L41 52L42 52L42 51L41 51L41 49L40 49L40 48L41 48L41 47L43 47L43 46L44 46L44 44L45 44L45 43L47 43L47 41L48 41L48 42L49 42L49 41L48 41L48 40L51 40L51 41L50 41L50 42L53 42L53 41L54 41L54 40L55 40L55 41L56 41L56 40L58 40L58 39L57 39L57 38L56 38L56 36L57 36L57 37L58 37L58 38L59 38L59 40L60 40L60 37L59 37L59 36L60 36L60 34L59 34L59 33L58 33L58 30L59 30L59 29L60 29L60 31L59 31L59 32L60 32L60 31L61 31L61 32L62 32L62 31L61 31L61 29L62 29L62 30L63 30L63 31L64 31L64 30L63 30L63 29L64 29L64 28L63 28L63 27L64 27L64 26L63 26L63 25L64 25L64 23ZM52 24L52 25L51 25L51 27L53 27L53 24ZM8 26L8 27L9 27L9 26ZM62 26L62 27L60 27L60 29L61 29L61 28L62 28L62 27L63 27L63 26ZM1 27L1 28L2 28L2 27ZM27 28L27 29L28 29L28 28ZM32 28L32 29L33 29L33 28ZM1 29L1 30L2 30L2 29ZM3 29L3 30L4 30L4 31L5 31L5 30L4 30L4 29ZM34 30L34 31L36 31L36 32L37 32L37 31L36 31L36 30ZM6 31L6 32L7 32L7 31ZM11 31L11 34L13 34L13 35L14 35L14 34L17 34L17 32L15 32L15 33L14 33L14 31ZM55 31L55 32L54 32L54 33L53 33L53 32L52 32L52 33L53 33L53 34L51 34L51 35L50 35L50 37L49 37L49 36L48 36L48 38L47 38L47 39L46 39L46 41L45 41L45 40L44 40L44 41L43 41L43 39L42 39L42 41L43 41L43 42L42 42L42 43L41 43L41 44L42 44L42 45L43 45L43 44L44 44L44 41L45 41L45 42L46 42L46 41L47 41L47 39L49 39L49 38L50 38L50 39L52 39L52 38L54 38L54 39L55 39L55 40L56 40L56 39L55 39L55 38L54 38L54 37L55 37L55 36L56 36L56 34L55 34L55 36L54 36L54 35L53 35L53 34L54 34L54 33L55 33L55 32L56 32L56 33L57 33L57 32L56 32L56 31ZM12 32L12 33L13 33L13 34L14 34L14 33L13 33L13 32ZM20 32L20 33L21 33L21 32ZM5 33L5 36L8 36L8 33ZM33 33L33 36L36 36L36 33ZM61 33L61 36L64 36L64 33ZM6 34L6 35L7 35L7 34ZM28 34L28 35L29 35L29 34ZM34 34L34 35L35 35L35 34ZM62 34L62 35L63 35L63 34ZM52 35L52 36L51 36L51 37L50 37L50 38L52 38L52 36L53 36L53 35ZM57 35L57 36L59 36L59 35ZM6 38L6 39L7 39L7 38ZM61 38L61 39L62 39L62 38ZM9 39L9 40L8 40L8 42L6 42L6 43L8 43L8 44L6 44L6 45L4 45L4 46L6 46L6 47L8 47L8 46L9 46L9 45L10 45L10 44L11 44L11 45L12 45L12 46L13 46L13 45L12 45L12 43L10 43L10 42L9 42L9 41L11 41L11 40L10 40L10 39ZM22 39L22 40L23 40L23 39ZM31 39L31 40L32 40L32 39ZM6 40L6 41L7 41L7 40ZM52 40L52 41L53 41L53 40ZM22 41L22 42L23 42L23 41ZM37 41L37 42L38 42L38 45L39 45L39 42L38 42L38 41ZM58 41L58 44L59 44L59 42L60 42L60 41ZM9 43L9 44L8 44L8 45L9 45L9 44L10 44L10 43ZM13 43L13 44L14 44L14 46L16 46L16 48L15 48L15 49L13 49L13 50L14 50L14 51L13 51L13 52L14 52L14 51L15 51L15 50L16 50L16 48L17 48L17 46L16 46L16 44L14 44L14 43ZM21 43L21 44L19 44L19 45L20 45L20 46L21 46L21 45L22 45L22 46L23 46L23 49L22 49L22 47L19 47L19 48L21 48L21 50L20 50L20 51L21 51L21 50L23 50L23 52L24 52L24 56L25 56L25 57L26 57L26 58L27 58L27 57L26 57L26 55L27 55L27 56L29 56L29 55L28 55L28 54L27 54L27 53L26 53L26 51L24 51L24 50L25 50L25 48L24 48L24 46L25 46L25 45L26 45L26 46L27 46L27 45L26 45L26 44L25 44L25 45L24 45L24 46L23 46L23 45L22 45L22 44L23 44L23 43ZM42 43L42 44L43 44L43 43ZM32 44L32 45L31 45L31 46L32 46L32 47L31 47L31 48L34 48L34 47L35 47L35 45L34 45L34 44ZM46 44L46 46L45 46L45 47L44 47L44 48L43 48L43 49L42 49L42 50L43 50L43 53L42 53L42 56L41 56L41 57L42 57L42 58L45 58L45 57L46 57L46 58L48 58L48 57L47 57L47 55L45 55L45 54L44 54L44 51L46 51L46 50L48 50L48 52L46 52L46 54L47 54L47 53L48 53L48 52L49 52L49 51L50 51L50 50L52 50L52 49L50 49L50 47L49 47L49 45L48 45L48 44ZM60 44L60 46L61 46L61 47L62 47L62 48L63 48L63 49L64 49L64 46L63 46L63 47L62 47L62 45L61 45L61 44ZM6 45L6 46L7 46L7 45ZM33 45L33 46L34 46L34 45ZM40 45L40 46L41 46L41 45ZM47 45L47 48L44 48L44 50L46 50L46 49L47 49L47 48L48 48L48 50L50 50L50 49L49 49L49 47L48 47L48 45ZM58 45L58 46L59 46L59 45ZM26 47L26 48L27 48L27 47ZM38 47L38 48L39 48L39 47ZM2 50L2 51L3 51L3 53L4 53L4 51L3 51L3 50ZM28 50L28 51L29 51L29 50ZM6 51L6 52L7 52L7 51ZM34 51L34 52L35 52L35 51ZM36 51L36 52L37 52L37 51ZM31 52L31 53L30 53L30 54L32 54L32 53L33 53L33 52ZM38 52L38 53L39 53L39 52ZM58 52L58 55L59 55L59 56L60 56L60 54L59 54L59 52ZM16 53L16 54L17 54L17 53ZM25 53L25 54L26 54L26 53ZM34 53L34 54L35 54L35 53ZM40 53L40 54L41 54L41 53ZM61 53L61 56L62 56L62 54L63 54L63 56L64 56L64 54L66 54L66 53L64 53L64 54L63 54L63 53ZM67 53L67 55L66 55L66 57L64 57L64 58L63 58L63 59L64 59L64 60L65 60L65 61L66 61L66 62L67 62L67 63L68 63L68 62L67 62L67 61L68 61L68 57L67 57L67 56L68 56L68 53ZM43 54L43 55L44 55L44 57L45 57L45 55L44 55L44 54ZM6 55L6 56L7 56L7 55ZM53 55L53 56L54 56L54 55ZM18 56L18 58L20 58L20 56ZM4 57L4 59L7 59L7 58L5 58L5 57ZM28 57L28 58L29 58L29 57ZM66 57L66 59L65 59L65 60L66 60L66 61L67 61L67 60L66 60L66 59L67 59L67 57ZM22 58L22 59L23 59L23 58ZM36 58L36 60L37 60L37 58ZM3 60L3 61L5 61L5 60ZM27 60L27 61L28 61L28 62L29 62L29 61L28 61L28 60ZM15 61L15 62L14 62L14 63L15 63L15 62L16 62L16 61ZM33 61L33 64L36 64L36 61ZM61 61L61 64L64 64L64 61ZM34 62L34 63L35 63L35 62ZM62 62L62 63L63 63L63 62ZM18 63L18 64L19 64L19 63ZM26 63L26 64L27 64L27 63ZM46 63L46 64L47 64L47 63ZM35 66L35 69L37 69L37 68L36 68L36 66ZM67 66L67 67L69 67L69 66ZM10 67L10 69L11 69L11 67ZM39 67L39 68L38 68L38 69L39 69L39 68L40 68L40 69L41 69L41 68L40 68L40 67ZM15 68L15 69L16 69L16 68ZM30 68L30 69L31 69L31 68ZM32 68L32 69L34 69L34 68ZM68 68L68 69L69 69L69 68ZM0 0L0 7L7 7L7 0ZM1 1L1 6L6 6L6 1ZM2 2L2 5L5 5L5 2ZM62 0L62 7L69 7L69 0ZM63 1L63 6L68 6L68 1ZM64 2L64 5L67 5L67 2ZM0 62L0 69L7 69L7 62ZM1 63L1 68L6 68L6 63ZM2 64L2 67L5 67L5 64Z" fill="#000000"/></g></g></svg>
