<?xml version="1.0" encoding="UTF-8"?>
<svg xmlns="http://www.w3.org/2000/svg" version="1.1" width="300" height="300" viewBox="0 0 300 300"><rect x="0" y="0" width="300" height="300" fill="#ffffff"/><g transform="scale(4.348)"><g transform="translate(0,0)"><path fill-rule="evenodd" d="M8 0L8 4L9 4L9 5L8 5L8 7L9 7L9 5L10 5L10 7L11 7L11 9L10 9L10 10L9 10L9 9L7 9L7 8L4 8L4 10L2 10L2 8L0 8L0 10L2 10L2 13L1 13L1 12L0 12L0 13L1 13L1 16L0 16L0 18L1 18L1 16L4 16L4 17L3 17L3 18L2 18L2 19L1 19L1 20L0 20L0 24L1 24L1 20L2 20L2 21L4 21L4 22L3 22L3 23L5 23L5 26L2 26L2 25L1 25L1 26L2 26L2 27L0 27L0 34L1 34L1 35L2 35L2 36L1 36L1 37L0 37L0 38L2 38L2 40L0 40L0 42L2 42L2 43L0 43L0 44L2 44L2 43L4 43L4 42L5 42L5 43L7 43L7 44L6 44L6 45L7 45L7 46L6 46L6 47L5 47L5 45L4 45L4 44L3 44L3 45L2 45L2 46L0 46L0 47L1 47L1 49L2 49L2 50L3 50L3 51L2 51L2 52L4 52L4 53L1 53L1 52L0 52L0 53L1 53L1 54L4 54L4 55L2 55L2 56L4 56L4 55L7 55L7 54L4 54L4 53L7 53L7 52L5 52L5 51L8 51L8 54L9 54L9 53L10 53L10 56L9 56L9 55L8 55L8 56L9 56L9 57L7 57L7 56L6 56L6 57L7 57L7 58L4 58L4 57L2 57L2 59L3 59L3 58L4 58L4 59L7 59L7 60L6 60L6 61L7 61L7 60L9 60L9 61L8 61L8 62L9 62L9 63L8 63L8 65L9 65L9 64L10 64L10 63L11 63L11 62L12 62L12 64L11 64L11 65L12 65L12 66L9 66L9 67L8 67L8 69L9 69L9 67L11 67L11 68L10 68L10 69L11 69L11 68L12 68L12 69L13 69L13 65L15 65L15 66L16 66L16 65L15 65L15 64L17 64L17 63L18 63L18 61L20 61L20 62L21 62L21 63L22 63L22 64L20 64L20 63L19 63L19 64L18 64L18 65L17 65L17 66L19 66L19 67L18 67L18 68L17 68L17 67L16 67L16 68L15 68L15 67L14 67L14 68L15 68L15 69L20 69L20 68L19 68L19 67L20 67L20 66L22 66L22 67L21 67L21 69L22 69L22 67L23 67L23 68L24 68L24 69L25 69L25 68L26 68L26 69L28 69L28 68L27 68L27 67L28 67L28 66L29 66L29 69L31 69L31 68L32 68L32 69L35 69L35 66L34 66L34 65L37 65L37 66L36 66L36 67L39 67L39 68L38 68L38 69L40 69L40 67L39 67L39 66L40 66L40 63L41 63L41 68L43 68L43 63L42 63L42 62L43 62L43 61L42 61L42 58L45 58L45 59L44 59L44 62L46 62L46 64L47 64L47 65L48 65L48 66L47 66L47 67L50 67L50 66L51 66L51 67L52 67L52 68L47 68L47 69L52 69L52 68L55 68L55 65L56 65L56 66L57 66L57 67L56 67L56 69L57 69L57 67L58 67L58 69L59 69L59 67L58 67L58 65L59 65L59 64L58 64L58 61L59 61L59 63L60 63L60 66L61 66L61 68L60 68L60 69L64 69L64 67L66 67L66 66L64 66L64 65L65 65L65 63L66 63L66 62L67 62L67 64L68 64L68 65L67 65L67 66L69 66L69 64L68 64L68 62L69 62L69 60L68 60L68 56L69 56L69 55L68 55L68 53L69 53L69 52L68 52L68 50L67 50L67 52L65 52L65 53L66 53L66 54L67 54L67 55L68 55L68 56L64 56L64 55L65 55L65 54L64 54L64 53L63 53L63 52L64 52L64 49L63 49L63 48L65 48L65 47L66 47L66 46L67 46L67 48L68 48L68 49L69 49L69 48L68 48L68 46L67 46L67 44L68 44L68 45L69 45L69 44L68 44L68 40L69 40L69 39L68 39L68 38L69 38L69 35L68 35L68 33L69 33L69 32L67 32L67 33L66 33L66 32L63 32L63 29L64 29L64 31L68 31L68 30L69 30L69 29L67 29L67 30L65 30L65 29L66 29L66 28L65 28L65 29L64 29L64 27L65 27L65 25L66 25L66 26L67 26L67 28L68 28L68 21L69 21L69 20L68 20L68 18L67 18L67 17L69 17L69 15L68 15L68 13L67 13L67 12L65 12L65 13L64 13L64 12L63 12L63 11L65 11L65 10L66 10L66 9L67 9L67 11L68 11L68 10L69 10L69 8L65 8L65 10L63 10L63 9L64 9L64 8L63 8L63 9L62 9L62 10L63 10L63 11L61 11L61 9L60 9L60 8L59 8L59 4L57 4L57 5L56 5L56 3L59 3L59 2L58 2L58 1L61 1L61 0L56 0L56 1L55 1L55 0L52 0L52 1L51 1L51 0L50 0L50 2L49 2L49 1L48 1L48 0L47 0L47 1L44 1L44 0L40 0L40 8L38 8L38 7L39 7L39 4L38 4L38 3L37 3L37 2L38 2L38 1L39 1L39 0L38 0L38 1L36 1L36 0L35 0L35 1L36 1L36 3L35 3L35 2L34 2L34 4L32 4L32 5L31 5L31 4L29 4L29 3L28 3L28 4L27 4L27 5L28 5L28 7L27 7L27 6L26 6L26 7L25 7L25 6L24 6L24 7L25 7L25 8L24 8L24 9L23 9L23 11L22 11L22 9L21 9L21 8L20 8L20 10L18 10L18 9L19 9L19 8L18 8L18 9L17 9L17 10L16 10L16 9L14 9L14 8L15 8L15 6L16 6L16 8L17 8L17 6L16 6L16 5L17 5L17 4L15 4L15 3L19 3L19 4L18 4L18 7L19 7L19 4L20 4L20 7L21 7L21 5L25 5L25 4L24 4L24 3L27 3L27 1L28 1L28 2L30 2L30 3L31 3L31 2L32 2L32 1L33 1L33 0L32 0L32 1L31 1L31 0L30 0L30 1L29 1L29 0L23 0L23 1L24 1L24 2L23 2L23 3L22 3L22 4L21 4L21 3L19 3L19 1L20 1L20 2L21 2L21 1L22 1L22 0L15 0L15 1L14 1L14 0L13 0L13 1L12 1L12 2L11 2L11 3L12 3L12 4L9 4L9 2L10 2L10 1L11 1L11 0L10 0L10 1L9 1L9 0ZM13 1L13 2L14 2L14 3L15 3L15 2L16 2L16 1L15 1L15 2L14 2L14 1ZM17 1L17 2L18 2L18 1ZM41 1L41 2L42 2L42 1ZM47 1L47 3L48 3L48 4L46 4L46 5L44 5L44 4L45 4L45 3L46 3L46 2L45 2L45 3L44 3L44 2L43 2L43 3L44 3L44 4L43 4L43 5L44 5L44 6L43 6L43 8L40 8L40 9L39 9L39 11L37 11L37 12L36 12L36 13L34 13L34 11L36 11L36 9L35 9L35 10L34 10L34 9L32 9L32 11L31 11L31 13L32 13L32 12L33 12L33 14L31 14L31 15L32 15L32 16L31 16L31 19L32 19L32 20L31 20L31 21L28 21L28 22L27 22L27 21L26 21L26 19L28 19L28 18L30 18L30 17L29 17L29 16L30 16L30 15L29 15L29 11L30 11L30 9L31 9L31 8L30 8L30 9L28 9L28 8L29 8L29 7L30 7L30 6L31 6L31 7L32 7L32 6L31 6L31 5L30 5L30 6L29 6L29 7L28 7L28 8L27 8L27 7L26 7L26 8L25 8L25 9L24 9L24 10L26 10L26 11L25 11L25 12L24 12L24 11L23 11L23 12L22 12L22 18L21 18L21 17L19 17L19 16L20 16L20 15L19 15L19 16L18 16L18 17L17 17L17 19L20 19L20 18L21 18L21 20L22 20L22 22L21 22L21 23L22 23L22 24L23 24L23 20L25 20L25 22L26 22L26 23L24 23L24 24L25 24L25 25L26 25L26 24L27 24L27 25L28 25L28 26L27 26L27 27L28 27L28 26L29 26L29 27L33 27L33 28L32 28L32 29L31 29L31 31L32 31L32 32L38 32L38 33L37 33L37 37L36 37L36 39L35 39L35 40L34 40L34 38L35 38L35 37L33 37L33 39L32 39L32 36L31 36L31 35L32 35L32 33L31 33L31 35L29 35L29 34L28 34L28 35L27 35L27 34L26 34L26 35L24 35L24 36L25 36L25 37L26 37L26 36L27 36L27 37L28 37L28 38L29 38L29 39L30 39L30 37L29 37L29 36L31 36L31 40L30 40L30 41L26 41L26 40L25 40L25 38L24 38L24 39L23 39L23 40L22 40L22 39L21 39L21 38L20 38L20 37L21 37L21 34L20 34L20 35L19 35L19 36L20 36L20 37L16 37L16 36L17 36L17 35L16 35L16 36L15 36L15 35L13 35L13 36L15 36L15 37L16 37L16 38L15 38L15 39L14 39L14 40L16 40L16 41L15 41L15 42L14 42L14 41L13 41L13 44L12 44L12 41L11 41L11 39L12 39L12 38L11 38L11 39L9 39L9 38L10 38L10 37L8 37L8 38L7 38L7 37L3 37L3 36L2 36L2 38L3 38L3 39L5 39L5 40L7 40L7 41L5 41L5 42L7 42L7 41L8 41L8 42L9 42L9 43L8 43L8 44L7 44L7 45L8 45L8 46L7 46L7 47L6 47L6 48L5 48L5 47L4 47L4 46L3 46L3 47L2 47L2 49L4 49L4 51L5 51L5 49L6 49L6 50L8 50L8 51L9 51L9 52L10 52L10 53L13 53L13 54L11 54L11 55L12 55L12 56L13 56L13 57L11 57L11 58L12 58L12 59L13 59L13 58L14 58L14 59L15 59L15 60L14 60L14 61L16 61L16 62L13 62L13 63L14 63L14 64L15 64L15 63L16 63L16 62L17 62L17 61L18 61L18 59L19 59L19 60L22 60L22 63L23 63L23 64L22 64L22 66L23 66L23 64L25 64L25 65L29 65L29 66L30 66L30 65L29 65L29 64L28 64L28 63L29 63L29 60L30 60L30 59L28 59L28 62L27 62L27 64L26 64L26 63L25 63L25 62L26 62L26 59L27 59L27 57L28 57L28 58L29 58L29 57L30 57L30 56L31 56L31 57L32 57L32 58L31 58L31 59L35 59L35 60L38 60L38 61L37 61L37 65L38 65L38 64L39 64L39 63L40 63L40 62L41 62L41 60L38 60L38 56L37 56L37 55L39 55L39 52L40 52L40 54L41 54L41 55L40 55L40 57L39 57L39 58L40 58L40 59L41 59L41 58L40 58L40 57L41 57L41 56L42 56L42 57L44 57L44 54L45 54L45 53L46 53L46 54L47 54L47 55L49 55L49 56L50 56L50 57L49 57L49 58L48 58L48 57L46 57L46 58L47 58L47 59L45 59L45 61L46 61L46 62L47 62L47 59L49 59L49 60L50 60L50 61L49 61L49 63L48 63L48 64L49 64L49 66L50 66L50 63L51 63L51 64L52 64L52 65L51 65L51 66L52 66L52 65L53 65L53 67L54 67L54 65L55 65L55 62L56 62L56 60L57 60L57 61L58 61L58 60L59 60L59 61L60 61L60 59L61 59L61 60L62 60L62 59L63 59L63 60L64 60L64 59L63 59L63 57L64 57L64 58L65 58L65 57L64 57L64 56L63 56L63 55L64 55L64 54L63 54L63 53L62 53L62 52L61 52L61 53L60 53L60 52L59 52L59 51L63 51L63 49L61 49L61 48L58 48L58 47L56 47L56 48L55 48L55 46L54 46L54 47L53 47L53 48L52 48L52 49L51 49L51 50L50 50L50 49L47 49L47 48L45 48L45 46L44 46L44 45L43 45L43 47L44 47L44 48L43 48L43 49L44 49L44 50L45 50L45 53L44 53L44 51L43 51L43 50L42 50L42 51L41 51L41 49L42 49L42 45L41 45L41 46L40 46L40 45L39 45L39 43L41 43L41 44L43 44L43 43L44 43L44 40L45 40L45 39L43 39L43 42L38 42L38 41L37 41L37 42L34 42L34 45L33 45L33 44L32 44L32 42L33 42L33 40L34 40L34 41L35 41L35 40L37 40L37 37L38 37L38 36L40 36L40 37L41 37L41 39L40 39L40 38L38 38L38 39L40 39L40 41L41 41L41 39L42 39L42 37L43 37L43 38L45 38L45 37L46 37L46 42L45 42L45 45L46 45L46 47L47 47L47 44L48 44L48 43L47 43L47 39L48 39L48 40L49 40L49 41L48 41L48 42L50 42L50 45L49 45L49 47L50 47L50 45L51 45L51 44L52 44L52 45L56 45L56 46L57 46L57 45L56 45L56 44L58 44L58 46L60 46L60 45L61 45L61 46L62 46L62 48L63 48L63 46L62 46L62 43L63 43L63 44L64 44L64 47L65 47L65 46L66 46L66 44L67 44L67 38L68 38L68 35L65 35L65 37L63 37L63 38L62 38L62 37L60 37L60 36L58 36L58 34L59 34L59 35L60 35L60 34L59 34L59 33L60 33L60 32L61 32L61 31L62 31L62 29L61 29L61 31L60 31L60 30L59 30L59 25L60 25L60 24L61 24L61 22L62 22L62 25L65 25L65 24L67 24L67 23L65 23L65 22L66 22L66 21L68 21L68 20L67 20L67 18L66 18L66 21L65 21L65 20L64 20L64 22L62 22L62 21L63 21L63 20L62 20L62 15L64 15L64 14L62 14L62 13L63 13L63 12L62 12L62 13L61 13L61 12L60 12L60 11L59 11L59 10L60 10L60 9L59 9L59 8L58 8L58 6L57 6L57 9L58 9L58 10L56 10L56 9L55 9L55 10L53 10L53 12L52 12L52 13L54 13L54 12L55 12L55 10L56 10L56 11L58 11L58 14L59 14L59 15L60 15L60 16L58 16L58 19L57 19L57 20L58 20L58 19L59 19L59 17L61 17L61 20L62 20L62 21L61 21L61 22L59 22L59 21L60 21L60 20L59 20L59 21L57 21L57 23L56 23L56 24L55 24L55 23L54 23L54 24L52 24L52 23L51 23L51 22L50 22L50 20L51 20L51 21L52 21L52 22L53 22L53 20L54 20L54 19L56 19L56 18L57 18L57 17L56 17L56 16L57 16L57 15L56 15L56 13L55 13L55 15L56 15L56 16L55 16L55 17L56 17L56 18L53 18L53 16L54 16L54 15L53 15L53 14L52 14L52 15L53 15L53 16L52 16L52 17L51 17L51 14L50 14L50 12L49 12L49 15L46 15L46 14L47 14L47 12L46 12L46 14L45 14L45 15L46 15L46 19L44 19L44 18L41 18L41 17L42 17L42 16L40 16L40 19L39 19L39 18L38 18L38 17L39 17L39 16L38 16L38 15L37 15L37 14L36 14L36 13L38 13L38 12L39 12L39 11L41 11L41 14L40 14L40 13L39 13L39 15L42 15L42 13L43 13L43 14L44 14L44 12L42 12L42 10L40 10L40 9L43 9L43 11L46 11L46 10L47 10L47 8L49 8L49 10L50 10L50 8L49 8L49 7L50 7L50 6L51 6L51 7L52 7L52 9L51 9L51 11L52 11L52 9L54 9L54 8L55 8L55 7L56 7L56 6L55 6L55 7L54 7L54 5L49 5L49 3L48 3L48 1ZM53 1L53 2L54 2L54 3L56 3L56 2L55 2L55 1ZM50 3L50 4L52 4L52 3ZM60 3L60 5L61 5L61 3ZM28 4L28 5L29 5L29 4ZM11 5L11 7L12 7L12 5ZM13 5L13 8L12 8L12 9L11 9L11 11L12 11L12 12L10 12L10 13L8 13L8 10L7 10L7 9L6 9L6 10L4 10L4 11L3 11L3 12L4 12L4 11L5 11L5 12L7 12L7 13L6 13L6 14L4 14L4 15L6 15L6 16L5 16L5 17L6 17L6 18L8 18L8 19L9 19L9 18L12 18L12 17L11 17L11 16L13 16L13 20L14 20L14 19L15 19L15 18L14 18L14 15L18 15L18 14L17 14L17 13L16 13L16 10L15 10L15 11L12 11L12 9L13 9L13 8L14 8L14 5ZM33 5L33 8L36 8L36 5ZM37 5L37 7L38 7L38 5ZM48 5L48 7L49 7L49 5ZM22 6L22 8L23 8L23 6ZM34 6L34 7L35 7L35 6ZM41 6L41 7L42 7L42 6ZM44 6L44 7L45 7L45 8L44 8L44 9L45 9L45 10L46 10L46 9L45 9L45 8L47 8L47 6L46 6L46 7L45 7L45 6ZM52 6L52 7L53 7L53 6ZM60 6L60 7L61 7L61 6ZM26 8L26 10L27 10L27 11L26 11L26 13L23 13L23 15L24 15L24 14L26 14L26 13L27 13L27 14L28 14L28 12L27 12L27 11L28 11L28 9L27 9L27 8ZM37 8L37 10L38 10L38 8ZM6 10L6 11L7 11L7 10ZM20 10L20 11L21 11L21 10ZM33 10L33 11L34 11L34 10ZM18 11L18 12L19 12L19 13L21 13L21 12L19 12L19 11ZM14 12L14 13L13 13L13 14L12 14L12 15L14 15L14 13L15 13L15 12ZM59 12L59 14L61 14L61 15L62 15L62 14L61 14L61 13L60 13L60 12ZM7 13L7 14L6 14L6 15L7 15L7 16L6 16L6 17L7 17L7 16L8 16L8 18L9 18L9 14L8 14L8 13ZM10 13L10 14L11 14L11 13ZM65 13L65 16L64 16L64 17L63 17L63 19L64 19L64 17L66 17L66 16L68 16L68 15L67 15L67 13ZM34 14L34 15L33 15L33 16L32 16L32 17L34 17L34 16L35 16L35 18L36 18L36 17L38 17L38 16L36 16L36 15L35 15L35 14ZM10 15L10 16L11 16L11 15ZM25 15L25 17L23 17L23 18L22 18L22 19L23 19L23 18L25 18L25 17L26 17L26 18L27 18L27 17L28 17L28 16L29 16L29 15L27 15L27 16L26 16L26 15ZM43 15L43 17L44 17L44 15ZM49 15L49 16L47 16L47 17L49 17L49 16L50 16L50 15ZM15 16L15 17L16 17L16 16ZM18 17L18 18L19 18L19 17ZM50 17L50 18L48 18L48 19L49 19L49 20L47 20L47 19L46 19L46 20L44 20L44 23L45 23L45 24L44 24L44 25L43 25L43 24L42 24L42 25L41 25L41 26L43 26L43 27L45 27L45 28L44 28L44 29L43 29L43 28L42 28L42 27L40 27L40 24L41 24L41 23L43 23L43 21L42 21L42 20L41 20L41 21L40 21L40 20L39 20L39 19L38 19L38 18L37 18L37 19L34 19L34 18L33 18L33 19L34 19L34 20L37 20L37 21L36 21L36 22L37 22L37 21L38 21L38 20L39 20L39 24L38 24L38 23L36 23L36 25L35 25L35 22L34 22L34 24L33 24L33 26L34 26L34 28L35 28L35 27L36 27L36 26L37 26L37 25L38 25L38 27L40 27L40 28L42 28L42 30L40 30L40 29L39 29L39 28L36 28L36 30L37 30L37 31L38 31L38 32L39 32L39 33L38 33L38 35L39 35L39 34L41 34L41 37L42 37L42 36L43 36L43 34L44 34L44 37L45 37L45 34L46 34L46 37L48 37L48 38L49 38L49 39L50 39L50 42L51 42L51 41L52 41L52 44L53 44L53 41L54 41L54 43L57 43L57 42L55 42L55 41L54 41L54 40L53 40L53 39L54 39L54 38L55 38L55 37L52 37L52 36L55 36L55 32L56 32L56 35L57 35L57 34L58 34L58 33L59 33L59 31L58 31L58 28L56 28L56 29L57 29L57 31L56 31L56 30L55 30L55 29L54 29L54 28L55 28L55 27L56 27L56 26L57 26L57 27L58 27L58 25L59 25L59 24L58 24L58 23L57 23L57 24L56 24L56 25L53 25L53 26L51 26L51 25L52 25L52 24L51 24L51 23L50 23L50 22L49 22L49 20L50 20L50 18L51 18L51 17ZM3 18L3 20L4 20L4 21L5 21L5 20L4 20L4 18ZM52 18L52 19L53 19L53 18ZM6 19L6 20L7 20L7 19ZM10 20L10 23L9 23L9 24L8 24L8 23L6 23L6 22L7 22L7 21L6 21L6 22L5 22L5 23L6 23L6 24L8 24L8 25L9 25L9 26L10 26L10 27L11 27L11 26L10 26L10 25L11 25L11 24L13 24L13 27L12 27L12 28L11 28L11 29L10 29L10 28L9 28L9 29L8 29L8 28L7 28L7 27L8 27L8 26L7 26L7 25L6 25L6 26L5 26L5 28L1 28L1 32L2 32L2 33L1 33L1 34L3 34L3 35L4 35L4 32L5 32L5 31L4 31L4 30L9 30L9 29L10 29L10 34L11 34L11 36L12 36L12 34L17 34L17 33L18 33L18 32L19 32L19 33L20 33L20 32L19 32L19 30L20 30L20 29L17 29L17 28L21 28L21 26L23 26L23 27L22 27L22 31L23 31L23 32L22 32L22 38L23 38L23 34L24 34L24 33L29 33L29 32L30 32L30 30L29 30L29 29L27 29L27 30L28 30L28 31L29 31L29 32L26 32L26 31L25 31L25 32L24 32L24 31L23 31L23 29L24 29L24 28L25 28L25 29L26 29L26 26L24 26L24 25L21 25L21 26L20 26L20 25L17 25L17 22L18 22L18 24L20 24L20 20L19 20L19 21L17 21L17 20L16 20L16 21L14 21L14 23L13 23L13 21L11 21L11 20ZM32 20L32 21L31 21L31 24L30 24L30 25L29 25L29 26L32 26L32 22L33 22L33 20ZM8 21L8 22L9 22L9 21ZM16 21L16 22L15 22L15 23L14 23L14 27L16 27L16 26L17 26L17 27L20 27L20 26L17 26L17 25L15 25L15 23L16 23L16 22L17 22L17 21ZM46 21L46 22L48 22L48 21ZM55 21L55 22L56 22L56 21ZM28 22L28 23L30 23L30 22ZM10 23L10 24L11 24L11 23ZM47 23L47 25L46 25L46 26L47 26L47 27L46 27L46 28L45 28L45 29L46 29L46 31L45 31L45 30L43 30L43 31L40 31L40 33L44 33L44 34L45 34L45 33L46 33L46 34L47 34L47 35L48 35L48 36L49 36L49 35L50 35L50 36L51 36L51 35L52 35L52 34L51 34L51 35L50 35L50 33L51 33L51 31L52 31L52 33L53 33L53 31L54 31L54 32L55 32L55 30L53 30L53 28L54 28L54 27L55 27L55 26L53 26L53 27L52 27L52 29L51 29L51 30L50 30L50 29L48 29L48 30L47 30L47 29L46 29L46 28L47 28L47 27L50 27L50 28L51 28L51 27L50 27L50 25L49 25L49 26L47 26L47 25L48 25L48 23ZM49 23L49 24L50 24L50 23ZM3 24L3 25L4 25L4 24ZM57 24L57 25L58 25L58 24ZM6 26L6 27L7 27L7 26ZM60 26L60 27L61 27L61 26ZM23 27L23 28L24 28L24 27ZM62 27L62 28L63 28L63 27ZM5 28L5 29L7 29L7 28ZM12 28L12 29L11 29L11 32L12 32L12 31L13 31L13 29L14 29L14 30L15 30L15 31L14 31L14 32L13 32L13 33L17 33L17 31L18 31L18 30L16 30L16 28L15 28L15 29L14 29L14 28ZM2 29L2 30L3 30L3 29ZM33 29L33 31L34 31L34 30L35 30L35 29ZM37 29L37 30L38 30L38 31L39 31L39 30L38 30L38 29ZM52 30L52 31L53 31L53 30ZM3 31L3 32L4 32L4 31ZM6 31L6 32L7 32L7 31ZM8 31L8 32L9 32L9 31ZM15 31L15 32L16 32L16 31ZM44 31L44 33L45 33L45 31ZM47 31L47 32L46 32L46 33L47 33L47 34L48 34L48 35L49 35L49 34L48 34L48 33L50 33L50 31L49 31L49 32L48 32L48 31ZM23 32L23 33L24 33L24 32ZM5 33L5 36L8 36L8 33ZM33 33L33 36L36 36L36 33ZM61 33L61 36L64 36L64 33ZM65 33L65 34L66 34L66 33ZM6 34L6 35L7 35L7 34ZM34 34L34 35L35 35L35 34ZM53 34L53 35L54 35L54 34ZM62 34L62 35L63 35L63 34ZM56 36L56 38L58 38L58 39L57 39L57 40L56 40L56 41L59 41L59 42L60 42L60 43L59 43L59 44L61 44L61 43L62 43L62 41L63 41L63 43L64 43L64 44L65 44L65 43L66 43L66 42L64 42L64 41L66 41L66 39L65 39L65 38L64 38L64 39L63 39L63 40L62 40L62 38L61 38L61 39L60 39L60 40L61 40L61 42L60 42L60 41L59 41L59 38L60 38L60 37L59 37L59 38L58 38L58 36ZM13 37L13 38L14 38L14 37ZM49 37L49 38L50 38L50 39L51 39L51 40L52 40L52 41L53 41L53 40L52 40L52 39L53 39L53 38L52 38L52 37L51 37L51 38L50 38L50 37ZM66 37L66 38L67 38L67 37ZM6 38L6 39L7 39L7 40L9 40L9 41L10 41L10 40L9 40L9 39L7 39L7 38ZM16 38L16 39L18 39L18 40L17 40L17 42L16 42L16 43L15 43L15 44L17 44L17 45L20 45L20 48L19 48L19 46L18 46L18 47L17 47L17 46L16 46L16 45L15 45L15 46L16 46L16 47L17 47L17 48L16 48L16 49L13 49L13 51L16 51L16 52L17 52L17 54L16 54L16 53L15 53L15 52L13 52L13 53L15 53L15 55L16 55L16 56L17 56L17 57L14 57L14 58L15 58L15 59L16 59L16 58L19 58L19 59L20 59L20 58L21 58L21 57L24 57L24 58L26 58L26 57L27 57L27 56L28 56L28 57L29 57L29 55L30 55L30 53L31 53L31 52L29 52L29 50L30 50L30 51L31 51L31 49L32 49L32 48L31 48L31 47L29 47L29 46L28 46L28 44L29 44L29 45L30 45L30 46L32 46L32 47L33 47L33 49L34 49L34 47L33 47L33 45L32 45L32 44L31 44L31 43L28 43L28 42L24 42L24 41L25 41L25 40L24 40L24 41L23 41L23 42L22 42L22 41L19 41L19 40L21 40L21 39L20 39L20 38L19 38L19 39L18 39L18 38ZM26 38L26 39L27 39L27 38ZM51 38L51 39L52 39L52 38ZM64 39L64 40L63 40L63 41L64 41L64 40L65 40L65 39ZM2 40L2 41L4 41L4 40ZM31 40L31 41L30 41L30 42L32 42L32 40ZM18 41L18 42L19 42L19 44L22 44L22 46L23 46L23 45L24 45L24 43L20 43L20 42L19 42L19 41ZM9 43L9 44L10 44L10 45L9 45L9 46L8 46L8 47L7 47L7 48L6 48L6 49L8 49L8 50L11 50L11 51L10 51L10 52L11 52L11 51L12 51L12 50L11 50L11 49L12 49L12 47L13 47L13 46L14 46L14 45L11 45L11 44L10 44L10 43ZM26 43L26 44L27 44L27 43ZM37 44L37 45L36 45L36 46L35 46L35 45L34 45L34 46L35 46L35 47L36 47L36 48L37 48L37 49L38 49L38 50L39 50L39 51L37 51L37 52L35 52L35 51L36 51L36 49L35 49L35 50L32 50L32 51L34 51L34 52L35 52L35 54L34 54L34 53L33 53L33 52L32 52L32 53L33 53L33 54L32 54L32 57L34 57L34 55L35 55L35 54L37 54L37 53L38 53L38 52L39 52L39 51L40 51L40 52L41 52L41 51L40 51L40 48L41 48L41 47L39 47L39 45L38 45L38 44ZM25 45L25 46L24 46L24 47L22 47L22 49L19 49L19 48L18 48L18 49L16 49L16 50L18 50L18 51L17 51L17 52L19 52L19 51L20 51L20 50L21 50L21 51L22 51L22 50L24 50L24 49L25 49L25 52L22 52L22 54L20 54L20 53L19 53L19 54L20 54L20 55L22 55L22 56L25 56L25 57L26 57L26 56L27 56L27 55L28 55L28 54L29 54L29 53L26 53L26 52L27 52L27 51L28 51L28 50L29 50L29 47L28 47L28 49L27 49L27 51L26 51L26 49L25 49L25 47L26 47L26 48L27 48L27 45ZM37 45L37 46L36 46L36 47L37 47L37 48L38 48L38 49L39 49L39 48L38 48L38 45ZM10 46L10 49L11 49L11 46ZM51 46L51 47L52 47L52 46ZM3 47L3 48L4 48L4 49L5 49L5 48L4 48L4 47ZM8 47L8 48L9 48L9 47ZM23 48L23 49L24 49L24 48ZM44 48L44 49L45 49L45 50L46 50L46 51L47 51L47 52L46 52L46 53L50 53L50 54L49 54L49 55L50 55L50 56L51 56L51 57L50 57L50 58L49 58L49 59L50 59L50 60L51 60L51 61L50 61L50 62L51 62L51 63L52 63L52 64L54 64L54 63L52 63L52 62L55 62L55 61L54 61L54 60L53 60L53 57L54 57L54 59L55 59L55 55L57 55L57 56L56 56L56 57L57 57L57 58L56 58L56 59L57 59L57 58L58 58L58 59L59 59L59 58L58 58L58 56L59 56L59 55L60 55L60 58L61 58L61 59L62 59L62 53L61 53L61 55L60 55L60 54L58 54L58 51L59 51L59 50L60 50L60 49L59 49L59 50L58 50L58 48L56 48L56 50L58 50L58 51L55 51L55 49L54 49L54 48L53 48L53 49L52 49L52 51L50 51L50 52L49 52L49 50L48 50L48 51L47 51L47 50L46 50L46 49L45 49L45 48ZM18 49L18 50L19 50L19 49ZM0 50L0 51L1 51L1 50ZM65 50L65 51L66 51L66 50ZM52 51L52 55L51 55L51 56L52 56L52 57L53 57L53 56L52 56L52 55L54 55L54 54L53 54L53 51ZM42 52L42 53L41 53L41 54L42 54L42 55L43 55L43 54L44 54L44 53L43 53L43 52ZM23 53L23 55L24 55L24 54L25 54L25 55L26 55L26 53ZM55 53L55 54L57 54L57 55L58 55L58 54L57 54L57 53ZM13 54L13 55L14 55L14 54ZM0 55L0 57L1 57L1 55ZM17 55L17 56L19 56L19 57L21 57L21 56L19 56L19 55ZM35 56L35 57L36 57L36 58L35 58L35 59L36 59L36 58L37 58L37 57L36 57L36 56ZM9 57L9 58L7 58L7 59L9 59L9 60L10 60L10 61L9 61L9 62L10 62L10 61L13 61L13 60L11 60L11 59L10 59L10 57ZM66 57L66 58L67 58L67 57ZM0 58L0 61L1 61L1 58ZM22 58L22 60L23 60L23 61L24 61L24 62L25 62L25 61L24 61L24 59L23 59L23 58ZM50 58L50 59L51 59L51 58ZM65 59L65 60L67 60L67 59ZM3 60L3 61L5 61L5 60ZM31 60L31 61L32 61L32 60ZM52 60L52 61L51 61L51 62L52 62L52 61L53 61L53 60ZM33 61L33 64L36 64L36 61ZM38 61L38 63L39 63L39 61ZM61 61L61 64L64 64L64 61ZM30 62L30 63L32 63L32 62ZM34 62L34 63L35 63L35 62ZM62 62L62 63L63 63L63 62ZM44 63L44 69L46 69L46 67L45 67L45 63ZM19 64L19 65L20 65L20 64ZM31 64L31 65L32 65L32 66L33 66L33 65L32 65L32 64ZM57 64L57 65L58 65L58 64ZM25 66L25 67L27 67L27 66ZM63 66L63 67L62 67L62 68L63 68L63 67L64 67L64 66ZM32 67L32 68L34 68L34 67ZM36 68L36 69L37 69L37 68ZM65 68L65 69L67 69L67 68ZM68 68L68 69L69 69L69 68ZM0 0L0 7L7 7L7 0ZM1 1L1 6L6 6L6 1ZM2 2L2 5L5 5L5 2ZM62 0L62 7L69 7L69 0ZM63 1L63 6L68 6L68 1ZM64 2L64 5L67 5L67 2ZM0 62L0 69L7 69L7 62ZM1 63L1 68L6 68L6 63ZM2 64L2 67L5 67L5 64Z" fill="#000000"/></g></g></svg>
