<?xml version="1.0" encoding="UTF-8"?>
<svg xmlns="http://www.w3.org/2000/svg" version="1.1" width="300" height="300" viewBox="0 0 300 300"><rect x="0" y="0" width="300" height="300" fill="#ffffff"/><g transform="scale(4.348)"><g transform="translate(0,0)"><path fill-rule="evenodd" d="M8 0L8 4L9 4L9 5L8 5L8 7L9 7L9 5L10 5L10 9L9 9L9 11L11 11L11 13L10 13L10 12L8 12L8 13L7 13L7 12L5 12L5 11L7 11L7 10L8 10L8 9L7 9L7 8L4 8L4 9L7 9L7 10L4 10L4 11L2 11L2 10L3 10L3 9L2 9L2 8L0 8L0 9L2 9L2 10L1 10L1 11L2 11L2 12L5 12L5 13L7 13L7 14L5 14L5 15L7 15L7 14L8 14L8 16L5 16L5 18L6 18L6 19L7 19L7 20L5 20L5 19L4 19L4 20L5 20L5 21L7 21L7 22L6 22L6 23L5 23L5 24L3 24L3 26L2 26L2 23L3 23L3 20L2 20L2 16L1 16L1 15L3 15L3 16L4 16L4 15L3 15L3 14L4 14L4 13L1 13L1 12L0 12L0 13L1 13L1 15L0 15L0 16L1 16L1 17L0 17L0 18L1 18L1 20L2 20L2 21L0 21L0 22L2 22L2 23L1 23L1 24L0 24L0 26L1 26L1 28L2 28L2 31L0 31L0 34L1 34L1 36L0 36L0 37L2 37L2 41L1 41L1 40L0 40L0 43L1 43L1 45L0 45L0 46L1 46L1 45L2 45L2 43L4 43L4 42L5 42L5 41L8 41L8 43L7 43L7 42L6 42L6 43L7 43L7 44L6 44L6 45L7 45L7 46L6 46L6 47L7 47L7 46L8 46L8 45L9 45L9 42L10 42L10 41L14 41L14 42L11 42L11 43L12 43L12 44L10 44L10 46L9 46L9 48L11 48L11 50L12 50L12 51L11 51L11 52L10 52L10 53L7 53L7 52L9 52L9 51L10 51L10 49L8 49L8 50L6 50L6 49L7 49L7 48L5 48L5 47L4 47L4 46L5 46L5 45L4 45L4 44L3 44L3 45L4 45L4 46L3 46L3 47L2 47L2 49L0 49L0 50L1 50L1 51L0 51L0 52L2 52L2 49L3 49L3 48L5 48L5 50L3 50L3 51L5 51L5 52L4 52L4 53L1 53L1 54L2 54L2 55L3 55L3 54L4 54L4 56L1 56L1 55L0 55L0 57L3 57L3 58L2 58L2 59L3 59L3 58L4 58L4 59L7 59L7 60L6 60L6 61L8 61L8 62L9 62L9 63L8 63L8 65L11 65L11 66L10 66L10 68L9 68L9 67L8 67L8 69L10 69L10 68L11 68L11 69L12 69L12 68L13 68L13 69L14 69L14 68L15 68L15 67L16 67L16 69L19 69L19 67L20 67L20 66L21 66L21 67L22 67L22 68L23 68L23 69L24 69L24 68L23 68L23 67L25 67L25 69L28 69L28 68L26 68L26 67L28 67L28 66L29 66L29 69L31 69L31 68L32 68L32 69L35 69L35 67L36 67L36 66L35 66L35 67L34 67L34 68L32 68L32 67L33 67L33 66L32 66L32 65L38 65L38 67L39 67L39 68L38 68L38 69L40 69L40 67L39 67L39 66L40 66L40 63L41 63L41 67L43 67L43 63L42 63L42 62L43 62L43 61L42 61L42 58L45 58L45 59L46 59L46 60L44 60L44 59L43 59L43 60L44 60L44 61L45 61L45 62L44 62L44 69L46 69L46 67L45 67L45 63L46 63L46 64L47 64L47 67L48 67L48 68L47 68L47 69L49 69L49 67L48 67L48 66L49 66L49 64L50 64L50 63L49 63L49 59L51 59L51 58L52 58L52 60L51 60L51 61L50 61L50 62L51 62L51 63L52 63L52 64L51 64L51 65L50 65L50 67L51 67L51 69L52 69L52 68L53 68L53 69L55 69L55 68L56 68L56 69L59 69L59 68L60 68L60 69L62 69L62 66L61 66L61 65L63 65L63 66L64 66L64 68L63 68L63 69L64 69L64 68L65 68L65 69L67 69L67 68L65 68L65 67L67 67L67 66L69 66L69 63L68 63L68 62L69 62L69 61L65 61L65 60L62 60L62 58L64 58L64 59L68 59L68 60L69 60L69 59L68 59L68 58L69 58L69 56L68 56L68 55L67 55L67 53L69 53L69 52L68 52L68 50L65 50L65 51L67 51L67 52L66 52L66 53L65 53L65 54L64 54L64 53L63 53L63 52L64 52L64 47L66 47L66 46L67 46L67 45L68 45L68 44L69 44L69 43L68 43L68 44L65 44L65 42L64 42L64 41L67 41L67 40L64 40L64 39L68 39L68 38L69 38L69 35L68 35L68 33L69 33L69 32L68 32L68 31L67 31L67 30L64 30L64 28L62 28L62 26L63 26L63 27L64 27L64 25L62 25L62 24L61 24L61 25L59 25L59 26L58 26L58 24L56 24L56 25L55 25L55 24L54 24L54 27L53 27L53 26L52 26L52 24L53 24L53 23L54 23L54 22L55 22L55 23L59 23L59 24L60 24L60 23L62 23L62 22L63 22L63 23L64 23L64 22L65 22L65 21L66 21L66 19L67 19L67 20L68 20L68 21L67 21L67 24L65 24L65 26L66 26L66 25L67 25L67 24L68 24L68 21L69 21L69 20L68 20L68 18L67 18L67 17L69 17L69 15L68 15L68 14L69 14L69 11L68 11L68 10L69 10L69 8L65 8L65 10L64 10L64 8L63 8L63 9L62 9L62 10L61 10L61 9L60 9L60 8L61 8L61 6L60 6L60 7L59 7L59 4L57 4L57 5L55 5L55 4L56 4L56 3L55 3L55 4L53 4L53 3L54 3L54 2L57 2L57 3L59 3L59 2L58 2L58 1L61 1L61 0L57 0L57 1L56 1L56 0L50 0L50 1L49 1L49 3L50 3L50 1L51 1L51 3L52 3L52 7L51 7L51 6L50 6L50 8L47 8L47 6L48 6L48 7L49 7L49 5L47 5L47 6L46 6L46 7L45 7L45 6L44 6L44 5L46 5L46 4L47 4L47 3L48 3L48 2L46 2L46 3L45 3L45 1L46 1L46 0L45 0L45 1L44 1L44 0L41 0L41 1L40 1L40 0L37 0L37 1L36 1L36 0L34 0L34 1L33 1L33 0L32 0L32 1L31 1L31 0L30 0L30 1L29 1L29 0L23 0L23 1L22 1L22 0L17 0L17 1L12 1L12 0L10 0L10 1L9 1L9 0ZM47 0L47 1L48 1L48 0ZM10 1L10 4L11 4L11 2L12 2L12 4L13 4L13 5L11 5L11 7L12 7L12 6L13 6L13 8L12 8L12 9L11 9L11 11L12 11L12 12L13 12L13 13L12 13L12 15L11 15L11 16L8 16L8 17L6 17L6 18L8 18L8 20L9 20L9 21L8 21L8 23L6 23L6 24L7 24L7 25L4 25L4 26L3 26L3 27L2 27L2 28L3 28L3 27L5 27L5 28L7 28L7 29L5 29L5 30L7 30L7 29L8 29L8 28L9 28L9 29L10 29L10 30L12 30L12 31L11 31L11 32L10 32L10 33L9 33L9 34L10 34L10 35L12 35L12 34L11 34L11 32L12 32L12 33L13 33L13 36L11 36L11 37L12 37L12 38L15 38L15 36L14 36L14 35L15 35L15 33L16 33L16 34L17 34L17 36L16 36L16 38L17 38L17 39L18 39L18 40L16 40L16 41L15 41L15 43L13 43L13 44L12 44L12 45L11 45L11 46L10 46L10 47L11 47L11 46L12 46L12 50L13 50L13 47L14 47L14 48L15 48L15 47L14 47L14 46L12 46L12 45L13 45L13 44L14 44L14 45L16 45L16 48L17 48L17 47L18 47L18 45L16 45L16 44L15 44L15 43L16 43L16 42L17 42L17 43L18 43L18 44L19 44L19 46L20 46L20 45L21 45L21 43L22 43L22 46L21 46L21 47L19 47L19 48L18 48L18 49L16 49L16 50L15 50L15 49L14 49L14 50L15 50L15 52L16 52L16 50L17 50L17 51L18 51L18 52L19 52L19 51L20 51L20 50L21 50L21 52L22 52L22 54L21 54L21 55L19 55L19 54L20 54L20 53L19 53L19 54L18 54L18 53L16 53L16 54L18 54L18 56L19 56L19 57L17 57L17 55L15 55L15 57L14 57L14 55L12 55L12 54L11 54L11 55L12 55L12 56L10 56L10 54L7 54L7 53L6 53L6 52L7 52L7 51L6 51L6 52L5 52L5 53L6 53L6 54L7 54L7 55L6 55L6 56L4 56L4 57L5 57L5 58L8 58L8 59L10 59L10 58L11 58L11 61L13 61L13 62L12 62L12 63L13 63L13 64L11 64L11 63L9 63L9 64L11 64L11 65L13 65L13 64L16 64L16 66L17 66L17 67L19 67L19 66L17 66L17 65L18 65L18 64L19 64L19 65L20 65L20 63L19 63L19 62L20 62L20 61L21 61L21 62L22 62L22 63L21 63L21 64L22 64L22 67L23 67L23 65L24 65L24 64L25 64L25 65L29 65L29 64L28 64L28 62L29 62L29 60L28 60L28 59L29 59L29 57L30 57L30 56L31 56L31 55L32 55L32 57L31 57L31 58L30 58L30 59L32 59L32 60L33 60L33 59L35 59L35 60L37 60L37 62L38 62L38 65L39 65L39 63L40 63L40 62L41 62L41 60L39 60L39 59L38 59L38 60L37 60L37 59L35 59L35 58L36 58L36 57L39 57L39 58L40 58L40 59L41 59L41 58L40 58L40 57L41 57L41 56L42 56L42 57L44 57L44 54L45 54L45 53L46 53L46 54L47 54L47 55L49 55L49 57L48 57L48 59L49 59L49 57L50 57L50 55L49 55L49 54L50 54L50 51L49 51L49 50L50 50L50 49L49 49L49 50L48 50L48 49L47 49L47 48L45 48L45 47L47 47L47 45L45 45L45 46L44 46L44 48L43 48L43 49L44 49L44 50L45 50L45 53L44 53L44 51L43 51L43 50L42 50L42 51L41 51L41 49L42 49L42 45L41 45L41 46L40 46L40 45L39 45L39 43L41 43L41 44L43 44L43 43L44 43L44 40L45 40L45 39L43 39L43 42L38 42L38 41L35 41L35 40L39 40L39 39L40 39L40 41L41 41L41 39L40 39L40 37L42 37L42 36L40 36L40 37L39 37L39 38L38 38L38 39L36 39L36 38L37 38L37 37L38 37L38 36L39 36L39 35L41 35L41 34L39 34L39 35L37 35L37 37L36 37L36 38L35 38L35 37L32 37L32 36L31 36L31 35L32 35L32 32L35 32L35 31L37 31L37 30L38 30L38 28L37 28L37 26L38 26L38 27L39 27L39 29L40 29L40 30L42 30L42 28L43 28L43 29L44 29L44 27L43 27L43 26L41 26L41 25L42 25L42 24L43 24L43 25L44 25L44 24L45 24L45 23L44 23L44 20L46 20L46 19L44 19L44 18L41 18L41 17L42 17L42 16L40 16L40 19L39 19L39 18L38 18L38 16L39 16L39 15L42 15L42 13L44 13L44 12L45 12L45 13L46 13L46 14L45 14L45 17L46 17L46 18L47 18L47 17L46 17L46 16L47 16L47 15L46 15L46 14L47 14L47 11L46 11L46 10L47 10L47 8L45 8L45 7L44 7L44 6L43 6L43 8L40 8L40 6L41 6L41 7L42 7L42 5L40 5L40 6L39 6L39 7L38 7L38 5L37 5L37 7L38 7L38 9L37 9L37 11L38 11L38 12L39 12L39 10L38 10L38 9L39 9L39 8L40 8L40 9L43 9L43 11L44 11L44 12L42 12L42 10L41 10L41 14L40 14L40 13L39 13L39 15L38 15L38 13L37 13L37 12L36 12L36 13L33 13L33 14L32 14L32 16L31 16L31 17L29 17L29 14L30 14L30 15L31 15L31 14L30 14L30 13L28 13L28 12L29 12L29 11L27 11L27 13L26 13L26 11L25 11L25 12L24 12L24 11L23 11L23 12L22 12L22 10L23 10L23 9L24 9L24 10L25 10L25 9L26 9L26 10L27 10L27 9L28 9L28 10L30 10L30 11L31 11L31 13L32 13L32 12L33 12L33 11L34 11L34 10L35 10L35 11L36 11L36 9L33 9L33 10L32 10L32 11L31 11L31 10L30 10L30 9L32 9L32 6L31 6L31 5L32 5L32 4L33 4L33 3L34 3L34 4L36 4L36 3L34 3L34 2L36 2L36 1L34 1L34 2L33 2L33 1L32 1L32 4L31 4L31 2L30 2L30 3L29 3L29 2L28 2L28 1L27 1L27 2L26 2L26 1L24 1L24 3L23 3L23 4L25 4L25 5L22 5L22 3L21 3L21 2L22 2L22 1L21 1L21 2L20 2L20 1L19 1L19 3L17 3L17 2L15 2L15 4L14 4L14 3L13 3L13 2L12 2L12 1ZM37 1L37 3L38 3L38 4L40 4L40 3L44 3L44 4L43 4L43 5L44 5L44 4L45 4L45 3L44 3L44 2L42 2L42 1L41 1L41 2L40 2L40 1ZM52 1L52 2L54 2L54 1ZM39 2L39 3L40 3L40 2ZM16 3L16 4L15 4L15 6L14 6L14 5L13 5L13 6L14 6L14 7L15 7L15 6L16 6L16 8L13 8L13 9L12 9L12 10L14 10L14 13L13 13L13 14L14 14L14 13L15 13L15 14L16 14L16 15L14 15L14 16L11 16L11 22L9 22L9 23L11 23L11 24L9 24L9 25L7 25L7 26L5 26L5 27L8 27L8 26L9 26L9 27L10 27L10 29L12 29L12 30L14 30L14 29L15 29L15 30L16 30L16 31L18 31L18 30L19 30L19 32L18 32L18 33L17 33L17 32L16 32L16 33L17 33L17 34L18 34L18 36L17 36L17 37L19 37L19 38L18 38L18 39L19 39L19 40L18 40L18 41L17 41L17 42L18 42L18 41L19 41L19 40L20 40L20 42L22 42L22 41L21 41L21 39L22 39L22 40L24 40L24 41L23 41L23 43L24 43L24 44L23 44L23 46L22 46L22 47L21 47L21 48L19 48L19 49L18 49L18 50L19 50L19 49L22 49L22 47L24 47L24 46L27 46L27 47L28 47L28 48L26 48L26 47L25 47L25 48L24 48L24 49L23 49L23 50L22 50L22 51L23 51L23 50L25 50L25 49L26 49L26 51L24 51L24 52L23 52L23 56L22 56L22 55L21 55L21 57L19 57L19 58L17 58L17 57L15 57L15 59L16 59L16 58L17 58L17 61L19 61L19 59L20 59L20 60L21 60L21 61L22 61L22 62L23 62L23 61L24 61L24 62L25 62L25 63L26 63L26 64L27 64L27 62L28 62L28 60L26 60L26 61L24 61L24 59L23 59L23 58L22 58L22 59L20 59L20 58L21 58L21 57L24 57L24 58L25 58L25 59L26 59L26 58L27 58L27 59L28 59L28 57L29 57L29 55L30 55L30 53L31 53L31 54L32 54L32 53L31 53L31 52L32 52L32 51L31 51L31 50L30 50L30 49L33 49L33 51L34 51L34 52L35 52L35 51L36 51L36 49L35 49L35 50L34 50L34 48L35 48L35 47L36 47L36 48L37 48L37 49L38 49L38 50L37 50L37 52L36 52L36 53L35 53L35 55L34 55L34 53L33 53L33 55L34 55L34 56L33 56L33 57L32 57L32 59L33 59L33 57L34 57L34 58L35 58L35 57L34 57L34 56L35 56L35 55L37 55L37 54L36 54L36 53L38 53L38 52L39 52L39 55L38 55L38 56L39 56L39 57L40 57L40 55L41 55L41 54L42 54L42 55L43 55L43 54L44 54L44 53L42 53L42 52L43 52L43 51L42 51L42 52L41 52L41 51L40 51L40 48L41 48L41 47L39 47L39 45L38 45L38 46L37 46L37 44L36 44L36 45L34 45L34 42L33 42L33 45L32 45L32 44L31 44L31 43L29 43L29 42L28 42L28 40L29 40L29 41L30 41L30 42L31 42L31 41L34 41L34 39L35 39L35 38L32 38L32 37L31 37L31 36L29 36L29 38L28 38L28 37L27 37L27 36L26 36L26 37L27 37L27 38L28 38L28 39L26 39L26 38L25 38L25 36L24 36L24 37L23 37L23 38L22 38L22 36L23 36L23 35L22 35L22 36L21 36L21 37L19 37L19 35L20 35L20 34L22 34L22 32L24 32L24 33L23 33L23 34L25 34L25 35L26 35L26 34L27 34L27 35L28 35L28 34L29 34L29 35L30 35L30 34L31 34L31 32L32 32L32 30L31 30L31 29L32 29L32 28L33 28L33 31L34 31L34 30L36 30L36 29L37 29L37 28L36 28L36 29L34 29L34 28L35 28L35 27L36 27L36 26L37 26L37 25L38 25L38 26L39 26L39 27L40 27L40 28L42 28L42 27L40 27L40 24L41 24L41 22L43 22L43 19L42 19L42 20L41 20L41 22L40 22L40 20L39 20L39 19L37 19L37 20L36 20L36 19L34 19L34 20L33 20L33 21L32 21L32 22L31 22L31 23L33 23L33 22L34 22L34 25L35 25L35 26L34 26L34 28L33 28L33 27L31 27L31 24L30 24L30 25L29 25L29 24L28 24L28 25L27 25L27 24L26 24L26 23L25 23L25 24L22 24L22 23L21 23L21 21L22 21L22 20L23 20L23 19L25 19L25 20L26 20L26 21L23 21L23 22L26 22L26 21L27 21L27 22L28 22L28 23L30 23L30 21L31 21L31 20L32 20L32 19L31 19L31 20L30 20L30 21L29 21L29 22L28 22L28 20L29 20L29 19L30 19L30 18L28 18L28 19L26 19L26 18L27 18L27 17L28 17L28 13L27 13L27 16L26 16L26 15L25 15L25 16L23 16L23 19L22 19L22 20L21 20L21 18L20 18L20 19L19 19L19 17L22 17L22 16L20 16L20 14L22 14L22 15L24 15L24 14L26 14L26 13L21 13L21 11L20 11L20 10L22 10L22 9L21 9L21 3L19 3L19 4L20 4L20 8L17 8L17 6L18 6L18 7L19 7L19 6L18 6L18 5L16 5L16 4L17 4L17 3ZM25 3L25 4L26 4L26 5L25 5L25 6L24 6L24 7L23 7L23 6L22 6L22 8L24 8L24 9L25 9L25 8L26 8L26 9L27 9L27 8L26 8L26 7L27 7L27 6L26 6L26 5L28 5L28 4L29 4L29 3L27 3L27 4L26 4L26 3ZM60 3L60 5L61 5L61 3ZM30 4L30 5L29 5L29 6L28 6L28 9L30 9L30 8L31 8L31 6L30 6L30 5L31 5L31 4ZM50 4L50 5L51 5L51 4ZM33 5L33 8L36 8L36 5ZM25 6L25 7L24 7L24 8L25 8L25 7L26 7L26 6ZM29 6L29 7L30 7L30 6ZM34 6L34 7L35 7L35 6ZM53 6L53 7L52 7L52 10L51 10L51 12L50 12L50 13L49 13L49 15L50 15L50 16L51 16L51 15L53 15L53 13L55 13L55 14L54 14L54 15L56 15L56 16L55 16L55 18L56 18L56 19L57 19L57 21L58 21L58 22L59 22L59 23L60 23L60 22L59 22L59 21L61 21L61 22L62 22L62 20L58 20L58 18L59 18L59 19L62 19L62 15L63 15L63 14L65 14L65 16L64 16L64 17L63 17L63 20L64 20L64 21L63 21L63 22L64 22L64 21L65 21L65 20L64 20L64 17L66 17L66 16L67 16L67 14L68 14L68 11L67 11L67 10L68 10L68 9L66 9L66 10L65 10L65 12L64 12L64 13L63 13L63 14L62 14L62 11L63 11L63 10L62 10L62 11L60 11L60 10L59 10L59 9L58 9L58 11L57 11L57 12L58 12L58 11L60 11L60 13L61 13L61 14L62 14L62 15L60 15L60 14L59 14L59 13L58 13L58 14L59 14L59 16L61 16L61 18L59 18L59 17L58 17L58 18L56 18L56 16L58 16L58 15L56 15L56 13L55 13L55 12L53 12L53 11L52 11L52 10L53 10L53 9L54 9L54 8L55 8L55 7L56 7L56 6L55 6L55 7L54 7L54 6ZM57 6L57 8L58 8L58 6ZM53 7L53 8L54 8L54 7ZM16 8L16 9L17 9L17 10L18 10L18 9L17 9L17 8ZM44 8L44 9L45 9L45 10L46 10L46 9L45 9L45 8ZM50 8L50 9L49 9L49 11L50 11L50 9L51 9L51 8ZM19 9L19 10L20 10L20 9ZM55 9L55 10L56 10L56 9ZM15 10L15 11L16 11L16 10ZM18 11L18 12L19 12L19 14L20 14L20 11ZM15 12L15 13L17 13L17 12ZM66 12L66 13L67 13L67 12ZM8 13L8 14L9 14L9 13ZM36 13L36 14L37 14L37 13ZM50 13L50 14L52 14L52 13ZM17 14L17 15L16 15L16 19L14 19L14 18L13 18L13 19L14 19L14 21L13 21L13 20L12 20L12 22L11 22L11 23L12 23L12 24L11 24L11 25L12 25L12 26L10 26L10 27L12 27L12 29L14 29L14 28L16 28L16 30L17 30L17 28L19 28L19 30L20 30L20 28L22 28L22 29L21 29L21 31L20 31L20 32L19 32L19 33L20 33L20 32L21 32L21 31L22 31L22 29L24 29L24 28L25 28L25 29L26 29L26 28L28 28L28 26L29 26L29 25L28 25L28 26L27 26L27 27L25 27L25 26L26 26L26 24L25 24L25 26L24 26L24 25L21 25L21 23L20 23L20 20L19 20L19 19L18 19L18 17L19 17L19 16L18 16L18 17L17 17L17 15L18 15L18 14ZM34 14L34 15L33 15L33 16L32 16L32 17L31 17L31 18L32 18L32 17L34 17L34 16L37 16L37 15L35 15L35 14ZM43 14L43 17L44 17L44 14ZM14 16L14 17L15 17L15 16ZM52 16L52 17L51 17L51 18L50 18L50 17L49 17L49 18L48 18L48 20L49 20L49 18L50 18L50 21L49 21L49 22L50 22L50 23L49 23L49 24L50 24L50 23L51 23L51 24L52 24L52 22L53 22L53 21L55 21L55 22L56 22L56 21L55 21L55 20L53 20L53 19L52 19L52 17L54 17L54 16ZM3 17L3 18L4 18L4 17ZM8 17L8 18L9 18L9 19L10 19L10 17ZM25 17L25 18L26 18L26 17ZM35 17L35 18L37 18L37 17ZM16 19L16 20L17 20L17 21L16 21L16 23L17 23L17 21L18 21L18 22L19 22L19 20L18 20L18 19ZM34 20L34 22L35 22L35 23L36 23L36 24L38 24L38 25L39 25L39 24L40 24L40 23L39 23L39 20L38 20L38 21L37 21L37 22L36 22L36 21L35 21L35 20ZM51 20L51 21L50 21L50 22L52 22L52 20ZM46 21L46 22L48 22L48 21ZM14 22L14 23L15 23L15 22ZM18 23L18 24L17 24L17 25L15 25L15 24L13 24L13 27L16 27L16 26L17 26L17 27L19 27L19 28L20 28L20 26L21 26L21 27L22 27L22 28L24 28L24 27L23 27L23 26L21 26L21 25L20 25L20 26L17 26L17 25L19 25L19 23ZM47 23L47 25L46 25L46 26L47 26L47 25L48 25L48 27L50 27L50 28L51 28L51 27L52 27L52 29L53 29L53 27L52 27L52 26L50 26L50 25L48 25L48 23ZM14 25L14 26L15 26L15 25ZM32 25L32 26L33 26L33 25ZM56 25L56 27L55 27L55 29L56 29L56 28L58 28L58 30L59 30L59 29L61 29L61 30L60 30L60 31L59 31L59 32L58 32L58 31L57 31L57 30L56 30L56 32L55 32L55 33L56 33L56 35L55 35L55 34L54 34L54 35L53 35L53 36L52 36L52 38L51 38L51 39L50 39L50 40L51 40L51 39L54 39L54 40L52 40L52 41L51 41L51 42L50 42L50 41L49 41L49 42L50 42L50 43L52 43L52 46L51 46L51 47L50 47L50 48L52 48L52 49L51 49L51 51L52 51L52 54L51 54L51 55L54 55L54 53L53 53L53 51L55 51L55 53L56 53L56 54L55 54L55 57L56 57L56 58L55 58L55 59L54 59L54 58L53 58L53 57L54 57L54 56L52 56L52 58L53 58L53 60L52 60L52 61L51 61L51 62L52 62L52 61L55 61L55 62L54 62L54 63L55 63L55 65L56 65L56 63L57 63L57 66L56 66L56 68L57 68L57 67L58 67L58 68L59 68L59 67L61 67L61 66L60 66L60 64L59 64L59 61L60 61L60 59L61 59L61 57L62 57L62 56L61 56L61 57L60 57L60 56L59 56L59 55L64 55L64 58L68 58L68 56L67 56L67 55L64 55L64 54L63 54L63 53L62 53L62 52L61 52L61 53L60 53L60 52L59 52L59 53L58 53L58 51L63 51L63 50L62 50L62 49L63 49L63 46L62 46L62 45L61 45L61 46L62 46L62 47L61 47L61 48L59 48L59 47L58 47L58 48L57 48L57 47L56 47L56 48L55 48L55 49L56 49L56 50L57 50L57 49L58 49L58 51L57 51L57 53L56 53L56 51L55 51L55 50L53 50L53 51L52 51L52 49L54 49L54 47L55 47L55 46L57 46L57 45L56 45L56 44L58 44L58 43L61 43L61 44L64 44L64 46L66 46L66 45L65 45L65 44L64 44L64 42L63 42L63 41L62 41L62 40L63 40L63 39L64 39L64 38L65 38L65 37L62 37L62 40L59 40L59 39L58 39L58 38L59 38L59 37L60 37L60 36L59 36L59 37L58 37L58 38L57 38L57 37L56 37L56 36L58 36L58 35L60 35L60 34L59 34L59 32L61 32L61 31L63 31L63 32L66 32L66 33L65 33L65 34L66 34L66 33L67 33L67 31L64 31L64 30L62 30L62 29L61 29L61 27L58 27L58 26L57 26L57 25ZM61 25L61 26L62 26L62 25ZM68 25L68 26L67 26L67 29L69 29L69 28L68 28L68 26L69 26L69 25ZM30 27L30 28L31 28L31 27ZM45 27L45 28L46 28L46 30L47 30L47 32L49 32L49 33L50 33L50 32L52 32L52 33L51 33L51 35L50 35L50 37L46 37L46 34L47 34L47 36L49 36L49 34L47 34L47 33L46 33L46 32L45 32L45 33L44 33L44 31L45 31L45 30L43 30L43 31L40 31L40 33L44 33L44 34L43 34L43 38L45 38L45 37L46 37L46 42L45 42L45 44L46 44L46 43L47 43L47 44L48 44L48 42L47 42L47 38L50 38L50 37L51 37L51 35L52 35L52 33L54 33L54 32L52 32L52 31L51 31L51 30L50 30L50 29L48 29L48 30L47 30L47 28L46 28L46 27ZM65 28L65 29L66 29L66 28ZM28 29L28 31L27 31L27 32L26 32L26 31L25 31L25 33L29 33L29 34L30 34L30 33L29 33L29 32L28 32L28 31L30 31L30 32L31 32L31 30L29 30L29 29ZM8 30L8 31L2 31L2 33L1 33L1 34L2 34L2 35L3 35L3 34L4 34L4 33L3 33L3 32L8 32L8 31L9 31L9 30ZM54 30L54 31L55 31L55 30ZM13 31L13 33L15 33L15 32L14 32L14 31ZM49 31L49 32L50 32L50 31ZM37 32L37 33L38 33L38 32ZM56 32L56 33L57 33L57 34L58 34L58 32ZM2 33L2 34L3 34L3 33ZM5 33L5 36L8 36L8 33ZM33 33L33 36L36 36L36 33ZM45 33L45 34L44 34L44 37L45 37L45 34L46 34L46 33ZM61 33L61 36L64 36L64 33ZM6 34L6 35L7 35L7 34ZM34 34L34 35L35 35L35 34ZM62 34L62 35L63 35L63 34ZM65 35L65 36L67 36L67 37L68 37L68 35ZM2 36L2 37L4 37L4 38L3 38L3 39L4 39L4 38L5 38L5 40L8 40L8 41L10 41L10 40L12 40L12 39L6 39L6 38L7 38L7 37L6 37L6 38L5 38L5 37L4 37L4 36ZM9 36L9 37L8 37L8 38L9 38L9 37L10 37L10 36ZM54 36L54 37L53 37L53 38L56 38L56 39L57 39L57 40L56 40L56 41L57 41L57 42L58 42L58 39L57 39L57 38L56 38L56 37L55 37L55 36ZM0 38L0 39L1 39L1 38ZM20 38L20 39L21 39L21 38ZM29 38L29 39L30 39L30 38ZM31 38L31 40L30 40L30 41L31 41L31 40L33 40L33 39L32 39L32 38ZM25 39L25 41L24 41L24 42L26 42L26 39ZM54 40L54 41L52 41L52 43L54 43L54 44L56 44L56 43L55 43L55 40ZM68 40L68 41L69 41L69 40ZM2 41L2 42L1 42L1 43L2 43L2 42L4 42L4 41ZM59 41L59 42L61 42L61 43L62 43L62 41ZM27 42L27 43L28 43L28 42ZM36 42L36 43L37 43L37 42ZM25 43L25 45L26 45L26 43ZM28 44L28 47L29 47L29 48L28 48L28 49L27 49L27 51L26 51L26 52L25 52L25 54L24 54L24 56L25 56L25 58L26 58L26 52L27 52L27 51L28 51L28 50L29 50L29 49L30 49L30 47L31 47L31 48L34 48L34 47L35 47L35 46L34 46L34 45L33 45L33 46L34 46L34 47L32 47L32 46L29 46L29 44ZM49 44L49 45L50 45L50 44ZM59 44L59 45L58 45L58 46L59 46L59 45L60 45L60 44ZM53 45L53 46L52 46L52 48L53 48L53 47L54 47L54 46L55 46L55 45ZM36 46L36 47L37 47L37 48L38 48L38 49L39 49L39 47L37 47L37 46ZM48 47L48 48L49 48L49 47ZM67 47L67 48L68 48L68 49L69 49L69 47ZM44 48L44 49L45 49L45 50L46 50L46 51L47 51L47 50L46 50L46 49L45 49L45 48ZM56 48L56 49L57 49L57 48ZM58 48L58 49L59 49L59 48ZM38 50L38 51L39 51L39 50ZM13 51L13 52L11 52L11 53L13 53L13 54L15 54L15 53L14 53L14 51ZM29 51L29 52L31 52L31 51ZM40 52L40 53L41 53L41 52ZM46 52L46 53L47 53L47 54L48 54L48 53L49 53L49 52ZM27 53L27 55L28 55L28 54L29 54L29 53ZM57 53L57 54L56 54L56 57L57 57L57 58L58 58L58 60L56 60L56 62L55 62L55 63L56 63L56 62L57 62L57 61L58 61L58 60L59 60L59 59L60 59L60 57L59 57L59 58L58 58L58 53ZM59 53L59 54L60 54L60 53ZM61 53L61 54L62 54L62 53ZM7 55L7 56L6 56L6 57L7 57L7 56L8 56L8 55ZM9 56L9 57L10 57L10 56ZM27 56L27 57L28 57L28 56ZM66 56L66 57L67 57L67 56ZM11 57L11 58L12 58L12 57ZM46 57L46 58L47 58L47 57ZM0 58L0 61L1 61L1 58ZM12 59L12 60L14 60L14 59ZM3 60L3 61L5 61L5 60ZM9 60L9 61L10 61L10 60ZM15 60L15 61L14 61L14 62L13 62L13 63L15 63L15 62L16 62L16 63L18 63L18 62L16 62L16 60ZM22 60L22 61L23 61L23 60ZM46 60L46 63L47 63L47 60ZM33 61L33 64L36 64L36 61ZM38 61L38 62L39 62L39 61ZM61 61L61 64L64 64L64 61ZM30 62L30 64L31 64L31 65L30 65L30 66L31 66L31 65L32 65L32 64L31 64L31 63L32 63L32 62ZM34 62L34 63L35 63L35 62ZM62 62L62 63L63 63L63 62ZM66 62L66 63L65 63L65 65L68 65L68 64L67 64L67 62ZM23 63L23 64L24 64L24 63ZM52 64L52 65L53 65L53 64ZM11 66L11 68L12 68L12 66ZM14 66L14 67L13 67L13 68L14 68L14 67L15 67L15 66ZM25 66L25 67L26 67L26 66ZM51 66L51 67L52 67L52 66ZM53 66L53 68L55 68L55 66ZM36 68L36 69L37 69L37 68ZM41 68L41 69L42 69L42 68ZM68 68L68 69L69 69L69 68ZM0 0L0 7L7 7L7 0ZM1 1L1 6L6 6L6 1ZM2 2L2 5L5 5L5 2ZM62 0L62 7L69 7L69 0ZM63 1L63 6L68 6L68 1ZM64 2L64 5L67 5L67 2ZM0 62L0 69L7 69L7 62ZM1 63L1 68L6 68L6 63ZM2 64L2 67L5 67L5 64Z" fill="#000000"/></g></g></svg>
