<?xml version="1.0" encoding="UTF-8"?>
<svg xmlns="http://www.w3.org/2000/svg" version="1.1" width="300" height="300" viewBox="0 0 300 300"><rect x="0" y="0" width="300" height="300" fill="#ffffff"/><g transform="scale(4.348)"><g transform="translate(0,0)"><path fill-rule="evenodd" d="M11 0L11 1L8 1L8 3L9 3L9 2L12 2L12 3L10 3L10 4L8 4L8 8L6 8L6 9L8 9L8 11L7 11L7 10L4 10L4 8L3 8L3 10L1 10L1 11L0 11L0 12L1 12L1 11L2 11L2 12L3 12L3 13L2 13L2 17L1 17L1 15L0 15L0 17L1 17L1 19L0 19L0 20L1 20L1 22L0 22L0 23L4 23L4 26L5 26L5 24L6 24L6 25L7 25L7 26L6 26L6 27L3 27L3 26L1 26L1 27L3 27L3 28L2 28L2 29L3 29L3 31L1 31L1 30L0 30L0 31L1 31L1 32L3 32L3 33L0 33L0 35L1 35L1 34L3 34L3 33L4 33L4 39L3 39L3 37L1 37L1 36L0 36L0 37L1 37L1 38L0 38L0 40L1 40L1 39L2 39L2 41L3 41L3 45L2 45L2 44L1 44L1 43L2 43L2 42L1 42L1 43L0 43L0 45L2 45L2 46L0 46L0 50L1 50L1 52L2 52L2 53L0 53L0 54L1 54L1 55L0 55L0 56L1 56L1 57L0 57L0 61L1 61L1 58L2 58L2 59L3 59L3 58L2 58L2 57L4 57L4 59L7 59L7 60L6 60L6 61L8 61L8 63L11 63L11 64L10 64L10 65L14 65L14 66L15 66L15 65L16 65L16 63L15 63L15 62L14 62L14 61L16 61L16 62L17 62L17 63L20 63L20 61L22 61L22 63L24 63L24 62L23 62L23 59L25 59L25 58L24 58L24 57L25 57L25 55L23 55L23 56L24 56L24 57L23 57L23 59L19 59L19 57L20 57L20 56L21 56L21 58L22 58L22 51L23 51L23 54L24 54L24 53L25 53L25 54L27 54L27 56L29 56L29 54L27 54L27 52L28 52L28 53L30 53L30 54L32 54L32 55L33 55L33 57L32 57L32 56L30 56L30 57L29 57L29 59L26 59L26 60L25 60L25 61L27 61L27 62L25 62L25 64L23 64L23 67L22 67L22 68L19 68L19 67L21 67L21 65L22 65L22 64L20 64L20 65L19 65L19 64L18 64L18 65L17 65L17 66L16 66L16 68L14 68L14 69L16 69L16 68L17 68L17 66L18 66L18 69L23 69L23 68L24 68L24 65L25 65L25 69L26 69L26 66L27 66L27 65L28 65L28 63L30 63L30 62L29 62L29 61L31 61L31 62L32 62L32 64L29 64L29 67L28 67L28 68L27 68L27 69L28 69L28 68L29 68L29 69L32 69L32 68L34 68L34 69L35 69L35 68L36 68L36 69L37 69L37 68L36 68L36 67L37 67L37 66L36 66L36 65L38 65L38 69L42 69L42 67L41 67L41 68L40 68L40 67L39 67L39 66L40 66L40 64L39 64L39 63L38 63L38 61L39 61L39 62L40 62L40 61L45 61L45 59L44 59L44 58L43 58L43 59L42 59L42 60L40 60L40 59L41 59L41 56L40 56L40 55L42 55L42 54L41 54L41 53L40 53L40 55L37 55L37 57L38 57L38 56L39 56L39 58L37 58L37 60L36 60L36 57L35 57L35 56L36 56L36 54L32 54L32 51L31 51L31 52L28 52L28 51L30 51L30 49L31 49L31 50L33 50L33 48L32 48L32 49L31 49L31 48L29 48L29 49L27 49L27 48L28 48L28 47L27 47L27 45L30 45L30 46L29 46L29 47L30 47L30 46L31 46L31 47L32 47L32 46L35 46L35 45L37 45L37 44L38 44L38 45L39 45L39 43L40 43L40 42L41 42L41 43L43 43L43 42L42 42L42 41L40 41L40 40L42 40L42 39L44 39L44 38L45 38L45 36L48 36L48 37L50 37L50 36L51 36L51 38L49 38L49 39L48 39L48 38L47 38L47 37L46 37L46 38L47 38L47 39L45 39L45 40L44 40L44 43L46 43L46 45L47 45L47 44L48 44L48 45L49 45L49 46L50 46L50 45L52 45L52 46L51 46L51 47L49 47L49 48L46 48L46 46L45 46L45 45L44 45L44 44L42 44L42 45L44 45L44 48L43 48L43 46L39 46L39 47L38 47L38 48L36 48L36 47L35 47L35 48L34 48L34 49L35 49L35 50L34 50L34 51L33 51L33 53L34 53L34 51L35 51L35 50L36 50L36 51L37 51L37 50L38 50L38 52L37 52L37 53L38 53L38 54L39 54L39 53L38 53L38 52L39 52L39 50L38 50L38 48L39 48L39 49L41 49L41 48L42 48L42 49L44 49L44 50L40 50L40 52L44 52L44 54L43 54L43 55L44 55L44 56L43 56L43 57L44 57L44 56L45 56L45 57L46 57L46 56L47 56L47 57L48 57L48 58L49 58L49 59L48 59L48 60L47 60L47 61L46 61L46 62L45 62L45 63L42 63L42 62L41 62L41 66L42 66L42 65L43 65L43 64L44 64L44 66L45 66L45 67L44 67L44 68L43 68L43 69L44 69L44 68L46 68L46 65L47 65L47 66L49 66L49 65L50 65L50 69L56 69L56 68L53 68L53 66L54 66L54 65L55 65L55 64L53 64L53 66L51 66L51 65L52 65L52 64L50 64L50 63L48 63L48 65L47 65L47 64L46 64L46 62L47 62L47 61L49 61L49 62L50 62L50 61L49 61L49 60L51 60L51 63L53 63L53 62L52 62L52 61L54 61L54 60L55 60L55 61L58 61L58 62L56 62L56 63L57 63L57 64L56 64L56 66L55 66L55 67L57 67L57 68L58 68L58 69L60 69L60 68L62 68L62 69L63 69L63 68L62 68L62 67L64 67L64 68L65 68L65 69L66 69L66 68L65 68L65 67L67 67L67 66L68 66L68 67L69 67L69 65L66 65L66 66L57 66L57 64L58 64L58 65L59 65L59 64L60 64L60 65L65 65L65 63L68 63L68 59L69 59L69 58L68 58L68 59L67 59L67 60L66 60L66 58L67 58L67 57L68 57L68 55L69 55L69 54L68 54L68 55L67 55L67 57L66 57L66 58L65 58L65 60L62 60L62 59L63 59L63 57L65 57L65 56L66 56L66 52L65 52L65 54L62 54L62 52L64 52L64 50L65 50L65 51L66 51L66 50L68 50L68 51L69 51L69 50L68 50L68 49L66 49L66 50L65 50L65 49L64 49L64 48L66 48L66 47L67 47L67 48L69 48L69 46L68 46L68 45L67 45L67 44L68 44L68 43L69 43L69 42L67 42L67 40L68 40L68 41L69 41L69 40L68 40L68 38L67 38L67 40L66 40L66 42L67 42L67 44L64 44L64 43L65 43L65 42L63 42L63 41L65 41L65 38L66 38L66 37L69 37L69 33L68 33L68 31L69 31L69 30L68 30L68 31L67 31L67 33L65 33L65 32L63 32L63 30L64 30L64 31L65 31L65 29L64 29L64 28L61 28L61 27L62 27L62 25L61 25L61 26L59 26L59 25L60 25L60 24L59 24L59 23L60 23L60 22L58 22L58 21L57 21L57 22L56 22L56 23L55 23L55 22L53 22L53 20L54 20L54 21L56 21L56 20L58 20L58 19L60 19L60 17L61 17L61 16L62 16L62 18L63 18L63 19L62 19L62 20L63 20L63 22L64 22L64 23L65 23L65 24L63 24L63 23L62 23L62 22L61 22L61 23L62 23L62 24L63 24L63 25L64 25L64 26L63 26L63 27L64 27L64 26L65 26L65 27L66 27L66 26L67 26L67 29L66 29L66 30L67 30L67 29L68 29L68 28L69 28L69 27L68 27L68 26L67 26L67 25L68 25L68 23L69 23L69 21L68 21L68 19L69 19L69 18L67 18L67 16L66 16L66 18L67 18L67 21L66 21L66 20L65 20L65 17L64 17L64 15L65 15L65 14L66 14L66 15L68 15L68 13L69 13L69 12L68 12L68 11L69 11L69 9L68 9L68 8L66 8L66 9L65 9L65 8L62 8L62 9L65 9L65 10L68 10L68 11L67 11L67 12L66 12L66 11L64 11L64 10L62 10L62 11L64 11L64 12L61 12L61 14L60 14L60 15L59 15L59 13L60 13L60 12L59 12L59 10L58 10L58 11L57 11L57 12L56 12L56 13L55 13L55 14L56 14L56 15L55 15L55 16L56 16L56 17L55 17L55 18L54 18L54 17L52 17L52 16L51 16L51 17L50 17L50 13L52 13L52 14L51 14L51 15L53 15L53 14L54 14L54 13L53 13L53 11L56 11L56 10L57 10L57 9L59 9L59 4L58 4L58 5L57 5L57 4L54 4L54 3L56 3L56 2L58 2L58 3L59 3L59 2L58 2L58 1L61 1L61 0L58 0L58 1L57 1L57 0L49 0L49 1L48 1L48 2L47 2L47 0L45 0L45 1L46 1L46 2L47 2L47 3L49 3L49 4L50 4L50 5L46 5L46 7L45 7L45 6L44 6L44 8L43 8L43 6L42 6L42 8L41 8L41 6L40 6L40 8L39 8L39 10L41 10L41 11L40 11L40 12L39 12L39 11L38 11L38 10L36 10L36 9L38 9L38 7L39 7L39 3L41 3L41 2L42 2L42 3L43 3L43 2L42 2L42 1L43 1L43 0L41 0L41 1L40 1L40 2L39 2L39 0L37 0L37 2L38 2L38 3L37 3L37 4L36 4L36 3L35 3L35 2L36 2L36 0L34 0L34 2L33 2L33 0L28 0L28 1L25 1L25 0L23 0L23 1L21 1L21 0L20 0L20 1L19 1L19 0L13 0L13 1L12 1L12 0ZM15 1L15 3L14 3L14 4L15 4L15 5L18 5L18 6L17 6L17 7L16 7L16 6L15 6L15 8L16 8L16 9L12 9L12 10L14 10L14 12L15 12L15 13L16 13L16 14L17 14L17 15L15 15L15 14L14 14L14 15L15 15L15 16L13 16L13 14L12 14L12 12L11 12L11 11L10 11L10 9L11 9L11 7L12 7L12 8L13 8L13 7L14 7L14 5L13 5L13 4L11 4L11 5L9 5L9 7L10 7L10 8L8 8L8 9L9 9L9 12L11 12L11 13L10 13L10 14L9 14L9 13L8 13L8 14L9 14L9 15L10 15L10 16L11 16L11 17L8 17L8 15L6 15L6 16L7 16L7 17L6 17L6 18L7 18L7 19L5 19L5 16L4 16L4 15L5 15L5 13L6 13L6 14L7 14L7 13L6 13L6 12L7 12L7 11L6 11L6 12L4 12L4 10L3 10L3 12L4 12L4 14L3 14L3 16L4 16L4 18L3 18L3 19L4 19L4 20L2 20L2 19L1 19L1 20L2 20L2 22L4 22L4 23L5 23L5 22L7 22L7 21L6 21L6 20L8 20L8 19L9 19L9 20L11 20L11 21L9 21L9 22L8 22L8 23L10 23L10 24L11 24L11 23L10 23L10 22L14 22L14 23L15 23L15 24L14 24L14 25L13 25L13 23L12 23L12 26L13 26L13 27L12 27L12 28L13 28L13 27L15 27L15 28L14 28L14 29L13 29L13 31L12 31L12 29L11 29L11 28L8 28L8 26L9 26L9 27L10 27L10 26L11 26L11 25L9 25L9 24L7 24L7 23L6 23L6 24L7 24L7 25L8 25L8 26L7 26L7 27L6 27L6 28L4 28L4 29L5 29L5 31L6 31L6 32L7 32L7 31L6 31L6 30L8 30L8 32L11 32L11 33L13 33L13 34L14 34L14 35L12 35L12 34L9 34L9 36L10 36L10 37L9 37L9 38L10 38L10 37L11 37L11 36L12 36L12 37L13 37L13 38L11 38L11 39L12 39L12 40L11 40L11 41L9 41L9 40L10 40L10 39L9 39L9 40L8 40L8 42L9 42L9 43L6 43L6 42L7 42L7 41L5 41L5 39L4 39L4 40L3 40L3 41L5 41L5 42L4 42L4 43L6 43L6 44L5 44L5 45L3 45L3 46L2 46L2 47L1 47L1 49L3 49L3 48L4 48L4 50L5 50L5 49L6 49L6 50L7 50L7 51L6 51L6 52L7 52L7 53L6 53L6 54L7 54L7 55L5 55L5 56L4 56L4 55L3 55L3 53L2 53L2 55L1 55L1 56L2 56L2 55L3 55L3 56L4 56L4 57L6 57L6 58L7 58L7 59L9 59L9 62L11 62L11 63L14 63L14 62L11 62L11 61L12 61L12 59L13 59L13 60L14 60L14 58L15 58L15 60L16 60L16 56L15 56L15 55L16 55L16 54L17 54L17 57L18 57L18 56L20 56L20 55L19 55L19 54L20 54L20 53L19 53L19 54L17 54L17 53L18 53L18 51L17 51L17 53L16 53L16 52L14 52L14 50L15 50L15 51L16 51L16 48L14 48L14 49L13 49L13 46L12 46L12 50L11 50L11 49L10 49L10 48L11 48L11 47L10 47L10 46L11 46L11 45L10 45L10 44L9 44L9 43L10 43L10 42L11 42L11 41L13 41L13 42L12 42L12 45L13 45L13 43L14 43L14 47L15 47L15 46L16 46L16 47L17 47L17 48L18 48L18 50L19 50L19 52L20 52L20 50L19 50L19 49L20 49L20 48L21 48L21 47L20 47L20 46L22 46L22 47L23 47L23 48L24 48L24 46L25 46L25 47L26 47L26 46L25 46L25 45L18 45L18 43L17 43L17 44L16 44L16 45L15 45L15 43L14 43L14 42L15 42L15 41L14 41L14 40L15 40L15 38L16 38L16 39L17 39L17 38L18 38L18 39L19 39L19 41L18 41L18 42L20 42L20 44L21 44L21 42L23 42L23 43L22 43L22 44L24 44L24 43L26 43L26 45L27 45L27 44L28 44L28 42L30 42L30 41L28 41L28 40L27 40L27 41L26 41L26 40L25 40L25 39L26 39L26 38L25 38L25 35L24 35L24 34L25 34L25 32L24 32L24 31L23 31L23 32L24 32L24 33L21 33L21 32L22 32L22 31L21 31L21 30L20 30L20 29L21 29L21 27L24 27L24 28L22 28L22 30L23 30L23 29L24 29L24 30L25 30L25 31L26 31L26 30L25 30L25 29L26 29L26 28L25 28L25 27L24 27L24 26L26 26L26 27L27 27L27 26L28 26L28 27L29 27L29 28L30 28L30 27L29 27L29 26L28 26L28 25L29 25L29 24L27 24L27 26L26 26L26 25L24 25L24 26L21 26L21 24L20 24L20 23L17 23L17 24L20 24L20 25L16 25L16 23L15 23L15 21L17 21L17 22L25 22L25 23L24 23L24 24L26 24L26 22L28 22L28 23L30 23L30 24L31 24L31 25L30 25L30 26L31 26L31 29L34 29L34 28L35 28L35 30L33 30L33 31L32 31L32 32L31 32L31 31L28 31L28 35L26 35L26 36L29 36L29 35L30 35L30 34L29 34L29 33L30 33L30 32L31 32L31 34L32 34L32 32L33 32L33 31L35 31L35 30L36 30L36 29L37 29L37 31L36 31L36 32L37 32L37 34L39 34L39 35L40 35L40 36L43 36L43 32L44 32L44 33L45 33L45 34L44 34L44 36L45 36L45 35L46 35L46 34L48 34L48 32L49 32L49 35L50 35L50 34L51 34L51 36L53 36L53 38L54 38L54 39L56 39L56 40L55 40L55 41L54 41L54 40L53 40L53 39L51 39L51 40L52 40L52 41L54 41L54 42L55 42L55 41L56 41L56 43L54 43L54 44L53 44L53 46L52 46L52 47L51 47L51 49L47 49L47 52L49 52L49 53L46 53L46 52L45 52L45 51L46 51L46 49L45 49L45 51L44 51L44 52L45 52L45 54L44 54L44 55L45 55L45 54L48 54L48 55L47 55L47 56L48 56L48 55L50 55L50 56L49 56L49 58L50 58L50 59L51 59L51 60L54 60L54 59L55 59L55 60L56 60L56 59L55 59L55 58L57 58L57 60L59 60L59 62L58 62L58 64L59 64L59 62L60 62L60 60L59 60L59 59L58 59L58 58L59 58L59 57L57 57L57 56L58 56L58 54L59 54L59 53L60 53L60 55L59 55L59 56L61 56L61 57L60 57L60 58L61 58L61 59L62 59L62 58L61 58L61 57L62 57L62 56L63 56L63 55L62 55L62 56L61 56L61 53L60 53L60 52L59 52L59 51L61 51L61 52L62 52L62 51L63 51L63 49L62 49L62 51L61 51L61 50L60 50L60 48L59 48L59 47L60 47L60 46L59 46L59 43L61 43L61 44L60 44L60 45L62 45L62 46L61 46L61 47L62 47L62 46L63 46L63 47L64 47L64 46L65 46L65 47L66 47L66 46L67 46L67 47L68 47L68 46L67 46L67 45L66 45L66 46L65 46L65 45L64 45L64 44L62 44L62 43L61 43L61 42L62 42L62 41L61 41L61 42L59 42L59 41L60 41L60 40L59 40L59 41L58 41L58 40L57 40L57 39L59 39L59 38L60 38L60 39L61 39L61 38L62 38L62 40L63 40L63 38L62 38L62 37L61 37L61 38L60 38L60 35L59 35L59 33L60 33L60 32L59 32L59 31L61 31L61 32L62 32L62 31L61 31L61 30L62 30L62 29L60 29L60 30L59 30L59 28L58 28L58 25L57 25L57 26L56 26L56 25L53 25L53 27L52 27L52 29L51 29L51 30L50 30L50 29L49 29L49 31L47 31L47 33L45 33L45 32L46 32L46 31L45 31L45 32L44 32L44 31L43 31L43 30L44 30L44 28L43 28L43 27L46 27L46 29L45 29L45 30L48 30L48 29L47 29L47 27L46 27L46 25L47 25L47 26L48 26L48 24L47 24L47 23L48 23L48 22L47 22L47 21L48 21L48 20L49 20L49 22L50 22L50 23L51 23L51 24L55 24L55 23L53 23L53 22L51 22L51 20L49 20L49 19L48 19L48 20L45 20L45 19L46 19L46 18L48 18L48 17L46 17L46 16L45 16L45 18L43 18L43 17L44 17L44 16L43 16L43 17L42 17L42 16L41 16L41 15L42 15L42 14L44 14L44 15L45 15L45 14L46 14L46 13L47 13L47 12L45 12L45 13L43 13L43 11L45 11L45 10L46 10L46 11L48 11L48 12L49 12L49 11L50 11L50 12L51 12L51 11L52 11L52 10L51 10L51 9L50 9L50 8L51 8L51 7L52 7L52 6L51 6L51 7L50 7L50 6L49 6L49 7L48 7L48 6L47 6L47 9L46 9L46 8L44 8L44 9L45 9L45 10L43 10L43 9L41 9L41 10L42 10L42 13L41 13L41 14L40 14L40 13L38 13L38 11L34 11L34 10L35 10L35 9L32 9L32 8L31 8L31 10L33 10L33 13L34 13L34 12L36 12L36 14L34 14L34 15L33 15L33 14L32 14L32 13L29 13L29 14L32 14L32 15L29 15L29 16L27 16L27 14L28 14L28 11L30 11L30 10L29 10L29 9L30 9L30 6L29 6L29 5L30 5L30 4L31 4L31 5L32 5L32 4L33 4L33 3L32 3L32 1L30 1L30 2L29 2L29 3L28 3L28 5L26 5L26 4L27 4L27 2L26 2L26 3L23 3L23 2L22 2L22 4L25 4L25 7L26 7L26 6L27 6L27 7L28 7L28 8L26 8L26 9L25 9L25 10L24 10L24 9L22 9L22 6L23 6L23 8L24 8L24 5L22 5L22 6L21 6L21 5L19 5L19 4L20 4L20 3L21 3L21 1L20 1L20 2L18 2L18 3L17 3L17 1ZM50 1L50 2L49 2L49 3L50 3L50 4L52 4L52 5L53 5L53 3L54 3L54 2L55 2L55 1L54 1L54 2L53 2L53 3L50 3L50 2L51 2L51 1ZM16 3L16 4L17 4L17 3ZM34 3L34 4L35 4L35 3ZM60 3L60 5L61 5L61 3ZM37 4L37 7L38 7L38 4ZM41 4L41 5L43 5L43 4ZM44 4L44 5L45 5L45 4ZM33 5L33 8L36 8L36 5ZM54 5L54 6L53 6L53 7L54 7L54 6L55 6L55 7L56 7L56 6L57 6L57 7L58 7L58 6L57 6L57 5ZM10 6L10 7L11 7L11 6ZM12 6L12 7L13 7L13 6ZM18 6L18 7L17 7L17 8L18 8L18 9L17 9L17 10L15 10L15 12L17 12L17 14L18 14L18 13L19 13L19 15L17 15L17 17L18 17L18 16L19 16L19 17L21 17L21 19L19 19L19 20L18 20L18 18L16 18L16 19L14 19L14 18L13 18L13 17L11 17L11 18L10 18L10 19L11 19L11 20L13 20L13 19L14 19L14 20L16 20L16 19L17 19L17 20L18 20L18 21L19 21L19 20L20 20L20 21L26 21L26 19L27 19L27 21L28 21L28 20L29 20L29 19L28 19L28 18L24 18L24 17L27 17L27 16L23 16L23 18L22 18L22 16L19 16L19 15L20 15L20 13L19 13L19 12L21 12L21 14L22 14L22 15L26 15L26 14L27 14L27 11L26 11L26 10L25 10L25 11L23 11L23 10L22 10L22 11L19 11L19 10L18 10L18 9L20 9L20 7L21 7L21 6L20 6L20 7L19 7L19 6ZM28 6L28 7L29 7L29 6ZM31 6L31 7L32 7L32 6ZM34 6L34 7L35 7L35 6ZM60 6L60 7L61 7L61 6ZM49 7L49 8L48 8L48 9L49 9L49 8L50 8L50 7ZM0 8L0 9L2 9L2 8ZM56 8L56 9L57 9L57 8ZM53 9L53 10L55 10L55 9ZM50 10L50 11L51 11L51 10ZM60 10L60 11L61 11L61 10ZM17 11L17 12L19 12L19 11ZM22 11L22 12L23 12L23 14L25 14L25 13L26 13L26 11L25 11L25 12L23 12L23 11ZM31 11L31 12L32 12L32 11ZM65 12L65 13L66 13L66 12ZM0 13L0 14L1 14L1 13ZM37 13L37 14L36 14L36 15L35 15L35 18L34 18L34 17L33 17L33 16L29 16L29 17L30 17L30 18L32 18L32 19L31 19L31 20L30 20L30 22L31 22L31 20L32 20L32 19L33 19L33 18L34 18L34 20L33 20L33 21L32 21L32 22L33 22L33 23L31 23L31 24L32 24L32 25L34 25L34 27L35 27L35 26L36 26L36 27L37 27L37 26L38 26L38 25L40 25L40 26L41 26L41 27L42 27L42 26L41 26L41 25L43 25L43 26L44 26L44 25L46 25L46 23L45 23L45 24L44 24L44 22L45 22L45 21L44 21L44 20L43 20L43 18L42 18L42 17L40 17L40 14L38 14L38 13ZM48 13L48 14L47 14L47 15L49 15L49 13ZM56 13L56 14L57 14L57 15L56 15L56 16L57 16L57 18L59 18L59 16L57 16L57 15L58 15L58 13ZM62 13L62 15L63 15L63 14L64 14L64 13ZM10 14L10 15L11 15L11 16L12 16L12 14ZM37 14L37 15L38 15L38 16L39 16L39 15L38 15L38 14ZM60 15L60 16L61 16L61 15ZM36 16L36 17L37 17L37 19L36 19L36 21L37 21L37 19L38 19L38 22L37 22L37 23L36 23L36 24L35 24L35 23L34 23L34 25L36 25L36 26L37 26L37 25L38 25L38 23L40 23L40 22L39 22L39 21L40 21L40 20L42 20L42 19L39 19L39 18L40 18L40 17L39 17L39 18L38 18L38 17L37 17L37 16ZM68 16L68 17L69 17L69 16ZM7 17L7 18L8 18L8 17ZM49 17L49 18L50 18L50 17ZM11 18L11 19L13 19L13 18ZM23 18L23 20L25 20L25 19L24 19L24 18ZM51 18L51 19L52 19L52 20L53 20L53 19L54 19L54 18L53 18L53 19L52 19L52 18ZM21 19L21 20L22 20L22 19ZM55 19L55 20L56 20L56 19ZM34 20L34 21L35 21L35 20ZM59 20L59 21L61 21L61 20ZM42 21L42 23L41 23L41 24L43 24L43 22L44 22L44 21ZM67 21L67 23L66 23L66 24L67 24L67 23L68 23L68 21ZM57 23L57 24L58 24L58 23ZM1 24L1 25L2 25L2 24ZM22 24L22 25L23 25L23 24ZM36 24L36 25L37 25L37 24ZM14 25L14 26L15 26L15 25ZM50 25L50 26L51 26L51 25ZM65 25L65 26L66 26L66 25ZM20 26L20 27L16 27L16 28L15 28L15 29L14 29L14 30L15 30L15 29L16 29L16 28L17 28L17 29L20 29L20 27L21 27L21 26ZM32 26L32 27L33 27L33 26ZM54 26L54 27L55 27L55 28L54 28L54 29L52 29L52 32L50 32L50 31L49 31L49 32L50 32L50 33L51 33L51 34L53 34L53 36L54 36L54 37L55 37L55 38L56 38L56 39L57 39L57 38L56 38L56 37L58 37L58 38L59 38L59 37L58 37L58 34L55 34L55 35L56 35L56 36L54 36L54 34L53 34L53 33L54 33L54 32L55 32L55 33L56 33L56 32L55 32L55 31L57 31L57 32L58 32L58 31L57 31L57 29L58 29L58 28L56 28L56 26ZM38 27L38 31L37 31L37 32L38 32L38 31L39 31L39 34L41 34L41 33L42 33L42 32L41 32L41 31L42 31L42 30L41 30L41 29L43 29L43 28L41 28L41 29L40 29L40 27ZM49 27L49 28L51 28L51 27ZM0 28L0 29L1 29L1 28ZM6 28L6 29L8 29L8 28ZM24 28L24 29L25 29L25 28ZM55 28L55 29L54 29L54 30L53 30L53 32L54 32L54 31L55 31L55 29L56 29L56 28ZM9 29L9 30L10 30L10 31L11 31L11 30L10 30L10 29ZM27 29L27 30L29 30L29 29ZM18 30L18 31L19 31L19 32L16 32L16 31L15 31L15 32L14 32L14 34L15 34L15 32L16 32L16 33L19 33L19 34L18 34L18 35L19 35L19 36L17 36L17 34L16 34L16 38L17 38L17 37L19 37L19 39L20 39L20 42L21 42L21 38L20 38L20 37L22 37L22 39L23 39L23 38L24 38L24 39L25 39L25 38L24 38L24 35L23 35L23 34L22 34L22 35L23 35L23 36L21 36L21 34L20 34L20 30ZM39 30L39 31L40 31L40 30ZM3 31L3 32L4 32L4 31ZM26 32L26 34L27 34L27 32ZM5 33L5 36L8 36L8 33ZM33 33L33 36L36 36L36 33ZM61 33L61 36L64 36L64 33ZM6 34L6 35L7 35L7 34ZM19 34L19 35L20 35L20 34ZM34 34L34 35L35 35L35 34ZM62 34L62 35L63 35L63 34ZM65 34L65 35L66 35L66 36L65 36L65 37L66 37L66 36L67 36L67 35L68 35L68 34ZM10 35L10 36L11 36L11 35ZM14 35L14 36L13 36L13 37L15 37L15 35ZM31 35L31 37L30 37L30 39L29 39L29 40L32 40L32 41L31 41L31 43L30 43L30 44L32 44L32 45L31 45L31 46L32 46L32 45L33 45L33 44L32 44L32 42L33 42L33 43L34 43L34 41L35 41L35 42L36 42L36 43L35 43L35 44L37 44L37 43L38 43L38 41L39 41L39 42L40 42L40 41L39 41L39 39L40 39L40 38L41 38L41 39L42 39L42 38L44 38L44 37L38 37L38 38L37 38L37 37L33 37L33 39L34 39L34 40L32 40L32 38L31 38L31 37L32 37L32 35ZM19 36L19 37L20 37L20 36ZM6 37L6 38L7 38L7 39L6 39L6 40L7 40L7 39L8 39L8 38L7 38L7 37ZM27 37L27 39L28 39L28 37ZM13 38L13 40L14 40L14 38ZM35 38L35 39L36 39L36 38ZM37 39L37 40L35 40L35 41L37 41L37 40L38 40L38 39ZM16 40L16 42L17 42L17 40ZM24 40L24 41L23 41L23 42L26 42L26 41L25 41L25 40ZM46 40L46 41L45 41L45 42L46 42L46 43L48 43L48 44L50 44L50 43L48 43L48 42L47 42L47 40ZM56 40L56 41L57 41L57 40ZM49 41L49 42L50 42L50 41ZM51 42L51 44L52 44L52 43L53 43L53 42ZM57 42L57 44L58 44L58 42ZM6 44L6 45L5 45L5 46L3 46L3 47L2 47L2 48L3 48L3 47L4 47L4 48L6 48L6 49L9 49L9 48L10 48L10 47L9 47L9 48L8 48L8 47L7 47L7 46L9 46L9 44ZM40 44L40 45L41 45L41 44ZM54 44L54 45L55 45L55 47L56 47L56 46L57 46L57 47L58 47L58 46L57 46L57 45L56 45L56 44ZM6 45L6 46L7 46L7 45ZM17 46L17 47L18 47L18 48L19 48L19 47L18 47L18 46ZM47 46L47 47L48 47L48 46ZM6 47L6 48L7 48L7 47ZM52 47L52 49L51 49L51 50L48 50L48 51L49 51L49 52L50 52L50 55L51 55L51 57L52 57L52 59L54 59L54 56L53 56L53 55L54 55L54 54L53 54L53 53L54 53L54 52L53 52L53 53L52 53L52 52L50 52L50 51L53 51L53 50L52 50L52 49L54 49L54 48L53 48L53 47ZM25 48L25 49L23 49L23 51L24 51L24 50L25 50L25 51L27 51L27 49L26 49L26 48ZM56 48L56 49L55 49L55 50L54 50L54 51L56 51L56 55L57 55L57 52L58 52L58 53L59 53L59 52L58 52L58 51L59 51L59 49L58 49L58 50L57 50L57 48ZM21 49L21 50L22 50L22 49ZM36 49L36 50L37 50L37 49ZM2 50L2 52L4 52L4 51L3 51L3 50ZM9 50L9 52L8 52L8 51L7 51L7 52L8 52L8 53L7 53L7 54L8 54L8 56L6 56L6 57L9 57L9 56L10 56L10 55L11 55L11 58L9 58L9 59L12 59L12 58L13 58L13 57L15 57L15 56L13 56L13 55L15 55L15 54L14 54L14 53L13 53L13 50L12 50L12 51L10 51L10 50ZM56 50L56 51L57 51L57 50ZM9 52L9 53L10 53L10 54L12 54L12 53L10 53L10 52ZM25 52L25 53L26 53L26 52ZM67 52L67 53L69 53L69 52ZM4 53L4 54L5 54L5 53ZM51 53L51 54L52 54L52 55L53 55L53 54L52 54L52 53ZM64 55L64 56L65 56L65 55ZM55 56L55 57L56 57L56 56ZM26 57L26 58L27 58L27 57ZM31 57L31 58L32 58L32 59L30 59L30 60L31 60L31 61L32 61L32 59L33 59L33 58L35 58L35 57L33 57L33 58L32 58L32 57ZM39 58L39 59L38 59L38 60L37 60L37 61L38 61L38 60L39 60L39 59L40 59L40 58ZM18 59L18 60L17 60L17 62L18 62L18 60L19 60L19 61L20 61L20 60L19 60L19 59ZM34 59L34 60L35 60L35 59ZM43 59L43 60L44 60L44 59ZM3 60L3 61L5 61L5 60ZM10 60L10 61L11 61L11 60ZM28 60L28 61L29 61L29 60ZM65 60L65 62L67 62L67 61L66 61L66 60ZM33 61L33 64L36 64L36 61ZM61 61L61 64L64 64L64 61ZM34 62L34 63L35 63L35 62ZM54 62L54 63L55 63L55 62ZM62 62L62 63L63 63L63 62ZM37 63L37 64L38 64L38 63ZM25 64L25 65L27 65L27 64ZM8 65L8 66L9 66L9 67L8 67L8 69L10 69L10 68L11 68L11 69L13 69L13 68L11 68L11 67L10 67L10 66L9 66L9 65ZM18 65L18 66L19 66L19 65ZM31 65L31 66L30 66L30 67L29 67L29 68L31 68L31 67L33 67L33 66L35 66L35 65L33 65L33 66L32 66L32 65ZM12 66L12 67L13 67L13 66ZM47 67L47 68L48 68L48 69L49 69L49 67ZM58 67L58 68L59 68L59 67ZM67 68L67 69L68 69L68 68ZM0 0L0 7L7 7L7 0ZM1 1L1 6L6 6L6 1ZM2 2L2 5L5 5L5 2ZM62 0L62 7L69 7L69 0ZM63 1L63 6L68 6L68 1ZM64 2L64 5L67 5L67 2ZM0 62L0 69L7 69L7 62ZM1 63L1 68L6 68L6 63ZM2 64L2 67L5 67L5 64Z" fill="#000000"/></g></g></svg>
