<?xml version="1.0" encoding="UTF-8"?>
<svg xmlns="http://www.w3.org/2000/svg" version="1.1" width="300" height="300" viewBox="0 0 300 300"><rect x="0" y="0" width="300" height="300" fill="#ffffff"/><g transform="scale(4.348)"><g transform="translate(0,0)"><path fill-rule="evenodd" d="M11 0L11 3L12 3L12 2L15 2L15 1L17 1L17 2L16 2L16 3L15 3L15 4L14 4L14 5L13 5L13 6L12 6L12 7L11 7L11 4L10 4L10 2L9 2L9 1L8 1L8 2L9 2L9 3L8 3L8 4L9 4L9 5L8 5L8 7L9 7L9 8L6 8L6 9L5 9L5 8L0 8L0 9L3 9L3 10L0 10L0 14L1 14L1 15L2 15L2 13L3 13L3 10L4 10L4 11L5 11L5 12L4 12L4 13L5 13L5 16L4 16L4 17L3 17L3 16L2 16L2 17L0 17L0 18L2 18L2 19L3 19L3 21L1 21L1 22L0 22L0 25L1 25L1 27L3 27L3 28L5 28L5 30L6 30L6 31L7 31L7 30L8 30L8 29L7 29L7 28L6 28L6 27L8 27L8 28L9 28L9 30L11 30L11 31L10 31L10 32L9 32L9 31L8 31L8 32L5 32L5 31L4 31L4 29L2 29L2 28L0 28L0 29L2 29L2 30L3 30L3 31L1 31L1 32L4 32L4 36L3 36L3 33L1 33L1 34L0 34L0 39L1 39L1 41L0 41L0 42L1 42L1 43L0 43L0 44L1 44L1 46L2 46L2 44L3 44L3 48L4 48L4 49L3 49L3 50L1 50L1 49L0 49L0 50L1 50L1 51L3 51L3 52L0 52L0 53L3 53L3 54L4 54L4 55L2 55L2 54L1 54L1 55L0 55L0 57L1 57L1 58L0 58L0 61L1 61L1 58L2 58L2 59L3 59L3 58L4 58L4 59L7 59L7 60L6 60L6 61L8 61L8 63L9 63L9 64L8 64L8 69L9 69L9 68L10 68L10 69L11 69L11 68L10 68L10 67L11 67L11 66L12 66L12 63L11 63L11 65L10 65L10 62L11 62L11 61L12 61L12 60L13 60L13 61L14 61L14 62L13 62L13 65L14 65L14 63L15 63L15 61L16 61L16 60L17 60L17 62L16 62L16 63L17 63L17 64L18 64L18 65L17 65L17 66L19 66L19 67L18 67L18 68L14 68L14 69L22 69L22 68L23 68L23 69L26 69L26 68L27 68L27 67L28 67L28 68L29 68L29 69L32 69L32 68L33 68L33 69L34 69L34 68L33 68L33 67L35 67L35 68L36 68L36 69L38 69L38 68L37 68L37 67L39 67L39 66L37 66L37 67L35 67L35 66L33 66L33 65L39 65L39 64L41 64L41 66L40 66L40 67L41 67L41 66L44 66L44 68L43 68L43 69L44 69L44 68L47 68L47 69L50 69L50 68L52 68L52 67L51 67L51 66L52 66L52 65L51 65L51 64L53 64L53 68L54 68L54 69L56 69L56 68L57 68L57 69L58 69L58 68L59 68L59 67L60 67L60 68L61 68L61 69L62 69L62 67L63 67L63 69L64 69L64 68L65 68L65 69L68 69L68 68L67 68L67 65L66 65L66 66L65 66L65 67L63 67L63 66L62 66L62 67L61 67L61 65L65 65L65 64L67 64L67 63L68 63L68 65L69 65L69 63L68 63L68 61L67 61L67 60L69 60L69 59L68 59L68 55L67 55L67 54L69 54L69 53L65 53L65 54L66 54L66 55L63 55L63 57L62 57L62 56L60 56L60 54L61 54L61 55L62 55L62 54L63 54L63 53L64 53L64 52L68 52L68 50L69 50L69 49L68 49L68 48L67 48L67 47L68 47L68 46L69 46L69 45L68 45L68 46L67 46L67 43L68 43L68 44L69 44L69 43L68 43L68 42L69 42L69 41L68 41L68 36L69 36L69 35L68 35L68 34L69 34L69 33L68 33L68 32L67 32L67 31L68 31L68 30L69 30L69 27L68 27L68 26L69 26L69 24L68 24L68 23L67 23L67 22L69 22L69 21L68 21L68 18L69 18L69 16L68 16L68 14L69 14L69 13L68 13L68 12L69 12L69 11L63 11L63 10L65 10L65 9L66 9L66 10L69 10L69 9L68 9L68 8L67 8L67 9L66 9L66 8L65 8L65 9L64 9L64 8L63 8L63 10L62 10L62 8L58 8L58 7L59 7L59 4L57 4L57 6L56 6L56 3L59 3L59 2L58 2L58 1L61 1L61 0L57 0L57 2L56 2L56 0L54 0L54 1L53 1L53 0L52 0L52 1L53 1L53 2L54 2L54 1L55 1L55 3L54 3L54 4L51 4L51 3L52 3L52 2L49 2L49 1L50 1L50 0L49 0L49 1L48 1L48 2L49 2L49 3L47 3L47 4L49 4L49 5L47 5L47 6L46 6L46 5L44 5L44 3L45 3L45 4L46 4L46 3L45 3L45 2L44 2L44 3L43 3L43 0L41 0L41 1L32 1L32 0L28 0L28 1L27 1L27 2L28 2L28 3L27 3L27 4L26 4L26 1L25 1L25 0L21 0L21 3L19 3L19 2L20 2L20 1L19 1L19 0L15 0L15 1L14 1L14 0L13 0L13 1L12 1L12 0ZM44 0L44 1L45 1L45 0ZM18 1L18 2L19 2L19 1ZM22 1L22 2L25 2L25 1ZM31 1L31 4L37 4L37 5L38 5L38 6L37 6L37 9L38 9L38 10L36 10L36 9L34 9L34 10L32 10L32 11L31 11L31 10L30 10L30 9L32 9L32 5L30 5L30 4L29 4L29 3L30 3L30 2L29 2L29 3L28 3L28 4L27 4L27 5L26 5L26 4L25 4L25 3L21 3L21 4L18 4L18 5L20 5L20 6L19 6L19 7L20 7L20 6L21 6L21 8L22 8L22 9L20 9L20 8L19 8L19 9L20 9L20 10L23 10L23 11L24 11L24 12L26 12L26 13L25 13L25 14L22 14L22 15L20 15L20 14L21 14L21 13L23 13L23 12L21 12L21 11L18 11L18 9L17 9L17 8L18 8L18 6L17 6L17 7L16 7L16 5L14 5L14 6L13 6L13 7L14 7L14 8L12 8L12 9L11 9L11 7L10 7L10 6L9 6L9 7L10 7L10 8L9 8L9 9L8 9L8 10L9 10L9 12L8 12L8 15L6 15L6 16L7 16L7 17L6 17L6 18L8 18L8 17L9 17L9 19L6 19L6 20L9 20L9 21L8 21L8 22L10 22L10 23L12 23L12 22L13 22L13 24L11 24L11 25L13 25L13 26L14 26L14 27L11 27L11 30L13 30L13 29L12 29L12 28L14 28L14 27L15 27L15 31L14 31L14 32L12 32L12 33L11 33L11 34L10 34L10 36L9 36L9 37L3 37L3 36L2 36L2 35L1 35L1 36L2 36L2 37L1 37L1 38L2 38L2 37L3 37L3 39L2 39L2 42L3 42L3 40L4 40L4 41L5 41L5 42L7 42L7 43L6 43L6 44L5 44L5 43L4 43L4 48L5 48L5 47L6 47L6 48L7 48L7 49L6 49L6 50L4 50L4 52L5 52L5 53L6 53L6 54L5 54L5 55L6 55L6 56L1 56L1 57L5 57L5 58L7 58L7 59L9 59L9 58L11 58L11 60L12 60L12 59L13 59L13 60L14 60L14 61L15 61L15 60L16 60L16 59L13 59L13 58L14 58L14 57L15 57L15 58L16 58L16 57L17 57L17 56L18 56L18 55L19 55L19 56L21 56L21 57L20 57L20 58L19 58L19 61L18 61L18 62L17 62L17 63L18 63L18 62L19 62L19 61L20 61L20 65L19 65L19 66L20 66L20 67L19 67L19 68L22 68L22 67L21 67L21 66L23 66L23 64L24 64L24 63L21 63L21 61L22 61L22 62L24 62L24 61L25 61L25 60L26 60L26 62L27 62L27 63L28 63L28 65L25 65L25 67L27 67L27 66L28 66L28 65L30 65L30 66L29 66L29 68L32 68L32 67L31 67L31 66L32 66L32 65L30 65L30 64L29 64L29 61L27 61L27 60L26 60L26 58L25 58L25 60L24 60L24 59L23 59L23 58L24 58L24 57L22 57L22 56L21 56L21 55L22 55L22 54L21 54L21 53L23 53L23 52L24 52L24 53L25 53L25 54L24 54L24 55L25 55L25 57L27 57L27 59L28 59L28 60L31 60L31 63L32 63L32 59L33 59L33 58L34 58L34 60L35 60L35 59L37 59L37 57L35 57L35 56L33 56L33 55L37 55L37 56L39 56L39 57L38 57L38 58L39 58L39 57L41 57L41 56L39 56L39 54L41 54L41 55L43 55L43 56L42 56L42 57L43 57L43 60L42 60L42 58L41 58L41 59L40 59L40 62L39 62L39 59L38 59L38 63L37 63L37 64L39 64L39 63L41 63L41 64L44 64L44 66L45 66L45 67L46 67L46 66L47 66L47 67L48 67L48 68L50 68L50 66L51 66L51 65L50 65L50 64L51 64L51 62L53 62L53 60L52 60L52 59L53 59L53 58L54 58L54 59L56 59L56 61L55 61L55 60L54 60L54 61L55 61L55 62L56 62L56 65L57 65L57 66L56 66L56 67L54 67L54 68L56 68L56 67L59 67L59 64L60 64L60 60L61 60L61 58L60 58L60 59L59 59L59 57L60 57L60 56L59 56L59 57L58 57L58 55L59 55L59 54L60 54L60 52L61 52L61 50L60 50L60 49L61 49L61 46L62 46L62 51L63 51L63 50L65 50L65 51L66 51L66 50L67 50L67 48L63 48L63 46L65 46L65 47L66 47L66 45L65 45L65 43L67 43L67 42L68 42L68 41L67 41L67 42L66 42L66 41L64 41L64 40L63 40L63 39L65 39L65 38L66 38L66 37L67 37L67 36L68 36L68 35L67 35L67 36L65 36L65 37L64 37L64 38L63 38L63 37L62 37L62 39L61 39L61 38L60 38L60 35L58 35L58 34L60 34L60 32L61 32L61 30L59 30L59 29L61 29L61 27L60 27L60 28L58 28L58 27L56 27L56 25L57 25L57 26L59 26L59 25L57 25L57 22L58 22L58 23L59 23L59 24L60 24L60 25L62 25L62 28L63 28L63 29L62 29L62 31L63 31L63 32L64 32L64 31L67 31L67 30L68 30L68 28L66 28L66 27L65 27L65 26L64 26L64 25L67 25L67 26L68 26L68 24L65 24L65 23L66 23L66 21L67 21L67 20L65 20L65 19L67 19L67 18L66 18L66 16L65 16L65 15L64 15L64 16L62 16L62 15L63 15L63 13L64 13L64 14L68 14L68 13L66 13L66 12L62 12L62 11L61 11L61 12L60 12L60 10L59 10L59 9L57 9L57 8L55 8L55 9L56 9L56 10L55 10L55 11L53 11L53 10L52 10L52 9L54 9L54 8L51 8L51 9L50 9L50 8L49 8L49 9L50 9L50 10L47 10L47 7L48 7L48 6L47 6L47 7L46 7L46 6L45 6L45 7L44 7L44 5L41 5L41 4L43 4L43 3L41 3L41 2L42 2L42 1L41 1L41 2L37 2L37 3L35 3L35 2L32 2L32 1ZM46 1L46 2L47 2L47 1ZM37 3L37 4L38 4L38 3ZM49 3L49 4L50 4L50 5L49 5L49 7L50 7L50 5L51 5L51 4L50 4L50 3ZM60 3L60 5L61 5L61 3ZM21 4L21 6L22 6L22 7L23 7L23 6L24 6L24 7L25 7L25 6L26 6L26 8L24 8L24 9L23 9L23 10L24 10L24 9L26 9L26 10L25 10L25 11L26 11L26 12L27 12L27 13L26 13L26 14L27 14L27 16L29 16L29 20L30 20L30 21L29 21L29 22L27 22L27 21L26 21L26 20L28 20L28 19L27 19L27 18L28 18L28 17L27 17L27 18L26 18L26 17L24 17L24 16L23 16L23 15L22 15L22 16L23 16L23 17L18 17L18 16L17 16L17 15L18 15L18 14L20 14L20 13L21 13L21 12L20 12L20 13L19 13L19 12L18 12L18 11L16 11L16 10L17 10L17 9L15 9L15 8L14 8L14 9L15 9L15 11L16 11L16 12L14 12L14 11L13 11L13 10L11 10L11 9L9 9L9 10L10 10L10 11L13 11L13 12L14 12L14 13L16 13L16 12L17 12L17 15L15 15L15 14L14 14L14 16L15 16L15 17L16 17L16 16L17 16L17 17L18 17L18 18L20 18L20 19L18 19L18 20L17 20L17 19L15 19L15 18L14 18L14 17L13 17L13 18L14 18L14 19L13 19L13 20L14 20L14 19L15 19L15 20L17 20L17 21L13 21L13 22L17 22L17 21L19 21L19 23L18 23L18 24L17 24L17 25L16 25L16 24L14 24L14 26L15 26L15 27L16 27L16 28L17 28L17 29L19 29L19 30L18 30L18 31L17 31L17 30L16 30L16 31L17 31L17 32L16 32L16 33L17 33L17 34L14 34L14 33L12 33L12 34L11 34L11 35L12 35L12 36L11 36L11 37L9 37L9 38L10 38L10 40L9 40L9 39L8 39L8 40L6 40L6 41L7 41L7 42L8 42L8 40L9 40L9 41L11 41L11 42L10 42L10 46L13 46L13 45L12 45L12 44L11 44L11 42L12 42L12 41L11 41L11 40L13 40L13 41L14 41L14 42L13 42L13 44L15 44L15 45L16 45L16 43L15 43L15 42L16 42L16 41L14 41L14 39L11 39L11 37L12 37L12 36L13 36L13 37L14 37L14 38L15 38L15 37L14 37L14 36L16 36L16 35L17 35L17 37L19 37L19 38L18 38L18 39L19 39L19 38L20 38L20 40L21 40L21 41L22 41L22 40L21 40L21 39L22 39L22 38L20 38L20 37L19 37L19 35L20 35L20 34L19 34L19 33L20 33L20 32L21 32L21 31L20 31L20 32L19 32L19 30L20 30L20 27L21 27L21 29L22 29L22 31L23 31L23 33L22 33L22 34L21 34L21 36L23 36L23 38L24 38L24 41L23 41L23 42L24 42L24 41L26 41L26 42L25 42L25 43L26 43L26 44L24 44L24 43L23 43L23 44L24 44L24 45L21 45L21 44L22 44L22 43L21 43L21 42L20 42L20 41L19 41L19 40L17 40L17 42L18 42L18 41L19 41L19 42L20 42L20 45L19 45L19 44L17 44L17 46L14 46L14 47L16 47L16 48L14 48L14 50L13 50L13 52L12 52L12 49L11 49L11 48L12 48L12 47L11 47L11 48L10 48L10 47L9 47L9 48L8 48L8 49L7 49L7 50L6 50L6 51L5 51L5 52L6 52L6 53L7 53L7 54L6 54L6 55L7 55L7 54L8 54L8 56L6 56L6 57L8 57L8 58L9 58L9 57L10 57L10 56L12 56L12 57L11 57L11 58L12 58L12 57L13 57L13 56L14 56L14 53L13 53L13 52L15 52L15 53L16 53L16 52L15 52L15 51L17 51L17 54L20 54L20 55L21 55L21 54L20 54L20 52L22 52L22 51L21 51L21 50L23 50L23 51L24 51L24 52L25 52L25 53L26 53L26 54L25 54L25 55L27 55L27 57L28 57L28 56L30 56L30 57L29 57L29 58L30 58L30 59L31 59L31 57L32 57L32 58L33 58L33 57L32 57L32 56L31 56L31 54L30 54L30 55L29 55L29 54L27 54L27 53L31 53L31 51L29 51L29 52L28 52L28 51L27 51L27 50L28 50L28 49L27 49L27 50L26 50L26 49L24 49L24 48L26 48L26 47L25 47L25 46L27 46L27 45L26 45L26 44L27 44L27 43L28 43L28 44L30 44L30 45L29 45L29 46L28 46L28 47L27 47L27 48L29 48L29 49L30 49L30 50L33 50L33 51L32 51L32 55L33 55L33 53L34 53L34 52L33 52L33 51L34 51L34 50L33 50L33 49L31 49L31 48L30 48L30 47L29 47L29 46L30 46L30 45L31 45L31 44L32 44L32 45L33 45L33 43L34 43L34 44L36 44L36 45L37 45L37 46L36 46L36 47L35 47L35 45L34 45L34 47L35 47L35 48L36 48L36 47L37 47L37 48L38 48L38 47L39 47L39 48L40 48L40 47L41 47L41 48L42 48L42 49L41 49L41 50L38 50L38 49L37 49L37 50L36 50L36 49L35 49L35 50L36 50L36 51L35 51L35 52L36 52L36 53L35 53L35 54L39 54L39 52L41 52L41 54L43 54L43 53L44 53L44 56L43 56L43 57L44 57L44 56L46 56L46 57L48 57L48 58L47 58L47 59L49 59L49 60L45 60L45 59L46 59L46 58L45 58L45 59L44 59L44 60L43 60L43 61L42 61L42 60L41 60L41 62L42 62L42 63L43 63L43 61L44 61L44 60L45 60L45 61L47 61L47 62L50 62L50 61L49 61L49 60L51 60L51 58L49 58L49 56L51 56L51 55L49 55L49 56L46 56L46 54L45 54L45 53L49 53L49 54L50 54L50 53L51 53L51 54L52 54L52 56L55 56L55 57L54 57L54 58L55 58L55 57L56 57L56 59L57 59L57 60L59 60L59 59L57 59L57 57L56 57L56 54L55 54L55 53L56 53L56 52L55 52L55 51L56 51L56 48L55 48L55 46L56 46L56 47L57 47L57 49L59 49L59 48L60 48L60 47L59 47L59 48L58 48L58 47L57 47L57 46L56 46L56 44L57 44L57 43L58 43L58 44L60 44L60 45L62 45L62 46L63 46L63 45L62 45L62 44L60 44L60 43L62 43L62 42L60 42L60 41L62 41L62 40L60 40L60 41L59 41L59 42L60 42L60 43L58 43L58 42L57 42L57 43L56 43L56 40L57 40L57 41L58 41L58 40L57 40L57 39L59 39L59 38L57 38L57 39L56 39L56 38L55 38L55 37L56 37L56 35L57 35L57 34L58 34L58 33L56 33L56 32L53 32L53 34L54 34L54 35L53 35L53 39L52 39L52 40L51 40L51 38L52 38L52 37L51 37L51 38L50 38L50 36L48 36L48 35L47 35L47 36L45 36L45 33L44 33L44 32L46 32L46 33L48 33L48 34L50 34L50 35L52 35L52 33L51 33L51 32L52 32L52 31L53 31L53 30L54 30L54 31L55 31L55 29L56 29L56 31L58 31L58 32L59 32L59 30L57 30L57 29L56 29L56 27L55 27L55 25L56 25L56 24L55 24L55 22L57 22L57 21L59 21L59 22L61 22L61 23L62 23L62 20L63 20L63 18L65 18L65 17L63 17L63 18L62 18L62 16L61 16L61 15L62 15L62 12L61 12L61 13L60 13L60 12L59 12L59 13L60 13L60 14L59 14L59 15L60 15L60 16L59 16L59 18L62 18L62 20L60 20L60 19L58 19L58 18L57 18L57 17L56 17L56 15L55 15L55 14L56 14L56 12L57 12L57 11L59 11L59 10L56 10L56 11L55 11L55 12L54 12L54 13L53 13L53 15L54 15L54 16L55 16L55 17L54 17L54 18L53 18L53 17L51 17L51 18L49 18L49 19L48 19L48 20L46 20L46 21L49 21L49 24L48 24L48 23L47 23L47 24L46 24L46 22L44 22L44 20L43 20L43 17L44 17L44 16L45 16L45 18L44 18L44 19L45 19L45 18L46 18L46 19L47 19L47 18L48 18L48 17L49 17L49 16L51 16L51 15L52 15L52 13L51 13L51 12L52 12L52 10L51 10L51 11L49 11L49 12L47 12L47 11L45 11L45 12L46 12L46 13L47 13L47 14L49 14L49 16L48 16L48 15L47 15L47 16L48 16L48 17L47 17L47 18L46 18L46 14L43 14L43 13L44 13L44 12L43 12L43 13L42 13L42 14L41 14L41 12L42 12L42 10L45 10L45 9L46 9L46 7L45 7L45 9L44 9L44 8L43 8L43 9L41 9L41 10L39 10L39 12L40 12L40 13L39 13L39 14L40 14L40 15L39 15L39 16L40 16L40 15L42 15L42 14L43 14L43 15L44 15L44 16L42 16L42 17L41 17L41 18L39 18L39 19L37 19L37 18L38 18L38 16L37 16L37 15L38 15L38 11L37 11L37 13L36 13L36 12L34 12L34 13L33 13L33 14L34 14L34 13L35 13L35 15L36 15L36 16L35 16L35 17L33 17L33 16L34 16L34 15L33 15L33 16L32 16L32 15L30 15L30 16L29 16L29 15L28 15L28 14L27 14L27 13L29 13L29 14L31 14L31 13L32 13L32 12L31 12L31 11L30 11L30 10L29 10L29 12L28 12L28 11L27 11L27 9L26 9L26 8L27 8L27 6L26 6L26 5L25 5L25 4ZM39 4L39 6L38 6L38 9L39 9L39 8L41 8L41 5L40 5L40 4ZM22 5L22 6L23 6L23 5ZM28 5L28 7L29 7L29 6L30 6L30 7L31 7L31 6L30 6L30 5ZM33 5L33 8L36 8L36 5ZM53 5L53 7L54 7L54 5ZM14 6L14 7L15 7L15 6ZM34 6L34 7L35 7L35 6ZM39 6L39 7L40 7L40 6ZM42 6L42 7L43 7L43 6ZM51 6L51 7L52 7L52 6ZM55 6L55 7L56 7L56 6ZM57 6L57 7L58 7L58 6ZM60 6L60 7L61 7L61 6ZM29 8L29 9L30 9L30 8ZM4 9L4 10L5 10L5 9ZM6 9L6 10L7 10L7 9ZM35 10L35 11L36 11L36 10ZM6 11L6 12L5 12L5 13L6 13L6 14L7 14L7 13L6 13L6 12L7 12L7 11ZM40 11L40 12L41 12L41 11ZM9 12L9 14L11 14L11 13L10 13L10 12ZM49 12L49 13L50 13L50 14L51 14L51 13L50 13L50 12ZM12 13L12 15L9 15L9 16L11 16L11 17L10 17L10 18L11 18L11 19L12 19L12 16L13 16L13 13ZM3 14L3 15L4 15L4 14ZM57 14L57 16L58 16L58 14ZM60 14L60 15L61 15L61 14ZM25 15L25 16L26 16L26 15ZM67 16L67 17L68 17L68 16ZM2 17L2 18L3 18L3 17ZM4 17L4 19L5 19L5 17ZM35 17L35 18L36 18L36 17ZM21 18L21 20L19 20L19 21L20 21L20 22L21 22L21 23L20 23L20 24L19 24L19 25L20 25L20 26L18 26L18 25L17 25L17 28L19 28L19 27L20 27L20 26L21 26L21 25L22 25L22 26L24 26L24 25L22 25L22 24L21 24L21 23L22 23L22 22L23 22L23 20L25 20L25 19L26 19L26 18L25 18L25 19L22 19L22 18ZM31 18L31 19L32 19L32 20L31 20L31 21L30 21L30 22L29 22L29 23L30 23L30 22L31 22L31 23L32 23L32 24L31 24L31 26L29 26L29 25L30 25L30 24L29 24L29 25L28 25L28 24L26 24L26 23L27 23L27 22L25 22L25 24L26 24L26 25L25 25L25 28L24 28L24 27L22 27L22 29L23 29L23 28L24 28L24 29L25 29L25 30L23 30L23 31L24 31L24 32L26 32L26 31L25 31L25 30L29 30L29 31L28 31L28 33L25 33L25 34L24 34L24 35L23 35L23 36L24 36L24 37L25 37L25 38L26 38L26 37L27 37L27 38L28 38L28 39L25 39L25 40L26 40L26 41L28 41L28 42L29 42L29 43L30 43L30 41L31 41L31 43L33 43L33 42L35 42L35 41L36 41L36 43L37 43L37 41L38 41L38 43L40 43L40 44L39 44L39 45L38 45L38 44L37 44L37 45L38 45L38 46L39 46L39 47L40 47L40 46L39 46L39 45L40 45L40 44L41 44L41 43L40 43L40 41L41 41L41 40L44 40L44 42L43 42L43 43L44 43L44 45L45 45L45 46L42 46L42 45L41 45L41 46L42 46L42 48L43 48L43 47L44 47L44 49L43 49L43 50L44 50L44 49L45 49L45 52L44 52L44 51L43 51L43 52L44 52L44 53L45 53L45 52L46 52L46 51L49 51L49 53L50 53L50 51L51 51L51 48L52 48L52 49L53 49L53 48L52 48L52 47L54 47L54 46L51 46L51 45L53 45L53 43L54 43L54 44L55 44L55 43L54 43L54 42L53 42L53 40L52 40L52 43L51 43L51 41L50 41L50 39L49 39L49 38L47 38L47 37L45 37L45 36L44 36L44 33L43 33L43 32L44 32L44 31L46 31L46 32L48 32L48 31L46 31L46 30L47 30L47 29L45 29L45 28L46 28L46 27L47 27L47 28L49 28L49 29L48 29L48 30L49 30L49 29L50 29L50 31L49 31L49 33L50 33L50 34L51 34L51 33L50 33L50 32L51 32L51 29L50 29L50 27L51 27L51 28L52 28L52 29L55 29L55 27L54 27L54 26L52 26L52 27L51 27L51 25L54 25L54 24L51 24L51 21L53 21L53 20L49 20L49 21L50 21L50 24L49 24L49 25L48 25L48 24L47 24L47 25L46 25L46 24L45 24L45 23L44 23L44 22L43 22L43 24L44 24L44 25L43 25L43 26L46 26L46 27L45 27L45 28L44 28L44 27L43 27L43 28L44 28L44 29L45 29L45 30L44 30L44 31L43 31L43 30L42 30L42 27L39 27L39 28L38 28L38 27L37 27L37 29L38 29L38 30L37 30L37 31L35 31L35 32L37 32L37 31L39 31L39 30L40 30L40 31L43 31L43 32L39 32L39 33L38 33L38 35L37 35L37 36L38 36L38 37L36 37L36 38L38 38L38 39L37 39L37 41L36 41L36 40L31 40L31 39L32 39L32 36L31 36L31 35L32 35L32 34L31 34L31 33L29 33L29 32L31 32L31 31L32 31L32 32L34 32L34 31L33 31L33 30L34 30L34 29L35 29L35 30L36 30L36 28L35 28L35 27L36 27L36 26L35 26L35 27L33 27L33 25L32 25L32 24L35 24L35 25L36 25L36 23L34 23L34 22L35 22L35 21L36 21L36 20L37 20L37 21L38 21L38 20L37 20L37 19L34 19L34 18ZM51 18L51 19L53 19L53 18ZM54 18L54 20L55 20L55 19L56 19L56 21L57 21L57 19L56 19L56 18ZM0 19L0 20L1 20L1 19ZM9 19L9 20L10 20L10 22L12 22L12 21L11 21L11 20L10 20L10 19ZM39 19L39 22L37 22L37 23L39 23L39 25L38 25L38 24L37 24L37 25L38 25L38 26L41 26L41 25L42 25L42 24L41 24L41 23L42 23L42 22L41 22L41 21L43 21L43 20L42 20L42 19L41 19L41 20L40 20L40 19ZM4 20L4 21L5 21L5 20ZM59 20L59 21L60 21L60 20ZM6 21L6 22L7 22L7 21ZM32 21L32 23L33 23L33 22L34 22L34 21ZM63 21L63 23L64 23L64 21ZM1 22L1 23L3 23L3 24L2 24L2 26L4 26L4 24L5 24L5 25L6 25L6 26L7 26L7 25L9 25L9 23L8 23L8 24L7 24L7 23L5 23L5 22L4 22L4 23L3 23L3 22ZM52 22L52 23L54 23L54 22ZM6 24L6 25L7 25L7 24ZM50 24L50 25L49 25L49 26L48 26L48 25L47 25L47 26L48 26L48 27L50 27L50 25L51 25L51 24ZM15 25L15 26L16 26L16 25ZM26 25L26 28L25 28L25 29L26 29L26 28L28 28L28 25ZM8 26L8 27L9 27L9 28L10 28L10 27L9 27L9 26ZM63 26L63 28L65 28L65 29L63 29L63 30L65 30L65 29L66 29L66 28L65 28L65 27L64 27L64 26ZM30 27L30 28L29 28L29 30L33 30L33 29L34 29L34 28L33 28L33 27ZM52 27L52 28L53 28L53 27ZM31 28L31 29L32 29L32 28ZM39 28L39 29L40 29L40 28ZM6 29L6 30L7 30L7 29ZM17 32L17 33L18 33L18 32ZM66 32L66 34L65 34L65 35L66 35L66 34L68 34L68 33L67 33L67 32ZM5 33L5 36L8 36L8 33ZM28 33L28 34L26 34L26 35L28 35L28 36L29 36L29 39L28 39L28 41L30 41L30 40L29 40L29 39L30 39L30 38L31 38L31 36L30 36L30 35L31 35L31 34L30 34L30 35L29 35L29 33ZM33 33L33 36L36 36L36 33ZM40 33L40 35L41 35L41 37L40 37L40 38L39 38L39 40L38 40L38 41L39 41L39 40L41 40L41 39L42 39L42 38L43 38L43 39L45 39L45 40L47 40L47 41L49 41L49 42L50 42L50 41L49 41L49 40L47 40L47 38L45 38L45 37L44 37L44 36L43 36L43 35L41 35L41 34L43 34L43 33ZM55 33L55 35L56 35L56 33ZM61 33L61 36L64 36L64 33ZM6 34L6 35L7 35L7 34ZM13 34L13 35L14 35L14 34ZM18 34L18 35L19 35L19 34ZM34 34L34 35L35 35L35 34ZM62 34L62 35L63 35L63 34ZM24 35L24 36L25 36L25 37L26 37L26 36L25 36L25 35ZM54 36L54 37L55 37L55 36ZM57 36L57 37L58 37L58 36ZM34 37L34 38L35 38L35 37ZM41 37L41 38L42 38L42 37ZM4 38L4 39L5 39L5 38ZM6 38L6 39L7 39L7 38ZM32 41L32 42L33 42L33 41ZM63 41L63 42L64 42L64 41ZM44 42L44 43L45 43L45 45L47 45L47 46L50 46L50 47L49 47L49 48L48 48L48 47L47 47L47 49L48 49L48 50L50 50L50 49L49 49L49 48L51 48L51 46L50 46L50 45L51 45L51 44L50 44L50 43L49 43L49 44L48 44L48 42L46 42L46 43L45 43L45 42ZM7 43L7 44L6 44L6 45L5 45L5 46L6 46L6 47L8 47L8 46L9 46L9 45L7 45L7 44L9 44L9 43ZM63 43L63 44L64 44L64 43ZM49 44L49 45L50 45L50 44ZM6 45L6 46L7 46L7 45ZM20 45L20 46L18 46L18 47L17 47L17 48L16 48L16 49L15 49L15 50L17 50L17 51L18 51L18 52L19 52L19 51L20 51L20 50L19 50L19 51L18 51L18 49L23 49L23 50L24 50L24 49L23 49L23 47L22 47L22 48L19 48L19 47L21 47L21 45ZM32 46L32 47L33 47L33 46ZM0 47L0 48L2 48L2 47ZM45 47L45 49L46 49L46 47ZM17 48L17 49L18 49L18 48ZM8 49L8 50L7 50L7 51L6 51L6 52L7 52L7 51L8 51L8 52L9 52L9 51L8 51L8 50L10 50L10 52L11 52L11 49ZM37 50L37 51L38 51L38 50ZM41 50L41 51L42 51L42 50ZM52 50L52 52L51 52L51 53L55 53L55 52L53 52L53 50ZM57 50L57 51L59 51L59 52L60 52L60 50ZM25 51L25 52L26 52L26 53L27 53L27 52L26 52L26 51ZM37 52L37 53L38 53L38 52ZM62 52L62 53L61 53L61 54L62 54L62 53L63 53L63 52ZM10 54L10 55L9 55L9 56L10 56L10 55L11 55L11 54ZM12 54L12 55L13 55L13 54ZM15 54L15 55L16 55L16 56L15 56L15 57L16 57L16 56L17 56L17 55L16 55L16 54ZM53 54L53 55L55 55L55 54ZM57 54L57 55L58 55L58 54ZM64 56L64 57L63 57L63 58L62 58L62 60L65 60L65 59L67 59L67 57L66 57L66 56ZM21 57L21 58L20 58L20 59L21 59L21 58L22 58L22 57ZM52 57L52 58L53 58L53 57ZM17 58L17 59L18 59L18 58ZM63 58L63 59L64 59L64 58ZM3 60L3 61L5 61L5 60ZM9 60L9 61L10 61L10 60ZM20 60L20 61L21 61L21 60ZM23 60L23 61L24 61L24 60ZM33 61L33 64L36 64L36 61ZM57 61L57 62L58 62L58 63L59 63L59 62L58 62L58 61ZM61 61L61 64L64 64L64 61ZM34 62L34 63L35 63L35 62ZM44 62L44 64L45 64L45 66L46 66L46 64L45 64L45 63L46 63L46 62ZM62 62L62 63L63 63L63 62ZM65 62L65 63L66 63L66 62ZM25 63L25 64L26 64L26 63ZM53 63L53 64L55 64L55 63ZM15 64L15 65L16 65L16 64ZM47 64L47 65L48 65L48 67L49 67L49 66L50 66L50 65L49 65L49 64ZM57 64L57 65L58 65L58 64ZM9 65L9 66L10 66L10 65ZM13 66L13 67L14 67L14 66ZM23 67L23 68L24 68L24 67ZM41 68L41 69L42 69L42 68ZM0 0L0 7L7 7L7 0ZM1 1L1 6L6 6L6 1ZM2 2L2 5L5 5L5 2ZM62 0L62 7L69 7L69 0ZM63 1L63 6L68 6L68 1ZM64 2L64 5L67 5L67 2ZM0 62L0 69L7 69L7 62ZM1 63L1 68L6 68L6 63ZM2 64L2 67L5 67L5 64Z" fill="#000000"/></g></g></svg>
