<?xml version="1.0" encoding="UTF-8"?>
<svg xmlns="http://www.w3.org/2000/svg" version="1.1" width="300" height="300" viewBox="0 0 300 300"><rect x="0" y="0" width="300" height="300" fill="#ffffff"/><g transform="scale(4.348)"><g transform="translate(0,0)"><path fill-rule="evenodd" d="M10 0L10 1L11 1L11 2L10 2L10 3L8 3L8 4L10 4L10 9L9 9L9 8L6 8L6 9L5 9L5 8L0 8L0 10L1 10L1 11L0 11L0 12L1 12L1 13L0 13L0 14L1 14L1 15L2 15L2 16L0 16L0 18L2 18L2 21L1 21L1 20L0 20L0 21L1 21L1 22L3 22L3 18L5 18L5 19L7 19L7 20L5 20L5 21L4 21L4 23L5 23L5 25L4 25L4 26L3 26L3 25L0 25L0 27L1 27L1 28L2 28L2 29L3 29L3 27L4 27L4 30L3 30L3 31L2 31L2 30L1 30L1 29L0 29L0 30L1 30L1 31L2 31L2 33L1 33L1 34L2 34L2 35L3 35L3 37L4 37L4 39L5 39L5 40L6 40L6 41L5 41L5 43L4 43L4 42L3 42L3 41L0 41L0 42L1 42L1 43L0 43L0 44L1 44L1 43L2 43L2 42L3 42L3 44L2 44L2 45L1 45L1 46L0 46L0 47L2 47L2 50L4 50L4 49L5 49L5 50L6 50L6 51L7 51L7 50L8 50L8 52L9 52L9 53L10 53L10 51L9 51L9 50L8 50L8 49L10 49L10 48L9 48L9 46L10 46L10 47L13 47L13 46L14 46L14 48L13 48L13 49L11 49L11 51L12 51L12 52L13 52L13 54L11 54L11 55L10 55L10 58L11 58L11 55L12 55L12 60L11 60L11 59L8 59L8 57L7 57L7 56L9 56L9 54L8 54L8 53L7 53L7 52L3 52L3 51L1 51L1 49L0 49L0 51L1 51L1 53L0 53L0 54L1 54L1 53L7 53L7 54L6 54L6 55L5 55L5 54L3 54L3 55L5 55L5 56L3 56L3 57L1 57L1 56L2 56L2 55L1 55L1 56L0 56L0 61L1 61L1 58L2 58L2 59L3 59L3 58L4 58L4 59L7 59L7 60L6 60L6 61L7 61L7 60L8 60L8 63L9 63L9 64L8 64L8 69L9 69L9 68L10 68L10 66L11 66L11 69L12 69L12 68L13 68L13 69L19 69L19 67L20 67L20 66L19 66L19 65L20 65L20 63L22 63L22 62L20 62L20 61L21 61L21 60L23 60L23 59L24 59L24 60L25 60L25 61L23 61L23 62L24 62L24 63L23 63L23 66L21 66L21 68L20 68L20 69L21 69L21 68L23 68L23 69L26 69L26 68L27 68L27 69L28 69L28 68L29 68L29 69L32 69L32 67L34 67L34 66L33 66L33 65L35 65L35 66L36 66L36 67L35 67L35 68L34 68L34 69L35 69L35 68L36 68L36 69L38 69L38 68L37 68L37 67L39 67L39 66L38 66L38 64L41 64L41 66L40 66L40 67L41 67L41 66L44 66L44 68L43 68L43 69L44 69L44 68L47 68L47 69L50 69L50 67L49 67L49 66L50 66L50 65L51 65L51 67L52 67L52 65L51 65L51 64L54 64L54 65L53 65L53 66L54 66L54 67L55 67L55 65L56 65L56 66L58 66L58 67L56 67L56 68L55 68L55 69L56 69L56 68L57 68L57 69L61 69L61 68L62 68L62 67L64 67L64 68L63 68L63 69L64 69L64 68L66 68L66 69L68 69L68 68L67 68L67 65L66 65L66 67L64 67L64 66L65 66L65 64L69 64L69 63L67 63L67 62L69 62L69 60L68 60L68 61L67 61L67 59L68 59L68 57L69 57L69 56L67 56L67 55L68 55L68 54L69 54L69 53L68 53L68 54L66 54L66 53L67 53L67 52L68 52L68 50L69 50L69 49L67 49L67 51L65 51L65 50L66 50L66 49L65 49L65 50L64 50L64 52L63 52L63 51L62 51L62 46L63 46L63 49L64 49L64 46L63 46L63 45L64 45L64 43L63 43L63 45L62 45L62 44L60 44L60 43L62 43L62 42L60 42L60 43L59 43L59 42L58 42L58 41L56 41L56 40L54 40L54 41L53 41L53 42L51 42L51 43L55 43L55 44L53 44L53 45L54 45L54 46L52 46L52 47L54 47L54 46L55 46L55 47L56 47L56 48L54 48L54 49L52 49L52 50L50 50L50 49L51 49L51 48L48 48L48 47L47 47L47 46L50 46L50 47L51 47L51 46L50 46L50 45L51 45L51 44L50 44L50 45L49 45L49 44L48 44L48 43L50 43L50 41L51 41L51 40L47 40L47 38L48 38L48 39L50 39L50 37L51 37L51 39L52 39L52 40L53 40L53 39L52 39L52 38L54 38L54 39L58 39L58 40L59 40L59 39L60 39L60 38L61 38L61 39L62 39L62 40L61 40L61 41L62 41L62 40L64 40L64 41L65 41L65 40L68 40L68 42L65 42L65 44L66 44L66 47L65 47L65 48L68 48L68 46L69 46L69 45L68 45L68 42L69 42L69 40L68 40L68 38L67 38L67 39L62 39L62 37L63 37L63 38L64 38L64 37L65 37L65 36L66 36L66 37L68 37L68 36L69 36L69 35L68 35L68 34L69 34L69 33L68 33L68 34L66 34L66 32L67 32L67 31L68 31L68 29L69 29L69 27L68 27L68 25L69 25L69 23L68 23L68 18L69 18L69 17L68 17L68 13L69 13L69 11L68 11L68 10L69 10L69 9L68 9L68 8L67 8L67 9L66 9L66 8L65 8L65 9L64 9L64 8L63 8L63 9L64 9L64 10L66 10L66 11L64 11L64 12L63 12L63 10L62 10L62 8L61 8L61 6L60 6L60 7L59 7L59 4L57 4L57 5L56 5L56 7L55 7L55 4L56 4L56 1L57 1L57 3L59 3L59 2L58 2L58 1L61 1L61 0L58 0L58 1L57 1L57 0L56 0L56 1L55 1L55 0L51 0L51 2L53 2L53 1L55 1L55 3L53 3L53 5L52 5L52 4L51 4L51 6L50 6L50 9L49 9L49 5L50 5L50 4L49 4L49 3L50 3L50 0L47 0L47 1L46 1L46 0L44 0L44 1L46 1L46 2L49 2L49 3L47 3L47 4L49 4L49 5L47 5L47 6L46 6L46 5L44 5L44 3L45 3L45 4L46 4L46 3L45 3L45 2L44 2L44 3L43 3L43 0L39 0L39 1L38 1L38 0L37 0L37 1L35 1L35 0L33 0L33 1L30 1L30 0L28 0L28 1L27 1L27 2L25 2L25 4L24 4L24 3L23 3L23 4L22 4L22 3L19 3L19 2L20 2L20 1L19 1L19 0L17 0L17 1L14 1L14 0ZM23 0L23 1L21 1L21 2L23 2L23 1L25 1L25 0ZM8 1L8 2L9 2L9 1ZM12 1L12 2L13 2L13 3L14 3L14 4L15 4L15 7L16 7L16 8L17 8L17 7L18 7L18 6L17 6L17 7L16 7L16 5L22 5L22 6L21 6L21 8L20 8L20 6L19 6L19 8L20 8L20 11L19 11L19 13L20 13L20 15L21 15L21 16L19 16L19 14L18 14L18 13L17 13L17 12L18 12L18 11L16 11L16 9L15 9L15 8L14 8L14 9L15 9L15 11L16 11L16 12L14 12L14 11L13 11L13 9L12 9L12 6L11 6L11 9L10 9L10 10L9 10L9 15L10 15L10 16L9 16L9 19L8 19L8 20L7 20L7 21L6 21L6 22L5 22L5 23L6 23L6 24L7 24L7 25L5 25L5 26L4 26L4 27L6 27L6 28L5 28L5 29L6 29L6 30L9 30L9 31L8 31L8 32L9 32L9 31L10 31L10 33L9 33L9 34L10 34L10 33L12 33L12 34L11 34L11 35L9 35L9 37L8 37L8 38L7 38L7 37L6 37L6 38L5 38L5 39L6 39L6 40L7 40L7 41L6 41L6 42L7 42L7 41L8 41L8 44L7 44L7 43L6 43L6 44L7 44L7 45L4 45L4 44L3 44L3 45L2 45L2 46L4 46L4 48L5 48L5 47L6 47L6 48L8 48L8 45L10 45L10 46L13 46L13 40L10 40L10 39L11 39L11 38L12 38L12 39L14 39L14 45L15 45L15 47L17 47L17 48L18 48L18 49L15 49L15 50L18 50L18 52L19 52L19 51L20 51L20 50L18 50L18 49L21 49L21 51L22 51L22 52L20 52L20 54L19 54L19 55L18 55L18 56L19 56L19 57L20 57L20 58L21 58L21 59L20 59L20 60L21 60L21 59L23 59L23 58L24 58L24 57L22 57L22 56L21 56L21 57L20 57L20 54L21 54L21 55L22 55L22 54L23 54L23 56L26 56L26 59L25 59L25 60L26 60L26 61L25 61L25 62L26 62L26 61L27 61L27 62L29 62L29 64L28 64L28 65L25 65L25 66L23 66L23 68L26 68L26 67L27 67L27 68L28 68L28 67L27 67L27 66L28 66L28 65L29 65L29 64L30 64L30 63L32 63L32 60L35 60L35 59L32 59L32 57L36 57L36 55L38 55L38 56L37 56L37 57L38 57L38 58L36 58L36 59L38 59L38 60L39 60L39 57L41 57L41 56L39 56L39 54L40 54L40 55L41 55L41 53L42 53L42 50L41 50L41 49L42 49L42 48L43 48L43 47L44 47L44 49L43 49L43 50L44 50L44 49L45 49L45 52L44 52L44 51L43 51L43 52L44 52L44 53L43 53L43 56L42 56L42 57L43 57L43 60L42 60L42 58L41 58L41 59L40 59L40 62L39 62L39 61L38 61L38 62L37 62L37 64L38 64L38 62L39 62L39 63L41 63L41 64L44 64L44 66L45 66L45 67L46 67L46 66L48 66L48 65L47 65L47 64L49 64L49 65L50 65L50 64L51 64L51 61L55 61L55 62L56 62L56 65L57 65L57 64L59 64L59 65L58 65L58 66L60 66L60 63L58 63L58 62L59 62L59 61L60 61L60 60L62 60L62 59L63 59L63 60L65 60L65 61L66 61L66 60L65 60L65 59L67 59L67 56L64 56L64 57L63 57L63 56L62 56L62 59L61 59L61 58L60 58L60 59L59 59L59 57L61 57L61 56L59 56L59 55L57 55L57 56L56 56L56 55L55 55L55 54L60 54L60 55L66 55L66 54L65 54L65 52L64 52L64 53L63 53L63 52L61 52L61 49L60 49L60 48L61 48L61 47L60 47L60 48L59 48L59 45L60 45L60 44L59 44L59 45L57 45L57 43L58 43L58 42L55 42L55 43L56 43L56 45L55 45L55 46L56 46L56 45L57 45L57 47L58 47L58 48L56 48L56 49L57 49L57 50L56 50L56 51L54 51L54 52L56 52L56 53L55 53L55 54L54 54L54 55L52 55L52 56L51 56L51 54L53 54L53 52L52 52L52 51L53 51L53 50L52 50L52 51L50 51L50 59L49 59L49 57L46 57L46 56L48 56L48 55L47 55L47 54L49 54L49 53L45 53L45 52L46 52L46 51L49 51L49 50L48 50L48 48L47 48L47 47L46 47L46 49L45 49L45 46L47 46L47 44L46 44L46 42L47 42L47 40L45 40L45 39L43 39L43 38L42 38L42 39L41 39L41 38L40 38L40 39L41 39L41 40L39 40L39 37L41 37L41 35L43 35L43 36L44 36L44 37L45 37L45 38L47 38L47 37L48 37L48 38L49 38L49 37L48 37L48 36L49 36L49 35L48 35L48 34L47 34L47 33L45 33L45 32L46 32L46 31L45 31L45 30L47 30L47 28L49 28L49 29L48 29L48 30L49 30L49 31L47 31L47 32L49 32L49 33L50 33L50 34L51 34L51 35L50 35L50 36L51 36L51 37L55 37L55 34L57 34L57 35L56 35L56 37L57 37L57 38L59 38L59 37L60 37L60 34L59 34L59 32L61 32L61 30L59 30L59 29L60 29L60 28L61 28L61 29L62 29L62 31L63 31L63 32L64 32L64 31L67 31L67 29L68 29L68 27L67 27L67 26L65 26L65 27L64 27L64 25L65 25L65 23L64 23L64 24L63 24L63 23L62 23L62 22L63 22L63 21L64 21L64 22L65 22L65 21L66 21L66 23L67 23L67 24L68 24L68 23L67 23L67 20L65 20L65 18L66 18L66 19L67 19L67 18L66 18L66 16L65 16L65 14L67 14L67 13L68 13L68 11L67 11L67 13L65 13L65 12L64 12L64 13L62 13L62 12L60 12L60 13L59 13L59 11L62 11L62 10L59 10L59 7L58 7L58 5L57 5L57 7L58 7L58 8L55 8L55 9L58 9L58 10L53 10L53 8L52 8L52 6L51 6L51 9L50 9L50 10L47 10L47 7L48 7L48 6L47 6L47 7L46 7L46 6L45 6L45 7L44 7L44 5L43 5L43 7L42 7L42 6L41 6L41 4L42 4L42 1L41 1L41 2L38 2L38 1L37 1L37 3L38 3L38 4L37 4L37 5L38 5L38 6L37 6L37 8L38 8L38 6L39 6L39 7L40 7L40 6L41 6L41 8L39 8L39 9L38 9L38 10L36 10L36 9L34 9L34 10L32 10L32 11L31 11L31 10L30 10L30 9L32 9L32 5L30 5L30 4L27 4L27 3L28 3L28 2L27 2L27 3L26 3L26 5L30 5L30 6L29 6L29 8L28 8L28 9L27 9L27 7L28 7L28 6L27 6L27 7L26 7L26 6L25 6L25 8L26 8L26 10L25 10L25 9L24 9L24 8L23 8L23 7L24 7L24 6L23 6L23 5L22 5L22 4L15 4L15 3L17 3L17 2L13 2L13 1ZM18 1L18 2L19 2L19 1ZM29 2L29 3L30 3L30 2ZM32 2L32 4L33 4L33 3L36 3L36 2ZM10 3L10 4L11 4L11 3ZM60 3L60 5L61 5L61 3ZM12 4L12 5L13 5L13 4ZM8 5L8 7L9 7L9 5ZM33 5L33 8L36 8L36 5ZM39 5L39 6L40 6L40 5ZM53 5L53 7L54 7L54 5ZM13 6L13 7L14 7L14 6ZM22 6L22 7L23 7L23 6ZM30 6L30 7L31 7L31 6ZM34 6L34 7L35 7L35 6ZM45 7L45 9L44 9L44 8L43 8L43 9L39 9L39 10L38 10L38 12L37 12L37 13L36 13L36 12L34 12L34 11L33 11L33 12L34 12L34 13L33 13L33 14L34 14L34 13L35 13L35 15L36 15L36 16L35 16L35 17L33 17L33 16L34 16L34 15L33 15L33 16L32 16L32 15L31 15L31 14L30 14L30 13L32 13L32 12L31 12L31 11L29 11L29 10L27 10L27 11L25 11L25 12L24 12L24 11L23 11L23 10L24 10L24 9L23 9L23 10L21 10L21 11L20 11L20 13L21 13L21 14L22 14L22 13L21 13L21 12L23 12L23 15L22 15L22 16L23 16L23 19L25 19L25 20L23 20L23 22L22 22L22 23L21 23L21 22L20 22L20 21L21 21L21 20L22 20L22 19L21 19L21 18L22 18L22 17L18 17L18 16L17 16L17 15L18 15L18 14L17 14L17 13L16 13L16 14L17 14L17 15L15 15L15 14L14 14L14 13L13 13L13 11L12 11L12 9L11 9L11 11L10 11L10 13L12 13L12 16L10 16L10 17L11 17L11 18L12 18L12 19L10 19L10 20L11 20L11 22L10 22L10 23L9 23L9 24L8 24L8 22L9 22L9 20L8 20L8 22L6 22L6 23L7 23L7 24L8 24L8 26L6 26L6 27L7 27L7 28L6 28L6 29L7 29L7 28L8 28L8 29L9 29L9 30L10 30L10 29L9 29L9 28L11 28L11 29L17 29L17 30L12 30L12 31L11 31L11 32L12 32L12 31L13 31L13 33L14 33L14 32L16 32L16 33L17 33L17 34L19 34L19 35L20 35L20 34L19 34L19 33L20 33L20 32L22 32L22 31L23 31L23 33L24 33L24 36L23 36L23 34L22 34L22 33L21 33L21 36L20 36L20 37L19 37L19 36L18 36L18 35L16 35L16 34L15 34L15 35L13 35L13 34L12 34L12 35L11 35L11 36L10 36L10 37L9 37L9 38L8 38L8 41L9 41L9 44L10 44L10 45L11 45L11 43L12 43L12 41L11 41L11 43L10 43L10 40L9 40L9 39L10 39L10 38L11 38L11 36L12 36L12 38L14 38L14 37L13 37L13 36L15 36L15 37L18 37L18 38L20 38L20 41L19 41L19 39L18 39L18 40L17 40L17 38L15 38L15 40L17 40L17 41L18 41L18 42L17 42L17 43L18 43L18 44L16 44L16 43L15 43L15 44L16 44L16 45L17 45L17 47L18 47L18 46L20 46L20 45L21 45L21 44L22 44L22 43L23 43L23 44L24 44L24 45L23 45L23 46L24 46L24 47L25 47L25 48L26 48L26 47L25 47L25 46L26 46L26 43L31 43L31 42L33 42L33 44L27 44L27 45L30 45L30 46L28 46L28 47L31 47L31 45L34 45L34 47L35 47L35 48L36 48L36 47L38 47L38 49L37 49L37 50L36 50L36 49L35 49L35 50L36 50L36 51L35 51L35 52L38 52L38 53L37 53L37 54L39 54L39 53L40 53L40 52L41 52L41 50L39 50L39 51L38 51L38 49L39 49L39 48L40 48L40 47L41 47L41 48L42 48L42 46L44 46L44 44L43 44L43 42L44 42L44 43L45 43L45 42L44 42L44 40L41 40L41 41L40 41L40 43L38 43L38 41L36 41L36 40L37 40L37 39L38 39L38 38L37 38L37 39L35 39L35 41L34 41L34 39L33 39L33 38L34 38L34 37L35 37L35 38L36 38L36 37L38 37L38 36L37 36L37 34L38 34L38 35L39 35L39 36L40 36L40 35L41 35L41 34L43 34L43 33L44 33L44 36L45 36L45 37L47 37L47 36L48 36L48 35L47 35L47 36L45 36L45 33L44 33L44 32L45 32L45 31L44 31L44 27L46 27L46 26L43 26L43 25L44 25L44 24L43 24L43 22L44 22L44 23L45 23L45 24L46 24L46 25L47 25L47 26L48 26L48 27L50 27L50 29L49 29L49 30L50 30L50 29L51 29L51 27L53 27L53 26L54 26L54 28L53 28L53 29L52 29L52 30L51 30L51 32L52 32L52 30L53 30L53 31L54 31L54 32L53 32L53 35L54 35L54 34L55 34L55 33L56 33L56 32L55 32L55 31L56 31L56 30L57 30L57 29L59 29L59 27L60 27L60 26L61 26L61 28L62 28L62 27L63 27L63 28L64 28L64 27L63 27L63 26L62 26L62 25L63 25L63 24L62 24L62 23L60 23L60 22L62 22L62 19L63 19L63 20L64 20L64 19L63 19L63 18L65 18L65 17L63 17L63 18L62 18L62 16L64 16L64 15L62 15L62 16L61 16L61 14L62 14L62 13L60 13L60 14L59 14L59 15L60 15L60 16L61 16L61 17L59 17L59 18L60 18L60 19L59 19L59 20L58 20L58 18L57 18L57 17L56 17L56 15L58 15L58 14L56 14L56 12L58 12L58 11L59 11L59 10L58 10L58 11L55 11L55 13L52 13L52 14L50 14L50 13L51 13L51 11L52 11L52 12L53 12L53 11L52 11L52 10L50 10L50 13L49 13L49 12L47 12L47 11L46 11L46 12L45 12L45 13L44 13L44 11L43 11L43 13L42 13L42 14L41 14L41 12L42 12L42 10L45 10L45 9L46 9L46 7ZM21 8L21 9L22 9L22 8ZM29 8L29 9L30 9L30 8ZM60 8L60 9L61 9L61 8ZM1 9L1 10L2 10L2 11L1 11L1 12L2 12L2 13L1 13L1 14L2 14L2 13L6 13L6 14L3 14L3 15L4 15L4 17L6 17L6 18L8 18L8 16L7 16L7 15L8 15L8 14L7 14L7 13L8 13L8 12L7 12L7 11L8 11L8 10L7 10L7 9L6 9L6 10L7 10L7 11L6 11L6 12L5 12L5 9L4 9L4 11L3 11L3 10L2 10L2 9ZM17 9L17 10L19 10L19 9ZM67 9L67 10L68 10L68 9ZM35 10L35 11L36 11L36 10ZM39 10L39 11L40 11L40 12L38 12L38 13L37 13L37 14L39 14L39 15L40 15L40 16L38 16L38 18L37 18L37 19L39 19L39 20L40 20L40 21L43 21L43 20L44 20L44 22L46 22L46 24L47 24L47 25L48 25L48 26L49 26L49 25L50 25L50 27L51 27L51 26L53 26L53 24L54 24L54 23L55 23L55 22L53 22L53 21L55 21L55 19L56 19L56 23L57 23L57 22L59 22L59 21L60 21L60 20L59 20L59 21L57 21L57 19L56 19L56 17L55 17L55 15L56 15L56 14L55 14L55 15L54 15L54 14L52 14L52 15L50 15L50 14L47 14L47 12L46 12L46 13L45 13L45 15L46 15L46 16L44 16L44 13L43 13L43 14L42 14L42 15L40 15L40 14L39 14L39 13L40 13L40 12L41 12L41 11L40 11L40 10ZM11 11L11 12L12 12L12 11ZM27 11L27 12L26 12L26 13L27 13L27 14L24 14L24 15L26 15L26 16L24 16L24 17L26 17L26 21L27 21L27 22L26 22L26 23L25 23L25 25L27 25L27 26L28 26L28 27L26 27L26 26L25 26L25 27L26 27L26 29L25 29L25 30L24 30L24 33L25 33L25 34L26 34L26 35L25 35L25 36L26 36L26 37L25 37L25 38L23 38L23 36L21 36L21 37L20 37L20 38L21 38L21 37L22 37L22 39L21 39L21 40L22 40L22 41L20 41L20 42L19 42L19 43L20 43L20 42L21 42L21 43L22 43L22 42L23 42L23 43L24 43L24 44L25 44L25 42L30 42L30 41L33 41L33 42L34 42L34 45L35 45L35 47L36 47L36 45L38 45L38 46L39 46L39 47L40 47L40 46L39 46L39 45L40 45L40 44L41 44L41 43L40 43L40 44L36 44L36 43L37 43L37 42L36 42L36 41L35 41L35 42L34 42L34 41L33 41L33 39L32 39L32 36L31 36L31 35L32 35L32 34L29 34L29 36L28 36L28 35L27 35L27 34L28 34L28 33L29 33L29 32L31 32L31 33L32 33L32 32L34 32L34 31L33 31L33 30L34 30L34 29L36 29L36 28L35 28L35 27L36 27L36 26L35 26L35 25L34 25L34 24L35 24L35 23L34 23L34 24L33 24L33 23L32 23L32 22L33 22L33 21L34 21L34 22L35 22L35 21L34 21L34 20L36 20L36 21L38 21L38 20L36 20L36 19L35 19L35 18L33 18L33 19L32 19L32 16L31 16L31 19L32 19L32 20L31 20L31 21L30 21L30 22L29 22L29 21L27 21L27 19L28 19L28 20L29 20L29 16L30 16L30 14L29 14L29 13L30 13L30 12L29 12L29 13L27 13L27 12L28 12L28 11ZM6 12L6 13L7 13L7 12ZM6 14L6 15L7 15L7 14ZM10 14L10 15L11 15L11 14ZM13 14L13 15L14 15L14 16L12 16L12 18L14 18L14 19L13 19L13 20L14 20L14 21L13 21L13 22L12 22L12 24L11 24L11 25L12 25L12 24L13 24L13 26L12 26L12 27L11 27L11 28L12 28L12 27L13 27L13 26L14 26L14 27L15 27L15 28L16 28L16 27L15 27L15 26L16 26L16 25L17 25L17 26L18 26L18 27L17 27L17 28L19 28L19 29L20 29L20 30L19 30L19 32L20 32L20 31L21 31L21 29L23 29L23 28L24 28L24 27L23 27L23 26L24 26L24 25L22 25L22 24L21 24L21 25L20 25L20 26L19 26L19 25L17 25L17 23L18 23L18 24L20 24L20 22L19 22L19 21L20 21L20 20L19 20L19 21L17 21L17 20L18 20L18 19L17 19L17 18L18 18L18 17L16 17L16 16L15 16L15 15L14 15L14 14ZM27 14L27 16L29 16L29 15L28 15L28 14ZM47 15L47 17L50 17L50 15ZM52 15L52 16L54 16L54 15ZM2 16L2 17L3 17L3 16ZM6 16L6 17L7 17L7 16ZM14 16L14 18L15 18L15 16ZM42 16L42 17L41 17L41 18L39 18L39 19L40 19L40 20L41 20L41 19L43 19L43 17L44 17L44 16ZM27 17L27 18L28 18L28 17ZM51 17L51 18L48 18L48 20L46 20L46 21L49 21L49 22L48 22L48 23L47 23L47 24L48 24L48 25L49 25L49 24L48 24L48 23L50 23L50 24L53 24L53 23L50 23L50 21L49 21L49 20L50 20L50 19L51 19L51 18L52 18L52 20L54 20L54 19L53 19L53 18L55 18L55 17ZM19 18L19 19L20 19L20 18ZM44 18L44 19L47 19L47 18ZM61 18L61 19L62 19L62 18ZM15 19L15 20L16 20L16 19ZM15 21L15 22L16 22L16 21ZM31 21L31 22L30 22L30 23L28 23L28 24L27 24L27 25L28 25L28 24L30 24L30 25L29 25L29 26L30 26L30 27L28 27L28 29L29 29L29 31L28 31L28 30L25 30L25 31L26 31L26 32L25 32L25 33L28 33L28 32L29 32L29 31L31 31L31 32L32 32L32 30L33 30L33 29L34 29L34 28L33 28L33 27L34 27L34 25L33 25L33 27L31 27L31 26L32 26L32 25L31 25L31 24L32 24L32 23L31 23L31 22L32 22L32 21ZM23 22L23 24L24 24L24 22ZM37 22L37 24L39 24L39 25L37 25L37 26L41 26L41 25L42 25L42 24L41 24L41 23L42 23L42 22ZM0 23L0 24L1 24L1 23ZM13 23L13 24L14 24L14 23ZM39 23L39 24L40 24L40 23ZM58 23L58 24L56 24L56 25L57 25L57 26L55 26L55 27L56 27L56 29L57 29L57 28L58 28L58 27L59 27L59 25L58 25L58 24L59 24L59 23ZM9 24L9 25L10 25L10 24ZM15 24L15 25L16 25L16 24ZM21 25L21 27L19 27L19 28L23 28L23 27L22 27L22 25ZM1 26L1 27L2 27L2 26ZM8 26L8 27L10 27L10 26ZM57 26L57 27L58 27L58 26ZM30 27L30 28L31 28L31 29L32 29L32 28L31 28L31 27ZM37 27L37 29L38 29L38 30L37 30L37 31L38 31L38 30L40 30L40 31L43 31L43 32L39 32L39 33L38 33L38 32L37 32L37 33L38 33L38 34L39 34L39 35L40 35L40 33L43 33L43 32L44 32L44 31L43 31L43 30L42 30L42 27ZM65 27L65 28L67 28L67 27ZM38 28L38 29L40 29L40 28ZM54 28L54 29L55 29L55 28ZM17 30L17 31L18 31L18 30ZM58 30L58 32L59 32L59 30ZM3 31L3 33L4 33L4 31ZM5 31L5 32L7 32L7 31ZM27 31L27 32L28 32L28 31ZM17 32L17 33L18 33L18 32ZM54 32L54 33L55 33L55 32ZM5 33L5 36L8 36L8 33ZM33 33L33 36L36 36L36 33ZM51 33L51 34L52 34L52 33ZM57 33L57 34L58 34L58 35L57 35L57 37L59 37L59 34L58 34L58 33ZM61 33L61 36L64 36L64 33ZM3 34L3 35L4 35L4 34ZM6 34L6 35L7 35L7 34ZM34 34L34 35L35 35L35 34ZM62 34L62 35L63 35L63 34ZM0 35L0 37L1 37L1 38L0 38L0 40L1 40L1 38L2 38L2 39L3 39L3 38L2 38L2 36L1 36L1 35ZM12 35L12 36L13 36L13 35ZM15 35L15 36L16 36L16 35ZM51 35L51 36L52 36L52 35ZM67 35L67 36L68 36L68 35ZM27 36L27 37L28 37L28 36ZM29 36L29 37L30 37L30 38L29 38L29 39L28 39L28 38L27 38L27 39L26 39L26 40L25 40L25 39L23 39L23 40L24 40L24 41L23 41L23 42L24 42L24 41L26 41L26 40L27 40L27 41L30 41L30 40L29 40L29 39L30 39L30 38L31 38L31 36ZM6 38L6 39L7 39L7 38ZM27 39L27 40L28 40L28 39ZM15 41L15 42L16 42L16 41ZM48 41L48 42L49 42L49 41ZM35 42L35 43L36 43L36 42ZM35 44L35 45L36 45L36 44ZM41 45L41 46L42 46L42 45ZM61 45L61 46L62 46L62 45ZM6 46L6 47L7 47L7 46ZM32 46L32 47L33 47L33 46ZM21 47L21 49L22 49L22 50L23 50L23 49L24 49L24 50L25 50L25 51L24 51L24 52L23 52L23 54L24 54L24 55L25 55L25 54L26 54L26 56L30 56L30 57L29 57L29 58L27 58L27 61L28 61L28 59L29 59L29 62L31 62L31 60L32 60L32 59L30 59L30 58L31 58L31 57L32 57L32 55L33 55L33 56L35 56L35 55L36 55L36 54L35 54L35 55L34 55L34 54L33 54L33 53L34 53L34 52L33 52L33 53L31 53L31 51L30 51L30 50L29 50L29 52L28 52L28 51L27 51L27 50L28 50L28 49L27 49L27 50L26 50L26 49L24 49L24 48L23 48L23 47ZM22 48L22 49L23 49L23 48ZM29 48L29 49L31 49L31 50L32 50L32 51L34 51L34 50L33 50L33 48L32 48L32 49L31 49L31 48ZM6 49L6 50L7 50L7 49ZM13 49L13 50L12 50L12 51L13 51L13 52L14 52L14 54L15 54L15 56L13 56L13 58L14 58L14 59L15 59L15 60L12 60L12 63L11 63L11 60L9 60L9 61L10 61L10 62L9 62L9 63L10 63L10 64L9 64L9 65L10 65L10 64L12 64L12 65L11 65L11 66L13 66L13 68L15 68L15 67L16 67L16 68L17 68L17 65L18 65L18 64L17 64L17 63L18 63L18 62L19 62L19 61L18 61L18 60L16 60L16 59L15 59L15 58L16 58L16 57L17 57L17 55L16 55L16 54L17 54L17 53L16 53L16 52L14 52L14 51L13 51L13 50L14 50L14 49ZM59 49L59 51L60 51L60 49ZM57 50L57 51L56 51L56 52L58 52L58 50ZM25 51L25 52L26 52L26 54L29 54L29 55L30 55L30 54L31 54L31 55L32 55L32 54L31 54L31 53L27 53L27 51ZM39 51L39 52L40 52L40 51ZM51 52L51 53L52 53L52 52ZM60 52L60 54L63 54L63 53L61 53L61 52ZM21 53L21 54L22 54L22 53ZM44 53L44 56L43 56L43 57L44 57L44 56L46 56L46 54L45 54L45 53ZM6 55L6 56L7 56L7 55ZM15 56L15 57L14 57L14 58L15 58L15 57L16 57L16 56ZM38 56L38 57L39 57L39 56ZM55 56L55 57L54 57L54 58L53 58L53 59L54 59L54 60L55 60L55 61L56 61L56 60L55 60L55 59L56 59L56 56ZM5 57L5 58L7 58L7 57ZM21 57L21 58L22 58L22 57ZM65 57L65 58L66 58L66 57ZM17 58L17 59L19 59L19 58ZM45 58L45 59L44 59L44 60L43 60L43 61L42 61L42 60L41 60L41 62L42 62L42 63L43 63L43 62L44 62L44 60L45 60L45 61L46 61L46 60L45 60L45 59L46 59L46 58ZM47 58L47 59L48 59L48 58ZM54 58L54 59L55 59L55 58ZM63 58L63 59L64 59L64 58ZM50 59L50 60L47 60L47 62L45 62L45 63L44 63L44 64L45 64L45 66L46 66L46 64L45 64L45 63L47 63L47 62L50 62L50 60L52 60L52 59ZM57 59L57 60L58 60L58 59ZM3 60L3 61L5 61L5 60ZM13 61L13 63L14 63L14 62L15 62L15 61ZM17 61L17 62L16 62L16 63L15 63L15 64L14 64L14 65L13 65L13 66L14 66L14 65L17 65L17 64L16 64L16 63L17 63L17 62L18 62L18 61ZM33 61L33 64L36 64L36 61ZM57 61L57 62L58 62L58 61ZM61 61L61 64L64 64L64 61ZM34 62L34 63L35 63L35 62ZM52 62L52 63L53 63L53 62ZM62 62L62 63L63 63L63 62ZM65 62L65 63L66 63L66 62ZM25 63L25 64L26 64L26 63ZM31 65L31 66L30 66L30 67L31 67L31 66L32 66L32 65ZM36 65L36 66L37 66L37 65ZM62 65L62 66L64 66L64 65ZM25 66L25 67L26 67L26 66ZM48 67L48 68L49 68L49 67ZM60 67L60 68L61 68L61 67ZM0 0L0 7L7 7L7 0ZM1 1L1 6L6 6L6 1ZM2 2L2 5L5 5L5 2ZM62 0L62 7L69 7L69 0ZM63 1L63 6L68 6L68 1ZM64 2L64 5L67 5L67 2ZM0 62L0 69L7 69L7 62ZM1 63L1 68L6 68L6 63ZM2 64L2 67L5 67L5 64Z" fill="#000000"/></g></g></svg>
