<?xml version="1.0" encoding="UTF-8"?>
<svg xmlns="http://www.w3.org/2000/svg" version="1.1" width="300" height="300" viewBox="0 0 300 300"><rect x="0" y="0" width="300" height="300" fill="#ffffff"/><g transform="scale(4.615)"><g transform="translate(0,0)"><path fill-rule="evenodd" d="M10 0L10 1L8 1L8 3L9 3L9 4L8 4L8 8L6 8L6 9L4 9L4 8L3 8L3 9L2 9L2 8L0 8L0 10L1 10L1 11L0 11L0 12L1 12L1 13L2 13L2 16L0 16L0 17L1 17L1 22L2 22L2 21L3 21L3 20L4 20L4 19L5 19L5 21L4 21L4 22L3 22L3 23L1 23L1 24L0 24L0 25L1 25L1 24L4 24L4 25L3 25L3 26L2 26L2 27L1 27L1 26L0 26L0 30L1 30L1 31L0 31L0 32L1 32L1 33L0 33L0 34L1 34L1 36L2 36L2 35L4 35L4 36L3 36L3 38L0 38L0 39L2 39L2 40L0 40L0 41L3 41L3 40L4 40L4 45L5 45L5 46L6 46L6 47L7 47L7 48L5 48L5 49L4 49L4 50L3 50L3 53L2 53L2 50L1 50L1 49L3 49L3 48L2 48L2 46L1 46L1 45L0 45L0 47L1 47L1 48L0 48L0 51L1 51L1 52L0 52L0 54L1 54L1 53L2 53L2 55L3 55L3 56L1 56L1 55L0 55L0 56L1 56L1 57L3 57L3 56L4 56L4 57L5 57L5 56L4 56L4 54L3 54L3 53L4 53L4 52L6 52L6 53L9 53L9 54L5 54L5 55L7 55L7 56L6 56L6 57L7 57L7 56L8 56L8 59L9 59L9 61L8 61L8 62L10 62L10 63L8 63L8 65L9 65L9 64L10 64L10 65L11 65L11 64L13 64L13 65L17 65L17 64L16 64L16 63L17 63L17 61L21 61L21 60L20 60L20 59L22 59L22 58L23 58L23 59L24 59L24 58L23 58L23 56L24 56L24 57L25 57L25 56L26 56L26 55L25 55L25 54L27 54L27 53L25 53L25 52L27 52L27 51L28 51L28 50L30 50L30 51L29 51L29 53L30 53L30 51L32 51L32 52L31 52L31 53L32 53L32 54L31 54L31 55L29 55L29 54L28 54L28 55L27 55L27 56L28 56L28 57L29 57L29 56L30 56L30 60L29 60L29 59L28 59L28 58L27 58L27 57L26 57L26 58L25 58L25 60L22 60L22 61L23 61L23 62L22 62L22 64L24 64L24 63L25 63L25 64L26 64L26 65L31 65L31 64L33 64L33 63L36 63L36 64L34 64L34 65L37 65L37 64L38 64L38 65L40 65L40 63L41 63L41 62L42 62L42 61L45 61L45 63L46 63L46 62L47 62L47 63L48 63L48 61L49 61L49 62L50 62L50 60L51 60L51 61L55 61L55 62L57 62L57 63L59 63L59 65L61 65L61 64L60 64L60 63L61 63L61 62L62 62L62 63L63 63L63 64L62 64L62 65L64 65L64 63L65 63L65 61L64 61L64 60L65 60L65 59L64 59L64 58L65 58L65 57L64 57L64 56L65 56L65 53L64 53L64 52L63 52L63 54L62 54L62 52L61 52L61 54L60 54L60 53L58 53L58 55L59 55L59 56L57 56L57 53L56 53L56 52L58 52L58 51L59 51L59 52L60 52L60 50L58 50L58 49L57 49L57 47L58 47L58 46L59 46L59 44L60 44L60 45L61 45L61 46L60 46L60 47L59 47L59 48L60 48L60 47L62 47L62 49L63 49L63 47L64 47L64 46L63 46L63 44L61 44L61 42L60 42L60 41L64 41L64 43L65 43L65 40L64 40L64 39L65 39L65 38L64 38L64 37L65 37L65 35L64 35L64 34L63 34L63 33L65 33L65 32L64 32L64 31L65 31L65 29L62 29L62 28L61 28L61 26L63 26L63 28L65 28L65 26L64 26L64 24L63 24L63 23L64 23L64 22L61 22L61 23L58 23L58 22L56 22L56 24L55 24L55 23L54 23L54 20L55 20L55 21L56 21L56 20L58 20L58 21L61 21L61 20L62 20L62 19L64 19L64 20L65 20L65 17L64 17L64 16L61 16L61 15L60 15L60 13L61 13L61 12L60 12L60 11L61 11L61 8L58 8L58 9L60 9L60 10L59 10L59 13L58 13L58 15L60 15L60 17L61 17L61 19L60 19L60 18L57 18L57 14L53 14L53 13L54 13L54 12L53 12L53 11L51 11L51 10L50 10L50 12L48 12L48 11L49 11L49 10L47 10L47 11L46 11L46 12L44 12L44 11L45 11L45 10L44 10L44 9L43 9L43 10L44 10L44 11L43 11L43 12L42 12L42 11L41 11L41 8L42 8L42 7L43 7L43 8L45 8L45 9L46 9L46 8L47 8L47 9L49 9L49 8L50 8L50 9L52 9L52 10L53 10L53 9L54 9L54 8L52 8L52 7L53 7L53 6L52 6L52 5L53 5L53 4L52 4L52 5L51 5L51 4L50 4L50 5L51 5L51 6L50 6L50 7L49 7L49 5L47 5L47 6L46 6L46 3L48 3L48 2L46 2L46 1L47 1L47 0L45 0L45 1L44 1L44 2L43 2L43 3L44 3L44 2L45 2L45 5L44 5L44 4L41 4L41 5L40 5L40 7L39 7L39 2L37 2L37 4L38 4L38 7L37 7L37 5L36 5L36 4L35 4L35 3L36 3L36 2L35 2L35 1L36 1L36 0L33 0L33 1L31 1L31 0L27 0L27 1L28 1L28 2L29 2L29 3L27 3L27 4L26 4L26 2L25 2L25 3L24 3L24 2L23 2L23 1L22 1L22 0L20 0L20 1L19 1L19 2L18 2L18 0L17 0L17 2L16 2L16 3L14 3L14 2L13 2L13 1L14 1L14 0L12 0L12 1L11 1L11 0ZM15 0L15 1L16 1L16 0ZM24 0L24 1L26 1L26 0ZM37 0L37 1L40 1L40 3L41 3L41 1L43 1L43 0L41 0L41 1L40 1L40 0ZM48 0L48 1L49 1L49 3L51 3L51 2L50 2L50 1L52 1L52 3L54 3L54 4L56 4L56 5L57 5L57 4L56 4L56 3L57 3L57 1L56 1L56 0L55 0L55 1L56 1L56 3L55 3L55 2L54 2L54 1L52 1L52 0ZM20 1L20 3L18 3L18 2L17 2L17 3L18 3L18 4L19 4L19 5L18 5L18 6L17 6L17 4L16 4L16 5L13 5L13 2L10 2L10 5L9 5L9 7L10 7L10 6L11 6L11 7L12 7L12 6L13 6L13 8L12 8L12 10L11 10L11 11L12 11L12 10L13 10L13 11L14 11L14 9L15 9L15 7L16 7L16 6L17 6L17 8L16 8L16 10L15 10L15 11L16 11L16 14L15 14L15 13L14 13L14 14L15 14L15 15L16 15L16 16L17 16L17 15L16 15L16 14L17 14L17 11L18 11L18 10L21 10L21 8L22 8L22 6L23 6L23 9L24 9L24 10L22 10L22 12L23 12L23 14L24 14L24 15L22 15L22 17L21 17L21 18L22 18L22 22L21 22L21 21L19 21L19 20L17 20L17 19L15 19L15 21L14 21L14 23L13 23L13 21L12 21L12 22L11 22L11 24L7 24L7 23L6 23L6 22L7 22L7 21L8 21L8 20L11 20L11 18L13 18L13 20L14 20L14 18L13 18L13 16L14 16L14 17L15 17L15 18L16 18L16 17L15 17L15 16L14 16L14 15L13 15L13 13L12 13L12 15L11 15L11 17L10 17L10 18L9 18L9 16L8 16L8 15L6 15L6 14L7 14L7 13L8 13L8 12L7 12L7 11L6 11L6 12L5 12L5 10L3 10L3 11L4 11L4 12L5 12L5 13L4 13L4 14L3 14L3 16L2 16L2 20L3 20L3 18L4 18L4 17L6 17L6 18L5 18L5 19L6 19L6 20L7 20L7 21L6 21L6 22L4 22L4 23L6 23L6 24L5 24L5 25L4 25L4 26L3 26L3 28L2 28L2 29L1 29L1 30L2 30L2 32L3 32L3 34L4 34L4 30L2 30L2 29L4 29L4 28L5 28L5 27L6 27L6 28L8 28L8 26L7 26L7 25L10 25L10 26L9 26L9 28L10 28L10 27L11 27L11 26L12 26L12 25L13 25L13 26L14 26L14 27L13 27L13 28L14 28L14 29L15 29L15 28L16 28L16 30L18 30L18 31L17 31L17 32L14 32L14 31L15 31L15 30L14 30L14 31L13 31L13 29L12 29L12 28L11 28L11 29L10 29L10 33L9 33L9 34L11 34L11 36L12 36L12 35L13 35L13 36L14 36L14 37L13 37L13 38L10 38L10 35L8 35L8 36L7 36L7 35L6 35L6 36L7 36L7 37L6 37L6 38L7 38L7 39L6 39L6 40L5 40L5 39L4 39L4 40L5 40L5 43L6 43L6 44L7 44L7 45L6 45L6 46L8 46L8 49L9 49L9 48L10 48L10 50L11 50L11 51L10 51L10 52L9 52L9 50L8 50L8 51L6 51L6 52L9 52L9 53L11 53L11 54L10 54L10 55L9 55L9 57L10 57L10 56L11 56L11 57L12 57L12 56L15 56L15 55L17 55L17 56L20 56L20 57L19 57L19 58L22 58L22 57L21 57L21 55L22 55L22 56L23 56L23 53L22 53L22 54L20 54L20 52L21 52L21 49L20 49L20 51L19 51L19 49L18 49L18 50L17 50L17 51L16 51L16 52L14 52L14 51L13 51L13 50L12 50L12 49L15 49L15 50L16 50L16 49L15 49L15 48L16 48L16 44L17 44L17 46L20 46L20 47L19 47L19 48L21 48L21 46L20 46L20 45L21 45L21 44L22 44L22 43L20 43L20 44L19 44L19 45L18 45L18 43L19 43L19 42L20 42L20 40L19 40L19 39L18 39L18 38L20 38L20 39L21 39L21 40L22 40L22 41L21 41L21 42L23 42L23 41L24 41L24 43L23 43L23 44L26 44L26 46L24 46L24 45L22 45L22 48L23 48L23 49L22 49L22 51L23 51L23 50L28 50L28 48L29 48L29 49L30 49L30 50L31 50L31 49L32 49L32 50L33 50L33 49L34 49L34 48L36 48L36 47L35 47L35 45L36 45L36 44L33 44L33 43L32 43L32 44L30 44L30 47L28 47L28 48L27 48L27 47L26 47L26 46L29 46L29 45L28 45L28 44L29 44L29 43L31 43L31 42L32 42L32 40L34 40L34 39L33 39L33 38L34 38L34 37L35 37L35 39L38 39L38 38L40 38L40 39L39 39L39 40L40 40L40 41L42 41L42 42L43 42L43 43L41 43L41 42L38 42L38 40L37 40L37 43L38 43L38 44L37 44L37 47L38 47L38 48L39 48L39 49L38 49L38 50L37 50L37 51L36 51L36 49L35 49L35 51L36 51L36 52L37 52L37 51L38 51L38 53L37 53L37 55L36 55L36 56L35 56L35 58L36 58L36 56L37 56L37 55L38 55L38 57L37 57L37 59L36 59L36 60L37 60L37 59L38 59L38 60L39 60L39 59L40 59L40 60L41 60L41 61L38 61L38 63L40 63L40 62L41 62L41 61L42 61L42 60L43 60L43 57L42 57L42 56L43 56L43 55L44 55L44 58L45 58L45 56L46 56L46 55L47 55L47 53L46 53L46 52L47 52L47 51L48 51L48 52L49 52L49 56L50 56L50 57L49 57L49 59L50 59L50 58L51 58L51 56L50 56L50 50L51 50L51 51L52 51L52 53L51 53L51 55L53 55L53 58L52 58L52 59L51 59L51 60L55 60L55 59L56 59L56 58L55 58L55 57L56 57L56 55L55 55L55 53L53 53L53 50L55 50L55 49L56 49L56 50L57 50L57 49L56 49L56 47L57 47L57 46L58 46L58 45L57 45L57 44L59 44L59 43L58 43L58 42L59 42L59 41L60 41L60 40L59 40L59 39L61 39L61 40L63 40L63 38L62 38L62 37L64 37L64 35L63 35L63 34L62 34L62 35L61 35L61 36L60 36L60 35L59 35L59 39L58 39L58 42L57 42L57 41L56 41L56 42L57 42L57 44L56 44L56 43L55 43L55 45L54 45L54 43L53 43L53 42L51 42L51 44L53 44L53 45L48 45L48 44L49 44L49 42L50 42L50 41L47 41L47 40L48 40L48 39L51 39L51 40L52 40L52 41L53 41L53 40L52 40L52 39L53 39L53 38L54 38L54 42L55 42L55 39L56 39L56 38L58 38L58 37L56 37L56 36L57 36L57 35L56 35L56 34L55 34L55 33L54 33L54 32L53 32L53 33L52 33L52 35L51 35L51 36L53 36L53 37L52 37L52 38L51 38L51 37L50 37L50 34L51 34L51 32L50 32L50 33L48 33L48 32L49 32L49 31L50 31L50 29L48 29L48 30L47 30L47 27L46 27L46 28L45 28L45 27L44 27L44 26L46 26L46 25L47 25L47 26L48 26L48 25L47 25L47 23L48 23L48 24L49 24L49 25L50 25L50 27L51 27L51 28L52 28L52 29L54 29L54 30L51 30L51 31L55 31L55 32L56 32L56 29L55 29L55 28L56 28L56 27L57 27L57 26L58 26L58 25L59 25L59 26L61 26L61 25L63 25L63 24L62 24L62 23L61 23L61 25L59 25L59 24L58 24L58 23L57 23L57 24L56 24L56 27L55 27L55 24L54 24L54 23L53 23L53 24L54 24L54 26L53 26L53 25L52 25L52 26L51 26L51 24L49 24L49 23L52 23L52 22L53 22L53 21L52 21L52 22L51 22L51 20L52 20L52 19L53 19L53 20L54 20L54 19L55 19L55 20L56 20L56 19L57 19L57 18L56 18L56 16L55 16L55 17L54 17L54 19L53 19L53 18L52 18L52 19L51 19L51 18L50 18L50 17L51 17L51 16L52 16L52 17L53 17L53 15L50 15L50 17L49 17L49 18L48 18L48 17L44 17L44 16L43 16L43 17L41 17L41 14L42 14L42 15L43 15L43 14L44 14L44 15L45 15L45 14L44 14L44 13L42 13L42 12L41 12L41 14L40 14L40 13L39 13L39 12L38 12L38 14L37 14L37 13L35 13L35 12L36 12L36 10L37 10L37 11L40 11L40 10L39 10L39 9L36 9L36 8L37 8L37 7L36 7L36 6L35 6L35 9L31 9L31 10L32 10L32 11L30 11L30 12L29 12L29 11L28 11L28 12L27 12L27 8L28 8L28 10L29 10L29 9L30 9L30 8L29 8L29 7L30 7L30 6L29 6L29 7L28 7L28 6L27 6L27 8L26 8L26 6L25 6L25 7L24 7L24 5L23 5L23 4L24 4L24 3L22 3L22 6L21 6L21 7L20 7L20 6L19 6L19 5L20 5L20 3L21 3L21 1ZM30 1L30 3L31 3L31 4L33 4L33 3L35 3L35 2L31 2L31 1ZM11 4L11 6L12 6L12 4ZM25 4L25 5L26 5L26 4ZM28 4L28 5L30 5L30 4ZM31 5L31 8L34 8L34 5ZM41 5L41 7L42 7L42 5ZM43 5L43 7L44 7L44 5ZM54 5L54 7L55 7L55 9L56 9L56 7L57 7L57 6L56 6L56 7L55 7L55 5ZM14 6L14 7L15 7L15 6ZM18 6L18 9L17 9L17 10L16 10L16 11L17 11L17 10L18 10L18 9L20 9L20 8L19 8L19 6ZM32 6L32 7L33 7L33 6ZM45 6L45 7L46 7L46 6ZM47 6L47 8L48 8L48 6ZM51 6L51 7L52 7L52 6ZM38 7L38 8L39 8L39 7ZM8 8L8 9L6 9L6 10L8 10L8 11L9 11L9 12L10 12L10 13L9 13L9 15L10 15L10 13L11 13L11 12L10 12L10 11L9 11L9 10L10 10L10 9L9 9L9 8ZM25 8L25 10L24 10L24 11L23 11L23 12L24 12L24 14L25 14L25 15L24 15L24 16L23 16L23 18L24 18L24 17L25 17L25 19L23 19L23 21L25 21L25 22L23 22L23 24L21 24L21 23L18 23L18 21L17 21L17 20L16 20L16 26L15 26L15 27L14 27L14 28L15 28L15 27L16 27L16 28L17 28L17 29L18 29L18 30L19 30L19 31L18 31L18 33L20 33L20 32L19 32L19 31L21 31L21 29L22 29L22 27L23 27L23 29L25 29L25 27L23 27L23 25L24 25L24 24L25 24L25 25L27 25L27 23L26 23L26 24L25 24L25 22L26 22L26 21L27 21L27 19L26 19L26 18L27 18L27 15L26 15L26 13L27 13L27 12L24 12L24 11L26 11L26 8ZM62 8L62 9L63 9L63 11L62 11L62 12L63 12L63 11L64 11L64 8ZM8 9L8 10L9 10L9 9ZM34 10L34 11L35 11L35 10ZM55 10L55 13L56 13L56 10ZM20 11L20 12L19 12L19 13L20 13L20 12L21 12L21 11ZM2 12L2 13L3 13L3 12ZM6 12L6 13L5 13L5 14L6 14L6 13L7 13L7 12ZM28 12L28 13L29 13L29 14L30 14L30 15L32 15L32 17L34 17L34 16L35 16L35 17L38 17L38 18L41 18L41 19L38 19L38 21L41 21L41 22L40 22L40 23L42 23L42 25L41 25L41 24L38 24L38 22L37 22L37 23L36 23L36 24L35 24L35 22L34 22L34 24L32 24L32 22L33 22L33 21L32 21L32 20L33 20L33 18L32 18L32 20L29 20L29 19L31 19L31 17L29 17L29 18L28 18L28 21L29 21L29 22L28 22L28 24L29 24L29 25L28 25L28 27L26 27L26 30L23 30L23 31L22 31L22 32L21 32L21 33L24 33L24 31L25 31L25 35L23 35L23 36L22 36L22 38L21 38L21 39L23 39L23 40L24 40L24 38L23 38L23 36L25 36L25 35L26 35L26 37L25 37L25 40L26 40L26 41L25 41L25 43L26 43L26 44L27 44L27 43L28 43L28 42L27 42L27 39L28 39L28 40L29 40L29 41L31 41L31 39L30 39L30 37L31 37L31 38L32 38L32 37L31 37L31 35L32 35L32 36L33 36L33 35L35 35L35 32L36 32L36 33L37 33L37 32L39 32L39 34L37 34L37 35L36 35L36 36L35 36L35 37L37 37L37 38L38 38L38 37L44 37L44 38L42 38L42 39L41 39L41 40L42 40L42 39L43 39L43 40L44 40L44 41L43 41L43 42L44 42L44 43L43 43L43 44L42 44L42 45L43 45L43 46L40 46L40 50L41 50L41 49L42 49L42 48L43 48L43 49L44 49L44 50L42 50L42 51L39 51L39 50L38 50L38 51L39 51L39 53L38 53L38 55L39 55L39 54L40 54L40 56L39 56L39 58L38 58L38 59L39 59L39 58L40 58L40 59L41 59L41 60L42 60L42 58L41 58L41 56L42 56L42 55L43 55L43 54L44 54L44 55L46 55L46 53L45 53L45 52L46 52L46 51L47 51L47 49L49 49L49 50L48 50L48 51L49 51L49 50L50 50L50 49L49 49L49 48L50 48L50 46L49 46L49 47L46 47L46 48L44 48L44 45L43 45L43 44L45 44L45 45L47 45L47 46L48 46L48 45L47 45L47 42L44 42L44 41L46 41L46 39L45 39L45 40L44 40L44 38L45 38L45 37L46 37L46 38L50 38L50 37L49 37L49 36L48 36L48 35L47 35L47 36L46 36L46 35L45 35L45 36L44 36L44 35L43 35L43 34L44 34L44 32L43 32L43 34L42 34L42 36L41 36L41 35L39 35L39 34L40 34L40 33L42 33L42 30L41 30L41 29L40 29L40 27L41 27L41 26L42 26L42 25L43 25L43 26L44 26L44 25L45 25L45 23L46 23L46 22L45 22L45 23L44 23L44 17L43 17L43 23L42 23L42 21L41 21L41 20L42 20L42 18L41 18L41 17L40 17L40 16L39 16L39 15L37 15L37 16L36 16L36 14L35 14L35 13L34 13L34 12L30 12L30 13L29 13L29 12ZM50 12L50 14L51 14L51 12ZM64 12L64 13L65 13L65 12ZM21 13L21 14L22 14L22 13ZM32 13L32 15L33 15L33 13ZM47 13L47 14L46 14L46 16L47 16L47 15L48 15L48 16L49 16L49 15L48 15L48 14L49 14L49 13ZM62 13L62 15L65 15L65 14L63 14L63 13ZM0 14L0 15L1 15L1 14ZM19 14L19 15L18 15L18 16L19 16L19 17L17 17L17 18L18 18L18 19L20 19L20 20L21 20L21 19L20 19L20 14ZM34 14L34 15L35 15L35 14ZM5 15L5 16L6 16L6 17L8 17L8 16L6 16L6 15ZM12 15L12 16L13 16L13 15ZM25 15L25 17L26 17L26 15ZM28 15L28 16L29 16L29 15ZM3 16L3 17L4 17L4 16ZM38 16L38 17L39 17L39 16ZM58 16L58 17L59 17L59 16ZM62 17L62 18L63 18L63 17ZM6 18L6 19L7 19L7 18ZM8 18L8 19L9 19L9 18ZM34 18L34 20L36 20L36 21L37 21L37 20L36 20L36 19L37 19L37 18ZM45 18L45 19L46 19L46 18ZM47 18L47 20L48 20L48 21L49 21L49 22L50 22L50 21L49 21L49 20L48 20L48 18ZM25 19L25 20L26 20L26 19ZM50 19L50 20L51 20L51 19ZM59 19L59 20L60 20L60 19ZM30 21L30 22L31 22L31 21ZM8 22L8 23L9 23L9 22ZM14 23L14 24L13 24L13 25L14 25L14 24L15 24L15 23ZM17 23L17 24L18 24L18 23ZM30 23L30 25L29 25L29 28L27 28L27 29L28 29L28 30L26 30L26 31L27 31L27 32L26 32L26 34L28 34L28 35L27 35L27 37L26 37L26 39L27 39L27 38L28 38L28 37L30 37L30 36L28 36L28 35L29 35L29 33L27 33L27 32L28 32L28 30L29 30L29 29L30 29L30 28L31 28L31 30L36 30L36 31L37 31L37 30L38 30L38 31L39 31L39 32L40 32L40 29L39 29L39 28L38 28L38 29L35 29L35 28L34 28L34 29L32 29L32 28L33 28L33 27L35 27L35 26L36 26L36 28L37 28L37 27L38 27L38 26L39 26L39 27L40 27L40 26L39 26L39 25L38 25L38 24L37 24L37 25L38 25L38 26L36 26L36 25L35 25L35 24L34 24L34 25L33 25L33 27L32 27L32 28L31 28L31 26L30 26L30 25L31 25L31 23ZM43 23L43 24L44 24L44 23ZM6 24L6 25L7 25L7 24ZM19 24L19 25L18 25L18 26L19 26L19 27L17 27L17 28L19 28L19 29L20 29L20 28L19 28L19 27L21 27L21 24ZM57 24L57 25L58 25L58 24ZM19 25L19 26L20 26L20 25ZM34 25L34 26L35 26L35 25ZM6 26L6 27L7 27L7 26ZM52 26L52 27L53 27L53 26ZM42 27L42 29L43 29L43 31L45 31L45 33L47 33L47 32L48 32L48 31L49 31L49 30L48 30L48 31L47 31L47 32L46 32L46 29L45 29L45 28L44 28L44 29L43 29L43 27ZM58 28L58 29L57 29L57 30L60 30L60 29L59 29L59 28ZM6 29L6 30L7 30L7 29ZM8 29L8 30L9 30L9 29ZM38 29L38 30L39 30L39 29ZM61 29L61 30L62 30L62 29ZM11 30L11 34L12 34L12 33L13 33L13 32L12 32L12 30ZM5 31L5 34L8 34L8 31ZM31 31L31 34L34 34L34 31ZM57 31L57 34L60 34L60 31ZM62 31L62 32L63 32L63 31ZM6 32L6 33L7 33L7 32ZM32 32L32 33L33 33L33 32ZM58 32L58 33L59 33L59 32ZM1 33L1 34L2 34L2 33ZM14 33L14 34L13 34L13 35L14 35L14 36L18 36L18 37L20 37L20 34L18 34L18 35L17 35L17 34L16 34L16 35L15 35L15 33ZM53 34L53 35L55 35L55 36L54 36L54 37L55 37L55 36L56 36L56 35L55 35L55 34ZM18 35L18 36L19 36L19 35ZM38 35L38 36L37 36L37 37L38 37L38 36L39 36L39 35ZM62 35L62 36L61 36L61 37L62 37L62 36L63 36L63 35ZM7 37L7 38L8 38L8 39L7 39L7 40L6 40L6 41L7 41L7 40L11 40L11 39L9 39L9 37ZM16 37L16 38L17 38L17 37ZM13 38L13 40L12 40L12 41L10 41L10 42L9 42L9 41L8 41L8 42L6 42L6 43L7 43L7 44L9 44L9 43L10 43L10 42L11 42L11 44L10 44L10 46L9 46L9 47L10 47L10 48L11 48L11 47L12 47L12 48L13 48L13 46L12 46L12 45L13 45L13 44L16 44L16 43L17 43L17 42L14 42L14 41L15 41L15 38ZM16 39L16 41L19 41L19 40L18 40L18 39ZM29 39L29 40L30 40L30 39ZM35 41L35 42L36 42L36 41ZM2 42L2 43L1 43L1 44L3 44L3 42ZM12 42L12 43L13 43L13 42ZM62 42L62 43L63 43L63 42ZM45 43L45 44L46 44L46 43ZM11 44L11 45L12 45L12 44ZM32 44L32 45L33 45L33 44ZM39 44L39 45L41 45L41 44ZM64 44L64 45L65 45L65 44ZM55 45L55 46L53 46L53 47L52 47L52 46L51 46L51 47L52 47L52 50L53 50L53 47L54 47L54 48L55 48L55 47L56 47L56 46L57 46L57 45ZM3 46L3 47L4 47L4 46ZM31 46L31 48L30 48L30 49L31 49L31 48L32 48L32 49L33 49L33 48L34 48L34 46L33 46L33 48L32 48L32 46ZM38 46L38 47L39 47L39 46ZM23 47L23 48L24 48L24 49L27 49L27 48L25 48L25 47ZM46 48L46 49L45 49L45 51L44 51L44 52L43 52L43 51L42 51L42 52L40 52L40 53L42 53L42 54L43 54L43 53L44 53L44 52L45 52L45 51L46 51L46 49L47 49L47 48ZM64 48L64 49L65 49L65 48ZM6 49L6 50L7 50L7 49ZM4 50L4 51L5 51L5 50ZM64 50L64 51L65 51L65 50ZM11 51L11 53L12 53L12 54L11 54L11 55L12 55L12 54L13 54L13 55L14 55L14 52L13 52L13 53L12 53L12 51ZM17 51L17 53L18 53L18 52L19 52L19 51ZM54 51L54 52L55 52L55 51ZM33 52L33 53L34 53L34 54L35 54L35 53L34 53L34 52ZM42 52L42 53L43 53L43 52ZM24 53L24 54L25 54L25 53ZM52 53L52 54L53 54L53 55L54 55L54 54L53 54L53 53ZM17 54L17 55L18 55L18 54ZM19 54L19 55L20 55L20 54ZM32 54L32 55L31 55L31 56L33 56L33 54ZM61 54L61 55L60 55L60 56L61 56L61 55L62 55L62 59L61 59L61 60L62 60L62 59L63 59L63 56L64 56L64 55L62 55L62 54ZM24 55L24 56L25 56L25 55ZM47 56L47 57L46 57L46 58L47 58L47 57L48 57L48 56ZM54 56L54 57L55 57L55 56ZM15 57L15 58L14 58L14 59L16 59L16 60L18 60L18 57ZM31 57L31 60L34 60L34 57ZM57 57L57 60L60 60L60 57ZM9 58L9 59L10 59L10 58ZM16 58L16 59L17 59L17 58ZM26 58L26 60L27 60L27 58ZM32 58L32 59L33 59L33 58ZM53 58L53 59L55 59L55 58ZM58 58L58 59L59 59L59 58ZM44 59L44 60L46 60L46 59ZM47 59L47 60L48 60L48 59ZM10 60L10 61L11 61L11 62L12 62L12 63L14 63L14 64L15 64L15 63L14 63L14 60ZM28 60L28 61L29 61L29 62L30 62L30 63L27 63L27 64L30 64L30 63L31 63L31 62L30 62L30 61L29 61L29 60ZM24 61L24 62L23 62L23 63L24 63L24 62L25 62L25 61ZM26 61L26 62L27 62L27 61ZM32 61L32 63L33 63L33 61ZM34 61L34 62L35 62L35 61ZM36 61L36 63L37 63L37 61ZM19 62L19 64L18 64L18 65L19 65L19 64L20 64L20 62ZM52 62L52 63L49 63L49 64L47 64L47 65L50 65L50 64L51 64L51 65L52 65L52 63L54 63L54 62ZM59 62L59 63L60 63L60 62ZM63 62L63 63L64 63L64 62ZM10 63L10 64L11 64L11 63ZM43 63L43 64L44 64L44 65L45 65L45 64L44 64L44 63ZM41 64L41 65L42 65L42 64ZM54 64L54 65L56 65L56 64ZM0 0L0 7L7 7L7 0ZM1 1L1 6L6 6L6 1ZM2 2L2 5L5 5L5 2ZM58 0L58 7L65 7L65 0ZM59 1L59 6L64 6L64 1ZM60 2L60 5L63 5L63 2ZM0 58L0 65L7 65L7 58ZM1 59L1 64L6 64L6 59ZM2 60L2 63L5 63L5 60Z" fill="#000000"/></g></g></svg>
