<?xml version="1.0" encoding="UTF-8"?>
<svg xmlns="http://www.w3.org/2000/svg" version="1.1" width="300" height="300" viewBox="0 0 300 300"><rect x="0" y="0" width="300" height="300" fill="#ffffff"/><g transform="scale(4.348)"><g transform="translate(0,0)"><path fill-rule="evenodd" d="M8 0L8 1L11 1L11 0ZM14 0L14 1L13 1L13 2L11 2L11 3L13 3L13 4L14 4L14 5L15 5L15 6L14 6L14 7L15 7L15 6L16 6L16 8L12 8L12 7L13 7L13 5L12 5L12 4L11 4L11 5L12 5L12 7L11 7L11 6L10 6L10 7L9 7L9 6L8 6L8 7L9 7L9 8L8 8L8 9L9 9L9 8L10 8L10 9L11 9L11 10L10 10L10 12L9 12L9 11L8 11L8 10L6 10L6 11L7 11L7 12L6 12L6 13L5 13L5 11L1 11L1 10L2 10L2 9L4 9L4 8L0 8L0 13L1 13L1 14L0 14L0 21L1 21L1 20L3 20L3 21L4 21L4 19L5 19L5 18L3 18L3 16L2 16L2 19L1 19L1 15L2 15L2 13L3 13L3 15L9 15L9 14L10 14L10 15L11 15L11 14L12 14L12 13L11 13L11 14L10 14L10 12L14 12L14 13L17 13L17 15L16 15L16 14L13 14L13 16L6 16L6 17L7 17L7 18L6 18L6 19L7 19L7 20L6 20L6 21L7 21L7 22L5 22L5 23L4 23L4 22L3 22L3 23L2 23L2 22L0 22L0 23L1 23L1 24L0 24L0 27L1 27L1 28L2 28L2 31L1 31L1 32L0 32L0 34L2 34L2 35L1 35L1 36L0 36L0 37L2 37L2 38L0 38L0 42L1 42L1 43L2 43L2 44L1 44L1 46L0 46L0 48L1 48L1 47L3 47L3 48L2 48L2 49L3 49L3 48L4 48L4 47L5 47L5 48L6 48L6 49L8 49L8 52L6 52L6 53L8 53L8 54L6 54L6 55L7 55L7 56L5 56L5 53L4 53L4 52L5 52L5 51L7 51L7 50L5 50L5 51L4 51L4 50L1 50L1 49L0 49L0 50L1 50L1 51L0 51L0 52L1 52L1 53L0 53L0 61L1 61L1 58L2 58L2 59L3 59L3 58L2 58L2 56L3 56L3 54L4 54L4 59L7 59L7 60L6 60L6 61L7 61L7 60L8 60L8 59L9 59L9 61L8 61L8 62L9 62L9 63L10 63L10 62L9 62L9 61L10 61L10 59L11 59L11 61L12 61L12 59L14 59L14 61L15 61L15 62L14 62L14 63L13 63L13 62L11 62L11 63L12 63L12 68L11 68L11 64L9 64L9 65L8 65L8 69L9 69L9 68L11 68L11 69L13 69L13 67L14 67L14 69L15 69L15 67L14 67L14 66L15 66L15 65L16 65L16 66L17 66L17 67L18 67L18 64L19 64L19 67L20 67L20 69L25 69L25 68L28 68L28 69L30 69L30 67L31 67L31 68L34 68L34 69L35 69L35 68L34 68L34 67L35 67L35 65L39 65L39 66L37 66L37 67L38 67L38 68L39 68L39 69L41 69L41 68L42 68L42 67L41 67L41 66L42 66L42 65L40 65L40 64L41 64L41 62L39 62L39 61L40 61L40 60L41 60L41 61L42 61L42 60L41 60L41 59L42 59L42 58L43 58L43 56L41 56L41 55L42 55L42 53L43 53L43 54L44 54L44 55L46 55L46 54L48 54L48 53L47 53L47 51L50 51L50 52L51 52L51 53L52 53L52 52L54 52L54 51L53 51L53 50L51 50L51 49L49 49L49 47L50 47L50 46L49 46L49 45L48 45L48 44L51 44L51 47L52 47L52 48L54 48L54 46L55 46L55 44L54 44L54 43L53 43L53 42L54 42L54 40L53 40L53 39L52 39L52 37L51 37L51 36L53 36L53 34L56 34L56 33L53 33L53 31L52 31L52 32L51 32L51 34L52 34L52 35L51 35L51 36L50 36L50 37L49 37L49 35L50 35L50 33L48 33L48 32L50 32L50 30L49 30L49 29L51 29L51 30L52 30L52 28L54 28L54 26L53 26L53 27L50 27L50 26L52 26L52 25L49 25L49 23L51 23L51 22L50 22L50 21L51 21L51 20L52 20L52 21L53 21L53 22L54 22L54 23L53 23L53 25L55 25L55 26L57 26L57 27L58 27L58 28L55 28L55 32L56 32L56 29L57 29L57 30L59 30L59 31L60 31L60 27L59 27L59 26L58 26L58 25L59 25L59 23L58 23L58 25L56 25L56 24L57 24L57 21L54 21L54 20L55 20L55 19L51 19L51 18L50 18L50 19L51 19L51 20L49 20L49 18L48 18L48 17L45 17L45 15L44 15L44 16L43 16L43 18L42 18L42 16L41 16L41 17L40 17L40 14L41 14L41 15L43 15L43 14L42 14L42 13L41 13L41 12L43 12L43 13L44 13L44 11L45 11L45 14L46 14L46 13L49 13L49 14L48 14L48 15L49 15L49 17L52 17L52 18L54 18L54 17L55 17L55 18L56 18L56 17L57 17L57 18L59 18L59 19L58 19L58 20L59 20L59 21L60 21L60 23L61 23L61 24L62 24L62 25L61 25L61 26L62 26L62 27L61 27L61 29L62 29L62 27L63 27L63 29L64 29L64 27L63 27L63 26L64 26L64 23L65 23L65 25L68 25L68 26L69 26L69 21L68 21L68 22L67 22L67 21L65 21L65 20L63 20L63 18L62 18L62 20L59 20L59 19L60 19L60 17L58 17L58 16L57 16L57 14L58 14L58 15L59 15L59 16L61 16L61 17L64 17L64 15L65 15L65 18L66 18L66 19L67 19L67 20L69 20L69 19L68 19L68 18L69 18L69 16L68 16L68 18L66 18L66 16L67 16L67 15L66 15L66 14L69 14L69 10L68 10L68 9L69 9L69 8L68 8L68 9L67 9L67 8L64 8L64 9L67 9L67 10L65 10L65 11L63 11L63 10L62 10L62 8L61 8L61 9L60 9L60 7L61 7L61 6L60 6L60 7L59 7L59 4L58 4L58 7L57 7L57 5L56 5L56 3L57 3L57 1L55 1L55 0L53 0L53 2L52 2L52 0L51 0L51 3L50 3L50 2L49 2L49 1L50 1L50 0L49 0L49 1L48 1L48 0L47 0L47 1L46 1L46 2L45 2L45 0L44 0L44 2L43 2L43 5L42 5L42 7L41 7L41 6L40 6L40 5L41 5L41 4L42 4L42 1L43 1L43 0L39 0L39 1L40 1L40 3L41 3L41 4L38 4L38 2L37 2L37 3L35 3L35 2L36 2L36 0L34 0L34 1L35 1L35 2L31 2L31 1L32 1L32 0L31 0L31 1L30 1L30 2L29 2L29 0L28 0L28 2L27 2L27 1L26 1L26 2L24 2L24 3L27 3L27 5L28 5L28 7L27 7L27 6L26 6L26 7L25 7L25 6L24 6L24 5L23 5L23 4L21 4L21 3L23 3L23 2L22 2L22 1L19 1L19 0L17 0L17 1L18 1L18 3L17 3L17 2L15 2L15 4L14 4L14 1L16 1L16 0ZM23 0L23 1L25 1L25 0ZM37 0L37 1L38 1L38 0ZM58 0L58 1L61 1L61 0ZM8 2L8 5L9 5L9 2ZM20 2L20 3L19 3L19 4L17 4L17 3L16 3L16 4L15 4L15 5L16 5L16 6L17 6L17 8L18 8L18 10L17 10L17 9L15 9L15 11L14 11L14 9L13 9L13 10L12 10L12 11L14 11L14 12L15 12L15 11L16 11L16 10L17 10L17 11L18 11L18 12L19 12L19 13L18 13L18 14L19 14L19 15L17 15L17 16L13 16L13 17L16 17L16 18L14 18L14 19L15 19L15 20L13 20L13 21L14 21L14 22L15 22L15 21L16 21L16 20L17 20L17 19L16 19L16 18L19 18L19 19L20 19L20 22L19 22L19 20L18 20L18 21L17 21L17 22L16 22L16 23L14 23L14 24L12 24L12 23L13 23L13 22L12 22L12 21L11 21L11 20L12 20L12 19L13 19L13 18L12 18L12 19L11 19L11 20L10 20L10 19L9 19L9 18L10 18L10 17L9 17L9 18L8 18L8 20L7 20L7 21L9 21L9 20L10 20L10 21L11 21L11 22L8 22L8 25L3 25L3 24L1 24L1 27L2 27L2 28L3 28L3 31L2 31L2 32L1 32L1 33L2 33L2 34L4 34L4 33L3 33L3 31L4 31L4 30L8 30L8 29L9 29L9 30L11 30L11 31L6 31L6 32L9 32L9 33L11 33L11 34L10 34L10 35L9 35L9 37L8 37L8 38L7 38L7 37L6 37L6 38L7 38L7 39L5 39L5 38L3 38L3 39L1 39L1 40L3 40L3 41L2 41L2 42L3 42L3 43L6 43L6 44L5 44L5 46L7 46L7 45L8 45L8 42L10 42L10 49L12 49L12 47L13 47L13 46L12 46L12 45L11 45L11 43L13 43L13 42L10 42L10 41L12 41L12 40L14 40L14 41L15 41L15 43L14 43L14 44L15 44L15 45L14 45L14 48L15 48L15 46L17 46L17 47L16 47L16 50L15 50L15 51L16 51L16 53L17 53L17 54L16 54L16 55L14 55L14 53L15 53L15 52L12 52L12 53L11 53L11 51L9 51L9 52L8 52L8 53L9 53L9 54L8 54L8 57L9 57L9 59L10 59L10 56L11 56L11 57L12 57L12 58L14 58L14 59L16 59L16 62L15 62L15 63L19 63L19 62L18 62L18 61L17 61L17 59L18 59L18 60L19 60L19 61L20 61L20 60L21 60L21 62L20 62L20 64L21 64L21 62L23 62L23 60L24 60L24 62L25 62L25 63L23 63L23 64L22 64L22 65L24 65L24 66L23 66L23 67L22 67L22 66L21 66L21 65L20 65L20 67L22 67L22 68L24 68L24 67L27 67L27 65L28 65L28 66L31 66L31 63L30 63L30 62L32 62L32 60L31 60L31 59L32 59L32 57L33 57L33 58L34 58L34 59L33 59L33 60L34 60L34 59L35 59L35 57L33 57L33 54L31 54L31 53L36 53L36 54L34 54L34 55L35 55L35 56L36 56L36 57L37 57L37 55L39 55L39 56L38 56L38 58L39 58L39 59L38 59L38 61L39 61L39 60L40 60L40 58L39 58L39 56L40 56L40 55L41 55L41 51L43 51L43 52L44 52L44 50L45 50L45 48L46 48L46 50L47 50L47 48L48 48L48 47L47 47L47 44L48 44L48 43L49 43L49 42L50 42L50 43L51 43L51 40L52 40L52 42L53 42L53 40L52 40L52 39L50 39L50 41L49 41L49 37L48 37L48 36L47 36L47 37L46 37L46 38L45 38L45 36L44 36L44 38L43 38L43 37L42 37L42 35L40 35L40 37L41 37L41 38L42 38L42 39L41 39L41 40L40 40L40 42L39 42L39 38L38 38L38 37L39 37L39 34L40 34L40 33L38 33L38 34L37 34L37 35L38 35L38 37L37 37L37 38L35 38L35 37L32 37L32 32L30 32L30 33L29 33L29 34L30 34L30 33L31 33L31 37L30 37L30 38L31 38L31 37L32 37L32 38L35 38L35 39L38 39L38 40L36 40L36 42L37 42L37 43L34 43L34 41L35 41L35 40L34 40L34 41L33 41L33 43L32 43L32 40L33 40L33 39L28 39L28 40L29 40L29 42L28 42L28 41L26 41L26 42L27 42L27 43L30 43L30 45L31 45L31 47L29 47L29 45L27 45L27 44L24 44L24 43L25 43L25 42L23 42L23 44L24 44L24 45L27 45L27 46L28 46L28 47L26 47L26 46L23 46L23 45L20 45L20 44L18 44L18 45L16 45L16 44L17 44L17 43L19 43L19 42L20 42L20 43L21 43L21 44L22 44L22 43L21 43L21 41L23 41L23 39L27 39L27 36L26 36L26 34L27 34L27 35L28 35L28 38L29 38L29 36L30 36L30 35L28 35L28 32L29 32L29 31L25 31L25 34L23 34L23 33L24 33L24 32L23 32L23 33L21 33L21 32L22 32L22 31L23 31L23 30L25 30L25 29L24 29L24 27L25 27L25 25L24 25L24 27L23 27L23 28L22 28L22 29L23 29L23 30L22 30L22 31L21 31L21 29L19 29L19 27L17 27L17 26L19 26L19 25L21 25L21 26L20 26L20 28L21 28L21 27L22 27L22 26L23 26L23 25L22 25L22 24L25 24L25 22L23 22L23 21L24 21L24 20L23 20L23 19L24 19L24 18L25 18L25 21L27 21L27 22L26 22L26 23L27 23L27 22L30 22L30 24L29 24L29 23L28 23L28 26L26 26L26 28L27 28L27 27L28 27L28 29L31 29L31 31L33 31L33 30L32 30L32 29L33 29L33 28L34 28L34 30L35 30L35 27L38 27L38 28L36 28L36 30L38 30L38 32L40 32L40 31L41 31L41 33L42 33L42 32L43 32L43 35L45 35L45 34L46 34L46 35L47 35L47 32L45 32L45 31L44 31L44 29L43 29L43 28L45 28L45 29L46 29L46 28L47 28L47 29L49 29L49 26L48 26L48 24L47 24L47 25L46 25L46 23L47 23L47 22L48 22L48 23L49 23L49 20L48 20L48 19L46 19L46 21L45 21L45 20L44 20L44 18L45 18L45 17L44 17L44 18L43 18L43 19L41 19L41 20L42 20L42 21L44 21L44 22L42 22L42 24L39 24L39 23L38 23L38 22L35 22L35 21L34 21L34 20L35 20L35 18L36 18L36 17L37 17L37 19L38 19L38 20L40 20L40 19L39 19L39 16L38 16L38 15L39 15L39 14L40 14L40 11L42 11L42 10L40 10L40 11L39 11L39 14L37 14L37 13L38 13L38 10L39 10L39 7L40 7L40 8L41 8L41 9L42 9L42 8L41 8L41 7L40 7L40 6L39 6L39 5L38 5L38 4L37 4L37 8L38 8L38 10L37 10L37 12L36 12L36 9L35 9L35 12L36 12L36 13L33 13L33 11L34 11L34 10L33 10L33 9L32 9L32 8L31 8L31 9L32 9L32 10L33 10L33 11L32 11L32 13L29 13L29 11L30 11L30 12L31 12L31 10L30 10L30 9L28 9L28 8L29 8L29 7L30 7L30 6L29 6L29 7L28 7L28 8L27 8L27 7L26 7L26 8L25 8L25 7L24 7L24 6L23 6L23 7L22 7L22 5L21 5L21 7L20 7L20 6L19 6L19 8L18 8L18 5L19 5L19 4L20 4L20 3L21 3L21 2ZM28 2L28 5L29 5L29 2ZM30 2L30 3L31 3L31 4L30 4L30 5L31 5L31 4L32 4L32 3L31 3L31 2ZM47 2L47 3L46 3L46 5L45 5L45 8L44 8L44 6L43 6L43 9L45 9L45 10L46 10L46 11L47 11L47 12L48 12L48 11L47 11L47 9L46 9L46 8L48 8L48 9L50 9L50 10L49 10L49 11L51 11L51 15L50 15L50 16L52 16L52 17L53 17L53 16L56 16L56 14L55 14L55 13L54 13L54 11L55 11L55 12L56 12L56 13L58 13L58 14L59 14L59 15L60 15L60 14L61 14L61 16L62 16L62 15L63 15L63 14L64 14L64 13L66 13L66 12L67 12L67 13L68 13L68 12L67 12L67 11L66 11L66 12L62 12L62 11L61 11L61 10L60 10L60 11L61 11L61 12L59 12L59 11L57 11L57 10L53 10L53 9L54 9L54 8L55 8L55 9L58 9L58 10L59 10L59 7L58 7L58 8L57 8L57 7L56 7L56 6L55 6L55 4L53 4L53 3L54 3L54 2L53 2L53 3L51 3L51 4L53 4L53 5L54 5L54 6L53 6L53 7L52 7L52 5L49 5L49 4L50 4L50 3L49 3L49 2ZM55 2L55 3L56 3L56 2ZM58 2L58 3L59 3L59 2ZM44 3L44 4L45 4L45 3ZM47 3L47 4L49 4L49 3ZM60 3L60 5L61 5L61 3ZM16 4L16 5L17 5L17 4ZM25 4L25 5L26 5L26 4ZM33 5L33 8L36 8L36 5ZM46 5L46 7L47 7L47 6L48 6L48 7L49 7L49 8L51 8L51 9L53 9L53 8L52 8L52 7L51 7L51 6L50 6L50 7L49 7L49 6L48 6L48 5ZM31 6L31 7L32 7L32 6ZM34 6L34 7L35 7L35 6ZM38 6L38 7L39 7L39 6ZM54 6L54 7L55 7L55 8L56 8L56 7L55 7L55 6ZM10 7L10 8L11 8L11 7ZM21 7L21 8L22 8L22 9L23 9L23 10L20 10L20 8L19 8L19 10L18 10L18 11L23 11L23 13L25 13L25 14L24 14L24 17L23 17L23 18L22 18L22 17L21 17L21 15L23 15L23 14L21 14L21 12L20 12L20 13L19 13L19 14L21 14L21 15L20 15L20 19L23 19L23 18L24 18L24 17L25 17L25 16L26 16L26 17L28 17L28 18L30 18L30 17L28 17L28 15L29 15L29 16L30 16L30 15L31 15L31 16L32 16L32 15L33 15L33 17L32 17L32 18L31 18L31 19L29 19L29 20L28 20L28 21L30 21L30 20L31 20L31 21L32 21L32 22L31 22L31 23L32 23L32 22L33 22L33 24L30 24L30 25L31 25L31 27L30 27L30 26L28 26L28 27L29 27L29 28L33 28L33 27L35 27L35 22L34 22L34 21L33 21L33 20L34 20L34 18L35 18L35 17L34 17L34 15L35 15L35 16L36 16L36 14L33 14L33 13L32 13L32 14L30 14L30 15L29 15L29 14L28 14L28 13L27 13L27 16L26 16L26 13L25 13L25 11L26 11L26 10L24 10L24 9L23 9L23 8L24 8L24 7L23 7L23 8L22 8L22 7ZM6 8L6 9L7 9L7 8ZM28 10L28 11L27 11L27 12L28 12L28 11L29 11L29 10ZM43 10L43 11L44 11L44 10ZM52 11L52 12L53 12L53 11ZM56 11L56 12L57 12L57 11ZM7 12L7 13L6 13L6 14L8 14L8 12ZM49 12L49 13L50 13L50 12ZM58 12L58 13L59 13L59 12ZM61 12L61 14L63 14L63 13L62 13L62 12ZM4 13L4 14L5 14L5 13ZM52 13L52 14L53 14L53 13ZM46 15L46 16L47 16L47 15ZM52 15L52 16L53 16L53 15ZM4 16L4 17L5 17L5 16ZM18 16L18 17L19 17L19 16ZM37 16L37 17L38 17L38 16ZM33 17L33 18L32 18L32 19L33 19L33 18L34 18L34 17ZM26 19L26 20L27 20L27 19ZM21 20L21 22L20 22L20 23L23 23L23 22L22 22L22 21L23 21L23 20ZM39 21L39 22L40 22L40 23L41 23L41 21ZM62 21L62 22L65 22L65 23L66 23L66 24L67 24L67 22L65 22L65 21ZM17 22L17 23L16 23L16 24L14 24L14 26L12 26L12 24L11 24L11 26L12 26L12 27L11 27L11 28L10 28L10 26L9 26L9 27L7 27L7 26L5 26L5 28L4 28L4 29L7 29L7 28L10 28L10 29L11 29L11 30L12 30L12 31L13 31L13 30L12 30L12 29L11 29L11 28L13 28L13 27L15 27L15 26L17 26L17 25L19 25L19 22ZM55 22L55 23L54 23L54 24L55 24L55 23L56 23L56 22ZM6 23L6 24L7 24L7 23ZM17 23L17 24L16 24L16 25L17 25L17 24L18 24L18 23ZM43 23L43 24L42 24L42 25L44 25L44 27L45 27L45 28L46 28L46 27L47 27L47 26L46 26L46 25L44 25L44 23ZM9 24L9 25L10 25L10 24ZM26 24L26 25L27 25L27 24ZM38 24L38 25L37 25L37 26L40 26L40 25L39 25L39 24ZM33 25L33 26L32 26L32 27L33 27L33 26L34 26L34 25ZM2 26L2 27L3 27L3 26ZM41 26L41 27L42 27L42 28L41 28L41 29L39 29L39 31L40 31L40 30L41 30L41 29L42 29L42 28L43 28L43 27L42 27L42 26ZM45 26L45 27L46 27L46 26ZM65 26L65 27L66 27L66 30L67 30L67 29L68 29L68 30L69 30L69 29L68 29L68 28L69 28L69 27L68 27L68 28L67 28L67 27L66 27L66 26ZM6 27L6 28L7 28L7 27ZM16 27L16 28L17 28L17 27ZM14 28L14 30L15 30L15 32L14 32L14 33L15 33L15 35L14 35L14 34L11 34L11 35L10 35L10 37L9 37L9 38L8 38L8 41L7 41L7 40L5 40L5 39L4 39L4 40L5 40L5 41L3 41L3 42L6 42L6 43L7 43L7 42L8 42L8 41L10 41L10 40L9 40L9 39L10 39L10 38L11 38L11 40L12 40L12 39L14 39L14 38L15 38L15 41L16 41L16 42L18 42L18 41L16 41L16 39L18 39L18 38L16 38L16 37L19 37L19 41L20 41L20 40L21 40L21 37L19 37L19 36L20 36L20 35L21 35L21 36L22 36L22 35L23 35L23 37L24 37L24 36L25 36L25 35L23 35L23 34L19 34L19 33L17 33L17 34L18 34L18 36L17 36L17 35L16 35L16 30L17 30L17 29L15 29L15 28ZM58 28L58 29L59 29L59 28ZM18 29L18 31L19 31L19 29ZM26 29L26 30L27 30L27 29ZM53 29L53 30L54 30L54 29ZM46 30L46 31L47 31L47 30ZM61 30L61 31L62 31L62 30ZM20 31L20 32L21 32L21 31ZM35 31L35 32L37 32L37 31ZM57 31L57 32L58 32L58 33L57 33L57 35L54 35L54 36L55 36L55 38L56 38L56 36L57 36L57 38L58 38L58 37L59 37L59 34L58 34L58 33L60 33L60 39L61 39L61 37L65 37L65 38L63 38L63 39L62 39L62 40L58 40L58 41L57 41L57 40L56 40L56 39L55 39L55 42L56 42L56 44L58 44L58 45L59 45L59 44L58 44L58 42L59 42L59 41L63 41L63 43L62 43L62 42L60 42L60 44L61 44L61 43L62 43L62 44L63 44L63 45L65 45L65 44L64 44L64 43L66 43L66 42L65 42L65 39L66 39L66 41L67 41L67 43L68 43L68 42L69 42L69 41L67 41L67 38L66 38L66 37L68 37L68 38L69 38L69 37L68 37L68 36L69 36L69 32L68 32L68 31L67 31L67 32L65 32L65 31L63 31L63 32L58 32L58 31ZM11 32L11 33L13 33L13 32ZM26 32L26 33L27 33L27 32ZM67 32L67 34L68 34L68 32ZM5 33L5 36L8 36L8 33ZM33 33L33 36L36 36L36 33ZM44 33L44 34L45 34L45 33ZM52 33L52 34L53 34L53 33ZM61 33L61 36L64 36L64 33ZM6 34L6 35L7 35L7 34ZM34 34L34 35L35 35L35 34ZM62 34L62 35L63 35L63 34ZM2 35L2 36L3 36L3 37L4 37L4 35ZM11 35L11 38L12 38L12 35ZM57 35L57 36L58 36L58 35ZM66 35L66 36L67 36L67 35ZM13 36L13 37L15 37L15 36ZM25 37L25 38L26 38L26 37ZM47 37L47 39L45 39L45 38L44 38L44 39L45 39L45 40L43 40L43 41L45 41L45 42L44 42L44 43L45 43L45 44L46 44L46 43L48 43L48 42L49 42L49 41L48 41L48 42L47 42L47 41L46 41L46 40L47 40L47 39L48 39L48 37ZM22 38L22 39L23 39L23 38ZM68 39L68 40L69 40L69 39ZM24 40L24 41L25 41L25 40ZM30 40L30 41L31 41L31 40ZM63 40L63 41L64 41L64 40ZM6 41L6 42L7 42L7 41ZM41 41L41 42L40 42L40 43L43 43L43 42L42 42L42 41ZM38 42L38 43L39 43L39 42ZM45 42L45 43L46 43L46 42ZM52 43L52 44L53 44L53 43ZM6 44L6 45L7 45L7 44ZM31 44L31 45L33 45L33 46L34 46L34 47L35 47L35 48L37 48L37 49L36 49L36 50L34 50L34 49L33 49L33 48L32 48L32 47L31 47L31 48L29 48L29 47L28 47L28 48L29 48L29 50L27 50L27 49L25 49L25 50L24 50L24 51L23 51L23 50L22 50L22 49L21 49L21 50L20 50L20 49L19 49L19 50L18 50L18 48L20 48L20 46L19 46L19 45L18 45L18 48L17 48L17 50L18 50L18 51L17 51L17 52L20 52L20 53L22 53L22 56L21 56L21 60L23 60L23 59L22 59L22 56L23 56L23 57L24 57L24 58L25 58L25 57L24 57L24 56L25 56L25 55L23 55L23 54L24 54L24 53L28 53L28 54L29 54L29 52L31 52L31 51L33 51L33 50L34 50L34 51L35 51L35 52L36 52L36 53L37 53L37 52L39 52L39 53L38 53L38 54L39 54L39 55L40 55L40 54L39 54L39 53L40 53L40 51L36 51L36 50L40 50L40 49L38 49L38 48L39 48L39 47L40 47L40 48L42 48L42 49L44 49L44 48L43 48L43 46L44 46L44 45L42 45L42 44L41 44L41 45L40 45L40 44L39 44L39 47L38 47L38 46L37 46L37 47L36 47L36 46L35 46L35 44ZM36 44L36 45L37 45L37 44ZM2 45L2 46L3 46L3 47L4 47L4 45ZM41 45L41 47L42 47L42 45ZM56 45L56 46L57 46L57 45ZM66 45L66 46L65 46L65 48L66 48L66 46L67 46L67 47L68 47L68 48L67 48L67 50L68 50L68 48L69 48L69 45L68 45L68 46L67 46L67 45ZM8 46L8 47L9 47L9 46ZM21 46L21 47L22 47L22 46ZM59 46L59 47L58 47L58 48L57 48L57 47L56 47L56 48L57 48L57 52L56 52L56 49L55 49L55 53L57 53L57 54L56 54L56 55L55 55L55 56L57 56L57 57L58 57L58 56L57 56L57 55L58 55L58 54L61 54L61 55L62 55L62 56L63 56L63 57L65 57L65 58L58 58L58 59L60 59L60 61L59 61L59 63L60 63L60 64L59 64L59 65L58 65L58 67L57 67L57 69L58 69L58 67L59 67L59 68L60 68L60 69L61 69L61 68L63 68L63 69L64 69L64 68L63 68L63 67L62 67L62 66L59 66L59 65L65 65L65 67L66 67L66 65L67 65L67 66L68 66L68 65L69 65L69 63L65 63L65 60L66 60L66 61L68 61L68 62L69 62L69 61L68 61L68 60L66 60L66 59L69 59L69 58L68 58L68 57L69 57L69 55L68 55L68 54L69 54L69 52L68 52L68 51L66 51L66 49L65 49L65 50L64 50L64 47L63 47L63 46L61 46L61 47L60 47L60 46ZM6 47L6 48L7 48L7 47ZM23 47L23 48L24 48L24 47ZM37 47L37 48L38 48L38 47ZM46 47L46 48L47 48L47 47ZM59 47L59 48L58 48L58 53L59 53L59 52L61 52L61 51L63 51L63 52L62 52L62 55L63 55L63 56L64 56L64 55L65 55L65 57L66 57L66 58L67 58L67 57L68 57L68 56L67 56L67 54L68 54L68 52L67 52L67 53L66 53L66 52L65 52L65 51L64 51L64 50L61 50L61 51L59 51L59 50L60 50L60 47ZM8 48L8 49L9 49L9 48ZM31 48L31 49L30 49L30 50L31 50L31 49L32 49L32 50L33 50L33 49L32 49L32 48ZM61 48L61 49L63 49L63 48ZM48 49L48 50L49 50L49 49ZM26 50L26 51L27 51L27 50ZM22 51L22 53L23 53L23 51ZM28 51L28 52L29 52L29 51ZM45 51L45 53L46 53L46 51ZM2 52L2 54L3 54L3 52ZM9 52L9 53L10 53L10 52ZM12 53L12 56L13 56L13 57L15 57L15 56L13 56L13 53ZM18 53L18 54L17 54L17 55L16 55L16 59L17 59L17 57L18 57L18 56L17 56L17 55L19 55L19 53ZM63 53L63 54L65 54L65 53ZM10 54L10 55L9 55L9 56L10 56L10 55L11 55L11 54ZM20 54L20 55L21 55L21 54ZM26 54L26 55L27 55L27 56L28 56L28 57L29 57L29 59L25 59L25 61L26 61L26 60L28 60L28 61L29 61L29 62L28 62L28 64L29 64L29 62L30 62L30 61L31 61L31 60L29 60L29 59L31 59L31 57L32 57L32 56L31 56L31 57L29 57L29 55L27 55L27 54ZM30 54L30 55L31 55L31 54ZM36 54L36 55L37 55L37 54ZM51 54L51 55L47 55L47 57L48 57L48 58L50 58L50 59L48 59L48 60L47 60L47 61L49 61L49 62L48 62L48 63L50 63L50 64L49 64L49 65L46 65L46 68L45 68L45 69L48 69L48 68L47 68L47 67L49 67L49 69L54 69L54 67L53 67L53 66L54 66L54 65L55 65L55 66L57 66L57 64L58 64L58 61L56 61L56 60L54 60L54 59L53 59L53 58L55 58L55 59L57 59L57 58L55 58L55 57L53 57L53 55L54 55L54 54ZM1 55L1 56L2 56L2 55ZM51 55L51 56L52 56L52 55ZM19 56L19 58L18 58L18 59L20 59L20 56ZM45 56L45 57L46 57L46 56ZM48 56L48 57L50 57L50 58L51 58L51 59L50 59L50 60L49 60L49 61L51 61L51 62L50 62L50 63L54 63L54 64L55 64L55 62L56 62L56 61L54 61L54 60L52 60L52 57L50 57L50 56ZM60 56L60 57L61 57L61 56ZM66 56L66 57L67 57L67 56ZM5 57L5 58L7 58L7 59L8 59L8 58L7 58L7 57ZM36 58L36 60L37 60L37 58ZM44 58L44 59L45 59L45 58ZM62 59L62 60L63 60L63 59ZM3 60L3 61L5 61L5 60ZM43 60L43 63L44 63L44 64L43 64L43 65L45 65L45 63L46 63L46 62L45 62L45 61L44 61L44 60ZM33 61L33 64L36 64L36 61ZM52 61L52 62L53 62L53 61ZM61 61L61 64L64 64L64 61ZM26 62L26 64L25 64L25 66L26 66L26 64L27 64L27 62ZM34 62L34 63L35 63L35 62ZM37 62L37 63L38 63L38 64L39 64L39 62ZM44 62L44 63L45 63L45 62ZM62 62L62 63L63 63L63 62ZM56 63L56 64L57 64L57 63ZM13 64L13 66L14 66L14 64ZM50 64L50 65L49 65L49 66L50 66L50 68L51 68L51 64ZM52 64L52 65L53 65L53 64ZM67 64L67 65L68 65L68 64ZM9 65L9 66L10 66L10 65ZM33 66L33 67L34 67L34 66ZM39 66L39 68L40 68L40 66ZM44 66L44 67L45 67L45 66ZM52 67L52 68L53 68L53 67ZM55 67L55 69L56 69L56 67ZM60 67L60 68L61 68L61 67ZM68 67L68 68L69 68L69 67ZM17 68L17 69L18 69L18 68ZM65 68L65 69L66 69L66 68ZM0 0L0 7L7 7L7 0ZM1 1L1 6L6 6L6 1ZM2 2L2 5L5 5L5 2ZM62 0L62 7L69 7L69 0ZM63 1L63 6L68 6L68 1ZM64 2L64 5L67 5L67 2ZM0 62L0 69L7 69L7 62ZM1 63L1 68L6 68L6 63ZM2 64L2 67L5 67L5 64Z" fill="#000000"/></g></g></svg>
