<?xml version="1.0" encoding="UTF-8"?>
<svg xmlns="http://www.w3.org/2000/svg" version="1.1" width="300" height="300" viewBox="0 0 300 300"><rect x="0" y="0" width="300" height="300" fill="#ffffff"/><g transform="scale(4.348)"><g transform="translate(0,0)"><path fill-rule="evenodd" d="M8 0L8 4L10 4L10 3L11 3L11 4L12 4L12 5L10 5L10 8L9 8L9 9L10 9L10 10L9 10L9 11L8 11L8 12L9 12L9 11L11 11L11 10L12 10L12 12L14 12L14 11L16 11L16 14L17 14L17 13L18 13L18 15L15 15L15 17L14 17L14 18L15 18L15 21L14 21L14 19L13 19L13 20L12 20L12 17L11 17L11 16L13 16L13 14L14 14L14 13L13 13L13 14L12 14L12 13L10 13L10 15L9 15L9 14L8 14L8 15L9 15L9 16L6 16L6 15L7 15L7 14L5 14L5 13L7 13L7 12L6 12L6 11L7 11L7 10L8 10L8 9L7 9L7 8L4 8L4 9L7 9L7 10L3 10L3 9L2 9L2 8L0 8L0 9L1 9L1 10L2 10L2 11L1 11L1 12L0 12L0 18L1 18L1 20L2 20L2 21L4 21L4 23L5 23L5 21L4 21L4 20L5 20L5 19L4 19L4 18L6 18L6 19L7 19L7 20L6 20L6 21L7 21L7 22L6 22L6 23L7 23L7 24L5 24L5 26L6 26L6 27L7 27L7 26L6 26L6 25L7 25L7 24L8 24L8 28L6 28L6 29L9 29L9 28L10 28L10 30L9 30L9 31L8 31L8 32L6 32L6 31L7 31L7 30L6 30L6 31L3 31L3 32L4 32L4 34L3 34L3 33L2 33L2 32L0 32L0 33L1 33L1 34L0 34L0 35L1 35L1 36L0 36L0 38L1 38L1 39L2 39L2 38L1 38L1 37L2 37L2 35L3 35L3 39L4 39L4 38L5 38L5 37L8 37L8 38L10 38L10 36L9 36L9 31L13 31L13 30L14 30L14 32L15 32L15 33L13 33L13 32L12 32L12 33L11 33L11 32L10 32L10 33L11 33L11 34L12 34L12 35L13 35L13 36L12 36L12 38L11 38L11 39L7 39L7 38L6 38L6 39L5 39L5 40L6 40L6 41L7 41L7 42L4 42L4 43L3 43L3 41L4 41L4 40L0 40L0 42L2 42L2 43L1 43L1 44L0 44L0 45L2 45L2 46L0 46L0 50L1 50L1 52L0 52L0 55L1 55L1 53L3 53L3 54L2 54L2 55L3 55L3 54L4 54L4 56L5 56L5 57L8 57L8 56L5 56L5 55L8 55L8 52L6 52L6 51L8 51L8 50L10 50L10 48L11 48L11 49L12 49L12 50L11 50L11 51L9 51L9 54L10 54L10 55L9 55L9 57L10 57L10 58L9 58L9 59L10 59L10 60L8 60L8 58L4 58L4 59L7 59L7 60L6 60L6 61L7 61L7 60L8 60L8 62L9 62L9 63L8 63L8 65L10 65L10 64L12 64L12 65L14 65L14 66L13 66L13 67L12 67L12 66L10 66L10 67L8 67L8 69L9 69L9 68L10 68L10 69L15 69L15 68L13 68L13 67L14 67L14 66L15 66L15 67L16 67L16 68L17 68L17 69L19 69L19 67L20 67L20 66L21 66L21 67L22 67L22 68L21 68L21 69L22 69L22 68L26 68L26 69L27 69L27 68L26 68L26 67L28 67L28 66L29 66L29 69L31 69L31 67L33 67L33 68L32 68L32 69L33 69L33 68L34 68L34 69L35 69L35 68L34 68L34 65L35 65L35 67L36 67L36 65L37 65L37 63L38 63L38 62L39 62L39 61L38 61L38 59L37 59L37 57L38 57L38 58L39 58L39 60L41 60L41 62L40 62L40 63L39 63L39 64L38 64L38 66L37 66L37 67L39 67L39 66L40 66L40 63L41 63L41 67L40 67L40 68L38 68L38 69L40 69L40 68L41 68L41 69L43 69L43 68L41 68L41 67L43 67L43 63L44 63L44 69L46 69L46 67L45 67L45 63L46 63L46 64L47 64L47 63L48 63L48 65L47 65L47 66L48 66L48 67L49 67L49 68L47 68L47 69L50 69L50 67L49 67L49 65L50 65L50 66L51 66L51 65L52 65L52 63L49 63L49 58L48 58L48 57L49 57L49 56L48 56L48 54L49 54L49 55L50 55L50 54L51 54L51 53L52 53L52 54L53 54L53 53L54 53L54 55L55 55L55 54L56 54L56 57L54 57L54 59L56 59L56 58L57 58L57 60L56 60L56 61L53 61L53 66L52 66L52 67L51 67L51 69L52 69L52 68L53 68L53 69L55 69L55 68L54 68L54 67L53 67L53 66L55 66L55 67L57 67L57 64L58 64L58 63L55 63L55 64L54 64L54 62L56 62L56 61L58 61L58 59L59 59L59 60L60 60L60 63L59 63L59 64L60 64L60 66L61 66L61 65L62 65L62 67L61 67L61 69L64 69L64 67L65 67L65 63L66 63L66 62L67 62L67 65L66 65L66 67L67 67L67 66L69 66L69 64L68 64L68 62L69 62L69 59L68 59L68 57L69 57L69 56L68 56L68 57L67 57L67 56L66 56L66 57L65 57L65 58L64 58L64 57L62 57L62 53L61 53L61 52L63 52L63 51L62 51L62 50L64 50L64 52L65 52L65 54L64 54L64 53L63 53L63 54L64 54L64 55L63 55L63 56L64 56L64 55L65 55L65 54L67 54L67 55L68 55L68 53L69 53L69 52L68 52L68 50L66 50L66 49L65 49L65 50L64 50L64 49L62 49L62 46L63 46L63 48L65 48L65 47L66 47L66 46L67 46L67 44L68 44L68 45L69 45L69 44L68 44L68 42L69 42L69 41L68 41L68 40L69 40L69 39L68 39L68 38L69 38L69 35L68 35L68 29L69 29L69 27L68 27L68 26L69 26L69 25L68 25L68 26L67 26L67 24L66 24L66 25L65 25L65 26L64 26L64 27L63 27L63 25L64 25L64 24L65 24L65 23L66 23L66 22L67 22L67 23L68 23L68 24L69 24L69 23L68 23L68 22L69 22L69 20L68 20L68 18L67 18L67 17L69 17L69 16L68 16L68 13L69 13L69 12L68 12L68 11L67 11L67 9L69 9L69 8L65 8L65 9L64 9L64 8L63 8L63 9L62 9L62 10L63 10L63 9L64 9L64 11L65 11L65 10L66 10L66 11L67 11L67 12L65 12L65 13L67 13L67 16L66 16L66 17L64 17L64 16L65 16L65 14L64 14L64 13L63 13L63 11L62 11L62 19L61 19L61 13L60 13L60 11L61 11L61 6L60 6L60 9L59 9L59 8L56 8L56 9L55 9L55 5L56 5L56 7L57 7L57 6L58 6L58 7L59 7L59 4L58 4L58 5L56 5L56 3L59 3L59 2L56 2L56 1L57 1L57 0L56 0L56 1L55 1L55 0L53 0L53 1L52 1L52 0L50 0L50 5L51 5L51 6L50 6L50 7L49 7L49 5L47 5L47 6L46 6L46 7L45 7L45 6L44 6L44 5L46 5L46 4L47 4L47 2L48 2L48 3L49 3L49 2L48 2L48 1L49 1L49 0L47 0L47 2L46 2L46 3L45 3L45 1L46 1L46 0L45 0L45 1L44 1L44 0L41 0L41 1L40 1L40 0L38 0L38 1L40 1L40 4L38 4L38 3L36 3L36 4L35 4L35 2L37 2L37 1L34 1L34 0L31 0L31 1L30 1L30 0L23 0L23 1L22 1L22 0L17 0L17 3L19 3L19 4L15 4L15 5L16 5L16 7L15 7L15 6L14 6L14 7L13 7L13 5L14 5L14 3L11 3L11 2L9 2L9 0ZM11 0L11 1L13 1L13 2L15 2L15 1L16 1L16 0L15 0L15 1L14 1L14 0ZM58 0L58 1L61 1L61 0ZM18 1L18 2L19 2L19 3L21 3L21 8L20 8L20 5L19 5L19 8L20 8L20 9L18 9L18 5L17 5L17 7L16 7L16 8L15 8L15 9L18 9L18 11L17 11L17 12L19 12L19 11L20 11L20 13L19 13L19 14L20 14L20 13L21 13L21 12L22 12L22 14L21 14L21 15L19 15L19 16L18 16L18 17L17 17L17 18L16 18L16 21L15 21L15 22L16 22L16 24L14 24L14 23L13 23L13 22L12 22L12 21L11 21L11 19L10 19L10 18L11 18L11 17L10 17L10 16L9 16L9 19L8 19L8 20L9 20L9 19L10 19L10 21L9 21L9 22L8 22L8 24L9 24L9 25L12 25L12 26L11 26L11 27L14 27L14 28L15 28L15 29L14 29L14 30L15 30L15 29L16 29L16 32L17 32L17 33L16 33L16 35L17 35L17 33L18 33L18 32L19 32L19 33L20 33L20 31L22 31L22 30L20 30L20 27L22 27L22 29L23 29L23 27L24 27L24 28L25 28L25 29L26 29L26 28L28 28L28 31L27 31L27 32L26 32L26 31L25 31L25 30L23 30L23 31L25 31L25 33L29 33L29 34L28 34L28 35L27 35L27 34L24 34L24 35L25 35L25 36L24 36L24 37L23 37L23 36L22 36L22 35L23 35L23 32L22 32L22 34L20 34L20 35L19 35L19 34L18 34L18 36L19 36L19 37L17 37L17 36L16 36L16 39L17 39L17 38L18 38L18 40L19 40L19 42L18 42L18 43L19 43L19 42L20 42L20 43L21 43L21 44L19 44L19 47L20 47L20 48L21 48L21 47L22 47L22 49L19 49L19 48L18 48L18 49L17 49L17 47L18 47L18 45L16 45L16 44L15 44L15 43L16 43L16 42L17 42L17 40L16 40L16 41L15 41L15 43L14 43L14 42L13 42L13 43L12 43L12 42L11 42L11 41L12 41L12 39L11 39L11 41L10 41L10 44L11 44L11 43L12 43L12 44L13 44L13 45L14 45L14 46L12 46L12 45L11 45L11 46L10 46L10 45L9 45L9 43L8 43L8 44L7 44L7 43L6 43L6 44L7 44L7 45L4 45L4 46L2 46L2 47L1 47L1 50L2 50L2 52L3 52L3 53L4 53L4 52L5 52L5 48L7 48L7 49L6 49L6 50L7 50L7 49L8 49L8 47L9 47L9 46L10 46L10 47L11 47L11 48L12 48L12 47L14 47L14 48L16 48L16 50L18 50L18 51L16 51L16 55L15 55L15 54L14 54L14 52L15 52L15 51L14 51L14 52L13 52L13 51L12 51L12 52L13 52L13 54L14 54L14 55L15 55L15 57L17 57L17 56L18 56L18 55L19 55L19 56L20 56L20 57L19 57L19 59L20 59L20 60L19 60L19 61L17 61L17 58L16 58L16 59L15 59L15 58L14 58L14 61L16 61L16 62L15 62L15 63L16 63L16 64L15 64L15 65L16 65L16 67L17 67L17 65L18 65L18 64L19 64L19 65L20 65L20 64L21 64L21 63L22 63L22 62L23 62L23 61L26 61L26 62L27 62L27 64L26 64L26 63L25 63L25 62L24 62L24 63L25 63L25 65L29 65L29 66L30 66L30 67L31 67L31 65L32 65L32 66L33 66L33 65L32 65L32 64L31 64L31 65L29 65L29 63L30 63L30 61L29 61L29 60L27 60L27 59L28 59L28 58L29 58L29 59L30 59L30 60L32 60L32 59L34 59L34 60L37 60L37 59L36 59L36 57L37 57L37 55L38 55L38 56L39 56L39 54L40 54L40 57L39 57L39 58L40 58L40 59L41 59L41 58L40 58L40 57L41 57L41 56L42 56L42 57L44 57L44 54L45 54L45 53L46 53L46 54L47 54L47 53L46 53L46 52L49 52L49 54L50 54L50 52L49 52L49 51L52 51L52 50L53 50L53 52L52 52L52 53L53 53L53 52L55 52L55 53L56 53L56 54L57 54L57 56L58 56L58 54L59 54L59 53L60 53L60 55L61 55L61 53L60 53L60 52L59 52L59 51L61 51L61 50L62 50L62 49L61 49L61 48L57 48L57 49L58 49L58 54L57 54L57 53L56 53L56 52L57 52L57 50L56 50L56 47L55 47L55 46L56 46L56 44L55 44L55 42L56 42L56 43L57 43L57 44L58 44L58 42L59 42L59 43L60 43L60 42L61 42L61 40L63 40L63 39L64 39L64 40L65 40L65 41L64 41L64 42L63 42L63 41L62 41L62 44L59 44L59 45L58 45L58 46L57 46L57 47L58 47L58 46L59 46L59 47L60 47L60 46L62 46L62 44L63 44L63 43L64 43L64 42L65 42L65 44L64 44L64 47L65 47L65 46L66 46L66 44L67 44L67 43L66 43L66 42L68 42L68 41L66 41L66 40L67 40L67 37L68 37L68 35L67 35L67 31L64 31L64 29L65 29L65 30L67 30L67 29L68 29L68 27L65 27L65 28L64 28L64 29L63 29L63 28L62 28L62 27L61 27L61 26L60 26L60 27L61 27L61 28L59 28L59 27L58 27L58 26L59 26L59 24L58 24L58 23L60 23L60 24L61 24L61 23L62 23L62 25L63 25L63 24L64 24L64 23L65 23L65 22L64 22L64 21L66 21L66 20L67 20L67 21L68 21L68 20L67 20L67 18L65 18L65 20L64 20L64 17L63 17L63 19L62 19L62 20L59 20L59 19L60 19L60 18L59 18L59 17L60 17L60 16L59 16L59 17L58 17L58 14L59 14L59 15L60 15L60 13L59 13L59 12L58 12L58 14L57 14L57 15L56 15L56 16L54 16L54 17L53 17L53 16L52 16L52 15L53 15L53 14L52 14L52 15L51 15L51 14L50 14L50 12L49 12L49 14L50 14L50 16L52 16L52 17L51 17L51 20L52 20L52 21L53 21L53 22L52 22L52 23L51 23L51 22L50 22L50 19L49 19L49 18L48 18L48 17L46 17L46 16L47 16L47 15L46 15L46 14L47 14L47 12L46 12L46 10L47 10L47 8L49 8L49 10L50 10L50 11L51 11L51 10L52 10L52 11L53 11L53 12L52 12L52 13L54 13L54 12L55 12L55 13L56 13L56 10L54 10L54 11L53 11L53 10L52 10L52 9L53 9L53 8L54 8L54 6L53 6L53 5L52 5L52 6L51 6L51 7L50 7L50 8L49 8L49 7L48 7L48 6L47 6L47 8L45 8L45 7L44 7L44 6L43 6L43 8L41 8L41 7L42 7L42 5L40 5L40 6L39 6L39 7L40 7L40 10L38 10L38 9L37 9L37 10L38 10L38 12L36 12L36 13L34 13L34 11L36 11L36 9L34 9L34 11L33 11L33 10L32 10L32 11L31 11L31 13L32 13L32 12L33 12L33 14L32 14L32 18L31 18L31 19L30 19L30 20L31 20L31 19L32 19L32 20L34 20L34 23L31 23L31 21L29 21L29 20L28 20L28 22L26 22L26 19L28 19L28 18L29 18L29 16L31 16L31 14L30 14L30 13L29 13L29 12L30 12L30 9L32 9L32 8L30 8L30 9L28 9L28 6L29 6L29 7L30 7L30 6L31 6L31 7L32 7L32 6L31 6L31 5L32 5L32 4L34 4L34 2L33 2L33 1L32 1L32 3L31 3L31 2L30 2L30 3L29 3L29 2L28 2L28 1L27 1L27 2L26 2L26 1L23 1L23 2L22 2L22 1L21 1L21 2L20 2L20 1ZM41 1L41 2L42 2L42 1ZM51 1L51 2L52 2L52 1ZM53 1L53 2L55 2L55 3L53 3L53 4L55 4L55 3L56 3L56 2L55 2L55 1ZM21 2L21 3L22 3L22 5L23 5L23 3L24 3L24 5L25 5L25 6L24 6L24 7L25 7L25 8L24 8L24 9L23 9L23 10L22 10L22 9L20 9L20 11L24 11L24 13L23 13L23 14L22 14L22 15L21 15L21 16L19 16L19 17L18 17L18 18L19 18L19 17L21 17L21 18L20 18L20 19L17 19L17 25L14 25L14 24L13 24L13 23L12 23L12 22L11 22L11 23L12 23L12 25L13 25L13 26L15 26L15 27L16 27L16 26L18 26L18 27L17 27L17 28L16 28L16 29L17 29L17 31L18 31L18 29L19 29L19 26L18 26L18 25L19 25L19 24L20 24L20 26L21 26L21 25L24 25L24 26L25 26L25 28L26 28L26 27L27 27L27 26L28 26L28 25L27 25L27 24L26 24L26 23L25 23L25 24L22 24L22 23L21 23L21 24L20 24L20 23L18 23L18 22L19 22L19 21L20 21L20 22L21 22L21 21L22 21L22 20L23 20L23 23L24 23L24 22L25 22L25 19L22 19L22 16L23 16L23 17L24 17L24 18L25 18L25 17L26 17L26 18L27 18L27 17L28 17L28 16L29 16L29 14L28 14L28 12L27 12L27 11L28 11L28 9L27 9L27 8L26 8L26 7L27 7L27 5L28 5L28 4L29 4L29 3L27 3L27 5L25 5L25 3L24 3L24 2L23 2L23 3L22 3L22 2ZM43 2L43 3L41 3L41 4L43 4L43 5L44 5L44 4L45 4L45 3L44 3L44 2ZM43 3L43 4L44 4L44 3ZM51 3L51 4L52 4L52 3ZM60 3L60 5L61 5L61 3ZM8 5L8 7L9 7L9 5ZM29 5L29 6L30 6L30 5ZM33 5L33 8L36 8L36 5ZM37 5L37 7L38 7L38 5ZM11 6L11 8L12 8L12 9L14 9L14 8L13 8L13 7L12 7L12 6ZM22 6L22 8L23 8L23 6ZM25 6L25 7L26 7L26 6ZM34 6L34 7L35 7L35 6ZM40 6L40 7L41 7L41 6ZM52 6L52 7L51 7L51 8L50 8L50 10L51 10L51 9L52 9L52 8L53 8L53 6ZM25 8L25 9L24 9L24 10L25 10L25 13L26 13L26 14L25 14L25 15L24 15L24 14L23 14L23 16L24 16L24 17L25 17L25 15L26 15L26 16L28 16L28 15L27 15L27 13L26 13L26 11L27 11L27 9L26 9L26 8ZM44 8L44 9L45 9L45 10L46 10L46 9L45 9L45 8ZM25 9L25 10L26 10L26 9ZM41 9L41 10L42 10L42 12L44 12L44 13L42 13L42 15L39 15L39 13L40 13L40 14L41 14L41 11L39 11L39 13L38 13L38 15L36 15L36 16L35 16L35 14L34 14L34 15L33 15L33 17L34 17L34 18L33 18L33 19L34 19L34 20L37 20L37 21L36 21L36 22L37 22L37 21L38 21L38 20L39 20L39 24L38 24L38 25L37 25L37 24L36 24L36 23L34 23L34 24L33 24L33 25L31 25L31 24L30 24L30 25L29 25L29 26L33 26L33 27L31 27L31 28L30 28L30 29L29 29L29 30L30 30L30 29L32 29L32 28L33 28L33 27L34 27L34 28L35 28L35 27L36 27L36 26L37 26L37 28L36 28L36 29L33 29L33 31L34 31L34 30L37 30L37 28L38 28L38 30L39 30L39 31L38 31L38 32L37 32L37 31L35 31L35 32L32 32L32 30L31 30L31 31L29 31L29 33L30 33L30 34L29 34L29 37L30 37L30 39L29 39L29 38L28 38L28 37L27 37L27 35L26 35L26 38L28 38L28 39L25 39L25 37L24 37L24 39L25 39L25 40L24 40L24 41L23 41L23 42L22 42L22 41L20 41L20 42L21 42L21 43L22 43L22 44L21 44L21 45L20 45L20 47L21 47L21 45L22 45L22 47L23 47L23 46L27 46L27 47L28 47L28 48L26 48L26 47L24 47L24 48L23 48L23 50L24 50L24 51L23 51L23 54L24 54L24 55L23 55L23 56L22 56L22 55L21 55L21 54L22 54L22 50L20 50L20 51L19 51L19 52L17 52L17 53L20 53L20 56L21 56L21 57L20 57L20 58L21 58L21 57L24 57L24 58L25 58L25 59L26 59L26 58L28 58L28 57L27 57L27 56L26 56L26 58L25 58L25 55L27 55L27 53L29 53L29 54L28 54L28 55L30 55L30 53L31 53L31 54L32 54L32 52L33 52L33 51L34 51L34 52L35 52L35 53L38 53L38 52L39 52L39 53L40 53L40 54L41 54L41 55L42 55L42 54L44 54L44 53L45 53L45 50L46 50L46 51L48 51L48 50L49 50L49 49L50 49L50 50L52 50L52 47L53 47L53 50L55 50L55 49L54 49L54 46L55 46L55 45L54 45L54 43L53 43L53 42L55 42L55 41L53 41L53 42L52 42L52 43L51 43L51 41L52 41L52 40L54 40L54 38L55 38L55 39L56 39L56 37L57 37L57 38L58 38L58 39L57 39L57 40L56 40L56 42L58 42L58 41L59 41L59 42L60 42L60 41L59 41L59 40L58 40L58 39L60 39L60 40L61 40L61 39L62 39L62 37L65 37L65 38L64 38L64 39L65 39L65 38L66 38L66 37L65 37L65 35L66 35L66 34L65 34L65 33L66 33L66 32L63 32L63 31L61 31L61 32L60 32L60 35L59 35L59 36L60 36L60 37L59 37L59 38L58 38L58 35L57 35L57 36L56 36L56 34L57 34L57 33L59 33L59 32L58 32L58 31L60 31L60 30L61 30L61 29L62 29L62 30L63 30L63 29L62 29L62 28L61 28L61 29L59 29L59 30L58 30L58 27L57 27L57 26L58 26L58 24L57 24L57 23L58 23L58 21L59 21L59 22L60 22L60 23L61 23L61 21L59 21L59 20L58 20L58 19L59 19L59 18L58 18L58 17L57 17L57 16L56 16L56 17L54 17L54 19L53 19L53 17L52 17L52 19L53 19L53 21L54 21L54 24L55 24L55 20L56 20L56 22L57 22L57 23L56 23L56 25L54 25L54 27L53 27L53 29L52 29L52 27L51 27L51 28L50 28L50 26L53 26L53 25L52 25L52 24L53 24L53 23L52 23L52 24L51 24L51 23L50 23L50 22L49 22L49 23L48 23L48 25L47 25L47 22L46 22L46 21L49 21L49 20L48 20L48 19L46 19L46 17L45 17L45 14L46 14L46 13L45 13L45 11L43 11L43 9ZM58 9L58 10L57 10L57 11L58 11L58 10L59 10L59 9ZM13 10L13 11L14 11L14 10ZM2 11L2 12L1 12L1 13L2 13L2 12L3 12L3 13L5 13L5 11L4 11L4 12L3 12L3 11ZM36 13L36 14L37 14L37 13ZM44 13L44 14L43 14L43 17L44 17L44 14L45 14L45 13ZM2 14L2 15L1 15L1 17L2 17L2 18L3 18L3 17L2 17L2 16L3 16L3 15L4 15L4 17L5 17L5 15L4 15L4 14ZM63 14L63 15L64 15L64 14ZM38 15L38 16L37 16L37 18L34 18L34 19L37 19L37 18L38 18L38 19L39 19L39 20L40 20L40 22L41 22L41 20L42 20L42 19L43 19L43 22L42 22L42 23L41 23L41 24L40 24L40 27L39 27L39 29L40 29L40 30L42 30L42 28L43 28L43 30L44 30L44 28L45 28L45 29L46 29L46 30L45 30L45 33L44 33L44 31L40 31L40 33L44 33L44 34L43 34L43 38L45 38L45 37L46 37L46 42L45 42L45 45L44 45L44 40L45 40L45 39L43 39L43 42L38 42L38 40L39 40L39 38L38 38L38 39L37 39L37 37L38 37L38 36L39 36L39 37L42 37L42 36L41 36L41 34L38 34L38 33L39 33L39 32L38 32L38 33L37 33L37 34L38 34L38 35L37 35L37 37L32 37L32 36L31 36L31 37L32 37L32 38L31 38L31 39L32 39L32 40L30 40L30 41L29 41L29 40L27 40L27 41L26 41L26 40L25 40L25 41L24 41L24 42L25 42L25 41L26 41L26 42L27 42L27 43L26 43L26 44L25 44L25 45L26 45L26 44L27 44L27 45L28 45L28 46L29 46L29 47L31 47L31 48L34 48L34 49L36 49L36 50L35 50L35 52L37 52L37 50L38 50L38 51L39 51L39 50L38 50L38 49L39 49L39 47L41 47L41 48L40 48L40 53L42 53L42 52L41 52L41 49L42 49L42 45L41 45L41 46L40 46L40 45L39 45L39 44L38 44L38 45L37 45L37 46L36 46L36 47L35 47L35 45L36 45L36 44L37 44L37 42L38 42L38 43L41 43L41 44L43 44L43 45L44 45L44 46L45 46L45 45L46 45L46 47L47 47L47 48L45 48L45 47L44 47L44 48L43 48L43 49L44 49L44 50L45 50L45 49L46 49L46 50L47 50L47 48L48 48L48 47L47 47L47 45L46 45L46 43L47 43L47 44L48 44L48 43L50 43L50 41L51 41L51 40L50 40L50 37L51 37L51 39L52 39L52 38L53 38L53 37L56 37L56 36L55 36L55 34L54 34L54 36L53 36L53 34L52 34L52 33L53 33L53 32L52 32L52 33L51 33L51 31L50 31L50 29L48 29L48 30L47 30L47 29L46 29L46 27L43 27L43 26L41 26L41 25L42 25L42 24L43 24L43 25L44 25L44 24L45 24L45 23L44 23L44 20L46 20L46 19L44 19L44 18L41 18L41 17L42 17L42 16L40 16L40 19L39 19L39 18L38 18L38 17L39 17L39 15ZM34 16L34 17L35 17L35 16ZM6 17L6 18L8 18L8 17ZM56 17L56 18L55 18L55 19L56 19L56 20L57 20L57 21L58 21L58 20L57 20L57 19L56 19L56 18L57 18L57 17ZM2 19L2 20L4 20L4 19ZM21 19L21 20L22 20L22 19ZM62 20L62 23L64 23L64 22L63 22L63 21L64 21L64 20ZM32 21L32 22L33 22L33 21ZM0 22L0 23L1 23L1 22ZM28 22L28 23L30 23L30 22ZM2 23L2 24L0 24L0 26L1 26L1 27L0 27L0 28L1 28L1 27L2 27L2 26L4 26L4 25L3 25L3 23ZM9 23L9 24L10 24L10 23ZM49 23L49 24L50 24L50 25L49 25L49 26L47 26L47 25L46 25L46 26L47 26L47 27L49 27L49 26L50 26L50 25L51 25L51 24L50 24L50 23ZM34 24L34 25L33 25L33 26L34 26L34 25L36 25L36 24ZM25 25L25 26L27 26L27 25ZM22 26L22 27L23 27L23 26ZM55 26L55 27L54 27L54 28L55 28L55 29L56 29L56 30L53 30L53 31L54 31L54 32L55 32L55 33L56 33L56 32L57 32L57 31L58 31L58 30L57 30L57 29L56 29L56 26ZM4 27L4 28L5 28L5 27ZM28 27L28 28L29 28L29 27ZM40 27L40 28L42 28L42 27ZM12 28L12 29L11 29L11 30L13 30L13 28ZM17 28L17 29L18 29L18 28ZM1 29L1 30L3 30L3 29ZM4 29L4 30L5 30L5 29ZM51 29L51 30L52 30L52 29ZM46 30L46 31L47 31L47 30ZM56 30L56 31L57 31L57 30ZM31 32L31 33L32 33L32 32ZM46 32L46 33L45 33L45 34L44 34L44 37L45 37L45 34L46 34L46 37L49 37L49 36L47 36L47 34L48 34L48 33L49 33L49 32ZM5 33L5 36L8 36L8 33ZM33 33L33 36L36 36L36 33ZM46 33L46 34L47 34L47 33ZM50 33L50 34L49 34L49 35L50 35L50 34L51 34L51 33ZM61 33L61 36L64 36L64 33ZM6 34L6 35L7 35L7 34ZM13 34L13 35L14 35L14 37L13 37L13 38L14 38L14 37L15 37L15 34ZM31 34L31 35L32 35L32 34ZM34 34L34 35L35 35L35 34ZM62 34L62 35L63 35L63 34ZM51 35L51 37L52 37L52 35ZM20 36L20 39L19 39L19 40L21 40L21 39L22 39L22 40L23 40L23 37L22 37L22 36ZM60 37L60 39L61 39L61 37ZM33 38L33 40L32 40L32 41L34 41L34 42L33 42L33 45L32 45L32 43L31 43L31 44L29 44L29 46L30 46L30 45L31 45L31 46L32 46L32 47L33 47L33 45L34 45L34 44L35 44L35 43L34 43L34 42L37 42L37 40L36 40L36 41L34 41L34 38ZM40 38L40 41L41 41L41 38ZM47 38L47 41L50 41L50 40L48 40L48 38ZM6 39L6 40L7 40L7 39ZM13 40L13 41L14 41L14 40ZM57 40L57 41L58 41L58 40ZM8 41L8 42L9 42L9 41ZM27 41L27 42L28 42L28 41ZM30 41L30 42L31 42L31 41ZM2 43L2 45L3 45L3 43ZM23 43L23 44L22 44L22 45L23 45L23 44L24 44L24 43ZM52 43L52 45L53 45L53 43ZM14 44L14 45L15 45L15 46L14 46L14 47L15 47L15 46L16 46L16 47L17 47L17 46L16 46L16 45L15 45L15 44ZM8 45L8 46L9 46L9 45ZM38 45L38 46L37 46L37 47L36 47L36 48L38 48L38 47L39 47L39 45ZM49 45L49 48L50 48L50 49L51 49L51 47L50 47L50 45ZM6 46L6 47L7 47L7 46ZM11 46L11 47L12 47L12 46ZM4 47L4 48L2 48L2 49L4 49L4 48L5 48L5 47ZM34 47L34 48L35 48L35 47ZM67 47L67 49L69 49L69 47ZM28 48L28 49L27 49L27 50L26 50L26 49L25 49L25 50L26 50L26 52L25 52L25 51L24 51L24 53L26 53L26 52L27 52L27 51L28 51L28 50L29 50L29 51L30 51L30 49L29 49L29 48ZM44 48L44 49L45 49L45 48ZM14 49L14 50L15 50L15 49ZM18 49L18 50L19 50L19 49ZM31 49L31 51L33 51L33 49ZM59 49L59 50L60 50L60 49ZM3 50L3 52L4 52L4 50ZM42 50L42 51L43 51L43 53L44 53L44 51L43 51L43 50ZM65 50L65 51L66 51L66 53L67 53L67 51L66 51L66 50ZM29 52L29 53L30 53L30 52ZM6 53L6 54L7 54L7 53ZM11 53L11 56L12 56L12 57L11 57L11 58L10 58L10 59L11 59L11 60L12 60L12 61L10 61L10 63L9 63L9 64L10 64L10 63L11 63L11 62L12 62L12 61L13 61L13 58L12 58L12 57L13 57L13 56L12 56L12 53ZM33 53L33 57L32 57L32 58L34 58L34 59L35 59L35 58L34 58L34 53ZM35 54L35 55L36 55L36 54ZM16 55L16 56L17 56L17 55ZM51 55L51 57L50 57L50 60L51 60L51 58L52 58L52 59L53 59L53 57L52 57L52 55ZM0 56L0 61L1 61L1 58L2 58L2 59L3 59L3 56ZM30 56L30 57L29 57L29 58L31 58L31 56ZM59 56L59 57L58 57L58 58L59 58L59 59L61 59L61 60L62 60L62 59L63 59L63 60L64 60L64 59L63 59L63 58L62 58L62 59L61 59L61 58L60 58L60 56ZM46 57L46 58L47 58L47 59L45 59L45 58L42 58L42 61L43 61L43 62L42 62L42 63L43 63L43 62L44 62L44 63L45 63L45 61L46 61L46 62L47 62L47 59L48 59L48 58L47 58L47 57ZM66 57L66 58L65 58L65 61L66 61L66 60L68 60L68 59L66 59L66 58L67 58L67 57ZM11 58L11 59L12 59L12 58ZM22 58L22 60L20 60L20 63L19 63L19 64L20 64L20 63L21 63L21 62L22 62L22 60L24 60L24 59L23 59L23 58ZM3 60L3 61L5 61L5 60ZM26 60L26 61L27 61L27 62L28 62L28 61L27 61L27 60ZM44 60L44 61L45 61L45 60ZM33 61L33 64L36 64L36 61ZM37 61L37 62L38 62L38 61ZM50 61L50 62L52 62L52 61ZM61 61L61 64L64 64L64 61ZM67 61L67 62L68 62L68 61ZM13 62L13 63L14 63L14 62ZM16 62L16 63L18 63L18 62ZM31 62L31 63L32 63L32 62ZM34 62L34 63L35 63L35 62ZM62 62L62 63L63 63L63 62ZM22 64L22 65L21 65L21 66L22 66L22 65L23 65L23 64ZM24 66L24 67L25 67L25 66ZM11 67L11 68L12 68L12 67ZM58 67L58 68L56 68L56 69L59 69L59 67ZM62 67L62 68L63 68L63 67ZM36 68L36 69L37 69L37 68ZM65 68L65 69L67 69L67 68ZM68 68L68 69L69 69L69 68ZM0 0L0 7L7 7L7 0ZM1 1L1 6L6 6L6 1ZM2 2L2 5L5 5L5 2ZM62 0L62 7L69 7L69 0ZM63 1L63 6L68 6L68 1ZM64 2L64 5L67 5L67 2ZM0 62L0 69L7 69L7 62ZM1 63L1 68L6 68L6 63ZM2 64L2 67L5 67L5 64Z" fill="#000000"/></g></g></svg>
