<?xml version="1.0" encoding="UTF-8"?>
<svg xmlns="http://www.w3.org/2000/svg" version="1.1" width="300" height="300" viewBox="0 0 300 300"><rect x="0" y="0" width="300" height="300" fill="#ffffff"/><g transform="scale(4.348)"><g transform="translate(0,0)"><path fill-rule="evenodd" d="M8 0L8 1L9 1L9 2L8 2L8 5L9 5L9 6L8 6L8 7L9 7L9 6L10 6L10 7L11 7L11 6L12 6L12 7L13 7L13 8L15 8L15 9L16 9L16 10L15 10L15 11L14 11L14 10L13 10L13 9L12 9L12 8L10 8L10 9L9 9L9 8L8 8L8 9L7 9L7 8L6 8L6 9L4 9L4 8L0 8L0 9L2 9L2 10L5 10L5 11L7 11L7 12L5 12L5 14L2 14L2 13L3 13L3 12L4 12L4 11L1 11L1 10L0 10L0 11L1 11L1 12L0 12L0 13L1 13L1 14L0 14L0 19L1 19L1 20L0 20L0 22L3 22L3 20L6 20L6 21L7 21L7 22L5 22L5 21L4 21L4 23L3 23L3 24L0 24L0 25L3 25L3 27L4 27L4 30L5 30L5 29L7 29L7 30L6 30L6 31L9 31L9 32L4 32L4 31L3 31L3 30L2 30L2 26L0 26L0 27L1 27L1 28L0 28L0 31L1 31L1 32L2 32L2 33L1 33L1 34L0 34L0 35L2 35L2 36L0 36L0 37L7 37L7 38L6 38L6 39L7 39L7 40L6 40L6 41L5 41L5 40L4 40L4 39L2 39L2 38L1 38L1 41L2 41L2 40L3 40L3 42L2 42L2 43L1 43L1 42L0 42L0 44L1 44L1 45L0 45L0 46L1 46L1 48L0 48L0 50L1 50L1 48L3 48L3 47L2 47L2 46L1 46L1 45L2 45L2 44L3 44L3 42L5 42L5 44L4 44L4 46L5 46L5 48L6 48L6 49L2 49L2 51L3 51L3 53L4 53L4 55L3 55L3 54L2 54L2 52L1 52L1 51L0 51L0 53L1 53L1 55L0 55L0 61L1 61L1 56L3 56L3 58L2 58L2 59L3 59L3 58L4 58L4 59L7 59L7 60L6 60L6 61L8 61L8 62L9 62L9 65L8 65L8 69L9 69L9 68L12 68L12 69L13 69L13 68L14 68L14 69L18 69L18 68L19 68L19 67L20 67L20 69L21 69L21 68L22 68L22 69L26 69L26 68L28 68L28 69L30 69L30 67L32 67L32 68L33 68L33 69L34 69L34 67L38 67L38 68L39 68L39 69L43 69L43 68L42 68L42 67L41 67L41 66L42 66L42 65L40 65L40 64L41 64L41 62L39 62L39 61L40 61L40 60L41 60L41 61L42 61L42 60L41 60L41 59L42 59L42 58L43 58L43 56L41 56L41 54L42 54L42 55L43 55L43 54L44 54L44 55L46 55L46 54L48 54L48 55L47 55L47 57L48 57L48 58L50 58L50 56L51 56L51 57L53 57L53 58L51 58L51 61L50 61L50 60L49 60L49 59L48 59L48 60L47 60L47 59L45 59L45 58L44 58L44 59L45 59L45 63L44 63L44 64L43 64L43 65L45 65L45 63L46 63L46 60L47 60L47 61L49 61L49 62L48 62L48 63L47 63L47 64L49 64L49 65L48 65L48 66L47 66L47 65L46 65L46 68L45 68L45 69L48 69L48 68L47 68L47 67L48 67L48 66L49 66L49 65L50 65L50 64L51 64L51 65L52 65L52 64L53 64L53 63L52 63L52 59L53 59L53 61L55 61L55 62L56 62L56 63L57 63L57 62L58 62L58 61L59 61L59 62L60 62L60 65L59 65L59 64L58 64L58 65L57 65L57 64L55 64L55 65L56 65L56 66L55 66L55 67L53 67L53 66L54 66L54 65L53 65L53 66L52 66L52 67L53 67L53 68L51 68L51 69L53 69L53 68L57 68L57 69L59 69L59 68L60 68L60 69L63 69L63 68L64 68L64 69L66 69L66 68L65 68L65 67L62 67L62 66L64 66L64 65L65 65L65 66L66 66L66 67L67 67L67 66L68 66L68 63L65 63L65 60L66 60L66 59L67 59L67 61L68 61L68 62L69 62L69 61L68 61L68 59L69 59L69 58L68 58L68 56L69 56L69 55L68 55L68 54L69 54L69 52L68 52L68 51L65 51L65 50L63 50L63 49L61 49L61 48L62 48L62 47L63 47L63 46L62 46L62 45L63 45L63 44L64 44L64 45L65 45L65 44L64 44L64 43L62 43L62 42L63 42L63 41L64 41L64 42L65 42L65 43L66 43L66 42L65 42L65 40L68 40L68 39L67 39L67 38L66 38L66 37L65 37L65 36L66 36L66 35L67 35L67 37L68 37L68 38L69 38L69 37L68 37L68 36L69 36L69 33L68 33L68 32L69 32L69 31L68 31L68 29L69 29L69 27L68 27L68 29L67 29L67 26L66 26L66 25L68 25L68 26L69 26L69 24L66 24L66 23L69 23L69 21L68 21L68 22L67 22L67 20L69 20L69 19L68 19L68 18L69 18L69 15L66 15L66 14L69 14L69 10L64 10L64 9L67 9L67 8L64 8L64 9L63 9L63 10L62 10L62 8L61 8L61 9L60 9L60 8L59 8L59 10L58 10L58 11L57 11L57 10L56 10L56 9L54 9L54 7L55 7L55 8L56 8L56 7L57 7L57 5L56 5L56 2L57 2L57 1L61 1L61 0L57 0L57 1L56 1L56 0L53 0L53 1L56 1L56 2L54 2L54 3L55 3L55 6L54 6L54 7L53 7L53 6L52 6L52 7L53 7L53 8L51 8L51 10L50 10L50 8L49 8L49 9L48 9L48 8L46 8L46 9L47 9L47 11L46 11L46 10L45 10L45 9L43 9L43 6L44 6L44 8L45 8L45 5L46 5L46 7L47 7L47 5L46 5L46 3L48 3L48 4L49 4L49 5L50 5L50 7L51 7L51 4L49 4L49 2L50 2L50 3L53 3L53 2L52 2L52 1L50 1L50 0L49 0L49 2L47 2L47 1L48 1L48 0L47 0L47 1L46 1L46 2L45 2L45 0L44 0L44 2L43 2L43 5L42 5L42 7L41 7L41 5L39 5L39 4L38 4L38 2L36 2L36 3L37 3L37 4L32 4L32 3L35 3L35 1L34 1L34 0L33 0L33 1L30 1L30 0L28 0L28 2L27 2L27 1L26 1L26 2L27 2L27 4L26 4L26 3L24 3L24 2L23 2L23 1L25 1L25 0L21 0L21 1L19 1L19 0L17 0L17 1L15 1L15 0L13 0L13 1L12 1L12 0L11 0L11 2L10 2L10 0ZM37 0L37 1L38 1L38 0ZM39 0L39 1L40 1L40 3L41 3L41 2L42 2L42 1L43 1L43 0ZM14 1L14 3L13 3L13 2L11 2L11 3L9 3L9 5L10 5L10 6L11 6L11 5L12 5L12 6L13 6L13 7L14 7L14 6L15 6L15 8L16 8L16 9L17 9L17 10L16 10L16 11L17 11L17 12L19 12L19 13L18 13L18 14L19 14L19 15L16 15L16 14L17 14L17 13L16 13L16 14L15 14L15 16L16 16L16 17L15 17L15 18L16 18L16 19L12 19L12 20L14 20L14 21L13 21L13 22L15 22L15 24L14 24L14 23L13 23L13 24L12 24L12 25L11 25L11 24L10 24L10 25L11 25L11 27L12 27L12 28L9 28L9 27L10 27L10 26L8 26L8 25L9 25L9 24L7 24L7 23L8 23L8 22L9 22L9 23L10 23L10 22L11 22L11 23L12 23L12 22L11 22L11 21L8 21L8 20L7 20L7 19L8 19L8 18L9 18L9 17L5 17L5 19L6 19L6 20L7 20L7 21L8 21L8 22L7 22L7 23L6 23L6 24L7 24L7 25L5 25L5 23L4 23L4 24L3 24L3 25L4 25L4 26L5 26L5 27L6 27L6 28L7 28L7 27L6 27L6 26L8 26L8 28L9 28L9 29L10 29L10 32L9 32L9 34L11 34L11 35L9 35L9 37L11 37L11 38L12 38L12 39L13 39L13 40L14 40L14 41L15 41L15 44L14 44L14 45L12 45L12 44L13 44L13 43L14 43L14 42L13 42L13 41L11 41L11 39L10 39L10 38L9 38L9 39L10 39L10 40L7 40L7 41L6 41L6 42L8 42L8 43L6 43L6 44L5 44L5 46L7 46L7 45L8 45L8 46L9 46L9 45L12 45L12 46L13 46L13 47L14 47L14 48L12 48L12 49L11 49L11 47L9 47L9 48L8 48L8 47L6 47L6 48L7 48L7 49L6 49L6 50L7 50L7 49L10 49L10 50L9 50L9 52L8 52L8 53L6 53L6 54L9 54L9 52L10 52L10 54L11 54L11 55L8 55L8 56L10 56L10 57L9 57L9 59L10 59L10 60L11 60L11 62L10 62L10 61L9 61L9 62L10 62L10 65L11 65L11 67L12 67L12 66L13 66L13 67L14 67L14 66L13 66L13 65L11 65L11 62L12 62L12 64L13 64L13 62L14 62L14 63L15 63L15 62L14 62L14 61L13 61L13 62L12 62L12 59L13 59L13 60L15 60L15 61L16 61L16 62L17 62L17 63L19 63L19 64L18 64L18 66L17 66L17 67L16 67L16 65L15 65L15 68L18 68L18 66L19 66L19 64L20 64L20 63L19 63L19 62L18 62L18 61L17 61L17 59L18 59L18 60L19 60L19 61L20 61L20 60L19 60L19 59L21 59L21 61L23 61L23 63L22 63L22 65L23 65L23 64L24 64L24 66L21 66L21 65L20 65L20 67L22 67L22 68L23 68L23 67L24 67L24 68L26 68L26 67L27 67L27 65L28 65L28 66L30 66L30 65L31 65L31 62L32 62L32 60L34 60L34 59L35 59L35 58L32 58L32 57L33 57L33 56L40 56L40 55L39 55L39 54L41 54L41 51L43 51L43 52L44 52L44 50L45 50L45 48L46 48L46 50L47 50L47 48L46 48L46 46L47 46L47 44L48 44L48 45L49 45L49 46L50 46L50 47L52 47L52 49L53 49L53 50L54 50L54 51L55 51L55 52L52 52L52 53L54 53L54 55L52 55L52 54L51 54L51 53L50 53L50 54L51 54L51 55L52 55L52 56L53 56L53 57L54 57L54 55L55 55L55 57L57 57L57 59L56 59L56 61L57 61L57 60L58 60L58 59L59 59L59 61L60 61L60 58L61 58L61 57L62 57L62 58L63 58L63 59L62 59L62 60L65 60L65 59L64 59L64 58L65 58L65 57L64 57L64 55L65 55L65 56L67 56L67 55L65 55L65 54L63 54L63 53L65 53L65 51L63 51L63 50L61 50L61 49L60 49L60 47L61 47L61 46L60 46L60 47L59 47L59 45L61 45L61 42L62 42L62 41L61 41L61 42L59 42L59 44L58 44L58 43L57 43L57 41L59 41L59 37L60 37L60 40L61 40L61 37L60 37L60 32L63 32L63 30L64 30L64 31L65 31L65 32L67 32L67 30L66 30L66 27L65 27L65 26L64 26L64 29L63 29L63 28L62 28L62 27L63 27L63 26L62 26L62 27L61 27L61 25L62 25L62 24L61 24L61 23L57 23L57 22L59 22L59 21L61 21L61 20L57 20L57 19L62 19L62 20L67 20L67 18L68 18L68 17L67 17L67 16L66 16L66 17L65 17L65 14L64 14L64 13L68 13L68 12L67 12L67 11L66 11L66 12L65 12L65 11L64 11L64 10L63 10L63 12L62 12L62 11L61 11L61 12L60 12L60 11L59 11L59 12L58 12L58 14L59 14L59 12L60 12L60 15L61 15L61 16L62 16L62 15L61 15L61 12L62 12L62 13L63 13L63 14L64 14L64 17L60 17L60 18L56 18L56 17L54 17L54 16L52 16L52 13L53 13L53 14L54 14L54 15L55 15L55 16L56 16L56 15L57 15L57 16L58 16L58 17L59 17L59 15L57 15L57 12L56 12L56 13L55 13L55 12L53 12L53 11L55 11L55 10L53 10L53 11L51 11L51 12L50 12L50 13L51 13L51 14L49 14L49 13L46 13L46 14L47 14L47 16L46 16L46 15L45 15L45 17L44 17L44 18L43 18L43 16L44 16L44 15L41 15L41 14L40 14L40 10L39 10L39 9L38 9L38 6L39 6L39 7L40 7L40 8L41 8L41 9L42 9L42 8L41 8L41 7L40 7L40 6L39 6L39 5L38 5L38 4L37 4L37 10L38 10L38 11L37 11L37 12L36 12L36 9L35 9L35 10L34 10L34 9L32 9L32 6L31 6L31 10L34 10L34 11L32 11L32 13L31 13L31 14L30 14L30 11L29 11L29 10L30 10L30 9L29 9L29 7L30 7L30 6L29 6L29 5L31 5L31 4L29 4L29 3L30 3L30 2L28 2L28 5L26 5L26 6L25 6L25 7L24 7L24 6L23 6L23 7L22 7L22 5L21 5L21 7L22 7L22 8L20 8L20 6L19 6L19 5L17 5L17 4L16 4L16 3L15 3L15 1ZM21 1L21 2L20 2L20 3L19 3L19 4L20 4L20 3L21 3L21 4L23 4L23 5L25 5L25 4L23 4L23 3L21 3L21 2L22 2L22 1ZM33 1L33 2L34 2L34 1ZM17 2L17 3L18 3L18 2ZM58 2L58 3L59 3L59 2ZM11 3L11 4L10 4L10 5L11 5L11 4L12 4L12 5L13 5L13 6L14 6L14 5L16 5L16 7L17 7L17 9L18 9L18 10L17 10L17 11L19 11L19 12L20 12L20 13L19 13L19 14L21 14L21 12L20 12L20 9L18 9L18 8L19 8L19 6L18 6L18 7L17 7L17 5L16 5L16 4L14 4L14 5L13 5L13 4L12 4L12 3ZM44 3L44 4L45 4L45 3ZM60 3L60 5L61 5L61 3ZM52 4L52 5L53 5L53 4ZM58 4L58 7L59 7L59 4ZM33 5L33 8L36 8L36 5ZM26 6L26 7L25 7L25 8L26 8L26 7L27 7L27 6ZM28 6L28 7L29 7L29 6ZM34 6L34 7L35 7L35 6ZM48 6L48 7L49 7L49 6ZM55 6L55 7L56 7L56 6ZM60 6L60 7L61 7L61 6ZM23 7L23 8L22 8L22 9L23 9L23 11L22 11L22 10L21 10L21 11L22 11L22 12L24 12L24 13L25 13L25 14L24 14L24 15L25 15L25 16L24 16L24 17L25 17L25 16L26 16L26 17L28 17L28 18L29 18L29 17L28 17L28 16L26 16L26 13L25 13L25 10L26 10L26 9L25 9L25 10L24 10L24 9L23 9L23 8L24 8L24 7ZM27 8L27 10L28 10L28 8ZM68 8L68 9L69 9L69 8ZM6 9L6 10L7 10L7 9ZM11 9L11 10L10 10L10 11L9 11L9 10L8 10L8 12L7 12L7 13L6 13L6 14L5 14L5 15L4 15L4 16L7 16L7 15L6 15L6 14L7 14L7 13L8 13L8 14L9 14L9 15L8 15L8 16L9 16L9 15L10 15L10 17L11 17L11 18L14 18L14 16L13 16L13 15L14 15L14 12L12 12L12 11L11 11L11 10L12 10L12 9ZM41 10L41 11L42 11L42 10ZM43 10L43 11L44 11L44 13L43 13L43 12L41 12L41 13L42 13L42 14L45 14L45 12L46 12L46 11L44 11L44 10ZM34 11L34 13L35 13L35 14L33 14L33 13L32 13L32 14L31 14L31 15L29 15L29 14L28 14L28 13L27 13L27 14L28 14L28 15L29 15L29 16L31 16L31 17L32 17L32 18L34 18L34 15L36 15L36 12L35 12L35 11ZM38 11L38 12L39 12L39 11ZM47 11L47 12L48 12L48 11ZM8 12L8 13L9 13L9 12ZM11 12L11 13L12 13L12 14L10 14L10 15L13 15L13 13L12 13L12 12ZM22 13L22 15L20 15L20 19L19 19L19 18L17 18L17 19L16 19L16 20L17 20L17 21L15 21L15 22L17 22L17 23L19 23L19 24L17 24L17 25L16 25L16 24L15 24L15 25L14 25L14 24L13 24L13 25L12 25L12 27L13 27L13 28L14 28L14 29L15 29L15 30L14 30L14 31L13 31L13 32L12 32L12 31L11 31L11 32L10 32L10 33L11 33L11 34L13 34L13 35L12 35L12 36L11 36L11 37L12 37L12 36L13 36L13 37L14 37L14 38L13 38L13 39L14 39L14 40L15 40L15 41L16 41L16 42L18 42L18 43L17 43L17 45L18 45L18 48L16 48L16 49L15 49L15 48L14 48L14 49L13 49L13 52L11 52L11 51L12 51L12 50L10 50L10 52L11 52L11 54L12 54L12 55L13 55L13 57L12 57L12 56L11 56L11 57L10 57L10 59L11 59L11 57L12 57L12 58L13 58L13 59L15 59L15 60L16 60L16 59L17 59L17 58L18 58L18 59L19 59L19 58L20 58L20 56L21 56L21 58L22 58L22 59L23 59L23 58L22 58L22 56L23 56L23 57L24 57L24 58L25 58L25 62L24 62L24 63L25 63L25 62L26 62L26 64L25 64L25 66L24 66L24 67L26 67L26 64L27 64L27 63L29 63L29 62L28 62L28 61L26 61L26 59L27 59L27 57L29 57L29 58L28 58L28 59L29 59L29 61L31 61L31 57L32 57L32 56L33 56L33 55L35 55L35 53L37 53L37 52L39 52L39 53L38 53L38 54L39 54L39 53L40 53L40 52L39 52L39 51L38 51L38 50L40 50L40 49L39 49L39 47L40 47L40 48L42 48L42 49L44 49L44 48L43 48L43 47L45 47L45 46L43 46L43 45L42 45L42 44L41 44L41 45L40 45L40 44L39 44L39 43L38 43L38 42L37 42L37 44L36 44L36 45L35 45L35 43L34 43L34 44L33 44L33 42L32 42L32 43L29 43L29 44L28 44L28 42L29 42L29 39L33 39L33 41L34 41L34 40L35 40L35 42L36 42L36 41L39 41L39 42L40 42L40 43L43 43L43 42L42 42L42 41L41 41L41 42L40 42L40 40L41 40L41 39L38 39L38 40L37 40L37 37L38 37L38 38L39 38L39 37L38 37L38 35L37 35L37 34L38 34L38 33L40 33L40 34L39 34L39 36L41 36L41 37L43 37L43 38L44 38L44 39L45 39L45 40L43 40L43 41L45 41L45 42L44 42L44 44L45 44L45 45L46 45L46 43L48 43L48 44L49 44L49 43L50 43L50 44L51 44L51 46L52 46L52 45L53 45L53 47L54 47L54 48L55 48L55 49L56 49L56 46L57 46L57 45L54 45L54 43L55 43L55 44L57 44L57 43L55 43L55 42L54 42L54 41L51 41L51 43L50 43L50 42L49 42L49 43L48 43L48 41L46 41L46 40L47 40L47 39L49 39L49 40L50 40L50 39L49 39L49 38L51 38L51 39L52 39L52 40L55 40L55 41L57 41L57 40L55 40L55 39L52 39L52 37L51 37L51 36L54 36L54 37L55 37L55 38L56 38L56 39L57 39L57 38L58 38L58 37L59 37L59 34L58 34L58 33L59 33L59 32L57 32L57 31L59 31L59 30L60 30L60 31L62 31L62 30L60 30L60 28L61 28L61 27L60 27L60 26L59 26L59 27L57 27L57 28L55 28L55 30L54 30L54 29L52 29L52 32L51 32L51 33L52 33L52 34L55 34L55 32L57 32L57 33L56 33L56 35L55 35L55 36L54 36L54 35L51 35L51 36L50 36L50 35L49 35L49 34L50 34L50 30L49 30L49 29L50 29L50 26L51 26L51 27L52 27L52 28L53 28L53 26L51 26L51 24L50 24L50 23L52 23L52 24L53 24L53 25L55 25L55 26L56 26L56 25L55 25L55 24L54 24L54 23L52 23L52 22L55 22L55 23L56 23L56 24L57 24L57 23L56 23L56 22L57 22L57 21L56 21L56 22L55 22L55 19L56 19L56 18L54 18L54 17L52 17L52 18L50 18L50 21L48 21L48 20L47 20L47 21L48 21L48 22L47 22L47 23L46 23L46 25L44 25L44 23L43 23L43 22L44 22L44 21L42 21L42 19L43 19L43 18L42 18L42 16L41 16L41 17L40 17L40 14L39 14L39 13L38 13L38 15L37 15L37 16L35 16L35 17L37 17L37 16L38 16L38 17L39 17L39 20L38 20L38 18L35 18L35 20L34 20L34 19L31 19L31 18L30 18L30 19L31 19L31 21L32 21L32 22L31 22L31 24L30 24L30 20L29 20L29 22L28 22L28 20L27 20L27 19L26 19L26 18L25 18L25 19L24 19L24 18L21 18L21 17L22 17L22 16L23 16L23 13ZM48 14L48 16L49 16L49 17L48 17L48 18L47 18L47 17L45 17L45 18L44 18L44 20L45 20L45 21L46 21L46 18L47 18L47 19L48 19L48 18L49 18L49 17L51 17L51 16L49 16L49 14ZM55 14L55 15L56 15L56 14ZM32 15L32 16L33 16L33 15ZM1 16L1 17L2 17L2 18L1 18L1 19L2 19L2 18L4 18L4 17L2 17L2 16ZM11 16L11 17L13 17L13 16ZM18 16L18 17L19 17L19 16ZM6 18L6 19L7 19L7 18ZM53 18L53 21L54 21L54 18ZM62 18L62 19L63 19L63 18ZM9 19L9 20L10 20L10 19ZM18 19L18 21L17 21L17 22L18 22L18 21L20 21L20 22L19 22L19 23L21 23L21 26L23 26L23 25L22 25L22 24L24 24L24 23L21 23L21 22L23 22L23 21L21 21L21 20L23 20L23 19L20 19L20 20L19 20L19 19ZM25 19L25 20L24 20L24 21L26 21L26 22L27 22L27 23L28 23L28 24L29 24L29 25L28 25L28 26L27 26L27 24L26 24L26 23L25 23L25 24L26 24L26 25L24 25L24 27L22 27L22 30L21 30L21 29L19 29L19 28L18 28L18 29L19 29L19 30L20 30L20 31L22 31L22 32L23 32L23 33L24 33L24 31L25 31L25 34L27 34L27 35L28 35L28 38L27 38L27 39L29 39L29 36L30 36L30 35L28 35L28 31L25 31L25 29L24 29L24 30L23 30L23 28L24 28L24 27L26 27L26 28L28 28L28 26L29 26L29 27L31 27L31 26L32 26L32 27L33 27L33 28L29 28L29 29L30 29L30 31L29 31L29 32L30 32L30 33L29 33L29 34L30 34L30 33L31 33L31 34L32 34L32 32L31 32L31 31L33 31L33 30L32 30L32 29L34 29L34 30L36 30L36 29L37 29L37 30L39 30L39 29L41 29L41 30L40 30L40 31L35 31L35 32L40 32L40 31L41 31L41 33L42 33L42 32L43 32L43 35L45 35L45 34L46 34L46 35L47 35L47 30L46 30L46 31L45 31L45 29L49 29L49 26L48 26L48 24L47 24L47 25L46 25L46 26L45 26L45 27L44 27L44 25L42 25L42 24L43 24L43 23L42 23L42 24L38 24L38 25L40 25L40 26L37 26L37 23L38 23L38 22L35 22L35 21L36 21L36 20L37 20L37 19L36 19L36 20L35 20L35 21L34 21L34 22L32 22L32 24L31 24L31 25L30 25L30 24L29 24L29 23L28 23L28 22L27 22L27 20L26 20L26 19ZM51 19L51 20L52 20L52 19ZM32 20L32 21L33 21L33 20ZM39 20L39 21L40 21L40 20ZM50 21L50 22L51 22L51 21ZM62 21L62 22L64 22L64 23L66 23L66 22L65 22L65 21ZM34 22L34 23L33 23L33 24L35 24L35 22ZM40 22L40 23L41 23L41 22ZM48 22L48 23L49 23L49 22ZM49 24L49 25L50 25L50 24ZM58 24L58 25L57 25L57 26L58 26L58 25L61 25L61 24ZM63 24L63 25L65 25L65 24ZM18 25L18 26L19 26L19 25ZM33 25L33 26L34 26L34 27L35 27L35 29L36 29L36 28L37 28L37 27L35 27L35 26L34 26L34 25ZM14 26L14 27L15 27L15 28L16 28L16 29L17 29L17 28L16 28L16 27L17 27L17 26ZM41 26L41 27L42 27L42 28L41 28L41 29L42 29L42 28L43 28L43 29L45 29L45 28L43 28L43 27L42 27L42 26ZM46 26L46 27L47 27L47 26ZM20 27L20 28L21 28L21 27ZM59 27L59 28L60 28L60 27ZM38 28L38 29L39 29L39 28ZM57 28L57 29L56 29L56 31L57 31L57 29L58 29L58 28ZM11 29L11 30L12 30L12 29ZM26 29L26 30L28 30L28 29ZM64 29L64 30L65 30L65 29ZM15 30L15 31L14 31L14 32L15 32L15 31L17 31L17 32L16 32L16 34L15 34L15 35L18 35L18 36L19 36L19 34L21 34L21 35L20 35L20 36L21 36L21 37L22 37L22 38L19 38L19 37L18 37L18 38L17 38L17 36L16 36L16 39L17 39L17 40L16 40L16 41L19 41L19 43L23 43L23 45L20 45L20 44L18 44L18 45L20 45L20 46L19 46L19 47L20 47L20 46L22 46L22 47L21 47L21 48L18 48L18 50L19 50L19 49L20 49L20 50L25 50L25 51L24 51L24 52L23 52L23 51L22 51L22 53L24 53L24 54L23 54L23 55L24 55L24 57L27 57L27 56L29 56L29 57L31 57L31 56L32 56L32 55L33 55L33 54L32 54L32 51L28 51L28 52L29 52L29 54L27 54L27 53L24 53L24 52L26 52L26 51L27 51L27 50L29 50L29 48L30 48L30 47L32 47L32 48L31 48L31 49L30 49L30 50L31 50L31 49L32 49L32 48L33 48L33 49L34 49L34 50L33 50L33 53L35 53L35 51L34 51L34 50L36 50L36 51L37 51L37 50L36 50L36 49L38 49L38 48L35 48L35 47L34 47L34 48L33 48L33 46L34 46L34 45L31 45L31 44L30 44L30 45L27 45L27 43L25 43L25 42L27 42L27 41L28 41L28 40L27 40L27 41L25 41L25 40L26 40L26 39L25 39L25 38L26 38L26 37L27 37L27 36L26 36L26 37L24 37L24 36L25 36L25 35L24 35L24 36L23 36L23 35L22 35L22 33L21 33L21 32L19 32L19 31L18 31L18 30ZM22 30L22 31L23 31L23 30ZM43 30L43 31L44 31L44 30ZM48 31L48 33L49 33L49 31ZM53 31L53 33L54 33L54 32L55 32L55 31ZM11 32L11 33L12 33L12 32ZM26 32L26 33L27 33L27 32ZM5 33L5 36L8 36L8 33ZM17 33L17 34L19 34L19 33ZM33 33L33 36L36 36L36 33ZM44 33L44 34L45 34L45 33ZM61 33L61 36L64 36L64 33ZM65 33L65 34L68 34L68 33ZM2 34L2 35L3 35L3 36L4 36L4 34ZM6 34L6 35L7 35L7 34ZM34 34L34 35L35 35L35 34ZM62 34L62 35L63 35L63 34ZM56 35L56 37L57 37L57 35ZM44 36L44 38L45 38L45 39L47 39L47 38L49 38L49 37L48 37L48 36L47 36L47 37L46 37L46 38L45 38L45 36ZM30 37L30 38L33 38L33 39L34 39L34 38L35 38L35 39L36 39L36 38L35 38L35 37ZM62 37L62 39L63 39L63 38L65 38L65 39L66 39L66 38L65 38L65 37ZM7 38L7 39L8 39L8 38ZM14 38L14 39L15 39L15 38ZM22 38L22 39L23 39L23 38ZM20 39L20 40L19 40L19 41L21 41L21 42L25 42L25 41L24 41L24 40L25 40L25 39L24 39L24 40L23 40L23 41L21 41L21 39ZM30 40L30 41L31 41L31 40ZM68 41L68 42L69 42L69 41ZM9 42L9 43L8 43L8 45L9 45L9 44L11 44L11 43L10 43L10 42ZM45 42L45 43L46 43L46 42ZM52 42L52 43L51 43L51 44L53 44L53 43L54 43L54 42ZM24 43L24 44L25 44L25 43ZM68 43L68 44L69 44L69 43ZM6 44L6 45L7 45L7 44ZM38 44L38 46L39 46L39 44ZM23 45L23 46L26 46L26 47L27 47L27 48L29 48L29 46L28 46L28 47L27 47L27 46L26 46L26 45ZM41 45L41 47L42 47L42 45ZM66 45L66 46L64 46L64 47L65 47L65 48L64 48L64 49L65 49L65 48L66 48L66 46L68 46L68 48L67 48L67 49L66 49L66 50L68 50L68 48L69 48L69 45ZM14 46L14 47L16 47L16 46ZM36 46L36 47L37 47L37 46ZM22 47L22 48L24 48L24 49L25 49L25 50L27 50L27 49L25 49L25 47ZM48 47L48 48L49 48L49 49L51 49L51 48L49 48L49 47ZM58 47L58 48L59 48L59 47ZM16 49L16 50L15 50L15 51L14 51L14 53L16 53L16 52L18 52L18 53L19 53L19 55L18 55L18 54L17 54L17 55L14 55L14 54L13 54L13 53L12 53L12 54L13 54L13 55L14 55L14 57L13 57L13 58L15 58L15 59L16 59L16 56L18 56L18 57L19 57L19 56L20 56L20 55L21 55L21 56L22 56L22 54L21 54L21 53L19 53L19 52L18 52L18 51L16 51L16 50L17 50L17 49ZM57 49L57 51L56 51L56 52L55 52L55 54L56 54L56 55L57 55L57 51L59 51L59 53L58 53L58 56L62 56L62 54L61 54L61 55L60 55L60 53L63 53L63 51L61 51L61 50L58 50L58 49ZM48 50L48 51L47 51L47 53L49 53L49 52L48 52L48 51L49 51L49 50ZM51 50L51 51L50 51L50 52L51 52L51 51L52 51L52 50ZM5 51L5 52L7 52L7 51ZM15 51L15 52L16 52L16 51ZM45 51L45 53L46 53L46 51ZM60 51L60 52L61 52L61 51ZM67 52L67 53L66 53L66 54L68 54L68 52ZM42 53L42 54L43 54L43 53ZM25 54L25 55L26 55L26 54ZM30 54L30 55L31 55L31 54ZM36 54L36 55L37 55L37 54ZM5 55L5 56L7 56L7 55ZM45 56L45 57L46 57L46 56ZM48 56L48 57L49 57L49 56ZM6 57L6 58L8 58L8 57ZM38 57L38 58L39 58L39 59L38 59L38 60L37 60L37 58L36 58L36 60L37 60L37 61L39 61L39 60L40 60L40 58L39 58L39 57ZM59 57L59 58L60 58L60 57ZM66 57L66 58L67 58L67 57ZM29 58L29 59L30 59L30 58ZM54 58L54 59L55 59L55 58ZM3 60L3 61L5 61L5 60ZM43 60L43 62L44 62L44 60ZM33 61L33 64L36 64L36 61ZM61 61L61 64L64 64L64 61ZM34 62L34 63L35 63L35 62ZM37 62L37 64L39 64L39 62ZM50 62L50 63L51 63L51 62ZM62 62L62 63L63 63L63 62ZM35 65L35 66L36 66L36 65ZM38 65L38 66L39 66L39 67L40 67L40 68L41 68L41 67L40 67L40 66L39 66L39 65ZM60 65L60 66L62 66L62 65ZM33 66L33 67L34 67L34 66ZM44 66L44 67L45 67L45 66ZM50 66L50 67L51 67L51 66ZM57 66L57 68L59 68L59 66ZM60 67L60 68L61 68L61 67ZM68 67L68 68L69 68L69 67ZM0 0L0 7L7 7L7 0ZM1 1L1 6L6 6L6 1ZM2 2L2 5L5 5L5 2ZM62 0L62 7L69 7L69 0ZM63 1L63 6L68 6L68 1ZM64 2L64 5L67 5L67 2ZM0 62L0 69L7 69L7 62ZM1 63L1 68L6 68L6 63ZM2 64L2 67L5 67L5 64Z" fill="#000000"/></g></g></svg>
