<?xml version="1.0" encoding="UTF-8"?>
<svg xmlns="http://www.w3.org/2000/svg" version="1.1" width="300" height="300" viewBox="0 0 300 300"><rect x="0" y="0" width="300" height="300" fill="#ffffff"/><g transform="scale(4.348)"><g transform="translate(0,0)"><path fill-rule="evenodd" d="M9 0L9 1L8 1L8 2L9 2L9 3L8 3L8 4L9 4L9 5L8 5L8 7L9 7L9 5L10 5L10 7L11 7L11 8L12 8L12 9L11 9L11 10L9 10L9 11L8 11L8 10L6 10L6 9L10 9L10 8L6 8L6 9L5 9L5 8L0 8L0 10L2 10L2 11L1 11L1 12L0 12L0 16L2 16L2 14L4 14L4 15L3 15L3 17L2 17L2 18L1 18L1 17L0 17L0 19L1 19L1 20L2 20L2 19L3 19L3 20L5 20L5 19L7 19L7 20L6 20L6 21L1 21L1 22L5 22L5 24L4 24L4 23L2 23L2 24L3 24L3 25L2 25L2 26L1 26L1 25L0 25L0 27L1 27L1 28L2 28L2 29L0 29L0 32L2 32L2 33L0 33L0 34L2 34L2 35L1 35L1 36L0 36L0 37L2 37L2 38L4 38L4 39L3 39L3 40L2 40L2 39L1 39L1 40L0 40L0 41L3 41L3 40L4 40L4 45L3 45L3 42L1 42L1 43L0 43L0 44L1 44L1 43L2 43L2 45L3 45L3 46L5 46L5 48L6 48L6 49L7 49L7 50L5 50L5 51L4 51L4 50L3 50L3 51L2 51L2 48L1 48L1 46L0 46L0 48L1 48L1 49L0 49L0 52L1 52L1 51L2 51L2 52L3 52L3 54L6 54L6 55L5 55L5 58L4 58L4 57L3 57L3 56L4 56L4 55L3 55L3 56L2 56L2 59L3 59L3 58L4 58L4 59L7 59L7 60L6 60L6 61L7 61L7 60L8 60L8 63L10 63L10 64L8 64L8 69L9 69L9 66L12 66L12 65L13 65L13 68L12 68L12 67L10 67L10 69L14 69L14 65L16 65L16 64L18 64L18 65L17 65L17 66L15 66L15 69L22 69L22 68L18 68L18 67L20 67L20 66L19 66L19 65L20 65L20 64L23 64L23 63L20 63L20 64L19 64L19 62L20 62L20 61L19 61L19 60L22 60L22 59L21 59L21 58L22 58L22 57L24 57L24 58L23 58L23 59L24 59L24 60L25 60L25 61L23 61L23 62L25 62L25 63L26 63L26 64L24 64L24 65L23 65L23 66L22 66L22 65L21 65L21 67L24 67L24 68L25 68L25 69L26 69L26 68L27 68L27 67L28 67L28 68L29 68L29 69L32 69L32 68L31 68L31 67L33 67L33 69L35 69L35 68L36 68L36 69L38 69L38 68L37 68L37 67L39 67L39 66L38 66L38 64L41 64L41 66L40 66L40 67L41 67L41 66L44 66L44 68L43 68L43 67L42 67L42 68L41 68L41 69L42 69L42 68L43 68L43 69L44 69L44 68L47 68L47 69L50 69L50 67L49 67L49 68L48 68L48 66L50 66L50 64L51 64L51 63L50 63L50 64L48 64L48 63L47 63L47 64L48 64L48 65L47 65L47 66L46 66L46 64L45 64L45 62L44 62L44 64L41 64L41 63L38 63L38 59L39 59L39 62L40 62L40 59L41 59L41 58L42 58L42 60L41 60L41 62L42 62L42 63L43 63L43 61L44 61L44 60L45 60L45 61L47 61L47 62L50 62L50 61L49 61L49 60L47 60L47 59L48 59L48 58L50 58L50 60L51 60L51 62L52 62L52 63L53 63L53 65L54 65L54 66L51 66L51 68L52 68L52 67L54 67L54 68L53 68L53 69L56 69L56 68L55 68L55 67L56 67L56 66L55 66L55 65L56 65L56 63L57 63L57 65L59 65L59 62L56 62L56 63L55 63L55 64L54 64L54 63L53 63L53 62L55 62L55 61L56 61L56 60L55 60L55 61L53 61L53 62L52 62L52 60L53 60L53 59L52 59L52 58L55 58L55 59L56 59L56 58L57 58L57 59L59 59L59 58L57 58L57 57L56 57L56 55L57 55L57 56L61 56L61 59L62 59L62 58L63 58L63 59L64 59L64 58L63 58L63 57L64 57L64 56L65 56L65 57L66 57L66 56L68 56L68 55L67 55L67 54L69 54L69 53L65 53L65 55L59 55L59 54L60 54L60 53L59 53L59 52L60 52L60 51L61 51L61 54L62 54L62 52L63 52L63 53L64 53L64 51L65 51L65 52L68 52L68 50L69 50L69 49L66 49L66 50L67 50L67 51L65 51L65 50L64 50L64 51L62 51L62 44L61 44L61 43L62 43L62 41L61 41L61 40L62 40L62 38L61 38L61 37L63 37L63 38L64 38L64 37L66 37L66 38L67 38L67 39L63 39L63 40L64 40L64 41L66 41L66 42L65 42L65 43L63 43L63 44L65 44L65 45L66 45L66 47L65 47L65 48L64 48L64 47L63 47L63 49L65 49L65 48L67 48L67 47L68 47L68 46L69 46L69 43L68 43L68 42L67 42L67 40L69 40L69 39L68 39L68 36L69 36L69 35L68 35L68 34L69 34L69 32L68 32L68 34L67 34L67 33L66 33L66 32L67 32L67 31L68 31L68 29L69 29L69 28L68 28L68 29L67 29L67 31L65 31L65 29L66 29L66 28L67 28L67 27L68 27L68 26L69 26L69 23L68 23L68 22L67 22L67 21L68 21L68 18L69 18L69 17L67 17L67 16L69 16L69 15L68 15L68 14L69 14L69 12L67 12L67 10L69 10L69 9L68 9L68 8L67 8L67 9L66 9L66 8L65 8L65 9L64 9L64 8L63 8L63 9L64 9L64 10L66 10L66 11L65 11L65 12L67 12L67 13L68 13L68 14L65 14L65 16L66 16L66 18L65 18L65 17L63 17L63 18L62 18L62 16L64 16L64 15L62 15L62 16L59 16L59 19L60 19L60 20L59 20L59 23L55 23L55 22L57 22L57 21L56 21L56 20L55 20L55 21L53 21L53 23L52 23L52 22L51 22L51 23L50 23L50 21L52 21L52 20L53 20L53 19L56 19L56 18L55 18L55 17L56 17L56 15L55 15L55 16L54 16L54 17L51 17L51 18L50 18L50 17L49 17L49 16L50 16L50 13L51 13L51 14L52 14L52 15L53 15L53 14L55 14L55 13L56 13L56 14L57 14L57 17L58 17L58 14L57 14L57 13L56 13L56 12L61 12L61 11L62 11L62 13L59 13L59 14L62 14L62 13L63 13L63 14L64 14L64 13L63 13L63 10L61 10L61 9L62 9L62 8L61 8L61 6L60 6L60 7L59 7L59 4L58 4L58 3L59 3L59 2L56 2L56 1L55 1L55 0L53 0L53 2L55 2L55 3L54 3L54 4L53 4L53 6L52 6L52 7L51 7L51 6L50 6L50 4L51 4L51 5L52 5L52 4L51 4L51 3L52 3L52 0L51 0L51 2L50 2L50 0L47 0L47 1L48 1L48 2L47 2L47 4L48 4L48 5L47 5L47 6L46 6L46 5L44 5L44 3L45 3L45 4L46 4L46 3L45 3L45 2L46 2L46 1L45 1L45 0L44 0L44 1L45 1L45 2L44 2L44 3L43 3L43 4L42 4L42 2L43 2L43 0L41 0L41 1L38 1L38 0L34 0L34 2L35 2L35 3L33 3L33 4L32 4L32 3L31 3L31 2L32 2L32 0L31 0L31 1L30 1L30 0L28 0L28 1L27 1L27 2L25 2L25 0L23 0L23 1L24 1L24 2L25 2L25 3L23 3L23 2L21 2L21 3L20 3L20 4L19 4L19 3L18 3L18 2L20 2L20 1L19 1L19 0L12 0L12 1L11 1L11 0ZM58 0L58 1L61 1L61 0ZM9 1L9 2L10 2L10 1ZM13 1L13 2L11 2L11 3L13 3L13 2L15 2L15 3L14 3L14 5L13 5L13 4L10 4L10 3L9 3L9 4L10 4L10 5L11 5L11 7L12 7L12 6L13 6L13 9L12 9L12 10L13 10L13 11L14 11L14 12L10 12L10 11L9 11L9 12L8 12L8 11L5 11L5 10L3 10L3 9L2 9L2 10L3 10L3 12L2 12L2 13L1 13L1 14L2 14L2 13L4 13L4 11L5 11L5 13L6 13L6 14L9 14L9 13L10 13L10 14L12 14L12 13L13 13L13 15L12 15L12 16L11 16L11 15L8 15L8 16L7 16L7 15L4 15L4 16L7 16L7 17L6 17L6 18L7 18L7 19L8 19L8 18L7 18L7 17L9 17L9 18L11 18L11 19L12 19L12 20L11 20L11 21L9 21L9 20L8 20L8 21L6 21L6 22L7 22L7 23L6 23L6 24L8 24L8 21L9 21L9 22L11 22L11 21L13 21L13 19L12 19L12 18L13 18L13 17L12 17L12 16L14 16L14 17L15 17L15 18L16 18L16 19L15 19L15 20L14 20L14 21L15 21L15 24L16 24L16 25L15 25L15 26L16 26L16 25L18 25L18 28L19 28L19 29L20 29L20 30L19 30L19 31L20 31L20 33L19 33L19 34L20 34L20 35L19 35L19 37L17 37L17 36L18 36L18 34L17 34L17 33L18 33L18 32L17 32L17 31L18 31L18 29L17 29L17 28L16 28L16 27L14 27L14 28L15 28L15 29L14 29L14 30L13 30L13 31L14 31L14 30L16 30L16 31L15 31L15 33L14 33L14 32L13 32L13 33L12 33L12 31L11 31L11 30L12 30L12 29L13 29L13 28L10 28L10 27L9 27L9 26L10 26L10 25L11 25L11 26L12 26L12 27L13 27L13 26L12 26L12 24L13 24L13 22L12 22L12 23L10 23L10 25L9 25L9 26L7 26L7 25L4 25L4 27L3 27L3 28L4 28L4 29L3 29L3 30L1 30L1 31L2 31L2 32L5 32L5 31L4 31L4 30L7 30L7 31L6 31L6 32L7 32L7 31L8 31L8 32L10 32L10 31L11 31L11 33L12 33L12 34L13 34L13 35L12 35L12 36L11 36L11 35L10 35L10 34L9 34L9 37L10 37L10 38L11 38L11 39L13 39L13 40L14 40L14 41L13 41L13 42L12 42L12 40L11 40L11 41L10 41L10 42L7 42L7 41L9 41L9 40L7 40L7 39L8 39L8 37L6 37L6 38L7 38L7 39L4 39L4 40L5 40L5 41L6 41L6 42L7 42L7 43L6 43L6 44L8 44L8 43L10 43L10 42L12 42L12 43L11 43L11 44L10 44L10 45L11 45L11 44L12 44L12 43L14 43L14 44L13 44L13 46L11 46L11 48L10 48L10 47L9 47L9 46L8 46L8 47L9 47L9 48L10 48L10 49L11 49L11 50L8 50L8 51L5 51L5 52L4 52L4 51L3 51L3 52L4 52L4 53L5 53L5 52L7 52L7 53L6 53L6 54L7 54L7 53L9 53L9 51L10 51L10 54L8 54L8 55L6 55L6 56L7 56L7 57L6 57L6 58L10 58L10 56L12 56L12 55L13 55L13 58L12 58L12 57L11 57L11 59L10 59L10 60L9 60L9 59L8 59L8 60L9 60L9 62L11 62L11 63L12 63L12 64L13 64L13 63L14 63L14 64L15 64L15 63L14 63L14 62L17 62L17 63L18 63L18 62L19 62L19 61L17 61L17 60L18 60L18 59L19 59L19 58L18 58L18 59L17 59L17 60L16 60L16 59L15 59L15 60L13 60L13 58L16 58L16 57L17 57L17 56L20 56L20 58L21 58L21 57L22 57L22 56L21 56L21 55L22 55L22 54L23 54L23 53L25 53L25 50L22 50L22 49L26 49L26 54L25 54L25 55L24 55L24 56L25 56L25 57L27 57L27 58L26 58L26 59L27 59L27 58L29 58L29 59L28 59L28 60L29 60L29 59L30 59L30 58L29 58L29 57L30 57L30 56L29 56L29 55L30 55L30 54L31 54L31 60L32 60L32 57L34 57L34 58L33 58L33 59L34 59L34 60L35 60L35 59L37 59L37 58L36 58L36 57L38 57L38 58L39 58L39 57L41 57L41 56L39 56L39 57L38 57L38 55L41 55L41 54L42 54L42 55L43 55L43 56L42 56L42 57L43 57L43 60L42 60L42 61L43 61L43 60L44 60L44 59L45 59L45 60L46 60L46 59L47 59L47 57L48 57L48 56L50 56L50 58L52 58L52 57L55 57L55 56L54 56L54 55L55 55L55 54L56 54L56 53L58 53L58 54L57 54L57 55L58 55L58 54L59 54L59 53L58 53L58 52L59 52L59 49L60 49L60 50L61 50L61 47L60 47L60 46L61 46L61 44L59 44L59 45L57 45L57 43L58 43L58 42L59 42L59 43L61 43L61 41L60 41L60 40L61 40L61 38L60 38L60 35L59 35L59 31L60 31L60 30L59 30L59 29L57 29L57 28L58 28L58 27L59 27L59 28L60 28L60 27L61 27L61 26L63 26L63 27L62 27L62 28L63 28L63 29L62 29L62 30L61 30L61 31L63 31L63 32L64 32L64 31L63 31L63 30L64 30L64 29L65 29L65 28L66 28L66 27L67 27L67 26L68 26L68 23L67 23L67 25L65 25L65 23L64 23L64 24L63 24L63 23L62 23L62 22L66 22L66 21L67 21L67 20L66 20L66 19L65 19L65 18L63 18L63 20L62 20L62 18L61 18L61 20L62 20L62 22L60 22L60 23L62 23L62 24L60 24L60 25L61 25L61 26L59 26L59 25L57 25L57 24L54 24L54 25L57 25L57 26L55 26L55 27L53 27L53 28L51 28L51 26L53 26L53 24L51 24L51 25L50 25L50 23L48 23L48 21L46 21L46 20L52 20L52 19L53 19L53 18L51 18L51 19L50 19L50 18L49 18L49 17L48 17L48 16L49 16L49 14L47 14L47 12L49 12L49 10L47 10L47 7L48 7L48 6L49 6L49 7L50 7L50 8L49 8L49 9L50 9L50 11L51 11L51 10L52 10L52 12L51 12L51 13L54 13L54 11L53 11L53 8L54 8L54 9L55 9L55 8L54 8L54 6L53 6L53 7L52 7L52 8L51 8L51 7L50 7L50 6L49 6L49 5L48 5L48 6L47 6L47 7L46 7L46 6L45 6L45 7L44 7L44 5L43 5L43 7L42 7L42 6L41 6L41 3L39 3L39 2L37 2L37 3L38 3L38 4L37 4L37 5L38 5L38 6L37 6L37 7L38 7L38 8L37 8L37 9L38 9L38 10L36 10L36 9L35 9L35 10L33 10L33 9L31 9L31 7L32 7L32 5L30 5L30 4L29 4L29 3L30 3L30 2L29 2L29 3L28 3L28 2L27 2L27 3L26 3L26 4L25 4L25 5L26 5L26 6L25 6L25 7L26 7L26 10L25 10L25 9L24 9L24 6L23 6L23 5L22 5L22 6L21 6L21 8L20 8L20 5L21 5L21 4L23 4L23 3L21 3L21 4L20 4L20 5L19 5L19 4L18 4L18 6L17 6L17 7L18 7L18 6L19 6L19 9L18 9L18 8L16 8L16 5L17 5L17 3L16 3L16 1ZM41 1L41 2L42 2L42 1ZM48 2L48 3L49 3L49 4L50 4L50 2ZM15 3L15 4L16 4L16 3ZM27 3L27 4L28 4L28 3ZM35 3L35 4L36 4L36 3ZM56 3L56 4L55 4L55 7L56 7L56 10L55 10L55 12L56 12L56 10L57 10L57 11L58 11L58 10L59 10L59 11L60 11L60 9L61 9L61 8L60 8L60 9L59 9L59 7L58 7L58 4L57 4L57 3ZM60 3L60 5L61 5L61 3ZM39 4L39 6L38 6L38 7L39 7L39 8L40 8L40 7L41 7L41 6L40 6L40 4ZM14 5L14 9L13 9L13 10L14 10L14 9L15 9L15 5ZM27 5L27 6L26 6L26 7L27 7L27 6L28 6L28 7L29 7L29 6L30 6L30 7L31 7L31 6L30 6L30 5L29 5L29 6L28 6L28 5ZM33 5L33 8L36 8L36 5ZM56 5L56 7L57 7L57 5ZM22 6L22 7L23 7L23 6ZM34 6L34 7L35 7L35 6ZM39 6L39 7L40 7L40 6ZM45 7L45 9L44 9L44 8L43 8L43 9L39 9L39 10L38 10L38 11L39 11L39 12L40 12L40 13L39 13L39 14L38 14L38 12L37 12L37 13L36 13L36 12L34 12L34 11L33 11L33 12L34 12L34 13L33 13L33 14L34 14L34 13L35 13L35 17L37 17L37 18L35 18L35 20L34 20L34 21L33 21L33 20L32 20L32 21L33 21L33 22L30 22L30 21L31 21L31 19L33 19L33 17L32 17L32 14L30 14L30 15L29 15L29 14L27 14L27 13L26 13L26 11L28 11L28 12L29 12L29 13L32 13L32 12L30 12L30 11L32 11L32 10L31 10L31 9L30 9L30 8L29 8L29 9L30 9L30 11L28 11L28 10L26 10L26 11L25 11L25 12L24 12L24 11L23 11L23 14L22 14L22 13L21 13L21 14L20 14L20 12L22 12L22 11L20 11L20 12L14 12L14 13L15 13L15 14L16 14L16 15L18 15L18 14L20 14L20 15L19 15L19 16L26 16L26 15L24 15L24 14L27 14L27 15L29 15L29 17L31 17L31 18L29 18L29 22L30 22L30 23L28 23L28 24L27 24L27 21L28 21L28 19L26 19L26 17L23 17L23 18L21 18L21 17L18 17L18 16L16 16L16 17L18 17L18 18L17 18L17 19L18 19L18 20L17 20L17 21L16 21L16 20L15 20L15 21L16 21L16 22L18 22L18 23L19 23L19 24L18 24L18 25L19 25L19 28L20 28L20 25L19 25L19 24L22 24L22 25L21 25L21 26L22 26L22 27L21 27L21 29L22 29L22 30L23 30L23 33L22 33L22 32L21 32L21 33L22 33L22 35L21 35L21 36L20 36L20 37L19 37L19 38L16 38L16 39L15 39L15 38L14 38L14 37L13 37L13 36L15 36L15 37L16 37L16 36L15 36L15 35L13 35L13 36L12 36L12 37L13 37L13 39L14 39L14 40L18 40L18 41L17 41L17 43L18 43L18 44L17 44L17 45L21 45L21 44L20 44L20 42L18 42L18 41L22 41L22 40L21 40L21 39L22 39L22 38L21 38L21 39L20 39L20 37L21 37L21 36L23 36L23 38L24 38L24 39L25 39L25 37L26 37L26 34L25 34L25 33L28 33L28 34L27 34L27 35L28 35L28 36L27 36L27 37L28 37L28 36L29 36L29 37L30 37L30 38L29 38L29 39L28 39L28 38L26 38L26 40L24 40L24 41L23 41L23 42L24 42L24 41L26 41L26 42L25 42L25 43L26 43L26 44L24 44L24 43L23 43L23 44L24 44L24 45L23 45L23 46L24 46L24 47L23 47L23 48L24 48L24 47L25 47L25 48L26 48L26 47L25 47L25 46L26 46L26 44L27 44L27 45L28 45L28 44L27 44L27 43L29 43L29 42L28 42L28 41L30 41L30 44L29 44L29 46L27 46L27 48L29 48L29 46L30 46L30 49L29 49L29 52L28 52L28 51L27 51L27 53L31 53L31 51L30 51L30 49L31 49L31 50L32 50L32 51L34 51L34 50L36 50L36 51L35 51L35 54L36 54L36 55L34 55L34 54L33 54L33 53L34 53L34 52L32 52L32 54L33 54L33 56L37 56L37 54L39 54L39 52L40 52L40 51L41 51L41 52L42 52L42 54L43 54L43 53L44 53L44 56L43 56L43 57L44 57L44 56L46 56L46 57L47 57L47 56L48 56L48 55L47 55L47 56L46 56L46 54L45 54L45 53L49 53L49 54L50 54L50 52L49 52L49 50L50 50L50 47L51 47L51 48L52 48L52 46L50 46L50 41L51 41L51 42L53 42L53 43L54 43L54 44L55 44L55 45L53 45L53 46L55 46L55 47L53 47L53 48L54 48L54 49L51 49L51 50L54 50L54 51L55 51L55 52L53 52L53 53L52 53L52 55L54 55L54 54L55 54L55 53L56 53L56 50L57 50L57 52L58 52L58 50L57 50L57 49L59 49L59 48L57 48L57 49L56 49L56 47L59 47L59 46L56 46L56 44L55 44L55 43L56 43L56 42L55 42L55 41L56 41L56 39L57 39L57 41L59 41L59 39L60 39L60 38L57 38L57 37L56 37L56 36L58 36L58 37L59 37L59 36L58 36L58 34L57 34L57 35L56 35L56 33L55 33L55 32L57 32L57 33L58 33L58 32L57 32L57 31L56 31L56 30L57 30L57 29L56 29L56 27L55 27L55 28L54 28L54 29L53 29L53 30L55 30L55 31L53 31L53 33L52 33L52 34L53 34L53 36L54 36L54 37L53 37L53 41L51 41L51 38L52 38L52 37L51 37L51 38L49 38L49 37L50 37L50 35L51 35L51 36L52 36L52 35L51 35L51 34L47 34L47 36L45 36L45 33L50 33L50 32L52 32L52 30L51 30L51 31L50 31L50 29L49 29L49 28L50 28L50 27L49 27L49 26L50 26L50 25L49 25L49 24L48 24L48 23L47 23L47 24L46 24L46 22L44 22L44 20L43 20L43 17L44 17L44 16L45 16L45 17L47 17L47 16L48 16L48 15L47 15L47 16L45 16L45 15L46 15L46 14L45 14L45 15L44 15L44 16L42 16L42 17L41 17L41 18L39 18L39 19L37 19L37 18L38 18L38 16L40 16L40 15L42 15L42 14L43 14L43 13L44 13L44 12L45 12L45 13L46 13L46 11L44 11L44 12L43 12L43 13L42 13L42 14L41 14L41 12L42 12L42 10L45 10L45 9L46 9L46 7ZM21 8L21 9L22 9L22 8ZM27 8L27 9L28 9L28 8ZM50 8L50 9L51 9L51 8ZM57 8L57 9L58 9L58 8ZM16 9L16 10L15 10L15 11L17 11L17 10L18 10L18 9ZM19 9L19 10L20 10L20 9ZM23 9L23 10L24 10L24 9ZM35 10L35 11L36 11L36 10ZM39 10L39 11L40 11L40 12L41 12L41 10ZM6 12L6 13L7 13L7 12ZM17 13L17 14L18 14L18 13ZM37 14L37 15L36 15L36 16L38 16L38 14ZM39 14L39 15L40 15L40 14ZM14 15L14 16L15 16L15 15ZM33 15L33 16L34 16L34 15ZM10 16L10 17L11 17L11 18L12 18L12 17L11 17L11 16ZM3 17L3 18L5 18L5 17ZM27 17L27 18L28 18L28 17ZM19 18L19 19L20 19L20 18ZM23 18L23 19L24 19L24 18ZM44 18L44 19L46 19L46 18ZM47 18L47 19L48 19L48 18ZM39 19L39 21L43 21L43 20L42 20L42 19ZM19 20L19 21L20 21L20 23L22 23L22 22L23 22L23 21L27 21L27 20ZM35 20L35 21L34 21L34 22L37 22L37 23L31 23L31 26L30 26L30 27L33 27L33 28L34 28L34 29L33 29L33 30L31 30L31 29L32 29L32 28L31 28L31 29L30 29L30 30L29 30L29 29L28 29L28 28L29 28L29 27L28 27L28 26L29 26L29 25L30 25L30 24L29 24L29 25L27 25L27 24L26 24L26 22L25 22L25 24L26 24L26 25L25 25L25 28L26 28L26 29L25 29L25 30L24 30L24 33L25 33L25 32L26 32L26 31L25 31L25 30L29 30L29 31L30 31L30 32L28 32L28 31L27 31L27 32L28 32L28 33L30 33L30 34L29 34L29 36L30 36L30 35L31 35L31 36L32 36L32 34L31 34L31 33L32 33L32 32L34 32L34 31L33 31L33 30L34 30L34 29L35 29L35 30L36 30L36 28L35 28L35 27L36 27L36 26L35 26L35 25L36 25L36 24L37 24L37 23L38 23L38 24L39 24L39 25L38 25L38 26L41 26L41 25L42 25L42 24L41 24L41 23L43 23L43 24L44 24L44 25L43 25L43 26L46 26L46 27L45 27L45 28L44 28L44 31L43 31L43 30L42 30L42 27L39 27L39 28L38 28L38 30L37 30L37 31L35 31L35 32L37 32L37 33L38 33L38 34L37 34L37 36L38 36L38 37L36 37L36 39L35 39L35 37L34 37L34 39L33 39L33 37L32 37L32 38L30 38L30 39L29 39L29 40L30 40L30 41L31 41L31 49L32 49L32 50L33 50L33 49L36 49L36 50L37 50L37 51L39 51L39 50L41 50L41 51L42 51L42 50L41 50L41 49L42 49L42 48L43 48L43 47L44 47L44 49L43 49L43 50L44 50L44 49L45 49L45 52L44 52L44 51L43 51L43 52L44 52L44 53L45 53L45 52L46 52L46 51L47 51L47 52L48 52L48 51L47 51L47 50L48 50L48 49L47 49L47 47L48 47L48 48L49 48L49 46L47 46L47 45L46 45L46 44L47 44L47 43L48 43L48 44L49 44L49 43L48 43L48 42L49 42L49 41L50 41L50 39L49 39L49 38L48 38L48 36L49 36L49 35L48 35L48 36L47 36L47 37L45 37L45 36L44 36L44 33L45 33L45 32L44 32L44 31L46 31L46 32L48 32L48 31L47 31L47 29L46 29L46 27L47 27L47 28L49 28L49 27L48 27L48 26L49 26L49 25L48 25L48 24L47 24L47 25L46 25L46 24L45 24L45 23L44 23L44 22L37 22L37 21L38 21L38 20L37 20L37 21L36 21L36 20ZM65 20L65 21L66 21L66 20ZM21 21L21 22L22 22L22 21ZM0 23L0 24L1 24L1 23ZM32 24L32 25L33 25L33 27L34 27L34 25L33 25L33 24ZM22 25L22 26L24 26L24 25ZM26 25L26 27L27 27L27 28L28 28L28 27L27 27L27 25ZM47 25L47 26L48 26L48 25ZM63 25L63 26L65 26L65 27L63 27L63 28L65 28L65 27L66 27L66 26L65 26L65 25ZM6 26L6 27L5 27L5 28L6 28L6 29L10 29L10 28L8 28L8 27L7 27L7 26ZM57 26L57 27L58 27L58 26ZM6 27L6 28L7 28L7 27ZM23 27L23 28L22 28L22 29L23 29L23 28L24 28L24 27ZM39 28L39 29L40 29L40 28ZM48 29L48 30L49 30L49 29ZM30 30L30 31L31 31L31 32L30 32L30 33L31 33L31 32L32 32L32 31L31 31L31 30ZM38 30L38 31L37 31L37 32L38 32L38 33L39 33L39 32L43 32L43 33L40 33L40 35L39 35L39 36L40 36L40 35L41 35L41 34L43 34L43 33L44 33L44 32L43 32L43 31L40 31L40 30ZM58 30L58 31L59 31L59 30ZM16 32L16 33L17 33L17 32ZM2 33L2 34L3 34L3 36L2 36L2 37L3 37L3 36L4 36L4 34L3 34L3 33ZM5 33L5 36L8 36L8 33ZM33 33L33 36L36 36L36 33ZM53 33L53 34L54 34L54 35L55 35L55 36L56 36L56 35L55 35L55 34L54 34L54 33ZM61 33L61 36L64 36L64 33ZM65 33L65 34L66 34L66 33ZM6 34L6 35L7 35L7 34ZM34 34L34 35L35 35L35 34ZM62 34L62 35L63 35L63 34ZM23 35L23 36L25 36L25 35ZM67 35L67 36L68 36L68 35ZM10 36L10 37L11 37L11 36ZM41 36L41 37L42 37L42 38L40 38L40 37L39 37L39 39L38 39L38 38L37 38L37 39L36 39L36 40L35 40L35 39L34 39L34 40L33 40L33 39L31 39L31 40L32 40L32 42L33 42L33 41L34 41L34 42L35 42L35 43L34 43L34 44L35 44L35 45L34 45L34 47L33 47L33 46L32 46L32 47L33 47L33 48L32 48L32 49L33 49L33 48L36 48L36 47L37 47L37 50L38 50L38 49L39 49L39 48L40 48L40 47L41 47L41 48L42 48L42 46L45 46L45 49L46 49L46 46L45 46L45 45L44 45L44 43L45 43L45 42L44 42L44 40L41 40L41 39L42 39L42 38L43 38L43 39L45 39L45 40L47 40L47 42L46 42L46 43L47 43L47 42L48 42L48 41L49 41L49 40L47 40L47 39L48 39L48 38L45 38L45 37L44 37L44 36L43 36L43 37L42 37L42 36ZM4 37L4 38L5 38L5 37ZM55 37L55 39L56 39L56 37ZM19 39L19 40L20 40L20 39ZM37 39L37 41L38 41L38 43L40 43L40 44L36 44L36 43L37 43L37 42L36 42L36 43L35 43L35 44L36 44L36 45L35 45L35 47L36 47L36 46L39 46L39 47L38 47L38 48L39 48L39 47L40 47L40 46L39 46L39 45L40 45L40 44L41 44L41 43L40 43L40 41L41 41L41 40L38 40L38 39ZM6 40L6 41L7 41L7 40ZM26 40L26 41L28 41L28 40ZM34 40L34 41L35 41L35 40ZM54 40L54 41L55 41L55 40ZM15 41L15 42L16 42L16 41ZM21 42L21 43L22 43L22 42ZM43 42L43 43L44 43L44 42ZM66 42L66 43L67 43L67 46L68 46L68 43L67 43L67 42ZM15 43L15 44L16 44L16 43ZM32 43L32 45L33 45L33 43ZM5 45L5 46L7 46L7 45ZM41 45L41 46L42 46L42 45ZM15 46L15 47L14 47L14 48L15 48L15 47L16 47L16 48L17 48L17 49L18 49L18 50L17 50L17 51L16 51L16 50L15 50L15 49L12 49L12 51L13 51L13 53L12 53L12 52L11 52L11 53L12 53L12 54L13 54L13 55L16 55L16 54L15 54L15 53L16 53L16 52L17 52L17 51L18 51L18 53L17 53L17 54L18 54L18 55L21 55L21 54L22 54L22 53L21 53L21 54L20 54L20 52L21 52L21 49L22 49L22 48L21 48L21 49L18 49L18 48L17 48L17 47L18 47L18 46ZM19 46L19 48L20 48L20 46ZM21 46L21 47L22 47L22 46ZM3 47L3 48L4 48L4 47ZM6 47L6 48L7 48L7 47ZM27 49L27 50L28 50L28 49ZM19 50L19 51L20 51L20 50ZM22 51L22 52L24 52L24 51ZM51 51L51 52L52 52L52 51ZM14 52L14 53L13 53L13 54L14 54L14 53L15 53L15 52ZM36 52L36 53L38 53L38 52ZM1 53L1 54L0 54L0 55L2 55L2 53ZM18 53L18 54L19 54L19 53ZM53 53L53 54L54 54L54 53ZM26 54L26 55L25 55L25 56L27 56L27 55L29 55L29 54ZM8 55L8 56L10 56L10 55ZM50 55L50 56L51 56L51 55ZM65 55L65 56L66 56L66 55ZM0 56L0 61L1 61L1 56ZM15 56L15 57L16 57L16 56ZM62 56L62 57L63 57L63 56ZM67 57L67 58L65 58L65 60L60 60L60 66L59 66L59 68L61 68L61 69L62 69L62 67L64 67L64 66L65 66L65 68L67 68L67 69L68 69L68 68L67 68L67 67L66 67L66 66L65 66L65 64L67 64L67 65L69 65L69 64L68 64L68 63L67 63L67 62L69 62L69 60L68 60L68 57ZM45 58L45 59L46 59L46 58ZM51 59L51 60L52 60L52 59ZM3 60L3 61L5 61L5 60ZM10 60L10 61L11 61L11 62L12 62L12 63L13 63L13 62L14 62L14 61L13 61L13 60ZM15 60L15 61L16 61L16 60ZM26 60L26 62L28 62L28 63L27 63L27 64L28 64L28 65L25 65L25 66L24 66L24 67L25 67L25 68L26 68L26 67L27 67L27 66L28 66L28 65L30 65L30 67L31 67L31 66L32 66L32 65L30 65L30 64L29 64L29 63L32 63L32 61L27 61L27 60ZM57 60L57 61L58 61L58 60ZM67 60L67 61L68 61L68 60ZM21 61L21 62L22 62L22 61ZM33 61L33 64L36 64L36 61ZM61 61L61 64L64 64L64 61ZM34 62L34 63L35 63L35 62ZM62 62L62 63L63 63L63 62ZM65 62L65 63L66 63L66 62ZM10 64L10 65L11 65L11 64ZM44 64L44 66L45 66L45 67L46 67L46 66L45 66L45 64ZM33 65L33 67L37 67L37 65ZM61 65L61 67L62 67L62 66L64 66L64 65ZM17 66L17 67L18 67L18 66ZM25 66L25 67L26 67L26 66ZM54 66L54 67L55 67L55 66ZM57 66L57 69L58 69L58 66ZM0 0L0 7L7 7L7 0ZM1 1L1 6L6 6L6 1ZM2 2L2 5L5 5L5 2ZM62 0L62 7L69 7L69 0ZM63 1L63 6L68 6L68 1ZM64 2L64 5L67 5L67 2ZM0 62L0 69L7 69L7 62ZM1 63L1 68L6 68L6 63ZM2 64L2 67L5 67L5 64Z" fill="#000000"/></g></g></svg>
