<?xml version="1.0" encoding="UTF-8"?>
<svg xmlns="http://www.w3.org/2000/svg" version="1.1" width="300" height="300" viewBox="0 0 300 300"><rect x="0" y="0" width="300" height="300" fill="#ffffff"/><g transform="scale(4.348)"><g transform="translate(0,0)"><path fill-rule="evenodd" d="M8 0L8 2L9 2L9 1L10 1L10 0ZM11 0L11 2L10 2L10 3L9 3L9 4L8 4L8 9L10 9L10 7L11 7L11 6L12 6L12 8L11 8L11 10L12 10L12 9L13 9L13 8L14 8L14 9L16 9L16 10L14 10L14 11L11 11L11 13L10 13L10 12L9 12L9 11L10 11L10 10L6 10L6 9L7 9L7 8L5 8L5 9L4 9L4 10L6 10L6 11L7 11L7 12L5 12L5 11L4 11L4 12L5 12L5 13L3 13L3 14L2 14L2 13L1 13L1 12L2 12L2 11L3 11L3 10L0 10L0 11L1 11L1 12L0 12L0 14L2 14L2 16L1 16L1 15L0 15L0 24L1 24L1 22L2 22L2 24L3 24L3 25L4 25L4 22L6 22L6 23L5 23L5 24L6 24L6 25L7 25L7 26L6 26L6 27L8 27L8 25L7 25L7 24L9 24L9 25L10 25L10 26L11 26L11 25L13 25L13 26L12 26L12 27L9 27L9 28L10 28L10 30L9 30L9 32L3 32L3 31L0 31L0 33L1 33L1 35L0 35L0 36L1 36L1 37L0 37L0 38L1 38L1 39L0 39L0 41L1 41L1 40L2 40L2 42L1 42L1 43L0 43L0 49L1 49L1 50L0 50L0 54L1 54L1 56L0 56L0 57L1 57L1 56L2 56L2 59L3 59L3 58L4 58L4 59L8 59L8 60L6 60L6 61L8 61L8 62L9 62L9 61L8 61L8 60L10 60L10 61L11 61L11 62L10 62L10 64L9 64L9 63L8 63L8 64L9 64L9 65L10 65L10 64L12 64L12 66L11 66L11 67L10 67L10 69L14 69L14 68L11 68L11 67L13 67L13 64L12 64L12 61L11 61L11 60L10 60L10 59L12 59L12 60L13 60L13 62L14 62L14 63L16 63L16 61L17 61L17 67L18 67L18 69L19 69L19 66L18 66L18 65L19 65L19 64L18 64L18 63L20 63L20 65L21 65L21 66L20 66L20 67L21 67L21 69L25 69L25 68L26 68L26 69L27 69L27 68L28 68L28 69L29 69L29 67L30 67L30 69L31 69L31 68L32 68L32 69L37 69L37 68L36 68L36 67L37 67L37 62L38 62L38 65L39 65L39 66L40 66L40 65L41 65L41 68L40 68L40 69L42 69L42 68L43 68L43 67L44 67L44 69L45 69L45 67L44 67L44 65L47 65L47 64L46 64L46 63L45 63L45 62L44 62L44 61L45 61L45 60L46 60L46 61L47 61L47 63L48 63L48 65L49 65L49 66L48 66L48 67L46 67L46 69L47 69L47 68L48 68L48 69L50 69L50 68L51 68L51 67L53 67L53 68L52 68L52 69L55 69L55 68L56 68L56 69L57 69L57 68L58 68L58 69L60 69L60 68L62 68L62 69L65 69L65 68L66 68L66 69L67 69L67 68L66 68L66 66L67 66L67 67L69 67L69 66L67 66L67 65L68 65L68 64L69 64L69 62L68 62L68 64L67 64L67 65L66 65L66 63L67 63L67 62L66 62L66 59L67 59L67 57L65 57L65 56L66 56L66 55L67 55L67 54L64 54L64 53L65 53L65 52L66 52L66 51L67 51L67 53L68 53L68 55L69 55L69 52L68 52L68 51L69 51L69 48L68 48L68 49L67 49L67 50L66 50L66 47L67 47L67 46L65 46L65 47L63 47L63 46L64 46L64 45L68 45L68 47L69 47L69 44L68 44L68 43L69 43L69 42L68 42L68 43L67 43L67 42L66 42L66 43L65 43L65 42L64 42L64 41L63 41L63 40L62 40L62 39L63 39L63 38L62 38L62 39L60 39L60 38L61 38L61 37L65 37L65 36L66 36L66 37L67 37L67 38L68 38L68 39L69 39L69 38L68 38L68 37L69 37L69 33L68 33L68 32L67 32L67 33L68 33L68 37L67 37L67 36L66 36L66 35L67 35L67 34L66 34L66 33L65 33L65 32L66 32L66 30L68 30L68 31L69 31L69 30L68 30L68 29L69 29L69 28L68 28L68 27L69 27L69 26L68 26L68 27L67 27L67 28L68 28L68 29L66 29L66 30L65 30L65 31L63 31L63 30L62 30L62 28L63 28L63 27L62 27L62 28L61 28L61 27L60 27L60 25L59 25L59 26L58 26L58 23L59 23L59 22L60 22L60 23L61 23L61 22L62 22L62 24L61 24L61 25L63 25L63 26L64 26L64 29L65 29L65 26L64 26L64 25L65 25L65 24L66 24L66 25L68 25L68 23L69 23L69 22L68 22L68 21L69 21L69 20L68 20L68 19L69 19L69 16L68 16L68 17L67 17L67 16L66 16L66 15L67 15L67 13L68 13L68 15L69 15L69 13L68 13L68 11L69 11L69 8L67 8L67 10L66 10L66 9L65 9L65 8L61 8L61 6L60 6L60 7L59 7L59 4L58 4L58 3L59 3L59 2L57 2L57 4L56 4L56 1L57 1L57 0L54 0L54 3L53 3L53 2L52 2L52 3L51 3L51 2L50 2L50 1L52 1L52 0L50 0L50 1L49 1L49 0L46 0L46 1L45 1L45 2L46 2L46 3L47 3L47 2L50 2L50 5L51 5L51 4L52 4L52 5L53 5L53 6L52 6L52 7L51 7L51 6L50 6L50 7L49 7L49 6L48 6L48 5L49 5L49 4L48 4L48 5L47 5L47 4L46 4L46 5L47 5L47 6L46 6L46 7L47 7L47 8L44 8L44 9L43 9L43 11L41 11L41 10L42 10L42 8L43 8L43 6L42 6L42 5L43 5L43 4L44 4L44 7L45 7L45 4L44 4L44 2L41 2L41 0L40 0L40 3L39 3L39 0L38 0L38 1L37 1L37 0L34 0L34 1L33 1L33 0L32 0L32 1L33 1L33 2L32 2L32 3L31 3L31 2L30 2L30 1L31 1L31 0L29 0L29 1L28 1L28 2L29 2L29 3L28 3L28 5L29 5L29 6L28 6L28 7L27 7L27 6L26 6L26 5L27 5L27 4L26 4L26 3L25 3L25 1L27 1L27 0L24 0L24 5L23 5L23 6L22 6L22 7L21 7L21 6L20 6L20 5L21 5L21 4L22 4L22 3L23 3L23 2L22 2L22 3L21 3L21 2L20 2L20 1L23 1L23 0L18 0L18 1L19 1L19 2L18 2L18 3L17 3L17 4L16 4L16 5L18 5L18 3L19 3L19 6L18 6L18 7L17 7L17 6L16 6L16 8L15 8L15 6L14 6L14 5L15 5L15 4L14 4L14 3L12 3L12 4L10 4L10 3L11 3L11 2L12 2L12 0ZM13 0L13 2L15 2L15 1L14 1L14 0ZM42 0L42 1L44 1L44 0ZM58 0L58 1L61 1L61 0ZM34 1L34 2L33 2L33 3L32 3L32 4L31 4L31 3L30 3L30 4L29 4L29 5L30 5L30 4L31 4L31 8L30 8L30 6L29 6L29 7L28 7L28 8L27 8L27 9L26 9L26 6L25 6L25 5L24 5L24 6L23 6L23 7L22 7L22 8L24 8L24 6L25 6L25 9L26 9L26 10L24 10L24 11L26 11L26 10L27 10L27 12L28 12L28 15L26 15L26 16L27 16L27 17L26 17L26 18L25 18L25 16L23 16L23 15L24 15L24 14L25 14L25 13L26 13L26 12L25 12L25 13L24 13L24 12L23 12L23 13L24 13L24 14L22 14L22 12L19 12L19 13L18 13L18 11L17 11L17 10L19 10L19 11L21 11L21 8L20 8L20 6L19 6L19 8L20 8L20 10L19 10L19 9L18 9L18 8L16 8L16 9L17 9L17 10L16 10L16 11L14 11L14 12L13 12L13 13L12 13L12 15L11 15L11 14L10 14L10 13L9 13L9 12L7 12L7 13L5 13L5 15L4 15L4 14L3 14L3 15L4 15L4 16L3 16L3 17L5 17L5 19L6 19L6 20L4 20L4 19L3 19L3 18L1 18L1 21L2 21L2 22L4 22L4 21L6 21L6 22L7 22L7 23L6 23L6 24L7 24L7 23L8 23L8 22L9 22L9 24L11 24L11 22L13 22L13 23L12 23L12 24L13 24L13 25L15 25L15 24L17 24L17 25L18 25L18 24L19 24L19 23L20 23L20 22L21 22L21 24L20 24L20 26L16 26L16 27L17 27L17 28L16 28L16 30L17 30L17 29L18 29L18 27L20 27L20 30L19 30L19 31L18 31L18 32L19 32L19 33L18 33L18 36L17 36L17 37L16 37L16 36L12 36L12 37L11 37L11 35L10 35L10 34L9 34L9 37L6 37L6 38L8 38L8 39L6 39L6 40L8 40L8 41L5 41L5 40L4 40L4 41L5 41L5 44L7 44L7 43L8 43L8 44L9 44L9 42L11 42L11 41L12 41L12 43L11 43L11 44L13 44L13 45L14 45L14 46L13 46L13 47L12 47L12 45L10 45L10 46L8 46L8 45L3 45L3 43L1 43L1 45L3 45L3 46L1 46L1 49L2 49L2 47L3 47L3 50L2 50L2 51L1 51L1 52L2 52L2 53L3 53L3 55L2 55L2 56L3 56L3 55L5 55L5 56L4 56L4 58L5 58L5 57L6 57L6 58L8 58L8 59L10 59L10 58L12 58L12 59L13 59L13 56L14 56L14 58L15 58L15 56L14 56L14 55L13 55L13 56L12 56L12 55L11 55L11 54L14 54L14 53L16 53L16 54L17 54L17 52L16 52L16 51L17 51L17 50L19 50L19 48L18 48L18 47L19 47L19 46L22 46L22 48L24 48L24 51L23 51L23 50L22 50L22 51L21 51L21 50L20 50L20 51L21 51L21 53L20 53L20 54L19 54L19 57L18 57L18 55L17 55L17 57L18 57L18 58L19 58L19 59L18 59L18 60L19 60L19 59L20 59L20 62L21 62L21 65L22 65L22 66L21 66L21 67L22 67L22 68L24 68L24 66L27 66L27 64L26 64L26 63L28 63L28 64L29 64L29 66L28 66L28 67L29 67L29 66L30 66L30 67L32 67L32 68L33 68L33 66L32 66L32 64L31 64L31 63L30 63L30 62L32 62L32 61L30 61L30 58L31 58L31 57L30 57L30 58L29 58L29 57L28 57L28 56L29 56L29 55L28 55L28 54L29 54L29 53L30 53L30 51L31 51L31 50L30 50L30 48L33 48L33 49L34 49L34 50L35 50L35 49L34 49L34 47L35 47L35 46L37 46L37 45L34 45L34 43L33 43L33 42L34 42L34 40L37 40L37 41L35 41L35 43L36 43L36 44L38 44L38 48L36 48L36 49L38 49L38 50L37 50L37 51L36 51L36 52L35 52L35 51L34 51L34 52L35 52L35 53L34 53L34 55L35 55L35 56L37 56L37 57L36 57L36 58L34 58L34 56L33 56L33 58L32 58L32 60L34 60L34 59L36 59L36 60L37 60L37 61L38 61L38 62L39 62L39 65L40 65L40 62L41 62L41 61L42 61L42 62L43 62L43 65L42 65L42 63L41 63L41 65L42 65L42 67L43 67L43 65L44 65L44 62L43 62L43 61L44 61L44 60L45 60L45 59L44 59L44 60L43 60L43 59L41 59L41 58L40 58L40 55L41 55L41 53L40 53L40 52L42 52L42 56L41 56L41 57L42 57L42 58L45 58L45 57L46 57L46 58L47 58L47 59L46 59L46 60L47 60L47 61L48 61L48 63L49 63L49 64L51 64L51 65L50 65L50 66L49 66L49 67L48 67L48 68L49 68L49 67L50 67L50 66L53 66L53 65L52 65L52 64L53 64L53 63L52 63L52 62L53 62L53 61L54 61L54 64L55 64L55 65L54 65L54 68L55 68L55 67L56 67L56 63L55 63L55 61L56 61L56 60L57 60L57 64L58 64L58 65L57 65L57 67L60 67L60 66L62 66L62 68L65 68L65 67L64 67L64 65L59 65L59 64L60 64L60 62L59 62L59 61L58 61L58 60L59 60L59 59L60 59L60 57L59 57L59 56L60 56L60 55L61 55L61 60L62 60L62 56L63 56L63 57L64 57L64 59L63 59L63 60L64 60L64 59L66 59L66 58L65 58L65 57L64 57L64 54L63 54L63 55L62 55L62 49L61 49L61 50L59 50L59 49L58 49L58 50L56 50L56 51L57 51L57 53L56 53L56 52L55 52L55 49L54 49L54 51L53 51L53 49L52 49L52 48L53 48L53 47L54 47L54 46L55 46L55 47L57 47L57 48L58 48L58 46L60 46L60 45L58 45L58 44L57 44L57 43L59 43L59 42L61 42L61 43L62 43L62 44L63 44L63 45L61 45L61 48L62 48L62 46L63 46L63 45L64 45L64 42L63 42L63 43L62 43L62 42L61 42L61 41L62 41L62 40L61 40L61 41L59 41L59 40L60 40L60 39L59 39L59 38L60 38L60 37L59 37L59 36L60 36L60 33L58 33L58 32L59 32L59 28L58 28L58 31L57 31L57 33L56 33L56 30L55 30L55 29L56 29L56 28L57 28L57 27L56 27L56 26L57 26L57 25L56 25L56 24L55 24L55 23L58 23L58 22L59 22L59 19L61 19L61 20L60 20L60 22L61 22L61 20L62 20L62 19L63 19L63 21L62 21L62 22L63 22L63 21L64 21L64 23L63 23L63 25L64 25L64 24L65 24L65 22L66 22L66 24L67 24L67 23L68 23L68 22L67 22L67 21L68 21L68 20L67 20L67 19L68 19L68 18L67 18L67 17L65 17L65 18L66 18L66 20L67 20L67 21L64 21L64 20L65 20L65 19L64 19L64 16L65 16L65 15L66 15L66 13L67 13L67 11L68 11L68 10L67 10L67 11L66 11L66 13L65 13L65 15L63 15L63 13L64 13L64 12L63 12L63 13L62 13L62 12L61 12L61 11L59 11L59 12L58 12L58 10L59 10L59 9L60 9L60 10L61 10L61 8L59 8L59 7L58 7L58 6L57 6L57 9L56 9L56 6L55 6L55 5L56 5L56 4L55 4L55 5L54 5L54 4L53 4L53 3L52 3L52 4L53 4L53 5L54 5L54 6L53 6L53 7L52 7L52 8L51 8L51 7L50 7L50 8L49 8L49 7L48 7L48 6L47 6L47 7L48 7L48 8L47 8L47 9L46 9L46 10L45 10L45 11L46 11L46 12L45 12L45 13L44 13L44 14L43 14L43 12L42 12L42 13L41 13L41 11L40 11L40 10L41 10L41 9L40 9L40 8L42 8L42 6L41 6L41 7L40 7L40 5L38 5L38 6L37 6L37 7L38 7L38 8L37 8L37 9L35 9L35 10L34 10L34 9L33 9L33 11L32 11L32 9L31 9L31 8L32 8L32 4L34 4L34 2L35 2L35 3L37 3L37 1L36 1L36 2L35 2L35 1ZM46 1L46 2L47 2L47 1ZM38 3L38 4L39 4L39 3ZM40 3L40 4L41 4L41 5L42 5L42 3ZM60 3L60 5L61 5L61 3ZM9 4L9 5L10 5L10 4ZM13 4L13 5L14 5L14 4ZM33 5L33 8L36 8L36 5ZM9 6L9 7L10 7L10 6ZM13 6L13 7L14 7L14 6ZM34 6L34 7L35 7L35 6ZM38 6L38 7L39 7L39 6ZM54 6L54 7L53 7L53 8L52 8L52 9L51 9L51 10L50 10L50 9L49 9L49 8L48 8L48 9L47 9L47 10L46 10L46 11L48 11L48 13L47 13L47 12L46 12L46 13L45 13L45 14L44 14L44 17L45 17L45 20L44 20L44 21L43 21L43 22L42 22L42 20L41 20L41 19L40 19L40 17L41 17L41 18L42 18L42 19L44 19L44 18L42 18L42 17L43 17L43 15L42 15L42 16L40 16L40 17L39 17L39 15L38 15L38 13L36 13L36 15L38 15L38 16L36 16L36 17L37 17L37 18L36 18L36 19L35 19L35 21L36 21L36 19L37 19L37 22L36 22L36 23L35 23L35 24L36 24L36 25L34 25L34 26L33 26L33 24L32 24L32 23L33 23L33 22L32 22L32 21L31 21L31 20L32 20L32 18L34 18L34 17L35 17L35 16L34 16L34 17L31 17L31 16L32 16L32 15L33 15L33 14L31 14L31 16L30 16L30 18L28 18L28 19L30 19L30 22L29 22L29 23L27 23L27 22L28 22L28 21L29 21L29 20L28 20L28 21L27 21L27 20L26 20L26 19L27 19L27 18L26 18L26 19L25 19L25 18L24 18L24 17L23 17L23 16L22 16L22 15L21 15L21 14L19 14L19 15L18 15L18 16L19 16L19 20L18 20L18 21L19 21L19 22L18 22L18 23L17 23L17 24L18 24L18 23L19 23L19 22L20 22L20 21L21 21L21 20L22 20L22 21L23 21L23 22L24 22L24 21L25 21L25 22L26 22L26 23L25 23L25 24L24 24L24 23L22 23L22 24L24 24L24 25L25 25L25 24L26 24L26 26L24 26L24 27L26 27L26 26L27 26L27 28L26 28L26 29L25 29L25 30L26 30L26 29L27 29L27 28L30 28L30 31L31 31L31 32L30 32L30 34L29 34L29 30L27 30L27 31L26 31L26 32L27 32L27 34L25 34L25 35L24 35L24 36L23 36L23 35L22 35L22 37L21 37L21 39L20 39L20 36L18 36L18 38L17 38L17 39L18 39L18 38L19 38L19 40L16 40L16 37L15 37L15 38L14 38L14 39L13 39L13 38L12 38L12 39L13 39L13 40L12 40L12 41L13 41L13 40L14 40L14 39L15 39L15 40L16 40L16 41L17 41L17 42L16 42L16 43L18 43L18 45L19 45L19 44L20 44L20 43L21 43L21 44L22 44L22 46L24 46L24 45L25 45L25 47L24 47L24 48L25 48L25 50L26 50L26 49L27 49L27 48L28 48L28 49L29 49L29 48L28 48L28 47L29 47L29 46L31 46L31 47L32 47L32 46L31 46L31 44L30 44L30 45L29 45L29 46L28 46L28 47L27 47L27 46L26 46L26 45L27 45L27 44L28 44L28 43L29 43L29 42L28 42L28 40L26 40L26 39L25 39L25 38L24 38L24 37L25 37L25 36L26 36L26 37L27 37L27 38L28 38L28 39L29 39L29 38L28 38L28 37L29 37L29 36L30 36L30 37L32 37L32 38L31 38L31 39L30 39L30 40L31 40L31 43L32 43L32 44L33 44L33 43L32 43L32 42L33 42L33 40L32 40L32 39L35 39L35 38L37 38L37 35L39 35L39 36L38 36L38 37L39 37L39 38L38 38L38 39L39 39L39 38L40 38L40 41L39 41L39 42L38 42L38 41L37 41L37 42L36 42L36 43L39 43L39 42L42 42L42 43L41 43L41 44L42 44L42 45L43 45L43 44L42 44L42 43L44 43L44 47L41 47L41 48L40 48L40 49L39 49L39 50L38 50L38 51L37 51L37 52L36 52L36 53L35 53L35 54L36 54L36 53L37 53L37 56L38 56L38 57L37 57L37 58L38 58L38 59L37 59L37 60L39 60L39 61L41 61L41 60L39 60L39 59L40 59L40 58L38 58L38 57L39 57L39 54L40 54L40 53L38 53L38 52L40 52L40 49L41 49L41 51L42 51L42 52L43 52L43 50L42 50L42 49L43 49L43 48L44 48L44 50L46 50L46 51L44 51L44 54L43 54L43 55L44 55L44 57L45 57L45 55L48 55L48 57L47 57L47 58L48 58L48 61L49 61L49 63L51 63L51 64L52 64L52 63L51 63L51 62L50 62L50 61L51 61L51 60L49 60L49 58L50 58L50 59L52 59L52 61L53 61L53 60L54 60L54 59L52 59L52 57L55 57L55 55L51 55L51 54L50 54L50 53L49 53L49 52L50 52L50 51L51 51L51 53L52 53L52 54L53 54L53 51L52 51L52 49L51 49L51 48L52 48L52 47L50 47L50 48L49 48L49 47L48 47L48 45L49 45L49 44L50 44L50 45L51 45L51 44L50 44L50 43L51 43L51 42L50 42L50 41L51 41L51 39L53 39L53 38L54 38L54 39L55 39L55 40L56 40L56 41L55 41L55 42L56 42L56 43L57 43L57 42L58 42L58 40L59 40L59 39L58 39L58 37L57 37L57 36L58 36L58 35L59 35L59 34L58 34L58 33L57 33L57 34L56 34L56 33L55 33L55 35L57 35L57 36L56 36L56 37L55 37L55 38L54 38L54 37L53 37L53 36L54 36L54 32L55 32L55 31L54 31L54 28L55 28L55 27L54 27L54 28L53 28L53 24L52 24L52 23L53 23L53 22L54 22L54 23L55 23L55 22L56 22L56 21L57 21L57 22L58 22L58 20L57 20L57 19L58 19L58 16L59 16L59 18L60 18L60 16L59 16L59 15L60 15L60 12L59 12L59 14L58 14L58 12L57 12L57 10L58 10L58 9L57 9L57 10L56 10L56 11L54 11L54 8L55 8L55 6ZM0 8L0 9L3 9L3 8ZM38 8L38 9L37 9L37 10L38 10L38 9L39 9L39 8ZM22 9L22 11L23 11L23 9ZM27 9L27 10L28 10L28 12L29 12L29 11L30 11L30 13L31 13L31 11L30 11L30 10L28 10L28 9ZM48 9L48 11L49 11L49 12L50 12L50 14L51 14L51 13L52 13L52 14L53 14L53 13L52 13L52 12L54 12L54 11L52 11L52 10L51 10L51 11L52 11L52 12L50 12L50 11L49 11L49 9ZM62 9L62 11L64 11L64 10L63 10L63 9ZM16 11L16 12L15 12L15 13L17 13L17 11ZM33 11L33 12L32 12L32 13L33 13L33 12L34 12L34 11ZM36 11L36 12L37 12L37 11ZM55 12L55 13L54 13L54 14L55 14L55 17L54 17L54 16L53 16L53 17L52 17L52 18L51 18L51 17L50 17L50 16L51 16L51 15L49 15L49 13L48 13L48 15L47 15L47 13L46 13L46 18L48 18L48 15L49 15L49 17L50 17L50 18L49 18L49 19L48 19L48 20L47 20L47 19L46 19L46 20L45 20L45 21L44 21L44 23L42 23L42 24L43 24L43 25L42 25L42 26L41 26L41 25L40 25L40 24L41 24L41 23L40 23L40 19L39 19L39 20L38 20L38 21L39 21L39 23L38 23L38 24L39 24L39 25L38 25L38 26L37 26L37 25L36 25L36 26L37 26L37 27L36 27L36 28L38 28L38 30L37 30L37 29L35 29L35 30L34 30L34 31L36 31L36 32L38 32L38 34L39 34L39 35L40 35L40 36L39 36L39 37L40 37L40 38L41 38L41 41L42 41L42 42L43 42L43 41L44 41L44 43L46 43L46 46L47 46L47 45L48 45L48 44L47 44L47 43L50 43L50 42L49 42L49 41L50 41L50 38L52 38L52 36L53 36L53 35L52 35L52 32L54 32L54 31L51 31L51 33L50 33L50 35L48 35L48 36L47 36L47 35L46 35L46 34L47 34L47 33L48 33L48 32L50 32L50 31L48 31L48 30L47 30L47 29L48 29L48 27L46 27L46 28L45 28L45 25L46 25L46 26L47 26L47 23L48 23L48 22L49 22L49 24L50 24L50 26L49 26L49 27L50 27L50 28L49 28L49 29L50 29L50 30L51 30L51 27L52 27L52 24L50 24L50 22L51 22L51 23L52 23L52 22L53 22L53 21L52 21L52 22L51 22L51 21L50 21L50 22L49 22L49 21L48 21L48 20L49 20L49 19L50 19L50 18L51 18L51 19L53 19L53 20L54 20L54 22L55 22L55 21L56 21L56 19L57 19L57 17L56 17L56 15L57 15L57 16L58 16L58 15L57 15L57 13L56 13L56 12ZM8 13L8 15L9 15L9 17L8 17L8 16L6 16L6 15L7 15L7 14L6 14L6 15L5 15L5 17L8 17L8 18L9 18L9 17L10 17L10 18L11 18L11 19L10 19L10 21L9 21L9 22L11 22L11 19L13 19L13 22L15 22L15 23L16 23L16 20L17 20L17 19L18 19L18 18L17 18L17 16L15 16L15 15L17 15L17 14L13 14L13 15L12 15L12 16L13 16L13 15L14 15L14 16L15 16L15 17L16 17L16 18L15 18L15 19L16 19L16 20L14 20L14 19L13 19L13 18L14 18L14 17L13 17L13 18L12 18L12 17L11 17L11 16L10 16L10 15L9 15L9 13ZM40 13L40 14L41 14L41 13ZM55 13L55 14L56 14L56 13ZM61 13L61 15L62 15L62 17L61 17L61 19L62 19L62 17L63 17L63 15L62 15L62 13ZM29 14L29 15L30 15L30 14ZM34 14L34 15L35 15L35 14ZM20 15L20 16L21 16L21 17L22 17L22 18L20 18L20 19L22 19L22 18L23 18L23 17L22 17L22 16L21 16L21 15ZM28 16L28 17L29 17L29 16ZM38 17L38 18L37 18L37 19L38 19L38 18L39 18L39 17ZM53 17L53 19L54 19L54 20L55 20L55 19L56 19L56 18L54 18L54 17ZM6 18L6 19L7 19L7 18ZM16 18L16 19L17 19L17 18ZM30 18L30 19L31 19L31 18ZM2 19L2 20L3 20L3 19ZM24 19L24 20L23 20L23 21L24 21L24 20L25 20L25 19ZM33 19L33 20L34 20L34 19ZM6 20L6 21L7 21L7 20ZM19 20L19 21L20 21L20 20ZM45 21L45 23L47 23L47 22L46 22L46 21ZM31 22L31 23L30 23L30 24L31 24L31 23L32 23L32 22ZM13 23L13 24L14 24L14 23ZM39 23L39 24L40 24L40 23ZM44 24L44 25L45 25L45 24ZM54 24L54 25L55 25L55 26L56 26L56 25L55 25L55 24ZM0 25L0 27L1 27L1 28L0 28L0 30L1 30L1 29L2 29L2 30L3 30L3 29L4 29L4 30L5 30L5 31L7 31L7 30L8 30L8 28L6 28L6 29L4 29L4 26L3 26L3 28L2 28L2 25ZM28 25L28 27L30 27L30 26L32 26L32 25L30 25L30 26L29 26L29 25ZM39 25L39 27L38 27L38 28L39 28L39 30L38 30L38 32L39 32L39 31L40 31L40 33L39 33L39 34L41 34L41 35L42 35L42 36L40 36L40 37L41 37L41 38L42 38L42 41L43 41L43 38L45 38L45 39L46 39L46 41L45 41L45 40L44 40L44 41L45 41L45 42L46 42L46 41L47 41L47 42L48 42L48 41L49 41L49 39L48 39L48 38L50 38L50 37L49 37L49 36L48 36L48 38L47 38L47 39L46 39L46 35L44 35L44 34L46 34L46 32L45 32L45 31L47 31L47 32L48 32L48 31L47 31L47 30L46 30L46 29L47 29L47 28L46 28L46 29L45 29L45 28L44 28L44 30L45 30L45 31L44 31L44 34L43 34L43 35L42 35L42 30L40 30L40 29L43 29L43 28L40 28L40 25ZM14 26L14 28L13 28L13 27L12 27L12 29L11 29L11 31L10 31L10 32L9 32L9 33L10 33L10 32L11 32L11 31L15 31L15 26ZM20 26L20 27L21 27L21 28L22 28L22 29L21 29L21 30L22 30L22 31L23 31L23 32L22 32L22 33L21 33L21 32L20 32L20 33L21 33L21 34L20 34L20 35L21 35L21 34L22 34L22 33L23 33L23 34L24 34L24 32L25 32L25 31L24 31L24 28L23 28L23 26L22 26L22 27L21 27L21 26ZM34 26L34 28L32 28L32 29L34 29L34 28L35 28L35 26ZM42 26L42 27L43 27L43 26ZM50 26L50 27L51 27L51 26ZM6 29L6 30L7 30L7 29ZM13 29L13 30L14 30L14 29ZM52 29L52 30L53 30L53 29ZM60 29L60 30L61 30L61 29ZM36 30L36 31L37 31L37 30ZM16 31L16 32L15 32L15 33L14 33L14 34L15 34L15 33L16 33L16 34L17 34L17 31ZM27 31L27 32L28 32L28 31ZM32 31L32 32L33 32L33 31ZM60 31L60 32L61 32L61 31ZM1 32L1 33L2 33L2 36L3 36L3 37L2 37L2 38L3 38L3 39L2 39L2 40L3 40L3 39L4 39L4 38L5 38L5 37L4 37L4 35L3 35L3 34L4 34L4 33L2 33L2 32ZM12 32L12 33L11 33L11 34L12 34L12 33L13 33L13 32ZM5 33L5 36L8 36L8 33ZM31 33L31 34L30 34L30 36L31 36L31 35L32 35L32 33ZM33 33L33 36L36 36L36 33ZM61 33L61 36L64 36L64 33ZM6 34L6 35L7 35L7 34ZM28 34L28 35L29 35L29 34ZM34 34L34 35L35 35L35 34ZM62 34L62 35L63 35L63 34ZM26 35L26 36L27 36L27 35ZM43 35L43 37L42 37L42 38L43 38L43 37L44 37L44 35ZM3 37L3 38L4 38L4 37ZM33 37L33 38L35 38L35 37ZM10 38L10 39L9 39L9 40L11 40L11 38ZM55 38L55 39L56 39L56 40L58 40L58 39L56 39L56 38ZM64 38L64 40L65 40L65 38ZM22 39L22 40L24 40L24 39ZM47 39L47 41L48 41L48 39ZM19 40L19 42L18 42L18 43L20 43L20 42L21 42L21 40ZM25 40L25 42L24 42L24 43L25 43L25 42L26 42L26 44L25 44L25 45L26 45L26 44L27 44L27 41L26 41L26 40ZM52 40L52 41L53 41L53 42L52 42L52 46L54 46L54 45L55 45L55 46L58 46L58 45L57 45L57 44L56 44L56 45L55 45L55 44L54 44L54 41L53 41L53 40ZM8 41L8 42L9 42L9 41ZM14 41L14 42L15 42L15 41ZM22 41L22 44L23 44L23 41ZM56 41L56 42L57 42L57 41ZM6 42L6 43L7 43L7 42ZM13 43L13 44L14 44L14 45L15 45L15 47L13 47L13 48L12 48L12 49L11 49L11 50L10 50L10 49L9 49L9 48L8 48L8 47L7 47L7 46L6 46L6 47L7 47L7 48L6 48L6 49L5 49L5 47L4 47L4 51L2 51L2 52L3 52L3 53L4 53L4 54L6 54L6 55L7 55L7 54L8 54L8 55L9 55L9 56L8 56L8 57L10 57L10 55L9 55L9 54L8 54L8 53L9 53L9 51L11 51L11 53L10 53L10 54L11 54L11 53L12 53L12 52L15 52L15 51L16 51L16 48L17 48L17 47L16 47L16 45L17 45L17 44L16 44L16 45L15 45L15 43ZM66 43L66 44L67 44L67 43ZM53 44L53 45L54 45L54 44ZM33 45L33 47L34 47L34 45ZM40 45L40 46L41 46L41 45ZM10 46L10 47L11 47L11 46ZM15 47L15 48L14 48L14 50L13 50L13 49L12 49L12 50L11 50L11 51L14 51L14 50L15 50L15 48L16 48L16 47ZM26 47L26 48L27 48L27 47ZM44 47L44 48L47 48L47 47ZM59 47L59 48L60 48L60 47ZM64 48L64 50L65 50L65 51L64 51L64 52L65 52L65 51L66 51L66 50L65 50L65 48ZM6 49L6 50L9 50L9 49ZM46 49L46 50L47 50L47 51L48 51L48 52L46 52L46 54L47 54L47 53L48 53L48 55L49 55L49 53L48 53L48 52L49 52L49 51L50 51L50 50L51 50L51 49L50 49L50 50L49 50L49 51L48 51L48 50L47 50L47 49ZM28 50L28 51L29 51L29 50ZM58 50L58 51L59 51L59 52L58 52L58 53L57 53L57 54L56 54L56 59L57 59L57 60L58 60L58 59L59 59L59 58L58 58L58 57L57 57L57 56L58 56L58 53L59 53L59 55L60 55L60 54L61 54L61 53L60 53L60 52L61 52L61 51L59 51L59 50ZM67 50L67 51L68 51L68 50ZM4 51L4 52L5 52L5 51ZM6 51L6 52L7 52L7 53L6 53L6 54L7 54L7 53L8 53L8 52L7 52L7 51ZM22 51L22 53L23 53L23 55L22 55L22 56L24 56L24 57L25 57L25 56L24 56L24 55L25 55L25 54L26 54L26 57L27 57L27 58L26 58L26 59L25 59L25 58L24 58L24 59L25 59L25 60L26 60L26 61L25 61L25 62L26 62L26 61L27 61L27 62L28 62L28 63L29 63L29 62L30 62L30 61L29 61L29 58L28 58L28 57L27 57L27 56L28 56L28 55L27 55L27 54L26 54L26 53L27 53L27 51L25 51L25 52L26 52L26 53L25 53L25 54L24 54L24 52L23 52L23 51ZM32 51L32 53L31 53L31 54L32 54L32 55L33 55L33 54L32 54L32 53L33 53L33 51ZM54 52L54 53L55 53L55 52ZM20 54L20 55L21 55L21 54ZM44 54L44 55L45 55L45 54ZM30 55L30 56L31 56L31 55ZM50 55L50 56L51 56L51 57L50 57L50 58L51 58L51 57L52 57L52 56L51 56L51 55ZM6 56L6 57L7 57L7 56ZM20 56L20 57L19 57L19 58L20 58L20 59L21 59L21 60L22 60L22 61L23 61L23 62L22 62L22 63L24 63L24 60L22 60L22 59L23 59L23 58L20 58L20 57L21 57L21 56ZM48 57L48 58L49 58L49 57ZM68 57L68 59L69 59L69 57ZM0 58L0 61L1 61L1 58ZM16 58L16 59L17 59L17 58ZM27 58L27 59L28 59L28 58ZM33 58L33 59L34 59L34 58ZM57 58L57 59L58 59L58 58ZM14 59L14 60L15 60L15 61L16 61L16 60L15 60L15 59ZM3 60L3 61L5 61L5 60ZM27 60L27 61L28 61L28 62L29 62L29 61L28 61L28 60ZM67 60L67 61L69 61L69 60ZM33 61L33 64L36 64L36 61ZM61 61L61 64L64 64L64 61ZM34 62L34 63L35 63L35 62ZM62 62L62 63L63 63L63 62ZM58 63L58 64L59 64L59 63ZM15 64L15 65L14 65L14 67L15 67L15 66L16 66L16 64ZM22 64L22 65L23 65L23 66L22 66L22 67L23 67L23 66L24 66L24 64ZM30 64L30 65L31 65L31 64ZM34 65L34 66L35 66L35 67L34 67L34 68L35 68L35 67L36 67L36 65ZM65 65L65 66L66 66L66 65ZM8 66L8 69L9 69L9 66ZM15 68L15 69L16 69L16 68ZM38 68L38 69L39 69L39 68ZM68 68L68 69L69 69L69 68ZM0 0L0 7L7 7L7 0ZM1 1L1 6L6 6L6 1ZM2 2L2 5L5 5L5 2ZM62 0L62 7L69 7L69 0ZM63 1L63 6L68 6L68 1ZM64 2L64 5L67 5L67 2ZM0 62L0 69L7 69L7 62ZM1 63L1 68L6 68L6 63ZM2 64L2 67L5 67L5 64Z" fill="#000000"/></g></g></svg>
