<?xml version="1.0" encoding="UTF-8"?>
<svg xmlns="http://www.w3.org/2000/svg" version="1.1" width="300" height="300" viewBox="0 0 300 300"><rect x="0" y="0" width="300" height="300" fill="#ffffff"/><g transform="scale(4.348)"><g transform="translate(0,0)"><path fill-rule="evenodd" d="M8 0L8 1L9 1L9 0ZM12 0L12 2L14 2L14 3L13 3L13 4L14 4L14 5L16 5L16 7L15 7L15 6L14 6L14 7L15 7L15 8L16 8L16 7L17 7L17 8L20 8L20 7L21 7L21 8L22 8L22 9L23 9L23 11L22 11L22 10L21 10L21 12L24 12L24 13L26 13L26 12L27 12L27 16L26 16L26 14L24 14L24 15L25 15L25 16L24 16L24 17L25 17L25 16L26 16L26 17L28 17L28 18L30 18L30 19L31 19L31 21L32 21L32 23L33 23L33 22L34 22L34 26L35 26L35 25L37 25L37 27L35 27L35 29L36 29L36 30L34 30L34 29L32 29L32 30L31 30L31 29L30 29L30 30L29 30L29 29L28 29L28 28L25 28L25 27L27 27L27 26L28 26L28 27L31 27L31 28L33 28L33 27L32 27L32 25L31 25L31 24L30 24L30 20L29 20L29 22L28 22L28 23L29 23L29 24L30 24L30 25L31 25L31 26L28 26L28 25L27 25L27 26L26 26L26 25L25 25L25 24L27 24L27 21L24 21L24 20L21 20L21 23L24 23L24 24L22 24L22 25L23 25L23 27L24 27L24 28L23 28L23 31L21 31L21 30L22 30L22 26L21 26L21 24L20 24L20 23L18 23L18 22L20 22L20 19L25 19L25 20L27 20L27 19L26 19L26 18L23 18L23 17L22 17L22 16L23 16L23 13L22 13L22 16L20 16L20 15L21 15L21 13L20 13L20 12L19 12L19 10L20 10L20 9L19 9L19 10L18 10L18 9L16 9L16 10L17 10L17 12L15 12L15 14L13 14L13 15L16 15L16 14L17 14L17 15L19 15L19 16L18 16L18 17L19 17L19 16L20 16L20 19L19 19L19 18L18 18L18 19L17 19L17 16L14 16L14 17L12 17L12 15L11 15L11 16L10 16L10 13L11 13L11 10L12 10L12 11L13 11L13 10L15 10L15 9L14 9L14 8L13 8L13 10L12 10L12 9L9 9L9 8L10 8L10 7L11 7L11 8L12 8L12 7L13 7L13 6L12 6L12 7L11 7L11 4L12 4L12 3L9 3L9 2L8 2L8 5L10 5L10 7L9 7L9 6L8 6L8 7L9 7L9 8L8 8L8 9L7 9L7 8L6 8L6 9L5 9L5 11L4 11L4 10L3 10L3 12L5 12L5 15L7 15L7 16L6 16L6 17L5 17L5 16L4 16L4 13L2 13L2 11L1 11L1 12L0 12L0 13L1 13L1 14L2 14L2 15L3 15L3 17L4 17L4 18L1 18L1 16L0 16L0 20L2 20L2 22L0 22L0 23L1 23L1 24L0 24L0 28L1 28L1 25L2 25L2 26L3 26L3 29L1 29L1 30L2 30L2 31L0 31L0 34L1 34L1 33L3 33L3 34L2 34L2 35L3 35L3 36L1 36L1 35L0 35L0 37L3 37L3 38L2 38L2 39L1 39L1 38L0 38L0 40L1 40L1 41L2 41L2 42L1 42L1 43L0 43L0 46L1 46L1 47L0 47L0 51L1 51L1 52L0 52L0 54L2 54L2 55L0 55L0 56L1 56L1 58L0 58L0 61L1 61L1 58L2 58L2 59L3 59L3 58L4 58L4 59L7 59L7 60L6 60L6 61L8 61L8 62L9 62L9 61L10 61L10 59L8 59L8 58L9 58L9 57L10 57L10 56L9 56L9 54L6 54L6 53L10 53L10 55L11 55L11 53L10 53L10 52L11 52L11 51L12 51L12 56L14 56L14 57L12 57L12 58L11 58L11 62L10 62L10 63L9 63L9 64L10 64L10 65L12 65L12 63L13 63L13 64L14 64L14 63L15 63L15 65L13 65L13 66L12 66L12 67L13 67L13 68L15 68L15 69L18 69L18 68L19 68L19 69L23 69L23 67L25 67L25 66L26 66L26 64L27 64L27 63L29 63L29 64L31 64L31 66L30 66L30 65L29 65L29 66L28 66L28 65L27 65L27 68L28 68L28 69L30 69L30 67L32 67L32 68L34 68L34 69L35 69L35 68L34 68L34 66L35 66L35 67L38 67L38 68L39 68L39 69L42 69L42 68L40 68L40 67L41 67L41 66L42 66L42 65L40 65L40 64L41 64L41 62L39 62L39 61L40 61L40 60L41 60L41 61L42 61L42 60L41 60L41 59L42 59L42 58L43 58L43 56L41 56L41 55L42 55L42 54L41 54L41 55L40 55L40 56L38 56L38 55L37 55L37 54L35 54L35 53L32 53L32 52L33 52L33 51L32 51L32 49L31 49L31 48L32 48L32 47L30 47L30 45L29 45L29 44L27 44L27 43L29 43L29 41L28 41L28 40L26 40L26 38L28 38L28 39L33 39L33 40L32 40L32 42L33 42L33 44L32 44L32 43L30 43L30 44L31 44L31 45L35 45L35 46L33 46L33 48L34 48L34 47L35 47L35 48L37 48L37 49L36 49L36 50L37 50L37 51L35 51L35 50L34 50L34 51L35 51L35 52L36 52L36 53L37 53L37 52L39 52L39 53L38 53L38 54L40 54L40 51L38 51L38 50L40 50L40 49L39 49L39 48L37 48L37 47L38 47L38 45L39 45L39 47L40 47L40 48L42 48L42 49L44 49L44 48L43 48L43 46L44 46L44 47L45 47L45 45L42 45L42 44L41 44L41 45L40 45L40 44L39 44L39 43L38 43L38 44L36 44L36 41L35 41L35 43L34 43L34 42L33 42L33 41L34 41L34 39L35 39L35 40L37 40L37 41L38 41L38 39L35 39L35 38L30 38L30 37L36 37L36 38L37 38L37 37L38 37L38 38L39 38L39 42L40 42L40 43L43 43L43 42L42 42L42 41L41 41L41 42L40 42L40 40L41 40L41 39L43 39L43 38L44 38L44 39L45 39L45 40L43 40L43 41L45 41L45 42L44 42L44 44L47 44L47 46L46 46L46 48L45 48L45 50L44 50L44 52L43 52L43 51L41 51L41 52L43 52L43 54L44 54L44 55L46 55L46 54L47 54L47 55L48 55L48 56L50 56L50 55L51 55L51 59L50 59L50 58L49 58L49 57L48 57L48 58L49 58L49 59L48 59L48 60L47 60L47 61L49 61L49 62L48 62L48 63L47 63L47 65L46 65L46 68L45 68L45 69L48 69L48 68L49 68L49 69L50 69L50 66L49 66L49 65L50 65L50 64L49 64L49 65L48 65L48 63L50 63L50 62L51 62L51 65L52 65L52 64L53 64L53 61L52 61L52 62L51 62L51 61L50 61L50 60L51 60L51 59L52 59L52 60L54 60L54 61L56 61L56 60L54 60L54 59L53 59L53 58L55 58L55 57L53 57L53 56L57 56L57 55L58 55L58 56L61 56L61 58L60 58L60 57L59 57L59 59L58 59L58 60L59 60L59 59L60 59L60 61L59 61L59 62L60 62L60 65L61 65L61 66L59 66L59 64L58 64L58 65L57 65L57 64L56 64L56 62L55 62L55 68L54 68L54 67L53 67L53 66L54 66L54 65L53 65L53 66L51 66L51 69L53 69L53 68L54 68L54 69L55 69L55 68L56 68L56 67L58 67L58 68L57 68L57 69L58 69L58 68L59 68L59 69L60 69L60 68L59 68L59 67L61 67L61 69L62 69L62 68L63 68L63 69L65 69L65 67L64 67L64 65L65 65L65 66L68 66L68 65L69 65L69 64L68 64L68 63L65 63L65 61L67 61L67 62L69 62L69 56L67 56L67 57L68 57L68 58L63 58L63 57L65 57L65 55L64 55L64 56L63 56L63 55L62 55L62 53L63 53L63 54L67 54L67 55L68 55L68 54L69 54L69 52L68 52L68 51L67 51L67 50L68 50L68 48L69 48L69 45L68 45L68 46L67 46L67 45L66 45L66 44L65 44L65 45L66 45L66 46L65 46L65 47L63 47L63 46L62 46L62 45L61 45L61 44L62 44L62 43L61 43L61 41L60 41L60 39L59 39L59 38L63 38L63 39L61 39L61 40L62 40L62 41L63 41L63 44L64 44L64 43L67 43L67 42L66 42L66 41L68 41L68 42L69 42L69 41L68 41L68 40L67 40L67 39L65 39L65 38L63 38L63 37L68 37L68 38L69 38L69 37L68 37L68 36L69 36L69 31L68 31L68 29L69 29L69 27L66 27L66 25L65 25L65 26L64 26L64 25L61 25L61 24L60 24L60 22L62 22L62 21L65 21L65 20L63 20L63 18L62 18L62 21L61 21L61 19L59 19L59 20L57 20L57 19L58 19L58 18L60 18L60 12L59 12L59 11L61 11L61 10L62 10L62 8L61 8L61 6L60 6L60 8L59 8L59 4L58 4L58 5L57 5L57 4L56 4L56 3L53 3L53 1L54 1L54 2L55 2L55 0L51 0L51 1L52 1L52 3L53 3L53 4L56 4L56 5L55 5L55 6L54 6L54 7L53 7L53 6L52 6L52 4L51 4L51 2L46 2L46 1L45 1L45 0L44 0L44 2L42 2L42 1L43 1L43 0L39 0L39 1L40 1L40 2L39 2L39 3L41 3L41 2L42 2L42 3L43 3L43 6L42 6L42 5L41 5L41 4L38 4L38 2L36 2L36 3L35 3L35 2L34 2L34 1L33 1L33 2L31 2L31 1L32 1L32 0L28 0L28 2L27 2L27 1L25 1L25 0L21 0L21 1L19 1L19 0L15 0L15 1L16 1L16 2L17 2L17 1L19 1L19 2L18 2L18 3L15 3L15 2L14 2L14 0ZM37 0L37 1L38 1L38 0ZM48 0L48 1L50 1L50 0ZM56 0L56 2L57 2L57 0ZM58 0L58 1L61 1L61 0ZM10 1L10 2L11 2L11 1ZM22 1L22 2L23 2L23 1ZM24 1L24 3L25 3L25 1ZM20 2L20 3L19 3L19 4L17 4L17 5L18 5L18 6L17 6L17 7L18 7L18 6L19 6L19 7L20 7L20 6L19 6L19 4L20 4L20 3L21 3L21 4L23 4L23 5L26 5L26 4L28 4L28 5L27 5L27 8L26 8L26 6L25 6L25 7L24 7L24 6L23 6L23 7L22 7L22 5L21 5L21 7L22 7L22 8L23 8L23 9L24 9L24 10L25 10L25 11L26 11L26 10L27 10L27 12L28 12L28 10L30 10L30 11L31 11L31 10L32 10L32 6L31 6L31 10L30 10L30 9L29 9L29 8L28 8L28 6L29 6L29 7L30 7L30 6L29 6L29 3L30 3L30 2L28 2L28 3L27 3L27 2L26 2L26 4L23 4L23 3L21 3L21 2ZM58 2L58 3L59 3L59 2ZM14 3L14 4L15 4L15 3ZM31 3L31 4L30 4L30 5L31 5L31 4L32 4L32 3ZM33 3L33 4L35 4L35 3ZM44 3L44 4L45 4L45 3ZM46 3L46 5L45 5L45 8L44 8L44 6L43 6L43 9L45 9L45 10L46 10L46 11L45 11L45 12L44 12L44 13L43 13L43 12L41 12L41 13L42 13L42 14L43 14L43 15L41 15L41 14L40 14L40 11L42 11L42 10L41 10L41 9L42 9L42 8L41 8L41 9L40 9L40 8L38 8L38 6L39 6L39 7L40 7L40 6L39 6L39 5L38 5L38 4L37 4L37 8L38 8L38 9L37 9L37 10L38 10L38 11L37 11L37 12L36 12L36 9L35 9L35 10L34 10L34 11L35 11L35 12L36 12L36 15L37 15L37 18L38 18L38 20L41 20L41 22L40 22L40 23L42 23L42 24L38 24L38 25L40 25L40 26L38 26L38 28L36 28L36 29L37 29L37 30L38 30L38 31L37 31L37 33L38 33L38 34L40 34L40 33L39 33L39 32L40 32L40 31L41 31L41 33L42 33L42 32L43 32L43 35L41 35L41 36L40 36L40 35L38 35L38 37L39 37L39 38L40 38L40 37L42 37L42 38L43 38L43 37L42 37L42 36L43 36L43 35L45 35L45 34L46 34L46 35L51 35L51 38L48 38L48 39L47 39L47 37L46 37L46 38L45 38L45 36L44 36L44 38L45 38L45 39L47 39L47 40L46 40L46 41L47 41L47 44L48 44L48 45L49 45L49 44L52 44L52 43L53 43L53 44L54 44L54 45L56 45L56 46L53 46L53 48L52 48L52 45L50 45L50 46L49 46L49 47L48 47L48 48L50 48L50 47L51 47L51 50L54 50L54 51L55 51L55 52L52 52L52 51L50 51L50 49L47 49L47 48L46 48L46 50L47 50L47 51L50 51L50 52L52 52L52 53L53 53L53 54L54 54L54 55L57 55L57 53L56 53L56 54L55 54L55 52L57 52L57 49L58 49L58 50L60 50L60 53L61 53L61 50L60 50L60 49L61 49L61 48L60 48L60 41L59 41L59 43L58 43L58 42L57 42L57 41L58 41L58 40L59 40L59 39L58 39L58 40L57 40L57 41L56 41L56 40L55 40L55 35L56 35L56 34L57 34L57 32L58 32L58 34L59 34L59 35L57 35L57 36L56 36L56 39L57 39L57 37L58 37L58 38L59 38L59 37L60 37L60 33L59 33L59 32L61 32L61 30L62 30L62 32L63 32L63 30L64 30L64 29L65 29L65 32L68 32L68 31L67 31L67 30L66 30L66 27L64 27L64 29L63 29L63 27L62 27L62 26L61 26L61 25L58 25L58 23L57 23L57 24L56 24L56 25L53 25L53 24L55 24L55 23L56 23L56 22L59 22L59 21L60 21L60 20L59 20L59 21L57 21L57 20L54 20L54 19L56 19L56 17L55 17L55 13L57 13L57 12L58 12L58 14L57 14L57 15L56 15L56 16L57 16L57 17L58 17L58 16L59 16L59 15L58 15L58 14L59 14L59 12L58 12L58 11L57 11L57 12L56 12L56 11L55 11L55 10L52 10L52 9L50 9L50 10L49 10L49 12L50 12L50 10L52 10L52 11L51 11L51 14L49 14L49 13L47 13L47 12L48 12L48 11L47 11L47 9L46 9L46 8L48 8L48 9L49 9L49 7L50 7L50 6L51 6L51 7L52 7L52 8L53 8L53 9L55 9L55 7L56 7L56 9L58 9L58 10L60 10L60 9L58 9L58 8L57 8L57 7L58 7L58 6L57 6L57 7L56 7L56 6L55 6L55 7L54 7L54 8L53 8L53 7L52 7L52 6L51 6L51 5L50 5L50 6L49 6L49 4L50 4L50 3L49 3L49 4L48 4L48 6L47 6L47 7L46 7L46 5L47 5L47 3ZM60 3L60 5L61 5L61 3ZM33 5L33 8L36 8L36 5ZM34 6L34 7L35 7L35 6ZM41 6L41 7L42 7L42 6ZM48 6L48 7L49 7L49 6ZM0 8L0 9L1 9L1 10L2 10L2 9L4 9L4 8ZM27 8L27 9L28 9L28 8ZM64 8L64 9L63 9L63 11L62 11L62 12L61 12L61 13L62 13L62 16L61 16L61 17L64 17L64 15L65 15L65 17L66 17L66 16L67 16L67 17L68 17L68 18L65 18L65 19L67 19L67 20L66 20L66 21L67 21L67 20L69 20L69 19L68 19L68 18L69 18L69 17L68 17L68 16L67 16L67 15L66 15L66 14L69 14L69 12L68 12L68 11L69 11L69 10L67 10L67 8ZM68 8L68 9L69 9L69 8ZM6 9L6 10L7 10L7 9ZM25 9L25 10L26 10L26 9ZM39 9L39 11L40 11L40 9ZM64 9L64 10L65 10L65 9ZM9 10L9 11L10 11L10 10ZM43 10L43 11L44 11L44 10ZM66 10L66 12L67 12L67 10ZM6 11L6 12L7 12L7 11ZM32 11L32 13L31 13L31 14L30 14L30 15L29 15L29 16L28 16L28 17L30 17L30 18L31 18L31 17L33 17L33 18L32 18L32 19L33 19L33 18L35 18L35 19L34 19L34 20L32 20L32 21L35 21L35 19L36 19L36 18L35 18L35 17L36 17L36 16L35 16L35 15L34 15L34 17L33 17L33 15L32 15L32 16L30 16L30 15L31 15L31 14L32 14L32 13L33 13L33 14L35 14L35 13L34 13L34 12L33 12L33 11ZM46 11L46 12L45 12L45 14L46 14L46 12L47 12L47 11ZM52 11L52 12L53 12L53 11ZM54 11L54 12L55 12L55 11ZM12 12L12 13L13 13L13 12ZM37 12L37 15L38 15L38 17L39 17L39 19L43 19L43 18L44 18L44 20L45 20L45 21L46 21L46 18L47 18L47 21L48 21L48 20L51 20L51 22L50 22L50 21L49 21L49 22L47 22L47 23L46 23L46 25L44 25L44 23L43 23L43 22L44 22L44 21L42 21L42 23L43 23L43 24L42 24L42 25L44 25L44 27L45 27L45 26L46 26L46 27L47 27L47 26L46 26L46 25L47 25L47 24L48 24L48 26L49 26L49 24L50 24L50 27L49 27L49 28L50 28L50 29L51 29L51 31L52 31L52 28L53 28L53 30L54 30L54 31L56 31L56 32L57 32L57 31L58 31L58 32L59 32L59 31L60 31L60 26L58 26L58 25L56 25L56 26L54 26L54 27L53 27L53 26L52 26L52 28L50 28L50 27L51 27L51 24L53 24L53 22L52 22L52 21L54 21L54 23L55 23L55 22L56 22L56 21L54 21L54 20L53 20L53 19L54 19L54 17L53 17L53 18L52 18L52 20L51 20L51 18L50 18L50 19L48 19L48 18L49 18L49 17L47 17L47 16L49 16L49 14L48 14L48 15L47 15L47 16L46 16L46 17L45 17L45 15L44 15L44 16L43 16L43 18L42 18L42 16L41 16L41 17L40 17L40 14L39 14L39 13L38 13L38 12ZM62 12L62 13L63 13L63 14L64 14L64 13L65 13L65 12ZM6 13L6 14L9 14L9 13ZM17 13L17 14L19 14L19 13ZM28 13L28 14L29 14L29 13ZM52 13L52 14L53 14L53 15L54 15L54 14L53 14L53 13ZM38 14L38 15L39 15L39 14ZM8 15L8 16L7 16L7 17L6 17L6 18L7 18L7 19L5 19L5 20L4 20L4 19L3 19L3 20L4 20L4 21L3 21L3 22L2 22L2 25L4 25L4 26L5 26L5 25L6 25L6 26L7 26L7 27L5 27L5 28L4 28L4 29L3 29L3 31L2 31L2 32L5 32L5 31L6 31L6 32L9 32L9 33L10 33L10 35L9 35L9 37L10 37L10 36L14 36L14 35L15 35L15 37L16 37L16 38L17 38L17 36L16 36L16 35L17 35L17 33L19 33L19 34L18 34L18 35L19 35L19 34L21 34L21 32L19 32L19 31L20 31L20 30L21 30L21 29L19 29L19 28L20 28L20 27L19 27L19 28L16 28L16 27L18 27L18 26L19 26L19 25L18 25L18 26L15 26L15 27L14 27L14 25L15 25L15 23L16 23L16 25L17 25L17 24L18 24L18 23L17 23L17 21L15 21L15 19L16 19L16 20L17 20L17 19L16 19L16 18L15 18L15 17L14 17L14 19L13 19L13 18L12 18L12 17L10 17L10 16L9 16L9 15ZM51 15L51 17L52 17L52 15ZM8 16L8 17L7 17L7 18L8 18L8 17L9 17L9 19L12 19L12 18L10 18L10 17L9 17L9 16ZM44 17L44 18L45 18L45 17ZM7 19L7 20L5 20L5 22L6 22L6 23L7 23L7 22L6 22L6 21L9 21L9 20L8 20L8 19ZM12 20L12 21L13 21L13 20ZM18 20L18 21L19 21L19 20ZM36 20L36 21L37 21L37 20ZM10 21L10 22L8 22L8 24L6 24L6 25L7 25L7 26L8 26L8 27L7 27L7 28L6 28L6 29L5 29L5 30L4 30L4 31L5 31L5 30L6 30L6 31L7 31L7 30L6 30L6 29L7 29L7 28L9 28L9 29L10 29L10 30L8 30L8 31L10 31L10 33L11 33L11 32L13 32L13 34L15 34L15 33L17 33L17 32L15 32L15 31L17 31L17 30L18 30L18 31L19 31L19 30L18 30L18 29L16 29L16 28L15 28L15 29L14 29L14 30L13 30L13 31L12 31L12 30L11 30L11 29L10 29L10 28L12 28L12 29L13 29L13 28L14 28L14 27L13 27L13 25L12 25L12 27L11 27L11 24L12 24L12 22L11 22L11 21ZM22 21L22 22L23 22L23 21ZM10 22L10 24L8 24L8 26L10 26L10 24L11 24L11 22ZM13 22L13 23L15 23L15 22ZM24 22L24 23L26 23L26 22ZM35 22L35 24L36 24L36 23L38 23L38 22ZM64 22L64 23L65 23L65 24L66 24L66 23L65 23L65 22ZM67 22L67 23L69 23L69 22ZM4 23L4 24L5 24L5 23ZM50 23L50 24L51 24L51 23ZM67 24L67 25L69 25L69 24ZM24 25L24 27L25 27L25 25ZM41 26L41 27L42 27L42 28L41 28L41 29L39 29L39 28L38 28L38 29L39 29L39 31L40 31L40 30L41 30L41 29L42 29L42 28L43 28L43 29L45 29L45 31L47 31L47 34L50 34L50 33L52 33L52 34L51 34L51 35L52 35L52 34L53 34L53 35L54 35L54 34L55 34L55 33L53 33L53 32L50 32L50 30L49 30L49 29L46 29L46 28L43 28L43 27L42 27L42 26ZM56 26L56 27L55 27L55 28L54 28L54 30L55 30L55 28L57 28L57 29L56 29L56 31L57 31L57 29L58 29L58 26ZM9 27L9 28L10 28L10 27ZM12 27L12 28L13 28L13 27ZM67 28L67 29L68 29L68 28ZM24 29L24 30L27 30L27 29ZM32 30L32 31L33 31L33 30ZM43 30L43 31L44 31L44 30ZM58 30L58 31L59 31L59 30ZM25 31L25 32L24 32L24 33L25 33L25 34L24 34L24 36L23 36L23 35L20 35L20 36L22 36L22 37L23 37L23 39L22 39L22 38L21 38L21 41L19 41L19 38L20 38L20 37L19 37L19 38L18 38L18 39L15 39L15 40L14 40L14 41L13 41L13 42L12 42L12 43L14 43L14 44L16 44L16 48L14 48L14 47L15 47L15 46L14 46L14 47L13 47L13 44L12 44L12 46L11 46L11 47L10 47L10 46L8 46L8 45L6 45L6 44L7 44L7 43L5 43L5 42L7 42L7 41L8 41L8 44L9 44L9 43L11 43L11 42L9 42L9 41L8 41L8 40L9 40L9 38L8 38L8 37L6 37L6 38L5 38L5 37L4 37L4 36L3 36L3 37L4 37L4 40L5 40L5 39L6 39L6 40L7 40L7 41L5 41L5 42L4 42L4 44L3 44L3 43L2 43L2 44L1 44L1 46L2 46L2 47L1 47L1 49L2 49L2 48L3 48L3 47L4 47L4 45L5 45L5 46L7 46L7 47L6 47L6 48L4 48L4 50L5 50L5 51L4 51L4 52L5 52L5 51L6 51L6 52L8 52L8 51L11 51L11 48L14 48L14 49L12 49L12 51L13 51L13 54L14 54L14 52L15 52L15 51L16 51L16 50L17 50L17 49L16 49L16 48L18 48L18 51L19 51L19 49L20 49L20 50L21 50L21 51L22 51L22 50L21 50L21 48L22 48L22 49L23 49L23 51L24 51L24 52L26 52L26 51L27 51L27 50L30 50L30 48L27 48L27 47L29 47L29 45L27 45L27 44L24 44L24 43L26 43L26 42L27 42L27 41L25 41L25 37L24 37L24 36L25 36L25 35L26 35L26 37L28 37L28 38L29 38L29 36L32 36L32 32L31 32L31 31L29 31L29 32L30 32L30 33L29 33L29 34L30 34L30 33L31 33L31 35L28 35L28 31ZM48 31L48 33L49 33L49 31ZM26 32L26 33L27 33L27 32ZM5 33L5 36L8 36L8 33ZM22 33L22 34L23 34L23 33ZM33 33L33 36L36 36L36 33ZM44 33L44 34L45 34L45 33ZM61 33L61 36L64 36L64 33ZM65 33L65 34L68 34L68 33ZM6 34L6 35L7 35L7 34ZM26 34L26 35L27 35L27 36L28 36L28 35L27 35L27 34ZM34 34L34 35L35 35L35 34ZM62 34L62 35L63 35L63 34ZM66 35L66 36L67 36L67 35ZM49 36L49 37L50 37L50 36ZM12 37L12 38L10 38L10 39L11 39L11 41L12 41L12 38L14 38L14 37ZM52 37L52 38L53 38L53 37ZM6 38L6 39L8 39L8 38ZM2 39L2 40L3 40L3 39ZM23 39L23 41L21 41L21 42L25 42L25 41L24 41L24 39ZM52 39L52 40L50 40L50 41L52 41L52 42L51 42L51 43L52 43L52 42L54 42L54 41L55 41L55 40L54 40L54 39ZM15 40L15 41L14 41L14 42L15 42L15 41L16 41L16 42L17 42L17 43L18 43L18 44L17 44L17 46L18 46L18 48L20 48L20 47L21 47L21 46L22 46L22 47L23 47L23 46L26 46L26 47L27 47L27 45L24 45L24 44L23 44L23 43L20 43L20 42L17 42L17 41L16 41L16 40ZM30 40L30 41L31 41L31 40ZM52 40L52 41L53 41L53 40ZM63 40L63 41L64 41L64 40ZM48 41L48 44L49 44L49 41ZM45 42L45 43L46 43L46 42ZM55 42L55 43L54 43L54 44L57 44L57 45L58 45L58 43L56 43L56 42ZM68 43L68 44L69 44L69 43ZM2 44L2 46L3 46L3 44ZM10 44L10 45L11 45L11 44ZM18 44L18 45L20 45L20 46L21 46L21 44ZM35 44L35 45L36 45L36 44ZM41 45L41 47L42 47L42 45ZM36 46L36 47L37 47L37 46ZM57 46L57 47L56 47L56 48L55 48L55 47L54 47L54 49L55 49L55 50L56 50L56 48L57 48L57 47L58 47L58 48L59 48L59 47L58 47L58 46ZM66 46L66 48L64 48L64 52L63 52L63 53L65 53L65 51L66 51L66 50L65 50L65 49L67 49L67 48L68 48L68 47L67 47L67 46ZM6 48L6 49L7 49L7 50L6 50L6 51L7 51L7 50L9 50L9 49L10 49L10 48L9 48L9 49L8 49L8 48ZM23 48L23 49L25 49L25 50L24 50L24 51L26 51L26 50L27 50L27 49L25 49L25 48ZM62 48L62 49L63 49L63 48ZM15 49L15 50L16 50L16 49ZM13 50L13 51L14 51L14 50ZM62 50L62 51L63 51L63 50ZM2 51L2 52L1 52L1 53L3 53L3 55L5 55L5 56L7 56L7 57L6 57L6 58L8 58L8 55L5 55L5 54L4 54L4 53L3 53L3 51ZM28 51L28 52L29 52L29 54L28 54L28 53L24 53L24 54L23 54L23 56L22 56L22 54L21 54L21 53L20 53L20 52L17 52L17 55L14 55L14 56L15 56L15 57L14 57L14 58L13 58L13 60L12 60L12 61L13 61L13 63L14 63L14 61L15 61L15 60L14 60L14 58L15 58L15 59L16 59L16 62L15 62L15 63L16 63L16 65L17 65L17 63L20 63L20 64L22 64L22 65L20 65L20 67L19 67L19 64L18 64L18 67L19 67L19 68L20 68L20 67L21 67L21 68L22 68L22 67L23 67L23 66L22 66L22 65L23 65L23 63L22 63L22 62L23 62L23 60L24 60L24 63L25 63L25 64L24 64L24 66L25 66L25 64L26 64L26 62L25 62L25 59L29 59L29 60L28 60L28 62L29 62L29 63L30 63L30 62L32 62L32 61L29 61L29 60L31 60L31 59L32 59L32 60L35 60L35 58L36 58L36 60L37 60L37 58L36 58L36 57L38 57L38 58L39 58L39 60L38 60L38 61L39 61L39 60L40 60L40 58L39 58L39 57L38 57L38 56L37 56L37 55L34 55L34 54L33 54L33 56L36 56L36 57L33 57L33 58L32 58L32 54L31 54L31 52L29 52L29 51ZM45 51L45 53L46 53L46 51ZM22 52L22 53L23 53L23 52ZM47 52L47 54L48 54L48 53L49 53L49 55L50 55L50 54L51 54L51 53L49 53L49 52ZM58 52L58 53L59 53L59 52ZM67 52L67 53L68 53L68 52ZM15 53L15 54L16 54L16 53ZM18 53L18 56L16 56L16 59L17 59L17 60L18 60L18 62L19 62L19 61L20 61L20 63L21 63L21 60L23 60L23 59L22 59L22 56L21 56L21 59L20 59L20 57L18 57L18 56L19 56L19 53ZM26 54L26 55L24 55L24 56L23 56L23 57L24 57L24 58L27 58L27 57L29 57L29 59L30 59L30 58L31 58L31 57L29 57L29 56L27 56L27 54ZM30 54L30 55L31 55L31 54ZM59 54L59 55L61 55L61 54ZM2 56L2 58L3 58L3 57L4 57L4 56ZM24 56L24 57L25 57L25 56ZM26 56L26 57L27 57L27 56ZM45 56L45 57L46 57L46 56ZM62 56L62 57L63 57L63 56ZM33 58L33 59L34 59L34 58ZM44 58L44 59L43 59L43 61L44 61L44 62L43 62L43 63L44 63L44 64L43 64L43 65L45 65L45 63L46 63L46 60L45 60L45 58ZM18 59L18 60L20 60L20 59ZM61 59L61 60L63 60L63 59ZM66 59L66 60L67 60L67 61L68 61L68 60L67 60L67 59ZM3 60L3 61L5 61L5 60ZM8 60L8 61L9 61L9 60ZM26 60L26 61L27 61L27 60ZM44 60L44 61L45 61L45 60ZM33 61L33 64L36 64L36 61ZM61 61L61 64L64 64L64 61ZM11 62L11 63L12 63L12 62ZM16 62L16 63L17 63L17 62ZM34 62L34 63L35 63L35 62ZM44 62L44 63L45 63L45 62ZM57 62L57 63L58 63L58 62ZM62 62L62 63L63 63L63 62ZM38 63L38 64L39 64L39 63ZM67 64L67 65L68 65L68 64ZM8 65L8 69L9 69L9 65ZM36 65L36 66L37 66L37 65ZM38 65L38 66L39 66L39 67L40 67L40 66L39 66L39 65ZM47 65L47 68L48 68L48 65ZM62 65L62 67L63 67L63 68L64 68L64 67L63 67L63 65ZM10 66L10 69L12 69L12 68L11 68L11 66ZM14 66L14 67L15 67L15 68L16 68L16 67L17 67L17 66ZM21 66L21 67L22 67L22 66ZM44 66L44 67L45 67L45 66ZM58 66L58 67L59 67L59 66ZM52 67L52 68L53 68L53 67ZM68 67L68 68L69 68L69 67ZM24 68L24 69L25 69L25 68ZM66 68L66 69L67 69L67 68ZM0 0L0 7L7 7L7 0ZM1 1L1 6L6 6L6 1ZM2 2L2 5L5 5L5 2ZM62 0L62 7L69 7L69 0ZM63 1L63 6L68 6L68 1ZM64 2L64 5L67 5L67 2ZM0 62L0 69L7 69L7 62ZM1 63L1 68L6 68L6 63ZM2 64L2 67L5 67L5 64Z" fill="#000000"/></g></g></svg>
