<?xml version="1.0" encoding="UTF-8"?>
<svg xmlns="http://www.w3.org/2000/svg" version="1.1" width="300" height="300" viewBox="0 0 300 300"><rect x="0" y="0" width="300" height="300" fill="#ffffff"/><g transform="scale(4.348)"><g transform="translate(0,0)"><path fill-rule="evenodd" d="M8 0L8 4L9 4L9 5L8 5L8 7L9 7L9 5L12 5L12 3L11 3L11 2L13 2L13 0L12 0L12 1L11 1L11 2L10 2L10 0ZM14 0L14 2L15 2L15 4L14 4L14 7L13 7L13 6L12 6L12 8L13 8L13 9L15 9L15 10L11 10L11 11L12 11L12 12L10 12L10 11L9 11L9 9L8 9L8 10L6 10L6 11L4 11L4 12L1 12L1 15L0 15L0 18L1 18L1 20L0 20L0 22L3 22L3 21L1 21L1 20L2 20L2 18L3 18L3 20L4 20L4 19L5 19L5 22L4 22L4 23L5 23L5 24L6 24L6 25L7 25L7 26L6 26L6 27L7 27L7 28L3 28L3 30L2 30L2 29L1 29L1 28L0 28L0 31L1 31L1 30L2 30L2 31L3 31L3 30L4 30L4 31L5 31L5 32L0 32L0 35L2 35L2 37L0 37L0 38L2 38L2 37L3 37L3 36L4 36L4 37L5 37L5 41L7 41L7 42L6 42L6 43L8 43L8 44L6 44L6 45L8 45L8 46L9 46L9 45L10 45L10 47L9 47L9 48L8 48L8 49L7 49L7 48L6 48L6 49L5 49L5 48L4 48L4 46L5 46L5 47L7 47L7 46L5 46L5 45L2 45L2 44L1 44L1 42L0 42L0 46L1 46L1 45L2 45L2 46L3 46L3 47L1 47L1 48L2 48L2 49L1 49L1 51L0 51L0 52L1 52L1 53L3 53L3 54L2 54L2 57L0 57L0 61L1 61L1 58L2 58L2 59L3 59L3 58L4 58L4 59L7 59L7 60L6 60L6 61L7 61L7 60L8 60L8 62L12 62L12 61L14 61L14 62L16 62L16 60L15 60L15 59L16 59L16 58L18 58L18 59L20 59L20 58L21 58L21 59L22 59L22 60L23 60L23 61L20 61L20 62L21 62L21 64L20 64L20 65L19 65L19 64L18 64L18 65L17 65L17 66L16 66L16 65L15 65L15 66L16 66L16 68L15 68L15 67L14 67L14 65L13 65L13 64L12 64L12 63L8 63L8 65L10 65L10 66L9 66L9 67L8 67L8 69L13 69L13 68L15 68L15 69L16 69L16 68L17 68L17 69L19 69L19 68L18 68L18 67L20 67L20 66L21 66L21 67L22 67L22 68L23 68L23 69L24 69L24 68L25 68L25 69L27 69L27 68L25 68L25 67L26 67L26 66L27 66L27 67L28 67L28 66L29 66L29 65L30 65L30 66L31 66L31 67L30 67L30 68L29 68L29 69L31 69L31 68L32 68L32 69L35 69L35 67L34 67L34 68L32 68L32 67L33 67L33 66L32 66L32 65L36 65L36 66L37 66L37 67L39 67L39 68L38 68L38 69L40 69L40 68L41 68L41 69L42 69L42 67L43 67L43 63L42 63L42 62L43 62L43 61L42 61L42 58L45 58L45 59L44 59L44 61L45 61L45 62L44 62L44 69L46 69L46 67L45 67L45 63L46 63L46 64L47 64L47 66L48 66L48 65L50 65L50 66L49 66L49 67L48 67L48 69L49 69L49 67L50 67L50 66L51 66L51 69L52 69L52 68L54 68L54 69L55 69L55 68L56 68L56 69L59 69L59 68L60 68L60 67L59 67L59 68L58 68L58 67L57 67L57 68L56 68L56 67L55 67L55 68L54 68L54 66L55 66L55 64L56 64L56 66L57 66L57 65L58 65L58 64L59 64L59 63L57 63L57 62L58 62L58 59L59 59L59 60L60 60L60 65L59 65L59 66L61 66L61 68L62 68L62 69L64 69L64 68L65 68L65 63L66 63L66 62L67 62L67 63L68 63L68 65L66 65L66 67L67 67L67 66L69 66L69 63L68 63L68 62L69 62L69 61L68 61L68 60L66 60L66 61L65 61L65 58L66 58L66 57L65 57L65 56L64 56L64 55L68 55L68 56L67 56L67 59L68 59L68 57L69 57L69 55L68 55L68 53L69 53L69 52L68 52L68 50L67 50L67 54L64 54L64 53L63 53L63 52L65 52L65 53L66 53L66 51L64 51L64 48L65 48L65 47L66 47L66 46L67 46L67 48L68 48L68 49L69 49L69 47L68 47L68 46L67 46L67 45L69 45L69 44L68 44L68 42L69 42L69 41L68 41L68 40L69 40L69 39L68 39L68 38L69 38L69 35L68 35L68 33L69 33L69 32L68 32L68 33L66 33L66 32L63 32L63 31L62 31L62 30L64 30L64 31L68 31L68 30L69 30L69 28L68 28L68 25L67 25L67 24L69 24L69 23L68 23L68 22L69 22L69 20L68 20L68 18L67 18L67 17L68 17L68 16L66 16L66 17L64 17L64 16L65 16L65 15L64 15L64 14L63 14L63 13L62 13L62 12L63 12L63 11L65 11L65 10L66 10L66 11L68 11L68 10L69 10L69 8L65 8L65 10L63 10L63 9L64 9L64 8L63 8L63 9L62 9L62 10L63 10L63 11L62 11L62 12L61 12L61 13L59 13L59 14L58 14L58 11L55 11L55 13L53 13L53 14L54 14L54 15L52 15L52 16L51 16L51 17L50 17L50 23L48 23L48 25L47 25L47 22L46 22L46 21L49 21L49 19L48 19L48 18L47 18L47 19L46 19L46 17L49 17L49 16L46 16L46 15L51 15L51 13L52 13L52 11L53 11L53 10L56 10L56 9L57 9L57 8L58 8L58 9L59 9L59 11L61 11L61 6L60 6L60 7L59 7L59 4L58 4L58 7L57 7L57 5L56 5L56 2L57 2L57 3L59 3L59 2L57 2L57 1L61 1L61 0L53 0L53 1L56 1L56 2L55 2L55 4L54 4L54 3L53 3L53 2L52 2L52 1L51 1L51 0L50 0L50 1L49 1L49 0L48 0L48 1L49 1L49 2L48 2L48 3L49 3L49 4L48 4L48 5L47 5L47 6L46 6L46 7L45 7L45 6L44 6L44 5L46 5L46 4L47 4L47 2L46 2L46 3L45 3L45 1L46 1L46 0L45 0L45 1L44 1L44 0L41 0L41 1L40 1L40 0L38 0L38 1L40 1L40 5L39 5L39 4L38 4L38 3L37 3L37 4L36 4L36 3L35 3L35 2L37 2L37 1L35 1L35 0L34 0L34 3L33 3L33 4L32 4L32 5L31 5L31 4L30 4L30 5L28 5L28 4L29 4L29 3L31 3L31 2L32 2L32 1L33 1L33 0L32 0L32 1L31 1L31 0L30 0L30 2L29 2L29 0L23 0L23 1L22 1L22 0L17 0L17 1L16 1L16 2L15 2L15 0ZM17 1L17 2L18 2L18 1ZM19 1L19 3L17 3L17 4L18 4L18 5L17 5L17 7L16 7L16 6L15 6L15 7L14 7L14 8L15 8L15 9L17 9L17 7L18 7L18 5L19 5L19 10L15 10L15 11L17 11L17 12L16 12L16 13L17 13L17 15L18 15L18 13L17 13L17 12L18 12L18 11L20 11L20 12L19 12L19 13L21 13L21 14L20 14L20 15L19 15L19 16L18 16L18 17L17 17L17 18L16 18L16 16L15 16L15 15L16 15L16 14L15 14L15 15L14 15L14 16L15 16L15 19L14 19L14 20L13 20L13 19L11 19L11 18L12 18L12 17L11 17L11 16L12 16L12 15L13 15L13 14L14 14L14 13L15 13L15 12L12 12L12 13L10 13L10 12L9 12L9 11L8 11L8 12L7 12L7 11L6 11L6 12L7 12L7 13L6 13L6 14L5 14L5 15L6 15L6 16L7 16L7 17L5 17L5 18L7 18L7 17L8 17L8 19L6 19L6 20L8 20L8 19L10 19L10 20L9 20L9 21L11 21L11 20L12 20L12 21L14 21L14 20L17 20L17 18L18 18L18 20L19 20L19 22L18 22L18 21L17 21L17 23L16 23L16 24L15 24L15 23L14 23L14 22L11 22L11 23L13 23L13 24L15 24L15 25L17 25L17 24L19 24L19 25L18 25L18 26L16 26L16 27L15 27L15 29L14 29L14 28L13 28L13 27L12 27L12 26L10 26L10 25L11 25L11 24L10 24L10 25L8 25L8 24L9 24L9 23L10 23L10 22L9 22L9 23L8 23L8 21L6 21L6 22L5 22L5 23L6 23L6 24L7 24L7 25L8 25L8 26L7 26L7 27L8 27L8 29L6 29L6 30L7 30L7 31L6 31L6 32L7 32L7 31L8 31L8 32L9 32L9 33L11 33L11 34L12 34L12 35L11 35L11 36L12 36L12 37L10 37L10 34L9 34L9 38L8 38L8 40L7 40L7 39L6 39L6 40L7 40L7 41L8 41L8 42L9 42L9 43L11 43L11 42L13 42L13 43L12 43L12 44L11 44L11 45L12 45L12 44L13 44L13 43L14 43L14 42L13 42L13 41L15 41L15 43L16 43L16 42L17 42L17 39L18 39L18 40L19 40L19 39L20 39L20 37L23 37L23 36L24 36L24 37L25 37L25 39L24 39L24 40L22 40L22 39L21 39L21 41L22 41L22 42L20 42L20 41L19 41L19 42L20 42L20 43L19 43L19 48L18 48L18 49L15 49L15 52L13 52L13 51L14 51L14 50L13 50L13 51L12 51L12 50L10 50L10 51L8 51L8 52L7 52L7 51L4 51L4 50L5 50L5 49L4 49L4 50L3 50L3 52L4 52L4 54L5 54L5 53L6 53L6 54L8 54L8 55L10 55L10 51L11 51L11 53L12 53L12 55L11 55L11 56L12 56L12 55L14 55L14 53L16 53L16 55L15 55L15 56L14 56L14 57L13 57L13 60L14 60L14 57L17 57L17 56L16 56L16 55L17 55L17 54L18 54L18 53L16 53L16 50L17 50L17 52L18 52L18 49L19 49L19 51L20 51L20 50L21 50L21 49L19 49L19 48L20 48L20 47L22 47L22 50L23 50L23 49L24 49L24 48L23 48L23 47L26 47L26 48L28 48L28 49L27 49L27 50L26 50L26 49L25 49L25 50L26 50L26 52L25 52L25 51L22 51L22 54L20 54L20 53L19 53L19 54L20 54L20 56L19 56L19 55L18 55L18 56L19 56L19 57L21 57L21 58L23 58L23 59L24 59L24 61L26 61L26 62L27 62L27 64L26 64L26 63L25 63L25 65L29 65L29 64L28 64L28 63L29 63L29 60L28 60L28 59L27 59L27 60L28 60L28 62L27 62L27 61L26 61L26 58L24 58L24 57L21 57L21 55L22 55L22 56L23 56L23 55L24 55L24 56L25 56L25 57L26 57L26 56L27 56L27 57L28 57L28 58L29 58L29 59L30 59L30 60L31 60L31 59L32 59L32 60L34 60L34 59L33 59L33 58L34 58L34 57L35 57L35 58L36 58L36 59L35 59L35 60L38 60L38 61L37 61L37 62L38 62L38 64L37 64L37 65L38 65L38 64L39 64L39 63L40 63L40 66L39 66L39 67L41 67L41 63L40 63L40 62L41 62L41 60L39 60L39 58L40 58L40 59L41 59L41 58L40 58L40 57L41 57L41 56L42 56L42 57L44 57L44 54L45 54L45 53L46 53L46 54L48 54L48 55L49 55L49 57L46 57L46 58L47 58L47 59L49 59L49 60L50 60L50 61L49 61L49 63L48 63L48 64L49 64L49 63L51 63L51 62L52 62L52 65L51 65L51 64L50 64L50 65L51 65L51 66L52 66L52 65L53 65L53 62L52 62L52 61L53 61L53 60L54 60L54 61L55 61L55 62L54 62L54 64L55 64L55 63L56 63L56 64L57 64L57 63L56 63L56 60L57 60L57 59L58 59L58 58L62 58L62 59L63 59L63 60L64 60L64 59L63 59L63 57L64 57L64 58L65 58L65 57L64 57L64 56L63 56L63 57L62 57L62 56L61 56L61 57L60 57L60 56L57 56L57 57L58 57L58 58L56 58L56 54L57 54L57 53L58 53L58 55L59 55L59 54L62 54L62 55L64 55L64 54L63 54L63 53L61 53L61 52L60 52L60 51L61 51L61 50L62 50L62 51L63 51L63 50L62 50L62 49L61 49L61 48L62 48L62 47L64 47L64 46L66 46L66 44L67 44L67 43L63 43L63 42L62 42L62 45L63 45L63 44L64 44L64 46L62 46L62 47L59 47L59 49L58 49L58 46L61 46L61 45L60 45L60 43L59 43L59 41L60 41L60 42L61 42L61 41L62 41L62 40L59 40L59 39L60 39L60 36L59 36L59 37L58 37L58 36L57 36L57 35L58 35L58 34L59 34L59 35L60 35L60 32L61 32L61 31L60 31L60 32L59 32L59 31L58 31L58 30L59 30L59 29L58 29L58 28L59 28L59 25L58 25L58 27L56 27L56 26L55 26L55 27L54 27L54 29L55 29L55 30L56 30L56 28L57 28L57 29L58 29L58 30L57 30L57 32L59 32L59 33L58 33L58 34L56 34L56 33L55 33L55 31L53 31L53 32L52 32L52 33L51 33L51 34L50 34L50 33L49 33L49 34L47 34L47 33L46 33L46 32L49 32L49 31L51 31L51 30L50 30L50 29L51 29L51 27L50 27L50 25L51 25L51 24L52 24L52 25L53 25L53 24L52 24L52 22L53 22L53 23L54 23L54 24L55 24L55 25L56 25L56 24L57 24L57 23L59 23L59 20L60 20L60 21L61 21L61 22L62 22L62 25L61 25L61 26L62 26L62 25L63 25L63 26L64 26L64 30L68 30L68 28L67 28L67 26L64 26L64 25L65 25L65 24L67 24L67 23L65 23L65 21L66 21L66 20L67 20L67 22L68 22L68 20L67 20L67 18L66 18L66 19L65 19L65 20L64 20L64 17L63 17L63 19L62 19L62 15L63 15L63 14L62 14L62 13L61 13L61 16L59 16L59 15L58 15L58 16L59 16L59 17L58 17L58 18L59 18L59 17L61 17L61 18L60 18L60 19L57 19L57 18L56 18L56 13L55 13L55 16L54 16L54 17L55 17L55 18L54 18L54 19L57 19L57 20L58 20L58 22L56 22L56 23L55 23L55 22L53 22L53 21L55 21L55 20L53 20L53 18L52 18L52 17L53 17L53 16L52 16L52 17L51 17L51 20L52 20L52 22L51 22L51 23L50 23L50 25L48 25L48 27L49 27L49 28L50 28L50 29L48 29L48 30L47 30L47 29L46 29L46 30L45 30L45 29L44 29L44 28L45 28L45 27L43 27L43 26L41 26L41 25L42 25L42 24L43 24L43 25L44 25L44 24L45 24L45 23L44 23L44 20L46 20L46 19L44 19L44 18L41 18L41 17L42 17L42 16L40 16L40 19L39 19L39 18L38 18L38 17L39 17L39 16L38 16L38 15L42 15L42 13L43 13L43 12L42 12L42 10L40 10L40 9L43 9L43 11L46 11L46 12L45 12L45 13L44 13L44 15L43 15L43 17L44 17L44 15L46 15L46 14L47 14L47 11L46 11L46 10L47 10L47 8L49 8L49 7L50 7L50 8L51 8L51 7L52 7L52 3L51 3L51 1L50 1L50 3L51 3L51 5L50 5L50 4L49 4L49 5L48 5L48 6L47 6L47 8L45 8L45 7L44 7L44 6L43 6L43 8L40 8L40 9L39 9L39 10L38 10L38 9L37 9L37 12L36 12L36 13L33 13L33 15L31 15L31 13L32 13L32 12L33 12L33 11L34 11L34 10L35 10L35 11L36 11L36 9L33 9L33 10L32 10L32 11L30 11L30 9L31 9L31 8L32 8L32 6L31 6L31 5L30 5L30 6L29 6L29 7L28 7L28 5L26 5L26 4L27 4L27 3L29 3L29 2L28 2L28 1L23 1L23 2L22 2L22 1L21 1L21 2L20 2L20 1ZM41 1L41 3L42 3L42 4L43 4L43 5L44 5L44 4L45 4L45 3L44 3L44 2L42 2L42 1ZM21 2L21 3L19 3L19 4L20 4L20 7L21 7L21 3L22 3L22 5L23 5L23 6L22 6L22 8L24 8L24 9L23 9L23 10L22 10L22 9L21 9L21 8L20 8L20 11L21 11L21 13L22 13L22 11L24 11L24 13L23 13L23 14L22 14L22 15L20 15L20 16L19 16L19 17L18 17L18 18L19 18L19 17L21 17L21 18L20 18L20 19L19 19L19 20L20 20L20 24L21 24L21 25L19 25L19 26L18 26L18 27L17 27L17 31L18 31L18 29L19 29L19 28L20 28L20 30L19 30L19 32L18 32L18 33L17 33L17 34L16 34L16 29L15 29L15 30L14 30L14 31L15 31L15 32L13 32L13 29L12 29L12 28L11 28L11 27L10 27L10 26L9 26L9 29L8 29L8 31L9 31L9 30L10 30L10 31L11 31L11 32L13 32L13 33L15 33L15 34L16 34L16 35L15 35L15 36L13 36L13 35L14 35L14 34L13 34L13 35L12 35L12 36L13 36L13 37L12 37L12 38L9 38L9 39L10 39L10 40L11 40L11 41L9 41L9 40L8 40L8 41L9 41L9 42L11 42L11 41L12 41L12 40L15 40L15 41L16 41L16 40L15 40L15 38L16 38L16 36L17 36L17 37L18 37L18 38L19 38L19 35L20 35L20 34L21 34L21 35L22 35L22 36L23 36L23 35L22 35L22 34L21 34L21 33L22 33L22 32L23 32L23 34L24 34L24 35L25 35L25 34L26 34L26 37L27 37L27 38L26 38L26 39L25 39L25 40L24 40L24 41L23 41L23 43L24 43L24 44L23 44L23 45L22 45L22 43L21 43L21 44L20 44L20 46L21 46L21 45L22 45L22 46L25 46L25 44L26 44L26 45L30 45L30 46L29 46L29 47L28 47L28 48L29 48L29 49L30 49L30 50L28 50L28 51L27 51L27 52L26 52L26 54L25 54L25 52L23 52L23 54L25 54L25 55L27 55L27 53L29 53L29 54L28 54L28 55L30 55L30 54L31 54L31 53L33 53L33 55L32 55L32 56L30 56L30 57L29 57L29 58L30 58L30 59L31 59L31 57L32 57L32 58L33 58L33 57L34 57L34 55L35 55L35 54L34 54L34 53L33 53L33 52L29 52L29 51L31 51L31 49L32 49L32 51L34 51L34 52L35 52L35 51L36 51L36 49L35 49L35 50L33 50L33 49L34 49L34 48L35 48L35 47L36 47L36 48L37 48L37 49L38 49L38 50L39 50L39 51L37 51L37 52L36 52L36 54L37 54L37 53L38 53L38 52L39 52L39 55L37 55L37 56L39 56L39 57L38 57L38 58L37 58L37 57L36 57L36 58L37 58L37 59L38 59L38 58L39 58L39 57L40 57L40 54L41 54L41 53L42 53L42 55L43 55L43 54L44 54L44 53L45 53L45 50L46 50L46 51L47 51L47 50L46 50L46 49L45 49L45 48L47 48L47 49L50 49L50 50L51 50L51 51L53 51L53 53L54 53L54 55L53 55L53 56L54 56L54 57L53 57L53 58L52 58L52 55L51 55L51 54L52 54L52 53L50 53L50 58L49 58L49 59L50 59L50 60L51 60L51 59L50 59L50 58L52 58L52 59L53 59L53 58L54 58L54 59L55 59L55 60L56 60L56 58L55 58L55 54L56 54L56 53L57 53L57 52L58 52L58 53L59 53L59 50L58 50L58 49L57 49L57 48L56 48L56 47L57 47L57 46L58 46L58 45L57 45L57 43L56 43L56 47L55 47L55 48L56 48L56 49L54 49L54 46L55 46L55 44L54 44L54 45L53 45L53 46L52 46L52 48L51 48L51 49L50 49L50 47L51 47L51 45L52 45L52 44L53 44L53 43L55 43L55 41L51 41L51 39L53 39L53 40L55 40L55 39L56 39L56 37L57 37L57 39L58 39L58 37L57 37L57 36L56 36L56 34L55 34L55 33L54 33L54 35L55 35L55 36L54 36L54 37L52 37L52 36L53 36L53 33L52 33L52 36L50 36L50 34L49 34L49 36L47 36L47 34L46 34L46 33L45 33L45 31L44 31L44 29L43 29L43 28L42 28L42 27L40 27L40 24L41 24L41 22L43 22L43 21L42 21L42 20L41 20L41 19L40 19L40 20L39 20L39 19L37 19L37 21L38 21L38 20L39 20L39 21L40 21L40 22L39 22L39 25L38 25L38 23L37 23L37 24L36 24L36 25L35 25L35 26L34 26L34 28L35 28L35 27L36 27L36 26L37 26L37 28L36 28L36 29L33 29L33 31L34 31L34 30L36 30L36 29L37 29L37 28L38 28L38 31L37 31L37 32L32 32L32 31L29 31L29 30L31 30L31 29L32 29L32 28L33 28L33 27L30 27L30 26L31 26L31 25L32 25L32 26L33 26L33 25L34 25L34 24L35 24L35 23L34 23L34 22L33 22L33 23L34 23L34 24L33 24L33 25L32 25L32 22L31 22L31 24L30 24L30 25L29 25L29 26L28 26L28 21L33 21L33 20L32 20L32 19L31 19L31 17L32 17L32 16L31 16L31 15L30 15L30 16L29 16L29 18L28 18L28 19L26 19L26 18L27 18L27 17L28 17L28 15L29 15L29 14L30 14L30 13L31 13L31 12L30 12L30 11L28 11L28 9L27 9L27 8L28 8L28 7L27 7L27 6L26 6L26 5L25 5L25 4L26 4L26 3L27 3L27 2L26 2L26 3L24 3L24 2L23 2L23 3L22 3L22 2ZM23 3L23 5L24 5L24 3ZM34 3L34 4L35 4L35 3ZM43 3L43 4L44 4L44 3ZM60 3L60 5L61 5L61 3ZM33 5L33 8L36 8L36 5ZM37 5L37 7L38 7L38 8L39 8L39 7L40 7L40 6L41 6L41 7L42 7L42 6L41 6L41 5L40 5L40 6L39 6L39 7L38 7L38 5ZM10 6L10 8L11 8L11 6ZM23 6L23 7L24 7L24 6ZM25 6L25 9L24 9L24 10L26 10L26 6ZM30 6L30 7L29 7L29 9L30 9L30 8L31 8L31 6ZM34 6L34 7L35 7L35 6ZM48 6L48 7L49 7L49 6ZM50 6L50 7L51 7L51 6ZM53 6L53 7L54 7L54 6ZM55 6L55 8L54 8L54 9L56 9L56 6ZM15 7L15 8L16 8L16 7ZM0 8L0 10L1 10L1 9L2 9L2 10L5 10L5 9L7 9L7 8L4 8L4 9L2 9L2 8ZM44 8L44 9L45 9L45 10L46 10L46 9L45 9L45 8ZM52 8L52 10L50 10L50 9L49 9L49 11L52 11L52 10L53 10L53 8ZM59 8L59 9L60 9L60 8ZM67 9L67 10L68 10L68 9ZM25 11L25 13L26 13L26 14L25 14L25 15L24 15L24 17L23 17L23 15L22 15L22 18L21 18L21 20L22 20L22 22L21 22L21 23L22 23L22 24L23 24L23 23L25 23L25 25L26 25L26 26L27 26L27 27L26 27L26 28L25 28L25 26L24 26L24 25L21 25L21 26L22 26L22 29L21 29L21 31L20 31L20 32L19 32L19 33L20 33L20 32L21 32L21 31L22 31L22 29L23 29L23 31L25 31L25 32L24 32L24 33L29 33L29 32L26 32L26 31L25 31L25 30L26 30L26 28L27 28L27 27L28 27L28 26L27 26L27 25L26 25L26 23L27 23L27 22L23 22L23 20L22 20L22 19L23 19L23 18L24 18L24 19L25 19L25 21L26 21L26 19L25 19L25 18L26 18L26 17L25 17L25 15L26 15L26 16L27 16L27 15L28 15L28 14L29 14L29 13L30 13L30 12L27 12L27 13L26 13L26 11ZM39 11L39 13L38 13L38 12L37 12L37 13L36 13L36 14L37 14L37 13L38 13L38 14L39 14L39 13L40 13L40 14L41 14L41 11ZM50 12L50 13L51 13L51 12ZM65 12L65 13L67 13L67 15L68 15L68 13L69 13L69 12L68 12L68 13L67 13L67 12ZM2 13L2 14L3 14L3 13ZM7 13L7 14L6 14L6 15L7 15L7 16L9 16L9 18L11 18L11 17L10 17L10 15L12 15L12 14L13 14L13 13L12 13L12 14L10 14L10 13ZM27 13L27 14L28 14L28 13ZM45 13L45 14L46 14L46 13ZM7 14L7 15L9 15L9 14ZM34 14L34 15L33 15L33 19L34 19L34 20L36 20L36 19L35 19L35 17L34 17L34 16L37 16L37 17L36 17L36 18L37 18L37 17L38 17L38 16L37 16L37 15L35 15L35 14ZM1 15L1 18L2 18L2 17L3 17L3 18L4 18L4 15ZM45 16L45 17L46 17L46 16ZM13 17L13 18L14 18L14 17ZM24 17L24 18L25 18L25 17ZM27 20L27 21L28 21L28 20ZM40 20L40 21L41 21L41 20ZM61 20L61 21L62 21L62 22L63 22L63 23L64 23L64 20L63 20L63 21L62 21L62 20ZM15 21L15 22L16 22L16 21ZM6 22L6 23L7 23L7 22ZM29 22L29 23L30 23L30 22ZM0 23L0 24L1 24L1 23ZM2 24L2 25L1 25L1 26L0 26L0 27L1 27L1 26L3 26L3 24ZM13 25L13 26L14 26L14 25ZM37 25L37 26L38 26L38 28L39 28L39 29L40 29L40 30L42 30L42 28L40 28L40 27L39 27L39 26L38 26L38 25ZM46 25L46 26L47 26L47 25ZM19 26L19 27L20 27L20 28L21 28L21 27L20 27L20 26ZM23 27L23 29L24 29L24 30L25 30L25 29L24 29L24 27ZM29 27L29 28L30 28L30 27ZM52 27L52 30L53 30L53 27ZM55 27L55 28L56 28L56 27ZM62 27L62 28L61 28L61 30L62 30L62 29L63 29L63 27ZM65 27L65 29L66 29L66 27ZM10 28L10 30L11 30L11 28ZM28 29L28 30L29 30L29 29ZM46 30L46 31L47 31L47 30ZM40 31L40 33L44 33L44 34L43 34L43 35L41 35L41 34L38 34L38 33L39 33L39 32L38 32L38 33L37 33L37 34L38 34L38 35L37 35L37 37L36 37L36 38L37 38L37 37L38 37L38 36L40 36L40 37L39 37L39 38L38 38L38 39L34 39L34 41L35 41L35 43L34 43L34 42L33 42L33 39L32 39L32 38L35 38L35 37L31 37L31 39L32 39L32 42L30 42L30 41L31 41L31 40L30 40L30 41L26 41L26 40L25 40L25 41L24 41L24 42L25 42L25 43L26 43L26 44L27 44L27 43L28 43L28 44L29 44L29 43L32 43L32 45L33 45L33 43L34 43L34 46L33 46L33 47L32 47L32 46L31 46L31 47L30 47L30 48L32 48L32 49L33 49L33 48L34 48L34 47L35 47L35 46L36 46L36 47L37 47L37 46L38 46L38 45L39 45L39 47L38 47L38 48L39 48L39 47L41 47L41 48L40 48L40 51L39 51L39 52L40 52L40 53L41 53L41 49L42 49L42 45L41 45L41 46L40 46L40 45L39 45L39 43L41 43L41 44L43 44L43 45L44 45L44 46L43 46L43 47L44 47L44 48L43 48L43 49L44 49L44 50L45 50L45 49L44 49L44 48L45 48L45 47L47 47L47 48L49 48L49 47L47 47L47 45L46 45L46 43L47 43L47 44L48 44L48 42L47 42L47 39L51 39L51 38L52 38L52 37L51 37L51 38L50 38L50 37L46 37L46 34L45 34L45 33L44 33L44 31ZM3 33L3 34L2 34L2 35L4 35L4 33ZM5 33L5 36L8 36L8 33ZM33 33L33 36L36 36L36 33ZM61 33L61 36L64 36L64 33ZM6 34L6 35L7 35L7 34ZM17 34L17 36L18 36L18 34ZM28 34L28 35L27 35L27 36L28 36L28 38L29 38L29 39L30 39L30 38L29 38L29 36L32 36L32 35L29 35L29 34ZM34 34L34 35L35 35L35 34ZM44 34L44 37L45 37L45 38L43 38L43 37L40 37L40 38L39 38L39 41L38 41L38 40L36 40L36 41L38 41L38 42L43 42L43 39L45 39L45 40L44 40L44 43L43 43L43 44L44 44L44 45L45 45L45 46L46 46L46 45L45 45L45 44L44 44L44 43L45 43L45 42L46 42L46 37L45 37L45 34ZM62 34L62 35L63 35L63 34ZM65 34L65 37L63 37L63 38L62 38L62 37L61 37L61 38L62 38L62 39L64 39L64 40L63 40L63 41L64 41L64 42L66 42L66 41L67 41L67 42L68 42L68 41L67 41L67 39L64 39L64 38L66 38L66 36L67 36L67 37L68 37L68 35L66 35L66 34ZM40 35L40 36L41 36L41 35ZM55 36L55 37L56 37L56 36ZM6 37L6 38L7 38L7 37ZM13 37L13 38L14 38L14 37ZM3 38L3 39L4 39L4 38ZM40 38L40 41L41 41L41 38ZM42 38L42 39L43 39L43 38ZM1 39L1 40L0 40L0 41L1 41L1 40L2 40L2 39ZM11 39L11 40L12 40L12 39ZM27 39L27 40L28 40L28 39ZM49 40L49 42L50 42L50 43L49 43L49 46L50 46L50 43L51 43L51 44L52 44L52 43L51 43L51 42L50 42L50 40ZM56 40L56 41L59 41L59 40ZM64 40L64 41L66 41L66 40ZM3 41L3 42L4 42L4 43L5 43L5 42L4 42L4 41ZM25 41L25 42L26 42L26 43L27 43L27 42L26 42L26 41ZM32 42L32 43L33 43L33 42ZM36 42L36 43L37 43L37 42ZM58 43L58 44L59 44L59 43ZM8 44L8 45L9 45L9 44ZM14 44L14 45L15 45L15 44ZM16 45L16 46L15 46L15 47L16 47L16 48L17 48L17 47L18 47L18 45ZM36 45L36 46L37 46L37 45ZM12 46L12 47L11 47L11 48L9 48L9 49L8 49L8 50L9 50L9 49L11 49L11 48L12 48L12 47L13 47L13 46ZM16 46L16 47L17 47L17 46ZM52 48L52 49L53 49L53 48ZM6 49L6 50L7 50L7 49ZM60 49L60 50L61 50L61 49ZM42 50L42 51L43 51L43 53L44 53L44 51L43 51L43 50ZM55 50L55 51L54 51L54 53L56 53L56 52L57 52L57 51L58 51L58 50L57 50L57 51L56 51L56 50ZM49 51L49 52L46 52L46 53L49 53L49 52L50 52L50 51ZM6 52L6 53L7 53L7 52ZM8 52L8 54L9 54L9 52ZM12 52L12 53L13 53L13 52ZM0 54L0 55L1 55L1 54ZM3 55L3 57L4 57L4 58L5 58L5 57L6 57L6 58L9 58L9 57L8 57L8 56L7 56L7 55L5 55L5 57L4 57L4 55ZM6 56L6 57L7 57L7 56ZM32 56L32 57L33 57L33 56ZM10 57L10 59L11 59L11 60L12 60L12 57ZM8 59L8 60L9 60L9 59ZM3 60L3 61L5 61L5 60ZM17 60L17 63L16 63L16 64L17 64L17 63L18 63L18 61L19 61L19 60ZM45 60L45 61L46 61L46 63L47 63L47 60ZM33 61L33 64L36 64L36 61ZM38 61L38 62L39 62L39 61ZM50 61L50 62L51 62L51 61ZM61 61L61 64L64 64L64 61ZM22 62L22 67L24 67L24 66L23 66L23 63L24 63L24 62ZM30 62L30 63L32 63L32 62ZM34 62L34 63L35 63L35 62ZM62 62L62 63L63 63L63 62ZM14 63L14 64L15 64L15 63ZM31 64L31 65L32 65L32 64ZM61 65L61 66L62 66L62 68L63 68L63 67L64 67L64 66L62 66L62 65ZM11 66L11 67L10 67L10 68L13 68L13 67L12 67L12 66ZM36 68L36 69L37 69L37 68ZM68 68L68 69L69 69L69 68ZM0 0L0 7L7 7L7 0ZM1 1L1 6L6 6L6 1ZM2 2L2 5L5 5L5 2ZM62 0L62 7L69 7L69 0ZM63 1L63 6L68 6L68 1ZM64 2L64 5L67 5L67 2ZM0 62L0 69L7 69L7 62ZM1 63L1 68L6 68L6 63ZM2 64L2 67L5 67L5 64Z" fill="#000000"/></g></g></svg>
