<?xml version="1.0" encoding="UTF-8"?>
<svg xmlns="http://www.w3.org/2000/svg" version="1.1" width="300" height="300" viewBox="0 0 300 300"><rect x="0" y="0" width="300" height="300" fill="#ffffff"/><g transform="scale(4.348)"><g transform="translate(0,0)"><path fill-rule="evenodd" d="M8 0L8 2L9 2L9 4L8 4L8 9L7 9L7 8L5 8L5 10L4 10L4 11L5 11L5 12L4 12L4 13L2 13L2 12L0 12L0 14L2 14L2 15L3 15L3 17L2 17L2 16L1 16L1 15L0 15L0 16L1 16L1 17L0 17L0 18L3 18L3 17L4 17L4 13L5 13L5 15L8 15L8 16L6 16L6 17L5 17L5 18L6 18L6 19L2 19L2 23L0 23L0 25L1 25L1 24L2 24L2 25L3 25L3 24L4 24L4 26L3 26L3 27L4 27L4 28L1 28L1 27L2 27L2 26L1 26L1 27L0 27L0 29L1 29L1 30L3 30L3 29L5 29L5 30L4 30L4 32L3 32L3 33L0 33L0 34L3 34L3 36L4 36L4 37L3 37L3 38L4 38L4 37L8 37L8 39L7 39L7 38L6 38L6 39L3 39L3 43L2 43L2 42L1 42L1 40L2 40L2 36L1 36L1 35L0 35L0 36L1 36L1 37L0 37L0 42L1 42L1 43L0 43L0 44L1 44L1 45L2 45L2 46L3 46L3 47L4 47L4 48L3 48L3 49L4 49L4 52L3 52L3 50L2 50L2 51L1 51L1 49L2 49L2 47L1 47L1 46L0 46L0 51L1 51L1 52L2 52L2 53L5 53L5 54L3 54L3 56L1 56L1 55L0 55L0 57L2 57L2 59L3 59L3 56L4 56L4 55L5 55L5 56L6 56L6 57L5 57L5 58L4 58L4 59L9 59L9 60L10 60L10 61L11 61L11 62L10 62L10 63L8 63L8 64L10 64L10 65L9 65L9 66L8 66L8 69L10 69L10 68L9 68L9 67L10 67L10 66L11 66L11 67L13 67L13 68L15 68L15 69L16 69L16 65L17 65L17 68L18 68L18 69L20 69L20 68L19 68L19 67L18 67L18 65L19 65L19 64L20 64L20 65L21 65L21 66L20 66L20 67L22 67L22 69L23 69L23 66L24 66L24 64L25 64L25 62L24 62L24 60L23 60L23 58L20 58L20 56L21 56L21 54L20 54L20 53L21 53L21 51L20 51L20 50L21 50L21 48L22 48L22 51L23 51L23 52L22 52L22 53L23 53L23 55L22 55L22 56L24 56L24 57L25 57L25 58L24 58L24 59L26 59L26 62L27 62L27 63L26 63L26 64L27 64L27 66L26 66L26 67L25 67L25 68L24 68L24 69L25 69L25 68L26 68L26 69L27 69L27 68L28 68L28 69L29 69L29 68L30 68L30 69L31 69L31 64L32 64L32 66L33 66L33 65L37 65L37 66L36 66L36 67L35 67L35 68L34 68L34 67L33 67L33 68L32 68L32 69L37 69L37 68L36 68L36 67L38 67L38 64L39 64L39 62L38 62L38 59L40 59L40 58L41 58L41 59L43 59L43 60L44 60L44 62L42 62L42 61L41 61L41 60L39 60L39 61L41 61L41 62L40 62L40 65L39 65L39 66L40 66L40 65L41 65L41 68L40 68L40 67L39 67L39 68L38 68L38 69L39 69L39 68L40 68L40 69L41 69L41 68L43 68L43 67L44 67L44 69L45 69L45 67L44 67L44 65L47 65L47 64L46 64L46 63L48 63L48 61L49 61L49 64L48 64L48 65L49 65L49 66L48 66L48 67L49 67L49 68L48 68L48 69L51 69L51 68L52 68L52 69L55 69L55 66L56 66L56 65L57 65L57 67L56 67L56 69L58 69L58 68L60 68L60 67L61 67L61 68L62 68L62 69L63 69L63 68L62 68L62 67L63 67L63 66L64 66L64 67L65 67L65 68L64 68L64 69L67 69L67 68L66 68L66 67L69 67L69 66L64 66L64 65L66 65L66 63L67 63L67 65L68 65L68 63L69 63L69 61L68 61L68 60L66 60L66 58L67 58L67 57L66 57L66 55L65 55L65 54L66 54L66 53L68 53L68 57L69 57L69 52L68 52L68 51L69 51L69 45L67 45L67 44L66 44L66 43L67 43L67 41L68 41L68 40L69 40L69 38L68 38L68 40L66 40L66 39L67 39L67 38L66 38L66 37L67 37L67 36L66 36L66 35L67 35L67 34L66 34L66 33L65 33L65 32L66 32L66 30L68 30L68 31L67 31L67 33L68 33L68 37L69 37L69 25L66 25L66 23L67 23L67 24L68 24L68 23L69 23L69 22L68 22L68 23L67 23L67 20L68 20L68 21L69 21L69 20L68 20L68 19L69 19L69 12L68 12L68 17L67 17L67 16L66 16L66 15L67 15L67 13L66 13L66 11L67 11L67 10L66 10L66 9L65 9L65 8L61 8L61 6L60 6L60 8L59 8L59 10L58 10L58 7L59 7L59 4L58 4L58 3L59 3L59 2L57 2L57 4L58 4L58 7L57 7L57 5L56 5L56 2L55 2L55 0L52 0L52 3L50 3L50 4L49 4L49 5L47 5L47 4L48 4L48 3L47 3L47 2L46 2L46 1L48 1L48 2L50 2L50 1L51 1L51 0L50 0L50 1L48 1L48 0L46 0L46 1L45 1L45 2L46 2L46 3L47 3L47 4L46 4L46 5L47 5L47 6L46 6L46 7L47 7L47 8L44 8L44 9L43 9L43 11L41 11L41 10L42 10L42 8L43 8L43 4L44 4L44 7L45 7L45 4L44 4L44 2L42 2L42 3L41 3L41 0L40 0L40 3L39 3L39 0L37 0L37 3L36 3L36 4L34 4L34 3L35 3L35 2L34 2L34 1L33 1L33 0L32 0L32 1L33 1L33 2L32 2L32 3L31 3L31 4L30 4L30 3L29 3L29 4L28 4L28 5L27 5L27 4L26 4L26 3L25 3L25 1L27 1L27 0L24 0L24 2L22 2L22 1L23 1L23 0L22 0L22 1L21 1L21 0L18 0L18 1L17 1L17 5L15 5L15 3L16 3L16 1L15 1L15 0L10 0L10 1L11 1L11 2L9 2L9 0ZM42 0L42 1L44 1L44 0ZM56 0L56 1L61 1L61 0ZM12 1L12 2L11 2L11 3L10 3L10 4L9 4L9 5L11 5L11 3L12 3L12 2L13 2L13 3L15 3L15 1L14 1L14 2L13 2L13 1ZM20 1L20 2L21 2L21 5L20 5L20 4L19 4L19 3L18 3L18 6L17 6L17 9L16 9L16 10L15 10L15 11L16 11L16 13L15 13L15 15L16 15L16 16L14 16L14 14L13 14L13 12L11 12L11 9L12 9L12 10L13 10L13 11L14 11L14 8L16 8L16 6L15 6L15 5L14 5L14 4L13 4L13 5L14 5L14 6L13 6L13 7L14 7L14 8L12 8L12 6L11 6L11 9L10 9L10 8L9 8L9 9L8 9L8 10L7 10L7 9L6 9L6 10L5 10L5 11L6 11L6 12L5 12L5 13L6 13L6 14L7 14L7 13L6 13L6 12L7 12L7 11L8 11L8 10L9 10L9 11L10 11L10 12L11 12L11 13L9 13L9 16L8 16L8 18L7 18L7 17L6 17L6 18L7 18L7 19L6 19L6 20L3 20L3 23L4 23L4 24L5 24L5 23L6 23L6 24L7 24L7 23L10 23L10 24L9 24L9 25L6 25L6 26L8 26L8 28L7 28L7 27L6 27L6 28L7 28L7 29L6 29L6 30L5 30L5 32L7 32L7 31L6 31L6 30L8 30L8 31L9 31L9 33L12 33L12 36L10 36L10 34L9 34L9 36L10 36L10 37L9 37L9 38L10 38L10 37L13 37L13 41L12 41L12 42L13 42L13 43L14 43L14 45L13 45L13 44L11 44L11 43L10 43L10 44L9 44L9 46L8 46L8 43L6 43L6 42L9 42L9 41L10 41L10 42L11 42L11 40L12 40L12 39L11 39L11 40L10 40L10 39L8 39L8 40L9 40L9 41L6 41L6 42L5 42L5 40L4 40L4 42L5 42L5 43L3 43L3 44L4 44L4 45L3 45L3 46L4 46L4 47L5 47L5 48L4 48L4 49L5 49L5 48L8 48L8 49L6 49L6 50L5 50L5 51L6 51L6 52L5 52L5 53L6 53L6 54L7 54L7 53L6 53L6 52L8 52L8 54L10 54L10 55L8 55L8 56L9 56L9 58L11 58L11 57L12 57L12 56L13 56L13 57L14 57L14 60L15 60L15 61L16 61L16 62L17 62L17 61L18 61L18 60L19 60L19 61L20 61L20 62L19 62L19 63L18 63L18 64L19 64L19 63L20 63L20 62L22 62L22 63L21 63L21 65L22 65L22 66L23 66L23 65L22 65L22 64L24 64L24 63L23 63L23 62L22 62L22 60L20 60L20 58L19 58L19 57L18 57L18 56L19 56L19 54L18 54L18 52L19 52L19 51L18 51L18 50L19 50L19 48L21 48L21 47L22 47L22 48L23 48L23 50L25 50L25 48L24 48L24 46L26 46L26 44L27 44L27 41L26 41L26 40L28 40L28 39L29 39L29 41L28 41L28 44L29 44L29 45L28 45L28 46L27 46L27 47L26 47L26 48L27 48L27 49L26 49L26 50L27 50L27 52L28 52L28 55L27 55L27 57L28 57L28 58L26 58L26 59L27 59L27 62L28 62L28 63L27 63L27 64L29 64L29 63L30 63L30 64L31 64L31 63L30 63L30 62L32 62L32 61L30 61L30 60L32 60L32 59L30 59L30 58L31 58L31 57L30 57L30 58L29 58L29 57L28 57L28 55L29 55L29 53L30 53L30 54L32 54L32 51L33 51L33 50L35 50L35 49L34 49L34 48L35 48L35 45L34 45L34 44L33 44L33 43L34 43L34 38L35 38L35 39L36 39L36 40L37 40L37 41L35 41L35 43L36 43L36 46L37 46L37 48L36 48L36 49L37 49L37 48L38 48L38 50L39 50L39 49L40 49L40 51L39 51L39 52L38 52L38 53L40 53L40 52L41 52L41 49L40 49L40 48L41 48L41 47L43 47L43 46L44 46L44 43L46 43L46 44L45 44L45 45L46 45L46 46L47 46L47 45L48 45L48 47L44 47L44 48L43 48L43 49L42 49L42 50L43 50L43 53L42 53L42 54L44 54L44 55L42 55L42 56L41 56L41 57L42 57L42 58L45 58L45 57L46 57L46 58L47 58L47 60L46 60L46 62L45 62L45 63L46 63L46 62L47 62L47 61L48 61L48 59L49 59L49 60L50 60L50 62L51 62L51 60L50 60L50 58L51 58L51 59L52 59L52 58L51 58L51 57L52 57L52 55L54 55L54 58L55 58L55 59L53 59L53 61L54 61L54 62L53 62L53 63L51 63L51 64L49 64L49 65L50 65L50 66L51 66L51 67L50 67L50 68L51 68L51 67L52 67L52 68L54 68L54 66L55 66L55 65L56 65L56 64L57 64L57 63L58 63L58 66L59 66L59 67L60 67L60 66L61 66L61 67L62 67L62 66L63 66L63 65L59 65L59 62L60 62L60 61L58 61L58 60L57 60L57 58L56 58L56 56L57 56L57 57L58 57L58 58L59 58L59 56L60 56L60 55L59 55L59 53L58 53L58 52L60 52L60 51L61 51L61 55L62 55L62 56L61 56L61 58L60 58L60 59L59 59L59 60L60 60L60 59L62 59L62 60L63 60L63 59L64 59L64 60L65 60L65 61L66 61L66 62L67 62L67 61L66 61L66 60L65 60L65 57L64 57L64 58L63 58L63 57L62 57L62 56L64 56L64 54L65 54L65 53L66 53L66 52L67 52L67 51L68 51L68 50L67 50L67 48L68 48L68 46L67 46L67 45L64 45L64 42L65 42L65 43L66 43L66 41L65 41L65 40L64 40L64 38L65 38L65 39L66 39L66 38L65 38L65 37L66 37L66 36L65 36L65 37L63 37L63 41L64 41L64 42L63 42L63 43L62 43L62 42L59 42L59 40L60 40L60 41L61 41L61 40L60 40L60 39L58 39L58 38L59 38L59 37L58 37L58 36L60 36L60 34L59 34L59 33L56 33L56 32L55 32L55 30L56 30L56 31L57 31L57 30L56 30L56 28L57 28L57 29L58 29L58 32L60 32L60 31L61 31L61 32L62 32L62 31L61 31L61 29L62 29L62 30L64 30L64 28L65 28L65 30L66 30L66 29L67 29L67 27L68 27L68 26L66 26L66 25L65 25L65 27L64 27L64 28L63 28L63 29L62 29L62 28L61 28L61 29L60 29L60 27L59 27L59 29L58 29L58 28L57 28L57 27L58 27L58 26L59 26L59 23L61 23L61 25L60 25L60 26L61 26L61 27L62 27L62 26L63 26L63 25L62 25L62 22L63 22L63 21L64 21L64 23L65 23L65 22L66 22L66 20L67 20L67 19L68 19L68 18L67 18L67 17L66 17L66 18L65 18L65 19L64 19L64 16L65 16L65 15L66 15L66 13L65 13L65 15L64 15L64 12L63 12L63 13L62 13L62 11L63 11L63 10L64 10L64 9L61 9L61 8L60 8L60 11L58 11L58 10L57 10L57 9L56 9L56 8L57 8L57 7L56 7L56 5L54 5L54 4L55 4L55 2L54 2L54 3L52 3L52 4L53 4L53 5L51 5L51 7L52 7L52 6L53 6L53 7L54 7L54 8L55 8L55 9L54 9L54 10L53 10L53 9L52 9L52 8L50 8L50 6L49 6L49 7L48 7L48 6L47 6L47 7L48 7L48 8L47 8L47 9L46 9L46 10L45 10L45 11L44 11L44 12L42 12L42 13L41 13L41 11L38 11L38 10L39 10L39 9L40 9L40 6L41 6L41 8L42 8L42 4L43 4L43 3L42 3L42 4L41 4L41 3L40 3L40 5L38 5L38 6L37 6L37 9L32 9L32 4L33 4L33 3L34 3L34 2L33 2L33 3L32 3L32 4L31 4L31 8L30 8L30 6L29 6L29 5L30 5L30 4L29 4L29 5L28 5L28 6L27 6L27 7L26 7L26 5L24 5L24 4L25 4L25 3L22 3L22 2L21 2L21 1ZM28 1L28 2L30 2L30 1ZM38 3L38 4L39 4L39 3ZM60 3L60 5L61 5L61 3ZM19 5L19 6L18 6L18 9L19 9L19 11L18 11L18 10L16 10L16 11L18 11L18 13L19 13L19 14L20 14L20 15L18 15L18 16L19 16L19 18L18 18L18 19L19 19L19 20L18 20L18 21L19 21L19 22L18 22L18 23L17 23L17 21L13 21L13 24L14 24L14 27L13 27L13 25L12 25L12 23L11 23L11 22L10 22L10 21L12 21L12 20L13 20L13 19L14 19L14 20L15 20L15 19L16 19L16 20L17 20L17 17L16 17L16 18L12 18L12 17L13 17L13 16L12 16L12 15L13 15L13 14L10 14L10 16L9 16L9 17L10 17L10 18L8 18L8 19L7 19L7 20L6 20L6 21L7 21L7 22L6 22L6 23L7 23L7 22L10 22L10 23L11 23L11 24L10 24L10 26L9 26L9 28L8 28L8 29L10 29L10 30L9 30L9 31L11 31L11 32L12 32L12 31L13 31L13 35L14 35L14 39L15 39L15 40L14 40L14 41L13 41L13 42L14 42L14 43L15 43L15 42L14 42L14 41L15 41L15 40L16 40L16 41L17 41L17 42L16 42L16 43L18 43L18 45L17 45L17 44L16 44L16 45L15 45L15 46L13 46L13 45L10 45L10 46L9 46L9 47L8 47L8 48L9 48L9 49L10 49L10 48L9 48L9 47L10 47L10 46L12 46L12 48L11 48L11 52L10 52L10 51L9 51L9 52L10 52L10 53L11 53L11 54L12 54L12 55L13 55L13 56L14 56L14 57L15 57L15 60L16 60L16 61L17 61L17 60L18 60L18 57L17 57L17 56L18 56L18 54L16 54L16 53L17 53L17 52L18 52L18 51L17 51L17 50L16 50L16 48L17 48L17 46L18 46L18 45L19 45L19 47L18 47L18 48L19 48L19 47L21 47L21 46L22 46L22 47L23 47L23 46L24 46L24 45L25 45L25 44L26 44L26 43L24 43L24 42L25 42L25 39L28 39L28 37L29 37L29 38L30 38L30 37L32 37L32 38L31 38L31 39L30 39L30 40L33 40L33 39L32 39L32 38L33 38L33 37L35 37L35 38L36 38L36 39L37 39L37 40L38 40L38 39L39 39L39 38L40 38L40 41L39 41L39 42L38 42L38 41L37 41L37 42L38 42L38 44L37 44L37 46L38 46L38 48L39 48L39 46L38 46L38 45L39 45L39 42L42 42L42 43L41 43L41 44L42 44L42 45L43 45L43 44L42 44L42 43L44 43L44 41L45 41L45 42L46 42L46 41L47 41L47 39L46 39L46 35L47 35L47 37L48 37L48 38L49 38L49 39L48 39L48 42L49 42L49 43L47 43L47 44L48 44L48 45L49 45L49 46L50 46L50 45L51 45L51 47L50 47L50 48L48 48L48 50L49 50L49 52L48 52L48 53L47 53L47 54L46 54L46 52L47 52L47 50L46 50L46 49L47 49L47 48L44 48L44 50L46 50L46 51L44 51L44 54L45 54L45 55L44 55L44 57L45 57L45 55L47 55L47 54L48 54L48 53L49 53L49 55L48 55L48 57L47 57L47 58L48 58L48 57L49 57L49 58L50 58L50 56L49 56L49 55L50 55L50 53L51 53L51 52L52 52L52 54L51 54L51 55L52 55L52 54L54 54L54 53L55 53L55 52L54 52L54 51L55 51L55 50L56 50L56 51L57 51L57 52L56 52L56 53L57 53L57 54L58 54L58 53L57 53L57 52L58 52L58 51L59 51L59 50L61 50L61 47L60 47L60 46L61 46L61 45L62 45L62 53L63 53L63 54L62 54L62 55L63 55L63 54L64 54L64 53L65 53L65 52L66 52L66 50L65 50L65 51L64 51L64 52L63 52L63 46L64 46L64 48L65 48L65 49L66 49L66 47L67 47L67 46L64 46L64 45L62 45L62 44L61 44L61 43L60 43L60 44L59 44L59 42L58 42L58 40L57 40L57 39L55 39L55 38L54 38L54 37L55 37L55 35L56 35L56 38L58 38L58 37L57 37L57 34L56 34L56 33L55 33L55 32L53 32L53 31L54 31L54 29L55 29L55 27L57 27L57 26L58 26L58 21L59 21L59 22L60 22L60 21L61 21L61 22L62 22L62 17L63 17L63 15L62 15L62 13L61 13L61 14L60 14L60 15L62 15L62 17L61 17L61 16L60 16L60 17L59 17L59 14L58 14L58 12L57 12L57 11L55 11L55 10L54 10L54 11L53 11L53 10L52 10L52 9L51 9L51 10L50 10L50 8L48 8L48 9L47 9L47 10L46 10L46 11L45 11L45 12L44 12L44 13L45 13L45 14L44 14L44 17L45 17L45 20L44 20L44 21L43 21L43 23L44 23L44 21L45 21L45 23L47 23L47 26L46 26L46 25L45 25L45 24L44 24L44 25L45 25L45 27L44 27L44 29L43 29L43 28L40 28L40 25L41 25L41 26L42 26L42 27L43 27L43 26L42 26L42 25L43 25L43 24L42 24L42 23L41 23L41 19L40 19L40 17L41 17L41 18L42 18L42 19L44 19L44 18L42 18L42 17L43 17L43 15L42 15L42 16L40 16L40 17L39 17L39 16L38 16L38 15L39 15L39 14L38 14L38 13L37 13L37 14L36 14L36 15L37 15L37 16L36 16L36 17L37 17L37 18L36 18L36 20L34 20L34 19L35 19L35 18L33 18L33 17L32 17L32 15L33 15L33 14L32 14L32 15L31 15L31 12L30 12L30 11L31 11L31 10L32 10L32 11L33 11L33 12L32 12L32 13L34 13L34 10L32 10L32 9L31 9L31 10L30 10L30 11L29 11L29 10L28 10L28 9L29 9L29 6L28 6L28 7L27 7L27 8L26 8L26 7L25 7L25 6L24 6L24 7L23 7L23 6L22 6L22 7L21 7L21 6L20 6L20 5ZM33 5L33 8L36 8L36 5ZM9 6L9 7L10 7L10 6ZM14 6L14 7L15 7L15 6ZM19 6L19 7L20 7L20 6ZM34 6L34 7L35 7L35 6ZM38 6L38 8L39 8L39 6ZM54 6L54 7L55 7L55 8L56 8L56 7L55 7L55 6ZM22 7L22 8L23 8L23 7ZM24 7L24 8L25 8L25 10L24 10L24 11L26 11L26 12L25 12L25 13L24 13L24 14L23 14L23 13L22 13L22 12L23 12L23 11L22 11L22 10L23 10L23 9L22 9L22 10L21 10L21 9L20 9L20 8L19 8L19 9L20 9L20 11L19 11L19 12L20 12L20 14L21 14L21 13L22 13L22 14L23 14L23 15L24 15L24 16L23 16L23 17L22 17L22 16L21 16L21 17L22 17L22 18L23 18L23 17L24 17L24 19L23 19L23 21L22 21L22 19L21 19L21 18L20 18L20 19L21 19L21 21L20 21L20 22L19 22L19 23L20 23L20 28L21 28L21 29L20 29L20 30L19 30L19 31L18 31L18 32L19 32L19 33L18 33L18 34L17 34L17 33L16 33L16 34L17 34L17 35L16 35L16 36L15 36L15 37L16 37L16 38L15 38L15 39L17 39L17 41L18 41L18 39L17 39L17 37L18 37L18 38L19 38L19 39L21 39L21 37L22 37L22 38L23 38L23 37L22 37L22 35L23 35L23 36L26 36L26 35L27 35L27 32L28 32L28 31L29 31L29 34L28 34L28 35L29 35L29 37L30 37L30 36L32 36L32 32L33 32L33 31L32 31L32 30L31 30L31 29L30 29L30 27L31 27L31 26L34 26L34 28L35 28L35 26L34 26L34 25L33 25L33 18L32 18L32 17L30 17L30 12L29 12L29 11L28 11L28 12L27 12L27 10L26 10L26 8L25 8L25 7ZM0 8L0 9L1 9L1 11L2 11L2 9L3 9L3 8ZM67 8L67 9L68 9L68 11L69 11L69 8ZM9 9L9 10L10 10L10 9ZM37 9L37 10L38 10L38 9ZM48 9L48 11L46 11L46 14L47 14L47 13L48 13L48 15L49 15L49 16L50 16L50 18L49 18L49 17L48 17L48 16L46 16L46 15L45 15L45 16L46 16L46 20L45 20L45 21L46 21L46 22L48 22L48 18L49 18L49 21L50 21L50 22L49 22L49 24L50 24L50 26L49 26L49 28L50 28L50 30L49 30L49 31L50 31L50 32L49 32L49 33L50 33L50 34L52 34L52 35L49 35L49 36L50 36L50 39L49 39L49 41L50 41L50 43L49 43L49 45L50 45L50 43L51 43L51 45L52 45L52 43L53 43L53 45L54 45L54 46L53 46L53 47L51 47L51 48L50 48L50 51L52 51L52 52L53 52L53 53L54 53L54 52L53 52L53 51L54 51L54 50L55 50L55 49L56 49L56 50L57 50L57 49L56 49L56 48L58 48L58 50L59 50L59 47L57 47L57 46L56 46L56 43L53 43L53 41L52 41L52 40L54 40L54 38L53 38L53 39L52 39L52 38L51 38L51 37L52 37L52 36L53 36L53 37L54 37L54 36L53 36L53 35L55 35L55 33L54 33L54 34L53 34L53 33L52 33L52 32L51 32L51 31L52 31L52 30L53 30L53 29L52 29L52 28L53 28L53 25L52 25L52 24L53 24L53 21L54 21L54 24L55 24L55 25L54 25L54 26L55 26L55 25L56 25L56 26L57 26L57 25L56 25L56 22L57 22L57 21L56 21L56 20L55 20L55 21L54 21L54 20L53 20L53 21L52 21L52 22L51 22L51 21L50 21L50 20L51 20L51 19L50 19L50 18L53 18L53 19L56 19L56 18L55 18L55 17L56 17L56 14L57 14L57 13L56 13L56 12L55 12L55 11L54 11L54 12L55 12L55 13L54 13L54 14L55 14L55 15L53 15L53 17L52 17L52 16L50 16L50 15L52 15L52 14L51 14L51 13L52 13L52 12L53 12L53 11L51 11L51 13L50 13L50 11L49 11L49 9ZM6 10L6 11L7 11L7 10ZM20 11L20 12L22 12L22 11ZM36 11L36 12L37 12L37 11ZM48 11L48 13L49 13L49 14L50 14L50 13L49 13L49 11ZM60 11L60 12L61 12L61 11ZM26 12L26 13L25 13L25 18L26 18L26 19L24 19L24 21L23 21L23 22L24 22L24 21L25 21L25 20L26 20L26 21L27 21L27 22L25 22L25 24L24 24L24 25L25 25L25 26L24 26L24 27L26 27L26 26L28 26L28 27L27 27L27 28L26 28L26 29L27 29L27 31L26 31L26 32L27 32L27 31L28 31L28 29L27 29L27 28L28 28L28 27L30 27L30 25L32 25L32 23L31 23L31 22L32 22L32 21L31 21L31 20L32 20L32 19L31 19L31 18L30 18L30 17L29 17L29 16L28 16L28 17L29 17L29 18L28 18L28 19L29 19L29 22L28 22L28 20L26 20L26 19L27 19L27 18L26 18L26 17L27 17L27 16L26 16L26 15L27 15L27 14L28 14L28 15L29 15L29 14L28 14L28 13L29 13L29 12L28 12L28 13L27 13L27 12ZM40 13L40 14L41 14L41 13ZM55 13L55 14L56 14L56 13ZM16 14L16 15L17 15L17 14ZM34 14L34 15L35 15L35 14ZM57 15L57 16L58 16L58 15ZM10 16L10 17L11 17L11 16ZM34 16L34 17L35 17L35 16ZM37 16L37 17L38 17L38 18L39 18L39 17L38 17L38 16ZM53 17L53 18L54 18L54 17ZM58 17L58 19L57 19L57 20L58 20L58 19L60 19L60 18L61 18L61 17L60 17L60 18L59 18L59 17ZM10 18L10 20L12 20L12 19L11 19L11 18ZM66 18L66 19L65 19L65 20L64 20L64 19L63 19L63 20L64 20L64 21L65 21L65 20L66 20L66 19L67 19L67 18ZM8 19L8 21L9 21L9 19ZM30 19L30 20L31 20L31 19ZM36 20L36 21L34 21L34 22L35 22L35 23L34 23L34 24L35 24L35 23L36 23L36 22L37 22L37 20ZM38 20L38 21L39 21L39 22L40 22L40 21L39 21L39 20ZM0 21L0 22L1 22L1 21ZM4 21L4 23L5 23L5 21ZM27 22L27 24L28 24L28 26L29 26L29 24L28 24L28 22ZM50 22L50 23L51 23L51 24L52 24L52 23L51 23L51 22ZM14 23L14 24L16 24L16 23ZM22 23L22 24L23 24L23 23ZM30 23L30 24L31 24L31 23ZM37 23L37 24L38 24L38 26L37 26L37 25L36 25L36 26L37 26L37 27L36 27L36 28L38 28L38 27L39 27L39 25L40 25L40 24L41 24L41 23L40 23L40 24L38 24L38 23ZM17 24L17 25L18 25L18 26L16 26L16 27L18 27L18 28L17 28L17 29L16 29L16 28L15 28L15 27L14 27L14 28L13 28L13 27L12 27L12 25L11 25L11 27L12 27L12 28L11 28L11 31L12 31L12 30L13 30L13 31L14 31L14 34L15 34L15 30L14 30L14 29L16 29L16 30L18 30L18 28L19 28L19 25L18 25L18 24ZM61 25L61 26L62 26L62 25ZM4 26L4 27L5 27L5 26ZM21 26L21 27L22 27L22 31L21 31L21 30L20 30L20 31L21 31L21 32L20 32L20 33L21 33L21 34L20 34L20 35L21 35L21 34L24 34L24 35L26 35L26 34L24 34L24 33L25 33L25 31L24 31L24 29L25 29L25 28L24 28L24 29L23 29L23 27L22 27L22 26ZM50 26L50 28L51 28L51 27L52 27L52 26ZM47 27L47 28L46 28L46 30L47 30L47 32L46 32L46 34L44 34L44 31L45 31L45 29L44 29L44 30L43 30L43 29L40 29L40 30L42 30L42 35L41 35L41 34L39 34L39 33L40 33L40 31L39 31L39 29L38 29L38 31L39 31L39 32L38 32L38 34L37 34L37 39L38 39L38 38L39 38L39 37L40 37L40 36L41 36L41 37L42 37L42 39L41 39L41 41L42 41L42 42L43 42L43 41L44 41L44 40L45 40L45 41L46 41L46 39L45 39L45 38L43 38L43 37L44 37L44 35L46 35L46 34L47 34L47 35L48 35L48 34L47 34L47 33L48 33L48 30L47 30L47 29L48 29L48 27ZM65 27L65 28L66 28L66 27ZM32 28L32 29L33 29L33 28ZM36 29L36 30L34 30L34 31L36 31L36 32L37 32L37 31L36 31L36 30L37 30L37 29ZM51 29L51 30L50 30L50 31L51 31L51 30L52 30L52 29ZM59 29L59 31L60 31L60 29ZM30 30L30 31L31 31L31 32L30 32L30 33L31 33L31 32L32 32L32 31L31 31L31 30ZM16 31L16 32L17 32L17 31ZM22 31L22 32L23 32L23 31ZM50 32L50 33L51 33L51 32ZM3 33L3 34L4 34L4 33ZM5 33L5 36L8 36L8 33ZM33 33L33 36L36 36L36 33ZM61 33L61 36L64 36L64 33ZM6 34L6 35L7 35L7 34ZM29 34L29 35L31 35L31 34ZM34 34L34 35L35 35L35 34ZM43 34L43 35L44 35L44 34ZM62 34L62 35L63 35L63 34ZM65 34L65 35L66 35L66 34ZM17 35L17 36L16 36L16 37L17 37L17 36L18 36L18 37L19 37L19 38L20 38L20 37L21 37L21 36L19 36L19 35ZM39 35L39 36L38 36L38 37L39 37L39 36L40 36L40 35ZM27 36L27 37L28 37L28 36ZM42 36L42 37L43 37L43 36ZM24 37L24 39L22 39L22 40L24 40L24 39L25 39L25 37ZM61 38L61 39L62 39L62 38ZM6 39L6 40L7 40L7 39ZM42 39L42 41L43 41L43 39ZM19 40L19 41L20 41L20 42L18 42L18 43L19 43L19 45L20 45L20 46L21 46L21 45L22 45L22 46L23 46L23 45L22 45L22 44L23 44L23 41L22 41L22 42L21 42L21 41L20 41L20 40ZM32 41L32 42L31 42L31 43L30 43L30 42L29 42L29 43L30 43L30 45L31 45L31 44L32 44L32 43L33 43L33 41ZM54 41L54 42L55 42L55 41ZM56 41L56 42L57 42L57 43L58 43L58 42L57 42L57 41ZM68 42L68 44L69 44L69 42ZM1 43L1 44L2 44L2 43ZM5 43L5 45L7 45L7 44L6 44L6 43ZM20 43L20 44L22 44L22 43ZM57 44L57 45L58 45L58 46L60 46L60 45L61 45L61 44L60 44L60 45L58 45L58 44ZM16 45L16 46L15 46L15 48L12 48L12 50L13 50L13 51L12 51L12 54L13 54L13 55L15 55L15 56L16 56L16 55L15 55L15 54L14 54L14 49L15 49L15 48L16 48L16 46L17 46L17 45ZM33 45L33 46L34 46L34 45ZM40 45L40 46L41 46L41 45ZM6 46L6 47L7 47L7 46ZM28 46L28 47L30 47L30 46ZM31 46L31 47L32 47L32 46ZM54 46L54 47L53 47L53 48L52 48L52 50L54 50L54 49L55 49L55 48L56 48L56 46ZM33 47L33 48L34 48L34 47ZM54 47L54 48L53 48L53 49L54 49L54 48L55 48L55 47ZM28 48L28 49L29 49L29 48ZM30 48L30 49L31 49L31 51L32 51L32 48ZM6 50L6 51L7 51L7 50ZM28 50L28 51L29 51L29 52L30 52L30 53L31 53L31 52L30 52L30 50ZM15 51L15 52L16 52L16 51ZM24 51L24 52L23 52L23 53L24 53L24 54L25 54L25 55L24 55L24 56L25 56L25 57L26 57L26 54L27 54L27 53L26 53L26 52L25 52L25 51ZM34 51L34 52L35 52L35 51ZM36 51L36 53L34 53L34 55L32 55L32 56L33 56L33 57L34 57L34 60L35 60L35 57L34 57L34 55L35 55L35 56L37 56L37 57L36 57L36 58L37 58L37 59L36 59L36 60L37 60L37 59L38 59L38 58L40 58L40 54L39 54L39 55L38 55L38 56L37 56L37 54L36 54L36 53L37 53L37 51ZM24 52L24 53L25 53L25 54L26 54L26 53L25 53L25 52ZM0 53L0 54L1 54L1 53ZM6 55L6 56L7 56L7 55ZM10 55L10 56L11 56L11 55ZM30 55L30 56L31 56L31 55ZM55 55L55 56L56 56L56 55ZM6 57L6 58L8 58L8 57ZM37 57L37 58L38 58L38 57ZM0 58L0 61L1 61L1 58ZM16 58L16 59L17 59L17 58ZM28 58L28 59L29 59L29 60L30 60L30 59L29 59L29 58ZM62 58L62 59L63 59L63 58ZM68 58L68 59L69 59L69 58ZM44 59L44 60L45 60L45 59ZM55 59L55 60L56 60L56 62L55 62L55 63L56 63L56 62L58 62L58 61L57 61L57 60L56 60L56 59ZM3 60L3 61L5 61L5 60ZM6 60L6 61L8 61L8 62L9 62L9 61L8 61L8 60ZM11 60L11 61L12 61L12 62L11 62L11 65L13 65L13 67L15 67L15 66L14 66L14 65L16 65L16 63L15 63L15 62L14 62L14 65L13 65L13 63L12 63L12 62L13 62L13 60ZM29 61L29 62L30 62L30 61ZM33 61L33 64L36 64L36 61ZM61 61L61 64L64 64L64 61ZM34 62L34 63L35 63L35 62ZM37 62L37 63L38 63L38 62ZM62 62L62 63L63 63L63 62ZM41 63L41 65L42 65L42 67L43 67L43 65L44 65L44 63L43 63L43 65L42 65L42 63ZM52 64L52 67L53 67L53 66L54 66L54 65L55 65L55 64L54 64L54 65L53 65L53 64ZM28 66L28 67L30 67L30 66ZM46 67L46 69L47 69L47 67ZM57 67L57 68L58 68L58 67ZM11 68L11 69L12 69L12 68ZM68 68L68 69L69 69L69 68ZM0 0L0 7L7 7L7 0ZM1 1L1 6L6 6L6 1ZM2 2L2 5L5 5L5 2ZM62 0L62 7L69 7L69 0ZM63 1L63 6L68 6L68 1ZM64 2L64 5L67 5L67 2ZM0 62L0 69L7 69L7 62ZM1 63L1 68L6 68L6 63ZM2 64L2 67L5 67L5 64Z" fill="#000000"/></g></g></svg>
