<?xml version="1.0" encoding="UTF-8"?>
<svg xmlns="http://www.w3.org/2000/svg" version="1.1" width="300" height="300" viewBox="0 0 300 300"><rect x="0" y="0" width="300" height="300" fill="#ffffff"/><g transform="scale(4.348)"><g transform="translate(0,0)"><path fill-rule="evenodd" d="M8 0L8 4L9 4L9 5L8 5L8 7L9 7L9 5L11 5L11 6L10 6L10 7L11 7L11 6L12 6L12 8L14 8L14 7L15 7L15 9L14 9L14 10L13 10L13 9L12 9L12 10L11 10L11 9L9 9L9 10L11 10L11 11L12 11L12 12L13 12L13 11L14 11L14 13L13 13L13 14L14 14L14 16L13 16L13 15L11 15L11 16L12 16L12 17L10 17L10 16L9 16L9 15L10 15L10 14L12 14L12 13L10 13L10 14L8 14L8 15L7 15L7 14L3 14L3 13L4 13L4 12L6 12L6 13L7 13L7 12L8 12L8 11L7 11L7 10L6 10L6 11L5 11L5 10L4 10L4 9L7 9L7 8L4 8L4 9L3 9L3 13L2 13L2 14L1 14L1 10L0 10L0 19L2 19L2 18L3 18L3 20L2 20L2 21L3 21L3 23L1 23L1 24L0 24L0 27L1 27L1 24L2 24L2 25L4 25L4 27L2 27L2 28L1 28L1 29L0 29L0 31L1 31L1 32L2 32L2 31L1 31L1 29L2 29L2 30L3 30L3 35L2 35L2 34L1 34L1 35L0 35L0 36L1 36L1 37L0 37L0 39L1 39L1 40L0 40L0 41L1 41L1 42L0 42L0 45L1 45L1 46L0 46L0 48L1 48L1 49L2 49L2 51L1 51L1 52L3 52L3 53L2 53L2 55L3 55L3 56L2 56L2 57L1 57L1 53L0 53L0 57L1 57L1 58L0 58L0 61L1 61L1 58L2 58L2 59L3 59L3 58L2 58L2 57L4 57L4 55L5 55L5 58L4 58L4 59L10 59L10 58L11 58L11 59L14 59L14 60L11 60L11 61L9 61L9 60L6 60L6 61L8 61L8 62L9 62L9 63L8 63L8 65L9 65L9 64L10 64L10 66L9 66L9 67L8 67L8 69L10 69L10 66L11 66L11 68L12 68L12 65L14 65L14 64L13 64L13 63L15 63L15 64L16 64L16 65L15 65L15 66L16 66L16 65L17 65L17 66L19 66L19 67L20 67L20 66L22 66L22 62L23 62L23 67L22 67L22 68L21 68L21 69L22 69L22 68L26 68L26 69L29 69L29 67L28 67L28 64L29 64L29 66L30 66L30 67L31 67L31 65L32 65L32 69L33 69L33 68L34 68L34 69L38 69L38 68L39 68L39 69L40 69L40 68L43 68L43 63L42 63L42 62L45 62L45 61L46 61L46 59L47 59L47 61L50 61L50 62L47 62L47 63L46 63L46 64L45 64L45 63L44 63L44 67L46 67L46 65L49 65L49 64L47 64L47 63L50 63L50 68L48 68L48 67L47 67L47 68L44 68L44 69L52 69L52 68L54 68L54 69L55 69L55 68L56 68L56 69L57 69L57 68L60 68L60 67L57 67L57 68L56 68L56 67L55 67L55 68L54 68L54 66L55 66L55 64L56 64L56 66L58 66L58 63L57 63L57 62L58 62L58 61L59 61L59 63L60 63L60 65L59 65L59 66L61 66L61 68L62 68L62 69L64 69L64 68L65 68L65 63L66 63L66 62L67 62L67 63L68 63L68 64L67 64L67 66L69 66L69 65L68 65L68 64L69 64L69 63L68 63L68 62L69 62L69 61L66 61L66 59L68 59L68 60L69 60L69 59L68 59L68 57L69 57L69 55L68 55L68 53L69 53L69 52L68 52L68 51L69 51L69 48L68 48L68 45L69 45L69 43L68 43L68 42L67 42L67 41L68 41L68 40L69 40L69 39L68 39L68 38L69 38L69 36L68 36L68 38L67 38L67 36L65 36L65 34L67 34L67 35L68 35L68 33L66 33L66 32L63 32L63 31L64 31L64 30L63 30L63 29L64 29L64 28L65 28L65 29L66 29L66 27L65 27L65 26L64 26L64 23L62 23L62 22L64 22L64 20L65 20L65 19L67 19L67 20L66 20L66 22L65 22L65 23L67 23L67 25L66 25L66 26L67 26L67 27L68 27L68 28L67 28L67 29L68 29L68 28L69 28L69 27L68 27L68 26L69 26L69 25L68 25L68 21L69 21L69 20L68 20L68 18L67 18L67 17L69 17L69 16L68 16L68 14L69 14L69 13L68 13L68 12L69 12L69 11L68 11L68 10L69 10L69 8L65 8L65 9L67 9L67 10L65 10L65 11L68 11L68 12L66 12L66 13L68 13L68 14L67 14L67 16L66 16L66 18L65 18L65 17L64 17L64 16L65 16L65 14L64 14L64 13L63 13L63 11L62 11L62 10L64 10L64 8L63 8L63 9L62 9L62 10L61 10L61 6L60 6L60 7L59 7L59 4L57 4L57 5L56 5L56 2L57 2L57 3L59 3L59 2L57 2L57 1L61 1L61 0L56 0L56 2L55 2L55 0L53 0L53 2L52 2L52 0L50 0L50 1L47 1L47 3L46 3L46 4L45 4L45 6L44 6L44 3L45 3L45 2L46 2L46 0L45 0L45 1L44 1L44 0L40 0L40 1L39 1L39 0L38 0L38 1L37 1L37 0L35 0L35 1L34 1L34 0L32 0L32 1L31 1L31 0L29 0L29 1L30 1L30 3L31 3L31 4L30 4L30 5L29 5L29 6L28 6L28 4L29 4L29 2L28 2L28 3L27 3L27 1L26 1L26 0L22 0L22 1L21 1L21 0L15 0L15 2L14 2L14 0L13 0L13 2L12 2L12 1L9 1L9 0ZM16 1L16 2L15 2L15 3L14 3L14 2L13 2L13 3L12 3L12 4L11 4L11 5L12 5L12 4L13 4L13 7L14 7L14 4L16 4L16 2L17 2L17 7L16 7L16 6L15 6L15 7L16 7L16 8L19 8L19 9L17 9L17 10L14 10L14 11L15 11L15 13L16 13L16 12L17 12L17 11L18 11L18 12L19 12L19 14L20 14L20 12L21 12L21 13L23 13L23 12L24 12L24 11L23 11L23 12L22 12L22 10L23 10L23 9L24 9L24 10L25 10L25 11L26 11L26 12L28 12L28 14L29 14L29 15L30 15L30 16L31 16L31 14L29 14L29 12L31 12L31 13L32 13L32 16L33 16L33 17L34 17L34 19L32 19L32 20L31 20L31 19L29 19L29 18L31 18L31 17L29 17L29 16L28 16L28 15L27 15L27 13L25 13L25 14L24 14L24 15L19 15L19 16L18 16L18 17L17 17L17 18L15 18L15 19L14 19L14 20L13 20L13 21L12 21L12 19L10 19L10 18L7 18L7 17L8 17L8 16L7 16L7 15L6 15L6 16L7 16L7 17L6 17L6 18L5 18L5 17L4 17L4 15L3 15L3 14L2 14L2 16L1 16L1 18L2 18L2 17L4 17L4 18L5 18L5 19L6 19L6 20L3 20L3 21L4 21L4 22L7 22L7 23L6 23L6 24L8 24L8 22L10 22L10 23L9 23L9 24L10 24L10 25L9 25L9 26L7 26L7 25L6 25L6 26L5 26L5 27L4 27L4 28L2 28L2 29L4 29L4 30L7 30L7 29L8 29L8 28L9 28L9 29L10 29L10 30L9 30L9 31L6 31L6 32L9 32L9 31L10 31L10 30L12 30L12 31L14 31L14 32L15 32L15 33L13 33L13 34L10 34L10 35L11 35L11 36L12 36L12 39L10 39L10 38L11 38L11 37L10 37L10 36L9 36L9 37L10 37L10 38L9 38L9 39L8 39L8 37L5 37L5 38L7 38L7 39L4 39L4 38L3 38L3 37L4 37L4 35L3 35L3 37L2 37L2 38L1 38L1 39L2 39L2 41L3 41L3 40L8 40L8 41L9 41L9 42L8 42L8 43L6 43L6 44L7 44L7 45L4 45L4 44L5 44L5 43L3 43L3 42L2 42L2 43L1 43L1 45L2 45L2 49L3 49L3 51L4 51L4 50L5 50L5 52L4 52L4 54L3 54L3 55L4 55L4 54L5 54L5 55L6 55L6 56L7 56L7 55L6 55L6 54L8 54L8 55L9 55L9 56L8 56L8 58L9 58L9 56L12 56L12 58L14 58L14 59L15 59L15 60L14 60L14 62L15 62L15 60L16 60L16 62L17 62L17 61L18 61L18 63L17 63L17 65L18 65L18 64L19 64L19 65L20 65L20 64L19 64L19 63L20 63L20 61L18 61L18 60L19 60L19 58L20 58L20 52L19 52L19 54L18 54L18 53L16 53L16 52L17 52L17 50L18 50L18 51L20 51L20 50L21 50L21 51L22 51L22 50L23 50L23 47L22 47L22 49L19 49L19 48L21 48L21 47L20 47L20 45L21 45L21 46L23 46L23 44L24 44L24 43L22 43L22 45L21 45L21 43L20 43L20 44L19 44L19 42L20 42L20 39L21 39L21 41L22 41L22 42L23 42L23 41L24 41L24 42L25 42L25 43L26 43L26 44L25 44L25 45L26 45L26 47L25 47L25 46L24 46L24 47L25 47L25 48L27 48L27 51L28 51L28 50L31 50L31 51L29 51L29 52L31 52L31 53L28 53L28 52L27 52L27 53L28 53L28 54L27 54L27 55L28 55L28 54L31 54L31 55L29 55L29 56L28 56L28 59L29 59L29 60L27 60L27 59L26 59L26 60L25 60L25 58L27 58L27 57L26 57L26 55L25 55L25 54L26 54L26 50L25 50L25 51L24 51L24 52L22 52L22 53L21 53L21 55L22 55L22 56L24 56L24 55L25 55L25 58L24 58L24 57L21 57L21 59L20 59L20 60L22 60L22 61L21 61L21 62L22 62L22 61L25 61L25 62L26 62L26 60L27 60L27 61L28 61L28 62L29 62L29 63L30 63L30 64L31 64L31 63L32 63L32 61L31 61L31 62L29 62L29 60L31 60L31 59L32 59L32 60L34 60L34 57L37 57L37 58L36 58L36 59L35 59L35 60L37 60L37 58L38 58L38 59L39 59L39 60L38 60L38 61L37 61L37 62L38 62L38 64L37 64L37 66L36 66L36 65L34 65L34 66L35 66L35 67L34 67L34 68L35 68L35 67L36 67L36 68L38 68L38 67L39 67L39 66L40 66L40 65L41 65L41 64L40 64L40 62L41 62L41 61L44 61L44 60L45 60L45 59L44 59L44 60L40 60L40 59L43 59L43 58L40 58L40 57L41 57L41 56L42 56L42 54L40 54L40 53L41 53L41 52L42 52L42 53L43 53L43 54L44 54L44 55L43 55L43 57L44 57L44 55L45 55L45 53L46 53L46 54L47 54L47 53L46 53L46 52L45 52L45 51L44 51L44 52L43 52L43 50L42 50L42 51L41 51L41 52L40 52L40 51L39 51L39 52L40 52L40 53L39 53L39 55L38 55L38 51L37 51L37 49L39 49L39 47L38 47L38 45L37 45L37 43L38 43L38 44L40 44L40 46L41 46L41 48L40 48L40 49L42 49L42 47L44 47L44 48L43 48L43 49L44 49L44 50L45 50L45 49L44 49L44 48L46 48L46 47L44 47L44 45L43 45L43 44L41 44L41 42L39 42L39 43L38 43L38 39L40 39L40 41L42 41L42 40L43 40L43 43L44 43L44 40L45 40L45 39L46 39L46 42L45 42L45 43L46 43L46 44L45 44L45 45L46 45L46 46L47 46L47 47L48 47L48 48L49 48L49 46L50 46L50 45L51 45L51 46L52 46L52 45L53 45L53 43L54 43L54 45L55 45L55 46L54 46L54 49L56 49L56 52L55 52L55 51L53 51L53 52L52 52L52 50L53 50L53 48L52 48L52 50L51 50L51 52L50 52L50 53L48 53L48 55L47 55L47 57L46 57L46 58L47 58L47 59L48 59L48 60L50 60L50 59L52 59L52 57L53 57L53 56L54 56L54 57L56 57L56 59L54 59L54 58L53 58L53 60L52 60L52 61L51 61L51 62L50 62L50 63L52 63L52 65L51 65L51 66L52 66L52 67L53 67L53 64L55 64L55 63L56 63L56 64L57 64L57 63L56 63L56 60L57 60L57 57L58 57L58 60L59 60L59 61L60 61L60 59L61 59L61 60L63 60L63 58L62 58L62 59L61 59L61 58L60 58L60 59L59 59L59 57L60 57L60 56L61 56L61 57L62 57L62 56L61 56L61 55L59 55L59 53L60 53L60 54L61 54L61 52L62 52L62 53L64 53L64 54L62 54L62 55L64 55L64 59L65 59L65 56L66 56L66 58L67 58L67 56L68 56L68 55L67 55L67 54L65 54L65 52L67 52L67 51L68 51L68 48L67 48L67 46L66 46L66 44L67 44L67 42L66 42L66 43L65 43L65 41L66 41L66 40L68 40L68 39L66 39L66 37L63 37L63 38L62 38L62 37L61 37L61 38L62 38L62 39L64 39L64 40L63 40L63 41L62 41L62 40L59 40L59 38L60 38L60 37L59 37L59 36L57 36L57 37L58 37L58 40L57 40L57 41L56 41L56 39L57 39L57 38L56 38L56 35L60 35L60 32L58 32L58 34L55 34L55 36L52 36L52 34L53 34L53 35L54 35L54 33L53 33L53 32L55 32L55 31L50 31L50 29L51 29L51 30L52 30L52 29L54 29L54 28L52 28L52 29L51 29L51 28L50 28L50 25L49 25L49 26L47 26L47 25L48 25L48 23L49 23L49 24L50 24L50 23L51 23L51 22L50 22L50 21L51 21L51 20L52 20L52 22L53 22L53 23L52 23L52 26L51 26L51 27L52 27L52 26L53 26L53 27L54 27L54 24L55 24L55 25L56 25L56 23L59 23L59 24L58 24L58 26L57 26L57 27L55 27L55 30L56 30L56 31L59 31L59 28L61 28L61 27L58 27L58 26L59 26L59 25L60 25L60 24L62 24L62 25L61 25L61 26L62 26L62 25L63 25L63 24L62 24L62 23L60 23L60 22L59 22L59 21L61 21L61 22L62 22L62 21L63 21L63 19L64 19L64 17L63 17L63 19L62 19L62 15L64 15L64 14L62 14L62 12L60 12L60 13L59 13L59 12L58 12L58 11L59 11L59 9L60 9L60 8L59 8L59 9L58 9L58 8L57 8L57 7L58 7L58 5L57 5L57 7L56 7L56 5L55 5L55 7L56 7L56 8L55 8L55 9L56 9L56 8L57 8L57 10L56 10L56 11L57 11L57 13L58 13L58 14L56 14L56 13L55 13L55 12L52 12L52 13L51 13L51 12L50 12L50 13L49 13L49 15L48 15L48 13L46 13L46 14L45 14L45 13L44 13L44 12L40 12L40 11L42 11L42 9L41 9L41 7L42 7L42 6L43 6L43 9L44 9L44 11L45 11L45 12L47 12L47 11L46 11L46 10L47 10L47 8L49 8L49 10L50 10L50 8L49 8L49 7L50 7L50 6L51 6L51 7L52 7L52 9L51 9L51 11L52 11L52 10L53 10L53 7L54 7L54 5L53 5L53 7L52 7L52 3L51 3L51 5L50 5L50 3L49 3L49 2L48 2L48 3L47 3L47 4L46 4L46 5L47 5L47 8L45 8L45 7L46 7L46 6L45 6L45 7L44 7L44 6L43 6L43 5L40 5L40 2L42 2L42 3L41 3L41 4L43 4L43 3L44 3L44 2L42 2L42 1L40 1L40 2L39 2L39 1L38 1L38 3L37 3L37 2L36 2L36 3L34 3L34 1L33 1L33 3L32 3L32 2L31 2L31 3L32 3L32 4L31 4L31 5L30 5L30 6L29 6L29 7L28 7L28 6L27 6L27 7L28 7L28 8L30 8L30 6L31 6L31 8L32 8L32 6L31 6L31 5L32 5L32 4L33 4L33 3L34 3L34 4L37 4L37 5L38 5L38 6L37 6L37 10L36 10L36 9L34 9L34 11L36 11L36 13L32 13L32 12L33 12L33 9L28 9L28 10L31 10L31 11L26 11L26 10L25 10L25 9L26 9L26 8L25 8L25 7L26 7L26 4L27 4L27 3L26 3L26 1L25 1L25 2L23 2L23 1L22 1L22 3L21 3L21 2L20 2L20 1L19 1L19 3L18 3L18 2L17 2L17 1ZM9 2L9 3L10 3L10 2ZM53 2L53 3L54 3L54 4L55 4L55 2ZM13 3L13 4L14 4L14 3ZM20 3L20 5L19 5L19 4L18 4L18 7L19 7L19 6L20 6L20 7L21 7L21 6L20 6L20 5L21 5L21 3ZM22 3L22 5L23 5L23 6L22 6L22 8L24 8L24 9L25 9L25 8L24 8L24 7L25 7L25 6L24 6L24 5L25 5L25 4L26 4L26 3L25 3L25 4L23 4L23 3ZM60 3L60 5L61 5L61 3ZM38 4L38 5L39 5L39 4ZM48 4L48 5L49 5L49 4ZM33 5L33 8L36 8L36 5ZM23 6L23 7L24 7L24 6ZM34 6L34 7L35 7L35 6ZM38 6L38 7L39 7L39 6ZM40 6L40 7L41 7L41 6ZM48 6L48 7L49 7L49 6ZM0 8L0 9L2 9L2 8ZM20 8L20 10L18 10L18 11L19 11L19 12L20 12L20 10L22 10L22 9L21 9L21 8ZM38 8L38 10L39 10L39 11L40 11L40 10L41 10L41 9L39 9L39 8ZM44 8L44 9L45 9L45 10L46 10L46 9L45 9L45 8ZM6 11L6 12L7 12L7 11ZM9 11L9 12L10 12L10 11ZM31 11L31 12L32 12L32 11ZM37 11L37 13L36 13L36 14L37 14L37 13L38 13L38 14L41 14L41 15L37 15L37 16L36 16L36 15L34 15L34 16L35 16L35 18L37 18L37 19L34 19L34 21L35 21L35 22L34 22L34 25L32 25L32 23L33 23L33 21L32 21L32 23L31 23L31 22L30 22L30 21L31 21L31 20L29 20L29 19L27 19L27 20L26 20L26 21L25 21L25 20L23 20L23 19L24 19L24 18L25 18L25 19L26 19L26 18L25 18L25 17L27 17L27 18L28 18L28 17L27 17L27 16L26 16L26 14L25 14L25 16L23 16L23 17L21 17L21 16L19 16L19 17L18 17L18 18L19 18L19 17L21 17L21 18L20 18L20 19L17 19L17 21L16 21L16 19L15 19L15 20L14 20L14 21L15 21L15 22L16 22L16 23L14 23L14 24L13 24L13 22L12 22L12 24L11 24L11 25L10 25L10 27L12 27L12 28L11 28L11 29L12 29L12 30L13 30L13 29L15 29L15 30L14 30L14 31L16 31L16 32L17 32L17 31L18 31L18 30L19 30L19 28L20 28L20 30L21 30L21 31L22 31L22 32L20 32L20 33L19 33L19 32L18 32L18 33L17 33L17 34L16 34L16 33L15 33L15 36L14 36L14 34L13 34L13 36L14 36L14 38L16 38L16 39L17 39L17 42L16 42L16 43L15 43L15 41L16 41L16 40L15 40L15 39L14 39L14 40L13 40L13 39L12 39L12 40L11 40L11 42L9 42L9 43L12 43L12 42L13 42L13 41L14 41L14 43L13 43L13 44L17 44L17 45L18 45L18 47L17 47L17 48L16 48L16 45L13 45L13 46L15 46L15 50L13 50L13 49L12 49L12 45L11 45L11 50L10 50L10 49L9 49L9 47L10 47L10 46L9 46L9 45L10 45L10 44L9 44L9 45L7 45L7 46L5 46L5 47L4 47L4 46L3 46L3 47L4 47L4 48L5 48L5 50L6 50L6 51L7 51L7 50L8 50L8 49L9 49L9 50L10 50L10 52L9 52L9 54L10 54L10 53L12 53L12 54L14 54L14 57L15 57L15 59L16 59L16 58L17 58L17 57L19 57L19 56L17 56L17 54L16 54L16 53L15 53L15 52L16 52L16 51L15 51L15 50L16 50L16 49L18 49L18 50L19 50L19 49L18 49L18 48L19 48L19 44L18 44L18 43L17 43L17 42L18 42L18 41L19 41L19 40L18 40L18 39L20 39L20 38L21 38L21 39L22 39L22 40L23 40L23 39L24 39L24 38L25 38L25 37L24 37L24 36L23 36L23 37L24 37L24 38L21 38L21 37L22 37L22 32L26 32L26 33L23 33L23 35L25 35L25 34L26 34L26 35L27 35L27 33L29 33L29 34L28 34L28 36L26 36L26 38L27 38L27 39L25 39L25 40L24 40L24 41L25 41L25 42L26 42L26 43L27 43L27 44L26 44L26 45L27 45L27 47L28 47L28 49L32 49L32 48L33 48L33 49L34 49L34 50L33 50L33 51L32 51L32 53L33 53L33 57L34 57L34 55L35 55L35 56L36 56L36 55L37 55L37 56L38 56L38 58L39 58L39 59L40 59L40 58L39 58L39 57L40 57L40 55L39 55L39 56L38 56L38 55L37 55L37 53L36 53L36 52L35 52L35 50L36 50L36 49L37 49L37 48L38 48L38 47L37 47L37 46L35 46L35 45L33 45L33 44L32 44L32 43L31 43L31 44L30 44L30 43L29 43L29 42L28 42L28 39L31 39L31 38L32 38L32 39L33 39L33 40L29 40L29 41L31 41L31 42L32 42L32 41L33 41L33 43L34 43L34 42L35 42L35 41L36 41L36 42L37 42L37 41L36 41L36 40L35 40L35 39L36 39L36 38L37 38L37 39L38 39L38 38L39 38L39 37L40 37L40 39L43 39L43 37L44 37L44 39L45 39L45 37L46 37L46 35L48 35L48 33L50 33L50 34L52 34L52 33L50 33L50 32L49 32L49 31L48 31L48 30L46 30L46 29L50 29L50 28L49 28L49 27L47 27L47 26L46 26L46 25L47 25L47 22L48 22L48 21L50 21L50 19L52 19L52 18L51 18L51 13L50 13L50 15L49 15L49 16L48 16L48 15L47 15L47 14L46 14L46 15L45 15L45 14L44 14L44 13L40 13L40 12L39 12L39 13L38 13L38 11ZM48 11L48 12L49 12L49 11ZM17 13L17 15L18 15L18 13ZM52 13L52 15L53 15L53 14L55 14L55 16L56 16L56 17L53 17L53 19L54 19L54 20L56 20L56 22L57 22L57 20L56 20L56 19L54 19L54 18L56 18L56 17L57 17L57 19L58 19L58 20L59 20L59 19L60 19L60 20L61 20L61 21L62 21L62 20L61 20L61 16L59 16L59 19L58 19L58 16L56 16L56 14L55 14L55 13ZM60 13L60 14L61 14L61 15L62 15L62 14L61 14L61 13ZM42 14L42 15L43 15L43 17L44 17L44 14ZM58 14L58 15L59 15L59 14ZM15 15L15 17L16 17L16 15ZM37 16L37 18L38 18L38 19L37 19L37 22L35 22L35 25L34 25L34 26L33 26L33 27L32 27L32 26L30 26L30 25L28 25L28 24L31 24L31 23L28 23L28 22L29 22L29 21L28 21L28 22L27 22L27 21L26 21L26 22L27 22L27 23L26 23L26 24L27 24L27 25L25 25L25 26L24 26L24 25L21 25L21 23L22 23L22 24L25 24L25 22L23 22L23 20L22 20L22 19L23 19L23 18L22 18L22 19L21 19L21 20L22 20L22 22L20 22L20 20L19 20L19 21L17 21L17 23L16 23L16 24L14 24L14 25L17 25L17 24L19 24L19 25L18 25L18 26L16 26L16 27L15 27L15 26L14 26L14 28L15 28L15 29L16 29L16 30L17 30L17 27L18 27L18 26L19 26L19 25L21 25L21 26L20 26L20 28L22 28L22 29L23 29L23 28L22 28L22 26L23 26L23 27L24 27L24 28L25 28L25 29L26 29L26 27L27 27L27 29L28 29L28 30L29 30L29 28L30 28L30 27L32 27L32 28L31 28L31 29L30 29L30 31L27 31L27 30L23 30L23 31L27 31L27 32L30 32L30 31L31 31L31 29L33 29L33 30L32 30L32 32L33 32L33 30L34 30L34 31L35 31L35 32L36 32L36 31L37 31L37 34L38 34L38 36L37 36L37 38L38 38L38 37L39 37L39 35L41 35L41 34L40 34L40 33L44 33L44 34L43 34L43 35L44 35L44 34L45 34L45 35L46 35L46 34L47 34L47 32L46 32L46 31L45 31L45 29L46 29L46 27L43 27L43 26L41 26L41 24L43 24L43 25L44 25L44 26L45 26L45 25L44 25L44 24L45 24L45 23L46 23L46 22L47 22L47 21L46 21L46 20L47 20L47 19L49 19L49 18L48 18L48 17L46 17L46 16L45 16L45 17L46 17L46 18L47 18L47 19L46 19L46 20L45 20L45 19L44 19L44 18L41 18L41 17L42 17L42 16L40 16L40 18L38 18L38 16ZM6 18L6 19L7 19L7 18ZM40 18L40 19L41 19L41 22L40 22L40 20L39 20L39 19L38 19L38 20L39 20L39 21L38 21L38 22L37 22L37 24L36 24L36 26L37 26L37 28L38 28L38 27L39 27L39 29L38 29L38 30L37 30L37 29L36 29L36 30L37 30L37 31L39 31L39 30L40 30L40 32L39 32L39 33L38 33L38 34L39 34L39 33L40 33L40 32L41 32L41 31L43 31L43 30L44 30L44 29L45 29L45 28L44 28L44 29L40 29L40 28L43 28L43 27L40 27L40 24L41 24L41 23L43 23L43 24L44 24L44 23L43 23L43 21L42 21L42 19L41 19L41 18ZM8 19L8 20L9 20L9 21L10 21L10 22L11 22L11 21L10 21L10 20L9 20L9 19ZM43 19L43 20L44 20L44 22L46 22L46 21L45 21L45 20L44 20L44 19ZM0 20L0 22L1 22L1 20ZM6 20L6 21L7 21L7 22L8 22L8 21L7 21L7 20ZM35 20L35 21L36 21L36 20ZM67 20L67 21L68 21L68 20ZM53 21L53 22L54 22L54 23L55 23L55 21ZM18 22L18 23L19 23L19 24L20 24L20 23L19 23L19 22ZM39 22L39 23L40 23L40 22ZM3 23L3 24L4 24L4 23ZM27 23L27 24L28 24L28 23ZM38 24L38 25L37 25L37 26L38 26L38 25L39 25L39 24ZM12 25L12 27L13 27L13 25ZM27 25L27 27L28 27L28 28L29 28L29 26L28 26L28 25ZM67 25L67 26L68 26L68 25ZM6 26L6 27L5 27L5 29L7 29L7 28L8 28L8 27L7 27L7 26ZM25 26L25 27L26 27L26 26ZM34 26L34 28L33 28L33 29L34 29L34 30L35 30L35 29L34 29L34 28L35 28L35 26ZM6 27L6 28L7 28L7 27ZM57 27L57 28L56 28L56 29L57 29L57 30L58 30L58 27ZM62 27L62 28L63 28L63 27ZM61 29L61 30L62 30L62 31L63 31L63 30L62 30L62 29ZM65 30L65 31L67 31L67 30ZM44 31L44 33L45 33L45 34L46 34L46 32L45 32L45 31ZM10 32L10 33L11 33L11 32ZM5 33L5 36L8 36L8 33ZM31 33L31 34L30 34L30 35L29 35L29 36L28 36L28 38L30 38L30 37L29 37L29 36L30 36L30 35L31 35L31 36L32 36L32 33ZM33 33L33 36L36 36L36 33ZM61 33L61 36L64 36L64 33ZM6 34L6 35L7 35L7 34ZM20 34L20 35L19 35L19 38L20 38L20 36L21 36L21 34ZM34 34L34 35L35 35L35 34ZM62 34L62 35L63 35L63 34ZM16 35L16 38L17 38L17 35ZM49 35L49 36L47 36L47 38L48 38L48 39L47 39L47 45L48 45L48 46L49 46L49 44L48 44L48 42L49 42L49 40L50 40L50 43L51 43L51 45L52 45L52 41L51 41L51 38L52 38L52 39L53 39L53 40L54 40L54 38L55 38L55 37L52 37L52 36L51 36L51 35ZM40 36L40 37L41 37L41 36ZM42 36L42 37L43 37L43 36ZM50 36L50 37L48 37L48 38L49 38L49 39L48 39L48 40L49 40L49 39L50 39L50 37L51 37L51 36ZM32 37L32 38L33 38L33 37ZM2 38L2 39L3 39L3 38ZM34 38L34 39L35 39L35 38ZM64 38L64 39L65 39L65 38ZM9 40L9 41L10 41L10 40ZM14 40L14 41L15 41L15 40ZM25 40L25 41L26 41L26 40ZM33 40L33 41L35 41L35 40ZM58 40L58 41L57 41L57 42L58 42L58 41L59 41L59 44L58 44L58 43L57 43L57 44L56 44L56 45L57 45L57 46L55 46L55 48L56 48L56 49L57 49L57 52L56 52L56 53L55 53L55 52L53 52L53 53L54 53L54 55L55 55L55 56L56 56L56 57L57 57L57 56L58 56L58 57L59 57L59 55L57 55L57 56L56 56L56 55L55 55L55 54L56 54L56 53L58 53L58 52L59 52L59 50L58 50L58 49L59 49L59 48L58 48L58 45L59 45L59 44L60 44L60 45L61 45L61 43L62 43L62 41L59 41L59 40ZM64 40L64 41L63 41L63 43L64 43L64 45L63 45L63 44L62 44L62 45L63 45L63 46L64 46L64 45L65 45L65 43L64 43L64 41L65 41L65 40ZM4 41L4 42L7 42L7 41ZM53 41L53 42L54 42L54 43L56 43L56 41ZM27 42L27 43L28 43L28 44L27 44L27 45L28 45L28 47L32 47L32 46L33 46L33 45L32 45L32 44L31 44L31 45L28 45L28 44L29 44L29 43L28 43L28 42ZM2 44L2 45L3 45L3 44ZM57 44L57 45L58 45L58 44ZM41 45L41 46L43 46L43 45ZM7 46L7 47L6 47L6 48L7 48L7 49L6 49L6 50L7 50L7 49L8 49L8 46ZM34 46L34 47L33 47L33 48L34 48L34 49L35 49L35 48L37 48L37 47L35 47L35 46ZM59 46L59 47L60 47L60 48L61 48L61 47L62 47L62 49L60 49L60 51L62 51L62 52L63 52L63 51L64 51L64 52L65 52L65 51L67 51L67 49L66 49L66 50L64 50L64 47L62 47L62 46ZM65 46L65 47L66 47L66 46ZM13 47L13 48L14 48L14 47ZM34 47L34 48L35 48L35 47ZM50 47L50 49L46 49L46 50L48 50L48 52L49 52L49 51L50 51L50 49L51 49L51 47ZM57 48L57 49L58 49L58 48ZM62 49L62 51L63 51L63 49ZM11 50L11 51L12 51L12 50ZM13 51L13 53L14 53L14 54L15 54L15 57L17 57L17 56L16 56L16 54L15 54L15 53L14 53L14 51ZM6 52L6 53L8 53L8 52ZM34 52L34 54L35 54L35 55L36 55L36 54L35 54L35 52ZM44 52L44 53L45 53L45 52ZM51 52L51 53L50 53L50 55L48 55L48 58L49 58L49 59L50 59L50 58L51 58L51 57L52 57L52 56L53 56L53 55L52 55L52 56L50 56L50 55L51 55L51 54L52 54L52 52ZM23 53L23 55L24 55L24 54L25 54L25 53ZM64 54L64 55L65 55L65 54ZM29 56L29 57L31 57L31 56ZM6 57L6 58L7 58L7 57ZM49 57L49 58L50 58L50 57ZM29 58L29 59L31 59L31 58ZM32 58L32 59L33 59L33 58ZM22 59L22 60L24 60L24 59ZM3 60L3 61L5 61L5 60ZM39 60L39 61L38 61L38 62L39 62L39 61L40 61L40 60ZM53 60L53 62L52 62L52 63L53 63L53 62L54 62L54 63L55 63L55 60ZM12 61L12 62L11 62L11 65L12 65L12 63L13 63L13 61ZM33 61L33 64L36 64L36 61ZM61 61L61 64L64 64L64 61ZM34 62L34 63L35 63L35 62ZM62 62L62 63L63 63L63 62ZM24 63L24 64L25 64L25 65L27 65L27 64L28 64L28 63L27 63L27 64L26 64L26 63ZM38 64L38 66L39 66L39 65L40 65L40 64ZM61 65L61 66L62 66L62 68L63 68L63 67L64 67L64 65L63 65L63 66L62 66L62 65ZM24 66L24 67L25 67L25 66ZM26 66L26 67L27 67L27 68L28 68L28 67L27 67L27 66ZM15 67L15 69L17 69L17 67ZM18 68L18 69L19 69L19 68ZM30 68L30 69L31 69L31 68ZM68 68L68 69L69 69L69 68ZM0 0L0 7L7 7L7 0ZM1 1L1 6L6 6L6 1ZM2 2L2 5L5 5L5 2ZM62 0L62 7L69 7L69 0ZM63 1L63 6L68 6L68 1ZM64 2L64 5L67 5L67 2ZM0 62L0 69L7 69L7 62ZM1 63L1 68L6 68L6 63ZM2 64L2 67L5 67L5 64Z" fill="#000000"/></g></g></svg>
