<?xml version="1.0" encoding="UTF-8"?>
<svg xmlns="http://www.w3.org/2000/svg" version="1.1" width="300" height="300" viewBox="0 0 300 300"><rect x="0" y="0" width="300" height="300" fill="#ffffff"/><g transform="scale(4.348)"><g transform="translate(0,0)"><path fill-rule="evenodd" d="M8 0L8 1L9 1L9 2L8 2L8 5L9 5L9 6L8 6L8 7L9 7L9 8L8 8L8 10L10 10L10 11L9 11L9 13L7 13L7 12L5 12L5 13L7 13L7 14L5 14L5 15L3 15L3 14L2 14L2 13L3 13L3 12L4 12L4 11L7 11L7 10L6 10L6 9L7 9L7 8L6 8L6 9L4 9L4 8L0 8L0 12L1 12L1 11L2 11L2 9L3 9L3 10L4 10L4 11L3 11L3 12L2 12L2 13L0 13L0 14L1 14L1 16L2 16L2 15L3 15L3 17L2 17L2 20L3 20L3 19L7 19L7 20L6 20L6 21L8 21L8 19L10 19L10 20L11 20L11 18L9 18L9 17L7 17L7 16L6 16L6 17L5 17L5 15L7 15L7 14L8 14L8 16L10 16L10 15L9 15L9 14L14 14L14 15L13 15L13 16L14 16L14 17L13 17L13 18L12 18L12 21L13 21L13 18L14 18L14 20L15 20L15 21L16 21L16 17L17 17L17 16L16 16L16 14L17 14L17 15L19 15L19 16L18 16L18 17L19 17L19 16L20 16L20 19L18 19L18 18L17 18L17 21L18 21L18 22L17 22L17 23L19 23L19 22L20 22L20 23L23 23L23 22L24 22L24 23L27 23L27 25L26 25L26 24L22 24L22 25L23 25L23 26L21 26L21 24L17 24L17 25L16 25L16 24L15 24L15 26L17 26L17 27L16 27L16 28L15 28L15 27L12 27L12 26L14 26L14 23L16 23L16 22L14 22L14 23L13 23L13 22L12 22L12 23L11 23L11 21L9 21L9 22L5 22L5 21L4 21L4 22L2 22L2 21L1 21L1 23L2 23L2 24L1 24L1 26L2 26L2 25L3 25L3 28L2 28L2 29L3 29L3 28L5 28L5 29L4 29L4 30L3 30L3 31L2 31L2 30L1 30L1 29L0 29L0 33L1 33L1 31L2 31L2 34L1 34L1 37L0 37L0 39L1 39L1 40L0 40L0 42L1 42L1 43L0 43L0 48L2 48L2 50L1 50L1 51L2 51L2 52L5 52L5 54L4 54L4 55L3 55L3 54L2 54L2 53L1 53L1 56L0 56L0 61L1 61L1 58L2 58L2 59L3 59L3 58L2 58L2 57L1 57L1 56L2 56L2 55L3 55L3 57L4 57L4 59L7 59L7 60L6 60L6 61L8 61L8 62L10 62L10 63L11 63L11 64L9 64L9 65L8 65L8 69L12 69L12 68L11 68L11 66L12 66L12 67L15 67L15 68L16 68L16 69L18 69L18 67L20 67L20 69L24 69L24 68L22 68L22 67L20 67L20 65L21 65L21 66L23 66L23 67L25 67L25 68L27 68L27 69L30 69L30 68L31 68L31 67L33 67L33 68L34 68L34 69L35 69L35 68L34 68L34 67L33 67L33 66L36 66L36 67L38 67L38 68L39 68L39 69L42 69L42 68L43 68L43 67L41 67L41 66L42 66L42 65L40 65L40 64L41 64L41 62L39 62L39 61L40 61L40 60L41 60L41 61L42 61L42 60L41 60L41 59L42 59L42 58L43 58L43 56L41 56L41 55L42 55L42 53L43 53L43 54L44 54L44 55L46 55L46 54L47 54L47 55L48 55L48 56L50 56L50 57L49 57L49 59L48 59L48 58L47 58L47 59L48 59L48 60L45 60L45 62L44 62L44 60L43 60L43 63L44 63L44 64L43 64L43 65L45 65L45 62L46 62L46 63L47 63L47 62L46 62L46 61L49 61L49 62L48 62L48 64L49 64L49 65L51 65L51 66L50 66L50 68L49 68L49 69L53 69L53 68L55 68L55 66L56 66L56 68L58 68L58 69L59 69L59 68L61 68L61 69L63 69L63 67L62 67L62 66L63 66L63 65L64 65L64 66L65 66L65 67L64 67L64 68L65 68L65 67L66 67L66 66L68 66L68 61L67 61L67 60L68 60L68 59L69 59L69 58L68 58L68 56L69 56L69 55L67 55L67 60L66 60L66 59L63 59L63 57L65 57L65 58L66 58L66 57L65 57L65 55L64 55L64 56L63 56L63 55L62 55L62 53L60 53L60 50L61 50L61 52L64 52L64 51L62 51L62 48L61 48L61 47L63 47L63 50L64 50L64 48L66 48L66 46L67 46L67 48L69 48L69 46L67 46L67 45L66 45L66 46L61 46L61 45L62 45L62 44L61 44L61 43L62 43L62 42L63 42L63 43L64 43L64 45L65 45L65 42L66 42L66 43L68 43L68 44L69 44L69 43L68 43L68 42L66 42L66 41L67 41L67 40L68 40L68 41L69 41L69 40L68 40L68 39L67 39L67 38L69 38L69 37L68 37L68 36L69 36L69 32L65 32L65 29L64 29L64 25L63 25L63 22L62 22L62 21L61 21L61 20L63 20L63 21L64 21L64 24L66 24L66 23L67 23L67 24L68 24L68 25L67 25L67 26L65 26L65 27L66 27L66 30L67 30L67 31L68 31L68 29L67 29L67 26L69 26L69 22L68 22L68 21L67 21L67 22L65 22L65 21L66 21L66 20L64 20L64 19L63 19L63 18L62 18L62 19L61 19L61 18L60 18L60 17L58 17L58 16L56 16L56 15L54 15L54 14L51 14L51 13L50 13L50 12L53 12L53 11L50 11L50 12L49 12L49 10L50 10L50 9L48 9L48 8L46 8L46 9L47 9L47 11L46 11L46 10L45 10L45 9L43 9L43 6L44 6L44 8L45 8L45 5L46 5L46 7L47 7L47 5L48 5L48 7L49 7L49 8L50 8L50 7L51 7L51 6L50 6L50 5L52 5L52 4L51 4L51 3L50 3L50 2L49 2L49 1L50 1L50 0L49 0L49 1L48 1L48 0L47 0L47 1L46 1L46 2L45 2L45 0L44 0L44 2L43 2L43 3L42 3L42 4L43 4L43 6L42 6L42 5L41 5L41 4L38 4L38 2L36 2L36 4L34 4L34 3L35 3L35 2L34 2L34 0L33 0L33 1L30 1L30 0L28 0L28 2L27 2L27 1L26 1L26 2L25 2L25 0L23 0L23 2L25 2L25 5L24 5L24 7L23 7L23 4L22 4L22 7L21 7L21 3L20 3L20 2L21 2L21 1L19 1L19 0L17 0L17 1L15 1L15 0L13 0L13 1L12 1L12 0L11 0L11 1L10 1L10 0ZM37 0L37 1L38 1L38 0ZM39 0L39 1L40 1L40 2L39 2L39 3L41 3L41 2L42 2L42 1L43 1L43 0ZM51 0L51 1L52 1L52 3L53 3L53 1L55 1L55 2L54 2L54 4L56 4L56 2L58 2L58 3L57 3L57 5L55 5L55 6L54 6L54 5L53 5L53 6L52 6L52 8L51 8L51 9L53 9L53 10L55 10L55 11L54 11L54 12L55 12L55 14L57 14L57 15L60 15L60 16L61 16L61 17L64 17L64 15L63 15L63 12L64 12L64 9L65 9L65 12L66 12L66 10L67 10L67 11L69 11L69 8L68 8L68 9L67 9L67 8L64 8L64 9L63 9L63 11L61 11L61 12L62 12L62 13L61 13L61 15L60 15L60 12L59 12L59 11L60 11L60 10L62 10L62 8L61 8L61 6L60 6L60 7L59 7L59 4L58 4L58 3L59 3L59 2L58 2L58 1L61 1L61 0L57 0L57 1L56 1L56 0L53 0L53 1L52 1L52 0ZM13 1L13 2L11 2L11 3L13 3L13 4L10 4L10 2L9 2L9 4L10 4L10 5L11 5L11 7L10 7L10 6L9 6L9 7L10 7L10 10L11 10L11 13L12 13L12 12L13 12L13 11L14 11L14 9L17 9L17 12L19 12L19 11L20 11L20 13L23 13L23 14L24 14L24 16L22 16L22 14L19 14L19 13L18 13L18 14L19 14L19 15L20 15L20 16L22 16L22 17L23 17L23 18L24 18L24 19L25 19L25 18L26 18L26 19L27 19L27 20L24 20L24 21L25 21L25 22L30 22L30 24L29 24L29 23L28 23L28 26L29 26L29 27L28 27L28 28L27 28L27 26L26 26L26 25L24 25L24 27L23 27L23 28L22 28L22 27L20 27L20 28L19 28L19 27L17 27L17 28L16 28L16 29L17 29L17 31L16 31L16 30L15 30L15 29L14 29L14 31L13 31L13 32L12 32L12 30L9 30L9 31L8 31L8 29L10 29L10 27L11 27L11 26L12 26L12 25L13 25L13 23L12 23L12 25L11 25L11 23L10 23L10 24L9 24L9 25L10 25L10 26L9 26L9 27L8 27L8 28L7 28L7 27L6 27L6 26L7 26L7 25L6 25L6 24L7 24L7 23L6 23L6 24L5 24L5 25L4 25L4 23L3 23L3 25L4 25L4 27L5 27L5 28L7 28L7 29L6 29L6 30L7 30L7 31L5 31L5 30L4 30L4 31L5 31L5 32L9 32L9 33L13 33L13 37L12 37L12 38L11 38L11 35L9 35L9 37L6 37L6 38L5 38L5 37L4 37L4 36L3 36L3 34L2 34L2 37L1 37L1 38L2 38L2 37L3 37L3 38L4 38L4 39L2 39L2 40L3 40L3 41L2 41L2 42L3 42L3 43L4 43L4 42L3 42L3 41L4 41L4 40L7 40L7 41L5 41L5 42L7 42L7 41L8 41L8 40L9 40L9 41L10 41L10 44L13 44L13 46L12 46L12 45L9 45L9 46L7 46L7 45L6 45L6 46L5 46L5 44L8 44L8 43L5 43L5 44L4 44L4 46L3 46L3 45L1 45L1 46L3 46L3 47L5 47L5 49L4 49L4 50L3 50L3 51L4 51L4 50L5 50L5 52L7 52L7 51L6 51L6 50L7 50L7 49L6 49L6 48L7 48L7 47L8 47L8 48L9 48L9 50L8 50L8 51L10 51L10 52L8 52L8 54L7 54L7 53L6 53L6 54L7 54L7 55L6 55L6 56L7 56L7 57L6 57L6 58L7 58L7 57L8 57L8 58L9 58L9 59L10 59L10 60L8 60L8 61L10 61L10 62L11 62L11 63L12 63L12 64L13 64L13 65L12 65L12 66L13 66L13 65L14 65L14 64L15 64L15 65L16 65L16 64L17 64L17 63L21 63L21 64L22 64L22 65L24 65L24 66L25 66L25 67L26 67L26 66L27 66L27 65L28 65L28 66L29 66L29 67L30 67L30 66L31 66L31 64L30 64L30 62L32 62L32 60L33 60L33 59L35 59L35 58L33 58L33 57L32 57L32 56L31 56L31 55L33 55L33 56L34 56L34 55L33 55L33 54L32 54L32 51L33 51L33 53L36 53L36 54L35 54L35 56L36 56L36 57L37 57L37 58L38 58L38 59L39 59L39 60L40 60L40 58L39 58L39 56L40 56L40 55L41 55L41 52L42 52L42 51L43 51L43 52L44 52L44 50L45 50L45 48L46 48L46 50L47 50L47 51L48 51L48 50L47 50L47 48L48 48L48 47L47 47L47 45L46 45L46 44L44 44L44 42L45 42L45 43L46 43L46 42L45 42L45 41L43 41L43 40L45 40L45 39L47 39L47 40L46 40L46 41L47 41L47 44L48 44L48 45L49 45L49 44L50 44L50 43L51 43L51 44L52 44L52 43L53 43L53 45L52 45L52 46L51 46L51 45L50 45L50 46L49 46L49 49L51 49L51 51L53 51L53 52L52 52L52 53L53 53L53 52L55 52L55 50L56 50L56 49L57 49L57 48L58 48L58 50L57 50L57 53L58 53L58 52L59 52L59 51L58 51L58 50L59 50L59 49L61 49L61 48L60 48L60 47L61 47L61 46L60 46L60 42L62 42L62 41L61 41L61 39L63 39L63 38L65 38L65 37L62 37L62 38L59 38L59 37L60 37L60 35L58 35L58 36L57 36L57 35L55 35L55 36L56 36L56 37L58 37L58 38L59 38L59 39L58 39L58 41L59 41L59 42L58 42L58 44L56 44L56 42L57 42L57 41L55 41L55 40L54 40L54 39L56 39L56 40L57 40L57 38L55 38L55 37L53 37L53 36L52 36L52 35L54 35L54 32L53 32L53 31L55 31L55 29L54 29L54 28L53 28L53 26L51 26L51 28L50 28L50 26L49 26L49 25L53 25L53 24L55 24L55 23L56 23L56 21L57 21L57 24L56 24L56 25L54 25L54 26L55 26L55 27L56 27L56 28L57 28L57 29L56 29L56 33L55 33L55 34L56 34L56 33L58 33L58 34L59 34L59 33L58 33L58 32L57 32L57 29L58 29L58 28L57 28L57 26L58 26L58 27L59 27L59 26L60 26L60 28L59 28L59 29L60 29L60 30L58 30L58 31L59 31L59 32L63 32L63 31L62 31L62 30L64 30L64 29L63 29L63 28L62 28L62 25L61 25L61 24L60 24L60 25L58 25L58 24L59 24L59 23L58 23L58 22L59 22L59 21L57 21L57 20L58 20L58 19L59 19L59 20L61 20L61 19L59 19L59 18L58 18L58 19L57 19L57 17L54 17L54 16L53 16L53 15L48 15L48 14L49 14L49 13L47 13L47 12L48 12L48 11L47 11L47 12L44 12L44 10L43 10L43 12L41 12L41 13L42 13L42 14L43 14L43 15L41 15L41 14L40 14L40 11L39 11L39 9L40 9L40 8L38 8L38 6L39 6L39 7L40 7L40 6L39 6L39 5L38 5L38 4L37 4L37 8L38 8L38 10L37 10L37 11L38 11L38 12L39 12L39 14L37 14L37 12L36 12L36 9L35 9L35 10L34 10L34 9L32 9L32 6L31 6L31 9L32 9L32 10L34 10L34 11L35 11L35 12L36 12L36 15L34 15L34 20L36 20L36 21L35 21L35 22L34 22L34 21L33 21L33 20L32 20L32 19L31 19L31 18L32 18L32 17L31 17L31 16L30 16L30 15L31 15L31 14L32 14L32 13L33 13L33 14L35 14L35 13L34 13L34 12L33 12L33 11L32 11L32 13L31 13L31 14L30 14L30 15L29 15L29 16L28 16L28 17L26 17L26 16L27 16L27 11L28 11L28 10L30 10L30 11L29 11L29 12L30 12L30 11L31 11L31 10L30 10L30 9L29 9L29 7L30 7L30 6L29 6L29 7L28 7L28 5L29 5L29 3L30 3L30 2L28 2L28 5L26 5L26 6L25 6L25 7L24 7L24 8L23 8L23 7L22 7L22 8L18 8L18 9L17 9L17 7L18 7L18 5L19 5L19 7L20 7L20 4L18 4L18 5L17 5L17 3L19 3L19 1L17 1L17 3L16 3L16 2L15 2L15 1ZM31 2L31 4L30 4L30 5L31 5L31 4L32 4L32 3L33 3L33 2ZM14 3L14 4L13 4L13 5L14 5L14 4L16 4L16 3ZM26 3L26 4L27 4L27 3ZM44 3L44 4L45 4L45 3ZM46 3L46 5L47 5L47 3ZM49 3L49 4L48 4L48 5L49 5L49 4L50 4L50 3ZM60 3L60 5L61 5L61 3ZM33 5L33 8L36 8L36 5ZM12 6L12 7L13 7L13 8L12 8L12 9L13 9L13 8L15 8L15 6L14 6L14 7L13 7L13 6ZM16 6L16 7L17 7L17 6ZM26 6L26 7L25 7L25 8L27 8L27 9L26 9L26 11L27 11L27 9L28 9L28 7L27 7L27 6ZM34 6L34 7L35 7L35 6ZM41 6L41 7L42 7L42 6ZM49 6L49 7L50 7L50 6ZM53 6L53 7L54 7L54 8L55 8L55 10L57 10L57 11L58 11L58 10L60 10L60 9L59 9L59 7L58 7L58 6L57 6L57 7L56 7L56 6L55 6L55 7L54 7L54 6ZM55 7L55 8L56 8L56 7ZM22 8L22 9L23 9L23 10L22 10L22 11L21 11L21 12L22 12L22 11L23 11L23 13L25 13L25 16L24 16L24 17L25 17L25 16L26 16L26 13L25 13L25 10L24 10L24 9L23 9L23 8ZM41 8L41 9L42 9L42 8ZM57 8L57 9L58 9L58 8ZM18 9L18 10L20 10L20 9ZM12 10L12 11L13 11L13 10ZM41 10L41 11L42 11L42 10ZM55 11L55 12L56 12L56 13L57 13L57 12L56 12L56 11ZM43 12L43 13L44 13L44 12ZM58 12L58 14L59 14L59 12ZM68 12L68 13L64 13L64 14L65 14L65 18L66 18L66 16L67 16L67 15L66 15L66 14L69 14L69 12ZM14 13L14 14L15 14L15 13ZM28 13L28 14L29 14L29 13ZM45 13L45 15L44 15L44 16L43 16L43 18L42 18L42 16L41 16L41 17L40 17L40 14L39 14L39 15L36 15L36 16L38 16L38 17L39 17L39 20L38 20L38 18L37 18L37 17L35 17L35 18L36 18L36 20L37 20L37 22L38 22L38 23L40 23L40 24L42 24L42 25L44 25L44 27L42 27L42 26L41 26L41 27L42 27L42 28L41 28L41 29L39 29L39 30L38 30L38 31L40 31L40 32L37 32L37 30L34 30L34 28L33 28L33 27L32 27L32 26L30 26L30 27L29 27L29 28L30 28L30 27L31 27L31 28L33 28L33 29L32 29L32 30L33 30L33 31L31 31L31 30L29 30L29 29L27 29L27 28L25 28L25 27L26 27L26 26L25 26L25 27L24 27L24 28L23 28L23 30L24 30L24 29L27 29L27 30L25 30L25 31L24 31L24 33L23 33L23 31L22 31L22 32L21 32L21 33L22 33L22 34L19 34L19 33L17 33L17 34L16 34L16 31L15 31L15 33L14 33L14 32L13 32L13 33L14 33L14 36L15 36L15 38L16 38L16 40L15 40L15 41L14 41L14 39L13 39L13 38L12 38L12 39L9 39L9 38L10 38L10 37L9 37L9 38L6 38L6 39L9 39L9 40L11 40L11 41L12 41L12 39L13 39L13 42L11 42L11 43L14 43L14 44L15 44L15 45L18 45L18 44L19 44L19 46L18 46L18 48L17 48L17 50L16 50L16 49L15 49L15 48L14 48L14 50L13 50L13 52L14 52L14 53L13 53L13 54L10 54L10 53L11 53L11 52L10 52L10 53L9 53L9 54L10 54L10 55L9 55L9 56L10 56L10 55L13 55L13 54L14 54L14 56L13 56L13 57L15 57L15 55L16 55L16 59L15 59L15 60L12 60L12 57L11 57L11 58L10 58L10 57L9 57L9 58L10 58L10 59L11 59L11 60L10 60L10 61L14 61L14 63L15 63L15 64L16 64L16 63L17 63L17 62L16 62L16 61L15 61L15 60L16 60L16 59L17 59L17 60L18 60L18 62L21 62L21 61L19 61L19 58L17 58L17 57L18 57L18 56L20 56L20 57L21 57L21 58L20 58L20 59L21 59L21 60L23 60L23 61L22 61L22 64L25 64L25 66L26 66L26 64L27 64L27 62L28 62L28 61L31 61L31 60L32 60L32 59L30 59L30 60L29 60L29 59L28 59L28 58L25 58L25 57L24 57L24 56L23 56L23 54L24 54L24 55L26 55L26 54L24 54L24 52L25 52L25 53L28 53L28 54L30 54L30 55L31 55L31 53L30 53L30 52L31 52L31 51L32 51L32 49L31 49L31 48L32 48L32 47L31 47L31 48L29 48L29 49L30 49L30 50L27 50L27 49L25 49L25 48L24 48L24 47L22 47L22 48L23 48L23 49L25 49L25 50L24 50L24 52L23 52L23 50L22 50L22 49L21 49L21 50L20 50L20 49L19 49L19 51L18 51L18 48L21 48L21 47L19 47L19 46L20 46L20 44L21 44L21 46L25 46L25 45L23 45L23 43L22 43L22 42L25 42L25 41L28 41L28 42L29 42L29 43L27 43L27 42L26 42L26 43L27 43L27 45L28 45L28 44L31 44L31 45L33 45L33 44L34 44L34 47L33 47L33 48L38 48L38 49L36 49L36 50L34 50L34 49L33 49L33 50L34 50L34 51L35 51L35 52L39 52L39 53L38 53L38 54L39 54L39 55L38 55L38 56L39 56L39 55L40 55L40 54L39 54L39 53L40 53L40 52L39 52L39 50L40 50L40 49L39 49L39 47L40 47L40 48L42 48L42 49L44 49L44 48L43 48L43 47L46 47L46 48L47 48L47 47L46 47L46 46L44 46L44 45L42 45L42 44L41 44L41 45L40 45L40 44L39 44L39 47L36 47L36 45L35 45L35 43L33 43L33 42L36 42L36 43L37 43L37 46L38 46L38 43L39 43L39 42L40 42L40 43L43 43L43 42L42 42L42 41L41 41L41 42L40 42L40 40L41 40L41 39L39 39L39 40L38 40L38 41L39 41L39 42L38 42L38 43L37 43L37 42L36 42L36 41L34 41L34 40L37 40L37 37L38 37L38 38L39 38L39 37L38 37L38 35L37 35L37 34L38 34L38 33L40 33L40 34L39 34L39 35L42 35L42 36L43 36L43 38L44 38L44 39L45 39L45 38L46 38L46 37L47 37L47 39L48 39L48 40L49 40L49 41L52 41L52 39L51 39L51 36L50 36L50 35L49 35L49 34L50 34L50 33L51 33L51 34L53 34L53 32L52 32L52 30L54 30L54 29L52 29L52 28L51 28L51 32L50 32L50 30L49 30L49 29L47 29L47 28L46 28L46 29L45 29L45 28L44 28L44 27L45 27L45 26L46 26L46 27L48 27L48 26L46 26L46 25L47 25L47 24L48 24L48 25L49 25L49 24L51 24L51 22L52 22L52 23L55 23L55 21L54 21L54 20L56 20L56 18L54 18L54 17L53 17L53 19L52 19L52 18L50 18L50 19L48 19L48 17L45 17L45 16L47 16L47 14L46 14L46 13ZM11 15L11 17L12 17L12 15ZM32 15L32 16L33 16L33 15ZM61 15L61 16L62 16L62 15ZM68 15L68 18L67 18L67 20L69 20L69 19L68 19L68 18L69 18L69 15ZM15 16L15 17L14 17L14 18L15 18L15 17L16 17L16 16ZM51 16L51 17L52 17L52 16ZM0 17L0 18L1 18L1 17ZM3 17L3 18L5 18L5 17ZM6 17L6 18L7 18L7 19L8 19L8 18L7 18L7 17ZM28 17L28 18L29 18L29 20L28 20L28 21L30 21L30 20L31 20L31 21L32 21L32 20L31 20L31 19L30 19L30 17ZM44 17L44 18L43 18L43 19L42 19L42 21L44 21L44 22L43 22L43 23L42 23L42 24L43 24L43 23L44 23L44 25L46 25L46 23L49 23L49 20L48 20L48 21L47 21L47 18L45 18L45 17ZM21 18L21 19L20 19L20 20L23 20L23 19L22 19L22 18ZM44 18L44 20L45 20L45 21L46 21L46 19L45 19L45 18ZM40 19L40 20L41 20L41 19ZM50 19L50 22L51 22L51 20L52 20L52 19ZM18 20L18 21L19 21L19 20ZM20 21L20 22L21 22L21 21ZM22 21L22 22L23 22L23 21ZM40 21L40 23L41 23L41 21ZM31 22L31 23L33 23L33 24L32 24L32 25L34 25L34 26L35 26L35 25L37 25L37 26L38 26L38 27L35 27L35 29L36 29L36 28L37 28L37 29L38 29L38 27L39 27L39 26L40 26L40 25L37 25L37 24L35 24L35 23L34 23L34 22ZM60 22L60 23L61 23L61 22ZM30 24L30 25L31 25L31 24ZM34 24L34 25L35 25L35 24ZM5 25L5 26L6 26L6 25ZM18 25L18 26L20 26L20 25ZM0 27L0 28L1 28L1 27ZM12 28L12 29L13 29L13 28ZM21 28L21 30L19 30L19 29L18 29L18 31L19 31L19 32L20 32L20 31L21 31L21 30L22 30L22 28ZM42 28L42 29L41 29L41 30L40 30L40 31L41 31L41 33L42 33L42 32L43 32L43 35L45 35L45 34L46 34L46 35L47 35L47 36L49 36L49 37L50 37L50 36L49 36L49 35L47 35L47 31L44 31L44 30L45 30L45 29L44 29L44 30L43 30L43 28ZM28 30L28 31L25 31L25 34L27 34L27 35L28 35L28 38L27 38L27 36L25 36L25 35L24 35L24 36L22 36L22 37L23 37L23 39L22 39L22 38L17 38L17 35L16 35L16 34L15 34L15 36L16 36L16 38L17 38L17 40L16 40L16 41L15 41L15 44L17 44L17 43L19 43L19 44L20 44L20 43L19 43L19 42L21 42L21 41L23 41L23 39L24 39L24 38L25 38L25 37L26 37L26 38L27 38L27 39L25 39L25 40L24 40L24 41L25 41L25 40L29 40L29 42L31 42L31 44L32 44L32 42L31 42L31 41L33 41L33 39L28 39L28 38L29 38L29 35L28 35L28 32L29 32L29 33L30 33L30 34L31 34L31 35L30 35L30 36L32 36L32 34L31 34L31 31L29 31L29 30ZM60 30L60 31L61 31L61 30ZM48 31L48 33L49 33L49 31ZM26 32L26 33L27 33L27 32ZM5 33L5 36L8 36L8 33ZM33 33L33 36L36 36L36 33ZM44 33L44 34L45 34L45 33ZM61 33L61 36L64 36L64 33ZM67 33L67 34L68 34L68 33ZM6 34L6 35L7 35L7 34ZM18 34L18 35L19 35L19 34ZM34 34L34 35L35 35L35 34ZM62 34L62 35L63 35L63 34ZM20 35L20 37L21 37L21 35ZM66 35L66 38L67 38L67 35ZM24 36L24 37L25 37L25 36ZM44 36L44 38L45 38L45 36ZM30 37L30 38L31 38L31 37ZM33 37L33 38L35 38L35 39L36 39L36 38L35 38L35 37ZM52 37L52 38L53 38L53 39L54 39L54 38L53 38L53 37ZM48 38L48 39L49 39L49 38ZM19 39L19 41L21 41L21 39ZM50 39L50 40L51 40L51 39ZM30 40L30 41L31 41L31 40ZM59 40L59 41L60 41L60 40ZM63 40L63 41L64 41L64 40ZM16 41L16 42L17 42L17 41ZM53 41L53 43L55 43L55 42L54 42L54 41ZM48 42L48 44L49 44L49 42ZM51 42L51 43L52 43L52 42ZM21 43L21 44L22 44L22 43ZM24 43L24 44L25 44L25 43ZM58 44L58 45L59 45L59 44ZM29 45L29 47L30 47L30 45ZM41 45L41 47L42 47L42 45ZM53 45L53 46L52 46L52 47L50 47L50 48L51 48L51 49L52 49L52 50L53 50L53 51L54 51L54 50L53 50L53 49L52 49L52 47L53 47L53 48L54 48L54 49L56 49L56 48L54 48L54 47L53 47L53 46L55 46L55 47L56 47L56 46L57 46L57 45ZM6 46L6 47L7 47L7 46ZM10 46L10 47L9 47L9 48L10 48L10 47L11 47L11 46ZM13 46L13 47L12 47L12 48L13 48L13 47L14 47L14 46ZM15 46L15 47L16 47L16 46ZM26 46L26 47L27 47L27 48L28 48L28 46ZM58 47L58 48L59 48L59 47ZM5 49L5 50L6 50L6 49ZM10 49L10 50L11 50L11 51L12 51L12 50L11 50L11 49ZM65 49L65 50L66 50L66 49ZM67 49L67 50L68 50L68 49ZM14 50L14 51L15 51L15 53L16 53L16 51L15 51L15 50ZM21 50L21 51L22 51L22 50ZM26 50L26 52L27 52L27 50ZM36 50L36 51L37 51L37 50ZM28 51L28 52L29 52L29 51ZM45 51L45 53L46 53L46 51ZM49 51L49 52L47 52L47 53L48 53L48 54L50 54L50 56L53 56L53 55L54 55L54 57L52 57L52 60L50 60L50 61L51 61L51 62L50 62L50 63L51 63L51 64L52 64L52 65L54 65L54 66L55 66L55 64L57 64L57 65L58 65L58 64L59 64L59 66L57 66L57 67L58 67L58 68L59 68L59 66L61 66L61 65L60 65L60 58L62 58L62 57L60 57L60 56L61 56L61 54L60 54L60 53L59 53L59 54L58 54L58 55L59 55L59 57L57 57L57 56L55 56L55 55L56 55L56 54L55 54L55 53L54 53L54 54L53 54L53 55L51 55L51 52L50 52L50 51ZM65 51L65 53L63 53L63 54L67 54L67 52L68 52L68 54L69 54L69 52L68 52L68 51ZM17 52L17 53L18 53L18 54L17 54L17 55L18 55L18 54L21 54L21 56L22 56L22 59L23 59L23 60L24 60L24 62L25 62L25 64L26 64L26 62L27 62L27 59L26 59L26 61L25 61L25 58L24 58L24 57L23 57L23 56L22 56L22 54L21 54L21 53L20 53L20 52ZM22 52L22 53L23 53L23 52ZM36 54L36 55L37 55L37 54ZM59 54L59 55L60 55L60 54ZM4 55L4 56L5 56L5 55ZM7 55L7 56L8 56L8 55ZM28 55L28 57L29 57L29 58L32 58L32 57L29 57L29 55ZM45 56L45 57L46 57L46 56ZM50 57L50 58L51 58L51 57ZM54 57L54 61L55 61L55 62L52 62L52 63L57 63L57 62L58 62L58 61L59 61L59 60L57 60L57 62L56 62L56 59L58 59L58 58L55 58L55 57ZM44 58L44 59L45 59L45 58ZM36 59L36 60L37 60L37 61L38 61L38 60L37 60L37 59ZM62 59L62 60L63 60L63 59ZM3 60L3 61L5 61L5 60ZM65 60L65 63L67 63L67 61L66 61L66 60ZM33 61L33 64L36 64L36 61ZM61 61L61 64L64 64L64 61ZM12 62L12 63L13 63L13 62ZM15 62L15 63L16 63L16 62ZM34 62L34 63L35 63L35 62ZM62 62L62 63L63 63L63 62ZM37 63L37 64L38 64L38 66L39 66L39 67L40 67L40 68L41 68L41 67L40 67L40 66L39 66L39 63ZM18 64L18 66L19 66L19 64ZM9 65L9 68L10 68L10 65ZM29 65L29 66L30 66L30 65ZM36 65L36 66L37 66L37 65ZM46 65L46 68L45 68L45 69L48 69L48 68L47 68L47 65ZM65 65L65 66L66 66L66 65ZM16 66L16 68L17 68L17 66ZM44 66L44 67L45 67L45 66ZM52 66L52 68L53 68L53 66ZM68 67L68 68L69 68L69 67ZM66 68L66 69L67 69L67 68ZM0 0L0 7L7 7L7 0ZM1 1L1 6L6 6L6 1ZM2 2L2 5L5 5L5 2ZM62 0L62 7L69 7L69 0ZM63 1L63 6L68 6L68 1ZM64 2L64 5L67 5L67 2ZM0 62L0 69L7 69L7 62ZM1 63L1 68L6 68L6 63ZM2 64L2 67L5 67L5 64Z" fill="#000000"/></g></g></svg>
