<?xml version="1.0" encoding="UTF-8"?>
<svg xmlns="http://www.w3.org/2000/svg" version="1.1" width="300" height="300" viewBox="0 0 300 300"><rect x="0" y="0" width="300" height="300" fill="#ffffff"/><g transform="scale(4.348)"><g transform="translate(0,0)"><path fill-rule="evenodd" d="M8 0L8 4L10 4L10 5L8 5L8 7L9 7L9 9L10 9L10 10L9 10L9 11L10 11L10 10L11 10L11 12L10 12L10 13L11 13L11 14L9 14L9 12L8 12L8 14L6 14L6 13L7 13L7 12L5 12L5 11L4 11L4 12L5 12L5 13L3 13L3 14L2 14L2 15L0 15L0 17L1 17L1 18L2 18L2 19L0 19L0 21L1 21L1 22L0 22L0 28L2 28L2 31L4 31L4 30L3 30L3 29L4 29L4 27L5 27L5 28L6 28L6 29L7 29L7 30L5 30L5 31L7 31L7 32L3 32L3 34L2 34L2 33L1 33L1 34L0 34L0 35L1 35L1 36L2 36L2 38L3 38L3 40L2 40L2 39L1 39L1 40L2 40L2 41L1 41L1 42L0 42L0 44L1 44L1 42L2 42L2 41L3 41L3 42L4 42L4 43L5 43L5 44L3 44L3 43L2 43L2 45L1 45L1 49L2 49L2 50L1 50L1 51L0 51L0 53L2 53L2 54L0 54L0 55L1 55L1 56L2 56L2 57L1 57L1 58L0 58L0 61L1 61L1 58L2 58L2 59L3 59L3 58L2 58L2 57L3 57L3 56L5 56L5 58L4 58L4 59L7 59L7 58L6 58L6 57L9 57L9 56L10 56L10 53L11 53L11 54L13 54L13 53L14 53L14 52L16 52L16 51L17 51L17 53L20 53L20 54L19 54L19 56L18 56L18 55L17 55L17 54L16 54L16 53L15 53L15 54L14 54L14 55L17 55L17 57L15 57L15 59L13 59L13 60L15 60L15 61L14 61L14 62L13 62L13 61L10 61L10 60L11 60L11 59L12 59L12 58L11 58L11 57L13 57L13 58L14 58L14 56L13 56L13 55L12 55L12 56L11 56L11 57L10 57L10 59L9 59L9 60L6 60L6 61L8 61L8 62L10 62L10 63L11 63L11 62L13 62L13 63L14 63L14 62L15 62L15 63L16 63L16 64L17 64L17 63L18 63L18 61L19 61L19 60L20 60L20 62L21 62L21 63L22 63L22 64L20 64L20 65L19 65L19 64L18 64L18 65L17 65L17 66L16 66L16 65L14 65L14 64L13 64L13 65L12 65L12 66L11 66L11 64L9 64L9 63L8 63L8 65L9 65L9 66L11 66L11 67L10 67L10 69L11 69L11 68L12 68L12 69L15 69L15 68L16 68L16 69L19 69L19 68L17 68L17 66L18 66L18 67L20 67L20 66L21 66L21 67L22 67L22 68L21 68L21 69L22 69L22 68L23 68L23 69L24 69L24 68L23 68L23 67L24 67L24 66L25 66L25 69L29 69L29 67L28 67L28 62L27 62L27 61L29 61L29 63L31 63L31 64L30 64L30 65L29 65L29 66L30 66L30 67L31 67L31 68L30 68L30 69L31 69L31 68L32 68L32 69L33 69L33 68L34 68L34 67L35 67L35 69L40 69L40 68L42 68L42 67L43 67L43 69L45 69L45 67L47 67L47 66L48 66L48 65L49 65L49 64L50 64L50 67L49 67L49 68L46 68L46 69L50 69L50 67L52 67L52 68L51 68L51 69L52 69L52 68L54 68L54 69L55 69L55 67L52 67L52 60L53 60L53 61L54 61L54 63L53 63L53 66L56 66L56 65L57 65L57 66L58 66L58 65L59 65L59 66L61 66L61 67L60 67L60 68L59 68L59 67L58 67L58 68L59 68L59 69L61 69L61 68L62 68L62 69L64 69L64 67L65 67L65 66L69 66L69 63L68 63L68 65L65 65L65 63L66 63L66 62L67 62L67 61L68 61L68 60L69 60L69 59L68 59L68 58L69 58L69 57L68 57L68 56L69 56L69 55L67 55L67 54L66 54L66 53L69 53L69 52L68 52L68 51L69 51L69 48L67 48L67 49L65 49L65 47L66 47L66 46L67 46L67 44L65 44L65 45L66 45L66 46L64 46L64 45L63 45L63 46L64 46L64 47L62 47L62 45L60 45L60 46L58 46L58 45L59 45L59 44L61 44L61 43L62 43L62 41L63 41L63 43L64 43L64 41L65 41L65 42L66 42L66 43L68 43L68 45L69 45L69 43L68 43L68 42L67 42L67 41L69 41L69 39L68 39L68 38L69 38L69 36L68 36L68 38L67 38L67 37L65 37L65 33L66 33L66 34L67 34L67 35L68 35L68 33L69 33L69 32L67 32L67 33L66 33L66 32L63 32L63 31L68 31L68 30L65 30L65 29L66 29L66 28L65 28L65 29L64 29L64 27L63 27L63 26L66 26L66 25L67 25L67 27L68 27L68 28L67 28L67 29L68 29L68 28L69 28L69 27L68 27L68 26L69 26L69 25L68 25L68 21L69 21L69 20L68 20L68 18L67 18L67 20L68 20L68 21L66 21L66 19L65 19L65 17L64 17L64 16L65 16L65 14L64 14L64 15L62 15L62 14L63 14L63 13L64 13L64 12L65 12L65 11L68 11L68 12L66 12L66 13L68 13L68 14L67 14L67 16L66 16L66 17L68 17L68 14L69 14L69 13L68 13L68 12L69 12L69 11L68 11L68 10L69 10L69 8L65 8L65 9L67 9L67 10L64 10L64 8L63 8L63 9L60 9L60 7L61 7L61 6L60 6L60 7L59 7L59 4L58 4L58 5L57 5L57 6L56 6L56 3L59 3L59 2L57 2L57 1L61 1L61 0L57 0L57 1L56 1L56 0L52 0L52 2L51 2L51 0L50 0L50 2L49 2L49 0L48 0L48 1L47 1L47 3L46 3L46 2L45 2L45 1L46 1L46 0L45 0L45 1L44 1L44 0L41 0L41 1L42 1L42 2L45 2L45 3L46 3L46 4L45 4L45 6L44 6L44 9L42 9L42 8L41 8L41 6L42 6L42 7L43 7L43 5L44 5L44 3L43 3L43 4L42 4L42 3L40 3L40 0L38 0L38 1L37 1L37 0L36 0L36 1L35 1L35 2L34 2L34 3L32 3L32 5L31 5L31 4L30 4L30 5L29 5L29 6L28 6L28 4L29 4L29 2L28 2L28 3L27 3L27 2L26 2L26 0L23 0L23 1L22 1L22 0L15 0L15 1L14 1L14 0L10 0L10 1L12 1L12 2L11 2L11 3L15 3L15 4L14 4L14 5L13 5L13 6L12 6L12 7L13 7L13 6L14 6L14 9L13 9L13 8L11 8L11 4L10 4L10 3L9 3L9 0ZM30 0L30 3L31 3L31 2L32 2L32 1L33 1L33 0L32 0L32 1L31 1L31 0ZM13 1L13 2L14 2L14 1ZM16 1L16 2L15 2L15 3L16 3L16 5L17 5L17 7L16 7L16 6L15 6L15 7L16 7L16 8L18 8L18 5L20 5L20 6L19 6L19 7L20 7L20 8L19 8L19 13L21 13L21 15L20 15L20 14L19 14L19 16L18 16L18 17L17 17L17 16L16 16L16 15L15 15L15 16L13 16L13 15L14 15L14 13L15 13L15 10L13 10L13 9L11 9L11 10L12 10L12 12L11 12L11 13L13 13L13 14L12 14L12 15L11 15L11 16L12 16L12 18L11 18L11 17L9 17L9 16L10 16L10 15L9 15L9 16L8 16L8 15L6 15L6 14L5 14L5 15L3 15L3 16L2 16L2 18L3 18L3 17L4 17L4 19L3 19L3 20L2 20L2 21L3 21L3 20L4 20L4 21L5 21L5 22L4 22L4 23L3 23L3 24L2 24L2 22L1 22L1 24L2 24L2 25L1 25L1 26L2 26L2 28L3 28L3 27L4 27L4 26L5 26L5 25L4 25L4 24L7 24L7 25L6 25L6 26L8 26L8 24L10 24L10 25L9 25L9 26L10 26L10 25L11 25L11 27L10 27L10 28L9 28L9 27L8 27L8 28L7 28L7 27L6 27L6 28L7 28L7 29L8 29L8 28L9 28L9 29L10 29L10 28L11 28L11 30L12 30L12 31L13 31L13 32L12 32L12 33L10 33L10 32L11 32L11 31L10 31L10 32L9 32L9 31L8 31L8 32L9 32L9 40L8 40L8 41L4 41L4 40L5 40L5 38L4 38L4 37L3 37L3 38L4 38L4 40L3 40L3 41L4 41L4 42L5 42L5 43L6 43L6 44L5 44L5 46L4 46L4 45L3 45L3 47L4 47L4 49L3 49L3 48L2 48L2 49L3 49L3 50L4 50L4 49L5 49L5 48L7 48L7 49L6 49L6 50L5 50L5 51L6 51L6 52L3 52L3 51L1 51L1 52L2 52L2 53L4 53L4 55L5 55L5 53L6 53L6 54L7 54L7 53L6 53L6 52L7 52L7 51L8 51L8 50L7 50L7 49L9 49L9 48L10 48L10 50L11 50L11 51L12 51L12 49L11 49L11 48L15 48L15 47L12 47L12 46L11 46L11 47L9 47L9 46L10 46L10 45L8 45L8 44L12 44L12 43L11 43L11 42L9 42L9 40L10 40L10 41L11 41L11 39L12 39L12 40L13 40L13 41L12 41L12 42L13 42L13 41L14 41L14 43L13 43L13 46L14 46L14 45L15 45L15 44L14 44L14 43L16 43L16 42L17 42L17 43L18 43L18 44L20 44L20 45L17 45L17 44L16 44L16 50L18 50L18 49L19 49L19 51L20 51L20 50L21 50L21 49L19 49L19 48L18 48L18 49L17 49L17 47L18 47L18 46L19 46L19 47L20 47L20 48L21 48L21 47L23 47L23 48L22 48L22 49L23 49L23 48L24 48L24 47L25 47L25 48L27 48L27 50L26 50L26 52L25 52L25 50L24 50L24 51L23 51L23 50L22 50L22 53L21 53L21 55L20 55L20 56L19 56L19 57L17 57L17 58L16 58L16 59L15 59L15 60L16 60L16 62L17 62L17 61L18 61L18 59L20 59L20 58L19 58L19 57L21 57L21 58L23 58L23 59L21 59L21 61L25 61L25 62L26 62L26 56L27 56L27 57L28 57L28 59L29 59L29 58L30 58L30 60L33 60L33 59L34 59L34 60L35 60L35 59L36 59L36 60L37 60L37 62L38 62L38 63L37 63L37 64L40 64L40 65L39 65L39 66L38 66L38 65L37 65L37 66L35 66L35 65L34 65L34 66L35 66L35 67L36 67L36 68L37 68L37 67L38 67L38 68L40 68L40 67L41 67L41 66L40 66L40 65L41 65L41 63L43 63L43 67L44 67L44 63L45 63L45 65L46 65L46 66L47 66L47 63L48 63L48 64L49 64L49 63L51 63L51 62L50 62L50 61L51 61L51 60L52 60L52 57L53 57L53 54L52 54L52 53L56 53L56 52L57 52L57 53L58 53L58 54L59 54L59 55L61 55L61 56L58 56L58 55L55 55L55 58L56 58L56 60L55 60L55 61L56 61L56 60L57 60L57 61L58 61L58 63L59 63L59 61L60 61L60 59L63 59L63 58L62 58L62 55L64 55L64 56L63 56L63 57L64 57L64 60L65 60L65 61L67 61L67 58L68 58L68 57L65 57L65 56L67 56L67 55L64 55L64 54L65 54L65 53L66 53L66 52L67 52L67 51L68 51L68 49L67 49L67 50L66 50L66 51L65 51L65 52L64 52L64 51L63 51L63 50L65 50L65 49L63 49L63 50L62 50L62 47L61 47L61 50L62 50L62 51L63 51L63 53L62 53L62 52L61 52L61 53L62 53L62 55L61 55L61 54L60 54L60 52L59 52L59 53L58 53L58 50L59 50L59 51L60 51L60 50L59 50L59 49L60 49L60 48L59 48L59 49L58 49L58 46L57 46L57 45L58 45L58 44L59 44L59 43L58 43L58 42L59 42L59 41L60 41L60 42L61 42L61 41L62 41L62 40L63 40L63 41L64 41L64 40L65 40L65 41L67 41L67 40L68 40L68 39L66 39L66 38L65 38L65 37L62 37L62 39L61 39L61 41L60 41L60 40L59 40L59 39L58 39L58 38L59 38L59 37L60 37L60 38L61 38L61 37L60 37L60 36L59 36L59 35L60 35L60 34L59 34L59 33L60 33L60 32L61 32L61 31L63 31L63 30L62 30L62 29L61 29L61 30L60 30L60 31L59 31L59 29L60 29L60 28L61 28L61 27L62 27L62 28L63 28L63 27L62 27L62 24L63 24L63 22L62 22L62 21L61 21L61 19L62 19L62 20L63 20L63 19L64 19L64 17L63 17L63 19L62 19L62 15L61 15L61 14L62 14L62 13L63 13L63 12L64 12L64 10L63 10L63 12L62 12L62 13L61 13L61 12L60 12L60 13L59 13L59 12L57 12L57 13L56 13L56 11L57 11L57 9L56 9L56 6L55 6L55 8L54 8L54 5L53 5L53 8L52 8L52 3L51 3L51 2L50 2L50 3L47 3L47 4L46 4L46 6L45 6L45 7L46 7L46 6L47 6L47 8L45 8L45 9L44 9L44 11L42 11L42 9L41 9L41 8L40 8L40 9L39 9L39 7L40 7L40 5L41 5L41 4L40 4L40 3L39 3L39 1L38 1L38 3L37 3L37 5L38 5L38 4L39 4L39 7L38 7L38 6L37 6L37 7L38 7L38 8L37 8L37 9L39 9L39 11L37 11L37 10L36 10L36 9L35 9L35 11L36 11L36 13L34 13L34 11L33 11L33 9L32 9L32 10L31 10L31 9L27 9L27 10L28 10L28 12L27 12L27 11L26 11L26 8L27 8L27 7L28 7L28 8L30 8L30 6L31 6L31 7L32 7L32 6L31 6L31 5L30 5L30 6L29 6L29 7L28 7L28 6L27 6L27 7L26 7L26 5L27 5L27 3L25 3L25 1L23 1L23 2L24 2L24 4L25 4L25 5L20 5L20 3L21 3L21 4L22 4L22 2L20 2L20 1L19 1L19 3L18 3L18 5L17 5L17 2L18 2L18 1ZM53 1L53 3L54 3L54 4L55 4L55 3L56 3L56 2L55 2L55 3L54 3L54 1ZM35 3L35 4L36 4L36 3ZM50 3L50 5L51 5L51 3ZM60 3L60 5L61 5L61 3ZM48 4L48 5L47 5L47 6L48 6L48 7L49 7L49 4ZM33 5L33 8L36 8L36 5ZM9 6L9 7L10 7L10 6ZM20 6L20 7L21 7L21 6ZM22 6L22 8L24 8L24 9L23 9L23 10L22 10L22 9L21 9L21 8L20 8L20 10L22 10L22 11L20 11L20 12L21 12L21 13L22 13L22 15L23 15L23 17L22 17L22 16L19 16L19 17L18 17L18 18L17 18L17 19L16 19L16 22L15 22L15 24L14 24L14 21L15 21L15 20L14 20L14 21L13 21L13 22L12 22L12 21L11 21L11 20L9 20L9 21L7 21L7 20L6 20L6 21L7 21L7 22L5 22L5 23L7 23L7 24L8 24L8 23L10 23L10 24L11 24L11 22L12 22L12 23L13 23L13 24L12 24L12 27L11 27L11 28L12 28L12 29L13 29L13 28L15 28L15 27L16 27L16 26L17 26L17 25L18 25L18 28L16 28L16 29L14 29L14 32L15 32L15 31L16 31L16 33L14 33L14 34L13 34L13 35L12 35L12 34L10 34L10 38L12 38L12 39L14 39L14 38L16 38L16 36L17 36L17 38L19 38L19 39L15 39L15 40L14 40L14 41L16 41L16 40L17 40L17 41L18 41L18 42L19 42L19 43L21 43L21 42L22 42L22 44L21 44L21 45L20 45L20 47L21 47L21 46L22 46L22 44L23 44L23 46L25 46L25 47L26 47L26 45L27 45L27 46L28 46L28 47L27 47L27 48L28 48L28 49L29 49L29 50L28 50L28 51L27 51L27 52L26 52L26 54L28 54L28 55L27 55L27 56L28 56L28 57L32 57L32 55L31 55L31 54L32 54L32 52L29 52L29 51L31 51L31 50L32 50L32 48L33 48L33 54L34 54L34 55L33 55L33 57L34 57L34 59L35 59L35 57L34 57L34 55L35 55L35 54L36 54L36 52L35 52L35 50L36 50L36 49L37 49L37 48L38 48L38 50L37 50L37 51L38 51L38 52L37 52L37 53L38 53L38 54L37 54L37 55L38 55L38 54L39 54L39 53L40 53L40 55L39 55L39 57L38 57L38 58L39 58L39 60L38 60L38 62L40 62L40 63L41 63L41 62L43 62L43 61L40 61L40 60L41 60L41 59L40 59L40 58L44 58L44 59L46 59L46 60L47 60L47 62L48 62L48 63L49 63L49 62L48 62L48 61L49 61L49 60L47 60L47 59L48 59L48 57L50 57L50 58L51 58L51 57L52 57L52 54L51 54L51 53L52 53L52 52L55 52L55 51L56 51L56 50L58 50L58 49L57 49L57 48L56 48L56 47L57 47L57 46L56 46L56 45L57 45L57 44L58 44L58 43L57 43L57 42L58 42L58 41L59 41L59 40L58 40L58 41L57 41L57 39L55 39L55 40L53 40L53 41L50 41L50 42L49 42L49 43L50 43L50 42L51 42L51 44L50 44L50 45L49 45L49 44L47 44L47 43L46 43L46 44L45 44L45 42L46 42L46 39L45 39L45 37L47 37L47 42L48 42L48 41L49 41L49 40L51 40L51 39L48 39L48 37L50 37L50 38L52 38L52 39L53 39L53 38L56 38L56 37L57 37L57 38L58 38L58 37L59 37L59 36L58 36L58 37L57 37L57 35L59 35L59 34L58 34L58 32L59 32L59 31L58 31L58 32L56 32L56 30L55 30L55 29L54 29L54 28L53 28L53 26L57 26L57 27L59 27L59 28L58 28L58 29L57 29L57 28L56 28L56 27L55 27L55 28L56 28L56 29L57 29L57 30L58 30L58 29L59 29L59 28L60 28L60 27L61 27L61 25L60 25L60 24L62 24L62 22L61 22L61 21L60 21L60 19L59 19L59 20L58 20L58 17L57 17L57 16L60 16L60 15L59 15L59 14L58 14L58 13L57 13L57 14L56 14L56 13L55 13L55 11L54 11L54 13L53 13L53 14L56 14L56 15L55 15L55 16L56 16L56 17L54 17L54 16L53 16L53 19L54 19L54 20L53 20L53 22L52 22L52 20L50 20L50 19L52 19L52 14L51 14L51 13L52 13L52 12L53 12L53 11L52 11L52 12L51 12L51 11L49 11L49 9L50 9L50 10L52 10L52 8L51 8L51 6L50 6L50 8L47 8L47 10L46 10L46 9L45 9L45 10L46 10L46 11L49 11L49 12L47 12L47 15L46 15L46 13L45 13L45 12L44 12L44 13L43 13L43 12L42 12L42 13L41 13L41 16L42 16L42 17L40 17L40 18L39 18L39 17L38 17L38 19L37 19L37 21L36 21L36 19L33 19L33 20L32 20L32 18L34 18L34 17L33 17L33 16L32 16L32 13L33 13L33 12L32 12L32 11L30 11L30 10L29 10L29 11L30 11L30 13L29 13L29 17L31 17L31 18L29 18L29 19L25 19L25 17L27 17L27 18L28 18L28 17L27 17L27 16L28 16L28 13L27 13L27 12L26 12L26 11L25 11L25 10L24 10L24 9L25 9L25 6L24 6L24 7L23 7L23 6ZM34 6L34 7L35 7L35 6ZM57 6L57 7L58 7L58 6ZM0 8L0 10L2 10L2 11L1 11L1 12L0 12L0 14L1 14L1 12L2 12L2 11L3 11L3 10L2 10L2 8ZM4 8L4 10L5 10L5 9L7 9L7 8ZM40 9L40 12L38 12L38 16L39 16L39 14L40 14L40 12L41 12L41 9ZM53 9L53 10L56 10L56 9ZM58 9L58 10L59 10L59 11L61 11L61 10L60 10L60 9ZM6 10L6 11L7 11L7 10ZM13 11L13 13L14 13L14 11ZM16 11L16 12L17 12L17 11ZM23 11L23 12L22 12L22 13L24 13L24 11ZM31 12L31 13L30 13L30 14L31 14L31 13L32 13L32 12ZM50 12L50 13L49 13L49 14L48 14L48 15L47 15L47 16L49 16L49 17L46 17L46 15L45 15L45 19L44 19L44 18L41 18L41 19L39 19L39 20L38 20L38 21L37 21L37 22L36 22L36 21L35 21L35 23L37 23L37 24L34 24L34 22L33 22L33 21L32 21L32 20L31 20L31 19L29 19L29 20L31 20L31 21L30 21L30 22L31 22L31 23L28 23L28 22L29 22L29 21L28 21L28 22L26 22L26 23L25 23L25 22L24 22L24 23L23 23L23 20L24 20L24 19L23 19L23 18L24 18L24 17L25 17L25 15L24 15L24 17L23 17L23 18L22 18L22 17L19 17L19 18L18 18L18 19L17 19L17 20L19 20L19 22L18 22L18 21L17 21L17 22L16 22L16 24L15 24L15 25L17 25L17 24L18 24L18 23L20 23L20 24L19 24L19 30L18 30L18 29L16 29L16 30L18 30L18 31L17 31L17 33L16 33L16 35L17 35L17 33L18 33L18 32L19 32L19 33L20 33L20 32L19 32L19 31L21 31L21 30L20 30L20 28L21 28L21 29L23 29L23 30L22 30L22 33L21 33L21 34L20 34L20 35L19 35L19 34L18 34L18 35L19 35L19 36L22 36L22 37L23 37L23 36L24 36L24 37L25 37L25 38L24 38L24 39L23 39L23 40L22 40L22 39L21 39L21 38L20 38L20 37L19 37L19 38L20 38L20 39L21 39L21 41L22 41L22 42L23 42L23 41L24 41L24 42L25 42L25 43L26 43L26 44L25 44L25 45L26 45L26 44L27 44L27 45L28 45L28 46L29 46L29 45L30 45L30 48L29 48L29 49L30 49L30 50L31 50L31 49L30 49L30 48L31 48L31 47L32 47L32 46L33 46L33 48L34 48L34 50L35 50L35 48L37 48L37 47L35 47L35 48L34 48L34 46L36 46L36 45L35 45L35 44L37 44L37 45L38 45L38 41L39 41L39 38L40 38L40 41L41 41L41 42L39 42L39 44L40 44L40 46L39 46L39 47L38 47L38 48L39 48L39 47L40 47L40 49L39 49L39 51L40 51L40 49L42 49L42 47L44 47L44 48L43 48L43 49L44 49L44 50L45 50L45 49L44 49L44 48L45 48L45 47L47 47L47 48L46 48L46 51L48 51L48 50L47 50L47 49L48 49L48 47L49 47L49 48L50 48L50 49L49 49L49 51L50 51L50 52L52 52L52 51L51 51L51 50L50 50L50 49L55 49L55 50L56 50L56 48L55 48L55 47L56 47L56 46L55 46L55 47L54 47L54 48L53 48L53 47L52 47L52 46L51 46L51 48L50 48L50 47L49 47L49 46L48 46L48 45L46 45L46 46L45 46L45 45L43 45L43 43L44 43L44 42L45 42L45 41L44 41L44 40L45 40L45 39L44 39L44 37L43 37L43 35L44 35L44 34L45 34L45 36L46 36L46 34L47 34L47 35L49 35L49 34L50 34L50 37L51 37L51 36L52 36L52 37L53 37L53 36L54 36L54 35L55 35L55 37L56 37L56 34L57 34L57 33L56 33L56 32L54 32L54 31L55 31L55 30L53 30L53 28L52 28L52 30L50 30L50 29L51 29L51 27L50 27L50 25L51 25L51 24L50 24L50 25L48 25L48 23L47 23L47 20L48 20L48 19L49 19L49 17L51 17L51 14L50 14L50 13L51 13L51 12ZM17 13L17 15L18 15L18 13ZM25 13L25 14L26 14L26 16L27 16L27 13ZM44 13L44 14L43 14L43 17L44 17L44 14L45 14L45 13ZM60 13L60 14L61 14L61 13ZM49 14L49 15L50 15L50 14ZM30 15L30 16L31 16L31 15ZM34 15L34 16L35 16L35 18L37 18L37 17L36 17L36 16L37 16L37 15ZM56 15L56 16L57 16L57 15ZM5 16L5 18L6 18L6 19L8 19L8 17L7 17L7 16ZM15 16L15 18L12 18L12 19L15 19L15 18L16 18L16 16ZM6 17L6 18L7 18L7 17ZM59 17L59 18L61 18L61 17ZM9 18L9 19L10 19L10 18ZM20 18L20 19L19 19L19 20L20 20L20 22L21 22L21 21L22 21L22 20L23 20L23 19L22 19L22 18ZM47 18L47 19L46 19L46 20L47 20L47 19L48 19L48 18ZM54 18L54 19L57 19L57 18ZM4 19L4 20L5 20L5 19ZM21 19L21 20L22 20L22 19ZM41 19L41 20L43 20L43 19ZM25 20L25 21L26 21L26 20ZM39 20L39 21L38 21L38 23L40 23L40 24L38 24L38 26L37 26L37 25L36 25L36 26L37 26L37 29L38 29L38 30L39 30L39 31L40 31L40 28L41 28L41 29L42 29L42 31L43 31L43 30L44 30L44 29L45 29L45 31L44 31L44 33L38 33L38 34L37 34L37 32L36 32L36 31L34 31L34 30L35 30L35 25L32 25L32 23L31 23L31 24L29 24L29 25L30 25L30 26L29 26L29 27L28 27L28 23L27 23L27 24L22 24L22 23L21 23L21 25L20 25L20 27L21 27L21 28L23 28L23 29L24 29L24 30L27 30L27 31L23 31L23 32L24 32L24 33L22 33L22 34L23 34L23 35L22 35L22 36L23 36L23 35L25 35L25 34L26 34L26 37L27 37L27 40L26 40L26 41L31 41L31 42L32 42L32 40L33 40L33 39L32 39L32 40L28 40L28 39L31 39L31 37L33 37L33 38L34 38L34 40L35 40L35 41L33 41L33 42L34 42L34 43L33 43L33 44L32 44L32 43L31 43L31 44L30 44L30 45L31 45L31 44L32 44L32 45L34 45L34 44L35 44L35 42L37 42L37 41L36 41L36 40L35 40L35 39L37 39L37 40L38 40L38 38L39 38L39 37L40 37L40 35L43 35L43 34L44 34L44 33L45 33L45 34L46 34L46 33L47 33L47 34L49 34L49 33L50 33L50 34L51 34L51 35L52 35L52 36L53 36L53 34L56 34L56 33L53 33L53 34L51 34L51 33L50 33L50 32L47 32L47 30L49 30L49 31L50 31L50 30L49 30L49 28L50 28L50 27L48 27L48 25L47 25L47 23L46 23L46 21L45 21L45 20L44 20L44 21L40 21L40 20ZM49 20L49 22L50 22L50 23L52 23L52 22L50 22L50 20ZM55 20L55 23L54 23L54 24L55 24L55 25L56 25L56 24L57 24L57 25L58 25L58 26L59 26L59 27L60 27L60 25L59 25L59 23L58 23L58 24L57 24L57 22L56 22L56 20ZM57 20L57 21L58 21L58 22L60 22L60 21L58 21L58 20ZM64 20L64 23L65 23L65 24L64 24L64 25L65 25L65 24L67 24L67 23L66 23L66 22L65 22L65 20ZM9 21L9 22L10 22L10 21ZM7 22L7 23L8 23L8 22ZM41 22L41 23L42 23L42 24L40 24L40 27L42 27L42 29L44 29L44 28L45 28L45 29L46 29L46 30L47 30L47 29L48 29L48 27L47 27L47 28L46 28L46 27L44 27L44 24L45 24L45 22ZM43 23L43 24L44 24L44 23ZM55 23L55 24L56 24L56 23ZM52 24L52 25L53 25L53 24ZM21 25L21 27L22 27L22 26L23 26L23 27L24 27L24 29L26 29L26 27L27 27L27 25L25 25L25 26L24 26L24 25ZM41 25L41 26L43 26L43 25ZM46 25L46 26L47 26L47 25ZM14 26L14 27L15 27L15 26ZM25 26L25 27L26 27L26 26ZM30 26L30 27L29 27L29 28L28 28L28 30L29 30L29 28L30 28L30 27L32 27L32 28L31 28L31 29L33 29L33 30L32 30L32 32L33 32L33 30L34 30L34 26L33 26L33 27L32 27L32 26ZM12 27L12 28L13 28L13 27ZM43 27L43 28L44 28L44 27ZM38 28L38 29L39 29L39 28ZM30 30L30 31L31 31L31 30ZM0 31L0 32L1 32L1 31ZM27 31L27 32L29 32L29 33L27 33L27 36L28 36L28 38L30 38L30 37L29 37L29 36L30 36L30 35L31 35L31 36L32 36L32 35L31 35L31 34L32 34L32 33L30 33L30 32L29 32L29 31ZM25 32L25 33L26 33L26 32ZM5 33L5 36L8 36L8 33ZM29 33L29 34L28 34L28 36L29 36L29 35L30 35L30 33ZM33 33L33 36L36 36L36 33ZM61 33L61 36L64 36L64 33ZM6 34L6 35L7 35L7 34ZM34 34L34 35L35 35L35 34ZM38 34L38 35L37 35L37 36L38 36L38 37L37 37L37 38L38 38L38 37L39 37L39 36L38 36L38 35L39 35L39 34ZM62 34L62 35L63 35L63 34ZM2 35L2 36L4 36L4 35ZM11 35L11 37L12 37L12 38L14 38L14 37L15 37L15 35L13 35L13 36L12 36L12 35ZM13 36L13 37L14 37L14 36ZM6 37L6 38L7 38L7 39L6 39L6 40L7 40L7 39L8 39L8 37ZM41 37L41 38L43 38L43 37ZM64 38L64 39L63 39L63 40L64 40L64 39L65 39L65 38ZM43 39L43 40L44 40L44 39ZM19 40L19 42L20 42L20 40ZM24 40L24 41L25 41L25 40ZM42 41L42 43L41 43L41 44L42 44L42 43L43 43L43 42L44 42L44 41ZM53 41L53 42L52 42L52 43L54 43L54 44L55 44L55 45L56 45L56 44L57 44L57 43L56 43L56 42L57 42L57 41L55 41L55 43L54 43L54 41ZM6 42L6 43L9 43L9 42ZM26 42L26 43L28 43L28 45L29 45L29 42ZM23 43L23 44L24 44L24 43ZM6 44L6 45L7 45L7 44ZM52 44L52 45L53 45L53 44ZM41 45L41 46L40 46L40 47L42 47L42 46L43 46L43 45ZM6 46L6 47L7 47L7 48L8 48L8 46ZM44 46L44 47L45 47L45 46ZM13 49L13 52L14 52L14 50L15 50L15 49ZM6 50L6 51L7 51L7 50ZM42 50L42 51L43 51L43 52L40 52L40 53L44 53L44 54L43 54L43 55L42 55L42 54L41 54L41 55L40 55L40 57L39 57L39 58L40 58L40 57L44 57L44 58L45 58L45 57L44 57L44 56L43 56L43 55L45 55L45 53L44 53L44 52L45 52L45 51L43 51L43 50ZM8 52L8 54L9 54L9 52ZM23 52L23 56L22 56L22 55L21 55L21 57L24 57L24 58L25 58L25 56L24 56L24 55L25 55L25 53L24 53L24 52ZM27 52L27 53L28 53L28 54L31 54L31 53L28 53L28 52ZM34 52L34 54L35 54L35 52ZM38 52L38 53L39 53L39 52ZM46 53L46 54L47 54L47 53ZM49 53L49 54L48 54L48 55L47 55L47 56L49 56L49 54L50 54L50 56L51 56L51 54L50 54L50 53ZM63 53L63 54L64 54L64 53ZM6 55L6 56L7 56L7 55ZM8 55L8 56L9 56L9 55ZM29 55L29 56L31 56L31 55ZM41 55L41 56L42 56L42 55ZM56 56L56 58L58 58L58 61L59 61L59 59L60 59L60 58L58 58L58 56ZM46 57L46 58L47 58L47 57ZM17 58L17 59L18 59L18 58ZM32 58L32 59L33 59L33 58ZM36 58L36 59L37 59L37 58ZM53 58L53 59L54 59L54 58ZM23 59L23 60L24 60L24 59ZM42 59L42 60L43 60L43 59ZM3 60L3 61L5 61L5 60ZM44 60L44 61L45 61L45 62L46 62L46 61L45 61L45 60ZM31 61L31 63L32 63L32 61ZM33 61L33 64L36 64L36 61ZM61 61L61 64L64 64L64 61ZM22 62L22 63L23 63L23 64L22 64L22 65L21 65L21 66L23 66L23 64L25 64L25 65L27 65L27 64L26 64L26 63L23 63L23 62ZM34 62L34 63L35 63L35 62ZM62 62L62 63L63 63L63 62ZM54 63L54 64L55 64L55 65L56 65L56 64L57 64L57 65L58 65L58 64L57 64L57 63L56 63L56 64L55 64L55 63ZM59 64L59 65L60 65L60 64ZM30 65L30 66L31 66L31 67L32 67L32 65ZM13 66L13 68L15 68L15 67L16 67L16 66ZM26 66L26 68L28 68L28 67L27 67L27 66ZM39 66L39 67L40 67L40 66ZM62 66L62 68L63 68L63 67L64 67L64 66ZM8 67L8 69L9 69L9 67ZM56 67L56 69L57 69L57 67ZM68 68L68 69L69 69L69 68ZM0 0L0 7L7 7L7 0ZM1 1L1 6L6 6L6 1ZM2 2L2 5L5 5L5 2ZM62 0L62 7L69 7L69 0ZM63 1L63 6L68 6L68 1ZM64 2L64 5L67 5L67 2ZM0 62L0 69L7 69L7 62ZM1 63L1 68L6 68L6 63ZM2 64L2 67L5 67L5 64Z" fill="#000000"/></g></g></svg>
