<?xml version="1.0" encoding="UTF-8"?>
<svg xmlns="http://www.w3.org/2000/svg" version="1.1" width="300" height="300" viewBox="0 0 300 300"><rect x="0" y="0" width="300" height="300" fill="#ffffff"/><g transform="scale(4.348)"><g transform="translate(0,0)"><path fill-rule="evenodd" d="M8 0L8 4L9 4L9 5L8 5L8 7L9 7L9 5L10 5L10 3L11 3L11 4L12 4L12 5L11 5L11 6L10 6L10 8L9 8L9 9L10 9L10 8L11 8L11 10L8 10L8 9L7 9L7 8L4 8L4 9L3 9L3 11L1 11L1 10L2 10L2 8L0 8L0 9L1 9L1 10L0 10L0 11L1 11L1 12L3 12L3 13L1 13L1 14L0 14L0 15L1 15L1 14L2 14L2 15L4 15L4 16L1 16L1 17L0 17L0 19L1 19L1 20L0 20L0 21L1 21L1 22L0 22L0 23L1 23L1 24L2 24L2 25L1 25L1 26L2 26L2 27L1 27L1 28L2 28L2 27L4 27L4 28L3 28L3 29L2 29L2 30L1 30L1 32L0 32L0 33L1 33L1 32L2 32L2 31L3 31L3 32L4 32L4 35L3 35L3 36L2 36L2 38L3 38L3 40L2 40L2 39L1 39L1 37L0 37L0 41L3 41L3 43L4 43L4 41L5 41L5 44L6 44L6 45L4 45L4 46L6 46L6 47L7 47L7 48L5 48L5 47L2 47L2 46L3 46L3 45L2 45L2 43L1 43L1 42L0 42L0 44L1 44L1 45L2 45L2 46L0 46L0 48L1 48L1 49L0 49L0 50L1 50L1 49L2 49L2 51L1 51L1 52L0 52L0 53L1 53L1 52L4 52L4 53L5 53L5 54L3 54L3 55L2 55L2 56L4 56L4 57L3 57L3 58L2 58L2 57L1 57L1 55L0 55L0 61L1 61L1 58L2 58L2 59L3 59L3 58L4 58L4 59L7 59L7 60L6 60L6 61L7 61L7 60L8 60L8 62L10 62L10 61L11 61L11 62L12 62L12 63L13 63L13 64L12 64L12 65L11 65L11 63L10 63L10 64L9 64L9 63L8 63L8 65L9 65L9 66L11 66L11 67L10 67L10 69L13 69L13 68L15 68L15 69L16 69L16 67L14 67L14 66L15 66L15 65L17 65L17 66L19 66L19 67L20 67L20 66L21 66L21 65L22 65L22 62L23 62L23 61L24 61L24 62L25 62L25 63L24 63L24 64L23 64L23 67L24 67L24 66L25 66L25 69L28 69L28 68L26 68L26 66L27 66L27 67L28 67L28 66L30 66L30 65L31 65L31 67L30 67L30 68L29 68L29 69L31 69L31 67L33 67L33 66L34 66L34 65L36 65L36 67L39 67L39 66L40 66L40 63L41 63L41 67L40 67L40 68L38 68L38 69L40 69L40 68L42 68L42 69L43 69L43 63L44 63L44 69L46 69L46 67L45 67L45 63L44 63L44 61L45 61L45 62L46 62L46 64L47 64L47 65L48 65L48 66L49 66L49 65L50 65L50 66L51 66L51 67L52 67L52 68L50 68L50 67L49 67L49 68L48 68L48 67L47 67L47 69L52 69L52 68L53 68L53 69L55 69L55 68L53 68L53 67L54 67L54 66L55 66L55 67L56 67L56 69L58 69L58 68L59 68L59 69L60 69L60 67L59 67L59 66L58 66L58 65L59 65L59 64L58 64L58 61L59 61L59 60L60 60L60 66L62 66L62 67L61 67L61 69L64 69L64 68L62 68L62 67L63 67L63 66L64 66L64 67L65 67L65 66L66 66L66 67L67 67L67 66L69 66L69 64L68 64L68 61L69 61L69 59L68 59L68 58L69 58L69 57L68 57L68 56L69 56L69 55L68 55L68 53L69 53L69 52L68 52L68 50L67 50L67 49L66 49L66 50L64 50L64 49L63 49L63 48L62 48L62 46L63 46L63 47L64 47L64 48L65 48L65 47L66 47L66 46L67 46L67 47L68 47L68 46L69 46L69 43L68 43L68 42L69 42L69 41L68 41L68 38L69 38L69 35L68 35L68 33L69 33L69 32L68 32L68 30L65 30L65 29L63 29L63 28L62 28L62 27L63 27L63 26L64 26L64 27L67 27L67 28L68 28L68 29L69 29L69 27L67 27L67 25L66 25L66 26L64 26L64 24L65 24L65 23L67 23L67 24L69 24L69 23L68 23L68 22L69 22L69 20L68 20L68 18L67 18L67 17L68 17L68 16L69 16L69 15L68 15L68 14L69 14L69 13L68 13L68 10L69 10L69 8L65 8L65 10L66 10L66 11L67 11L67 12L65 12L65 11L64 11L64 10L63 10L63 9L64 9L64 8L63 8L63 9L62 9L62 10L63 10L63 11L62 11L62 12L61 12L61 9L59 9L59 8L58 8L58 7L59 7L59 4L57 4L57 5L56 5L56 3L54 3L54 2L57 2L57 3L59 3L59 2L57 2L57 1L55 1L55 0L52 0L52 2L51 2L51 0L50 0L50 1L48 1L48 2L46 2L46 3L45 3L45 1L46 1L46 0L45 0L45 1L44 1L44 0L41 0L41 1L40 1L40 0L38 0L38 1L40 1L40 4L38 4L38 3L37 3L37 4L36 4L36 3L35 3L35 1L36 1L36 2L37 2L37 1L36 1L36 0L35 0L35 1L33 1L33 0L32 0L32 1L31 1L31 0L22 0L22 1L21 1L21 0L17 0L17 1L15 1L15 0L13 0L13 1L12 1L12 2L10 2L10 1L9 1L9 0ZM58 0L58 1L61 1L61 0ZM13 1L13 2L15 2L15 1ZM19 1L19 3L18 3L18 2L16 2L16 3L15 3L15 4L17 4L17 3L18 3L18 5L17 5L17 8L18 8L18 6L19 6L19 8L20 8L20 5L19 5L19 3L21 3L21 9L22 9L22 10L21 10L21 11L23 11L23 12L22 12L22 13L24 13L24 11L23 11L23 9L24 9L24 10L26 10L26 12L27 12L27 11L28 11L28 10L30 10L30 11L29 11L29 12L28 12L28 15L27 15L27 13L25 13L25 14L23 14L23 16L22 16L22 15L21 15L21 14L20 14L20 13L19 13L19 14L20 14L20 15L21 15L21 16L22 16L22 19L21 19L21 20L22 20L22 21L21 21L21 22L20 22L20 20L19 20L19 19L20 19L20 18L21 18L21 17L19 17L19 16L18 16L18 17L17 17L17 16L16 16L16 18L15 18L15 19L14 19L14 17L15 17L15 16L13 16L13 17L12 17L12 15L13 15L13 13L15 13L15 15L16 15L16 13L15 13L15 12L16 12L16 9L15 9L15 7L16 7L16 5L15 5L15 7L14 7L14 5L12 5L12 6L11 6L11 8L12 8L12 6L13 6L13 9L12 9L12 10L11 10L11 11L12 11L12 12L8 12L8 10L7 10L7 9L4 9L4 11L3 11L3 12L4 12L4 11L5 11L5 12L8 12L8 13L6 13L6 14L5 14L5 13L4 13L4 15L6 15L6 16L4 16L4 17L2 17L2 19L5 19L5 18L4 18L4 17L6 17L6 18L7 18L7 19L6 19L6 20L7 20L7 19L9 19L9 17L10 17L10 15L11 15L11 19L10 19L10 20L11 20L11 21L9 21L9 20L8 20L8 21L6 21L6 22L8 22L8 24L9 24L9 23L10 23L10 25L11 25L11 26L10 26L10 28L11 28L11 30L10 30L10 31L6 31L6 30L8 30L8 29L9 29L9 27L8 27L8 26L9 26L9 25L6 25L6 24L7 24L7 23L6 23L6 24L5 24L5 26L4 26L4 27L5 27L5 31L6 31L6 32L10 32L10 33L9 33L9 34L10 34L10 35L9 35L9 36L11 36L11 37L12 37L12 39L13 39L13 40L14 40L14 41L15 41L15 43L16 43L16 42L17 42L17 43L18 43L18 44L22 44L22 45L21 45L21 46L22 46L22 47L23 47L23 46L22 46L22 45L24 45L24 43L22 43L22 42L23 42L23 41L24 41L24 42L25 42L25 41L26 41L26 38L25 38L25 41L24 41L24 40L22 40L22 39L21 39L21 40L20 40L20 37L19 37L19 38L18 38L18 37L16 37L16 35L15 35L15 33L16 33L16 34L17 34L17 35L18 35L18 36L22 36L22 37L21 37L21 38L23 38L23 37L24 37L24 36L25 36L25 37L26 37L26 35L27 35L27 36L28 36L28 38L27 38L27 40L29 40L29 39L30 39L30 38L29 38L29 36L31 36L31 40L30 40L30 41L27 41L27 42L30 42L30 41L32 41L32 42L31 42L31 43L32 43L32 45L33 45L33 47L32 47L32 46L29 46L29 45L28 45L28 46L26 46L26 44L28 44L28 43L26 43L26 44L25 44L25 47L24 47L24 48L22 48L22 49L24 49L24 48L25 48L25 47L26 47L26 48L27 48L27 47L28 47L28 49L27 49L27 50L26 50L26 49L25 49L25 50L24 50L24 51L22 51L22 50L21 50L21 49L19 49L19 48L18 48L18 49L16 49L16 48L17 48L17 47L18 47L18 45L17 45L17 44L16 44L16 46L15 46L15 45L14 45L14 44L13 44L13 43L14 43L14 42L13 42L13 41L12 41L12 42L11 42L11 41L10 41L10 44L9 44L9 42L8 42L8 41L6 41L6 40L9 40L9 39L8 39L8 38L7 38L7 37L6 37L6 38L7 38L7 39L6 39L6 40L5 40L5 41L6 41L6 42L8 42L8 44L9 44L9 45L10 45L10 47L11 47L11 48L12 48L12 46L13 46L13 45L14 45L14 49L16 49L16 50L14 50L14 51L12 51L12 50L13 50L13 49L12 49L12 50L11 50L11 49L10 49L10 48L9 48L9 49L8 49L8 48L7 48L7 49L6 49L6 50L5 50L5 53L6 53L6 54L5 54L5 56L8 56L8 59L9 59L9 58L10 58L10 59L11 59L11 60L12 60L12 62L13 62L13 63L15 63L15 61L13 61L13 60L12 60L12 59L14 59L14 60L16 60L16 62L17 62L17 61L18 61L18 63L17 63L17 65L18 65L18 64L19 64L19 65L20 65L20 64L19 64L19 63L21 63L21 62L22 62L22 61L23 61L23 59L24 59L24 61L26 61L26 60L27 60L27 61L28 61L28 62L27 62L27 63L29 63L29 62L30 62L30 63L32 63L32 62L31 62L31 61L32 61L32 60L33 60L33 59L34 59L34 60L37 60L37 65L38 65L38 64L39 64L39 63L40 63L40 62L41 62L41 60L39 60L39 62L38 62L38 56L39 56L39 52L38 52L38 53L37 53L37 50L38 50L38 51L39 51L39 50L38 50L38 49L39 49L39 47L41 47L41 48L40 48L40 53L44 53L44 54L42 54L42 55L40 55L40 57L39 57L39 58L40 58L40 59L41 59L41 58L40 58L40 57L41 57L41 56L42 56L42 57L44 57L44 54L45 54L45 53L46 53L46 54L49 54L49 55L47 55L47 56L49 56L49 57L46 57L46 58L47 58L47 59L45 59L45 58L42 58L42 61L44 61L44 60L45 60L45 61L46 61L46 62L47 62L47 61L46 61L46 60L47 60L47 59L48 59L48 58L49 58L49 59L50 59L50 60L49 60L49 63L50 63L50 65L51 65L51 66L52 66L52 67L53 67L53 64L52 64L52 63L53 63L53 62L52 62L52 61L53 61L53 60L54 60L54 61L55 61L55 62L54 62L54 65L56 65L56 67L57 67L57 68L58 68L58 67L57 67L57 65L58 65L58 64L57 64L57 63L56 63L56 62L57 62L57 61L58 61L58 60L59 60L59 59L60 59L60 58L59 58L59 57L60 57L60 56L59 56L59 57L58 57L58 58L57 58L57 57L56 57L56 55L57 55L57 54L56 54L56 55L55 55L55 57L56 57L56 58L55 58L55 59L52 59L52 58L53 58L53 57L54 57L54 53L53 53L53 52L52 52L52 53L51 53L51 54L52 54L52 55L50 55L50 53L46 53L46 52L50 52L50 51L49 51L49 50L50 50L50 49L49 49L49 50L48 50L48 49L47 49L47 48L48 48L48 47L47 47L47 48L45 48L45 47L44 47L44 48L43 48L43 49L44 49L44 50L45 50L45 53L44 53L44 51L43 51L43 50L42 50L42 51L43 51L43 52L41 52L41 49L42 49L42 45L41 45L41 46L40 46L40 45L39 45L39 47L38 47L38 48L36 48L36 47L37 47L37 46L38 46L38 45L36 45L36 44L39 44L39 43L41 43L41 44L43 44L43 43L44 43L44 40L45 40L45 39L43 39L43 38L45 38L45 37L46 37L46 42L45 42L45 43L46 43L46 44L45 44L45 45L46 45L46 46L47 46L47 44L48 44L48 43L49 43L49 45L50 45L50 43L51 43L51 42L52 42L52 45L51 45L51 50L52 50L52 49L54 49L54 48L55 48L55 50L56 50L56 51L55 51L55 53L56 53L56 52L58 52L58 54L59 54L59 55L60 55L60 52L58 52L58 51L57 51L57 49L58 49L58 50L59 50L59 51L61 51L61 54L62 54L62 55L64 55L64 56L62 56L62 57L64 57L64 58L68 58L68 57L67 57L67 56L68 56L68 55L67 55L67 54L66 54L66 55L64 55L64 54L65 54L65 53L67 53L67 51L65 51L65 52L64 52L64 51L63 51L63 49L62 49L62 51L61 51L61 48L59 48L59 49L58 49L58 47L57 47L57 49L56 49L56 47L55 47L55 46L54 46L54 48L53 48L53 46L52 46L52 45L54 45L54 44L55 44L55 45L56 45L56 46L57 46L57 45L56 45L56 43L57 43L57 44L58 44L58 43L59 43L59 45L58 45L58 46L59 46L59 45L60 45L60 44L61 44L61 43L59 43L59 41L60 41L60 39L61 39L61 41L62 41L62 39L64 39L64 40L63 40L63 41L64 41L64 43L65 43L65 44L67 44L67 46L68 46L68 44L67 44L67 42L68 42L68 41L66 41L66 40L67 40L67 39L66 39L66 36L67 36L67 37L68 37L68 35L65 35L65 37L63 37L63 38L62 38L62 39L61 39L61 37L60 37L60 36L58 36L58 34L59 34L59 35L60 35L60 34L59 34L59 33L60 33L60 32L61 32L61 30L62 30L62 31L63 31L63 32L66 32L66 33L67 33L67 31L64 31L64 30L62 30L62 29L61 29L61 30L60 30L60 31L59 31L59 32L58 32L58 34L57 34L57 37L56 37L56 35L54 35L54 33L56 33L56 32L57 32L57 31L58 31L58 30L59 30L59 27L60 27L60 28L61 28L61 27L62 27L62 25L63 25L63 24L62 24L62 15L64 15L64 14L65 14L65 16L64 16L64 17L63 17L63 20L64 20L64 21L65 21L65 20L67 20L67 21L68 21L68 20L67 20L67 18L65 18L65 20L64 20L64 17L66 17L66 16L68 16L68 15L67 15L67 14L68 14L68 13L65 13L65 12L64 12L64 14L62 14L62 13L63 13L63 12L62 12L62 13L61 13L61 12L59 12L59 9L58 9L58 8L57 8L57 9L55 9L55 7L56 7L56 5L55 5L55 7L54 7L54 5L53 5L53 4L52 4L52 3L49 3L49 2L48 2L48 3L47 3L47 4L46 4L46 5L44 5L44 4L45 4L45 3L44 3L44 2L42 2L42 1L41 1L41 2L42 2L42 3L41 3L41 4L40 4L40 5L39 5L39 7L38 7L38 5L37 5L37 11L38 11L38 12L36 12L36 13L33 13L33 14L29 14L29 12L31 12L31 13L32 13L32 12L34 12L34 9L32 9L32 6L31 6L31 5L32 5L32 4L34 4L34 2L33 2L33 1L32 1L32 4L31 4L31 3L30 3L30 2L28 2L28 1L26 1L26 2L25 2L25 1L23 1L23 2L22 2L22 3L21 3L21 2L20 2L20 1ZM53 1L53 2L54 2L54 1ZM23 2L23 3L22 3L22 5L25 5L25 3L24 3L24 2ZM26 2L26 3L27 3L27 5L26 5L26 7L25 7L25 6L24 6L24 7L23 7L23 6L22 6L22 8L24 8L24 9L25 9L25 8L26 8L26 10L28 10L28 9L30 9L30 10L31 10L31 11L32 11L32 9L30 9L30 8L31 8L31 6L30 6L30 5L31 5L31 4L29 4L29 3L27 3L27 2ZM12 3L12 4L13 4L13 3ZM42 3L42 4L41 4L41 5L40 5L40 7L41 7L41 8L43 8L43 6L44 6L44 7L45 7L45 8L44 8L44 9L45 9L45 10L46 10L46 12L45 12L45 11L43 11L43 9L40 9L40 10L39 10L39 8L38 8L38 10L39 10L39 13L38 13L38 14L39 14L39 13L40 13L40 14L41 14L41 10L42 10L42 12L43 12L43 13L42 13L42 15L38 15L38 18L39 18L39 19L37 19L37 20L36 20L36 17L37 17L37 15L36 15L36 16L35 16L35 14L34 14L34 15L33 15L33 16L32 16L32 15L30 15L30 16L29 16L29 15L28 15L28 16L26 16L26 15L24 15L24 16L23 16L23 19L22 19L22 20L23 20L23 23L24 23L24 24L22 24L22 23L21 23L21 24L20 24L20 23L19 23L19 20L17 20L17 21L18 21L18 22L17 22L17 23L14 23L14 22L15 22L15 21L16 21L16 20L14 20L14 21L13 21L13 23L12 23L12 22L10 22L10 23L12 23L12 25L13 25L13 24L17 24L17 25L15 25L15 27L13 27L13 26L12 26L12 27L11 27L11 28L12 28L12 31L14 31L14 30L13 30L13 28L15 28L15 27L16 27L16 26L17 26L17 31L16 31L16 32L17 32L17 31L18 31L18 30L19 30L19 32L18 32L18 33L17 33L17 34L18 34L18 35L20 35L20 34L23 34L23 33L24 33L24 35L26 35L26 34L27 34L27 35L28 35L28 34L29 34L29 35L31 35L31 32L32 32L32 39L33 39L33 40L32 40L32 41L34 41L34 43L33 43L33 42L32 42L32 43L33 43L33 45L34 45L34 44L35 44L35 43L36 43L36 42L37 42L37 43L38 43L38 42L43 42L43 39L41 39L41 41L40 41L40 38L43 38L43 36L42 36L42 37L40 37L40 36L41 36L41 35L43 35L43 34L44 34L44 37L45 37L45 34L46 34L46 37L47 37L47 42L49 42L49 43L50 43L50 42L51 42L51 41L52 41L52 42L53 42L53 43L55 43L55 42L56 42L56 41L58 41L58 40L59 40L59 38L60 38L60 37L59 37L59 38L58 38L58 37L57 37L57 38L58 38L58 40L57 40L57 39L56 39L56 41L52 41L52 40L53 40L53 38L56 38L56 37L55 37L55 36L54 36L54 37L52 37L52 36L53 36L53 33L52 33L52 31L53 31L53 32L54 32L54 31L55 31L55 30L56 30L56 31L57 31L57 30L58 30L58 27L59 27L59 26L61 26L61 25L62 25L62 24L59 24L59 23L60 23L60 22L61 22L61 21L59 21L59 20L56 20L56 21L54 21L54 20L55 20L55 19L54 19L54 20L53 20L53 22L52 22L52 20L50 20L50 24L49 24L49 23L48 23L48 25L47 25L47 22L46 22L46 21L48 21L48 22L49 22L49 20L47 20L47 19L48 19L48 18L49 18L49 16L50 16L50 19L51 19L51 17L52 17L52 15L55 15L55 16L56 16L56 17L57 17L57 18L58 18L58 19L60 19L60 20L61 20L61 16L58 16L58 15L62 15L62 14L61 14L61 13L59 13L59 12L58 12L58 11L56 11L56 10L55 10L55 9L54 9L54 7L53 7L53 5L52 5L52 7L51 7L51 6L50 6L50 5L51 5L51 4L50 4L50 5L49 5L49 6L48 6L48 7L49 7L49 8L47 8L47 6L46 6L46 7L45 7L45 6L44 6L44 5L43 5L43 4L44 4L44 3ZM60 3L60 5L61 5L61 3ZM28 4L28 5L27 5L27 7L26 7L26 8L28 8L28 6L29 6L29 7L30 7L30 6L29 6L29 4ZM33 5L33 8L36 8L36 5ZM57 5L57 7L58 7L58 5ZM34 6L34 7L35 7L35 6ZM41 6L41 7L42 7L42 6ZM49 6L49 7L50 7L50 8L49 8L49 10L50 10L50 11L52 11L52 13L55 13L55 15L56 15L56 16L57 16L57 15L58 15L58 14L59 14L59 13L58 13L58 12L57 12L57 13L55 13L55 10L53 10L53 8L52 8L52 10L50 10L50 9L51 9L51 7L50 7L50 6ZM60 6L60 8L61 8L61 6ZM45 8L45 9L46 9L46 10L47 10L47 8ZM18 9L18 11L17 11L17 12L19 12L19 11L20 11L20 9ZM35 9L35 11L36 11L36 9ZM67 9L67 10L68 10L68 9ZM6 10L6 11L7 11L7 10ZM52 10L52 11L53 11L53 12L54 12L54 11L53 11L53 10ZM13 11L13 12L14 12L14 11ZM50 12L50 13L49 13L49 14L50 14L50 13L51 13L51 12ZM8 13L8 14L9 14L9 15L8 15L8 16L6 16L6 17L8 17L8 16L9 16L9 15L10 15L10 14L11 14L11 15L12 15L12 14L11 14L11 13ZM36 13L36 14L37 14L37 13ZM43 13L43 14L45 14L45 13ZM46 13L46 14L47 14L47 13ZM57 13L57 14L58 14L58 13ZM6 14L6 15L7 15L7 14ZM17 14L17 15L18 15L18 14ZM51 14L51 15L52 15L52 14ZM43 15L43 17L44 17L44 15ZM46 15L46 16L45 16L45 17L46 17L46 18L47 18L47 17L48 17L48 15ZM24 16L24 17L25 17L25 18L24 18L24 19L25 19L25 22L26 22L26 23L25 23L25 25L26 25L26 26L24 26L24 25L21 25L21 26L20 26L20 25L19 25L19 27L21 27L21 26L23 26L23 27L24 27L24 28L22 28L22 29L26 29L26 28L27 28L27 26L29 26L29 27L30 27L30 28L31 28L31 27L33 27L33 28L32 28L32 29L31 29L31 31L30 31L30 30L29 30L29 28L28 28L28 30L29 30L29 31L28 31L28 32L26 32L26 31L25 31L25 30L23 30L23 31L21 31L21 30L20 30L20 29L19 29L19 30L20 30L20 32L19 32L19 33L20 33L20 32L21 32L21 33L23 33L23 32L24 32L24 33L29 33L29 34L30 34L30 33L29 33L29 32L31 32L31 31L32 31L32 32L36 32L36 31L37 31L37 30L38 30L38 29L37 29L37 30L36 30L36 28L38 28L38 27L39 27L39 29L40 29L40 30L42 30L42 28L43 28L43 29L44 29L44 30L43 30L43 31L40 31L40 33L44 33L44 34L45 34L45 33L46 33L46 34L47 34L47 36L49 36L49 37L48 37L48 40L50 40L50 41L49 41L49 42L50 42L50 41L51 41L51 39L52 39L52 38L50 38L50 36L52 36L52 35L50 35L50 32L49 32L49 31L52 31L52 30L53 30L53 28L52 28L52 27L53 27L53 25L56 25L56 26L57 26L57 27L58 27L58 26L59 26L59 25L58 25L58 26L57 26L57 25L56 25L56 23L59 23L59 21L56 21L56 22L53 22L53 23L52 23L52 27L51 27L51 28L50 28L50 27L49 27L49 26L47 26L47 25L46 25L46 26L47 26L47 27L45 27L45 28L47 28L47 27L49 27L49 28L50 28L50 29L48 29L48 30L47 30L47 29L46 29L46 30L47 30L47 32L49 32L49 34L47 34L47 33L46 33L46 32L45 32L45 33L44 33L44 31L45 31L45 29L44 29L44 27L43 27L43 26L41 26L41 25L42 25L42 24L43 24L43 25L44 25L44 24L45 24L45 23L44 23L44 20L46 20L46 19L44 19L44 18L41 18L41 17L42 17L42 16L40 16L40 19L39 19L39 20L38 20L38 21L34 21L34 18L35 18L35 16L34 16L34 17L32 17L32 16L31 16L31 19L32 19L32 20L33 20L33 21L34 21L34 22L35 22L35 24L34 24L34 23L33 23L33 22L32 22L32 25L31 25L31 26L29 26L29 25L30 25L30 24L31 24L31 21L29 21L29 20L28 20L28 22L26 22L26 19L28 19L28 18L30 18L30 17L29 17L29 16L28 16L28 17L27 17L27 18L26 18L26 17L25 17L25 16ZM46 16L46 17L47 17L47 16ZM53 16L53 18L55 18L55 17L54 17L54 16ZM18 17L18 18L16 18L16 19L19 19L19 17ZM58 17L58 18L59 18L59 17ZM12 18L12 19L11 19L11 20L13 20L13 18ZM41 19L41 22L43 22L43 21L42 21L42 19ZM1 20L1 21L2 21L2 22L1 22L1 23L2 23L2 24L3 24L3 25L4 25L4 22L5 22L5 20ZM39 20L39 22L40 22L40 20ZM3 21L3 22L2 22L2 23L3 23L3 22L4 22L4 21ZM28 22L28 23L27 23L27 24L26 24L26 25L29 25L29 24L28 24L28 23L30 23L30 22ZM64 22L64 23L65 23L65 22ZM36 23L36 24L37 24L37 25L35 25L35 27L34 27L34 28L35 28L35 27L36 27L36 26L37 26L37 25L38 25L38 26L39 26L39 27L40 27L40 28L42 28L42 27L40 27L40 24L41 24L41 23L40 23L40 24L39 24L39 23L38 23L38 24L37 24L37 23ZM38 24L38 25L39 25L39 24ZM50 24L50 25L51 25L51 24ZM17 25L17 26L18 26L18 25ZM33 25L33 26L34 26L34 25ZM5 26L5 27L7 27L7 26ZM54 27L54 28L55 28L55 29L56 29L56 30L57 30L57 29L56 29L56 27ZM6 28L6 29L8 29L8 28ZM51 28L51 29L50 29L50 30L51 30L51 29L52 29L52 28ZM3 29L3 30L4 30L4 29ZM15 29L15 30L16 30L16 29ZM33 29L33 31L34 31L34 30L35 30L35 29ZM10 31L10 32L11 32L11 33L10 33L10 34L11 34L11 36L12 36L12 37L13 37L13 36L12 36L12 33L14 33L14 32L11 32L11 31ZM24 31L24 32L25 32L25 31ZM38 32L38 33L37 33L37 34L38 34L38 35L37 35L37 37L36 37L36 38L37 38L37 37L38 37L38 36L39 36L39 35L41 35L41 34L38 34L38 33L39 33L39 32ZM2 33L2 34L0 34L0 35L2 35L2 34L3 34L3 33ZM5 33L5 36L8 36L8 33ZM33 33L33 36L36 36L36 33ZM51 33L51 34L52 34L52 33ZM61 33L61 36L64 36L64 33ZM6 34L6 35L7 35L7 34ZM13 34L13 35L14 35L14 36L15 36L15 35L14 35L14 34ZM34 34L34 35L35 35L35 34ZM62 34L62 35L63 35L63 34ZM22 35L22 36L23 36L23 35ZM49 35L49 36L50 36L50 35ZM3 36L3 38L4 38L4 36ZM9 37L9 38L10 38L10 39L11 39L11 38L10 38L10 37ZM14 37L14 38L15 38L15 39L16 39L16 40L15 40L15 41L16 41L16 40L17 40L17 39L18 39L18 38L16 38L16 37ZM33 37L33 38L34 38L34 39L35 39L35 40L34 40L34 41L35 41L35 40L36 40L36 41L37 41L37 42L38 42L38 41L39 41L39 38L40 38L40 37L39 37L39 38L38 38L38 40L37 40L37 39L35 39L35 37ZM28 38L28 39L29 39L29 38ZM64 38L64 39L65 39L65 38ZM54 39L54 40L55 40L55 39ZM3 40L3 41L4 41L4 40ZM18 40L18 41L17 41L17 42L18 42L18 41L20 41L20 42L22 42L22 41L20 41L20 40ZM64 40L64 41L65 41L65 43L66 43L66 41L65 41L65 40ZM12 42L12 43L13 43L13 42ZM62 42L62 45L61 45L61 46L60 46L60 47L61 47L61 46L62 46L62 45L64 45L64 47L65 47L65 46L66 46L66 45L64 45L64 44L63 44L63 42ZM6 43L6 44L7 44L7 43ZM11 44L11 45L13 45L13 44ZM6 45L6 46L7 46L7 45ZM19 45L19 47L20 47L20 48L21 48L21 47L20 47L20 45ZM43 45L43 46L44 46L44 45ZM8 46L8 47L9 47L9 46ZM16 46L16 47L15 47L15 48L16 48L16 47L17 47L17 46ZM35 46L35 47L34 47L34 48L33 48L33 49L32 49L32 48L31 48L31 47L29 47L29 49L30 49L30 50L28 50L28 51L27 51L27 52L26 52L26 50L25 50L25 52L23 52L23 56L22 56L22 55L20 55L20 54L21 54L21 53L22 53L22 52L21 52L21 50L20 50L20 51L19 51L19 49L18 49L18 51L19 51L19 52L17 52L17 51L15 51L15 53L17 53L17 57L15 57L15 56L16 56L16 54L13 54L13 53L12 53L12 54L10 54L10 53L8 53L8 56L9 56L9 54L10 54L10 55L11 55L11 57L12 57L12 58L14 58L14 57L15 57L15 59L16 59L16 58L17 58L17 59L20 59L20 60L18 60L18 61L20 61L20 62L21 62L21 61L22 61L22 60L21 60L21 59L23 59L23 58L21 58L21 57L24 57L24 58L25 58L25 59L26 59L26 58L27 58L27 60L28 60L28 61L31 61L31 60L32 60L32 59L33 59L33 57L34 57L34 56L35 56L35 59L37 59L37 58L36 58L36 57L37 57L37 56L35 56L35 55L34 55L34 56L33 56L33 57L32 57L32 59L30 59L30 58L31 58L31 56L32 56L32 55L31 55L31 56L30 56L30 57L29 57L29 55L30 55L30 54L32 54L32 53L31 53L31 49L32 49L32 51L34 51L34 52L35 52L35 51L36 51L36 49L35 49L35 50L33 50L33 49L34 49L34 48L35 48L35 47L36 47L36 46ZM1 47L1 48L2 48L2 47ZM49 47L49 48L50 48L50 47ZM3 48L3 49L5 49L5 48ZM44 48L44 49L45 49L45 50L46 50L46 51L47 51L47 50L46 50L46 49L45 49L45 48ZM7 49L7 50L6 50L6 51L8 51L8 52L12 52L12 51L10 51L10 49L9 49L9 51L8 51L8 49ZM59 49L59 50L60 50L60 49ZM3 50L3 51L4 51L4 50ZM62 51L62 52L63 52L63 51ZM6 52L6 53L7 53L7 52ZM19 52L19 54L18 54L18 56L19 56L19 57L21 57L21 56L19 56L19 54L20 54L20 52ZM25 52L25 54L24 54L24 56L25 56L25 57L26 57L26 55L25 55L25 54L26 54L26 52ZM27 52L27 53L28 53L28 55L29 55L29 53L28 53L28 52ZM33 53L33 54L34 54L34 53ZM36 53L36 54L37 54L37 53ZM52 53L52 54L53 54L53 53ZM63 53L63 54L64 54L64 53ZM6 54L6 55L7 55L7 54ZM13 55L13 57L14 57L14 55ZM49 55L49 56L50 56L50 58L52 58L52 56L53 56L53 55L52 55L52 56L50 56L50 55ZM27 56L27 57L28 57L28 59L29 59L29 60L30 60L30 59L29 59L29 57L28 57L28 56ZM5 57L5 58L7 58L7 57ZM17 57L17 58L18 58L18 57ZM56 58L56 59L57 59L57 58ZM58 58L58 59L59 59L59 58ZM62 58L62 59L61 59L61 60L64 60L64 59L63 59L63 58ZM51 59L51 60L50 60L50 62L51 62L51 61L52 61L52 59ZM65 59L65 60L67 60L67 61L68 61L68 60L67 60L67 59ZM3 60L3 61L5 61L5 60ZM9 60L9 61L10 61L10 60ZM56 60L56 61L57 61L57 60ZM33 61L33 64L36 64L36 61ZM61 61L61 64L64 64L64 61ZM34 62L34 63L35 63L35 62ZM42 62L42 63L43 63L43 62ZM62 62L62 63L63 63L63 62ZM66 62L66 63L65 63L65 65L66 65L66 66L67 66L67 62ZM25 63L25 65L29 65L29 64L26 64L26 63ZM55 63L55 64L56 64L56 65L57 65L57 64L56 64L56 63ZM14 64L14 65L15 65L15 64ZM31 64L31 65L32 65L32 66L33 66L33 65L32 65L32 64ZM51 64L51 65L52 65L52 64ZM12 65L12 67L13 67L13 65ZM62 65L62 66L63 66L63 65ZM8 67L8 69L9 69L9 67ZM17 67L17 69L20 69L20 68L18 68L18 67ZM21 67L21 69L22 69L22 67ZM34 67L34 68L35 68L35 67ZM23 68L23 69L24 69L24 68ZM32 68L32 69L33 69L33 68ZM36 68L36 69L37 69L37 68ZM68 68L68 69L69 69L69 68ZM0 0L0 7L7 7L7 0ZM1 1L1 6L6 6L6 1ZM2 2L2 5L5 5L5 2ZM62 0L62 7L69 7L69 0ZM63 1L63 6L68 6L68 1ZM64 2L64 5L67 5L67 2ZM0 62L0 69L7 69L7 62ZM1 63L1 68L6 68L6 63ZM2 64L2 67L5 67L5 64Z" fill="#000000"/></g></g></svg>
