<?xml version="1.0" encoding="UTF-8"?>
<svg xmlns="http://www.w3.org/2000/svg" version="1.1" width="300" height="300" viewBox="0 0 300 300"><rect x="0" y="0" width="300" height="300" fill="#ffffff"/><g transform="scale(4.615)"><g transform="translate(0,0)"><path fill-rule="evenodd" d="M10 0L10 1L8 1L8 2L9 2L9 3L8 3L8 4L9 4L9 3L10 3L10 4L11 4L11 5L8 5L8 7L9 7L9 8L6 8L6 9L7 9L7 10L5 10L5 8L0 8L0 10L2 10L2 11L3 11L3 10L5 10L5 11L4 11L4 12L0 12L0 16L2 16L2 18L0 18L0 19L2 19L2 20L3 20L3 21L1 21L1 20L0 20L0 23L1 23L1 25L0 25L0 26L1 26L1 27L0 27L0 28L1 28L1 29L0 29L0 30L2 30L2 29L3 29L3 31L1 31L1 33L4 33L4 35L1 35L1 34L0 34L0 36L1 36L1 38L0 38L0 41L1 41L1 42L2 42L2 41L1 41L1 40L4 40L4 41L5 41L5 44L6 44L6 45L4 45L4 43L3 43L3 44L2 44L2 45L1 45L1 44L0 44L0 45L1 45L1 46L2 46L2 48L0 48L0 49L2 49L2 50L1 50L1 51L0 51L0 54L1 54L1 53L2 53L2 55L3 55L3 56L1 56L1 55L0 55L0 56L1 56L1 57L3 57L3 56L4 56L4 57L5 57L5 56L4 56L4 54L5 54L5 55L7 55L7 56L6 56L6 57L8 57L8 59L9 59L9 58L13 58L13 56L12 56L12 55L14 55L14 54L12 54L12 55L11 55L11 56L12 56L12 57L10 57L10 56L9 56L9 57L8 57L8 55L7 55L7 54L8 54L8 53L7 53L7 52L6 52L6 51L7 51L7 50L9 50L9 49L12 49L12 50L13 50L13 51L12 51L12 52L13 52L13 53L14 53L14 52L15 52L15 53L16 53L16 52L17 52L17 53L18 53L18 54L17 54L17 55L15 55L15 57L14 57L14 59L13 59L13 60L14 60L14 61L15 61L15 62L16 62L16 61L15 61L15 57L16 57L16 56L17 56L17 57L19 57L19 58L17 58L17 59L16 59L16 60L17 60L17 63L20 63L20 62L19 62L19 61L20 61L20 55L19 55L19 54L20 54L20 53L21 53L21 54L22 54L22 53L23 53L23 55L26 55L26 54L25 54L25 53L27 53L27 52L29 52L29 53L30 53L30 54L28 54L28 55L30 55L30 54L31 54L31 55L32 55L32 56L27 56L27 57L26 57L26 56L25 56L25 57L23 57L23 58L25 58L25 59L22 59L22 60L21 60L21 61L22 61L22 62L21 62L21 63L22 63L22 62L23 62L23 63L24 63L24 64L25 64L25 65L26 65L26 64L27 64L27 65L32 65L32 64L33 64L33 65L38 65L38 64L40 64L40 62L41 62L41 64L42 64L42 65L44 65L44 64L45 64L45 65L49 65L49 64L50 64L50 60L49 60L49 58L50 58L50 55L49 55L49 54L50 54L50 53L51 53L51 54L52 54L52 53L51 53L51 52L52 52L52 51L51 51L51 52L50 52L50 49L51 49L51 50L52 50L52 49L51 49L51 48L53 48L53 51L54 51L54 52L53 52L53 54L54 54L54 56L53 56L53 57L51 57L51 58L52 58L52 59L53 59L53 60L55 60L55 59L56 59L56 62L55 62L55 61L52 61L52 62L53 62L53 63L51 63L51 64L54 64L54 65L56 65L56 64L57 64L57 65L58 65L58 64L57 64L57 63L56 63L56 62L58 62L58 63L60 63L60 64L59 64L59 65L61 65L61 64L62 64L62 63L63 63L63 64L64 64L64 61L63 61L63 60L65 60L65 59L63 59L63 60L62 60L62 59L61 59L61 58L65 58L65 56L64 56L64 57L62 57L62 55L63 55L63 52L64 52L64 54L65 54L65 52L64 52L64 51L63 51L63 52L62 52L62 51L60 51L60 50L61 50L61 49L59 49L59 48L62 48L62 47L60 47L60 46L63 46L63 45L61 45L61 44L62 44L62 43L61 43L61 42L64 42L64 41L65 41L65 40L64 40L64 39L63 39L63 38L62 38L62 37L64 37L64 38L65 38L65 36L64 36L64 35L63 35L63 34L64 34L64 33L63 33L63 32L65 32L65 31L63 31L63 32L62 32L62 31L61 31L61 30L62 30L62 29L63 29L63 30L65 30L65 27L64 27L64 29L63 29L63 28L62 28L62 27L63 27L63 26L62 26L62 27L61 27L61 28L59 28L59 27L60 27L60 26L59 26L59 27L58 27L58 26L56 26L56 24L57 24L57 25L62 25L62 23L63 23L63 22L62 22L62 21L61 21L61 20L62 20L62 18L64 18L64 17L63 17L63 16L62 16L62 15L58 15L58 14L57 14L57 16L56 16L56 15L55 15L55 14L56 14L56 11L54 11L54 10L56 10L56 9L58 9L58 8L57 8L57 6L56 6L56 9L55 9L55 8L53 8L53 9L51 9L51 10L50 10L50 9L49 9L49 8L50 8L50 7L51 7L51 8L52 8L52 7L53 7L53 6L52 6L52 5L51 5L51 6L50 6L50 0L48 0L48 1L47 1L47 3L46 3L46 1L45 1L45 2L44 2L44 1L43 1L43 0L39 0L39 2L38 2L38 0L37 0L37 1L36 1L36 0L35 0L35 2L34 2L34 1L33 1L33 4L32 4L32 3L31 3L31 2L32 2L32 1L31 1L31 0L29 0L29 1L27 1L27 0L26 0L26 1L27 1L27 2L29 2L29 3L28 3L28 4L27 4L27 6L26 6L26 7L25 7L25 6L24 6L24 7L25 7L25 8L24 8L24 9L23 9L23 10L20 10L20 8L21 8L21 6L20 6L20 7L19 7L19 4L22 4L22 3L20 3L20 2L19 2L19 1L20 1L20 0L19 0L19 1L18 1L18 2L16 2L16 1L17 1L17 0L13 0L13 1L14 1L14 3L12 3L12 4L11 4L11 2L12 2L12 1L11 1L11 0ZM21 0L21 2L22 2L22 1L25 1L25 0ZM55 0L55 1L56 1L56 3L55 3L55 2L54 2L54 3L53 3L53 1L52 1L52 2L51 2L51 3L53 3L53 4L56 4L56 5L57 5L57 4L56 4L56 3L57 3L57 1L56 1L56 0ZM40 1L40 3L39 3L39 4L38 4L38 3L37 3L37 2L35 2L35 3L37 3L37 4L36 4L36 6L35 6L35 7L36 7L36 8L37 8L37 9L38 9L38 10L39 10L39 11L37 11L37 10L36 10L36 9L32 9L32 10L31 10L31 11L32 11L32 10L36 10L36 11L35 11L35 12L39 12L39 13L38 13L38 14L35 14L35 13L33 13L33 12L31 12L31 13L29 13L29 12L28 12L28 11L27 11L27 10L29 10L29 9L28 9L28 8L30 8L30 6L29 6L29 5L30 5L30 3L29 3L29 4L28 4L28 6L27 6L27 7L26 7L26 9L25 9L25 10L23 10L23 12L21 12L21 11L20 11L20 10L19 10L19 13L21 13L21 14L23 14L23 15L21 15L21 17L20 17L20 16L19 16L19 17L20 17L20 18L18 18L18 17L17 17L17 18L16 18L16 21L15 21L15 20L12 20L12 18L11 18L11 16L12 16L12 17L13 17L13 16L14 16L14 17L16 17L16 16L18 16L18 15L20 15L20 14L18 14L18 13L16 13L16 12L18 12L18 9L16 9L16 8L13 8L13 7L14 7L14 6L13 6L13 5L15 5L15 7L16 7L16 6L17 6L17 7L18 7L18 8L19 8L19 7L18 7L18 5L17 5L17 4L18 4L18 3L16 3L16 2L15 2L15 3L14 3L14 4L13 4L13 5L11 5L11 7L12 7L12 8L13 8L13 9L11 9L11 8L10 8L10 9L11 9L11 11L12 11L12 12L9 12L9 13L8 13L8 14L9 14L9 15L6 15L6 16L5 16L5 17L4 17L4 21L3 21L3 22L4 22L4 21L5 21L5 23L2 23L2 24L3 24L3 25L5 25L5 26L7 26L7 27L6 27L6 28L5 28L5 29L4 29L4 27L3 27L3 29L4 29L4 30L5 30L5 29L6 29L6 30L7 30L7 29L8 29L8 30L9 30L9 32L10 32L10 33L11 33L11 34L13 34L13 33L11 33L11 31L12 31L12 32L13 32L13 30L14 30L14 31L16 31L16 32L14 32L14 36L13 36L13 37L12 37L12 36L11 36L11 35L10 35L10 34L9 34L9 36L10 36L10 37L11 37L11 39L15 39L15 40L14 40L14 41L15 41L15 42L14 42L14 43L13 43L13 42L12 42L12 43L13 43L13 44L11 44L11 43L9 43L9 42L8 42L8 44L10 44L10 46L8 46L8 45L6 45L6 46L4 46L4 47L3 47L3 48L4 48L4 47L6 47L6 48L7 48L7 47L6 47L6 46L8 46L8 49L9 49L9 47L10 47L10 46L12 46L12 47L13 47L13 48L12 48L12 49L13 49L13 50L14 50L14 49L13 49L13 48L16 48L16 49L15 49L15 52L16 52L16 51L17 51L17 52L18 52L18 53L20 53L20 52L21 52L21 53L22 53L22 52L21 52L21 51L22 51L22 50L23 50L23 49L24 49L24 48L25 48L25 45L24 45L24 44L23 44L23 43L24 43L24 42L23 42L23 43L22 43L22 42L21 42L21 41L25 41L25 42L26 42L26 43L25 43L25 44L26 44L26 46L27 46L27 47L26 47L26 50L27 50L27 51L29 51L29 50L30 50L30 47L31 47L31 49L32 49L32 50L31 50L31 51L32 51L32 50L33 50L33 52L36 52L36 51L35 51L35 50L34 50L34 49L35 49L35 48L38 48L38 50L37 50L37 49L36 49L36 50L37 50L37 53L36 53L36 54L37 54L37 55L38 55L38 56L39 56L39 57L38 57L38 58L37 58L37 57L35 57L35 58L36 58L36 59L37 59L37 60L38 60L38 63L37 63L37 62L36 62L36 61L35 61L35 62L33 62L33 61L32 61L32 63L29 63L29 61L28 61L28 60L30 60L30 59L27 59L27 58L30 58L30 57L27 57L27 58L26 58L26 59L25 59L25 60L26 60L26 61L28 61L28 62L27 62L27 64L32 64L32 63L33 63L33 64L35 64L35 63L36 63L36 64L38 64L38 63L39 63L39 62L40 62L40 61L41 61L41 62L42 62L42 63L43 63L43 64L44 64L44 63L46 63L46 62L47 62L47 61L46 61L46 62L45 62L45 60L44 60L44 58L45 58L45 59L47 59L47 57L48 57L48 56L49 56L49 55L48 55L48 56L47 56L47 55L46 55L46 54L47 54L47 52L48 52L48 50L47 50L47 49L45 49L45 48L46 48L46 47L48 47L48 48L49 48L49 49L50 49L50 48L49 48L49 47L50 47L50 46L51 46L51 45L53 45L53 44L55 44L55 46L56 46L56 43L55 43L55 42L56 42L56 39L57 39L57 41L58 41L58 43L57 43L57 45L58 45L58 46L57 46L57 48L55 48L55 47L54 47L54 49L58 49L58 48L59 48L59 45L60 45L60 44L61 44L61 43L59 43L59 41L60 41L60 38L58 38L58 37L60 37L60 36L61 36L61 35L62 35L62 36L63 36L63 35L62 35L62 32L61 32L61 35L60 35L60 36L58 36L58 37L57 37L57 36L56 36L56 35L55 35L55 37L57 37L57 38L56 38L56 39L55 39L55 38L52 38L52 39L51 39L51 37L53 37L53 35L54 35L54 34L53 34L53 35L52 35L52 36L50 36L50 35L51 35L51 33L53 33L53 32L56 32L56 30L60 30L60 29L59 29L59 28L57 28L57 29L56 29L56 26L54 26L54 27L53 27L53 26L52 26L52 25L54 25L54 24L55 24L55 23L54 23L54 22L53 22L53 21L55 21L55 20L56 20L56 23L57 23L57 24L58 24L58 23L57 23L57 22L59 22L59 24L61 24L61 22L59 22L59 21L60 21L60 20L61 20L61 18L62 18L62 16L61 16L61 17L59 17L59 16L57 16L57 17L56 17L56 16L55 16L55 15L54 15L54 16L51 16L51 15L53 15L53 14L51 14L51 13L55 13L55 12L53 12L53 11L51 11L51 13L50 13L50 10L49 10L49 13L50 13L50 14L49 14L49 17L50 17L50 18L48 18L48 19L49 19L49 21L50 21L50 24L51 24L51 25L49 25L49 26L48 26L48 25L47 25L47 24L49 24L49 23L48 23L48 22L47 22L47 20L44 20L44 19L43 19L43 18L42 18L42 19L40 19L40 20L39 20L39 21L38 21L38 18L41 18L41 16L40 16L40 15L39 15L39 14L41 14L41 15L42 15L42 16L44 16L44 18L47 18L47 17L45 17L45 16L46 16L46 14L47 14L47 16L48 16L48 14L47 14L47 13L46 13L46 12L48 12L48 11L45 11L45 12L44 12L44 11L43 11L43 10L48 10L48 9L46 9L46 8L43 8L43 10L42 10L42 11L41 11L41 10L40 10L40 9L42 9L42 6L43 6L43 7L44 7L44 6L45 6L45 7L46 7L46 5L47 5L47 4L46 4L46 3L43 3L43 2L42 2L42 1ZM23 2L23 5L26 5L26 4L24 4L24 3L26 3L26 2ZM41 2L41 3L42 3L42 2ZM37 4L37 6L36 6L36 7L37 7L37 8L38 8L38 9L39 9L39 8L38 8L38 7L39 7L39 6L38 6L38 4ZM39 4L39 5L40 5L40 7L41 7L41 5L43 5L43 6L44 6L44 5L43 5L43 4L41 4L41 5L40 5L40 4ZM45 4L45 5L46 5L46 4ZM31 5L31 8L34 8L34 5ZM54 5L54 7L55 7L55 5ZM9 6L9 7L10 7L10 6ZM12 6L12 7L13 7L13 6ZM22 6L22 7L23 7L23 6ZM28 6L28 7L29 7L29 6ZM32 6L32 7L33 7L33 6ZM37 6L37 7L38 7L38 6ZM47 6L47 8L49 8L49 7L50 7L50 6L49 6L49 7L48 7L48 6ZM51 6L51 7L52 7L52 6ZM59 8L59 9L60 9L60 10L61 10L61 9L62 9L62 11L63 11L63 12L60 12L60 11L59 11L59 12L57 12L57 13L60 13L60 14L62 14L62 13L63 13L63 12L64 12L64 11L63 11L63 9L64 9L64 8L63 8L63 9L62 9L62 8L61 8L61 9L60 9L60 8ZM14 9L14 10L12 10L12 11L13 11L13 12L12 12L12 14L11 14L11 13L9 13L9 14L10 14L10 15L9 15L9 16L6 16L6 17L5 17L5 18L6 18L6 19L5 19L5 20L6 20L6 21L10 21L10 23L8 23L8 22L6 22L6 23L5 23L5 24L6 24L6 25L7 25L7 26L8 26L8 25L9 25L9 26L10 26L10 25L9 25L9 24L11 24L11 27L10 27L10 28L9 28L9 29L10 29L10 31L11 31L11 29L10 29L10 28L11 28L11 27L13 27L13 26L15 26L15 27L14 27L14 28L12 28L12 29L14 29L14 28L17 28L17 29L20 29L20 27L21 27L21 26L24 26L24 27L22 27L22 28L23 28L23 29L21 29L21 30L22 30L22 31L21 31L21 32L23 32L23 31L24 31L24 33L21 33L21 34L20 34L20 32L18 32L18 30L17 30L17 32L16 32L16 33L17 33L17 34L15 34L15 35L16 35L16 36L14 36L14 37L13 37L13 38L14 38L14 37L17 37L17 39L16 39L16 40L17 40L17 43L16 43L16 44L15 44L15 43L14 43L14 44L13 44L13 45L12 45L12 46L13 46L13 47L14 47L14 46L15 46L15 47L16 47L16 48L17 48L17 51L18 51L18 50L20 50L20 49L19 49L19 48L24 48L24 47L23 47L23 46L24 46L24 45L22 45L22 46L21 46L21 45L19 45L19 43L21 43L21 42L20 42L20 40L18 40L18 39L19 39L19 38L20 38L20 39L21 39L21 40L25 40L25 41L26 41L26 42L27 42L27 45L28 45L28 43L31 43L31 44L32 44L32 45L30 45L30 46L32 46L32 49L33 49L33 46L32 46L32 45L37 45L37 46L35 46L35 47L38 47L38 48L39 48L39 49L40 49L40 48L41 48L41 47L43 47L43 48L45 48L45 47L44 47L44 46L43 46L43 45L44 45L44 40L45 40L45 41L47 41L47 44L48 44L48 45L49 45L49 46L48 46L48 47L49 47L49 46L50 46L50 44L53 44L53 42L55 42L55 40L54 40L54 41L53 41L53 42L52 42L52 43L50 43L50 41L49 41L49 40L50 40L50 36L48 36L48 35L49 35L49 34L50 34L50 32L52 32L52 31L54 31L54 30L56 30L56 29L52 29L52 30L51 30L51 31L50 31L50 29L51 29L51 28L50 28L50 27L52 27L52 26L49 26L49 28L47 28L47 29L49 29L49 30L47 30L47 31L46 31L46 32L47 32L47 36L48 36L48 37L47 37L47 39L43 39L43 38L45 38L45 37L46 37L46 36L45 36L45 35L46 35L46 34L45 34L45 33L44 33L44 32L43 32L43 31L42 31L42 30L43 30L43 29L44 29L44 28L43 28L43 29L40 29L40 30L38 30L38 29L39 29L39 28L40 28L40 26L41 26L41 28L42 28L42 26L43 26L43 25L44 25L44 26L45 26L45 28L46 28L46 27L47 27L47 26L45 26L45 25L46 25L46 24L45 24L45 25L44 25L44 24L42 24L42 25L39 25L39 27L38 27L38 29L37 29L37 27L36 27L36 28L35 28L35 26L33 26L33 25L32 25L32 24L33 24L33 23L34 23L34 25L37 25L37 26L38 26L38 25L37 25L37 23L36 23L36 24L35 24L35 22L38 22L38 23L42 23L42 22L43 22L43 21L44 21L44 20L43 20L43 19L42 19L42 20L41 20L41 21L42 21L42 22L38 22L38 21L37 21L37 18L38 18L38 17L40 17L40 16L38 16L38 17L37 17L37 15L36 15L36 16L35 16L35 14L33 14L33 13L31 13L31 14L29 14L29 13L28 13L28 12L27 12L27 13L28 13L28 14L26 14L26 11L25 11L25 12L24 12L24 13L23 13L23 14L24 14L24 13L25 13L25 14L26 14L26 16L24 16L24 15L23 15L23 16L24 16L24 17L23 17L23 18L22 18L22 17L21 17L21 18L22 18L22 19L21 19L21 20L20 20L20 19L19 19L19 20L20 20L20 21L18 21L18 20L17 20L17 21L16 21L16 22L15 22L15 23L14 23L14 25L12 25L12 24L11 24L11 21L12 21L12 22L14 22L14 21L12 21L12 20L11 20L11 19L10 19L10 20L9 20L9 19L7 19L7 18L6 18L6 17L8 17L8 18L9 18L9 17L10 17L10 16L11 16L11 15L12 15L12 16L13 16L13 15L15 15L15 14L13 14L13 13L15 13L15 12L16 12L16 11L15 11L15 10L16 10L16 9ZM26 9L26 10L27 10L27 9ZM53 9L53 10L54 10L54 9ZM8 10L8 11L10 11L10 10ZM57 10L57 11L58 11L58 10ZM6 11L6 12L7 12L7 11ZM14 11L14 12L15 12L15 11ZM39 11L39 12L41 12L41 14L42 14L42 15L45 15L45 14L46 14L46 13L45 13L45 14L44 14L44 12L43 12L43 11L42 11L42 12L41 12L41 11ZM4 12L4 14L7 14L7 13L5 13L5 12ZM2 13L2 14L1 14L1 15L2 15L2 16L3 16L3 13ZM64 13L64 14L65 14L65 13ZM12 14L12 15L13 15L13 14ZM17 14L17 15L18 15L18 14ZM31 14L31 15L32 15L32 14ZM27 15L27 16L26 16L26 17L25 17L25 18L24 18L24 19L25 19L25 20L26 20L26 19L25 19L25 18L27 18L27 21L25 21L25 22L24 22L24 23L25 23L25 25L27 25L27 26L26 26L26 27L28 27L28 31L26 31L26 33L25 33L25 35L24 35L24 36L25 36L25 37L26 37L26 38L25 38L25 40L26 40L26 41L28 41L28 42L30 42L30 39L31 39L31 41L32 41L32 44L33 44L33 43L34 43L34 44L37 44L37 45L38 45L38 47L39 47L39 48L40 48L40 47L39 47L39 46L41 46L41 44L40 44L40 43L39 43L39 42L41 42L41 43L43 43L43 42L41 42L41 41L42 41L42 40L43 40L43 39L41 39L41 38L40 38L40 37L41 37L41 36L43 36L43 35L45 35L45 34L44 34L44 33L43 33L43 32L42 32L42 33L43 33L43 35L41 35L41 30L40 30L40 31L39 31L39 33L38 33L38 31L37 31L37 30L36 30L36 29L35 29L35 28L34 28L34 29L33 29L33 28L32 28L32 27L31 27L31 28L32 28L32 29L30 29L30 30L32 30L32 29L33 29L33 30L36 30L36 31L35 31L35 32L37 32L37 33L38 33L38 34L35 34L35 35L33 35L33 36L32 36L32 35L30 35L30 36L29 36L29 37L27 37L27 34L30 34L30 31L29 31L29 26L31 26L31 24L32 24L32 21L33 21L33 22L35 22L35 21L33 21L33 20L36 20L36 19L35 19L35 18L36 18L36 17L35 17L35 16L32 16L32 17L31 17L31 16L28 16L28 15ZM27 16L27 17L28 17L28 16ZM50 16L50 17L51 17L51 18L50 18L50 19L51 19L51 20L50 20L50 21L51 21L51 20L54 20L54 19L53 19L53 18L55 18L55 19L57 19L57 18L56 18L56 17L55 17L55 16L54 16L54 17L51 17L51 16ZM30 17L30 18L31 18L31 17ZM32 17L32 18L33 18L33 19L28 19L28 21L27 21L27 22L28 22L28 23L26 23L26 24L27 24L27 25L28 25L28 24L29 24L29 25L30 25L30 24L31 24L31 20L33 20L33 19L34 19L34 18L33 18L33 17ZM17 18L17 19L18 19L18 18ZM51 18L51 19L52 19L52 18ZM6 19L6 20L7 20L7 19ZM59 19L59 20L57 20L57 21L59 21L59 20L60 20L60 19ZM10 20L10 21L11 21L11 20ZM21 20L21 21L20 21L20 22L21 22L21 23L20 23L20 26L18 26L18 25L15 25L15 26L18 26L18 27L20 27L20 26L21 26L21 25L23 25L23 24L21 24L21 23L23 23L23 21L22 21L22 20ZM29 20L29 21L28 21L28 22L30 22L30 20ZM42 20L42 21L43 21L43 20ZM64 20L64 21L65 21L65 20ZM17 21L17 22L18 22L18 24L19 24L19 22L18 22L18 21ZM21 21L21 22L22 22L22 21ZM45 21L45 22L44 22L44 23L45 23L45 22L46 22L46 23L47 23L47 22L46 22L46 21ZM51 22L51 23L53 23L53 22ZM6 23L6 24L8 24L8 23ZM15 23L15 24L16 24L16 23ZM29 23L29 24L30 24L30 23ZM63 24L63 25L65 25L65 24ZM1 25L1 26L2 26L2 25ZM1 27L1 28L2 28L2 27ZM7 27L7 28L6 28L6 29L7 29L7 28L8 28L8 27ZM24 27L24 28L25 28L25 27ZM26 28L26 30L27 30L27 28ZM49 28L49 29L50 29L50 28ZM61 28L61 29L62 29L62 28ZM15 29L15 30L16 30L16 29ZM23 29L23 30L24 30L24 29ZM19 30L19 31L20 31L20 30ZM44 30L44 31L45 31L45 30ZM3 31L3 32L4 32L4 31ZM5 31L5 34L8 34L8 31ZM31 31L31 34L34 34L34 31ZM47 31L47 32L48 32L48 31ZM57 31L57 34L60 34L60 31ZM6 32L6 33L7 33L7 32ZM27 32L27 33L26 33L26 34L27 34L27 33L29 33L29 32ZM32 32L32 33L33 33L33 32ZM58 32L58 33L59 33L59 32ZM39 33L39 34L40 34L40 33ZM48 33L48 34L49 34L49 33ZM55 33L55 34L56 34L56 33ZM17 34L17 35L18 35L18 34ZM19 34L19 35L20 35L20 34ZM22 34L22 35L21 35L21 36L19 36L19 37L20 37L20 38L23 38L23 34ZM4 35L4 36L2 36L2 37L4 37L4 39L5 39L5 38L7 38L7 39L6 39L6 40L5 40L5 41L6 41L6 42L7 42L7 41L8 41L8 40L9 40L9 37L8 37L8 35ZM25 35L25 36L26 36L26 35ZM38 35L38 36L41 36L41 35ZM4 36L4 37L7 37L7 38L8 38L8 37L7 37L7 36ZM17 36L17 37L18 37L18 36ZM21 36L21 37L22 37L22 36ZM30 36L30 38L31 38L31 39L33 39L33 40L34 40L34 41L33 41L33 42L35 42L35 43L36 43L36 42L35 42L35 41L37 41L37 44L38 44L38 41L37 41L37 40L39 40L39 41L40 41L40 40L41 40L41 39L40 39L40 38L38 38L38 37L37 37L37 36L33 36L33 38L32 38L32 37L31 37L31 36ZM44 36L44 37L45 37L45 36ZM1 38L1 39L2 39L2 38ZM28 38L28 39L29 39L29 38ZM33 38L33 39L35 39L35 38ZM36 38L36 40L37 40L37 39L38 39L38 38ZM48 38L48 39L49 39L49 38ZM61 38L61 39L62 39L62 40L61 40L61 41L63 41L63 39L62 39L62 38ZM39 39L39 40L40 40L40 39ZM52 39L52 40L51 40L51 41L52 41L52 40L53 40L53 39ZM58 39L58 40L59 40L59 39ZM6 40L6 41L7 41L7 40ZM10 40L10 42L11 42L11 41L13 41L13 40ZM28 40L28 41L29 41L29 40ZM18 42L18 43L17 43L17 44L16 44L16 45L15 45L15 46L16 46L16 45L17 45L17 44L18 44L18 43L19 43L19 42ZM6 43L6 44L7 44L7 43ZM45 43L45 45L46 45L46 43ZM48 43L48 44L50 44L50 43ZM58 43L58 44L59 44L59 43ZM63 43L63 44L64 44L64 45L65 45L65 44L64 44L64 43ZM13 45L13 46L14 46L14 45ZM19 46L19 47L20 47L20 46ZM28 46L28 47L27 47L27 48L28 48L28 47L29 47L29 46ZM17 47L17 48L18 48L18 47ZM63 48L63 50L65 50L65 49L64 49L64 48ZM4 49L4 50L5 50L5 51L4 51L4 53L6 53L6 54L7 54L7 53L6 53L6 52L5 52L5 51L6 51L6 50L7 50L7 49ZM41 49L41 50L40 50L40 52L41 52L41 51L42 51L42 53L39 53L39 52L38 52L38 53L37 53L37 54L38 54L38 53L39 53L39 55L40 55L40 54L41 54L41 55L42 55L42 56L41 56L41 58L42 58L42 59L41 59L41 60L43 60L43 61L42 61L42 62L43 62L43 61L44 61L44 60L43 60L43 57L44 57L44 55L43 55L43 54L44 54L44 52L47 52L47 50L46 50L46 51L45 51L45 49ZM2 50L2 52L3 52L3 50ZM24 50L24 51L23 51L23 53L25 53L25 52L26 52L26 51L25 51L25 50ZM38 50L38 51L39 51L39 50ZM43 50L43 52L44 52L44 50ZM55 50L55 53L57 53L57 52L60 52L60 53L59 53L59 54L55 54L55 58L53 58L53 59L55 59L55 58L56 58L56 55L58 55L58 56L59 56L59 55L62 55L62 52L60 52L60 51L59 51L59 50ZM8 51L8 52L9 52L9 53L10 53L10 54L9 54L9 55L10 55L10 54L11 54L11 53L10 53L10 51ZM13 51L13 52L14 52L14 51ZM19 51L19 52L20 52L20 51ZM56 51L56 52L57 52L57 51ZM30 52L30 53L31 53L31 54L32 54L32 55L34 55L34 56L36 56L36 55L35 55L35 53L31 53L31 52ZM45 53L45 54L46 54L46 53ZM60 53L60 54L61 54L61 53ZM17 55L17 56L19 56L19 55ZM21 55L21 56L22 56L22 55ZM51 55L51 56L52 56L52 55ZM42 56L42 57L43 57L43 56ZM21 57L21 58L22 58L22 57ZM31 57L31 60L34 60L34 57ZM39 57L39 58L38 58L38 60L40 60L40 59L39 59L39 58L40 58L40 57ZM57 57L57 60L60 60L60 57ZM32 58L32 59L33 59L33 58ZM58 58L58 59L59 59L59 58ZM10 59L10 60L11 60L11 61L10 61L10 62L11 62L11 63L10 63L10 65L14 65L14 62L12 62L12 59ZM17 59L17 60L19 60L19 59ZM26 59L26 60L27 60L27 59ZM8 60L8 65L9 65L9 60ZM22 60L22 61L23 61L23 62L24 62L24 61L23 61L23 60ZM61 60L61 61L58 61L58 62L61 62L61 63L62 63L62 62L61 62L61 61L62 61L62 60ZM30 61L30 62L31 62L31 61ZM48 61L48 62L49 62L49 61ZM25 62L25 64L26 64L26 62ZM12 63L12 64L13 64L13 63ZM15 63L15 65L22 65L22 64L16 64L16 63ZM47 63L47 64L48 64L48 63ZM55 63L55 64L56 64L56 63ZM0 0L0 7L7 7L7 0ZM1 1L1 6L6 6L6 1ZM2 2L2 5L5 5L5 2ZM58 0L58 7L65 7L65 0ZM59 1L59 6L64 6L64 1ZM60 2L60 5L63 5L63 2ZM0 58L0 65L7 65L7 58ZM1 59L1 64L6 64L6 59ZM2 60L2 63L5 63L5 60Z" fill="#000000"/></g></g></svg>
