<?xml version="1.0" encoding="UTF-8"?>
<svg xmlns="http://www.w3.org/2000/svg" version="1.1" width="300" height="300" viewBox="0 0 300 300"><rect x="0" y="0" width="300" height="300" fill="#ffffff"/><g transform="scale(4.348)"><g transform="translate(0,0)"><path fill-rule="evenodd" d="M9 0L9 1L8 1L8 2L9 2L9 1L10 1L10 2L11 2L11 1L12 1L12 0ZM13 0L13 2L12 2L12 3L8 3L8 4L9 4L9 5L8 5L8 7L9 7L9 5L10 5L10 8L12 8L12 7L13 7L13 8L14 8L14 9L12 9L12 10L11 10L11 9L10 9L10 11L12 11L12 12L11 12L11 13L12 13L12 12L13 12L13 13L14 13L14 12L16 12L16 13L17 13L17 15L18 15L18 14L19 14L19 16L20 16L20 13L21 13L21 15L22 15L22 16L24 16L24 17L23 17L23 18L22 18L22 17L18 17L18 16L16 16L16 17L15 17L15 16L14 16L14 15L13 15L13 16L14 16L14 17L12 17L12 16L11 16L11 15L12 15L12 14L10 14L10 15L8 15L8 14L9 14L9 13L7 13L7 12L8 12L8 11L9 11L9 8L6 8L6 9L5 9L5 8L0 8L0 11L1 11L1 9L3 9L3 10L4 10L4 11L2 11L2 12L3 12L3 13L1 13L1 14L0 14L0 16L1 16L1 18L0 18L0 20L1 20L1 24L2 24L2 20L3 20L3 19L4 19L4 21L5 21L5 22L4 22L4 23L3 23L3 24L4 24L4 23L5 23L5 24L6 24L6 25L5 25L5 26L6 26L6 27L7 27L7 28L6 28L6 29L5 29L5 27L4 27L4 25L2 25L2 26L0 26L0 28L1 28L1 27L4 27L4 29L5 29L5 31L4 31L4 30L3 30L3 29L2 29L2 31L3 31L3 32L1 32L1 31L0 31L0 33L1 33L1 34L0 34L0 35L1 35L1 34L2 34L2 33L4 33L4 35L3 35L3 38L2 38L2 37L1 37L1 38L2 38L2 39L3 39L3 38L4 38L4 42L5 42L5 43L7 43L7 42L9 42L9 44L8 44L8 45L9 45L9 47L8 47L8 48L6 48L6 47L7 47L7 46L6 46L6 45L7 45L7 44L6 44L6 45L5 45L5 46L3 46L3 47L2 47L2 45L1 45L1 44L2 44L2 43L3 43L3 45L4 45L4 43L3 43L3 42L2 42L2 41L3 41L3 40L2 40L2 41L1 41L1 40L0 40L0 41L1 41L1 43L0 43L0 45L1 45L1 47L0 47L0 48L1 48L1 47L2 47L2 52L1 52L1 51L0 51L0 52L1 52L1 53L0 53L0 54L1 54L1 53L2 53L2 52L4 52L4 53L3 53L3 54L2 54L2 56L1 56L1 57L0 57L0 61L1 61L1 57L2 57L2 59L3 59L3 57L4 57L4 56L3 56L3 55L5 55L5 54L6 54L6 55L7 55L7 54L6 54L6 53L9 53L9 54L8 54L8 55L9 55L9 54L10 54L10 55L12 55L12 56L15 56L15 57L14 57L14 59L12 59L12 60L10 60L10 59L9 59L9 58L10 58L10 56L8 56L8 57L7 57L7 56L5 56L5 57L7 57L7 58L4 58L4 59L7 59L7 60L6 60L6 61L8 61L8 63L11 63L11 64L8 64L8 69L10 69L10 68L9 68L9 65L11 65L11 66L10 66L10 67L11 67L11 66L12 66L12 63L13 63L13 65L14 65L14 64L16 64L16 65L15 65L15 67L16 67L16 68L13 68L13 67L12 67L12 69L16 69L16 68L17 68L17 69L19 69L19 68L18 68L18 67L20 67L20 66L19 66L19 65L20 65L20 64L19 64L19 63L21 63L21 64L23 64L23 65L21 65L21 68L20 68L20 69L21 69L21 68L23 68L23 69L24 69L24 68L25 68L25 69L26 69L26 67L28 67L28 68L29 68L29 69L32 69L32 67L33 67L33 66L34 66L34 67L35 67L35 68L36 68L36 69L38 69L38 68L37 68L37 67L39 67L39 68L42 68L42 69L44 69L44 68L47 68L47 69L49 69L49 68L48 68L48 67L50 67L50 65L49 65L49 64L50 64L50 63L49 63L49 64L48 64L48 63L47 63L47 62L50 62L50 61L49 61L49 60L45 60L45 61L47 61L47 62L44 62L44 60L43 60L43 57L44 57L44 56L46 56L46 57L48 57L48 58L47 58L47 59L50 59L50 57L51 57L51 55L54 55L54 56L55 56L55 57L52 57L52 58L53 58L53 59L52 59L52 60L53 60L53 62L52 62L52 63L53 63L53 62L54 62L54 64L53 64L53 66L52 66L52 65L51 65L51 67L55 67L55 68L54 68L54 69L56 69L56 68L57 68L57 67L56 67L56 66L57 66L57 65L59 65L59 64L60 64L60 66L58 66L58 67L60 67L60 69L61 69L61 68L62 68L62 65L65 65L65 64L68 64L68 65L69 65L69 64L68 64L68 62L69 62L69 61L68 61L68 62L67 62L67 61L66 61L66 60L68 60L68 58L69 58L69 57L68 57L68 55L67 55L67 54L69 54L69 53L67 53L67 52L68 52L68 50L69 50L69 48L68 48L68 46L69 46L69 45L68 45L68 44L67 44L67 43L68 43L68 42L69 42L69 41L68 41L68 42L67 42L67 40L68 40L68 36L69 36L69 35L68 35L68 34L69 34L69 33L68 33L68 32L67 32L67 31L64 31L64 32L63 32L63 30L64 30L64 29L63 29L63 28L65 28L65 29L66 29L66 28L67 28L67 30L69 30L69 28L67 28L67 27L68 27L68 26L69 26L69 23L68 23L68 22L67 22L67 21L68 21L68 18L69 18L69 17L68 17L68 16L67 16L67 15L68 15L68 14L69 14L69 12L67 12L67 10L69 10L69 9L68 9L68 8L67 8L67 9L66 9L66 8L65 8L65 9L64 9L64 8L63 8L63 9L64 9L64 10L62 10L62 8L59 8L59 4L58 4L58 7L57 7L57 4L56 4L56 3L59 3L59 2L58 2L58 1L61 1L61 0L53 0L53 1L51 1L51 3L50 3L50 4L49 4L49 3L47 3L47 4L48 4L48 5L49 5L49 6L48 6L48 7L47 7L47 6L46 6L46 5L44 5L44 3L45 3L45 4L46 4L46 3L45 3L45 2L44 2L44 3L43 3L43 0L41 0L41 1L38 1L38 0L37 0L37 1L35 1L35 0L34 0L34 1L35 1L35 3L36 3L36 4L32 4L32 2L33 2L33 1L30 1L30 0L28 0L28 1L27 1L27 2L28 2L28 3L27 3L27 4L26 4L26 1L25 1L25 0L23 0L23 2L21 2L21 3L20 3L20 4L19 4L19 3L17 3L17 5L18 5L18 7L19 7L19 5L20 5L20 8L17 8L17 6L16 6L16 8L15 8L15 5L14 5L14 7L13 7L13 4L14 4L14 3L13 3L13 2L15 2L15 4L16 4L16 2L18 2L18 1L19 1L19 2L20 2L20 1L19 1L19 0L17 0L17 1L16 1L16 0ZM44 0L44 1L45 1L45 0ZM47 0L47 2L48 2L48 1L49 1L49 2L50 2L50 0ZM24 1L24 3L21 3L21 4L20 4L20 5L21 5L21 4L25 4L25 5L26 5L26 6L25 6L25 8L26 8L26 9L24 9L24 8L23 8L23 7L24 7L24 6L23 6L23 5L22 5L22 6L21 6L21 8L20 8L20 10L21 10L21 11L22 11L22 10L23 10L23 11L24 11L24 12L25 12L25 13L27 13L27 14L25 14L25 15L26 15L26 16L25 16L25 17L26 17L26 18L27 18L27 19L26 19L26 26L25 26L25 28L26 28L26 29L25 29L25 30L24 30L24 32L22 32L22 31L23 31L23 29L24 29L24 27L23 27L23 26L24 26L24 25L22 25L22 24L21 24L21 23L22 23L22 22L23 22L23 23L24 23L24 24L25 24L25 23L24 23L24 22L23 22L23 20L20 20L20 22L21 22L21 23L20 23L20 24L19 24L19 23L17 23L17 24L16 24L16 23L15 23L15 22L19 22L19 21L17 21L17 20L19 20L19 19L20 19L20 18L19 18L19 19L15 19L15 17L14 17L14 19L15 19L15 20L13 20L13 18L11 18L11 16L9 16L9 18L8 18L8 17L6 17L6 18L7 18L7 19L5 19L5 20L7 20L7 21L6 21L6 22L5 22L5 23L6 23L6 24L8 24L8 23L9 23L9 22L8 22L8 23L6 23L6 22L7 22L7 21L8 21L8 20L9 20L9 21L10 21L10 22L12 22L12 24L13 24L13 23L15 23L15 24L16 24L16 25L15 25L15 26L16 26L16 25L17 25L17 27L19 27L19 28L20 28L20 30L19 30L19 32L20 32L20 33L19 33L19 34L18 34L18 35L17 35L17 36L16 36L16 35L15 35L15 33L16 33L16 34L17 34L17 33L18 33L18 32L17 32L17 31L18 31L18 30L17 30L17 28L16 28L16 27L14 27L14 25L12 25L12 27L14 27L14 28L11 28L11 25L10 25L10 24L11 24L11 23L10 23L10 24L9 24L9 25L8 25L8 26L7 26L7 25L6 25L6 26L7 26L7 27L8 27L8 26L10 26L10 27L9 27L9 28L7 28L7 29L6 29L6 30L7 30L7 29L10 29L10 30L9 30L9 31L10 31L10 33L9 33L9 34L12 34L12 35L15 35L15 36L12 36L12 39L13 39L13 40L14 40L14 41L13 41L13 42L12 42L12 43L11 43L11 44L9 44L9 45L10 45L10 46L13 46L13 49L12 49L12 47L9 47L9 48L10 48L10 49L9 49L9 50L10 50L10 49L12 49L12 50L11 50L11 51L12 51L12 50L13 50L13 51L14 51L14 52L12 52L12 53L11 53L11 52L10 52L10 51L8 51L8 52L9 52L9 53L10 53L10 54L13 54L13 53L16 53L16 54L17 54L17 55L18 55L18 56L20 56L20 58L19 58L19 59L18 59L18 57L17 57L17 56L16 56L16 57L15 57L15 58L16 58L16 57L17 57L17 60L16 60L16 59L14 59L14 61L13 61L13 63L16 63L16 62L17 62L17 63L18 63L18 62L19 62L19 61L20 61L20 62L22 62L22 63L23 63L23 62L24 62L24 61L25 61L25 62L27 62L27 64L28 64L28 65L25 65L25 66L23 66L23 67L25 67L25 66L28 66L28 65L29 65L29 66L30 66L30 65L29 65L29 64L30 64L30 63L28 63L28 62L29 62L29 61L27 61L27 60L26 60L26 61L25 61L25 60L24 60L24 59L23 59L23 58L24 58L24 57L22 57L22 56L20 56L20 54L21 54L21 55L22 55L22 54L23 54L23 56L26 56L26 57L25 57L25 58L26 58L26 59L27 59L27 58L29 58L29 57L30 57L30 56L29 56L29 55L30 55L30 53L28 53L28 52L29 52L29 50L30 50L30 51L32 51L32 53L33 53L33 54L31 54L31 55L32 55L32 56L31 56L31 57L33 57L33 58L31 58L31 63L32 63L32 59L33 59L33 60L34 60L34 59L33 59L33 58L35 58L35 59L36 59L36 57L38 57L38 58L37 58L37 60L38 60L38 63L37 63L37 64L39 64L39 65L38 65L38 66L39 66L39 67L40 67L40 66L41 66L41 67L43 67L43 68L44 68L44 66L45 66L45 67L46 67L46 66L47 66L47 67L48 67L48 66L49 66L49 65L48 65L48 66L47 66L47 63L45 63L45 64L44 64L44 63L42 63L42 62L41 62L41 60L42 60L42 61L43 61L43 60L42 60L42 58L41 58L41 59L40 59L40 62L39 62L39 57L41 57L41 56L39 56L39 54L40 54L40 55L41 55L41 53L43 53L43 56L42 56L42 57L43 57L43 56L44 56L44 53L45 53L45 54L46 54L46 56L48 56L48 55L51 55L51 53L53 53L53 52L54 52L54 53L55 53L55 54L54 54L54 55L55 55L55 54L56 54L56 57L55 57L55 58L54 58L54 59L55 59L55 60L54 60L54 61L55 61L55 60L56 60L56 61L57 61L57 62L59 62L59 63L60 63L60 62L59 62L59 61L60 61L60 60L61 60L61 58L62 58L62 59L63 59L63 58L65 58L65 57L66 57L66 58L68 58L68 57L66 57L66 56L63 56L63 58L62 58L62 57L61 57L61 58L60 58L60 56L61 56L61 55L66 55L66 54L65 54L65 53L66 53L66 52L65 52L65 51L67 51L67 49L68 49L68 48L65 48L65 47L66 47L66 44L62 44L62 43L65 43L65 41L64 41L64 40L62 40L62 39L67 39L67 37L66 37L66 38L65 38L65 37L64 37L64 38L62 38L62 37L60 37L60 39L59 39L59 36L60 36L60 34L59 34L59 32L61 32L61 31L62 31L62 30L63 30L63 29L62 29L62 27L61 27L61 26L63 26L63 24L64 24L64 25L65 25L65 26L66 26L66 27L65 27L65 28L66 28L66 27L67 27L67 26L68 26L68 23L67 23L67 25L66 25L66 24L64 24L64 23L65 23L65 22L64 22L64 23L63 23L63 21L66 21L66 20L65 20L65 18L63 18L63 17L66 17L66 16L65 16L65 15L64 15L64 16L62 16L62 15L60 15L60 14L59 14L59 13L61 13L61 12L62 12L62 14L64 14L64 13L65 13L65 14L68 14L68 13L67 13L67 12L64 12L64 11L66 11L66 10L64 10L64 11L63 11L63 12L62 12L62 10L59 10L59 8L54 8L54 5L53 5L53 4L54 4L54 2L52 2L52 3L51 3L51 4L50 4L50 5L51 5L51 7L50 7L50 6L49 6L49 7L50 7L50 8L51 8L51 9L49 9L49 10L47 10L47 7L46 7L46 6L45 6L45 7L44 7L44 5L41 5L41 3L42 3L42 1L41 1L41 2L36 2L36 3L38 3L38 4L37 4L37 5L38 5L38 6L37 6L37 7L38 7L38 8L37 8L37 9L38 9L38 12L39 12L39 13L38 13L38 14L37 14L37 17L35 17L35 16L36 16L36 15L35 15L35 13L34 13L34 12L36 12L36 13L37 13L37 10L36 10L36 9L35 9L35 10L33 10L33 9L32 9L32 5L30 5L30 6L29 6L29 8L28 8L28 9L27 9L27 7L28 7L28 6L27 6L27 5L29 5L29 3L30 3L30 2L29 2L29 3L28 3L28 4L27 4L27 5L26 5L26 4L25 4L25 1ZM55 1L55 2L57 2L57 1ZM12 3L12 4L11 4L11 5L12 5L12 4L13 4L13 3ZM60 3L60 5L61 5L61 3ZM39 4L39 5L40 5L40 4ZM51 4L51 5L52 5L52 4ZM55 4L55 5L56 5L56 4ZM33 5L33 8L36 8L36 5ZM11 6L11 7L12 7L12 6ZM22 6L22 7L23 7L23 6ZM26 6L26 7L27 7L27 6ZM30 6L30 7L31 7L31 6ZM34 6L34 7L35 7L35 6ZM38 6L38 7L39 7L39 8L38 8L38 9L39 9L39 8L40 8L40 7L41 7L41 6L40 6L40 7L39 7L39 6ZM42 6L42 7L43 7L43 6ZM52 6L52 7L53 7L53 6ZM55 6L55 7L56 7L56 6ZM60 6L60 7L61 7L61 6ZM45 7L45 9L44 9L44 8L43 8L43 9L40 9L40 11L39 11L39 12L40 12L40 13L39 13L39 14L40 14L40 15L38 15L38 16L40 16L40 15L42 15L42 14L43 14L43 13L42 13L42 14L41 14L41 12L42 12L42 10L45 10L45 9L46 9L46 7ZM16 8L16 9L15 9L15 10L13 10L13 12L14 12L14 11L15 11L15 10L17 10L17 11L18 11L18 12L19 12L19 13L20 13L20 12L19 12L19 10L17 10L17 8ZM21 8L21 9L22 9L22 8ZM29 8L29 9L30 9L30 10L27 10L27 9L26 9L26 10L27 10L27 11L30 11L30 12L29 12L29 14L30 14L30 15L31 15L31 16L29 16L29 15L28 15L28 14L27 14L27 15L28 15L28 16L29 16L29 17L32 17L32 19L31 19L31 18L29 18L29 20L28 20L28 19L27 19L27 20L28 20L28 21L29 21L29 22L30 22L30 23L28 23L28 24L30 24L30 25L29 25L29 27L28 27L28 26L27 26L27 27L26 27L26 28L27 28L27 29L31 29L31 30L30 30L30 31L27 31L27 30L25 30L25 31L26 31L26 32L24 32L24 33L22 33L22 32L21 32L21 31L20 31L20 32L21 32L21 33L22 33L22 34L21 34L21 36L25 36L25 37L23 37L23 38L26 38L26 39L27 39L27 41L28 41L28 39L30 39L30 38L31 38L31 37L32 37L32 39L33 39L33 40L32 40L32 41L30 41L30 40L29 40L29 41L30 41L30 42L29 42L29 44L28 44L28 45L27 45L27 46L28 46L28 45L29 45L29 47L27 47L27 48L29 48L29 49L31 49L31 50L33 50L33 51L34 51L34 50L33 50L33 49L31 49L31 48L29 48L29 47L30 47L30 45L33 45L33 46L32 46L32 47L33 47L33 48L36 48L36 47L37 47L37 48L38 48L38 47L39 47L39 48L40 48L40 47L41 47L41 48L42 48L42 49L41 49L41 50L38 50L38 49L37 49L37 50L36 50L36 49L35 49L35 50L36 50L36 51L35 51L35 54L34 54L34 56L38 56L38 57L39 57L39 56L38 56L38 55L37 55L37 54L39 54L39 52L40 52L40 51L41 51L41 52L42 52L42 51L44 51L44 52L43 52L43 53L44 53L44 52L45 52L45 53L47 53L47 54L50 54L50 53L49 53L49 52L50 52L50 51L51 51L51 52L53 52L53 51L55 51L55 52L57 52L57 53L59 53L59 52L60 52L60 51L61 51L61 54L60 54L60 55L58 55L58 54L57 54L57 57L56 57L56 58L55 58L55 59L56 59L56 58L57 58L57 57L59 57L59 56L60 56L60 55L61 55L61 54L63 54L63 53L64 53L64 51L65 51L65 50L63 50L63 49L64 49L64 48L63 48L63 47L65 47L65 46L63 46L63 47L62 47L62 46L61 46L61 47L62 47L62 48L63 48L63 49L61 49L61 50L59 50L59 52L58 52L58 50L57 50L57 49L59 49L59 48L60 48L60 47L59 47L59 48L57 48L57 49L56 49L56 47L57 47L57 45L59 45L59 46L60 46L60 45L59 45L59 44L60 44L60 43L62 43L62 42L61 42L61 41L62 41L62 40L61 40L61 41L59 41L59 39L58 39L58 40L57 40L57 41L59 41L59 42L57 42L57 43L55 43L55 42L56 42L56 38L55 38L55 37L56 37L56 36L57 36L57 37L58 37L58 36L59 36L59 35L58 35L58 34L56 34L56 33L52 33L52 32L54 32L54 31L53 31L53 30L55 30L55 29L56 29L56 30L57 30L57 31L55 31L55 32L57 32L57 33L58 33L58 32L57 32L57 31L59 31L59 30L62 30L62 29L59 29L59 27L60 27L60 26L61 26L61 23L62 23L62 24L63 24L63 23L62 23L62 21L63 21L63 20L61 20L61 19L60 19L60 20L59 20L59 22L61 22L61 23L59 23L59 24L58 24L58 22L57 22L57 24L58 24L58 25L59 25L59 27L58 27L58 26L57 26L57 29L56 29L56 28L53 28L53 27L54 27L54 26L55 26L55 27L56 27L56 26L55 26L55 25L56 25L56 20L57 20L57 21L58 21L58 19L59 19L59 18L62 18L62 19L63 19L63 18L62 18L62 16L59 16L59 15L57 15L57 14L56 14L56 13L55 13L55 12L61 12L61 11L59 11L59 10L58 10L58 9L57 9L57 10L58 10L58 11L54 11L54 13L51 13L51 14L50 14L50 12L52 12L52 11L51 11L51 10L49 10L49 12L47 12L47 11L46 11L46 12L45 12L45 11L43 11L43 12L45 12L45 13L47 13L47 14L50 14L50 17L49 17L49 16L45 16L45 15L44 15L44 16L42 16L42 17L41 17L41 18L39 18L39 19L37 19L37 18L38 18L38 17L37 17L37 18L35 18L35 17L34 17L34 18L33 18L33 17L32 17L32 14L31 14L31 13L32 13L32 12L31 12L31 11L32 11L32 9L30 9L30 8ZM4 9L4 10L5 10L5 12L4 12L4 13L3 13L3 14L1 14L1 15L4 15L4 16L3 16L3 17L4 17L4 18L5 18L5 15L6 15L6 16L7 16L7 15L6 15L6 14L7 14L7 13L6 13L6 12L7 12L7 11L8 11L8 10L7 10L7 9L6 9L6 10L5 10L5 9ZM23 9L23 10L24 10L24 9ZM53 9L53 10L56 10L56 9ZM6 10L6 11L7 11L7 10ZM35 10L35 11L36 11L36 10ZM25 11L25 12L26 12L26 11ZM33 11L33 12L34 12L34 11ZM40 11L40 12L41 12L41 11ZM21 12L21 13L22 13L22 15L24 15L24 14L23 14L23 12ZM63 12L63 13L64 13L64 12ZM4 13L4 14L5 14L5 13ZM33 13L33 14L34 14L34 13ZM15 14L15 15L16 15L16 14ZM33 15L33 16L34 16L34 15ZM51 15L51 17L50 17L50 18L49 18L49 19L47 19L47 18L48 18L48 17L45 17L45 16L44 16L44 17L43 17L43 20L42 20L42 19L39 19L39 21L40 21L40 22L42 22L42 23L43 23L43 24L44 24L44 25L43 25L43 26L46 26L46 27L45 27L45 28L44 28L44 29L45 29L45 30L44 30L44 31L43 31L43 30L42 30L42 27L38 27L38 28L37 28L37 29L38 29L38 30L37 30L37 31L39 31L39 30L40 30L40 31L43 31L43 32L39 32L39 33L38 33L38 32L37 32L37 33L38 33L38 35L37 35L37 36L38 36L38 37L36 37L36 38L35 38L35 37L34 37L34 38L33 38L33 39L34 39L34 40L33 40L33 41L35 41L35 39L36 39L36 38L38 38L38 40L39 40L39 41L38 41L38 43L37 43L37 44L35 44L35 43L36 43L36 42L35 42L35 43L34 43L34 44L33 44L33 43L32 43L32 42L31 42L31 43L30 43L30 44L29 44L29 45L30 45L30 44L31 44L31 43L32 43L32 44L33 44L33 45L35 45L35 47L36 47L36 45L38 45L38 46L39 46L39 47L40 47L40 46L39 46L39 45L40 45L40 44L41 44L41 43L40 43L40 41L41 41L41 40L44 40L44 42L43 42L43 44L44 44L44 45L43 45L43 46L42 46L42 45L41 45L41 46L42 46L42 48L43 48L43 46L44 46L44 45L45 45L45 46L46 46L46 49L45 49L45 47L44 47L44 49L43 49L43 50L44 50L44 49L45 49L45 52L46 52L46 51L48 51L48 50L49 50L49 49L50 49L50 50L51 50L51 51L53 51L53 50L52 50L52 49L55 49L55 50L56 50L56 51L57 51L57 50L56 50L56 49L55 49L55 48L51 48L51 47L49 47L49 46L51 46L51 45L53 45L53 44L54 44L54 45L55 45L55 46L56 46L56 45L57 45L57 44L54 44L54 43L53 43L53 42L51 42L51 41L53 41L53 40L54 40L54 41L55 41L55 40L54 40L54 39L55 39L55 38L53 38L53 39L51 39L51 37L55 37L55 36L56 36L56 34L55 34L55 35L53 35L53 36L50 36L50 35L47 35L47 34L48 34L48 33L45 33L45 32L44 32L44 31L46 31L46 32L50 32L50 31L51 31L51 32L52 32L52 30L51 30L51 29L53 29L53 28L51 28L51 29L50 29L50 27L47 27L47 25L48 25L48 24L49 24L49 26L52 26L52 27L53 27L53 26L54 26L54 25L53 25L53 24L54 24L54 23L55 23L55 22L54 22L54 23L53 23L53 22L52 22L52 21L55 21L55 20L56 20L56 19L57 19L57 18L59 18L59 16L57 16L57 15L56 15L56 19L54 19L54 18L53 18L53 17L54 17L54 16L52 16L52 15ZM17 17L17 18L18 18L18 17ZM27 17L27 18L28 18L28 17ZM51 17L51 18L50 18L50 19L49 19L49 20L46 20L46 21L49 21L49 24L50 24L50 21L52 21L52 20L54 20L54 19L52 19L52 17ZM2 18L2 19L1 19L1 20L2 20L2 19L3 19L3 18ZM23 18L23 19L24 19L24 20L25 20L25 18ZM34 18L34 19L32 19L32 20L31 20L31 21L30 21L30 22L31 22L31 21L32 21L32 22L33 22L33 21L32 21L32 20L37 20L37 21L34 21L34 22L37 22L37 23L36 23L36 24L35 24L35 23L31 23L31 27L30 27L30 28L31 28L31 29L32 29L32 28L31 28L31 27L33 27L33 28L34 28L34 29L33 29L33 30L32 30L32 32L31 32L31 31L30 31L30 32L31 32L31 33L29 33L29 32L28 32L28 33L25 33L25 36L26 36L26 38L30 38L30 37L29 37L29 36L28 36L28 35L27 35L27 36L26 36L26 34L28 34L28 33L29 33L29 34L32 34L32 32L34 32L34 31L33 31L33 30L34 30L34 29L36 29L36 28L35 28L35 27L36 27L36 26L35 26L35 25L37 25L37 23L38 23L38 26L41 26L41 25L42 25L42 24L41 24L41 23L40 23L40 24L39 24L39 22L37 22L37 21L38 21L38 20L37 20L37 19L35 19L35 18ZM44 18L44 19L46 19L46 18ZM9 19L9 20L10 20L10 21L12 21L12 22L14 22L14 21L12 21L12 20L10 20L10 19ZM50 19L50 20L52 20L52 19ZM41 20L41 21L42 21L42 22L44 22L44 23L45 23L45 24L46 24L46 25L47 25L47 24L48 24L48 23L47 23L47 24L46 24L46 22L44 22L44 20L43 20L43 21L42 21L42 20ZM51 23L51 24L53 24L53 23ZM17 24L17 25L19 25L19 26L20 26L20 28L23 28L23 27L22 27L22 25L21 25L21 26L20 26L20 25L19 25L19 24ZM59 24L59 25L60 25L60 24ZM32 25L32 26L34 26L34 25ZM52 25L52 26L53 26L53 25ZM10 28L10 29L11 29L11 28ZM14 28L14 29L13 29L13 30L14 30L14 33L13 33L13 31L11 31L11 30L10 30L10 31L11 31L11 32L12 32L12 34L14 34L14 33L15 33L15 32L16 32L16 33L17 33L17 32L16 32L16 31L17 31L17 30L14 30L14 29L15 29L15 28ZM39 28L39 29L40 29L40 28ZM47 28L47 31L49 31L49 30L50 30L50 29L49 29L49 28ZM0 29L0 30L1 30L1 29ZM48 29L48 30L49 30L49 29ZM57 29L57 30L59 30L59 29ZM6 31L6 32L7 32L7 31ZM43 32L43 33L40 33L40 36L41 36L41 34L43 34L43 33L44 33L44 36L43 36L43 35L42 35L42 37L41 37L41 38L42 38L42 39L45 39L45 40L47 40L47 41L49 41L49 42L46 42L46 43L45 43L45 42L44 42L44 43L45 43L45 45L46 45L46 44L47 44L47 46L49 46L49 45L50 45L50 43L49 43L49 42L50 42L50 36L45 36L45 33L44 33L44 32ZM66 32L66 33L67 33L67 34L68 34L68 33L67 33L67 32ZM5 33L5 36L8 36L8 33ZM33 33L33 36L36 36L36 33ZM50 33L50 34L52 34L52 33ZM61 33L61 36L64 36L64 33ZM6 34L6 35L7 35L7 34ZM19 34L19 35L18 35L18 36L17 36L17 37L18 37L18 38L15 38L15 40L16 40L16 39L18 39L18 40L17 40L17 41L18 41L18 42L17 42L17 44L16 44L16 43L15 43L15 44L14 44L14 45L13 45L13 43L12 43L12 44L11 44L11 45L13 45L13 46L16 46L16 45L17 45L17 47L14 47L14 49L13 49L13 50L14 50L14 49L16 49L16 48L17 48L17 49L18 49L18 50L17 50L17 52L16 52L16 50L15 50L15 52L16 52L16 53L18 53L18 55L19 55L19 54L20 54L20 53L19 53L19 52L21 52L21 49L18 49L18 48L17 48L17 47L18 47L18 46L20 46L20 45L19 45L19 44L20 44L20 41L19 41L19 40L21 40L21 41L22 41L22 40L21 40L21 39L22 39L22 37L21 37L21 38L20 38L20 37L19 37L19 35L20 35L20 34ZM23 34L23 35L24 35L24 34ZM34 34L34 35L35 35L35 34ZM62 34L62 35L63 35L63 34ZM65 34L65 35L66 35L66 34ZM9 35L9 39L8 39L8 38L7 38L7 37L6 37L6 38L7 38L7 39L5 39L5 42L7 42L7 41L8 41L8 40L9 40L9 39L11 39L11 37L10 37L10 36L11 36L11 35ZM30 35L30 36L31 36L31 35ZM57 35L57 36L58 36L58 35ZM67 35L67 36L68 36L68 35ZM27 36L27 37L28 37L28 36ZM44 36L44 37L45 37L45 38L47 38L47 40L48 40L48 39L49 39L49 37L45 37L45 36ZM19 38L19 39L20 39L20 38ZM61 38L61 39L62 39L62 38ZM7 39L7 40L6 40L6 41L7 41L7 40L8 40L8 39ZM24 39L24 41L23 41L23 42L24 42L24 41L26 41L26 40L25 40L25 39ZM39 39L39 40L41 40L41 39ZM9 41L9 42L11 42L11 41ZM14 41L14 42L16 42L16 41ZM63 41L63 42L64 42L64 41ZM21 42L21 43L22 43L22 42ZM25 42L25 44L24 44L24 43L23 43L23 44L24 44L24 45L23 45L23 46L21 46L21 47L20 47L20 48L21 48L21 47L23 47L23 49L22 49L22 50L25 50L25 52L24 52L24 53L23 53L23 54L25 54L25 55L26 55L26 56L27 56L27 57L29 57L29 56L27 56L27 54L28 54L28 53L27 53L27 54L25 54L25 53L26 53L26 52L28 52L28 51L26 51L26 49L25 49L25 48L26 48L26 47L25 47L25 45L26 45L26 44L27 44L27 43L28 43L28 42ZM18 43L18 44L19 44L19 43ZM39 43L39 44L38 44L38 45L39 45L39 44L40 44L40 43ZM48 43L48 44L49 44L49 43ZM51 43L51 44L52 44L52 43ZM15 44L15 45L16 45L16 44ZM5 46L5 47L4 47L4 48L3 48L3 49L4 49L4 48L5 48L5 49L6 49L6 50L7 50L7 49L6 49L6 48L5 48L5 47L6 47L6 46ZM23 46L23 47L24 47L24 46ZM33 46L33 47L34 47L34 46ZM53 46L53 47L54 47L54 46ZM47 47L47 48L48 48L48 49L47 49L47 50L48 50L48 49L49 49L49 48L48 48L48 47ZM0 49L0 50L1 50L1 49ZM27 49L27 50L28 50L28 49ZM4 50L4 52L5 52L5 53L4 53L4 54L5 54L5 53L6 53L6 52L7 52L7 51L6 51L6 52L5 52L5 50ZM18 50L18 52L19 52L19 51L20 51L20 50ZM37 50L37 51L38 51L38 50ZM41 50L41 51L42 51L42 50ZM61 50L61 51L63 51L63 50ZM22 51L22 52L23 52L23 51ZM33 52L33 53L34 53L34 52ZM36 52L36 53L38 53L38 52ZM21 53L21 54L22 54L22 53ZM14 54L14 55L15 55L15 54ZM49 56L49 57L50 57L50 56ZM8 57L8 58L7 58L7 59L8 59L8 58L9 58L9 57ZM11 57L11 58L13 58L13 57ZM21 57L21 58L20 58L20 59L21 59L21 58L22 58L22 57ZM45 58L45 59L46 59L46 58ZM28 59L28 60L29 60L29 59ZM64 59L64 60L66 60L66 59ZM3 60L3 61L5 61L5 60ZM17 60L17 61L19 61L19 60ZM20 60L20 61L22 61L22 62L23 62L23 61L24 61L24 60L23 60L23 61L22 61L22 60ZM57 60L57 61L59 61L59 60ZM11 61L11 63L12 63L12 61ZM33 61L33 64L36 64L36 61ZM61 61L61 64L64 64L64 61ZM34 62L34 63L35 63L35 62ZM55 62L55 63L56 63L56 65L57 65L57 64L58 64L58 63L56 63L56 62ZM62 62L62 63L63 63L63 62ZM65 62L65 63L66 63L66 62ZM24 63L24 64L26 64L26 63ZM39 63L39 64L41 64L41 66L44 66L44 64L41 64L41 63ZM17 64L17 65L16 65L16 67L17 67L17 65L18 65L18 64ZM45 64L45 66L46 66L46 64ZM54 64L54 65L55 65L55 64ZM31 65L31 66L32 66L32 65ZM34 65L34 66L36 66L36 65ZM65 66L65 67L63 67L63 69L64 69L64 68L67 68L67 69L68 69L68 68L67 68L67 67L66 67L66 66ZM30 67L30 68L31 68L31 67ZM33 68L33 69L34 69L34 68ZM50 68L50 69L51 69L51 68ZM0 0L0 7L7 7L7 0ZM1 1L1 6L6 6L6 1ZM2 2L2 5L5 5L5 2ZM62 0L62 7L69 7L69 0ZM63 1L63 6L68 6L68 1ZM64 2L64 5L67 5L67 2ZM0 62L0 69L7 69L7 62ZM1 63L1 68L6 68L6 63ZM2 64L2 67L5 67L5 64Z" fill="#000000"/></g></g></svg>
