<?xml version="1.0" encoding="UTF-8"?>
<svg xmlns="http://www.w3.org/2000/svg" version="1.1" width="300" height="300" viewBox="0 0 300 300"><rect x="0" y="0" width="300" height="300" fill="#ffffff"/><g transform="scale(4.348)"><g transform="translate(0,0)"><path fill-rule="evenodd" d="M9 0L9 1L8 1L8 2L9 2L9 1L10 1L10 0ZM12 0L12 1L13 1L13 3L10 3L10 5L11 5L11 6L10 6L10 7L11 7L11 6L12 6L12 7L13 7L13 6L12 6L12 5L13 5L13 4L16 4L16 5L17 5L17 6L16 6L16 7L15 7L15 6L14 6L14 8L11 8L11 9L10 9L10 10L14 10L14 11L13 11L13 12L11 12L11 11L9 11L9 12L6 12L6 11L8 11L8 10L6 10L6 11L4 11L4 10L5 10L5 8L0 8L0 9L1 9L1 10L0 10L0 11L1 11L1 13L0 13L0 15L1 15L1 14L2 14L2 13L3 13L3 12L5 12L5 13L4 13L4 14L3 14L3 15L2 15L2 16L1 16L1 17L4 17L4 16L3 16L3 15L4 15L4 14L5 14L5 18L6 18L6 19L4 19L4 18L1 18L1 19L4 19L4 20L3 20L3 21L2 21L2 22L3 22L3 24L2 24L2 23L1 23L1 20L0 20L0 23L1 23L1 24L0 24L0 25L3 25L3 26L6 26L6 27L5 27L5 28L2 28L2 27L1 27L1 26L0 26L0 27L1 27L1 28L0 28L0 29L1 29L1 30L3 30L3 29L4 29L4 31L2 31L2 32L4 32L4 37L5 37L5 38L4 38L4 39L3 39L3 38L2 38L2 37L3 37L3 36L2 36L2 35L3 35L3 34L2 34L2 33L1 33L1 34L2 34L2 35L1 35L1 36L2 36L2 37L0 37L0 38L2 38L2 39L0 39L0 40L2 40L2 41L0 41L0 42L1 42L1 43L0 43L0 44L1 44L1 47L0 47L0 48L5 48L5 47L7 47L7 46L9 46L9 48L8 48L8 49L7 49L7 48L6 48L6 49L7 49L7 50L6 50L6 51L9 51L9 53L11 53L11 52L12 52L12 50L13 50L13 52L16 52L16 51L17 51L17 50L16 50L16 51L14 51L14 50L15 50L15 49L16 49L16 48L17 48L17 49L18 49L18 50L20 50L20 51L19 51L19 52L17 52L17 54L15 54L15 55L17 55L17 57L16 57L16 56L14 56L14 55L13 55L13 54L14 54L14 53L13 53L13 54L12 54L12 55L13 55L13 56L14 56L14 57L12 57L12 56L11 56L11 54L8 54L8 55L10 55L10 58L9 58L9 56L6 56L6 55L7 55L7 54L6 54L6 55L4 55L4 54L3 54L3 53L5 53L5 52L4 52L4 51L5 51L5 49L3 49L3 50L2 50L2 52L1 52L1 53L0 53L0 55L1 55L1 56L0 56L0 61L1 61L1 58L2 58L2 59L3 59L3 58L4 58L4 59L8 59L8 58L9 58L9 61L8 61L8 63L9 63L9 64L8 64L8 69L9 69L9 67L11 67L11 69L13 69L13 68L14 68L14 69L15 69L15 67L13 67L13 64L14 64L14 63L13 63L13 62L11 62L11 64L10 64L10 61L11 61L11 60L12 60L12 61L13 61L13 60L14 60L14 59L16 59L16 60L17 60L17 61L21 61L21 63L23 63L23 64L25 64L25 65L23 65L23 66L22 66L22 65L21 65L21 68L20 68L20 69L21 69L21 68L25 68L25 69L26 69L26 68L25 68L25 67L26 67L26 66L25 66L25 65L28 65L28 66L27 66L27 67L28 67L28 68L29 68L29 69L32 69L32 67L33 67L33 69L35 69L35 68L36 68L36 69L38 69L38 68L37 68L37 67L39 67L39 66L37 66L37 65L38 65L38 64L37 64L37 63L38 63L38 61L37 61L37 60L38 60L38 57L36 57L36 56L38 56L38 55L37 55L37 54L39 54L39 56L41 56L41 57L39 57L39 62L40 62L40 59L41 59L41 58L42 58L42 60L41 60L41 62L42 62L42 63L44 63L44 64L41 64L41 63L39 63L39 64L41 64L41 66L40 66L40 67L41 67L41 66L44 66L44 68L43 68L43 67L42 67L42 68L41 68L41 69L44 69L44 68L48 68L48 69L49 69L49 68L50 68L50 69L51 69L51 68L52 68L52 67L53 67L53 69L54 69L54 68L55 68L55 69L56 69L56 67L54 67L54 66L58 66L58 67L57 67L57 68L58 68L58 69L61 69L61 68L62 68L62 69L64 69L64 68L66 68L66 69L68 69L68 68L67 68L67 67L64 67L64 66L65 66L65 64L67 64L67 65L68 65L68 64L69 64L69 63L68 63L68 62L69 62L69 61L68 61L68 62L67 62L67 61L65 61L65 60L67 60L67 59L68 59L68 60L69 60L69 59L68 59L68 56L69 56L69 55L68 55L68 54L69 54L69 53L66 53L66 54L65 54L65 55L61 55L61 54L60 54L60 53L62 53L62 52L63 52L63 53L64 53L64 52L68 52L68 50L69 50L69 47L68 47L68 46L69 46L69 45L67 45L67 42L69 42L69 39L68 39L68 36L69 36L69 35L68 35L68 34L69 34L69 33L68 33L68 32L69 32L69 31L64 31L64 32L63 32L63 30L62 30L62 29L61 29L61 28L62 28L62 27L63 27L63 28L69 28L69 27L68 27L68 26L69 26L69 23L68 23L68 18L69 18L69 17L67 17L67 15L68 15L68 16L69 16L69 15L68 15L68 13L69 13L69 12L67 12L67 11L68 11L68 8L67 8L67 9L66 9L66 8L65 8L65 9L64 9L64 8L63 8L63 10L65 10L65 11L64 11L64 12L65 12L65 13L64 13L64 14L63 14L63 15L62 15L62 12L63 12L63 11L62 11L62 8L61 8L61 6L60 6L60 7L59 7L59 4L58 4L58 5L57 5L57 6L56 6L56 7L55 7L55 5L56 5L56 3L55 3L55 2L54 2L54 3L55 3L55 4L52 4L52 5L51 5L51 6L50 6L50 7L49 7L49 6L48 6L48 7L47 7L47 6L46 6L46 5L44 5L44 3L45 3L45 4L46 4L46 3L45 3L45 2L47 2L47 4L48 4L48 5L50 5L50 4L51 4L51 3L50 3L50 4L49 4L49 3L48 3L48 1L50 1L50 0L47 0L47 1L45 1L45 0L44 0L44 1L45 1L45 2L44 2L44 3L43 3L43 4L42 4L42 2L43 2L43 0L41 0L41 1L35 1L35 0L34 0L34 2L35 2L35 3L33 3L33 2L32 2L32 3L30 3L30 2L31 2L31 1L30 1L30 0L28 0L28 1L27 1L27 2L28 2L28 3L27 3L27 4L26 4L26 1L25 1L25 0L23 0L23 1L22 1L22 2L23 2L23 1L24 1L24 2L25 2L25 3L24 3L24 4L22 4L22 5L21 5L21 6L20 6L20 5L19 5L19 4L21 4L21 3L19 3L19 2L20 2L20 1L19 1L19 0L17 0L17 2L16 2L16 1L15 1L15 0L14 0L14 1L13 1L13 0ZM52 0L52 1L56 1L56 0ZM58 0L58 1L61 1L61 0ZM41 1L41 2L42 2L42 1ZM15 2L15 3L16 3L16 4L17 4L17 5L18 5L18 4L17 4L17 3L16 3L16 2ZM37 2L37 3L38 3L38 4L37 4L37 5L38 5L38 6L37 6L37 7L38 7L38 8L39 8L39 9L38 9L38 12L37 12L37 10L36 10L36 9L35 9L35 10L34 10L34 11L33 11L33 10L32 10L32 11L31 11L31 12L32 12L32 13L31 13L31 15L29 15L29 14L30 14L30 13L29 13L29 12L30 12L30 11L29 11L29 10L30 10L30 9L31 9L31 7L32 7L32 5L30 5L30 4L29 4L29 3L28 3L28 4L27 4L27 5L26 5L26 4L25 4L25 5L22 5L22 6L21 6L21 7L20 7L20 6L19 6L19 8L20 8L20 10L21 10L21 12L20 12L20 11L19 11L19 13L20 13L20 14L21 14L21 13L22 13L22 15L23 15L23 13L24 13L24 12L25 12L25 9L24 9L24 6L25 6L25 7L26 7L26 6L27 6L27 8L26 8L26 10L27 10L27 11L26 11L26 13L27 13L27 14L24 14L24 15L26 15L26 16L24 16L24 17L26 17L26 18L27 18L27 19L26 19L26 21L25 21L25 22L24 22L24 23L23 23L23 24L24 24L24 23L25 23L25 22L26 22L26 23L27 23L27 24L26 24L26 25L25 25L25 26L26 26L26 27L30 27L30 28L29 28L29 29L28 29L28 28L26 28L26 30L27 30L27 29L28 29L28 30L29 30L29 31L30 31L30 32L31 32L31 31L30 31L30 30L31 30L31 29L32 29L32 28L31 28L31 27L33 27L33 30L32 30L32 32L34 32L34 31L33 31L33 30L34 30L34 29L35 29L35 30L36 30L36 28L35 28L35 27L36 27L36 26L35 26L35 27L33 27L33 25L34 25L34 24L35 24L35 25L38 25L38 27L37 27L37 29L38 29L38 30L37 30L37 31L35 31L35 32L37 32L37 31L39 31L39 30L40 30L40 31L43 31L43 32L38 32L38 34L37 34L37 36L38 36L38 37L36 37L36 38L35 38L35 37L34 37L34 39L36 39L36 38L38 38L38 39L37 39L37 40L39 40L39 41L38 41L38 42L34 42L34 41L36 41L36 40L33 40L33 39L32 39L32 38L30 38L30 37L29 37L29 36L28 36L28 35L27 35L27 36L26 36L26 35L24 35L24 34L23 34L23 32L26 32L26 31L25 31L25 30L23 30L23 31L22 31L22 29L24 29L24 27L23 27L23 28L22 28L22 29L21 29L21 27L22 27L22 26L24 26L24 25L22 25L22 24L21 24L21 23L22 23L22 22L23 22L23 20L22 20L22 19L23 19L23 18L21 18L21 20L20 20L20 22L21 22L21 23L20 23L20 24L19 24L19 23L17 23L17 22L18 22L18 21L17 21L17 22L16 22L16 23L15 23L15 22L14 22L14 19L15 19L15 20L16 20L16 18L18 18L18 19L17 19L17 20L19 20L19 19L20 19L20 18L18 18L18 17L23 17L23 16L21 16L21 15L19 15L19 14L18 14L18 15L17 15L17 12L16 12L16 11L17 11L17 10L18 10L18 9L16 9L16 8L18 8L18 6L17 6L17 7L16 7L16 8L14 8L14 10L15 10L15 12L16 12L16 15L17 15L17 16L15 16L15 14L14 14L14 12L13 12L13 14L11 14L11 13L10 13L10 12L9 12L9 13L10 13L10 14L7 14L7 13L6 13L6 14L7 14L7 15L6 15L6 16L7 16L7 15L8 15L8 16L10 16L10 17L11 17L11 16L12 16L12 15L13 15L13 18L12 18L12 19L10 19L10 18L9 18L9 17L8 17L8 19L6 19L6 20L10 20L10 22L9 22L9 21L8 21L8 22L7 22L7 21L6 21L6 22L5 22L5 23L4 23L4 25L5 25L5 23L6 23L6 24L11 24L11 27L10 27L10 28L9 28L9 30L8 30L8 31L5 31L5 32L8 32L8 31L9 31L9 30L10 30L10 33L9 33L9 36L10 36L10 37L11 37L11 36L12 36L12 37L13 37L13 38L14 38L14 39L15 39L15 38L16 38L16 40L14 40L14 41L16 41L16 42L15 42L15 43L16 43L16 45L14 45L14 44L13 44L13 45L12 45L12 46L11 46L11 45L9 45L9 46L11 46L11 47L13 47L13 48L11 48L11 49L10 49L10 52L11 52L11 50L12 50L12 49L13 49L13 48L15 48L15 46L17 46L17 41L18 41L18 42L19 42L19 43L18 43L18 44L19 44L19 43L20 43L20 47L19 47L19 46L18 46L18 47L17 47L17 48L18 48L18 49L21 49L21 50L22 50L22 51L23 51L23 52L20 52L20 55L22 55L22 54L23 54L23 53L24 53L24 51L25 51L25 50L24 50L24 51L23 51L23 50L22 50L22 49L26 49L26 54L24 54L24 55L23 55L23 56L25 56L25 55L26 55L26 57L25 57L25 58L29 58L29 57L30 57L30 56L29 56L29 55L30 55L30 53L28 53L28 52L29 52L29 50L30 50L30 52L31 52L31 51L32 51L32 52L34 52L34 53L33 53L33 56L31 56L31 63L32 63L32 59L37 59L37 58L32 58L32 57L35 57L35 56L34 56L34 55L35 55L35 54L36 54L36 53L35 53L35 51L36 51L36 50L37 50L37 47L36 47L36 46L39 46L39 47L38 47L38 48L39 48L39 49L38 49L38 51L39 51L39 52L40 52L40 53L39 53L39 54L40 54L40 55L41 55L41 53L43 53L43 54L42 54L42 55L43 55L43 56L42 56L42 57L43 57L43 59L44 59L44 61L43 61L43 60L42 60L42 61L43 61L43 62L44 62L44 63L45 63L45 64L44 64L44 66L45 66L45 67L46 67L46 66L47 66L47 64L51 64L51 65L50 65L50 66L49 66L49 65L48 65L48 66L49 66L49 67L48 67L48 68L49 68L49 67L50 67L50 66L51 66L51 65L52 65L52 66L54 66L54 65L53 65L53 63L51 63L51 62L54 62L54 63L55 63L55 64L56 64L56 65L57 65L57 64L56 64L56 61L57 61L57 63L58 63L58 66L59 66L59 65L60 65L60 64L59 64L59 63L60 63L60 60L61 60L61 59L60 59L60 58L61 58L61 57L62 57L62 59L63 59L63 58L65 58L65 59L67 59L67 56L64 56L64 57L62 57L62 56L61 56L61 55L59 55L59 56L57 56L57 55L58 55L58 54L59 54L59 53L60 53L60 52L61 52L61 51L58 51L58 50L60 50L60 49L61 49L61 47L60 47L60 46L59 46L59 45L61 45L61 44L62 44L62 49L63 49L63 50L62 50L62 51L63 51L63 52L64 52L64 51L63 51L63 50L65 50L65 51L67 51L67 50L65 50L65 49L68 49L68 48L65 48L65 47L66 47L66 45L65 45L65 43L64 43L64 44L62 44L62 43L63 43L63 42L67 42L67 41L68 41L68 39L67 39L67 37L64 37L64 38L62 38L62 39L61 39L61 37L59 37L59 36L60 36L60 34L59 34L59 33L58 33L58 32L62 32L62 30L59 30L59 29L60 29L60 28L59 28L59 29L57 29L57 28L56 28L56 25L57 25L57 26L58 26L58 27L59 27L59 26L60 26L60 25L61 25L61 26L63 26L63 27L67 27L67 26L68 26L68 23L67 23L67 26L65 26L65 25L66 25L66 24L65 24L65 23L63 23L63 24L62 24L62 22L63 22L63 21L64 21L64 22L67 22L67 21L65 21L65 18L67 18L67 17L66 17L66 16L65 16L65 15L64 15L64 16L62 16L62 15L61 15L61 16L62 16L62 18L61 18L61 21L62 21L62 22L59 22L59 20L58 20L58 19L59 19L59 17L58 17L58 16L60 16L60 15L59 15L59 14L60 14L60 13L61 13L61 12L60 12L60 13L58 13L58 12L59 12L59 7L58 7L58 6L57 6L57 7L58 7L58 8L56 8L56 9L55 9L55 8L53 8L53 7L54 7L54 5L52 5L52 6L51 6L51 7L50 7L50 8L49 8L49 9L50 9L50 10L47 10L47 7L46 7L46 6L45 6L45 7L44 7L44 5L43 5L43 7L42 7L42 6L41 6L41 5L40 5L40 4L41 4L41 3L39 3L39 2ZM57 2L57 3L59 3L59 2ZM8 3L8 4L9 4L9 3ZM32 3L32 4L33 4L33 3ZM60 3L60 5L61 5L61 3ZM8 5L8 7L9 7L9 5ZM27 5L27 6L28 6L28 7L29 7L29 6L30 6L30 7L31 7L31 6L30 6L30 5L29 5L29 6L28 6L28 5ZM33 5L33 8L36 8L36 5ZM22 6L22 7L23 7L23 6ZM34 6L34 7L35 7L35 6ZM38 6L38 7L39 7L39 8L40 8L40 7L41 7L41 6L40 6L40 7L39 7L39 6ZM52 6L52 7L51 7L51 8L52 8L52 7L53 7L53 6ZM45 7L45 9L44 9L44 8L43 8L43 9L39 9L39 10L41 10L41 12L40 12L40 11L39 11L39 12L40 12L40 13L39 13L39 14L38 14L38 13L37 13L37 14L35 14L35 15L36 15L36 16L35 16L35 17L34 17L34 18L33 18L33 16L34 16L34 15L33 15L33 16L32 16L32 15L31 15L31 16L29 16L29 17L31 17L31 16L32 16L32 19L31 19L31 20L29 20L29 21L31 21L31 20L32 20L32 23L31 23L31 22L30 22L30 23L28 23L28 25L27 25L27 26L28 26L28 25L29 25L29 26L30 26L30 27L31 27L31 26L32 26L32 25L31 25L31 24L32 24L32 23L33 23L33 24L34 24L34 23L33 23L33 22L34 22L34 21L33 21L33 20L32 20L32 19L37 19L37 20L38 20L38 21L37 21L37 22L35 22L35 23L37 23L37 22L41 22L41 24L42 24L42 25L41 25L41 26L39 26L39 27L38 27L38 29L40 29L40 28L39 28L39 27L42 27L42 30L43 30L43 28L45 28L45 29L44 29L44 30L45 30L45 31L44 31L44 32L43 32L43 33L40 33L40 35L39 35L39 36L40 36L40 35L41 35L41 38L42 38L42 39L45 39L45 40L47 40L47 41L49 41L49 42L46 42L46 43L47 43L47 44L45 44L45 42L44 42L44 40L41 40L41 39L40 39L40 37L39 37L39 40L41 40L41 41L40 41L40 43L39 43L39 42L38 42L38 45L39 45L39 46L40 46L40 47L39 47L39 48L40 48L40 47L41 47L41 48L42 48L42 49L41 49L41 50L39 50L39 51L40 51L40 52L41 52L41 50L42 50L42 51L44 51L44 52L43 52L43 53L44 53L44 56L43 56L43 57L44 57L44 56L46 56L46 57L47 57L47 58L48 58L48 59L50 59L50 56L51 56L51 55L49 55L49 54L50 54L50 53L49 53L49 51L50 51L50 52L51 52L51 51L53 51L53 54L52 54L52 55L53 55L53 56L54 56L54 54L55 54L55 57L52 57L52 58L51 58L51 59L52 59L52 60L53 60L53 61L54 61L54 62L55 62L55 61L56 61L56 60L55 60L55 59L54 59L54 60L53 60L53 59L52 59L52 58L56 58L56 54L58 54L58 53L59 53L59 52L58 52L58 51L57 51L57 50L58 50L58 49L59 49L59 48L60 48L60 47L58 47L58 46L57 46L57 45L59 45L59 42L60 42L60 41L62 41L62 40L63 40L63 41L66 41L66 40L67 40L67 39L66 39L66 38L65 38L65 39L62 39L62 40L60 40L60 41L59 41L59 42L58 42L58 43L57 43L57 45L56 45L56 44L55 44L55 45L54 45L54 43L55 43L55 42L57 42L57 41L56 41L56 40L57 40L57 38L55 38L55 37L56 37L56 36L57 36L57 37L58 37L58 36L57 36L57 35L59 35L59 34L56 34L56 36L54 36L54 34L55 34L55 33L56 33L56 32L53 32L53 30L54 30L54 31L56 31L56 30L55 30L55 29L56 29L56 28L54 28L54 27L53 27L53 26L55 26L55 25L56 25L56 24L55 24L55 23L53 23L53 22L55 22L55 20L57 20L57 21L56 21L56 22L57 22L57 23L58 23L58 22L57 22L57 21L58 21L58 20L57 20L57 18L56 18L56 16L57 16L57 15L56 15L56 16L54 16L54 15L55 15L55 14L57 14L57 13L53 13L53 14L54 14L54 15L53 15L53 17L54 17L54 18L52 18L52 17L51 17L51 19L52 19L52 20L48 20L48 19L50 19L50 16L52 16L52 15L51 15L51 14L52 14L52 13L51 13L51 14L50 14L50 12L51 12L51 11L50 11L50 12L46 12L46 11L44 11L44 12L43 12L43 13L42 13L42 14L41 14L41 12L42 12L42 10L45 10L45 9L46 9L46 7ZM6 8L6 9L9 9L9 8ZM21 8L21 9L22 9L22 8ZM27 8L27 9L28 9L28 8ZM29 8L29 9L30 9L30 8ZM60 8L60 9L61 9L61 8ZM3 9L3 10L2 10L2 11L3 11L3 10L4 10L4 9ZM23 9L23 10L24 10L24 9ZM51 9L51 10L52 10L52 9ZM53 9L53 11L54 11L54 12L58 12L58 11L57 11L57 9L56 9L56 10L55 10L55 9ZM35 10L35 11L36 11L36 10ZM66 10L66 11L67 11L67 10ZM23 11L23 12L24 12L24 11ZM27 11L27 12L29 12L29 11ZM33 12L33 14L34 14L34 13L36 13L36 12ZM44 12L44 14L42 14L42 15L40 15L40 14L39 14L39 15L38 15L38 18L37 18L37 19L39 19L39 18L41 18L41 17L42 17L42 16L44 16L44 17L43 17L43 20L44 20L44 22L43 22L43 24L44 24L44 25L43 25L43 26L46 26L46 27L47 27L47 28L49 28L49 29L48 29L48 30L49 30L49 33L46 33L46 32L47 32L47 29L45 29L45 30L46 30L46 32L44 32L44 33L43 33L43 34L41 34L41 35L43 35L43 36L44 36L44 37L45 37L45 38L47 38L47 37L45 37L45 36L47 36L47 35L49 35L49 36L50 36L50 38L49 38L49 41L50 41L50 42L49 42L49 43L48 43L48 44L49 44L49 43L50 43L50 44L51 44L51 45L49 45L49 46L47 46L47 45L45 45L45 44L43 44L43 46L42 46L42 45L41 45L41 46L42 46L42 48L43 48L43 47L44 47L44 49L43 49L43 50L44 50L44 49L45 49L45 52L44 52L44 53L45 53L45 54L46 54L46 56L47 56L47 55L48 55L48 54L49 54L49 53L48 53L48 54L47 54L47 53L45 53L45 52L46 52L46 51L47 51L47 50L48 50L48 49L47 49L47 47L49 47L49 46L52 46L52 47L50 47L50 48L52 48L52 49L49 49L49 50L53 50L53 49L55 49L55 51L54 51L54 52L56 52L56 53L55 53L55 54L56 54L56 53L58 53L58 52L57 52L57 51L56 51L56 49L58 49L58 48L56 48L56 47L55 47L55 48L54 48L54 46L52 46L52 45L53 45L53 43L54 43L54 42L53 42L53 43L51 43L51 41L53 41L53 40L54 40L54 41L55 41L55 39L54 39L54 38L53 38L53 34L52 34L52 35L50 35L50 34L51 34L51 33L53 33L53 32L50 32L50 30L53 30L53 27L51 27L51 29L50 29L50 27L47 27L47 25L48 25L48 24L49 24L49 25L50 25L50 26L51 26L51 25L52 25L52 26L53 26L53 25L55 25L55 24L53 24L53 23L50 23L50 22L53 22L53 20L52 20L52 21L50 21L50 22L49 22L49 23L48 23L48 24L47 24L47 21L48 21L48 20L47 20L47 19L46 19L46 18L48 18L48 17L47 17L47 16L49 16L49 15L50 15L50 14L47 14L47 13L45 13L45 12ZM65 13L65 14L67 14L67 13ZM10 14L10 15L11 15L11 14ZM27 14L27 16L28 16L28 14ZM44 14L44 16L45 16L45 18L44 18L44 19L45 19L45 18L46 18L46 16L47 16L47 15L46 15L46 16L45 16L45 14ZM39 15L39 16L40 16L40 15ZM14 16L14 18L13 18L13 19L14 19L14 18L16 18L16 17L15 17L15 16ZM17 16L17 17L18 17L18 16ZM6 17L6 18L7 18L7 17ZM27 17L27 18L28 18L28 17ZM35 17L35 18L36 18L36 17ZM63 17L63 18L62 18L62 19L63 19L63 20L62 20L62 21L63 21L63 20L64 20L64 19L63 19L63 18L65 18L65 17ZM54 18L54 20L55 20L55 18ZM27 19L27 21L28 21L28 19ZM40 19L40 20L39 20L39 21L41 21L41 20L42 20L42 19ZM4 20L4 21L3 21L3 22L4 22L4 21L5 21L5 20ZM12 20L12 22L11 22L11 23L12 23L12 24L14 24L14 25L13 25L13 28L11 28L11 29L10 29L10 30L11 30L11 34L10 34L10 35L11 35L11 34L12 34L12 30L13 30L13 31L14 31L14 30L13 30L13 29L17 29L17 30L18 30L18 31L17 31L17 32L16 32L16 33L15 33L15 32L14 32L14 33L15 33L15 35L14 35L14 34L13 34L13 35L12 35L12 36L15 36L15 35L17 35L17 34L19 34L19 35L18 35L18 36L17 36L17 38L20 38L20 40L18 40L18 41L19 41L19 42L20 42L20 43L22 43L22 44L23 44L23 47L22 47L22 46L21 46L21 48L26 48L26 47L24 47L24 46L25 46L25 45L26 45L26 46L27 46L27 48L29 48L29 49L31 49L31 50L33 50L33 51L34 51L34 50L36 50L36 49L34 49L34 48L33 48L33 49L31 49L31 46L30 46L30 45L31 45L31 43L27 43L27 41L30 41L30 42L32 42L32 45L33 45L33 44L34 44L34 42L33 42L33 41L30 41L30 40L28 40L28 39L30 39L30 38L27 38L27 37L28 37L28 36L27 36L27 37L26 37L26 36L25 36L25 37L24 37L24 35L23 35L23 34L22 34L22 35L23 35L23 37L22 37L22 36L21 36L21 37L22 37L22 38L20 38L20 37L19 37L19 35L20 35L20 34L19 34L19 33L20 33L20 32L19 32L19 30L20 30L20 31L21 31L21 30L20 30L20 28L17 28L17 25L18 25L18 26L20 26L20 27L21 27L21 26L22 26L22 25L21 25L21 26L20 26L20 25L19 25L19 24L17 24L17 25L16 25L16 24L14 24L14 22L13 22L13 20ZM46 20L46 21L47 21L47 20ZM21 21L21 22L22 22L22 21ZM6 22L6 23L7 23L7 22ZM44 22L44 23L45 23L45 24L46 24L46 25L47 25L47 24L46 24L46 22ZM38 23L38 25L39 25L39 23ZM49 23L49 24L50 24L50 25L51 25L51 24L50 24L50 23ZM29 24L29 25L30 25L30 24ZM58 24L58 25L60 25L60 24ZM61 24L61 25L62 25L62 24ZM6 25L6 26L8 26L8 27L9 27L9 25ZM15 25L15 26L16 26L16 25ZM63 25L63 26L64 26L64 25ZM6 27L6 28L7 28L7 29L5 29L5 30L7 30L7 29L8 29L8 28L7 28L7 27ZM14 27L14 28L16 28L16 27ZM1 28L1 29L2 29L2 28ZM30 28L30 29L29 29L29 30L30 30L30 29L31 29L31 28ZM49 29L49 30L50 30L50 29ZM64 29L64 30L65 30L65 29ZM67 29L67 30L69 30L69 29ZM15 30L15 31L16 31L16 30ZM57 30L57 32L58 32L58 31L59 31L59 30ZM17 32L17 33L16 33L16 34L17 34L17 33L18 33L18 32ZM28 32L28 33L25 33L25 34L28 34L28 33L29 33L29 32ZM66 32L66 33L67 33L67 34L68 34L68 33L67 33L67 32ZM5 33L5 36L8 36L8 33ZM31 33L31 34L29 34L29 35L31 35L31 34L32 34L32 33ZM33 33L33 36L36 36L36 33ZM44 33L44 36L45 36L45 33ZM49 33L49 34L50 34L50 33ZM61 33L61 36L64 36L64 33ZM6 34L6 35L7 35L7 34ZM34 34L34 35L35 35L35 34ZM62 34L62 35L63 35L63 34ZM67 35L67 36L68 36L68 35ZM31 36L31 37L32 37L32 36ZM6 37L6 38L5 38L5 39L4 39L4 40L3 40L3 41L2 41L2 42L4 42L4 40L5 40L5 42L7 42L7 43L6 43L6 44L7 44L7 43L9 43L9 44L11 44L11 42L12 42L12 43L13 43L13 42L12 42L12 41L13 41L13 39L12 39L12 38L8 38L8 37ZM23 37L23 38L22 38L22 39L21 39L21 40L20 40L20 42L22 42L22 43L24 43L24 44L26 44L26 45L27 45L27 46L28 46L28 47L29 47L29 48L30 48L30 47L29 47L29 45L30 45L30 44L26 44L26 42L25 42L25 41L27 41L27 40L25 40L25 38L24 38L24 37ZM51 37L51 38L52 38L52 37ZM6 38L6 39L7 39L7 38ZM26 38L26 39L27 39L27 38ZM59 38L59 39L58 39L58 40L59 40L59 39L60 39L60 38ZM10 39L10 40L11 40L11 41L12 41L12 40L11 40L11 39ZM23 39L23 40L24 40L24 41L23 41L23 42L24 42L24 41L25 41L25 40L24 40L24 39ZM47 39L47 40L48 40L48 39ZM52 39L52 40L53 40L53 39ZM65 39L65 40L66 40L66 39ZM6 40L6 41L7 41L7 42L8 42L8 40ZM21 40L21 41L22 41L22 40ZM50 40L50 41L51 41L51 40ZM43 42L43 43L44 43L44 42ZM61 42L61 43L62 43L62 42ZM2 43L2 46L3 46L3 47L4 47L4 46L7 46L7 45L4 45L4 44L5 44L5 43L4 43L4 44L3 44L3 43ZM35 43L35 44L36 44L36 45L35 45L35 46L32 46L32 47L35 47L35 48L36 48L36 47L35 47L35 46L36 46L36 45L37 45L37 43ZM40 43L40 44L39 44L39 45L40 45L40 44L41 44L41 43ZM68 43L68 44L69 44L69 43ZM44 45L44 46L45 46L45 49L46 49L46 46L45 46L45 45ZM55 45L55 46L56 46L56 45ZM64 46L64 47L63 47L63 48L64 48L64 47L65 47L65 46ZM52 47L52 48L53 48L53 47ZM55 48L55 49L56 49L56 48ZM0 49L0 51L1 51L1 49ZM27 49L27 50L28 50L28 49ZM33 49L33 50L34 50L34 49ZM3 50L3 51L4 51L4 50ZM27 51L27 52L28 52L28 51ZM6 52L6 53L8 53L8 52ZM37 52L37 53L38 53L38 52ZM1 53L1 55L2 55L2 56L3 56L3 54L2 54L2 53ZM27 53L27 54L28 54L28 53ZM31 53L31 55L32 55L32 53ZM27 55L27 56L28 56L28 55ZM5 56L5 58L7 58L7 57L6 57L6 56ZM19 56L19 57L20 57L20 58L21 58L21 59L22 59L22 60L21 60L21 61L22 61L22 62L23 62L23 60L24 60L24 61L25 61L25 62L27 62L27 63L28 63L28 65L29 65L29 64L30 64L30 63L28 63L28 62L29 62L29 60L28 60L28 61L27 61L27 59L26 59L26 61L25 61L25 60L24 60L24 59L23 59L23 58L24 58L24 57L22 57L22 56ZM60 56L60 57L61 57L61 56ZM15 57L15 58L16 58L16 57ZM17 57L17 60L19 60L19 59L18 59L18 57ZM21 57L21 58L22 58L22 57ZM48 57L48 58L49 58L49 57ZM11 58L11 59L12 59L12 60L13 60L13 58ZM45 58L45 61L44 61L44 62L45 62L45 63L46 63L46 62L45 62L45 61L47 61L47 62L50 62L50 61L51 61L51 60L46 60L46 58ZM57 58L57 59L58 59L58 60L60 60L60 59L59 59L59 58ZM3 60L3 61L5 61L5 60ZM6 60L6 61L7 61L7 60ZM54 60L54 61L55 61L55 60ZM14 61L14 62L15 62L15 63L16 63L16 65L14 65L14 66L16 66L16 65L17 65L17 67L16 67L16 68L17 68L17 69L19 69L19 68L17 68L17 67L20 67L20 66L19 66L19 65L20 65L20 62L18 62L18 63L16 63L16 62L15 62L15 61ZM33 61L33 64L36 64L36 61ZM61 61L61 64L64 64L64 61ZM34 62L34 63L35 63L35 62ZM58 62L58 63L59 63L59 62ZM62 62L62 63L63 63L63 62ZM65 62L65 63L66 63L66 62ZM25 63L25 64L26 64L26 63ZM9 64L9 66L11 66L11 67L12 67L12 68L13 68L13 67L12 67L12 66L11 66L11 65L12 65L12 64L11 64L11 65L10 65L10 64ZM17 64L17 65L18 65L18 64ZM45 64L45 66L46 66L46 64ZM31 65L31 66L32 66L32 65ZM33 65L33 67L34 67L34 68L35 68L35 67L34 67L34 66L36 66L36 65ZM62 65L62 66L61 66L61 67L60 67L60 68L61 68L61 67L62 67L62 68L64 68L64 67L62 67L62 66L64 66L64 65ZM23 66L23 67L25 67L25 66ZM29 67L29 68L30 68L30 67ZM58 67L58 68L59 68L59 67ZM0 0L0 7L7 7L7 0ZM1 1L1 6L6 6L6 1ZM2 2L2 5L5 5L5 2ZM62 0L62 7L69 7L69 0ZM63 1L63 6L68 6L68 1ZM64 2L64 5L67 5L67 2ZM0 62L0 69L7 69L7 62ZM1 63L1 68L6 68L6 63ZM2 64L2 67L5 67L5 64Z" fill="#000000"/></g></g></svg>
