<?xml version="1.0" encoding="UTF-8"?>
<svg xmlns="http://www.w3.org/2000/svg" version="1.1" width="300" height="300" viewBox="0 0 300 300"><rect x="0" y="0" width="300" height="300" fill="#ffffff"/><g transform="scale(4.615)"><g transform="translate(0,0)"><path fill-rule="evenodd" d="M8 0L8 2L10 2L10 3L9 3L9 4L8 4L8 9L7 9L7 8L5 8L5 9L4 9L4 11L3 11L3 12L0 12L0 14L1 14L1 13L3 13L3 15L4 15L4 14L5 14L5 20L4 20L4 19L3 19L3 17L4 17L4 16L3 16L3 17L1 17L1 16L2 16L2 15L1 15L1 16L0 16L0 19L1 19L1 20L0 20L0 22L1 22L1 21L2 21L2 24L3 24L3 20L4 20L4 24L5 24L5 20L6 20L6 21L8 21L8 22L6 22L6 23L8 23L8 24L6 24L6 25L7 25L7 26L5 26L5 27L7 27L7 28L4 28L4 29L3 29L3 28L2 28L2 26L3 26L3 27L4 27L4 25L2 25L2 26L1 26L1 27L0 27L0 29L1 29L1 30L3 30L3 31L4 31L4 32L2 32L2 31L1 31L1 32L0 32L0 33L1 33L1 34L2 34L2 33L4 33L4 34L3 34L3 35L4 35L4 36L5 36L5 35L7 35L7 36L6 36L6 37L3 37L3 36L2 36L2 35L0 35L0 36L1 36L1 37L0 37L0 39L2 39L2 37L3 37L3 38L4 38L4 39L5 39L5 40L4 40L4 42L6 42L6 43L5 43L5 44L4 44L4 45L3 45L3 46L2 46L2 48L1 48L1 47L0 47L0 49L1 49L1 50L0 50L0 53L1 53L1 54L2 54L2 55L3 55L3 56L1 56L1 55L0 55L0 56L1 56L1 57L3 57L3 56L4 56L4 57L5 57L5 56L4 56L4 54L2 54L2 53L3 53L3 52L5 52L5 53L7 53L7 52L5 52L5 51L7 51L7 50L8 50L8 51L10 51L10 53L9 53L9 52L8 52L8 54L10 54L10 55L8 55L8 56L9 56L9 57L8 57L8 58L10 58L10 59L8 59L8 60L9 60L9 61L10 61L10 59L11 59L11 64L10 64L10 62L8 62L8 65L11 65L11 64L12 64L12 59L13 59L13 60L16 60L16 61L17 61L17 60L16 60L16 59L17 59L17 58L16 58L16 57L17 57L17 55L16 55L16 52L17 52L17 50L16 50L16 49L17 49L17 48L18 48L18 49L19 49L19 51L18 51L18 52L19 52L19 51L20 51L20 53L19 53L19 54L18 54L18 57L19 57L19 58L18 58L18 62L16 62L16 63L18 63L18 65L20 65L20 64L19 64L19 63L18 63L18 62L19 62L19 60L20 60L20 61L21 61L21 60L20 60L20 57L21 57L21 58L23 58L23 59L26 59L26 61L25 61L25 60L24 60L24 61L25 61L25 62L24 62L24 63L25 63L25 64L26 64L26 65L27 65L27 64L28 64L28 63L29 63L29 64L30 64L30 65L31 65L31 64L32 64L32 65L34 65L34 63L35 63L35 64L36 64L36 65L37 65L37 63L36 63L36 62L35 62L35 60L36 60L36 61L37 61L37 62L38 62L38 65L39 65L39 64L40 64L40 65L42 65L42 64L44 64L44 65L46 65L46 64L44 64L44 63L45 63L45 62L46 62L46 63L49 63L49 64L48 64L48 65L51 65L51 64L52 64L52 65L54 65L54 64L55 64L55 65L57 65L57 64L58 64L58 65L59 65L59 64L58 64L58 63L59 63L59 61L60 61L60 63L61 63L61 64L60 64L60 65L63 65L63 64L62 64L62 63L65 63L65 62L63 62L63 61L64 61L64 60L62 60L62 59L61 59L61 58L62 58L62 54L60 54L60 52L61 52L61 53L62 53L62 51L63 51L63 52L64 52L64 51L65 51L65 48L64 48L64 47L65 47L65 46L64 46L64 45L65 45L65 41L61 41L61 40L62 40L62 37L61 37L61 39L60 39L60 40L58 40L58 39L59 39L59 38L60 38L60 35L61 35L61 36L62 36L62 34L63 34L63 33L62 33L62 34L61 34L61 30L62 30L62 31L63 31L63 29L64 29L64 33L65 33L65 26L64 26L64 27L63 27L63 28L62 28L62 27L60 27L60 30L58 30L58 29L59 29L59 27L58 27L58 25L59 25L59 26L60 26L60 25L61 25L61 26L62 26L62 25L63 25L63 24L64 24L64 23L65 23L65 22L64 22L64 21L63 21L63 20L64 20L64 19L65 19L65 16L64 16L64 15L65 15L65 13L63 13L63 12L62 12L62 10L61 10L61 8L57 8L57 10L58 10L58 11L56 11L56 7L57 7L57 6L56 6L56 7L55 7L55 5L54 5L54 4L56 4L56 5L57 5L57 4L56 4L56 3L57 3L57 1L56 1L56 0L55 0L55 1L56 1L56 3L55 3L55 2L52 2L52 1L54 1L54 0L50 0L50 1L48 1L48 0L46 0L46 1L45 1L45 0L42 0L42 1L41 1L41 0L38 0L38 1L39 1L39 3L38 3L38 5L35 5L35 4L36 4L36 1L35 1L35 0L34 0L34 1L35 1L35 3L34 3L34 2L33 2L33 1L32 1L32 0L30 0L30 1L32 1L32 2L29 2L29 0L28 0L28 3L27 3L27 2L26 2L26 3L27 3L27 4L26 4L26 5L25 5L25 4L24 4L24 7L23 7L23 6L22 6L22 5L23 5L23 4L22 4L22 5L21 5L21 2L20 2L20 1L21 1L21 0L19 0L19 2L18 2L18 3L19 3L19 4L18 4L18 7L17 7L17 4L16 4L16 5L15 5L15 6L14 6L14 7L15 7L15 10L18 10L18 13L16 13L16 12L17 12L17 11L16 11L16 12L15 12L15 13L13 13L13 14L12 14L12 13L11 13L11 12L10 12L10 10L11 10L11 11L12 11L12 12L14 12L14 11L13 11L13 9L14 9L14 8L12 8L12 7L13 7L13 6L12 6L12 7L11 7L11 5L9 5L9 4L10 4L10 3L11 3L11 4L12 4L12 5L14 5L14 4L13 4L13 3L17 3L17 0L13 0L13 1L12 1L12 0L11 0L11 1L10 1L10 0ZM23 0L23 2L22 2L22 3L23 3L23 2L24 2L24 3L25 3L25 2L24 2L24 1L26 1L26 0ZM11 1L11 3L12 3L12 1ZM13 1L13 2L16 2L16 1ZM40 1L40 2L41 2L41 1ZM42 1L42 2L43 2L43 1ZM44 1L44 5L42 5L42 4L43 4L43 3L42 3L42 4L41 4L41 3L40 3L40 4L41 4L41 8L42 8L42 6L43 6L43 9L42 9L42 10L41 10L41 9L39 9L39 7L40 7L40 6L39 6L39 5L38 5L38 6L37 6L37 7L36 7L36 6L35 6L35 7L36 7L36 8L35 8L35 9L34 9L34 14L35 14L35 13L36 13L36 15L35 15L35 17L34 17L34 15L33 15L33 14L32 14L32 15L33 15L33 17L32 17L32 18L31 18L31 19L30 19L30 18L29 18L29 17L28 17L28 16L27 16L27 13L26 13L26 12L25 12L25 11L23 11L23 12L25 12L25 14L24 14L24 15L25 15L25 17L24 17L24 18L25 18L25 19L24 19L24 20L22 20L22 19L23 19L23 17L22 17L22 16L23 16L23 15L22 15L22 16L21 16L21 17L20 17L20 18L21 18L21 19L20 19L20 23L19 23L19 25L20 25L20 27L21 27L21 29L20 29L20 28L19 28L19 27L18 27L18 28L17 28L17 26L18 26L18 22L19 22L19 20L18 20L18 19L19 19L19 17L18 17L18 16L19 16L19 15L18 15L18 14L19 14L19 13L18 13L18 14L17 14L17 16L15 16L15 14L16 14L16 13L15 13L15 14L14 14L14 16L13 16L13 17L15 17L15 18L16 18L16 19L17 19L17 22L16 22L16 23L17 23L17 25L16 25L16 26L15 26L15 22L14 22L14 21L15 21L15 19L13 19L13 20L14 20L14 21L10 21L10 22L9 22L9 23L10 23L10 22L12 22L12 24L13 24L13 25L12 25L12 26L9 26L9 25L11 25L11 24L9 24L9 25L8 25L8 28L7 28L7 29L4 29L4 30L8 30L8 28L9 28L9 29L10 29L10 28L9 28L9 27L11 27L11 32L9 32L9 35L8 35L8 37L9 37L9 36L10 36L10 39L11 39L11 40L9 40L9 41L8 41L8 42L7 42L7 41L6 41L6 40L8 40L8 38L7 38L7 37L6 37L6 38L7 38L7 39L6 39L6 40L5 40L5 41L6 41L6 42L7 42L7 43L6 43L6 44L7 44L7 43L9 43L9 45L8 45L8 46L7 46L7 45L6 45L6 46L7 46L7 47L6 47L6 48L5 48L5 49L3 49L3 50L4 50L4 51L5 51L5 50L7 50L7 49L6 49L6 48L9 48L9 49L8 49L8 50L9 50L9 49L11 49L11 50L12 50L12 49L13 49L13 50L14 50L14 51L12 51L12 52L11 52L11 53L10 53L10 54L11 54L11 55L12 55L12 56L10 56L10 57L11 57L11 59L12 59L12 57L13 57L13 55L12 55L12 54L13 54L13 53L14 53L14 54L15 54L15 52L16 52L16 51L15 51L15 50L14 50L14 49L16 49L16 48L15 48L15 47L14 47L14 45L15 45L15 44L16 44L16 43L18 43L18 42L19 42L19 41L18 41L18 40L17 40L17 39L16 39L16 38L17 38L17 37L16 37L16 38L15 38L15 36L16 36L16 35L17 35L17 33L18 33L18 34L19 34L19 33L20 33L20 35L21 35L21 34L22 34L22 31L23 31L23 33L24 33L24 35L25 35L25 34L27 34L27 33L26 33L26 31L27 31L27 30L29 30L29 31L28 31L28 32L30 32L30 30L29 30L29 29L30 29L30 28L31 28L31 30L35 30L35 33L36 33L36 35L35 35L35 36L34 36L34 38L35 38L35 40L33 40L33 39L32 39L32 38L33 38L33 37L32 37L32 36L33 36L33 35L32 35L32 36L30 36L30 33L28 33L28 35L29 35L29 36L28 36L28 39L27 39L27 37L26 37L26 39L25 39L25 36L23 36L23 35L22 35L22 36L23 36L23 37L22 37L22 38L21 38L21 36L19 36L19 35L18 35L18 36L19 36L19 37L18 37L18 39L19 39L19 40L20 40L20 43L19 43L19 44L21 44L21 46L20 46L20 47L22 47L22 48L21 48L21 49L20 49L20 50L21 50L21 53L20 53L20 54L21 54L21 55L20 55L20 56L19 56L19 57L20 57L20 56L21 56L21 57L22 57L22 55L23 55L23 56L24 56L24 58L25 58L25 57L26 57L26 56L27 56L27 57L28 57L28 58L27 58L27 59L28 59L28 60L27 60L27 61L26 61L26 64L27 64L27 63L28 63L28 62L29 62L29 63L30 63L30 64L31 64L31 63L32 63L32 64L33 64L33 63L34 63L34 61L32 61L32 62L31 62L31 63L30 63L30 62L29 62L29 60L30 60L30 58L29 58L29 57L28 57L28 56L30 56L30 55L31 55L31 53L32 53L32 56L35 56L35 58L36 58L36 60L37 60L37 61L38 61L38 62L39 62L39 61L40 61L40 60L41 60L41 58L40 58L40 56L42 56L42 60L43 60L43 61L42 61L42 62L41 62L41 63L40 63L40 64L42 64L42 62L45 62L45 61L46 61L46 62L47 62L47 61L48 61L48 60L50 60L50 62L52 62L52 64L54 64L54 62L55 62L55 60L56 60L56 57L55 57L55 56L56 56L56 55L55 55L55 53L54 53L54 52L53 52L53 51L52 51L52 52L50 52L50 53L49 53L49 57L48 57L48 54L47 54L47 53L48 53L48 51L50 51L50 50L51 50L51 49L52 49L52 50L53 50L53 49L52 49L52 48L51 48L51 49L50 49L50 46L51 46L51 47L53 47L53 48L54 48L54 51L55 51L55 48L54 48L54 46L55 46L55 45L54 45L54 44L56 44L56 43L58 43L58 44L57 44L57 45L56 45L56 48L57 48L57 47L58 47L58 49L59 49L59 47L58 47L58 46L59 46L59 44L60 44L60 42L61 42L61 41L60 41L60 42L59 42L59 43L58 43L58 42L56 42L56 41L57 41L57 40L56 40L56 39L58 39L58 38L56 38L56 37L59 37L59 36L58 36L58 35L57 35L57 36L56 36L56 37L55 37L55 35L54 35L54 34L56 34L56 33L54 33L54 34L53 34L53 35L52 35L52 34L51 34L51 33L52 33L52 32L54 32L54 31L56 31L56 30L57 30L57 29L58 29L58 27L57 27L57 29L56 29L56 26L57 26L57 25L58 25L58 22L59 22L59 21L58 21L58 19L57 19L57 17L58 17L58 18L60 18L60 19L62 19L62 20L63 20L63 19L64 19L64 18L63 18L63 19L62 19L62 17L60 17L60 16L61 16L61 15L56 15L56 14L57 14L57 12L56 12L56 11L52 11L52 12L51 12L51 11L50 11L50 10L51 10L51 9L52 9L52 10L53 10L53 9L52 9L52 6L51 6L51 5L50 5L50 2L51 2L51 3L52 3L52 5L53 5L53 8L54 8L54 5L53 5L53 3L52 3L52 2L51 2L51 1L50 1L50 2L48 2L48 1L46 1L46 2L45 2L45 1ZM19 2L19 3L20 3L20 2ZM46 2L46 3L45 3L45 4L46 4L46 5L47 5L47 6L46 6L46 7L45 7L45 6L44 6L44 7L45 7L45 8L44 8L44 9L43 9L43 10L44 10L44 11L42 11L42 12L41 12L41 11L40 11L40 13L39 13L39 14L38 14L38 13L37 13L37 11L36 11L36 13L37 13L37 15L38 15L38 16L36 16L36 17L37 17L37 18L36 18L36 19L38 19L38 20L36 20L36 21L35 21L35 23L34 23L34 19L35 19L35 18L34 18L34 17L33 17L33 18L32 18L32 19L31 19L31 20L30 20L30 19L29 19L29 18L28 18L28 17L27 17L27 16L26 16L26 17L27 17L27 19L26 19L26 20L27 20L27 22L24 22L24 21L25 21L25 20L24 20L24 21L23 21L23 22L22 22L22 23L25 23L25 24L26 24L26 25L27 25L27 23L28 23L28 24L29 24L29 25L30 25L30 26L27 26L27 27L26 27L26 26L25 26L25 28L24 28L24 29L25 29L25 30L24 30L24 31L25 31L25 30L27 30L27 29L29 29L29 28L30 28L30 26L33 26L33 27L32 27L32 29L34 29L34 25L33 25L33 24L35 24L35 23L36 23L36 21L37 21L37 23L38 23L38 20L39 20L39 19L38 19L38 16L40 16L40 17L39 17L39 18L41 18L41 16L40 16L40 13L41 13L41 15L42 15L42 17L43 17L43 16L44 16L44 18L45 18L45 16L46 16L46 17L47 17L47 18L48 18L48 17L49 17L49 20L48 20L48 22L47 22L47 23L49 23L49 22L50 22L50 15L51 15L51 16L52 16L52 17L51 17L51 18L52 18L52 17L53 17L53 18L54 18L54 17L53 17L53 16L54 16L54 15L55 15L55 18L56 18L56 17L57 17L57 16L56 16L56 15L55 15L55 14L54 14L54 13L55 13L55 12L54 12L54 13L53 13L53 12L52 12L52 14L54 14L54 15L53 15L53 16L52 16L52 15L51 15L51 14L50 14L50 13L51 13L51 12L50 12L50 11L49 11L49 12L48 12L48 15L47 15L47 16L46 16L46 15L45 15L45 16L44 16L44 15L43 15L43 14L44 14L44 13L45 13L45 11L46 11L46 12L47 12L47 10L46 10L46 9L47 9L47 6L48 6L48 10L50 10L50 9L49 9L49 5L48 5L48 2ZM29 3L29 4L31 4L31 3ZM32 3L32 4L34 4L34 3ZM19 4L19 8L20 8L20 10L22 10L22 6L21 6L21 5L20 5L20 4ZM26 5L26 6L25 6L25 7L24 7L24 8L25 8L25 9L24 9L24 10L25 10L25 9L26 9L26 10L27 10L27 12L28 12L28 10L29 10L29 11L30 11L30 12L29 12L29 14L28 14L28 15L30 15L30 17L31 17L31 15L30 15L30 12L31 12L31 13L32 13L32 12L31 12L31 9L30 9L30 6L29 6L29 7L28 7L28 5ZM31 5L31 8L34 8L34 5ZM9 6L9 9L8 9L8 10L10 10L10 9L11 9L11 10L12 10L12 9L11 9L11 8L10 8L10 6ZM15 6L15 7L16 7L16 6ZM20 6L20 8L21 8L21 6ZM26 6L26 9L27 9L27 8L28 8L28 7L27 7L27 6ZM32 6L32 7L33 7L33 6ZM38 6L38 7L39 7L39 6ZM50 6L50 8L51 8L51 6ZM0 8L0 9L2 9L2 10L3 10L3 8ZM17 8L17 9L18 9L18 10L19 10L19 9L18 9L18 8ZM36 8L36 9L35 9L35 10L38 10L38 11L39 11L39 10L38 10L38 8ZM45 8L45 9L46 9L46 8ZM63 8L63 9L64 9L64 12L65 12L65 8ZM5 9L5 12L7 12L7 13L5 13L5 14L7 14L7 15L6 15L6 16L9 16L9 15L10 15L10 16L11 16L11 17L10 17L10 18L9 18L9 17L8 17L8 19L6 19L6 20L8 20L8 19L9 19L9 20L10 20L10 19L12 19L12 18L11 18L11 17L12 17L12 16L11 16L11 15L12 15L12 14L11 14L11 15L10 15L10 12L9 12L9 11L6 11L6 10L7 10L7 9ZM29 9L29 10L30 10L30 9ZM32 9L32 11L33 11L33 9ZM54 9L54 10L55 10L55 9ZM58 9L58 10L60 10L60 9ZM19 11L19 12L21 12L21 13L22 13L22 14L23 14L23 13L22 13L22 12L21 12L21 11ZM58 11L58 14L59 14L59 13L60 13L60 12L59 12L59 11ZM42 12L42 14L43 14L43 12ZM7 13L7 14L8 14L8 15L9 15L9 14L8 14L8 13ZM61 13L61 14L62 14L62 16L63 16L63 17L64 17L64 16L63 16L63 15L64 15L64 14L62 14L62 13ZM20 14L20 15L21 15L21 14ZM25 14L25 15L26 15L26 14ZM47 16L47 17L48 17L48 16ZM6 17L6 18L7 18L7 17ZM21 17L21 18L22 18L22 17ZM1 18L1 19L2 19L2 18ZM28 19L28 20L29 20L29 21L28 21L28 23L30 23L30 24L31 24L31 25L32 25L32 23L33 23L33 21L32 21L32 20L31 20L31 21L30 21L30 20L29 20L29 19ZM41 19L41 20L40 20L40 21L39 21L39 23L40 23L40 21L41 21L41 20L42 20L42 21L43 21L43 24L40 24L40 26L39 26L39 27L38 27L38 28L36 28L36 29L37 29L37 30L38 30L38 28L39 28L39 27L41 27L41 28L40 28L40 29L39 29L39 31L38 31L38 32L37 32L37 31L36 31L36 33L37 33L37 35L36 35L36 37L35 37L35 38L36 38L36 37L37 37L37 39L36 39L36 42L35 42L35 41L34 41L34 43L36 43L36 49L35 49L35 46L34 46L34 44L33 44L33 46L34 46L34 48L33 48L33 47L32 47L32 39L30 39L30 40L29 40L29 39L28 39L28 40L29 40L29 41L30 41L30 40L31 40L31 45L30 45L30 46L29 46L29 47L30 47L30 48L27 48L27 46L28 46L28 45L29 45L29 44L28 44L28 42L27 42L27 40L26 40L26 41L25 41L25 42L22 42L22 43L23 43L23 44L22 44L22 46L23 46L23 48L22 48L22 49L21 49L21 50L22 50L22 49L23 49L23 50L24 50L24 49L25 49L25 48L26 48L26 49L27 49L27 50L28 50L28 53L27 53L27 54L24 54L24 53L25 53L25 52L24 52L24 51L22 51L22 52L24 52L24 53L23 53L23 54L24 54L24 56L25 56L25 55L27 55L27 54L28 54L28 55L29 55L29 54L28 54L28 53L31 53L31 52L32 52L32 53L33 53L33 54L34 54L34 55L35 55L35 56L36 56L36 57L37 57L37 59L38 59L38 61L39 61L39 58L38 58L38 57L39 57L39 56L40 56L40 55L41 55L41 54L42 54L42 55L43 55L43 54L42 54L42 53L43 53L43 52L44 52L44 55L45 55L45 56L44 56L44 57L47 57L47 58L48 58L48 59L49 59L49 58L50 58L50 59L51 59L51 58L52 58L52 62L54 62L54 60L53 60L53 58L54 58L54 59L55 59L55 58L54 58L54 57L53 57L53 56L55 56L55 55L53 55L53 54L54 54L54 53L53 53L53 52L52 52L52 53L53 53L53 54L52 54L52 55L51 55L51 56L50 56L50 57L49 57L49 58L48 58L48 57L47 57L47 56L46 56L46 55L45 55L45 53L47 53L47 51L45 51L45 50L44 50L44 49L45 49L45 47L42 47L42 45L44 45L44 46L46 46L46 49L47 49L47 50L48 50L48 49L49 49L49 50L50 50L50 49L49 49L49 47L48 47L48 46L50 46L50 44L51 44L51 45L53 45L53 46L54 46L54 45L53 45L53 44L54 44L54 43L56 43L56 42L54 42L54 41L56 41L56 40L53 40L53 39L56 39L56 38L54 38L54 37L53 37L53 36L52 36L52 38L50 38L50 35L51 35L51 34L50 34L50 32L51 32L51 31L53 31L53 30L54 30L54 27L55 27L55 26L56 26L56 24L55 24L55 26L54 26L54 24L53 24L53 23L52 23L52 26L50 26L50 24L51 24L51 23L50 23L50 24L48 24L48 25L49 25L49 26L48 26L48 27L46 27L46 23L45 23L45 22L46 22L46 19L45 19L45 20L44 20L44 19L43 19L43 20L42 20L42 19ZM43 20L43 21L44 21L44 22L45 22L45 21L44 21L44 20ZM52 20L52 21L51 21L51 22L53 22L53 20ZM54 20L54 21L55 21L55 23L56 23L56 21L57 21L57 22L58 22L58 21L57 21L57 20L56 20L56 21L55 21L55 20ZM29 21L29 22L30 22L30 23L31 23L31 22L30 22L30 21ZM60 21L60 23L61 23L61 22L62 22L62 24L63 24L63 23L64 23L64 22L62 22L62 21ZM0 23L0 25L1 25L1 23ZM13 23L13 24L14 24L14 23ZM20 23L20 24L21 24L21 23ZM44 23L44 24L43 24L43 25L42 25L42 26L41 26L41 27L42 27L42 30L41 30L41 31L39 31L39 32L38 32L38 34L39 34L39 33L40 33L40 35L39 35L39 37L38 37L38 42L36 42L36 43L38 43L38 44L39 44L39 45L38 45L38 46L37 46L37 49L38 49L38 51L36 51L36 50L35 50L35 51L34 51L34 50L33 50L33 49L32 49L32 50L31 50L31 49L28 49L28 50L29 50L29 52L31 52L31 51L34 51L34 52L33 52L33 53L34 53L34 54L35 54L35 55L36 55L36 56L37 56L37 55L36 55L36 54L35 54L35 53L36 53L36 52L38 52L38 54L39 54L39 55L38 55L38 56L39 56L39 55L40 55L40 52L43 52L43 49L44 49L44 48L42 48L42 47L41 47L41 45L40 45L40 44L39 44L39 43L38 43L38 42L39 42L39 37L40 37L40 39L41 39L41 41L40 41L40 42L41 42L41 44L42 44L42 42L43 42L43 43L45 43L45 44L46 44L46 46L48 46L48 44L50 44L50 42L53 42L53 41L52 41L52 40L51 40L51 39L50 39L50 40L49 40L49 41L47 41L47 40L46 40L46 39L45 39L45 38L44 38L44 36L45 36L45 37L46 37L46 38L48 38L48 39L49 39L49 37L48 37L48 36L49 36L49 35L50 35L50 34L49 34L49 33L48 33L48 32L50 32L50 31L51 31L51 29L52 29L52 28L53 28L53 27L54 27L54 26L53 26L53 27L51 27L51 28L50 28L50 30L49 30L49 29L48 29L48 28L49 28L49 27L50 27L50 26L49 26L49 27L48 27L48 28L47 28L47 29L46 29L46 27L43 27L43 25L44 25L44 24L45 24L45 23ZM22 24L22 29L21 29L21 30L20 30L20 31L22 31L22 29L23 29L23 27L24 27L24 25L23 25L23 24ZM36 24L36 25L35 25L35 26L38 26L38 25L39 25L39 24L38 24L38 25L37 25L37 24ZM13 26L13 27L14 27L14 28L13 28L13 30L14 30L14 28L16 28L16 29L17 29L17 30L16 30L16 31L17 31L17 32L14 32L14 31L13 31L13 32L11 32L11 33L10 33L10 36L11 36L11 38L12 38L12 37L14 37L14 36L15 36L15 35L16 35L16 33L17 33L17 32L18 32L18 33L19 33L19 32L18 32L18 31L17 31L17 30L18 30L18 29L19 29L19 28L18 28L18 29L17 29L17 28L16 28L16 27L14 27L14 26ZM27 27L27 28L29 28L29 27ZM44 28L44 30L43 30L43 31L45 31L45 32L44 32L44 33L45 33L45 34L46 34L46 37L47 37L47 36L48 36L48 33L47 33L47 32L46 32L46 31L48 31L48 30L46 30L46 29L45 29L45 28ZM55 29L55 30L56 30L56 29ZM9 30L9 31L10 31L10 30ZM5 31L5 34L8 34L8 31ZM31 31L31 34L34 34L34 31ZM57 31L57 34L60 34L60 31ZM1 32L1 33L2 33L2 32ZM6 32L6 33L7 33L7 32ZM20 32L20 33L21 33L21 32ZM24 32L24 33L25 33L25 32ZM32 32L32 33L33 33L33 32ZM40 32L40 33L41 33L41 34L42 34L42 37L41 37L41 35L40 35L40 37L41 37L41 38L42 38L42 41L41 41L41 42L42 42L42 41L43 41L43 42L44 42L44 41L45 41L45 42L46 42L46 44L47 44L47 42L46 42L46 41L45 41L45 39L44 39L44 38L42 38L42 37L43 37L43 36L44 36L44 34L42 34L42 33L43 33L43 32ZM58 32L58 33L59 33L59 32ZM11 33L11 34L13 34L13 35L14 35L14 34L13 34L13 33ZM46 33L46 34L47 34L47 33ZM64 34L64 35L63 35L63 37L65 37L65 36L64 36L64 35L65 35L65 34ZM11 35L11 36L12 36L12 35ZM26 35L26 36L27 36L27 35ZM37 35L37 36L38 36L38 35ZM19 37L19 38L20 38L20 40L21 40L21 38L20 38L20 37ZM30 37L30 38L32 38L32 37ZM13 38L13 39L12 39L12 40L11 40L11 42L14 42L14 44L15 44L15 43L16 43L16 41L17 41L17 40L16 40L16 39L14 39L14 38ZM23 38L23 39L22 39L22 41L23 41L23 40L24 40L24 38ZM52 38L52 39L53 39L53 38ZM64 38L64 39L65 39L65 38ZM13 39L13 41L14 41L14 42L15 42L15 41L16 41L16 40L15 40L15 41L14 41L14 39ZM0 40L0 42L1 42L1 43L0 43L0 45L2 45L2 42L3 42L3 41L1 41L1 40ZM50 40L50 41L49 41L49 42L48 42L48 43L49 43L49 42L50 42L50 41L51 41L51 40ZM9 41L9 43L10 43L10 44L11 44L11 43L10 43L10 41ZM62 42L62 44L63 44L63 42ZM24 43L24 44L25 44L25 46L24 46L24 47L26 47L26 46L27 46L27 45L26 45L26 44L27 44L27 43L26 43L26 44L25 44L25 43ZM17 44L17 45L18 45L18 46L16 46L16 47L18 47L18 46L19 46L19 45L18 45L18 44ZM9 45L9 46L8 46L8 47L10 47L10 48L11 48L11 49L12 49L12 48L11 48L11 47L13 47L13 45L11 45L11 46L10 46L10 45ZM39 45L39 46L38 46L38 49L39 49L39 47L40 47L40 50L39 50L39 52L40 52L40 51L42 51L42 48L41 48L41 47L40 47L40 45ZM57 45L57 46L58 46L58 45ZM60 45L60 46L62 46L62 48L63 48L63 47L64 47L64 46L63 46L63 45ZM3 46L3 47L5 47L5 46ZM30 46L30 47L31 47L31 48L32 48L32 47L31 47L31 46ZM60 47L60 48L61 48L61 47ZM47 48L47 49L48 49L48 48ZM56 49L56 52L57 52L57 55L58 55L58 56L59 56L59 55L60 55L60 56L61 56L61 55L60 55L60 54L59 54L59 53L58 53L58 52L59 52L59 51L60 51L60 50L63 50L63 49L60 49L60 50L59 50L59 51L58 51L58 50L57 50L57 49ZM1 50L1 52L3 52L3 51L2 51L2 50ZM30 50L30 51L31 51L31 50ZM26 51L26 52L27 52L27 51ZM44 51L44 52L45 52L45 51ZM57 51L57 52L58 52L58 51ZM34 52L34 53L35 53L35 52ZM64 53L64 59L65 59L65 53ZM5 54L5 55L7 55L7 54ZM58 54L58 55L59 55L59 54ZM15 55L15 57L16 57L16 55ZM6 56L6 57L7 57L7 56ZM31 57L31 60L34 60L34 57ZM50 57L50 58L51 58L51 57ZM57 57L57 60L60 60L60 57ZM14 58L14 59L15 59L15 58ZM32 58L32 59L33 59L33 58ZM43 58L43 59L45 59L45 58ZM58 58L58 59L59 59L59 58ZM46 59L46 61L47 61L47 59ZM22 60L22 61L23 61L23 60ZM44 60L44 61L45 61L45 60ZM57 61L57 62L58 62L58 61ZM13 62L13 65L16 65L16 64L15 64L15 62ZM20 62L20 63L21 63L21 62ZM22 62L22 65L23 65L23 62ZM32 62L32 63L33 63L33 62ZM61 62L61 63L62 63L62 62ZM50 63L50 64L51 64L51 63ZM56 63L56 64L57 64L57 63ZM64 64L64 65L65 65L65 64ZM0 0L0 7L7 7L7 0ZM1 1L1 6L6 6L6 1ZM2 2L2 5L5 5L5 2ZM58 0L58 7L65 7L65 0ZM59 1L59 6L64 6L64 1ZM60 2L60 5L63 5L63 2ZM0 58L0 65L7 65L7 58ZM1 59L1 64L6 64L6 59ZM2 60L2 63L5 63L5 60Z" fill="#000000"/></g></g></svg>
