<?xml version="1.0" encoding="UTF-8"?>
<svg xmlns="http://www.w3.org/2000/svg" version="1.1" width="300" height="300" viewBox="0 0 300 300"><rect x="0" y="0" width="300" height="300" fill="#ffffff"/><g transform="scale(4.348)"><g transform="translate(0,0)"><path fill-rule="evenodd" d="M8 0L8 2L9 2L9 3L10 3L10 2L11 2L11 4L12 4L12 5L13 5L13 6L12 6L12 8L10 8L10 9L9 9L9 5L10 5L10 4L8 4L8 9L7 9L7 8L5 8L5 9L7 9L7 10L5 10L5 11L4 11L4 12L5 12L5 13L4 13L4 14L3 14L3 13L2 13L2 12L1 12L1 13L0 13L0 19L1 19L1 20L2 20L2 21L1 21L1 22L0 22L0 23L2 23L2 21L4 21L4 23L3 23L3 25L2 25L2 28L3 28L3 27L4 27L4 29L2 29L2 30L4 30L4 31L2 31L2 32L1 32L1 30L0 30L0 32L1 32L1 33L2 33L2 34L0 34L0 36L1 36L1 35L2 35L2 39L0 39L0 40L3 40L3 41L4 41L4 42L1 42L1 41L0 41L0 43L1 43L1 45L3 45L3 44L2 44L2 43L5 43L5 44L6 44L6 45L7 45L7 46L6 46L6 47L1 47L1 48L0 48L0 52L1 52L1 54L0 54L0 55L1 55L1 57L0 57L0 61L1 61L1 58L2 58L2 59L3 59L3 57L5 57L5 58L4 58L4 59L8 59L8 58L6 58L6 57L9 57L9 59L10 59L10 56L11 56L11 57L12 57L12 58L13 58L13 59L12 59L12 60L14 60L14 58L13 58L13 54L14 54L14 55L16 55L16 56L15 56L15 61L14 61L14 62L13 62L13 61L11 61L11 60L10 60L10 62L13 62L13 65L14 65L14 63L16 63L16 64L17 64L17 68L18 68L18 69L19 69L19 68L18 68L18 67L19 67L19 66L18 66L18 65L19 65L19 64L20 64L20 65L21 65L21 66L20 66L20 67L21 67L21 69L23 69L23 68L24 68L24 69L25 69L25 67L24 67L24 65L25 65L25 64L24 64L24 65L23 65L23 64L22 64L22 63L23 63L23 62L24 62L24 63L25 63L25 62L26 62L26 61L27 61L27 63L26 63L26 64L28 64L28 65L27 65L27 66L26 66L26 67L27 67L27 68L26 68L26 69L27 69L27 68L28 68L28 65L29 65L29 66L31 66L31 68L30 68L30 67L29 67L29 69L31 69L31 68L32 68L32 69L35 69L35 68L36 68L36 69L38 69L38 68L40 68L40 69L43 69L43 68L42 68L42 65L43 65L43 67L44 67L44 69L45 69L45 68L46 68L46 69L47 69L47 66L48 66L48 69L50 69L50 68L51 68L51 67L53 67L53 66L52 66L52 65L53 65L53 63L56 63L56 61L57 61L57 62L58 62L58 61L60 61L60 65L62 65L62 66L60 66L60 67L62 67L62 66L63 66L63 67L64 67L64 68L63 68L63 69L66 69L66 67L69 67L69 66L67 66L67 65L69 65L69 62L68 62L68 64L67 64L67 65L66 65L66 63L67 63L67 62L66 62L66 61L65 61L65 60L66 60L66 59L67 59L67 61L69 61L69 60L68 60L68 59L69 59L69 58L68 58L68 57L67 57L67 56L66 56L66 55L67 55L67 54L66 54L66 55L65 55L65 54L64 54L64 53L65 53L65 52L66 52L66 51L67 51L67 53L68 53L68 55L69 55L69 52L68 52L68 49L69 49L69 42L68 42L68 41L67 41L67 42L65 42L65 44L64 44L64 45L63 45L63 46L62 46L62 43L64 43L64 40L65 40L65 38L64 38L64 40L63 40L63 38L62 38L62 37L65 37L65 34L66 34L66 35L67 35L67 33L65 33L65 32L66 32L66 30L68 30L68 31L69 31L69 30L68 30L68 29L69 29L69 28L68 28L68 27L69 27L69 25L68 25L68 27L67 27L67 28L68 28L68 29L66 29L66 30L65 30L65 28L64 28L64 31L63 31L63 30L62 30L62 29L63 29L63 27L65 27L65 25L66 25L66 26L67 26L67 25L66 25L66 23L67 23L67 22L66 22L66 19L67 19L67 20L68 20L68 21L69 21L69 20L68 20L68 19L69 19L69 17L68 17L68 16L66 16L66 15L67 15L67 13L68 13L68 12L69 12L69 8L67 8L67 10L66 10L66 9L65 9L65 8L61 8L61 6L60 6L60 7L59 7L59 4L58 4L58 3L59 3L59 2L58 2L58 1L61 1L61 0L57 0L57 2L56 2L56 3L54 3L54 2L55 2L55 1L56 1L56 0L52 0L52 2L50 2L50 1L51 1L51 0L50 0L50 1L49 1L49 0L48 0L48 1L47 1L47 0L45 0L45 4L46 4L46 7L47 7L47 8L44 8L44 9L45 9L45 10L46 10L46 12L44 12L44 10L43 10L43 11L41 11L41 10L40 10L40 11L41 11L41 12L40 12L40 14L41 14L41 15L39 15L39 14L38 14L38 13L39 13L39 12L38 12L38 13L37 13L37 14L36 14L36 13L35 13L35 12L34 12L34 10L31 10L31 8L32 8L32 9L37 9L37 10L36 10L36 11L37 11L37 10L38 10L38 11L39 11L39 10L38 10L38 9L37 9L37 2L38 2L38 3L39 3L39 4L38 4L38 8L39 8L39 6L40 6L40 9L42 9L42 7L43 7L43 6L44 6L44 7L45 7L45 5L44 5L44 2L42 2L42 3L43 3L43 4L42 4L42 5L39 5L39 4L40 4L40 3L41 3L41 2L40 2L40 3L39 3L39 1L41 1L41 0L37 0L37 2L36 2L36 0L31 0L31 1L35 1L35 2L34 2L34 3L33 3L33 4L32 4L32 2L31 2L31 4L30 4L30 3L29 3L29 2L28 2L28 3L29 3L29 4L28 4L28 5L27 5L27 6L26 6L26 5L25 5L25 3L24 3L24 2L22 2L22 3L24 3L24 7L23 7L23 6L22 6L22 7L21 7L21 6L20 6L20 5L21 5L21 2L20 2L20 1L23 1L23 0L18 0L18 1L17 1L17 0L16 0L16 1L13 1L13 2L11 2L11 1L12 1L12 0ZM24 0L24 1L25 1L25 2L26 2L26 3L27 3L27 2L26 2L26 0ZM27 0L27 1L29 1L29 0ZM42 0L42 1L44 1L44 0ZM16 1L16 4L15 4L15 2L14 2L14 3L13 3L13 4L14 4L14 6L13 6L13 8L12 8L12 9L10 9L10 11L9 11L9 12L10 12L10 11L11 11L11 13L9 13L9 18L8 18L8 16L7 16L7 15L8 15L8 10L7 10L7 11L6 11L6 12L7 12L7 13L6 13L6 14L7 14L7 15L6 15L6 16L7 16L7 17L6 17L6 18L5 18L5 16L4 16L4 15L5 15L5 14L4 14L4 15L3 15L3 14L1 14L1 15L2 15L2 16L1 16L1 19L3 19L3 20L4 20L4 21L5 21L5 24L4 24L4 26L5 26L5 29L4 29L4 30L5 30L5 31L4 31L4 32L2 32L2 33L4 33L4 32L5 32L5 31L6 31L6 32L7 32L7 31L8 31L8 32L9 32L9 36L10 36L10 38L9 38L9 37L6 37L6 38L5 38L5 37L4 37L4 36L3 36L3 38L4 38L4 39L3 39L3 40L4 40L4 41L5 41L5 42L7 42L7 41L6 41L6 40L8 40L8 42L9 42L9 43L6 43L6 44L7 44L7 45L8 45L8 44L9 44L9 46L10 46L10 47L9 47L9 48L7 48L7 47L6 47L6 48L5 48L5 49L4 49L4 48L2 48L2 50L1 50L1 52L4 52L4 51L5 51L5 49L6 49L6 50L7 50L7 51L6 51L6 52L7 52L7 53L3 53L3 55L4 55L4 56L5 56L5 55L6 55L6 56L9 56L9 55L10 55L10 54L11 54L11 55L12 55L12 54L13 54L13 53L14 53L14 54L15 54L15 53L16 53L16 54L17 54L17 57L18 57L18 58L16 58L16 59L17 59L17 61L16 61L16 62L18 62L18 60L19 60L19 57L18 57L18 55L20 55L20 56L21 56L21 57L20 57L20 64L21 64L21 65L22 65L22 66L21 66L21 67L22 67L22 68L23 68L23 67L22 67L22 66L23 66L23 65L22 65L22 64L21 64L21 63L22 63L22 62L23 62L23 61L24 61L24 62L25 62L25 61L26 61L26 60L28 60L28 59L27 59L27 58L26 58L26 56L29 56L29 57L28 57L28 58L30 58L30 56L33 56L33 57L34 57L34 58L32 58L32 57L31 57L31 58L32 58L32 60L33 60L33 59L34 59L34 60L35 60L35 59L36 59L36 60L38 60L38 63L37 63L37 64L38 64L38 63L39 63L39 62L40 62L40 63L41 63L41 65L40 65L40 66L41 66L41 65L42 65L42 63L43 63L43 65L44 65L44 67L45 67L45 65L44 65L44 63L43 63L43 61L44 61L44 60L45 60L45 61L46 61L46 62L47 62L47 61L48 61L48 63L49 63L49 64L50 64L50 66L49 66L49 65L48 65L48 64L46 64L46 66L47 66L47 65L48 65L48 66L49 66L49 67L50 67L50 66L51 66L51 65L52 65L52 60L53 60L53 59L54 59L54 60L55 60L55 61L54 61L54 62L55 62L55 61L56 61L56 60L57 60L57 61L58 61L58 60L60 60L60 59L61 59L61 60L64 60L64 59L66 59L66 57L64 57L64 54L63 54L63 53L59 53L59 51L60 51L60 52L61 52L61 51L62 51L62 50L63 50L63 51L64 51L64 52L65 52L65 51L64 51L64 50L67 50L67 49L68 49L68 48L67 48L67 47L68 47L68 45L66 45L66 44L67 44L67 43L68 43L68 42L67 42L67 43L66 43L66 44L65 44L65 45L64 45L64 46L63 46L63 47L62 47L62 46L61 46L61 44L60 44L60 45L59 45L59 42L60 42L60 41L61 41L61 40L60 40L60 41L59 41L59 39L58 39L58 38L60 38L60 34L59 34L59 31L58 31L58 30L59 30L59 29L60 29L60 30L61 30L61 29L62 29L62 28L61 28L61 29L60 29L60 28L58 28L58 26L59 26L59 25L60 25L60 27L63 27L63 25L64 25L64 23L65 23L65 21L64 21L64 20L65 20L65 19L66 19L66 18L65 18L65 19L64 19L64 16L65 16L65 15L66 15L66 13L67 13L67 11L66 11L66 13L65 13L65 15L64 15L64 12L62 12L62 15L61 15L61 16L60 16L60 14L61 14L61 11L62 11L62 10L63 10L63 11L65 11L65 10L64 10L64 9L62 9L62 10L61 10L61 8L60 8L60 12L59 12L59 11L58 11L58 10L59 10L59 7L58 7L58 5L57 5L57 3L56 3L56 6L55 6L55 5L54 5L54 3L52 3L52 5L50 5L50 4L51 4L51 3L50 3L50 2L49 2L49 1L48 1L48 2L46 2L46 4L47 4L47 3L48 3L48 4L49 4L49 5L50 5L50 6L49 6L49 7L48 7L48 5L47 5L47 7L48 7L48 8L47 8L47 9L46 9L46 10L47 10L47 9L48 9L48 12L47 12L47 13L46 13L46 15L45 15L45 14L44 14L44 12L43 12L43 13L42 13L42 12L41 12L41 13L42 13L42 14L44 14L44 15L43 15L43 17L42 17L42 18L41 18L41 19L39 19L39 17L40 17L40 16L39 16L39 15L38 15L38 14L37 14L37 15L36 15L36 14L35 14L35 13L34 13L34 12L33 12L33 11L32 11L32 12L31 12L31 11L30 11L30 8L28 8L28 6L29 6L29 7L30 7L30 6L29 6L29 5L28 5L28 6L27 6L27 7L26 7L26 6L25 6L25 10L24 10L24 11L25 11L25 10L26 10L26 12L27 12L27 13L28 13L28 14L29 14L29 15L28 15L28 16L29 16L29 17L28 17L28 18L27 18L27 21L28 21L28 22L27 22L27 23L26 23L26 20L25 20L25 17L24 17L24 20L25 20L25 21L24 21L24 22L25 22L25 23L24 23L24 24L22 24L22 23L23 23L23 21L22 21L22 20L23 20L23 19L21 19L21 18L23 18L23 17L22 17L22 16L24 16L24 15L26 15L26 16L27 16L27 15L26 15L26 14L25 14L25 13L24 13L24 15L23 15L23 13L22 13L22 11L23 11L23 9L22 9L22 11L19 11L19 10L18 10L18 11L17 11L17 13L16 13L16 12L15 12L15 14L16 14L16 16L15 16L15 15L14 15L14 12L12 12L12 10L14 10L14 9L15 9L15 11L16 11L16 10L17 10L17 9L16 9L16 8L15 8L15 7L16 7L16 4L17 4L17 1ZM18 1L18 5L17 5L17 7L18 7L18 8L19 8L19 9L20 9L20 10L21 10L21 9L20 9L20 8L21 8L21 7L20 7L20 6L19 6L19 7L18 7L18 5L20 5L20 4L19 4L19 1ZM35 2L35 3L34 3L34 4L36 4L36 2ZM48 2L48 3L49 3L49 2ZM60 3L60 5L61 5L61 3ZM31 4L31 7L32 7L32 4ZM33 5L33 8L36 8L36 5ZM42 5L42 6L41 6L41 7L42 7L42 6L43 6L43 5ZM52 5L52 7L51 7L51 6L50 6L50 7L49 7L49 8L48 8L48 9L49 9L49 8L50 8L50 9L51 9L51 10L52 10L52 11L49 11L49 12L48 12L48 13L49 13L49 15L51 15L51 16L50 16L50 17L49 17L49 16L48 16L48 14L47 14L47 15L46 15L46 16L45 16L45 15L44 15L44 17L45 17L45 18L46 18L46 17L47 17L47 16L48 16L48 18L47 18L47 19L46 19L46 20L44 20L44 21L43 21L43 20L42 20L42 21L43 21L43 24L41 24L41 23L40 23L40 22L39 22L39 23L40 23L40 25L39 25L39 27L40 27L40 25L41 25L41 28L40 28L40 29L41 29L41 31L39 31L39 32L38 32L38 33L37 33L37 32L36 32L36 31L38 31L38 27L37 27L37 26L36 26L36 27L35 27L35 25L38 25L38 21L39 21L39 19L38 19L38 17L39 17L39 16L38 16L38 17L37 17L37 18L36 18L36 17L35 17L35 16L34 16L34 15L33 15L33 12L32 12L32 15L31 15L31 12L30 12L30 11L29 11L29 10L28 10L28 9L27 9L27 8L26 8L26 10L27 10L27 12L28 12L28 13L29 13L29 12L30 12L30 15L29 15L29 16L30 16L30 18L29 18L29 20L30 20L30 21L29 21L29 22L28 22L28 24L26 24L26 23L25 23L25 24L24 24L24 25L25 25L25 24L26 24L26 29L27 29L27 30L24 30L24 29L23 29L23 28L22 28L22 27L23 27L23 26L22 26L22 27L21 27L21 26L19 26L19 24L20 24L20 23L19 23L19 22L20 22L20 21L21 21L21 22L22 22L22 21L21 21L21 19L20 19L20 18L21 18L21 16L22 16L22 15L20 15L20 13L21 13L21 14L22 14L22 13L21 13L21 12L20 12L20 13L19 13L19 11L18 11L18 13L17 13L17 14L18 14L18 13L19 13L19 15L18 15L18 16L19 16L19 20L17 20L17 19L18 19L18 18L16 18L16 17L17 17L17 16L16 16L16 17L15 17L15 16L14 16L14 15L13 15L13 13L12 13L12 14L11 14L11 15L10 15L10 16L11 16L11 18L9 18L9 19L8 19L8 18L6 18L6 19L7 19L7 20L5 20L5 19L4 19L4 18L3 18L3 19L4 19L4 20L5 20L5 21L7 21L7 22L6 22L6 23L8 23L8 24L9 24L9 28L6 28L6 29L5 29L5 30L6 30L6 31L7 31L7 30L6 30L6 29L9 29L9 31L14 31L14 32L16 32L16 33L13 33L13 32L11 32L11 35L10 35L10 36L11 36L11 37L12 37L12 36L13 36L13 37L14 37L14 36L15 36L15 38L13 38L13 39L11 39L11 38L10 38L10 39L8 39L8 40L10 40L10 41L9 41L9 42L10 42L10 41L14 41L14 42L11 42L11 43L9 43L9 44L10 44L10 45L11 45L11 46L12 46L12 47L11 47L11 48L10 48L10 49L7 49L7 48L6 48L6 49L7 49L7 50L10 50L10 51L7 51L7 52L9 52L9 53L7 53L7 54L6 54L6 55L7 55L7 54L9 54L9 53L10 53L10 51L11 51L11 50L14 50L14 51L13 51L13 52L11 52L11 54L12 54L12 53L13 53L13 52L14 52L14 53L15 53L15 52L14 52L14 51L16 51L16 52L17 52L17 54L20 54L20 55L21 55L21 54L20 54L20 53L21 53L21 52L22 52L22 53L23 53L23 55L22 55L22 56L23 56L23 55L24 55L24 57L25 57L25 54L24 54L24 53L25 53L25 52L24 52L24 53L23 53L23 52L22 52L22 51L20 51L20 50L23 50L23 47L24 47L24 48L25 48L25 49L28 49L28 48L30 48L30 50L28 50L28 51L29 51L29 52L30 52L30 54L28 54L28 52L27 52L27 50L26 50L26 55L27 55L27 54L28 54L28 55L29 55L29 56L30 56L30 54L31 54L31 55L32 55L32 54L33 54L33 55L34 55L34 57L35 57L35 54L34 54L34 53L36 53L36 54L37 54L37 55L38 55L38 53L39 53L39 55L40 55L40 58L38 58L38 57L39 57L39 56L38 56L38 57L37 57L37 56L36 56L36 57L37 57L37 59L40 59L40 62L42 62L42 61L43 61L43 59L47 59L47 60L46 60L46 61L47 61L47 60L48 60L48 61L49 61L49 62L50 62L50 64L51 64L51 62L50 62L50 61L51 61L51 60L52 60L52 59L53 59L53 58L54 58L54 57L55 57L55 56L54 56L54 55L53 55L53 56L52 56L52 55L51 55L51 54L52 54L52 53L53 53L53 52L54 52L54 53L56 53L56 54L55 54L55 55L56 55L56 54L57 54L57 53L58 53L58 52L57 52L57 51L59 51L59 50L58 50L58 48L59 48L59 49L60 49L60 50L62 50L62 49L60 49L60 48L62 48L62 47L61 47L61 46L58 46L58 45L57 45L57 44L58 44L58 43L56 43L56 45L55 45L55 46L54 46L54 44L55 44L55 43L54 43L54 41L55 41L55 40L54 40L54 41L53 41L53 40L52 40L52 38L54 38L54 39L56 39L56 42L58 42L58 40L57 40L57 38L58 38L58 37L59 37L59 36L58 36L58 37L57 37L57 35L56 35L56 34L58 34L58 33L57 33L57 31L55 31L55 30L56 30L56 29L57 29L57 30L58 30L58 28L56 28L56 27L55 27L55 28L52 28L52 27L53 27L53 25L55 25L55 26L56 26L56 25L57 25L57 26L58 26L58 25L57 25L57 24L58 24L58 23L59 23L59 24L60 24L60 25L61 25L61 26L62 26L62 21L63 21L63 22L64 22L64 21L63 21L63 19L62 19L62 17L63 17L63 15L62 15L62 17L61 17L61 19L60 19L60 16L59 16L59 14L60 14L60 13L59 13L59 14L58 14L58 13L57 13L57 12L58 12L58 11L57 11L57 10L58 10L58 8L57 8L57 6L56 6L56 7L55 7L55 6L54 6L54 7L53 7L53 5ZM10 6L10 7L11 7L11 6ZM14 6L14 7L15 7L15 6ZM34 6L34 7L35 7L35 6ZM19 7L19 8L20 8L20 7ZM22 7L22 8L23 8L23 7ZM50 7L50 8L51 8L51 9L52 9L52 8L53 8L53 7L52 7L52 8L51 8L51 7ZM54 7L54 10L55 10L55 9L56 9L56 10L57 10L57 9L56 9L56 8L55 8L55 7ZM0 8L0 9L1 9L1 10L2 10L2 11L3 11L3 10L2 10L2 9L3 9L3 8ZM28 11L28 12L29 12L29 11ZM53 11L53 16L55 16L55 17L53 17L53 19L55 19L55 21L54 21L54 20L53 20L53 21L54 21L54 22L52 22L52 24L51 24L51 25L50 25L50 23L49 23L49 25L48 25L48 26L47 26L47 23L48 23L48 22L49 22L49 21L48 21L48 20L46 20L46 22L45 22L45 21L44 21L44 24L43 24L43 25L42 25L42 26L43 26L43 27L44 27L44 28L42 28L42 35L41 35L41 37L40 37L40 35L39 35L39 36L38 36L38 34L39 34L39 33L38 33L38 34L37 34L37 37L38 37L38 38L39 38L39 39L37 39L37 38L36 38L36 37L35 37L35 39L36 39L36 41L35 41L35 42L33 42L33 43L30 43L30 40L32 40L32 39L34 39L34 38L32 38L32 39L31 39L31 37L30 37L30 36L29 36L29 35L28 35L28 34L29 34L29 32L31 32L31 31L32 31L32 32L35 32L35 31L36 31L36 29L37 29L37 27L36 27L36 29L35 29L35 30L34 30L34 28L35 28L35 27L34 27L34 25L35 25L35 24L36 24L36 22L37 22L37 21L36 21L36 20L38 20L38 19L36 19L36 18L35 18L35 19L34 19L34 18L33 18L33 17L31 17L31 18L30 18L30 20L31 20L31 21L32 21L32 20L33 20L33 19L34 19L34 22L33 22L33 23L32 23L32 24L33 24L33 23L34 23L34 25L33 25L33 26L32 26L32 25L30 25L30 24L31 24L31 22L30 22L30 24L28 24L28 27L27 27L27 28L29 28L29 27L30 27L30 28L31 28L31 31L30 31L30 30L29 30L29 29L28 29L28 31L27 31L27 33L26 33L26 32L25 32L25 33L24 33L24 34L22 34L22 36L21 36L21 35L20 35L20 34L21 34L21 33L22 33L22 32L24 32L24 30L23 30L23 31L22 31L22 30L21 30L21 29L22 29L22 28L21 28L21 29L20 29L20 27L19 27L19 26L18 26L18 24L19 24L19 23L18 23L18 24L17 24L17 26L16 26L16 27L17 27L17 26L18 26L18 28L16 28L16 30L17 30L17 29L18 29L18 30L19 30L19 31L18 31L18 32L19 32L19 33L18 33L18 34L17 34L17 33L16 33L16 35L15 35L15 34L12 34L12 35L15 35L15 36L16 36L16 38L17 38L17 39L13 39L13 40L15 40L15 42L14 42L14 43L11 43L11 45L12 45L12 46L14 46L14 47L12 47L12 48L14 48L14 47L16 47L16 46L17 46L17 49L16 49L16 51L17 51L17 52L18 52L18 50L19 50L19 48L18 48L18 47L19 47L19 46L18 46L18 44L19 44L19 45L20 45L20 46L23 46L23 45L24 45L24 47L25 47L25 48L28 48L28 47L26 47L26 44L27 44L27 42L28 42L28 43L30 43L30 44L29 44L29 45L28 45L28 46L29 46L29 45L30 45L30 46L31 46L31 45L32 45L32 44L33 44L33 45L34 45L34 46L32 46L32 47L33 47L33 49L34 49L34 50L35 50L35 51L33 51L33 52L32 52L32 53L31 53L31 54L32 54L32 53L34 53L34 52L35 52L35 51L36 51L36 53L38 53L38 52L37 52L37 51L39 51L39 53L40 53L40 50L41 50L41 49L40 49L40 46L41 46L41 45L40 45L40 43L41 43L41 44L42 44L42 46L43 46L43 47L44 47L44 48L43 48L43 49L42 49L42 50L43 50L43 51L42 51L42 52L43 52L43 53L42 53L42 54L41 54L41 57L42 57L42 58L44 58L44 57L43 57L43 55L42 55L42 54L44 54L44 55L45 55L45 57L46 57L46 58L47 58L47 59L48 59L48 58L49 58L49 57L50 57L50 58L51 58L51 57L52 57L52 56L51 56L51 55L50 55L50 56L49 56L49 57L48 57L48 58L47 58L47 55L49 55L49 53L50 53L50 54L51 54L51 53L52 53L52 52L51 52L51 51L52 51L52 50L53 50L53 51L54 51L54 52L55 52L55 51L56 51L56 50L57 50L57 49L56 49L56 48L58 48L58 47L57 47L57 45L56 45L56 47L53 47L53 48L55 48L55 49L54 49L54 50L53 50L53 49L50 49L50 48L51 48L51 46L53 46L53 45L52 45L52 44L54 44L54 43L53 43L53 42L52 42L52 40L51 40L51 41L50 41L50 39L51 39L51 38L52 38L52 35L51 35L51 33L52 33L52 32L53 32L53 35L54 35L54 36L53 36L53 37L54 37L54 38L56 38L56 35L55 35L55 34L56 34L56 33L54 33L54 32L55 32L55 31L54 31L54 30L55 30L55 29L56 29L56 28L55 28L55 29L54 29L54 30L53 30L53 29L52 29L52 28L51 28L51 25L52 25L52 24L53 24L53 23L54 23L54 22L55 22L55 21L56 21L56 20L57 20L57 19L56 19L56 18L57 18L57 17L58 17L58 22L57 22L57 23L56 23L56 24L55 24L55 25L56 25L56 24L57 24L57 23L58 23L58 22L59 22L59 23L60 23L60 24L61 24L61 23L60 23L60 22L61 22L61 21L62 21L62 19L61 19L61 20L60 20L60 22L59 22L59 17L58 17L58 14L57 14L57 15L56 15L56 16L55 16L55 14L56 14L56 11L55 11L55 13L54 13L54 11ZM49 12L49 13L50 13L50 14L51 14L51 15L52 15L52 14L51 14L51 13L52 13L52 12L51 12L51 13L50 13L50 12ZM68 14L68 15L69 15L69 14ZM19 15L19 16L20 16L20 15ZM30 15L30 16L31 16L31 15ZM32 15L32 16L33 16L33 15ZM41 15L41 16L42 16L42 15ZM2 16L2 17L4 17L4 16ZM12 16L12 19L10 19L10 20L9 20L9 21L10 21L10 23L9 23L9 22L8 22L8 23L9 23L9 24L10 24L10 26L11 26L11 27L12 27L12 29L11 29L11 28L10 28L10 30L12 30L12 29L13 29L13 28L14 28L14 27L15 27L15 26L14 26L14 25L12 25L12 24L16 24L16 23L17 23L17 22L15 22L15 21L16 21L16 19L15 19L15 21L12 21L12 20L14 20L14 19L13 19L13 16ZM51 16L51 17L50 17L50 18L49 18L49 20L50 20L50 22L51 22L51 21L52 21L52 20L51 20L51 19L50 19L50 18L52 18L52 16ZM56 16L56 17L55 17L55 18L56 18L56 17L57 17L57 16ZM42 18L42 19L44 19L44 18ZM67 18L67 19L68 19L68 18ZM31 19L31 20L32 20L32 19ZM7 20L7 21L8 21L8 20ZM10 20L10 21L11 21L11 20ZM40 20L40 21L41 21L41 20ZM35 21L35 22L36 22L36 21ZM47 21L47 22L46 22L46 23L47 23L47 22L48 22L48 21ZM12 22L12 23L13 23L13 22ZM68 22L68 24L69 24L69 22ZM5 24L5 25L7 25L7 24ZM44 24L44 25L43 25L43 26L44 26L44 27L47 27L47 28L48 28L48 29L47 29L47 30L46 30L46 28L44 28L44 29L45 29L45 30L44 30L44 34L43 34L43 35L44 35L44 38L43 38L43 39L42 39L42 37L41 37L41 39L40 39L40 41L39 41L39 40L38 40L38 41L37 41L37 43L38 43L38 44L35 44L35 43L34 43L34 45L35 45L35 46L34 46L34 49L35 49L35 48L36 48L36 49L37 49L37 50L36 50L36 51L37 51L37 50L38 50L38 49L37 49L37 48L38 48L38 47L39 47L39 46L38 46L38 45L39 45L39 43L38 43L38 41L39 41L39 42L41 42L41 39L42 39L42 40L44 40L44 42L43 42L43 43L42 43L42 44L43 44L43 43L45 43L45 44L44 44L44 46L45 46L45 44L46 44L46 45L47 45L47 44L46 44L46 43L45 43L45 42L46 42L46 41L47 41L47 43L49 43L49 44L48 44L48 46L47 46L47 48L46 48L46 47L45 47L45 48L44 48L44 50L45 50L45 52L44 52L44 54L45 54L45 55L47 55L47 54L48 54L48 53L49 53L49 52L48 52L48 51L51 51L51 50L50 50L50 49L49 49L49 48L50 48L50 43L52 43L52 42L50 42L50 41L49 41L49 40L48 40L48 41L47 41L47 39L46 39L46 36L48 36L48 37L47 37L47 38L48 38L48 39L49 39L49 36L48 36L48 35L49 35L49 34L48 34L48 33L49 33L49 32L50 32L50 31L51 31L51 32L52 32L52 31L51 31L51 30L52 30L52 29L51 29L51 30L50 30L50 29L49 29L49 28L50 28L50 25L49 25L49 26L48 26L48 27L47 27L47 26L46 26L46 25L45 25L45 24ZM6 26L6 27L7 27L7 26ZM12 26L12 27L13 27L13 26ZM24 26L24 27L25 27L25 26ZM31 26L31 28L32 28L32 26ZM33 27L33 28L34 28L34 27ZM18 28L18 29L19 29L19 30L20 30L20 31L21 31L21 32L20 32L20 33L21 33L21 32L22 32L22 31L21 31L21 30L20 30L20 29L19 29L19 28ZM14 29L14 31L15 31L15 29ZM48 29L48 30L49 30L49 29ZM32 30L32 31L34 31L34 30ZM45 30L45 32L46 32L46 35L45 35L45 34L44 34L44 35L45 35L45 36L46 36L46 35L47 35L47 33L48 33L48 31L46 31L46 30ZM16 31L16 32L17 32L17 31ZM60 31L60 32L61 32L61 31ZM68 32L68 35L69 35L69 32ZM5 33L5 36L8 36L8 33ZM33 33L33 36L36 36L36 33ZM40 33L40 34L41 34L41 33ZM61 33L61 36L64 36L64 33ZM2 34L2 35L3 35L3 34ZM6 34L6 35L7 35L7 34ZM18 34L18 37L17 37L17 38L18 38L18 39L20 39L20 40L18 40L18 43L19 43L19 44L20 44L20 45L21 45L21 44L22 44L22 45L23 45L23 44L24 44L24 45L25 45L25 44L26 44L26 42L27 42L27 39L28 39L28 40L30 40L30 38L28 38L28 37L29 37L29 36L28 36L28 35L27 35L27 34L26 34L26 35L27 35L27 36L26 36L26 37L25 37L25 40L22 40L22 39L24 39L24 38L23 38L23 36L22 36L22 38L21 38L21 39L20 39L20 37L21 37L21 36L19 36L19 34ZM24 34L24 35L25 35L25 34ZM34 34L34 35L35 35L35 34ZM62 34L62 35L63 35L63 34ZM31 35L31 36L32 36L32 35ZM50 35L50 36L51 36L51 35ZM27 36L27 37L28 37L28 36ZM68 36L68 37L69 37L69 36ZM18 37L18 38L19 38L19 37ZM6 38L6 39L4 39L4 40L6 40L6 39L7 39L7 38ZM26 38L26 39L27 39L27 38ZM61 38L61 39L62 39L62 38ZM66 38L66 39L67 39L67 40L68 40L68 39L69 39L69 38L68 38L68 39L67 39L67 38ZM44 39L44 40L45 40L45 41L46 41L46 39ZM16 40L16 41L17 41L17 40ZM20 40L20 42L19 42L19 43L20 43L20 44L21 44L21 43L20 43L20 42L21 42L21 40ZM25 40L25 41L26 41L26 40ZM22 41L22 44L23 44L23 41ZM48 41L48 42L49 42L49 43L50 43L50 42L49 42L49 41ZM62 41L62 42L61 42L61 43L62 43L62 42L63 42L63 41ZM16 42L16 43L17 43L17 42ZM24 42L24 43L25 43L25 42ZM14 43L14 44L15 44L15 46L16 46L16 45L17 45L17 44L15 44L15 43ZM12 44L12 45L13 45L13 44ZM30 44L30 45L31 45L31 44ZM36 45L36 48L37 48L37 45ZM48 46L48 47L49 47L49 46ZM64 46L64 47L63 47L63 50L64 50L64 49L66 49L66 47L67 47L67 46ZM59 47L59 48L60 48L60 47ZM64 47L64 48L65 48L65 47ZM47 48L47 49L46 49L46 51L48 51L48 50L49 50L49 49L48 49L48 48ZM3 49L3 50L2 50L2 51L4 51L4 49ZM14 49L14 50L15 50L15 49ZM31 49L31 50L30 50L30 52L31 52L31 50L32 50L32 49ZM39 49L39 50L40 50L40 49ZM55 49L55 50L54 50L54 51L55 51L55 50L56 50L56 49ZM19 52L19 53L20 53L20 52ZM47 52L47 53L46 53L46 54L47 54L47 53L48 53L48 52ZM4 54L4 55L5 55L5 54ZM59 54L59 58L58 58L58 57L57 57L57 56L56 56L56 58L55 58L55 60L56 60L56 59L57 59L57 60L58 60L58 59L59 59L59 58L60 58L60 57L62 57L62 56L61 56L61 55L60 55L60 54ZM62 54L62 55L63 55L63 54ZM2 56L2 57L3 57L3 56ZM50 56L50 57L51 57L51 56ZM63 57L63 58L62 58L62 59L64 59L64 57ZM24 58L24 59L25 59L25 60L26 60L26 59L25 59L25 58ZM34 58L34 59L35 59L35 58ZM40 58L40 59L41 59L41 58ZM67 58L67 59L68 59L68 58ZM21 59L21 60L22 60L22 61L21 61L21 62L22 62L22 61L23 61L23 59ZM29 59L29 61L28 61L28 62L29 62L29 63L28 63L28 64L29 64L29 65L30 65L30 64L31 64L31 63L30 63L30 59ZM49 59L49 60L50 60L50 59ZM3 60L3 61L5 61L5 60ZM6 60L6 61L7 61L7 60ZM8 60L8 62L9 62L9 60ZM41 60L41 61L42 61L42 60ZM33 61L33 64L36 64L36 61ZM61 61L61 64L64 64L64 61ZM34 62L34 63L35 63L35 62ZM62 62L62 63L63 63L63 62ZM8 63L8 64L10 64L10 67L9 67L9 66L8 66L8 69L10 69L10 67L11 67L11 68L13 68L13 69L14 69L14 68L15 68L15 69L16 69L16 68L15 68L15 67L14 67L14 68L13 68L13 66L12 66L12 67L11 67L11 65L12 65L12 64L10 64L10 63ZM18 63L18 64L19 64L19 63ZM54 64L54 65L55 65L55 66L56 66L56 65L58 65L58 64L56 64L56 65L55 65L55 64ZM15 65L15 66L16 66L16 65ZM32 65L32 68L33 68L33 67L34 67L34 68L35 68L35 65ZM38 65L38 66L39 66L39 65ZM65 65L65 67L66 67L66 65ZM36 67L36 68L38 68L38 67ZM40 67L40 68L41 68L41 67ZM52 68L52 69L54 69L54 68ZM56 68L56 69L58 69L58 68ZM59 68L59 69L60 69L60 68ZM68 68L68 69L69 69L69 68ZM0 0L0 7L7 7L7 0ZM1 1L1 6L6 6L6 1ZM2 2L2 5L5 5L5 2ZM62 0L62 7L69 7L69 0ZM63 1L63 6L68 6L68 1ZM64 2L64 5L67 5L67 2ZM0 62L0 69L7 69L7 62ZM1 63L1 68L6 68L6 63ZM2 64L2 67L5 67L5 64Z" fill="#000000"/></g></g></svg>
