<?xml version="1.0" encoding="UTF-8"?>
<svg xmlns="http://www.w3.org/2000/svg" version="1.1" width="300" height="300" viewBox="0 0 300 300"><rect x="0" y="0" width="300" height="300" fill="#ffffff"/><g transform="scale(4.348)"><g transform="translate(0,0)"><path fill-rule="evenodd" d="M9 0L9 1L8 1L8 2L9 2L9 1L10 1L10 0ZM13 0L13 2L12 2L12 3L13 3L13 2L14 2L14 4L16 4L16 5L13 5L13 4L12 4L12 5L11 5L11 4L10 4L10 3L11 3L11 2L10 2L10 3L8 3L8 4L10 4L10 5L11 5L11 6L10 6L10 7L9 7L9 5L8 5L8 7L9 7L9 8L6 8L6 9L7 9L7 10L5 10L5 8L0 8L0 10L1 10L1 11L0 11L0 12L1 12L1 13L0 13L0 15L2 15L2 14L1 14L1 13L3 13L3 17L2 17L2 18L1 18L1 17L0 17L0 18L1 18L1 20L0 20L0 21L1 21L1 20L2 20L2 21L3 21L3 22L2 22L2 23L4 23L4 24L5 24L5 25L3 25L3 24L1 24L1 22L0 22L0 25L1 25L1 27L0 27L0 28L1 28L1 29L2 29L2 32L1 32L1 33L0 33L0 38L1 38L1 40L2 40L2 42L1 42L1 43L0 43L0 44L1 44L1 43L3 43L3 42L4 42L4 43L5 43L5 44L3 44L3 45L0 45L0 46L2 46L2 48L1 48L1 47L0 47L0 49L2 49L2 48L3 48L3 46L4 46L4 49L3 49L3 50L0 50L0 55L1 55L1 54L3 54L3 55L2 55L2 56L0 56L0 61L1 61L1 58L2 58L2 59L3 59L3 56L4 56L4 59L7 59L7 60L6 60L6 61L8 61L8 63L9 63L9 62L10 62L10 63L11 63L11 64L8 64L8 69L9 69L9 68L10 68L10 69L14 69L14 68L15 68L15 67L13 67L13 68L11 68L11 66L10 66L10 67L9 67L9 65L11 65L11 64L12 64L12 66L14 66L14 65L13 65L13 64L12 64L12 63L13 63L13 62L14 62L14 63L16 63L16 64L15 64L15 65L16 65L16 64L18 64L18 65L17 65L17 69L19 69L19 67L20 67L20 66L19 66L19 65L20 65L20 61L21 61L21 62L22 62L22 61L21 61L21 60L23 60L23 59L24 59L24 60L25 60L25 61L23 61L23 62L25 62L25 63L24 63L24 64L25 64L25 65L23 65L23 66L21 66L21 68L20 68L20 69L21 69L21 68L22 68L22 67L24 67L24 68L25 68L25 69L26 69L26 68L27 68L27 67L28 67L28 68L29 68L29 69L32 69L32 68L29 68L29 66L30 66L30 65L32 65L32 66L31 66L31 67L33 67L33 65L36 65L36 66L35 66L35 67L34 67L34 68L36 68L36 69L38 69L38 68L37 68L37 67L39 67L39 66L38 66L38 64L41 64L41 66L40 66L40 67L41 67L41 68L42 68L42 67L41 67L41 66L44 66L44 68L43 68L43 69L44 69L44 68L47 68L47 69L49 69L49 67L50 67L50 68L51 68L51 67L52 67L52 66L51 66L51 67L50 67L50 65L51 65L51 64L53 64L53 63L54 63L54 64L55 64L55 65L53 65L53 66L54 66L54 67L55 67L55 68L53 68L53 69L56 69L56 68L57 68L57 66L58 66L58 68L59 68L59 67L63 67L63 68L60 68L60 69L63 69L63 68L65 68L65 69L68 69L68 68L67 68L67 67L63 67L63 66L61 66L61 65L64 65L64 66L65 66L65 64L67 64L67 63L68 63L68 64L69 64L69 63L68 63L68 62L69 62L69 60L67 60L67 59L68 59L68 58L69 58L69 57L68 57L68 56L69 56L69 55L68 55L68 54L69 54L69 53L68 53L68 54L67 54L67 53L66 53L66 52L68 52L68 50L69 50L69 48L67 48L67 47L68 47L68 41L69 41L69 40L67 40L67 39L68 39L68 38L67 38L67 37L68 37L68 36L69 36L69 35L68 35L68 34L69 34L69 32L68 32L68 30L69 30L69 29L68 29L68 26L69 26L69 23L68 23L68 22L69 22L69 21L68 21L68 18L69 18L69 17L68 17L68 16L69 16L69 15L68 15L68 14L69 14L69 13L68 13L68 12L67 12L67 11L68 11L68 8L67 8L67 11L65 11L65 10L64 10L64 8L63 8L63 10L64 10L64 12L65 12L65 13L64 13L64 14L62 14L62 12L63 12L63 11L62 11L62 8L61 8L61 9L59 9L59 10L61 10L61 13L59 13L59 14L61 14L61 15L57 15L57 13L58 13L58 12L60 12L60 11L58 11L58 12L57 12L57 10L56 10L56 12L55 12L55 8L57 8L57 9L58 9L58 8L57 8L57 6L58 6L58 7L59 7L59 4L57 4L57 6L56 6L56 5L55 5L55 4L56 4L56 2L57 2L57 3L59 3L59 2L58 2L58 1L61 1L61 0L56 0L56 2L55 2L55 4L53 4L53 5L52 5L52 7L51 7L51 6L50 6L50 2L49 2L49 3L48 3L48 2L47 2L47 4L48 4L48 7L47 7L47 6L46 6L46 5L44 5L44 3L45 3L45 4L46 4L46 3L45 3L45 2L46 2L46 1L45 1L45 0L44 0L44 1L45 1L45 2L44 2L44 3L43 3L43 0L41 0L41 1L38 1L38 0L37 0L37 1L36 1L36 0L34 0L34 1L33 1L33 2L30 2L30 1L32 1L32 0L30 0L30 1L29 1L29 0L28 0L28 1L27 1L27 2L26 2L26 1L25 1L25 0L23 0L23 1L21 1L21 2L23 2L23 1L25 1L25 2L24 2L24 3L23 3L23 4L22 4L22 3L17 3L17 2L16 2L16 3L15 3L15 1L14 1L14 0ZM16 0L16 1L19 1L19 2L20 2L20 1L19 1L19 0ZM48 0L48 1L50 1L50 0ZM51 0L51 3L52 3L52 2L54 2L54 1L55 1L55 0L54 0L54 1L52 1L52 0ZM34 1L34 2L33 2L33 3L32 3L32 4L35 4L35 3L38 3L38 4L37 4L37 5L38 5L38 6L37 6L37 7L38 7L38 6L39 6L39 7L40 7L40 6L41 6L41 8L39 8L39 9L38 9L38 8L37 8L37 9L38 9L38 10L36 10L36 9L35 9L35 10L34 10L34 9L31 9L31 7L32 7L32 5L30 5L30 4L29 4L29 3L28 3L28 2L27 2L27 3L26 3L26 4L25 4L25 7L26 7L26 9L24 9L24 8L23 8L23 7L24 7L24 5L22 5L22 4L19 4L19 5L20 5L20 6L19 6L19 7L18 7L18 6L17 6L17 7L16 7L16 6L15 6L15 7L14 7L14 6L13 6L13 7L12 7L12 6L11 6L11 7L12 7L12 8L11 8L11 9L12 9L12 8L13 8L13 7L14 7L14 8L17 8L17 7L18 7L18 8L19 8L19 7L20 7L20 10L19 10L19 9L17 9L17 10L16 10L16 12L15 12L15 9L13 9L13 11L14 11L14 12L11 12L11 11L12 11L12 10L10 10L10 11L9 11L9 12L8 12L8 10L7 10L7 11L1 11L1 12L3 12L3 13L4 13L4 15L5 15L5 16L4 16L4 18L5 18L5 20L9 20L9 21L6 21L6 22L5 22L5 23L6 23L6 24L7 24L7 25L6 25L6 26L4 26L4 28L3 28L3 30L4 30L4 29L5 29L5 31L3 31L3 32L2 32L2 35L1 35L1 37L2 37L2 38L3 38L3 39L2 39L2 40L4 40L4 42L5 42L5 43L6 43L6 44L7 44L7 43L9 43L9 45L8 45L8 46L7 46L7 45L5 45L5 47L6 47L6 48L7 48L7 47L8 47L8 46L9 46L9 48L8 48L8 49L5 49L5 50L4 50L4 53L5 53L5 55L6 55L6 56L5 56L5 57L6 57L6 58L7 58L7 59L8 59L8 61L11 61L11 62L12 62L12 60L10 60L10 56L7 56L7 55L8 55L8 53L6 53L6 52L7 52L7 51L6 51L6 52L5 52L5 50L8 50L8 51L9 51L9 52L10 52L10 48L12 48L12 51L11 51L11 52L12 52L12 55L11 55L11 57L12 57L12 59L13 59L13 61L14 61L14 62L16 62L16 63L18 63L18 62L19 62L19 61L17 61L17 60L19 60L19 59L17 59L17 60L16 60L16 59L15 59L15 58L16 58L16 57L17 57L17 56L18 56L18 55L19 55L19 57L20 57L20 60L21 60L21 57L22 57L22 59L23 59L23 58L24 58L24 57L22 57L22 56L21 56L21 57L20 57L20 55L19 55L19 54L17 54L17 51L18 51L18 49L21 49L21 50L23 50L23 51L24 51L24 50L23 50L23 48L20 48L20 47L21 47L21 46L22 46L22 47L24 47L24 48L25 48L25 49L26 49L26 50L25 50L25 51L26 51L26 50L27 50L27 51L28 51L28 52L26 52L26 55L25 55L25 54L23 54L23 56L25 56L25 57L27 57L27 59L28 59L28 60L26 60L26 58L25 58L25 60L26 60L26 62L27 62L27 64L28 64L28 65L25 65L25 66L26 66L26 67L25 67L25 68L26 68L26 67L27 67L27 66L28 66L28 65L30 65L30 64L31 64L31 63L32 63L32 57L33 57L33 58L34 58L34 60L35 60L35 59L37 59L37 58L36 58L36 57L38 57L38 59L39 59L39 57L41 57L41 56L39 56L39 55L42 55L42 54L41 54L41 52L44 52L44 53L43 53L43 56L42 56L42 57L43 57L43 59L44 59L44 61L43 61L43 60L42 60L42 58L41 58L41 59L40 59L40 62L39 62L39 61L38 61L38 63L41 63L41 64L44 64L44 66L45 66L45 67L46 67L46 66L47 66L47 63L49 63L49 65L50 65L50 63L51 63L51 62L54 62L54 63L56 63L56 66L55 66L55 67L56 67L56 66L57 66L57 65L58 65L58 66L59 66L59 65L60 65L60 63L56 63L56 62L59 62L59 61L60 61L60 60L64 60L64 59L65 59L65 58L68 58L68 57L66 57L66 56L63 56L63 58L62 58L62 57L61 57L61 58L62 58L62 59L60 59L60 60L59 60L59 57L60 57L60 56L61 56L61 55L60 55L60 54L59 54L59 53L60 53L60 52L59 52L59 50L60 50L60 51L67 51L67 50L66 50L66 49L67 49L67 48L65 48L65 47L66 47L66 45L63 45L63 44L62 44L62 43L67 43L67 42L66 42L66 41L67 41L67 40L66 40L66 39L65 39L65 38L66 38L66 36L65 36L65 37L64 37L64 38L62 38L62 37L61 37L61 38L62 38L62 39L60 39L60 37L59 37L59 36L60 36L60 35L58 35L58 36L57 36L57 35L56 35L56 33L57 33L57 34L60 34L60 33L58 33L58 32L60 32L60 31L61 31L61 32L62 32L62 31L63 31L63 32L64 32L64 31L67 31L67 28L66 28L66 27L65 27L65 26L64 26L64 27L65 27L65 28L63 28L63 29L62 29L62 27L63 27L63 25L65 25L65 24L63 24L63 23L62 23L62 22L63 22L63 21L66 21L66 20L65 20L65 18L63 18L63 17L66 17L66 16L65 16L65 14L68 14L68 13L65 13L65 14L64 14L64 16L62 16L62 15L61 15L61 16L59 16L59 17L57 17L57 15L56 15L56 13L57 13L57 12L56 12L56 13L55 13L55 12L54 12L54 11L53 11L53 7L54 7L54 5L53 5L53 7L52 7L52 8L51 8L51 7L50 7L50 6L49 6L49 7L50 7L50 11L51 11L51 12L50 12L50 14L47 14L47 13L45 13L45 12L49 12L49 10L47 10L47 7L46 7L46 6L45 6L45 7L44 7L44 5L43 5L43 7L42 7L42 5L41 5L41 2L42 2L42 1L41 1L41 2L40 2L40 3L39 3L39 2L36 2L36 1ZM60 3L60 5L61 5L61 3ZM21 5L21 6L20 6L20 7L21 7L21 6L22 6L22 7L23 7L23 6L22 6L22 5ZM28 5L28 7L29 7L29 6L30 6L30 7L31 7L31 6L30 6L30 5ZM33 5L33 8L36 8L36 5ZM39 5L39 6L40 6L40 5ZM26 6L26 7L27 7L27 6ZM34 6L34 7L35 7L35 6ZM55 6L55 7L56 7L56 6ZM60 6L60 7L61 7L61 6ZM45 7L45 9L44 9L44 8L43 8L43 9L41 9L41 12L40 12L40 11L39 11L39 10L40 10L40 9L39 9L39 10L38 10L38 11L37 11L37 12L38 12L38 13L36 13L36 12L34 12L34 13L33 13L33 14L32 14L32 15L29 15L29 14L31 14L31 13L32 13L32 12L30 12L30 11L32 11L32 10L31 10L31 9L30 9L30 8L27 8L27 9L30 9L30 10L27 10L27 11L26 11L26 10L25 10L25 11L26 11L26 12L24 12L24 11L22 11L22 12L24 12L24 13L21 13L21 10L20 10L20 12L19 12L19 10L18 10L18 11L17 11L17 12L16 12L16 14L15 14L15 12L14 12L14 13L11 13L11 12L10 12L10 13L11 13L11 14L10 14L10 16L11 16L11 17L12 17L12 18L9 18L9 17L8 17L8 16L9 16L9 15L8 15L8 14L9 14L9 13L8 13L8 12L5 12L5 14L6 14L6 15L8 15L8 16L6 16L6 17L7 17L7 18L6 18L6 19L8 19L8 18L9 18L9 19L10 19L10 20L11 20L11 19L12 19L12 21L13 21L13 19L14 19L14 17L15 17L15 18L17 18L17 20L18 20L18 21L17 21L17 23L16 23L16 24L14 24L14 23L15 23L15 20L16 20L16 19L15 19L15 20L14 20L14 23L12 23L12 22L11 22L11 21L9 21L9 22L6 22L6 23L8 23L8 26L6 26L6 27L9 27L9 28L8 28L8 29L7 29L7 28L6 28L6 29L7 29L7 30L6 30L6 31L7 31L7 30L9 30L9 31L10 31L10 30L9 30L9 29L10 29L10 27L11 27L11 29L12 29L12 28L13 28L13 27L14 27L14 30L15 30L15 31L16 31L16 30L15 30L15 27L16 27L16 28L17 28L17 30L18 30L18 31L17 31L17 32L18 32L18 33L17 33L17 34L15 34L15 33L16 33L16 32L12 32L12 36L13 36L13 37L12 37L12 38L11 38L11 35L10 35L10 34L11 34L11 33L10 33L10 34L9 34L9 32L3 32L3 33L4 33L4 35L3 35L3 36L2 36L2 37L7 37L7 38L6 38L6 39L5 39L5 42L6 42L6 43L7 43L7 42L6 42L6 41L8 41L8 40L6 40L6 39L7 39L7 38L8 38L8 39L9 39L9 40L10 40L10 41L9 41L9 42L10 42L10 41L11 41L11 42L12 42L12 41L13 41L13 42L16 42L16 41L15 41L15 40L14 40L14 39L16 39L16 40L17 40L17 41L22 41L22 40L21 40L21 39L22 39L22 38L25 38L25 39L24 39L24 41L23 41L23 42L24 42L24 41L25 41L25 42L26 42L26 44L24 44L24 43L20 43L20 42L17 42L17 43L18 43L18 44L17 44L17 45L18 45L18 46L15 46L15 45L16 45L16 43L15 43L15 45L13 45L13 44L14 44L14 43L12 43L12 45L13 45L13 46L14 46L14 47L16 47L16 48L17 48L17 49L18 49L18 48L17 48L17 47L18 47L18 46L20 46L20 45L19 45L19 44L23 44L23 46L24 46L24 47L25 47L25 48L26 48L26 47L25 47L25 45L26 45L26 46L27 46L27 47L29 47L29 52L28 52L28 53L27 53L27 54L28 54L28 53L31 53L31 54L30 54L30 55L29 55L29 56L27 56L27 57L29 57L29 59L30 59L30 60L29 60L29 61L31 61L31 54L33 54L33 55L32 55L32 56L34 56L34 54L33 54L33 53L34 53L34 52L33 52L33 51L34 51L34 50L36 50L36 51L35 51L35 52L36 52L36 53L37 53L37 54L36 54L36 55L35 55L35 56L37 56L37 54L40 54L40 53L39 53L39 51L40 51L40 52L41 52L41 50L42 50L42 51L44 51L44 52L45 52L45 53L44 53L44 56L43 56L43 57L44 57L44 56L46 56L46 57L47 57L47 56L48 56L48 58L47 58L47 59L50 59L50 60L46 60L46 58L45 58L45 61L44 61L44 64L45 64L45 66L46 66L46 64L45 64L45 61L47 61L47 62L50 62L50 61L52 61L52 60L53 60L53 61L54 61L54 62L56 62L56 60L54 60L54 58L55 58L55 59L56 59L56 55L55 55L55 56L54 56L54 54L57 54L57 55L59 55L59 56L58 56L58 57L59 57L59 56L60 56L60 55L59 55L59 54L57 54L57 53L56 53L56 52L58 52L58 53L59 53L59 52L58 52L58 50L57 50L57 49L58 49L58 48L62 48L62 49L60 49L60 50L62 50L62 49L63 49L63 50L64 50L64 49L65 49L65 48L64 48L64 49L63 49L63 48L62 48L62 46L63 46L63 47L64 47L64 46L63 46L63 45L62 45L62 46L61 46L61 44L60 44L60 43L62 43L62 42L64 42L64 41L66 41L66 40L65 40L65 39L62 39L62 40L64 40L64 41L62 41L62 42L58 42L58 43L57 43L57 45L59 45L59 46L61 46L61 47L58 47L58 46L56 46L56 44L55 44L55 45L53 45L53 46L55 46L55 47L53 47L53 48L55 48L55 49L51 49L51 48L50 48L50 49L49 49L49 48L47 48L47 49L49 49L49 50L47 50L47 51L46 51L46 52L45 52L45 49L46 49L46 46L45 46L45 45L47 45L47 46L50 46L50 47L52 47L52 45L51 45L51 43L52 43L52 42L56 42L56 41L51 41L51 40L52 40L52 39L53 39L53 40L58 40L58 39L57 39L57 38L56 38L56 39L53 39L53 38L55 38L55 37L56 37L56 35L55 35L55 37L51 37L51 36L53 36L53 35L54 35L54 34L55 34L55 32L57 32L57 31L56 31L56 30L57 30L57 29L56 29L56 27L55 27L55 25L54 25L54 24L57 24L57 23L56 23L56 22L55 22L55 21L56 21L56 19L55 19L55 21L53 21L53 23L50 23L50 25L51 25L51 26L49 26L49 24L48 24L48 23L47 23L47 24L46 24L46 22L44 22L44 20L42 20L42 19L43 19L43 17L44 17L44 16L45 16L45 18L44 18L44 19L45 19L45 18L46 18L46 19L47 19L47 20L46 20L46 21L48 21L48 22L50 22L50 21L51 21L51 22L52 22L52 21L51 21L51 20L54 20L54 19L53 19L53 18L56 18L56 15L55 15L55 13L52 13L52 12L53 12L53 11L52 11L52 12L51 12L51 13L52 13L52 14L50 14L50 15L47 15L47 16L45 16L45 15L46 15L46 14L45 14L45 13L42 13L42 14L41 14L41 12L42 12L42 10L45 10L45 9L46 9L46 7ZM9 8L9 9L10 9L10 8ZM21 8L21 9L22 9L22 8ZM65 8L65 9L66 9L66 8ZM1 9L1 10L2 10L2 9ZM3 9L3 10L4 10L4 9ZM23 9L23 10L24 10L24 9ZM51 9L51 10L52 10L52 9ZM35 10L35 11L36 11L36 10ZM27 11L27 12L26 12L26 13L25 13L25 14L21 14L21 13L20 13L20 14L21 14L21 16L20 16L20 15L19 15L19 14L18 14L18 15L17 15L17 14L16 14L16 16L18 16L18 17L17 17L17 18L18 18L18 17L22 17L22 19L23 19L23 20L19 20L19 21L18 21L18 23L20 23L20 24L19 24L19 25L18 25L18 26L17 26L17 28L19 28L19 29L20 29L20 30L19 30L19 32L20 32L20 33L19 33L19 34L20 34L20 35L18 35L18 34L17 34L17 35L16 35L16 36L19 36L19 37L13 37L13 38L16 38L16 39L17 39L17 40L18 40L18 39L19 39L19 37L20 37L20 38L22 38L22 37L23 37L23 36L21 36L21 35L22 35L22 34L23 34L23 32L26 32L26 31L23 31L23 30L24 30L24 29L25 29L25 28L24 28L24 27L22 27L22 29L21 29L21 28L20 28L20 27L21 27L21 25L22 25L22 26L24 26L24 25L22 25L22 24L21 24L21 23L22 23L22 22L23 22L23 24L26 24L26 26L25 26L25 27L26 27L26 26L27 26L27 28L26 28L26 30L27 30L27 31L28 31L28 30L29 30L29 32L28 32L28 33L25 33L25 34L24 34L24 35L25 35L25 36L24 36L24 37L25 37L25 38L26 38L26 39L27 39L27 40L25 40L25 41L27 41L27 42L28 42L28 43L27 43L27 44L26 44L26 45L27 45L27 46L29 46L29 45L27 45L27 44L29 44L29 43L33 43L33 45L32 45L32 44L31 44L31 45L30 45L30 47L31 47L31 49L32 49L32 48L33 48L33 49L36 49L36 50L37 50L37 51L39 51L39 50L41 50L41 49L42 49L42 48L43 48L43 46L44 46L44 49L43 49L43 50L44 50L44 49L45 49L45 46L44 46L44 45L45 45L45 44L44 44L44 42L45 42L45 43L46 43L46 42L47 42L47 43L48 43L48 44L49 44L49 45L50 45L50 46L51 46L51 45L50 45L50 43L51 43L51 41L50 41L50 42L49 42L49 43L48 43L48 41L47 41L47 40L48 40L48 38L47 38L47 37L45 37L45 36L48 36L48 35L49 35L49 33L46 33L46 32L47 32L47 31L46 31L46 32L44 32L44 30L42 30L42 27L38 27L38 28L37 28L37 29L38 29L38 30L40 30L40 31L43 31L43 32L38 32L38 31L35 31L35 32L38 32L38 34L39 34L39 35L37 35L37 36L38 36L38 37L36 37L36 38L35 38L35 37L34 37L34 38L35 38L35 39L34 39L34 40L33 40L33 39L32 39L32 36L31 36L31 38L30 38L30 37L29 37L29 36L30 36L30 34L31 34L31 35L32 35L32 33L29 33L29 32L31 32L31 31L30 31L30 30L31 30L31 29L32 29L32 28L31 28L31 27L33 27L33 28L34 28L34 29L33 29L33 30L32 30L32 32L34 32L34 31L33 31L33 30L34 30L34 29L36 29L36 28L35 28L35 27L36 27L36 26L35 26L35 27L33 27L33 25L34 25L34 24L36 24L36 25L37 25L37 24L36 24L36 23L34 23L34 22L35 22L35 21L38 21L38 20L36 20L36 19L32 19L32 17L34 17L34 18L36 18L36 17L35 17L35 16L36 16L36 15L35 15L35 14L36 14L36 13L34 13L34 14L33 14L33 15L32 15L32 17L31 17L31 18L30 18L30 19L32 19L32 20L31 20L31 21L30 21L30 20L29 20L29 15L28 15L28 14L29 14L29 11ZM43 11L43 12L45 12L45 11ZM39 12L39 13L38 13L38 16L39 16L39 17L38 17L38 19L39 19L39 20L40 20L40 21L39 21L39 22L37 22L37 23L38 23L38 24L39 24L39 25L38 25L38 26L41 26L41 25L42 25L42 24L41 24L41 23L39 23L39 22L41 22L41 20L40 20L40 19L39 19L39 18L41 18L41 17L42 17L42 16L44 16L44 15L45 15L45 14L42 14L42 15L40 15L40 14L39 14L39 13L40 13L40 12ZM6 13L6 14L7 14L7 13ZM26 13L26 14L27 14L27 13ZM11 14L11 16L12 16L12 14ZM13 14L13 16L15 16L15 15L14 15L14 14ZM22 15L22 16L23 16L23 18L25 18L25 20L23 20L23 22L24 22L24 23L26 23L26 24L27 24L27 22L26 22L26 17L24 17L24 16L26 16L26 15L24 15L24 16L23 16L23 15ZM27 15L27 16L28 16L28 15ZM33 15L33 16L34 16L34 15ZM39 15L39 16L40 16L40 15ZM51 15L51 16L50 16L50 17L49 17L49 18L47 18L47 17L46 17L46 18L47 18L47 19L48 19L48 20L49 20L49 21L50 21L50 20L51 20L51 19L49 19L49 18L51 18L51 17L52 17L52 18L53 18L53 16L54 16L54 15L53 15L53 16L52 16L52 15ZM61 16L61 17L59 17L59 20L58 20L58 19L57 19L57 21L59 21L59 22L58 22L58 23L59 23L59 24L58 24L58 25L59 25L59 26L60 26L60 27L57 27L57 28L59 28L59 30L58 30L58 31L59 31L59 30L62 30L62 29L61 29L61 28L60 28L60 27L61 27L61 26L62 26L62 25L63 25L63 24L62 24L62 25L61 25L61 22L62 22L62 21L63 21L63 20L64 20L64 19L63 19L63 18L62 18L62 16ZM27 17L27 18L28 18L28 17ZM2 18L2 19L3 19L3 18ZM19 18L19 19L20 19L20 18ZM61 18L61 19L62 19L62 20L63 20L63 19L62 19L62 18ZM27 19L27 20L28 20L28 19ZM34 20L34 21L32 21L32 22L34 22L34 21L35 21L35 20ZM19 21L19 22L20 22L20 21ZM21 21L21 22L22 22L22 21ZM29 21L29 22L30 22L30 23L28 23L28 24L30 24L30 25L29 25L29 27L28 27L28 29L27 29L27 30L28 30L28 29L29 29L29 30L30 30L30 29L31 29L31 28L30 28L30 27L31 27L31 26L32 26L32 25L31 25L31 24L32 24L32 23L31 23L31 22L30 22L30 21ZM10 22L10 23L11 23L11 24L9 24L9 26L10 26L10 25L11 25L11 26L14 26L14 27L15 27L15 26L16 26L16 25L17 25L17 24L16 24L16 25L14 25L14 24L13 24L13 25L11 25L11 24L12 24L12 23L11 23L11 22ZM43 22L43 24L44 24L44 25L43 25L43 26L46 26L46 27L45 27L45 28L44 28L44 29L45 29L45 30L47 30L47 28L49 28L49 27L47 27L47 25L48 25L48 24L47 24L47 25L46 25L46 24L45 24L45 23L44 23L44 22ZM54 22L54 23L53 23L53 24L51 24L51 25L52 25L52 26L53 26L53 27L54 27L54 26L53 26L53 24L54 24L54 23L55 23L55 22ZM59 22L59 23L60 23L60 22ZM64 22L64 23L67 23L67 24L68 24L68 23L67 23L67 22ZM33 23L33 24L34 24L34 23ZM20 24L20 25L19 25L19 27L20 27L20 25L21 25L21 24ZM59 24L59 25L60 25L60 24ZM56 25L56 26L57 26L57 25ZM67 25L67 26L68 26L68 25ZM2 26L2 27L1 27L1 28L2 28L2 27L3 27L3 26ZM46 27L46 28L47 28L47 27ZM23 28L23 29L22 29L22 30L23 30L23 29L24 29L24 28ZM29 28L29 29L30 29L30 28ZM38 28L38 29L40 29L40 28ZM50 28L50 30L49 30L49 29L48 29L48 30L49 30L49 32L50 32L50 35L53 35L53 34L51 34L51 33L54 33L54 32L55 32L55 31L54 31L54 30L52 30L52 29L53 29L53 28ZM65 28L65 29L63 29L63 31L64 31L64 30L65 30L65 29L66 29L66 28ZM20 30L20 31L21 31L21 32L22 32L22 31L21 31L21 30ZM51 30L51 32L53 32L53 31L52 31L52 30ZM43 32L43 33L40 33L40 35L39 35L39 36L40 36L40 35L41 35L41 37L39 37L39 39L38 39L38 38L37 38L37 39L35 39L35 41L34 41L34 42L33 42L33 41L30 41L30 40L27 40L27 41L30 41L30 42L33 42L33 43L34 43L34 44L36 44L36 45L37 45L37 46L36 46L36 47L35 47L35 45L34 45L34 47L33 47L33 46L32 46L32 47L33 47L33 48L36 48L36 47L37 47L37 46L38 46L38 49L37 49L37 50L38 50L38 49L39 49L39 48L40 48L40 47L41 47L41 48L42 48L42 46L43 46L43 45L44 45L44 44L43 44L43 42L44 42L44 40L41 40L41 39L42 39L42 38L43 38L43 39L45 39L45 40L47 40L47 38L45 38L45 37L44 37L44 36L45 36L45 33L44 33L44 32ZM66 32L66 33L65 33L65 35L66 35L66 34L68 34L68 32ZM5 33L5 36L8 36L8 33ZM13 33L13 36L14 36L14 35L15 35L15 34L14 34L14 33ZM21 33L21 34L22 34L22 33ZM28 33L28 34L26 34L26 36L25 36L25 37L26 37L26 38L27 38L27 39L28 39L28 38L27 38L27 37L28 37L28 36L29 36L29 33ZM33 33L33 36L36 36L36 33ZM43 33L43 34L41 34L41 35L43 35L43 36L42 36L42 37L41 37L41 38L42 38L42 37L43 37L43 36L44 36L44 33ZM61 33L61 36L64 36L64 33ZM6 34L6 35L7 35L7 34ZM34 34L34 35L35 35L35 34ZM62 34L62 35L63 35L63 34ZM9 35L9 37L8 37L8 38L9 38L9 39L10 39L10 40L12 40L12 39L10 39L10 35ZM27 35L27 36L26 36L26 37L27 37L27 36L28 36L28 35ZM67 35L67 36L68 36L68 35ZM49 36L49 37L50 37L50 38L49 38L49 40L51 40L51 39L50 39L50 38L51 38L51 37L50 37L50 36ZM29 38L29 39L30 39L30 38ZM31 39L31 40L32 40L32 39ZM37 39L37 41L38 41L38 43L37 43L37 45L38 45L38 46L39 46L39 47L40 47L40 46L39 46L39 45L40 45L40 44L41 44L41 43L40 43L40 41L41 41L41 40L39 40L39 41L38 41L38 39ZM59 39L59 40L60 40L60 39ZM13 40L13 41L14 41L14 40ZM34 42L34 43L36 43L36 42ZM10 43L10 44L11 44L11 43ZM39 43L39 44L40 44L40 43ZM53 43L53 44L54 44L54 43ZM59 44L59 45L60 45L60 44ZM9 45L9 46L11 46L11 47L12 47L12 48L13 48L13 49L14 49L14 51L12 51L12 52L15 52L15 53L13 53L13 59L14 59L14 61L16 61L16 60L15 60L15 59L14 59L14 58L15 58L15 57L16 57L16 56L15 56L15 57L14 57L14 54L15 54L15 55L17 55L17 54L15 54L15 53L16 53L16 52L15 52L15 48L13 48L13 47L12 47L12 46L11 46L11 45ZM41 45L41 46L42 46L42 45ZM6 46L6 47L7 47L7 46ZM55 47L55 48L56 48L56 49L57 49L57 48L58 48L58 47ZM27 49L27 50L28 50L28 49ZM50 49L50 50L49 50L49 51L47 51L47 52L49 52L49 51L51 51L51 49ZM16 50L16 51L17 51L17 50ZM19 50L19 51L20 51L20 50ZM30 50L30 51L31 51L31 52L32 52L32 53L33 53L33 52L32 52L32 50ZM52 50L52 51L55 51L55 50ZM56 50L56 51L57 51L57 50ZM1 51L1 52L3 52L3 51ZM19 52L19 53L20 53L20 54L21 54L21 55L22 55L22 54L21 54L21 53L23 53L23 52ZM37 52L37 53L38 53L38 52ZM50 52L50 54L49 54L49 53L45 53L45 54L46 54L46 56L47 56L47 54L48 54L48 56L49 56L49 55L50 55L50 54L51 54L51 53L53 53L53 52ZM54 52L54 53L55 53L55 52ZM62 52L62 53L61 53L61 54L62 54L62 55L66 55L66 53L65 53L65 52L64 52L64 53L63 53L63 52ZM6 54L6 55L7 55L7 54ZM9 54L9 55L10 55L10 54ZM51 55L51 56L50 56L50 59L51 59L51 60L52 60L52 59L53 59L53 58L54 58L54 56L53 56L53 55ZM67 55L67 56L68 56L68 55ZM6 56L6 57L7 57L7 58L8 58L8 59L9 59L9 57L7 57L7 56ZM29 56L29 57L30 57L30 56ZM38 56L38 57L39 57L39 56ZM52 57L52 58L53 58L53 57ZM3 60L3 61L5 61L5 60ZM41 60L41 62L42 62L42 63L43 63L43 61L42 61L42 60ZM57 60L57 61L59 61L59 60ZM65 60L65 61L67 61L67 62L68 62L68 61L67 61L67 60ZM33 61L33 64L36 64L36 61ZM61 61L61 64L64 64L64 61ZM30 62L30 63L31 63L31 62ZM34 62L34 63L35 63L35 62ZM62 62L62 63L63 63L63 62ZM65 62L65 63L66 63L66 62ZM22 63L22 64L23 64L23 63ZM25 63L25 64L26 64L26 63ZM47 67L47 68L48 68L48 67ZM0 0L0 7L7 7L7 0ZM1 1L1 6L6 6L6 1ZM2 2L2 5L5 5L5 2ZM62 0L62 7L69 7L69 0ZM63 1L63 6L68 6L68 1ZM64 2L64 5L67 5L67 2ZM0 62L0 69L7 69L7 62ZM1 63L1 68L6 68L6 63ZM2 64L2 67L5 67L5 64Z" fill="#000000"/></g></g></svg>
