<?xml version="1.0" encoding="UTF-8"?>
<svg xmlns="http://www.w3.org/2000/svg" version="1.1" width="300" height="300" viewBox="0 0 300 300"><rect x="0" y="0" width="300" height="300" fill="#ffffff"/><g transform="scale(4.348)"><g transform="translate(0,0)"><path fill-rule="evenodd" d="M8 0L8 4L11 4L11 5L12 5L12 7L11 7L11 6L10 6L10 5L8 5L8 7L9 7L9 9L10 9L10 10L8 10L8 9L7 9L7 8L4 8L4 9L5 9L5 16L4 16L4 15L3 15L3 16L1 16L1 18L0 18L0 19L1 19L1 23L0 23L0 27L1 27L1 29L3 29L3 30L4 30L4 29L3 29L3 28L2 28L2 27L1 27L1 25L3 25L3 27L4 27L4 25L3 25L3 23L4 23L4 24L6 24L6 25L9 25L9 26L8 26L8 27L7 27L7 26L5 26L5 27L7 27L7 28L5 28L5 29L8 29L8 30L9 30L9 28L10 28L10 29L11 29L11 27L12 27L12 28L14 28L14 29L15 29L15 31L14 31L14 30L11 30L11 32L12 32L12 34L11 34L11 33L9 33L9 32L10 32L10 31L9 31L9 32L6 32L6 31L7 31L7 30L5 30L5 31L4 31L4 33L2 33L2 31L1 31L1 30L0 30L0 32L1 32L1 33L0 33L0 34L1 34L1 35L2 35L2 37L3 37L3 38L2 38L2 39L4 39L4 40L2 40L2 41L1 41L1 36L0 36L0 43L1 43L1 42L2 42L2 43L3 43L3 44L4 44L4 46L5 46L5 47L2 47L2 48L1 48L1 46L2 46L2 44L0 44L0 48L1 48L1 50L0 50L0 52L1 52L1 50L2 50L2 51L4 51L4 53L5 53L5 54L6 54L6 55L7 55L7 54L6 54L6 53L7 53L7 52L6 52L6 53L5 53L5 51L8 51L8 50L10 50L10 54L9 54L9 55L8 55L8 56L5 56L5 55L3 55L3 52L2 52L2 57L1 57L1 55L0 55L0 57L1 57L1 58L0 58L0 61L1 61L1 58L2 58L2 59L3 59L3 57L4 57L4 59L7 59L7 58L5 58L5 57L8 57L8 58L9 58L9 59L11 59L11 58L12 58L12 60L9 60L9 61L8 61L8 62L9 62L9 63L8 63L8 65L9 65L9 63L10 63L10 64L12 64L12 63L13 63L13 64L14 64L14 65L12 65L12 66L9 66L9 67L8 67L8 69L10 69L10 67L11 67L11 68L12 68L12 69L15 69L15 68L14 68L14 67L16 67L16 69L20 69L20 68L18 68L18 67L17 67L17 66L19 66L19 67L20 67L20 66L22 66L22 64L25 64L25 63L26 63L26 64L29 64L29 65L23 65L23 68L24 68L24 66L27 66L27 67L26 67L26 69L27 69L27 67L28 67L28 66L29 66L29 69L31 69L31 68L32 68L32 69L33 69L33 68L32 68L32 67L33 67L33 66L32 66L32 65L35 65L35 67L34 67L34 68L35 68L35 67L36 67L36 65L37 65L37 67L39 67L39 66L40 66L40 63L41 63L41 67L40 67L40 68L38 68L38 69L40 69L40 68L41 68L41 69L42 69L42 68L43 68L43 63L44 63L44 69L46 69L46 67L45 67L45 63L44 63L44 62L43 62L43 61L42 61L42 58L45 58L45 59L47 59L47 62L46 62L46 61L45 61L45 60L44 60L44 59L43 59L43 60L44 60L44 61L45 61L45 62L46 62L46 64L47 64L47 67L48 67L48 69L52 69L52 68L53 68L53 69L54 69L54 67L51 67L51 68L49 68L49 67L50 67L50 66L52 66L52 64L53 64L53 66L55 66L55 67L56 67L56 69L57 69L57 68L59 68L59 67L57 67L57 65L59 65L59 66L61 66L61 68L62 68L62 69L63 69L63 68L64 68L64 67L65 67L65 66L69 66L69 64L68 64L68 62L69 62L69 59L68 59L68 58L69 58L69 57L68 57L68 55L67 55L67 53L69 53L69 52L68 52L68 50L67 50L67 49L65 49L65 47L66 47L66 46L67 46L67 47L68 47L68 49L69 49L69 47L68 47L68 46L69 46L69 45L67 45L67 44L68 44L68 42L69 42L69 40L66 40L66 41L68 41L68 42L67 42L67 44L66 44L66 46L64 46L64 45L65 45L65 43L66 43L66 42L64 42L64 43L63 43L63 44L61 44L61 43L62 43L62 42L61 42L61 41L65 41L65 40L64 40L64 39L68 39L68 38L69 38L69 35L68 35L68 30L65 30L65 31L67 31L67 33L66 33L66 32L63 32L63 31L61 31L61 32L59 32L59 31L60 31L60 30L61 30L61 29L62 29L62 30L64 30L64 29L62 29L62 28L63 28L63 27L67 27L67 28L68 28L68 29L69 29L69 27L68 27L68 26L69 26L69 25L68 25L68 26L64 26L64 23L65 23L65 22L67 22L67 24L66 24L66 25L67 25L67 24L68 24L68 22L69 22L69 20L68 20L68 18L67 18L67 20L65 20L65 17L64 17L64 16L65 16L65 15L64 15L64 12L63 12L63 9L64 9L64 10L65 10L65 11L66 11L66 10L67 10L67 11L68 11L68 14L67 14L67 15L68 15L68 17L69 17L69 15L68 15L68 14L69 14L69 11L68 11L68 10L67 10L67 9L69 9L69 8L65 8L65 9L64 9L64 8L63 8L63 9L62 9L62 11L60 11L60 10L61 10L61 9L60 9L60 8L61 8L61 6L60 6L60 7L59 7L59 4L57 4L57 5L55 5L55 4L56 4L56 2L55 2L55 0L53 0L53 1L52 1L52 4L51 4L51 3L50 3L50 1L51 1L51 0L50 0L50 1L48 1L48 2L47 2L47 1L44 1L44 0L41 0L41 1L40 1L40 0L38 0L38 1L40 1L40 2L39 2L39 3L40 3L40 4L41 4L41 5L39 5L39 4L38 4L38 3L37 3L37 4L35 4L35 2L34 2L34 0L32 0L32 1L30 1L30 0L23 0L23 1L24 1L24 2L25 2L25 3L19 3L19 4L18 4L18 7L19 7L19 8L18 8L18 9L17 9L17 10L16 10L16 12L15 12L15 13L14 13L14 11L15 11L15 9L16 9L16 7L17 7L17 6L16 6L16 7L15 7L15 5L16 5L16 3L18 3L18 2L19 2L19 1L20 1L20 2L22 2L22 0L17 0L17 1L16 1L16 0L14 0L14 1L13 1L13 0L12 0L12 1L11 1L11 0ZM35 0L35 1L36 1L36 2L37 2L37 1L36 1L36 0ZM56 0L56 1L57 1L57 3L59 3L59 2L58 2L58 1L61 1L61 0L58 0L58 1L57 1L57 0ZM9 1L9 2L10 2L10 3L11 3L11 4L12 4L12 3L13 3L13 5L15 5L15 4L14 4L14 3L16 3L16 2L14 2L14 3L13 3L13 2L10 2L10 1ZM17 1L17 2L18 2L18 1ZM27 1L27 2L26 2L26 4L25 4L25 5L19 5L19 7L20 7L20 8L19 8L19 9L18 9L18 12L19 12L19 13L26 13L26 14L24 14L24 15L22 15L22 17L19 17L19 16L21 16L21 15L19 15L19 16L18 16L18 17L17 17L17 16L16 16L16 15L18 15L18 14L16 14L16 13L17 13L17 12L16 12L16 13L15 13L15 14L16 14L16 15L15 15L15 16L10 16L10 14L11 14L11 13L12 13L12 14L13 14L13 13L12 13L12 12L11 12L11 11L12 11L12 8L13 8L13 7L14 7L14 6L13 6L13 7L12 7L12 8L11 8L11 10L10 10L10 13L9 13L9 15L6 15L6 16L7 16L7 17L5 17L5 18L4 18L4 16L3 16L3 17L2 17L2 18L1 18L1 19L2 19L2 18L4 18L4 20L2 20L2 21L4 21L4 22L5 22L5 23L6 23L6 24L8 24L8 23L9 23L9 22L10 22L10 20L11 20L11 21L12 21L12 20L13 20L13 21L14 21L14 20L13 20L13 19L12 19L12 20L11 20L11 19L9 19L9 18L10 18L10 17L11 17L11 18L12 18L12 17L14 17L14 18L15 18L15 20L17 20L17 19L18 19L18 17L19 17L19 19L20 19L20 18L21 18L21 19L22 19L22 18L23 18L23 19L25 19L25 21L26 21L26 22L24 22L24 23L23 23L23 20L22 20L22 22L21 22L21 23L22 23L22 24L25 24L25 26L24 26L24 25L21 25L21 24L20 24L20 21L21 21L21 20L20 20L20 21L18 21L18 23L16 23L16 22L14 22L14 24L15 24L15 25L17 25L17 26L16 26L16 27L15 27L15 26L14 26L14 25L11 25L11 24L13 24L13 22L12 22L12 23L10 23L10 24L9 24L9 25L11 25L11 26L10 26L10 27L11 27L11 26L14 26L14 28L15 28L15 29L16 29L16 31L17 31L17 33L15 33L15 32L13 32L13 33L14 33L14 34L12 34L12 35L11 35L11 34L10 34L10 35L11 35L11 39L10 39L10 38L9 38L9 39L8 39L8 40L7 40L7 39L6 39L6 38L7 38L7 37L6 37L6 38L5 38L5 37L4 37L4 39L5 39L5 40L4 40L4 41L3 41L3 43L5 43L5 44L7 44L7 43L6 43L6 42L10 42L10 43L11 43L11 42L12 42L12 41L14 41L14 42L15 42L15 43L16 43L16 42L18 42L18 41L17 41L17 39L18 39L18 38L19 38L19 44L20 44L20 37L21 37L21 36L22 36L22 38L23 38L23 36L22 36L22 35L25 35L25 37L26 37L26 36L27 36L27 37L28 37L28 38L29 38L29 39L27 39L27 38L26 38L26 40L25 40L25 38L24 38L24 40L22 40L22 39L21 39L21 41L22 41L22 42L23 42L23 41L24 41L24 42L25 42L25 41L26 41L26 40L27 40L27 41L28 41L28 42L30 42L30 41L31 41L31 44L32 44L32 45L33 45L33 44L32 44L32 41L37 41L37 43L36 43L36 42L35 42L35 43L34 43L34 50L35 50L35 49L36 49L36 51L35 51L35 52L34 52L34 51L33 51L33 49L31 49L31 51L29 51L29 52L31 52L31 51L33 51L33 53L32 53L32 54L31 54L31 53L30 53L30 55L29 55L29 53L28 53L28 52L27 52L27 53L28 53L28 55L26 55L26 51L24 51L24 53L25 53L25 54L24 54L24 55L23 55L23 51L22 51L22 50L21 50L21 49L25 49L25 50L26 50L26 49L25 49L25 48L23 48L23 47L24 47L24 46L23 46L23 45L24 45L24 43L23 43L23 44L22 44L22 43L21 43L21 44L22 44L22 45L21 45L21 46L23 46L23 47L21 47L21 49L19 49L19 48L20 48L20 45L15 45L15 44L14 44L14 43L13 43L13 44L14 44L14 46L13 46L13 47L16 47L16 48L14 48L14 49L13 49L13 48L11 48L11 46L10 46L10 45L12 45L12 44L10 44L10 45L9 45L9 47L8 47L8 48L7 48L7 47L5 47L5 49L6 49L6 50L7 50L7 49L9 49L9 47L10 47L10 48L11 48L11 49L10 49L10 50L11 50L11 49L13 49L13 50L12 50L12 51L11 51L11 53L12 53L12 54L13 54L13 55L12 55L12 56L11 56L11 55L9 55L9 56L8 56L8 57L9 57L9 58L10 58L10 57L9 57L9 56L11 56L11 57L12 57L12 56L13 56L13 55L14 55L14 54L15 54L15 53L16 53L16 54L18 54L18 53L17 53L17 51L18 51L18 52L19 52L19 54L20 54L20 55L19 55L19 57L17 57L17 55L16 55L16 56L15 56L15 57L13 57L13 59L15 59L15 60L13 60L13 61L15 61L15 60L16 60L16 63L17 63L17 65L16 65L16 66L17 66L17 65L18 65L18 64L19 64L19 65L20 65L20 64L22 64L22 63L20 63L20 61L18 61L18 59L19 59L19 60L20 60L20 59L21 59L21 61L26 61L26 62L28 62L28 63L29 63L29 62L30 62L30 63L32 63L32 62L31 62L31 61L26 61L26 60L27 60L27 57L25 57L25 58L24 58L24 57L21 57L21 56L20 56L20 55L22 55L22 56L24 56L24 55L26 55L26 56L28 56L28 60L32 60L32 58L33 58L33 59L34 59L34 60L38 60L38 61L37 61L37 63L38 63L38 64L37 64L37 65L38 65L38 64L39 64L39 63L40 63L40 62L41 62L41 60L39 60L39 58L40 58L40 59L41 59L41 58L40 58L40 57L41 57L41 56L42 56L42 57L44 57L44 54L45 54L45 53L46 53L46 54L47 54L47 57L46 57L46 58L49 58L49 57L50 57L50 55L49 55L49 54L50 54L50 53L49 53L49 54L48 54L48 53L46 53L46 52L50 52L50 49L47 49L47 48L45 48L45 46L44 46L44 44L45 44L45 45L46 45L46 47L47 47L47 44L48 44L48 43L49 43L49 42L50 42L50 44L52 44L52 49L51 49L51 50L52 50L52 49L56 49L56 48L57 48L57 47L56 47L56 48L54 48L54 47L55 47L55 46L57 46L57 45L56 45L56 44L58 44L58 42L59 42L59 41L60 41L60 40L58 40L58 42L57 42L57 43L55 43L55 42L56 42L56 38L55 38L55 42L52 42L52 41L53 41L53 40L54 40L54 39L52 39L52 38L50 38L50 37L49 37L49 39L48 39L48 40L49 40L49 42L48 42L48 41L47 41L47 37L46 37L46 34L47 34L47 36L49 36L49 35L50 35L50 36L51 36L51 35L50 35L50 33L51 33L51 34L52 34L52 35L53 35L53 34L52 34L52 33L55 33L55 30L56 30L56 31L57 31L57 33L56 33L56 36L52 36L52 37L56 37L56 36L57 36L57 35L58 35L58 38L57 38L57 39L58 39L58 38L61 38L61 39L64 39L64 38L65 38L65 37L66 37L66 38L67 38L67 37L68 37L68 35L66 35L66 34L65 34L65 37L63 37L63 38L62 38L62 37L60 37L60 36L59 36L59 32L58 32L58 30L59 30L59 29L60 29L60 28L62 28L62 27L63 27L63 26L62 26L62 25L61 25L61 23L62 23L62 24L63 24L63 23L62 23L62 21L63 21L63 22L64 22L64 21L65 21L65 20L64 20L64 21L63 21L63 19L64 19L64 17L63 17L63 19L62 19L62 13L63 13L63 12L62 12L62 13L61 13L61 12L60 12L60 13L59 13L59 12L58 12L58 11L57 11L57 10L56 10L56 8L55 8L55 7L56 7L56 6L55 6L55 7L54 7L54 5L53 5L53 4L55 4L55 3L54 3L54 2L53 2L53 4L52 4L52 5L50 5L50 3L47 3L47 4L46 4L46 5L44 5L44 4L45 4L45 3L46 3L46 2L45 2L45 3L44 3L44 2L43 2L43 3L42 3L42 4L43 4L43 5L44 5L44 6L43 6L43 8L40 8L40 9L43 9L43 11L45 11L45 12L47 12L47 11L46 11L46 10L47 10L47 8L50 8L50 9L49 9L49 12L50 12L50 13L49 13L49 18L48 18L48 15L47 15L47 16L46 16L46 18L47 18L47 20L48 20L48 19L49 19L49 20L50 20L50 19L49 19L49 18L50 18L50 16L52 16L52 18L53 18L53 17L54 17L54 16L55 16L55 17L56 17L56 18L54 18L54 19L51 19L51 21L52 21L52 22L50 22L50 21L48 21L48 22L47 22L47 21L46 21L46 22L47 22L47 25L46 25L46 26L47 26L47 27L46 27L46 28L45 28L45 29L44 29L44 28L43 28L43 26L41 26L41 25L42 25L42 24L43 24L43 25L44 25L44 24L45 24L45 23L44 23L44 20L46 20L46 19L44 19L44 18L41 18L41 17L42 17L42 16L40 16L40 19L41 19L41 20L40 20L40 21L39 21L39 20L38 20L38 21L37 21L37 18L38 18L38 19L39 19L39 18L38 18L38 17L39 17L39 16L38 16L38 13L37 13L37 12L36 12L36 13L33 13L33 14L32 14L32 16L31 16L31 17L32 17L32 18L29 18L29 16L28 16L28 15L29 15L29 14L31 14L31 13L32 13L32 12L34 12L34 11L36 11L36 9L34 9L34 10L32 10L32 8L30 8L30 9L28 9L28 8L29 8L29 7L30 7L30 6L31 6L31 7L32 7L32 6L31 6L31 5L32 5L32 4L34 4L34 2L33 2L33 3L32 3L32 4L31 4L31 2L30 2L30 3L29 3L29 2L28 2L28 1ZM41 1L41 2L40 2L40 3L41 3L41 2L42 2L42 1ZM27 3L27 4L26 4L26 5L25 5L25 6L24 6L24 7L25 7L25 6L26 6L26 11L27 11L27 12L26 12L26 13L27 13L27 14L28 14L28 13L31 13L31 12L28 12L28 11L29 11L29 10L28 10L28 9L27 9L27 8L28 8L28 7L29 7L29 6L30 6L30 5L28 5L28 3ZM43 3L43 4L44 4L44 3ZM60 3L60 5L61 5L61 3ZM48 4L48 7L49 7L49 6L50 6L50 8L51 8L51 9L50 9L50 10L51 10L51 11L50 11L50 12L51 12L51 13L50 13L50 15L54 15L54 14L56 14L56 15L58 15L58 16L60 16L60 17L59 17L59 18L58 18L58 17L57 17L57 16L56 16L56 17L57 17L57 18L58 18L58 19L54 19L54 20L55 20L55 21L53 21L53 22L54 22L54 23L55 23L55 24L56 24L56 25L53 25L53 26L52 26L52 24L53 24L53 23L52 23L52 24L51 24L51 25L50 25L50 22L49 22L49 23L48 23L48 25L47 25L47 26L49 26L49 27L47 27L47 28L46 28L46 29L45 29L45 31L44 31L44 30L43 30L43 28L42 28L42 27L40 27L40 24L41 24L41 23L43 23L43 21L41 21L41 22L40 22L40 24L38 24L38 23L37 23L37 24L36 24L36 25L35 25L35 22L37 22L37 21L36 21L36 19L34 19L34 18L32 18L32 19L30 19L30 21L29 21L29 18L28 18L28 19L27 19L27 17L28 17L28 16L26 16L26 15L25 15L25 17L24 17L24 16L23 16L23 17L24 17L24 18L25 18L25 17L26 17L26 19L27 19L27 20L26 20L26 21L27 21L27 22L26 22L26 27L25 27L25 28L24 28L24 27L22 27L22 26L21 26L21 25L19 25L19 24L17 24L17 25L18 25L18 26L17 26L17 29L20 29L20 30L22 30L22 31L21 31L21 32L20 32L20 31L19 31L19 32L18 32L18 33L17 33L17 35L16 35L16 34L14 34L14 36L12 36L12 38L13 38L13 39L14 39L14 40L15 40L15 41L16 41L16 39L17 39L17 38L16 38L16 36L17 36L17 37L20 37L20 36L18 36L18 34L19 34L19 35L20 35L20 34L21 34L21 35L22 35L22 34L23 34L23 33L24 33L24 34L26 34L26 35L28 35L28 34L29 34L29 35L30 35L30 36L29 36L29 38L30 38L30 39L29 39L29 40L28 40L28 41L30 41L30 40L32 40L32 39L33 39L33 37L35 37L35 38L34 38L34 40L35 40L35 39L37 39L37 40L38 40L38 42L43 42L43 39L45 39L45 40L44 40L44 43L43 43L43 44L41 44L41 43L38 43L38 44L36 44L36 45L35 45L35 47L36 47L36 48L38 48L38 50L39 50L39 51L37 51L37 53L36 53L36 52L35 52L35 53L36 53L36 54L37 54L37 53L38 53L38 52L39 52L39 53L40 53L40 52L39 52L39 51L40 51L40 48L41 48L41 47L38 47L38 46L39 46L39 45L40 45L40 46L41 46L41 45L42 45L42 49L41 49L41 51L42 51L42 50L43 50L43 51L44 51L44 53L41 53L41 54L40 54L40 55L37 55L37 56L35 56L35 54L34 54L34 53L33 53L33 55L31 55L31 56L30 56L30 57L29 57L29 58L32 58L32 57L33 57L33 58L34 58L34 59L35 59L35 58L36 58L36 59L37 59L37 58L36 58L36 57L38 57L38 58L39 58L39 57L40 57L40 55L42 55L42 54L44 54L44 53L45 53L45 50L46 50L46 51L48 51L48 50L46 50L46 49L45 49L45 48L44 48L44 46L43 46L43 44L44 44L44 43L45 43L45 42L46 42L46 37L45 37L45 34L46 34L46 33L47 33L47 34L48 34L48 33L50 33L50 32L51 32L51 33L52 33L52 32L54 32L54 31L53 31L53 30L55 30L55 28L53 28L53 29L52 29L52 30L51 30L51 29L50 29L50 28L51 28L51 27L57 27L57 25L59 25L59 26L60 26L60 27L62 27L62 26L61 26L61 25L60 25L60 23L61 23L61 21L60 21L60 20L59 20L59 19L60 19L60 18L61 18L61 15L59 15L59 14L58 14L58 12L57 12L57 11L56 11L56 13L53 13L53 14L52 14L52 12L55 12L55 11L53 11L53 10L55 10L55 9L53 9L53 10L52 10L52 7L53 7L53 8L54 8L54 7L53 7L53 6L52 6L52 7L51 7L51 6L50 6L50 5L49 5L49 4ZM26 5L26 6L27 6L27 7L28 7L28 5ZM33 5L33 8L36 8L36 5ZM37 5L37 7L38 7L38 8L37 8L37 11L38 11L38 12L39 12L39 11L38 11L38 8L39 8L39 7L40 7L40 6L39 6L39 7L38 7L38 5ZM41 5L41 7L42 7L42 5ZM9 6L9 7L10 7L10 6ZM20 6L20 7L21 7L21 6ZM22 6L22 8L23 8L23 6ZM34 6L34 7L35 7L35 6ZM44 6L44 7L45 7L45 8L44 8L44 9L45 9L45 10L46 10L46 9L45 9L45 8L47 8L47 6L46 6L46 7L45 7L45 6ZM57 6L57 9L58 9L58 10L60 10L60 9L58 9L58 8L59 8L59 7L58 7L58 6ZM0 8L0 9L1 9L1 10L0 10L0 11L1 11L1 12L0 12L0 15L2 15L2 13L3 13L3 12L4 12L4 10L3 10L3 9L2 9L2 8ZM14 8L14 9L15 9L15 8ZM20 8L20 10L19 10L19 12L20 12L20 10L22 10L22 9L21 9L21 8ZM24 8L24 9L23 9L23 11L22 11L22 12L23 12L23 11L24 11L24 12L25 12L25 10L24 10L24 9L25 9L25 8ZM6 9L6 10L7 10L7 11L6 11L6 12L7 12L7 13L6 13L6 14L7 14L7 13L8 13L8 12L7 12L7 11L8 11L8 10L7 10L7 9ZM30 9L30 10L31 10L31 11L32 11L32 10L31 10L31 9ZM41 10L41 14L40 14L40 13L39 13L39 15L42 15L42 13L44 13L44 12L42 12L42 10ZM51 11L51 12L52 12L52 11ZM27 12L27 13L28 13L28 12ZM65 12L65 13L67 13L67 12ZM46 13L46 14L43 14L43 17L44 17L44 15L46 15L46 14L47 14L47 13ZM56 13L56 14L57 14L57 13ZM60 13L60 14L61 14L61 13ZM34 14L34 15L33 15L33 16L32 16L32 17L34 17L34 16L37 16L37 17L38 17L38 16L37 16L37 15L35 15L35 14ZM66 16L66 17L67 17L67 16ZM7 17L7 18L6 18L6 19L7 19L7 20L5 20L5 22L6 22L6 23L8 23L8 22L6 22L6 21L8 21L8 20L9 20L9 19L8 19L8 17ZM15 17L15 18L16 18L16 19L17 19L17 17ZM35 17L35 18L36 18L36 17ZM32 19L32 20L33 20L33 21L34 21L34 22L32 22L32 24L31 24L31 21L30 21L30 23L28 23L28 22L29 22L29 21L28 21L28 22L27 22L27 25L28 25L28 28L27 28L27 27L26 27L26 28L25 28L25 29L26 29L26 28L27 28L27 29L28 29L28 30L27 30L27 31L28 31L28 32L26 32L26 31L25 31L25 30L23 30L23 31L22 31L22 33L21 33L21 34L22 34L22 33L23 33L23 32L24 32L24 33L29 33L29 32L31 32L31 34L30 34L30 35L32 35L32 32L38 32L38 33L37 33L37 37L36 37L36 38L37 38L37 37L38 37L38 36L40 36L40 41L41 41L41 37L43 37L43 38L42 38L42 39L43 39L43 38L45 38L45 37L44 37L44 34L45 34L45 33L46 33L46 32L45 32L45 33L44 33L44 31L40 31L40 33L44 33L44 34L43 34L43 36L41 36L41 34L39 34L39 35L38 35L38 33L39 33L39 32L38 32L38 28L37 28L37 27L38 27L38 25L37 25L37 26L36 26L36 27L35 27L35 25L34 25L34 26L31 26L31 27L30 27L30 26L29 26L29 25L30 25L30 24L31 24L31 25L32 25L32 24L33 24L33 23L34 23L34 22L35 22L35 20L34 20L34 19ZM42 19L42 20L43 20L43 19ZM67 20L67 22L68 22L68 20ZM56 21L56 22L55 22L55 23L56 23L56 24L58 24L58 23L59 23L59 21L58 21L58 22L57 22L57 21ZM2 22L2 23L1 23L1 24L2 24L2 23L3 23L3 22ZM56 22L56 23L57 23L57 22ZM15 23L15 24L16 24L16 23ZM28 24L28 25L29 25L29 24ZM49 25L49 26L50 26L50 25ZM19 26L19 28L20 28L20 29L24 29L24 28L20 28L20 26ZM31 27L31 28L29 28L29 29L32 29L32 28L33 28L33 31L34 31L34 30L35 30L35 29L34 29L34 28L35 28L35 27L34 27L34 28L33 28L33 27ZM39 27L39 29L40 29L40 30L42 30L42 28L40 28L40 27ZM49 27L49 28L50 28L50 27ZM36 28L36 29L37 29L37 28ZM56 28L56 29L57 29L57 30L58 30L58 29L59 29L59 28ZM46 29L46 30L47 30L47 32L50 32L50 29L48 29L48 30L47 30L47 29ZM17 30L17 31L18 31L18 30ZM28 30L28 31L31 31L31 32L32 32L32 30ZM24 31L24 32L25 32L25 31ZM51 31L51 32L52 32L52 31ZM19 32L19 33L20 33L20 32ZM1 33L1 34L2 34L2 35L4 35L4 34L2 34L2 33ZM5 33L5 36L8 36L8 33ZM33 33L33 36L36 36L36 33ZM61 33L61 36L64 36L64 33ZM6 34L6 35L7 35L7 34ZM34 34L34 35L35 35L35 34ZM54 34L54 35L55 35L55 34ZM62 34L62 35L63 35L63 34ZM15 35L15 36L16 36L16 35ZM31 36L31 39L32 39L32 36ZM66 36L66 37L67 37L67 36ZM13 37L13 38L14 38L14 39L16 39L16 38L15 38L15 37ZM38 38L38 39L39 39L39 38ZM50 39L50 42L51 42L51 43L52 43L52 44L55 44L55 43L52 43L52 42L51 42L51 39ZM6 40L6 41L4 41L4 42L6 42L6 41L7 41L7 40ZM10 40L10 41L11 41L11 40ZM24 40L24 41L25 41L25 40ZM47 42L47 43L46 43L46 44L47 44L47 43L48 43L48 42ZM8 43L8 44L9 44L9 43ZM27 43L27 44L28 44L28 43ZM29 43L29 45L27 45L27 46L25 46L25 47L26 47L26 48L27 48L27 46L29 46L29 48L28 48L28 49L27 49L27 51L28 51L28 50L29 50L29 48L30 48L30 47L31 47L31 48L33 48L33 47L32 47L32 46L31 46L31 45L30 45L30 43ZM25 44L25 45L26 45L26 44ZM59 44L59 45L58 45L58 46L59 46L59 47L61 47L61 46L62 46L62 49L61 49L61 50L62 50L62 51L63 51L63 53L64 53L64 54L62 54L62 52L61 52L61 51L60 51L60 50L59 50L59 49L60 49L60 48L59 48L59 49L58 49L58 52L57 52L57 54L56 54L56 55L55 55L55 56L52 56L52 55L54 55L54 53L56 53L56 52L55 52L55 50L54 50L54 53L53 53L53 52L52 52L52 53L51 53L51 56L52 56L52 57L51 57L51 59L52 59L52 61L51 61L51 62L50 62L50 61L49 61L49 63L48 63L48 64L50 64L50 65L48 65L48 67L49 67L49 66L50 66L50 65L51 65L51 64L52 64L52 63L53 63L53 64L54 64L54 63L56 63L56 64L55 64L55 66L56 66L56 64L57 64L57 63L58 63L58 64L59 64L59 65L60 65L60 63L59 63L59 61L60 61L60 60L59 60L59 59L61 59L61 60L62 60L62 59L63 59L63 57L62 57L62 56L63 56L63 55L64 55L64 60L66 60L66 61L67 61L67 62L66 62L66 63L65 63L65 65L64 65L64 66L63 66L63 67L62 67L62 68L63 68L63 67L64 67L64 66L65 66L65 65L68 65L68 64L67 64L67 62L68 62L68 59L65 59L65 56L67 56L67 55L64 55L64 54L65 54L65 52L64 52L64 50L65 50L65 49L64 49L64 47L63 47L63 45L64 45L64 44L63 44L63 45L61 45L61 44ZM6 45L6 46L7 46L7 45ZM29 45L29 46L30 46L30 45ZM37 45L37 46L36 46L36 47L37 47L37 46L38 46L38 45ZM49 45L49 47L48 47L48 48L49 48L49 47L50 47L50 48L51 48L51 47L50 47L50 45ZM53 45L53 46L55 46L55 45ZM59 45L59 46L60 46L60 45ZM16 46L16 47L17 47L17 49L18 49L18 50L19 50L19 49L18 49L18 48L19 48L19 46L18 46L18 47L17 47L17 46ZM6 48L6 49L7 49L7 48ZM43 48L43 49L44 49L44 50L45 50L45 49L44 49L44 48ZM3 49L3 50L4 50L4 51L5 51L5 50L4 50L4 49ZM14 49L14 50L13 50L13 52L14 52L14 53L13 53L13 54L14 54L14 53L15 53L15 52L16 52L16 49ZM62 49L62 50L64 50L64 49ZM14 50L14 51L15 51L15 50ZM20 50L20 51L19 51L19 52L20 52L20 54L21 54L21 53L22 53L22 52L21 52L21 50ZM56 50L56 51L57 51L57 50ZM66 51L66 53L67 53L67 51ZM58 52L58 53L59 53L59 52ZM0 53L0 54L1 54L1 53ZM52 53L52 54L53 54L53 53ZM59 54L59 55L57 55L57 56L56 56L56 57L53 57L53 58L52 58L52 59L53 59L53 60L54 60L54 61L52 61L52 62L53 62L53 63L54 63L54 62L56 62L56 61L58 61L58 60L56 60L56 61L55 61L55 59L54 59L54 58L57 58L57 59L59 59L59 58L58 58L58 57L57 57L57 56L60 56L60 57L61 57L61 55L62 55L62 54ZM48 55L48 57L49 57L49 55ZM4 56L4 57L5 57L5 56ZM34 56L34 58L35 58L35 56ZM38 56L38 57L39 57L39 56ZM15 57L15 59L16 59L16 58L17 58L17 59L18 59L18 58L17 58L17 57ZM20 57L20 58L19 58L19 59L20 59L20 58L21 58L21 57ZM66 57L66 58L67 58L67 57ZM25 58L25 59L26 59L26 58ZM61 58L61 59L62 59L62 58ZM22 59L22 60L24 60L24 59ZM3 60L3 61L5 61L5 60ZM6 60L6 61L7 61L7 60ZM9 61L9 62L10 62L10 63L11 63L11 62L12 62L12 61L11 61L11 62L10 62L10 61ZM17 61L17 63L18 63L18 61ZM33 61L33 64L36 64L36 61ZM38 61L38 62L39 62L39 61ZM61 61L61 64L64 64L64 61ZM13 62L13 63L14 63L14 64L15 64L15 62ZM24 62L24 63L25 63L25 62ZM34 62L34 63L35 63L35 62ZM42 62L42 63L43 63L43 62ZM62 62L62 63L63 63L63 62ZM50 63L50 64L51 64L51 63ZM31 64L31 65L32 65L32 64ZM61 65L61 66L62 66L62 65ZM12 66L12 67L14 67L14 66ZM21 67L21 69L22 69L22 67ZM41 67L41 68L42 68L42 67ZM36 68L36 69L37 69L37 68ZM68 68L68 69L69 69L69 68ZM0 0L0 7L7 7L7 0ZM1 1L1 6L6 6L6 1ZM2 2L2 5L5 5L5 2ZM62 0L62 7L69 7L69 0ZM63 1L63 6L68 6L68 1ZM64 2L64 5L67 5L67 2ZM0 62L0 69L7 69L7 62ZM1 63L1 68L6 68L6 63ZM2 64L2 67L5 67L5 64Z" fill="#000000"/></g></g></svg>
