<?xml version="1.0" encoding="UTF-8"?>
<svg xmlns="http://www.w3.org/2000/svg" version="1.1" width="300" height="300" viewBox="0 0 300 300"><rect x="0" y="0" width="300" height="300" fill="#ffffff"/><g transform="scale(4.348)"><g transform="translate(0,0)"><path fill-rule="evenodd" d="M8 0L8 4L10 4L10 5L11 5L11 4L12 4L12 8L13 8L13 11L14 11L14 10L15 10L15 9L18 9L18 10L17 10L17 11L16 11L16 12L11 12L11 11L10 11L10 12L9 12L9 13L7 13L7 12L6 12L6 11L8 11L8 10L9 10L9 9L11 9L11 10L12 10L12 9L11 9L11 8L10 8L10 7L11 7L11 6L10 6L10 7L9 7L9 5L8 5L8 7L9 7L9 9L8 9L8 10L6 10L6 9L7 9L7 8L4 8L4 10L2 10L2 8L0 8L0 10L1 10L1 11L0 11L0 13L1 13L1 14L0 14L0 18L1 18L1 20L0 20L0 21L2 21L2 18L1 18L1 14L2 14L2 13L3 13L3 11L5 11L5 12L4 12L4 13L5 13L5 12L6 12L6 13L7 13L7 14L5 14L5 15L4 15L4 17L3 17L3 22L0 22L0 23L1 23L1 25L4 25L4 26L3 26L3 27L5 27L5 25L4 25L4 24L2 24L2 23L3 23L3 22L4 22L4 23L5 23L5 24L6 24L6 25L7 25L7 26L6 26L6 27L7 27L7 28L5 28L5 29L4 29L4 28L2 28L2 27L1 27L1 26L0 26L0 31L2 31L2 33L1 33L1 32L0 32L0 36L2 36L2 37L0 37L0 43L2 43L2 42L3 42L3 41L8 41L8 42L5 42L5 43L8 43L8 44L5 44L5 45L8 45L8 47L7 47L7 46L6 46L6 47L5 47L5 46L4 46L4 43L3 43L3 45L2 45L2 44L1 44L1 45L0 45L0 47L1 47L1 48L0 48L0 49L1 49L1 50L0 50L0 51L1 51L1 53L0 53L0 54L1 54L1 53L2 53L2 54L3 54L3 53L5 53L5 54L4 54L4 55L2 55L2 59L3 59L3 57L4 57L4 59L7 59L7 60L6 60L6 61L7 61L7 60L8 60L8 62L9 62L9 63L8 63L8 65L9 65L9 64L12 64L12 63L11 63L11 62L12 62L12 61L13 61L13 62L14 62L14 63L15 63L15 65L14 65L14 67L13 67L13 66L12 66L12 65L10 65L10 67L8 67L8 69L9 69L9 68L10 68L10 69L11 69L11 68L12 68L12 69L15 69L15 68L14 68L14 67L16 67L16 64L17 64L17 63L18 63L18 61L19 61L19 60L18 60L18 61L17 61L17 63L15 63L15 62L16 62L16 60L14 60L14 59L16 59L16 58L17 58L17 57L18 57L18 58L19 58L19 59L20 59L20 58L21 58L21 60L20 60L20 62L19 62L19 64L18 64L18 65L17 65L17 67L18 67L18 66L19 66L19 67L20 67L20 66L21 66L21 65L22 65L22 66L23 66L23 69L24 69L24 68L25 68L25 69L27 69L27 67L28 67L28 66L30 66L30 65L31 65L31 67L30 67L30 68L29 68L29 69L31 69L31 68L32 68L32 69L33 69L33 68L34 68L34 69L35 69L35 68L34 68L34 67L33 67L33 66L32 66L32 65L36 65L36 66L35 66L35 67L36 67L36 66L37 66L37 67L39 67L39 66L40 66L40 63L41 63L41 67L40 67L40 68L38 68L38 69L40 69L40 68L42 68L42 67L43 67L43 63L42 63L42 62L43 62L43 61L42 61L42 58L45 58L45 59L46 59L46 60L44 60L44 69L46 69L46 67L45 67L45 62L46 62L46 60L47 60L47 63L46 63L46 64L47 64L47 65L49 65L49 64L48 64L48 63L49 63L49 61L50 61L50 62L52 62L52 64L51 64L51 63L50 63L50 64L51 64L51 65L50 65L50 66L49 66L49 68L48 68L48 67L47 67L47 69L52 69L52 68L55 68L55 69L57 69L57 68L60 68L60 67L54 67L54 66L55 66L55 65L56 65L56 66L57 66L57 64L58 64L58 63L55 63L55 65L52 65L52 64L54 64L54 63L53 63L53 62L55 62L55 61L54 61L54 60L53 60L53 62L52 62L52 61L51 61L51 60L49 60L49 59L47 59L47 58L46 58L46 57L50 57L50 58L51 58L51 59L53 59L53 57L52 57L52 56L51 56L51 57L50 57L50 55L52 55L52 54L53 54L53 55L55 55L55 56L56 56L56 57L54 57L54 59L56 59L56 57L57 57L57 60L56 60L56 62L57 62L57 61L58 61L58 60L60 60L60 61L59 61L59 62L60 62L60 63L59 63L59 64L60 64L60 65L59 65L59 66L62 66L62 67L61 67L61 69L62 69L62 67L64 67L64 68L63 68L63 69L64 69L64 68L65 68L65 63L66 63L66 62L67 62L67 61L65 61L65 60L64 60L64 57L65 57L65 58L66 58L66 57L67 57L67 60L68 60L68 61L69 61L69 59L68 59L68 58L69 58L69 57L67 57L67 56L68 56L68 55L67 55L67 56L64 56L64 55L66 55L66 54L64 54L64 53L63 53L63 52L65 52L65 51L67 51L67 52L66 52L66 53L69 53L69 52L68 52L68 50L64 50L64 48L65 48L65 47L66 47L66 46L67 46L67 44L69 44L69 43L68 43L68 42L69 42L69 40L68 40L68 38L69 38L69 35L68 35L68 30L69 30L69 28L68 28L68 26L67 26L67 25L68 25L68 24L69 24L69 23L68 23L68 21L69 21L69 20L68 20L68 18L67 18L67 16L66 16L66 18L67 18L67 20L65 20L65 17L64 17L64 16L65 16L65 15L64 15L64 14L65 14L65 13L64 13L64 12L65 12L65 11L68 11L68 10L64 10L64 8L63 8L63 9L62 9L62 10L61 10L61 9L60 9L60 8L61 8L61 6L60 6L60 8L59 8L59 4L57 4L57 5L56 5L56 7L55 7L55 4L56 4L56 3L59 3L59 2L57 2L57 1L55 1L55 0L53 0L53 1L52 1L52 0L50 0L50 5L49 5L49 4L47 4L47 3L48 3L48 2L49 2L49 1L48 1L48 2L47 2L47 1L46 1L46 0L45 0L45 1L44 1L44 0L40 0L40 2L39 2L39 3L40 3L40 4L38 4L38 3L37 3L37 4L35 4L35 3L36 3L36 2L38 2L38 1L39 1L39 0L38 0L38 1L37 1L37 0L36 0L36 1L35 1L35 2L34 2L34 0L31 0L31 1L30 1L30 0L22 0L22 1L21 1L21 0L17 0L17 1L16 1L16 2L15 2L15 3L16 3L16 4L17 4L17 3L18 3L18 2L19 2L19 1L20 1L20 2L22 2L22 4L21 4L21 3L19 3L19 4L18 4L18 5L17 5L17 6L16 6L16 7L15 7L15 6L14 6L14 5L13 5L13 3L11 3L11 2L12 2L12 1L15 1L15 0L12 0L12 1L11 1L11 0ZM58 0L58 1L61 1L61 0ZM9 1L9 3L10 3L10 2L11 2L11 1ZM23 1L23 2L24 2L24 3L25 3L25 5L24 5L24 6L23 6L23 5L21 5L21 7L20 7L20 5L19 5L19 7L20 7L20 8L19 8L19 10L18 10L18 12L19 12L19 14L20 14L20 15L22 15L22 14L20 14L20 11L21 11L21 12L22 12L22 13L24 13L24 11L23 11L23 9L24 9L24 10L25 10L25 11L26 11L26 12L28 12L28 14L29 14L29 12L31 12L31 13L32 13L32 12L33 12L33 11L34 11L34 10L35 10L35 11L36 11L36 9L34 9L34 10L32 10L32 11L26 11L26 10L25 10L25 9L26 9L26 8L27 8L27 9L28 9L28 10L30 10L30 9L31 9L31 8L32 8L32 6L31 6L31 5L32 5L32 4L34 4L34 2L33 2L33 3L32 3L32 2L30 2L30 3L29 3L29 2L28 2L28 1L27 1L27 2L26 2L26 3L25 3L25 1ZM41 1L41 2L40 2L40 3L41 3L41 4L42 4L42 3L41 3L41 2L42 2L42 1ZM53 1L53 2L54 2L54 1ZM43 2L43 3L44 3L44 4L43 4L43 5L40 5L40 6L39 6L39 7L38 7L38 5L37 5L37 10L38 10L38 11L37 11L37 12L36 12L36 13L37 13L37 14L35 14L35 13L33 13L33 14L30 14L30 16L31 16L31 15L32 15L32 17L29 17L29 16L28 16L28 15L27 15L27 13L25 13L25 15L24 15L24 14L23 14L23 16L21 16L21 17L19 17L19 16L18 16L18 17L17 17L17 18L16 18L16 19L15 19L15 20L17 20L17 19L20 19L20 18L21 18L21 20L22 20L22 21L21 21L21 22L20 22L20 20L19 20L19 22L17 22L17 21L15 21L15 22L11 22L11 21L12 21L12 20L11 20L11 19L9 19L9 18L8 18L8 17L6 17L6 16L9 16L9 17L10 17L10 18L11 18L11 16L10 16L10 15L13 15L13 17L12 17L12 18L14 18L14 17L16 17L16 14L17 14L17 15L18 15L18 13L17 13L17 12L16 12L16 14L15 14L15 13L13 13L13 14L12 14L12 13L11 13L11 12L10 12L10 13L9 13L9 14L10 14L10 15L8 15L8 14L7 14L7 15L5 15L5 17L4 17L4 19L5 19L5 20L7 20L7 19L6 19L6 18L8 18L8 23L6 23L6 24L9 24L9 25L10 25L10 24L9 24L9 21L10 21L10 22L11 22L11 23L12 23L12 24L11 24L11 26L12 26L12 25L13 25L13 27L12 27L12 28L11 28L11 27L10 27L10 26L9 26L9 27L10 27L10 28L11 28L11 30L10 30L10 29L9 29L9 28L7 28L7 29L6 29L6 30L4 30L4 31L3 31L3 32L7 32L7 31L8 31L8 29L9 29L9 30L10 30L10 31L9 31L9 38L8 38L8 37L6 37L6 38L7 38L7 39L5 39L5 37L4 37L4 35L3 35L3 33L2 33L2 36L3 36L3 37L2 37L2 38L1 38L1 39L2 39L2 40L1 40L1 41L2 41L2 40L3 40L3 39L4 39L4 40L7 40L7 39L8 39L8 41L9 41L9 38L10 38L10 41L11 41L11 42L12 42L12 41L13 41L13 42L14 42L14 43L16 43L16 42L18 42L18 43L19 43L19 44L20 44L20 41L22 41L22 42L23 42L23 41L24 41L24 42L25 42L25 45L26 45L26 42L27 42L27 43L29 43L29 42L30 42L30 41L31 41L31 44L32 44L32 45L33 45L33 47L32 47L32 46L31 46L31 45L30 45L30 44L29 44L29 45L28 45L28 44L27 44L27 45L28 45L28 46L29 46L29 45L30 45L30 48L32 48L32 49L29 49L29 47L28 47L28 49L27 49L27 50L26 50L26 49L25 49L25 47L26 47L26 48L27 48L27 46L24 46L24 48L22 48L22 49L19 49L19 48L18 48L18 49L16 49L16 50L18 50L18 51L16 51L16 52L17 52L17 53L15 53L15 51L14 51L14 50L13 50L13 51L12 51L12 53L10 53L10 54L9 54L9 51L11 51L11 50L12 50L12 49L13 49L13 48L15 48L15 47L14 47L14 46L15 46L15 45L16 45L16 48L17 48L17 47L18 47L18 46L17 46L17 44L15 44L15 45L14 45L14 46L13 46L13 44L12 44L12 43L11 43L11 44L8 44L8 45L11 45L11 46L13 46L13 47L12 47L12 49L11 49L11 48L10 48L10 49L9 49L9 48L7 48L7 47L6 47L6 48L7 48L7 49L6 49L6 50L5 50L5 51L4 51L4 52L5 52L5 51L6 51L6 52L7 52L7 53L6 53L6 54L5 54L5 55L4 55L4 57L5 57L5 58L7 58L7 57L8 57L8 55L9 55L9 57L11 57L11 58L10 58L10 59L9 59L9 58L8 58L8 60L10 60L10 61L12 61L12 60L13 60L13 61L14 61L14 60L13 60L13 59L12 59L12 57L11 57L11 55L12 55L12 56L15 56L15 57L17 57L17 56L18 56L18 54L19 54L19 56L20 56L20 57L19 57L19 58L20 58L20 57L21 57L21 58L23 58L23 59L22 59L22 61L21 61L21 62L22 62L22 65L23 65L23 64L25 64L25 65L29 65L29 64L30 64L30 63L29 63L29 62L31 62L31 63L32 63L32 62L31 62L31 61L32 61L32 60L31 60L31 59L33 59L33 60L34 60L34 58L35 58L35 59L36 59L36 60L37 60L37 62L38 62L38 63L37 63L37 66L38 66L38 64L39 64L39 63L40 63L40 62L41 62L41 60L39 60L39 59L38 59L38 60L37 60L37 59L36 59L36 58L35 58L35 57L36 57L36 56L37 56L37 57L39 57L39 58L40 58L40 59L41 59L41 58L40 58L40 57L41 57L41 56L42 56L42 57L44 57L44 54L45 54L45 53L46 53L46 54L47 54L47 56L49 56L49 55L50 55L50 53L49 53L49 54L48 54L48 53L46 53L46 52L49 52L49 51L50 51L50 52L52 52L52 53L51 53L51 54L52 54L52 53L55 53L55 54L56 54L56 56L57 56L57 55L58 55L58 59L59 59L59 58L62 58L62 59L61 59L61 60L62 60L62 59L63 59L63 57L64 57L64 56L63 56L63 55L64 55L64 54L62 54L62 56L61 56L61 57L60 57L60 54L59 54L59 53L61 53L61 52L59 52L59 51L60 51L60 49L61 49L61 50L62 50L62 51L64 51L64 50L63 50L63 49L62 49L62 48L64 48L64 47L63 47L63 46L62 46L62 48L57 48L57 47L55 47L55 46L56 46L56 44L57 44L57 45L58 45L58 46L61 46L61 45L62 45L62 44L63 44L63 45L64 45L64 46L66 46L66 44L67 44L67 42L68 42L68 41L66 41L66 40L67 40L67 39L64 39L64 38L68 38L68 35L67 35L67 34L65 34L65 37L61 37L61 38L62 38L62 39L64 39L64 40L65 40L65 41L63 41L63 40L61 40L61 41L62 41L62 43L61 43L61 42L60 42L60 40L59 40L59 41L58 41L58 42L57 42L57 41L56 41L56 40L57 40L57 39L58 39L58 38L59 38L59 39L60 39L60 37L59 37L59 35L60 35L60 34L59 34L59 32L62 32L62 29L63 29L63 30L64 30L64 31L63 31L63 32L66 32L66 33L67 33L67 31L65 31L65 30L67 30L67 29L68 29L68 28L67 28L67 26L66 26L66 27L65 27L65 28L64 28L64 29L63 29L63 28L62 28L62 27L63 27L63 26L62 26L62 25L61 25L61 26L62 26L62 27L60 27L60 26L59 26L59 25L58 25L58 31L59 31L59 32L58 32L58 33L56 33L56 32L52 32L52 33L56 33L56 34L54 34L54 36L52 36L52 34L51 34L51 36L52 36L52 37L55 37L55 38L54 38L54 39L52 39L52 38L50 38L50 36L49 36L49 37L48 37L48 35L49 35L49 34L50 34L50 33L49 33L49 34L48 34L48 33L46 33L46 32L45 32L45 33L44 33L44 31L45 31L45 29L44 29L44 28L46 28L46 30L47 30L47 32L50 32L50 31L55 31L55 30L52 30L52 29L53 29L53 28L54 28L54 27L53 27L53 28L52 28L52 29L51 29L51 30L50 30L50 29L48 29L48 30L47 30L47 27L44 27L44 28L43 28L43 26L41 26L41 25L42 25L42 24L43 24L43 25L44 25L44 24L45 24L45 23L44 23L44 20L46 20L46 19L44 19L44 18L41 18L41 17L42 17L42 16L40 16L40 19L42 19L42 20L40 20L40 21L39 21L39 20L38 20L38 21L37 21L37 22L35 22L35 21L36 21L36 20L37 20L37 18L38 18L38 19L39 19L39 18L38 18L38 13L39 13L39 15L42 15L42 13L44 13L44 14L43 14L43 17L44 17L44 15L45 15L45 13L44 13L44 11L46 11L46 10L47 10L47 8L50 8L50 9L49 9L49 12L50 12L50 13L49 13L49 14L50 14L50 15L49 15L49 17L48 17L48 15L46 15L46 16L45 16L45 17L46 17L46 18L48 18L48 19L47 19L47 21L46 21L46 22L48 22L48 23L47 23L47 25L46 25L46 26L47 26L47 25L48 25L48 27L50 27L50 28L51 28L51 27L50 27L50 25L51 25L51 24L50 24L50 23L51 23L51 22L50 22L50 21L52 21L52 22L53 22L53 23L52 23L52 26L53 26L53 25L56 25L56 24L58 24L58 23L59 23L59 21L61 21L61 24L63 24L63 22L66 22L66 21L65 21L65 20L64 20L64 21L63 21L63 19L64 19L64 17L63 17L63 19L62 19L62 15L60 15L60 13L61 13L61 14L62 14L62 12L61 12L61 10L59 10L59 9L58 9L58 10L59 10L59 11L60 11L60 13L59 13L59 12L57 12L57 13L58 13L58 14L57 14L57 15L56 15L56 16L55 16L55 14L56 14L56 12L55 12L55 10L56 10L56 8L53 8L53 7L54 7L54 5L53 5L53 4L55 4L55 3L56 3L56 2L55 2L55 3L53 3L53 4L52 4L52 2L51 2L51 4L52 4L52 6L51 6L51 7L50 7L50 6L49 6L49 7L48 7L48 5L47 5L47 4L46 4L46 5L44 5L44 4L45 4L45 3L46 3L46 2L45 2L45 3L44 3L44 2ZM27 3L27 5L28 5L28 7L27 7L27 6L26 6L26 5L25 5L25 6L24 6L24 7L25 7L25 8L24 8L24 9L25 9L25 8L26 8L26 7L27 7L27 8L28 8L28 7L29 7L29 9L30 9L30 8L31 8L31 6L30 6L30 5L31 5L31 4L32 4L32 3L31 3L31 4L30 4L30 5L28 5L28 4L29 4L29 3ZM60 3L60 5L61 5L61 3ZM33 5L33 8L36 8L36 5ZM43 5L43 6L42 6L42 7L41 7L41 6L40 6L40 7L41 7L41 8L43 8L43 6L44 6L44 7L45 7L45 8L44 8L44 9L45 9L45 10L46 10L46 9L45 9L45 8L47 8L47 6L46 6L46 7L45 7L45 6L44 6L44 5ZM13 6L13 8L14 8L14 9L15 9L15 7L14 7L14 6ZM17 6L17 8L18 8L18 6ZM22 6L22 8L23 8L23 6ZM25 6L25 7L26 7L26 6ZM29 6L29 7L30 7L30 6ZM34 6L34 7L35 7L35 6ZM52 6L52 7L53 7L53 6ZM57 6L57 7L58 7L58 6ZM20 8L20 10L19 10L19 11L20 11L20 10L22 10L22 9L21 9L21 8ZM38 8L38 10L40 10L40 11L39 11L39 13L40 13L40 14L41 14L41 10L42 10L42 12L43 12L43 9L41 9L41 10L40 10L40 9L39 9L39 8ZM65 8L65 9L69 9L69 8ZM50 9L50 10L51 10L51 11L50 11L50 12L51 12L51 13L50 13L50 14L52 14L52 15L51 15L51 17L50 17L50 18L49 18L49 19L48 19L48 21L50 21L50 20L51 20L51 19L50 19L50 18L51 18L51 17L52 17L52 19L54 19L54 20L53 20L53 21L54 21L54 23L53 23L53 24L55 24L55 19L54 19L54 18L56 18L56 19L57 19L57 20L56 20L56 21L57 21L57 23L58 23L58 21L57 21L57 20L60 20L60 19L61 19L61 21L62 21L62 22L63 22L63 21L62 21L62 19L61 19L61 16L59 16L59 14L58 14L58 15L57 15L57 16L56 16L56 17L54 17L54 16L53 16L53 17L52 17L52 15L54 15L54 14L55 14L55 12L54 12L54 13L53 13L53 14L52 14L52 12L53 12L53 10L55 10L55 9L52 9L52 10L51 10L51 9ZM5 10L5 11L6 11L6 10ZM63 10L63 12L64 12L64 10ZM22 11L22 12L23 12L23 11ZM68 12L68 14L67 14L67 15L68 15L68 14L69 14L69 12ZM46 13L46 14L47 14L47 13ZM63 13L63 14L64 14L64 13ZM34 14L34 15L33 15L33 18L32 18L32 19L31 19L31 18L30 18L30 19L31 19L31 20L30 20L30 21L29 21L29 18L28 18L28 19L27 19L27 20L24 20L24 19L25 19L25 17L26 17L26 18L27 18L27 17L28 17L28 16L26 16L26 15L25 15L25 17L24 17L24 16L23 16L23 17L21 17L21 18L22 18L22 19L23 19L23 22L24 22L24 23L23 23L23 24L22 24L22 23L21 23L21 25L20 25L20 26L21 26L21 27L20 27L20 28L18 28L18 29L17 29L17 30L16 30L16 29L15 29L15 30L14 30L14 29L13 29L13 28L12 28L12 31L10 31L10 32L12 32L12 33L10 33L10 35L12 35L12 36L13 36L13 33L14 33L14 34L15 34L15 36L14 36L14 37L15 37L15 40L14 40L14 39L13 39L13 37L11 37L11 36L10 36L10 38L11 38L11 39L12 39L12 40L13 40L13 41L14 41L14 42L15 42L15 41L16 41L16 40L17 40L17 41L20 41L20 40L21 40L21 39L22 39L22 40L23 40L23 38L25 38L25 37L27 37L27 38L28 38L28 39L29 39L29 40L26 40L26 41L30 41L30 40L31 40L31 41L32 41L32 42L34 42L34 43L37 43L37 44L35 44L35 45L38 45L38 46L39 46L39 45L40 45L40 46L41 46L41 45L42 45L42 49L41 49L41 51L40 51L40 48L41 48L41 47L38 47L38 48L37 48L37 47L36 47L36 46L35 46L35 47L36 47L36 48L37 48L37 49L38 49L38 50L37 50L37 53L36 53L36 52L35 52L35 50L36 50L36 49L34 49L34 47L33 47L33 49L32 49L32 52L31 52L31 50L28 50L28 51L27 51L27 52L26 52L26 53L24 53L24 52L23 52L23 50L24 50L24 51L26 51L26 50L25 50L25 49L23 49L23 50L22 50L22 51L21 51L21 50L20 50L20 51L18 51L18 53L17 53L17 54L18 54L18 53L19 53L19 52L20 52L20 54L21 54L21 53L22 53L22 52L23 52L23 53L24 53L24 54L23 54L23 56L22 56L22 55L20 55L20 56L21 56L21 57L24 57L24 58L25 58L25 59L26 59L26 58L27 58L27 60L26 60L26 61L24 61L24 59L23 59L23 61L24 61L24 62L25 62L25 63L26 63L26 64L29 64L29 63L27 63L27 62L28 62L28 61L27 61L27 60L28 60L28 59L29 59L29 61L31 61L31 60L30 60L30 58L31 58L31 57L32 57L32 58L33 58L33 57L34 57L34 56L35 56L35 55L37 55L37 53L38 53L38 52L39 52L39 54L40 54L40 55L39 55L39 57L40 57L40 55L41 55L41 54L42 54L42 55L43 55L43 54L44 54L44 53L45 53L45 50L46 50L46 51L49 51L49 50L46 50L46 49L45 49L45 48L47 48L47 49L50 49L50 50L51 50L51 49L52 49L52 52L55 52L55 51L53 51L53 50L55 50L55 47L54 47L54 46L55 46L55 44L54 44L54 45L53 45L53 46L52 46L52 44L53 44L53 42L55 42L55 43L56 43L56 42L55 42L55 39L56 39L56 38L58 38L58 37L57 37L57 36L58 36L58 35L57 35L57 34L56 34L56 35L55 35L55 36L56 36L56 38L55 38L55 39L54 39L54 41L53 41L53 42L52 42L52 43L51 43L51 44L50 44L50 45L49 45L49 43L50 43L50 42L51 42L51 39L50 39L50 38L49 38L49 39L48 39L48 38L47 38L47 41L48 41L48 42L47 42L47 43L46 43L46 45L45 45L45 44L44 44L44 45L45 45L45 46L43 46L43 44L41 44L41 43L39 43L39 45L38 45L38 42L43 42L43 39L45 39L45 40L44 40L44 43L45 43L45 42L46 42L46 37L47 37L47 35L48 35L48 34L46 34L46 33L45 33L45 34L44 34L44 33L40 33L40 31L44 31L44 30L43 30L43 28L42 28L42 27L40 27L40 24L41 24L41 23L42 23L42 22L43 22L43 21L40 21L40 22L41 22L41 23L40 23L40 24L39 24L39 25L38 25L38 24L37 24L37 23L36 23L36 24L37 24L37 25L35 25L35 26L34 26L34 25L33 25L33 24L32 24L32 26L34 26L34 28L35 28L35 27L36 27L36 26L37 26L37 25L38 25L38 27L37 27L37 28L36 28L36 30L37 30L37 31L35 31L35 32L32 32L32 31L30 31L30 30L31 30L31 29L32 29L32 28L33 28L33 27L31 27L31 28L29 28L29 26L31 26L31 24L30 24L30 25L29 25L29 24L28 24L28 25L27 25L27 22L28 22L28 23L30 23L30 21L31 21L31 23L33 23L33 22L34 22L34 24L35 24L35 22L34 22L34 21L35 21L35 20L36 20L36 19L35 19L35 18L34 18L34 16L35 16L35 17L36 17L36 18L37 18L37 16L36 16L36 15L35 15L35 14ZM2 15L2 16L3 16L3 15ZM14 15L14 16L15 16L15 15ZM57 16L57 17L56 17L56 18L57 18L57 17L58 17L58 19L59 19L59 17L58 17L58 16ZM5 17L5 18L6 18L6 17ZM18 17L18 18L19 18L19 17ZM23 17L23 18L24 18L24 17ZM33 18L33 19L32 19L32 20L33 20L33 19L34 19L34 18ZM13 19L13 21L14 21L14 19ZM10 20L10 21L11 21L11 20ZM27 20L27 21L25 21L25 22L27 22L27 21L28 21L28 22L29 22L29 21L28 21L28 20ZM67 20L67 21L68 21L68 20ZM4 21L4 22L5 22L5 21ZM6 21L6 22L7 22L7 21ZM32 21L32 22L33 22L33 21ZM16 22L16 23L15 23L15 24L14 24L14 26L15 26L15 27L16 27L16 26L18 26L18 27L19 27L19 26L18 26L18 25L19 25L19 24L20 24L20 23L19 23L19 24L18 24L18 25L15 25L15 24L17 24L17 22ZM25 23L25 24L26 24L26 23ZM48 23L48 25L50 25L50 24L49 24L49 23ZM65 23L65 24L64 24L64 26L65 26L65 24L68 24L68 23ZM21 25L21 26L23 26L23 27L21 27L21 29L23 29L23 27L24 27L24 28L25 28L25 30L23 30L23 31L25 31L25 33L30 33L30 34L28 34L28 35L27 35L27 34L20 34L20 35L19 35L19 34L17 34L17 33L18 33L18 32L19 32L19 33L20 33L20 32L19 32L19 30L20 30L20 29L18 29L18 31L17 31L17 32L16 32L16 31L14 31L14 32L16 32L16 34L17 34L17 36L15 36L15 37L16 37L16 39L17 39L17 40L20 40L20 39L21 39L21 38L23 38L23 37L24 37L24 35L26 35L26 36L27 36L27 37L28 37L28 38L29 38L29 39L30 39L30 38L29 38L29 35L30 35L30 36L31 36L31 37L32 37L32 38L31 38L31 40L32 40L32 41L33 41L33 39L34 39L34 38L35 38L35 40L34 40L34 41L36 41L36 42L38 42L38 41L39 41L39 40L37 40L37 39L36 39L36 38L37 38L37 37L38 37L38 36L39 36L39 35L41 35L41 34L39 34L39 35L37 35L37 37L32 37L32 33L30 33L30 31L28 31L28 32L26 32L26 31L25 31L25 30L26 30L26 28L25 28L25 27L27 27L27 25L25 25L25 26L24 26L24 25ZM28 25L28 26L29 26L29 25ZM7 26L7 27L8 27L8 26ZM56 26L56 27L55 27L55 29L56 29L56 28L57 28L57 26ZM39 27L39 29L40 29L40 30L42 30L42 28L40 28L40 27ZM37 28L37 30L38 30L38 31L37 31L37 34L38 34L38 31L39 31L39 30L38 30L38 28ZM61 28L61 29L59 29L59 31L60 31L60 30L61 30L61 29L62 29L62 28ZM27 29L27 30L29 30L29 29ZM33 29L33 31L34 31L34 30L35 30L35 29ZM6 30L6 31L7 31L7 30ZM49 30L49 31L50 31L50 30ZM56 30L56 31L57 31L57 30ZM22 32L22 33L23 33L23 32ZM5 33L5 36L8 36L8 33ZM33 33L33 36L36 36L36 33ZM61 33L61 36L64 36L64 33ZM6 34L6 35L7 35L7 34ZM34 34L34 35L35 35L35 34ZM43 34L43 35L42 35L42 37L41 37L41 36L40 36L40 38L38 38L38 39L40 39L40 41L41 41L41 39L42 39L42 37L43 37L43 38L45 38L45 37L46 37L46 34L45 34L45 37L44 37L44 34ZM62 34L62 35L63 35L63 34ZM21 35L21 36L20 36L20 38L17 38L17 39L20 39L20 38L21 38L21 37L22 37L22 35ZM56 35L56 36L57 36L57 35ZM17 36L17 37L19 37L19 36ZM66 36L66 37L67 37L67 36ZM2 38L2 39L3 39L3 38ZM32 38L32 39L33 39L33 38ZM40 38L40 39L41 39L41 38ZM49 39L49 42L50 42L50 39ZM24 40L24 41L25 41L25 40ZM36 40L36 41L37 41L37 40ZM65 41L65 42L66 42L66 41ZM9 42L9 43L10 43L10 42ZM59 42L59 44L58 44L58 43L57 43L57 44L58 44L58 45L59 45L59 44L60 44L60 45L61 45L61 43L60 43L60 42ZM22 43L22 45L21 45L21 46L22 46L22 45L23 45L23 44L24 44L24 43ZM47 43L47 44L48 44L48 43ZM64 43L64 45L65 45L65 43ZM11 44L11 45L12 45L12 44ZM33 44L33 45L34 45L34 44ZM1 45L1 46L2 46L2 48L1 48L1 49L2 49L2 50L1 50L1 51L3 51L3 50L4 50L4 48L3 48L3 47L4 47L4 46L2 46L2 45ZM19 45L19 47L20 47L20 48L21 48L21 47L20 47L20 45ZM46 45L46 46L45 46L45 47L44 47L44 48L43 48L43 49L44 49L44 50L45 50L45 49L44 49L44 48L45 48L45 47L46 47L46 46L47 46L47 45ZM51 46L51 47L47 47L47 48L52 48L52 49L53 49L53 48L54 48L54 47L53 47L53 48L52 48L52 46ZM68 47L68 48L67 48L67 49L69 49L69 47ZM2 48L2 49L3 49L3 48ZM38 48L38 49L39 49L39 48ZM56 48L56 50L57 50L57 52L56 52L56 54L57 54L57 52L58 52L58 53L59 53L59 52L58 52L58 49L57 49L57 48ZM7 49L7 50L6 50L6 51L7 51L7 50L9 50L9 49ZM10 49L10 50L11 50L11 49ZM18 49L18 50L19 50L19 49ZM33 49L33 50L34 50L34 49ZM38 50L38 51L39 51L39 52L40 52L40 54L41 54L41 52L40 52L40 51L39 51L39 50ZM42 50L42 51L43 51L43 53L44 53L44 51L43 51L43 50ZM13 51L13 52L14 52L14 51ZM33 51L33 52L32 52L32 54L30 54L30 55L29 55L29 53L28 53L28 52L27 52L27 53L28 53L28 58L29 58L29 57L30 57L30 56L32 56L32 57L33 57L33 56L34 56L34 55L35 55L35 52L34 52L34 51ZM12 53L12 54L14 54L14 55L16 55L16 54L15 54L15 53ZM33 53L33 55L34 55L34 53ZM6 54L6 55L5 55L5 57L7 57L7 56L6 56L6 55L7 55L7 54ZM26 54L26 55L24 55L24 56L25 56L25 57L26 57L26 56L27 56L27 54ZM0 56L0 57L1 57L1 56ZM62 56L62 57L63 57L63 56ZM0 58L0 61L1 61L1 58ZM11 59L11 60L12 60L12 59ZM3 60L3 61L5 61L5 60ZM33 61L33 64L36 64L36 61ZM38 61L38 62L39 62L39 61ZM61 61L61 64L64 64L64 61ZM34 62L34 63L35 63L35 62ZM62 62L62 63L63 63L63 62ZM20 63L20 64L19 64L19 65L20 65L20 64L21 64L21 63ZM31 64L31 65L32 65L32 64ZM51 65L51 66L50 66L50 68L52 68L52 65ZM66 65L66 67L67 67L67 66L69 66L69 65ZM24 66L24 67L26 67L26 66ZM12 67L12 68L13 68L13 67ZM21 67L21 69L22 69L22 67ZM32 67L32 68L33 68L33 67ZM17 68L17 69L20 69L20 68ZM36 68L36 69L37 69L37 68ZM68 68L68 69L69 69L69 68ZM0 0L0 7L7 7L7 0ZM1 1L1 6L6 6L6 1ZM2 2L2 5L5 5L5 2ZM62 0L62 7L69 7L69 0ZM63 1L63 6L68 6L68 1ZM64 2L64 5L67 5L67 2ZM0 62L0 69L7 69L7 62ZM1 63L1 68L6 68L6 63ZM2 64L2 67L5 67L5 64Z" fill="#000000"/></g></g></svg>
