<?xml version="1.0" encoding="UTF-8"?>
<svg xmlns="http://www.w3.org/2000/svg" version="1.1" width="300" height="300" viewBox="0 0 300 300"><rect x="0" y="0" width="300" height="300" fill="#ffffff"/><g transform="scale(4.348)"><g transform="translate(0,0)"><path fill-rule="evenodd" d="M9 0L9 1L8 1L8 2L9 2L9 3L8 3L8 4L9 4L9 5L8 5L8 7L9 7L9 8L6 8L6 9L7 9L7 10L6 10L6 11L7 11L7 10L8 10L8 9L13 9L13 10L9 10L9 12L10 12L10 13L9 13L9 14L10 14L10 15L9 15L9 16L8 16L8 14L6 14L6 13L8 13L8 12L3 12L3 11L2 11L2 10L1 10L1 9L3 9L3 10L5 10L5 8L0 8L0 12L2 12L2 13L1 13L1 15L0 15L0 16L2 16L2 13L3 13L3 17L2 17L2 18L1 18L1 17L0 17L0 19L2 19L2 20L1 20L1 22L3 22L3 23L1 23L1 24L0 24L0 25L1 25L1 26L0 26L0 27L1 27L1 26L2 26L2 27L3 27L3 28L4 28L4 27L5 27L5 29L4 29L4 30L3 30L3 29L2 29L2 28L1 28L1 29L0 29L0 32L1 32L1 34L0 34L0 35L1 35L1 36L2 36L2 35L4 35L4 37L0 37L0 41L1 41L1 42L3 42L3 44L4 44L4 45L1 45L1 46L0 46L0 47L2 47L2 48L3 48L3 47L4 47L4 45L5 45L5 46L6 46L6 47L7 47L7 48L6 48L6 49L5 49L5 48L4 48L4 49L5 49L5 50L3 50L3 52L2 52L2 53L0 53L0 54L1 54L1 55L0 55L0 57L2 57L2 56L3 56L3 57L4 57L4 59L7 59L7 60L6 60L6 61L7 61L7 60L8 60L8 63L9 63L9 64L8 64L8 69L9 69L9 68L10 68L10 69L12 69L12 68L13 68L13 67L12 67L12 65L13 65L13 66L14 66L14 67L15 67L15 65L16 65L16 64L18 64L18 65L17 65L17 66L16 66L16 68L15 68L15 69L16 69L16 68L17 68L17 69L22 69L22 68L23 68L23 69L26 69L26 68L27 68L27 69L28 69L28 68L29 68L29 69L32 69L32 67L34 67L34 66L33 66L33 65L35 65L35 66L36 66L36 67L35 67L35 68L36 68L36 69L38 69L38 68L37 68L37 67L39 67L39 66L38 66L38 63L39 63L39 64L41 64L41 66L40 66L40 67L41 67L41 69L44 69L44 68L47 68L47 69L49 69L49 68L50 68L50 69L51 69L51 67L53 67L53 66L54 66L54 67L55 67L55 68L54 68L54 69L55 69L55 68L57 68L57 67L56 67L56 64L55 64L55 62L56 62L56 63L57 63L57 66L58 66L58 67L60 67L60 68L61 68L61 69L62 69L62 67L63 67L63 68L65 68L65 69L68 69L68 68L67 68L67 66L66 66L66 67L63 67L63 66L62 66L62 67L61 67L61 65L64 65L64 66L65 66L65 64L67 64L67 65L69 65L69 63L68 63L68 62L67 62L67 61L65 61L65 60L67 60L67 59L68 59L68 60L69 60L69 59L68 59L68 58L69 58L69 57L68 57L68 54L69 54L69 53L67 53L67 52L68 52L68 50L69 50L69 49L68 49L68 45L67 45L67 44L69 44L69 43L68 43L68 41L69 41L69 39L68 39L68 38L66 38L66 36L67 36L67 37L68 37L68 36L69 36L69 35L68 35L68 34L69 34L69 33L68 33L68 34L67 34L67 35L66 35L66 34L65 34L65 33L66 33L66 32L67 32L67 31L68 31L68 32L69 32L69 31L68 31L68 30L69 30L69 29L68 29L68 28L69 28L69 27L68 27L68 26L69 26L69 23L68 23L68 18L69 18L69 15L68 15L68 12L67 12L67 11L68 11L68 10L67 10L67 9L68 9L68 8L67 8L67 9L66 9L66 8L65 8L65 9L64 9L64 8L63 8L63 9L64 9L64 10L61 10L61 9L62 9L62 8L61 8L61 6L60 6L60 8L59 8L59 4L58 4L58 5L57 5L57 6L56 6L56 2L57 2L57 3L59 3L59 2L58 2L58 1L61 1L61 0L58 0L58 1L57 1L57 0L53 0L53 1L52 1L52 2L53 2L53 1L54 1L54 2L55 2L55 3L53 3L53 4L52 4L52 5L49 5L49 6L48 6L48 7L47 7L47 6L46 6L46 5L44 5L44 3L45 3L45 4L46 4L46 3L45 3L45 2L44 2L44 3L42 3L42 4L40 4L40 5L39 5L39 6L38 6L38 5L37 5L37 4L38 4L38 3L36 3L36 2L41 2L41 1L42 1L42 2L43 2L43 0L41 0L41 1L38 1L38 0L37 0L37 1L35 1L35 3L33 3L33 1L32 1L32 3L29 3L29 1L30 1L30 2L31 2L31 1L30 1L30 0L28 0L28 1L27 1L27 2L28 2L28 3L29 3L29 4L30 4L30 5L27 5L27 4L26 4L26 2L25 2L25 0L23 0L23 1L22 1L22 0L21 0L21 2L23 2L23 4L22 4L22 3L20 3L20 4L19 4L19 3L18 3L18 2L17 2L17 1L19 1L19 2L20 2L20 1L19 1L19 0L17 0L17 1L16 1L16 0L15 0L15 1L14 1L14 0L11 0L11 1L12 1L12 2L10 2L10 0ZM44 0L44 1L45 1L45 0ZM48 0L48 1L47 1L47 2L48 2L48 3L47 3L47 4L49 4L49 1L50 1L50 3L51 3L51 1L50 1L50 0ZM13 1L13 2L12 2L12 3L11 3L11 5L10 5L10 6L9 6L9 7L10 7L10 8L11 8L11 7L12 7L12 6L13 6L13 7L14 7L14 6L15 6L15 8L14 8L14 10L13 10L13 11L14 11L14 12L13 12L13 13L12 13L12 12L11 12L11 13L10 13L10 14L11 14L11 15L12 15L12 14L16 14L16 16L12 16L12 17L13 17L13 18L12 18L12 20L11 20L11 17L10 17L10 16L9 16L9 17L8 17L8 18L7 18L7 17L5 17L5 16L4 16L4 22L5 22L5 21L6 21L6 22L7 22L7 23L6 23L6 24L7 24L7 23L8 23L8 22L9 22L9 23L10 23L10 25L11 25L11 26L9 26L9 25L6 25L6 26L7 26L7 27L6 27L6 28L7 28L7 29L6 29L6 30L7 30L7 31L5 31L5 30L4 30L4 32L7 32L7 31L8 31L8 32L9 32L9 33L10 33L10 32L11 32L11 31L13 31L13 30L14 30L14 31L15 31L15 30L17 30L17 31L18 31L18 30L17 30L17 28L16 28L16 27L15 27L15 26L16 26L16 25L17 25L17 27L19 27L19 26L20 26L20 27L23 27L23 28L20 28L20 33L19 33L19 34L20 34L20 35L19 35L19 36L21 36L21 37L20 37L20 38L17 38L17 36L16 36L16 37L15 37L15 36L14 36L14 37L12 37L12 36L13 36L13 34L16 34L16 35L17 35L17 33L18 33L18 32L16 32L16 33L14 33L14 32L12 32L12 35L10 35L10 34L9 34L9 35L10 35L10 37L12 37L12 38L11 38L11 40L9 40L9 39L10 39L10 38L9 38L9 37L6 37L6 38L5 38L5 39L4 39L4 38L1 38L1 39L2 39L2 41L3 41L3 42L5 42L5 41L6 41L6 42L8 42L8 43L5 43L5 44L7 44L7 45L6 45L6 46L8 46L8 49L9 49L9 47L10 47L10 48L11 48L11 49L14 49L14 50L16 50L16 51L17 51L17 52L13 52L13 55L12 55L12 54L11 54L11 53L10 53L10 52L12 52L12 51L13 51L13 50L12 50L12 51L10 51L10 50L9 50L9 51L6 51L6 52L8 52L8 53L9 53L9 54L8 54L8 55L6 55L6 56L8 56L8 57L5 57L5 58L9 58L9 59L8 59L8 60L9 60L9 63L10 63L10 64L9 64L9 65L10 65L10 64L13 64L13 63L14 63L14 62L13 62L13 61L14 61L14 58L13 58L13 57L11 57L11 56L14 56L14 57L15 57L15 58L16 58L16 57L17 57L17 59L20 59L20 60L21 60L21 61L18 61L18 62L17 62L17 60L16 60L16 59L15 59L15 62L17 62L17 63L18 63L18 62L21 62L21 63L20 63L20 65L19 65L19 66L20 66L20 67L17 67L17 68L22 68L22 67L21 67L21 65L24 65L24 64L26 64L26 63L23 63L23 62L24 62L24 61L25 61L25 60L26 60L26 62L27 62L27 61L28 61L28 63L27 63L27 64L28 64L28 65L25 65L25 66L23 66L23 68L25 68L25 66L28 66L28 65L29 65L29 66L32 66L32 65L29 65L29 64L31 64L31 63L32 63L32 60L31 60L31 63L29 63L29 61L28 61L28 60L26 60L26 58L25 58L25 60L24 60L24 59L23 59L23 58L24 58L24 57L22 57L22 56L21 56L21 55L22 55L22 54L21 54L21 53L23 53L23 52L25 52L25 51L28 51L28 52L26 52L26 53L25 53L25 56L26 56L26 57L27 57L27 58L29 58L29 60L30 60L30 58L29 58L29 57L30 57L30 56L28 56L28 55L30 55L30 53L28 53L28 52L29 52L29 50L30 50L30 51L31 51L31 56L32 56L32 57L31 57L31 59L32 59L32 57L33 57L33 58L34 58L34 60L35 60L35 59L36 59L36 58L35 58L35 56L34 56L34 55L35 55L35 49L36 49L36 50L37 50L37 49L38 49L38 51L39 51L39 53L43 53L43 56L42 56L42 57L43 57L43 60L42 60L42 58L41 58L41 59L40 59L40 62L39 62L39 59L38 59L38 62L37 62L37 63L38 63L38 62L39 62L39 63L41 63L41 64L44 64L44 66L41 66L41 67L43 67L43 68L44 68L44 66L45 66L45 67L46 67L46 66L48 66L48 65L47 65L47 64L48 64L48 63L49 63L49 64L50 64L50 67L51 67L51 65L52 65L52 66L53 66L53 64L54 64L54 65L55 65L55 64L54 64L54 63L51 63L51 62L53 62L53 60L54 60L54 61L55 61L55 58L56 58L56 62L59 62L59 63L60 63L60 60L61 60L61 59L63 59L63 58L65 58L65 59L67 59L67 58L68 58L68 57L66 57L66 58L65 58L65 56L64 56L64 57L63 57L63 56L61 56L61 54L62 54L62 55L67 55L67 53L66 53L66 54L65 54L65 51L66 51L66 50L67 50L67 48L63 48L63 47L66 47L66 44L65 44L65 43L66 43L66 42L67 42L67 41L68 41L68 39L67 39L67 40L65 40L65 41L63 41L63 39L65 39L65 37L64 37L64 38L62 38L62 37L61 37L61 38L62 38L62 39L60 39L60 38L59 38L59 37L60 37L60 35L58 35L58 36L59 36L59 37L57 37L57 36L56 36L56 35L55 35L55 34L56 34L56 33L57 33L57 34L60 34L60 33L59 33L59 31L57 31L57 30L59 30L59 29L60 29L60 28L59 28L59 29L57 29L57 28L58 28L58 27L59 27L59 25L62 25L62 26L63 26L63 29L62 29L62 27L61 27L61 29L62 29L62 30L60 30L60 31L61 31L61 32L62 32L62 30L63 30L63 32L64 32L64 31L67 31L67 30L68 30L68 29L67 29L67 28L65 28L65 27L67 27L67 25L66 25L66 24L63 24L63 21L64 21L64 22L65 22L65 23L67 23L67 24L68 24L68 23L67 23L67 20L65 20L65 18L67 18L67 17L66 17L66 16L65 16L65 15L64 15L64 16L62 16L62 14L63 14L63 13L65 13L65 14L67 14L67 13L66 13L66 12L64 12L64 11L63 11L63 12L62 12L62 11L60 11L60 9L61 9L61 8L60 8L60 9L57 9L57 8L58 8L58 6L57 6L57 8L56 8L56 6L55 6L55 7L54 7L54 6L53 6L53 5L52 5L52 6L51 6L51 8L50 8L50 6L49 6L49 9L50 9L50 10L51 10L51 11L53 11L53 8L56 8L56 10L55 10L55 12L51 12L51 13L50 13L50 11L49 11L49 10L47 10L47 7L46 7L46 6L45 6L45 7L44 7L44 5L43 5L43 7L42 7L42 6L41 6L41 5L40 5L40 6L39 6L39 7L40 7L40 6L41 6L41 8L39 8L39 9L38 9L38 10L36 10L36 9L32 9L32 11L31 11L31 10L30 10L30 9L31 9L31 8L32 8L32 5L30 5L30 6L29 6L29 8L27 8L27 7L28 7L28 6L27 6L27 7L26 7L26 4L25 4L25 2L24 2L24 4L23 4L23 5L22 5L22 4L20 4L20 5L16 5L16 6L15 6L15 4L16 4L16 2L15 2L15 3L14 3L14 1ZM32 3L32 4L33 4L33 3ZM35 3L35 4L36 4L36 3ZM60 3L60 5L61 5L61 3ZM12 4L12 5L11 5L11 6L10 6L10 7L11 7L11 6L12 6L12 5L13 5L13 4ZM24 4L24 5L25 5L25 4ZM20 5L20 8L15 8L15 10L14 10L14 11L15 11L15 10L16 10L16 12L15 12L15 13L17 13L17 15L18 15L18 14L20 14L20 16L21 16L21 17L18 17L18 16L17 16L17 17L18 17L18 18L16 18L16 17L15 17L15 20L14 20L14 21L15 21L15 22L13 22L13 23L11 23L11 20L10 20L10 19L9 19L9 18L10 18L10 17L9 17L9 18L8 18L8 19L7 19L7 18L6 18L6 19L5 19L5 20L6 20L6 21L9 21L9 22L10 22L10 23L11 23L11 25L12 25L12 24L13 24L13 26L11 26L11 27L10 27L10 28L9 28L9 26L8 26L8 30L9 30L9 32L10 32L10 30L13 30L13 29L14 29L14 30L15 30L15 28L14 28L14 27L13 27L13 26L14 26L14 25L16 25L16 24L15 24L15 22L16 22L16 23L17 23L17 25L21 25L21 26L22 26L22 25L24 25L24 26L23 26L23 27L24 27L24 28L23 28L23 29L22 29L22 30L21 30L21 32L22 32L22 30L23 30L23 32L24 32L24 31L26 31L26 32L25 32L25 33L21 33L21 34L22 34L22 35L23 35L23 34L24 34L24 36L23 36L23 38L25 38L25 39L23 39L23 40L24 40L24 41L23 41L23 42L24 42L24 41L25 41L25 43L26 43L26 44L24 44L24 43L23 43L23 44L24 44L24 45L23 45L23 47L22 47L22 46L21 46L21 47L20 47L20 45L19 45L19 44L20 44L20 43L19 43L19 42L20 42L20 41L19 41L19 40L21 40L21 41L22 41L22 40L21 40L21 39L22 39L22 38L20 38L20 39L18 39L18 40L17 40L17 44L16 44L16 43L14 43L14 44L13 44L13 45L11 45L11 44L12 44L12 43L13 43L13 42L16 42L16 41L14 41L14 40L13 40L13 39L14 39L14 38L12 38L12 40L11 40L11 41L9 41L9 44L10 44L10 45L11 45L11 46L10 46L10 47L11 47L11 48L12 48L12 47L13 47L13 48L14 48L14 49L18 49L18 50L20 50L20 51L19 51L19 52L17 52L17 53L18 53L18 54L15 54L15 53L14 53L14 55L16 55L16 56L15 56L15 57L16 57L16 56L17 56L17 57L18 57L18 58L20 58L20 57L19 57L19 54L20 54L20 55L21 55L21 54L20 54L20 53L19 53L19 52L22 52L22 51L21 51L21 49L22 49L22 50L23 50L23 51L24 51L24 50L26 50L26 49L24 49L24 48L26 48L26 47L24 47L24 46L25 46L25 45L26 45L26 46L27 46L27 45L29 45L29 46L28 46L28 47L27 47L27 48L28 48L28 47L29 47L29 49L30 49L30 50L32 50L32 55L34 55L34 54L33 54L33 53L34 53L34 52L33 52L33 51L34 51L34 50L32 50L32 49L33 49L33 48L32 48L32 49L31 49L31 48L30 48L30 47L31 47L31 46L30 46L30 45L31 45L31 44L32 44L32 45L33 45L33 41L34 41L34 42L35 42L35 44L37 44L37 45L38 45L38 44L37 44L37 43L36 43L36 42L38 42L38 43L39 43L39 44L40 44L40 45L39 45L39 46L36 46L36 47L35 47L35 45L34 45L34 47L35 47L35 48L36 48L36 47L37 47L37 48L38 48L38 47L39 47L39 48L40 48L40 47L41 47L41 48L42 48L42 49L41 49L41 50L39 50L39 51L41 51L41 50L42 50L42 51L44 51L44 52L43 52L43 53L44 53L44 56L43 56L43 57L44 57L44 56L46 56L46 57L49 57L49 58L47 58L47 59L49 59L49 58L50 58L50 57L51 57L51 56L52 56L52 55L54 55L54 54L55 54L55 56L54 56L54 57L52 57L52 58L55 58L55 57L56 57L56 52L59 52L59 51L62 51L62 52L63 52L63 53L62 53L62 54L63 54L63 53L64 53L64 52L63 52L63 51L62 51L62 50L60 50L60 49L63 49L63 48L62 48L62 46L63 46L63 44L64 44L64 43L65 43L65 42L66 42L66 41L65 41L65 42L63 42L63 43L61 43L61 44L60 44L60 45L59 45L59 43L60 43L60 42L62 42L62 41L61 41L61 40L60 40L60 41L59 41L59 39L58 39L58 40L57 40L57 42L58 42L58 43L57 43L57 45L59 45L59 46L56 46L56 39L57 39L57 38L56 38L56 36L55 36L55 37L52 37L52 38L54 38L54 39L51 39L51 38L50 38L50 37L51 37L51 36L52 36L52 35L53 35L53 34L55 34L55 33L56 33L56 32L57 32L57 33L58 33L58 32L57 32L57 31L56 31L56 30L57 30L57 29L56 29L56 25L54 25L54 24L57 24L57 25L59 25L59 24L60 24L60 23L61 23L61 24L62 24L62 21L60 21L60 20L61 20L61 19L59 19L59 18L62 18L62 19L63 19L63 18L65 18L65 17L63 17L63 18L62 18L62 16L60 16L60 15L61 15L61 14L62 14L62 12L61 12L61 13L60 13L60 12L59 12L59 10L56 10L56 12L55 12L55 13L52 13L52 14L50 14L50 13L49 13L49 12L47 12L47 11L43 11L43 13L42 13L42 14L41 14L41 12L42 12L42 10L45 10L45 9L46 9L46 7L45 7L45 9L44 9L44 8L43 8L43 9L39 9L39 10L38 10L38 11L37 11L37 12L38 12L38 13L36 13L36 12L33 12L33 14L28 14L28 15L30 15L30 16L29 16L29 20L28 20L28 19L27 19L27 18L28 18L28 17L27 17L27 18L26 18L26 17L25 17L25 16L26 16L26 15L25 15L25 16L24 16L24 17L22 17L22 16L23 16L23 14L27 14L27 13L32 13L32 12L29 12L29 11L27 11L27 13L26 13L26 11L25 11L25 12L24 12L24 11L22 11L22 10L21 10L21 12L20 12L20 11L18 11L18 10L20 10L20 8L21 8L21 9L22 9L22 8L21 8L21 6L22 6L22 7L23 7L23 8L24 8L24 9L23 9L23 10L24 10L24 9L25 9L25 10L26 10L26 8L24 8L24 7L25 7L25 6L24 6L24 7L23 7L23 6L22 6L22 5ZM33 5L33 8L36 8L36 5ZM16 6L16 7L17 7L17 6ZM18 6L18 7L19 7L19 6ZM30 6L30 7L31 7L31 6ZM34 6L34 7L35 7L35 6ZM37 6L37 8L38 8L38 6ZM52 6L52 7L53 7L53 6ZM29 8L29 9L30 9L30 8ZM16 9L16 10L18 10L18 9ZM51 9L51 10L52 10L52 9ZM33 10L33 11L36 11L36 10ZM40 10L40 12L39 12L39 11L38 11L38 12L39 12L39 13L38 13L38 14L37 14L37 15L35 15L35 13L34 13L34 14L33 14L33 15L31 15L31 16L32 16L32 17L33 17L33 18L32 18L32 20L36 20L36 19L35 19L35 18L36 18L36 16L37 16L37 17L38 17L38 18L37 18L37 19L39 19L39 18L41 18L41 17L42 17L42 16L44 16L44 17L43 17L43 20L44 20L44 22L43 22L43 24L44 24L44 25L43 25L43 26L46 26L46 27L45 27L45 28L44 28L44 27L43 27L43 28L44 28L44 29L43 29L43 30L42 30L42 27L39 27L39 26L41 26L41 25L42 25L42 24L41 24L41 23L39 23L39 22L37 22L37 21L38 21L38 20L37 20L37 21L34 21L34 22L37 22L37 23L33 23L33 21L30 21L30 20L29 20L29 21L27 21L27 19L24 19L24 18L22 18L22 17L21 17L21 20L19 20L19 19L20 19L20 18L19 18L19 19L17 19L17 20L16 20L16 22L17 22L17 20L19 20L19 21L18 21L18 22L19 22L19 24L20 24L20 22L21 22L21 23L22 23L22 22L23 22L23 24L24 24L24 22L23 22L23 21L24 21L24 20L26 20L26 22L25 22L25 24L26 24L26 27L28 27L28 28L26 28L26 29L25 29L25 28L24 28L24 29L25 29L25 30L28 30L28 31L29 31L29 32L28 32L28 33L25 33L25 36L24 36L24 37L27 37L27 38L26 38L26 39L29 39L29 40L28 40L28 41L27 41L27 40L26 40L26 41L27 41L27 42L30 42L30 41L32 41L32 39L33 39L33 37L32 37L32 38L30 38L30 37L29 37L29 36L28 36L28 35L27 35L27 34L28 34L28 33L29 33L29 32L31 32L31 31L32 31L32 32L34 32L34 31L33 31L33 30L34 30L34 29L36 29L36 30L35 30L35 31L36 31L36 30L40 30L40 31L43 31L43 32L39 32L39 33L38 33L38 35L37 35L37 36L38 36L38 37L34 37L34 38L36 38L36 39L37 39L37 41L38 41L38 42L39 42L39 43L40 43L40 44L41 44L41 43L40 43L40 41L41 41L41 40L44 40L44 42L43 42L43 44L44 44L44 45L43 45L43 46L42 46L42 45L41 45L41 46L42 46L42 48L43 48L43 46L44 46L44 45L45 45L45 47L44 47L44 49L43 49L43 50L44 50L44 49L45 49L45 52L44 52L44 53L45 53L45 54L46 54L46 56L48 56L48 55L49 55L49 57L50 57L50 55L51 55L51 53L53 53L53 52L55 52L55 51L53 51L53 50L52 50L52 51L51 51L51 53L50 53L50 52L49 52L49 53L50 53L50 54L48 54L48 53L45 53L45 52L46 52L46 51L47 51L47 49L48 49L48 48L50 48L50 50L51 50L51 49L53 49L53 48L56 48L56 51L59 51L59 49L60 49L60 48L61 48L61 47L60 47L60 46L59 46L59 49L57 49L57 48L58 48L58 47L56 47L56 46L53 46L53 47L49 47L49 46L47 46L47 45L45 45L45 44L47 44L47 43L46 43L46 42L49 42L49 41L47 41L47 40L48 40L48 39L47 39L47 40L45 40L45 39L42 39L42 38L40 38L40 37L43 37L43 36L44 36L44 37L45 37L45 38L48 38L48 37L45 37L45 36L49 36L49 37L50 37L50 36L51 36L51 35L48 35L48 34L51 34L51 33L52 33L52 34L53 34L53 33L55 33L55 32L53 32L53 31L55 31L55 30L53 30L53 28L54 28L54 27L53 27L53 28L52 28L52 27L51 27L51 26L52 26L52 25L53 25L53 24L54 24L54 23L55 23L55 22L53 22L53 20L56 20L56 23L57 23L57 24L58 24L58 23L59 23L59 22L60 22L60 21L59 21L59 20L58 20L58 19L57 19L57 18L59 18L59 17L60 17L60 16L59 16L59 12L58 12L58 13L57 13L57 12L56 12L56 13L55 13L55 14L54 14L54 15L55 15L55 16L56 16L56 18L55 18L55 19L53 19L53 18L51 18L51 17L54 17L54 16L53 16L53 14L52 14L52 16L51 16L51 15L50 15L50 14L47 14L47 12L46 12L46 13L45 13L45 12L44 12L44 13L45 13L45 15L47 15L47 16L48 16L48 15L49 15L49 17L48 17L48 18L51 18L51 19L50 19L50 20L49 20L49 21L46 21L46 20L47 20L47 19L44 19L44 18L47 18L47 17L45 17L45 16L44 16L44 14L42 14L42 15L40 15L40 14L39 14L39 13L40 13L40 12L41 12L41 10ZM66 10L66 11L67 11L67 10ZM17 11L17 12L18 12L18 11ZM19 12L19 13L20 13L20 14L21 14L21 13L22 13L22 14L23 14L23 13L24 13L24 12L21 12L21 13L20 13L20 12ZM4 13L4 15L6 15L6 16L7 16L7 15L6 15L6 14L5 14L5 13ZM11 13L11 14L12 14L12 13ZM56 13L56 15L57 15L57 17L59 17L59 16L58 16L58 14L57 14L57 13ZM38 14L38 16L40 16L40 15L39 15L39 14ZM21 15L21 16L22 16L22 15ZM33 15L33 16L34 16L34 15ZM50 16L50 17L51 17L51 16ZM34 17L34 18L35 18L35 17ZM6 19L6 20L7 20L7 19ZM23 19L23 20L24 20L24 19ZM40 19L40 20L39 20L39 21L40 21L40 22L41 22L41 19ZM52 19L52 20L50 20L50 21L49 21L49 23L50 23L50 21L52 21L52 20L53 20L53 19ZM2 20L2 21L3 21L3 20ZM9 20L9 21L10 21L10 20ZM12 20L12 21L13 21L13 20ZM57 20L57 21L58 21L58 20ZM19 21L19 22L20 22L20 21ZM21 21L21 22L22 22L22 21ZM29 21L29 22L26 22L26 24L27 24L27 23L28 23L28 25L27 25L27 26L28 26L28 27L30 27L30 26L31 26L31 24L32 24L32 23L31 23L31 22L30 22L30 21ZM29 22L29 23L30 23L30 22ZM44 22L44 23L45 23L45 24L46 24L46 25L47 25L47 27L49 27L49 28L46 28L46 29L47 29L47 31L46 31L46 30L45 30L45 29L44 29L44 30L43 30L43 31L44 31L44 32L43 32L43 33L40 33L40 36L43 36L43 35L41 35L41 34L43 34L43 33L44 33L44 36L45 36L45 33L49 33L49 30L50 30L50 28L51 28L51 30L52 30L52 31L51 31L51 32L52 32L52 31L53 31L53 30L52 30L52 28L51 28L51 27L50 27L50 25L49 25L49 24L48 24L48 23L47 23L47 24L46 24L46 22ZM13 23L13 24L14 24L14 23ZM37 23L37 24L35 24L35 25L34 25L34 24L33 24L33 25L32 25L32 26L33 26L33 27L31 27L31 28L28 28L28 29L29 29L29 31L31 31L31 30L33 30L33 29L34 29L34 28L33 28L33 27L34 27L34 26L36 26L36 27L35 27L35 28L36 28L36 29L38 29L38 28L39 28L39 29L40 29L40 28L39 28L39 27L37 27L37 26L38 26L38 25L37 25L37 24L39 24L39 23ZM3 24L3 25L4 25L4 24ZM21 24L21 25L22 25L22 24ZM29 24L29 25L28 25L28 26L29 26L29 25L30 25L30 24ZM47 24L47 25L48 25L48 24ZM33 25L33 26L34 26L34 25ZM63 25L63 26L64 26L64 25ZM57 26L57 27L58 27L58 26ZM11 28L11 29L13 29L13 28ZM31 28L31 29L32 29L32 28ZM48 29L48 30L49 30L49 29ZM63 29L63 30L65 30L65 29ZM1 30L1 31L2 31L2 34L4 34L4 33L3 33L3 30ZM45 31L45 32L44 32L44 33L45 33L45 32L46 32L46 31ZM5 33L5 36L8 36L8 33ZM31 33L31 36L32 36L32 33ZM33 33L33 36L36 36L36 33ZM61 33L61 36L64 36L64 33ZM6 34L6 35L7 35L7 34ZM29 34L29 35L30 35L30 34ZM34 34L34 35L35 35L35 34ZM62 34L62 35L63 35L63 34ZM26 35L26 36L27 36L27 37L28 37L28 36L27 36L27 35ZM67 35L67 36L68 36L68 35ZM6 38L6 39L5 39L5 40L4 40L4 39L3 39L3 40L4 40L4 41L5 41L5 40L6 40L6 41L7 41L7 40L8 40L8 39L7 39L7 38ZM15 38L15 39L16 39L16 38ZM29 38L29 39L30 39L30 38ZM37 38L37 39L38 39L38 41L39 41L39 40L41 40L41 39L38 39L38 38ZM49 38L49 39L50 39L50 40L51 40L51 41L50 41L50 43L48 43L48 44L50 44L50 46L51 46L51 45L53 45L53 44L54 44L54 45L55 45L55 44L54 44L54 43L55 43L55 42L53 42L53 43L52 43L52 44L50 44L50 43L51 43L51 41L54 41L54 40L51 40L51 39L50 39L50 38ZM55 38L55 39L56 39L56 38ZM6 39L6 40L7 40L7 39ZM34 39L34 41L35 41L35 39ZM12 40L12 41L13 41L13 40ZM29 40L29 41L30 41L30 40ZM58 41L58 42L59 42L59 41ZM21 42L21 44L22 44L22 42ZM31 42L31 43L29 43L29 44L31 44L31 43L32 43L32 42ZM44 42L44 44L45 44L45 42ZM0 43L0 44L1 44L1 43ZM18 43L18 44L19 44L19 43ZM26 44L26 45L27 45L27 44ZM61 44L61 46L62 46L62 44ZM13 45L13 47L17 47L17 48L18 48L18 49L21 49L21 48L22 48L22 49L23 49L23 50L24 50L24 49L23 49L23 48L24 48L24 47L23 47L23 48L22 48L22 47L21 47L21 48L20 48L20 47L19 47L19 46L18 46L18 47L17 47L17 45L15 45L15 46L14 46L14 45ZM32 46L32 47L33 47L33 46ZM39 46L39 47L40 47L40 46ZM45 47L45 49L46 49L46 47ZM47 47L47 48L48 48L48 47ZM0 48L0 49L1 49L1 51L0 51L0 52L1 52L1 51L2 51L2 49L1 49L1 48ZM6 49L6 50L7 50L7 49ZM27 49L27 50L28 50L28 49ZM64 50L64 51L65 51L65 50ZM4 51L4 52L5 52L5 51ZM9 51L9 52L10 52L10 51ZM36 52L36 53L38 53L38 52ZM60 52L60 53L59 53L59 54L60 54L60 53L61 53L61 52ZM2 53L2 54L3 54L3 55L4 55L4 56L5 56L5 55L4 55L4 54L7 54L7 53ZM10 54L10 55L9 55L9 56L10 56L10 55L11 55L11 54ZM37 54L37 56L39 56L39 57L37 57L37 58L39 58L39 57L41 57L41 56L39 56L39 54ZM40 54L40 55L42 55L42 54ZM1 55L1 56L2 56L2 55ZM17 55L17 56L18 56L18 55ZM59 55L59 56L60 56L60 55ZM10 57L10 59L9 59L9 60L10 60L10 61L11 61L11 62L10 62L10 63L11 63L11 62L12 62L12 61L13 61L13 59L12 59L12 58L11 58L11 57ZM21 57L21 58L22 58L22 57ZM60 57L60 58L59 58L59 60L60 60L60 59L61 59L61 57ZM62 57L62 58L63 58L63 57ZM0 58L0 61L1 61L1 58ZM2 58L2 59L3 59L3 58ZM45 58L45 61L47 61L47 62L50 62L50 61L51 61L51 59L50 59L50 61L49 61L49 60L46 60L46 58ZM21 59L21 60L23 60L23 61L24 61L24 60L23 60L23 59ZM52 59L52 60L53 60L53 59ZM3 60L3 61L5 61L5 60ZM41 60L41 62L42 62L42 63L44 63L44 64L45 64L45 66L46 66L46 64L45 64L45 63L46 63L46 62L45 62L45 63L44 63L44 62L43 62L43 61L44 61L44 60L43 60L43 61L42 61L42 60ZM57 60L57 61L58 61L58 60ZM33 61L33 64L36 64L36 61ZM61 61L61 64L64 64L64 61ZM34 62L34 63L35 63L35 62ZM62 62L62 63L63 63L63 62ZM65 62L65 63L66 63L66 62ZM50 63L50 64L51 64L51 63ZM67 63L67 64L68 64L68 63ZM59 64L59 65L58 65L58 66L60 66L60 64ZM36 65L36 66L37 66L37 65ZM10 66L10 68L12 68L12 67L11 67L11 66ZM27 67L27 68L28 68L28 67ZM29 67L29 68L30 68L30 67ZM47 67L47 68L49 68L49 67ZM33 68L33 69L34 69L34 68ZM58 68L58 69L59 69L59 68ZM0 0L0 7L7 7L7 0ZM1 1L1 6L6 6L6 1ZM2 2L2 5L5 5L5 2ZM62 0L62 7L69 7L69 0ZM63 1L63 6L68 6L68 1ZM64 2L64 5L67 5L67 2ZM0 62L0 69L7 69L7 62ZM1 63L1 68L6 68L6 63ZM2 64L2 67L5 67L5 64Z" fill="#000000"/></g></g></svg>
