<?xml version="1.0" encoding="UTF-8"?>
<svg xmlns="http://www.w3.org/2000/svg" version="1.1" width="300" height="300" viewBox="0 0 300 300"><rect x="0" y="0" width="300" height="300" fill="#ffffff"/><g transform="scale(4.348)"><g transform="translate(0,0)"><path fill-rule="evenodd" d="M9 0L9 1L10 1L10 0ZM14 0L14 3L15 3L15 6L14 6L14 4L13 4L13 2L12 2L12 1L11 1L11 4L9 4L9 3L10 3L10 2L9 2L9 3L8 3L8 5L11 5L11 6L10 6L10 8L9 8L9 10L6 10L6 11L5 11L5 10L4 10L4 9L2 9L2 8L0 8L0 9L2 9L2 10L4 10L4 13L3 13L3 17L0 17L0 18L1 18L1 19L2 19L2 21L1 21L1 22L3 22L3 23L2 23L2 24L1 24L1 23L0 23L0 24L1 24L1 25L0 25L0 26L2 26L2 27L4 27L4 28L2 28L2 29L1 29L1 27L0 27L0 29L1 29L1 31L0 31L0 34L1 34L1 32L2 32L2 34L3 34L3 31L4 31L4 30L3 30L3 29L4 29L4 28L5 28L5 32L4 32L4 37L5 37L5 39L7 39L7 40L5 40L5 41L3 41L3 40L4 40L4 39L1 39L1 37L0 37L0 39L1 39L1 40L0 40L0 41L1 41L1 42L0 42L0 43L1 43L1 44L0 44L0 45L1 45L1 46L0 46L0 47L1 47L1 49L0 49L0 50L1 50L1 52L0 52L0 54L2 54L2 56L1 56L1 57L2 57L2 59L3 59L3 57L4 57L4 59L7 59L7 60L6 60L6 61L7 61L7 60L8 60L8 59L7 59L7 58L9 58L9 61L8 61L8 64L9 64L9 62L10 62L10 65L9 65L9 66L10 66L10 65L11 65L11 66L12 66L12 67L11 67L11 69L12 69L12 67L13 67L13 68L14 68L14 69L16 69L16 65L17 65L17 69L19 69L19 65L20 65L20 64L22 64L22 63L20 63L20 61L21 61L21 62L23 62L23 63L24 63L24 64L23 64L23 66L22 66L22 65L21 65L21 66L20 66L20 67L21 67L21 66L22 66L22 68L23 68L23 69L24 69L24 68L26 68L26 67L27 67L27 69L28 69L28 68L29 68L29 69L32 69L32 68L30 68L30 67L31 67L31 66L30 66L30 67L28 67L28 66L29 66L29 65L32 65L32 66L34 66L34 67L33 67L33 69L34 69L34 67L35 67L35 68L36 68L36 69L38 69L38 68L37 68L37 67L38 67L38 65L39 65L39 66L40 66L40 65L39 65L39 64L38 64L38 59L41 59L41 58L42 58L42 60L43 60L43 57L44 57L44 58L45 58L45 60L44 60L44 61L45 61L45 62L44 62L44 63L45 63L45 65L46 65L46 64L47 64L47 65L48 65L48 66L47 66L47 67L46 67L46 68L48 68L48 69L49 69L49 68L48 68L48 66L50 66L50 67L52 67L52 66L53 66L53 67L55 67L55 68L57 68L57 69L63 69L63 68L60 68L60 67L62 67L62 66L63 66L63 65L65 65L65 64L68 64L68 65L69 65L69 63L68 63L68 61L69 61L69 59L68 59L68 58L69 58L69 57L68 57L68 56L69 56L69 53L68 53L68 56L67 56L67 55L65 55L65 54L64 54L64 52L65 52L65 53L66 53L66 52L69 52L69 51L68 51L68 50L69 50L69 47L68 47L68 46L69 46L69 45L68 45L68 46L67 46L67 44L68 44L68 43L69 43L69 39L68 39L68 38L66 38L66 37L65 37L65 36L67 36L67 35L68 35L68 37L69 37L69 35L68 35L68 34L67 34L67 33L66 33L66 32L68 32L68 31L69 31L69 29L67 29L67 30L68 30L68 31L66 31L66 30L65 30L65 29L66 29L66 28L68 28L68 26L67 26L67 24L68 24L68 22L69 22L69 21L68 21L68 19L69 19L69 17L67 17L67 15L68 15L68 13L69 13L69 11L68 11L68 9L66 9L66 8L64 8L64 10L65 10L65 11L64 11L64 14L65 14L65 15L64 15L64 16L66 16L66 20L65 20L65 21L66 21L66 20L67 20L67 22L63 22L63 19L62 19L62 16L59 16L59 15L60 15L60 14L62 14L62 15L63 15L63 14L62 14L62 12L63 12L63 11L62 11L62 10L63 10L63 9L60 9L60 8L61 8L61 6L60 6L60 7L59 7L59 4L58 4L58 3L59 3L59 2L58 2L58 1L61 1L61 0L58 0L58 1L57 1L57 0L56 0L56 1L55 1L55 0L54 0L54 1L53 1L53 0L52 0L52 2L51 2L51 5L49 5L49 3L50 3L50 1L51 1L51 0L50 0L50 1L47 1L47 0L46 0L46 1L47 1L47 2L48 2L48 3L46 3L46 4L47 4L47 5L49 5L49 6L48 6L48 7L47 7L47 6L46 6L46 7L47 7L47 9L46 9L46 8L45 8L45 10L50 10L50 11L49 11L49 12L48 12L48 13L47 13L47 11L43 11L43 13L42 13L42 10L44 10L44 8L43 8L43 9L40 9L40 8L41 8L41 6L42 6L42 7L43 7L43 5L44 5L44 7L45 7L45 5L44 5L44 4L45 4L45 2L44 2L44 3L43 3L43 1L44 1L44 0L42 0L42 2L41 2L41 0L40 0L40 2L39 2L39 0L37 0L37 1L36 1L36 0L32 0L32 2L31 2L31 1L30 1L30 0L29 0L29 1L28 1L28 3L26 3L26 1L27 1L27 0L24 0L24 1L25 1L25 2L24 2L24 3L25 3L25 4L23 4L23 0L18 0L18 1L16 1L16 0ZM20 1L20 2L18 2L18 3L20 3L20 6L19 6L19 5L18 5L18 6L17 6L17 2L15 2L15 3L16 3L16 6L15 6L15 7L16 7L16 6L17 6L17 7L18 7L18 8L19 8L19 9L21 9L21 8L20 8L20 6L21 6L21 7L22 7L22 9L24 9L24 10L23 10L23 11L22 11L22 10L21 10L21 13L20 13L20 10L16 10L16 9L17 9L17 8L15 8L15 9L13 9L13 11L12 11L12 6L13 6L13 7L14 7L14 6L13 6L13 4L11 4L11 5L12 5L12 6L11 6L11 14L8 14L8 15L9 15L9 16L7 16L7 15L6 15L6 14L7 14L7 13L9 13L9 11L8 11L8 12L7 12L7 11L6 11L6 12L5 12L5 13L6 13L6 14L5 14L5 15L4 15L4 17L3 17L3 20L4 20L4 17L6 17L6 18L5 18L5 19L6 19L6 20L7 20L7 19L6 19L6 18L8 18L8 19L9 19L9 16L10 16L10 15L11 15L11 14L12 14L12 15L13 15L13 14L14 14L14 13L15 13L15 12L16 12L16 13L18 13L18 12L19 12L19 13L20 13L20 15L22 15L22 14L23 14L23 15L24 15L24 14L23 14L23 13L22 13L22 12L23 12L23 11L24 11L24 12L25 12L25 13L26 13L26 12L27 12L27 13L28 13L28 14L30 14L30 15L27 15L27 14L25 14L25 15L27 15L27 16L24 16L24 17L26 17L26 19L25 19L25 18L23 18L23 16L19 16L19 14L18 14L18 15L16 15L16 16L15 16L15 19L14 19L14 17L13 17L13 16L11 16L11 17L13 17L13 20L12 20L12 19L10 19L10 20L8 20L8 21L6 21L6 22L9 22L9 23L5 23L5 22L4 22L4 23L3 23L3 24L2 24L2 26L4 26L4 23L5 23L5 24L8 24L8 27L6 27L6 26L7 26L7 25L5 25L5 27L6 27L6 28L8 28L8 29L6 29L6 30L7 30L7 31L6 31L6 32L8 32L8 29L9 29L9 33L10 33L10 30L11 30L11 31L12 31L12 32L14 32L14 34L13 34L13 35L10 35L10 34L9 34L9 35L10 35L10 36L9 36L9 39L8 39L8 40L7 40L7 41L5 41L5 42L4 42L4 43L3 43L3 41L2 41L2 42L1 42L1 43L2 43L2 44L1 44L1 45L2 45L2 46L3 46L3 44L4 44L4 46L5 46L5 47L3 47L3 48L2 48L2 50L3 50L3 51L2 51L2 52L3 52L3 53L4 53L4 54L3 54L3 55L4 55L4 57L5 57L5 56L7 56L7 55L4 55L4 54L5 54L5 53L6 53L6 54L7 54L7 53L8 53L8 56L9 56L9 58L10 58L10 59L11 59L11 58L12 58L12 60L13 60L13 61L11 61L11 62L13 62L13 64L12 64L12 66L13 66L13 65L14 65L14 63L15 63L15 64L17 64L17 65L18 65L18 64L17 64L17 63L18 63L18 62L19 62L19 61L18 61L18 60L19 60L19 59L20 59L20 60L21 60L21 59L20 59L20 58L19 58L19 59L17 59L17 61L16 61L16 60L15 60L15 61L16 61L16 63L15 63L15 62L14 62L14 58L12 58L12 56L11 56L11 55L10 55L10 52L9 52L9 51L10 51L10 50L9 50L9 49L11 49L11 48L12 48L12 49L13 49L13 50L11 50L11 52L14 52L14 53L15 53L15 51L16 51L16 52L17 52L17 53L16 53L16 55L15 55L15 54L14 54L14 55L13 55L13 53L11 53L11 54L12 54L12 55L13 55L13 56L14 56L14 57L15 57L15 56L16 56L16 58L17 58L17 56L19 56L19 57L21 57L21 58L22 58L22 55L23 55L23 56L24 56L24 55L25 55L25 56L26 56L26 57L30 57L30 56L28 56L28 55L29 55L29 54L30 54L30 53L28 53L28 55L26 55L26 54L27 54L27 52L28 52L28 51L29 51L29 49L30 49L30 51L31 51L31 53L33 53L33 51L32 51L32 50L33 50L33 49L34 49L34 51L36 51L36 50L37 50L37 51L38 51L38 52L36 52L36 53L35 53L35 52L34 52L34 55L32 55L32 56L31 56L31 57L32 57L32 58L31 58L31 59L33 59L33 60L35 60L35 59L37 59L37 58L36 58L36 57L35 57L35 56L36 56L36 55L37 55L37 56L38 56L38 57L39 57L39 58L41 58L41 56L40 56L40 55L37 55L37 53L38 53L38 52L39 52L39 49L40 49L40 50L41 50L41 51L40 51L40 53L41 53L41 55L43 55L43 56L42 56L42 57L43 57L43 56L44 56L44 57L46 57L46 56L47 56L47 55L48 55L48 53L46 53L46 54L47 54L47 55L45 55L45 54L44 54L44 53L45 53L45 51L46 51L46 52L47 52L47 51L49 51L49 55L51 55L51 56L50 56L50 57L55 57L55 58L50 58L50 59L48 59L48 58L49 58L49 57L48 57L48 58L46 58L46 60L47 60L47 61L46 61L46 62L45 62L45 63L47 63L47 64L48 64L48 63L49 63L49 64L50 64L50 66L51 66L51 65L53 65L53 64L52 64L52 63L54 63L54 65L55 65L55 66L56 66L56 65L57 65L57 68L59 68L59 67L60 67L60 65L59 65L59 64L60 64L60 62L59 62L59 61L58 61L58 60L57 60L57 59L59 59L59 60L64 60L64 59L63 59L63 58L62 58L62 56L59 56L59 53L61 53L61 48L62 48L62 54L60 54L60 55L62 55L62 54L63 54L63 57L66 57L66 58L65 58L65 59L67 59L67 56L64 56L64 54L63 54L63 52L64 52L64 51L63 51L63 48L65 48L65 47L66 47L66 44L65 44L65 43L64 43L64 42L66 42L66 41L68 41L68 40L65 40L65 37L62 37L62 38L61 38L61 37L60 37L60 38L59 38L59 36L60 36L60 35L59 35L59 34L57 34L57 33L60 33L60 32L59 32L59 29L61 29L61 27L62 27L62 30L61 30L61 31L62 31L62 30L63 30L63 31L64 31L64 30L63 30L63 29L65 29L65 28L66 28L66 27L65 27L65 25L64 25L64 24L65 24L65 23L62 23L62 22L61 22L61 23L62 23L62 26L61 26L61 27L60 27L60 26L59 26L59 25L58 25L58 26L57 26L57 25L55 25L55 27L53 27L53 28L51 28L51 29L50 29L50 30L51 30L51 29L52 29L52 30L53 30L53 31L50 31L50 32L51 32L51 33L52 33L52 35L51 35L51 37L48 37L48 36L49 36L49 33L48 33L48 36L47 36L47 34L45 34L45 32L48 32L48 30L49 30L49 29L48 29L48 30L47 30L47 28L49 28L49 27L51 27L51 25L52 25L52 26L53 26L53 25L54 25L54 24L53 24L53 25L52 25L52 23L53 23L53 22L54 22L54 23L55 23L55 22L54 22L54 21L53 21L53 20L51 20L51 19L50 19L50 18L52 18L52 19L53 19L53 18L52 18L52 17L54 17L54 16L53 16L53 15L52 15L52 16L51 16L51 14L53 14L53 13L56 13L56 14L54 14L54 15L55 15L55 16L56 16L56 17L55 17L55 18L54 18L54 20L56 20L56 21L57 21L57 22L56 22L56 23L57 23L57 24L58 24L58 21L60 21L60 20L62 20L62 19L61 19L61 18L60 18L60 20L59 20L59 19L58 19L58 18L59 18L59 17L58 17L58 18L57 18L57 16L58 16L58 15L59 15L59 13L61 13L61 12L60 12L60 11L59 11L59 10L60 10L60 9L59 9L59 10L51 10L51 11L52 11L52 12L51 12L51 13L50 13L50 12L49 12L49 13L50 13L50 14L47 14L47 13L46 13L46 12L45 12L45 13L43 13L43 14L42 14L42 13L41 13L41 10L40 10L40 11L39 11L39 10L36 10L36 9L31 9L31 8L32 8L32 5L30 5L30 4L25 4L25 7L26 7L26 9L29 9L29 13L28 13L28 11L27 11L27 10L26 10L26 12L25 12L25 9L24 9L24 8L23 8L23 7L24 7L24 6L23 6L23 5L21 5L21 2L22 2L22 1ZM34 1L34 2L32 2L32 3L33 3L33 4L35 4L35 3L36 3L36 2L35 2L35 1ZM56 1L56 2L57 2L57 1ZM30 2L30 3L31 3L31 2ZM37 2L37 3L39 3L39 2ZM40 2L40 3L41 3L41 4L40 4L40 6L39 6L39 4L37 4L37 5L38 5L38 6L37 6L37 9L39 9L39 7L40 7L40 6L41 6L41 4L43 4L43 3L41 3L41 2ZM52 2L52 3L53 3L53 4L52 4L52 5L51 5L51 7L50 7L50 6L49 6L49 7L50 7L50 8L51 8L51 9L54 9L54 8L56 8L56 9L58 9L58 8L59 8L59 7L58 7L58 6L57 6L57 5L58 5L58 4L57 4L57 5L55 5L55 7L54 7L54 5L53 5L53 4L54 4L54 3L55 3L55 2ZM60 3L60 5L61 5L61 3ZM27 5L27 6L26 6L26 7L27 7L27 8L28 8L28 7L29 7L29 6L30 6L30 7L31 7L31 6L30 6L30 5ZM33 5L33 8L36 8L36 5ZM52 5L52 7L51 7L51 8L52 8L52 7L53 7L53 8L54 8L54 7L53 7L53 5ZM8 6L8 7L9 7L9 6ZM18 6L18 7L19 7L19 6ZM22 6L22 7L23 7L23 6ZM27 6L27 7L28 7L28 6ZM34 6L34 7L35 7L35 6ZM38 6L38 7L39 7L39 6ZM56 6L56 8L57 8L57 6ZM5 8L5 9L8 9L8 8ZM29 8L29 9L30 9L30 11L32 11L32 10L31 10L31 9L30 9L30 8ZM14 10L14 11L13 11L13 12L15 12L15 11L16 11L16 10ZM33 10L33 12L32 12L32 13L34 13L34 11L36 11L36 10ZM66 10L66 11L67 11L67 12L68 12L68 11L67 11L67 10ZM0 11L0 13L1 13L1 14L0 14L0 15L1 15L1 14L2 14L2 12L3 12L3 11L2 11L2 12L1 12L1 11ZM37 11L37 12L39 12L39 11ZM54 11L54 12L56 12L56 13L57 13L57 15L58 15L58 13L57 13L57 12L58 12L58 11ZM6 12L6 13L7 13L7 12ZM30 12L30 14L31 14L31 16L29 16L29 17L31 17L31 16L32 16L32 19L31 19L31 18L30 18L30 19L29 19L29 18L28 18L28 19L29 19L29 20L30 20L30 21L28 21L28 20L27 20L27 21L26 21L26 20L25 20L25 19L24 19L24 20L23 20L23 21L22 21L22 24L23 24L23 23L25 23L25 22L27 22L27 23L26 23L26 25L27 25L27 26L26 26L26 27L25 27L25 24L24 24L24 26L23 26L23 27L24 27L24 29L22 29L22 31L21 31L21 30L20 30L20 28L19 28L19 27L20 27L20 25L19 25L19 24L20 24L20 23L18 23L18 26L19 26L19 27L17 27L17 22L21 22L21 21L20 21L20 20L22 20L22 18L21 18L21 17L18 17L18 16L17 16L17 17L18 17L18 18L16 18L16 19L18 19L18 18L19 18L19 20L15 20L15 21L14 21L14 23L15 23L15 24L14 24L14 25L15 25L15 26L13 26L13 24L12 24L12 22L13 22L13 21L9 21L9 22L11 22L11 24L12 24L12 26L10 26L10 27L8 27L8 28L9 28L9 29L11 29L11 30L12 30L12 31L14 31L14 32L16 32L16 33L15 33L15 35L14 35L14 37L13 37L13 36L12 36L12 37L11 37L11 38L10 38L10 39L11 39L11 38L12 38L12 41L10 41L10 40L8 40L8 42L6 42L6 43L8 43L8 44L5 44L5 45L9 45L9 46L8 46L8 47L10 47L10 48L11 48L11 47L10 47L10 46L11 46L11 45L13 45L13 46L12 46L12 47L13 47L13 48L14 48L14 50L16 50L16 48L17 48L17 47L18 47L18 46L20 46L20 48L19 48L19 49L18 49L18 50L17 50L17 52L18 52L18 53L17 53L17 54L18 54L18 55L19 55L19 54L20 54L20 56L21 56L21 54L20 54L20 53L19 53L19 52L20 52L20 51L24 51L24 53L23 53L23 55L24 55L24 54L26 54L26 52L25 52L25 51L24 51L24 50L26 50L26 51L27 51L27 50L26 50L26 49L27 49L27 48L28 48L28 49L29 49L29 48L30 48L30 49L31 49L31 50L32 50L32 48L30 48L30 47L31 47L31 46L30 46L30 45L32 45L32 47L33 47L33 48L34 48L34 49L35 49L35 50L36 50L36 47L37 47L37 50L38 50L38 49L39 49L39 48L38 48L38 47L37 47L37 46L39 46L39 45L38 45L38 40L37 40L37 39L38 39L38 38L37 38L37 39L36 39L36 37L37 37L37 34L40 34L40 37L39 37L39 36L38 36L38 37L39 37L39 39L40 39L40 38L43 38L43 39L44 39L44 40L41 40L41 41L39 41L39 42L42 42L42 43L41 43L41 44L40 44L40 45L42 45L42 46L40 46L40 47L41 47L41 48L40 48L40 49L41 49L41 50L42 50L42 51L45 51L45 50L46 50L46 49L47 49L47 48L44 48L44 47L47 47L47 46L50 46L50 48L48 48L48 49L49 49L49 50L50 50L50 53L51 53L51 52L55 52L55 53L52 53L52 54L53 54L53 55L52 55L52 56L53 56L53 55L54 55L54 54L56 54L56 55L57 55L57 56L58 56L58 57L56 57L56 56L55 56L55 57L56 57L56 58L55 58L55 59L53 59L53 60L52 60L52 62L54 62L54 63L55 63L55 65L56 65L56 64L57 64L57 65L58 65L58 64L57 64L57 62L58 62L58 63L59 63L59 62L58 62L58 61L57 61L57 60L56 60L56 58L59 58L59 59L60 59L60 58L59 58L59 56L58 56L58 55L57 55L57 54L56 54L56 52L57 52L57 51L56 51L56 50L55 50L55 48L53 48L53 47L51 47L51 44L52 44L52 43L51 43L51 42L50 42L50 41L51 41L51 40L52 40L52 39L51 39L51 38L54 38L54 39L53 39L53 40L56 40L56 39L57 39L57 38L58 38L58 37L57 37L57 35L56 35L56 34L55 34L55 33L56 33L56 32L55 32L55 31L58 31L58 29L59 29L59 28L58 28L58 27L55 27L55 28L53 28L53 30L54 30L54 31L53 31L53 32L54 32L54 33L53 33L53 34L55 34L55 35L54 35L54 36L52 36L52 37L51 37L51 38L46 38L46 35L45 35L45 34L44 34L44 37L42 37L42 36L43 36L43 35L41 35L41 34L43 34L43 33L44 33L44 32L45 32L45 30L46 30L46 31L47 31L47 30L46 30L46 29L44 29L44 28L43 28L43 27L46 27L46 28L47 28L47 27L46 27L46 25L45 25L45 24L44 24L44 25L45 25L45 26L43 26L43 22L44 22L44 23L46 23L46 22L53 22L53 21L51 21L51 20L50 20L50 19L49 19L49 20L48 20L48 19L47 19L47 18L46 18L46 17L49 17L49 18L50 18L50 16L49 16L49 15L48 15L48 16L46 16L46 15L47 15L47 14L46 14L46 13L45 13L45 18L46 18L46 19L45 19L45 20L46 20L46 21L44 21L44 20L43 20L43 21L40 21L40 20L41 20L41 19L40 19L40 17L39 17L39 15L38 15L38 13L36 13L36 14L35 14L35 15L34 15L34 16L35 16L35 17L34 17L34 18L33 18L33 15L32 15L32 14L31 14L31 12ZM52 12L52 13L53 13L53 12ZM65 12L65 14L67 14L67 13L66 13L66 12ZM12 13L12 14L13 14L13 13ZM21 13L21 14L22 14L22 13ZM40 13L40 16L41 16L41 15L42 15L42 14L41 14L41 13ZM43 14L43 15L44 15L44 14ZM5 15L5 16L6 16L6 17L7 17L7 16L6 16L6 15ZM35 15L35 16L36 16L36 15ZM37 15L37 16L38 16L38 15ZM42 16L42 17L41 17L41 18L42 18L42 19L44 19L44 18L43 18L43 17L44 17L44 16ZM35 17L35 18L34 18L34 20L33 20L33 19L32 19L32 20L31 20L31 21L30 21L30 22L29 22L29 23L30 23L30 22L32 22L32 24L33 24L33 25L32 25L32 26L31 26L31 27L32 27L32 28L31 28L31 29L28 29L28 30L31 30L31 31L30 31L30 32L31 32L31 31L32 31L32 32L33 32L33 31L32 31L32 30L31 30L31 29L32 29L32 28L33 28L33 25L34 25L34 24L35 24L35 22L37 22L37 23L36 23L36 24L37 24L37 23L39 23L39 22L40 22L40 21L38 21L38 20L37 20L37 21L35 21L35 20L36 20L36 18L37 18L37 17ZM38 17L38 18L39 18L39 17ZM64 17L64 19L65 19L65 17ZM20 18L20 19L21 19L21 18ZM67 18L67 19L68 19L68 18ZM46 19L46 20L47 20L47 21L48 21L48 20L47 20L47 19ZM32 20L32 22L35 22L35 21L33 21L33 20ZM49 20L49 21L50 21L50 20ZM57 20L57 21L58 21L58 20ZM37 21L37 22L38 22L38 21ZM15 22L15 23L16 23L16 22ZM41 22L41 23L40 23L40 24L38 24L38 26L37 26L37 27L39 27L39 25L40 25L40 26L41 26L41 25L40 25L40 24L41 24L41 23L42 23L42 22ZM59 22L59 23L60 23L60 22ZM27 23L27 25L28 25L28 27L29 27L29 25L28 25L28 23ZM33 23L33 24L34 24L34 23ZM47 23L47 26L48 26L48 27L49 27L49 26L50 26L50 25L51 25L51 23L50 23L50 24L48 24L48 23ZM9 24L9 25L10 25L10 24ZM48 25L48 26L49 26L49 25ZM21 26L21 27L22 27L22 26ZM34 26L34 27L36 27L36 26ZM13 27L13 29L12 29L12 28L11 28L11 29L12 29L12 30L13 30L13 29L15 29L15 27ZM16 27L16 30L15 30L15 31L16 31L16 32L17 32L17 33L18 33L18 32L17 32L17 30L19 30L19 31L20 31L20 33L19 33L19 34L20 34L20 35L19 35L19 36L21 36L21 37L20 37L20 38L19 38L19 39L17 39L17 37L18 37L18 36L17 36L17 37L16 37L16 35L18 35L18 34L16 34L16 35L15 35L15 37L14 37L14 38L13 38L13 39L14 39L14 40L13 40L13 43L11 43L11 42L10 42L10 41L9 41L9 42L8 42L8 43L9 43L9 44L10 44L10 43L11 43L11 44L13 44L13 43L14 43L14 44L15 44L15 45L14 45L14 46L15 46L15 45L17 45L17 46L18 46L18 45L17 45L17 44L19 44L19 41L18 41L18 40L19 40L19 39L20 39L20 45L24 45L24 44L26 44L26 45L25 45L25 47L23 47L23 46L22 46L22 48L21 48L21 49L22 49L22 48L23 48L23 50L24 50L24 49L25 49L25 47L26 47L26 48L27 48L27 46L26 46L26 45L27 45L27 44L29 44L29 45L30 45L30 44L32 44L32 43L34 43L34 44L33 44L33 47L34 47L34 46L35 46L35 47L36 47L36 46L37 46L37 44L36 44L36 43L37 43L37 42L36 42L36 41L37 41L37 40L35 40L35 39L33 39L33 38L35 38L35 37L32 37L32 34L31 34L31 37L32 37L32 38L30 38L30 36L29 36L29 37L28 37L28 36L27 36L27 37L28 37L28 38L26 38L26 35L27 35L27 34L26 34L26 33L25 33L25 32L26 32L26 31L27 31L27 28L26 28L26 29L25 29L25 31L24 31L24 30L23 30L23 31L24 31L24 32L21 32L21 31L20 31L20 30L19 30L19 29L17 29L17 27ZM41 27L41 28L40 28L40 30L42 30L42 31L43 31L43 32L40 32L40 31L39 31L39 28L38 28L38 29L37 29L37 31L39 31L39 33L40 33L40 34L41 34L41 33L43 33L43 32L44 32L44 30L42 30L42 27ZM63 27L63 28L65 28L65 27ZM34 28L34 29L35 29L35 30L34 30L34 31L36 31L36 28ZM56 28L56 29L55 29L55 30L56 30L56 29L57 29L57 28ZM2 30L2 31L3 31L3 30ZM28 32L28 34L29 34L29 35L30 35L30 33L29 33L29 32ZM5 33L5 36L8 36L8 33ZM11 33L11 34L12 34L12 33ZM20 33L20 34L22 34L22 35L21 35L21 36L22 36L22 38L20 38L20 39L21 39L21 44L24 44L24 41L26 41L26 42L28 42L28 41L26 41L26 38L25 38L25 37L23 37L23 36L22 36L22 35L23 35L23 34L25 34L25 35L24 35L24 36L25 36L25 35L26 35L26 34L25 34L25 33ZM33 33L33 36L36 36L36 33ZM61 33L61 36L64 36L64 33ZM65 33L65 35L67 35L67 34L66 34L66 33ZM6 34L6 35L7 35L7 34ZM34 34L34 35L35 35L35 34ZM62 34L62 35L63 35L63 34ZM0 35L0 36L2 36L2 38L3 38L3 36L2 36L2 35ZM55 35L55 36L54 36L54 37L55 37L55 39L56 39L56 35ZM6 37L6 38L8 38L8 37ZM15 37L15 40L16 40L16 37ZM22 38L22 39L25 39L25 38ZM29 38L29 39L30 39L30 38ZM31 39L31 40L32 40L32 41L30 41L30 40L29 40L29 41L30 41L30 42L31 42L31 43L32 43L32 42L34 42L34 43L35 43L35 42L34 42L34 41L33 41L33 39ZM45 39L45 40L44 40L44 46L45 46L45 43L46 43L46 45L47 45L47 43L48 43L48 44L49 44L49 45L50 45L50 43L48 43L48 42L49 42L49 41L50 41L50 40L51 40L51 39L50 39L50 40L49 40L49 39ZM61 39L61 40L60 40L60 41L61 41L61 42L59 42L59 43L58 43L58 44L57 44L57 43L55 43L55 42L56 42L56 41L53 41L53 42L54 42L54 43L53 43L53 44L54 44L54 45L52 45L52 46L54 46L54 47L55 47L55 46L56 46L56 47L57 47L57 48L56 48L56 49L57 49L57 48L58 48L58 46L60 46L60 45L59 45L59 43L61 43L61 42L62 42L62 43L63 43L63 44L62 44L62 45L61 45L61 47L62 47L62 45L63 45L63 46L64 46L64 47L65 47L65 45L63 45L63 44L64 44L64 43L63 43L63 42L64 42L64 41L65 41L65 40L64 40L64 41L63 41L63 42L62 42L62 41L61 41L61 40L62 40L62 39ZM22 40L22 43L23 43L23 41L24 41L24 40ZM47 40L47 42L48 42L48 41L49 41L49 40ZM14 41L14 43L15 43L15 41ZM17 41L17 42L16 42L16 43L18 43L18 41ZM45 41L45 42L46 42L46 41ZM57 41L57 42L58 42L58 41ZM9 42L9 43L10 43L10 42ZM26 43L26 44L27 44L27 43ZM29 43L29 44L30 44L30 43ZM35 44L35 45L36 45L36 44ZM55 44L55 45L57 45L57 44ZM6 46L6 47L7 47L7 46ZM42 46L42 48L43 48L43 50L44 50L44 48L43 48L43 46ZM14 47L14 48L16 48L16 47ZM67 47L67 48L66 48L66 49L68 49L68 47ZM3 48L3 49L5 49L5 51L3 51L3 52L4 52L4 53L5 53L5 52L6 52L6 53L7 53L7 52L8 52L8 51L9 51L9 50L6 50L6 49L8 49L8 48L6 48L6 49L5 49L5 48ZM59 48L59 50L58 50L58 51L60 51L60 48ZM50 49L50 50L51 50L51 49ZM64 49L64 50L65 50L65 49ZM19 50L19 51L20 51L20 50ZM53 50L53 51L54 51L54 50ZM66 50L66 51L65 51L65 52L66 52L66 51L67 51L67 50ZM6 51L6 52L7 52L7 51ZM55 51L55 52L56 52L56 51ZM42 52L42 54L43 54L43 55L44 55L44 56L45 56L45 55L44 55L44 54L43 54L43 53L44 53L44 52ZM18 53L18 54L19 54L19 53ZM9 55L9 56L10 56L10 58L11 58L11 56L10 56L10 55ZM14 55L14 56L15 56L15 55ZM34 55L34 56L35 56L35 55ZM2 56L2 57L3 57L3 56ZM6 57L6 58L7 58L7 57ZM23 57L23 58L24 58L24 57ZM34 57L34 59L35 59L35 57ZM0 58L0 61L1 61L1 58ZM26 58L26 59L25 59L25 60L24 60L24 59L22 59L22 60L23 60L23 61L25 61L25 62L24 62L24 63L25 63L25 64L28 64L28 65L29 65L29 64L30 64L30 62L29 62L29 61L30 61L30 58L29 58L29 60L28 60L28 62L29 62L29 64L28 64L28 63L25 63L25 62L26 62L26 60L27 60L27 59L28 59L28 58ZM61 58L61 59L62 59L62 58ZM50 59L50 60L51 60L51 59ZM3 60L3 61L5 61L5 60ZM31 60L31 63L32 63L32 60ZM39 60L39 61L41 61L41 62L42 62L42 63L43 63L43 61L41 61L41 60ZM48 60L48 61L47 61L47 62L50 62L50 61L49 61L49 60ZM54 60L54 61L55 61L55 63L56 63L56 60ZM65 60L65 61L67 61L67 60ZM33 61L33 64L36 64L36 61ZM61 61L61 64L64 64L64 61ZM34 62L34 63L35 63L35 62ZM62 62L62 63L63 63L63 62ZM65 62L65 63L66 63L66 62ZM19 63L19 64L20 64L20 63ZM50 63L50 64L51 64L51 63ZM37 64L37 65L34 65L34 66L36 66L36 67L37 67L37 65L38 65L38 64ZM41 64L41 67L40 67L40 68L41 68L41 67L42 67L42 69L44 69L44 68L45 68L45 67L44 67L44 64ZM25 65L25 66L27 66L27 65ZM66 65L66 67L65 67L65 66L64 66L64 67L65 67L65 68L64 68L64 69L68 69L68 68L67 68L67 67L69 67L69 66L67 66L67 65ZM14 66L14 68L15 68L15 66ZM42 66L42 67L43 67L43 68L44 68L44 67L43 67L43 66ZM8 67L8 69L10 69L10 68L9 68L9 67ZM20 68L20 69L21 69L21 68ZM53 68L53 69L54 69L54 68ZM0 0L0 7L7 7L7 0ZM1 1L1 6L6 6L6 1ZM2 2L2 5L5 5L5 2ZM62 0L62 7L69 7L69 0ZM63 1L63 6L68 6L68 1ZM64 2L64 5L67 5L67 2ZM0 62L0 69L7 69L7 62ZM1 63L1 68L6 68L6 63ZM2 64L2 67L5 67L5 64Z" fill="#000000"/></g></g></svg>
