<?xml version="1.0" encoding="UTF-8"?>
<svg xmlns="http://www.w3.org/2000/svg" version="1.1" width="300" height="300" viewBox="0 0 300 300"><rect x="0" y="0" width="300" height="300" fill="#ffffff"/><g transform="scale(4.348)"><g transform="translate(0,0)"><path fill-rule="evenodd" d="M8 0L8 1L9 1L9 2L10 2L10 3L12 3L12 4L11 4L11 5L10 5L10 4L9 4L9 5L10 5L10 7L9 7L9 6L8 6L8 8L9 8L9 9L10 9L10 10L9 10L9 11L7 11L7 10L8 10L8 9L7 9L7 8L6 8L6 9L5 9L5 8L3 8L3 9L2 9L2 8L0 8L0 12L2 12L2 13L0 13L0 15L2 15L2 16L0 16L0 20L2 20L2 21L0 21L0 23L1 23L1 22L2 22L2 23L4 23L4 22L2 22L2 21L4 21L4 20L3 20L3 19L4 19L4 18L5 18L5 16L6 16L6 17L7 17L7 18L6 18L6 19L5 19L5 20L6 20L6 21L5 21L5 22L6 22L6 23L5 23L5 24L3 24L3 25L4 25L4 26L3 26L3 27L4 27L4 28L3 28L3 29L4 29L4 28L6 28L6 29L5 29L5 31L4 31L4 32L3 32L3 35L2 35L2 34L1 34L1 33L0 33L0 35L2 35L2 36L1 36L1 37L0 37L0 40L1 40L1 41L0 41L0 47L2 47L2 46L3 46L3 45L5 45L5 44L4 44L4 43L7 43L7 44L6 44L6 45L7 45L7 46L6 46L6 47L7 47L7 46L9 46L9 45L10 45L10 44L11 44L11 45L12 45L12 46L13 46L13 47L15 47L15 48L13 48L13 49L12 49L12 50L9 50L9 49L8 49L8 48L9 48L9 47L8 47L8 48L6 48L6 49L7 49L7 50L6 50L6 51L7 51L7 50L9 50L9 52L10 52L10 51L11 51L11 52L12 52L12 50L16 50L16 47L15 47L15 46L21 46L21 47L20 47L20 48L19 48L19 49L18 49L18 51L16 51L16 53L14 53L14 51L13 51L13 53L14 53L14 54L13 54L13 57L12 57L12 56L11 56L11 55L12 55L12 54L11 54L11 53L8 53L8 54L9 54L9 55L8 55L8 56L6 56L6 55L7 55L7 54L6 54L6 55L5 55L5 54L4 54L4 57L5 57L5 56L6 56L6 57L8 57L8 56L9 56L9 58L4 58L4 59L7 59L7 60L6 60L6 61L8 61L8 62L9 62L9 61L8 61L8 59L9 59L9 60L10 60L10 63L11 63L11 65L9 65L9 64L8 64L8 66L10 66L10 67L8 67L8 69L11 69L11 67L12 67L12 66L13 66L13 68L14 68L14 69L16 69L16 66L17 66L17 67L18 67L18 66L19 66L19 65L21 65L21 66L20 66L20 67L19 67L19 68L17 68L17 69L19 69L19 68L20 68L20 69L25 69L25 68L28 68L28 66L29 66L29 65L27 65L27 66L26 66L26 67L25 67L25 68L23 68L23 67L24 67L24 66L25 66L25 65L26 65L26 64L24 64L24 63L25 63L25 62L26 62L26 63L27 63L27 64L29 64L29 62L30 62L30 65L31 65L31 67L29 67L29 68L30 68L30 69L31 69L31 68L32 68L32 65L33 65L33 66L34 66L34 68L33 68L33 69L39 69L39 68L40 68L40 69L41 69L41 68L40 68L40 67L42 67L42 66L43 66L43 68L44 68L44 65L45 65L45 66L46 66L46 67L45 67L45 69L46 69L46 68L47 68L47 69L50 69L50 68L48 68L48 67L49 67L49 66L50 66L50 67L51 67L51 68L52 68L52 69L54 69L54 68L57 68L57 67L59 67L59 68L60 68L60 69L62 69L62 68L64 68L64 69L67 69L67 68L69 68L69 66L67 66L67 65L66 65L66 64L68 64L68 65L69 65L69 63L67 63L67 61L68 61L68 62L69 62L69 60L68 60L68 59L69 59L69 56L68 56L68 55L69 55L69 49L68 49L68 48L67 48L67 47L69 47L69 45L68 45L68 46L67 46L67 44L69 44L69 41L68 41L68 43L67 43L67 41L65 41L65 40L64 40L64 43L63 43L63 42L62 42L62 41L63 41L63 40L56 40L56 39L58 39L58 36L60 36L60 37L59 37L59 38L60 38L60 37L65 37L65 38L64 38L64 39L65 39L65 38L69 38L69 36L68 36L68 37L66 37L66 36L67 36L67 35L69 35L69 34L67 34L67 35L66 35L66 34L65 34L65 33L66 33L66 32L67 32L67 31L68 31L68 32L69 32L69 29L68 29L68 28L69 28L69 27L68 27L68 26L67 26L67 23L68 23L68 24L69 24L69 22L67 22L67 21L66 21L66 20L67 20L67 19L66 19L66 18L68 18L68 20L69 20L69 16L68 16L68 15L67 15L67 14L65 14L65 15L64 15L64 16L65 16L65 18L64 18L64 19L63 19L63 20L64 20L64 21L65 21L65 23L66 23L66 25L65 25L65 24L64 24L64 22L63 22L63 21L62 21L62 17L63 17L63 16L61 16L61 17L60 17L60 16L59 16L59 15L61 15L61 14L62 14L62 15L63 15L63 11L65 11L65 10L66 10L66 12L64 12L64 13L67 13L67 12L68 12L68 14L69 14L69 12L68 12L68 11L69 11L69 10L68 10L68 9L69 9L69 8L68 8L68 9L67 9L67 10L66 10L66 9L65 9L65 10L63 10L63 8L62 8L62 9L61 9L61 8L58 8L58 9L53 9L53 6L52 6L52 10L53 10L53 11L52 11L52 14L51 14L51 13L50 13L50 12L51 12L51 9L50 9L50 8L49 8L49 6L48 6L48 5L47 5L47 6L46 6L46 7L47 7L47 8L45 8L45 9L44 9L44 8L43 8L43 6L42 6L42 5L43 5L43 4L49 4L49 5L53 5L53 2L54 2L54 1L55 1L55 0L53 0L53 2L52 2L52 0L50 0L50 1L49 1L49 3L48 3L48 2L47 2L47 3L44 3L44 2L46 2L46 1L48 1L48 0L46 0L46 1L44 1L44 0L42 0L42 2L41 2L41 1L40 1L40 0L38 0L38 1L40 1L40 3L38 3L38 4L37 4L37 0L34 0L34 1L33 1L33 0L31 0L31 1L30 1L30 2L28 2L28 4L29 4L29 5L27 5L27 1L29 1L29 0L27 0L27 1L26 1L26 0L24 0L24 1L25 1L25 4L24 4L24 3L22 3L22 1L23 1L23 0L18 0L18 1L17 1L17 0L15 0L15 1L16 1L16 2L18 2L18 3L16 3L16 5L18 5L18 4L20 4L20 5L19 5L19 6L18 6L18 7L19 7L19 8L17 8L17 6L16 6L16 8L14 8L14 7L15 7L15 2L14 2L14 1L13 1L13 0ZM56 0L56 1L57 1L57 3L55 3L55 4L54 4L54 8L55 8L55 4L57 4L57 5L58 5L58 7L59 7L59 4L58 4L58 3L59 3L59 2L58 2L58 1L61 1L61 0L58 0L58 1L57 1L57 0ZM12 1L12 3L13 3L13 4L12 4L12 5L13 5L13 7L14 7L14 2L13 2L13 1ZM18 1L18 2L20 2L20 4L21 4L21 2L20 2L20 1ZM31 1L31 2L30 2L30 3L34 3L34 2L35 2L35 1L34 1L34 2L33 2L33 1ZM50 1L50 2L51 2L51 3L49 3L49 4L51 4L51 3L52 3L52 2L51 2L51 1ZM42 2L42 3L41 3L41 5L40 5L40 4L39 4L39 5L37 5L37 9L40 9L40 10L38 10L38 11L37 11L37 12L35 12L35 13L34 13L34 12L33 12L33 11L36 11L36 9L35 9L35 10L33 10L33 9L32 9L32 8L31 8L31 7L32 7L32 5L29 5L29 7L30 7L30 8L31 8L31 9L29 9L29 10L28 10L28 11L27 11L27 10L25 10L25 9L28 9L28 6L27 6L27 5L26 5L26 4L25 4L25 5L24 5L24 4L23 4L23 5L24 5L24 6L23 6L23 7L22 7L22 5L20 5L20 6L19 6L19 7L20 7L20 6L21 6L21 7L22 7L22 8L23 8L23 9L24 9L24 11L21 11L21 10L20 10L20 11L19 11L19 12L20 12L20 13L19 13L19 14L18 14L18 11L16 11L16 12L17 12L17 13L16 13L16 14L13 14L13 15L12 15L12 14L11 14L11 13L12 13L12 12L13 12L13 13L15 13L15 9L14 9L14 12L13 12L13 8L11 8L11 10L12 10L12 12L11 12L11 11L9 11L9 13L8 13L8 12L7 12L7 11L6 11L6 10L7 10L7 9L6 9L6 10L5 10L5 9L3 9L3 10L2 10L2 9L1 9L1 11L2 11L2 12L3 12L3 15L6 15L6 16L8 16L8 21L6 21L6 22L8 22L8 23L6 23L6 24L5 24L5 27L6 27L6 28L8 28L8 29L10 29L10 28L9 28L9 27L10 27L10 25L8 25L8 26L7 26L7 25L6 25L6 24L9 24L9 17L11 17L11 18L12 18L12 19L10 19L10 20L11 20L11 21L10 21L10 24L11 24L11 25L12 25L12 26L11 26L11 28L12 28L12 29L13 29L13 30L12 30L12 32L11 32L11 31L10 31L10 30L9 30L9 34L10 34L10 35L9 35L9 37L8 37L8 38L9 38L9 40L10 40L10 41L9 41L9 42L8 42L8 43L9 43L9 42L10 42L10 43L12 43L12 42L13 42L13 43L14 43L14 44L15 44L15 45L14 45L14 46L15 46L15 45L16 45L16 44L20 44L20 43L16 43L16 41L17 41L17 42L19 42L19 41L20 41L20 42L21 42L21 41L20 41L20 40L21 40L21 39L20 39L20 40L19 40L19 41L18 41L18 40L17 40L17 39L19 39L19 38L20 38L20 36L21 36L21 37L22 37L22 38L23 38L23 39L24 39L24 40L25 40L25 39L24 39L24 38L23 38L23 37L24 37L24 35L25 35L25 37L26 37L26 36L27 36L27 37L28 37L28 38L29 38L29 39L27 39L27 38L26 38L26 39L27 39L27 40L29 40L29 41L30 41L30 42L28 42L28 43L27 43L27 41L23 41L23 40L22 40L22 41L23 41L23 42L24 42L24 44L23 44L23 43L22 43L22 44L21 44L21 46L22 46L22 47L21 47L21 49L19 49L19 50L21 50L21 51L20 51L20 52L19 52L19 53L18 53L18 52L17 52L17 54L18 54L18 55L17 55L17 56L18 56L18 55L19 55L19 53L20 53L20 55L21 55L21 56L20 56L20 57L21 57L21 58L19 58L19 60L22 60L22 59L24 59L24 57L23 57L23 56L22 56L22 55L23 55L23 54L24 54L24 55L26 55L26 56L25 56L25 57L26 57L26 58L25 58L25 60L24 60L24 61L26 61L26 62L27 62L27 63L28 63L28 62L29 62L29 61L30 61L30 60L31 60L31 59L32 59L32 60L36 60L36 59L33 59L33 58L37 58L37 57L38 57L38 55L39 55L39 58L41 58L41 61L40 61L40 59L37 59L37 62L38 62L38 63L39 63L39 64L37 64L37 65L36 65L36 66L35 66L35 67L36 67L36 66L37 66L37 65L38 65L38 66L39 66L39 67L38 67L38 68L39 68L39 67L40 67L40 65L41 65L41 66L42 66L42 64L45 64L45 65L47 65L47 67L48 67L48 66L49 66L49 65L50 65L50 66L51 66L51 67L52 67L52 68L54 68L54 67L57 67L57 65L56 65L56 64L57 64L57 63L59 63L59 64L58 64L58 65L59 65L59 64L60 64L60 62L59 62L59 61L58 61L58 60L61 60L61 59L59 59L59 58L61 58L61 57L63 57L63 56L64 56L64 54L63 54L63 55L61 55L61 53L63 53L63 52L64 52L64 53L67 53L67 54L65 54L65 55L68 55L68 52L66 52L66 51L67 51L67 50L68 50L68 49L67 49L67 48L66 48L66 47L65 47L65 46L66 46L66 45L65 45L65 46L63 46L63 45L64 45L64 44L63 44L63 45L61 45L61 44L62 44L62 42L61 42L61 41L59 41L59 42L58 42L58 44L57 44L57 43L56 43L56 44L55 44L55 43L54 43L54 41L56 41L56 40L51 40L51 39L52 39L52 38L53 38L53 39L54 39L54 38L53 38L53 37L56 37L56 36L58 36L58 35L56 35L56 36L54 36L54 35L55 35L55 34L56 34L56 33L58 33L58 32L56 32L56 31L58 31L58 30L56 30L56 29L55 29L55 28L56 28L56 27L58 27L58 28L59 28L59 30L60 30L60 31L59 31L59 32L60 32L60 31L61 31L61 30L60 30L60 28L59 28L59 27L58 27L58 26L59 26L59 24L60 24L60 22L59 22L59 23L58 23L58 22L57 22L57 24L58 24L58 26L56 26L56 27L55 27L55 28L54 28L54 27L53 27L53 26L52 26L52 24L50 24L50 25L49 25L49 27L48 27L48 28L45 28L45 29L43 29L43 30L40 30L40 29L42 29L42 28L43 28L43 27L44 27L44 26L45 26L45 25L46 25L46 26L47 26L47 24L49 24L49 22L48 22L48 21L47 21L47 22L45 22L45 23L43 23L43 22L42 22L42 21L46 21L46 20L44 20L44 19L45 19L45 17L43 17L43 18L44 18L44 19L43 19L43 20L42 20L42 17L41 17L41 16L47 16L47 18L46 18L46 19L47 19L47 20L50 20L50 19L51 19L51 22L52 22L52 17L53 17L53 21L55 21L55 22L56 22L56 21L57 21L57 17L58 17L58 15L57 15L57 13L58 13L58 14L60 14L60 13L62 13L62 11L61 11L61 10L60 10L60 12L59 12L59 13L58 13L58 12L57 12L57 13L56 13L56 11L54 11L54 12L53 12L53 13L54 13L54 12L55 12L55 13L56 13L56 14L54 14L54 15L53 15L53 16L52 16L52 15L51 15L51 17L48 17L48 16L50 16L50 15L49 15L49 14L50 14L50 13L49 13L49 14L47 14L47 13L48 13L48 12L47 12L47 10L45 10L45 11L43 11L43 10L42 10L42 11L41 11L41 9L40 9L40 8L41 8L41 7L42 7L42 6L41 6L41 5L42 5L42 3L43 3L43 2ZM60 3L60 5L61 5L61 3ZM25 5L25 6L24 6L24 7L23 7L23 8L24 8L24 9L25 9L25 8L27 8L27 6L26 6L26 5ZM33 5L33 8L36 8L36 5ZM44 5L44 7L45 7L45 5ZM11 6L11 7L12 7L12 6ZM25 6L25 7L26 7L26 6ZM30 6L30 7L31 7L31 6ZM34 6L34 7L35 7L35 6ZM38 6L38 8L39 8L39 6ZM40 6L40 7L41 7L41 6ZM47 6L47 7L48 7L48 6ZM50 6L50 7L51 7L51 6ZM56 6L56 7L57 7L57 6ZM60 6L60 7L61 7L61 6ZM16 8L16 10L19 10L19 9L17 9L17 8ZM20 8L20 9L21 9L21 8ZM3 10L3 11L5 11L5 12L4 12L4 14L6 14L6 15L7 15L7 14L8 14L8 16L11 16L11 17L13 17L13 16L12 16L12 15L9 15L9 14L10 14L10 13L11 13L11 12L10 12L10 13L9 13L9 14L8 14L8 13L7 13L7 12L6 12L6 11L5 11L5 10ZM30 10L30 11L28 11L28 12L26 12L26 11L25 11L25 12L22 12L22 13L23 13L23 14L24 14L24 15L23 15L23 16L24 16L24 18L23 18L23 17L22 17L22 18L21 18L21 16L22 16L22 15L21 15L21 16L20 16L20 15L19 15L19 16L20 16L20 17L17 17L17 18L16 18L16 17L15 17L15 16L14 16L14 17L15 17L15 18L13 18L13 19L12 19L12 20L14 20L14 21L15 21L15 22L13 22L13 21L12 21L12 23L11 23L11 24L12 24L12 25L13 25L13 24L14 24L14 25L15 25L15 26L14 26L14 27L13 27L13 29L15 29L15 30L13 30L13 32L12 32L12 33L11 33L11 34L12 34L12 33L14 33L14 31L15 31L15 32L16 32L16 31L17 31L17 32L18 32L18 33L16 33L16 35L17 35L17 34L19 34L19 35L18 35L18 37L17 37L17 36L16 36L16 37L15 37L15 34L13 34L13 35L14 35L14 37L13 37L13 36L11 36L11 35L10 35L10 37L9 37L9 38L10 38L10 37L11 37L11 41L10 41L10 42L12 42L12 40L13 40L13 42L14 42L14 43L15 43L15 41L14 41L14 40L13 40L13 39L12 39L12 37L13 37L13 38L14 38L14 39L17 39L17 38L19 38L19 35L21 35L21 36L22 36L22 37L23 37L23 35L24 35L24 34L25 34L25 35L27 35L27 36L28 36L28 37L29 37L29 35L32 35L32 37L31 37L31 36L30 36L30 38L31 38L31 39L29 39L29 40L30 40L30 41L31 41L31 42L30 42L30 45L28 45L28 44L27 44L27 43L26 43L26 42L25 42L25 43L26 43L26 44L27 44L27 46L25 46L25 44L24 44L24 45L23 45L23 44L22 44L22 45L23 45L23 46L24 46L24 47L23 47L23 48L22 48L22 49L21 49L21 50L22 50L22 52L23 52L23 53L24 53L24 54L25 54L25 53L26 53L26 54L28 54L28 55L29 55L29 57L28 57L28 56L27 56L27 58L29 58L29 60L30 60L30 59L31 59L31 58L32 58L32 56L34 56L34 57L36 57L36 56L37 56L37 55L38 55L38 53L37 53L37 55L36 55L36 56L34 56L34 54L36 54L36 53L32 53L32 54L31 54L31 55L30 55L30 53L31 53L31 52L33 52L33 51L34 51L34 52L37 52L37 51L35 51L35 50L34 50L34 49L35 49L35 48L34 48L34 47L36 47L36 49L38 49L38 50L39 50L39 51L40 51L40 52L41 52L41 53L39 53L39 54L40 54L40 57L41 57L41 58L43 58L43 56L45 56L45 55L47 55L47 54L48 54L48 55L49 55L49 56L47 56L47 57L45 57L45 58L44 58L44 59L43 59L43 60L42 60L42 61L41 61L41 62L40 62L40 63L41 63L41 62L42 62L42 63L43 63L43 60L44 60L44 62L45 62L45 64L47 64L47 62L49 62L49 59L50 59L50 62L51 62L51 63L48 63L48 65L49 65L49 64L50 64L50 65L51 65L51 66L52 66L52 65L51 65L51 63L54 63L54 64L53 64L53 66L55 66L55 65L54 65L54 64L56 64L56 62L55 62L55 58L56 58L56 57L53 57L53 55L52 55L52 54L51 54L51 55L50 55L50 52L51 52L51 50L52 50L52 52L53 52L53 51L56 51L56 52L54 52L54 53L53 53L53 54L55 54L55 53L56 53L56 54L57 54L57 53L58 53L58 54L59 54L59 56L58 56L58 57L57 57L57 59L58 59L58 58L59 58L59 56L60 56L60 54L59 54L59 53L60 53L60 50L59 50L59 51L56 51L56 49L57 49L57 50L58 50L58 49L60 49L60 48L61 48L61 47L62 47L62 48L63 48L63 49L62 49L62 50L61 50L61 52L62 52L62 50L63 50L63 51L64 51L64 48L65 48L65 49L66 49L66 48L65 48L65 47L63 47L63 46L61 46L61 45L55 45L55 44L54 44L54 43L52 43L52 42L53 42L53 41L51 41L51 40L50 40L50 41L49 41L49 35L50 35L50 38L51 38L51 35L53 35L53 34L52 34L52 33L54 33L54 34L55 34L55 31L56 31L56 30L55 30L55 29L54 29L54 28L53 28L53 29L54 29L54 30L52 30L52 26L51 26L51 25L50 25L50 27L51 27L51 30L50 30L50 29L49 29L49 28L48 28L48 30L47 30L47 29L45 29L45 30L46 30L46 31L45 31L45 34L47 34L47 33L49 33L49 34L48 34L48 37L47 37L47 35L46 35L46 37L47 37L47 39L48 39L48 41L45 41L45 39L44 39L44 40L43 40L43 37L44 37L44 38L45 38L45 35L42 35L42 34L43 34L43 33L41 33L41 32L44 32L44 30L43 30L43 31L41 31L41 32L40 32L40 33L37 33L37 32L38 32L38 28L39 28L39 27L40 27L40 28L42 28L42 27L43 27L43 25L42 25L42 24L41 24L41 23L39 23L39 24L40 24L40 25L36 25L36 26L34 26L34 25L35 25L35 23L33 23L33 24L34 24L34 25L33 25L33 26L32 26L32 25L31 25L31 24L32 24L32 22L33 22L33 21L31 21L31 19L30 19L30 17L31 17L31 16L32 16L32 17L33 17L33 18L34 18L34 19L35 19L35 17L36 17L36 19L37 19L37 18L38 18L38 20L39 20L39 18L40 18L40 22L41 22L41 21L42 21L42 20L41 20L41 18L40 18L40 17L39 17L39 18L38 18L38 17L37 17L37 16L39 16L39 13L37 13L37 14L36 14L36 13L35 13L35 14L36 14L36 16L35 16L35 15L31 15L31 14L32 14L32 13L33 13L33 12L32 12L32 11L33 11L33 10L32 10L32 11L31 11L31 10ZM48 10L48 11L49 11L49 12L50 12L50 10ZM57 10L57 11L58 11L58 10ZM67 10L67 11L68 11L68 10ZM39 11L39 12L40 12L40 14L42 14L42 15L44 15L44 13L45 13L45 14L46 14L46 15L47 15L47 14L46 14L46 12L44 12L44 13L41 13L41 11ZM42 11L42 12L43 12L43 11ZM5 12L5 13L6 13L6 14L7 14L7 13L6 13L6 12ZM28 12L28 15L27 15L27 13L25 13L25 15L27 15L27 16L28 16L28 17L30 17L30 16L28 16L28 15L30 15L30 12ZM31 12L31 13L32 13L32 12ZM20 13L20 14L21 14L21 13ZM16 14L16 15L18 15L18 14ZM37 14L37 15L38 15L38 14ZM40 15L40 16L41 16L41 15ZM54 15L54 16L53 16L53 17L54 17L54 19L56 19L56 17L57 17L57 15L56 15L56 16L55 16L55 15ZM2 16L2 17L1 17L1 18L2 18L2 17L3 17L3 16ZM25 16L25 17L26 17L26 16ZM34 16L34 17L35 17L35 16ZM54 16L54 17L55 17L55 16ZM67 16L67 17L68 17L68 16ZM59 17L59 20L58 20L58 21L61 21L61 19L60 19L60 17ZM17 18L17 20L16 20L16 19L15 19L15 21L16 21L16 23L15 23L15 24L17 24L17 25L18 25L18 24L19 24L19 21L22 21L22 20L23 20L23 18L22 18L22 20L21 20L21 18L20 18L20 19L19 19L19 21L17 21L17 20L18 20L18 18ZM25 18L25 19L24 19L24 20L25 20L25 23L24 23L24 22L23 22L23 23L22 23L22 22L20 22L20 24L21 24L21 26L24 26L24 24L26 24L26 22L27 22L27 25L25 25L25 28L27 28L27 29L25 29L25 30L24 30L24 27L20 27L20 28L19 28L19 29L17 29L17 26L16 26L16 29L17 29L17 30L19 30L19 34L20 34L20 33L21 33L21 34L22 34L22 32L23 32L23 33L25 33L25 34L26 34L26 33L27 33L27 35L29 35L29 34L28 34L28 33L30 33L30 34L31 34L31 33L32 33L32 30L34 30L34 31L33 31L33 32L36 32L36 31L35 31L35 30L37 30L37 28L38 28L38 26L37 26L37 28L36 28L36 29L35 29L35 28L34 28L34 29L33 29L33 28L32 28L32 29L30 29L30 28L31 28L31 27L30 27L30 28L29 28L29 27L28 27L28 26L30 26L30 23L31 23L31 21L30 21L30 23L29 23L29 22L27 22L27 21L29 21L29 18L27 18L27 19L26 19L26 18ZM48 18L48 19L49 19L49 18ZM6 19L6 20L7 20L7 19ZM32 19L32 20L33 20L33 19ZM64 19L64 20L65 20L65 19ZM55 20L55 21L56 21L56 20ZM34 21L34 22L35 22L35 21ZM38 21L38 22L36 22L36 24L37 24L37 23L38 23L38 22L39 22L39 21ZM17 22L17 23L18 23L18 22ZM47 22L47 23L46 23L46 24L47 24L47 23L48 23L48 22ZM53 22L53 25L55 25L55 23L54 23L54 22ZM61 22L61 23L62 23L62 25L61 25L61 26L62 26L62 25L63 25L63 26L64 26L64 24L63 24L63 22ZM66 22L66 23L67 23L67 22ZM23 23L23 24L24 24L24 23ZM1 24L1 25L0 25L0 26L2 26L2 24ZM44 24L44 25L45 25L45 24ZM19 25L19 26L18 26L18 27L19 27L19 26L20 26L20 25ZM27 25L27 26L28 26L28 25ZM40 25L40 27L41 27L41 25ZM6 26L6 27L7 27L7 26ZM8 26L8 27L9 27L9 26ZM1 27L1 29L0 29L0 31L1 31L1 32L2 32L2 31L3 31L3 30L2 30L2 27ZM27 27L27 28L28 28L28 30L25 30L25 31L28 31L28 32L30 32L30 33L31 33L31 32L30 32L30 31L31 31L31 30L29 30L29 28L28 28L28 27ZM61 27L61 29L62 29L62 30L63 30L63 29L64 29L64 31L65 31L65 29L66 29L66 31L67 31L67 28L66 28L66 27L63 27L63 28L62 28L62 27ZM20 28L20 29L19 29L19 30L20 30L20 31L21 31L21 30L20 30L20 29L21 29L21 28ZM6 29L6 30L7 30L7 29ZM1 30L1 31L2 31L2 30ZM22 30L22 31L23 31L23 32L24 32L24 30ZM39 30L39 31L40 31L40 30ZM48 30L48 31L50 31L50 30ZM6 31L6 32L8 32L8 31ZM51 31L51 33L52 33L52 31ZM62 31L62 32L63 32L63 31ZM5 33L5 36L8 36L8 33ZM33 33L33 36L36 36L36 33ZM61 33L61 36L64 36L64 33ZM6 34L6 35L7 35L7 34ZM34 34L34 35L35 35L35 34ZM38 34L38 35L37 35L37 36L39 36L39 38L38 38L38 37L37 37L37 40L38 40L38 42L37 42L37 44L35 44L35 46L36 46L36 47L37 47L37 48L38 48L38 49L40 49L40 48L43 48L43 49L44 49L44 50L43 50L43 51L42 51L42 50L40 50L40 51L42 51L42 53L41 53L41 54L42 54L42 53L43 53L43 54L44 54L44 55L45 55L45 54L44 54L44 53L43 53L43 52L44 52L44 50L45 50L45 49L44 49L44 48L45 48L45 47L44 47L44 48L43 48L43 47L40 47L40 46L39 46L39 48L38 48L38 47L37 47L37 46L36 46L36 45L37 45L37 44L38 44L38 45L40 45L40 44L38 44L38 42L39 42L39 43L41 43L41 44L42 44L42 43L44 43L44 41L43 41L43 40L42 40L42 41L43 41L43 42L41 42L41 39L42 39L42 38L41 38L41 37L42 37L42 36L41 36L41 34L40 34L40 35L39 35L39 34ZM50 34L50 35L51 35L51 34ZM59 34L59 35L60 35L60 34ZM62 34L62 35L63 35L63 34ZM3 35L3 37L2 37L2 42L1 42L1 43L2 43L2 42L5 42L5 41L3 41L3 40L4 40L4 39L5 39L5 38L7 38L7 37L5 37L5 38L3 38L3 37L4 37L4 35ZM65 35L65 36L66 36L66 35ZM40 36L40 37L41 37L41 36ZM52 36L52 37L53 37L53 36ZM14 37L14 38L15 38L15 37ZM16 37L16 38L17 38L17 37ZM32 37L32 40L31 40L31 41L32 41L32 40L33 40L33 42L32 42L32 43L31 43L31 45L30 45L30 46L31 46L31 47L28 47L28 49L27 49L27 50L26 50L26 52L28 52L28 50L29 50L29 51L31 51L31 50L33 50L33 49L34 49L34 48L32 48L32 49L30 49L30 48L31 48L31 47L34 47L34 46L33 46L33 45L34 45L34 44L32 44L32 43L34 43L34 41L35 41L35 40L33 40L33 37ZM35 38L35 39L36 39L36 38ZM40 38L40 39L41 39L41 38ZM55 38L55 39L56 39L56 38ZM6 39L6 40L7 40L7 41L6 41L6 42L7 42L7 41L8 41L8 40L7 40L7 39ZM38 39L38 40L39 40L39 39ZM66 39L66 40L67 40L67 39ZM68 39L68 40L69 40L69 39ZM39 41L39 42L40 42L40 41ZM50 41L50 43L49 43L49 42L45 42L45 43L46 43L46 44L48 44L48 43L49 43L49 44L50 44L50 43L51 43L51 46L49 46L49 45L48 45L48 46L47 46L47 49L46 49L46 50L47 50L47 53L48 53L48 52L49 52L49 51L50 51L50 50L49 50L49 49L48 49L48 46L49 46L49 48L51 48L51 49L52 49L52 50L53 50L53 49L56 49L56 48L53 48L53 47L55 47L55 46L54 46L54 45L53 45L53 46L52 46L52 43L51 43L51 41ZM59 42L59 43L61 43L61 42ZM65 42L65 43L66 43L66 42ZM2 44L2 45L1 45L1 46L2 46L2 45L3 45L3 44ZM12 44L12 45L13 45L13 44ZM43 44L43 46L45 46L45 44ZM31 45L31 46L32 46L32 45ZM4 46L4 47L3 47L3 48L1 48L1 49L2 49L2 50L1 50L1 51L0 51L0 52L1 52L1 54L0 54L0 55L1 55L1 54L2 54L2 56L0 56L0 57L1 57L1 58L0 58L0 61L1 61L1 58L2 58L2 59L3 59L3 54L2 54L2 53L7 53L7 52L5 52L5 50L3 50L3 49L5 49L5 46ZM10 46L10 49L11 49L11 46ZM51 46L51 47L52 47L52 46ZM56 46L56 47L57 47L57 46ZM58 46L58 48L57 48L57 49L58 49L58 48L60 48L60 47L61 47L61 46L60 46L60 47L59 47L59 46ZM17 47L17 48L18 48L18 47ZM24 47L24 48L27 48L27 47ZM52 48L52 49L53 49L53 48ZM22 49L22 50L23 50L23 49ZM29 49L29 50L30 50L30 49ZM2 50L2 52L3 52L3 50ZM65 50L65 51L66 51L66 50ZM45 51L45 53L46 53L46 51ZM20 52L20 53L21 53L21 52ZM24 52L24 53L25 53L25 52ZM29 52L29 53L30 53L30 52ZM58 52L58 53L59 53L59 52ZM10 54L10 55L11 55L11 54ZM14 54L14 55L15 55L15 54ZM31 55L31 56L32 56L32 55ZM41 55L41 57L42 57L42 55ZM54 55L54 56L55 56L55 55ZM56 55L56 56L57 56L57 55ZM10 56L10 57L11 57L11 56ZM14 56L14 57L13 57L13 58L15 58L15 56ZM65 56L65 59L66 59L66 58L67 58L67 56ZM16 57L16 58L17 58L17 57ZM22 57L22 58L23 58L23 57ZM29 57L29 58L31 58L31 57ZM51 57L51 58L52 58L52 60L51 60L51 62L53 62L53 61L54 61L54 60L53 60L53 58L52 58L52 57ZM10 58L10 59L11 59L11 58ZM46 58L46 60L47 60L47 61L46 61L46 62L47 62L47 61L48 61L48 59L49 59L49 58L48 58L48 59L47 59L47 58ZM13 59L13 60L11 60L11 61L12 61L12 62L13 62L13 63L12 63L12 65L11 65L11 66L12 66L12 65L13 65L13 66L16 66L16 64L17 64L17 63L18 63L18 62L19 62L19 64L20 64L20 61L18 61L18 59L16 59L16 60L17 60L17 61L16 61L16 62L17 62L17 63L14 63L14 62L13 62L13 61L14 61L14 59ZM26 59L26 61L27 61L27 62L28 62L28 60L27 60L27 59ZM44 59L44 60L45 60L45 59ZM62 59L62 60L64 60L64 59ZM3 60L3 61L5 61L5 60ZM38 60L38 62L39 62L39 60ZM52 60L52 61L53 61L53 60ZM56 60L56 61L57 61L57 60ZM65 60L65 61L67 61L67 60ZM17 61L17 62L18 62L18 61ZM31 61L31 62L32 62L32 61ZM33 61L33 64L36 64L36 61ZM61 61L61 64L64 64L64 61ZM21 62L21 63L22 63L22 64L21 64L21 65L23 65L23 66L24 66L24 64L23 64L23 63L24 63L24 62L23 62L23 63L22 63L22 62ZM34 62L34 63L35 63L35 62ZM54 62L54 63L55 63L55 62ZM62 62L62 63L63 63L63 62ZM65 62L65 63L66 63L66 62ZM13 63L13 65L15 65L15 64L14 64L14 63ZM31 64L31 65L32 65L32 64ZM17 65L17 66L18 66L18 65ZM61 65L61 68L62 68L62 67L63 67L63 65ZM64 65L64 66L65 66L65 65ZM21 66L21 67L22 67L22 66ZM59 66L59 67L60 67L60 66ZM66 66L66 67L67 67L67 66ZM14 67L14 68L15 68L15 67ZM0 0L0 7L7 7L7 0ZM1 1L1 6L6 6L6 1ZM2 2L2 5L5 5L5 2ZM62 0L62 7L69 7L69 0ZM63 1L63 6L68 6L68 1ZM64 2L64 5L67 5L67 2ZM0 62L0 69L7 69L7 62ZM1 63L1 68L6 68L6 63ZM2 64L2 67L5 67L5 64Z" fill="#000000"/></g></g></svg>
