<?xml version="1.0" encoding="UTF-8"?>
<svg xmlns="http://www.w3.org/2000/svg" version="1.1" width="300" height="300" viewBox="0 0 300 300"><rect x="0" y="0" width="300" height="300" fill="#ffffff"/><g transform="scale(4.348)"><g transform="translate(0,0)"><path fill-rule="evenodd" d="M8 0L8 4L9 4L9 3L10 3L10 5L8 5L8 7L9 7L9 6L10 6L10 7L11 7L11 6L12 6L12 7L13 7L13 6L14 6L14 7L15 7L15 8L14 8L14 9L13 9L13 8L12 8L12 11L11 11L11 10L10 10L10 11L11 11L11 12L6 12L6 13L7 13L7 14L5 14L5 15L7 15L7 16L4 16L4 17L3 17L3 18L2 18L2 17L0 17L0 18L1 18L1 19L2 19L2 20L1 20L1 21L0 21L0 22L2 22L2 23L1 23L1 25L2 25L2 24L3 24L3 26L2 26L2 27L3 27L3 26L5 26L5 27L7 27L7 28L5 28L5 29L7 29L7 28L9 28L9 29L8 29L8 32L5 32L5 30L4 30L4 33L3 33L3 32L2 32L2 30L1 30L1 29L0 29L0 30L1 30L1 31L0 31L0 34L1 34L1 33L2 33L2 34L3 34L3 35L2 35L2 37L1 37L1 35L0 35L0 37L1 37L1 39L0 39L0 44L1 44L1 45L2 45L2 46L3 46L3 45L5 45L5 47L7 47L7 48L6 48L6 49L8 49L8 48L9 48L9 49L10 49L10 50L8 50L8 51L7 51L7 50L6 50L6 51L7 51L7 52L6 52L6 53L7 53L7 54L5 54L5 48L3 48L3 49L2 49L2 48L1 48L1 47L0 47L0 51L2 51L2 52L0 52L0 53L1 53L1 54L0 54L0 55L1 55L1 54L2 54L2 52L4 52L4 53L3 53L3 54L4 54L4 55L2 55L2 56L1 56L1 57L2 57L2 59L3 59L3 57L4 57L4 55L5 55L5 56L6 56L6 57L7 57L7 58L4 58L4 59L7 59L7 60L6 60L6 61L7 61L7 60L10 60L10 58L11 58L11 57L12 57L12 59L11 59L11 60L12 60L12 59L13 59L13 60L14 60L14 62L13 62L13 61L11 61L11 62L9 62L9 61L8 61L8 62L9 62L9 63L8 63L8 65L9 65L9 67L8 67L8 69L10 69L10 68L9 68L9 67L10 67L10 65L11 65L11 66L13 66L13 65L11 65L11 64L10 64L10 65L9 65L9 63L12 63L12 64L14 64L14 66L16 66L16 67L15 67L15 68L14 68L14 67L11 67L11 69L17 69L17 66L19 66L19 67L18 67L18 69L20 69L20 68L19 68L19 67L20 67L20 66L21 66L21 65L22 65L22 67L21 67L21 69L22 69L22 68L26 68L26 69L27 69L27 68L26 68L26 67L23 67L23 66L27 66L27 67L28 67L28 66L29 66L29 65L30 65L30 66L31 66L31 67L30 67L30 68L29 68L29 69L31 69L31 67L32 67L32 69L33 69L33 66L32 66L32 65L35 65L35 67L34 67L34 68L35 68L35 67L37 67L37 66L36 66L36 65L38 65L38 67L39 67L39 68L38 68L38 69L40 69L40 68L42 68L42 69L43 69L43 68L42 68L42 67L43 67L43 63L42 63L42 62L43 62L43 61L42 61L42 58L45 58L45 60L44 60L44 59L43 59L43 60L44 60L44 62L45 62L45 63L44 63L44 69L46 69L46 67L45 67L45 63L46 63L46 64L47 64L47 65L50 65L50 66L51 66L51 65L52 65L52 66L55 66L55 67L50 67L50 68L47 68L47 69L52 69L52 68L53 68L53 69L54 69L54 68L55 68L55 67L56 67L56 66L58 66L58 68L56 68L56 69L60 69L60 67L59 67L59 66L58 66L58 65L57 65L57 64L56 64L56 66L55 66L55 64L54 64L54 65L52 65L52 64L53 64L53 63L54 63L54 62L55 62L55 60L56 60L56 62L57 62L57 61L58 61L58 60L59 60L59 59L60 59L60 63L59 63L59 64L60 64L60 66L61 66L61 68L62 68L62 69L67 69L67 68L65 68L65 66L69 66L69 64L68 64L68 63L67 63L67 64L68 64L68 65L65 65L65 63L66 63L66 62L67 62L67 61L68 61L68 60L69 60L69 59L68 59L68 58L69 58L69 57L68 57L68 56L66 56L66 57L68 57L68 58L67 58L67 59L68 59L68 60L65 60L65 58L64 58L64 57L63 57L63 56L64 56L64 55L65 55L65 54L64 54L64 53L63 53L63 51L62 51L62 50L64 50L64 49L65 49L65 51L64 51L64 52L65 52L65 53L67 53L67 54L66 54L66 55L68 55L68 53L69 53L69 52L68 52L68 50L67 50L67 52L65 52L65 51L66 51L66 49L65 49L65 48L64 48L64 47L66 47L66 46L67 46L67 49L69 49L69 48L68 48L68 46L69 46L69 44L68 44L68 42L69 42L69 41L68 41L68 38L69 38L69 35L68 35L68 33L69 33L69 31L68 31L68 33L66 33L66 32L63 32L63 29L64 29L64 27L67 27L67 28L68 28L68 29L69 29L69 28L68 28L68 26L67 26L67 25L68 25L68 24L69 24L69 23L68 23L68 22L69 22L69 20L68 20L68 18L66 18L66 19L65 19L65 17L64 17L64 16L65 16L65 15L64 15L64 14L63 14L63 13L64 13L64 12L63 12L63 10L64 10L64 11L65 11L65 10L66 10L66 11L67 11L67 12L66 12L66 13L67 13L67 15L68 15L68 14L69 14L69 11L67 11L67 9L69 9L69 8L65 8L65 10L64 10L64 8L63 8L63 9L62 9L62 10L61 10L61 6L60 6L60 9L59 9L59 4L58 4L58 7L57 7L57 4L56 4L56 3L59 3L59 2L56 2L56 3L55 3L55 4L54 4L54 2L52 2L52 1L51 1L51 0L50 0L50 1L49 1L49 0L48 0L48 1L49 1L49 3L50 3L50 1L51 1L51 2L52 2L52 4L50 4L50 5L49 5L49 6L48 6L48 7L49 7L49 6L50 6L50 8L47 8L47 6L46 6L46 7L45 7L45 6L44 6L44 5L46 5L46 4L47 4L47 3L48 3L48 2L46 2L46 0L45 0L45 1L44 1L44 0L41 0L41 1L40 1L40 0L38 0L38 1L40 1L40 2L39 2L39 3L40 3L40 4L38 4L38 3L37 3L37 4L35 4L35 2L37 2L37 0L36 0L36 1L35 1L35 2L34 2L34 3L33 3L33 2L32 2L32 1L33 1L33 0L32 0L32 1L30 1L30 0L22 0L22 2L21 2L21 0L13 0L13 2L12 2L12 1L10 1L10 0ZM53 0L53 1L55 1L55 0ZM56 0L56 1L57 1L57 0ZM58 0L58 1L61 1L61 0ZM9 1L9 2L10 2L10 3L11 3L11 5L10 5L10 6L11 6L11 5L12 5L12 6L13 6L13 5L14 5L14 6L15 6L15 7L16 7L16 6L17 6L17 7L18 7L18 6L17 6L17 5L16 5L16 6L15 6L15 5L14 5L14 4L13 4L13 3L15 3L15 4L16 4L16 3L18 3L18 5L19 5L19 9L16 9L16 10L14 10L14 11L12 11L12 12L14 12L14 13L15 13L15 12L14 12L14 11L16 11L16 10L18 10L18 11L17 11L17 12L16 12L16 13L17 13L17 15L15 15L15 14L13 14L13 17L12 17L12 16L11 16L11 17L12 17L12 18L11 18L11 19L12 19L12 18L13 18L13 20L10 20L10 18L9 18L9 17L10 17L10 16L9 16L9 17L8 17L8 16L7 16L7 17L6 17L6 18L5 18L5 17L4 17L4 18L3 18L3 19L5 19L5 22L3 22L3 24L4 24L4 25L5 25L5 26L7 26L7 25L8 25L8 26L9 26L9 27L10 27L10 29L9 29L9 30L10 30L10 31L9 31L9 32L10 32L10 33L9 33L9 35L11 35L11 36L10 36L10 37L9 37L9 38L10 38L10 37L11 37L11 39L6 39L6 38L8 38L8 37L6 37L6 38L4 38L4 37L3 37L3 38L4 38L4 40L3 40L3 39L1 39L1 40L3 40L3 41L2 41L2 42L1 42L1 43L2 43L2 42L3 42L3 41L5 41L5 42L8 42L8 41L9 41L9 43L8 43L8 45L9 45L9 43L13 43L13 44L12 44L12 49L11 49L11 48L10 48L10 49L11 49L11 53L13 53L13 48L14 48L14 50L15 50L15 51L14 51L14 52L17 52L17 51L18 51L18 52L19 52L19 51L20 51L20 50L22 50L22 53L21 53L21 55L22 55L22 56L23 56L23 55L24 55L24 54L22 54L22 53L23 53L23 52L24 52L24 53L25 53L25 57L26 57L26 55L27 55L27 54L26 54L26 52L27 52L27 53L28 53L28 58L29 58L29 59L30 59L30 60L33 60L33 59L32 59L32 58L34 58L34 57L35 57L35 58L36 58L36 57L37 57L37 59L35 59L35 60L37 60L37 64L38 64L38 65L39 65L39 64L38 64L38 61L39 61L39 63L40 63L40 66L39 66L39 67L41 67L41 63L40 63L40 62L41 62L41 60L39 60L39 59L38 59L38 57L39 57L39 58L40 58L40 59L41 59L41 58L40 58L40 57L41 57L41 56L42 56L42 57L44 57L44 54L45 54L45 53L46 53L46 54L48 54L48 53L46 53L46 52L47 52L47 51L49 51L49 49L47 49L47 48L48 48L48 47L47 47L47 48L45 48L45 46L44 46L44 44L45 44L45 45L46 45L46 46L47 46L47 45L46 45L46 44L48 44L48 43L49 43L49 44L50 44L50 45L49 45L49 47L50 47L50 49L53 49L53 47L50 47L50 45L51 45L51 46L52 46L52 45L56 45L56 46L55 46L55 47L54 47L54 48L55 48L55 47L56 47L56 46L57 46L57 48L58 48L58 51L57 51L57 50L56 50L56 49L55 49L55 50L56 50L56 52L54 52L54 51L53 51L53 50L52 50L52 54L51 54L51 55L50 55L50 52L49 52L49 55L50 55L50 56L49 56L49 57L48 57L48 55L47 55L47 57L46 57L46 58L47 58L47 59L48 59L48 58L49 58L49 59L50 59L50 57L51 57L51 58L52 58L52 59L53 59L53 60L52 60L52 61L51 61L51 62L50 62L50 61L49 61L49 63L47 63L47 61L46 61L46 60L45 60L45 61L46 61L46 63L47 63L47 64L49 64L49 63L50 63L50 64L51 64L51 62L52 62L52 63L53 63L53 62L52 62L52 61L53 61L53 60L54 60L54 59L53 59L53 56L52 56L52 57L51 57L51 55L53 55L53 53L56 53L56 54L57 54L57 53L56 53L56 52L59 52L59 53L58 53L58 54L61 54L61 53L62 53L62 51L61 51L61 49L64 49L64 48L63 48L63 47L64 47L64 46L66 46L66 45L65 45L65 44L67 44L67 45L68 45L68 44L67 44L67 38L68 38L68 35L66 35L66 33L65 33L65 37L60 37L60 36L59 36L59 35L60 35L60 32L58 32L58 30L59 30L59 29L60 29L60 28L59 28L59 27L58 27L58 26L59 26L59 25L61 25L61 26L60 26L60 27L61 27L61 28L62 28L62 29L61 29L61 32L62 32L62 29L63 29L63 28L62 28L62 27L61 27L61 26L62 26L62 25L61 25L61 24L62 24L62 23L63 23L63 22L64 22L64 23L65 23L65 24L64 24L64 25L67 25L67 24L68 24L68 23L67 23L67 22L68 22L68 20L67 20L67 19L66 19L66 21L65 21L65 20L64 20L64 21L63 21L63 20L62 20L62 15L58 15L58 14L59 14L59 13L61 13L61 14L62 14L62 12L61 12L61 10L60 10L60 11L58 11L58 14L56 14L56 13L55 13L55 19L56 19L56 20L55 20L55 21L56 21L56 22L53 22L53 24L52 24L52 23L51 23L51 22L50 22L50 21L53 21L53 19L51 19L51 18L53 18L53 16L54 16L54 15L53 15L53 14L52 14L52 13L54 13L54 12L53 12L53 10L52 10L52 9L53 9L53 7L54 7L54 9L56 9L56 8L57 8L57 7L56 7L56 4L55 4L55 7L54 7L54 6L53 6L53 4L52 4L52 6L51 6L51 5L50 5L50 6L51 6L51 8L50 8L50 9L49 9L49 10L50 10L50 11L49 11L49 12L50 12L50 13L49 13L49 15L48 15L48 16L49 16L49 15L50 15L50 16L52 16L52 17L51 17L51 18L50 18L50 17L46 17L46 15L45 15L45 13L44 13L44 12L46 12L46 14L47 14L47 12L46 12L46 10L47 10L47 8L45 8L45 7L44 7L44 6L43 6L43 8L41 8L41 7L42 7L42 6L41 6L41 7L40 7L40 5L41 5L41 4L43 4L43 5L44 5L44 4L45 4L45 3L46 3L46 2L45 2L45 3L44 3L44 2L43 2L43 3L41 3L41 2L42 2L42 1L41 1L41 2L40 2L40 3L41 3L41 4L40 4L40 5L39 5L39 7L38 7L38 5L37 5L37 10L38 10L38 11L37 11L37 12L36 12L36 13L34 13L34 11L36 11L36 9L35 9L35 10L34 10L34 11L33 11L33 9L31 9L31 8L30 8L30 9L29 9L29 7L30 7L30 6L31 6L31 7L32 7L32 6L31 6L31 5L32 5L32 3L31 3L31 2L30 2L30 3L29 3L29 2L28 2L28 1L24 1L24 3L25 3L25 2L27 2L27 3L26 3L26 4L28 4L28 6L27 6L27 8L28 8L28 12L27 12L27 10L26 10L26 8L25 8L25 9L24 9L24 8L22 8L22 6L23 6L23 7L24 7L24 6L25 6L25 7L26 7L26 6L25 6L25 5L22 5L22 3L23 3L23 2L22 2L22 3L21 3L21 2L20 2L20 1L18 1L18 2L17 2L17 1L16 1L16 3L15 3L15 2L13 2L13 3L11 3L11 2L10 2L10 1ZM19 3L19 5L20 5L20 7L21 7L21 3ZM28 3L28 4L29 4L29 3ZM43 3L43 4L44 4L44 3ZM60 3L60 5L61 5L61 3ZM12 4L12 5L13 5L13 4ZM29 5L29 6L28 6L28 7L29 7L29 6L30 6L30 5ZM33 5L33 8L36 8L36 5ZM34 6L34 7L35 7L35 6ZM52 6L52 7L53 7L53 6ZM0 8L0 9L2 9L2 10L1 10L1 11L2 11L2 12L4 12L4 13L5 13L5 12L4 12L4 10L5 10L5 9L7 9L7 8L4 8L4 9L2 9L2 8ZM20 8L20 10L19 10L19 12L17 12L17 13L18 13L18 15L17 15L17 16L15 16L15 15L14 15L14 16L15 16L15 17L18 17L18 18L19 18L19 17L21 17L21 18L20 18L20 19L19 19L19 20L18 20L18 19L17 19L17 22L16 22L16 24L17 24L17 25L15 25L15 23L14 23L14 22L13 22L13 21L11 21L11 22L10 22L10 21L8 21L8 20L6 20L6 21L7 21L7 22L6 22L6 23L7 23L7 24L5 24L5 23L4 23L4 24L5 24L5 25L7 25L7 24L8 24L8 25L9 25L9 26L11 26L11 28L12 28L12 26L13 26L13 25L14 25L14 26L15 26L15 27L13 27L13 28L14 28L14 29L13 29L13 30L11 30L11 31L10 31L10 32L11 32L11 34L13 34L13 32L15 32L15 34L14 34L14 35L12 35L12 36L11 36L11 37L13 37L13 39L11 39L11 42L12 42L12 40L14 40L14 41L13 41L13 42L15 42L15 41L16 41L16 40L17 40L17 38L19 38L19 40L18 40L18 41L17 41L17 42L16 42L16 43L14 43L14 44L15 44L15 46L16 46L16 47L15 47L15 50L16 50L16 51L17 51L17 50L16 50L16 49L18 49L18 50L19 50L19 49L22 49L22 48L23 48L23 51L24 51L24 50L25 50L25 49L26 49L26 50L27 50L27 49L28 49L28 47L30 47L30 45L31 45L31 46L32 46L32 47L33 47L33 46L35 46L35 47L34 47L34 48L29 48L29 50L28 50L28 51L27 51L27 52L28 52L28 53L30 53L30 54L29 54L29 55L30 55L30 54L31 54L31 49L34 49L34 48L35 48L35 47L36 47L36 48L37 48L37 49L38 49L38 50L39 50L39 51L37 51L37 52L36 52L36 53L35 53L35 55L34 55L34 53L33 53L33 51L34 51L34 52L35 52L35 51L36 51L36 49L35 49L35 50L33 50L33 51L32 51L32 53L33 53L33 54L32 54L32 55L31 55L31 56L30 56L30 57L29 57L29 58L31 58L31 57L34 57L34 56L35 56L35 55L37 55L37 54L36 54L36 53L38 53L38 52L39 52L39 53L40 53L40 54L42 54L42 55L43 55L43 54L44 54L44 53L45 53L45 50L46 50L46 51L47 51L47 50L46 50L46 49L45 49L45 48L44 48L44 46L43 46L43 44L41 44L41 43L39 43L39 45L38 45L38 44L36 44L36 45L38 45L38 46L37 46L37 47L36 47L36 46L35 46L35 45L34 45L34 44L35 44L35 41L38 41L38 42L37 42L37 43L38 43L38 42L43 42L43 39L45 39L45 40L44 40L44 43L45 43L45 44L46 44L46 43L45 43L45 42L46 42L46 37L48 37L48 38L49 38L49 36L50 36L50 42L49 42L49 40L48 40L48 39L47 39L47 43L48 43L48 42L49 42L49 43L50 43L50 44L51 44L51 45L52 45L52 44L56 44L56 45L57 45L57 46L58 46L58 48L59 48L59 47L60 47L60 49L59 49L59 50L60 50L60 49L61 49L61 48L62 48L62 46L64 46L64 44L65 44L65 43L64 43L64 41L65 41L65 42L66 42L66 41L65 41L65 40L64 40L64 39L65 39L65 38L67 38L67 37L65 37L65 38L64 38L64 39L62 39L62 38L60 38L60 37L59 37L59 38L58 38L58 37L57 37L57 36L58 36L58 35L59 35L59 34L58 34L58 33L57 33L57 32L56 32L56 30L58 30L58 27L57 27L57 28L56 28L56 29L55 29L55 27L56 27L56 26L58 26L58 25L59 25L59 24L60 24L60 23L61 23L61 21L62 21L62 22L63 22L63 21L62 21L62 20L61 20L61 16L59 16L59 19L58 19L58 15L57 15L57 16L56 16L56 18L57 18L57 19L58 19L58 21L57 21L57 20L56 20L56 21L57 21L57 22L56 22L56 25L55 25L55 24L54 24L54 27L53 27L53 25L52 25L52 24L50 24L50 26L49 26L49 23L48 23L48 25L47 25L47 22L49 22L49 21L50 21L50 20L51 20L51 19L49 19L49 20L48 20L48 18L47 18L47 19L46 19L46 17L45 17L45 15L44 15L44 13L42 13L42 15L39 15L39 13L40 13L40 14L41 14L41 10L42 10L42 12L43 12L43 9L40 9L40 10L39 10L39 9L38 9L38 10L39 10L39 13L38 13L38 16L36 16L36 15L35 15L35 14L34 14L34 15L33 15L33 16L32 16L32 14L33 14L33 12L32 12L32 13L31 13L31 11L32 11L32 10L31 10L31 9L30 9L30 10L29 10L29 13L31 13L31 14L29 14L29 15L28 15L28 16L26 16L26 15L25 15L25 13L27 13L27 14L28 14L28 13L27 13L27 12L26 12L26 11L25 11L25 10L24 10L24 9L23 9L23 11L21 11L21 13L20 13L20 10L22 10L22 9L21 9L21 8ZM44 8L44 9L45 9L45 10L46 10L46 9L45 9L45 8ZM51 8L51 9L50 9L50 10L51 10L51 11L50 11L50 12L51 12L51 13L50 13L50 15L51 15L51 13L52 13L52 10L51 10L51 9L52 9L52 8ZM58 9L58 10L59 10L59 9ZM2 10L2 11L3 11L3 10ZM6 10L6 11L8 11L8 10ZM30 10L30 11L31 11L31 10ZM56 10L56 11L57 11L57 10ZM23 11L23 12L22 12L22 13L21 13L21 14L20 14L20 13L19 13L19 14L20 14L20 16L21 16L21 17L24 17L24 16L25 16L25 15L24 15L24 16L23 16L23 15L22 15L22 16L21 16L21 14L23 14L23 13L24 13L24 11ZM0 12L0 13L1 13L1 12ZM67 12L67 13L68 13L68 12ZM2 13L2 14L3 14L3 13ZM10 13L10 14L12 14L12 13ZM36 13L36 14L37 14L37 13ZM0 14L0 15L1 15L1 14ZM7 14L7 15L9 15L9 14ZM2 15L2 16L3 16L3 15ZM43 15L43 17L44 17L44 15ZM18 16L18 17L19 17L19 16ZM28 16L28 17L27 17L27 18L26 18L26 17L25 17L25 18L24 18L24 19L23 19L23 18L21 18L21 20L22 20L22 22L21 22L21 23L22 23L22 24L23 24L23 20L25 20L25 22L24 22L24 24L25 24L25 25L26 25L26 20L25 20L25 18L26 18L26 19L28 19L28 18L29 18L29 19L30 19L30 20L31 20L31 21L28 21L28 20L27 20L27 21L28 21L28 22L27 22L27 23L28 23L28 26L29 26L29 25L30 25L30 24L31 24L31 23L32 23L32 24L33 24L33 25L31 25L31 27L33 27L33 28L32 28L32 29L31 29L31 30L32 30L32 32L36 32L36 31L37 31L37 34L38 34L38 35L37 35L37 37L36 37L36 38L35 38L35 37L32 37L32 38L31 38L31 39L32 39L32 40L33 40L33 39L36 39L36 40L38 40L38 39L40 39L40 41L41 41L41 36L40 36L40 38L38 38L38 39L36 39L36 38L37 38L37 37L38 37L38 36L39 36L39 35L41 35L41 34L38 34L38 31L39 31L39 30L38 30L38 29L40 29L40 30L42 30L42 28L43 28L43 30L44 30L44 31L40 31L40 33L44 33L44 34L43 34L43 36L42 36L42 37L43 37L43 38L45 38L45 37L46 37L46 34L47 34L47 33L46 33L46 32L47 32L47 31L50 31L50 32L49 32L49 35L47 35L47 36L49 36L49 35L51 35L51 34L50 34L50 33L51 33L51 32L52 32L52 34L53 34L53 35L52 35L52 37L51 37L51 38L52 38L52 39L51 39L51 40L52 40L52 41L51 41L51 42L50 42L50 43L51 43L51 44L52 44L52 43L54 43L54 40L55 40L55 41L56 41L56 40L57 40L57 41L58 41L58 43L57 43L57 42L56 42L56 44L58 44L58 43L59 43L59 41L62 41L62 42L60 42L60 43L63 43L63 41L64 41L64 40L59 40L59 41L58 41L58 39L57 39L57 37L56 37L56 36L57 36L57 34L56 34L56 32L55 32L55 34L56 34L56 36L55 36L55 35L54 35L54 31L55 31L55 30L53 30L53 31L52 31L52 30L50 30L50 29L51 29L51 28L50 28L50 27L49 27L49 26L47 26L47 25L46 25L46 26L47 26L47 27L43 27L43 26L41 26L41 25L42 25L42 24L43 24L43 25L44 25L44 24L45 24L45 23L44 23L44 20L46 20L46 19L44 19L44 18L41 18L41 17L42 17L42 16L40 16L40 19L42 19L42 20L43 20L43 23L41 23L41 22L40 22L40 21L41 21L41 20L40 20L40 21L39 21L39 20L38 20L38 21L37 21L37 18L38 18L38 19L39 19L39 18L38 18L38 17L36 17L36 19L35 19L35 22L32 22L32 20L33 20L33 21L34 21L34 18L35 18L35 16L34 16L34 18L33 18L33 17L32 17L32 16L31 16L31 17L32 17L32 18L31 18L31 19L30 19L30 17L29 17L29 16ZM66 16L66 17L67 17L67 16ZM68 16L68 17L69 17L69 16ZM7 17L7 18L6 18L6 19L8 19L8 17ZM63 17L63 19L64 19L64 17ZM14 18L14 21L15 21L15 18ZM22 19L22 20L23 20L23 19ZM31 19L31 20L32 20L32 19ZM59 19L59 21L58 21L58 23L57 23L57 25L58 25L58 23L59 23L59 21L61 21L61 20L60 20L60 19ZM2 20L2 21L3 21L3 20ZM19 20L19 21L18 21L18 22L19 22L19 27L18 27L18 26L16 26L16 27L15 27L15 29L14 29L14 31L15 31L15 32L16 32L16 34L17 34L17 33L18 33L18 32L19 32L19 33L20 33L20 32L21 32L21 31L20 31L20 28L19 28L19 27L22 27L22 29L21 29L21 30L23 30L23 31L22 31L22 33L21 33L21 34L20 34L20 35L19 35L19 34L18 34L18 35L19 35L19 38L20 38L20 39L21 39L21 40L20 40L20 41L18 41L18 42L17 42L17 43L18 43L18 44L19 44L19 46L20 46L20 47L19 47L19 48L18 48L18 49L19 49L19 48L20 48L20 47L23 47L23 44L24 44L24 43L22 43L22 42L23 42L23 41L24 41L24 42L25 42L25 45L26 45L26 46L24 46L24 47L26 47L26 48L27 48L27 45L28 45L28 46L29 46L29 44L28 44L28 43L31 43L31 45L33 45L33 44L34 44L34 41L35 41L35 40L34 40L34 41L31 41L31 40L30 40L30 41L29 41L29 39L30 39L30 37L29 37L29 35L30 35L30 36L31 36L31 35L32 35L32 33L30 33L30 31L28 31L28 30L30 30L30 29L28 29L28 30L27 30L27 31L28 31L28 32L26 32L26 31L25 31L25 30L26 30L26 28L27 28L27 26L24 26L24 25L21 25L21 26L20 26L20 20ZM46 21L46 22L47 22L47 21ZM64 21L64 22L65 22L65 23L66 23L66 22L67 22L67 21L66 21L66 22L65 22L65 21ZM7 22L7 23L8 23L8 24L9 24L9 25L11 25L11 24L10 24L10 23L8 23L8 22ZM28 22L28 23L30 23L30 22ZM39 22L39 23L40 23L40 24L39 24L39 25L38 25L38 24L37 24L37 23L34 23L34 24L36 24L36 25L34 25L34 28L35 28L35 27L36 27L36 26L37 26L37 25L38 25L38 26L39 26L39 27L38 27L38 28L36 28L36 30L37 30L37 29L38 29L38 28L39 28L39 27L40 27L40 28L42 28L42 27L40 27L40 24L41 24L41 23L40 23L40 22ZM13 23L13 24L14 24L14 23ZM51 26L51 27L52 27L52 29L53 29L53 27L52 27L52 26ZM63 26L63 27L64 27L64 26ZM0 27L0 28L1 28L1 27ZM23 27L23 29L24 29L24 30L25 30L25 29L24 29L24 27ZM28 27L28 28L30 28L30 27ZM47 27L47 30L48 30L48 29L50 29L50 28L49 28L49 27ZM16 28L16 29L15 29L15 31L16 31L16 32L17 32L17 31L18 31L18 30L19 30L19 28ZM44 28L44 29L45 29L45 30L46 30L46 28ZM16 29L16 30L18 30L18 29ZM33 29L33 31L34 31L34 30L35 30L35 29ZM6 30L6 31L7 31L7 30ZM65 30L65 31L67 31L67 30ZM11 31L11 32L12 32L12 31ZM19 31L19 32L20 32L20 31ZM23 31L23 33L22 33L22 34L21 34L21 35L22 35L22 36L21 36L21 37L20 37L20 38L21 38L21 39L22 39L22 40L24 40L24 41L25 41L25 40L26 40L26 45L27 45L27 43L28 43L28 39L27 39L27 40L26 40L26 38L25 38L25 37L24 37L24 35L26 35L26 37L27 37L27 38L28 38L28 36L27 36L27 35L28 35L28 34L30 34L30 35L31 35L31 34L30 34L30 33L24 33L24 32L25 32L25 31ZM44 31L44 33L45 33L45 34L44 34L44 37L45 37L45 34L46 34L46 33L45 33L45 31ZM5 33L5 36L8 36L8 33ZM33 33L33 36L36 36L36 33ZM61 33L61 36L64 36L64 33ZM6 34L6 35L7 35L7 34ZM22 34L22 35L24 35L24 34ZM26 34L26 35L27 35L27 34ZM34 34L34 35L35 35L35 34ZM62 34L62 35L63 35L63 34ZM3 35L3 36L4 36L4 35ZM16 35L16 38L17 38L17 35ZM14 36L14 37L15 37L15 36ZM22 36L22 37L23 37L23 39L24 39L24 40L25 40L25 39L24 39L24 37L23 37L23 36ZM54 36L54 37L52 37L52 38L53 38L53 39L52 39L52 40L54 40L54 38L55 38L55 39L56 39L56 38L55 38L55 36ZM14 38L14 40L16 40L16 39L15 39L15 38ZM59 38L59 39L60 39L60 38ZM5 39L5 40L6 40L6 41L8 41L8 40L6 40L6 39ZM20 41L20 42L22 42L22 41ZM30 41L30 42L31 42L31 41ZM52 41L52 42L53 42L53 41ZM32 42L32 44L33 44L33 42ZM3 43L3 44L5 44L5 45L6 45L6 46L7 46L7 47L8 47L8 46L7 46L7 45L6 45L6 44L7 44L7 43L6 43L6 44L5 44L5 43ZM20 43L20 44L21 44L21 45L20 45L20 46L21 46L21 45L22 45L22 44L21 44L21 43ZM16 44L16 46L17 46L17 47L16 47L16 48L17 48L17 47L18 47L18 45L17 45L17 44ZM59 44L59 45L58 45L58 46L60 46L60 47L61 47L61 46L62 46L62 45L63 45L63 44L62 44L62 45L61 45L61 44ZM13 45L13 46L14 46L14 45ZM39 45L39 46L38 46L38 48L39 48L39 47L41 47L41 48L40 48L40 53L42 53L42 52L41 52L41 49L42 49L42 45L41 45L41 46L40 46L40 45ZM60 45L60 46L61 46L61 45ZM9 46L9 47L10 47L10 46ZM43 48L43 49L44 49L44 50L45 50L45 49L44 49L44 48ZM1 49L1 50L2 50L2 51L4 51L4 49L3 49L3 50L2 50L2 49ZM29 50L29 51L30 51L30 50ZM42 50L42 51L43 51L43 53L44 53L44 51L43 51L43 50ZM25 51L25 52L26 52L26 51ZM59 51L59 52L60 52L60 53L61 53L61 51ZM7 52L7 53L8 53L8 54L9 54L9 55L8 55L8 56L7 56L7 55L6 55L6 56L7 56L7 57L8 57L8 59L9 59L9 57L8 57L8 56L11 56L11 55L12 55L12 54L10 54L10 53L8 53L8 52ZM15 53L15 54L13 54L13 55L16 55L16 56L15 56L15 57L13 57L13 56L12 56L12 57L13 57L13 58L15 58L15 57L17 57L17 58L16 58L16 59L15 59L15 60L16 60L16 62L14 62L14 64L15 64L15 65L16 65L16 66L17 66L17 65L18 65L18 64L19 64L19 65L20 65L20 64L22 64L22 65L23 65L23 64L24 64L24 63L23 63L23 64L22 64L22 62L23 62L23 61L26 61L26 58L24 58L24 57L21 57L21 59L17 59L17 58L20 58L20 57L17 57L17 55L18 55L18 56L20 56L20 55L19 55L19 54L20 54L20 53L19 53L19 54L17 54L17 53ZM16 54L16 55L17 55L17 54ZM62 54L62 55L64 55L64 54ZM32 55L32 56L33 56L33 55ZM39 55L39 57L40 57L40 55ZM54 55L54 56L55 56L55 58L56 58L56 60L57 60L57 58L56 58L56 56L58 56L58 59L59 59L59 57L60 57L60 59L61 59L61 57L60 57L60 56L61 56L61 55L56 55L56 56L55 56L55 55ZM2 56L2 57L3 57L3 56ZM0 58L0 61L1 61L1 58ZM62 58L62 60L64 60L64 59L63 59L63 58ZM22 59L22 60L21 60L21 61L19 61L19 60L18 60L18 61L17 61L17 63L15 63L15 64L16 64L16 65L17 65L17 63L18 63L18 61L19 61L19 63L21 63L21 62L22 62L22 60L24 60L24 59ZM27 59L27 61L28 61L28 63L29 63L29 60L28 60L28 59ZM37 59L37 60L38 60L38 59ZM3 60L3 61L5 61L5 60ZM33 61L33 64L36 64L36 61ZM61 61L61 64L64 64L64 61ZM12 62L12 63L13 63L13 62ZM31 62L31 63L32 63L32 62ZM34 62L34 63L35 63L35 62ZM62 62L62 63L63 63L63 62ZM25 63L25 65L29 65L29 64L26 64L26 63ZM31 64L31 65L32 65L32 64ZM48 66L48 67L49 67L49 66ZM62 66L62 68L64 68L64 66ZM36 68L36 69L37 69L37 68ZM68 68L68 69L69 69L69 68ZM0 0L0 7L7 7L7 0ZM1 1L1 6L6 6L6 1ZM2 2L2 5L5 5L5 2ZM62 0L62 7L69 7L69 0ZM63 1L63 6L68 6L68 1ZM64 2L64 5L67 5L67 2ZM0 62L0 69L7 69L7 62ZM1 63L1 68L6 68L6 63ZM2 64L2 67L5 67L5 64Z" fill="#000000"/></g></g></svg>
