<?xml version="1.0" encoding="UTF-8"?>
<svg xmlns="http://www.w3.org/2000/svg" version="1.1" width="300" height="300" viewBox="0 0 300 300"><rect x="0" y="0" width="300" height="300" fill="#ffffff"/><g transform="scale(4.348)"><g transform="translate(0,0)"><path fill-rule="evenodd" d="M8 0L8 4L9 4L9 5L8 5L8 7L9 7L9 6L10 6L10 7L11 7L11 9L10 9L10 10L9 10L9 9L8 9L8 11L7 11L7 10L6 10L6 11L7 11L7 12L5 12L5 10L3 10L3 9L2 9L2 8L0 8L0 10L1 10L1 13L0 13L0 14L2 14L2 15L3 15L3 16L4 16L4 17L3 17L3 18L4 18L4 20L5 20L5 21L2 21L2 18L0 18L0 19L1 19L1 20L0 20L0 21L1 21L1 22L0 22L0 23L2 23L2 22L5 22L5 21L8 21L8 23L7 23L7 22L6 22L6 23L5 23L5 24L6 24L6 25L7 25L7 24L8 24L8 25L9 25L9 24L10 24L10 25L11 25L11 23L12 23L12 24L14 24L14 23L13 23L13 22L11 22L11 23L9 23L9 22L10 22L10 21L9 21L9 20L8 20L8 17L9 17L9 16L10 16L10 17L12 17L12 16L10 16L10 15L13 15L13 16L16 16L16 17L18 17L18 19L17 19L17 20L16 20L16 21L17 21L17 22L18 22L18 23L19 23L19 22L18 22L18 21L19 21L19 20L20 20L20 24L21 24L21 25L20 25L20 26L21 26L21 27L20 27L20 28L19 28L19 26L17 26L17 25L19 25L19 24L17 24L17 25L13 25L13 26L12 26L12 28L11 28L11 30L10 30L10 27L11 27L11 26L9 26L9 28L8 28L8 27L7 27L7 26L6 26L6 27L7 27L7 28L5 28L5 29L4 29L4 28L3 28L3 27L1 27L1 29L2 29L2 31L0 31L0 32L1 32L1 33L2 33L2 34L3 34L3 35L2 35L2 37L4 37L4 38L1 38L1 35L0 35L0 44L2 44L2 43L3 43L3 44L5 44L5 45L2 45L2 47L3 47L3 48L1 48L1 46L0 46L0 48L1 48L1 49L0 49L0 53L1 53L1 54L0 54L0 61L1 61L1 57L2 57L2 59L3 59L3 56L4 56L4 59L7 59L7 58L6 58L6 57L8 57L8 56L9 56L9 57L10 57L10 58L12 58L12 59L13 59L13 57L14 57L14 58L15 58L15 59L16 59L16 58L17 58L17 57L20 57L20 58L18 58L18 59L17 59L17 61L19 61L19 64L18 64L18 65L17 65L17 64L16 64L16 65L14 65L14 64L12 64L12 65L11 65L11 64L10 64L10 65L9 65L9 63L8 63L8 65L9 65L9 67L8 67L8 69L9 69L9 67L10 67L10 65L11 65L11 66L12 66L12 67L11 67L11 68L13 68L13 69L15 69L15 67L14 67L14 68L13 68L13 65L14 65L14 66L16 66L16 69L19 69L19 68L18 68L18 66L19 66L19 67L20 67L20 66L22 66L22 68L24 68L24 67L26 67L26 66L27 66L27 67L28 67L28 66L29 66L29 65L31 65L31 67L33 67L33 66L32 66L32 65L38 65L38 67L39 67L39 68L38 68L38 69L40 69L40 67L39 67L39 66L40 66L40 63L41 63L41 68L43 68L43 63L42 63L42 62L44 62L44 61L45 61L45 62L46 62L46 60L47 60L47 63L46 63L46 64L47 64L47 65L50 65L50 69L52 69L52 68L53 68L53 67L55 67L55 68L54 68L54 69L59 69L59 68L60 68L60 67L58 67L58 68L57 68L57 67L55 67L55 64L53 64L53 65L52 65L52 63L53 63L53 62L52 62L52 60L51 60L51 61L50 61L50 62L51 62L51 63L50 63L50 64L49 64L49 59L48 59L48 58L49 58L49 57L50 57L50 58L52 58L52 57L50 57L50 56L47 56L47 54L46 54L46 53L48 53L48 54L49 54L49 55L50 55L50 54L51 54L51 55L52 55L52 54L53 54L53 53L54 53L54 55L53 55L53 58L54 58L54 59L55 59L55 56L54 56L54 55L55 55L55 52L53 52L53 53L52 53L52 51L53 51L53 50L55 50L55 51L57 51L57 52L56 52L56 54L57 54L57 55L56 55L56 59L57 59L57 60L56 60L56 66L58 66L58 65L57 65L57 64L58 64L58 63L57 63L57 62L58 62L58 59L59 59L59 60L60 60L60 62L59 62L59 63L60 63L60 66L61 66L61 67L63 67L63 69L64 69L64 67L66 67L66 66L69 66L69 63L68 63L68 62L69 62L69 61L68 61L68 62L67 62L67 60L69 60L69 59L68 59L68 56L69 56L69 55L68 55L68 53L69 53L69 52L68 52L68 50L67 50L67 49L65 49L65 48L63 48L63 47L62 47L62 46L64 46L64 43L66 43L66 42L67 42L67 43L68 43L68 44L65 44L65 45L66 45L66 46L65 46L65 47L66 47L66 46L67 46L67 48L68 48L68 49L69 49L69 47L68 47L68 46L69 46L69 43L68 43L68 40L69 40L69 39L68 39L68 38L69 38L69 35L68 35L68 33L69 33L69 31L68 31L68 30L63 30L63 29L64 29L64 28L63 28L63 29L62 29L62 30L61 30L61 28L62 28L62 27L61 27L61 28L60 28L60 26L61 26L61 25L62 25L62 26L63 26L63 25L64 25L64 27L65 27L65 29L66 29L66 27L65 27L65 26L66 26L66 25L67 25L67 24L65 24L65 25L64 25L64 23L65 23L65 22L64 22L64 20L65 20L65 17L64 17L64 16L65 16L65 15L64 15L64 14L63 14L63 13L64 13L64 12L63 12L63 11L62 11L62 10L63 10L63 9L64 9L64 10L66 10L66 11L67 11L67 12L66 12L66 13L67 13L67 15L68 15L68 13L69 13L69 12L68 12L68 10L69 10L69 8L65 8L65 9L64 9L64 8L63 8L63 9L62 9L62 10L61 10L61 8L60 8L60 7L61 7L61 6L60 6L60 7L59 7L59 4L58 4L58 5L56 5L56 7L55 7L55 4L56 4L56 3L55 3L55 1L56 1L56 2L57 2L57 3L59 3L59 2L58 2L58 1L61 1L61 0L58 0L58 1L57 1L57 0L53 0L53 1L52 1L52 0L50 0L50 1L48 1L48 0L47 0L47 1L48 1L48 2L46 2L46 3L45 3L45 1L46 1L46 0L45 0L45 1L44 1L44 0L41 0L41 1L40 1L40 0L36 0L36 1L34 1L34 0L32 0L32 1L31 1L31 3L32 3L32 5L31 5L31 4L30 4L30 5L29 5L29 6L28 6L28 4L29 4L29 3L28 3L28 4L26 4L26 2L27 2L27 1L28 1L28 2L30 2L30 1L29 1L29 0L23 0L23 3L22 3L22 0L17 0L17 1L16 1L16 0L15 0L15 1L14 1L14 0L12 0L12 2L11 2L11 1L9 1L9 0ZM15 1L15 2L16 2L16 1ZM19 1L19 2L17 2L17 3L16 3L16 4L15 4L15 3L13 3L13 2L12 2L12 3L11 3L11 2L10 2L10 3L9 3L9 4L10 4L10 5L11 5L11 4L14 4L14 6L13 6L13 5L12 5L12 6L11 6L11 7L12 7L12 6L13 6L13 7L14 7L14 6L15 6L15 7L16 7L16 9L15 9L15 10L16 10L16 11L14 11L14 13L13 13L13 10L14 10L14 9L13 9L13 10L12 10L12 12L11 12L11 13L12 13L12 14L13 14L13 15L14 15L14 13L17 13L17 12L19 12L19 14L20 14L20 16L21 16L21 15L22 15L22 14L23 14L23 13L24 13L24 11L21 11L21 10L20 10L20 5L19 5L19 9L17 9L17 7L18 7L18 6L17 6L17 7L16 7L16 5L18 5L18 4L19 4L19 3L21 3L21 9L22 9L22 10L23 10L23 9L24 9L24 10L25 10L25 13L26 13L26 14L25 14L25 15L26 15L26 16L28 16L28 17L27 17L27 18L26 18L26 17L25 17L25 16L24 16L24 17L23 17L23 16L22 16L22 19L21 19L21 20L22 20L22 21L21 21L21 23L22 23L22 24L25 24L25 25L26 25L26 26L24 26L24 25L21 25L21 26L22 26L22 29L21 29L21 28L20 28L20 29L19 29L19 30L18 30L18 31L17 31L17 26L16 26L16 27L15 27L15 26L13 26L13 28L14 28L14 30L13 30L13 29L12 29L12 30L11 30L11 31L12 31L12 32L13 32L13 33L14 33L14 35L15 35L15 36L12 36L12 37L11 37L11 35L13 35L13 34L12 34L12 33L10 33L10 32L9 32L9 33L10 33L10 38L8 38L8 37L6 37L6 38L8 38L8 40L7 40L7 39L1 39L1 40L2 40L2 41L1 41L1 42L2 42L2 41L4 41L4 42L3 42L3 43L5 43L5 44L7 44L7 43L5 43L5 41L6 41L6 42L8 42L8 43L9 43L9 42L8 42L8 40L9 40L9 41L10 41L10 38L11 38L11 39L14 39L14 40L16 40L16 41L13 41L13 40L11 40L11 44L10 44L10 46L11 46L11 48L12 48L12 49L11 49L11 50L12 50L12 51L10 51L10 54L11 54L11 55L10 55L10 56L14 56L14 57L17 57L17 56L20 56L20 57L21 57L21 58L20 58L20 60L19 60L19 61L21 61L21 63L20 63L20 64L19 64L19 65L20 65L20 64L22 64L22 66L23 66L23 67L24 67L24 66L23 66L23 65L29 65L29 64L26 64L26 63L25 63L25 62L23 62L23 59L24 59L24 61L26 61L26 60L27 60L27 59L28 59L28 60L29 60L29 59L33 59L33 60L39 60L39 62L38 62L38 61L37 61L37 64L38 64L38 65L39 65L39 63L40 63L40 62L41 62L41 60L39 60L39 58L40 58L40 59L41 59L41 58L40 58L40 57L41 57L41 56L42 56L42 57L44 57L44 54L45 54L45 53L46 53L46 52L51 52L51 51L46 51L46 50L48 50L48 49L47 49L47 48L48 48L48 47L47 47L47 48L45 48L45 47L46 47L46 46L47 46L47 45L46 45L46 44L48 44L48 43L49 43L49 42L50 42L50 44L49 44L49 45L50 45L50 44L51 44L51 43L52 43L52 42L53 42L53 40L52 40L52 42L50 42L50 41L51 41L51 40L50 40L50 39L49 39L49 38L47 38L47 37L46 37L46 34L49 34L49 35L47 35L47 36L49 36L49 35L52 35L52 34L53 34L53 33L55 33L55 34L54 34L54 35L55 35L55 36L52 36L52 37L51 37L51 38L52 38L52 39L53 39L53 38L52 38L52 37L55 37L55 38L54 38L54 40L55 40L55 42L54 42L54 43L53 43L53 44L52 44L52 46L53 46L53 48L52 48L52 50L53 50L53 48L55 48L55 49L56 49L56 47L55 47L55 46L56 46L56 44L57 44L57 45L58 45L58 46L60 46L60 45L61 45L61 43L60 43L60 42L59 42L59 41L60 41L60 40L59 40L59 41L58 41L58 40L57 40L57 39L58 39L58 38L59 38L59 39L61 39L61 41L62 41L62 40L63 40L63 39L64 39L64 40L65 40L65 41L63 41L63 42L62 42L62 45L63 45L63 43L64 43L64 42L65 42L65 41L67 41L67 40L68 40L68 39L66 39L66 38L65 38L65 37L68 37L68 35L67 35L67 32L68 32L68 31L63 31L63 30L62 30L62 31L63 31L63 32L66 32L66 34L65 34L65 37L62 37L62 39L61 39L61 37L60 37L60 36L59 36L59 35L60 35L60 33L58 33L58 34L57 34L57 33L55 33L55 32L53 32L53 30L52 30L52 29L53 29L53 28L52 28L52 27L54 27L54 29L56 29L56 28L57 28L57 27L58 27L58 30L56 30L56 31L57 31L57 32L61 32L61 31L60 31L60 30L59 30L59 27L58 27L58 26L59 26L59 25L58 25L58 23L59 23L59 24L60 24L60 23L61 23L61 24L62 24L62 25L63 25L63 24L62 24L62 21L63 21L63 19L64 19L64 17L63 17L63 19L62 19L62 15L63 15L63 14L62 14L62 13L63 13L63 12L62 12L62 13L61 13L61 11L60 11L60 13L61 13L61 14L59 14L59 13L58 13L58 14L57 14L57 13L56 13L56 11L57 11L57 12L58 12L58 10L59 10L59 9L58 9L58 8L59 8L59 7L58 7L58 6L57 6L57 7L58 7L58 8L57 8L57 9L58 9L58 10L56 10L56 9L55 9L55 7L54 7L54 6L53 6L53 7L54 7L54 9L55 9L55 10L53 10L53 8L52 8L52 3L50 3L50 4L51 4L51 5L49 5L49 2L48 2L48 3L47 3L47 4L46 4L46 5L44 5L44 4L45 4L45 3L44 3L44 2L43 2L43 3L44 3L44 4L43 4L43 5L44 5L44 6L43 6L43 8L41 8L41 7L42 7L42 6L41 6L41 5L40 5L40 6L39 6L39 7L40 7L40 9L39 9L39 8L38 8L38 5L37 5L37 10L38 10L38 9L39 9L39 10L40 10L40 9L43 9L43 12L42 12L42 10L41 10L41 14L40 14L40 13L39 13L39 11L38 11L38 13L39 13L39 15L37 15L37 14L36 14L36 13L37 13L37 12L36 12L36 13L34 13L34 11L36 11L36 9L35 9L35 10L34 10L34 11L33 11L33 10L32 10L32 9L31 9L31 8L32 8L32 6L31 6L31 5L30 5L30 6L29 6L29 7L28 7L28 6L27 6L27 7L26 7L26 6L25 6L25 7L26 7L26 8L25 8L25 9L24 9L24 3L25 3L25 2L26 2L26 1L24 1L24 3L23 3L23 5L22 5L22 3L21 3L21 2L20 2L20 1ZM32 1L32 3L34 3L34 1ZM37 1L37 3L35 3L35 4L37 4L37 3L38 3L38 4L40 4L40 1ZM41 1L41 2L42 2L42 1ZM10 3L10 4L11 4L11 3ZM41 3L41 4L42 4L42 3ZM53 3L53 4L55 4L55 3ZM60 3L60 5L61 5L61 3ZM33 5L33 8L36 8L36 5ZM22 6L22 8L23 8L23 6ZM30 6L30 7L29 7L29 8L28 8L28 9L27 9L27 8L26 8L26 9L25 9L25 10L26 10L26 9L27 9L27 11L26 11L26 13L27 13L27 14L28 14L28 15L29 15L29 18L28 18L28 19L26 19L26 18L25 18L25 17L24 17L24 18L25 18L25 19L22 19L22 20L24 20L24 21L23 21L23 23L24 23L24 22L27 22L27 23L26 23L26 25L27 25L27 26L26 26L26 27L25 27L25 28L26 28L26 29L24 29L24 27L23 27L23 30L22 30L22 31L20 31L20 30L21 30L21 29L20 29L20 30L19 30L19 31L20 31L20 33L19 33L19 32L18 32L18 33L17 33L17 34L19 34L19 35L16 35L16 33L15 33L15 35L16 35L16 36L15 36L15 39L16 39L16 40L17 40L17 39L16 39L16 36L17 36L17 37L19 37L19 35L20 35L20 34L21 34L21 33L22 33L22 34L23 34L23 35L22 35L22 36L21 36L21 37L20 37L20 38L19 38L19 39L18 39L18 41L17 41L17 42L16 42L16 43L14 43L14 44L16 44L16 45L13 45L13 44L12 44L12 45L13 45L13 46L12 46L12 47L13 47L13 49L12 49L12 50L16 50L16 47L17 47L17 49L18 49L18 50L17 50L17 51L18 51L18 50L19 50L19 49L21 49L21 50L20 50L20 51L19 51L19 52L18 52L18 53L17 53L17 52L16 52L16 51L15 51L15 52L14 52L14 51L12 51L12 52L11 52L11 53L13 53L13 54L14 54L14 56L16 56L16 55L17 55L17 54L18 54L18 53L20 53L20 54L19 54L19 55L20 55L20 54L21 54L21 53L22 53L22 50L23 50L23 51L24 51L24 50L25 50L25 51L26 51L26 50L27 50L27 49L28 49L28 48L29 48L29 49L32 49L32 51L34 51L34 52L35 52L35 50L36 50L36 49L35 49L35 50L33 50L33 49L34 49L34 46L35 46L35 47L36 47L36 48L37 48L37 49L38 49L38 50L37 50L37 52L36 52L36 53L35 53L35 54L36 54L36 55L33 55L33 54L34 54L34 53L33 53L33 54L32 54L32 53L31 53L31 50L30 50L30 51L29 51L29 50L28 50L28 51L27 51L27 52L26 52L26 53L25 53L25 52L23 52L23 54L25 54L25 55L24 55L24 56L22 56L22 55L21 55L21 57L24 57L24 58L25 58L25 59L26 59L26 58L25 58L25 55L26 55L26 57L27 57L27 58L28 58L28 57L29 57L29 58L31 58L31 57L34 57L34 56L36 56L36 57L35 57L35 58L33 58L33 59L36 59L36 57L38 57L38 58L37 58L37 59L38 59L38 58L39 58L39 57L40 57L40 55L43 55L43 54L44 54L44 53L45 53L45 50L46 50L46 49L45 49L45 48L44 48L44 47L45 47L45 46L46 46L46 45L45 45L45 44L46 44L46 43L45 43L45 42L46 42L46 37L45 37L45 34L46 34L46 33L50 33L50 34L51 34L51 33L52 33L52 31L49 31L49 32L47 32L47 31L46 31L46 29L45 29L45 28L44 28L44 27L46 27L46 28L47 28L47 30L48 30L48 29L49 29L49 28L50 28L50 27L48 27L48 25L50 25L50 26L51 26L51 27L52 27L52 26L51 26L51 25L52 25L52 24L53 24L53 25L54 25L54 27L55 27L55 26L56 26L56 27L57 27L57 26L58 26L58 25L57 25L57 24L56 24L56 22L58 22L58 21L60 21L60 22L61 22L61 21L62 21L62 19L61 19L61 21L60 21L60 18L61 18L61 15L62 15L62 14L61 14L61 15L59 15L59 14L58 14L58 16L57 16L57 15L56 15L56 18L55 18L55 17L54 17L54 16L53 16L53 14L54 14L54 15L55 15L55 14L56 14L56 13L53 13L53 14L52 14L52 12L53 12L53 10L52 10L52 8L51 8L51 6L50 6L50 8L47 8L47 6L46 6L46 7L45 7L45 6L44 6L44 7L45 7L45 8L44 8L44 9L45 9L45 10L46 10L46 11L44 11L44 13L42 13L42 15L39 15L39 17L38 17L38 18L39 18L39 19L35 19L35 18L37 18L37 16L36 16L36 15L35 15L35 14L34 14L34 15L33 15L33 12L32 12L32 13L31 13L31 11L32 11L32 10L31 10L31 9L30 9L30 8L31 8L31 6ZM34 6L34 7L35 7L35 6ZM40 6L40 7L41 7L41 6ZM48 6L48 7L49 7L49 6ZM4 8L4 9L7 9L7 8ZM45 8L45 9L46 9L46 10L47 10L47 8ZM28 9L28 11L29 11L29 10L30 10L30 11L31 11L31 10L30 10L30 9ZM49 9L49 10L50 10L50 11L52 11L52 10L50 10L50 9ZM19 10L19 11L20 11L20 14L21 14L21 13L22 13L22 12L21 12L21 11L20 11L20 10ZM55 10L55 11L54 11L54 12L55 12L55 11L56 11L56 10ZM3 11L3 13L2 13L2 14L3 14L3 13L4 13L4 14L7 14L7 13L4 13L4 11ZM8 11L8 13L9 13L9 15L8 15L8 16L7 16L7 15L5 15L5 16L7 16L7 17L4 17L4 18L5 18L5 19L6 19L6 20L7 20L7 19L6 19L6 18L7 18L7 17L8 17L8 16L9 16L9 15L10 15L10 12L9 12L9 11ZM46 11L46 12L45 12L45 13L44 13L44 14L43 14L43 17L44 17L44 14L45 14L45 13L46 13L46 15L47 15L47 17L46 17L46 16L45 16L45 19L44 19L44 18L41 18L41 17L42 17L42 16L40 16L40 19L41 19L41 20L40 20L40 21L39 21L39 20L38 20L38 21L37 21L37 20L35 20L35 21L37 21L37 22L34 22L34 23L36 23L36 24L35 24L35 25L37 25L37 24L39 24L39 23L40 23L40 27L37 27L37 26L36 26L36 27L35 27L35 28L34 28L34 27L33 27L33 26L34 26L34 25L33 25L33 26L31 26L31 27L30 27L30 26L29 26L29 25L30 25L30 24L31 24L31 25L32 25L32 24L33 24L33 23L31 23L31 22L32 22L32 21L33 21L33 19L34 19L34 18L35 18L35 16L34 16L34 18L33 18L33 17L32 17L32 16L33 16L33 15L32 15L32 14L31 14L31 13L29 13L29 12L28 12L28 14L31 14L31 15L30 15L30 16L31 16L31 17L32 17L32 21L28 21L28 20L27 20L27 21L28 21L28 23L27 23L27 24L28 24L28 26L27 26L27 27L26 27L26 28L27 28L27 29L28 29L28 30L27 30L27 31L28 31L28 30L29 30L29 31L30 31L30 32L26 32L26 31L25 31L25 30L23 30L23 31L22 31L22 33L24 33L24 32L23 32L23 31L25 31L25 33L30 33L30 34L28 34L28 35L27 35L27 34L26 34L26 35L25 35L25 34L24 34L24 35L23 35L23 36L22 36L22 37L23 37L23 36L25 36L25 39L24 39L24 40L22 40L22 39L21 39L21 38L20 38L20 39L21 39L21 40L20 40L20 41L18 41L18 42L17 42L17 44L18 44L18 43L20 43L20 41L22 41L22 42L23 42L23 41L24 41L24 42L26 42L26 35L27 35L27 37L28 37L28 38L29 38L29 39L27 39L27 40L28 40L28 43L29 43L29 44L31 44L31 45L30 45L30 47L31 47L31 48L32 48L32 49L33 49L33 47L32 47L32 46L31 46L31 45L33 45L33 46L34 46L34 45L35 45L35 46L36 46L36 47L37 47L37 46L38 46L38 48L39 48L39 47L41 47L41 48L40 48L40 51L39 51L39 50L38 50L38 51L39 51L39 52L38 52L38 53L36 53L36 54L37 54L37 55L36 55L36 56L37 56L37 55L38 55L38 57L39 57L39 52L40 52L40 53L42 53L42 52L43 52L43 53L44 53L44 51L43 51L43 50L42 50L42 51L41 51L41 49L42 49L42 45L41 45L41 46L40 46L40 45L39 45L39 43L41 43L41 44L43 44L43 43L44 43L44 40L45 40L45 39L43 39L43 42L38 42L38 41L37 41L37 37L38 37L38 36L39 36L39 35L40 35L40 37L39 37L39 38L38 38L38 40L39 40L39 38L40 38L40 41L41 41L41 38L40 38L40 37L42 37L42 36L41 36L41 34L38 34L38 33L39 33L39 32L37 32L37 30L38 30L38 31L39 31L39 30L38 30L38 28L39 28L39 29L40 29L40 30L42 30L42 28L43 28L43 29L44 29L44 28L43 28L43 26L41 26L41 25L42 25L42 24L43 24L43 25L44 25L44 24L45 24L45 23L44 23L44 20L46 20L46 19L47 19L47 20L49 20L49 19L50 19L50 20L51 20L51 19L52 19L52 21L51 21L51 22L50 22L50 21L49 21L49 24L50 24L50 25L51 25L51 24L52 24L52 21L53 21L53 16L52 16L52 17L51 17L51 16L50 16L50 17L49 17L49 18L47 18L47 17L48 17L48 15L47 15L47 11ZM50 12L50 13L49 13L49 15L52 15L52 14L50 14L50 13L51 13L51 12ZM67 12L67 13L68 13L68 12ZM15 14L15 15L18 15L18 14ZM0 15L0 16L1 16L1 17L2 17L2 16L1 16L1 15ZM31 15L31 16L32 16L32 15ZM18 16L18 17L19 17L19 19L20 19L20 18L21 18L21 17L19 17L19 16ZM66 16L66 18L67 18L67 20L68 20L68 21L67 21L67 22L66 22L66 23L68 23L68 24L69 24L69 23L68 23L68 22L69 22L69 20L68 20L68 18L67 18L67 17L69 17L69 16ZM50 17L50 19L51 19L51 17ZM58 17L58 18L59 18L59 17ZM9 18L9 19L10 19L10 20L12 20L12 19L13 19L13 18L12 18L12 19L11 19L11 18ZM14 18L14 19L15 19L15 18ZM29 18L29 19L31 19L31 18ZM54 18L54 19L55 19L55 22L56 22L56 20L57 20L57 21L58 21L58 19L57 19L57 18L56 18L56 19L55 19L55 18ZM25 19L25 21L26 21L26 19ZM13 20L13 21L15 21L15 20ZM41 20L41 22L43 22L43 21L42 21L42 20ZM46 21L46 22L48 22L48 21ZM15 22L15 23L16 23L16 22ZM29 22L29 23L30 23L30 22ZM53 22L53 23L54 23L54 22ZM3 23L3 25L2 25L2 24L0 24L0 25L2 25L2 26L4 26L4 27L5 27L5 26L4 26L4 23ZM6 23L6 24L7 24L7 23ZM47 23L47 25L46 25L46 26L47 26L47 25L48 25L48 23ZM50 23L50 24L51 24L51 23ZM55 24L55 25L56 25L56 24ZM28 27L28 28L29 28L29 29L30 29L30 30L31 30L31 32L30 32L30 33L32 33L32 36L30 36L30 35L31 35L31 34L30 34L30 35L29 35L29 37L30 37L30 39L29 39L29 41L30 41L30 42L32 42L32 41L34 41L34 40L35 40L35 41L36 41L36 42L37 42L37 45L36 45L36 46L37 46L37 45L38 45L38 46L39 46L39 45L38 45L38 42L37 42L37 41L36 41L36 40L35 40L35 38L32 38L32 37L37 37L37 32L32 32L32 30L31 30L31 29L32 29L32 28L33 28L33 31L34 31L34 30L37 30L37 28L36 28L36 29L34 29L34 28L33 28L33 27L31 27L31 28L30 28L30 27ZM40 27L40 28L42 28L42 27ZM67 27L67 29L68 29L68 28L69 28L69 27ZM2 28L2 29L3 29L3 31L4 31L4 32L5 32L5 31L6 31L6 32L7 32L7 31L6 31L6 30L7 30L7 29L5 29L5 31L4 31L4 29L3 29L3 28ZM15 28L15 31L13 31L13 32L16 32L16 28ZM51 28L51 29L50 29L50 30L51 30L51 29L52 29L52 28ZM8 30L8 31L9 31L9 30ZM43 30L43 31L40 31L40 33L44 33L44 34L43 34L43 38L45 38L45 37L44 37L44 34L45 34L45 33L44 33L44 31L45 31L45 30ZM54 30L54 31L55 31L55 30ZM58 30L58 31L59 31L59 30ZM2 32L2 33L3 33L3 34L4 34L4 33L3 33L3 32ZM50 32L50 33L51 33L51 32ZM5 33L5 36L8 36L8 33ZM33 33L33 36L36 36L36 33ZM61 33L61 36L64 36L64 33ZM6 34L6 35L7 35L7 34ZM34 34L34 35L35 35L35 34ZM55 34L55 35L56 35L56 38L55 38L55 40L56 40L56 42L58 42L58 41L57 41L57 40L56 40L56 38L58 38L58 37L57 37L57 36L58 36L58 35L59 35L59 34L58 34L58 35L56 35L56 34ZM62 34L62 35L63 35L63 34ZM3 35L3 36L4 36L4 35ZM13 37L13 38L14 38L14 37ZM59 37L59 38L60 38L60 37ZM31 38L31 40L30 40L30 41L31 41L31 40L32 40L32 38ZM64 38L64 39L65 39L65 38ZM33 39L33 40L34 40L34 39ZM47 39L47 42L48 42L48 41L50 41L50 40L49 40L49 39ZM6 40L6 41L7 41L7 40ZM24 40L24 41L25 41L25 40ZM12 41L12 42L13 42L13 41ZM33 42L33 43L31 43L31 44L33 44L33 45L34 45L34 43L35 43L35 42ZM22 43L22 45L21 45L21 46L20 46L20 45L19 45L19 46L20 46L20 48L21 48L21 49L24 49L24 48L21 48L21 47L22 47L22 45L23 45L23 44L24 44L24 43ZM26 43L26 44L25 44L25 46L23 46L23 47L26 47L26 48L27 48L27 46L28 46L28 47L29 47L29 45L27 45L27 46L26 46L26 44L27 44L27 43ZM54 43L54 44L53 44L53 46L55 46L55 45L54 45L54 44L56 44L56 43ZM58 43L58 44L59 44L59 43ZM6 45L6 46L5 46L5 48L3 48L3 49L2 49L2 50L1 50L1 51L2 51L2 54L1 54L1 55L2 55L2 56L3 56L3 52L4 52L4 53L5 53L5 57L6 57L6 56L8 56L8 55L9 55L9 52L7 52L7 51L8 51L8 50L7 50L7 49L8 49L8 46L7 46L7 45ZM16 45L16 46L15 46L15 47L16 47L16 46L17 46L17 47L18 47L18 45ZM67 45L67 46L68 46L68 45ZM3 46L3 47L4 47L4 46ZM6 46L6 47L7 47L7 46ZM9 47L9 49L10 49L10 47ZM49 47L49 50L50 50L50 48L51 48L51 47ZM57 47L57 48L58 48L58 49L57 49L57 51L58 51L58 52L57 52L57 53L58 53L58 54L59 54L59 53L61 53L61 52L62 52L62 55L64 55L64 58L62 58L62 56L61 56L61 58L62 58L62 59L63 59L63 60L64 60L64 59L65 59L65 60L67 60L67 57L65 57L65 56L68 56L68 55L64 55L64 54L67 54L67 53L65 53L65 52L67 52L67 50L66 50L66 51L65 51L65 52L64 52L64 51L63 51L63 50L65 50L65 49L62 49L62 47L61 47L61 48L58 48L58 47ZM5 48L5 50L6 50L6 51L7 51L7 50L6 50L6 49L7 49L7 48ZM18 48L18 49L19 49L19 48ZM43 48L43 49L44 49L44 50L45 50L45 49L44 49L44 48ZM25 49L25 50L26 50L26 49ZM59 49L59 50L60 50L60 49ZM61 49L61 51L59 51L59 52L58 52L58 53L59 53L59 52L61 52L61 51L62 51L62 52L63 52L63 51L62 51L62 49ZM4 51L4 52L5 52L5 51ZM6 52L6 53L7 53L7 52ZM13 52L13 53L14 53L14 54L15 54L15 53L14 53L14 52ZM27 52L27 53L26 53L26 55L27 55L27 53L28 53L28 55L29 55L29 57L30 57L30 56L32 56L32 54L30 54L30 55L29 55L29 53L28 53L28 52ZM16 53L16 54L17 54L17 53ZM49 53L49 54L50 54L50 53ZM51 53L51 54L52 54L52 53ZM63 53L63 54L64 54L64 53ZM6 54L6 55L8 55L8 54ZM60 54L60 55L59 55L59 57L58 57L58 55L57 55L57 57L58 57L58 58L57 58L57 59L58 59L58 58L59 58L59 59L60 59L60 55L61 55L61 54ZM27 56L27 57L28 57L28 56ZM46 57L46 58L47 58L47 57ZM21 58L21 61L22 61L22 59L23 59L23 58ZM42 58L42 61L44 61L44 60L45 60L45 58ZM8 59L8 60L6 60L6 61L8 61L8 62L10 62L10 61L12 61L12 62L13 62L13 63L14 63L14 61L15 61L15 62L16 62L16 63L18 63L18 62L16 62L16 60L11 60L11 59ZM3 60L3 61L5 61L5 60ZM9 60L9 61L10 61L10 60ZM31 60L31 61L27 61L27 63L28 63L28 62L29 62L29 63L30 63L30 64L31 64L31 65L32 65L32 64L31 64L31 63L32 63L32 62L31 62L31 61L32 61L32 60ZM53 60L53 61L54 61L54 63L55 63L55 60ZM33 61L33 64L36 64L36 61ZM61 61L61 64L64 64L64 61ZM22 62L22 64L24 64L24 63L23 63L23 62ZM30 62L30 63L31 63L31 62ZM34 62L34 63L35 63L35 62ZM62 62L62 63L63 63L63 62ZM66 62L66 63L65 63L65 65L63 65L63 67L64 67L64 66L65 66L65 65L67 65L67 62ZM44 63L44 69L46 69L46 67L45 67L45 63ZM16 65L16 66L17 66L17 65ZM51 66L51 68L52 68L52 66ZM29 67L29 69L31 69L31 68L30 68L30 67ZM34 67L34 68L35 68L35 67ZM48 67L48 69L49 69L49 67ZM26 68L26 69L28 69L28 68ZM32 68L32 69L33 69L33 68ZM36 68L36 69L37 69L37 68ZM68 68L68 69L69 69L69 68ZM0 0L0 7L7 7L7 0ZM1 1L1 6L6 6L6 1ZM2 2L2 5L5 5L5 2ZM62 0L62 7L69 7L69 0ZM63 1L63 6L68 6L68 1ZM64 2L64 5L67 5L67 2ZM0 62L0 69L7 69L7 62ZM1 63L1 68L6 68L6 63ZM2 64L2 67L5 67L5 64Z" fill="#000000"/></g></g></svg>
