<?xml version="1.0" encoding="UTF-8"?>
<svg xmlns="http://www.w3.org/2000/svg" version="1.1" width="300" height="300" viewBox="0 0 300 300"><rect x="0" y="0" width="300" height="300" fill="#ffffff"/><g transform="scale(4.348)"><g transform="translate(0,0)"><path fill-rule="evenodd" d="M8 0L8 1L9 1L9 2L8 2L8 5L10 5L10 7L11 7L11 6L12 6L12 8L13 8L13 10L12 10L12 9L10 9L10 8L8 8L8 9L7 9L7 8L6 8L6 9L7 9L7 10L6 10L6 11L7 11L7 12L5 12L5 11L4 11L4 10L3 10L3 12L5 12L5 13L7 13L7 14L6 14L6 15L5 15L5 14L3 14L3 15L5 15L5 16L4 16L4 18L3 18L3 16L1 16L1 15L0 15L0 17L1 17L1 18L0 18L0 20L1 20L1 19L4 19L4 20L3 20L3 21L4 21L4 20L6 20L6 21L7 21L7 22L2 22L2 21L0 21L0 26L1 26L1 27L0 27L0 30L1 30L1 31L3 31L3 30L4 30L4 32L2 32L2 34L1 34L1 32L0 32L0 35L1 35L1 37L0 37L0 39L1 39L1 40L2 40L2 41L0 41L0 43L3 43L3 45L2 45L2 44L0 44L0 45L1 45L1 46L0 46L0 47L1 47L1 46L3 46L3 45L4 45L4 46L5 46L5 48L4 48L4 49L3 49L3 47L2 47L2 48L1 48L1 49L0 49L0 50L1 50L1 51L0 51L0 52L1 52L1 53L0 53L0 55L1 55L1 56L2 56L2 59L3 59L3 58L4 58L4 59L7 59L7 60L6 60L6 61L7 61L7 60L8 60L8 62L9 62L9 64L10 64L10 63L12 63L12 64L11 64L11 65L10 65L10 66L9 66L9 65L8 65L8 69L9 69L9 67L10 67L10 66L11 66L11 65L12 65L12 67L11 67L11 69L12 69L12 68L14 68L14 69L16 69L16 68L17 68L17 66L18 66L18 64L19 64L19 67L18 67L18 68L19 68L19 69L26 69L26 67L25 67L25 66L26 66L26 64L27 64L27 63L28 63L28 64L29 64L29 63L30 63L30 61L31 61L31 58L32 58L32 62L31 62L31 65L30 65L30 66L28 66L28 65L27 65L27 69L30 69L30 67L31 67L31 68L34 68L34 69L35 69L35 68L34 68L34 67L36 67L36 66L35 66L35 65L37 65L37 62L39 62L39 66L38 66L38 68L39 68L39 69L43 69L43 68L42 68L42 67L41 67L41 66L42 66L42 65L40 65L40 64L41 64L41 62L39 62L39 61L40 61L40 60L41 60L41 61L42 61L42 60L41 60L41 59L42 59L42 58L43 58L43 56L41 56L41 55L43 55L43 54L44 54L44 55L46 55L46 54L47 54L47 50L48 50L48 51L49 51L49 53L52 53L52 52L55 52L55 55L54 55L54 54L52 54L52 55L54 55L54 57L53 57L53 56L51 56L51 55L50 55L50 54L49 54L49 55L50 55L50 57L48 57L48 56L47 56L47 59L48 59L48 60L45 60L45 58L44 58L44 59L43 59L43 61L44 61L44 60L45 60L45 62L43 62L43 63L44 63L44 64L43 64L43 65L45 65L45 62L46 62L46 61L49 61L49 62L48 62L48 64L49 64L49 65L51 65L51 67L53 67L53 68L49 68L49 69L54 69L54 67L55 67L55 68L57 68L57 67L56 67L56 66L54 66L54 65L57 65L57 66L59 66L59 67L58 67L58 69L59 69L59 67L61 67L61 68L60 68L60 69L62 69L62 68L63 68L63 66L65 66L65 65L66 65L66 66L68 66L68 65L69 65L69 63L68 63L68 61L69 61L69 58L67 58L67 63L65 63L65 60L66 60L66 59L65 59L65 58L66 58L66 57L65 57L65 55L64 55L64 57L65 57L65 58L64 58L64 59L65 59L65 60L62 60L62 59L63 59L63 58L61 58L61 57L62 57L62 54L61 54L61 53L60 53L60 50L64 50L64 49L61 49L61 47L63 47L63 48L66 48L66 46L68 46L68 47L67 47L67 48L68 48L68 47L69 47L69 43L68 43L68 42L69 42L69 41L68 41L68 42L67 42L67 37L68 37L68 38L69 38L69 37L68 37L68 36L69 36L69 33L68 33L68 32L69 32L69 31L68 31L68 30L69 30L69 29L67 29L67 26L66 26L66 25L68 25L68 26L69 26L69 21L68 21L68 22L67 22L67 21L66 21L66 20L63 20L63 18L62 18L62 20L61 20L61 21L60 21L60 20L59 20L59 19L60 19L60 17L64 17L64 15L65 15L65 19L66 19L66 18L67 18L67 20L69 20L69 19L68 19L68 18L69 18L69 17L68 17L68 16L69 16L69 15L66 15L66 14L67 14L67 13L68 13L68 14L69 14L69 8L68 8L68 9L67 9L67 8L64 8L64 9L63 9L63 10L62 10L62 8L61 8L61 9L60 9L60 8L58 8L58 7L59 7L59 4L58 4L58 5L57 5L57 6L56 6L56 7L55 7L55 6L54 6L54 7L55 7L55 8L53 8L53 6L52 6L52 7L51 7L51 6L50 6L50 5L51 5L51 4L50 4L50 3L47 3L47 2L51 2L51 3L53 3L53 4L52 4L52 5L53 5L53 4L56 4L56 3L55 3L55 1L56 1L56 0L54 0L54 2L51 2L51 1L53 1L53 0L51 0L51 1L50 1L50 0L49 0L49 1L48 1L48 0L47 0L47 2L46 2L46 1L45 1L45 0L44 0L44 2L42 2L42 1L43 1L43 0L41 0L41 1L40 1L40 2L39 2L39 3L42 3L42 4L43 4L43 6L42 6L42 7L41 7L41 6L40 6L40 7L39 7L39 6L38 6L38 7L37 7L37 4L38 4L38 5L39 5L39 4L38 4L38 1L37 1L37 2L36 2L36 0L35 0L35 2L32 2L32 3L33 3L33 4L31 4L31 3L29 3L29 6L28 6L28 2L29 2L29 1L30 1L30 0L28 0L28 2L27 2L27 1L25 1L25 0L23 0L23 1L25 1L25 5L23 5L23 4L24 4L24 2L23 2L23 4L22 4L22 7L21 7L21 6L20 6L20 8L22 8L22 9L23 9L23 10L22 10L22 11L21 11L21 12L20 12L20 9L19 9L19 11L18 11L18 10L16 10L16 9L18 9L18 8L17 8L17 5L18 5L18 4L20 4L20 5L21 5L21 3L20 3L20 2L21 2L21 1L19 1L19 0L17 0L17 1L16 1L16 0L14 0L14 1L13 1L13 0L12 0L12 1L13 1L13 2L14 2L14 3L12 3L12 2L11 2L11 3L12 3L12 4L10 4L10 1L11 1L11 0L10 0L10 1L9 1L9 0ZM31 0L31 1L32 1L32 0ZM58 0L58 1L57 1L57 2L58 2L58 3L59 3L59 2L58 2L58 1L61 1L61 0ZM14 1L14 2L15 2L15 3L14 3L14 4L12 4L12 6L13 6L13 7L14 7L14 8L16 8L16 4L15 4L15 3L16 3L16 2L15 2L15 1ZM18 1L18 3L19 3L19 1ZM26 2L26 4L27 4L27 2ZM34 3L34 4L37 4L37 3ZM44 3L44 4L45 4L45 3ZM46 3L46 5L45 5L45 8L44 8L44 6L43 6L43 9L45 9L45 10L46 10L46 11L44 11L44 10L43 10L43 11L44 11L44 13L43 13L43 12L41 12L41 13L42 13L42 14L43 14L43 15L41 15L41 14L40 14L40 10L41 10L41 11L42 11L42 10L41 10L41 9L42 9L42 8L41 8L41 7L40 7L40 8L41 8L41 9L39 9L39 8L38 8L38 10L37 10L37 11L38 11L38 12L36 12L36 9L33 9L33 10L34 10L34 11L35 11L35 12L36 12L36 13L34 13L34 12L33 12L33 11L32 11L32 13L28 13L28 14L29 14L29 15L27 15L27 12L26 12L26 13L24 13L24 12L21 12L21 13L23 13L23 14L21 14L21 15L20 15L20 13L17 13L17 14L16 14L16 13L15 13L15 10L14 10L14 12L12 12L12 10L10 10L10 9L9 9L9 12L8 12L8 15L6 15L6 16L7 16L7 17L6 17L6 18L7 18L7 19L6 19L6 20L7 20L7 21L8 21L8 22L7 22L7 23L5 23L5 24L4 24L4 23L2 23L2 24L1 24L1 26L2 26L2 27L3 27L3 28L2 28L2 29L1 29L1 30L2 30L2 29L4 29L4 30L5 30L5 31L6 31L6 32L8 32L8 31L9 31L9 32L10 32L10 33L9 33L9 36L10 36L10 33L11 33L11 32L10 32L10 31L9 31L9 30L11 30L11 31L13 31L13 29L14 29L14 27L13 27L13 29L12 29L12 27L11 27L11 26L13 26L13 25L15 25L15 24L16 24L16 25L17 25L17 26L15 26L15 28L16 28L16 29L18 29L18 30L17 30L17 31L14 31L14 32L13 32L13 33L14 33L14 34L15 34L15 35L17 35L17 33L19 33L19 34L18 34L18 36L19 36L19 37L22 37L22 38L17 38L17 37L16 37L16 38L17 38L17 39L16 39L16 41L14 41L14 39L15 39L15 37L13 37L13 35L12 35L12 34L11 34L11 36L12 36L12 39L11 39L11 40L10 40L10 41L9 41L9 42L8 42L8 44L7 44L7 43L6 43L6 44L7 44L7 45L6 45L6 46L8 46L8 45L9 45L9 42L10 42L10 44L11 44L11 45L10 45L10 46L9 46L9 47L6 47L6 48L9 48L9 49L11 49L11 48L12 48L12 49L13 49L13 50L11 50L11 53L10 53L10 54L9 54L9 53L6 53L6 54L5 54L5 52L7 52L7 51L6 51L6 50L7 50L7 49L5 49L5 52L4 52L4 50L3 50L3 49L1 49L1 50L2 50L2 53L3 53L3 52L4 52L4 54L5 54L5 55L4 55L4 57L5 57L5 56L7 56L7 55L8 55L8 54L9 54L9 55L11 55L11 53L15 53L15 55L16 55L16 56L13 56L13 57L12 57L12 56L11 56L11 57L10 57L10 56L9 56L9 57L10 57L10 58L12 58L12 59L11 59L11 61L9 61L9 62L12 62L12 61L13 61L13 60L14 60L14 58L13 58L13 57L15 57L15 59L16 59L16 62L15 62L15 63L14 63L14 64L15 64L15 63L16 63L16 64L17 64L17 63L19 63L19 62L18 62L18 60L19 60L19 61L22 61L22 62L20 62L20 64L21 64L21 63L22 63L22 65L24 65L24 66L25 66L25 64L26 64L26 62L25 62L25 59L26 59L26 58L24 58L24 57L27 57L27 60L26 60L26 61L27 61L27 60L28 60L28 62L29 62L29 60L30 60L30 58L29 58L29 57L31 57L31 56L32 56L32 57L33 57L33 58L34 58L34 59L33 59L33 60L35 60L35 57L33 57L33 56L32 56L32 55L33 55L33 54L31 54L31 52L32 52L32 53L35 53L35 54L36 54L36 53L37 53L37 55L34 55L34 56L36 56L36 57L38 57L38 58L36 58L36 60L37 60L37 61L38 61L38 59L39 59L39 60L40 60L40 58L39 58L39 57L38 57L38 55L39 55L39 56L40 56L40 55L41 55L41 54L38 54L38 53L39 53L39 52L35 52L35 51L41 51L41 52L40 52L40 53L41 53L41 52L42 52L42 51L43 51L43 52L44 52L44 50L45 50L45 48L46 48L46 50L47 50L47 48L46 48L46 47L47 47L47 45L45 45L45 43L46 43L46 42L45 42L45 41L43 41L43 40L45 40L45 39L47 39L47 40L46 40L46 41L47 41L47 44L48 44L48 45L49 45L49 46L50 46L50 47L51 47L51 50L52 50L52 49L53 49L53 51L54 51L54 50L55 50L55 51L56 51L56 52L57 52L57 50L56 50L56 49L58 49L58 53L59 53L59 54L58 54L58 55L59 55L59 57L58 57L58 56L57 56L57 54L56 54L56 55L55 55L55 57L56 57L56 58L57 58L57 59L56 59L56 61L57 61L57 59L58 59L58 58L59 58L59 61L58 61L58 62L57 62L57 63L55 63L55 59L54 59L54 61L53 61L53 59L52 59L52 58L53 58L53 57L52 57L52 58L51 58L51 57L50 57L50 58L51 58L51 59L50 59L50 60L49 60L49 61L50 61L50 60L51 60L51 61L52 61L52 62L53 62L53 63L51 63L51 62L50 62L50 63L51 63L51 64L52 64L52 65L54 65L54 63L55 63L55 64L57 64L57 65L59 65L59 66L61 66L61 67L62 67L62 66L63 66L63 65L62 65L62 66L61 66L61 65L59 65L59 64L60 64L60 63L59 63L59 61L60 61L60 58L59 58L59 57L61 57L61 56L60 56L60 53L59 53L59 50L60 50L60 47L59 47L59 46L61 46L61 45L63 45L63 47L64 47L64 46L66 46L66 45L68 45L68 43L65 43L65 42L66 42L66 41L65 41L65 42L63 42L63 38L65 38L65 39L66 39L66 37L67 37L67 34L68 34L68 33L67 33L67 34L65 34L65 36L66 36L66 37L63 37L63 38L61 38L61 37L59 37L59 36L60 36L60 34L59 34L59 33L57 33L57 32L61 32L61 31L60 31L60 30L62 30L62 32L63 32L63 28L64 28L64 31L65 31L65 32L67 32L67 30L66 30L66 28L64 28L64 26L65 26L65 25L66 25L66 24L67 24L67 23L66 23L66 24L63 24L63 25L64 25L64 26L63 26L63 27L62 27L62 26L61 26L61 25L62 25L62 24L61 24L61 23L59 23L59 20L58 20L58 19L57 19L57 17L59 17L59 15L58 15L58 14L59 14L59 12L60 12L60 15L61 15L61 16L62 16L62 15L63 15L63 14L65 14L65 13L67 13L67 11L66 11L66 12L65 12L65 10L67 10L67 9L64 9L64 12L62 12L62 10L61 10L61 12L60 12L60 11L59 11L59 12L58 12L58 11L57 11L57 9L58 9L58 10L59 10L59 9L58 9L58 8L57 8L57 7L58 7L58 6L57 6L57 7L56 7L56 8L55 8L55 10L52 10L52 17L50 17L50 18L51 18L51 19L50 19L50 22L51 22L51 20L52 20L52 19L53 19L53 20L54 20L54 21L56 21L56 22L52 22L52 23L53 23L53 24L51 24L51 23L49 23L49 25L51 25L51 26L53 26L53 27L54 27L54 26L55 26L55 28L58 28L58 29L59 29L59 28L58 28L58 27L60 27L60 30L59 30L59 31L57 31L57 30L56 30L56 29L54 29L54 28L52 28L52 29L50 29L50 28L51 28L51 27L50 27L50 26L48 26L48 24L47 24L47 25L46 25L46 23L47 23L47 22L48 22L48 21L49 21L49 20L48 20L48 18L45 18L45 17L46 17L46 16L47 16L47 17L49 17L49 16L50 16L50 15L51 15L51 14L49 14L49 13L47 13L47 12L48 12L48 11L47 11L47 9L46 9L46 8L48 8L48 9L49 9L49 8L51 8L51 7L50 7L50 6L49 6L49 4L48 4L48 5L47 5L47 3ZM60 3L60 5L61 5L61 3ZM14 4L14 5L13 5L13 6L14 6L14 7L15 7L15 4ZM30 4L30 5L31 5L31 4ZM40 4L40 5L41 5L41 4ZM25 5L25 8L23 8L23 7L24 7L24 6L23 6L23 7L22 7L22 8L23 8L23 9L24 9L24 10L26 10L26 11L30 11L30 9L28 9L28 8L29 8L29 7L30 7L30 6L29 6L29 7L28 7L28 6L27 6L27 5ZM33 5L33 8L36 8L36 5ZM46 5L46 7L47 7L47 5ZM8 6L8 7L9 7L9 6ZM18 6L18 7L19 7L19 6ZM26 6L26 8L28 8L28 7L27 7L27 6ZM31 6L31 10L32 10L32 6ZM34 6L34 7L35 7L35 6ZM48 6L48 7L49 7L49 6ZM60 6L60 7L61 7L61 6ZM0 8L0 9L1 9L1 10L2 10L2 9L4 9L4 8ZM26 9L26 10L27 10L27 9ZM50 9L50 10L49 10L49 11L51 11L51 9ZM7 10L7 11L8 11L8 10ZM38 10L38 11L39 11L39 10ZM1 11L1 13L0 13L0 14L2 14L2 11ZM10 11L10 12L9 12L9 16L10 16L10 17L11 17L11 16L10 16L10 15L11 15L11 14L10 14L10 12L11 12L11 11ZM17 11L17 12L18 12L18 11ZM53 11L53 12L54 12L54 11ZM55 11L55 13L56 13L56 12L57 12L57 11ZM38 12L38 13L37 13L37 17L39 17L39 20L38 20L38 19L37 19L37 18L36 18L36 17L34 17L34 15L35 15L35 16L36 16L36 14L33 14L33 13L32 13L32 14L33 14L33 16L32 16L32 15L31 15L31 17L30 17L30 19L29 19L29 20L27 20L27 21L23 21L23 20L21 20L21 21L23 21L23 22L20 22L20 19L21 19L21 18L22 18L22 19L24 19L24 20L26 20L26 18L25 18L25 19L24 19L24 18L23 18L23 17L22 17L22 16L24 16L24 17L25 17L25 16L26 16L26 17L28 17L28 18L29 18L29 17L28 17L28 16L26 16L26 14L25 14L25 15L21 15L21 16L20 16L20 19L16 19L16 16L17 16L17 15L19 15L19 14L17 14L17 15L16 15L16 14L15 14L15 13L12 13L12 16L14 16L14 19L13 19L13 20L12 20L12 18L10 18L10 19L9 19L9 18L8 18L8 17L7 17L7 18L8 18L8 19L9 19L9 20L10 20L10 21L9 21L9 22L8 22L8 23L7 23L7 24L5 24L5 26L4 26L4 25L3 25L3 26L4 26L4 28L6 28L6 29L7 29L7 30L6 30L6 31L7 31L7 30L9 30L9 29L10 29L10 28L11 28L11 27L10 27L10 26L11 26L11 25L12 25L12 24L13 24L13 23L14 23L14 24L15 24L15 23L16 23L16 24L17 24L17 25L19 25L19 26L18 26L18 27L19 27L19 29L21 29L21 30L20 30L20 31L21 31L21 34L19 34L19 36L20 36L20 35L21 35L21 34L22 34L22 35L23 35L23 36L24 36L24 37L25 37L25 38L26 38L26 39L27 39L27 40L25 40L25 39L24 39L24 38L22 38L22 39L24 39L24 40L23 40L23 41L21 41L21 39L17 39L17 41L16 41L16 42L17 42L17 43L18 43L18 44L17 44L17 46L18 46L18 48L16 48L16 44L15 44L15 42L13 42L13 39L14 39L14 38L13 38L13 39L12 39L12 42L13 42L13 43L14 43L14 44L12 44L12 47L13 47L13 49L14 49L14 47L15 47L15 50L13 50L13 51L14 51L14 52L15 52L15 53L16 53L16 54L17 54L17 52L20 52L20 53L22 53L22 51L23 51L23 49L22 49L22 48L21 48L21 50L20 50L20 49L19 49L19 51L17 51L17 50L18 50L18 48L20 48L20 47L21 47L21 46L22 46L22 47L23 47L23 48L24 48L24 47L23 47L23 46L26 46L26 47L27 47L27 48L29 48L29 50L27 50L27 49L25 49L25 50L24 50L24 51L26 51L26 50L27 50L27 52L24 52L24 53L25 53L25 54L24 54L24 55L23 55L23 54L22 54L22 56L21 56L21 58L20 58L20 57L18 57L18 56L16 56L16 59L17 59L17 60L18 60L18 58L20 58L20 59L21 59L21 60L23 60L23 62L22 62L22 63L24 63L24 60L23 60L23 59L22 59L22 56L23 56L23 57L24 57L24 55L25 55L25 56L27 56L27 53L28 53L28 54L29 54L29 52L28 52L28 51L33 51L33 48L38 48L38 49L36 49L36 50L40 50L40 49L39 49L39 47L40 47L40 48L42 48L42 49L44 49L44 48L43 48L43 46L44 46L44 47L45 47L45 46L44 46L44 45L42 45L42 44L41 44L41 45L40 45L40 44L39 44L39 47L36 47L36 46L38 46L38 44L36 44L36 46L34 46L34 45L35 45L35 43L36 43L36 41L39 41L39 42L38 42L38 43L39 43L39 42L40 42L40 43L43 43L43 42L42 42L42 41L41 41L41 42L40 42L40 40L41 40L41 39L42 39L42 38L41 38L41 37L40 37L40 38L39 38L39 37L38 37L38 33L37 33L37 32L38 32L38 31L40 31L40 32L39 32L39 33L40 33L40 34L39 34L39 35L40 35L40 36L41 36L41 35L42 35L42 37L43 37L43 38L44 38L44 39L45 39L45 38L46 38L46 37L49 37L49 39L50 39L50 40L49 40L49 41L51 41L51 39L50 39L50 38L51 38L51 35L52 35L52 36L54 36L54 37L55 37L55 38L58 38L58 37L56 37L56 36L54 36L54 35L55 35L55 33L53 33L53 32L54 32L54 31L55 31L55 32L56 32L56 30L54 30L54 29L53 29L53 30L54 30L54 31L53 31L53 32L52 32L52 30L50 30L50 32L49 32L49 29L45 29L45 26L46 26L46 27L47 27L47 26L46 26L46 25L44 25L44 23L43 23L43 24L42 24L42 22L44 22L44 21L43 21L43 18L44 18L44 20L45 20L45 21L46 21L46 19L45 19L45 18L44 18L44 17L45 17L45 16L46 16L46 15L47 15L47 14L46 14L46 13L44 13L44 14L45 14L45 15L44 15L44 16L43 16L43 18L42 18L42 16L41 16L41 17L40 17L40 14L39 14L39 12ZM50 12L50 13L51 13L51 12ZM61 12L61 14L63 14L63 13L62 13L62 12ZM57 13L57 14L58 14L58 13ZM13 14L13 15L15 15L15 16L16 16L16 15L15 15L15 14ZM38 14L38 16L39 16L39 14ZM48 14L48 15L49 15L49 14ZM53 14L53 15L54 15L54 16L53 16L53 19L54 19L54 20L57 20L57 19L54 19L54 17L57 17L57 16L58 16L58 15L57 15L57 16L56 16L56 15L54 15L54 14ZM18 16L18 17L19 17L19 16ZM66 16L66 17L67 17L67 18L68 18L68 17L67 17L67 16ZM31 17L31 19L33 19L33 20L32 20L32 22L31 22L31 20L30 20L30 21L27 21L27 23L26 23L26 22L25 22L25 24L26 24L26 25L24 25L24 27L23 27L23 28L22 28L22 26L23 26L23 25L22 25L22 24L23 24L23 23L20 23L20 22L19 22L19 20L18 20L18 22L16 22L16 21L15 21L15 20L16 20L16 19L14 19L14 20L13 20L13 21L10 21L10 22L9 22L9 23L10 23L10 24L9 24L9 25L8 25L8 24L7 24L7 25L6 25L6 26L7 26L7 25L8 25L8 26L9 26L9 25L10 25L10 24L12 24L12 23L13 23L13 22L14 22L14 23L15 23L15 22L16 22L16 23L18 23L18 24L21 24L21 28L22 28L22 30L21 30L21 31L22 31L22 32L23 32L23 33L22 33L22 34L23 34L23 33L24 33L24 32L23 32L23 31L25 31L25 35L26 35L26 38L27 38L27 35L28 35L28 38L29 38L29 36L31 36L31 37L30 37L30 38L32 38L32 39L33 39L33 38L36 38L36 37L32 37L32 36L31 36L31 35L32 35L32 34L31 34L31 33L32 33L32 32L30 32L30 33L29 33L29 34L31 34L31 35L28 35L28 32L29 32L29 31L30 31L30 29L31 29L31 31L33 31L33 30L32 30L32 29L34 29L34 30L37 30L37 31L38 31L38 30L39 30L39 29L41 29L41 30L40 30L40 31L41 31L41 33L42 33L42 32L43 32L43 35L45 35L45 34L46 34L46 35L47 35L47 31L44 31L44 30L45 30L45 29L43 29L43 28L42 28L42 27L44 27L44 25L42 25L42 24L39 24L39 23L38 23L38 22L36 22L36 21L37 21L37 19L36 19L36 21L35 21L35 18L34 18L34 17L33 17L33 18L32 18L32 17ZM4 18L4 19L5 19L5 18ZM33 18L33 19L34 19L34 18ZM10 19L10 20L11 20L11 19ZM41 19L41 21L42 21L42 19ZM33 20L33 21L34 21L34 22L32 22L32 23L33 23L33 24L32 24L32 25L31 25L31 24L30 24L30 22L28 22L28 23L27 23L27 26L25 26L25 27L24 27L24 28L25 28L25 31L27 31L27 32L26 32L26 33L27 33L27 32L28 32L28 31L29 31L29 29L28 29L28 28L27 28L27 26L28 26L28 25L29 25L29 24L30 24L30 25L31 25L31 27L30 27L30 26L29 26L29 27L30 27L30 28L33 28L33 27L35 27L35 29L36 29L36 28L37 28L37 29L39 29L39 28L38 28L38 27L39 27L39 26L40 26L40 25L39 25L39 24L38 24L38 27L35 27L35 23L34 23L34 22L35 22L35 21L34 21L34 20ZM47 20L47 21L48 21L48 20ZM62 20L62 22L63 22L63 23L64 23L64 22L63 22L63 20ZM14 21L14 22L15 22L15 21ZM65 21L65 22L66 22L66 21ZM10 22L10 23L11 23L11 22ZM18 22L18 23L19 23L19 22ZM40 22L40 23L41 23L41 22ZM56 22L56 23L55 23L55 25L56 25L56 24L57 24L57 22ZM28 23L28 24L29 24L29 23ZM36 23L36 24L37 24L37 23ZM58 23L58 24L59 24L59 25L61 25L61 24L59 24L59 23ZM33 25L33 26L32 26L32 27L33 27L33 26L34 26L34 25ZM57 25L57 26L58 26L58 25ZM41 26L41 27L42 27L42 26ZM6 27L6 28L10 28L10 27ZM16 27L16 28L17 28L17 27ZM49 27L49 28L50 28L50 27ZM61 27L61 29L62 29L62 27ZM68 27L68 28L69 28L69 27ZM41 28L41 29L42 29L42 28ZM23 29L23 30L24 30L24 29ZM26 29L26 30L27 30L27 29ZM18 30L18 31L19 31L19 30ZM35 31L35 32L36 32L36 31ZM14 32L14 33L15 33L15 32ZM16 32L16 33L17 33L17 32ZM48 32L48 33L49 33L49 32ZM5 33L5 36L8 36L8 33ZM33 33L33 36L36 36L36 33ZM44 33L44 34L45 34L45 33ZM50 33L50 34L48 34L48 36L49 36L49 37L50 37L50 36L49 36L49 35L50 35L50 34L51 34L51 33ZM52 33L52 34L53 34L53 35L54 35L54 34L53 34L53 33ZM56 33L56 34L57 34L57 33ZM61 33L61 36L64 36L64 33ZM6 34L6 35L7 35L7 34ZM26 34L26 35L27 35L27 34ZM34 34L34 35L35 35L35 34ZM58 34L58 35L59 35L59 34ZM62 34L62 35L63 35L63 34ZM2 36L2 37L3 37L3 38L1 38L1 39L4 39L4 41L5 41L5 42L4 42L4 43L5 43L5 42L7 42L7 41L5 41L5 40L7 40L7 39L5 39L5 38L7 38L7 37L3 37L3 36ZM44 36L44 38L45 38L45 36ZM8 37L8 38L9 38L9 39L8 39L8 40L9 40L9 39L10 39L10 38L9 38L9 37ZM37 37L37 39L38 39L38 40L39 40L39 38L38 38L38 37ZM52 37L52 38L53 38L53 39L52 39L52 40L54 40L54 38L53 38L53 37ZM40 38L40 39L41 39L41 38ZM60 38L60 39L61 39L61 40L62 40L62 39L61 39L61 38ZM28 39L28 40L27 40L27 41L26 41L26 42L27 42L27 43L28 43L28 42L27 42L27 41L29 41L29 42L31 42L31 43L30 43L30 45L28 45L28 44L26 44L26 45L27 45L27 46L29 46L29 48L30 48L30 45L31 45L31 47L32 47L32 48L31 48L31 49L30 49L30 50L31 50L31 49L32 49L32 48L33 48L33 45L32 45L32 44L31 44L31 43L33 43L33 42L31 42L31 41L32 41L32 40L31 40L31 39ZM34 39L34 42L35 42L35 41L36 41L36 40L35 40L35 39ZM55 39L55 42L54 42L54 41L53 41L53 42L51 42L51 43L50 43L50 42L49 42L49 43L48 43L48 44L50 44L50 45L52 45L52 46L51 46L51 47L52 47L52 46L55 46L55 47L56 47L56 46L57 46L57 47L58 47L58 46L57 46L57 45L56 45L56 46L55 46L55 45L54 45L54 44L57 44L57 43L58 43L58 44L59 44L59 43L60 43L60 44L62 44L62 43L61 43L61 42L59 42L59 41L60 41L60 40L59 40L59 39L57 39L57 40L56 40L56 39ZM18 40L18 41L19 41L19 44L18 44L18 45L20 45L20 46L21 46L21 45L20 45L20 44L22 44L22 43L23 43L23 44L24 44L24 45L25 45L25 44L24 44L24 43L25 43L25 42L21 42L21 41L20 41L20 40ZM24 40L24 41L25 41L25 40ZM30 40L30 41L31 41L31 40ZM57 40L57 41L59 41L59 40ZM2 41L2 42L3 42L3 41ZM44 42L44 43L45 43L45 42ZM53 42L53 43L52 43L52 44L54 44L54 42ZM55 42L55 43L57 43L57 42ZM58 42L58 43L59 43L59 42ZM63 43L63 45L65 45L65 44L64 44L64 43ZM4 44L4 45L5 45L5 44ZM14 44L14 45L13 45L13 47L14 47L14 45L15 45L15 44ZM41 45L41 47L42 47L42 45ZM10 46L10 48L11 48L11 46ZM49 48L49 49L50 49L50 48ZM55 48L55 49L56 49L56 48ZM58 48L58 49L59 49L59 48ZM16 49L16 50L17 50L17 49ZM65 49L65 51L64 51L64 52L65 52L65 53L63 53L63 54L66 54L66 55L67 55L67 57L68 57L68 56L69 56L69 55L68 55L68 54L69 54L69 52L68 52L68 51L66 51L66 49ZM67 49L67 50L68 50L68 49ZM9 50L9 52L10 52L10 50ZM34 50L34 51L35 51L35 50ZM16 51L16 52L17 52L17 51ZM45 51L45 53L46 53L46 51ZM50 51L50 52L52 52L52 51ZM61 51L61 52L63 52L63 51ZM67 52L67 54L68 54L68 52ZM18 53L18 55L21 55L21 54L19 54L19 53ZM42 53L42 54L43 54L43 53ZM1 54L1 55L2 55L2 54ZM6 54L6 55L7 55L7 54ZM13 54L13 55L14 55L14 54ZM25 54L25 55L26 55L26 54ZM30 54L30 55L31 55L31 54ZM28 55L28 57L29 57L29 55ZM45 56L45 57L46 57L46 56ZM6 57L6 58L7 58L7 59L8 59L8 60L10 60L10 59L8 59L8 58L7 58L7 57ZM0 58L0 61L1 61L1 58ZM48 58L48 59L49 59L49 58ZM12 59L12 60L13 60L13 59ZM51 59L51 60L52 60L52 59ZM3 60L3 61L5 61L5 60ZM33 61L33 64L36 64L36 61ZM61 61L61 64L64 64L64 61ZM34 62L34 63L35 63L35 62ZM62 62L62 63L63 63L63 62ZM57 63L57 64L58 64L58 63ZM12 64L12 65L13 65L13 64ZM67 64L67 65L68 65L68 64ZM14 65L14 66L13 66L13 67L14 67L14 68L16 68L16 67L15 67L15 66L16 66L16 65ZM20 65L20 67L19 67L19 68L20 68L20 67L21 67L21 68L23 68L23 67L22 67L22 66L21 66L21 65ZM46 65L46 68L45 68L45 69L48 69L48 67L50 67L50 66L47 66L47 65ZM33 66L33 67L34 67L34 66ZM39 66L39 68L40 68L40 66ZM44 66L44 67L45 67L45 66ZM53 66L53 67L54 67L54 66ZM64 67L64 69L65 69L65 67ZM68 67L68 68L69 68L69 67ZM0 0L0 7L7 7L7 0ZM1 1L1 6L6 6L6 1ZM2 2L2 5L5 5L5 2ZM62 0L62 7L69 7L69 0ZM63 1L63 6L68 6L68 1ZM64 2L64 5L67 5L67 2ZM0 62L0 69L7 69L7 62ZM1 63L1 68L6 68L6 63ZM2 64L2 67L5 67L5 64Z" fill="#000000"/></g></g></svg>
