<?xml version="1.0" encoding="UTF-8"?>
<svg xmlns="http://www.w3.org/2000/svg" version="1.1" width="300" height="300" viewBox="0 0 300 300"><rect x="0" y="0" width="300" height="300" fill="#ffffff"/><g transform="scale(4.348)"><g transform="translate(0,0)"><path fill-rule="evenodd" d="M8 0L8 1L9 1L9 0ZM11 0L11 1L10 1L10 2L8 2L8 5L9 5L9 3L10 3L10 5L11 5L11 6L10 6L10 7L9 7L9 6L8 6L8 7L9 7L9 8L8 8L8 9L7 9L7 8L6 8L6 9L5 9L5 11L4 11L4 8L0 8L0 11L4 11L4 12L2 12L2 13L4 13L4 12L5 12L5 11L7 11L7 12L6 12L6 13L7 13L7 12L8 12L8 9L9 9L9 8L12 8L12 7L13 7L13 5L12 5L12 4L11 4L11 3L12 3L12 2L13 2L13 3L14 3L14 4L15 4L15 3L16 3L16 4L19 4L19 5L18 5L18 7L19 7L19 5L22 5L22 7L21 7L21 6L20 6L20 7L21 7L21 8L22 8L22 9L23 9L23 11L22 11L22 10L20 10L20 9L19 9L19 11L17 11L17 12L16 12L16 13L15 13L15 11L16 11L16 10L15 10L15 9L17 9L17 10L18 10L18 9L17 9L17 8L16 8L16 7L17 7L17 5L16 5L16 7L15 7L15 5L14 5L14 8L15 8L15 9L14 9L14 10L13 10L13 11L12 11L12 10L11 10L11 14L10 14L10 13L8 13L8 14L9 14L9 15L8 15L8 16L9 16L9 17L8 17L8 18L6 18L6 17L7 17L7 16L6 16L6 17L5 17L5 16L4 16L4 15L7 15L7 14L3 14L3 17L0 17L0 19L2 19L2 20L3 20L3 21L0 21L0 22L3 22L3 21L5 21L5 22L4 22L4 23L0 23L0 24L3 24L3 25L2 25L2 26L1 26L1 27L0 27L0 28L2 28L2 29L3 29L3 31L2 31L2 32L1 32L1 31L0 31L0 34L1 34L1 33L2 33L2 32L3 32L3 31L4 31L4 36L3 36L3 35L2 35L2 36L1 36L1 35L0 35L0 36L1 36L1 37L0 37L0 39L1 39L1 40L4 40L4 44L5 44L5 43L7 43L7 42L5 42L5 39L7 39L7 40L6 40L6 41L8 41L8 45L7 45L7 44L6 44L6 45L3 45L3 44L2 44L2 43L3 43L3 41L0 41L0 42L2 42L2 43L1 43L1 45L0 45L0 47L1 47L1 49L2 49L2 50L0 50L0 51L2 51L2 53L3 53L3 54L2 54L2 55L3 55L3 56L5 56L5 57L4 57L4 59L7 59L7 60L6 60L6 61L8 61L8 62L9 62L9 64L11 64L11 65L13 65L13 66L12 66L12 67L13 67L13 66L14 66L14 68L15 68L15 69L18 69L18 64L19 64L19 67L20 67L20 69L21 69L21 68L22 68L22 69L24 69L24 68L23 68L23 67L20 67L20 65L21 65L21 66L24 66L24 67L27 67L27 69L30 69L30 68L31 68L31 67L33 67L33 68L34 68L34 69L35 69L35 68L34 68L34 67L36 67L36 66L35 66L35 65L37 65L37 67L38 67L38 68L39 68L39 69L41 69L41 68L42 68L42 69L43 69L43 67L41 67L41 66L42 66L42 65L40 65L40 64L41 64L41 62L39 62L39 61L40 61L40 60L41 60L41 61L42 61L42 60L41 60L41 59L42 59L42 58L43 58L43 56L41 56L41 55L43 55L43 54L44 54L44 55L46 55L46 54L47 54L47 55L48 55L48 54L49 54L49 55L50 55L50 57L49 57L49 58L50 58L50 57L51 57L51 59L50 59L50 60L51 60L51 59L52 59L52 57L53 57L53 58L54 58L54 59L53 59L53 60L54 60L54 61L56 61L56 64L53 64L53 63L52 63L52 62L53 62L53 61L52 61L52 62L51 62L51 61L49 61L49 59L48 59L48 58L47 58L47 59L45 59L45 58L44 58L44 59L43 59L43 61L44 61L44 60L47 60L47 61L49 61L49 62L48 62L48 63L47 63L47 64L49 64L49 65L48 65L48 66L49 66L49 65L52 65L52 64L53 64L53 66L50 66L50 67L49 67L49 69L53 69L53 68L55 68L55 69L56 69L56 66L54 66L54 65L57 65L57 66L58 66L58 67L59 67L59 69L60 69L60 67L62 67L62 69L64 69L64 68L63 68L63 67L62 67L62 66L60 66L60 65L66 65L66 66L65 66L65 67L67 67L67 66L68 66L68 65L69 65L69 63L68 63L68 65L67 65L67 63L65 63L65 60L66 60L66 59L67 59L67 62L69 62L69 61L68 61L68 59L69 59L69 58L68 58L68 57L69 57L69 55L68 55L68 54L69 54L69 52L68 52L68 51L67 51L67 50L68 50L68 48L67 48L67 50L66 50L66 51L65 51L65 53L63 53L63 54L65 54L65 55L64 55L64 56L65 56L65 55L66 55L66 53L67 53L67 55L68 55L68 57L67 57L67 56L66 56L66 57L65 57L65 58L64 58L64 59L65 59L65 60L63 60L63 58L62 58L62 57L61 57L61 56L62 56L62 53L61 53L61 55L60 55L60 57L59 57L59 56L58 56L58 55L59 55L59 53L60 53L60 49L59 49L59 51L58 51L58 52L57 52L57 50L58 50L58 48L61 48L61 47L63 47L63 48L62 48L62 49L61 49L61 52L63 52L63 51L64 51L64 47L65 47L65 48L66 48L66 46L67 46L67 47L69 47L69 44L67 44L67 45L66 45L66 46L64 46L64 47L63 47L63 46L61 46L61 45L63 45L63 43L62 43L62 42L64 42L64 44L65 44L65 43L66 43L66 41L65 41L65 40L69 40L69 39L66 39L66 38L67 38L67 37L68 37L68 38L69 38L69 37L68 37L68 36L69 36L69 33L68 33L68 34L65 34L65 33L67 33L67 32L65 32L65 31L63 31L63 32L61 32L61 31L62 31L62 30L60 30L60 29L58 29L58 28L61 28L61 29L62 29L62 27L61 27L61 26L63 26L63 30L65 30L65 29L64 29L64 27L65 27L65 28L66 28L66 30L67 30L67 31L68 31L68 32L69 32L69 31L68 31L68 30L69 30L69 28L68 28L68 29L67 29L67 26L69 26L69 24L66 24L66 23L69 23L69 21L67 21L67 20L69 20L69 19L68 19L68 18L69 18L69 17L68 17L68 18L67 18L67 20L63 20L63 18L62 18L62 19L59 19L59 20L58 20L58 21L59 21L59 22L56 22L56 21L55 21L55 18L56 18L56 19L57 19L57 18L60 18L60 17L64 17L64 15L65 15L65 17L66 17L66 16L68 16L68 15L66 15L66 14L69 14L69 13L65 13L65 14L64 14L64 11L65 11L65 12L66 12L66 11L67 11L67 12L69 12L69 8L68 8L68 10L65 10L65 9L67 9L67 8L64 8L64 11L62 11L62 10L61 10L61 9L62 9L62 8L61 8L61 6L60 6L60 8L57 8L57 6L58 6L58 7L59 7L59 4L57 4L57 5L56 5L56 3L57 3L57 1L61 1L61 0L57 0L57 1L56 1L56 0L53 0L53 2L52 2L52 1L50 1L50 0L49 0L49 1L47 1L47 2L46 2L46 1L45 1L45 0L44 0L44 2L43 2L43 6L42 6L42 7L41 7L41 4L38 4L38 1L37 1L37 0L36 0L36 1L37 1L37 4L36 4L36 2L35 2L35 1L34 1L34 0L33 0L33 1L32 1L32 0L28 0L28 2L27 2L27 1L25 1L25 0L23 0L23 1L22 1L22 2L21 2L21 1L19 1L19 0L15 0L15 3L14 3L14 2L13 2L13 1L14 1L14 0L13 0L13 1L12 1L12 0ZM41 0L41 1L40 1L40 2L39 2L39 3L41 3L41 2L42 2L42 1L43 1L43 0ZM16 1L16 3L17 3L17 1ZM18 1L18 2L19 2L19 1ZM23 1L23 2L24 2L24 3L25 3L25 1ZM29 1L29 2L28 2L28 6L27 6L27 5L26 5L26 4L27 4L27 3L26 3L26 4L23 4L23 3L21 3L21 2L20 2L20 3L21 3L21 4L23 4L23 5L24 5L24 6L23 6L23 7L22 7L22 8L23 8L23 9L24 9L24 10L25 10L25 12L26 12L26 16L24 16L24 18L23 18L23 21L22 21L22 22L23 22L23 21L25 21L25 22L26 22L26 21L27 21L27 23L26 23L26 25L24 25L24 27L23 27L23 25L22 25L22 24L25 24L25 23L21 23L21 20L22 20L22 19L20 19L20 16L21 16L21 14L22 14L22 13L23 13L23 15L25 15L25 13L23 13L23 12L21 12L21 14L20 14L20 13L18 13L18 14L20 14L20 16L19 16L19 15L17 15L17 13L16 13L16 14L15 14L15 13L14 13L14 14L13 14L13 12L14 12L14 11L13 11L13 12L12 12L12 14L11 14L11 15L9 15L9 16L11 16L11 15L12 15L12 14L13 14L13 15L16 15L16 16L17 16L17 19L16 19L16 17L15 17L15 16L14 16L14 18L13 18L13 19L11 19L11 20L10 20L10 21L8 21L8 20L7 20L7 19L6 19L6 20L7 20L7 21L6 21L6 22L7 22L7 23L6 23L6 24L5 24L5 23L4 23L4 24L5 24L5 26L3 26L3 27L2 27L2 28L5 28L5 30L7 30L7 31L6 31L6 32L9 32L9 31L10 31L10 30L7 30L7 29L6 29L6 28L8 28L8 29L16 29L16 27L17 27L17 26L18 26L18 25L17 25L17 21L18 21L18 24L21 24L21 26L19 26L19 27L21 27L21 26L22 26L22 29L21 29L21 28L17 28L17 29L18 29L18 30L17 30L17 32L16 32L16 31L15 31L15 32L16 32L16 33L14 33L14 30L13 30L13 31L12 31L12 33L14 33L14 34L15 34L15 36L14 36L14 35L12 35L12 34L11 34L11 35L12 35L12 36L13 36L13 37L11 37L11 36L9 36L9 37L8 37L8 38L7 38L7 37L6 37L6 38L7 38L7 39L8 39L8 41L10 41L10 42L9 42L9 45L8 45L8 46L9 46L9 47L8 47L8 49L6 49L6 50L5 50L5 49L3 49L3 45L2 45L2 46L1 46L1 47L2 47L2 49L3 49L3 52L4 52L4 51L6 51L6 52L8 52L8 53L6 53L6 54L3 54L3 55L5 55L5 56L8 56L8 57L5 57L5 58L7 58L7 59L8 59L8 61L9 61L9 60L10 60L10 59L9 59L9 58L8 58L8 57L9 57L9 56L10 56L10 58L11 58L11 59L13 59L13 61L15 61L15 60L14 60L14 58L15 58L15 59L16 59L16 62L17 62L17 63L19 63L19 62L18 62L18 61L17 61L17 59L16 59L16 56L18 56L18 57L17 57L17 58L19 58L19 57L20 57L20 58L21 58L21 59L18 59L18 60L21 60L21 64L22 64L22 65L24 65L24 66L25 66L25 64L26 64L26 66L27 66L27 65L28 65L28 66L29 66L29 67L31 67L31 63L30 63L30 62L29 62L29 59L30 59L30 60L31 60L31 62L32 62L32 59L35 59L35 58L36 58L36 60L37 60L37 61L38 61L38 60L40 60L40 58L39 58L39 56L40 56L40 55L41 55L41 52L44 52L44 50L45 50L45 48L46 48L46 50L47 50L47 51L48 51L48 50L47 50L47 48L48 48L48 47L47 47L47 45L45 45L45 44L48 44L48 45L49 45L49 44L48 44L48 43L46 43L46 42L45 42L45 41L43 41L43 40L45 40L45 39L47 39L47 40L46 40L46 41L47 41L47 42L48 42L48 41L49 41L49 43L50 43L50 42L51 42L51 44L50 44L50 46L49 46L49 47L51 47L51 50L49 50L49 52L47 52L47 53L49 53L49 54L50 54L50 55L51 55L51 56L53 56L53 57L54 57L54 55L56 55L56 54L57 54L57 55L58 55L58 53L59 53L59 52L58 52L58 53L55 53L55 52L56 52L56 49L57 49L57 48L58 48L58 47L59 47L59 46L60 46L60 47L61 47L61 46L60 46L60 44L58 44L58 41L57 41L57 42L56 42L56 41L54 41L54 42L53 42L53 43L52 43L52 42L51 42L51 41L49 41L49 40L52 40L52 41L53 41L53 40L52 40L52 39L50 39L50 37L51 37L51 38L54 38L54 39L55 39L55 40L56 40L56 39L55 39L55 38L57 38L57 39L58 39L58 40L61 40L61 41L62 41L62 40L61 40L61 39L60 39L60 37L58 37L58 38L57 38L57 36L60 36L60 34L59 34L59 33L58 33L58 32L60 32L60 31L58 31L58 30L56 30L56 29L55 29L55 28L58 28L58 27L60 27L60 26L61 26L61 25L59 25L59 24L61 24L61 23L63 23L63 24L62 24L62 25L63 25L63 26L67 26L67 25L65 25L65 23L64 23L64 22L65 22L65 21L63 21L63 20L61 20L61 21L62 21L62 22L61 22L61 23L60 23L60 22L59 22L59 23L58 23L58 26L57 26L57 24L56 24L56 26L57 26L57 27L55 27L55 23L56 23L56 22L54 22L54 23L53 23L53 21L54 21L54 20L53 20L53 21L52 21L52 20L51 20L51 19L54 19L54 18L55 18L55 17L54 17L54 18L51 18L51 17L49 17L49 15L50 15L50 16L52 16L52 17L53 17L53 16L52 16L52 15L51 15L51 14L49 14L49 13L50 13L50 11L49 11L49 13L46 13L46 14L45 14L45 12L46 12L46 11L47 11L47 12L48 12L48 11L47 11L47 9L46 9L46 8L48 8L48 9L49 9L49 7L50 7L50 8L52 8L52 6L51 6L51 7L50 7L50 5L49 5L49 4L48 4L48 6L47 6L47 7L46 7L46 5L47 5L47 3L46 3L46 5L45 5L45 8L44 8L44 6L43 6L43 9L45 9L45 10L46 10L46 11L45 11L45 12L44 12L44 10L43 10L43 12L41 12L41 13L42 13L42 14L43 14L43 13L44 13L44 14L45 14L45 15L48 15L48 16L47 16L47 18L49 18L49 20L48 20L48 21L47 21L47 19L46 19L46 16L45 16L45 17L44 17L44 18L43 18L43 16L44 16L44 15L41 15L41 14L40 14L40 11L42 11L42 10L40 10L40 9L39 9L39 8L41 8L41 9L42 9L42 8L41 8L41 7L40 7L40 5L38 5L38 4L37 4L37 7L38 7L38 6L39 6L39 8L38 8L38 10L37 10L37 11L38 11L38 12L36 12L36 9L35 9L35 10L34 10L34 11L32 11L32 13L30 13L30 14L29 14L29 11L30 11L30 9L27 9L27 7L28 7L28 8L29 8L29 7L30 7L30 6L29 6L29 2L31 2L31 4L30 4L30 5L31 5L31 4L35 4L35 3L33 3L33 2L32 2L32 1ZM54 1L54 2L53 2L53 3L52 3L52 2L48 2L48 3L50 3L50 4L51 4L51 5L54 5L54 6L53 6L53 7L54 7L54 9L55 9L55 10L53 10L53 9L50 9L50 10L52 10L52 11L53 11L53 12L51 12L51 13L53 13L53 14L55 14L55 15L56 15L56 16L57 16L57 17L59 17L59 16L62 16L62 15L63 15L63 14L61 14L61 12L62 12L62 13L63 13L63 12L62 12L62 11L58 11L58 10L59 10L59 9L57 9L57 8L55 8L55 7L56 7L56 6L55 6L55 4L53 4L53 3L54 3L54 2L55 2L55 1ZM58 2L58 3L59 3L59 2ZM44 3L44 4L45 4L45 3ZM60 3L60 5L61 5L61 3ZM25 5L25 6L24 6L24 8L25 8L25 6L26 6L26 7L27 7L27 6L26 6L26 5ZM33 5L33 8L36 8L36 5ZM11 6L11 7L12 7L12 6ZM28 6L28 7L29 7L29 6ZM31 6L31 7L32 7L32 6ZM34 6L34 7L35 7L35 6ZM48 6L48 7L49 7L49 6ZM54 6L54 7L55 7L55 6ZM1 9L1 10L3 10L3 9ZM6 9L6 10L7 10L7 9ZM25 9L25 10L26 10L26 9ZM31 9L31 10L33 10L33 9ZM38 10L38 11L39 11L39 10ZM55 10L55 11L54 11L54 13L55 13L55 14L56 14L56 15L57 15L57 14L58 14L58 15L59 15L59 14L58 14L58 13L59 13L59 12L57 12L57 10ZM9 11L9 12L10 12L10 11ZM27 11L27 12L28 12L28 11ZM34 11L34 13L35 13L35 14L33 14L33 13L32 13L32 14L30 14L30 16L32 16L32 14L33 14L33 17L32 17L32 19L31 19L31 20L32 20L32 21L31 21L31 22L32 22L32 21L33 21L33 22L34 22L34 23L33 23L33 24L32 24L32 25L31 25L31 24L30 24L30 21L29 21L29 20L28 20L28 21L29 21L29 22L28 22L28 23L29 23L29 24L27 24L27 26L25 26L25 27L24 27L24 28L25 28L25 29L28 29L28 30L25 30L25 31L24 31L24 32L25 32L25 31L29 31L29 32L28 32L28 35L27 35L27 34L25 34L25 33L23 33L23 31L22 31L22 32L21 32L21 34L19 34L19 33L17 33L17 34L16 34L16 35L17 35L17 37L19 37L19 38L22 38L22 39L23 39L23 38L22 38L22 37L20 37L20 35L21 35L21 36L23 36L23 37L25 37L25 41L24 41L24 40L23 40L23 41L21 41L21 39L20 39L20 41L21 41L21 42L20 42L20 43L19 43L19 42L18 42L18 41L16 41L16 39L14 39L14 38L16 38L16 37L14 37L14 38L11 38L11 37L10 37L10 38L9 38L9 40L11 40L11 42L12 42L12 45L11 45L11 44L10 44L10 45L9 45L9 46L10 46L10 47L9 47L9 48L10 48L10 47L11 47L11 48L12 48L12 49L11 49L11 50L12 50L12 49L13 49L13 52L12 52L12 51L11 51L11 52L12 52L12 53L10 53L10 52L9 52L9 54L6 54L6 55L8 55L8 56L9 56L9 54L10 54L10 55L11 55L11 56L12 56L12 55L13 55L13 58L14 58L14 56L16 56L16 55L13 55L13 54L14 54L14 51L15 51L15 50L16 50L16 49L15 49L15 50L14 50L14 49L13 49L13 48L14 48L14 47L15 47L15 48L16 48L16 47L17 47L17 46L16 46L16 47L15 47L15 44L13 44L13 42L12 42L12 40L13 40L13 41L14 41L14 42L15 42L15 41L16 41L16 42L17 42L17 43L18 43L18 44L17 44L17 45L18 45L18 48L17 48L17 51L18 51L18 52L19 52L19 53L18 53L18 54L17 54L17 52L15 52L15 53L16 53L16 54L17 54L17 55L19 55L19 53L22 53L22 51L24 51L24 50L23 50L23 49L25 49L25 51L26 51L26 52L23 52L23 54L22 54L22 56L21 56L21 55L20 55L20 56L21 56L21 58L22 58L22 56L23 56L23 57L24 57L24 58L27 58L27 59L25 59L25 62L26 62L26 64L28 64L28 63L29 63L29 62L28 62L28 61L26 61L26 60L28 60L28 58L27 58L27 57L29 57L29 58L31 58L31 57L32 57L32 58L33 58L33 57L35 57L35 56L32 56L32 55L36 55L36 54L35 54L35 53L36 53L36 52L39 52L39 53L38 53L38 54L40 54L40 52L39 52L39 51L36 51L36 50L40 50L40 49L36 49L36 50L34 50L34 49L33 49L33 48L37 48L37 47L40 47L40 48L42 48L42 49L44 49L44 48L43 48L43 47L45 47L45 46L43 46L43 45L42 45L42 44L41 44L41 45L40 45L40 44L39 44L39 42L40 42L40 43L43 43L43 42L42 42L42 41L41 41L41 42L40 42L40 40L41 40L41 39L42 39L42 38L40 38L40 37L38 37L38 35L39 35L39 36L41 36L41 37L42 37L42 35L43 35L43 38L44 38L44 39L45 39L45 38L46 38L46 37L50 37L50 35L52 35L52 36L53 36L53 37L54 37L54 35L55 35L55 37L56 37L56 36L57 36L57 35L59 35L59 34L58 34L58 33L57 33L57 35L56 35L56 34L55 34L55 32L54 32L54 33L53 33L53 31L56 31L56 30L54 30L54 29L53 29L53 30L52 30L52 31L51 31L51 30L50 30L50 31L51 31L51 32L50 32L50 33L49 33L49 34L48 34L48 32L49 32L49 29L46 29L46 31L47 31L47 35L46 35L46 34L45 34L45 33L46 33L46 32L45 32L45 33L44 33L44 34L45 34L45 35L43 35L43 32L42 32L42 33L41 33L41 31L40 31L40 30L41 30L41 29L42 29L42 28L43 28L43 31L45 31L45 30L44 30L44 29L45 29L45 26L46 26L46 27L48 27L48 26L46 26L46 25L47 25L47 24L48 24L48 25L49 25L49 24L50 24L50 27L49 27L49 28L50 28L50 29L52 29L52 27L51 27L51 22L50 22L50 21L49 21L49 22L48 22L48 23L46 23L46 25L44 25L44 23L43 23L43 24L42 24L42 23L41 23L41 22L44 22L44 21L43 21L43 18L42 18L42 16L41 16L41 17L40 17L40 14L39 14L39 12L38 12L38 13L37 13L37 15L38 15L38 14L39 14L39 20L38 20L38 18L36 18L36 16L35 16L35 17L34 17L34 15L36 15L36 12L35 12L35 11ZM55 11L55 12L56 12L56 13L57 13L57 12L56 12L56 11ZM27 13L27 14L28 14L28 15L29 15L29 14L28 14L28 13ZM48 14L48 15L49 15L49 14ZM60 14L60 15L61 15L61 14ZM0 15L0 16L2 16L2 15ZM12 16L12 17L13 17L13 16ZM18 16L18 17L19 17L19 16ZM22 16L22 17L23 17L23 16ZM26 16L26 17L28 17L28 18L30 18L30 17L28 17L28 16ZM37 16L37 17L38 17L38 16ZM3 17L3 18L2 18L2 19L3 19L3 20L5 20L5 19L3 19L3 18L4 18L4 17ZM8 18L8 19L10 19L10 18ZM18 18L18 19L17 19L17 20L20 20L20 19L19 19L19 18ZM25 18L25 19L26 19L26 20L27 20L27 19L26 19L26 18ZM33 18L33 19L34 19L34 22L35 22L35 24L34 24L34 26L32 26L32 27L33 27L33 28L29 28L29 29L30 29L30 30L31 30L31 31L30 31L30 33L29 33L29 34L30 34L30 36L31 36L31 37L30 37L30 38L32 38L32 39L33 39L33 40L31 40L31 39L29 39L29 42L27 42L27 43L28 43L28 44L29 44L29 43L30 43L30 42L31 42L31 44L30 44L30 45L31 45L31 46L29 46L29 45L27 45L27 44L24 44L24 43L26 43L26 42L23 42L23 45L20 45L20 46L19 46L19 47L20 47L20 48L18 48L18 51L19 51L19 49L20 49L20 50L21 50L21 47L22 47L22 46L23 46L23 48L22 48L22 49L23 49L23 48L25 48L25 49L27 49L27 50L26 50L26 51L27 51L27 50L31 50L31 49L32 49L32 50L33 50L33 51L32 51L32 53L35 53L35 51L34 51L34 50L33 50L33 49L32 49L32 48L33 48L33 45L31 45L31 44L35 44L35 45L34 45L34 46L35 46L35 45L36 45L36 47L37 47L37 45L36 45L36 44L37 44L37 43L38 43L38 42L39 42L39 40L38 40L38 41L37 41L37 42L36 42L36 41L35 41L35 40L34 40L34 39L33 39L33 38L35 38L35 37L32 37L32 34L30 34L30 33L31 33L31 31L33 31L33 30L32 30L32 29L34 29L34 30L35 30L35 32L40 32L40 31L39 31L39 29L41 29L41 28L42 28L42 27L43 27L43 28L44 28L44 25L42 25L42 24L39 24L39 23L40 23L40 22L41 22L41 21L42 21L42 19L41 19L41 21L40 21L40 20L39 20L39 23L38 23L38 22L36 22L36 21L37 21L37 20L35 20L35 18ZM44 18L44 20L45 20L45 21L46 21L46 19L45 19L45 18ZM50 18L50 19L51 19L51 18ZM65 18L65 19L66 19L66 18ZM14 19L14 20L15 20L15 19ZM11 20L11 22L10 22L10 24L9 24L9 25L8 25L8 23L7 23L7 24L6 24L6 25L7 25L7 26L6 26L6 27L5 27L5 28L6 28L6 27L8 27L8 28L12 28L12 25L10 25L10 24L12 24L12 23L11 23L11 22L12 22L12 21L13 21L13 20ZM59 20L59 21L60 21L60 20ZM7 21L7 22L8 22L8 21ZM14 21L14 23L13 23L13 25L15 25L15 26L17 26L17 25L16 25L16 24L15 24L15 23L16 23L16 21ZM19 21L19 23L20 23L20 21ZM66 21L66 22L67 22L67 21ZM37 23L37 24L38 24L38 25L37 25L37 27L35 27L35 26L34 26L34 27L35 27L35 30L36 30L36 31L37 31L37 29L36 29L36 28L38 28L38 29L39 29L39 28L38 28L38 26L40 26L40 25L39 25L39 24L38 24L38 23ZM29 24L29 25L28 25L28 26L27 26L27 27L25 27L25 28L28 28L28 27L29 27L29 26L30 26L30 27L31 27L31 25L30 25L30 24ZM9 25L9 26L8 26L8 27L11 27L11 26L10 26L10 25ZM13 26L13 27L14 27L14 26ZM41 26L41 27L42 27L42 26ZM53 26L53 27L54 27L54 28L55 28L55 27L54 27L54 26ZM50 27L50 28L51 28L51 27ZM22 29L22 30L24 30L24 29ZM18 30L18 31L19 31L19 30ZM20 30L20 31L21 31L21 30ZM57 31L57 32L58 32L58 31ZM26 32L26 33L27 33L27 32ZM51 32L51 33L50 33L50 34L52 34L52 35L54 35L54 34L52 34L52 32ZM5 33L5 36L8 36L8 33ZM22 33L22 34L23 34L23 33ZM33 33L33 36L36 36L36 33ZM38 33L38 34L37 34L37 35L38 35L38 34L40 34L40 33ZM61 33L61 36L64 36L64 33ZM6 34L6 35L7 35L7 34ZM18 34L18 36L19 36L19 34ZM24 34L24 36L26 36L26 38L27 38L27 37L28 37L28 38L29 38L29 35L28 35L28 36L26 36L26 35L25 35L25 34ZM34 34L34 35L35 35L35 34ZM62 34L62 35L63 35L63 34ZM47 35L47 36L48 36L48 35ZM66 35L66 36L65 36L65 37L63 37L63 38L62 38L62 39L63 39L63 38L65 38L65 37L66 37L66 36L67 36L67 35ZM2 36L2 37L1 37L1 38L2 38L2 39L3 39L3 38L4 38L4 39L5 39L5 38L4 38L4 37L3 37L3 36ZM44 36L44 38L45 38L45 36ZM37 37L37 38L36 38L36 39L39 39L39 38L38 38L38 37ZM10 38L10 39L11 39L11 40L12 40L12 39L11 39L11 38ZM58 38L58 39L59 39L59 38ZM13 39L13 40L14 40L14 39ZM18 39L18 40L19 40L19 39ZM48 39L48 40L49 40L49 39ZM27 40L27 41L28 41L28 40ZM30 40L30 41L31 41L31 42L34 42L34 40L33 40L33 41L31 41L31 40ZM68 41L68 42L69 42L69 41ZM21 42L21 44L22 44L22 42ZM35 42L35 43L36 43L36 42ZM44 42L44 43L45 43L45 42ZM54 42L54 43L56 43L56 44L57 44L57 43L56 43L56 42ZM59 42L59 43L61 43L61 44L62 44L62 43L61 43L61 42ZM18 44L18 45L19 45L19 44ZM51 44L51 46L52 46L52 48L53 48L53 49L54 49L54 47L53 47L53 46L55 46L55 49L56 49L56 48L57 48L57 47L56 47L56 46L57 46L57 45L56 45L56 46L55 46L55 44L54 44L54 45L53 45L53 44ZM6 45L6 46L7 46L7 45ZM10 45L10 46L11 46L11 47L12 47L12 46L11 46L11 45ZM13 45L13 47L14 47L14 45ZM23 45L23 46L25 46L25 45ZM26 45L26 47L27 47L27 48L29 48L29 49L31 49L31 48L32 48L32 47L29 47L29 46L27 46L27 45ZM38 45L38 46L39 46L39 45ZM41 45L41 47L42 47L42 45ZM52 45L52 46L53 46L53 45ZM20 46L20 47L21 47L21 46ZM4 47L4 48L7 48L7 47ZM46 47L46 48L47 48L47 47ZM49 48L49 49L50 49L50 48ZM8 49L8 50L6 50L6 51L8 51L8 50L9 50L9 51L10 51L10 49ZM51 50L51 51L54 51L54 50ZM62 50L62 51L63 51L63 50ZM28 51L28 52L29 52L29 54L27 54L27 53L26 53L26 55L25 55L25 53L24 53L24 54L23 54L23 56L24 56L24 57L25 57L25 56L26 56L26 57L27 57L27 56L26 56L26 55L28 55L28 56L29 56L29 57L31 57L31 55L32 55L32 54L31 54L31 55L30 55L30 53L31 53L31 51ZM45 51L45 53L46 53L46 51ZM51 52L51 53L52 53L52 52ZM67 52L67 53L68 53L68 52ZM0 53L0 54L1 54L1 53ZM42 53L42 54L43 54L43 53ZM53 53L53 54L52 54L52 55L54 55L54 53ZM38 55L38 56L39 56L39 55ZM36 56L36 58L38 58L38 57L37 57L37 56ZM45 56L45 57L46 57L46 56ZM47 56L47 57L48 57L48 56ZM55 56L55 59L54 59L54 60L55 60L55 59L56 59L56 61L57 61L57 60L58 60L58 58L59 58L59 57L58 57L58 56ZM0 57L0 61L1 61L1 58L2 58L2 59L3 59L3 58L2 58L2 57ZM56 57L56 59L57 59L57 57ZM66 57L66 58L67 58L67 57ZM60 58L60 59L61 59L61 58ZM37 59L37 60L38 60L38 59ZM47 59L47 60L48 60L48 59ZM3 60L3 61L5 61L5 60ZM11 60L11 61L10 61L10 62L11 62L11 64L13 64L13 63L14 63L14 65L17 65L17 64L15 64L15 63L14 63L14 62L11 62L11 61L12 61L12 60ZM23 60L23 61L22 61L22 64L23 64L23 63L24 63L24 64L25 64L25 63L24 63L24 60ZM59 60L59 61L58 61L58 62L57 62L57 64L59 64L59 61L60 61L60 60ZM33 61L33 64L36 64L36 61ZM45 61L45 62L43 62L43 63L44 63L44 64L43 64L43 65L45 65L45 63L46 63L46 61ZM61 61L61 64L64 64L64 61ZM34 62L34 63L35 63L35 62ZM37 62L37 64L39 64L39 62ZM50 62L50 63L49 63L49 64L51 64L51 62ZM62 62L62 63L63 63L63 62ZM8 65L8 69L10 69L10 68L11 68L11 69L13 69L13 68L11 68L11 66L10 66L10 68L9 68L9 65ZM38 65L38 66L39 66L39 67L40 67L40 68L41 68L41 67L40 67L40 66L39 66L39 65ZM46 65L46 68L45 68L45 69L48 69L48 67L47 67L47 65ZM15 66L15 67L16 67L16 68L17 68L17 66ZM33 66L33 67L34 67L34 66ZM44 66L44 67L45 67L45 66ZM51 67L51 68L53 68L53 67ZM68 67L68 68L69 68L69 67ZM65 68L65 69L66 69L66 68ZM0 0L0 7L7 7L7 0ZM1 1L1 6L6 6L6 1ZM2 2L2 5L5 5L5 2ZM62 0L62 7L69 7L69 0ZM63 1L63 6L68 6L68 1ZM64 2L64 5L67 5L67 2ZM0 62L0 69L7 69L7 62ZM1 63L1 68L6 68L6 63ZM2 64L2 67L5 67L5 64Z" fill="#000000"/></g></g></svg>
