<?xml version="1.0" encoding="UTF-8"?>
<svg xmlns="http://www.w3.org/2000/svg" version="1.1" width="300" height="300" viewBox="0 0 300 300"><rect x="0" y="0" width="300" height="300" fill="#ffffff"/><g transform="scale(4.348)"><g transform="translate(0,0)"><path fill-rule="evenodd" d="M8 0L8 2L9 2L9 0ZM10 0L10 2L12 2L12 1L11 1L11 0ZM18 0L18 1L15 1L15 2L17 2L17 4L18 4L18 5L19 5L19 6L18 6L18 10L17 10L17 9L16 9L16 8L14 8L14 7L15 7L15 4L16 4L16 3L13 3L13 4L14 4L14 7L13 7L13 6L12 6L12 7L11 7L11 5L12 5L12 3L10 3L10 8L9 8L9 4L8 4L8 10L5 10L5 9L7 9L7 8L5 8L5 9L3 9L3 8L0 8L0 13L1 13L1 11L2 11L2 10L3 10L3 12L4 12L4 10L5 10L5 12L6 12L6 13L5 13L5 14L4 14L4 13L3 13L3 14L0 14L0 15L1 15L1 16L0 16L0 17L1 17L1 18L2 18L2 20L3 20L3 21L0 21L0 23L1 23L1 24L2 24L2 23L1 23L1 22L3 22L3 24L6 24L6 25L8 25L8 26L9 26L9 27L11 27L11 28L12 28L12 29L11 29L11 30L9 30L9 29L7 29L7 28L8 28L8 27L7 27L7 26L6 26L6 27L5 27L5 29L4 29L4 28L3 28L3 29L2 29L2 28L1 28L1 27L2 27L2 25L0 25L0 26L1 26L1 27L0 27L0 28L1 28L1 31L0 31L0 33L1 33L1 34L2 34L2 35L3 35L3 33L1 33L1 32L2 32L2 31L3 31L3 29L4 29L4 31L7 31L7 32L4 32L4 36L3 36L3 37L2 37L2 38L1 38L1 40L0 40L0 41L1 41L1 42L2 42L2 43L0 43L0 45L1 45L1 44L2 44L2 45L3 45L3 44L4 44L4 45L5 45L5 47L7 47L7 48L6 48L6 49L7 49L7 50L4 50L4 49L3 49L3 48L4 48L4 46L3 46L3 48L2 48L2 47L1 47L1 50L2 50L2 51L1 51L1 52L0 52L0 57L1 57L1 58L0 58L0 61L1 61L1 58L2 58L2 59L3 59L3 58L4 58L4 59L8 59L8 58L9 58L9 59L10 59L10 58L12 58L12 57L13 57L13 59L12 59L12 60L11 60L11 62L14 62L14 63L12 63L12 64L13 64L13 65L12 65L12 66L11 66L11 64L10 64L10 66L8 66L8 69L10 69L10 66L11 66L11 67L12 67L12 68L11 68L11 69L12 69L12 68L13 68L13 69L17 69L17 68L16 68L16 67L18 67L18 65L19 65L19 64L18 64L18 63L20 63L20 62L19 62L19 58L20 58L20 57L21 57L21 56L20 56L20 57L19 57L19 56L18 56L18 55L19 55L19 54L20 54L20 55L21 55L21 54L22 54L22 53L23 53L23 55L22 55L22 56L24 56L24 57L25 57L25 58L24 58L24 59L26 59L26 61L27 61L27 62L28 62L28 63L29 63L29 62L28 62L28 61L29 61L29 60L30 60L30 62L31 62L31 63L30 63L30 65L29 65L29 64L27 64L27 63L26 63L26 64L27 64L27 66L26 66L26 69L27 69L27 68L28 68L28 69L29 69L29 67L30 67L30 69L31 69L31 67L30 67L30 65L31 65L31 64L32 64L32 66L33 66L33 68L32 68L32 69L33 69L33 68L34 68L34 67L35 67L35 69L37 69L37 68L36 68L36 67L38 67L38 64L39 64L39 63L38 63L38 61L37 61L37 60L36 60L36 58L35 58L35 59L34 59L34 57L36 57L36 55L37 55L37 56L39 56L39 55L40 55L40 58L38 58L38 57L37 57L37 59L38 59L38 60L39 60L39 61L41 61L41 62L40 62L40 65L39 65L39 66L40 66L40 65L41 65L41 67L40 67L40 69L41 69L41 67L42 67L42 65L43 65L43 67L44 67L44 69L45 69L45 67L44 67L44 65L47 65L47 67L46 67L46 69L47 69L47 68L48 68L48 69L51 69L51 67L53 67L53 68L52 68L52 69L53 69L53 68L54 68L54 69L55 69L55 66L56 66L56 67L57 67L57 68L56 68L56 69L60 69L60 68L62 68L62 69L66 69L66 67L69 67L69 66L67 66L67 65L69 65L69 64L68 64L68 63L69 63L69 62L68 62L68 61L69 61L69 58L68 58L68 59L67 59L67 56L68 56L68 57L69 57L69 56L68 56L68 55L69 55L69 52L68 52L68 51L69 51L69 46L68 46L68 45L67 45L67 44L69 44L69 42L68 42L68 41L69 41L69 40L68 40L68 39L69 39L69 38L68 38L68 39L67 39L67 42L68 42L68 43L67 43L67 44L66 44L66 43L65 43L65 42L64 42L64 41L63 41L63 37L66 37L66 34L65 34L65 32L66 32L66 30L68 30L68 31L67 31L67 33L68 33L68 37L69 37L69 32L68 32L68 31L69 31L69 28L68 28L68 27L69 27L69 26L68 26L68 25L67 25L67 24L68 24L68 23L69 23L69 20L68 20L68 19L69 19L69 14L68 14L68 13L69 13L69 12L68 12L68 11L69 11L69 8L67 8L67 9L66 9L66 10L65 10L65 11L64 11L64 10L62 10L62 9L65 9L65 8L61 8L61 6L60 6L60 7L59 7L59 4L58 4L58 3L59 3L59 2L55 2L55 4L54 4L54 3L53 3L53 1L52 1L52 0L50 0L50 1L49 1L49 0L48 0L48 1L47 1L47 0L45 0L45 2L46 2L46 3L47 3L47 4L46 4L46 5L47 5L47 4L48 4L48 7L47 7L47 6L46 6L46 7L47 7L47 8L44 8L44 9L43 9L43 11L41 11L41 10L42 10L42 8L43 8L43 6L42 6L42 5L43 5L43 4L44 4L44 7L45 7L45 4L44 4L44 2L41 2L41 1L40 1L40 0L38 0L38 2L36 2L36 0L34 0L34 1L35 1L35 2L34 2L34 4L33 4L33 0L32 0L32 8L31 8L31 4L30 4L30 3L28 3L28 9L27 9L27 6L26 6L26 5L25 5L25 2L26 2L26 3L27 3L27 2L26 2L26 1L27 1L27 0L24 0L24 1L23 1L23 0ZM42 0L42 1L44 1L44 0ZM54 0L54 1L56 1L56 0ZM57 0L57 1L61 1L61 0ZM13 1L13 2L14 2L14 1ZM20 1L20 2L21 2L21 5L20 5L20 4L19 4L19 3L18 3L18 4L19 4L19 5L20 5L20 6L19 6L19 7L20 7L20 8L19 8L19 9L20 9L20 10L18 10L18 12L17 12L17 10L16 10L16 11L15 11L15 12L14 12L14 11L13 11L13 10L14 10L14 9L13 9L13 10L10 10L10 11L11 11L11 12L12 12L12 13L10 13L10 12L8 12L8 13L6 13L6 14L5 14L5 16L4 16L4 14L3 14L3 16L1 16L1 17L3 17L3 18L4 18L4 19L3 19L3 20L4 20L4 23L5 23L5 21L6 21L6 22L7 22L7 21L8 21L8 20L10 20L10 19L9 19L9 18L8 18L8 17L9 17L9 16L8 16L8 14L9 14L9 15L11 15L11 17L10 17L10 18L11 18L11 20L12 20L12 21L13 21L13 22L12 22L12 23L11 23L11 22L10 22L10 21L9 21L9 22L10 22L10 24L9 24L9 23L6 23L6 24L8 24L8 25L9 25L9 26L11 26L11 27L12 27L12 28L14 28L14 29L16 29L16 30L14 30L14 31L12 31L12 33L9 33L9 34L10 34L10 35L9 35L9 37L11 37L11 39L10 39L10 40L13 40L13 42L12 42L12 43L11 43L11 42L9 42L9 43L10 43L10 44L11 44L11 45L12 45L12 44L13 44L13 45L14 45L14 44L15 44L15 45L16 45L16 46L15 46L15 47L13 47L13 46L12 46L12 47L13 47L13 49L14 49L14 52L13 52L13 51L12 51L12 52L13 52L13 53L12 53L12 54L11 54L11 56L10 56L10 55L9 55L9 54L10 54L10 53L11 53L11 51L10 51L10 50L7 50L7 51L4 51L4 53L6 53L6 54L7 54L7 55L6 55L6 56L5 56L5 55L4 55L4 54L3 54L3 55L1 55L1 57L4 57L4 58L7 58L7 57L9 57L9 56L10 56L10 57L12 57L12 54L13 54L13 55L14 55L14 57L15 57L15 56L16 56L16 55L17 55L17 53L18 53L18 54L19 54L19 53L20 53L20 54L21 54L21 53L22 53L22 51L23 51L23 52L24 52L24 54L25 54L25 55L24 55L24 56L25 56L25 57L26 57L26 56L25 56L25 55L27 55L27 57L28 57L28 58L29 58L29 57L28 57L28 55L29 55L29 53L30 53L30 51L31 51L31 54L32 54L32 53L33 53L33 50L35 50L35 49L34 49L34 47L35 47L35 45L34 45L34 44L35 44L35 43L36 43L36 44L38 44L38 43L37 43L37 40L38 40L38 42L39 42L39 45L38 45L38 48L39 48L39 49L38 49L38 50L39 50L39 49L40 49L40 51L41 51L41 49L40 49L40 48L41 48L41 47L43 47L43 45L44 45L44 44L45 44L45 45L46 45L46 47L44 47L44 48L43 48L43 49L42 49L42 50L43 50L43 53L42 53L42 54L41 54L41 53L40 53L40 52L38 52L38 53L40 53L40 54L41 54L41 55L42 55L42 56L41 56L41 57L42 57L42 58L45 58L45 57L46 57L46 58L47 58L47 60L46 60L46 59L45 59L45 61L46 61L46 62L45 62L45 63L46 63L46 64L47 64L47 65L48 65L48 66L49 66L49 67L50 67L50 66L53 66L53 67L54 67L54 66L55 66L55 65L56 65L56 66L57 66L57 67L59 67L59 68L60 68L60 66L61 66L61 67L62 67L62 68L63 68L63 67L62 67L62 65L60 65L60 64L59 64L59 63L60 63L60 61L59 61L59 60L60 60L60 57L61 57L61 60L64 60L64 59L66 59L66 62L67 62L67 63L66 63L66 65L65 65L65 67L64 67L64 68L65 68L65 67L66 67L66 65L67 65L67 63L68 63L68 62L67 62L67 59L66 59L66 56L67 56L67 54L66 54L66 53L67 53L67 51L68 51L68 50L67 50L67 49L68 49L68 48L67 48L67 47L68 47L68 46L67 46L67 45L66 45L66 44L65 44L65 43L64 43L64 42L63 42L63 43L62 43L62 41L60 41L60 42L61 42L61 44L60 44L60 43L59 43L59 40L60 40L60 39L61 39L61 38L59 38L59 36L60 36L60 34L59 34L59 33L60 33L60 32L62 32L62 31L60 31L60 32L59 32L59 31L57 31L57 29L58 29L58 30L59 30L59 28L57 28L57 27L58 27L58 26L59 26L59 27L60 27L60 28L62 28L62 30L63 30L63 31L65 31L65 30L66 30L66 29L68 29L68 28L67 28L67 27L68 27L68 26L67 26L67 27L66 27L66 26L65 26L65 25L66 25L66 24L67 24L67 23L68 23L68 20L67 20L67 19L68 19L68 18L66 18L66 17L65 17L65 18L66 18L66 19L64 19L64 16L65 16L65 15L66 15L66 16L68 16L68 14L67 14L67 15L66 15L66 13L64 13L64 12L63 12L63 13L62 13L62 11L60 11L60 10L61 10L61 8L59 8L59 7L58 7L58 6L57 6L57 9L58 9L58 10L57 10L57 11L58 11L58 12L57 12L57 13L58 13L58 14L59 14L59 15L57 15L57 14L56 14L56 11L54 11L54 10L56 10L56 9L54 9L54 8L55 8L55 7L56 7L56 5L54 5L54 4L53 4L53 3L52 3L52 1L50 1L50 2L49 2L49 1L48 1L48 2L47 2L47 3L48 3L48 4L49 4L49 7L48 7L48 8L47 8L47 9L46 9L46 10L45 10L45 11L44 11L44 12L42 12L42 13L41 13L41 11L39 11L39 7L40 7L40 6L41 6L41 8L42 8L42 6L41 6L41 5L42 5L42 3L40 3L40 4L39 4L39 3L38 3L38 4L39 4L39 5L38 5L38 6L37 6L37 8L38 8L38 10L37 10L37 9L35 9L35 10L34 10L34 9L32 9L32 10L31 10L31 8L30 8L30 6L29 6L29 9L28 9L28 10L29 10L29 11L28 11L28 12L27 12L27 13L28 13L28 14L29 14L29 13L30 13L30 15L26 15L26 16L27 16L27 17L26 17L26 18L27 18L27 19L26 19L26 20L25 20L25 17L24 17L24 16L25 16L25 13L24 13L24 15L23 15L23 14L22 14L22 12L20 12L20 16L21 16L21 17L22 17L22 18L20 18L20 19L21 19L21 21L20 21L20 22L18 22L18 18L19 18L19 16L18 16L18 15L19 15L19 13L18 13L18 12L19 12L19 11L21 11L21 9L20 9L20 8L21 8L21 7L22 7L22 8L25 8L25 9L26 9L26 11L27 11L27 9L26 9L26 8L25 8L25 7L26 7L26 6L25 6L25 7L24 7L24 3L22 3L22 1ZM24 1L24 2L25 2L25 1ZM28 1L28 2L30 2L30 1ZM39 1L39 2L40 2L40 1ZM35 2L35 4L37 4L37 3L36 3L36 2ZM48 2L48 3L49 3L49 2ZM50 2L50 7L51 7L51 9L52 9L52 10L54 10L54 9L53 9L53 8L54 8L54 7L55 7L55 6L54 6L54 5L53 5L53 4L52 4L52 3L51 3L51 2ZM56 3L56 4L57 4L57 3ZM60 3L60 5L61 5L61 3ZM29 4L29 5L30 5L30 4ZM40 4L40 5L41 5L41 4ZM16 5L16 7L17 7L17 5ZM33 5L33 8L36 8L36 5ZM51 5L51 7L52 7L52 5ZM20 6L20 7L21 7L21 6ZM22 6L22 7L23 7L23 6ZM34 6L34 7L35 7L35 6ZM38 6L38 7L39 7L39 6ZM53 6L53 7L54 7L54 6ZM11 8L11 9L12 9L12 8ZM48 8L48 9L47 9L47 10L46 10L46 11L48 11L48 13L47 13L47 12L44 12L44 17L45 17L45 18L46 18L46 19L45 19L45 20L44 20L44 21L43 21L43 19L44 19L44 18L42 18L42 17L43 17L43 15L42 15L42 16L40 16L40 17L39 17L39 18L38 18L38 16L39 16L39 14L38 14L38 13L39 13L39 11L36 11L36 12L38 12L38 13L37 13L37 14L36 14L36 16L34 16L34 18L36 18L36 23L35 23L35 22L34 22L34 21L33 21L33 20L32 20L32 19L33 19L33 17L32 17L32 15L33 15L33 14L31 14L31 15L30 15L30 22L29 22L29 23L28 23L28 20L26 20L26 22L24 22L24 17L23 17L23 16L22 16L22 15L21 15L21 16L22 16L22 17L23 17L23 18L22 18L22 19L23 19L23 20L22 20L22 21L21 21L21 22L22 22L22 21L23 21L23 23L22 23L22 24L23 24L23 23L24 23L24 25L25 25L25 23L26 23L26 25L27 25L27 26L24 26L24 27L25 27L25 28L26 28L26 29L27 29L27 28L30 28L30 29L31 29L31 30L30 30L30 31L28 31L28 32L27 32L27 31L26 31L26 32L27 32L27 34L26 34L26 35L27 35L27 36L26 36L26 37L25 37L25 36L24 36L24 35L25 35L25 34L24 34L24 33L25 33L25 30L24 30L24 31L23 31L23 28L22 28L22 31L21 31L21 30L20 30L20 29L21 29L21 27L20 27L20 25L21 25L21 24L20 24L20 23L18 23L18 22L16 22L16 20L14 20L14 22L13 22L13 23L12 23L12 24L10 24L10 25L11 25L11 26L12 26L12 24L13 24L13 27L14 27L14 26L15 26L15 28L16 28L16 29L17 29L17 35L18 35L18 37L17 37L17 38L16 38L16 34L14 34L14 33L15 33L15 32L16 32L16 31L14 31L14 32L13 32L13 33L12 33L12 34L11 34L11 35L10 35L10 36L12 36L12 37L13 37L13 38L14 38L14 39L13 39L13 40L14 40L14 41L15 41L15 40L16 40L16 41L17 41L17 42L16 42L16 43L18 43L18 45L17 45L17 44L16 44L16 45L17 45L17 46L16 46L16 48L14 48L14 49L15 49L15 50L16 50L16 51L15 51L15 52L14 52L14 53L13 53L13 54L14 54L14 55L16 55L16 53L17 53L17 52L16 52L16 51L18 51L18 53L19 53L19 52L20 52L20 53L21 53L21 51L22 51L22 50L23 50L23 51L24 51L24 52L26 52L26 53L25 53L25 54L26 54L26 53L27 53L27 55L28 55L28 52L26 52L26 51L27 51L27 50L26 50L26 49L27 49L27 48L26 48L26 47L28 47L28 49L29 49L29 46L28 46L28 44L27 44L27 43L26 43L26 46L25 46L25 48L24 48L24 47L23 47L23 46L24 46L24 45L25 45L25 43L24 43L24 42L25 42L25 40L26 40L26 42L28 42L28 43L29 43L29 42L28 42L28 40L29 40L29 38L28 38L28 37L29 37L29 36L30 36L30 37L32 37L32 38L31 38L31 39L30 39L30 40L31 40L31 41L32 41L32 42L31 42L31 43L30 43L30 47L32 47L32 46L31 46L31 45L32 45L32 44L31 44L31 43L34 43L34 42L36 42L36 39L37 39L37 34L38 34L38 35L39 35L39 34L41 34L41 35L40 35L40 38L38 38L38 39L40 39L40 41L39 41L39 42L42 42L42 43L41 43L41 44L42 44L42 45L43 45L43 44L42 44L42 43L44 43L44 41L45 41L45 42L46 42L46 41L47 41L47 39L46 39L46 35L47 35L47 37L49 37L49 38L48 38L48 41L49 41L49 42L50 42L50 43L48 43L48 42L47 42L47 44L46 44L46 45L47 45L47 48L44 48L44 50L46 50L46 51L44 51L44 54L42 54L42 55L44 55L44 57L45 57L45 55L47 55L47 56L48 56L48 57L47 57L47 58L48 58L48 61L47 61L47 63L48 63L48 65L49 65L49 66L50 66L50 65L51 65L51 64L52 64L52 65L53 65L53 66L54 66L54 64L56 64L56 65L58 65L58 60L59 60L59 59L58 59L58 56L59 56L59 57L60 57L60 54L62 54L62 55L63 55L63 54L64 54L64 56L63 56L63 58L62 58L62 59L64 59L64 57L65 57L65 56L66 56L66 54L64 54L64 53L65 53L65 52L66 52L66 51L65 51L65 50L66 50L66 47L67 47L67 46L65 46L65 50L64 50L64 48L62 48L62 47L64 47L64 45L65 45L65 44L64 44L64 43L63 43L63 44L62 44L62 47L60 47L60 48L58 48L58 47L59 47L59 46L61 46L61 45L60 45L60 44L59 44L59 46L58 46L58 45L57 45L57 44L58 44L58 43L57 43L57 42L58 42L58 40L59 40L59 38L58 38L58 35L59 35L59 34L58 34L58 32L57 32L57 31L56 31L56 34L55 34L55 35L54 35L54 36L52 36L52 37L53 37L53 38L52 38L52 39L51 39L51 38L50 38L50 37L49 37L49 36L51 36L51 35L49 35L49 34L50 34L50 33L49 33L49 32L50 32L50 31L53 31L53 30L54 30L54 33L55 33L55 30L56 30L56 29L57 29L57 28L56 28L56 29L55 29L55 28L54 28L54 29L53 29L53 27L57 27L57 26L58 26L58 24L60 24L60 25L59 25L59 26L60 26L60 27L61 27L61 26L60 26L60 25L62 25L62 24L60 24L60 23L62 23L62 21L63 21L63 24L64 24L64 25L63 25L63 27L62 27L62 28L63 28L63 27L64 27L64 29L65 29L65 27L64 27L64 25L65 25L65 24L66 24L66 23L67 23L67 22L65 22L65 24L64 24L64 21L65 21L65 20L64 20L64 19L62 19L62 17L63 17L63 15L64 15L64 14L63 14L63 15L62 15L62 17L61 17L61 14L62 14L62 13L61 13L61 14L60 14L60 13L59 13L59 14L60 14L60 17L59 17L59 16L56 16L56 15L55 15L55 16L54 16L54 11L53 11L53 12L52 12L52 14L50 14L50 12L51 12L51 10L50 10L50 9L49 9L49 8ZM1 9L1 10L2 10L2 9ZM22 9L22 11L23 11L23 9ZM48 9L48 11L49 11L49 12L50 12L50 11L49 11L49 9ZM8 10L8 11L9 11L9 10ZM24 10L24 11L25 11L25 10ZM30 10L30 11L31 11L31 10ZM32 10L32 11L33 11L33 12L32 12L32 13L34 13L34 10ZM66 10L66 12L67 12L67 10ZM6 11L6 12L7 12L7 11ZM59 11L59 12L60 12L60 11ZM28 12L28 13L29 13L29 12ZM30 12L30 13L31 13L31 12ZM9 13L9 14L10 14L10 13ZM12 13L12 14L13 14L13 13ZM40 13L40 14L41 14L41 13ZM46 13L46 14L45 14L45 17L46 17L46 18L47 18L47 19L46 19L46 20L45 20L45 21L44 21L44 23L42 23L42 22L43 22L43 21L42 21L42 18L41 18L41 17L40 17L40 19L39 19L39 20L38 20L38 21L39 21L39 22L40 22L40 24L39 24L39 23L38 23L38 24L37 24L37 25L36 25L36 24L35 24L35 23L34 23L34 22L32 22L32 21L31 21L31 23L30 23L30 24L31 24L31 23L32 23L32 25L30 25L30 26L29 26L29 24L27 24L27 25L28 25L28 26L27 26L27 27L26 27L26 28L27 28L27 27L28 27L28 26L29 26L29 27L30 27L30 26L33 26L33 27L34 27L34 28L32 28L32 29L34 29L34 28L35 28L35 27L34 27L34 24L35 24L35 25L36 25L36 26L37 26L37 27L36 27L36 28L37 28L37 29L38 29L38 30L37 30L37 33L38 33L38 34L39 34L39 33L40 33L40 31L39 31L39 25L40 25L40 28L43 28L43 29L40 29L40 30L42 30L42 36L43 36L43 37L42 37L42 39L41 39L41 38L40 38L40 39L41 39L41 41L42 41L42 42L43 42L43 41L44 41L44 40L45 40L45 41L46 41L46 39L45 39L45 38L43 38L43 37L44 37L44 35L46 35L46 34L47 34L47 35L48 35L48 34L49 34L49 33L48 33L48 32L49 32L49 31L50 31L50 30L52 30L52 27L53 27L53 25L54 25L54 26L55 26L55 25L56 25L56 26L57 26L57 25L56 25L56 24L58 24L58 23L59 23L59 19L58 19L58 18L59 18L59 17L58 17L58 18L57 18L57 17L56 17L56 16L55 16L55 17L54 17L54 18L52 18L52 16L53 16L53 14L52 14L52 16L51 16L51 15L50 15L50 14L49 14L49 13L48 13L48 15L47 15L47 17L46 17L46 14L47 14L47 13ZM6 14L6 15L7 15L7 14ZM14 14L14 15L12 15L12 16L15 16L15 17L16 17L16 16L15 16L15 15L16 15L16 14ZM34 14L34 15L35 15L35 14ZM37 15L37 16L36 16L36 17L37 17L37 16L38 16L38 15ZM49 15L49 16L48 16L48 17L47 17L47 18L48 18L48 17L49 17L49 18L50 18L50 20L49 20L49 19L47 19L47 21L49 21L49 22L46 22L46 21L45 21L45 23L47 23L47 26L46 26L46 25L45 25L45 24L44 24L44 25L45 25L45 28L44 28L44 29L43 29L43 30L44 30L44 34L43 34L43 35L44 35L44 34L46 34L46 32L45 32L45 30L44 30L44 29L45 29L45 28L46 28L46 29L47 29L47 30L48 30L48 31L49 31L49 30L50 30L50 29L49 29L49 28L50 28L50 27L52 27L52 26L50 26L50 23L51 23L51 22L52 22L52 23L53 23L53 24L52 24L52 25L53 25L53 24L54 24L54 21L55 21L55 22L58 22L58 20L56 20L56 17L55 17L55 18L54 18L54 21L53 21L53 19L51 19L51 18L50 18L50 17L51 17L51 16L50 16L50 15ZM6 16L6 17L7 17L7 16ZM28 16L28 17L29 17L29 16ZM49 16L49 17L50 17L50 16ZM12 17L12 18L13 18L13 19L12 19L12 20L13 20L13 19L14 19L14 17ZM60 17L60 22L61 22L61 21L62 21L62 19L61 19L61 17ZM5 18L5 20L6 20L6 21L7 21L7 20L8 20L8 18ZM15 18L15 19L16 19L16 18ZM28 18L28 19L29 19L29 18ZM31 18L31 19L32 19L32 18ZM37 18L37 19L38 19L38 18ZM0 19L0 20L1 20L1 19ZM6 19L6 20L7 20L7 19ZM40 19L40 21L41 21L41 22L42 22L42 21L41 21L41 19ZM50 20L50 22L51 22L51 21L52 21L52 22L53 22L53 21L52 21L52 20ZM55 20L55 21L56 21L56 20ZM63 20L63 21L64 21L64 20ZM15 22L15 23L16 23L16 24L17 24L17 26L16 26L16 27L18 27L18 28L19 28L19 29L20 29L20 27L19 27L19 25L18 25L18 23L16 23L16 22ZM26 22L26 23L27 23L27 22ZM13 23L13 24L14 24L14 23ZM33 23L33 24L34 24L34 23ZM41 23L41 24L40 24L40 25L41 25L41 26L42 26L42 27L43 27L43 26L42 26L42 25L43 25L43 24L42 24L42 23ZM55 23L55 24L56 24L56 23ZM3 25L3 26L4 26L4 25ZM37 25L37 26L38 26L38 25ZM22 26L22 27L23 27L23 26ZM49 26L49 27L50 27L50 26ZM6 27L6 28L7 28L7 27ZM37 27L37 28L38 28L38 27ZM46 27L46 28L47 28L47 29L48 29L48 27ZM5 29L5 30L7 30L7 31L8 31L8 30L7 30L7 29ZM12 29L12 30L13 30L13 29ZM54 29L54 30L55 30L55 29ZM60 29L60 30L61 30L61 29ZM19 30L19 31L18 31L18 32L19 32L19 33L18 33L18 35L19 35L19 36L21 36L21 37L20 37L20 39L19 39L19 37L18 37L18 39L16 39L16 38L15 38L15 37L14 37L14 35L13 35L13 34L12 34L12 35L13 35L13 37L14 37L14 38L15 38L15 39L14 39L14 40L15 40L15 39L16 39L16 40L17 40L17 41L18 41L18 42L19 42L19 43L20 43L20 44L21 44L21 45L20 45L20 46L19 46L19 45L18 45L18 46L17 46L17 49L16 49L16 50L18 50L18 51L19 51L19 48L21 48L21 49L22 49L22 48L23 48L23 47L22 47L22 46L23 46L23 45L22 45L22 44L23 44L23 43L22 43L22 44L21 44L21 41L20 41L20 42L19 42L19 41L18 41L18 39L19 39L19 40L20 40L20 39L21 39L21 38L22 38L22 35L24 35L24 34L22 34L22 35L20 35L20 34L21 34L21 33L22 33L22 32L21 32L21 33L20 33L20 32L19 32L19 31L20 31L20 30ZM34 30L34 31L35 31L35 32L36 32L36 30ZM9 31L9 32L10 32L10 31ZM30 31L30 32L29 32L29 34L28 34L28 35L30 35L30 36L32 36L32 35L31 35L31 34L32 34L32 33L30 33L30 32L31 32L31 31ZM32 31L32 32L33 32L33 31ZM38 31L38 33L39 33L39 31ZM52 32L52 33L51 33L51 34L52 34L52 35L53 35L53 34L52 34L52 33L53 33L53 32ZM5 33L5 36L8 36L8 33ZM33 33L33 36L36 36L36 33ZM47 33L47 34L48 34L48 33ZM61 33L61 36L64 36L64 33ZM6 34L6 35L7 35L7 34ZM34 34L34 35L35 35L35 34ZM62 34L62 35L63 35L63 34ZM0 35L0 36L1 36L1 35ZM55 35L55 36L54 36L54 39L53 39L53 40L54 40L54 39L55 39L55 38L56 38L56 39L57 39L57 40L58 40L58 39L57 39L57 38L56 38L56 36L57 36L57 35ZM38 36L38 37L39 37L39 36ZM5 37L5 38L8 38L8 40L7 40L7 39L6 39L6 40L7 40L7 41L5 41L5 42L4 42L4 44L5 44L5 45L6 45L6 46L7 46L7 45L6 45L6 44L8 44L8 45L9 45L9 46L8 46L8 47L11 47L11 46L10 46L10 45L9 45L9 44L8 44L8 43L6 43L6 42L7 42L7 41L8 41L8 40L9 40L9 38L8 38L8 37ZM24 37L24 38L25 38L25 39L26 39L26 40L27 40L27 39L28 39L28 38L27 38L27 39L26 39L26 38L25 38L25 37ZM33 37L33 38L35 38L35 39L34 39L34 40L33 40L33 39L32 39L32 41L34 41L34 40L35 40L35 39L36 39L36 38L35 38L35 37ZM64 38L64 40L65 40L65 41L66 41L66 38ZM3 39L3 40L1 40L1 41L2 41L2 42L3 42L3 40L4 40L4 39ZM22 39L22 40L23 40L23 39ZM42 39L42 41L43 41L43 39ZM49 39L49 41L50 41L50 42L51 42L51 43L50 43L50 47L49 47L49 45L48 45L48 44L47 44L47 45L48 45L48 47L49 47L49 49L46 49L46 50L47 50L47 51L48 51L48 52L46 52L46 54L47 54L47 55L48 55L48 56L49 56L49 57L48 57L48 58L49 58L49 61L48 61L48 63L49 63L49 64L51 64L51 63L52 63L52 64L54 64L54 63L52 63L52 62L53 62L53 61L52 61L52 62L51 62L51 60L50 60L50 59L51 59L51 58L52 58L52 59L54 59L54 58L55 58L55 57L56 57L56 56L58 56L58 55L59 55L59 52L60 52L60 53L61 53L61 52L60 52L60 50L61 50L61 51L62 51L62 50L63 50L63 49L62 49L62 50L61 50L61 49L60 49L60 50L59 50L59 49L58 49L58 50L57 50L57 49L56 49L56 48L57 48L57 45L56 45L56 41L54 41L54 42L53 42L53 41L52 41L52 40L51 40L51 41L50 41L50 39ZM22 41L22 42L23 42L23 41ZM51 41L51 42L52 42L52 41ZM13 42L13 43L14 43L14 42ZM54 42L54 43L55 43L55 42ZM2 43L2 44L3 44L3 43ZM5 43L5 44L6 44L6 43ZM52 43L52 45L53 45L53 46L52 46L52 47L54 47L54 45L55 45L55 46L56 46L56 45L55 45L55 44L54 44L54 45L53 45L53 43ZM63 44L63 45L64 45L64 44ZM40 45L40 46L41 46L41 45ZM20 46L20 47L21 47L21 46ZM33 46L33 47L34 47L34 46ZM18 47L18 48L19 48L19 47ZM55 47L55 48L54 48L54 49L53 49L53 48L52 48L52 49L53 49L53 50L52 50L52 51L51 51L51 52L52 52L52 53L51 53L51 54L53 54L53 55L54 55L54 53L55 53L55 52L56 52L56 54L57 54L57 55L58 55L58 52L59 52L59 50L58 50L58 51L57 51L57 52L56 52L56 50L54 50L54 49L55 49L55 48L56 48L56 47ZM10 48L10 49L11 49L11 50L12 50L12 48ZM30 48L30 49L31 49L31 51L32 51L32 48ZM36 48L36 49L37 49L37 48ZM24 49L24 51L26 51L26 50L25 50L25 49ZM20 50L20 51L21 51L21 50ZM28 50L28 51L29 51L29 50ZM53 50L53 51L52 51L52 52L53 52L53 51L54 51L54 52L55 52L55 51L54 51L54 50ZM7 51L7 52L6 52L6 53L7 53L7 52L8 52L8 51ZM34 51L34 52L35 52L35 53L34 53L34 54L36 54L36 52L37 52L37 51L36 51L36 52L35 52L35 51ZM49 51L49 52L48 52L48 53L47 53L47 54L48 54L48 55L50 55L50 53L49 53L49 52L50 52L50 51ZM64 51L64 52L65 52L65 51ZM2 52L2 53L3 53L3 52ZM9 52L9 53L10 53L10 52ZM48 53L48 54L49 54L49 53ZM62 53L62 54L63 54L63 53ZM44 54L44 55L45 55L45 54ZM3 55L3 56L4 56L4 57L5 57L5 56L4 56L4 55ZM7 55L7 56L6 56L6 57L7 57L7 56L8 56L8 55ZM30 55L30 56L31 56L31 55ZM32 55L32 59L31 59L31 57L30 57L30 59L31 59L31 62L32 62L32 60L34 60L34 59L33 59L33 57L34 57L34 55ZM55 55L55 56L56 56L56 55ZM17 56L17 57L18 57L18 58L16 58L16 59L17 59L17 61L16 61L16 60L15 60L15 59L14 59L14 62L15 62L15 64L14 64L14 65L16 65L16 66L14 66L14 67L13 67L13 68L15 68L15 67L16 67L16 66L17 66L17 65L16 65L16 62L18 62L18 58L19 58L19 57L18 57L18 56ZM52 56L52 57L53 57L53 58L54 58L54 56ZM61 56L61 57L62 57L62 56ZM26 58L26 59L27 59L27 60L29 60L29 59L27 59L27 58ZM40 58L40 59L39 59L39 60L41 60L41 61L42 61L42 62L43 62L43 65L44 65L44 59L41 59L41 58ZM55 59L55 61L54 61L54 62L55 62L55 61L56 61L56 64L57 64L57 61L56 61L56 60L58 60L58 59ZM3 60L3 61L5 61L5 60ZM6 60L6 61L8 61L8 62L9 62L9 61L10 61L10 60L9 60L9 61L8 61L8 60ZM12 60L12 61L13 61L13 60ZM21 60L21 63L23 63L23 62L24 62L24 65L23 65L23 64L22 64L22 65L21 65L21 64L20 64L20 65L21 65L21 66L20 66L20 67L21 67L21 69L23 69L23 68L22 68L22 67L24 67L24 69L25 69L25 67L24 67L24 65L25 65L25 62L24 62L24 61L23 61L23 60ZM15 61L15 62L16 62L16 61ZM33 61L33 64L36 64L36 61ZM49 61L49 63L51 63L51 62L50 62L50 61ZM61 61L61 64L64 64L64 61ZM34 62L34 63L35 63L35 62ZM62 62L62 63L63 63L63 62ZM8 63L8 64L9 64L9 63ZM41 63L41 65L42 65L42 63ZM22 65L22 66L23 66L23 65ZM34 65L34 66L35 66L35 67L36 67L36 65ZM59 65L59 66L60 66L60 65ZM28 66L28 67L29 67L29 66ZM18 68L18 69L19 69L19 68ZM38 68L38 69L39 69L39 68ZM42 68L42 69L43 69L43 68ZM68 68L68 69L69 69L69 68ZM0 0L0 7L7 7L7 0ZM1 1L1 6L6 6L6 1ZM2 2L2 5L5 5L5 2ZM62 0L62 7L69 7L69 0ZM63 1L63 6L68 6L68 1ZM64 2L64 5L67 5L67 2ZM0 62L0 69L7 69L7 62ZM1 63L1 68L6 68L6 63ZM2 64L2 67L5 67L5 64Z" fill="#000000"/></g></g></svg>
