<?xml version="1.0" encoding="UTF-8"?>
<svg xmlns="http://www.w3.org/2000/svg" version="1.1" width="300" height="300" viewBox="0 0 300 300"><rect x="0" y="0" width="300" height="300" fill="#ffffff"/><g transform="scale(4.348)"><g transform="translate(0,0)"><path fill-rule="evenodd" d="M8 0L8 1L9 1L9 4L10 4L10 7L9 7L9 6L8 6L8 8L9 8L9 9L7 9L7 8L6 8L6 9L7 9L7 10L6 10L6 11L5 11L5 8L3 8L3 9L2 9L2 8L0 8L0 13L1 13L1 15L2 15L2 16L1 16L1 17L0 17L0 18L1 18L1 20L0 20L0 21L1 21L1 22L0 22L0 26L3 26L3 25L4 25L4 24L6 24L6 25L7 25L7 24L6 24L6 23L7 23L7 22L6 22L6 21L8 21L8 20L6 20L6 19L8 19L8 18L9 18L9 17L7 17L7 16L6 16L6 15L8 15L8 16L10 16L10 15L11 15L11 17L10 17L10 18L11 18L11 19L13 19L13 18L14 18L14 17L15 17L15 15L16 15L16 14L17 14L17 15L18 15L18 14L19 14L19 16L20 16L20 17L17 17L17 16L16 16L16 18L15 18L15 19L16 19L16 21L18 21L18 23L15 23L15 22L14 22L14 21L15 21L15 20L14 20L14 21L13 21L13 22L12 22L12 20L11 20L11 22L12 22L12 24L11 24L11 23L10 23L10 20L9 20L9 22L8 22L8 23L10 23L10 24L11 24L11 25L9 25L9 24L8 24L8 25L9 25L9 27L8 27L8 26L6 26L6 27L4 27L4 30L5 30L5 29L7 29L7 30L6 30L6 31L3 31L3 32L4 32L4 34L3 34L3 33L2 33L2 30L1 30L1 29L0 29L0 31L1 31L1 34L2 34L2 35L0 35L0 37L2 37L2 35L3 35L3 36L4 36L4 37L3 37L3 38L0 38L0 42L3 42L3 43L4 43L4 44L3 44L3 46L1 46L1 45L2 45L2 44L0 44L0 48L1 48L1 47L4 47L4 50L3 50L3 48L2 48L2 49L1 49L1 50L0 50L0 53L1 53L1 54L2 54L2 51L1 51L1 50L3 50L3 53L7 53L7 52L8 52L8 51L7 51L7 50L9 50L9 53L8 53L8 54L6 54L6 55L7 55L7 56L5 56L5 57L4 57L4 56L2 56L2 55L1 55L1 56L0 56L0 61L1 61L1 58L2 58L2 59L3 59L3 58L2 58L2 57L4 57L4 59L7 59L7 60L6 60L6 61L7 61L7 60L8 60L8 62L9 62L9 64L8 64L8 66L9 66L9 67L8 67L8 69L10 69L10 66L11 66L11 63L13 63L13 64L12 64L12 67L11 67L11 68L12 68L12 67L13 67L13 66L14 66L14 67L15 67L15 68L14 68L14 69L15 69L15 68L16 68L16 69L19 69L19 68L20 68L20 69L25 69L25 68L26 68L26 67L27 67L27 68L28 68L28 69L31 69L31 68L33 68L33 69L34 69L34 68L36 68L36 69L37 69L37 68L39 68L39 67L36 67L36 66L37 66L37 65L39 65L39 66L41 66L41 68L40 68L40 69L43 69L43 68L44 68L44 65L46 65L46 66L47 66L47 65L46 65L46 64L48 64L48 65L49 65L49 66L48 66L48 67L46 67L46 69L47 69L47 68L48 68L48 69L49 69L49 68L50 68L50 64L51 64L51 63L50 63L50 62L51 62L51 60L52 60L52 61L53 61L53 62L55 62L55 60L56 60L56 61L57 61L57 62L58 62L58 61L59 61L59 63L60 63L60 64L59 64L59 65L58 65L58 64L55 64L55 63L52 63L52 64L53 64L53 65L51 65L51 67L53 67L53 65L54 65L54 69L55 69L55 68L57 68L57 66L60 66L60 67L62 67L62 68L61 68L61 69L64 69L64 68L63 68L63 67L62 67L62 65L63 65L63 66L64 66L64 67L65 67L65 69L67 69L67 68L69 68L69 66L67 66L67 65L69 65L69 64L68 64L68 63L67 63L67 62L69 62L69 60L68 60L68 59L69 59L69 57L67 57L67 58L66 58L66 56L67 56L67 54L68 54L68 56L69 56L69 51L64 51L64 52L62 52L62 51L61 51L61 53L60 53L60 50L59 50L59 51L58 51L58 49L57 49L57 48L59 48L59 49L60 49L60 47L61 47L61 48L62 48L62 47L64 47L64 48L65 48L65 50L67 50L67 49L66 49L66 48L67 48L67 47L68 47L68 49L69 49L69 45L68 45L68 44L69 44L69 40L68 40L68 39L66 39L66 37L67 37L67 38L69 38L69 34L67 34L67 33L66 33L66 32L68 32L68 31L69 31L69 30L68 30L68 31L66 31L66 28L67 28L67 26L69 26L69 25L67 25L67 23L68 23L68 24L69 24L69 21L68 21L68 22L67 22L67 23L66 23L66 24L64 24L64 22L65 22L65 20L66 20L66 21L67 21L67 19L66 19L66 18L64 18L64 19L65 19L65 20L64 20L64 22L63 22L63 21L61 21L61 20L62 20L62 17L63 17L63 16L60 16L60 18L59 18L59 17L57 17L57 16L58 16L58 15L62 15L62 14L63 14L63 11L64 11L64 13L66 13L66 12L67 12L67 11L68 11L68 13L67 13L67 14L64 14L64 16L65 16L65 17L67 17L67 18L68 18L68 20L69 20L69 17L68 17L68 16L69 16L69 15L68 15L68 16L67 16L67 14L69 14L69 10L67 10L67 9L64 9L64 10L63 10L63 8L62 8L62 9L59 9L59 8L58 8L58 7L59 7L59 4L58 4L58 3L59 3L59 2L57 2L57 1L61 1L61 0L57 0L57 1L56 1L56 0L54 0L54 1L53 1L53 0L52 0L52 1L51 1L51 0L50 0L50 1L48 1L48 3L47 3L47 2L46 2L46 1L47 1L47 0L46 0L46 1L44 1L44 0L42 0L42 2L43 2L43 3L42 3L42 5L41 5L41 6L40 6L40 7L41 7L41 6L42 6L42 7L43 7L43 8L45 8L45 10L44 10L44 9L41 9L41 8L40 8L40 9L41 9L41 10L39 10L39 9L38 9L38 7L39 7L39 6L38 6L38 5L39 5L39 4L41 4L41 0L40 0L40 3L38 3L38 2L37 2L37 0L34 0L34 1L33 1L33 0L32 0L32 2L34 2L34 3L32 3L32 4L31 4L31 3L30 3L30 2L31 2L31 0L29 0L29 1L28 1L28 2L29 2L29 3L25 3L25 2L24 2L24 3L23 3L23 1L22 1L22 0L18 0L18 1L20 1L20 2L19 2L19 3L18 3L18 2L17 2L17 0L16 0L16 1L15 1L15 0L13 0L13 1L12 1L12 0L10 0L10 1L9 1L9 0ZM24 0L24 1L26 1L26 2L27 2L27 0ZM38 0L38 1L39 1L39 0ZM11 1L11 3L14 3L14 2L12 2L12 1ZM21 1L21 2L20 2L20 4L21 4L21 5L20 5L20 6L19 6L19 4L18 4L18 6L17 6L17 5L16 5L16 6L15 6L15 4L16 4L16 3L15 3L15 4L14 4L14 5L13 5L13 7L14 7L14 8L16 8L16 9L17 9L17 8L19 8L19 9L21 9L21 7L22 7L22 8L23 8L23 9L24 9L24 11L23 11L23 10L22 10L22 11L21 11L21 10L18 10L18 12L16 12L16 11L17 11L17 10L15 10L15 11L14 11L14 9L13 9L13 8L12 8L12 9L9 9L9 10L12 10L12 11L13 11L13 12L10 12L10 14L11 14L11 15L12 15L12 16L14 16L14 15L12 15L12 13L13 13L13 14L14 14L14 12L16 12L16 13L15 13L15 14L16 14L16 13L18 13L18 12L19 12L19 11L20 11L20 13L19 13L19 14L20 14L20 13L21 13L21 14L23 14L23 15L24 15L24 14L23 14L23 13L24 13L24 12L25 12L25 13L26 13L26 15L28 15L28 16L27 16L27 17L26 17L26 16L22 16L22 18L20 18L20 19L19 19L19 18L18 18L18 19L17 19L17 18L16 18L16 19L17 19L17 20L18 20L18 19L19 19L19 20L20 20L20 21L22 21L22 20L21 20L21 19L22 19L22 18L24 18L24 20L25 20L25 22L23 22L23 23L22 23L22 22L21 22L21 23L20 23L20 22L19 22L19 23L18 23L18 24L17 24L17 25L18 25L18 24L19 24L19 25L21 25L21 26L20 26L20 27L21 27L21 29L20 29L20 30L22 30L22 29L23 29L23 30L24 30L24 31L21 31L21 32L19 32L19 34L18 34L18 35L19 35L19 36L21 36L21 37L22 37L22 38L23 38L23 39L24 39L24 40L26 40L26 39L27 39L27 41L23 41L23 40L22 40L22 41L23 41L23 42L22 42L22 43L23 43L23 42L24 42L24 44L25 44L25 46L23 46L23 45L22 45L22 44L21 44L21 43L19 43L19 41L20 41L20 42L21 42L21 39L19 39L19 38L20 38L20 37L19 37L19 38L17 38L17 37L18 37L18 36L17 36L17 37L16 37L16 35L15 35L15 34L13 34L13 33L18 33L18 32L17 32L17 30L19 30L19 29L18 29L18 28L17 28L17 27L19 27L19 26L16 26L16 28L15 28L15 27L13 27L13 26L10 26L10 27L12 27L12 29L14 29L14 28L15 28L15 29L17 29L17 30L15 30L15 31L14 31L14 30L11 30L11 28L10 28L10 29L8 29L8 28L7 28L7 27L6 27L6 28L7 28L7 29L8 29L8 31L6 31L6 32L9 32L9 30L11 30L11 31L14 31L14 32L12 32L12 34L11 34L11 35L10 35L10 34L9 34L9 35L10 35L10 36L9 36L9 38L8 38L8 37L6 37L6 38L5 38L5 37L4 37L4 38L3 38L3 40L1 40L1 41L3 41L3 40L5 40L5 41L6 41L6 42L5 42L5 43L6 43L6 44L5 44L5 45L4 45L4 47L5 47L5 48L8 48L8 47L10 47L10 49L9 49L9 50L10 50L10 51L11 51L11 50L13 50L13 51L12 51L12 52L13 52L13 53L11 53L11 52L10 52L10 54L8 54L8 55L10 55L10 56L9 56L9 57L8 57L8 59L10 59L10 57L11 57L11 55L12 55L12 57L13 57L13 59L12 59L12 58L11 58L11 60L10 60L10 63L11 63L11 61L12 61L12 60L13 60L13 63L14 63L14 61L15 61L15 58L14 58L14 57L15 57L15 55L14 55L14 54L15 54L15 53L14 53L14 52L13 52L13 51L14 51L14 50L13 50L13 49L16 49L16 50L15 50L15 52L16 52L16 53L17 53L17 54L16 54L16 56L19 56L19 54L18 54L18 52L19 52L19 51L18 51L18 49L19 49L19 50L21 50L21 51L20 51L20 52L21 52L21 53L20 53L20 54L21 54L21 58L19 58L19 57L16 57L16 58L17 58L17 59L16 59L16 60L17 60L17 61L16 61L16 62L17 62L17 63L15 63L15 66L16 66L16 64L17 64L17 63L18 63L18 62L20 62L20 63L19 63L19 64L21 64L21 65L19 65L19 67L20 67L20 66L21 66L21 67L22 67L22 68L25 68L25 67L26 67L26 66L27 66L27 63L28 63L28 67L29 67L29 68L30 68L30 66L31 66L31 67L33 67L33 68L34 68L34 67L35 67L35 66L32 66L32 65L29 65L29 63L28 63L28 62L30 62L30 60L31 60L31 61L32 61L32 60L33 60L33 59L35 59L35 60L36 60L36 59L35 59L35 58L31 58L31 59L30 59L30 58L28 58L28 59L30 59L30 60L29 60L29 61L28 61L28 62L27 62L27 63L26 63L26 62L23 62L23 61L22 61L22 60L23 60L23 59L24 59L24 57L23 57L23 56L22 56L22 55L23 55L23 54L24 54L24 55L25 55L25 57L26 57L26 58L27 58L27 56L29 56L29 57L30 57L30 56L29 56L29 54L28 54L28 55L27 55L27 53L26 53L26 55L25 55L25 54L24 54L24 53L25 53L25 52L28 52L28 50L29 50L29 49L30 49L30 48L32 48L32 49L31 49L31 50L30 50L30 52L29 52L29 53L30 53L30 52L31 52L31 53L32 53L32 51L31 51L31 50L32 50L32 49L34 49L34 48L33 48L33 47L34 47L34 46L36 46L36 45L37 45L37 44L35 44L35 43L37 43L37 42L36 42L36 41L37 41L37 40L38 40L38 45L39 45L39 46L38 46L38 48L37 48L37 47L35 47L35 48L36 48L36 50L35 50L35 51L36 51L36 50L37 50L37 51L38 51L38 52L37 52L37 53L40 53L40 54L39 54L39 56L38 56L38 55L37 55L37 56L38 56L38 57L39 57L39 58L41 58L41 57L40 57L40 55L43 55L43 54L44 54L44 56L42 56L42 57L43 57L43 59L44 59L44 60L41 60L41 61L39 61L39 65L41 65L41 66L42 66L42 67L43 67L43 66L42 66L42 64L45 64L45 63L49 63L49 64L50 64L50 63L49 63L49 62L50 62L50 61L49 61L49 62L47 62L47 61L48 61L48 60L49 60L49 59L48 59L48 57L47 57L47 56L48 56L48 55L45 55L45 54L44 54L44 53L43 53L43 54L42 54L42 52L45 52L45 51L46 51L46 52L47 52L47 53L48 53L48 54L49 54L49 53L50 53L50 54L51 54L51 55L55 55L55 56L53 56L53 57L52 57L52 58L51 58L51 59L52 59L52 60L53 60L53 59L54 59L54 60L55 60L55 59L56 59L56 60L57 60L57 61L58 61L58 60L57 60L57 59L59 59L59 58L57 58L57 59L56 59L56 57L58 57L58 56L59 56L59 57L60 57L60 56L61 56L61 57L63 57L63 56L64 56L64 54L63 54L63 56L61 56L61 55L62 55L62 53L61 53L61 55L60 55L60 53L59 53L59 54L58 54L58 55L57 55L57 56L56 56L56 53L55 53L55 54L53 54L53 53L54 53L54 52L51 52L51 51L53 51L53 50L52 50L52 49L51 49L51 46L48 46L48 48L47 48L47 49L46 49L46 50L45 50L45 49L44 49L44 48L46 48L46 44L47 44L47 42L45 42L45 41L48 41L48 40L49 40L49 41L50 41L50 42L48 42L48 44L49 44L49 43L50 43L50 44L51 44L51 45L52 45L52 43L53 43L53 45L55 45L55 47L54 47L54 46L52 46L52 48L55 48L55 49L56 49L56 48L55 48L55 47L57 47L57 45L58 45L58 44L55 44L55 43L56 43L56 41L55 41L55 43L53 43L53 42L54 42L54 41L53 41L53 40L57 40L57 39L58 39L58 38L59 38L59 40L61 40L61 41L60 41L60 42L58 42L58 41L57 41L57 43L61 43L61 44L62 44L62 46L63 46L63 45L64 45L64 40L65 40L65 41L66 41L66 42L65 42L65 43L66 43L66 42L67 42L67 44L68 44L68 42L67 42L67 41L66 41L66 40L65 40L65 39L64 39L64 38L65 38L65 37L62 37L62 38L61 38L61 37L58 37L58 38L57 38L57 37L56 37L56 36L59 36L59 34L57 34L57 35L56 35L56 33L57 33L57 31L56 31L56 30L57 30L57 29L55 29L55 31L54 31L54 28L52 28L52 26L53 26L53 25L52 25L52 24L51 24L51 23L48 23L48 22L49 22L49 21L48 21L48 22L46 22L46 23L45 23L45 22L43 22L43 25L44 25L44 24L45 24L45 25L46 25L46 26L47 26L47 28L45 28L45 29L47 29L47 31L44 31L44 29L43 29L43 30L42 30L42 31L44 31L44 32L41 32L41 33L40 33L40 31L39 31L39 29L38 29L38 28L39 28L39 27L38 27L38 25L40 25L40 27L41 27L41 28L40 28L40 29L41 29L41 28L42 28L42 27L41 27L41 25L40 25L40 24L39 24L39 23L38 23L38 22L40 22L40 23L41 23L41 24L42 24L42 22L40 22L40 19L42 19L42 17L41 17L41 16L45 16L45 13L46 13L46 15L48 15L48 16L49 16L49 17L50 17L50 19L48 19L48 17L47 17L47 18L46 18L46 17L43 17L43 18L44 18L44 19L46 19L46 20L43 20L43 21L47 21L47 20L51 20L51 22L52 22L52 23L53 23L53 24L54 24L54 23L53 23L53 21L55 21L55 22L56 22L56 24L55 24L55 27L56 27L56 24L57 24L57 23L60 23L60 24L59 24L59 25L58 25L58 26L57 26L57 27L58 27L58 28L59 28L59 30L58 30L58 32L59 32L59 30L60 30L60 27L62 27L62 25L63 25L63 29L62 29L62 28L61 28L61 29L62 29L62 30L64 30L64 29L65 29L65 27L66 27L66 26L65 26L65 25L63 25L63 24L62 24L62 23L60 23L60 22L57 22L57 20L58 20L58 21L59 21L59 20L60 20L60 19L58 19L58 18L57 18L57 17L55 17L55 18L56 18L56 20L55 20L55 19L54 19L54 20L53 20L53 21L52 21L52 19L53 19L53 18L54 18L54 16L53 16L53 15L52 15L52 14L53 14L53 13L52 13L52 12L53 12L53 9L52 9L52 6L53 6L53 8L54 8L54 9L55 9L55 10L54 10L54 13L56 13L56 15L57 15L57 13L58 13L58 14L60 14L60 13L61 13L61 14L62 14L62 12L61 12L61 11L62 11L62 10L61 10L61 11L60 11L60 10L58 10L58 11L60 11L60 12L59 12L59 13L58 13L58 12L57 12L57 13L56 13L56 11L57 11L57 9L58 9L58 8L57 8L57 7L58 7L58 5L57 5L57 4L56 4L56 5L55 5L55 8L54 8L54 6L53 6L53 5L54 5L54 4L52 4L52 6L51 6L51 5L47 5L47 4L46 4L46 2L45 2L45 8L47 8L47 7L48 7L48 6L49 6L49 7L50 7L50 8L49 8L49 10L48 10L48 12L47 12L47 13L46 13L46 12L45 12L45 11L47 11L47 10L45 10L45 11L44 11L44 10L41 10L41 12L40 12L40 11L38 11L38 10L36 10L36 9L33 9L33 11L31 11L31 10L30 10L30 9L32 9L32 5L30 5L30 4L27 4L27 5L25 5L25 7L24 7L24 5L23 5L23 7L22 7L22 4L21 4L21 3L22 3L22 1ZM50 1L50 3L49 3L49 4L50 4L50 3L51 3L51 1ZM52 1L52 2L53 2L53 1ZM54 2L54 3L55 3L55 2ZM56 2L56 3L57 3L57 2ZM24 3L24 4L25 4L25 3ZM35 3L35 4L36 4L36 3ZM60 3L60 5L61 5L61 3ZM11 4L11 7L10 7L10 8L11 8L11 7L12 7L12 4ZM37 4L37 5L38 5L38 4ZM27 5L27 6L26 6L26 7L25 7L25 8L24 8L24 9L25 9L25 8L26 8L26 7L27 7L27 9L26 9L26 13L27 13L27 14L28 14L28 15L30 15L30 18L29 18L29 17L28 17L28 19L29 19L29 20L28 20L28 21L26 21L26 22L25 22L25 24L24 24L24 23L23 23L23 24L24 24L24 26L23 26L23 27L24 27L24 30L26 30L26 29L27 29L27 31L28 31L28 30L29 30L29 29L31 29L31 30L30 30L30 33L29 33L29 32L26 32L26 31L25 31L25 32L24 32L24 33L23 33L23 32L22 32L22 33L23 33L23 34L21 34L21 33L20 33L20 34L19 34L19 35L24 35L24 34L25 34L25 32L26 32L26 34L27 34L27 36L26 36L26 35L25 35L25 36L22 36L22 37L23 37L23 38L24 38L24 39L25 39L25 37L27 37L27 38L28 38L28 37L29 37L29 36L28 36L28 35L30 35L30 38L29 38L29 39L30 39L30 38L31 38L31 39L32 39L32 40L33 40L33 41L32 41L32 42L31 42L31 41L29 41L29 40L28 40L28 43L27 43L27 45L26 45L26 47L25 47L25 49L24 49L24 47L22 47L22 49L21 49L21 48L19 48L19 49L21 49L21 50L22 50L22 51L21 51L21 52L22 52L22 51L24 51L24 52L23 52L23 53L21 53L21 54L23 54L23 53L24 53L24 52L25 52L25 51L26 51L26 50L27 50L27 48L26 48L26 47L28 47L28 46L29 46L29 47L31 47L31 46L30 46L30 45L32 45L32 46L34 46L34 45L35 45L35 44L33 44L33 43L35 43L35 42L34 42L34 40L35 40L35 41L36 41L36 40L37 40L37 39L34 39L34 38L32 38L32 37L35 37L35 38L36 38L36 37L37 37L37 38L40 38L40 39L42 39L42 38L43 38L43 37L42 37L42 38L41 38L41 36L43 36L43 35L42 35L42 34L43 34L43 33L41 33L41 34L40 34L40 33L39 33L39 32L36 32L36 31L38 31L38 29L37 29L37 25L38 25L38 23L37 23L37 22L38 22L38 21L39 21L39 20L37 20L37 22L36 22L36 25L35 25L35 26L36 26L36 27L33 27L33 29L31 29L31 28L32 28L32 26L33 26L33 24L32 24L32 22L33 22L33 23L34 23L34 24L35 24L35 22L33 22L33 20L34 20L34 19L31 19L31 18L35 18L35 17L32 17L32 16L33 16L33 15L32 15L32 14L33 14L33 12L32 12L32 13L31 13L31 11L30 11L30 14L28 14L28 12L27 12L27 11L29 11L29 9L30 9L30 8L28 8L28 7L29 7L29 6L28 6L28 5ZM33 5L33 8L36 8L36 5ZM42 5L42 6L43 6L43 7L44 7L44 5ZM46 5L46 7L47 7L47 5ZM56 5L56 7L57 7L57 5ZM14 6L14 7L15 7L15 6ZM16 6L16 7L17 7L17 6ZM18 6L18 7L19 7L19 6ZM20 6L20 7L21 7L21 6ZM27 6L27 7L28 7L28 6ZM30 6L30 7L31 7L31 6ZM34 6L34 7L35 7L35 6ZM37 6L37 7L38 7L38 6ZM50 6L50 7L51 7L51 6ZM60 6L60 7L61 7L61 6ZM50 8L50 10L49 10L49 12L48 12L48 13L47 13L47 14L49 14L49 15L50 15L50 16L51 16L51 17L52 17L52 15L51 15L51 14L52 14L52 13L50 13L50 12L52 12L52 9L51 9L51 8ZM68 8L68 9L69 9L69 8ZM1 9L1 12L3 12L3 11L4 11L4 10L2 10L2 9ZM12 9L12 10L13 10L13 9ZM50 10L50 11L51 11L51 10ZM64 10L64 11L65 11L65 12L66 12L66 11L65 11L65 10ZM6 11L6 12L7 12L7 11ZM34 11L34 12L36 12L36 11ZM37 11L37 12L38 12L38 11ZM43 11L43 12L44 12L44 13L42 13L42 12L41 12L41 13L40 13L40 14L41 14L41 15L40 15L40 16L41 16L41 15L42 15L42 14L44 14L44 13L45 13L45 12L44 12L44 11ZM22 12L22 13L23 13L23 12ZM3 13L3 15L5 15L5 13ZM6 13L6 14L8 14L8 15L9 15L9 14L8 14L8 13ZM35 13L35 14L34 14L34 16L36 16L36 17L37 17L37 18L36 18L36 19L35 19L35 21L36 21L36 19L40 19L40 18L41 18L41 17L39 17L39 18L38 18L38 16L39 16L39 15L37 15L37 13ZM38 13L38 14L39 14L39 13ZM41 13L41 14L42 14L42 13ZM49 13L49 14L50 14L50 13ZM54 14L54 15L55 15L55 14ZM36 15L36 16L37 16L37 15ZM2 16L2 21L3 21L3 20L4 20L4 19L6 19L6 18L7 18L7 17L5 17L5 18L4 18L4 19L3 19L3 17L4 17L4 16ZM11 17L11 18L12 18L12 17ZM24 17L24 18L25 18L25 20L27 20L27 19L26 19L26 17ZM51 18L51 19L52 19L52 18ZM31 20L31 21L30 21L30 22L31 22L31 21L32 21L32 20ZM41 20L41 21L42 21L42 20ZM2 22L2 23L1 23L1 25L2 25L2 24L3 24L3 22ZM26 22L26 23L27 23L27 22ZM13 23L13 24L12 24L12 25L14 25L14 26L15 26L15 25L14 25L14 23ZM19 23L19 24L20 24L20 23ZM28 23L28 24L27 24L27 25L28 25L28 26L27 26L27 28L28 28L28 26L29 26L29 25L28 25L28 24L30 24L30 23ZM46 23L46 24L47 24L47 26L48 26L48 27L49 27L49 28L48 28L48 29L49 29L49 30L48 30L48 31L47 31L47 33L45 33L45 34L47 34L47 35L44 35L44 37L45 37L45 38L44 38L44 40L42 40L42 43L41 43L41 45L42 45L42 46L44 46L44 47L43 47L43 48L41 48L41 46L40 46L40 49L38 49L38 50L39 50L39 52L41 52L41 51L40 51L40 49L41 49L41 50L42 50L42 51L43 51L43 50L44 50L44 51L45 51L45 50L44 50L44 49L43 49L43 48L44 48L44 47L45 47L45 46L44 46L44 45L43 45L43 43L44 43L44 44L46 44L46 43L44 43L44 41L45 41L45 39L46 39L46 36L48 36L48 37L47 37L47 38L48 38L48 39L49 39L49 40L50 40L50 41L51 41L51 42L50 42L50 43L52 43L52 42L53 42L53 41L51 41L51 40L52 40L52 39L55 39L55 37L53 37L53 35L54 35L54 36L55 36L55 33L53 33L53 32L52 32L52 31L53 31L53 29L51 29L51 28L50 28L50 26L52 26L52 25L51 25L51 24L50 24L50 26L48 26L48 25L49 25L49 24L47 24L47 23ZM25 24L25 26L26 26L26 24ZM31 24L31 25L32 25L32 24ZM61 24L61 25L60 25L60 26L61 26L61 25L62 25L62 24ZM43 26L43 28L44 28L44 26ZM58 26L58 27L59 27L59 26ZM64 26L64 27L65 27L65 26ZM1 27L1 28L2 28L2 27ZM25 27L25 28L26 28L26 27ZM34 28L34 31L36 31L36 29L35 29L35 28ZM50 29L50 30L49 30L49 32L50 32L50 33L52 33L52 32L51 32L51 31L50 31L50 30L51 30L51 29ZM15 31L15 32L16 32L16 31ZM31 31L31 33L30 33L30 35L31 35L31 37L32 37L32 35L31 35L31 34L32 34L32 31ZM55 31L55 32L56 32L56 31ZM61 31L61 32L63 32L63 31ZM10 32L10 33L11 33L11 32ZM5 33L5 36L8 36L8 33ZM28 33L28 34L29 34L29 33ZM33 33L33 36L36 36L36 33ZM61 33L61 36L64 36L64 33ZM6 34L6 35L7 35L7 34ZM12 34L12 35L13 35L13 34ZM34 34L34 35L35 35L35 34ZM39 34L39 35L37 35L37 37L38 37L38 36L39 36L39 37L40 37L40 36L41 36L41 35L40 35L40 34ZM49 34L49 36L50 36L50 37L48 37L48 38L49 38L49 39L52 39L52 38L50 38L50 37L52 37L52 36L51 36L51 35L50 35L50 34ZM52 34L52 35L53 35L53 34ZM62 34L62 35L63 35L63 34ZM65 34L65 36L66 36L66 35L67 35L67 37L68 37L68 35L67 35L67 34ZM39 35L39 36L40 36L40 35ZM11 36L11 37L10 37L10 38L9 38L9 40L6 40L6 39L8 39L8 38L6 38L6 39L5 39L5 38L4 38L4 39L5 39L5 40L6 40L6 41L7 41L7 42L6 42L6 43L8 43L8 42L9 42L9 41L10 41L10 42L11 42L11 43L9 43L9 44L6 44L6 45L8 45L8 46L6 46L6 47L8 47L8 46L10 46L10 47L11 47L11 46L10 46L10 45L9 45L9 44L12 44L12 43L13 43L13 42L14 42L14 41L15 41L15 40L14 40L14 39L16 39L16 37L15 37L15 36ZM11 37L11 38L10 38L10 39L11 39L11 40L12 40L12 42L13 42L13 39L14 39L14 38L13 38L13 39L12 39L12 37ZM33 39L33 40L34 40L34 39ZM38 39L38 40L39 40L39 39ZM61 39L61 40L63 40L63 39ZM18 40L18 41L16 41L16 43L18 43L18 41L19 41L19 40ZM39 41L39 42L40 42L40 41ZM62 41L62 44L63 44L63 41ZM25 42L25 44L26 44L26 42ZM29 42L29 43L30 43L30 42ZM32 42L32 43L33 43L33 42ZM14 43L14 44L15 44L15 43ZM16 44L16 45L15 45L15 48L16 48L16 49L17 49L17 48L18 48L18 47L17 47L17 45L18 45L18 46L19 46L19 47L21 47L21 44L20 44L20 46L19 46L19 44ZM59 44L59 45L60 45L60 44ZM65 44L65 46L64 46L64 47L65 47L65 48L66 48L66 47L65 47L65 46L66 46L66 44ZM67 45L67 46L68 46L68 45ZM58 46L58 47L59 47L59 46ZM16 47L16 48L17 48L17 47ZM49 47L49 48L48 48L48 49L49 49L49 50L48 50L48 51L47 51L47 50L46 50L46 51L47 51L47 52L48 52L48 53L49 53L49 50L50 50L50 51L51 51L51 49L50 49L50 47ZM28 48L28 49L29 49L29 48ZM5 49L5 50L4 50L4 51L6 51L6 52L7 52L7 51L6 51L6 50L7 50L7 49ZM25 49L25 50L24 50L24 51L25 51L25 50L26 50L26 49ZM62 49L62 50L63 50L63 49ZM55 50L55 51L56 51L56 52L57 52L57 53L58 53L58 51L56 51L56 50ZM16 51L16 52L17 52L17 51ZM34 52L34 53L35 53L35 55L36 55L36 53L35 53L35 52ZM50 52L50 53L51 53L51 52ZM64 52L64 53L65 53L65 55L66 55L66 53L65 53L65 52ZM67 52L67 53L68 53L68 52ZM3 54L3 55L5 55L5 54ZM10 54L10 55L11 55L11 54ZM12 54L12 55L13 55L13 54ZM17 54L17 55L18 55L18 54ZM26 55L26 56L27 56L27 55ZM31 55L31 57L32 57L32 55ZM33 55L33 57L34 57L34 55ZM49 55L49 57L50 57L50 55ZM13 56L13 57L14 57L14 56ZM35 56L35 57L36 57L36 56ZM5 57L5 58L7 58L7 57ZM22 57L22 58L21 58L21 59L19 59L19 58L18 58L18 59L17 59L17 60L18 60L18 61L20 61L20 62L21 62L21 63L22 63L22 64L23 64L23 65L22 65L22 67L23 67L23 65L24 65L24 67L25 67L25 65L26 65L26 64L25 64L25 65L24 65L24 64L23 64L23 62L21 62L21 60L22 60L22 58L23 58L23 57ZM44 57L44 59L46 59L46 60L44 60L44 61L41 61L41 62L40 62L40 63L41 63L41 62L42 62L42 63L45 63L45 62L46 62L46 61L47 61L47 60L48 60L48 59L46 59L46 58L47 58L47 57ZM53 57L53 58L54 58L54 59L55 59L55 57ZM37 58L37 62L38 62L38 58ZM60 58L60 60L61 60L61 58ZM65 58L65 59L66 59L66 58ZM13 59L13 60L14 60L14 59ZM18 59L18 60L19 60L19 59ZM25 59L25 60L24 60L24 61L26 61L26 60L27 60L27 59ZM39 59L39 60L40 60L40 59ZM62 59L62 60L64 60L64 59ZM3 60L3 61L5 61L5 60ZM65 60L65 61L68 61L68 60ZM33 61L33 64L36 64L36 61ZM44 61L44 62L45 62L45 61ZM61 61L61 64L64 64L64 61ZM34 62L34 63L35 63L35 62ZM62 62L62 63L63 63L63 62ZM65 62L65 63L66 63L66 62ZM9 64L9 66L10 66L10 64ZM13 64L13 65L14 65L14 64ZM54 64L54 65L55 65L55 64ZM66 64L66 65L64 65L64 66L65 66L65 67L67 67L67 66L66 66L66 65L67 65L67 64ZM17 65L17 67L16 67L16 68L18 68L18 65ZM56 65L56 66L55 66L55 67L56 67L56 66L57 66L57 65ZM48 67L48 68L49 68L49 67ZM58 67L58 68L59 68L59 67ZM52 68L52 69L53 69L53 68ZM0 0L0 7L7 7L7 0ZM1 1L1 6L6 6L6 1ZM2 2L2 5L5 5L5 2ZM62 0L62 7L69 7L69 0ZM63 1L63 6L68 6L68 1ZM64 2L64 5L67 5L67 2ZM0 62L0 69L7 69L7 62ZM1 63L1 68L6 68L6 63ZM2 64L2 67L5 67L5 64Z" fill="#000000"/></g></g></svg>
