<?xml version="1.0" encoding="UTF-8"?>
<svg xmlns="http://www.w3.org/2000/svg" version="1.1" width="300" height="300" viewBox="0 0 300 300"><rect x="0" y="0" width="300" height="300" fill="#ffffff"/><g transform="scale(4.348)"><g transform="translate(0,0)"><path fill-rule="evenodd" d="M10 0L10 1L12 1L12 0ZM14 0L14 1L15 1L15 0ZM17 0L17 1L16 1L16 2L15 2L15 3L14 3L14 2L10 2L10 3L8 3L8 4L9 4L9 5L8 5L8 7L9 7L9 8L6 8L6 9L5 9L5 8L0 8L0 9L1 9L1 10L0 10L0 12L1 12L1 13L2 13L2 14L3 14L3 11L2 11L2 9L3 9L3 10L4 10L4 13L5 13L5 14L6 14L6 15L4 15L4 16L3 16L3 15L1 15L1 14L0 14L0 19L1 19L1 20L2 20L2 21L3 21L3 22L4 22L4 23L3 23L3 24L0 24L0 25L3 25L3 24L6 24L6 25L5 25L5 26L2 26L2 28L1 28L1 29L0 29L0 33L1 33L1 34L0 34L0 35L1 35L1 36L4 36L4 39L3 39L3 37L0 37L0 39L2 39L2 40L0 40L0 41L1 41L1 42L3 42L3 40L4 40L4 39L5 39L5 40L6 40L6 41L7 41L7 40L9 40L9 41L8 41L8 43L7 43L7 42L5 42L5 43L3 43L3 44L2 44L2 43L1 43L1 44L0 44L0 47L1 47L1 48L0 48L0 53L1 53L1 55L0 55L0 56L1 56L1 57L2 57L2 59L3 59L3 58L4 58L4 59L7 59L7 58L8 58L8 59L10 59L10 58L11 58L11 61L8 61L8 60L6 60L6 61L8 61L8 63L9 63L9 64L8 64L8 69L9 69L9 67L10 67L10 68L11 68L11 69L13 69L13 68L11 68L11 67L10 67L10 63L11 63L11 64L14 64L14 65L13 65L13 66L12 66L12 67L13 67L13 66L14 66L14 67L16 67L16 68L14 68L14 69L16 69L16 68L17 68L17 69L22 69L22 68L17 68L17 66L18 66L18 67L20 67L20 66L19 66L19 65L20 65L20 64L21 64L21 62L25 62L25 63L24 63L24 65L23 65L23 66L25 66L25 65L28 65L28 66L27 66L27 67L25 67L25 68L23 68L23 69L26 69L26 68L27 68L27 67L28 67L28 68L29 68L29 69L32 69L32 68L31 68L31 67L33 67L33 69L35 69L35 68L36 68L36 69L38 69L38 68L37 68L37 67L39 67L39 66L38 66L38 64L41 64L41 66L40 66L40 67L41 67L41 66L44 66L44 68L43 68L43 69L44 69L44 68L47 68L47 69L50 69L50 68L52 68L52 65L51 65L51 67L50 67L50 65L49 65L49 63L47 63L47 62L50 62L50 61L51 61L51 62L53 62L53 64L55 64L55 65L53 65L53 66L54 66L54 67L55 67L55 66L57 66L57 65L59 65L59 64L60 64L60 66L58 66L58 68L57 68L57 67L56 67L56 68L54 68L54 69L56 69L56 68L57 68L57 69L58 69L58 68L59 68L59 69L61 69L61 68L62 68L62 69L63 69L63 68L62 68L62 66L61 66L61 65L64 65L64 66L67 66L67 65L69 65L69 63L68 63L68 62L67 62L67 61L69 61L69 60L68 60L68 56L69 56L69 55L68 55L68 54L69 54L69 53L68 53L68 54L66 54L66 52L68 52L68 50L69 50L69 48L68 48L68 49L65 49L65 54L66 54L66 55L63 55L63 56L62 56L62 57L64 57L64 56L65 56L65 58L64 58L64 59L65 59L65 60L63 60L63 59L62 59L62 58L61 58L61 59L62 59L62 60L60 60L60 62L56 62L56 60L55 60L55 61L52 61L52 60L53 60L53 59L54 59L54 58L55 58L55 57L56 57L56 59L58 59L58 60L57 60L57 61L59 61L59 58L57 58L57 57L56 57L56 54L55 54L55 52L58 52L58 53L59 53L59 54L57 54L57 55L59 55L59 56L60 56L60 57L61 57L61 55L62 55L62 54L61 54L61 52L63 52L63 53L64 53L64 52L63 52L63 51L64 51L64 50L63 50L63 51L62 51L62 49L61 49L61 48L60 48L60 47L59 47L59 48L58 48L58 46L57 46L57 45L56 45L56 44L57 44L57 42L56 42L56 40L59 40L59 38L60 38L60 39L61 39L61 40L64 40L64 41L65 41L65 40L67 40L67 42L66 42L66 43L64 43L64 44L63 44L63 45L65 45L65 44L66 44L66 47L65 47L65 46L63 46L63 47L62 47L62 46L61 46L61 44L62 44L62 42L63 42L63 41L59 41L59 42L58 42L58 43L59 43L59 44L58 44L58 45L59 45L59 46L61 46L61 47L62 47L62 48L63 48L63 49L64 49L64 48L67 48L67 47L68 47L68 46L69 46L69 45L68 45L68 46L67 46L67 44L69 44L69 43L68 43L68 41L69 41L69 40L68 40L68 36L69 36L69 35L68 35L68 34L69 34L69 32L67 32L67 31L65 31L65 30L64 30L64 29L63 29L63 31L61 31L61 32L59 32L59 34L58 34L58 32L57 32L57 29L59 29L59 30L62 30L62 29L61 29L61 28L62 28L62 27L63 27L63 28L67 28L67 30L69 30L69 29L68 29L68 28L67 28L67 27L68 27L68 26L69 26L69 23L68 23L68 22L67 22L67 21L68 21L68 18L69 18L69 17L67 17L67 16L68 16L68 12L67 12L67 11L68 11L68 10L67 10L67 9L68 9L68 8L67 8L67 9L66 9L66 8L65 8L65 10L64 10L64 11L62 11L62 8L61 8L61 6L60 6L60 7L59 7L59 4L58 4L58 5L57 5L57 4L53 4L53 5L54 5L54 7L53 7L53 6L52 6L52 4L51 4L51 5L50 5L50 4L49 4L49 3L50 3L50 2L51 2L51 3L52 3L52 0L51 0L51 1L50 1L50 0L49 0L49 1L48 1L48 2L47 2L47 5L49 5L49 6L48 6L48 7L47 7L47 6L46 6L46 5L44 5L44 3L45 3L45 4L46 4L46 3L45 3L45 2L46 2L46 1L45 1L45 0L44 0L44 1L45 1L45 2L44 2L44 3L42 3L42 4L39 4L39 6L38 6L38 5L37 5L37 4L38 4L38 3L37 3L37 1L38 1L38 2L39 2L39 3L41 3L41 1L42 1L42 2L43 2L43 0L39 0L39 1L38 1L38 0L35 0L35 1L34 1L34 0L33 0L33 1L32 1L32 0L31 0L31 1L29 1L29 0L28 0L28 1L27 1L27 2L28 2L28 3L29 3L29 6L28 6L28 5L27 5L27 4L26 4L26 1L25 1L25 0L21 0L21 1L24 1L24 2L23 2L23 3L24 3L24 2L25 2L25 4L22 4L22 5L21 5L21 6L20 6L20 4L21 4L21 3L19 3L19 2L20 2L20 1L19 1L19 0ZM53 0L53 1L54 1L54 3L59 3L59 2L58 2L58 1L61 1L61 0L58 0L58 1L57 1L57 0L56 0L56 1L57 1L57 2L55 2L55 0ZM8 1L8 2L9 2L9 1ZM17 1L17 2L16 2L16 4L14 4L14 6L13 6L13 8L12 8L12 9L11 9L11 10L10 10L10 8L11 8L11 7L12 7L12 4L13 4L13 3L11 3L11 5L9 5L9 7L10 7L10 8L9 8L9 10L8 10L8 9L6 9L6 10L7 10L7 11L5 11L5 13L6 13L6 14L8 14L8 11L9 11L9 10L10 10L10 11L11 11L11 12L12 12L12 13L10 13L10 12L9 12L9 15L6 15L6 16L5 16L5 19L4 19L4 17L3 17L3 16L1 16L1 19L2 19L2 18L3 18L3 20L4 20L4 22L5 22L5 23L6 23L6 24L9 24L9 25L6 25L6 26L8 26L8 29L6 29L6 28L7 28L7 27L6 27L6 28L5 28L5 27L3 27L3 28L2 28L2 29L1 29L1 30L2 30L2 29L3 29L3 28L4 28L4 30L7 30L7 31L6 31L6 32L9 32L9 30L8 30L8 29L9 29L9 28L10 28L10 27L9 27L9 26L11 26L11 28L12 28L12 29L13 29L13 28L14 28L14 30L13 30L13 31L12 31L12 32L11 32L11 30L10 30L10 34L9 34L9 37L8 37L8 38L7 38L7 37L6 37L6 38L7 38L7 39L6 39L6 40L7 40L7 39L9 39L9 40L10 40L10 38L11 38L11 36L12 36L12 37L14 37L14 38L13 38L13 39L11 39L11 40L12 40L12 42L11 42L11 41L9 41L9 42L10 42L10 43L8 43L8 45L6 45L6 44L7 44L7 43L6 43L6 44L3 44L3 46L2 46L2 45L1 45L1 46L2 46L2 48L4 48L4 49L2 49L2 50L1 50L1 52L2 52L2 53L3 53L3 54L5 54L5 51L4 51L4 50L5 50L5 49L6 49L6 50L7 50L7 51L6 51L6 52L7 52L7 53L6 53L6 54L8 54L8 57L10 57L10 56L11 56L11 58L13 58L13 61L12 61L12 62L11 62L11 63L12 63L12 62L13 62L13 63L14 63L14 59L15 59L15 60L16 60L16 61L15 61L15 62L17 62L17 63L18 63L18 62L19 62L19 63L20 63L20 62L21 62L21 61L25 61L25 60L24 60L24 59L22 59L22 58L24 58L24 57L22 57L22 56L21 56L21 55L22 55L22 54L23 54L23 53L25 53L25 54L26 54L26 53L27 53L27 54L29 54L29 55L30 55L30 53L27 53L27 52L26 52L26 51L28 51L28 52L29 52L29 48L30 48L30 47L28 47L28 46L29 46L29 44L30 44L30 43L27 43L27 44L26 44L26 46L24 46L24 47L23 47L23 45L24 45L24 44L25 44L25 42L27 42L27 41L28 41L28 42L30 42L30 41L32 41L32 42L31 42L31 49L33 49L33 50L30 50L30 52L31 52L31 51L33 51L33 52L32 52L32 53L33 53L33 57L32 57L32 54L31 54L31 57L32 57L32 58L29 58L29 57L30 57L30 56L26 56L26 55L25 55L25 56L26 56L26 57L25 57L25 58L26 58L26 59L27 59L27 60L26 60L26 62L29 62L29 64L28 64L28 63L27 63L27 64L28 64L28 65L29 65L29 66L30 66L30 65L29 65L29 64L31 64L31 63L32 63L32 61L31 61L31 62L30 62L30 61L29 61L29 60L30 60L30 59L31 59L31 60L32 60L32 58L33 58L33 57L34 57L34 59L35 59L35 60L36 60L36 59L37 59L37 60L38 60L38 62L37 62L37 63L41 63L41 64L44 64L44 66L45 66L45 67L46 67L46 66L47 66L47 63L46 63L46 62L47 62L47 61L45 61L45 60L44 60L44 59L45 59L45 58L46 58L46 59L47 59L47 60L49 60L49 61L50 61L50 60L52 60L52 59L53 59L53 58L54 58L54 56L51 56L51 55L52 55L52 54L53 54L53 50L51 50L51 49L55 49L55 48L56 48L56 49L57 49L57 50L56 50L56 51L58 51L58 52L59 52L59 53L60 53L60 52L61 52L61 49L60 49L60 48L59 48L59 49L58 49L58 48L56 48L56 47L55 47L55 46L56 46L56 45L55 45L55 44L54 44L54 43L56 43L56 42L53 42L53 44L50 44L50 42L52 42L52 41L54 41L54 40L56 40L56 39L57 39L57 38L59 38L59 37L60 37L60 34L59 34L59 35L58 35L58 34L57 34L57 32L56 32L56 29L57 29L57 28L58 28L58 26L59 26L59 28L60 28L60 27L61 27L61 26L63 26L63 25L65 25L65 26L64 26L64 27L67 27L67 26L68 26L68 23L67 23L67 25L65 25L65 24L63 24L63 21L64 21L64 22L65 22L65 23L66 23L66 22L65 22L65 21L67 21L67 20L65 20L65 18L66 18L66 16L65 16L65 14L67 14L67 13L65 13L65 12L63 12L63 13L62 13L62 11L61 11L61 10L59 10L59 8L56 8L56 9L55 9L55 8L54 8L54 9L55 9L55 11L53 11L53 10L51 10L51 9L53 9L53 7L52 7L52 6L51 6L51 7L52 7L52 8L50 8L50 6L49 6L49 9L50 9L50 10L47 10L47 7L46 7L46 6L45 6L45 7L44 7L44 5L41 5L41 7L40 7L40 6L39 6L39 7L38 7L38 6L37 6L37 7L38 7L38 8L39 8L39 9L38 9L38 10L36 10L36 9L35 9L35 10L36 10L36 11L33 11L33 10L34 10L34 9L32 9L32 5L30 5L30 6L29 6L29 7L28 7L28 6L27 6L27 5L26 5L26 4L25 4L25 5L26 5L26 6L25 6L25 8L26 8L26 13L27 13L27 14L25 14L25 15L24 15L24 16L23 16L23 14L22 14L22 13L23 13L23 11L24 11L24 12L25 12L25 9L24 9L24 8L23 8L23 7L24 7L24 5L22 5L22 6L21 6L21 8L20 8L20 6L19 6L19 4L17 4L17 2L18 2L18 1ZM31 1L31 2L30 2L30 3L31 3L31 4L32 4L32 1ZM33 1L33 4L35 4L35 2L34 2L34 1ZM49 1L49 2L48 2L48 3L49 3L49 2L50 2L50 1ZM36 3L36 4L37 4L37 3ZM60 3L60 5L61 5L61 3ZM15 5L15 6L14 6L14 7L15 7L15 6L16 6L16 7L17 7L17 6L16 6L16 5ZM33 5L33 8L36 8L36 5ZM56 5L56 6L55 6L55 7L56 7L56 6L57 6L57 7L58 7L58 6L57 6L57 5ZM10 6L10 7L11 7L11 6ZM18 6L18 7L19 7L19 6ZM22 6L22 7L23 7L23 6ZM26 6L26 8L27 8L27 6ZM30 6L30 7L31 7L31 6ZM34 6L34 7L35 7L35 6ZM42 6L42 7L43 7L43 6ZM45 7L45 9L44 9L44 8L43 8L43 9L39 9L39 12L37 12L37 13L36 13L36 12L33 12L33 14L34 14L34 13L36 13L36 14L35 14L35 15L38 15L38 16L36 16L36 18L34 18L34 17L32 17L32 14L31 14L31 16L29 16L29 15L30 15L30 14L29 14L29 15L28 15L28 14L27 14L27 16L29 16L29 18L30 18L30 19L31 19L31 20L29 20L29 21L31 21L31 22L30 22L30 23L29 23L29 22L27 22L27 21L28 21L28 19L27 19L27 18L28 18L28 17L27 17L27 18L26 18L26 17L22 17L22 15L21 15L21 14L19 14L19 13L21 13L21 12L18 12L18 11L20 11L20 8L17 8L17 9L16 9L16 8L15 8L15 11L13 11L13 10L11 10L11 11L12 11L12 12L13 12L13 13L14 13L14 14L15 14L15 16L17 16L17 17L18 17L18 18L20 18L20 19L18 19L18 20L17 20L17 21L16 21L16 20L14 20L14 19L13 19L13 18L14 18L14 16L13 16L13 15L12 15L12 14L10 14L10 15L11 15L11 16L9 16L9 19L8 19L8 20L6 20L6 19L7 19L7 18L6 18L6 19L5 19L5 20L6 20L6 21L5 21L5 22L6 22L6 23L9 23L9 24L10 24L10 23L9 23L9 19L11 19L11 20L10 20L10 21L11 21L11 23L12 23L12 27L13 27L13 25L14 25L14 24L15 24L15 25L16 25L16 26L14 26L14 28L15 28L15 27L16 27L16 28L17 28L17 29L19 29L19 30L18 30L18 31L16 31L16 32L15 32L15 33L17 33L17 34L19 34L19 35L15 35L15 34L13 34L13 33L14 33L14 31L15 31L15 30L14 30L14 31L13 31L13 33L12 33L12 34L10 34L10 35L12 35L12 34L13 34L13 35L15 35L15 36L14 36L14 37L16 37L16 36L17 36L17 37L18 37L18 38L17 38L17 40L18 40L18 41L17 41L17 44L16 44L16 43L15 43L15 42L16 42L16 41L14 41L14 39L13 39L13 41L14 41L14 43L10 43L10 45L8 45L8 46L9 46L9 47L8 47L8 48L6 48L6 47L7 47L7 46L6 46L6 45L5 45L5 46L3 46L3 47L4 47L4 48L6 48L6 49L7 49L7 50L8 50L8 51L12 51L12 47L13 47L13 48L14 48L14 49L13 49L13 50L14 50L14 51L13 51L13 52L14 52L14 53L11 53L11 52L10 52L10 53L9 53L9 52L8 52L8 54L10 54L10 55L11 55L11 56L13 56L13 58L15 58L15 59L16 59L16 60L17 60L17 61L19 61L19 62L20 62L20 61L19 61L19 60L17 60L17 59L20 59L20 56L19 56L19 54L20 54L20 53L19 53L19 52L22 52L22 51L21 51L21 49L18 49L18 48L17 48L17 47L18 47L18 46L19 46L19 45L21 45L21 46L20 46L20 47L19 47L19 48L21 48L21 47L22 47L22 45L21 45L21 44L20 44L20 43L18 43L18 41L19 41L19 42L20 42L20 41L19 41L19 40L21 40L21 41L22 41L22 40L21 40L21 39L22 39L22 37L21 37L21 38L20 38L20 36L19 36L19 35L20 35L20 34L19 34L19 33L20 33L20 29L19 29L19 28L22 28L22 25L24 25L24 26L23 26L23 27L24 27L24 28L25 28L25 29L23 29L23 30L25 30L25 31L26 31L26 32L25 32L25 33L22 33L22 29L21 29L21 33L22 33L22 34L21 34L21 36L23 36L23 37L24 37L24 38L23 38L23 40L24 40L24 41L23 41L23 42L24 42L24 41L26 41L26 38L27 38L27 39L28 39L28 41L30 41L30 40L29 40L29 39L30 39L30 38L31 38L31 37L32 37L32 38L33 38L33 39L32 39L32 41L33 41L33 42L34 42L34 41L33 41L33 39L35 39L35 41L36 41L36 43L33 43L33 44L32 44L32 45L33 45L33 46L32 46L32 47L33 47L33 46L34 46L34 47L35 47L35 48L36 48L36 47L37 47L37 48L38 48L38 47L39 47L39 48L40 48L40 47L41 47L41 48L42 48L42 49L41 49L41 50L39 50L39 51L37 51L37 50L38 50L38 49L37 49L37 50L36 50L36 49L34 49L34 48L33 48L33 49L34 49L34 50L33 50L33 51L34 51L34 50L36 50L36 51L35 51L35 52L38 52L38 53L37 53L37 54L39 54L39 52L41 52L41 50L42 50L42 52L43 52L43 53L41 53L41 55L36 55L36 54L34 54L34 55L36 55L36 57L35 57L35 59L36 59L36 57L37 57L37 58L38 58L38 60L39 60L39 62L40 62L40 59L41 59L41 58L42 58L42 60L41 60L41 62L42 62L42 63L43 63L43 62L44 62L44 60L43 60L43 57L44 57L44 56L46 56L46 57L49 57L49 58L50 58L50 59L51 59L51 58L50 58L50 57L49 57L49 56L50 56L50 55L51 55L51 54L49 54L49 53L51 53L51 52L52 52L52 51L51 51L51 50L50 50L50 49L49 49L49 47L50 47L50 48L53 48L53 47L54 47L54 48L55 48L55 47L54 47L54 46L55 46L55 45L52 45L52 46L49 46L49 45L50 45L50 44L48 44L48 43L49 43L49 42L50 42L50 39L49 39L49 38L50 38L50 35L51 35L51 36L52 36L52 35L53 35L53 34L54 34L54 36L55 36L55 37L52 37L52 38L53 38L53 39L52 39L52 40L53 40L53 39L55 39L55 38L57 38L57 37L56 37L56 35L57 35L57 36L58 36L58 35L57 35L57 34L56 34L56 35L55 35L55 33L56 33L56 32L54 32L54 31L55 31L55 29L56 29L56 27L57 27L57 26L58 26L58 25L59 25L59 26L61 26L61 25L62 25L62 21L63 21L63 18L65 18L65 17L63 17L63 18L62 18L62 16L64 16L64 15L62 15L62 13L59 13L59 14L61 14L61 15L59 15L59 18L57 18L57 17L56 17L56 16L58 16L58 14L57 14L57 15L56 15L56 16L55 16L55 15L54 15L54 14L56 14L56 13L55 13L55 12L57 12L57 13L58 13L58 12L59 12L59 10L58 10L58 9L57 9L57 10L58 10L58 11L55 11L55 12L53 12L53 11L49 11L49 12L46 12L46 11L44 11L44 12L43 12L43 13L42 13L42 14L41 14L41 12L42 12L42 10L45 10L45 9L46 9L46 7ZM13 8L13 9L14 9L14 8ZM21 8L21 9L22 9L22 8ZM28 8L28 9L27 9L27 12L29 12L29 13L32 13L32 12L30 12L30 11L32 11L32 10L31 10L31 9L30 9L30 8ZM60 8L60 9L61 9L61 8ZM63 8L63 9L64 9L64 8ZM4 9L4 10L5 10L5 9ZM17 9L17 10L16 10L16 11L15 11L15 13L16 13L16 14L17 14L17 13L16 13L16 11L17 11L17 10L19 10L19 9ZM23 9L23 10L22 10L22 11L23 11L23 10L24 10L24 9ZM28 9L28 10L29 10L29 11L30 11L30 9ZM40 10L40 12L39 12L39 13L38 13L38 15L40 15L40 16L38 16L38 19L39 19L39 21L40 21L40 22L41 22L41 23L43 23L43 24L44 24L44 25L43 25L43 26L46 26L46 27L45 27L45 28L44 28L44 27L43 27L43 28L44 28L44 30L42 30L42 27L38 27L38 28L37 28L37 29L36 29L36 28L35 28L35 27L36 27L36 26L35 26L35 27L33 27L33 24L34 24L34 25L38 25L38 26L41 26L41 25L42 25L42 24L39 24L39 22L37 22L37 23L38 23L38 24L35 24L35 23L34 23L34 22L36 22L36 21L38 21L38 20L37 20L37 19L34 19L34 18L32 18L32 20L31 20L31 21L32 21L32 25L31 25L31 26L29 26L29 25L30 25L30 24L26 24L26 25L25 25L25 26L26 26L26 27L27 27L27 26L28 26L28 28L26 28L26 29L25 29L25 30L27 30L27 32L28 32L28 33L25 33L25 34L24 34L24 35L23 35L23 36L24 36L24 37L25 37L25 36L26 36L26 37L27 37L27 38L28 38L28 39L29 39L29 38L30 38L30 37L29 37L29 36L30 36L30 35L32 35L32 34L30 34L30 33L29 33L29 32L31 32L31 31L32 31L32 32L34 32L34 31L33 31L33 30L34 30L34 29L36 29L36 30L35 30L35 32L37 32L37 33L38 33L38 35L37 35L37 36L38 36L38 37L36 37L36 38L35 38L35 37L34 37L34 38L35 38L35 39L36 39L36 38L38 38L38 39L37 39L37 40L36 40L36 41L37 41L37 40L38 40L38 42L37 42L37 45L38 45L38 46L37 46L37 47L38 47L38 46L39 46L39 47L40 47L40 46L39 46L39 45L40 45L40 44L41 44L41 43L40 43L40 41L41 41L41 40L44 40L44 42L43 42L43 43L44 43L44 42L45 42L45 44L43 44L43 46L42 46L42 45L41 45L41 46L42 46L42 48L43 48L43 47L44 47L44 49L43 49L43 50L44 50L44 49L45 49L45 52L44 52L44 51L43 51L43 52L44 52L44 53L43 53L43 56L42 56L42 57L43 57L43 56L44 56L44 53L45 53L45 54L46 54L46 56L47 56L47 55L48 55L48 54L47 54L47 53L45 53L45 52L46 52L46 51L50 51L50 52L51 52L51 51L50 51L50 50L49 50L49 49L47 49L47 48L48 48L48 47L49 47L49 46L47 46L47 43L46 43L46 42L49 42L49 41L47 41L47 40L48 40L48 38L49 38L49 37L48 37L48 36L49 36L49 34L48 34L48 33L45 33L45 32L46 32L46 31L47 31L47 32L49 32L49 31L50 31L50 34L52 34L52 33L54 33L54 32L53 32L53 30L52 30L52 29L55 29L55 28L53 28L53 27L54 27L54 26L52 26L52 25L53 25L53 23L51 23L51 22L54 22L54 23L55 23L55 22L56 22L56 23L58 23L58 24L59 24L59 23L60 23L60 24L61 24L61 22L59 22L59 20L60 20L60 19L61 19L61 21L62 21L62 18L59 18L59 20L58 20L58 19L55 19L55 18L51 18L51 17L53 17L53 16L52 16L52 15L53 15L53 12L50 12L50 14L47 14L47 13L45 13L45 12L44 12L44 13L43 13L43 14L42 14L42 15L40 15L40 14L39 14L39 13L40 13L40 12L41 12L41 10ZM65 10L65 11L66 11L66 10ZM6 12L6 13L7 13L7 12ZM51 13L51 14L52 14L52 13ZM63 13L63 14L64 14L64 13ZM18 14L18 15L17 15L17 16L18 16L18 17L21 17L21 18L22 18L22 17L21 17L21 16L20 16L20 15L19 15L19 14ZM43 14L43 15L44 15L44 16L42 16L42 17L41 17L41 18L39 18L39 19L42 19L42 20L41 20L41 22L44 22L44 23L45 23L45 24L46 24L46 25L47 25L47 27L46 27L46 29L47 29L47 31L49 31L49 30L50 30L50 29L49 29L49 28L50 28L50 27L51 27L51 28L52 28L52 27L51 27L51 26L50 26L50 25L51 25L51 24L50 24L50 21L52 21L52 20L53 20L53 21L54 21L54 22L55 22L55 21L56 21L56 22L57 22L57 21L58 21L58 20L57 20L57 21L56 21L56 20L54 20L54 19L52 19L52 20L50 20L50 19L49 19L49 18L50 18L50 16L48 16L48 15L46 15L46 14ZM25 15L25 16L26 16L26 15ZM33 15L33 16L34 16L34 15ZM45 15L45 16L44 16L44 17L43 17L43 20L42 20L42 21L43 21L43 20L44 20L44 22L46 22L46 24L47 24L47 25L48 25L48 24L49 24L49 25L50 25L50 24L49 24L49 23L48 23L48 22L49 22L49 21L50 21L50 20L49 20L49 21L48 21L48 22L47 22L47 21L46 21L46 20L48 20L48 18L47 18L47 17L48 17L48 16L47 16L47 17L45 17L45 16L46 16L46 15ZM61 15L61 16L62 16L62 15ZM6 16L6 17L7 17L7 16ZM12 16L12 18L11 18L11 17L10 17L10 18L11 18L11 19L12 19L12 20L11 20L11 21L12 21L12 20L13 20L13 21L14 21L14 20L13 20L13 19L12 19L12 18L13 18L13 16ZM15 17L15 18L16 18L16 17ZM23 18L23 19L21 19L21 20L20 20L20 22L18 22L18 23L17 23L17 22L16 22L16 21L15 21L15 23L16 23L16 25L17 25L17 27L20 27L20 26L21 26L21 25L22 25L22 24L21 24L21 23L22 23L22 22L23 22L23 24L24 24L24 22L23 22L23 19L24 19L24 20L26 20L26 21L27 21L27 19L24 19L24 18ZM44 18L44 19L47 19L47 18ZM33 19L33 20L34 20L34 21L35 21L35 20L34 20L34 19ZM0 21L0 23L2 23L2 22L1 22L1 21ZM6 21L6 22L8 22L8 21ZM13 22L13 23L14 23L14 22ZM26 22L26 23L27 23L27 22ZM58 22L58 23L59 23L59 22ZM18 23L18 24L17 24L17 25L18 25L18 26L20 26L20 23ZM47 23L47 24L48 24L48 23ZM38 24L38 25L39 25L39 24ZM56 24L56 26L57 26L57 24ZM29 27L29 28L28 28L28 29L31 29L31 30L29 30L29 31L31 31L31 30L33 30L33 29L34 29L34 28L33 28L33 27L31 27L31 28L30 28L30 27ZM47 27L47 28L49 28L49 27ZM31 28L31 29L32 29L32 28ZM39 28L39 29L40 29L40 28ZM37 29L37 30L36 30L36 31L38 31L38 33L39 33L39 32L43 32L43 33L40 33L40 35L39 35L39 36L41 36L41 38L40 38L40 37L39 37L39 38L40 38L40 39L39 39L39 40L41 40L41 39L45 39L45 40L47 40L47 38L45 38L45 37L47 37L47 36L48 36L48 34L47 34L47 36L45 36L45 33L44 33L44 32L45 32L45 31L44 31L44 32L43 32L43 31L40 31L40 30L39 30L39 31L38 31L38 29ZM48 29L48 30L49 30L49 29ZM51 30L51 32L52 32L52 30ZM1 31L1 32L2 32L2 31ZM3 31L3 32L4 32L4 31ZM23 31L23 32L24 32L24 31ZM63 31L63 32L64 32L64 31ZM17 32L17 33L18 33L18 32ZM66 32L66 33L65 33L65 34L66 34L66 35L67 35L67 36L66 36L66 37L67 37L67 36L68 36L68 35L67 35L67 34L68 34L68 33L67 33L67 32ZM3 33L3 35L4 35L4 33ZM5 33L5 36L8 36L8 33ZM28 33L28 34L27 34L27 35L28 35L28 36L29 36L29 33ZM33 33L33 36L36 36L36 33ZM43 33L43 34L41 34L41 36L42 36L42 37L43 37L43 36L44 36L44 37L45 37L45 36L44 36L44 33ZM61 33L61 36L64 36L64 33ZM1 34L1 35L2 35L2 34ZM6 34L6 35L7 35L7 34ZM34 34L34 35L35 35L35 34ZM62 34L62 35L63 35L63 34ZM62 37L62 39L65 39L65 37L64 37L64 38L63 38L63 37ZM15 38L15 39L16 39L16 38ZM18 38L18 39L19 39L19 38ZM24 38L24 39L25 39L25 38ZM59 42L59 43L61 43L61 42ZM22 43L22 44L24 44L24 43ZM38 43L38 45L39 45L39 44L40 44L40 43ZM12 44L12 45L11 45L11 47L9 47L9 48L11 48L11 47L12 47L12 45L13 45L13 44ZM14 44L14 46L13 46L13 47L14 47L14 48L15 48L15 49L16 49L16 50L15 50L15 51L16 51L16 52L15 52L15 54L13 54L13 56L14 56L14 57L15 57L15 58L16 58L16 57L17 57L17 58L18 58L18 57L17 57L17 56L16 56L16 57L15 57L15 54L17 54L17 55L18 55L18 54L19 54L19 53L18 53L18 52L19 52L19 51L20 51L20 50L18 50L18 49L16 49L16 47L17 47L17 46L18 46L18 45L15 45L15 44ZM33 44L33 45L34 45L34 46L35 46L35 47L36 47L36 46L35 46L35 44ZM59 44L59 45L60 45L60 44ZM44 45L44 46L45 46L45 49L46 49L46 46L45 46L45 45ZM14 46L14 47L15 47L15 46ZM52 46L52 47L53 47L53 46ZM25 47L25 48L26 48L26 47ZM9 49L9 50L11 50L11 49ZM22 49L22 50L23 50L23 52L24 52L24 51L26 51L26 49ZM27 49L27 50L28 50L28 49ZM59 49L59 51L60 51L60 49ZM16 50L16 51L17 51L17 52L16 52L16 53L17 53L17 54L18 54L18 53L17 53L17 52L18 52L18 51L17 51L17 50ZM66 50L66 51L67 51L67 50ZM3 51L3 53L4 53L4 51ZM25 52L25 53L26 53L26 52ZM33 52L33 53L34 53L34 52ZM10 53L10 54L11 54L11 53ZM54 54L54 55L55 55L55 54ZM60 54L60 55L61 55L61 54ZM1 55L1 56L2 56L2 57L4 57L4 58L7 58L7 57L6 57L6 56L7 56L7 55ZM67 55L67 56L68 56L68 55ZM37 56L37 57L38 57L38 58L39 58L39 57L41 57L41 56L39 56L39 57L38 57L38 56ZM21 57L21 58L22 58L22 57ZM52 57L52 58L53 58L53 57ZM66 57L66 58L65 58L65 59L67 59L67 57ZM0 58L0 61L1 61L1 58ZM3 60L3 61L5 61L5 60ZM27 60L27 61L28 61L28 60ZM42 60L42 61L43 61L43 60ZM65 60L65 61L66 61L66 60ZM33 61L33 64L36 64L36 61ZM61 61L61 64L64 64L64 61ZM34 62L34 63L35 63L35 62ZM55 62L55 64L56 64L56 65L57 65L57 63L56 63L56 62ZM62 62L62 63L63 63L63 62ZM65 62L65 63L66 63L66 62ZM25 63L25 64L26 64L26 63ZM44 63L44 64L45 64L45 66L46 66L46 64L45 64L45 63ZM50 63L50 64L51 64L51 63ZM67 63L67 64L65 64L65 65L67 65L67 64L68 64L68 63ZM15 64L15 66L17 66L17 65L18 65L18 64ZM31 65L31 66L32 66L32 65ZM34 65L34 66L33 66L33 67L34 67L34 68L35 68L35 67L34 67L34 66L35 66L35 65ZM36 66L36 67L37 67L37 66ZM48 66L48 67L47 67L47 68L50 68L50 67L49 67L49 66ZM29 67L29 68L30 68L30 67ZM60 67L60 68L61 68L61 67ZM65 67L65 68L67 68L67 69L68 69L68 68L67 68L67 67ZM0 0L0 7L7 7L7 0ZM1 1L1 6L6 6L6 1ZM2 2L2 5L5 5L5 2ZM62 0L62 7L69 7L69 0ZM63 1L63 6L68 6L68 1ZM64 2L64 5L67 5L67 2ZM0 62L0 69L7 69L7 62ZM1 63L1 68L6 68L6 63ZM2 64L2 67L5 67L5 64Z" fill="#000000"/></g></g></svg>
