<?xml version="1.0" encoding="UTF-8"?>
<svg xmlns="http://www.w3.org/2000/svg" version="1.1" width="300" height="300" viewBox="0 0 300 300"><rect x="0" y="0" width="300" height="300" fill="#ffffff"/><g transform="scale(4.348)"><g transform="translate(0,0)"><path fill-rule="evenodd" d="M9 0L9 1L8 1L8 2L9 2L9 3L8 3L8 4L9 4L9 3L10 3L10 2L11 2L11 4L10 4L10 7L11 7L11 8L10 8L10 9L9 9L9 8L6 8L6 9L5 9L5 8L0 8L0 12L1 12L1 13L0 13L0 14L1 14L1 15L0 15L0 18L1 18L1 16L2 16L2 19L1 19L1 21L0 21L0 22L1 22L1 23L2 23L2 22L3 22L3 23L4 23L4 24L0 24L0 25L1 25L1 26L0 26L0 27L1 27L1 28L0 28L0 31L1 31L1 28L2 28L2 29L3 29L3 28L2 28L2 27L3 27L3 26L4 26L4 25L5 25L5 27L7 27L7 28L5 28L5 29L4 29L4 30L3 30L3 31L2 31L2 32L1 32L1 34L2 34L2 35L0 35L0 36L1 36L1 37L0 37L0 38L1 38L1 37L2 37L2 38L4 38L4 37L9 37L9 36L10 36L10 35L11 35L11 37L10 37L10 38L11 38L11 37L12 37L12 38L13 38L13 39L14 39L14 40L12 40L12 39L11 39L11 40L12 40L12 42L10 42L10 39L8 39L8 38L5 38L5 41L4 41L4 42L3 42L3 41L2 41L2 40L3 40L3 39L2 39L2 40L1 40L1 39L0 39L0 41L2 41L2 44L3 44L3 43L4 43L4 46L3 46L3 45L1 45L1 47L2 47L2 48L3 48L3 49L0 49L0 51L1 51L1 54L0 54L0 55L1 55L1 56L0 56L0 61L1 61L1 56L2 56L2 59L3 59L3 58L4 58L4 59L7 59L7 60L6 60L6 61L8 61L8 63L9 63L9 64L8 64L8 69L9 69L9 68L10 68L10 67L11 67L11 65L12 65L12 64L10 64L10 63L9 63L9 61L10 61L10 62L12 62L12 63L13 63L13 66L12 66L12 68L11 68L11 69L16 69L16 68L17 68L17 69L19 69L19 67L20 67L20 66L19 66L19 65L20 65L20 63L21 63L21 62L22 62L22 64L23 64L23 67L22 67L22 66L21 66L21 68L20 68L20 69L21 69L21 68L23 68L23 69L24 69L24 68L23 68L23 67L25 67L25 69L26 69L26 67L25 67L25 65L28 65L28 66L27 66L27 67L28 67L28 68L29 68L29 69L32 69L32 67L33 67L33 69L35 69L35 68L36 68L36 69L38 69L38 68L37 68L37 67L39 67L39 66L38 66L38 61L37 61L37 59L34 59L34 57L33 57L33 56L32 56L32 55L34 55L34 54L33 54L33 53L34 53L34 52L33 52L33 51L34 51L34 50L36 50L36 51L35 51L35 52L38 52L38 53L37 53L37 54L39 54L39 56L38 56L38 55L36 55L36 54L35 54L35 55L36 55L36 56L35 56L35 57L37 57L37 58L38 58L38 60L39 60L39 62L40 62L40 59L41 59L41 58L42 58L42 60L41 60L41 62L42 62L42 63L44 63L44 64L41 64L41 63L39 63L39 64L41 64L41 66L40 66L40 67L41 67L41 68L43 68L43 69L44 69L44 68L47 68L47 69L49 69L49 66L50 66L50 69L51 69L51 68L52 68L52 67L53 67L53 66L55 66L55 65L56 65L56 67L54 67L54 68L55 68L55 69L56 69L56 67L57 67L57 69L58 69L58 68L59 68L59 69L64 69L64 68L66 68L66 69L68 69L68 68L67 68L67 65L66 65L66 67L64 67L64 68L62 68L62 67L63 67L63 66L61 66L61 65L64 65L64 66L65 66L65 64L67 64L67 63L68 63L68 65L69 65L69 63L68 63L68 62L67 62L67 60L69 60L69 59L68 59L68 56L69 56L69 55L67 55L67 54L69 54L69 53L67 53L67 54L66 54L66 55L63 55L63 56L67 56L67 59L65 59L65 58L66 58L66 57L65 57L65 58L64 58L64 59L65 59L65 60L62 60L62 58L63 58L63 57L62 57L62 54L63 54L63 53L64 53L64 52L65 52L65 53L66 53L66 52L68 52L68 50L69 50L69 49L68 49L68 48L69 48L69 47L68 47L68 46L69 46L69 45L67 45L67 44L68 44L68 42L69 42L69 41L68 41L68 42L63 42L63 44L66 44L66 47L65 47L65 46L64 46L64 47L65 47L65 48L64 48L64 49L63 49L63 48L62 48L62 46L61 46L61 45L62 45L62 41L61 41L61 40L60 40L60 39L62 39L62 38L64 38L64 37L65 37L65 39L63 39L63 41L67 41L67 40L68 40L68 38L67 38L67 37L68 37L68 36L69 36L69 35L68 35L68 34L69 34L69 33L68 33L68 34L67 34L67 33L66 33L66 32L67 32L67 31L68 31L68 30L69 30L69 28L67 28L67 27L68 27L68 26L65 26L65 27L64 27L64 28L63 28L63 31L61 31L61 32L59 32L59 34L58 34L58 32L57 32L57 31L56 31L56 30L57 30L57 29L56 29L56 27L55 27L55 28L54 28L54 29L51 29L51 28L52 28L52 27L53 27L53 26L55 26L55 25L56 25L56 26L57 26L57 28L59 28L59 27L58 27L58 26L57 26L57 25L59 25L59 26L60 26L60 27L61 27L61 28L60 28L60 29L59 29L59 30L58 30L58 31L59 31L59 30L62 30L62 29L61 29L61 28L62 28L62 27L63 27L63 26L61 26L61 25L64 25L64 24L65 24L65 25L69 25L69 23L68 23L68 22L67 22L67 21L68 21L68 18L69 18L69 16L67 16L67 15L68 15L68 14L69 14L69 13L68 13L68 12L69 12L69 11L68 11L68 12L67 12L67 10L69 10L69 9L68 9L68 8L67 8L67 9L66 9L66 8L65 8L65 9L64 9L64 8L63 8L63 9L64 9L64 10L62 10L62 8L61 8L61 9L60 9L60 7L61 7L61 6L60 6L60 7L59 7L59 4L57 4L57 6L56 6L56 7L55 7L55 4L53 4L53 5L54 5L54 7L53 7L53 6L52 6L52 8L49 8L49 6L50 6L50 7L51 7L51 5L52 5L52 4L51 4L51 3L52 3L52 2L50 2L50 0L49 0L49 2L48 2L48 3L47 3L47 4L48 4L48 5L49 5L49 6L48 6L48 7L47 7L47 6L46 6L46 5L44 5L44 3L45 3L45 4L46 4L46 3L45 3L45 2L44 2L44 3L43 3L43 0L41 0L41 1L38 1L38 0L36 0L36 1L35 1L35 0L33 0L33 1L32 1L32 0L31 0L31 1L30 1L30 0L28 0L28 1L27 1L27 2L28 2L28 3L27 3L27 4L30 4L30 5L29 5L29 6L28 6L28 5L27 5L27 6L26 6L26 3L25 3L25 2L26 2L26 1L25 1L25 0L23 0L23 1L25 1L25 2L22 2L22 1L21 1L21 2L22 2L22 3L20 3L20 4L19 4L19 3L18 3L18 4L17 4L17 3L15 3L15 2L14 2L14 1L15 1L15 0L14 0L14 1L13 1L13 2L11 2L11 1L10 1L10 0ZM17 0L17 1L18 1L18 2L20 2L20 1L19 1L19 0ZM44 0L44 1L46 1L46 2L47 2L47 1L48 1L48 0L47 0L47 1L46 1L46 0ZM52 0L52 1L53 1L53 2L54 2L54 3L59 3L59 2L58 2L58 1L61 1L61 0L57 0L57 2L56 2L56 1L55 1L55 0L54 0L54 1L53 1L53 0ZM31 1L31 4L32 4L32 3L34 3L34 4L36 4L36 3L38 3L38 4L37 4L37 5L38 5L38 6L37 6L37 8L38 8L38 10L36 10L36 9L34 9L34 10L32 10L32 9L31 9L31 8L32 8L32 5L30 5L30 6L29 6L29 7L28 7L28 6L27 6L27 7L26 7L26 6L25 6L25 5L22 5L22 4L24 4L24 3L22 3L22 4L20 4L20 5L19 5L19 4L18 4L18 5L17 5L17 4L16 4L16 5L17 5L17 7L18 7L18 5L19 5L19 7L20 7L20 6L21 6L21 8L22 8L22 9L20 9L20 8L19 8L19 9L20 9L20 10L21 10L21 11L24 11L24 12L21 12L21 13L19 13L19 14L18 14L18 13L17 13L17 14L18 14L18 15L17 15L17 16L18 16L18 17L16 17L16 13L15 13L15 17L16 17L16 18L18 18L18 17L22 17L22 18L21 18L21 21L20 21L20 20L19 20L19 21L20 21L20 22L19 22L19 25L17 25L17 22L18 22L18 21L17 21L17 22L16 22L16 21L14 21L14 20L16 20L16 19L15 19L15 18L14 18L14 16L13 16L13 18L14 18L14 20L11 20L11 19L9 19L9 20L8 20L8 21L9 21L9 22L10 22L10 23L9 23L9 24L8 24L8 22L7 22L7 21L6 21L6 22L4 22L4 23L5 23L5 24L8 24L8 25L9 25L9 28L7 28L7 29L5 29L5 31L3 31L3 32L2 32L2 33L3 33L3 34L4 34L4 32L5 32L5 31L6 31L6 32L7 32L7 31L8 31L8 32L9 32L9 33L10 33L10 34L11 34L11 35L12 35L12 36L13 36L13 37L14 37L14 39L15 39L15 38L17 38L17 40L14 40L14 43L16 43L16 44L15 44L15 47L13 47L13 46L14 46L14 45L11 45L11 48L10 48L10 50L9 50L9 49L8 49L8 50L7 50L7 49L6 49L6 48L7 48L7 47L6 47L6 46L7 46L7 45L8 45L8 46L9 46L9 47L8 47L8 48L9 48L9 47L10 47L10 46L9 46L9 43L10 43L10 42L9 42L9 41L8 41L8 39L6 39L6 40L7 40L7 41L5 41L5 42L7 42L7 41L8 41L8 44L7 44L7 43L6 43L6 44L7 44L7 45L5 45L5 46L4 46L4 47L3 47L3 48L5 48L5 49L6 49L6 50L3 50L3 52L4 52L4 53L5 53L5 54L7 54L7 55L6 55L6 56L7 56L7 57L4 57L4 56L5 56L5 55L4 55L4 54L3 54L3 55L4 55L4 56L3 56L3 57L4 57L4 58L7 58L7 59L8 59L8 61L9 61L9 60L10 60L10 61L12 61L12 62L13 62L13 59L14 59L14 60L16 60L16 61L15 61L15 62L14 62L14 66L17 66L17 68L18 68L18 66L17 66L17 65L18 65L18 64L17 64L17 63L18 63L18 62L19 62L19 63L20 63L20 62L21 62L21 61L22 61L22 62L24 62L24 61L25 61L25 62L27 62L27 63L28 63L28 65L29 65L29 64L30 64L30 63L28 63L28 62L31 62L31 63L32 63L32 61L29 61L29 57L30 57L30 56L29 56L29 55L30 55L30 54L29 54L29 53L27 53L27 52L26 52L26 50L27 50L27 51L28 51L28 52L31 52L31 55L32 55L32 53L33 53L33 52L31 52L31 51L33 51L33 50L34 50L34 49L36 49L36 50L37 50L37 51L39 51L39 50L41 50L41 51L40 51L40 52L39 52L39 54L40 54L40 55L41 55L41 54L40 54L40 53L42 53L42 52L41 52L41 51L42 51L42 50L41 50L41 49L42 49L42 48L43 48L43 47L44 47L44 49L43 49L43 50L44 50L44 49L45 49L45 52L44 52L44 51L43 51L43 52L44 52L44 53L43 53L43 54L42 54L42 55L43 55L43 56L42 56L42 57L43 57L43 60L42 60L42 61L43 61L43 62L44 62L44 63L45 63L45 64L44 64L44 66L41 66L41 67L43 67L43 68L44 68L44 66L45 66L45 67L46 67L46 66L47 66L47 67L48 67L48 66L49 66L49 65L47 65L47 63L48 63L48 64L49 64L49 63L50 63L50 64L51 64L51 65L50 65L50 66L51 66L51 65L52 65L52 66L53 66L53 65L55 65L55 64L56 64L56 65L57 65L57 67L59 67L59 68L60 68L60 67L59 67L59 65L60 65L60 60L61 60L61 59L60 59L60 58L59 58L59 57L60 57L60 56L61 56L61 54L62 54L62 53L63 53L63 52L64 52L64 51L67 51L67 50L66 50L66 49L67 49L67 48L68 48L68 47L67 47L67 48L65 48L65 49L64 49L64 50L63 50L63 49L62 49L62 50L60 50L60 49L61 49L61 46L59 46L59 45L60 45L60 44L61 44L61 43L60 43L60 42L59 42L59 41L60 41L60 40L59 40L59 38L60 38L60 37L57 37L57 35L58 35L58 34L57 34L57 32L56 32L56 31L55 31L55 32L54 32L54 31L52 31L52 30L51 30L51 29L50 29L50 28L51 28L51 25L55 25L55 24L56 24L56 25L57 25L57 23L58 23L58 22L59 22L59 21L62 21L62 23L61 23L61 24L64 24L64 23L63 23L63 21L64 21L64 22L65 22L65 23L67 23L67 22L65 22L65 21L66 21L66 20L65 20L65 18L63 18L63 17L66 17L66 16L65 16L65 14L68 14L68 13L65 13L65 12L64 12L64 11L66 11L66 10L64 10L64 11L63 11L63 13L62 13L62 12L61 12L61 11L62 11L62 10L61 10L61 11L58 11L58 13L57 13L57 12L55 12L55 13L56 13L56 14L54 14L54 15L53 15L53 16L52 16L52 15L51 15L51 17L50 17L50 15L49 15L49 14L51 14L51 13L52 13L52 14L53 14L53 12L54 12L54 10L51 10L51 9L50 9L50 10L51 10L51 11L53 11L53 12L51 12L51 13L50 13L50 12L49 12L49 10L47 10L47 7L46 7L46 6L45 6L45 7L44 7L44 5L43 5L43 7L42 7L42 6L41 6L41 5L40 5L40 4L41 4L41 3L42 3L42 4L43 4L43 3L42 3L42 1L41 1L41 3L39 3L39 2L36 2L36 3L35 3L35 1L33 1L33 2L32 2L32 1ZM54 1L54 2L55 2L55 1ZM13 2L13 4L12 4L12 5L13 5L13 4L14 4L14 2ZM29 2L29 3L30 3L30 2ZM49 2L49 3L50 3L50 2ZM60 3L60 5L61 5L61 3ZM49 4L49 5L51 5L51 4ZM8 5L8 7L9 7L9 5ZM21 5L21 6L22 6L22 7L23 7L23 6L22 6L22 5ZM33 5L33 8L36 8L36 5ZM39 5L39 6L38 6L38 7L39 7L39 6L40 6L40 8L39 8L39 9L40 9L40 8L41 8L41 6L40 6L40 5ZM11 6L11 7L12 7L12 6ZM13 6L13 7L14 7L14 6ZM15 6L15 8L14 8L14 9L15 9L15 8L16 8L16 10L15 10L15 11L13 11L13 10L11 10L11 11L10 11L10 12L9 12L9 11L8 11L8 10L9 10L9 9L6 9L6 10L7 10L7 11L6 11L6 12L9 12L9 13L10 13L10 14L11 14L11 11L12 11L12 12L13 12L13 13L12 13L12 15L13 15L13 13L14 13L14 12L20 12L20 11L19 11L19 10L18 10L18 9L17 9L17 8L16 8L16 6ZM24 6L24 7L25 7L25 6ZM30 6L30 7L31 7L31 6ZM34 6L34 7L35 7L35 6ZM57 6L57 7L56 7L56 9L55 9L55 8L54 8L54 9L55 9L55 11L56 11L56 9L57 9L57 10L59 10L59 9L58 9L58 8L59 8L59 7L58 7L58 6ZM45 7L45 9L44 9L44 8L43 8L43 9L41 9L41 10L38 10L38 11L37 11L37 13L36 13L36 12L34 12L34 11L33 11L33 12L34 12L34 13L33 13L33 14L34 14L34 13L36 13L36 14L35 14L35 15L38 15L38 16L37 16L37 18L35 18L35 20L32 20L32 19L29 19L29 22L28 22L28 24L27 24L27 25L25 25L25 24L26 24L26 22L25 22L25 21L26 21L26 17L24 17L24 16L26 16L26 15L25 15L25 14L27 14L27 16L29 16L29 18L31 18L31 17L32 17L32 18L33 18L33 17L32 17L32 14L31 14L31 13L32 13L32 12L29 12L29 10L27 10L27 11L26 11L26 8L24 8L24 9L23 9L23 10L24 10L24 9L25 9L25 12L29 12L29 14L31 14L31 16L29 16L29 15L28 15L28 14L27 14L27 13L21 13L21 14L20 14L20 15L22 15L22 16L23 16L23 18L24 18L24 20L23 20L23 22L22 22L22 21L21 21L21 22L20 22L20 25L19 25L19 28L17 28L17 27L18 27L18 26L17 26L17 25L16 25L16 22L15 22L15 25L16 25L16 26L15 26L15 27L14 27L14 26L12 26L12 24L13 24L13 23L14 23L14 21L12 21L12 23L11 23L11 24L9 24L9 25L11 25L11 26L10 26L10 27L13 27L13 28L10 28L10 29L7 29L7 30L6 30L6 31L7 31L7 30L8 30L8 31L9 31L9 32L11 32L11 31L12 31L12 32L13 32L13 36L14 36L14 37L15 37L15 36L14 36L14 35L16 35L16 36L17 36L17 37L19 37L19 38L20 38L20 39L18 39L18 40L17 40L17 41L18 41L18 42L17 42L17 45L18 45L18 46L16 46L16 48L14 48L14 49L16 49L16 48L17 48L17 49L18 49L18 51L17 51L17 50L15 50L15 51L13 51L13 50L12 50L12 48L13 48L13 47L12 47L12 48L11 48L11 51L10 51L10 52L9 52L9 51L8 51L8 52L9 52L9 53L10 53L10 54L8 54L8 55L7 55L7 56L8 56L8 59L9 59L9 56L10 56L10 58L12 58L12 57L11 57L11 55L10 55L10 54L12 54L12 56L13 56L13 57L14 57L14 58L15 58L15 59L16 59L16 60L18 60L18 61L17 61L17 62L18 62L18 61L19 61L19 62L20 62L20 61L19 61L19 59L20 59L20 60L23 60L23 61L24 61L24 60L25 60L25 61L26 61L26 60L27 60L27 61L28 61L28 60L27 60L27 59L26 59L26 58L25 58L25 57L26 57L26 55L25 55L25 56L23 56L23 54L25 54L25 53L26 53L26 54L27 54L27 56L28 56L28 55L29 55L29 54L27 54L27 53L26 53L26 52L23 52L23 54L22 54L22 55L20 55L20 53L19 53L19 52L22 52L22 51L21 51L21 50L26 50L26 49L18 49L18 48L17 48L17 47L18 47L18 46L19 46L19 47L20 47L20 45L21 45L21 44L24 44L24 45L23 45L23 46L22 46L22 47L21 47L21 48L26 48L26 47L25 47L25 45L26 45L26 44L27 44L27 45L28 45L28 44L27 44L27 43L29 43L29 42L28 42L28 41L30 41L30 42L31 42L31 41L32 41L32 42L34 42L34 43L35 43L35 44L36 44L36 45L35 45L35 46L34 46L34 47L35 47L35 48L36 48L36 47L37 47L37 46L38 46L38 45L39 45L39 46L40 46L40 47L38 47L38 49L37 49L37 50L38 50L38 49L39 49L39 48L40 48L40 47L41 47L41 48L42 48L42 46L44 46L44 45L43 45L43 44L45 44L45 42L44 42L44 40L41 40L41 39L42 39L42 38L43 38L43 39L45 39L45 40L47 40L47 42L46 42L46 43L47 43L47 46L45 46L45 49L46 49L46 47L47 47L47 48L48 48L48 51L49 51L49 52L47 52L47 51L46 51L46 52L45 52L45 53L44 53L44 56L43 56L43 57L44 57L44 56L46 56L46 57L48 57L48 58L47 58L47 59L49 59L49 60L47 60L47 62L50 62L50 59L51 59L51 58L52 58L52 60L54 60L54 61L53 61L53 62L52 62L52 61L51 61L51 62L52 62L52 63L51 63L51 64L52 64L52 63L53 63L53 62L58 62L58 63L59 63L59 62L58 62L58 61L59 61L59 60L60 60L60 59L59 59L59 60L58 60L58 61L56 61L56 60L55 60L55 59L54 59L54 58L56 58L56 59L57 59L57 58L56 58L56 54L57 54L57 53L56 53L56 52L57 52L57 51L58 51L58 50L57 50L57 49L56 49L56 48L58 48L58 47L59 47L59 48L60 48L60 47L59 47L59 46L56 46L56 42L58 42L58 43L57 43L57 45L59 45L59 42L58 42L58 41L59 41L59 40L57 40L57 38L56 38L56 39L55 39L55 37L56 37L56 34L55 34L55 33L56 33L56 32L55 32L55 33L52 33L52 34L51 34L51 36L48 36L48 35L50 35L50 29L49 29L49 28L46 28L46 26L43 26L43 25L44 25L44 24L43 24L43 23L41 23L41 22L44 22L44 23L45 23L45 24L46 24L46 25L47 25L47 26L48 26L48 27L50 27L50 25L49 25L49 24L48 24L48 23L47 23L47 24L46 24L46 22L44 22L44 20L43 20L43 17L44 17L44 16L47 16L47 17L49 17L49 18L48 18L48 19L50 19L50 17L49 17L49 16L47 16L47 14L49 14L49 12L47 12L47 14L43 14L43 13L44 13L44 12L45 12L45 11L43 11L43 13L42 13L42 14L41 14L41 12L42 12L42 10L45 10L45 9L46 9L46 7ZM57 7L57 8L58 8L58 7ZM11 8L11 9L13 9L13 8ZM29 8L29 9L30 9L30 11L32 11L32 10L31 10L31 9L30 9L30 8ZM52 8L52 9L53 9L53 8ZM1 10L1 12L2 12L2 13L1 13L1 14L2 14L2 15L3 15L3 14L4 14L4 13L5 13L5 16L3 16L3 17L4 17L4 19L5 19L5 20L7 20L7 19L8 19L8 18L10 18L10 17L11 17L11 18L12 18L12 16L11 16L11 15L10 15L10 16L8 16L8 15L9 15L9 14L8 14L8 13L5 13L5 11L4 11L4 12L3 12L3 10ZM16 10L16 11L17 11L17 10ZM35 10L35 11L36 11L36 10ZM38 11L38 15L40 15L40 16L38 16L38 18L37 18L37 19L39 19L39 21L43 21L43 20L41 20L41 19L39 19L39 18L41 18L41 17L42 17L42 16L44 16L44 15L43 15L43 14L42 14L42 15L40 15L40 14L39 14L39 13L40 13L40 12L41 12L41 11L40 11L40 12L39 12L39 11ZM59 12L59 13L60 13L60 14L59 14L59 15L57 15L57 16L61 16L61 17L59 17L59 18L57 18L57 17L56 17L56 15L54 15L54 16L55 16L55 17L53 17L53 19L52 19L52 20L51 20L51 21L52 21L52 22L56 22L56 21L52 21L52 20L54 20L54 19L55 19L55 20L57 20L57 21L59 21L59 19L60 19L60 20L61 20L61 19L60 19L60 18L62 18L62 21L63 21L63 20L64 20L64 19L63 19L63 18L62 18L62 16L64 16L64 15L62 15L62 16L61 16L61 14L62 14L62 13L60 13L60 12ZM2 13L2 14L3 14L3 13ZM6 14L6 15L7 15L7 14ZM22 14L22 15L24 15L24 14ZM33 15L33 16L34 16L34 15ZM6 16L6 17L8 17L8 16ZM27 17L27 18L28 18L28 17ZM55 17L55 18L56 18L56 17ZM5 18L5 19L7 19L7 18ZM19 18L19 19L20 19L20 18ZM44 18L44 19L47 19L47 18ZM2 19L2 21L1 21L1 22L2 22L2 21L3 21L3 19ZM27 19L27 20L28 20L28 19ZM9 20L9 21L11 21L11 20ZM31 20L31 21L30 21L30 22L29 22L29 23L30 23L30 22L31 22L31 21L32 21L32 22L34 22L34 21L32 21L32 20ZM37 20L37 21L38 21L38 20ZM46 20L46 21L49 21L49 23L50 23L50 20ZM6 22L6 23L7 23L7 22ZM21 22L21 23L22 23L22 22ZM24 22L24 23L23 23L23 24L24 24L24 23L25 23L25 22ZM37 22L37 23L39 23L39 24L36 24L36 23L32 23L32 25L31 25L31 26L29 26L29 25L30 25L30 24L28 24L28 25L27 25L27 26L26 26L26 27L25 27L25 28L26 28L26 30L29 30L29 31L27 31L27 32L28 32L28 33L25 33L25 32L26 32L26 31L25 31L25 30L22 30L22 29L24 29L24 27L23 27L23 26L24 26L24 25L22 25L22 24L21 24L21 25L20 25L20 28L19 28L19 29L15 29L15 28L16 28L16 27L15 27L15 28L13 28L13 32L14 32L14 34L17 34L17 33L18 33L18 32L17 32L17 31L18 31L18 30L19 30L19 29L20 29L20 30L21 30L21 31L20 31L20 33L19 33L19 34L18 34L18 36L19 36L19 37L20 37L20 38L22 38L22 39L21 39L21 40L22 40L22 41L19 41L19 42L18 42L18 43L19 43L19 44L21 44L21 43L20 43L20 42L22 42L22 43L24 43L24 44L26 44L26 42L25 42L25 41L28 41L28 39L29 39L29 40L30 40L30 41L31 41L31 39L34 39L34 40L32 40L32 41L35 41L35 42L36 42L36 39L37 39L37 38L38 38L38 40L37 40L37 41L38 41L38 43L37 43L37 45L36 45L36 46L35 46L35 47L36 47L36 46L37 46L37 45L38 45L38 44L39 44L39 45L40 45L40 44L41 44L41 43L40 43L40 41L41 41L41 40L39 40L39 39L41 39L41 38L40 38L40 37L41 37L41 35L42 35L42 36L44 36L44 37L45 37L45 38L48 38L48 37L45 37L45 36L47 36L47 35L48 35L48 34L49 34L49 33L45 33L45 32L46 32L46 31L47 31L47 29L46 29L46 28L44 28L44 27L43 27L43 28L44 28L44 29L45 29L45 30L42 30L42 27L38 27L38 28L37 28L37 29L36 29L36 28L35 28L35 27L36 27L36 26L35 26L35 25L38 25L38 26L41 26L41 25L42 25L42 24L41 24L41 23L39 23L39 22ZM53 23L53 24L54 24L54 23ZM59 23L59 24L60 24L60 23ZM33 24L33 27L30 27L30 28L28 28L28 27L27 27L27 29L31 29L31 30L30 30L30 31L31 31L31 32L29 32L29 33L28 33L28 34L27 34L27 35L26 35L26 34L25 34L25 33L24 33L24 31L23 31L23 33L24 33L24 34L22 34L22 33L21 33L21 34L22 34L22 35L24 35L24 34L25 34L25 35L26 35L26 36L23 36L23 38L26 38L26 36L27 36L27 37L28 37L28 36L29 36L29 39L30 39L30 38L31 38L31 37L32 37L32 38L34 38L34 37L35 37L35 39L36 39L36 37L38 37L38 36L37 36L37 34L38 34L38 35L39 35L39 34L38 34L38 33L39 33L39 32L43 32L43 33L40 33L40 35L41 35L41 34L43 34L43 33L44 33L44 36L45 36L45 33L44 33L44 32L45 32L45 31L46 31L46 30L45 30L45 31L44 31L44 32L43 32L43 31L40 31L40 30L39 30L39 31L38 31L38 29L40 29L40 28L38 28L38 29L37 29L37 30L36 30L36 29L34 29L34 28L33 28L33 27L35 27L35 26L34 26L34 25L35 25L35 24ZM47 24L47 25L48 25L48 26L49 26L49 25L48 25L48 24ZM6 25L6 26L7 26L7 27L8 27L8 26L7 26L7 25ZM21 25L21 26L22 26L22 25ZM21 27L21 28L20 28L20 29L21 29L21 28L22 28L22 27ZM31 28L31 29L32 29L32 28ZM64 28L64 29L65 29L65 30L64 30L64 31L63 31L63 32L64 32L64 31L67 31L67 30L68 30L68 29L67 29L67 28L66 28L66 29L65 29L65 28ZM10 29L10 30L9 30L9 31L11 31L11 30L12 30L12 29ZM14 29L14 32L15 32L15 31L16 31L16 30L15 30L15 29ZM33 29L33 30L32 30L32 32L31 32L31 34L30 34L30 33L29 33L29 35L31 35L31 34L32 34L32 32L34 32L34 31L33 31L33 30L34 30L34 29ZM48 29L48 30L49 30L49 29ZM35 31L35 32L37 32L37 33L38 33L38 32L37 32L37 31ZM5 33L5 36L8 36L8 33ZM11 33L11 34L12 34L12 33ZM33 33L33 36L36 36L36 33ZM61 33L61 36L64 36L64 33ZM6 34L6 35L7 35L7 34ZM19 34L19 35L20 35L20 34ZM34 34L34 35L35 35L35 34ZM52 34L52 35L53 35L53 36L51 36L51 37L50 37L50 39L47 39L47 40L51 40L51 41L50 41L50 43L48 43L48 44L50 44L50 45L49 45L49 46L47 46L47 47L48 47L48 48L50 48L50 50L51 50L51 51L50 51L50 52L49 52L49 53L50 53L50 55L49 55L49 58L51 58L51 57L53 57L53 56L55 56L55 54L56 54L56 53L55 53L55 54L54 54L54 53L53 53L53 51L55 51L55 52L56 52L56 50L53 50L53 48L52 48L52 47L54 47L54 49L55 49L55 47L54 47L54 46L51 46L51 45L55 45L55 44L54 44L54 43L55 43L55 42L56 42L56 41L57 41L57 40L55 40L55 39L53 39L53 37L55 37L55 35L54 35L54 34ZM59 34L59 36L60 36L60 34ZM62 34L62 35L63 35L63 34ZM65 34L65 35L66 35L66 34ZM2 35L2 37L3 37L3 35ZM27 35L27 36L28 36L28 35ZM67 35L67 36L68 36L68 35ZM20 36L20 37L21 37L21 36ZM51 37L51 38L52 38L52 37ZM61 37L61 38L62 38L62 37ZM24 39L24 41L23 41L23 42L24 42L24 41L25 41L25 39ZM26 39L26 40L27 40L27 39ZM38 40L38 41L39 41L39 40ZM53 40L53 41L51 41L51 42L53 42L53 43L54 43L54 42L55 42L55 41L54 41L54 40ZM15 41L15 42L16 42L16 41ZM48 41L48 42L49 42L49 41ZM53 41L53 42L54 42L54 41ZM0 42L0 44L1 44L1 42ZM12 42L12 43L13 43L13 42ZM43 42L43 43L44 43L44 42ZM30 43L30 44L29 44L29 46L30 46L30 45L31 45L31 43ZM32 43L32 45L33 45L33 43ZM39 43L39 44L40 44L40 43ZM50 43L50 44L52 44L52 43ZM41 45L41 46L42 46L42 45ZM23 46L23 47L24 47L24 46ZM32 46L32 47L33 47L33 46ZM49 46L49 47L51 47L51 46ZM30 47L30 48L29 48L29 49L31 49L31 50L33 50L33 49L31 49L31 47ZM51 48L51 49L52 49L52 48ZM27 49L27 50L28 50L28 49ZM6 50L6 51L4 51L4 52L6 52L6 53L7 53L7 52L6 52L6 51L7 51L7 50ZM19 50L19 51L20 51L20 50ZM52 50L52 51L51 51L51 52L52 52L52 51L53 51L53 50ZM59 50L59 51L60 51L60 50ZM12 51L12 52L11 52L11 53L12 53L12 52L13 52L13 53L15 53L15 54L17 54L17 55L14 55L14 54L13 54L13 55L14 55L14 56L16 56L16 57L15 57L15 58L16 58L16 57L17 57L17 58L18 58L18 57L17 57L17 55L18 55L18 56L19 56L19 53L18 53L18 52L17 52L17 51L15 51L15 52L13 52L13 51ZM61 51L61 52L60 52L60 53L59 53L59 55L60 55L60 54L61 54L61 52L63 52L63 51ZM15 52L15 53L17 53L17 54L18 54L18 53L17 53L17 52ZM45 53L45 54L46 54L46 56L48 56L48 55L47 55L47 53ZM52 54L52 55L54 55L54 54ZM8 55L8 56L9 56L9 55ZM21 56L21 57L19 57L19 58L20 58L20 59L21 59L21 57L22 57L22 58L24 58L24 57L22 57L22 56ZM39 56L39 57L38 57L38 58L39 58L39 57L41 57L41 56ZM50 56L50 57L51 57L51 56ZM57 56L57 57L59 57L59 56ZM31 57L31 59L32 59L32 57ZM61 57L61 58L62 58L62 57ZM45 58L45 59L44 59L44 60L43 60L43 61L44 61L44 60L45 60L45 61L46 61L46 60L45 60L45 59L46 59L46 58ZM11 59L11 60L12 60L12 59ZM23 59L23 60L24 60L24 59ZM3 60L3 61L5 61L5 60ZM65 60L65 61L66 61L66 60ZM33 61L33 64L36 64L36 61ZM61 61L61 64L64 64L64 61ZM15 62L15 65L16 65L16 62ZM34 62L34 63L35 63L35 62ZM45 62L45 63L46 63L46 62ZM62 62L62 63L63 63L63 62ZM65 62L65 63L66 63L66 62ZM25 63L25 64L26 64L26 63ZM54 63L54 64L55 64L55 63ZM56 63L56 64L57 64L57 65L59 65L59 64L57 64L57 63ZM45 64L45 66L46 66L46 64ZM30 65L30 66L32 66L32 65ZM33 65L33 66L34 66L34 67L37 67L37 65ZM13 67L13 68L16 68L16 67ZM29 67L29 68L30 68L30 67ZM0 0L0 7L7 7L7 0ZM1 1L1 6L6 6L6 1ZM2 2L2 5L5 5L5 2ZM62 0L62 7L69 7L69 0ZM63 1L63 6L68 6L68 1ZM64 2L64 5L67 5L67 2ZM0 62L0 69L7 69L7 62ZM1 63L1 68L6 68L6 63ZM2 64L2 67L5 67L5 64Z" fill="#000000"/></g></g></svg>
