<?xml version="1.0" encoding="UTF-8"?>
<svg xmlns="http://www.w3.org/2000/svg" version="1.1" width="300" height="300" viewBox="0 0 300 300"><rect x="0" y="0" width="300" height="300" fill="#ffffff"/><g transform="scale(4.348)"><g transform="translate(0,0)"><path fill-rule="evenodd" d="M8 0L8 2L12 2L12 4L11 4L11 3L10 3L10 5L9 5L9 4L8 4L8 10L6 10L6 9L7 9L7 8L5 8L5 9L3 9L3 8L0 8L0 9L2 9L2 10L1 10L1 11L0 11L0 15L1 15L1 14L2 14L2 15L3 15L3 16L0 16L0 18L1 18L1 19L0 19L0 21L1 21L1 19L3 19L3 20L2 20L2 21L3 21L3 20L4 20L4 19L3 19L3 17L4 17L4 18L6 18L6 19L8 19L8 20L5 20L5 22L6 22L6 23L7 23L7 24L5 24L5 23L4 23L4 22L3 22L3 23L1 23L1 22L0 22L0 23L1 23L1 24L0 24L0 30L1 30L1 31L0 31L0 33L1 33L1 34L2 34L2 35L0 35L0 36L2 36L2 35L3 35L3 34L4 34L4 36L3 36L3 40L0 40L0 41L2 41L2 45L4 45L4 46L3 46L3 47L1 47L1 46L0 46L0 47L1 47L1 48L0 48L0 49L1 49L1 51L2 51L2 52L0 52L0 54L2 54L2 53L5 53L5 54L3 54L3 55L2 55L2 56L1 56L1 55L0 55L0 61L1 61L1 58L2 58L2 59L3 59L3 58L4 58L4 59L10 59L10 61L9 61L9 60L6 60L6 61L8 61L8 62L10 62L10 61L12 61L12 59L13 59L13 58L14 58L14 57L15 57L15 59L14 59L14 60L15 60L15 61L14 61L14 62L13 62L13 64L12 64L12 63L10 63L10 64L9 64L9 63L8 63L8 64L9 64L9 66L8 66L8 69L10 69L10 66L13 66L13 68L14 68L14 67L15 67L15 66L16 66L16 69L17 69L17 66L18 66L18 65L19 65L19 64L18 64L18 63L19 63L19 62L20 62L20 61L19 61L19 59L20 59L20 60L22 60L22 63L23 63L23 64L22 64L22 65L21 65L21 63L20 63L20 65L21 65L21 66L20 66L20 67L21 67L21 68L22 68L22 69L23 69L23 68L22 68L22 67L23 67L23 66L24 66L24 65L25 65L25 62L24 62L24 63L23 63L23 60L22 60L22 59L20 59L20 56L21 56L21 54L22 54L22 53L23 53L23 55L22 55L22 56L23 56L23 55L24 55L24 53L25 53L25 52L26 52L26 55L25 55L25 56L24 56L24 57L25 57L25 56L26 56L26 58L24 58L24 59L26 59L26 61L27 61L27 60L30 60L30 62L27 62L27 63L26 63L26 64L28 64L28 65L27 65L27 66L26 66L26 67L27 67L27 68L25 68L25 67L24 67L24 68L25 68L25 69L27 69L27 68L28 68L28 65L29 65L29 64L28 64L28 63L30 63L30 66L31 66L31 68L30 68L30 67L29 67L29 69L35 69L35 68L36 68L36 69L39 69L39 68L38 68L38 67L37 67L37 68L36 68L36 66L34 66L34 65L37 65L37 66L38 66L38 65L39 65L39 64L40 64L40 66L39 66L39 67L40 67L40 69L42 69L42 68L43 68L43 67L44 67L44 65L45 65L45 68L44 68L44 69L46 69L46 68L47 68L47 67L48 67L48 66L46 66L46 63L45 63L45 62L46 62L46 61L47 61L47 62L49 62L49 63L48 63L48 65L49 65L49 67L50 67L50 68L48 68L48 69L50 69L50 68L51 68L51 67L53 67L53 65L54 65L54 63L55 63L55 62L56 62L56 63L57 63L57 64L56 64L56 67L57 67L57 68L56 68L56 69L57 69L57 68L58 68L58 67L59 67L59 69L61 69L61 68L62 68L62 69L66 69L66 67L69 67L69 66L67 66L67 65L66 65L66 63L67 63L67 62L66 62L66 61L68 61L68 63L69 63L69 56L68 56L68 55L69 55L69 52L68 52L68 48L69 48L69 40L68 40L68 41L66 41L66 43L65 43L65 42L64 42L64 43L65 43L65 45L68 45L68 48L67 48L67 54L66 54L66 55L65 55L65 54L64 54L64 53L66 53L66 50L64 50L64 49L66 49L66 47L67 47L67 46L64 46L64 44L63 44L63 46L62 46L62 47L60 47L60 46L61 46L61 45L62 45L62 43L63 43L63 42L62 42L62 41L63 41L63 40L61 40L61 38L62 38L62 39L63 39L63 37L65 37L65 38L64 38L64 40L65 40L65 39L66 39L66 37L67 37L67 38L68 38L68 39L69 39L69 38L68 38L68 37L69 37L69 36L68 36L68 37L67 37L67 36L66 36L66 35L67 35L67 34L66 34L66 33L65 33L65 32L66 32L66 30L67 30L67 31L69 31L69 25L68 25L68 23L69 23L69 20L68 20L68 19L69 19L69 16L68 16L68 15L69 15L69 14L68 14L68 12L66 12L66 10L68 10L68 11L69 11L69 8L67 8L67 9L66 9L66 10L64 10L64 9L65 9L65 8L61 8L61 10L62 10L62 9L63 9L63 10L64 10L64 11L62 11L62 13L61 13L61 14L60 14L60 13L59 13L59 14L58 14L58 12L61 12L61 11L60 11L60 7L61 7L61 6L60 6L60 7L59 7L59 4L58 4L58 3L59 3L59 2L58 2L58 1L61 1L61 0L54 0L54 1L55 1L55 2L54 2L54 3L53 3L53 2L52 2L52 0L50 0L50 1L49 1L49 2L48 2L48 0L46 0L46 1L47 1L47 2L48 2L48 3L47 3L47 4L46 4L46 2L45 2L45 4L44 4L44 2L42 2L42 5L41 5L41 6L40 6L40 5L39 5L39 4L40 4L40 3L41 3L41 0L38 0L38 1L37 1L37 3L38 3L38 7L37 7L37 4L36 4L36 3L35 3L35 2L36 2L36 0L35 0L35 2L34 2L34 3L35 3L35 4L32 4L32 7L31 7L31 4L30 4L30 3L29 3L29 2L28 2L28 3L29 3L29 4L28 4L28 5L27 5L27 6L26 6L26 10L25 10L25 5L26 5L26 2L27 2L27 1L29 1L29 0L27 0L27 1L26 1L26 0L24 0L24 1L23 1L23 0L22 0L22 2L20 2L20 1L21 1L21 0L18 0L18 1L19 1L19 4L18 4L18 2L17 2L17 1L16 1L16 0L13 0L13 1L11 1L11 0ZM30 0L30 1L31 1L31 0ZM32 0L32 2L33 2L33 1L34 1L34 0ZM42 0L42 1L44 1L44 0ZM14 1L14 3L15 3L15 2L16 2L16 6L15 6L15 5L14 5L14 4L12 4L12 5L14 5L14 6L13 6L13 7L12 7L12 6L11 6L11 5L10 5L10 6L9 6L9 11L11 11L11 12L12 12L12 14L11 14L11 15L10 15L10 14L9 14L9 13L10 13L10 12L8 12L8 13L6 13L6 14L7 14L7 15L5 15L5 14L4 14L4 15L5 15L5 16L4 16L4 17L5 17L5 16L8 16L8 17L6 17L6 18L8 18L8 17L9 17L9 19L11 19L11 18L10 18L10 17L13 17L13 14L14 14L14 16L15 16L15 17L16 17L16 19L17 19L17 20L16 20L16 21L15 21L15 20L13 20L13 19L15 19L15 18L13 18L13 19L12 19L12 20L11 20L11 21L10 21L10 23L11 23L11 24L10 24L10 25L9 25L9 28L7 28L7 27L8 27L8 26L7 26L7 25L6 25L6 26L7 26L7 27L5 27L5 26L4 26L4 25L5 25L5 24L4 24L4 23L3 23L3 24L1 24L1 25L2 25L2 26L3 26L3 28L2 28L2 29L1 29L1 30L3 30L3 32L2 32L2 31L1 31L1 32L2 32L2 33L3 33L3 32L5 32L5 31L6 31L6 32L7 32L7 31L8 31L8 32L10 32L10 33L11 33L11 32L12 32L12 33L13 33L13 34L14 34L14 36L16 36L16 38L15 38L15 37L14 37L14 38L12 38L12 36L13 36L13 35L12 35L12 34L11 34L11 35L10 35L10 34L9 34L9 35L10 35L10 36L9 36L9 37L6 37L6 38L7 38L7 39L5 39L5 40L3 40L3 43L4 43L4 45L5 45L5 44L9 44L9 45L6 45L6 46L5 46L5 47L6 47L6 48L4 48L4 49L3 49L3 48L2 48L2 49L3 49L3 51L5 51L5 52L8 52L8 53L9 53L9 54L10 54L10 55L11 55L11 57L12 57L12 58L11 58L11 59L12 59L12 58L13 58L13 57L14 57L14 56L17 56L17 57L18 57L18 58L19 58L19 57L18 57L18 56L20 56L20 54L21 54L21 53L22 53L22 51L21 51L21 50L20 50L20 51L21 51L21 53L20 53L20 52L19 52L19 53L20 53L20 54L19 54L19 55L18 55L18 56L17 56L17 55L16 55L16 54L18 54L18 52L17 52L17 51L18 51L18 50L19 50L19 48L21 48L21 49L22 49L22 50L23 50L23 49L22 49L22 48L24 48L24 52L23 52L23 53L24 53L24 52L25 52L25 50L27 50L27 52L28 52L28 54L27 54L27 55L26 55L26 56L28 56L28 58L26 58L26 59L30 59L30 60L32 60L32 59L31 59L31 58L32 58L32 57L31 57L31 58L30 58L30 56L31 56L31 54L30 54L30 52L32 52L32 51L33 51L33 53L34 53L34 54L33 54L33 55L32 55L32 56L33 56L33 58L34 58L34 59L33 59L33 60L34 60L34 59L35 59L35 58L34 58L34 56L33 56L33 55L34 55L34 54L35 54L35 53L36 53L36 54L37 54L37 53L36 53L36 52L38 52L38 54L40 54L40 52L41 52L41 51L40 51L40 47L41 47L41 46L40 46L40 47L39 47L39 45L38 45L38 44L39 44L39 43L41 43L41 45L42 45L42 46L43 46L43 47L44 47L44 48L43 48L43 49L42 49L42 50L43 50L43 53L42 53L42 54L41 54L41 55L42 55L42 56L43 56L43 55L44 55L44 54L43 54L43 53L44 53L44 52L45 52L45 51L46 51L46 50L48 50L48 51L47 51L47 53L46 53L46 54L47 54L47 55L45 55L45 57L46 57L46 58L47 58L47 57L48 57L48 58L49 58L49 59L46 59L46 60L45 60L45 58L44 58L44 57L42 57L42 58L43 58L43 60L41 60L41 61L40 61L40 59L41 59L41 58L40 58L40 55L38 55L38 56L37 56L37 55L36 55L36 56L37 56L37 57L36 57L36 60L38 60L38 63L40 63L40 64L41 64L41 65L42 65L42 67L41 67L41 66L40 66L40 67L41 67L41 68L42 68L42 67L43 67L43 65L44 65L44 62L43 62L43 61L44 61L44 60L45 60L45 61L46 61L46 60L47 60L47 61L48 61L48 60L49 60L49 59L50 59L50 60L51 60L51 59L50 59L50 58L53 58L53 59L56 59L56 60L54 60L54 62L53 62L53 63L54 63L54 62L55 62L55 61L56 61L56 62L57 62L57 63L60 63L60 61L59 61L59 60L60 60L60 59L62 59L62 58L63 58L63 59L64 59L64 60L65 60L65 61L66 61L66 60L68 60L68 57L67 57L67 58L65 58L65 57L64 57L64 54L63 54L63 55L62 55L62 53L63 53L63 52L65 52L65 51L64 51L64 50L63 50L63 49L62 49L62 48L65 48L65 47L64 47L64 46L63 46L63 47L62 47L62 48L60 48L60 47L59 47L59 45L58 45L58 47L57 47L57 45L56 45L56 42L57 42L57 43L58 43L58 44L60 44L60 45L61 45L61 44L60 44L60 43L62 43L62 42L61 42L61 41L59 41L59 40L60 40L60 38L61 38L61 37L60 37L60 38L59 38L59 37L58 37L58 38L57 38L57 37L56 37L56 36L58 36L58 35L59 35L59 36L60 36L60 35L59 35L59 33L60 33L60 32L62 32L62 30L64 30L64 31L65 31L65 30L66 30L66 29L67 29L67 28L68 28L68 25L67 25L67 27L66 27L66 24L67 24L67 23L68 23L68 22L67 22L67 21L68 21L68 20L67 20L67 19L68 19L68 18L67 18L67 17L65 17L65 19L64 19L64 16L65 16L65 15L66 15L66 16L67 16L67 15L68 15L68 14L67 14L67 15L66 15L66 13L65 13L65 15L63 15L63 14L64 14L64 12L65 12L65 11L64 11L64 12L63 12L63 13L62 13L62 15L61 15L61 17L60 17L60 14L59 14L59 17L58 17L58 15L57 15L57 17L56 17L56 15L55 15L55 13L54 13L54 15L53 15L53 14L52 14L52 11L53 11L53 12L54 12L54 11L53 11L53 10L52 10L52 5L54 5L54 6L53 6L53 8L55 8L55 7L56 7L56 6L57 6L57 9L56 9L56 10L55 10L55 9L54 9L54 10L55 10L55 11L56 11L56 10L57 10L57 12L58 12L58 11L59 11L59 7L58 7L58 5L56 5L56 4L57 4L57 1L56 1L56 4L55 4L55 3L54 3L54 4L53 4L53 3L52 3L52 5L51 5L51 8L50 8L50 6L49 6L49 7L48 7L48 6L47 6L47 7L46 7L46 6L45 6L45 7L44 7L44 6L43 6L43 5L44 5L44 4L43 4L43 5L42 5L42 6L41 6L41 12L42 12L42 15L41 15L41 13L40 13L40 11L38 11L38 10L39 10L39 9L40 9L40 6L39 6L39 9L38 9L38 10L37 10L37 9L35 9L35 11L34 11L34 12L33 12L33 11L32 11L32 12L31 12L31 10L32 10L32 9L31 9L31 10L30 10L30 8L28 8L28 6L29 6L29 7L30 7L30 6L29 6L29 5L28 5L28 6L27 6L27 9L28 9L28 10L29 10L29 11L28 11L28 12L27 12L27 10L26 10L26 12L27 12L27 13L28 13L28 14L27 14L27 15L26 15L26 14L25 14L25 12L24 12L24 15L23 15L23 13L22 13L22 12L20 12L20 11L21 11L21 9L20 9L20 11L19 11L19 13L18 13L18 11L16 11L16 12L15 12L15 13L16 13L16 14L14 14L14 13L13 13L13 9L12 9L12 8L13 8L13 7L14 7L14 6L15 6L15 8L14 8L14 9L16 9L16 10L17 10L17 9L18 9L18 10L19 10L19 9L18 9L18 6L17 6L17 2L16 2L16 1ZM24 1L24 3L25 3L25 2L26 2L26 1ZM38 1L38 3L40 3L40 1ZM50 1L50 3L48 3L48 5L50 5L50 4L51 4L51 1ZM22 3L22 5L20 5L20 6L19 6L19 8L20 8L20 6L21 6L21 7L22 7L22 8L23 8L23 7L24 7L24 5L23 5L23 3ZM60 3L60 5L61 5L61 3ZM54 4L54 5L55 5L55 6L54 6L54 7L55 7L55 6L56 6L56 5L55 5L55 4ZM33 5L33 8L36 8L36 5ZM10 6L10 9L11 9L11 11L12 11L12 9L11 9L11 6ZM16 6L16 7L17 7L17 6ZM22 6L22 7L23 7L23 6ZM34 6L34 7L35 7L35 6ZM42 6L42 9L43 9L43 8L44 8L44 10L43 10L43 11L42 11L42 12L44 12L44 13L43 13L43 15L42 15L42 16L41 16L41 15L40 15L40 13L39 13L39 15L38 15L38 11L37 11L37 10L36 10L36 11L37 11L37 13L35 13L35 12L34 12L34 13L35 13L35 14L36 14L36 15L38 15L38 16L34 16L34 15L33 15L33 12L32 12L32 15L31 15L31 16L30 16L30 14L29 14L29 15L28 15L28 16L26 16L26 15L24 15L24 16L23 16L23 15L22 15L22 14L20 14L20 15L18 15L18 16L19 16L19 18L18 18L18 21L16 21L16 22L15 22L15 23L14 23L14 24L12 24L12 28L11 28L11 29L10 29L10 28L9 28L9 29L10 29L10 30L9 30L9 31L10 31L10 32L11 32L11 31L10 31L10 30L11 30L11 29L13 29L13 31L12 31L12 32L14 32L14 34L15 34L15 35L16 35L16 36L18 36L18 37L17 37L17 38L16 38L16 39L17 39L17 38L18 38L18 41L17 41L17 40L16 40L16 41L17 41L17 42L16 42L16 43L18 43L18 46L19 46L19 47L18 47L18 48L19 48L19 47L22 47L22 46L20 46L20 45L21 45L21 42L22 42L22 45L23 45L23 46L24 46L24 45L25 45L25 44L26 44L26 47L27 47L27 46L28 46L28 47L31 47L31 48L30 48L30 49L32 49L32 50L31 50L31 51L32 51L32 50L33 50L33 51L35 51L35 52L34 52L34 53L35 53L35 52L36 52L36 49L37 49L37 51L38 51L38 52L39 52L39 51L38 51L38 49L39 49L39 47L37 47L37 48L36 48L36 46L38 46L38 45L37 45L37 44L36 44L36 43L37 43L37 42L38 42L38 43L39 43L39 42L41 42L41 43L42 43L42 45L43 45L43 46L44 46L44 45L45 45L45 46L46 46L46 48L44 48L44 50L46 50L46 48L48 48L48 49L51 49L51 51L50 51L50 52L49 52L49 51L48 51L48 54L49 54L49 55L51 55L51 57L53 57L53 56L54 56L54 55L51 55L51 54L50 54L50 52L51 52L51 53L52 53L52 54L53 54L53 52L54 52L54 53L56 53L56 54L55 54L55 56L56 56L56 57L55 57L55 58L56 58L56 59L57 59L57 58L58 58L58 59L60 59L60 58L62 58L62 57L63 57L63 58L64 58L64 57L63 57L63 56L62 56L62 55L61 55L61 53L62 53L62 52L63 52L63 50L62 50L62 49L60 49L60 48L59 48L59 47L58 47L58 48L59 48L59 49L60 49L60 50L61 50L61 51L60 51L60 52L59 52L59 54L58 54L58 51L59 51L59 50L58 50L58 49L57 49L57 48L56 48L56 45L55 45L55 44L54 44L54 41L55 41L55 40L56 40L56 41L57 41L57 42L58 42L58 40L59 40L59 38L58 38L58 40L56 40L56 39L57 39L57 38L56 38L56 37L55 37L55 36L56 36L56 35L58 35L58 32L60 32L60 31L61 31L61 30L62 30L62 28L64 28L64 29L65 29L65 28L66 28L66 27L65 27L65 24L66 24L66 23L67 23L67 22L66 22L66 21L67 21L67 20L66 20L66 19L65 19L65 20L64 20L64 19L63 19L63 20L64 20L64 21L63 21L63 22L62 22L62 21L61 21L61 20L62 20L62 17L63 17L63 15L62 15L62 17L61 17L61 20L60 20L60 21L59 21L59 22L58 22L58 20L59 20L59 18L60 18L60 17L59 17L59 18L58 18L58 17L57 17L57 18L56 18L56 19L54 19L54 20L53 20L53 15L52 15L52 14L51 14L51 17L52 17L52 22L53 22L53 24L52 24L52 25L51 25L51 27L52 27L52 30L50 30L50 28L49 28L49 26L50 26L50 24L49 24L49 23L51 23L51 22L50 22L50 20L48 20L48 22L49 22L49 23L47 23L47 22L46 22L46 20L44 20L44 21L45 21L45 22L46 22L46 23L47 23L47 26L46 26L46 25L45 25L45 23L44 23L44 26L45 26L45 27L44 27L44 29L45 29L45 30L44 30L44 34L43 34L43 35L42 35L42 31L41 31L41 30L42 30L42 29L41 29L41 28L40 28L40 25L41 25L41 27L42 27L42 24L41 24L41 22L42 22L42 23L43 23L43 22L42 22L42 20L41 20L41 18L42 18L42 19L44 19L44 18L42 18L42 17L43 17L43 15L44 15L44 17L45 17L45 19L49 19L49 18L50 18L50 19L51 19L51 18L50 18L50 16L48 16L48 18L46 18L46 15L47 15L47 14L48 14L48 15L49 15L49 14L48 14L48 13L49 13L49 12L50 12L50 13L51 13L51 10L50 10L50 8L48 8L48 7L47 7L47 8L44 8L44 7L43 7L43 6ZM16 8L16 9L17 9L17 8ZM47 8L47 9L46 9L46 10L44 10L44 11L46 11L46 12L45 12L45 13L46 13L46 14L44 14L44 15L46 15L46 14L47 14L47 13L48 13L48 12L49 12L49 9L48 9L48 8ZM22 9L22 10L23 10L23 9ZM33 9L33 10L34 10L34 9ZM47 9L47 10L46 10L46 11L47 11L47 12L48 12L48 9ZM4 10L4 11L5 11L5 12L7 12L7 11L6 11L6 10ZM14 10L14 11L15 11L15 10ZM24 10L24 11L25 11L25 10ZM1 11L1 13L4 13L4 12L3 12L3 11ZM29 11L29 12L28 12L28 13L29 13L29 12L30 12L30 13L31 13L31 12L30 12L30 11ZM56 13L56 14L57 14L57 13ZM8 15L8 16L10 16L10 15ZM11 15L11 16L12 16L12 15ZM21 15L21 18L20 18L20 19L21 19L21 18L22 18L22 19L23 19L23 20L24 20L24 19L23 19L23 18L22 18L22 15ZM32 15L32 16L33 16L33 15ZM16 16L16 17L17 17L17 16ZM29 16L29 17L28 17L28 18L26 18L26 19L25 19L25 21L24 21L24 22L23 22L23 21L22 21L22 20L21 20L21 21L20 21L20 20L19 20L19 21L18 21L18 22L17 22L17 23L15 23L15 24L17 24L17 25L18 25L18 26L16 26L16 27L18 27L18 28L17 28L17 29L16 29L16 28L14 28L14 31L15 31L15 33L16 33L16 35L17 35L17 33L16 33L16 31L17 31L17 29L18 29L18 28L22 28L22 27L23 27L23 28L24 28L24 31L25 31L25 30L27 30L27 29L26 29L26 26L27 26L27 28L28 28L28 30L29 30L29 31L28 31L28 32L27 32L27 33L26 33L26 32L24 32L24 35L23 35L23 34L22 34L22 32L23 32L23 30L21 30L21 29L20 29L20 30L19 30L19 31L18 31L18 32L19 32L19 33L18 33L18 36L19 36L19 37L18 37L18 38L19 38L19 41L18 41L18 43L19 43L19 41L20 41L20 42L21 42L21 40L20 40L20 38L21 38L21 35L22 35L22 36L24 36L24 35L25 35L25 37L24 37L24 39L22 39L22 40L25 40L25 39L26 39L26 38L27 38L27 37L28 37L28 38L30 38L30 40L28 40L28 39L27 39L27 40L28 40L28 43L27 43L27 42L26 42L26 44L28 44L28 46L31 46L31 45L30 45L30 40L32 40L32 41L31 41L31 42L32 42L32 43L31 43L31 44L32 44L32 43L33 43L33 45L34 45L34 47L35 47L35 46L36 46L36 45L34 45L34 42L32 42L32 41L34 41L34 40L35 40L35 38L37 38L37 39L36 39L36 42L35 42L35 43L36 43L36 42L37 42L37 40L38 40L38 42L39 42L39 41L40 41L40 38L41 38L41 37L40 37L40 36L42 36L42 35L40 35L40 34L41 34L41 33L40 33L40 32L41 32L41 31L40 31L40 32L39 32L39 31L38 31L38 30L39 30L39 29L40 29L40 28L39 28L39 29L38 29L38 28L37 28L37 27L39 27L39 25L40 25L40 20L38 20L38 18L39 18L39 19L40 19L40 18L41 18L41 17L40 17L40 16L38 16L38 18L37 18L37 17L36 17L36 18L35 18L35 19L34 19L34 18L33 18L33 17L30 17L30 16ZM24 17L24 18L25 18L25 17ZM39 17L39 18L40 18L40 17ZM29 18L29 20L30 20L30 21L29 21L29 22L28 22L28 21L27 21L27 19L26 19L26 22L25 22L25 23L26 23L26 25L25 25L25 24L24 24L24 23L22 23L22 24L24 24L24 25L25 25L25 26L24 26L24 27L25 27L25 26L26 26L26 25L27 25L27 22L28 22L28 24L30 24L30 25L31 25L31 26L30 26L30 27L28 27L28 28L30 28L30 29L29 29L29 30L30 30L30 29L31 29L31 28L32 28L32 22L33 22L33 24L34 24L34 25L33 25L33 26L34 26L34 25L37 25L37 22L38 22L38 21L37 21L37 22L36 22L36 20L37 20L37 18L36 18L36 20L35 20L35 21L33 21L33 20L32 20L32 19L33 19L33 18L31 18L31 20L30 20L30 18ZM56 19L56 20L54 20L54 22L55 22L55 23L56 23L56 24L54 24L54 27L53 27L53 25L52 25L52 27L53 27L53 29L54 29L54 30L52 30L52 32L51 32L51 31L50 31L50 32L49 32L49 31L48 31L48 30L49 30L49 29L48 29L48 30L47 30L47 29L46 29L46 27L45 27L45 29L46 29L46 32L45 32L45 33L46 33L46 34L44 34L44 35L43 35L43 37L42 37L42 39L41 39L41 41L42 41L42 42L43 42L43 43L44 43L44 44L43 44L43 45L44 45L44 44L45 44L45 43L47 43L47 42L48 42L48 44L47 44L47 45L46 45L46 46L47 46L47 47L48 47L48 46L49 46L49 48L50 48L50 47L51 47L51 46L53 46L53 45L54 45L54 47L53 47L53 48L55 48L55 49L54 49L54 50L53 50L53 49L52 49L52 48L51 48L51 49L52 49L52 50L53 50L53 51L54 51L54 52L55 52L55 51L54 51L54 50L56 50L56 51L57 51L57 49L56 49L56 48L55 48L55 45L54 45L54 44L53 44L53 41L54 41L54 40L53 40L53 41L52 41L52 39L51 39L51 38L52 38L52 36L53 36L53 35L54 35L54 36L55 36L55 35L56 35L56 32L57 32L57 30L56 30L56 28L57 28L57 27L58 27L58 26L59 26L59 25L58 25L58 26L57 26L57 27L56 27L56 24L59 24L59 23L62 23L62 24L63 24L63 25L62 25L62 27L61 27L61 25L60 25L60 28L62 28L62 27L63 27L63 25L64 25L64 24L65 24L65 23L64 23L64 24L63 24L63 23L62 23L62 22L61 22L61 21L60 21L60 22L59 22L59 23L56 23L56 22L57 22L57 21L56 21L56 20L57 20L57 19ZM65 20L65 21L64 21L64 22L65 22L65 21L66 21L66 20ZM6 21L6 22L8 22L8 23L9 23L9 21ZM12 21L12 22L13 22L13 21ZM19 21L19 22L18 22L18 23L20 23L20 21ZM31 21L31 22L30 22L30 24L31 24L31 22L32 22L32 21ZM34 22L34 24L35 24L35 23L36 23L36 22ZM3 24L3 25L4 25L4 24ZM18 24L18 25L19 25L19 27L22 27L22 26L20 26L20 25L19 25L19 24ZM38 24L38 25L39 25L39 24ZM10 25L10 26L11 26L11 25ZM13 25L13 26L14 26L14 27L15 27L15 26L14 26L14 25ZM36 26L36 27L35 27L35 28L34 28L34 27L33 27L33 29L34 29L34 30L32 30L32 31L31 31L31 32L29 32L29 34L28 34L28 35L27 35L27 34L26 34L26 35L27 35L27 36L26 36L26 37L27 37L27 36L28 36L28 37L29 37L29 36L30 36L30 37L32 37L32 38L31 38L31 39L32 39L32 40L34 40L34 38L35 38L35 37L37 37L37 38L38 38L38 39L39 39L39 38L40 38L40 37L39 37L39 35L38 35L38 31L37 31L37 30L38 30L38 29L36 29L36 27L37 27L37 26ZM54 27L54 28L55 28L55 27ZM64 27L64 28L65 28L65 27ZM4 28L4 29L5 29L5 30L6 30L6 31L7 31L7 30L6 30L6 29L7 29L7 28L6 28L6 29L5 29L5 28ZM58 28L58 30L59 30L59 28ZM15 29L15 31L16 31L16 29ZM60 29L60 30L61 30L61 29ZM34 30L34 31L32 31L32 32L35 32L35 30ZM54 30L54 33L53 33L53 32L52 32L52 34L51 34L51 35L50 35L50 33L49 33L49 32L48 32L48 31L47 31L47 32L48 32L48 33L49 33L49 35L48 35L48 34L46 34L46 36L45 36L45 35L44 35L44 38L45 38L45 39L46 39L46 41L45 41L45 40L44 40L44 41L43 41L43 40L42 40L42 41L43 41L43 42L44 42L44 43L45 43L45 42L46 42L46 41L47 41L47 39L46 39L46 36L47 36L47 35L48 35L48 37L49 37L49 38L48 38L48 41L49 41L49 44L48 44L48 45L49 45L49 44L50 44L50 45L51 45L51 44L52 44L52 45L53 45L53 44L52 44L52 41L51 41L51 40L50 40L50 41L49 41L49 39L50 39L50 36L51 36L51 35L52 35L52 34L54 34L54 35L55 35L55 34L54 34L54 33L55 33L55 32L56 32L56 30ZM20 31L20 33L21 33L21 31ZM67 32L67 33L68 33L68 35L69 35L69 33L68 33L68 32ZM5 33L5 36L8 36L8 33ZM33 33L33 36L36 36L36 33ZM61 33L61 36L64 36L64 33ZM6 34L6 35L7 35L7 34ZM20 34L20 35L21 35L21 34ZM31 34L31 35L32 35L32 34ZM34 34L34 35L35 35L35 34ZM62 34L62 35L63 35L63 34ZM65 34L65 35L66 35L66 34ZM28 35L28 36L29 36L29 35ZM37 35L37 36L38 36L38 35ZM10 36L10 37L11 37L11 36ZM65 36L65 37L66 37L66 36ZM0 37L0 38L1 38L1 39L2 39L2 38L1 38L1 37ZM38 37L38 38L39 38L39 37ZM54 37L54 38L55 38L55 37ZM9 38L9 39L7 39L7 40L5 40L5 42L4 42L4 43L9 43L9 42L10 42L10 41L9 41L9 40L10 40L10 39L11 39L11 38ZM12 39L12 40L11 40L11 41L13 41L13 42L14 42L14 44L15 44L15 42L14 42L14 41L15 41L15 39ZM7 40L7 41L6 41L6 42L7 42L7 41L8 41L8 40ZM22 41L22 42L23 42L23 41ZM44 41L44 42L45 42L45 41ZM50 41L50 43L51 43L51 41ZM11 42L11 43L10 43L10 45L9 45L9 49L10 49L10 50L9 50L9 53L10 53L10 51L11 51L11 48L12 48L12 51L13 51L13 49L14 49L14 50L15 50L15 52L16 52L16 51L17 51L17 50L16 50L16 49L17 49L17 47L16 47L16 45L15 45L15 46L13 46L13 44L12 44L12 42ZM24 42L24 43L25 43L25 42ZM0 43L0 44L1 44L1 43ZM66 43L66 44L67 44L67 43ZM11 45L11 47L12 47L12 48L14 48L14 49L16 49L16 48L14 48L14 47L13 47L13 46L12 46L12 45ZM6 46L6 47L7 47L7 48L6 48L6 49L4 49L4 50L5 50L5 51L7 51L7 50L8 50L8 49L7 49L7 48L8 48L8 46ZM32 46L32 47L33 47L33 46ZM25 48L25 49L28 49L28 48ZM35 48L35 49L36 49L36 48ZM37 48L37 49L38 49L38 48ZM6 49L6 50L7 50L7 49ZM28 50L28 51L29 51L29 52L30 52L30 50ZM11 52L11 53L12 53L12 52ZM13 52L13 53L14 53L14 54L13 54L13 56L12 56L12 57L13 57L13 56L14 56L14 54L15 54L15 53L14 53L14 52ZM60 52L60 53L61 53L61 52ZM6 53L6 54L7 54L7 55L4 55L4 58L5 58L5 57L6 57L6 58L7 58L7 57L8 57L8 56L7 56L7 55L8 55L8 54L7 54L7 53ZM11 54L11 55L12 55L12 54ZM28 54L28 55L29 55L29 56L30 56L30 54ZM56 54L56 56L57 56L57 57L58 57L58 58L60 58L60 57L59 57L59 56L60 56L60 55L58 55L58 54ZM47 55L47 56L48 56L48 57L49 57L49 58L50 58L50 57L49 57L49 56L48 56L48 55ZM57 55L57 56L58 56L58 55ZM66 55L66 56L67 56L67 55ZM6 56L6 57L7 57L7 56ZM9 56L9 58L10 58L10 56ZM38 56L38 57L37 57L37 58L38 58L38 60L39 60L39 59L40 59L40 58L38 58L38 57L39 57L39 56ZM61 56L61 57L62 57L62 56ZM2 57L2 58L3 58L3 57ZM16 58L16 59L17 59L17 58ZM65 59L65 60L66 60L66 59ZM3 60L3 61L5 61L5 60ZM56 60L56 61L57 61L57 60ZM16 61L16 62L14 62L14 63L15 63L15 65L16 65L16 66L17 66L17 65L16 65L16 64L17 64L17 63L16 63L16 62L17 62L17 61ZM33 61L33 64L36 64L36 61ZM41 61L41 62L40 62L40 63L41 63L41 62L42 62L42 65L43 65L43 62L42 62L42 61ZM50 61L50 62L51 62L51 63L50 63L50 67L51 67L51 65L52 65L52 61ZM61 61L61 64L64 64L64 61ZM30 62L30 63L31 63L31 62ZM34 62L34 63L35 63L35 62ZM62 62L62 63L63 63L63 62ZM10 64L10 65L12 65L12 64ZM13 64L13 65L14 65L14 64ZM23 64L23 65L22 65L22 66L21 66L21 67L22 67L22 66L23 66L23 65L24 65L24 64ZM58 64L58 66L59 66L59 67L60 67L60 66L61 66L61 67L62 67L62 68L63 68L63 67L62 67L62 65L59 65L59 64ZM68 64L68 65L69 65L69 64ZM32 65L32 67L33 67L33 68L35 68L35 67L33 67L33 65ZM65 65L65 67L64 67L64 68L65 68L65 67L66 67L66 65ZM18 68L18 69L19 69L19 68ZM52 68L52 69L55 69L55 68ZM68 68L68 69L69 69L69 68ZM0 0L0 7L7 7L7 0ZM1 1L1 6L6 6L6 1ZM2 2L2 5L5 5L5 2ZM62 0L62 7L69 7L69 0ZM63 1L63 6L68 6L68 1ZM64 2L64 5L67 5L67 2ZM0 62L0 69L7 69L7 62ZM1 63L1 68L6 68L6 63ZM2 64L2 67L5 67L5 64Z" fill="#000000"/></g></g></svg>
