<?xml version="1.0" encoding="UTF-8"?>
<svg xmlns="http://www.w3.org/2000/svg" version="1.1" width="300" height="300" viewBox="0 0 300 300"><rect x="0" y="0" width="300" height="300" fill="#ffffff"/><g transform="scale(4.348)"><g transform="translate(0,0)"><path fill-rule="evenodd" d="M8 0L8 4L9 4L9 1L11 1L11 4L10 4L10 5L12 5L12 7L11 7L11 6L10 6L10 7L9 7L9 5L8 5L8 7L9 7L9 8L10 8L10 9L11 9L11 11L10 11L10 10L9 10L9 11L8 11L8 10L6 10L6 9L7 9L7 8L4 8L4 11L3 11L3 9L2 9L2 8L0 8L0 10L1 10L1 11L0 11L0 13L1 13L1 12L2 12L2 11L3 11L3 12L4 12L4 11L5 11L5 12L6 12L6 13L7 13L7 12L6 12L6 11L8 11L8 16L6 16L6 15L7 15L7 14L5 14L5 16L4 16L4 13L3 13L3 14L2 14L2 15L3 15L3 16L2 16L2 17L0 17L0 21L1 21L1 22L0 22L0 23L1 23L1 22L2 22L2 23L3 23L3 25L5 25L5 27L4 27L4 26L3 26L3 27L4 27L4 28L3 28L3 29L2 29L2 28L1 28L1 27L2 27L2 24L0 24L0 26L1 26L1 27L0 27L0 34L4 34L4 39L2 39L2 38L3 38L3 37L2 37L2 36L3 36L3 35L1 35L1 37L2 37L2 38L1 38L1 39L0 39L0 40L1 40L1 41L0 41L0 43L2 43L2 40L5 40L5 38L6 38L6 39L8 39L8 40L6 40L6 41L4 41L4 42L6 42L6 43L5 43L5 45L7 45L7 46L6 46L6 47L5 47L5 46L4 46L4 47L3 47L3 46L2 46L2 45L4 45L4 43L3 43L3 44L2 44L2 45L1 45L1 48L0 48L0 49L2 49L2 51L0 51L0 52L2 52L2 53L1 53L1 54L2 54L2 55L5 55L5 57L7 57L7 58L4 58L4 57L3 57L3 56L1 56L1 55L0 55L0 56L1 56L1 57L0 57L0 61L1 61L1 57L2 57L2 59L3 59L3 58L4 58L4 59L7 59L7 60L6 60L6 61L7 61L7 60L8 60L8 62L10 62L10 63L11 63L11 59L13 59L13 60L12 60L12 63L14 63L14 65L13 65L13 64L10 64L10 65L9 65L9 63L8 63L8 65L9 65L9 67L8 67L8 69L10 69L10 68L11 68L11 69L13 69L13 67L14 67L14 69L19 69L19 68L18 68L18 67L20 67L20 66L21 66L21 67L22 67L22 64L21 64L21 63L23 63L23 61L24 61L24 62L25 62L25 63L24 63L24 64L25 64L25 63L26 63L26 64L27 64L27 62L28 62L28 64L29 64L29 65L23 65L23 69L25 69L25 68L26 68L26 69L28 69L28 68L26 68L26 67L24 67L24 66L27 66L27 67L28 67L28 66L29 66L29 65L31 65L31 67L30 67L30 68L29 68L29 69L31 69L31 67L33 67L33 66L34 66L34 65L37 65L37 61L38 61L38 63L39 63L39 64L38 64L38 66L37 66L37 67L39 67L39 66L40 66L40 63L41 63L41 67L40 67L40 68L38 68L38 69L40 69L40 68L41 68L41 67L43 67L43 63L42 63L42 62L43 62L43 61L42 61L42 58L45 58L45 59L44 59L44 61L45 61L45 62L46 62L46 64L47 64L47 66L48 66L48 65L50 65L50 67L51 67L51 69L52 69L52 68L56 68L56 69L57 69L57 68L58 68L58 69L59 69L59 66L58 66L58 65L57 65L57 63L54 63L54 62L57 62L57 61L58 61L58 60L59 60L59 59L60 59L60 61L59 61L59 62L60 62L60 63L58 63L58 64L60 64L60 66L61 66L61 65L62 65L62 66L63 66L63 68L64 68L64 69L67 69L67 68L64 68L64 67L65 67L65 63L66 63L66 62L67 62L67 60L65 60L65 59L64 59L64 60L62 60L62 58L61 58L61 59L60 59L60 57L63 57L63 58L64 58L64 55L66 55L66 54L64 54L64 53L63 53L63 54L64 54L64 55L60 55L60 54L62 54L62 52L65 52L65 53L66 53L66 52L65 52L65 51L66 51L66 50L65 50L65 51L64 51L64 50L63 50L63 51L61 51L61 50L60 50L60 49L61 49L61 48L62 48L62 49L65 49L65 47L66 47L66 46L67 46L67 49L69 49L69 48L68 48L68 46L69 46L69 45L68 45L68 46L67 46L67 44L66 44L66 46L64 46L64 45L65 45L65 43L67 43L67 42L65 42L65 43L64 43L64 41L65 41L65 40L64 40L64 39L66 39L66 38L67 38L67 39L68 39L68 38L69 38L69 35L68 35L68 33L69 33L69 31L68 31L68 30L69 30L69 27L68 27L68 26L69 26L69 25L67 25L67 24L68 24L68 22L69 22L69 20L68 20L68 18L67 18L67 17L68 17L68 16L69 16L69 15L68 15L68 14L69 14L69 11L68 11L68 10L69 10L69 8L65 8L65 9L64 9L64 8L63 8L63 9L62 9L62 10L64 10L64 12L63 12L63 11L62 11L62 12L61 12L61 13L59 13L59 14L58 14L58 12L57 12L57 11L56 11L56 9L57 9L57 10L58 10L58 11L59 11L59 12L60 12L60 11L61 11L61 6L60 6L60 8L59 8L59 4L58 4L58 8L57 8L57 5L56 5L56 3L59 3L59 2L56 2L56 3L55 3L55 0L53 0L53 2L52 2L52 1L51 1L51 0L50 0L50 1L49 1L49 0L48 0L48 1L49 1L49 2L48 2L48 3L47 3L47 1L46 1L46 0L45 0L45 1L44 1L44 0L41 0L41 1L40 1L40 0L36 0L36 1L34 1L34 3L33 3L33 0L32 0L32 1L31 1L31 0L22 0L22 2L21 2L21 0L17 0L17 1L16 1L16 0ZM56 0L56 1L61 1L61 0ZM13 1L13 2L12 2L12 4L15 4L15 3L16 3L16 5L15 5L15 7L14 7L14 5L13 5L13 9L14 9L14 10L13 10L13 11L14 11L14 10L15 10L15 11L16 11L16 13L14 13L14 12L11 12L11 13L13 13L13 14L12 14L12 15L11 15L11 14L10 14L10 13L9 13L9 16L8 16L8 18L7 18L7 17L6 17L6 16L5 16L5 17L6 17L6 18L4 18L4 16L3 16L3 17L2 17L2 18L1 18L1 19L2 19L2 22L3 22L3 19L2 19L2 18L4 18L4 23L6 23L6 24L5 24L5 25L6 25L6 26L7 26L7 27L6 27L6 28L4 28L4 29L3 29L3 30L4 30L4 31L5 31L5 32L9 32L9 31L10 31L10 32L11 32L11 33L13 33L13 34L14 34L14 35L13 35L13 36L14 36L14 37L15 37L15 36L16 36L16 38L13 38L13 37L12 37L12 38L11 38L11 40L10 40L10 42L9 42L9 41L8 41L8 42L9 42L9 44L10 44L10 45L11 45L11 43L12 43L12 44L13 44L13 45L12 45L12 46L8 46L8 48L7 48L7 47L6 47L6 48L5 48L5 49L6 49L6 50L5 50L5 52L9 52L9 54L8 54L8 55L6 55L6 56L9 56L9 58L8 58L8 60L9 60L9 61L10 61L10 57L12 57L12 56L13 56L13 57L14 57L14 56L15 56L15 57L17 57L17 56L18 56L18 55L19 55L19 60L20 60L20 61L17 61L17 59L18 59L18 58L16 58L16 59L15 59L15 58L14 58L14 59L15 59L15 61L14 61L14 60L13 60L13 61L14 61L14 62L15 62L15 63L16 63L16 67L15 67L15 68L16 68L16 67L18 67L18 66L17 66L17 65L18 65L18 64L19 64L19 65L20 65L20 64L19 64L19 63L20 63L20 61L21 61L21 62L22 62L22 61L23 61L23 59L24 59L24 61L26 61L26 59L27 59L27 61L28 61L28 62L29 62L29 60L31 60L31 59L32 59L32 60L34 60L34 59L33 59L33 57L32 57L32 56L33 56L33 53L34 53L34 58L35 58L35 57L36 57L36 56L37 56L37 58L36 58L36 59L35 59L35 60L38 60L38 61L39 61L39 63L40 63L40 62L41 62L41 60L39 60L39 58L40 58L40 59L41 59L41 58L40 58L40 57L41 57L41 56L42 56L42 57L44 57L44 54L45 54L45 53L46 53L46 54L47 54L47 56L49 56L49 54L50 54L50 56L52 56L52 58L50 58L50 57L49 57L49 58L47 58L47 57L46 57L46 58L47 58L47 59L51 59L51 60L52 60L52 61L51 61L51 62L50 62L50 60L49 60L49 64L50 64L50 63L51 63L51 62L52 62L52 63L53 63L53 64L52 64L52 66L51 66L51 67L52 67L52 66L53 66L53 64L54 64L54 65L56 65L56 66L54 66L54 67L57 67L57 65L56 65L56 64L54 64L54 63L53 63L53 62L52 62L52 61L54 61L54 60L53 60L53 59L52 59L52 58L53 58L53 57L54 57L54 56L53 56L53 55L54 55L54 54L52 54L52 53L53 53L53 52L52 52L52 53L51 53L51 54L50 54L50 52L51 52L51 51L53 51L53 50L52 50L52 49L54 49L54 48L55 48L55 49L56 49L56 50L54 50L54 52L55 52L55 53L56 53L56 52L57 52L57 55L56 55L56 54L55 54L55 55L56 55L56 56L55 56L55 58L54 58L54 59L55 59L55 61L56 61L56 60L58 60L58 59L59 59L59 57L60 57L60 56L59 56L59 57L58 57L58 59L57 59L57 57L56 57L56 56L57 56L57 55L59 55L59 54L60 54L60 53L61 53L61 52L60 52L60 50L59 50L59 49L60 49L60 47L61 47L61 46L62 46L62 48L64 48L64 47L63 47L63 45L64 45L64 43L63 43L63 42L61 42L61 41L64 41L64 40L63 40L63 39L64 39L64 38L65 38L65 37L62 37L62 39L61 39L61 40L59 40L59 38L60 38L60 36L58 36L58 35L57 35L57 33L56 33L56 34L55 34L55 35L54 35L54 32L55 32L55 30L56 30L56 28L58 28L58 30L59 30L59 29L61 29L61 32L62 32L62 29L61 29L61 28L60 28L60 27L62 27L62 28L63 28L63 27L64 27L64 29L63 29L63 30L64 30L64 29L65 29L65 30L67 30L67 28L68 28L68 27L64 27L64 26L66 26L66 25L65 25L65 24L67 24L67 22L66 22L66 23L65 23L65 21L66 21L66 20L67 20L67 21L68 21L68 20L67 20L67 18L66 18L66 19L65 19L65 20L64 20L64 17L66 17L66 16L68 16L68 15L67 15L67 14L68 14L68 11L67 11L67 10L66 10L66 11L65 11L65 12L64 12L64 13L63 13L63 12L62 12L62 13L61 13L61 14L60 14L60 15L58 15L58 16L57 16L57 15L54 15L54 14L52 14L52 13L53 13L53 12L54 12L54 13L56 13L56 14L57 14L57 13L56 13L56 11L55 11L55 10L53 10L53 9L56 9L56 5L55 5L55 8L52 8L52 10L53 10L53 12L52 12L52 11L51 11L51 12L52 12L52 13L51 13L51 14L50 14L50 12L49 12L49 15L48 15L48 16L49 16L49 17L50 17L50 16L52 16L52 17L51 17L51 20L52 20L52 22L51 22L51 23L50 23L50 21L46 21L46 22L47 22L47 25L46 25L46 26L47 26L47 27L50 27L50 28L49 28L49 29L48 29L48 30L47 30L47 28L46 28L46 27L43 27L43 26L41 26L41 25L42 25L42 24L43 24L43 25L44 25L44 24L45 24L45 23L44 23L44 20L46 20L46 19L48 19L48 20L49 20L49 18L48 18L48 17L47 17L47 12L46 12L46 10L47 10L47 8L49 8L49 10L50 10L50 8L51 8L51 7L52 7L52 3L51 3L51 1L50 1L50 2L49 2L49 3L48 3L48 4L49 4L49 5L50 5L50 6L49 6L49 7L48 7L48 5L47 5L47 4L46 4L46 5L44 5L44 4L45 4L45 3L46 3L46 1L45 1L45 3L44 3L44 2L42 2L42 1L41 1L41 3L42 3L42 4L43 4L43 5L44 5L44 6L43 6L43 8L41 8L41 7L42 7L42 6L41 6L41 4L40 4L40 3L39 3L39 2L40 2L40 1L37 1L37 2L35 2L35 3L34 3L34 4L37 4L37 3L38 3L38 4L40 4L40 5L39 5L39 7L40 7L40 9L43 9L43 11L45 11L45 12L46 12L46 16L45 16L45 19L44 19L44 18L41 18L41 17L42 17L42 16L40 16L40 19L39 19L39 18L38 18L38 16L39 16L39 15L42 15L42 13L43 13L43 12L42 12L42 10L41 10L41 14L40 14L40 13L39 13L39 12L36 12L36 13L37 13L37 14L35 14L35 13L34 13L34 11L36 11L36 9L32 9L32 8L30 8L30 9L29 9L29 8L28 8L28 6L29 6L29 7L30 7L30 6L31 6L31 7L32 7L32 6L31 6L31 5L32 5L32 4L33 4L33 3L29 3L29 2L31 2L31 1L29 1L29 2L28 2L28 1L27 1L27 2L26 2L26 1L23 1L23 3L24 3L24 2L25 2L25 3L26 3L26 5L22 5L22 3L21 3L21 2L20 2L20 1L17 1L17 2L18 2L18 3L16 3L16 2L15 2L15 1ZM13 2L13 3L14 3L14 2ZM19 3L19 4L18 4L18 8L14 8L14 9L16 9L16 10L17 10L17 13L18 13L18 15L17 15L17 16L16 16L16 14L14 14L14 15L12 15L12 17L13 17L13 19L12 19L12 20L13 20L13 19L14 19L14 20L15 20L15 22L13 22L13 21L11 21L11 18L10 18L10 19L7 19L7 18L6 18L6 19L7 19L7 20L6 20L6 21L5 21L5 22L6 22L6 23L7 23L7 24L6 24L6 25L7 25L7 26L8 26L8 27L7 27L7 28L6 28L6 29L5 29L5 30L6 30L6 31L8 31L8 30L10 30L10 29L7 29L7 28L8 28L8 27L9 27L9 28L10 28L10 27L11 27L11 24L12 24L12 30L11 30L11 31L12 31L12 32L14 32L14 30L15 30L15 31L16 31L16 33L15 33L15 35L14 35L14 36L15 36L15 35L16 35L16 33L17 33L17 42L16 42L16 43L15 43L15 42L13 42L13 44L14 44L14 43L15 43L15 46L16 46L16 47L17 47L17 49L18 49L18 50L16 50L16 49L15 49L15 50L14 50L14 51L16 51L16 52L17 52L17 53L19 53L19 52L20 52L20 54L19 54L19 55L20 55L20 59L23 59L23 58L21 58L21 57L24 57L24 58L25 58L25 56L22 56L22 55L20 55L20 54L21 54L21 53L22 53L22 54L23 54L23 53L24 53L24 55L25 55L25 54L26 54L26 53L27 53L27 54L28 54L28 55L27 55L27 56L26 56L26 58L27 58L27 59L28 59L28 55L30 55L30 54L32 54L32 53L31 53L31 50L30 50L30 49L32 49L32 52L33 52L33 51L34 51L34 52L35 52L35 55L36 55L36 54L37 54L37 53L38 53L38 52L39 52L39 54L40 54L40 55L39 55L39 57L38 57L38 58L39 58L39 57L40 57L40 55L41 55L41 53L40 53L40 52L43 52L43 51L44 51L44 53L42 53L42 55L43 55L43 54L44 54L44 53L45 53L45 50L46 50L46 51L47 51L47 50L46 50L46 49L45 49L45 48L47 48L47 47L48 47L48 50L49 50L49 52L46 52L46 53L48 53L48 54L49 54L49 52L50 52L50 51L51 51L51 48L50 48L50 47L52 47L52 44L54 44L54 43L56 43L56 45L53 45L53 47L54 47L54 46L55 46L55 47L57 47L57 46L58 46L58 48L59 48L59 47L60 47L60 46L58 46L58 45L57 45L57 43L56 43L56 41L57 41L57 42L58 42L58 44L59 44L59 43L60 43L60 45L61 45L61 44L63 44L63 43L60 43L60 42L58 42L58 41L59 41L59 40L58 40L58 37L57 37L57 35L56 35L56 38L55 38L55 37L54 37L54 36L53 36L53 34L52 34L52 32L53 32L53 30L55 30L55 29L53 29L53 30L52 30L52 28L51 28L51 29L50 29L50 30L51 30L51 31L52 31L52 32L49 32L49 31L47 31L47 30L46 30L46 29L45 29L45 28L44 28L44 29L43 29L43 28L42 28L42 27L40 27L40 24L41 24L41 23L43 23L43 21L41 21L41 22L40 22L40 24L39 24L39 23L38 23L38 24L37 24L37 23L35 23L35 22L37 22L37 21L38 21L38 20L39 20L39 21L40 21L40 20L39 20L39 19L35 19L35 18L36 18L36 17L37 17L37 15L38 15L38 14L39 14L39 13L38 13L38 14L37 14L37 15L36 15L36 16L35 16L35 14L34 14L34 15L33 15L33 12L32 12L32 13L31 13L31 11L32 11L32 9L30 9L30 11L29 11L29 12L28 12L28 9L27 9L27 8L26 8L26 9L25 9L25 6L24 6L24 7L23 7L23 6L22 6L22 8L24 8L24 9L23 9L23 11L24 11L24 12L25 12L25 13L23 13L23 14L21 14L21 13L22 13L22 12L21 12L21 11L22 11L22 9L20 9L20 8L19 8L19 4L20 4L20 7L21 7L21 3ZM27 3L27 5L26 5L26 7L27 7L27 5L28 5L28 4L29 4L29 3ZM43 3L43 4L44 4L44 3ZM50 3L50 5L51 5L51 3ZM53 3L53 4L55 4L55 3ZM60 3L60 5L61 5L61 3ZM16 5L16 7L17 7L17 5ZM29 5L29 6L30 6L30 5ZM33 5L33 8L36 8L36 5ZM37 5L37 7L38 7L38 5ZM34 6L34 7L35 7L35 6ZM40 6L40 7L41 7L41 6ZM44 6L44 7L45 7L45 8L44 8L44 9L45 9L45 10L46 10L46 9L45 9L45 8L47 8L47 6L46 6L46 7L45 7L45 6ZM50 6L50 7L49 7L49 8L50 8L50 7L51 7L51 6ZM53 6L53 7L54 7L54 6ZM10 7L10 8L11 8L11 9L12 9L12 8L11 8L11 7ZM58 8L58 10L59 10L59 8ZM1 9L1 10L2 10L2 9ZM19 9L19 11L20 11L20 9ZM24 9L24 10L25 10L25 9ZM37 9L37 11L38 11L38 9ZM5 10L5 11L6 11L6 10ZM26 10L26 12L27 12L27 13L25 13L25 15L26 15L26 16L27 16L27 15L28 15L28 14L29 14L29 16L28 16L28 17L27 17L27 19L28 19L28 18L30 18L30 19L29 19L29 20L28 20L28 22L27 22L27 23L28 23L28 24L27 24L27 25L28 25L28 26L26 26L26 24L25 24L25 26L24 26L24 25L21 25L21 26L20 26L20 25L19 25L19 27L21 27L21 26L22 26L22 28L21 28L21 29L23 29L23 27L24 27L24 29L25 29L25 30L26 30L26 28L25 28L25 27L28 27L28 28L27 28L27 29L28 29L28 31L29 31L29 32L26 32L26 31L25 31L25 32L24 32L24 31L22 31L22 30L20 30L20 28L19 28L19 30L18 30L18 29L17 29L17 27L18 27L18 25L17 25L17 23L18 23L18 24L19 24L19 22L20 22L20 23L22 23L22 24L23 24L23 20L25 20L25 22L26 22L26 17L25 17L25 18L24 18L24 19L23 19L23 17L24 17L24 16L23 16L23 15L22 15L22 17L19 17L19 16L18 16L18 17L16 17L16 16L15 16L15 15L14 15L14 16L13 16L13 17L15 17L15 18L16 18L16 21L17 21L17 18L18 18L18 19L20 19L20 18L22 18L22 19L21 19L21 20L22 20L22 21L21 21L21 22L20 22L20 20L19 20L19 21L18 21L18 22L15 22L15 23L16 23L16 24L15 24L15 25L17 25L17 26L16 26L16 27L15 27L15 28L13 28L13 29L15 29L15 28L16 28L16 30L18 30L18 31L17 31L17 33L18 33L18 32L19 32L19 33L20 33L20 31L22 31L22 33L21 33L21 34L20 34L20 35L19 35L19 34L18 34L18 35L19 35L19 36L20 36L20 37L19 37L19 40L20 40L20 41L19 41L19 42L17 42L17 43L18 43L18 44L19 44L19 42L20 42L20 44L21 44L21 43L22 43L22 45L21 45L21 46L20 46L20 45L19 45L19 47L20 47L20 48L21 48L21 49L19 49L19 48L18 48L18 49L19 49L19 50L18 50L18 51L20 51L20 50L21 50L21 51L22 51L22 50L21 50L21 49L24 49L24 48L25 48L25 47L26 47L26 48L28 48L28 49L27 49L27 50L26 50L26 49L25 49L25 50L24 50L24 51L23 51L23 52L22 52L22 53L23 53L23 52L24 52L24 53L26 53L26 51L28 51L28 50L29 50L29 52L30 52L30 50L29 50L29 48L30 48L30 47L29 47L29 44L28 44L28 43L30 43L30 41L31 41L31 40L32 40L32 42L31 42L31 44L32 44L32 45L33 45L33 44L32 44L32 42L33 42L33 43L34 43L34 42L35 42L35 44L34 44L34 46L33 46L33 47L32 47L32 46L31 46L31 48L32 48L32 49L33 49L33 47L34 47L34 50L35 50L35 49L36 49L36 51L35 51L35 52L36 52L36 53L37 53L37 50L38 50L38 51L39 51L39 52L40 52L40 51L41 51L41 49L42 49L42 45L41 45L41 46L40 46L40 45L39 45L39 44L37 44L37 43L38 43L38 40L39 40L39 38L38 38L38 39L37 39L37 37L38 37L38 36L40 36L40 37L43 37L43 38L42 38L42 39L43 39L43 42L39 42L39 43L41 43L41 44L43 44L43 47L44 47L44 48L43 48L43 49L44 49L44 50L45 50L45 49L44 49L44 48L45 48L45 47L46 47L46 46L47 46L47 45L46 45L46 43L47 43L47 44L48 44L48 43L49 43L49 44L50 44L50 45L49 45L49 47L50 47L50 45L51 45L51 44L52 44L52 43L51 43L51 42L53 42L53 41L54 41L54 40L52 40L52 41L51 41L51 42L50 42L50 41L47 41L47 39L48 39L48 40L50 40L50 39L52 39L52 38L53 38L53 39L55 39L55 41L56 41L56 40L57 40L57 41L58 41L58 40L57 40L57 39L55 39L55 38L53 38L53 36L52 36L52 35L51 35L51 34L50 34L50 33L46 33L46 34L45 34L45 33L44 33L44 30L43 30L43 31L40 31L40 33L44 33L44 34L43 34L43 36L42 36L42 35L41 35L41 34L38 34L38 33L39 33L39 32L38 32L38 33L37 33L37 37L36 37L36 39L35 39L35 37L32 37L32 38L31 38L31 40L30 40L30 41L28 41L28 40L29 40L29 39L30 39L30 37L29 37L29 34L31 34L31 33L29 33L29 32L31 32L31 31L32 31L32 32L36 32L36 31L38 31L38 29L40 29L40 30L42 30L42 28L40 28L40 27L39 27L39 26L38 26L38 25L37 25L37 26L36 26L36 27L35 27L35 26L34 26L34 25L36 25L36 24L34 24L34 22L35 22L35 21L37 21L37 20L34 20L34 19L32 19L32 18L34 18L34 17L35 17L35 16L34 16L34 17L32 17L32 16L33 16L33 15L32 15L32 16L31 16L31 14L29 14L29 13L28 13L28 12L27 12L27 10ZM33 10L33 11L34 11L34 10ZM39 10L39 11L40 11L40 10ZM54 11L54 12L55 12L55 11ZM65 12L65 13L67 13L67 12ZM19 13L19 15L20 15L20 16L21 16L21 14L20 14L20 13ZM27 13L27 14L28 14L28 13ZM44 13L44 14L43 14L43 17L44 17L44 15L45 15L45 13ZM62 13L62 14L63 14L63 13ZM0 14L0 15L1 15L1 14ZM51 14L51 15L52 15L52 16L53 16L53 17L52 17L52 19L53 19L53 20L55 20L55 19L56 19L56 18L57 18L57 19L58 19L58 21L57 21L57 20L56 20L56 22L55 22L55 21L53 21L53 22L52 22L52 23L51 23L51 24L49 24L49 23L48 23L48 25L47 25L47 26L49 26L49 25L50 25L50 27L52 27L52 23L54 23L54 22L55 22L55 24L53 24L53 28L55 28L55 27L56 27L56 25L57 25L57 27L60 27L60 26L61 26L61 25L62 25L62 27L63 27L63 25L64 25L64 24L65 24L65 23L63 23L63 25L62 25L62 23L58 23L58 25L57 25L57 24L56 24L56 22L58 22L58 21L59 21L59 22L61 22L61 21L59 21L59 19L60 19L60 20L61 20L61 19L60 19L60 18L61 18L61 15L60 15L60 16L59 16L59 19L58 19L58 17L57 17L57 16L56 16L56 18L55 18L55 17L54 17L54 16L53 16L53 15L52 15L52 14ZM62 15L62 19L63 19L63 17L64 17L64 16L65 16L65 15ZM29 16L29 17L30 17L30 18L31 18L31 16ZM18 17L18 18L19 18L19 17ZM53 18L53 19L54 19L54 18ZM22 19L22 20L23 20L23 19ZM30 19L30 20L29 20L29 22L28 22L28 23L30 23L30 21L32 21L32 23L31 23L31 24L30 24L30 25L29 25L29 26L32 26L32 23L33 23L33 21L34 21L34 20L33 20L33 21L32 21L32 19ZM41 19L41 20L42 20L42 19ZM7 20L7 21L6 21L6 22L7 22L7 23L8 23L8 22L9 22L9 20ZM62 20L62 22L63 22L63 21L64 21L64 20ZM10 21L10 22L11 22L11 23L12 23L12 22L11 22L11 21ZM7 24L7 25L8 25L8 26L9 26L9 27L10 27L10 26L9 26L9 25L10 25L10 24ZM13 24L13 25L14 25L14 24ZM55 24L55 25L56 25L56 24ZM58 25L58 26L59 26L59 25ZM37 26L37 28L36 28L36 29L33 29L33 31L34 31L34 30L37 30L37 28L38 28L38 26ZM54 26L54 27L55 27L55 26ZM31 27L31 28L28 28L28 29L30 29L30 31L31 31L31 29L32 29L32 28L33 28L33 27ZM34 27L34 28L35 28L35 27ZM6 29L6 30L7 30L7 29ZM1 31L1 32L2 32L2 33L3 33L3 31ZM63 31L63 32L66 32L66 33L67 33L67 32L68 32L68 31ZM58 32L58 34L59 34L59 35L60 35L60 32ZM5 33L5 36L8 36L8 33ZM22 33L22 34L23 34L23 35L24 35L24 34L27 34L27 35L28 35L28 34L29 34L29 33ZM33 33L33 36L36 36L36 33ZM61 33L61 36L64 36L64 33ZM6 34L6 35L7 35L7 34ZM10 34L10 35L9 35L9 36L10 36L10 37L8 37L8 39L10 39L10 37L11 37L11 36L10 36L10 35L11 35L11 34ZM34 34L34 35L35 35L35 34ZM44 34L44 37L45 37L45 38L43 38L43 39L45 39L45 40L44 40L44 43L43 43L43 44L44 44L44 46L46 46L46 45L45 45L45 44L44 44L44 43L45 43L45 42L46 42L46 37L47 37L47 38L48 38L48 37L50 37L50 38L51 38L51 37L52 37L52 36L51 36L51 37L50 37L50 36L48 36L48 34L46 34L46 37L45 37L45 34ZM49 34L49 35L50 35L50 34ZM62 34L62 35L63 35L63 34ZM65 34L65 36L66 36L66 37L68 37L68 35L67 35L67 34ZM25 35L25 37L23 37L23 38L22 38L22 36L21 36L21 37L20 37L20 40L21 40L21 39L22 39L22 40L23 40L23 38L25 38L25 39L26 39L26 41L27 41L27 42L26 42L26 43L25 43L25 42L24 42L24 41L25 41L25 40L24 40L24 41L23 41L23 42L22 42L22 41L20 41L20 42L22 42L22 43L24 43L24 45L22 45L22 46L21 46L21 48L24 48L24 47L22 47L22 46L25 46L25 45L27 45L27 47L28 47L28 48L29 48L29 47L28 47L28 45L27 45L27 44L26 44L26 43L28 43L28 41L27 41L27 40L28 40L28 36L26 36L26 35ZM30 35L30 36L32 36L32 35ZM6 37L6 38L7 38L7 37ZM25 37L25 38L26 38L26 39L27 39L27 37ZM33 38L33 39L32 39L32 40L33 40L33 42L34 42L34 38ZM14 39L14 40L15 40L15 41L16 41L16 40L15 40L15 39ZM40 39L40 41L41 41L41 39ZM11 40L11 41L13 41L13 40ZM35 40L35 42L36 42L36 43L37 43L37 40ZM66 40L66 41L69 41L69 40ZM6 41L6 42L7 42L7 41ZM10 42L10 43L11 43L11 42ZM49 42L49 43L50 43L50 44L51 44L51 43L50 43L50 42ZM6 43L6 44L8 44L8 43ZM16 44L16 46L17 46L17 47L18 47L18 45L17 45L17 44ZM35 44L35 47L36 47L36 48L37 48L37 49L38 49L38 50L39 50L39 51L40 51L40 48L41 48L41 47L39 47L39 45L38 45L38 46L37 46L37 47L36 47L36 45L37 45L37 44ZM13 45L13 48L12 48L12 47L11 47L11 48L10 48L10 47L9 47L9 48L8 48L8 49L7 49L7 48L6 48L6 49L7 49L7 50L6 50L6 51L7 51L7 50L8 50L8 49L9 49L9 50L10 50L10 54L9 54L9 55L10 55L10 56L11 56L11 55L10 55L10 54L15 54L15 56L17 56L17 55L18 55L18 54L16 54L16 53L11 53L11 51L12 51L12 49L14 49L14 45ZM56 45L56 46L57 46L57 45ZM2 47L2 49L3 49L3 50L4 50L4 48L3 48L3 47ZM38 47L38 48L39 48L39 47ZM11 48L11 49L12 49L12 48ZM49 48L49 50L50 50L50 48ZM56 48L56 49L57 49L57 50L56 50L56 51L57 51L57 52L58 52L58 53L59 53L59 51L58 51L58 49L57 49L57 48ZM42 50L42 51L43 51L43 50ZM67 50L67 53L69 53L69 52L68 52L68 50ZM3 51L3 52L4 52L4 51ZM3 53L3 54L4 54L4 53ZM6 53L6 54L7 54L7 53ZM28 53L28 54L29 54L29 53ZM67 55L67 56L66 56L66 57L65 57L65 58L66 58L66 59L68 59L68 58L69 58L69 56L68 56L68 55ZM30 56L30 57L29 57L29 59L31 59L31 58L32 58L32 57L31 57L31 56ZM67 56L67 57L66 57L66 58L67 58L67 57L68 57L68 56ZM45 59L45 61L46 61L46 62L47 62L47 61L46 61L46 59ZM3 60L3 61L5 61L5 60ZM21 60L21 61L22 61L22 60ZM15 61L15 62L16 62L16 61ZM33 61L33 64L36 64L36 61ZM61 61L61 64L64 64L64 61ZM17 62L17 63L18 63L18 62ZM30 62L30 64L31 64L31 65L32 65L32 66L33 66L33 65L32 65L32 64L31 64L31 63L32 63L32 62ZM34 62L34 63L35 63L35 62ZM62 62L62 63L63 63L63 62ZM44 63L44 69L46 69L46 67L45 67L45 63ZM47 63L47 64L48 64L48 63ZM68 63L68 65L66 65L66 66L69 66L69 63ZM10 65L10 67L9 67L9 68L10 68L10 67L11 67L11 68L12 68L12 67L11 67L11 65ZM14 65L14 66L15 66L15 65ZM34 67L34 68L35 68L35 67ZM48 67L48 69L50 69L50 68L49 68L49 67ZM60 67L60 69L61 69L61 67ZM21 68L21 69L22 69L22 68ZM32 68L32 69L33 69L33 68ZM36 68L36 69L37 69L37 68ZM42 68L42 69L43 69L43 68ZM68 68L68 69L69 69L69 68ZM0 0L0 7L7 7L7 0ZM1 1L1 6L6 6L6 1ZM2 2L2 5L5 5L5 2ZM62 0L62 7L69 7L69 0ZM63 1L63 6L68 6L68 1ZM64 2L64 5L67 5L67 2ZM0 62L0 69L7 69L7 62ZM1 63L1 68L6 68L6 63ZM2 64L2 67L5 67L5 64Z" fill="#000000"/></g></g></svg>
