<?xml version="1.0" encoding="UTF-8"?>
<svg xmlns="http://www.w3.org/2000/svg" version="1.1" width="300" height="300" viewBox="0 0 300 300"><rect x="0" y="0" width="300" height="300" fill="#ffffff"/><g transform="scale(4.348)"><g transform="translate(0,0)"><path fill-rule="evenodd" d="M9 0L9 1L8 1L8 2L10 2L10 3L8 3L8 4L10 4L10 5L8 5L8 7L9 7L9 6L10 6L10 8L11 8L11 10L12 10L12 13L10 13L10 14L9 14L9 13L8 13L8 14L9 14L9 15L7 15L7 14L6 14L6 15L7 15L7 16L5 16L5 12L6 12L6 13L7 13L7 12L8 12L8 11L10 11L10 12L11 12L11 11L10 11L10 10L9 10L9 8L6 8L6 9L5 9L5 8L0 8L0 9L2 9L2 10L1 10L1 11L2 11L2 12L0 12L0 13L1 13L1 14L2 14L2 15L0 15L0 16L1 16L1 18L0 18L0 19L1 19L1 18L2 18L2 19L3 19L3 18L6 18L6 19L7 19L7 18L6 18L6 17L7 17L7 16L10 16L10 17L8 17L8 18L10 18L10 20L9 20L9 19L8 19L8 20L4 20L4 22L3 22L3 20L1 20L1 21L0 21L0 23L4 23L4 24L3 24L3 25L2 25L2 24L0 24L0 26L1 26L1 27L2 27L2 28L0 28L0 31L1 31L1 30L2 30L2 28L4 28L4 29L3 29L3 32L1 32L1 34L0 34L0 36L1 36L1 37L0 37L0 38L1 38L1 39L2 39L2 40L4 40L4 41L5 41L5 43L4 43L4 42L3 42L3 43L4 43L4 44L3 44L3 48L2 48L2 47L1 47L1 48L2 48L2 50L3 50L3 48L4 48L4 51L2 51L2 54L3 54L3 53L4 53L4 52L5 52L5 51L7 51L7 52L6 52L6 53L8 53L8 55L7 55L7 54L6 54L6 55L7 55L7 56L5 56L5 54L4 54L4 55L3 55L3 56L5 56L5 57L2 57L2 55L0 55L0 56L1 56L1 58L0 58L0 61L1 61L1 58L2 58L2 59L3 59L3 58L4 58L4 59L8 59L8 58L6 58L6 57L8 57L8 56L10 56L10 58L9 58L9 60L6 60L6 61L8 61L8 63L9 63L9 62L11 62L11 63L14 63L14 64L16 64L16 63L17 63L17 64L18 64L18 65L17 65L17 66L14 66L14 65L13 65L13 64L8 64L8 69L9 69L9 67L12 67L12 65L13 65L13 66L14 66L14 67L13 67L13 68L11 68L11 69L13 69L13 68L14 68L14 69L15 69L15 68L16 68L16 69L21 69L21 68L18 68L18 67L17 67L17 66L19 66L19 67L20 67L20 66L19 66L19 65L20 65L20 61L21 61L21 60L23 60L23 59L24 59L24 60L25 60L25 61L23 61L23 62L21 62L21 64L22 64L22 63L23 63L23 65L21 65L21 67L23 67L23 69L26 69L26 66L25 66L25 65L28 65L28 66L27 66L27 67L28 67L28 68L27 68L27 69L28 69L28 68L29 68L29 69L32 69L32 68L29 68L29 65L30 65L30 66L31 66L31 67L33 67L33 66L34 66L34 67L35 67L35 68L34 68L34 69L35 69L35 68L36 68L36 69L38 69L38 68L37 68L37 67L39 67L39 66L37 66L37 65L38 65L38 64L41 64L41 66L40 66L40 67L41 67L41 68L43 68L43 69L44 69L44 68L48 68L48 69L50 69L50 68L48 68L48 67L47 67L47 66L48 66L48 65L49 65L49 67L50 67L50 65L51 65L51 66L52 66L52 65L51 65L51 64L54 64L54 65L53 65L53 67L55 67L55 68L57 68L57 69L59 69L59 68L62 68L62 65L63 65L63 66L64 66L64 65L65 65L65 64L68 64L68 61L67 61L67 59L68 59L68 60L69 60L69 59L68 59L68 58L69 58L69 57L68 57L68 56L69 56L69 55L68 55L68 54L69 54L69 53L68 53L68 54L67 54L67 52L68 52L68 50L69 50L69 49L68 49L68 48L67 48L67 47L68 47L68 46L69 46L69 45L68 45L68 42L67 42L67 43L65 43L65 42L63 42L63 41L66 41L66 40L68 40L68 41L69 41L69 40L68 40L68 38L67 38L67 37L68 37L68 36L69 36L69 35L68 35L68 34L69 34L69 32L67 32L67 31L68 31L68 30L69 30L69 29L68 29L68 26L69 26L69 23L68 23L68 22L67 22L67 23L65 23L65 22L64 22L64 21L63 21L63 20L60 20L60 19L61 19L61 18L62 18L62 19L63 19L63 18L65 18L65 17L63 17L63 18L62 18L62 16L64 16L64 14L63 14L63 15L62 15L62 16L58 16L58 17L59 17L59 18L57 18L57 22L58 22L58 23L59 23L59 24L60 24L60 25L59 25L59 27L57 27L57 25L56 25L56 24L55 24L55 23L54 23L54 22L56 22L56 19L55 19L55 18L56 18L56 15L57 15L57 13L59 13L59 14L60 14L60 15L61 15L61 14L62 14L62 13L64 13L64 12L66 12L66 13L67 13L67 12L69 12L69 11L68 11L68 10L69 10L69 9L68 9L68 8L67 8L67 9L66 9L66 8L65 8L65 10L64 10L64 8L63 8L63 11L62 11L62 13L59 13L59 12L60 12L60 11L58 11L58 10L57 10L57 9L59 9L59 10L62 10L62 8L61 8L61 6L60 6L60 7L59 7L59 4L58 4L58 7L57 7L57 6L56 6L56 5L55 5L55 4L56 4L56 2L57 2L57 3L59 3L59 2L58 2L58 1L61 1L61 0L58 0L58 1L57 1L57 0L56 0L56 2L55 2L55 3L54 3L54 2L53 2L53 4L52 4L52 5L49 5L49 6L48 6L48 7L47 7L47 6L46 6L46 5L44 5L44 3L45 3L45 4L46 4L46 3L45 3L45 2L44 2L44 3L43 3L43 4L39 4L39 6L38 6L38 5L37 5L37 4L38 4L38 3L37 3L37 1L38 1L38 2L39 2L39 3L40 3L40 2L41 2L41 3L42 3L42 2L43 2L43 0L39 0L39 1L38 1L38 0L35 0L35 3L33 3L33 4L32 4L32 2L31 2L31 1L32 1L32 0L30 0L30 1L29 1L29 0L28 0L28 1L27 1L27 2L28 2L28 3L29 3L29 5L28 5L28 7L29 7L29 6L30 6L30 7L31 7L31 8L32 8L32 9L36 9L36 10L33 10L33 11L36 11L36 10L37 10L37 13L36 13L36 12L33 12L33 14L34 14L34 13L35 13L35 15L38 15L38 16L37 16L37 17L35 17L35 19L36 19L36 21L37 21L37 22L35 22L35 23L37 23L37 22L39 22L39 24L38 24L38 25L39 25L39 24L42 24L42 25L41 25L41 26L37 26L37 24L36 24L36 25L33 25L33 24L32 24L32 25L31 25L31 23L33 23L33 22L34 22L34 20L33 20L33 21L32 21L32 19L34 19L34 18L33 18L33 16L34 16L34 15L33 15L33 16L32 16L32 15L31 15L31 13L32 13L32 12L29 12L29 14L27 14L27 13L25 13L25 12L26 12L26 8L25 8L25 6L24 6L24 5L25 5L25 4L26 4L26 1L25 1L25 0L23 0L23 1L22 1L22 2L21 2L21 3L20 3L20 4L19 4L19 2L20 2L20 1L19 1L19 0L17 0L17 1L16 1L16 3L17 3L17 5L16 5L16 4L15 4L15 2L14 2L14 1L15 1L15 0L14 0L14 1L12 1L12 0L11 0L11 1L10 1L10 0ZM33 0L33 2L34 2L34 0ZM44 0L44 1L45 1L45 0ZM47 0L47 3L48 3L48 4L50 4L50 3L51 3L51 2L50 2L50 0ZM53 0L53 1L55 1L55 0ZM17 1L17 2L18 2L18 1ZM23 1L23 3L21 3L21 4L20 4L20 5L18 5L18 6L17 6L17 7L16 7L16 6L15 6L15 5L14 5L14 4L11 4L11 5L10 5L10 6L11 6L11 8L12 8L12 5L13 5L13 7L14 7L14 9L15 9L15 11L16 11L16 12L14 12L14 10L13 10L13 9L12 9L12 10L13 10L13 12L14 12L14 13L16 13L16 15L17 15L17 16L16 16L16 18L15 18L15 14L13 14L13 13L12 13L12 15L11 15L11 14L10 14L10 15L11 15L11 16L13 16L13 17L11 17L11 20L12 20L12 21L11 21L11 22L9 22L9 20L8 20L8 22L7 22L7 21L6 21L6 22L5 22L5 25L3 25L3 26L2 26L2 25L1 25L1 26L2 26L2 27L3 27L3 26L5 26L5 27L6 27L6 28L5 28L5 29L6 29L6 30L7 30L7 29L6 29L6 28L7 28L7 27L8 27L8 28L11 28L11 29L8 29L8 30L11 30L11 29L12 29L12 32L13 32L13 31L15 31L15 30L17 30L17 31L18 31L18 29L17 29L17 28L16 28L16 27L14 27L14 26L16 26L16 25L17 25L17 26L18 26L18 28L19 28L19 29L20 29L20 31L19 31L19 32L20 32L20 33L19 33L19 34L20 34L20 35L19 35L19 36L20 36L20 38L19 38L19 39L17 39L17 36L18 36L18 34L17 34L17 33L18 33L18 32L17 32L17 33L16 33L16 32L14 32L14 33L16 33L16 34L17 34L17 35L16 35L16 36L15 36L15 34L13 34L13 35L12 35L12 34L11 34L11 31L10 31L10 33L9 33L9 36L10 36L10 41L11 41L11 42L9 42L9 43L8 43L8 44L7 44L7 43L5 43L5 45L6 45L6 46L5 46L5 47L6 47L6 48L5 48L5 50L7 50L7 49L8 49L8 53L9 53L9 54L10 54L10 56L12 56L12 55L11 55L11 54L12 54L12 52L13 52L13 54L14 54L14 55L13 55L13 56L16 56L16 57L12 57L12 58L13 58L13 59L15 59L15 61L14 61L14 63L16 63L16 62L17 62L17 63L18 63L18 62L19 62L19 61L18 61L18 60L16 60L16 59L15 59L15 58L16 58L16 57L17 57L17 54L19 54L19 53L20 53L20 54L21 54L21 55L20 55L20 60L21 60L21 57L22 57L22 59L23 59L23 58L24 58L24 57L22 57L22 56L21 56L21 55L22 55L22 54L23 54L23 53L24 53L24 52L26 52L26 55L25 55L25 54L24 54L24 55L25 55L25 56L26 56L26 57L25 57L25 58L26 58L26 59L25 59L25 60L26 60L26 62L30 62L30 63L29 63L29 64L28 64L28 63L27 63L27 64L28 64L28 65L29 65L29 64L31 64L31 63L32 63L32 60L33 60L33 59L32 59L32 55L33 55L33 54L35 54L35 55L36 55L36 54L35 54L35 53L36 53L36 52L35 52L35 49L36 49L36 50L37 50L37 51L39 51L39 50L41 50L41 51L40 51L40 52L39 52L39 53L41 53L41 51L42 51L42 50L41 50L41 49L42 49L42 48L43 48L43 46L44 46L44 45L45 45L45 46L47 46L47 47L46 47L46 49L45 49L45 47L44 47L44 49L43 49L43 50L44 50L44 49L45 49L45 52L44 52L44 51L43 51L43 52L44 52L44 53L43 53L43 54L42 54L42 55L43 55L43 56L42 56L42 57L43 57L43 60L42 60L42 58L41 58L41 59L40 59L40 62L39 62L39 61L38 61L38 59L39 59L39 57L41 57L41 56L39 56L39 57L38 57L38 59L37 59L37 57L36 57L36 59L37 59L37 61L38 61L38 62L37 62L37 64L38 64L38 63L41 63L41 64L44 64L44 66L41 66L41 67L43 67L43 68L44 68L44 66L45 66L45 67L46 67L46 66L47 66L47 65L48 65L48 64L51 64L51 62L54 62L54 63L55 63L55 64L56 64L56 65L55 65L55 66L56 66L56 67L58 67L58 68L59 68L59 67L58 67L58 66L60 66L60 65L59 65L59 64L60 64L60 63L59 63L59 64L58 64L58 66L57 66L57 64L56 64L56 63L55 63L55 62L60 62L60 60L61 60L61 59L63 59L63 60L65 60L65 61L66 61L66 60L65 60L65 59L64 59L64 58L65 58L65 56L61 56L61 55L60 55L60 54L61 54L61 53L62 53L62 55L66 55L66 53L65 53L65 52L64 52L64 53L63 53L63 52L62 52L62 51L66 51L66 50L67 50L67 48L64 48L64 47L63 47L63 46L65 46L65 47L66 47L66 44L65 44L65 45L63 45L63 44L61 44L61 45L63 45L63 46L62 46L62 48L61 48L61 46L59 46L59 45L60 45L60 44L59 44L59 41L60 41L60 40L61 40L61 42L60 42L60 43L63 43L63 42L62 42L62 40L63 40L63 39L65 39L65 40L66 40L66 38L65 38L65 37L64 37L64 38L63 38L63 37L62 37L62 40L61 40L61 39L60 39L60 40L59 40L59 38L60 38L60 35L58 35L58 34L60 34L60 32L59 32L59 31L60 31L60 30L59 30L59 29L62 29L62 31L63 31L63 32L64 32L64 31L67 31L67 28L64 28L64 27L67 27L67 26L66 26L66 25L65 25L65 23L64 23L64 22L63 22L63 21L62 21L62 23L61 23L61 25L62 25L62 26L64 26L64 27L62 27L62 28L60 28L60 27L59 27L59 29L57 29L57 27L56 27L56 26L55 26L55 28L54 28L54 26L53 26L53 25L54 25L54 24L53 24L53 22L51 22L51 21L53 21L53 20L55 20L55 19L54 19L54 18L53 18L53 20L51 20L51 19L52 19L52 18L51 18L51 16L52 16L52 17L55 17L55 15L56 15L56 13L57 13L57 12L56 12L56 9L57 9L57 8L54 8L54 6L53 6L53 8L51 8L51 9L50 9L50 6L49 6L49 9L50 9L50 11L49 11L49 10L47 10L47 7L46 7L46 6L45 6L45 7L44 7L44 5L43 5L43 7L42 7L42 6L41 6L41 5L40 5L40 6L39 6L39 7L38 7L38 6L37 6L37 7L38 7L38 8L37 8L37 9L38 9L38 11L39 11L39 10L40 10L40 12L39 12L39 13L38 13L38 15L40 15L40 16L38 16L38 18L37 18L37 19L39 19L39 20L40 20L40 21L39 21L39 22L41 22L41 21L43 21L43 20L44 20L44 22L43 22L43 24L44 24L44 25L43 25L43 26L46 26L46 28L45 28L45 27L43 27L43 28L44 28L44 29L43 29L43 30L42 30L42 27L38 27L38 28L40 28L40 29L38 29L38 31L39 31L39 30L40 30L40 31L43 31L43 32L39 32L39 33L38 33L38 32L37 32L37 33L38 33L38 34L37 34L37 36L38 36L38 37L34 37L34 38L30 38L30 37L29 37L29 36L30 36L30 35L31 35L31 37L32 37L32 34L30 34L30 33L29 33L29 32L31 32L31 33L32 33L32 32L34 32L34 31L33 31L33 30L34 30L34 29L35 29L35 30L37 30L37 29L36 29L36 28L35 28L35 27L36 27L36 26L34 26L34 27L33 27L33 25L32 25L32 26L31 26L31 27L33 27L33 28L34 28L34 29L33 29L33 30L31 30L31 29L32 29L32 28L31 28L31 29L30 29L30 30L29 30L29 29L28 29L28 27L27 27L27 26L29 26L29 25L30 25L30 24L29 24L29 25L27 25L27 24L28 24L28 23L27 23L27 22L29 22L29 23L30 23L30 22L32 22L32 21L29 21L29 20L31 20L31 19L30 19L30 18L31 18L31 17L32 17L32 16L31 16L31 15L30 15L30 16L31 16L31 17L29 17L29 16L27 16L27 14L25 14L25 15L24 15L24 17L26 17L26 22L23 22L23 21L25 21L25 20L24 20L24 18L23 18L23 14L22 14L22 13L24 13L24 12L25 12L25 9L24 9L24 6L23 6L23 5L22 5L22 6L21 6L21 8L20 8L20 5L21 5L21 4L25 4L25 3L24 3L24 2L25 2L25 1ZM41 1L41 2L42 2L42 1ZM48 1L48 3L50 3L50 2L49 2L49 1ZM12 2L12 3L14 3L14 2ZM29 2L29 3L30 3L30 2ZM60 3L60 5L61 5L61 3ZM26 5L26 7L27 7L27 5ZM30 5L30 6L31 6L31 7L32 7L32 5ZM33 5L33 8L36 8L36 5ZM14 6L14 7L15 7L15 6ZM18 6L18 9L17 9L17 8L15 8L15 9L16 9L16 11L18 11L18 12L16 12L16 13L18 13L18 14L17 14L17 15L18 15L18 14L19 14L19 13L22 13L22 12L19 12L19 11L21 11L21 10L20 10L20 9L19 9L19 6ZM22 6L22 7L23 7L23 6ZM34 6L34 7L35 7L35 6ZM40 6L40 7L39 7L39 8L40 8L40 7L41 7L41 6ZM51 6L51 7L52 7L52 6ZM55 6L55 7L56 7L56 6ZM45 7L45 9L44 9L44 8L43 8L43 9L41 9L41 12L40 12L40 13L39 13L39 14L40 14L40 15L42 15L42 14L43 14L43 13L44 13L44 16L42 16L42 17L41 17L41 18L39 18L39 19L40 19L40 20L43 20L43 17L44 17L44 16L45 16L45 17L47 17L47 18L44 18L44 19L47 19L47 18L48 18L48 20L46 20L46 21L47 21L47 24L46 24L46 22L44 22L44 23L45 23L45 24L46 24L46 25L47 25L47 26L48 26L48 27L49 27L49 28L47 28L47 30L46 30L46 29L44 29L44 30L46 30L46 32L45 32L45 31L44 31L44 32L43 32L43 33L40 33L40 35L41 35L41 36L43 36L43 37L39 37L39 38L41 38L41 39L39 39L39 40L41 40L41 41L40 41L40 43L39 43L39 44L38 44L38 45L37 45L37 43L36 43L36 42L38 42L38 41L34 41L34 42L35 42L35 44L36 44L36 45L37 45L37 46L36 46L36 47L35 47L35 46L34 46L34 47L35 47L35 48L36 48L36 47L37 47L37 48L38 48L38 47L37 47L37 46L38 46L38 45L39 45L39 46L40 46L40 47L39 47L39 48L40 48L40 47L41 47L41 48L42 48L42 46L43 46L43 44L46 44L46 45L47 45L47 46L49 46L49 47L48 47L48 48L47 48L47 50L48 50L48 51L46 51L46 52L45 52L45 53L44 53L44 56L43 56L43 57L44 57L44 56L46 56L46 57L47 57L47 59L46 59L46 58L45 58L45 61L44 61L44 60L43 60L43 61L42 61L42 60L41 60L41 62L42 62L42 63L44 63L44 64L45 64L45 66L46 66L46 64L45 64L45 63L44 63L44 62L46 62L46 63L47 63L47 64L48 64L48 63L47 63L47 62L50 62L50 60L51 60L51 58L50 58L50 56L51 56L51 57L52 57L52 56L55 56L55 57L54 57L54 58L53 58L53 61L54 61L54 62L55 62L55 61L56 61L56 60L55 60L55 59L56 59L56 58L57 58L57 61L59 61L59 60L58 60L58 59L59 59L59 58L57 58L57 57L56 57L56 52L57 52L57 54L58 54L58 57L59 57L59 54L58 54L58 53L59 53L59 52L60 52L60 53L61 53L61 52L60 52L60 51L62 51L62 50L63 50L63 48L62 48L62 50L60 50L60 49L59 49L59 48L58 48L58 47L57 47L57 45L56 45L56 44L57 44L57 43L58 43L58 42L57 42L57 41L59 41L59 40L58 40L58 38L56 38L56 36L57 36L57 37L59 37L59 36L58 36L58 35L56 35L56 36L55 36L55 37L52 37L52 38L54 38L54 39L52 39L52 40L51 40L51 39L50 39L50 41L49 41L49 40L47 40L47 39L49 39L49 38L50 38L50 35L49 35L49 34L50 34L50 33L51 33L51 34L52 34L52 33L51 33L51 32L52 32L52 31L53 31L53 32L54 32L54 31L53 31L53 30L55 30L55 29L56 29L56 32L55 32L55 33L53 33L53 35L55 35L55 33L56 33L56 34L58 34L58 33L59 33L59 32L58 32L58 30L57 30L57 29L56 29L56 28L55 28L55 29L54 29L54 28L53 28L53 29L51 29L51 30L52 30L52 31L50 31L50 32L47 32L47 31L49 31L49 30L50 30L50 29L49 29L49 28L50 28L50 27L51 27L51 28L52 28L52 27L51 27L51 26L50 26L50 25L51 25L51 24L52 24L52 23L51 23L51 22L50 22L50 19L51 19L51 18L50 18L50 16L47 16L47 15L45 15L45 13L44 13L44 12L43 12L43 13L42 13L42 14L41 14L41 12L42 12L42 10L45 10L45 9L46 9L46 7ZM21 8L21 9L22 9L22 8ZM28 8L28 9L30 9L30 11L32 11L32 10L31 10L31 9L30 9L30 8ZM53 8L53 10L52 10L52 11L50 11L50 13L49 13L49 12L47 12L47 14L49 14L49 15L50 15L50 13L51 13L51 14L52 14L52 13L51 13L51 12L52 12L52 11L53 11L53 12L55 12L55 13L54 13L54 14L53 14L53 15L52 15L52 16L53 16L53 15L54 15L54 14L55 14L55 13L56 13L56 12L55 12L55 11L53 11L53 10L55 10L55 9L54 9L54 8ZM4 9L4 10L2 10L2 11L4 11L4 12L5 12L5 11L6 11L6 12L7 12L7 11L8 11L8 9L6 9L6 10L5 10L5 9ZM18 9L18 11L19 11L19 9ZM23 9L23 10L22 10L22 11L23 11L23 12L24 12L24 11L23 11L23 10L24 10L24 9ZM6 10L6 11L7 11L7 10ZM27 10L27 11L28 11L28 10ZM65 10L65 11L66 11L66 10ZM45 11L45 12L46 12L46 11ZM63 11L63 12L64 12L64 11ZM2 12L2 14L4 14L4 13L3 13L3 12ZM68 13L68 14L65 14L65 16L66 16L66 18L67 18L67 19L65 19L65 20L66 20L66 21L68 21L68 18L69 18L69 17L67 17L67 16L69 16L69 15L68 15L68 14L69 14L69 13ZM20 14L20 15L21 15L21 14ZM13 15L13 16L14 16L14 15ZM25 15L25 16L26 16L26 15ZM17 16L17 17L18 17L18 19L17 19L17 18L16 18L16 19L17 19L17 20L18 20L18 21L17 21L17 22L16 22L16 23L17 23L17 22L18 22L18 23L19 23L19 24L17 24L17 25L18 25L18 26L19 26L19 28L20 28L20 29L21 29L21 30L23 30L23 31L26 31L26 32L25 32L25 33L24 33L24 32L23 32L23 33L21 33L21 34L22 34L22 36L23 36L23 37L24 37L24 38L23 38L23 39L25 39L25 40L24 40L24 41L23 41L23 42L21 42L21 43L20 43L20 45L19 45L19 42L20 42L20 41L22 41L22 40L21 40L21 39L22 39L22 37L21 37L21 38L20 38L20 39L19 39L19 40L17 40L17 39L16 39L16 38L12 38L12 39L11 39L11 41L12 41L12 40L13 40L13 42L11 42L11 44L10 44L10 43L9 43L9 44L8 44L8 46L10 46L10 45L11 45L11 44L13 44L13 43L14 43L14 44L15 44L15 45L18 45L18 46L17 46L17 47L14 47L14 45L12 45L12 46L11 46L11 47L12 47L12 51L13 51L13 52L14 52L14 53L19 53L19 52L22 52L22 51L21 51L21 49L18 49L18 48L17 48L17 47L18 47L18 46L20 46L20 45L21 45L21 47L22 47L22 48L23 48L23 47L25 47L25 48L26 48L26 47L25 47L25 46L26 46L26 44L27 44L27 42L25 42L25 44L24 44L24 43L23 43L23 42L24 42L24 41L26 41L26 38L27 38L27 41L30 41L30 42L31 42L31 41L30 41L30 40L29 40L29 39L30 39L30 38L27 38L27 37L28 37L28 36L29 36L29 35L30 35L30 34L29 34L29 33L28 33L28 31L29 31L29 30L28 30L28 31L27 31L27 30L25 30L25 29L26 29L26 28L27 28L27 27L26 27L26 28L25 28L25 26L26 26L26 24L27 24L27 23L26 23L26 24L25 24L25 23L24 23L24 24L23 24L23 22L22 22L22 21L21 21L21 22L20 22L20 21L19 21L19 20L21 20L21 19L22 19L22 20L23 20L23 18L22 18L22 17L18 17L18 16ZM27 17L27 18L28 18L28 17ZM48 17L48 18L49 18L49 19L50 19L50 18L49 18L49 17ZM12 18L12 19L13 19L13 21L14 21L14 19L15 19L15 18L14 18L14 19L13 19L13 18ZM19 18L19 19L20 19L20 18ZM59 18L59 19L58 19L58 22L59 22L59 21L60 21L60 20L59 20L59 19L60 19L60 18ZM27 19L27 20L28 20L28 19ZM37 20L37 21L38 21L38 20ZM1 21L1 22L2 22L2 21ZM18 21L18 22L19 22L19 21ZM6 22L6 23L7 23L7 24L6 24L6 25L5 25L5 26L6 26L6 27L7 27L7 26L10 26L10 27L11 27L11 26L10 26L10 24L11 24L11 25L12 25L12 23L7 23L7 22ZM14 22L14 23L13 23L13 26L12 26L12 29L13 29L13 28L14 28L14 30L15 30L15 28L14 28L14 27L13 27L13 26L14 26L14 24L15 24L15 25L16 25L16 24L15 24L15 22ZM21 22L21 23L20 23L20 24L21 24L21 25L19 25L19 26L21 26L21 29L25 29L25 28L24 28L24 27L23 27L23 26L24 26L24 25L22 25L22 24L21 24L21 23L22 23L22 22ZM49 22L49 23L48 23L48 24L47 24L47 25L48 25L48 26L49 26L49 25L50 25L50 22ZM67 23L67 24L68 24L68 23ZM7 24L7 25L6 25L6 26L7 26L7 25L8 25L8 24ZM48 24L48 25L49 25L49 24ZM62 24L62 25L63 25L63 24ZM21 25L21 26L22 26L22 25ZM63 28L63 29L64 29L64 30L65 30L65 29L64 29L64 28ZM48 29L48 30L49 30L49 29ZM30 30L30 31L31 31L31 32L32 32L32 31L31 31L31 30ZM5 31L5 32L8 32L8 31ZM44 32L44 33L43 33L43 34L41 34L41 35L43 35L43 36L44 36L44 37L45 37L45 38L48 38L48 37L45 37L45 36L47 36L47 34L48 34L48 33L45 33L45 32ZM56 32L56 33L58 33L58 32ZM66 32L66 33L67 33L67 34L68 34L68 33L67 33L67 32ZM2 33L2 35L1 35L1 36L2 36L2 37L3 37L3 38L4 38L4 40L5 40L5 41L6 41L6 42L8 42L8 41L9 41L9 37L8 37L8 40L7 40L7 39L6 39L6 40L5 40L5 38L4 38L4 37L3 37L3 36L4 36L4 33ZM5 33L5 36L8 36L8 33ZM25 33L25 35L24 35L24 34L23 34L23 35L24 35L24 37L25 37L25 38L26 38L26 37L27 37L27 36L28 36L28 35L27 35L27 34L28 34L28 33ZM33 33L33 36L36 36L36 33ZM44 33L44 36L45 36L45 33ZM61 33L61 36L64 36L64 33ZM6 34L6 35L7 35L7 34ZM10 34L10 36L11 36L11 34ZM34 34L34 35L35 35L35 34ZM62 34L62 35L63 35L63 34ZM13 35L13 37L15 37L15 36L14 36L14 35ZM26 35L26 36L25 36L25 37L26 37L26 36L27 36L27 35ZM67 35L67 36L66 36L66 37L67 37L67 36L68 36L68 35ZM6 37L6 38L7 38L7 37ZM35 38L35 40L38 40L38 38L37 38L37 39L36 39L36 38ZM55 38L55 40L56 40L56 41L55 41L55 44L54 44L54 43L52 43L52 44L50 44L50 46L51 46L51 47L52 47L52 48L51 48L51 49L50 49L50 48L49 48L49 49L50 49L50 53L49 53L49 54L51 54L51 56L52 56L52 53L55 53L55 52L56 52L56 51L54 51L54 52L53 52L53 50L52 50L52 49L55 49L55 50L56 50L56 49L57 49L57 50L59 50L59 49L58 49L58 48L57 48L57 47L56 47L56 49L55 49L55 48L54 48L54 47L53 47L53 46L51 46L51 45L53 45L53 44L54 44L54 45L55 45L55 46L56 46L56 45L55 45L55 44L56 44L56 43L57 43L57 42L56 42L56 41L57 41L57 40L56 40L56 38ZM13 39L13 40L14 40L14 43L16 43L16 44L18 44L18 43L17 43L17 42L18 42L18 41L17 41L17 40L16 40L16 39L15 39L15 40L14 40L14 39ZM31 39L31 40L32 40L32 42L33 42L33 39ZM41 39L41 40L44 40L44 42L43 42L43 43L44 43L44 42L45 42L45 43L46 43L46 44L47 44L47 43L48 43L48 44L49 44L49 42L48 42L48 41L47 41L47 40L45 40L45 39ZM0 40L0 41L1 41L1 43L2 43L2 41L1 41L1 40ZM6 40L6 41L7 41L7 40ZM19 40L19 41L20 41L20 40ZM52 40L52 41L50 41L50 43L51 43L51 42L53 42L53 40ZM15 41L15 42L16 42L16 41ZM46 42L46 43L47 43L47 42ZM21 43L21 45L23 45L23 43ZM28 43L28 45L29 45L29 49L30 49L30 50L29 50L29 52L28 52L28 51L27 51L27 50L28 50L28 49L27 49L27 50L26 50L26 49L22 49L22 50L26 50L26 52L28 52L28 53L32 53L32 54L33 54L33 53L34 53L34 52L33 52L33 51L34 51L34 50L32 50L32 49L33 49L33 48L32 48L32 49L31 49L31 48L30 48L30 47L31 47L31 43L30 43L30 44L29 44L29 43ZM32 43L32 45L33 45L33 44L34 44L34 43ZM40 43L40 44L39 44L39 45L40 45L40 44L41 44L41 43ZM0 44L0 45L1 45L1 44ZM6 44L6 45L7 45L7 44ZM9 44L9 45L10 45L10 44ZM58 44L58 45L59 45L59 44ZM41 45L41 46L42 46L42 45ZM67 45L67 46L68 46L68 45ZM6 46L6 47L7 47L7 48L6 48L6 49L7 49L7 48L9 48L9 49L10 49L10 47L7 47L7 46ZM12 46L12 47L13 47L13 48L14 48L14 49L15 49L15 50L13 50L13 51L15 51L15 50L16 50L16 51L17 51L17 52L18 52L18 51L17 51L17 50L18 50L18 49L17 49L17 48L16 48L16 49L15 49L15 48L14 48L14 47L13 47L13 46ZM32 46L32 47L33 47L33 46ZM19 47L19 48L20 48L20 47ZM37 49L37 50L38 50L38 49ZM9 50L9 52L10 52L10 53L11 53L11 51L10 51L10 50ZM19 50L19 51L20 51L20 50ZM30 50L30 51L31 51L31 52L32 52L32 50ZM51 50L51 52L52 52L52 50ZM57 51L57 52L58 52L58 51ZM37 52L37 53L38 53L38 52ZM21 53L21 54L22 54L22 53ZM45 53L45 54L46 54L46 56L48 56L48 55L47 55L47 53ZM15 54L15 55L16 55L16 54ZM30 54L30 55L26 55L26 56L27 56L27 57L28 57L28 56L30 56L30 57L29 57L29 58L27 58L27 59L28 59L28 60L29 60L29 61L30 61L30 62L31 62L31 60L32 60L32 59L31 59L31 54ZM37 54L37 55L39 55L39 54ZM53 54L53 55L55 55L55 54ZM49 55L49 56L50 56L50 55ZM67 55L67 56L68 56L68 55ZM33 56L33 58L34 58L34 59L35 59L35 56ZM55 57L55 58L54 58L54 59L55 59L55 58L56 58L56 57ZM66 57L66 59L67 59L67 58L68 58L68 57ZM10 58L10 60L9 60L9 61L10 61L10 60L11 60L11 61L12 61L12 60L11 60L11 58ZM17 58L17 59L18 59L18 58ZM29 58L29 59L30 59L30 60L31 60L31 59L30 59L30 58ZM49 58L49 59L47 59L47 60L46 60L46 62L47 62L47 60L50 60L50 58ZM3 60L3 61L5 61L5 60ZM17 61L17 62L18 62L18 61ZM33 61L33 64L36 64L36 61ZM43 61L43 62L44 62L44 61ZM61 61L61 64L64 64L64 61ZM23 62L23 63L25 63L25 64L26 64L26 63L25 63L25 62ZM34 62L34 63L35 63L35 62ZM62 62L62 63L63 63L63 62ZM65 62L65 63L66 63L66 62ZM9 65L9 66L11 66L11 65ZM31 65L31 66L32 66L32 65ZM34 65L34 66L35 66L35 65ZM66 65L66 66L67 66L67 65ZM23 66L23 67L24 67L24 68L25 68L25 67L24 67L24 66ZM14 67L14 68L15 68L15 67ZM16 67L16 68L17 68L17 67ZM51 67L51 68L52 68L52 67ZM63 67L63 68L65 68L65 69L68 69L68 68L67 68L67 67ZM53 68L53 69L54 69L54 68ZM0 0L0 7L7 7L7 0ZM1 1L1 6L6 6L6 1ZM2 2L2 5L5 5L5 2ZM62 0L62 7L69 7L69 0ZM63 1L63 6L68 6L68 1ZM64 2L64 5L67 5L67 2ZM0 62L0 69L7 69L7 62ZM1 63L1 68L6 68L6 63ZM2 64L2 67L5 67L5 64Z" fill="#000000"/></g></g></svg>
