<?xml version="1.0" encoding="UTF-8"?>
<svg xmlns="http://www.w3.org/2000/svg" version="1.1" width="300" height="300" viewBox="0 0 300 300"><rect x="0" y="0" width="300" height="300" fill="#ffffff"/><g transform="scale(4.348)"><g transform="translate(0,0)"><path fill-rule="evenodd" d="M8 0L8 4L9 4L9 5L8 5L8 7L9 7L9 5L11 5L11 6L10 6L10 7L11 7L11 9L10 9L10 8L9 8L9 9L10 9L10 10L11 10L11 9L12 9L12 7L13 7L13 6L14 6L14 9L13 9L13 10L12 10L12 11L13 11L13 10L14 10L14 9L15 9L15 10L16 10L16 8L18 8L18 9L17 9L17 11L16 11L16 12L17 12L17 14L18 14L18 15L17 15L17 17L16 17L16 13L15 13L15 14L14 14L14 15L13 15L13 13L14 13L14 12L12 12L12 13L11 13L11 14L10 14L10 12L6 12L6 13L8 13L8 14L6 14L6 15L8 15L8 14L10 14L10 15L11 15L11 14L12 14L12 15L13 15L13 19L14 19L14 20L16 20L16 18L17 18L17 21L16 21L16 22L14 22L14 23L13 23L13 22L11 22L11 21L12 21L12 20L11 20L11 19L10 19L10 20L9 20L9 21L8 21L8 23L9 23L9 24L10 24L10 26L8 26L8 25L7 25L7 24L4 24L4 23L3 23L3 22L5 22L5 23L7 23L7 22L6 22L6 21L7 21L7 20L3 20L3 21L1 21L1 18L0 18L0 21L1 21L1 22L2 22L2 23L1 23L1 24L2 24L2 23L3 23L3 24L4 24L4 25L3 25L3 26L2 26L2 25L1 25L1 26L2 26L2 28L1 28L1 27L0 27L0 33L1 33L1 34L0 34L0 37L1 37L1 39L0 39L0 41L1 41L1 40L6 40L6 41L4 41L4 42L3 42L3 41L2 41L2 42L1 42L1 44L0 44L0 45L1 45L1 46L0 46L0 47L1 47L1 46L2 46L2 45L4 45L4 46L3 46L3 48L2 48L2 49L3 49L3 50L4 50L4 52L5 52L5 51L7 51L7 52L6 52L6 53L7 53L7 54L6 54L6 55L7 55L7 56L5 56L5 57L2 57L2 56L0 56L0 61L1 61L1 57L2 57L2 59L3 59L3 58L4 58L4 59L7 59L7 60L6 60L6 61L7 61L7 60L8 60L8 59L9 59L9 61L8 61L8 62L9 62L9 61L10 61L10 62L11 62L11 63L8 63L8 65L9 65L9 67L8 67L8 69L10 69L10 68L11 68L11 67L14 67L14 68L15 68L15 66L16 66L16 69L19 69L19 68L18 68L18 66L19 66L19 67L20 67L20 66L21 66L21 67L22 67L22 68L26 68L26 69L29 69L29 67L28 67L28 64L27 64L27 62L28 62L28 63L29 63L29 66L30 66L30 67L31 67L31 68L30 68L30 69L31 69L31 68L32 68L32 69L33 69L33 68L32 68L32 67L33 67L33 66L34 66L34 69L37 69L37 68L38 68L38 66L39 66L39 64L37 64L37 61L38 61L38 63L40 63L40 62L41 62L41 65L40 65L40 68L39 68L39 69L40 69L40 68L42 68L42 67L43 67L43 69L45 69L45 65L46 65L46 64L47 64L47 67L48 67L48 68L46 68L46 69L49 69L49 67L50 67L50 69L52 69L52 68L53 68L53 67L55 67L55 66L56 66L56 65L57 65L57 67L58 67L58 68L60 68L60 69L61 69L61 68L62 68L62 69L63 69L63 68L64 68L64 69L67 69L67 68L64 68L64 67L65 67L65 66L66 66L66 67L67 67L67 66L69 66L69 65L65 65L65 63L66 63L66 62L67 62L67 64L69 64L69 63L68 63L68 62L69 62L69 60L68 60L68 58L69 58L69 57L68 57L68 55L67 55L67 53L69 53L69 52L68 52L68 51L69 51L69 47L68 47L68 46L69 46L69 45L68 45L68 46L67 46L67 44L69 44L69 43L68 43L68 42L69 42L69 40L68 40L68 38L69 38L69 36L68 36L68 37L67 37L67 36L66 36L66 39L65 39L65 38L64 38L64 39L63 39L63 40L62 40L62 42L61 42L61 39L62 39L62 38L63 38L63 37L65 37L65 35L68 35L68 33L69 33L69 31L68 31L68 30L69 30L69 27L68 27L68 26L67 26L67 25L64 25L64 22L63 22L63 21L64 21L64 20L65 20L65 21L66 21L66 22L65 22L65 23L66 23L66 22L67 22L67 23L68 23L68 24L69 24L69 23L68 23L68 22L69 22L69 20L68 20L68 18L67 18L67 20L68 20L68 21L66 21L66 20L65 20L65 18L66 18L66 17L67 17L67 16L66 16L66 17L64 17L64 16L65 16L65 13L64 13L64 11L60 11L60 10L61 10L61 6L60 6L60 7L59 7L59 4L57 4L57 5L56 5L56 7L55 7L55 4L56 4L56 3L59 3L59 2L57 2L57 1L61 1L61 0L57 0L57 1L55 1L55 0L52 0L52 2L50 2L50 1L51 1L51 0L50 0L50 1L48 1L48 3L49 3L49 2L50 2L50 3L52 3L52 4L50 4L50 5L54 5L54 7L53 7L53 6L52 6L52 7L53 7L53 8L56 8L56 9L57 9L57 10L55 10L55 9L53 9L53 11L54 11L54 10L55 10L55 13L54 13L54 12L53 12L53 13L52 13L52 11L51 11L51 9L50 9L50 11L49 11L49 8L47 8L47 5L45 5L45 4L44 4L44 3L43 3L43 2L46 2L46 0L45 0L45 1L44 1L44 0L41 0L41 1L40 1L40 0L38 0L38 1L37 1L37 0L34 0L34 4L33 4L33 3L32 3L32 2L33 2L33 0L31 0L31 1L30 1L30 0L29 0L29 1L30 1L30 3L32 3L32 5L31 5L31 4L30 4L30 5L29 5L29 6L28 6L28 4L29 4L29 2L28 2L28 3L27 3L27 4L26 4L26 3L24 3L24 5L23 5L23 3L22 3L22 2L21 2L21 1L22 1L22 0L15 0L15 1L14 1L14 0L12 0L12 1L11 1L11 2L10 2L10 0ZM23 0L23 1L24 1L24 2L25 2L25 1L26 1L26 2L27 2L27 1L26 1L26 0ZM15 1L15 2L14 2L14 3L13 3L13 2L11 2L11 3L10 3L10 2L9 2L9 3L10 3L10 4L11 4L11 3L12 3L12 6L11 6L11 7L12 7L12 6L13 6L13 5L14 5L14 6L15 6L15 8L16 8L16 5L14 5L14 3L15 3L15 4L16 4L16 3L17 3L17 4L19 4L19 3L21 3L21 9L22 9L22 10L23 10L23 9L24 9L24 10L25 10L25 11L26 11L26 12L27 12L27 11L26 11L26 6L25 6L25 7L24 7L24 6L23 6L23 5L22 5L22 3L21 3L21 2L20 2L20 1ZM39 1L39 5L38 5L38 2L35 2L35 4L37 4L37 5L38 5L38 6L37 6L37 7L38 7L38 8L37 8L37 9L39 9L39 11L40 11L40 15L37 15L37 13L38 13L38 11L37 11L37 10L36 10L36 9L35 9L35 11L36 11L36 13L35 13L35 12L34 12L34 11L33 11L33 10L34 10L34 9L32 9L32 10L31 10L31 9L28 9L28 10L30 10L30 11L28 11L28 14L29 14L29 15L31 15L31 14L30 14L30 13L29 13L29 12L30 12L30 11L32 11L32 12L31 12L31 13L32 13L32 16L33 16L33 17L34 17L34 18L33 18L33 19L32 19L32 18L31 18L31 19L29 19L29 18L30 18L30 17L29 17L29 16L27 16L27 13L25 13L25 14L24 14L24 15L23 15L23 14L22 14L22 15L20 15L20 16L21 16L21 17L19 17L19 16L18 16L18 17L17 17L17 18L18 18L18 17L19 17L19 19L20 19L20 18L21 18L21 17L23 17L23 16L24 16L24 17L25 17L25 18L26 18L26 19L29 19L29 20L31 20L31 19L32 19L32 22L31 22L31 21L30 21L30 22L31 22L31 23L28 23L28 22L29 22L29 21L28 21L28 22L26 22L26 23L28 23L28 24L31 24L31 23L32 23L32 24L33 24L33 25L32 25L32 26L30 26L30 25L28 25L28 26L27 26L27 25L26 25L26 24L25 24L25 25L26 25L26 27L25 27L25 26L24 26L24 25L21 25L21 27L20 27L20 25L19 25L19 30L18 30L18 31L17 31L17 32L16 32L16 31L15 31L15 32L12 32L12 33L11 33L11 34L10 34L10 32L11 32L11 31L14 31L14 30L15 30L15 29L14 29L14 30L11 30L11 28L16 28L16 30L17 30L17 26L16 26L16 27L14 27L14 26L15 26L15 25L17 25L17 24L19 24L19 23L20 23L20 24L21 24L21 23L22 23L22 24L23 24L23 23L24 23L24 22L23 22L23 21L26 21L26 20L23 20L23 18L22 18L22 19L21 19L21 20L22 20L22 22L20 22L20 21L17 21L17 22L18 22L18 23L17 23L17 24L16 24L16 23L15 23L15 25L12 25L12 24L11 24L11 25L12 25L12 26L13 26L13 27L11 27L11 28L10 28L10 27L9 27L9 29L10 29L10 30L8 30L8 28L7 28L7 27L8 27L8 26L7 26L7 25L6 25L6 26L5 26L5 25L4 25L4 26L3 26L3 28L7 28L7 29L5 29L5 30L7 30L7 31L5 31L5 32L9 32L9 36L11 36L11 37L10 37L10 38L9 38L9 39L8 39L8 38L7 38L7 37L3 37L3 36L2 36L2 35L4 35L4 34L2 34L2 35L1 35L1 37L2 37L2 39L6 39L6 40L7 40L7 41L6 41L6 42L7 42L7 43L5 43L5 42L4 42L4 45L6 45L6 46L7 46L7 47L6 47L6 48L3 48L3 49L4 49L4 50L7 50L7 51L8 51L8 52L9 52L9 51L8 51L8 50L12 50L12 51L10 51L10 53L8 53L8 54L7 54L7 55L8 55L8 56L10 56L10 55L8 55L8 54L11 54L11 53L15 53L15 54L14 54L14 55L11 55L11 56L12 56L12 57L10 57L10 59L11 59L11 60L10 60L10 61L11 61L11 62L12 62L12 63L11 63L11 64L12 64L12 65L11 65L11 66L10 66L10 67L11 67L11 66L13 66L13 65L14 65L14 66L15 66L15 65L16 65L16 66L17 66L17 65L18 65L18 64L19 64L19 65L20 65L20 64L22 64L22 66L23 66L23 63L24 63L24 64L25 64L25 65L27 65L27 64L26 64L26 63L25 63L25 62L26 62L26 60L27 60L27 61L28 61L28 62L30 62L30 64L31 64L31 63L32 63L32 61L31 61L31 62L30 62L30 61L29 61L29 59L28 59L28 60L27 60L27 59L26 59L26 60L25 60L25 58L26 58L26 56L27 56L27 55L28 55L28 54L31 54L31 55L29 55L29 56L28 56L28 58L31 58L31 59L30 59L30 60L33 60L33 59L36 59L36 60L38 60L38 61L39 61L39 62L40 62L40 61L44 61L44 60L46 60L46 62L44 62L44 63L43 63L43 67L44 67L44 63L45 63L45 64L46 64L46 63L48 63L48 64L50 64L50 65L49 65L49 66L48 66L48 67L49 67L49 66L50 66L50 67L51 67L51 68L52 68L52 67L53 67L53 64L55 64L55 65L56 65L56 64L57 64L57 65L58 65L58 66L59 66L59 67L60 67L60 68L61 68L61 67L62 67L62 68L63 68L63 67L64 67L64 66L63 66L63 65L62 65L62 66L60 66L60 65L59 65L59 62L60 62L60 60L59 60L59 59L58 59L58 58L62 58L62 59L61 59L61 60L62 60L62 59L63 59L63 60L65 60L65 61L67 61L67 59L64 59L64 58L67 58L67 57L65 57L65 56L67 56L67 55L64 55L64 54L66 54L66 53L65 53L65 52L67 52L67 51L68 51L68 47L67 47L67 46L66 46L66 45L65 45L65 44L67 44L67 39L66 39L66 42L65 42L65 41L64 41L64 40L65 40L65 39L64 39L64 40L63 40L63 41L64 41L64 43L63 43L63 42L62 42L62 43L61 43L61 42L60 42L60 40L58 40L58 39L61 39L61 38L62 38L62 37L60 37L60 36L59 36L59 35L60 35L60 32L61 32L61 30L62 30L62 31L63 31L63 32L66 32L66 33L65 33L65 34L67 34L67 33L68 33L68 31L65 31L65 30L67 30L67 29L68 29L68 28L67 28L67 27L65 27L65 26L64 26L64 25L63 25L63 24L62 24L62 21L63 21L63 20L62 20L62 15L64 15L64 13L63 13L63 12L62 12L62 13L61 13L61 12L60 12L60 11L59 11L59 12L60 12L60 13L58 13L58 12L57 12L57 13L58 13L58 14L56 14L56 13L55 13L55 15L56 15L56 16L55 16L55 18L53 18L53 17L54 17L54 16L53 16L53 15L54 15L54 13L53 13L53 15L51 15L51 14L50 14L50 12L49 12L49 11L48 11L48 12L49 12L49 15L50 15L50 16L49 16L49 17L48 17L48 15L47 15L47 12L45 12L45 11L46 11L46 10L47 10L47 8L45 8L45 9L46 9L46 10L44 10L44 9L43 9L43 10L41 10L41 8L40 8L40 6L41 6L41 7L42 7L42 6L41 6L41 5L40 5L40 1ZM41 1L41 2L42 2L42 1ZM15 2L15 3L16 3L16 2ZM17 2L17 3L19 3L19 2ZM53 2L53 4L55 4L55 2ZM41 3L41 4L43 4L43 7L44 7L44 6L45 6L45 7L46 7L46 6L45 6L45 5L44 5L44 4L43 4L43 3ZM46 3L46 4L47 4L47 3ZM60 3L60 5L61 5L61 3ZM25 4L25 5L26 5L26 4ZM48 4L48 7L49 7L49 4ZM18 5L18 6L17 6L17 7L18 7L18 6L19 6L19 8L20 8L20 5ZM30 5L30 6L29 6L29 7L28 7L28 6L27 6L27 7L28 7L28 8L30 8L30 6L31 6L31 8L32 8L32 6L31 6L31 5ZM33 5L33 8L36 8L36 5ZM39 5L39 6L38 6L38 7L39 7L39 6L40 6L40 5ZM57 5L57 7L58 7L58 8L57 8L57 9L58 9L58 10L59 10L59 9L60 9L60 8L59 8L59 7L58 7L58 5ZM22 6L22 8L24 8L24 9L25 9L25 8L24 8L24 7L23 7L23 6ZM34 6L34 7L35 7L35 6ZM50 6L50 7L51 7L51 6ZM0 8L0 9L1 9L1 10L2 10L2 11L0 11L0 14L1 14L1 16L2 16L2 17L3 17L3 18L2 18L2 19L5 19L5 17L4 17L4 16L5 16L5 15L4 15L4 14L5 14L5 13L3 13L3 11L4 11L4 12L5 12L5 11L7 11L7 10L2 10L2 8ZM4 8L4 9L7 9L7 8ZM39 8L39 9L40 9L40 8ZM58 8L58 9L59 9L59 8ZM63 8L63 9L62 9L62 10L63 10L63 9L64 9L64 10L65 10L65 11L66 11L66 10L67 10L67 9L69 9L69 8L65 8L65 9L64 9L64 8ZM18 9L18 12L20 12L20 13L19 13L19 14L20 14L20 13L23 13L23 12L24 12L24 11L23 11L23 12L20 12L20 11L21 11L21 10L20 10L20 9ZM40 10L40 11L41 11L41 10ZM43 10L43 12L42 12L42 13L41 13L41 14L45 14L45 15L44 15L44 17L43 17L43 15L41 15L41 16L42 16L42 17L38 17L38 16L36 16L36 15L34 15L34 16L36 16L36 17L35 17L35 18L36 18L36 17L38 17L38 20L37 20L37 21L38 21L38 23L39 23L39 24L38 24L38 26L37 26L37 23L35 23L35 22L34 22L34 26L32 26L32 27L31 27L31 28L29 28L29 26L28 26L28 28L27 28L27 27L26 27L26 29L25 29L25 28L24 28L24 27L23 27L23 26L22 26L22 28L20 28L20 31L23 31L23 32L24 32L24 33L23 33L23 35L22 35L22 32L20 32L20 33L19 33L19 32L18 32L18 33L17 33L17 35L16 35L16 32L15 32L15 33L14 33L14 34L15 34L15 36L13 36L13 35L11 35L11 36L13 36L13 37L12 37L12 38L13 38L13 40L12 40L12 41L11 41L11 42L12 42L12 43L15 43L15 44L13 44L13 45L14 45L14 47L15 47L15 48L13 48L13 46L12 46L12 48L10 48L10 47L11 47L11 45L10 45L10 43L9 43L9 41L10 41L10 40L8 40L8 41L7 41L7 42L8 42L8 45L7 45L7 44L6 44L6 45L7 45L7 46L8 46L8 48L6 48L6 49L8 49L8 48L9 48L9 49L12 49L12 48L13 48L13 52L14 52L14 50L15 50L15 51L16 51L16 45L15 45L15 44L17 44L17 45L19 45L19 44L18 44L18 43L17 43L17 42L16 42L16 43L15 43L15 41L16 41L16 40L17 40L17 41L19 41L19 39L20 39L20 42L22 42L22 43L21 43L21 45L20 45L20 46L22 46L22 47L21 47L21 48L20 48L20 47L19 47L19 46L18 46L18 47L17 47L17 49L18 49L18 50L17 50L17 51L18 51L18 53L17 53L17 52L15 52L15 53L17 53L17 54L15 54L15 55L14 55L14 56L13 56L13 57L12 57L12 59L13 59L13 57L14 57L14 56L15 56L15 55L17 55L17 57L15 57L15 58L14 58L14 59L16 59L16 58L17 58L17 59L18 59L18 61L17 61L17 63L15 63L15 62L16 62L16 60L14 60L14 61L13 61L13 60L11 60L11 61L12 61L12 62L14 62L14 63L15 63L15 64L16 64L16 65L17 65L17 63L18 63L18 61L20 61L20 62L23 62L23 61L24 61L24 62L25 62L25 61L24 61L24 59L23 59L23 58L21 58L21 57L24 57L24 58L25 58L25 55L26 55L26 54L28 54L28 53L31 53L31 52L32 52L32 53L33 53L33 54L32 54L32 55L31 55L31 56L29 56L29 57L34 57L34 58L35 58L35 57L36 57L36 59L37 59L37 56L38 56L38 59L39 59L39 61L40 61L40 58L43 58L43 59L42 59L42 60L44 60L44 58L45 58L45 59L46 59L46 60L47 60L47 62L48 62L48 63L49 63L49 62L48 62L48 61L50 61L50 62L52 62L52 61L50 61L50 60L51 60L51 59L52 59L52 58L54 58L54 59L53 59L53 60L54 60L54 61L53 61L53 63L52 63L52 64L51 64L51 63L50 63L50 64L51 64L51 65L50 65L50 66L51 66L51 67L52 67L52 66L51 66L51 65L52 65L52 64L53 64L53 63L54 63L54 62L56 62L56 61L58 61L58 59L57 59L57 58L58 58L58 57L59 57L59 56L60 56L60 57L61 57L61 56L62 56L62 58L64 58L64 57L63 57L63 56L64 56L64 55L63 55L63 56L62 56L62 53L63 53L63 54L64 54L64 53L63 53L63 51L58 51L58 48L60 48L60 49L59 49L59 50L60 50L60 49L62 49L62 50L64 50L64 49L65 49L65 47L66 47L66 46L65 46L65 47L64 47L64 49L63 49L63 48L62 48L62 46L64 46L64 45L63 45L63 44L62 44L62 45L60 45L60 46L58 46L58 45L59 45L59 44L58 44L58 43L55 43L55 42L56 42L56 41L57 41L57 42L58 42L58 41L57 41L57 40L56 40L56 39L58 39L58 37L57 37L57 36L58 36L58 35L59 35L59 34L58 34L58 32L59 32L59 31L60 31L60 30L61 30L61 29L62 29L62 30L64 30L64 28L65 28L65 27L63 27L63 25L62 25L62 24L61 24L61 21L59 21L59 22L58 22L58 21L57 21L57 20L58 20L58 19L59 19L59 18L61 18L61 15L62 15L62 14L63 14L63 13L62 13L62 14L61 14L61 13L60 13L60 14L61 14L61 15L60 15L60 16L59 16L59 14L58 14L58 15L57 15L57 16L56 16L56 17L57 17L57 18L58 18L58 19L57 19L57 20L56 20L56 19L54 19L54 20L53 20L53 22L52 22L52 21L50 21L50 22L51 22L51 24L50 24L50 23L49 23L49 22L48 22L48 25L47 25L47 22L46 22L46 21L49 21L49 20L50 20L50 19L48 19L48 20L47 20L47 18L46 18L46 17L47 17L47 15L46 15L46 13L45 13L45 12L44 12L44 10ZM1 12L1 13L2 13L2 12ZM32 12L32 13L34 13L34 12ZM43 12L43 13L44 13L44 12ZM66 12L66 13L67 13L67 15L68 15L68 14L69 14L69 13L68 13L68 12ZM2 14L2 15L3 15L3 14ZM25 14L25 17L27 17L27 18L28 18L28 17L27 17L27 16L26 16L26 14ZM22 15L22 16L23 16L23 15ZM45 15L45 17L46 17L46 15ZM6 16L6 17L8 17L8 19L9 19L9 18L12 18L12 17L10 17L10 16L9 16L9 17L8 17L8 16ZM50 16L50 18L51 18L51 19L53 19L53 18L52 18L52 16ZM68 16L68 17L69 17L69 16ZM58 17L58 18L59 18L59 17ZM63 17L63 19L64 19L64 17ZM6 18L6 19L7 19L7 18ZM41 18L41 19L42 19L42 21L43 21L43 25L44 25L44 26L45 26L45 25L44 25L44 24L45 24L45 23L46 23L46 22L45 22L45 21L46 21L46 20L45 20L45 19L44 19L44 18ZM34 19L34 20L35 20L35 19ZM10 20L10 21L11 21L11 20ZM40 20L40 21L39 21L39 23L40 23L40 27L37 27L37 26L36 26L36 25L35 25L35 26L34 26L34 27L32 27L32 28L31 28L31 29L33 29L33 30L32 30L32 32L31 32L31 34L30 34L30 35L29 35L29 36L28 36L28 34L29 34L29 33L27 33L27 36L28 36L28 38L30 38L30 37L29 37L29 36L30 36L30 35L31 35L31 36L32 36L32 32L33 32L33 30L34 30L34 31L35 31L35 32L37 32L37 35L39 35L39 36L40 36L40 41L44 41L44 42L43 42L43 43L42 43L42 42L38 42L38 40L39 40L39 38L38 38L38 37L37 37L37 38L36 38L36 39L35 39L35 38L34 38L34 45L32 45L32 44L33 44L33 43L32 43L32 42L33 42L33 41L29 41L29 40L31 40L31 39L32 39L32 40L33 40L33 37L31 37L31 39L28 39L28 44L29 44L29 42L30 42L30 43L32 43L32 44L31 44L31 46L30 46L30 45L26 45L26 44L27 44L27 43L26 43L26 42L27 42L27 41L26 41L26 38L27 38L27 37L26 37L26 34L25 34L25 35L23 35L23 36L22 36L22 35L21 35L21 34L20 34L20 35L18 35L18 36L19 36L19 37L17 37L17 36L15 36L15 37L14 37L14 38L15 38L15 40L14 40L14 41L13 41L13 42L14 42L14 41L15 41L15 40L16 40L16 38L18 38L18 39L19 39L19 38L20 38L20 39L21 39L21 41L22 41L22 42L23 42L23 41L24 41L24 42L25 42L25 43L26 43L26 44L25 44L25 45L26 45L26 47L24 47L24 46L23 46L23 44L24 44L24 43L22 43L22 46L23 46L23 47L22 47L22 49L19 49L19 48L18 48L18 49L19 49L19 50L18 50L18 51L20 51L20 50L22 50L22 53L21 53L21 54L20 54L20 52L19 52L19 53L18 53L18 54L17 54L17 55L18 55L18 54L20 54L20 55L19 55L19 57L17 57L17 58L18 58L18 59L20 59L20 61L23 61L23 60L22 60L22 59L20 59L20 58L19 58L19 57L21 57L21 55L22 55L22 56L23 56L23 52L25 52L25 54L26 54L26 50L24 50L24 51L23 51L23 49L24 49L24 48L27 48L27 51L28 51L28 50L29 50L29 49L28 49L28 47L29 47L29 48L30 48L30 47L32 47L32 46L33 46L33 47L34 47L34 45L35 45L35 46L38 46L38 48L37 48L37 47L35 47L35 48L34 48L34 50L35 50L35 52L34 52L34 54L35 54L35 56L34 56L34 57L35 57L35 56L37 56L37 54L38 54L38 56L39 56L39 55L40 55L40 57L39 57L39 58L40 58L40 57L43 57L43 58L44 58L44 55L45 55L45 53L46 53L46 54L47 54L47 56L49 56L49 54L50 54L50 55L51 55L51 54L50 54L50 53L47 53L47 51L44 51L44 52L42 52L42 51L43 51L43 50L42 50L42 51L40 51L40 50L41 50L41 49L42 49L42 47L44 47L44 48L43 48L43 49L44 49L44 50L45 50L45 49L44 49L44 48L45 48L45 47L47 47L47 48L49 48L49 46L50 46L50 44L51 44L51 43L52 43L52 45L51 45L51 46L53 46L53 45L55 45L55 46L54 46L54 48L52 48L52 49L51 49L51 50L52 50L52 49L56 49L56 52L55 52L55 50L53 50L53 51L51 51L51 53L52 53L52 57L54 57L54 56L55 56L55 57L56 57L56 54L57 54L57 57L58 57L58 54L60 54L60 55L61 55L61 53L62 53L62 52L58 52L58 54L57 54L57 53L56 53L56 52L57 52L57 49L56 49L56 47L55 47L55 46L56 46L56 44L55 44L55 43L54 43L54 42L53 42L53 39L52 39L52 41L51 41L51 40L49 40L49 41L48 41L48 42L47 42L47 39L48 39L48 38L47 38L47 37L46 37L46 35L47 35L47 34L48 34L48 33L46 33L46 35L45 35L45 37L46 37L46 42L45 42L45 41L44 41L44 40L45 40L45 38L44 38L44 37L43 37L43 36L41 36L41 35L39 35L39 34L38 34L38 33L39 33L39 32L40 32L40 33L44 33L44 34L43 34L43 35L44 35L44 34L45 34L45 33L44 33L44 31L45 31L45 30L44 30L44 28L43 28L43 26L41 26L41 23L40 23L40 22L41 22L41 20ZM44 20L44 21L45 21L45 20ZM55 20L55 22L53 22L53 24L52 24L52 26L50 26L50 25L48 25L48 27L47 27L47 28L46 28L46 27L45 27L45 29L46 29L46 30L47 30L47 32L50 32L50 31L51 31L51 30L50 30L50 29L54 29L54 28L55 28L55 29L56 29L56 30L53 30L53 31L54 31L54 32L52 32L52 33L51 33L51 36L50 36L50 37L49 37L49 39L51 39L51 38L52 38L52 37L53 37L53 36L54 36L54 37L55 37L55 38L54 38L54 40L55 40L55 41L56 41L56 40L55 40L55 39L56 39L56 35L54 35L54 34L53 34L53 33L55 33L55 31L56 31L56 30L57 30L57 29L58 29L58 31L57 31L57 32L58 32L58 31L59 31L59 29L60 29L60 28L59 28L59 25L61 25L61 26L62 26L62 25L61 25L61 24L60 24L60 23L59 23L59 25L58 25L58 28L57 28L57 25L56 25L56 23L57 23L57 24L58 24L58 23L57 23L57 22L56 22L56 20ZM55 22L55 23L54 23L54 24L55 24L55 23L56 23L56 22ZM46 25L46 26L47 26L47 25ZM54 25L54 27L53 27L53 28L54 28L54 27L55 27L55 28L56 28L56 29L57 29L57 28L56 28L56 26L55 26L55 25ZM4 26L4 27L5 27L5 26ZM6 26L6 27L7 27L7 26ZM34 27L34 28L33 28L33 29L34 29L34 30L35 30L35 31L36 31L36 29L34 29L34 28L35 28L35 27ZM40 27L40 28L39 28L39 29L38 29L38 28L37 28L37 29L38 29L38 31L40 31L40 32L41 32L41 31L40 31L40 30L39 30L39 29L40 29L40 28L41 28L41 29L42 29L42 31L44 31L44 30L43 30L43 28L42 28L42 27ZM48 27L48 28L47 28L47 30L48 30L48 31L50 31L50 30L49 30L49 28L50 28L50 27ZM62 27L62 28L63 28L63 27ZM22 28L22 30L23 30L23 28ZM58 28L58 29L59 29L59 28ZM1 29L1 30L2 30L2 29ZM27 29L27 30L25 30L25 31L27 31L27 30L29 30L29 31L28 31L28 32L29 32L29 31L30 31L30 30L29 30L29 29ZM3 30L3 31L1 31L1 33L2 33L2 32L3 32L3 31L4 31L4 30ZM10 30L10 31L11 31L11 30ZM25 32L25 33L26 33L26 32ZM5 33L5 36L8 36L8 33ZM33 33L33 36L36 36L36 33ZM49 33L49 35L50 35L50 33ZM61 33L61 36L64 36L64 33ZM6 34L6 35L7 35L7 34ZM34 34L34 35L35 35L35 34ZM52 34L52 36L51 36L51 37L50 37L50 38L51 38L51 37L52 37L52 36L53 36L53 34ZM62 34L62 35L63 35L63 34ZM20 36L20 38L21 38L21 39L22 39L22 40L24 40L24 41L25 41L25 42L26 42L26 41L25 41L25 38L26 38L26 37L22 37L22 36ZM15 37L15 38L16 38L16 37ZM21 37L21 38L22 38L22 37ZM41 37L41 39L42 39L42 38L43 38L43 39L44 39L44 38L43 38L43 37ZM59 37L59 38L60 38L60 37ZM6 38L6 39L7 39L7 38ZM10 38L10 39L11 39L11 38ZM37 38L37 40L38 40L38 38ZM35 40L35 42L37 42L37 43L38 43L38 44L35 44L35 45L38 45L38 46L39 46L39 48L38 48L38 50L37 50L37 51L38 51L38 52L37 52L37 53L38 53L38 54L40 54L40 55L41 55L41 56L43 56L43 55L41 55L41 54L44 54L44 53L45 53L45 52L44 52L44 53L41 53L41 54L40 54L40 51L39 51L39 49L40 49L40 46L39 46L39 45L40 45L40 43L38 43L38 42L37 42L37 41L36 41L36 40ZM50 41L50 42L51 42L51 41ZM2 42L2 44L3 44L3 42ZM44 42L44 43L45 43L45 42ZM41 43L41 47L42 47L42 46L44 46L44 45L48 45L48 46L49 46L49 44L48 44L48 43L46 43L46 44L44 44L44 45L43 45L43 44L42 44L42 43ZM53 43L53 44L54 44L54 43ZM60 43L60 44L61 44L61 43ZM64 43L64 44L65 44L65 43ZM57 44L57 45L58 45L58 44ZM9 45L9 47L10 47L10 45ZM4 46L4 47L5 47L5 46ZM57 46L57 48L58 48L58 46ZM60 46L60 47L61 47L61 46ZM23 47L23 48L24 48L24 47ZM50 47L50 48L51 48L51 47ZM32 48L32 49L30 49L30 50L31 50L31 51L29 51L29 52L31 52L31 51L32 51L32 52L33 52L33 50L32 50L32 49L33 49L33 48ZM35 48L35 49L37 49L37 48ZM0 49L0 50L1 50L1 52L0 52L0 55L2 55L2 54L3 54L3 55L4 55L4 54L5 54L5 53L2 53L2 52L3 52L3 51L2 51L2 50L1 50L1 49ZM46 49L46 50L50 50L50 49ZM66 49L66 50L65 50L65 51L64 51L64 52L65 52L65 51L67 51L67 49ZM48 51L48 52L50 52L50 51ZM27 52L27 53L28 53L28 52ZM38 52L38 53L39 53L39 52ZM53 52L53 53L54 53L54 55L53 55L53 56L54 56L54 55L55 55L55 54L56 54L56 53L55 53L55 52ZM32 55L32 56L33 56L33 55ZM50 56L50 57L51 57L51 56ZM6 57L6 58L7 58L7 59L8 59L8 58L9 58L9 57L8 57L8 58L7 58L7 57ZM46 57L46 58L47 58L47 57ZM32 58L32 59L33 59L33 58ZM48 58L48 60L50 60L50 59L49 59L49 58ZM55 59L55 61L56 61L56 60L57 60L57 59ZM3 60L3 61L5 61L5 60ZM14 61L14 62L15 62L15 61ZM33 61L33 64L36 64L36 61ZM61 61L61 64L64 64L64 61ZM34 62L34 63L35 63L35 62ZM62 62L62 63L63 63L63 62ZM12 63L12 64L13 64L13 63ZM55 63L55 64L56 64L56 63ZM57 63L57 64L58 64L58 63ZM30 65L30 66L31 66L31 67L32 67L32 65ZM34 65L34 66L35 66L35 67L36 67L36 68L37 68L37 67L36 67L36 66L35 66L35 65ZM37 65L37 66L38 66L38 65ZM24 66L24 67L27 67L27 68L28 68L28 67L27 67L27 66ZM62 66L62 67L63 67L63 66ZM54 68L54 69L55 69L55 68ZM56 68L56 69L57 69L57 68ZM68 68L68 69L69 69L69 68ZM0 0L0 7L7 7L7 0ZM1 1L1 6L6 6L6 1ZM2 2L2 5L5 5L5 2ZM62 0L62 7L69 7L69 0ZM63 1L63 6L68 6L68 1ZM64 2L64 5L67 5L67 2ZM0 62L0 69L7 69L7 62ZM1 63L1 68L6 68L6 63ZM2 64L2 67L5 67L5 64Z" fill="#000000"/></g></g></svg>
