<?xml version="1.0" encoding="UTF-8"?>
<svg xmlns="http://www.w3.org/2000/svg" version="1.1" width="300" height="300" viewBox="0 0 300 300"><rect x="0" y="0" width="300" height="300" fill="#ffffff"/><g transform="scale(4.348)"><g transform="translate(0,0)"><path fill-rule="evenodd" d="M8 0L8 4L9 4L9 2L11 2L11 3L12 3L12 1L13 1L13 2L14 2L14 3L13 3L13 5L12 5L12 7L11 7L11 5L10 5L10 7L9 7L9 5L8 5L8 7L9 7L9 8L10 8L10 9L9 9L9 13L8 13L8 12L6 12L6 11L8 11L8 9L7 9L7 8L4 8L4 9L3 9L3 10L2 10L2 8L0 8L0 9L1 9L1 10L0 10L0 11L1 11L1 12L0 12L0 15L1 15L1 16L0 16L0 17L1 17L1 19L0 19L0 23L3 23L3 24L4 24L4 23L5 23L5 21L7 21L7 22L6 22L6 23L7 23L7 24L6 24L6 25L4 25L4 26L6 26L6 27L4 27L4 28L3 28L3 29L4 29L4 28L6 28L6 29L5 29L5 30L4 30L4 31L5 31L5 32L4 32L4 33L3 33L3 32L2 32L2 33L3 33L3 34L2 34L2 36L1 36L1 37L0 37L0 38L1 38L1 39L0 39L0 44L2 44L2 43L3 43L3 45L4 45L4 46L5 46L5 45L9 45L9 43L10 43L10 47L9 47L9 48L8 48L8 49L7 49L7 48L5 48L5 47L3 47L3 48L1 48L1 47L2 47L2 45L0 45L0 46L1 46L1 47L0 47L0 48L1 48L1 50L2 50L2 51L0 51L0 53L1 53L1 52L2 52L2 54L0 54L0 55L2 55L2 56L0 56L0 57L1 57L1 58L0 58L0 61L1 61L1 58L2 58L2 59L3 59L3 58L4 58L4 59L7 59L7 58L8 58L8 57L13 57L13 56L12 56L12 55L13 55L13 53L12 53L12 54L11 54L11 53L10 53L10 52L9 52L9 51L7 51L7 50L11 50L11 49L10 49L10 48L11 48L11 47L12 47L12 48L13 48L13 50L14 50L14 52L15 52L15 54L14 54L14 55L15 55L15 56L17 56L17 57L15 57L15 59L16 59L16 58L17 58L17 57L19 57L19 55L18 55L18 53L20 53L20 55L21 55L21 56L20 56L20 59L19 59L19 60L18 60L18 61L17 61L17 63L15 63L15 62L16 62L16 61L15 61L15 60L14 60L14 61L13 61L13 62L11 62L11 60L12 60L12 58L9 58L9 59L8 59L8 60L6 60L6 61L8 61L8 62L9 62L9 61L8 61L8 60L9 60L9 59L11 59L11 60L10 60L10 63L11 63L11 64L10 64L10 66L9 66L9 67L8 67L8 69L12 69L12 68L11 68L11 67L12 67L12 65L13 65L13 66L14 66L14 67L15 67L15 66L16 66L16 68L17 68L17 69L19 69L19 67L20 67L20 66L21 66L21 65L22 65L22 64L20 64L20 63L26 63L26 64L27 64L27 62L28 62L28 61L27 61L27 60L28 60L28 59L29 59L29 63L28 63L28 64L29 64L29 65L23 65L23 66L27 66L27 67L28 67L28 66L30 66L30 65L31 65L31 68L30 68L30 67L29 67L29 69L31 69L31 68L32 68L32 69L33 69L33 68L32 68L32 67L33 67L33 66L32 66L32 65L38 65L38 67L39 67L39 68L38 68L38 69L40 69L40 67L39 67L39 66L40 66L40 63L41 63L41 67L43 67L43 63L44 63L44 69L46 69L46 67L45 67L45 63L44 63L44 62L43 62L43 61L42 61L42 58L45 58L45 59L44 59L44 61L45 61L45 62L46 62L46 60L47 60L47 63L46 63L46 64L47 64L47 66L48 66L48 67L47 67L47 69L50 69L50 68L48 68L48 67L50 67L50 66L51 66L51 67L52 67L52 68L51 68L51 69L52 69L52 68L55 68L55 69L59 69L59 68L60 68L60 69L61 69L61 68L62 68L62 69L63 69L63 68L62 68L62 67L63 67L63 66L64 66L64 67L65 67L65 63L66 63L66 62L67 62L67 63L68 63L68 62L67 62L67 61L69 61L69 60L68 60L68 58L69 58L69 56L68 56L68 55L67 55L67 56L68 56L68 58L67 58L67 60L65 60L65 59L64 59L64 60L63 60L63 59L62 59L62 58L64 58L64 57L63 57L63 56L64 56L64 55L65 55L65 54L64 54L64 53L63 53L63 51L64 51L64 49L65 49L65 48L64 48L64 47L66 47L66 46L67 46L67 47L68 47L68 48L67 48L67 49L68 49L68 48L69 48L69 47L68 47L68 46L69 46L69 43L68 43L68 42L67 42L67 41L66 41L66 42L67 42L67 43L68 43L68 44L65 44L65 45L66 45L66 46L64 46L64 45L63 45L63 43L60 43L60 42L61 42L61 41L59 41L59 40L61 40L61 39L62 39L62 37L65 37L65 38L64 38L64 39L63 39L63 40L62 40L62 42L64 42L64 43L65 43L65 42L64 42L64 41L65 41L65 40L64 40L64 39L66 39L66 38L67 38L67 39L68 39L68 38L69 38L69 35L68 35L68 32L69 32L69 31L68 31L68 30L65 30L65 29L66 29L66 27L63 27L63 26L65 26L65 25L67 25L67 27L68 27L68 28L67 28L67 29L68 29L68 28L69 28L69 27L68 27L68 21L69 21L69 20L68 20L68 18L67 18L67 16L66 16L66 17L64 17L64 16L65 16L65 15L64 15L64 14L65 14L65 13L67 13L67 12L65 12L65 13L64 13L64 11L68 11L68 9L69 9L69 8L65 8L65 9L64 9L64 8L63 8L63 9L60 9L60 7L61 7L61 6L60 6L60 7L59 7L59 4L58 4L58 3L59 3L59 2L57 2L57 0L53 0L53 2L52 2L52 4L51 4L51 3L50 3L50 2L51 2L51 1L52 1L52 0L50 0L50 1L48 1L48 0L47 0L47 2L46 2L46 0L45 0L45 1L44 1L44 0L40 0L40 4L38 4L38 3L36 3L36 2L38 2L38 1L39 1L39 0L38 0L38 1L36 1L36 0L34 0L34 3L33 3L33 2L32 2L32 1L33 1L33 0L32 0L32 1L31 1L31 0L30 0L30 1L29 1L29 0L23 0L23 1L24 1L24 2L25 2L25 3L23 3L23 2L22 2L22 1L21 1L21 0L16 0L16 1L15 1L15 0L12 0L12 1L10 1L10 0ZM58 0L58 1L61 1L61 0ZM14 1L14 2L15 2L15 5L14 5L14 6L13 6L13 7L14 7L14 9L13 9L13 8L12 8L12 9L11 9L11 10L10 10L10 11L11 11L11 10L14 10L14 9L16 9L16 12L13 12L13 13L14 13L14 15L15 15L15 13L17 13L17 14L16 14L16 16L14 16L14 17L15 17L15 18L16 18L16 17L17 17L17 18L18 18L18 20L17 20L17 21L18 21L18 22L16 22L16 23L17 23L17 24L15 24L15 22L14 22L14 23L13 23L13 21L14 21L14 20L15 20L15 21L16 21L16 20L15 20L15 19L14 19L14 20L13 20L13 21L12 21L12 19L13 19L13 18L12 18L12 17L11 17L11 16L13 16L13 15L11 15L11 12L10 12L10 13L9 13L9 14L8 14L8 13L5 13L5 12L4 12L4 11L5 11L5 9L4 9L4 10L3 10L3 12L1 12L1 13L2 13L2 14L1 14L1 15L2 15L2 16L1 16L1 17L3 17L3 18L2 18L2 19L1 19L1 20L2 20L2 22L3 22L3 23L4 23L4 20L8 20L8 22L7 22L7 23L8 23L8 22L9 22L9 23L12 23L12 24L15 24L15 25L17 25L17 24L19 24L19 25L18 25L18 26L16 26L16 27L15 27L15 29L16 29L16 30L18 30L18 31L17 31L17 33L16 33L16 35L17 35L17 36L14 36L14 37L13 37L13 33L14 33L14 32L16 32L16 31L14 31L14 30L13 30L13 31L14 31L14 32L13 32L13 33L10 33L10 32L11 32L11 31L12 31L12 30L11 30L11 31L8 31L8 32L9 32L9 33L10 33L10 34L9 34L9 35L10 35L10 34L11 34L11 36L9 36L9 38L10 38L10 40L9 40L9 42L10 42L10 43L11 43L11 46L13 46L13 45L16 45L16 46L14 46L14 47L13 47L13 48L15 48L15 49L16 49L16 52L17 52L17 53L16 53L16 54L15 54L15 55L16 55L16 54L17 54L17 53L18 53L18 52L19 52L19 51L20 51L20 50L21 50L21 51L22 51L22 50L21 50L21 49L23 49L23 48L21 48L21 49L19 49L19 48L20 48L20 45L19 45L19 48L18 48L18 49L17 49L17 47L18 47L18 46L17 46L17 44L18 44L18 43L19 43L19 42L20 42L20 41L22 41L22 42L21 42L21 43L20 43L20 44L22 44L22 47L26 47L26 48L28 48L28 49L27 49L27 50L26 50L26 49L25 49L25 51L24 51L24 52L22 52L22 53L21 53L21 55L22 55L22 56L23 56L23 53L26 53L26 55L25 55L25 56L26 56L26 55L28 55L28 54L30 54L30 55L29 55L29 56L28 56L28 58L27 58L27 57L25 57L25 58L24 58L24 57L21 57L21 59L22 59L22 61L21 61L21 62L23 62L23 61L25 61L25 62L26 62L26 60L27 60L27 59L28 59L28 58L29 58L29 59L31 59L31 60L32 60L32 58L33 58L33 59L35 59L35 60L38 60L38 61L37 61L37 62L38 62L38 63L40 63L40 62L41 62L41 60L39 60L39 58L40 58L40 59L41 59L41 58L40 58L40 57L41 57L41 56L42 56L42 57L44 57L44 54L45 54L45 53L46 53L46 54L48 54L48 53L46 53L46 52L47 52L47 51L49 51L49 57L48 57L48 55L47 55L47 57L46 57L46 58L48 58L48 59L50 59L50 60L49 60L49 64L51 64L51 62L53 62L53 63L52 63L52 65L53 65L53 66L52 66L52 67L54 67L54 65L55 65L55 66L56 66L56 67L57 67L57 68L58 68L58 67L61 67L61 66L62 66L62 65L61 65L61 66L60 66L60 64L59 64L59 63L60 63L60 60L59 60L59 59L58 59L58 58L62 58L62 57L60 57L60 55L59 55L59 57L58 57L58 56L57 56L57 57L56 57L56 55L58 55L58 54L62 54L62 55L64 55L64 54L62 54L62 53L60 53L60 51L63 51L63 50L62 50L62 49L64 49L64 48L63 48L63 46L62 46L62 45L60 45L60 44L59 44L59 45L58 45L58 46L62 46L62 49L61 49L61 48L59 48L59 47L55 47L55 46L53 46L53 48L52 48L52 47L50 47L50 48L52 48L52 49L51 49L51 50L50 50L50 49L49 49L49 50L48 50L48 49L47 49L47 48L49 48L49 47L47 47L47 48L45 48L45 47L46 47L46 46L47 46L47 45L46 45L46 44L48 44L48 43L49 43L49 45L51 45L51 46L52 46L52 45L53 45L53 44L55 44L55 45L56 45L56 46L57 46L57 45L56 45L56 44L55 44L55 43L57 43L57 44L58 44L58 42L59 42L59 41L58 41L58 40L57 40L57 37L58 37L58 39L59 39L59 37L58 37L58 36L57 36L57 33L56 33L56 32L55 32L55 31L56 31L56 30L57 30L57 31L58 31L58 35L59 35L59 32L61 32L61 31L63 31L63 32L66 32L66 34L65 34L65 36L67 36L67 38L68 38L68 35L67 35L67 32L68 32L68 31L65 31L65 30L64 30L64 29L65 29L65 28L64 28L64 29L63 29L63 30L62 30L62 28L61 28L61 27L60 27L60 26L59 26L59 25L58 25L58 26L59 26L59 27L57 27L57 26L56 26L56 25L55 25L55 23L56 23L56 22L57 22L57 21L55 21L55 22L53 22L53 19L54 19L54 18L53 18L53 17L54 17L54 16L53 16L53 15L54 15L54 14L53 14L53 13L54 13L54 12L52 12L52 11L51 11L51 12L50 12L50 11L49 11L49 12L50 12L50 13L49 13L49 15L47 15L47 16L49 16L49 15L50 15L50 13L51 13L51 12L52 12L52 14L51 14L51 16L50 16L50 17L49 17L49 18L48 18L48 19L47 19L47 17L46 17L46 16L45 16L45 19L44 19L44 18L41 18L41 17L42 17L42 16L40 16L40 19L39 19L39 18L38 18L38 17L39 17L39 16L38 16L38 13L39 13L39 15L42 15L42 13L44 13L44 12L46 12L46 14L47 14L47 12L46 12L46 10L47 10L47 8L49 8L49 7L50 7L50 9L49 9L49 10L50 10L50 9L51 9L51 7L52 7L52 6L53 6L53 8L52 8L52 9L54 9L54 8L55 8L55 11L56 11L56 8L57 8L57 11L59 11L59 9L58 9L58 8L59 8L59 7L58 7L58 6L57 6L57 7L56 7L56 6L55 6L55 7L54 7L54 6L53 6L53 5L51 5L51 7L50 7L50 3L48 3L48 2L47 2L47 3L48 3L48 4L46 4L46 5L44 5L44 4L45 4L45 3L46 3L46 2L45 2L45 3L44 3L44 2L42 2L42 1L41 1L41 4L40 4L40 6L39 6L39 8L40 8L40 10L38 10L38 9L37 9L37 10L38 10L38 11L37 11L37 12L36 12L36 13L33 13L33 14L30 14L30 13L29 13L29 12L31 12L31 13L32 13L32 12L33 12L33 11L34 11L34 9L33 9L33 10L32 10L32 6L31 6L31 5L32 5L32 3L30 3L30 2L28 2L28 1L25 1L25 2L27 2L27 3L26 3L26 4L27 4L27 3L29 3L29 4L28 4L28 5L27 5L27 7L26 7L26 6L25 6L25 7L24 7L24 6L23 6L23 5L21 5L21 7L20 7L20 4L19 4L19 3L21 3L21 4L22 4L22 2L20 2L20 1L19 1L19 3L18 3L18 2L17 2L17 1L16 1L16 2L15 2L15 1ZM55 1L55 2L56 2L56 1ZM16 3L16 5L15 5L15 6L14 6L14 7L15 7L15 6L16 6L16 7L17 7L17 9L20 9L20 10L17 10L17 11L20 11L20 10L21 10L21 12L17 12L17 13L18 13L18 15L17 15L17 17L18 17L18 18L19 18L19 17L22 17L22 15L21 15L21 13L22 13L22 9L20 9L20 7L19 7L19 5L18 5L18 3ZM35 3L35 4L36 4L36 3ZM42 3L42 4L41 4L41 5L42 5L42 7L41 7L41 6L40 6L40 8L43 8L43 6L44 6L44 7L45 7L45 8L44 8L44 9L45 9L45 10L46 10L46 9L45 9L45 8L47 8L47 6L48 6L48 7L49 7L49 5L47 5L47 6L46 6L46 7L45 7L45 6L44 6L44 5L43 5L43 4L44 4L44 3ZM54 3L54 4L55 4L55 3ZM56 3L56 5L57 5L57 3ZM60 3L60 5L61 5L61 3ZM29 4L29 5L28 5L28 7L27 7L27 8L26 8L26 7L25 7L25 8L24 8L24 7L23 7L23 6L22 6L22 8L24 8L24 9L23 9L23 11L24 11L24 13L23 13L23 16L24 16L24 17L23 17L23 18L25 18L25 19L26 19L26 18L27 18L27 17L28 17L28 16L29 16L29 18L28 18L28 19L27 19L27 20L26 20L26 21L23 21L23 22L24 22L24 23L23 23L23 24L22 24L22 23L21 23L21 21L22 21L22 20L23 20L23 19L22 19L22 18L20 18L20 19L19 19L19 20L18 20L18 21L20 21L20 22L18 22L18 23L19 23L19 24L20 24L20 26L21 26L21 25L24 25L24 26L26 26L26 27L25 27L25 28L26 28L26 29L24 29L24 27L23 27L23 26L22 26L22 27L20 27L20 28L19 28L19 26L18 26L18 28L17 28L17 29L18 29L18 30L19 30L19 32L18 32L18 33L17 33L17 35L18 35L18 36L17 36L17 38L19 38L19 40L18 40L18 39L16 39L16 37L15 37L15 39L14 39L14 38L13 38L13 37L12 37L12 38L11 38L11 39L12 39L12 38L13 38L13 40L15 40L15 41L14 41L14 42L15 42L15 41L16 41L16 40L17 40L17 42L16 42L16 43L15 43L15 44L17 44L17 42L18 42L18 41L19 41L19 40L21 40L21 39L22 39L22 40L24 40L24 41L23 41L23 43L22 43L22 44L23 44L23 43L24 43L24 45L23 45L23 46L26 46L26 45L29 45L29 47L28 47L28 48L29 48L29 50L28 50L28 51L27 51L27 52L26 52L26 51L25 51L25 52L26 52L26 53L30 53L30 54L31 54L31 53L33 53L33 54L32 54L32 56L30 56L30 57L29 57L29 58L32 58L32 56L33 56L33 57L34 57L34 58L37 58L37 59L38 59L38 58L39 58L39 57L40 57L40 55L41 55L41 54L42 54L42 55L43 55L43 54L44 54L44 53L45 53L45 50L46 50L46 51L47 51L47 50L46 50L46 49L45 49L45 48L44 48L44 47L43 47L43 44L41 44L41 43L39 43L39 44L38 44L38 42L43 42L43 39L45 39L45 40L44 40L44 46L46 46L46 45L45 45L45 44L46 44L46 43L45 43L45 42L46 42L46 37L47 37L47 41L49 41L49 40L51 40L51 38L52 38L52 39L54 39L54 38L55 38L55 36L54 36L54 37L52 37L52 36L53 36L53 35L54 35L54 34L55 34L55 35L56 35L56 33L55 33L55 32L54 32L54 31L53 31L53 30L56 30L56 29L57 29L57 30L58 30L58 31L60 31L60 30L61 30L61 28L59 28L59 30L58 30L58 28L57 28L57 27L56 27L56 26L55 26L55 25L52 25L52 24L54 24L54 23L53 23L53 22L52 22L52 21L50 21L50 22L49 22L49 20L50 20L50 19L53 19L53 18L52 18L52 17L50 17L50 19L49 19L49 20L47 20L47 19L46 19L46 20L44 20L44 23L45 23L45 24L44 24L44 25L43 25L43 24L42 24L42 25L41 25L41 26L43 26L43 28L42 28L42 27L40 27L40 23L41 23L41 21L42 21L42 23L43 23L43 21L42 21L42 20L43 20L43 19L41 19L41 21L40 21L40 20L39 20L39 19L37 19L37 20L36 20L36 22L37 22L37 21L38 21L38 20L39 20L39 21L40 21L40 23L39 23L39 24L38 24L38 26L37 26L37 25L35 25L35 24L36 24L36 23L34 23L34 22L35 22L35 18L36 18L36 17L37 17L37 16L36 16L36 15L35 15L35 14L34 14L34 15L33 15L33 17L34 17L34 19L33 19L33 23L34 23L34 25L35 25L35 27L34 27L34 26L33 26L33 25L32 25L32 23L31 23L31 24L30 24L30 25L29 25L29 26L28 26L28 23L30 23L30 21L31 21L31 22L32 22L32 19L31 19L31 20L30 20L30 21L29 21L29 18L31 18L31 17L32 17L32 15L30 15L30 14L28 14L28 13L27 13L27 12L29 12L29 11L28 11L28 10L26 10L26 9L30 9L30 10L31 10L31 11L32 11L32 10L31 10L31 9L30 9L30 8L31 8L31 6L30 6L30 5L31 5L31 4ZM33 5L33 8L36 8L36 5ZM37 5L37 8L38 8L38 5ZM17 6L17 7L18 7L18 8L19 8L19 7L18 7L18 6ZM29 6L29 7L30 7L30 6ZM34 6L34 7L35 7L35 6ZM57 7L57 8L58 8L58 7ZM25 8L25 9L24 9L24 10L25 10L25 9L26 9L26 8ZM6 9L6 10L7 10L7 9ZM35 9L35 11L36 11L36 9ZM41 9L41 10L40 10L40 11L38 11L38 12L37 12L37 13L36 13L36 14L37 14L37 13L38 13L38 12L39 12L39 13L40 13L40 14L41 14L41 10L42 10L42 12L44 12L44 11L43 11L43 9ZM65 9L65 10L67 10L67 9ZM1 10L1 11L2 11L2 10ZM60 10L60 13L59 13L59 12L57 12L57 13L56 13L56 12L55 12L55 14L56 14L56 16L55 16L55 19L58 19L58 22L60 22L60 23L59 23L59 24L60 24L60 25L61 25L61 24L63 24L63 22L64 22L64 23L65 23L65 24L64 24L64 25L65 25L65 24L67 24L67 21L68 21L68 20L67 20L67 18L65 18L65 20L64 20L64 17L63 17L63 20L64 20L64 21L63 21L63 22L62 22L62 13L63 13L63 14L64 14L64 13L63 13L63 12L62 12L62 11L61 11L61 10ZM63 10L63 11L64 11L64 10ZM26 11L26 12L25 12L25 15L24 15L24 16L25 16L25 15L26 15L26 16L28 16L28 15L27 15L27 13L26 13L26 12L27 12L27 11ZM61 12L61 13L60 13L60 14L61 14L61 13L62 13L62 12ZM3 13L3 16L4 16L4 18L3 18L3 20L4 20L4 19L5 19L5 16L6 16L6 17L8 17L8 18L6 18L6 19L8 19L8 18L9 18L9 19L10 19L10 17L9 17L9 16L11 16L11 15L9 15L9 16L6 16L6 15L7 15L7 14L6 14L6 15L5 15L5 16L4 16L4 14L5 14L5 13ZM19 13L19 16L18 16L18 17L19 17L19 16L21 16L21 15L20 15L20 13ZM57 13L57 16L56 16L56 18L58 18L58 19L59 19L59 21L60 21L60 22L61 22L61 23L60 23L60 24L61 24L61 23L62 23L62 22L61 22L61 21L60 21L60 19L59 19L59 18L61 18L61 16L60 16L60 15L59 15L59 14L58 14L58 13ZM68 13L68 14L67 14L67 15L68 15L68 17L69 17L69 15L68 15L68 14L69 14L69 13ZM43 14L43 17L44 17L44 15L45 15L45 14ZM52 14L52 15L53 15L53 14ZM58 15L58 16L57 16L57 17L58 17L58 18L59 18L59 15ZM34 16L34 17L35 17L35 16ZM25 17L25 18L26 18L26 17ZM10 20L10 21L9 21L9 22L10 22L10 21L11 21L11 22L12 22L12 21L11 21L11 20ZM27 21L27 22L26 22L26 24L25 24L25 23L24 23L24 24L25 24L25 25L26 25L26 24L27 24L27 23L28 23L28 22L29 22L29 21ZM46 21L46 22L47 22L47 25L46 25L46 26L47 26L47 25L48 25L48 27L49 27L49 28L50 28L50 29L48 29L48 30L47 30L47 29L46 29L46 28L47 28L47 27L45 27L45 29L46 29L46 30L45 30L45 31L50 31L50 29L51 29L51 30L52 30L52 29L53 29L53 28L54 28L54 29L56 29L56 27L55 27L55 26L53 26L53 28L52 28L52 29L51 29L51 28L50 28L50 27L51 27L51 26L50 26L50 25L48 25L48 23L49 23L49 24L52 24L52 22L50 22L50 23L49 23L49 22L47 22L47 21ZM65 21L65 23L66 23L66 21ZM20 23L20 24L21 24L21 23ZM8 24L8 25L6 25L6 26L7 26L7 27L6 27L6 28L7 28L7 29L6 29L6 30L5 30L5 31L6 31L6 32L7 32L7 31L6 31L6 30L9 30L9 29L12 29L12 27L13 27L13 26L14 26L14 25L12 25L12 26L10 26L10 27L9 27L9 28L7 28L7 27L8 27L8 26L9 26L9 24ZM10 24L10 25L11 25L11 24ZM0 25L0 27L1 27L1 29L0 29L0 32L1 32L1 29L2 29L2 27L1 27L1 25ZM2 25L2 26L3 26L3 25ZM31 25L31 26L29 26L29 27L26 27L26 28L29 28L29 27L30 27L30 28L31 28L31 27L33 27L33 28L32 28L32 29L31 29L31 31L29 31L29 32L28 32L28 30L29 30L29 29L27 29L27 32L26 32L26 31L25 31L25 30L24 30L24 29L23 29L23 27L22 27L22 29L21 29L21 28L20 28L20 29L19 29L19 30L20 30L20 29L21 29L21 31L20 31L20 32L19 32L19 33L20 33L20 32L22 32L22 33L23 33L23 34L20 34L20 35L19 35L19 34L18 34L18 35L19 35L19 36L21 36L21 35L22 35L22 38L24 38L24 39L25 39L25 41L24 41L24 42L26 42L26 39L27 39L27 41L28 41L28 42L27 42L27 43L28 43L28 44L32 44L32 45L33 45L33 47L32 47L32 46L31 46L31 45L30 45L30 47L29 47L29 48L30 48L30 47L31 47L31 48L32 48L32 49L31 49L31 52L32 52L32 50L35 50L35 49L36 49L36 51L35 51L35 52L34 52L34 51L33 51L33 53L34 53L34 54L33 54L33 55L35 55L35 56L34 56L34 57L35 57L35 56L38 56L38 57L37 57L37 58L38 58L38 57L39 57L39 53L44 53L44 51L43 51L43 50L42 50L42 52L41 52L41 49L42 49L42 45L41 45L41 46L40 46L40 45L39 45L39 46L38 46L38 45L37 45L37 43L36 43L36 42L35 42L35 40L34 40L34 39L36 39L36 40L38 40L38 41L37 41L37 42L38 42L38 41L39 41L39 38L41 38L41 39L40 39L40 41L41 41L41 39L43 39L43 38L45 38L45 37L46 37L46 34L49 34L49 35L47 35L47 36L49 36L49 37L51 37L51 36L52 36L52 34L53 34L53 33L54 33L54 32L53 32L53 31L51 31L51 33L52 33L52 34L51 34L51 35L50 35L50 32L49 32L49 33L46 33L46 34L45 34L45 33L44 33L44 31L40 31L40 33L44 33L44 34L43 34L43 35L42 35L42 36L40 36L40 35L41 35L41 34L39 34L39 35L38 35L38 32L37 32L37 37L36 37L36 38L35 38L35 37L32 37L32 36L31 36L31 35L32 35L32 34L31 34L31 33L32 33L32 32L35 32L35 31L38 31L38 29L40 29L40 30L42 30L42 28L40 28L40 27L39 27L39 28L38 28L38 29L37 29L37 30L34 30L34 31L33 31L33 29L36 29L36 28L37 28L37 26L36 26L36 27L35 27L35 28L34 28L34 27L33 27L33 26L32 26L32 25ZM43 28L43 29L44 29L44 28ZM2 30L2 31L3 31L3 30ZM22 30L22 31L23 31L23 30ZM63 30L63 31L64 31L64 30ZM24 31L24 32L23 32L23 33L24 33L24 34L27 34L27 35L26 35L26 37L24 37L24 36L23 36L23 37L24 37L24 38L25 38L25 39L26 39L26 37L27 37L27 39L28 39L28 41L30 41L30 42L32 42L32 41L34 41L34 40L32 40L32 39L31 39L31 36L30 36L30 33L31 33L31 32L32 32L32 31L31 31L31 32L30 32L30 33L24 33L24 32L25 32L25 31ZM0 33L0 34L1 34L1 33ZM5 33L5 36L8 36L8 33ZM33 33L33 36L36 36L36 33ZM61 33L61 36L64 36L64 33ZM6 34L6 35L7 35L7 34ZM28 34L28 35L27 35L27 36L28 36L28 38L29 38L29 39L30 39L30 38L29 38L29 34ZM34 34L34 35L35 35L35 34ZM44 34L44 37L45 37L45 34ZM62 34L62 35L63 35L63 34ZM2 36L2 37L3 37L3 38L2 38L2 39L1 39L1 41L4 41L4 40L7 40L7 41L6 41L6 42L5 42L5 44L8 44L8 43L6 43L6 42L8 42L8 40L7 40L7 39L6 39L6 38L7 38L7 37L6 37L6 38L5 38L5 37L3 37L3 36ZM38 36L38 37L37 37L37 38L36 38L36 39L38 39L38 38L39 38L39 37L40 37L40 36ZM42 36L42 37L41 37L41 38L43 38L43 36ZM56 36L56 37L57 37L57 36ZM19 37L19 38L20 38L20 39L21 39L21 38L20 38L20 37ZM60 37L60 39L61 39L61 37ZM33 38L33 39L34 39L34 38ZM48 38L48 39L49 39L49 38ZM2 39L2 40L3 40L3 39ZM55 39L55 40L53 40L53 41L50 41L50 42L49 42L49 43L50 43L50 44L51 44L51 45L52 45L52 43L53 43L53 42L55 42L55 40L56 40L56 42L58 42L58 41L57 41L57 40L56 40L56 39ZM10 40L10 41L11 41L11 40ZM30 40L30 41L31 41L31 40ZM68 40L68 41L69 41L69 40ZM12 41L12 42L11 42L11 43L12 43L12 45L13 45L13 44L14 44L14 43L13 43L13 41ZM3 42L3 43L4 43L4 42ZM28 42L28 43L29 43L29 42ZM47 42L47 43L48 43L48 42ZM50 42L50 43L52 43L52 42ZM25 43L25 45L26 45L26 43ZM32 43L32 44L33 44L33 45L34 45L34 46L35 46L35 47L36 47L36 48L38 48L38 50L39 50L39 51L37 51L37 52L36 52L36 53L35 53L35 54L36 54L36 53L38 53L38 52L39 52L39 51L40 51L40 48L41 48L41 47L38 47L38 46L37 46L37 45L34 45L34 43ZM67 45L67 46L68 46L68 45ZM6 46L6 47L8 47L8 46ZM16 46L16 47L17 47L17 46ZM36 46L36 47L37 47L37 46ZM54 47L54 49L53 49L53 50L52 50L52 51L51 51L51 53L50 53L50 54L51 54L51 55L50 55L50 59L51 59L51 60L50 60L50 62L51 62L51 61L52 61L52 60L53 60L53 59L55 59L55 58L56 58L56 57L52 57L52 54L54 54L54 55L56 55L56 54L58 54L58 52L59 52L59 51L58 51L58 49L57 49L57 48L56 48L56 49L55 49L55 47ZM3 48L3 49L4 49L4 48ZM33 48L33 49L34 49L34 48ZM43 48L43 49L44 49L44 50L45 50L45 49L44 49L44 48ZM5 49L5 51L4 51L4 50L3 50L3 51L4 51L4 52L3 52L3 54L4 54L4 55L6 55L6 56L2 56L2 57L4 57L4 58L7 58L7 57L6 57L6 56L7 56L7 55L9 55L9 56L11 56L11 55L9 55L9 54L10 54L10 53L9 53L9 54L8 54L8 52L7 52L7 51L6 51L6 50L7 50L7 49ZM18 49L18 50L19 50L19 49ZM49 50L49 51L50 51L50 50ZM55 50L55 51L54 51L54 52L55 52L55 54L56 54L56 52L57 52L57 51L56 51L56 50ZM65 50L65 51L67 51L67 53L69 53L69 52L68 52L68 50ZM5 51L5 52L4 52L4 54L6 54L6 55L7 55L7 54L6 54L6 53L7 53L7 52L6 52L6 51ZM11 51L11 52L13 52L13 51ZM17 51L17 52L18 52L18 51ZM5 52L5 53L6 53L6 52ZM52 52L52 53L51 53L51 54L52 54L52 53L53 53L53 52ZM65 56L65 57L66 57L66 56ZM57 57L57 58L58 58L58 57ZM13 58L13 59L14 59L14 58ZM22 58L22 59L23 59L23 60L24 60L24 59L23 59L23 58ZM25 58L25 60L26 60L26 59L27 59L27 58ZM57 59L57 60L56 60L56 62L55 62L55 61L53 61L53 62L54 62L54 63L53 63L53 64L54 64L54 63L55 63L55 64L56 64L56 65L57 65L57 66L58 66L58 65L57 65L57 64L56 64L56 62L57 62L57 61L58 61L58 59ZM61 59L61 60L62 60L62 59ZM3 60L3 61L5 61L5 60ZM18 61L18 63L17 63L17 65L16 65L16 64L15 64L15 63L14 63L14 66L15 66L15 65L16 65L16 66L17 66L17 65L18 65L18 64L19 64L19 65L20 65L20 64L19 64L19 62L20 62L20 61ZM33 61L33 64L36 64L36 61ZM38 61L38 62L39 62L39 61ZM61 61L61 64L64 64L64 61ZM31 62L31 63L32 63L32 62ZM34 62L34 63L35 63L35 62ZM42 62L42 63L43 63L43 62ZM62 62L62 63L63 63L63 62ZM8 63L8 65L9 65L9 63ZM31 64L31 65L32 65L32 64ZM38 64L38 65L39 65L39 64ZM49 65L49 66L50 66L50 65ZM67 65L67 66L66 66L66 67L67 67L67 66L69 66L69 65ZM18 66L18 67L17 67L17 68L18 68L18 67L19 67L19 66ZM9 67L9 68L10 68L10 67ZM22 67L22 68L24 68L24 67ZM25 67L25 68L26 68L26 69L28 69L28 68L26 68L26 67ZM34 67L34 68L35 68L35 67ZM13 68L13 69L15 69L15 68ZM36 68L36 69L37 69L37 68ZM42 68L42 69L43 69L43 68ZM66 68L66 69L67 69L67 68ZM68 68L68 69L69 69L69 68ZM0 0L0 7L7 7L7 0ZM1 1L1 6L6 6L6 1ZM2 2L2 5L5 5L5 2ZM62 0L62 7L69 7L69 0ZM63 1L63 6L68 6L68 1ZM64 2L64 5L67 5L67 2ZM0 62L0 69L7 69L7 62ZM1 63L1 68L6 68L6 63ZM2 64L2 67L5 67L5 64Z" fill="#000000"/></g></g></svg>
