<?xml version="1.0" encoding="UTF-8"?>
<svg xmlns="http://www.w3.org/2000/svg" version="1.1" width="300" height="300" viewBox="0 0 300 300"><rect x="0" y="0" width="300" height="300" fill="#ffffff"/><g transform="scale(4.348)"><g transform="translate(0,0)"><path fill-rule="evenodd" d="M8 0L8 4L9 4L9 5L8 5L8 7L9 7L9 6L10 6L10 9L7 9L7 8L4 8L4 9L2 9L2 8L0 8L0 9L1 9L1 10L0 10L0 11L1 11L1 10L2 10L2 11L3 11L3 10L4 10L4 9L7 9L7 10L5 10L5 11L4 11L4 13L3 13L3 12L2 12L2 13L1 13L1 12L0 12L0 18L1 18L1 22L0 22L0 24L1 24L1 26L3 26L3 29L4 29L4 30L5 30L5 31L7 31L7 32L3 32L3 33L4 33L4 34L3 34L3 35L4 35L4 38L5 38L5 37L7 37L7 38L6 38L6 39L8 39L8 40L9 40L9 39L8 39L8 37L9 37L9 38L10 38L10 36L11 36L11 35L10 35L10 32L9 32L9 31L7 31L7 30L10 30L10 31L11 31L11 32L13 32L13 34L12 34L12 33L11 33L11 34L12 34L12 35L13 35L13 36L12 36L12 37L11 37L11 40L10 40L10 41L11 41L11 43L12 43L12 44L11 44L11 45L10 45L10 46L9 46L9 47L8 47L8 48L6 48L6 49L7 49L7 50L5 50L5 49L4 49L4 52L3 52L3 49L2 49L2 50L0 50L0 52L1 52L1 53L0 53L0 54L3 54L3 56L4 56L4 57L5 57L5 58L4 58L4 59L7 59L7 58L8 58L8 62L10 62L10 64L9 64L9 63L8 63L8 65L9 65L9 66L10 66L10 67L8 67L8 69L9 69L9 68L10 68L10 67L11 67L11 68L12 68L12 67L13 67L13 69L14 69L14 67L16 67L16 68L15 68L15 69L16 69L16 68L17 68L17 69L19 69L19 68L17 68L17 67L18 67L18 66L19 66L19 67L20 67L20 66L21 66L21 67L23 67L23 68L26 68L26 69L28 69L28 68L26 68L26 66L27 66L27 67L28 67L28 66L29 66L29 65L31 65L31 67L32 67L32 69L33 69L33 68L34 68L34 69L35 69L35 68L34 68L34 67L35 67L35 66L36 66L36 65L38 65L38 67L39 67L39 66L40 66L40 63L41 63L41 67L40 67L40 68L38 68L38 69L40 69L40 68L42 68L42 69L43 69L43 68L42 68L42 67L43 67L43 63L44 63L44 69L46 69L46 67L45 67L45 63L44 63L44 62L46 62L46 64L47 64L47 67L48 67L48 68L47 68L47 69L52 69L52 68L53 68L53 69L58 69L58 68L59 68L59 66L61 66L61 67L60 67L60 69L64 69L64 67L66 67L66 66L64 66L64 67L63 67L63 68L62 68L62 66L63 66L63 65L65 65L65 63L66 63L66 62L67 62L67 63L68 63L68 65L67 65L67 66L69 66L69 63L68 63L68 62L69 62L69 60L68 60L68 61L67 61L67 60L66 60L66 61L65 61L65 59L68 59L68 58L69 58L69 57L68 57L68 55L67 55L67 53L69 53L69 52L68 52L68 50L67 50L67 53L66 53L66 52L65 52L65 51L66 51L66 50L65 50L65 51L61 51L61 47L62 47L62 48L63 48L63 47L64 47L64 49L62 49L62 50L64 50L64 49L65 49L65 47L66 47L66 46L67 46L67 48L68 48L68 49L69 49L69 48L68 48L68 46L67 46L67 44L68 44L68 45L69 45L69 43L68 43L68 42L69 42L69 39L68 39L68 38L69 38L69 35L68 35L68 33L69 33L69 32L67 32L67 33L66 33L66 32L63 32L63 31L64 31L64 30L65 30L65 31L68 31L68 30L69 30L69 28L68 28L68 30L65 30L65 29L66 29L66 27L68 27L68 26L69 26L69 25L68 25L68 26L67 26L67 24L65 24L65 23L64 23L64 20L65 20L65 19L66 19L66 18L67 18L67 20L66 20L66 22L67 22L67 23L68 23L68 24L69 24L69 23L68 23L68 22L69 22L69 20L68 20L68 18L67 18L67 17L68 17L68 16L69 16L69 15L68 15L68 14L69 14L69 11L68 11L68 9L69 9L69 8L65 8L65 9L64 9L64 8L63 8L63 9L62 9L62 10L64 10L64 11L62 11L62 12L61 12L61 6L60 6L60 7L59 7L59 4L58 4L58 3L59 3L59 2L58 2L58 1L61 1L61 0L57 0L57 5L56 5L56 0L52 0L52 1L51 1L51 0L50 0L50 2L49 2L49 1L47 1L47 2L46 2L46 0L45 0L45 1L44 1L44 0L40 0L40 2L39 2L39 3L40 3L40 4L38 4L38 3L36 3L36 2L38 2L38 1L39 1L39 0L38 0L38 1L36 1L36 0L35 0L35 1L36 1L36 2L34 2L34 1L33 1L33 0L32 0L32 2L34 2L34 3L33 3L33 4L32 4L32 3L31 3L31 4L32 4L32 5L31 5L31 6L30 6L30 5L28 5L28 4L29 4L29 3L30 3L30 2L31 2L31 0L30 0L30 1L29 1L29 0L22 0L22 1L24 1L24 2L25 2L25 4L24 4L24 3L23 3L23 2L22 2L22 3L20 3L20 5L19 5L19 4L17 4L17 2L16 2L16 1L20 1L20 2L21 2L21 0L16 0L16 1L15 1L15 0L12 0L12 3L11 3L11 2L10 2L10 1L11 1L11 0ZM13 1L13 2L15 2L15 5L14 5L14 6L13 6L13 4L14 4L14 3L12 3L12 5L11 5L11 9L10 9L10 10L9 10L9 11L8 11L8 13L4 13L4 15L5 15L5 16L4 16L4 19L3 19L3 18L2 18L2 15L3 15L3 13L2 13L2 14L1 14L1 18L2 18L2 21L3 21L3 20L4 20L4 22L2 22L2 24L3 24L3 26L4 26L4 27L5 27L5 28L4 28L4 29L5 29L5 30L7 30L7 29L6 29L6 28L7 28L7 27L5 27L5 26L4 26L4 24L8 24L8 29L9 29L9 28L11 28L11 27L12 27L12 29L10 29L10 30L11 30L11 31L13 31L13 32L14 32L14 33L15 33L15 32L16 32L16 31L17 31L17 33L16 33L16 38L15 38L15 37L13 37L13 38L14 38L14 39L12 39L12 43L16 43L16 42L17 42L17 41L18 41L18 42L19 42L19 43L21 43L21 44L22 44L22 45L21 45L21 46L23 46L23 47L22 47L22 49L25 49L25 50L22 50L22 53L21 53L21 54L20 54L20 53L18 53L18 52L19 52L19 51L20 51L20 50L21 50L21 49L19 49L19 48L20 48L20 45L19 45L19 48L18 48L18 49L17 49L17 47L18 47L18 46L17 46L17 44L16 44L16 46L14 46L14 47L15 47L15 49L14 49L14 50L13 50L13 51L12 51L12 49L11 49L11 50L10 50L10 49L9 49L9 48L8 48L8 49L9 49L9 50L7 50L7 51L6 51L6 52L7 52L7 53L6 53L6 54L8 54L8 55L9 55L9 54L11 54L11 56L9 56L9 58L10 58L10 59L9 59L9 60L10 60L10 61L11 61L11 60L13 60L13 59L11 59L11 58L10 58L10 57L13 57L13 56L12 56L12 55L14 55L14 56L15 56L15 57L17 57L17 56L19 56L19 54L20 54L20 57L19 57L19 58L16 58L16 59L14 59L14 61L12 61L12 62L13 62L13 63L11 63L11 64L12 64L12 66L11 66L11 67L12 67L12 66L17 66L17 65L18 65L18 64L19 64L19 65L20 65L20 64L22 64L22 66L23 66L23 67L24 67L24 66L23 66L23 65L29 65L29 64L26 64L26 63L25 63L25 62L26 62L26 60L27 60L27 59L28 59L28 62L27 62L27 63L29 63L29 62L31 62L31 63L30 63L30 64L31 64L31 65L32 65L32 66L33 66L33 65L32 65L32 64L31 64L31 63L32 63L32 62L31 62L31 61L32 61L32 57L33 57L33 59L34 59L34 60L35 60L35 59L36 59L36 60L37 60L37 59L39 59L39 58L40 58L40 59L41 59L41 58L40 58L40 57L41 57L41 56L42 56L42 57L44 57L44 54L45 54L45 53L46 53L46 54L47 54L47 57L46 57L46 58L47 58L47 59L48 59L48 55L49 55L49 57L50 57L50 56L52 56L52 61L51 61L51 59L49 59L49 60L50 60L50 61L49 61L49 63L47 63L47 64L49 64L49 65L48 65L48 67L50 67L50 68L52 68L52 66L53 66L53 67L54 67L54 66L53 66L53 63L54 63L54 64L55 64L55 67L57 67L57 68L58 68L58 67L57 67L57 65L58 65L58 66L59 66L59 64L57 64L57 65L56 65L56 62L57 62L57 63L59 63L59 61L60 61L60 59L63 59L63 60L64 60L64 59L65 59L65 57L66 57L66 58L68 58L68 57L66 57L66 56L67 56L67 55L66 55L66 54L65 54L65 52L63 52L63 53L64 53L64 54L62 54L62 55L64 55L64 58L62 58L62 57L63 57L63 56L60 56L60 55L61 55L61 52L60 52L60 50L59 50L59 49L60 49L60 48L59 48L59 49L58 49L58 50L57 50L57 51L59 51L59 53L58 53L58 54L56 54L56 51L54 51L54 52L52 52L52 50L53 50L53 48L55 48L55 50L56 50L56 45L55 45L55 47L54 47L54 44L55 44L55 43L57 43L57 44L58 44L58 46L57 46L57 47L58 47L58 46L59 46L59 45L60 45L60 44L61 44L61 45L62 45L62 47L63 47L63 45L64 45L64 46L66 46L66 44L67 44L67 42L66 42L66 41L64 41L64 42L63 42L63 41L62 41L62 40L59 40L59 39L58 39L58 38L60 38L60 36L59 36L59 35L60 35L60 34L59 34L59 33L60 33L60 32L62 32L62 31L63 31L63 30L64 30L64 29L65 29L65 28L64 28L64 27L66 27L66 25L65 25L65 24L64 24L64 25L63 25L63 27L62 27L62 28L64 28L64 29L63 29L63 30L62 30L62 29L61 29L61 31L60 31L60 30L59 30L59 29L60 29L60 28L61 28L61 27L60 27L60 28L59 28L59 27L56 27L56 26L57 26L57 25L58 25L58 26L59 26L59 25L60 25L60 24L61 24L61 26L62 26L62 24L63 24L63 22L62 22L62 21L63 21L63 20L64 20L64 17L66 17L66 16L68 16L68 15L67 15L67 14L68 14L68 11L67 11L67 10L66 10L66 11L65 11L65 12L64 12L64 13L63 13L63 12L62 12L62 13L61 13L61 12L60 12L60 11L59 11L59 9L60 9L60 8L59 8L59 7L58 7L58 6L57 6L57 7L58 7L58 14L59 14L59 15L58 15L58 18L57 18L57 17L56 17L56 16L57 16L57 15L56 15L56 16L52 16L52 17L51 17L51 19L49 19L49 17L50 17L50 16L51 16L51 15L50 15L50 16L49 16L49 15L47 15L47 13L46 13L46 12L45 12L45 11L46 11L46 10L47 10L47 8L49 8L49 10L50 10L50 11L49 11L49 14L50 14L50 11L51 11L51 10L50 10L50 9L53 9L53 8L54 8L54 6L53 6L53 4L55 4L55 3L54 3L54 2L55 2L55 1L53 1L53 4L52 4L52 2L51 2L51 4L52 4L52 6L51 6L51 7L50 7L50 3L49 3L49 2L48 2L48 3L47 3L47 4L46 4L46 5L44 5L44 4L45 4L45 3L46 3L46 2L45 2L45 3L44 3L44 2L43 2L43 3L41 3L41 4L40 4L40 6L39 6L39 7L38 7L38 5L37 5L37 7L38 7L38 8L37 8L37 11L41 11L41 14L40 14L40 13L39 13L39 12L36 12L36 13L37 13L37 14L35 14L35 13L33 13L33 14L31 14L31 13L32 13L32 12L33 12L33 11L34 11L34 9L33 9L33 10L32 10L32 11L31 11L31 10L30 10L30 9L32 9L32 6L31 6L31 8L30 8L30 9L28 9L28 6L27 6L27 5L26 5L26 4L27 4L27 3L29 3L29 2L28 2L28 1L27 1L27 2L26 2L26 1L25 1L25 2L26 2L26 4L25 4L25 5L20 5L20 6L19 6L19 8L20 8L20 9L19 9L19 12L20 12L20 13L19 13L19 16L18 16L18 17L16 17L16 15L18 15L18 13L17 13L17 14L15 14L15 13L16 13L16 11L17 11L17 10L15 10L15 8L16 8L16 2L15 2L15 1ZM41 1L41 2L42 2L42 1ZM18 2L18 3L19 3L19 2ZM9 3L9 4L11 4L11 3ZM35 3L35 4L36 4L36 3ZM43 3L43 4L41 4L41 5L43 5L43 6L42 6L42 7L41 7L41 6L40 6L40 8L39 8L39 9L38 9L38 10L40 10L40 8L43 8L43 6L44 6L44 7L45 7L45 8L44 8L44 9L45 9L45 10L46 10L46 9L45 9L45 8L47 8L47 6L46 6L46 7L45 7L45 6L44 6L44 5L43 5L43 4L44 4L44 3ZM60 3L60 5L61 5L61 3ZM48 4L48 5L49 5L49 4ZM17 5L17 7L18 7L18 5ZM33 5L33 8L36 8L36 5ZM55 5L55 9L56 9L56 11L55 11L55 10L52 10L52 11L55 11L55 13L56 13L56 14L57 14L57 13L56 13L56 11L57 11L57 9L56 9L56 5ZM12 6L12 9L11 9L11 10L10 10L10 11L9 11L9 14L10 14L10 15L9 15L9 17L8 17L8 22L5 22L5 23L8 23L8 22L11 22L11 26L13 26L13 24L12 24L12 22L14 22L14 23L15 23L15 20L14 20L14 19L12 19L12 18L13 18L13 17L12 17L12 18L11 18L11 16L12 16L12 14L14 14L14 13L13 13L13 12L12 12L12 14L11 14L11 13L10 13L10 11L11 11L11 10L13 10L13 11L14 11L14 12L15 12L15 10L13 10L13 9L14 9L14 8L15 8L15 6L14 6L14 7L13 7L13 6ZM20 6L20 8L21 8L21 6ZM22 6L22 8L24 8L24 9L23 9L23 10L22 10L22 9L20 9L20 10L22 10L22 11L24 11L24 12L23 12L23 13L22 13L22 12L21 12L21 13L20 13L20 15L22 15L22 16L19 16L19 17L18 17L18 18L19 18L19 17L22 17L22 20L21 20L21 18L20 18L20 19L17 19L17 20L16 20L16 22L19 22L19 20L20 20L20 23L21 23L21 25L20 25L20 26L21 26L21 27L23 27L23 29L21 29L21 28L20 28L20 27L19 27L19 26L18 26L18 25L19 25L19 24L17 24L17 25L15 25L15 24L14 24L14 28L15 28L15 30L16 30L16 28L15 28L15 27L16 27L16 26L18 26L18 27L19 27L19 28L17 28L17 31L18 31L18 29L19 29L19 28L20 28L20 30L21 30L21 31L20 31L20 33L19 33L19 32L18 32L18 33L17 33L17 39L15 39L15 40L14 40L14 41L13 41L13 42L14 42L14 41L16 41L16 40L17 40L17 39L18 39L18 41L20 41L20 42L21 42L21 43L24 43L24 45L23 45L23 46L24 46L24 47L23 47L23 48L24 48L24 47L25 47L25 49L26 49L26 51L25 51L25 52L24 52L24 51L23 51L23 53L22 53L22 54L23 54L23 55L24 55L24 56L22 56L22 55L21 55L21 57L20 57L20 59L21 59L21 60L20 60L20 62L19 62L19 63L20 63L20 62L22 62L22 63L23 63L23 64L25 64L25 63L23 63L23 61L24 61L24 62L25 62L25 61L24 61L24 59L23 59L23 61L21 61L21 60L22 60L22 59L21 59L21 57L24 57L24 58L25 58L25 60L26 60L26 59L27 59L27 58L28 58L28 57L29 57L29 59L30 59L30 60L29 60L29 61L31 61L31 59L30 59L30 58L31 58L31 56L32 56L32 55L31 55L31 56L30 56L30 57L29 57L29 55L30 55L30 54L32 54L32 52L33 52L33 51L34 51L34 52L35 52L35 53L36 53L36 52L35 52L35 51L36 51L36 49L34 49L34 46L33 46L33 45L34 45L34 43L33 43L33 42L34 42L34 39L36 39L36 37L37 37L37 40L35 40L35 41L36 41L36 43L37 43L37 41L38 41L38 43L39 43L39 44L35 44L35 45L38 45L38 47L36 47L36 46L35 46L35 47L36 47L36 48L38 48L38 50L39 50L39 51L37 51L37 53L38 53L38 52L39 52L39 54L40 54L40 55L39 55L39 57L38 57L38 56L37 56L37 57L38 57L38 58L39 58L39 57L40 57L40 55L41 55L41 53L40 53L40 48L41 48L41 47L39 47L39 45L40 45L40 46L41 46L41 45L42 45L42 49L41 49L41 51L42 51L42 50L43 50L43 51L44 51L44 53L42 53L42 55L43 55L43 54L44 54L44 53L45 53L45 50L46 50L46 51L47 51L47 52L46 52L46 53L47 53L47 54L48 54L48 53L49 53L49 52L50 52L50 50L51 50L51 49L52 49L52 48L53 48L53 47L52 47L52 48L51 48L51 45L52 45L52 46L53 46L53 45L52 45L52 44L53 44L53 43L54 43L54 42L55 42L55 41L54 41L54 39L53 39L53 38L55 38L55 39L56 39L56 41L57 41L57 43L58 43L58 41L59 41L59 40L58 40L58 39L57 39L57 38L58 38L58 37L59 37L59 36L58 36L58 37L57 37L57 36L56 36L56 37L54 37L54 36L53 36L53 34L55 34L55 35L57 35L57 33L58 33L58 28L56 28L56 29L55 29L55 28L53 28L53 29L52 29L52 30L56 30L56 29L57 29L57 32L56 32L56 33L53 33L53 34L52 34L52 35L51 35L51 36L50 36L50 35L48 35L48 33L50 33L50 34L51 34L51 33L52 33L52 32L54 32L54 31L51 31L51 29L50 29L50 28L51 28L51 27L52 27L52 26L53 26L53 25L54 25L54 27L55 27L55 24L56 24L56 25L57 25L57 24L56 24L56 23L58 23L58 20L59 20L59 19L60 19L60 20L61 20L61 21L59 21L59 23L61 23L61 24L62 24L62 22L61 22L61 21L62 21L62 20L63 20L63 17L64 17L64 16L65 16L65 15L64 15L64 14L65 14L65 13L64 13L64 14L63 14L63 13L62 13L62 14L63 14L63 15L62 15L62 19L61 19L61 16L59 16L59 18L58 18L58 20L56 20L56 19L57 19L57 18L56 18L56 17L52 17L52 19L53 19L53 20L56 20L56 21L53 21L53 22L55 22L55 24L54 24L54 23L52 23L52 21L50 21L50 20L49 20L49 19L48 19L48 20L47 20L47 19L46 19L46 20L44 20L44 23L45 23L45 24L44 24L44 25L43 25L43 24L42 24L42 25L41 25L41 26L43 26L43 28L42 28L42 27L40 27L40 24L41 24L41 22L43 22L43 21L42 21L42 19L40 19L40 16L42 16L42 17L41 17L41 18L44 18L44 19L45 19L45 16L46 16L46 17L47 17L47 18L48 18L48 17L49 17L49 16L47 16L47 15L46 15L46 13L45 13L45 12L44 12L44 13L42 13L42 15L38 15L38 14L39 14L39 13L38 13L38 14L37 14L37 16L38 16L38 18L37 18L37 19L34 19L34 18L32 18L32 15L30 15L30 14L28 14L28 13L31 13L31 12L30 12L30 11L29 11L29 12L28 12L28 9L27 9L27 8L26 8L26 7L27 7L27 6L26 6L26 7L25 7L25 6L24 6L24 7L23 7L23 6ZM29 6L29 7L30 7L30 6ZM34 6L34 7L35 7L35 6ZM48 6L48 7L49 7L49 6ZM52 6L52 7L53 7L53 6ZM24 7L24 8L25 8L25 9L24 9L24 10L26 10L26 8L25 8L25 7ZM35 9L35 11L36 11L36 9ZM41 9L41 10L42 10L42 12L43 12L43 9ZM6 11L6 12L7 12L7 11ZM26 11L26 12L25 12L25 15L26 15L26 16L27 16L27 15L28 15L28 17L27 17L27 18L26 18L26 17L25 17L25 18L26 18L26 19L24 19L24 20L25 20L25 21L26 21L26 19L28 19L28 18L30 18L30 17L29 17L29 16L30 16L30 15L28 15L28 14L27 14L27 13L28 13L28 12L27 12L27 11ZM26 12L26 13L27 13L27 12ZM52 12L52 13L53 13L53 15L54 15L54 13L53 13L53 12ZM59 12L59 14L61 14L61 13L60 13L60 12ZM5 14L5 15L7 15L7 16L6 16L6 17L5 17L5 18L6 18L6 19L7 19L7 18L6 18L6 17L7 17L7 16L8 16L8 14ZM34 14L34 15L33 15L33 17L34 17L34 16L35 16L35 18L36 18L36 16L35 16L35 14ZM44 14L44 15L43 15L43 17L44 17L44 15L45 15L45 14ZM10 15L10 16L11 16L11 15ZM13 15L13 16L14 16L14 17L15 17L15 16L14 16L14 15ZM22 16L22 17L24 17L24 16ZM9 17L9 21L10 21L10 20L11 20L11 22L12 22L12 20L11 20L11 18L10 18L10 17ZM38 18L38 19L39 19L39 18ZM54 18L54 19L56 19L56 18ZM4 19L4 20L5 20L5 19ZM29 19L29 20L27 20L27 21L28 21L28 26L27 26L27 27L26 27L26 23L27 23L27 22L25 22L25 26L24 26L24 25L21 25L21 26L23 26L23 27L24 27L24 29L25 29L25 30L22 30L22 34L20 34L20 35L19 35L19 37L21 37L21 38L22 38L22 37L26 37L26 35L27 35L27 36L28 36L28 38L27 38L27 39L26 39L26 38L25 38L25 41L24 41L24 40L22 40L22 39L21 39L21 40L20 40L20 41L22 41L22 42L23 42L23 41L24 41L24 42L25 42L25 43L26 43L26 44L25 44L25 45L26 45L26 46L25 46L25 47L26 47L26 48L28 48L28 49L27 49L27 51L28 51L28 50L29 50L29 52L30 52L30 50L31 50L31 51L32 51L32 50L34 50L34 49L33 49L33 47L32 47L32 46L29 46L29 45L26 45L26 44L27 44L27 43L26 43L26 40L28 40L28 39L30 39L30 37L29 37L29 34L28 34L28 35L27 35L27 34L26 34L26 35L25 35L25 34L23 34L23 32L24 32L24 31L25 31L25 33L29 33L29 32L30 32L30 30L32 30L32 32L31 32L31 33L32 33L32 32L35 32L35 31L37 31L37 37L38 37L38 36L39 36L39 35L40 35L40 37L39 37L39 38L38 38L38 40L39 40L39 39L40 39L40 41L41 41L41 38L40 38L40 37L41 37L41 36L43 36L43 38L42 38L42 39L43 39L43 42L39 42L39 43L41 43L41 44L43 44L43 46L44 46L44 48L43 48L43 49L44 49L44 50L45 50L45 49L46 49L46 50L47 50L47 49L48 49L48 47L47 47L47 48L45 48L45 47L46 47L46 46L47 46L47 45L46 45L46 43L47 43L47 44L48 44L48 43L49 43L49 45L51 45L51 44L50 44L50 40L51 40L51 39L52 39L52 38L50 38L50 36L49 36L49 37L48 37L48 35L47 35L47 37L46 37L46 34L47 34L47 33L46 33L46 34L45 34L45 33L44 33L44 30L45 30L45 31L46 31L46 30L47 30L47 32L50 32L50 33L51 33L51 31L50 31L50 29L48 29L48 30L47 30L47 29L46 29L46 28L45 28L45 29L44 29L44 28L43 28L43 31L40 31L40 33L44 33L44 34L43 34L43 35L41 35L41 34L39 34L39 35L38 35L38 31L37 31L37 30L38 30L38 29L36 29L36 28L38 28L38 27L37 27L37 26L38 26L38 25L39 25L39 24L38 24L38 23L40 23L40 22L41 22L41 20L40 20L40 21L39 21L39 20L38 20L38 21L37 21L37 20L34 20L34 19L31 19L31 21L30 21L30 23L29 23L29 20L30 20L30 19ZM6 20L6 21L7 21L7 20ZM22 20L22 21L21 21L21 23L22 23L22 24L24 24L24 23L23 23L23 20ZM32 20L32 22L34 22L34 25L35 25L35 26L33 26L33 24L32 24L32 23L31 23L31 24L30 24L30 25L29 25L29 26L30 26L30 27L31 27L31 28L29 28L29 27L27 27L27 28L26 28L26 27L25 27L25 28L26 28L26 30L25 30L25 31L26 31L26 32L28 32L28 31L29 31L29 30L28 30L28 28L29 28L29 29L32 29L32 28L33 28L33 31L34 31L34 30L35 30L35 29L34 29L34 28L35 28L35 27L36 27L36 26L37 26L37 25L38 25L38 24L37 24L37 23L35 23L35 21L34 21L34 20ZM67 20L67 22L68 22L68 20ZM36 21L36 22L37 22L37 21ZM46 21L46 22L48 22L48 23L47 23L47 25L46 25L46 26L47 26L47 27L49 27L49 28L50 28L50 25L51 25L51 26L52 26L52 25L53 25L53 24L52 24L52 25L51 25L51 24L50 24L50 23L51 23L51 22L50 22L50 21L49 21L49 22L48 22L48 21ZM56 21L56 22L57 22L57 21ZM49 22L49 23L48 23L48 25L47 25L47 26L49 26L49 25L50 25L50 24L49 24L49 23L50 23L50 22ZM3 23L3 24L4 24L4 23ZM6 25L6 26L7 26L7 25ZM64 25L64 26L65 26L65 25ZM9 26L9 27L10 27L10 26ZM31 26L31 27L33 27L33 28L34 28L34 27L33 27L33 26ZM1 27L1 28L0 28L0 29L2 29L2 27ZM39 27L39 29L40 29L40 30L42 30L42 28L40 28L40 27ZM13 29L13 31L14 31L14 29ZM45 29L45 30L46 30L46 29ZM27 30L27 31L28 31L28 30ZM0 32L0 37L1 37L1 39L0 39L0 41L1 41L1 39L3 39L3 42L1 42L1 43L0 43L0 45L4 45L4 46L3 46L3 48L4 48L4 47L5 47L5 46L6 46L6 47L7 47L7 46L6 46L6 45L7 45L7 44L6 44L6 45L5 45L5 44L4 44L4 41L5 41L5 42L6 42L6 43L9 43L9 42L8 42L8 41L7 41L7 40L5 40L5 39L3 39L3 36L2 36L2 37L1 37L1 34L2 34L2 32ZM5 33L5 36L8 36L8 33ZM33 33L33 36L36 36L36 33ZM61 33L61 36L64 36L64 33ZM6 34L6 35L7 35L7 34ZM13 34L13 35L14 35L14 36L15 36L15 34ZM31 34L31 35L30 35L30 36L31 36L31 37L32 37L32 38L31 38L31 39L32 39L32 40L30 40L30 41L27 41L27 42L28 42L28 43L30 43L30 44L32 44L32 45L33 45L33 43L32 43L32 42L33 42L33 39L34 39L34 38L35 38L35 37L32 37L32 36L31 36L31 35L32 35L32 34ZM34 34L34 35L35 35L35 34ZM44 34L44 37L45 37L45 38L43 38L43 39L45 39L45 40L44 40L44 45L45 45L45 46L46 46L46 45L45 45L45 42L46 42L46 37L45 37L45 34ZM62 34L62 35L63 35L63 34ZM65 34L65 36L66 36L66 37L68 37L68 35L66 35L66 34ZM21 35L21 37L22 37L22 35ZM24 35L24 36L25 36L25 35ZM52 36L52 37L53 37L53 36ZM61 37L61 39L64 39L64 40L68 40L68 39L64 39L64 38L65 38L65 37ZM18 38L18 39L20 39L20 38ZM48 38L48 39L47 39L47 41L48 41L48 42L47 42L47 43L48 43L48 42L49 42L49 40L48 40L48 39L49 39L49 38ZM52 40L52 41L51 41L51 43L52 43L52 42L53 42L53 40ZM57 40L57 41L58 41L58 40ZM6 41L6 42L7 42L7 41ZM30 41L30 43L31 43L31 41ZM60 41L60 42L59 42L59 43L62 43L62 45L63 45L63 44L64 44L64 43L66 43L66 42L64 42L64 43L62 43L62 41ZM2 43L2 44L3 44L3 43ZM11 45L11 46L10 46L10 48L11 48L11 46L12 46L12 47L13 47L13 46L12 46L12 45ZM0 46L0 47L2 47L2 46ZM16 46L16 47L17 47L17 46ZM28 47L28 48L29 48L29 50L30 50L30 49L32 49L32 48L29 48L29 47ZM49 47L49 48L50 48L50 49L49 49L49 50L48 50L48 52L49 52L49 50L50 50L50 49L51 49L51 48L50 48L50 47ZM0 48L0 49L1 49L1 48ZM44 48L44 49L45 49L45 48ZM15 49L15 51L13 51L13 54L14 54L14 55L15 55L15 56L17 56L17 55L18 55L18 53L17 53L17 55L16 55L16 53L15 53L15 52L17 52L17 51L18 51L18 50L19 50L19 49L18 49L18 50L16 50L16 49ZM9 50L9 51L10 51L10 50ZM1 51L1 52L2 52L2 51ZM4 52L4 53L3 53L3 54L4 54L4 55L5 55L5 54L4 54L4 53L5 53L5 52ZM8 52L8 54L9 54L9 53L12 53L12 52ZM25 52L25 53L26 53L26 54L24 54L24 55L25 55L25 57L26 57L26 58L27 58L27 57L28 57L28 56L27 56L27 57L26 57L26 55L28 55L28 54L29 54L29 53L28 53L28 54L27 54L27 53L26 53L26 52ZM51 52L51 53L50 53L50 54L49 54L49 55L52 55L52 52ZM14 53L14 54L15 54L15 53ZM33 53L33 54L34 54L34 55L35 55L35 57L36 57L36 55L37 55L37 54L36 54L36 55L35 55L35 54L34 54L34 53ZM53 53L53 56L56 56L56 59L55 59L55 57L54 57L54 59L53 59L53 61L52 61L52 63L51 63L51 64L50 64L50 63L49 63L49 64L50 64L50 66L51 66L51 65L52 65L52 63L53 63L53 62L56 62L56 61L57 61L57 62L58 62L58 59L59 59L59 58L58 58L58 57L59 57L59 56L58 56L58 57L57 57L57 56L56 56L56 55L55 55L55 53ZM59 53L59 54L58 54L58 55L60 55L60 53ZM64 54L64 55L65 55L65 54ZM6 55L6 56L5 56L5 57L6 57L6 58L7 58L7 57L6 57L6 56L7 56L7 55ZM33 56L33 57L34 57L34 56ZM0 57L0 61L1 61L1 57ZM60 57L60 58L61 58L61 57ZM2 58L2 59L3 59L3 58ZM36 58L36 59L37 59L37 58ZM42 58L42 61L43 61L43 62L42 62L42 63L43 63L43 62L44 62L44 60L45 60L45 61L46 61L46 62L47 62L47 61L46 61L46 59L45 59L45 58ZM57 58L57 59L56 59L56 60L55 60L55 59L54 59L54 61L56 61L56 60L57 60L57 59L58 59L58 58ZM10 59L10 60L11 60L11 59ZM17 59L17 61L19 61L19 59ZM43 59L43 60L44 60L44 59ZM3 60L3 61L5 61L5 60ZM6 60L6 61L7 61L7 60ZM38 60L38 61L37 61L37 64L38 64L38 65L39 65L39 64L38 64L38 63L40 63L40 62L41 62L41 60ZM14 61L14 63L15 63L15 65L17 65L17 64L16 64L16 61ZM33 61L33 64L36 64L36 61ZM38 61L38 62L39 62L39 61ZM50 61L50 62L51 62L51 61ZM61 61L61 64L64 64L64 61ZM17 62L17 63L18 63L18 62ZM34 62L34 63L35 63L35 62ZM62 62L62 63L63 63L63 62ZM13 64L13 65L14 65L14 64ZM34 65L34 66L35 66L35 65ZM61 65L61 66L62 66L62 65ZM29 67L29 69L31 69L31 68L30 68L30 67ZM36 68L36 69L37 69L37 68ZM68 68L68 69L69 69L69 68ZM0 0L0 7L7 7L7 0ZM1 1L1 6L6 6L6 1ZM2 2L2 5L5 5L5 2ZM62 0L62 7L69 7L69 0ZM63 1L63 6L68 6L68 1ZM64 2L64 5L67 5L67 2ZM0 62L0 69L7 69L7 62ZM1 63L1 68L6 68L6 63ZM2 64L2 67L5 67L5 64Z" fill="#000000"/></g></g></svg>
