<?xml version="1.0" encoding="UTF-8"?>
<svg xmlns="http://www.w3.org/2000/svg" version="1.1" width="300" height="300" viewBox="0 0 300 300"><rect x="0" y="0" width="300" height="300" fill="#ffffff"/><g transform="scale(4.348)"><g transform="translate(0,0)"><path fill-rule="evenodd" d="M8 0L8 2L9 2L9 0ZM15 0L15 2L13 2L13 1L12 1L12 2L11 2L11 3L10 3L10 4L8 4L8 9L7 9L7 8L5 8L5 9L3 9L3 8L0 8L0 9L1 9L1 10L0 10L0 11L1 11L1 10L3 10L3 11L4 11L4 10L5 10L5 11L7 11L7 12L6 12L6 13L7 13L7 14L6 14L6 15L5 15L5 14L4 14L4 15L5 15L5 19L7 19L7 18L6 18L6 17L7 17L7 16L9 16L9 19L8 19L8 20L10 20L10 21L11 21L11 19L12 19L12 21L14 21L14 22L12 22L12 25L11 25L11 23L10 23L10 22L9 22L9 21L8 21L8 23L7 23L7 22L6 22L6 21L7 21L7 20L6 20L6 21L4 21L4 19L2 19L2 20L1 20L1 19L0 19L0 20L1 20L1 21L2 21L2 20L3 20L3 21L4 21L4 22L1 22L1 23L2 23L2 25L1 25L1 24L0 24L0 25L1 25L1 26L0 26L0 27L1 27L1 26L2 26L2 25L3 25L3 26L4 26L4 24L5 24L5 23L7 23L7 24L6 24L6 25L5 25L5 27L8 27L8 28L9 28L9 29L7 29L7 28L6 28L6 29L5 29L5 28L4 28L4 27L2 27L2 28L1 28L1 29L2 29L2 30L5 30L5 31L8 31L8 32L4 32L4 34L3 34L3 31L1 31L1 32L0 32L0 33L1 33L1 35L0 35L0 36L1 36L1 37L2 37L2 36L3 36L3 37L5 37L5 38L3 38L3 39L4 39L4 40L3 40L3 42L4 42L4 40L5 40L5 42L6 42L6 43L7 43L7 44L4 44L4 46L3 46L3 47L2 47L2 45L1 45L1 43L2 43L2 44L3 44L3 43L2 43L2 41L1 41L1 40L2 40L2 39L0 39L0 42L1 42L1 43L0 43L0 46L1 46L1 48L0 48L0 50L2 50L2 51L3 51L3 52L4 52L4 53L3 53L3 54L1 54L1 53L2 53L2 52L1 52L1 51L0 51L0 54L1 54L1 55L0 55L0 56L2 56L2 57L1 57L1 58L0 58L0 61L1 61L1 58L2 58L2 59L3 59L3 57L4 57L4 59L7 59L7 58L5 58L5 57L7 57L7 56L6 56L6 55L7 55L7 54L9 54L9 53L10 53L10 56L8 56L8 57L9 57L9 58L10 58L10 60L9 60L9 61L8 61L8 62L9 62L9 61L10 61L10 62L12 62L12 63L13 63L13 62L12 62L12 61L13 61L13 60L14 60L14 61L15 61L15 62L14 62L14 63L15 63L15 64L13 64L13 65L14 65L14 69L15 69L15 68L16 68L16 69L17 69L17 68L16 68L16 67L18 67L18 69L19 69L19 66L18 66L18 65L19 65L19 64L20 64L20 65L21 65L21 63L20 63L20 59L21 59L21 60L22 60L22 67L21 67L21 66L20 66L20 67L21 67L21 69L23 69L23 68L22 68L22 67L23 67L23 66L24 66L24 67L26 67L26 68L25 68L25 69L27 69L27 68L28 68L28 69L29 69L29 68L30 68L30 69L31 69L31 68L32 68L32 69L33 69L33 68L34 68L34 65L37 65L37 63L38 63L38 65L39 65L39 66L40 66L40 65L41 65L41 67L42 67L42 68L43 68L43 67L44 67L44 69L45 69L45 67L44 67L44 65L47 65L47 64L46 64L46 63L48 63L48 61L49 61L49 63L50 63L50 64L48 64L48 65L49 65L49 67L50 67L50 68L48 68L48 69L50 69L50 68L52 68L52 69L55 69L55 68L56 68L56 69L58 69L58 67L57 67L57 68L56 68L56 65L59 65L59 64L60 64L60 65L63 65L63 66L64 66L64 69L65 69L65 68L66 68L66 69L67 69L67 68L66 68L66 66L64 66L64 65L66 65L66 63L67 63L67 65L69 65L69 64L68 64L68 63L69 63L69 62L68 62L68 63L67 63L67 62L66 62L66 61L65 61L65 60L63 60L63 59L64 59L64 57L65 57L65 58L66 58L66 59L67 59L67 57L68 57L68 60L67 60L67 61L69 61L69 57L68 57L68 56L69 56L69 52L68 52L68 51L69 51L69 48L68 48L68 49L67 49L67 50L66 50L66 51L65 51L65 50L64 50L64 49L66 49L66 47L67 47L67 46L64 46L64 45L67 45L67 44L66 44L66 43L67 43L67 42L66 42L66 41L65 41L65 43L64 43L64 40L65 40L65 39L66 39L66 38L68 38L68 39L69 39L69 38L68 38L68 37L69 37L69 32L68 32L68 37L67 37L67 36L66 36L66 35L67 35L67 34L66 34L66 33L65 33L65 32L66 32L66 30L68 30L68 31L69 31L69 29L68 29L68 28L67 28L67 29L66 29L66 30L65 30L65 28L64 28L64 25L68 25L68 23L69 23L69 20L68 20L68 19L69 19L69 17L68 17L68 16L66 16L66 15L67 15L67 13L69 13L69 8L67 8L67 9L65 9L65 8L61 8L61 11L62 11L62 13L61 13L61 14L60 14L60 15L61 15L61 14L62 14L62 17L61 17L61 18L60 18L60 16L59 16L59 14L58 14L58 13L59 13L59 12L60 12L60 9L59 9L59 12L58 12L58 13L57 13L57 11L58 11L58 8L56 8L56 9L57 9L57 11L56 11L56 10L54 10L54 9L55 9L55 8L54 8L54 7L55 7L55 6L54 6L54 5L56 5L56 7L57 7L57 6L58 6L58 7L59 7L59 8L60 8L60 7L61 7L61 6L60 6L60 7L59 7L59 4L58 4L58 3L59 3L59 2L57 2L57 0L56 0L56 2L54 2L54 1L55 1L55 0L54 0L54 1L53 1L53 2L52 2L52 0L50 0L50 1L51 1L51 4L50 4L50 5L49 5L49 4L48 4L48 3L49 3L49 0L46 0L46 1L47 1L47 2L46 2L46 3L47 3L47 4L46 4L46 5L47 5L47 6L46 6L46 7L47 7L47 8L44 8L44 9L43 9L43 11L41 11L41 13L40 13L40 14L41 14L41 13L42 13L42 12L44 12L44 14L43 14L43 15L42 15L42 16L40 16L40 17L39 17L39 16L38 16L38 15L39 15L39 14L38 14L38 12L37 12L37 11L36 11L36 12L37 12L37 14L36 14L36 13L35 13L35 14L34 14L34 15L35 15L35 16L34 16L34 17L35 17L35 18L36 18L36 20L34 20L34 19L33 19L33 16L32 16L32 14L31 14L31 16L30 16L30 14L28 14L28 13L29 13L29 12L30 12L30 13L31 13L31 12L30 12L30 11L31 11L31 10L32 10L32 11L33 11L33 12L32 12L32 13L34 13L34 10L32 10L32 9L37 9L37 10L38 10L38 11L40 11L40 10L42 10L42 8L43 8L43 6L42 6L42 5L43 5L43 4L44 4L44 7L45 7L45 4L44 4L44 2L41 2L41 0L40 0L40 2L39 2L39 0L37 0L37 2L34 2L34 3L33 3L33 4L32 4L32 1L33 1L33 0L32 0L32 1L30 1L30 2L29 2L29 1L28 1L28 2L29 2L29 3L28 3L28 5L29 5L29 6L28 6L28 7L27 7L27 6L26 6L26 5L27 5L27 4L26 4L26 2L27 2L27 0L24 0L24 3L23 3L23 1L22 1L22 0L18 0L18 1L19 1L19 3L20 3L20 7L19 7L19 5L18 5L18 8L16 8L16 7L17 7L17 5L16 5L16 4L15 4L15 2L16 2L16 1L17 1L17 0ZM34 0L34 1L35 1L35 0ZM42 0L42 1L44 1L44 0ZM58 0L58 1L61 1L61 0ZM20 1L20 2L21 2L21 7L20 7L20 8L19 8L19 9L20 9L20 10L18 10L18 11L17 11L17 9L16 9L16 10L14 10L14 9L13 9L13 10L12 10L12 8L14 8L14 5L15 5L15 7L16 7L16 5L15 5L15 4L14 4L14 5L12 5L12 4L13 4L13 2L12 2L12 4L10 4L10 6L9 6L9 8L10 8L10 9L8 9L8 10L7 10L7 9L5 9L5 10L7 10L7 11L14 11L14 12L15 12L15 14L17 14L17 16L15 16L15 15L13 15L13 12L12 12L12 14L11 14L11 15L10 15L10 13L11 13L11 12L10 12L10 13L9 13L9 12L8 12L8 14L9 14L9 15L10 15L10 17L11 17L11 18L10 18L10 19L11 19L11 18L12 18L12 19L13 19L13 18L14 18L14 19L15 19L15 21L16 21L16 22L18 22L18 20L19 20L19 21L20 21L20 23L19 23L19 24L20 24L20 23L21 23L21 25L20 25L20 26L23 26L23 27L20 27L20 28L19 28L19 29L18 29L18 27L19 27L19 25L18 25L18 24L17 24L17 23L16 23L16 24L17 24L17 26L16 26L16 27L17 27L17 29L16 29L16 30L15 30L15 31L13 31L13 30L12 30L12 28L13 28L13 29L15 29L15 28L14 28L14 25L12 25L12 26L11 26L11 28L10 28L10 29L9 29L9 30L8 30L8 31L10 31L10 30L11 30L11 31L13 31L13 32L12 32L12 34L11 34L11 32L9 32L9 33L10 33L10 34L11 34L11 35L9 35L9 36L10 36L10 37L9 37L9 38L7 38L7 37L6 37L6 38L5 38L5 39L6 39L6 40L7 40L7 39L9 39L9 40L8 40L8 42L7 42L7 41L6 41L6 42L7 42L7 43L8 43L8 44L7 44L7 45L5 45L5 48L7 48L7 47L6 47L6 46L7 46L7 45L8 45L8 46L9 46L9 45L10 45L10 44L9 44L9 42L10 42L10 43L11 43L11 45L13 45L13 46L14 46L14 47L11 47L11 46L10 46L10 48L9 48L9 47L8 47L8 48L9 48L9 49L8 49L8 50L7 50L7 49L6 49L6 50L7 50L7 51L5 51L5 54L7 54L7 53L9 53L9 52L10 52L10 53L11 53L11 54L12 54L12 55L11 55L11 56L10 56L10 57L11 57L11 58L12 58L12 59L11 59L11 60L10 60L10 61L12 61L12 60L13 60L13 58L12 58L12 57L14 57L14 56L17 56L17 57L18 57L18 58L16 58L16 59L18 59L18 60L17 60L17 61L16 61L16 62L15 62L15 63L16 63L16 64L15 64L15 65L16 65L16 66L17 66L17 65L16 65L16 64L17 64L17 61L18 61L18 60L19 60L19 59L20 59L20 58L23 58L23 65L24 65L24 66L27 66L27 64L29 64L29 65L30 65L30 64L31 64L31 67L32 67L32 68L33 68L33 66L32 66L32 64L31 64L31 62L32 62L32 60L33 60L33 59L34 59L34 60L35 60L35 59L34 59L34 58L37 58L37 59L36 59L36 60L37 60L37 61L38 61L38 63L39 63L39 65L40 65L40 62L41 62L41 61L42 61L42 62L44 62L44 63L43 63L43 65L42 65L42 63L41 63L41 65L42 65L42 67L43 67L43 65L44 65L44 63L45 63L45 62L44 62L44 60L47 60L47 61L46 61L46 62L47 62L47 61L48 61L48 58L49 58L49 60L50 60L50 58L51 58L51 59L52 59L52 58L53 58L53 57L52 57L52 56L54 56L54 60L53 60L53 61L52 61L52 62L53 62L53 63L52 63L52 64L50 64L50 67L52 67L52 68L53 68L53 66L52 66L52 64L53 64L53 63L54 63L54 64L55 64L55 65L54 65L54 66L55 66L55 65L56 65L56 64L55 64L55 63L54 63L54 62L55 62L55 61L56 61L56 60L57 60L57 64L59 64L59 63L60 63L60 62L59 62L59 61L58 61L58 58L59 58L59 60L60 60L60 59L61 59L61 60L62 60L62 58L63 58L63 57L64 57L64 54L66 54L66 56L65 56L65 57L66 57L66 56L68 56L68 53L67 53L67 51L68 51L68 50L67 50L67 51L66 51L66 52L65 52L65 51L64 51L64 52L65 52L65 53L64 53L64 54L63 54L63 53L61 53L61 52L60 52L60 50L59 50L59 48L60 48L60 47L62 47L62 48L61 48L61 49L62 49L62 50L63 50L63 47L62 47L62 45L61 45L61 44L63 44L63 45L64 45L64 43L62 43L62 40L61 40L61 44L60 44L60 45L58 45L58 46L59 46L59 47L57 47L57 46L56 46L56 44L57 44L57 43L58 43L58 44L59 44L59 42L60 42L60 41L59 41L59 40L60 40L60 39L62 39L62 38L63 38L63 40L64 40L64 38L65 38L65 37L66 37L66 36L65 36L65 37L61 37L61 38L60 38L60 39L57 39L57 41L58 41L58 42L57 42L57 43L56 43L56 42L55 42L55 41L56 41L56 38L57 38L57 37L56 37L56 36L58 36L58 38L59 38L59 36L60 36L60 32L61 32L61 29L62 29L62 30L63 30L63 31L64 31L64 28L63 28L63 27L62 27L62 28L61 28L61 29L60 29L60 28L59 28L59 29L58 29L58 28L57 28L57 27L60 27L60 26L61 26L61 25L60 25L60 24L61 24L61 23L62 23L62 22L64 22L64 23L63 23L63 25L62 25L62 26L63 26L63 25L64 25L64 23L66 23L66 24L67 24L67 23L68 23L68 20L67 20L67 19L68 19L68 18L66 18L66 20L67 20L67 21L66 21L66 22L64 22L64 20L65 20L65 19L64 19L64 16L65 16L65 15L66 15L66 12L68 12L68 10L67 10L67 11L66 11L66 10L65 10L65 9L62 9L62 11L66 11L66 12L65 12L65 14L64 14L64 13L62 13L62 14L64 14L64 15L63 15L63 17L62 17L62 22L61 22L61 21L60 21L60 22L59 22L59 20L60 20L60 19L58 19L58 18L59 18L59 17L58 17L58 18L56 18L56 16L58 16L58 15L56 15L56 14L57 14L57 13L56 13L56 14L55 14L55 11L53 11L53 13L52 13L52 11L51 11L51 12L49 12L49 13L48 13L48 11L50 11L50 10L52 10L52 8L53 8L53 7L54 7L54 6L53 6L53 7L52 7L52 6L51 6L51 7L50 7L50 6L49 6L49 5L48 5L48 6L47 6L47 7L48 7L48 8L47 8L47 9L46 9L46 10L45 10L45 12L46 12L46 10L47 10L47 9L48 9L48 11L47 11L47 13L46 13L46 14L44 14L44 15L43 15L43 17L42 17L42 18L41 18L41 17L40 17L40 19L42 19L42 24L43 24L43 25L42 25L42 26L41 26L41 25L40 25L40 24L41 24L41 23L40 23L40 22L41 22L41 21L40 21L40 20L38 20L38 21L39 21L39 23L38 23L38 27L36 27L36 28L37 28L37 29L38 29L38 30L37 30L37 31L36 31L36 29L35 29L35 30L34 30L34 31L36 31L36 32L37 32L37 33L38 33L38 35L37 35L37 39L36 39L36 38L35 38L35 37L33 37L33 39L34 39L34 40L33 40L33 41L34 41L34 40L35 40L35 39L36 39L36 41L35 41L35 43L33 43L33 44L32 44L32 45L30 45L30 42L31 42L31 41L32 41L32 40L30 40L30 39L31 39L31 37L30 37L30 36L29 36L29 37L28 37L28 39L26 39L26 38L27 38L27 37L26 37L26 36L27 36L27 35L26 35L26 34L27 34L27 32L26 32L26 31L27 31L27 29L28 29L28 30L29 30L29 31L28 31L28 32L29 32L29 34L28 34L28 35L29 35L29 34L30 34L30 35L31 35L31 36L32 36L32 32L33 32L33 31L32 31L32 30L31 30L31 29L30 29L30 28L29 28L29 29L28 29L28 27L27 27L27 25L26 25L26 24L27 24L27 23L28 23L28 22L30 22L30 20L31 20L31 19L32 19L32 20L33 20L33 21L34 21L34 22L31 22L31 23L30 23L30 24L31 24L31 25L30 25L30 26L29 26L29 24L28 24L28 26L29 26L29 27L30 27L30 26L31 26L31 25L33 25L33 26L34 26L34 25L36 25L36 26L37 26L37 25L36 25L36 24L37 24L37 23L36 23L36 21L34 21L34 20L33 20L33 19L32 19L32 16L31 16L31 17L30 17L30 16L29 16L29 15L28 15L28 14L27 14L27 15L26 15L26 16L27 16L27 17L26 17L26 18L25 18L25 13L26 13L26 12L25 12L25 13L24 13L24 14L23 14L23 15L22 15L22 14L21 14L21 13L22 13L22 12L23 12L23 11L22 11L22 10L23 10L23 9L22 9L22 10L21 10L21 9L20 9L20 8L21 8L21 7L22 7L22 8L23 8L23 7L24 7L24 8L25 8L25 9L26 9L26 11L27 11L27 13L28 13L28 12L29 12L29 11L30 11L30 10L31 10L31 9L32 9L32 8L30 8L30 6L29 6L29 7L28 7L28 8L27 8L27 9L26 9L26 6L25 6L25 5L24 5L24 4L25 4L25 3L24 3L24 4L23 4L23 3L22 3L22 2L21 2L21 1ZM25 1L25 2L26 2L26 1ZM17 2L17 3L18 3L18 2ZM30 2L30 5L31 5L31 7L32 7L32 4L31 4L31 2ZM40 2L40 4L41 4L41 5L40 5L40 6L39 6L39 5L38 5L38 6L37 6L37 9L38 9L38 10L40 10L40 9L39 9L39 7L40 7L40 6L41 6L41 8L42 8L42 6L41 6L41 5L42 5L42 3L41 3L41 2ZM53 2L53 3L52 3L52 4L53 4L53 5L54 5L54 4L55 4L55 3L54 3L54 2ZM56 2L56 4L57 4L57 2ZM34 3L34 4L35 4L35 3ZM36 3L36 4L37 4L37 3ZM38 3L38 4L39 4L39 3ZM60 3L60 5L61 5L61 3ZM23 5L23 6L22 6L22 7L23 7L23 6L24 6L24 7L25 7L25 6L24 6L24 5ZM33 5L33 8L36 8L36 5ZM10 6L10 8L11 8L11 6ZM12 6L12 7L13 7L13 6ZM34 6L34 7L35 7L35 6ZM38 6L38 7L39 7L39 6ZM48 6L48 7L49 7L49 8L48 8L48 9L49 9L49 10L50 10L50 7L49 7L49 6ZM51 7L51 8L52 8L52 7ZM27 9L27 10L28 10L28 9ZM24 10L24 11L25 11L25 10ZM16 11L16 12L17 12L17 11ZM19 11L19 12L18 12L18 13L19 13L19 12L22 12L22 11ZM3 12L3 13L0 13L0 14L1 14L1 15L0 15L0 16L1 16L1 15L2 15L2 17L1 17L1 18L2 18L2 17L3 17L3 18L4 18L4 17L3 17L3 13L4 13L4 12ZM47 13L47 14L46 14L46 15L44 15L44 17L45 17L45 18L46 18L46 19L45 19L45 20L44 20L44 21L43 21L43 23L44 23L44 21L45 21L45 23L47 23L47 26L46 26L46 25L45 25L45 24L44 24L44 25L45 25L45 27L47 27L47 26L48 26L48 29L47 29L47 28L46 28L46 29L47 29L47 30L48 30L48 34L46 34L46 32L45 32L45 28L44 28L44 30L43 30L43 31L44 31L44 34L43 34L43 35L42 35L42 30L40 30L40 29L43 29L43 28L40 28L40 25L39 25L39 31L38 31L38 33L39 33L39 34L41 34L41 35L40 35L40 38L38 38L38 41L37 41L37 42L38 42L38 43L37 43L37 45L36 45L36 43L35 43L35 44L33 44L33 46L35 46L35 47L33 47L33 48L34 48L34 49L33 49L33 51L32 51L32 48L31 48L31 47L32 47L32 46L30 46L30 45L29 45L29 46L30 46L30 47L29 47L29 48L28 48L28 47L27 47L27 46L28 46L28 45L27 45L27 44L28 44L28 41L29 41L29 39L28 39L28 41L27 41L27 40L26 40L26 39L25 39L25 38L24 38L24 36L23 36L23 35L25 35L25 34L24 34L24 32L25 32L25 31L24 31L24 29L25 29L25 28L26 28L26 29L27 29L27 28L26 28L26 25L25 25L25 24L26 24L26 22L28 22L28 21L29 21L29 20L26 20L26 19L27 19L27 18L26 18L26 19L25 19L25 20L24 20L24 21L23 21L23 20L22 20L22 19L23 19L23 18L24 18L24 17L23 17L23 16L24 16L24 15L23 15L23 16L22 16L22 19L20 19L20 18L21 18L21 16L19 16L19 15L20 15L20 14L19 14L19 15L18 15L18 16L19 16L19 20L20 20L20 21L21 21L21 22L22 22L22 21L23 21L23 23L22 23L22 24L23 24L23 23L24 23L24 25L25 25L25 26L24 26L24 27L25 27L25 28L24 28L24 29L23 29L23 28L22 28L22 30L23 30L23 31L22 31L22 34L20 34L20 35L22 35L22 37L23 37L23 38L21 38L21 39L20 39L20 36L19 36L19 35L18 35L18 37L17 37L17 38L16 38L16 36L17 36L17 35L16 35L16 33L17 33L17 34L18 34L18 33L19 33L19 32L20 32L20 33L21 33L21 32L20 32L20 31L21 31L21 30L20 30L20 29L21 29L21 28L20 28L20 29L19 29L19 30L18 30L18 29L17 29L17 32L16 32L16 31L15 31L15 32L14 32L14 34L15 34L15 39L14 39L14 41L13 41L13 42L11 42L11 43L14 43L14 44L13 44L13 45L14 45L14 46L16 46L16 45L17 45L17 46L18 46L18 45L19 45L19 44L20 44L20 40L21 40L21 44L22 44L22 45L21 45L21 47L20 47L20 48L19 48L19 47L18 47L18 48L19 48L19 50L18 50L18 52L17 52L17 56L18 56L18 57L19 57L19 58L18 58L18 59L19 59L19 58L20 58L20 57L21 57L21 56L20 56L20 57L19 57L19 55L20 55L20 53L21 53L21 51L20 51L20 50L22 50L22 51L23 51L23 48L21 48L21 47L22 47L22 45L23 45L23 47L25 47L25 50L24 50L24 52L22 52L22 53L23 53L23 55L22 55L22 56L23 56L23 55L25 55L25 56L24 56L24 57L25 57L25 58L24 58L24 59L26 59L26 61L25 61L25 62L24 62L24 63L25 63L25 62L26 62L26 61L27 61L27 63L26 63L26 64L27 64L27 63L28 63L28 61L29 61L29 59L30 59L30 62L31 62L31 60L32 60L32 59L33 59L33 58L34 58L34 57L36 57L36 56L34 56L34 53L35 53L35 52L36 52L36 53L37 53L37 55L40 55L40 58L39 58L39 59L38 59L38 60L39 60L39 61L41 61L41 60L39 60L39 59L40 59L40 58L41 58L41 59L43 59L43 60L44 60L44 59L47 59L47 58L48 58L48 57L49 57L49 58L50 58L50 57L51 57L51 56L52 56L52 54L53 54L53 52L52 52L52 50L53 50L53 51L54 51L54 49L53 49L53 48L52 48L52 47L56 47L56 50L55 50L55 52L56 52L56 54L55 54L55 55L54 55L54 56L56 56L56 57L57 57L57 58L56 58L56 59L55 59L55 60L54 60L54 61L53 61L53 62L54 62L54 61L55 61L55 60L56 60L56 59L57 59L57 58L58 58L58 57L62 57L62 56L63 56L63 54L62 54L62 56L60 56L60 54L61 54L61 53L60 53L60 52L59 52L59 51L56 51L56 50L58 50L58 48L57 48L57 47L56 47L56 46L54 46L54 45L55 45L55 44L54 44L54 43L55 43L55 42L54 42L54 41L53 41L53 40L52 40L52 39L54 39L54 36L56 36L56 35L55 35L55 34L54 34L54 32L56 32L56 33L58 33L58 32L56 32L56 31L57 31L57 30L58 30L58 31L59 31L59 32L60 32L60 31L59 31L59 30L60 30L60 29L59 29L59 30L58 30L58 29L57 29L57 28L56 28L56 29L55 29L55 27L54 27L54 29L53 29L53 24L54 24L54 25L55 25L55 23L56 23L56 26L58 26L58 25L59 25L59 26L60 26L60 25L59 25L59 23L58 23L58 25L57 25L57 23L56 23L56 22L58 22L58 20L56 20L56 18L54 18L54 17L55 17L55 16L56 16L56 15L55 15L55 16L54 16L54 15L51 15L51 14L52 14L52 13L51 13L51 14L50 14L50 13L49 13L49 15L48 15L48 13ZM53 13L53 14L54 14L54 13ZM35 14L35 15L36 15L36 16L35 16L35 17L37 17L37 15L36 15L36 14ZM68 14L68 15L69 15L69 14ZM6 15L6 16L7 16L7 15ZM11 15L11 17L12 17L12 18L13 18L13 16L12 16L12 15ZM27 15L27 16L28 16L28 17L29 17L29 16L28 16L28 15ZM46 15L46 18L47 18L47 17L48 17L48 15ZM14 16L14 18L16 18L16 19L17 19L17 20L16 20L16 21L17 21L17 20L18 20L18 18L17 18L17 17L15 17L15 16ZM50 16L50 19L49 19L49 20L50 20L50 22L48 22L48 23L49 23L49 24L50 24L50 26L52 26L52 24L53 24L53 23L55 23L55 22L56 22L56 20L55 20L55 21L54 21L54 19L53 19L53 21L54 21L54 22L52 22L52 16ZM38 17L38 18L37 18L37 19L38 19L38 18L39 18L39 17ZM28 18L28 19L29 19L29 18ZM42 18L42 19L44 19L44 18ZM46 19L46 20L45 20L45 21L46 21L46 22L47 22L47 21L48 21L48 20L47 20L47 19ZM50 19L50 20L51 20L51 19ZM63 19L63 20L64 20L64 19ZM21 20L21 21L22 21L22 20ZM25 20L25 21L24 21L24 23L25 23L25 22L26 22L26 20ZM34 22L34 23L35 23L35 24L36 24L36 23L35 23L35 22ZM50 22L50 23L51 23L51 24L52 24L52 23L51 23L51 22ZM8 23L8 24L7 24L7 25L6 25L6 26L8 26L8 24L9 24L9 26L10 26L10 24L9 24L9 23ZM13 23L13 24L15 24L15 23ZM31 23L31 24L32 24L32 23ZM39 23L39 24L40 24L40 23ZM48 25L48 26L49 26L49 25ZM12 26L12 27L13 27L13 26ZM42 26L42 27L43 27L43 26ZM66 26L66 27L67 27L67 26ZM68 26L68 27L69 27L69 26ZM34 27L34 28L35 28L35 27ZM50 27L50 28L51 28L51 29L50 29L50 30L49 30L49 31L50 31L50 30L51 30L51 31L52 31L52 32L50 32L50 34L49 34L49 36L50 36L50 39L47 39L47 38L48 38L48 35L46 35L46 34L44 34L44 35L43 35L43 37L42 37L42 38L43 38L43 41L42 41L42 39L41 39L41 41L42 41L42 42L39 42L39 41L40 41L40 39L39 39L39 41L38 41L38 42L39 42L39 43L38 43L38 44L39 44L39 45L38 45L38 47L39 47L39 49L38 49L38 48L36 48L36 49L38 49L38 50L39 50L39 49L40 49L40 51L41 51L41 52L42 52L42 56L41 56L41 57L42 57L42 58L45 58L45 57L46 57L46 58L47 58L47 57L48 57L48 56L49 56L49 54L48 54L48 51L47 51L47 52L46 52L46 54L48 54L48 55L45 55L45 54L44 54L44 51L46 51L46 50L48 50L48 48L47 48L47 45L48 45L48 47L50 47L50 50L49 50L49 53L50 53L50 54L52 54L52 52L50 52L50 51L51 51L51 50L52 50L52 48L51 48L51 47L52 47L52 46L53 46L53 45L52 45L52 44L53 44L53 43L52 43L52 40L50 40L50 39L52 39L52 38L51 38L51 37L52 37L52 36L54 36L54 35L53 35L53 33L52 33L52 32L54 32L54 31L56 31L56 30L55 30L55 29L54 29L54 31L52 31L52 30L51 30L51 29L52 29L52 27ZM3 28L3 29L4 29L4 28ZM32 28L32 29L33 29L33 28ZM6 29L6 30L7 30L7 29ZM19 30L19 31L18 31L18 32L19 32L19 31L20 31L20 30ZM29 31L29 32L30 32L30 33L31 33L31 32L32 32L32 31L31 31L31 32L30 32L30 31ZM39 31L39 33L40 33L40 31ZM5 33L5 36L8 36L8 33ZM33 33L33 36L36 36L36 33ZM61 33L61 36L64 36L64 33ZM2 34L2 35L1 35L1 36L2 36L2 35L3 35L3 36L4 36L4 35L3 35L3 34ZM6 34L6 35L7 35L7 34ZM12 34L12 35L11 35L11 37L10 37L10 38L9 38L9 39L10 39L10 40L11 40L11 41L12 41L12 40L13 40L13 39L12 39L12 38L13 38L13 37L14 37L14 35L13 35L13 34ZM22 34L22 35L23 35L23 34ZM34 34L34 35L35 35L35 34ZM50 34L50 36L51 36L51 35L52 35L52 34ZM62 34L62 35L63 35L63 34ZM65 34L65 35L66 35L66 34ZM44 35L44 37L43 37L43 38L45 38L45 39L46 39L46 41L45 41L45 40L44 40L44 41L43 41L43 42L42 42L42 43L41 43L41 44L42 44L42 45L43 45L43 47L41 47L41 48L40 48L40 49L41 49L41 51L42 51L42 52L43 52L43 50L42 50L42 49L43 49L43 48L44 48L44 50L46 50L46 49L47 49L47 48L44 48L44 45L45 45L45 46L46 46L46 45L47 45L47 44L48 44L48 45L49 45L49 46L50 46L50 45L51 45L51 46L52 46L52 45L51 45L51 44L52 44L52 43L51 43L51 44L50 44L50 41L49 41L49 40L48 40L48 41L47 41L47 39L46 39L46 35ZM58 35L58 36L59 36L59 35ZM12 36L12 37L13 37L13 36ZM38 36L38 37L39 37L39 36ZM18 37L18 38L17 38L17 39L15 39L15 44L14 44L14 45L15 45L15 44L17 44L17 45L18 45L18 44L17 44L17 43L18 43L18 42L19 42L19 41L18 41L18 38L19 38L19 37ZM55 37L55 38L56 38L56 37ZM6 38L6 39L7 39L7 38ZM34 38L34 39L35 39L35 38ZM11 39L11 40L12 40L12 39ZM19 39L19 40L20 40L20 39ZM22 39L22 40L23 40L23 39ZM16 40L16 41L17 41L17 42L16 42L16 43L17 43L17 42L18 42L18 41L17 41L17 40ZM67 40L67 41L68 41L68 40ZM22 41L22 44L23 44L23 41ZM44 41L44 43L45 43L45 44L47 44L47 43L48 43L48 42L49 42L49 41L48 41L48 42L47 42L47 41L46 41L46 42L45 42L45 41ZM24 42L24 43L25 43L25 45L24 45L24 46L25 46L25 45L26 45L26 43L27 43L27 42ZM68 42L68 43L69 43L69 42ZM42 43L42 44L43 44L43 43ZM8 44L8 45L9 45L9 44ZM49 44L49 45L50 45L50 44ZM68 44L68 47L69 47L69 44ZM35 45L35 46L36 46L36 45ZM40 45L40 46L41 46L41 45ZM14 47L14 48L12 48L12 49L9 49L9 50L8 50L8 51L7 51L7 52L6 52L6 53L7 53L7 52L9 52L9 50L10 50L10 51L11 51L11 53L12 53L12 50L14 50L14 48L15 48L15 50L16 50L16 49L17 49L17 47ZM26 47L26 48L27 48L27 49L26 49L26 50L25 50L25 52L24 52L24 54L25 54L25 53L26 53L26 56L25 56L25 57L26 57L26 56L27 56L27 57L28 57L28 58L29 58L29 57L28 57L28 56L29 56L29 54L32 54L32 55L30 55L30 56L33 56L33 57L34 57L34 56L33 56L33 54L32 54L32 53L30 53L30 51L31 51L31 52L32 52L32 51L31 51L31 49L30 49L30 48L29 48L29 49L28 49L28 48L27 48L27 47ZM64 47L64 48L65 48L65 47ZM1 48L1 49L3 49L3 50L5 50L5 49L4 49L4 48ZM34 49L34 50L35 50L35 49ZM28 50L28 51L29 51L29 50ZM15 51L15 52L14 52L14 54L13 54L13 55L12 55L12 56L11 56L11 57L12 57L12 56L14 56L14 54L15 54L15 55L16 55L16 53L15 53L15 52L16 52L16 51ZM34 51L34 52L35 52L35 51ZM36 51L36 52L37 52L37 51ZM19 52L19 53L20 53L20 52ZM26 52L26 53L27 53L27 56L28 56L28 52ZM38 52L38 53L39 53L39 52ZM57 52L57 53L58 53L58 54L59 54L59 52ZM40 53L40 54L41 54L41 53ZM3 54L3 56L4 56L4 57L5 57L5 56L4 56L4 54ZM43 54L43 55L44 55L44 57L45 57L45 55L44 55L44 54ZM56 54L56 56L57 56L57 57L58 57L58 55L57 55L57 54ZM50 55L50 56L51 56L51 55ZM37 56L37 57L38 57L38 56ZM30 57L30 58L32 58L32 57ZM26 58L26 59L27 59L27 61L28 61L28 59L27 59L27 58ZM14 59L14 60L15 60L15 59ZM3 60L3 61L5 61L5 60ZM6 60L6 61L7 61L7 60ZM33 61L33 64L36 64L36 61ZM50 61L50 62L51 62L51 61ZM61 61L61 64L64 64L64 61ZM34 62L34 63L35 63L35 62ZM62 62L62 63L63 63L63 62ZM8 63L8 64L9 64L9 66L8 66L8 69L9 69L9 68L10 68L10 67L11 67L11 69L13 69L13 67L11 67L11 63ZM18 63L18 64L19 64L19 63ZM29 63L29 64L30 64L30 63ZM24 64L24 65L25 65L25 64ZM9 66L9 67L10 67L10 66ZM28 66L28 67L30 67L30 66ZM35 66L35 69L37 69L37 68L36 68L36 67L37 67L37 66ZM47 66L47 67L46 67L46 69L47 69L47 67L48 67L48 66ZM60 66L60 67L61 67L61 68L60 68L60 69L63 69L63 68L62 68L62 67L61 67L61 66ZM67 66L67 67L69 67L69 66ZM39 67L39 68L38 68L38 69L39 69L39 68L40 68L40 69L41 69L41 68L40 68L40 67ZM54 67L54 68L55 68L55 67ZM68 68L68 69L69 69L69 68ZM0 0L0 7L7 7L7 0ZM1 1L1 6L6 6L6 1ZM2 2L2 5L5 5L5 2ZM62 0L62 7L69 7L69 0ZM63 1L63 6L68 6L68 1ZM64 2L64 5L67 5L67 2ZM0 62L0 69L7 69L7 62ZM1 63L1 68L6 68L6 63ZM2 64L2 67L5 67L5 64Z" fill="#000000"/></g></g></svg>
