<?xml version="1.0" encoding="UTF-8"?>
<svg xmlns="http://www.w3.org/2000/svg" version="1.1" width="300" height="300" viewBox="0 0 300 300"><rect x="0" y="0" width="300" height="300" fill="#ffffff"/><g transform="scale(4.348)"><g transform="translate(0,0)"><path fill-rule="evenodd" d="M9 0L9 1L8 1L8 2L9 2L9 3L8 3L8 4L9 4L9 3L10 3L10 2L11 2L11 4L10 4L10 5L8 5L8 7L9 7L9 6L10 6L10 9L11 9L11 8L12 8L12 10L11 10L11 12L10 12L10 11L8 11L8 14L9 14L9 12L10 12L10 13L11 13L11 14L10 14L10 16L9 16L9 15L7 15L7 14L6 14L6 13L7 13L7 12L6 12L6 11L7 11L7 10L9 10L9 8L6 8L6 9L5 9L5 8L0 8L0 9L1 9L1 11L2 11L2 10L3 10L3 9L5 9L5 14L4 14L4 15L3 15L3 13L4 13L4 11L3 11L3 12L2 12L2 13L1 13L1 14L0 14L0 15L1 15L1 19L0 19L0 23L1 23L1 24L0 24L0 27L1 27L1 25L2 25L2 28L0 28L0 29L1 29L1 30L0 30L0 31L1 31L1 30L3 30L3 31L2 31L2 32L1 32L1 34L0 34L0 37L1 37L1 40L2 40L2 41L0 41L0 42L2 42L2 43L3 43L3 45L2 45L2 44L1 44L1 43L0 43L0 44L1 44L1 45L0 45L0 47L1 47L1 49L0 49L0 52L1 52L1 53L0 53L0 54L1 54L1 53L2 53L2 54L3 54L3 55L4 55L4 54L5 54L5 56L2 56L2 55L0 55L0 56L2 56L2 57L1 57L1 58L0 58L0 61L1 61L1 58L2 58L2 59L3 59L3 58L4 58L4 59L8 59L8 60L9 60L9 59L10 59L10 61L8 61L8 63L9 63L9 62L10 62L10 64L8 64L8 69L12 69L12 67L11 67L11 68L10 68L10 67L9 67L9 66L11 66L11 65L10 65L10 64L12 64L12 63L13 63L13 67L14 67L14 66L15 66L15 64L18 64L18 65L17 65L17 69L22 69L22 68L19 68L19 67L20 67L20 66L19 66L19 65L20 65L20 64L23 64L23 66L25 66L25 67L23 67L23 69L26 69L26 67L28 67L28 68L27 68L27 69L28 69L28 68L29 68L29 69L32 69L32 68L33 68L33 69L35 69L35 68L36 68L36 69L38 69L38 68L37 68L37 67L35 67L35 66L34 66L34 67L33 67L33 65L36 65L36 66L38 66L38 67L39 67L39 66L38 66L38 65L39 65L39 64L41 64L41 66L40 66L40 67L41 67L41 68L42 68L42 69L44 69L44 68L47 68L47 69L49 69L49 68L50 68L50 69L51 69L51 68L52 68L52 67L51 67L51 66L50 66L50 65L49 65L49 64L50 64L50 63L49 63L49 64L48 64L48 63L47 63L47 62L50 62L50 61L49 61L49 60L51 60L51 59L52 59L52 60L53 60L53 59L54 59L54 60L55 60L55 61L53 61L53 63L51 63L51 64L53 64L53 65L52 65L52 66L54 66L54 67L53 67L53 69L54 69L54 68L55 68L55 69L56 69L56 64L57 64L57 66L58 66L58 67L57 67L57 69L58 69L58 68L62 68L62 69L64 69L64 68L62 68L62 67L64 67L64 66L66 66L66 67L65 67L65 68L67 68L67 69L68 69L68 68L67 68L67 65L65 65L65 64L68 64L68 63L67 63L67 62L69 62L69 61L68 61L68 60L67 60L67 59L68 59L68 58L67 58L67 59L65 59L65 60L63 60L63 59L64 59L64 58L63 58L63 57L60 57L60 58L57 58L57 57L56 57L56 56L59 56L59 55L62 55L62 53L64 53L64 51L66 51L66 52L65 52L65 55L63 55L63 56L65 56L65 58L66 58L66 57L67 57L67 56L68 56L68 57L69 57L69 55L68 55L68 54L69 54L69 53L66 53L66 52L68 52L68 50L69 50L69 49L65 49L65 48L69 48L69 47L68 47L68 46L67 46L67 45L69 45L69 43L68 43L68 42L69 42L69 40L68 40L68 36L69 36L69 35L68 35L68 34L69 34L69 31L68 31L68 29L69 29L69 28L67 28L67 27L68 27L68 26L67 26L67 24L68 24L68 25L69 25L69 24L68 24L68 18L69 18L69 16L68 16L68 14L65 14L65 16L66 16L66 17L63 17L63 18L62 18L62 16L64 16L64 15L63 15L63 14L64 14L64 13L63 13L63 11L64 11L64 8L63 8L63 11L62 11L62 8L61 8L61 6L60 6L60 9L59 9L59 8L58 8L58 7L59 7L59 4L58 4L58 7L57 7L57 6L56 6L56 5L57 5L57 4L56 4L56 3L59 3L59 2L58 2L58 1L61 1L61 0L54 0L54 1L53 1L53 0L51 0L51 1L50 1L50 0L47 0L47 1L46 1L46 2L47 2L47 3L48 3L48 5L47 5L47 6L46 6L46 5L44 5L44 3L45 3L45 4L46 4L46 3L45 3L45 2L44 2L44 3L43 3L43 0L41 0L41 1L38 1L38 0L34 0L34 2L35 2L35 3L36 3L36 4L32 4L32 3L33 3L33 2L31 2L31 3L29 3L29 1L30 1L30 0L28 0L28 1L26 1L26 2L25 2L25 0L23 0L23 1L22 1L22 2L23 2L23 4L22 4L22 3L19 3L19 2L20 2L20 1L19 1L19 0L16 0L16 1L17 1L17 2L16 2L16 3L15 3L15 4L14 4L14 5L15 5L15 6L14 6L14 7L15 7L15 6L16 6L16 7L17 7L17 6L16 6L16 5L17 5L17 4L18 4L18 7L19 7L19 6L20 6L20 7L21 7L21 6L22 6L22 7L23 7L23 8L24 8L24 9L23 9L23 10L21 10L21 11L18 11L18 12L17 12L17 10L20 10L20 9L22 9L22 8L20 8L20 9L19 9L19 8L15 8L15 9L17 9L17 10L16 10L16 12L13 12L13 11L12 11L12 10L13 10L13 8L12 8L12 7L13 7L13 6L12 6L12 7L11 7L11 4L13 4L13 3L14 3L14 1L15 1L15 0L12 0L12 1L13 1L13 2L11 2L11 1L10 1L10 0ZM44 0L44 1L45 1L45 0ZM23 1L23 2L24 2L24 4L25 4L25 2L24 2L24 1ZM41 1L41 2L37 2L37 3L38 3L38 4L37 4L37 5L38 5L38 6L37 6L37 7L38 7L38 8L39 8L39 9L37 9L37 10L36 10L36 9L33 9L33 10L32 10L32 5L31 5L31 4L27 4L27 3L28 3L28 2L26 2L26 4L27 4L27 5L30 5L30 6L29 6L29 8L30 8L30 9L27 9L27 7L28 7L28 6L27 6L27 7L26 7L26 6L25 6L25 7L24 7L24 5L22 5L22 4L20 4L20 6L21 6L21 5L22 5L22 6L23 6L23 7L24 7L24 8L26 8L26 9L24 9L24 10L23 10L23 11L24 11L24 12L20 12L20 14L18 14L18 13L17 13L17 12L16 12L16 13L17 13L17 14L16 14L16 15L17 15L17 16L14 16L14 13L13 13L13 12L12 12L12 13L13 13L13 15L11 15L11 16L10 16L10 18L11 18L11 19L9 19L9 18L8 18L8 21L12 21L12 22L10 22L10 23L9 23L9 22L8 22L8 23L6 23L6 22L7 22L7 21L6 21L6 22L5 22L5 21L4 21L4 19L5 19L5 20L7 20L7 19L5 19L5 18L7 18L7 17L9 17L9 16L7 16L7 15L6 15L6 14L5 14L5 15L4 15L4 16L2 16L2 20L1 20L1 21L2 21L2 20L3 20L3 22L5 22L5 23L3 23L3 24L5 24L5 23L6 23L6 24L8 24L8 25L4 25L4 26L3 26L3 27L4 27L4 29L3 29L3 28L2 28L2 29L3 29L3 30L5 30L5 31L6 31L6 32L8 32L8 30L9 30L9 29L10 29L10 32L9 32L9 33L11 33L11 34L12 34L12 32L13 32L13 31L14 31L14 32L15 32L15 33L13 33L13 34L17 34L17 35L13 35L13 36L14 36L14 37L12 37L12 35L10 35L10 37L9 37L9 38L10 38L10 37L11 37L11 39L8 39L8 38L7 38L7 37L5 37L5 39L4 39L4 38L2 38L2 39L4 39L4 40L3 40L3 42L4 42L4 43L5 43L5 44L4 44L4 47L3 47L3 48L2 48L2 49L1 49L1 50L2 50L2 49L3 49L3 53L4 53L4 52L7 52L7 53L5 53L5 54L7 54L7 53L8 53L8 55L6 55L6 56L5 56L5 58L7 58L7 57L8 57L8 56L9 56L9 57L10 57L10 55L9 55L9 53L8 53L8 52L9 52L9 50L8 50L8 47L5 47L5 44L8 44L8 45L6 45L6 46L9 46L9 47L10 47L10 46L11 46L11 45L12 45L12 47L11 47L11 48L10 48L10 49L11 49L11 50L12 50L12 49L11 49L11 48L13 48L13 50L14 50L14 49L15 49L15 50L16 50L16 51L20 51L20 50L18 50L18 49L21 49L21 51L22 51L22 52L19 52L19 53L20 53L20 56L19 56L19 57L17 57L17 56L18 56L18 55L19 55L19 54L18 54L18 55L17 55L17 53L16 53L16 52L14 52L14 53L13 53L13 52L12 52L12 51L10 51L10 53L11 53L11 54L12 54L12 55L13 55L13 56L11 56L11 58L10 58L10 59L11 59L11 61L10 61L10 62L11 62L11 63L12 63L12 62L13 62L13 63L16 63L16 62L17 62L17 63L18 63L18 62L19 62L19 61L17 61L17 60L19 60L19 59L20 59L20 60L21 60L21 61L20 61L20 62L21 62L21 61L23 61L23 60L24 60L24 61L25 61L25 62L29 62L29 64L28 64L28 65L25 65L25 66L28 66L28 65L30 65L30 66L29 66L29 68L32 68L32 67L31 67L31 66L32 66L32 65L30 65L30 63L32 63L32 60L33 60L33 59L34 59L34 60L35 60L35 57L37 57L37 56L39 56L39 57L38 57L38 58L37 58L37 59L38 59L38 63L37 63L37 65L38 65L38 63L41 63L41 64L44 64L44 66L41 66L41 67L43 67L43 68L44 68L44 66L45 66L45 67L46 67L46 66L47 66L47 65L48 65L48 64L47 64L47 63L45 63L45 64L44 64L44 61L45 61L45 62L47 62L47 61L45 61L45 58L46 58L46 60L49 60L49 59L48 59L48 58L49 58L49 57L50 57L50 59L51 59L51 57L52 57L52 58L53 58L53 57L55 57L55 58L56 58L56 61L55 61L55 62L54 62L54 64L56 64L56 63L55 63L55 62L60 62L60 60L61 60L61 59L63 59L63 58L61 58L61 59L58 59L58 60L59 60L59 61L57 61L57 58L56 58L56 57L55 57L55 56L56 56L56 54L57 54L57 55L59 55L59 53L62 53L62 51L63 51L63 50L65 50L65 49L63 49L63 47L64 47L64 48L65 48L65 47L66 47L66 44L64 44L64 45L63 45L63 42L65 42L65 43L67 43L67 44L68 44L68 43L67 43L67 42L68 42L68 40L67 40L67 41L63 41L63 40L62 40L62 41L63 41L63 42L62 42L62 45L63 45L63 46L62 46L62 49L60 49L60 48L61 48L61 47L59 47L59 45L60 45L60 46L61 46L61 45L60 45L60 44L61 44L61 43L60 43L60 44L59 44L59 43L58 43L58 42L59 42L59 41L60 41L60 42L61 42L61 41L60 41L60 40L61 40L61 39L65 39L65 37L66 37L66 38L67 38L67 37L66 37L66 36L65 36L65 37L64 37L64 38L59 38L59 36L60 36L60 35L59 35L59 33L58 33L58 31L60 31L60 30L59 30L59 28L61 28L61 29L62 29L62 30L61 30L61 32L62 32L62 31L63 31L63 32L64 32L64 31L63 31L63 29L65 29L65 31L67 31L67 32L66 32L66 34L65 34L65 35L67 35L67 36L68 36L68 35L67 35L67 34L68 34L68 31L67 31L67 28L63 28L63 29L62 29L62 27L61 27L61 26L60 26L60 27L59 27L59 25L58 25L58 24L59 24L59 23L61 23L61 24L60 24L60 25L61 25L61 24L62 24L62 26L63 26L63 27L64 27L64 26L65 26L65 27L67 27L67 26L65 26L65 25L66 25L66 24L64 24L64 22L65 22L65 21L67 21L67 20L65 20L65 19L67 19L67 17L68 17L68 16L67 16L67 17L66 17L66 18L63 18L63 19L62 19L62 18L60 18L60 19L62 19L62 20L63 20L63 21L62 21L62 23L61 23L61 22L60 22L60 21L61 21L61 20L60 20L60 21L59 21L59 16L58 16L58 15L59 15L59 13L58 13L58 12L60 12L60 13L62 13L62 14L61 14L61 16L62 16L62 14L63 14L63 13L62 13L62 12L61 12L61 11L60 11L60 10L59 10L59 9L57 9L57 7L56 7L56 6L55 6L55 8L56 8L56 11L57 11L57 12L55 12L55 13L56 13L56 14L54 14L54 12L51 12L51 13L50 13L50 12L49 12L49 10L47 10L47 7L48 7L48 6L47 6L47 7L46 7L46 6L45 6L45 7L44 7L44 5L40 5L40 4L42 4L42 3L41 3L41 2L42 2L42 1ZM47 1L47 2L48 2L48 3L49 3L49 2L50 2L50 1ZM51 1L51 2L52 2L52 3L51 3L51 4L49 4L49 5L51 5L51 7L52 7L52 6L53 6L53 7L54 7L54 5L53 5L53 4L55 4L55 3L54 3L54 2L57 2L57 1L54 1L54 2L52 2L52 1ZM17 2L17 3L18 3L18 2ZM60 3L60 5L61 5L61 3ZM15 4L15 5L16 5L16 4ZM33 5L33 8L36 8L36 5ZM30 6L30 7L31 7L31 6ZM34 6L34 7L35 7L35 6ZM38 6L38 7L39 7L39 6ZM40 6L40 7L41 7L41 6ZM42 6L42 7L43 7L43 6ZM49 6L49 9L50 9L50 11L55 11L55 10L52 10L52 9L53 9L53 8L51 8L51 9L50 9L50 6ZM45 7L45 9L44 9L44 8L43 8L43 9L41 9L41 12L40 12L40 11L39 11L39 10L37 10L37 11L39 11L39 12L40 12L40 13L39 13L39 14L38 14L38 12L37 12L37 13L36 13L36 12L34 12L34 11L33 11L33 12L34 12L34 13L33 13L33 14L32 14L32 15L31 15L31 14L30 14L30 13L32 13L32 12L31 12L31 11L32 11L32 10L31 10L31 9L30 9L30 10L27 10L27 9L26 9L26 10L25 10L25 12L24 12L24 13L23 13L23 15L22 15L22 13L21 13L21 14L20 14L20 16L21 16L21 15L22 15L22 16L26 16L26 15L24 15L24 14L27 14L27 16L29 16L29 18L30 18L30 19L29 19L29 20L28 20L28 19L27 19L27 18L28 18L28 17L27 17L27 18L26 18L26 17L18 17L18 16L17 16L17 17L16 17L16 18L17 18L17 17L18 17L18 19L19 19L19 20L17 20L17 22L16 22L16 20L14 20L14 19L15 19L15 17L13 17L13 16L11 16L11 18L12 18L12 17L13 17L13 18L14 18L14 19L13 19L13 20L12 20L12 21L15 21L15 22L12 22L12 23L11 23L11 24L12 24L12 25L11 25L11 26L10 26L10 27L9 27L9 25L10 25L10 24L9 24L9 25L8 25L8 26L4 26L4 27L5 27L5 30L6 30L6 31L7 31L7 30L6 30L6 29L8 29L8 28L6 28L6 27L9 27L9 28L10 28L10 29L11 29L11 30L12 30L12 31L11 31L11 32L12 32L12 31L13 31L13 30L12 30L12 28L13 28L13 27L14 27L14 28L15 28L15 29L14 29L14 31L15 31L15 32L16 32L16 33L17 33L17 34L19 34L19 35L20 35L20 34L19 34L19 33L20 33L20 32L22 32L22 31L23 31L23 32L24 32L24 30L25 30L25 31L26 31L26 32L25 32L25 33L23 33L23 34L22 34L22 33L21 33L21 34L22 34L22 35L21 35L21 36L24 36L24 37L23 37L23 38L24 38L24 39L23 39L23 40L24 40L24 41L23 41L23 42L24 42L24 41L26 41L26 40L29 40L29 41L30 41L30 42L28 42L28 43L30 43L30 42L31 42L31 41L30 41L30 40L29 40L29 39L30 39L30 38L34 38L34 37L38 37L38 36L37 36L37 35L38 35L38 33L39 33L39 32L43 32L43 33L40 33L40 35L39 35L39 36L41 36L41 39L38 39L38 38L36 38L36 39L35 39L35 40L37 40L37 42L38 42L38 43L36 43L36 42L34 42L34 41L32 41L32 43L31 43L31 44L27 44L27 45L26 45L26 43L27 43L27 42L26 42L26 43L25 43L25 44L24 44L24 43L23 43L23 44L24 44L24 45L23 45L23 46L22 46L22 47L23 47L23 48L26 48L26 47L24 47L24 46L25 46L25 45L26 45L26 46L27 46L27 45L31 45L31 44L32 44L32 45L34 45L34 47L33 47L33 46L32 46L32 47L33 47L33 48L36 48L36 47L37 47L37 50L36 50L36 49L31 49L31 47L30 47L30 46L29 46L29 47L28 47L28 48L29 48L29 49L31 49L31 50L33 50L33 51L32 51L32 52L31 52L31 51L30 51L30 50L29 50L29 52L28 52L28 51L26 51L26 52L25 52L25 51L24 51L24 50L26 50L26 49L22 49L22 50L23 50L23 51L24 51L24 52L25 52L25 53L23 53L23 54L22 54L22 53L21 53L21 54L22 54L22 55L21 55L21 56L22 56L22 57L21 57L21 58L22 58L22 57L24 57L24 58L23 58L23 59L22 59L22 60L23 60L23 59L24 59L24 60L25 60L25 61L26 61L26 60L27 60L27 61L29 61L29 62L31 62L31 60L32 60L32 59L30 59L30 58L31 58L31 57L32 57L32 58L33 58L33 57L32 57L32 55L31 55L31 54L30 54L30 53L32 53L32 54L33 54L33 56L37 56L37 55L34 55L34 54L33 54L33 53L34 53L34 52L33 52L33 51L34 51L34 50L35 50L35 52L38 52L38 53L37 53L37 54L41 54L41 55L39 55L39 56L41 56L41 57L39 57L39 62L40 62L40 59L41 59L41 58L42 58L42 60L41 60L41 62L42 62L42 63L43 63L43 61L44 61L44 59L43 59L43 57L44 57L44 56L46 56L46 57L47 57L47 58L48 58L48 57L49 57L49 56L48 56L48 55L47 55L47 56L46 56L46 54L45 54L45 53L48 53L48 54L50 54L50 53L51 53L51 54L52 54L52 55L53 55L53 56L55 56L55 55L54 55L54 54L56 54L56 52L58 52L58 53L59 53L59 52L60 52L60 51L62 51L62 50L63 50L63 49L62 49L62 50L60 50L60 49L59 49L59 48L58 48L58 49L59 49L59 50L58 50L58 51L57 51L57 50L55 50L55 49L56 49L56 48L57 48L57 45L56 45L56 44L57 44L57 43L56 43L56 44L55 44L55 42L56 42L56 38L57 38L57 37L56 37L56 35L57 35L57 34L56 34L56 35L55 35L55 33L56 33L56 32L55 32L55 31L53 31L53 30L55 30L55 29L56 29L56 31L57 31L57 29L56 29L56 28L55 28L55 27L56 27L56 26L57 26L57 27L58 27L58 28L59 28L59 27L58 27L58 26L57 26L57 25L51 25L51 24L50 24L50 23L49 23L49 22L50 22L50 20L46 20L46 21L48 21L48 22L47 22L47 24L46 24L46 22L44 22L44 20L43 20L43 17L44 17L44 16L45 16L45 17L46 17L46 16L45 16L45 15L44 15L44 16L42 16L42 17L41 17L41 18L39 18L39 19L37 19L37 18L38 18L38 16L40 16L40 15L42 15L42 14L45 14L45 13L47 13L47 14L50 14L50 13L49 13L49 12L45 12L45 11L43 11L43 12L45 12L45 13L42 13L42 14L41 14L41 12L42 12L42 10L45 10L45 9L46 9L46 7ZM65 8L65 13L67 13L67 11L66 11L66 10L69 10L69 9L68 9L68 8L67 8L67 9L66 9L66 8ZM6 9L6 10L7 10L7 9ZM26 10L26 11L27 11L27 12L25 12L25 13L27 13L27 14L28 14L28 15L29 15L29 16L31 16L31 15L30 15L30 14L29 14L29 13L30 13L30 12L28 12L28 11L27 11L27 10ZM35 10L35 11L36 11L36 10ZM57 10L57 11L58 11L58 10ZM68 11L68 13L69 13L69 11ZM34 13L34 14L33 14L33 15L32 15L32 17L33 17L33 19L32 19L32 18L31 18L31 19L30 19L30 20L29 20L29 21L28 21L28 20L26 20L26 18L25 18L25 19L24 19L24 18L22 18L22 19L21 19L21 20L20 20L20 22L19 22L19 21L18 21L18 22L19 22L19 23L17 23L17 24L16 24L16 25L15 25L15 24L13 24L13 26L12 26L12 27L13 27L13 26L14 26L14 27L15 27L15 28L16 28L16 27L15 27L15 26L16 26L16 25L17 25L17 26L18 26L18 27L19 27L19 28L20 28L20 30L19 30L19 32L20 32L20 31L22 31L22 29L24 29L24 27L23 27L23 28L20 28L20 26L21 26L21 27L22 27L22 26L24 26L24 25L22 25L22 24L21 24L21 23L22 23L22 22L23 22L23 23L24 23L24 24L26 24L26 26L25 26L25 27L26 27L26 30L27 30L27 31L28 31L28 30L29 30L29 32L28 32L28 33L25 33L25 34L23 34L23 35L24 35L24 36L26 36L26 37L27 37L27 38L26 38L26 39L29 39L29 38L30 38L30 37L29 37L29 36L28 36L28 35L27 35L27 34L28 34L28 33L29 33L29 35L30 35L30 36L31 36L31 37L32 37L32 36L31 36L31 35L30 35L30 34L32 34L32 33L29 33L29 32L31 32L31 31L32 31L32 32L34 32L34 31L33 31L33 30L34 30L34 29L35 29L35 30L37 30L37 31L39 31L39 30L40 30L40 31L43 31L43 32L44 32L44 33L43 33L43 34L41 34L41 36L44 36L44 37L45 37L45 38L48 38L48 39L47 39L47 40L45 40L45 39L43 39L43 38L42 38L42 39L41 39L41 40L39 40L39 41L38 41L38 42L39 42L39 43L40 43L40 44L39 44L39 45L38 45L38 44L37 44L37 45L38 45L38 48L39 48L39 49L38 49L38 50L37 50L37 51L39 51L39 50L41 50L41 51L40 51L40 52L39 52L39 53L41 53L41 54L42 54L42 55L43 55L43 56L42 56L42 57L43 57L43 56L44 56L44 53L45 53L45 52L46 52L46 51L47 51L47 52L48 52L48 51L49 51L49 52L51 52L51 53L53 53L53 51L54 51L54 50L53 50L53 46L54 46L54 47L55 47L55 48L54 48L54 49L55 49L55 48L56 48L56 45L55 45L55 44L54 44L54 42L53 42L53 41L55 41L55 40L52 40L52 39L54 39L54 38L53 38L53 36L51 36L51 37L50 37L50 36L49 36L49 37L45 37L45 36L47 36L47 33L45 33L45 32L46 32L46 31L47 31L47 32L49 32L49 33L50 33L50 35L51 35L51 33L52 33L52 34L53 34L53 35L54 35L54 36L55 36L55 35L54 35L54 34L53 34L53 33L55 33L55 32L53 32L53 31L52 31L52 32L51 32L51 30L53 30L53 28L54 28L54 29L55 29L55 28L54 28L54 26L52 26L52 27L53 27L53 28L51 28L51 25L50 25L50 24L49 24L49 23L48 23L48 24L47 24L47 25L46 25L46 24L45 24L45 23L44 23L44 22L42 22L42 23L43 23L43 24L44 24L44 25L43 25L43 26L46 26L46 27L47 27L47 28L49 28L49 27L50 27L50 28L51 28L51 29L50 29L50 30L49 30L49 29L48 29L48 30L49 30L49 31L47 31L47 29L45 29L45 28L44 28L44 27L43 27L43 28L44 28L44 29L43 29L43 30L42 30L42 27L39 27L39 28L40 28L40 29L38 29L38 28L37 28L37 29L36 29L36 28L35 28L35 27L36 27L36 26L35 26L35 25L36 25L36 24L38 24L38 26L37 26L37 27L38 27L38 26L41 26L41 25L42 25L42 24L41 24L41 21L43 21L43 20L42 20L42 19L41 19L41 20L40 20L40 19L39 19L39 21L40 21L40 22L37 22L37 23L36 23L36 24L35 24L35 23L32 23L32 24L31 24L31 27L30 27L30 26L29 26L29 25L30 25L30 24L28 24L28 25L27 25L27 24L26 24L26 23L30 23L30 22L31 22L31 21L30 21L30 20L31 20L31 19L32 19L32 21L33 21L33 22L35 22L35 21L38 21L38 20L37 20L37 19L35 19L35 18L36 18L36 17L37 17L37 16L38 16L38 14L37 14L37 15L35 15L35 13ZM52 13L52 14L51 14L51 16L50 16L50 17L51 17L51 18L49 18L49 16L47 16L47 18L44 18L44 19L52 19L52 20L51 20L51 21L52 21L52 22L51 22L51 23L52 23L52 22L55 22L55 21L56 21L56 22L57 22L57 21L58 21L58 20L57 20L57 21L56 21L56 18L57 18L57 19L58 19L58 18L57 18L57 17L58 17L58 16L57 16L57 15L58 15L58 14L56 14L56 16L55 16L55 15L54 15L54 14L53 14L53 13ZM1 14L1 15L2 15L2 14ZM17 14L17 15L18 15L18 14ZM39 14L39 15L40 15L40 14ZM5 15L5 16L4 16L4 18L3 18L3 19L4 19L4 18L5 18L5 17L7 17L7 16L6 16L6 15ZM33 15L33 16L34 16L34 15ZM52 15L52 16L51 16L51 17L53 17L53 16L54 16L54 17L55 17L55 18L56 18L56 17L57 17L57 16L56 16L56 17L55 17L55 16L54 16L54 15ZM19 18L19 19L20 19L20 18ZM22 19L22 20L23 20L23 19ZM54 19L54 20L52 20L52 21L55 21L55 19ZM63 19L63 20L64 20L64 19ZM24 20L24 21L23 21L23 22L24 22L24 23L25 23L25 21L26 21L26 22L27 22L27 21L26 21L26 20ZM33 20L33 21L35 21L35 20ZM21 21L21 22L22 22L22 21ZM29 21L29 22L30 22L30 21ZM63 21L63 22L64 22L64 21ZM58 22L58 23L59 23L59 22ZM19 23L19 24L17 24L17 25L18 25L18 26L20 26L20 25L19 25L19 24L20 24L20 23ZM38 23L38 24L39 24L39 23ZM54 23L54 24L57 24L57 23ZM32 24L32 26L34 26L34 27L35 27L35 26L34 26L34 25L35 25L35 24ZM48 24L48 25L47 25L47 26L48 26L48 27L49 27L49 26L50 26L50 25L49 25L49 24ZM63 24L63 25L64 25L64 24ZM14 25L14 26L15 26L15 25ZM21 25L21 26L22 26L22 25ZM48 25L48 26L49 26L49 25ZM10 27L10 28L11 28L11 27ZM29 27L29 28L28 28L28 29L30 29L30 30L33 30L33 29L34 29L34 28L33 28L33 27L31 27L31 28L30 28L30 27ZM31 28L31 29L32 29L32 28ZM15 29L15 30L17 30L17 31L18 31L18 30L17 30L17 29ZM37 29L37 30L38 30L38 29ZM43 30L43 31L44 31L44 32L45 32L45 30ZM2 32L2 33L3 33L3 34L4 34L4 33L3 33L3 32ZM17 32L17 33L18 33L18 32ZM37 32L37 33L38 33L38 32ZM50 32L50 33L51 33L51 32ZM5 33L5 36L8 36L8 33ZM33 33L33 36L36 36L36 33ZM44 33L44 36L45 36L45 33ZM61 33L61 36L64 36L64 33ZM1 34L1 35L2 35L2 37L4 37L4 36L3 36L3 35L2 35L2 34ZM6 34L6 35L7 35L7 34ZM25 34L25 35L26 35L26 34ZM34 34L34 35L35 35L35 34ZM48 34L48 35L49 35L49 34ZM62 34L62 35L63 35L63 34ZM15 36L15 37L14 37L14 39L13 39L13 40L12 40L12 41L11 41L11 40L10 40L10 44L9 44L9 46L10 46L10 45L11 45L11 44L12 44L12 43L13 43L13 45L14 45L14 46L15 46L15 47L13 47L13 48L15 48L15 49L16 49L16 48L17 48L17 49L18 49L18 48L17 48L17 47L18 47L18 46L20 46L20 45L21 45L21 44L20 44L20 40L21 40L21 41L22 41L22 40L21 40L21 39L22 39L22 38L20 38L20 37L19 37L19 36ZM15 37L15 38L17 38L17 40L15 40L15 41L16 41L16 42L14 42L14 43L16 43L16 44L15 44L15 46L18 46L18 45L16 45L16 44L17 44L17 42L18 42L18 41L17 41L17 40L19 40L19 39L18 39L18 38L17 38L17 37ZM39 37L39 38L40 38L40 37ZM51 37L51 38L49 38L49 39L51 39L51 38L52 38L52 37ZM55 37L55 38L56 38L56 37ZM6 38L6 39L5 39L5 40L6 40L6 41L7 41L7 42L5 42L5 41L4 41L4 42L5 42L5 43L8 43L8 41L7 41L7 40L8 40L8 39L7 39L7 38ZM6 39L6 40L7 40L7 39ZM31 39L31 40L34 40L34 39ZM13 40L13 41L12 41L12 42L13 42L13 41L14 41L14 40ZM41 40L41 41L40 41L40 43L41 43L41 44L40 44L40 45L39 45L39 46L40 46L40 47L39 47L39 48L40 48L40 47L41 47L41 48L42 48L42 49L41 49L41 50L42 50L42 51L41 51L41 52L42 52L42 54L43 54L43 53L44 53L44 52L45 52L45 49L46 49L46 47L45 47L45 49L44 49L44 46L45 46L45 45L46 45L46 44L47 44L47 46L50 46L50 48L49 48L49 47L48 47L48 48L47 48L47 50L49 50L49 51L52 51L52 50L49 50L49 49L50 49L50 48L51 48L51 47L52 47L52 46L50 46L50 45L51 45L51 43L50 43L50 41L52 41L52 40L50 40L50 41L49 41L49 40L47 40L47 42L46 42L46 43L45 43L45 42L44 42L44 40ZM48 41L48 42L47 42L47 43L48 43L48 44L49 44L49 45L50 45L50 44L49 44L49 43L48 43L48 42L49 42L49 41ZM33 42L33 44L34 44L34 45L35 45L35 44L36 44L36 43L34 43L34 42ZM43 42L43 44L44 44L44 45L43 45L43 46L42 46L42 45L41 45L41 46L42 46L42 48L43 48L43 46L44 46L44 45L45 45L45 44L44 44L44 42ZM18 43L18 44L19 44L19 43ZM58 44L58 45L59 45L59 44ZM1 45L1 46L2 46L2 45ZM54 45L54 46L55 46L55 45ZM35 46L35 47L36 47L36 46ZM4 47L4 48L5 48L5 49L4 49L4 50L5 50L5 51L7 51L7 52L8 52L8 51L7 51L7 50L5 50L5 49L7 49L7 48L5 48L5 47ZM15 47L15 48L16 48L16 47ZM27 49L27 50L28 50L28 49ZM43 49L43 50L44 50L44 49ZM1 51L1 52L2 52L2 51ZM43 51L43 52L44 52L44 51ZM58 51L58 52L59 52L59 51ZM26 52L26 53L25 53L25 54L29 54L29 55L30 55L30 54L29 54L29 53L27 53L27 52ZM12 53L12 54L13 54L13 55L14 55L14 56L15 56L15 57L12 57L12 58L13 58L13 59L12 59L12 60L13 60L13 62L14 62L14 59L16 59L16 60L15 60L15 61L16 61L16 60L17 60L17 59L18 59L18 58L17 58L17 57L16 57L16 55L15 55L15 53L14 53L14 54L13 54L13 53ZM23 54L23 56L26 56L26 58L25 58L25 60L26 60L26 58L27 58L27 59L28 59L28 60L30 60L30 59L28 59L28 58L29 58L29 57L30 57L30 56L28 56L28 55L27 55L27 56L26 56L26 55L24 55L24 54ZM50 55L50 57L51 57L51 55ZM6 56L6 57L7 57L7 56ZM47 56L47 57L48 57L48 56ZM15 57L15 58L16 58L16 57ZM19 57L19 58L20 58L20 57ZM8 58L8 59L9 59L9 58ZM3 60L3 61L5 61L5 60ZM6 60L6 61L7 61L7 60ZM42 60L42 61L43 61L43 60ZM33 61L33 64L36 64L36 61ZM51 61L51 62L52 62L52 61ZM61 61L61 64L64 64L64 61ZM34 62L34 63L35 63L35 62ZM62 62L62 63L63 63L63 62ZM65 62L65 63L66 63L66 62ZM19 63L19 64L20 64L20 63ZM23 63L23 64L24 64L24 63ZM25 63L25 64L26 64L26 63ZM45 64L45 66L46 66L46 64ZM58 64L58 66L60 66L60 65L59 65L59 64ZM61 65L61 67L62 67L62 66L64 66L64 65ZM21 66L21 67L22 67L22 66ZM49 66L49 67L50 67L50 66ZM14 68L14 69L15 69L15 68ZM0 0L0 7L7 7L7 0ZM1 1L1 6L6 6L6 1ZM2 2L2 5L5 5L5 2ZM62 0L62 7L69 7L69 0ZM63 1L63 6L68 6L68 1ZM64 2L64 5L67 5L67 2ZM0 62L0 69L7 69L7 62ZM1 63L1 68L6 68L6 63ZM2 64L2 67L5 67L5 64Z" fill="#000000"/></g></g></svg>
