<?xml version="1.0" encoding="UTF-8"?>
<svg xmlns="http://www.w3.org/2000/svg" version="1.1" width="300" height="300" viewBox="0 0 300 300"><rect x="0" y="0" width="300" height="300" fill="#ffffff"/><g transform="scale(4.348)"><g transform="translate(0,0)"><path fill-rule="evenodd" d="M9 0L9 3L8 3L8 5L9 5L9 6L8 6L8 7L9 7L9 9L8 9L8 8L5 8L5 9L2 9L2 8L0 8L0 12L2 12L2 13L3 13L3 14L4 14L4 12L5 12L5 11L8 11L8 10L9 10L9 9L10 9L10 10L11 10L11 11L12 11L12 13L10 13L10 14L14 14L14 15L12 15L12 16L13 16L13 17L15 17L15 18L17 18L17 17L18 17L18 18L19 18L19 19L18 19L18 20L17 20L17 21L15 21L15 20L16 20L16 19L13 19L13 21L12 21L12 20L11 20L11 21L10 21L10 20L9 20L9 21L10 21L10 22L9 22L9 23L8 23L8 24L9 24L9 23L10 23L10 25L9 25L9 27L10 27L10 26L11 26L11 27L14 27L14 24L15 24L15 28L12 28L12 29L15 29L15 32L16 32L16 34L17 34L17 35L20 35L20 34L21 34L21 33L20 33L20 32L21 32L21 31L22 31L22 29L21 29L21 30L20 30L20 28L23 28L23 29L24 29L24 31L25 31L25 30L26 30L26 28L25 28L25 23L26 23L26 22L29 22L29 21L31 21L31 20L32 20L32 22L33 22L33 25L32 25L32 23L31 23L31 22L30 22L30 23L28 23L28 24L26 24L26 25L27 25L27 26L26 26L26 27L28 27L28 28L29 28L29 30L32 30L32 31L31 31L31 32L30 32L30 31L28 31L28 29L27 29L27 31L26 31L26 32L25 32L25 33L24 33L24 32L23 32L23 33L22 33L22 35L21 35L21 36L18 36L18 37L17 37L17 39L18 39L18 40L17 40L17 41L18 41L18 42L19 42L19 43L17 43L17 42L16 42L16 43L17 43L17 45L15 45L15 44L12 44L12 42L11 42L11 41L12 41L12 40L13 40L13 41L15 41L15 40L14 40L14 39L13 39L13 38L16 38L16 35L15 35L15 37L13 37L13 36L14 36L14 35L12 35L12 34L14 34L14 32L13 32L13 31L14 31L14 30L11 30L11 29L10 29L10 30L9 30L9 28L6 28L6 27L7 27L7 26L8 26L8 25L7 25L7 24L5 24L5 26L6 26L6 27L4 27L4 25L2 25L2 26L3 26L3 28L2 28L2 27L0 27L0 29L1 29L1 28L2 28L2 29L3 29L3 32L1 32L1 30L0 30L0 32L1 32L1 33L0 33L0 36L1 36L1 37L0 37L0 38L1 38L1 39L2 39L2 36L3 36L3 38L5 38L5 39L4 39L4 40L0 40L0 45L1 45L1 43L3 43L3 41L4 41L4 42L5 42L5 41L7 41L7 40L9 40L9 41L8 41L8 42L6 42L6 43L7 43L7 44L3 44L3 46L0 46L0 47L2 47L2 49L0 49L0 54L1 54L1 51L2 51L2 52L3 52L3 51L2 51L2 49L3 49L3 48L6 48L6 49L7 49L7 48L6 48L6 47L8 47L8 49L9 49L9 50L10 50L10 51L8 51L8 52L10 52L10 54L9 54L9 55L8 55L8 54L6 54L6 53L7 53L7 52L6 52L6 53L5 53L5 52L4 52L4 53L2 53L2 59L3 59L3 58L4 58L4 59L7 59L7 60L6 60L6 61L8 61L8 64L9 64L9 65L11 65L11 64L10 64L10 63L9 63L9 61L11 61L11 59L10 59L10 58L11 58L11 56L13 56L13 58L14 58L14 59L15 59L15 60L14 60L14 62L16 62L16 61L17 61L17 59L18 59L18 58L19 58L19 60L18 60L18 61L19 61L19 62L18 62L18 63L17 63L17 64L16 64L16 63L15 63L15 66L16 66L16 67L14 67L14 66L13 66L13 65L14 65L14 63L13 63L13 62L11 62L11 63L12 63L12 64L13 64L13 65L12 65L12 67L11 67L11 66L9 66L9 67L8 67L8 69L10 69L10 68L12 68L12 69L13 69L13 67L14 67L14 68L15 68L15 69L21 69L21 68L22 68L22 65L21 65L21 66L20 66L20 67L21 67L21 68L19 68L19 65L20 65L20 64L21 64L21 62L20 62L20 61L19 61L19 60L20 60L20 58L21 58L21 57L20 57L20 56L21 56L21 55L20 55L20 53L19 53L19 52L20 52L20 51L21 51L21 52L22 52L22 51L21 51L21 48L19 48L19 49L18 49L18 50L20 50L20 51L17 51L17 50L16 50L16 49L17 49L17 47L18 47L18 46L21 46L21 47L22 47L22 49L23 49L23 50L24 50L24 51L23 51L23 52L24 52L24 53L23 53L23 55L22 55L22 59L21 59L21 60L22 60L22 61L23 61L23 62L22 62L22 64L23 64L23 67L24 67L24 66L25 66L25 65L27 65L27 66L26 66L26 67L25 67L25 69L26 69L26 68L29 68L29 69L32 69L32 68L30 68L30 67L31 67L31 65L32 65L32 66L34 66L34 67L33 67L33 68L34 68L34 69L35 69L35 68L36 68L36 69L38 69L38 68L37 68L37 67L38 67L38 65L39 65L39 66L40 66L40 65L39 65L39 63L38 63L38 61L37 61L37 58L38 58L38 59L41 59L41 58L42 58L42 60L44 60L44 61L41 61L41 60L39 60L39 61L41 61L41 62L42 62L42 63L45 63L45 65L46 65L46 64L47 64L47 65L49 65L49 68L48 68L48 67L46 67L46 68L47 68L47 69L49 69L49 68L50 68L50 69L51 69L51 68L52 68L52 67L51 67L51 68L50 68L50 65L51 65L51 63L52 63L52 62L51 62L51 63L49 63L49 64L47 64L47 62L50 62L50 61L53 61L53 60L54 60L54 62L53 62L53 63L54 63L54 64L55 64L55 65L52 65L52 66L54 66L54 67L53 67L53 68L54 68L54 69L56 69L56 68L54 68L54 67L55 67L55 66L56 66L56 64L59 64L59 63L60 63L60 67L59 67L59 68L58 68L58 65L57 65L57 68L58 68L58 69L68 69L68 68L67 68L67 67L69 67L69 66L66 66L66 65L65 65L65 64L67 64L67 63L68 63L68 62L67 62L67 59L68 59L68 58L69 58L69 57L67 57L67 53L65 53L65 54L64 54L64 52L69 52L69 51L68 51L68 50L69 50L69 49L68 49L68 48L67 48L67 47L68 47L68 46L69 46L69 45L68 45L68 46L67 46L67 44L68 44L68 43L69 43L69 42L68 42L68 41L69 41L69 39L68 39L68 38L67 38L67 37L65 37L65 33L66 33L66 34L67 34L67 35L66 35L66 36L67 36L67 35L68 35L68 37L69 37L69 35L68 35L68 34L67 34L67 33L69 33L69 29L68 29L68 28L69 28L69 27L68 27L68 26L67 26L67 24L69 24L69 23L68 23L68 22L69 22L69 21L68 21L68 19L69 19L69 17L67 17L67 16L69 16L69 15L68 15L68 14L69 14L69 13L68 13L68 14L65 14L65 12L66 12L66 13L67 13L67 10L68 10L68 9L66 9L66 8L64 8L64 9L65 9L65 10L66 10L66 11L65 11L65 12L64 12L64 14L62 14L62 12L63 12L63 11L62 11L62 12L61 12L61 10L63 10L63 9L60 9L60 8L61 8L61 6L60 6L60 7L59 7L59 4L58 4L58 3L59 3L59 2L58 2L58 1L61 1L61 0L57 0L57 3L55 3L55 4L54 4L54 3L52 3L52 2L56 2L56 1L55 1L55 0L54 0L54 1L53 1L53 0L50 0L50 1L49 1L49 0L48 0L48 1L47 1L47 0L46 0L46 1L45 1L45 2L44 2L44 3L43 3L43 1L44 1L44 0L42 0L42 2L41 2L41 0L40 0L40 2L41 2L41 3L37 3L37 2L39 2L39 0L36 0L36 1L35 1L35 0L34 0L34 1L35 1L35 3L33 3L33 0L32 0L32 2L31 2L31 0L29 0L29 1L28 1L28 3L27 3L27 2L25 2L25 1L27 1L27 0L24 0L24 1L23 1L23 0L22 0L22 1L21 1L21 0L18 0L18 1L17 1L17 0L16 0L16 1L17 1L17 2L16 2L16 3L15 3L15 2L13 2L13 3L12 3L12 4L13 4L13 5L12 5L12 7L11 7L11 6L10 6L10 5L11 5L11 4L10 4L10 5L9 5L9 3L11 3L11 2L10 2L10 1L12 1L12 0ZM13 0L13 1L14 1L14 0ZM18 1L18 2L17 2L17 3L20 3L20 6L19 6L19 7L18 7L18 5L19 5L19 4L17 4L17 7L18 7L18 8L17 8L17 9L18 9L18 10L19 10L19 11L18 11L18 12L17 12L17 10L16 10L16 9L15 9L15 8L16 8L16 5L15 5L15 4L14 4L14 5L13 5L13 8L12 8L12 11L14 11L14 12L13 12L13 13L18 13L18 12L20 12L20 14L21 14L21 15L23 15L23 16L20 16L20 15L19 15L19 14L18 14L18 15L17 15L17 16L18 16L18 17L21 17L21 18L20 18L20 19L21 19L21 18L22 18L22 20L20 20L20 21L21 21L21 23L20 23L20 24L19 24L19 25L18 25L18 24L17 24L17 23L18 23L18 22L19 22L19 21L18 21L18 22L16 22L16 23L15 23L15 22L12 22L12 21L11 21L11 22L10 22L10 23L15 23L15 24L17 24L17 27L16 27L16 30L19 30L19 32L20 32L20 30L19 30L19 29L17 29L17 27L19 27L19 28L20 28L20 27L21 27L21 26L24 26L24 24L22 24L22 21L23 21L23 20L24 20L24 19L23 19L23 16L24 16L24 15L27 15L27 16L25 16L25 17L26 17L26 19L25 19L25 20L26 20L26 21L25 21L25 22L26 22L26 21L27 21L27 20L31 20L31 18L32 18L32 16L31 16L31 15L29 15L29 13L30 13L30 11L28 11L28 12L27 12L27 9L28 9L28 8L27 8L27 7L28 7L28 6L29 6L29 8L30 8L30 9L29 9L29 10L30 10L30 9L31 9L31 10L32 10L32 11L31 11L31 14L32 14L32 15L33 15L33 17L34 17L34 20L33 20L33 19L32 19L32 20L33 20L33 21L35 21L35 20L36 20L36 21L38 21L38 22L37 22L37 25L38 25L38 26L39 26L39 25L40 25L40 26L41 26L41 25L40 25L40 24L41 24L41 23L42 23L42 22L40 22L40 24L39 24L39 21L41 21L41 20L39 20L39 21L38 21L38 20L36 20L36 17L37 17L37 16L38 16L38 15L39 15L39 17L38 17L38 18L37 18L37 19L38 19L38 18L39 18L39 17L40 17L40 19L42 19L42 21L43 21L43 20L44 20L44 21L46 21L46 20L47 20L47 19L49 19L49 17L50 17L50 18L51 18L51 19L50 19L50 20L49 20L49 21L48 21L48 22L46 22L46 23L44 23L44 22L43 22L43 26L45 26L45 25L46 25L46 27L45 27L45 28L44 28L44 29L43 29L43 30L42 30L42 27L41 27L41 28L40 28L40 30L42 30L42 31L43 31L43 32L40 32L40 31L39 31L39 29L38 29L38 30L37 30L37 29L36 29L36 28L33 28L33 26L34 26L34 25L33 25L33 26L31 26L31 27L32 27L32 28L31 28L31 29L32 29L32 28L33 28L33 29L35 29L35 30L34 30L34 31L36 31L36 30L37 30L37 32L38 32L38 33L40 33L40 34L39 34L39 35L38 35L38 34L37 34L37 37L36 37L36 38L35 38L35 37L32 37L32 35L31 35L31 34L32 34L32 32L33 32L33 31L32 31L32 32L31 32L31 34L30 34L30 33L29 33L29 32L28 32L28 34L29 34L29 37L28 37L28 36L27 36L27 37L26 37L26 35L27 35L27 34L26 34L26 33L25 33L25 34L24 34L24 35L25 35L25 36L23 36L23 35L22 35L22 36L21 36L21 37L20 37L20 38L22 38L22 39L24 39L24 40L22 40L22 42L23 42L23 41L24 41L24 44L25 44L25 42L26 42L26 45L27 45L27 42L28 42L28 45L29 45L29 43L30 43L30 41L31 41L31 42L32 42L32 43L31 43L31 45L30 45L30 46L31 46L31 48L32 48L32 50L30 50L30 47L28 47L28 46L22 46L22 45L23 45L23 44L21 44L21 46L22 46L22 47L23 47L23 49L24 49L24 48L25 48L25 47L26 47L26 48L27 48L27 49L26 49L26 50L25 50L25 52L26 52L26 54L27 54L27 55L26 55L26 59L25 59L25 60L24 60L24 59L22 59L22 60L23 60L23 61L25 61L25 62L27 62L27 61L28 61L28 63L29 63L29 64L28 64L28 65L29 65L29 66L28 66L28 67L30 67L30 65L29 65L29 64L31 64L31 63L32 63L32 61L31 61L31 63L29 63L29 61L30 61L30 60L32 60L32 59L33 59L33 60L34 60L34 59L36 59L36 58L35 58L35 56L33 56L33 58L31 58L31 59L30 59L30 60L29 60L29 61L28 61L28 59L29 59L29 58L27 58L27 57L30 57L30 56L29 56L29 55L28 55L28 54L29 54L29 53L28 53L28 51L29 51L29 50L30 50L30 51L31 51L31 54L32 54L32 52L33 52L33 51L32 51L32 50L33 50L33 49L34 49L34 51L36 51L36 50L37 50L37 51L38 51L38 52L34 52L34 54L37 54L37 53L38 53L38 52L39 52L39 54L40 54L40 53L43 53L43 54L44 54L44 55L43 55L43 56L42 56L42 57L43 57L43 59L44 59L44 60L46 60L46 62L47 62L47 61L48 61L48 60L49 60L49 59L50 59L50 60L51 60L51 59L54 59L54 60L55 60L55 61L56 61L56 63L58 63L58 62L59 62L59 61L58 61L58 60L61 60L61 59L64 59L64 60L65 60L65 61L66 61L66 60L65 60L65 59L64 59L64 58L63 58L63 56L64 56L64 57L65 57L65 56L64 56L64 54L63 54L63 55L62 55L62 52L64 52L64 51L65 51L65 50L66 50L66 49L67 49L67 48L66 48L66 49L64 49L64 48L65 48L65 47L66 47L66 44L65 44L65 47L64 47L64 48L63 48L63 45L62 45L62 44L61 44L61 43L60 43L60 42L59 42L59 41L60 41L60 40L61 40L61 42L62 42L62 40L61 40L61 39L60 39L60 38L62 38L62 39L63 39L63 40L65 40L65 39L66 39L66 38L65 38L65 37L63 37L63 38L62 38L62 37L60 37L60 34L59 34L59 35L58 35L58 36L57 36L57 35L56 35L56 34L54 34L54 33L55 33L55 32L56 32L56 33L59 33L59 32L57 32L57 31L58 31L58 30L59 30L59 31L62 31L62 30L64 30L64 31L65 31L65 30L66 30L66 31L67 31L67 32L66 32L66 33L67 33L67 32L68 32L68 31L67 31L67 28L68 28L68 27L67 27L67 26L66 26L66 24L65 24L65 23L63 23L63 22L62 22L62 26L59 26L59 25L61 25L61 24L60 24L60 23L61 23L61 22L59 22L59 25L58 25L58 28L56 28L56 27L57 27L57 26L56 26L56 24L58 24L58 21L57 21L57 20L55 20L55 18L54 18L54 19L53 19L53 20L52 20L52 18L53 18L53 17L55 17L55 16L53 16L53 14L51 14L51 12L50 12L50 14L47 14L47 13L48 13L48 12L49 12L49 10L50 10L50 9L49 9L49 10L45 10L45 8L46 8L46 9L47 9L47 7L48 7L48 5L47 5L47 4L46 4L46 3L47 3L47 1L46 1L46 2L45 2L45 4L44 4L44 5L43 5L43 7L42 7L42 5L39 5L39 4L37 4L37 5L38 5L38 6L37 6L37 7L38 7L38 8L37 8L37 9L38 9L38 8L39 8L39 11L38 11L38 10L36 10L36 9L35 9L35 10L36 10L36 11L34 11L34 13L32 13L32 12L33 12L33 10L34 10L34 9L31 9L31 8L32 8L32 5L30 5L30 4L27 4L27 5L28 5L28 6L27 6L27 7L26 7L26 5L25 5L25 7L26 7L26 9L24 9L24 6L23 6L23 5L24 5L24 4L25 4L25 2L23 2L23 3L24 3L24 4L23 4L23 5L21 5L21 1L20 1L20 2L19 2L19 1ZM50 1L50 3L51 3L51 2L52 2L52 1ZM30 2L30 3L31 3L31 4L33 4L33 3L31 3L31 2ZM48 2L48 3L49 3L49 2ZM42 3L42 4L43 4L43 3ZM60 3L60 5L61 5L61 3ZM50 4L50 5L49 5L49 7L50 7L50 8L51 8L51 10L52 10L52 11L53 11L53 8L54 8L54 9L55 9L55 10L57 10L57 8L56 8L56 6L57 6L57 7L58 7L58 9L59 9L59 7L58 7L58 6L57 6L57 4L56 4L56 5L55 5L55 7L54 7L54 6L53 6L53 7L52 7L52 6L51 6L51 4ZM52 4L52 5L53 5L53 4ZM29 5L29 6L30 6L30 7L31 7L31 6L30 6L30 5ZM33 5L33 8L36 8L36 5ZM44 5L44 7L45 7L45 5ZM9 6L9 7L10 7L10 8L11 8L11 7L10 7L10 6ZM14 6L14 7L15 7L15 6ZM20 6L20 7L21 7L21 8L20 8L20 9L19 9L19 8L18 8L18 9L19 9L19 10L20 10L20 11L22 11L22 10L24 10L24 9L22 9L22 7L23 7L23 6L22 6L22 7L21 7L21 6ZM34 6L34 7L35 7L35 6ZM38 6L38 7L39 7L39 6ZM40 6L40 7L41 7L41 6ZM46 6L46 7L47 7L47 6ZM50 6L50 7L51 7L51 6ZM13 8L13 10L14 10L14 11L15 11L15 10L14 10L14 8ZM43 8L43 9L41 9L41 13L40 13L40 16L41 16L41 15L42 15L42 14L43 14L43 13L42 13L42 10L44 10L44 8ZM55 8L55 9L56 9L56 8ZM1 9L1 10L2 10L2 12L4 12L4 11L5 11L5 10L8 10L8 9L5 9L5 10L2 10L2 9ZM25 10L25 12L24 12L24 11L23 11L23 12L21 12L21 14L27 14L27 15L28 15L28 13L29 13L29 12L28 12L28 13L27 13L27 12L26 12L26 10ZM58 10L58 11L57 11L57 12L58 12L58 11L59 11L59 12L60 12L60 13L61 13L61 12L60 12L60 10ZM9 11L9 12L10 12L10 11ZM43 11L43 12L44 12L44 15L46 15L46 16L45 16L45 17L47 17L47 18L48 18L48 17L49 17L49 15L48 15L48 16L47 16L47 14L46 14L46 11L45 11L45 12L44 12L44 11ZM54 11L54 12L53 12L53 13L54 13L54 12L55 12L55 14L54 14L54 15L55 15L55 14L56 14L56 15L57 15L57 16L56 16L56 17L57 17L57 16L59 16L59 15L60 15L60 16L62 16L62 19L64 19L64 20L62 20L62 21L64 21L64 22L66 22L66 23L67 23L67 22L68 22L68 21L67 21L67 20L66 20L66 19L68 19L68 18L66 18L66 16L64 16L64 15L65 15L65 14L64 14L64 15L62 15L62 14L59 14L59 13L58 13L58 15L57 15L57 14L56 14L56 11ZM68 11L68 12L69 12L69 11ZM6 12L6 13L7 13L7 12ZM25 12L25 13L26 13L26 12ZM8 13L8 14L5 14L5 15L0 15L0 16L2 16L2 17L3 17L3 18L2 18L2 19L1 19L1 17L0 17L0 19L1 19L1 20L0 20L0 21L1 21L1 20L2 20L2 22L0 22L0 26L1 26L1 24L2 24L2 23L4 23L4 22L6 22L6 23L7 23L7 22L8 22L8 19L7 19L7 18L9 18L9 17L11 17L11 18L10 18L10 19L11 19L11 18L12 18L12 17L11 17L11 15L9 15L9 13ZM35 13L35 15L34 15L34 16L35 16L35 15L37 15L37 14L38 14L38 13ZM41 13L41 14L42 14L42 13ZM5 15L5 16L3 16L3 17L5 17L5 18L7 18L7 17L6 17L6 16L9 16L9 15ZM14 15L14 16L15 16L15 17L16 17L16 15ZM50 15L50 17L51 17L51 16L52 16L52 15ZM29 16L29 17L30 17L30 18L31 18L31 16ZM42 16L42 17L41 17L41 18L42 18L42 19L44 19L44 18L43 18L43 17L44 17L44 16ZM58 17L58 18L59 18L59 17ZM64 17L64 19L65 19L65 17ZM3 18L3 19L2 19L2 20L3 20L3 19L4 19L4 21L6 21L6 22L7 22L7 21L6 21L6 20L7 20L7 19L4 19L4 18ZM28 18L28 19L29 19L29 18ZM26 19L26 20L27 20L27 19ZM45 19L45 20L46 20L46 19ZM58 19L58 20L60 20L60 19ZM50 20L50 21L49 21L49 22L48 22L48 23L47 23L47 27L46 27L46 29L44 29L44 30L46 30L46 31L47 31L47 30L48 30L48 32L46 32L46 33L45 33L45 34L44 34L44 37L41 37L41 36L43 36L43 35L41 35L41 34L43 34L43 33L44 33L44 32L45 32L45 31L44 31L44 32L43 32L43 33L41 33L41 34L40 34L40 35L39 35L39 36L38 36L38 37L39 37L39 36L40 36L40 38L39 38L39 39L38 39L38 38L37 38L37 39L35 39L35 40L36 40L36 41L37 41L37 42L38 42L38 44L39 44L39 42L42 42L42 43L41 43L41 44L40 44L40 45L42 45L42 46L40 46L40 47L41 47L41 48L40 48L40 49L39 49L39 47L38 47L38 46L39 46L39 45L37 45L37 46L36 46L36 47L35 47L35 45L33 45L33 44L32 44L32 47L34 47L34 49L35 49L35 50L36 50L36 47L37 47L37 48L38 48L38 49L37 49L37 50L38 50L38 49L39 49L39 52L40 52L40 51L41 51L41 50L42 50L42 52L43 52L43 53L44 53L44 54L45 54L45 55L44 55L44 56L43 56L43 57L44 57L44 58L45 58L45 59L46 59L46 60L47 60L47 59L46 59L46 58L47 58L47 56L48 56L48 57L49 57L49 58L48 58L48 59L49 59L49 58L50 58L50 59L51 59L51 56L48 56L48 55L49 55L49 54L50 54L50 55L52 55L52 53L51 53L51 52L50 52L50 53L49 53L49 51L50 51L50 47L52 47L52 45L50 45L50 44L51 44L51 42L50 42L50 40L49 40L49 39L51 39L51 41L52 41L52 44L55 44L55 45L53 45L53 46L55 46L55 45L56 45L56 44L58 44L58 45L57 45L57 46L56 46L56 47L54 47L54 48L52 48L52 49L53 49L53 52L55 52L55 53L53 53L53 55L54 55L54 54L55 54L55 53L56 53L56 55L55 55L55 57L52 57L52 58L54 58L54 59L55 59L55 60L56 60L56 61L57 61L57 60L58 60L58 58L59 58L59 56L60 56L60 55L61 55L61 52L62 52L62 51L61 51L61 52L60 52L60 50L58 50L58 52L57 52L57 51L56 51L56 49L57 49L57 46L60 46L60 47L62 47L62 46L60 46L60 45L61 45L61 44L60 44L60 45L59 45L59 44L58 44L58 43L57 43L57 42L58 42L58 41L59 41L59 40L60 40L60 39L59 39L59 38L60 38L60 37L59 37L59 36L58 36L58 37L57 37L57 36L56 36L56 35L55 35L55 36L56 36L56 38L55 38L55 37L54 37L54 36L52 36L52 38L50 38L50 37L49 37L49 36L48 36L48 34L49 34L49 35L50 35L50 34L53 34L53 35L54 35L54 34L53 34L53 33L54 33L54 31L55 31L55 30L56 30L56 28L53 28L53 27L54 27L54 26L55 26L55 27L56 27L56 26L55 26L55 23L54 23L54 22L56 22L56 23L57 23L57 21L55 21L55 20L53 20L53 22L52 22L52 25L51 25L51 20ZM65 20L65 21L66 21L66 22L67 22L67 21L66 21L66 20ZM23 22L23 23L24 23L24 22ZM34 22L34 24L35 24L35 25L36 25L36 23L35 23L35 22ZM49 22L49 23L48 23L48 24L49 24L49 25L50 25L50 26L49 26L49 27L47 27L47 28L49 28L49 29L48 29L48 30L49 30L49 29L50 29L50 30L51 30L51 31L50 31L50 32L51 32L51 31L52 31L52 30L53 30L53 31L54 31L54 30L53 30L53 28L49 28L49 27L51 27L51 25L50 25L50 22ZM53 23L53 25L52 25L52 27L53 27L53 26L54 26L54 23ZM11 24L11 25L12 25L12 26L13 26L13 24ZM44 24L44 25L45 25L45 24ZM64 24L64 25L63 25L63 26L62 26L62 27L59 27L59 28L58 28L58 29L57 29L57 30L58 30L58 29L59 29L59 30L62 30L62 27L63 27L63 28L67 28L67 27L64 27L64 26L65 26L65 24ZM6 25L6 26L7 26L7 25ZM28 25L28 27L29 27L29 28L30 28L30 27L29 27L29 25ZM19 26L19 27L20 27L20 26ZM35 26L35 27L36 27L36 26ZM23 27L23 28L24 28L24 29L25 29L25 28L24 28L24 27ZM3 28L3 29L4 29L4 32L3 32L3 36L4 36L4 32L10 32L10 33L9 33L9 34L10 34L10 33L11 33L11 34L12 34L12 33L13 33L13 32L12 32L12 31L9 31L9 30L8 30L8 31L6 31L6 30L7 30L7 29L6 29L6 30L5 30L5 29L4 29L4 28ZM59 28L59 29L60 29L60 28ZM46 29L46 30L47 30L47 29ZM16 31L16 32L17 32L17 33L18 33L18 32L17 32L17 31ZM38 31L38 32L39 32L39 31ZM52 32L52 33L53 33L53 32ZM5 33L5 36L8 36L8 33ZM19 33L19 34L20 34L20 33ZM33 33L33 36L36 36L36 33ZM61 33L61 36L64 36L64 33ZM1 34L1 36L2 36L2 34ZM6 34L6 35L7 35L7 34ZM34 34L34 35L35 35L35 34ZM45 34L45 35L46 35L46 38L49 38L49 37L47 37L47 34ZM62 34L62 35L63 35L63 34ZM9 35L9 38L8 38L8 37L6 37L6 38L7 38L7 39L5 39L5 40L4 40L4 41L5 41L5 40L7 40L7 39L9 39L9 38L12 38L12 35ZM40 35L40 36L41 36L41 35ZM22 36L22 37L23 37L23 38L26 38L26 40L24 40L24 41L26 41L26 40L27 40L27 38L28 38L28 37L27 37L27 38L26 38L26 37L23 37L23 36ZM30 36L30 38L29 38L29 39L30 39L30 38L32 38L32 39L34 39L34 38L32 38L32 37L31 37L31 36ZM58 37L58 38L59 38L59 37ZM56 38L56 39L57 39L57 40L56 40L56 42L55 42L55 44L56 44L56 42L57 42L57 40L58 40L58 39L57 39L57 38ZM10 39L10 40L11 40L11 39ZM20 39L20 40L19 40L19 41L20 41L20 42L21 42L21 39ZM37 39L37 41L38 41L38 42L39 42L39 41L41 41L41 40L44 40L44 43L43 43L43 44L44 44L44 45L46 45L46 44L47 44L47 40L48 40L48 39L45 39L45 40L44 40L44 39L39 39L39 41L38 41L38 39ZM52 39L52 41L53 41L53 40L54 40L54 41L55 41L55 40L54 40L54 39ZM67 39L67 41L64 41L64 43L63 43L63 44L64 44L64 43L66 43L66 42L67 42L67 43L68 43L68 42L67 42L67 41L68 41L68 39ZM28 40L28 41L30 41L30 40ZM1 41L1 42L2 42L2 41ZM32 41L32 42L33 42L33 41ZM45 41L45 42L46 42L46 41ZM14 42L14 43L15 43L15 42ZM34 42L34 43L35 43L35 44L37 44L37 43L35 43L35 42ZM49 42L49 43L48 43L48 44L50 44L50 42ZM53 42L53 43L54 43L54 42ZM8 43L8 44L11 44L11 43ZM19 43L19 45L20 45L20 43ZM44 43L44 44L46 44L46 43ZM5 45L5 46L3 46L3 47L5 47L5 46L7 46L7 45ZM11 45L11 46L9 46L9 49L10 49L10 50L11 50L11 52L12 52L12 51L13 51L13 52L15 52L15 53L16 53L16 54L17 54L17 56L16 56L16 58L17 58L17 56L20 56L20 55L19 55L19 53L18 53L18 52L17 52L17 51L16 51L16 52L15 52L15 49L14 49L14 48L16 48L16 47L17 47L17 46L18 46L18 45L17 45L17 46L13 46L13 47L12 47L12 45ZM49 45L49 46L46 46L46 47L44 47L44 46L42 46L42 48L43 48L43 50L44 50L44 48L47 48L47 49L46 49L46 50L45 50L45 51L43 51L43 52L44 52L44 53L45 53L45 51L46 51L46 52L47 52L47 50L48 50L48 48L49 48L49 46L50 46L50 45ZM13 47L13 48L14 48L14 47ZM27 47L27 48L28 48L28 49L29 49L29 48L28 48L28 47ZM43 47L43 48L44 48L44 47ZM58 47L58 48L59 48L59 49L60 49L60 48L59 48L59 47ZM10 48L10 49L11 49L11 50L13 50L13 51L14 51L14 49L11 49L11 48ZM62 48L62 49L61 49L61 50L62 50L62 49L63 49L63 50L64 50L64 49L63 49L63 48ZM40 49L40 50L41 50L41 49ZM5 50L5 51L7 51L7 50ZM26 51L26 52L27 52L27 51ZM56 52L56 53L57 53L57 52ZM59 52L59 53L58 53L58 54L57 54L57 55L56 55L56 57L55 57L55 58L57 58L57 56L58 56L58 54L59 54L59 53L60 53L60 52ZM4 53L4 56L5 56L5 57L4 57L4 58L7 58L7 57L8 57L8 58L10 58L10 56L9 56L9 57L8 57L8 55L5 55L5 53ZM12 53L12 54L13 54L13 55L15 55L15 54L14 54L14 53ZM17 53L17 54L18 54L18 53ZM21 53L21 54L22 54L22 53ZM27 53L27 54L28 54L28 53ZM46 53L46 54L47 54L47 53ZM50 53L50 54L51 54L51 53ZM68 53L68 56L69 56L69 53ZM10 54L10 55L11 55L11 54ZM24 54L24 55L23 55L23 56L25 56L25 54ZM0 55L0 57L1 57L1 55ZM37 55L37 56L36 56L36 57L37 57L37 56L38 56L38 57L39 57L39 58L41 58L41 56L40 56L40 55L39 55L39 56L38 56L38 55ZM45 55L45 56L44 56L44 57L46 57L46 56L47 56L47 55ZM6 56L6 57L7 57L7 56ZM31 56L31 57L32 57L32 56ZM23 57L23 58L24 58L24 57ZM66 57L66 58L67 58L67 57ZM0 58L0 61L1 61L1 58ZM33 58L33 59L34 59L34 58ZM8 59L8 61L9 61L9 59ZM12 59L12 61L13 61L13 59ZM56 59L56 60L57 60L57 59ZM3 60L3 61L5 61L5 60ZM15 60L15 61L16 61L16 60ZM26 60L26 61L27 61L27 60ZM68 60L68 61L69 61L69 60ZM33 61L33 64L36 64L36 61ZM44 61L44 62L45 62L45 61ZM61 61L61 64L64 64L64 61ZM34 62L34 63L35 63L35 62ZM54 62L54 63L55 63L55 62ZM62 62L62 63L63 63L63 62ZM65 62L65 63L66 63L66 62ZM23 63L23 64L27 64L27 63ZM17 64L17 65L16 65L16 66L17 66L17 65L18 65L18 64ZM37 64L37 65L34 65L34 66L35 66L35 67L34 67L34 68L35 68L35 67L37 67L37 65L38 65L38 64ZM41 64L41 67L40 67L40 68L41 68L41 69L42 69L42 68L43 68L43 69L44 69L44 68L45 68L45 67L44 67L44 64ZM49 64L49 65L50 65L50 64ZM64 65L64 66L62 66L62 67L61 67L61 68L64 68L64 66L65 66L65 67L66 67L66 66L65 66L65 65ZM42 66L42 67L41 67L41 68L42 68L42 67L43 67L43 68L44 68L44 67L43 67L43 66ZM9 67L9 68L10 68L10 67ZM16 67L16 68L18 68L18 67ZM0 0L0 7L7 7L7 0ZM1 1L1 6L6 6L6 1ZM2 2L2 5L5 5L5 2ZM62 0L62 7L69 7L69 0ZM63 1L63 6L68 6L68 1ZM64 2L64 5L67 5L67 2ZM0 62L0 69L7 69L7 62ZM1 63L1 68L6 68L6 63ZM2 64L2 67L5 67L5 64Z" fill="#000000"/></g></g></svg>
