<?xml version="1.0" encoding="UTF-8"?>
<svg xmlns="http://www.w3.org/2000/svg" version="1.1" width="300" height="300" viewBox="0 0 300 300"><rect x="0" y="0" width="300" height="300" fill="#ffffff"/><g transform="scale(4.348)"><g transform="translate(0,0)"><path fill-rule="evenodd" d="M8 0L8 4L9 4L9 3L10 3L10 2L9 2L9 0ZM11 0L11 1L12 1L12 2L11 2L11 4L10 4L10 5L8 5L8 7L9 7L9 8L12 8L12 10L11 10L11 12L10 12L10 10L8 10L8 9L7 9L7 8L4 8L4 9L7 9L7 10L6 10L6 11L7 11L7 12L4 12L4 13L5 13L5 14L4 14L4 15L2 15L2 16L3 16L3 18L1 18L1 17L0 17L0 18L1 18L1 19L2 19L2 20L3 20L3 22L1 22L1 21L0 21L0 23L1 23L1 26L0 26L0 28L1 28L1 27L2 27L2 28L4 28L4 29L3 29L3 30L4 30L4 29L5 29L5 30L6 30L6 31L7 31L7 32L3 32L3 31L2 31L2 30L0 30L0 31L2 31L2 32L0 32L0 34L1 34L1 33L2 33L2 36L1 36L1 37L0 37L0 38L1 38L1 37L2 37L2 40L0 40L0 44L1 44L1 45L0 45L0 46L1 46L1 47L0 47L0 51L2 51L2 52L3 52L3 51L4 51L4 54L2 54L2 53L1 53L1 52L0 52L0 53L1 53L1 54L0 54L0 55L3 55L3 56L4 56L4 54L5 54L5 55L7 55L7 54L9 54L9 52L10 52L10 53L11 53L11 54L13 54L13 56L14 56L14 57L12 57L12 55L11 55L11 56L10 56L10 55L9 55L9 56L8 56L8 57L7 57L7 56L6 56L6 57L7 57L7 58L5 58L5 57L4 57L4 59L7 59L7 60L6 60L6 61L8 61L8 62L9 62L9 63L8 63L8 65L9 65L9 67L8 67L8 69L11 69L11 68L12 68L12 69L14 69L14 68L15 68L15 66L16 66L16 67L17 67L17 69L20 69L20 68L19 68L19 67L20 67L20 66L21 66L21 69L22 69L22 67L23 67L23 69L24 69L24 67L25 67L25 69L29 69L29 67L28 67L28 64L27 64L27 62L28 62L28 63L30 63L30 62L31 62L31 61L32 61L32 63L31 63L31 64L29 64L29 66L30 66L30 67L31 67L31 68L30 68L30 69L31 69L31 68L32 68L32 69L33 69L33 68L35 68L35 69L37 69L37 68L38 68L38 69L40 69L40 68L42 68L42 69L46 69L46 67L45 67L45 66L46 66L46 63L45 63L45 62L46 62L46 60L45 60L45 59L47 59L47 61L49 61L49 60L50 60L50 62L47 62L47 65L50 65L50 66L48 66L48 69L50 69L50 66L51 66L51 67L52 67L52 68L51 68L51 69L52 69L52 68L54 68L54 69L55 69L55 65L56 65L56 69L57 69L57 66L58 66L58 65L57 65L57 62L58 62L58 61L59 61L59 60L58 60L58 59L59 59L59 58L61 58L61 59L60 59L60 62L59 62L59 63L58 63L58 64L60 64L60 65L59 65L59 66L61 66L61 68L59 68L59 67L58 67L58 68L59 68L59 69L67 69L67 68L64 68L64 67L65 67L65 66L64 66L64 67L63 67L63 65L65 65L65 63L66 63L66 62L67 62L67 63L68 63L68 65L67 65L67 66L66 66L66 67L67 67L67 66L69 66L69 63L68 63L68 62L69 62L69 59L68 59L68 58L69 58L69 57L68 57L68 58L67 58L67 60L68 60L68 62L67 62L67 61L65 61L65 60L64 60L64 57L63 57L63 60L61 60L61 59L62 59L62 54L64 54L64 55L63 55L63 56L64 56L64 55L66 55L66 54L67 54L67 55L68 55L68 53L69 53L69 52L68 52L68 51L69 51L69 47L67 47L67 49L68 49L68 51L67 51L67 53L65 53L65 54L64 54L64 53L63 53L63 52L65 52L65 51L64 51L64 47L66 47L66 46L67 46L67 44L66 44L66 46L64 46L64 45L65 45L65 43L64 43L64 41L65 41L65 40L64 40L64 39L65 39L65 38L64 38L64 39L61 39L61 38L60 38L60 37L66 37L66 39L67 39L67 40L66 40L66 43L68 43L68 45L69 45L69 43L68 43L68 42L69 42L69 41L67 41L67 40L68 40L68 38L69 38L69 36L68 36L68 38L67 38L67 37L66 37L66 35L68 35L68 30L69 30L69 27L68 27L68 26L69 26L69 25L68 25L68 21L69 21L69 20L68 20L68 18L67 18L67 16L66 16L66 17L64 17L64 16L65 16L65 14L64 14L64 15L62 15L62 19L60 19L60 18L61 18L61 16L58 16L58 15L59 15L59 14L61 14L61 13L60 13L60 12L63 12L63 13L62 13L62 14L63 14L63 13L64 13L64 12L65 12L65 11L68 11L68 12L66 12L66 13L68 13L68 14L67 14L67 15L68 15L68 14L69 14L69 11L68 11L68 9L69 9L69 8L65 8L65 9L64 9L64 8L63 8L63 9L61 9L61 8L60 8L60 9L59 9L59 10L58 10L58 8L59 8L59 4L58 4L58 5L56 5L56 7L55 7L55 3L59 3L59 2L58 2L58 1L61 1L61 0L58 0L58 1L56 1L56 0L53 0L53 1L52 1L52 0L50 0L50 1L49 1L49 2L48 2L48 3L47 3L47 4L48 4L48 5L49 5L49 6L48 6L48 7L49 7L49 8L47 8L47 5L46 5L46 3L45 3L45 1L46 1L46 2L47 2L47 1L46 1L46 0L45 0L45 1L44 1L44 0L40 0L40 1L39 1L39 0L38 0L38 2L37 2L37 1L35 1L35 2L34 2L34 4L33 4L33 0L32 0L32 1L31 1L31 0L29 0L29 1L30 1L30 3L31 3L31 2L32 2L32 5L31 5L31 4L30 4L30 5L29 5L29 6L28 6L28 4L29 4L29 2L28 2L28 3L27 3L27 2L25 2L25 1L26 1L26 0L23 0L23 1L22 1L22 0L16 0L16 2L17 2L17 1L18 1L18 2L19 2L19 1L20 1L20 2L21 2L21 3L20 3L20 5L19 5L19 4L18 4L18 5L17 5L17 6L16 6L16 5L15 5L15 4L17 4L17 3L15 3L15 2L13 2L13 0ZM21 1L21 2L22 2L22 3L21 3L21 5L20 5L20 6L19 6L19 5L18 5L18 6L17 6L17 7L16 7L16 6L15 6L15 5L14 5L14 3L13 3L13 2L12 2L12 3L13 3L13 4L11 4L11 5L10 5L10 6L9 6L9 7L10 7L10 6L11 6L11 7L12 7L12 8L13 8L13 7L14 7L14 6L15 6L15 7L16 7L16 9L18 9L18 10L20 10L20 9L18 9L18 8L21 8L21 9L22 9L22 10L23 10L23 9L24 9L24 10L25 10L25 11L26 11L26 12L27 12L27 13L25 13L25 14L26 14L26 16L27 16L27 17L25 17L25 15L24 15L24 14L23 14L23 12L24 12L24 11L23 11L23 12L22 12L22 13L21 13L21 11L20 11L20 12L19 12L19 11L18 11L18 12L19 12L19 13L21 13L21 14L20 14L20 15L19 15L19 16L18 16L18 17L17 17L17 15L18 15L18 13L17 13L17 14L15 14L15 13L14 13L14 12L15 12L15 10L14 10L14 11L13 11L13 13L12 13L12 14L15 14L15 15L14 15L14 16L12 16L12 15L11 15L11 17L12 17L12 20L11 20L11 18L10 18L10 17L9 17L9 16L10 16L10 15L9 15L9 14L7 14L7 13L8 13L8 12L9 12L9 13L10 13L10 14L11 14L11 13L10 13L10 12L9 12L9 11L8 11L8 10L7 10L7 11L8 11L8 12L7 12L7 13L6 13L6 14L7 14L7 15L4 15L4 16L7 16L7 17L5 17L5 19L4 19L4 18L3 18L3 20L4 20L4 21L5 21L5 22L3 22L3 23L2 23L2 27L4 27L4 26L3 26L3 23L5 23L5 25L6 25L6 26L5 26L5 29L6 29L6 30L8 30L8 29L9 29L9 30L11 30L11 28L10 28L10 27L12 27L12 25L13 25L13 23L12 23L12 22L14 22L14 23L17 23L17 24L14 24L14 28L15 28L15 29L14 29L14 30L15 30L15 29L16 29L16 32L15 32L15 31L13 31L13 29L12 29L12 31L8 31L8 32L9 32L9 34L11 34L11 36L13 36L13 37L10 37L10 36L9 36L9 37L8 37L8 40L7 40L7 39L5 39L5 40L4 40L4 38L7 38L7 37L4 37L4 38L3 38L3 40L4 40L4 41L6 41L6 42L7 42L7 41L8 41L8 42L9 42L9 43L5 43L5 44L8 44L8 45L6 45L6 46L7 46L7 47L6 47L6 48L4 48L4 46L5 46L5 45L4 45L4 44L3 44L3 43L2 43L2 41L1 41L1 43L2 43L2 44L3 44L3 45L2 45L2 46L3 46L3 47L1 47L1 48L3 48L3 49L1 49L1 50L4 50L4 51L6 51L6 52L5 52L5 53L6 53L6 54L7 54L7 53L8 53L8 51L6 51L6 50L8 50L8 48L7 48L7 47L9 47L9 49L10 49L10 52L11 52L11 53L14 53L14 52L13 52L13 51L15 51L15 53L16 53L16 55L15 55L15 54L14 54L14 55L15 55L15 57L14 57L14 58L15 58L15 57L17 57L17 58L16 58L16 59L13 59L13 58L11 58L11 59L13 59L13 60L15 60L15 61L16 61L16 62L15 62L15 63L17 63L17 64L16 64L16 66L17 66L17 65L18 65L18 64L19 64L19 65L20 65L20 64L21 64L21 63L22 63L22 66L23 66L23 67L24 67L24 66L23 66L23 64L25 64L25 65L27 65L27 64L26 64L26 63L25 63L25 62L23 62L23 60L22 60L22 58L23 58L23 59L24 59L24 61L26 61L26 60L27 60L27 61L28 61L28 62L30 62L30 61L28 61L28 59L29 59L29 58L30 58L30 59L31 59L31 60L32 60L32 59L33 59L33 60L34 60L34 59L33 59L33 58L32 58L32 57L33 57L33 56L34 56L34 58L35 58L35 60L38 60L38 59L39 59L39 58L40 58L40 59L41 59L41 58L40 58L40 57L42 57L42 56L43 56L43 60L40 60L40 61L39 61L39 62L38 62L38 61L37 61L37 63L38 63L38 64L39 64L39 63L40 63L40 62L41 62L41 61L44 61L44 62L42 62L42 63L43 63L43 67L42 67L42 68L43 68L43 67L44 67L44 62L45 62L45 61L44 61L44 59L45 59L45 57L44 57L44 56L43 56L43 55L46 55L46 54L47 54L47 56L49 56L49 57L48 57L48 60L49 60L49 59L50 59L50 56L52 56L52 57L55 57L55 58L53 58L53 59L55 59L55 60L52 60L52 59L51 59L51 60L52 60L52 61L51 61L51 62L50 62L50 63L48 63L48 64L51 64L51 63L52 63L52 61L56 61L56 60L57 60L57 59L58 59L58 58L59 58L59 57L60 57L60 56L58 56L58 55L53 55L53 54L52 54L52 53L56 53L56 51L60 51L60 49L61 49L61 51L63 51L63 50L62 50L62 49L63 49L63 48L62 48L62 47L63 47L63 46L62 46L62 44L58 44L58 43L61 43L61 42L60 42L60 40L59 40L59 37L60 37L60 36L59 36L59 35L60 35L60 34L59 34L59 33L60 33L60 32L62 32L62 31L63 31L63 32L66 32L66 33L67 33L67 31L64 31L64 30L62 30L62 29L61 29L61 31L60 31L60 32L59 32L59 31L58 31L58 30L59 30L59 29L58 29L58 28L61 28L61 27L59 27L59 25L62 25L62 23L63 23L63 24L64 24L64 26L65 26L65 27L64 27L64 29L65 29L65 30L67 30L67 29L68 29L68 27L67 27L67 26L68 26L68 25L67 25L67 26L66 26L66 25L65 25L65 24L67 24L67 23L66 23L66 22L67 22L67 21L68 21L68 20L67 20L67 18L66 18L66 19L65 19L65 20L64 20L64 21L63 21L63 22L62 22L62 21L61 21L61 22L60 22L60 23L59 23L59 24L58 24L58 22L59 22L59 21L60 21L60 20L59 20L59 21L58 21L58 19L56 19L56 20L55 20L55 23L54 23L54 21L53 21L53 20L54 20L54 19L55 19L55 18L56 18L56 16L57 16L57 15L58 15L58 14L59 14L59 13L58 13L58 12L60 12L60 11L61 11L61 10L60 10L60 11L58 11L58 10L57 10L57 9L56 9L56 8L55 8L55 9L56 9L56 10L55 10L55 11L54 11L54 12L55 12L55 13L56 13L56 14L55 14L55 15L56 15L56 16L53 16L53 15L54 15L54 13L53 13L53 9L54 9L54 8L52 8L52 5L53 5L53 7L54 7L54 5L53 5L53 4L54 4L54 3L53 3L53 4L52 4L52 3L51 3L51 2L52 2L52 1L50 1L50 2L49 2L49 3L48 3L48 4L49 4L49 5L50 5L50 4L51 4L51 7L50 7L50 6L49 6L49 7L50 7L50 9L49 9L49 11L48 11L48 12L49 12L49 11L50 11L50 9L51 9L51 8L52 8L52 10L51 10L51 12L50 12L50 13L49 13L49 14L50 14L50 15L49 15L49 16L50 16L50 17L49 17L49 18L47 18L47 15L48 15L48 13L46 13L46 14L47 14L47 15L45 15L45 17L46 17L46 18L47 18L47 19L46 19L46 20L45 20L45 19L44 19L44 18L41 18L41 17L42 17L42 16L40 16L40 18L41 18L41 20L40 20L40 21L39 21L39 22L41 22L41 24L40 24L40 23L38 23L38 21L37 21L37 18L38 18L38 20L39 20L39 18L38 18L38 17L39 17L39 15L41 15L41 14L40 14L40 13L43 13L43 14L42 14L42 15L43 15L43 17L44 17L44 15L43 15L43 14L45 14L45 13L43 13L43 12L40 12L40 13L39 13L39 11L40 11L40 10L41 10L41 9L43 9L43 10L44 10L44 11L46 11L46 10L47 10L47 8L45 8L45 7L46 7L46 6L45 6L45 3L44 3L44 5L43 5L43 8L40 8L40 10L38 10L38 8L39 8L39 7L40 7L40 6L39 6L39 5L38 5L38 4L40 4L40 5L41 5L41 4L40 4L40 3L41 3L41 2L42 2L42 4L43 4L43 2L42 2L42 1L41 1L41 2L40 2L40 3L39 3L39 2L38 2L38 3L35 3L35 4L37 4L37 5L38 5L38 6L37 6L37 7L38 7L38 8L37 8L37 10L36 10L36 9L34 9L34 10L35 10L35 11L36 11L36 13L35 13L35 12L34 12L34 11L33 11L33 9L29 9L29 8L30 8L30 6L31 6L31 7L32 7L32 6L31 6L31 5L30 5L30 6L29 6L29 7L28 7L28 6L27 6L27 7L26 7L26 6L25 6L25 7L24 7L24 6L23 6L23 5L24 5L24 3L25 3L25 2L22 2L22 1ZM53 1L53 2L56 2L56 1ZM22 3L22 5L23 5L23 3ZM26 3L26 4L25 4L25 5L26 5L26 4L27 4L27 3ZM60 3L60 5L61 5L61 3ZM11 5L11 6L12 6L12 7L13 7L13 6L14 6L14 5ZM33 5L33 8L36 8L36 5ZM18 6L18 7L17 7L17 8L18 8L18 7L19 7L19 6ZM20 6L20 7L21 7L21 6ZM22 6L22 8L24 8L24 9L25 9L25 10L26 10L26 11L27 11L27 12L28 12L28 11L29 11L29 13L31 13L31 16L29 16L29 15L30 15L30 14L28 14L28 13L27 13L27 16L29 16L29 17L31 17L31 18L29 18L29 19L26 19L26 18L25 18L25 17L24 17L24 16L23 16L23 17L24 17L24 18L23 18L23 19L22 19L22 20L21 20L21 18L20 18L20 19L18 19L18 18L19 18L19 17L22 17L22 16L19 16L19 17L18 17L18 18L15 18L15 19L17 19L17 20L15 20L15 21L14 21L14 22L17 22L17 23L18 23L18 22L17 22L17 21L19 21L19 20L20 20L20 22L19 22L19 24L17 24L17 25L15 25L15 27L16 27L16 26L18 26L18 27L19 27L19 28L16 28L16 29L20 29L20 31L19 31L19 32L18 32L18 33L17 33L17 34L16 34L16 33L15 33L15 34L14 34L14 35L15 35L15 37L13 37L13 39L12 39L12 38L10 38L10 37L9 37L9 40L8 40L8 41L9 41L9 40L10 40L10 41L11 41L11 42L10 42L10 43L9 43L9 44L10 44L10 45L11 45L11 44L12 44L12 46L13 46L13 47L12 47L12 48L13 48L13 49L14 49L14 50L15 50L15 49L18 49L18 51L16 51L16 52L17 52L17 54L18 54L18 55L17 55L17 57L18 57L18 58L17 58L17 59L19 59L19 56L18 56L18 55L20 55L20 59L21 59L21 57L24 57L24 58L25 58L25 60L26 60L26 59L28 59L28 57L32 57L32 56L33 56L33 55L31 55L31 54L32 54L32 52L33 52L33 54L34 54L34 52L35 52L35 53L36 53L36 54L35 54L35 55L36 55L36 54L37 54L37 53L38 53L38 55L37 55L37 56L38 56L38 58L39 58L39 57L40 57L40 54L44 54L44 53L45 53L45 54L46 54L46 52L47 52L47 54L49 54L49 53L50 53L50 54L51 54L51 55L52 55L52 56L53 56L53 55L52 55L52 54L51 54L51 53L52 53L52 52L55 52L55 51L51 51L51 53L50 53L50 50L52 50L52 49L51 49L51 47L53 47L53 46L54 46L54 48L55 48L55 47L56 47L56 49L53 49L53 50L58 50L58 49L59 49L59 47L62 47L62 46L61 46L61 45L60 45L60 46L59 46L59 47L58 47L58 45L57 45L57 42L58 42L58 41L57 41L57 40L58 40L58 35L59 35L59 34L58 34L58 32L57 32L57 30L58 30L58 29L57 29L57 28L58 28L58 25L57 25L57 24L56 24L56 23L55 23L55 24L53 24L53 23L52 23L52 20L51 20L51 21L50 21L50 22L51 22L51 25L50 25L50 26L49 26L49 27L48 27L48 25L49 25L49 23L48 23L48 25L47 25L47 22L48 22L48 21L49 21L49 19L50 19L50 18L52 18L52 19L54 19L54 18L55 18L55 17L53 17L53 18L52 18L52 16L51 16L51 17L50 17L50 18L49 18L49 19L48 19L48 21L47 21L47 20L46 20L46 21L45 21L45 20L44 20L44 21L43 21L43 20L41 20L41 21L42 21L42 24L44 24L44 25L41 25L41 26L43 26L43 27L40 27L40 24L38 24L38 23L37 23L37 24L38 24L38 25L36 25L36 26L37 26L37 27L38 27L38 28L37 28L37 29L34 29L34 28L35 28L35 27L34 27L34 26L35 26L35 24L36 24L36 23L34 23L34 22L37 22L37 21L36 21L36 19L33 19L33 16L32 16L32 13L34 13L34 12L32 12L32 11L30 11L30 10L28 10L28 7L27 7L27 8L26 8L26 9L25 9L25 8L24 8L24 7L23 7L23 6ZM34 6L34 7L35 7L35 6ZM38 6L38 7L39 7L39 6ZM41 6L41 7L42 7L42 6ZM44 6L44 7L45 7L45 6ZM57 6L57 7L58 7L58 6ZM60 6L60 7L61 7L61 6ZM0 8L0 9L1 9L1 10L0 10L0 12L1 12L1 13L2 13L2 14L3 14L3 13L2 13L2 12L3 12L3 11L4 11L4 10L3 10L3 9L2 9L2 8ZM14 8L14 9L15 9L15 8ZM44 8L44 10L46 10L46 9L45 9L45 8ZM26 9L26 10L27 10L27 9ZM65 9L65 10L67 10L67 9ZM2 10L2 11L1 11L1 12L2 12L2 11L3 11L3 10ZM56 10L56 13L57 13L57 14L56 14L56 15L57 15L57 14L58 14L58 13L57 13L57 12L58 12L58 11L57 11L57 10ZM63 10L63 12L64 12L64 10ZM31 12L31 13L32 13L32 12ZM51 12L51 13L50 13L50 14L51 14L51 13L52 13L52 15L53 15L53 13L52 13L52 12ZM38 13L38 14L39 14L39 13ZM0 14L0 16L1 16L1 14ZM21 14L21 15L23 15L23 14ZM7 15L7 16L9 16L9 15ZM15 15L15 16L14 16L14 17L13 17L13 20L12 20L12 21L11 21L11 20L10 20L10 19L9 19L9 20L10 20L10 21L11 21L11 22L10 22L10 23L9 23L9 21L8 21L8 22L6 22L6 23L9 23L9 26L8 26L8 24L6 24L6 25L7 25L7 26L6 26L6 27L10 27L10 26L11 26L11 25L12 25L12 24L10 24L10 23L11 23L11 22L12 22L12 21L13 21L13 20L14 20L14 17L15 17L15 16L16 16L16 15ZM34 15L34 16L36 16L36 15ZM68 16L68 17L69 17L69 16ZM8 17L8 18L9 18L9 17ZM27 17L27 18L28 18L28 17ZM34 17L34 18L37 18L37 17ZM58 17L58 18L59 18L59 17ZM63 17L63 19L62 19L62 20L63 20L63 19L64 19L64 17ZM6 18L6 19L7 19L7 20L5 20L5 21L7 21L7 20L8 20L8 19L7 19L7 18ZM31 18L31 19L29 19L29 20L31 20L31 21L30 21L30 22L31 22L31 23L28 23L28 22L29 22L29 21L28 21L28 22L27 22L27 21L26 21L26 19L23 19L23 20L22 20L22 22L20 22L20 23L22 23L22 24L23 24L23 23L24 23L24 22L23 22L23 20L25 20L25 21L26 21L26 24L25 24L25 26L24 26L24 25L21 25L21 24L19 24L19 27L20 27L20 29L21 29L21 28L22 28L22 29L23 29L23 28L22 28L22 27L24 27L24 28L25 28L25 29L26 29L26 27L28 27L28 30L30 30L30 31L31 31L31 30L30 30L30 29L29 29L29 27L30 27L30 28L31 28L31 29L33 29L33 30L32 30L32 32L33 32L33 30L34 30L34 31L35 31L35 32L38 32L38 33L37 33L37 35L39 35L39 36L40 36L40 38L41 38L41 39L40 39L40 41L41 41L41 42L38 42L38 40L39 40L39 38L38 38L38 36L37 36L37 37L35 37L35 38L38 38L38 40L37 40L37 39L35 39L35 40L34 40L34 39L32 39L32 38L33 38L33 37L31 37L31 39L28 39L28 40L27 40L27 41L24 41L24 40L25 40L25 39L27 39L27 37L25 37L25 39L24 39L24 40L22 40L22 39L21 39L21 38L23 38L23 37L24 37L24 36L23 36L23 33L24 33L24 32L22 32L22 37L21 37L21 34L20 34L20 35L19 35L19 36L20 36L20 37L19 37L19 38L20 38L20 39L21 39L21 41L22 41L22 42L20 42L20 41L19 41L19 46L20 46L20 45L21 45L21 44L20 44L20 43L22 43L22 46L23 46L23 44L24 44L24 43L22 43L22 42L23 42L23 41L24 41L24 42L25 42L25 43L26 43L26 44L25 44L25 45L26 45L26 47L25 47L25 48L23 48L23 47L22 47L22 49L19 49L19 48L18 48L18 49L19 49L19 51L18 51L18 52L19 52L19 51L20 51L20 50L21 50L21 51L22 51L22 49L25 49L25 48L27 48L27 50L26 50L26 51L25 51L25 54L24 54L24 56L25 56L25 58L27 58L27 57L28 57L28 56L27 56L27 55L28 55L28 54L31 54L31 53L28 53L28 52L27 52L27 51L28 51L28 50L29 50L29 49L30 49L30 50L31 50L31 51L29 51L29 52L31 52L31 51L33 51L33 49L35 49L35 48L38 48L38 47L34 47L34 48L33 48L33 49L30 49L30 47L27 47L27 45L28 45L28 46L29 46L29 45L28 45L28 44L27 44L27 43L28 43L28 42L29 42L29 43L32 43L32 44L33 44L33 43L35 43L35 44L34 44L34 46L36 46L36 45L37 45L37 46L38 46L38 45L37 45L37 43L40 43L40 45L39 45L39 46L40 46L40 45L43 45L43 44L41 44L41 43L42 43L42 41L41 41L41 40L43 40L43 43L44 43L44 40L45 40L45 39L46 39L46 42L45 42L45 43L47 43L47 42L48 42L48 41L47 41L47 39L49 39L49 38L50 38L50 41L49 41L49 42L50 42L50 43L52 43L52 45L56 45L56 46L57 46L57 45L56 45L56 43L55 43L55 42L57 42L57 41L56 41L56 40L57 40L57 39L56 39L56 40L55 40L55 38L57 38L57 37L56 37L56 36L57 36L57 35L58 35L58 34L57 34L57 35L56 35L56 34L55 34L55 35L54 35L54 36L52 36L52 37L51 37L51 38L50 38L50 36L49 36L49 33L50 33L50 32L51 32L51 31L52 31L52 30L53 30L53 31L55 31L55 32L52 32L52 34L53 34L53 33L56 33L56 30L57 30L57 29L56 29L56 28L57 28L57 25L56 25L56 24L55 24L55 25L56 25L56 28L55 28L55 26L53 26L53 28L52 28L52 30L50 30L50 29L51 29L51 27L52 27L52 25L53 25L53 24L52 24L52 25L51 25L51 27L50 27L50 28L49 28L49 31L50 31L50 32L49 32L49 33L47 33L47 31L48 31L48 29L47 29L47 27L45 27L45 26L44 26L44 27L43 27L43 28L40 28L40 29L39 29L39 31L38 31L38 29L37 29L37 30L34 30L34 29L33 29L33 28L34 28L34 27L32 27L32 26L34 26L34 23L32 23L32 22L34 22L34 21L33 21L33 19L32 19L32 18ZM31 19L31 20L32 20L32 19ZM56 20L56 22L58 22L58 21L57 21L57 20ZM65 20L65 22L66 22L66 21L67 21L67 20ZM31 21L31 22L32 22L32 21ZM46 21L46 22L47 22L47 21ZM43 22L43 23L44 23L44 24L45 24L45 23L44 23L44 22ZM63 22L63 23L64 23L64 24L65 24L65 23L64 23L64 22ZM27 23L27 24L26 24L26 26L25 26L25 27L26 27L26 26L28 26L28 25L30 25L30 27L31 27L31 28L32 28L32 27L31 27L31 26L32 26L32 23L31 23L31 24L28 24L28 23ZM20 25L20 27L21 27L21 25ZM46 25L46 26L47 26L47 25ZM44 27L44 29L41 29L41 31L43 31L43 30L45 30L45 27ZM62 27L62 28L63 28L63 27ZM65 27L65 29L66 29L66 27ZM6 28L6 29L8 29L8 28ZM53 29L53 30L56 30L56 29ZM17 30L17 31L18 31L18 30ZM22 30L22 31L27 31L27 32L28 32L28 31L27 31L27 30ZM12 31L12 32L10 32L10 33L11 33L11 34L12 34L12 35L13 35L13 34L12 34L12 32L13 32L13 31ZM20 31L20 32L19 32L19 33L20 33L20 32L21 32L21 31ZM44 31L44 33L40 33L40 35L41 35L41 38L43 38L43 40L44 40L44 37L46 37L46 35L48 35L48 34L46 34L46 33L45 33L45 32L46 32L46 31ZM2 32L2 33L3 33L3 32ZM25 32L25 33L26 33L26 32ZM5 33L5 36L8 36L8 33ZM27 33L27 36L28 36L28 38L30 38L30 37L29 37L29 36L30 36L30 35L32 35L32 33ZM33 33L33 36L36 36L36 33ZM38 33L38 34L39 34L39 33ZM44 33L44 34L43 34L43 35L42 35L42 36L43 36L43 37L44 37L44 34L45 34L45 33ZM61 33L61 36L64 36L64 33ZM3 34L3 35L4 35L4 34ZM6 34L6 35L7 35L7 34ZM15 34L15 35L16 35L16 38L18 38L18 37L17 37L17 35L18 35L18 34L17 34L17 35L16 35L16 34ZM25 34L25 35L26 35L26 34ZM28 34L28 36L29 36L29 35L30 35L30 34ZM34 34L34 35L35 35L35 34ZM62 34L62 35L63 35L63 34ZM65 34L65 35L66 35L66 34ZM55 35L55 36L56 36L56 35ZM47 36L47 37L48 37L48 38L49 38L49 36ZM20 37L20 38L21 38L21 37ZM53 37L53 38L52 38L52 39L53 39L53 38L55 38L55 37ZM10 39L10 40L12 40L12 39ZM13 39L13 40L14 40L14 41L12 41L12 42L11 42L11 43L12 43L12 44L13 44L13 42L14 42L14 41L15 41L15 43L16 43L16 42L18 42L18 41L17 41L17 39L16 39L16 41L15 41L15 40L14 40L14 39ZM6 40L6 41L7 41L7 40ZM28 40L28 41L27 41L27 42L26 42L26 43L27 43L27 42L28 42L28 41L31 41L31 42L32 42L32 43L33 43L33 42L32 42L32 41L31 41L31 40ZM33 40L33 41L34 41L34 40ZM36 40L36 41L35 41L35 43L36 43L36 42L37 42L37 40ZM54 40L54 41L52 41L52 43L54 43L54 42L55 42L55 40ZM61 40L61 41L62 41L62 43L63 43L63 45L64 45L64 43L63 43L63 41L64 41L64 40ZM50 41L50 42L51 42L51 41ZM14 44L14 45L16 45L16 46L14 46L14 47L13 47L13 48L14 48L14 49L15 49L15 48L17 48L17 47L18 47L18 46L17 46L17 45L16 45L16 44ZM26 44L26 45L27 45L27 44ZM45 44L45 45L44 45L44 46L41 46L41 48L40 48L40 47L39 47L39 48L40 48L40 49L42 49L42 47L44 47L44 48L43 48L43 49L44 49L44 50L45 50L45 49L46 49L46 51L48 51L48 50L50 50L50 45L51 45L51 44L50 44L50 45L49 45L49 46L48 46L48 45L47 45L47 44ZM31 45L31 47L32 47L32 46L33 46L33 45ZM45 45L45 47L47 47L47 46L46 46L46 45ZM16 46L16 47L17 47L17 46ZM48 47L48 49L49 49L49 47ZM6 48L6 49L7 49L7 48ZM10 48L10 49L11 49L11 48ZM28 48L28 49L29 49L29 48ZM44 48L44 49L45 49L45 48ZM46 48L46 49L47 49L47 48ZM61 48L61 49L62 49L62 48ZM37 49L37 50L35 50L35 52L38 52L38 53L44 53L44 52L45 52L45 51L43 51L43 50L42 50L42 51L43 51L43 52L41 52L41 50L40 50L40 51L39 51L39 52L38 52L38 49ZM11 51L11 52L12 52L12 51ZM6 52L6 53L7 53L7 52ZM22 52L22 53L21 53L21 54L20 54L20 53L18 53L18 54L20 54L20 55L22 55L22 56L23 56L23 52ZM26 52L26 55L25 55L25 56L26 56L26 57L27 57L27 56L26 56L26 55L27 55L27 54L28 54L28 53L27 53L27 52ZM58 52L58 54L59 54L59 53L60 53L60 55L61 55L61 54L62 54L62 52ZM29 55L29 56L31 56L31 55ZM41 55L41 56L42 56L42 55ZM49 55L49 56L50 56L50 55ZM1 56L1 58L0 58L0 61L1 61L1 58L2 58L2 59L3 59L3 58L2 58L2 56ZM56 56L56 57L57 57L57 58L58 58L58 56ZM66 56L66 57L65 57L65 58L66 58L66 57L67 57L67 56ZM35 57L35 58L36 58L36 57ZM46 57L46 58L47 58L47 57ZM7 58L7 59L8 59L8 61L9 61L9 62L10 62L10 58L9 58L9 59L8 59L8 58ZM55 58L55 59L56 59L56 58ZM3 60L3 61L5 61L5 60ZM11 60L11 62L12 62L12 60ZM18 60L18 61L17 61L17 63L18 63L18 61L20 61L20 62L19 62L19 64L20 64L20 63L21 63L21 62L22 62L22 60L21 60L21 61L20 61L20 60ZM13 61L13 64L12 64L12 63L11 63L11 64L10 64L10 63L9 63L9 65L11 65L11 67L10 67L10 68L11 68L11 67L12 67L12 68L14 68L14 65L15 65L15 64L14 64L14 61ZM33 61L33 64L36 64L36 61ZM61 61L61 64L64 64L64 61ZM34 62L34 63L35 63L35 62ZM53 62L53 63L56 63L56 62ZM62 62L62 63L63 63L63 62ZM11 64L11 65L12 65L12 67L13 67L13 65L12 65L12 64ZM40 64L40 65L39 65L39 67L41 67L41 64ZM52 64L52 65L51 65L51 66L52 66L52 65L53 65L53 67L54 67L54 65L55 65L55 64ZM31 65L31 67L32 67L32 68L33 68L33 67L36 67L36 68L37 68L37 67L38 67L38 65L37 65L37 66L35 66L35 65L34 65L34 66L33 66L33 67L32 67L32 65ZM25 66L25 67L27 67L27 68L28 68L28 67L27 67L27 66ZM62 67L62 68L63 68L63 67ZM68 68L68 69L69 69L69 68ZM0 0L0 7L7 7L7 0ZM1 1L1 6L6 6L6 1ZM2 2L2 5L5 5L5 2ZM62 0L62 7L69 7L69 0ZM63 1L63 6L68 6L68 1ZM64 2L64 5L67 5L67 2ZM0 62L0 69L7 69L7 62ZM1 63L1 68L6 68L6 63ZM2 64L2 67L5 67L5 64Z" fill="#000000"/></g></g></svg>
