<?xml version="1.0" encoding="UTF-8"?>
<svg xmlns="http://www.w3.org/2000/svg" version="1.1" width="300" height="300" viewBox="0 0 300 300"><rect x="0" y="0" width="300" height="300" fill="#ffffff"/><g transform="scale(4.348)"><g transform="translate(0,0)"><path fill-rule="evenodd" d="M9 0L9 1L8 1L8 2L9 2L9 1L10 1L10 2L11 2L11 1L13 1L13 0ZM17 0L17 1L16 1L16 2L12 2L12 3L11 3L11 4L10 4L10 5L8 5L8 7L9 7L9 8L6 8L6 9L8 9L8 10L5 10L5 8L0 8L0 10L1 10L1 9L4 9L4 10L5 10L5 11L8 11L8 10L9 10L9 11L10 11L10 8L12 8L12 7L13 7L13 6L12 6L12 5L15 5L15 6L14 6L14 7L15 7L15 8L14 8L14 10L12 10L12 9L11 9L11 10L12 10L12 12L11 12L11 13L12 13L12 12L13 12L13 11L14 11L14 12L15 12L15 13L13 13L13 14L16 14L16 15L14 15L14 16L13 16L13 15L12 15L12 14L9 14L9 15L8 15L8 16L6 16L6 17L8 17L8 18L9 18L9 19L10 19L10 20L9 20L9 21L8 21L8 19L7 19L7 18L5 18L5 17L3 17L3 14L4 14L4 16L5 16L5 15L7 15L7 14L8 14L8 13L7 13L7 12L5 12L5 13L3 13L3 14L2 14L2 13L1 13L1 12L2 12L2 11L3 11L3 10L2 10L2 11L0 11L0 15L1 15L1 14L2 14L2 16L0 16L0 17L1 17L1 18L0 18L0 19L1 19L1 18L2 18L2 20L3 20L3 21L1 21L1 20L0 20L0 22L3 22L3 23L1 23L1 24L0 24L0 26L1 26L1 27L0 27L0 30L1 30L1 31L0 31L0 34L1 34L1 32L2 32L2 33L4 33L4 37L5 37L5 38L6 38L6 39L7 39L7 38L9 38L9 37L10 37L10 38L11 38L11 39L10 39L10 43L9 43L9 42L6 42L6 41L7 41L7 40L6 40L6 41L5 41L5 42L6 42L6 43L2 43L2 44L1 44L1 45L0 45L0 48L2 48L2 49L0 49L0 51L1 51L1 52L0 52L0 53L3 53L3 54L4 54L4 55L3 55L3 56L2 56L2 57L1 57L1 58L0 58L0 61L1 61L1 58L2 58L2 59L3 59L3 58L2 58L2 57L3 57L3 56L5 56L5 55L7 55L7 56L6 56L6 57L7 57L7 58L4 58L4 59L7 59L7 60L6 60L6 61L7 61L7 60L8 60L8 63L9 63L9 64L8 64L8 69L12 69L12 68L13 68L13 65L12 65L12 64L14 64L14 63L15 63L15 65L14 65L14 68L15 68L15 67L16 67L16 68L17 68L17 69L22 69L22 68L18 68L18 67L20 67L20 66L19 66L19 65L20 65L20 58L19 58L19 57L21 57L21 59L22 59L22 57L24 57L24 58L23 58L23 59L24 59L24 60L23 60L23 63L22 63L22 61L21 61L21 63L22 63L22 64L23 64L23 66L25 66L25 69L26 69L26 68L27 68L27 67L28 67L28 68L29 68L29 69L32 69L32 68L33 68L33 69L34 69L34 68L33 68L33 65L37 65L37 66L34 66L34 67L35 67L35 68L36 68L36 69L38 69L38 68L37 68L37 66L38 66L38 67L39 67L39 68L41 68L41 66L44 66L44 68L43 68L43 67L42 67L42 69L44 69L44 68L48 68L48 69L49 69L49 68L48 68L48 67L50 67L50 64L51 64L51 63L50 63L50 64L47 64L47 65L49 65L49 66L46 66L46 64L45 64L45 63L44 63L44 64L41 64L41 63L38 63L38 61L39 61L39 62L40 62L40 59L41 59L41 58L42 58L42 60L41 60L41 62L42 62L42 63L43 63L43 61L44 61L44 62L45 62L45 61L46 61L46 60L47 60L47 62L50 62L50 61L51 61L51 59L50 59L50 57L49 57L49 56L50 56L50 55L52 55L52 56L51 56L51 57L52 57L52 56L53 56L53 55L54 55L54 56L55 56L55 57L54 57L54 58L53 58L53 59L52 59L52 60L55 60L55 61L53 61L53 63L54 63L54 64L53 64L53 65L51 65L51 67L52 67L52 66L53 66L53 67L55 67L55 68L53 68L53 69L55 69L55 68L57 68L57 67L55 67L55 66L56 66L56 64L58 64L58 63L60 63L60 65L59 65L59 66L58 66L58 67L61 67L61 66L62 66L62 65L63 65L63 66L66 66L66 65L65 65L65 64L67 64L67 65L68 65L68 64L69 64L69 63L68 63L68 62L67 62L67 61L69 61L69 59L68 59L68 58L69 58L69 56L68 56L68 54L69 54L69 53L67 53L67 52L68 52L68 50L69 50L69 48L68 48L68 49L67 49L67 51L65 51L65 50L66 50L66 49L65 49L65 50L64 50L64 51L62 51L62 50L63 50L63 49L62 49L62 46L63 46L63 45L66 45L66 47L65 47L65 46L64 46L64 47L63 47L63 48L67 48L67 47L68 47L68 46L67 46L67 44L69 44L69 43L68 43L68 42L69 42L69 41L68 41L68 40L69 40L69 39L68 39L68 38L67 38L67 37L68 37L68 36L69 36L69 35L68 35L68 34L69 34L69 31L68 31L68 30L69 30L69 28L67 28L67 27L68 27L68 26L69 26L69 23L68 23L68 18L69 18L69 17L68 17L68 16L67 16L67 15L68 15L68 13L69 13L69 12L68 12L68 13L67 13L67 14L64 14L64 15L62 15L62 13L63 13L63 11L62 11L62 8L61 8L61 6L60 6L60 7L59 7L59 4L58 4L58 3L59 3L59 2L55 2L55 3L57 3L57 4L58 4L58 7L59 7L59 8L61 8L61 9L59 9L59 10L60 10L60 11L61 11L61 13L60 13L60 12L59 12L59 13L60 13L60 14L59 14L59 15L58 15L58 14L57 14L57 15L58 15L58 16L57 16L57 17L56 17L56 15L55 15L55 14L56 14L56 12L57 12L57 13L58 13L58 11L56 11L56 10L55 10L55 9L56 9L56 8L57 8L57 6L56 6L56 8L54 8L54 7L55 7L55 4L53 4L53 5L48 5L48 4L49 4L49 3L48 3L48 2L49 2L49 1L50 1L50 3L51 3L51 2L52 2L52 1L53 1L53 2L54 2L54 1L55 1L55 0L54 0L54 1L53 1L53 0L51 0L51 1L50 1L50 0L49 0L49 1L48 1L48 0L47 0L47 1L46 1L46 0L44 0L44 1L46 1L46 2L47 2L47 5L48 5L48 7L47 7L47 6L46 6L46 5L44 5L44 3L45 3L45 4L46 4L46 3L45 3L45 2L44 2L44 3L43 3L43 4L40 4L40 5L44 5L44 7L45 7L45 9L44 9L44 8L43 8L43 9L41 9L41 12L40 12L40 10L38 10L38 8L37 8L37 6L38 6L38 7L39 7L39 6L38 6L38 5L37 5L37 4L38 4L38 3L36 3L36 2L41 2L41 3L42 3L42 2L43 2L43 0L41 0L41 1L38 1L38 0L37 0L37 1L35 1L35 3L36 3L36 4L34 4L34 3L33 3L33 4L32 4L32 2L30 2L30 0L28 0L28 1L25 1L25 0L21 0L21 3L19 3L19 2L20 2L20 1L19 1L19 0ZM31 0L31 1L32 1L32 0ZM33 0L33 1L34 1L34 0ZM56 0L56 1L61 1L61 0ZM17 1L17 2L16 2L16 3L14 3L14 4L15 4L15 5L16 5L16 4L17 4L17 5L19 5L19 4L17 4L17 3L18 3L18 1ZM23 1L23 2L22 2L22 3L21 3L21 4L20 4L20 5L21 5L21 4L23 4L23 3L24 3L24 1ZM41 1L41 2L42 2L42 1ZM26 2L26 4L25 4L25 7L26 7L26 4L27 4L27 8L26 8L26 12L25 12L25 9L24 9L24 6L23 6L23 5L22 5L22 6L21 6L21 8L20 8L20 6L19 6L19 7L18 7L18 6L17 6L17 7L16 7L16 6L15 6L15 7L16 7L16 8L17 8L17 7L18 7L18 8L20 8L20 10L21 10L21 13L19 13L19 14L18 14L18 15L17 15L17 16L16 16L16 17L12 17L12 16L11 16L11 18L12 18L12 19L11 19L11 20L12 20L12 21L9 21L9 22L8 22L8 21L6 21L6 22L8 22L8 23L6 23L6 24L8 24L8 25L6 25L6 26L5 26L5 25L4 25L4 24L5 24L5 20L7 20L7 19L4 19L4 18L3 18L3 19L4 19L4 21L3 21L3 22L4 22L4 24L3 24L3 25L2 25L2 26L4 26L4 27L3 27L3 28L2 28L2 29L3 29L3 30L4 30L4 29L5 29L5 32L8 32L8 31L6 31L6 30L9 30L9 29L12 29L12 30L10 30L10 31L9 31L9 32L11 32L11 33L10 33L10 34L9 34L9 36L10 36L10 37L11 37L11 38L12 38L12 39L15 39L15 38L17 38L17 36L16 36L16 35L17 35L17 33L18 33L18 32L17 32L17 31L18 31L18 29L17 29L17 28L19 28L19 29L20 29L20 30L21 30L21 31L19 31L19 32L20 32L20 33L19 33L19 34L18 34L18 35L19 35L19 37L20 37L20 38L22 38L22 39L21 39L21 40L22 40L22 41L20 41L20 40L19 40L19 39L17 39L17 40L14 40L14 41L16 41L16 42L15 42L15 43L16 43L16 44L13 44L13 43L14 43L14 42L12 42L12 41L13 41L13 40L12 40L12 41L11 41L11 42L12 42L12 43L10 43L10 44L8 44L8 43L6 43L6 44L4 44L4 45L3 45L3 46L2 46L2 45L1 45L1 47L3 47L3 46L4 46L4 48L3 48L3 49L2 49L2 51L3 51L3 53L5 53L5 51L4 51L4 50L3 50L3 49L5 49L5 50L8 50L8 51L6 51L6 52L7 52L7 53L6 53L6 54L8 54L8 55L9 55L9 57L10 57L10 58L11 58L11 59L13 59L13 60L11 60L11 61L10 61L10 59L9 59L9 63L10 63L10 64L9 64L9 67L10 67L10 68L11 68L11 67L12 67L12 66L11 66L11 61L12 61L12 63L13 63L13 62L17 62L17 63L18 63L18 62L19 62L19 61L18 61L18 62L17 62L17 60L16 60L16 59L13 59L13 58L16 58L16 57L17 57L17 59L18 59L18 60L19 60L19 58L18 58L18 57L17 57L17 56L16 56L16 57L15 57L15 55L14 55L14 54L13 54L13 52L14 52L14 51L15 51L15 52L19 52L19 53L20 53L20 54L21 54L21 55L19 55L19 54L17 54L17 53L15 53L15 54L17 54L17 55L18 55L18 56L21 56L21 57L22 57L22 56L21 56L21 55L22 55L22 54L23 54L23 52L19 52L19 51L20 51L20 50L19 50L19 51L18 51L18 49L21 49L21 50L22 50L22 51L24 51L24 50L22 50L22 49L24 49L24 48L25 48L25 49L26 49L26 54L25 54L25 55L23 55L23 56L25 56L25 55L26 55L26 57L25 57L25 60L24 60L24 61L25 61L25 62L24 62L24 63L25 63L25 64L26 64L26 63L25 63L25 62L26 62L26 61L27 61L27 63L28 63L28 65L25 65L25 66L26 66L26 67L27 67L27 66L28 66L28 65L30 65L30 66L32 66L32 65L30 65L30 64L29 64L29 63L30 63L30 62L31 62L31 63L32 63L32 60L34 60L34 59L37 59L37 61L38 61L38 60L39 60L39 57L41 57L41 56L39 56L39 55L41 55L41 52L44 52L44 53L43 53L43 56L42 56L42 57L43 57L43 59L44 59L44 61L45 61L45 58L46 58L46 59L47 59L47 60L49 60L49 61L50 61L50 59L47 59L47 58L48 58L48 57L46 57L46 56L49 56L49 55L48 55L48 53L45 53L45 52L46 52L46 51L49 51L49 52L51 52L51 53L50 53L50 54L53 54L53 52L55 52L55 51L56 51L56 54L54 54L54 55L55 55L55 56L56 56L56 57L55 57L55 58L54 58L54 59L55 59L55 60L56 60L56 61L57 61L57 62L59 62L59 61L60 61L60 60L61 60L61 58L62 58L62 60L63 60L63 58L68 58L68 57L66 57L66 56L64 56L64 57L63 57L63 58L62 58L62 57L60 57L60 56L61 56L61 55L67 55L67 53L66 53L66 52L65 52L65 51L64 51L64 53L62 53L62 51L60 51L60 52L59 52L59 51L58 51L58 50L59 50L59 49L60 49L60 48L61 48L61 45L60 45L60 44L62 44L62 45L63 45L63 44L64 44L64 43L63 43L63 42L65 42L65 43L67 43L67 42L68 42L68 41L67 41L67 40L65 40L65 41L63 41L63 39L65 39L65 37L66 37L66 36L65 36L65 37L64 37L64 38L63 38L63 37L62 37L62 39L61 39L61 37L60 37L60 35L59 35L59 34L60 34L60 33L57 33L57 32L59 32L59 31L60 31L60 30L59 30L59 29L61 29L61 28L59 28L59 29L57 29L57 28L58 28L58 27L61 27L61 26L59 26L59 25L61 25L61 24L59 24L59 23L60 23L60 22L59 22L59 21L60 21L60 20L61 20L61 21L62 21L62 26L64 26L64 28L63 28L63 27L62 27L62 28L63 28L63 29L62 29L62 31L63 31L63 32L64 32L64 31L67 31L67 32L66 32L66 34L65 34L65 35L66 35L66 34L68 34L68 31L67 31L67 28L66 28L66 27L67 27L67 26L68 26L68 25L67 25L67 24L63 24L63 23L64 23L64 22L65 22L65 23L67 23L67 22L66 22L66 21L67 21L67 20L65 20L65 18L67 18L67 17L66 17L66 16L65 16L65 15L64 15L64 16L62 16L62 15L61 15L61 14L60 14L60 15L61 15L61 16L62 16L62 18L61 18L61 19L60 19L60 18L59 18L59 17L57 17L57 18L56 18L56 17L55 17L55 16L54 16L54 15L53 15L53 14L52 14L52 13L53 13L53 12L54 12L54 11L53 11L53 12L52 12L52 11L51 11L51 12L50 12L50 10L52 10L52 9L53 9L53 8L52 8L52 6L51 6L51 7L50 7L50 6L49 6L49 9L50 9L50 10L47 10L47 7L46 7L46 6L45 6L45 7L46 7L46 9L45 9L45 10L42 10L42 12L41 12L41 14L42 14L42 15L40 15L40 14L39 14L39 13L40 13L40 12L39 12L39 11L37 11L37 10L36 10L36 9L35 9L35 10L32 10L32 11L31 11L31 10L30 10L30 9L31 9L31 7L32 7L32 5L30 5L30 4L29 4L29 3L28 3L28 2ZM8 3L8 4L9 4L9 3ZM12 3L12 4L13 4L13 3ZM27 3L27 4L28 4L28 3ZM60 3L60 5L61 5L61 3ZM29 5L29 6L28 6L28 8L27 8L27 9L28 9L28 8L29 8L29 9L30 9L30 8L29 8L29 6L30 6L30 7L31 7L31 6L30 6L30 5ZM33 5L33 8L36 8L36 5ZM9 6L9 7L10 7L10 6ZM11 6L11 7L12 7L12 6ZM22 6L22 7L23 7L23 6ZM34 6L34 7L35 7L35 6ZM40 6L40 8L39 8L39 9L40 9L40 8L41 8L41 6ZM42 6L42 7L43 7L43 6ZM53 6L53 7L54 7L54 6ZM21 8L21 9L22 9L22 8ZM50 8L50 9L52 9L52 8ZM63 8L63 10L64 10L64 12L67 12L67 11L68 11L68 10L69 10L69 9L68 9L68 8L67 8L67 9L66 9L66 8L65 8L65 10L64 10L64 8ZM15 9L15 10L16 10L16 9ZM23 9L23 10L24 10L24 9ZM27 10L27 13L21 13L21 15L22 15L22 14L24 14L24 15L23 15L23 17L18 17L18 16L17 16L17 17L18 17L18 18L17 18L17 19L18 19L18 20L17 20L17 21L18 21L18 22L17 22L17 25L16 25L16 22L15 22L15 21L16 21L16 19L15 19L15 18L13 18L13 19L15 19L15 20L13 20L13 22L15 22L15 23L14 23L14 26L11 26L11 25L10 25L10 23L11 23L11 22L9 22L9 23L8 23L8 24L9 24L9 25L10 25L10 26L9 26L9 27L10 27L10 28L11 28L11 27L14 27L14 26L15 26L15 27L16 27L16 28L14 28L14 30L15 30L15 29L16 29L16 28L17 28L17 25L18 25L18 26L20 26L20 25L21 25L21 26L22 26L22 25L24 25L24 26L23 26L23 27L24 27L24 29L21 29L21 28L22 28L22 27L20 27L20 29L21 29L21 30L22 30L22 31L23 31L23 33L21 33L21 35L23 35L23 37L22 37L22 36L21 36L21 37L22 37L22 38L24 38L24 39L23 39L23 40L24 40L24 41L23 41L23 42L20 42L20 41L19 41L19 40L17 40L17 41L19 41L19 42L17 42L17 43L18 43L18 44L17 44L17 45L19 45L19 46L20 46L20 47L19 47L19 48L20 48L20 47L21 47L21 48L22 48L22 47L25 47L25 48L26 48L26 47L25 47L25 45L26 45L26 46L27 46L27 47L28 47L28 46L27 46L27 45L28 45L28 44L27 44L27 45L26 45L26 43L28 43L28 42L27 42L27 41L25 41L25 40L26 40L26 39L27 39L27 40L29 40L29 41L30 41L30 42L29 42L29 43L30 43L30 44L29 44L29 45L31 45L31 41L30 41L30 40L29 40L29 39L30 39L30 38L31 38L31 35L32 35L32 45L33 45L33 43L34 43L34 44L35 44L35 45L34 45L34 47L33 47L33 46L32 46L32 47L33 47L33 48L32 48L32 49L31 49L31 46L30 46L30 48L29 48L29 52L28 52L28 51L27 51L27 53L30 53L30 55L29 55L29 54L26 54L26 55L29 55L29 56L30 56L30 57L29 57L29 58L26 58L26 60L25 60L25 61L26 61L26 60L28 60L28 59L29 59L29 58L31 58L31 56L32 56L32 58L38 58L38 57L39 57L39 56L37 56L37 54L40 54L40 53L39 53L39 51L41 51L41 50L42 50L42 51L44 51L44 52L45 52L45 49L46 49L46 47L47 47L47 49L48 49L48 50L49 50L49 51L51 51L51 50L50 50L50 49L49 49L49 48L48 48L48 47L47 47L47 46L49 46L49 47L50 47L50 48L51 48L51 47L53 47L53 48L54 48L54 49L53 49L53 51L52 51L52 52L53 52L53 51L55 51L55 50L56 50L56 51L57 51L57 50L58 50L58 49L56 49L56 47L57 47L57 45L56 45L56 44L57 44L57 43L56 43L56 44L54 44L54 43L55 43L55 42L57 42L57 41L59 41L59 42L58 42L58 44L59 44L59 43L62 43L62 44L63 44L63 43L62 43L62 41L61 41L61 40L60 40L60 41L59 41L59 40L58 40L58 39L56 39L56 40L55 40L55 37L56 37L56 38L57 38L57 37L59 37L59 35L57 35L57 37L56 37L56 35L55 35L55 34L56 34L56 32L57 32L57 31L59 31L59 30L56 30L56 27L57 27L57 25L58 25L58 24L57 24L57 23L58 23L58 22L56 22L56 21L55 21L55 20L59 20L59 19L55 19L55 17L53 17L53 18L52 18L52 17L51 17L51 16L50 16L50 17L49 17L49 15L52 15L52 14L50 14L50 12L47 12L47 11L45 11L45 13L47 13L47 14L45 14L45 15L44 15L44 14L43 14L43 13L44 13L44 12L43 12L43 13L42 13L42 14L43 14L43 15L44 15L44 16L42 16L42 17L41 17L41 18L39 18L39 19L37 19L37 18L38 18L38 17L39 17L39 16L40 16L40 15L39 15L39 14L38 14L38 13L39 13L39 12L38 12L38 13L36 13L36 12L34 12L34 13L33 13L33 14L32 14L32 15L31 15L31 16L29 16L29 19L31 19L31 20L28 20L28 19L27 19L27 18L28 18L28 17L27 17L27 18L26 18L26 17L25 17L25 16L26 16L26 15L25 15L25 14L27 14L27 15L28 15L28 14L27 14L27 13L28 13L28 12L29 12L29 14L31 14L31 13L32 13L32 12L29 12L29 10ZM35 10L35 11L36 11L36 10ZM65 10L65 11L66 11L66 10ZM15 11L15 12L16 12L16 13L17 13L17 12L16 12L16 11ZM18 11L18 12L20 12L20 11ZM23 11L23 12L24 12L24 11ZM51 12L51 13L52 13L52 12ZM6 13L6 14L7 14L7 13ZM34 13L34 14L33 14L33 15L32 15L32 16L31 16L31 18L32 18L32 16L33 16L33 17L35 17L35 16L36 16L36 15L35 15L35 13ZM37 14L37 17L36 17L36 18L35 18L35 19L32 19L32 22L31 22L31 21L27 21L27 20L26 20L26 19L25 19L25 20L24 20L24 18L23 18L23 19L22 19L22 18L21 18L21 19L22 19L22 20L21 20L21 21L20 21L20 20L19 20L19 21L20 21L20 22L19 22L19 23L18 23L18 24L19 24L19 25L20 25L20 24L21 24L21 25L22 25L22 24L21 24L21 23L22 23L22 22L23 22L23 21L25 21L25 23L23 23L23 24L25 24L25 23L26 23L26 25L25 25L25 26L26 26L26 27L25 27L25 28L26 28L26 30L31 30L31 29L32 29L32 28L31 28L31 29L29 29L29 28L30 28L30 27L33 27L33 28L34 28L34 29L33 29L33 30L32 30L32 32L34 32L34 31L33 31L33 30L34 30L34 29L35 29L35 30L36 30L36 28L35 28L35 27L36 27L36 26L34 26L34 27L33 27L33 25L32 25L32 24L35 24L35 25L36 25L36 24L37 24L37 25L38 25L38 26L37 26L37 29L38 29L38 30L37 30L37 31L39 31L39 30L40 30L40 31L43 31L43 32L39 32L39 33L38 33L38 32L37 32L37 33L38 33L38 34L39 34L39 35L37 35L37 36L38 36L38 37L36 37L36 38L35 38L35 37L34 37L34 38L35 38L35 39L36 39L36 38L38 38L38 39L37 39L37 41L36 41L36 40L33 40L33 41L34 41L34 42L36 42L36 43L38 43L38 44L36 44L36 45L35 45L35 47L36 47L36 48L33 48L33 49L34 49L34 51L32 51L32 50L30 50L30 52L31 52L31 55L32 55L32 56L33 56L33 57L36 57L36 56L33 56L33 54L34 54L34 55L35 55L35 54L37 54L37 53L38 53L38 52L36 52L36 53L35 53L35 51L36 51L36 50L37 50L37 51L39 51L39 50L41 50L41 49L42 49L42 48L43 48L43 46L42 46L42 45L41 45L41 46L42 46L42 48L41 48L41 47L40 47L40 46L39 46L39 45L40 45L40 44L41 44L41 43L40 43L40 41L41 41L41 40L44 40L44 42L43 42L43 44L44 44L44 49L43 49L43 50L44 50L44 49L45 49L45 47L46 47L46 46L47 46L47 45L46 45L46 44L47 44L47 43L46 43L46 42L48 42L48 44L50 44L50 46L51 46L51 45L52 45L52 46L53 46L53 47L54 47L54 48L55 48L55 47L54 47L54 46L53 46L53 40L52 40L52 39L51 39L51 40L50 40L50 39L49 39L49 40L50 40L50 42L48 42L48 41L47 41L47 40L48 40L48 38L51 38L51 37L55 37L55 36L54 36L54 34L51 34L51 33L55 33L55 32L49 32L49 31L52 31L52 30L53 30L53 31L54 31L54 30L53 30L53 29L54 29L54 26L52 26L52 27L51 27L51 25L53 25L53 22L54 22L54 23L55 23L55 24L56 24L56 25L55 25L55 27L56 27L56 25L57 25L57 24L56 24L56 22L54 22L54 21L53 21L53 20L55 20L55 19L54 19L54 18L53 18L53 20L51 20L51 19L52 19L52 18L51 18L51 17L50 17L50 18L49 18L49 17L48 17L48 18L47 18L47 15L49 15L49 14L47 14L47 15L45 15L45 16L44 16L44 17L43 17L43 20L44 20L44 22L37 22L37 23L35 23L35 22L34 22L34 21L35 21L35 20L36 20L36 21L38 21L38 20L37 20L37 19L36 19L36 18L37 18L37 17L38 17L38 14ZM9 15L9 16L8 16L8 17L10 17L10 15ZM19 15L19 16L20 16L20 15ZM33 15L33 16L34 16L34 15ZM63 17L63 18L62 18L62 21L63 21L63 22L64 22L64 21L63 21L63 20L64 20L64 19L63 19L63 18L65 18L65 17ZM18 18L18 19L20 19L20 18ZM44 18L44 19L46 19L46 18ZM48 18L48 19L49 19L49 18ZM50 18L50 19L51 19L51 18ZM39 19L39 21L41 21L41 20L42 20L42 19L41 19L41 20L40 20L40 19ZM25 20L25 21L26 21L26 20ZM46 20L46 21L48 21L48 22L47 22L47 24L46 24L46 22L44 22L44 23L45 23L45 24L46 24L46 25L47 25L47 27L49 27L49 26L50 26L50 25L49 25L49 24L48 24L48 23L50 23L50 24L52 24L52 22L53 22L53 21L51 21L51 23L50 23L50 21L49 21L49 20ZM26 22L26 23L27 23L27 25L26 25L26 26L27 26L27 27L28 27L28 26L27 26L27 25L28 25L28 24L30 24L30 25L29 25L29 26L31 26L31 24L32 24L32 23L33 23L33 22L32 22L32 23L31 23L31 22L30 22L30 23L27 23L27 22ZM19 23L19 24L20 24L20 23ZM39 23L39 24L42 24L42 25L41 25L41 26L39 26L39 27L38 27L38 29L40 29L40 28L39 28L39 27L42 27L42 30L43 30L43 29L44 29L44 28L45 28L45 29L46 29L46 28L45 28L45 27L46 27L46 26L43 26L43 25L44 25L44 24L43 24L43 23ZM12 24L12 25L13 25L13 24ZM47 24L47 25L48 25L48 24ZM15 25L15 26L16 26L16 25ZM66 25L66 26L65 26L65 27L66 27L66 26L67 26L67 25ZM6 26L6 27L8 27L8 26ZM43 27L43 28L44 28L44 27ZM50 27L50 29L49 29L49 28L47 28L47 31L49 31L49 30L50 30L50 29L51 29L51 27ZM3 28L3 29L4 29L4 28ZM6 28L6 29L8 29L8 28ZM12 28L12 29L13 29L13 28ZM65 28L65 29L63 29L63 30L65 30L65 29L66 29L66 28ZM48 29L48 30L49 30L49 29ZM12 30L12 33L14 33L14 34L13 34L13 36L12 36L12 35L11 35L11 34L10 34L10 36L11 36L11 37L13 37L13 38L14 38L14 37L15 37L15 36L14 36L14 35L16 35L16 34L15 34L15 33L16 33L16 32L15 32L15 31L14 31L14 32L13 32L13 30ZM16 30L16 31L17 31L17 30ZM24 30L24 33L25 33L25 36L24 36L24 37L25 37L25 36L26 36L26 38L25 38L25 39L26 39L26 38L28 38L28 39L29 39L29 38L30 38L30 37L29 37L29 36L30 36L30 35L31 35L31 33L30 33L30 32L28 32L28 31L27 31L27 32L28 32L28 33L25 33L25 32L26 32L26 31L25 31L25 30ZM44 30L44 32L43 32L43 33L40 33L40 35L41 35L41 34L43 34L43 33L44 33L44 36L41 36L41 37L42 37L42 38L41 38L41 39L38 39L38 41L37 41L37 42L38 42L38 43L39 43L39 44L38 44L38 45L37 45L37 46L36 46L36 47L37 47L37 46L38 46L38 45L39 45L39 44L40 44L40 43L39 43L39 42L38 42L38 41L39 41L39 40L41 40L41 39L42 39L42 38L43 38L43 39L45 39L45 40L47 40L47 38L48 38L48 37L50 37L50 35L51 35L51 34L50 34L50 33L49 33L49 32L46 32L46 30ZM2 31L2 32L3 32L3 31ZM14 32L14 33L15 33L15 32ZM44 32L44 33L45 33L45 36L44 36L44 37L45 37L45 38L47 38L47 37L45 37L45 36L47 36L47 35L48 35L48 34L47 34L47 33L45 33L45 32ZM5 33L5 36L8 36L8 33ZM28 33L28 34L26 34L26 36L27 36L27 35L28 35L28 36L29 36L29 34L30 34L30 33ZM33 33L33 36L36 36L36 33ZM61 33L61 36L64 36L64 33ZM6 34L6 35L7 35L7 34ZM19 34L19 35L20 35L20 34ZM34 34L34 35L35 35L35 34ZM49 34L49 35L50 35L50 34ZM62 34L62 35L63 35L63 34ZM0 35L0 38L1 38L1 37L2 37L2 39L3 39L3 40L2 40L2 41L4 41L4 40L5 40L5 39L4 39L4 38L3 38L3 35L2 35L2 36L1 36L1 35ZM67 35L67 36L68 36L68 35ZM13 36L13 37L14 37L14 36ZM6 37L6 38L7 38L7 37ZM39 37L39 38L40 38L40 37ZM53 38L53 39L54 39L54 38ZM59 38L59 39L60 39L60 38ZM0 40L0 41L1 41L1 40ZM8 40L8 41L9 41L9 40ZM51 40L51 42L50 42L50 43L51 43L51 44L52 44L52 43L51 43L51 42L52 42L52 40ZM54 40L54 41L55 41L55 40ZM56 40L56 41L57 41L57 40ZM24 41L24 42L23 42L23 43L24 43L24 44L22 44L22 43L20 43L20 42L19 42L19 44L20 44L20 46L21 46L21 47L22 47L22 46L21 46L21 45L24 45L24 44L25 44L25 43L26 43L26 42L25 42L25 41ZM60 41L60 42L61 42L61 41ZM66 41L66 42L67 42L67 41ZM44 42L44 43L45 43L45 42ZM6 44L6 45L7 45L7 46L5 46L5 47L8 47L8 48L5 48L5 49L8 49L8 48L11 48L11 51L10 51L10 49L9 49L9 51L8 51L8 53L9 53L9 52L11 52L11 54L12 54L12 55L13 55L13 54L12 54L12 52L11 52L11 51L12 51L12 48L13 48L13 49L18 49L18 48L17 48L17 47L18 47L18 46L16 46L16 48L15 48L15 45L14 45L14 48L13 48L13 47L12 47L12 46L13 46L13 45L12 45L12 44L11 44L11 46L9 46L9 47L8 47L8 44ZM55 45L55 46L56 46L56 45ZM59 45L59 46L60 46L60 45ZM11 47L11 48L12 48L12 47ZM38 47L38 49L37 49L37 50L38 50L38 49L39 49L39 48L40 48L40 47ZM27 49L27 50L28 50L28 49ZM35 49L35 50L36 50L36 49ZM61 49L61 50L62 50L62 49ZM13 50L13 51L14 51L14 50ZM31 51L31 52L32 52L32 54L33 54L33 53L34 53L34 52L32 52L32 51ZM24 52L24 53L25 53L25 52ZM57 52L57 53L59 53L59 52ZM44 53L44 56L43 56L43 57L44 57L44 56L46 56L46 54L45 54L45 53ZM60 53L60 55L58 55L58 54L57 54L57 55L56 55L56 56L60 56L60 55L61 55L61 54L62 54L62 53ZM65 53L65 54L66 54L66 53ZM9 54L9 55L10 55L10 54ZM0 55L0 56L1 56L1 55ZM10 56L10 57L12 57L12 56ZM13 56L13 57L14 57L14 56ZM56 57L56 58L57 58L57 57ZM59 57L59 58L60 58L60 57ZM7 58L7 59L8 59L8 58ZM31 59L31 60L29 60L29 61L31 61L31 60L32 60L32 59ZM57 59L57 61L59 61L59 59ZM67 59L67 60L65 60L65 61L67 61L67 60L68 60L68 59ZM3 60L3 61L5 61L5 60ZM14 60L14 61L16 61L16 60ZM42 60L42 61L43 61L43 60ZM33 61L33 64L36 64L36 61ZM61 61L61 64L64 64L64 61ZM34 62L34 63L35 63L35 62ZM55 62L55 64L54 64L54 65L55 65L55 64L56 64L56 62ZM62 62L62 63L63 63L63 62ZM65 62L65 63L66 63L66 62ZM37 63L37 65L38 65L38 66L39 66L39 67L40 67L40 66L41 66L41 64L39 64L39 65L38 65L38 63ZM16 64L16 65L15 65L15 66L17 66L17 65L18 65L18 64ZM44 64L44 66L45 66L45 67L46 67L46 66L45 66L45 64ZM29 67L29 68L30 68L30 67ZM31 67L31 68L32 68L32 67ZM63 67L63 68L61 68L61 69L65 69L65 68L67 68L67 69L68 69L68 68L67 68L67 67ZM0 0L0 7L7 7L7 0ZM1 1L1 6L6 6L6 1ZM2 2L2 5L5 5L5 2ZM62 0L62 7L69 7L69 0ZM63 1L63 6L68 6L68 1ZM64 2L64 5L67 5L67 2ZM0 62L0 69L7 69L7 62ZM1 63L1 68L6 68L6 63ZM2 64L2 67L5 67L5 64Z" fill="#000000"/></g></g></svg>
