<?xml version="1.0" encoding="UTF-8"?>
<svg xmlns="http://www.w3.org/2000/svg" version="1.1" width="300" height="300" viewBox="0 0 300 300"><rect x="0" y="0" width="300" height="300" fill="#ffffff"/><g transform="scale(4.348)"><g transform="translate(0,0)"><path fill-rule="evenodd" d="M8 0L8 1L12 1L12 2L11 2L11 3L12 3L12 4L11 4L11 6L10 6L10 4L9 4L9 3L10 3L10 2L8 2L8 5L9 5L9 6L8 6L8 7L9 7L9 6L10 6L10 7L11 7L11 8L12 8L12 10L10 10L10 12L8 12L8 10L9 10L9 9L10 9L10 8L8 8L8 10L5 10L5 9L4 9L4 8L0 8L0 11L1 11L1 12L0 12L0 13L1 13L1 12L2 12L2 13L9 13L9 14L10 14L10 15L8 15L8 14L6 14L6 15L5 15L5 16L6 16L6 17L8 17L8 18L6 18L6 19L5 19L5 21L4 21L4 22L3 22L3 23L2 23L2 22L1 22L1 23L2 23L2 24L0 24L0 26L1 26L1 25L2 25L2 26L3 26L3 27L5 27L5 25L2 25L2 24L3 24L3 23L4 23L4 24L5 24L5 23L4 23L4 22L5 22L5 21L7 21L7 22L6 22L6 23L7 23L7 22L8 22L8 23L9 23L9 24L8 24L8 28L2 28L2 30L0 30L0 36L2 36L2 37L0 37L0 38L2 38L2 37L3 37L3 39L5 39L5 41L4 41L4 42L5 42L5 41L8 41L8 39L9 39L9 38L10 38L10 39L11 39L11 40L10 40L10 41L9 41L9 42L6 42L6 43L7 43L7 44L6 44L6 45L5 45L5 44L4 44L4 43L2 43L2 41L3 41L3 40L1 40L1 39L0 39L0 41L1 41L1 43L0 43L0 46L1 46L1 45L2 45L2 48L3 48L3 49L0 49L0 51L1 51L1 50L2 50L2 51L3 51L3 52L2 52L2 53L3 53L3 54L5 54L5 53L8 53L8 54L10 54L10 53L9 53L9 52L11 52L11 51L12 51L12 50L11 50L11 51L9 51L9 50L10 50L10 49L12 49L12 47L13 47L13 49L14 49L14 48L16 48L16 49L15 49L15 50L16 50L16 49L17 49L17 52L20 52L20 53L22 53L22 56L21 56L21 58L20 58L20 54L19 54L19 55L18 55L18 54L17 54L17 53L16 53L16 52L15 52L15 51L14 51L14 50L13 50L13 51L14 51L14 52L13 52L13 53L11 53L11 55L12 55L12 58L11 58L11 59L9 59L9 58L6 58L6 57L9 57L9 56L6 56L6 55L7 55L7 54L6 54L6 55L5 55L5 57L4 57L4 59L7 59L7 60L6 60L6 61L8 61L8 62L9 62L9 60L10 60L10 61L13 61L13 63L14 63L14 62L16 62L16 63L17 63L17 65L16 65L16 64L15 64L15 65L14 65L14 66L13 66L13 67L12 67L12 69L14 69L14 66L17 66L17 67L16 67L16 68L15 68L15 69L18 69L18 68L17 68L17 67L20 67L20 68L19 68L19 69L24 69L24 67L23 67L23 66L24 66L24 64L25 64L25 68L27 68L27 69L30 69L30 68L34 68L34 69L35 69L35 68L34 68L34 67L33 67L33 66L35 66L35 65L37 65L37 66L36 66L36 67L38 67L38 68L39 68L39 69L41 69L41 68L42 68L42 69L43 69L43 68L42 68L42 67L41 67L41 66L42 66L42 65L40 65L40 64L41 64L41 62L39 62L39 61L40 61L40 60L41 60L41 61L42 61L42 60L41 60L41 59L42 59L42 58L43 58L43 56L41 56L41 55L42 55L42 53L40 53L40 52L41 52L41 51L35 51L35 50L34 50L34 49L33 49L33 48L34 48L34 47L35 47L35 48L38 48L38 49L36 49L36 50L40 50L40 49L39 49L39 48L38 48L38 47L40 47L40 48L42 48L42 49L44 49L44 48L43 48L43 47L44 47L44 46L43 46L43 45L42 45L42 44L41 44L41 45L40 45L40 44L39 44L39 43L38 43L38 42L37 42L37 45L36 45L36 44L33 44L33 43L34 43L34 40L37 40L37 41L39 41L39 42L40 42L40 43L43 43L43 44L44 44L44 43L45 43L45 42L46 42L46 43L48 43L48 44L45 44L45 45L47 45L47 47L46 47L46 46L45 46L45 47L46 47L46 48L45 48L45 50L44 50L44 52L43 52L43 51L42 51L42 52L43 52L43 54L44 54L44 55L46 55L46 54L47 54L47 58L49 58L49 59L48 59L48 60L45 60L45 63L44 63L44 64L43 64L43 65L45 65L45 63L47 63L47 64L49 64L49 65L50 65L50 62L51 62L51 61L50 61L50 60L51 60L51 59L50 59L50 58L49 58L49 57L50 57L50 56L51 56L51 57L52 57L52 60L53 60L53 59L58 59L58 58L57 58L57 57L59 57L59 55L60 55L60 56L61 56L61 57L60 57L60 61L59 61L59 60L58 60L58 61L59 61L59 63L58 63L58 62L57 62L57 61L56 61L56 60L55 60L55 61L56 61L56 62L52 62L52 63L53 63L53 64L55 64L55 65L57 65L57 67L58 67L58 68L60 68L60 67L61 67L61 69L63 69L63 67L62 67L62 66L59 66L59 65L63 65L63 66L64 66L64 65L65 65L65 66L68 66L68 65L69 65L69 63L65 63L65 61L69 61L69 58L67 58L67 60L66 60L66 59L65 59L65 58L66 58L66 57L65 57L65 55L64 55L64 57L65 57L65 58L63 58L63 56L62 56L62 55L60 55L60 54L66 54L66 52L68 52L68 53L67 53L67 55L68 55L68 54L69 54L69 52L68 52L68 51L66 51L66 49L65 49L65 53L63 53L63 52L64 52L64 51L62 51L62 50L64 50L64 49L62 49L62 48L61 48L61 47L63 47L63 48L66 48L66 46L67 46L67 47L69 47L69 46L68 46L68 45L69 45L69 43L67 43L67 42L66 42L66 43L67 43L67 44L68 44L68 45L66 45L66 46L65 46L65 47L64 47L64 46L61 46L61 47L60 47L60 46L58 46L58 47L57 47L57 48L59 48L59 47L60 47L60 48L61 48L61 49L60 49L60 50L59 50L59 51L60 51L60 50L61 50L61 53L60 53L60 52L57 52L57 51L56 51L56 52L55 52L55 55L58 55L58 56L57 56L57 57L53 57L53 54L54 54L54 52L53 52L53 53L52 53L52 51L53 51L53 49L52 49L52 50L51 50L51 48L52 48L52 47L53 47L53 48L54 48L54 47L55 47L55 49L56 49L56 47L55 47L55 46L56 46L56 45L55 45L55 44L54 44L54 43L53 43L53 44L52 44L52 43L51 43L51 44L50 44L50 45L48 45L48 44L49 44L49 43L50 43L50 42L49 42L49 41L52 41L52 42L54 42L54 41L55 41L55 40L56 40L56 42L57 42L57 43L58 43L58 44L59 44L59 43L58 43L58 42L59 42L59 41L60 41L60 40L58 40L58 41L57 41L57 39L59 39L59 38L58 38L58 37L56 37L56 36L54 36L54 35L56 35L56 34L57 34L57 33L58 33L58 32L57 32L57 30L58 30L58 31L59 31L59 30L60 30L60 31L61 31L61 32L60 32L60 33L59 33L59 34L60 34L60 39L61 39L61 37L62 37L62 38L63 38L63 40L61 40L61 42L60 42L60 45L61 45L61 44L62 44L62 42L63 42L63 41L64 41L64 42L65 42L65 41L66 41L66 40L67 40L67 41L68 41L68 42L69 42L69 41L68 41L68 40L67 40L67 38L66 38L66 36L65 36L65 35L67 35L67 37L68 37L68 38L69 38L69 37L68 37L68 36L69 36L69 31L67 31L67 32L65 32L65 31L63 31L63 32L62 32L62 30L60 30L60 29L61 29L61 28L59 28L59 27L61 27L61 26L58 26L58 23L61 23L61 24L62 24L62 28L63 28L63 30L64 30L64 28L65 28L65 27L66 27L66 30L67 30L67 28L68 28L68 30L69 30L69 28L68 28L68 27L67 27L67 26L64 26L64 23L63 23L63 22L64 22L64 21L66 21L66 22L67 22L67 24L66 24L66 23L65 23L65 25L68 25L68 26L69 26L69 22L67 22L67 20L69 20L69 19L68 19L68 18L69 18L69 16L67 16L67 15L66 15L66 14L69 14L69 8L68 8L68 10L67 10L67 8L64 8L64 9L63 9L63 10L62 10L62 8L59 8L59 4L58 4L58 5L57 5L57 6L56 6L56 5L55 5L55 6L54 6L54 5L53 5L53 6L52 6L52 8L50 8L50 9L48 9L48 8L46 8L46 9L47 9L47 11L48 11L48 12L47 12L47 13L49 13L49 14L48 14L48 16L49 16L49 15L50 15L50 16L51 16L51 17L52 17L52 18L54 18L54 19L52 19L52 20L51 20L51 18L50 18L50 19L49 19L49 18L47 18L47 17L46 17L46 19L45 19L45 18L44 18L44 17L45 17L45 16L47 16L47 14L46 14L46 10L45 10L45 9L43 9L43 6L44 6L44 8L45 8L45 5L46 5L46 7L47 7L47 6L48 6L48 7L49 7L49 6L48 6L48 5L49 5L49 4L50 4L50 7L51 7L51 4L50 4L50 3L51 3L51 1L52 1L52 0L51 0L51 1L50 1L50 0L47 0L47 1L45 1L45 0L44 0L44 2L42 2L42 1L43 1L43 0L41 0L41 1L40 1L40 3L41 3L41 2L42 2L42 3L43 3L43 6L42 6L42 5L41 5L41 4L38 4L38 1L37 1L37 0L36 0L36 1L37 1L37 2L36 2L36 4L31 4L31 1L32 1L32 0L31 0L31 1L30 1L30 0L28 0L28 2L27 2L27 1L26 1L26 2L27 2L27 4L26 4L26 3L25 3L25 5L23 5L23 4L22 4L22 7L21 7L21 6L20 6L20 7L19 7L19 6L18 6L18 7L17 7L17 6L16 6L16 4L15 4L15 5L13 5L13 3L12 3L12 2L14 2L14 1L12 1L12 0ZM17 0L17 2L18 2L18 3L17 3L17 4L20 4L20 5L21 5L21 3L20 3L20 2L21 2L21 1L19 1L19 0ZM23 0L23 2L25 2L25 0ZM33 0L33 1L35 1L35 0ZM53 0L53 1L54 1L54 2L52 2L52 3L54 3L54 4L56 4L56 3L57 3L57 2L58 2L58 3L59 3L59 2L58 2L58 1L61 1L61 0ZM15 1L15 3L16 3L16 1ZM47 1L47 3L46 3L46 5L47 5L47 3L48 3L48 2L49 2L49 3L50 3L50 2L49 2L49 1ZM55 1L55 2L54 2L54 3L56 3L56 2L57 2L57 1ZM28 2L28 6L27 6L27 5L25 5L25 7L24 7L24 6L23 6L23 7L22 7L22 8L21 8L21 7L20 7L20 8L18 8L18 9L20 9L20 10L18 10L18 11L17 11L17 10L16 10L16 6L15 6L15 8L14 8L14 6L13 6L13 8L14 8L14 11L15 11L15 10L16 10L16 12L18 12L18 11L21 11L21 14L19 14L19 13L20 13L20 12L19 12L19 13L18 13L18 14L19 14L19 15L15 15L15 14L14 14L14 13L13 13L13 10L12 10L12 11L11 11L11 12L10 12L10 13L12 13L12 15L13 15L13 16L11 16L11 15L10 15L10 18L11 18L11 20L14 20L14 19L16 19L16 20L15 20L15 21L16 21L16 20L17 20L17 19L18 19L18 18L19 18L19 19L20 19L20 23L19 23L19 20L18 20L18 21L17 21L17 23L16 23L16 22L12 22L12 21L11 21L11 22L10 22L10 19L9 19L9 20L8 20L8 19L6 19L6 20L8 20L8 21L9 21L9 23L10 23L10 24L9 24L9 25L12 25L12 26L9 26L9 27L11 27L11 28L12 28L12 26L13 26L13 24L12 24L12 23L16 23L16 25L17 25L17 23L19 23L19 25L20 25L20 24L21 24L21 26L23 26L23 25L22 25L22 24L24 24L24 23L21 23L21 22L23 22L23 21L21 21L21 19L20 19L20 16L22 16L22 17L24 17L24 19L22 19L22 20L24 20L24 21L26 21L26 22L27 22L27 23L25 23L25 24L26 24L26 25L27 25L27 26L28 26L28 27L30 27L30 28L29 28L29 29L31 29L31 30L32 30L32 31L33 31L33 30L32 30L32 29L34 29L34 30L35 30L35 31L36 31L36 30L35 30L35 27L38 27L38 28L39 28L39 29L37 29L37 28L36 28L36 29L37 29L37 31L38 31L38 32L40 32L40 31L41 31L41 33L42 33L42 32L43 32L43 35L42 35L42 37L41 37L41 36L40 36L40 35L39 35L39 34L40 34L40 33L37 33L37 34L38 34L38 37L37 37L37 38L36 38L36 37L30 37L30 38L32 38L32 39L29 39L29 42L27 42L27 43L26 43L26 40L24 40L24 41L25 41L25 42L22 42L22 43L21 43L21 41L23 41L23 39L24 39L24 38L25 38L25 39L28 39L28 38L29 38L29 36L32 36L32 32L30 32L30 33L29 33L29 35L28 35L28 32L29 32L29 31L30 31L30 30L29 30L29 31L25 31L25 30L27 30L27 29L25 29L25 28L24 28L24 27L25 27L25 25L24 25L24 27L23 27L23 28L22 28L22 30L21 30L21 28L19 28L19 27L18 27L18 28L16 28L16 27L17 27L17 26L15 26L15 25L14 25L14 26L15 26L15 28L14 28L14 27L13 27L13 31L14 31L14 32L15 32L15 36L14 36L14 37L16 37L16 39L15 39L15 40L14 40L14 42L11 42L11 41L10 41L10 42L9 42L9 43L8 43L8 45L9 45L9 46L8 46L8 48L7 48L7 47L5 47L5 46L4 46L4 47L3 47L3 48L4 48L4 49L3 49L3 50L4 50L4 51L5 51L5 52L7 52L7 51L6 51L6 50L8 50L8 49L10 49L10 48L11 48L11 45L13 45L13 47L15 47L15 46L16 46L16 48L18 48L18 51L19 51L19 49L20 49L20 50L21 50L21 49L22 49L22 50L25 50L25 51L24 51L24 52L22 52L22 51L21 51L21 52L22 52L22 53L24 53L24 54L23 54L23 55L24 55L24 54L25 54L25 55L26 55L26 54L25 54L25 51L26 51L26 52L27 52L27 50L29 50L29 48L31 48L31 49L30 49L30 50L31 50L31 49L32 49L32 50L33 50L33 51L28 51L28 52L29 52L29 53L31 53L31 55L30 55L30 54L27 54L27 55L28 55L28 56L29 56L29 57L27 57L27 56L24 56L24 57L23 57L23 56L22 56L22 58L23 58L23 59L22 59L22 60L21 60L21 59L18 59L18 60L17 60L17 59L16 59L16 55L15 55L15 52L14 52L14 55L13 55L13 54L12 54L12 55L13 55L13 56L15 56L15 58L14 58L14 57L13 57L13 58L14 58L14 59L13 59L13 61L15 61L15 59L16 59L16 62L17 62L17 63L20 63L20 64L21 64L21 63L22 63L22 62L23 62L23 63L24 63L24 62L25 62L25 64L26 64L26 67L27 67L27 65L28 65L28 66L29 66L29 67L31 67L31 62L32 62L32 60L31 60L31 59L32 59L32 57L31 57L31 55L33 55L33 56L34 56L34 55L35 55L35 56L40 56L40 55L41 55L41 54L40 54L40 53L39 53L39 52L35 52L35 51L34 51L34 50L33 50L33 49L32 49L32 48L33 48L33 45L32 45L32 43L33 43L33 42L32 42L32 39L33 39L33 40L34 40L34 39L35 39L35 38L36 38L36 39L37 39L37 40L38 40L38 39L41 39L41 40L40 40L40 42L41 42L41 41L42 41L42 42L43 42L43 43L44 43L44 42L45 42L45 41L43 41L43 40L45 40L45 39L47 39L47 40L46 40L46 41L47 41L47 42L48 42L48 43L49 43L49 42L48 42L48 41L49 41L49 39L50 39L50 40L51 40L51 39L50 39L50 37L53 37L53 39L52 39L52 41L53 41L53 39L54 39L54 38L55 38L55 39L56 39L56 37L54 37L54 36L52 36L52 34L51 34L51 33L50 33L50 34L49 34L49 32L52 32L52 31L53 31L53 32L54 32L54 33L55 33L55 34L56 34L56 33L57 33L57 32L54 32L54 31L56 31L56 30L55 30L55 28L57 28L57 29L58 29L58 27L57 27L57 24L56 24L56 23L55 23L55 22L56 22L56 21L58 21L58 22L59 22L59 20L58 20L58 19L59 19L59 18L56 18L56 17L54 17L54 18L56 18L56 21L55 21L55 22L52 22L52 23L54 23L54 24L51 24L51 23L49 23L49 19L46 19L46 21L45 21L45 20L44 20L44 18L43 18L43 16L44 16L44 15L45 15L45 12L44 12L44 10L43 10L43 12L41 12L41 13L42 13L42 14L43 14L43 15L41 15L41 14L40 14L40 11L39 11L39 10L41 10L41 11L42 11L42 10L41 10L41 9L42 9L42 8L41 8L41 9L39 9L39 8L40 8L40 5L38 5L38 4L37 4L37 7L38 7L38 10L37 10L37 12L36 12L36 9L35 9L35 12L36 12L36 15L34 15L34 17L35 17L35 18L37 18L37 19L38 19L38 20L39 20L39 23L38 23L38 22L35 22L35 21L37 21L37 20L35 20L35 19L34 19L34 20L32 20L32 21L31 21L31 20L30 20L30 21L28 21L28 20L29 20L29 18L30 18L30 17L33 17L33 15L32 15L32 16L29 16L29 15L31 15L31 14L32 14L32 13L33 13L33 14L35 14L35 13L33 13L33 11L34 11L34 10L33 10L33 11L32 11L32 13L30 13L30 14L29 14L29 11L30 11L30 9L28 9L28 8L29 8L29 7L30 7L30 6L29 6L29 3L30 3L30 2ZM32 2L32 3L35 3L35 2ZM44 3L44 4L45 4L45 3ZM60 3L60 5L61 5L61 3ZM30 4L30 5L31 5L31 4ZM33 5L33 8L36 8L36 5ZM11 6L11 7L12 7L12 6ZM26 6L26 7L25 7L25 8L26 8L26 7L27 7L27 8L28 8L28 7L29 7L29 6L28 6L28 7L27 7L27 6ZM31 6L31 10L32 10L32 6ZM34 6L34 7L35 7L35 6ZM38 6L38 7L39 7L39 6ZM41 6L41 7L42 7L42 6ZM53 6L53 7L54 7L54 6ZM55 6L55 7L56 7L56 8L54 8L54 9L55 9L55 10L53 10L53 12L52 12L52 10L51 10L51 9L50 9L50 10L49 10L49 13L50 13L50 11L51 11L51 14L53 14L53 16L52 16L52 15L51 15L51 16L52 16L52 17L53 17L53 16L57 16L57 17L59 17L59 16L60 16L60 18L61 18L61 19L60 19L60 21L62 21L62 22L63 22L63 20L62 20L62 18L63 18L63 19L64 19L64 20L65 20L65 19L66 19L66 20L67 20L67 18L68 18L68 17L67 17L67 16L66 16L66 17L65 17L65 15L64 15L64 17L61 17L61 16L62 16L62 15L59 15L59 16L57 16L57 15L58 15L58 14L61 14L61 11L62 11L62 10L60 10L60 13L59 13L59 11L58 11L58 10L59 10L59 8L57 8L57 7L58 7L58 6L57 6L57 7L56 7L56 6ZM60 6L60 7L61 7L61 6ZM6 8L6 9L7 9L7 8ZM22 8L22 9L23 9L23 10L22 10L22 11L23 11L23 13L26 13L26 12L27 12L27 11L28 11L28 10L27 10L27 9L26 9L26 10L24 10L24 9L23 9L23 8ZM2 9L2 10L3 10L3 11L4 11L4 12L5 12L5 11L4 11L4 9ZM26 10L26 11L27 11L27 10ZM63 10L63 11L65 11L65 10ZM66 10L66 12L62 12L62 13L63 13L63 14L65 14L65 13L68 13L68 12L67 12L67 10ZM6 11L6 12L7 12L7 11ZM38 11L38 12L37 12L37 15L38 15L38 14L39 14L39 16L37 16L37 17L39 17L39 20L40 20L40 21L41 21L41 22L40 22L40 24L42 24L42 25L44 25L44 27L45 27L45 26L46 26L46 27L47 27L47 26L46 26L46 25L47 25L47 24L48 24L48 26L51 26L51 25L49 25L49 23L46 23L46 25L44 25L44 23L43 23L43 24L42 24L42 22L44 22L44 21L43 21L43 20L42 20L42 21L41 21L41 19L43 19L43 18L42 18L42 16L41 16L41 17L40 17L40 14L39 14L39 13L38 13L38 12L39 12L39 11ZM56 11L56 12L57 12L57 11ZM43 12L43 13L44 13L44 12ZM54 12L54 13L55 13L55 14L58 14L58 13L55 13L55 12ZM16 13L16 14L17 14L17 13ZM27 13L27 16L26 16L26 14L22 14L22 16L24 16L24 17L25 17L25 16L26 16L26 17L28 17L28 18L29 18L29 17L28 17L28 13ZM3 14L3 15L4 15L4 14ZM1 15L1 16L0 16L0 17L1 17L1 18L0 18L0 19L1 19L1 20L0 20L0 21L3 21L3 20L2 20L2 19L1 19L1 18L2 18L2 17L3 17L3 18L4 18L4 16L2 16L2 15ZM6 15L6 16L7 16L7 15ZM14 15L14 16L15 16L15 15ZM19 15L19 16L18 16L18 17L19 17L19 16L20 16L20 15ZM1 16L1 17L2 17L2 16ZM16 16L16 17L13 17L13 18L12 18L12 19L13 19L13 18L16 18L16 19L17 19L17 18L16 18L16 17L17 17L17 16ZM35 16L35 17L36 17L36 16ZM25 18L25 20L26 20L26 18ZM31 18L31 19L33 19L33 18ZM47 20L47 22L48 22L48 20ZM50 20L50 22L51 22L51 20ZM53 20L53 21L54 21L54 20ZM32 21L32 22L33 22L33 23L34 23L34 27L35 27L35 23L34 23L34 21ZM28 22L28 23L29 23L29 24L28 24L28 25L29 25L29 24L30 24L30 25L31 25L31 28L33 28L33 27L32 27L32 26L33 26L33 25L31 25L31 24L30 24L30 22ZM36 23L36 25L37 25L37 26L38 26L38 27L39 27L39 26L40 26L40 25L37 25L37 23ZM6 24L6 25L7 25L7 24ZM55 24L55 25L56 25L56 24ZM59 24L59 25L60 25L60 24ZM52 25L52 27L53 27L53 28L54 28L54 27L53 27L53 25ZM6 26L6 27L7 27L7 26ZM41 26L41 27L42 27L42 28L41 28L41 29L39 29L39 31L40 31L40 30L41 30L41 29L42 29L42 28L43 28L43 30L44 30L44 31L45 31L45 29L46 29L46 31L49 31L49 29L46 29L46 28L43 28L43 27L42 27L42 26ZM55 26L55 27L56 27L56 26ZM26 27L26 28L27 28L27 27ZM50 27L50 28L51 28L51 29L52 29L52 30L54 30L54 29L52 29L52 28L51 28L51 27ZM63 27L63 28L64 28L64 27ZM9 28L9 29L10 29L10 28ZM23 28L23 31L22 31L22 32L21 32L21 34L19 34L19 33L17 33L17 35L16 35L16 36L17 36L17 37L19 37L19 38L17 38L17 39L18 39L18 40L20 40L20 41L21 41L21 38L22 38L22 39L23 39L23 38L22 38L22 37L19 37L19 36L20 36L20 35L21 35L21 34L22 34L22 35L23 35L23 36L24 36L24 35L23 35L23 34L25 34L25 31L24 31L24 28ZM3 29L3 30L2 30L2 31L3 31L3 33L4 33L4 29ZM5 29L5 30L7 30L7 29ZM14 29L14 30L15 30L15 32L16 32L16 30L18 30L18 31L19 31L19 30L18 30L18 29ZM8 30L8 31L10 31L10 33L9 33L9 37L8 37L8 38L7 38L7 37L6 37L6 38L7 38L7 39L6 39L6 40L7 40L7 39L8 39L8 38L9 38L9 37L10 37L10 36L11 36L11 35L10 35L10 34L13 34L13 35L12 35L12 36L13 36L13 35L14 35L14 34L13 34L13 33L12 33L12 32L11 32L11 31L12 31L12 30L11 30L11 31L10 31L10 30ZM20 30L20 31L21 31L21 30ZM50 30L50 31L51 31L51 30ZM5 31L5 32L7 32L7 31ZM23 31L23 32L24 32L24 31ZM26 32L26 33L27 33L27 32ZM45 32L45 33L44 33L44 34L45 34L45 35L43 35L43 38L44 38L44 39L45 39L45 38L46 38L46 37L47 37L47 39L48 39L48 37L49 37L49 36L47 36L47 35L46 35L46 34L45 34L45 33L46 33L46 32ZM47 32L47 34L48 34L48 32ZM1 33L1 34L2 34L2 33ZM5 33L5 36L8 36L8 33ZM22 33L22 34L23 34L23 33ZM33 33L33 36L36 36L36 33ZM61 33L61 36L64 36L64 33ZM65 33L65 34L66 34L66 33ZM67 33L67 34L68 34L68 33ZM6 34L6 35L7 35L7 34ZM30 34L30 35L31 35L31 34ZM34 34L34 35L35 35L35 34ZM50 34L50 35L51 35L51 34ZM53 34L53 35L54 35L54 34ZM62 34L62 35L63 35L63 34ZM2 35L2 36L3 36L3 37L4 37L4 38L5 38L5 37L4 37L4 36L3 36L3 35ZM18 35L18 36L19 36L19 35ZM25 35L25 38L28 38L28 37L26 37L26 36L28 36L28 35ZM57 35L57 36L59 36L59 35ZM44 36L44 38L45 38L45 36ZM38 37L38 38L39 38L39 37ZM40 37L40 38L41 38L41 39L42 39L42 38L41 38L41 37ZM63 37L63 38L65 38L65 37ZM11 38L11 39L12 39L12 40L13 40L13 39L14 39L14 38L13 38L13 39L12 39L12 38ZM19 38L19 39L20 39L20 38ZM15 40L15 41L16 41L16 42L17 42L17 43L18 43L18 44L16 44L16 45L18 45L18 48L20 48L20 47L23 47L23 49L25 49L25 50L27 50L27 49L25 49L25 47L23 47L23 46L25 46L25 45L23 45L23 43L22 43L22 44L20 44L20 45L18 45L18 44L19 44L19 42L17 42L17 41L16 41L16 40ZM27 40L27 41L28 41L28 40ZM30 40L30 41L31 41L31 40ZM35 41L35 43L36 43L36 41ZM10 42L10 43L9 43L9 45L11 45L11 44L12 44L12 43L11 43L11 42ZM14 42L14 44L13 44L13 45L14 45L14 46L15 46L15 45L14 45L14 44L15 44L15 42ZM29 42L29 43L28 43L28 45L29 45L29 46L28 46L28 47L29 47L29 46L30 46L30 47L31 47L31 48L32 48L32 47L31 47L31 46L30 46L30 45L29 45L29 44L30 44L30 43L31 43L31 42ZM10 43L10 44L11 44L11 43ZM24 43L24 44L25 44L25 43ZM63 43L63 45L65 45L65 43ZM2 44L2 45L4 45L4 44ZM6 45L6 46L7 46L7 45ZM20 45L20 46L21 46L21 45ZM22 45L22 46L23 46L23 45ZM34 45L34 46L36 46L36 47L38 47L38 46L39 46L39 45L38 45L38 46L36 46L36 45ZM41 45L41 47L42 47L42 45ZM50 45L50 47L48 47L48 48L49 48L49 49L50 49L50 47L52 47L52 46L53 46L53 47L54 47L54 45ZM9 46L9 48L10 48L10 46ZM26 46L26 47L27 47L27 46ZM6 48L6 49L7 49L7 48ZM46 48L46 50L47 50L47 48ZM67 48L67 50L68 50L68 49L69 49L69 48ZM57 49L57 50L58 50L58 49ZM48 50L48 51L49 51L49 52L47 52L47 53L48 53L48 55L49 55L49 54L50 54L50 55L52 55L52 54L51 54L51 53L50 53L50 52L51 52L51 50L50 50L50 51L49 51L49 50ZM54 50L54 51L55 51L55 50ZM8 51L8 52L9 52L9 51ZM45 51L45 53L46 53L46 51ZM3 52L3 53L4 53L4 52ZM32 52L32 54L35 54L35 55L37 55L37 54L36 54L36 53L33 53L33 52ZM0 53L0 54L1 54L1 55L2 55L2 56L3 56L3 55L2 55L2 54L1 54L1 53ZM38 53L38 54L39 54L39 53ZM56 53L56 54L57 54L57 53ZM59 53L59 54L60 54L60 53ZM0 56L0 57L1 57L1 56ZM18 56L18 57L19 57L19 56ZM45 56L45 57L46 57L46 56ZM48 56L48 57L49 57L49 56ZM68 56L68 57L69 57L69 56ZM24 57L24 58L25 58L25 62L26 62L26 64L28 64L28 63L27 63L27 62L28 62L28 61L31 61L31 60L29 60L29 59L30 59L30 58L31 58L31 57L29 57L29 59L28 59L28 61L26 61L26 59L27 59L27 58L26 58L26 57ZM35 57L35 59L34 59L34 58L33 58L33 60L37 60L37 61L39 61L39 60L40 60L40 58L39 58L39 57L37 57L37 58L38 58L38 59L36 59L36 57ZM61 57L61 58L62 58L62 57ZM0 58L0 61L1 61L1 58ZM2 58L2 59L3 59L3 58ZM44 58L44 59L43 59L43 61L44 61L44 59L45 59L45 58ZM8 59L8 60L9 60L9 59ZM11 59L11 60L12 60L12 59ZM38 59L38 60L39 60L39 59ZM3 60L3 61L5 61L5 60ZM18 60L18 62L19 62L19 61L20 61L20 62L21 62L21 60ZM33 61L33 64L36 64L36 61ZM46 61L46 62L47 62L47 63L48 63L48 62L49 62L49 61ZM61 61L61 64L64 64L64 61ZM10 62L10 63L11 63L11 62ZM34 62L34 63L35 63L35 62ZM37 62L37 64L39 64L39 62ZM56 62L56 63L55 63L55 64L57 64L57 65L59 65L59 64L60 64L60 63L59 63L59 64L58 64L58 63L57 63L57 62ZM62 62L62 63L63 63L63 62ZM9 64L9 65L8 65L8 69L9 69L9 67L10 67L10 68L11 68L11 67L10 67L10 65L11 65L11 66L12 66L12 65L13 65L13 64ZM18 64L18 66L19 66L19 64ZM22 64L22 65L23 65L23 64ZM51 64L51 67L50 67L50 66L48 66L48 65L46 65L46 68L45 68L45 69L48 69L48 67L50 67L50 68L49 68L49 69L54 69L54 68L55 68L55 67L56 67L56 66L55 66L55 67L53 67L53 66L54 66L54 65L52 65L52 64ZM67 64L67 65L68 65L68 64ZM20 65L20 67L21 67L21 68L22 68L22 67L21 67L21 65ZM29 65L29 66L30 66L30 65ZM38 65L38 66L39 66L39 67L40 67L40 68L41 68L41 67L40 67L40 66L39 66L39 65ZM44 66L44 67L45 67L45 66ZM47 66L47 67L48 67L48 66ZM58 66L58 67L59 67L59 66ZM51 67L51 68L53 68L53 67ZM64 67L64 68L65 68L65 67ZM68 67L68 68L69 68L69 67ZM66 68L66 69L67 69L67 68ZM0 0L0 7L7 7L7 0ZM1 1L1 6L6 6L6 1ZM2 2L2 5L5 5L5 2ZM62 0L62 7L69 7L69 0ZM63 1L63 6L68 6L68 1ZM64 2L64 5L67 5L67 2ZM0 62L0 69L7 69L7 62ZM1 63L1 68L6 68L6 63ZM2 64L2 67L5 67L5 64Z" fill="#000000"/></g></g></svg>
