<?xml version="1.0" encoding="UTF-8"?>
<svg xmlns="http://www.w3.org/2000/svg" version="1.1" width="300" height="300" viewBox="0 0 300 300"><rect x="0" y="0" width="300" height="300" fill="#ffffff"/><g transform="scale(4.348)"><g transform="translate(0,0)"><path fill-rule="evenodd" d="M9 0L9 1L8 1L8 2L10 2L10 0ZM16 0L16 1L17 1L17 2L14 2L14 1L13 1L13 2L14 2L14 3L13 3L13 4L14 4L14 3L16 3L16 4L15 4L15 5L12 5L12 4L11 4L11 5L10 5L10 4L9 4L9 3L8 3L8 4L9 4L9 5L8 5L8 7L9 7L9 6L10 6L10 7L11 7L11 5L12 5L12 8L13 8L13 9L12 9L12 10L15 10L15 12L14 12L14 11L13 11L13 12L12 12L12 11L11 11L11 10L10 10L10 9L11 9L11 8L6 8L6 9L7 9L7 10L5 10L5 8L0 8L0 10L1 10L1 9L3 9L3 10L2 10L2 11L1 11L1 12L2 12L2 14L0 14L0 16L2 16L2 14L3 14L3 15L7 15L7 16L6 16L6 17L7 17L7 16L8 16L8 21L7 21L7 20L5 20L5 16L4 16L4 18L2 18L2 17L0 17L0 19L4 19L4 20L5 20L5 21L4 21L4 22L5 22L5 23L4 23L4 25L3 25L3 26L4 26L4 28L3 28L3 29L5 29L5 30L1 30L1 31L0 31L0 36L1 36L1 37L3 37L3 38L0 38L0 40L1 40L1 39L3 39L3 38L4 38L4 37L5 37L5 39L4 39L4 42L6 42L6 43L2 43L2 44L1 44L1 43L0 43L0 46L1 46L1 48L0 48L0 49L1 49L1 50L0 50L0 52L1 52L1 53L3 53L3 54L1 54L1 56L0 56L0 57L1 57L1 56L3 56L3 57L2 57L2 59L3 59L3 58L4 58L4 59L7 59L7 58L8 58L8 59L9 59L9 60L8 60L8 63L9 63L9 64L8 64L8 69L9 69L9 68L11 68L11 67L12 67L12 66L13 66L13 67L14 67L14 68L12 68L12 69L14 69L14 68L15 68L15 69L19 69L19 67L20 67L20 66L19 66L19 65L20 65L20 64L19 64L19 63L21 63L21 62L18 62L18 63L15 63L15 59L16 59L16 60L17 60L17 61L21 61L21 60L17 60L17 58L20 58L20 59L21 59L21 58L22 58L22 60L23 60L23 62L22 62L22 64L23 64L23 66L24 66L24 67L25 67L25 65L28 65L28 66L27 66L27 67L26 67L26 68L24 68L24 69L26 69L26 68L27 68L27 67L28 67L28 68L29 68L29 69L32 69L32 68L33 68L33 69L35 69L35 68L36 68L36 69L38 69L38 68L37 68L37 67L39 67L39 68L41 68L41 69L42 69L42 68L43 68L43 69L44 69L44 68L47 68L47 69L49 69L49 68L50 68L50 63L48 63L48 64L47 64L47 66L46 66L46 64L45 64L45 63L44 63L44 64L41 64L41 63L39 63L39 64L41 64L41 66L40 66L40 67L39 67L39 66L38 66L38 64L37 64L37 63L38 63L38 59L36 59L36 58L38 58L38 55L37 55L37 54L39 54L39 56L41 56L41 57L39 57L39 62L40 62L40 59L41 59L41 58L42 58L42 60L41 60L41 62L42 62L42 63L43 63L43 61L44 61L44 62L45 62L45 61L44 61L44 59L43 59L43 57L44 57L44 56L46 56L46 57L47 57L47 59L49 59L49 58L50 58L50 60L47 60L47 62L46 62L46 63L47 63L47 62L50 62L50 60L52 60L52 59L53 59L53 60L54 60L54 58L56 58L56 55L57 55L57 57L59 57L59 56L58 56L58 55L60 55L60 54L61 54L61 55L62 55L62 56L60 56L60 57L61 57L61 58L59 58L59 60L58 60L58 58L57 58L57 61L59 61L59 60L60 60L60 62L55 62L55 61L56 61L56 60L55 60L55 61L51 61L51 62L54 62L54 64L53 64L53 66L56 66L56 67L57 67L57 69L59 69L59 68L62 68L62 69L63 69L63 68L66 68L66 69L68 69L68 68L67 68L67 67L66 67L66 66L67 66L67 65L69 65L69 64L68 64L68 62L67 62L67 59L68 59L68 61L69 61L69 59L68 59L68 57L67 57L67 56L68 56L68 55L67 55L67 54L69 54L69 53L67 53L67 52L68 52L68 50L69 50L69 49L68 49L68 47L67 47L67 46L69 46L69 45L67 45L67 44L69 44L69 43L67 43L67 42L69 42L69 41L68 41L68 40L67 40L67 39L68 39L68 36L69 36L69 35L68 35L68 34L69 34L69 33L68 33L68 34L67 34L67 35L65 35L65 33L66 33L66 32L68 32L68 30L69 30L69 29L67 29L67 31L64 31L64 32L63 32L63 31L62 31L62 32L61 32L61 30L62 30L62 29L61 29L61 28L62 28L62 27L64 27L64 26L62 26L62 21L63 21L63 20L64 20L64 19L63 19L63 18L65 18L65 20L67 20L67 21L66 21L66 23L65 23L65 25L67 25L67 23L68 23L68 26L65 26L65 27L66 27L66 28L65 28L65 29L64 29L64 30L65 30L65 29L66 29L66 28L69 28L69 27L68 27L68 26L69 26L69 23L68 23L68 22L67 22L67 21L68 21L68 18L69 18L69 17L67 17L67 15L68 15L68 16L69 16L69 15L68 15L68 14L69 14L69 12L68 12L68 14L65 14L65 13L67 13L67 10L69 10L69 9L68 9L68 8L67 8L67 9L66 9L66 8L65 8L65 9L64 9L64 8L63 8L63 9L64 9L64 10L66 10L66 11L64 11L64 12L63 12L63 10L61 10L61 9L62 9L62 8L61 8L61 6L60 6L60 8L58 8L58 9L59 9L59 10L57 10L57 9L56 9L56 8L57 8L57 6L56 6L56 5L58 5L58 7L59 7L59 4L56 4L56 3L54 3L54 4L53 4L53 5L54 5L54 7L55 7L55 6L56 6L56 8L55 8L55 9L54 9L54 8L53 8L53 11L52 11L52 10L51 10L51 11L50 11L50 9L49 9L49 8L50 8L50 7L51 7L51 6L52 6L52 7L53 7L53 6L52 6L52 5L50 5L50 4L51 4L51 3L52 3L52 2L55 2L55 0L53 0L53 1L52 1L52 0L51 0L51 1L50 1L50 0L49 0L49 1L50 1L50 2L49 2L49 3L48 3L48 2L47 2L47 1L48 1L48 0L47 0L47 1L46 1L46 0L44 0L44 1L46 1L46 2L47 2L47 5L48 5L48 7L47 7L47 6L46 6L46 5L44 5L44 3L45 3L45 4L46 4L46 3L45 3L45 2L44 2L44 3L43 3L43 0L41 0L41 1L37 1L37 0L36 0L36 1L34 1L34 2L39 2L39 3L40 3L40 2L41 2L41 3L43 3L43 4L39 4L39 6L38 6L38 5L37 5L37 4L38 4L38 3L36 3L36 4L32 4L32 3L33 3L33 1L32 1L32 0L31 0L31 1L30 1L30 0L28 0L28 1L27 1L27 2L25 2L25 0L23 0L23 1L21 1L21 2L23 2L23 1L24 1L24 3L23 3L23 4L22 4L22 3L19 3L19 2L20 2L20 1L19 1L19 0ZM56 0L56 1L57 1L57 0ZM58 0L58 1L61 1L61 0ZM18 1L18 2L17 2L17 3L18 3L18 2L19 2L19 1ZM41 1L41 2L42 2L42 1ZM11 2L11 3L12 3L12 2ZM27 2L27 3L26 3L26 4L25 4L25 5L24 5L24 6L23 6L23 5L22 5L22 4L20 4L20 5L22 5L22 6L21 6L21 7L20 7L20 6L19 6L19 7L18 7L18 5L19 5L19 4L16 4L16 5L17 5L17 7L18 7L18 8L19 8L19 9L17 9L17 10L19 10L19 9L20 9L20 10L23 10L23 11L22 11L22 12L21 12L21 11L18 11L18 12L19 12L19 13L20 13L20 14L18 14L18 15L17 15L17 14L15 14L15 13L13 13L13 14L12 14L12 13L11 13L11 12L10 12L10 10L9 10L9 9L8 9L8 10L7 10L7 11L5 11L5 10L3 10L3 11L2 11L2 12L3 12L3 11L5 11L5 12L4 12L4 13L3 13L3 14L5 14L5 12L7 12L7 13L6 13L6 14L7 14L7 15L8 15L8 14L9 14L9 16L10 16L10 17L9 17L9 21L8 21L8 22L7 22L7 21L5 21L5 22L7 22L7 23L6 23L6 24L5 24L5 25L6 25L6 26L5 26L5 27L6 27L6 28L7 28L7 29L6 29L6 30L7 30L7 31L6 31L6 32L9 32L9 33L10 33L10 34L12 34L12 36L14 36L14 37L15 37L15 38L13 38L13 37L11 37L11 36L10 36L10 38L9 38L9 37L6 37L6 38L7 38L7 39L5 39L5 40L7 40L7 39L8 39L8 41L9 41L9 39L10 39L10 40L12 40L12 38L13 38L13 39L14 39L14 40L15 40L15 41L16 41L16 42L15 42L15 43L14 43L14 42L13 42L13 41L12 41L12 42L11 42L11 41L10 41L10 42L9 42L9 43L10 43L10 42L11 42L11 43L12 43L12 44L13 44L13 43L14 43L14 45L13 45L13 46L12 46L12 47L17 47L17 48L18 48L18 49L15 49L15 48L13 48L13 49L12 49L12 51L14 51L14 50L16 50L16 51L15 51L15 52L13 52L13 53L12 53L12 52L11 52L11 51L10 51L10 50L11 50L11 45L9 45L9 44L8 44L8 46L7 46L7 45L6 45L6 46L7 46L7 47L6 47L6 48L4 48L4 45L3 45L3 46L2 46L2 47L3 47L3 48L1 48L1 49L2 49L2 50L3 50L3 48L4 48L4 52L3 52L3 53L4 53L4 54L3 54L3 55L5 55L5 57L6 57L6 58L7 58L7 57L8 57L8 58L9 58L9 59L10 59L10 60L11 60L11 61L9 61L9 63L10 63L10 64L9 64L9 65L10 65L10 66L9 66L9 67L11 67L11 66L12 66L12 64L13 64L13 63L12 63L12 62L14 62L14 60L13 60L13 59L14 59L14 58L13 58L13 57L12 57L12 55L13 55L13 56L14 56L14 55L13 55L13 53L14 53L14 54L16 54L16 55L15 55L15 56L16 56L16 57L15 57L15 58L16 58L16 57L17 57L17 55L22 55L22 54L23 54L23 55L25 55L25 56L26 56L26 57L27 57L27 58L28 58L28 59L27 59L27 60L26 60L26 58L25 58L25 60L24 60L24 59L23 59L23 60L24 60L24 61L25 61L25 62L27 62L27 64L28 64L28 65L29 65L29 66L30 66L30 65L29 65L29 64L31 64L31 63L32 63L32 61L31 61L31 63L30 63L30 61L29 61L29 57L30 57L30 56L29 56L29 57L27 57L27 56L26 56L26 53L28 53L28 54L27 54L27 55L30 55L30 54L29 54L29 53L28 53L28 52L29 52L29 50L30 50L30 51L32 51L32 50L34 50L34 51L33 51L33 52L31 52L31 53L33 53L33 54L34 54L34 55L33 55L33 57L34 57L34 58L31 58L31 59L34 59L34 60L36 60L36 59L35 59L35 55L36 55L36 54L37 54L37 53L38 53L38 52L37 52L37 53L36 53L36 52L35 52L35 51L36 51L36 50L37 50L37 51L39 51L39 54L40 54L40 55L42 55L42 54L41 54L41 53L43 53L43 56L42 56L42 57L43 57L43 56L44 56L44 53L45 53L45 54L46 54L46 56L49 56L49 55L50 55L50 54L51 54L51 55L52 55L52 54L51 54L51 53L55 53L55 54L53 54L53 55L56 55L56 53L57 53L57 54L59 54L59 53L61 53L61 54L62 54L62 55L66 55L66 54L67 54L67 53L66 53L66 54L65 54L65 52L64 52L64 50L65 50L65 51L67 51L67 48L65 48L65 47L66 47L66 45L65 45L65 43L66 43L66 41L67 41L67 40L65 40L65 41L64 41L64 40L63 40L63 39L67 39L67 38L66 38L66 36L65 36L65 37L64 37L64 38L62 38L62 41L61 41L61 42L60 42L60 40L61 40L61 39L60 39L60 35L56 35L56 34L59 34L59 33L57 33L57 32L53 32L53 31L52 31L52 30L53 30L53 28L54 28L54 26L52 26L52 28L51 28L51 27L50 27L50 28L51 28L51 29L50 29L50 31L49 31L49 32L51 32L51 33L50 33L50 34L49 34L49 33L45 33L45 32L44 32L44 31L45 31L45 30L47 30L47 28L49 28L49 27L48 27L48 26L49 26L49 25L50 25L50 26L51 26L51 25L53 25L53 23L55 23L55 22L56 22L56 25L55 25L55 24L54 24L54 25L55 25L55 28L56 28L56 29L55 29L55 31L56 31L56 29L57 29L57 30L59 30L59 31L60 31L60 30L59 30L59 28L57 28L57 27L56 27L56 25L57 25L57 26L59 26L59 27L61 27L61 26L59 26L59 25L60 25L60 23L61 23L61 22L60 22L60 21L62 21L62 20L63 20L63 19L62 19L62 18L63 18L63 17L66 17L66 16L65 16L65 14L64 14L64 16L62 16L62 15L63 15L63 13L62 13L62 15L61 15L61 14L59 14L59 13L61 13L61 12L58 12L58 13L57 13L57 12L56 12L56 9L55 9L55 12L51 12L51 13L50 13L50 12L49 12L49 10L47 10L47 7L46 7L46 6L45 6L45 7L44 7L44 5L43 5L43 7L42 7L42 6L41 6L41 8L40 8L40 6L39 6L39 7L38 7L38 6L37 6L37 8L38 8L38 10L36 10L36 9L35 9L35 10L32 10L32 8L31 8L31 7L32 7L32 5L31 5L31 4L29 4L29 3L30 3L30 2L29 2L29 3L28 3L28 2ZM31 2L31 3L32 3L32 2ZM57 2L57 3L59 3L59 2ZM60 3L60 5L61 5L61 3ZM26 4L26 5L27 5L27 4ZM48 4L48 5L49 5L49 4ZM28 5L28 7L29 7L29 6L30 6L30 7L31 7L31 6L30 6L30 5ZM33 5L33 8L36 8L36 5ZM13 6L13 8L14 8L14 6ZM15 6L15 9L16 9L16 6ZM22 6L22 7L23 7L23 8L24 8L24 9L23 9L23 10L24 10L24 9L25 9L25 10L26 10L26 7L27 7L27 6L26 6L26 7L25 7L25 6L24 6L24 7L23 7L23 6ZM34 6L34 7L35 7L35 6ZM49 6L49 7L50 7L50 6ZM19 7L19 8L20 8L20 9L22 9L22 8L20 8L20 7ZM45 7L45 9L44 9L44 8L43 8L43 9L40 9L40 8L39 8L39 10L40 10L40 11L37 11L37 12L40 12L40 13L39 13L39 14L37 14L37 13L36 13L36 12L34 12L34 11L33 11L33 12L34 12L34 13L33 13L33 14L34 14L34 13L36 13L36 14L35 14L35 19L37 19L37 20L34 20L34 19L33 19L33 17L32 17L32 15L31 15L31 14L30 14L30 13L32 13L32 12L30 12L30 13L29 13L29 15L28 15L28 14L27 14L27 13L26 13L26 12L27 12L27 11L26 11L26 12L24 12L24 11L23 11L23 14L22 14L22 13L21 13L21 12L20 12L20 13L21 13L21 15L23 15L23 14L25 14L25 13L26 13L26 14L27 14L27 15L28 15L28 16L29 16L29 20L30 20L30 21L29 21L29 22L27 22L27 21L28 21L28 19L27 19L27 18L28 18L28 17L27 17L27 18L26 18L26 17L25 17L25 16L26 16L26 15L25 15L25 16L23 16L23 17L22 17L22 16L21 16L21 17L18 17L18 16L17 16L17 15L16 15L16 16L17 16L17 17L16 17L16 18L15 18L15 17L14 17L14 18L13 18L13 19L16 19L16 20L17 20L17 21L18 21L18 22L20 22L20 24L17 24L17 25L16 25L16 23L17 23L17 22L15 22L15 21L14 21L14 20L12 20L12 19L11 19L11 21L10 21L10 22L11 22L11 23L12 23L12 25L11 25L11 24L10 24L10 23L8 23L8 27L7 27L7 26L6 26L6 27L7 27L7 28L9 28L9 29L8 29L8 30L9 30L9 29L12 29L12 28L11 28L11 26L12 26L12 27L13 27L13 28L14 28L14 27L13 27L13 26L12 26L12 25L16 25L16 26L15 26L15 27L16 27L16 28L17 28L17 30L18 30L18 31L17 31L17 32L15 32L15 31L16 31L16 30L15 30L15 31L14 31L14 30L12 30L12 31L13 31L13 32L11 32L11 31L10 31L10 32L11 32L11 33L12 33L12 34L15 34L15 35L14 35L14 36L15 36L15 37L16 37L16 36L17 36L17 39L16 39L16 38L15 38L15 40L17 40L17 41L18 41L18 42L17 42L17 47L18 47L18 46L19 46L19 47L20 47L20 48L23 48L23 50L24 50L24 51L22 51L22 52L24 52L24 53L23 53L23 54L25 54L25 53L26 53L26 52L28 52L28 51L26 51L26 49L25 49L25 48L26 48L26 47L25 47L25 45L26 45L26 46L27 46L27 45L28 45L28 43L31 43L31 44L29 44L29 46L28 46L28 47L29 47L29 46L31 46L31 45L33 45L33 44L32 44L32 43L31 43L31 41L30 41L30 40L28 40L28 38L27 38L27 37L26 37L26 36L27 36L27 35L28 35L28 36L29 36L29 37L30 37L30 38L29 38L29 39L30 39L30 38L33 38L33 39L34 39L34 37L35 37L35 40L36 40L36 41L34 41L34 42L35 42L35 43L36 43L36 45L37 45L37 46L36 46L36 47L35 47L35 45L34 45L34 46L32 46L32 47L35 47L35 48L36 48L36 47L37 47L37 48L38 48L38 45L39 45L39 46L40 46L40 47L39 47L39 48L40 48L40 47L41 47L41 48L42 48L42 49L41 49L41 50L39 50L39 51L40 51L40 52L41 52L41 50L42 50L42 52L43 52L43 53L44 53L44 52L45 52L45 53L49 53L49 54L50 54L50 53L49 53L49 51L51 51L51 50L50 50L50 49L52 49L52 48L53 48L53 47L52 47L52 48L50 48L50 49L49 49L49 47L48 47L48 48L47 48L47 49L49 49L49 50L47 50L47 51L46 51L46 52L45 52L45 49L46 49L46 47L45 47L45 49L44 49L44 46L43 46L43 45L44 45L44 43L45 43L45 42L44 42L44 40L41 40L41 39L45 39L45 40L47 40L47 42L46 42L46 44L47 44L47 46L50 46L50 47L51 47L51 46L50 46L50 45L51 45L51 44L52 44L52 43L53 43L53 46L55 46L55 47L54 47L54 49L53 49L53 50L52 50L52 51L53 51L53 52L54 52L54 51L53 51L53 50L57 50L57 52L58 52L58 51L59 51L59 52L60 52L60 50L61 50L61 52L63 52L63 53L62 53L62 54L63 54L63 53L64 53L64 52L63 52L63 51L62 51L62 49L64 49L64 48L62 48L62 45L63 45L63 44L64 44L64 43L63 43L63 44L62 44L62 45L60 45L60 46L61 46L61 49L60 49L60 50L57 50L57 49L58 49L58 48L59 48L59 47L58 47L58 48L57 48L57 45L56 45L56 44L57 44L57 42L58 42L58 44L59 44L59 43L60 43L60 42L58 42L58 40L60 40L60 39L58 39L58 40L57 40L57 39L56 39L56 40L55 40L55 37L56 37L56 38L57 38L57 37L59 37L59 36L57 36L57 37L56 37L56 35L55 35L55 36L54 36L54 34L55 34L55 33L54 33L54 34L53 34L53 33L51 33L51 36L50 36L50 37L51 37L51 36L52 36L52 34L53 34L53 37L52 37L52 38L54 38L54 39L53 39L53 40L54 40L54 41L53 41L53 42L52 42L52 41L51 41L51 42L52 42L52 43L50 43L50 45L49 45L49 44L48 44L48 42L50 42L50 41L49 41L49 40L47 40L47 38L48 38L48 39L51 39L51 40L52 40L52 39L51 39L51 38L49 38L49 36L48 36L48 35L49 35L49 34L48 34L48 35L47 35L47 36L45 36L45 33L44 33L44 32L43 32L43 31L44 31L44 30L45 30L45 29L44 29L44 27L46 27L46 26L43 26L43 25L44 25L44 24L43 24L43 22L44 22L44 23L45 23L45 24L46 24L46 25L47 25L47 26L48 26L48 25L49 25L49 24L50 24L50 25L51 25L51 24L50 24L50 21L52 21L52 20L53 20L53 22L55 22L55 21L56 21L56 22L57 22L57 21L60 21L60 20L58 20L58 19L57 19L57 21L56 21L56 20L54 20L54 19L56 19L56 16L57 16L57 13L56 13L56 12L55 12L55 13L53 13L53 14L52 14L52 13L51 13L51 15L52 15L52 16L55 16L55 17L53 17L53 18L54 18L54 19L52 19L52 20L50 20L50 19L51 19L51 18L48 18L48 19L49 19L49 20L46 20L46 21L49 21L49 22L48 22L48 23L47 23L47 24L46 24L46 22L44 22L44 20L43 20L43 17L44 17L44 16L45 16L45 15L44 15L44 12L45 12L45 13L47 13L47 14L49 14L49 15L50 15L50 13L49 13L49 12L45 12L45 11L43 11L43 13L42 13L42 14L41 14L41 12L42 12L42 10L45 10L45 9L46 9L46 7ZM28 8L28 9L27 9L27 10L28 10L28 9L30 9L30 10L31 10L31 11L32 11L32 10L31 10L31 9L30 9L30 8ZM8 10L8 11L7 11L7 12L8 12L8 11L9 11L9 10ZM35 10L35 11L36 11L36 10ZM59 10L59 11L61 11L61 10ZM40 11L40 12L41 12L41 11ZM9 12L9 13L10 13L10 16L11 16L11 17L13 17L13 15L12 15L12 16L11 16L11 13L10 13L10 12ZM16 12L16 13L17 13L17 12ZM64 12L64 13L65 13L65 12ZM55 13L55 14L53 14L53 15L55 15L55 16L56 16L56 15L55 15L55 14L56 14L56 13ZM14 14L14 16L15 16L15 14ZM39 14L39 15L37 15L37 16L36 16L36 17L37 17L37 16L38 16L38 18L37 18L37 19L39 19L39 18L41 18L41 17L42 17L42 16L44 16L44 15L43 15L43 14L42 14L42 15L40 15L40 14ZM19 15L19 16L20 16L20 15ZM30 15L30 16L31 16L31 15ZM33 15L33 16L34 16L34 15ZM39 15L39 16L40 16L40 15ZM59 15L59 19L61 19L61 18L62 18L62 16L61 16L61 15ZM47 16L47 17L51 17L51 16ZM17 17L17 18L16 18L16 19L17 19L17 20L18 20L18 19L17 19L17 18L18 18L18 17ZM21 17L21 18L22 18L22 20L21 20L21 21L20 21L20 20L19 20L19 21L20 21L20 22L21 22L21 23L22 23L22 22L23 22L23 24L26 24L26 26L25 26L25 28L24 28L24 27L22 27L22 26L24 26L24 25L22 25L22 24L20 24L20 26L18 26L18 25L17 25L17 27L19 27L19 28L20 28L20 30L19 30L19 32L20 32L20 33L19 33L19 34L18 34L18 36L19 36L19 37L20 37L20 38L18 38L18 39L17 39L17 40L19 40L19 39L20 39L20 38L22 38L22 39L21 39L21 40L20 40L20 42L22 42L22 44L21 44L21 43L20 43L20 44L21 44L21 45L20 45L20 47L22 47L22 46L23 46L23 45L24 45L24 44L25 44L25 43L26 43L26 45L27 45L27 43L28 43L28 42L30 42L30 41L27 41L27 40L26 40L26 42L25 42L25 41L24 41L24 40L23 40L23 39L25 39L25 38L23 38L23 36L22 36L22 34L23 34L23 35L26 35L26 34L28 34L28 33L29 33L29 36L31 36L31 37L32 37L32 34L31 34L31 35L30 35L30 33L29 33L29 32L28 32L28 31L27 31L27 32L28 32L28 33L25 33L25 34L23 34L23 30L22 30L22 29L23 29L23 28L24 28L24 29L25 29L25 28L26 28L26 30L29 30L29 28L31 28L31 29L32 29L32 28L31 28L31 27L33 27L33 30L31 30L31 31L32 31L32 32L34 32L34 31L33 31L33 30L34 30L34 29L35 29L35 30L37 30L37 31L35 31L35 32L37 32L37 31L39 31L39 30L40 30L40 31L43 31L43 30L42 30L42 27L37 27L37 29L36 29L36 28L35 28L35 27L36 27L36 26L35 26L35 25L36 25L36 24L38 24L38 26L41 26L41 25L42 25L42 24L41 24L41 22L40 22L40 24L39 24L39 22L37 22L37 21L38 21L38 20L37 20L37 21L34 21L34 20L33 20L33 19L32 19L32 18L31 18L31 19L30 19L30 20L31 20L31 19L32 19L32 21L33 21L33 22L31 22L31 21L30 21L30 22L29 22L29 23L30 23L30 22L31 22L31 23L32 23L32 24L31 24L31 25L32 25L32 26L31 26L31 27L30 27L30 26L29 26L29 25L30 25L30 24L26 24L26 21L27 21L27 20L26 20L26 19L25 19L25 18L22 18L22 17ZM6 18L6 19L7 19L7 18ZM19 18L19 19L20 19L20 18ZM44 18L44 19L46 19L46 18ZM24 19L24 20L23 20L23 22L25 22L25 21L26 21L26 20L25 20L25 19ZM40 19L40 20L39 20L39 21L42 21L42 20L41 20L41 19ZM49 20L49 21L50 21L50 20ZM0 21L0 24L2 24L2 23L3 23L3 21L2 21L2 22L1 22L1 21ZM11 21L11 22L13 22L13 24L15 24L15 22L14 22L14 21ZM21 21L21 22L22 22L22 21ZM34 22L34 23L35 23L35 24L36 24L36 23L37 23L37 22ZM58 22L58 24L57 24L57 25L59 25L59 23L60 23L60 22ZM63 22L63 23L64 23L64 22ZM48 23L48 24L47 24L47 25L48 25L48 24L49 24L49 23ZM6 24L6 25L7 25L7 24ZM32 24L32 25L33 25L33 27L35 27L35 26L34 26L34 24ZM0 25L0 26L1 26L1 27L0 27L0 29L2 29L2 28L1 28L1 27L2 27L2 25ZM9 25L9 27L10 27L10 25ZM21 25L21 26L20 26L20 27L21 27L21 26L22 26L22 25ZM26 26L26 28L27 28L27 29L28 29L28 28L29 28L29 26ZM27 27L27 28L28 28L28 27ZM21 28L21 29L22 29L22 28ZM38 28L38 29L37 29L37 30L38 30L38 29L40 29L40 28ZM48 29L48 30L49 30L49 29ZM21 30L21 31L20 31L20 32L22 32L22 30ZM1 31L1 32L3 32L3 31ZM4 31L4 32L5 32L5 31ZM24 31L24 32L26 32L26 31ZM46 31L46 32L47 32L47 31ZM51 31L51 32L52 32L52 31ZM13 32L13 33L15 33L15 34L16 34L16 35L15 35L15 36L16 36L16 35L17 35L17 33L18 33L18 32L17 32L17 33L15 33L15 32ZM39 32L39 33L38 33L38 34L37 34L37 36L38 36L38 37L36 37L36 38L38 38L38 39L37 39L37 40L38 40L38 44L37 44L37 45L38 45L38 44L39 44L39 45L40 45L40 44L41 44L41 43L40 43L40 41L41 41L41 40L38 40L38 39L39 39L39 37L42 37L42 36L44 36L44 37L45 37L45 38L47 38L47 37L48 37L48 36L47 36L47 37L45 37L45 36L44 36L44 33L43 33L43 32ZM1 33L1 34L3 34L3 35L1 35L1 36L3 36L3 35L4 35L4 33ZM5 33L5 36L8 36L8 33ZM21 33L21 34L22 34L22 33ZM33 33L33 36L36 36L36 33ZM40 33L40 35L41 35L41 34L43 34L43 33ZM61 33L61 36L64 36L64 33ZM6 34L6 35L7 35L7 34ZM19 34L19 35L20 35L20 34ZM34 34L34 35L35 35L35 34ZM62 34L62 35L63 35L63 34ZM67 35L67 36L68 36L68 35ZM20 36L20 37L21 37L21 36ZM24 36L24 37L25 37L25 36ZM8 38L8 39L9 39L9 38ZM10 38L10 39L11 39L11 38ZM26 38L26 39L27 39L27 38ZM31 39L31 40L32 40L32 42L33 42L33 40L32 40L32 39ZM2 40L2 41L0 41L0 42L3 42L3 40ZM21 40L21 41L22 41L22 40ZM56 40L56 42L53 42L53 43L55 43L55 44L54 44L54 45L55 45L55 46L56 46L56 45L55 45L55 44L56 44L56 42L57 42L57 40ZM6 41L6 42L7 42L7 43L6 43L6 44L7 44L7 43L8 43L8 42L7 42L7 41ZM23 41L23 42L24 42L24 41ZM62 41L62 42L61 42L61 43L62 43L62 42L64 42L64 41ZM12 42L12 43L13 43L13 42ZM26 42L26 43L27 43L27 42ZM36 42L36 43L37 43L37 42ZM43 42L43 43L44 43L44 42ZM15 43L15 44L16 44L16 43ZM18 43L18 44L19 44L19 43ZM23 43L23 44L24 44L24 43ZM39 43L39 44L40 44L40 43ZM21 45L21 46L22 46L22 45ZM41 45L41 46L42 46L42 48L43 48L43 46L42 46L42 45ZM8 46L8 47L10 47L10 46ZM63 46L63 47L64 47L64 46ZM23 47L23 48L25 48L25 47ZM30 47L30 48L29 48L29 49L30 49L30 50L32 50L32 49L33 49L33 48L32 48L32 49L31 49L31 47ZM55 47L55 48L56 48L56 49L57 49L57 48L56 48L56 47ZM6 48L6 49L5 49L5 51L7 51L7 52L4 52L4 53L5 53L5 54L6 54L6 55L7 55L7 56L6 56L6 57L7 57L7 56L9 56L9 58L12 58L12 59L11 59L11 60L12 60L12 61L11 61L11 62L12 62L12 61L13 61L13 60L12 60L12 59L13 59L13 58L12 58L12 57L11 57L11 56L9 56L9 54L10 54L10 55L11 55L11 54L10 54L10 53L9 53L9 52L10 52L10 51L9 51L9 50L10 50L10 49L8 49L8 48ZM6 49L6 50L7 50L7 49ZM18 49L18 51L19 51L19 52L18 52L18 53L17 53L17 54L18 54L18 53L19 53L19 54L20 54L20 53L19 53L19 52L21 52L21 50L22 50L22 49ZM27 49L27 50L28 50L28 49ZM34 49L34 50L36 50L36 49ZM37 49L37 50L38 50L38 49ZM43 49L43 50L44 50L44 49ZM65 49L65 50L66 50L66 49ZM19 50L19 51L20 51L20 50ZM25 51L25 52L26 52L26 51ZM43 51L43 52L44 52L44 51ZM55 51L55 53L56 53L56 51ZM15 52L15 53L16 53L16 52ZM33 52L33 53L34 53L34 52ZM6 53L6 54L7 54L7 55L8 55L8 54L7 54L7 53ZM21 53L21 54L22 54L22 53ZM31 54L31 56L32 56L32 54ZM20 56L20 58L21 58L21 57L22 57L22 58L24 58L24 57L22 57L22 56ZM50 56L50 58L51 58L51 59L52 59L52 58L51 58L51 57L53 57L53 58L54 58L54 57L55 57L55 56L54 56L54 57L53 57L53 56ZM62 56L62 59L60 59L60 60L62 60L62 59L63 59L63 60L65 60L65 61L66 61L66 60L65 60L65 59L67 59L67 57L66 57L66 56ZM0 58L0 61L1 61L1 58ZM45 58L45 60L46 60L46 58ZM64 58L64 59L65 59L65 58ZM3 60L3 61L5 61L5 60ZM6 60L6 61L7 61L7 60ZM25 60L25 61L26 61L26 60ZM27 60L27 61L28 61L28 60ZM42 60L42 61L43 61L43 60ZM33 61L33 64L36 64L36 61ZM61 61L61 64L64 64L64 61ZM34 62L34 63L35 63L35 62ZM62 62L62 63L63 63L63 62ZM65 62L65 63L66 63L66 62ZM23 63L23 64L26 64L26 63ZM28 63L28 64L29 64L29 63ZM51 63L51 64L52 64L52 63ZM59 63L59 64L58 64L58 65L57 65L57 64L55 64L55 65L57 65L57 67L59 67L59 64L60 64L60 63ZM15 64L15 65L13 65L13 66L17 66L17 67L16 67L16 68L17 68L17 67L18 67L18 66L17 66L17 65L18 65L18 64ZM44 64L44 66L41 66L41 68L42 68L42 67L43 67L43 68L44 68L44 66L45 66L45 67L46 67L46 66L45 66L45 64ZM65 64L65 66L64 66L64 65L63 65L63 67L62 67L62 65L61 65L61 67L62 67L62 68L63 68L63 67L65 67L65 66L66 66L66 65L67 65L67 64ZM31 65L31 66L32 66L32 65ZM33 65L33 66L35 66L35 67L36 67L36 66L37 66L37 65L36 65L36 66L35 66L35 65ZM51 65L51 66L52 66L52 65ZM48 66L48 67L47 67L47 68L49 68L49 66ZM21 67L21 68L20 68L20 69L21 69L21 68L23 68L23 67ZM29 67L29 68L30 68L30 67ZM31 67L31 68L32 68L32 67ZM51 67L51 68L52 68L52 67ZM55 68L55 69L56 69L56 68ZM0 0L0 7L7 7L7 0ZM1 1L1 6L6 6L6 1ZM2 2L2 5L5 5L5 2ZM62 0L62 7L69 7L69 0ZM63 1L63 6L68 6L68 1ZM64 2L64 5L67 5L67 2ZM0 62L0 69L7 69L7 62ZM1 63L1 68L6 68L6 63ZM2 64L2 67L5 67L5 64Z" fill="#000000"/></g></g></svg>
