<?xml version="1.0" encoding="UTF-8"?>
<svg xmlns="http://www.w3.org/2000/svg" version="1.1" width="300" height="300" viewBox="0 0 300 300"><rect x="0" y="0" width="300" height="300" fill="#ffffff"/><g transform="scale(4.348)"><g transform="translate(0,0)"><path fill-rule="evenodd" d="M13 0L13 1L10 1L10 3L8 3L8 4L9 4L9 5L8 5L8 7L9 7L9 6L10 6L10 8L11 8L11 9L10 9L10 10L9 10L9 8L6 8L6 9L5 9L5 8L0 8L0 11L3 11L3 14L2 14L2 16L3 16L3 18L2 18L2 17L1 17L1 16L0 16L0 17L1 17L1 18L0 18L0 19L1 19L1 20L0 20L0 24L1 24L1 25L3 25L3 26L5 26L5 28L6 28L6 29L7 29L7 30L6 30L6 31L5 31L5 29L3 29L3 28L4 28L4 27L3 27L3 28L2 28L2 26L0 26L0 27L1 27L1 29L0 29L0 30L2 30L2 29L3 29L3 32L4 32L4 33L3 33L3 34L0 34L0 37L1 37L1 38L0 38L0 39L2 39L2 40L1 40L1 41L4 41L4 44L3 44L3 43L2 43L2 42L1 42L1 43L0 43L0 51L1 51L1 56L2 56L2 57L0 57L0 61L1 61L1 58L2 58L2 59L3 59L3 58L2 58L2 57L4 57L4 56L5 56L5 58L4 58L4 59L8 59L8 60L9 60L9 61L8 61L8 63L9 63L9 64L8 64L8 69L10 69L10 68L11 68L11 67L9 67L9 65L10 65L10 62L13 62L13 64L14 64L14 65L13 65L13 66L12 66L12 68L14 68L14 66L15 66L15 67L16 67L16 66L15 66L15 65L17 65L17 67L18 67L18 66L19 66L19 67L20 67L20 66L19 66L19 65L20 65L20 63L21 63L21 64L22 64L22 63L23 63L23 64L25 64L25 65L21 65L21 66L25 66L25 67L23 67L23 69L24 69L24 68L25 68L25 67L26 67L26 66L25 66L25 65L28 65L28 66L27 66L27 67L28 67L28 68L27 68L27 69L28 69L28 68L29 68L29 69L32 69L32 68L31 68L31 67L33 67L33 66L34 66L34 67L35 67L35 68L34 68L34 69L35 69L35 68L36 68L36 69L38 69L38 68L37 68L37 67L39 67L39 68L40 68L40 67L41 67L41 66L44 66L44 68L43 68L43 69L44 69L44 68L48 68L48 69L50 69L50 65L51 65L51 68L52 68L52 67L53 67L53 68L54 68L54 69L56 69L56 68L54 68L54 66L55 66L55 65L56 65L56 66L58 66L58 67L57 67L57 68L58 68L58 69L59 69L59 68L62 68L62 69L68 69L68 68L67 68L67 65L68 65L68 62L69 62L69 61L68 61L68 58L69 58L69 55L68 55L68 54L69 54L69 53L68 53L68 54L67 54L67 53L66 53L66 52L68 52L68 50L69 50L69 48L68 48L68 47L67 47L67 46L69 46L69 45L67 45L67 44L68 44L68 41L69 41L69 40L68 40L68 36L69 36L69 35L68 35L68 34L69 34L69 33L68 33L68 29L69 29L69 28L68 28L68 29L67 29L67 31L65 31L65 30L64 30L64 32L63 32L63 31L62 31L62 29L61 29L61 28L62 28L62 25L61 25L61 24L65 24L65 25L66 25L66 26L65 26L65 27L66 27L66 28L65 28L65 29L66 29L66 28L67 28L67 27L68 27L68 26L69 26L69 24L68 24L68 22L69 22L69 21L68 21L68 18L69 18L69 17L67 17L67 15L68 15L68 14L69 14L69 13L68 13L68 12L69 12L69 11L65 11L65 9L66 9L66 8L65 8L65 9L64 9L64 8L63 8L63 9L64 9L64 10L62 10L62 8L61 8L61 9L60 9L60 8L59 8L59 9L60 9L60 10L58 10L58 9L57 9L57 10L58 10L58 11L61 11L61 10L62 10L62 13L60 13L60 12L58 12L58 13L59 13L59 15L60 15L60 16L59 16L59 19L58 19L58 20L57 20L57 19L56 19L56 18L57 18L57 17L56 17L56 15L57 15L57 16L58 16L58 14L56 14L56 12L57 12L57 11L55 11L55 10L56 10L56 8L57 8L57 6L58 6L58 7L59 7L59 4L58 4L58 5L57 5L57 6L56 6L56 7L55 7L55 4L56 4L56 3L55 3L55 2L56 2L56 1L57 1L57 3L59 3L59 2L58 2L58 1L61 1L61 0L58 0L58 1L57 1L57 0L51 0L51 2L49 2L49 1L50 1L50 0L49 0L49 1L48 1L48 0L47 0L47 1L45 1L45 0L44 0L44 1L45 1L45 2L44 2L44 3L43 3L43 4L39 4L39 6L38 6L38 5L37 5L37 4L38 4L38 3L37 3L37 2L39 2L39 3L41 3L41 1L42 1L42 2L43 2L43 0L41 0L41 1L37 1L37 0L36 0L36 1L35 1L35 0L34 0L34 1L32 1L32 0L31 0L31 1L30 1L30 0L28 0L28 1L25 1L25 0L23 0L23 2L28 2L28 3L27 3L27 4L22 4L22 3L19 3L19 2L20 2L20 1L19 1L19 0L16 0L16 1L15 1L15 4L11 4L11 3L12 3L12 2L13 2L13 3L14 3L14 2L13 2L13 1L14 1L14 0ZM8 1L8 2L9 2L9 1ZM34 1L34 2L33 2L33 3L34 3L34 4L35 4L35 3L36 3L36 2L35 2L35 1ZM47 1L47 2L45 2L45 3L44 3L44 5L41 5L41 8L40 8L40 6L39 6L39 7L38 7L38 6L37 6L37 9L38 9L38 10L36 10L36 9L33 9L33 10L32 10L32 9L31 9L31 7L32 7L32 5L30 5L30 6L29 6L29 7L28 7L28 5L29 5L29 3L30 3L30 2L29 2L29 3L28 3L28 4L27 4L27 5L26 5L26 6L25 6L25 5L22 5L22 4L19 4L19 5L16 5L16 6L15 6L15 5L11 5L11 8L12 8L12 10L11 10L11 11L12 11L12 10L15 10L15 9L17 9L17 10L16 10L16 11L18 11L18 12L19 12L19 11L18 11L18 9L17 9L17 8L19 8L19 7L20 7L20 6L21 6L21 8L20 8L20 10L21 10L21 11L20 11L20 14L18 14L18 13L17 13L17 12L14 12L14 11L13 11L13 12L12 12L12 13L13 13L13 15L14 15L14 13L17 13L17 14L18 14L18 15L16 15L16 14L15 14L15 15L16 15L16 16L18 16L18 17L17 17L17 20L19 20L19 21L18 21L18 22L19 22L19 21L20 21L20 23L22 23L22 22L23 22L23 21L24 21L24 20L23 20L23 19L25 19L25 20L26 20L26 21L25 21L25 22L26 22L26 23L25 23L25 24L26 24L26 27L27 27L27 28L26 28L26 30L29 30L29 31L31 31L31 30L29 30L29 28L30 28L30 27L28 27L28 26L29 26L29 25L30 25L30 24L28 24L28 23L30 23L30 22L31 22L31 23L32 23L32 24L31 24L31 27L33 27L33 28L34 28L34 29L33 29L33 30L32 30L32 32L34 32L34 31L33 31L33 30L34 30L34 29L35 29L35 30L36 30L36 28L35 28L35 27L36 27L36 26L33 26L33 25L32 25L32 24L34 24L34 25L37 25L37 26L41 26L41 25L42 25L42 24L41 24L41 22L40 22L40 23L39 23L39 22L37 22L37 23L36 23L36 24L35 24L35 23L33 23L33 22L34 22L34 21L33 21L33 20L37 20L37 21L38 21L38 20L37 20L37 19L39 19L39 18L41 18L41 17L42 17L42 16L44 16L44 17L43 17L43 20L42 20L42 19L41 19L41 20L39 20L39 21L43 21L43 20L44 20L44 22L42 22L42 23L43 23L43 24L44 24L44 25L43 25L43 26L46 26L46 28L49 28L49 27L48 27L48 26L49 26L49 25L50 25L50 26L51 26L51 25L53 25L53 24L54 24L54 25L55 25L55 26L52 26L52 28L51 28L51 27L50 27L50 28L51 28L51 29L50 29L50 31L49 31L49 32L50 32L50 31L51 31L51 29L55 29L55 30L52 30L52 32L51 32L51 33L49 33L49 34L52 34L52 36L51 36L51 35L47 35L47 33L45 33L45 32L46 32L46 31L47 31L47 29L45 29L45 27L43 27L43 28L44 28L44 31L43 31L43 30L42 30L42 27L39 27L39 28L38 28L38 27L37 27L37 29L38 29L38 30L37 30L37 31L35 31L35 32L37 32L37 31L39 31L39 30L40 30L40 31L43 31L43 32L39 32L39 33L38 33L38 34L37 34L37 36L38 36L38 37L34 37L34 39L32 39L32 37L31 37L31 38L30 38L30 37L29 37L29 36L32 36L32 35L31 35L31 33L29 33L29 32L28 32L28 31L27 31L27 32L28 32L28 33L25 33L25 34L23 34L23 33L24 33L24 32L26 32L26 31L24 31L24 32L20 32L20 30L21 30L21 29L23 29L23 28L24 28L24 27L23 27L23 26L24 26L24 25L22 25L22 24L20 24L20 26L19 26L19 25L18 25L18 24L19 24L19 23L18 23L18 24L17 24L17 23L16 23L16 21L15 21L15 20L16 20L16 19L14 19L14 21L13 21L13 20L10 20L10 18L9 18L9 20L8 20L8 21L11 21L11 22L12 22L12 24L14 24L14 23L13 23L13 22L14 22L14 21L15 21L15 23L16 23L16 25L14 25L14 26L13 26L13 27L14 27L14 26L16 26L16 25L18 25L18 27L20 27L20 30L19 30L19 32L20 32L20 33L19 33L19 34L17 34L17 33L18 33L18 32L17 32L17 31L18 31L18 29L17 29L17 28L16 28L16 27L15 27L15 28L16 28L16 29L8 29L8 28L7 28L7 27L6 27L6 28L7 28L7 29L8 29L8 30L13 30L13 31L14 31L14 30L15 30L15 32L13 32L13 33L9 33L9 36L10 36L10 38L9 38L9 37L6 37L6 38L3 38L3 36L2 36L2 39L3 39L3 40L4 40L4 41L5 41L5 42L7 42L7 43L6 43L6 44L8 44L8 48L7 48L7 47L6 47L6 46L7 46L7 45L6 45L6 46L5 46L5 44L4 44L4 45L3 45L3 44L2 44L2 43L1 43L1 45L3 45L3 46L1 46L1 49L2 49L2 50L1 50L1 51L2 51L2 53L3 53L3 54L4 54L4 53L5 53L5 56L7 56L7 57L6 57L6 58L7 58L7 57L8 57L8 59L10 59L10 61L9 61L9 62L10 62L10 61L12 61L12 60L14 60L14 59L12 59L12 58L13 58L13 56L15 56L15 54L19 54L19 53L20 53L20 55L19 55L19 57L20 57L20 58L19 58L19 59L18 59L18 58L17 58L17 60L16 60L16 59L15 59L15 60L16 60L16 61L13 61L13 62L14 62L14 63L18 63L18 62L19 62L19 61L20 61L20 62L21 62L21 61L22 61L22 62L23 62L23 63L25 63L25 64L26 64L26 63L25 63L25 62L27 62L27 63L28 63L28 65L29 65L29 66L30 66L30 67L31 67L31 66L32 66L32 65L31 65L31 66L30 66L30 65L29 65L29 64L30 64L30 63L28 63L28 62L29 62L29 60L30 60L30 59L28 59L28 61L27 61L27 60L26 60L26 61L25 61L25 60L24 60L24 59L23 59L23 58L24 58L24 57L22 57L22 56L21 56L21 57L20 57L20 55L22 55L22 54L21 54L21 53L24 53L24 51L25 51L25 52L26 52L26 55L25 55L25 54L24 54L24 55L23 55L23 56L24 56L24 55L25 55L25 56L26 56L26 59L27 59L27 58L29 58L29 57L30 57L30 56L29 56L29 55L30 55L30 54L31 54L31 55L33 55L33 54L34 54L34 56L33 56L33 58L35 58L35 55L37 55L37 56L36 56L36 57L37 57L37 58L36 58L36 59L35 59L35 60L36 60L36 59L37 59L37 58L39 58L39 57L41 57L41 56L39 56L39 55L40 55L40 53L43 53L43 54L41 54L41 55L43 55L43 56L42 56L42 57L43 57L43 59L44 59L44 61L45 61L45 62L47 62L47 63L45 63L45 64L44 64L44 62L43 62L43 63L42 63L42 62L41 62L41 60L42 60L42 61L43 61L43 60L42 60L42 58L41 58L41 59L40 59L40 62L39 62L39 61L38 61L38 60L37 60L37 61L38 61L38 63L37 63L37 64L38 64L38 65L34 65L34 66L35 66L35 67L36 67L36 66L39 66L39 67L40 67L40 66L41 66L41 64L44 64L44 66L45 66L45 67L46 67L46 66L48 66L48 68L49 68L49 66L48 66L48 65L47 65L47 63L50 63L50 64L49 64L49 65L50 65L50 64L51 64L51 65L53 65L53 66L54 66L54 64L53 64L53 63L54 63L54 62L53 62L53 63L52 63L52 62L51 62L51 61L54 61L54 59L53 59L53 57L55 57L55 58L56 58L56 61L55 61L55 64L56 64L56 65L57 65L57 63L58 63L58 66L59 66L59 65L60 65L60 64L59 64L59 63L58 63L58 62L59 62L59 61L60 61L60 60L65 60L65 61L66 61L66 60L65 60L65 59L64 59L64 58L65 58L65 57L66 57L66 58L68 58L68 55L67 55L67 57L66 57L66 56L64 56L64 57L63 57L63 56L62 56L62 57L63 57L63 58L62 58L62 59L61 59L61 54L62 54L62 55L65 55L65 54L66 54L66 53L65 53L65 52L66 52L66 51L65 51L65 49L67 49L67 48L65 48L65 47L66 47L66 44L65 44L65 45L63 45L63 44L64 44L64 43L63 43L63 42L66 42L66 41L68 41L68 40L66 40L66 39L65 39L65 37L64 37L64 38L62 38L62 37L60 37L60 35L59 35L59 33L57 33L57 32L62 32L62 31L61 31L61 30L59 30L59 29L60 29L60 28L59 28L59 29L57 29L57 28L58 28L58 27L59 27L59 24L60 24L60 23L62 23L62 22L63 22L63 21L64 21L64 22L65 22L65 23L66 23L66 22L65 22L65 21L66 21L66 20L65 20L65 18L66 18L66 19L67 19L67 18L66 18L66 16L65 16L65 15L64 15L64 16L62 16L62 15L63 15L63 13L62 13L62 15L61 15L61 16L62 16L62 18L61 18L61 19L59 19L59 20L58 20L58 21L57 21L57 20L55 20L55 19L54 19L54 18L52 18L52 19L50 19L50 18L51 18L51 17L54 17L54 16L55 16L55 15L56 15L56 14L55 14L55 15L53 15L53 14L52 14L52 13L55 13L55 12L53 12L53 10L51 10L51 9L55 9L55 8L51 8L51 9L50 9L50 6L51 6L51 7L52 7L52 6L51 6L51 4L53 4L53 1L52 1L52 3L51 3L51 4L50 4L50 3L49 3L49 2L48 2L48 1ZM31 2L31 4L32 4L32 2ZM47 2L47 3L48 3L48 4L47 4L47 6L46 6L46 5L44 5L44 7L45 7L45 9L44 9L44 8L43 8L43 9L41 9L41 12L40 12L40 10L38 10L38 11L39 11L39 12L40 12L40 13L39 13L39 14L40 14L40 15L39 15L39 16L40 16L40 15L42 15L42 14L43 14L43 15L44 15L44 16L45 16L45 17L46 17L46 16L48 16L48 17L49 17L49 18L48 18L48 20L46 20L46 21L48 21L48 22L47 22L47 24L46 24L46 22L44 22L44 23L45 23L45 24L46 24L46 25L47 25L47 26L48 26L48 25L49 25L49 24L48 24L48 22L49 22L49 23L50 23L50 24L51 24L51 23L50 23L50 21L51 21L51 20L50 20L50 21L49 21L49 18L50 18L50 16L52 16L52 15L49 15L49 16L48 16L48 15L45 15L45 13L46 13L46 11L45 11L45 13L44 13L44 12L43 12L43 13L42 13L42 14L41 14L41 12L42 12L42 10L45 10L45 9L46 9L46 7L47 7L47 10L50 10L50 11L49 11L49 12L47 12L47 14L50 14L50 13L51 13L51 12L52 12L52 11L51 11L51 10L50 10L50 9L49 9L49 6L50 6L50 4L49 4L49 3L48 3L48 2ZM45 3L45 4L46 4L46 3ZM54 3L54 4L55 4L55 3ZM60 3L60 5L61 5L61 3ZM19 5L19 6L18 6L18 7L19 7L19 6L20 6L20 5ZM21 5L21 6L22 6L22 7L23 7L23 8L24 8L24 9L23 9L23 10L22 10L22 11L23 11L23 12L24 12L24 13L23 13L23 17L22 17L22 18L26 18L26 17L24 17L24 16L26 16L26 15L24 15L24 14L27 14L27 16L29 16L29 18L30 18L30 19L31 19L31 20L29 20L29 21L31 21L31 22L32 22L32 19L34 19L34 18L33 18L33 16L34 16L34 15L33 15L33 16L32 16L32 15L31 15L31 16L29 16L29 14L27 14L27 13L28 13L28 12L29 12L29 13L30 13L30 14L31 14L31 13L32 13L32 12L29 12L29 10L26 10L26 8L27 8L27 6L26 6L26 7L25 7L25 6L24 6L24 7L23 7L23 6L22 6L22 5ZM33 5L33 8L36 8L36 5ZM12 6L12 8L13 8L13 9L15 9L15 8L17 8L17 6L16 6L16 7L15 7L15 6L14 6L14 7L15 7L15 8L13 8L13 6ZM30 6L30 7L31 7L31 6ZM34 6L34 7L35 7L35 6ZM42 6L42 7L43 7L43 6ZM45 6L45 7L46 7L46 6ZM47 6L47 7L48 7L48 6ZM53 6L53 7L54 7L54 6ZM60 6L60 7L61 7L61 6ZM24 7L24 8L25 8L25 7ZM21 8L21 9L22 9L22 8ZM29 8L29 9L30 9L30 11L32 11L32 10L31 10L31 9L30 9L30 8ZM38 8L38 9L40 9L40 8ZM67 8L67 10L69 10L69 9L68 9L68 8ZM4 9L4 10L3 10L3 11L5 11L5 12L4 12L4 13L5 13L5 14L4 14L4 15L3 15L3 16L5 16L5 17L4 17L4 18L3 18L3 19L2 19L2 20L1 20L1 23L2 23L2 24L3 24L3 25L4 25L4 22L5 22L5 21L4 21L4 20L7 20L7 19L4 19L4 18L8 18L8 17L6 17L6 16L7 16L7 15L5 15L5 14L7 14L7 13L8 13L8 12L7 12L7 11L9 11L9 14L8 14L8 15L9 15L9 14L11 14L11 12L10 12L10 11L9 11L9 10L7 10L7 9L6 9L6 10L7 10L7 11L5 11L5 9ZM24 9L24 10L23 10L23 11L24 11L24 12L25 12L25 9ZM35 10L35 11L36 11L36 10ZM26 11L26 13L27 13L27 11ZM63 11L63 12L64 12L64 13L65 13L65 14L68 14L68 13L65 13L65 12L64 12L64 11ZM0 12L0 13L1 13L1 12ZM5 12L5 13L7 13L7 12ZM13 12L13 13L14 13L14 12ZM34 12L34 13L33 13L33 14L34 14L34 13L35 13L35 15L36 15L36 16L35 16L35 17L36 17L36 18L35 18L35 19L37 19L37 18L38 18L38 17L37 17L37 14L38 14L38 12L37 12L37 13L36 13L36 12ZM49 12L49 13L50 13L50 12ZM21 13L21 14L20 14L20 16L21 16L21 14L22 14L22 13ZM43 13L43 14L44 14L44 13ZM0 14L0 15L1 15L1 14ZM10 15L10 16L9 16L9 17L11 17L11 16L12 16L12 15ZM14 16L14 17L12 17L12 18L14 18L14 17L15 17L15 16ZM31 16L31 19L32 19L32 16ZM18 17L18 18L20 18L20 19L19 19L19 20L21 20L21 17ZM27 17L27 18L28 18L28 17ZM63 17L63 18L62 18L62 19L61 19L61 21L60 21L60 20L59 20L59 23L60 23L60 22L62 22L62 19L63 19L63 18L65 18L65 17ZM44 18L44 19L47 19L47 18ZM26 19L26 20L27 20L27 21L26 21L26 22L27 22L27 21L28 21L28 19ZM52 19L52 20L53 20L53 21L54 21L54 22L53 22L53 23L54 23L54 24L55 24L55 25L56 25L56 26L55 26L55 27L53 27L53 28L55 28L55 29L56 29L56 31L54 31L54 32L55 32L55 33L53 33L53 35L54 35L54 36L55 36L55 37L53 37L53 39L52 39L52 40L53 40L53 39L55 39L55 41L53 41L53 42L54 42L54 44L55 44L55 45L54 45L54 46L53 46L53 45L52 45L52 48L51 48L51 49L52 49L52 50L50 50L50 47L51 47L51 46L49 46L49 45L50 45L50 44L51 44L51 42L50 42L50 41L51 41L51 40L47 40L47 38L48 38L48 39L50 39L50 37L51 37L51 38L52 38L52 37L51 37L51 36L50 36L50 37L49 37L49 36L45 36L45 33L44 33L44 32L45 32L45 31L44 31L44 32L43 32L43 33L40 33L40 35L39 35L39 36L40 36L40 35L41 35L41 34L43 34L43 33L44 33L44 36L43 36L43 37L41 37L41 38L40 38L40 37L39 37L39 40L37 40L37 39L38 39L38 38L35 38L35 39L34 39L34 40L33 40L33 41L32 41L32 42L33 42L33 41L34 41L34 42L36 42L36 41L37 41L37 43L29 43L29 42L26 42L26 40L25 40L25 39L23 39L23 40L24 40L24 41L23 41L23 42L24 42L24 41L25 41L25 42L26 42L26 44L24 44L24 43L23 43L23 44L24 44L24 45L23 45L23 46L26 46L26 44L27 44L27 45L28 45L28 43L29 43L29 44L30 44L30 45L29 45L29 46L27 46L27 47L30 47L30 45L31 45L31 44L32 44L32 45L33 45L33 44L35 44L35 45L36 45L36 47L35 47L35 46L34 46L34 47L35 47L35 48L36 48L36 47L37 47L37 48L38 48L38 47L37 47L37 46L38 46L38 45L39 45L39 46L40 46L40 47L39 47L39 48L40 48L40 47L41 47L41 48L42 48L42 49L41 49L41 50L39 50L39 51L37 51L37 50L38 50L38 49L37 49L37 50L36 50L36 49L35 49L35 54L39 54L39 51L41 51L41 50L42 50L42 52L43 52L43 53L44 53L44 56L43 56L43 57L44 57L44 56L46 56L46 57L47 57L47 59L49 59L49 60L47 60L47 62L50 62L50 61L49 61L49 60L50 60L50 59L51 59L51 60L53 60L53 59L52 59L52 57L51 57L51 56L48 56L48 55L50 55L50 53L49 53L49 51L50 51L50 52L52 52L52 50L55 50L55 51L53 51L53 52L55 52L55 53L53 53L53 54L52 54L52 55L53 55L53 54L55 54L55 53L56 53L56 54L58 54L58 55L56 55L56 56L55 56L55 55L54 55L54 56L55 56L55 57L56 57L56 58L57 58L57 57L58 57L58 56L60 56L60 54L61 54L61 53L59 53L59 51L60 51L60 50L61 50L61 52L63 52L63 53L62 53L62 54L63 54L63 53L64 53L64 52L63 52L63 51L64 51L64 50L63 50L63 51L62 51L62 49L65 49L65 48L64 48L64 47L65 47L65 46L64 46L64 47L63 47L63 48L62 48L62 49L60 49L60 50L58 50L58 51L57 51L57 52L58 52L58 53L56 53L56 50L57 50L57 49L58 49L58 48L60 48L60 47L62 47L62 46L63 46L63 45L62 45L62 44L60 44L60 45L59 45L59 44L58 44L58 45L59 45L59 47L58 47L58 46L56 46L56 44L57 44L57 43L59 43L59 42L60 42L60 43L62 43L62 41L61 41L61 40L60 40L60 41L59 41L59 39L58 39L58 38L57 38L57 39L58 39L58 40L57 40L57 41L59 41L59 42L57 42L57 43L55 43L55 42L56 42L56 38L55 38L55 37L56 37L56 35L57 35L57 33L56 33L56 32L57 32L57 31L58 31L58 30L57 30L57 29L56 29L56 26L57 26L57 27L58 27L58 26L57 26L57 25L56 25L56 24L55 24L55 23L54 23L54 22L55 22L55 20L53 20L53 19ZM2 20L2 22L4 22L4 21L3 21L3 20ZM6 21L6 22L7 22L7 23L6 23L6 24L5 24L5 25L6 25L6 26L7 26L7 25L6 25L6 24L7 24L7 23L10 23L10 24L8 24L8 26L9 26L9 27L11 27L11 28L12 28L12 25L11 25L11 23L10 23L10 22L7 22L7 21ZM56 21L56 23L57 23L57 24L58 24L58 22L57 22L57 21ZM26 23L26 24L27 24L27 25L28 25L28 24L27 24L27 23ZM37 23L37 25L39 25L39 24L38 24L38 23ZM47 24L47 25L48 25L48 24ZM67 24L67 26L68 26L68 24ZM9 25L9 26L11 26L11 25ZM21 25L21 26L22 26L22 25ZM63 25L63 26L64 26L64 25ZM60 26L60 27L61 27L61 26ZM21 27L21 28L23 28L23 27ZM63 27L63 28L64 28L64 27ZM27 28L27 29L28 29L28 28ZM31 28L31 29L32 29L32 28ZM39 28L39 29L40 29L40 28ZM48 29L48 30L49 30L49 29ZM16 30L16 31L17 31L17 30ZM6 31L6 32L7 32L7 31ZM10 31L10 32L11 32L11 31ZM0 32L0 33L2 33L2 32ZM16 32L16 33L15 33L15 34L16 34L16 33L17 33L17 32ZM66 32L66 33L67 33L67 34L65 34L65 35L67 35L67 36L68 36L68 35L67 35L67 34L68 34L68 33L67 33L67 32ZM5 33L5 36L8 36L8 33ZM13 33L13 34L14 34L14 33ZM28 33L28 34L26 34L26 35L28 35L28 36L27 36L27 37L26 37L26 36L25 36L25 37L24 37L24 35L23 35L23 34L21 34L21 35L23 35L23 37L22 37L22 38L20 38L20 37L21 37L21 36L20 36L20 37L19 37L19 36L17 36L17 35L15 35L15 36L14 36L14 35L12 35L12 34L10 34L10 36L11 36L11 37L12 37L12 38L10 38L10 39L8 39L8 40L9 40L9 42L10 42L10 43L9 43L9 44L10 44L10 43L11 43L11 44L12 44L12 42L13 42L13 43L15 43L15 44L14 44L14 45L9 45L9 47L10 47L10 48L8 48L8 49L7 49L7 48L6 48L6 49L5 49L5 47L4 47L4 46L3 46L3 47L4 47L4 48L2 48L2 49L3 49L3 53L4 53L4 51L5 51L5 52L6 52L6 53L7 53L7 54L6 54L6 55L7 55L7 56L8 56L8 57L9 57L9 58L10 58L10 59L11 59L11 60L12 60L12 59L11 59L11 58L12 58L12 56L13 56L13 54L14 54L14 53L15 53L15 51L16 51L16 52L17 52L17 53L19 53L19 52L23 52L23 51L24 51L24 50L25 50L25 51L27 51L27 53L32 53L32 54L33 54L33 53L34 53L34 52L33 52L33 51L34 51L34 50L33 50L33 48L32 48L32 49L31 49L31 48L29 48L29 49L31 49L31 50L32 50L32 52L28 52L28 51L27 51L27 50L28 50L28 49L27 49L27 50L26 50L26 49L18 49L18 48L17 48L17 47L18 47L18 46L20 46L20 47L19 47L19 48L20 48L20 47L21 47L21 48L23 48L23 47L21 47L21 46L20 46L20 44L21 44L21 43L22 43L22 42L20 42L20 41L22 41L22 40L21 40L21 39L22 39L22 38L23 38L23 37L24 37L24 38L25 38L25 37L26 37L26 39L28 39L28 40L27 40L27 41L28 41L28 40L29 40L29 41L30 41L30 42L31 42L31 41L30 41L30 40L29 40L29 39L30 39L30 38L29 38L29 39L28 39L28 38L27 38L27 37L28 37L28 36L29 36L29 33ZM33 33L33 36L36 36L36 33ZM61 33L61 36L64 36L64 33ZM6 34L6 35L7 35L7 34ZM19 34L19 35L20 35L20 34ZM34 34L34 35L35 35L35 34ZM62 34L62 35L63 35L63 34ZM11 35L11 36L12 36L12 37L13 37L13 38L12 38L12 39L14 39L14 40L15 40L15 41L14 41L14 42L15 42L15 43L16 43L16 45L15 45L15 46L13 46L13 47L15 47L15 48L16 48L16 49L14 49L14 50L12 50L12 49L13 49L13 48L12 48L12 46L10 46L10 47L11 47L11 48L10 48L10 49L11 49L11 50L12 50L12 51L11 51L11 52L12 52L12 53L9 53L9 52L10 52L10 50L9 50L9 49L8 49L8 50L7 50L7 49L6 49L6 50L5 50L5 49L4 49L4 50L5 50L5 51L6 51L6 52L7 52L7 53L8 53L8 54L7 54L7 55L8 55L8 54L9 54L9 57L10 57L10 56L11 56L11 55L12 55L12 54L13 54L13 53L14 53L14 52L13 52L13 51L15 51L15 50L16 50L16 51L17 51L17 52L19 52L19 51L20 51L20 50L19 50L19 51L17 51L17 50L18 50L18 49L17 49L17 48L16 48L16 47L15 47L15 46L17 46L17 41L18 41L18 42L19 42L19 43L18 43L18 44L19 44L19 43L20 43L20 42L19 42L19 41L20 41L20 40L19 40L19 41L18 41L18 39L17 39L17 37L13 37L13 36L12 36L12 35ZM44 36L44 37L45 37L45 38L47 38L47 37L45 37L45 36ZM59 37L59 38L60 38L60 37ZM6 38L6 39L7 39L7 38ZM15 38L15 40L17 40L17 39L16 39L16 38ZM19 38L19 39L20 39L20 38ZM61 38L61 39L62 39L62 38ZM4 39L4 40L5 40L5 39ZM10 39L10 41L13 41L13 40L11 40L11 39ZM31 39L31 40L32 40L32 39ZM41 39L41 40L39 40L39 41L38 41L38 44L37 44L37 45L38 45L38 44L39 44L39 45L40 45L40 44L41 44L41 43L40 43L40 41L41 41L41 40L44 40L44 42L43 42L43 43L44 43L44 45L43 45L43 46L42 46L42 45L41 45L41 46L42 46L42 48L43 48L43 46L44 46L44 49L43 49L43 50L44 50L44 49L45 49L45 52L44 52L44 51L43 51L43 52L44 52L44 53L45 53L45 54L46 54L46 56L47 56L47 57L48 57L48 56L47 56L47 55L48 55L48 53L45 53L45 52L46 52L46 51L48 51L48 50L49 50L49 49L47 49L47 47L48 47L48 48L49 48L49 46L47 46L47 43L48 43L48 44L50 44L50 42L49 42L49 41L48 41L48 42L47 42L47 40L45 40L45 39ZM63 39L63 41L66 41L66 40L65 40L65 39ZM6 40L6 41L7 41L7 42L8 42L8 41L7 41L7 40ZM34 40L34 41L35 41L35 40ZM15 41L15 42L16 42L16 41ZM44 42L44 43L45 43L45 42ZM46 42L46 43L47 43L47 42ZM48 42L48 43L49 43L49 42ZM39 43L39 44L40 44L40 43ZM44 45L44 46L45 46L45 45ZM32 46L32 47L33 47L33 46ZM46 46L46 47L45 47L45 49L46 49L46 47L47 47L47 46ZM54 46L54 47L55 47L55 48L56 48L56 49L57 49L57 48L56 48L56 46ZM25 47L25 48L26 48L26 47ZM52 48L52 49L53 49L53 48ZM6 50L6 51L7 51L7 50ZM8 50L8 51L9 51L9 50ZM29 50L29 51L30 51L30 50ZM37 52L37 53L38 53L38 52ZM58 53L58 54L59 54L59 53ZM10 54L10 55L11 55L11 54ZM27 54L27 55L26 55L26 56L27 56L27 55L29 55L29 54ZM3 55L3 56L4 56L4 55ZM16 55L16 57L14 57L14 58L16 58L16 57L17 57L17 56L18 56L18 55ZM31 56L31 59L32 59L32 56ZM37 56L37 57L39 57L39 56ZM56 56L56 57L57 57L57 56ZM21 57L21 58L22 58L22 57ZM50 57L50 58L49 58L49 59L50 59L50 58L51 58L51 57ZM45 58L45 59L46 59L46 58ZM59 58L59 59L57 59L57 60L59 60L59 59L60 59L60 58ZM19 59L19 60L17 60L17 61L19 61L19 60L20 60L20 59ZM3 60L3 61L5 61L5 60ZM6 60L6 61L7 61L7 60ZM31 60L31 63L32 63L32 60ZM45 60L45 61L46 61L46 60ZM23 61L23 62L25 62L25 61ZM33 61L33 64L36 64L36 61ZM56 61L56 62L58 62L58 61ZM61 61L61 64L64 64L64 61ZM67 61L67 62L68 62L68 61ZM34 62L34 63L35 63L35 62ZM62 62L62 63L63 63L63 62ZM65 62L65 63L66 63L66 62ZM11 63L11 65L12 65L12 63ZM39 63L39 64L41 64L41 63ZM17 64L17 65L18 65L18 64ZM45 64L45 66L46 66L46 64ZM65 64L65 66L64 66L64 65L63 65L63 66L64 66L64 67L66 67L66 65L67 65L67 64ZM61 66L61 67L62 67L62 68L63 68L63 67L62 67L62 66ZM21 67L21 68L20 68L20 69L21 69L21 68L22 68L22 67ZM58 67L58 68L59 68L59 67ZM15 68L15 69L16 69L16 68ZM17 68L17 69L19 69L19 68ZM41 68L41 69L42 69L42 68ZM0 0L0 7L7 7L7 0ZM1 1L1 6L6 6L6 1ZM2 2L2 5L5 5L5 2ZM62 0L62 7L69 7L69 0ZM63 1L63 6L68 6L68 1ZM64 2L64 5L67 5L67 2ZM0 62L0 69L7 69L7 62ZM1 63L1 68L6 68L6 63ZM2 64L2 67L5 67L5 64Z" fill="#000000"/></g></g></svg>
