<?xml version="1.0" encoding="UTF-8"?>
<svg xmlns="http://www.w3.org/2000/svg" version="1.1" width="300" height="300" viewBox="0 0 300 300"><rect x="0" y="0" width="300" height="300" fill="#ffffff"/><g transform="scale(4.348)"><g transform="translate(0,0)"><path fill-rule="evenodd" d="M8 0L8 4L9 4L9 5L8 5L8 7L9 7L9 5L11 5L11 6L10 6L10 7L11 7L11 9L10 9L10 8L9 8L9 9L7 9L7 8L4 8L4 9L7 9L7 10L6 10L6 11L5 11L5 12L4 12L4 10L3 10L3 9L2 9L2 8L0 8L0 9L1 9L1 11L0 11L0 15L5 15L5 16L1 16L1 17L0 17L0 19L1 19L1 20L0 20L0 21L1 21L1 22L0 22L0 25L1 25L1 26L2 26L2 25L1 25L1 22L3 22L3 23L2 23L2 24L3 24L3 26L4 26L4 27L7 27L7 28L6 28L6 29L7 29L7 30L6 30L6 31L5 31L5 32L4 32L4 30L5 30L5 28L2 28L2 27L1 27L1 28L0 28L0 31L3 31L3 32L4 32L4 35L1 35L1 36L0 36L0 37L1 37L1 39L2 39L2 38L4 38L4 39L3 39L3 40L1 40L1 41L3 41L3 42L4 42L4 43L1 43L1 44L0 44L0 48L2 48L2 50L3 50L3 51L5 51L5 50L3 50L3 48L4 48L4 47L5 47L5 45L2 45L2 44L4 44L4 43L5 43L5 44L6 44L6 45L7 45L7 44L9 44L9 46L8 46L8 47L10 47L10 48L9 48L9 49L8 49L8 48L5 48L5 49L7 49L7 50L6 50L6 51L7 51L7 50L8 50L8 51L9 51L9 49L10 49L10 50L11 50L11 52L8 52L8 54L5 54L5 53L7 53L7 52L4 52L4 53L2 53L2 52L1 52L1 53L2 53L2 55L1 55L1 54L0 54L0 55L1 55L1 56L0 56L0 57L2 57L2 59L3 59L3 57L2 57L2 55L3 55L3 54L4 54L4 55L5 55L5 56L4 56L4 57L5 57L5 58L4 58L4 59L7 59L7 60L6 60L6 61L7 61L7 60L9 60L9 59L7 59L7 58L10 58L10 59L11 59L11 62L10 62L10 61L8 61L8 62L10 62L10 63L8 63L8 65L9 65L9 66L10 66L10 65L9 65L9 64L11 64L11 65L12 65L12 66L11 66L11 67L12 67L12 66L13 66L13 67L14 67L14 66L13 66L13 65L15 65L15 66L16 66L16 67L17 67L17 68L15 68L15 69L20 69L20 68L19 68L19 67L20 67L20 66L21 66L21 69L22 69L22 66L23 66L23 69L24 69L24 68L25 68L25 69L28 69L28 68L27 68L27 67L28 67L28 66L29 66L29 65L30 65L30 66L31 66L31 67L32 67L32 69L33 69L33 66L34 66L34 65L35 65L35 66L36 66L36 65L37 65L37 67L39 67L39 66L40 66L40 63L41 63L41 67L40 67L40 68L38 68L38 69L40 69L40 68L41 68L41 69L42 69L42 68L43 68L43 63L44 63L44 69L46 69L46 67L45 67L45 63L44 63L44 62L43 62L43 61L42 61L42 58L45 58L45 59L46 59L46 61L45 61L45 60L44 60L44 59L43 59L43 60L44 60L44 61L45 61L45 62L46 62L46 64L47 64L47 65L49 65L49 64L47 64L47 63L49 63L49 61L50 61L50 62L51 62L51 61L52 61L52 63L50 63L50 66L49 66L49 68L48 68L48 67L47 67L47 69L52 69L52 68L53 68L53 69L55 69L55 68L53 68L53 67L56 67L56 69L58 69L58 68L59 68L59 69L61 69L61 68L62 68L62 69L63 69L63 68L62 68L62 67L61 67L61 68L60 68L60 67L58 67L58 68L57 68L57 67L56 67L56 66L55 66L55 65L53 65L53 67L52 67L52 64L53 64L53 63L54 63L54 62L55 62L55 64L56 64L56 65L57 65L57 66L58 66L58 65L59 65L59 64L60 64L60 66L61 66L61 65L62 65L62 66L64 66L64 68L65 68L65 66L66 66L66 67L67 67L67 66L69 66L69 64L68 64L68 62L69 62L69 61L68 61L68 58L69 58L69 56L68 56L68 55L67 55L67 53L69 53L69 52L68 52L68 50L67 50L67 49L66 49L66 50L67 50L67 53L66 53L66 52L65 52L65 50L64 50L64 49L65 49L65 47L66 47L66 46L67 46L67 47L68 47L68 49L69 49L69 47L68 47L68 46L69 46L69 45L67 45L67 44L69 44L69 43L68 43L68 42L69 42L69 39L68 39L68 38L69 38L69 35L68 35L68 33L66 33L66 32L63 32L63 31L62 31L62 30L63 30L63 29L64 29L64 30L65 30L65 31L68 31L68 32L69 32L69 31L68 31L68 30L65 30L65 29L66 29L66 28L65 28L65 27L64 27L64 26L66 26L66 27L68 27L68 29L69 29L69 27L68 27L68 26L69 26L69 25L67 25L67 24L65 24L65 23L68 23L68 24L69 24L69 23L68 23L68 22L69 22L69 20L68 20L68 18L67 18L67 20L65 20L65 17L64 17L64 16L65 16L65 13L64 13L64 15L63 15L63 11L61 11L61 12L62 12L62 14L61 14L61 13L60 13L60 12L59 12L59 10L61 10L61 9L59 9L59 4L58 4L58 5L57 5L57 4L56 4L56 2L57 2L57 3L59 3L59 2L58 2L58 1L61 1L61 0L58 0L58 1L57 1L57 0L56 0L56 2L55 2L55 0L52 0L52 1L53 1L53 2L51 2L51 0L50 0L50 5L49 5L49 4L47 4L47 2L46 2L46 3L45 3L45 1L46 1L46 0L45 0L45 1L44 1L44 0L41 0L41 1L40 1L40 0L37 0L37 1L35 1L35 0L34 0L34 1L33 1L33 0L31 0L31 2L29 2L29 1L30 1L30 0L23 0L23 1L22 1L22 0L14 0L14 2L12 2L12 0L11 0L11 1L10 1L10 2L11 2L11 3L9 3L9 0ZM48 0L48 3L49 3L49 0ZM18 1L18 2L16 2L16 4L18 4L18 5L19 5L19 7L18 7L18 6L17 6L17 5L16 5L16 6L15 6L15 7L16 7L16 6L17 6L17 7L18 7L18 8L19 8L19 7L20 7L20 9L17 9L17 8L14 8L14 6L13 6L13 8L14 8L14 9L11 9L11 10L10 10L10 9L9 9L9 11L8 11L8 10L7 10L7 11L6 11L6 12L7 12L7 13L6 13L6 14L5 14L5 13L4 13L4 12L3 12L3 10L2 10L2 12L1 12L1 14L2 14L2 12L3 12L3 14L5 14L5 15L6 15L6 16L7 16L7 17L6 17L6 18L5 18L5 17L4 17L4 18L3 18L3 19L2 19L2 18L1 18L1 19L2 19L2 20L3 20L3 19L4 19L4 20L5 20L5 21L4 21L4 23L3 23L3 24L5 24L5 25L4 25L4 26L5 26L5 25L6 25L6 26L7 26L7 27L8 27L8 29L10 29L10 30L7 30L7 31L6 31L6 32L9 32L9 33L10 33L10 34L9 34L9 37L8 37L8 38L7 38L7 37L5 37L5 38L7 38L7 39L4 39L4 40L3 40L3 41L5 41L5 42L9 42L9 39L10 39L10 40L11 40L11 39L12 39L12 38L9 38L9 37L11 37L11 36L12 36L12 37L15 37L15 36L16 36L16 38L14 38L14 39L13 39L13 40L12 40L12 41L11 41L11 42L12 42L12 43L9 43L9 44L11 44L11 45L10 45L10 47L13 47L13 48L11 48L11 49L13 49L13 48L14 48L14 47L15 47L15 43L16 43L16 42L17 42L17 43L18 43L18 44L19 44L19 43L22 43L22 42L23 42L23 41L24 41L24 42L25 42L25 43L26 43L26 44L27 44L27 45L25 45L25 46L23 46L23 45L24 45L24 43L23 43L23 44L22 44L22 49L19 49L19 48L20 48L20 45L19 45L19 48L18 48L18 49L17 49L17 47L18 47L18 46L17 46L17 44L16 44L16 48L15 48L15 49L14 49L14 50L15 50L15 49L16 49L16 51L15 51L15 52L14 52L14 51L12 51L12 52L13 52L13 53L14 53L14 54L12 54L12 55L10 55L10 56L11 56L11 57L10 57L10 58L11 58L11 57L12 57L12 55L13 55L13 58L12 58L12 60L14 60L14 59L13 59L13 58L14 58L14 56L15 56L15 57L17 57L17 58L16 58L16 59L15 59L15 60L16 60L16 62L15 62L15 61L13 61L13 62L11 62L11 64L12 64L12 65L13 65L13 64L14 64L14 63L16 63L16 64L15 64L15 65L16 65L16 66L17 66L17 67L19 67L19 66L17 66L17 65L18 65L18 64L19 64L19 65L20 65L20 60L22 60L22 61L21 61L21 62L22 62L22 63L21 63L21 64L22 64L22 65L21 65L21 66L22 66L22 65L23 65L23 64L24 64L24 63L23 63L23 62L22 62L22 61L26 61L26 59L27 59L27 57L28 57L28 62L27 62L27 64L26 64L26 63L25 63L25 65L29 65L29 64L28 64L28 62L29 62L29 63L32 63L32 62L31 62L31 61L29 61L29 57L30 57L30 56L31 56L31 57L32 57L32 58L30 58L30 59L31 59L31 60L32 60L32 59L33 59L33 60L34 60L34 57L35 57L35 60L37 60L37 63L38 63L38 64L37 64L37 65L38 65L38 64L39 64L39 63L40 63L40 62L41 62L41 60L39 60L39 58L40 58L40 59L41 59L41 58L40 58L40 57L41 57L41 56L42 56L42 57L44 57L44 54L45 54L45 53L46 53L46 54L47 54L47 53L46 53L46 52L50 52L50 53L48 53L48 54L49 54L49 55L50 55L50 56L49 56L49 58L48 58L48 59L52 59L52 61L54 61L54 60L53 60L53 59L54 59L54 58L52 58L52 57L53 57L53 56L52 56L52 55L54 55L54 57L56 57L56 58L55 58L55 61L56 61L56 60L58 60L58 61L57 61L57 62L56 62L56 64L58 64L58 63L60 63L60 60L58 60L58 58L60 58L60 59L61 59L61 60L62 60L62 59L63 59L63 60L64 60L64 59L65 59L65 61L66 61L66 60L67 60L67 59L65 59L65 58L67 58L67 57L68 57L68 56L67 56L67 55L66 55L66 54L65 54L65 52L63 52L63 53L64 53L64 54L62 54L62 52L61 52L61 51L64 51L64 50L62 50L62 49L64 49L64 47L65 47L65 46L66 46L66 45L65 45L65 44L67 44L67 42L68 42L68 41L64 41L64 40L67 40L67 39L64 39L64 38L65 38L65 37L62 37L62 43L61 43L61 40L59 40L59 39L58 39L58 38L60 38L60 37L58 37L58 38L57 38L57 39L58 39L58 40L57 40L57 41L58 41L58 43L57 43L57 42L56 42L56 38L54 38L54 39L53 39L53 40L52 40L52 41L51 41L51 42L50 42L50 41L47 41L47 37L46 37L46 34L47 34L47 36L49 36L49 37L50 37L50 36L49 36L49 35L50 35L50 32L52 32L52 33L51 33L51 34L53 34L53 36L52 36L52 37L51 37L51 39L50 39L50 40L51 40L51 39L52 39L52 38L53 38L53 36L54 36L54 34L53 34L53 32L55 32L55 33L56 33L56 34L55 34L55 35L56 35L56 36L55 36L55 37L56 37L56 36L57 36L57 33L56 33L56 32L58 32L58 31L59 31L59 29L60 29L60 28L62 28L62 29L61 29L61 30L62 30L62 29L63 29L63 28L64 28L64 29L65 29L65 28L64 28L64 27L63 27L63 26L64 26L64 25L65 25L65 24L64 24L64 25L63 25L63 24L62 24L62 23L63 23L63 22L64 22L64 23L65 23L65 22L68 22L68 20L67 20L67 21L65 21L65 20L64 20L64 21L63 21L63 19L64 19L64 17L63 17L63 19L62 19L62 15L61 15L61 14L60 14L60 13L59 13L59 12L57 12L57 13L58 13L58 14L57 14L57 17L56 17L56 15L53 15L53 16L52 16L52 14L53 14L53 13L55 13L55 14L56 14L56 13L55 13L55 12L52 12L52 14L50 14L50 12L49 12L49 14L50 14L50 15L49 15L49 17L51 17L51 18L53 18L53 19L51 19L51 20L49 20L49 18L48 18L48 19L47 19L47 17L48 17L48 15L45 15L45 14L44 14L44 15L43 15L43 17L44 17L44 15L45 15L45 19L44 19L44 18L41 18L41 17L42 17L42 16L40 16L40 19L39 19L39 18L38 18L38 17L37 17L37 16L39 16L39 15L42 15L42 13L44 13L44 11L45 11L45 12L46 12L46 10L47 10L47 8L50 8L50 9L49 9L49 10L50 10L50 11L51 11L51 10L52 10L52 11L58 11L58 10L59 10L59 9L58 9L58 8L57 8L57 7L58 7L58 6L57 6L57 5L55 5L55 9L56 9L56 10L52 10L52 9L54 9L54 5L52 5L52 3L51 3L51 5L50 5L50 6L49 6L49 7L48 7L48 6L47 6L47 4L46 4L46 5L44 5L44 4L45 4L45 3L44 3L44 2L43 2L43 3L44 3L44 4L43 4L43 5L44 5L44 6L43 6L43 8L41 8L41 7L42 7L42 6L41 6L41 5L40 5L40 6L39 6L39 8L38 8L38 5L37 5L37 8L38 8L38 9L37 9L37 10L38 10L38 11L37 11L37 12L36 12L36 13L37 13L37 14L35 14L35 13L33 13L33 15L32 15L32 17L31 17L31 18L34 18L34 19L30 19L30 18L29 18L29 16L31 16L31 14L29 14L29 13L28 13L28 12L27 12L27 10L26 10L26 8L27 8L27 9L28 9L28 11L29 11L29 10L30 10L30 9L31 9L31 10L32 10L32 11L31 11L31 13L32 13L32 12L33 12L33 11L34 11L34 10L35 10L35 11L36 11L36 9L34 9L34 10L32 10L32 9L31 9L31 8L30 8L30 9L28 9L28 8L29 8L29 7L30 7L30 6L31 6L31 7L32 7L32 6L31 6L31 5L32 5L32 4L33 4L33 3L34 3L34 4L36 4L36 3L34 3L34 2L33 2L33 3L32 3L32 2L31 2L31 3L29 3L29 2L28 2L28 1L27 1L27 3L26 3L26 4L28 4L28 6L27 6L27 7L26 7L26 6L25 6L25 5L22 5L22 3L24 3L24 4L25 4L25 1L23 1L23 2L22 2L22 1L21 1L21 2L20 2L20 1ZM37 1L37 3L38 3L38 4L40 4L40 1ZM41 1L41 2L42 2L42 1ZM14 2L14 4L13 4L13 3L11 3L11 5L12 5L12 4L13 4L13 5L15 5L15 2ZM21 2L21 3L19 3L19 4L20 4L20 7L21 7L21 3L22 3L22 2ZM54 2L54 3L53 3L53 4L54 4L54 3L55 3L55 2ZM28 3L28 4L29 4L29 3ZM31 3L31 4L32 4L32 3ZM60 3L60 5L61 5L61 3ZM29 5L29 6L28 6L28 7L29 7L29 6L30 6L30 5ZM33 5L33 8L36 8L36 5ZM11 6L11 7L12 7L12 6ZM22 6L22 8L24 8L24 9L23 9L23 10L22 10L22 9L20 9L20 10L22 10L22 11L21 11L21 13L20 13L20 12L19 12L19 10L17 10L17 13L18 13L18 15L17 15L17 17L16 17L16 16L15 16L15 14L16 14L16 13L15 13L15 12L16 12L16 11L15 11L15 10L14 10L14 11L12 11L12 12L14 12L14 13L12 13L12 14L10 14L10 13L11 13L11 11L10 11L10 12L9 12L9 14L6 14L6 15L9 15L9 16L10 16L10 17L12 17L12 19L11 19L11 18L8 18L8 17L7 17L7 18L6 18L6 19L5 19L5 20L6 20L6 21L5 21L5 22L6 22L6 23L7 23L7 24L6 24L6 25L7 25L7 26L8 26L8 27L9 27L9 28L10 28L10 29L12 29L12 25L15 25L15 26L14 26L14 28L15 28L15 27L16 27L16 26L18 26L18 28L17 28L17 29L18 29L18 30L16 30L16 29L15 29L15 30L14 30L14 29L13 29L13 30L12 30L12 32L14 32L14 31L16 31L16 33L15 33L15 35L14 35L14 33L13 33L13 35L12 35L12 34L11 34L11 35L10 35L10 36L11 36L11 35L12 35L12 36L15 36L15 35L16 35L16 33L17 33L17 34L19 34L19 35L20 35L20 34L21 34L21 33L22 33L22 32L23 32L23 31L24 31L24 32L25 32L25 31L26 31L26 32L28 32L28 31L29 31L29 30L28 30L28 29L30 29L30 30L31 30L31 29L32 29L32 28L33 28L33 31L34 31L34 30L35 30L35 29L34 29L34 28L35 28L35 27L36 27L36 26L37 26L37 28L36 28L36 29L38 29L38 30L39 30L39 31L37 31L37 32L32 32L32 31L31 31L31 32L30 32L30 33L23 33L23 37L22 37L22 35L21 35L21 37L20 37L20 36L17 36L17 37L20 37L20 39L19 39L19 40L18 40L18 38L16 38L16 40L15 40L15 41L12 41L12 42L14 42L14 43L15 43L15 41L16 41L16 40L17 40L17 42L18 42L18 41L19 41L19 40L20 40L20 42L22 42L22 41L21 41L21 39L22 39L22 40L23 40L23 39L25 39L25 35L24 35L24 34L26 34L26 35L28 35L28 34L29 34L29 35L30 35L30 36L29 36L29 37L30 37L30 39L29 39L29 38L28 38L28 37L27 37L27 36L26 36L26 37L27 37L27 38L28 38L28 39L26 39L26 40L24 40L24 41L27 41L27 42L26 42L26 43L28 43L28 45L27 45L27 47L28 47L28 48L26 48L26 47L23 47L23 48L24 48L24 49L23 49L23 51L22 51L22 52L21 52L21 50L20 50L20 51L18 51L18 50L19 50L19 49L18 49L18 50L17 50L17 51L16 51L16 52L17 52L17 53L18 53L18 54L19 54L19 55L18 55L18 56L17 56L17 54L16 54L16 53L15 53L15 56L17 56L17 57L18 57L18 58L17 58L17 61L19 61L19 59L21 59L21 57L24 57L24 58L25 58L25 56L24 56L24 55L25 55L25 54L26 54L26 55L27 55L27 53L29 53L29 54L28 54L28 57L29 57L29 55L30 55L30 54L32 54L32 53L31 53L31 52L32 52L32 51L34 51L34 52L35 52L35 50L36 50L36 49L35 49L35 50L34 50L34 48L35 48L35 47L36 47L36 48L37 48L37 49L38 49L38 50L37 50L37 53L36 53L36 55L37 55L37 56L38 56L38 58L39 58L39 57L40 57L40 55L42 55L42 54L44 54L44 53L45 53L45 50L46 50L46 51L47 51L47 50L46 50L46 49L45 49L45 48L47 48L47 49L50 49L50 50L51 50L51 48L50 48L50 47L51 47L51 46L52 46L52 44L53 44L53 48L54 48L54 46L55 46L55 47L57 47L57 46L58 46L58 47L59 47L59 46L60 46L60 45L62 45L62 46L61 46L61 47L60 47L60 49L59 49L59 48L58 48L58 49L57 49L57 48L56 48L56 49L52 49L52 50L56 50L56 53L55 53L55 52L53 52L53 51L51 51L51 53L50 53L50 55L52 55L52 54L53 54L53 53L54 53L54 55L55 55L55 56L56 56L56 57L57 57L57 58L58 58L58 56L56 56L56 55L57 55L57 54L58 54L58 55L59 55L59 56L60 56L60 57L61 57L61 56L62 56L62 57L63 57L63 58L64 58L64 55L65 55L65 54L64 54L64 55L60 55L60 54L58 54L58 53L59 53L59 51L58 51L58 49L59 49L59 50L60 50L60 51L61 51L61 50L60 50L60 49L62 49L62 48L63 48L63 47L62 47L62 46L64 46L64 41L63 41L63 44L61 44L61 43L60 43L60 41L59 41L59 44L60 44L60 45L59 45L59 46L58 46L58 44L56 44L56 43L55 43L55 41L52 41L52 42L51 42L51 43L52 43L52 44L51 44L51 45L50 45L50 42L49 42L49 43L48 43L48 42L47 42L47 43L48 43L48 44L47 44L47 46L46 46L46 45L45 45L45 44L44 44L44 45L45 45L45 46L46 46L46 47L45 47L45 48L44 48L44 46L43 46L43 44L41 44L41 43L38 43L38 42L43 42L43 39L45 39L45 40L44 40L44 43L45 43L45 42L46 42L46 37L45 37L45 34L46 34L46 33L47 33L47 34L48 34L48 35L49 35L49 34L48 34L48 33L49 33L49 32L47 32L47 31L46 31L46 28L45 28L45 27L47 27L47 30L48 30L48 29L50 29L50 30L49 30L49 31L50 31L50 30L51 30L51 31L55 31L55 32L56 32L56 30L55 30L55 27L57 27L57 28L56 28L56 29L57 29L57 31L58 31L58 25L57 25L57 24L58 24L58 23L59 23L59 25L60 25L60 27L62 27L62 28L63 28L63 27L62 27L62 26L63 26L63 25L62 25L62 24L61 24L61 23L62 23L62 22L63 22L63 21L62 21L62 22L61 22L61 21L59 21L59 19L60 19L60 18L61 18L61 17L59 17L59 16L58 16L58 17L57 17L57 18L56 18L56 17L55 17L55 16L54 16L54 17L53 17L53 18L56 18L56 21L57 21L57 24L56 24L56 23L55 23L55 19L54 19L54 20L53 20L53 22L52 22L52 21L50 21L50 22L51 22L51 23L52 23L52 24L51 24L51 25L50 25L50 23L48 23L48 25L47 25L47 22L49 22L49 20L47 20L47 19L46 19L46 20L44 20L44 23L45 23L45 24L44 24L44 25L43 25L43 24L42 24L42 25L41 25L41 26L43 26L43 28L42 28L42 27L40 27L40 24L41 24L41 23L43 23L43 20L41 20L41 19L40 19L40 20L39 20L39 19L34 19L34 20L33 20L33 21L32 21L32 20L30 20L30 19L29 19L29 18L28 18L28 19L27 19L27 20L26 20L26 18L27 18L27 17L28 17L28 16L26 16L26 15L25 15L25 13L27 13L27 15L28 15L28 13L27 13L27 12L26 12L26 11L25 11L25 10L24 10L24 9L25 9L25 8L26 8L26 7L25 7L25 6L24 6L24 7L23 7L23 6ZM34 6L34 7L35 7L35 6ZM40 6L40 7L41 7L41 6ZM44 6L44 7L45 7L45 8L44 8L44 9L45 9L45 10L46 10L46 9L45 9L45 8L47 8L47 6L46 6L46 7L45 7L45 6ZM50 6L50 8L51 8L51 9L50 9L50 10L51 10L51 9L52 9L52 7L53 7L53 6L52 6L52 7L51 7L51 6ZM56 6L56 7L57 7L57 6ZM60 6L60 8L61 8L61 6ZM39 8L39 9L38 9L38 10L39 10L39 9L40 9L40 11L39 11L39 12L38 12L38 14L37 14L37 15L38 15L38 14L39 14L39 13L40 13L40 14L41 14L41 10L42 10L42 12L43 12L43 9L40 9L40 8ZM56 8L56 9L57 9L57 10L58 10L58 9L57 9L57 8ZM63 8L63 9L62 9L62 10L64 10L64 11L66 11L66 10L67 10L67 12L68 12L68 10L67 10L67 9L69 9L69 8L65 8L65 10L64 10L64 8ZM7 11L7 12L8 12L8 11ZM14 11L14 12L15 12L15 11ZM22 11L22 13L21 13L21 14L20 14L20 13L19 13L19 14L20 14L20 16L22 16L22 17L19 17L19 16L18 16L18 17L17 17L17 18L15 18L15 17L13 17L13 18L15 18L15 20L14 20L14 19L12 19L12 20L13 20L13 24L14 24L14 23L15 23L15 25L17 25L17 23L18 23L18 24L19 24L19 25L18 25L18 26L19 26L19 25L21 25L21 26L20 26L20 28L19 28L19 30L18 30L18 31L17 31L17 33L18 33L18 32L19 32L19 33L20 33L20 32L19 32L19 31L23 31L23 29L24 29L24 28L25 28L25 30L26 30L26 27L27 27L27 29L28 29L28 27L30 27L30 28L31 28L31 27L33 27L33 28L34 28L34 27L33 27L33 25L34 25L34 26L35 26L35 24L36 24L36 23L37 23L37 25L38 25L38 23L39 23L39 24L40 24L40 23L39 23L39 20L38 20L38 21L37 21L37 22L36 22L36 20L34 20L34 21L33 21L33 23L31 23L31 21L28 21L28 20L27 20L27 21L26 21L26 20L25 20L25 21L26 21L26 22L25 22L25 23L24 23L24 22L23 22L23 20L24 20L24 19L25 19L25 18L26 18L26 17L25 17L25 18L24 18L24 19L23 19L23 18L22 18L22 17L24 17L24 16L25 16L25 15L24 15L24 14L23 14L23 13L24 13L24 11ZM46 13L46 14L47 14L47 13ZM68 13L68 14L67 14L67 15L68 15L68 16L66 16L66 17L69 17L69 15L68 15L68 14L69 14L69 13ZM12 14L12 16L13 16L13 14ZM22 14L22 15L23 15L23 14ZM34 14L34 15L33 15L33 17L34 17L34 18L35 18L35 17L36 17L36 16L35 16L35 14ZM58 14L58 15L59 15L59 14ZM34 16L34 17L35 17L35 16ZM46 16L46 17L47 17L47 16ZM51 16L51 17L52 17L52 16ZM18 17L18 18L19 18L19 17ZM58 17L58 18L57 18L57 21L58 21L58 22L59 22L59 23L61 23L61 22L59 22L59 21L58 21L58 18L59 18L59 17ZM7 18L7 19L6 19L6 20L7 20L7 19L8 19L8 21L6 21L6 22L8 22L8 24L7 24L7 25L8 25L8 24L9 24L9 22L10 22L10 27L11 27L11 25L12 25L12 23L11 23L11 22L12 22L12 21L11 21L11 20L10 20L10 19L8 19L8 18ZM20 18L20 19L19 19L19 20L18 20L18 19L17 19L17 20L16 20L16 21L15 21L15 23L17 23L17 22L16 22L16 21L18 21L18 23L19 23L19 20L20 20L20 24L21 24L21 25L24 25L24 26L25 26L25 25L27 25L27 26L28 26L28 24L27 24L27 23L28 23L28 21L27 21L27 23L26 23L26 24L24 24L24 23L23 23L23 24L22 24L22 23L21 23L21 21L22 21L22 18ZM40 20L40 22L41 22L41 20ZM8 21L8 22L9 22L9 21ZM10 21L10 22L11 22L11 21ZM46 21L46 22L47 22L47 21ZM64 21L64 22L65 22L65 21ZM29 22L29 23L30 23L30 22ZM34 23L34 24L35 24L35 23ZM53 23L53 24L52 24L52 25L51 25L51 27L50 27L50 28L52 28L52 30L53 30L53 28L52 28L52 25L53 25L53 24L55 24L55 25L56 25L56 24L55 24L55 23ZM30 24L30 25L29 25L29 26L31 26L31 25L32 25L32 24ZM60 24L60 25L61 25L61 26L62 26L62 25L61 25L61 24ZM46 25L46 26L47 26L47 25ZM48 25L48 27L49 27L49 25ZM53 26L53 27L55 27L55 26ZM21 27L21 28L20 28L20 30L21 30L21 29L22 29L22 27ZM23 27L23 28L24 28L24 27ZM38 27L38 29L40 29L40 30L42 30L42 28L40 28L40 27ZM43 28L43 30L44 30L44 31L40 31L40 33L44 33L44 34L43 34L43 38L45 38L45 37L44 37L44 34L45 34L45 33L44 33L44 31L45 31L45 30L44 30L44 28ZM3 29L3 30L4 30L4 29ZM10 30L10 31L11 31L11 30ZM38 32L38 33L39 33L39 32ZM1 33L1 34L2 34L2 33ZM5 33L5 36L8 36L8 33ZM30 33L30 34L31 34L31 33ZM33 33L33 36L36 36L36 33ZM58 33L58 36L59 36L59 33ZM61 33L61 36L64 36L64 33ZM6 34L6 35L7 35L7 34ZM34 34L34 35L35 35L35 34ZM39 34L39 35L37 35L37 37L33 37L33 38L34 38L34 41L32 41L32 42L30 42L30 41L31 41L31 40L33 40L33 39L32 39L32 35L31 35L31 40L30 40L30 41L29 41L29 40L28 40L28 42L30 42L30 43L31 43L31 45L36 45L36 44L37 44L37 45L38 45L38 43L37 43L37 42L38 42L38 41L39 41L39 38L40 38L40 37L41 37L41 36L42 36L42 35L41 35L41 34ZM62 34L62 35L63 35L63 34ZM65 34L65 35L66 35L66 37L68 37L68 35L66 35L66 34ZM1 36L1 37L4 37L4 36ZM38 36L38 37L37 37L37 39L38 39L38 38L39 38L39 36ZM21 37L21 38L22 38L22 37ZM35 38L35 39L36 39L36 38ZM41 38L41 39L40 39L40 41L41 41L41 39L42 39L42 38ZM7 39L7 40L5 40L5 41L8 41L8 39ZM63 39L63 40L64 40L64 39ZM37 40L37 41L38 41L38 40ZM34 41L34 44L35 44L35 43L36 43L36 42L35 42L35 41ZM6 43L6 44L7 44L7 43ZM54 43L54 45L55 45L55 46L56 46L56 44L55 44L55 43ZM12 44L12 45L11 45L11 46L13 46L13 44ZM1 45L1 46L2 46L2 45ZM28 45L28 46L30 46L30 47L29 47L29 48L28 48L28 49L27 49L27 50L26 50L26 49L25 49L25 51L23 51L23 52L22 52L22 54L20 54L20 53L19 53L19 54L20 54L20 55L19 55L19 56L20 56L20 57L19 57L19 58L18 58L18 59L19 59L19 58L20 58L20 57L21 57L21 56L20 56L20 55L22 55L22 56L23 56L23 52L25 52L25 53L26 53L26 52L27 52L27 51L28 51L28 50L29 50L29 52L31 52L31 51L32 51L32 49L33 49L33 48L34 48L34 47L35 47L35 46L34 46L34 47L32 47L32 46L30 46L30 45ZM39 45L39 47L37 47L37 46L36 46L36 47L37 47L37 48L38 48L38 49L39 49L39 47L41 47L41 48L40 48L40 51L39 51L39 50L38 50L38 51L39 51L39 52L38 52L38 53L37 53L37 55L38 55L38 56L39 56L39 55L40 55L40 54L41 54L41 53L42 53L42 52L41 52L41 49L42 49L42 45L41 45L41 46L40 46L40 45ZM49 45L49 47L48 47L48 48L49 48L49 47L50 47L50 45ZM3 46L3 47L4 47L4 46ZM6 46L6 47L7 47L7 46ZM61 47L61 48L62 48L62 47ZM29 48L29 50L30 50L30 51L31 51L31 49L32 49L32 48ZM43 48L43 49L44 49L44 50L45 50L45 49L44 49L44 48ZM0 49L0 50L1 50L1 49ZM42 50L42 51L43 51L43 53L44 53L44 51L43 51L43 50ZM25 51L25 52L26 52L26 51ZM52 52L52 53L51 53L51 54L52 54L52 53L53 53L53 52ZM9 53L9 54L11 54L11 53ZM33 53L33 54L34 54L34 53ZM6 55L6 56L7 56L7 57L6 57L6 58L7 58L7 57L8 57L8 56L7 56L7 55ZM47 55L47 57L46 57L46 58L47 58L47 57L48 57L48 55ZM26 56L26 57L27 57L27 56ZM32 56L32 57L34 57L34 56ZM35 56L35 57L36 57L36 59L37 59L37 57L36 57L36 56ZM51 56L51 57L50 57L50 58L51 58L51 57L52 57L52 56ZM65 56L65 57L67 57L67 56ZM0 58L0 61L1 61L1 58ZM22 58L22 60L24 60L24 59L23 59L23 58ZM61 58L61 59L62 59L62 58ZM3 60L3 61L5 61L5 60ZM38 60L38 63L39 63L39 60ZM33 61L33 64L36 64L36 61ZM46 61L46 62L47 62L47 61ZM61 61L61 64L64 64L64 61ZM67 61L67 62L66 62L66 63L65 63L65 65L68 65L68 64L67 64L67 62L68 62L68 61ZM17 62L17 63L18 63L18 62ZM34 62L34 63L35 63L35 62ZM42 62L42 63L43 63L43 62ZM62 62L62 63L63 63L63 62ZM31 64L31 65L32 65L32 66L33 66L33 65L32 65L32 64ZM24 66L24 67L26 67L26 66ZM50 66L50 67L51 67L51 68L52 68L52 67L51 67L51 66ZM8 67L8 69L9 69L9 68L10 68L10 67ZM29 67L29 69L31 69L31 68L30 68L30 67ZM34 67L34 68L35 68L35 67ZM41 67L41 68L42 68L42 67ZM36 68L36 69L37 69L37 68ZM68 68L68 69L69 69L69 68ZM0 0L0 7L7 7L7 0ZM1 1L1 6L6 6L6 1ZM2 2L2 5L5 5L5 2ZM62 0L62 7L69 7L69 0ZM63 1L63 6L68 6L68 1ZM64 2L64 5L67 5L67 2ZM0 62L0 69L7 69L7 62ZM1 63L1 68L6 68L6 63ZM2 64L2 67L5 67L5 64Z" fill="#000000"/></g></g></svg>
