<?xml version="1.0" encoding="UTF-8"?>
<svg xmlns="http://www.w3.org/2000/svg" version="1.1" width="300" height="300" viewBox="0 0 300 300"><rect x="0" y="0" width="300" height="300" fill="#ffffff"/><g transform="scale(4.348)"><g transform="translate(0,0)"><path fill-rule="evenodd" d="M8 0L8 1L9 1L9 2L8 2L8 5L9 5L9 6L8 6L8 7L9 7L9 6L10 6L10 8L8 8L8 12L10 12L10 14L9 14L9 13L7 13L7 12L3 12L3 11L2 11L2 10L4 10L4 8L0 8L0 9L2 9L2 10L1 10L1 13L0 13L0 14L2 14L2 15L1 15L1 16L2 16L2 15L4 15L4 16L3 16L3 18L1 18L1 17L0 17L0 19L5 19L5 20L4 20L4 21L3 21L3 20L0 20L0 22L1 22L1 21L3 21L3 22L2 22L2 26L1 26L1 29L2 29L2 30L0 30L0 31L1 31L1 33L0 33L0 38L1 38L1 39L3 39L3 40L4 40L4 41L3 41L3 42L4 42L4 43L3 43L3 44L4 44L4 46L3 46L3 45L2 45L2 44L1 44L1 43L2 43L2 42L1 42L1 41L2 41L2 40L0 40L0 42L1 42L1 43L0 43L0 45L1 45L1 46L2 46L2 47L0 47L0 49L1 49L1 48L2 48L2 50L3 50L3 51L1 51L1 50L0 50L0 51L1 51L1 52L0 52L0 53L1 53L1 57L2 57L2 55L3 55L3 54L4 54L4 55L5 55L5 56L6 56L6 57L7 57L7 58L5 58L5 57L4 57L4 56L3 56L3 57L4 57L4 59L7 59L7 60L6 60L6 61L7 61L7 60L8 60L8 62L9 62L9 65L8 65L8 69L9 69L9 68L10 68L10 69L11 69L11 68L12 68L12 69L15 69L15 68L16 68L16 69L18 69L18 68L16 68L16 66L17 66L17 67L20 67L20 69L21 69L21 68L22 68L22 69L23 69L23 68L24 68L24 69L25 69L25 68L26 68L26 67L25 67L25 66L26 66L26 64L27 64L27 63L28 63L28 61L31 61L31 60L32 60L32 62L31 62L31 66L28 66L28 65L27 65L27 68L28 68L28 69L30 69L30 67L31 67L31 68L33 68L33 65L34 65L34 68L35 68L35 67L38 67L38 68L39 68L39 69L41 69L41 68L42 68L42 69L43 69L43 68L42 68L42 67L41 67L41 66L42 66L42 65L40 65L40 64L41 64L41 62L39 62L39 61L40 61L40 60L41 60L41 61L42 61L42 60L41 60L41 59L42 59L42 58L43 58L43 56L41 56L41 55L43 55L43 54L44 54L44 55L46 55L46 54L47 54L47 58L50 58L50 59L48 59L48 60L47 60L47 59L46 59L46 60L45 60L45 62L46 62L46 63L47 63L47 62L46 62L46 61L49 61L49 62L48 62L48 64L49 64L49 65L48 65L48 66L47 66L47 65L46 65L46 68L45 68L45 69L48 69L48 68L47 68L47 67L49 67L49 69L53 69L53 68L50 68L50 66L49 66L49 65L51 65L51 66L52 66L52 67L56 67L56 68L57 68L57 69L58 69L58 68L57 68L57 66L58 66L58 67L59 67L59 68L60 68L60 69L61 69L61 68L60 68L60 67L61 67L61 66L59 66L59 65L58 65L58 62L57 62L57 63L56 63L56 59L57 59L57 60L59 60L59 59L57 59L57 57L58 57L58 55L59 55L59 56L61 56L61 57L60 57L60 62L59 62L59 63L60 63L60 65L63 65L63 66L64 66L64 65L67 65L67 66L68 66L68 65L69 65L69 63L65 63L65 61L67 61L67 62L69 62L69 61L68 61L68 60L66 60L66 59L69 59L69 58L68 58L68 57L67 57L67 56L69 56L69 55L68 55L68 54L69 54L69 52L68 52L68 51L65 51L65 53L62 53L62 52L64 52L64 51L61 51L61 54L60 54L60 52L59 52L59 51L60 51L60 50L62 50L62 49L61 49L61 47L64 47L64 46L63 46L63 45L62 45L62 43L61 43L61 42L63 42L63 41L64 41L64 43L67 43L67 44L68 44L68 42L69 42L69 39L65 39L65 38L63 38L63 41L62 41L62 40L59 40L59 38L60 38L60 39L61 39L61 38L62 38L62 37L65 37L65 36L66 36L66 35L67 35L67 37L68 37L68 38L69 38L69 37L68 37L68 36L69 36L69 32L65 32L65 31L63 31L63 30L64 30L64 28L62 28L62 27L61 27L61 28L62 28L62 29L63 29L63 30L62 30L62 31L63 31L63 32L59 32L59 34L58 34L58 37L56 37L56 36L55 36L55 35L56 35L56 34L55 34L55 33L54 33L54 35L52 35L52 34L53 34L53 32L54 32L54 31L51 31L51 30L54 30L54 29L56 29L56 30L55 30L55 32L56 32L56 30L57 30L57 28L55 28L55 27L53 27L53 25L50 25L50 27L49 27L49 28L50 28L50 29L51 29L51 30L50 30L50 31L49 31L49 29L47 29L47 28L46 28L46 27L48 27L48 26L46 26L46 25L47 25L47 24L48 24L48 25L49 25L49 22L50 22L50 23L53 23L53 24L54 24L54 25L55 25L55 26L56 26L56 23L57 23L57 27L58 27L58 31L60 31L60 27L59 27L59 26L58 26L58 24L59 24L59 25L61 25L61 26L63 26L63 25L61 25L61 24L65 24L65 25L64 25L64 27L65 27L65 29L66 29L66 30L67 30L67 31L68 31L68 30L67 30L67 29L68 29L68 28L69 28L69 27L68 27L68 28L67 28L67 26L68 26L68 25L69 25L69 21L65 21L65 20L61 20L61 19L59 19L59 18L60 18L60 17L59 17L59 16L61 16L61 17L64 17L64 15L62 15L62 14L63 14L63 13L62 13L62 12L65 12L65 13L64 13L64 14L65 14L65 17L66 17L66 16L67 16L67 15L66 15L66 14L67 14L67 12L68 12L68 11L69 11L69 10L68 10L68 9L69 9L69 8L68 8L68 9L67 9L67 8L64 8L64 10L63 10L63 11L62 11L62 12L61 12L61 10L62 10L62 8L61 8L61 6L60 6L60 7L59 7L59 4L58 4L58 7L57 7L57 6L56 6L56 7L55 7L55 6L54 6L54 7L53 7L53 6L52 6L52 4L49 4L49 3L50 3L50 2L47 2L47 1L50 1L50 0L47 0L47 1L46 1L46 0L44 0L44 2L43 2L43 6L42 6L42 7L41 7L41 4L40 4L40 5L39 5L39 4L38 4L38 2L37 2L37 3L36 3L36 2L35 2L35 0L33 0L33 1L34 1L34 2L29 2L29 1L30 1L30 0L28 0L28 2L26 2L26 1L25 1L25 0L23 0L23 1L22 1L22 2L23 2L23 1L25 1L25 2L26 2L26 3L25 3L25 4L26 4L26 5L25 5L25 6L24 6L24 7L25 7L25 8L27 8L27 9L30 9L30 10L29 10L29 11L27 11L27 10L26 10L26 9L25 9L25 10L24 10L24 9L23 9L23 8L22 8L22 7L23 7L23 5L24 5L24 3L23 3L23 4L22 4L22 7L21 7L21 6L20 6L20 7L21 7L21 8L22 8L22 9L23 9L23 11L22 11L22 12L24 12L24 13L26 13L26 12L27 12L27 15L29 15L29 16L31 16L31 17L30 17L30 18L29 18L29 17L28 17L28 16L26 16L26 14L25 14L25 16L24 16L24 14L23 14L23 13L22 13L22 16L20 16L20 15L19 15L19 14L21 14L21 13L20 13L20 12L17 12L17 13L16 13L16 9L17 9L17 10L19 10L19 11L21 11L21 10L20 10L20 9L18 9L18 8L19 8L19 6L18 6L18 7L17 7L17 4L20 4L20 5L21 5L21 3L20 3L20 2L21 2L21 1L19 1L19 0L17 0L17 1L19 1L19 2L18 2L18 3L14 3L14 5L15 5L15 4L16 4L16 7L15 7L15 6L14 6L14 7L13 7L13 6L12 6L12 8L14 8L14 7L15 7L15 8L16 8L16 9L13 9L13 10L12 10L12 9L11 9L11 10L12 10L12 11L10 11L10 8L11 8L11 6L10 6L10 5L9 5L9 4L10 4L10 3L11 3L11 4L12 4L12 5L13 5L13 4L12 4L12 3L11 3L11 2L12 2L12 1L11 1L11 2L10 2L10 0ZM15 0L15 1L16 1L16 0ZM31 0L31 1L32 1L32 0ZM37 0L37 1L38 1L38 0ZM39 0L39 1L40 1L40 2L39 2L39 3L42 3L42 1L43 1L43 0ZM53 0L53 2L52 2L52 1L51 1L51 3L54 3L54 4L56 4L56 5L57 5L57 4L56 4L56 3L55 3L55 0ZM56 0L56 1L61 1L61 0ZM9 2L9 3L10 3L10 2ZM28 2L28 3L26 3L26 4L28 4L28 6L27 6L27 7L28 7L28 8L29 8L29 7L30 7L30 6L29 6L29 5L31 5L31 4L29 4L29 2ZM58 2L58 3L59 3L59 2ZM32 3L32 4L33 4L33 3ZM34 3L34 4L36 4L36 3ZM44 3L44 4L45 4L45 3ZM46 3L46 5L45 5L45 8L44 8L44 6L43 6L43 9L45 9L45 10L46 10L46 11L44 11L44 10L43 10L43 11L44 11L44 13L43 13L43 12L41 12L41 13L42 13L42 14L43 14L43 15L41 15L41 14L40 14L40 11L42 11L42 10L41 10L41 9L42 9L42 8L41 8L41 7L40 7L40 6L39 6L39 5L38 5L38 4L37 4L37 7L38 7L38 6L39 6L39 8L37 8L37 10L38 10L38 11L37 11L37 12L36 12L36 9L35 9L35 10L34 10L34 9L32 9L32 10L34 10L34 11L32 11L32 13L31 13L31 14L29 14L29 12L28 12L28 14L29 14L29 15L32 15L32 17L31 17L31 19L29 19L29 18L28 18L28 17L26 17L26 16L25 16L25 17L24 17L24 16L22 16L22 18L26 18L26 20L24 20L24 21L26 21L26 22L24 22L24 23L28 23L28 24L29 24L29 25L28 25L28 26L31 26L31 25L34 25L34 26L35 26L35 27L33 27L33 26L32 26L32 27L33 27L33 28L30 28L30 27L29 27L29 30L28 30L28 31L25 31L25 29L24 29L24 30L23 30L23 28L24 28L24 27L25 27L25 28L28 28L28 27L26 27L26 25L27 25L27 24L26 24L26 25L24 25L24 27L23 27L23 25L22 25L22 24L23 24L23 23L21 23L21 19L20 19L20 16L19 16L19 15L17 15L17 14L19 14L19 13L17 13L17 14L16 14L16 13L15 13L15 12L14 12L14 10L13 10L13 11L12 11L12 12L11 12L11 13L12 13L12 12L13 12L13 14L14 14L14 15L15 15L15 14L16 14L16 15L17 15L17 19L16 19L16 18L15 18L15 19L14 19L14 18L13 18L13 17L12 17L12 18L11 18L11 16L12 16L12 15L9 15L9 16L8 16L8 17L9 17L9 19L8 19L8 20L7 20L7 19L6 19L6 18L7 18L7 17L6 17L6 16L7 16L7 15L5 15L5 13L4 13L4 15L5 15L5 19L6 19L6 20L5 20L5 21L6 21L6 22L7 22L7 23L3 23L3 24L4 24L4 25L5 25L5 24L7 24L7 25L6 25L6 26L8 26L8 27L5 27L5 26L4 26L4 27L5 27L5 28L3 28L3 30L2 30L2 32L3 32L3 30L9 30L9 31L10 31L10 32L11 32L11 33L9 33L9 34L12 34L12 36L14 36L14 37L13 37L13 39L10 39L10 41L11 41L11 40L12 40L12 41L13 41L13 42L12 42L12 43L11 43L11 42L10 42L10 43L9 43L9 42L8 42L8 41L9 41L9 40L8 40L8 41L6 41L6 40L7 40L7 39L8 39L8 37L5 37L5 38L3 38L3 39L5 39L5 38L7 38L7 39L6 39L6 40L5 40L5 44L7 44L7 45L6 45L6 46L7 46L7 47L6 47L6 48L5 48L5 47L3 47L3 48L4 48L4 49L3 49L3 50L5 50L5 49L6 49L6 50L9 50L9 51L10 51L10 53L9 53L9 55L8 55L8 56L7 56L7 55L6 55L6 54L8 54L8 51L6 51L6 52L7 52L7 53L4 53L4 51L3 51L3 53L2 53L2 54L3 54L3 53L4 53L4 54L5 54L5 55L6 55L6 56L7 56L7 57L8 57L8 59L9 59L9 62L11 62L11 63L10 63L10 64L11 64L11 66L10 66L10 65L9 65L9 66L10 66L10 67L11 67L11 66L12 66L12 67L13 67L13 68L15 68L15 65L17 65L17 63L20 63L20 64L21 64L21 63L22 63L22 65L20 65L20 67L23 67L23 66L22 66L22 65L24 65L24 66L25 66L25 64L26 64L26 62L25 62L25 60L26 60L26 61L27 61L27 60L30 60L30 58L29 58L29 57L31 57L31 59L32 59L32 60L35 60L35 59L36 59L36 60L37 60L37 59L38 59L38 58L39 58L39 60L40 60L40 58L39 58L39 57L38 57L38 58L37 58L37 57L36 57L36 56L40 56L40 54L38 54L38 53L39 53L39 52L37 52L37 53L35 53L35 51L37 51L37 50L36 50L36 49L38 49L38 48L39 48L39 49L40 49L40 50L38 50L38 51L43 51L43 52L42 52L42 54L43 54L43 52L44 52L44 50L45 50L45 48L46 48L46 50L47 50L47 54L49 54L49 56L48 56L48 57L49 57L49 56L50 56L50 55L51 55L51 56L52 56L52 54L51 54L51 52L52 52L52 53L53 53L53 54L54 54L54 55L53 55L53 57L52 57L52 58L51 58L51 57L50 57L50 58L51 58L51 59L50 59L50 60L49 60L49 61L50 61L50 60L51 60L51 62L50 62L50 63L49 63L49 64L51 64L51 62L55 62L55 61L53 61L53 60L52 60L52 58L53 58L53 57L57 57L57 56L54 56L54 55L55 55L55 50L57 50L57 52L58 52L58 53L57 53L57 54L56 54L56 55L58 55L58 53L59 53L59 52L58 52L58 50L60 50L60 46L59 46L59 45L61 45L61 44L60 44L60 42L59 42L59 43L58 43L58 42L55 42L55 40L57 40L57 39L58 39L58 38L59 38L59 37L58 37L58 38L56 38L56 37L53 37L53 36L52 36L52 35L51 35L51 36L50 36L50 35L49 35L49 36L50 36L50 37L49 37L49 38L47 38L47 37L46 37L46 38L45 38L45 36L44 36L44 38L43 38L43 35L45 35L45 34L46 34L46 35L47 35L47 36L48 36L48 35L47 35L47 31L46 31L46 29L43 29L43 28L44 28L44 25L46 25L46 23L48 23L48 22L49 22L49 21L50 21L50 22L51 22L51 21L50 21L50 20L52 20L52 19L53 19L53 21L54 21L54 19L55 19L55 21L57 21L57 22L58 22L58 23L59 23L59 24L61 24L61 23L62 23L62 22L63 22L63 23L66 23L66 24L67 24L67 23L68 23L68 22L67 22L67 23L66 23L66 22L63 22L63 21L62 21L62 22L61 22L61 23L59 23L59 21L61 21L61 20L59 20L59 19L58 19L58 20L56 20L56 19L57 19L57 18L55 18L55 17L54 17L54 16L55 16L55 15L56 15L56 16L57 16L57 17L58 17L58 14L60 14L60 15L61 15L61 16L62 16L62 15L61 15L61 12L60 12L60 11L59 11L59 9L61 9L61 8L59 8L59 7L58 7L58 8L57 8L57 7L56 7L56 11L57 11L57 12L56 12L56 13L53 13L53 12L54 12L54 11L55 11L55 10L53 10L53 9L55 9L55 7L54 7L54 8L53 8L53 9L52 9L52 8L50 8L50 6L49 6L49 4L48 4L48 3ZM60 3L60 5L61 5L61 3ZM47 4L47 5L46 5L46 7L47 7L47 5L48 5L48 4ZM33 5L33 8L36 8L36 5ZM25 6L25 7L26 7L26 6ZM28 6L28 7L29 7L29 6ZM31 6L31 8L32 8L32 6ZM34 6L34 7L35 7L35 6ZM48 6L48 7L49 7L49 6ZM51 6L51 7L52 7L52 6ZM16 7L16 8L17 8L17 7ZM6 8L6 9L7 9L7 8ZM39 8L39 9L41 9L41 8ZM46 8L46 9L47 9L47 11L46 11L46 13L44 13L44 16L43 16L43 18L42 18L42 16L41 16L41 17L40 17L40 14L39 14L39 13L38 13L38 12L37 12L37 15L38 15L38 17L39 17L39 20L38 20L38 19L37 19L37 18L36 18L36 17L35 17L35 18L34 18L34 19L31 19L31 21L32 21L32 22L31 22L31 24L30 24L30 21L29 21L29 20L28 20L28 21L29 21L29 22L28 22L28 23L29 23L29 24L30 24L30 25L31 25L31 24L32 24L32 22L33 22L33 24L35 24L35 25L37 25L37 24L36 24L36 23L34 23L34 22L38 22L38 23L39 23L39 22L44 22L44 21L43 21L43 18L44 18L44 20L45 20L45 21L46 21L46 19L45 19L45 18L47 18L47 19L48 19L48 20L47 20L47 21L48 21L48 20L49 20L49 19L50 19L50 18L49 18L49 17L48 17L48 18L47 18L47 17L46 17L46 16L45 16L45 15L47 15L47 14L46 14L46 13L49 13L49 14L48 14L48 16L49 16L49 14L51 14L51 12L52 12L52 9L51 9L51 11L50 11L50 8L49 8L49 9L48 9L48 8ZM58 8L58 9L59 9L59 8ZM65 9L65 10L64 10L64 11L65 11L65 10L66 10L66 9ZM5 10L5 11L7 11L7 10ZM30 10L30 11L31 11L31 10ZM34 11L34 13L35 13L35 14L33 14L33 13L32 13L32 14L33 14L33 17L32 17L32 18L33 18L33 17L34 17L34 15L35 15L35 16L36 16L36 12L35 12L35 11ZM47 11L47 12L48 12L48 11ZM66 11L66 12L67 12L67 11ZM2 12L2 13L3 13L3 12ZM49 12L49 13L50 13L50 12ZM57 12L57 14L58 14L58 13L60 13L60 12ZM6 13L6 14L7 14L7 13ZM14 13L14 14L15 14L15 13ZM52 13L52 15L51 15L51 19L52 19L52 18L53 18L53 19L54 19L54 17L52 17L52 15L55 15L55 14L53 14L53 13ZM68 15L68 16L69 16L69 15ZM18 16L18 17L19 17L19 16ZM44 17L44 18L45 18L45 17ZM68 17L68 18L67 18L67 20L69 20L69 19L68 19L68 18L69 18L69 17ZM48 18L48 19L49 19L49 18ZM62 18L62 19L63 19L63 18ZM65 18L65 19L66 19L66 18ZM11 19L11 20L12 20L12 19ZM15 19L15 20L16 20L16 23L14 23L14 21L13 21L13 23L12 23L12 21L10 21L10 20L9 20L9 22L8 22L8 21L7 21L7 20L6 20L6 21L7 21L7 22L8 22L8 24L10 24L10 25L12 25L12 26L10 26L10 28L11 28L11 30L10 30L10 31L11 31L11 32L12 32L12 34L14 34L14 33L15 33L15 34L16 34L16 35L15 35L15 38L14 38L14 39L17 39L17 40L19 40L19 41L21 41L21 42L20 42L20 44L19 44L19 43L17 43L17 44L16 44L16 45L18 45L18 44L19 44L19 46L18 46L18 48L17 48L17 50L16 50L16 47L17 47L17 46L15 46L15 45L14 45L14 44L15 44L15 43L13 43L13 44L9 44L9 45L7 45L7 46L8 46L8 49L9 49L9 45L10 45L10 47L11 47L11 48L12 48L12 47L15 47L15 48L14 48L14 49L15 49L15 51L17 51L17 52L20 52L20 53L22 53L22 52L23 52L23 54L22 54L22 56L21 56L21 55L20 55L20 54L17 54L17 53L16 53L16 52L15 52L15 53L14 53L14 50L13 50L13 49L12 49L12 50L11 50L11 51L13 51L13 52L12 52L12 53L11 53L11 54L10 54L10 55L12 55L12 56L11 56L11 57L9 57L9 59L11 59L11 58L13 58L13 57L14 57L14 58L15 58L15 57L14 57L14 55L12 55L12 54L15 54L15 56L16 56L16 59L15 59L15 60L14 60L14 61L13 61L13 59L12 59L12 61L11 61L11 60L10 60L10 61L11 61L11 62L12 62L12 61L13 61L13 62L16 62L16 63L15 63L15 64L13 64L13 67L14 67L14 65L15 65L15 64L16 64L16 63L17 63L17 62L16 62L16 59L17 59L17 60L18 60L18 62L19 62L19 61L20 61L20 63L21 63L21 62L22 62L22 63L24 63L24 64L25 64L25 63L24 63L24 62L22 62L22 61L21 61L21 59L22 59L22 56L23 56L23 57L24 57L24 58L25 58L25 59L26 59L26 60L27 60L27 59L28 59L28 58L27 58L27 57L26 57L26 58L25 58L25 57L24 57L24 56L25 56L25 55L23 55L23 54L24 54L24 52L25 52L25 53L28 53L28 54L29 54L29 52L31 52L31 53L32 53L32 54L34 54L34 56L33 56L33 55L32 55L32 56L31 56L31 57L32 57L32 58L35 58L35 53L33 53L33 52L31 52L31 51L33 51L33 48L38 48L38 47L36 47L36 46L38 46L38 44L39 44L39 47L40 47L40 48L42 48L42 49L44 49L44 48L43 48L43 47L44 47L44 45L42 45L42 44L41 44L41 45L40 45L40 44L39 44L39 43L38 43L38 42L37 42L37 37L38 37L38 38L39 38L39 37L38 37L38 34L37 34L37 32L38 32L38 31L40 31L40 32L39 32L39 33L40 33L40 34L39 34L39 36L41 36L41 37L40 37L40 38L41 38L41 39L39 39L39 42L40 42L40 43L43 43L43 42L42 42L42 41L41 41L41 42L40 42L40 40L41 40L41 39L43 39L43 38L41 38L41 37L42 37L42 36L41 36L41 35L43 35L43 32L42 32L42 33L41 33L41 31L40 31L40 30L41 30L41 29L42 29L42 28L43 28L43 27L42 27L42 26L41 26L41 27L42 27L42 28L41 28L41 29L39 29L39 26L40 26L40 25L38 25L38 28L37 28L37 27L35 27L35 30L34 30L34 28L33 28L33 29L32 29L32 30L33 30L33 31L31 31L31 30L30 30L30 31L29 31L29 32L28 32L28 35L27 35L27 34L26 34L26 35L25 35L25 37L26 37L26 38L24 38L24 39L27 39L27 40L25 40L25 41L24 41L24 40L23 40L23 41L21 41L21 39L19 39L19 38L18 38L18 39L17 39L17 38L16 38L16 37L20 37L20 38L22 38L22 39L23 39L23 37L21 37L21 36L24 36L24 35L23 35L23 34L25 34L25 33L23 33L23 32L25 32L25 31L23 31L23 30L22 30L22 28L23 28L23 27L22 27L22 26L21 26L21 24L20 24L20 23L19 23L19 24L18 24L18 23L17 23L17 21L18 21L18 22L20 22L20 21L18 21L18 20L20 20L20 19L17 19L17 20L16 20L16 19ZM22 19L22 20L23 20L23 19ZM34 19L34 20L33 20L33 22L34 22L34 20L35 20L35 19ZM36 19L36 21L37 21L37 19ZM41 19L41 21L42 21L42 19ZM22 21L22 22L23 22L23 21ZM9 22L9 23L10 23L10 22ZM0 23L0 25L1 25L1 23ZM11 23L11 24L12 24L12 23ZM13 23L13 24L14 24L14 23ZM41 23L41 24L42 24L42 25L44 25L44 23L43 23L43 24L42 24L42 23ZM54 23L54 24L55 24L55 23ZM16 24L16 25L17 25L17 26L15 26L15 25L13 25L13 26L12 26L12 27L11 27L11 28L14 28L14 29L13 29L13 30L14 30L14 31L13 31L13 32L14 32L14 31L15 31L15 30L14 30L14 29L19 29L19 30L21 30L21 29L19 29L19 28L22 28L22 27L19 27L19 28L16 28L16 27L18 27L18 24ZM8 25L8 26L9 26L9 25ZM2 26L2 27L3 27L3 26ZM45 26L45 27L46 27L46 26ZM51 26L51 27L50 27L50 28L51 28L51 29L53 29L53 28L52 28L52 26ZM65 26L65 27L66 27L66 26ZM14 27L14 28L15 28L15 27ZM5 28L5 29L7 29L7 28ZM36 28L36 30L39 30L39 29L37 29L37 28ZM26 29L26 30L27 30L27 29ZM16 30L16 34L17 34L17 35L18 35L18 34L17 34L17 33L19 33L19 34L22 34L22 32L23 32L23 31L22 31L22 32L19 32L19 31L18 31L18 30ZM43 30L43 31L45 31L45 30ZM5 31L5 32L8 32L8 31ZM35 31L35 32L36 32L36 31ZM48 31L48 33L50 33L50 34L52 34L52 32L51 32L51 33L50 33L50 32L49 32L49 31ZM26 32L26 33L27 33L27 32ZM29 32L29 33L30 33L30 34L29 34L29 35L28 35L28 38L29 38L29 36L31 36L31 34L32 34L32 32ZM57 32L57 33L58 33L58 32ZM3 33L3 34L4 34L4 33ZM5 33L5 36L8 36L8 33ZM33 33L33 36L36 36L36 33ZM44 33L44 34L45 34L45 33ZM61 33L61 36L64 36L64 33ZM67 33L67 34L68 34L68 33ZM6 34L6 35L7 35L7 34ZM34 34L34 35L35 35L35 34ZM59 34L59 36L60 36L60 34ZM62 34L62 35L63 35L63 34ZM65 34L65 35L66 35L66 34ZM1 35L1 38L2 38L2 36L3 36L3 35ZM9 35L9 36L11 36L11 35ZM20 35L20 36L21 36L21 35ZM26 36L26 37L27 37L27 36ZM9 37L9 38L11 38L11 37ZM30 37L30 38L31 38L31 37ZM32 37L32 39L28 39L28 40L27 40L27 41L26 41L26 42L27 42L27 43L28 43L28 45L27 45L27 44L24 44L24 43L25 43L25 42L23 42L23 44L24 44L24 45L25 45L25 46L23 46L23 45L21 45L21 44L22 44L22 43L21 43L21 44L20 44L20 46L21 46L21 47L20 47L20 48L18 48L18 51L19 51L19 49L20 49L20 50L21 50L21 51L23 51L23 50L24 50L24 51L25 51L25 52L27 52L27 51L26 51L26 50L25 50L25 49L27 49L27 50L31 50L31 49L32 49L32 48L33 48L33 47L34 47L34 46L35 46L35 45L36 45L36 44L37 44L37 43L36 43L36 40L34 40L34 41L33 41L33 42L32 42L32 39L33 39L33 38L35 38L35 39L36 39L36 37ZM50 37L50 39L52 39L52 40L51 40L51 41L52 41L52 43L51 43L51 42L50 42L50 43L51 43L51 44L50 44L50 45L53 45L53 46L52 46L52 48L54 48L54 49L56 49L56 48L57 48L57 50L58 50L58 49L59 49L59 48L58 48L58 46L57 46L57 47L56 47L56 45L53 45L53 44L52 44L52 43L53 43L53 42L54 42L54 40L53 40L53 37ZM44 38L44 39L45 39L45 40L43 40L43 41L45 41L45 42L44 42L44 43L45 43L45 42L46 42L46 43L47 43L47 42L49 42L49 41L50 41L50 40L49 40L49 39L48 39L48 40L49 40L49 41L46 41L46 40L47 40L47 39L45 39L45 38ZM13 40L13 41L14 41L14 40ZM15 40L15 41L16 41L16 42L18 42L18 41L16 41L16 40ZM28 40L28 41L27 41L27 42L29 42L29 40ZM30 40L30 41L31 41L31 40ZM52 40L52 41L53 41L53 40ZM58 40L58 41L59 41L59 40ZM34 41L34 42L35 42L35 41ZM6 42L6 43L7 43L7 44L8 44L8 43L7 43L7 42ZM30 42L30 43L29 43L29 45L30 45L30 44L31 44L31 42ZM32 43L32 45L33 45L33 46L34 46L34 45L35 45L35 44L33 44L33 43ZM48 43L48 44L47 44L47 47L46 47L46 48L47 48L47 50L48 50L48 51L49 51L49 50L50 50L50 51L52 51L52 50L53 50L53 49L52 49L52 50L51 50L51 48L50 48L50 46L49 46L49 45L48 45L48 44L49 44L49 43ZM56 43L56 44L57 44L57 43ZM45 44L45 45L46 45L46 44ZM12 45L12 46L13 46L13 45ZM41 45L41 47L42 47L42 45ZM66 45L66 46L65 46L65 48L66 48L66 46L67 46L67 49L66 49L66 50L68 50L68 47L69 47L69 46L68 46L68 45ZM22 46L22 48L21 48L21 50L23 50L23 49L25 49L25 47L24 47L24 48L23 48L23 46ZM26 46L26 47L27 47L27 48L28 48L28 46ZM29 46L29 47L30 47L30 46ZM54 46L54 48L55 48L55 46ZM31 47L31 48L29 48L29 49L31 49L31 48L32 48L32 47ZM6 48L6 49L7 49L7 48ZM22 48L22 49L23 49L23 48ZM49 48L49 49L50 49L50 48ZM34 49L34 51L35 51L35 49ZM63 49L63 50L64 50L64 49ZM28 51L28 52L29 52L29 51ZM45 51L45 53L46 53L46 51ZM53 51L53 52L54 52L54 51ZM40 52L40 53L41 53L41 52ZM49 52L49 53L50 53L50 52ZM66 52L66 53L65 53L65 54L62 54L62 55L61 55L61 56L62 56L62 57L61 57L61 58L63 58L63 59L65 59L65 57L66 57L66 58L67 58L67 57L66 57L66 56L67 56L67 54L68 54L68 52ZM66 53L66 54L67 54L67 53ZM30 54L30 55L31 55L31 54ZM59 54L59 55L60 55L60 54ZM16 55L16 56L17 56L17 55ZM64 55L64 56L65 56L65 55ZM18 56L18 57L17 57L17 58L19 58L19 60L20 60L20 59L21 59L21 57L20 57L20 56ZM32 56L32 57L33 57L33 56ZM45 56L45 57L46 57L46 56ZM0 58L0 61L1 61L1 58ZM2 58L2 59L3 59L3 58ZM44 58L44 59L43 59L43 61L44 61L44 59L45 59L45 58ZM54 59L54 60L55 60L55 59ZM61 59L61 60L62 60L62 59ZM3 60L3 61L5 61L5 60ZM23 60L23 61L24 61L24 60ZM33 61L33 64L36 64L36 61ZM61 61L61 64L64 64L64 61ZM34 62L34 63L35 63L35 62ZM37 62L37 64L38 64L38 63L39 63L39 62ZM62 62L62 63L63 63L63 62ZM11 63L11 64L12 64L12 63ZM44 63L44 64L43 64L43 65L45 65L45 63ZM52 63L52 65L53 65L53 63ZM54 63L54 64L55 64L55 63ZM18 64L18 66L19 66L19 64ZM67 64L67 65L68 65L68 64ZM36 65L36 66L37 66L37 65ZM38 65L38 66L39 66L39 68L41 68L41 67L40 67L40 66L39 66L39 65ZM54 65L54 66L55 66L55 65ZM44 66L44 67L45 67L45 66ZM62 67L62 69L65 69L65 67ZM68 67L68 68L69 68L69 67ZM66 68L66 69L67 69L67 68ZM0 0L0 7L7 7L7 0ZM1 1L1 6L6 6L6 1ZM2 2L2 5L5 5L5 2ZM62 0L62 7L69 7L69 0ZM63 1L63 6L68 6L68 1ZM64 2L64 5L67 5L67 2ZM0 62L0 69L7 69L7 62ZM1 63L1 68L6 68L6 63ZM2 64L2 67L5 67L5 64Z" fill="#000000"/></g></g></svg>
