<?xml version="1.0" encoding="UTF-8"?>
<svg xmlns="http://www.w3.org/2000/svg" version="1.1" width="300" height="300" viewBox="0 0 300 300"><rect x="0" y="0" width="300" height="300" fill="#ffffff"/><g transform="scale(4.615)"><g transform="translate(0,0)"><path fill-rule="evenodd" d="M8 0L8 1L9 1L9 0ZM10 0L10 4L11 4L11 5L10 5L10 7L11 7L11 6L12 6L12 8L13 8L13 6L12 6L12 5L13 5L13 4L14 4L14 2L16 2L16 1L17 1L17 3L18 3L18 4L19 4L19 6L18 6L18 5L17 5L17 4L15 4L15 6L14 6L14 11L16 11L16 10L15 10L15 9L16 9L16 8L17 8L17 13L19 13L19 14L18 14L18 15L17 15L17 14L16 14L16 16L15 16L15 15L13 15L13 14L15 14L15 13L16 13L16 12L15 12L15 13L13 13L13 10L12 10L12 9L11 9L11 8L8 8L8 10L10 10L10 11L11 11L11 12L10 12L10 13L8 13L8 12L9 12L9 11L8 11L8 12L6 12L6 11L7 11L7 10L6 10L6 11L5 11L5 9L4 9L4 8L0 8L0 10L3 10L3 11L2 11L2 12L3 12L3 11L4 11L4 13L3 13L3 14L4 14L4 13L8 13L8 16L5 16L5 18L3 18L3 21L2 21L2 20L1 20L1 19L2 19L2 17L3 17L3 16L2 16L2 14L1 14L1 13L0 13L0 14L1 14L1 15L0 15L0 17L1 17L1 18L0 18L0 24L1 24L1 25L0 25L0 26L1 26L1 27L0 27L0 31L1 31L1 32L0 32L0 33L1 33L1 34L0 34L0 35L1 35L1 36L0 36L0 38L3 38L3 37L4 37L4 39L3 39L3 40L2 40L2 39L1 39L1 40L0 40L0 41L1 41L1 40L2 40L2 42L1 42L1 43L0 43L0 44L1 44L1 46L0 46L0 48L1 48L1 47L2 47L2 48L4 48L4 51L7 51L7 52L5 52L5 55L7 55L7 54L6 54L6 53L8 53L8 52L9 52L9 51L10 51L10 52L11 52L11 51L12 51L12 53L9 53L9 55L8 55L8 56L6 56L6 57L8 57L8 58L9 58L9 61L8 61L8 65L12 65L12 64L13 64L13 63L15 63L15 64L14 64L14 65L15 65L15 64L16 64L16 65L17 65L17 64L16 64L16 63L18 63L18 62L13 62L13 61L12 61L12 60L13 60L13 59L12 59L12 57L17 57L17 58L19 58L19 59L18 59L18 60L17 60L17 59L16 59L16 58L14 58L14 59L16 59L16 60L17 60L17 61L20 61L20 62L21 62L21 65L22 65L22 64L23 64L23 63L24 63L24 65L29 65L29 64L31 64L31 63L30 63L30 62L33 62L33 63L32 63L32 65L33 65L33 63L35 63L35 64L34 64L34 65L35 65L35 64L36 64L36 63L37 63L37 62L40 62L40 63L38 63L38 64L37 64L37 65L40 65L40 63L41 63L41 64L42 64L42 65L45 65L45 64L46 64L46 65L47 65L47 64L49 64L49 65L50 65L50 63L51 63L51 65L52 65L52 63L51 63L51 61L50 61L50 60L54 60L54 59L52 59L52 58L50 58L50 57L53 57L53 58L55 58L55 61L57 61L57 65L59 65L59 64L58 64L58 63L60 63L60 64L62 64L62 65L64 65L64 63L65 63L65 62L64 62L64 63L63 63L63 62L62 62L62 61L61 61L61 56L63 56L63 55L62 55L62 54L59 54L59 56L58 56L58 55L57 55L57 56L55 56L55 57L53 57L53 55L54 55L54 53L55 53L55 54L58 54L58 53L55 53L55 52L56 52L56 51L59 51L59 52L60 52L60 53L61 53L61 52L62 52L62 50L63 50L63 52L65 52L65 49L64 49L64 48L65 48L65 47L64 47L64 46L63 46L63 45L65 45L65 43L64 43L64 44L63 44L63 43L62 43L62 42L63 42L63 40L64 40L64 41L65 41L65 38L64 38L64 37L65 37L65 36L60 36L60 35L61 35L61 32L62 32L62 34L63 34L63 35L64 35L64 34L63 34L63 33L65 33L65 31L64 31L64 32L63 32L63 31L62 31L62 30L61 30L61 29L62 29L62 28L61 28L61 27L60 27L60 26L58 26L58 25L59 25L59 24L60 24L60 25L61 25L61 26L62 26L62 25L63 25L63 24L64 24L64 22L65 22L65 21L63 21L63 22L62 22L62 20L63 20L63 19L62 19L62 18L65 18L65 17L64 17L64 16L62 16L62 15L65 15L65 13L63 13L63 12L62 12L62 13L61 13L61 11L60 11L60 10L61 10L61 9L63 9L63 8L60 8L60 9L59 9L59 11L57 11L57 10L56 10L56 9L54 9L54 7L55 7L55 5L53 5L53 6L52 6L52 7L51 7L51 6L50 6L50 7L49 7L49 5L52 5L52 4L51 4L51 3L53 3L53 4L56 4L56 5L57 5L57 4L56 4L56 3L57 3L57 1L56 1L56 0L55 0L55 1L56 1L56 3L55 3L55 2L54 2L54 3L53 3L53 1L54 1L54 0L51 0L51 1L52 1L52 2L50 2L50 4L49 4L49 3L47 3L47 2L49 2L49 1L50 1L50 0L49 0L49 1L46 1L46 3L47 3L47 5L46 5L46 4L44 4L44 2L45 2L45 1L43 1L43 0L40 0L40 1L38 1L38 0L37 0L37 1L38 1L38 4L37 4L37 2L36 2L36 3L33 3L33 4L32 4L32 2L33 2L33 1L32 1L32 0L29 0L29 1L28 1L28 2L27 2L27 0L26 0L26 2L27 2L27 3L28 3L28 4L25 4L25 5L24 5L24 7L23 7L23 6L22 6L22 8L21 8L21 5L22 5L22 3L23 3L23 4L24 4L24 2L25 2L25 0L21 0L21 1L20 1L20 0L19 0L19 3L18 3L18 0L14 0L14 1L13 1L13 0ZM35 0L35 1L36 1L36 0ZM21 1L21 2L20 2L20 3L19 3L19 4L20 4L20 3L21 3L21 2L23 2L23 1ZM30 1L30 3L31 3L31 2L32 2L32 1ZM40 1L40 2L39 2L39 5L37 5L37 7L38 7L38 6L39 6L39 7L40 7L40 8L43 8L43 10L44 10L44 9L45 9L45 11L42 11L42 9L41 9L41 10L40 10L40 9L39 9L39 8L38 8L38 10L36 10L36 11L35 11L35 12L36 12L36 11L38 11L38 12L39 12L39 13L40 13L40 14L38 14L38 16L39 16L39 15L40 15L40 17L38 17L38 18L39 18L39 19L36 19L36 21L37 21L37 20L42 20L42 21L38 21L38 22L37 22L37 23L36 23L36 24L37 24L37 26L36 26L36 27L35 27L35 25L34 25L34 24L35 24L35 23L34 23L34 22L35 22L35 18L37 18L37 16L36 16L36 14L37 14L37 13L33 13L33 12L34 12L34 10L35 10L35 9L37 9L37 8L36 8L36 6L35 6L35 9L32 9L32 10L31 10L31 11L30 11L30 10L29 10L29 9L30 9L30 6L29 6L29 4L28 4L28 6L27 6L27 5L26 5L26 6L25 6L25 7L26 7L26 6L27 6L27 7L28 7L28 11L27 11L27 10L26 10L26 9L27 9L27 8L25 8L25 11L24 11L24 12L23 12L23 9L24 9L24 8L23 8L23 9L22 9L22 10L21 10L21 9L20 9L20 8L18 8L18 9L19 9L19 10L18 10L18 12L19 12L19 13L20 13L20 14L21 14L21 16L22 16L22 17L23 17L23 15L24 15L24 19L23 19L23 20L22 20L22 18L21 18L21 17L19 17L19 16L16 16L16 17L17 17L17 18L18 18L18 19L19 19L19 18L20 18L20 20L19 20L19 21L20 21L20 22L19 22L19 23L18 23L18 24L17 24L17 23L16 23L16 20L15 20L15 19L16 19L16 18L15 18L15 16L12 16L12 17L13 17L13 18L12 18L12 19L13 19L13 21L8 21L8 20L9 20L9 17L10 17L10 18L11 18L11 15L10 15L10 14L9 14L9 15L10 15L10 16L8 16L8 17L6 17L6 18L7 18L7 19L5 19L5 21L6 21L6 22L4 22L4 21L3 21L3 22L2 22L2 21L1 21L1 23L2 23L2 24L5 24L5 25L6 25L6 26L8 26L8 27L9 27L9 29L10 29L10 30L11 30L11 29L10 29L10 28L11 28L11 27L12 27L12 28L13 28L13 29L14 29L14 28L16 28L16 29L15 29L15 33L14 33L14 32L13 32L13 31L14 31L14 30L12 30L12 31L10 31L10 33L9 33L9 34L10 34L10 35L9 35L9 36L11 36L11 37L13 37L13 38L11 38L11 40L10 40L10 39L9 39L9 40L8 40L8 38L7 38L7 37L8 37L8 35L5 35L5 37L6 37L6 38L5 38L5 42L3 42L3 43L2 43L2 44L3 44L3 45L2 45L2 47L5 47L5 49L6 49L6 50L8 50L8 51L9 51L9 48L8 48L8 49L6 49L6 48L7 48L7 47L6 47L6 46L8 46L8 47L11 47L11 48L12 48L12 50L13 50L13 48L14 48L14 47L13 47L13 44L14 44L14 43L15 43L15 45L14 45L14 46L15 46L15 47L16 47L16 48L15 48L15 49L16 49L16 51L17 51L17 52L15 52L15 50L14 50L14 51L13 51L13 53L12 53L12 54L11 54L11 56L10 56L10 55L9 55L9 57L10 57L10 60L12 60L12 59L11 59L11 57L12 57L12 54L14 54L14 55L13 55L13 56L16 56L16 55L15 55L15 53L17 53L17 54L20 54L20 55L18 55L18 57L19 57L19 56L20 56L20 55L21 55L21 57L20 57L20 58L22 58L22 59L20 59L20 61L21 61L21 60L22 60L22 61L23 61L23 60L25 60L25 59L23 59L23 58L22 58L22 56L24 56L24 57L25 57L25 58L27 58L27 59L26 59L26 61L24 61L24 63L26 63L26 64L29 64L29 63L27 63L27 62L30 62L30 61L28 61L28 58L29 58L29 60L30 60L30 56L29 56L29 55L32 55L32 54L33 54L33 56L35 56L35 54L34 54L34 52L35 52L35 53L37 53L37 55L36 55L36 57L35 57L35 58L37 58L37 57L38 57L38 59L39 59L39 60L38 60L38 61L41 61L41 62L42 62L42 63L43 63L43 64L45 64L45 63L46 63L46 62L47 62L47 63L50 63L50 61L49 61L49 62L48 62L48 61L46 61L46 62L45 62L45 59L44 59L44 61L41 61L41 60L40 60L40 58L39 58L39 57L38 57L38 56L39 56L39 55L40 55L40 56L41 56L41 57L42 57L42 56L43 56L43 57L44 57L44 58L46 58L46 60L49 60L49 58L48 58L48 57L50 57L50 55L49 55L49 56L48 56L48 57L47 57L47 55L48 55L48 54L49 54L49 53L50 53L50 54L51 54L51 56L52 56L52 55L53 55L53 52L55 52L55 50L59 50L59 51L60 51L60 52L61 52L61 51L60 51L60 50L62 50L62 49L63 49L63 50L64 50L64 49L63 49L63 47L62 47L62 45L63 45L63 44L62 44L62 45L61 45L61 44L60 44L60 45L61 45L61 47L60 47L60 46L59 46L59 45L58 45L58 47L57 47L57 45L55 45L55 44L57 44L57 43L58 43L58 44L59 44L59 40L60 40L60 42L61 42L61 40L60 40L60 39L61 39L61 37L59 37L59 35L57 35L57 36L58 36L58 37L59 37L59 38L60 38L60 39L59 39L59 40L58 40L58 38L56 38L56 39L55 39L55 37L56 37L56 33L55 33L55 31L54 31L54 33L55 33L55 34L53 34L53 33L52 33L52 34L51 34L51 33L50 33L50 34L49 34L49 32L50 32L50 31L47 31L47 32L48 32L48 35L49 35L49 37L50 37L50 36L51 36L51 37L52 37L52 38L49 38L49 40L47 40L47 39L48 39L48 38L47 38L47 37L48 37L48 36L47 36L47 33L45 33L45 32L46 32L46 28L45 28L45 27L44 27L44 28L45 28L45 29L43 29L43 26L44 26L44 25L45 25L45 24L46 24L46 27L47 27L47 29L48 29L48 30L51 30L51 32L53 32L53 30L51 30L51 29L49 29L49 28L52 28L52 29L53 29L53 27L52 27L52 26L51 26L51 27L50 27L50 26L48 26L48 25L47 25L47 24L48 24L48 23L49 23L49 22L48 22L48 21L49 21L49 20L50 20L50 19L49 19L49 16L50 16L50 18L51 18L51 19L52 19L52 20L53 20L53 19L52 19L52 18L54 18L54 20L56 20L56 23L55 23L55 24L51 24L51 23L50 23L50 24L51 24L51 25L53 25L53 26L54 26L54 27L55 27L55 28L56 28L56 27L55 27L55 24L56 24L56 25L58 25L58 24L59 24L59 23L58 23L58 22L59 22L59 21L61 21L61 20L60 20L60 19L61 19L61 18L60 18L60 17L61 17L61 16L60 16L60 15L62 15L62 14L60 14L60 15L58 15L58 14L59 14L59 13L60 13L60 12L59 12L59 13L58 13L58 14L56 14L56 13L54 13L54 12L57 12L57 11L56 11L56 10L54 10L54 11L52 11L52 10L51 10L51 8L50 8L50 10L48 10L48 11L49 11L49 12L51 12L51 13L52 13L52 14L51 14L51 15L50 15L50 13L48 13L48 12L45 12L45 11L46 11L46 10L47 10L47 9L49 9L49 8L48 8L48 6L47 6L47 7L46 7L46 5L43 5L43 4L41 4L41 3L40 3L40 2L41 2L41 1ZM42 1L42 3L43 3L43 1ZM8 2L8 5L9 5L9 2ZM11 2L11 3L12 3L12 4L13 4L13 3L12 3L12 2ZM28 2L28 3L29 3L29 2ZM35 4L35 5L36 5L36 4ZM16 5L16 6L15 6L15 7L16 7L16 6L17 6L17 7L18 7L18 6L17 6L17 5ZM31 5L31 8L34 8L34 5ZM39 5L39 6L40 6L40 7L41 7L41 6L40 6L40 5ZM8 6L8 7L9 7L9 6ZM19 6L19 7L20 7L20 6ZM28 6L28 7L29 7L29 6ZM32 6L32 7L33 7L33 6ZM42 6L42 7L43 7L43 8L45 8L45 9L46 9L46 8L45 8L45 6L44 6L44 7L43 7L43 6ZM53 6L53 7L52 7L52 8L53 8L53 7L54 7L54 6ZM56 6L56 8L57 8L57 9L58 9L58 8L57 8L57 6ZM6 8L6 9L7 9L7 8ZM64 8L64 9L65 9L65 8ZM3 9L3 10L4 10L4 9ZM38 10L38 11L40 11L40 10ZM63 10L63 11L64 11L64 12L65 12L65 11L64 11L64 10ZM19 11L19 12L22 12L22 11ZM25 11L25 12L24 12L24 15L25 15L25 17L27 17L27 18L25 18L25 19L30 19L30 18L32 18L32 19L31 19L31 20L29 20L29 21L30 21L30 22L25 22L25 21L24 21L24 20L23 20L23 22L22 22L22 20L21 20L21 22L20 22L20 23L21 23L21 24L22 24L22 23L23 23L23 25L25 25L25 26L24 26L24 27L23 27L23 26L22 26L22 25L20 25L20 24L18 24L18 27L17 27L17 26L16 26L16 23L15 23L15 22L14 22L14 21L13 21L13 23L14 23L14 25L13 25L13 26L12 26L12 27L13 27L13 26L14 26L14 27L15 27L15 26L16 26L16 27L17 27L17 28L19 28L19 29L18 29L18 30L17 30L17 29L16 29L16 30L17 30L17 32L16 32L16 33L18 33L18 32L19 32L19 36L18 36L18 34L16 34L16 35L17 35L17 36L16 36L16 37L17 37L17 36L18 36L18 37L19 37L19 39L23 39L23 38L22 38L22 36L24 36L24 37L25 37L25 38L24 38L24 40L23 40L23 42L24 42L24 43L25 43L25 44L26 44L26 43L25 43L25 42L26 42L26 41L27 41L27 44L28 44L28 45L31 45L31 46L27 46L27 45L26 45L26 46L24 46L24 45L23 45L23 43L21 43L21 42L22 42L22 40L20 40L20 41L21 41L21 42L19 42L19 41L17 41L17 39L16 39L16 41L15 41L15 40L14 40L14 39L12 39L12 40L11 40L11 41L13 41L13 42L14 42L14 41L15 41L15 43L17 43L17 44L16 44L16 47L17 47L17 49L19 49L19 50L17 50L17 51L19 51L19 50L20 50L20 52L21 52L21 53L22 53L22 54L21 54L21 55L27 55L27 57L29 57L29 56L28 56L28 55L27 55L27 54L29 54L29 53L31 53L31 52L33 52L33 51L36 51L36 52L37 52L37 51L40 51L40 47L41 47L41 48L43 48L43 50L44 50L44 52L43 52L43 51L42 51L42 52L41 52L41 53L40 53L40 52L39 52L39 53L40 53L40 54L41 54L41 55L44 55L44 56L45 56L45 57L46 57L46 56L45 56L45 55L44 55L44 54L47 54L47 53L46 53L46 52L50 52L50 53L51 53L51 54L52 54L52 53L51 53L51 52L50 52L50 51L48 51L48 50L47 50L47 51L46 51L46 49L44 49L44 48L45 48L45 45L46 45L46 44L45 44L45 42L47 42L47 41L46 41L46 40L45 40L45 39L47 39L47 38L46 38L46 37L44 37L44 39L42 39L42 38L41 38L41 39L40 39L40 40L41 40L41 41L39 41L39 43L37 43L37 41L38 41L38 40L37 40L37 39L39 39L39 38L40 38L40 37L37 37L37 36L39 36L39 34L38 34L38 32L39 32L39 33L40 33L40 34L41 34L41 35L42 35L42 36L41 36L41 37L43 37L43 35L42 35L42 34L43 34L43 31L44 31L44 32L45 32L45 31L44 31L44 30L43 30L43 31L41 31L41 32L39 32L39 31L40 31L40 27L41 27L41 30L42 30L42 27L41 27L41 25L44 25L44 24L43 24L43 23L45 23L45 21L44 21L44 22L43 22L43 21L42 21L42 24L41 24L41 22L40 22L40 23L39 23L39 24L38 24L38 23L37 23L37 24L38 24L38 28L39 28L39 30L37 30L37 31L36 31L36 30L35 30L35 29L34 29L34 28L31 28L31 26L32 26L32 27L33 27L33 26L34 26L34 25L33 25L33 26L32 26L32 24L34 24L34 23L33 23L33 22L32 22L32 23L31 23L31 21L32 21L32 19L33 19L33 20L34 20L34 18L35 18L35 17L34 17L34 16L35 16L35 15L34 15L34 14L33 14L33 13L32 13L32 12L33 12L33 11L32 11L32 12L30 12L30 11L29 11L29 12L30 12L30 13L28 13L28 12L27 12L27 11ZM41 11L41 12L42 12L42 11ZM11 12L11 14L12 14L12 12ZM26 12L26 13L25 13L25 14L27 14L27 17L29 17L29 18L30 18L30 17L29 17L29 16L28 16L28 15L29 15L29 14L27 14L27 12ZM43 12L43 13L44 13L44 12ZM21 13L21 14L22 14L22 13ZM45 13L45 14L42 14L42 15L43 15L43 17L44 17L44 18L43 18L43 20L46 20L46 19L47 19L47 21L48 21L48 19L47 19L47 18L48 18L48 17L45 17L45 16L44 16L44 15L47 15L47 16L48 16L48 15L47 15L47 14L46 14L46 13ZM6 14L6 15L7 15L7 14ZM30 14L30 15L32 15L32 14ZM53 14L53 15L51 15L51 17L52 17L52 16L53 16L53 15L54 15L54 14ZM55 15L55 18L56 18L56 20L57 20L57 21L58 21L58 20L57 20L57 19L59 19L59 16L58 16L58 15L57 15L57 18L56 18L56 15ZM1 16L1 17L2 17L2 16ZM41 17L41 18L40 18L40 19L42 19L42 17ZM13 18L13 19L14 19L14 18ZM10 19L10 20L11 20L11 19ZM64 19L64 20L65 20L65 19ZM6 20L6 21L7 21L7 20ZM26 20L26 21L28 21L28 20ZM17 21L17 22L18 22L18 21ZM50 21L50 22L51 22L51 21ZM52 21L52 23L54 23L54 22L53 22L53 21ZM6 22L6 23L5 23L5 24L6 24L6 25L7 25L7 24L8 24L8 26L9 26L9 25L12 25L12 22L8 22L8 23L7 23L7 22ZM24 22L24 24L25 24L25 25L26 25L26 27L25 27L25 28L23 28L23 27L22 27L22 29L20 29L20 31L19 31L19 30L18 30L18 31L19 31L19 32L20 32L20 31L21 31L21 32L22 32L22 31L21 31L21 30L22 30L22 29L23 29L23 30L25 30L25 31L24 31L24 33L26 33L26 34L25 34L25 37L27 37L27 36L29 36L29 35L30 35L30 32L29 32L29 30L28 30L28 29L29 29L29 27L30 27L30 25L28 25L28 24L29 24L29 23L26 23L26 24L25 24L25 22ZM47 22L47 23L48 23L48 22ZM6 23L6 24L7 24L7 23ZM9 23L9 24L10 24L10 23ZM30 23L30 24L31 24L31 23ZM56 23L56 24L58 24L58 23ZM61 23L61 25L62 25L62 24L63 24L63 23ZM39 24L39 27L40 27L40 25L41 25L41 24ZM1 25L1 26L2 26L2 27L3 27L3 30L2 30L2 29L1 29L1 31L4 31L4 28L5 28L5 27L3 27L3 26L4 26L4 25L3 25L3 26L2 26L2 25ZM14 25L14 26L15 26L15 25ZM64 25L64 26L63 26L63 29L65 29L65 28L64 28L64 27L65 27L65 25ZM10 26L10 27L11 27L11 26ZM20 26L20 27L19 27L19 28L20 28L20 27L21 27L21 26ZM27 26L27 27L26 27L26 31L27 31L27 34L26 34L26 35L28 35L28 30L27 30L27 27L29 27L29 26ZM47 26L47 27L48 27L48 26ZM57 26L57 27L58 27L58 26ZM6 27L6 28L7 28L7 29L5 29L5 30L8 30L8 28L7 28L7 27ZM36 27L36 28L37 28L37 27ZM30 28L30 29L31 29L31 30L32 30L32 29L31 29L31 28ZM58 28L58 29L59 29L59 30L60 30L60 29L61 29L61 28ZM54 29L54 30L57 30L57 29ZM5 31L5 34L8 34L8 31ZM31 31L31 34L34 34L34 31ZM37 31L37 32L36 32L36 33L37 33L37 32L38 32L38 31ZM57 31L57 34L60 34L60 31ZM1 32L1 33L2 33L2 37L3 37L3 35L4 35L4 33L2 33L2 32ZM6 32L6 33L7 33L7 32ZM32 32L32 33L33 33L33 32ZM41 32L41 33L42 33L42 32ZM58 32L58 33L59 33L59 32ZM13 33L13 34L11 34L11 36L14 36L14 37L15 37L15 35L14 35L14 33ZM20 33L20 34L21 34L21 35L24 35L24 34L23 34L23 33ZM37 34L37 35L38 35L38 34ZM45 34L45 35L44 35L44 36L45 36L45 35L46 35L46 34ZM50 34L50 35L51 35L51 36L52 36L52 35L53 35L53 36L54 36L54 35L53 35L53 34L52 34L52 35L51 35L51 34ZM31 35L31 36L32 36L32 37L33 37L33 35ZM35 35L35 36L36 36L36 35ZM6 36L6 37L7 37L7 36ZM19 36L19 37L21 37L21 36ZM28 37L28 38L29 38L29 37ZM30 37L30 38L31 38L31 37ZM34 37L34 38L37 38L37 37ZM6 38L6 39L7 39L7 38ZM26 38L26 40L27 40L27 41L29 41L29 42L30 42L30 41L29 41L29 40L30 40L30 39L28 39L28 40L27 40L27 38ZM53 38L53 39L52 39L52 40L51 40L51 39L50 39L50 40L49 40L49 41L52 41L52 42L53 42L53 43L51 43L51 42L50 42L50 43L49 43L49 44L52 44L52 45L53 45L53 46L55 46L55 47L54 47L54 48L55 48L55 47L56 47L56 49L57 49L57 47L56 47L56 46L55 46L55 45L53 45L53 44L54 44L54 43L57 43L57 39L56 39L56 41L55 41L55 42L54 42L54 40L55 40L55 39L54 39L54 38ZM62 38L62 40L63 40L63 38ZM31 39L31 40L32 40L32 41L31 41L31 44L33 44L33 45L32 45L32 46L31 46L31 47L33 47L33 48L32 48L32 49L33 49L33 50L31 50L31 49L30 49L30 47L29 47L29 48L28 48L28 47L26 47L26 49L24 49L24 48L23 48L23 45L21 45L21 44L20 44L20 43L19 43L19 42L17 42L17 43L19 43L19 44L18 44L18 45L19 45L19 44L20 44L20 45L21 45L21 46L19 46L19 47L18 47L18 46L17 46L17 47L18 47L18 48L20 48L20 49L21 49L21 50L22 50L22 51L23 51L23 53L24 53L24 54L25 54L25 52L26 52L26 54L27 54L27 52L26 52L26 49L28 49L28 50L27 50L27 51L29 51L29 52L28 52L28 53L29 53L29 52L30 52L30 51L33 51L33 50L34 50L34 49L35 49L35 50L36 50L36 51L37 51L37 50L36 50L36 49L35 49L35 48L36 48L36 47L37 47L37 44L36 44L36 45L35 45L35 42L36 42L36 41L37 41L37 40L36 40L36 39L35 39L35 41L33 41L33 40L34 40L34 39L33 39L33 40L32 40L32 39ZM41 39L41 40L42 40L42 39ZM6 40L6 41L8 41L8 42L10 42L10 41L8 41L8 40ZM24 40L24 42L25 42L25 40ZM52 40L52 41L53 41L53 40ZM42 41L42 42L43 42L43 43L44 43L44 42L45 42L45 41ZM5 42L5 43L3 43L3 44L4 44L4 45L3 45L3 46L4 46L4 45L5 45L5 46L6 46L6 45L7 45L7 44L6 44L6 43L7 43L7 42ZM40 42L40 43L41 43L41 44L42 44L42 43L41 43L41 42ZM8 43L8 44L9 44L9 45L8 45L8 46L9 46L9 45L10 45L10 44L9 44L9 43ZM11 43L11 44L12 44L12 43ZM28 43L28 44L29 44L29 43ZM47 43L47 45L48 45L48 43ZM5 44L5 45L6 45L6 44ZM38 44L38 46L39 46L39 47L40 47L40 46L41 46L41 45L39 45L39 44ZM43 44L43 46L42 46L42 47L43 47L43 48L44 48L44 45L45 45L45 44ZM49 45L49 46L48 46L48 47L47 47L47 48L48 48L48 49L49 49L49 50L51 50L51 51L52 51L52 52L53 52L53 51L52 51L52 50L53 50L53 49L52 49L52 50L51 50L51 46L50 46L50 45ZM11 46L11 47L12 47L12 48L13 48L13 47L12 47L12 46ZM21 46L21 47L20 47L20 48L22 48L22 46ZM33 46L33 47L34 47L34 46ZM49 47L49 49L50 49L50 47ZM59 47L59 48L58 48L58 49L59 49L59 48L60 48L60 49L61 49L61 48L60 48L60 47ZM38 48L38 49L39 49L39 48ZM1 49L1 51L0 51L0 52L1 52L1 53L0 53L0 54L2 54L2 55L3 55L3 56L1 56L1 55L0 55L0 56L1 56L1 57L3 57L3 56L4 56L4 57L5 57L5 56L4 56L4 54L3 54L3 53L2 53L2 52L1 52L1 51L3 51L3 49ZM29 49L29 51L30 51L30 49ZM10 50L10 51L11 51L11 50ZM18 52L18 53L19 53L19 52ZM42 52L42 54L43 54L43 52ZM64 53L64 54L65 54L65 53ZM64 55L64 57L65 57L65 55ZM31 57L31 60L34 60L34 57ZM55 57L55 58L56 58L56 57ZM57 57L57 60L60 60L60 57ZM62 57L62 59L64 59L64 58L63 58L63 57ZM32 58L32 59L33 59L33 58ZM58 58L58 59L59 59L59 58ZM36 59L36 60L37 60L37 59ZM63 60L63 61L65 61L65 60ZM10 61L10 63L9 63L9 64L10 64L10 63L13 63L13 62L11 62L11 61ZM26 61L26 62L27 62L27 61ZM33 61L33 62L34 62L34 61ZM36 61L36 62L35 62L35 63L36 63L36 62L37 62L37 61ZM52 61L52 62L53 62L53 65L54 65L54 64L55 64L55 63L54 63L54 62L53 62L53 61ZM58 61L58 62L59 62L59 61ZM60 62L60 63L62 63L62 64L63 64L63 63L62 63L62 62ZM0 0L0 7L7 7L7 0ZM1 1L1 6L6 6L6 1ZM2 2L2 5L5 5L5 2ZM58 0L58 7L65 7L65 0ZM59 1L59 6L64 6L64 1ZM60 2L60 5L63 5L63 2ZM0 58L0 65L7 65L7 58ZM1 59L1 64L6 64L6 59ZM2 60L2 63L5 63L5 60Z" fill="#000000"/></g></g></svg>
