<?xml version="1.0" encoding="UTF-8"?>
<svg xmlns="http://www.w3.org/2000/svg" version="1.1" width="300" height="300" viewBox="0 0 300 300"><rect x="0" y="0" width="300" height="300" fill="#ffffff"/><g transform="scale(4.615)"><g transform="translate(0,0)"><path fill-rule="evenodd" d="M8 0L8 1L10 1L10 2L12 2L12 3L13 3L13 4L12 4L12 5L13 5L13 4L14 4L14 5L15 5L15 6L14 6L14 7L15 7L15 6L16 6L16 7L17 7L17 6L18 6L18 7L19 7L19 6L20 6L20 7L21 7L21 9L23 9L23 10L21 10L21 11L24 11L24 10L25 10L25 11L26 11L26 12L24 12L24 15L23 15L23 17L22 17L22 13L21 13L21 14L20 14L20 13L19 13L19 11L15 11L15 10L16 10L16 9L14 9L14 11L15 11L15 12L16 12L16 13L17 13L17 15L16 15L16 14L15 14L15 13L14 13L14 12L12 12L12 13L14 13L14 14L13 14L13 15L16 15L16 16L14 16L14 17L13 17L13 16L11 16L11 15L10 15L10 13L11 13L11 12L10 12L10 11L9 11L9 12L10 12L10 13L8 13L8 12L6 12L6 11L7 11L7 10L6 10L6 11L5 11L5 10L3 10L3 9L4 9L4 8L0 8L0 10L3 10L3 11L2 11L2 13L1 13L1 12L0 12L0 13L1 13L1 15L0 15L0 18L1 18L1 19L0 19L0 22L1 22L1 23L0 23L0 26L1 26L1 29L0 29L0 31L1 31L1 29L2 29L2 27L5 27L5 26L6 26L6 27L8 27L8 26L11 26L11 25L10 25L10 24L12 24L12 25L13 25L13 26L16 26L16 27L17 27L17 28L19 28L19 31L17 31L17 32L13 32L13 33L12 33L12 31L13 31L13 30L14 30L14 31L15 31L15 30L14 30L14 27L12 27L12 28L11 28L11 29L10 29L10 27L9 27L9 29L10 29L10 30L6 30L6 29L7 29L7 28L6 28L6 29L5 29L5 30L4 30L4 28L3 28L3 30L2 30L2 31L4 31L4 32L3 32L3 35L2 35L2 32L0 32L0 34L1 34L1 36L0 36L0 41L1 41L1 36L3 36L3 35L4 35L4 37L5 37L5 38L3 38L3 39L2 39L2 42L0 42L0 43L2 43L2 42L3 42L3 41L4 41L4 39L7 39L7 40L6 40L6 41L5 41L5 42L4 42L4 43L3 43L3 45L5 45L5 46L6 46L6 47L5 47L5 48L4 48L4 50L2 50L2 51L1 51L1 52L0 52L0 54L2 54L2 55L3 55L3 56L1 56L1 55L0 55L0 56L1 56L1 57L3 57L3 56L4 56L4 57L5 57L5 56L4 56L4 52L5 52L5 55L7 55L7 56L6 56L6 57L8 57L8 58L9 58L9 59L10 59L10 58L13 58L13 60L12 60L12 59L11 59L11 60L9 60L9 61L8 61L8 65L9 65L9 62L10 62L10 63L12 63L12 65L13 65L13 64L14 64L14 65L18 65L18 64L19 64L19 65L20 65L20 64L19 64L19 63L17 63L17 62L15 62L15 64L14 64L14 60L15 60L15 59L16 59L16 58L15 58L15 57L14 57L14 56L16 56L16 57L17 57L17 58L18 58L18 60L17 60L17 61L20 61L20 62L22 62L22 63L24 63L24 65L25 65L25 64L26 64L26 65L27 65L27 64L26 64L26 62L27 62L27 63L30 63L30 64L31 64L31 63L30 63L30 62L31 62L31 61L32 61L32 62L33 62L33 63L32 63L32 65L33 65L33 63L35 63L35 64L34 64L34 65L35 65L35 64L36 64L36 63L37 63L37 62L40 62L40 63L38 63L38 64L37 64L37 65L40 65L40 63L41 63L41 65L42 65L42 64L43 64L43 65L45 65L45 63L47 63L47 64L49 64L49 61L50 61L50 63L51 63L51 65L52 65L52 63L55 63L55 64L53 64L53 65L56 65L56 61L57 61L57 62L58 62L58 61L59 61L59 63L60 63L60 64L61 64L61 65L64 65L64 63L65 63L65 62L64 62L64 63L63 63L63 64L62 64L62 63L60 63L60 62L61 62L61 59L62 59L62 57L63 57L63 60L62 60L62 61L64 61L64 57L63 57L63 56L65 56L65 55L64 55L64 53L65 53L65 52L64 52L64 51L65 51L65 49L64 49L64 48L65 48L65 47L64 47L64 46L63 46L63 45L64 45L64 44L65 44L65 43L64 43L64 44L63 44L63 41L64 41L64 39L65 39L65 35L64 35L64 33L65 33L65 31L64 31L64 32L63 32L63 29L62 29L62 31L61 31L61 29L60 29L60 30L59 30L59 29L58 29L58 28L59 28L59 26L58 26L58 25L59 25L59 24L60 24L60 25L62 25L62 26L60 26L60 28L62 28L62 27L63 27L63 28L64 28L64 29L65 29L65 28L64 28L64 27L65 27L65 26L64 26L64 25L62 25L62 24L61 24L61 22L62 22L62 23L63 23L63 24L64 24L64 20L65 20L65 19L64 19L64 20L63 20L63 19L62 19L62 18L65 18L65 17L64 17L64 16L62 16L62 14L63 14L63 15L65 15L65 13L63 13L63 12L62 12L62 11L61 11L61 12L60 12L60 10L63 10L63 11L64 11L64 12L65 12L65 11L64 11L64 10L65 10L65 8L64 8L64 9L63 9L63 8L60 8L60 9L59 9L59 11L58 11L58 10L57 10L57 12L56 12L56 13L55 13L55 14L54 14L54 15L50 15L50 14L51 14L51 13L50 13L50 11L51 11L51 10L50 10L50 7L51 7L51 6L52 6L52 8L51 8L51 9L52 9L52 10L53 10L53 8L54 8L54 7L55 7L55 9L54 9L54 11L53 11L53 12L55 12L55 11L56 11L56 8L57 8L57 9L58 9L58 8L57 8L57 6L56 6L56 7L55 7L55 5L51 5L51 4L52 4L52 2L53 2L53 1L54 1L54 0L51 0L51 1L50 1L50 0L48 0L48 1L49 1L49 2L50 2L50 4L49 4L49 3L47 3L47 1L46 1L46 2L45 2L45 0L39 0L39 1L38 1L38 0L37 0L37 1L38 1L38 4L37 4L37 2L36 2L36 3L33 3L33 4L32 4L32 2L33 2L33 0L32 0L32 2L31 2L31 4L29 4L29 6L28 6L28 9L30 9L30 10L29 10L29 11L27 11L27 10L25 10L25 9L23 9L23 8L24 8L24 7L25 7L25 8L26 8L26 7L27 7L27 5L28 5L28 3L29 3L29 1L31 1L31 0L29 0L29 1L28 1L28 2L27 2L27 0L26 0L26 2L27 2L27 4L25 4L25 5L24 5L24 7L23 7L23 5L22 5L22 3L25 3L25 0L21 0L21 1L20 1L20 0L19 0L19 3L18 3L18 0L17 0L17 3L15 3L15 2L16 2L16 0L14 0L14 1L10 1L10 0ZM35 0L35 1L36 1L36 0ZM55 0L55 1L56 1L56 3L55 3L55 2L54 2L54 3L53 3L53 4L56 4L56 5L57 5L57 4L56 4L56 3L57 3L57 1L56 1L56 0ZM21 1L21 2L23 2L23 1ZM39 1L39 5L37 5L37 7L38 7L38 8L36 8L36 11L34 11L34 10L35 10L35 9L32 9L32 10L31 10L31 11L30 11L30 12L31 12L31 13L34 13L34 15L35 15L35 16L34 16L34 17L35 17L35 18L34 18L34 20L31 20L31 18L30 18L30 17L29 17L29 16L28 16L28 15L29 15L29 14L27 14L27 15L26 15L26 14L25 14L25 15L24 15L24 19L23 19L23 20L22 20L22 18L21 18L21 17L19 17L19 14L18 14L18 16L16 16L16 17L18 17L18 19L21 19L21 20L20 20L20 22L21 22L21 23L22 23L22 24L20 24L20 23L19 23L19 22L18 22L18 21L17 21L17 23L16 23L16 20L17 20L17 18L13 18L13 19L12 19L12 20L11 20L11 18L10 18L10 17L11 17L11 16L10 16L10 15L9 15L9 16L8 16L8 14L7 14L7 13L6 13L6 12L5 12L5 13L2 13L2 14L3 14L3 15L2 15L2 17L1 17L1 18L2 18L2 19L1 19L1 20L2 20L2 21L1 21L1 22L2 22L2 23L1 23L1 24L2 24L2 23L4 23L4 25L3 25L3 26L4 26L4 25L6 25L6 26L8 26L8 25L9 25L9 23L8 23L8 22L7 22L7 21L6 21L6 20L7 20L7 19L8 19L8 21L9 21L9 20L10 20L10 23L11 23L11 22L13 22L13 21L12 21L12 20L15 20L15 21L14 21L14 23L13 23L13 24L14 24L14 25L15 25L15 24L14 24L14 23L16 23L16 24L17 24L17 25L16 25L16 26L18 26L18 27L20 27L20 28L22 28L22 29L20 29L20 31L19 31L19 32L18 32L18 33L15 33L15 35L16 35L16 36L17 36L17 37L16 37L16 40L17 40L17 43L18 43L18 45L17 45L17 47L16 47L16 41L15 41L15 39L14 39L14 38L15 38L15 36L14 36L14 34L12 34L12 33L9 33L9 34L12 34L12 35L13 35L13 36L12 36L12 37L11 37L11 36L8 36L8 35L5 35L5 36L7 36L7 37L6 37L6 38L7 38L7 39L9 39L9 42L8 42L8 40L7 40L7 41L6 41L6 42L5 42L5 43L6 43L6 44L7 44L7 45L6 45L6 46L9 46L9 47L6 47L6 48L10 48L10 46L11 46L11 44L12 44L12 45L13 45L13 46L12 46L12 48L11 48L11 49L14 49L14 48L15 48L15 47L16 47L16 50L15 50L15 51L14 51L14 50L12 50L12 51L11 51L11 52L9 52L9 53L8 53L8 51L10 51L10 49L5 49L5 50L4 50L4 51L2 51L2 52L1 52L1 53L2 53L2 54L3 54L3 52L4 52L4 51L6 51L6 52L7 52L7 53L6 53L6 54L7 54L7 55L9 55L9 53L10 53L10 55L11 55L11 56L8 56L8 57L9 57L9 58L10 58L10 57L13 57L13 55L14 55L14 54L15 54L15 53L16 53L16 52L17 52L17 54L16 54L16 56L18 56L18 58L19 58L19 60L20 60L20 61L23 61L23 60L21 60L21 59L20 59L20 58L22 58L22 59L25 59L25 60L26 60L26 61L24 61L24 63L25 63L25 62L26 62L26 61L27 61L27 62L29 62L29 61L28 61L28 59L29 59L29 60L30 60L30 55L31 55L31 56L35 56L35 53L37 53L37 55L36 55L36 57L38 57L38 58L37 58L37 59L36 59L36 58L35 58L35 59L36 59L36 60L37 60L37 59L39 59L39 60L38 60L38 61L41 61L41 63L42 63L42 62L44 62L44 61L45 61L45 60L46 60L46 59L47 59L47 60L48 60L48 59L47 59L47 58L48 58L48 57L49 57L49 55L48 55L48 53L49 53L49 54L52 54L52 55L53 55L53 57L51 57L51 56L50 56L50 58L49 58L49 59L50 59L50 60L51 60L51 63L52 63L52 61L54 61L54 62L55 62L55 59L56 59L56 57L55 57L55 54L56 54L56 56L61 56L61 55L63 55L63 53L64 53L64 52L63 52L63 50L64 50L64 49L63 49L63 46L62 46L62 44L60 44L60 45L61 45L61 46L60 46L60 48L62 48L62 49L59 49L59 50L62 50L62 52L60 52L60 51L59 51L59 52L58 52L58 53L56 53L56 52L57 52L57 51L56 51L56 50L58 50L58 49L57 49L57 48L58 48L58 47L59 47L59 46L58 46L58 45L57 45L57 43L58 43L58 44L59 44L59 42L57 42L57 41L56 41L56 40L55 40L55 37L56 37L56 36L55 36L55 34L54 34L54 35L53 35L53 34L52 34L52 33L51 33L51 32L50 32L50 30L52 30L52 32L54 32L54 33L55 33L55 32L56 32L56 30L57 30L57 29L55 29L55 25L53 25L53 24L54 24L54 23L55 23L55 22L54 22L54 23L53 23L53 21L55 21L55 20L53 20L53 21L51 21L51 20L52 20L52 19L51 19L51 20L50 20L50 22L49 22L49 25L50 25L50 24L51 24L51 27L50 27L50 28L48 28L48 27L49 27L49 26L48 26L48 25L47 25L47 24L48 24L48 23L44 23L44 22L45 22L45 19L46 19L46 22L48 22L48 21L49 21L49 20L48 20L48 21L47 21L47 19L46 19L46 17L45 17L45 19L44 19L44 18L43 18L43 16L47 16L47 17L48 17L48 19L49 19L49 16L50 16L50 15L49 15L49 16L48 16L48 15L47 15L47 14L49 14L49 13L47 13L47 12L49 12L49 11L50 11L50 10L48 10L48 9L49 9L49 7L50 7L50 6L49 6L49 5L47 5L47 4L46 4L46 5L44 5L44 6L43 6L43 7L44 7L44 6L45 6L45 7L46 7L46 8L48 8L48 9L45 9L45 8L41 8L41 9L39 9L39 8L40 8L40 6L41 6L41 7L42 7L42 5L43 5L43 1L42 1L42 4L41 4L41 3L40 3L40 1ZM51 1L51 2L52 2L52 1ZM8 2L8 5L10 5L10 4L9 4L9 2ZM17 3L17 5L16 5L16 4L15 4L15 5L16 5L16 6L17 6L17 5L19 5L19 4L21 4L21 3L19 3L19 4L18 4L18 3ZM44 3L44 4L45 4L45 3ZM35 4L35 5L36 5L36 4ZM21 5L21 7L22 7L22 5ZM25 5L25 7L26 7L26 5ZM31 5L31 8L34 8L34 5ZM39 5L39 6L38 6L38 7L39 7L39 6L40 6L40 5ZM8 6L8 7L9 7L9 8L8 8L8 9L9 9L9 8L10 8L10 7L11 7L11 6L10 6L10 7L9 7L9 6ZM12 6L12 7L13 7L13 6ZM29 6L29 7L30 7L30 6ZM32 6L32 7L33 7L33 6ZM35 6L35 7L36 7L36 6ZM46 6L46 7L47 7L47 6ZM48 6L48 7L49 7L49 6ZM53 6L53 7L54 7L54 6ZM6 8L6 9L7 9L7 8ZM11 8L11 9L13 9L13 8ZM17 8L17 10L20 10L20 8L19 8L19 9L18 9L18 8ZM37 9L37 10L38 10L38 11L36 11L36 12L35 12L35 13L37 13L37 14L36 14L36 16L39 16L39 18L38 18L38 19L39 19L39 18L40 18L40 19L41 19L41 20L37 20L37 21L36 21L36 19L37 19L37 18L35 18L35 22L34 22L34 23L33 23L33 21L32 21L32 23L31 23L31 20L30 20L30 23L31 23L31 25L30 25L30 24L29 24L29 22L27 22L27 25L26 25L26 24L25 24L25 25L26 25L26 26L25 26L25 27L24 27L24 26L23 26L23 27L24 27L24 28L26 28L26 31L27 31L27 32L28 32L28 30L29 30L29 32L30 32L30 35L29 35L29 34L28 34L28 35L27 35L27 34L26 34L26 35L27 35L27 37L25 37L25 35L20 35L20 32L21 32L21 34L25 34L25 33L23 33L23 32L24 32L24 31L25 31L25 30L21 30L21 31L20 31L20 32L19 32L19 33L18 33L18 34L16 34L16 35L17 35L17 36L18 36L18 37L19 37L19 38L21 38L21 39L23 39L23 40L24 40L24 41L27 41L27 42L29 42L29 43L30 43L30 44L28 44L28 43L27 43L27 44L28 44L28 45L30 45L30 47L31 47L31 48L30 48L30 49L29 49L29 51L28 51L28 48L29 48L29 46L27 46L27 45L26 45L26 44L25 44L25 46L24 46L24 45L23 45L23 44L24 44L24 43L23 43L23 41L22 41L22 40L20 40L20 41L22 41L22 43L21 43L21 42L19 42L19 41L18 41L18 42L19 42L19 45L18 45L18 46L21 46L21 45L20 45L20 43L21 43L21 44L22 44L22 47L23 47L23 48L24 48L24 49L25 49L25 50L23 50L23 51L22 51L22 49L19 49L19 48L17 48L17 49L19 49L19 50L17 50L17 51L19 51L19 52L18 52L18 53L19 53L19 52L20 52L20 51L21 51L21 53L22 53L22 58L25 58L25 59L27 59L27 58L25 58L25 56L24 56L24 55L23 55L23 54L24 54L24 53L23 53L23 51L24 51L24 52L25 52L25 54L26 54L26 55L27 55L27 56L29 56L29 55L30 55L30 54L29 54L29 53L27 53L27 54L26 54L26 52L29 52L29 51L30 51L30 53L31 53L31 52L33 52L33 51L36 51L36 52L37 52L37 51L39 51L39 55L37 55L37 56L40 56L40 57L41 57L41 58L43 58L43 61L44 61L44 60L45 60L45 59L46 59L46 58L44 58L44 57L43 57L43 56L44 56L44 54L45 54L45 57L48 57L48 55L47 55L47 56L46 56L46 54L47 54L47 53L46 53L46 51L47 51L47 52L50 52L50 53L52 53L52 54L53 54L53 55L54 55L54 54L53 54L53 53L55 53L55 52L56 52L56 51L55 51L55 50L52 50L52 49L51 49L51 48L52 48L52 47L53 47L53 49L55 49L55 47L53 47L53 46L55 46L55 45L56 45L56 48L57 48L57 47L58 47L58 46L57 46L57 45L56 45L56 44L53 44L53 43L56 43L56 41L55 41L55 40L54 40L54 39L53 39L53 38L51 38L51 36L52 36L52 34L50 34L50 33L49 33L49 34L47 34L47 35L46 35L46 36L47 36L47 40L45 40L45 39L43 39L43 40L41 40L41 41L40 41L40 40L38 40L38 39L40 39L40 38L41 38L41 39L42 39L42 38L41 38L41 37L44 37L44 38L46 38L46 37L44 37L44 36L45 36L45 34L43 34L43 33L41 33L41 32L42 32L42 30L41 30L41 32L37 32L37 31L40 31L40 27L41 27L41 29L43 29L43 32L45 32L45 33L48 33L48 30L47 30L47 29L45 29L45 28L44 28L44 24L43 24L43 20L42 20L42 18L41 18L41 17L40 17L40 16L41 16L41 15L42 15L42 14L41 14L41 15L40 15L40 16L39 16L39 15L38 15L38 14L40 14L40 13L39 13L39 12L38 12L38 11L41 11L41 12L43 12L43 13L44 13L44 12L43 12L43 11L42 11L42 10L44 10L44 9L41 9L41 10L38 10L38 9ZM11 10L11 11L13 11L13 10ZM45 10L45 14L43 14L43 15L45 15L45 14L46 14L46 12L47 12L47 10ZM3 11L3 12L4 12L4 11ZM32 11L32 12L34 12L34 11ZM26 12L26 13L27 13L27 12ZM28 12L28 13L29 13L29 12ZM52 13L52 14L53 14L53 13ZM58 13L58 14L56 14L56 18L55 18L55 15L54 15L54 16L52 16L52 17L50 17L50 18L54 18L54 19L56 19L56 18L57 18L57 19L58 19L58 21L57 21L57 20L56 20L56 25L57 25L57 24L59 24L59 23L58 23L58 22L59 22L59 21L61 21L61 20L60 20L60 19L61 19L61 18L60 18L60 17L62 17L62 16L59 16L59 15L61 15L61 14L59 14L59 13ZM5 14L5 15L3 15L3 19L2 19L2 20L3 20L3 19L7 19L7 18L8 18L8 16L6 16L6 15L7 15L7 14ZM30 14L30 15L31 15L31 14ZM58 14L58 15L59 15L59 14ZM25 15L25 17L27 17L27 18L25 18L25 19L28 19L28 21L29 21L29 17L28 17L28 16L26 16L26 15ZM32 15L32 16L33 16L33 15ZM4 16L4 17L6 17L6 18L7 18L7 17L6 17L6 16ZM9 16L9 17L10 17L10 16ZM58 16L58 17L57 17L57 18L59 18L59 16ZM32 17L32 19L33 19L33 17ZM21 20L21 22L22 22L22 20ZM23 20L23 22L25 22L25 23L26 23L26 22L25 22L25 21L24 21L24 20ZM26 20L26 21L27 21L27 20ZM62 20L62 21L63 21L63 20ZM4 21L4 22L5 22L5 23L7 23L7 24L6 24L6 25L7 25L7 24L8 24L8 23L7 23L7 22L5 22L5 21ZM38 21L38 22L37 22L37 23L39 23L39 27L40 27L40 25L41 25L41 26L43 26L43 24L42 24L42 21ZM40 22L40 24L41 24L41 22ZM23 23L23 25L24 25L24 23ZM34 23L34 24L32 24L32 26L30 26L30 27L31 27L31 28L33 28L33 27L34 27L34 28L35 28L35 30L36 30L36 31L37 31L37 30L39 30L39 28L38 28L38 24L37 24L37 25L34 25L34 24L36 24L36 23ZM51 23L51 24L53 24L53 23ZM18 24L18 26L20 26L20 27L21 27L21 25L19 25L19 24ZM45 24L45 27L48 27L48 26L46 26L46 24ZM28 25L28 26L26 26L26 28L27 28L27 30L28 30L28 29L29 29L29 28L27 28L27 27L28 27L28 26L29 26L29 25ZM33 25L33 26L32 26L32 27L33 27L33 26L34 26L34 25ZM52 25L52 27L53 27L53 25ZM57 26L57 27L58 27L58 26ZM36 27L36 28L37 28L37 27ZM15 28L15 29L16 29L16 30L18 30L18 29L16 29L16 28ZM51 28L51 29L52 29L52 28ZM53 28L53 30L54 30L54 31L55 31L55 30L54 30L54 28ZM12 29L12 30L13 30L13 29ZM32 29L32 30L34 30L34 29ZM10 30L10 31L9 31L9 32L11 32L11 30ZM44 30L44 31L46 31L46 32L47 32L47 31L46 31L46 30ZM5 31L5 34L8 34L8 31ZM21 31L21 32L22 32L22 31ZM31 31L31 34L34 34L34 31ZM57 31L57 34L60 34L60 31ZM6 32L6 33L7 33L7 32ZM32 32L32 33L33 33L33 32ZM36 32L36 33L37 33L37 32ZM58 32L58 33L59 33L59 32ZM38 33L38 34L37 34L37 35L38 35L38 34L39 34L39 36L37 36L37 37L35 37L35 38L37 38L37 37L41 37L41 36L42 36L42 35L43 35L43 36L44 36L44 35L43 35L43 34L42 34L42 35L41 35L41 33L40 33L40 34L39 34L39 33ZM61 33L61 35L60 35L60 36L59 36L59 35L57 35L57 38L56 38L56 39L57 39L57 40L58 40L58 41L59 41L59 39L61 39L61 38L62 38L62 37L60 37L60 36L63 36L63 37L64 37L64 35L63 35L63 34L62 34L62 33ZM18 34L18 36L19 36L19 37L20 37L20 35L19 35L19 34ZM49 34L49 35L48 35L48 36L49 36L49 37L50 37L50 36L49 36L49 35L50 35L50 34ZM28 35L28 39L27 39L27 38L25 38L25 37L23 37L23 36L22 36L22 38L25 38L25 39L27 39L27 40L28 40L28 41L29 41L29 42L31 42L31 44L30 44L30 45L31 45L31 44L33 44L33 45L32 45L32 46L31 46L31 47L33 47L33 46L34 46L34 47L35 47L35 48L31 48L31 49L30 49L30 51L31 51L31 49L33 49L33 50L36 50L36 51L37 51L37 50L36 50L36 49L35 49L35 48L36 48L36 47L37 47L37 44L36 44L36 45L35 45L35 41L32 41L32 39L33 39L33 38L34 38L34 37L33 37L33 38L31 38L31 39L30 39L30 38L29 38L29 35ZM31 35L31 36L33 36L33 35ZM34 35L34 36L36 36L36 35ZM8 37L8 38L9 38L9 39L10 39L10 40L11 40L11 41L10 41L10 42L9 42L9 43L7 43L7 42L6 42L6 43L7 43L7 44L8 44L8 45L10 45L10 44L11 44L11 43L12 43L12 42L13 42L13 41L14 41L14 40L11 40L11 39L12 39L12 38L13 38L13 37L12 37L12 38L11 38L11 37ZM58 37L58 38L57 38L57 39L59 39L59 37ZM10 38L10 39L11 39L11 38ZM48 38L48 39L49 39L49 38ZM17 39L17 40L19 40L19 39ZM28 39L28 40L29 40L29 39ZM36 39L36 42L38 42L38 43L39 43L39 41L38 41L38 40L37 40L37 39ZM52 39L52 41L50 41L50 40L47 40L47 42L44 42L44 40L43 40L43 41L42 41L42 42L44 42L44 43L42 43L42 44L41 44L41 45L39 45L39 44L38 44L38 46L39 46L39 47L40 47L40 50L39 50L39 51L40 51L40 50L41 50L41 52L40 52L40 54L41 54L41 52L42 52L42 54L43 54L43 52L44 52L44 51L45 51L45 48L44 48L44 47L43 47L43 46L46 46L46 48L48 48L48 47L49 47L49 50L48 50L48 51L50 51L50 52L51 52L51 51L52 51L52 50L51 50L51 51L50 51L50 47L52 47L52 46L53 46L53 45L52 45L52 44L51 44L51 43L50 43L50 42L52 42L52 43L53 43L53 42L52 42L52 41L54 41L54 42L55 42L55 41L54 41L54 40L53 40L53 39ZM62 39L62 41L63 41L63 39ZM60 40L60 42L61 42L61 40ZM48 41L48 43L47 43L47 45L48 45L48 46L50 46L50 44L49 44L49 41ZM14 42L14 43L15 43L15 42ZM9 43L9 44L10 44L10 43ZM22 43L22 44L23 44L23 43ZM44 43L44 44L45 44L45 43ZM0 44L0 50L1 50L1 49L3 49L3 48L1 48L1 47L4 47L4 46L1 46L1 45L2 45L2 44ZM14 44L14 45L15 45L15 44ZM42 44L42 45L41 45L41 46L40 46L40 47L41 47L41 48L43 48L43 47L41 47L41 46L43 46L43 44ZM48 44L48 45L49 45L49 44ZM61 46L61 47L62 47L62 46ZM20 47L20 48L21 48L21 47ZM26 47L26 49L27 49L27 48L28 48L28 47ZM38 48L38 49L39 49L39 48ZM43 49L43 51L42 51L42 52L43 52L43 51L44 51L44 49ZM46 49L46 50L47 50L47 49ZM62 49L62 50L63 50L63 49ZM6 50L6 51L8 51L8 50ZM19 50L19 51L20 51L20 50ZM25 50L25 52L26 52L26 50ZM12 51L12 52L11 52L11 55L12 55L12 54L13 54L13 52L14 52L14 51ZM15 51L15 52L16 52L16 51ZM54 51L54 52L55 52L55 51ZM34 52L34 53L33 53L33 54L34 54L34 53L35 53L35 52ZM52 52L52 53L53 53L53 52ZM7 53L7 54L8 54L8 53ZM58 53L58 54L60 54L60 55L61 55L61 54L62 54L62 53L61 53L61 54L60 54L60 53ZM18 54L18 56L19 56L19 58L20 58L20 56L19 56L19 54ZM20 54L20 55L21 55L21 54ZM31 54L31 55L32 55L32 54ZM23 56L23 57L24 57L24 56ZM41 56L41 57L42 57L42 56ZM31 57L31 60L34 60L34 57ZM53 57L53 59L52 59L52 58L50 58L50 59L52 59L52 60L54 60L54 58L55 58L55 57ZM57 57L57 60L60 60L60 57ZM32 58L32 59L33 59L33 58ZM39 58L39 59L40 59L40 60L42 60L42 59L40 59L40 58ZM58 58L58 59L59 59L59 58ZM10 61L10 62L12 62L12 63L13 63L13 61ZM33 61L33 62L34 62L34 61ZM36 61L36 62L35 62L35 63L36 63L36 62L37 62L37 61ZM46 61L46 62L47 62L47 63L48 63L48 62L47 62L47 61ZM16 63L16 64L17 64L17 63ZM43 63L43 64L44 64L44 63ZM10 64L10 65L11 65L11 64ZM21 64L21 65L22 65L22 64ZM28 64L28 65L29 65L29 64ZM58 64L58 65L59 65L59 64ZM0 0L0 7L7 7L7 0ZM1 1L1 6L6 6L6 1ZM2 2L2 5L5 5L5 2ZM58 0L58 7L65 7L65 0ZM59 1L59 6L64 6L64 1ZM60 2L60 5L63 5L63 2ZM0 58L0 65L7 65L7 58ZM1 59L1 64L6 64L6 59ZM2 60L2 63L5 63L5 60Z" fill="#000000"/></g></g></svg>
