<?xml version="1.0" encoding="UTF-8"?>
<svg xmlns="http://www.w3.org/2000/svg" version="1.1" width="300" height="300" viewBox="0 0 300 300"><rect x="0" y="0" width="300" height="300" fill="#ffffff"/><g transform="scale(4.348)"><g transform="translate(0,0)"><path fill-rule="evenodd" d="M9 0L9 1L8 1L8 2L9 2L9 3L8 3L8 4L9 4L9 3L10 3L10 2L11 2L11 3L12 3L12 4L13 4L13 6L12 6L12 5L10 5L10 7L9 7L9 5L8 5L8 7L9 7L9 8L6 8L6 9L5 9L5 8L0 8L0 10L2 10L2 11L0 11L0 12L2 12L2 13L4 13L4 14L3 14L3 15L4 15L4 16L2 16L2 14L1 14L1 13L0 13L0 15L1 15L1 16L0 16L0 20L1 20L1 23L0 23L0 26L2 26L2 27L3 27L3 28L1 28L1 27L0 27L0 29L1 29L1 30L0 30L0 31L1 31L1 33L0 33L0 34L1 34L1 37L0 37L0 39L1 39L1 37L2 37L2 38L3 38L3 39L2 39L2 40L0 40L0 41L1 41L1 42L0 42L0 44L3 44L3 45L0 45L0 46L1 46L1 47L2 47L2 48L3 48L3 49L2 49L2 51L0 51L0 52L3 52L3 50L4 50L4 48L3 48L3 47L5 47L5 48L6 48L6 49L7 49L7 48L6 48L6 47L7 47L7 46L6 46L6 45L8 45L8 44L9 44L9 45L10 45L10 42L11 42L11 41L10 41L10 40L14 40L14 41L13 41L13 42L12 42L12 43L11 43L11 44L13 44L13 45L11 45L11 46L13 46L13 45L14 45L14 47L15 47L15 48L14 48L14 49L13 49L13 48L10 48L10 47L9 47L9 46L8 46L8 47L9 47L9 48L8 48L8 50L10 50L10 51L9 51L9 52L8 52L8 51L7 51L7 50L6 50L6 51L4 51L4 52L5 52L5 56L4 56L4 59L8 59L8 63L9 63L9 62L10 62L10 65L9 65L9 64L8 64L8 69L10 69L10 68L9 68L9 67L11 67L11 68L12 68L12 69L19 69L19 68L17 68L17 67L18 67L18 66L19 66L19 67L20 67L20 66L19 66L19 65L20 65L20 63L21 63L21 64L23 64L23 66L21 66L21 68L20 68L20 69L21 69L21 68L24 68L24 69L26 69L26 67L28 67L28 68L27 68L27 69L32 69L32 68L29 68L29 65L30 65L30 66L31 66L31 67L33 67L33 69L35 69L35 68L36 68L36 69L38 69L38 68L37 68L37 67L39 67L39 68L41 68L41 69L44 69L44 68L47 68L47 69L49 69L49 66L50 66L50 67L53 67L53 68L54 68L54 69L56 69L56 68L54 68L54 67L56 67L56 66L55 66L55 65L51 65L51 64L50 64L50 65L49 65L49 64L47 64L47 66L46 66L46 64L45 64L45 63L44 63L44 64L41 64L41 63L39 63L39 62L40 62L40 59L41 59L41 58L42 58L42 60L41 60L41 62L42 62L42 63L43 63L43 61L44 61L44 62L46 62L46 63L47 63L47 62L50 62L50 61L51 61L51 63L52 63L52 62L53 62L53 63L54 63L54 64L57 64L57 65L59 65L59 63L60 63L60 66L57 66L57 67L59 67L59 68L58 68L58 69L61 69L61 68L62 68L62 69L63 69L63 68L62 68L62 67L63 67L63 66L62 66L62 65L64 65L64 66L65 66L65 64L67 64L67 65L66 65L66 67L64 67L64 68L66 68L66 69L68 69L68 68L67 68L67 65L69 65L69 63L68 63L68 62L69 62L69 61L68 61L68 60L69 60L69 59L68 59L68 57L67 57L67 58L66 58L66 56L67 56L67 55L68 55L68 56L69 56L69 55L68 55L68 54L69 54L69 53L68 53L68 54L67 54L67 53L66 53L66 52L68 52L68 50L69 50L69 47L68 47L68 46L67 46L67 44L68 44L68 43L67 43L67 42L69 42L69 40L68 40L68 41L67 41L67 39L68 39L68 38L67 38L67 39L63 39L63 40L62 40L62 38L64 38L64 37L66 37L66 36L67 36L67 37L68 37L68 36L69 36L69 35L68 35L68 34L69 34L69 31L68 31L68 30L67 30L67 31L64 31L64 32L63 32L63 31L62 31L62 29L63 29L63 28L64 28L64 26L65 26L65 25L67 25L67 27L65 27L65 28L67 28L67 27L68 27L68 28L69 28L69 27L68 27L68 26L69 26L69 23L68 23L68 22L69 22L69 21L68 21L68 18L69 18L69 15L68 15L68 14L69 14L69 13L68 13L68 12L67 12L67 11L68 11L68 10L69 10L69 9L68 9L68 8L67 8L67 9L68 9L68 10L66 10L66 8L65 8L65 9L64 9L64 8L63 8L63 10L65 10L65 11L64 11L64 12L66 12L66 13L68 13L68 14L65 14L65 13L63 13L63 14L62 14L62 12L63 12L63 11L61 11L61 10L62 10L62 8L61 8L61 6L60 6L60 7L59 7L59 4L57 4L57 5L58 5L58 7L59 7L59 9L60 9L60 10L59 10L59 13L60 13L60 14L59 14L59 16L58 16L58 14L56 14L56 15L57 15L57 16L58 16L58 17L59 17L59 18L60 18L60 19L61 19L61 18L62 18L62 19L63 19L63 20L60 20L60 21L59 21L59 20L58 20L58 19L55 19L55 18L57 18L57 17L56 17L56 16L55 16L55 17L52 17L52 16L53 16L53 14L54 14L54 15L55 15L55 13L56 13L56 12L57 12L57 13L58 13L58 12L57 12L57 11L56 11L56 12L55 12L55 11L54 11L54 12L55 12L55 13L52 13L52 14L50 14L50 12L53 12L53 11L52 11L52 10L56 10L56 8L57 8L57 9L58 9L58 8L57 8L57 6L56 6L56 7L55 7L55 5L56 5L56 3L54 3L54 1L55 1L55 2L57 2L57 3L59 3L59 2L57 2L57 1L56 1L56 0L53 0L53 3L54 3L54 4L53 4L53 5L49 5L49 3L48 3L48 2L49 2L49 1L50 1L50 0L47 0L47 3L48 3L48 4L47 4L47 5L48 5L48 7L47 7L47 6L46 6L46 5L44 5L44 3L45 3L45 4L46 4L46 3L45 3L45 2L44 2L44 3L42 3L42 4L41 4L41 5L40 5L40 4L39 4L39 6L38 6L38 5L37 5L37 4L38 4L38 3L37 3L37 1L38 1L38 2L41 2L41 1L42 1L42 2L43 2L43 0L39 0L39 1L38 1L38 0L36 0L36 1L35 1L35 4L33 4L33 3L32 3L32 2L31 2L31 1L32 1L32 0L30 0L30 1L29 1L29 0L28 0L28 1L27 1L27 2L26 2L26 1L25 1L25 0L21 0L21 1L22 1L22 2L24 2L24 3L23 3L23 4L22 4L22 5L21 5L21 6L20 6L20 4L21 4L21 3L19 3L19 2L20 2L20 1L19 1L19 0L16 0L16 1L14 1L14 0L13 0L13 1L12 1L12 0ZM44 0L44 1L45 1L45 0ZM58 0L58 1L61 1L61 0ZM9 1L9 2L10 2L10 1ZM11 1L11 2L12 2L12 3L13 3L13 2L14 2L14 4L15 4L15 2L14 2L14 1L13 1L13 2L12 2L12 1ZM16 1L16 2L17 2L17 1ZM25 2L25 3L24 3L24 4L23 4L23 5L22 5L22 6L21 6L21 7L20 7L20 6L19 6L19 7L20 7L20 10L18 10L18 9L16 9L16 11L15 11L15 12L14 12L14 10L12 10L12 11L11 11L11 8L12 8L12 9L14 9L14 6L13 6L13 7L12 7L12 6L11 6L11 8L10 8L10 9L9 9L9 10L8 10L8 11L6 11L6 10L7 10L7 9L6 9L6 10L5 10L5 11L4 11L4 10L3 10L3 9L2 9L2 10L3 10L3 11L2 11L2 12L3 12L3 11L4 11L4 12L5 12L5 11L6 11L6 12L8 12L8 13L6 13L6 14L7 14L7 15L5 15L5 14L4 14L4 15L5 15L5 17L1 17L1 18L4 18L4 19L3 19L3 20L2 20L2 21L4 21L4 22L2 22L2 23L1 23L1 24L3 24L3 25L2 25L2 26L4 26L4 27L6 27L6 28L3 28L3 29L2 29L2 30L1 30L1 31L2 31L2 30L3 30L3 29L5 29L5 30L4 30L4 31L5 31L5 32L8 32L8 31L5 31L5 30L9 30L9 32L10 32L10 30L9 30L9 28L10 28L10 27L11 27L11 28L13 28L13 29L11 29L11 32L12 32L12 33L9 33L9 35L11 35L11 34L12 34L12 36L13 36L13 37L12 37L12 38L11 38L11 37L10 37L10 38L11 38L11 39L15 39L15 38L17 38L17 39L16 39L16 40L15 40L15 41L14 41L14 42L13 42L13 43L14 43L14 45L16 45L16 46L15 46L15 47L17 47L17 48L16 48L16 49L15 49L15 50L18 50L18 49L22 49L22 50L24 50L24 49L26 49L26 50L25 50L25 51L23 51L23 52L20 52L20 54L21 54L21 55L22 55L22 54L23 54L23 55L24 55L24 54L23 54L23 52L25 52L25 51L28 51L28 52L32 52L32 53L27 53L27 52L26 52L26 53L25 53L25 54L26 54L26 55L25 55L25 56L26 56L26 57L27 57L27 58L25 58L25 60L24 60L24 59L23 59L23 58L24 58L24 57L22 57L22 56L21 56L21 57L20 57L20 58L19 58L19 59L17 59L17 60L16 60L16 59L15 59L15 60L14 60L14 58L16 58L16 57L17 57L17 58L18 58L18 57L17 57L17 56L18 56L18 55L19 55L19 56L20 56L20 55L19 55L19 53L16 53L16 52L19 52L19 51L20 51L20 50L19 50L19 51L16 51L16 52L14 52L14 53L13 53L13 52L11 52L11 51L12 51L12 50L11 50L11 51L10 51L10 52L9 52L9 53L8 53L8 54L7 54L7 53L6 53L6 54L7 54L7 55L6 55L6 56L5 56L5 58L8 58L8 59L9 59L9 60L10 60L10 59L11 59L11 60L14 60L14 61L15 61L15 63L16 63L16 62L17 62L17 63L18 63L18 62L19 62L19 61L20 61L20 62L21 62L21 63L22 63L22 62L24 62L24 61L25 61L25 60L26 60L26 62L27 62L27 64L28 64L28 65L25 65L25 66L28 66L28 65L29 65L29 64L31 64L31 63L32 63L32 61L31 61L31 62L30 62L30 63L28 63L28 62L29 62L29 61L27 61L27 60L26 60L26 59L27 59L27 58L29 58L29 59L32 59L32 60L33 60L33 59L32 59L32 58L33 58L33 57L34 57L34 58L35 58L35 59L34 59L34 60L35 60L35 59L36 59L36 57L38 57L38 58L37 58L37 61L38 61L38 62L37 62L37 63L38 63L38 62L39 62L39 61L38 61L38 59L39 59L39 57L41 57L41 56L39 56L39 54L40 54L40 55L41 55L41 54L42 54L42 55L43 55L43 56L42 56L42 57L43 57L43 59L44 59L44 61L45 61L45 58L46 58L46 59L47 59L47 60L49 60L49 61L50 61L50 60L51 60L51 61L55 61L55 63L58 63L58 62L60 62L60 60L61 60L61 59L60 59L60 58L61 58L61 57L60 57L60 56L62 56L62 60L64 60L64 59L65 59L65 56L64 56L64 57L63 57L63 55L65 55L65 52L66 52L66 49L68 49L68 48L64 48L64 49L63 49L63 46L65 46L65 47L66 47L66 44L65 44L65 45L63 45L63 44L64 44L64 43L66 43L66 42L67 42L67 41L66 41L66 42L65 42L65 41L64 41L64 40L63 40L63 41L64 41L64 42L62 42L62 41L60 41L60 40L61 40L61 38L62 38L62 37L61 37L61 38L59 38L59 37L60 37L60 35L59 35L59 37L57 37L57 35L56 35L56 37L57 37L57 38L56 38L56 39L59 39L59 40L58 40L58 41L57 41L57 40L56 40L56 41L55 41L55 40L53 40L53 38L52 38L52 40L51 40L51 41L50 41L50 39L51 39L51 37L53 37L53 35L55 35L55 34L60 34L60 32L57 32L57 31L58 31L58 30L59 30L59 29L60 29L60 28L58 28L58 26L59 26L59 27L61 27L61 29L62 29L62 27L63 27L63 25L65 25L65 20L66 20L66 22L68 22L68 21L67 21L67 20L66 20L66 19L67 19L67 18L66 18L66 16L65 16L65 15L64 15L64 14L63 14L63 15L64 15L64 16L62 16L62 14L61 14L61 15L60 15L60 16L59 16L59 17L61 17L61 16L62 16L62 18L63 18L63 19L64 19L64 20L63 20L63 21L62 21L62 22L59 22L59 21L57 21L57 20L55 20L55 19L53 19L53 18L52 18L52 19L53 19L53 20L51 20L51 17L50 17L50 20L49 20L49 21L46 21L46 20L47 20L47 18L49 18L49 17L45 17L45 16L48 16L48 15L49 15L49 14L47 14L47 13L45 13L45 11L46 11L46 12L50 12L50 11L49 11L49 10L52 10L52 9L55 9L55 8L53 8L53 7L54 7L54 6L53 6L53 7L52 7L52 6L51 6L51 7L50 7L50 6L49 6L49 7L50 7L50 8L51 8L51 9L49 9L49 10L47 10L47 7L46 7L46 6L45 6L45 7L44 7L44 5L41 5L41 7L40 7L40 6L39 6L39 7L38 7L38 6L37 6L37 7L38 7L38 8L37 8L37 9L38 9L38 11L37 11L37 10L36 10L36 9L35 9L35 10L36 10L36 11L33 11L33 9L32 9L32 5L31 5L31 4L32 4L32 3L31 3L31 4L29 4L29 3L30 3L30 2L29 2L29 3L28 3L28 2L27 2L27 3L26 3L26 2ZM50 2L50 3L51 3L51 2ZM16 3L16 5L15 5L15 8L18 8L18 6L17 6L17 7L16 7L16 5L17 5L17 4L18 4L18 5L19 5L19 4L18 4L18 3ZM25 3L25 4L24 4L24 5L23 5L23 6L22 6L22 7L23 7L23 6L24 6L24 7L25 7L25 6L24 6L24 5L26 5L26 7L27 7L27 6L28 6L28 7L29 7L29 6L30 6L30 7L31 7L31 6L30 6L30 5L29 5L29 6L28 6L28 5L26 5L26 3ZM60 3L60 5L61 5L61 3ZM33 5L33 8L36 8L36 5ZM34 6L34 7L35 7L35 6ZM42 6L42 7L43 7L43 6ZM45 7L45 9L44 9L44 8L43 8L43 9L41 9L41 10L39 10L39 12L38 12L38 13L39 13L39 14L37 14L37 13L36 13L36 12L33 12L33 14L34 14L34 13L36 13L36 14L35 14L35 17L36 17L36 18L35 18L35 19L37 19L37 20L38 20L38 21L35 21L35 22L34 22L34 21L33 21L33 22L32 22L32 19L33 19L33 16L34 16L34 15L33 15L33 16L32 16L32 14L31 14L31 13L32 13L32 12L31 12L31 11L32 11L32 10L31 10L31 9L30 9L30 8L28 8L28 9L30 9L30 11L29 11L29 10L26 10L26 8L24 8L24 9L23 9L23 10L24 10L24 9L25 9L25 10L26 10L26 12L24 12L24 11L22 11L22 10L20 10L20 11L18 11L18 12L17 12L17 11L16 11L16 12L15 12L15 13L14 13L14 12L13 12L13 13L14 13L14 14L15 14L15 13L16 13L16 12L17 12L17 15L16 15L16 16L17 16L17 17L16 17L16 18L15 18L15 17L14 17L14 16L15 16L15 15L14 15L14 16L13 16L13 17L12 17L12 19L10 19L10 18L11 18L11 17L10 17L10 15L12 15L12 14L11 14L11 11L10 11L10 10L9 10L9 12L10 12L10 14L8 14L8 15L7 15L7 16L6 16L6 17L7 17L7 18L6 18L6 19L7 19L7 20L6 20L6 21L9 21L9 23L10 23L10 22L11 22L11 26L12 26L12 25L13 25L13 26L14 26L14 25L16 25L16 26L15 26L15 27L16 27L16 28L18 28L18 29L17 29L17 30L15 30L15 28L14 28L14 27L13 27L13 28L14 28L14 30L13 30L13 33L15 33L15 32L16 32L16 31L17 31L17 32L18 32L18 33L17 33L17 34L15 34L15 35L13 35L13 36L15 36L15 37L16 37L16 36L17 36L17 38L20 38L20 41L19 41L19 40L17 40L17 41L18 41L18 43L19 43L19 42L20 42L20 44L16 44L16 43L15 43L15 44L16 44L16 45L18 45L18 46L17 46L17 47L18 47L18 46L19 46L19 47L23 47L23 49L24 49L24 48L26 48L26 47L25 47L25 46L27 46L27 48L29 48L29 49L30 49L30 50L32 50L32 52L33 52L33 53L32 53L32 57L31 57L31 54L30 54L30 55L28 55L28 54L27 54L27 55L28 55L28 56L30 56L30 57L29 57L29 58L32 58L32 57L33 57L33 56L38 56L38 55L37 55L37 54L39 54L39 51L41 51L41 50L42 50L42 51L44 51L44 52L41 52L41 53L42 53L42 54L43 54L43 53L44 53L44 56L43 56L43 57L44 57L44 56L46 56L46 57L48 57L48 58L47 58L47 59L50 59L50 53L52 53L52 52L53 52L53 51L55 51L55 53L53 53L53 54L51 54L51 56L52 56L52 55L53 55L53 54L55 54L55 53L56 53L56 55L54 55L54 56L53 56L53 59L51 59L51 60L55 60L55 61L56 61L56 62L58 62L58 61L56 61L56 59L57 59L57 60L59 60L59 59L57 59L57 58L55 58L55 57L56 57L56 55L58 55L58 54L57 54L57 53L56 53L56 52L57 52L57 51L58 51L58 50L57 50L57 51L55 51L55 49L56 49L56 48L57 48L57 49L58 49L58 48L59 48L59 47L61 47L61 48L62 48L62 42L61 42L61 46L59 46L59 47L58 47L58 46L56 46L56 44L57 44L57 45L59 45L59 42L60 42L60 41L59 41L59 42L58 42L58 43L55 43L55 41L51 41L51 42L50 42L50 41L49 41L49 39L50 39L50 36L48 36L48 34L50 34L50 33L51 33L51 32L50 32L50 31L51 31L51 30L55 30L55 29L56 29L56 31L54 31L54 32L55 32L55 33L52 33L52 34L51 34L51 35L53 35L53 34L55 34L55 33L56 33L56 31L57 31L57 29L56 29L56 28L57 28L57 25L56 25L56 24L55 24L55 21L51 21L51 22L50 22L50 21L49 21L49 22L48 22L48 23L47 23L47 24L46 24L46 22L44 22L44 20L43 20L43 17L44 17L44 16L45 16L45 14L44 14L44 16L42 16L42 17L41 17L41 18L39 18L39 19L37 19L37 18L38 18L38 16L40 16L40 15L42 15L42 14L43 14L43 13L44 13L44 11L43 11L43 13L42 13L42 14L41 14L41 12L42 12L42 10L45 10L45 9L46 9L46 7ZM51 7L51 8L52 8L52 7ZM21 8L21 9L22 9L22 8ZM60 8L60 9L61 9L61 8ZM20 11L20 12L19 12L19 13L20 13L20 14L18 14L18 15L17 15L17 16L18 16L18 17L17 17L17 18L16 18L16 19L15 19L15 18L13 18L13 19L12 19L12 20L11 20L11 21L13 21L13 22L12 22L12 24L13 24L13 23L14 23L14 24L15 24L15 22L16 22L16 21L17 21L17 19L18 19L18 17L23 17L23 16L21 16L21 15L20 15L20 14L21 14L21 13L22 13L22 15L24 15L24 14L23 14L23 13L24 13L24 12L22 12L22 11ZM28 11L28 12L26 12L26 13L25 13L25 15L26 15L26 16L25 16L25 17L26 17L26 19L25 19L25 18L23 18L23 19L25 19L25 20L26 20L26 21L25 21L25 22L23 22L23 21L24 21L24 20L20 20L20 22L21 22L21 23L20 23L20 26L18 26L18 25L17 25L17 24L18 24L18 23L16 23L16 25L17 25L17 27L20 27L20 30L19 30L19 29L18 29L18 30L17 30L17 31L18 31L18 30L19 30L19 32L20 32L20 33L19 33L19 34L20 34L20 35L19 35L19 37L20 37L20 38L21 38L21 37L23 37L23 36L24 36L24 37L27 37L27 38L25 38L25 40L26 40L26 41L27 41L27 42L29 42L29 43L27 43L27 44L26 44L26 43L25 43L25 41L24 41L24 39L23 39L23 38L22 38L22 39L21 39L21 40L22 40L22 41L20 41L20 42L21 42L21 43L24 43L24 44L21 44L21 45L19 45L19 46L23 46L23 47L24 47L24 46L23 46L23 45L24 45L24 44L25 44L25 45L27 45L27 46L29 46L29 44L30 44L30 43L31 43L31 49L32 49L32 48L33 48L33 49L36 49L36 50L37 50L37 51L39 51L39 50L41 50L41 49L42 49L42 48L43 48L43 46L42 46L42 45L41 45L41 46L42 46L42 48L41 48L41 47L40 47L40 46L39 46L39 45L40 45L40 44L41 44L41 43L40 43L40 41L41 41L41 40L44 40L44 42L43 42L43 43L44 43L44 42L45 42L45 43L46 43L46 42L47 42L47 40L48 40L48 39L47 39L47 40L45 40L45 39L42 39L42 38L40 38L40 37L43 37L43 36L44 36L44 37L45 37L45 38L48 38L48 36L47 36L47 34L48 34L48 33L45 33L45 32L44 32L44 31L45 31L45 30L47 30L47 28L49 28L49 29L48 29L48 30L49 30L49 31L50 31L50 30L51 30L51 29L55 29L55 28L56 28L56 25L55 25L55 28L51 28L51 29L50 29L50 27L54 27L54 26L52 26L52 25L53 25L53 24L54 24L54 22L51 22L51 23L50 23L50 22L49 22L49 23L48 23L48 24L47 24L47 25L46 25L46 24L45 24L45 23L44 23L44 22L42 22L42 21L43 21L43 20L42 20L42 19L41 19L41 20L40 20L40 19L39 19L39 22L37 22L37 23L36 23L36 24L37 24L37 25L38 25L38 26L37 26L37 28L40 28L40 29L38 29L38 31L39 31L39 30L40 30L40 31L43 31L43 32L38 32L38 34L37 34L37 36L38 36L38 37L34 37L34 38L32 38L32 35L31 35L31 38L30 38L30 39L29 39L29 40L27 40L27 38L29 38L29 36L30 36L30 35L29 35L29 36L28 36L28 35L27 35L27 34L28 34L28 33L29 33L29 31L30 31L30 32L31 32L31 31L32 31L32 32L34 32L34 31L33 31L33 30L34 30L34 29L35 29L35 30L37 30L37 29L36 29L36 28L35 28L35 27L36 27L36 26L34 26L34 25L35 25L35 23L31 23L31 24L32 24L32 25L31 25L31 27L30 27L30 28L31 28L31 29L29 29L29 27L27 27L27 28L26 28L26 29L25 29L25 30L29 30L29 31L27 31L27 32L28 32L28 33L25 33L25 34L26 34L26 35L25 35L25 36L24 36L24 34L23 34L23 36L21 36L21 35L22 35L22 33L24 33L24 32L26 32L26 31L24 31L24 32L23 32L23 31L22 31L22 29L23 29L23 28L24 28L24 27L23 27L23 26L24 26L24 25L22 25L22 24L21 24L21 23L22 23L22 22L23 22L23 23L25 23L25 22L26 22L26 24L25 24L25 25L27 25L27 26L29 26L29 25L30 25L30 24L28 24L28 25L27 25L27 22L29 22L29 23L30 23L30 22L31 22L31 21L30 21L30 20L31 20L31 19L32 19L32 18L31 18L31 19L30 19L30 20L29 20L29 16L31 16L31 17L32 17L32 16L31 16L31 14L30 14L30 13L29 13L29 11ZM40 11L40 12L39 12L39 13L40 13L40 12L41 12L41 11ZM60 11L60 13L61 13L61 11ZM26 13L26 14L27 14L27 16L28 16L28 14L27 14L27 13ZM29 14L29 15L30 15L30 14ZM39 14L39 15L40 15L40 14ZM8 15L8 16L7 16L7 17L8 17L8 16L9 16L9 15ZM51 15L51 16L52 16L52 15ZM67 15L67 17L68 17L68 15ZM36 16L36 17L37 17L37 16ZM27 17L27 18L28 18L28 17ZM63 17L63 18L65 18L65 17ZM7 18L7 19L8 19L8 20L10 20L10 19L8 19L8 18ZM19 18L19 19L20 19L20 18ZM44 18L44 19L46 19L46 18ZM13 19L13 21L15 21L15 20L14 20L14 19ZM26 19L26 20L28 20L28 19ZM4 20L4 21L5 21L5 20ZM41 20L41 21L42 21L42 20ZM18 21L18 22L19 22L19 21ZM21 21L21 22L22 22L22 21ZM26 21L26 22L27 22L27 21ZM29 21L29 22L30 22L30 21ZM56 21L56 23L57 23L57 21ZM63 21L63 22L64 22L64 21ZM5 22L5 24L6 24L6 25L7 25L7 24L6 24L6 23L8 23L8 22ZM39 22L39 23L41 23L41 24L42 24L42 25L41 25L41 26L39 26L39 27L42 27L42 30L43 30L43 29L44 29L44 30L45 30L45 29L44 29L44 28L47 28L47 27L49 27L49 26L50 26L50 24L48 24L48 25L47 25L47 27L46 27L46 26L43 26L43 25L44 25L44 24L43 24L43 23L42 23L42 22ZM58 22L58 23L59 23L59 22ZM3 23L3 24L4 24L4 23ZM37 23L37 24L38 24L38 25L39 25L39 24L38 24L38 23ZM61 23L61 24L60 24L60 25L59 25L59 24L58 24L58 25L59 25L59 26L61 26L61 27L62 27L62 25L63 25L63 24L62 24L62 23ZM67 23L67 24L68 24L68 23ZM8 24L8 25L9 25L9 24ZM33 24L33 25L32 25L32 26L33 26L33 25L34 25L34 24ZM61 24L61 25L62 25L62 24ZM4 25L4 26L5 26L5 25ZM21 25L21 27L22 27L22 25ZM6 26L6 27L7 27L7 28L6 28L6 29L7 29L7 28L8 28L8 27L10 27L10 26L8 26L8 27L7 27L7 26ZM25 26L25 27L26 27L26 26ZM31 27L31 28L32 28L32 29L31 29L31 30L30 30L30 31L31 31L31 30L33 30L33 29L34 29L34 28L33 28L33 27ZM49 29L49 30L50 30L50 29ZM20 30L20 31L21 31L21 30ZM60 30L60 31L61 31L61 30ZM46 31L46 32L47 32L47 31ZM67 31L67 32L66 32L66 33L65 33L65 34L66 34L66 35L67 35L67 36L68 36L68 35L67 35L67 34L68 34L68 31ZM21 32L21 33L22 33L22 32ZM43 32L43 33L40 33L40 36L39 36L39 37L40 37L40 36L41 36L41 34L43 34L43 33L44 33L44 36L45 36L45 37L47 37L47 36L45 36L45 33L44 33L44 32ZM49 32L49 33L50 33L50 32ZM3 33L3 35L4 35L4 33ZM5 33L5 36L8 36L8 33ZM33 33L33 36L36 36L36 33ZM61 33L61 36L64 36L64 33ZM66 33L66 34L67 34L67 33ZM6 34L6 35L7 35L7 34ZM17 34L17 36L18 36L18 34ZM34 34L34 35L35 35L35 34ZM62 34L62 35L63 35L63 34ZM15 35L15 36L16 36L16 35ZM42 35L42 36L43 36L43 35ZM3 36L3 38L4 38L4 36ZM54 36L54 37L55 37L55 36ZM6 37L6 38L7 38L7 39L5 39L5 40L8 40L8 41L5 41L5 42L4 42L4 41L3 41L3 40L4 40L4 39L3 39L3 40L2 40L2 41L3 41L3 42L4 42L4 44L5 44L5 45L3 45L3 46L2 46L2 47L3 47L3 46L5 46L5 47L6 47L6 46L5 46L5 45L6 45L6 44L7 44L7 43L5 43L5 42L9 42L9 40L10 40L10 39L9 39L9 38L8 38L8 37ZM36 38L36 39L31 39L31 41L30 41L30 40L29 40L29 41L30 41L30 42L31 42L31 41L32 41L32 42L33 42L33 43L34 43L34 44L32 44L32 45L34 45L34 47L35 47L35 48L36 48L36 47L37 47L37 48L38 48L38 47L39 47L39 48L40 48L40 47L39 47L39 46L38 46L38 45L39 45L39 44L40 44L40 43L38 43L38 41L39 41L39 40L41 40L41 39L38 39L38 38ZM32 40L32 41L36 41L36 40ZM37 40L37 41L38 41L38 40ZM15 41L15 42L16 42L16 41ZM23 41L23 42L24 42L24 41ZM56 41L56 42L57 42L57 41ZM34 42L34 43L35 43L35 42ZM36 42L36 43L37 43L37 45L38 45L38 43L37 43L37 42ZM49 42L49 43L48 43L48 44L51 44L51 45L49 45L49 46L47 46L47 45L46 45L46 44L43 44L43 45L44 45L44 49L43 49L43 50L44 50L44 49L45 49L45 52L44 52L44 53L45 53L45 54L46 54L46 56L48 56L48 55L49 55L49 53L48 53L48 55L47 55L47 53L45 53L45 52L46 52L46 51L47 51L47 52L49 52L49 50L48 50L48 49L47 49L47 48L48 48L48 47L49 47L49 49L50 49L50 50L51 50L51 51L50 51L50 52L52 52L52 51L53 51L53 50L51 50L51 49L54 49L54 48L56 48L56 46L55 46L55 47L54 47L54 46L53 46L53 48L51 48L51 47L52 47L52 45L53 45L53 42L51 42L51 43L50 43L50 42ZM34 44L34 45L35 45L35 47L36 47L36 45L35 45L35 44ZM32 46L32 47L33 47L33 46ZM49 46L49 47L51 47L51 46ZM45 47L45 49L46 49L46 47ZM57 47L57 48L58 48L58 47ZM0 48L0 49L1 49L1 48ZM17 48L17 49L18 49L18 48ZM50 48L50 49L51 49L51 48ZM27 49L27 50L28 50L28 49ZM37 49L37 50L38 50L38 49ZM61 49L61 50L59 50L59 51L61 51L61 52L60 52L60 53L61 53L61 52L62 52L62 54L61 54L61 55L62 55L62 54L63 54L63 53L64 53L64 52L65 52L65 51L64 51L64 52L63 52L63 51L62 51L62 49ZM34 50L34 51L33 51L33 52L34 52L34 53L33 53L33 54L35 54L35 55L36 55L36 53L38 53L38 52L36 52L36 53L35 53L35 50ZM6 51L6 52L7 52L7 51ZM0 53L0 54L1 54L1 55L0 55L0 61L1 61L1 58L2 58L2 59L3 59L3 57L1 57L1 56L2 56L2 54L3 54L3 55L4 55L4 54L3 54L3 53ZM9 53L9 54L8 54L8 57L9 57L9 56L10 56L10 58L11 58L11 59L12 59L12 58L11 58L11 56L12 56L12 55L13 55L13 54L12 54L12 53ZM15 53L15 54L14 54L14 56L15 56L15 57L16 57L16 56L17 56L17 55L18 55L18 54L16 54L16 53ZM21 53L21 54L22 54L22 53ZM9 54L9 55L12 55L12 54ZM15 54L15 56L16 56L16 54ZM59 54L59 56L60 56L60 54ZM6 56L6 57L7 57L7 56ZM57 56L57 57L58 57L58 56ZM21 57L21 58L20 58L20 59L19 59L19 60L17 60L17 61L19 61L19 60L20 60L20 61L21 61L21 62L22 62L22 61L21 61L21 60L22 60L22 59L21 59L21 58L22 58L22 57ZM59 57L59 58L60 58L60 57ZM54 58L54 59L55 59L55 58ZM20 59L20 60L21 60L21 59ZM67 59L67 60L65 60L65 61L67 61L67 62L68 62L68 61L67 61L67 60L68 60L68 59ZM3 60L3 61L5 61L5 60ZM6 60L6 61L7 61L7 60ZM23 60L23 61L24 61L24 60ZM42 60L42 61L43 61L43 60ZM10 61L10 62L12 62L12 64L13 64L13 61ZM33 61L33 64L36 64L36 61ZM46 61L46 62L47 62L47 61ZM61 61L61 64L64 64L64 61ZM34 62L34 63L35 63L35 62ZM62 62L62 63L63 63L63 62ZM65 62L65 63L66 63L66 62ZM23 63L23 64L24 64L24 63ZM25 63L25 64L26 64L26 63ZM67 63L67 64L68 64L68 63ZM14 64L14 66L13 66L13 65L10 65L10 66L11 66L11 67L13 67L13 68L16 68L16 67L17 67L17 65L18 65L18 64L17 64L17 65L16 65L16 64ZM38 64L38 65L37 65L37 66L36 66L36 65L34 65L34 66L33 66L33 67L34 67L34 66L35 66L35 67L37 67L37 66L39 66L39 67L40 67L40 66L41 66L41 67L43 67L43 68L44 68L44 66L45 66L45 67L46 67L46 66L45 66L45 64L44 64L44 66L41 66L41 64ZM15 65L15 67L16 67L16 65ZM31 65L31 66L32 66L32 65ZM50 65L50 66L51 66L51 65ZM23 66L23 67L24 67L24 66ZM53 66L53 67L54 67L54 66ZM47 67L47 68L48 68L48 67ZM60 67L60 68L61 68L61 67ZM50 68L50 69L51 69L51 68ZM0 0L0 7L7 7L7 0ZM1 1L1 6L6 6L6 1ZM2 2L2 5L5 5L5 2ZM62 0L62 7L69 7L69 0ZM63 1L63 6L68 6L68 1ZM64 2L64 5L67 5L67 2ZM0 62L0 69L7 69L7 62ZM1 63L1 68L6 68L6 63ZM2 64L2 67L5 67L5 64Z" fill="#000000"/></g></g></svg>
