<?xml version="1.0" encoding="UTF-8"?>
<svg xmlns="http://www.w3.org/2000/svg" version="1.1" width="300" height="300" viewBox="0 0 300 300"><rect x="0" y="0" width="300" height="300" fill="#ffffff"/><g transform="scale(4.348)"><g transform="translate(0,0)"><path fill-rule="evenodd" d="M8 0L8 1L9 1L9 2L8 2L8 5L11 5L11 3L13 3L13 1L16 1L16 0L12 0L12 1L11 1L11 3L10 3L10 0ZM17 0L17 2L16 2L16 3L15 3L15 2L14 2L14 4L16 4L16 5L17 5L17 6L16 6L16 8L13 8L13 6L14 6L14 7L15 7L15 6L14 6L14 5L13 5L13 6L12 6L12 8L11 8L11 6L10 6L10 7L9 7L9 6L8 6L8 7L9 7L9 8L8 8L8 9L7 9L7 8L6 8L6 9L7 9L7 10L5 10L5 9L4 9L4 8L0 8L0 9L1 9L1 10L0 10L0 12L1 12L1 14L0 14L0 15L2 15L2 16L1 16L1 17L0 17L0 19L1 19L1 18L2 18L2 19L3 19L3 20L2 20L2 21L1 21L1 20L0 20L0 26L1 26L1 27L3 27L3 26L4 26L4 27L5 27L5 28L6 28L6 29L1 29L1 28L0 28L0 29L1 29L1 30L0 30L0 31L2 31L2 32L1 32L1 33L0 33L0 41L1 41L1 43L0 43L0 46L1 46L1 43L2 43L2 42L3 42L3 44L2 44L2 45L3 45L3 46L2 46L2 47L0 47L0 53L1 53L1 54L2 54L2 56L4 56L4 55L3 55L3 54L4 54L4 53L5 53L5 54L6 54L6 55L5 55L5 57L8 57L8 58L4 58L4 57L3 57L3 58L2 58L2 57L1 57L1 56L0 56L0 61L1 61L1 58L2 58L2 59L3 59L3 58L4 58L4 59L10 59L10 60L9 60L9 61L8 61L8 60L6 60L6 61L8 61L8 62L10 62L10 64L9 64L9 65L8 65L8 69L14 69L14 68L12 68L12 67L11 67L11 68L10 68L10 66L9 66L9 65L10 65L10 64L11 64L11 65L13 65L13 67L17 67L17 68L15 68L15 69L18 69L18 67L20 67L20 68L19 68L19 69L24 69L24 68L23 68L23 66L24 66L24 67L25 67L25 68L26 68L26 67L25 67L25 66L26 66L26 64L27 64L27 62L28 62L28 63L29 63L29 66L28 66L28 65L27 65L27 68L28 68L28 69L30 69L30 67L32 67L32 68L33 68L33 69L34 69L34 66L36 66L36 67L38 67L38 68L39 68L39 69L41 69L41 68L42 68L42 69L43 69L43 67L41 67L41 66L42 66L42 65L40 65L40 64L41 64L41 62L39 62L39 61L40 61L40 60L41 60L41 61L42 61L42 60L41 60L41 59L42 59L42 58L43 58L43 56L41 56L41 55L43 55L43 54L44 54L44 55L46 55L46 54L48 54L48 55L47 55L47 58L50 58L50 59L48 59L48 60L46 60L46 59L45 59L45 58L44 58L44 59L43 59L43 63L44 63L44 64L43 64L43 65L45 65L45 63L46 63L46 62L45 62L45 61L44 61L44 59L45 59L45 60L46 60L46 61L49 61L49 62L48 62L48 63L47 63L47 64L49 64L49 65L50 65L50 62L52 62L52 61L51 61L51 60L53 60L53 64L54 64L54 63L55 63L55 64L56 64L56 65L55 65L55 66L54 66L54 65L53 65L53 66L54 66L54 68L52 68L52 67L51 67L51 66L50 66L50 67L51 67L51 69L54 69L54 68L55 68L55 67L56 67L56 68L57 68L57 69L58 69L58 67L59 67L59 68L60 68L60 69L62 69L62 68L63 68L63 66L64 66L64 65L67 65L67 66L68 66L68 65L69 65L69 63L68 63L68 64L67 64L67 63L65 63L65 61L66 61L66 60L65 60L65 58L66 58L66 56L65 56L65 55L64 55L64 57L65 57L65 58L64 58L64 60L62 60L62 59L63 59L63 58L61 58L61 57L63 57L63 56L61 56L61 55L62 55L62 52L63 52L63 51L62 51L62 52L61 52L61 53L60 53L60 50L61 50L61 49L60 49L60 50L58 50L58 49L57 49L57 51L59 51L59 52L56 52L56 48L59 48L59 47L60 47L60 48L61 48L61 47L63 47L63 44L65 44L65 43L62 43L62 42L63 42L63 41L64 41L64 42L65 42L65 40L67 40L67 38L66 38L66 36L65 36L65 33L67 33L67 32L65 32L65 30L63 30L63 32L62 32L62 30L60 30L60 29L61 29L61 28L62 28L62 29L64 29L64 28L62 28L62 26L63 26L63 27L66 27L66 30L67 30L67 27L66 27L66 26L64 26L64 25L63 25L63 24L62 24L62 25L61 25L61 26L59 26L59 27L57 27L57 26L58 26L58 25L59 25L59 24L60 24L60 23L59 23L59 22L62 22L62 20L63 20L63 21L65 21L65 20L63 20L63 18L62 18L62 19L61 19L61 18L60 18L60 17L59 17L59 16L61 16L61 17L64 17L64 15L62 15L62 14L63 14L63 12L66 12L66 13L64 13L64 14L65 14L65 19L67 19L67 20L66 20L66 22L67 22L67 23L69 23L69 21L68 21L68 22L67 22L67 20L69 20L69 19L68 19L68 18L69 18L69 16L68 16L68 15L66 15L66 14L67 14L67 13L68 13L68 14L69 14L69 13L68 13L68 11L69 11L69 8L68 8L68 9L67 9L67 8L64 8L64 9L63 9L63 10L62 10L62 8L59 8L59 9L60 9L60 10L58 10L58 11L60 11L60 12L61 12L61 11L62 11L62 13L61 13L61 15L59 15L59 14L58 14L58 13L59 13L59 12L58 12L58 13L57 13L57 15L59 15L59 16L58 16L58 17L57 17L57 16L56 16L56 15L55 15L55 14L54 14L54 15L53 15L53 13L51 13L51 12L52 12L52 11L51 11L51 10L50 10L50 8L51 8L51 9L52 9L52 10L55 10L55 12L54 12L54 13L56 13L56 12L57 12L57 11L56 11L56 10L55 10L55 9L56 9L56 7L57 7L57 9L58 9L58 7L59 7L59 4L56 4L56 3L57 3L57 0L53 0L53 1L52 1L52 3L53 3L53 2L54 2L54 4L55 4L55 5L58 5L58 7L57 7L57 6L56 6L56 7L55 7L55 6L54 6L54 7L53 7L53 6L52 6L52 7L53 7L53 8L51 8L51 6L50 6L50 7L49 7L49 5L51 5L51 4L49 4L49 3L50 3L50 2L49 2L49 1L50 1L50 0L49 0L49 1L48 1L48 2L45 2L45 0L44 0L44 2L43 2L43 6L42 6L42 5L40 5L40 4L38 4L38 1L37 1L37 0L33 0L33 1L32 1L32 0L31 0L31 1L30 1L30 0L28 0L28 2L27 2L27 1L26 1L26 2L27 2L27 4L26 4L26 3L25 3L25 0L23 0L23 1L22 1L22 2L21 2L21 1L19 1L19 0ZM41 0L41 1L40 1L40 2L39 2L39 3L41 3L41 2L42 2L42 1L43 1L43 0ZM58 0L58 1L61 1L61 0ZM31 1L31 4L33 4L33 3L32 3L32 1ZM33 1L33 2L34 2L34 1ZM35 1L35 2L37 2L37 1ZM55 1L55 3L56 3L56 1ZM17 2L17 3L19 3L19 4L18 4L18 6L17 6L17 8L18 8L18 9L17 9L17 10L15 10L15 11L13 11L13 10L14 10L14 9L13 9L13 10L12 10L12 9L11 9L11 10L12 10L12 12L11 12L11 11L10 11L10 8L9 8L9 11L5 11L5 13L4 13L4 12L3 12L3 17L5 17L5 16L4 16L4 15L6 15L6 16L7 16L7 17L6 17L6 18L7 18L7 19L6 19L6 20L5 20L5 18L4 18L4 21L3 21L3 22L1 22L1 23L2 23L2 24L1 24L1 26L2 26L2 25L3 25L3 23L4 23L4 24L7 24L7 23L10 23L10 26L15 26L15 29L19 29L19 30L20 30L20 31L18 31L18 30L17 30L17 31L15 31L15 30L14 30L14 29L13 29L13 30L14 30L14 31L12 31L12 30L11 30L11 29L12 29L12 28L11 28L11 27L10 27L10 28L8 28L8 26L7 26L7 25L6 25L6 26L7 26L7 27L6 27L6 28L7 28L7 29L6 29L6 30L5 30L5 31L4 31L4 30L2 30L2 31L4 31L4 32L5 32L5 31L6 31L6 32L7 32L7 31L9 31L9 33L10 33L10 34L9 34L9 35L10 35L10 36L9 36L9 38L8 38L8 37L6 37L6 38L2 38L2 36L1 36L1 38L2 38L2 41L3 41L3 42L4 42L4 44L3 44L3 45L4 45L4 46L8 46L8 47L9 47L9 48L8 48L8 49L6 49L6 50L7 50L7 51L6 51L6 52L5 52L5 51L4 51L4 52L5 52L5 53L6 53L6 54L7 54L7 55L6 55L6 56L7 56L7 55L8 55L8 57L9 57L9 58L12 58L12 56L13 56L13 61L12 61L12 60L10 60L10 61L11 61L11 64L13 64L13 63L12 63L12 62L14 62L14 63L15 63L15 64L14 64L14 65L15 65L15 66L16 66L16 65L15 65L15 64L17 64L17 63L20 63L20 64L22 64L22 65L20 65L20 67L21 67L21 68L22 68L22 67L21 67L21 66L23 66L23 60L24 60L24 63L25 63L25 64L26 64L26 61L27 61L27 60L28 60L28 62L30 62L30 63L31 63L31 62L32 62L32 60L34 60L34 58L33 58L33 59L32 59L32 57L31 57L31 55L32 55L32 56L35 56L35 57L37 57L37 58L36 58L36 60L37 60L37 58L38 58L38 60L40 60L40 58L39 58L39 57L37 57L37 56L40 56L40 55L41 55L41 54L40 54L40 55L39 55L39 54L38 54L38 53L39 53L39 52L37 52L37 54L36 54L36 53L35 53L35 51L41 51L41 52L40 52L40 53L42 53L42 54L43 54L43 52L44 52L44 50L45 50L45 48L46 48L46 50L47 50L47 51L49 51L49 52L47 52L47 53L48 53L48 54L49 54L49 55L48 55L48 57L49 57L49 55L50 55L50 54L53 54L53 55L55 55L55 56L53 56L53 57L51 57L51 56L52 56L52 55L51 55L51 56L50 56L50 58L52 58L52 59L53 59L53 60L54 60L54 62L56 62L56 63L57 63L57 65L56 65L56 67L58 67L58 66L57 66L57 65L58 65L58 64L59 64L59 66L61 66L61 67L62 67L62 66L63 66L63 65L62 65L62 66L61 66L61 65L60 65L60 59L59 59L59 57L61 57L61 56L60 56L60 53L59 53L59 54L58 54L58 55L57 55L57 56L56 56L56 54L55 54L55 47L53 47L53 45L52 45L52 46L51 46L51 44L53 44L53 43L51 43L51 44L50 44L50 42L51 42L51 41L50 41L50 40L52 40L52 42L53 42L53 41L54 41L54 44L55 44L55 45L56 45L56 47L59 47L59 45L60 45L60 46L62 46L62 43L61 43L61 44L60 44L60 43L58 43L58 45L57 45L57 44L55 44L55 42L56 42L56 41L54 41L54 40L52 40L52 39L50 39L50 37L53 37L53 39L54 39L54 38L55 38L55 39L56 39L56 40L57 40L57 41L59 41L59 40L58 40L58 39L57 39L57 35L59 35L59 37L58 37L58 38L59 38L59 37L60 37L60 41L62 41L62 39L63 39L63 38L65 38L65 39L66 39L66 38L65 38L65 37L63 37L63 38L62 38L62 37L60 37L60 32L61 32L61 31L60 31L60 30L56 30L56 29L55 29L55 28L57 28L57 27L55 27L55 26L56 26L56 25L57 25L57 24L56 24L56 25L53 25L53 24L51 24L51 25L53 25L53 26L54 26L54 27L51 27L51 26L49 26L49 25L50 25L50 24L49 24L49 25L48 25L48 24L47 24L47 25L46 25L46 23L48 23L48 22L49 22L49 23L50 23L50 22L52 22L52 23L54 23L54 24L55 24L55 23L56 23L56 22L53 22L53 21L54 21L54 19L55 19L55 21L58 21L58 22L59 22L59 21L58 21L58 20L56 20L56 18L57 18L57 19L59 19L59 18L57 18L57 17L56 17L56 18L55 18L55 15L54 15L54 16L53 16L53 15L52 15L52 17L50 17L50 16L51 16L51 15L50 15L50 11L49 11L49 13L46 13L46 11L47 11L47 12L48 12L48 11L47 11L47 9L46 9L46 8L48 8L48 9L49 9L49 7L48 7L48 6L47 6L47 7L46 7L46 5L49 5L49 4L48 4L48 3L46 3L46 5L45 5L45 8L44 8L44 6L43 6L43 9L45 9L45 10L46 10L46 11L45 11L45 12L44 12L44 10L43 10L43 12L41 12L41 13L42 13L42 14L43 14L43 15L41 15L41 14L40 14L40 11L42 11L42 10L41 10L41 9L42 9L42 8L41 8L41 9L40 9L40 11L38 11L38 10L39 10L39 8L40 8L40 6L39 6L39 5L38 5L38 4L37 4L37 3L36 3L36 4L37 4L37 7L38 7L38 10L37 10L37 11L38 11L38 13L39 13L39 14L40 14L40 17L41 17L41 16L42 16L42 18L43 18L43 19L41 19L41 21L44 21L44 22L42 22L42 24L39 24L39 23L40 23L40 20L39 20L39 15L37 15L37 12L36 12L36 9L33 9L33 10L34 10L34 11L32 11L32 13L31 13L31 14L30 14L30 12L29 12L29 13L28 13L28 14L27 14L27 11L29 11L29 10L30 10L30 9L29 9L29 7L30 7L30 6L29 6L29 7L28 7L28 5L29 5L29 3L30 3L30 2L28 2L28 5L25 5L25 4L23 4L23 3L24 3L24 2L23 2L23 3L21 3L21 2L20 2L20 3L19 3L19 2ZM58 2L58 3L59 3L59 2ZM9 3L9 4L10 4L10 3ZM20 3L20 4L19 4L19 6L18 6L18 7L19 7L19 8L22 8L22 9L23 9L23 10L22 10L22 12L24 12L24 13L25 13L25 14L24 14L24 15L25 15L25 16L24 16L24 17L23 17L23 18L21 18L21 17L22 17L22 16L21 16L21 14L22 14L22 15L23 15L23 13L19 13L19 12L20 12L20 11L19 11L19 10L20 10L20 9L18 9L18 10L17 10L17 11L15 11L15 13L14 13L14 12L12 12L12 13L11 13L11 12L10 12L10 11L9 11L9 12L8 12L8 13L7 13L7 12L6 12L6 13L7 13L7 14L6 14L6 15L7 15L7 16L9 16L9 17L7 17L7 18L9 18L9 17L12 17L12 18L13 18L13 17L12 17L12 16L11 16L11 15L13 15L13 13L14 13L14 14L16 14L16 13L17 13L17 15L14 15L14 18L15 18L15 19L16 19L16 18L17 18L17 20L16 20L16 21L18 21L18 20L19 20L19 22L20 22L20 19L26 19L26 18L24 18L24 17L25 17L25 16L26 16L26 17L28 17L28 18L29 18L29 19L30 19L30 20L28 20L28 21L29 21L29 22L27 22L27 21L26 21L26 22L25 22L25 21L23 21L23 20L21 20L21 23L19 23L19 24L17 24L17 23L13 23L13 22L12 22L12 21L11 21L11 22L10 22L10 23L11 23L11 25L12 25L12 24L14 24L14 25L15 25L15 26L17 26L17 27L16 27L16 28L20 28L20 29L21 29L21 31L20 31L20 32L21 32L21 33L22 33L22 34L19 34L19 33L17 33L17 35L18 35L18 36L17 36L17 37L19 37L19 40L21 40L21 38L22 38L22 39L23 39L23 41L21 41L21 42L19 42L19 43L17 43L17 45L18 45L18 48L16 48L16 49L15 49L15 50L14 50L14 52L13 52L13 51L12 51L12 49L13 49L13 48L11 48L11 47L14 47L14 46L15 46L15 47L16 47L16 44L15 44L15 43L13 43L13 41L16 41L16 42L18 42L18 41L16 41L16 40L17 40L17 38L16 38L16 37L15 37L15 35L14 35L14 34L16 34L16 32L15 32L15 31L14 31L14 32L12 32L12 31L11 31L11 32L10 32L10 33L11 33L11 34L12 34L12 35L11 35L11 36L12 36L12 37L11 37L11 38L10 38L10 39L9 39L9 41L8 41L8 40L6 40L6 39L8 39L8 38L6 38L6 39L4 39L4 42L6 42L6 43L5 43L5 45L7 45L7 44L6 44L6 43L8 43L8 44L9 44L9 45L8 45L8 46L9 46L9 45L10 45L10 48L11 48L11 50L9 50L9 49L8 49L8 50L9 50L9 51L10 51L10 52L11 52L11 53L12 53L12 55L10 55L10 57L11 57L11 56L12 56L12 55L14 55L14 54L15 54L15 56L14 56L14 57L15 57L15 56L16 56L16 59L14 59L14 61L15 61L15 63L16 63L16 61L15 61L15 60L16 60L16 59L17 59L17 61L18 61L18 62L22 62L22 61L21 61L21 60L22 60L22 56L23 56L23 57L24 57L24 58L25 58L25 61L26 61L26 59L28 59L28 60L29 60L29 61L31 61L31 59L30 59L30 58L31 58L31 57L29 57L29 55L28 55L28 56L27 56L27 55L25 55L25 56L27 56L27 57L29 57L29 58L25 58L25 57L24 57L24 56L23 56L23 54L24 54L24 53L22 53L22 52L23 52L23 50L22 50L22 49L21 49L21 50L20 50L20 49L19 49L19 51L18 51L18 48L19 48L19 47L20 47L20 48L21 48L21 47L22 47L22 48L24 48L24 49L25 49L25 50L24 50L24 52L25 52L25 53L27 53L27 54L29 54L29 52L31 52L31 51L32 51L32 52L33 52L33 50L34 50L34 51L35 51L35 50L34 50L34 49L33 49L33 48L34 48L34 47L35 47L35 48L37 48L37 47L38 47L38 46L37 46L37 47L36 47L36 46L35 46L35 43L36 43L36 42L37 42L37 43L38 43L38 44L36 44L36 45L39 45L39 47L40 47L40 48L42 48L42 49L44 49L44 48L43 48L43 47L44 47L44 46L45 46L45 45L42 45L42 44L41 44L41 45L40 45L40 44L39 44L39 43L38 43L38 42L37 42L37 41L36 41L36 40L37 40L37 39L35 39L35 38L34 38L34 39L33 39L33 38L32 38L32 37L36 37L36 38L37 38L37 37L38 37L38 38L39 38L39 37L38 37L38 35L41 35L41 37L40 37L40 38L41 38L41 39L38 39L38 40L39 40L39 42L40 42L40 43L43 43L43 44L46 44L46 43L48 43L48 44L47 44L47 46L46 46L46 48L47 48L47 50L50 50L50 51L52 51L52 50L53 50L53 49L54 49L54 48L53 48L53 49L52 49L52 47L51 47L51 48L50 48L50 49L49 49L49 48L47 48L47 47L50 47L50 45L48 45L48 44L49 44L49 41L48 41L48 42L47 42L47 41L46 41L46 40L47 40L47 39L48 39L48 40L50 40L50 39L48 39L48 38L49 38L49 34L50 34L50 36L51 36L51 34L52 34L52 33L53 33L53 32L54 32L54 31L53 31L53 30L54 30L54 28L53 28L53 29L52 29L52 28L51 28L51 30L52 30L52 31L50 31L50 30L49 30L49 29L46 29L46 28L47 28L47 27L48 27L48 26L46 26L46 25L44 25L44 23L43 23L43 24L42 24L42 25L44 25L44 28L43 28L43 27L42 27L42 26L41 26L41 27L42 27L42 28L41 28L41 29L39 29L39 27L38 27L38 26L40 26L40 25L39 25L39 24L38 24L38 23L39 23L39 20L38 20L38 18L37 18L37 17L36 17L36 18L35 18L35 17L34 17L34 15L35 15L35 16L36 16L36 14L33 14L33 13L32 13L32 14L31 14L31 15L27 15L27 16L26 16L26 12L25 12L25 10L24 10L24 9L23 9L23 8L22 8L22 7L23 7L23 6L24 6L24 8L27 8L27 9L26 9L26 10L27 10L27 9L28 9L28 7L27 7L27 6L26 6L26 7L25 7L25 5L23 5L23 4L21 4L21 3ZM44 3L44 4L45 4L45 3ZM60 3L60 5L61 5L61 3ZM21 5L21 7L22 7L22 5ZM33 5L33 8L36 8L36 5ZM19 6L19 7L20 7L20 6ZM31 6L31 9L32 9L32 6ZM34 6L34 7L35 7L35 6ZM38 6L38 7L39 7L39 6ZM41 6L41 7L42 7L42 6ZM60 6L60 7L61 7L61 6ZM54 7L54 8L53 8L53 9L55 9L55 7ZM64 9L64 11L65 11L65 10L67 10L67 11L66 11L66 12L67 12L67 11L68 11L68 10L67 10L67 9ZM60 10L60 11L61 11L61 10ZM1 11L1 12L2 12L2 11ZM17 11L17 12L18 12L18 11ZM34 11L34 13L36 13L36 12L35 12L35 11ZM43 12L43 13L44 13L44 16L43 16L43 18L44 18L44 20L45 20L45 21L46 21L46 19L47 19L47 21L48 21L48 19L47 19L47 18L48 18L48 17L47 17L47 14L46 14L46 13L44 13L44 12ZM8 13L8 14L7 14L7 15L8 15L8 14L9 14L9 15L10 15L10 14L9 14L9 13ZM18 13L18 14L19 14L19 15L17 15L17 18L18 18L18 19L20 19L20 16L19 16L19 15L20 15L20 14L19 14L19 13ZM45 14L45 15L46 15L46 14ZM48 14L48 15L49 15L49 16L50 16L50 15L49 15L49 14ZM32 15L32 16L28 16L28 17L30 17L30 18L31 18L31 19L32 19L32 18L31 18L31 17L33 17L33 15ZM61 15L61 16L62 16L62 15ZM15 16L15 18L16 18L16 16ZM18 16L18 17L19 17L19 16ZM45 16L45 17L44 17L44 18L45 18L45 19L46 19L46 16ZM66 16L66 17L67 17L67 18L68 18L68 16ZM53 17L53 18L51 18L51 19L49 19L49 22L50 22L50 20L51 20L51 21L53 21L53 19L54 19L54 17ZM10 18L10 20L12 20L12 19L11 19L11 18ZM33 18L33 19L34 19L34 20L35 20L35 21L33 21L33 23L32 23L32 20L30 20L30 24L29 24L29 23L28 23L28 24L27 24L27 23L26 23L26 24L25 24L25 25L24 25L24 27L22 27L22 26L23 26L23 25L22 25L22 24L24 24L24 23L25 23L25 22L24 22L24 23L21 23L21 24L20 24L20 25L21 25L21 26L20 26L20 28L21 28L21 27L22 27L22 30L23 30L23 29L24 29L24 30L27 30L27 29L28 29L28 28L27 28L27 29L24 29L24 27L25 27L25 28L26 28L26 27L25 27L25 25L26 25L26 26L27 26L27 25L28 25L28 26L29 26L29 30L32 30L32 31L33 31L33 30L32 30L32 29L34 29L34 30L38 30L38 31L37 31L37 32L40 32L40 31L41 31L41 33L42 33L42 32L43 32L43 35L42 35L42 38L43 38L43 39L41 39L41 40L40 40L40 42L41 42L41 41L42 41L42 42L43 42L43 43L44 43L44 42L45 42L45 43L46 43L46 42L45 42L45 41L43 41L43 40L45 40L45 39L47 39L47 37L46 37L46 38L45 38L45 36L44 36L44 38L43 38L43 35L45 35L45 34L46 34L46 35L47 35L47 36L48 36L48 34L47 34L47 32L48 32L48 33L49 33L49 31L47 31L47 30L46 30L46 31L45 31L45 29L44 29L44 31L43 31L43 28L42 28L42 29L41 29L41 30L40 30L40 31L39 31L39 29L38 29L38 28L36 28L36 29L35 29L35 27L37 27L37 25L38 25L38 24L37 24L37 23L38 23L38 22L36 22L36 20L35 20L35 18ZM6 20L6 21L4 21L4 23L7 23L7 22L6 22L6 21L9 21L9 20ZM13 20L13 21L15 21L15 20ZM60 20L60 21L61 21L61 20ZM22 21L22 22L23 22L23 21ZM11 22L11 23L12 23L12 22ZM63 22L63 23L64 23L64 24L65 24L65 25L67 25L67 26L68 26L68 25L69 25L69 24L66 24L66 23L64 23L64 22ZM33 23L33 24L35 24L35 23ZM58 23L58 24L59 24L59 23ZM8 24L8 25L9 25L9 24ZM16 24L16 25L17 25L17 26L19 26L19 25L17 25L17 24ZM28 24L28 25L29 25L29 24ZM30 24L30 25L31 25L31 24ZM36 24L36 25L37 25L37 24ZM32 25L32 26L31 26L31 28L33 28L33 27L35 27L35 26L34 26L34 25ZM32 26L32 27L33 27L33 26ZM45 26L45 28L46 28L46 26ZM13 27L13 28L14 28L14 27ZM59 27L59 28L58 28L58 29L59 29L59 28L61 28L61 27ZM68 27L68 30L69 30L69 27ZM10 28L10 29L9 29L9 31L10 31L10 29L11 29L11 28ZM7 29L7 30L6 30L6 31L7 31L7 30L8 30L8 29ZM55 30L55 32L56 32L56 30ZM22 31L22 32L24 32L24 33L25 33L25 34L24 34L24 35L22 35L22 36L21 36L21 35L20 35L20 36L19 36L19 37L20 37L20 36L21 36L21 37L22 37L22 38L23 38L23 39L24 39L24 38L25 38L25 37L26 37L26 39L25 39L25 40L24 40L24 41L25 41L25 42L21 42L21 43L22 43L22 44L23 44L23 45L20 45L20 43L19 43L19 44L18 44L18 45L19 45L19 46L20 46L20 47L21 47L21 46L22 46L22 47L24 47L24 48L25 48L25 49L27 49L27 50L26 50L26 51L27 51L27 50L29 50L29 47L30 47L30 48L31 48L31 49L30 49L30 50L31 50L31 49L32 49L32 50L33 50L33 49L32 49L32 48L33 48L33 45L31 45L31 44L33 44L33 43L35 43L35 40L32 40L32 39L29 39L29 43L27 43L27 44L24 44L24 43L26 43L26 39L27 39L27 36L26 36L26 34L27 34L27 35L28 35L28 38L29 38L29 35L28 35L28 32L30 32L30 33L29 33L29 34L30 34L30 33L31 33L31 31L28 31L28 32L27 32L27 31L25 31L25 32L24 32L24 31ZM35 31L35 32L36 32L36 31ZM52 31L52 32L53 32L53 31ZM58 31L58 32L59 32L59 31ZM14 32L14 33L13 33L13 34L14 34L14 33L15 33L15 32ZM26 32L26 33L27 33L27 32ZM45 32L45 33L44 33L44 34L45 34L45 33L46 33L46 32ZM1 33L1 35L3 35L3 37L4 37L4 35L3 35L3 34L4 34L4 33ZM5 33L5 36L8 36L8 33ZM33 33L33 36L36 36L36 33ZM38 33L38 34L37 34L37 35L38 35L38 34L40 34L40 33ZM50 33L50 34L51 34L51 33ZM54 33L54 35L52 35L52 36L54 36L54 37L56 37L56 36L54 36L54 35L55 35L55 33ZM61 33L61 36L64 36L64 33ZM68 33L68 34L66 34L66 35L67 35L67 37L68 37L68 38L69 38L69 37L68 37L68 36L69 36L69 33ZM6 34L6 35L7 35L7 34ZM31 34L31 35L30 35L30 36L31 36L31 37L30 37L30 38L31 38L31 37L32 37L32 34ZM34 34L34 35L35 35L35 34ZM62 34L62 35L63 35L63 34ZM12 35L12 36L13 36L13 39L12 39L12 38L11 38L11 39L10 39L10 41L11 41L11 42L12 42L12 41L13 41L13 40L15 40L15 39L16 39L16 38L14 38L14 36L13 36L13 35ZM24 35L24 36L23 36L23 37L24 37L24 36L25 36L25 35ZM44 38L44 39L45 39L45 38ZM11 39L11 40L12 40L12 39ZM27 40L27 41L28 41L28 40ZM30 40L30 41L31 41L31 40ZM6 41L6 42L8 42L8 41ZM32 41L32 43L33 43L33 42L34 42L34 41ZM68 41L68 42L69 42L69 41ZM9 42L9 44L10 44L10 45L12 45L12 46L14 46L14 45L12 45L12 44L10 44L10 42ZM66 42L66 43L67 43L67 42ZM29 43L29 44L27 44L27 45L29 45L29 46L31 46L31 45L30 45L30 44L31 44L31 43ZM68 43L68 44L69 44L69 43ZM23 45L23 46L26 46L26 47L27 47L27 46L26 46L26 45ZM41 45L41 47L42 47L42 45ZM66 45L66 46L65 46L65 48L64 48L64 49L63 49L63 48L62 48L62 49L63 49L63 50L64 50L64 49L65 49L65 48L66 48L66 46L67 46L67 47L69 47L69 46L68 46L68 45ZM6 47L6 48L7 48L7 47ZM31 47L31 48L32 48L32 47ZM2 48L2 49L3 49L3 50L1 50L1 51L2 51L2 52L1 52L1 53L2 53L2 52L3 52L3 50L4 50L4 49L5 49L5 48L4 48L4 49L3 49L3 48ZM67 48L67 50L68 50L68 48ZM16 49L16 50L15 50L15 51L16 51L16 52L14 52L14 53L16 53L16 52L17 52L17 54L19 54L19 55L20 55L20 56L18 56L18 55L16 55L16 56L18 56L18 57L17 57L17 58L20 58L20 60L19 60L19 59L18 59L18 60L19 60L19 61L20 61L20 60L21 60L21 57L20 57L20 56L22 56L22 54L21 54L21 53L20 53L20 52L17 52L17 49ZM36 49L36 50L40 50L40 49ZM51 49L51 50L52 50L52 49ZM65 50L65 52L68 52L68 53L67 53L67 54L66 54L66 53L63 53L63 54L66 54L66 55L68 55L68 54L69 54L69 52L68 52L68 51L66 51L66 50ZM7 51L7 52L6 52L6 53L7 53L7 54L8 54L8 53L9 53L9 54L10 54L10 53L9 53L9 52L8 52L8 51ZM11 51L11 52L12 52L12 51ZM21 51L21 52L22 52L22 51ZM28 51L28 52L29 52L29 51ZM42 51L42 52L43 52L43 51ZM45 51L45 53L46 53L46 51ZM51 52L51 53L52 53L52 52ZM53 52L53 54L54 54L54 52ZM31 53L31 54L30 54L30 55L31 55L31 54L32 54L32 55L34 55L34 54L35 54L35 53ZM45 56L45 57L46 57L46 56ZM57 56L57 57L56 57L56 58L57 58L57 60L58 60L58 58L57 58L57 57L59 57L59 56ZM67 56L67 59L69 59L69 58L68 58L68 57L69 57L69 56ZM53 57L53 58L54 58L54 60L55 60L55 61L56 61L56 62L57 62L57 63L58 63L58 62L57 62L57 61L56 61L56 59L55 59L55 57ZM29 59L29 60L30 60L30 59ZM3 60L3 61L5 61L5 60ZM49 60L49 61L50 61L50 60ZM67 60L67 61L68 61L68 62L69 62L69 61L68 61L68 60ZM33 61L33 64L36 64L36 61ZM61 61L61 64L64 64L64 61ZM34 62L34 63L35 63L35 62ZM44 62L44 63L45 63L45 62ZM62 62L62 63L63 63L63 62ZM37 63L37 64L38 64L38 63ZM51 63L51 65L52 65L52 63ZM18 64L18 66L19 66L19 64ZM30 64L30 65L31 65L31 64ZM24 65L24 66L25 66L25 65ZM36 65L36 66L39 66L39 68L40 68L40 66L39 66L39 65ZM46 65L46 68L45 68L45 69L48 69L48 68L49 68L49 69L50 69L50 68L49 68L49 67L47 67L47 65ZM44 66L44 67L45 67L45 66ZM65 66L65 67L64 67L64 69L66 69L66 68L65 68L65 67L66 67L66 66ZM68 67L68 68L69 68L69 67ZM0 0L0 7L7 7L7 0ZM1 1L1 6L6 6L6 1ZM2 2L2 5L5 5L5 2ZM62 0L62 7L69 7L69 0ZM63 1L63 6L68 6L68 1ZM64 2L64 5L67 5L67 2ZM0 62L0 69L7 69L7 62ZM1 63L1 68L6 68L6 63ZM2 64L2 67L5 67L5 64Z" fill="#000000"/></g></g></svg>
