<?xml version="1.0" encoding="UTF-8"?>
<svg xmlns="http://www.w3.org/2000/svg" version="1.1" width="300" height="300" viewBox="0 0 300 300"><rect x="0" y="0" width="300" height="300" fill="#ffffff"/><g transform="scale(4.348)"><g transform="translate(0,0)"><path fill-rule="evenodd" d="M8 0L8 1L9 1L9 2L8 2L8 5L9 5L9 6L8 6L8 7L9 7L9 6L10 6L10 7L11 7L11 9L10 9L10 8L8 8L8 10L6 10L6 11L8 11L8 10L9 10L9 12L10 12L10 14L11 14L11 13L13 13L13 11L12 11L12 10L13 10L13 9L14 9L14 10L15 10L15 11L14 11L14 12L15 12L15 13L14 13L14 14L13 14L13 16L6 16L6 15L8 15L8 14L9 14L9 13L8 13L8 12L5 12L5 11L4 11L4 10L5 10L5 9L4 9L4 8L0 8L0 18L1 18L1 19L0 19L0 20L3 20L3 21L4 21L4 20L5 20L5 17L10 17L10 18L11 18L11 19L15 19L15 18L16 18L16 17L17 17L17 15L19 15L19 16L18 16L18 17L19 17L19 16L20 16L20 19L19 19L19 21L18 21L18 19L17 19L17 20L16 20L16 21L18 21L18 22L20 22L20 23L24 23L24 24L22 24L22 25L23 25L23 27L21 27L21 28L19 28L19 29L18 29L18 31L19 31L19 32L20 32L20 30L19 30L19 29L22 29L22 30L24 30L24 28L25 28L25 31L23 31L23 32L22 32L22 31L21 31L21 33L22 33L22 35L24 35L24 34L25 34L25 31L27 31L27 32L26 32L26 33L27 33L27 32L28 32L28 35L26 35L26 36L25 36L25 39L26 39L26 36L27 36L27 39L31 39L31 40L30 40L30 41L31 41L31 40L33 40L33 43L32 43L32 44L31 44L31 45L30 45L30 43L27 43L27 42L29 42L29 41L27 41L27 40L25 40L25 41L24 41L24 40L23 40L23 41L21 41L21 37L19 37L19 36L20 36L20 35L21 35L21 34L19 34L19 33L17 33L17 34L16 34L16 30L17 30L17 27L16 27L16 29L15 29L15 28L13 28L13 27L14 27L14 25L12 25L12 24L14 24L14 23L11 23L11 21L12 21L12 22L13 22L13 21L14 21L14 20L13 20L13 21L12 21L12 20L11 20L11 21L10 21L10 19L9 19L9 18L8 18L8 19L7 19L7 18L6 18L6 19L7 19L7 20L6 20L6 21L7 21L7 22L6 22L6 23L4 23L4 24L3 24L3 23L2 23L2 22L1 22L1 21L0 21L0 25L1 25L1 26L0 26L0 27L1 27L1 28L0 28L0 30L2 30L2 31L0 31L0 36L1 36L1 37L2 37L2 38L1 38L1 39L0 39L0 40L1 40L1 41L0 41L0 43L2 43L2 46L1 46L1 45L0 45L0 46L1 46L1 47L2 47L2 48L4 48L4 49L2 49L2 50L1 50L1 48L0 48L0 50L1 50L1 53L2 53L2 55L1 55L1 54L0 54L0 55L1 55L1 57L0 57L0 61L1 61L1 58L2 58L2 59L3 59L3 58L2 58L2 56L3 56L3 57L4 57L4 59L8 59L8 58L6 58L6 57L10 57L10 58L9 58L9 60L6 60L6 61L8 61L8 62L9 62L9 61L10 61L10 59L11 59L11 60L12 60L12 61L11 61L11 62L10 62L10 64L9 64L9 65L8 65L8 69L9 69L9 67L10 67L10 68L11 68L11 65L10 65L10 64L12 64L12 65L13 65L13 66L12 66L12 69L13 69L13 68L16 68L16 69L18 69L18 68L19 68L19 69L23 69L23 67L22 67L22 68L21 68L21 67L20 67L20 65L22 65L22 66L24 66L24 68L25 68L25 67L27 67L27 68L29 68L29 69L30 69L30 67L32 67L32 68L34 68L34 69L35 69L35 68L34 68L34 67L35 67L35 65L36 65L36 66L37 66L37 62L39 62L39 63L38 63L38 64L39 64L39 66L38 66L38 68L39 68L39 69L42 69L42 68L43 68L43 67L41 67L41 66L42 66L42 65L40 65L40 64L41 64L41 62L39 62L39 61L40 61L40 60L41 60L41 61L42 61L42 60L41 60L41 59L42 59L42 58L43 58L43 56L41 56L41 54L42 54L42 53L43 53L43 54L44 54L44 55L46 55L46 54L47 54L47 57L48 57L48 56L49 56L49 57L50 57L50 55L51 55L51 54L50 54L50 55L49 55L49 53L48 53L48 54L47 54L47 52L49 52L49 51L50 51L50 53L52 53L52 51L53 51L53 52L55 52L55 55L54 55L54 54L52 54L52 56L51 56L51 58L52 58L52 60L53 60L53 61L52 61L52 63L53 63L53 64L54 64L54 62L53 62L53 61L55 61L55 66L54 66L54 65L52 65L52 64L51 64L51 63L50 63L50 62L51 62L51 61L49 61L49 60L50 60L50 58L49 58L49 59L48 59L48 58L47 58L47 59L46 59L46 60L45 60L45 58L44 58L44 59L43 59L43 61L44 61L44 60L45 60L45 62L46 62L46 63L47 63L47 64L50 64L50 65L52 65L52 66L53 66L53 67L55 67L55 68L57 68L57 69L60 69L60 67L61 67L61 69L63 69L63 67L62 67L62 66L59 66L59 65L64 65L64 66L65 66L65 67L64 67L64 68L65 68L65 67L67 67L67 66L68 66L68 65L69 65L69 64L68 64L68 63L65 63L65 61L67 61L67 60L69 60L69 58L68 58L68 57L69 57L69 56L68 56L68 55L67 55L67 53L66 53L66 52L68 52L68 54L69 54L69 52L68 52L68 51L67 51L67 50L68 50L68 49L69 49L69 44L67 44L67 45L66 45L66 44L65 44L65 43L67 43L67 42L65 42L65 41L66 41L66 40L68 40L68 42L69 42L69 39L65 39L65 38L63 38L63 39L62 39L62 37L68 37L68 38L69 38L69 37L68 37L68 36L69 36L69 33L68 33L68 34L67 34L67 32L69 32L69 31L68 31L68 29L69 29L69 28L68 28L68 27L66 27L66 25L64 25L64 23L65 23L65 24L66 24L66 23L65 23L65 22L66 22L66 21L67 21L67 20L69 20L69 19L68 19L68 18L69 18L69 17L68 17L68 16L67 16L67 15L66 15L66 14L67 14L67 12L68 12L68 13L69 13L69 8L68 8L68 10L67 10L67 8L64 8L64 9L65 9L65 10L66 10L66 11L65 11L65 17L66 17L66 16L67 16L67 17L68 17L68 18L67 18L67 20L66 20L66 18L65 18L65 20L64 20L64 19L63 19L63 18L62 18L62 20L61 20L61 19L60 19L60 20L59 20L59 22L57 22L57 21L58 21L58 20L57 20L57 21L56 21L56 19L54 19L54 18L53 18L53 17L52 17L52 16L54 16L54 17L55 17L55 18L57 18L57 19L58 19L58 18L60 18L60 17L64 17L64 15L63 15L63 13L62 13L62 12L64 12L64 11L63 11L63 10L62 10L62 8L60 8L60 7L61 7L61 6L60 6L60 7L59 7L59 4L56 4L56 2L58 2L58 3L59 3L59 2L58 2L58 1L61 1L61 0L58 0L58 1L57 1L57 0L53 0L53 1L52 1L52 3L53 3L53 4L56 4L56 5L55 5L55 6L54 6L54 7L53 7L53 5L52 5L52 4L51 4L51 3L50 3L50 2L51 2L51 1L50 1L50 0L48 0L48 1L49 1L49 2L47 2L47 1L46 1L46 2L45 2L45 0L44 0L44 2L43 2L43 3L41 3L41 4L40 4L40 8L38 8L38 7L39 7L39 6L38 6L38 7L37 7L37 4L38 4L38 5L39 5L39 4L38 4L38 1L37 1L37 0L35 0L35 1L37 1L37 3L36 3L36 2L31 2L31 3L29 3L29 5L28 5L28 2L29 2L29 1L30 1L30 0L28 0L28 2L27 2L27 1L25 1L25 0L23 0L23 2L21 2L21 1L22 1L22 0L21 0L21 1L19 1L19 0L17 0L17 2L16 2L16 4L14 4L14 2L10 2L10 1L9 1L9 0ZM15 0L15 1L16 1L16 0ZM41 0L41 1L40 1L40 2L42 2L42 1L43 1L43 0ZM18 1L18 2L17 2L17 3L18 3L18 2L19 2L19 1ZM24 1L24 2L23 2L23 3L21 3L21 2L20 2L20 3L21 3L21 4L23 4L23 5L24 5L24 6L23 6L23 7L22 7L22 5L20 5L20 4L19 4L19 5L17 5L17 4L16 4L16 5L17 5L17 7L16 7L16 6L15 6L15 8L14 8L14 9L15 9L15 8L16 8L16 11L15 11L15 12L16 12L16 13L15 13L15 15L14 15L14 16L15 16L15 17L13 17L13 18L15 18L15 17L16 17L16 15L17 15L17 14L19 14L19 15L20 15L20 16L21 16L21 14L20 14L20 13L17 13L17 12L21 12L21 13L22 13L22 15L25 15L25 13L23 13L23 12L22 12L22 11L19 11L19 10L18 10L18 11L17 11L17 8L18 8L18 9L20 9L20 10L23 10L23 9L24 9L24 10L26 10L26 11L25 11L25 12L26 12L26 16L25 16L25 17L24 17L24 16L22 16L22 17L21 17L21 18L22 18L22 17L24 17L24 19L23 19L23 20L24 20L24 21L25 21L25 22L24 22L24 23L25 23L25 25L24 25L24 27L23 27L23 28L22 28L22 29L23 29L23 28L24 28L24 27L25 27L25 28L26 28L26 27L25 27L25 25L26 25L26 26L27 26L27 25L28 25L28 26L31 26L31 25L30 25L30 24L32 24L32 25L33 25L33 26L32 26L32 27L33 27L33 28L31 28L31 27L27 27L27 29L26 29L26 30L27 30L27 29L28 29L28 28L29 28L29 30L30 30L30 31L28 31L28 32L30 32L30 33L29 33L29 34L30 34L30 35L28 35L28 38L29 38L29 36L31 36L31 34L30 34L30 33L32 33L32 32L30 32L30 31L33 31L33 30L32 30L32 29L33 29L33 28L34 28L34 30L36 30L36 29L37 29L37 30L38 30L38 32L40 32L40 31L41 31L41 33L42 33L42 32L43 32L43 35L45 35L45 34L46 34L46 35L47 35L47 36L48 36L48 33L50 33L50 34L51 34L51 32L52 32L52 31L53 31L53 32L54 32L54 33L55 33L55 34L58 34L58 35L59 35L59 37L58 37L58 36L57 36L57 35L54 35L54 34L53 34L53 33L52 33L52 35L50 35L50 37L51 37L51 38L49 38L49 37L46 37L46 38L45 38L45 36L44 36L44 38L43 38L43 37L42 37L42 35L41 35L41 36L39 36L39 34L40 34L40 33L37 33L37 34L38 34L38 37L37 37L37 38L36 38L36 39L39 39L39 38L38 38L38 37L40 37L40 39L41 39L41 40L40 40L40 42L39 42L39 40L37 40L37 43L35 43L35 42L36 42L36 40L34 40L34 43L33 43L33 44L34 44L34 43L35 43L35 45L31 45L31 47L29 47L29 48L28 48L28 46L29 46L29 45L27 45L27 43L25 43L25 42L23 42L23 43L22 43L22 42L21 42L21 41L19 41L19 39L18 39L18 38L17 38L17 37L16 37L16 38L17 38L17 39L15 39L15 40L14 40L14 42L15 42L15 44L14 44L14 43L13 43L13 42L12 42L12 40L13 40L13 38L15 38L15 35L16 35L16 34L14 34L14 33L15 33L15 31L13 31L13 30L15 30L15 29L13 29L13 28L11 28L11 27L10 27L10 28L7 28L7 27L6 27L6 26L8 26L8 27L9 27L9 26L12 26L12 25L11 25L11 24L10 24L10 23L8 23L8 24L7 24L7 23L6 23L6 24L7 24L7 25L5 25L5 27L4 27L4 26L3 26L3 27L4 27L4 28L1 28L1 29L2 29L2 30L4 30L4 31L2 31L2 32L1 32L1 36L2 36L2 37L4 37L4 38L3 38L3 41L2 41L2 42L4 42L4 41L5 41L5 43L3 43L3 46L4 46L4 48L5 48L5 50L10 50L10 52L9 52L9 51L4 51L4 52L5 52L5 55L6 55L6 56L4 56L4 54L3 54L3 56L4 56L4 57L6 57L6 56L9 56L9 55L10 55L10 57L13 57L13 58L12 58L12 59L13 59L13 58L14 58L14 59L16 59L16 60L15 60L15 61L14 61L14 60L13 60L13 61L12 61L12 63L14 63L14 62L15 62L15 63L16 63L16 62L17 62L17 63L19 63L19 64L18 64L18 66L15 66L15 65L17 65L17 64L14 64L14 66L13 66L13 67L14 67L14 66L15 66L15 67L16 67L16 68L18 68L18 67L19 67L19 68L20 68L20 67L19 67L19 64L20 64L20 63L21 63L21 62L20 62L20 63L19 63L19 62L17 62L17 60L18 60L18 59L19 59L19 61L22 61L22 65L24 65L24 66L25 66L25 64L26 64L26 66L27 66L27 65L28 65L28 66L31 66L31 64L30 64L30 63L31 63L31 62L32 62L32 60L35 60L35 58L36 58L36 57L35 57L35 58L34 58L34 59L33 59L33 57L32 57L32 58L31 58L31 59L32 59L32 60L31 60L31 61L28 61L28 60L26 60L26 61L27 61L27 64L26 64L26 62L25 62L25 59L26 59L26 57L27 57L27 58L29 58L29 57L31 57L31 55L32 55L32 54L31 54L31 53L35 53L35 55L34 55L34 56L37 56L37 57L38 57L38 58L37 58L37 59L36 59L36 60L37 60L37 61L39 61L39 60L40 60L40 58L39 58L39 56L40 56L40 55L39 55L39 54L38 54L38 53L39 53L39 52L35 52L35 51L34 51L34 50L36 50L36 51L41 51L41 52L40 52L40 53L41 53L41 52L44 52L44 50L45 50L45 48L46 48L46 50L47 50L47 48L48 48L48 47L47 47L47 45L45 45L45 44L43 44L43 43L44 43L44 42L45 42L45 43L46 43L46 44L48 44L48 45L49 45L49 46L50 46L50 48L49 48L49 49L50 49L50 48L51 48L51 49L53 49L53 51L55 51L55 48L56 48L56 49L58 49L58 50L57 50L57 51L56 51L56 52L57 52L57 51L59 51L59 52L58 52L58 53L59 53L59 54L60 54L60 53L59 53L59 52L61 52L61 54L62 54L62 55L63 55L63 59L62 59L62 60L63 60L63 59L66 59L66 60L67 60L67 55L66 55L66 53L65 53L65 52L64 52L64 51L66 51L66 50L65 50L65 49L68 49L68 46L66 46L66 45L63 45L63 43L65 43L65 42L63 42L63 41L62 41L62 40L61 40L61 39L57 39L57 41L56 41L56 40L55 40L55 38L56 38L56 37L58 37L58 38L61 38L61 37L60 37L60 32L63 32L63 30L64 30L64 31L65 31L65 32L67 32L67 30L66 30L66 27L65 27L65 28L64 28L64 29L63 29L63 28L62 28L62 27L63 27L63 26L64 26L64 25L63 25L63 26L62 26L62 27L61 27L61 28L60 28L60 27L59 27L59 26L61 26L61 25L62 25L62 24L61 24L61 23L60 23L60 24L56 24L56 25L57 25L57 26L56 26L56 27L55 27L55 28L54 28L54 30L57 30L57 31L58 31L58 30L57 30L57 29L55 29L55 28L57 28L57 26L58 26L58 27L59 27L59 28L58 28L58 29L60 29L60 30L59 30L59 33L57 33L57 32L55 32L55 31L53 31L53 30L52 30L52 31L51 31L51 28L52 28L52 29L53 29L53 27L54 27L54 26L55 26L55 25L53 25L53 23L54 23L54 24L55 24L55 22L56 22L56 21L55 21L55 22L53 22L53 21L54 21L54 19L53 19L53 21L52 21L52 20L51 20L51 21L50 21L50 20L49 20L49 19L51 19L51 18L52 18L52 17L51 17L51 16L50 16L50 15L51 15L51 14L52 14L52 13L53 13L53 15L55 15L55 16L56 16L56 15L55 15L55 13L57 13L57 12L59 12L59 13L58 13L58 14L59 14L59 15L58 15L58 16L57 16L57 17L58 17L58 16L60 16L60 14L61 14L61 16L62 16L62 14L61 14L61 12L60 12L60 11L59 11L59 10L60 10L60 9L57 9L57 8L59 8L59 7L58 7L58 6L57 6L57 5L56 5L56 6L55 6L55 8L54 8L54 9L55 9L55 10L58 10L58 11L57 11L57 12L56 12L56 11L55 11L55 12L54 12L54 11L53 11L53 10L52 10L52 9L50 9L50 8L49 8L49 7L50 7L50 6L51 6L51 8L53 8L53 7L52 7L52 5L50 5L50 6L49 6L49 5L47 5L47 4L48 4L48 3L46 3L46 5L45 5L45 8L44 8L44 6L43 6L43 4L41 4L41 5L42 5L42 6L41 6L41 7L42 7L42 6L43 6L43 9L45 9L45 10L46 10L46 11L45 11L45 12L44 12L44 10L43 10L43 12L41 12L41 13L42 13L42 14L43 14L43 15L41 15L41 14L40 14L40 10L41 10L41 11L42 11L42 10L41 10L41 9L42 9L42 8L41 8L41 9L38 9L38 10L39 10L39 11L37 11L37 12L36 12L36 9L34 9L34 11L32 11L32 13L31 13L31 14L30 14L30 15L32 15L32 17L31 17L31 16L28 16L28 17L26 17L26 16L27 16L27 12L29 12L29 10L30 10L30 11L31 11L31 10L32 10L32 9L31 9L31 10L30 10L30 9L29 9L29 7L30 7L30 6L29 6L29 7L28 7L28 5L27 5L27 7L26 7L26 6L25 6L25 3L24 3L24 2L25 2L25 1ZM53 1L53 3L55 3L55 2L56 2L56 1ZM9 2L9 3L10 3L10 4L9 4L9 5L10 5L10 6L11 6L11 7L12 7L12 9L11 9L11 10L12 10L12 9L13 9L13 7L14 7L14 6L13 6L13 7L12 7L12 6L11 6L11 5L12 5L12 3L10 3L10 2ZM26 2L26 4L27 4L27 2ZM31 3L31 4L32 4L32 3ZM33 3L33 4L35 4L35 3ZM44 3L44 4L45 4L45 3ZM49 3L49 4L50 4L50 3ZM60 3L60 5L61 5L61 3ZM13 4L13 5L14 5L14 4ZM33 5L33 8L36 8L36 5ZM46 5L46 7L47 7L47 5ZM18 6L18 8L19 8L19 6ZM20 6L20 8L22 8L22 9L23 9L23 8L26 8L26 7L25 7L25 6L24 6L24 7L23 7L23 8L22 8L22 7L21 7L21 6ZM31 6L31 8L32 8L32 6ZM34 6L34 7L35 7L35 6ZM48 6L48 7L49 7L49 6ZM56 6L56 8L57 8L57 6ZM27 7L27 8L28 8L28 7ZM6 8L6 9L7 9L7 8ZM46 8L46 9L47 9L47 11L46 11L46 12L45 12L45 13L44 13L44 12L43 12L43 13L44 13L44 14L46 14L46 13L49 13L49 14L48 14L48 15L44 15L44 16L43 16L43 18L42 18L42 16L41 16L41 17L40 17L40 14L39 14L39 13L37 13L37 15L39 15L39 16L35 16L35 17L34 17L34 15L36 15L36 14L33 14L33 13L32 13L32 14L33 14L33 17L32 17L32 18L34 18L34 19L31 19L31 18L30 18L30 20L31 20L31 21L32 21L32 22L31 22L31 23L32 23L32 22L33 22L33 21L35 21L35 22L34 22L34 25L37 25L37 27L35 27L35 26L33 26L33 27L35 27L35 29L36 29L36 28L39 28L39 26L40 26L40 25L39 25L39 24L42 24L42 25L44 25L44 27L42 27L42 26L41 26L41 27L42 27L42 28L41 28L41 29L39 29L39 31L40 31L40 30L41 30L41 29L42 29L42 28L43 28L43 29L44 29L44 30L43 30L43 31L44 31L44 30L47 30L47 31L49 31L49 32L51 32L51 31L49 31L49 29L50 29L50 27L49 27L49 29L47 29L47 28L46 28L46 27L48 27L48 26L46 26L46 25L47 25L47 24L48 24L48 25L49 25L49 26L52 26L52 27L53 27L53 25L50 25L50 24L49 24L49 22L50 22L50 21L48 21L48 19L49 19L49 17L45 17L45 16L49 16L49 15L50 15L50 14L51 14L51 12L53 12L53 11L50 11L50 10L49 10L49 9L48 9L48 8ZM1 9L1 10L2 10L2 9ZM3 9L3 10L4 10L4 9ZM26 9L26 10L27 10L27 9ZM1 11L1 12L2 12L2 13L1 13L1 15L3 15L3 16L4 16L4 17L3 17L3 18L4 18L4 17L5 17L5 15L6 15L6 14L8 14L8 13L6 13L6 14L5 14L5 15L3 15L3 14L2 14L2 13L3 13L3 12L4 12L4 13L5 13L5 12L4 12L4 11L3 11L3 12L2 12L2 11ZM11 11L11 12L12 12L12 11ZM34 11L34 13L36 13L36 12L35 12L35 11ZM47 11L47 12L48 12L48 11ZM49 11L49 12L50 12L50 11ZM66 11L66 12L67 12L67 11ZM16 13L16 14L17 14L17 13ZM28 13L28 15L29 15L29 13ZM28 17L28 18L29 18L29 17ZM37 17L37 19L38 19L38 20L39 20L39 23L41 23L41 21L40 21L40 20L39 20L39 17ZM44 17L44 18L43 18L43 19L42 19L42 20L43 20L43 21L44 21L44 22L42 22L42 24L43 24L43 23L44 23L44 25L46 25L46 23L48 23L48 21L47 21L47 19L48 19L48 18L45 18L45 17ZM25 18L25 19L26 19L26 20L27 20L27 21L26 21L26 23L27 23L27 24L28 24L28 25L29 25L29 24L30 24L30 21L29 21L29 20L27 20L27 19L26 19L26 18ZM44 18L44 20L45 20L45 21L46 21L46 19L45 19L45 18ZM8 19L8 20L7 20L7 21L8 21L8 22L9 22L9 21L8 21L8 20L9 20L9 19ZM20 19L20 22L23 22L23 21L21 21L21 20L22 20L22 19ZM34 19L34 20L35 20L35 21L37 21L37 20L35 20L35 19ZM32 20L32 21L33 21L33 20ZM60 20L60 21L61 21L61 20ZM62 20L62 22L63 22L63 23L64 23L64 22L65 22L65 21L64 21L64 22L63 22L63 20ZM27 21L27 22L28 22L28 24L29 24L29 21ZM35 22L35 24L37 24L37 25L38 25L38 24L37 24L37 23L38 23L38 22ZM51 22L51 23L53 23L53 22ZM67 22L67 23L69 23L69 22ZM18 23L18 24L17 24L17 25L16 25L16 24L15 24L15 26L18 26L18 27L19 27L19 26L18 26L18 25L20 25L20 26L21 26L21 24L19 24L19 23ZM2 24L2 25L3 25L3 24ZM8 24L8 25L10 25L10 24ZM60 24L60 25L61 25L61 24ZM67 24L67 26L69 26L69 24ZM1 26L1 27L2 27L2 26ZM45 26L45 27L46 27L46 26ZM4 28L4 30L5 30L5 31L4 31L4 33L3 33L3 32L2 32L2 34L3 34L3 35L2 35L2 36L3 36L3 35L4 35L4 37L5 37L5 38L4 38L4 40L5 40L5 38L6 38L6 39L7 39L7 40L6 40L6 41L7 41L7 42L6 42L6 43L8 43L8 44L10 44L10 43L11 43L11 46L13 46L13 47L14 47L14 50L13 50L13 51L12 51L12 50L11 50L11 49L12 49L12 48L11 48L11 49L10 49L10 47L9 47L9 46L10 46L10 45L9 45L9 46L8 46L8 45L7 45L7 44L5 44L5 46L6 46L6 47L7 47L7 48L6 48L6 49L7 49L7 48L8 48L8 47L9 47L9 49L10 49L10 50L11 50L11 53L10 53L10 55L11 55L11 56L13 56L13 53L12 53L12 52L13 52L13 51L14 51L14 50L15 50L15 51L17 51L17 50L18 50L18 48L20 48L20 47L19 47L19 46L20 46L20 45L23 45L23 47L22 47L22 48L23 48L23 50L20 50L20 49L19 49L19 52L20 52L20 53L21 53L21 54L19 54L19 53L18 53L18 55L21 55L21 54L22 54L22 56L21 56L21 59L20 59L20 60L21 60L21 59L22 59L22 56L23 56L23 57L24 57L24 58L25 58L25 57L24 57L24 56L23 56L23 54L24 54L24 55L26 55L26 56L27 56L27 54L26 54L26 53L28 53L28 57L29 57L29 52L30 52L30 51L32 51L32 52L33 52L33 50L34 50L34 49L33 49L33 48L32 48L32 47L31 47L31 48L29 48L29 50L27 50L27 49L25 49L25 50L24 50L24 46L26 46L26 47L27 47L27 45L26 45L26 44L25 44L25 43L24 43L24 44L19 44L19 45L18 45L18 44L15 44L15 45L17 45L17 46L18 46L18 48L17 48L17 50L16 50L16 49L15 49L15 47L16 47L16 46L15 46L15 47L14 47L14 45L13 45L13 43L12 43L12 42L10 42L10 41L8 41L8 40L9 40L9 39L10 39L10 40L12 40L12 38L13 38L13 37L14 37L14 36L13 36L13 37L12 37L12 36L11 36L11 37L9 37L9 35L11 35L11 33L10 33L10 32L12 32L12 31L11 31L11 30L10 30L10 32L9 32L9 31L8 31L8 30L6 30L6 29L7 29L7 28L6 28L6 29L5 29L5 28ZM67 28L67 29L68 29L68 28ZM12 29L12 30L13 30L13 29ZM30 29L30 30L31 30L31 29ZM60 30L60 31L61 31L61 30ZM5 31L5 32L8 32L8 31ZM35 31L35 32L37 32L37 31ZM13 32L13 33L14 33L14 32ZM47 32L47 33L48 33L48 32ZM5 33L5 36L8 36L8 33ZM33 33L33 36L36 36L36 33ZM44 33L44 34L45 34L45 33ZM61 33L61 36L64 36L64 33ZM65 33L65 35L66 35L66 36L67 36L67 34L66 34L66 33ZM6 34L6 35L7 35L7 34ZM12 34L12 35L14 35L14 34ZM17 34L17 35L19 35L19 34ZM34 34L34 35L35 35L35 34ZM62 34L62 35L63 35L63 34ZM52 35L52 36L53 36L53 37L54 37L54 35ZM23 36L23 37L24 37L24 36ZM55 36L55 37L56 37L56 36ZM6 37L6 38L7 38L7 39L9 39L9 38L8 38L8 37ZM11 37L11 38L12 38L12 37ZM30 37L30 38L35 38L35 37ZM22 38L22 39L24 39L24 38ZM44 38L44 39L45 39L45 40L43 40L43 41L45 41L45 42L46 42L46 43L47 43L47 42L49 42L49 41L46 41L46 40L47 40L47 39L45 39L45 38ZM51 38L51 39L52 39L52 40L53 40L53 42L54 42L54 41L55 41L55 43L57 43L57 42L56 42L56 41L55 41L55 40L53 40L53 38ZM1 39L1 40L2 40L2 39ZM48 39L48 40L50 40L50 39ZM15 40L15 41L16 41L16 42L17 42L17 43L18 43L18 42L19 42L19 41L18 41L18 40L17 40L17 41L16 41L16 40ZM59 40L59 41L58 41L58 44L59 44L59 43L60 43L60 41L61 41L61 40ZM41 41L41 42L40 42L40 43L43 43L43 42L42 42L42 41ZM51 41L51 43L52 43L52 44L51 44L51 45L52 45L52 47L51 47L51 48L53 48L53 46L56 46L56 45L55 45L55 44L54 44L54 45L53 45L53 43L52 43L52 41ZM9 42L9 43L10 43L10 42ZM38 42L38 43L39 43L39 42ZM61 42L61 44L60 44L60 45L59 45L59 47L56 47L56 48L59 48L59 47L60 47L60 48L61 48L61 49L59 49L59 51L60 51L60 50L61 50L61 52L63 52L63 51L62 51L62 50L63 50L63 49L62 49L62 48L61 48L61 47L63 47L63 48L64 48L64 49L65 49L65 48L66 48L66 46L65 46L65 48L64 48L64 47L63 47L63 45L62 45L62 42ZM48 43L48 44L50 44L50 43ZM24 44L24 45L25 45L25 44ZM37 44L37 47L36 47L36 46L34 46L34 47L35 47L35 48L38 48L38 49L36 49L36 50L40 50L40 49L39 49L39 48L38 48L38 47L40 47L40 48L42 48L42 49L44 49L44 48L43 48L43 46L44 46L44 47L46 47L46 48L47 48L47 47L46 47L46 46L45 46L45 45L42 45L42 44L41 44L41 45L40 45L40 44ZM6 45L6 46L7 46L7 45ZM38 45L38 46L39 46L39 45ZM41 45L41 47L42 47L42 45ZM60 46L60 47L61 47L61 46ZM54 47L54 48L55 48L55 47ZM31 48L31 49L32 49L32 50L33 50L33 49L32 49L32 48ZM48 50L48 51L49 51L49 50ZM50 50L50 51L52 51L52 50ZM21 51L21 52L22 52L22 53L24 53L24 54L25 54L25 52L26 52L26 51L25 51L25 52L24 52L24 51L23 51L23 52L22 52L22 51ZM28 51L28 52L29 52L29 51ZM45 51L45 53L46 53L46 51ZM2 52L2 53L3 53L3 52ZM6 52L6 53L7 53L7 54L6 54L6 55L7 55L7 54L8 54L8 55L9 55L9 54L8 54L8 53L9 53L9 52ZM15 52L15 53L14 53L14 58L15 58L15 56L16 56L16 59L17 59L17 58L20 58L20 56L19 56L19 57L18 57L18 56L16 56L16 55L15 55L15 53L16 53L16 54L17 54L17 52ZM11 53L11 54L12 54L12 53ZM36 53L36 54L37 54L37 53ZM63 53L63 54L65 54L65 53ZM30 54L30 55L31 55L31 54ZM56 54L56 55L55 55L55 56L53 56L53 57L52 57L52 58L53 58L53 57L55 57L55 58L54 58L54 60L56 60L56 63L57 63L57 65L59 65L59 64L60 64L60 63L59 63L59 61L60 61L60 59L58 59L58 58L59 58L59 57L61 57L61 58L62 58L62 57L61 57L61 56L60 56L60 55L57 55L57 54ZM38 55L38 56L39 56L39 55ZM56 55L56 56L57 56L57 55ZM64 55L64 57L66 57L66 56L65 56L65 55ZM45 56L45 57L46 57L46 56ZM56 57L56 58L55 58L55 59L57 59L57 60L58 60L58 59L57 59L57 57ZM29 59L29 60L30 60L30 59ZM37 59L37 60L38 60L38 59ZM47 59L47 60L48 60L48 59ZM3 60L3 61L5 61L5 60ZM23 60L23 64L25 64L25 63L24 63L24 60ZM13 61L13 62L14 62L14 61ZM15 61L15 62L16 62L16 61ZM33 61L33 64L36 64L36 61ZM46 61L46 62L47 62L47 63L48 63L48 62L49 62L49 61ZM61 61L61 64L64 64L64 61ZM28 62L28 63L30 63L30 62ZM34 62L34 63L35 63L35 62ZM43 62L43 63L44 63L44 64L43 64L43 65L45 65L45 63L44 63L44 62ZM57 62L57 63L58 63L58 62ZM62 62L62 63L63 63L63 62ZM67 64L67 65L68 65L68 64ZM33 65L33 67L34 67L34 65ZM46 65L46 68L45 68L45 69L48 69L48 68L49 68L49 69L50 69L50 68L49 68L49 67L50 67L50 66L49 66L49 65L48 65L48 68L47 68L47 65ZM39 66L39 67L40 67L40 68L41 68L41 67L40 67L40 66ZM44 66L44 67L45 67L45 66ZM55 66L55 67L59 67L59 66ZM68 67L68 68L69 68L69 67ZM51 68L51 69L54 69L54 68ZM0 0L0 7L7 7L7 0ZM1 1L1 6L6 6L6 1ZM2 2L2 5L5 5L5 2ZM62 0L62 7L69 7L69 0ZM63 1L63 6L68 6L68 1ZM64 2L64 5L67 5L67 2ZM0 62L0 69L7 69L7 62ZM1 63L1 68L6 68L6 63ZM2 64L2 67L5 67L5 64Z" fill="#000000"/></g></g></svg>
