<?xml version="1.0" encoding="UTF-8"?>
<svg xmlns="http://www.w3.org/2000/svg" version="1.1" width="300" height="300" viewBox="0 0 300 300"><rect x="0" y="0" width="300" height="300" fill="#ffffff"/><g transform="scale(4.348)"><g transform="translate(0,0)"><path fill-rule="evenodd" d="M9 0L9 1L8 1L8 2L10 2L10 3L8 3L8 4L10 4L10 5L11 5L11 6L10 6L10 7L11 7L11 6L12 6L12 8L14 8L14 7L15 7L15 6L14 6L14 7L13 7L13 6L12 6L12 3L15 3L15 4L14 4L14 5L15 5L15 4L16 4L16 8L15 8L15 9L13 9L13 12L12 12L12 11L11 11L11 10L12 10L12 9L11 9L11 8L10 8L10 9L11 9L11 10L9 10L9 8L6 8L6 9L7 9L7 10L6 10L6 11L8 11L8 13L7 13L7 12L6 12L6 13L4 13L4 12L5 12L5 8L0 8L0 10L2 10L2 11L1 11L1 13L0 13L0 14L2 14L2 15L0 15L0 17L2 17L2 18L3 18L3 16L2 16L2 15L3 15L3 14L4 14L4 15L5 15L5 14L6 14L6 15L7 15L7 16L5 16L5 17L4 17L4 18L5 18L5 17L7 17L7 18L6 18L6 19L7 19L7 20L6 20L6 21L5 21L5 19L3 19L3 21L2 21L2 20L1 20L1 19L0 19L0 20L1 20L1 21L0 21L0 22L1 22L1 23L0 23L0 24L1 24L1 23L2 23L2 24L3 24L3 25L2 25L2 26L1 26L1 25L0 25L0 27L2 27L2 28L0 28L0 29L3 29L3 28L5 28L5 29L4 29L4 31L5 31L5 32L4 32L4 33L3 33L3 34L1 34L1 33L2 33L2 31L1 31L1 32L0 32L0 36L1 36L1 35L3 35L3 34L4 34L4 36L3 36L3 37L2 37L2 39L1 39L1 38L0 38L0 42L1 42L1 43L0 43L0 48L1 48L1 50L0 50L0 53L1 53L1 54L0 54L0 55L1 55L1 56L3 56L3 58L2 58L2 59L3 59L3 58L4 58L4 59L8 59L8 60L6 60L6 61L8 61L8 63L9 63L9 64L8 64L8 69L10 69L10 68L9 68L9 67L11 67L11 66L12 66L12 68L11 68L11 69L14 69L14 66L15 66L15 64L13 64L13 65L14 65L14 66L12 66L12 64L11 64L11 63L15 63L15 61L13 61L13 62L12 62L12 59L14 59L14 60L15 60L15 59L16 59L16 60L17 60L17 62L16 62L16 63L17 63L17 64L18 64L18 65L17 65L17 66L16 66L16 67L15 67L15 69L19 69L19 67L20 67L20 66L19 66L19 65L20 65L20 64L22 64L22 62L23 62L23 66L22 66L22 65L21 65L21 68L20 68L20 69L21 69L21 68L22 68L22 67L23 67L23 66L24 66L24 67L25 67L25 68L23 68L23 69L26 69L26 68L27 68L27 67L28 67L28 68L29 68L29 69L32 69L32 68L31 68L31 67L33 67L33 69L35 69L35 68L36 68L36 69L38 69L38 68L37 68L37 67L39 67L39 68L43 68L43 69L44 69L44 68L47 68L47 69L50 69L50 67L49 67L49 66L50 66L50 65L51 65L51 68L52 68L52 66L55 66L55 67L56 67L56 66L55 66L55 65L56 65L56 63L57 63L57 62L56 62L56 60L55 60L55 59L56 59L56 58L55 58L55 57L56 57L56 54L57 54L57 53L56 53L56 54L55 54L55 53L51 53L51 54L52 54L52 56L51 56L51 57L52 57L52 58L49 58L49 59L50 59L50 60L47 60L47 59L48 59L48 58L47 58L47 59L46 59L46 58L45 58L45 61L44 61L44 60L43 60L43 57L44 57L44 56L46 56L46 57L49 57L49 56L50 56L50 55L49 55L49 54L50 54L50 48L48 48L48 47L47 47L47 46L50 46L50 47L51 47L51 48L52 48L52 47L57 47L57 49L59 49L59 50L57 50L57 51L56 51L56 48L53 48L53 49L51 49L51 50L52 50L52 51L51 51L51 52L53 52L53 50L55 50L55 52L57 52L57 51L58 51L58 53L59 53L59 51L61 51L61 52L60 52L60 54L59 54L59 56L60 56L60 54L61 54L61 55L62 55L62 54L63 54L63 53L64 53L64 52L65 52L65 53L66 53L66 52L68 52L68 50L69 50L69 49L68 49L68 48L69 48L69 47L68 47L68 46L69 46L69 43L68 43L68 42L69 42L69 40L68 40L68 38L67 38L67 39L63 39L63 40L64 40L64 41L61 41L61 40L62 40L62 38L64 38L64 37L65 37L65 38L66 38L66 37L68 37L68 36L69 36L69 35L68 35L68 34L69 34L69 32L67 32L67 31L68 31L68 30L69 30L69 27L68 27L68 26L67 26L67 27L65 27L65 28L67 28L67 27L68 27L68 29L67 29L67 31L65 31L65 29L63 29L63 31L62 31L62 29L61 29L61 28L62 28L62 27L64 27L64 26L66 26L66 25L69 25L69 23L68 23L68 18L69 18L69 17L67 17L67 15L68 15L68 14L65 14L65 13L63 13L63 14L65 14L65 16L66 16L66 17L63 17L63 18L62 18L62 16L64 16L64 15L62 15L62 12L63 12L63 10L64 10L64 8L63 8L63 10L62 10L62 8L61 8L61 6L60 6L60 7L59 7L59 4L57 4L57 6L56 6L56 3L55 3L55 2L54 2L54 1L56 1L56 0L51 0L51 1L53 1L53 2L54 2L54 3L53 3L53 5L54 5L54 7L53 7L53 6L52 6L52 7L51 7L51 6L50 6L50 7L49 7L49 5L50 5L50 4L49 4L49 3L50 3L50 0L49 0L49 1L48 1L48 2L47 2L47 1L46 1L46 0L44 0L44 1L46 1L46 2L47 2L47 4L49 4L49 5L47 5L47 6L46 6L46 5L44 5L44 3L45 3L45 4L46 4L46 3L45 3L45 2L44 2L44 3L43 3L43 4L39 4L39 6L38 6L38 5L37 5L37 4L38 4L38 3L37 3L37 2L39 2L39 3L40 3L40 2L41 2L41 3L42 3L42 2L43 2L43 0L41 0L41 1L36 1L36 0L35 0L35 1L36 1L36 2L35 2L35 3L33 3L33 2L31 2L31 1L32 1L32 0L28 0L28 1L27 1L27 2L25 2L25 0L23 0L23 1L21 1L21 2L23 2L23 1L24 1L24 2L25 2L25 4L24 4L24 3L23 3L23 4L22 4L22 5L21 5L21 6L20 6L20 4L21 4L21 3L17 3L17 4L16 4L16 2L18 2L18 1L19 1L19 2L20 2L20 1L19 1L19 0L17 0L17 1L16 1L16 2L14 2L14 1L15 1L15 0L14 0L14 1L13 1L13 0L12 0L12 1L11 1L11 2L10 2L10 0ZM33 0L33 1L34 1L34 0ZM57 0L57 1L61 1L61 0ZM12 1L12 2L13 2L13 1ZM41 1L41 2L42 2L42 1ZM27 2L27 3L26 3L26 5L24 5L24 6L23 6L23 5L22 5L22 6L21 6L21 7L20 7L20 6L19 6L19 7L18 7L18 4L17 4L17 8L16 8L16 10L14 10L14 11L16 11L16 14L15 14L15 12L13 12L13 13L11 13L11 11L9 11L9 10L8 10L8 11L9 11L9 12L10 12L10 13L11 13L11 14L8 14L8 16L7 16L7 17L8 17L8 16L9 16L9 19L8 19L8 18L7 18L7 19L8 19L8 20L7 20L7 21L6 21L6 22L5 22L5 21L3 21L3 22L5 22L5 23L4 23L4 24L5 24L5 25L4 25L4 26L2 26L2 27L5 27L5 25L6 25L6 26L8 26L8 24L7 24L7 23L10 23L10 24L9 24L9 25L10 25L10 24L11 24L11 25L13 25L13 26L9 26L9 28L11 28L11 29L9 29L9 30L7 30L7 29L8 29L8 27L6 27L6 28L7 28L7 29L6 29L6 30L5 30L5 31L6 31L6 32L7 32L7 31L9 31L9 30L11 30L11 31L10 31L10 35L9 35L9 37L6 37L6 38L5 38L5 39L6 39L6 40L2 40L2 41L1 41L1 42L2 42L2 41L4 41L4 43L1 43L1 46L3 46L3 45L4 45L4 46L5 46L5 45L6 45L6 46L8 46L8 47L6 47L6 48L7 48L7 49L3 49L3 48L5 48L5 47L3 47L3 48L2 48L2 47L1 47L1 48L2 48L2 49L3 49L3 50L7 50L7 51L6 51L6 52L9 52L9 51L8 51L8 50L7 50L7 49L8 49L8 47L10 47L10 46L9 46L9 44L10 44L10 45L11 45L11 44L10 44L10 43L12 43L12 45L13 45L13 46L12 46L12 47L11 47L11 48L10 48L10 49L9 49L9 50L10 50L10 51L11 51L11 52L10 52L10 53L9 53L9 56L10 56L10 57L8 57L8 55L6 55L6 54L7 54L7 53L6 53L6 54L5 54L5 51L2 51L2 50L1 50L1 52L2 52L2 54L1 54L1 55L2 55L2 54L3 54L3 53L4 53L4 55L6 55L6 56L7 56L7 57L6 57L6 58L7 58L7 57L8 57L8 58L9 58L9 59L10 59L10 61L9 61L9 63L11 63L11 58L12 58L12 57L13 57L13 58L14 58L14 59L15 59L15 58L16 58L16 57L17 57L17 58L18 58L18 59L20 59L20 58L21 58L21 57L22 57L22 59L23 59L23 60L20 60L20 62L19 62L19 61L18 61L18 62L17 62L17 63L18 63L18 62L19 62L19 64L20 64L20 62L21 62L21 61L23 61L23 60L24 60L24 61L25 61L25 60L24 60L24 59L23 59L23 58L24 58L24 57L22 57L22 56L21 56L21 57L20 57L20 55L22 55L22 54L21 54L21 53L23 53L23 50L22 50L22 49L23 49L23 48L25 48L25 49L26 49L26 50L25 50L25 51L28 51L28 52L32 52L32 50L31 50L31 49L32 49L32 48L33 48L33 49L36 49L36 50L37 50L37 49L38 49L38 51L39 51L39 52L40 52L40 53L39 53L39 54L37 54L37 53L38 53L38 52L35 52L35 50L34 50L34 51L33 51L33 52L34 52L34 53L33 53L33 54L34 54L34 55L38 55L38 56L37 56L37 57L38 57L38 66L39 66L39 67L40 67L40 66L41 66L41 67L43 67L43 68L44 68L44 66L45 66L45 67L46 67L46 66L47 66L47 67L48 67L48 68L49 68L49 67L48 67L48 66L49 66L49 65L47 65L47 63L48 63L48 64L51 64L51 65L53 65L53 64L54 64L54 65L55 65L55 64L54 64L54 63L53 63L53 62L51 62L51 61L54 61L54 60L53 60L53 59L51 59L51 61L50 61L50 62L47 62L47 60L46 60L46 62L44 62L44 61L43 61L43 60L42 60L42 58L41 58L41 59L40 59L40 62L39 62L39 57L41 57L41 56L39 56L39 54L40 54L40 55L41 55L41 54L42 54L42 55L43 55L43 56L42 56L42 57L43 57L43 56L44 56L44 53L45 53L45 54L46 54L46 56L48 56L48 55L47 55L47 54L49 54L49 53L45 53L45 52L46 52L46 51L49 51L49 50L48 50L48 49L47 49L47 47L46 47L46 46L47 46L47 45L46 45L46 44L43 44L43 45L45 45L45 47L44 47L44 46L42 46L42 45L41 45L41 46L42 46L42 48L41 48L41 47L40 47L40 46L39 46L39 45L40 45L40 44L41 44L41 43L40 43L40 41L41 41L41 40L44 40L44 42L43 42L43 43L44 43L44 42L45 42L45 43L46 43L46 42L49 42L49 41L50 41L50 43L51 43L51 45L50 45L50 44L49 44L49 43L48 43L48 44L49 44L49 45L50 45L50 46L53 46L53 45L55 45L55 44L53 44L53 43L56 43L56 45L57 45L57 47L58 47L58 48L59 48L59 49L60 49L60 48L62 48L62 51L63 51L63 52L62 52L62 53L61 53L61 54L62 54L62 53L63 53L63 52L64 52L64 51L63 51L63 50L67 50L67 48L68 48L68 47L67 47L67 48L65 48L65 49L64 49L64 48L62 48L62 47L66 47L66 44L65 44L65 42L67 42L67 41L68 41L68 40L65 40L65 41L64 41L64 42L62 42L62 43L60 43L60 42L59 42L59 41L60 41L60 40L61 40L61 38L62 38L62 37L60 37L60 35L58 35L58 34L60 34L60 32L59 32L59 31L60 31L60 30L59 30L59 29L60 29L60 28L61 28L61 26L64 26L64 25L66 25L66 24L65 24L65 23L66 23L66 20L65 20L65 19L67 19L67 17L66 17L66 18L63 18L63 19L62 19L62 18L59 18L59 17L61 17L61 16L62 16L62 15L59 15L59 14L60 14L60 13L61 13L61 12L60 12L60 13L58 13L58 12L59 12L59 11L62 11L62 10L59 10L59 9L57 9L57 7L58 7L58 8L59 8L59 7L58 7L58 6L57 6L57 7L56 7L56 6L55 6L55 7L56 7L56 9L55 9L55 8L54 8L54 9L55 9L55 10L56 10L56 11L57 11L57 10L59 10L59 11L58 11L58 12L50 12L50 11L51 11L51 10L52 10L52 11L53 11L53 8L49 8L49 9L50 9L50 10L47 10L47 7L48 7L48 6L47 6L47 7L46 7L46 6L45 6L45 7L44 7L44 5L40 5L40 6L39 6L39 7L38 7L38 6L37 6L37 7L38 7L38 8L39 8L39 9L38 9L38 10L36 10L36 9L33 9L33 10L32 10L32 9L31 9L31 8L32 8L32 5L31 5L31 4L29 4L29 3L30 3L30 2L29 2L29 3L28 3L28 2ZM57 2L57 3L59 3L59 2ZM10 3L10 4L11 4L11 3ZM32 3L32 4L33 4L33 3ZM36 3L36 4L37 4L37 3ZM60 3L60 5L61 5L61 3ZM51 4L51 5L52 5L52 4ZM8 5L8 7L9 7L9 5ZM26 5L26 8L24 8L24 9L23 9L23 10L21 10L21 12L20 12L20 13L19 13L19 11L17 11L17 10L20 10L20 9L22 9L22 8L20 8L20 9L19 9L19 8L17 8L17 10L16 10L16 11L17 11L17 13L18 13L18 14L17 14L17 15L18 15L18 14L20 14L20 13L21 13L21 16L26 16L26 15L24 15L24 14L27 14L27 15L28 15L28 16L29 16L29 17L31 17L31 18L32 18L32 19L31 19L31 20L30 20L30 19L29 19L29 22L27 22L27 21L25 21L25 20L28 20L28 19L26 19L26 17L18 17L18 16L17 16L17 17L14 17L14 16L13 16L13 17L12 17L12 18L13 18L13 17L14 17L14 19L12 19L12 20L11 20L11 19L10 19L10 23L11 23L11 24L12 24L12 23L11 23L11 21L13 21L13 23L14 23L14 24L13 24L13 25L14 25L14 24L15 24L15 25L16 25L16 26L14 26L14 27L13 27L13 28L12 28L12 29L13 29L13 28L14 28L14 29L16 29L16 28L17 28L17 29L19 29L19 30L18 30L18 31L17 31L17 30L15 30L15 33L14 33L14 32L13 32L13 31L14 31L14 30L13 30L13 31L12 31L12 32L13 32L13 33L12 33L12 34L13 34L13 35L10 35L10 37L9 37L9 38L8 38L8 39L7 39L7 38L6 38L6 39L7 39L7 40L6 40L6 41L5 41L5 44L4 44L4 45L5 45L5 44L6 44L6 45L7 45L7 44L6 44L6 43L8 43L8 44L9 44L9 43L8 43L8 41L10 41L10 42L11 42L11 41L13 41L13 42L12 42L12 43L13 43L13 44L14 44L14 46L13 46L13 47L12 47L12 48L13 48L13 47L14 47L14 51L15 51L15 52L13 52L13 51L12 51L12 49L11 49L11 51L12 51L12 53L11 53L11 55L12 55L12 56L11 56L11 57L12 57L12 56L14 56L14 58L15 58L15 57L16 57L16 56L14 56L14 55L13 55L13 54L12 54L12 53L14 53L14 54L15 54L15 55L16 55L16 54L15 54L15 52L16 52L16 51L17 51L17 55L19 55L19 54L20 54L20 52L22 52L22 51L21 51L21 49L22 49L22 48L23 48L23 47L21 47L21 46L25 46L25 45L26 45L26 43L27 43L27 41L28 41L28 40L29 40L29 41L30 41L30 42L31 42L31 41L30 41L30 40L29 40L29 39L30 39L30 38L33 38L33 39L32 39L32 40L34 40L34 37L38 37L38 36L37 36L37 34L38 34L38 32L43 32L43 33L40 33L40 35L41 35L41 36L42 36L42 37L40 37L40 38L39 38L39 40L41 40L41 39L40 39L40 38L42 38L42 39L45 39L45 40L47 40L47 41L49 41L49 38L50 38L50 35L51 35L51 34L49 34L49 32L46 32L46 31L49 31L49 30L50 30L50 28L51 28L51 26L52 26L52 27L53 27L53 28L54 28L54 29L53 29L53 30L51 30L51 31L55 31L55 32L54 32L54 33L52 33L52 34L53 34L53 35L54 35L54 34L55 34L55 32L58 32L58 33L56 33L56 35L55 35L55 37L53 37L53 38L52 38L52 39L51 39L51 40L50 40L50 41L51 41L51 40L53 40L53 38L54 38L54 39L55 39L55 40L54 40L54 41L53 41L53 42L51 42L51 43L53 43L53 42L56 42L56 43L57 43L57 45L59 45L59 44L60 44L60 45L61 45L61 46L60 46L60 47L62 47L62 45L61 45L61 44L60 44L60 43L59 43L59 42L58 42L58 41L59 41L59 39L58 39L58 38L57 38L57 37L58 37L58 36L57 36L57 37L56 37L56 35L57 35L57 34L58 34L58 33L59 33L59 32L58 32L58 31L59 31L59 30L58 30L58 29L56 29L56 28L54 28L54 27L55 27L55 26L57 26L57 28L59 28L59 27L60 27L60 26L61 26L61 24L64 24L64 22L65 22L65 21L64 21L64 22L62 22L62 21L63 21L63 20L64 20L64 19L63 19L63 20L60 20L60 19L57 19L57 21L56 21L56 20L55 20L55 21L53 21L53 23L51 23L51 22L50 22L50 21L49 21L49 20L50 20L50 19L52 19L52 20L51 20L51 21L52 21L52 20L54 20L54 18L56 18L56 16L58 16L58 17L59 17L59 16L58 16L58 15L56 15L56 13L52 13L52 14L55 14L55 15L56 15L56 16L53 16L53 17L51 17L51 18L49 18L49 17L50 17L50 15L51 15L51 14L50 14L50 12L47 12L47 14L45 14L45 15L44 15L44 14L43 14L43 13L44 13L44 12L43 12L43 13L42 13L42 14L41 14L41 12L42 12L42 10L45 10L45 9L46 9L46 7L45 7L45 9L44 9L44 8L43 8L43 9L41 9L41 12L40 12L40 11L37 11L37 12L38 12L38 13L39 13L39 14L37 14L37 13L36 13L36 12L34 12L34 13L33 13L33 14L34 14L34 13L35 13L35 15L36 15L36 16L35 16L35 19L37 19L37 20L36 20L36 22L34 22L34 21L35 21L35 20L34 20L34 17L33 17L33 16L34 16L34 15L33 15L33 16L32 16L32 14L30 14L30 15L28 15L28 14L27 14L27 13L26 13L26 11L25 11L25 12L24 12L24 11L23 11L23 10L24 10L24 9L25 9L25 10L26 10L26 8L27 8L27 5ZM28 5L28 7L29 7L29 6L30 6L30 7L31 7L31 6L30 6L30 5ZM33 5L33 8L36 8L36 5ZM22 6L22 7L23 7L23 6ZM24 6L24 7L25 7L25 6ZM34 6L34 7L35 7L35 6ZM40 6L40 7L41 7L41 6ZM42 6L42 7L43 7L43 6ZM28 8L28 9L30 9L30 10L29 10L29 11L30 11L30 12L29 12L29 13L32 13L32 12L31 12L31 11L32 11L32 10L31 10L31 9L30 9L30 8ZM65 8L65 12L66 12L66 13L67 13L67 11L68 11L68 13L69 13L69 11L68 11L68 8L67 8L67 9L66 9L66 8ZM39 9L39 10L40 10L40 9ZM3 10L3 11L4 11L4 10ZM35 10L35 11L36 11L36 10ZM66 10L66 11L67 11L67 10ZM2 12L2 13L3 13L3 12ZM21 12L21 13L22 13L22 14L23 14L23 12ZM39 12L39 13L40 13L40 12ZM45 12L45 13L46 13L46 12ZM6 13L6 14L7 14L7 13ZM13 13L13 15L14 15L14 13ZM39 14L39 15L37 15L37 16L39 16L39 17L38 17L38 18L37 18L37 17L36 17L36 18L37 18L37 19L39 19L39 22L37 22L37 23L36 23L36 24L35 24L35 23L33 23L33 22L32 22L32 21L30 21L30 22L29 22L29 23L30 23L30 22L32 22L32 24L31 24L31 25L32 25L32 26L30 26L30 27L28 27L28 26L29 26L29 25L30 25L30 24L28 24L28 25L27 25L27 24L26 24L26 22L25 22L25 23L24 23L24 22L23 22L23 21L24 21L24 20L25 20L25 19L24 19L24 18L23 18L23 19L22 19L22 20L19 20L19 19L20 19L20 18L19 18L19 19L17 19L17 20L19 20L19 21L20 21L20 22L19 22L19 23L20 23L20 26L19 26L19 25L18 25L18 24L17 24L17 22L18 22L18 21L16 21L16 20L15 20L15 22L14 22L14 23L16 23L16 25L18 25L18 27L17 27L17 28L19 28L19 29L20 29L20 30L19 30L19 31L20 31L20 33L19 33L19 34L17 34L17 33L18 33L18 32L16 32L16 33L15 33L15 34L16 34L16 35L15 35L15 36L17 36L17 35L19 35L19 36L20 36L20 39L19 39L19 38L18 38L18 37L14 37L14 36L13 36L13 38L14 38L14 39L13 39L13 40L14 40L14 42L15 42L15 43L16 43L16 44L15 44L15 46L14 46L14 47L17 47L17 48L18 48L18 49L16 49L16 48L15 48L15 51L16 51L16 50L18 50L18 52L19 52L19 51L20 51L20 50L18 50L18 49L21 49L21 48L20 48L20 46L21 46L21 45L24 45L24 44L25 44L25 41L27 41L27 40L28 40L28 39L29 39L29 36L28 36L28 35L26 35L26 34L28 34L28 33L30 33L30 34L29 34L29 35L31 35L31 37L32 37L32 35L31 35L31 33L30 33L30 31L29 31L29 28L30 28L30 27L33 27L33 28L34 28L34 29L33 29L33 30L31 30L31 31L32 31L32 32L34 32L34 31L33 31L33 30L34 30L34 29L35 29L35 30L36 30L36 28L35 28L35 27L36 27L36 26L33 26L33 25L32 25L32 24L34 24L34 25L38 25L38 26L41 26L41 25L42 25L42 24L41 24L41 23L43 23L43 24L44 24L44 25L43 25L43 26L46 26L46 27L45 27L45 28L44 28L44 29L43 29L43 30L42 30L42 27L37 27L37 29L38 29L38 30L37 30L37 31L35 31L35 32L37 32L37 31L38 31L38 30L40 30L40 31L43 31L43 32L44 32L44 33L43 33L43 34L41 34L41 35L42 35L42 36L44 36L44 37L45 37L45 38L47 38L47 37L45 37L45 36L48 36L48 35L47 35L47 33L45 33L45 32L44 32L44 31L45 31L45 30L47 30L47 28L49 28L49 27L47 27L47 25L48 25L48 24L49 24L49 25L50 25L50 26L51 26L51 25L52 25L52 26L53 26L53 24L56 24L56 25L57 25L57 26L59 26L59 24L58 24L58 23L60 23L60 22L59 22L59 21L57 21L57 22L56 22L56 23L55 23L55 22L54 22L54 23L53 23L53 24L51 24L51 25L50 25L50 22L48 22L48 21L46 21L46 20L47 20L47 19L48 19L48 18L47 18L47 17L48 17L48 16L49 16L49 15L50 15L50 14L47 14L47 15L46 15L46 16L44 16L44 15L43 15L43 14L42 14L42 15L40 15L40 14ZM9 15L9 16L10 16L10 18L11 18L11 15ZM19 15L19 16L20 16L20 15ZM30 15L30 16L31 16L31 17L32 17L32 16L31 16L31 15ZM39 15L39 16L40 16L40 15ZM47 15L47 16L48 16L48 15ZM42 16L42 17L41 17L41 18L39 18L39 19L40 19L40 20L41 20L41 22L44 22L44 23L45 23L45 24L46 24L46 25L47 25L47 24L48 24L48 23L47 23L47 24L46 24L46 22L44 22L44 20L43 20L43 17L44 17L44 16ZM17 17L17 18L18 18L18 17ZM27 17L27 18L28 18L28 17ZM53 17L53 18L52 18L52 19L53 19L53 18L54 18L54 17ZM44 18L44 19L46 19L46 18ZM32 19L32 20L33 20L33 21L34 21L34 20L33 20L33 19ZM41 19L41 20L42 20L42 21L43 21L43 20L42 20L42 19ZM37 20L37 21L38 21L38 20ZM7 21L7 22L6 22L6 23L5 23L5 24L6 24L6 25L7 25L7 24L6 24L6 23L7 23L7 22L9 22L9 21ZM21 21L21 22L22 22L22 23L21 23L21 24L22 24L22 25L21 25L21 26L20 26L20 27L19 27L19 28L20 28L20 29L21 29L21 30L22 30L22 31L21 31L21 32L22 32L22 31L23 31L23 32L24 32L24 31L23 31L23 30L25 30L25 31L26 31L26 32L25 32L25 33L23 33L23 34L22 34L22 35L23 35L23 34L24 34L24 35L25 35L25 37L23 37L23 38L25 38L25 37L26 37L26 35L25 35L25 33L28 33L28 32L27 32L27 31L28 31L28 30L25 30L25 29L26 29L26 27L27 27L27 25L25 25L25 24L24 24L24 23L23 23L23 22L22 22L22 21ZM39 22L39 23L37 23L37 24L38 24L38 25L39 25L39 23L40 23L40 22ZM61 22L61 23L62 23L62 22ZM56 23L56 24L57 24L57 23ZM22 25L22 26L24 26L24 25ZM25 26L25 27L26 27L26 26ZM15 27L15 28L16 28L16 27ZM20 27L20 28L21 28L21 29L24 29L24 27L23 27L23 28L21 28L21 27ZM27 28L27 29L28 29L28 28ZM31 28L31 29L32 29L32 28ZM38 28L38 29L40 29L40 28ZM48 29L48 30L49 30L49 29ZM6 30L6 31L7 31L7 30ZM56 30L56 31L58 31L58 30ZM61 31L61 32L62 32L62 31ZM63 31L63 32L64 32L64 31ZM50 32L50 33L51 33L51 32ZM66 32L66 33L67 33L67 34L65 34L65 35L67 35L67 36L68 36L68 35L67 35L67 34L68 34L68 33L67 33L67 32ZM5 33L5 36L8 36L8 33ZM33 33L33 36L36 36L36 33ZM44 33L44 36L45 36L45 33ZM61 33L61 36L64 36L64 33ZM6 34L6 35L7 35L7 34ZM19 34L19 35L20 35L20 34ZM34 34L34 35L35 35L35 34ZM62 34L62 35L63 35L63 34ZM11 37L11 38L9 38L9 39L8 39L8 40L7 40L7 41L6 41L6 42L7 42L7 41L8 41L8 40L10 40L10 39L11 39L11 40L12 40L12 39L11 39L11 38L12 38L12 37ZM21 37L21 39L20 39L20 40L21 40L21 41L22 41L22 40L21 40L21 39L22 39L22 37ZM55 37L55 38L56 38L56 39L57 39L57 38L56 38L56 37ZM59 37L59 38L60 38L60 37ZM3 38L3 39L4 39L4 38ZM15 38L15 40L16 40L16 39L17 39L17 42L20 42L20 44L16 44L16 45L18 45L18 46L17 46L17 47L18 47L18 46L20 46L20 44L21 44L21 42L20 42L20 41L19 41L19 39L17 39L17 38ZM35 38L35 41L34 41L34 42L35 42L35 41L36 41L36 40L38 40L38 38ZM24 39L24 41L23 41L23 42L22 42L22 44L24 44L24 43L23 43L23 42L24 42L24 41L25 41L25 39ZM26 39L26 40L27 40L27 39ZM47 39L47 40L48 40L48 39ZM55 40L55 41L56 41L56 42L57 42L57 43L58 43L58 44L59 44L59 43L58 43L58 42L57 42L57 41L58 41L58 40ZM15 41L15 42L16 42L16 41ZM32 41L32 45L33 45L33 46L32 46L32 47L33 47L33 46L34 46L34 47L35 47L35 48L36 48L36 47L37 47L37 48L38 48L38 47L37 47L37 46L38 46L38 45L36 45L36 47L35 47L35 46L34 46L34 45L33 45L33 41ZM37 41L37 42L36 42L36 43L35 43L35 44L37 44L37 43L38 43L38 44L40 44L40 43L38 43L38 41ZM62 43L62 44L63 44L63 45L65 45L65 44L64 44L64 43ZM67 43L67 44L68 44L68 43ZM2 44L2 45L3 45L3 44ZM28 44L28 45L29 45L29 46L28 46L28 47L29 47L29 46L30 46L30 48L29 48L29 49L31 49L31 46L30 46L30 45L31 45L31 44ZM67 45L67 46L68 46L68 45ZM25 47L25 48L26 48L26 47ZM39 47L39 48L40 48L40 47ZM43 47L43 48L42 48L42 49L41 49L41 50L39 50L39 51L40 51L40 52L41 52L41 50L42 50L42 52L43 52L43 53L42 53L42 54L43 54L43 53L44 53L44 52L45 52L45 49L46 49L46 47L45 47L45 49L44 49L44 47ZM27 49L27 50L28 50L28 49ZM43 49L43 50L44 50L44 49ZM43 51L43 52L44 52L44 51ZM26 52L26 53L25 53L25 55L26 55L26 57L25 57L25 58L26 58L26 59L30 59L30 58L29 58L29 57L30 57L30 56L29 56L29 55L30 55L30 53L27 53L27 52ZM31 53L31 56L32 56L32 53ZM68 53L68 54L67 54L67 55L66 55L66 54L65 54L65 55L63 55L63 56L61 56L61 57L59 57L59 58L61 58L61 59L62 59L62 60L60 60L60 61L59 61L59 62L58 62L58 63L59 63L59 64L58 64L58 65L57 65L57 66L58 66L58 67L59 67L59 68L57 68L57 69L59 69L59 68L61 68L61 69L62 69L62 66L61 66L61 65L64 65L64 66L65 66L65 64L67 64L67 63L68 63L68 64L69 64L69 63L68 63L68 61L65 61L65 60L69 60L69 59L68 59L68 58L66 58L66 56L67 56L67 55L68 55L68 56L69 56L69 55L68 55L68 54L69 54L69 53ZM23 54L23 55L24 55L24 54ZM27 54L27 55L29 55L29 54ZM53 54L53 55L54 55L54 56L52 56L52 57L53 57L53 58L54 58L54 59L55 59L55 58L54 58L54 56L55 56L55 54ZM4 56L4 58L5 58L5 56ZM17 56L17 57L19 57L19 58L20 58L20 57L19 57L19 56ZM27 56L27 57L29 57L29 56ZM33 56L33 58L32 58L32 57L31 57L31 59L32 59L32 60L31 60L31 62L29 62L29 60L26 60L26 62L29 62L29 64L28 64L28 65L25 65L25 66L28 66L28 65L29 65L29 64L30 64L30 63L32 63L32 60L33 60L33 59L35 59L35 57L36 57L36 56ZM38 56L38 57L39 57L39 56ZM63 56L63 58L62 58L62 57L61 57L61 58L62 58L62 59L63 59L63 58L65 58L65 56ZM0 57L0 61L1 61L1 57ZM3 60L3 61L5 61L5 60ZM41 60L41 62L42 62L42 63L43 63L43 61L42 61L42 60ZM33 61L33 64L36 64L36 61ZM61 61L61 64L64 64L64 61ZM34 62L34 63L35 63L35 62ZM46 62L46 63L47 63L47 62ZM55 62L55 63L56 63L56 62ZM59 62L59 63L60 63L60 62ZM62 62L62 63L63 63L63 62ZM65 62L65 63L66 63L66 62ZM25 63L25 64L26 64L26 63ZM39 63L39 64L41 64L41 66L44 66L44 64L45 64L45 66L46 66L46 64L45 64L45 63L44 63L44 64L41 64L41 63ZM51 63L51 64L52 64L52 63ZM10 64L10 66L11 66L11 64ZM59 64L59 65L58 65L58 66L59 66L59 65L60 65L60 64ZM30 65L30 66L32 66L32 65ZM33 65L33 66L35 66L35 65ZM36 65L36 66L37 66L37 65ZM66 65L66 66L67 66L67 65ZM16 67L16 68L17 68L17 67ZM29 67L29 68L30 68L30 67ZM63 67L63 69L64 69L64 67ZM65 67L65 68L66 68L66 69L68 69L68 68L67 68L67 67ZM53 68L53 69L54 69L54 68ZM55 68L55 69L56 69L56 68ZM0 0L0 7L7 7L7 0ZM1 1L1 6L6 6L6 1ZM2 2L2 5L5 5L5 2ZM62 0L62 7L69 7L69 0ZM63 1L63 6L68 6L68 1ZM64 2L64 5L67 5L67 2ZM0 62L0 69L7 69L7 62ZM1 63L1 68L6 68L6 63ZM2 64L2 67L5 67L5 64Z" fill="#000000"/></g></g></svg>
