<?xml version="1.0" encoding="UTF-8"?>
<svg xmlns="http://www.w3.org/2000/svg" version="1.1" width="300" height="300" viewBox="0 0 300 300"><rect x="0" y="0" width="300" height="300" fill="#ffffff"/><g transform="scale(4.348)"><g transform="translate(0,0)"><path fill-rule="evenodd" d="M9 0L9 1L8 1L8 2L9 2L9 1L11 1L11 2L10 2L10 3L8 3L8 4L9 4L9 5L8 5L8 7L9 7L9 8L6 8L6 9L5 9L5 8L0 8L0 13L2 13L2 14L3 14L3 13L4 13L4 15L3 15L3 16L2 16L2 15L0 15L0 18L2 18L2 17L4 17L4 18L5 18L5 20L3 20L3 21L2 21L2 19L0 19L0 21L2 21L2 22L1 22L1 23L4 23L4 21L5 21L5 20L6 20L6 21L7 21L7 22L5 22L5 23L7 23L7 24L6 24L6 25L7 25L7 26L6 26L6 27L5 27L5 26L4 26L4 25L5 25L5 24L4 24L4 25L3 25L3 24L2 24L2 25L1 25L1 26L3 26L3 27L0 27L0 28L1 28L1 29L0 29L0 30L1 30L1 31L0 31L0 32L2 32L2 33L1 33L1 34L2 34L2 33L3 33L3 34L4 34L4 35L1 35L1 37L2 37L2 38L3 38L3 39L4 39L4 41L5 41L5 42L4 42L4 43L2 43L2 45L3 45L3 44L4 44L4 46L5 46L5 45L7 45L7 44L6 44L6 43L7 43L7 42L9 42L9 43L11 43L11 45L10 45L10 44L9 44L9 45L8 45L8 46L6 46L6 47L3 47L3 46L0 46L0 48L1 48L1 47L3 47L3 49L0 49L0 50L3 50L3 49L4 49L4 48L6 48L6 49L7 49L7 50L4 50L4 51L2 51L2 53L3 53L3 54L1 54L1 55L0 55L0 56L1 56L1 57L0 57L0 61L1 61L1 58L2 58L2 59L3 59L3 56L4 56L4 57L5 57L5 58L4 58L4 59L7 59L7 60L6 60L6 61L7 61L7 60L9 60L9 61L8 61L8 63L9 63L9 64L8 64L8 69L9 69L9 68L10 68L10 69L12 69L12 68L13 68L13 69L15 69L15 67L17 67L17 66L19 66L19 67L18 67L18 68L16 68L16 69L19 69L19 67L20 67L20 66L19 66L19 65L20 65L20 64L19 64L19 63L21 63L21 64L22 64L22 63L23 63L23 62L25 62L25 63L24 63L24 64L23 64L23 65L21 65L21 68L20 68L20 69L21 69L21 68L23 68L23 69L26 69L26 67L25 67L25 65L28 65L28 66L27 66L27 67L28 67L28 68L29 68L29 69L32 69L32 67L33 67L33 66L34 66L34 67L35 67L35 68L36 68L36 69L38 69L38 68L37 68L37 67L35 67L35 66L34 66L34 65L36 65L36 66L38 66L38 67L39 67L39 66L38 66L38 65L39 65L39 64L41 64L41 66L40 66L40 67L41 67L41 68L42 68L42 69L44 69L44 68L47 68L47 69L49 69L49 67L50 67L50 65L51 65L51 64L53 64L53 65L52 65L52 67L51 67L51 68L50 68L50 69L51 69L51 68L52 68L52 67L53 67L53 68L54 68L54 69L56 69L56 68L54 68L54 67L55 67L55 66L56 66L56 64L55 64L55 63L56 63L56 62L57 62L57 61L56 61L56 59L59 59L59 58L57 58L57 57L56 57L56 56L55 56L55 55L57 55L57 54L56 54L56 52L58 52L58 53L59 53L59 54L60 54L60 55L59 55L59 56L60 56L60 57L62 57L62 56L63 56L63 57L65 57L65 58L63 58L63 59L62 59L62 58L61 58L61 59L62 59L62 60L60 60L60 61L59 61L59 62L58 62L58 63L57 63L57 65L59 65L59 66L57 66L57 69L58 69L58 68L59 68L59 67L61 67L61 69L62 69L62 66L63 66L63 68L64 68L64 69L68 69L68 68L67 68L67 65L66 65L66 67L64 67L64 66L65 66L65 64L67 64L67 63L68 63L68 64L69 64L69 63L68 63L68 62L67 62L67 61L66 61L66 60L69 60L69 59L68 59L68 56L69 56L69 55L68 55L68 54L69 54L69 53L68 53L68 54L67 54L67 53L66 53L66 52L68 52L68 50L69 50L69 49L68 49L68 48L67 48L67 47L68 47L68 46L69 46L69 45L68 45L68 46L67 46L67 44L69 44L69 43L68 43L68 42L69 42L69 40L68 40L68 36L69 36L69 35L68 35L68 34L69 34L69 33L68 33L68 32L67 32L67 31L68 31L68 30L67 30L67 31L64 31L64 32L63 32L63 31L62 31L62 29L63 29L63 28L62 28L62 27L64 27L64 26L65 26L65 25L63 25L63 26L61 26L61 25L60 25L60 23L59 23L59 22L62 22L62 23L61 23L61 24L62 24L62 23L63 23L63 24L66 24L66 25L67 25L67 24L68 24L68 26L66 26L66 27L65 27L65 28L68 28L68 29L69 29L69 27L68 27L68 26L69 26L69 24L68 24L68 22L69 22L69 21L68 21L68 18L69 18L69 16L67 16L67 15L68 15L68 13L69 13L69 12L67 12L67 11L68 11L68 10L69 10L69 9L68 9L68 8L67 8L67 11L65 11L65 10L62 10L62 8L60 8L60 7L61 7L61 6L60 6L60 7L59 7L59 4L56 4L56 3L55 3L55 2L54 2L54 4L51 4L51 5L50 5L50 4L49 4L49 2L50 2L50 0L47 0L47 1L48 1L48 2L47 2L47 4L48 4L48 5L47 5L47 6L46 6L46 5L44 5L44 3L45 3L45 4L46 4L46 3L45 3L45 2L46 2L46 1L45 1L45 0L44 0L44 1L45 1L45 2L44 2L44 3L42 3L42 4L41 4L41 6L40 6L40 4L39 4L39 6L38 6L38 5L37 5L37 4L38 4L38 3L36 3L36 4L32 4L32 3L29 3L29 1L30 1L30 2L31 2L31 1L32 1L32 0L31 0L31 1L30 1L30 0L28 0L28 1L27 1L27 2L28 2L28 3L27 3L27 4L26 4L26 2L24 2L24 1L25 1L25 0L23 0L23 3L25 3L25 4L22 4L22 5L21 5L21 6L20 6L20 5L19 5L19 4L21 4L21 3L19 3L19 2L20 2L20 1L19 1L19 0L13 0L13 1L18 1L18 3L17 3L17 2L16 2L16 3L14 3L14 2L12 2L12 1L11 1L11 0ZM21 0L21 1L22 1L22 0ZM33 0L33 2L41 2L41 1L42 1L42 2L43 2L43 0L41 0L41 1L38 1L38 0ZM51 0L51 2L53 2L53 1L56 1L56 2L57 2L57 3L59 3L59 2L58 2L58 1L61 1L61 0L57 0L57 1L56 1L56 0L53 0L53 1L52 1L52 0ZM11 2L11 4L10 4L10 5L9 5L9 7L10 7L10 6L11 6L11 7L12 7L12 6L11 6L11 5L13 5L13 7L14 7L14 8L15 8L15 13L13 13L13 15L14 15L14 14L15 14L15 13L17 13L17 14L18 14L18 15L15 15L15 16L12 16L12 17L14 17L14 18L11 18L11 15L9 15L9 14L11 14L11 13L12 13L12 12L14 12L14 9L13 9L13 8L11 8L11 9L10 9L10 8L9 8L9 10L8 10L8 9L6 9L6 10L7 10L7 11L6 11L6 12L5 12L5 15L4 15L4 17L5 17L5 18L7 18L7 19L6 19L6 20L8 20L8 22L9 22L9 21L11 21L11 20L12 20L12 23L11 23L11 22L10 22L10 23L9 23L9 24L7 24L7 25L9 25L9 26L7 26L7 27L6 27L6 28L8 28L8 27L10 27L10 28L9 28L9 29L5 29L5 30L4 30L4 29L3 29L3 28L2 28L2 31L3 31L3 33L4 33L4 32L7 32L7 31L5 31L5 30L9 30L9 31L10 31L10 32L9 32L9 33L12 33L12 32L11 32L11 31L10 31L10 28L11 28L11 30L12 30L12 31L14 31L14 32L13 32L13 34L12 34L12 35L11 35L11 34L10 34L10 35L11 35L11 36L13 36L13 38L11 38L11 37L10 37L10 38L9 38L9 37L8 37L8 38L9 38L9 39L6 39L6 38L7 38L7 37L5 37L5 38L4 38L4 36L3 36L3 38L4 38L4 39L6 39L6 40L7 40L7 41L6 41L6 42L5 42L5 43L6 43L6 42L7 42L7 41L9 41L9 39L10 39L10 40L11 40L11 39L12 39L12 41L14 41L14 46L12 46L12 47L11 47L11 46L8 46L8 48L9 48L9 51L5 51L5 53L4 53L4 52L3 52L3 53L4 53L4 54L3 54L3 55L5 55L5 56L7 56L7 57L6 57L6 58L8 58L8 59L9 59L9 60L10 60L10 61L9 61L9 63L10 63L10 65L9 65L9 67L10 67L10 66L12 66L12 67L13 67L13 68L14 68L14 67L15 67L15 66L17 66L17 65L18 65L18 64L16 64L16 65L14 65L14 64L13 64L13 62L14 62L14 60L15 60L15 62L17 62L17 63L18 63L18 62L19 62L19 61L18 61L18 62L17 62L17 60L16 60L16 59L14 59L14 58L12 58L12 55L15 55L15 54L16 54L16 57L15 57L15 58L16 58L16 57L17 57L17 56L18 56L18 55L19 55L19 54L18 54L18 55L17 55L17 50L18 50L18 52L19 52L19 53L20 53L20 55L22 55L22 54L24 54L24 55L25 55L25 54L26 54L26 55L27 55L27 56L26 56L26 57L27 57L27 59L29 59L29 57L30 57L30 56L29 56L29 55L30 55L30 54L31 54L31 55L32 55L32 56L31 56L31 57L35 57L35 58L36 58L36 59L37 59L37 61L38 61L38 62L37 62L37 65L38 65L38 64L39 64L39 63L41 63L41 64L44 64L44 66L41 66L41 67L43 67L43 68L44 68L44 66L45 66L45 67L46 67L46 66L47 66L47 64L51 64L51 63L53 63L53 64L54 64L54 65L55 65L55 64L54 64L54 62L51 62L51 60L52 60L52 61L53 61L53 60L52 60L52 59L54 59L54 60L55 60L55 59L54 59L54 58L52 58L52 57L55 57L55 58L56 58L56 57L55 57L55 56L53 56L53 55L55 55L55 54L53 54L53 55L52 55L52 54L51 54L51 53L55 53L55 52L54 52L54 51L56 51L56 50L57 50L57 51L58 51L58 52L59 52L59 53L60 53L60 54L62 54L62 55L66 55L66 54L65 54L65 52L66 52L66 51L65 51L65 50L66 50L66 49L67 49L67 48L65 48L65 47L66 47L66 44L65 44L65 43L64 43L64 42L68 42L68 40L67 40L67 41L64 41L64 40L61 40L61 39L60 39L60 38L61 38L61 37L60 37L60 35L58 35L58 34L59 34L59 33L60 33L60 32L62 32L62 31L61 31L61 30L59 30L59 29L60 29L60 28L59 28L59 29L57 29L57 26L58 26L58 27L59 27L59 25L57 25L57 24L59 24L59 23L58 23L58 22L59 22L59 21L62 21L62 22L63 22L63 21L64 21L64 22L65 22L65 23L66 23L66 22L68 22L68 21L67 21L67 20L65 20L65 18L66 18L66 16L65 16L65 14L67 14L67 12L65 12L65 11L63 11L63 13L62 13L62 11L61 11L61 12L60 12L60 13L62 13L62 15L60 15L60 16L59 16L59 17L58 17L58 16L57 16L57 15L59 15L59 12L58 12L58 13L57 13L57 12L55 12L55 11L56 11L56 10L57 10L57 11L60 11L60 10L59 10L59 9L60 9L60 8L59 8L59 9L58 9L58 6L57 6L57 8L55 8L55 9L56 9L56 10L53 10L53 8L54 8L54 5L53 5L53 8L52 8L52 6L51 6L51 7L50 7L50 6L49 6L49 5L48 5L48 6L47 6L47 7L46 7L46 6L45 6L45 7L44 7L44 5L43 5L43 7L42 7L42 6L41 6L41 8L38 8L38 6L37 6L37 8L38 8L38 10L39 10L39 9L43 9L43 8L44 8L44 9L45 9L45 10L42 10L42 12L41 12L41 11L40 11L40 12L39 12L39 11L38 11L38 12L39 12L39 13L38 13L38 14L37 14L37 17L38 17L38 19L39 19L39 22L37 22L37 21L38 21L38 20L36 20L36 19L34 19L34 18L35 18L35 16L36 16L36 15L35 15L35 13L34 13L34 12L36 12L36 13L37 13L37 10L36 10L36 9L35 9L35 10L32 10L32 9L31 9L31 8L32 8L32 5L30 5L30 4L29 4L29 3L28 3L28 4L27 4L27 5L30 5L30 6L29 6L29 8L28 8L28 9L27 9L27 7L28 7L28 6L27 6L27 7L26 7L26 6L25 6L25 5L26 5L26 4L25 4L25 5L24 5L24 6L23 6L23 5L22 5L22 6L21 6L21 8L20 8L20 6L19 6L19 7L18 7L18 6L17 6L17 5L16 5L16 4L17 4L17 3L16 3L16 4L14 4L14 3L12 3L12 2ZM60 3L60 5L61 5L61 3ZM55 4L55 7L56 7L56 4ZM33 5L33 8L36 8L36 5ZM14 6L14 7L15 7L15 6ZM16 6L16 7L17 7L17 6ZM22 6L22 7L23 7L23 6ZM24 6L24 9L23 9L23 10L22 10L22 11L21 11L21 12L20 12L20 11L19 11L19 10L20 10L20 8L17 8L17 9L16 9L16 12L17 12L17 13L18 13L18 14L19 14L19 13L21 13L21 12L22 12L22 11L23 11L23 12L24 12L24 13L23 13L23 14L22 14L22 15L23 15L23 17L22 17L22 16L21 16L21 17L18 17L18 16L15 16L15 17L16 17L16 18L14 18L14 19L15 19L15 21L14 21L14 20L13 20L13 19L12 19L12 20L13 20L13 21L14 21L14 22L13 22L13 23L12 23L12 25L11 25L11 26L10 26L10 27L12 27L12 26L14 26L14 27L13 27L13 28L12 28L12 30L13 30L13 29L14 29L14 31L15 31L15 29L14 29L14 28L15 28L15 27L16 27L16 28L17 28L17 29L19 29L19 30L18 30L18 31L17 31L17 30L16 30L16 31L17 31L17 32L16 32L16 33L15 33L15 32L14 32L14 34L13 34L13 36L14 36L14 37L15 37L15 35L16 35L16 36L17 36L17 37L18 37L18 40L17 40L17 38L15 38L15 39L14 39L14 38L13 38L13 40L15 40L15 39L16 39L16 40L17 40L17 41L18 41L18 42L17 42L17 45L18 45L18 46L14 46L14 47L12 47L12 48L10 48L10 47L9 47L9 48L10 48L10 51L12 51L12 52L11 52L11 53L10 53L10 52L9 52L9 53L10 53L10 54L8 54L8 52L6 52L6 53L5 53L5 55L7 55L7 56L8 56L8 58L10 58L10 59L12 59L12 58L10 58L10 56L11 56L11 55L12 55L12 52L15 52L15 53L13 53L13 54L15 54L15 53L16 53L16 52L15 52L15 51L16 51L16 50L15 50L15 51L14 51L14 49L16 49L16 48L17 48L17 49L18 49L18 50L20 50L20 51L19 51L19 52L23 52L23 53L24 53L24 54L25 54L25 53L26 53L26 54L27 54L27 55L29 55L29 54L27 54L27 53L32 53L32 54L33 54L33 56L35 56L35 57L36 57L36 58L38 58L38 55L36 55L36 54L35 54L35 55L34 55L34 54L33 54L33 53L34 53L34 52L32 52L32 51L30 51L30 50L33 50L33 51L34 51L34 50L33 50L33 49L31 49L31 47L30 47L30 48L29 48L29 47L28 47L28 46L27 46L27 45L26 45L26 44L27 44L27 41L30 41L30 42L29 42L29 43L30 43L30 42L31 42L31 41L30 41L30 40L29 40L29 39L30 39L30 38L32 38L32 37L33 37L33 38L34 38L34 37L38 37L38 36L37 36L37 34L38 34L38 35L39 35L39 34L38 34L38 32L43 32L43 33L40 33L40 36L39 36L39 37L40 37L40 36L41 36L41 37L42 37L42 38L41 38L41 39L38 39L38 38L37 38L37 39L35 39L35 41L36 41L36 42L37 42L37 43L35 43L35 42L34 42L34 43L35 43L35 44L36 44L36 47L35 47L35 46L34 46L34 48L36 48L36 47L38 47L38 49L37 49L37 50L36 50L36 49L35 49L35 53L37 53L37 54L39 54L39 52L40 52L40 51L41 51L41 50L42 50L42 51L44 51L44 52L41 52L41 53L42 53L42 54L41 54L41 55L39 55L39 56L41 56L41 57L39 57L39 59L38 59L38 60L39 60L39 62L38 62L38 63L39 63L39 62L40 62L40 59L41 59L41 58L42 58L42 60L41 60L41 62L42 62L42 63L44 63L44 64L45 64L45 66L46 66L46 64L45 64L45 63L46 63L46 62L45 62L45 61L46 61L46 60L45 60L45 59L46 59L46 58L45 58L45 59L44 59L44 60L43 60L43 57L44 57L44 56L46 56L46 57L47 57L47 58L48 58L48 59L49 59L49 60L47 60L47 62L50 62L50 61L49 61L49 60L50 60L50 59L51 59L51 58L50 58L50 57L51 57L51 56L52 56L52 55L51 55L51 56L50 56L50 57L49 57L49 55L50 55L50 53L51 53L51 52L49 52L49 51L52 51L52 50L55 50L55 49L56 49L56 47L57 47L57 48L58 48L58 47L57 47L57 46L56 46L56 45L55 45L55 44L57 44L57 45L58 45L58 44L57 44L57 42L58 42L58 43L60 43L60 42L58 42L58 41L56 41L56 42L55 42L55 41L54 41L54 40L53 40L53 39L55 39L55 40L57 40L57 39L59 39L59 38L57 38L57 37L56 37L56 36L58 36L58 35L57 35L57 34L58 34L58 33L59 33L59 32L58 32L58 31L57 31L57 33L56 33L56 32L55 32L55 31L54 31L54 32L53 32L53 30L55 30L55 29L56 29L56 30L57 30L57 29L56 29L56 28L53 28L53 30L52 30L52 32L53 32L53 33L54 33L54 34L52 34L52 35L50 35L50 33L51 33L51 32L50 32L50 31L49 31L49 30L50 30L50 28L52 28L52 25L51 25L51 24L50 24L50 25L51 25L51 26L48 26L48 25L49 25L49 24L48 24L48 23L50 23L50 21L51 21L51 20L46 20L46 21L47 21L47 24L46 24L46 22L44 22L44 20L43 20L43 17L44 17L44 16L45 16L45 17L47 17L47 16L48 16L48 17L49 17L49 18L50 18L50 17L51 17L51 19L52 19L52 20L53 20L53 21L52 21L52 22L51 22L51 23L52 23L52 22L53 22L53 26L57 26L57 25L56 25L56 23L54 23L54 22L58 22L58 21L56 21L56 20L57 20L57 19L55 19L55 18L57 18L57 17L56 17L56 13L52 13L52 14L55 14L55 16L54 16L54 15L52 15L52 16L53 16L53 18L52 18L52 17L51 17L51 16L50 16L50 15L51 15L51 14L50 14L50 12L51 12L51 11L52 11L52 12L54 12L54 11L52 11L52 10L51 10L51 11L50 11L50 12L45 12L45 11L43 11L43 13L42 13L42 14L41 14L41 12L40 12L40 13L39 13L39 14L40 14L40 15L38 15L38 16L40 16L40 15L42 15L42 14L44 14L44 16L42 16L42 17L41 17L41 18L39 18L39 19L40 19L40 20L43 20L43 21L41 21L41 22L39 22L39 23L41 23L41 24L42 24L42 25L41 25L41 26L38 26L38 25L36 25L36 24L38 24L38 23L37 23L37 22L32 22L32 23L31 23L31 22L30 22L30 23L28 23L28 24L27 24L27 23L26 23L26 24L25 24L25 21L26 21L26 20L28 20L28 21L31 21L31 20L32 20L32 19L33 19L33 20L34 20L34 21L36 21L36 20L34 20L34 19L33 19L33 17L32 17L32 16L29 16L29 15L28 15L28 14L27 14L27 13L32 13L32 12L29 12L29 11L28 11L28 10L27 10L27 13L26 13L26 7L25 7L25 6ZM30 6L30 7L31 7L31 6ZM34 6L34 7L35 7L35 6ZM39 6L39 7L40 7L40 6ZM48 6L48 7L47 7L47 10L50 10L50 8L49 8L49 6ZM45 7L45 9L46 9L46 7ZM21 8L21 9L22 9L22 8ZM29 8L29 9L30 9L30 10L31 10L31 11L32 11L32 10L31 10L31 9L30 9L30 8ZM51 8L51 9L52 9L52 8ZM63 8L63 9L64 9L64 8ZM65 8L65 9L66 9L66 8ZM1 9L1 10L3 10L3 11L2 11L2 12L3 12L3 11L4 11L4 10L5 10L5 9L4 9L4 10L3 10L3 9ZM11 9L11 10L9 10L9 11L13 11L13 10L12 10L12 9ZM17 9L17 11L18 11L18 10L19 10L19 9ZM24 9L24 10L23 10L23 11L24 11L24 12L25 12L25 9ZM35 10L35 11L36 11L36 10ZM7 11L7 12L6 12L6 13L7 13L7 12L8 12L8 11ZM33 11L33 12L34 12L34 11ZM44 12L44 14L47 14L47 15L48 15L48 16L49 16L49 17L50 17L50 16L49 16L49 15L50 15L50 14L47 14L47 13L45 13L45 12ZM33 13L33 14L31 14L31 15L33 15L33 16L34 16L34 15L33 15L33 14L34 14L34 13ZM63 13L63 14L65 14L65 13ZM6 14L6 15L8 15L8 16L5 16L5 17L8 17L8 18L9 18L9 19L8 19L8 20L10 20L10 17L8 17L8 16L9 16L9 15L8 15L8 14ZM20 14L20 15L21 15L21 14ZM24 14L24 15L26 15L26 16L24 16L24 17L26 17L26 18L27 18L27 19L28 19L28 20L31 20L31 19L29 19L29 18L31 18L31 17L29 17L29 16L27 16L27 14ZM45 15L45 16L46 16L46 15ZM62 15L62 16L60 16L60 17L59 17L59 20L60 20L60 18L62 18L62 20L63 20L63 18L65 18L65 17L63 17L63 18L62 18L62 16L64 16L64 15ZM17 17L17 20L19 20L19 19L20 19L20 18L19 18L19 19L18 19L18 17ZM21 17L21 18L22 18L22 17ZM27 17L27 18L28 18L28 17ZM23 18L23 19L25 19L25 20L26 20L26 19L25 19L25 18ZM44 18L44 19L45 19L45 18ZM47 18L47 19L48 19L48 18ZM54 19L54 20L55 20L55 19ZM20 20L20 22L21 22L21 23L20 23L20 24L19 24L19 25L18 25L18 27L19 27L19 29L20 29L20 30L19 30L19 31L20 31L20 30L22 30L22 31L21 31L21 32L20 32L20 33L19 33L19 34L18 34L18 35L19 35L19 36L20 36L20 39L21 39L21 40L19 40L19 41L20 41L20 42L22 42L22 43L24 43L24 44L21 44L21 43L19 43L19 42L18 42L18 43L19 43L19 45L20 45L20 46L18 46L18 47L17 47L17 48L18 48L18 49L23 49L23 48L25 48L25 49L26 49L26 50L25 50L25 52L24 52L24 53L25 53L25 52L26 52L26 53L27 53L27 52L26 52L26 50L27 50L27 51L28 51L28 52L29 52L29 48L27 48L27 46L26 46L26 45L25 45L25 46L24 46L24 47L23 47L23 48L21 48L21 47L22 47L22 46L23 46L23 45L24 45L24 44L26 44L26 42L25 42L25 41L24 41L24 40L23 40L23 38L22 38L22 37L24 37L24 36L22 36L22 37L21 37L21 35L22 35L22 34L23 34L23 35L25 35L25 36L26 36L26 37L27 37L27 38L26 38L26 39L29 39L29 38L30 38L30 37L29 37L29 36L31 36L31 35L32 35L32 33L31 33L31 34L29 34L29 36L28 36L28 35L27 35L27 34L28 34L28 33L29 33L29 32L28 32L28 33L25 33L25 34L23 34L23 33L24 33L24 32L26 32L26 31L24 31L24 32L22 32L22 31L23 31L23 30L22 30L22 29L24 29L24 27L23 27L23 28L22 28L22 29L20 29L20 28L21 28L21 27L20 27L20 26L21 26L21 25L22 25L22 26L24 26L24 25L22 25L22 24L21 24L21 23L22 23L22 22L23 22L23 20ZM15 21L15 22L16 22L16 23L17 23L17 24L16 24L16 25L15 25L15 26L16 26L16 25L17 25L17 24L18 24L18 23L19 23L19 21L17 21L17 22L16 22L16 21ZM21 21L21 22L22 22L22 21ZM48 21L48 22L49 22L49 21ZM17 22L17 23L18 23L18 22ZM41 22L41 23L42 23L42 22ZM43 22L43 24L44 24L44 25L43 25L43 26L46 26L46 27L43 27L43 28L44 28L44 29L43 29L43 30L42 30L42 27L39 27L39 28L38 28L38 26L37 26L37 29L38 29L38 30L37 30L37 31L35 31L35 32L38 32L38 30L40 30L40 31L43 31L43 32L44 32L44 33L43 33L43 34L41 34L41 35L43 35L43 36L44 36L44 37L45 37L45 38L47 38L47 37L45 37L45 36L47 36L47 35L48 35L48 34L47 34L47 33L45 33L45 32L44 32L44 31L43 31L43 30L44 30L44 29L45 29L45 31L46 31L46 32L48 32L48 31L47 31L47 28L49 28L49 27L48 27L48 26L47 26L47 25L48 25L48 24L47 24L47 25L46 25L46 24L45 24L45 23L44 23L44 22ZM10 23L10 24L9 24L9 25L10 25L10 24L11 24L11 23ZM13 23L13 25L14 25L14 24L15 24L15 23ZM32 23L32 24L31 24L31 26L30 26L30 27L29 27L29 25L30 25L30 24L29 24L29 25L27 25L27 24L26 24L26 26L25 26L25 28L26 28L26 30L27 30L27 31L29 31L29 30L30 30L30 29L28 29L28 27L29 27L29 28L30 28L30 27L33 27L33 28L34 28L34 29L33 29L33 30L31 30L31 31L32 31L32 32L34 32L34 31L33 31L33 30L34 30L34 29L35 29L35 30L36 30L36 28L35 28L35 27L36 27L36 26L35 26L35 25L32 25L32 24L36 24L36 23ZM19 25L19 26L20 26L20 25ZM26 26L26 27L28 27L28 26ZM33 26L33 27L34 27L34 26ZM31 28L31 29L32 29L32 28ZM39 28L39 29L40 29L40 28ZM48 29L48 30L49 30L49 29ZM64 29L64 30L65 30L65 29ZM17 32L17 33L16 33L16 34L17 34L17 33L18 33L18 32ZM66 32L66 34L68 34L68 33L67 33L67 32ZM5 33L5 36L8 36L8 33ZM21 33L21 34L22 34L22 33ZM33 33L33 36L36 36L36 33ZM44 33L44 36L45 36L45 33ZM55 33L55 34L54 34L54 35L53 35L53 36L50 36L50 35L49 35L49 36L50 36L50 37L48 37L48 39L47 39L47 40L45 40L45 39L43 39L43 38L42 38L42 39L41 39L41 40L39 40L39 41L38 41L38 39L37 39L37 41L38 41L38 43L37 43L37 45L38 45L38 46L39 46L39 47L40 47L40 48L39 48L39 49L38 49L38 50L37 50L37 51L39 51L39 50L41 50L41 49L42 49L42 48L43 48L43 47L44 47L44 49L43 49L43 50L44 50L44 49L45 49L45 52L44 52L44 53L43 53L43 54L42 54L42 55L43 55L43 56L42 56L42 57L43 57L43 56L44 56L44 53L45 53L45 54L46 54L46 56L47 56L47 55L48 55L48 54L49 54L49 53L48 53L48 54L47 54L47 53L45 53L45 52L46 52L46 51L47 51L47 52L48 52L48 51L49 51L49 50L48 50L48 49L47 49L47 47L48 47L48 48L49 48L49 49L50 49L50 50L51 50L51 49L53 49L53 48L54 48L54 49L55 49L55 48L54 48L54 47L56 47L56 46L53 46L53 44L54 44L54 43L53 43L53 42L51 42L51 41L53 41L53 40L52 40L52 39L53 39L53 37L55 37L55 38L56 38L56 39L57 39L57 38L56 38L56 37L55 37L55 36L56 36L56 33ZM61 33L61 36L64 36L64 33ZM6 34L6 35L7 35L7 34ZM19 34L19 35L20 35L20 34ZM25 34L25 35L26 35L26 36L27 36L27 37L28 37L28 36L27 36L27 35L26 35L26 34ZM34 34L34 35L35 35L35 34ZM62 34L62 35L63 35L63 34ZM65 35L65 36L66 36L66 38L67 38L67 36L68 36L68 35L67 35L67 36L66 36L66 35ZM51 37L51 38L49 38L49 39L51 39L51 38L52 38L52 37ZM64 37L64 38L62 38L62 39L65 39L65 37ZM10 38L10 39L11 39L11 38ZM21 38L21 39L22 39L22 38ZM0 39L0 40L1 40L1 39ZM31 39L31 40L32 40L32 43L31 43L31 44L29 44L29 45L30 45L30 46L31 46L31 45L33 45L33 44L32 44L32 43L33 43L33 40L32 40L32 39ZM21 40L21 41L22 41L22 40ZM26 40L26 41L27 41L27 40ZM41 40L41 41L40 41L40 43L38 43L38 44L40 44L40 45L39 45L39 46L40 46L40 47L41 47L41 48L42 48L42 46L44 46L44 44L45 44L45 42L44 42L44 40ZM47 40L47 41L48 41L48 42L50 42L50 44L48 44L48 43L47 43L47 42L46 42L46 43L47 43L47 46L45 46L45 49L46 49L46 47L47 47L47 46L49 46L49 47L50 47L50 49L51 49L51 48L53 48L53 47L52 47L52 46L49 46L49 45L50 45L50 44L52 44L52 43L51 43L51 42L50 42L50 41L51 41L51 40L50 40L50 41L49 41L49 40ZM60 40L60 41L61 41L61 43L62 43L62 41L61 41L61 40ZM0 41L0 42L1 42L1 41ZM10 41L10 42L11 42L11 41ZM15 41L15 42L16 42L16 41ZM23 41L23 42L24 42L24 41ZM12 42L12 43L13 43L13 42ZM43 42L43 44L44 44L44 42ZM0 43L0 44L1 44L1 43ZM15 43L15 44L16 44L16 43ZM40 43L40 44L41 44L41 43ZM63 43L63 44L64 44L64 43ZM21 45L21 46L20 46L20 47L21 47L21 46L22 46L22 45ZM41 45L41 46L42 46L42 45ZM60 45L60 47L59 47L59 48L60 48L60 47L61 47L61 49L60 49L60 50L59 50L59 52L60 52L60 50L61 50L61 52L63 52L63 53L64 53L64 52L63 52L63 51L62 51L62 46L61 46L61 45ZM32 46L32 47L33 47L33 46ZM6 47L6 48L7 48L7 47ZM25 47L25 48L26 48L26 47ZM63 47L63 49L64 49L64 47ZM13 48L13 49L14 49L14 48ZM27 49L27 50L28 50L28 49ZM12 50L12 51L13 51L13 50ZM22 50L22 51L24 51L24 50ZM0 52L0 53L1 53L1 52ZM37 52L37 53L38 53L38 52ZM6 53L6 54L7 54L7 53ZM1 55L1 56L2 56L2 55ZM8 55L8 56L10 56L10 55ZM35 55L35 56L36 56L36 55ZM60 55L60 56L61 56L61 55ZM67 55L67 56L68 56L68 55ZM21 56L21 57L19 57L19 58L21 58L21 59L19 59L19 60L20 60L20 62L22 62L22 61L25 61L25 60L26 60L26 62L27 62L27 64L28 64L28 65L29 65L29 68L31 68L31 66L32 66L32 65L29 65L29 64L31 64L31 63L32 63L32 60L35 60L35 59L32 59L32 58L31 58L31 59L32 59L32 60L31 60L31 63L30 63L30 62L29 62L29 60L28 60L28 61L27 61L27 60L26 60L26 58L25 58L25 60L24 60L24 59L22 59L22 58L24 58L24 57L22 57L22 56ZM65 56L65 57L66 57L66 58L65 58L65 59L67 59L67 57L66 57L66 56ZM21 57L21 58L22 58L22 57ZM48 57L48 58L49 58L49 59L50 59L50 58L49 58L49 57ZM21 59L21 61L22 61L22 59ZM3 60L3 61L5 61L5 60ZM11 60L11 61L10 61L10 63L11 63L11 64L12 64L12 62L13 62L13 61L12 61L12 60ZM42 60L42 61L43 61L43 62L44 62L44 61L45 61L45 60L44 60L44 61L43 61L43 60ZM33 61L33 64L36 64L36 61ZM61 61L61 64L64 64L64 61ZM34 62L34 63L35 63L35 62ZM59 62L59 65L60 65L60 62ZM62 62L62 63L63 63L63 62ZM65 62L65 63L66 63L66 62ZM25 63L25 64L26 64L26 63ZM13 65L13 66L14 66L14 65ZM61 65L61 66L62 66L62 65ZM63 65L63 66L64 66L64 65ZM22 66L22 67L23 67L23 68L25 68L25 67L23 67L23 66ZM48 66L48 67L49 67L49 66ZM53 66L53 67L54 67L54 66ZM33 68L33 69L34 69L34 68ZM0 0L0 7L7 7L7 0ZM1 1L1 6L6 6L6 1ZM2 2L2 5L5 5L5 2ZM62 0L62 7L69 7L69 0ZM63 1L63 6L68 6L68 1ZM64 2L64 5L67 5L67 2ZM0 62L0 69L7 69L7 62ZM1 63L1 68L6 68L6 63ZM2 64L2 67L5 67L5 64Z" fill="#000000"/></g></g></svg>
