<?xml version="1.0" encoding="UTF-8"?>
<svg xmlns="http://www.w3.org/2000/svg" version="1.1" width="300" height="300" viewBox="0 0 300 300"><rect x="0" y="0" width="300" height="300" fill="#ffffff"/><g transform="scale(4.348)"><g transform="translate(0,0)"><path fill-rule="evenodd" d="M9 0L9 1L8 1L8 2L9 2L9 3L8 3L8 4L9 4L9 5L8 5L8 7L9 7L9 5L10 5L10 8L11 8L11 10L12 10L12 12L11 12L11 11L10 11L10 12L9 12L9 8L6 8L6 9L5 9L5 8L0 8L0 10L1 10L1 9L2 9L2 11L3 11L3 9L5 9L5 11L8 11L8 12L3 12L3 14L1 14L1 13L2 13L2 12L1 12L1 11L0 11L0 14L1 14L1 15L0 15L0 17L1 17L1 19L2 19L2 21L0 21L0 23L1 23L1 24L0 24L0 29L1 29L1 30L0 30L0 31L1 31L1 32L3 32L3 31L4 31L4 33L2 33L2 34L1 34L1 33L0 33L0 36L1 36L1 35L2 35L2 37L1 37L1 39L2 39L2 42L1 42L1 43L0 43L0 44L1 44L1 43L3 43L3 42L4 42L4 41L3 41L3 40L5 40L5 39L7 39L7 40L6 40L6 41L7 41L7 42L5 42L5 45L7 45L7 46L6 46L6 47L5 47L5 48L3 48L3 47L4 47L4 46L3 46L3 44L2 44L2 47L1 47L1 48L0 48L0 50L3 50L3 49L5 49L5 48L6 48L6 49L7 49L7 50L5 50L5 51L7 51L7 52L6 52L6 53L7 53L7 54L6 54L6 55L4 55L4 56L3 56L3 55L1 55L1 52L3 52L3 53L2 53L2 54L3 54L3 53L4 53L4 54L5 54L5 52L4 52L4 51L0 51L0 56L1 56L1 57L0 57L0 61L1 61L1 57L2 57L2 59L3 59L3 57L5 57L5 58L4 58L4 59L7 59L7 58L6 58L6 57L7 57L7 56L6 56L6 55L9 55L9 57L8 57L8 58L9 58L9 60L10 60L10 61L11 61L11 62L13 62L13 65L11 65L11 63L10 63L10 62L9 62L9 61L8 61L8 63L10 63L10 64L8 64L8 69L13 69L13 68L12 68L12 66L13 66L13 67L14 67L14 68L15 68L15 69L16 69L16 67L18 67L18 66L19 66L19 67L20 67L20 66L19 66L19 65L20 65L20 63L21 63L21 64L22 64L22 63L26 63L26 64L25 64L25 65L23 65L23 66L21 66L21 67L22 67L22 68L17 68L17 69L22 69L22 68L23 68L23 66L24 66L24 67L25 67L25 69L26 69L26 67L28 67L28 68L27 68L27 69L32 69L32 68L29 68L29 65L32 65L32 66L31 66L31 67L34 67L34 66L33 66L33 65L36 65L36 67L35 67L35 68L34 68L34 69L35 69L35 68L36 68L36 69L38 69L38 68L37 68L37 66L38 66L38 67L39 67L39 68L40 68L40 67L41 67L41 66L44 66L44 68L42 68L42 69L44 69L44 68L47 68L47 69L50 69L50 68L51 68L51 67L54 67L54 68L55 68L55 69L56 69L56 68L58 68L58 69L59 69L59 67L60 67L60 69L61 69L61 68L62 68L62 67L63 67L63 68L65 68L65 69L68 69L68 68L67 68L67 67L66 67L66 66L67 66L67 65L68 65L68 64L69 64L69 63L68 63L68 61L69 61L69 59L68 59L68 58L67 58L67 59L66 59L66 57L67 57L67 56L68 56L68 57L69 57L69 56L68 56L68 55L67 55L67 54L69 54L69 53L67 53L67 52L68 52L68 50L69 50L69 48L68 48L68 49L67 49L67 51L65 51L65 50L64 50L64 51L65 51L65 52L66 52L66 53L65 53L65 54L66 54L66 55L62 55L62 54L60 54L60 53L59 53L59 54L57 54L57 57L56 57L56 54L55 54L55 53L56 53L56 52L55 52L55 49L56 49L56 50L57 50L57 51L58 51L58 50L57 50L57 49L59 49L59 52L60 52L60 51L61 51L61 52L63 52L63 53L64 53L64 52L63 52L63 51L61 51L61 50L63 50L63 49L64 49L64 48L67 48L67 47L68 47L68 46L69 46L69 43L68 43L68 42L65 42L65 43L63 43L63 44L66 44L66 47L63 47L63 48L62 48L62 42L63 42L63 41L62 41L62 42L58 42L58 43L61 43L61 44L60 44L60 45L59 45L59 44L58 44L58 45L59 45L59 47L57 47L57 45L56 45L56 42L57 42L57 41L56 41L56 40L54 40L54 39L55 39L55 38L57 38L57 40L59 40L59 39L61 39L61 40L60 40L60 41L61 41L61 40L64 40L64 41L65 41L65 40L66 40L66 41L67 41L67 40L68 40L68 38L67 38L67 37L68 37L68 36L69 36L69 35L68 35L68 34L69 34L69 32L68 32L68 34L67 34L67 33L66 33L66 32L67 32L67 31L68 31L68 30L67 30L67 31L64 31L64 32L63 32L63 30L65 30L65 29L66 29L66 28L67 28L67 29L68 29L68 28L69 28L69 27L68 27L68 26L69 26L69 24L68 24L68 22L69 22L69 21L68 21L68 18L69 18L69 15L68 15L68 14L69 14L69 12L67 12L67 11L68 11L68 10L69 10L69 9L68 9L68 8L67 8L67 11L65 11L65 10L64 10L64 11L62 11L62 13L59 13L59 14L61 14L61 15L62 15L62 16L59 16L59 15L57 15L57 17L56 17L56 15L54 15L54 14L56 14L56 12L57 12L57 13L58 13L58 12L59 12L59 11L55 11L55 12L54 12L54 13L52 13L52 14L53 14L53 15L54 15L54 16L53 16L53 19L52 19L52 20L54 20L54 18L55 18L55 21L53 21L53 23L54 23L54 24L55 24L55 25L51 25L51 22L50 22L50 21L51 21L51 20L49 20L49 19L48 19L48 17L49 17L49 18L50 18L50 17L51 17L51 18L52 18L52 17L51 17L51 16L52 16L52 15L51 15L51 14L50 14L50 12L53 12L53 11L50 11L50 7L51 7L51 8L52 8L52 7L53 7L53 5L54 5L54 7L55 7L55 6L56 6L56 7L57 7L57 6L58 6L58 7L59 7L59 8L61 8L61 9L59 9L59 10L62 10L62 8L61 8L61 6L60 6L60 7L59 7L59 4L58 4L58 5L57 5L57 6L56 6L56 3L59 3L59 2L58 2L58 1L61 1L61 0L56 0L56 1L57 1L57 2L56 2L56 3L55 3L55 4L53 4L53 5L52 5L52 4L51 4L51 6L50 6L50 7L49 7L49 6L48 6L48 5L47 5L47 6L46 6L46 5L44 5L44 3L45 3L45 4L46 4L46 3L45 3L45 2L44 2L44 3L43 3L43 0L39 0L39 1L38 1L38 0L37 0L37 1L36 1L36 0L33 0L33 1L32 1L32 0L31 0L31 1L30 1L30 0L28 0L28 1L26 1L26 3L23 3L23 2L25 2L25 0L21 0L21 3L19 3L19 2L20 2L20 1L19 1L19 0L16 0L16 1L17 1L17 2L18 2L18 3L17 3L17 4L16 4L16 3L15 3L15 2L13 2L13 1L15 1L15 0L12 0L12 1L11 1L11 3L12 3L12 4L11 4L11 5L10 5L10 4L9 4L9 3L10 3L10 0ZM44 0L44 1L45 1L45 0ZM49 0L49 1L47 1L47 2L49 2L49 1L50 1L50 0ZM52 0L52 1L53 1L53 2L54 2L54 1L55 1L55 0L54 0L54 1L53 1L53 0ZM22 1L22 2L23 2L23 1ZM34 1L34 2L32 2L32 4L35 4L35 2L36 2L36 1ZM37 1L37 3L38 3L38 4L37 4L37 5L38 5L38 6L37 6L37 7L38 7L38 8L37 8L37 9L38 9L38 10L36 10L36 9L34 9L34 10L32 10L32 8L31 8L31 7L32 7L32 5L30 5L30 6L29 6L29 7L28 7L28 6L27 6L27 7L28 7L28 8L30 8L30 9L27 9L27 8L26 8L26 6L25 6L25 7L24 7L24 6L23 6L23 5L22 5L22 6L21 6L21 4L23 4L23 3L21 3L21 4L20 4L20 6L19 6L19 8L20 8L20 10L18 10L18 9L16 9L16 8L18 8L18 6L17 6L17 5L18 5L18 4L17 4L17 5L16 5L16 4L15 4L15 7L14 7L14 5L11 5L11 8L12 8L12 6L13 6L13 7L14 7L14 8L13 8L13 9L12 9L12 10L16 10L16 11L17 11L17 12L16 12L16 13L14 13L14 11L13 11L13 13L12 13L12 15L13 15L13 16L12 16L12 17L11 17L11 19L10 19L10 20L9 20L9 18L10 18L10 17L6 17L6 16L8 16L8 15L10 15L10 16L11 16L11 14L10 14L10 13L11 13L11 12L10 12L10 13L9 13L9 12L8 12L8 13L4 13L4 14L5 14L5 15L6 15L6 16L4 16L4 15L2 15L2 16L1 16L1 17L2 17L2 19L3 19L3 20L4 20L4 21L3 21L3 22L2 22L2 23L3 23L3 22L4 22L4 25L2 25L2 24L1 24L1 25L2 25L2 26L1 26L1 27L2 27L2 26L3 26L3 27L4 27L4 28L3 28L3 30L2 30L2 31L3 31L3 30L5 30L5 29L6 29L6 30L7 30L7 31L5 31L5 32L7 32L7 31L8 31L8 30L9 30L9 32L10 32L10 33L12 33L12 32L11 32L11 31L10 31L10 30L12 30L12 31L13 31L13 30L14 30L14 32L13 32L13 34L14 34L14 33L15 33L15 34L17 34L17 35L16 35L16 36L14 36L14 35L12 35L12 37L11 37L11 36L10 36L10 35L11 35L11 34L10 34L10 35L9 35L9 36L10 36L10 37L6 37L6 38L11 38L11 39L12 39L12 37L13 37L13 38L14 38L14 39L13 39L13 40L12 40L12 41L11 41L11 40L8 40L8 43L9 43L9 44L10 44L10 46L12 46L12 47L13 47L13 46L12 46L12 45L13 45L13 44L14 44L14 43L16 43L16 45L15 45L15 52L14 52L14 51L13 51L13 52L12 52L12 54L9 54L9 55L10 55L10 56L11 56L11 58L12 58L12 56L14 56L14 57L13 57L13 59L12 59L12 60L14 60L14 59L15 59L15 60L16 60L16 61L15 61L15 62L14 62L14 61L13 61L13 62L14 62L14 63L15 63L15 62L17 62L17 63L18 63L18 62L19 62L19 61L18 61L18 62L17 62L17 60L16 60L16 59L15 59L15 58L16 58L16 57L17 57L17 59L18 59L18 60L20 60L20 58L21 58L21 59L22 59L22 60L21 60L21 61L20 61L20 62L21 62L21 63L22 63L22 62L23 62L23 60L24 60L24 61L25 61L25 62L29 62L29 64L28 64L28 63L27 63L27 64L28 64L28 65L25 65L25 67L26 67L26 66L28 66L28 65L29 65L29 64L30 64L30 61L29 61L29 60L28 60L28 59L30 59L30 60L31 60L31 63L32 63L32 60L33 60L33 59L35 59L35 58L32 58L32 57L37 57L37 58L36 58L36 59L37 59L37 58L39 58L39 57L41 57L41 56L39 56L39 55L40 55L40 54L41 54L41 55L43 55L43 56L42 56L42 57L43 57L43 60L42 60L42 58L41 58L41 59L40 59L40 62L39 62L39 59L38 59L38 60L37 60L37 61L38 61L38 63L37 63L37 65L38 65L38 66L39 66L39 67L40 67L40 66L41 66L41 64L44 64L44 66L45 66L45 67L46 67L46 66L47 66L47 67L48 67L48 68L50 68L50 66L51 66L51 65L52 65L52 66L53 66L53 65L54 65L54 64L53 64L53 63L56 63L56 62L57 62L57 63L58 63L58 62L59 62L59 65L57 65L57 64L55 64L55 65L57 65L57 66L54 66L54 67L55 67L55 68L56 68L56 67L58 67L58 66L60 66L60 62L59 62L59 61L60 61L60 60L65 60L65 61L66 61L66 60L65 60L65 56L62 56L62 57L61 57L61 58L60 58L60 59L58 59L58 60L57 60L57 58L59 58L59 57L60 57L60 56L61 56L61 55L60 55L60 54L59 54L59 55L58 55L58 56L59 56L59 57L57 57L57 58L53 58L53 57L54 57L54 55L55 55L55 54L54 54L54 53L53 53L53 52L50 52L50 51L51 51L51 49L54 49L54 48L53 48L53 46L54 46L54 47L55 47L55 48L56 48L56 49L57 49L57 47L55 47L55 46L54 46L54 45L53 45L53 44L54 44L54 43L55 43L55 42L54 42L54 43L53 43L53 41L54 41L54 40L52 40L52 38L53 38L53 39L54 39L54 38L53 38L53 37L55 37L55 35L56 35L56 37L57 37L57 38L60 38L60 35L59 35L59 37L58 37L58 36L57 36L57 35L56 35L56 33L57 33L57 34L59 34L59 33L60 33L60 31L62 31L62 30L63 30L63 29L65 29L65 26L64 26L64 28L63 28L63 25L65 25L65 24L63 24L63 25L62 25L62 23L63 23L63 21L64 21L64 22L68 22L68 21L66 21L66 20L65 20L65 18L66 18L66 16L65 16L65 14L68 14L68 13L67 13L67 12L65 12L65 11L64 11L64 12L63 12L63 13L62 13L62 15L64 15L64 16L62 16L62 18L59 18L59 17L57 17L57 18L56 18L56 21L55 21L55 22L54 22L54 23L55 23L55 24L56 24L56 25L55 25L55 26L53 26L53 27L51 27L51 29L50 29L50 27L48 27L48 26L51 26L51 25L50 25L50 22L49 22L49 21L46 21L46 20L48 20L48 19L46 19L46 18L47 18L47 17L46 17L46 18L45 18L45 16L44 16L44 13L45 13L45 15L47 15L47 16L48 16L48 15L50 15L50 14L47 14L47 12L49 12L49 10L47 10L47 7L48 7L48 6L47 6L47 7L46 7L46 6L45 6L45 7L44 7L44 5L43 5L43 7L42 7L42 6L41 6L41 5L40 5L40 4L43 4L43 3L42 3L42 1L41 1L41 3L39 3L39 2L38 2L38 1ZM27 2L27 3L26 3L26 4L25 4L25 5L26 5L26 4L27 4L27 5L29 5L29 3L28 3L28 2ZM30 2L30 3L31 3L31 2ZM50 2L50 3L52 3L52 2ZM27 3L27 4L28 4L28 3ZM47 3L47 4L49 4L49 5L50 5L50 4L49 4L49 3ZM60 3L60 5L61 5L61 3ZM33 5L33 8L36 8L36 5ZM39 5L39 6L38 6L38 7L39 7L39 6L40 6L40 7L41 7L41 6L40 6L40 5ZM16 6L16 7L15 7L15 8L14 8L14 9L15 9L15 8L16 8L16 7L17 7L17 6ZM20 6L20 7L21 7L21 6ZM22 6L22 7L23 7L23 6ZM30 6L30 7L31 7L31 6ZM34 6L34 7L35 7L35 6ZM51 6L51 7L52 7L52 6ZM45 7L45 9L44 9L44 8L43 8L43 9L41 9L41 12L40 12L40 11L39 11L39 12L38 12L38 13L37 13L37 14L35 14L35 15L38 15L38 16L37 16L37 18L34 18L34 17L33 17L33 16L34 16L34 15L33 15L33 16L32 16L32 14L31 14L31 16L29 16L29 15L28 15L28 14L27 14L27 13L25 13L25 12L26 12L26 8L24 8L24 9L23 9L23 10L24 10L24 9L25 9L25 12L24 12L24 11L23 11L23 14L24 14L24 15L22 15L22 13L21 13L21 14L20 14L20 12L21 12L21 11L18 11L18 12L17 12L17 13L16 13L16 15L14 15L14 14L13 14L13 15L14 15L14 18L16 18L16 17L18 17L18 19L19 19L19 20L15 20L15 21L14 21L14 23L15 23L15 22L16 22L16 21L17 21L17 23L19 23L19 24L17 24L17 25L16 25L16 24L15 24L15 25L13 25L13 28L12 28L12 30L13 30L13 29L14 29L14 30L15 30L15 29L16 29L16 28L17 28L17 30L16 30L16 31L17 31L17 32L18 32L18 33L17 33L17 34L19 34L19 35L17 35L17 37L19 37L19 38L17 38L17 39L19 39L19 38L20 38L20 40L17 40L17 41L18 41L18 42L19 42L19 41L22 41L22 40L21 40L21 39L22 39L22 37L21 37L21 38L20 38L20 37L19 37L19 35L20 35L20 34L19 34L19 33L20 33L20 31L19 31L19 30L20 30L20 28L19 28L19 27L20 27L20 25L21 25L21 26L22 26L22 25L24 25L24 26L23 26L23 27L21 27L21 28L23 28L23 29L22 29L22 30L25 30L25 31L26 31L26 32L25 32L25 33L24 33L24 32L23 32L23 31L22 31L22 32L23 32L23 33L22 33L22 34L21 34L21 36L23 36L23 38L24 38L24 39L23 39L23 40L24 40L24 41L23 41L23 42L20 42L20 43L21 43L21 44L17 44L17 45L21 45L21 48L22 48L22 47L25 47L25 48L23 48L23 51L24 51L24 52L23 52L23 53L21 53L21 54L20 54L20 52L22 52L22 51L21 51L21 50L22 50L22 49L18 49L18 48L17 48L17 47L18 47L18 46L17 46L17 47L16 47L16 48L17 48L17 49L18 49L18 51L19 51L19 52L15 52L15 53L19 53L19 54L18 54L18 55L17 55L17 54L15 54L15 55L14 55L14 56L15 56L15 57L14 57L14 58L15 58L15 57L16 57L16 56L17 56L17 57L21 57L21 58L22 58L22 57L24 57L24 58L23 58L23 59L24 59L24 60L25 60L25 61L26 61L26 59L27 59L27 57L29 57L29 58L30 58L30 59L31 59L31 60L32 60L32 59L31 59L31 57L32 57L32 56L34 56L34 55L35 55L35 56L37 56L37 57L38 57L38 55L35 55L35 54L34 54L34 55L33 55L33 53L34 53L34 52L33 52L33 51L34 51L34 49L33 49L33 48L32 48L32 49L31 49L31 47L30 47L30 46L31 46L31 44L32 44L32 45L33 45L33 46L32 46L32 47L33 47L33 46L34 46L34 48L36 48L36 47L37 47L37 48L38 48L38 45L39 45L39 46L40 46L40 47L39 47L39 48L40 48L40 47L41 47L41 48L42 48L42 49L41 49L41 50L39 50L39 51L37 51L37 50L38 50L38 49L37 49L37 50L36 50L36 49L35 49L35 53L37 53L37 54L40 54L40 52L41 52L41 50L42 50L42 52L43 52L43 53L41 53L41 54L43 54L43 53L44 53L44 56L43 56L43 57L44 57L44 56L46 56L46 57L47 57L47 59L46 59L46 58L45 58L45 59L44 59L44 60L43 60L43 61L42 61L42 60L41 60L41 62L42 62L42 63L43 63L43 62L45 62L45 63L44 63L44 64L45 64L45 66L46 66L46 64L45 64L45 63L46 63L46 62L45 62L45 61L46 61L46 60L47 60L47 62L50 62L50 60L51 60L51 61L52 61L52 62L51 62L51 63L53 63L53 62L55 62L55 61L56 61L56 60L55 60L55 59L54 59L54 60L53 60L53 58L51 58L51 59L50 59L50 57L51 57L51 56L49 56L49 55L52 55L52 56L53 56L53 55L54 55L54 54L49 54L49 53L50 53L50 52L47 52L47 51L46 51L46 52L45 52L45 49L46 49L46 47L47 47L47 46L50 46L50 47L48 47L48 48L47 48L47 49L49 49L49 50L50 50L50 49L51 49L51 48L52 48L52 46L53 46L53 45L51 45L51 44L53 44L53 43L50 43L50 40L47 40L47 38L48 38L48 39L49 39L49 38L50 38L50 39L51 39L51 38L50 38L50 37L51 37L51 36L50 36L50 37L49 37L49 36L48 36L48 35L49 35L49 34L50 34L50 33L51 33L51 35L54 35L54 34L55 34L55 33L56 33L56 32L57 32L57 31L58 31L58 30L57 30L57 31L56 31L56 30L55 30L55 29L56 29L56 28L55 28L55 27L56 27L56 26L55 26L55 27L53 27L53 30L55 30L55 31L54 31L54 33L53 33L53 34L52 34L52 33L51 33L51 32L53 32L53 31L51 31L51 32L50 32L50 29L49 29L49 28L45 28L45 29L44 29L44 28L43 28L43 27L46 27L46 26L43 26L43 25L44 25L44 24L43 24L43 23L42 23L42 22L44 22L44 23L45 23L45 24L46 24L46 25L47 25L47 26L48 26L48 25L49 25L49 24L48 24L48 23L49 23L49 22L48 22L48 23L47 23L47 24L46 24L46 22L44 22L44 20L43 20L43 17L44 17L44 16L42 16L42 17L41 17L41 18L39 18L39 19L37 19L37 18L38 18L38 16L40 16L40 15L42 15L42 14L43 14L43 13L42 13L42 14L41 14L41 12L42 12L42 10L45 10L45 9L46 9L46 7ZM21 8L21 9L22 9L22 8ZM38 8L38 9L39 9L39 10L40 10L40 9L39 9L39 8ZM53 8L53 10L55 10L55 9L56 9L56 10L57 10L57 9L58 9L58 8L57 8L57 9L56 9L56 8L55 8L55 9L54 9L54 8ZM63 8L63 9L64 9L64 8ZM65 8L65 9L66 9L66 8ZM6 9L6 10L8 10L8 9ZM30 9L30 10L31 10L31 11L28 11L28 10L27 10L27 12L30 12L30 13L29 13L29 14L30 14L30 13L32 13L32 12L31 12L31 11L32 11L32 10L31 10L31 9ZM34 10L34 11L33 11L33 12L34 12L34 13L33 13L33 14L34 14L34 13L36 13L36 12L34 12L34 11L36 11L36 10ZM43 11L43 12L47 12L47 11ZM39 12L39 13L38 13L38 15L40 15L40 14L39 14L39 13L40 13L40 12ZM17 13L17 14L18 14L18 15L17 15L17 16L18 16L18 17L21 17L21 20L20 20L20 22L19 22L19 23L20 23L20 24L19 24L19 25L20 25L20 24L21 24L21 25L22 25L22 24L21 24L21 23L22 23L22 22L23 22L23 19L22 19L22 18L23 18L23 17L24 17L24 16L22 16L22 15L20 15L20 14L18 14L18 13ZM63 13L63 14L65 14L65 13ZM6 14L6 15L7 15L7 14ZM25 14L25 15L26 15L26 16L25 16L25 17L26 17L26 18L25 18L25 20L26 20L26 23L25 23L25 22L24 22L24 23L25 23L25 25L27 25L27 26L25 26L25 28L26 28L26 29L25 29L25 30L29 30L29 29L28 29L28 28L31 28L31 29L30 29L30 30L31 30L31 29L32 29L32 28L31 28L31 27L33 27L33 28L34 28L34 29L33 29L33 30L32 30L32 32L34 32L34 31L33 31L33 30L34 30L34 29L36 29L36 30L37 30L37 29L36 29L36 28L35 28L35 27L36 27L36 26L35 26L35 25L34 25L34 24L36 24L36 23L35 23L35 21L36 21L36 19L34 19L34 18L33 18L33 19L32 19L32 20L34 20L34 21L32 21L32 22L31 22L31 21L28 21L28 20L31 20L31 19L29 19L29 16L27 16L27 14ZM19 15L19 16L20 16L20 15ZM2 16L2 17L3 17L3 16ZM31 16L31 18L32 18L32 16ZM54 16L54 17L55 17L55 16ZM67 16L67 17L68 17L68 16ZM4 17L4 20L5 20L5 21L4 21L4 22L5 22L5 24L6 24L6 25L5 25L5 26L6 26L6 27L5 27L5 28L6 28L6 29L7 29L7 30L8 30L8 29L9 29L9 30L10 30L10 29L11 29L11 27L12 27L12 24L13 24L13 23L12 23L12 22L13 22L13 20L14 20L14 19L12 19L12 20L11 20L11 21L12 21L12 22L11 22L11 24L10 24L10 22L9 22L9 21L7 21L7 20L8 20L8 18L5 18L5 17ZM12 17L12 18L13 18L13 17ZM27 17L27 18L26 18L26 20L28 20L28 19L27 19L27 18L28 18L28 17ZM63 17L63 18L62 18L62 20L59 20L59 24L57 24L57 25L59 25L59 26L60 26L60 27L61 27L61 28L60 28L60 29L59 29L59 27L58 27L58 26L57 26L57 29L59 29L59 30L62 30L62 29L61 29L61 28L62 28L62 25L61 25L61 24L60 24L60 22L61 22L61 23L62 23L62 21L63 21L63 18L65 18L65 17ZM19 18L19 19L20 19L20 18ZM44 18L44 19L45 19L45 18ZM6 19L6 20L7 20L7 19ZM39 19L39 20L40 20L40 21L39 21L39 22L37 22L37 23L38 23L38 26L41 26L41 25L42 25L42 24L41 24L41 20L40 20L40 19ZM37 20L37 21L38 21L38 20ZM57 20L57 21L56 21L56 23L58 23L58 22L57 22L57 21L58 21L58 20ZM6 21L6 22L7 22L7 23L6 23L6 24L7 24L7 23L9 23L9 22L7 22L7 21ZM27 21L27 22L28 22L28 21ZM30 22L30 23L26 23L26 24L28 24L28 25L29 25L29 26L30 26L30 27L31 27L31 24L32 24L32 23L33 23L33 24L34 24L34 22L32 22L32 23L31 23L31 22ZM8 24L8 25L9 25L9 26L10 26L10 24ZM29 24L29 25L30 25L30 24ZM47 24L47 25L48 25L48 24ZM59 24L59 25L60 25L60 24ZM6 25L6 26L7 26L7 27L6 27L6 28L7 28L7 29L8 29L8 28L10 28L10 27L8 27L8 26L7 26L7 25ZM15 25L15 26L14 26L14 27L15 27L15 28L14 28L14 29L15 29L15 28L16 28L16 27L15 27L15 26L16 26L16 25ZM32 25L32 26L33 26L33 27L34 27L34 26L33 26L33 25ZM67 25L67 26L66 26L66 27L67 27L67 28L68 28L68 27L67 27L67 26L68 26L68 25ZM18 26L18 27L19 27L19 26ZM23 27L23 28L24 28L24 27ZM26 27L26 28L27 28L27 27ZM38 27L38 28L40 28L40 29L38 29L38 31L39 31L39 30L40 30L40 31L43 31L43 32L38 32L38 35L37 35L37 36L38 36L38 37L34 37L34 38L33 38L33 39L35 39L35 38L36 38L36 39L37 39L37 41L36 41L36 40L33 40L33 41L34 41L34 43L33 43L33 45L34 45L34 46L35 46L35 47L36 47L36 44L34 44L34 43L35 43L35 41L36 41L36 43L37 43L37 45L38 45L38 43L40 43L40 44L39 44L39 45L40 45L40 44L41 44L41 43L40 43L40 41L41 41L41 40L44 40L44 42L43 42L43 44L44 44L44 45L43 45L43 46L42 46L42 45L41 45L41 46L42 46L42 48L43 48L43 46L44 46L44 49L43 49L43 50L44 50L44 49L45 49L45 46L47 46L47 45L46 45L46 44L47 44L47 43L46 43L46 42L47 42L47 40L45 40L45 39L41 39L41 37L43 37L43 36L44 36L44 37L45 37L45 38L47 38L47 37L48 37L48 36L47 36L47 34L49 34L49 33L46 33L46 32L48 32L48 31L47 31L47 29L45 29L45 30L44 30L44 29L43 29L43 30L42 30L42 27ZM1 28L1 29L2 29L2 28ZM54 28L54 29L55 29L55 28ZM18 29L18 30L17 30L17 31L18 31L18 30L19 30L19 29ZM48 29L48 30L49 30L49 29ZM43 30L43 31L44 31L44 32L43 32L43 33L40 33L40 36L39 36L39 40L38 40L38 41L37 41L37 43L38 43L38 41L39 41L39 40L41 40L41 39L40 39L40 36L41 36L41 34L43 34L43 33L44 33L44 36L45 36L45 37L47 37L47 36L45 36L45 33L44 33L44 32L46 32L46 31L44 31L44 30ZM27 31L27 32L28 32L28 33L25 33L25 34L24 34L24 33L23 33L23 34L24 34L24 35L26 35L26 37L27 37L27 38L25 38L25 41L24 41L24 42L23 42L23 43L22 43L22 44L21 44L21 45L23 45L23 43L24 43L24 44L25 44L25 41L27 41L27 43L26 43L26 45L25 45L25 47L26 47L26 48L25 48L25 49L26 49L26 50L25 50L25 52L24 52L24 53L25 53L25 52L26 52L26 54L24 54L24 55L23 55L23 56L25 56L25 55L26 55L26 57L25 57L25 58L26 58L26 57L27 57L27 55L28 55L28 56L29 56L29 57L30 57L30 56L29 56L29 55L30 55L30 54L31 54L31 55L32 55L32 53L30 53L30 54L29 54L29 53L28 53L28 52L32 52L32 50L31 50L31 49L30 49L30 51L29 51L29 48L30 48L30 47L29 47L29 44L30 44L30 43L32 43L32 42L30 42L30 41L32 41L32 40L31 40L31 39L32 39L32 37L31 37L31 38L30 38L30 37L29 37L29 36L30 36L30 35L31 35L31 36L32 36L32 35L31 35L31 33L29 33L29 32L30 32L30 31L29 31L29 32L28 32L28 31ZM15 32L15 33L16 33L16 32ZM5 33L5 36L8 36L8 33ZM28 33L28 34L26 34L26 35L28 35L28 36L29 36L29 35L30 35L30 34L29 34L29 33ZM33 33L33 36L36 36L36 33ZM61 33L61 36L64 36L64 33ZM2 34L2 35L3 35L3 38L2 38L2 39L3 39L3 38L5 38L5 37L4 37L4 34ZM6 34L6 35L7 35L7 34ZM34 34L34 35L35 35L35 34ZM62 34L62 35L63 35L63 34ZM65 34L65 35L67 35L67 36L68 36L68 35L67 35L67 34ZM24 36L24 37L25 37L25 36ZM65 36L65 37L64 37L64 38L63 38L63 37L62 37L62 39L67 39L67 38L65 38L65 37L66 37L66 36ZM27 38L27 39L26 39L26 40L27 40L27 41L28 41L28 40L29 40L29 41L30 41L30 40L29 40L29 39L30 39L30 38ZM37 38L37 39L38 39L38 38ZM15 39L15 40L14 40L14 42L16 42L16 41L15 41L15 40L16 40L16 39ZM9 41L9 42L10 42L10 44L13 44L13 42L12 42L12 43L11 43L11 41ZM48 41L48 42L49 42L49 41ZM51 41L51 42L52 42L52 41ZM44 42L44 43L45 43L45 42ZM6 43L6 44L7 44L7 43ZM48 43L48 44L49 44L49 45L50 45L50 46L51 46L51 45L50 45L50 43ZM67 43L67 44L68 44L68 43ZM27 44L27 45L26 45L26 46L27 46L27 48L29 48L29 47L28 47L28 46L27 46L27 45L28 45L28 44ZM0 45L0 46L1 46L1 45ZM8 45L8 47L6 47L6 48L7 48L7 49L8 49L8 50L7 50L7 51L8 51L8 52L7 52L7 53L8 53L8 52L9 52L9 51L8 51L8 50L10 50L10 49L8 49L8 47L9 47L9 48L10 48L10 47L9 47L9 45ZM67 45L67 46L68 46L68 45ZM60 46L60 47L61 47L61 46ZM19 47L19 48L20 48L20 47ZM2 48L2 49L3 49L3 48ZM13 48L13 50L14 50L14 48ZM49 48L49 49L50 49L50 48ZM59 48L59 49L60 49L60 50L61 50L61 49L62 49L62 48L61 48L61 49L60 49L60 48ZM11 49L11 50L12 50L12 49ZM27 49L27 50L28 50L28 49ZM16 50L16 51L17 51L17 50ZM19 50L19 51L20 51L20 50ZM52 50L52 51L53 51L53 50ZM26 51L26 52L28 52L28 51ZM39 51L39 52L40 52L40 51ZM43 51L43 52L44 52L44 53L45 53L45 54L46 54L46 56L48 56L48 55L47 55L47 53L45 53L45 52L44 52L44 51ZM10 52L10 53L11 53L11 52ZM13 52L13 53L14 53L14 52ZM37 52L37 53L38 53L38 52ZM57 52L57 53L58 53L58 52ZM12 54L12 55L13 55L13 54ZM19 54L19 55L18 55L18 56L21 56L21 57L22 57L22 56L21 56L21 55L22 55L22 54L21 54L21 55L20 55L20 54ZM26 54L26 55L27 55L27 54ZM28 54L28 55L29 55L29 54ZM5 56L5 57L6 57L6 56ZM9 57L9 58L10 58L10 57ZM62 57L62 58L61 58L61 59L62 59L62 58L63 58L63 59L64 59L64 58L63 58L63 57ZM18 58L18 59L19 59L19 58ZM45 59L45 60L44 60L44 61L45 61L45 60L46 60L46 59ZM47 59L47 60L49 60L49 59ZM51 59L51 60L52 60L52 61L53 61L53 60L52 60L52 59ZM3 60L3 61L5 61L5 60ZM6 60L6 61L7 61L7 60ZM54 60L54 61L55 61L55 60ZM67 60L67 61L68 61L68 60ZM33 61L33 64L36 64L36 61ZM61 61L61 64L64 64L64 61ZM34 62L34 63L35 63L35 62ZM62 62L62 63L63 63L63 62ZM65 62L65 63L66 63L66 62ZM39 63L39 64L38 64L38 65L39 65L39 64L41 64L41 63ZM48 63L48 64L47 64L47 65L48 65L48 66L50 66L50 65L49 65L49 64L50 64L50 63ZM67 63L67 64L65 64L65 65L67 65L67 64L68 64L68 63ZM14 64L14 65L13 65L13 66L14 66L14 67L16 67L16 66L17 66L17 65L18 65L18 64ZM9 65L9 66L10 66L10 68L11 68L11 65ZM62 65L62 66L61 66L61 67L62 67L62 66L63 66L63 67L65 67L65 66L63 66L63 65ZM0 0L0 7L7 7L7 0ZM1 1L1 6L6 6L6 1ZM2 2L2 5L5 5L5 2ZM62 0L62 7L69 7L69 0ZM63 1L63 6L68 6L68 1ZM64 2L64 5L67 5L67 2ZM0 62L0 69L7 69L7 62ZM1 63L1 68L6 68L6 63ZM2 64L2 67L5 67L5 64Z" fill="#000000"/></g></g></svg>
