<?xml version="1.0" encoding="UTF-8"?>
<svg xmlns="http://www.w3.org/2000/svg" version="1.1" width="300" height="300" viewBox="0 0 300 300"><rect x="0" y="0" width="300" height="300" fill="#ffffff"/><g transform="scale(4.348)"><g transform="translate(0,0)"><path fill-rule="evenodd" d="M10 0L10 1L8 1L8 2L9 2L9 3L8 3L8 4L9 4L9 5L8 5L8 7L9 7L9 5L10 5L10 7L11 7L11 5L12 5L12 4L14 4L14 7L13 7L13 6L12 6L12 7L13 7L13 9L12 9L12 8L11 8L11 10L12 10L12 11L10 11L10 10L9 10L9 9L10 9L10 8L6 8L6 9L8 9L8 10L9 10L9 11L8 11L8 12L9 12L9 13L8 13L8 14L9 14L9 15L7 15L7 14L6 14L6 13L7 13L7 12L5 12L5 13L4 13L4 14L3 14L3 15L2 15L2 16L1 16L1 15L0 15L0 16L1 16L1 18L0 18L0 19L1 19L1 18L2 18L2 16L4 16L4 17L3 17L3 18L5 18L5 20L4 20L4 19L2 19L2 21L0 21L0 22L1 22L1 24L2 24L2 25L3 25L3 24L5 24L5 25L7 25L7 26L6 26L6 27L7 27L7 28L4 28L4 27L3 27L3 26L0 26L0 27L1 27L1 28L2 28L2 27L3 27L3 30L1 30L1 29L0 29L0 30L1 30L1 33L0 33L0 34L1 34L1 36L0 36L0 38L1 38L1 36L2 36L2 32L4 32L4 34L3 34L3 35L4 35L4 38L2 38L2 39L0 39L0 40L1 40L1 41L0 41L0 43L1 43L1 45L0 45L0 48L1 48L1 50L0 50L0 52L1 52L1 55L2 55L2 54L3 54L3 55L4 55L4 56L3 56L3 58L2 58L2 59L3 59L3 58L4 58L4 59L7 59L7 60L6 60L6 61L7 61L7 60L8 60L8 59L7 59L7 58L8 58L8 56L9 56L9 55L10 55L10 57L9 57L9 59L10 59L10 60L11 60L11 59L12 59L12 61L11 61L11 62L10 62L10 61L8 61L8 63L9 63L9 62L10 62L10 63L11 63L11 62L13 62L13 60L14 60L14 62L15 62L15 61L16 61L16 60L17 60L17 61L19 61L19 62L18 62L18 63L17 63L17 62L16 62L16 63L15 63L15 64L14 64L14 63L13 63L13 64L11 64L11 65L10 65L10 66L9 66L9 64L8 64L8 69L9 69L9 67L10 67L10 69L11 69L11 68L13 68L13 69L19 69L19 67L20 67L20 66L19 66L19 65L20 65L20 64L22 64L22 62L25 62L25 63L23 63L23 66L22 66L22 65L21 65L21 68L20 68L20 69L21 69L21 68L22 68L22 67L23 67L23 68L24 68L24 67L25 67L25 69L26 69L26 67L28 67L28 68L27 68L27 69L28 69L28 68L29 68L29 69L32 69L32 68L29 68L29 66L30 66L30 65L32 65L32 66L31 66L31 67L33 67L33 66L34 66L34 68L36 68L36 69L38 69L38 68L37 68L37 67L39 67L39 66L37 66L37 67L36 67L36 66L34 66L34 65L38 65L38 64L41 64L41 66L40 66L40 67L41 67L41 69L42 69L42 68L43 68L43 69L44 69L44 68L47 68L47 69L49 69L49 66L50 66L50 65L51 65L51 64L54 64L54 65L53 65L53 66L55 66L55 65L56 65L56 67L55 67L55 68L54 68L54 69L56 69L56 67L57 67L57 65L58 65L58 64L59 64L59 65L60 65L60 66L58 66L58 67L61 67L61 68L62 68L62 67L63 67L63 69L68 69L68 68L67 68L67 67L66 67L66 66L65 66L65 67L63 67L63 66L64 66L64 65L65 65L65 64L67 64L67 63L68 63L68 65L69 65L69 63L68 63L68 61L67 61L67 59L68 59L68 60L69 60L69 59L68 59L68 57L69 57L69 56L68 56L68 55L63 55L63 56L62 56L62 57L63 57L63 56L65 56L65 57L67 57L67 59L65 59L65 60L60 60L60 61L59 61L59 62L58 62L58 61L57 61L57 62L58 62L58 63L57 63L57 65L56 65L56 63L55 63L55 61L56 61L56 60L55 60L55 59L56 59L56 58L57 58L57 57L58 57L58 56L60 56L60 57L59 57L59 59L60 59L60 57L61 57L61 56L60 56L60 54L61 54L61 55L62 55L62 54L61 54L61 53L64 53L64 52L68 52L68 50L69 50L69 48L68 48L68 49L67 49L67 51L65 51L65 50L63 50L63 49L65 49L65 48L67 48L67 47L68 47L68 45L69 45L69 43L68 43L68 41L67 41L67 42L66 42L66 43L65 43L65 44L64 44L64 43L63 43L63 45L60 45L60 46L59 46L59 48L60 48L60 46L61 46L61 48L62 48L62 50L57 50L57 52L59 52L59 51L62 51L62 52L60 52L60 54L59 54L59 55L56 55L56 56L55 56L55 55L54 55L54 56L55 56L55 57L51 57L51 56L52 56L52 55L53 55L53 54L55 54L55 53L56 53L56 54L57 54L57 53L56 53L56 52L55 52L55 51L56 51L56 48L55 48L55 49L54 49L54 48L53 48L53 50L55 50L55 51L54 51L54 52L55 52L55 53L52 53L52 55L51 55L51 56L50 56L50 57L49 57L49 54L50 54L50 53L51 53L51 50L52 50L52 49L51 49L51 50L50 50L50 49L49 49L49 48L50 48L50 47L52 47L52 46L53 46L53 47L54 47L54 46L55 46L55 47L57 47L57 46L56 46L56 44L57 44L57 45L58 45L58 44L57 44L57 43L60 43L60 42L61 42L61 43L62 43L62 42L63 42L63 40L64 40L64 41L66 41L66 40L69 40L69 39L68 39L68 36L69 36L69 35L68 35L68 34L69 34L69 33L68 33L68 34L67 34L67 33L66 33L66 32L67 32L67 31L68 31L68 32L69 32L69 31L68 31L68 28L69 28L69 27L68 27L68 25L69 25L69 23L68 23L68 22L67 22L67 21L68 21L68 18L69 18L69 17L67 17L67 15L68 15L68 14L69 14L69 13L68 13L68 12L69 12L69 11L68 11L68 10L69 10L69 9L68 9L68 8L67 8L67 9L66 9L66 8L65 8L65 9L64 9L64 8L63 8L63 10L65 10L65 11L64 11L64 12L63 12L63 11L62 11L62 8L61 8L61 9L59 9L59 10L57 10L57 9L56 9L56 8L59 8L59 4L56 4L56 2L54 2L54 1L56 1L56 0L54 0L54 1L53 1L53 0L51 0L51 2L52 2L52 1L53 1L53 4L52 4L52 5L54 5L54 7L53 7L53 6L52 6L52 7L51 7L51 6L50 6L50 4L51 4L51 3L50 3L50 0L49 0L49 3L48 3L48 2L47 2L47 1L48 1L48 0L47 0L47 1L46 1L46 0L44 0L44 1L46 1L46 2L47 2L47 4L48 4L48 5L47 5L47 6L46 6L46 5L44 5L44 3L45 3L45 4L46 4L46 3L45 3L45 2L44 2L44 3L43 3L43 0L41 0L41 1L34 1L34 2L36 2L36 3L32 3L32 4L31 4L31 1L32 1L32 2L33 2L33 1L32 1L32 0L30 0L30 1L29 1L29 0L28 0L28 1L25 1L25 0L23 0L23 1L21 1L21 3L20 3L20 4L19 4L19 3L18 3L18 2L20 2L20 1L19 1L19 0L17 0L17 1L16 1L16 2L15 2L15 1L14 1L14 0ZM58 0L58 1L57 1L57 3L59 3L59 2L58 2L58 1L61 1L61 0ZM11 1L11 2L10 2L10 3L9 3L9 4L10 4L10 3L11 3L11 4L12 4L12 3L13 3L13 2L14 2L14 3L15 3L15 2L14 2L14 1L13 1L13 2L12 2L12 1ZM24 1L24 2L22 2L22 3L21 3L21 4L20 4L20 5L19 5L19 4L18 4L18 3L17 3L17 2L16 2L16 5L15 5L15 7L14 7L14 11L13 11L13 13L11 13L11 14L10 14L10 15L9 15L9 17L6 17L6 16L7 16L7 15L6 15L6 16L5 16L5 15L4 15L4 16L5 16L5 18L9 18L9 17L10 17L10 16L11 16L11 17L12 17L12 16L13 16L13 15L12 15L12 14L14 14L14 13L17 13L17 14L18 14L18 15L16 15L16 14L15 14L15 15L16 15L16 16L14 16L14 17L13 17L13 18L10 18L10 19L9 19L9 22L10 22L10 23L8 23L8 24L7 24L7 23L6 23L6 22L8 22L8 20L7 20L7 19L6 19L6 20L7 20L7 21L6 21L6 22L5 22L5 21L4 21L4 20L3 20L3 21L2 21L2 24L3 24L3 23L4 23L4 22L5 22L5 24L7 24L7 25L8 25L8 29L9 29L9 30L10 30L10 28L9 28L9 27L10 27L10 26L12 26L12 24L13 24L13 23L14 23L14 26L13 26L13 27L14 27L14 26L16 26L16 25L17 25L17 23L18 23L18 24L21 24L21 25L20 25L20 26L18 26L18 28L19 28L19 27L21 27L21 25L22 25L22 26L24 26L24 25L22 25L22 24L21 24L21 23L22 23L22 22L23 22L23 24L26 24L26 25L25 25L25 27L26 27L26 30L27 30L27 32L28 32L28 33L25 33L25 34L23 34L23 31L24 31L24 32L26 32L26 31L25 31L25 30L23 30L23 29L24 29L24 27L22 27L22 28L20 28L20 30L19 30L19 31L20 31L20 33L19 33L19 34L20 34L20 35L18 35L18 34L17 34L17 33L18 33L18 32L15 32L15 33L13 33L13 31L12 31L12 29L13 29L13 30L14 30L14 28L12 28L12 27L11 27L11 28L12 28L12 29L11 29L11 31L12 31L12 32L11 32L11 33L10 33L10 32L9 32L9 35L10 35L10 34L11 34L11 36L12 36L12 34L11 34L11 33L13 33L13 38L12 38L12 37L10 37L10 38L11 38L11 39L13 39L13 42L14 42L14 39L15 39L15 41L16 41L16 42L15 42L15 43L13 43L13 46L12 46L12 45L11 45L11 44L8 44L8 43L10 43L10 42L12 42L12 41L11 41L11 40L10 40L10 41L9 41L9 42L8 42L8 40L7 40L7 39L8 39L8 38L9 38L9 37L6 37L6 38L7 38L7 39L4 39L4 40L3 40L3 39L2 39L2 41L3 41L3 42L1 42L1 43L2 43L2 44L4 44L4 40L5 40L5 41L6 41L6 42L5 42L5 44L7 44L7 45L6 45L6 46L5 46L5 47L4 47L4 48L3 48L3 49L4 49L4 51L2 51L2 50L1 50L1 52L2 52L2 53L3 53L3 54L4 54L4 55L5 55L5 56L4 56L4 58L5 58L5 56L7 56L7 55L8 55L8 54L9 54L9 53L8 53L8 54L7 54L7 53L6 53L6 52L7 52L7 51L8 51L8 52L10 52L10 50L9 50L9 49L8 49L8 48L9 48L9 47L10 47L10 46L8 46L8 47L6 47L6 46L7 46L7 45L11 45L11 49L12 49L12 48L13 48L13 49L14 49L14 51L13 51L13 50L12 50L12 52L11 52L11 53L13 53L13 52L14 52L14 51L15 51L15 52L16 52L16 53L15 53L15 54L16 54L16 55L15 55L15 56L16 56L16 57L15 57L15 58L16 58L16 57L17 57L17 60L18 60L18 59L19 59L19 57L17 57L17 53L18 53L18 54L19 54L19 55L18 55L18 56L19 56L19 55L22 55L22 54L21 54L21 53L25 53L25 54L23 54L23 56L26 56L26 57L25 57L25 60L24 60L24 59L23 59L23 58L24 58L24 57L22 57L22 56L20 56L20 59L22 59L22 60L20 60L20 62L19 62L19 63L20 63L20 62L21 62L21 61L25 61L25 62L27 62L27 64L28 64L28 65L25 65L25 66L28 66L28 65L30 65L30 64L29 64L29 57L30 57L30 56L28 56L28 57L27 57L27 55L30 55L30 54L31 54L31 58L30 58L30 60L31 60L31 63L32 63L32 53L30 53L30 54L29 54L29 53L28 53L28 52L29 52L29 51L31 51L31 52L34 52L34 53L33 53L33 54L34 54L34 55L33 55L33 57L35 57L35 55L36 55L36 52L35 52L35 50L34 50L34 51L32 51L32 50L33 50L33 49L36 49L36 50L37 50L37 49L38 49L38 51L39 51L39 50L41 50L41 51L40 51L40 52L39 52L39 53L41 53L41 51L42 51L42 53L43 53L43 54L42 54L42 55L43 55L43 56L42 56L42 57L43 57L43 59L44 59L44 63L42 63L42 62L41 62L41 60L42 60L42 61L43 61L43 60L42 60L42 58L41 58L41 59L40 59L40 62L39 62L39 59L38 59L38 58L39 58L39 57L41 57L41 56L39 56L39 54L37 54L37 55L38 55L38 58L37 58L37 59L38 59L38 60L37 60L37 61L38 61L38 63L37 63L37 64L38 64L38 63L41 63L41 64L44 64L44 66L41 66L41 67L43 67L43 68L44 68L44 66L45 66L45 67L46 67L46 66L47 66L47 64L49 64L49 65L48 65L48 66L49 66L49 65L50 65L50 63L52 63L52 62L51 62L51 61L55 61L55 60L54 60L54 59L55 59L55 58L56 58L56 57L57 57L57 56L56 56L56 57L55 57L55 58L53 58L53 59L51 59L51 57L50 57L50 59L49 59L49 57L46 57L46 56L48 56L48 54L49 54L49 53L50 53L50 51L49 51L49 50L48 50L48 49L47 49L47 47L49 47L49 46L51 46L51 45L53 45L53 46L54 46L54 45L53 45L53 44L50 44L50 45L49 45L49 46L47 46L47 45L45 45L45 44L47 44L47 43L46 43L46 42L47 42L47 40L48 40L48 39L49 39L49 41L50 41L50 43L51 43L51 42L52 42L52 43L53 43L53 40L54 40L54 39L53 39L53 35L55 35L55 34L53 34L53 33L55 33L55 31L56 31L56 29L57 29L57 31L58 31L58 32L56 32L56 34L58 34L58 35L59 35L59 36L58 36L58 37L57 37L57 35L56 35L56 37L55 37L55 36L54 36L54 37L55 37L55 38L56 38L56 37L57 37L57 39L60 39L60 40L58 40L58 41L57 41L57 40L56 40L56 39L55 39L55 40L56 40L56 42L55 42L55 43L54 43L54 44L56 44L56 43L57 43L57 42L60 42L60 40L62 40L62 39L65 39L65 40L66 40L66 39L67 39L67 38L66 38L66 37L64 37L64 38L62 38L62 37L60 37L60 35L59 35L59 33L60 33L60 32L61 32L61 30L59 30L59 29L58 29L58 27L57 27L57 28L56 28L56 27L55 27L55 26L59 26L59 27L60 27L60 26L59 26L59 25L57 25L57 24L58 24L58 22L59 22L59 24L60 24L60 23L61 23L61 25L62 25L62 26L63 26L63 27L62 27L62 28L63 28L63 29L62 29L62 31L63 31L63 32L64 32L64 30L63 30L63 29L65 29L65 31L67 31L67 28L66 28L66 29L65 29L65 28L63 28L63 27L65 27L65 26L67 26L67 25L68 25L68 23L67 23L67 22L66 22L66 21L67 21L67 20L66 20L66 19L67 19L67 18L66 18L66 16L65 16L65 15L64 15L64 13L65 13L65 14L68 14L68 13L66 13L66 12L64 12L64 13L62 13L62 15L61 15L61 16L62 16L62 18L61 18L61 19L60 19L60 21L62 21L62 22L59 22L59 17L58 17L58 15L59 15L59 14L60 14L60 13L61 13L61 10L59 10L59 11L57 11L57 12L56 12L56 13L57 13L57 14L55 14L55 16L56 16L56 17L55 17L55 19L54 19L54 20L55 20L55 21L56 21L56 22L55 22L55 24L54 24L54 23L53 23L53 20L52 20L52 19L53 19L53 16L54 16L54 15L53 15L53 14L52 14L52 15L51 15L51 16L50 16L50 15L49 15L49 14L47 14L47 13L45 13L45 12L44 12L44 13L43 13L43 11L47 11L47 12L50 12L50 14L51 14L51 13L55 13L55 12L53 12L53 11L55 11L55 10L56 10L56 9L55 9L55 8L56 8L56 6L57 6L57 7L58 7L58 5L55 5L55 7L54 7L54 8L50 8L50 10L47 10L47 7L48 7L48 6L47 6L47 7L46 7L46 6L45 6L45 7L44 7L44 5L41 5L41 4L42 4L42 1L41 1L41 3L39 3L39 2L37 2L37 3L38 3L38 4L37 4L37 5L38 5L38 6L37 6L37 7L38 7L38 6L39 6L39 7L40 7L40 6L39 6L39 5L41 5L41 8L39 8L39 9L38 9L38 8L37 8L37 9L38 9L38 10L36 10L36 9L35 9L35 10L36 10L36 11L33 11L33 9L32 9L32 8L31 8L31 7L32 7L32 5L30 5L30 4L29 4L29 3L30 3L30 2L29 2L29 3L28 3L28 2L25 2L25 1ZM24 2L24 4L21 4L21 5L20 5L20 7L21 7L21 6L22 6L22 7L23 7L23 8L24 8L24 9L23 9L23 10L24 10L24 9L25 9L25 13L21 13L21 15L23 15L23 18L22 18L22 19L21 19L21 17L18 17L18 16L16 16L16 17L18 17L18 19L16 19L16 18L15 18L15 17L14 17L14 18L15 18L15 19L14 19L14 20L15 20L15 22L18 22L18 21L19 21L19 22L20 22L20 23L21 23L21 22L22 22L22 21L21 21L21 22L20 22L20 20L22 20L22 19L23 19L23 18L26 18L26 17L24 17L24 16L26 16L26 15L25 15L25 14L27 14L27 13L28 13L28 12L27 12L27 13L26 13L26 7L27 7L27 8L28 8L28 9L30 9L30 10L29 10L29 13L30 13L30 15L27 15L27 16L29 16L29 17L31 17L31 18L30 18L30 19L29 19L29 20L28 20L28 19L26 19L26 20L24 20L24 21L23 21L23 22L25 22L25 21L26 21L26 20L27 20L27 21L29 21L29 22L26 22L26 24L27 24L27 23L28 23L28 25L29 25L29 26L32 26L32 25L31 25L31 24L32 24L32 23L33 23L33 22L34 22L34 23L35 23L35 24L34 24L34 25L33 25L33 27L30 27L30 28L29 28L29 27L27 27L27 25L26 25L26 27L27 27L27 28L28 28L28 29L29 29L29 31L30 31L30 32L29 32L29 33L28 33L28 34L27 34L27 35L26 35L26 34L25 34L25 35L23 35L23 34L22 34L22 33L21 33L21 34L22 34L22 35L23 35L23 38L24 38L24 39L23 39L23 40L24 40L24 41L23 41L23 42L20 42L20 41L22 41L22 40L21 40L21 39L22 39L22 37L21 37L21 36L18 36L18 35L17 35L17 34L14 34L14 35L15 35L15 36L14 36L14 38L13 38L13 39L14 39L14 38L15 38L15 36L17 36L17 37L18 37L18 38L16 38L16 40L17 40L17 43L18 43L18 44L16 44L16 43L15 43L15 44L14 44L14 46L13 46L13 47L14 47L14 46L15 46L15 47L16 47L16 48L17 48L17 49L18 49L18 50L15 50L15 51L17 51L17 52L18 52L18 53L19 53L19 54L20 54L20 52L22 52L22 51L21 51L21 49L18 49L18 48L17 48L17 47L18 47L18 46L15 46L15 44L16 44L16 45L19 45L19 46L20 46L20 47L21 47L21 48L24 48L24 49L23 49L23 50L25 50L25 51L24 51L24 52L25 52L25 53L26 53L26 52L28 52L28 51L26 51L26 49L25 49L25 48L26 48L26 47L25 47L25 45L26 45L26 46L27 46L27 45L28 45L28 44L29 44L29 45L31 45L31 44L32 44L32 45L33 45L33 44L35 44L35 43L36 43L36 44L37 44L37 45L35 45L35 46L34 46L34 47L35 47L35 48L36 48L36 47L37 47L37 48L38 48L38 47L39 47L39 48L40 48L40 47L41 47L41 48L42 48L42 49L41 49L41 50L42 50L42 51L44 51L44 52L43 52L43 53L44 53L44 56L43 56L43 57L44 57L44 56L46 56L46 54L45 54L45 53L49 53L49 51L48 51L48 50L47 50L47 51L46 51L46 52L45 52L45 49L46 49L46 47L47 47L47 46L45 46L45 45L44 45L44 44L45 44L45 42L44 42L44 40L41 40L41 38L43 38L43 39L45 39L45 40L47 40L47 38L45 38L45 37L47 37L47 36L48 36L48 37L49 37L49 38L50 38L50 40L51 40L51 41L52 41L52 40L53 40L53 39L52 39L52 40L51 40L51 38L52 38L52 37L51 37L51 38L50 38L50 37L49 37L49 36L50 36L50 35L51 35L51 36L52 36L52 35L51 35L51 34L50 34L50 33L51 33L51 32L50 32L50 33L49 33L49 30L50 30L50 29L52 29L52 30L51 30L51 31L52 31L52 32L53 32L53 31L52 31L52 30L54 30L54 31L55 31L55 29L56 29L56 28L55 28L55 27L54 27L54 26L55 26L55 25L56 25L56 24L55 24L55 25L54 25L54 26L53 26L53 27L52 27L52 28L51 28L51 27L50 27L50 29L49 29L49 28L46 28L46 26L43 26L43 25L44 25L44 24L43 24L43 22L44 22L44 23L45 23L45 24L46 24L46 25L47 25L47 27L49 27L49 26L50 26L50 25L49 25L49 24L48 24L48 23L50 23L50 24L53 24L53 23L52 23L52 22L51 22L51 23L50 23L50 21L51 21L51 20L50 20L50 19L51 19L51 18L52 18L52 17L51 17L51 18L49 18L49 17L50 17L50 16L47 16L47 17L48 17L48 18L46 18L46 17L45 17L45 18L44 18L44 19L45 19L45 18L46 18L46 19L47 19L47 20L46 20L46 21L47 21L47 20L48 20L48 23L47 23L47 24L46 24L46 22L44 22L44 20L43 20L43 17L44 17L44 16L46 16L46 15L47 15L47 14L45 14L45 15L44 15L44 14L43 14L43 13L42 13L42 14L41 14L41 12L42 12L42 10L45 10L45 9L46 9L46 7L45 7L45 9L44 9L44 8L43 8L43 9L39 9L39 12L40 12L40 13L39 13L39 14L37 14L37 13L36 13L36 12L33 12L33 14L34 14L34 13L36 13L36 14L35 14L35 15L39 15L39 16L40 16L40 15L42 15L42 14L43 14L43 15L44 15L44 16L42 16L42 17L41 17L41 18L39 18L39 19L37 19L37 18L38 18L38 16L36 16L36 17L34 17L34 18L35 18L35 20L34 20L34 19L33 19L33 20L32 20L32 18L33 18L33 16L34 16L34 15L33 15L33 16L32 16L32 15L31 15L31 13L32 13L32 12L31 12L31 11L32 11L32 9L30 9L30 8L29 8L29 6L30 6L30 7L31 7L31 6L30 6L30 5L27 5L27 4L28 4L28 3L27 3L27 4L25 4L25 2ZM49 3L49 4L50 4L50 3ZM54 3L54 4L55 4L55 3ZM60 3L60 5L61 5L61 3ZM17 4L17 6L16 6L16 8L15 8L15 11L16 11L16 9L19 9L19 11L18 11L18 10L17 10L17 11L18 11L18 12L17 12L17 13L18 13L18 14L20 14L20 12L24 12L24 11L20 11L20 8L19 8L19 5L18 5L18 4ZM22 5L22 6L23 6L23 7L24 7L24 8L25 8L25 7L26 7L26 5L24 5L24 6L23 6L23 5ZM33 5L33 8L36 8L36 5ZM17 6L17 8L18 8L18 6ZM24 6L24 7L25 7L25 6ZM27 6L27 7L28 7L28 6ZM34 6L34 7L35 7L35 6ZM42 6L42 7L43 7L43 6ZM49 6L49 7L50 7L50 6ZM60 6L60 7L61 7L61 6ZM0 8L0 9L1 9L1 12L0 12L0 14L2 14L2 13L3 13L3 12L4 12L4 11L7 11L7 10L4 10L4 9L5 9L5 8ZM21 8L21 9L22 9L22 8ZM52 9L52 10L50 10L50 12L52 12L52 10L55 10L55 9ZM2 10L2 11L4 11L4 10ZM27 10L27 11L28 11L28 10ZM40 10L40 12L41 12L41 10ZM66 10L66 11L67 11L67 12L68 12L68 11L67 11L67 10ZM9 11L9 12L10 12L10 11ZM19 11L19 12L20 12L20 11ZM37 11L37 12L38 12L38 11ZM57 12L57 13L58 13L58 12ZM59 12L59 13L60 13L60 12ZM23 14L23 15L24 15L24 14ZM39 14L39 15L40 15L40 14ZM57 14L57 15L56 15L56 16L57 16L57 15L58 15L58 14ZM11 15L11 16L12 16L12 15ZM19 15L19 16L20 16L20 15ZM30 15L30 16L31 16L31 15ZM52 15L52 16L53 16L53 15ZM62 15L62 16L64 16L64 15ZM27 17L27 18L28 18L28 17ZM36 17L36 18L37 18L37 17ZM63 17L63 18L62 18L62 19L61 19L61 20L62 20L62 19L63 19L63 20L64 20L64 19L63 19L63 18L65 18L65 17ZM19 18L19 19L20 19L20 18ZM56 18L56 19L55 19L55 20L58 20L58 19L57 19L57 18ZM10 19L10 20L12 20L12 19ZM15 19L15 20L16 20L16 21L17 21L17 20L16 20L16 19ZM36 19L36 20L35 20L35 21L34 21L34 20L33 20L33 21L34 21L34 22L35 22L35 21L36 21L36 20L37 20L37 21L38 21L38 20L37 20L37 19ZM39 19L39 21L41 21L41 20L40 20L40 19ZM48 19L48 20L49 20L49 19ZM31 20L31 21L30 21L30 22L29 22L29 23L30 23L30 22L32 22L32 20ZM65 20L65 21L63 21L63 24L62 24L62 25L63 25L63 26L64 26L64 25L63 25L63 24L64 24L64 23L65 23L65 24L67 24L67 23L65 23L65 21L66 21L66 20ZM3 21L3 22L4 22L4 21ZM10 21L10 22L12 22L12 23L10 23L10 25L9 25L9 26L10 26L10 25L11 25L11 24L12 24L12 23L13 23L13 21ZM37 22L37 24L38 24L38 25L37 25L37 26L41 26L41 25L42 25L42 24L41 24L41 22L40 22L40 23L39 23L39 22ZM56 22L56 23L57 23L57 22ZM15 23L15 25L16 25L16 23ZM29 24L29 25L30 25L30 24ZM47 24L47 25L48 25L48 24ZM35 26L35 27L33 27L33 28L34 28L34 29L33 29L33 30L31 30L31 31L32 31L32 32L31 32L31 33L29 33L29 34L32 34L32 32L34 32L34 31L33 31L33 30L34 30L34 29L36 29L36 30L35 30L35 31L36 31L36 30L37 30L37 31L38 31L38 30L40 30L40 31L43 31L43 32L39 32L39 33L38 33L38 32L37 32L37 33L38 33L38 35L37 35L37 36L38 36L38 37L34 37L34 38L30 38L30 39L29 39L29 36L28 36L28 35L27 35L27 36L26 36L26 35L25 35L25 36L26 36L26 38L25 38L25 39L24 39L24 40L26 40L26 41L24 41L24 42L23 42L23 43L24 43L24 44L21 44L21 43L20 43L20 42L19 42L19 43L20 43L20 44L19 44L19 45L20 45L20 46L21 46L21 47L23 47L23 46L21 46L21 45L24 45L24 44L26 44L26 45L27 45L27 44L26 44L26 41L27 41L27 43L28 43L28 42L29 42L29 44L31 44L31 43L33 43L33 42L34 42L34 41L36 41L36 40L35 40L35 39L37 39L37 40L38 40L38 42L36 42L36 43L38 43L38 42L39 42L39 43L40 43L40 44L39 44L39 45L37 45L37 46L39 46L39 47L40 47L40 46L39 46L39 45L40 45L40 44L41 44L41 43L40 43L40 41L41 41L41 40L39 40L39 37L40 37L40 38L41 38L41 35L43 35L43 36L44 36L44 37L45 37L45 36L47 36L47 35L48 35L48 36L49 36L49 35L50 35L50 34L49 34L49 35L48 35L48 33L46 33L46 32L47 32L47 29L46 29L46 28L44 28L44 27L43 27L43 28L44 28L44 29L43 29L43 30L42 30L42 27L37 27L37 28L40 28L40 29L38 29L38 30L37 30L37 29L36 29L36 28L35 28L35 27L36 27L36 26ZM15 27L15 28L16 28L16 29L15 29L15 30L17 30L17 31L18 31L18 30L17 30L17 28L16 28L16 27ZM53 27L53 28L52 28L52 29L53 29L53 28L54 28L54 27ZM31 28L31 29L32 29L32 28ZM4 29L4 30L3 30L3 31L4 31L4 32L8 32L8 31L4 31L4 30L7 30L7 29ZM44 29L44 30L43 30L43 31L44 31L44 32L43 32L43 33L40 33L40 35L39 35L39 36L40 36L40 35L41 35L41 34L43 34L43 33L44 33L44 36L45 36L45 33L44 33L44 32L46 32L46 30L45 30L45 29ZM48 29L48 30L49 30L49 29ZM21 30L21 32L22 32L22 31L23 31L23 30ZM58 32L58 33L59 33L59 32ZM5 33L5 36L8 36L8 33ZM33 33L33 36L36 36L36 33ZM61 33L61 36L64 36L64 33ZM65 33L65 35L66 35L66 33ZM6 34L6 35L7 35L7 34ZM34 34L34 35L35 35L35 34ZM62 34L62 35L63 35L63 34ZM30 35L30 36L31 36L31 37L32 37L32 35ZM67 35L67 36L68 36L68 35ZM27 36L27 37L28 37L28 36ZM19 37L19 38L20 38L20 39L17 39L17 40L19 40L19 41L20 41L20 39L21 39L21 37ZM59 37L59 38L60 38L60 39L62 39L62 38L60 38L60 37ZM26 38L26 40L28 40L28 41L30 41L30 42L33 42L33 41L34 41L34 40L33 40L33 39L32 39L32 40L33 40L33 41L30 41L30 40L29 40L29 39L28 39L28 38ZM37 38L37 39L38 39L38 38ZM65 38L65 39L66 39L66 38ZM6 40L6 41L7 41L7 40ZM61 41L61 42L62 42L62 41ZM6 42L6 43L8 43L8 42ZM43 42L43 44L44 44L44 42ZM48 43L48 44L49 44L49 43ZM67 43L67 45L68 45L68 43ZM1 45L1 46L2 46L2 47L1 47L1 48L2 48L2 47L3 47L3 46L2 46L2 45ZM41 45L41 46L42 46L42 48L43 48L43 46L44 46L44 49L43 49L43 50L44 50L44 49L45 49L45 46L44 46L44 45L43 45L43 46L42 46L42 45ZM63 45L63 46L62 46L62 48L63 48L63 47L64 47L64 48L65 48L65 47L66 47L66 45ZM28 46L28 47L29 47L29 48L30 48L30 49L29 49L29 50L30 50L30 49L31 49L31 50L32 50L32 49L33 49L33 48L32 48L32 49L31 49L31 48L30 48L30 47L29 47L29 46ZM32 46L32 47L33 47L33 46ZM35 46L35 47L36 47L36 46ZM64 46L64 47L65 47L65 46ZM24 47L24 48L25 48L25 47ZM4 48L4 49L5 49L5 51L4 51L4 54L5 54L5 51L7 51L7 50L8 50L8 49L7 49L7 48L6 48L6 49L5 49L5 48ZM14 48L14 49L15 49L15 48ZM57 48L57 49L58 49L58 48ZM6 49L6 50L7 50L7 49ZM27 49L27 50L28 50L28 49ZM18 50L18 51L20 51L20 50ZM62 50L62 51L63 51L63 50ZM37 52L37 53L38 53L38 52ZM44 52L44 53L45 53L45 52ZM66 53L66 54L69 54L69 53ZM6 54L6 55L7 55L7 54ZM26 54L26 55L27 55L27 54ZM40 54L40 55L41 55L41 54ZM13 55L13 56L11 56L11 57L10 57L10 59L11 59L11 57L12 57L12 59L14 59L14 58L13 58L13 57L14 57L14 55ZM36 56L36 57L37 57L37 56ZM6 57L6 58L7 58L7 57ZM21 57L21 58L22 58L22 57ZM0 58L0 61L1 61L1 58ZM26 58L26 60L25 60L25 61L26 61L26 60L27 60L27 61L28 61L28 59L27 59L27 58ZM34 58L34 59L36 59L36 58ZM45 58L45 59L46 59L46 58ZM47 58L47 59L48 59L48 58ZM61 58L61 59L62 59L62 58ZM63 58L63 59L64 59L64 58ZM15 59L15 60L16 60L16 59ZM57 59L57 60L58 60L58 59ZM3 60L3 61L5 61L5 60ZM45 60L45 61L46 61L46 60ZM47 60L47 62L50 62L50 61L51 61L51 60ZM65 60L65 61L66 61L66 60ZM33 61L33 64L36 64L36 61ZM61 61L61 64L64 64L64 61ZM34 62L34 63L35 63L35 62ZM53 62L53 63L54 63L54 62ZM59 62L59 64L60 64L60 62ZM62 62L62 63L63 63L63 62ZM65 62L65 63L66 63L66 62ZM25 63L25 64L26 64L26 63ZM44 63L44 64L45 64L45 66L46 66L46 64L45 64L45 63ZM15 64L15 67L16 67L16 68L18 68L18 66L17 66L17 65L18 65L18 64ZM12 65L12 66L13 66L13 68L14 68L14 66L13 66L13 65ZM62 65L62 66L63 66L63 65ZM51 66L51 68L50 68L50 69L51 69L51 68L52 68L52 66ZM58 68L58 69L59 69L59 68ZM0 0L0 7L7 7L7 0ZM1 1L1 6L6 6L6 1ZM2 2L2 5L5 5L5 2ZM62 0L62 7L69 7L69 0ZM63 1L63 6L68 6L68 1ZM64 2L64 5L67 5L67 2ZM0 62L0 69L7 69L7 62ZM1 63L1 68L6 68L6 63ZM2 64L2 67L5 67L5 64Z" fill="#000000"/></g></g></svg>
