<?xml version="1.0" encoding="UTF-8"?>
<svg xmlns="http://www.w3.org/2000/svg" version="1.1" width="300" height="300" viewBox="0 0 300 300"><rect x="0" y="0" width="300" height="300" fill="#ffffff"/><g transform="scale(4.348)"><g transform="translate(0,0)"><path fill-rule="evenodd" d="M8 0L8 4L9 4L9 5L8 5L8 7L9 7L9 8L11 8L11 9L10 9L10 11L8 11L8 10L9 10L9 9L8 9L8 10L6 10L6 9L7 9L7 8L4 8L4 9L5 9L5 11L4 11L4 10L2 10L2 8L0 8L0 9L1 9L1 10L0 10L0 11L1 11L1 12L0 12L0 13L1 13L1 12L2 12L2 11L3 11L3 12L4 12L4 13L3 13L3 17L2 17L2 18L1 18L1 16L0 16L0 19L1 19L1 20L0 20L0 21L2 21L2 24L1 24L1 22L0 22L0 24L1 24L1 25L0 25L0 26L1 26L1 27L0 27L0 29L1 29L1 28L2 28L2 27L4 27L4 28L3 28L3 29L4 29L4 30L2 30L2 31L1 31L1 30L0 30L0 32L1 32L1 33L0 33L0 35L1 35L1 36L2 36L2 37L1 37L1 39L0 39L0 48L1 48L1 49L2 49L2 50L1 50L1 52L0 52L0 53L1 53L1 54L0 54L0 56L2 56L2 57L1 57L1 58L0 58L0 61L1 61L1 58L2 58L2 59L3 59L3 58L2 58L2 57L3 57L3 56L4 56L4 59L7 59L7 60L6 60L6 61L8 61L8 62L9 62L9 63L8 63L8 65L10 65L10 66L9 66L9 67L8 67L8 69L9 69L9 67L10 67L10 69L11 69L11 67L12 67L12 68L13 68L13 69L14 69L14 68L15 68L15 69L17 69L17 67L12 67L12 66L15 66L15 65L17 65L17 66L19 66L19 67L20 67L20 66L21 66L21 67L22 67L22 68L21 68L21 69L22 69L22 68L23 68L23 66L26 66L26 67L24 67L24 68L26 68L26 69L29 69L29 67L28 67L28 64L30 64L30 65L29 65L29 66L30 66L30 67L31 67L31 66L30 66L30 65L32 65L32 67L33 67L33 66L34 66L34 65L36 65L36 66L35 66L35 67L34 67L34 68L35 68L35 69L40 69L40 68L41 68L41 69L42 69L42 67L43 67L43 68L44 68L44 69L46 69L46 68L44 68L44 67L46 67L46 65L45 65L45 64L46 64L46 63L47 63L47 65L49 65L49 64L50 64L50 62L51 62L51 65L50 65L50 66L48 66L48 67L49 67L49 68L47 68L47 69L50 69L50 66L51 66L51 69L52 69L52 68L53 68L53 69L55 69L55 68L56 68L56 69L60 69L60 67L58 67L58 68L56 68L56 67L57 67L57 66L58 66L58 65L60 65L60 66L61 66L61 65L63 65L63 66L62 66L62 67L61 67L61 68L62 68L62 69L67 69L67 68L64 68L64 67L67 67L67 66L69 66L69 65L67 65L67 66L66 66L66 65L65 65L65 63L66 63L66 62L67 62L67 64L68 64L68 62L69 62L69 60L68 60L68 55L67 55L67 56L66 56L66 57L65 57L65 58L64 58L64 57L63 57L63 58L64 58L64 59L67 59L67 61L65 61L65 60L62 60L62 56L64 56L64 55L65 55L65 54L67 54L67 53L69 53L69 52L68 52L68 51L69 51L69 48L68 48L68 46L69 46L69 44L68 44L68 42L69 42L69 39L68 39L68 38L69 38L69 36L68 36L68 37L67 37L67 36L66 36L66 37L65 37L65 35L66 35L66 34L67 34L67 35L68 35L68 33L66 33L66 32L63 32L63 31L67 31L67 32L68 32L68 31L67 31L67 30L65 30L65 29L66 29L66 27L65 27L65 26L66 26L66 25L67 25L67 24L65 24L65 25L64 25L64 24L63 24L63 25L62 25L62 23L64 23L64 22L65 22L65 23L68 23L68 24L69 24L69 23L68 23L68 22L69 22L69 20L68 20L68 18L67 18L67 17L69 17L69 15L68 15L68 14L69 14L69 11L67 11L67 9L69 9L69 8L65 8L65 9L64 9L64 8L63 8L63 9L62 9L62 10L61 10L61 9L59 9L59 10L58 10L58 8L57 8L57 5L58 5L58 7L59 7L59 4L56 4L56 3L59 3L59 2L56 2L56 3L55 3L55 1L56 1L56 0L52 0L52 2L50 2L50 1L51 1L51 0L50 0L50 1L49 1L49 0L47 0L47 1L44 1L44 0L41 0L41 1L42 1L42 2L41 2L41 3L40 3L40 2L38 2L38 5L37 5L37 4L36 4L36 3L37 3L37 1L40 1L40 0L37 0L37 1L35 1L35 0L31 0L31 1L30 1L30 0L29 0L29 1L30 1L30 3L31 3L31 4L30 4L30 5L29 5L29 6L28 6L28 4L29 4L29 2L28 2L28 3L27 3L27 5L26 5L26 0L23 0L23 1L22 1L22 0L17 0L17 1L18 1L18 2L15 2L15 1L16 1L16 0L15 0L15 1L14 1L14 2L12 2L12 3L11 3L11 2L10 2L10 3L9 3L9 1L10 1L10 0ZM11 0L11 1L12 1L12 0ZM58 0L58 1L61 1L61 0ZM19 1L19 3L17 3L17 4L16 4L16 5L15 5L15 3L12 3L12 4L11 4L11 3L10 3L10 4L11 4L11 7L12 7L12 5L13 5L13 7L14 7L14 5L15 5L15 8L13 8L13 9L16 9L16 8L17 8L17 7L18 7L18 8L19 8L19 10L20 10L20 12L19 12L19 11L18 11L18 12L19 12L19 13L21 13L21 15L20 15L20 14L19 14L19 15L20 15L20 16L21 16L21 17L19 17L19 16L18 16L18 17L17 17L17 19L16 19L16 20L15 20L15 19L13 19L13 17L12 17L12 16L11 16L11 15L10 15L10 14L8 14L8 15L10 15L10 16L8 16L8 18L7 18L7 17L6 17L6 16L7 16L7 15L5 15L5 13L6 13L6 14L7 14L7 13L6 13L6 12L7 12L7 11L6 11L6 12L5 12L5 13L4 13L4 15L5 15L5 16L4 16L4 18L5 18L5 19L6 19L6 20L7 20L7 19L8 19L8 22L10 22L10 24L9 24L9 27L8 27L8 29L6 29L6 28L7 28L7 27L6 27L6 26L8 26L8 24L7 24L7 23L6 23L6 22L7 22L7 21L5 21L5 20L4 20L4 19L3 19L3 18L2 18L2 20L3 20L3 21L4 21L4 22L3 22L3 24L2 24L2 25L1 25L1 26L4 26L4 27L6 27L6 28L4 28L4 29L5 29L5 30L4 30L4 32L5 32L5 31L6 31L6 32L7 32L7 31L6 31L6 30L8 30L8 29L9 29L9 27L10 27L10 28L11 28L11 27L13 27L13 26L14 26L14 25L17 25L17 26L16 26L16 27L15 27L15 29L16 29L16 34L17 34L17 35L16 35L16 36L14 36L14 35L15 35L15 33L13 33L13 30L12 30L12 31L8 31L8 32L10 32L10 33L9 33L9 35L10 35L10 34L11 34L11 32L12 32L12 34L13 34L13 36L14 36L14 37L16 37L16 38L11 38L11 37L12 37L12 35L11 35L11 37L10 37L10 38L9 38L9 37L8 37L8 38L9 38L9 40L8 40L8 39L6 39L6 38L7 38L7 37L4 37L4 39L6 39L6 40L8 40L8 41L10 41L10 38L11 38L11 39L14 39L14 40L13 40L13 41L12 41L12 40L11 40L11 41L12 41L12 46L11 46L11 47L12 47L12 48L13 48L13 49L12 49L12 50L14 50L14 51L13 51L13 52L12 52L12 53L13 53L13 54L12 54L12 55L11 55L11 54L10 54L10 53L11 53L11 52L9 52L9 49L10 49L10 51L11 51L11 48L9 48L9 46L10 46L10 45L11 45L11 44L10 44L10 45L9 45L9 44L8 44L8 43L9 43L9 42L8 42L8 43L6 43L6 42L7 42L7 41L5 41L5 40L4 40L4 41L5 41L5 44L8 44L8 45L4 45L4 44L3 44L3 46L2 46L2 47L1 47L1 48L2 48L2 49L3 49L3 48L4 48L4 46L5 46L5 50L8 50L8 53L9 53L9 54L7 54L7 53L5 53L5 54L2 54L2 55L4 55L4 56L7 56L7 55L8 55L8 57L9 57L9 58L10 58L10 57L11 57L11 58L12 58L12 59L8 59L8 58L7 58L7 57L6 57L6 58L7 58L7 59L8 59L8 61L9 61L9 60L10 60L10 62L11 62L11 63L9 63L9 64L10 64L10 65L11 65L11 66L10 66L10 67L11 67L11 66L12 66L12 65L11 65L11 64L13 64L13 63L15 63L15 64L14 64L14 65L15 65L15 64L16 64L16 63L15 63L15 62L14 62L14 61L12 61L12 62L11 62L11 60L13 60L13 56L14 56L14 57L17 57L17 58L16 58L16 59L15 59L15 61L16 61L16 62L17 62L17 61L18 61L18 63L17 63L17 65L18 65L18 64L19 64L19 65L20 65L20 61L18 61L18 60L19 60L19 59L21 59L21 60L22 60L22 61L21 61L21 62L22 62L22 61L23 61L23 63L22 63L22 65L21 65L21 66L23 66L23 64L24 64L24 63L25 63L25 65L27 65L27 64L28 64L28 62L30 62L30 64L31 64L31 63L32 63L32 61L29 61L29 60L30 60L30 59L29 59L29 58L31 58L31 59L32 59L32 60L33 60L33 59L32 59L32 58L33 58L33 57L29 57L29 56L31 56L31 55L33 55L33 56L34 56L34 59L35 59L35 60L40 60L40 61L44 61L44 60L45 60L45 61L46 61L46 62L50 62L50 57L51 57L51 62L52 62L52 61L55 61L55 62L53 62L53 64L52 64L52 65L53 65L53 64L54 64L54 65L55 65L55 63L56 63L56 60L58 60L58 62L57 62L57 65L58 65L58 63L60 63L60 59L61 59L61 57L60 57L60 56L58 56L58 58L59 58L59 57L60 57L60 59L59 59L59 60L58 60L58 59L57 59L57 58L53 58L53 57L56 57L56 56L57 56L57 55L58 55L58 54L59 54L59 53L60 53L60 55L61 55L61 54L62 54L62 55L64 55L64 54L65 54L65 53L67 53L67 51L68 51L68 48L67 48L67 46L66 46L66 44L67 44L67 42L66 42L66 43L64 43L64 42L65 42L65 41L64 41L64 42L63 42L63 41L60 41L60 40L58 40L58 38L59 38L59 37L60 37L60 36L59 36L59 37L58 37L58 35L60 35L60 34L59 34L59 32L61 32L61 30L62 30L62 31L63 31L63 30L64 30L64 29L65 29L65 27L64 27L64 29L63 29L63 30L62 30L62 29L61 29L61 30L60 30L60 31L59 31L59 32L58 32L58 31L57 31L57 29L56 29L56 28L58 28L58 30L59 30L59 25L60 25L60 24L61 24L61 23L62 23L62 21L61 21L61 23L59 23L59 21L60 21L60 20L63 20L63 19L64 19L64 17L65 17L65 19L66 19L66 21L65 21L65 20L64 20L64 21L63 21L63 22L64 22L64 21L65 21L65 22L66 22L66 21L68 21L68 20L67 20L67 18L66 18L66 16L68 16L68 15L67 15L67 14L68 14L68 12L67 12L67 11L66 11L66 10L64 10L64 9L63 9L63 10L62 10L62 11L63 11L63 12L60 12L60 13L61 13L61 14L59 14L59 11L58 11L58 12L57 12L57 13L56 13L56 11L57 11L57 10L53 10L53 12L52 12L52 14L51 14L51 15L50 15L50 16L49 16L49 14L50 14L50 12L49 12L49 11L50 11L50 9L51 9L51 7L52 7L52 6L53 6L53 7L54 7L54 5L53 5L53 4L54 4L54 3L53 3L53 4L52 4L52 3L51 3L51 7L50 7L50 2L49 2L49 3L48 3L48 2L46 2L46 3L45 3L45 2L42 2L42 3L41 3L41 4L42 4L42 3L44 3L44 4L43 4L43 7L42 7L42 5L40 5L40 6L39 6L39 7L38 7L38 6L37 6L37 7L38 7L38 8L37 8L37 10L36 10L36 9L34 9L34 10L35 10L35 11L36 11L36 14L35 14L35 12L34 12L34 11L33 11L33 9L29 9L29 8L30 8L30 6L31 6L31 7L32 7L32 6L31 6L31 5L32 5L32 4L33 4L33 3L34 3L34 2L35 2L35 3L36 3L36 2L35 2L35 1L33 1L33 2L32 2L32 4L31 4L31 5L30 5L30 6L29 6L29 7L28 7L28 6L27 6L27 7L26 7L26 5L25 5L25 7L24 7L24 6L23 6L23 5L20 5L20 3L22 3L22 2L20 2L20 1ZM24 1L24 2L23 2L23 3L24 3L24 4L25 4L25 1ZM39 3L39 4L40 4L40 3ZM46 3L46 4L45 4L45 5L46 5L46 7L45 7L45 6L44 6L44 7L43 7L43 8L44 8L44 9L45 9L45 10L46 10L46 12L45 12L45 11L43 11L43 9L40 9L40 8L41 8L41 6L40 6L40 7L39 7L39 9L38 9L38 10L37 10L37 11L41 11L41 10L42 10L42 11L43 11L43 12L44 12L44 13L42 13L42 12L41 12L41 13L40 13L40 12L39 12L39 13L37 13L37 17L38 17L38 18L37 18L37 19L38 19L38 20L35 20L35 19L34 19L34 18L35 18L35 17L33 17L33 16L32 16L32 13L33 13L33 12L32 12L32 11L31 11L31 10L29 10L29 11L28 11L28 9L27 9L27 8L28 8L28 7L27 7L27 8L26 8L26 7L25 7L25 8L24 8L24 9L23 9L23 10L22 10L22 9L21 9L21 8L20 8L20 7L21 7L21 6L20 6L20 5L17 5L17 6L16 6L16 7L17 7L17 6L18 6L18 7L19 7L19 8L20 8L20 10L22 10L22 11L24 11L24 13L23 13L23 14L22 14L22 15L21 15L21 16L22 16L22 15L24 15L24 14L25 14L25 16L24 16L24 17L21 17L21 18L20 18L20 19L19 19L19 17L18 17L18 19L17 19L17 20L16 20L16 23L14 23L14 24L13 24L13 25L12 25L12 26L13 26L13 25L14 25L14 24L16 24L16 23L17 23L17 25L18 25L18 27L19 27L19 28L17 28L17 29L18 29L18 30L17 30L17 31L18 31L18 30L19 30L19 32L18 32L18 33L17 33L17 34L19 34L19 35L20 35L20 34L21 34L21 35L22 35L22 36L21 36L21 37L20 37L20 36L18 36L18 35L17 35L17 37L20 37L20 39L19 39L19 38L18 38L18 39L19 39L19 40L17 40L17 38L16 38L16 40L14 40L14 41L13 41L13 43L14 43L14 41L16 41L16 40L17 40L17 42L16 42L16 43L15 43L15 44L13 44L13 46L12 46L12 47L13 47L13 48L15 48L15 46L16 46L16 47L17 47L17 48L16 48L16 49L14 49L14 50L15 50L15 51L14 51L14 52L13 52L13 53L14 53L14 56L16 56L16 55L19 55L19 53L20 53L20 54L22 54L22 50L23 50L23 51L25 51L25 52L23 52L23 54L24 54L24 55L23 55L23 56L22 56L22 55L20 55L20 56L21 56L21 57L19 57L19 56L17 56L17 57L19 57L19 58L18 58L18 59L19 59L19 58L21 58L21 59L23 59L23 61L24 61L24 62L25 62L25 63L26 63L26 64L27 64L27 62L28 62L28 61L27 61L27 59L28 59L28 60L29 60L29 59L28 59L28 56L29 56L29 55L31 55L31 54L28 54L28 53L31 53L31 52L32 52L32 53L33 53L33 54L34 54L34 56L35 56L35 54L37 54L37 55L38 55L38 58L37 58L37 57L36 57L36 58L37 58L37 59L38 59L38 58L39 58L39 59L40 59L40 60L41 60L41 59L42 59L42 60L44 60L44 58L45 58L45 59L46 59L46 60L47 60L47 61L49 61L49 60L47 60L47 59L49 59L49 58L46 58L46 57L47 57L47 55L48 55L48 57L50 57L50 56L49 56L49 55L50 55L50 54L52 54L52 52L51 52L51 53L50 53L50 54L49 54L49 52L50 52L50 51L51 51L51 49L52 49L52 50L55 50L55 47L57 47L57 46L58 46L58 47L59 47L59 48L61 48L61 51L59 51L59 50L60 50L60 49L59 49L59 50L58 50L58 49L57 49L57 48L56 48L56 50L58 50L58 51L57 51L57 52L56 52L56 51L53 51L53 52L56 52L56 53L53 53L53 55L51 55L51 57L52 57L52 56L54 56L54 55L55 55L55 56L56 56L56 53L57 53L57 54L58 54L58 52L60 52L60 53L63 53L63 54L64 54L64 53L63 53L63 51L62 51L62 48L61 48L61 47L62 47L62 45L63 45L63 47L64 47L64 48L63 48L63 49L65 49L65 47L66 47L66 46L64 46L64 43L62 43L62 42L60 42L60 41L59 41L59 43L58 43L58 41L57 41L57 39L56 39L56 38L55 38L55 37L52 37L52 35L48 35L48 37L50 37L50 38L49 38L49 40L48 40L48 39L47 39L47 43L46 43L46 45L45 45L45 43L43 43L43 45L42 45L42 43L41 43L41 46L40 46L40 44L38 44L38 45L37 45L37 46L35 46L35 45L34 45L34 44L33 44L33 42L34 42L34 43L35 43L35 44L36 44L36 43L38 43L38 42L43 42L43 41L42 41L42 40L44 40L44 41L45 41L45 42L46 42L46 39L45 39L45 38L44 38L44 37L47 37L47 34L49 34L49 33L50 33L50 34L51 34L51 33L52 33L52 31L51 31L51 30L52 30L52 28L53 28L53 32L54 32L54 33L53 33L53 36L56 36L56 37L57 37L57 38L58 38L58 37L57 37L57 36L56 36L56 35L58 35L58 32L57 32L57 31L56 31L56 30L55 30L55 27L58 27L58 25L59 25L59 23L58 23L58 25L57 25L57 23L56 23L56 21L57 21L57 22L58 22L58 21L59 21L59 20L60 20L60 18L61 18L61 15L59 15L59 14L58 14L58 13L57 13L57 14L56 14L56 13L55 13L55 11L54 11L54 13L53 13L53 14L52 14L52 16L50 16L50 18L51 18L51 17L52 17L52 16L53 16L53 19L54 19L54 20L55 20L55 19L56 19L56 18L57 18L57 20L56 20L56 21L51 21L51 20L50 20L50 19L48 19L48 18L49 18L49 16L47 16L47 15L48 15L48 14L49 14L49 12L47 12L47 11L49 11L49 8L50 8L50 7L49 7L49 5L48 5L48 4L47 4L47 3ZM60 3L60 5L61 5L61 3ZM13 4L13 5L14 5L14 4ZM46 4L46 5L47 5L47 4ZM33 5L33 8L36 8L36 5ZM55 5L55 9L56 9L56 5ZM9 6L9 7L10 7L10 6ZM19 6L19 7L20 7L20 6ZM22 6L22 8L23 8L23 6ZM34 6L34 7L35 7L35 6ZM47 6L47 8L45 8L45 7L44 7L44 8L45 8L45 9L46 9L46 10L47 10L47 8L49 8L49 7L48 7L48 6ZM60 6L60 7L61 7L61 6ZM25 8L25 9L24 9L24 10L25 10L25 11L26 11L26 12L28 12L28 16L27 16L27 13L25 13L25 14L26 14L26 16L27 16L27 17L25 17L25 19L24 19L24 20L22 20L22 18L21 18L21 20L22 20L22 22L21 22L21 23L22 23L22 24L25 24L25 25L26 25L26 24L27 24L27 23L28 23L28 26L26 26L26 27L25 27L25 26L24 26L24 25L21 25L21 24L20 24L20 20L19 20L19 19L18 19L18 20L19 20L19 22L18 22L18 21L17 21L17 23L19 23L19 25L21 25L21 26L20 26L20 27L22 27L22 29L24 29L24 28L25 28L25 29L26 29L26 27L27 27L27 28L28 28L28 27L29 27L29 26L30 26L30 27L32 27L32 28L31 28L31 29L30 29L30 30L31 30L31 29L33 29L33 30L32 30L32 32L33 32L33 30L34 30L34 31L35 31L35 32L37 32L37 35L40 35L40 37L39 37L39 38L38 38L38 36L37 36L37 37L36 37L36 38L35 38L35 39L32 39L32 38L33 38L33 37L32 37L32 38L31 38L31 39L28 39L28 40L27 40L27 37L25 37L25 36L26 36L26 35L27 35L27 36L28 36L28 38L30 38L30 37L29 37L29 36L30 36L30 35L32 35L32 33L31 33L31 34L30 34L30 35L29 35L29 36L28 36L28 34L29 34L29 33L27 33L27 34L26 34L26 35L25 35L25 34L24 34L24 35L23 35L23 34L22 34L22 33L23 33L23 32L24 32L24 31L22 31L22 33L21 33L21 34L22 34L22 35L23 35L23 36L22 36L22 37L23 37L23 40L22 40L22 39L21 39L21 41L22 41L22 42L23 42L23 41L24 41L24 42L25 42L25 43L26 43L26 44L25 44L25 45L26 45L26 47L25 47L25 46L24 46L24 47L22 47L22 45L24 45L24 43L22 43L22 45L21 45L21 47L20 47L20 45L19 45L19 48L18 48L18 49L16 49L16 50L18 50L18 51L17 51L17 52L19 52L19 51L20 51L20 50L21 50L21 49L19 49L19 48L22 48L22 49L23 49L23 48L27 48L27 50L26 50L26 52L25 52L25 54L26 54L26 55L25 55L25 57L26 57L26 56L27 56L27 55L28 55L28 54L26 54L26 52L27 52L27 53L28 53L28 52L27 52L27 51L28 51L28 50L29 50L29 49L28 49L28 48L29 48L29 47L28 47L28 48L27 48L27 45L26 45L26 44L27 44L27 43L26 43L26 42L27 42L27 41L28 41L28 46L31 46L31 47L30 47L30 48L31 48L31 47L32 47L32 46L33 46L33 47L34 47L34 49L33 49L33 48L32 48L32 49L30 49L30 50L31 50L31 51L29 51L29 52L31 52L31 51L32 51L32 52L33 52L33 50L35 50L35 48L36 48L36 49L37 49L37 50L36 50L36 51L35 51L35 52L34 52L34 54L35 54L35 53L37 53L37 54L38 54L38 55L40 55L40 57L39 57L39 58L40 58L40 59L41 59L41 58L40 58L40 57L41 57L41 56L42 56L42 57L43 57L43 55L42 55L42 53L41 53L41 52L42 52L42 51L43 51L43 50L42 50L42 51L39 51L39 52L38 52L38 53L37 53L37 50L38 50L38 48L39 48L39 47L40 47L40 46L39 46L39 47L38 47L38 48L37 48L37 47L34 47L34 46L33 46L33 45L32 45L32 42L33 42L33 41L35 41L35 39L36 39L36 41L37 41L37 42L38 42L38 41L39 41L39 40L38 40L38 41L37 41L37 39L39 39L39 38L40 38L40 41L41 41L41 40L42 40L42 39L44 39L44 40L45 40L45 39L44 39L44 38L42 38L42 39L41 39L41 38L40 38L40 37L42 37L42 36L41 36L41 34L38 34L38 33L39 33L39 30L40 30L40 31L41 31L41 32L40 32L40 33L44 33L44 34L43 34L43 37L44 37L44 34L45 34L45 36L46 36L46 34L47 34L47 33L46 33L46 31L45 31L45 29L46 29L46 30L47 30L47 29L48 29L48 30L49 30L49 32L50 32L50 29L51 29L51 28L52 28L52 26L51 26L51 28L50 28L50 25L49 25L49 26L47 26L47 25L48 25L48 23L51 23L51 24L52 24L52 25L53 25L53 24L55 24L55 26L54 26L54 27L55 27L55 26L56 26L56 24L55 24L55 23L54 23L54 22L53 22L53 24L52 24L52 22L50 22L50 20L49 20L49 22L48 22L48 21L46 21L46 20L48 20L48 19L47 19L47 16L46 16L46 15L45 15L45 13L44 13L44 15L43 15L43 14L42 14L42 15L43 15L43 17L44 17L44 15L45 15L45 17L46 17L46 18L45 18L45 19L44 19L44 18L41 18L41 19L40 19L40 17L42 17L42 16L40 16L40 15L41 15L41 14L40 14L40 13L39 13L39 15L38 15L38 16L40 16L40 17L39 17L39 18L38 18L38 19L39 19L39 20L38 20L38 21L35 21L35 22L31 22L31 21L34 21L34 19L32 19L32 20L31 20L31 19L29 19L29 13L30 13L30 16L31 16L31 13L32 13L32 12L31 12L31 11L29 11L29 12L28 12L28 11L26 11L26 8ZM52 8L52 9L54 9L54 8ZM17 9L17 10L18 10L18 9ZM12 10L12 11L13 11L13 10ZM15 10L15 11L14 11L14 12L12 12L12 13L11 13L11 14L12 14L12 15L13 15L13 13L14 13L14 12L15 12L15 11L16 11L16 10ZM63 10L63 11L64 11L64 10ZM9 12L9 13L10 13L10 12ZM21 12L21 13L22 13L22 12ZM30 12L30 13L31 13L31 12ZM66 12L66 13L67 13L67 12ZM15 13L15 14L16 14L16 15L14 15L14 16L15 16L15 17L14 17L14 18L16 18L16 15L18 15L18 13ZM46 13L46 14L47 14L47 13ZM62 13L62 14L63 14L63 15L62 15L62 19L63 19L63 17L64 17L64 16L65 16L65 13ZM0 14L0 15L2 15L2 14ZM53 14L53 16L55 16L55 17L56 17L56 16L59 16L59 17L58 17L58 19L59 19L59 17L60 17L60 16L59 16L59 15L56 15L56 14ZM34 15L34 16L35 16L35 15ZM5 17L5 18L6 18L6 19L7 19L7 18L6 18L6 17ZM10 17L10 18L11 18L11 17ZM27 17L27 18L26 18L26 19L25 19L25 20L26 20L26 21L23 21L23 23L24 23L24 22L25 22L25 23L26 23L26 22L28 22L28 23L31 23L31 24L29 24L29 25L30 25L30 26L32 26L32 27L33 27L33 26L35 26L35 25L34 25L34 24L35 24L35 23L34 23L34 24L32 24L32 23L31 23L31 22L30 22L30 21L31 21L31 20L29 20L29 19L27 19L27 18L28 18L28 17ZM8 18L8 19L9 19L9 18ZM12 19L12 20L11 20L11 21L12 21L12 23L11 23L11 24L12 24L12 23L13 23L13 19ZM42 19L42 20L41 20L41 21L40 21L40 20L39 20L39 21L38 21L38 23L37 23L37 24L36 24L36 26L37 26L37 25L38 25L38 27L39 27L39 28L38 28L38 30L39 30L39 29L40 29L40 30L41 30L41 29L42 29L42 31L43 31L43 30L44 30L44 29L45 29L45 28L44 28L44 29L43 29L43 27L42 27L42 26L44 26L44 25L45 25L45 27L47 27L47 26L46 26L46 25L47 25L47 23L48 23L48 22L47 22L47 23L46 23L46 21L45 21L45 20L46 20L46 19L45 19L45 20L44 20L44 22L43 22L43 21L42 21L42 20L43 20L43 19ZM9 20L9 21L10 21L10 20ZM14 20L14 22L15 22L15 20ZM28 21L28 22L29 22L29 21ZM4 22L4 23L5 23L5 24L4 24L4 25L5 25L5 26L6 26L6 25L7 25L7 24L6 24L6 23L5 23L5 22ZM40 22L40 27L41 27L41 28L40 28L40 29L41 29L41 28L42 28L42 27L41 27L41 25L42 25L42 24L41 24L41 23L43 23L43 22ZM38 23L38 24L39 24L39 23ZM5 24L5 25L6 25L6 24ZM61 25L61 26L62 26L62 25ZM63 25L63 26L64 26L64 25ZM67 26L67 28L68 28L68 29L69 29L69 28L68 28L68 26ZM23 27L23 28L24 28L24 27ZM34 27L34 28L33 28L33 29L34 29L34 30L36 30L36 29L34 29L34 28L35 28L35 27ZM48 27L48 29L50 29L50 28L49 28L49 27ZM62 27L62 28L63 28L63 27ZM13 28L13 29L14 29L14 28ZM19 28L19 30L20 30L20 28ZM46 28L46 29L47 29L47 28ZM28 29L28 32L29 32L29 29ZM25 30L25 31L27 31L27 30ZM54 30L54 31L55 31L55 30ZM14 31L14 32L15 32L15 31ZM44 31L44 33L45 33L45 34L46 34L46 33L45 33L45 31ZM19 32L19 33L20 33L20 32ZM25 32L25 33L26 33L26 32ZM55 32L55 33L56 33L56 34L55 34L55 35L56 35L56 34L57 34L57 33L56 33L56 32ZM2 33L2 34L1 34L1 35L2 35L2 36L4 36L4 35L2 35L2 34L3 34L3 33ZM5 33L5 36L8 36L8 33ZM33 33L33 36L36 36L36 33ZM61 33L61 36L64 36L64 33ZM65 33L65 34L66 34L66 33ZM6 34L6 35L7 35L7 34ZM34 34L34 35L35 35L35 34ZM62 34L62 35L63 35L63 34ZM23 36L23 37L24 37L24 38L25 38L25 40L24 40L24 41L25 41L25 40L26 40L26 41L27 41L27 40L26 40L26 38L25 38L25 37L24 37L24 36ZM50 36L50 37L51 37L51 38L50 38L50 39L51 39L51 40L52 40L52 42L51 42L51 43L52 43L52 42L53 42L53 44L52 44L52 45L51 45L51 47L52 47L52 49L54 49L54 47L55 47L55 46L56 46L56 44L57 44L57 45L58 45L58 46L59 46L59 45L61 45L61 44L62 44L62 43L61 43L61 44L60 44L60 43L59 43L59 44L58 44L58 43L57 43L57 42L56 42L56 43L55 43L55 42L53 42L53 40L55 40L55 41L56 41L56 39L55 39L55 38L52 38L52 37L51 37L51 36ZM2 37L2 38L3 38L3 37ZM61 37L61 38L62 38L62 39L61 39L61 40L62 40L62 39L64 39L64 40L68 40L68 39L64 39L64 38L65 38L65 37L63 37L63 38L62 38L62 37ZM36 38L36 39L37 39L37 38ZM51 38L51 39L52 39L52 38ZM1 39L1 40L3 40L3 39ZM29 40L29 41L32 41L32 40ZM2 41L2 42L1 42L1 44L2 44L2 43L3 43L3 41ZM18 41L18 42L17 42L17 44L18 44L18 43L19 43L19 44L21 44L21 42L20 42L20 41ZM49 41L49 42L48 42L48 43L50 43L50 41ZM29 42L29 45L31 45L31 44L30 44L30 43L31 43L31 42ZM35 42L35 43L36 43L36 42ZM54 43L54 44L53 44L53 46L52 46L52 47L54 47L54 46L55 46L55 43ZM15 44L15 45L16 45L16 46L17 46L17 47L18 47L18 45L16 45L16 44ZM8 45L8 46L6 46L6 47L8 47L8 46L9 46L9 45ZM43 45L43 46L42 46L42 47L41 47L41 48L40 48L40 50L41 50L41 49L42 49L42 47L44 47L44 48L43 48L43 49L44 49L44 50L45 50L45 51L44 51L44 52L43 52L43 54L44 54L44 55L45 55L45 53L46 53L46 54L48 54L48 55L49 55L49 54L48 54L48 53L46 53L46 52L45 52L45 51L46 51L46 50L50 50L50 45L49 45L49 46L48 46L48 45L46 45L46 47L44 47L44 45ZM13 46L13 47L14 47L14 46ZM60 46L60 47L61 47L61 46ZM46 47L46 48L44 48L44 49L45 49L45 50L46 50L46 48L47 48L47 47ZM48 47L48 49L49 49L49 47ZM6 48L6 49L7 49L7 48ZM8 48L8 49L9 49L9 48ZM18 49L18 50L19 50L19 49ZM2 50L2 51L3 51L3 52L4 52L4 51L3 51L3 50ZM64 50L64 52L65 52L65 51L67 51L67 50ZM5 51L5 52L7 52L7 51ZM47 51L47 52L49 52L49 51ZM61 51L61 52L62 52L62 51ZM1 52L1 53L2 53L2 52ZM14 52L14 53L15 53L15 52ZM39 52L39 53L38 53L38 54L40 54L40 55L41 55L41 54L40 54L40 52ZM44 52L44 53L45 53L45 52ZM16 53L16 54L15 54L15 55L16 55L16 54L18 54L18 53ZM6 54L6 55L7 55L7 54ZM10 55L10 56L11 56L11 55ZM21 57L21 58L23 58L23 59L24 59L24 61L26 61L26 58L24 58L24 57ZM66 57L66 58L67 58L67 57ZM3 60L3 61L5 61L5 60ZM33 61L33 64L36 64L36 61ZM37 61L37 62L38 62L38 64L37 64L37 66L38 66L38 65L39 65L39 67L38 67L38 68L40 68L40 66L41 66L41 63L43 63L43 67L44 67L44 63L45 63L45 62L44 62L44 63L43 63L43 62L41 62L41 63L40 63L40 62L38 62L38 61ZM61 61L61 64L64 64L64 61ZM67 61L67 62L68 62L68 61ZM12 62L12 63L13 63L13 62ZM34 62L34 63L35 63L35 62ZM62 62L62 63L63 63L63 62ZM48 63L48 64L49 64L49 63ZM39 64L39 65L40 65L40 64ZM64 65L64 66L63 66L63 67L62 67L62 68L63 68L63 67L64 67L64 66L65 66L65 65ZM26 67L26 68L28 68L28 67ZM53 67L53 68L54 68L54 67ZM18 68L18 69L19 69L19 68ZM30 68L30 69L31 69L31 68ZM32 68L32 69L33 69L33 68ZM68 68L68 69L69 69L69 68ZM0 0L0 7L7 7L7 0ZM1 1L1 6L6 6L6 1ZM2 2L2 5L5 5L5 2ZM62 0L62 7L69 7L69 0ZM63 1L63 6L68 6L68 1ZM64 2L64 5L67 5L67 2ZM0 62L0 69L7 69L7 62ZM1 63L1 68L6 68L6 63ZM2 64L2 67L5 67L5 64Z" fill="#000000"/></g></g></svg>
