<?xml version="1.0" encoding="UTF-8"?>
<svg xmlns="http://www.w3.org/2000/svg" version="1.1" width="300" height="300" viewBox="0 0 300 300"><rect x="0" y="0" width="300" height="300" fill="#ffffff"/><g transform="scale(4.348)"><g transform="translate(0,0)"><path fill-rule="evenodd" d="M8 0L8 2L9 2L9 4L8 4L8 9L9 9L9 11L7 11L7 10L6 10L6 9L7 9L7 8L5 8L5 11L7 11L7 12L5 12L5 13L4 13L4 9L3 9L3 8L0 8L0 9L1 9L1 10L0 10L0 14L1 14L1 15L2 15L2 16L1 16L1 20L2 20L2 21L1 21L1 22L0 22L0 23L1 23L1 22L4 22L4 23L2 23L2 24L1 24L1 26L0 26L0 27L1 27L1 28L3 28L3 25L2 25L2 24L5 24L5 22L4 22L4 21L7 21L7 22L6 22L6 23L7 23L7 24L6 24L6 25L5 25L5 26L4 26L4 29L3 29L3 30L2 30L2 29L0 29L0 31L1 31L1 30L2 30L2 31L3 31L3 34L2 34L2 33L1 33L1 35L3 35L3 34L4 34L4 37L3 37L3 36L2 36L2 37L3 37L3 38L4 38L4 39L3 39L3 40L4 40L4 39L5 39L5 38L6 38L6 39L7 39L7 38L6 38L6 37L8 37L8 38L11 38L11 39L8 39L8 40L6 40L6 41L2 41L2 40L0 40L0 41L1 41L1 42L0 42L0 43L1 43L1 44L2 44L2 45L0 45L0 46L1 46L1 47L0 47L0 48L3 48L3 50L2 50L2 49L0 49L0 50L1 50L1 51L3 51L3 50L4 50L4 49L5 49L5 51L4 51L4 53L3 53L3 52L2 52L2 53L1 53L1 54L0 54L0 56L1 56L1 58L0 58L0 61L1 61L1 58L2 58L2 59L3 59L3 58L4 58L4 59L7 59L7 60L6 60L6 61L8 61L8 62L9 62L9 63L8 63L8 64L9 64L9 63L10 63L10 66L11 66L11 67L9 67L9 66L8 66L8 69L12 69L12 68L11 68L11 67L13 67L13 65L14 65L14 66L15 66L15 67L14 67L14 68L13 68L13 69L14 69L14 68L15 68L15 69L17 69L17 67L16 67L16 65L14 65L14 64L15 64L15 63L16 63L16 64L17 64L17 66L18 66L18 65L19 65L19 64L20 64L20 65L21 65L21 64L20 64L20 63L21 63L21 62L22 62L22 63L23 63L23 64L22 64L22 65L23 65L23 67L24 67L24 65L25 65L25 64L24 64L24 63L23 63L23 62L24 62L24 61L23 61L23 60L22 60L22 59L23 59L23 58L21 58L21 59L19 59L19 58L20 58L20 57L21 57L21 54L22 54L22 53L23 53L23 52L24 52L24 49L23 49L23 48L24 48L24 47L23 47L23 46L24 46L24 45L25 45L25 43L26 43L26 45L27 45L27 46L25 46L25 52L26 52L26 53L25 53L25 54L24 54L24 55L22 55L22 56L24 56L24 57L25 57L25 58L24 58L24 59L25 59L25 58L26 58L26 59L30 59L30 61L32 61L32 62L31 62L31 63L30 63L30 62L29 62L29 63L28 63L28 61L29 61L29 60L26 60L26 62L27 62L27 63L26 63L26 64L27 64L27 66L26 66L26 67L25 67L25 68L26 68L26 69L29 69L29 68L30 68L30 69L31 69L31 68L32 68L32 69L37 69L37 68L36 68L36 67L37 67L37 64L38 64L38 63L39 63L39 62L38 62L38 60L36 60L36 58L35 58L35 60L33 60L33 59L34 59L34 57L35 57L35 56L36 56L36 57L37 57L37 58L38 58L38 59L40 59L40 58L41 58L41 59L44 59L44 61L43 61L43 62L42 62L42 61L41 61L41 60L39 60L39 61L41 61L41 62L40 62L40 65L39 65L39 66L40 66L40 65L41 65L41 67L42 67L42 65L43 65L43 67L44 67L44 69L45 69L45 67L44 67L44 65L47 65L47 64L48 64L48 66L47 66L47 67L46 67L46 69L47 69L47 68L48 68L48 69L49 69L49 67L51 67L51 68L52 68L52 69L53 69L53 68L52 68L52 67L53 67L53 66L54 66L54 64L55 64L55 66L56 66L56 65L57 65L57 66L58 66L58 67L55 67L55 68L54 68L54 69L57 69L57 68L58 68L58 69L60 69L60 68L62 68L62 69L63 69L63 68L62 68L62 67L63 67L63 66L64 66L64 67L65 67L65 68L64 68L64 69L66 69L66 67L69 67L69 66L67 66L67 65L66 65L66 63L67 63L67 62L66 62L66 58L67 58L67 57L66 57L66 55L65 55L65 54L64 54L64 53L65 53L65 52L66 52L66 47L67 47L67 48L68 48L68 49L67 49L67 50L68 50L68 51L67 51L67 53L66 53L66 54L67 54L67 56L68 56L68 59L69 59L69 56L68 56L68 55L69 55L69 52L68 52L68 51L69 51L69 48L68 48L68 47L69 47L69 42L68 42L68 41L69 41L69 40L67 40L67 41L66 41L66 37L67 37L67 38L68 38L68 39L69 39L69 38L68 38L68 37L69 37L69 33L68 33L68 31L69 31L69 30L68 30L68 31L67 31L67 33L68 33L68 37L67 37L67 36L66 36L66 35L65 35L65 34L66 34L66 33L65 33L65 32L66 32L66 30L67 30L67 29L66 29L66 27L67 27L67 25L68 25L68 24L69 24L69 20L68 20L68 19L69 19L69 16L68 16L68 15L69 15L69 14L68 14L68 13L69 13L69 10L68 10L68 9L69 9L69 8L67 8L67 9L66 9L66 10L65 10L65 8L61 8L61 9L63 9L63 11L62 11L62 12L61 12L61 14L60 14L60 13L59 13L59 14L58 14L58 12L60 12L60 7L61 7L61 6L60 6L60 7L59 7L59 4L58 4L58 3L59 3L59 2L57 2L57 4L58 4L58 7L57 7L57 6L56 6L56 5L55 5L55 4L54 4L54 3L55 3L55 1L56 1L56 0L53 0L53 1L52 1L52 0L50 0L50 1L49 1L49 0L46 0L46 3L47 3L47 4L46 4L46 5L47 5L47 4L48 4L48 7L47 7L47 6L46 6L46 7L47 7L47 8L44 8L44 9L43 9L43 11L41 11L41 10L42 10L42 8L43 8L43 6L42 6L42 8L41 8L41 6L40 6L40 10L39 10L39 11L41 11L41 13L40 13L40 14L41 14L41 13L42 13L42 12L43 12L43 11L45 11L45 10L46 10L46 12L44 12L44 14L45 14L45 15L44 15L44 17L45 17L45 20L44 20L44 21L43 21L43 19L44 19L44 18L42 18L42 17L43 17L43 15L42 15L42 16L40 16L40 17L39 17L39 14L38 14L38 13L39 13L39 12L38 12L38 11L36 11L36 12L37 12L37 14L36 14L36 15L37 15L37 16L36 16L36 17L35 17L35 16L34 16L34 17L32 17L32 15L33 15L33 14L32 14L32 15L29 15L29 16L28 16L28 17L29 17L29 16L30 16L30 19L29 19L29 18L28 18L28 19L29 19L29 20L28 20L28 21L27 21L27 20L26 20L26 21L27 21L27 22L24 22L24 20L25 20L25 19L26 19L26 17L27 17L27 16L26 16L26 15L27 15L27 14L28 14L28 13L29 13L29 14L30 14L30 13L31 13L31 11L30 11L30 13L29 13L29 11L28 11L28 7L29 7L29 6L30 6L30 8L31 8L31 4L30 4L30 3L29 3L29 4L28 4L28 5L29 5L29 6L28 6L28 7L27 7L27 4L26 4L26 2L24 2L24 1L27 1L27 0L24 0L24 1L23 1L23 0L18 0L18 1L16 1L16 2L15 2L15 3L13 3L13 2L14 2L14 1L15 1L15 0L13 0L13 1L12 1L12 2L11 2L11 3L10 3L10 1L11 1L11 0L10 0L10 1L9 1L9 0ZM29 0L29 1L28 1L28 2L30 2L30 1L31 1L31 0ZM32 0L32 2L31 2L31 3L33 3L33 2L34 2L34 4L32 4L32 9L37 9L37 10L38 10L38 9L39 9L39 6L38 6L38 5L39 5L39 4L40 4L40 2L41 2L41 3L42 3L42 5L43 5L43 4L44 4L44 7L45 7L45 4L44 4L44 2L41 2L41 1L40 1L40 0L38 0L38 2L36 2L36 1L37 1L37 0L36 0L36 1L35 1L35 0ZM42 0L42 1L44 1L44 0ZM58 0L58 1L61 1L61 0ZM18 1L18 2L17 2L17 3L18 3L18 6L17 6L17 7L16 7L16 5L17 5L17 4L16 4L16 3L15 3L15 4L12 4L12 5L11 5L11 4L9 4L9 9L11 9L11 10L10 10L10 11L9 11L9 12L7 12L7 13L6 13L6 14L4 14L4 16L5 16L5 15L6 15L6 16L7 16L7 15L6 15L6 14L10 14L10 12L11 12L11 15L12 15L12 16L14 16L14 15L15 15L15 11L14 11L14 10L12 10L12 9L17 9L17 10L18 10L18 11L17 11L17 12L16 12L16 13L18 13L18 14L17 14L17 15L16 15L16 20L17 20L17 21L18 21L18 20L19 20L19 16L21 16L21 18L20 18L20 19L21 19L21 21L20 21L20 22L17 22L17 26L16 26L16 27L17 27L17 29L16 29L16 30L15 30L15 28L14 28L14 27L15 27L15 26L14 26L14 27L13 27L13 26L12 26L12 25L15 25L15 24L16 24L16 21L15 21L15 20L14 20L14 22L15 22L15 24L14 24L14 23L13 23L13 24L12 24L12 23L11 23L11 24L10 24L10 21L12 21L12 22L13 22L13 19L14 19L14 18L15 18L15 17L10 17L10 16L8 16L8 18L7 18L7 17L5 17L5 18L4 18L4 17L3 17L3 16L2 16L2 17L3 17L3 18L2 18L2 20L5 20L5 18L7 18L7 19L6 19L6 20L8 20L8 18L9 18L9 17L10 17L10 19L9 19L9 21L8 21L8 22L7 22L7 23L8 23L8 22L9 22L9 25L10 25L10 26L7 26L7 25L8 25L8 24L7 24L7 25L6 25L6 26L5 26L5 28L7 28L7 29L6 29L6 30L5 30L5 32L7 32L7 31L6 31L6 30L7 30L7 29L8 29L8 30L10 30L10 32L11 32L11 33L12 33L12 34L10 34L10 35L9 35L9 37L10 37L10 35L11 35L11 37L12 37L12 38L14 38L14 39L13 39L13 41L12 41L12 40L10 40L10 41L9 41L9 40L8 40L8 41L6 41L6 42L8 42L8 43L6 43L6 44L4 44L4 46L3 46L3 47L4 47L4 46L5 46L5 47L6 47L6 48L5 48L5 49L6 49L6 50L7 50L7 51L6 51L6 52L7 52L7 53L6 53L6 54L5 54L5 53L4 53L4 56L7 56L7 57L4 57L4 58L7 58L7 59L8 59L8 61L9 61L9 62L10 62L10 63L12 63L12 64L11 64L11 66L12 66L12 64L14 64L14 63L15 63L15 62L14 62L14 61L15 61L15 59L14 59L14 58L13 58L13 57L12 57L12 56L13 56L13 54L12 54L12 53L14 53L14 56L17 56L17 57L18 57L18 58L19 58L19 57L20 57L20 54L21 54L21 53L22 53L22 51L23 51L23 50L22 50L22 51L21 51L21 50L20 50L20 51L21 51L21 53L20 53L20 54L18 54L18 52L19 52L19 51L18 51L18 52L17 52L17 53L16 53L16 55L15 55L15 52L16 52L16 51L17 51L17 50L19 50L19 48L18 48L18 47L20 47L20 48L21 48L21 49L22 49L22 46L23 46L23 45L22 45L22 44L23 44L23 43L22 43L22 42L23 42L23 41L22 41L22 42L21 42L21 40L19 40L19 41L20 41L20 42L17 42L17 41L18 41L18 39L19 39L19 38L18 38L18 34L19 34L19 37L20 37L20 39L21 39L21 38L22 38L22 35L23 35L23 36L24 36L24 34L25 34L25 37L24 37L24 38L23 38L23 39L22 39L22 40L25 40L25 41L26 41L26 43L27 43L27 44L31 44L31 46L32 46L32 47L31 47L31 48L32 48L32 51L31 51L31 49L30 49L30 46L29 46L29 45L28 45L28 48L27 48L27 47L26 47L26 48L27 48L27 49L26 49L26 50L27 50L27 53L26 53L26 54L25 54L25 57L26 57L26 58L27 58L27 57L28 57L28 58L29 58L29 57L28 57L28 54L29 54L29 53L30 53L30 54L31 54L31 53L30 53L30 51L31 51L31 52L32 52L32 51L33 51L33 50L35 50L35 49L34 49L34 47L35 47L35 46L34 46L34 44L31 44L31 43L29 43L29 42L31 42L31 40L30 40L30 39L31 39L31 37L30 37L30 36L32 36L32 35L29 35L29 34L28 34L28 35L29 35L29 37L28 37L28 38L29 38L29 39L26 39L26 38L27 38L27 37L26 37L26 34L27 34L27 32L29 32L29 33L30 33L30 34L32 34L32 32L33 32L33 31L32 31L32 32L31 32L31 33L30 33L30 32L29 32L29 29L30 29L30 28L31 28L31 26L33 26L33 27L34 27L34 28L35 28L35 27L34 27L34 25L36 25L36 26L37 26L37 27L36 27L36 28L37 28L37 27L38 27L38 28L39 28L39 27L38 27L38 26L39 26L39 25L40 25L40 28L43 28L43 29L40 29L40 30L42 30L42 35L41 35L41 34L39 34L39 33L40 33L40 31L39 31L39 32L38 32L38 30L39 30L39 29L38 29L38 30L37 30L37 29L36 29L36 30L34 30L34 31L36 31L36 32L38 32L38 34L37 34L37 38L35 38L35 37L33 37L33 38L32 38L32 40L33 40L33 42L34 42L34 43L36 43L36 44L37 44L37 45L36 45L36 46L37 46L37 47L38 47L38 48L39 48L39 49L38 49L38 51L39 51L39 49L40 49L40 52L38 52L38 53L40 53L40 54L39 54L39 55L38 55L38 56L37 56L37 55L36 55L36 54L37 54L37 51L36 51L36 53L34 53L34 55L33 55L33 57L34 57L34 56L35 56L35 55L36 55L36 56L37 56L37 57L38 57L38 58L40 58L40 55L42 55L42 56L41 56L41 57L42 57L42 58L45 58L45 57L46 57L46 58L47 58L47 59L45 59L45 60L47 60L47 61L46 61L46 62L47 62L47 61L48 61L48 64L49 64L49 65L50 65L50 66L52 66L52 63L49 63L49 61L50 61L50 62L52 62L52 60L53 60L53 61L54 61L54 62L53 62L53 64L54 64L54 62L55 62L55 61L56 61L56 63L57 63L57 65L58 65L58 66L59 66L59 68L60 68L60 66L61 66L61 67L62 67L62 66L63 66L63 65L58 65L58 63L59 63L59 62L60 62L60 61L59 61L59 60L60 60L60 59L61 59L61 60L62 60L62 58L63 58L63 59L64 59L64 58L65 58L65 57L64 57L64 58L63 58L63 56L64 56L64 54L63 54L63 55L62 55L62 53L61 53L61 52L62 52L62 49L64 49L64 50L63 50L63 51L64 51L64 52L65 52L65 51L64 51L64 50L65 50L65 49L64 49L64 48L65 48L65 47L64 47L64 48L62 48L62 46L63 46L63 45L64 45L64 46L67 46L67 45L64 45L64 42L66 42L66 44L68 44L68 42L66 42L66 41L65 41L65 40L64 40L64 38L65 38L65 37L66 37L66 36L65 36L65 37L63 37L63 39L62 39L62 37L60 37L60 38L59 38L59 36L60 36L60 33L59 33L59 32L62 32L62 30L63 30L63 31L64 31L64 27L63 27L63 29L62 29L62 28L61 28L61 27L62 27L62 26L64 26L64 23L63 23L63 25L62 25L62 22L63 22L63 21L64 21L64 20L65 20L65 22L66 22L66 24L65 24L65 25L66 25L66 24L68 24L68 20L67 20L67 19L68 19L68 18L67 18L67 17L68 17L68 16L67 16L67 15L68 15L68 14L67 14L67 15L66 15L66 13L67 13L67 12L68 12L68 10L66 10L66 13L64 13L64 11L65 11L65 10L64 10L64 11L63 11L63 12L62 12L62 15L60 15L60 14L59 14L59 16L58 16L58 14L57 14L57 13L56 13L56 16L55 16L55 13L54 13L54 14L53 14L53 13L52 13L52 11L51 11L51 9L50 9L50 11L51 11L51 13L50 13L50 12L49 12L49 13L48 13L48 11L49 11L49 9L48 9L48 8L51 8L51 7L52 7L52 6L53 6L53 7L54 7L54 8L53 8L53 9L52 9L52 10L53 10L53 9L54 9L54 11L53 11L53 12L55 12L55 10L57 10L57 9L58 9L58 11L57 11L57 12L58 12L58 11L59 11L59 7L58 7L58 8L57 8L57 9L56 9L56 8L55 8L55 7L56 7L56 6L55 6L55 5L54 5L54 4L53 4L53 3L52 3L52 4L51 4L51 2L52 2L52 1L50 1L50 3L49 3L49 1L48 1L48 4L49 4L49 7L48 7L48 8L47 8L47 9L46 9L46 10L47 10L47 9L48 9L48 11L47 11L47 12L46 12L46 14L47 14L47 13L48 13L48 16L47 16L47 17L46 17L46 18L48 18L48 19L49 19L49 20L50 20L50 23L49 23L49 24L50 24L50 23L51 23L51 25L50 25L50 26L49 26L49 27L50 27L50 28L49 28L49 29L50 29L50 30L52 30L52 31L50 31L50 32L49 32L49 31L48 31L48 30L47 30L47 29L48 29L48 27L47 27L47 28L45 28L45 25L46 25L46 26L47 26L47 23L48 23L48 22L47 22L47 19L46 19L46 20L45 20L45 21L44 21L44 23L43 23L43 21L42 21L42 20L41 20L41 22L40 22L40 20L38 20L38 21L39 21L39 22L40 22L40 23L37 23L37 24L39 24L39 25L38 25L38 26L37 26L37 25L36 25L36 24L35 24L35 23L36 23L36 20L37 20L37 19L38 19L38 18L39 18L39 17L38 17L38 18L37 18L37 19L34 19L34 20L35 20L35 21L33 21L33 19L32 19L32 21L33 21L33 22L31 22L31 23L30 23L30 24L31 24L31 25L30 25L30 27L29 27L29 25L28 25L28 26L27 26L27 25L26 25L26 23L24 23L24 22L23 22L23 21L22 21L22 19L23 19L23 20L24 20L24 18L25 18L25 14L26 14L26 11L27 11L27 9L26 9L26 8L27 8L27 7L26 7L26 6L25 6L25 5L23 5L23 3L22 3L22 2L21 2L21 1L20 1L20 2L21 2L21 3L22 3L22 4L21 4L21 7L20 7L20 3L19 3L19 1ZM39 1L39 2L40 2L40 1ZM35 2L35 3L36 3L36 4L37 4L37 3L36 3L36 2ZM38 3L38 4L39 4L39 3ZM60 3L60 5L61 5L61 3ZM15 4L15 5L16 5L16 4ZM50 4L50 7L51 7L51 4ZM52 4L52 5L53 5L53 6L54 6L54 7L55 7L55 6L54 6L54 5L53 5L53 4ZM13 5L13 6L12 6L12 7L11 7L11 6L10 6L10 8L12 8L12 7L13 7L13 6L14 6L14 8L16 8L16 7L15 7L15 6L14 6L14 5ZM33 5L33 8L36 8L36 5ZM18 6L18 7L17 7L17 8L18 8L18 10L19 10L19 12L18 12L18 13L19 13L19 15L18 15L18 16L19 16L19 15L20 15L20 13L21 13L21 11L23 11L23 12L22 12L22 14L23 14L23 15L24 15L24 13L25 13L25 11L26 11L26 9L25 9L25 8L26 8L26 7L25 7L25 6L24 6L24 7L23 7L23 6L22 6L22 7L21 7L21 8L20 8L20 7L19 7L19 6ZM34 6L34 7L35 7L35 6ZM37 6L37 7L38 7L38 6ZM18 7L18 8L19 8L19 9L20 9L20 10L21 10L21 9L20 9L20 8L19 8L19 7ZM22 7L22 8L23 8L23 7ZM24 7L24 8L25 8L25 7ZM54 8L54 9L55 9L55 8ZM2 9L2 10L1 10L1 11L3 11L3 9ZM22 9L22 10L23 10L23 9ZM11 10L11 12L12 12L12 13L14 13L14 12L12 12L12 10ZM24 10L24 11L25 11L25 10ZM32 10L32 11L33 11L33 12L32 12L32 13L34 13L34 10ZM2 12L2 13L1 13L1 14L3 14L3 12ZM27 12L27 13L28 13L28 12ZM49 13L49 15L51 15L51 14L52 14L52 15L53 15L53 14L52 14L52 13L51 13L51 14L50 14L50 13ZM34 14L34 15L35 15L35 14ZM64 14L64 15L65 15L65 16L64 16L64 19L63 19L63 20L62 20L62 21L61 21L61 20L59 20L59 18L60 18L60 17L61 17L61 19L62 19L62 17L63 17L63 15L62 15L62 17L61 17L61 16L60 16L60 17L59 17L59 18L58 18L58 16L56 16L56 17L57 17L57 18L58 18L58 20L56 20L56 18L55 18L55 19L54 19L54 17L55 17L55 16L52 16L52 19L51 19L51 18L50 18L50 16L48 16L48 18L49 18L49 19L50 19L50 20L51 20L51 22L52 22L52 21L53 21L53 23L52 23L52 25L51 25L51 26L50 26L50 27L51 27L51 28L52 28L52 30L53 30L53 31L54 31L54 32L52 32L52 33L51 33L51 32L50 32L50 33L51 33L51 34L52 34L52 35L53 35L53 36L52 36L52 37L51 37L51 38L50 38L50 37L49 37L49 36L48 36L48 38L47 38L47 39L46 39L46 35L47 35L47 34L46 34L46 32L45 32L45 31L47 31L47 32L48 32L48 35L49 35L49 32L48 32L48 31L47 31L47 30L46 30L46 29L45 29L45 28L44 28L44 29L43 29L43 30L44 30L44 34L43 34L43 35L44 35L44 37L43 37L43 36L40 36L40 35L39 35L39 34L38 34L38 35L39 35L39 36L38 36L38 37L39 37L39 36L40 36L40 37L41 37L41 39L40 39L40 38L38 38L38 39L37 39L37 40L38 40L38 39L40 39L40 41L39 41L39 42L38 42L38 41L37 41L37 42L36 42L36 43L37 43L37 44L38 44L38 45L37 45L37 46L38 46L38 45L39 45L39 44L38 44L38 43L39 43L39 42L42 42L42 43L41 43L41 44L42 44L42 45L43 45L43 47L41 47L41 48L40 48L40 49L41 49L41 52L40 52L40 53L41 53L41 54L42 54L42 55L44 55L44 57L45 57L45 55L47 55L47 56L48 56L48 58L50 58L50 57L51 57L51 59L52 59L52 57L53 57L53 59L56 59L56 58L54 58L54 57L55 57L55 56L56 56L56 57L57 57L57 59L58 59L58 60L56 60L56 61L57 61L57 63L58 63L58 60L59 60L59 58L58 58L58 57L60 57L60 58L61 58L61 53L60 53L60 52L61 52L61 49L62 49L62 48L60 48L60 45L61 45L61 43L60 43L60 44L59 44L59 42L58 42L58 39L59 39L59 41L60 41L60 42L62 42L62 45L63 45L63 42L62 42L62 40L61 40L61 38L60 38L60 39L59 39L59 38L58 38L58 37L57 37L57 36L56 36L56 34L54 34L54 33L55 33L55 32L56 32L56 33L57 33L57 35L58 35L58 36L59 36L59 34L58 34L58 33L57 33L57 32L56 32L56 31L58 31L58 28L60 28L60 29L59 29L59 31L60 31L60 29L61 29L61 30L62 30L62 29L61 29L61 28L60 28L60 27L59 27L59 26L60 26L60 25L61 25L61 26L62 26L62 25L61 25L61 24L59 24L59 23L58 23L58 21L59 21L59 22L60 22L60 23L61 23L61 22L62 22L62 21L63 21L63 20L64 20L64 19L65 19L65 20L66 20L66 21L67 21L67 20L66 20L66 19L65 19L65 18L66 18L66 17L67 17L67 16L66 16L66 15L65 15L65 14ZM21 15L21 16L22 16L22 18L21 18L21 19L22 19L22 18L24 18L24 16L22 16L22 15ZM45 15L45 16L46 16L46 15ZM34 17L34 18L35 18L35 17ZM40 17L40 19L42 19L42 18L41 18L41 17ZM11 18L11 19L10 19L10 20L11 20L11 19L13 19L13 18ZM30 19L30 20L31 20L31 19ZM53 19L53 20L54 20L54 22L55 22L55 21L56 21L56 23L57 23L57 21L56 21L56 20L54 20L54 19ZM28 21L28 22L27 22L27 23L28 23L28 22L29 22L29 21ZM45 21L45 23L47 23L47 22L46 22L46 21ZM60 21L60 22L61 22L61 21ZM33 22L33 25L34 25L34 22ZM18 23L18 25L19 25L19 27L18 27L18 26L17 26L17 27L18 27L18 30L17 30L17 34L18 34L18 33L19 33L19 32L18 32L18 31L19 31L19 30L20 30L20 29L21 29L21 32L20 32L20 33L21 33L21 34L20 34L20 35L21 35L21 34L22 34L22 33L23 33L23 32L25 32L25 31L24 31L24 30L23 30L23 27L22 27L22 26L20 26L20 23ZM22 23L22 24L24 24L24 25L25 25L25 24L24 24L24 23ZM31 23L31 24L32 24L32 23ZM40 23L40 25L41 25L41 26L42 26L42 27L43 27L43 26L42 26L42 25L43 25L43 24L42 24L42 23ZM54 23L54 24L55 24L55 25L54 25L54 26L56 26L56 27L55 27L55 29L54 29L54 27L52 27L52 28L53 28L53 29L54 29L54 30L55 30L55 31L56 31L56 30L57 30L57 29L56 29L56 28L58 28L58 26L59 26L59 24L58 24L58 26L57 26L57 25L56 25L56 24L55 24L55 23ZM11 24L11 25L12 25L12 24ZM44 24L44 25L45 25L45 24ZM6 26L6 27L7 27L7 26ZM10 26L10 28L9 28L9 27L8 27L8 29L10 29L10 30L11 30L11 31L12 31L12 32L13 32L13 33L14 33L14 32L15 32L15 36L13 36L13 35L14 35L14 34L13 34L13 35L12 35L12 37L14 37L14 38L16 38L16 39L15 39L15 40L16 40L16 41L17 41L17 39L18 39L18 38L16 38L16 31L13 31L13 30L14 30L14 28L13 28L13 29L12 29L12 30L11 30L11 29L10 29L10 28L12 28L12 27L11 27L11 26ZM24 26L24 27L25 27L25 28L26 28L26 29L25 29L25 30L26 30L26 29L27 29L27 31L26 31L26 32L27 32L27 31L28 31L28 29L29 29L29 28L28 28L28 27L27 27L27 28L26 28L26 26ZM68 26L68 29L69 29L69 26ZM19 27L19 29L20 29L20 27ZM32 28L32 29L33 29L33 28ZM44 29L44 30L45 30L45 29ZM65 29L65 30L66 30L66 29ZM3 30L3 31L4 31L4 30ZM22 30L22 31L23 31L23 30ZM36 30L36 31L37 31L37 30ZM8 31L8 32L9 32L9 31ZM21 32L21 33L22 33L22 32ZM5 33L5 36L8 36L8 33ZM33 33L33 36L36 36L36 33ZM52 33L52 34L53 34L53 35L54 35L54 36L55 36L55 37L54 37L54 40L55 40L55 41L54 41L54 43L55 43L55 44L54 44L54 45L52 45L52 44L53 44L53 41L50 41L50 42L49 42L49 45L48 45L48 44L47 44L47 43L48 43L48 42L47 42L47 41L48 41L48 39L49 39L49 40L51 40L51 39L53 39L53 37L52 37L52 38L51 38L51 39L49 39L49 38L48 38L48 39L47 39L47 41L46 41L46 39L45 39L45 38L43 38L43 37L42 37L42 39L41 39L41 41L42 41L42 42L43 42L43 41L44 41L44 43L42 43L42 44L43 44L43 45L44 45L44 44L45 44L45 45L46 45L46 46L45 46L45 47L44 47L44 48L43 48L43 49L42 49L42 50L43 50L43 51L42 51L42 52L43 52L43 53L42 53L42 54L44 54L44 55L45 55L45 54L44 54L44 51L46 51L46 50L47 50L47 51L48 51L48 52L46 52L46 54L48 54L48 56L49 56L49 57L50 57L50 56L51 56L51 53L52 53L52 55L53 55L53 56L54 56L54 55L55 55L55 53L56 53L56 56L58 56L58 55L59 55L59 54L60 54L60 53L58 53L58 52L60 52L60 50L59 50L59 49L58 49L58 48L59 48L59 47L58 47L58 46L59 46L59 45L58 45L58 44L57 44L57 42L56 42L56 40L57 40L57 39L58 39L58 38L56 38L56 36L55 36L55 35L54 35L54 34L53 34L53 33ZM61 33L61 36L64 36L64 33ZM6 34L6 35L7 35L7 34ZM34 34L34 35L35 35L35 34ZM44 34L44 35L46 35L46 34ZM62 34L62 35L63 35L63 34ZM20 36L20 37L21 37L21 36ZM25 37L25 38L24 38L24 39L25 39L25 40L26 40L26 41L27 41L27 42L28 42L28 41L29 41L29 40L26 40L26 39L25 39L25 38L26 38L26 37ZM33 38L33 39L34 39L34 41L35 41L35 40L36 40L36 39L34 39L34 38ZM55 38L55 39L56 39L56 38ZM42 39L42 41L43 41L43 39ZM44 40L44 41L45 41L45 42L46 42L46 41L45 41L45 40ZM8 41L8 42L9 42L9 43L8 43L8 44L6 44L6 45L5 45L5 46L6 46L6 47L7 47L7 48L6 48L6 49L7 49L7 48L8 48L8 47L9 47L9 45L10 45L10 46L11 46L11 47L10 47L10 48L9 48L9 49L10 49L10 51L8 51L8 52L10 52L10 53L7 53L7 54L6 54L6 55L7 55L7 56L8 56L8 55L9 55L9 56L12 56L12 54L11 54L11 52L12 52L12 51L11 51L11 49L12 49L12 50L14 50L14 51L13 51L13 52L15 52L15 51L16 51L16 49L17 49L17 47L16 47L16 45L17 45L17 46L18 46L18 45L19 45L19 44L20 44L20 43L19 43L19 44L18 44L18 43L17 43L17 42L16 42L16 43L17 43L17 44L16 44L16 45L15 45L15 50L14 50L14 46L12 46L12 44L15 44L15 42L14 42L14 43L13 43L13 42L12 42L12 41L10 41L10 42L9 42L9 41ZM3 42L3 43L5 43L5 42ZM10 42L10 43L9 43L9 44L8 44L8 45L9 45L9 44L10 44L10 45L11 45L11 44L12 44L12 42ZM24 42L24 43L25 43L25 42ZM37 42L37 43L38 43L38 42ZM50 42L50 45L51 45L51 46L52 46L52 47L53 47L53 48L52 48L52 49L51 49L51 48L50 48L50 49L49 49L49 48L48 48L48 51L50 51L50 49L51 49L51 51L52 51L52 53L53 53L53 52L54 52L54 51L56 51L56 53L57 53L57 55L58 55L58 53L57 53L57 48L58 48L58 47L56 47L56 49L55 49L55 48L54 48L54 47L53 47L53 46L52 46L52 45L51 45L51 44L52 44L52 42ZM55 42L55 43L56 43L56 42ZM21 43L21 44L22 44L22 43ZM45 43L45 44L46 44L46 43ZM17 44L17 45L18 45L18 44ZM56 44L56 46L58 46L58 45L57 45L57 44ZM6 45L6 46L7 46L7 47L8 47L8 46L7 46L7 45ZM21 45L21 46L20 46L20 47L21 47L21 46L22 46L22 45ZM40 45L40 46L41 46L41 45ZM47 45L47 47L48 47L48 45ZM11 47L11 48L10 48L10 49L11 49L11 48L12 48L12 49L13 49L13 47ZM28 48L28 49L29 49L29 50L28 50L28 51L29 51L29 50L30 50L30 49L29 49L29 48ZM36 48L36 49L37 49L37 48ZM44 48L44 50L46 50L46 49L47 49L47 48ZM54 49L54 50L53 50L53 51L54 51L54 50L55 50L55 49ZM34 51L34 52L35 52L35 51ZM48 52L48 54L50 54L50 53L49 53L49 52ZM2 53L2 54L1 54L1 55L2 55L2 56L3 56L3 55L2 55L2 54L3 54L3 53ZM7 54L7 55L8 55L8 54ZM17 54L17 55L18 55L18 57L19 57L19 55L18 55L18 54ZM26 54L26 57L27 57L27 54ZM30 55L30 56L32 56L32 55ZM49 55L49 56L50 56L50 55ZM2 57L2 58L3 58L3 57ZM7 57L7 58L11 58L11 57ZM30 57L30 58L31 58L31 57ZM16 58L16 59L17 59L17 61L16 61L16 62L18 62L18 59L17 59L17 58ZM32 58L32 59L31 59L31 60L32 60L32 59L33 59L33 58ZM9 59L9 61L14 61L14 60L12 60L12 59L11 59L11 60L10 60L10 59ZM48 59L48 61L49 61L49 60L50 60L50 61L51 61L51 60L50 60L50 59ZM3 60L3 61L5 61L5 60ZM19 60L19 61L20 61L20 62L21 62L21 61L22 61L22 62L23 62L23 61L22 61L22 60L21 60L21 61L20 61L20 60ZM67 60L67 61L68 61L68 60ZM33 61L33 64L36 64L36 61ZM61 61L61 64L64 64L64 61ZM12 62L12 63L13 63L13 62ZM34 62L34 63L35 63L35 62ZM37 62L37 63L38 63L38 62ZM43 62L43 65L44 65L44 63L45 63L45 62ZM62 62L62 63L63 63L63 62ZM68 62L68 63L69 63L69 62ZM18 63L18 64L19 64L19 63ZM29 63L29 65L30 65L30 66L28 66L28 67L30 67L30 66L31 66L31 67L32 67L32 68L33 68L33 67L34 67L34 68L35 68L35 67L36 67L36 65L33 65L33 66L32 66L32 64L31 64L31 65L30 65L30 63ZM41 63L41 65L42 65L42 63ZM46 63L46 64L47 64L47 63ZM23 64L23 65L24 65L24 64ZM50 64L50 65L51 65L51 64ZM68 64L68 65L69 65L69 64ZM64 65L64 66L66 66L66 65ZM20 66L20 67L21 67L21 68L22 68L22 69L24 69L24 68L22 68L22 66ZM48 66L48 67L49 67L49 66ZM15 67L15 68L16 68L16 67ZM18 67L18 69L19 69L19 67ZM38 68L38 69L39 69L39 68ZM40 68L40 69L43 69L43 68ZM68 68L68 69L69 69L69 68ZM0 0L0 7L7 7L7 0ZM1 1L1 6L6 6L6 1ZM2 2L2 5L5 5L5 2ZM62 0L62 7L69 7L69 0ZM63 1L63 6L68 6L68 1ZM64 2L64 5L67 5L67 2ZM0 62L0 69L7 69L7 62ZM1 63L1 68L6 68L6 63ZM2 64L2 67L5 67L5 64Z" fill="#000000"/></g></g></svg>
