<?xml version="1.0" encoding="UTF-8"?>
<svg xmlns="http://www.w3.org/2000/svg" version="1.1" width="300" height="300" viewBox="0 0 300 300"><rect x="0" y="0" width="300" height="300" fill="#ffffff"/><g transform="scale(4.348)"><g transform="translate(0,0)"><path fill-rule="evenodd" d="M8 0L8 1L11 1L11 3L12 3L12 4L11 4L11 5L12 5L12 9L13 9L13 10L11 10L11 11L10 11L10 9L11 9L11 6L10 6L10 7L9 7L9 6L8 6L8 7L9 7L9 8L8 8L8 9L9 9L9 11L7 11L7 10L6 10L6 9L7 9L7 8L6 8L6 9L5 9L5 11L4 11L4 12L3 12L3 16L2 16L2 17L1 17L1 18L2 18L2 17L3 17L3 21L0 21L0 23L1 23L1 22L2 22L2 23L3 23L3 24L4 24L4 25L3 25L3 26L2 26L2 24L1 24L1 25L0 25L0 32L1 32L1 29L2 29L2 33L1 33L1 35L3 35L3 36L2 36L2 37L1 37L1 36L0 36L0 40L1 40L1 41L2 41L2 42L3 42L3 41L4 41L4 43L3 43L3 44L2 44L2 45L3 45L3 46L4 46L4 47L2 47L2 46L1 46L1 45L0 45L0 46L1 46L1 50L0 50L0 52L1 52L1 51L2 51L2 52L3 52L3 50L4 50L4 49L5 49L5 48L6 48L6 49L8 49L8 51L7 51L7 50L5 50L5 54L4 54L4 56L5 56L5 57L7 57L7 56L9 56L9 55L7 55L7 54L6 54L6 53L10 53L10 57L9 57L9 58L4 58L4 59L9 59L9 60L8 60L8 62L9 62L9 60L10 60L10 61L11 61L11 63L10 63L10 64L9 64L9 65L8 65L8 69L9 69L9 66L10 66L10 67L11 67L11 66L12 66L12 65L11 65L11 64L13 64L13 63L16 63L16 64L15 64L15 66L14 66L14 68L10 68L10 69L14 69L14 68L15 68L15 69L16 69L16 67L17 67L17 66L18 66L18 68L17 68L17 69L18 69L18 68L19 68L19 69L24 69L24 68L29 68L29 69L30 69L30 68L31 68L31 67L32 67L32 68L34 68L34 69L35 69L35 68L34 68L34 67L35 67L35 65L37 65L37 63L38 63L38 64L39 64L39 66L38 66L38 68L39 68L39 69L42 69L42 68L43 68L43 67L42 67L42 68L40 68L40 67L41 67L41 66L42 66L42 65L40 65L40 64L41 64L41 62L39 62L39 61L40 61L40 60L41 60L41 61L42 61L42 60L41 60L41 59L42 59L42 58L43 58L43 56L41 56L41 55L40 55L40 56L39 56L39 55L37 55L37 53L36 53L36 52L39 52L39 53L38 53L38 54L39 54L39 53L40 53L40 52L41 52L41 54L42 54L42 55L43 55L43 54L44 54L44 55L46 55L46 54L47 54L47 55L48 55L48 56L49 56L49 57L47 57L47 58L49 58L49 59L48 59L48 60L45 60L45 61L44 61L44 59L45 59L45 58L44 58L44 59L43 59L43 61L44 61L44 62L43 62L43 63L44 63L44 64L43 64L43 65L45 65L45 63L47 63L47 62L46 62L46 61L49 61L49 62L48 62L48 64L49 64L49 63L50 63L50 64L51 64L51 66L53 66L53 68L52 68L52 67L50 67L50 66L49 66L49 65L46 65L46 68L45 68L45 69L47 69L47 67L48 67L48 68L49 68L49 69L54 69L54 67L55 67L55 66L54 66L54 65L52 65L52 64L55 64L55 65L56 65L56 66L59 66L59 67L56 67L56 68L59 68L59 69L63 69L63 66L62 66L62 65L64 65L64 66L65 66L65 67L66 67L66 66L68 66L68 65L69 65L69 64L68 64L68 63L65 63L65 61L67 61L67 60L66 60L66 59L69 59L69 57L68 57L68 58L66 58L66 57L67 57L67 56L69 56L69 55L67 55L67 54L66 54L66 52L68 52L68 54L69 54L69 52L68 52L68 51L67 51L67 50L68 50L68 47L69 47L69 46L67 46L67 45L68 45L68 44L67 44L67 45L66 45L66 46L63 46L63 43L62 43L62 42L60 42L60 40L55 40L55 39L54 39L54 38L53 38L53 37L54 37L54 35L55 35L55 38L56 38L56 39L60 39L60 37L65 37L65 38L63 38L63 40L61 40L61 41L63 41L63 42L64 42L64 44L65 44L65 43L68 43L68 42L66 42L66 40L67 40L67 41L69 41L69 40L67 40L67 38L66 38L66 37L68 37L68 38L69 38L69 37L68 37L68 36L69 36L69 33L68 33L68 32L65 32L65 29L64 29L64 28L62 28L62 27L63 27L63 24L62 24L62 23L61 23L61 22L62 22L62 21L63 21L63 22L64 22L64 24L66 24L66 23L65 23L65 22L67 22L67 23L68 23L68 24L67 24L67 25L69 25L69 22L68 22L68 21L67 21L67 20L69 20L69 19L68 19L68 18L69 18L69 17L68 17L68 16L69 16L69 15L68 15L68 16L67 16L67 15L66 15L66 14L67 14L67 13L68 13L68 14L69 14L69 13L68 13L68 11L69 11L69 10L67 10L67 8L64 8L64 9L63 9L63 10L62 10L62 8L61 8L61 9L60 9L60 8L57 8L57 11L55 11L55 10L56 10L56 9L54 9L54 8L51 8L51 3L53 3L53 4L55 4L55 5L56 5L56 3L55 3L55 1L56 1L56 0L51 0L51 1L50 1L50 0L49 0L49 1L48 1L48 0L47 0L47 2L46 2L46 1L45 1L45 0L44 0L44 2L43 2L43 3L41 3L41 4L38 4L38 0L34 0L34 2L33 2L33 1L32 1L32 0L31 0L31 1L32 1L32 2L33 2L33 3L32 3L32 4L31 4L31 3L28 3L28 2L29 2L29 0L28 0L28 2L27 2L27 1L25 1L25 0L23 0L23 1L19 1L19 0L16 0L16 3L17 3L17 4L18 4L18 5L19 5L19 4L20 4L20 5L22 5L22 7L21 7L21 6L20 6L20 7L21 7L21 8L19 8L19 6L18 6L18 8L16 8L16 7L17 7L17 6L16 6L16 7L15 7L15 5L16 5L16 4L15 4L15 1L13 1L13 2L14 2L14 3L12 3L12 0ZM41 0L41 1L40 1L40 2L42 2L42 1L43 1L43 0ZM57 0L57 1L61 1L61 0ZM18 1L18 2L17 2L17 3L19 3L19 1ZM23 1L23 2L24 2L24 3L26 3L26 4L23 4L23 3L22 3L22 4L23 4L23 5L24 5L24 6L23 6L23 7L22 7L22 8L21 8L21 9L20 9L20 10L22 10L22 11L20 11L20 12L21 12L21 14L20 14L20 13L18 13L18 14L19 14L19 15L17 15L17 13L16 13L16 11L17 11L17 12L18 12L18 11L19 11L19 8L18 8L18 11L17 11L17 9L14 9L14 8L15 8L15 7L14 7L14 5L15 5L15 4L14 4L14 5L13 5L13 7L14 7L14 8L13 8L13 9L14 9L14 11L11 11L11 12L10 12L10 11L9 11L9 12L8 12L8 13L6 13L6 12L7 12L7 11L6 11L6 12L5 12L5 13L6 13L6 14L4 14L4 16L7 16L7 15L6 15L6 14L8 14L8 16L9 16L9 18L12 18L12 19L14 19L14 20L11 20L11 19L10 19L10 20L7 20L7 19L6 19L6 18L8 18L8 17L4 17L4 18L5 18L5 20L4 20L4 22L5 22L5 23L6 23L6 24L7 24L7 23L6 23L6 22L7 22L7 21L8 21L8 23L9 23L9 24L10 24L10 23L11 23L11 24L12 24L12 21L14 21L14 22L13 22L13 23L15 23L15 24L14 24L14 25L13 25L13 27L12 27L12 25L10 25L10 28L11 28L11 29L12 29L12 30L10 30L10 29L9 29L9 31L8 31L8 32L9 32L9 31L10 31L10 33L12 33L12 36L11 36L11 34L10 34L10 36L9 36L9 38L8 38L8 37L4 37L4 36L3 36L3 37L2 37L2 39L1 39L1 40L2 40L2 41L3 41L3 40L4 40L4 41L5 41L5 40L8 40L8 41L6 41L6 42L7 42L7 43L6 43L6 44L5 44L5 43L4 43L4 45L5 45L5 46L7 46L7 47L6 47L6 48L8 48L8 49L9 49L9 50L10 50L10 51L8 51L8 52L10 52L10 53L11 53L11 54L12 54L12 56L11 56L11 57L12 57L12 56L13 56L13 57L15 57L15 59L16 59L16 60L15 60L15 61L16 61L16 62L17 62L17 63L20 63L20 64L21 64L21 63L22 63L22 65L23 65L23 63L22 63L22 62L25 62L25 64L26 64L26 66L25 66L25 65L24 65L24 66L23 66L23 67L21 67L21 65L20 65L20 67L19 67L19 68L20 68L20 67L21 67L21 68L23 68L23 67L27 67L27 65L28 65L28 66L29 66L29 67L31 67L31 66L30 66L30 65L31 65L31 62L32 62L32 60L35 60L35 58L36 58L36 57L35 57L35 58L34 58L34 59L32 59L32 58L31 58L31 62L30 62L30 63L28 63L28 62L29 62L29 61L28 61L28 59L30 59L30 58L29 58L29 57L31 57L31 56L37 56L37 55L35 55L35 54L36 54L36 53L35 53L35 51L41 51L41 52L44 52L44 50L45 50L45 48L46 48L46 50L47 50L47 48L46 48L46 47L47 47L47 44L48 44L48 45L50 45L50 48L49 48L49 49L50 49L50 48L51 48L51 47L52 47L52 49L51 49L51 50L50 50L50 52L49 52L49 51L47 51L47 54L49 54L49 55L51 55L51 56L50 56L50 58L51 58L51 56L55 56L55 57L56 57L56 58L55 58L55 59L56 59L56 61L55 61L55 60L54 60L54 57L52 57L52 60L51 60L51 59L49 59L49 60L51 60L51 62L50 62L50 63L54 63L54 62L56 62L56 61L57 61L57 60L58 60L58 62L57 62L57 63L56 63L56 64L57 64L57 65L60 65L60 66L61 66L61 65L60 65L60 64L58 64L58 63L59 63L59 61L60 61L60 60L59 60L59 59L58 59L58 58L60 58L60 59L61 59L61 60L62 60L62 59L61 59L61 56L62 56L62 57L63 57L63 59L66 59L66 58L65 58L65 56L67 56L67 55L65 55L65 54L62 54L62 55L61 55L61 54L60 54L60 53L59 53L59 49L60 49L60 50L61 50L61 51L60 51L60 52L61 52L61 53L62 53L62 51L63 51L63 50L62 50L62 48L64 48L64 52L63 52L63 53L65 53L65 51L66 51L66 49L67 49L67 46L66 46L66 48L64 48L64 47L61 47L61 48L59 48L59 47L58 47L58 46L62 46L62 45L60 45L60 44L59 44L59 43L58 43L58 41L57 41L57 42L55 42L55 41L54 41L54 39L53 39L53 38L52 38L52 37L53 37L53 36L51 36L51 35L54 35L54 34L52 34L52 33L50 33L50 34L48 34L48 33L49 33L49 31L51 31L51 32L52 32L52 31L53 31L53 32L54 32L54 33L56 33L56 34L57 34L57 35L56 35L56 37L58 37L58 38L59 38L59 37L60 37L60 34L59 34L59 33L57 33L57 31L61 31L61 32L63 32L63 31L62 31L62 30L64 30L64 29L62 29L62 28L58 28L58 29L60 29L60 30L57 30L57 29L56 29L56 32L55 32L55 31L53 31L53 28L54 28L54 30L55 30L55 28L54 28L54 27L53 27L53 25L54 25L54 26L55 26L55 27L56 27L56 28L57 28L57 27L61 27L61 25L62 25L62 24L61 24L61 25L59 25L59 24L58 24L58 23L57 23L57 22L59 22L59 21L62 21L62 20L63 20L63 19L64 19L64 20L65 20L65 21L66 21L66 20L67 20L67 18L68 18L68 17L67 17L67 16L66 16L66 17L67 17L67 18L65 18L65 15L64 15L64 13L66 13L66 12L67 12L67 10L66 10L66 12L64 12L64 10L65 10L65 9L64 9L64 10L63 10L63 14L62 14L62 15L61 15L61 13L62 13L62 12L60 12L60 11L57 11L57 12L56 12L56 13L54 13L54 14L55 14L55 15L53 15L53 12L54 12L54 11L53 11L53 12L51 12L51 14L49 14L49 13L50 13L50 12L49 12L49 13L46 13L46 12L44 12L44 10L43 10L43 12L41 12L41 13L42 13L42 14L43 14L43 15L41 15L41 14L40 14L40 11L42 11L42 10L40 10L40 9L38 9L38 8L40 8L40 6L39 6L39 5L38 5L38 4L37 4L37 1L35 1L35 2L36 2L36 3L33 3L33 4L37 4L37 9L38 9L38 13L39 13L39 14L40 14L40 17L41 17L41 16L42 16L42 18L43 18L43 19L41 19L41 21L39 21L39 23L38 23L38 22L35 22L35 21L36 21L36 20L37 20L37 19L38 19L38 20L39 20L39 17L37 17L37 19L34 19L34 18L33 18L33 19L34 19L34 20L35 20L35 21L33 21L33 20L30 20L30 19L32 19L32 18L31 18L31 16L29 16L29 15L27 15L27 13L28 13L28 14L29 14L29 12L26 12L26 10L27 10L27 11L28 11L28 10L30 10L30 12L31 12L31 10L33 10L33 11L32 11L32 13L31 13L31 15L32 15L32 16L33 16L33 14L36 14L36 15L34 15L34 17L35 17L35 18L36 18L36 17L35 17L35 16L38 16L38 15L37 15L37 12L36 12L36 9L34 9L34 10L33 10L33 9L32 9L32 8L31 8L31 10L30 10L30 9L27 9L27 8L28 8L28 6L29 6L29 7L30 7L30 6L29 6L29 4L28 4L28 5L27 5L27 3L26 3L26 2L24 2L24 1ZM51 1L51 2L50 2L50 3L49 3L49 4L50 4L50 3L51 3L51 2L53 2L53 1ZM8 2L8 5L10 5L10 2ZM20 2L20 3L21 3L21 2ZM58 2L58 3L59 3L59 2ZM44 3L44 4L45 4L45 3ZM46 3L46 5L45 5L45 8L44 8L44 6L43 6L43 4L41 4L41 5L42 5L42 6L41 6L41 7L42 7L42 6L43 6L43 9L45 9L45 10L46 10L46 11L47 11L47 12L48 12L48 11L47 11L47 9L46 9L46 8L48 8L48 9L50 9L50 10L49 10L49 11L50 11L50 10L52 10L52 9L51 9L51 8L49 8L49 7L50 7L50 5L47 5L47 3ZM60 3L60 5L61 5L61 3ZM58 4L58 5L57 5L57 6L56 6L56 7L55 7L55 6L54 6L54 7L55 7L55 8L56 8L56 7L57 7L57 6L58 6L58 7L59 7L59 4ZM25 5L25 6L24 6L24 7L23 7L23 8L22 8L22 9L23 9L23 12L24 12L24 13L25 13L25 14L24 14L24 16L23 16L23 14L21 14L21 16L20 16L20 19L19 19L19 18L17 18L17 20L16 20L16 19L15 19L15 18L16 18L16 17L15 17L15 15L16 15L16 16L17 16L17 15L16 15L16 14L14 14L14 17L15 17L15 18L14 18L14 19L15 19L15 20L16 20L16 21L15 21L15 22L16 22L16 24L15 24L15 25L14 25L14 26L17 26L17 27L16 27L16 28L17 28L17 29L15 29L15 27L14 27L14 29L13 29L13 30L12 30L12 33L13 33L13 34L14 34L14 33L15 33L15 32L13 32L13 31L14 31L14 30L15 30L15 31L16 31L16 32L17 32L17 30L18 30L18 31L19 31L19 29L18 29L18 28L17 28L17 27L19 27L19 26L17 26L17 25L20 25L20 27L21 27L21 30L20 30L20 31L21 31L21 32L22 32L22 34L19 34L19 33L17 33L17 34L19 34L19 36L17 36L17 35L16 35L16 36L17 36L17 37L19 37L19 38L22 38L22 39L23 39L23 41L21 41L21 45L23 45L23 46L22 46L22 47L19 47L19 46L20 46L20 45L18 45L18 44L20 44L20 42L19 42L19 41L20 41L20 40L21 40L21 39L20 39L20 40L19 40L19 41L18 41L18 40L17 40L17 39L18 39L18 38L17 38L17 39L15 39L15 38L16 38L16 37L15 37L15 35L14 35L14 37L13 37L13 36L12 36L12 38L13 38L13 39L14 39L14 40L13 40L13 41L16 41L16 42L18 42L18 43L17 43L17 45L18 45L18 48L16 48L16 49L15 49L15 51L14 51L14 48L12 48L12 46L13 46L13 47L16 47L16 46L14 46L14 44L15 44L15 42L13 42L13 43L14 43L14 44L9 44L9 43L10 43L10 42L9 42L9 41L8 41L8 43L7 43L7 44L6 44L6 45L8 45L8 48L9 48L9 47L10 47L10 48L12 48L12 49L10 49L10 50L12 50L12 49L13 49L13 51L10 51L10 52L11 52L11 53L12 53L12 52L13 52L13 54L14 54L14 52L15 52L15 55L13 55L13 56L16 56L16 59L17 59L17 58L18 58L18 60L17 60L17 62L20 62L20 63L21 63L21 61L20 61L20 59L19 59L19 58L20 58L20 57L21 57L21 58L22 58L22 56L23 56L23 57L24 57L24 58L25 58L25 61L26 61L26 59L28 59L28 58L27 58L27 57L24 57L24 56L23 56L23 55L25 55L25 56L26 56L26 55L25 55L25 54L22 54L22 56L19 56L19 57L18 57L18 56L16 56L16 54L17 54L17 55L19 55L19 54L18 54L18 53L16 53L16 52L15 52L15 51L17 51L17 52L18 52L18 51L17 51L17 50L18 50L18 48L23 48L23 47L24 47L24 49L25 49L25 50L27 50L27 51L26 51L26 52L25 52L25 51L24 51L24 50L23 50L23 49L21 49L21 50L20 50L20 49L19 49L19 53L22 53L22 51L24 51L24 53L28 53L28 55L27 55L27 56L28 56L28 55L29 55L29 54L30 54L30 55L31 55L31 53L32 53L32 55L34 55L34 54L35 54L35 53L33 53L33 52L32 52L32 49L31 49L31 48L32 48L32 47L30 47L30 48L29 48L29 46L28 46L28 48L29 48L29 49L31 49L31 50L27 50L27 49L25 49L25 46L26 46L26 47L27 47L27 46L26 46L26 45L23 45L23 44L22 44L22 42L25 42L25 43L24 43L24 44L27 44L27 45L28 45L28 44L27 44L27 42L29 42L29 45L30 45L30 46L31 46L31 45L30 45L30 44L32 44L32 45L33 45L33 46L34 46L34 47L35 47L35 48L37 48L37 49L36 49L36 50L40 50L40 49L38 49L38 48L39 48L39 47L40 47L40 48L42 48L42 49L44 49L44 48L43 48L43 47L44 47L44 46L45 46L45 45L46 45L46 44L47 44L47 42L48 42L48 44L49 44L49 42L48 42L48 41L46 41L46 40L47 40L47 39L45 39L45 38L46 38L46 37L47 37L47 38L51 38L51 37L50 37L50 36L47 36L47 35L46 35L46 34L45 34L45 33L44 33L44 34L45 34L45 35L43 35L43 32L42 32L42 33L41 33L41 31L40 31L40 30L41 30L41 29L42 29L42 28L43 28L43 29L44 29L44 31L45 31L45 32L47 32L47 33L48 33L48 32L47 32L47 31L49 31L49 29L47 29L47 28L46 28L46 27L48 27L48 26L46 26L46 25L47 25L47 24L48 24L48 25L49 25L49 28L50 28L50 29L51 29L51 31L52 31L52 27L51 27L51 23L46 23L46 25L44 25L44 23L43 23L43 22L44 22L44 21L43 21L43 20L42 20L42 23L41 23L41 22L40 22L40 23L39 23L39 24L38 24L38 23L37 23L37 24L36 24L36 23L35 23L35 22L33 22L33 21L31 21L31 23L32 23L32 22L33 22L33 24L36 24L36 25L37 25L37 26L38 26L38 27L35 27L35 25L31 25L31 24L30 24L30 20L29 20L29 22L28 22L28 23L29 23L29 24L30 24L30 25L31 25L31 26L30 26L30 27L28 27L28 28L30 28L30 27L31 27L31 28L33 28L33 29L32 29L32 30L31 30L31 31L30 31L30 29L27 29L27 28L26 28L26 27L27 27L27 26L28 26L28 25L26 25L26 24L27 24L27 23L26 23L26 21L24 21L24 19L26 19L26 20L27 20L27 18L24 18L24 16L26 16L26 17L28 17L28 18L29 18L29 17L28 17L28 16L26 16L26 12L25 12L25 10L24 10L24 9L23 9L23 8L24 8L24 7L25 7L25 6L26 6L26 7L27 7L27 6L26 6L26 5ZM33 5L33 8L36 8L36 5ZM46 5L46 7L47 7L47 5ZM31 6L31 7L32 7L32 6ZM34 6L34 7L35 7L35 6ZM38 6L38 7L39 7L39 6ZM48 6L48 7L49 7L49 6ZM52 6L52 7L53 7L53 6ZM60 6L60 7L61 7L61 6ZM0 8L0 9L3 9L3 10L4 10L4 8ZM9 8L9 9L10 9L10 8ZM41 8L41 9L42 9L42 8ZM68 8L68 9L69 9L69 8ZM58 9L58 10L59 10L59 9ZM0 10L0 11L1 11L1 12L0 12L0 13L1 13L1 15L2 15L2 13L1 13L1 12L2 12L2 10ZM15 10L15 11L16 11L16 10ZM34 10L34 11L33 11L33 13L32 13L32 14L33 14L33 13L36 13L36 12L35 12L35 10ZM39 10L39 11L40 11L40 10ZM9 12L9 13L8 13L8 14L10 14L10 15L9 15L9 16L10 16L10 17L12 17L12 18L13 18L13 17L12 17L12 14L10 14L10 12ZM12 12L12 13L14 13L14 12ZM43 12L43 13L44 13L44 12ZM59 12L59 13L60 13L60 12ZM45 13L45 15L44 15L44 16L43 16L43 18L44 18L44 20L45 20L45 21L46 21L46 19L47 19L47 21L48 21L48 22L50 22L50 21L51 21L51 22L55 22L55 23L56 23L56 24L57 24L57 23L56 23L56 22L57 22L57 21L59 21L59 20L60 20L60 19L61 19L61 18L60 18L60 17L64 17L64 15L62 15L62 16L61 16L61 15L60 15L60 14L58 14L58 13L57 13L57 15L59 15L59 16L56 16L56 15L55 15L55 16L53 16L53 17L52 17L52 15L51 15L51 16L50 16L50 15L49 15L49 14L48 14L48 15L49 15L49 16L50 16L50 17L52 17L52 18L51 18L51 19L50 19L50 21L48 21L48 19L49 19L49 18L47 18L47 16L46 16L46 17L45 17L45 15L47 15L47 14L46 14L46 13ZM18 16L18 17L19 17L19 16ZM22 16L22 17L21 17L21 18L22 18L22 19L20 19L20 22L19 22L19 19L18 19L18 22L19 22L19 23L21 23L21 26L22 26L22 27L23 27L23 28L22 28L22 30L21 30L21 31L23 31L23 32L24 32L24 31L23 31L23 30L25 30L25 29L24 29L24 27L25 27L25 25L24 25L24 27L23 27L23 25L22 25L22 24L24 24L24 23L21 23L21 20L23 20L23 19L24 19L24 18L22 18L22 17L23 17L23 16ZM44 17L44 18L45 18L45 17ZM54 17L54 18L55 18L55 22L56 22L56 21L57 21L57 20L59 20L59 19L60 19L60 18L58 18L58 19L57 19L57 18L56 18L56 17ZM62 18L62 19L63 19L63 18ZM51 19L51 20L52 20L52 19ZM53 19L53 21L54 21L54 19ZM56 19L56 20L57 20L57 19ZM6 20L6 21L7 21L7 20ZM10 20L10 21L11 21L11 20ZM22 21L22 22L23 22L23 21ZM17 23L17 24L16 24L16 25L17 25L17 24L18 24L18 23ZM42 23L42 24L39 24L39 25L40 25L40 26L39 26L39 29L38 29L38 28L36 28L36 29L37 29L37 31L38 31L38 32L40 32L40 31L38 31L38 30L39 30L39 29L41 29L41 28L42 28L42 27L44 27L44 28L45 28L45 29L46 29L46 28L45 28L45 27L46 27L46 26L45 26L45 27L44 27L44 25L42 25L42 24L43 24L43 23ZM52 23L52 24L54 24L54 25L55 25L55 26L56 26L56 25L55 25L55 24L54 24L54 23ZM49 24L49 25L50 25L50 24ZM6 25L6 26L5 26L5 29L6 29L6 30L5 30L5 31L4 31L4 28L3 28L3 27L4 27L4 26L3 26L3 27L2 27L2 26L1 26L1 28L3 28L3 31L4 31L4 32L3 32L3 33L2 33L2 34L4 34L4 32L7 32L7 31L6 31L6 30L7 30L7 29L8 29L8 27L6 27L6 26L7 26L7 25ZM8 25L8 26L9 26L9 25ZM57 25L57 26L58 26L58 25ZM64 25L64 27L66 27L66 30L67 30L67 31L68 31L68 30L69 30L69 29L67 29L67 27L66 27L66 26L65 26L65 25ZM32 26L32 27L33 27L33 28L34 28L34 30L35 30L35 27L33 27L33 26ZM41 26L41 27L42 27L42 26ZM11 27L11 28L12 28L12 27ZM50 27L50 28L51 28L51 27ZM6 28L6 29L7 29L7 28ZM26 29L26 30L27 30L27 29ZM28 30L28 32L27 32L27 31L25 31L25 34L24 34L24 35L23 35L23 36L21 36L21 35L20 35L20 36L21 36L21 37L22 37L22 38L24 38L24 39L25 39L25 40L24 40L24 41L25 41L25 40L27 40L27 41L28 41L28 40L29 40L29 42L31 42L31 43L35 43L35 42L36 42L36 44L37 44L37 42L38 42L38 46L39 46L39 44L40 44L40 45L41 45L41 47L42 47L42 45L43 45L43 46L44 46L44 45L45 45L45 44L46 44L46 42L45 42L45 41L43 41L43 40L45 40L45 39L44 39L44 38L45 38L45 36L44 36L44 38L43 38L43 35L41 35L41 36L39 36L39 34L40 34L40 33L38 33L38 34L37 34L37 35L38 35L38 37L37 37L37 39L38 39L38 41L36 41L36 39L35 39L35 40L34 40L34 42L32 42L32 40L33 40L33 39L34 39L34 38L36 38L36 37L32 37L32 35L31 35L31 34L32 34L32 33L31 33L31 32L30 32L30 31L29 31L29 30ZM32 30L32 31L33 31L33 30ZM26 32L26 33L27 33L27 32ZM28 32L28 35L27 35L27 34L25 34L25 35L24 35L24 36L25 36L25 37L26 37L26 38L27 38L27 39L31 39L31 40L30 40L30 41L31 41L31 40L32 40L32 39L33 39L33 38L32 38L32 37L31 37L31 35L29 35L29 33L30 33L30 34L31 34L31 33L30 33L30 32ZM5 33L5 36L8 36L8 33ZM33 33L33 36L36 36L36 33ZM61 33L61 36L64 36L64 33ZM65 33L65 35L66 35L66 36L65 36L65 37L66 37L66 36L67 36L67 35L66 35L66 34L68 34L68 33ZM6 34L6 35L7 35L7 34ZM34 34L34 35L35 35L35 34ZM50 34L50 35L51 35L51 34ZM58 34L58 35L57 35L57 36L58 36L58 37L59 37L59 34ZM62 34L62 35L63 35L63 34ZM28 35L28 36L26 36L26 37L28 37L28 38L29 38L29 35ZM10 36L10 37L11 37L11 36ZM30 37L30 38L31 38L31 37ZM38 37L38 38L39 38L39 42L40 42L40 43L43 43L43 42L42 42L42 41L41 41L41 42L40 42L40 40L41 40L41 39L42 39L42 38L41 38L41 39L40 39L40 37ZM6 38L6 39L7 39L7 38ZM9 38L9 39L8 39L8 40L10 40L10 41L12 41L12 39L11 39L11 38ZM2 39L2 40L3 40L3 39ZM48 39L48 40L49 40L49 39ZM50 39L50 40L51 40L51 42L50 42L50 43L51 43L51 45L53 45L53 47L54 47L54 49L55 49L55 50L56 50L56 49L55 49L55 47L56 47L56 48L58 48L58 47L56 47L56 45L55 45L55 44L54 44L54 43L53 43L53 44L52 44L52 42L54 42L54 41L52 41L52 40L53 40L53 39L52 39L52 40L51 40L51 39ZM16 40L16 41L17 41L17 40ZM0 42L0 43L1 43L1 42ZM11 42L11 43L12 43L12 42ZM44 42L44 43L45 43L45 42ZM56 43L56 44L58 44L58 45L59 45L59 44L58 44L58 43ZM41 44L41 45L42 45L42 44ZM53 44L53 45L54 45L54 44ZM10 45L10 46L12 46L12 45ZM34 45L34 46L35 46L35 45ZM36 45L36 47L37 47L37 48L38 48L38 47L37 47L37 45ZM4 47L4 48L5 48L5 47ZM2 48L2 50L3 50L3 48ZM16 49L16 50L17 50L17 49ZM52 49L52 52L51 52L51 55L54 55L54 54L53 54L53 53L52 53L52 52L55 52L55 54L57 54L57 55L55 55L55 56L57 56L57 57L59 57L59 56L61 56L61 55L60 55L60 54L59 54L59 53L58 53L58 52L55 52L55 51L54 51L54 50L53 50L53 49ZM57 49L57 50L58 50L58 49ZM34 50L34 51L35 51L35 50ZM6 51L6 52L7 52L7 51ZM28 51L28 52L29 52L29 53L31 53L31 52L29 52L29 51ZM45 51L45 53L46 53L46 51ZM2 53L2 54L0 54L0 56L1 56L1 57L2 57L2 59L3 59L3 57L2 57L2 56L3 56L3 53ZM42 53L42 54L43 54L43 53ZM6 55L6 56L7 56L7 55ZM57 55L57 56L59 56L59 55ZM64 55L64 56L65 56L65 55ZM45 56L45 57L46 57L46 56ZM38 57L38 58L37 58L37 59L36 59L36 60L37 60L37 59L38 59L38 60L40 60L40 58L39 58L39 57ZM0 58L0 61L1 61L1 58ZM10 58L10 60L11 60L11 58ZM13 58L13 59L12 59L12 60L13 60L13 61L12 61L12 62L14 62L14 58ZM38 58L38 59L39 59L39 58ZM56 58L56 59L57 59L57 58ZM3 60L3 61L5 61L5 60ZM6 60L6 61L7 61L7 60ZM23 60L23 61L24 61L24 60ZM68 60L68 62L69 62L69 60ZM33 61L33 64L36 64L36 61ZM61 61L61 64L64 64L64 61ZM26 62L26 64L27 64L27 62ZM34 62L34 63L35 63L35 62ZM62 62L62 63L63 63L63 62ZM16 64L16 65L17 65L17 64ZM18 64L18 66L19 66L19 64ZM33 65L33 67L34 67L34 65ZM65 65L65 66L66 66L66 65ZM15 66L15 67L16 67L16 66ZM39 66L39 67L40 67L40 66ZM44 66L44 67L45 67L45 66ZM49 67L49 68L50 68L50 67ZM59 67L59 68L61 68L61 67ZM68 67L68 68L69 68L69 67ZM64 68L64 69L65 69L65 68ZM66 68L66 69L67 69L67 68ZM0 0L0 7L7 7L7 0ZM1 1L1 6L6 6L6 1ZM2 2L2 5L5 5L5 2ZM62 0L62 7L69 7L69 0ZM63 1L63 6L68 6L68 1ZM64 2L64 5L67 5L67 2ZM0 62L0 69L7 69L7 62ZM1 63L1 68L6 68L6 63ZM2 64L2 67L5 67L5 64Z" fill="#000000"/></g></g></svg>
