<?xml version="1.0" encoding="UTF-8"?>
<svg xmlns="http://www.w3.org/2000/svg" version="1.1" width="300" height="300" viewBox="0 0 300 300"><rect x="0" y="0" width="300" height="300" fill="#ffffff"/><g transform="scale(4.348)"><g transform="translate(0,0)"><path fill-rule="evenodd" d="M8 0L8 1L11 1L11 4L9 4L9 3L10 3L10 2L8 2L8 5L11 5L11 6L10 6L10 8L11 8L11 6L12 6L12 8L13 8L13 9L14 9L14 8L13 8L13 6L14 6L14 7L15 7L15 5L16 5L16 4L17 4L17 6L16 6L16 8L17 8L17 9L18 9L18 10L16 10L16 9L15 9L15 10L14 10L14 12L13 12L13 10L11 10L11 9L9 9L9 8L8 8L8 9L7 9L7 8L6 8L6 9L4 9L4 8L0 8L0 10L2 10L2 9L3 9L3 10L4 10L4 12L5 12L5 13L3 13L3 12L1 12L1 11L0 11L0 12L1 12L1 13L2 13L2 15L3 15L3 16L0 16L0 17L4 17L4 18L5 18L5 19L8 19L8 21L7 21L7 20L6 20L6 21L7 21L7 22L6 22L6 23L7 23L7 24L6 24L6 25L4 25L4 23L3 23L3 24L2 24L2 20L3 20L3 21L4 21L4 22L5 22L5 21L4 21L4 19L2 19L2 18L0 18L0 19L1 19L1 21L0 21L0 23L1 23L1 24L2 24L2 25L4 25L4 27L3 27L3 29L1 29L1 28L0 28L0 33L1 33L1 34L0 34L0 35L1 35L1 36L0 36L0 39L2 39L2 40L1 40L1 42L2 42L2 45L4 45L4 46L3 46L3 49L5 49L5 50L4 50L4 52L3 52L3 54L4 54L4 56L3 56L3 55L2 55L2 53L1 53L1 51L2 51L2 50L1 50L1 49L2 49L2 47L1 47L1 45L0 45L0 50L1 50L1 51L0 51L0 53L1 53L1 55L2 55L2 56L0 56L0 61L1 61L1 57L2 57L2 59L3 59L3 58L4 58L4 59L7 59L7 60L6 60L6 61L7 61L7 60L8 60L8 59L7 59L7 58L6 58L6 57L7 57L7 56L8 56L8 55L9 55L9 56L10 56L10 54L12 54L12 55L14 55L14 57L12 57L12 56L11 56L11 57L10 57L10 58L9 58L9 57L8 57L8 58L9 58L9 60L10 60L10 61L8 61L8 62L9 62L9 65L8 65L8 69L10 69L10 67L12 67L12 65L13 65L13 68L11 68L11 69L15 69L15 68L16 68L16 67L17 67L17 69L18 69L18 68L19 68L19 69L24 69L24 67L26 67L26 68L29 68L29 69L30 69L30 67L32 67L32 68L33 68L33 69L34 69L34 67L35 67L35 66L36 66L36 67L38 67L38 68L39 68L39 69L43 69L43 67L41 67L41 66L42 66L42 65L40 65L40 64L41 64L41 62L39 62L39 61L40 61L40 60L41 60L41 61L42 61L42 60L41 60L41 59L42 59L42 58L43 58L43 56L41 56L41 55L40 55L40 56L39 56L39 55L38 55L38 56L37 56L37 57L36 57L36 56L35 56L35 54L36 54L36 55L37 55L37 54L36 54L36 53L33 53L33 48L32 48L32 47L31 47L31 48L29 48L29 46L28 46L28 47L27 47L27 45L26 45L26 47L27 47L27 48L29 48L29 50L27 50L27 49L25 49L25 47L23 47L23 49L22 49L22 50L23 50L23 51L21 51L21 50L20 50L20 49L19 49L19 52L20 52L20 53L22 53L22 56L21 56L21 58L22 58L22 56L23 56L23 57L24 57L24 58L25 58L25 59L26 59L26 58L27 58L27 61L26 61L26 60L25 60L25 61L26 61L26 64L25 64L25 66L24 66L24 63L25 63L25 62L24 62L24 63L22 63L22 61L20 61L20 59L19 59L19 60L18 60L18 59L17 59L17 58L20 58L20 57L18 57L18 56L19 56L19 53L17 53L17 52L16 52L16 53L15 53L15 55L14 55L14 53L13 53L13 52L15 52L15 51L16 51L16 48L15 48L15 46L14 46L14 47L13 47L13 46L12 46L12 45L15 45L15 44L14 44L14 43L15 43L15 41L16 41L16 42L17 42L17 43L18 43L18 42L19 42L19 43L20 43L20 44L19 44L19 45L18 45L18 44L17 44L17 45L18 45L18 48L17 48L17 50L18 50L18 48L20 48L20 47L19 47L19 46L20 46L20 44L21 44L21 47L22 47L22 46L25 46L25 45L24 45L24 44L25 44L25 43L27 43L27 44L28 44L28 43L29 43L29 45L30 45L30 46L31 46L31 45L30 45L30 44L31 44L31 43L30 43L30 42L29 42L29 41L28 41L28 37L27 37L27 39L26 39L26 37L25 37L25 36L24 36L24 35L25 35L25 31L27 31L27 30L26 30L26 29L28 29L28 35L26 35L26 36L28 36L28 35L29 35L29 39L31 39L31 40L30 40L30 41L31 41L31 40L32 40L32 39L33 39L33 41L32 41L32 43L33 43L33 41L34 41L34 42L36 42L36 41L34 41L34 39L36 39L36 40L37 40L37 41L38 41L38 40L39 40L39 42L38 42L38 43L37 43L37 44L36 44L36 45L37 45L37 47L36 47L36 46L34 46L34 45L35 45L35 44L32 44L32 45L33 45L33 47L35 47L35 48L37 48L37 47L40 47L40 48L42 48L42 49L44 49L44 48L43 48L43 47L45 47L45 46L43 46L43 45L42 45L42 44L41 44L41 45L40 45L40 44L39 44L39 42L40 42L40 43L43 43L43 44L45 44L45 42L46 42L46 43L47 43L47 42L48 42L48 44L46 44L46 45L47 45L47 47L46 47L46 48L45 48L45 50L44 50L44 52L43 52L43 51L42 51L42 52L41 52L41 54L42 54L42 55L43 55L43 54L44 54L44 55L46 55L46 54L47 54L47 55L48 55L48 56L49 56L49 57L48 57L48 58L50 58L50 60L51 60L51 59L52 59L52 57L53 57L53 58L54 58L54 59L53 59L53 60L54 60L54 61L56 61L56 63L53 63L53 61L52 61L52 63L51 63L51 64L50 64L50 62L51 62L51 61L49 61L49 59L48 59L48 60L45 60L45 58L44 58L44 59L43 59L43 61L44 61L44 62L43 62L43 63L44 63L44 64L43 64L43 65L45 65L45 63L46 63L46 61L49 61L49 62L48 62L48 63L47 63L47 64L50 64L50 65L52 65L52 64L56 64L56 65L55 65L55 66L54 66L54 65L53 65L53 66L54 66L54 68L49 68L49 67L50 67L50 66L49 66L49 65L48 65L48 66L47 66L47 65L46 65L46 68L45 68L45 69L48 69L48 68L49 68L49 69L54 69L54 68L55 68L55 69L56 69L56 67L58 67L58 66L59 66L59 68L60 68L60 69L61 69L61 68L63 68L63 67L62 67L62 66L59 66L59 64L58 64L58 65L57 65L57 62L58 62L58 61L59 61L59 62L60 62L60 65L64 65L64 66L66 66L66 67L67 67L67 66L68 66L68 65L69 65L69 63L65 63L65 60L66 60L66 59L67 59L67 61L68 61L68 62L69 62L69 61L68 61L68 59L69 59L69 58L68 58L68 57L69 57L69 56L68 56L68 57L67 57L67 58L64 58L64 59L65 59L65 60L62 60L62 59L63 59L63 55L62 55L62 54L65 54L65 53L66 53L66 54L67 54L67 55L68 55L68 54L69 54L69 52L68 52L68 51L67 51L67 50L68 50L68 48L69 48L69 45L68 45L68 41L67 41L67 39L66 39L66 38L67 38L67 37L68 37L68 38L69 38L69 37L68 37L68 36L69 36L69 31L68 31L68 30L69 30L69 27L68 27L68 28L67 28L67 27L65 27L65 25L66 25L66 26L67 26L67 25L69 25L69 22L67 22L67 24L66 24L66 23L65 23L65 22L64 22L64 24L65 24L65 25L63 25L63 23L61 23L61 24L62 24L62 27L61 27L61 28L62 28L62 29L63 29L63 32L62 32L62 30L61 30L61 32L60 32L60 31L59 31L59 30L60 30L60 29L59 29L59 28L60 28L60 27L59 27L59 26L58 26L58 24L59 24L59 23L58 23L58 24L57 24L57 21L59 21L59 22L62 22L62 20L63 20L63 21L66 21L66 20L63 20L63 18L62 18L62 19L61 19L61 21L60 21L60 20L58 20L58 19L55 19L55 18L60 18L60 17L64 17L64 15L65 15L65 19L67 19L67 20L69 20L69 19L68 19L68 18L69 18L69 17L68 17L68 18L66 18L66 16L67 16L67 15L66 15L66 14L69 14L69 12L68 12L68 11L69 11L69 10L67 10L67 8L64 8L64 9L63 9L63 10L62 10L62 8L60 8L60 9L59 9L59 8L57 8L57 9L56 9L56 7L57 7L57 6L58 6L58 7L59 7L59 4L58 4L58 3L59 3L59 2L58 2L58 1L61 1L61 0L51 0L51 1L50 1L50 0L49 0L49 1L48 1L48 0L47 0L47 1L45 1L45 0L44 0L44 2L43 2L43 6L42 6L42 5L41 5L41 6L40 6L40 7L41 7L41 8L39 8L39 6L38 6L38 7L37 7L37 4L38 4L38 5L40 5L40 4L38 4L38 1L37 1L37 3L36 3L36 2L35 2L35 1L34 1L34 2L33 2L33 1L32 1L32 0L31 0L31 1L32 1L32 3L29 3L29 6L28 6L28 4L27 4L27 5L26 5L26 4L25 4L25 0L23 0L23 2L21 2L21 1L19 1L19 0L17 0L17 1L15 1L15 0L13 0L13 1L11 1L11 0ZM28 0L28 2L27 2L27 1L26 1L26 3L28 3L28 2L29 2L29 1L30 1L30 0ZM41 0L41 1L40 1L40 2L39 2L39 3L41 3L41 2L42 2L42 1L43 1L43 0ZM13 1L13 2L12 2L12 4L13 4L13 5L12 5L12 6L13 6L13 5L14 5L14 4L13 4L13 2L15 2L15 3L19 3L19 4L18 4L18 6L17 6L17 8L18 8L18 9L20 9L20 11L19 11L19 13L17 13L17 14L19 14L19 13L20 13L20 12L21 12L21 15L17 15L17 17L16 17L16 19L15 19L15 16L16 16L16 15L15 15L15 14L16 14L16 12L14 12L14 13L13 13L13 12L12 12L12 15L11 15L11 16L10 16L10 14L11 14L11 13L10 13L10 11L9 11L9 9L8 9L8 10L7 10L7 9L6 9L6 10L7 10L7 11L5 11L5 12L7 12L7 13L6 13L6 14L3 14L3 15L6 15L6 16L5 16L5 18L7 18L7 17L8 17L8 16L7 16L7 15L6 15L6 14L9 14L9 18L8 18L8 19L9 19L9 18L10 18L10 17L11 17L11 20L14 20L14 22L13 22L13 24L14 24L14 25L15 25L15 21L16 21L16 22L17 22L17 23L21 23L21 26L20 26L20 28L16 28L16 27L18 27L18 26L19 26L19 25L18 25L18 26L15 26L15 29L17 29L17 30L14 30L14 26L11 26L11 25L10 25L10 23L11 23L11 21L9 21L9 22L7 22L7 23L8 23L8 24L9 24L9 25L6 25L6 26L7 26L7 27L4 27L4 28L5 28L5 29L6 29L6 30L7 30L7 31L6 31L6 32L7 32L7 31L8 31L8 32L9 32L9 35L10 35L10 34L11 34L11 35L12 35L12 36L9 36L9 38L8 38L8 39L10 39L10 40L13 40L13 39L10 39L10 38L11 38L11 37L12 37L12 36L14 36L14 35L15 35L15 37L13 37L13 38L14 38L14 40L15 40L15 37L16 37L16 38L19 38L19 39L17 39L17 40L16 40L16 41L19 41L19 42L21 42L21 43L23 43L23 44L24 44L24 43L25 43L25 42L26 42L26 40L25 40L25 37L23 37L23 35L24 35L24 34L23 34L23 33L24 33L24 32L23 32L23 31L20 31L20 30L22 30L22 29L23 29L23 28L24 28L24 27L26 27L26 28L29 28L29 32L30 32L30 33L29 33L29 35L32 35L32 32L31 32L31 31L33 31L33 30L32 30L32 29L34 29L34 30L35 30L35 27L37 27L37 28L36 28L36 30L37 30L37 29L38 29L38 30L39 30L39 29L41 29L41 30L40 30L40 31L38 31L38 32L40 32L40 31L41 31L41 33L42 33L42 32L43 32L43 35L45 35L45 34L46 34L46 35L47 35L47 36L49 36L49 35L51 35L51 36L50 36L50 37L49 37L49 38L48 38L48 37L46 37L46 38L45 38L45 36L44 36L44 38L43 38L43 37L42 37L42 35L41 35L41 36L39 36L39 35L38 35L38 37L37 37L37 40L38 40L38 39L41 39L41 40L40 40L40 42L41 42L41 41L42 41L42 42L43 42L43 43L44 43L44 42L45 42L45 41L43 41L43 40L45 40L45 39L47 39L47 40L46 40L46 41L49 41L49 44L48 44L48 45L49 45L49 44L53 44L53 45L50 45L50 46L49 46L49 47L47 47L47 48L46 48L46 50L47 50L47 51L49 51L49 52L47 52L47 54L48 54L48 55L49 55L49 54L50 54L50 55L51 55L51 56L50 56L50 58L51 58L51 56L52 56L52 54L51 54L51 51L52 51L52 53L53 53L53 51L52 51L52 50L47 50L47 48L49 48L49 49L51 49L51 46L53 46L53 45L54 45L54 44L53 44L53 43L54 43L54 42L55 42L55 45L56 45L56 46L54 46L54 47L52 47L52 49L53 49L53 50L54 50L54 51L55 51L55 52L57 52L57 50L56 50L56 51L55 51L55 49L53 49L53 48L54 48L54 47L56 47L56 49L58 49L58 50L59 50L59 49L61 49L61 47L60 47L60 48L59 48L59 45L60 45L60 46L62 46L62 45L63 45L63 46L66 46L66 48L65 48L65 49L64 49L64 50L65 50L65 51L63 51L63 50L61 50L61 51L59 51L59 52L58 52L58 53L54 53L54 54L53 54L53 56L54 56L54 57L55 57L55 58L57 58L57 59L54 59L54 60L56 60L56 61L57 61L57 59L59 59L59 61L60 61L60 58L62 58L62 57L61 57L61 56L60 56L60 55L61 55L61 54L59 54L59 57L58 57L58 56L54 56L54 55L55 55L55 54L56 54L56 55L58 55L58 53L59 53L59 52L60 52L60 53L65 53L65 51L66 51L66 49L67 49L67 48L68 48L68 47L67 47L67 46L68 46L68 45L67 45L67 43L65 43L65 42L66 42L66 41L65 41L65 42L64 42L64 44L66 44L66 45L63 45L63 41L64 41L64 40L63 40L63 38L65 38L65 37L66 37L66 36L67 36L67 34L68 34L68 33L65 33L65 34L66 34L66 36L65 36L65 37L61 37L61 39L60 39L60 38L59 38L59 37L58 37L58 34L59 34L59 36L60 36L60 34L59 34L59 33L57 33L57 32L56 32L56 30L55 30L55 28L57 28L57 31L58 31L58 32L59 32L59 31L58 31L58 27L56 27L56 26L55 26L55 24L56 24L56 25L57 25L57 24L56 24L56 22L55 22L55 23L53 23L53 24L51 24L51 23L50 23L50 25L51 25L51 27L50 27L50 26L48 26L48 24L47 24L47 25L46 25L46 23L47 23L47 22L48 22L48 21L49 21L49 20L50 20L50 22L51 22L51 20L52 20L52 19L50 19L50 18L53 18L53 21L52 21L52 22L53 22L53 21L54 21L54 18L55 18L55 16L53 16L53 15L55 15L55 13L58 13L58 14L57 14L57 15L56 15L56 16L57 16L57 15L58 15L58 14L59 14L59 12L60 12L60 15L59 15L59 16L58 16L58 17L59 17L59 16L60 16L60 15L61 15L61 16L62 16L62 15L63 15L63 14L62 14L62 15L61 15L61 12L62 12L62 10L60 10L60 11L59 11L59 12L56 12L56 11L55 11L55 10L53 10L53 9L50 9L50 10L51 10L51 12L50 12L50 11L49 11L49 12L50 12L50 13L51 13L51 14L49 14L49 13L47 13L47 12L48 12L48 11L47 11L47 9L46 9L46 8L48 8L48 9L49 9L49 7L50 7L50 8L52 8L52 6L53 6L53 7L54 7L54 8L55 8L55 7L56 7L56 6L57 6L57 5L55 5L55 4L57 4L57 3L58 3L58 2L57 2L57 3L56 3L56 1L54 1L54 3L52 3L52 2L53 2L53 1L52 1L52 2L50 2L50 4L52 4L52 5L51 5L51 7L50 7L50 5L49 5L49 4L47 4L47 3L46 3L46 5L45 5L45 8L44 8L44 6L43 6L43 9L45 9L45 10L46 10L46 11L45 11L45 12L44 12L44 10L43 10L43 12L41 12L41 13L42 13L42 14L43 14L43 15L41 15L41 14L40 14L40 11L42 11L42 10L41 10L41 9L42 9L42 8L41 8L41 9L38 9L38 8L37 8L37 9L38 9L38 11L39 11L39 12L38 12L38 13L37 13L37 12L36 12L36 9L35 9L35 12L36 12L36 13L37 13L37 14L36 14L36 15L34 15L34 21L33 21L33 20L32 20L32 22L31 22L31 19L32 19L32 17L31 17L31 16L30 16L30 15L32 15L32 16L33 16L33 14L35 14L35 13L34 13L34 11L32 11L32 13L29 13L29 12L27 12L27 11L30 11L30 12L31 12L31 10L30 10L30 9L28 9L28 8L29 8L29 7L30 7L30 6L29 6L29 7L28 7L28 6L27 6L27 7L26 7L26 5L25 5L25 4L23 4L23 3L24 3L24 2L23 2L23 3L21 3L21 2L20 2L20 3L19 3L19 2L18 2L18 1L17 1L17 2L15 2L15 1ZM20 3L20 4L19 4L19 6L18 6L18 7L19 7L19 8L22 8L22 9L23 9L23 11L22 11L22 10L21 10L21 11L22 11L22 12L23 12L23 13L22 13L22 16L20 16L20 19L19 19L19 18L18 18L18 19L16 19L16 20L17 20L17 22L18 22L18 20L19 20L19 22L20 22L20 19L21 19L21 23L23 23L23 24L22 24L22 25L23 25L23 27L24 27L24 25L25 25L25 26L28 26L28 27L30 27L30 28L33 28L33 27L34 27L34 26L33 26L33 27L32 27L32 26L31 26L31 27L30 27L30 26L28 26L28 25L29 25L29 24L30 24L30 25L31 25L31 24L30 24L30 20L27 20L27 21L26 21L26 24L24 24L24 22L25 22L25 21L24 21L24 17L25 17L25 16L26 16L26 17L28 17L28 18L29 18L29 17L28 17L28 16L26 16L26 13L25 13L25 10L24 10L24 9L23 9L23 8L22 8L22 7L23 7L23 6L24 6L24 7L25 7L25 8L26 8L26 7L25 7L25 5L23 5L23 4L21 4L21 3ZM32 3L32 4L33 4L33 3ZM34 3L34 4L35 4L35 3ZM44 3L44 4L45 4L45 3ZM54 3L54 4L55 4L55 3ZM60 3L60 5L61 5L61 3ZM30 4L30 5L31 5L31 4ZM21 5L21 7L22 7L22 5ZM33 5L33 8L36 8L36 5ZM46 5L46 7L47 7L47 5ZM8 6L8 7L9 7L9 6ZM19 6L19 7L20 7L20 6ZM31 6L31 7L32 7L32 6ZM34 6L34 7L35 7L35 6ZM41 6L41 7L42 7L42 6ZM48 6L48 7L49 7L49 6ZM54 6L54 7L55 7L55 6ZM60 6L60 7L61 7L61 6ZM27 7L27 8L28 8L28 7ZM68 8L68 9L69 9L69 8ZM26 9L26 11L27 11L27 9ZM58 9L58 10L59 10L59 9ZM64 9L64 11L63 11L63 13L64 13L64 14L65 14L65 13L68 13L68 12L67 12L67 10L66 10L66 12L64 12L64 11L65 11L65 9ZM15 10L15 11L16 11L16 10ZM39 10L39 11L40 11L40 10ZM52 11L52 12L53 12L53 13L52 13L52 14L51 14L51 16L50 16L50 15L49 15L49 14L48 14L48 15L49 15L49 17L48 17L48 18L47 18L47 17L46 17L46 19L45 19L45 18L44 18L44 17L45 17L45 16L47 16L47 14L46 14L46 13L45 13L45 14L44 14L44 16L43 16L43 18L42 18L42 16L41 16L41 17L40 17L40 14L39 14L39 13L38 13L38 15L39 15L39 16L37 16L37 15L36 15L36 16L37 16L37 17L35 17L35 21L34 21L34 22L32 22L32 23L33 23L33 25L34 25L34 24L35 24L35 25L36 25L36 24L42 24L42 25L44 25L44 27L45 27L45 28L43 28L43 27L42 27L42 26L41 26L41 27L42 27L42 28L41 28L41 29L42 29L42 28L43 28L43 29L44 29L44 30L43 30L43 31L44 31L44 30L45 30L45 28L46 28L46 31L47 31L47 35L49 35L49 34L50 34L50 33L52 33L52 34L55 34L55 35L54 35L54 36L55 36L55 37L56 37L56 38L57 38L57 39L56 39L56 40L54 40L54 41L53 41L53 42L54 42L54 41L57 41L57 43L59 43L59 42L60 42L60 44L62 44L62 41L63 41L63 40L58 40L58 39L59 39L59 38L58 38L58 37L56 37L56 36L55 36L55 35L56 35L56 34L57 34L57 33L56 33L56 34L55 34L55 32L54 32L54 33L53 33L53 32L52 32L52 31L55 31L55 30L54 30L54 27L55 27L55 26L54 26L54 27L53 27L53 25L52 25L52 27L51 27L51 28L50 28L50 27L49 27L49 28L50 28L50 29L51 29L51 30L52 30L52 31L51 31L51 32L49 32L49 33L48 33L48 31L49 31L49 29L47 29L47 26L46 26L46 25L44 25L44 23L43 23L43 24L42 24L42 22L44 22L44 21L43 21L43 20L42 20L42 21L41 21L41 19L43 19L43 18L44 18L44 20L45 20L45 21L46 21L46 19L48 19L48 18L49 18L49 17L52 17L52 15L53 15L53 13L55 13L55 11L54 11L54 12L53 12L53 11ZM60 11L60 12L61 12L61 11ZM23 13L23 16L22 16L22 17L24 17L24 16L25 16L25 15L24 15L24 14L25 14L25 13ZM27 13L27 14L28 14L28 15L30 15L30 14L28 14L28 13ZM32 13L32 14L33 14L33 13ZM0 14L0 15L1 15L1 14ZM13 14L13 15L12 15L12 16L11 16L11 17L12 17L12 19L14 19L14 20L15 20L15 19L14 19L14 16L15 16L15 15L14 15L14 14ZM13 15L13 16L12 16L12 17L13 17L13 16L14 16L14 15ZM68 15L68 16L69 16L69 15ZM6 16L6 17L7 17L7 16ZM18 16L18 17L19 17L19 16ZM30 17L30 18L31 18L31 17ZM37 17L37 19L36 19L36 21L35 21L35 22L34 22L34 23L35 23L35 24L36 24L36 23L38 23L38 22L37 22L37 19L38 19L38 20L40 20L40 19L39 19L39 17ZM53 17L53 18L54 18L54 17ZM22 19L22 20L23 20L23 19ZM25 19L25 20L26 20L26 19ZM47 20L47 21L48 21L48 20ZM55 20L55 21L57 21L57 20ZM22 21L22 22L23 22L23 21ZM27 21L27 22L28 22L28 23L27 23L27 24L26 24L26 25L27 25L27 24L29 24L29 21ZM9 22L9 23L10 23L10 22ZM39 22L39 23L41 23L41 22ZM16 24L16 25L17 25L17 24ZM37 25L37 27L39 27L39 26L40 26L40 25ZM0 26L0 27L1 27L1 26ZM8 26L8 27L7 27L7 28L6 28L6 29L7 29L7 30L8 30L8 29L9 29L9 30L10 30L10 29L9 29L9 28L12 28L12 27L10 27L10 26ZM21 26L21 29L22 29L22 26ZM45 26L45 27L46 27L46 26ZM63 26L63 27L62 27L62 28L63 28L63 29L64 29L64 30L65 30L65 32L68 32L68 31L67 31L67 30L68 30L68 29L67 29L67 30L66 30L66 29L65 29L65 28L64 28L64 26ZM8 27L8 28L9 28L9 27ZM52 27L52 29L53 29L53 27ZM3 29L3 30L2 30L2 31L3 31L3 32L2 32L2 34L1 34L1 35L2 35L2 36L1 36L1 37L3 37L3 36L4 36L4 35L3 35L3 34L4 34L4 33L3 33L3 32L4 32L4 31L5 31L5 30L4 30L4 29ZM11 29L11 31L14 31L14 30L13 30L13 29ZM18 29L18 31L19 31L19 32L20 32L20 31L19 31L19 29ZM24 29L24 30L25 30L25 29ZM30 30L30 31L31 31L31 30ZM15 31L15 32L14 32L14 33L13 33L13 35L14 35L14 33L15 33L15 34L16 34L16 35L17 35L17 37L19 37L19 38L21 38L21 36L20 36L20 35L23 35L23 34L22 34L22 33L23 33L23 32L21 32L21 34L19 34L19 33L17 33L17 34L16 34L16 32L17 32L17 31ZM10 32L10 33L11 33L11 32ZM26 32L26 33L27 33L27 32ZM45 32L45 33L44 33L44 34L45 34L45 33L46 33L46 32ZM5 33L5 36L8 36L8 33ZM30 33L30 34L31 34L31 33ZM33 33L33 36L36 36L36 33ZM38 33L38 34L40 34L40 33ZM61 33L61 36L64 36L64 33ZM6 34L6 35L7 35L7 34ZM18 34L18 36L19 36L19 34ZM34 34L34 35L35 35L35 34ZM62 34L62 35L63 35L63 34ZM31 36L31 37L30 37L30 38L33 38L33 39L34 39L34 38L35 38L35 37L32 37L32 36ZM6 37L6 38L7 38L7 37ZM22 37L22 39L23 39L23 37ZM38 37L38 38L39 38L39 37ZM50 37L50 39L49 39L49 40L50 40L50 39L52 39L52 40L51 40L51 42L50 42L50 43L51 43L51 42L52 42L52 40L53 40L53 39L54 39L54 38L51 38L51 37ZM3 38L3 39L4 39L4 38ZM41 38L41 39L43 39L43 38ZM44 38L44 39L45 39L45 38ZM5 39L5 40L7 40L7 39ZM19 39L19 41L20 41L20 40L21 40L21 39ZM68 39L68 40L69 40L69 39ZM3 40L3 41L2 41L2 42L3 42L3 44L4 44L4 45L5 45L5 46L7 46L7 47L5 47L5 49L6 49L6 50L5 50L5 52L4 52L4 54L7 54L7 53L5 53L5 52L8 52L8 53L11 53L11 52L13 52L13 51L15 51L15 49L14 49L14 50L13 50L13 51L12 51L12 50L10 50L10 51L9 51L9 49L8 49L8 48L10 48L10 49L11 49L11 48L10 48L10 47L11 47L11 46L9 46L9 45L12 45L12 44L13 44L13 43L12 43L12 42L13 42L13 41L11 41L11 42L10 42L10 41L9 41L9 40L8 40L8 41L4 41L4 40ZM23 40L23 41L21 41L21 42L25 42L25 41L24 41L24 40ZM57 40L57 41L58 41L58 40ZM6 42L6 43L7 43L7 44L5 44L5 45L7 45L7 46L8 46L8 45L9 45L9 44L10 44L10 42L9 42L9 44L8 44L8 43L7 43L7 42ZM27 42L27 43L28 43L28 42ZM0 43L0 44L1 44L1 43ZM11 43L11 44L12 44L12 43ZM7 44L7 45L8 45L8 44ZM37 44L37 45L38 45L38 46L39 46L39 44ZM41 45L41 47L42 47L42 45ZM66 45L66 46L67 46L67 45ZM16 46L16 47L17 47L17 46ZM57 46L57 48L58 48L58 46ZM6 48L6 49L7 49L7 50L6 50L6 51L7 51L7 50L8 50L8 49L7 49L7 48ZM31 48L31 49L32 49L32 48ZM62 48L62 49L63 49L63 48ZM23 49L23 50L25 50L25 51L24 51L24 52L27 52L27 50L25 50L25 49ZM36 49L36 50L34 50L34 51L35 51L35 52L39 52L39 53L38 53L38 54L40 54L40 51L38 51L38 50L40 50L40 49ZM36 50L36 51L37 51L37 50ZM8 51L8 52L9 52L9 51ZM10 51L10 52L11 52L11 51ZM28 51L28 52L29 52L29 55L28 55L28 53L24 53L24 54L23 54L23 56L24 56L24 57L25 57L25 56L26 56L26 57L27 57L27 58L28 58L28 59L29 59L29 57L31 57L31 55L32 55L32 57L33 57L33 58L31 58L31 59L30 59L30 60L31 60L31 59L32 59L32 60L35 60L35 59L36 59L36 60L37 60L37 58L38 58L38 59L39 59L39 60L38 60L38 61L39 61L39 60L40 60L40 58L39 58L39 57L37 57L37 58L36 58L36 57L33 57L33 55L34 55L34 54L33 54L33 55L32 55L32 53L31 53L31 52L32 52L32 51ZM45 51L45 53L46 53L46 51ZM61 51L61 52L63 52L63 51ZM22 52L22 53L23 53L23 52ZM42 52L42 54L43 54L43 52ZM67 52L67 53L68 53L68 52ZM16 54L16 56L15 56L15 57L14 57L14 59L16 59L16 60L15 60L15 61L14 61L14 64L13 64L13 63L12 63L12 62L13 62L13 61L12 61L12 60L13 60L13 58L12 58L12 57L11 57L11 59L10 59L10 60L11 60L11 62L10 62L10 64L13 64L13 65L14 65L14 67L16 67L16 66L15 66L15 65L14 65L14 64L15 64L15 63L16 63L16 62L17 62L17 63L19 63L19 64L18 64L18 66L17 66L17 67L19 67L19 68L20 68L20 67L21 67L21 68L22 68L22 66L23 66L23 64L22 64L22 63L21 63L21 62L20 62L20 63L19 63L19 62L18 62L18 61L17 61L17 59L16 59L16 56L18 56L18 55L17 55L17 54ZM26 54L26 56L27 56L27 57L29 57L29 56L28 56L28 55L27 55L27 54ZM30 54L30 55L31 55L31 54ZM6 55L6 56L5 56L5 57L4 57L4 58L5 58L5 57L6 57L6 56L7 56L7 55ZM64 55L64 56L65 56L65 57L66 57L66 56L65 56L65 55ZM2 56L2 57L3 57L3 56ZM45 56L45 57L46 57L46 56ZM59 57L59 58L60 58L60 57ZM11 59L11 60L12 60L12 59ZM21 59L21 60L23 60L23 59ZM3 60L3 61L5 61L5 60ZM28 60L28 63L27 63L27 64L26 64L26 67L27 67L27 65L28 65L28 66L29 66L29 65L30 65L30 66L31 66L31 64L30 64L30 63L29 63L29 60ZM44 60L44 61L45 61L45 60ZM15 61L15 62L16 62L16 61ZM30 61L30 62L32 62L32 61ZM33 61L33 64L36 64L36 61ZM61 61L61 64L64 64L64 61ZM34 62L34 63L35 63L35 62ZM62 62L62 63L63 63L63 62ZM20 63L20 64L19 64L19 67L20 67L20 65L22 65L22 64L21 64L21 63ZM28 63L28 64L29 64L29 63ZM16 64L16 65L17 65L17 64ZM67 64L67 65L68 65L68 64ZM9 65L9 67L10 67L10 65ZM36 65L36 66L37 66L37 65ZM38 65L38 66L39 66L39 67L40 67L40 68L41 68L41 67L40 67L40 66L39 66L39 65ZM56 65L56 66L57 66L57 65ZM33 66L33 67L34 67L34 66ZM44 66L44 67L45 67L45 66ZM51 66L51 67L52 67L52 66ZM60 67L60 68L61 68L61 67ZM64 67L64 69L66 69L66 68L65 68L65 67ZM68 67L68 68L69 68L69 67ZM0 0L0 7L7 7L7 0ZM1 1L1 6L6 6L6 1ZM2 2L2 5L5 5L5 2ZM62 0L62 7L69 7L69 0ZM63 1L63 6L68 6L68 1ZM64 2L64 5L67 5L67 2ZM0 62L0 69L7 69L7 62ZM1 63L1 68L6 68L6 63ZM2 64L2 67L5 67L5 64Z" fill="#000000"/></g></g></svg>
