<?xml version="1.0" encoding="UTF-8"?>
<svg xmlns="http://www.w3.org/2000/svg" version="1.1" width="300" height="300" viewBox="0 0 300 300"><rect x="0" y="0" width="300" height="300" fill="#ffffff"/><g transform="scale(4.348)"><g transform="translate(0,0)"><path fill-rule="evenodd" d="M8 0L8 4L9 4L9 5L8 5L8 7L9 7L9 6L10 6L10 8L12 8L12 10L13 10L13 9L15 9L15 10L14 10L14 11L11 11L11 10L8 10L8 9L7 9L7 8L4 8L4 9L2 9L2 8L0 8L0 10L1 10L1 9L2 9L2 12L0 12L0 15L1 15L1 16L0 16L0 17L1 17L1 18L2 18L2 17L1 17L1 16L4 16L4 17L3 17L3 18L4 18L4 19L3 19L3 23L1 23L1 22L2 22L2 21L1 21L1 20L2 20L2 19L0 19L0 24L2 24L2 25L1 25L1 26L2 26L2 27L0 27L0 29L2 29L2 28L3 28L3 27L4 27L4 30L1 30L1 31L0 31L0 32L1 32L1 31L2 31L2 34L1 34L1 33L0 33L0 34L1 34L1 36L0 36L0 37L1 37L1 38L0 38L0 41L1 41L1 38L2 38L2 42L1 42L1 43L0 43L0 44L1 44L1 43L2 43L2 44L3 44L3 45L2 45L2 46L1 46L1 45L0 45L0 47L2 47L2 48L0 48L0 55L2 55L2 54L3 54L3 57L2 57L2 56L1 56L1 58L0 58L0 61L1 61L1 58L2 58L2 59L3 59L3 57L4 57L4 59L7 59L7 58L8 58L8 54L9 54L9 53L10 53L10 52L9 52L9 51L12 51L12 52L11 52L11 53L12 53L12 54L11 54L11 57L12 57L12 62L11 62L11 61L10 61L10 60L11 60L11 58L10 58L10 57L9 57L9 59L8 59L8 62L9 62L9 63L8 63L8 65L9 65L9 66L10 66L10 65L13 65L13 64L10 64L10 65L9 65L9 63L10 63L10 62L11 62L11 63L14 63L14 67L13 67L13 68L12 68L12 67L11 67L11 68L10 68L10 67L8 67L8 69L14 69L14 67L15 67L15 68L17 68L17 69L19 69L19 68L17 68L17 67L18 67L18 66L19 66L19 67L20 67L20 66L21 66L21 67L22 67L22 68L23 68L23 69L25 69L25 68L24 68L24 66L26 66L26 69L27 69L27 67L28 67L28 66L29 66L29 65L31 65L31 68L30 68L30 67L29 67L29 68L28 68L28 69L31 69L31 68L32 68L32 69L35 69L35 66L37 66L37 65L38 65L38 67L39 67L39 68L38 68L38 69L40 69L40 67L39 67L39 66L40 66L40 63L41 63L41 67L43 67L43 63L42 63L42 62L43 62L43 61L42 61L42 58L45 58L45 59L44 59L44 61L45 61L45 62L46 62L46 64L47 64L47 65L48 65L48 67L47 67L47 69L50 69L50 66L51 66L51 65L52 65L52 64L53 64L53 66L54 66L54 67L52 67L52 68L51 68L51 69L52 69L52 68L54 68L54 67L55 67L55 68L56 68L56 69L58 69L58 68L61 68L61 69L62 69L62 67L63 67L63 69L65 69L65 68L64 68L64 67L66 67L66 66L69 66L69 65L65 65L65 63L66 63L66 62L67 62L67 64L68 64L68 61L69 61L69 60L68 60L68 58L69 58L69 57L68 57L68 54L67 54L67 53L69 53L69 52L68 52L68 50L65 50L65 51L64 51L64 49L62 49L62 46L63 46L63 48L65 48L65 47L66 47L66 46L67 46L67 48L68 48L68 46L67 46L67 45L69 45L69 44L68 44L68 42L69 42L69 39L68 39L68 38L69 38L69 35L68 35L68 33L69 33L69 32L68 32L68 33L66 33L66 32L63 32L63 31L62 31L62 30L64 30L64 31L67 31L67 30L64 30L64 26L67 26L67 27L68 27L68 29L69 29L69 27L68 27L68 26L69 26L69 25L68 25L68 26L67 26L67 24L65 24L65 23L64 23L64 22L65 22L65 21L66 21L66 23L68 23L68 24L69 24L69 23L68 23L68 21L69 21L69 20L68 20L68 18L67 18L67 16L66 16L66 18L67 18L67 20L65 20L65 17L64 17L64 16L65 16L65 15L62 15L62 14L63 14L63 13L64 13L64 12L65 12L65 11L64 11L64 10L63 10L63 9L64 9L64 8L63 8L63 9L62 9L62 11L61 11L61 8L60 8L60 7L61 7L61 6L60 6L60 7L59 7L59 4L57 4L57 5L56 5L56 3L59 3L59 2L58 2L58 1L61 1L61 0L58 0L58 1L57 1L57 0L56 0L56 1L55 1L55 0L52 0L52 2L50 2L50 1L51 1L51 0L50 0L50 1L49 1L49 0L48 0L48 1L46 1L46 0L45 0L45 1L44 1L44 0L41 0L41 1L40 1L40 0L38 0L38 1L40 1L40 4L41 4L41 6L40 6L40 5L39 5L39 4L38 4L38 3L37 3L37 0L35 0L35 1L34 1L34 0L31 0L31 1L30 1L30 0L23 0L23 1L22 1L22 0L16 0L16 1L14 1L14 2L12 2L12 1L13 1L13 0L11 0L11 1L10 1L10 3L11 3L11 2L12 2L12 4L9 4L9 0ZM17 1L17 2L14 2L14 3L13 3L13 4L17 4L17 5L18 5L18 6L17 6L17 7L18 7L18 6L19 6L19 8L20 8L20 4L19 4L19 3L22 3L22 1L21 1L21 2L20 2L20 1ZM23 1L23 2L24 2L24 1ZM25 1L25 2L27 2L27 3L26 3L26 4L25 4L25 3L23 3L23 4L25 4L25 5L21 5L21 9L22 9L22 10L21 10L21 12L20 12L20 9L18 9L18 8L16 8L16 10L15 10L15 11L14 11L14 12L9 12L9 11L6 11L6 10L7 10L7 9L5 9L5 12L2 12L2 13L5 13L5 12L7 12L7 13L6 13L6 14L4 14L4 16L5 16L5 18L8 18L8 16L7 16L7 15L10 15L10 17L9 17L9 18L12 18L12 20L11 20L11 19L10 19L10 20L9 20L9 19L4 19L4 20L5 20L5 22L4 22L4 23L5 23L5 24L3 24L3 25L2 25L2 26L3 26L3 25L5 25L5 24L8 24L8 22L9 22L9 21L10 21L10 22L11 22L11 21L12 21L12 20L14 20L14 21L13 21L13 23L11 23L11 24L13 24L13 26L14 26L14 27L13 27L13 28L11 28L11 30L10 30L10 31L9 31L9 25L6 25L6 26L8 26L8 27L6 27L6 28L7 28L7 29L5 29L5 30L7 30L7 31L6 31L6 32L8 32L8 31L9 31L9 33L10 33L10 34L9 34L9 36L10 36L10 35L12 35L12 34L14 34L14 33L16 33L16 36L15 36L15 35L14 35L14 36L12 36L12 37L11 37L11 39L10 39L10 40L8 40L8 41L6 41L6 40L7 40L7 39L6 39L6 38L8 38L8 39L9 39L9 38L8 38L8 37L6 37L6 38L4 38L4 36L3 36L3 34L2 34L2 37L3 37L3 38L4 38L4 39L3 39L3 42L2 42L2 43L4 43L4 45L3 45L3 46L2 46L2 47L3 47L3 49L4 49L4 47L6 47L6 48L8 48L8 47L9 47L9 49L8 49L8 50L7 50L7 49L5 49L5 52L4 52L4 50L2 50L2 51L1 51L1 52L2 52L2 53L3 53L3 54L4 54L4 57L5 57L5 56L7 56L7 55L6 55L6 54L8 54L8 53L6 53L6 52L8 52L8 50L10 50L10 47L11 47L11 45L12 45L12 44L14 44L14 43L16 43L16 42L17 42L17 43L18 43L18 44L19 44L19 45L21 45L21 42L17 42L17 40L16 40L16 39L17 39L17 33L18 33L18 32L19 32L19 33L20 33L20 32L22 32L22 33L21 33L21 34L20 34L20 35L19 35L19 34L18 34L18 36L22 36L22 38L24 38L24 37L25 37L25 38L26 38L26 39L25 39L25 41L24 41L24 40L22 40L22 39L21 39L21 40L19 40L19 41L22 41L22 42L23 42L23 41L24 41L24 42L25 42L25 41L26 41L26 42L27 42L27 41L26 41L26 40L28 40L28 43L27 43L27 44L29 44L29 43L30 43L30 44L31 44L31 43L33 43L33 44L32 44L32 45L33 45L33 44L34 44L34 45L36 45L36 44L37 44L37 42L38 42L38 43L41 43L41 44L43 44L43 43L44 43L44 40L45 40L45 39L43 39L43 38L45 38L45 37L46 37L46 42L45 42L45 45L46 45L46 46L47 46L47 44L48 44L48 42L50 42L50 44L49 44L49 45L51 45L51 47L52 47L52 45L53 45L53 44L54 44L54 43L57 43L57 45L56 45L56 44L55 44L55 45L56 45L56 46L57 46L57 45L58 45L58 48L57 48L57 47L55 47L55 46L54 46L54 47L53 47L53 48L52 48L52 49L51 49L51 50L50 50L50 49L49 49L49 50L50 50L50 51L48 51L48 49L47 49L47 48L49 48L49 47L47 47L47 48L45 48L45 46L44 46L44 48L43 48L43 49L44 49L44 50L45 50L45 53L44 53L44 51L43 51L43 50L42 50L42 51L43 51L43 52L40 52L40 51L41 51L41 49L42 49L42 45L41 45L41 46L40 46L40 45L39 45L39 46L38 46L38 45L37 45L37 46L36 46L36 47L35 47L35 46L33 46L33 47L32 47L32 46L31 46L31 47L30 47L30 46L29 46L29 45L28 45L28 46L27 46L27 45L26 45L26 43L25 43L25 45L26 45L26 46L25 46L25 47L26 47L26 48L28 48L28 49L27 49L27 50L26 50L26 49L25 49L25 48L24 48L24 49L23 49L23 48L22 48L22 47L24 47L24 46L23 46L23 45L24 45L24 43L22 43L22 46L19 46L19 47L20 47L20 48L21 48L21 49L19 49L19 48L18 48L18 49L17 49L17 47L18 47L18 45L16 45L16 44L15 44L15 45L16 45L16 46L15 46L15 47L14 47L14 45L13 45L13 47L12 47L12 48L13 48L13 49L11 49L11 50L13 50L13 51L14 51L14 52L16 52L16 55L15 55L15 54L14 54L14 56L13 56L13 54L12 54L12 56L13 56L13 57L17 57L17 58L16 58L16 59L15 59L15 58L13 58L13 60L14 60L14 61L13 61L13 62L15 62L15 65L16 65L16 66L15 66L15 67L16 67L16 66L17 66L17 65L18 65L18 64L19 64L19 65L20 65L20 64L22 64L22 67L23 67L23 65L24 65L24 64L22 64L22 63L19 63L19 62L20 62L20 61L21 61L21 62L23 62L23 61L26 61L26 62L27 62L27 64L26 64L26 63L25 63L25 62L24 62L24 63L25 63L25 65L29 65L29 64L31 64L31 65L32 65L32 66L33 66L33 67L32 67L32 68L34 68L34 66L35 66L35 65L34 65L34 66L33 66L33 65L32 65L32 64L31 64L31 63L32 63L32 62L31 62L31 61L29 61L29 60L30 60L30 59L32 59L32 60L33 60L33 59L34 59L34 57L35 57L35 58L36 58L36 57L35 57L35 56L37 56L37 58L38 58L38 60L37 60L37 59L35 59L35 60L37 60L37 63L38 63L38 65L39 65L39 63L40 63L40 62L41 62L41 60L39 60L39 58L40 58L40 59L41 59L41 58L40 58L40 57L41 57L41 56L42 56L42 57L44 57L44 54L45 54L45 53L46 53L46 54L47 54L47 53L46 53L46 52L50 52L50 51L53 51L53 52L52 52L52 53L51 53L51 54L50 54L50 53L48 53L48 55L49 55L49 59L50 59L50 60L51 60L51 62L50 62L50 61L49 61L49 64L51 64L51 63L52 63L52 62L53 62L53 63L54 63L54 64L55 64L55 66L56 66L56 63L57 63L57 64L58 64L58 63L59 63L59 65L57 65L57 67L56 67L56 68L57 68L57 67L62 67L62 66L60 66L60 63L59 63L59 61L60 61L60 60L59 60L59 61L57 61L57 62L56 62L56 60L58 60L58 59L57 59L57 58L56 58L56 55L58 55L58 56L57 56L57 57L58 57L58 58L60 58L60 57L61 57L61 55L64 55L64 59L66 59L66 61L67 61L67 58L68 58L68 57L66 57L66 56L67 56L67 54L66 54L66 55L64 55L64 54L65 54L65 53L66 53L66 52L67 52L67 51L65 51L65 52L63 52L63 53L64 53L64 54L61 54L61 55L60 55L60 54L59 54L59 53L61 53L61 51L60 51L60 50L62 50L62 51L63 51L63 50L62 50L62 49L60 49L60 48L61 48L61 47L59 47L59 46L61 46L61 45L62 45L62 44L58 44L58 43L59 43L59 41L60 41L60 40L59 40L59 39L58 39L58 40L57 40L57 41L56 41L56 40L55 40L55 39L57 39L57 38L54 38L54 39L52 39L52 38L53 38L53 37L56 37L56 35L54 35L54 34L53 34L53 33L54 33L54 31L55 31L55 33L56 33L56 34L57 34L57 37L58 37L58 38L60 38L60 39L64 39L64 40L67 40L67 42L68 42L68 40L67 40L67 38L66 38L66 36L67 36L67 37L68 37L68 35L67 35L67 34L65 34L65 37L63 37L63 38L62 38L62 37L61 37L61 38L60 38L60 36L59 36L59 35L60 35L60 34L59 34L59 32L58 32L58 31L56 31L56 30L57 30L57 29L56 29L56 24L55 24L55 23L57 23L57 22L56 22L56 20L57 20L57 21L58 21L58 22L59 22L59 23L60 23L60 21L61 21L61 22L62 22L62 23L63 23L63 22L64 22L64 21L65 21L65 20L64 20L64 21L63 21L63 22L62 22L62 15L61 15L61 14L62 14L62 13L63 13L63 12L61 12L61 11L59 11L59 9L60 9L60 8L58 8L58 6L57 6L57 7L56 7L56 5L55 5L55 7L54 7L54 6L53 6L53 4L52 4L52 3L51 3L51 5L49 5L49 3L50 3L50 2L49 2L49 3L48 3L48 2L47 2L47 3L48 3L48 5L47 5L47 4L46 4L46 5L44 5L44 4L45 4L45 3L46 3L46 1L45 1L45 3L44 3L44 2L43 2L43 3L44 3L44 4L43 4L43 5L44 5L44 6L43 6L43 8L41 8L41 7L42 7L42 6L41 6L41 7L40 7L40 6L39 6L39 7L40 7L40 9L39 9L39 8L38 8L38 9L37 9L37 10L38 10L38 12L39 12L39 10L40 10L40 11L41 11L41 14L40 14L40 13L39 13L39 14L38 14L38 13L37 13L37 12L36 12L36 13L33 13L33 14L32 14L32 17L31 17L31 19L32 19L32 20L33 20L33 21L30 21L30 19L29 19L29 20L27 20L27 19L28 19L28 18L29 18L29 15L30 15L30 16L31 16L31 13L32 13L32 12L34 12L34 11L36 11L36 9L32 9L32 6L31 6L31 5L32 5L32 4L34 4L34 1L33 1L33 3L31 3L31 2L32 2L32 1L31 1L31 2L30 2L30 3L29 3L29 2L28 2L28 1ZM41 1L41 2L42 2L42 1ZM53 1L53 2L54 2L54 4L55 4L55 3L56 3L56 2L55 2L55 1ZM18 2L18 3L19 3L19 2ZM35 2L35 3L36 3L36 4L37 4L37 3L36 3L36 2ZM27 3L27 4L26 4L26 5L25 5L25 6L24 6L24 7L23 7L23 6L22 6L22 8L24 8L24 9L23 9L23 10L22 10L22 11L24 11L24 12L23 12L23 14L22 14L22 12L21 12L21 13L20 13L20 12L17 12L17 13L18 13L18 15L17 15L17 14L15 14L15 13L16 13L16 12L14 12L14 13L11 13L11 14L10 14L10 15L14 15L14 18L15 18L15 19L16 19L16 20L17 20L17 17L18 17L18 18L19 18L19 17L22 17L22 16L23 16L23 18L20 18L20 19L18 19L18 21L15 21L15 24L14 24L14 25L15 25L15 27L16 27L16 26L17 26L17 25L18 25L18 27L19 27L19 28L17 28L17 30L16 30L16 28L15 28L15 29L13 29L13 32L12 32L12 30L11 30L11 32L10 32L10 33L11 33L11 32L12 32L12 33L14 33L14 32L15 32L15 30L16 30L16 31L18 31L18 30L19 30L19 28L20 28L20 30L21 30L21 29L22 29L22 27L23 27L23 28L24 28L24 29L23 29L23 30L22 30L22 31L24 31L24 33L23 33L23 34L27 34L27 35L28 35L28 34L29 34L29 33L32 33L32 35L31 35L31 36L30 36L30 35L29 35L29 38L28 38L28 37L27 37L27 36L25 36L25 37L27 37L27 38L28 38L28 40L29 40L29 41L30 41L30 43L31 43L31 41L30 41L30 40L32 40L32 39L31 39L31 37L35 37L35 38L34 38L34 39L33 39L33 41L34 41L34 42L35 42L35 41L34 41L34 40L35 40L35 39L36 39L36 37L37 37L37 41L38 41L38 42L43 42L43 39L41 39L41 38L43 38L43 34L44 34L44 37L45 37L45 34L46 34L46 37L47 37L47 38L48 38L48 37L50 37L50 38L51 38L51 37L52 37L52 36L54 36L54 35L53 35L53 34L52 34L52 32L49 32L49 31L47 31L47 30L48 30L48 29L50 29L50 31L51 31L51 30L52 30L52 28L53 28L53 31L54 31L54 30L56 30L56 29L55 29L55 28L53 28L53 27L52 27L52 28L50 28L50 27L51 27L51 26L52 26L52 24L53 24L53 26L55 26L55 24L53 24L53 23L51 23L51 25L50 25L50 26L49 26L49 27L48 27L48 25L49 25L49 23L50 23L50 22L52 22L52 21L51 21L51 20L50 20L50 19L53 19L53 21L54 21L54 23L55 23L55 19L57 19L57 20L59 20L59 21L60 21L60 20L61 20L61 19L60 19L60 18L61 18L61 16L59 16L59 14L61 14L61 13L60 13L60 12L58 12L58 11L56 11L56 10L57 10L57 9L58 9L58 8L56 8L56 9L54 9L54 7L53 7L53 6L52 6L52 7L51 7L51 6L50 6L50 8L51 8L51 9L50 9L50 10L49 10L49 8L47 8L47 6L46 6L46 7L45 7L45 6L44 6L44 7L45 7L45 8L44 8L44 9L45 9L45 10L46 10L46 11L43 11L43 9L40 9L40 10L42 10L42 12L44 12L44 13L42 13L42 15L39 15L39 17L38 17L38 18L39 18L39 19L37 19L37 21L35 21L35 19L34 19L34 22L32 22L32 23L31 23L31 24L30 24L30 25L29 25L29 24L26 24L26 22L25 22L25 21L23 21L23 24L22 24L22 23L21 23L21 24L20 24L20 23L19 23L19 24L18 24L18 21L19 21L19 20L20 20L20 22L22 22L22 20L21 20L21 19L23 19L23 20L25 20L25 17L26 17L26 19L27 19L27 17L28 17L28 16L26 16L26 15L25 15L25 14L26 14L26 13L27 13L27 15L29 15L29 14L28 14L28 13L27 13L27 12L26 12L26 13L25 13L25 10L24 10L24 9L25 9L25 8L24 8L24 7L25 7L25 6L26 6L26 7L27 7L27 5L28 5L28 3ZM60 3L60 5L61 5L61 3ZM10 5L10 6L11 6L11 7L12 7L12 8L13 8L13 7L14 7L14 8L15 8L15 7L16 7L16 6L15 6L15 7L14 7L14 5L13 5L13 7L12 7L12 6L11 6L11 5ZM29 5L29 6L28 6L28 8L26 8L26 11L27 11L27 10L28 10L28 12L29 12L29 13L31 13L31 12L29 12L29 10L28 10L28 8L29 8L29 9L30 9L30 11L32 11L32 10L31 10L31 9L30 9L30 8L31 8L31 6L30 6L30 5ZM33 5L33 8L36 8L36 5ZM37 5L37 7L38 7L38 5ZM48 5L48 7L49 7L49 5ZM29 6L29 7L30 7L30 6ZM34 6L34 7L35 7L35 6ZM52 7L52 9L51 9L51 11L52 11L52 13L53 13L53 15L52 15L52 14L50 14L50 13L51 13L51 12L50 12L50 13L49 13L49 14L50 14L50 16L52 16L52 17L51 17L51 18L53 18L53 17L56 17L56 14L57 14L57 13L58 13L58 14L59 14L59 13L58 13L58 12L57 12L57 13L55 13L55 11L54 11L54 13L53 13L53 10L52 10L52 9L53 9L53 7ZM45 8L45 9L46 9L46 10L47 10L47 8ZM65 8L65 10L66 10L66 9L69 9L69 8ZM17 9L17 11L19 11L19 10L18 10L18 9ZM38 9L38 10L39 10L39 9ZM3 10L3 11L4 11L4 10ZM68 11L68 12L66 12L66 13L67 13L67 15L68 15L68 12L69 12L69 11ZM45 12L45 13L46 13L46 16L45 16L45 17L46 17L46 18L47 18L47 13L46 13L46 12ZM7 13L7 14L6 14L6 15L7 15L7 14L8 14L8 13ZM19 13L19 15L20 15L20 16L22 16L22 14L21 14L21 15L20 15L20 13ZM54 13L54 15L53 15L53 16L55 16L55 13ZM2 14L2 15L3 15L3 14ZM23 14L23 16L24 16L24 17L25 17L25 15L24 15L24 14ZM34 14L34 15L33 15L33 18L34 18L34 16L38 16L38 14L37 14L37 15L35 15L35 14ZM43 14L43 17L44 17L44 14ZM15 15L15 16L16 16L16 17L15 17L15 18L16 18L16 17L17 17L17 15ZM48 15L48 16L49 16L49 15ZM57 15L57 17L58 17L58 19L59 19L59 17L58 17L58 15ZM6 16L6 17L7 17L7 16ZM12 16L12 17L13 17L13 16ZM18 16L18 17L19 17L19 16ZM40 16L40 19L39 19L39 20L38 20L38 21L37 21L37 22L34 22L34 23L32 23L32 24L33 24L33 25L34 25L34 26L31 26L31 27L30 27L30 26L29 26L29 25L27 25L27 27L26 27L26 26L24 26L24 25L21 25L21 26L20 26L20 25L19 25L19 26L20 26L20 28L21 28L21 26L23 26L23 27L24 27L24 28L25 28L25 29L26 29L26 28L27 28L27 29L28 29L28 30L29 30L29 31L28 31L28 32L26 32L26 31L25 31L25 33L29 33L29 31L30 31L30 32L31 32L31 31L32 31L32 32L35 32L35 31L38 31L38 29L36 29L36 28L37 28L37 26L38 26L38 24L40 24L40 27L38 27L38 28L39 28L39 29L40 29L40 30L42 30L42 28L43 28L43 29L44 29L44 30L43 30L43 31L40 31L40 33L44 33L44 34L45 34L45 33L46 33L46 34L47 34L47 33L46 33L46 32L45 32L45 33L44 33L44 31L46 31L46 30L47 30L47 28L46 28L46 30L45 30L45 29L44 29L44 27L43 27L43 26L41 26L41 25L42 25L42 24L43 24L43 25L44 25L44 24L45 24L45 23L44 23L44 20L46 20L46 19L44 19L44 18L41 18L41 17L42 17L42 16ZM68 16L68 17L69 17L69 16ZM35 17L35 18L36 18L36 17ZM48 17L48 19L47 19L47 20L48 20L48 19L49 19L49 17ZM63 17L63 19L64 19L64 17ZM6 20L6 21L7 21L7 20ZM10 20L10 21L11 21L11 20ZM26 20L26 21L27 21L27 23L28 23L28 21L27 21L27 20ZM49 20L49 22L50 22L50 20ZM67 20L67 21L68 21L68 20ZM29 21L29 23L30 23L30 21ZM39 21L39 22L40 22L40 21ZM41 21L41 23L40 23L40 24L41 24L41 23L42 23L42 22L43 22L43 21ZM46 21L46 22L47 22L47 25L46 25L46 26L47 26L47 25L48 25L48 22L47 22L47 21ZM6 22L6 23L7 23L7 22ZM16 23L16 24L15 24L15 25L17 25L17 23ZM24 23L24 24L25 24L25 25L26 25L26 24L25 24L25 23ZM34 23L34 25L35 25L35 27L34 27L34 28L35 28L35 27L36 27L36 26L37 26L37 24L36 24L36 25L35 25L35 23ZM57 24L57 25L58 25L58 26L57 26L57 28L61 28L61 26L59 26L59 25L60 25L60 24L59 24L59 25L58 25L58 24ZM61 24L61 25L63 25L63 26L64 26L64 25L65 25L65 24L64 24L64 25L63 25L63 24ZM4 26L4 27L5 27L5 26ZM11 26L11 27L12 27L12 26ZM28 27L28 29L32 29L32 28L33 28L33 27L31 27L31 28L30 28L30 27ZM40 27L40 28L42 28L42 27ZM62 27L62 28L63 28L63 27ZM65 27L65 29L66 29L66 27ZM7 29L7 30L8 30L8 29ZM33 29L33 31L34 31L34 30L36 30L36 29ZM58 29L58 30L59 30L59 29ZM61 29L61 30L62 30L62 29ZM3 31L3 33L4 33L4 31ZM19 31L19 32L20 32L20 31ZM60 31L60 32L61 32L61 31ZM16 32L16 33L17 33L17 32ZM37 32L37 37L38 37L38 36L39 36L39 35L41 35L41 34L39 34L39 35L38 35L38 32ZM56 32L56 33L57 33L57 34L58 34L58 35L59 35L59 34L58 34L58 32ZM5 33L5 36L8 36L8 33ZM33 33L33 36L36 36L36 33ZM49 33L49 34L48 34L48 35L50 35L50 37L51 37L51 35L52 35L52 34L51 34L51 35L50 35L50 33ZM61 33L61 36L64 36L64 33ZM6 34L6 35L7 35L7 34ZM21 34L21 35L22 35L22 36L23 36L23 37L24 37L24 35L22 35L22 34ZM34 34L34 35L35 35L35 34ZM62 34L62 35L63 35L63 34ZM40 36L40 37L39 37L39 38L38 38L38 41L39 41L39 39L40 39L40 41L41 41L41 39L40 39L40 37L42 37L42 36ZM12 37L12 41L11 41L11 40L10 40L10 43L8 43L8 44L11 44L11 42L12 42L12 41L13 41L13 43L14 43L14 41L13 41L13 40L14 40L14 39L16 39L16 37ZM19 37L19 38L20 38L20 37ZM13 38L13 39L14 39L14 38ZM29 38L29 39L30 39L30 38ZM64 38L64 39L65 39L65 38ZM4 39L4 42L5 42L5 45L4 45L4 46L6 46L6 47L8 47L8 45L7 45L7 44L6 44L6 43L7 43L7 42L5 42L5 39ZM47 39L47 41L49 41L49 39ZM50 39L50 42L51 42L51 41L52 41L52 39ZM15 40L15 41L16 41L16 40ZM53 40L53 42L52 42L52 43L51 43L51 45L52 45L52 44L53 44L53 42L56 42L56 41L54 41L54 40ZM8 41L8 42L9 42L9 41ZM57 41L57 43L58 43L58 41ZM62 41L62 42L61 42L61 43L64 43L64 42L66 42L66 41L64 41L64 42L63 42L63 41ZM34 43L34 44L35 44L35 43ZM46 43L46 44L47 44L47 43ZM65 43L65 44L64 44L64 46L66 46L66 44L67 44L67 43ZM6 45L6 46L7 46L7 45ZM9 46L9 47L10 47L10 46ZM16 46L16 47L15 47L15 48L16 48L16 47L17 47L17 46ZM28 46L28 48L29 48L29 46ZM37 46L37 47L36 47L36 48L38 48L38 50L39 50L39 51L37 51L37 52L36 52L36 53L35 53L35 54L36 54L36 55L37 55L37 56L38 56L38 58L39 58L39 57L40 57L40 55L41 55L41 54L42 54L42 55L43 55L43 54L44 54L44 53L41 53L41 54L40 54L40 52L39 52L39 51L40 51L40 48L41 48L41 47L38 47L38 46ZM13 47L13 48L14 48L14 47ZM33 47L33 48L30 48L30 49L29 49L29 50L28 50L28 51L27 51L27 52L26 52L26 55L27 55L27 53L30 53L30 54L29 54L29 55L28 55L28 56L29 56L29 55L30 55L30 54L32 54L32 52L33 52L33 51L34 51L34 52L35 52L35 51L36 51L36 49L35 49L35 50L34 50L34 47ZM44 48L44 49L45 49L45 50L46 50L46 51L47 51L47 50L46 50L46 49L45 49L45 48ZM54 48L54 49L52 49L52 50L55 50L55 51L54 51L54 52L53 52L53 53L52 53L52 54L51 54L51 57L50 57L50 59L52 59L52 58L53 58L53 62L54 62L54 63L56 63L56 62L55 62L55 61L54 61L54 59L55 59L55 57L52 57L52 54L53 54L53 53L54 53L54 55L53 55L53 56L54 56L54 55L55 55L55 54L56 54L56 53L58 53L58 52L56 52L56 51L58 51L58 49L57 49L57 48L56 48L56 49L55 49L55 48ZM14 49L14 51L16 51L16 52L18 52L18 53L17 53L17 55L18 55L18 53L20 53L20 55L21 55L21 57L19 57L19 56L17 56L17 57L19 57L19 58L21 58L21 57L24 57L24 58L25 58L25 56L22 56L22 55L21 55L21 53L22 53L22 52L21 52L21 50L22 50L22 51L23 51L23 54L25 54L25 49L24 49L24 51L23 51L23 49L21 49L21 50L20 50L20 51L18 51L18 50L19 50L19 49L18 49L18 50L17 50L17 51L16 51L16 49ZM30 49L30 50L31 50L31 51L33 51L33 49ZM59 49L59 50L60 50L60 49ZM6 50L6 51L7 51L7 50ZM2 51L2 52L3 52L3 53L4 53L4 52L3 52L3 51ZM38 52L38 53L36 53L36 54L37 54L37 55L38 55L38 56L39 56L39 55L40 55L40 54L39 54L39 52ZM55 52L55 53L56 53L56 52ZM5 53L5 54L6 54L6 53ZM33 53L33 54L34 54L34 53ZM49 54L49 55L50 55L50 54ZM9 55L9 56L10 56L10 55ZM31 55L31 56L30 56L30 57L29 57L29 58L28 58L28 57L27 57L27 56L26 56L26 61L27 61L27 62L28 62L28 64L29 64L29 62L28 62L28 60L27 60L27 59L30 59L30 58L32 58L32 55ZM34 55L34 56L33 56L33 57L34 57L34 56L35 56L35 55ZM6 57L6 58L7 58L7 57ZM46 57L46 58L47 58L47 57ZM51 57L51 58L52 58L52 57ZM65 57L65 58L66 58L66 57ZM17 58L17 61L19 61L19 60L20 60L20 59L18 59L18 58ZM22 58L22 60L21 60L21 61L22 61L22 60L24 60L24 59L23 59L23 58ZM62 58L62 60L63 60L63 58ZM9 59L9 60L10 60L10 59ZM14 59L14 60L15 60L15 62L16 62L16 63L18 63L18 62L16 62L16 60L15 60L15 59ZM45 59L45 61L46 61L46 62L47 62L47 61L46 61L46 59ZM3 60L3 61L5 61L5 60ZM6 60L6 61L7 61L7 60ZM9 61L9 62L10 62L10 61ZM33 61L33 64L36 64L36 61ZM38 61L38 63L39 63L39 61ZM61 61L61 64L64 64L64 61ZM34 62L34 63L35 63L35 62ZM62 62L62 63L63 63L63 62ZM44 63L44 69L46 69L46 67L45 67L45 63ZM49 65L49 66L50 66L50 65ZM64 65L64 66L63 66L63 67L64 67L64 66L65 66L65 65ZM48 67L48 68L49 68L49 67ZM36 68L36 69L37 69L37 68ZM41 68L41 69L42 69L42 68ZM68 68L68 69L69 69L69 68ZM0 0L0 7L7 7L7 0ZM1 1L1 6L6 6L6 1ZM2 2L2 5L5 5L5 2ZM62 0L62 7L69 7L69 0ZM63 1L63 6L68 6L68 1ZM64 2L64 5L67 5L67 2ZM0 62L0 69L7 69L7 62ZM1 63L1 68L6 68L6 63ZM2 64L2 67L5 67L5 64Z" fill="#000000"/></g></g></svg>
