<?xml version="1.0" encoding="UTF-8"?>
<svg xmlns="http://www.w3.org/2000/svg" version="1.1" width="300" height="300" viewBox="0 0 300 300"><rect x="0" y="0" width="300" height="300" fill="#ffffff"/><g transform="scale(4.348)"><g transform="translate(0,0)"><path fill-rule="evenodd" d="M10 0L10 1L8 1L8 3L9 3L9 4L8 4L8 8L6 8L6 9L8 9L8 8L9 8L9 10L11 10L11 11L9 11L9 12L11 12L11 13L8 13L8 11L7 11L7 10L6 10L6 11L7 11L7 12L6 12L6 13L4 13L4 12L3 12L3 13L2 13L2 11L1 11L1 10L5 10L5 9L4 9L4 8L3 8L3 9L2 9L2 8L0 8L0 11L1 11L1 13L2 13L2 15L3 15L3 18L2 18L2 16L1 16L1 14L0 14L0 16L1 16L1 17L0 17L0 18L1 18L1 19L0 19L0 20L2 20L2 19L3 19L3 18L4 18L4 17L8 17L8 16L10 16L10 18L5 18L5 19L4 19L4 20L3 20L3 21L2 21L2 22L1 22L1 23L0 23L0 25L1 25L1 26L0 26L0 28L1 28L1 29L0 29L0 30L1 30L1 32L2 32L2 33L1 33L1 35L0 35L0 36L1 36L1 37L0 37L0 39L1 39L1 40L0 40L0 43L1 43L1 44L0 44L0 45L1 45L1 47L0 47L0 48L1 48L1 50L0 50L0 52L1 52L1 53L2 53L2 54L0 54L0 55L3 55L3 56L4 56L4 57L2 57L2 56L1 56L1 57L2 57L2 59L3 59L3 58L4 58L4 59L9 59L9 58L6 58L6 57L9 57L9 56L10 56L10 54L11 54L11 53L12 53L12 54L13 54L13 55L11 55L11 56L12 56L12 57L10 57L10 58L13 58L13 59L14 59L14 60L15 60L15 58L14 58L14 57L13 57L13 55L14 55L14 53L12 53L12 52L15 52L15 51L14 51L14 50L13 50L13 49L11 49L11 48L13 48L13 47L10 47L10 49L11 49L11 53L10 53L10 52L8 52L8 51L7 51L7 50L8 50L8 49L9 49L9 46L8 46L8 48L5 48L5 47L4 47L4 46L5 46L5 45L3 45L3 48L1 48L1 47L2 47L2 45L1 45L1 44L2 44L2 43L4 43L4 44L5 44L5 42L2 42L2 43L1 43L1 41L2 41L2 39L3 39L3 38L2 38L2 37L3 37L3 36L4 36L4 37L7 37L7 38L5 38L5 41L7 41L7 42L6 42L6 43L7 43L7 44L6 44L6 45L7 45L7 44L8 44L8 45L9 45L9 44L10 44L10 42L11 42L11 44L12 44L12 45L10 45L10 46L12 46L12 45L13 45L13 46L14 46L14 45L13 45L13 44L15 44L15 45L16 45L16 44L18 44L18 45L19 45L19 44L20 44L20 45L21 45L21 46L22 46L22 47L23 47L23 45L25 45L25 46L24 46L24 47L25 47L25 48L26 48L26 49L27 49L27 50L26 50L26 51L25 51L25 50L24 50L24 52L23 52L23 51L21 51L21 50L23 50L23 48L20 48L20 49L19 49L19 50L18 50L18 48L19 48L19 47L20 47L20 46L19 46L19 47L18 47L18 46L16 46L16 48L17 48L17 49L16 49L16 53L19 53L19 50L20 50L20 54L19 54L19 55L20 55L20 57L21 57L21 59L20 59L20 58L18 58L18 57L19 57L19 56L18 56L18 57L17 57L17 55L18 55L18 54L17 54L17 55L16 55L16 62L14 62L14 61L13 61L13 62L10 62L10 61L9 61L9 60L8 60L8 63L9 63L9 64L10 64L10 65L8 65L8 66L9 66L9 67L8 67L8 69L10 69L10 68L12 68L12 64L14 64L14 63L16 63L16 65L17 65L17 67L21 67L21 68L20 68L20 69L23 69L23 67L24 67L24 65L25 65L25 66L26 66L26 68L27 68L27 69L28 69L28 68L29 68L29 69L32 69L32 67L31 67L31 68L29 68L29 67L30 67L30 66L31 66L31 65L32 65L32 66L33 66L33 69L35 69L35 67L38 67L38 69L42 69L42 68L40 68L40 67L38 67L38 66L40 66L40 64L39 64L39 63L40 63L40 62L41 62L41 66L42 66L42 65L43 65L43 64L44 64L44 66L45 66L45 69L47 69L47 68L46 68L46 65L47 65L47 66L49 66L49 65L50 65L50 66L51 66L51 67L50 67L50 68L51 68L51 69L53 69L53 68L54 68L54 67L56 67L56 68L55 68L55 69L56 69L56 68L57 68L57 69L58 69L58 68L59 68L59 69L62 69L62 66L63 66L63 68L64 68L64 69L65 69L65 68L64 68L64 67L65 67L65 66L68 66L68 67L69 67L69 65L65 65L65 63L68 63L68 64L69 64L69 63L68 63L68 62L65 62L65 61L67 61L67 60L66 60L66 59L65 59L65 58L61 58L61 57L62 57L62 56L63 56L63 57L66 57L66 58L68 58L68 59L69 59L69 56L68 56L68 55L69 55L69 54L67 54L67 53L69 53L69 52L67 52L67 53L66 53L66 55L67 55L67 56L64 56L64 55L65 55L65 54L63 54L63 53L62 53L62 52L64 52L64 51L66 51L66 50L65 50L65 48L66 48L66 47L67 47L67 48L69 48L69 46L68 46L68 45L67 45L67 44L69 44L69 41L68 41L68 38L66 38L66 39L67 39L67 40L66 40L66 43L67 43L67 44L64 44L64 43L63 43L63 40L64 40L64 41L65 41L65 37L69 37L69 30L68 30L68 29L69 29L69 27L68 27L68 26L69 26L69 25L68 25L68 24L69 24L69 21L68 21L68 19L69 19L69 18L65 18L65 17L64 17L64 15L65 15L65 14L66 14L66 15L67 15L67 16L66 16L66 17L67 17L67 16L69 16L69 15L68 15L68 12L69 12L69 9L68 9L68 8L66 8L66 9L65 9L65 8L62 8L62 9L65 9L65 10L66 10L66 9L68 9L68 10L67 10L67 12L66 12L66 11L65 11L65 12L63 12L63 15L61 15L61 16L58 16L58 17L59 17L59 18L57 18L57 21L56 21L56 19L55 19L55 18L56 18L56 17L57 17L57 16L56 16L56 17L55 17L55 18L54 18L54 17L52 17L52 16L53 16L53 14L54 14L54 12L52 12L52 11L55 11L55 13L56 13L56 14L55 14L55 15L54 15L54 16L55 16L55 15L56 15L56 14L57 14L57 15L59 15L59 14L60 14L60 12L59 12L59 13L58 13L58 11L59 11L59 10L58 10L58 9L59 9L59 8L60 8L60 9L61 9L61 8L60 8L60 7L61 7L61 6L60 6L60 7L59 7L59 4L58 4L58 3L59 3L59 2L58 2L58 3L57 3L57 1L61 1L61 0L48 0L48 1L47 1L47 0L45 0L45 2L44 2L44 3L45 3L45 6L44 6L44 7L45 7L45 8L46 8L46 9L47 9L47 6L46 6L46 4L47 4L47 3L49 3L49 5L51 5L51 6L50 6L50 7L49 7L49 6L48 6L48 7L49 7L49 8L48 8L48 9L49 9L49 8L50 8L50 7L51 7L51 6L52 6L52 8L51 8L51 9L54 9L54 8L53 8L53 5L55 5L55 6L54 6L54 7L55 7L55 10L49 10L49 11L51 11L51 12L47 12L47 13L46 13L46 10L44 10L44 8L43 8L43 6L42 6L42 5L44 5L44 4L42 4L42 1L43 1L43 0L41 0L41 2L40 2L40 1L39 1L39 0L35 0L35 1L33 1L33 0L31 0L31 1L32 1L32 3L33 3L33 4L32 4L32 5L31 5L31 4L30 4L30 5L29 5L29 6L28 6L28 7L27 7L27 5L28 5L28 3L29 3L29 2L30 2L30 1L29 1L29 0L28 0L28 1L27 1L27 2L26 2L26 3L27 3L27 4L22 4L22 5L21 5L21 3L20 3L20 7L21 7L21 6L22 6L22 9L24 9L24 10L25 10L25 11L23 11L23 12L22 12L22 10L21 10L21 11L20 11L20 10L19 10L19 9L20 9L20 8L19 8L19 6L18 6L18 7L17 7L17 6L16 6L16 5L18 5L18 3L19 3L19 2L20 2L20 1L21 1L21 2L22 2L22 3L23 3L23 2L22 2L22 1L21 1L21 0L20 0L20 1L19 1L19 0L13 0L13 1L12 1L12 2L13 2L13 3L14 3L14 4L15 4L15 6L14 6L14 7L13 7L13 5L12 5L12 3L11 3L11 0ZM23 0L23 1L25 1L25 0ZM18 1L18 2L19 2L19 1ZM35 1L35 3L34 3L34 4L35 4L35 3L36 3L36 4L37 4L37 5L38 5L38 4L39 4L39 5L40 5L40 6L39 6L39 7L38 7L38 6L37 6L37 7L38 7L38 8L40 8L40 6L41 6L41 7L42 7L42 6L41 6L41 5L40 5L40 4L41 4L41 3L39 3L39 1ZM49 1L49 3L51 3L51 5L52 5L52 4L53 4L53 3L52 3L52 2L53 2L53 1L51 1L51 2L50 2L50 1ZM55 1L55 2L54 2L54 4L57 4L57 3L56 3L56 1ZM9 2L9 3L10 3L10 4L9 4L9 5L10 5L10 6L9 6L9 8L10 8L10 9L11 9L11 7L12 7L12 6L11 6L11 3L10 3L10 2ZM16 2L16 4L17 4L17 2ZM24 2L24 3L25 3L25 2ZM36 2L36 3L37 3L37 4L38 4L38 2ZM46 2L46 3L47 3L47 2ZM60 3L60 5L61 5L61 3ZM22 5L22 6L23 6L23 8L24 8L24 5ZM25 5L25 8L26 8L26 9L27 9L27 10L26 10L26 11L25 11L25 12L23 12L23 14L24 14L24 15L25 15L25 16L27 16L27 17L24 17L24 18L22 18L22 19L21 19L21 17L19 17L19 16L20 16L20 15L21 15L21 14L22 14L22 13L21 13L21 12L20 12L20 13L17 13L17 11L15 11L15 10L18 10L18 9L16 9L16 6L15 6L15 7L14 7L14 8L15 8L15 10L14 10L14 11L13 11L13 12L12 12L12 11L11 11L11 12L12 12L12 13L15 13L15 14L14 14L14 15L15 15L15 17L16 17L16 18L14 18L14 16L13 16L13 15L12 15L12 14L11 14L11 15L10 15L10 14L8 14L8 13L6 13L6 14L5 14L5 15L6 15L6 16L7 16L7 15L10 15L10 16L11 16L11 17L12 17L12 18L13 18L13 19L11 19L11 18L10 18L10 20L8 20L8 19L6 19L6 20L7 20L7 21L6 21L6 22L7 22L7 23L4 23L4 22L5 22L5 21L3 21L3 22L2 22L2 23L1 23L1 25L2 25L2 26L1 26L1 27L6 27L6 28L5 28L5 29L4 29L4 28L3 28L3 30L4 30L4 31L3 31L3 33L2 33L2 36L3 36L3 35L4 35L4 31L5 31L5 32L8 32L8 30L7 30L7 29L8 29L8 28L9 28L9 27L8 27L8 28L7 28L7 27L6 27L6 26L8 26L8 25L9 25L9 23L8 23L8 22L9 22L9 21L10 21L10 27L11 27L11 30L9 30L9 37L10 37L10 38L8 38L8 39L6 39L6 40L9 40L9 39L10 39L10 40L11 40L11 41L12 41L12 43L14 43L14 42L13 42L13 41L12 41L12 40L14 40L14 41L15 41L15 40L14 40L14 38L15 38L15 39L16 39L16 36L15 36L15 35L17 35L17 36L18 36L18 35L17 35L17 34L19 34L19 35L20 35L20 34L22 34L22 31L23 31L23 32L24 32L24 31L26 31L26 30L25 30L25 29L26 29L26 28L25 28L25 27L24 27L24 26L25 26L25 25L26 25L26 24L27 24L27 23L25 23L25 21L22 21L22 22L24 22L24 24L25 24L25 25L24 25L24 26L21 26L21 25L20 25L20 26L18 26L18 27L17 27L17 25L16 25L16 24L17 24L17 23L18 23L18 24L19 24L19 23L18 23L18 22L20 22L20 24L21 24L21 20L22 20L22 19L23 19L23 20L26 20L26 21L27 21L27 22L28 22L28 23L30 23L30 24L31 24L31 25L30 25L30 27L29 27L29 26L28 26L28 25L29 25L29 24L28 24L28 25L27 25L27 26L26 26L26 27L27 27L27 28L29 28L29 29L27 29L27 31L29 31L29 32L28 32L28 35L27 35L27 32L26 32L26 35L25 35L25 33L23 33L23 35L21 35L21 36L19 36L19 37L17 37L17 39L18 39L18 40L19 40L19 39L20 39L20 38L21 38L21 42L20 42L20 41L17 41L17 40L16 40L16 42L17 42L17 43L21 43L21 44L24 44L24 43L26 43L26 45L27 45L27 49L29 49L29 50L30 50L30 51L28 51L28 52L27 52L27 53L26 53L26 52L24 52L24 54L22 54L22 59L21 59L21 60L24 60L24 62L22 62L22 61L20 61L20 60L19 60L19 61L20 61L20 63L17 63L17 65L18 65L18 66L19 66L19 65L20 65L20 64L21 64L21 63L22 63L22 65L21 65L21 66L22 66L22 67L23 67L23 65L24 65L24 64L25 64L25 65L27 65L27 68L28 68L28 67L29 67L29 64L32 64L32 62L31 62L31 61L32 61L32 59L30 59L30 58L29 58L29 57L30 57L30 56L31 56L31 57L33 57L33 55L34 55L34 54L36 54L36 56L35 56L35 57L37 57L37 59L36 59L36 58L35 58L35 59L36 59L36 60L37 60L37 61L38 61L38 62L37 62L37 64L38 64L38 65L37 65L37 66L38 66L38 65L39 65L39 64L38 64L38 63L39 63L39 62L40 62L40 61L39 61L39 60L37 60L37 59L38 59L38 58L39 58L39 59L40 59L40 60L41 60L41 62L42 62L42 63L44 63L44 61L43 61L43 60L44 60L44 59L43 59L43 58L45 58L45 64L47 64L47 63L48 63L48 64L50 64L50 65L51 65L51 64L52 64L52 67L51 67L51 68L52 68L52 67L53 67L53 63L52 63L52 61L51 61L51 60L52 60L52 59L54 59L54 60L53 60L53 62L55 62L55 63L54 63L54 64L55 64L55 65L54 65L54 66L55 66L55 65L56 65L56 64L58 64L58 65L57 65L57 68L58 68L58 66L59 66L59 65L60 65L60 66L61 66L61 65L60 65L60 64L59 64L59 62L60 62L60 59L61 59L61 60L65 60L65 59L61 59L61 58L59 58L59 57L57 57L57 54L59 54L59 56L60 56L60 57L61 57L61 56L60 56L60 55L62 55L62 54L59 54L59 53L60 53L60 52L59 52L59 51L61 51L61 52L62 52L62 51L63 51L63 50L64 50L64 49L63 49L63 48L65 48L65 47L66 47L66 46L67 46L67 47L68 47L68 46L67 46L67 45L66 45L66 46L65 46L65 45L63 45L63 43L62 43L62 44L61 44L61 42L62 42L62 41L61 41L61 42L59 42L59 41L60 41L60 40L59 40L59 41L58 41L58 40L57 40L57 38L58 38L58 37L59 37L59 36L60 36L60 35L59 35L59 34L60 34L60 32L61 32L61 31L63 31L63 32L65 32L65 33L66 33L66 36L67 36L67 35L68 35L68 34L67 34L67 33L68 33L68 31L67 31L67 30L66 30L66 29L68 29L68 28L67 28L67 27L66 27L66 26L68 26L68 25L66 25L66 26L65 26L65 25L64 25L64 26L65 26L65 27L64 27L64 29L63 29L63 30L62 30L62 29L61 29L61 28L63 28L63 25L62 25L62 24L63 24L63 23L62 23L62 22L65 22L65 23L64 23L64 24L65 24L65 23L66 23L66 24L68 24L68 23L67 23L67 22L68 22L68 21L67 21L67 19L66 19L66 20L65 20L65 21L63 21L63 18L62 18L62 16L61 16L61 17L60 17L60 18L61 18L61 19L62 19L62 20L61 20L61 21L60 21L60 20L59 20L59 19L58 19L58 20L59 20L59 21L57 21L57 23L58 23L58 24L57 24L57 25L50 25L50 26L56 26L56 27L54 27L54 28L53 28L53 27L51 27L51 28L50 28L50 29L49 29L49 30L47 30L47 29L48 29L48 26L49 26L49 25L48 25L48 24L47 24L47 23L49 23L49 22L50 22L50 23L52 23L52 24L53 24L53 23L54 23L54 24L55 24L55 23L54 23L54 22L56 22L56 21L54 21L54 19L53 19L53 18L51 18L51 19L50 19L50 17L49 17L49 19L48 19L48 17L46 17L46 16L51 16L51 15L48 15L48 14L49 14L49 13L47 13L47 15L45 15L45 14L46 14L46 13L45 13L45 14L43 14L43 12L45 12L45 11L43 11L43 12L42 12L42 10L43 10L43 8L42 8L42 9L41 9L41 11L38 11L38 12L37 12L37 11L35 11L35 10L34 10L34 11L33 11L33 13L35 13L35 14L34 14L34 15L33 15L33 14L32 14L32 13L31 13L31 14L30 14L30 15L29 15L29 14L28 14L28 13L29 13L29 11L30 11L30 12L32 12L32 11L31 11L31 10L29 10L29 9L30 9L30 6L29 6L29 7L28 7L28 9L27 9L27 8L26 8L26 5ZM33 5L33 8L36 8L36 5ZM56 5L56 6L55 6L55 7L56 7L56 9L57 9L57 8L58 8L58 5ZM10 6L10 7L11 7L11 6ZM31 6L31 7L32 7L32 6ZM34 6L34 7L35 7L35 6ZM45 6L45 7L46 7L46 6ZM56 6L56 7L57 7L57 6ZM31 8L31 9L32 9L32 10L33 10L33 9L32 9L32 8ZM12 9L12 10L13 10L13 9ZM36 9L36 10L40 10L40 9ZM27 10L27 11L26 11L26 13L25 13L25 15L26 15L26 14L27 14L27 16L28 16L28 14L27 14L27 11L29 11L29 10ZM55 10L55 11L56 11L56 12L57 12L57 10ZM60 10L60 11L62 11L62 10ZM63 10L63 11L64 11L64 10ZM15 12L15 13L16 13L16 12ZM35 12L35 13L36 13L36 14L35 14L35 15L38 15L38 16L35 16L35 18L33 18L33 16L29 16L29 18L30 18L30 17L31 17L31 18L32 18L32 19L31 19L31 20L30 20L30 22L31 22L31 21L33 21L33 20L32 20L32 19L34 19L34 20L35 20L35 21L34 21L34 23L35 23L35 26L36 26L36 27L37 27L37 29L38 29L38 31L39 31L39 34L41 34L41 33L42 33L42 32L41 32L41 31L42 31L42 29L43 29L43 31L44 31L44 32L43 32L43 35L41 35L41 36L39 36L39 35L37 35L37 34L38 34L38 32L36 32L36 31L37 31L37 30L35 30L35 29L31 29L31 27L30 27L30 29L29 29L29 30L30 30L30 33L29 33L29 34L30 34L30 35L29 35L29 36L25 36L25 35L24 35L24 37L25 37L25 38L22 38L22 37L23 37L23 36L21 36L21 38L22 38L22 39L25 39L25 40L24 40L24 41L23 41L23 42L25 42L25 40L26 40L26 41L28 41L28 40L29 40L29 41L30 41L30 43L31 43L31 40L32 40L32 41L34 41L34 38L33 38L33 37L37 37L37 40L38 40L38 37L39 37L39 41L38 41L38 43L37 43L37 42L35 42L35 43L37 43L37 45L38 45L38 43L40 43L40 42L42 42L42 41L43 41L43 40L41 40L41 39L43 39L43 38L44 38L44 39L45 39L45 40L44 40L44 41L46 41L46 40L47 40L47 41L50 41L50 42L48 42L48 43L46 43L46 42L44 42L44 44L43 44L43 46L42 46L42 47L41 47L41 46L40 46L40 47L37 47L37 48L36 48L36 47L35 47L35 46L33 46L33 45L36 45L36 44L33 44L33 43L32 43L32 44L33 44L33 45L32 45L32 46L31 46L31 44L28 44L28 45L30 45L30 46L28 46L28 47L29 47L29 49L31 49L31 50L32 50L32 51L31 51L31 52L28 52L28 53L30 53L30 54L32 54L32 53L31 53L31 52L32 52L32 51L33 51L33 53L34 53L34 51L36 51L36 50L38 50L38 49L39 49L39 51L37 51L37 52L38 52L38 54L39 54L39 53L40 53L40 55L37 55L37 57L39 57L39 58L40 58L40 59L41 59L41 60L43 60L43 59L41 59L41 57L44 57L44 56L45 56L45 57L46 57L46 56L47 56L47 58L48 58L48 59L47 59L47 60L46 60L46 63L47 63L47 62L50 62L50 61L49 61L49 60L51 60L51 59L52 59L52 58L53 58L53 57L54 57L54 56L55 56L55 58L56 58L56 59L55 59L55 61L57 61L57 63L58 63L58 62L59 62L59 61L58 61L58 60L59 60L59 58L58 58L58 59L57 59L57 58L56 58L56 55L54 55L54 54L53 54L53 56L51 56L51 55L50 55L50 56L49 56L49 53L50 53L50 54L51 54L51 53L52 53L52 52L51 52L51 50L50 50L50 49L52 49L52 50L53 50L53 48L51 48L51 47L52 47L52 46L53 46L53 47L54 47L54 48L55 48L55 50L54 50L54 51L53 51L53 53L55 53L55 54L57 54L57 52L58 52L58 53L59 53L59 52L58 52L58 50L59 50L59 49L58 49L58 48L56 48L56 47L55 47L55 46L57 46L57 45L56 45L56 44L57 44L57 43L55 43L55 42L54 42L54 41L53 41L53 43L55 43L55 46L53 46L53 45L54 45L54 44L52 44L52 43L51 43L51 42L52 42L52 39L53 39L53 38L50 38L50 37L54 37L54 34L52 34L52 33L54 33L54 31L55 31L55 30L56 30L56 29L57 29L57 28L58 28L58 29L59 29L59 30L57 30L57 31L56 31L56 32L55 32L55 34L56 34L56 32L57 32L57 33L59 33L59 30L60 30L60 31L61 31L61 30L60 30L60 29L59 29L59 28L60 28L60 27L59 27L59 25L60 25L60 24L61 24L61 22L58 22L58 23L60 23L60 24L59 24L59 25L58 25L58 26L57 26L57 28L56 28L56 29L55 29L55 28L54 28L54 29L52 29L52 28L51 28L51 29L50 29L50 31L47 31L47 30L46 30L46 32L45 32L45 31L44 31L44 29L47 29L47 28L45 28L45 27L44 27L44 25L46 25L46 27L47 27L47 25L46 25L46 23L45 23L45 24L44 24L44 25L43 25L43 23L44 23L44 22L43 22L43 23L41 23L41 24L40 24L40 22L41 22L41 20L39 20L39 25L40 25L40 26L41 26L41 24L42 24L42 25L43 25L43 26L42 26L42 27L41 27L41 30L40 30L40 28L39 28L39 26L38 26L38 25L37 25L37 24L36 24L36 23L37 23L37 22L38 22L38 19L43 19L43 18L45 18L45 15L43 15L43 14L42 14L42 15L41 15L41 16L42 16L42 17L40 17L40 16L39 16L39 14L40 14L40 13L41 13L41 12L39 12L39 14L38 14L38 13L36 13L36 12ZM50 13L50 14L51 14L51 13ZM52 13L52 14L53 14L53 13ZM57 13L57 14L58 14L58 13ZM61 13L61 14L62 14L62 13ZM64 13L64 14L65 14L65 13ZM3 14L3 15L4 15L4 14ZM6 14L6 15L7 15L7 14ZM16 14L16 15L17 15L17 16L16 16L16 17L18 17L18 16L19 16L19 15L20 15L20 14L19 14L19 15L17 15L17 14ZM31 14L31 15L32 15L32 14ZM11 15L11 16L12 16L12 17L13 17L13 16L12 16L12 15ZM22 15L22 17L23 17L23 15ZM38 16L38 17L36 17L36 18L38 18L38 17L39 17L39 18L40 18L40 17L39 17L39 16ZM43 16L43 17L42 17L42 18L43 18L43 17L44 17L44 16ZM27 18L27 21L28 21L28 20L29 20L29 19L28 19L28 18ZM46 18L46 20L45 20L45 21L46 21L46 20L47 20L47 18ZM13 19L13 20L10 20L10 21L12 21L12 22L11 22L11 27L14 27L14 29L12 29L12 30L13 30L13 31L12 31L12 32L13 32L13 33L12 33L12 34L15 34L15 32L16 32L16 31L15 31L15 32L13 32L13 31L14 31L14 29L16 29L16 28L17 28L17 30L18 30L18 31L19 31L19 29L20 29L20 32L17 32L17 33L19 33L19 34L20 34L20 32L21 32L21 30L22 30L22 28L24 28L24 27L21 27L21 26L20 26L20 27L21 27L21 28L17 28L17 27L16 27L16 28L15 28L15 26L13 26L13 25L15 25L15 24L16 24L16 21L17 21L17 22L18 22L18 21L20 21L20 20L21 20L21 19L19 19L19 20L18 20L18 21L17 21L17 20L16 20L16 19ZM36 19L36 21L37 21L37 19ZM49 19L49 20L48 20L48 21L47 21L47 22L49 22L49 21L50 21L50 19ZM13 20L13 23L12 23L12 24L14 24L14 23L15 23L15 22L14 22L14 20ZM43 20L43 21L44 21L44 20ZM51 20L51 21L53 21L53 20ZM65 21L65 22L66 22L66 21ZM3 23L3 24L4 24L4 23ZM31 23L31 24L32 24L32 25L31 25L31 26L32 26L32 27L33 27L33 23ZM6 24L6 25L5 25L5 26L6 26L6 25L7 25L7 24ZM22 24L22 25L23 25L23 24ZM36 25L36 26L37 26L37 25ZM61 25L61 26L62 26L62 25ZM27 26L27 27L28 27L28 26ZM6 28L6 29L7 29L7 28ZM38 28L38 29L39 29L39 28ZM43 28L43 29L44 29L44 28ZM65 28L65 29L64 29L64 30L63 30L63 31L65 31L65 29L66 29L66 28ZM1 29L1 30L2 30L2 29ZM23 29L23 30L24 30L24 29ZM54 29L54 30L55 30L55 29ZM6 30L6 31L7 31L7 30ZM33 30L33 31L32 31L32 32L33 32L33 31L35 31L35 30ZM39 30L39 31L40 31L40 30ZM51 30L51 31L50 31L50 32L49 32L49 34L50 34L50 35L51 35L51 36L53 36L53 35L52 35L52 34L51 34L51 31L52 31L52 30ZM10 32L10 34L11 34L11 32ZM44 32L44 33L45 33L45 34L44 34L44 35L43 35L43 36L46 36L46 35L48 35L48 32L47 32L47 33L45 33L45 32ZM5 33L5 36L8 36L8 33ZM30 33L30 34L31 34L31 35L32 35L32 33ZM33 33L33 36L36 36L36 33ZM61 33L61 36L64 36L64 33ZM6 34L6 35L7 35L7 34ZM34 34L34 35L35 35L35 34ZM45 34L45 35L46 35L46 34ZM57 34L57 35L56 35L56 36L55 36L55 38L54 38L54 39L55 39L55 38L56 38L56 37L58 37L58 36L59 36L59 35L58 35L58 34ZM62 34L62 35L63 35L63 34ZM10 35L10 36L11 36L11 38L10 38L10 39L11 39L11 40L12 40L12 39L13 39L13 38L12 38L12 37L15 37L15 36L14 36L14 35L13 35L13 36L11 36L11 35ZM41 36L41 38L43 38L43 37L42 37L42 36ZM19 37L19 38L20 38L20 37ZM27 37L27 38L25 38L25 39L26 39L26 40L27 40L27 39L28 39L28 37ZM30 37L30 39L29 39L29 40L31 40L31 39L32 39L32 40L33 40L33 39L32 39L32 37ZM44 37L44 38L45 38L45 37ZM60 37L60 39L61 39L61 38L62 38L62 39L63 39L63 37ZM11 38L11 39L12 39L12 38ZM46 38L46 39L48 39L48 40L49 40L49 39L50 39L50 41L51 41L51 39L50 39L50 38L49 38L49 39L48 39L48 38ZM40 40L40 41L39 41L39 42L40 42L40 41L41 41L41 40ZM56 40L56 42L57 42L57 40ZM8 41L8 44L9 44L9 42L10 42L10 41ZM21 42L21 43L22 43L22 42ZM45 43L45 44L44 44L44 45L45 45L45 48L49 48L49 49L50 49L50 47L51 47L51 46L52 46L52 45L51 45L51 43L49 43L49 44L50 44L50 46L49 46L49 45L48 45L48 44L47 44L47 45L45 45L45 44L46 44L46 43ZM58 43L58 45L59 45L59 46L58 46L58 47L59 47L59 46L60 46L60 49L61 49L61 50L63 50L63 49L61 49L61 46L62 46L62 48L63 48L63 45L60 45L60 44L59 44L59 43ZM40 44L40 45L41 45L41 44ZM47 45L47 46L46 46L46 47L49 47L49 46L48 46L48 45ZM6 46L6 47L7 47L7 46ZM25 46L25 47L26 47L26 46ZM32 46L32 47L30 47L30 48L31 48L31 49L33 49L33 51L34 51L34 50L35 50L35 49L34 49L34 48L35 48L35 47L33 47L33 46ZM43 46L43 48L44 48L44 46ZM17 47L17 48L18 48L18 47ZM14 48L14 49L15 49L15 48ZM41 48L41 49L40 49L40 50L44 50L44 49L42 49L42 48ZM6 49L6 50L3 50L3 51L1 51L1 52L3 52L3 51L5 51L5 52L4 52L4 53L3 53L3 55L5 55L5 56L7 56L7 55L8 55L8 56L9 56L9 54L7 54L7 53L6 53L6 52L7 52L7 51L6 51L6 50L7 50L7 49ZM45 49L45 50L46 50L46 49ZM56 49L56 51L55 51L55 52L56 52L56 51L57 51L57 49ZM67 49L67 50L68 50L68 51L69 51L69 50L68 50L68 49ZM12 50L12 51L13 51L13 50ZM17 50L17 51L18 51L18 50ZM47 50L47 51L46 51L46 52L50 52L50 53L51 53L51 52L50 52L50 51L48 51L48 50ZM39 51L39 52L40 52L40 53L42 53L42 54L41 54L41 55L40 55L40 56L42 56L42 54L43 54L43 53L44 53L44 52L45 52L45 51ZM22 52L22 53L23 53L23 52ZM4 53L4 54L5 54L5 53ZM25 53L25 54L26 54L26 55L27 55L27 56L28 56L28 57L29 57L29 54L26 54L26 53ZM36 53L36 54L37 54L37 53ZM45 53L45 54L47 54L47 56L48 56L48 53ZM6 54L6 55L7 55L7 54ZM23 55L23 56L24 56L24 57L23 57L23 59L25 59L25 61L26 61L26 62L25 62L25 64L27 64L27 65L28 65L28 64L29 64L29 63L27 63L27 61L28 61L28 62L29 62L29 61L31 61L31 60L26 60L26 58L27 58L27 57L26 57L26 56L24 56L24 55ZM31 55L31 56L32 56L32 55ZM50 56L50 57L49 57L49 58L50 58L50 59L51 59L51 58L52 58L52 57L51 57L51 56ZM67 56L67 57L68 57L68 56ZM4 57L4 58L5 58L5 57ZM24 57L24 58L26 58L26 57ZM0 58L0 61L1 61L1 58ZM28 58L28 59L29 59L29 58ZM33 58L33 59L34 59L34 58ZM11 59L11 61L12 61L12 59ZM17 59L17 60L18 60L18 59ZM48 59L48 60L49 60L49 59ZM3 60L3 61L5 61L5 60ZM6 60L6 61L7 61L7 60ZM33 61L33 64L36 64L36 61ZM61 61L61 64L64 64L64 61ZM9 62L9 63L10 63L10 64L12 64L12 63L10 63L10 62ZM30 62L30 63L31 63L31 62ZM34 62L34 63L35 63L35 62ZM62 62L62 63L63 63L63 62ZM55 63L55 64L56 64L56 63ZM18 64L18 65L19 65L19 64ZM10 65L10 66L11 66L11 65ZM13 65L13 69L17 69L17 68L15 68L15 67L14 67L14 65ZM33 65L33 66L34 66L34 67L35 67L35 65ZM64 65L64 66L65 66L65 65ZM43 67L43 69L44 69L44 67ZM48 67L48 69L49 69L49 67ZM18 68L18 69L19 69L19 68ZM36 68L36 69L37 69L37 68ZM66 68L66 69L68 69L68 68ZM0 0L0 7L7 7L7 0ZM1 1L1 6L6 6L6 1ZM2 2L2 5L5 5L5 2ZM62 0L62 7L69 7L69 0ZM63 1L63 6L68 6L68 1ZM64 2L64 5L67 5L67 2ZM0 62L0 69L7 69L7 62ZM1 63L1 68L6 68L6 63ZM2 64L2 67L5 67L5 64Z" fill="#000000"/></g></g></svg>
