<?xml version="1.0" encoding="UTF-8"?>
<svg xmlns="http://www.w3.org/2000/svg" version="1.1" width="300" height="300" viewBox="0 0 300 300"><rect x="0" y="0" width="300" height="300" fill="#ffffff"/><g transform="scale(4.615)"><g transform="translate(0,0)"><path fill-rule="evenodd" d="M8 0L8 4L9 4L9 5L8 5L8 7L9 7L9 10L8 10L8 13L7 13L7 12L3 12L3 13L2 13L2 16L1 16L1 14L0 14L0 18L1 18L1 19L2 19L2 21L1 21L1 20L0 20L0 24L1 24L1 26L0 26L0 28L1 28L1 29L0 29L0 30L1 30L1 31L0 31L0 33L1 33L1 34L0 34L0 36L1 36L1 37L0 37L0 38L1 38L1 39L0 39L0 41L1 41L1 42L0 42L0 43L1 43L1 42L2 42L2 44L0 44L0 46L2 46L2 45L3 45L3 43L4 43L4 45L7 45L7 44L8 44L8 47L7 47L7 46L3 46L3 47L1 47L1 48L0 48L0 49L1 49L1 48L2 48L2 49L3 49L3 47L4 47L4 48L6 48L6 49L5 49L5 51L8 51L8 52L4 52L4 53L5 53L5 55L7 55L7 56L6 56L6 57L7 57L7 56L9 56L9 57L8 57L8 58L9 58L9 59L8 59L8 61L10 61L10 60L9 60L9 59L10 59L10 58L9 58L9 57L13 57L13 58L11 58L11 59L14 59L14 60L13 60L13 61L12 61L12 60L11 60L11 61L12 61L12 64L11 64L11 63L10 63L10 64L11 64L11 65L12 65L12 64L14 64L14 65L15 65L15 64L16 64L16 65L19 65L19 64L18 64L18 63L20 63L20 62L23 62L23 61L24 61L24 62L25 62L25 64L26 64L26 65L29 65L29 63L30 63L30 65L33 65L33 64L32 64L32 62L33 62L33 61L34 61L34 65L37 65L37 63L38 63L38 65L40 65L40 64L41 64L41 65L43 65L43 63L45 63L45 64L44 64L44 65L45 65L45 64L46 64L46 65L52 65L52 63L55 63L55 64L54 64L54 65L55 65L55 64L56 64L56 65L57 65L57 64L56 64L56 62L55 62L55 61L57 61L57 63L58 63L58 64L59 64L59 65L61 65L61 64L62 64L62 63L63 63L63 65L64 65L64 64L65 64L65 62L62 62L62 63L61 63L61 64L60 64L60 63L58 63L58 62L59 62L59 61L62 61L62 58L64 58L64 59L63 59L63 60L64 60L64 61L65 61L65 58L64 58L64 57L65 57L65 54L64 54L64 53L65 53L65 49L63 49L63 48L62 48L62 45L63 45L63 46L64 46L64 48L65 48L65 46L64 46L64 45L65 45L65 44L64 44L64 43L65 43L65 42L64 42L64 43L63 43L63 44L62 44L62 43L59 43L59 42L63 42L63 41L64 41L64 39L65 39L65 34L64 34L64 31L65 31L65 28L64 28L64 27L65 27L65 22L64 22L64 21L65 21L65 20L64 20L64 19L65 19L65 17L64 17L64 16L65 16L65 13L64 13L64 12L65 12L65 10L64 10L64 9L65 9L65 8L61 8L61 10L58 10L58 9L57 9L57 6L56 6L56 8L55 8L55 5L54 5L54 4L56 4L56 5L57 5L57 4L56 4L56 3L57 3L57 1L56 1L56 0L55 0L55 1L56 1L56 3L55 3L55 2L52 2L52 1L51 1L51 0L50 0L50 1L49 1L49 0L47 0L47 2L48 2L48 3L45 3L45 5L43 5L43 4L44 4L44 2L43 2L43 0L40 0L40 2L39 2L39 0L38 0L38 1L36 1L36 0L35 0L35 3L38 3L38 7L39 7L39 6L40 6L40 7L41 7L41 5L43 5L43 6L42 6L42 7L43 7L43 6L44 6L44 7L45 7L45 8L44 8L44 9L45 9L45 10L46 10L46 11L45 11L45 12L44 12L44 13L41 13L41 15L42 15L42 16L41 16L41 17L42 17L42 19L39 19L39 18L40 18L40 16L39 16L39 15L40 15L40 11L41 11L41 10L42 10L42 11L43 11L43 9L42 9L42 8L41 8L41 9L40 9L40 11L39 11L39 8L37 8L37 6L36 6L36 4L34 4L34 2L33 2L33 4L32 4L32 3L30 3L30 5L28 5L28 4L29 4L29 3L28 3L28 1L25 1L25 0L22 0L22 1L25 1L25 3L26 3L26 2L27 2L27 3L28 3L28 4L26 4L26 5L25 5L25 4L23 4L23 2L22 2L22 3L21 3L21 4L20 4L20 5L19 5L19 4L18 4L18 3L17 3L17 1L18 1L18 2L19 2L19 3L20 3L20 2L19 2L19 1L21 1L21 0L19 0L19 1L18 1L18 0L16 0L16 2L14 2L14 1L15 1L15 0L14 0L14 1L11 1L11 0ZM29 0L29 1L30 1L30 2L32 2L32 1L34 1L34 0ZM44 0L44 1L46 1L46 0ZM41 1L41 4L40 4L40 3L39 3L39 5L41 5L41 4L42 4L42 3L43 3L43 2L42 2L42 1ZM48 1L48 2L49 2L49 3L48 3L48 4L46 4L46 5L45 5L45 7L46 7L46 6L47 6L47 9L46 9L46 10L48 10L48 11L49 11L49 10L50 10L50 12L49 12L49 14L47 14L47 12L45 12L45 13L44 13L44 15L43 15L43 14L42 14L42 15L43 15L43 17L44 17L44 18L43 18L43 19L42 19L42 21L41 21L41 20L40 20L40 23L39 23L39 24L40 24L40 25L39 25L39 26L38 26L38 25L37 25L37 26L36 26L36 28L38 28L38 29L37 29L37 30L38 30L38 29L39 29L39 28L38 28L38 27L40 27L40 26L41 26L41 27L42 27L42 28L40 28L40 29L43 29L43 31L42 31L42 30L41 30L41 31L42 31L42 32L43 32L43 34L42 34L42 35L43 35L43 38L41 38L41 39L44 39L44 40L43 40L43 41L44 41L44 43L43 43L43 42L40 42L40 41L41 41L41 40L40 40L40 38L39 38L39 39L38 39L38 37L37 37L37 39L38 39L38 40L37 40L37 41L35 41L35 42L37 42L37 43L38 43L38 44L40 44L40 47L39 47L39 46L38 46L38 45L34 45L34 44L33 44L33 43L34 43L34 41L33 41L33 40L30 40L30 41L29 41L29 40L27 40L27 39L29 39L29 38L30 38L30 37L31 37L31 39L34 39L34 40L36 40L36 38L35 38L35 39L34 39L34 36L33 36L33 35L32 35L32 36L33 36L33 38L32 38L32 37L31 37L31 36L29 36L29 35L30 35L30 32L28 32L28 31L26 31L26 27L27 27L27 26L26 26L26 24L25 24L25 26L26 26L26 27L23 27L23 25L24 25L24 24L22 24L22 23L23 23L23 21L21 21L21 22L20 22L20 17L21 17L21 16L20 16L20 17L19 17L19 20L18 20L18 21L17 21L17 20L15 20L15 19L14 19L14 18L16 18L16 19L18 19L18 17L17 17L17 18L16 18L16 17L14 17L14 16L15 16L15 14L17 14L17 13L16 13L16 12L15 12L15 11L17 11L17 12L18 12L18 11L17 11L17 10L14 10L14 11L13 11L13 9L14 9L14 6L15 6L15 7L16 7L16 9L17 9L17 7L18 7L18 6L19 6L19 10L20 10L20 11L19 11L19 12L20 12L20 11L22 11L22 13L19 13L19 14L18 14L18 16L19 16L19 15L20 15L20 14L22 14L22 18L21 18L21 19L22 19L22 20L24 20L24 21L27 21L27 20L28 20L28 26L29 26L29 25L30 25L30 26L33 26L33 25L32 25L32 23L33 23L33 24L35 24L35 21L34 21L34 19L33 19L33 21L34 21L34 23L33 23L33 22L32 22L32 19L30 19L30 18L31 18L31 17L32 17L32 18L33 18L33 17L32 17L32 16L33 16L33 15L34 15L34 18L35 18L35 19L36 19L36 20L38 20L38 21L37 21L37 23L38 23L38 21L39 21L39 20L38 20L38 19L37 19L37 18L38 18L38 16L37 16L37 15L39 15L39 14L38 14L38 13L39 13L39 11L38 11L38 9L37 9L37 10L36 10L36 9L34 9L34 12L35 12L35 11L37 11L37 15L36 15L36 16L37 16L37 18L36 18L36 17L35 17L35 13L32 13L32 9L27 9L27 10L26 10L26 11L28 11L28 10L29 10L29 12L27 12L27 13L29 13L29 14L28 14L28 15L27 15L27 14L26 14L26 12L25 12L25 11L24 11L24 12L23 12L23 11L22 11L22 10L23 10L23 9L24 9L24 8L25 8L25 9L26 9L26 8L28 8L28 5L27 5L27 7L26 7L26 6L25 6L25 7L24 7L24 5L23 5L23 4L22 4L22 5L20 5L20 6L19 6L19 5L17 5L17 3L16 3L16 4L15 4L15 3L14 3L14 2L13 2L13 3L14 3L14 4L15 4L15 5L14 5L14 6L13 6L13 5L12 5L12 6L11 6L11 8L10 8L10 10L9 10L9 11L11 11L11 10L12 10L12 11L13 11L13 12L12 12L12 13L14 13L14 12L15 12L15 14L14 14L14 15L13 15L13 14L10 14L10 12L9 12L9 13L8 13L8 14L7 14L7 13L4 13L4 14L3 14L3 15L4 15L4 14L5 14L5 15L6 15L6 16L7 16L7 15L8 15L8 14L9 14L9 16L10 16L10 17L6 17L6 18L5 18L5 17L4 17L4 16L2 16L2 19L3 19L3 20L4 20L4 21L3 21L3 22L1 22L1 24L2 24L2 26L1 26L1 28L2 28L2 27L3 27L3 28L4 28L4 27L5 27L5 29L3 29L3 30L5 30L5 29L6 29L6 30L11 30L11 29L12 29L12 28L13 28L13 29L15 29L15 31L14 31L14 30L12 30L12 31L9 31L9 32L10 32L10 33L9 33L9 34L11 34L11 33L12 33L12 34L13 34L13 35L11 35L11 37L10 37L10 35L8 35L8 36L9 36L9 38L10 38L10 39L8 39L8 40L7 40L7 39L6 39L6 40L5 40L5 39L3 39L3 40L2 40L2 41L3 41L3 42L4 42L4 43L6 43L6 44L7 44L7 43L6 43L6 42L9 42L9 41L11 41L11 42L12 42L12 41L13 41L13 43L11 43L11 44L10 44L10 43L9 43L9 44L10 44L10 45L9 45L9 47L8 47L8 48L9 48L9 49L8 49L8 50L9 50L9 52L11 52L11 51L12 51L12 50L11 50L11 49L13 49L13 50L15 50L15 52L13 52L13 53L16 53L16 54L18 54L18 53L19 53L19 54L20 54L20 57L19 57L19 58L18 58L18 57L16 57L16 56L15 56L15 57L16 57L16 61L15 61L15 60L14 60L14 61L13 61L13 62L15 62L15 63L16 63L16 62L17 62L17 61L18 61L18 62L19 62L19 61L20 61L20 60L21 60L21 61L23 61L23 60L21 60L21 58L20 58L20 57L25 57L25 58L22 58L22 59L24 59L24 60L25 60L25 62L26 62L26 59L28 59L28 60L29 60L29 59L30 59L30 57L29 57L29 56L34 56L34 54L35 54L35 56L37 56L37 55L40 55L40 54L41 54L41 56L40 56L40 57L39 57L39 56L38 56L38 57L39 57L39 59L40 59L40 58L41 58L41 56L43 56L43 58L42 58L42 59L41 59L41 60L40 60L40 61L42 61L42 60L43 60L43 61L44 61L44 62L45 62L45 61L44 61L44 60L43 60L43 59L45 59L45 60L46 60L46 62L47 62L47 60L48 60L48 59L47 59L47 58L49 58L49 59L50 59L50 57L46 57L46 56L47 56L47 55L48 55L48 56L49 56L49 54L50 54L50 56L51 56L51 54L52 54L52 55L53 55L53 54L52 54L52 53L53 53L53 52L55 52L55 51L56 51L56 53L60 53L60 52L61 52L61 51L62 51L62 54L61 54L61 55L60 55L60 56L61 56L61 58L62 58L62 56L64 56L64 54L63 54L63 52L64 52L64 50L61 50L61 51L60 51L60 52L59 52L59 51L56 51L56 49L55 49L55 48L56 48L56 47L58 47L58 46L59 46L59 45L60 45L60 44L59 44L59 43L58 43L58 42L59 42L59 41L60 41L60 40L61 40L61 39L62 39L62 41L63 41L63 39L64 39L64 36L63 36L63 35L64 35L64 34L63 34L63 31L64 31L64 29L63 29L63 27L64 27L64 25L62 25L62 24L64 24L64 22L62 22L62 21L61 21L61 22L62 22L62 24L61 24L61 26L62 26L62 28L61 28L61 29L60 29L60 26L59 26L59 24L60 24L60 23L59 23L59 21L60 21L60 19L59 19L59 17L58 17L58 16L59 16L59 15L60 15L60 16L61 16L61 17L62 17L62 20L63 20L63 21L64 21L64 20L63 20L63 19L64 19L64 17L62 17L62 16L64 16L64 14L63 14L63 11L64 11L64 10L63 10L63 11L62 11L62 13L61 13L61 14L59 14L59 13L58 13L58 11L57 11L57 10L56 10L56 9L55 9L55 8L53 8L53 7L54 7L54 5L53 5L53 4L54 4L54 3L53 3L53 4L52 4L52 3L51 3L51 2L49 2L49 1ZM9 2L9 3L10 3L10 4L12 4L12 3L11 3L11 2ZM49 3L49 4L48 4L48 5L47 5L47 6L48 6L48 9L49 9L49 8L50 8L50 10L51 10L51 11L54 11L54 13L53 13L53 14L52 14L52 16L50 16L50 18L49 18L49 15L50 15L50 14L51 14L51 12L50 12L50 14L49 14L49 15L47 15L47 14L46 14L46 13L45 13L45 15L44 15L44 17L45 17L45 18L44 18L44 19L43 19L43 20L44 20L44 22L43 22L43 21L42 21L42 23L40 23L40 24L41 24L41 26L42 26L42 27L43 27L43 28L44 28L44 29L46 29L46 27L45 27L45 26L46 26L46 25L48 25L48 26L47 26L47 29L49 29L49 31L50 31L50 32L47 32L47 33L48 33L48 34L46 34L46 33L45 33L45 32L46 32L46 31L45 31L45 30L44 30L44 31L43 31L43 32L44 32L44 39L46 39L46 40L47 40L47 41L49 41L49 40L50 40L50 43L51 43L51 41L52 41L52 42L56 42L56 40L57 40L57 39L59 39L59 38L57 38L57 37L58 37L58 35L59 35L59 37L60 37L60 39L61 39L61 38L62 38L62 39L63 39L63 37L60 37L60 35L61 35L61 36L62 36L62 35L63 35L63 34L62 34L62 31L63 31L63 30L62 30L62 29L61 29L61 30L58 30L58 24L57 24L57 25L56 25L56 23L55 23L55 25L54 25L54 23L53 23L53 22L55 22L55 21L56 21L56 22L57 22L57 23L58 23L58 21L59 21L59 20L58 20L58 17L56 17L56 19L55 19L55 17L52 17L52 16L53 16L53 15L54 15L54 14L55 14L55 16L56 16L56 14L57 14L57 15L59 15L59 14L58 14L58 13L56 13L56 12L57 12L57 11L56 11L56 10L55 10L55 9L52 9L52 7L53 7L53 6L52 6L52 5L51 5L51 4L50 4L50 3ZM49 4L49 5L48 5L48 6L49 6L49 7L50 7L50 4ZM9 5L9 7L10 7L10 5ZM16 5L16 7L17 7L17 5ZM22 5L22 8L21 8L21 6L20 6L20 8L21 8L21 9L20 9L20 10L22 10L22 8L24 8L24 7L23 7L23 5ZM31 5L31 8L34 8L34 5ZM12 6L12 7L13 7L13 6ZM29 6L29 7L30 7L30 6ZM32 6L32 7L33 7L33 6ZM35 6L35 7L36 7L36 6ZM51 6L51 7L52 7L52 6ZM25 7L25 8L26 8L26 7ZM0 8L0 9L2 9L2 8ZM4 8L4 9L3 9L3 10L2 10L2 11L0 11L0 12L2 12L2 11L4 11L4 9L5 9L5 11L7 11L7 10L6 10L6 9L7 9L7 8ZM12 8L12 9L13 9L13 8ZM59 8L59 9L60 9L60 8ZM51 9L51 10L52 10L52 9ZM30 10L30 11L31 11L31 10ZM24 12L24 13L23 13L23 15L24 15L24 17L23 17L23 19L24 19L24 18L25 18L25 19L26 19L26 20L27 20L27 18L28 18L28 16L27 16L27 15L25 15L25 14L24 14L24 13L25 13L25 12ZM30 12L30 13L31 13L31 15L33 15L33 14L32 14L32 13L31 13L31 12ZM55 13L55 14L56 14L56 13ZM6 14L6 15L7 15L7 14ZM61 14L61 16L62 16L62 14ZM10 15L10 16L11 16L11 17L10 17L10 19L9 19L9 18L8 18L8 21L9 21L9 20L10 20L10 22L11 22L11 25L13 25L13 24L14 24L14 23L16 23L16 22L17 22L17 21L15 21L15 20L14 20L14 19L13 19L13 18L14 18L14 17L13 17L13 18L12 18L12 19L11 19L11 17L12 17L12 16L13 16L13 15ZM45 15L45 17L46 17L46 20L45 20L45 19L44 19L44 20L45 20L45 21L46 21L46 22L45 22L45 23L46 23L46 24L45 24L45 25L44 25L44 23L42 23L42 25L44 25L44 26L43 26L43 27L44 27L44 28L45 28L45 27L44 27L44 26L45 26L45 25L46 25L46 24L47 24L47 23L48 23L48 22L47 22L47 21L46 21L46 20L47 20L47 17L46 17L46 16L47 16L47 15ZM25 16L25 18L26 18L26 16ZM29 17L29 18L30 18L30 17ZM51 17L51 19L48 19L48 20L49 20L49 21L50 21L50 20L51 20L51 19L52 19L52 21L54 21L54 19L53 19L53 18L52 18L52 17ZM4 18L4 19L5 19L5 21L7 21L7 20L6 20L6 19L7 19L7 18L6 18L6 19L5 19L5 18ZM10 19L10 20L11 20L11 21L12 21L12 24L13 24L13 21L14 21L14 22L15 22L15 21L14 21L14 20L13 20L13 19L12 19L12 20L11 20L11 19ZM28 19L28 20L29 20L29 21L30 21L30 23L32 23L32 22L31 22L31 20L29 20L29 19ZM56 19L56 20L57 20L57 21L58 21L58 20L57 20L57 19ZM12 20L12 21L13 21L13 20ZM18 21L18 22L19 22L19 21ZM4 22L4 23L5 23L5 24L3 24L3 23L2 23L2 24L3 24L3 25L4 25L4 26L3 26L3 27L4 27L4 26L6 26L6 27L7 27L7 28L6 28L6 29L7 29L7 28L8 28L8 27L9 27L9 29L11 29L11 28L12 28L12 27L13 27L13 26L12 26L12 27L10 27L10 26L9 26L9 25L10 25L10 23L9 23L9 22L8 22L8 23L7 23L7 22ZM21 22L21 23L20 23L20 24L18 24L18 23L17 23L17 25L20 25L20 26L21 26L21 27L20 27L20 29L19 29L19 26L17 26L17 27L16 27L16 28L15 28L15 29L16 29L16 28L18 28L18 29L17 29L17 30L16 30L16 31L15 31L15 33L14 33L14 31L13 31L13 32L12 32L12 33L14 33L14 34L16 34L16 35L15 35L15 36L14 36L14 37L13 37L13 36L12 36L12 37L11 37L11 39L13 39L13 41L14 41L14 42L16 42L16 44L17 44L17 45L15 45L15 43L14 43L14 44L11 44L11 46L12 46L12 47L10 47L10 49L9 49L9 50L10 50L10 49L11 49L11 48L12 48L12 47L13 47L13 46L14 46L14 47L16 47L16 46L18 46L18 45L22 45L22 46L20 46L20 47L19 47L19 48L18 48L18 47L17 47L17 49L19 49L19 48L20 48L20 50L21 50L21 49L22 49L22 47L24 47L24 49L23 49L23 52L22 52L22 51L21 51L21 53L20 53L20 52L19 52L19 50L18 50L18 51L17 51L17 50L16 50L16 48L14 48L14 49L15 49L15 50L16 50L16 51L17 51L17 52L16 52L16 53L18 53L18 52L19 52L19 53L20 53L20 54L21 54L21 53L23 53L23 54L22 54L22 55L21 55L21 56L22 56L22 55L23 55L23 54L26 54L26 55L25 55L25 57L27 57L27 58L28 58L28 57L27 57L27 56L29 56L29 55L33 55L33 53L32 53L32 52L33 52L33 49L34 49L34 47L35 47L35 50L34 50L34 53L35 53L35 54L36 54L36 53L38 53L38 54L40 54L40 52L39 52L39 53L38 53L38 52L36 52L36 51L35 51L35 50L36 50L36 49L37 49L37 47L38 47L38 51L41 51L41 52L42 52L42 53L41 53L41 54L43 54L43 56L44 56L44 58L45 58L45 56L44 56L44 54L45 54L45 55L46 55L46 52L45 52L45 51L44 51L44 49L45 49L45 50L46 50L46 48L45 48L45 47L48 47L48 48L47 48L47 51L48 51L48 53L47 53L47 54L48 54L48 53L49 53L49 52L50 52L50 51L48 51L48 50L49 50L49 49L50 49L50 50L52 50L52 52L51 52L51 53L50 53L50 54L51 54L51 53L52 53L52 52L53 52L53 50L55 50L55 49L52 49L52 48L51 48L51 47L52 47L52 46L55 46L55 45L56 45L56 44L57 44L57 46L58 46L58 45L59 45L59 44L58 44L58 43L56 43L56 44L55 44L55 45L52 45L52 46L51 46L51 45L50 45L50 46L51 46L51 47L50 47L50 48L49 48L49 47L48 47L48 45L49 45L49 42L46 42L46 41L45 41L45 40L44 40L44 41L45 41L45 43L46 43L46 44L47 44L47 46L46 46L46 45L45 45L45 44L44 44L44 45L43 45L43 44L42 44L42 43L41 43L41 46L45 46L45 47L44 47L44 49L43 49L43 47L42 47L42 48L41 48L41 50L40 50L40 49L39 49L39 47L38 47L38 46L37 46L37 47L35 47L35 46L34 46L34 45L32 45L32 43L33 43L33 41L31 41L31 42L29 42L29 44L30 44L30 43L31 43L31 45L30 45L30 47L27 47L27 48L26 48L26 49L25 49L25 47L26 47L26 46L28 46L28 45L27 45L27 44L26 44L26 41L27 41L27 43L28 43L28 41L27 41L27 40L26 40L26 41L25 41L25 40L24 40L24 39L25 39L25 37L26 37L26 39L27 39L27 38L28 38L28 37L29 37L29 36L26 36L26 35L24 35L24 36L23 36L23 34L25 34L25 32L26 32L26 34L27 34L27 35L28 35L28 32L26 32L26 31L25 31L25 32L24 32L24 31L22 31L22 30L23 30L23 29L24 29L24 30L25 30L25 28L23 28L23 29L21 29L21 27L22 27L22 24L21 24L21 23L22 23L22 22ZM24 22L24 23L25 23L25 22ZM51 22L51 24L50 24L50 23L49 23L49 24L50 24L50 25L49 25L49 28L50 28L50 29L51 29L51 28L52 28L52 30L51 30L51 31L52 31L52 30L53 30L53 31L54 31L54 30L53 30L53 28L52 28L52 27L54 27L54 28L55 28L55 31L56 31L56 28L55 28L55 27L54 27L54 25L53 25L53 24L52 24L52 22ZM6 23L6 24L5 24L5 25L6 25L6 26L8 26L8 25L9 25L9 23L8 23L8 25L6 25L6 24L7 24L7 23ZM30 24L30 25L31 25L31 24ZM51 24L51 25L50 25L50 26L51 26L51 27L50 27L50 28L51 28L51 27L52 27L52 26L53 26L53 25L52 25L52 24ZM14 25L14 26L16 26L16 25ZM34 25L34 30L35 30L35 31L36 31L36 29L35 29L35 25ZM51 25L51 26L52 26L52 25ZM55 25L55 26L56 26L56 27L57 27L57 26L56 26L56 25ZM28 27L28 28L27 28L27 30L29 30L29 31L30 31L30 30L33 30L33 29L32 29L32 28L33 28L33 27ZM29 28L29 30L30 30L30 29L31 29L31 28ZM18 29L18 30L17 30L17 32L16 32L16 34L17 34L17 32L19 32L19 34L18 34L18 35L16 35L16 36L15 36L15 37L16 37L16 38L17 38L17 39L18 39L18 38L17 38L17 37L18 37L18 36L19 36L19 39L20 39L20 40L21 40L21 39L22 39L22 41L21 41L21 42L20 42L20 41L19 41L19 42L18 42L18 41L17 41L17 40L16 40L16 39L15 39L15 38L14 38L14 39L15 39L15 40L16 40L16 42L18 42L18 44L22 44L22 45L24 45L24 46L26 46L26 44L25 44L25 42L23 42L23 39L24 39L24 38L23 38L23 36L22 36L22 35L21 35L21 34L20 34L20 33L24 33L24 32L22 32L22 31L21 31L21 30L20 30L20 31L18 31L18 30L19 30L19 29ZM47 30L47 31L48 31L48 30ZM61 30L61 31L62 31L62 30ZM1 31L1 32L2 32L2 31ZM5 31L5 34L8 34L8 31ZM31 31L31 34L34 34L34 31ZM37 31L37 36L38 36L38 35L39 35L39 34L40 34L40 33L41 33L41 32L40 32L40 33L39 33L39 34L38 34L38 31ZM44 31L44 32L45 32L45 31ZM57 31L57 34L60 34L60 31ZM3 32L3 33L2 33L2 35L3 35L3 36L2 36L2 38L3 38L3 37L5 37L5 36L7 36L7 35L5 35L5 36L4 36L4 35L3 35L3 34L4 34L4 32ZM6 32L6 33L7 33L7 32ZM32 32L32 33L33 33L33 32ZM52 32L52 33L51 33L51 34L50 34L50 33L49 33L49 34L50 34L50 35L48 35L48 36L49 36L49 38L47 38L47 36L45 36L45 37L46 37L46 38L47 38L47 39L49 39L49 38L50 38L50 39L52 39L52 41L53 41L53 39L52 39L52 37L55 37L55 36L56 36L56 35L55 35L55 34L54 34L54 35L53 35L53 33L54 33L54 32ZM58 32L58 33L59 33L59 32ZM19 34L19 35L20 35L20 38L22 38L22 39L23 39L23 38L22 38L22 37L21 37L21 35L20 35L20 34ZM51 34L51 35L52 35L52 34ZM61 34L61 35L62 35L62 34ZM40 35L40 37L41 37L41 35ZM16 36L16 37L17 37L17 36ZM51 36L51 37L50 37L50 38L51 38L51 37L52 37L52 36ZM6 37L6 38L8 38L8 37ZM12 37L12 38L13 38L13 37ZM55 38L55 39L54 39L54 40L56 40L56 38ZM6 40L6 41L7 41L7 40ZM38 40L38 42L39 42L39 43L40 43L40 42L39 42L39 41L40 41L40 40ZM4 41L4 42L5 42L5 41ZM57 41L57 42L58 42L58 41ZM19 42L19 43L20 43L20 42ZM21 42L21 43L22 43L22 44L24 44L24 45L25 45L25 44L24 44L24 43L23 43L23 42ZM47 43L47 44L48 44L48 43ZM63 44L63 45L64 45L64 44ZM12 45L12 46L13 46L13 45ZM31 45L31 47L30 47L30 48L27 48L27 49L28 49L28 50L27 50L27 51L28 51L28 50L29 50L29 51L30 51L30 52L32 52L32 49L31 49L31 50L30 50L30 48L32 48L32 45ZM33 46L33 47L34 47L34 46ZM6 47L6 48L7 48L7 47ZM54 47L54 48L55 48L55 47ZM50 48L50 49L51 49L51 48ZM57 48L57 49L58 49L58 48ZM60 48L60 49L59 49L59 50L60 50L60 49L61 49L61 48ZM6 49L6 50L7 50L7 49ZM0 50L0 53L1 53L1 54L2 54L2 55L3 55L3 56L1 56L1 55L0 55L0 56L1 56L1 57L3 57L3 56L4 56L4 57L5 57L5 56L4 56L4 54L3 54L3 53L2 53L2 50ZM24 50L24 51L25 51L25 53L27 53L27 52L26 52L26 51L25 51L25 50ZM42 51L42 52L43 52L43 51ZM28 52L28 55L29 55L29 54L30 54L30 53L29 53L29 52ZM6 53L6 54L7 54L7 55L8 55L8 54L10 54L10 55L9 55L9 56L13 56L13 57L14 57L14 55L15 55L15 54L14 54L14 55L12 55L12 54L10 54L10 53ZM31 53L31 54L32 54L32 53ZM43 53L43 54L44 54L44 53ZM54 54L54 56L56 56L56 55L58 55L58 54L56 54L56 55L55 55L55 54ZM61 55L61 56L62 56L62 55ZM52 56L52 57L51 57L51 59L52 59L52 58L53 58L53 59L54 59L54 60L52 60L52 62L50 62L50 61L51 61L51 60L49 60L49 61L48 61L48 64L49 64L49 63L50 63L50 64L51 64L51 63L52 63L52 62L53 62L53 61L55 61L55 60L56 60L56 57L55 57L55 58L53 58L53 56ZM31 57L31 60L34 60L34 57ZM57 57L57 60L60 60L60 57ZM17 58L17 59L18 59L18 61L19 61L19 60L20 60L20 59L18 59L18 58ZM32 58L32 59L33 59L33 58ZM36 58L36 59L35 59L35 60L37 60L37 62L38 62L38 63L39 63L39 64L40 64L40 63L39 63L39 62L38 62L38 59L37 59L37 58ZM58 58L58 59L59 59L59 58ZM27 61L27 63L26 63L26 64L28 64L28 62L29 62L29 61ZM30 61L30 62L32 62L32 61ZM35 61L35 62L36 62L36 61ZM41 62L41 64L42 64L42 63L43 63L43 62ZM8 63L8 65L9 65L9 63ZM22 63L22 64L23 64L23 65L24 65L24 63ZM35 63L35 64L36 64L36 63ZM46 63L46 64L47 64L47 63ZM0 0L0 7L7 7L7 0ZM1 1L1 6L6 6L6 1ZM2 2L2 5L5 5L5 2ZM58 0L58 7L65 7L65 0ZM59 1L59 6L64 6L64 1ZM60 2L60 5L63 5L63 2ZM0 58L0 65L7 65L7 58ZM1 59L1 64L6 64L6 59ZM2 60L2 63L5 63L5 60Z" fill="#000000"/></g></g></svg>
