<?xml version="1.0" encoding="UTF-8"?>
<svg xmlns="http://www.w3.org/2000/svg" version="1.1" width="300" height="300" viewBox="0 0 300 300"><rect x="0" y="0" width="300" height="300" fill="#ffffff"/><g transform="scale(4.615)"><g transform="translate(0,0)"><path fill-rule="evenodd" d="M8 0L8 1L9 1L9 0ZM13 0L13 2L14 2L14 1L15 1L15 3L13 3L13 4L12 4L12 3L11 3L11 2L12 2L12 1L10 1L10 2L8 2L8 5L9 5L9 3L11 3L11 5L10 5L10 7L11 7L11 8L12 8L12 7L13 7L13 8L15 8L15 9L13 9L13 10L12 10L12 9L11 9L11 10L12 10L12 13L11 13L11 14L10 14L10 13L9 13L9 14L8 14L8 15L9 15L9 17L8 17L8 18L6 18L6 17L7 17L7 16L6 16L6 15L7 15L7 14L6 14L6 15L4 15L4 12L5 12L5 13L8 13L8 12L5 12L5 11L4 11L4 12L3 12L3 11L1 11L1 10L0 10L0 11L1 11L1 12L0 12L0 13L1 13L1 16L0 16L0 18L1 18L1 17L2 17L2 18L4 18L4 17L5 17L5 19L4 19L4 20L3 20L3 22L2 22L2 21L1 21L1 23L0 23L0 24L1 24L1 25L2 25L2 24L1 24L1 23L3 23L3 26L1 26L1 33L2 33L2 34L0 34L0 36L2 36L2 38L3 38L3 39L4 39L4 42L2 42L2 41L0 41L0 42L2 42L2 43L0 43L0 46L1 46L1 47L0 47L0 49L1 49L1 47L2 47L2 48L3 48L3 51L2 51L2 50L0 50L0 53L1 53L1 52L3 52L3 53L4 53L4 54L2 54L2 55L3 55L3 56L1 56L1 55L0 55L0 56L1 56L1 57L3 57L3 56L4 56L4 57L5 57L5 56L4 56L4 54L5 54L5 55L7 55L7 56L6 56L6 57L7 57L7 56L9 56L9 57L8 57L8 58L9 58L9 57L10 57L10 56L12 56L12 57L11 57L11 58L10 58L10 59L9 59L9 60L10 60L10 61L8 61L8 65L14 65L14 64L11 64L11 63L14 63L14 62L15 62L15 65L18 65L18 64L19 64L19 65L20 65L20 64L19 64L19 63L18 63L18 62L15 62L15 60L14 60L14 59L16 59L16 60L17 60L17 61L20 61L20 62L21 62L21 63L22 63L22 64L23 64L23 63L24 63L24 65L27 65L27 64L26 64L26 63L24 63L24 61L25 61L25 62L27 62L27 63L29 63L29 62L27 62L27 61L26 61L26 58L27 58L27 59L28 59L28 61L32 61L32 62L33 62L33 63L31 63L31 64L32 64L32 65L33 65L33 63L35 63L35 64L34 64L34 65L35 65L35 64L36 64L36 63L37 63L37 62L40 62L40 63L41 63L41 64L42 64L42 63L43 63L43 62L44 62L44 64L43 64L43 65L45 65L45 64L46 64L46 65L47 65L47 63L48 63L48 64L49 64L49 63L54 63L54 64L53 64L53 65L55 65L55 64L56 64L56 61L58 61L58 62L59 62L59 63L60 63L60 64L62 64L62 63L60 63L60 62L61 62L61 59L63 59L63 60L62 60L62 61L65 61L65 60L64 60L64 57L65 57L65 55L61 55L61 56L60 56L60 55L58 55L58 56L55 56L55 55L57 55L57 54L56 54L56 53L57 53L57 52L56 52L56 51L59 51L59 50L58 50L58 49L62 49L62 50L60 50L60 52L62 52L62 50L63 50L63 53L61 53L61 54L64 54L64 51L65 51L65 49L64 49L64 48L65 48L65 47L64 47L64 46L63 46L63 44L64 44L64 43L62 43L62 42L64 42L64 41L62 41L62 39L64 39L64 40L65 40L65 36L64 36L64 34L63 34L63 33L65 33L65 31L64 31L64 32L63 32L63 29L64 29L64 28L65 28L65 26L64 26L64 25L65 25L65 23L64 23L64 22L63 22L63 21L62 21L62 20L63 20L63 19L62 19L62 18L63 18L63 17L64 17L64 18L65 18L65 17L64 17L64 16L62 16L62 14L63 14L63 15L65 15L65 13L63 13L63 12L61 12L61 11L60 11L60 12L59 12L59 11L58 11L58 10L57 10L57 13L56 13L56 11L55 11L55 12L54 12L54 11L52 11L52 10L56 10L56 9L55 9L55 8L54 8L54 9L53 9L53 5L54 5L54 7L55 7L55 5L54 5L54 4L56 4L56 5L57 5L57 4L56 4L56 3L57 3L57 1L56 1L56 0L55 0L55 1L56 1L56 3L55 3L55 2L54 2L54 1L50 1L50 0L48 0L48 1L49 1L49 3L47 3L47 1L46 1L46 2L45 2L45 5L43 5L43 6L42 6L42 7L41 7L41 6L40 6L40 5L39 5L39 2L40 2L40 3L41 3L41 4L42 4L42 3L43 3L43 4L44 4L44 0L41 0L41 1L38 1L38 0L37 0L37 1L38 1L38 4L37 4L37 2L36 2L36 3L33 3L33 4L32 4L32 2L33 2L33 0L29 0L29 1L31 1L31 2L28 2L28 0L22 0L22 1L26 1L26 2L28 2L28 3L27 3L27 4L25 4L25 2L24 2L24 4L25 4L25 6L24 6L24 7L23 7L23 5L22 5L22 3L23 3L23 2L19 2L19 3L18 3L18 1L17 1L17 2L16 2L16 1L15 1L15 0ZM19 0L19 1L20 1L20 0ZM35 0L35 1L36 1L36 0ZM42 1L42 2L41 2L41 3L42 3L42 2L43 2L43 1ZM51 2L51 3L49 3L49 4L52 4L52 5L51 5L51 7L50 7L50 6L49 6L49 5L48 5L48 4L47 4L47 3L46 3L46 5L45 5L45 7L44 7L44 6L43 6L43 7L44 7L44 8L43 8L43 10L41 10L41 9L42 9L42 8L41 8L41 9L39 9L39 8L40 8L40 6L39 6L39 5L37 5L37 7L36 7L36 6L35 6L35 8L36 8L36 9L37 9L37 7L38 7L38 10L35 10L35 9L32 9L32 10L31 10L31 9L29 9L29 8L28 8L28 6L29 6L29 7L30 7L30 6L29 6L29 4L31 4L31 3L28 3L28 5L27 5L27 7L26 7L26 6L25 6L25 8L23 8L23 7L22 7L22 6L21 6L21 5L20 5L20 6L19 6L19 4L20 4L20 3L19 3L19 4L18 4L18 3L15 3L15 4L14 4L14 5L11 5L11 7L12 7L12 6L13 6L13 7L14 7L14 5L15 5L15 8L18 8L18 9L17 9L17 10L16 10L16 9L15 9L15 10L16 10L16 12L15 12L15 11L13 11L13 12L14 12L14 13L12 13L12 15L11 15L11 19L12 19L12 20L10 20L10 18L8 18L8 19L6 19L6 20L4 20L4 21L5 21L5 22L4 22L4 23L5 23L5 24L4 24L4 25L5 25L5 26L7 26L7 25L6 25L6 24L7 24L7 23L5 23L5 22L8 22L8 21L10 21L10 22L11 22L11 23L12 23L12 22L15 22L15 23L16 23L16 24L17 24L17 25L16 25L16 26L15 26L15 27L14 27L14 28L11 28L11 26L12 26L12 27L13 27L13 26L14 26L14 25L15 25L15 24L13 24L13 25L11 25L11 24L10 24L10 28L7 28L7 27L4 27L4 28L3 28L3 27L2 27L2 28L3 28L3 29L4 29L4 30L3 30L3 33L4 33L4 30L9 30L9 31L10 31L10 32L14 32L14 33L9 33L9 35L10 35L10 36L12 36L12 35L11 35L11 34L16 34L16 38L17 38L17 39L16 39L16 40L15 40L15 41L16 41L16 40L17 40L17 42L16 42L16 44L15 44L15 43L14 43L14 42L13 42L13 41L11 41L11 40L14 40L14 39L15 39L15 38L14 38L14 37L15 37L15 35L14 35L14 36L13 36L13 38L12 38L12 37L11 37L11 38L9 38L9 36L8 36L8 35L6 35L6 36L5 36L5 35L3 35L3 34L2 34L2 35L3 35L3 36L5 36L5 37L4 37L4 39L5 39L5 37L6 37L6 38L7 38L7 39L6 39L6 40L5 40L5 42L9 42L9 41L6 41L6 40L10 40L10 42L12 42L12 43L10 43L10 44L12 44L12 47L11 47L11 46L10 46L10 45L6 45L6 44L7 44L7 43L5 43L5 44L1 44L1 45L2 45L2 46L3 46L3 47L4 47L4 51L3 51L3 52L4 52L4 53L6 53L6 54L8 54L8 53L9 53L9 51L10 51L10 53L12 53L12 50L11 50L11 49L14 49L14 50L15 50L15 51L14 51L14 53L13 53L13 54L12 54L12 56L14 56L14 55L16 55L16 56L17 56L17 54L19 54L19 55L18 55L18 57L15 57L15 58L16 58L16 59L17 59L17 60L18 60L18 59L19 59L19 60L20 60L20 61L23 61L23 60L24 60L24 59L23 59L23 60L22 60L22 58L21 58L21 57L20 57L20 59L19 59L19 56L20 56L20 55L21 55L21 56L22 56L22 55L21 55L21 54L22 54L22 53L18 53L18 52L21 52L21 50L22 50L22 51L23 51L23 50L25 50L25 52L23 52L23 53L24 53L24 54L23 54L23 55L24 55L24 57L25 57L25 58L26 58L26 57L27 57L27 58L28 58L28 59L29 59L29 60L30 60L30 59L29 59L29 57L27 57L27 56L32 56L32 55L31 55L31 52L32 52L32 54L33 54L33 55L34 55L34 56L35 56L35 57L36 57L36 58L35 58L35 59L36 59L36 60L37 60L37 59L38 59L38 58L40 58L40 59L39 59L39 60L38 60L38 61L41 61L41 63L42 63L42 62L43 62L43 60L44 60L44 61L45 61L45 60L46 60L46 59L49 59L49 58L48 58L48 57L49 57L49 56L48 56L48 57L45 57L45 56L44 56L44 55L45 55L45 53L46 53L46 51L47 51L47 54L48 54L48 55L49 55L49 54L50 54L50 55L53 55L53 56L54 56L54 57L55 57L55 58L53 58L53 57L50 57L50 58L52 58L52 59L51 59L51 62L54 62L54 63L55 63L55 58L56 58L56 57L55 57L55 56L54 56L54 54L55 54L55 53L56 53L56 52L55 52L55 51L56 51L56 49L58 49L58 48L55 48L55 49L54 49L54 50L55 50L55 51L54 51L54 52L55 52L55 53L54 53L54 54L51 54L51 53L50 53L50 52L52 52L52 53L53 53L53 51L50 51L50 49L51 49L51 50L52 50L52 49L53 49L53 47L52 47L52 46L51 46L51 44L50 44L50 43L54 43L54 42L55 42L55 44L54 44L54 45L55 45L55 47L56 47L56 45L61 45L61 46L62 46L62 47L61 47L61 48L62 48L62 49L63 49L63 50L64 50L64 49L63 49L63 46L62 46L62 44L57 44L57 43L59 43L59 42L57 42L57 43L56 43L56 42L55 42L55 41L56 41L56 39L55 39L55 37L56 37L56 38L57 38L57 36L59 36L59 37L58 37L58 38L59 38L59 39L57 39L57 41L58 41L58 40L59 40L59 39L61 39L61 38L63 38L63 37L61 37L61 36L63 36L63 34L62 34L62 33L61 33L61 35L60 35L60 36L59 36L59 35L57 35L57 36L55 36L55 35L56 35L56 30L57 30L57 28L56 28L56 27L59 27L59 28L58 28L58 29L59 29L59 30L61 30L61 31L62 31L62 30L61 30L61 28L62 28L62 29L63 29L63 28L64 28L64 27L63 27L63 23L62 23L62 22L61 22L61 25L59 25L59 21L61 21L61 20L60 20L60 19L61 19L61 17L62 17L62 16L60 16L60 15L61 15L61 14L59 14L59 13L58 13L58 14L57 14L57 15L56 15L56 14L55 14L55 13L53 13L53 12L51 12L51 11L50 11L50 10L52 10L52 9L50 9L50 10L48 10L48 11L47 11L47 9L46 9L46 8L47 8L47 7L48 7L48 9L49 9L49 7L50 7L50 8L52 8L52 5L53 5L53 3L54 3L54 2L53 2L53 3L52 3L52 2ZM15 4L15 5L16 5L16 4ZM35 4L35 5L36 5L36 4ZM17 5L17 6L16 6L16 7L17 7L17 6L18 6L18 8L19 8L19 10L17 10L17 11L18 11L18 12L16 12L16 13L14 13L14 14L13 14L13 15L14 15L14 17L13 17L13 16L12 16L12 17L13 17L13 18L14 18L14 17L15 17L15 18L17 18L17 20L16 20L16 19L15 19L15 20L16 20L16 23L17 23L17 21L18 21L18 22L19 22L19 23L21 23L21 24L22 24L22 20L23 20L23 22L25 22L25 23L23 23L23 26L22 26L22 25L19 25L19 24L18 24L18 26L17 26L17 27L15 27L15 28L14 28L14 29L16 29L16 30L17 30L17 31L18 31L18 30L19 30L19 31L20 31L20 33L19 33L19 35L20 35L20 36L18 36L18 34L17 34L17 36L18 36L18 37L19 37L19 39L18 39L18 40L19 40L19 41L18 41L18 44L16 44L16 47L14 47L14 46L15 46L15 45L14 45L14 43L12 43L12 44L13 44L13 47L12 47L12 48L13 48L13 47L14 47L14 48L15 48L15 50L16 50L16 51L20 51L20 50L21 50L21 49L19 49L19 46L21 46L21 45L22 45L22 47L23 47L23 49L22 49L22 50L23 50L23 49L25 49L25 50L26 50L26 52L25 52L25 54L24 54L24 55L30 55L30 54L29 54L29 53L30 53L30 52L31 52L31 51L32 51L32 52L33 52L33 53L34 53L34 54L35 54L35 55L36 55L36 56L37 56L37 58L38 58L38 57L39 57L39 56L40 56L40 58L43 58L43 59L40 59L40 60L43 60L43 59L44 59L44 60L45 60L45 59L46 59L46 58L43 58L43 55L44 55L44 54L42 54L42 52L43 52L43 53L45 53L45 52L43 52L43 50L42 50L42 52L41 52L41 50L40 50L40 47L41 47L41 49L44 49L44 51L45 51L45 50L46 50L46 49L47 49L47 50L48 50L48 52L50 52L50 51L49 51L49 49L50 49L50 48L51 48L51 46L50 46L50 44L49 44L49 43L50 43L50 42L47 42L47 41L46 41L46 39L47 39L47 40L49 40L49 41L52 41L52 42L54 42L54 41L55 41L55 39L54 39L54 41L52 41L52 40L53 40L53 39L52 39L52 40L50 40L50 39L49 39L49 38L51 38L51 36L53 36L53 37L52 37L52 38L53 38L53 37L54 37L54 34L55 34L55 32L54 32L54 31L53 31L53 32L52 32L52 30L54 30L54 29L55 29L55 27L53 27L53 26L52 26L52 25L51 25L51 24L53 24L53 22L54 22L54 23L56 23L56 21L55 21L55 20L56 20L56 19L57 19L57 20L59 20L59 19L60 19L60 18L59 18L59 14L58 14L58 15L57 15L57 16L56 16L56 17L57 17L57 18L55 18L55 19L54 19L54 18L53 18L53 17L52 17L52 16L53 16L53 15L54 15L54 16L55 16L55 15L54 15L54 14L53 14L53 13L52 13L52 14L53 14L53 15L51 15L51 18L50 18L50 19L52 19L52 20L50 20L50 21L53 21L53 22L52 22L52 23L50 23L50 22L48 22L48 20L47 20L47 22L46 22L46 21L45 21L45 22L44 22L44 23L47 23L47 22L48 22L48 24L45 24L45 26L46 26L46 25L47 25L47 26L48 26L48 28L49 28L49 26L50 26L50 27L53 27L53 29L52 29L52 28L51 28L51 30L49 30L49 31L51 31L51 33L53 33L53 34L52 34L52 35L51 35L51 34L50 34L50 32L49 32L49 34L47 34L47 35L46 35L46 36L45 36L45 38L43 38L43 39L42 39L42 38L41 38L41 37L44 37L44 36L43 36L43 35L42 35L42 34L43 34L43 33L42 33L42 32L43 32L43 31L42 31L42 28L43 28L43 29L44 29L44 32L45 32L45 33L44 33L44 34L45 34L45 33L48 33L48 31L46 31L46 30L48 30L48 29L45 29L45 28L44 28L44 26L42 26L42 27L41 27L41 32L40 32L40 27L39 27L39 26L40 26L40 25L39 25L39 24L41 24L41 22L40 22L40 23L39 23L39 24L38 24L38 23L37 23L37 22L38 22L38 21L42 21L42 24L43 24L43 25L44 25L44 24L43 24L43 21L42 21L42 20L37 20L37 21L36 21L36 19L37 19L37 18L35 18L35 17L34 17L34 16L35 16L35 14L34 14L34 12L35 12L35 13L37 13L37 14L36 14L36 16L37 16L37 15L38 15L38 16L39 16L39 17L40 17L40 16L41 16L41 15L38 15L38 14L40 14L40 13L39 13L39 12L38 12L38 11L40 11L40 10L38 10L38 11L36 11L36 12L35 12L35 10L34 10L34 11L31 11L31 12L30 12L30 11L29 11L29 10L28 10L28 11L26 11L26 9L23 9L23 8L22 8L22 7L21 7L21 6L20 6L20 8L19 8L19 6L18 6L18 5ZM31 5L31 8L34 8L34 5ZM46 5L46 7L45 7L45 8L46 8L46 7L47 7L47 5ZM8 6L8 7L9 7L9 6ZM32 6L32 7L33 7L33 6ZM38 6L38 7L39 7L39 6ZM48 6L48 7L49 7L49 6ZM56 6L56 7L57 7L57 6ZM0 8L0 9L2 9L2 10L3 10L3 9L4 9L4 8ZM6 8L6 9L7 9L7 10L6 10L6 11L7 11L7 10L8 10L8 11L9 11L9 10L10 10L10 8L8 8L8 9L7 9L7 8ZM20 8L20 10L19 10L19 13L17 13L17 15L15 15L15 16L16 16L16 17L17 17L17 18L18 18L18 19L19 19L19 21L20 21L20 22L21 22L21 21L20 21L20 20L22 20L22 17L24 17L24 18L25 18L25 16L28 16L28 17L29 17L29 18L30 18L30 17L29 17L29 16L28 16L28 15L29 15L29 14L25 14L25 15L24 15L24 11L25 11L25 10L23 10L23 9L21 9L21 8ZM27 8L27 9L28 9L28 8ZM57 8L57 9L58 9L58 8ZM60 8L60 9L59 9L59 10L60 10L60 9L61 9L61 10L62 10L62 11L64 11L64 10L65 10L65 8L64 8L64 9L63 9L63 8ZM8 9L8 10L9 10L9 9ZM62 9L62 10L63 10L63 9ZM21 10L21 11L22 11L22 12L23 12L23 11L22 11L22 10ZM43 10L43 11L42 11L42 13L43 13L43 14L42 14L42 15L43 15L43 14L44 14L44 12L45 12L45 14L46 14L46 12L47 12L47 13L49 13L49 14L47 14L47 15L46 15L46 16L50 16L50 15L49 15L49 14L51 14L51 13L49 13L49 12L47 12L47 11L46 11L46 10ZM26 12L26 13L27 13L27 12ZM28 12L28 13L30 13L30 12ZM32 12L32 13L31 13L31 14L30 14L30 15L31 15L31 16L32 16L32 15L31 15L31 14L33 14L33 15L34 15L34 14L33 14L33 12ZM2 13L2 15L3 15L3 16L2 16L2 17L4 17L4 15L3 15L3 13ZM19 13L19 14L18 14L18 16L20 16L20 17L22 17L22 16L21 16L21 14L22 14L22 13L21 13L21 14L20 14L20 13ZM23 15L23 16L24 16L24 15ZM44 15L44 16L43 16L43 17L45 17L45 18L43 18L43 20L46 20L46 19L48 19L48 17L45 17L45 15ZM26 17L26 18L27 18L27 19L25 19L25 22L29 22L29 23L27 23L27 24L26 24L26 23L25 23L25 24L24 24L24 26L25 26L25 28L23 28L23 27L22 27L22 26L18 26L18 27L17 27L17 28L16 28L16 29L17 29L17 28L18 28L18 29L19 29L19 27L20 27L20 28L22 28L22 29L23 29L23 30L26 30L26 29L25 29L25 28L27 28L27 30L28 30L28 32L27 32L27 31L26 31L26 32L25 32L25 31L24 31L24 32L23 32L23 33L24 33L24 32L25 32L25 36L24 36L24 35L23 35L23 34L22 34L22 33L20 33L20 34L21 34L21 35L23 35L23 36L22 36L22 38L23 38L23 40L22 40L22 39L21 39L21 40L22 40L22 41L24 41L24 42L25 42L25 43L24 43L24 44L23 44L23 45L24 45L24 46L26 46L26 45L27 45L27 46L31 46L31 47L33 47L33 46L34 46L34 47L35 47L35 48L31 48L31 49L30 49L30 47L29 47L29 48L28 48L28 47L27 47L27 48L26 48L26 47L25 47L25 48L26 48L26 49L27 49L27 48L28 48L28 50L27 50L27 51L28 51L28 50L29 50L29 49L30 49L30 51L31 51L31 49L34 49L34 50L36 50L36 51L33 51L33 52L35 52L35 53L37 53L37 56L39 56L39 55L40 55L40 53L41 53L41 52L40 52L40 53L39 53L39 51L40 51L40 50L39 50L39 51L37 51L37 50L36 50L36 49L35 49L35 48L36 48L36 47L37 47L37 44L36 44L36 45L35 45L35 43L37 43L37 42L38 42L38 43L39 43L39 42L40 42L40 41L42 41L42 42L41 42L41 43L42 43L42 42L43 42L43 40L42 40L42 39L41 39L41 38L39 38L39 39L38 39L38 40L37 40L37 39L36 39L36 42L35 42L35 41L33 41L33 38L34 38L34 37L33 37L33 38L32 38L32 37L31 37L31 36L34 36L34 35L31 35L31 36L30 36L30 32L29 32L29 30L28 30L28 29L31 29L31 28L29 28L29 26L30 26L30 27L32 27L32 28L33 28L33 29L32 29L32 30L33 30L33 29L34 29L34 28L35 28L35 30L36 30L36 31L37 31L37 32L36 32L36 33L38 33L38 34L37 34L37 35L38 35L38 34L40 34L40 35L39 35L39 36L37 36L37 37L35 37L35 38L37 38L37 37L41 37L41 36L42 36L42 35L41 35L41 33L38 33L38 32L39 32L39 31L37 31L37 30L39 30L39 28L38 28L38 26L36 26L36 27L35 27L35 25L34 25L34 24L35 24L35 23L34 23L34 22L35 22L35 18L34 18L34 20L33 20L33 17L31 17L31 18L32 18L32 20L31 20L31 19L28 19L28 18L27 18L27 17ZM41 17L41 18L38 18L38 19L42 19L42 17ZM20 18L20 19L21 19L21 18ZM57 18L57 19L59 19L59 18ZM8 19L8 20L9 20L9 19ZM23 19L23 20L24 20L24 19ZM27 19L27 20L26 20L26 21L27 21L27 20L28 20L28 21L29 21L29 22L31 22L31 24L30 24L30 23L29 23L29 25L30 25L30 26L32 26L32 27L33 27L33 26L34 26L34 25L33 25L33 26L32 26L32 24L34 24L34 23L33 23L33 21L30 21L30 20L28 20L28 19ZM64 19L64 20L65 20L65 19ZM6 20L6 21L7 21L7 20ZM53 20L53 21L54 21L54 20ZM57 22L57 23L58 23L58 22ZM8 23L8 27L9 27L9 23ZM36 23L36 24L37 24L37 25L38 25L38 24L37 24L37 23ZM25 24L25 25L26 25L26 26L27 26L27 27L28 27L28 24L27 24L27 25L26 25L26 24ZM49 24L49 25L50 25L50 24ZM55 24L55 25L56 25L56 26L58 26L58 25L57 25L57 24ZM60 26L60 28L61 28L61 26ZM36 27L36 28L37 28L37 27ZM46 27L46 28L47 28L47 27ZM4 28L4 29L5 29L5 28ZM6 28L6 29L7 29L7 28ZM10 28L10 29L11 29L11 30L12 30L12 29L11 29L11 28ZM20 29L20 31L21 31L21 32L22 32L22 30L21 30L21 29ZM5 31L5 34L8 34L8 31ZM14 31L14 32L15 32L15 31ZM31 31L31 34L34 34L34 31ZM57 31L57 34L60 34L60 31ZM6 32L6 33L7 33L7 32ZM17 32L17 33L18 33L18 32ZM28 32L28 33L29 33L29 32ZM32 32L32 33L33 33L33 32ZM58 32L58 33L59 33L59 32ZM26 34L26 35L27 35L27 37L25 37L25 38L24 38L24 39L25 39L25 38L27 38L27 39L26 39L26 40L25 40L25 42L26 42L26 43L27 43L27 44L28 44L28 45L31 45L31 46L32 46L32 45L33 45L33 42L31 42L31 41L32 41L32 40L31 40L31 39L32 39L32 38L31 38L31 37L30 37L30 36L28 36L28 35L29 35L29 34L28 34L28 35L27 35L27 34ZM49 34L49 35L47 35L47 36L49 36L49 35L50 35L50 36L51 36L51 35L50 35L50 34ZM35 35L35 36L36 36L36 35ZM6 36L6 37L7 37L7 36ZM20 36L20 37L21 37L21 36ZM0 37L0 38L1 38L1 37ZM28 37L28 38L29 38L29 37ZM46 37L46 38L45 38L45 39L46 39L46 38L47 38L47 37ZM8 38L8 39L9 39L9 38ZM11 38L11 39L10 39L10 40L11 40L11 39L12 39L12 38ZM13 38L13 39L14 39L14 38ZM0 39L0 40L2 40L2 39ZM19 39L19 40L20 40L20 39ZM28 39L28 41L29 41L29 43L28 43L28 42L27 42L27 41L26 41L26 42L27 42L27 43L28 43L28 44L29 44L29 43L30 43L30 44L31 44L31 42L30 42L30 41L29 41L29 40L30 40L30 39ZM40 39L40 40L38 40L38 41L40 41L40 40L41 40L41 39ZM60 40L60 42L61 42L61 40ZM19 41L19 44L18 44L18 45L19 45L19 44L20 44L20 45L21 45L21 44L20 44L20 42L21 42L21 43L23 43L23 42L21 42L21 41ZM44 42L44 43L43 43L43 46L42 46L42 47L43 47L43 46L45 46L45 47L46 47L46 48L48 48L48 47L49 47L49 48L50 48L50 47L49 47L49 46L47 46L47 44L48 44L48 45L49 45L49 44L48 44L48 43L45 43L45 42ZM8 43L8 44L9 44L9 43ZM38 44L38 46L39 46L39 47L40 47L40 46L41 46L41 45L42 45L42 44L41 44L41 45L39 45L39 44ZM55 44L55 45L56 45L56 44ZM3 45L3 46L4 46L4 45ZM5 46L5 47L7 47L7 48L5 48L5 51L7 51L7 52L6 52L6 53L7 53L7 52L8 52L8 51L9 51L9 50L10 50L10 51L11 51L11 50L10 50L10 49L11 49L11 47L7 47L7 46ZM46 46L46 47L47 47L47 46ZM58 46L58 47L59 47L59 48L60 48L60 47L59 47L59 46ZM16 47L16 50L17 50L17 48L18 48L18 47ZM20 47L20 48L21 48L21 47ZM7 48L7 49L6 49L6 50L7 50L7 51L8 51L8 50L7 50L7 49L10 49L10 48ZM38 48L38 49L39 49L39 48ZM44 48L44 49L45 49L45 48ZM18 49L18 50L19 50L19 49ZM36 51L36 52L37 52L37 51ZM16 52L16 53L15 53L15 54L17 54L17 52ZM26 52L26 54L27 54L27 52ZM28 52L28 53L29 53L29 52ZM58 52L58 54L60 54L60 53L59 53L59 52ZM9 54L9 56L10 56L10 54ZM13 54L13 55L14 55L14 54ZM41 55L41 56L42 56L42 55ZM46 55L46 56L47 56L47 55ZM61 56L61 58L62 58L62 57L64 57L64 56ZM13 57L13 58L11 58L11 62L12 62L12 61L13 61L13 62L14 62L14 60L12 60L12 59L14 59L14 57ZM31 57L31 60L34 60L34 57ZM57 57L57 60L60 60L60 57ZM32 58L32 59L33 59L33 58ZM58 58L58 59L59 59L59 58ZM20 59L20 60L21 60L21 59ZM52 59L52 60L53 60L53 59ZM47 60L47 61L46 61L46 62L45 62L45 63L46 63L46 62L48 62L48 63L49 63L49 62L48 62L48 60ZM49 60L49 61L50 61L50 60ZM33 61L33 62L34 62L34 61ZM36 61L36 62L35 62L35 63L36 63L36 62L37 62L37 61ZM64 62L64 63L63 63L63 65L64 65L64 63L65 63L65 62ZM16 63L16 64L17 64L17 63ZM38 63L38 64L37 64L37 65L40 65L40 64L39 64L39 63ZM28 64L28 65L29 65L29 64ZM51 64L51 65L52 65L52 64ZM58 64L58 65L59 65L59 64ZM0 0L0 7L7 7L7 0ZM1 1L1 6L6 6L6 1ZM2 2L2 5L5 5L5 2ZM58 0L58 7L65 7L65 0ZM59 1L59 6L64 6L64 1ZM60 2L60 5L63 5L63 2ZM0 58L0 65L7 65L7 58ZM1 59L1 64L6 64L6 59ZM2 60L2 63L5 63L5 60Z" fill="#000000"/></g></g></svg>
