<?xml version="1.0" encoding="UTF-8"?>
<svg xmlns="http://www.w3.org/2000/svg" version="1.1" width="300" height="300" viewBox="0 0 300 300"><rect x="0" y="0" width="300" height="300" fill="#ffffff"/><g transform="scale(4.348)"><g transform="translate(0,0)"><path fill-rule="evenodd" d="M9 0L9 1L8 1L8 2L10 2L10 4L9 4L9 3L8 3L8 4L9 4L9 5L8 5L8 7L9 7L9 6L10 6L10 7L11 7L11 8L10 8L10 9L9 9L9 8L6 8L6 9L9 9L9 10L5 10L5 8L0 8L0 10L1 10L1 12L2 12L2 10L4 10L4 11L8 11L8 14L6 14L6 15L9 15L9 17L10 17L10 14L12 14L12 13L13 13L13 14L16 14L16 15L18 15L18 14L20 14L20 16L21 16L21 14L22 14L22 15L23 15L23 17L18 17L18 16L15 16L15 15L13 15L13 16L12 16L12 15L11 15L11 18L9 18L9 19L7 19L7 18L5 18L5 17L7 17L7 16L5 16L5 14L4 14L4 16L3 16L3 13L2 13L2 14L1 14L1 15L0 15L0 18L3 18L3 20L2 20L2 21L1 21L1 22L3 22L3 23L0 23L0 24L2 24L2 25L3 25L3 26L2 26L2 27L1 27L1 26L0 26L0 27L1 27L1 28L0 28L0 29L1 29L1 30L2 30L2 33L1 33L1 31L0 31L0 38L1 38L1 40L0 40L0 43L1 43L1 40L2 40L2 42L3 42L3 39L4 39L4 40L5 40L5 39L4 39L4 38L3 38L3 39L2 39L2 38L1 38L1 34L3 34L3 32L4 32L4 37L5 37L5 38L6 38L6 39L7 39L7 40L6 40L6 41L7 41L7 42L6 42L6 43L4 43L4 44L3 44L3 46L2 46L2 44L1 44L1 47L0 47L0 48L1 48L1 50L3 50L3 48L4 48L4 49L7 49L7 50L6 50L6 51L7 51L7 52L6 52L6 53L7 53L7 52L8 52L8 55L7 55L7 54L5 54L5 56L4 56L4 55L3 55L3 54L2 54L2 55L0 55L0 61L1 61L1 58L2 58L2 59L3 59L3 56L4 56L4 57L7 57L7 58L4 58L4 59L10 59L10 60L9 60L9 61L8 61L8 60L6 60L6 61L8 61L8 63L9 63L9 61L10 61L10 62L12 62L12 61L11 61L11 60L13 60L13 63L12 63L12 64L13 64L13 65L14 65L14 64L16 64L16 65L15 65L15 67L14 67L14 66L13 66L13 68L11 68L11 69L14 69L14 68L15 68L15 67L16 67L16 68L17 68L17 69L22 69L22 68L19 68L19 67L20 67L20 66L19 66L19 65L20 65L20 60L21 60L21 59L17 59L17 57L18 57L18 58L19 58L19 57L21 57L21 58L22 58L22 57L24 57L24 58L23 58L23 59L22 59L22 60L23 60L23 61L24 61L24 62L23 62L23 63L22 63L22 61L21 61L21 63L22 63L22 64L23 64L23 68L24 68L24 69L26 69L26 68L27 68L27 67L28 67L28 68L29 68L29 69L32 69L32 68L33 68L33 69L35 69L35 68L36 68L36 69L38 69L38 68L37 68L37 66L38 66L38 67L39 67L39 66L38 66L38 65L39 65L39 64L41 64L41 66L40 66L40 67L41 67L41 69L44 69L44 68L47 68L47 69L49 69L49 66L50 66L50 69L51 69L51 66L54 66L54 68L53 68L53 69L56 69L56 68L55 68L55 67L56 67L56 66L57 66L57 67L60 67L60 68L57 68L57 69L60 69L60 68L61 68L61 69L62 69L62 67L63 67L63 65L64 65L64 66L65 66L65 64L67 64L67 65L68 65L68 64L67 64L67 63L68 63L68 62L67 62L67 61L65 61L65 60L67 60L67 59L68 59L68 61L69 61L69 59L68 59L68 58L69 58L69 57L68 57L68 56L69 56L69 55L68 55L68 54L69 54L69 53L68 53L68 54L67 54L67 53L65 53L65 54L66 54L66 55L63 55L63 56L62 56L62 58L61 58L61 56L60 56L60 57L59 57L59 58L61 58L61 59L62 59L62 58L63 58L63 60L60 60L60 61L59 61L59 60L58 60L58 59L57 59L57 57L58 57L58 56L59 56L59 55L58 55L58 54L57 54L57 57L56 57L56 52L57 52L57 51L58 51L58 50L57 50L57 51L56 51L56 48L57 48L57 46L56 46L56 44L57 44L57 45L59 45L59 47L60 47L60 46L61 46L61 47L62 47L62 46L61 46L61 44L60 44L60 43L62 43L62 45L63 45L63 44L64 44L64 43L62 43L62 40L60 40L60 41L61 41L61 42L57 42L57 43L56 43L56 38L57 38L57 40L59 40L59 38L57 38L57 37L56 37L56 36L57 36L57 35L56 35L56 36L55 36L55 37L53 37L53 39L52 39L52 40L51 40L51 42L52 42L52 40L53 40L53 39L55 39L55 41L53 41L53 43L50 43L50 41L49 41L49 40L47 40L47 38L48 38L48 39L50 39L50 37L51 37L51 38L52 38L52 37L51 37L51 36L52 36L52 35L54 35L54 34L55 34L55 33L56 33L56 31L57 31L57 32L58 32L58 33L59 33L59 35L60 35L60 36L58 36L58 37L60 37L60 39L62 39L62 38L61 38L61 37L63 37L63 38L64 38L64 37L65 37L65 36L67 36L67 37L66 37L66 38L65 38L65 39L63 39L63 40L64 40L64 41L63 41L63 42L64 42L64 41L65 41L65 40L66 40L66 41L67 41L67 39L68 39L68 41L69 41L69 39L68 39L68 36L69 36L69 35L68 35L68 34L69 34L69 31L68 31L68 30L69 30L69 29L68 29L68 28L67 28L67 27L68 27L68 26L69 26L69 23L68 23L68 22L69 22L69 21L68 21L68 18L69 18L69 16L68 16L68 12L69 12L69 11L68 11L68 10L69 10L69 9L68 9L68 8L67 8L67 10L66 10L66 8L65 8L65 9L64 9L64 8L63 8L63 9L64 9L64 10L63 10L63 11L62 11L62 8L61 8L61 6L60 6L60 7L59 7L59 4L58 4L58 7L57 7L57 6L56 6L56 5L55 5L55 4L56 4L56 3L55 3L55 0L53 0L53 1L51 1L51 2L50 2L50 0L49 0L49 2L50 2L50 3L48 3L48 2L47 2L47 1L48 1L48 0L47 0L47 1L45 1L45 0L44 0L44 1L45 1L45 2L44 2L44 3L43 3L43 0L41 0L41 1L38 1L38 0L37 0L37 1L36 1L36 0L35 0L35 1L34 1L34 2L35 2L35 3L32 3L32 4L31 4L31 3L29 3L29 1L30 1L30 0L28 0L28 1L27 1L27 2L26 2L26 3L25 3L25 0L23 0L23 2L22 2L22 0L21 0L21 3L17 3L17 2L20 2L20 1L19 1L19 0L14 0L14 1L13 1L13 2L12 2L12 4L13 4L13 5L12 5L12 7L11 7L11 6L10 6L10 5L11 5L11 2L10 2L10 1L11 1L11 0ZM56 0L56 2L57 2L57 3L59 3L59 2L57 2L57 1L61 1L61 0ZM14 1L14 2L13 2L13 4L14 4L14 2L17 2L17 1ZM31 1L31 2L32 2L32 1ZM35 1L35 2L36 2L36 3L35 3L35 4L37 4L37 5L38 5L38 6L37 6L37 8L38 8L38 6L39 6L39 7L40 7L40 6L41 6L41 8L39 8L39 9L38 9L38 10L40 10L40 12L39 12L39 11L37 11L37 10L36 10L36 9L35 9L35 10L36 10L36 11L33 11L33 10L32 10L32 5L31 5L31 4L27 4L27 3L28 3L28 2L27 2L27 3L26 3L26 4L25 4L25 3L24 3L24 2L23 2L23 3L21 3L21 4L20 4L20 6L19 6L19 7L18 7L18 5L19 5L19 4L17 4L17 5L16 5L16 3L15 3L15 5L13 5L13 7L12 7L12 8L11 8L11 10L12 10L12 11L13 11L13 9L14 9L14 10L15 10L15 13L16 13L16 11L17 11L17 12L18 12L18 11L19 11L19 9L17 9L17 10L16 10L16 8L15 8L15 7L16 7L16 6L17 6L17 7L18 7L18 8L19 8L19 7L20 7L20 14L21 14L21 13L24 13L24 12L25 12L25 11L26 11L26 10L27 10L27 11L28 11L28 12L29 12L29 13L27 13L27 12L26 12L26 13L27 13L27 14L25 14L25 15L26 15L26 16L24 16L24 17L23 17L23 19L22 19L22 18L21 18L21 19L22 19L22 20L20 20L20 22L19 22L19 21L18 21L18 22L17 22L17 20L18 20L18 19L17 19L17 18L18 18L18 17L14 17L14 16L13 16L13 17L12 17L12 18L13 18L13 17L14 17L14 19L15 19L15 18L16 18L16 19L17 19L17 20L16 20L16 22L17 22L17 23L18 23L18 24L19 24L19 23L20 23L20 24L21 24L21 25L20 25L20 26L18 26L18 25L17 25L17 24L16 24L16 25L14 25L14 24L13 24L13 23L12 23L12 24L11 24L11 21L10 21L10 20L12 20L12 22L14 22L14 23L15 23L15 21L13 21L13 20L12 20L12 19L9 19L9 21L8 21L8 22L9 22L9 21L10 21L10 23L6 23L6 24L7 24L7 25L5 25L5 26L4 26L4 28L3 28L3 27L2 27L2 28L3 28L3 29L4 29L4 28L7 28L7 29L5 29L5 32L8 32L8 31L9 31L9 30L10 30L10 31L11 31L11 30L12 30L12 31L13 31L13 32L9 32L9 34L10 34L10 35L9 35L9 37L10 37L10 39L9 39L9 40L8 40L8 41L9 41L9 40L10 40L10 42L9 42L9 43L8 43L8 44L7 44L7 43L6 43L6 44L5 44L5 45L6 45L6 46L7 46L7 47L5 47L5 46L3 46L3 47L1 47L1 48L3 48L3 47L5 47L5 48L8 48L8 47L10 47L10 48L9 48L9 49L10 49L10 50L11 50L11 49L12 49L12 50L13 50L13 51L12 51L12 52L11 52L11 54L10 54L10 52L9 52L9 54L10 54L10 55L9 55L9 56L7 56L7 55L6 55L6 56L7 56L7 57L9 57L9 56L10 56L10 59L11 59L11 58L12 58L12 59L13 59L13 60L14 60L14 57L15 57L15 58L16 58L16 57L17 57L17 56L21 56L21 57L22 57L22 56L21 56L21 55L22 55L22 54L23 54L23 55L24 55L24 54L23 54L23 53L24 53L24 51L26 51L26 50L27 50L27 51L28 51L28 52L29 52L29 47L27 47L27 46L29 46L29 44L30 44L30 43L32 43L32 44L31 44L31 49L33 49L33 50L30 50L30 52L31 52L31 56L33 56L33 57L32 57L32 58L29 58L29 57L30 57L30 56L29 56L29 55L30 55L30 53L27 53L27 52L26 52L26 53L25 53L25 54L26 54L26 57L27 57L27 58L28 58L28 59L29 59L29 60L26 60L26 58L25 58L25 60L24 60L24 59L23 59L23 60L24 60L24 61L25 61L25 60L26 60L26 62L27 62L27 63L28 63L28 65L25 65L25 66L24 66L24 67L25 67L25 68L26 68L26 67L25 67L25 66L28 66L28 65L29 65L29 66L30 66L30 65L29 65L29 64L31 64L31 63L32 63L32 60L33 60L33 59L34 59L34 60L35 60L35 59L36 59L36 57L37 57L37 56L36 56L36 55L38 55L38 56L39 56L39 57L38 57L38 59L37 59L37 60L38 60L38 63L41 63L41 64L44 64L44 66L41 66L41 67L43 67L43 68L44 68L44 66L45 66L45 67L46 67L46 66L47 66L47 68L48 68L48 66L49 66L49 65L50 65L50 66L51 66L51 65L55 65L55 64L56 64L56 65L57 65L57 66L60 66L60 65L57 65L57 64L59 64L59 63L55 63L55 64L54 64L54 62L51 62L51 61L50 61L50 62L47 62L47 60L52 60L52 61L54 61L54 60L55 60L55 58L54 58L54 59L53 59L53 60L52 60L52 59L48 59L48 58L51 58L51 57L52 57L52 58L53 58L53 57L55 57L55 54L54 54L54 53L53 53L53 52L54 52L54 51L55 51L55 50L53 50L53 49L55 49L55 47L56 47L56 46L55 46L55 47L54 47L54 46L53 46L53 44L50 44L50 43L48 43L48 44L50 44L50 45L49 45L49 46L47 46L47 45L46 45L46 46L42 46L42 45L41 45L41 46L42 46L42 48L41 48L41 47L40 47L40 46L39 46L39 45L40 45L40 44L41 44L41 43L40 43L40 41L41 41L41 40L44 40L44 42L43 42L43 44L44 44L44 45L45 45L45 44L44 44L44 42L45 42L45 43L46 43L46 44L47 44L47 43L46 43L46 42L47 42L47 40L45 40L45 39L43 39L43 38L42 38L42 37L43 37L43 36L44 36L44 37L45 37L45 38L47 38L47 37L45 37L45 36L48 36L48 35L47 35L47 34L49 34L49 35L52 35L52 34L51 34L51 33L55 33L55 31L56 31L56 29L57 29L57 31L58 31L58 32L59 32L59 31L58 31L58 30L59 30L59 29L60 29L60 28L61 28L61 29L62 29L62 30L60 30L60 31L62 31L62 30L63 30L63 32L64 32L64 31L67 31L67 32L66 32L66 33L65 33L65 35L67 35L67 36L68 36L68 35L67 35L67 34L68 34L68 31L67 31L67 30L68 30L68 29L67 29L67 28L66 28L66 29L65 29L65 27L64 27L64 28L63 28L63 29L62 29L62 26L63 26L63 25L62 25L62 22L64 22L64 23L63 23L63 24L64 24L64 25L65 25L65 26L68 26L68 23L67 23L67 22L68 22L68 21L67 21L67 20L66 20L66 21L67 21L67 22L64 22L64 21L65 21L65 19L67 19L67 18L66 18L66 16L65 16L65 14L67 14L67 13L65 13L65 10L64 10L64 11L63 11L63 12L62 12L62 14L63 14L63 15L64 15L64 16L62 16L62 15L61 15L61 16L59 16L59 13L58 13L58 12L59 12L59 11L60 11L60 13L61 13L61 11L60 11L60 10L59 10L59 9L60 9L60 8L59 8L59 7L58 7L58 8L55 8L55 9L56 9L56 11L57 11L57 12L55 12L55 11L54 11L54 12L51 12L51 13L50 13L50 15L49 15L49 14L47 14L47 12L49 12L49 11L52 11L52 9L54 9L54 6L53 6L53 7L52 7L52 5L53 5L53 4L55 4L55 3L54 3L54 2L52 2L52 3L51 3L51 4L50 4L50 5L51 5L51 7L50 7L50 6L49 6L49 5L48 5L48 4L47 4L47 2L45 2L45 3L44 3L44 5L43 5L43 7L42 7L42 6L41 6L41 5L40 5L40 4L43 4L43 3L42 3L42 1L41 1L41 3L39 3L39 2L36 2L36 1ZM37 3L37 4L38 4L38 3ZM45 3L45 4L46 4L46 3ZM60 3L60 5L61 5L61 3ZM21 4L21 6L20 6L20 7L21 7L21 6L22 6L22 7L23 7L23 6L22 6L22 5L25 5L25 6L24 6L24 9L23 9L23 10L22 10L22 11L23 11L23 12L24 12L24 11L23 11L23 10L24 10L24 9L25 9L25 10L26 10L26 8L25 8L25 6L26 6L26 7L27 7L27 6L28 6L28 7L29 7L29 6L30 6L30 7L31 7L31 6L30 6L30 5L29 5L29 6L28 6L28 5L27 5L27 4L26 4L26 5L25 5L25 4ZM51 4L51 5L52 5L52 4ZM15 5L15 6L14 6L14 7L15 7L15 6L16 6L16 5ZM33 5L33 8L36 8L36 5ZM44 5L44 7L45 7L45 9L44 9L44 8L43 8L43 9L40 9L40 10L41 10L41 12L40 12L40 13L39 13L39 14L40 14L40 15L38 15L38 16L40 16L40 15L42 15L42 14L43 14L43 15L44 15L44 16L42 16L42 17L41 17L41 18L39 18L39 19L38 19L38 17L37 17L37 16L36 16L36 15L37 15L37 14L38 14L38 12L37 12L37 13L36 13L36 12L33 12L33 14L30 14L30 13L32 13L32 12L30 12L30 13L29 13L29 14L30 14L30 15L29 15L29 18L31 18L31 19L30 19L30 20L29 20L29 21L31 21L31 22L30 22L30 23L29 23L29 22L28 22L28 25L25 25L25 24L26 24L26 22L27 22L27 21L28 21L28 19L27 19L27 18L28 18L28 17L27 17L27 18L26 18L26 17L24 17L24 19L23 19L23 20L25 20L25 21L23 21L23 22L22 22L22 23L21 23L21 24L22 24L22 25L21 25L21 26L20 26L20 27L22 27L22 28L23 28L23 29L22 29L22 31L21 31L21 32L22 32L22 31L23 31L23 30L25 30L25 31L26 31L26 32L25 32L25 33L24 33L24 32L23 32L23 33L21 33L21 35L24 35L24 36L23 36L23 37L22 37L22 36L21 36L21 37L22 37L22 38L20 38L20 36L18 36L18 35L20 35L20 34L19 34L19 33L20 33L20 31L19 31L19 30L20 30L20 28L19 28L19 27L17 27L17 25L16 25L16 26L15 26L15 27L16 27L16 28L15 28L15 29L14 29L14 28L12 28L12 27L13 27L13 24L12 24L12 27L11 27L11 28L10 28L10 26L11 26L11 25L9 25L9 24L8 24L8 25L7 25L7 26L5 26L5 27L7 27L7 28L10 28L10 30L11 30L11 29L12 29L12 30L13 30L13 31L14 31L14 30L15 30L15 32L14 32L14 33L13 33L13 35L10 35L10 37L11 37L11 38L12 38L12 37L13 37L13 39L11 39L11 41L13 41L13 42L14 42L14 43L12 43L12 44L11 44L11 43L10 43L10 44L8 44L8 45L9 45L9 46L10 46L10 47L11 47L11 48L12 48L12 49L13 49L13 50L14 50L14 51L13 51L13 52L12 52L12 54L11 54L11 55L10 55L10 56L11 56L11 57L12 57L12 58L13 58L13 57L14 57L14 56L15 56L15 57L16 57L16 56L15 56L15 55L19 55L19 54L20 54L20 53L19 53L19 52L23 52L23 51L22 51L22 50L26 50L26 49L25 49L25 48L26 48L26 47L25 47L25 45L26 45L26 46L27 46L27 45L28 45L28 44L27 44L27 45L26 45L26 43L29 43L29 42L26 42L26 43L25 43L25 44L24 44L24 43L23 43L23 42L24 42L24 41L26 41L26 40L27 40L27 41L28 41L28 40L29 40L29 41L30 41L30 42L31 42L31 41L32 41L32 42L33 42L33 40L34 40L34 39L35 39L35 40L38 40L38 41L36 41L36 42L35 42L35 43L34 43L34 44L32 44L32 45L34 45L34 46L32 46L32 47L35 47L35 48L36 48L36 47L37 47L37 50L36 50L36 49L34 49L34 50L33 50L33 51L32 51L32 52L33 52L33 53L32 53L32 54L33 54L33 53L34 53L34 52L33 52L33 51L34 51L34 50L35 50L35 52L36 52L36 53L37 53L37 54L39 54L39 56L41 56L41 57L39 57L39 62L40 62L40 59L41 59L41 58L42 58L42 60L41 60L41 62L42 62L42 63L43 63L43 62L44 62L44 64L45 64L45 66L46 66L46 64L45 64L45 63L47 63L47 66L48 66L48 65L49 65L49 63L47 63L47 62L45 62L45 61L44 61L44 59L43 59L43 57L44 57L44 56L46 56L46 57L49 57L49 56L50 56L50 53L51 53L51 56L53 56L53 55L54 55L54 54L53 54L53 53L51 53L51 52L50 52L50 51L51 51L51 50L50 50L50 49L51 49L51 48L53 48L53 47L51 47L51 46L52 46L52 45L51 45L51 46L49 46L49 47L50 47L50 49L49 49L49 48L48 48L48 47L47 47L47 46L46 46L46 47L45 47L45 49L44 49L44 47L43 47L43 48L42 48L42 49L41 49L41 50L39 50L39 51L37 51L37 50L38 50L38 49L39 49L39 48L40 48L40 47L39 47L39 46L37 46L37 45L38 45L38 44L37 44L37 43L38 43L38 41L39 41L39 40L41 40L41 39L42 39L42 38L41 38L41 37L42 37L42 36L43 36L43 35L41 35L41 34L43 34L43 33L44 33L44 36L45 36L45 33L44 33L44 32L46 32L46 33L49 33L49 34L50 34L50 33L51 33L51 32L52 32L52 30L53 30L53 32L54 32L54 31L55 31L55 29L56 29L56 27L57 27L57 26L58 26L58 28L59 28L59 26L62 26L62 25L59 25L59 24L60 24L60 23L59 23L59 22L62 22L62 21L63 21L63 20L64 20L64 19L63 19L63 18L65 18L65 17L63 17L63 18L62 18L62 16L61 16L61 17L59 17L59 16L57 16L57 17L59 17L59 18L57 18L57 19L59 19L59 20L58 20L58 21L59 21L59 22L58 22L58 23L57 23L57 24L58 24L58 25L57 25L57 26L56 26L56 27L54 27L54 26L55 26L55 25L56 25L56 19L55 19L55 17L56 17L56 13L54 13L54 14L52 14L52 13L51 13L51 16L53 16L53 15L54 15L54 14L55 14L55 16L54 16L54 17L51 17L51 18L48 18L48 17L50 17L50 16L47 16L47 18L46 18L46 16L45 16L45 15L44 15L44 12L45 12L45 13L46 13L46 12L45 12L45 11L43 11L43 13L42 13L42 14L41 14L41 12L42 12L42 10L45 10L45 9L46 9L46 7L47 7L47 10L50 10L50 9L51 9L51 8L50 8L50 7L49 7L49 6L48 6L48 5L47 5L47 6L46 6L46 5ZM34 6L34 7L35 7L35 6ZM45 6L45 7L46 7L46 6ZM47 6L47 7L48 7L48 6ZM55 6L55 7L56 7L56 6ZM12 8L12 9L13 9L13 8ZM14 8L14 9L15 9L15 8ZM21 8L21 9L22 9L22 8ZM27 8L27 9L30 9L30 11L32 11L32 10L31 10L31 9L30 9L30 8ZM49 8L49 9L50 9L50 8ZM58 8L58 9L59 9L59 8ZM1 9L1 10L2 10L2 9ZM9 10L9 11L10 11L10 12L9 12L9 14L10 14L10 13L12 13L12 12L11 12L11 11L10 11L10 10ZM57 10L57 11L58 11L58 10ZM4 12L4 13L5 13L5 12ZM6 12L6 13L7 13L7 12ZM34 13L34 14L33 14L33 15L32 15L32 16L31 16L31 17L32 17L32 16L33 16L33 17L34 17L34 18L33 18L33 19L31 19L31 20L32 20L32 21L33 21L33 23L32 23L32 22L31 22L31 23L32 23L32 24L31 24L31 27L30 27L30 26L29 26L29 25L30 25L30 24L29 24L29 25L28 25L28 26L26 26L26 27L27 27L27 28L26 28L26 30L27 30L27 32L28 32L28 33L25 33L25 34L24 34L24 35L25 35L25 36L24 36L24 37L23 37L23 38L22 38L22 39L21 39L21 40L20 40L20 42L23 42L23 41L24 41L24 40L26 40L26 39L27 39L27 38L30 38L30 39L29 39L29 40L30 40L30 41L31 41L31 39L34 39L34 38L36 38L36 39L37 39L37 38L38 38L38 40L39 40L39 39L40 39L40 38L39 38L39 37L41 37L41 35L40 35L40 33L43 33L43 32L44 32L44 31L43 31L43 30L44 30L44 29L45 29L45 27L43 27L43 28L44 28L44 29L43 29L43 30L42 30L42 27L38 27L38 28L37 28L37 29L38 29L38 30L37 30L37 31L35 31L35 32L38 32L38 35L37 35L37 36L38 36L38 37L34 37L34 38L30 38L30 37L29 37L29 36L28 36L28 35L27 35L27 34L28 34L28 33L29 33L29 32L28 32L28 31L30 31L30 30L31 30L31 31L32 31L32 32L34 32L34 31L33 31L33 30L34 30L34 29L36 29L36 28L35 28L35 27L36 27L36 26L33 26L33 25L35 25L35 24L37 24L37 25L38 25L38 26L41 26L41 25L42 25L42 24L41 24L41 23L40 23L40 22L41 22L41 21L43 21L43 20L44 20L44 22L43 22L43 24L44 24L44 25L43 25L43 26L46 26L46 28L49 28L49 27L48 27L48 26L51 26L51 25L53 25L53 23L55 23L55 22L53 22L53 23L52 23L52 24L51 24L51 21L55 21L55 19L54 19L54 18L53 18L53 20L51 20L51 21L50 21L50 19L46 19L46 18L45 18L45 16L44 16L44 17L43 17L43 20L40 20L40 19L39 19L39 22L37 22L37 23L35 23L35 22L36 22L36 19L34 19L34 18L35 18L35 13ZM63 13L63 14L65 14L65 13ZM23 14L23 15L24 15L24 14ZM27 14L27 15L28 15L28 14ZM57 14L57 15L58 15L58 14ZM33 15L33 16L34 16L34 15ZM2 16L2 17L3 17L3 16ZM4 16L4 17L5 17L5 16ZM67 16L67 17L68 17L68 16ZM36 17L36 18L37 18L37 17ZM19 18L19 19L20 19L20 18ZM25 18L25 19L26 19L26 18ZM44 18L44 19L45 19L45 18ZM61 18L61 21L62 21L62 20L63 20L63 19L62 19L62 18ZM0 19L0 20L1 20L1 19ZM4 19L4 20L3 20L3 21L4 21L4 23L3 23L3 25L4 25L4 24L5 24L5 21L6 21L6 22L7 22L7 21L6 21L6 20L7 20L7 19L6 19L6 20L5 20L5 19ZM26 20L26 21L27 21L27 20ZM33 20L33 21L35 21L35 20ZM37 20L37 21L38 21L38 20ZM46 20L46 21L47 21L47 24L46 24L46 22L44 22L44 23L45 23L45 24L46 24L46 25L47 25L47 26L48 26L48 25L49 25L49 24L48 24L48 23L49 23L49 22L50 22L50 21L49 21L49 20ZM48 21L48 22L49 22L49 21ZM23 23L23 24L24 24L24 23ZM37 23L37 24L38 24L38 23ZM58 23L58 24L59 24L59 23ZM64 23L64 24L67 24L67 23ZM32 24L32 25L33 25L33 24ZM47 24L47 25L48 25L48 24ZM50 24L50 25L51 25L51 24ZM8 25L8 26L9 26L9 25ZM22 25L22 27L23 27L23 28L24 28L24 27L23 27L23 26L24 26L24 25ZM58 25L58 26L59 26L59 25ZM52 26L52 28L51 28L51 27L50 27L50 28L51 28L51 29L50 29L50 30L49 30L49 29L48 29L48 30L49 30L49 32L51 32L51 30L52 30L52 29L53 29L53 26ZM29 27L29 28L28 28L28 29L27 29L27 30L28 30L28 29L31 29L31 30L33 30L33 27L31 27L31 28L30 28L30 27ZM16 28L16 29L15 29L15 30L17 30L17 31L16 31L16 32L17 32L17 33L15 33L15 34L17 34L17 33L18 33L18 32L17 32L17 31L18 31L18 30L19 30L19 29L17 29L17 28ZM31 28L31 29L32 29L32 28ZM39 28L39 29L40 29L40 28ZM13 29L13 30L14 30L14 29ZM46 29L46 30L45 30L45 31L46 31L46 32L47 32L47 31L46 31L46 30L47 30L47 29ZM64 29L64 30L65 30L65 29ZM3 30L3 31L4 31L4 30ZM6 30L6 31L8 31L8 30ZM39 30L39 31L38 31L38 32L43 32L43 31L40 31L40 30ZM5 33L5 36L8 36L8 33ZM11 33L11 34L12 34L12 33ZM33 33L33 36L36 36L36 33ZM61 33L61 36L64 36L64 33ZM6 34L6 35L7 35L7 34ZM30 34L30 35L32 35L32 34ZM34 34L34 35L35 35L35 34ZM62 34L62 35L63 35L63 34ZM2 35L2 36L3 36L3 35ZM14 35L14 36L13 36L13 37L14 37L14 39L13 39L13 40L14 40L14 42L15 42L15 43L14 43L14 44L12 44L12 45L10 45L10 46L12 46L12 47L13 47L13 49L14 49L14 47L15 47L15 50L16 50L16 52L17 52L17 50L18 50L18 52L19 52L19 51L20 51L20 50L18 50L18 49L21 49L21 50L22 50L22 49L23 49L23 48L22 48L22 47L20 47L20 46L23 46L23 43L19 43L19 41L18 41L18 40L19 40L19 39L20 39L20 38L18 38L18 37L15 37L15 35ZM16 35L16 36L17 36L17 35ZM39 35L39 36L40 36L40 35ZM25 36L25 37L24 37L24 38L25 38L25 37L26 37L26 38L27 38L27 37L28 37L28 36L27 36L27 37L26 37L26 36ZM31 36L31 37L32 37L32 36ZM49 36L49 37L48 37L48 38L49 38L49 37L50 37L50 36ZM6 37L6 38L7 38L7 37ZM16 38L16 40L17 40L17 39L18 39L18 38ZM14 39L14 40L15 40L15 39ZM23 39L23 40L24 40L24 39ZM21 40L21 41L22 41L22 40ZM4 41L4 42L5 42L5 41ZM15 41L15 42L16 42L16 41ZM17 41L17 42L18 42L18 41ZM48 41L48 42L49 42L49 41ZM36 42L36 43L35 43L35 44L34 44L34 45L37 45L37 44L36 44L36 43L37 43L37 42ZM65 42L65 44L66 44L66 47L65 47L65 46L63 46L63 49L64 49L64 48L67 48L67 49L65 49L65 50L63 50L63 51L62 51L62 50L61 50L61 51L60 51L60 49L62 49L62 48L60 48L60 49L59 49L59 48L58 48L58 49L59 49L59 52L61 52L61 53L62 53L62 54L60 54L60 53L59 53L59 54L60 54L60 55L62 55L62 54L63 54L63 53L64 53L64 51L65 51L65 52L68 52L68 50L69 50L69 49L68 49L68 48L69 48L69 47L68 47L68 45L67 45L67 44L69 44L69 43L68 43L68 42ZM15 43L15 44L16 44L16 45L13 45L13 47L14 47L14 46L15 46L15 47L16 47L16 48L17 48L17 49L18 49L18 48L17 48L17 47L18 47L18 46L20 46L20 45L19 45L19 44L16 44L16 43ZM39 43L39 44L40 44L40 43ZM6 44L6 45L7 45L7 44ZM59 44L59 45L60 45L60 44ZM16 45L16 46L18 46L18 45ZM35 46L35 47L36 47L36 46ZM38 47L38 48L39 48L39 47ZM46 47L46 49L45 49L45 52L44 52L44 51L43 51L43 52L44 52L44 53L43 53L43 56L42 56L42 57L43 57L43 56L44 56L44 53L45 53L45 54L46 54L46 56L48 56L48 54L49 54L49 53L45 53L45 52L46 52L46 51L47 51L47 47ZM67 47L67 48L68 48L68 47ZM21 48L21 49L22 49L22 48ZM27 49L27 50L28 50L28 49ZM43 49L43 50L44 50L44 49ZM7 50L7 51L9 51L9 50ZM41 50L41 52L39 52L39 53L41 53L41 52L42 52L42 50ZM49 50L49 51L50 51L50 50ZM65 50L65 51L66 51L66 50ZM2 51L2 52L3 52L3 53L5 53L5 52L3 52L3 51ZM14 51L14 52L15 52L15 51ZM61 51L61 52L62 52L62 51ZM0 52L0 54L1 54L1 52ZM37 52L37 53L38 53L38 52ZM13 53L13 54L12 54L12 55L11 55L11 56L12 56L12 55L15 55L15 54L17 54L17 53L15 53L15 54L14 54L14 53ZM21 53L21 54L22 54L22 53ZM27 54L27 56L28 56L28 55L29 55L29 54ZM35 54L35 55L34 55L34 56L35 56L35 55L36 55L36 54ZM40 54L40 55L42 55L42 54ZM67 55L67 56L63 56L63 58L65 58L65 59L67 59L67 58L68 58L68 57L67 57L67 56L68 56L68 55ZM65 57L65 58L66 58L66 57ZM32 58L32 59L33 59L33 58ZM45 58L45 59L46 59L46 58ZM15 59L15 60L16 60L16 61L15 61L15 62L14 62L14 63L13 63L13 64L14 64L14 63L16 63L16 64L17 64L17 65L16 65L16 66L17 66L17 65L18 65L18 64L17 64L17 63L18 63L18 62L19 62L19 61L18 61L18 60L16 60L16 59ZM56 59L56 61L55 61L55 62L59 62L59 61L57 61L57 59ZM3 60L3 61L5 61L5 60ZM29 60L29 62L28 62L28 63L29 63L29 62L30 62L30 63L31 63L31 60ZM42 60L42 61L43 61L43 60ZM17 61L17 62L16 62L16 63L17 63L17 62L18 62L18 61ZM33 61L33 64L36 64L36 61ZM61 61L61 64L64 64L64 61ZM34 62L34 63L35 63L35 62ZM62 62L62 63L63 63L63 62ZM65 62L65 63L66 63L66 62ZM23 63L23 64L26 64L26 63ZM50 63L50 64L53 64L53 63ZM8 64L8 69L9 69L9 67L12 67L12 66L11 66L11 65L9 65L9 64ZM37 64L37 65L38 65L38 64ZM21 65L21 66L22 66L22 65ZM31 65L31 66L32 66L32 65ZM33 65L33 67L34 67L34 66L36 66L36 65ZM61 66L61 67L62 67L62 66ZM29 67L29 68L30 68L30 67ZM31 67L31 68L32 68L32 67ZM64 67L64 68L63 68L63 69L64 69L64 68L65 68L65 69L68 69L68 68L67 68L67 67ZM0 0L0 7L7 7L7 0ZM1 1L1 6L6 6L6 1ZM2 2L2 5L5 5L5 2ZM62 0L62 7L69 7L69 0ZM63 1L63 6L68 6L68 1ZM64 2L64 5L67 5L67 2ZM0 62L0 69L7 69L7 62ZM1 63L1 68L6 68L6 63ZM2 64L2 67L5 67L5 64Z" fill="#000000"/></g></g></svg>
