<?xml version="1.0" encoding="UTF-8"?>
<svg xmlns="http://www.w3.org/2000/svg" version="1.1" width="300" height="300" viewBox="0 0 300 300"><rect x="0" y="0" width="300" height="300" fill="#ffffff"/><g transform="scale(4.348)"><g transform="translate(0,0)"><path fill-rule="evenodd" d="M8 0L8 4L9 4L9 5L8 5L8 7L9 7L9 6L10 6L10 7L11 7L11 8L10 8L10 9L11 9L11 10L10 10L10 11L7 11L7 10L9 10L9 9L7 9L7 8L4 8L4 9L3 9L3 12L5 12L5 14L3 14L3 15L4 15L4 16L3 16L3 17L1 17L1 16L2 16L2 12L1 12L1 11L2 11L2 10L0 10L0 14L1 14L1 16L0 16L0 18L1 18L1 19L2 19L2 20L0 20L0 23L1 23L1 22L2 22L2 21L3 21L3 19L2 19L2 18L4 18L4 17L8 17L8 18L5 18L5 19L4 19L4 21L8 21L8 20L10 20L10 19L11 19L11 18L15 18L15 19L13 19L13 20L11 20L11 21L12 21L12 22L10 22L10 21L9 21L9 22L4 22L4 23L2 23L2 24L1 24L1 26L0 26L0 32L2 32L2 33L1 33L1 35L0 35L0 36L1 36L1 37L2 37L2 38L0 38L0 39L1 39L1 41L0 41L0 42L2 42L2 44L1 44L1 43L0 43L0 44L1 44L1 45L0 45L0 48L1 48L1 45L2 45L2 47L3 47L3 49L5 49L5 50L6 50L6 51L5 51L5 52L4 52L4 50L2 50L2 49L0 49L0 51L1 51L1 52L0 52L0 53L3 53L3 55L1 55L1 56L0 56L0 61L1 61L1 58L2 58L2 59L3 59L3 58L4 58L4 59L7 59L7 58L4 58L4 54L6 54L6 55L8 55L8 56L5 56L5 57L8 57L8 58L9 58L9 60L10 60L10 61L8 61L8 62L10 62L10 64L11 64L11 66L10 66L10 67L11 67L11 68L10 68L10 69L11 69L11 68L12 68L12 69L13 69L13 66L14 66L14 69L16 69L16 68L17 68L17 69L19 69L19 67L20 67L20 66L22 66L22 68L21 68L21 69L22 69L22 68L23 68L23 69L24 69L24 68L25 68L25 69L27 69L27 67L28 67L28 66L29 66L29 65L30 65L30 66L31 66L31 67L32 67L32 69L33 69L33 66L34 66L34 68L35 68L35 66L36 66L36 65L38 65L38 67L39 67L39 68L38 68L38 69L40 69L40 67L39 67L39 66L40 66L40 63L41 63L41 69L43 69L43 63L42 63L42 62L43 62L43 61L42 61L42 58L45 58L45 60L44 60L44 59L43 59L43 60L44 60L44 69L46 69L46 67L45 67L45 63L46 63L46 64L47 64L47 66L49 66L49 64L50 64L50 68L49 68L49 67L48 67L48 69L52 69L52 68L53 68L53 67L52 67L52 63L54 63L54 64L53 64L53 65L54 65L54 69L55 69L55 63L56 63L56 66L58 66L58 68L57 68L57 67L56 67L56 69L58 69L58 68L61 68L61 69L64 69L64 68L65 68L65 69L67 69L67 68L65 68L65 67L66 67L66 66L69 66L69 65L68 65L68 64L69 64L69 63L67 63L67 65L65 65L65 63L66 63L66 62L67 62L67 61L69 61L69 60L67 60L67 61L66 61L66 60L64 60L64 55L65 55L65 57L66 57L66 55L68 55L68 53L69 53L69 52L68 52L68 50L64 50L64 49L65 49L65 47L66 47L66 46L67 46L67 49L69 49L69 47L68 47L68 45L69 45L69 44L68 44L68 45L67 45L67 44L65 44L65 43L68 43L68 42L69 42L69 41L68 41L68 42L65 42L65 43L64 43L64 41L65 41L65 40L64 40L64 39L66 39L66 38L67 38L67 40L68 40L68 38L69 38L69 35L68 35L68 32L67 32L67 33L66 33L66 32L63 32L63 31L64 31L64 30L65 30L65 31L68 31L68 30L69 30L69 27L68 27L68 26L69 26L69 25L68 25L68 22L69 22L69 20L68 20L68 18L67 18L67 17L69 17L69 15L68 15L68 14L69 14L69 11L68 11L68 10L67 10L67 9L69 9L69 8L65 8L65 9L64 9L64 8L63 8L63 9L62 9L62 11L61 11L61 9L60 9L60 8L61 8L61 6L60 6L60 8L59 8L59 10L58 10L58 7L59 7L59 4L58 4L58 5L57 5L57 6L56 6L56 5L55 5L55 4L56 4L56 1L57 1L57 0L56 0L56 1L55 1L55 0L52 0L52 1L51 1L51 0L50 0L50 5L49 5L49 4L47 4L47 2L46 2L46 0L45 0L45 1L44 1L44 0L41 0L41 1L40 1L40 0L37 0L37 1L36 1L36 0L35 0L35 1L36 1L36 2L37 2L37 1L40 1L40 4L41 4L41 5L40 5L40 7L39 7L39 4L38 4L38 3L35 3L35 2L34 2L34 0L31 0L31 1L30 1L30 0L23 0L23 1L22 1L22 0L15 0L15 1L14 1L14 2L13 2L13 0L12 0L12 2L11 2L11 0ZM47 0L47 1L48 1L48 3L49 3L49 0ZM58 0L58 1L61 1L61 0ZM9 1L9 3L11 3L11 4L10 4L10 5L11 5L11 7L12 7L12 8L11 8L11 9L14 9L14 10L15 10L15 9L17 9L17 10L16 10L16 11L17 11L17 12L19 12L19 15L20 15L20 16L21 16L21 15L22 15L22 17L19 17L19 16L18 16L18 17L17 17L17 16L16 16L16 17L15 17L15 18L16 18L16 19L17 19L17 18L18 18L18 19L20 19L20 18L22 18L22 21L21 21L21 22L20 22L20 21L19 21L19 22L18 22L18 21L17 21L17 20L16 20L16 21L17 21L17 23L16 23L16 22L15 22L15 23L16 23L16 24L15 24L15 25L14 25L14 26L13 26L13 27L12 27L12 26L10 26L10 24L11 24L11 25L13 25L13 24L14 24L14 23L6 23L6 24L5 24L5 25L6 25L6 26L7 26L7 25L8 25L8 24L9 24L9 26L8 26L8 27L6 27L6 28L5 28L5 26L4 26L4 24L2 24L2 25L3 25L3 27L1 27L1 31L2 31L2 32L3 32L3 31L4 31L4 32L5 32L5 31L6 31L6 32L7 32L7 31L6 31L6 30L8 30L8 29L6 29L6 28L9 28L9 27L10 27L10 28L11 28L11 27L12 27L12 28L13 28L13 27L14 27L14 28L15 28L15 29L14 29L14 30L13 30L13 31L12 31L12 32L11 32L11 31L10 31L10 30L9 30L9 31L10 31L10 32L11 32L11 33L10 33L10 35L9 35L9 36L10 36L10 35L11 35L11 36L12 36L12 39L11 39L11 37L9 37L9 38L10 38L10 40L9 40L9 39L8 39L8 37L6 37L6 38L5 38L5 40L4 40L4 34L2 34L2 35L1 35L1 36L3 36L3 39L2 39L2 40L4 40L4 41L3 41L3 42L4 42L4 43L3 43L3 45L4 45L4 46L3 46L3 47L4 47L4 48L5 48L5 47L6 47L6 48L7 48L7 49L6 49L6 50L7 50L7 49L8 49L8 48L9 48L9 45L8 45L8 43L9 43L9 42L11 42L11 43L10 43L10 45L12 45L12 42L11 42L11 41L10 41L10 40L12 40L12 41L13 41L13 43L14 43L14 39L15 39L15 40L16 40L16 41L15 41L15 43L16 43L16 42L18 42L18 43L20 43L20 44L21 44L21 43L22 43L22 46L21 46L21 47L20 47L20 45L19 45L19 48L18 48L18 49L17 49L17 47L18 47L18 46L17 46L17 44L14 44L14 45L16 45L16 46L15 46L15 47L14 47L14 46L12 46L12 48L11 48L11 49L12 49L12 50L11 50L11 51L10 51L10 49L9 49L9 50L8 50L8 51L9 51L9 52L7 52L7 51L6 51L6 52L5 52L5 53L6 53L6 54L7 54L7 53L9 53L9 56L8 56L8 57L9 57L9 58L10 58L10 59L11 59L11 61L10 61L10 62L11 62L11 64L12 64L12 66L11 66L11 67L12 67L12 66L13 66L13 64L14 64L14 63L15 63L15 61L16 61L16 62L17 62L17 60L19 60L19 61L18 61L18 63L16 63L16 66L15 66L15 68L16 68L16 66L17 66L17 67L19 67L19 66L17 66L17 65L18 65L18 64L19 64L19 65L20 65L20 64L21 64L21 62L20 62L20 60L22 60L22 63L23 63L23 64L22 64L22 66L23 66L23 65L24 65L24 64L25 64L25 65L29 65L29 64L28 64L28 62L29 62L29 63L30 63L30 62L31 62L31 63L32 63L32 62L31 62L31 61L32 61L32 60L33 60L33 59L34 59L34 60L38 60L38 61L37 61L37 62L38 62L38 65L39 65L39 63L40 63L40 62L41 62L41 60L38 60L38 59L39 59L39 58L40 58L40 59L41 59L41 58L40 58L40 57L41 57L41 56L42 56L42 57L44 57L44 54L45 54L45 53L46 53L46 54L48 54L48 55L49 55L49 54L48 54L48 53L46 53L46 52L49 52L49 53L50 53L50 51L51 51L51 50L50 50L50 47L49 47L49 50L50 50L50 51L46 51L46 50L48 50L48 47L47 47L47 48L45 48L45 47L46 47L46 46L47 46L47 45L46 45L46 46L44 46L44 44L45 44L45 43L47 43L47 44L48 44L48 42L50 42L50 43L49 43L49 46L50 46L50 43L51 43L51 44L52 44L52 45L51 45L51 49L53 49L53 46L52 46L52 45L55 45L55 46L54 46L54 49L55 49L55 50L54 50L54 51L53 51L53 52L52 52L52 53L54 53L54 52L55 52L55 54L57 54L57 53L56 53L56 52L55 52L55 51L56 51L56 49L55 49L55 46L56 46L56 44L58 44L58 46L59 46L59 45L61 45L61 44L63 44L63 41L64 41L64 40L63 40L63 41L62 41L62 43L61 43L61 44L60 44L60 43L56 43L56 42L57 42L57 41L58 41L58 42L59 42L59 41L60 41L60 42L61 42L61 41L60 41L60 39L61 39L61 38L62 38L62 39L64 39L64 38L65 38L65 37L63 37L63 38L62 38L62 37L61 37L61 38L60 38L60 36L59 36L59 35L60 35L60 34L59 34L59 33L60 33L60 32L58 32L58 39L56 39L56 38L57 38L57 37L56 37L56 36L57 36L57 35L56 35L56 31L57 31L57 29L56 29L56 28L58 28L58 31L59 31L59 29L60 29L60 28L59 28L59 25L60 25L60 24L61 24L61 25L63 25L63 27L64 27L64 25L65 25L65 24L67 24L67 22L68 22L68 20L67 20L67 19L66 19L66 18L65 18L65 20L64 20L64 22L63 22L63 23L62 23L62 21L63 21L63 19L64 19L64 17L66 17L66 16L68 16L68 15L67 15L67 14L68 14L68 13L66 13L66 12L68 12L68 11L67 11L67 10L66 10L66 11L64 11L64 10L63 10L63 14L64 14L64 13L65 13L65 16L64 16L64 17L63 17L63 19L62 19L62 12L60 12L60 11L59 11L59 12L60 12L60 13L61 13L61 14L59 14L59 13L58 13L58 14L59 14L59 15L60 15L60 16L61 16L61 18L59 18L59 16L58 16L58 15L57 15L57 13L56 13L56 11L57 11L57 12L58 12L58 10L57 10L57 9L56 9L56 10L55 10L55 12L52 12L52 13L51 13L51 14L52 14L52 15L53 15L53 16L52 16L52 17L51 17L51 20L52 20L52 22L50 22L50 16L51 16L51 15L50 15L50 16L49 16L49 18L48 18L48 19L47 19L47 20L49 20L49 21L48 21L48 22L47 22L47 21L46 21L46 22L47 22L47 25L46 25L46 26L47 26L47 25L48 25L48 27L49 27L49 28L50 28L50 29L48 29L48 30L47 30L47 28L46 28L46 27L45 27L45 29L43 29L43 30L44 30L44 31L40 31L40 33L44 33L44 34L43 34L43 35L41 35L41 34L38 34L38 33L39 33L39 32L37 32L37 34L38 34L38 35L37 35L37 37L32 37L32 34L31 34L31 33L32 33L32 32L35 32L35 31L38 31L38 29L36 29L36 28L39 28L39 29L40 29L40 30L42 30L42 28L43 28L43 26L41 26L41 25L42 25L42 24L43 24L43 25L44 25L44 24L45 24L45 23L44 23L44 20L46 20L46 18L47 18L47 17L48 17L48 15L47 15L47 13L46 13L46 15L47 15L47 17L46 17L46 16L45 16L45 17L46 17L46 18L45 18L45 19L44 19L44 18L41 18L41 17L42 17L42 16L40 16L40 21L39 21L39 20L38 20L38 21L37 21L37 19L39 19L39 18L38 18L38 17L37 17L37 16L39 16L39 15L42 15L42 13L43 13L43 17L44 17L44 12L42 12L42 10L41 10L41 14L40 14L40 13L39 13L39 11L40 11L40 10L39 10L39 11L38 11L38 9L37 9L37 11L38 11L38 13L39 13L39 15L37 15L37 14L35 14L35 13L34 13L34 11L36 11L36 9L34 9L34 11L33 11L33 9L31 9L31 8L30 8L30 9L29 9L29 8L28 8L28 6L29 6L29 7L30 7L30 6L31 6L31 7L32 7L32 6L31 6L31 5L32 5L32 4L33 4L33 3L34 3L34 4L35 4L35 3L34 3L34 2L32 2L32 1L31 1L31 2L30 2L30 3L29 3L29 2L28 2L28 1L25 1L25 2L26 2L26 4L28 4L28 5L22 5L22 3L21 3L21 2L20 2L20 1L19 1L19 3L17 3L17 1L15 1L15 3L14 3L14 4L15 4L15 5L13 5L13 3L11 3L11 2L10 2L10 1ZM41 1L41 3L42 3L42 4L43 4L43 5L44 5L44 6L43 6L43 8L41 8L41 7L42 7L42 6L41 6L41 7L40 7L40 9L43 9L43 11L45 11L45 12L46 12L46 10L47 10L47 8L49 8L49 11L51 11L51 10L50 10L50 9L52 9L52 11L53 11L53 9L55 9L55 7L56 7L56 6L55 6L55 7L54 7L54 5L52 5L52 6L51 6L51 5L50 5L50 6L49 6L49 7L48 7L48 6L47 6L47 4L46 4L46 5L44 5L44 4L45 4L45 3L46 3L46 2L45 2L45 3L44 3L44 2L42 2L42 1ZM53 1L53 3L54 3L54 4L55 4L55 3L54 3L54 2L55 2L55 1ZM23 2L23 4L25 4L25 3L24 3L24 2ZM31 2L31 4L29 4L29 3L28 3L28 4L29 4L29 6L30 6L30 5L31 5L31 4L32 4L32 2ZM57 2L57 3L59 3L59 2ZM16 3L16 5L15 5L15 6L14 6L14 7L15 7L15 6L16 6L16 7L17 7L17 6L18 6L18 8L17 8L17 9L18 9L18 10L17 10L17 11L18 11L18 10L19 10L19 12L20 12L20 14L21 14L21 13L22 13L22 12L23 12L23 11L24 11L24 12L26 12L26 13L27 13L27 14L28 14L28 15L27 15L27 16L26 16L26 15L25 15L25 17L23 17L23 19L24 19L24 21L23 21L23 23L24 23L24 22L25 22L25 24L22 24L22 23L21 23L21 24L20 24L20 23L17 23L17 25L15 25L15 27L16 27L16 26L18 26L18 27L17 27L17 28L16 28L16 29L15 29L15 31L16 31L16 32L15 32L15 33L14 33L14 34L15 34L15 35L16 35L16 36L17 36L17 37L20 37L20 38L19 38L19 40L18 40L18 38L17 38L17 39L16 39L16 40L17 40L17 41L20 41L20 42L22 42L22 41L21 41L21 39L22 39L22 40L23 40L23 38L21 38L21 37L22 37L22 35L21 35L21 36L19 36L19 35L20 35L20 34L21 34L21 33L22 33L22 32L23 32L23 30L25 30L25 31L24 31L24 33L23 33L23 34L24 34L24 35L23 35L23 37L24 37L24 39L26 39L26 37L27 37L27 38L28 38L28 39L29 39L29 41L30 41L30 42L29 42L29 43L28 43L28 41L27 41L27 40L26 40L26 42L24 42L24 41L25 41L25 40L24 40L24 41L23 41L23 43L24 43L24 45L23 45L23 46L25 46L25 44L26 44L26 46L27 46L27 45L29 45L29 47L28 47L28 48L26 48L26 47L23 47L23 49L22 49L22 47L21 47L21 48L19 48L19 49L18 49L18 50L16 50L16 49L15 49L15 50L16 50L16 52L15 52L15 51L14 51L14 49L13 49L13 48L14 48L14 47L13 47L13 48L12 48L12 49L13 49L13 50L12 50L12 51L11 51L11 52L9 52L9 53L10 53L10 55L11 55L11 57L10 57L10 56L9 56L9 57L10 57L10 58L11 58L11 59L12 59L12 64L13 64L13 63L14 63L14 62L13 62L13 60L14 60L14 61L15 61L15 59L16 59L16 58L17 58L17 59L19 59L19 60L20 60L20 59L22 59L22 60L23 60L23 62L25 62L25 63L26 63L26 64L27 64L27 62L28 62L28 57L29 57L29 59L30 59L30 58L32 58L32 57L31 57L31 56L30 56L30 57L29 57L29 56L28 56L28 57L27 57L27 55L28 55L28 53L29 53L29 55L30 55L30 54L31 54L31 52L32 52L32 53L33 53L33 54L34 54L34 53L33 53L33 52L32 52L32 51L34 51L34 52L35 52L35 53L38 53L38 52L39 52L39 53L40 53L40 52L41 52L41 54L40 54L40 55L39 55L39 56L38 56L38 58L34 58L34 56L33 56L33 58L34 58L34 59L38 59L38 58L39 58L39 57L40 57L40 55L41 55L41 54L42 54L42 55L43 55L43 54L44 54L44 53L45 53L45 50L46 50L46 49L45 49L45 48L44 48L44 46L43 46L43 44L41 44L41 43L39 43L39 42L43 42L43 39L45 39L45 40L44 40L44 43L45 43L45 42L46 42L46 37L47 37L47 38L49 38L49 39L47 39L47 41L49 41L49 39L50 39L50 40L51 40L51 41L50 41L50 42L51 42L51 43L52 43L52 44L54 44L54 43L53 43L53 42L56 42L56 41L57 41L57 40L56 40L56 41L55 41L55 40L54 40L54 41L53 41L53 42L51 42L51 41L52 41L52 40L53 40L53 39L55 39L55 38L56 38L56 37L52 37L52 36L56 36L56 35L55 35L55 32L53 32L53 33L54 33L54 35L53 35L53 34L51 34L51 33L52 33L52 32L51 32L51 31L50 31L50 30L52 30L52 31L53 31L53 30L55 30L55 31L56 31L56 30L55 30L55 29L52 29L52 28L53 28L53 27L54 27L54 26L55 26L55 28L56 28L56 26L57 26L57 27L58 27L58 24L59 24L59 23L60 23L60 22L61 22L61 21L62 21L62 20L61 20L61 19L60 19L60 20L61 20L61 21L59 21L59 18L58 18L58 16L56 16L56 13L53 13L53 15L54 15L54 17L53 17L53 18L52 18L52 19L54 19L54 20L53 20L53 22L52 22L52 24L51 24L51 23L48 23L48 25L50 25L50 26L51 26L51 27L52 27L52 28L51 28L51 29L50 29L50 30L49 30L49 31L44 31L44 33L45 33L45 34L44 34L44 37L45 37L45 38L43 38L43 37L42 37L42 36L41 36L41 35L39 35L39 36L38 36L38 37L37 37L37 38L35 38L35 39L33 39L33 38L32 38L32 37L31 37L31 36L30 36L30 33L31 33L31 32L32 32L32 31L29 31L29 30L28 30L28 29L27 29L27 27L26 27L26 26L27 26L27 25L29 25L29 26L28 26L28 28L29 28L29 29L30 29L30 30L31 30L31 29L32 29L32 28L33 28L33 27L29 27L29 26L32 26L32 23L34 23L34 26L35 26L35 27L34 27L34 28L35 28L35 27L36 27L36 26L37 26L37 27L40 27L40 28L42 28L42 27L40 27L40 24L41 24L41 23L42 23L42 22L43 22L43 20L41 20L41 21L40 21L40 22L39 22L39 23L38 23L38 24L39 24L39 25L38 25L38 26L37 26L37 25L36 25L36 24L35 24L35 22L37 22L37 21L35 21L35 20L36 20L36 16L35 16L35 14L34 14L34 15L33 15L33 17L34 17L34 16L35 16L35 19L34 19L34 18L33 18L33 19L34 19L34 21L32 21L32 23L31 23L31 24L30 24L30 25L29 25L29 24L28 24L28 21L27 21L27 20L29 20L29 19L30 19L30 18L31 18L31 20L30 20L30 21L29 21L29 23L30 23L30 21L31 21L31 20L32 20L32 18L31 18L31 16L32 16L32 14L33 14L33 12L32 12L32 13L31 13L31 11L32 11L32 10L31 10L31 9L30 9L30 10L28 10L28 9L27 9L27 6L26 6L26 7L25 7L25 6L24 6L24 9L23 9L23 10L22 10L22 9L21 9L21 8L20 8L20 10L19 10L19 5L20 5L20 7L21 7L21 3L19 3L19 4L18 4L18 5L17 5L17 3ZM43 3L43 4L44 4L44 3ZM51 3L51 4L52 4L52 3ZM60 3L60 5L61 5L61 3ZM11 4L11 5L12 5L12 7L13 7L13 5L12 5L12 4ZM16 5L16 6L17 6L17 5ZM33 5L33 8L36 8L36 5ZM37 5L37 7L38 7L38 5ZM22 6L22 8L23 8L23 6ZM34 6L34 7L35 7L35 6ZM44 6L44 7L45 7L45 8L44 8L44 9L45 9L45 10L46 10L46 9L45 9L45 8L47 8L47 6L46 6L46 7L45 7L45 6ZM50 6L50 7L51 7L51 6ZM52 6L52 7L53 7L53 8L54 8L54 7L53 7L53 6ZM57 6L57 7L58 7L58 6ZM0 8L0 9L2 9L2 8ZM14 8L14 9L15 9L15 8ZM25 8L25 9L24 9L24 10L26 10L26 12L27 12L27 13L28 13L28 14L29 14L29 15L28 15L28 17L27 17L27 19L26 19L26 17L25 17L25 21L26 21L26 24L25 24L25 25L26 25L26 24L27 24L27 21L26 21L26 20L27 20L27 19L28 19L28 18L29 18L29 15L30 15L30 16L31 16L31 14L30 14L30 13L29 13L29 12L30 12L30 11L31 11L31 10L30 10L30 11L29 11L29 12L27 12L27 11L28 11L28 10L26 10L26 8ZM6 9L6 10L5 10L5 11L6 11L6 12L7 12L7 11L6 11L6 10L7 10L7 9ZM11 10L11 11L10 11L10 12L9 12L9 13L8 13L8 14L7 14L7 13L6 13L6 14L7 14L7 15L6 15L6 16L7 16L7 15L8 15L8 16L9 16L9 15L12 15L12 14L14 14L14 15L13 15L13 16L12 16L12 17L14 17L14 15L15 15L15 14L16 14L16 15L18 15L18 13L17 13L17 14L16 14L16 12L15 12L15 11L13 11L13 10ZM20 10L20 12L21 12L21 11L22 11L22 10ZM11 11L11 13L9 13L9 14L11 14L11 13L13 13L13 11ZM36 12L36 13L37 13L37 12ZM49 12L49 13L50 13L50 12ZM14 13L14 14L15 14L15 13ZM23 13L23 14L22 14L22 15L24 15L24 14L25 14L25 13ZM54 14L54 15L55 15L55 14ZM10 16L10 17L9 17L9 19L10 19L10 17L11 17L11 16ZM55 16L55 18L54 18L54 19L55 19L55 23L54 23L54 22L53 22L53 23L54 23L54 25L56 25L56 24L58 24L58 23L57 23L57 22L56 22L56 16ZM18 17L18 18L19 18L19 17ZM57 18L57 19L58 19L58 18ZM5 19L5 20L7 20L7 19ZM13 20L13 21L14 21L14 20ZM57 20L57 21L58 21L58 22L59 22L59 21L58 21L58 20ZM66 20L66 22L65 22L65 23L64 23L64 24L63 24L63 25L64 25L64 24L65 24L65 23L66 23L66 22L67 22L67 20ZM34 21L34 22L35 22L35 21ZM40 22L40 23L39 23L39 24L40 24L40 23L41 23L41 22ZM55 23L55 24L56 24L56 23ZM6 24L6 25L7 25L7 24ZM19 24L19 25L18 25L18 26L19 26L19 28L20 28L20 29L18 29L18 28L17 28L17 29L16 29L16 30L17 30L17 29L18 29L18 31L17 31L17 33L16 33L16 35L18 35L18 34L17 34L17 33L18 33L18 32L19 32L19 33L20 33L20 32L22 32L22 30L23 30L23 29L24 29L24 28L25 28L25 29L26 29L26 28L25 28L25 26L24 26L24 25L21 25L21 26L22 26L22 29L21 29L21 28L20 28L20 24ZM50 24L50 25L51 25L51 24ZM52 24L52 26L53 26L53 24ZM67 25L67 26L65 26L65 28L64 28L64 29L63 29L63 28L62 28L62 27L61 27L61 28L62 28L62 29L61 29L61 31L63 31L63 30L64 30L64 29L65 29L65 30L67 30L67 29L68 29L68 28L67 28L67 26L68 26L68 25ZM23 27L23 28L24 28L24 27ZM2 28L2 29L3 29L3 28ZM65 28L65 29L66 29L66 28ZM4 29L4 31L5 31L5 29ZM20 29L20 30L21 30L21 29ZM33 29L33 31L34 31L34 30L35 30L35 29ZM62 29L62 30L63 30L63 29ZM2 30L2 31L3 31L3 30ZM27 30L27 31L28 31L28 32L26 32L26 31L25 31L25 33L29 33L29 31L28 31L28 30ZM13 31L13 32L12 32L12 33L11 33L11 34L12 34L12 35L13 35L13 36L14 36L14 35L13 35L13 32L14 32L14 31ZM19 31L19 32L20 32L20 31ZM49 31L49 33L46 33L46 32L45 32L45 33L46 33L46 34L45 34L45 37L46 37L46 34L47 34L47 36L49 36L49 33L51 33L51 32L50 32L50 31ZM5 33L5 36L8 36L8 33ZM33 33L33 36L36 36L36 33ZM61 33L61 36L64 36L64 33ZM6 34L6 35L7 35L7 34ZM25 34L25 35L24 35L24 37L26 37L26 36L28 36L28 38L29 38L29 39L30 39L30 38L29 38L29 34L28 34L28 35L26 35L26 34ZM34 34L34 35L35 35L35 34ZM62 34L62 35L63 35L63 34ZM66 34L66 35L65 35L65 36L67 36L67 38L68 38L68 35L67 35L67 34ZM40 36L40 37L39 37L39 38L38 38L38 39L35 39L35 40L34 40L34 41L33 41L33 40L32 40L32 38L31 38L31 40L30 40L30 41L31 41L31 40L32 40L32 42L31 42L31 43L29 43L29 45L30 45L30 46L31 46L31 48L32 48L32 49L31 49L31 51L32 51L32 49L33 49L33 48L34 48L34 50L35 50L35 52L37 52L37 50L38 50L38 51L39 51L39 52L40 52L40 51L41 51L41 49L42 49L42 45L41 45L41 46L40 46L40 45L39 45L39 47L38 47L38 45L36 45L36 44L37 44L37 43L38 43L38 44L39 44L39 43L38 43L38 41L39 41L39 38L40 38L40 41L41 41L41 39L42 39L42 37L41 37L41 36ZM13 37L13 38L14 38L14 37ZM15 37L15 38L16 38L16 37ZM49 37L49 38L50 38L50 37ZM6 38L6 39L7 39L7 40L5 40L5 41L7 41L7 42L6 42L6 43L8 43L8 41L7 41L7 40L8 40L8 39L7 39L7 38ZM51 38L51 40L52 40L52 38ZM37 40L37 41L38 41L38 40ZM33 42L33 43L31 43L31 44L30 44L30 45L31 45L31 46L32 46L32 47L33 47L33 45L34 45L34 42ZM35 42L35 43L36 43L36 42ZM4 43L4 45L5 45L5 46L4 46L4 47L5 47L5 46L6 46L6 47L7 47L7 46L8 46L8 45L7 45L7 44L5 44L5 43ZM55 43L55 44L56 44L56 43ZM32 44L32 45L33 45L33 44ZM64 44L64 46L66 46L66 45L65 45L65 44ZM6 45L6 46L7 46L7 45ZM35 45L35 47L34 47L34 48L35 48L35 47L36 47L36 48L37 48L37 49L38 49L38 50L39 50L39 51L40 51L40 48L41 48L41 47L39 47L39 48L38 48L38 47L36 47L36 45ZM62 45L62 49L61 49L61 48L60 48L60 47L58 47L58 48L59 48L59 49L58 49L58 50L59 50L59 53L58 53L58 54L59 54L59 53L60 53L60 54L61 54L61 55L64 55L64 54L65 54L65 55L66 55L66 54L67 54L67 53L65 53L65 52L67 52L67 51L65 51L65 52L64 52L64 50L62 50L62 49L64 49L64 47L63 47L63 45ZM10 46L10 47L11 47L11 46ZM16 46L16 47L17 47L17 46ZM24 48L24 49L23 49L23 50L24 50L24 49L25 49L25 51L26 51L26 52L24 52L24 51L22 51L22 50L21 50L21 49L19 49L19 50L18 50L18 51L20 51L20 50L21 50L21 52L22 52L22 54L21 54L21 55L22 55L22 56L23 56L23 55L24 55L24 56L25 56L25 58L24 58L24 57L21 57L21 58L23 58L23 59L24 59L24 61L26 61L26 60L25 60L25 58L26 58L26 59L27 59L27 58L26 58L26 55L27 55L27 53L28 53L28 52L27 52L27 51L28 51L28 50L30 50L30 49L29 49L29 48L28 48L28 49L27 49L27 51L26 51L26 49L25 49L25 48ZM43 48L43 49L44 49L44 50L45 50L45 49L44 49L44 48ZM35 49L35 50L36 50L36 49ZM1 50L1 51L2 51L2 50ZM42 50L42 52L43 52L43 53L44 53L44 51L43 51L43 50ZM61 50L61 51L60 51L60 53L61 53L61 52L62 52L62 53L63 53L63 54L64 54L64 53L63 53L63 51L62 51L62 50ZM12 51L12 52L13 52L13 51ZM6 52L6 53L7 53L7 52ZM26 52L26 53L23 53L23 54L24 54L24 55L26 55L26 53L27 53L27 52ZM11 53L11 54L12 54L12 55L13 55L13 56L15 56L15 57L14 57L14 58L15 58L15 57L17 57L17 58L20 58L20 57L17 57L17 56L16 56L16 55L17 55L17 53L16 53L16 55L15 55L15 53L14 53L14 55L13 55L13 53ZM19 53L19 56L20 56L20 53ZM35 54L35 55L37 55L37 54ZM51 54L51 55L50 55L50 56L49 56L49 57L46 57L46 58L48 58L48 59L49 59L49 63L50 63L50 64L51 64L51 63L52 63L52 61L54 61L54 60L52 60L52 61L51 61L51 62L50 62L50 59L51 59L51 58L53 58L53 59L54 59L54 58L53 58L53 54ZM56 55L56 56L55 56L55 62L54 62L54 63L55 63L55 62L56 62L56 63L57 63L57 65L58 65L58 66L59 66L59 67L62 67L62 68L64 68L64 66L65 66L65 65L64 65L64 66L63 66L63 65L62 65L62 66L60 66L60 64L59 64L59 63L60 63L60 59L61 59L61 60L62 60L62 59L63 59L63 57L62 57L62 56L60 56L60 55L59 55L59 57L58 57L58 59L56 59L56 56L57 56L57 55ZM2 56L2 57L3 57L3 56ZM50 56L50 58L49 58L49 59L50 59L50 58L51 58L51 57L52 57L52 56ZM68 56L68 58L67 58L67 59L68 59L68 58L69 58L69 56ZM12 57L12 58L13 58L13 57ZM59 57L59 58L61 58L61 59L62 59L62 57ZM31 59L31 60L29 60L29 61L31 61L31 60L32 60L32 59ZM3 60L3 61L5 61L5 60ZM6 60L6 61L7 61L7 60ZM45 60L45 61L46 61L46 62L47 62L47 61L46 61L46 60ZM56 60L56 62L57 62L57 61L58 61L58 60ZM33 61L33 64L36 64L36 61ZM38 61L38 62L39 62L39 61ZM61 61L61 64L64 64L64 61ZM34 62L34 63L35 63L35 62ZM62 62L62 63L63 63L63 62ZM8 63L8 65L9 65L9 63ZM19 63L19 64L20 64L20 63ZM31 64L31 65L32 65L32 66L33 66L33 65L32 65L32 64ZM58 64L58 65L59 65L59 64ZM34 65L34 66L35 66L35 65ZM25 66L25 67L27 67L27 66ZM62 66L62 67L63 67L63 66ZM8 67L8 69L9 69L9 67ZM29 67L29 69L31 69L31 68L30 68L30 67ZM36 68L36 69L37 69L37 68ZM68 68L68 69L69 69L69 68ZM0 0L0 7L7 7L7 0ZM1 1L1 6L6 6L6 1ZM2 2L2 5L5 5L5 2ZM62 0L62 7L69 7L69 0ZM63 1L63 6L68 6L68 1ZM64 2L64 5L67 5L67 2ZM0 62L0 69L7 69L7 62ZM1 63L1 68L6 68L6 63ZM2 64L2 67L5 67L5 64Z" fill="#000000"/></g></g></svg>
