<?xml version="1.0" encoding="UTF-8"?>
<svg xmlns="http://www.w3.org/2000/svg" version="1.1" width="300" height="300" viewBox="0 0 300 300"><rect x="0" y="0" width="300" height="300" fill="#ffffff"/><g transform="scale(4.348)"><g transform="translate(0,0)"><path fill-rule="evenodd" d="M8 0L8 4L10 4L10 5L8 5L8 7L9 7L9 6L10 6L10 7L11 7L11 4L10 4L10 3L14 3L14 4L13 4L13 5L14 5L14 4L15 4L15 3L16 3L16 5L17 5L17 3L18 3L18 2L17 2L17 3L16 3L16 2L15 2L15 0L12 0L12 1L13 1L13 2L10 2L10 3L9 3L9 0ZM10 0L10 1L11 1L11 0ZM17 0L17 1L20 1L20 2L21 2L21 0ZM22 0L22 1L24 1L24 5L25 5L25 6L24 6L24 7L25 7L25 6L26 6L26 7L27 7L27 8L26 8L26 9L25 9L25 8L24 8L24 9L23 9L23 10L22 10L22 9L21 9L21 6L20 6L20 5L23 5L23 2L22 2L22 3L20 3L20 5L18 5L18 7L19 7L19 8L17 8L17 6L16 6L16 7L15 7L15 6L14 6L14 7L13 7L13 6L12 6L12 8L11 8L11 9L10 9L10 8L9 8L9 9L10 9L10 11L9 11L9 14L12 14L12 15L11 15L11 18L9 18L9 17L8 17L8 15L7 15L7 14L8 14L8 13L7 13L7 12L8 12L8 9L7 9L7 8L4 8L4 10L6 10L6 11L7 11L7 12L4 12L4 11L3 11L3 9L2 9L2 8L0 8L0 11L2 11L2 12L4 12L4 13L2 13L2 14L0 14L0 18L1 18L1 20L0 20L0 21L1 21L1 22L0 22L0 24L1 24L1 23L2 23L2 24L3 24L3 23L2 23L2 21L1 21L1 20L3 20L3 21L4 21L4 19L9 19L9 20L8 20L8 21L7 21L7 20L6 20L6 21L5 21L5 22L4 22L4 24L5 24L5 23L7 23L7 22L8 22L8 21L9 21L9 20L10 20L10 21L11 21L11 22L12 22L12 23L11 23L11 24L10 24L10 25L11 25L11 26L13 26L13 29L14 29L14 30L13 30L13 31L14 31L14 32L15 32L15 31L14 31L14 30L16 30L16 28L15 28L15 27L16 27L16 26L17 26L17 27L20 27L20 28L17 28L17 31L16 31L16 33L14 33L14 34L13 34L13 36L16 36L16 37L13 37L13 38L16 38L16 39L15 39L15 41L16 41L16 40L17 40L17 42L16 42L16 43L15 43L15 42L14 42L14 39L12 39L12 37L11 37L11 38L10 38L10 39L9 39L9 34L11 34L11 35L10 35L10 36L11 36L11 35L12 35L12 34L11 34L11 32L9 32L9 30L10 30L10 31L11 31L11 30L12 30L12 29L11 29L11 28L12 28L12 27L10 27L10 26L9 26L9 23L10 23L10 22L9 22L9 23L8 23L8 25L7 25L7 24L6 24L6 25L7 25L7 26L5 26L5 27L4 27L4 26L1 26L1 25L0 25L0 27L1 27L1 28L0 28L0 32L1 32L1 33L2 33L2 35L1 35L1 34L0 34L0 35L1 35L1 36L0 36L0 38L1 38L1 36L2 36L2 38L3 38L3 39L4 39L4 41L2 41L2 39L1 39L1 40L0 40L0 42L1 42L1 41L2 41L2 43L1 43L1 44L2 44L2 45L1 45L1 46L0 46L0 47L1 47L1 48L0 48L0 49L2 49L2 50L0 50L0 52L1 52L1 54L0 54L0 61L1 61L1 57L2 57L2 59L3 59L3 57L4 57L4 59L7 59L7 58L9 58L9 59L10 59L10 61L11 61L11 63L12 63L12 64L11 64L11 65L10 65L10 62L9 62L9 60L8 60L8 62L9 62L9 63L8 63L8 65L10 65L10 67L8 67L8 69L10 69L10 67L11 67L11 68L12 68L12 69L13 69L13 68L14 68L14 69L15 69L15 68L16 68L16 69L20 69L20 68L18 68L18 67L20 67L20 66L22 66L22 64L20 64L20 63L19 63L19 64L18 64L18 65L17 65L17 66L16 66L16 63L18 63L18 61L20 61L20 62L22 62L22 60L23 60L23 62L25 62L25 63L26 63L26 64L30 64L30 65L25 65L25 64L24 64L24 65L23 65L23 66L27 66L27 67L28 67L28 66L30 66L30 65L31 65L31 67L30 67L30 68L29 68L29 69L31 69L31 68L32 68L32 69L33 69L33 68L34 68L34 69L35 69L35 67L33 67L33 66L32 66L32 65L35 65L35 66L36 66L36 65L37 65L37 67L39 67L39 66L40 66L40 63L41 63L41 67L40 67L40 68L38 68L38 69L40 69L40 68L41 68L41 69L43 69L43 63L42 63L42 62L44 62L44 69L46 69L46 67L45 67L45 63L46 63L46 64L47 64L47 67L48 67L48 68L47 68L47 69L49 69L49 67L48 67L48 66L49 66L49 64L48 64L48 63L49 63L49 60L50 60L50 59L51 59L51 58L52 58L52 55L51 55L51 54L52 54L52 51L53 51L53 50L55 50L55 51L56 51L56 53L53 53L53 58L54 58L54 59L55 59L55 58L58 58L58 60L56 60L56 61L55 61L55 60L53 60L53 59L52 59L52 60L51 60L51 61L50 61L50 62L51 62L51 61L52 61L52 62L53 62L53 63L52 63L52 64L51 64L51 65L50 65L50 69L52 69L52 68L53 68L53 69L55 69L55 68L56 68L56 69L57 69L57 68L56 68L56 66L58 66L58 65L60 65L60 66L61 66L61 65L62 65L62 67L61 67L61 68L60 68L60 67L58 67L58 68L59 68L59 69L62 69L62 67L67 67L67 66L69 66L69 63L68 63L68 61L66 61L66 60L64 60L64 55L67 55L67 56L68 56L68 57L67 57L67 60L68 60L68 57L69 57L69 56L68 56L68 54L67 54L67 53L69 53L69 52L68 52L68 50L67 50L67 53L66 53L66 50L64 50L64 49L65 49L65 47L66 47L66 46L67 46L67 45L69 45L69 43L68 43L68 41L69 41L69 39L68 39L68 38L69 38L69 35L68 35L68 30L69 30L69 29L67 29L67 30L65 30L65 29L64 29L64 28L65 28L65 27L68 27L68 28L69 28L69 27L68 27L68 26L66 26L66 25L67 25L67 24L69 24L69 23L68 23L68 22L69 22L69 20L68 20L68 18L66 18L66 17L68 17L68 16L66 16L66 17L64 17L64 16L65 16L65 15L64 15L64 14L65 14L65 13L64 13L64 12L65 12L65 10L66 10L66 11L68 11L68 10L69 10L69 8L65 8L65 10L64 10L64 8L63 8L63 9L62 9L62 10L64 10L64 12L63 12L63 11L62 11L62 12L61 12L61 11L58 11L58 9L59 9L59 10L61 10L61 6L60 6L60 7L59 7L59 4L56 4L56 5L58 5L58 7L57 7L57 6L56 6L56 7L57 7L57 8L56 8L56 9L53 9L53 10L52 10L52 8L54 8L54 7L55 7L55 4L54 4L54 3L59 3L59 2L58 2L58 1L61 1L61 0L56 0L56 2L55 2L55 0L52 0L52 1L54 1L54 2L51 2L51 0L50 0L50 3L49 3L49 2L48 2L48 3L49 3L49 4L48 4L48 5L47 5L47 6L46 6L46 7L45 7L45 6L44 6L44 5L46 5L46 4L47 4L47 2L46 2L46 3L45 3L45 1L46 1L46 0L45 0L45 1L44 1L44 0L41 0L41 1L40 1L40 0L35 0L35 1L33 1L33 0L32 0L32 1L31 1L31 3L32 3L32 2L34 2L34 4L32 4L32 5L31 5L31 4L29 4L29 3L27 3L27 5L26 5L26 3L25 3L25 1L26 1L26 2L27 2L27 1L28 1L28 2L30 2L30 0ZM47 0L47 1L48 1L48 0ZM37 1L37 2L35 2L35 4L37 4L37 3L38 3L38 4L39 4L39 7L40 7L40 10L39 10L39 11L41 11L41 14L40 14L40 13L39 13L39 14L38 14L38 9L37 9L37 12L36 12L36 13L37 13L37 14L35 14L35 13L33 13L33 15L32 15L32 14L31 14L31 15L32 15L32 18L33 18L33 19L32 19L32 20L31 20L31 21L28 21L28 20L27 20L27 21L28 21L28 23L26 23L26 24L25 24L25 23L24 23L24 22L23 22L23 20L25 20L25 21L26 21L26 19L23 19L23 20L22 20L22 19L21 19L21 20L22 20L22 22L21 22L21 23L22 23L22 24L23 24L23 23L24 23L24 24L25 24L25 26L24 26L24 25L21 25L21 24L20 24L20 21L18 21L18 22L19 22L19 25L17 25L17 20L16 20L16 24L15 24L15 23L14 23L14 22L13 22L13 21L12 21L12 19L13 19L13 20L14 20L14 21L15 21L15 20L14 20L14 19L18 19L18 20L19 20L19 19L20 19L20 18L22 18L22 17L25 17L25 18L26 18L26 17L25 17L25 15L26 15L26 16L27 16L27 13L25 13L25 15L24 15L24 14L23 14L23 15L21 15L21 14L22 14L22 13L23 13L23 12L24 12L24 11L22 11L22 13L21 13L21 14L20 14L20 13L19 13L19 14L20 14L20 15L19 15L19 16L18 16L18 17L17 17L17 18L16 18L16 17L14 17L14 15L12 15L12 19L11 19L11 21L12 21L12 22L13 22L13 23L12 23L12 25L13 25L13 26L14 26L14 27L15 27L15 26L14 26L14 24L15 24L15 25L17 25L17 26L20 26L20 27L21 27L21 28L20 28L20 29L18 29L18 31L17 31L17 33L16 33L16 35L17 35L17 36L20 36L20 37L19 37L19 38L17 38L17 37L16 37L16 38L17 38L17 39L18 39L18 40L20 40L20 37L21 37L21 36L22 36L22 38L23 38L23 36L22 36L22 35L24 35L24 34L23 34L23 33L24 33L24 31L25 31L25 33L29 33L29 32L31 32L31 34L32 34L32 32L36 32L36 31L37 31L37 30L34 30L34 31L33 31L33 29L36 29L36 28L37 28L37 29L40 29L40 30L42 30L42 28L43 28L43 29L44 29L44 27L43 27L43 26L41 26L41 25L42 25L42 24L43 24L43 25L44 25L44 24L45 24L45 23L44 23L44 20L46 20L46 19L47 19L47 17L46 17L46 16L47 16L47 15L46 15L46 14L47 14L47 13L46 13L46 12L47 12L47 11L46 11L46 10L47 10L47 8L49 8L49 9L50 9L50 8L52 8L52 5L53 5L53 4L52 4L52 3L50 3L50 4L52 4L52 5L48 5L48 6L47 6L47 8L45 8L45 7L44 7L44 6L43 6L43 8L41 8L41 7L42 7L42 5L41 5L41 7L40 7L40 1ZM41 1L41 2L42 2L42 1ZM14 2L14 3L15 3L15 2ZM43 2L43 3L41 3L41 4L43 4L43 5L44 5L44 4L45 4L45 3L44 3L44 2ZM43 3L43 4L44 4L44 3ZM60 3L60 5L61 5L61 3ZM28 4L28 5L27 5L27 7L28 7L28 8L29 8L29 7L30 7L30 6L31 6L31 8L30 8L30 9L28 9L28 15L29 15L29 14L30 14L30 13L29 13L29 11L30 11L30 9L32 9L32 11L31 11L31 13L32 13L32 12L34 12L34 10L35 10L35 11L36 11L36 9L34 9L34 10L33 10L33 9L32 9L32 6L31 6L31 5L30 5L30 6L29 6L29 7L28 7L28 5L29 5L29 4ZM33 5L33 8L36 8L36 5ZM37 5L37 7L38 7L38 5ZM19 6L19 7L20 7L20 6ZM22 6L22 8L23 8L23 6ZM34 6L34 7L35 7L35 6ZM48 6L48 7L49 7L49 8L50 8L50 7L51 7L51 6L50 6L50 7L49 7L49 6ZM53 6L53 7L54 7L54 6ZM14 8L14 9L17 9L17 10L20 10L20 8L19 8L19 9L17 9L17 8ZM44 8L44 9L45 9L45 10L46 10L46 9L45 9L45 8ZM57 8L57 9L58 9L58 8ZM1 9L1 10L2 10L2 9ZM6 9L6 10L7 10L7 9ZM12 9L12 14L15 14L15 16L16 16L16 15L18 15L18 14L17 14L17 13L16 13L16 12L19 12L19 11L16 11L16 10L15 10L15 11L13 11L13 9ZM24 9L24 10L25 10L25 9ZM41 9L41 10L42 10L42 12L44 12L44 13L45 13L45 14L46 14L46 13L45 13L45 12L46 12L46 11L43 11L43 9ZM67 9L67 10L68 10L68 9ZM26 10L26 12L27 12L27 10ZM53 10L53 11L54 11L54 12L52 12L52 13L51 13L51 12L49 12L49 15L50 15L50 17L49 17L49 18L48 18L48 19L49 19L49 22L47 22L47 21L46 21L46 22L47 22L47 25L46 25L46 26L47 26L47 25L48 25L48 27L49 27L49 26L50 26L50 25L48 25L48 23L49 23L49 22L50 22L50 24L51 24L51 23L52 23L52 26L51 26L51 27L50 27L50 28L49 28L49 29L48 29L48 30L47 30L47 29L46 29L46 28L47 28L47 27L46 27L46 28L45 28L45 30L44 30L44 31L40 31L40 33L44 33L44 34L43 34L43 35L41 35L41 34L39 34L39 35L38 35L38 32L37 32L37 37L36 37L36 38L35 38L35 37L32 37L32 35L31 35L31 40L30 40L30 41L29 41L29 39L30 39L30 38L29 38L29 36L30 36L30 35L29 35L29 34L28 34L28 35L27 35L27 37L25 37L25 38L26 38L26 40L28 40L28 42L27 42L27 41L24 41L24 40L22 40L22 39L21 39L21 41L22 41L22 42L20 42L20 41L19 41L19 44L20 44L20 45L17 45L17 44L16 44L16 46L14 46L14 45L15 45L15 44L14 44L14 42L13 42L13 45L12 45L12 44L11 44L11 43L12 43L12 42L11 42L11 41L10 41L10 40L12 40L12 39L10 39L10 40L9 40L9 39L8 39L8 37L6 37L6 38L7 38L7 39L6 39L6 40L7 40L7 41L6 41L6 42L5 42L5 41L4 41L4 42L3 42L3 43L2 43L2 44L3 44L3 43L5 43L5 46L4 46L4 45L3 45L3 48L2 48L2 49L3 49L3 50L4 50L4 47L6 47L6 48L7 48L7 47L9 47L9 48L8 48L8 49L9 49L9 50L7 50L7 49L5 49L5 50L7 50L7 51L5 51L5 55L4 55L4 54L3 54L3 55L4 55L4 57L6 57L6 58L7 58L7 57L6 57L6 56L7 56L7 55L6 55L6 54L9 54L9 55L11 55L11 56L10 56L10 57L9 57L9 56L8 56L8 57L9 57L9 58L10 58L10 59L11 59L11 60L14 60L14 61L15 61L15 60L16 60L16 62L15 62L15 63L14 63L14 62L13 62L13 61L12 61L12 62L13 62L13 63L14 63L14 64L15 64L15 63L16 63L16 62L17 62L17 60L18 60L18 59L19 59L19 60L20 60L20 61L21 61L21 60L22 60L22 59L24 59L24 61L26 61L26 60L27 60L27 59L26 59L26 60L25 60L25 58L27 58L27 57L25 57L25 58L24 58L24 57L21 57L21 58L20 58L20 56L19 56L19 55L22 55L22 56L23 56L23 54L22 54L22 53L24 53L24 51L28 51L28 50L30 50L30 49L29 49L29 48L28 48L28 47L29 47L29 45L30 45L30 46L31 46L31 47L30 47L30 48L32 48L32 49L31 49L31 52L32 52L32 54L30 54L30 55L29 55L29 53L28 53L28 52L27 52L27 53L28 53L28 55L26 55L26 52L25 52L25 54L24 54L24 55L25 55L25 56L28 56L28 58L29 58L29 57L30 57L30 56L32 56L32 58L30 58L30 59L29 59L29 60L28 60L28 63L30 63L30 62L31 62L31 63L32 63L32 62L31 62L31 61L32 61L32 60L31 60L31 61L29 61L29 60L30 60L30 59L32 59L32 58L35 58L35 59L33 59L33 60L35 60L35 59L36 59L36 60L37 60L37 62L38 62L38 63L37 63L37 65L39 65L39 63L40 63L40 62L41 62L41 60L39 60L39 62L38 62L38 60L37 60L37 59L36 59L36 57L35 57L35 55L36 55L36 56L37 56L37 55L38 55L38 57L37 57L37 58L38 58L38 59L39 59L39 58L40 58L40 59L41 59L41 58L40 58L40 57L41 57L41 56L42 56L42 57L44 57L44 54L45 54L45 53L46 53L46 54L49 54L49 53L51 53L51 52L50 52L50 51L49 51L49 53L46 53L46 52L47 52L47 51L46 51L46 50L47 50L47 48L48 48L48 47L47 47L47 48L45 48L45 46L44 46L44 48L43 48L43 49L44 49L44 50L45 50L45 53L44 53L44 51L43 51L43 50L42 50L42 51L41 51L41 49L42 49L42 45L41 45L41 46L40 46L40 45L39 45L39 47L41 47L41 48L40 48L40 51L39 51L39 52L38 52L38 53L37 53L37 55L36 55L36 54L35 54L35 52L37 52L37 51L38 51L38 49L39 49L39 48L38 48L38 43L41 43L41 44L43 44L43 45L44 45L44 44L45 44L45 43L47 43L47 44L48 44L48 42L47 42L47 39L50 39L50 40L49 40L49 46L50 46L50 44L51 44L51 43L52 43L52 46L51 46L51 47L49 47L49 48L50 48L50 49L49 49L49 50L50 50L50 49L51 49L51 48L52 48L52 49L55 49L55 50L56 50L56 51L57 51L57 53L56 53L56 54L55 54L55 55L54 55L54 56L55 56L55 57L56 57L56 56L58 56L58 58L59 58L59 57L60 57L60 55L61 55L61 57L63 57L63 55L64 55L64 54L65 54L65 52L64 52L64 51L63 51L63 49L60 49L60 48L58 48L58 47L57 47L57 48L58 48L58 50L56 50L56 49L55 49L55 48L54 48L54 47L55 47L55 46L53 46L53 45L54 45L54 44L55 44L55 45L56 45L56 46L57 46L57 45L56 45L56 44L58 44L58 43L56 43L56 42L57 42L57 41L58 41L58 42L59 42L59 43L61 43L61 44L59 44L59 45L58 45L58 46L60 46L60 47L61 47L61 46L62 46L62 48L63 48L63 47L64 47L64 46L66 46L66 44L67 44L67 41L68 41L68 40L67 40L67 39L66 39L66 37L68 37L68 35L67 35L67 31L65 31L65 30L64 30L64 29L63 29L63 28L64 28L64 26L65 26L65 24L67 24L67 23L66 23L66 22L65 22L65 20L67 20L67 21L68 21L68 20L67 20L67 19L65 19L65 20L64 20L64 17L63 17L63 19L62 19L62 13L63 13L63 14L64 14L64 13L63 13L63 12L62 12L62 13L61 13L61 12L60 12L60 13L58 13L58 12L57 12L57 13L58 13L58 14L59 14L59 16L57 16L57 15L56 15L56 12L55 12L55 10ZM10 11L10 12L11 12L11 11ZM15 11L15 12L16 12L16 11ZM20 11L20 12L21 12L21 11ZM54 12L54 13L53 13L53 14L54 14L54 15L55 15L55 16L53 16L53 15L52 15L52 16L51 16L51 17L50 17L50 18L51 18L51 19L53 19L53 22L52 22L52 20L51 20L51 21L50 21L50 22L52 22L52 23L53 23L53 25L54 25L54 27L53 27L53 26L52 26L52 27L51 27L51 29L50 29L50 30L49 30L49 31L44 31L44 33L45 33L45 34L44 34L44 37L45 37L45 38L43 38L43 37L42 37L42 36L41 36L41 35L39 35L39 36L38 36L38 37L37 37L37 39L38 39L38 42L37 42L37 40L35 40L35 39L34 39L34 38L32 38L32 39L33 39L33 40L35 40L35 41L33 41L33 42L32 42L32 43L31 43L31 44L30 44L30 45L31 45L31 46L32 46L32 47L33 47L33 48L34 48L34 47L33 47L33 45L34 45L34 46L35 46L35 47L36 47L36 48L37 48L37 49L38 49L38 48L37 48L37 47L36 47L36 46L37 46L37 44L36 44L36 43L38 43L38 42L43 42L43 39L45 39L45 40L44 40L44 43L45 43L45 42L46 42L46 37L47 37L47 38L49 38L49 36L50 36L50 35L49 35L49 34L46 34L46 33L50 33L50 34L51 34L51 33L52 33L52 35L51 35L51 37L50 37L50 39L52 39L52 38L55 38L55 37L54 37L54 36L53 36L53 35L54 35L54 34L55 34L55 36L56 36L56 41L55 41L55 40L54 40L54 39L53 39L53 40L54 40L54 41L53 41L53 42L56 42L56 41L57 41L57 38L58 38L58 41L59 41L59 40L60 40L60 41L62 41L62 42L61 42L61 43L62 43L62 44L61 44L61 45L60 45L60 46L61 46L61 45L63 45L63 46L64 46L64 45L65 45L65 43L64 43L64 41L67 41L67 40L64 40L64 39L65 39L65 38L64 38L64 39L62 39L62 37L65 37L65 35L66 35L66 34L65 34L65 33L66 33L66 32L63 32L63 31L64 31L64 30L63 30L63 29L62 29L62 28L63 28L63 25L64 25L64 24L65 24L65 23L64 23L64 20L63 20L63 21L62 21L62 20L61 20L61 21L59 21L59 19L61 19L61 17L59 17L59 18L58 18L58 17L57 17L57 16L56 16L56 15L55 15L55 12ZM66 12L66 13L67 13L67 15L68 15L68 14L69 14L69 12ZM4 13L4 14L3 14L3 15L2 15L2 16L1 16L1 18L2 18L2 16L3 16L3 15L6 15L6 16L7 16L7 15L6 15L6 14L7 14L7 13L6 13L6 14L5 14L5 13ZM42 13L42 15L39 15L39 16L38 16L38 14L37 14L37 16L36 16L36 15L35 15L35 14L34 14L34 15L33 15L33 18L34 18L34 24L33 24L33 25L31 25L31 24L32 24L32 23L33 23L33 22L32 22L32 21L33 21L33 20L32 20L32 21L31 21L31 24L30 24L30 25L29 25L29 26L28 26L28 25L27 25L27 24L26 24L26 26L27 26L27 28L26 28L26 27L25 27L25 28L24 28L24 27L23 27L23 26L21 26L21 25L20 25L20 26L21 26L21 27L23 27L23 29L20 29L20 30L19 30L19 31L20 31L20 30L21 30L21 32L20 32L20 33L19 33L19 32L18 32L18 33L17 33L17 34L19 34L19 35L20 35L20 34L21 34L21 35L22 35L22 30L25 30L25 31L26 31L26 32L27 32L27 30L28 30L28 32L29 32L29 31L30 31L30 29L32 29L32 28L33 28L33 27L31 27L31 28L30 28L30 29L29 29L29 28L28 28L28 27L29 27L29 26L34 26L34 24L35 24L35 27L34 27L34 28L35 28L35 27L36 27L36 26L37 26L37 28L38 28L38 27L40 27L40 28L42 28L42 27L40 27L40 24L41 24L41 23L42 23L42 22L43 22L43 19L42 19L42 20L41 20L41 21L40 21L40 20L39 20L39 19L40 19L40 16L42 16L42 17L41 17L41 18L44 18L44 19L45 19L45 15L44 15L44 17L43 17L43 13ZM50 13L50 14L51 14L51 13ZM60 13L60 14L61 14L61 13ZM4 16L4 18L3 18L3 19L4 19L4 18L7 18L7 17L5 17L5 16ZM19 16L19 17L18 17L18 18L19 18L19 17L22 17L22 16ZM28 16L28 17L27 17L27 19L28 19L28 18L29 18L29 16ZM34 16L34 18L35 18L35 16ZM37 16L37 17L36 17L36 19L39 19L39 18L38 18L38 16ZM52 16L52 17L51 17L51 18L52 18L52 17L53 17L53 16ZM55 16L55 17L56 17L56 16ZM30 18L30 19L31 19L31 18ZM53 18L53 19L55 19L55 22L53 22L53 23L55 23L55 27L56 27L56 28L53 28L53 27L52 27L52 29L51 29L51 30L50 30L50 33L51 33L51 30L52 30L52 29L56 29L56 28L57 28L57 29L58 29L58 30L56 30L56 31L57 31L57 33L58 33L58 34L56 34L56 36L57 36L57 37L58 37L58 38L59 38L59 37L60 37L60 36L59 36L59 37L58 37L58 36L57 36L57 35L58 35L58 34L59 34L59 33L58 33L58 30L59 30L59 29L58 29L58 28L59 28L59 27L60 27L60 28L62 28L62 27L60 27L60 25L61 25L61 26L62 26L62 25L63 25L63 24L64 24L64 23L63 23L63 22L62 22L62 21L61 21L61 22L59 22L59 21L57 21L57 25L56 25L56 19L58 19L58 18L56 18L56 19L55 19L55 18ZM38 20L38 21L35 21L35 24L37 24L37 23L40 23L40 21L39 21L39 20ZM6 21L6 22L7 22L7 21ZM29 22L29 23L30 23L30 22ZM61 22L61 25L62 25L62 24L63 24L63 23L62 23L62 22ZM59 24L59 25L60 25L60 24ZM37 25L37 26L38 26L38 25ZM57 25L57 26L56 26L56 27L57 27L57 26L58 26L58 27L59 27L59 26L58 26L58 25ZM7 26L7 27L6 27L6 28L7 28L7 29L6 29L6 30L3 30L3 29L5 29L5 28L4 28L4 27L3 27L3 28L2 28L2 30L1 30L1 32L3 32L3 33L4 33L4 32L5 32L5 31L6 31L6 32L7 32L7 31L6 31L6 30L8 30L8 28L9 28L9 29L10 29L10 27L8 27L8 26ZM7 27L7 28L8 28L8 27ZM14 28L14 29L15 29L15 28ZM25 28L25 30L26 30L26 28ZM28 29L28 30L29 30L29 29ZM61 29L61 30L60 30L60 31L59 31L59 32L61 32L61 31L62 31L62 29ZM2 30L2 31L3 31L3 32L4 32L4 31L3 31L3 30ZM31 30L31 32L32 32L32 30ZM53 30L53 31L55 31L55 30ZM12 32L12 33L13 33L13 32ZM52 32L52 33L55 33L55 32ZM5 33L5 36L8 36L8 33ZM33 33L33 36L36 36L36 33ZM61 33L61 36L64 36L64 33ZM3 34L3 35L2 35L2 36L3 36L3 38L5 38L5 37L4 37L4 34ZM6 34L6 35L7 35L7 34ZM25 34L25 36L26 36L26 34ZM34 34L34 35L35 35L35 34ZM45 34L45 37L46 37L46 34ZM62 34L62 35L63 35L63 34ZM48 35L48 36L49 36L49 35ZM40 36L40 37L41 37L41 36ZM52 36L52 37L51 37L51 38L52 38L52 37L53 37L53 36ZM27 37L27 38L28 38L28 39L29 39L29 38L28 38L28 37ZM38 38L38 39L40 39L40 41L41 41L41 39L42 39L42 38L41 38L41 39L40 39L40 38ZM7 39L7 40L8 40L8 41L7 41L7 42L6 42L6 43L7 43L7 44L6 44L6 45L9 45L9 47L11 47L11 46L10 46L10 45L9 45L9 44L10 44L10 43L11 43L11 42L9 42L9 44L8 44L8 41L9 41L9 40L8 40L8 39ZM61 39L61 40L62 40L62 39ZM31 40L31 41L30 41L30 42L31 42L31 41L32 41L32 40ZM51 40L51 41L50 41L50 42L51 42L51 41L52 41L52 40ZM63 40L63 41L64 41L64 40ZM23 41L23 42L22 42L22 43L20 43L20 44L21 44L21 45L20 45L20 46L21 46L21 47L20 47L20 48L19 48L19 46L18 46L18 47L17 47L17 46L16 46L16 47L15 47L15 48L14 48L14 49L15 49L15 51L14 51L14 50L13 50L13 47L12 47L12 52L9 52L9 51L8 51L8 52L6 52L6 53L8 53L8 52L9 52L9 53L12 53L12 52L15 52L15 53L19 53L19 52L20 52L20 54L21 54L21 53L22 53L22 52L23 52L23 50L25 50L25 49L26 49L26 50L27 50L27 49L28 49L28 48L26 48L26 47L24 47L24 46L26 46L26 45L27 45L27 46L28 46L28 44L29 44L29 42L28 42L28 43L27 43L27 42L26 42L26 45L25 45L25 42L24 42L24 41ZM35 41L35 43L34 43L34 42L33 42L33 43L32 43L32 45L33 45L33 44L34 44L34 45L35 45L35 46L36 46L36 45L35 45L35 43L36 43L36 41ZM62 42L62 43L63 43L63 42ZM23 43L23 44L22 44L22 46L23 46L23 45L24 45L24 43ZM55 43L55 44L56 44L56 43ZM63 44L63 45L64 45L64 44ZM46 45L46 46L47 46L47 45ZM1 46L1 47L2 47L2 46ZM6 46L6 47L7 47L7 46ZM52 46L52 48L53 48L53 46ZM16 47L16 50L17 50L17 51L16 51L16 52L19 52L19 51L20 51L20 50L21 50L21 51L22 51L22 49L25 49L25 48L23 48L23 47L22 47L22 49L19 49L19 48L18 48L18 49L17 49L17 47ZM67 47L67 49L68 49L68 48L69 48L69 47ZM9 48L9 49L10 49L10 51L11 51L11 48ZM44 48L44 49L45 49L45 50L46 50L46 49L45 49L45 48ZM18 49L18 50L19 50L19 49ZM33 49L33 50L32 50L32 52L33 52L33 51L34 51L34 52L35 52L35 51L36 51L36 49ZM59 49L59 50L58 50L58 52L61 52L61 55L62 55L62 54L64 54L64 53L62 53L62 52L63 52L63 51L61 51L61 50L60 50L60 49ZM51 50L51 51L52 51L52 50ZM59 50L59 51L60 51L60 50ZM40 51L40 52L39 52L39 54L40 54L40 55L39 55L39 57L38 57L38 58L39 58L39 57L40 57L40 55L43 55L43 54L44 54L44 53L43 53L43 52L42 52L42 53L41 53L41 54L40 54L40 52L41 52L41 51ZM2 52L2 53L3 53L3 52ZM13 53L13 54L12 54L12 57L13 57L13 58L14 58L14 60L15 60L15 59L16 59L16 58L19 58L19 59L20 59L20 60L21 60L21 59L22 59L22 58L21 58L21 59L20 59L20 58L19 58L19 56L17 56L17 55L14 55L14 53ZM33 53L33 55L32 55L32 56L33 56L33 57L34 57L34 55L35 55L35 54L34 54L34 53ZM57 53L57 54L56 54L56 55L55 55L55 56L56 56L56 55L57 55L57 54L58 54L58 56L59 56L59 54L58 54L58 53ZM1 54L1 55L2 55L2 54ZM5 55L5 56L6 56L6 55ZM28 55L28 56L29 56L29 55ZM13 56L13 57L14 57L14 58L15 58L15 57L17 57L17 56ZM46 57L46 58L47 58L47 59L45 59L45 58L42 58L42 61L44 61L44 62L45 62L45 61L46 61L46 62L47 62L47 61L46 61L46 60L47 60L47 59L49 59L49 58L48 58L48 57ZM65 57L65 58L66 58L66 57ZM11 58L11 59L12 59L12 58ZM60 58L60 59L59 59L59 60L58 60L58 61L57 61L57 62L54 62L54 63L55 63L55 64L52 64L52 65L55 65L55 66L56 66L56 64L57 64L57 65L58 65L58 63L59 63L59 64L60 64L60 63L59 63L59 61L60 61L60 59L61 59L61 58ZM62 58L62 60L63 60L63 58ZM43 59L43 60L44 60L44 61L45 61L45 60L44 60L44 59ZM3 60L3 61L5 61L5 60ZM6 60L6 61L7 61L7 60ZM52 60L52 61L53 61L53 60ZM33 61L33 64L36 64L36 61ZM61 61L61 64L64 64L64 61ZM34 62L34 63L35 63L35 62ZM62 62L62 63L63 63L63 62ZM66 62L66 63L65 63L65 65L67 65L67 62ZM19 64L19 65L20 65L20 64ZM31 64L31 65L32 65L32 64ZM12 65L12 66L11 66L11 67L12 67L12 66L14 66L14 67L16 67L16 66L15 66L15 65ZM17 66L17 67L18 67L18 66ZM51 66L51 67L52 67L52 66ZM21 67L21 69L22 69L22 68L23 68L23 69L25 69L25 68L26 68L26 69L28 69L28 68L26 68L26 67L25 67L25 68L24 68L24 67ZM32 67L32 68L33 68L33 67ZM41 67L41 68L42 68L42 67ZM53 67L53 68L54 68L54 67ZM36 68L36 69L37 69L37 68ZM64 68L64 69L65 69L65 68ZM68 68L68 69L69 69L69 68ZM0 0L0 7L7 7L7 0ZM1 1L1 6L6 6L6 1ZM2 2L2 5L5 5L5 2ZM62 0L62 7L69 7L69 0ZM63 1L63 6L68 6L68 1ZM64 2L64 5L67 5L67 2ZM0 62L0 69L7 69L7 62ZM1 63L1 68L6 68L6 63ZM2 64L2 67L5 67L5 64Z" fill="#000000"/></g></g></svg>
