<?xml version="1.0" encoding="UTF-8"?>
<svg xmlns="http://www.w3.org/2000/svg" version="1.1" width="300" height="300" viewBox="0 0 300 300"><rect x="0" y="0" width="300" height="300" fill="#ffffff"/><g transform="scale(4.615)"><g transform="translate(0,0)"><path fill-rule="evenodd" d="M9 0L9 1L8 1L8 2L10 2L10 3L8 3L8 4L11 4L11 6L10 6L10 5L8 5L8 7L9 7L9 6L10 6L10 9L9 9L9 8L6 8L6 9L9 9L9 10L12 10L12 11L13 11L13 13L12 13L12 12L9 12L9 14L11 14L11 16L10 16L10 15L8 15L8 12L5 12L5 11L7 11L7 10L5 10L5 11L4 11L4 12L3 12L3 10L4 10L4 9L5 9L5 8L0 8L0 9L2 9L2 12L3 12L3 13L4 13L4 15L3 15L3 16L4 16L4 17L3 17L3 18L4 18L4 19L3 19L3 21L4 21L4 19L7 19L7 20L5 20L5 22L4 22L4 24L3 24L3 23L1 23L1 22L2 22L2 15L1 15L1 14L2 14L2 13L1 13L1 12L0 12L0 18L1 18L1 19L0 19L0 23L1 23L1 24L0 24L0 25L1 25L1 26L0 26L0 28L1 28L1 27L2 27L2 28L3 28L3 30L2 30L2 33L3 33L3 34L4 34L4 35L2 35L2 34L1 34L1 32L0 32L0 34L1 34L1 35L2 35L2 37L3 37L3 38L4 38L4 39L5 39L5 40L1 40L1 39L2 39L2 38L1 38L1 36L0 36L0 38L1 38L1 39L0 39L0 45L1 45L1 41L2 41L2 43L4 43L4 41L5 41L5 40L6 40L6 41L7 41L7 42L6 42L6 43L5 43L5 44L6 44L6 45L8 45L8 44L9 44L9 45L10 45L10 47L11 47L11 48L12 48L12 46L13 46L13 45L14 45L14 47L16 47L16 48L14 48L14 49L10 49L10 50L11 50L11 52L10 52L10 53L8 53L8 52L9 52L9 50L6 50L6 51L5 51L5 52L4 52L4 51L3 51L3 52L4 52L4 53L5 53L5 55L7 55L7 56L6 56L6 57L8 57L8 59L9 59L9 60L8 60L8 65L9 65L9 64L10 64L10 65L11 65L11 62L12 62L12 61L13 61L13 62L14 62L14 64L13 64L13 63L12 63L12 65L14 65L14 64L15 64L15 65L19 65L19 64L16 64L16 63L15 63L15 62L16 62L16 61L15 61L15 62L14 62L14 60L15 60L15 59L14 59L14 60L13 60L13 57L14 57L14 58L15 58L15 57L17 57L17 58L16 58L16 59L17 59L17 63L20 63L20 62L18 62L18 61L20 61L20 60L22 60L22 59L23 59L23 61L24 61L24 62L23 62L23 63L21 63L21 64L20 64L20 65L21 65L21 64L23 64L23 65L24 65L24 64L26 64L26 63L25 63L25 62L28 62L28 61L29 61L29 62L30 62L30 61L31 61L31 63L30 63L30 64L27 64L27 65L32 65L32 64L31 64L31 63L32 63L32 61L33 61L33 62L35 62L35 61L36 61L36 62L37 62L37 63L38 63L38 64L36 64L36 63L35 63L35 64L33 64L33 65L38 65L38 64L39 64L39 63L40 63L40 62L42 62L42 63L41 63L41 64L42 64L42 65L44 65L44 63L45 63L45 62L46 62L46 63L47 63L47 62L46 62L46 61L49 61L49 62L48 62L48 64L47 64L47 65L50 65L50 64L52 64L52 63L51 63L51 62L52 62L52 61L51 61L51 60L50 60L50 61L49 61L49 60L47 60L47 59L46 59L46 58L44 58L44 60L43 60L43 59L42 59L42 58L43 58L43 57L44 57L44 56L45 56L45 57L46 57L46 56L45 56L45 55L47 55L47 56L48 56L48 59L53 59L53 64L54 64L54 65L57 65L57 64L56 64L56 62L57 62L57 61L58 61L58 62L59 62L59 63L60 63L60 64L58 64L58 65L61 65L61 64L62 64L62 63L63 63L63 64L64 64L64 60L65 60L65 59L63 59L63 58L65 58L65 56L64 56L64 57L63 57L63 58L62 58L62 57L61 57L61 56L62 56L62 55L61 55L61 56L60 56L60 54L62 54L62 53L64 53L64 54L63 54L63 55L64 55L64 54L65 54L65 51L63 51L63 52L62 52L62 51L60 51L60 53L58 53L58 52L59 52L59 51L57 51L57 49L58 49L58 50L61 50L61 49L59 49L59 48L62 48L62 45L63 45L63 44L64 44L64 45L65 45L65 44L64 44L64 42L65 42L65 41L64 41L64 42L62 42L62 39L58 39L58 38L56 38L56 40L57 40L57 42L59 42L59 43L56 43L56 41L51 41L51 43L50 43L50 40L49 40L49 38L50 38L50 39L51 39L51 38L55 38L55 37L51 37L51 38L50 38L50 37L49 37L49 36L48 36L48 35L50 35L50 33L51 33L51 35L52 35L52 36L53 36L53 35L56 35L56 37L57 37L57 36L58 36L58 37L59 37L59 38L63 38L63 40L64 40L64 38L65 38L65 35L64 35L64 36L62 36L62 35L63 35L63 32L65 32L65 31L63 31L63 30L65 30L65 29L64 29L64 27L63 27L63 26L65 26L65 25L64 25L64 24L65 24L65 23L63 23L63 24L62 24L62 23L61 23L61 24L59 24L59 22L62 22L62 21L61 21L61 20L62 20L62 18L63 18L63 16L62 16L62 15L61 15L61 14L62 14L62 13L63 13L63 12L64 12L64 11L63 11L63 10L62 10L62 11L60 11L60 12L56 12L56 11L55 11L55 10L56 10L56 9L55 9L55 8L54 8L54 7L55 7L55 5L54 5L54 4L56 4L56 5L57 5L57 4L56 4L56 3L57 3L57 1L56 1L56 0L55 0L55 1L56 1L56 3L55 3L55 2L54 2L54 1L53 1L53 2L54 2L54 3L53 3L53 6L52 6L52 5L51 5L51 6L50 6L50 7L49 7L49 5L50 5L50 0L48 0L48 1L45 1L45 2L44 2L44 1L43 1L43 0L39 0L39 1L38 1L38 0L37 0L37 1L36 1L36 0L35 0L35 2L34 2L34 1L33 1L33 0L32 0L32 1L33 1L33 4L32 4L32 3L31 3L31 2L30 2L30 3L29 3L29 2L27 2L27 3L28 3L28 4L27 4L27 6L26 6L26 8L24 8L24 7L25 7L25 6L24 6L24 7L23 7L23 6L22 6L22 5L20 5L20 3L21 3L21 4L22 4L22 3L21 3L21 2L22 2L22 1L23 1L23 5L26 5L26 4L24 4L24 3L26 3L26 2L25 2L25 1L27 1L27 0L24 0L24 1L23 1L23 0L22 0L22 1L21 1L21 2L20 2L20 1L18 1L18 0L17 0L17 1L16 1L16 0L13 0L13 1L12 1L12 0ZM29 0L29 1L31 1L31 0ZM51 0L51 1L52 1L52 0ZM10 1L10 2L12 2L12 1ZM15 1L15 7L16 7L16 6L17 6L17 8L19 8L19 9L17 9L17 10L15 10L15 11L14 11L14 12L15 12L15 13L13 13L13 14L12 14L12 13L11 13L11 14L12 14L12 16L13 16L13 15L15 15L15 16L14 16L14 17L11 17L11 18L10 18L10 17L9 17L9 16L8 16L8 15L6 15L6 14L7 14L7 13L6 13L6 14L5 14L5 15L6 15L6 16L8 16L8 18L7 18L7 17L4 17L4 18L7 18L7 19L8 19L8 21L6 21L6 22L8 22L8 23L9 23L9 24L7 24L7 23L6 23L6 24L4 24L4 26L2 26L2 27L3 27L3 28L4 28L4 30L3 30L3 31L4 31L4 30L7 30L7 29L8 29L8 30L11 30L11 29L9 29L9 28L8 28L8 27L6 27L6 28L7 28L7 29L5 29L5 28L4 28L4 26L7 26L7 25L8 25L8 26L9 26L9 24L10 24L10 28L14 28L14 25L11 25L11 23L9 23L9 22L8 22L8 21L9 21L9 20L10 20L10 21L11 21L11 20L12 20L12 19L11 19L11 18L14 18L14 17L16 17L16 15L15 15L15 14L16 14L16 13L17 13L17 14L18 14L18 13L17 13L17 12L18 12L18 10L19 10L19 11L20 11L20 10L22 10L22 11L21 11L21 12L19 12L19 13L24 13L24 14L22 14L22 15L21 15L21 16L20 16L20 18L18 18L18 17L17 17L17 18L16 18L16 19L13 19L13 20L14 20L14 21L15 21L15 22L16 22L16 21L17 21L17 22L18 22L18 21L20 21L20 23L19 23L19 25L17 25L17 24L18 24L18 23L17 23L17 24L16 24L16 23L15 23L15 24L16 24L16 25L15 25L15 29L16 29L16 30L15 30L15 31L14 31L14 29L13 29L13 30L12 30L12 32L11 32L11 33L9 33L9 34L10 34L10 36L9 36L9 37L8 37L8 36L7 36L7 35L4 35L4 36L3 36L3 37L4 37L4 36L5 36L5 37L6 37L6 38L7 38L7 39L6 39L6 40L7 40L7 41L8 41L8 40L7 40L7 39L9 39L9 38L10 38L10 39L11 39L11 40L10 40L10 42L9 42L9 43L10 43L10 42L11 42L11 41L12 41L12 42L13 42L13 44L14 44L14 45L15 45L15 46L16 46L16 45L17 45L17 46L19 46L19 47L20 47L20 46L19 46L19 45L21 45L21 47L22 47L22 48L19 48L19 49L20 49L20 50L21 50L21 51L22 51L22 50L23 50L23 47L24 47L24 48L25 48L25 45L27 45L27 47L26 47L26 50L28 50L28 51L29 51L29 52L30 52L30 53L25 53L25 54L26 54L26 56L25 56L25 55L24 55L24 54L23 54L23 53L24 53L24 51L23 51L23 53L22 53L22 52L20 52L20 51L19 51L19 50L18 50L18 49L17 49L17 48L18 48L18 47L17 47L17 48L16 48L16 49L15 49L15 50L14 50L14 51L13 51L13 50L12 50L12 52L11 52L11 53L10 53L10 54L8 54L8 56L9 56L9 57L10 57L10 58L9 58L9 59L10 59L10 60L9 60L9 61L10 61L10 62L9 62L9 63L10 63L10 62L11 62L11 61L12 61L12 60L11 60L11 58L12 58L12 57L13 57L13 55L14 55L14 57L15 57L15 56L17 56L17 55L19 55L19 57L18 57L18 58L17 58L17 59L18 59L18 60L20 60L20 58L21 58L21 57L22 57L22 58L23 58L23 56L25 56L25 57L27 57L27 59L26 59L26 58L25 58L25 60L26 60L26 61L28 61L28 60L29 60L29 61L30 61L30 58L29 58L29 57L30 57L30 56L31 56L31 55L28 55L28 54L30 54L30 53L31 53L31 52L32 52L32 56L35 56L35 59L36 59L36 56L38 56L38 55L41 55L41 53L42 53L42 51L41 51L41 48L43 48L43 47L44 47L44 46L46 46L46 47L48 47L48 48L50 48L50 50L49 50L49 52L51 52L51 53L46 53L46 52L48 52L48 51L47 51L47 49L45 49L45 48L44 48L44 50L43 50L43 52L44 52L44 53L43 53L43 55L45 55L45 54L48 54L48 56L49 56L49 58L52 58L52 57L54 57L54 56L53 56L53 54L51 54L51 53L53 53L53 52L54 52L54 53L56 53L56 54L55 54L55 58L53 58L53 59L56 59L56 54L57 54L57 56L59 56L59 54L57 54L57 52L56 52L56 49L57 49L57 48L56 48L56 46L55 46L55 47L53 47L53 46L51 46L51 45L53 45L53 43L55 43L55 45L56 45L56 43L55 43L55 42L53 42L53 43L52 43L52 44L50 44L50 43L48 43L48 44L50 44L50 47L49 47L49 46L48 46L48 45L47 45L47 44L46 44L46 45L45 45L45 42L47 42L47 40L48 40L48 39L47 39L47 40L46 40L46 39L42 39L42 40L40 40L40 39L41 39L41 36L44 36L44 37L43 37L43 38L44 38L44 37L45 37L45 38L49 38L49 37L48 37L48 36L47 36L47 37L45 37L45 36L44 36L44 33L45 33L45 35L47 35L47 32L48 32L48 29L45 29L45 27L44 27L44 25L45 25L45 26L46 26L46 28L48 28L48 27L49 27L49 28L50 28L50 30L53 30L53 31L52 31L52 32L51 32L51 33L54 33L54 32L53 32L53 31L54 31L54 30L53 30L53 29L56 29L56 30L59 30L59 28L57 28L57 29L56 29L56 28L54 28L54 27L53 27L53 25L56 25L56 26L55 26L55 27L56 27L56 26L58 26L58 27L59 27L59 26L61 26L61 27L60 27L60 28L61 28L61 30L63 30L63 29L62 29L62 28L63 28L63 27L62 27L62 24L61 24L61 25L57 25L57 23L56 23L56 22L59 22L59 21L60 21L60 20L61 20L61 19L60 19L60 20L59 20L59 21L58 21L58 19L59 19L59 18L60 18L60 17L58 17L58 16L57 16L57 15L56 15L56 14L58 14L58 15L59 15L59 16L60 16L60 15L59 15L59 14L60 14L60 13L56 13L56 14L55 14L55 15L54 15L54 16L55 16L55 17L56 17L56 18L54 18L54 17L53 17L53 14L52 14L52 16L50 16L50 15L51 15L51 13L55 13L55 11L54 11L54 10L53 10L53 9L54 9L54 8L53 8L53 7L54 7L54 6L53 6L53 7L52 7L52 6L51 6L51 7L50 7L50 8L49 8L49 7L48 7L48 6L47 6L47 8L49 8L49 9L50 9L50 10L49 10L49 11L48 11L48 10L47 10L47 9L45 9L45 8L46 8L46 5L47 5L47 3L46 3L46 2L45 2L45 3L43 3L43 2L42 2L42 1L41 1L41 2L40 2L40 3L39 3L39 4L38 4L38 3L37 3L37 2L38 2L38 1L37 1L37 2L35 2L35 3L37 3L37 4L36 4L36 6L35 6L35 8L36 8L36 6L37 6L37 8L40 8L40 9L41 9L41 8L40 8L40 5L41 5L41 7L42 7L42 6L43 6L43 7L44 7L44 10L45 10L45 12L44 12L44 11L43 11L43 12L42 12L42 10L40 10L40 11L41 11L41 12L39 12L39 9L38 9L38 10L37 10L37 9L36 9L36 11L33 11L33 12L32 12L32 10L35 10L35 9L32 9L32 10L31 10L31 9L29 9L29 8L30 8L30 6L29 6L29 5L30 5L30 4L28 4L28 6L27 6L27 8L26 8L26 9L25 9L25 11L27 11L27 10L30 10L30 11L31 11L31 12L32 12L32 13L30 13L30 12L29 12L29 11L28 11L28 13L27 13L27 12L26 12L26 14L25 14L25 13L24 13L24 12L22 12L22 11L24 11L24 10L23 10L23 8L21 8L21 7L22 7L22 6L21 6L21 7L20 7L20 5L18 5L18 6L17 6L17 5L16 5L16 1ZM17 1L17 2L18 2L18 1ZM19 2L19 3L20 3L20 2ZM41 2L41 5L43 5L43 6L44 6L44 7L45 7L45 6L44 6L44 5L43 5L43 3L42 3L42 2ZM11 3L11 4L12 4L12 3ZM17 3L17 4L18 4L18 3ZM37 4L37 6L38 6L38 7L39 7L39 6L38 6L38 4ZM39 4L39 5L40 5L40 4ZM45 4L45 5L46 5L46 4ZM13 5L13 7L14 7L14 5ZM31 5L31 8L34 8L34 5ZM11 6L11 8L12 8L12 6ZM18 6L18 7L19 7L19 8L20 8L20 7L19 7L19 6ZM28 6L28 7L29 7L29 6ZM32 6L32 7L33 7L33 6ZM56 6L56 8L57 8L57 9L58 9L58 8L57 8L57 6ZM51 7L51 8L50 8L50 9L51 9L51 8L52 8L52 7ZM13 8L13 9L16 9L16 8ZM27 8L27 9L26 9L26 10L27 10L27 9L28 9L28 8ZM59 8L59 10L61 10L61 9L62 9L62 8L61 8L61 9L60 9L60 8ZM63 8L63 9L64 9L64 8ZM19 9L19 10L20 10L20 9ZM0 10L0 11L1 11L1 10ZM50 10L50 12L52 12L52 11L51 11L51 10ZM15 11L15 12L16 12L16 11ZM62 11L62 12L61 12L61 13L62 13L62 12L63 12L63 11ZM4 12L4 13L5 13L5 12ZM33 12L33 13L32 13L32 14L33 14L33 15L31 15L31 14L29 14L29 13L28 13L28 14L26 14L26 16L24 16L24 15L23 15L23 16L24 16L24 17L23 17L23 18L22 18L22 17L21 17L21 18L20 18L20 19L21 19L21 20L22 20L22 21L21 21L21 22L22 22L22 21L23 21L23 22L24 22L24 23L26 23L26 22L25 22L25 21L30 21L30 22L31 22L31 23L29 23L29 22L27 22L27 23L29 23L29 26L26 26L26 28L25 28L25 25L26 25L26 24L25 24L25 25L22 25L22 23L21 23L21 25L22 25L22 26L24 26L24 28L23 28L23 29L21 29L21 30L22 30L22 31L21 31L21 32L17 32L17 33L18 33L18 35L17 35L17 34L16 34L16 36L15 36L15 35L12 35L12 34L13 34L13 33L12 33L12 34L11 34L11 36L10 36L10 37L11 37L11 39L12 39L12 41L13 41L13 42L16 42L16 43L14 43L14 44L15 44L15 45L16 45L16 43L18 43L18 44L17 44L17 45L19 45L19 43L22 43L22 44L24 44L24 45L22 45L22 46L24 46L24 45L25 45L25 44L27 44L27 45L28 45L28 44L29 44L29 45L30 45L30 46L28 46L28 47L27 47L27 49L28 49L28 47L30 47L30 50L29 50L29 51L30 51L30 52L31 52L31 50L32 50L32 52L33 52L33 54L34 54L34 52L33 52L33 50L34 50L34 49L35 49L35 51L36 51L36 52L35 52L35 56L36 56L36 55L37 55L37 54L38 54L38 53L39 53L39 52L40 52L40 50L38 50L38 48L39 48L39 47L40 47L40 48L41 48L41 47L43 47L43 45L44 45L44 44L42 44L42 45L41 45L41 46L39 46L39 47L38 47L38 45L37 45L37 44L38 44L38 43L37 43L37 42L38 42L38 40L37 40L37 39L36 39L36 38L38 38L38 39L39 39L39 38L38 38L38 37L37 37L37 36L35 36L35 34L38 34L38 33L39 33L39 35L38 35L38 36L41 36L41 35L43 35L43 33L44 33L44 32L41 32L41 34L40 34L40 33L39 33L39 32L35 32L35 31L36 31L36 30L37 30L37 31L40 31L40 30L41 30L41 31L42 31L42 30L44 30L44 31L45 31L45 29L44 29L44 27L43 27L43 25L44 25L44 24L43 24L43 25L41 25L41 26L42 26L42 27L43 27L43 28L41 28L41 29L40 29L40 30L38 30L38 29L39 29L39 28L40 28L40 27L39 27L39 26L38 26L38 25L39 25L39 24L38 24L38 25L37 25L37 23L36 23L36 24L35 24L35 22L38 22L38 23L41 23L41 24L42 24L42 22L44 22L44 23L45 23L45 25L49 25L49 27L51 27L51 26L52 26L52 25L51 25L51 26L50 26L50 25L49 25L49 24L50 24L50 23L51 23L51 22L50 22L50 21L51 21L51 20L53 20L53 23L54 23L54 24L56 24L56 23L54 23L54 22L56 22L56 21L57 21L57 20L56 20L56 19L54 19L54 18L53 18L53 17L51 17L51 18L50 18L50 16L49 16L49 15L50 15L50 13L49 13L49 12L46 12L46 13L49 13L49 15L48 15L48 14L47 14L47 15L46 15L46 16L45 16L45 17L46 17L46 16L47 16L47 18L44 18L44 16L43 16L43 15L44 15L44 12L43 12L43 13L41 13L41 14L39 14L39 15L40 15L40 16L43 16L43 17L41 17L41 18L37 18L37 17L39 17L39 16L37 16L37 15L36 15L36 16L35 16L35 15L34 15L34 14L33 14L33 13L34 13L34 12ZM35 12L35 14L38 14L38 13L39 13L39 12ZM64 13L64 14L65 14L65 13ZM19 14L19 15L20 15L20 14ZM27 15L27 16L26 16L26 18L28 18L28 19L27 19L27 20L29 20L29 19L30 19L30 18L29 18L29 17L31 17L31 19L32 19L32 17L33 17L33 18L34 18L34 19L33 19L33 20L32 20L32 23L31 23L31 24L32 24L32 25L33 25L33 26L35 26L35 27L31 27L31 25L30 25L30 26L29 26L29 27L31 27L31 28L30 28L30 30L32 30L32 29L33 29L33 30L36 30L36 29L33 29L33 28L36 28L36 27L37 27L37 29L38 29L38 26L36 26L36 25L34 25L34 23L33 23L33 22L35 22L35 21L33 21L33 20L36 20L36 19L35 19L35 18L36 18L36 17L35 17L35 16L28 16L28 15ZM56 16L56 17L57 17L57 16ZM61 16L61 18L62 18L62 16ZM17 18L17 19L16 19L16 20L15 20L15 21L16 21L16 20L17 20L17 21L18 21L18 20L17 20L17 19L18 19L18 18ZM21 18L21 19L22 19L22 18ZM41 18L41 19L40 19L40 20L39 20L39 21L38 21L38 19L37 19L37 21L38 21L38 22L42 22L42 21L43 21L43 20L44 20L44 21L45 21L45 22L49 22L49 21L50 21L50 20L51 20L51 19L52 19L52 18L51 18L51 19L50 19L50 20L49 20L49 18L48 18L48 19L46 19L46 20L44 20L44 19L43 19L43 18ZM57 18L57 19L58 19L58 18ZM24 19L24 20L23 20L23 21L24 21L24 20L26 20L26 19ZM42 19L42 20L41 20L41 21L42 21L42 20L43 20L43 19ZM53 19L53 20L54 20L54 21L55 21L55 20L54 20L54 19ZM63 19L63 22L65 22L65 19ZM47 20L47 21L49 21L49 20ZM12 21L12 24L13 24L13 23L14 23L14 22L13 22L13 21ZM32 23L32 24L33 24L33 23ZM46 23L46 24L49 24L49 23ZM6 24L6 25L7 25L7 24ZM19 25L19 26L20 26L20 27L18 27L18 26L16 26L16 27L17 27L17 31L18 31L18 30L19 30L19 31L20 31L20 30L19 30L19 29L20 29L20 28L21 28L21 26L20 26L20 25ZM61 27L61 28L62 28L62 27ZM26 28L26 29L25 29L25 32L24 32L24 31L23 31L23 32L21 32L21 33L19 33L19 34L20 34L20 35L21 35L21 36L22 36L22 37L19 37L19 38L18 38L18 39L16 39L16 40L14 40L14 39L15 39L15 38L17 38L17 37L18 37L18 36L17 36L17 37L15 37L15 36L14 36L14 39L13 39L13 41L16 41L16 42L17 42L17 41L16 41L16 40L19 40L19 41L20 41L20 42L22 42L22 41L23 41L23 43L25 43L25 42L26 42L26 43L28 43L28 42L29 42L29 43L30 43L30 44L31 44L31 45L32 45L32 46L30 46L30 47L31 47L31 49L32 49L32 50L33 50L33 49L34 49L34 48L33 48L33 49L32 49L32 46L33 46L33 47L35 47L35 48L38 48L38 47L35 47L35 46L37 46L37 45L32 45L32 44L33 44L33 43L34 43L34 44L37 44L37 43L36 43L36 42L33 42L33 41L34 41L34 39L35 39L35 37L33 37L33 36L32 36L32 35L29 35L29 36L28 36L28 34L30 34L30 31L29 31L29 28L28 28L28 31L27 31L27 32L26 32L26 30L27 30L27 28ZM31 28L31 29L32 29L32 28ZM23 29L23 30L24 30L24 29ZM0 30L0 31L1 31L1 30ZM5 31L5 34L8 34L8 31ZM9 31L9 32L10 32L10 31ZM13 31L13 32L14 32L14 34L15 34L15 33L16 33L16 31L15 31L15 32L14 32L14 31ZM31 31L31 34L34 34L34 31ZM46 31L46 32L47 32L47 31ZM49 31L49 33L48 33L48 34L49 34L49 33L50 33L50 31ZM55 31L55 32L56 32L56 31ZM57 31L57 34L60 34L60 31ZM61 31L61 32L63 32L63 31ZM6 32L6 33L7 33L7 32ZM25 32L25 33L23 33L23 34L25 34L25 33L26 33L26 34L27 34L27 33L28 33L28 32L27 32L27 33L26 33L26 32ZM32 32L32 33L33 33L33 32ZM58 32L58 33L59 33L59 32ZM21 33L21 35L22 35L22 33ZM55 33L55 34L56 34L56 33ZM61 33L61 35L59 35L59 37L61 37L61 35L62 35L62 33ZM52 34L52 35L53 35L53 34ZM25 35L25 36L23 36L23 41L24 41L24 42L25 42L25 41L26 41L26 37L25 37L25 36L26 36L26 35ZM6 36L6 37L7 37L7 36ZM27 36L27 37L28 37L28 36ZM29 36L29 37L30 37L30 38L31 38L31 40L32 40L32 39L34 39L34 38L32 38L32 37L30 37L30 36ZM63 37L63 38L64 38L64 37ZM20 38L20 39L19 39L19 40L20 40L20 41L21 41L21 40L22 40L22 38ZM27 38L27 40L28 40L28 41L29 41L29 40L28 40L28 39L29 39L29 38ZM24 39L24 41L25 41L25 39ZM53 39L53 40L55 40L55 39ZM57 39L57 40L58 40L58 41L60 41L60 40L58 40L58 39ZM43 40L43 41L41 41L41 43L40 43L40 44L41 44L41 43L43 43L43 41L44 41L44 40ZM30 41L30 42L32 42L32 43L31 43L31 44L32 44L32 43L33 43L33 42L32 42L32 41ZM39 41L39 42L40 42L40 41ZM6 43L6 44L7 44L7 43ZM59 43L59 44L57 44L57 45L58 45L58 46L57 46L57 47L58 47L58 48L59 48L59 47L60 47L60 46L59 46L59 45L60 45L60 44L61 44L61 43ZM62 43L62 44L63 44L63 43ZM2 44L2 45L4 45L4 44ZM11 45L11 46L12 46L12 45ZM0 46L0 47L3 47L3 48L6 48L6 49L9 49L9 46L8 46L8 48L6 48L6 47L7 47L7 46ZM50 47L50 48L51 48L51 49L52 49L52 48L53 48L53 47L52 47L52 48L51 48L51 47ZM63 48L63 50L65 50L65 49L64 49L64 48ZM0 49L0 50L1 50L1 49ZM2 49L2 50L5 50L5 49ZM21 49L21 50L22 50L22 49ZM36 49L36 50L37 50L37 53L36 53L36 54L37 54L37 53L38 53L38 52L39 52L39 51L38 51L38 50L37 50L37 49ZM53 49L53 50L54 50L54 52L55 52L55 49ZM15 50L15 53L18 53L18 54L19 54L19 55L21 55L21 56L20 56L20 57L19 57L19 58L20 58L20 57L21 57L21 56L22 56L22 53L21 53L21 54L20 54L20 53L18 53L18 52L17 52L17 51L18 51L18 50ZM45 50L45 52L46 52L46 50ZM50 50L50 51L52 51L52 50ZM0 51L0 52L2 52L2 51ZM6 51L6 52L7 52L7 51ZM25 51L25 52L26 52L26 51ZM12 52L12 54L14 54L14 52ZM61 52L61 53L62 53L62 52ZM6 53L6 54L7 54L7 53ZM44 53L44 54L45 54L45 53ZM2 54L2 55L3 55L3 56L1 56L1 55L0 55L0 56L1 56L1 57L3 57L3 56L4 56L4 57L5 57L5 56L4 56L4 54ZM10 54L10 55L11 55L11 54ZM16 54L16 55L17 55L17 54ZM49 54L49 56L50 56L50 57L51 57L51 56L52 56L52 55L51 55L51 54ZM27 55L27 57L28 57L28 55ZM50 55L50 56L51 56L51 55ZM10 56L10 57L12 57L12 56ZM39 56L39 57L37 57L37 58L40 58L40 60L38 60L38 59L37 59L37 60L38 60L38 63L39 63L39 62L40 62L40 61L42 61L42 60L41 60L41 58L42 58L42 57L41 57L41 56ZM31 57L31 60L34 60L34 57ZM57 57L57 60L60 60L60 57ZM32 58L32 59L33 59L33 58ZM58 58L58 59L59 59L59 58ZM62 59L62 60L61 60L61 61L59 61L59 62L61 62L61 63L62 63L62 62L61 62L61 61L62 61L62 60L63 60L63 59ZM44 60L44 61L46 61L46 60ZM54 60L54 61L55 61L55 60ZM21 61L21 62L22 62L22 61ZM50 61L50 62L49 62L49 63L50 63L50 62L51 62L51 61ZM43 62L43 63L44 63L44 62ZM23 63L23 64L24 64L24 63ZM45 64L45 65L46 65L46 64ZM0 0L0 7L7 7L7 0ZM1 1L1 6L6 6L6 1ZM2 2L2 5L5 5L5 2ZM58 0L58 7L65 7L65 0ZM59 1L59 6L64 6L64 1ZM60 2L60 5L63 5L63 2ZM0 58L0 65L7 65L7 58ZM1 59L1 64L6 64L6 59ZM2 60L2 63L5 63L5 60Z" fill="#000000"/></g></g></svg>
