<?xml version="1.0" encoding="UTF-8"?>
<svg xmlns="http://www.w3.org/2000/svg" version="1.1" width="300" height="300" viewBox="0 0 300 300"><rect x="0" y="0" width="300" height="300" fill="#ffffff"/><g transform="scale(4.348)"><g transform="translate(0,0)"><path fill-rule="evenodd" d="M8 0L8 4L10 4L10 7L11 7L11 6L12 6L12 8L13 8L13 6L14 6L14 7L15 7L15 6L16 6L16 7L17 7L17 6L18 6L18 8L17 8L17 9L18 9L18 11L19 11L19 12L17 12L17 10L15 10L15 9L16 9L16 8L15 8L15 9L14 9L14 12L13 12L13 9L12 9L12 10L11 10L11 12L12 12L12 13L9 13L9 14L11 14L11 15L8 15L8 14L5 14L5 13L7 13L7 12L8 12L8 11L9 11L9 12L10 12L10 10L8 10L8 9L7 9L7 8L4 8L4 9L5 9L5 10L4 10L4 11L5 11L5 12L3 12L3 10L2 10L2 11L1 11L1 9L2 9L2 8L0 8L0 11L1 11L1 12L3 12L3 13L4 13L4 16L3 16L3 17L0 17L0 19L1 19L1 21L2 21L2 22L1 22L1 23L3 23L3 24L2 24L2 25L3 25L3 26L2 26L2 27L1 27L1 25L0 25L0 27L1 27L1 28L3 28L3 27L4 27L4 29L5 29L5 28L6 28L6 29L7 29L7 28L8 28L8 29L9 29L9 28L8 28L8 27L9 27L9 25L8 25L8 24L4 24L4 23L3 23L3 21L5 21L5 23L8 23L8 22L9 22L9 21L10 21L10 20L9 20L9 19L8 19L8 20L6 20L6 19L7 19L7 18L6 18L6 17L7 17L7 16L8 16L8 17L9 17L9 18L10 18L10 19L12 19L12 17L13 17L13 19L14 19L14 20L13 20L13 21L11 21L11 22L10 22L10 23L9 23L9 24L11 24L11 22L12 22L12 23L13 23L13 24L15 24L15 23L16 23L16 24L17 24L17 25L15 25L15 26L13 26L13 25L11 25L11 27L10 27L10 28L11 28L11 30L10 30L10 31L11 31L11 32L10 32L10 33L9 33L9 32L8 32L8 31L7 31L7 30L6 30L6 31L7 31L7 32L4 32L4 34L3 34L3 36L0 36L0 37L1 37L1 38L0 38L0 40L1 40L1 38L2 38L2 37L3 37L3 38L4 38L4 39L3 39L3 40L2 40L2 42L1 42L1 41L0 41L0 43L1 43L1 46L0 46L0 50L2 50L2 49L3 49L3 52L2 52L2 51L0 51L0 53L4 53L4 52L5 52L5 48L6 48L6 49L7 49L7 50L6 50L6 51L8 51L8 52L6 52L6 53L7 53L7 54L6 54L6 55L4 55L4 54L0 54L0 56L1 56L1 57L0 57L0 61L1 61L1 58L2 58L2 59L3 59L3 58L4 58L4 59L7 59L7 60L6 60L6 61L7 61L7 60L8 60L8 59L9 59L9 58L11 58L11 57L9 57L9 56L6 56L6 55L8 55L8 54L9 54L9 55L10 55L10 56L12 56L12 57L13 57L13 56L14 56L14 55L13 55L13 53L15 53L15 56L17 56L17 57L15 57L15 59L13 59L13 60L12 60L12 59L11 59L11 60L10 60L10 62L9 62L9 61L8 61L8 62L9 62L9 63L8 63L8 65L10 65L10 66L9 66L9 67L8 67L8 69L9 69L9 67L10 67L10 68L11 68L11 69L15 69L15 68L14 68L14 67L13 67L13 66L15 66L15 67L16 67L16 68L17 68L17 69L19 69L19 67L20 67L20 66L21 66L21 67L22 67L22 68L21 68L21 69L22 69L22 68L23 68L23 69L25 69L25 68L24 68L24 67L22 67L22 64L23 64L23 66L25 66L25 67L26 67L26 66L27 66L27 67L28 67L28 68L26 68L26 69L29 69L29 67L28 67L28 64L29 64L29 66L30 66L30 67L31 67L31 65L32 65L32 67L33 67L33 68L32 68L32 69L37 69L37 68L38 68L38 67L40 67L40 68L39 68L39 69L40 69L40 68L41 68L41 67L43 67L43 68L42 68L42 69L43 69L43 68L44 68L44 69L46 69L46 68L45 68L45 67L48 67L48 68L47 68L47 69L50 69L50 67L51 67L51 66L52 66L52 68L51 68L51 69L52 69L52 68L53 68L53 69L55 69L55 68L56 68L56 69L59 69L59 68L60 68L60 67L59 67L59 66L58 66L58 65L57 65L57 62L58 62L58 61L59 61L59 63L58 63L58 64L59 64L59 65L60 65L60 66L61 66L61 65L62 65L62 66L64 66L64 67L63 67L63 68L64 68L64 69L65 69L65 63L66 63L66 62L67 62L67 63L68 63L68 64L67 64L67 65L66 65L66 67L67 67L67 66L69 66L69 65L68 65L68 64L69 64L69 63L68 63L68 62L69 62L69 59L68 59L68 58L69 58L69 57L68 57L68 58L67 58L67 60L65 60L65 58L64 58L64 57L63 57L63 56L64 56L64 55L66 55L66 53L67 53L67 55L68 55L68 56L69 56L69 55L68 55L68 53L69 53L69 52L68 52L68 51L69 51L69 47L68 47L68 45L69 45L69 43L68 43L68 40L67 40L67 42L65 42L65 43L64 43L64 41L65 41L65 40L64 40L64 39L68 39L68 38L69 38L69 36L68 36L68 38L67 38L67 36L66 36L66 37L65 37L65 33L66 33L66 35L68 35L68 32L67 32L67 33L66 33L66 32L63 32L63 31L68 31L68 30L64 30L64 28L65 28L65 29L66 29L66 28L65 28L65 26L64 26L64 27L63 27L63 28L62 28L62 26L63 26L63 25L64 25L64 22L63 22L63 21L64 21L64 20L65 20L65 21L66 21L66 22L65 22L65 23L66 23L66 22L67 22L67 24L65 24L65 25L68 25L68 21L69 21L69 20L68 20L68 18L67 18L67 17L68 17L68 16L69 16L69 15L68 15L68 14L69 14L69 11L67 11L67 10L65 10L65 9L69 9L69 8L65 8L65 9L64 9L64 8L63 8L63 9L62 9L62 10L63 10L63 9L64 9L64 10L65 10L65 11L67 11L67 13L68 13L68 14L67 14L67 15L68 15L68 16L66 16L66 17L64 17L64 16L65 16L65 15L64 15L64 14L65 14L65 13L64 13L64 11L60 11L60 10L61 10L61 9L60 9L60 8L61 8L61 6L60 6L60 8L59 8L59 4L58 4L58 3L59 3L59 2L58 2L58 1L61 1L61 0L58 0L58 1L57 1L57 0L56 0L56 3L55 3L55 4L54 4L54 3L53 3L53 2L55 2L55 0L52 0L52 1L51 1L51 0L50 0L50 1L47 1L47 3L46 3L46 4L45 4L45 6L44 6L44 7L43 7L43 5L44 5L44 2L46 2L46 0L45 0L45 1L44 1L44 0L40 0L40 1L39 1L39 0L38 0L38 1L37 1L37 0L36 0L36 1L35 1L35 0L32 0L32 1L31 1L31 0L29 0L29 1L30 1L30 3L31 3L31 4L30 4L30 5L29 5L29 6L28 6L28 4L29 4L29 2L28 2L28 3L27 3L27 1L26 1L26 0L23 0L23 1L22 1L22 0L15 0L15 2L19 2L19 1L20 1L20 2L21 2L21 3L20 3L20 5L19 5L19 6L18 6L18 3L17 3L17 4L16 4L16 5L15 5L15 6L14 6L14 4L15 4L15 3L13 3L13 2L14 2L14 0L13 0L13 1L12 1L12 0L10 0L10 1L9 1L9 0ZM10 1L10 3L11 3L11 2L12 2L12 1ZM21 1L21 2L22 2L22 3L21 3L21 5L20 5L20 6L19 6L19 8L20 8L20 6L21 6L21 9L22 9L22 10L23 10L23 9L24 9L24 10L25 10L25 11L26 11L26 12L27 12L27 13L25 13L25 14L24 14L24 15L23 15L23 14L22 14L22 13L23 13L23 12L24 12L24 11L20 11L20 9L19 9L19 11L20 11L20 12L19 12L19 14L20 14L20 16L21 16L21 14L22 14L22 17L19 17L19 16L18 16L18 17L17 17L17 18L18 18L18 19L17 19L17 20L19 20L19 22L16 22L16 19L15 19L15 18L16 18L16 16L17 16L17 15L18 15L18 13L17 13L17 14L16 14L16 16L15 16L15 18L14 18L14 19L15 19L15 20L14 20L14 21L13 21L13 22L14 22L14 23L15 23L15 22L16 22L16 23L17 23L17 24L18 24L18 23L19 23L19 25L17 25L17 26L16 26L16 27L15 27L15 28L14 28L14 27L13 27L13 26L12 26L12 29L13 29L13 28L14 28L14 31L13 31L13 32L14 32L14 31L15 31L15 32L16 32L16 31L15 31L15 29L16 29L16 30L18 30L18 31L17 31L17 33L14 33L14 35L13 35L13 33L12 33L12 32L11 32L11 33L10 33L10 34L11 34L11 33L12 33L12 38L13 38L13 39L12 39L12 40L11 40L11 37L10 37L10 39L9 39L9 38L8 38L8 37L4 37L4 38L5 38L5 39L4 39L4 40L3 40L3 42L2 42L2 43L3 43L3 44L2 44L2 46L1 46L1 48L2 48L2 46L3 46L3 47L4 47L4 48L5 48L5 47L6 47L6 48L7 48L7 49L8 49L8 51L10 51L10 50L9 50L9 49L11 49L11 50L12 50L12 51L11 51L11 52L9 52L9 54L10 54L10 55L12 55L12 56L13 56L13 55L12 55L12 53L11 53L11 52L12 52L12 51L13 51L13 52L14 52L14 51L15 51L15 50L14 50L14 49L16 49L16 51L17 51L17 50L18 50L18 49L19 49L19 51L20 51L20 50L21 50L21 52L22 52L22 53L21 53L21 54L20 54L20 52L19 52L19 54L18 54L18 55L17 55L17 53L16 53L16 55L17 55L17 56L20 56L20 55L22 55L22 56L25 56L25 58L24 58L24 57L21 57L21 58L23 58L23 59L20 59L20 57L19 57L19 59L20 59L20 60L19 60L19 61L17 61L17 58L16 58L16 59L15 59L15 60L13 60L13 61L14 61L14 62L13 62L13 63L12 63L12 61L11 61L11 62L10 62L10 64L13 64L13 65L15 65L15 66L16 66L16 67L19 67L19 66L17 66L17 65L18 65L18 64L19 64L19 65L20 65L20 63L19 63L19 61L21 61L21 62L22 62L22 61L23 61L23 63L24 63L24 64L25 64L25 65L27 65L27 64L28 64L28 62L30 62L30 63L29 63L29 64L31 64L31 63L32 63L32 61L29 61L29 60L31 60L31 59L32 59L32 60L34 60L34 58L35 58L35 56L36 56L36 57L37 57L37 58L36 58L36 59L35 59L35 60L37 60L37 59L38 59L38 61L37 61L37 62L38 62L38 65L36 65L36 66L37 66L37 67L36 67L36 68L37 68L37 67L38 67L38 65L39 65L39 63L40 63L40 67L41 67L41 61L44 61L44 60L46 60L46 62L47 62L47 63L46 63L46 64L45 64L45 65L46 65L46 66L47 66L47 65L46 65L46 64L49 64L49 63L50 63L50 64L52 64L52 66L53 66L53 64L52 64L52 63L53 63L53 62L52 62L52 61L53 61L53 60L54 60L54 58L52 58L52 57L54 57L54 53L53 53L53 51L54 51L54 52L55 52L55 53L56 53L56 55L55 55L55 57L56 57L56 58L57 58L57 59L55 59L55 61L56 61L56 62L54 62L54 64L55 64L55 67L54 67L54 68L55 68L55 67L56 67L56 68L58 68L58 67L56 67L56 64L55 64L55 63L56 63L56 62L57 62L57 61L56 61L56 60L57 60L57 59L58 59L58 60L59 60L59 61L60 61L60 60L59 60L59 59L61 59L61 58L62 58L62 60L64 60L64 59L63 59L63 58L62 58L62 56L63 56L63 55L64 55L64 54L65 54L65 53L66 53L66 52L67 52L67 51L68 51L68 48L67 48L67 46L66 46L66 45L65 45L65 44L67 44L67 45L68 45L68 44L67 44L67 43L65 43L65 44L64 44L64 43L63 43L63 41L64 41L64 40L63 40L63 39L64 39L64 38L65 38L65 37L60 37L60 36L59 36L59 37L58 37L58 34L59 34L59 35L60 35L60 33L59 33L59 32L62 32L62 31L63 31L63 30L62 30L62 29L61 29L61 26L62 26L62 25L63 25L63 24L62 24L62 23L63 23L63 22L62 22L62 20L61 20L61 19L62 19L62 15L63 15L63 14L64 14L64 13L63 13L63 12L62 12L62 13L61 13L61 12L60 12L60 13L61 13L61 15L60 15L60 14L59 14L59 13L58 13L58 14L59 14L59 15L58 15L58 16L57 16L57 17L58 17L58 18L59 18L59 17L61 17L61 19L60 19L60 20L59 20L59 19L58 19L58 22L56 22L56 23L55 23L55 22L53 22L53 21L55 21L55 20L54 20L54 19L56 19L56 15L57 15L57 14L56 14L56 13L55 13L55 12L54 12L54 13L55 13L55 14L56 14L56 15L54 15L54 14L52 14L52 13L53 13L53 12L52 12L52 10L53 10L53 9L54 9L54 5L53 5L53 4L52 4L52 3L51 3L51 1L50 1L50 3L47 3L47 4L46 4L46 5L47 5L47 8L45 8L45 7L46 7L46 6L45 6L45 7L44 7L44 8L43 8L43 7L42 7L42 5L41 5L41 4L40 4L40 3L41 3L41 2L42 2L42 4L43 4L43 2L42 2L42 1L41 1L41 2L40 2L40 3L39 3L39 2L38 2L38 3L39 3L39 4L40 4L40 6L39 6L39 7L38 7L38 4L37 4L37 10L36 10L36 9L35 9L35 11L36 11L36 13L34 13L34 11L33 11L33 9L32 9L32 6L31 6L31 5L32 5L32 4L33 4L33 3L34 3L34 4L35 4L35 3L34 3L34 1L33 1L33 2L32 2L32 4L31 4L31 5L30 5L30 6L29 6L29 7L28 7L28 6L27 6L27 5L26 5L26 6L25 6L25 9L24 9L24 8L22 8L22 6L23 6L23 7L24 7L24 6L23 6L23 5L24 5L24 2L25 2L25 1L23 1L23 2L22 2L22 1ZM52 1L52 2L53 2L53 1ZM22 3L22 5L23 5L23 3ZM26 3L26 4L27 4L27 3ZM50 3L50 8L47 8L47 10L46 10L46 9L45 9L45 8L44 8L44 9L40 9L40 8L41 8L41 6L40 6L40 8L39 8L39 9L38 9L38 10L37 10L37 11L39 11L39 9L40 9L40 12L39 12L39 13L38 13L38 14L37 14L37 15L34 15L34 16L36 16L36 18L37 18L37 17L38 17L38 20L36 20L36 19L35 19L35 18L34 18L34 17L33 17L33 16L32 16L32 13L33 13L33 12L32 12L32 11L30 11L30 10L28 10L28 9L31 9L31 10L32 10L32 9L31 9L31 6L30 6L30 8L28 8L28 7L27 7L27 6L26 6L26 11L27 11L27 12L28 12L28 13L27 13L27 16L26 16L26 14L25 14L25 16L24 16L24 17L22 17L22 18L20 18L20 19L19 19L19 20L20 20L20 23L21 23L21 24L20 24L20 26L21 26L21 25L24 25L24 26L25 26L25 27L26 27L26 29L25 29L25 28L24 28L24 27L23 27L23 26L22 26L22 27L19 27L19 26L18 26L18 27L17 27L17 29L18 29L18 30L19 30L19 29L20 29L20 30L21 30L21 31L20 31L20 33L19 33L19 32L18 32L18 33L17 33L17 34L15 34L15 35L16 35L16 36L15 36L15 37L13 37L13 38L16 38L16 36L17 36L17 38L19 38L19 39L20 39L20 40L18 40L18 39L16 39L16 40L15 40L15 41L16 41L16 40L17 40L17 42L16 42L16 43L14 43L14 42L11 42L11 43L9 43L9 42L10 42L10 41L9 41L9 39L8 39L8 38L6 38L6 39L5 39L5 40L4 40L4 41L5 41L5 42L3 42L3 43L7 43L7 44L3 44L3 46L4 46L4 47L5 47L5 46L4 46L4 45L7 45L7 46L6 46L6 47L7 47L7 46L8 46L8 47L9 47L9 46L8 46L8 45L9 45L9 44L12 44L12 45L10 45L10 46L12 46L12 45L13 45L13 47L10 47L10 48L11 48L11 49L13 49L13 48L15 48L15 47L16 47L16 45L15 45L15 44L17 44L17 45L18 45L18 47L17 47L17 48L16 48L16 49L18 49L18 48L19 48L19 49L21 49L21 50L23 50L23 49L24 49L24 50L26 50L26 53L23 53L23 55L25 55L25 54L26 54L26 53L27 53L27 54L28 54L28 55L26 55L26 57L27 57L27 58L26 58L26 61L24 61L24 59L23 59L23 61L24 61L24 63L26 63L26 64L27 64L27 62L28 62L28 59L30 59L30 58L28 58L28 57L27 57L27 56L29 56L29 57L31 57L31 58L32 58L32 57L33 57L33 58L34 58L34 55L31 55L31 54L32 54L32 52L33 52L33 54L34 54L34 52L35 52L35 49L38 49L38 50L37 50L37 52L38 52L38 54L39 54L39 57L38 57L38 59L40 59L40 60L39 60L39 61L38 61L38 62L40 62L40 60L41 60L41 59L40 59L40 58L41 58L41 57L42 57L42 60L43 60L43 59L44 59L44 57L45 57L45 59L46 59L46 60L47 60L47 62L48 62L48 63L49 63L49 61L50 61L50 62L51 62L51 63L52 63L52 62L51 62L51 61L52 61L52 60L53 60L53 59L51 59L51 57L52 57L52 56L53 56L53 55L52 55L52 54L53 54L53 53L52 53L52 51L53 51L53 50L56 50L56 51L57 51L57 50L58 50L58 49L59 49L59 48L61 48L61 49L62 49L62 50L61 50L61 51L58 51L58 52L56 52L56 53L57 53L57 55L56 55L56 57L57 57L57 58L58 58L58 59L59 59L59 58L61 58L61 55L62 55L62 52L65 52L65 51L67 51L67 50L66 50L66 49L65 49L65 48L64 48L64 47L66 47L66 46L64 46L64 44L62 44L62 42L60 42L60 41L59 41L59 40L61 40L61 39L62 39L62 38L60 38L60 37L59 37L59 38L58 38L58 37L57 37L57 36L56 36L56 35L57 35L57 34L58 34L58 32L57 32L57 31L60 31L60 30L61 30L61 31L62 31L62 30L61 30L61 29L59 29L59 28L58 28L58 29L57 29L57 28L56 28L56 26L57 26L57 27L58 27L58 24L56 24L56 25L53 25L53 26L52 26L52 24L53 24L53 22L52 22L52 24L51 24L51 23L50 23L50 22L51 22L51 21L52 21L52 19L53 19L53 18L55 18L55 17L52 17L52 16L50 16L50 15L49 15L49 12L50 12L50 14L51 14L51 15L52 15L52 14L51 14L51 13L52 13L52 12L51 12L51 10L52 10L52 8L51 8L51 3ZM56 3L56 4L55 4L55 5L57 5L57 3ZM60 3L60 5L61 5L61 3ZM48 4L48 5L49 5L49 4ZM8 5L8 7L9 7L9 5ZM16 5L16 6L17 6L17 5ZM33 5L33 8L36 8L36 5ZM52 5L52 7L53 7L53 5ZM34 6L34 7L35 7L35 6ZM48 6L48 7L49 7L49 6ZM55 6L55 9L56 9L56 11L57 11L57 12L58 12L58 11L59 11L59 8L58 8L58 6L57 6L57 7L56 7L56 6ZM10 8L10 9L11 9L11 8ZM50 8L50 9L49 9L49 11L48 11L48 12L49 12L49 11L50 11L50 9L51 9L51 8ZM56 8L56 9L57 9L57 11L58 11L58 9L57 9L57 8ZM6 9L6 10L5 10L5 11L6 11L6 12L7 12L7 11L6 11L6 10L7 10L7 9ZM27 10L27 11L28 11L28 10ZM41 10L41 12L40 12L40 13L39 13L39 14L38 14L38 15L37 15L37 16L38 16L38 15L43 15L43 17L44 17L44 12L45 12L45 11L46 11L46 14L45 14L45 15L46 15L46 14L48 14L48 13L47 13L47 11L46 11L46 10L44 10L44 12L43 12L43 10ZM54 10L54 11L55 11L55 10ZM15 11L15 12L16 12L16 11ZM20 12L20 14L21 14L21 13L22 13L22 12ZM31 12L31 13L32 13L32 12ZM41 12L41 13L40 13L40 14L43 14L43 13L42 13L42 12ZM12 13L12 15L11 15L11 16L9 16L9 17L12 17L12 16L13 16L13 15L15 15L15 14L14 14L14 13ZM28 13L28 15L29 15L29 14L30 14L30 13ZM62 13L62 14L63 14L63 13ZM0 14L0 16L2 16L2 15L3 15L3 14L2 14L2 15L1 15L1 14ZM6 15L6 16L4 16L4 19L3 19L3 18L1 18L1 19L2 19L2 20L4 20L4 19L6 19L6 18L5 18L5 17L6 17L6 16L7 16L7 15ZM47 15L47 16L49 16L49 15ZM59 15L59 16L58 16L58 17L59 17L59 16L60 16L60 15ZM27 16L27 17L25 17L25 19L23 19L23 18L22 18L22 19L21 19L21 20L22 20L22 22L21 22L21 23L22 23L22 24L23 24L23 20L25 20L25 22L24 22L24 24L25 24L25 25L26 25L26 23L28 23L28 24L31 24L31 23L28 23L28 22L29 22L29 21L28 21L28 22L26 22L26 20L27 20L27 19L29 19L29 20L31 20L31 21L30 21L30 22L31 22L31 21L33 21L33 22L32 22L32 24L33 24L33 25L32 25L32 26L31 26L31 27L30 27L30 28L31 28L31 29L33 29L33 30L32 30L32 32L33 32L33 30L34 30L34 31L35 31L35 32L36 32L36 31L37 31L37 32L38 32L38 33L37 33L37 34L38 34L38 35L37 35L37 39L35 39L35 40L34 40L34 41L29 41L29 40L33 40L33 39L34 39L34 38L33 38L33 39L32 39L32 36L31 36L31 39L28 39L28 40L27 40L27 41L28 41L28 42L27 42L27 43L26 43L26 40L25 40L25 41L24 41L24 40L22 40L22 39L21 39L21 38L22 38L22 37L23 37L23 33L24 33L24 31L23 31L23 30L22 30L22 33L21 33L21 34L20 34L20 35L19 35L19 34L18 34L18 35L17 35L17 36L18 36L18 35L19 35L19 37L21 37L21 38L20 38L20 39L21 39L21 40L20 40L20 41L19 41L19 42L17 42L17 44L18 44L18 43L19 43L19 48L20 48L20 47L21 47L21 46L20 46L20 45L21 45L21 44L20 44L20 43L21 43L21 42L20 42L20 41L22 41L22 46L23 46L23 47L22 47L22 48L21 48L21 49L23 49L23 47L24 47L24 49L25 49L25 48L27 48L27 51L28 51L28 50L29 50L29 49L30 49L30 50L31 50L31 51L29 51L29 52L31 52L31 51L33 51L33 50L34 50L34 49L35 49L35 48L37 48L37 47L35 47L35 46L33 46L33 45L36 45L36 46L37 46L37 43L36 43L36 42L34 42L34 41L36 41L36 40L38 40L38 41L37 41L37 42L38 42L38 43L39 43L39 44L38 44L38 45L39 45L39 44L40 44L40 47L41 47L41 48L40 48L40 50L38 50L38 51L39 51L39 52L40 52L40 53L44 53L44 54L42 54L42 55L44 55L44 54L45 54L45 53L46 53L46 54L47 54L47 55L50 55L50 56L49 56L49 58L48 58L48 57L46 57L46 58L47 58L47 59L49 59L49 60L51 60L51 59L50 59L50 57L51 57L51 54L52 54L52 53L51 53L51 54L50 54L50 52L51 52L51 51L52 51L52 50L51 50L51 51L50 51L50 52L49 52L49 49L51 49L51 48L50 48L50 47L47 47L47 46L49 46L49 45L51 45L51 43L53 43L53 42L52 42L52 41L55 41L55 43L57 43L57 45L56 45L56 46L57 46L57 45L58 45L58 47L60 47L60 46L62 46L62 47L61 47L61 48L62 48L62 47L64 47L64 46L63 46L63 45L62 45L62 44L61 44L61 45L60 45L60 44L58 44L58 43L59 43L59 41L56 41L56 40L59 40L59 39L60 39L60 38L59 38L59 39L58 39L58 38L57 38L57 39L56 39L56 36L55 36L55 35L52 35L52 34L53 34L53 33L56 33L56 34L57 34L57 33L56 33L56 32L53 32L53 31L57 31L57 29L56 29L56 28L53 28L53 27L54 27L54 26L53 26L53 27L51 27L51 26L50 26L50 25L48 25L48 23L49 23L49 22L50 22L50 21L46 21L46 20L47 20L47 19L46 19L46 20L45 20L45 19L44 19L44 18L41 18L41 19L39 19L39 20L38 20L38 21L37 21L37 22L35 22L35 21L34 21L34 18L33 18L33 19L32 19L32 18L31 18L31 19L29 19L29 16ZM40 16L40 17L42 17L42 16ZM45 16L45 17L46 17L46 18L48 18L48 19L49 19L49 20L51 20L51 19L52 19L52 18L51 18L51 19L50 19L50 17L46 17L46 16ZM18 17L18 18L19 18L19 17ZM27 17L27 18L26 18L26 19L27 19L27 18L28 18L28 17ZM63 17L63 19L64 19L64 17ZM31 19L31 20L32 20L32 19ZM42 19L42 20L43 20L43 19ZM66 19L66 21L68 21L68 20L67 20L67 19ZM44 20L44 21L38 21L38 23L36 23L36 24L35 24L35 23L34 23L34 26L35 26L35 25L36 25L36 26L37 26L37 28L38 28L38 30L40 30L40 31L41 31L41 30L42 30L42 31L44 31L44 33L41 33L41 36L42 36L42 37L41 37L41 38L40 38L40 39L39 39L39 41L38 41L38 42L41 42L41 47L42 47L42 49L41 49L41 51L40 51L40 52L43 52L43 51L45 51L45 50L46 50L46 48L47 48L47 49L49 49L49 48L47 48L47 47L46 47L46 48L44 48L44 47L45 47L45 46L43 46L43 44L44 44L44 45L45 45L45 44L46 44L46 45L49 45L49 44L50 44L50 42L51 42L51 41L52 41L52 38L55 38L55 37L54 37L54 36L53 36L53 37L52 37L52 35L51 35L51 34L52 34L52 32L51 32L51 29L52 29L52 28L50 28L50 27L48 27L48 25L47 25L47 23L48 23L48 22L46 22L46 21L45 21L45 20ZM6 21L6 22L8 22L8 21ZM14 21L14 22L15 22L15 21ZM59 21L59 22L58 22L58 23L60 23L60 22L61 22L61 21ZM39 22L39 23L38 23L38 24L40 24L40 27L41 27L41 28L40 28L40 29L41 29L41 28L43 28L43 26L44 26L44 27L45 27L45 26L44 26L44 24L45 24L45 22L41 22L41 24L40 24L40 22ZM54 23L54 24L55 24L55 23ZM41 24L41 26L43 26L43 24ZM61 24L61 25L59 25L59 27L60 27L60 26L61 26L61 25L62 25L62 24ZM4 25L4 27L5 27L5 25ZM6 25L6 26L8 26L8 25ZM27 25L27 26L26 26L26 27L27 27L27 28L28 28L28 26L30 26L30 25ZM37 25L37 26L38 26L38 28L39 28L39 26L38 26L38 25ZM46 25L46 26L47 26L47 25ZM32 26L32 27L31 27L31 28L32 28L32 27L33 27L33 26ZM66 26L66 27L67 27L67 29L68 29L68 26ZM6 27L6 28L7 28L7 27ZM34 27L34 28L35 28L35 27ZM20 28L20 29L21 29L21 28ZM22 28L22 29L23 29L23 28ZM45 28L45 29L43 29L43 30L44 30L44 31L45 31L45 32L50 32L50 33L49 33L49 34L47 34L47 33L46 33L46 34L45 34L45 33L44 33L44 34L43 34L43 35L44 35L44 34L45 34L45 35L46 35L46 36L45 36L45 37L46 37L46 42L44 42L44 40L45 40L45 38L44 38L44 37L43 37L43 38L42 38L42 40L41 40L41 39L40 39L40 41L43 41L43 42L44 42L44 44L45 44L45 43L47 43L47 44L49 44L49 43L48 43L48 42L50 42L50 41L51 41L51 40L50 40L50 41L47 41L47 38L49 38L49 39L51 39L51 38L52 38L52 37L51 37L51 36L50 36L50 33L51 33L51 32L50 32L50 29L46 29L46 28ZM0 29L0 30L2 30L2 31L0 31L0 32L1 32L1 34L2 34L2 32L3 32L3 30L2 30L2 29ZM28 29L28 30L25 30L25 31L27 31L27 32L28 32L28 30L29 30L29 29ZM34 29L34 30L35 30L35 31L36 31L36 29ZM53 29L53 30L56 30L56 29ZM58 29L58 30L59 30L59 29ZM11 30L11 31L12 31L12 30ZM25 32L25 33L26 33L26 32ZM5 33L5 36L8 36L8 33ZM27 33L27 36L28 36L28 38L30 38L30 37L29 37L29 36L30 36L30 35L32 35L32 33L31 33L31 34L30 34L30 33ZM33 33L33 36L36 36L36 33ZM38 33L38 34L39 34L39 33ZM61 33L61 36L64 36L64 33ZM6 34L6 35L7 35L7 34ZM21 34L21 37L22 37L22 34ZM25 34L25 35L24 35L24 37L26 37L26 39L27 39L27 37L26 37L26 34ZM28 34L28 36L29 36L29 35L30 35L30 34ZM34 34L34 35L35 35L35 34ZM46 34L46 35L47 35L47 34ZM62 34L62 35L63 35L63 34ZM9 35L9 36L11 36L11 35ZM38 35L38 36L39 36L39 37L38 37L38 38L39 38L39 37L40 37L40 35ZM48 35L48 37L50 37L50 38L51 38L51 37L50 37L50 36L49 36L49 35ZM46 36L46 37L47 37L47 36ZM35 37L35 38L36 38L36 37ZM24 38L24 39L25 39L25 38ZM43 38L43 40L44 40L44 38ZM6 39L6 40L8 40L8 39ZM13 39L13 40L12 40L12 41L13 41L13 40L14 40L14 39ZM53 39L53 40L56 40L56 39ZM6 41L6 42L8 42L8 41ZM23 41L23 43L24 43L24 45L23 45L23 46L25 46L25 47L26 47L26 45L27 45L27 48L28 48L28 49L29 49L29 48L28 48L28 47L29 47L29 46L31 46L31 45L33 45L33 43L34 43L34 42L33 42L33 43L32 43L32 44L31 44L31 43L29 43L29 42L28 42L28 43L29 43L29 46L28 46L28 44L26 44L26 43L25 43L25 42L24 42L24 41ZM8 43L8 44L9 44L9 43ZM12 43L12 44L13 44L13 43ZM25 44L25 45L26 45L26 44ZM52 44L52 47L53 47L53 48L52 48L52 49L54 49L54 47L53 47L53 45L55 45L55 44ZM14 45L14 46L15 46L15 45ZM59 45L59 46L60 46L60 45ZM32 46L32 47L31 47L31 48L30 48L30 49L31 49L31 50L32 50L32 49L34 49L34 48L35 48L35 47L34 47L34 48L33 48L33 46ZM42 46L42 47L43 47L43 46ZM38 47L38 48L39 48L39 47ZM55 47L55 49L56 49L56 50L57 50L57 49L56 49L56 48L57 48L57 47ZM43 48L43 49L44 49L44 50L45 50L45 49L44 49L44 48ZM63 49L63 50L62 50L62 51L63 51L63 50L64 50L64 51L65 51L65 49ZM13 50L13 51L14 51L14 50ZM42 50L42 51L43 51L43 50ZM22 51L22 52L23 52L23 51ZM27 52L27 53L28 53L28 54L31 54L31 53L28 53L28 52ZM44 52L44 53L45 53L45 52ZM47 52L47 53L49 53L49 52ZM59 52L59 53L58 53L58 54L59 54L59 55L60 55L60 54L59 54L59 53L61 53L61 52ZM10 53L10 54L11 54L11 53ZM63 53L63 54L64 54L64 53ZM3 55L3 56L2 56L2 57L4 57L4 55ZM29 55L29 56L31 56L31 55ZM37 55L37 56L38 56L38 55ZM40 55L40 57L39 57L39 58L40 58L40 57L41 57L41 55ZM5 56L5 57L6 57L6 58L7 58L7 57L6 57L6 56ZM42 56L42 57L43 57L43 56ZM57 56L57 57L58 57L58 58L59 58L59 57L60 57L60 56L59 56L59 57L58 57L58 56ZM8 57L8 58L9 58L9 57ZM27 58L27 59L28 59L28 58ZM3 60L3 61L5 61L5 60ZM21 60L21 61L22 61L22 60ZM15 61L15 65L17 65L17 64L16 64L16 63L18 63L18 62L16 62L16 61ZM26 61L26 62L27 62L27 61ZM33 61L33 64L36 64L36 61ZM61 61L61 64L64 64L64 61ZM67 61L67 62L68 62L68 61ZM34 62L34 63L35 63L35 62ZM62 62L62 63L63 63L63 62ZM43 63L43 67L44 67L44 63ZM33 65L33 67L34 67L34 68L35 68L35 65ZM48 65L48 66L49 66L49 67L50 67L50 65ZM10 66L10 67L11 67L11 68L13 68L13 67L11 67L11 66ZM61 67L61 69L62 69L62 67ZM30 68L30 69L31 69L31 68ZM68 68L68 69L69 69L69 68ZM0 0L0 7L7 7L7 0ZM1 1L1 6L6 6L6 1ZM2 2L2 5L5 5L5 2ZM62 0L62 7L69 7L69 0ZM63 1L63 6L68 6L68 1ZM64 2L64 5L67 5L67 2ZM0 62L0 69L7 69L7 62ZM1 63L1 68L6 68L6 63ZM2 64L2 67L5 67L5 64Z" fill="#000000"/></g></g></svg>
