<?xml version="1.0" encoding="UTF-8"?>
<svg xmlns="http://www.w3.org/2000/svg" version="1.1" width="300" height="300" viewBox="0 0 300 300"><rect x="0" y="0" width="300" height="300" fill="#ffffff"/><g transform="scale(4.348)"><g transform="translate(0,0)"><path fill-rule="evenodd" d="M9 0L9 1L8 1L8 2L9 2L9 3L8 3L8 4L10 4L10 3L11 3L11 5L12 5L12 8L11 8L11 6L10 6L10 7L9 7L9 5L8 5L8 7L9 7L9 8L6 8L6 9L9 9L9 10L10 10L10 11L9 11L9 12L8 12L8 11L7 11L7 10L6 10L6 11L5 11L5 12L4 12L4 9L5 9L5 8L0 8L0 9L2 9L2 10L0 10L0 11L1 11L1 13L0 13L0 16L1 16L1 17L0 17L0 18L1 18L1 19L2 19L2 20L3 20L3 18L4 18L4 19L7 19L7 20L4 20L4 23L3 23L3 22L2 22L2 21L1 21L1 20L0 20L0 21L1 21L1 23L2 23L2 24L0 24L0 25L2 25L2 26L0 26L0 33L1 33L1 34L0 34L0 37L1 37L1 39L0 39L0 42L1 42L1 43L0 43L0 48L1 48L1 43L2 43L2 45L3 45L3 43L2 43L2 42L5 42L5 43L4 43L4 46L2 46L2 47L4 47L4 48L2 48L2 50L1 50L1 49L0 49L0 50L1 50L1 51L2 51L2 50L4 50L4 51L3 51L3 52L2 52L2 54L1 54L1 55L2 55L2 54L4 54L4 53L3 53L3 52L5 52L5 53L7 53L7 54L6 54L6 55L7 55L7 56L0 56L0 57L1 57L1 58L0 58L0 61L1 61L1 58L2 58L2 59L3 59L3 58L4 58L4 59L7 59L7 58L8 58L8 57L9 57L9 56L8 56L8 53L9 53L9 51L11 51L11 49L10 49L10 48L11 48L11 47L13 47L13 46L14 46L14 44L16 44L16 45L18 45L18 46L15 46L15 47L16 47L16 48L17 48L17 49L18 49L18 50L17 50L17 51L18 51L18 53L17 53L17 52L16 52L16 53L15 53L15 54L14 54L14 53L13 53L13 52L14 52L14 50L15 50L15 51L16 51L16 50L15 50L15 48L12 48L12 49L13 49L13 51L12 51L12 52L10 52L10 53L13 53L13 54L14 54L14 55L12 55L12 57L11 57L11 56L10 56L10 57L11 57L11 60L13 60L13 61L8 61L8 60L6 60L6 61L8 61L8 63L9 63L9 64L8 64L8 69L9 69L9 67L10 67L10 66L9 66L9 64L10 64L10 65L11 65L11 67L12 67L12 69L14 69L14 68L15 68L15 69L16 69L16 68L15 68L15 67L14 67L14 68L13 68L13 66L15 66L15 65L16 65L16 64L14 64L14 63L12 63L12 62L13 62L13 61L16 61L16 60L18 60L18 61L17 61L17 62L18 62L18 63L17 63L17 64L18 64L18 65L17 65L17 66L16 66L16 67L17 67L17 69L21 69L21 68L19 68L19 67L20 67L20 66L19 66L19 65L20 65L20 64L19 64L19 62L20 62L20 61L19 61L19 58L20 58L20 59L21 59L21 61L22 61L22 62L21 62L21 63L23 63L23 64L24 64L24 63L26 63L26 64L25 64L25 65L21 65L21 67L23 67L23 68L25 68L25 69L26 69L26 68L25 68L25 67L26 67L26 66L25 66L25 65L28 65L28 66L27 66L27 67L28 67L28 68L27 68L27 69L28 69L28 68L29 68L29 69L32 69L32 67L33 67L33 66L34 66L34 67L35 67L35 68L36 68L36 69L38 69L38 68L37 68L37 67L35 67L35 66L34 66L34 65L36 65L36 66L38 66L38 67L39 67L39 66L38 66L38 65L39 65L39 64L41 64L41 66L40 66L40 67L41 67L41 66L44 66L44 68L43 68L43 67L42 67L42 68L41 68L41 69L44 69L44 68L47 68L47 69L50 69L50 65L51 65L51 64L50 64L50 63L47 63L47 66L46 66L46 64L45 64L45 63L46 63L46 62L44 62L44 60L45 60L45 61L46 61L46 60L45 60L45 59L46 59L46 58L45 58L45 59L44 59L44 60L43 60L43 57L44 57L44 56L46 56L46 57L47 57L47 58L49 58L49 60L47 60L47 62L50 62L50 61L49 61L49 60L51 60L51 59L50 59L50 57L52 57L52 58L54 58L54 59L52 59L52 60L53 60L53 61L52 61L52 62L53 62L53 65L52 65L52 67L51 67L51 68L52 68L52 67L53 67L53 66L54 66L54 67L56 67L56 66L55 66L55 65L56 65L56 63L58 63L58 64L57 64L57 65L58 65L58 64L59 64L59 63L60 63L60 65L59 65L59 66L58 66L58 67L59 67L59 68L60 68L60 69L61 69L61 68L62 68L62 69L68 69L68 68L67 68L67 66L66 66L66 65L65 65L65 64L67 64L67 65L69 65L69 64L67 64L67 62L69 62L69 61L68 61L68 60L69 60L69 59L68 59L68 58L67 58L67 59L65 59L65 60L63 60L63 59L64 59L64 58L63 58L63 56L66 56L66 57L65 57L65 58L66 58L66 57L68 57L68 56L67 56L67 55L68 55L68 54L69 54L69 53L68 53L68 54L66 54L66 55L63 55L63 56L62 56L62 54L63 54L63 53L64 53L64 52L68 52L68 50L69 50L69 49L66 49L66 50L67 50L67 51L65 51L65 50L63 50L63 51L61 51L61 52L60 52L60 53L59 53L59 56L62 56L62 58L61 58L61 57L59 57L59 58L57 58L57 57L56 57L56 54L57 54L57 53L58 53L58 52L57 52L57 51L60 51L60 50L62 50L62 49L65 49L65 48L67 48L67 47L68 47L68 48L69 48L69 47L68 47L68 46L69 46L69 43L68 43L68 41L69 41L69 39L68 39L68 38L67 38L67 37L68 37L68 36L69 36L69 35L68 35L68 34L69 34L69 33L68 33L68 32L67 32L67 31L68 31L68 30L69 30L69 29L68 29L68 25L69 25L69 23L68 23L68 22L67 22L67 21L68 21L68 18L69 18L69 15L68 15L68 14L65 14L65 13L63 13L63 15L62 15L62 12L66 12L66 13L67 13L67 11L68 11L68 13L69 13L69 11L68 11L68 10L69 10L69 9L68 9L68 8L67 8L67 9L66 9L66 8L65 8L65 10L64 10L64 11L63 11L63 10L62 10L62 8L61 8L61 6L60 6L60 7L59 7L59 4L58 4L58 5L57 5L57 6L56 6L56 7L55 7L55 5L56 5L56 3L59 3L59 2L58 2L58 1L61 1L61 0L56 0L56 1L55 1L55 0L51 0L51 3L49 3L49 2L50 2L50 0L49 0L49 1L48 1L48 0L47 0L47 1L45 1L45 0L44 0L44 1L45 1L45 2L44 2L44 3L43 3L43 0L41 0L41 1L37 1L37 0L36 0L36 1L33 1L33 2L35 2L35 3L36 3L36 4L31 4L31 3L32 3L32 0L30 0L30 1L31 1L31 3L29 3L29 0L28 0L28 1L25 1L25 0L21 0L21 3L20 3L20 4L19 4L19 3L17 3L17 4L19 4L19 5L18 5L18 7L19 7L19 8L17 8L17 5L16 5L16 7L15 7L15 6L14 6L14 5L12 5L12 4L13 4L13 1L14 1L14 0L12 0L12 1L11 1L11 0ZM15 0L15 1L17 1L17 2L20 2L20 1L19 1L19 0ZM9 1L9 2L11 2L11 1ZM23 1L23 2L24 2L24 3L21 3L21 4L20 4L20 5L19 5L19 7L20 7L20 5L21 5L21 4L25 4L25 7L24 7L24 6L23 6L23 5L22 5L22 6L21 6L21 8L22 8L22 9L20 9L20 8L19 8L19 9L20 9L20 10L18 10L18 9L17 9L17 8L16 8L16 9L15 9L15 10L13 10L13 9L14 9L14 6L13 6L13 9L11 9L11 8L10 8L10 10L12 10L12 11L10 11L10 12L9 12L9 13L8 13L8 15L9 15L9 14L11 14L11 15L12 15L12 16L13 16L13 17L11 17L11 18L10 18L10 19L9 19L9 18L7 18L7 17L10 17L10 16L7 16L7 15L6 15L6 16L5 16L5 17L4 17L4 18L7 18L7 19L9 19L9 20L7 20L7 21L5 21L5 23L4 23L4 24L3 24L3 25L4 25L4 26L7 26L7 27L6 27L6 28L4 28L4 29L3 29L3 28L2 28L2 27L3 27L3 26L2 26L2 27L1 27L1 29L3 29L3 30L4 30L4 29L6 29L6 30L7 30L7 31L6 31L6 32L7 32L7 31L9 31L9 30L8 30L8 29L9 29L9 28L10 28L10 27L11 27L11 26L12 26L12 25L13 25L13 27L15 27L15 28L14 28L14 29L13 29L13 28L12 28L12 29L13 29L13 33L11 33L11 32L9 32L9 34L10 34L10 35L12 35L12 36L13 36L13 37L11 37L11 36L10 36L10 37L9 37L9 38L8 38L8 37L6 37L6 38L5 38L5 40L4 40L4 41L5 41L5 42L7 42L7 43L5 43L5 44L7 44L7 45L6 45L6 46L4 46L4 47L5 47L5 48L4 48L4 49L5 49L5 51L6 51L6 52L7 52L7 51L6 51L6 50L10 50L10 49L9 49L9 46L11 46L11 45L12 45L12 46L13 46L13 44L14 44L14 42L15 42L15 43L16 43L16 44L19 44L19 45L20 45L20 46L18 46L18 47L17 47L17 48L18 48L18 49L21 49L21 51L22 51L22 52L19 52L19 53L18 53L18 54L17 54L17 53L16 53L16 54L17 54L17 56L16 56L16 57L15 57L15 58L16 58L16 57L17 57L17 56L19 56L19 57L20 57L20 58L21 58L21 59L22 59L22 61L23 61L23 60L24 60L24 61L25 61L25 62L27 62L27 63L29 63L29 64L28 64L28 65L29 65L29 64L31 64L31 63L32 63L32 60L34 60L34 59L36 59L36 58L32 58L32 55L33 55L33 57L36 57L36 56L35 56L35 54L37 54L37 56L38 56L38 59L37 59L37 61L38 61L38 63L37 63L37 65L38 65L38 64L39 64L39 63L41 63L41 64L44 64L44 66L45 66L45 67L46 67L46 66L45 66L45 64L44 64L44 62L43 62L43 63L42 63L42 62L41 62L41 60L42 60L42 61L43 61L43 60L42 60L42 58L41 58L41 59L40 59L40 62L39 62L39 61L38 61L38 60L39 60L39 57L41 57L41 56L38 56L38 55L39 55L39 54L40 54L40 55L43 55L43 56L42 56L42 57L43 57L43 56L44 56L44 53L45 53L45 54L46 54L46 56L47 56L47 55L48 55L48 54L51 54L51 55L49 55L49 56L52 56L52 57L55 57L55 56L54 56L54 55L55 55L55 54L56 54L56 53L57 53L57 52L56 52L56 53L55 53L55 52L54 52L54 51L53 51L53 50L52 50L52 49L54 49L54 48L55 48L55 49L57 49L57 50L55 50L55 51L57 51L57 50L59 50L59 49L60 49L60 48L61 48L61 49L62 49L62 48L65 48L65 47L66 47L66 44L65 44L65 43L66 43L66 42L67 42L67 41L68 41L68 40L67 40L67 41L66 41L66 42L65 42L65 41L63 41L63 39L65 39L65 38L66 38L66 37L64 37L64 38L62 38L62 37L61 37L61 38L60 38L60 37L57 37L57 35L56 35L56 34L59 34L59 35L58 35L58 36L60 36L60 34L59 34L59 33L57 33L57 30L58 30L58 31L59 31L59 32L61 32L61 30L59 30L59 29L57 29L57 28L56 28L56 27L53 27L53 25L55 25L55 26L57 26L57 27L58 27L58 26L59 26L59 27L61 27L61 26L59 26L59 25L60 25L60 24L59 24L59 23L62 23L62 24L61 24L61 25L62 25L62 26L63 26L63 27L62 27L62 28L61 28L61 29L62 29L62 31L63 31L63 32L64 32L64 30L65 30L65 31L67 31L67 30L68 30L68 29L67 29L67 28L65 28L65 27L67 27L67 26L63 26L63 25L65 25L65 24L63 24L63 23L62 23L62 22L63 22L63 21L65 21L65 20L66 20L66 21L67 21L67 20L66 20L66 18L67 18L67 17L68 17L68 16L67 16L67 17L66 17L66 16L65 16L65 14L64 14L64 16L62 16L62 15L61 15L61 16L62 16L62 18L61 18L61 19L62 19L62 18L63 18L63 19L64 19L64 20L63 20L63 21L62 21L62 22L59 22L59 20L58 20L58 19L60 19L60 18L59 18L59 14L60 14L60 13L61 13L61 11L62 11L62 10L59 10L59 9L58 9L58 8L59 8L59 7L58 7L58 6L57 6L57 7L56 7L56 9L55 9L55 10L56 10L56 9L58 9L58 10L57 10L57 11L58 11L58 12L56 12L56 13L57 13L57 14L55 14L55 16L56 16L56 17L55 17L55 18L54 18L54 17L53 17L53 16L52 16L52 15L50 15L50 14L51 14L51 13L52 13L52 14L53 14L53 13L54 13L54 12L55 12L55 11L54 11L54 10L53 10L53 11L54 11L54 12L50 12L50 14L47 14L47 12L49 12L49 11L52 11L52 9L54 9L54 8L53 8L53 7L54 7L54 5L52 5L52 4L54 4L54 3L56 3L56 2L52 2L52 3L51 3L51 4L49 4L49 5L52 5L52 6L51 6L51 7L52 7L52 8L50 8L50 6L49 6L49 9L50 9L50 10L47 10L47 7L48 7L48 6L47 6L47 3L48 3L48 1L47 1L47 2L45 2L45 3L44 3L44 5L41 5L41 2L42 2L42 1L41 1L41 2L36 2L36 3L38 3L38 4L37 4L37 5L38 5L38 6L37 6L37 7L38 7L38 6L39 6L39 7L40 7L40 6L41 6L41 8L37 8L37 9L38 9L38 10L36 10L36 9L34 9L34 10L36 10L36 11L33 11L33 9L32 9L32 5L31 5L31 4L29 4L29 3L28 3L28 2L26 2L26 4L25 4L25 2L24 2L24 1ZM14 2L14 4L16 4L16 3L15 3L15 2ZM27 3L27 4L26 4L26 7L27 7L27 6L28 6L28 7L29 7L29 6L30 6L30 7L31 7L31 6L30 6L30 5L29 5L29 6L28 6L28 5L27 5L27 4L28 4L28 3ZM45 3L45 4L46 4L46 3ZM60 3L60 5L61 5L61 3ZM39 4L39 5L40 5L40 4ZM33 5L33 8L36 8L36 5ZM44 5L44 7L45 7L45 9L44 9L44 8L43 8L43 9L39 9L39 10L41 10L41 12L40 12L40 11L39 11L39 12L38 12L38 13L36 13L36 12L33 12L33 14L32 14L32 15L31 15L31 16L29 16L29 15L30 15L30 13L32 13L32 12L31 12L31 11L32 11L32 10L31 10L31 9L30 9L30 8L28 8L28 9L30 9L30 10L28 10L28 11L29 11L29 12L30 12L30 13L29 13L29 15L28 15L28 14L27 14L27 13L28 13L28 12L27 12L27 13L26 13L26 11L25 11L25 12L24 12L24 11L23 11L23 10L24 10L24 9L26 9L26 8L24 8L24 7L23 7L23 6L22 6L22 7L23 7L23 8L24 8L24 9L23 9L23 10L22 10L22 11L21 11L21 12L24 12L24 13L21 13L21 14L20 14L20 13L19 13L19 11L18 11L18 12L16 12L16 13L14 13L14 15L13 15L13 14L12 14L12 15L13 15L13 16L14 16L14 15L15 15L15 14L16 14L16 13L18 13L18 14L17 14L17 15L18 15L18 14L20 14L20 15L21 15L21 17L18 17L18 16L16 16L16 17L15 17L15 18L13 18L13 19L12 19L12 21L14 21L14 22L13 22L13 23L14 23L14 22L16 22L16 23L15 23L15 24L13 24L13 25L14 25L14 26L15 26L15 27L16 27L16 28L15 28L15 29L19 29L19 30L18 30L18 31L17 31L17 30L15 30L15 31L14 31L14 32L15 32L15 33L16 33L16 32L18 32L18 33L17 33L17 34L15 34L15 35L17 35L17 37L19 37L19 40L17 40L17 42L20 42L20 40L21 40L21 41L22 41L22 40L21 40L21 39L22 39L22 38L20 38L20 37L19 37L19 36L18 36L18 35L20 35L20 34L19 34L19 33L20 33L20 32L21 32L21 31L22 31L22 32L23 32L23 34L21 34L21 36L23 36L23 38L27 38L27 37L28 37L28 36L29 36L29 37L30 37L30 38L29 38L29 39L26 39L26 40L29 40L29 41L30 41L30 44L28 44L28 43L29 43L29 42L27 42L27 41L25 41L25 40L24 40L24 41L23 41L23 42L21 42L21 44L20 44L20 43L19 43L19 44L20 44L20 45L21 45L21 44L23 44L23 47L25 47L25 48L26 48L26 47L25 47L25 46L26 46L26 44L27 44L27 45L29 45L29 47L28 47L28 46L27 46L27 48L29 48L29 49L30 49L30 50L29 50L29 51L30 51L30 50L32 50L32 54L33 54L33 53L34 53L34 52L33 52L33 51L34 51L34 49L33 49L33 48L32 48L32 49L31 49L31 48L30 48L30 47L31 47L31 46L30 46L30 45L31 45L31 44L32 44L32 45L33 45L33 43L31 43L31 41L30 41L30 40L29 40L29 39L30 39L30 38L31 38L31 35L32 35L32 38L34 38L34 37L38 37L38 36L37 36L37 34L38 34L38 35L39 35L39 36L40 36L40 35L41 35L41 38L42 38L42 39L45 39L45 40L47 40L47 41L49 41L49 42L46 42L46 43L47 43L47 46L45 46L45 49L44 49L44 43L45 43L45 42L44 42L44 40L41 40L41 39L39 39L39 40L41 40L41 41L40 41L40 43L38 43L38 38L37 38L37 39L35 39L35 41L34 41L34 42L35 42L35 43L34 43L34 44L35 44L35 45L34 45L34 47L35 47L35 48L36 48L36 47L37 47L37 46L38 46L38 45L39 45L39 46L40 46L40 47L38 47L38 49L37 49L37 50L36 50L36 49L35 49L35 52L36 52L36 53L37 53L37 54L39 54L39 51L41 51L41 52L43 52L43 53L40 53L40 54L43 54L43 53L44 53L44 52L45 52L45 53L47 53L47 54L48 54L48 53L50 53L50 52L53 52L53 51L52 51L52 50L51 50L51 51L49 51L49 50L50 50L50 49L51 49L51 48L52 48L52 47L51 47L51 46L53 46L53 48L54 48L54 47L55 47L55 48L57 48L57 49L58 49L58 48L60 48L60 47L61 47L61 48L62 48L62 45L61 45L61 44L60 44L60 45L59 45L59 47L58 47L58 46L57 46L57 45L58 45L58 44L57 44L57 45L56 45L56 43L57 43L57 42L58 42L58 43L59 43L59 42L58 42L58 41L59 41L59 40L58 40L58 39L60 39L60 38L57 38L57 39L56 39L56 36L55 36L55 35L53 35L53 34L56 34L56 30L55 30L55 29L56 29L56 28L53 28L53 30L52 30L52 31L51 31L51 32L50 32L50 28L51 28L51 26L52 26L52 25L51 25L51 26L50 26L50 24L52 24L52 22L50 22L50 21L49 21L49 20L50 20L50 19L49 19L49 18L50 18L50 17L51 17L51 16L50 16L50 17L49 17L49 16L48 16L48 15L47 15L47 16L48 16L48 18L47 18L47 20L46 20L46 21L47 21L47 24L46 24L46 22L44 22L44 20L43 20L43 17L44 17L44 16L45 16L45 17L46 17L46 16L45 16L45 15L44 15L44 14L43 14L43 13L42 13L42 14L41 14L41 12L42 12L42 10L45 10L45 9L46 9L46 7L47 7L47 6L46 6L46 5ZM34 6L34 7L35 7L35 6ZM42 6L42 7L43 7L43 6ZM45 6L45 7L46 7L46 6ZM52 6L52 7L53 7L53 6ZM57 7L57 8L58 8L58 7ZM60 8L60 9L61 9L61 8ZM63 8L63 9L64 9L64 8ZM15 10L15 11L14 11L14 12L15 12L15 11L17 11L17 10ZM30 10L30 11L31 11L31 10ZM58 10L58 11L59 11L59 13L60 13L60 11L59 11L59 10ZM65 10L65 11L66 11L66 10ZM6 11L6 12L5 12L5 13L6 13L6 14L7 14L7 13L6 13L6 12L7 12L7 11ZM43 11L43 12L47 12L47 11ZM2 12L2 13L3 13L3 14L2 14L2 15L1 15L1 16L2 16L2 17L3 17L3 16L4 16L4 13L3 13L3 12ZM10 12L10 13L11 13L11 12ZM12 12L12 13L13 13L13 12ZM39 12L39 13L38 13L38 14L37 14L37 15L35 15L35 14L36 14L36 13L34 13L34 14L33 14L33 15L32 15L32 17L36 17L36 18L37 18L37 19L39 19L39 21L41 21L41 20L42 20L42 19L41 19L41 20L40 20L40 19L39 19L39 18L41 18L41 17L42 17L42 16L44 16L44 15L43 15L43 14L42 14L42 15L40 15L40 14L39 14L39 13L40 13L40 12ZM22 14L22 15L24 15L24 14ZM25 14L25 15L26 15L26 16L25 16L25 17L26 17L26 18L23 18L23 19L22 19L22 20L19 20L19 21L20 21L20 22L21 22L21 23L20 23L20 26L18 26L18 25L17 25L17 24L18 24L18 23L17 23L17 24L16 24L16 25L15 25L15 26L16 26L16 25L17 25L17 26L18 26L18 27L19 27L19 29L20 29L20 30L22 30L22 31L23 31L23 32L26 32L26 31L25 31L25 30L28 30L28 31L27 31L27 32L28 32L28 33L25 33L25 34L23 34L23 36L24 36L24 37L27 37L27 36L28 36L28 35L27 35L27 36L26 36L26 34L28 34L28 33L29 33L29 35L31 35L31 34L32 34L32 32L34 32L34 31L33 31L33 30L34 30L34 29L36 29L36 30L37 30L37 29L38 29L38 31L39 31L39 30L40 30L40 31L43 31L43 32L39 32L39 33L38 33L38 32L37 32L37 33L38 33L38 34L39 34L39 35L40 35L40 33L43 33L43 34L41 34L41 35L43 35L43 36L42 36L42 37L43 37L43 36L44 36L44 37L45 37L45 38L47 38L47 40L48 40L48 38L49 38L49 39L50 39L50 40L49 40L49 41L50 41L50 42L49 42L49 43L48 43L48 44L49 44L49 45L50 45L50 46L47 46L47 47L46 47L46 49L45 49L45 52L46 52L46 51L48 51L48 50L49 50L49 49L50 49L50 48L51 48L51 47L50 47L50 46L51 46L51 45L54 45L54 44L53 44L53 43L54 43L54 42L53 42L53 41L55 41L55 43L56 43L56 41L58 41L58 40L56 40L56 39L55 39L55 40L52 40L52 38L53 38L53 35L51 35L51 33L52 33L52 34L53 34L53 32L51 32L51 33L50 33L50 32L49 32L49 31L47 31L47 29L46 29L46 28L49 28L49 27L47 27L47 25L48 25L48 24L49 24L49 23L50 23L50 22L48 22L48 24L47 24L47 25L46 25L46 24L45 24L45 23L44 23L44 22L43 22L43 24L44 24L44 25L43 25L43 26L46 26L46 28L44 28L44 27L43 27L43 28L44 28L44 29L43 29L43 30L42 30L42 27L38 27L38 28L37 28L37 29L36 29L36 28L35 28L35 27L36 27L36 26L33 26L33 24L34 24L34 25L36 25L36 24L35 24L35 23L31 23L31 24L32 24L32 25L31 25L31 27L30 27L30 26L29 26L29 25L30 25L30 24L29 24L29 25L27 25L27 24L28 24L28 23L26 23L26 24L25 24L25 25L27 25L27 26L26 26L26 27L27 27L27 28L26 28L26 29L25 29L25 30L22 30L22 29L23 29L23 28L24 28L24 27L22 27L22 28L21 28L21 29L20 29L20 26L21 26L21 25L22 25L22 26L24 26L24 25L22 25L22 24L21 24L21 23L22 23L22 22L23 22L23 24L24 24L24 22L23 22L23 21L24 21L24 20L25 20L25 19L26 19L26 18L27 18L27 19L28 19L28 20L26 20L26 22L29 22L29 23L30 23L30 22L31 22L31 21L29 21L29 20L30 20L30 19L29 19L29 18L30 18L30 17L29 17L29 16L27 16L27 14ZM33 15L33 16L34 16L34 15ZM39 15L39 16L38 16L38 17L37 17L37 18L38 18L38 17L39 17L39 16L40 16L40 15ZM6 16L6 17L7 17L7 16ZM22 16L22 17L21 17L21 18L22 18L22 17L24 17L24 16ZM17 17L17 19L15 19L15 20L14 20L14 19L13 19L13 20L14 20L14 21L16 21L16 22L18 22L18 21L17 21L17 20L18 20L18 19L20 19L20 18L18 18L18 17ZM27 17L27 18L28 18L28 17ZM52 17L52 18L51 18L51 19L52 19L52 20L51 20L51 21L52 21L52 20L53 20L53 24L54 24L54 23L55 23L55 22L56 22L56 23L57 23L57 25L59 25L59 24L58 24L58 23L57 23L57 21L58 21L58 20L57 20L57 19L55 19L55 20L57 20L57 21L54 21L54 18L53 18L53 17ZM63 17L63 18L66 18L66 17ZM34 18L34 19L31 19L31 20L32 20L32 22L37 22L37 26L41 26L41 25L42 25L42 24L41 24L41 23L40 23L40 22L37 22L37 21L38 21L38 20L37 20L37 21L33 21L33 20L36 20L36 19L35 19L35 18ZM44 18L44 19L46 19L46 18ZM48 19L48 20L47 20L47 21L48 21L48 20L49 20L49 19ZM8 21L8 22L6 22L6 23L5 23L5 24L6 24L6 25L7 25L7 24L6 24L6 23L8 23L8 25L9 25L9 26L11 26L11 23L12 23L12 22L11 22L11 21L10 21L10 24L9 24L9 23L8 23L8 22L9 22L9 21ZM65 22L65 23L67 23L67 24L68 24L68 23L67 23L67 22ZM38 23L38 25L39 25L39 23ZM55 24L55 25L56 25L56 24ZM27 26L27 27L29 27L29 26ZM7 27L7 28L6 28L6 29L8 29L8 27ZM31 27L31 28L27 28L27 29L29 29L29 31L30 31L30 29L31 29L31 30L33 30L33 29L34 29L34 28L33 28L33 27ZM31 28L31 29L32 29L32 28ZM39 28L39 29L40 29L40 28ZM44 29L44 30L43 30L43 31L44 31L44 32L43 32L43 33L44 33L44 36L45 36L45 37L49 37L49 38L50 38L50 39L51 39L51 38L50 38L50 37L51 37L51 36L45 36L45 33L47 33L47 35L48 35L48 34L50 34L50 33L49 33L49 32L46 32L46 30L45 30L45 29ZM48 29L48 30L49 30L49 29ZM1 30L1 33L3 33L3 36L2 36L2 34L1 34L1 37L3 37L3 38L4 38L4 33L3 33L3 32L2 32L2 30ZM44 30L44 31L45 31L45 30ZM53 30L53 31L55 31L55 30ZM31 31L31 32L29 32L29 33L30 33L30 34L31 34L31 32L32 32L32 31ZM44 32L44 33L45 33L45 32ZM66 32L66 33L65 33L65 35L66 35L66 33L67 33L67 34L68 34L68 33L67 33L67 32ZM5 33L5 36L8 36L8 33ZM10 33L10 34L11 34L11 33ZM13 33L13 34L12 34L12 35L13 35L13 34L14 34L14 33ZM33 33L33 36L36 36L36 33ZM61 33L61 36L64 36L64 33ZM6 34L6 35L7 35L7 34ZM17 34L17 35L18 35L18 34ZM34 34L34 35L35 35L35 34ZM62 34L62 35L63 35L63 34ZM67 35L67 36L68 36L68 35ZM15 36L15 37L16 37L16 36ZM54 36L54 37L55 37L55 36ZM13 37L13 38L14 38L14 41L13 41L13 40L12 40L12 39L10 39L10 38L9 38L9 39L10 39L10 40L12 40L12 43L10 43L10 42L11 42L11 41L9 41L9 40L8 40L8 38L6 38L6 39L7 39L7 40L5 40L5 41L7 41L7 42L9 42L9 43L10 43L10 45L11 45L11 44L13 44L13 42L14 42L14 41L15 41L15 42L16 42L16 41L15 41L15 39L16 39L16 38L14 38L14 37ZM39 37L39 38L40 38L40 37ZM17 38L17 39L18 39L18 38ZM61 38L61 39L62 39L62 38ZM2 39L2 41L3 41L3 39ZM32 39L32 40L34 40L34 39ZM36 40L36 41L37 41L37 40ZM50 40L50 41L51 41L51 40ZM55 40L55 41L56 41L56 40ZM24 41L24 42L23 42L23 43L24 43L24 44L26 44L26 43L25 43L25 41ZM32 41L32 42L33 42L33 41ZM60 41L60 42L61 42L61 43L62 43L62 44L64 44L64 43L65 43L65 42L63 42L63 41ZM36 42L36 43L35 43L35 44L36 44L36 43L37 43L37 45L36 45L36 46L35 46L35 47L36 47L36 46L37 46L37 45L38 45L38 43L37 43L37 42ZM43 42L43 43L44 43L44 42ZM50 42L50 43L49 43L49 44L50 44L50 45L51 45L51 44L52 44L52 43L51 43L51 42ZM62 42L62 43L63 43L63 42ZM7 43L7 44L8 44L8 43ZM40 43L40 44L39 44L39 45L40 45L40 44L41 44L41 43ZM50 43L50 44L51 44L51 43ZM67 43L67 44L68 44L68 43ZM7 45L7 46L6 46L6 47L7 47L7 48L6 48L6 49L8 49L8 47L7 47L7 46L8 46L8 45ZM41 45L41 46L42 46L42 48L41 48L41 47L40 47L40 48L39 48L39 49L38 49L38 51L39 51L39 50L41 50L41 51L42 51L42 50L41 50L41 49L42 49L42 48L43 48L43 46L42 46L42 45ZM55 45L55 46L56 46L56 45ZM60 45L60 46L61 46L61 45ZM20 46L20 47L19 47L19 48L21 48L21 47L22 47L22 46ZM32 46L32 47L33 47L33 46ZM63 46L63 47L65 47L65 46ZM48 47L48 48L47 48L47 49L49 49L49 48L50 48L50 47ZM57 47L57 48L58 48L58 47ZM22 49L22 50L23 50L23 54L22 54L22 55L20 55L20 56L22 56L22 57L21 57L21 58L22 58L22 57L24 57L24 58L23 58L23 59L24 59L24 60L25 60L25 61L26 61L26 60L27 60L27 59L28 59L28 58L27 58L27 57L26 57L26 54L27 54L27 56L30 56L30 57L29 57L29 58L31 58L31 54L30 54L30 55L29 55L29 54L27 54L27 53L31 53L31 52L28 52L28 51L26 51L26 52L25 52L25 50L26 50L26 49ZM27 49L27 50L28 50L28 49ZM32 49L32 50L33 50L33 49ZM43 49L43 50L44 50L44 49ZM19 50L19 51L20 51L20 50ZM43 51L43 52L44 52L44 51ZM0 52L0 53L1 53L1 52ZM26 52L26 53L25 53L25 54L23 54L23 55L24 55L24 56L25 56L25 54L26 54L26 53L27 53L27 52ZM37 52L37 53L38 53L38 52ZM61 52L61 53L60 53L60 55L61 55L61 54L62 54L62 52ZM19 53L19 54L18 54L18 55L19 55L19 54L20 54L20 53ZM51 53L51 54L52 54L52 56L53 56L53 54L55 54L55 53ZM10 54L10 55L11 55L11 54ZM13 56L13 58L12 58L12 59L13 59L13 58L14 58L14 56ZM4 57L4 58L5 58L5 57ZM6 57L6 58L7 58L7 57ZM9 58L9 59L10 59L10 58ZM17 58L17 59L18 59L18 58ZM26 58L26 59L27 59L27 58ZM55 58L55 60L54 60L54 61L55 61L55 62L54 62L54 63L56 63L56 61L57 61L57 62L59 62L59 61L60 61L60 60L62 60L62 59L63 59L63 58L62 58L62 59L60 59L60 58L59 58L59 61L57 61L57 58ZM14 59L14 60L16 60L16 59ZM30 59L30 60L29 60L29 63L30 63L30 62L31 62L31 60L32 60L32 59ZM3 60L3 61L5 61L5 60ZM55 60L55 61L56 61L56 60ZM65 60L65 61L66 61L66 60ZM18 61L18 62L19 62L19 61ZM33 61L33 64L36 64L36 61ZM61 61L61 64L64 64L64 61ZM10 62L10 64L11 64L11 65L12 65L12 64L11 64L11 62ZM15 62L15 63L16 63L16 62ZM34 62L34 63L35 63L35 62ZM62 62L62 63L63 63L63 62ZM65 62L65 63L66 63L66 62ZM13 64L13 65L14 65L14 64ZM31 65L31 66L29 66L29 68L31 68L31 66L32 66L32 65ZM61 65L61 66L62 66L62 68L63 68L63 67L66 67L66 66L65 66L65 65L63 65L63 66L62 66L62 65ZM17 66L17 67L18 67L18 66ZM47 67L47 68L48 68L48 67ZM33 68L33 69L34 69L34 68ZM54 68L54 69L56 69L56 68ZM57 68L57 69L58 69L58 68ZM0 0L0 7L7 7L7 0ZM1 1L1 6L6 6L6 1ZM2 2L2 5L5 5L5 2ZM62 0L62 7L69 7L69 0ZM63 1L63 6L68 6L68 1ZM64 2L64 5L67 5L67 2ZM0 62L0 69L7 69L7 62ZM1 63L1 68L6 68L6 63ZM2 64L2 67L5 67L5 64Z" fill="#000000"/></g></g></svg>
