<?xml version="1.0" encoding="UTF-8"?>
<svg xmlns="http://www.w3.org/2000/svg" version="1.1" width="300" height="300" viewBox="0 0 300 300"><rect x="0" y="0" width="300" height="300" fill="#ffffff"/><g transform="scale(4.348)"><g transform="translate(0,0)"><path fill-rule="evenodd" d="M8 0L8 1L9 1L9 2L8 2L8 5L9 5L9 3L10 3L10 2L11 2L11 1L12 1L12 0ZM13 0L13 2L14 2L14 3L11 3L11 5L12 5L12 7L11 7L11 6L10 6L10 7L9 7L9 6L8 6L8 7L9 7L9 8L8 8L8 9L7 9L7 8L6 8L6 9L5 9L5 11L4 11L4 8L0 8L0 10L1 10L1 11L0 11L0 12L1 12L1 14L0 14L0 15L1 15L1 18L2 18L2 17L3 17L3 20L4 20L4 19L5 19L5 17L3 17L3 16L6 16L6 17L8 17L8 16L6 16L6 15L8 15L8 14L6 14L6 13L9 13L9 14L10 14L10 15L9 15L9 16L11 16L11 15L13 15L13 16L14 16L14 17L15 17L15 16L16 16L16 17L17 17L17 16L16 16L16 15L20 15L20 19L19 19L19 22L20 22L20 23L23 23L23 24L22 24L22 25L23 25L23 26L21 26L21 24L20 24L20 25L19 25L19 24L18 24L18 21L17 21L17 20L15 20L15 21L11 21L11 20L10 20L10 19L11 19L11 18L12 18L12 17L9 17L9 18L10 18L10 19L7 19L7 18L6 18L6 19L7 19L7 20L6 20L6 21L5 21L5 22L4 22L4 23L5 23L5 24L6 24L6 25L4 25L4 24L0 24L0 25L1 25L1 26L3 26L3 25L4 25L4 26L6 26L6 27L5 27L5 28L6 28L6 29L7 29L7 30L6 30L6 31L5 31L5 30L4 30L4 28L3 28L3 27L0 27L0 28L2 28L2 29L3 29L3 30L2 30L2 31L1 31L1 32L2 32L2 31L3 31L3 30L4 30L4 31L5 31L5 32L3 32L3 33L0 33L0 35L1 35L1 34L4 34L4 37L5 37L5 38L3 38L3 39L8 39L8 42L5 42L5 41L4 41L4 40L3 40L3 42L2 42L2 40L1 40L1 41L0 41L0 45L1 45L1 42L2 42L2 43L3 43L3 44L4 44L4 45L7 45L7 46L6 46L6 47L7 47L7 46L9 46L9 47L8 47L8 48L9 48L9 47L10 47L10 46L11 46L11 45L13 45L13 46L12 46L12 47L11 47L11 48L10 48L10 49L9 49L9 51L8 51L8 49L7 49L7 48L6 48L6 49L7 49L7 50L6 50L6 51L8 51L8 52L6 52L6 53L8 53L8 55L10 55L10 57L9 57L9 56L6 56L6 55L7 55L7 54L3 54L3 53L5 53L5 50L4 50L4 49L5 49L5 46L3 46L3 45L2 45L2 46L1 46L1 47L2 47L2 46L3 46L3 49L1 49L1 52L2 52L2 54L1 54L1 53L0 53L0 61L1 61L1 58L2 58L2 59L3 59L3 58L4 58L4 59L7 59L7 60L6 60L6 61L8 61L8 62L10 62L10 61L12 61L12 62L11 62L11 64L10 64L10 63L9 63L9 64L10 64L10 65L8 65L8 69L13 69L13 68L14 68L14 69L18 69L18 68L19 68L19 67L20 67L20 69L26 69L26 68L29 68L29 69L30 69L30 67L32 67L32 68L33 68L33 66L35 66L35 67L38 67L38 68L39 68L39 69L41 69L41 66L42 66L42 65L40 65L40 64L41 64L41 62L39 62L39 61L40 61L40 60L41 60L41 61L42 61L42 60L41 60L41 59L42 59L42 58L43 58L43 56L41 56L41 55L40 55L40 56L39 56L39 55L37 55L37 54L35 54L35 53L36 53L36 52L39 52L39 53L38 53L38 54L42 54L42 51L38 51L38 50L40 50L40 49L39 49L39 47L40 47L40 48L42 48L42 49L44 49L44 48L43 48L43 47L44 47L44 46L43 46L43 45L44 45L44 43L45 43L45 44L47 44L47 47L46 47L46 48L45 48L45 50L44 50L44 52L43 52L43 54L44 54L44 55L46 55L46 54L47 54L47 52L50 52L50 53L52 53L52 52L50 52L50 51L51 51L51 49L52 49L52 50L53 50L53 51L54 51L54 50L53 50L53 49L54 49L54 47L56 47L56 46L57 46L57 45L54 45L54 44L53 44L53 42L54 42L54 38L53 38L53 37L51 37L51 34L53 34L53 35L52 35L52 36L54 36L54 37L56 37L56 35L57 35L57 38L55 38L55 41L56 41L56 42L55 42L55 43L56 43L56 44L58 44L58 45L59 45L59 47L60 47L60 50L59 50L59 51L58 51L58 53L57 53L57 51L56 51L56 52L53 52L53 54L52 54L52 55L50 55L50 54L49 54L49 55L48 55L48 56L50 56L50 57L49 57L49 59L48 59L48 57L47 57L47 59L48 59L48 60L46 60L46 59L45 59L45 58L44 58L44 59L43 59L43 63L44 63L44 64L43 64L43 65L45 65L45 62L46 62L46 63L47 63L47 64L49 64L49 63L50 63L50 62L52 62L52 63L54 63L54 65L53 65L53 66L54 66L54 67L53 67L53 68L51 68L51 67L52 67L52 64L51 64L51 66L50 66L50 68L49 68L49 66L48 66L48 65L46 65L46 68L45 68L45 69L48 69L48 68L49 68L49 69L53 69L53 68L54 68L54 69L55 69L55 66L54 66L54 65L57 65L57 67L56 67L56 68L57 68L57 69L60 69L60 68L61 68L61 69L63 69L63 66L65 66L65 65L66 65L66 67L67 67L67 66L68 66L68 64L69 64L69 63L68 63L68 64L67 64L67 63L65 63L65 60L66 60L66 59L68 59L68 60L67 60L67 62L69 62L69 58L66 58L66 57L68 57L68 56L69 56L69 55L68 55L68 54L69 54L69 52L68 52L68 51L67 51L67 50L68 50L68 48L69 48L69 43L68 43L68 41L67 41L67 39L66 39L66 38L69 38L69 37L68 37L68 36L69 36L69 31L68 31L68 30L69 30L69 27L67 27L67 26L68 26L68 25L69 25L69 21L68 21L68 22L67 22L67 24L66 24L66 23L65 23L65 22L66 22L66 20L63 20L63 18L62 18L62 20L60 20L60 19L61 19L61 18L60 18L60 17L57 17L57 15L56 15L56 14L58 14L58 15L60 15L60 14L58 14L58 13L56 13L56 12L57 12L57 11L59 11L59 13L60 13L60 11L61 11L61 10L62 10L62 13L61 13L61 15L62 15L62 16L61 16L61 17L64 17L64 15L62 15L62 14L64 14L64 11L65 11L65 12L66 12L66 11L67 11L67 13L65 13L65 17L66 17L66 18L67 18L67 20L69 20L69 19L68 19L68 18L69 18L69 17L68 17L68 18L67 18L67 17L66 17L66 16L69 16L69 15L66 15L66 14L69 14L69 13L68 13L68 11L69 11L69 10L65 10L65 9L67 9L67 8L64 8L64 9L63 9L63 10L62 10L62 8L61 8L61 9L59 9L59 8L60 8L60 7L61 7L61 6L60 6L60 7L59 7L59 4L58 4L58 7L59 7L59 8L57 8L57 9L56 9L56 10L57 10L57 11L56 11L56 12L54 12L54 10L55 10L55 9L53 9L53 8L54 8L54 7L55 7L55 8L56 8L56 7L57 7L57 4L56 4L56 2L58 2L58 3L59 3L59 2L58 2L58 1L61 1L61 0L57 0L57 1L56 1L56 0L53 0L53 2L52 2L52 0L51 0L51 1L50 1L50 0L49 0L49 1L48 1L48 0L47 0L47 1L46 1L46 0L44 0L44 2L43 2L43 3L42 3L42 1L43 1L43 0L41 0L41 1L40 1L40 2L39 2L39 3L42 3L42 4L43 4L43 6L42 6L42 5L41 5L41 6L40 6L40 8L38 8L38 9L37 9L37 4L38 4L38 5L40 5L40 4L38 4L38 0L35 0L35 1L37 1L37 3L36 3L36 2L34 2L34 0L33 0L33 2L31 2L31 1L32 1L32 0L30 0L30 1L29 1L29 0L28 0L28 2L26 2L26 1L25 1L25 0L23 0L23 1L24 1L24 2L25 2L25 4L26 4L26 3L27 3L27 5L26 5L26 7L25 7L25 6L24 6L24 3L23 3L23 2L22 2L22 0L21 0L21 1L19 1L19 0L17 0L17 3L16 3L16 2L14 2L14 1L15 1L15 0ZM18 1L18 3L19 3L19 1ZM49 1L49 2L47 2L47 3L46 3L46 5L45 5L45 8L44 8L44 6L43 6L43 9L45 9L45 10L46 10L46 11L44 11L44 10L43 10L43 11L44 11L44 13L43 13L43 12L41 12L41 13L42 13L42 14L44 14L44 13L46 13L46 14L45 14L45 15L46 15L46 17L44 17L44 18L43 18L43 16L44 16L44 15L41 15L41 14L40 14L40 11L42 11L42 10L40 10L40 9L38 9L38 10L37 10L37 12L36 12L36 9L35 9L35 10L34 10L34 9L33 9L33 10L34 10L34 11L32 11L32 13L29 13L29 11L30 11L30 9L29 9L29 8L28 8L28 6L29 6L29 7L30 7L30 6L29 6L29 4L28 4L28 5L27 5L27 8L25 8L25 7L24 7L24 6L23 6L23 7L22 7L22 5L20 5L20 4L18 4L18 5L19 5L19 8L17 8L17 7L18 7L18 6L17 6L17 4L16 4L16 5L15 5L15 3L14 3L14 5L15 5L15 7L16 7L16 8L15 8L15 9L13 9L13 8L14 8L14 6L13 6L13 8L12 8L12 10L11 10L11 9L9 9L9 10L8 10L8 11L6 11L6 12L5 12L5 13L4 13L4 12L3 12L3 13L2 13L2 14L1 14L1 15L2 15L2 16L3 16L3 15L2 15L2 14L4 14L4 15L6 15L6 14L5 14L5 13L6 13L6 12L8 12L8 11L9 11L9 13L11 13L11 14L13 14L13 11L12 11L12 10L15 10L15 11L14 11L14 14L15 14L15 15L16 15L16 14L20 14L20 13L17 13L17 12L18 12L18 11L19 11L19 12L20 12L20 11L21 11L21 14L22 14L22 15L23 15L23 14L26 14L26 16L25 16L25 17L24 17L24 16L22 16L22 18L23 18L23 19L22 19L22 20L23 20L23 21L22 21L22 22L23 22L23 21L24 21L24 20L25 20L25 21L26 21L26 23L24 23L24 24L26 24L26 25L24 25L24 27L23 27L23 28L22 28L22 29L19 29L19 28L21 28L21 26L19 26L19 27L18 27L18 26L14 26L14 25L13 25L13 27L11 27L11 25L12 25L12 23L13 23L13 24L15 24L15 23L14 23L14 22L12 22L12 23L11 23L11 21L10 21L10 23L8 23L8 22L9 22L9 21L8 21L8 22L7 22L7 21L6 21L6 22L5 22L5 23L6 23L6 24L7 24L7 25L6 25L6 26L7 26L7 25L8 25L8 24L10 24L10 25L9 25L9 26L8 26L8 27L6 27L6 28L8 28L8 30L9 30L9 31L8 31L8 32L9 32L9 31L10 31L10 32L11 32L11 29L12 29L12 30L14 30L14 31L13 31L13 38L14 38L14 34L15 34L15 36L16 36L16 38L15 38L15 39L14 39L14 40L15 40L15 39L16 39L16 38L17 38L17 36L19 36L19 37L22 37L22 38L21 38L21 40L20 40L20 42L19 42L19 43L18 43L18 45L16 45L16 44L17 44L17 42L16 42L16 41L19 41L19 40L18 40L18 39L17 39L17 40L16 40L16 41L14 41L14 42L15 42L15 46L13 46L13 47L14 47L14 48L13 48L13 50L15 50L15 49L14 49L14 48L16 48L16 51L15 51L15 52L17 52L17 54L15 54L15 53L14 53L14 51L12 51L12 48L11 48L11 49L10 49L10 51L12 51L12 52L13 52L13 54L11 54L11 52L8 52L8 53L9 53L9 54L10 54L10 55L11 55L11 56L12 56L12 57L11 57L11 58L12 58L12 60L14 60L14 57L13 57L13 54L14 54L14 55L15 55L15 59L16 59L16 60L15 60L15 61L16 61L16 62L15 62L15 63L16 63L16 64L15 64L15 65L17 65L17 63L19 63L19 64L18 64L18 66L15 66L15 68L18 68L18 67L19 67L19 64L21 64L21 62L20 62L20 63L19 63L19 62L18 62L18 60L17 60L17 59L19 59L19 58L21 58L21 57L20 57L20 56L18 56L18 57L17 57L17 59L16 59L16 56L17 56L17 54L18 54L18 53L19 53L19 54L21 54L21 56L22 56L22 58L23 58L23 60L22 60L22 61L23 61L23 60L24 60L24 63L22 63L22 65L24 65L24 66L25 66L25 67L27 67L27 65L28 65L28 66L29 66L29 65L30 65L30 66L31 66L31 63L30 63L30 62L32 62L32 60L31 60L31 61L28 61L28 63L27 63L27 64L26 64L26 61L27 61L27 60L28 60L28 59L27 59L27 60L26 60L26 59L25 59L25 58L29 58L29 57L33 57L33 58L30 58L30 59L29 59L29 60L30 60L30 59L33 59L33 60L34 60L34 59L35 59L35 57L36 57L36 56L37 56L37 57L38 57L38 58L37 58L37 59L36 59L36 60L37 60L37 61L39 61L39 60L40 60L40 58L39 58L39 56L37 56L37 55L35 55L35 54L34 54L34 56L35 56L35 57L33 57L33 56L31 56L31 55L33 55L33 54L31 54L31 51L28 51L28 52L27 52L27 53L28 53L28 52L29 52L29 54L28 54L28 55L29 55L29 57L27 57L27 56L26 56L26 55L27 55L27 54L26 54L26 55L25 55L25 53L24 53L24 50L25 50L25 49L27 49L27 50L29 50L29 48L30 48L30 47L26 47L26 46L30 46L30 45L31 45L31 47L32 47L32 48L31 48L31 49L30 49L30 50L31 50L31 49L32 49L32 53L35 53L35 51L34 51L34 50L33 50L33 47L34 47L34 45L32 45L32 44L33 44L33 43L34 43L34 44L35 44L35 45L36 45L36 47L37 47L37 46L38 46L38 47L39 47L39 44L40 44L40 45L41 45L41 47L42 47L42 45L43 45L43 43L44 43L44 42L45 42L45 43L46 43L46 42L45 42L45 41L43 41L43 40L45 40L45 39L47 39L47 40L46 40L46 41L49 41L49 42L50 42L50 43L49 43L49 44L48 44L48 42L47 42L47 44L48 44L48 45L49 45L49 44L50 44L50 43L51 43L51 44L52 44L52 43L51 43L51 42L52 42L52 41L53 41L53 39L52 39L52 41L49 41L49 37L46 37L46 38L45 38L45 36L44 36L44 38L43 38L43 36L42 36L42 35L39 35L39 34L40 34L40 33L39 33L39 32L40 32L40 31L41 31L41 33L42 33L42 32L43 32L43 35L45 35L45 34L46 34L46 35L47 35L47 36L48 36L48 35L47 35L47 34L48 34L48 33L49 33L49 32L48 32L48 33L47 33L47 31L45 31L45 29L44 29L44 30L43 30L43 28L44 28L44 25L46 25L46 26L45 26L45 28L46 28L46 29L49 29L49 31L51 31L51 32L50 32L50 34L49 34L49 36L50 36L50 34L51 34L51 32L52 32L52 31L53 31L53 33L54 33L54 32L55 32L55 34L54 34L54 36L55 36L55 34L56 34L56 33L57 33L57 34L58 34L58 36L60 36L60 35L59 35L59 33L57 33L57 32L55 32L55 31L53 31L53 30L51 30L51 29L50 29L50 28L51 28L51 27L52 27L52 29L53 29L53 28L54 28L54 26L55 26L55 27L56 27L56 28L57 28L57 29L58 29L58 26L59 26L59 27L60 27L60 28L59 28L59 29L60 29L60 31L59 31L59 30L56 30L56 29L54 29L54 30L56 30L56 31L58 31L58 32L61 32L61 31L62 31L62 32L63 32L63 27L64 27L64 29L65 29L65 30L64 30L64 31L65 31L65 32L67 32L67 34L68 34L68 31L67 31L67 30L66 30L66 28L65 28L65 27L64 27L64 26L65 26L65 23L64 23L64 21L63 21L63 20L62 20L62 22L63 22L63 23L61 23L61 24L62 24L62 25L64 25L64 26L63 26L63 27L62 27L62 26L61 26L61 25L59 25L59 24L58 24L58 23L59 23L59 22L60 22L60 21L59 21L59 19L60 19L60 18L56 18L56 19L55 19L55 21L56 21L56 25L55 25L55 24L49 24L49 26L48 26L48 24L47 24L47 25L46 25L46 23L48 23L48 22L47 22L47 21L49 21L49 20L48 20L48 17L49 17L49 18L50 18L50 19L51 19L51 18L52 18L52 17L53 17L53 16L56 16L56 15L51 15L51 14L53 14L53 12L52 12L52 11L53 11L53 9L52 9L52 8L51 8L51 9L50 9L50 10L49 10L49 13L46 13L46 12L48 12L48 11L47 11L47 9L46 9L46 8L48 8L48 9L49 9L49 8L50 8L50 6L51 6L51 7L52 7L52 6L51 6L51 5L49 5L49 4L50 4L50 3L49 3L49 2L50 2L50 1ZM55 1L55 2L56 2L56 1ZM20 2L20 3L21 3L21 4L23 4L23 3L21 3L21 2ZM28 2L28 3L30 3L30 2ZM51 2L51 4L52 4L52 5L53 5L53 7L54 7L54 6L55 6L55 7L56 7L56 6L55 6L55 5L56 5L56 4L54 4L54 2L53 2L53 3L52 3L52 2ZM31 3L31 4L30 4L30 5L31 5L31 4L33 4L33 3ZM44 3L44 4L45 4L45 3ZM47 3L47 4L49 4L49 3ZM60 3L60 5L61 5L61 3ZM12 4L12 5L13 5L13 4ZM33 5L33 8L36 8L36 5ZM46 5L46 7L47 7L47 5ZM16 6L16 7L17 7L17 6ZM20 6L20 7L21 7L21 8L22 8L22 9L23 9L23 11L22 11L22 12L24 12L24 13L26 13L26 11L25 11L25 10L24 10L24 9L23 9L23 8L24 8L24 7L23 7L23 8L22 8L22 7L21 7L21 6ZM31 6L31 7L32 7L32 6ZM34 6L34 7L35 7L35 6ZM38 6L38 7L39 7L39 6ZM41 6L41 7L42 7L42 6ZM48 6L48 7L49 7L49 6ZM10 7L10 8L11 8L11 7ZM19 8L19 10L20 10L20 8ZM41 8L41 9L42 9L42 8ZM68 8L68 9L69 9L69 8ZM1 9L1 10L2 10L2 11L1 11L1 12L2 12L2 11L3 11L3 9ZM6 9L6 10L7 10L7 9ZM16 9L16 11L15 11L15 14L16 14L16 11L18 11L18 9ZM31 9L31 10L32 10L32 9ZM58 9L58 10L59 10L59 9ZM38 10L38 11L39 11L39 10ZM63 10L63 11L64 11L64 10ZM34 11L34 13L35 13L35 14L33 14L33 13L32 13L32 15L31 15L31 14L30 14L30 15L29 15L29 14L28 14L28 12L27 12L27 15L29 15L29 16L30 16L30 15L31 15L31 16L32 16L32 15L33 15L33 17L32 17L32 18L30 18L30 17L28 17L28 16L26 16L26 17L28 17L28 18L29 18L29 21L30 21L30 20L31 20L31 21L33 21L33 22L32 22L32 23L33 23L33 25L37 25L37 24L36 24L36 23L35 23L35 22L34 22L34 21L35 21L35 20L36 20L36 21L37 21L37 22L38 22L38 23L39 23L39 24L38 24L38 27L35 27L35 26L33 26L33 27L32 27L32 25L31 25L31 24L30 24L30 22L28 22L28 23L29 23L29 24L27 24L27 23L26 23L26 24L27 24L27 25L26 25L26 26L25 26L25 27L24 27L24 28L25 28L25 31L24 31L24 32L25 32L25 31L28 31L28 35L27 35L27 34L25 34L25 33L23 33L23 30L24 30L24 29L23 29L23 30L21 30L21 31L22 31L22 32L21 32L21 33L23 33L23 34L19 34L19 33L17 33L17 32L16 32L16 30L18 30L18 31L19 31L19 32L20 32L20 31L19 31L19 30L18 30L18 29L15 29L15 32L14 32L14 33L15 33L15 32L16 32L16 33L17 33L17 34L16 34L16 35L17 35L17 34L19 34L19 36L20 36L20 35L21 35L21 36L23 36L23 37L24 37L24 36L25 36L25 37L26 37L26 36L28 36L28 35L31 35L31 34L30 34L30 32L31 32L31 33L32 33L32 36L29 36L29 39L26 39L26 38L25 38L25 39L24 39L24 40L23 40L23 41L21 41L21 42L20 42L20 44L19 44L19 46L18 46L18 48L17 48L17 51L18 51L18 52L20 52L20 53L22 53L22 56L23 56L23 57L24 57L24 58L25 58L25 57L24 57L24 53L22 53L22 51L23 51L23 50L20 50L20 49L19 49L19 51L18 51L18 48L21 48L21 47L19 47L19 46L20 46L20 44L21 44L21 46L22 46L22 45L23 45L23 47L25 47L25 45L23 45L23 44L22 44L22 42L25 42L25 43L24 43L24 44L26 44L26 43L27 43L27 45L30 45L30 42L29 42L29 41L27 41L27 40L29 40L29 39L31 39L31 40L30 40L30 41L32 41L32 42L34 42L34 43L35 43L35 44L36 44L36 41L35 41L35 42L34 42L34 41L33 41L33 40L37 40L37 41L39 41L39 42L38 42L38 43L39 43L39 42L40 42L40 43L43 43L43 42L42 42L42 41L41 41L41 42L40 42L40 40L41 40L41 39L40 39L40 38L39 38L39 37L38 37L38 33L37 33L37 29L39 29L39 31L40 31L40 30L41 30L41 29L42 29L42 28L43 28L43 27L42 27L42 26L41 26L41 27L42 27L42 28L41 28L41 29L39 29L39 28L38 28L38 27L39 27L39 26L40 26L40 25L39 25L39 24L42 24L42 25L44 25L44 23L43 23L43 22L44 22L44 21L43 21L43 20L42 20L42 21L41 21L41 19L43 19L43 18L42 18L42 16L41 16L41 17L40 17L40 14L39 14L39 12L38 12L38 13L37 13L37 15L36 15L36 12L35 12L35 11ZM50 11L50 13L49 13L49 14L48 14L48 15L49 15L49 17L50 17L50 16L51 16L51 17L52 17L52 16L51 16L51 15L50 15L50 14L51 14L51 11ZM11 12L11 13L12 13L12 12ZM54 13L54 14L55 14L55 13ZM38 14L38 15L37 15L37 16L38 16L38 15L39 15L39 14ZM46 14L46 15L47 15L47 14ZM34 15L34 17L36 17L36 18L38 18L38 20L40 20L40 19L39 19L39 17L36 17L36 16L35 16L35 15ZM18 16L18 17L19 17L19 16ZM23 17L23 18L24 18L24 17ZM46 17L46 19L45 19L45 18L44 18L44 20L45 20L45 21L46 21L46 19L47 19L47 17ZM54 17L54 18L55 18L55 17ZM15 18L15 19L17 19L17 18ZM25 18L25 19L26 19L26 20L27 20L27 18ZM32 18L32 19L34 19L34 20L35 20L35 19L34 19L34 18ZM0 19L0 20L2 20L2 19ZM20 19L20 22L21 22L21 19ZM23 19L23 20L24 20L24 19ZM53 19L53 21L52 21L52 20L50 20L50 22L49 22L49 23L50 23L50 22L53 22L53 23L55 23L55 22L53 22L53 21L54 21L54 19ZM56 19L56 20L58 20L58 19ZM0 21L0 22L1 22L1 23L3 23L3 21L2 21L2 22L1 22L1 21ZM15 21L15 22L16 22L16 21ZM40 21L40 22L41 22L41 21ZM6 22L6 23L7 23L7 24L8 24L8 23L7 23L7 22ZM42 23L42 24L43 24L43 23ZM63 23L63 24L64 24L64 23ZM16 24L16 25L17 25L17 24ZM29 24L29 25L28 25L28 26L27 26L27 27L26 27L26 28L27 28L27 27L28 27L28 26L30 26L30 27L29 27L29 28L28 28L28 29L29 29L29 31L33 31L33 30L32 30L32 29L33 29L33 28L34 28L34 30L36 30L36 29L37 29L37 28L36 28L36 29L35 29L35 27L33 27L33 28L31 28L31 25L30 25L30 24ZM57 24L57 26L58 26L58 24ZM67 24L67 25L68 25L68 24ZM50 25L50 27L49 27L49 28L50 28L50 27L51 27L51 26L52 26L52 27L53 27L53 25ZM46 26L46 28L47 28L47 26ZM8 27L8 28L9 28L9 27ZM13 27L13 28L14 28L14 27ZM16 27L16 28L17 28L17 27ZM61 27L61 29L62 29L62 27ZM10 28L10 29L9 29L9 30L10 30L10 29L11 29L11 28ZM0 29L0 30L1 30L1 29ZM26 29L26 30L27 30L27 29ZM30 29L30 30L31 30L31 29ZM6 31L6 32L7 32L7 31ZM26 32L26 33L27 33L27 32ZM45 32L45 33L44 33L44 34L45 34L45 33L46 33L46 32ZM5 33L5 36L8 36L8 33ZM33 33L33 36L36 36L36 33ZM61 33L61 36L64 36L64 33ZM6 34L6 35L7 35L7 34ZM9 34L9 36L10 36L10 34ZM24 34L24 35L23 35L23 36L24 36L24 35L25 35L25 34ZM34 34L34 35L35 35L35 34ZM62 34L62 35L63 35L63 34ZM2 35L2 37L3 37L3 35ZM66 35L66 36L65 36L65 37L63 37L63 38L59 38L59 37L58 37L58 38L57 38L57 39L56 39L56 40L57 40L57 41L58 41L58 40L60 40L60 41L59 41L59 42L56 42L56 43L58 43L58 44L59 44L59 45L60 45L60 43L59 43L59 42L62 42L62 43L61 43L61 44L62 44L62 43L63 43L63 45L61 45L61 46L63 46L63 47L61 47L61 48L63 48L63 50L60 50L60 51L59 51L59 52L61 52L61 51L64 51L64 52L63 52L63 53L66 53L66 52L65 52L65 51L66 51L66 50L65 50L65 49L67 49L67 46L68 46L68 44L67 44L67 41L66 41L66 43L63 43L63 41L64 41L64 40L63 40L63 38L65 38L65 37L66 37L66 36L67 36L67 35ZM6 37L6 38L8 38L8 39L9 39L9 40L10 40L10 38L11 38L11 41L13 41L13 40L12 40L12 37L10 37L10 38L8 38L8 37ZM27 37L27 38L28 38L28 37ZM30 37L30 38L31 38L31 37ZM33 37L33 38L32 38L32 40L33 40L33 39L38 39L38 40L39 40L39 38L38 38L38 37L37 37L37 38L35 38L35 37ZM22 38L22 39L23 39L23 38ZM42 38L42 39L43 39L43 38ZM44 38L44 39L45 39L45 38ZM47 38L47 39L48 39L48 38ZM50 38L50 40L51 40L51 38ZM58 38L58 39L59 39L59 38ZM68 39L68 40L69 40L69 39ZM6 40L6 41L7 41L7 40ZM24 40L24 41L25 41L25 42L26 42L26 41L25 41L25 40ZM61 40L61 41L63 41L63 40ZM9 41L9 44L8 44L8 45L9 45L9 46L10 46L10 45L11 45L11 44L12 44L12 42L11 42L11 44L10 44L10 41ZM27 42L27 43L28 43L28 44L29 44L29 43L28 43L28 42ZM4 43L4 44L7 44L7 43ZM9 44L9 45L10 45L10 44ZM13 44L13 45L14 45L14 44ZM41 44L41 45L42 45L42 44ZM50 45L50 46L49 46L49 48L50 48L50 49L51 49L51 46L52 46L52 49L53 49L53 46L52 46L52 45ZM66 45L66 46L64 46L64 47L65 47L65 48L64 48L64 49L65 49L65 48L66 48L66 46L67 46L67 45ZM16 46L16 47L17 47L17 46ZM23 48L23 49L25 49L25 48ZM34 48L34 49L35 49L35 50L36 50L36 51L37 51L37 50L36 50L36 49L38 49L38 48ZM46 48L46 50L47 50L47 51L50 51L50 50L49 50L49 49L47 49L47 48ZM55 48L55 49L56 49L56 48ZM57 48L57 50L58 50L58 48ZM2 50L2 52L4 52L4 50ZM45 51L45 53L46 53L46 51ZM40 52L40 53L41 53L41 52ZM67 52L67 54L68 54L68 52ZM54 53L54 54L53 54L53 57L50 57L50 58L52 58L52 60L50 60L50 59L49 59L49 61L46 61L46 62L47 62L47 63L48 63L48 62L49 62L49 61L52 61L52 62L54 62L54 63L55 63L55 60L54 60L54 59L56 59L56 61L57 61L57 59L58 59L58 58L59 58L59 59L61 59L61 58L59 58L59 57L60 57L60 55L62 55L62 56L61 56L61 57L62 57L62 58L63 58L63 60L65 60L65 59L64 59L64 58L65 58L65 57L63 57L63 56L64 56L64 55L65 55L65 56L67 56L67 55L65 55L65 54L61 54L61 53L60 53L60 55L59 55L59 54L57 54L57 56L54 56L54 55L56 55L56 54L55 54L55 53ZM2 54L2 55L1 55L1 56L2 56L2 58L3 58L3 57L4 57L4 55L3 55L3 54ZM30 54L30 55L31 55L31 54ZM45 56L45 57L46 57L46 56ZM57 56L57 57L56 57L56 58L57 58L57 57L58 57L58 56ZM5 57L5 58L8 58L8 57ZM12 57L12 58L13 58L13 57ZM53 57L53 58L55 58L55 57ZM33 58L33 59L34 59L34 58ZM38 58L38 59L37 59L37 60L38 60L38 59L39 59L39 58ZM10 59L10 60L8 60L8 61L10 61L10 60L11 60L11 59ZM20 59L20 61L21 61L21 59ZM44 59L44 61L45 61L45 59ZM3 60L3 61L5 61L5 60ZM25 60L25 61L26 61L26 60ZM53 60L53 61L54 61L54 60ZM59 60L59 61L58 61L58 62L57 62L57 63L56 63L56 64L57 64L57 65L59 65L59 66L58 66L58 68L60 68L60 67L59 67L59 66L61 66L61 67L62 67L62 66L63 66L63 65L62 65L62 66L61 66L61 65L59 65L59 64L60 64L60 62L59 62L59 61L60 61L60 60ZM33 61L33 64L36 64L36 61ZM61 61L61 64L64 64L64 61ZM12 62L12 63L13 63L13 64L11 64L11 65L10 65L10 67L9 67L9 68L10 68L10 67L12 67L12 68L13 68L13 67L12 67L12 66L13 66L13 65L14 65L14 62ZM34 62L34 63L35 63L35 62ZM37 62L37 64L39 64L39 62ZM62 62L62 63L63 63L63 62ZM58 63L58 64L59 64L59 63ZM25 64L25 66L26 66L26 64ZM11 65L11 66L12 66L12 65ZM20 65L20 67L21 67L21 65ZM35 65L35 66L37 66L37 65ZM38 65L38 66L39 66L39 68L40 68L40 66L39 66L39 65ZM44 66L44 67L45 67L45 66ZM22 67L22 68L23 68L23 67ZM42 67L42 68L43 68L43 67ZM47 67L47 68L48 68L48 67ZM68 67L68 68L69 68L69 67ZM66 68L66 69L67 69L67 68ZM0 0L0 7L7 7L7 0ZM1 1L1 6L6 6L6 1ZM2 2L2 5L5 5L5 2ZM62 0L62 7L69 7L69 0ZM63 1L63 6L68 6L68 1ZM64 2L64 5L67 5L67 2ZM0 62L0 69L7 69L7 62ZM1 63L1 68L6 68L6 63ZM2 64L2 67L5 67L5 64Z" fill="#000000"/></g></g></svg>
