<?xml version="1.0" encoding="UTF-8"?>
<svg xmlns="http://www.w3.org/2000/svg" version="1.1" width="300" height="300" viewBox="0 0 300 300"><rect x="0" y="0" width="300" height="300" fill="#ffffff"/><g transform="scale(4.348)"><g transform="translate(0,0)"><path fill-rule="evenodd" d="M8 0L8 4L11 4L11 5L8 5L8 7L9 7L9 8L10 8L10 9L11 9L11 10L10 10L10 11L9 11L9 12L10 12L10 11L12 11L12 12L13 12L13 10L14 10L14 12L16 12L16 10L17 10L17 11L19 11L19 10L17 10L17 9L20 9L20 10L22 10L22 11L24 11L24 13L22 13L22 12L20 12L20 15L19 15L19 12L17 12L17 13L12 13L12 16L11 16L11 17L10 17L10 18L9 18L9 16L10 16L10 15L11 15L11 14L9 14L9 13L7 13L7 12L6 12L6 11L7 11L7 10L9 10L9 9L7 9L7 8L4 8L4 9L3 9L3 10L4 10L4 9L5 9L5 11L2 11L2 10L1 10L1 9L2 9L2 8L0 8L0 11L1 11L1 12L0 12L0 14L1 14L1 15L0 15L0 18L2 18L2 19L0 19L0 21L1 21L1 22L2 22L2 23L3 23L3 22L4 22L4 26L3 26L3 27L2 27L2 24L1 24L1 23L0 23L0 30L2 30L2 29L3 29L3 31L0 31L0 33L2 33L2 35L1 35L1 34L0 34L0 36L2 36L2 37L3 37L3 38L1 38L1 37L0 37L0 39L1 39L1 40L0 40L0 41L2 41L2 40L3 40L3 39L4 39L4 40L5 40L5 39L7 39L7 38L5 38L5 39L4 39L4 37L9 37L9 35L10 35L10 37L11 37L11 40L12 40L12 41L11 41L11 42L10 42L10 41L9 41L9 40L10 40L10 39L9 39L9 40L8 40L8 41L9 41L9 42L10 42L10 43L11 43L11 44L10 44L10 45L9 45L9 46L8 46L8 45L7 45L7 44L9 44L9 43L7 43L7 42L6 42L6 43L7 43L7 44L6 44L6 45L7 45L7 46L5 46L5 47L4 47L4 48L3 48L3 47L2 47L2 46L4 46L4 45L1 45L1 44L3 44L3 42L4 42L4 44L5 44L5 42L4 42L4 41L3 41L3 42L1 42L1 44L0 44L0 45L1 45L1 48L0 48L0 49L1 49L1 50L0 50L0 52L2 52L2 49L3 49L3 50L4 50L4 51L3 51L3 52L4 52L4 53L2 53L2 54L1 54L1 53L0 53L0 54L1 54L1 55L2 55L2 57L1 57L1 56L0 56L0 57L1 57L1 58L0 58L0 61L1 61L1 58L2 58L2 59L3 59L3 58L4 58L4 59L7 59L7 60L6 60L6 61L7 61L7 60L8 60L8 62L9 62L9 63L8 63L8 65L9 65L9 67L8 67L8 69L11 69L11 68L16 68L16 69L19 69L19 68L18 68L18 67L20 67L20 66L22 66L22 68L21 68L21 69L22 69L22 68L23 68L23 69L25 69L25 67L26 67L26 66L27 66L27 67L28 67L28 66L30 66L30 65L31 65L31 67L30 67L30 68L29 68L29 69L31 69L31 67L33 67L33 66L32 66L32 65L37 65L37 61L38 61L38 62L39 62L39 61L38 61L38 59L39 59L39 60L41 60L41 62L40 62L40 63L39 63L39 64L38 64L38 66L37 66L37 67L39 67L39 66L40 66L40 63L41 63L41 67L40 67L40 68L38 68L38 69L40 69L40 68L41 68L41 67L42 67L42 68L43 68L43 63L42 63L42 62L43 62L43 61L42 61L42 58L45 58L45 59L46 59L46 61L45 61L45 60L44 60L44 59L43 59L43 60L44 60L44 62L45 62L45 63L44 63L44 69L46 69L46 67L45 67L45 63L46 63L46 64L47 64L47 66L48 66L48 67L47 67L47 69L52 69L52 68L53 68L53 69L54 69L54 67L56 67L56 69L58 69L58 68L57 68L57 67L56 67L56 66L55 66L55 64L54 64L54 63L53 63L53 62L56 62L56 61L58 61L58 60L60 60L60 64L58 64L58 63L57 63L57 64L56 64L56 65L57 65L57 66L58 66L58 67L59 67L59 68L60 68L60 67L59 67L59 66L61 66L61 65L62 65L62 67L61 67L61 69L67 69L67 68L65 68L65 67L67 67L67 66L69 66L69 65L68 65L68 64L69 64L69 63L68 63L68 62L69 62L69 61L68 61L68 60L69 60L69 59L68 59L68 58L69 58L69 57L68 57L68 58L67 58L67 59L68 59L68 60L67 60L67 61L66 61L66 60L64 60L64 57L63 57L63 56L64 56L64 55L66 55L66 54L67 54L67 55L68 55L68 53L69 53L69 52L68 52L68 50L66 50L66 49L65 49L65 50L64 50L64 49L63 49L63 48L64 48L64 45L63 45L63 48L62 48L62 46L58 46L58 45L59 45L59 44L61 44L61 45L62 45L62 41L63 41L63 43L64 43L64 41L66 41L66 42L67 42L67 44L66 44L66 46L65 46L65 47L66 47L66 46L67 46L67 47L68 47L68 46L67 46L67 45L69 45L69 43L68 43L68 38L69 38L69 35L68 35L68 33L69 33L69 32L67 32L67 34L66 34L66 35L68 35L68 37L67 37L67 36L66 36L66 37L65 37L65 33L66 33L66 32L63 32L63 31L64 31L64 30L63 30L63 29L64 29L64 28L65 28L65 29L66 29L66 27L63 27L63 28L62 28L62 27L60 27L60 26L61 26L61 25L62 25L62 26L64 26L64 25L63 25L63 23L64 23L64 20L65 20L65 19L67 19L67 20L68 20L68 21L66 21L66 22L65 22L65 23L66 23L66 22L67 22L67 23L68 23L68 24L69 24L69 23L68 23L68 21L69 21L69 20L68 20L68 18L66 18L66 17L69 17L69 15L68 15L68 14L69 14L69 11L67 11L67 10L63 10L63 9L64 9L64 8L63 8L63 9L62 9L62 10L61 10L61 6L60 6L60 7L59 7L59 4L58 4L58 7L57 7L57 5L56 5L56 4L55 4L55 3L59 3L59 2L57 2L57 1L55 1L55 0L53 0L53 1L54 1L54 2L51 2L51 1L52 1L52 0L50 0L50 4L48 4L48 5L47 5L47 6L46 6L46 7L45 7L45 6L44 6L44 5L46 5L46 4L47 4L47 1L48 1L48 3L49 3L49 1L48 1L48 0L47 0L47 1L46 1L46 0L45 0L45 1L44 1L44 0L41 0L41 1L40 1L40 0L38 0L38 1L40 1L40 2L39 2L39 3L40 3L40 4L41 4L41 5L40 5L40 8L38 8L38 7L39 7L39 4L38 4L38 3L35 3L35 2L37 2L37 0L34 0L34 1L35 1L35 2L34 2L34 4L32 4L32 3L31 3L31 4L29 4L29 3L27 3L27 4L26 4L26 3L25 3L25 4L23 4L23 2L24 2L24 1L26 1L26 2L27 2L27 1L28 1L28 2L30 2L30 1L31 1L31 2L32 2L32 1L33 1L33 0L32 0L32 1L31 1L31 0L22 0L22 1L21 1L21 0L17 0L17 1L16 1L16 0L15 0L15 1L16 1L16 2L14 2L14 3L13 3L13 1L14 1L14 0L12 0L12 1L11 1L11 2L10 2L10 3L9 3L9 1L10 1L10 0ZM58 0L58 1L61 1L61 0ZM19 1L19 2L16 2L16 3L17 3L17 4L15 4L15 5L14 5L14 4L13 4L13 3L12 3L12 2L11 2L11 4L13 4L13 5L12 5L12 6L11 6L11 7L12 7L12 8L11 8L11 9L12 9L12 8L13 8L13 7L14 7L14 6L15 6L15 8L16 8L16 9L17 9L17 8L19 8L19 7L20 7L20 6L21 6L21 8L20 8L20 9L22 9L22 10L23 10L23 9L24 9L24 10L25 10L25 13L26 13L26 14L23 14L23 15L20 15L20 16L22 16L22 17L19 17L19 16L18 16L18 17L16 17L16 18L14 18L14 17L15 17L15 15L18 15L18 14L14 14L14 16L13 16L13 19L12 19L12 17L11 17L11 18L10 18L10 19L9 19L9 20L10 20L10 19L11 19L11 20L12 20L12 21L11 21L11 22L8 22L8 24L9 24L9 29L6 29L6 28L8 28L8 27L6 27L6 26L7 26L7 25L6 25L6 24L7 24L7 23L6 23L6 22L7 22L7 21L8 21L8 20L7 20L7 19L6 19L6 18L8 18L8 17L6 17L6 16L8 16L8 15L5 15L5 17L4 17L4 14L7 14L7 13L6 13L6 12L4 12L4 14L3 14L3 16L2 16L2 15L1 15L1 16L2 16L2 17L4 17L4 18L3 18L3 20L1 20L1 21L4 21L4 18L5 18L5 25L6 25L6 26L5 26L5 27L4 27L4 30L7 30L7 31L6 31L6 32L7 32L7 31L8 31L8 32L9 32L9 33L10 33L10 32L11 32L11 29L13 29L13 32L15 32L15 33L11 33L11 34L10 34L10 35L11 35L11 34L12 34L12 36L11 36L11 37L12 37L12 39L13 39L13 40L15 40L15 38L13 38L13 37L12 37L12 36L14 36L14 35L13 35L13 34L15 34L15 33L16 33L16 35L15 35L15 36L16 36L16 39L19 39L19 42L17 42L17 40L16 40L16 41L15 41L15 43L16 43L16 42L17 42L17 43L18 43L18 44L19 44L19 47L20 47L20 48L21 48L21 47L23 47L23 48L22 48L22 49L19 49L19 48L18 48L18 49L17 49L17 47L18 47L18 46L17 46L17 45L16 45L16 44L14 44L14 41L12 41L12 45L11 45L11 46L9 46L9 48L8 48L8 47L6 47L6 48L7 48L7 49L5 49L5 51L6 51L6 52L5 52L5 53L4 53L4 55L3 55L3 57L5 57L5 58L7 58L7 59L8 59L8 60L9 60L9 59L11 59L11 63L9 63L9 64L10 64L10 65L11 65L11 66L10 66L10 67L9 67L9 68L10 68L10 67L12 67L12 65L13 65L13 67L17 67L17 65L18 65L18 64L19 64L19 65L20 65L20 64L19 64L19 62L20 62L20 63L21 63L21 64L22 64L22 66L23 66L23 65L30 65L30 64L31 64L31 65L32 65L32 64L31 64L31 63L32 63L32 62L31 62L31 63L30 63L30 64L28 64L28 63L27 63L27 64L26 64L26 63L24 63L24 64L23 64L23 62L22 62L22 61L26 61L26 60L27 60L27 61L28 61L28 62L29 62L29 60L27 60L27 59L32 59L32 60L31 60L31 61L32 61L32 60L33 60L33 57L32 57L32 58L29 58L29 57L30 57L30 56L33 56L33 53L34 53L34 60L37 60L37 59L36 59L36 58L37 58L37 57L39 57L39 58L40 58L40 59L41 59L41 58L40 58L40 57L41 57L41 56L42 56L42 57L44 57L44 54L45 54L45 53L46 53L46 54L47 54L47 56L49 56L49 57L46 57L46 58L47 58L47 59L49 59L49 64L50 64L50 65L49 65L49 66L50 66L50 67L48 67L48 68L50 68L50 67L51 67L51 66L52 66L52 67L53 67L53 64L52 64L52 65L51 65L51 64L50 64L50 63L52 63L52 61L56 61L56 60L57 60L57 59L58 59L58 58L59 58L59 57L60 57L60 56L58 56L58 55L59 55L59 53L60 53L60 55L61 55L61 57L62 57L62 59L61 59L61 60L63 60L63 57L62 57L62 56L63 56L63 55L64 55L64 54L65 54L65 52L67 52L67 51L65 51L65 52L64 52L64 50L62 50L62 48L61 48L61 50L62 50L62 51L63 51L63 53L64 53L64 54L62 54L62 55L61 55L61 53L62 53L62 52L60 52L60 50L59 50L59 49L60 49L60 48L59 48L59 47L58 47L58 46L57 46L57 47L56 47L56 44L55 44L55 43L56 43L56 41L55 41L55 38L56 38L56 36L57 36L57 35L56 35L56 34L57 34L57 33L56 33L56 32L55 32L55 31L56 31L56 30L57 30L57 29L56 29L56 27L57 27L57 25L58 25L58 31L59 31L59 33L58 33L58 35L60 35L60 32L62 32L62 31L63 31L63 30L62 30L62 29L61 29L61 30L60 30L60 31L59 31L59 29L60 29L60 28L59 28L59 25L61 25L61 24L62 24L62 23L63 23L63 22L62 22L62 21L63 21L63 19L64 19L64 17L66 17L66 16L67 16L67 13L68 13L68 12L67 12L67 11L65 11L65 12L64 12L64 13L63 13L63 12L60 12L60 13L58 13L58 12L57 12L57 13L56 13L56 12L55 12L55 11L53 11L53 10L52 10L52 9L55 9L55 10L56 10L56 11L57 11L57 9L58 9L58 10L59 10L59 9L60 9L60 8L59 8L59 9L58 9L58 8L57 8L57 9L56 9L56 8L53 8L53 7L54 7L54 5L53 5L53 4L52 4L52 3L51 3L51 5L49 5L49 7L48 7L48 6L47 6L47 8L45 8L45 7L44 7L44 6L43 6L43 8L40 8L40 10L41 10L41 14L40 14L40 13L39 13L39 15L42 15L42 13L43 13L43 12L42 12L42 10L41 10L41 9L43 9L43 11L46 11L46 10L47 10L47 8L49 8L49 7L50 7L50 6L51 6L51 7L52 7L52 9L51 9L51 10L52 10L52 11L53 11L53 12L52 12L52 13L53 13L53 12L55 12L55 15L54 15L54 14L53 14L53 15L52 15L52 14L50 14L50 12L49 12L49 15L47 15L47 16L46 16L46 14L47 14L47 13L46 13L46 14L45 14L45 13L44 13L44 14L43 14L43 17L44 17L44 14L45 14L45 17L46 17L46 18L49 18L49 19L50 19L50 21L48 21L48 23L47 23L47 25L46 25L46 26L47 26L47 25L48 25L48 27L49 27L49 25L51 25L51 26L52 26L52 27L50 27L50 28L52 28L52 30L51 30L51 31L50 31L50 29L48 29L48 30L47 30L47 28L46 28L46 31L47 31L47 32L49 32L49 31L50 31L50 33L49 33L49 35L50 35L50 37L48 37L48 34L47 34L47 33L46 33L46 32L45 32L45 33L44 33L44 30L43 30L43 31L40 31L40 33L44 33L44 34L43 34L43 35L42 35L42 37L43 37L43 38L41 38L41 36L40 36L40 35L41 35L41 34L38 34L38 33L39 33L39 32L37 32L37 34L38 34L38 35L37 35L37 37L36 37L36 39L34 39L34 38L35 38L35 37L33 37L33 39L32 39L32 35L30 35L30 36L31 36L31 40L30 40L30 41L29 41L29 39L30 39L30 37L29 37L29 34L28 34L28 35L25 35L25 36L23 36L23 34L22 34L22 33L29 33L29 32L26 32L26 31L25 31L25 30L26 30L26 26L24 26L24 25L21 25L21 23L22 23L22 24L24 24L24 23L25 23L25 25L26 25L26 24L28 24L28 26L29 26L29 27L28 27L28 28L29 28L29 27L30 27L30 26L29 26L29 25L30 25L30 24L31 24L31 23L32 23L32 26L31 26L31 27L33 27L33 28L32 28L32 29L27 29L27 30L28 30L28 31L30 31L30 32L31 32L31 34L32 34L32 32L35 32L35 31L39 31L39 30L38 30L38 29L40 29L40 30L42 30L42 28L43 28L43 29L44 29L44 28L45 28L45 27L44 27L44 28L43 28L43 26L41 26L41 25L42 25L42 24L43 24L43 25L44 25L44 24L45 24L45 23L44 23L44 20L46 20L46 19L44 19L44 18L41 18L41 17L42 17L42 16L40 16L40 19L39 19L39 18L38 18L38 17L39 17L39 16L38 16L38 15L37 15L37 14L35 14L35 13L34 13L34 11L36 11L36 9L35 9L35 10L34 10L34 9L32 9L32 11L31 11L31 10L30 10L30 9L31 9L31 8L32 8L32 6L31 6L31 5L32 5L32 4L31 4L31 5L30 5L30 6L29 6L29 7L28 7L28 5L29 5L29 4L28 4L28 5L27 5L27 7L26 7L26 5L25 5L25 9L24 9L24 6L23 6L23 5L20 5L20 3L22 3L22 2L23 2L23 1L22 1L22 2L20 2L20 1ZM41 1L41 2L42 2L42 4L43 4L43 5L44 5L44 4L45 4L45 3L46 3L46 2L45 2L45 3L44 3L44 2L42 2L42 1ZM43 3L43 4L44 4L44 3ZM60 3L60 5L61 5L61 3ZM17 4L17 6L16 6L16 5L15 5L15 6L16 6L16 7L17 7L17 6L18 6L18 7L19 7L19 6L20 6L20 5L19 5L19 4ZM13 5L13 6L12 6L12 7L13 7L13 6L14 6L14 5ZM33 5L33 8L36 8L36 5ZM37 5L37 7L38 7L38 5ZM52 5L52 7L53 7L53 5ZM9 6L9 7L10 7L10 6ZM22 6L22 8L23 8L23 6ZM30 6L30 7L29 7L29 9L30 9L30 8L31 8L31 6ZM34 6L34 7L35 7L35 6ZM41 6L41 7L42 7L42 6ZM55 6L55 7L56 7L56 6ZM27 7L27 8L26 8L26 10L27 10L27 11L26 11L26 13L27 13L27 15L28 15L28 16L26 16L26 15L24 15L24 16L23 16L23 18L22 18L22 19L21 19L21 18L20 18L20 19L17 19L17 18L16 18L16 19L17 19L17 20L15 20L15 21L17 21L17 22L18 22L18 23L16 23L16 22L15 22L15 23L14 23L14 21L12 21L12 22L11 22L11 23L10 23L10 27L11 27L11 28L12 28L12 27L13 27L13 28L14 28L14 30L15 30L15 32L16 32L16 33L17 33L17 35L16 35L16 36L17 36L17 37L18 37L18 38L19 38L19 39L20 39L20 40L21 40L21 39L22 39L22 40L23 40L23 39L24 39L24 41L23 41L23 42L22 42L22 41L20 41L20 42L19 42L19 43L21 43L21 44L20 44L20 46L21 46L21 45L22 45L22 46L23 46L23 47L24 47L24 48L25 48L25 49L22 49L22 51L23 51L23 52L24 52L24 51L25 51L25 52L26 52L26 54L25 54L25 53L23 53L23 54L25 54L25 56L22 56L22 55L21 55L21 53L22 53L22 52L21 52L21 50L20 50L20 51L19 51L19 49L18 49L18 51L19 51L19 52L15 52L15 51L14 51L14 49L15 49L15 50L16 50L16 51L17 51L17 50L16 50L16 49L15 49L15 48L16 48L16 45L15 45L15 47L14 47L14 44L13 44L13 46L11 46L11 47L10 47L10 48L9 48L9 49L11 49L11 48L12 48L12 47L13 47L13 48L14 48L14 49L12 49L12 50L13 50L13 52L12 52L12 51L10 51L10 50L9 50L9 54L10 54L10 52L11 52L11 53L13 53L13 54L11 54L11 55L9 55L9 57L8 57L8 58L9 58L9 57L10 57L10 56L11 56L11 55L12 55L12 56L14 56L14 57L13 57L13 58L11 58L11 59L13 59L13 61L14 61L14 63L15 63L15 64L13 64L13 65L14 65L14 66L16 66L16 65L17 65L17 64L16 64L16 63L18 63L18 61L19 61L19 60L20 60L20 59L19 59L19 58L17 58L17 57L19 57L19 56L20 56L20 58L21 58L21 57L24 57L24 58L25 58L25 59L26 59L26 58L28 58L28 57L29 57L29 56L28 56L28 57L27 57L27 56L26 56L26 54L28 54L28 55L30 55L30 54L31 54L31 50L30 50L30 49L32 49L32 48L31 48L31 47L30 47L30 49L29 49L29 50L28 50L28 51L27 51L27 49L28 49L28 47L29 47L29 46L32 46L32 47L33 47L33 49L34 49L34 43L35 43L35 41L36 41L36 43L37 43L37 44L36 44L36 45L38 45L38 46L37 46L37 47L36 47L36 46L35 46L35 47L36 47L36 48L37 48L37 49L38 49L38 50L39 50L39 51L37 51L37 53L36 53L36 52L35 52L35 51L36 51L36 49L35 49L35 50L32 50L32 53L33 53L33 51L34 51L34 52L35 52L35 54L36 54L36 55L35 55L35 58L36 58L36 57L37 57L37 56L36 56L36 55L37 55L37 53L38 53L38 52L39 52L39 57L40 57L40 55L42 55L42 54L44 54L44 53L45 53L45 50L46 50L46 51L47 51L47 52L46 52L46 53L48 53L48 54L49 54L49 53L50 53L50 55L49 55L49 56L50 56L50 62L51 62L51 59L52 59L52 58L54 58L54 59L55 59L55 60L56 60L56 59L55 59L55 57L54 57L54 55L55 55L55 56L56 56L56 58L58 58L58 56L56 56L56 54L57 54L57 55L58 55L58 53L59 53L59 50L58 50L58 49L59 49L59 48L58 48L58 47L57 47L57 48L56 48L56 50L55 50L55 49L54 49L54 47L53 47L53 46L55 46L55 44L53 44L53 46L52 46L52 42L53 42L53 43L55 43L55 41L54 41L54 40L53 40L53 41L52 41L52 39L53 39L53 38L55 38L55 37L54 37L54 36L53 36L53 38L52 38L52 39L51 39L51 37L52 37L52 35L54 35L54 34L56 34L56 33L55 33L55 32L54 32L54 33L52 33L52 32L51 32L51 33L50 33L50 35L51 35L51 37L50 37L50 39L49 39L49 38L48 38L48 37L47 37L47 34L46 34L46 33L45 33L45 34L44 34L44 37L45 37L45 38L43 38L43 39L41 39L41 38L40 38L40 39L39 39L39 41L38 41L38 38L39 38L39 37L40 37L40 36L38 36L38 37L37 37L37 40L35 40L35 41L34 41L34 40L31 40L31 41L30 41L30 42L29 42L29 43L28 43L28 37L27 37L27 36L26 36L26 37L23 37L23 38L22 38L22 36L21 36L21 37L19 37L19 35L20 35L20 34L21 34L21 33L22 33L22 32L25 32L25 31L23 31L23 30L25 30L25 29L23 29L23 30L22 30L22 28L24 28L24 27L23 27L23 26L22 26L22 27L21 27L21 28L20 28L20 27L19 27L19 26L21 26L21 25L19 25L19 24L18 24L18 23L19 23L19 22L18 22L18 21L20 21L20 23L21 23L21 21L22 21L22 20L23 20L23 19L24 19L24 18L25 18L25 17L26 17L26 19L27 19L27 20L26 20L26 21L25 21L25 20L24 20L24 21L23 21L23 22L25 22L25 23L26 23L26 21L27 21L27 22L28 22L28 23L30 23L30 21L31 21L31 22L32 22L32 23L33 23L33 25L34 25L34 28L33 28L33 31L34 31L34 30L35 30L35 29L34 29L34 28L35 28L35 27L36 27L36 26L37 26L37 27L38 27L38 26L39 26L39 27L40 27L40 28L42 28L42 27L40 27L40 23L41 23L41 22L40 22L40 20L39 20L39 19L34 19L34 16L35 16L35 18L36 18L36 17L38 17L38 16L37 16L37 15L36 15L36 16L35 16L35 14L34 14L34 15L33 15L33 12L32 12L32 13L31 13L31 11L29 11L29 12L28 12L28 7ZM37 8L37 10L38 10L38 11L39 11L39 10L38 10L38 8ZM44 8L44 9L45 9L45 10L46 10L46 9L45 9L45 8ZM65 8L65 9L69 9L69 8ZM6 9L6 10L7 10L7 9ZM49 9L49 11L50 11L50 9ZM33 10L33 11L34 11L34 10ZM60 10L60 11L61 11L61 10ZM27 12L27 13L28 13L28 15L29 15L29 14L30 14L30 16L31 16L31 15L32 15L32 18L29 18L29 16L28 16L28 17L27 17L27 19L28 19L28 18L29 18L29 20L31 20L31 21L34 21L34 23L36 23L36 24L35 24L35 25L36 25L36 24L38 24L38 25L37 25L37 26L38 26L38 25L39 25L39 23L40 23L40 22L39 22L39 20L38 20L38 21L37 21L37 20L36 20L36 21L37 21L37 22L35 22L35 21L34 21L34 19L33 19L33 15L32 15L32 14L31 14L31 13L28 13L28 12ZM36 12L36 13L38 13L38 12ZM66 12L66 13L67 13L67 12ZM57 13L57 14L58 14L58 16L57 16L57 15L56 15L56 17L57 17L57 19L56 19L56 18L55 18L55 17L54 17L54 16L53 16L53 17L50 17L50 16L47 16L47 17L50 17L50 18L52 18L52 19L51 19L51 21L50 21L50 22L49 22L49 23L48 23L48 25L49 25L49 24L51 24L51 25L52 25L52 24L53 24L53 22L55 22L55 23L56 23L56 25L57 25L57 24L58 24L58 23L57 23L57 22L58 22L58 21L59 21L59 22L61 22L61 23L59 23L59 24L61 24L61 23L62 23L62 22L61 22L61 20L62 20L62 19L63 19L63 17L64 17L64 16L65 16L65 13L64 13L64 14L63 14L63 13L62 13L62 14L61 14L61 13L60 13L60 14L61 14L61 15L59 15L59 14L58 14L58 13ZM62 14L62 15L61 15L61 19L59 19L59 16L58 16L58 19L57 19L57 21L58 21L58 20L61 20L61 19L62 19L62 15L63 15L63 14ZM18 17L18 18L19 18L19 17ZM53 18L53 19L52 19L52 21L51 21L51 22L50 22L50 23L51 23L51 24L52 24L52 22L53 22L53 21L55 21L55 20L54 20L54 18ZM13 19L13 20L14 20L14 19ZM31 19L31 20L32 20L32 19ZM6 20L6 21L7 21L7 20ZM17 20L17 21L18 21L18 20ZM28 21L28 22L29 22L29 21ZM42 21L42 23L43 23L43 21ZM46 21L46 22L47 22L47 21ZM11 23L11 27L12 27L12 26L13 26L13 23ZM14 24L14 28L15 28L15 29L16 29L16 32L17 32L17 33L18 33L18 32L19 32L19 33L20 33L20 28L19 28L19 30L18 30L18 31L17 31L17 29L16 29L16 28L17 28L17 26L18 26L18 25L17 25L17 24ZM54 24L54 25L53 25L53 26L55 26L55 24ZM66 24L66 25L65 25L65 26L67 26L67 29L68 29L68 30L65 30L65 31L68 31L68 30L69 30L69 29L68 29L68 28L69 28L69 27L68 27L68 26L67 26L67 24ZM15 25L15 27L16 27L16 26L17 26L17 25ZM1 27L1 29L2 29L2 27ZM5 27L5 28L6 28L6 27ZM52 27L52 28L54 28L54 29L53 29L53 30L52 30L52 31L55 31L55 30L56 30L56 29L55 29L55 28L54 28L54 27ZM36 28L36 30L37 30L37 29L38 29L38 28ZM8 30L8 31L9 31L9 32L10 32L10 31L9 31L9 30ZM21 30L21 32L22 32L22 30ZM31 30L31 32L32 32L32 30ZM61 30L61 31L62 31L62 30ZM5 33L5 36L8 36L8 33ZM33 33L33 36L36 36L36 33ZM51 33L51 34L52 34L52 33ZM61 33L61 36L64 36L64 33ZM6 34L6 35L7 35L7 34ZM18 34L18 35L17 35L17 36L18 36L18 35L19 35L19 34ZM34 34L34 35L35 35L35 34ZM45 34L45 37L46 37L46 42L45 42L45 43L44 43L44 40L45 40L45 39L43 39L43 42L38 42L38 41L37 41L37 42L38 42L38 43L41 43L41 44L43 44L43 46L44 46L44 48L43 48L43 49L44 49L44 50L45 50L45 49L46 49L46 50L47 50L47 51L48 51L48 52L50 52L50 53L51 53L51 55L54 55L54 53L53 53L53 52L52 52L52 53L51 53L51 52L50 52L50 51L49 51L49 50L50 50L50 49L51 49L51 51L53 51L53 47L52 47L52 46L51 46L51 48L49 48L49 47L48 47L48 48L49 48L49 50L48 50L48 49L47 49L47 48L45 48L45 46L44 46L44 44L46 44L46 46L47 46L47 44L48 44L48 43L47 43L47 42L48 42L48 41L47 41L47 37L46 37L46 34ZM62 34L62 35L63 35L63 34ZM2 35L2 36L3 36L3 35ZM59 36L59 37L58 37L58 39L57 39L57 41L58 41L58 42L57 42L57 43L58 43L58 44L57 44L57 45L58 45L58 44L59 44L59 43L58 43L58 42L59 42L59 41L60 41L60 42L61 42L61 41L62 41L62 40L61 40L61 41L60 41L60 40L58 40L58 39L59 39L59 38L62 38L62 39L64 39L64 40L63 40L63 41L64 41L64 40L67 40L67 37L66 37L66 38L65 38L65 37L60 37L60 36ZM20 38L20 39L21 39L21 38ZM24 38L24 39L25 39L25 38ZM26 38L26 40L27 40L27 38ZM64 38L64 39L65 39L65 38ZM40 39L40 41L41 41L41 39ZM50 39L50 40L49 40L49 43L50 43L50 44L49 44L49 46L50 46L50 45L51 45L51 42L52 42L52 41L51 41L51 42L50 42L50 40L51 40L51 39ZM6 40L6 41L7 41L7 40ZM24 41L24 42L25 42L25 43L26 43L26 44L25 44L25 46L24 46L24 47L26 47L26 48L27 48L27 46L26 46L26 44L27 44L27 43L26 43L26 42L27 42L27 41ZM32 41L32 42L31 42L31 43L30 43L30 44L31 44L31 43L32 43L32 42L33 42L33 41ZM21 42L21 43L22 43L22 42ZM23 43L23 44L22 44L22 45L23 45L23 44L24 44L24 43ZM28 44L28 46L29 46L29 44ZM32 44L32 45L33 45L33 44ZM38 44L38 45L39 45L39 47L38 47L38 48L39 48L39 47L41 47L41 48L40 48L40 51L41 51L41 49L42 49L42 45L41 45L41 46L40 46L40 45L39 45L39 44ZM1 48L1 49L2 49L2 48ZM44 48L44 49L45 49L45 48ZM57 48L57 49L58 49L58 48ZM67 48L67 49L68 49L68 48ZM25 49L25 51L26 51L26 49ZM6 50L6 51L7 51L7 50ZM29 50L29 52L30 52L30 50ZM42 50L42 51L43 51L43 52L40 52L40 53L44 53L44 51L43 51L43 50ZM56 50L56 51L55 51L55 53L56 53L56 52L57 52L57 53L58 53L58 52L57 52L57 50ZM6 52L6 53L8 53L8 52ZM13 52L13 53L15 53L15 54L13 54L13 55L17 55L17 54L18 54L18 55L19 55L19 54L20 54L20 52L19 52L19 54L18 54L18 53L15 53L15 52ZM28 53L28 54L30 54L30 53ZM52 53L52 54L53 54L53 53ZM6 54L6 55L7 55L7 56L5 56L5 55L4 55L4 56L5 56L5 57L7 57L7 56L8 56L8 54ZM20 55L20 56L21 56L21 55ZM15 56L15 57L14 57L14 58L13 58L13 59L14 59L14 58L15 58L15 57L17 57L17 56ZM25 56L25 57L26 57L26 56ZM52 56L52 57L51 57L51 58L52 58L52 57L53 57L53 56ZM65 57L65 58L66 58L66 57ZM16 58L16 59L15 59L15 60L14 60L14 61L15 61L15 60L16 60L16 62L15 62L15 63L16 63L16 62L17 62L17 60L19 60L19 59L17 59L17 58ZM22 58L22 60L21 60L21 61L20 61L20 62L21 62L21 63L22 63L22 62L21 62L21 61L22 61L22 60L24 60L24 59L23 59L23 58ZM3 60L3 61L5 61L5 60ZM9 61L9 62L10 62L10 61ZM33 61L33 64L36 64L36 61ZM46 61L46 63L47 63L47 64L48 64L48 63L47 63L47 61ZM61 61L61 64L64 64L64 61ZM12 62L12 63L11 63L11 64L12 64L12 63L13 63L13 62ZM34 62L34 63L35 63L35 62ZM62 62L62 63L63 63L63 62ZM66 62L66 63L65 63L65 66L66 66L66 65L67 65L67 64L68 64L68 63L67 63L67 62ZM15 64L15 65L16 65L16 64ZM57 64L57 65L58 65L58 66L59 66L59 65L58 65L58 64ZM50 65L50 66L51 66L51 65ZM24 66L24 67L25 67L25 66ZM35 66L35 67L34 67L34 68L32 68L32 69L35 69L35 67L36 67L36 66ZM63 66L63 67L62 67L62 68L63 68L63 67L64 67L64 66ZM26 68L26 69L27 69L27 68ZM36 68L36 69L37 69L37 68ZM68 68L68 69L69 69L69 68ZM0 0L0 7L7 7L7 0ZM1 1L1 6L6 6L6 1ZM2 2L2 5L5 5L5 2ZM62 0L62 7L69 7L69 0ZM63 1L63 6L68 6L68 1ZM64 2L64 5L67 5L67 2ZM0 62L0 69L7 69L7 62ZM1 63L1 68L6 68L6 63ZM2 64L2 67L5 67L5 64Z" fill="#000000"/></g></g></svg>
