<?xml version="1.0" encoding="UTF-8"?>
<svg xmlns="http://www.w3.org/2000/svg" version="1.1" width="300" height="300" viewBox="0 0 300 300"><rect x="0" y="0" width="300" height="300" fill="#ffffff"/><g transform="scale(4.348)"><g transform="translate(0,0)"><path fill-rule="evenodd" d="M8 0L8 2L9 2L9 1L10 1L10 3L12 3L12 4L11 4L11 5L9 5L9 4L8 4L8 9L9 9L9 10L8 10L8 11L9 11L9 12L8 12L8 13L7 13L7 12L6 12L6 11L7 11L7 10L6 10L6 9L7 9L7 8L5 8L5 9L3 9L3 8L0 8L0 9L1 9L1 10L0 10L0 11L1 11L1 14L0 14L0 15L2 15L2 16L1 16L1 18L0 18L0 19L1 19L1 18L2 18L2 17L3 17L3 19L2 19L2 20L0 20L0 22L1 22L1 23L0 23L0 25L1 25L1 26L0 26L0 27L2 27L2 28L3 28L3 30L2 30L2 29L0 29L0 33L1 33L1 34L0 34L0 35L1 35L1 36L0 36L0 39L2 39L2 40L0 40L0 41L2 41L2 42L3 42L3 43L4 43L4 45L5 45L5 42L4 42L4 41L2 41L2 40L3 40L3 39L4 39L4 40L5 40L5 39L7 39L7 40L6 40L6 41L7 41L7 40L8 40L8 42L6 42L6 43L7 43L7 44L6 44L6 45L9 45L9 46L11 46L11 47L10 47L10 48L9 48L9 47L8 47L8 46L6 46L6 47L5 47L5 46L2 46L2 45L3 45L3 44L2 44L2 45L1 45L1 44L0 44L0 47L2 47L2 49L3 49L3 50L4 50L4 51L5 51L5 50L6 50L6 51L7 51L7 50L8 50L8 53L9 53L9 52L10 52L10 54L6 54L6 53L7 53L7 52L4 52L4 53L3 53L3 51L2 51L2 53L1 53L1 56L0 56L0 61L1 61L1 57L2 57L2 55L3 55L3 57L4 57L4 59L7 59L7 58L6 58L6 57L8 57L8 56L11 56L11 53L12 53L12 54L13 54L13 56L14 56L14 57L12 57L12 58L10 58L10 57L9 57L9 58L8 58L8 59L9 59L9 58L10 58L10 61L11 61L11 63L12 63L12 64L13 64L13 65L15 65L15 66L14 66L14 67L15 67L15 69L16 69L16 67L17 67L17 68L18 68L18 69L19 69L19 68L18 68L18 67L19 67L19 66L18 66L18 65L19 65L19 64L18 64L18 63L21 63L21 62L22 62L22 63L23 63L23 64L22 64L22 65L21 65L21 64L20 64L20 65L21 65L21 66L20 66L20 67L21 67L21 69L23 69L23 68L24 68L24 69L25 69L25 68L26 68L26 69L29 69L29 67L28 67L28 66L29 66L29 62L30 62L30 61L32 61L32 62L31 62L31 64L30 64L30 65L31 65L31 64L32 64L32 66L33 66L33 68L32 68L32 69L37 69L37 68L36 68L36 67L35 67L35 68L34 68L34 65L35 65L35 66L36 66L36 65L37 65L37 66L38 66L38 65L39 65L39 66L40 66L40 65L41 65L41 67L40 67L40 69L41 69L41 67L42 67L42 68L43 68L43 67L44 67L44 69L45 69L45 67L44 67L44 65L47 65L47 64L48 64L48 66L47 66L47 67L46 67L46 69L47 69L47 68L48 68L48 69L51 69L51 67L50 67L50 65L49 65L49 64L48 64L48 61L49 61L49 63L51 63L51 64L52 64L52 67L53 67L53 65L54 65L54 64L55 64L55 63L56 63L56 66L55 66L55 67L54 67L54 68L52 68L52 69L57 69L57 68L58 68L58 69L60 69L60 67L62 67L62 66L64 66L64 67L63 67L63 69L65 69L65 68L66 68L66 69L67 69L67 68L66 68L66 67L69 67L69 66L67 66L67 65L66 65L66 63L67 63L67 64L68 64L68 65L69 65L69 64L68 64L68 63L69 63L69 60L66 60L66 58L68 58L68 59L69 59L69 58L68 58L68 57L65 57L65 54L66 54L66 53L67 53L67 54L68 54L68 55L67 55L67 56L68 56L68 55L69 55L69 52L68 52L68 51L69 51L69 45L68 45L68 43L69 43L69 38L68 38L68 39L67 39L67 40L66 40L66 39L65 39L65 38L66 38L66 37L67 37L67 36L66 36L66 35L67 35L67 34L66 34L66 33L65 33L65 32L66 32L66 30L68 30L68 31L69 31L69 28L68 28L68 27L69 27L69 25L68 25L68 27L67 27L67 24L68 24L68 23L69 23L69 22L68 22L68 21L69 21L69 20L68 20L68 19L69 19L69 16L68 16L68 15L69 15L69 13L68 13L68 15L67 15L67 12L66 12L66 11L67 11L67 10L66 10L66 9L65 9L65 8L60 8L60 7L61 7L61 6L60 6L60 7L59 7L59 4L58 4L58 3L59 3L59 2L58 2L58 1L61 1L61 0L58 0L58 1L57 1L57 2L56 2L56 3L55 3L55 2L50 2L50 1L51 1L51 0L50 0L50 1L49 1L49 2L50 2L50 3L49 3L49 4L48 4L48 3L47 3L47 2L48 2L48 0L46 0L46 1L45 1L45 2L46 2L46 3L47 3L47 4L46 4L46 5L47 5L47 6L46 6L46 7L47 7L47 8L44 8L44 9L43 9L43 11L41 11L41 13L40 13L40 14L41 14L41 13L42 13L42 12L44 12L44 13L43 13L43 15L42 15L42 16L40 16L40 17L39 17L39 18L38 18L38 16L39 16L39 14L38 14L38 12L37 12L37 11L40 11L40 10L42 10L42 8L43 8L43 6L42 6L42 5L43 5L43 4L44 4L44 7L45 7L45 4L44 4L44 2L43 2L43 4L42 4L42 5L41 5L41 4L40 4L40 3L42 3L42 2L41 2L41 0L40 0L40 3L39 3L39 0L38 0L38 1L37 1L37 0L32 0L32 2L31 2L31 3L32 3L32 8L31 8L31 4L30 4L30 3L28 3L28 5L29 5L29 6L28 6L28 7L27 7L27 5L26 5L26 7L27 7L27 8L26 8L26 9L27 9L27 11L26 11L26 10L25 10L25 6L24 6L24 5L25 5L25 4L24 4L24 5L23 5L23 6L22 6L22 7L21 7L21 6L20 6L20 5L22 5L22 2L24 2L24 3L26 3L26 2L24 2L24 1L27 1L27 0L24 0L24 1L23 1L23 0L22 0L22 2L20 2L20 1L21 1L21 0L18 0L18 2L17 2L17 0L16 0L16 2L15 2L15 3L14 3L14 0L13 0L13 3L12 3L12 1L11 1L11 0ZM29 0L29 1L28 1L28 2L30 2L30 0ZM42 0L42 1L44 1L44 0ZM54 0L54 1L56 1L56 0ZM34 1L34 2L32 2L32 3L33 3L33 4L35 4L35 3L34 3L34 2L35 2L35 1ZM36 1L36 4L37 4L37 1ZM46 1L46 2L47 2L47 1ZM16 2L16 3L17 3L17 2ZM13 3L13 4L12 4L12 5L11 5L11 7L10 7L10 6L9 6L9 8L11 8L11 9L10 9L10 10L11 10L11 14L13 14L13 15L12 15L12 16L11 16L11 15L10 15L10 16L11 16L11 17L10 17L10 18L9 18L9 17L8 17L8 18L9 18L9 19L10 19L10 20L8 20L8 19L6 19L6 18L7 18L7 17L6 17L6 16L9 16L9 15L8 15L8 14L10 14L10 12L9 12L9 13L8 13L8 14L7 14L7 13L6 13L6 12L5 12L5 11L4 11L4 10L3 10L3 11L2 11L2 10L1 10L1 11L2 11L2 14L3 14L3 15L4 15L4 13L6 13L6 14L5 14L5 16L3 16L3 17L6 17L6 18L5 18L5 19L4 19L4 20L2 20L2 21L1 21L1 22L3 22L3 23L1 23L1 24L3 24L3 26L4 26L4 24L5 24L5 21L6 21L6 22L7 22L7 23L6 23L6 24L7 24L7 25L6 25L6 26L5 26L5 28L4 28L4 27L3 27L3 28L4 28L4 29L5 29L5 31L4 31L4 30L3 30L3 31L1 31L1 33L3 33L3 34L4 34L4 32L8 32L8 29L6 29L6 28L7 28L7 27L6 27L6 26L7 26L7 25L8 25L8 28L9 28L9 29L10 29L10 30L9 30L9 32L10 32L10 30L11 30L11 32L13 32L13 31L12 31L12 30L13 30L13 28L14 28L14 30L15 30L15 24L16 24L16 22L17 22L17 23L18 23L18 22L17 22L17 21L18 21L18 19L17 19L17 18L19 18L19 16L21 16L21 18L20 18L20 19L22 19L22 20L21 20L21 21L20 21L20 22L19 22L19 23L20 23L20 24L19 24L19 25L20 25L20 26L16 26L16 27L20 27L20 28L19 28L19 29L18 29L18 28L17 28L17 29L16 29L16 31L15 31L15 33L11 33L11 34L10 34L10 35L11 35L11 40L12 40L12 41L11 41L11 43L10 43L10 42L8 42L8 44L9 44L9 45L10 45L10 44L11 44L11 43L13 43L13 42L14 42L14 43L15 43L15 44L14 44L14 45L13 45L13 44L12 44L12 46L14 46L14 48L13 48L13 49L11 49L11 48L10 48L10 50L9 50L9 49L8 49L8 47L6 47L6 48L7 48L7 49L6 49L6 50L7 50L7 49L8 49L8 50L9 50L9 51L10 51L10 52L12 52L12 53L13 53L13 54L14 54L14 55L16 55L16 56L17 56L17 58L16 58L16 59L17 59L17 58L18 58L18 60L19 60L19 61L20 61L20 62L21 62L21 61L20 61L20 60L22 60L22 59L23 59L23 60L24 60L24 66L23 66L23 65L22 65L22 68L23 68L23 67L24 67L24 68L25 68L25 67L27 67L27 64L28 64L28 62L29 62L29 61L30 61L30 58L31 58L31 57L32 57L32 56L33 56L33 57L34 57L34 58L36 58L36 60L37 60L37 58L36 58L36 57L37 57L37 51L36 51L36 52L35 52L35 51L34 51L34 52L35 52L35 53L34 53L34 56L33 56L33 54L32 54L32 53L33 53L33 52L32 52L32 53L30 53L30 51L31 51L31 50L30 50L30 47L31 47L31 48L33 48L33 50L35 50L35 49L34 49L34 48L35 48L35 46L36 46L36 45L34 45L34 44L33 44L33 43L32 43L32 44L31 44L31 46L30 46L30 47L26 47L26 48L27 48L27 49L26 49L26 50L25 50L25 49L24 49L24 51L23 51L23 50L20 50L20 51L22 51L22 52L21 52L21 53L20 53L20 54L19 54L19 53L18 53L18 51L19 51L19 48L18 48L18 47L19 47L19 45L18 45L18 44L19 44L19 43L20 43L20 48L21 48L21 45L22 45L22 46L23 46L23 45L24 45L24 47L23 47L23 48L24 48L24 47L25 47L25 46L27 46L27 45L26 45L26 43L27 43L27 41L26 41L26 40L27 40L27 39L28 39L28 40L29 40L29 41L28 41L28 43L29 43L29 44L30 44L30 42L31 42L31 40L30 40L30 39L31 39L31 38L32 38L32 36L31 36L31 35L32 35L32 33L31 33L31 35L29 35L29 34L28 34L28 35L29 35L29 37L28 37L28 36L27 36L27 32L28 32L28 31L29 31L29 29L30 29L30 31L32 31L32 32L33 32L33 31L32 31L32 30L31 30L31 29L30 29L30 28L31 28L31 27L30 27L30 26L32 26L32 25L30 25L30 26L29 26L29 25L28 25L28 23L29 23L29 21L28 21L28 23L27 23L27 22L26 22L26 19L25 19L25 15L24 15L24 16L23 16L23 17L22 17L22 16L21 16L21 15L22 15L22 14L21 14L21 13L20 13L20 12L21 12L21 11L22 11L22 10L23 10L23 9L22 9L22 10L21 10L21 9L20 9L20 8L19 8L19 9L18 9L18 4L19 4L19 3L18 3L18 4L16 4L16 5L14 5L14 3ZM38 3L38 4L39 4L39 3ZM52 3L52 4L51 4L51 7L50 7L50 6L49 6L49 5L48 5L48 6L47 6L47 7L48 7L48 8L47 8L47 9L46 9L46 10L45 10L45 12L46 12L46 14L45 14L45 13L44 13L44 15L43 15L43 17L42 17L42 18L41 18L41 17L40 17L40 19L41 19L41 21L42 21L42 24L43 24L43 25L42 25L42 26L41 26L41 25L40 25L40 24L41 24L41 22L40 22L40 24L39 24L39 23L38 23L38 26L39 26L39 25L40 25L40 28L43 28L43 29L40 29L40 30L42 30L42 35L43 35L43 37L42 37L42 36L41 36L41 37L40 37L40 35L41 35L41 34L39 34L39 33L40 33L40 31L39 31L39 27L38 27L38 28L37 28L37 27L36 27L36 28L37 28L37 31L36 31L36 29L35 29L35 30L34 30L34 31L36 31L36 32L37 32L37 31L39 31L39 32L38 32L38 35L37 35L37 39L36 39L36 38L35 38L35 37L33 37L33 41L34 41L34 42L35 42L35 43L36 43L36 44L37 44L37 48L36 48L36 49L37 49L37 48L38 48L38 50L39 50L39 49L40 49L40 52L38 52L38 53L40 53L40 52L41 52L41 49L40 49L40 48L41 48L41 47L43 47L43 45L44 45L44 46L45 46L45 47L44 47L44 48L43 48L43 49L42 49L42 50L43 50L43 51L42 51L42 54L44 54L44 55L42 55L42 56L41 56L41 57L42 57L42 58L45 58L45 57L46 57L46 58L48 58L48 57L47 57L47 55L45 55L45 54L44 54L44 51L46 51L46 50L47 50L47 52L46 52L46 54L47 54L47 53L48 53L48 54L49 54L49 53L50 53L50 56L51 56L51 57L49 57L49 60L51 60L51 61L50 61L50 62L51 62L51 63L52 63L52 64L53 64L53 63L55 63L55 62L56 62L56 63L58 63L58 66L57 66L57 67L60 67L60 66L62 66L62 65L59 65L59 63L60 63L60 61L58 61L58 60L57 60L57 59L58 59L58 58L59 58L59 59L60 59L60 58L61 58L61 60L63 60L63 59L62 59L62 58L63 58L63 57L64 57L64 58L65 58L65 57L64 57L64 54L65 54L65 53L64 53L64 54L63 54L63 52L62 52L62 50L63 50L63 48L64 48L64 50L66 50L66 52L67 52L67 51L68 51L68 50L67 50L67 48L68 48L68 46L67 46L67 45L65 45L65 44L64 44L64 42L67 42L67 41L68 41L68 40L67 40L67 41L66 41L66 40L64 40L64 38L65 38L65 37L66 37L66 36L65 36L65 37L63 37L63 43L62 43L62 42L61 42L61 41L62 41L62 37L60 37L60 38L59 38L59 36L60 36L60 34L59 34L59 32L58 32L58 31L57 31L57 33L56 33L56 32L54 32L54 34L53 34L53 33L52 33L52 31L54 31L54 30L55 30L55 31L56 31L56 30L55 30L55 29L56 29L56 28L58 28L58 30L59 30L59 28L58 28L58 27L60 27L60 30L61 30L61 27L62 27L62 28L63 28L63 29L62 29L62 31L60 31L60 32L62 32L62 31L63 31L63 30L64 30L64 31L65 31L65 30L66 30L66 29L67 29L67 27L66 27L66 26L65 26L65 30L64 30L64 27L63 27L63 26L64 26L64 23L62 23L62 22L66 22L66 24L65 24L65 25L66 25L66 24L67 24L67 23L68 23L68 22L66 22L66 21L64 21L64 20L65 20L65 19L66 19L66 20L67 20L67 21L68 21L68 20L67 20L67 19L68 19L68 18L67 18L67 17L65 17L65 19L64 19L64 16L65 16L65 15L66 15L66 16L67 16L67 15L66 15L66 13L64 13L64 12L65 12L65 10L64 10L64 9L62 9L62 10L63 10L63 11L64 11L64 12L63 12L63 13L62 13L62 12L60 12L60 10L61 10L61 9L60 9L60 8L59 8L59 7L58 7L58 4L57 4L57 3L56 3L56 4L55 4L55 3ZM60 3L60 5L61 5L61 3ZM54 4L54 5L55 5L55 4ZM56 4L56 5L57 5L57 4ZM12 5L12 7L11 7L11 8L12 8L12 7L13 7L13 9L12 9L12 11L13 11L13 10L14 10L14 11L15 11L15 12L16 12L16 13L17 13L17 12L16 12L16 11L19 11L19 12L18 12L18 13L19 13L19 14L20 14L20 15L21 15L21 14L20 14L20 13L19 13L19 12L20 12L20 11L21 11L21 10L20 10L20 9L19 9L19 10L18 10L18 9L17 9L17 10L16 10L16 11L15 11L15 10L14 10L14 8L15 8L15 9L16 9L16 8L17 8L17 5L16 5L16 8L15 8L15 6L14 6L14 7L13 7L13 5ZM33 5L33 8L36 8L36 5ZM38 5L38 6L37 6L37 7L38 7L38 6L39 6L39 9L38 9L38 8L37 8L37 9L35 9L35 10L34 10L34 9L32 9L32 10L31 10L31 8L30 8L30 6L29 6L29 7L28 7L28 8L27 8L27 9L28 9L28 11L27 11L27 13L28 13L28 14L29 14L29 15L28 15L28 16L27 16L27 15L26 15L26 16L27 16L27 17L26 17L26 18L27 18L27 20L29 20L29 19L28 19L28 18L30 18L30 20L31 20L31 19L32 19L32 20L33 20L33 21L34 21L34 20L35 20L35 21L36 21L36 22L35 22L35 23L32 23L32 24L33 24L33 25L36 25L36 26L37 26L37 25L36 25L36 24L35 24L35 23L36 23L36 22L37 22L37 21L36 21L36 20L37 20L37 19L36 19L36 20L35 20L35 19L34 19L34 20L33 20L33 19L32 19L32 17L34 17L34 18L35 18L35 17L37 17L37 16L38 16L38 15L36 15L36 14L37 14L37 12L36 12L36 11L37 11L37 9L38 9L38 10L40 10L40 5ZM52 5L52 7L51 7L51 8L50 8L50 7L49 7L49 6L48 6L48 7L49 7L49 8L48 8L48 9L47 9L47 10L46 10L46 11L48 11L48 13L47 13L47 14L46 14L46 16L45 16L45 15L44 15L44 17L45 17L45 18L46 18L46 19L45 19L45 20L44 20L44 21L43 21L43 20L42 20L42 21L43 21L43 23L44 23L44 21L45 21L45 23L47 23L47 26L46 26L46 25L45 25L45 24L44 24L44 25L45 25L45 27L46 27L46 28L44 28L44 27L43 27L43 26L42 26L42 27L43 27L43 28L44 28L44 30L43 30L43 31L44 31L44 34L43 34L43 35L44 35L44 37L43 37L43 38L42 38L42 37L41 37L41 38L40 38L40 37L39 37L39 36L38 36L38 37L39 37L39 38L38 38L38 39L37 39L37 41L36 41L36 39L35 39L35 38L34 38L34 41L36 41L36 43L38 43L38 39L39 39L39 38L40 38L40 41L39 41L39 42L42 42L42 43L41 43L41 44L42 44L42 45L43 45L43 44L42 44L42 43L44 43L44 45L45 45L45 46L46 46L46 47L48 47L48 45L49 45L49 43L50 43L50 45L51 45L51 43L52 43L52 41L53 41L53 44L52 44L52 45L55 45L55 44L54 44L54 43L57 43L57 44L56 44L56 46L57 46L57 47L54 47L54 49L53 49L53 48L52 48L52 46L51 46L51 47L50 47L50 48L48 48L48 53L49 53L49 52L50 52L50 53L51 53L51 54L52 54L52 53L53 53L53 56L52 56L52 55L51 55L51 56L52 56L52 58L51 58L51 60L52 60L52 61L53 61L53 62L52 62L52 63L53 63L53 62L54 62L54 60L53 60L53 59L57 59L57 58L58 58L58 57L57 57L57 55L58 55L58 53L62 53L62 52L61 52L61 49L60 49L60 48L62 48L62 47L65 47L65 49L66 49L66 47L67 47L67 46L64 46L64 44L62 44L62 43L60 43L60 40L61 40L61 39L60 39L60 40L59 40L59 38L58 38L58 36L59 36L59 35L58 35L58 36L56 36L56 37L57 37L57 39L56 39L56 38L54 38L54 37L55 37L55 36L54 36L54 35L56 35L56 33L55 33L55 34L54 34L54 35L53 35L53 34L52 34L52 33L51 33L51 34L52 34L52 35L53 35L53 36L52 36L52 37L53 37L53 38L52 38L52 39L51 39L51 38L50 38L50 37L51 37L51 36L50 36L50 35L48 35L48 37L49 37L49 38L48 38L48 41L47 41L47 39L46 39L46 35L47 35L47 34L50 34L50 32L48 32L48 31L51 31L51 30L50 30L50 29L51 29L51 28L50 28L50 27L52 27L52 30L54 30L54 29L55 29L55 28L56 28L56 27L58 27L58 25L59 25L59 22L60 22L60 21L61 21L61 22L62 22L62 20L63 20L63 19L62 19L62 17L63 17L63 14L62 14L62 13L61 13L61 15L62 15L62 17L61 17L61 16L60 16L60 15L59 15L59 14L58 14L58 13L59 13L59 12L58 12L58 13L57 13L57 10L58 10L58 11L59 11L59 10L60 10L60 9L59 9L59 8L58 8L58 7L57 7L57 6L56 6L56 7L55 7L55 6L54 6L54 7L53 7L53 5ZM19 6L19 7L20 7L20 6ZM23 6L23 7L22 7L22 8L23 8L23 7L24 7L24 6ZM34 6L34 7L35 7L35 6ZM41 6L41 8L42 8L42 6ZM52 7L52 8L51 8L51 9L50 9L50 10L49 10L49 9L48 9L48 11L50 11L50 10L51 10L51 11L52 11L52 10L53 10L53 11L54 11L54 12L53 12L53 13L54 13L54 14L52 14L52 15L53 15L53 16L54 16L54 15L55 15L55 13L54 13L54 12L55 12L55 11L54 11L54 10L56 10L56 9L54 9L54 10L53 10L53 9L52 9L52 8L53 8L53 7ZM54 7L54 8L55 8L55 7ZM67 8L67 9L68 9L68 11L69 11L69 8ZM58 9L58 10L59 10L59 9ZM24 10L24 11L25 11L25 10ZM30 10L30 11L28 11L28 13L29 13L29 12L30 12L30 13L31 13L31 12L30 12L30 11L31 11L31 10ZM32 10L32 11L33 11L33 12L32 12L32 13L34 13L34 10ZM3 11L3 12L4 12L4 11ZM12 12L12 13L13 13L13 14L14 14L14 15L13 15L13 16L14 16L14 17L13 17L13 18L14 18L14 19L15 19L15 20L13 20L13 19L12 19L12 17L11 17L11 20L10 20L10 21L8 21L8 20L6 20L6 21L7 21L7 22L8 22L8 23L7 23L7 24L8 24L8 25L11 25L11 28L10 28L10 26L9 26L9 28L10 28L10 29L11 29L11 30L12 30L12 29L11 29L11 28L13 28L13 27L12 27L12 26L13 26L13 25L11 25L11 24L15 24L15 22L14 22L14 21L16 21L16 20L17 20L17 19L15 19L15 18L17 18L17 16L14 16L14 15L15 15L15 14L14 14L14 13L13 13L13 12ZM23 12L23 13L24 13L24 14L25 14L25 13L24 13L24 12ZM49 12L49 13L48 13L48 16L46 16L46 18L47 18L47 19L46 19L46 20L45 20L45 21L46 21L46 22L47 22L47 23L49 23L49 24L50 24L50 26L53 26L53 28L54 28L54 27L55 27L55 26L56 26L56 24L58 24L58 23L57 23L57 21L54 21L54 20L53 20L53 21L54 21L54 22L52 22L52 19L53 19L53 17L52 17L52 16L51 16L51 15L49 15L49 13L50 13L50 14L51 14L51 13L52 13L52 12L51 12L51 13L50 13L50 12ZM35 13L35 14L34 14L34 15L35 15L35 16L34 16L34 17L35 17L35 16L36 16L36 15L35 15L35 14L36 14L36 13ZM56 13L56 16L55 16L55 17L54 17L54 18L55 18L55 19L56 19L56 18L55 18L55 17L56 17L56 16L57 16L57 17L58 17L58 18L59 18L59 17L60 17L60 19L61 19L61 20L62 20L62 19L61 19L61 17L60 17L60 16L59 16L59 15L58 15L58 14L57 14L57 13ZM6 14L6 15L7 15L7 14ZM16 14L16 15L17 15L17 14ZM31 14L31 15L30 15L30 17L32 17L32 15L33 15L33 14ZM18 15L18 16L19 16L19 15ZM28 16L28 17L29 17L29 16ZM48 16L48 21L47 21L47 22L48 22L48 21L49 21L49 22L50 22L50 23L51 23L51 24L52 24L52 25L53 25L53 24L52 24L52 22L50 22L50 21L51 21L51 20L50 20L50 19L49 19L49 17L50 17L50 16ZM23 18L23 20L22 20L22 21L23 21L23 23L22 23L22 24L23 24L23 23L24 23L24 25L25 25L25 22L24 22L24 21L25 21L25 19L24 19L24 18ZM42 18L42 19L44 19L44 18ZM66 18L66 19L67 19L67 18ZM58 19L58 20L59 20L59 19ZM4 20L4 21L3 21L3 22L4 22L4 21L5 21L5 20ZM11 20L11 22L10 22L10 24L11 24L11 22L12 22L12 23L14 23L14 22L12 22L12 21L13 21L13 20ZM38 20L38 21L40 21L40 20ZM49 20L49 21L50 21L50 20ZM31 21L31 22L32 22L32 21ZM58 21L58 22L59 22L59 21ZM54 22L54 23L55 23L55 24L56 24L56 23L55 23L55 22ZM8 23L8 24L9 24L9 23ZM26 23L26 27L25 27L25 26L24 26L24 27L25 27L25 28L24 28L24 29L23 29L23 28L20 28L20 29L19 29L19 30L18 30L18 29L17 29L17 31L16 31L16 32L17 32L17 35L16 35L16 33L15 33L15 34L11 34L11 35L14 35L14 37L13 37L13 36L12 36L12 40L13 40L13 41L12 41L12 42L13 42L13 41L14 41L14 42L15 42L15 41L14 41L14 40L15 40L15 39L16 39L16 41L17 41L17 42L16 42L16 43L17 43L17 42L18 42L18 43L19 43L19 40L21 40L21 42L20 42L20 43L22 43L22 45L23 45L23 44L24 44L24 45L25 45L25 43L24 43L24 42L25 42L25 40L26 40L26 39L25 39L25 38L24 38L24 37L25 37L25 36L24 36L24 35L25 35L25 34L24 34L24 33L25 33L25 30L24 30L24 29L25 29L25 28L26 28L26 29L27 29L27 31L26 31L26 32L27 32L27 31L28 31L28 29L29 29L29 28L30 28L30 27L29 27L29 26L28 26L28 25L27 25L27 23ZM30 23L30 24L31 24L31 23ZM17 24L17 25L18 25L18 24ZM20 24L20 25L21 25L21 24ZM62 24L62 25L63 25L63 24ZM20 26L20 27L22 27L22 26ZM33 26L33 27L34 27L34 28L35 28L35 27L34 27L34 26ZM26 27L26 28L27 28L27 29L28 29L28 28L29 28L29 27L28 27L28 28L27 28L27 27ZM47 27L47 28L46 28L46 30L47 30L47 31L45 31L45 30L44 30L44 31L45 31L45 32L46 32L46 34L44 34L44 35L46 35L46 34L47 34L47 33L48 33L48 32L47 32L47 31L48 31L48 30L47 30L47 29L48 29L48 27ZM32 28L32 29L33 29L33 28ZM20 29L20 30L21 30L21 33L20 33L20 32L19 32L19 31L18 31L18 32L19 32L19 33L18 33L18 34L19 34L19 36L21 36L21 37L20 37L20 38L19 38L19 37L18 37L18 36L17 36L17 37L16 37L16 36L15 36L15 37L16 37L16 39L17 39L17 40L19 40L19 39L21 39L21 38L22 38L22 35L24 35L24 34L22 34L22 30L21 30L21 29ZM6 30L6 31L7 31L7 30ZM23 30L23 32L24 32L24 30ZM3 31L3 32L4 32L4 31ZM29 32L29 33L30 33L30 32ZM67 32L67 33L68 33L68 37L69 37L69 33L68 33L68 32ZM5 33L5 36L8 36L8 33ZM33 33L33 36L36 36L36 33ZM61 33L61 36L64 36L64 33ZM6 34L6 35L7 35L7 34ZM20 34L20 35L21 35L21 34ZM34 34L34 35L35 35L35 34ZM62 34L62 35L63 35L63 34ZM65 34L65 35L66 35L66 34ZM3 35L3 37L2 37L2 39L3 39L3 38L7 38L7 37L4 37L4 35ZM9 36L9 37L8 37L8 38L9 38L9 37L10 37L10 36ZM26 36L26 37L27 37L27 38L28 38L28 39L29 39L29 38L28 38L28 37L27 37L27 36ZM30 36L30 37L31 37L31 36ZM14 38L14 39L15 39L15 38ZM17 38L17 39L19 39L19 38ZM41 38L41 41L42 41L42 42L43 42L43 41L44 41L44 43L46 43L46 44L45 44L45 45L46 45L46 46L47 46L47 45L48 45L48 44L47 44L47 41L46 41L46 39L45 39L45 38L43 38L43 41L42 41L42 38ZM22 39L22 40L23 40L23 39ZM24 39L24 40L25 40L25 39ZM53 39L53 40L55 40L55 39ZM44 40L44 41L45 41L45 42L46 42L46 41L45 41L45 40ZM49 40L49 41L50 41L50 43L51 43L51 40ZM22 41L22 42L23 42L23 41ZM54 41L54 42L56 42L56 41ZM58 41L58 42L57 42L57 43L58 43L58 44L57 44L57 45L58 45L58 46L60 46L60 47L57 47L57 48L60 48L60 47L62 47L62 46L63 46L63 45L61 45L61 44L60 44L60 43L58 43L58 42L59 42L59 41ZM9 43L9 44L10 44L10 43ZM66 43L66 44L67 44L67 43ZM15 44L15 46L16 46L16 48L14 48L14 49L13 49L13 50L11 50L11 51L13 51L13 52L16 52L16 49L17 49L17 46L18 46L18 45L17 45L17 46L16 46L16 44ZM38 44L38 45L39 45L39 44ZM59 44L59 45L60 45L60 44ZM28 45L28 46L29 46L29 45ZM33 45L33 46L34 46L34 45ZM40 45L40 46L41 46L41 45ZM31 46L31 47L32 47L32 46ZM3 47L3 49L4 49L4 47ZM33 47L33 48L34 48L34 47ZM38 47L38 48L39 48L39 47ZM0 48L0 52L1 52L1 48ZM28 48L28 49L29 49L29 48ZM44 48L44 50L46 50L46 49L47 49L47 48ZM51 48L51 49L50 49L50 50L49 50L49 51L50 51L50 52L51 52L51 53L52 53L52 52L54 52L54 58L55 58L55 57L56 57L56 58L57 58L57 57L56 57L56 55L57 55L57 53L58 53L58 52L57 52L57 51L58 51L58 50L59 50L59 52L60 52L60 50L59 50L59 49L58 49L58 50L57 50L57 49L56 49L56 52L55 52L55 51L53 51L53 50L52 50L52 48ZM54 49L54 50L55 50L55 49ZM13 50L13 51L15 51L15 50ZM26 50L26 51L25 51L25 52L26 52L26 53L27 53L27 50ZM28 50L28 51L29 51L29 50ZM50 50L50 51L51 51L51 52L52 52L52 50ZM64 51L64 52L65 52L65 51ZM22 52L22 53L23 53L23 54L24 54L24 55L22 55L22 56L24 56L24 57L25 57L25 58L24 58L24 59L25 59L25 60L26 60L26 61L27 61L27 60L28 60L28 59L29 59L29 58L30 58L30 57L31 57L31 56L30 56L30 55L32 55L32 54L30 54L30 53L29 53L29 54L28 54L28 55L26 55L26 54L24 54L24 53L23 53L23 52ZM56 52L56 53L55 53L55 55L56 55L56 53L57 53L57 52ZM15 53L15 54L16 54L16 53ZM35 53L35 54L36 54L36 53ZM3 54L3 55L5 55L5 56L8 56L8 55L5 55L5 54ZM17 54L17 55L19 55L19 56L18 56L18 58L20 58L20 59L19 59L19 60L20 60L20 59L22 59L22 58L20 58L20 57L21 57L21 56L20 56L20 55L21 55L21 54L20 54L20 55L19 55L19 54ZM59 54L59 58L60 58L60 57L62 57L62 56L63 56L63 54L62 54L62 55L61 55L61 56L60 56L60 54ZM24 55L24 56L26 56L26 55ZM35 55L35 56L34 56L34 57L36 57L36 55ZM38 55L38 56L39 56L39 57L38 57L38 62L37 62L37 65L38 65L38 62L39 62L39 65L40 65L40 62L41 62L41 61L42 61L42 62L43 62L43 65L42 65L42 63L41 63L41 65L42 65L42 67L43 67L43 65L44 65L44 62L43 62L43 61L44 61L44 59L41 59L41 58L40 58L40 55ZM44 55L44 57L45 57L45 55ZM14 57L14 60L13 60L13 61L12 61L12 62L13 62L13 64L15 64L15 65L16 65L16 66L15 66L15 67L16 67L16 66L17 66L17 67L18 67L18 66L17 66L17 65L16 65L16 64L17 64L17 63L16 63L16 64L15 64L15 62L14 62L14 60L15 60L15 61L16 61L16 62L17 62L17 61L16 61L16 60L15 60L15 57ZM28 57L28 58L29 58L29 57ZM2 58L2 59L3 59L3 58ZM25 58L25 59L26 59L26 58ZM39 58L39 59L40 59L40 58ZM11 59L11 60L12 60L12 59ZM32 59L32 60L34 60L34 59ZM45 59L45 60L46 60L46 62L45 62L45 63L46 63L46 64L47 64L47 61L48 61L48 59L47 59L47 60L46 60L46 59ZM64 59L64 60L65 60L65 61L66 61L66 62L67 62L67 61L66 61L66 60L65 60L65 59ZM3 60L3 61L5 61L5 60ZM6 60L6 61L7 61L7 60ZM8 60L8 62L9 62L9 63L8 63L8 64L10 64L10 62L9 62L9 60ZM39 60L39 61L41 61L41 60ZM56 60L56 61L57 61L57 62L58 62L58 61L57 61L57 60ZM33 61L33 64L36 64L36 61ZM61 61L61 64L64 64L64 61ZM34 62L34 63L35 63L35 62ZM62 62L62 63L63 63L63 62ZM26 63L26 64L27 64L27 63ZM9 65L9 66L8 66L8 69L9 69L9 66L11 66L11 69L12 69L12 65ZM64 65L64 66L65 66L65 65ZM24 66L24 67L25 67L25 66ZM30 66L30 67L31 67L31 66ZM49 67L49 68L50 68L50 67ZM64 67L64 68L65 68L65 67ZM13 68L13 69L14 69L14 68ZM30 68L30 69L31 69L31 68ZM38 68L38 69L39 69L39 68ZM68 68L68 69L69 69L69 68ZM0 0L0 7L7 7L7 0ZM1 1L1 6L6 6L6 1ZM2 2L2 5L5 5L5 2ZM62 0L62 7L69 7L69 0ZM63 1L63 6L68 6L68 1ZM64 2L64 5L67 5L67 2ZM0 62L0 69L7 69L7 62ZM1 63L1 68L6 68L6 63ZM2 64L2 67L5 67L5 64Z" fill="#000000"/></g></g></svg>
