<?xml version="1.0" encoding="UTF-8"?>
<svg xmlns="http://www.w3.org/2000/svg" version="1.1" width="300" height="300" viewBox="0 0 300 300"><rect x="0" y="0" width="300" height="300" fill="#ffffff"/><g transform="scale(4.615)"><g transform="translate(0,0)"><path fill-rule="evenodd" d="M8 0L8 4L9 4L9 5L8 5L8 7L9 7L9 8L10 8L10 7L11 7L11 5L13 5L13 3L14 3L14 2L15 2L15 0L14 0L14 2L11 2L11 3L12 3L12 4L9 4L9 1L13 1L13 0ZM17 0L17 1L18 1L18 2L19 2L19 1L20 1L20 2L21 2L21 1L23 1L23 2L22 2L22 3L19 3L19 4L18 4L18 3L17 3L17 2L16 2L16 3L15 3L15 4L14 4L14 8L12 8L12 10L11 10L11 11L10 11L10 12L9 12L9 10L10 10L10 9L9 9L9 10L8 10L8 9L7 9L7 8L4 8L4 9L7 9L7 10L6 10L6 11L5 11L5 10L2 10L2 8L0 8L0 9L1 9L1 11L0 11L0 12L1 12L1 11L2 11L2 12L3 12L3 11L4 11L4 13L3 13L3 15L2 15L2 13L0 13L0 15L2 15L2 16L0 16L0 18L1 18L1 17L2 17L2 19L1 19L1 20L2 20L2 21L3 21L3 22L1 22L1 21L0 21L0 23L1 23L1 24L0 24L0 26L3 26L3 29L2 29L2 28L1 28L1 29L0 29L0 30L4 30L4 31L1 31L1 32L0 32L0 34L1 34L1 32L3 32L3 33L2 33L2 34L3 34L3 33L4 33L4 35L3 35L3 36L4 36L4 35L5 35L5 37L4 37L4 38L3 38L3 37L1 37L1 35L0 35L0 40L2 40L2 41L1 41L1 42L3 42L3 45L2 45L2 46L0 46L0 48L1 48L1 47L2 47L2 46L3 46L3 47L4 47L4 46L6 46L6 47L7 47L7 48L6 48L6 49L7 49L7 50L6 50L6 51L7 51L7 50L8 50L8 51L9 51L9 54L10 54L10 55L9 55L9 57L8 57L8 58L9 58L9 59L8 59L8 61L9 61L9 59L11 59L11 60L13 60L13 61L10 61L10 62L13 62L13 61L14 61L14 63L15 63L15 64L13 64L13 63L11 63L11 64L12 64L12 65L20 65L20 64L17 64L17 62L18 62L18 61L19 61L19 63L20 63L20 62L21 62L21 65L22 65L22 62L23 62L23 61L24 61L24 62L25 62L25 63L26 63L26 65L27 65L27 61L30 61L30 62L28 62L28 65L31 65L31 64L30 64L30 63L32 63L32 64L33 64L33 63L32 63L32 62L33 62L33 61L34 61L34 65L37 65L37 63L38 63L38 65L40 65L40 64L41 64L41 65L42 65L42 64L41 64L41 61L40 61L40 60L41 60L41 59L43 59L43 60L42 60L42 63L43 63L43 60L44 60L44 61L48 61L48 62L47 62L47 63L46 63L46 64L47 64L47 65L49 65L49 64L50 64L50 62L51 62L51 65L52 65L52 64L53 64L53 63L54 63L54 62L55 62L55 64L54 64L54 65L61 65L61 64L62 64L62 65L64 65L64 64L65 64L65 62L62 62L62 61L63 61L63 60L64 60L64 59L65 59L65 54L64 54L64 55L63 55L63 53L62 53L62 51L61 51L61 52L59 52L59 51L60 51L60 50L64 50L64 52L65 52L65 49L63 49L63 48L62 48L62 47L63 47L63 46L64 46L64 48L65 48L65 46L64 46L64 45L65 45L65 40L64 40L64 39L65 39L65 34L64 34L64 35L63 35L63 34L62 34L62 31L61 31L61 30L62 30L62 26L64 26L64 27L63 27L63 28L64 28L64 31L63 31L63 33L64 33L64 31L65 31L65 26L64 26L64 24L65 24L65 18L64 18L64 20L62 20L62 15L59 15L59 14L58 14L58 13L61 13L61 12L62 12L62 14L64 14L64 16L63 16L63 17L64 17L64 16L65 16L65 13L63 13L63 12L64 12L64 11L65 11L65 10L64 10L64 11L63 11L63 12L62 12L62 10L63 10L63 9L65 9L65 8L61 8L61 9L62 9L62 10L61 10L61 12L60 12L60 10L58 10L58 9L57 9L57 8L56 8L56 7L57 7L57 6L56 6L56 7L55 7L55 5L54 5L54 4L56 4L56 5L57 5L57 4L56 4L56 3L57 3L57 1L56 1L56 0L55 0L55 1L56 1L56 3L55 3L55 2L53 2L53 3L52 3L52 1L51 1L51 0L50 0L50 2L49 2L49 4L50 4L50 5L46 5L46 4L47 4L47 1L46 1L46 0L45 0L45 1L44 1L44 2L43 2L43 0L41 0L41 1L42 1L42 2L43 2L43 3L41 3L41 2L40 2L40 1L39 1L39 0L38 0L38 1L36 1L36 0L35 0L35 3L38 3L38 7L37 7L37 6L36 6L36 4L34 4L34 2L33 2L33 4L32 4L32 3L31 3L31 2L32 2L32 1L34 1L34 0L29 0L29 2L28 2L28 1L25 1L25 0L24 0L24 1L23 1L23 0L19 0L19 1L18 1L18 0ZM53 0L53 1L54 1L54 0ZM45 1L45 2L44 2L44 5L45 5L45 4L46 4L46 1ZM26 2L26 3L25 3L25 5L23 5L23 4L22 4L22 5L21 5L21 7L22 7L22 5L23 5L23 7L24 7L24 6L25 6L25 9L26 9L26 8L27 8L27 7L28 7L28 8L29 8L29 9L27 9L27 10L26 10L26 11L25 11L25 10L24 10L24 11L23 11L23 10L22 10L22 9L24 9L24 8L22 8L22 9L21 9L21 10L20 10L20 6L19 6L19 11L17 11L17 8L18 8L18 5L16 5L16 6L15 6L15 8L16 8L16 9L13 9L13 10L12 10L12 11L11 11L11 14L10 14L10 13L9 13L9 12L8 12L8 10L7 10L7 11L6 11L6 12L7 12L7 13L5 13L5 15L6 15L6 16L7 16L7 17L6 17L6 18L5 18L5 19L6 19L6 20L7 20L7 21L6 21L6 22L7 22L7 21L8 21L8 22L9 22L9 24L8 24L8 23L6 23L6 24L7 24L7 25L6 25L6 26L8 26L8 27L9 27L9 29L8 29L8 28L7 28L7 27L5 27L5 25L3 25L3 23L4 23L4 24L5 24L5 23L4 23L4 22L3 22L3 23L2 23L2 24L1 24L1 25L3 25L3 26L4 26L4 30L9 30L9 31L11 31L11 32L12 32L12 31L13 31L13 34L12 34L12 35L11 35L11 34L9 34L9 37L8 37L8 35L6 35L6 36L7 36L7 37L5 37L5 38L9 38L9 39L11 39L11 38L13 38L13 37L14 37L14 35L13 35L13 34L14 34L14 31L13 31L13 30L15 30L15 31L16 31L16 30L17 30L17 32L20 32L20 33L19 33L19 34L18 34L18 35L17 35L17 33L16 33L16 32L15 32L15 33L16 33L16 35L15 35L15 37L16 37L16 38L15 38L15 39L16 39L16 40L18 40L18 39L20 39L20 40L19 40L19 41L18 41L18 42L17 42L17 41L15 41L15 40L14 40L14 41L10 41L10 40L9 40L9 41L10 41L10 42L8 42L8 40L7 40L7 39L6 39L6 40L5 40L5 39L4 39L4 40L3 40L3 39L2 39L2 40L3 40L3 42L4 42L4 41L6 41L6 42L5 42L5 43L4 43L4 45L6 45L6 46L7 46L7 45L6 45L6 44L8 44L8 47L9 47L9 46L10 46L10 45L11 45L11 46L13 46L13 47L12 47L12 48L13 48L13 49L11 49L11 47L10 47L10 48L7 48L7 49L11 49L11 50L12 50L12 52L11 52L11 51L10 51L10 52L11 52L11 53L10 53L10 54L11 54L11 56L12 56L12 57L9 57L9 58L11 58L11 59L12 59L12 57L14 57L14 56L12 56L12 55L13 55L13 54L11 54L11 53L12 53L12 52L13 52L13 53L14 53L14 55L15 55L15 53L14 53L14 52L13 52L13 49L14 49L14 48L13 48L13 47L14 47L14 46L15 46L15 45L17 45L17 46L16 46L16 47L15 47L15 49L16 49L16 50L15 50L15 52L16 52L16 54L18 54L18 56L19 56L19 55L20 55L20 56L21 56L21 54L23 54L23 53L24 53L24 52L23 52L23 51L24 51L24 50L23 50L23 49L24 49L24 47L22 47L22 46L23 46L23 45L24 45L24 46L25 46L25 45L26 45L26 44L25 44L25 43L27 43L27 42L28 42L28 43L29 43L29 44L27 44L27 45L28 45L28 46L26 46L26 47L25 47L25 49L26 49L26 48L27 48L27 47L30 47L30 48L28 48L28 50L27 50L27 52L26 52L26 51L25 51L25 53L28 53L28 54L26 54L26 56L27 56L27 57L25 57L25 54L24 54L24 55L23 55L23 56L22 56L22 57L25 57L25 58L24 58L24 60L25 60L25 62L26 62L26 59L28 59L28 60L29 60L29 59L28 59L28 58L30 58L30 57L28 57L28 56L29 56L29 55L30 55L30 52L31 52L31 51L32 51L32 49L31 49L31 50L30 50L30 48L32 48L32 45L34 45L34 46L33 46L33 47L34 47L34 46L35 46L35 47L37 47L37 49L36 49L36 50L35 50L35 51L36 51L36 52L38 52L38 53L36 53L36 54L35 54L35 56L36 56L36 55L37 55L37 56L38 56L38 57L37 57L37 59L35 59L35 60L37 60L37 62L38 62L38 63L39 63L39 64L40 64L40 63L39 63L39 62L38 62L38 57L39 57L39 59L41 59L41 58L40 58L40 57L41 57L41 56L43 56L43 57L44 57L44 58L43 58L43 59L44 59L44 60L45 60L45 59L47 59L47 56L46 56L46 55L47 55L47 54L48 54L48 53L47 53L47 52L46 52L46 51L43 51L43 50L44 50L44 48L43 48L43 50L41 50L41 47L43 47L43 46L41 46L41 43L42 43L42 44L43 44L43 45L44 45L44 47L46 47L46 48L45 48L45 49L46 49L46 50L47 50L47 51L48 51L48 52L49 52L49 55L48 55L48 56L49 56L49 57L48 57L48 59L49 59L49 57L50 57L50 55L52 55L52 57L51 57L51 59L50 59L50 60L51 60L51 61L55 61L55 62L56 62L56 63L57 63L57 64L58 64L58 63L60 63L60 64L61 64L61 63L62 63L62 64L63 64L63 63L62 63L62 62L61 62L61 61L62 61L62 60L63 60L63 59L64 59L64 57L63 57L63 59L62 59L62 58L61 58L61 59L62 59L62 60L61 60L61 61L55 61L55 60L56 60L56 59L55 59L55 58L53 58L53 56L54 56L54 57L55 57L55 55L57 55L57 56L59 56L59 55L61 55L61 54L59 54L59 55L58 55L58 53L59 53L59 52L58 52L58 49L57 49L57 53L56 53L56 54L53 54L53 55L52 55L52 54L50 54L50 52L51 52L51 53L55 53L55 52L53 52L53 51L55 51L55 50L53 50L53 48L54 48L54 47L55 47L55 46L53 46L53 45L55 45L55 44L56 44L56 45L57 45L57 47L58 47L58 48L60 48L60 49L59 49L59 50L60 50L60 49L62 49L62 48L61 48L61 47L62 47L62 46L63 46L63 45L62 45L62 46L61 46L61 47L60 47L60 46L59 46L59 45L60 45L60 44L59 44L59 43L62 43L62 44L63 44L63 43L64 43L64 41L63 41L63 39L64 39L64 38L62 38L62 37L64 37L64 36L63 36L63 35L62 35L62 34L61 34L61 35L60 35L60 36L59 36L59 35L58 35L58 37L57 37L57 38L56 38L56 37L55 37L55 38L53 38L53 37L54 37L54 36L56 36L56 34L54 34L54 35L51 35L51 34L53 34L53 33L54 33L54 32L52 32L52 33L51 33L51 32L50 32L50 29L48 29L48 31L46 31L46 30L47 30L47 29L46 29L46 27L49 27L49 26L47 26L47 25L46 25L46 23L44 23L44 19L42 19L42 17L41 17L41 16L40 16L40 18L39 18L39 19L41 19L41 20L40 20L40 23L38 23L38 21L39 21L39 20L38 20L38 17L39 17L39 14L38 14L38 13L39 13L39 11L37 11L37 15L36 15L36 16L38 16L38 17L37 17L37 18L36 18L36 17L35 17L35 15L34 15L34 14L35 14L35 12L34 12L34 14L33 14L33 13L32 13L32 9L30 9L30 6L29 6L29 5L30 5L30 2L29 2L29 3L28 3L28 2ZM50 2L50 4L51 4L51 7L52 7L52 11L53 11L53 12L52 12L52 13L51 13L51 14L52 14L52 15L53 15L53 16L52 16L52 17L51 17L51 15L50 15L50 17L46 17L46 18L45 18L45 17L44 17L44 16L46 16L46 14L47 14L47 15L49 15L49 14L50 14L50 12L49 12L49 11L51 11L51 10L50 10L50 9L51 9L51 8L50 8L50 6L49 6L49 7L48 7L48 6L47 6L47 8L46 8L46 6L45 6L45 7L44 7L44 6L43 6L43 7L42 7L42 5L41 5L41 4L40 4L40 3L39 3L39 5L41 5L41 8L40 8L40 6L39 6L39 7L38 7L38 8L37 8L37 10L38 10L38 9L39 9L39 8L40 8L40 15L43 15L43 14L44 14L44 16L43 16L43 18L45 18L45 19L47 19L47 20L45 20L45 21L46 21L46 22L47 22L47 24L49 24L49 25L50 25L50 24L49 24L49 23L48 23L48 22L50 22L50 20L52 20L52 21L51 21L51 24L52 24L52 25L53 25L53 27L54 27L54 25L55 25L55 26L56 26L56 25L55 25L55 22L56 22L56 24L57 24L57 25L58 25L58 26L59 26L59 27L58 27L58 30L59 30L59 27L60 27L60 28L61 28L61 26L62 26L62 25L63 25L63 24L64 24L64 21L63 21L63 22L62 22L62 21L61 21L61 22L62 22L62 24L61 24L61 26L59 26L59 25L60 25L60 23L58 23L58 22L59 22L59 21L60 21L60 17L58 17L58 18L56 18L56 17L55 17L55 15L53 15L53 14L52 14L52 13L53 13L53 12L55 12L55 14L56 14L56 12L57 12L57 13L58 13L58 11L56 11L56 12L55 12L55 11L53 11L53 8L55 8L55 7L54 7L54 5L52 5L52 3L51 3L51 2ZM16 3L16 4L17 4L17 3ZM53 3L53 4L54 4L54 3ZM19 4L19 5L20 5L20 4ZM26 4L26 5L25 5L25 6L26 6L26 7L27 7L27 4ZM9 5L9 7L10 7L10 5ZM31 5L31 8L34 8L34 5ZM12 6L12 7L13 7L13 6ZM16 6L16 7L17 7L17 6ZM28 6L28 7L29 7L29 6ZM32 6L32 7L33 7L33 6ZM35 6L35 9L34 9L34 11L35 11L35 9L36 9L36 6ZM52 6L52 7L53 7L53 6ZM43 7L43 8L42 8L42 9L41 9L41 12L42 12L42 13L41 13L41 14L43 14L43 8L44 8L44 11L45 11L45 10L46 10L46 13L45 13L45 12L44 12L44 14L46 14L46 13L47 13L47 14L49 14L49 12L47 12L47 11L48 11L48 9L50 9L50 8L47 8L47 10L46 10L46 9L45 9L45 8L44 8L44 7ZM59 8L59 9L60 9L60 8ZM55 9L55 10L56 10L56 9ZM28 10L28 12L29 12L29 11L30 11L30 10ZM13 11L13 12L14 12L14 15L12 15L12 16L11 16L11 15L10 15L10 16L11 16L11 19L12 19L12 21L13 21L13 22L11 22L11 23L10 23L10 26L11 26L11 31L12 31L12 26L13 26L13 27L15 27L15 26L16 26L16 27L18 27L18 25L20 25L20 26L21 26L21 27L20 27L20 29L19 29L19 28L17 28L17 29L19 29L19 30L18 30L18 31L20 31L20 30L23 30L23 29L24 29L24 30L25 30L25 31L26 31L26 33L25 33L25 32L24 32L24 31L22 31L22 32L21 32L21 33L20 33L20 34L19 34L19 36L18 36L18 37L17 37L17 36L16 36L16 37L17 37L17 38L16 38L16 39L18 39L18 38L19 38L19 37L20 37L20 38L22 38L22 37L20 37L20 36L21 36L21 35L22 35L22 36L23 36L23 37L24 37L24 38L23 38L23 39L21 39L21 40L20 40L20 43L19 43L19 42L18 42L18 43L16 43L16 42L15 42L15 41L14 41L14 42L13 42L13 45L14 45L14 43L15 43L15 44L17 44L17 45L22 45L22 44L21 44L21 43L23 43L23 44L24 44L24 45L25 45L25 44L24 44L24 43L25 43L25 41L24 41L24 40L25 40L25 39L24 39L24 38L25 38L25 37L26 37L26 39L27 39L27 38L28 38L28 40L26 40L26 42L27 42L27 41L29 41L29 38L28 38L28 35L29 35L29 36L30 36L30 38L31 38L31 39L30 39L30 40L31 40L31 39L32 39L32 42L30 42L30 44L29 44L29 45L30 45L30 47L31 47L31 45L32 45L32 43L33 43L33 44L34 44L34 45L38 45L38 46L37 46L37 47L38 47L38 51L40 51L40 48L39 48L39 47L40 47L40 44L38 44L38 43L40 43L40 42L43 42L43 44L44 44L44 45L45 45L45 46L46 46L46 47L48 47L48 48L46 48L46 49L47 49L47 50L49 50L49 48L51 48L51 47L52 47L52 44L55 44L55 43L53 43L53 42L57 42L57 43L56 43L56 44L57 44L57 45L58 45L58 44L57 44L57 43L59 43L59 42L61 42L61 40L62 40L62 39L61 39L61 40L60 40L60 41L58 41L58 40L57 40L57 39L60 39L60 38L61 38L61 37L58 37L58 38L57 38L57 39L56 39L56 38L55 38L55 41L54 41L54 39L52 39L52 38L51 38L51 37L50 37L50 38L46 38L46 37L49 37L49 36L50 36L50 35L49 35L49 36L48 36L48 35L47 35L47 34L48 34L48 33L50 33L50 34L51 34L51 33L50 33L50 32L46 32L46 31L45 31L45 32L44 32L44 35L41 35L41 37L40 37L40 34L39 34L39 33L40 33L40 32L41 32L41 34L43 34L43 32L41 32L41 30L43 30L43 31L44 31L44 30L43 30L43 29L40 29L40 28L41 28L41 26L39 26L39 25L40 25L40 24L41 24L41 25L42 25L42 27L43 27L43 26L44 26L44 29L45 29L45 30L46 30L46 29L45 29L45 26L44 26L44 25L45 25L45 24L44 24L44 23L43 23L43 20L41 20L41 21L42 21L42 23L40 23L40 24L39 24L39 25L37 25L37 24L33 24L33 23L34 23L34 21L35 21L35 23L37 23L37 21L38 21L38 20L36 20L36 19L35 19L35 18L34 18L34 15L33 15L33 14L32 14L32 13L31 13L31 12L30 12L30 13L31 13L31 14L32 14L32 17L30 17L30 18L31 18L31 20L32 20L32 21L30 21L30 19L29 19L29 20L28 20L28 17L27 17L27 15L28 15L28 14L29 14L29 13L27 13L27 12L26 12L26 14L27 14L27 15L25 15L25 14L24 14L24 13L25 13L25 12L24 12L24 13L23 13L23 14L22 14L22 12L23 12L23 11L19 11L19 12L17 12L17 11L16 11L16 13L15 13L15 11ZM7 13L7 14L6 14L6 15L8 15L8 16L9 16L9 15L8 15L8 13ZM12 13L12 14L13 14L13 13ZM17 13L17 14L16 14L16 15L17 15L17 16L15 16L15 18L16 18L16 17L17 17L17 19L16 19L16 20L15 20L15 21L14 21L14 16L12 16L12 18L13 18L13 21L14 21L14 22L13 22L13 24L14 24L14 25L13 25L13 26L14 26L14 25L15 25L15 24L16 24L16 26L17 26L17 25L18 25L18 23L21 23L21 24L20 24L20 25L21 25L21 26L22 26L22 25L25 25L25 26L24 26L24 28L26 28L26 27L27 27L27 26L26 26L26 23L24 23L24 22L23 22L23 21L21 21L21 20L20 20L20 16L19 16L19 15L20 15L20 14L21 14L21 13ZM17 14L17 15L18 15L18 14ZM3 15L3 16L4 16L4 15ZM21 15L21 16L22 16L22 17L21 17L21 19L22 19L22 20L25 20L25 21L28 21L28 22L27 22L27 25L28 25L28 26L29 26L29 28L27 28L27 29L25 29L25 30L29 30L29 31L30 31L30 30L33 30L33 29L34 29L34 30L35 30L35 31L36 31L36 29L34 29L34 27L36 27L36 28L38 28L38 29L37 29L37 30L38 30L38 29L39 29L39 28L38 28L38 27L37 27L37 25L36 25L36 26L35 26L35 25L34 25L34 27L31 27L31 26L33 26L33 25L32 25L32 23L33 23L33 21L34 21L34 19L33 19L33 18L32 18L32 19L33 19L33 21L32 21L32 23L31 23L31 22L30 22L30 23L29 23L29 21L28 21L28 20L26 20L26 19L25 19L25 18L24 18L24 19L23 19L23 17L24 17L24 15L23 15L23 16L22 16L22 15ZM56 15L56 16L57 16L57 15ZM58 15L58 16L59 16L59 15ZM17 16L17 17L18 17L18 19L17 19L17 21L15 21L15 22L14 22L14 24L15 24L15 23L16 23L16 22L17 22L17 23L18 23L18 22L19 22L19 21L20 21L20 22L21 22L21 21L20 21L20 20L19 20L19 16ZM25 16L25 17L26 17L26 16ZM3 17L3 19L2 19L2 20L3 20L3 21L4 21L4 17ZM8 17L8 19L7 19L7 18L6 18L6 19L7 19L7 20L9 20L9 22L10 22L10 17ZM50 17L50 19L49 19L49 18L47 18L47 19L49 19L49 20L47 20L47 21L49 21L49 20L50 20L50 19L51 19L51 17ZM52 17L52 18L53 18L53 19L52 19L52 20L54 20L54 21L53 21L53 22L52 22L52 24L53 24L53 25L54 25L54 24L53 24L53 22L55 22L55 21L56 21L56 22L58 22L58 21L59 21L59 20L58 20L58 21L57 21L57 19L56 19L56 18L55 18L55 17ZM58 18L58 19L59 19L59 18ZM18 20L18 21L17 21L17 22L18 22L18 21L19 21L19 20ZM22 22L22 24L21 24L21 25L22 25L22 24L24 24L24 23L23 23L23 22ZM28 23L28 24L29 24L29 23ZM11 24L11 26L12 26L12 24ZM42 24L42 25L44 25L44 24ZM58 24L58 25L59 25L59 24ZM8 25L8 26L9 26L9 25ZM29 25L29 26L30 26L30 25ZM51 26L51 27L50 27L50 28L52 28L52 29L51 29L51 30L52 30L52 31L53 31L53 29L54 29L54 28L52 28L52 26ZM21 27L21 29L23 29L23 27ZM5 28L5 29L7 29L7 28ZM13 28L13 29L14 29L14 28ZM15 28L15 29L16 29L16 28ZM29 28L29 30L30 30L30 28ZM32 28L32 29L33 29L33 28ZM55 28L55 30L54 30L54 31L55 31L55 30L56 30L56 28ZM9 29L9 30L10 30L10 29ZM60 29L60 30L61 30L61 29ZM5 31L5 34L8 34L8 31ZM27 31L27 33L28 33L28 34L23 34L23 32L22 32L22 34L23 34L23 36L24 36L24 37L25 37L25 36L24 36L24 35L26 35L26 36L27 36L27 35L28 35L28 34L29 34L29 35L30 35L30 32L29 32L29 33L28 33L28 31ZM31 31L31 34L34 34L34 31ZM37 31L37 36L38 36L38 35L39 35L39 34L38 34L38 31ZM57 31L57 34L60 34L60 31ZM6 32L6 33L7 33L7 32ZM9 32L9 33L10 33L10 32ZM32 32L32 33L33 33L33 32ZM45 32L45 33L46 33L46 34L45 34L45 35L44 35L44 36L43 36L43 37L44 37L44 38L41 38L41 39L42 39L42 40L40 40L40 39L38 39L38 37L37 37L37 39L36 39L36 38L35 38L35 37L34 37L34 36L35 36L35 35L34 35L34 36L33 36L33 35L32 35L32 36L31 36L31 38L32 38L32 39L33 39L33 40L35 40L35 39L36 39L36 40L38 40L38 41L37 41L37 42L36 42L36 41L35 41L35 43L38 43L38 41L39 41L39 42L40 42L40 41L44 41L44 39L45 39L45 41L46 41L46 42L45 42L45 45L46 45L46 46L48 46L48 45L46 45L46 42L47 42L47 43L48 43L48 44L49 44L49 47L50 47L50 45L51 45L51 44L49 44L49 43L48 43L48 42L47 42L47 41L48 41L48 39L47 39L47 40L46 40L46 38L45 38L45 37L46 37L46 36L47 36L47 35L46 35L46 34L47 34L47 33L46 33L46 32ZM55 32L55 33L56 33L56 32ZM58 32L58 33L59 33L59 32ZM20 34L20 35L21 35L21 34ZM12 35L12 37L13 37L13 35ZM61 35L61 36L62 36L62 35ZM10 36L10 37L9 37L9 38L10 38L10 37L11 37L11 36ZM44 36L44 37L45 37L45 36ZM32 37L32 38L34 38L34 39L35 39L35 38L34 38L34 37ZM50 38L50 39L49 39L49 40L50 40L50 41L49 41L49 42L50 42L50 43L52 43L52 42L53 42L53 40L52 40L52 39L51 39L51 38ZM23 39L23 40L22 40L22 41L23 41L23 42L24 42L24 41L23 41L23 40L24 40L24 39ZM6 40L6 41L7 41L7 40ZM39 40L39 41L40 41L40 40ZM51 40L51 41L50 41L50 42L51 42L51 41L52 41L52 40ZM56 40L56 41L57 41L57 42L58 42L58 41L57 41L57 40ZM33 41L33 43L34 43L34 41ZM62 41L62 42L63 42L63 41ZM6 42L6 43L7 43L7 42ZM10 42L10 44L9 44L9 43L8 43L8 44L9 44L9 45L10 45L10 44L11 44L11 45L12 45L12 42ZM0 43L0 44L1 44L1 43ZM18 43L18 44L19 44L19 43ZM20 46L20 47L19 47L19 48L18 48L18 47L17 47L17 50L18 50L18 51L16 51L16 52L17 52L17 53L18 53L18 54L19 54L19 53L18 53L18 52L19 52L19 49L20 49L20 50L21 50L21 49L22 49L22 48L21 48L21 46ZM38 46L38 47L39 47L39 46ZM58 46L58 47L59 47L59 46ZM3 48L3 49L0 49L0 50L1 50L1 51L0 51L0 54L1 54L1 52L4 52L4 53L3 53L3 54L2 54L2 55L3 55L3 56L1 56L1 55L0 55L0 56L1 56L1 57L3 57L3 56L4 56L4 57L5 57L5 56L4 56L4 54L5 54L5 55L8 55L8 52L6 52L6 53L7 53L7 54L5 54L5 52L4 52L4 50L5 50L5 48ZM33 48L33 49L34 49L34 48ZM50 49L50 50L51 50L51 51L52 51L52 49ZM28 50L28 51L29 51L29 50ZM33 50L33 52L32 52L32 53L31 53L31 54L32 54L32 56L33 56L33 55L34 55L34 50ZM20 51L20 54L21 54L21 53L23 53L23 52L22 52L22 51ZM41 51L41 52L42 52L42 53L40 53L40 52L39 52L39 53L38 53L38 54L39 54L39 57L40 57L40 56L41 56L41 54L43 54L43 52L42 52L42 51ZM49 51L49 52L50 52L50 51ZM28 52L28 53L29 53L29 52ZM44 52L44 54L45 54L45 55L44 55L44 57L45 57L45 58L44 58L44 59L45 59L45 58L46 58L46 57L45 57L45 55L46 55L46 53L45 53L45 52ZM32 53L32 54L33 54L33 53ZM39 53L39 54L40 54L40 53ZM27 55L27 56L28 56L28 55ZM62 55L62 56L61 56L61 57L62 57L62 56L63 56L63 55ZM6 56L6 57L7 57L7 56ZM16 56L16 61L15 61L15 60L14 60L14 61L15 61L15 63L16 63L16 62L17 62L17 61L18 61L18 58L19 58L19 61L20 61L20 60L21 60L21 61L23 61L23 60L22 60L22 59L23 59L23 58L22 58L22 59L21 59L21 58L20 58L20 57L18 57L18 58L17 58L17 56ZM27 57L27 58L28 58L28 57ZM31 57L31 60L34 60L34 57ZM57 57L57 60L60 60L60 57ZM13 58L13 59L14 59L14 58ZM32 58L32 59L33 59L33 58ZM52 58L52 59L53 59L53 60L54 60L54 59L53 59L53 58ZM58 58L58 59L59 59L59 58ZM31 61L31 62L32 62L32 61ZM35 61L35 62L36 62L36 61ZM49 61L49 62L50 62L50 61ZM44 62L44 63L45 63L45 62ZM57 62L57 63L58 63L58 62ZM8 63L8 65L9 65L9 63ZM23 63L23 64L24 64L24 63ZM35 63L35 64L36 64L36 63ZM47 63L47 64L49 64L49 63ZM44 64L44 65L45 65L45 64ZM0 0L0 7L7 7L7 0ZM1 1L1 6L6 6L6 1ZM2 2L2 5L5 5L5 2ZM58 0L58 7L65 7L65 0ZM59 1L59 6L64 6L64 1ZM60 2L60 5L63 5L63 2ZM0 58L0 65L7 65L7 58ZM1 59L1 64L6 64L6 59ZM2 60L2 63L5 63L5 60Z" fill="#000000"/></g></g></svg>
