<?xml version="1.0" encoding="UTF-8"?>
<svg xmlns="http://www.w3.org/2000/svg" version="1.1" width="300" height="300" viewBox="0 0 300 300"><rect x="0" y="0" width="300" height="300" fill="#ffffff"/><g transform="scale(4.348)"><g transform="translate(0,0)"><path fill-rule="evenodd" d="M12 0L12 1L11 1L11 2L10 2L10 1L8 1L8 2L10 2L10 3L12 3L12 4L9 4L9 3L8 3L8 4L9 4L9 5L8 5L8 7L9 7L9 5L14 5L14 7L13 7L13 6L12 6L12 7L13 7L13 9L11 9L11 8L10 8L10 9L9 9L9 8L6 8L6 9L7 9L7 10L5 10L5 11L4 11L4 9L5 9L5 8L0 8L0 12L1 12L1 9L2 9L2 10L3 10L3 12L2 12L2 13L3 13L3 12L5 12L5 13L4 13L4 14L3 14L3 16L4 16L4 18L3 18L3 17L2 17L2 18L0 18L0 19L1 19L1 21L0 21L0 25L1 25L1 26L0 26L0 27L1 27L1 29L0 29L0 30L1 30L1 31L0 31L0 33L1 33L1 35L0 35L0 36L3 36L3 37L0 37L0 40L1 40L1 42L3 42L3 43L2 43L2 44L1 44L1 43L0 43L0 46L1 46L1 47L0 47L0 49L1 49L1 47L2 47L2 48L3 48L3 49L2 49L2 50L1 50L1 52L0 52L0 53L1 53L1 54L0 54L0 55L1 55L1 54L2 54L2 55L3 55L3 54L4 54L4 52L5 52L5 54L6 54L6 55L7 55L7 56L6 56L6 57L5 57L5 56L3 56L3 57L1 57L1 56L0 56L0 61L1 61L1 58L2 58L2 59L3 59L3 58L4 58L4 59L7 59L7 60L6 60L6 61L8 61L8 63L9 63L9 62L12 62L12 61L8 61L8 59L9 59L9 60L12 60L12 59L10 59L10 58L9 58L9 57L11 57L11 54L9 54L9 55L10 55L10 56L9 56L9 57L8 57L8 55L7 55L7 54L6 54L6 53L11 53L11 52L12 52L12 54L13 54L13 55L14 55L14 53L15 53L15 51L16 51L16 53L18 53L18 54L20 54L20 55L21 55L21 56L19 56L19 55L18 55L18 56L17 56L17 57L16 57L16 56L14 56L14 57L12 57L12 58L14 58L14 59L13 59L13 60L14 60L14 61L13 61L13 63L12 63L12 64L11 64L11 65L10 65L10 64L8 64L8 69L9 69L9 65L10 65L10 66L11 66L11 68L12 68L12 67L13 67L13 68L14 68L14 69L15 69L15 68L14 68L14 66L15 66L15 65L17 65L17 68L16 68L16 69L17 69L17 68L18 68L18 69L22 69L22 68L18 68L18 67L20 67L20 66L19 66L19 65L20 65L20 61L21 61L21 60L23 60L23 59L24 59L24 60L25 60L25 61L23 61L23 62L25 62L25 63L22 63L22 62L21 62L21 64L23 64L23 65L21 65L21 66L22 66L22 67L24 67L24 68L23 68L23 69L24 69L24 68L26 68L26 66L25 66L25 65L28 65L28 66L27 66L27 67L28 67L28 68L27 68L27 69L28 69L28 68L29 68L29 69L32 69L32 67L33 67L33 65L35 65L35 66L36 66L36 65L37 65L37 66L38 66L38 67L39 67L39 66L38 66L38 65L39 65L39 64L41 64L41 66L40 66L40 67L41 67L41 66L44 66L44 68L41 68L41 69L44 69L44 68L48 68L48 69L49 69L49 68L50 68L50 65L51 65L51 68L52 68L52 66L53 66L53 67L54 67L54 68L53 68L53 69L54 69L54 68L55 68L55 69L56 69L56 68L55 68L55 65L51 65L51 64L50 64L50 65L49 65L49 64L48 64L48 63L47 63L47 62L50 62L50 61L51 61L51 62L52 62L52 63L53 63L53 62L55 62L55 61L56 61L56 60L55 60L55 59L56 59L56 58L55 58L55 57L56 57L56 56L55 56L55 57L53 57L53 58L52 58L52 57L51 57L51 56L52 56L52 55L54 55L54 54L55 54L55 52L57 52L57 53L56 53L56 54L57 54L57 55L58 55L58 54L57 54L57 53L59 53L59 52L57 52L57 51L55 51L55 49L56 49L56 50L57 50L57 49L56 49L56 47L57 47L57 48L59 48L59 47L61 47L61 48L60 48L60 49L59 49L59 50L58 50L58 51L62 51L62 52L60 52L60 54L59 54L59 56L60 56L60 54L61 54L61 55L62 55L62 54L61 54L61 53L62 53L62 52L63 52L63 53L64 53L64 51L65 51L65 52L66 52L66 53L65 53L65 55L63 55L63 57L60 57L60 59L62 59L62 58L63 58L63 59L64 59L64 58L63 58L63 57L64 57L64 56L65 56L65 60L60 60L60 64L58 64L58 63L59 63L59 62L58 62L58 63L57 63L57 62L56 62L56 63L54 63L54 64L58 64L58 65L56 65L56 67L57 67L57 66L58 66L58 67L59 67L59 68L57 68L57 69L59 69L59 68L60 68L60 67L61 67L61 69L62 69L62 67L63 67L63 69L68 69L68 68L67 68L67 66L65 66L65 64L67 64L67 65L68 65L68 64L67 64L67 63L68 63L68 62L69 62L69 61L68 61L68 58L69 58L69 55L68 55L68 54L69 54L69 53L68 53L68 54L67 54L67 52L68 52L68 50L69 50L69 47L68 47L68 46L69 46L69 45L68 45L68 42L69 42L69 40L68 40L68 36L69 36L69 35L68 35L68 34L69 34L69 32L67 32L67 31L68 31L68 30L67 30L67 31L64 31L64 32L63 32L63 31L61 31L61 30L62 30L62 29L63 29L63 30L64 30L64 29L63 29L63 28L68 28L68 29L69 29L69 27L68 27L68 26L67 26L67 25L66 25L66 26L67 26L67 27L63 27L63 28L62 28L62 29L61 29L61 27L60 27L60 26L62 26L62 25L63 25L63 24L67 24L67 23L68 23L68 25L69 25L69 23L68 23L68 22L69 22L69 21L68 21L68 18L69 18L69 17L68 17L68 16L69 16L69 15L68 15L68 14L65 14L65 16L66 16L66 17L63 17L63 18L62 18L62 16L64 16L64 15L63 15L63 14L64 14L64 13L63 13L63 11L62 11L62 8L61 8L61 9L59 9L59 10L58 10L58 11L56 11L56 10L57 10L57 9L56 9L56 8L58 8L58 7L59 7L59 4L57 4L57 5L58 5L58 7L57 7L57 6L56 6L56 4L55 4L55 3L59 3L59 2L58 2L58 1L61 1L61 0L58 0L58 1L57 1L57 0L56 0L56 1L55 1L55 0L51 0L51 1L54 1L54 2L53 2L53 6L52 6L52 5L50 5L50 3L52 3L52 2L50 2L50 0L49 0L49 1L47 1L47 6L46 6L46 5L44 5L44 3L45 3L45 4L46 4L46 3L45 3L45 2L44 2L44 3L43 3L43 0L41 0L41 1L37 1L37 0L35 0L35 1L34 1L34 2L39 2L39 3L40 3L40 2L41 2L41 3L42 3L42 4L41 4L41 5L40 5L40 8L38 8L38 9L37 9L37 6L38 6L38 7L39 7L39 6L38 6L38 5L37 5L37 4L38 4L38 3L37 3L37 4L32 4L32 3L33 3L33 1L32 1L32 0L31 0L31 1L30 1L30 0L28 0L28 1L27 1L27 2L28 2L28 3L27 3L27 4L24 4L24 2L26 2L26 1L25 1L25 0L23 0L23 4L22 4L22 3L18 3L18 2L17 2L17 1L19 1L19 2L20 2L20 1L19 1L19 0L17 0L17 1L16 1L16 0L15 0L15 1L14 1L14 0ZM21 0L21 1L22 1L22 0ZM44 0L44 1L45 1L45 0ZM15 1L15 2L16 2L16 3L15 3L15 4L14 4L14 2L12 2L12 3L13 3L13 4L14 4L14 5L15 5L15 4L16 4L16 3L17 3L17 2L16 2L16 1ZM29 1L29 3L28 3L28 4L27 4L27 7L26 7L26 5L25 5L25 7L26 7L26 9L24 9L24 6L23 6L23 5L24 5L24 4L23 4L23 5L22 5L22 4L20 4L20 6L19 6L19 7L20 7L20 8L19 8L19 9L20 9L20 12L19 12L19 11L18 11L18 12L19 12L19 13L20 13L20 14L21 14L21 15L19 15L19 14L18 14L18 13L16 13L16 12L17 12L17 11L16 11L16 10L15 10L15 9L17 9L17 8L15 8L15 7L16 7L16 6L15 6L15 7L14 7L14 9L13 9L13 10L15 10L15 11L12 11L12 12L11 12L11 14L12 14L12 15L14 15L14 17L13 17L13 16L12 16L12 17L13 17L13 18L14 18L14 19L16 19L16 20L13 20L13 19L12 19L12 20L10 20L10 22L9 22L9 20L8 20L8 19L9 19L9 18L8 18L8 15L6 15L6 16L5 16L5 18L4 18L4 20L2 20L2 22L1 22L1 23L2 23L2 24L1 24L1 25L2 25L2 26L5 26L5 27L4 27L4 28L2 28L2 29L1 29L1 30L2 30L2 31L1 31L1 33L2 33L2 35L3 35L3 32L9 32L9 30L10 30L10 32L12 32L12 33L13 33L13 34L11 34L11 35L13 35L13 37L14 37L14 35L15 35L15 36L16 36L16 35L17 35L17 36L20 36L20 38L19 38L19 37L15 37L15 38L13 38L13 39L14 39L14 40L12 40L12 41L11 41L11 42L10 42L10 43L12 43L12 44L9 44L9 45L12 45L12 44L13 44L13 42L12 42L12 41L14 41L14 42L15 42L15 43L16 43L16 44L15 44L15 45L14 45L14 46L15 46L15 47L14 47L14 48L13 48L13 47L12 47L12 48L13 48L13 49L12 49L12 50L11 50L11 49L9 49L9 48L11 48L11 47L8 47L8 46L7 46L7 45L6 45L6 44L7 44L7 43L6 43L6 42L8 42L8 43L9 43L9 41L10 41L10 40L11 40L11 39L12 39L12 36L11 36L11 39L10 39L10 38L8 38L8 39L4 39L4 42L5 42L5 43L6 43L6 44L5 44L5 45L6 45L6 46L5 46L5 48L4 48L4 50L5 50L5 51L6 51L6 52L7 52L7 51L6 51L6 50L7 50L7 49L6 49L6 50L5 50L5 48L7 48L7 47L8 47L8 49L9 49L9 50L10 50L10 51L8 51L8 52L10 52L10 51L12 51L12 52L13 52L13 53L14 53L14 52L13 52L13 51L15 51L15 50L16 50L16 51L17 51L17 50L18 50L18 49L21 49L21 52L19 52L19 53L20 53L20 54L21 54L21 55L22 55L22 54L23 54L23 56L24 56L24 54L23 54L23 52L24 52L24 53L25 53L25 52L26 52L26 54L25 54L25 56L26 56L26 59L25 59L25 60L26 60L26 61L25 61L25 62L27 62L27 64L28 64L28 65L29 65L29 64L30 64L30 63L32 63L32 60L31 60L31 59L33 59L33 58L34 58L34 59L37 59L37 61L38 61L38 62L37 62L37 65L38 65L38 64L39 64L39 63L41 63L41 64L44 64L44 66L45 66L45 67L46 67L46 66L47 66L47 65L48 65L48 66L49 66L49 65L48 65L48 64L47 64L47 63L45 63L45 64L44 64L44 61L45 61L45 62L47 62L47 60L50 60L50 59L51 59L51 61L52 61L52 62L53 62L53 60L54 60L54 61L55 61L55 60L54 60L54 59L53 59L53 60L52 60L52 59L51 59L51 57L50 57L50 56L51 56L51 55L52 55L52 54L54 54L54 53L53 53L53 52L55 52L55 51L53 51L53 48L52 48L52 47L53 47L53 46L54 46L54 47L55 47L55 46L54 46L54 45L53 45L53 44L54 44L54 43L52 43L52 42L51 42L51 41L53 41L53 40L51 40L51 37L53 37L53 33L55 33L55 34L54 34L54 35L55 35L55 34L56 34L56 37L55 37L55 36L54 36L54 37L55 37L55 38L56 38L56 39L57 39L57 40L56 40L56 41L55 41L55 42L57 42L57 43L58 43L58 42L59 42L59 45L57 45L57 44L55 44L55 45L56 45L56 46L57 46L57 47L59 47L59 46L61 46L61 45L63 45L63 46L62 46L62 48L61 48L61 49L60 49L60 50L62 50L62 51L63 51L63 50L65 50L65 51L66 51L66 49L67 49L67 48L68 48L68 47L67 47L67 48L63 48L63 47L66 47L66 44L65 44L65 45L63 45L63 44L64 44L64 43L63 43L63 42L65 42L65 43L66 43L66 42L68 42L68 41L66 41L66 40L65 40L65 41L63 41L63 40L61 40L61 38L60 38L60 37L58 37L58 36L60 36L60 34L59 34L59 33L58 33L58 32L59 32L59 31L60 31L60 30L59 30L59 29L57 29L57 28L58 28L58 27L59 27L59 25L62 25L62 24L63 24L63 23L62 23L62 22L63 22L63 21L64 21L64 22L65 22L65 23L66 23L66 21L67 21L67 22L68 22L68 21L67 21L67 20L65 20L65 19L67 19L67 17L66 17L66 18L63 18L63 19L62 19L62 18L61 18L61 20L60 20L60 21L62 21L62 22L61 22L61 24L60 24L60 23L59 23L59 21L57 21L57 18L59 18L59 16L60 16L60 15L59 15L59 14L60 14L60 13L61 13L61 14L63 14L63 13L62 13L62 12L60 12L60 13L58 13L58 12L59 12L59 11L60 11L60 10L59 10L59 11L58 11L58 12L56 12L56 11L55 11L55 12L56 12L56 13L55 13L55 14L56 14L56 17L55 17L55 18L56 18L56 19L53 19L53 15L54 15L54 14L53 14L53 12L54 12L54 11L53 11L53 9L55 9L55 10L56 10L56 9L55 9L55 8L54 8L54 6L53 6L53 7L52 7L52 6L51 6L51 8L50 8L50 6L49 6L49 9L50 9L50 10L47 10L47 7L48 7L48 6L47 6L47 7L46 7L46 6L45 6L45 7L44 7L44 5L43 5L43 7L42 7L42 6L41 6L41 8L40 8L40 9L43 9L43 8L44 8L44 9L45 9L45 10L42 10L42 12L41 12L41 10L40 10L40 12L39 12L39 13L38 13L38 12L37 12L37 11L39 11L39 9L38 9L38 10L36 10L36 9L34 9L34 10L36 10L36 11L33 11L33 9L32 9L32 5L30 5L30 4L29 4L29 3L31 3L31 2L32 2L32 1L31 1L31 2L30 2L30 1ZM41 1L41 2L42 2L42 1ZM56 1L56 2L57 2L57 1ZM48 2L48 3L50 3L50 2ZM54 2L54 3L55 3L55 2ZM60 3L60 5L61 5L61 3ZM48 4L48 5L49 5L49 4ZM21 5L21 6L20 6L20 7L21 7L21 6L22 6L22 7L23 7L23 6L22 6L22 5ZM28 5L28 7L29 7L29 6L30 6L30 7L31 7L31 6L30 6L30 5ZM33 5L33 8L36 8L36 5ZM10 6L10 7L11 7L11 6ZM17 6L17 7L18 7L18 6ZM34 6L34 7L35 7L35 6ZM55 6L55 7L56 7L56 6ZM60 6L60 7L61 7L61 6ZM45 7L45 9L46 9L46 7ZM20 8L20 9L22 9L22 8ZM28 8L28 9L30 9L30 10L29 10L29 12L28 12L28 10L27 10L27 9L26 9L26 10L25 10L25 12L24 12L24 11L22 11L22 10L21 10L21 12L20 12L20 13L21 13L21 12L24 12L24 13L22 13L22 16L24 16L24 15L25 15L25 16L26 16L26 15L25 15L25 14L27 14L27 13L30 13L30 14L31 14L31 15L30 15L30 16L29 16L29 17L30 17L30 18L29 18L29 20L30 20L30 21L29 21L29 22L27 22L27 21L26 21L26 20L28 20L28 19L25 19L25 20L23 20L23 19L22 19L22 18L21 18L21 17L18 17L18 16L17 16L17 15L18 15L18 14L16 14L16 16L15 16L15 17L14 17L14 18L17 18L17 21L13 21L13 20L12 20L12 21L11 21L11 22L10 22L10 23L9 23L9 22L8 22L8 24L10 24L10 23L11 23L11 24L13 24L13 23L14 23L14 24L15 24L15 25L16 25L16 26L15 26L15 27L12 27L12 28L13 28L13 29L12 29L12 30L13 30L13 29L16 29L16 28L17 28L17 30L15 30L15 32L14 32L14 33L15 33L15 32L16 32L16 33L17 33L17 34L18 34L18 35L20 35L20 34L19 34L19 33L20 33L20 32L19 32L19 30L20 30L20 31L21 31L21 30L23 30L23 34L22 34L22 33L21 33L21 35L24 35L24 36L23 36L23 37L21 37L21 38L20 38L20 39L18 39L18 40L17 40L17 39L15 39L15 40L14 40L14 41L15 41L15 42L16 42L16 41L15 41L15 40L17 40L17 43L18 43L18 44L16 44L16 45L17 45L17 47L15 47L15 49L18 49L18 48L17 48L17 47L18 47L18 46L19 46L19 45L21 45L21 44L19 44L19 43L22 43L22 42L20 42L20 40L21 40L21 41L22 41L22 40L21 40L21 39L22 39L22 38L24 38L24 39L23 39L23 40L24 40L24 41L23 41L23 42L24 42L24 41L25 41L25 42L26 42L26 44L24 44L24 43L23 43L23 44L24 44L24 45L23 45L23 46L22 46L22 47L21 47L21 49L22 49L22 51L23 51L23 49L24 49L24 50L26 50L26 52L28 52L28 53L27 53L27 54L26 54L26 55L27 55L27 57L29 57L29 58L27 58L27 59L31 59L31 58L32 58L32 57L33 57L33 56L34 56L34 55L33 55L33 56L31 56L31 53L32 53L32 54L33 54L33 53L34 53L34 52L33 52L33 53L32 53L32 52L30 52L30 50L29 50L29 52L28 52L28 51L27 51L27 50L28 50L28 49L27 49L27 50L26 50L26 49L24 49L24 48L23 48L23 47L24 47L24 46L25 46L25 45L26 45L26 44L27 44L27 45L28 45L28 44L27 44L27 41L26 41L26 40L27 40L27 38L26 38L26 39L25 39L25 37L26 37L26 36L25 36L25 33L28 33L28 34L27 34L27 35L28 35L28 36L27 36L27 37L28 37L28 36L29 36L29 37L30 37L30 38L29 38L29 39L30 39L30 38L33 38L33 39L32 39L32 40L31 40L31 41L30 41L30 40L29 40L29 41L30 41L30 42L31 42L31 41L32 41L32 43L34 43L34 42L35 42L35 44L36 44L36 45L37 45L37 46L36 46L36 47L35 47L35 46L34 46L34 45L33 45L33 44L32 44L32 45L33 45L33 46L32 46L32 47L33 47L33 48L32 48L32 49L31 49L31 47L30 47L30 48L29 48L29 49L31 49L31 50L32 50L32 51L34 51L34 50L32 50L32 49L33 49L33 48L36 48L36 47L37 47L37 48L38 48L38 47L39 47L39 48L40 48L40 47L41 47L41 48L42 48L42 49L41 49L41 50L39 50L39 51L37 51L37 50L38 50L38 49L37 49L37 50L36 50L36 49L35 49L35 53L37 53L37 54L40 54L40 53L39 53L39 52L41 52L41 55L39 55L39 56L37 56L37 55L35 55L35 57L36 57L36 58L38 58L38 59L39 59L39 62L38 62L38 63L39 63L39 62L40 62L40 59L41 59L41 58L42 58L42 60L41 60L41 62L42 62L42 63L43 63L43 61L44 61L44 60L45 60L45 61L46 61L46 60L47 60L47 59L49 59L49 58L50 58L50 57L49 57L49 56L50 56L50 55L51 55L51 54L50 54L50 53L51 53L51 52L53 52L53 51L51 51L51 50L50 50L50 48L51 48L51 49L52 49L52 48L51 48L51 46L50 46L50 45L51 45L51 43L50 43L50 41L49 41L49 40L50 40L50 37L51 37L51 36L52 36L52 33L51 33L51 32L49 32L49 30L50 30L50 29L51 29L51 28L53 28L53 29L52 29L52 30L55 30L55 29L56 29L56 30L57 30L57 29L56 29L56 27L57 27L57 25L59 25L59 23L57 23L57 25L56 25L56 24L55 24L55 23L56 23L56 22L57 22L57 21L56 21L56 20L53 20L53 19L52 19L52 20L50 20L50 19L51 19L51 18L52 18L52 17L51 17L51 18L48 18L48 17L49 17L49 16L50 16L50 13L51 13L51 10L52 10L52 9L51 9L51 10L50 10L50 11L49 11L49 12L47 12L47 11L43 11L43 12L45 12L45 13L47 13L47 14L49 14L49 15L48 15L48 16L45 16L45 15L44 15L44 14L43 14L43 13L42 13L42 14L41 14L41 12L40 12L40 13L39 13L39 14L40 14L40 15L39 15L39 16L40 16L40 15L42 15L42 14L43 14L43 15L44 15L44 16L42 16L42 17L41 17L41 18L39 18L39 19L37 19L37 18L38 18L38 17L37 17L37 15L38 15L38 13L36 13L36 12L33 12L33 14L31 14L31 13L32 13L32 12L30 12L30 11L32 11L32 9L30 9L30 8ZM63 8L63 9L64 9L64 8ZM65 8L65 10L64 10L64 12L65 12L65 13L67 13L67 10L69 10L69 9L68 9L68 8L67 8L67 10L66 10L66 8ZM8 9L8 10L9 10L9 13L10 13L10 10L11 10L11 9L10 9L10 10L9 10L9 9ZM23 9L23 10L24 10L24 9ZM26 10L26 12L25 12L25 13L27 13L27 10ZM5 11L5 12L7 12L7 13L5 13L5 14L7 14L7 13L8 13L8 11ZM15 11L15 12L14 12L14 15L15 15L15 12L16 12L16 11ZM68 11L68 13L69 13L69 11ZM49 12L49 13L50 13L50 12ZM0 13L0 15L2 15L2 14L1 14L1 13ZM12 13L12 14L13 14L13 13ZM34 13L34 14L33 14L33 15L31 15L31 16L32 16L32 17L33 17L33 18L31 18L31 19L32 19L32 20L31 20L31 21L30 21L30 22L29 22L29 23L30 23L30 22L32 22L32 20L34 20L34 22L35 22L35 20L36 20L36 19L34 19L34 18L36 18L36 17L35 17L35 16L36 16L36 15L35 15L35 13ZM56 13L56 14L57 14L57 16L58 16L58 14L57 14L57 13ZM52 14L52 15L53 15L53 14ZM27 15L27 16L28 16L28 15ZM33 15L33 16L34 16L34 15ZM61 15L61 16L62 16L62 15ZM6 16L6 17L7 17L7 16ZM9 16L9 17L11 17L11 16ZM16 16L16 17L17 17L17 18L18 18L18 17L17 17L17 16ZM44 16L44 17L43 17L43 20L42 20L42 21L43 21L43 20L44 20L44 22L41 22L41 19L40 19L40 20L39 20L39 22L37 22L37 25L38 25L38 26L37 26L37 27L38 27L38 28L37 28L37 29L38 29L38 30L37 30L37 31L35 31L35 32L37 32L37 31L38 31L38 30L40 30L40 31L43 31L43 32L39 32L39 33L38 33L38 34L37 34L37 36L38 36L38 37L34 37L34 38L36 38L36 39L37 39L37 40L36 40L36 41L35 41L35 39L33 39L33 40L32 40L32 41L33 41L33 42L34 42L34 41L35 41L35 42L36 42L36 43L37 43L37 45L38 45L38 46L39 46L39 47L40 47L40 46L39 46L39 45L40 45L40 44L41 44L41 43L40 43L40 41L41 41L41 40L44 40L44 42L43 42L43 44L44 44L44 46L42 46L42 45L41 45L41 46L42 46L42 48L43 48L43 47L44 47L44 49L43 49L43 50L44 50L44 49L45 49L45 52L44 52L44 51L43 51L43 52L42 52L42 53L43 53L43 54L42 54L42 55L43 55L43 56L42 56L42 57L43 57L43 60L42 60L42 61L43 61L43 60L44 60L44 59L45 59L45 60L46 60L46 59L47 59L47 57L46 57L46 56L49 56L49 55L50 55L50 54L49 54L49 55L47 55L47 54L48 54L48 53L45 53L45 52L46 52L46 51L49 51L49 50L48 50L48 49L47 49L47 47L48 47L48 48L50 48L50 46L47 46L47 45L45 45L45 44L46 44L46 42L47 42L47 43L48 43L48 44L49 44L49 45L50 45L50 44L49 44L49 41L48 41L48 42L47 42L47 40L48 40L48 39L47 39L47 40L45 40L45 39L43 39L43 38L41 38L41 37L42 37L42 36L44 36L44 37L45 37L45 38L49 38L49 37L45 37L45 36L48 36L48 34L49 34L49 36L51 36L51 33L50 33L50 34L49 34L49 33L45 33L45 32L44 32L44 31L45 31L45 30L47 30L47 29L46 29L46 28L49 28L49 27L47 27L47 25L48 25L48 24L49 24L49 25L50 25L50 28L51 28L51 27L52 27L52 26L51 26L51 25L55 25L55 27L56 27L56 25L55 25L55 24L53 24L53 23L52 23L52 22L53 22L53 20L52 20L52 21L50 21L50 20L49 20L49 19L48 19L48 18L47 18L47 17L45 17L45 16ZM23 17L23 18L26 18L26 17ZM27 17L27 18L28 18L28 17ZM5 18L5 20L6 20L6 21L3 21L3 22L2 22L2 23L3 23L3 22L6 22L6 23L4 23L4 24L3 24L3 25L5 25L5 26L6 26L6 27L5 27L5 28L4 28L4 29L5 29L5 30L3 30L3 29L2 29L2 30L3 30L3 31L2 31L2 32L3 32L3 31L5 31L5 30L6 30L6 31L8 31L8 29L11 29L11 27L10 27L10 28L9 28L9 27L8 27L8 28L6 28L6 27L7 27L7 26L8 26L8 25L7 25L7 24L6 24L6 23L7 23L7 22L6 22L6 21L7 21L7 20L6 20L6 19L8 19L8 18ZM19 18L19 19L20 19L20 18ZM44 18L44 19L46 19L46 18ZM58 19L58 20L59 20L59 19ZM63 19L63 20L62 20L62 21L63 21L63 20L64 20L64 19ZM20 20L20 22L21 22L21 23L20 23L20 24L21 24L21 25L17 25L17 23L16 23L16 25L17 25L17 26L18 26L18 28L20 28L20 30L21 30L21 29L25 29L25 28L26 28L26 30L30 30L30 31L32 31L32 32L31 32L31 34L32 34L32 32L34 32L34 31L33 31L33 30L34 30L34 29L35 29L35 30L36 30L36 28L35 28L35 27L36 27L36 26L34 26L34 24L35 24L35 25L36 25L36 24L35 24L35 23L34 23L34 24L33 24L33 23L31 23L31 25L32 25L32 24L33 24L33 26L29 26L29 25L30 25L30 24L29 24L29 25L28 25L28 23L27 23L27 22L25 22L25 23L27 23L27 24L26 24L26 25L25 25L25 26L26 26L26 27L25 27L25 28L24 28L24 27L23 27L23 26L24 26L24 25L22 25L22 24L21 24L21 23L22 23L22 22L23 22L23 20ZM37 20L37 21L38 21L38 20ZM46 20L46 21L48 21L48 22L49 22L49 24L51 24L51 23L50 23L50 21L49 21L49 20ZM12 21L12 22L13 22L13 21ZM18 21L18 22L19 22L19 21ZM55 21L55 22L56 22L56 21ZM14 22L14 23L15 23L15 22ZM39 22L39 23L38 23L38 25L39 25L39 23L41 23L41 24L42 24L42 25L41 25L41 26L38 26L38 27L42 27L42 30L43 30L43 31L44 31L44 30L45 30L45 29L44 29L44 28L46 28L46 26L43 26L43 25L44 25L44 24L43 24L43 23L41 23L41 22ZM44 22L44 23L45 23L45 24L46 24L46 25L47 25L47 24L48 24L48 23L47 23L47 24L46 24L46 22ZM18 23L18 24L19 24L19 23ZM23 23L23 24L24 24L24 23ZM5 24L5 25L6 25L6 26L7 26L7 25L6 25L6 24ZM10 25L10 26L11 26L11 25ZM12 25L12 26L14 26L14 25ZM21 25L21 26L20 26L20 27L21 27L21 28L22 28L22 27L21 27L21 26L22 26L22 25ZM26 25L26 26L27 26L27 29L31 29L31 30L33 30L33 27L30 27L30 28L29 28L29 27L28 27L28 26L27 26L27 25ZM15 27L15 28L16 28L16 27ZM5 28L5 29L6 29L6 30L7 30L7 29L6 29L6 28ZM31 28L31 29L32 29L32 28ZM38 28L38 29L40 29L40 28ZM54 28L54 29L55 29L55 28ZM48 29L48 30L49 30L49 29ZM17 30L17 31L18 31L18 30ZM58 30L58 31L57 31L57 32L58 32L58 31L59 31L59 30ZM24 31L24 32L26 32L26 31ZM27 31L27 32L28 32L28 33L29 33L29 31ZM46 31L46 32L47 32L47 31ZM52 31L52 32L53 32L53 31ZM17 32L17 33L18 33L18 32ZM43 32L43 33L40 33L40 36L39 36L39 37L40 37L40 36L42 36L42 35L41 35L41 34L43 34L43 33L44 33L44 36L45 36L45 33L44 33L44 32ZM55 32L55 33L56 33L56 34L57 34L57 33L56 33L56 32ZM66 32L66 34L68 34L68 33L67 33L67 32ZM5 33L5 36L8 36L8 33ZM9 33L9 37L10 37L10 33ZM33 33L33 36L36 36L36 33ZM61 33L61 36L64 36L64 33ZM6 34L6 35L7 35L7 34ZM15 34L15 35L16 35L16 34ZM29 34L29 36L30 36L30 34ZM34 34L34 35L35 35L35 34ZM58 34L58 35L59 35L59 34ZM62 34L62 35L63 35L63 34ZM31 35L31 36L32 36L32 35ZM67 35L67 36L66 36L66 37L67 37L67 36L68 36L68 35ZM3 37L3 38L5 38L5 37ZM6 37L6 38L7 38L7 37ZM62 37L62 39L65 39L65 37L64 37L64 38L63 38L63 37ZM37 38L37 39L38 39L38 38ZM39 38L39 40L41 40L41 38ZM1 39L1 40L2 40L2 41L3 41L3 39ZM8 39L8 41L9 41L9 40L10 40L10 39ZM5 40L5 42L6 42L6 41L7 41L7 40ZM33 40L33 41L34 41L34 40ZM37 40L37 43L38 43L38 44L40 44L40 43L38 43L38 40ZM57 40L57 42L58 42L58 41L59 41L59 42L60 42L60 43L61 43L61 44L63 44L63 43L61 43L61 42L62 42L62 41L61 41L61 40L60 40L60 41L59 41L59 40ZM65 41L65 42L66 42L66 41ZM44 42L44 43L45 43L45 42ZM29 43L29 46L27 46L27 47L29 47L29 46L30 46L30 45L31 45L31 44L30 44L30 43ZM2 44L2 45L1 45L1 46L3 46L3 47L4 47L4 45L3 45L3 44ZM52 45L52 46L53 46L53 45ZM67 45L67 46L68 46L68 45ZM6 46L6 47L7 47L7 46ZM45 46L45 49L46 49L46 47L47 47L47 46ZM25 47L25 48L26 48L26 47ZM22 48L22 49L23 49L23 48ZM62 48L62 50L63 50L63 48ZM13 49L13 50L12 50L12 51L13 51L13 50L14 50L14 49ZM2 50L2 51L3 51L3 50ZM19 50L19 51L20 51L20 50ZM41 50L41 51L42 51L42 50ZM50 51L50 52L49 52L49 53L50 53L50 52L51 52L51 51ZM1 52L1 53L2 53L2 54L3 54L3 53L2 53L2 52ZM37 52L37 53L38 53L38 52ZM43 52L43 53L44 53L44 56L43 56L43 57L44 57L44 56L46 56L46 54L45 54L45 53L44 53L44 52ZM21 53L21 54L22 54L22 53ZM28 53L28 54L27 54L27 55L28 55L28 56L29 56L29 57L30 57L30 56L29 56L29 55L30 55L30 53ZM15 54L15 55L16 55L16 54ZM67 55L67 57L66 57L66 58L68 58L68 55ZM21 56L21 57L19 57L19 60L21 60L21 59L23 59L23 58L24 58L24 57L22 57L22 56ZM39 56L39 57L38 57L38 58L39 58L39 57L41 57L41 56ZM57 56L57 57L58 57L58 56ZM6 57L6 58L7 58L7 59L8 59L8 58L7 58L7 57ZM14 57L14 58L16 58L16 57ZM21 57L21 58L20 58L20 59L21 59L21 58L22 58L22 57ZM17 58L17 59L18 59L18 58ZM45 58L45 59L46 59L46 58ZM14 59L14 60L15 60L15 62L14 62L14 63L13 63L13 66L14 66L14 65L15 65L15 64L17 64L17 65L18 65L18 64L17 64L17 63L18 63L18 62L19 62L19 61L18 61L18 60L16 60L16 59ZM57 59L57 60L58 60L58 59ZM3 60L3 61L5 61L5 60ZM29 60L29 62L28 62L28 63L29 63L29 62L31 62L31 60ZM65 60L65 61L66 61L66 60ZM17 61L17 62L18 62L18 61ZM33 61L33 64L36 64L36 61ZM61 61L61 64L64 64L64 61ZM67 61L67 62L68 62L68 61ZM34 62L34 63L35 63L35 62ZM62 62L62 63L63 63L63 62ZM65 62L65 63L66 63L66 62ZM25 63L25 64L26 64L26 63ZM45 64L45 66L46 66L46 64ZM11 65L11 66L12 66L12 65ZM30 65L30 66L32 66L32 65ZM58 65L58 66L60 66L60 65ZM62 65L62 66L61 66L61 67L62 67L62 66L63 66L63 67L65 67L65 66L64 66L64 65ZM29 67L29 68L30 68L30 67ZM35 67L35 68L36 68L36 69L38 69L38 68L37 68L37 67ZM48 67L48 68L49 68L49 67ZM33 68L33 69L34 69L34 68ZM0 0L0 7L7 7L7 0ZM1 1L1 6L6 6L6 1ZM2 2L2 5L5 5L5 2ZM62 0L62 7L69 7L69 0ZM63 1L63 6L68 6L68 1ZM64 2L64 5L67 5L67 2ZM0 62L0 69L7 69L7 62ZM1 63L1 68L6 68L6 63ZM2 64L2 67L5 67L5 64Z" fill="#000000"/></g></g></svg>
