<?xml version="1.0" encoding="UTF-8"?>
<svg xmlns="http://www.w3.org/2000/svg" version="1.1" width="300" height="300" viewBox="0 0 300 300"><rect x="0" y="0" width="300" height="300" fill="#ffffff"/><g transform="scale(4.348)"><g transform="translate(0,0)"><path fill-rule="evenodd" d="M8 0L8 1L9 1L9 2L8 2L8 5L9 5L9 6L8 6L8 7L9 7L9 8L8 8L8 9L7 9L7 8L6 8L6 9L7 9L7 10L5 10L5 9L4 9L4 8L0 8L0 9L4 9L4 10L5 10L5 11L3 11L3 10L2 10L2 11L1 11L1 10L0 10L0 14L1 14L1 13L2 13L2 15L3 15L3 16L0 16L0 17L1 17L1 18L2 18L2 17L3 17L3 18L4 18L4 21L3 21L3 23L2 23L2 22L1 22L1 21L2 21L2 20L3 20L3 19L2 19L2 20L1 20L1 19L0 19L0 22L1 22L1 23L0 23L0 24L1 24L1 25L0 25L0 27L1 27L1 25L2 25L2 28L1 28L1 29L0 29L0 30L1 30L1 31L0 31L0 33L2 33L2 34L1 34L1 35L2 35L2 36L3 36L3 38L2 38L2 37L1 37L1 36L0 36L0 39L1 39L1 38L2 38L2 39L3 39L3 40L2 40L2 41L3 41L3 40L4 40L4 39L3 39L3 38L4 38L4 37L8 37L8 38L6 38L6 39L7 39L7 40L6 40L6 41L5 41L5 42L4 42L4 43L3 43L3 44L2 44L2 42L1 42L1 40L0 40L0 42L1 42L1 44L0 44L0 45L1 45L1 46L0 46L0 47L1 47L1 48L0 48L0 52L1 52L1 55L0 55L0 57L1 57L1 58L0 58L0 61L1 61L1 58L2 58L2 59L3 59L3 58L2 58L2 56L1 56L1 55L2 55L2 54L3 54L3 53L2 53L2 52L3 52L3 49L4 49L4 51L5 51L5 48L6 48L6 49L7 49L7 50L6 50L6 51L7 51L7 52L4 52L4 53L8 53L8 56L9 56L9 57L7 57L7 56L5 56L5 57L4 57L4 55L7 55L7 54L4 54L4 55L3 55L3 57L4 57L4 59L7 59L7 60L6 60L6 61L8 61L8 62L9 62L9 63L10 63L10 62L11 62L11 65L10 65L10 64L9 64L9 65L8 65L8 69L10 69L10 68L11 68L11 69L12 69L12 68L13 68L13 69L14 69L14 68L15 68L15 69L16 69L16 68L15 68L15 67L18 67L18 64L19 64L19 67L20 67L20 69L23 69L23 68L24 68L24 69L25 69L25 68L24 68L24 67L20 67L20 65L22 65L22 64L21 64L21 63L24 63L24 64L23 64L23 66L24 66L24 65L25 65L25 66L26 66L26 67L27 67L27 69L30 69L30 68L33 68L33 69L35 69L35 67L38 67L38 68L39 68L39 69L41 69L41 68L40 68L40 67L41 67L41 66L42 66L42 65L40 65L40 64L41 64L41 62L39 62L39 61L40 61L40 60L41 60L41 61L42 61L42 60L41 60L41 59L42 59L42 58L43 58L43 56L41 56L41 55L40 55L40 54L42 54L42 55L43 55L43 54L44 54L44 55L46 55L46 54L47 54L47 52L49 52L49 53L48 53L48 55L47 55L47 57L48 57L48 55L49 55L49 56L51 56L51 57L52 57L52 59L51 59L51 58L50 58L50 57L49 57L49 58L50 58L50 59L48 59L48 58L47 58L47 59L48 59L48 60L47 60L47 61L49 61L49 62L48 62L48 64L49 64L49 65L46 65L46 68L45 68L45 69L48 69L48 68L49 68L49 69L50 69L50 68L51 68L51 69L53 69L53 68L54 68L54 69L55 69L55 68L57 68L57 67L55 67L55 68L54 68L54 67L53 67L53 68L52 68L52 67L51 67L51 66L50 66L50 68L49 68L49 65L52 65L52 66L54 66L54 65L56 65L56 66L58 66L58 67L60 67L60 68L58 68L58 69L60 69L60 68L61 68L61 69L62 69L62 68L63 68L63 69L64 69L64 68L65 68L65 67L64 67L64 68L63 68L63 67L62 67L62 66L59 66L59 65L63 65L63 66L64 66L64 65L67 65L67 66L68 66L68 64L69 64L69 63L68 63L68 64L67 64L67 63L65 63L65 60L66 60L66 61L67 61L67 62L68 62L68 61L69 61L69 58L67 58L67 60L66 60L66 59L63 59L63 57L62 57L62 58L61 58L61 57L59 57L59 58L58 58L58 59L57 59L57 58L56 58L56 57L55 57L55 56L58 56L58 55L59 55L59 56L62 56L62 55L60 55L60 54L59 54L59 53L60 53L60 52L59 52L59 51L61 51L61 54L62 54L62 53L63 53L63 54L65 54L65 53L63 53L63 51L61 51L61 50L63 50L63 49L62 49L62 48L61 48L61 47L64 47L64 49L65 49L65 48L66 48L66 46L67 46L67 48L68 48L68 49L67 49L67 50L68 50L68 49L69 49L69 46L67 46L67 45L66 45L66 46L65 46L65 47L64 47L64 46L62 46L62 45L65 45L65 43L68 43L68 41L67 41L67 39L66 39L66 37L65 37L65 36L66 36L66 35L67 35L67 37L68 37L68 38L69 38L69 37L68 37L68 36L69 36L69 33L68 33L68 32L65 32L65 31L64 31L64 30L65 30L65 29L64 29L64 28L63 28L63 27L66 27L66 30L67 30L67 31L68 31L68 29L69 29L69 28L67 28L67 26L64 26L64 25L63 25L63 22L64 22L64 23L65 23L65 25L69 25L69 24L66 24L66 22L67 22L67 23L69 23L69 21L68 21L68 22L67 22L67 20L69 20L69 19L68 19L68 18L69 18L69 17L68 17L68 16L67 16L67 15L66 15L66 14L69 14L69 12L68 12L68 11L69 11L69 10L68 10L68 9L69 9L69 8L68 8L68 9L67 9L67 8L64 8L64 11L63 11L63 10L62 10L62 8L61 8L61 9L60 9L60 8L58 8L58 7L59 7L59 4L58 4L58 5L57 5L57 6L56 6L56 8L58 8L58 9L56 9L56 10L55 10L55 8L54 8L54 7L55 7L55 6L54 6L54 7L53 7L53 6L52 6L52 7L53 7L53 8L51 8L51 9L52 9L52 10L50 10L50 8L49 8L49 9L48 9L48 8L46 8L46 9L47 9L47 11L46 11L46 10L45 10L45 9L43 9L43 6L44 6L44 8L45 8L45 5L46 5L46 7L47 7L47 5L48 5L48 7L49 7L49 5L48 5L48 4L50 4L50 7L51 7L51 3L53 3L53 4L52 4L52 5L53 5L53 4L55 4L55 5L56 5L56 3L57 3L57 2L58 2L58 3L59 3L59 2L58 2L58 1L61 1L61 0L58 0L58 1L57 1L57 0L51 0L51 2L49 2L49 3L48 3L48 2L47 2L47 1L48 1L48 0L47 0L47 1L45 1L45 0L44 0L44 2L42 2L42 1L43 1L43 0L39 0L39 1L40 1L40 2L42 2L42 3L41 3L41 4L43 4L43 6L42 6L42 5L40 5L40 4L38 4L38 2L36 2L36 4L35 4L35 1L34 1L34 0L33 0L33 1L32 1L32 0L31 0L31 1L29 1L29 0L28 0L28 2L27 2L27 1L26 1L26 2L27 2L27 4L26 4L26 3L23 3L23 2L25 2L25 0L21 0L21 1L19 1L19 0L17 0L17 1L16 1L16 0L15 0L15 2L16 2L16 3L15 3L15 4L14 4L14 7L15 7L15 6L16 6L16 7L17 7L17 8L13 8L13 11L12 11L12 8L10 8L10 7L11 7L11 6L12 6L12 7L13 7L13 2L12 2L12 1L14 1L14 0L12 0L12 1L11 1L11 0ZM37 0L37 1L38 1L38 0ZM49 0L49 1L50 1L50 0ZM17 1L17 2L18 2L18 3L19 3L19 1ZM21 1L21 2L20 2L20 3L21 3L21 4L23 4L23 7L22 7L22 5L20 5L20 4L17 4L17 3L16 3L16 5L18 5L18 6L17 6L17 7L18 7L18 9L19 9L19 7L20 7L20 6L21 6L21 7L22 7L22 8L21 8L21 9L20 9L20 10L22 10L22 11L20 11L20 13L21 13L21 15L20 15L20 14L19 14L19 13L17 13L17 11L18 11L18 12L19 12L19 10L17 10L17 9L16 9L16 10L15 10L15 9L14 9L14 10L15 10L15 11L14 11L14 15L13 15L13 14L12 14L12 13L13 13L13 12L11 12L11 11L10 11L10 10L11 10L11 9L10 9L10 10L9 10L9 9L8 9L8 10L7 10L7 11L6 11L6 12L3 12L3 11L2 11L2 13L3 13L3 14L4 14L4 15L5 15L5 16L7 16L7 15L8 15L8 17L9 17L9 18L7 18L7 17L4 17L4 18L7 18L7 19L6 19L6 20L7 20L7 19L8 19L8 21L4 21L4 22L5 22L5 23L3 23L3 25L4 25L4 27L6 27L6 28L4 28L4 29L3 29L3 28L2 28L2 30L5 30L5 31L2 31L2 32L3 32L3 33L4 33L4 32L5 32L5 31L6 31L6 32L7 32L7 31L8 31L8 32L9 32L9 34L11 34L11 35L9 35L9 38L8 38L8 39L9 39L9 40L11 40L11 39L12 39L12 42L13 42L13 37L14 37L14 38L15 38L15 40L16 40L16 41L14 41L14 42L15 42L15 44L17 44L17 42L16 42L16 41L19 41L19 43L18 43L18 45L15 45L15 47L13 47L13 48L11 48L11 46L13 46L13 45L12 45L12 44L14 44L14 43L11 43L11 42L9 42L9 41L6 41L6 42L8 42L8 43L4 43L4 46L3 46L3 45L2 45L2 48L1 48L1 49L3 49L3 47L4 47L4 48L5 48L5 47L6 47L6 48L7 48L7 49L8 49L8 50L7 50L7 51L9 51L9 50L11 50L11 49L14 49L14 50L15 50L15 49L16 49L16 51L13 51L13 50L12 50L12 51L11 51L11 52L9 52L9 54L10 54L10 55L11 55L11 56L10 56L10 58L9 58L9 60L8 60L8 61L9 61L9 60L10 60L10 58L11 58L11 57L12 57L12 59L11 59L11 61L12 61L12 60L13 60L13 61L14 61L14 62L13 62L13 63L12 63L12 64L13 64L13 66L11 66L11 68L12 68L12 67L14 67L14 64L15 64L15 65L17 65L17 64L15 64L15 63L14 63L14 62L15 62L15 61L14 61L14 59L16 59L16 62L17 62L17 63L19 63L19 62L17 62L17 60L20 60L20 61L21 61L21 62L20 62L20 63L21 63L21 62L22 62L22 61L23 61L23 60L24 60L24 63L25 63L25 64L26 64L26 66L27 66L27 65L28 65L28 66L29 66L29 67L30 67L30 66L29 66L29 65L31 65L31 64L30 64L30 63L29 63L29 62L32 62L32 61L28 61L28 60L26 60L26 59L25 59L25 58L24 58L24 57L25 57L25 56L24 56L24 54L25 54L25 55L27 55L27 56L26 56L26 57L27 57L27 59L29 59L29 57L31 57L31 59L30 59L30 60L32 60L32 57L33 57L33 56L35 56L35 57L34 57L34 58L33 58L33 60L34 60L34 58L35 58L35 57L36 57L36 58L37 58L37 59L36 59L36 60L37 60L37 61L39 61L39 60L40 60L40 58L39 58L39 57L38 57L38 56L40 56L40 55L39 55L39 54L38 54L38 53L41 53L41 52L42 52L42 54L43 54L43 52L44 52L44 50L45 50L45 48L46 48L46 50L47 50L47 51L48 51L48 50L47 50L47 49L48 49L48 48L46 48L46 47L44 47L44 45L45 45L45 46L47 46L47 44L48 44L48 45L49 45L49 46L50 46L50 48L49 48L49 49L50 49L50 48L51 48L51 47L52 47L52 49L51 49L51 50L50 50L50 54L51 54L51 52L52 52L52 53L53 53L53 54L54 54L54 56L53 56L53 55L52 55L52 56L53 56L53 60L51 60L51 59L50 59L50 60L49 60L49 61L51 61L51 62L50 62L50 63L51 63L51 64L52 64L52 65L53 65L53 64L54 64L54 62L55 62L55 59L54 59L54 56L55 56L55 52L57 52L57 54L56 54L56 55L58 55L58 53L59 53L59 52L58 52L58 50L59 50L59 49L61 49L61 48L60 48L60 47L61 47L61 46L60 46L60 47L59 47L59 45L61 45L61 44L59 44L59 43L61 43L61 42L62 42L62 43L63 43L63 44L64 44L64 43L65 43L65 42L67 42L67 41L66 41L66 39L65 39L65 42L64 42L64 43L63 43L63 41L64 41L64 40L62 40L62 39L63 39L63 38L65 38L65 37L62 37L62 38L61 38L61 37L60 37L60 38L59 38L59 36L60 36L60 35L59 35L59 32L63 32L63 28L62 28L62 27L63 27L63 26L61 26L61 25L62 25L62 24L61 24L61 23L60 23L60 24L61 24L61 25L59 25L59 24L58 24L58 23L56 23L56 26L57 26L57 24L58 24L58 26L61 26L61 29L60 29L60 30L57 30L57 29L58 29L58 27L55 27L55 28L57 28L57 29L56 29L56 33L55 33L55 32L54 32L54 31L53 31L53 33L55 33L55 34L51 34L51 32L52 32L52 30L51 30L51 29L50 29L50 28L51 28L51 27L50 27L50 28L49 28L49 26L48 26L48 24L47 24L47 25L46 25L46 23L50 23L50 22L51 22L51 20L52 20L52 19L51 19L51 20L50 20L50 18L52 18L52 17L54 17L54 18L53 18L53 20L54 20L54 21L56 21L56 22L57 22L57 20L60 20L60 21L61 21L61 20L65 20L65 21L66 21L66 20L67 20L67 18L68 18L68 17L67 17L67 16L66 16L66 18L65 18L65 13L67 13L67 11L66 11L66 12L65 12L65 11L64 11L64 12L63 12L63 13L64 13L64 14L63 14L63 15L64 15L64 17L61 17L61 16L62 16L62 15L61 15L61 13L62 13L62 10L61 10L61 12L60 12L60 11L58 11L58 14L57 14L57 12L56 12L56 13L55 13L55 10L52 10L52 11L51 11L51 13L53 13L53 11L54 11L54 14L57 14L57 15L55 15L55 16L58 16L58 17L60 17L60 18L61 18L61 19L57 19L57 17L56 17L56 19L57 19L57 20L54 20L54 19L55 19L55 17L54 17L54 16L53 16L53 14L50 14L50 15L49 15L49 16L47 16L47 15L48 15L48 14L49 14L49 13L50 13L50 12L49 12L49 13L47 13L47 12L48 12L48 11L47 11L47 12L45 12L45 11L44 11L44 10L43 10L43 12L41 12L41 13L42 13L42 14L43 14L43 15L41 15L41 14L40 14L40 11L42 11L42 10L41 10L41 9L42 9L42 8L41 8L41 9L40 9L40 11L39 11L39 8L40 8L40 5L38 5L38 4L37 4L37 7L38 7L38 8L37 8L37 9L38 9L38 10L37 10L37 12L36 12L36 9L35 9L35 10L34 10L34 11L35 11L35 12L36 12L36 16L35 16L35 15L34 15L34 20L32 20L32 19L30 19L30 18L32 18L32 17L31 17L31 15L30 15L30 14L32 14L32 13L33 13L33 14L35 14L35 13L34 13L34 12L33 12L33 11L32 11L32 13L30 13L30 14L29 14L29 13L28 13L28 14L29 14L29 15L28 15L28 17L26 17L26 16L27 16L27 12L28 12L28 11L29 11L29 12L31 12L31 10L30 10L30 9L29 9L29 8L28 8L28 6L29 6L29 7L30 7L30 6L29 6L29 5L31 5L31 4L29 4L29 3L30 3L30 2L28 2L28 5L26 5L26 6L25 6L25 7L26 7L26 6L27 6L27 8L23 8L23 7L24 7L24 5L25 5L25 4L23 4L23 3L21 3L21 2L22 2L22 1ZM33 1L33 2L32 2L32 4L33 4L33 2L34 2L34 1ZM53 1L53 2L55 2L55 3L56 3L56 2L57 2L57 1L56 1L56 2L55 2L55 1ZM9 2L9 4L10 4L10 2ZM11 2L11 3L12 3L12 2ZM44 3L44 4L45 4L45 3ZM46 3L46 5L47 5L47 3ZM60 3L60 5L61 5L61 3ZM33 5L33 8L36 8L36 5ZM9 6L9 7L10 7L10 6ZM18 6L18 7L19 7L19 6ZM31 6L31 8L32 8L32 6ZM34 6L34 7L35 7L35 6ZM38 6L38 7L39 7L39 6ZM41 6L41 7L42 7L42 6ZM57 6L57 7L58 7L58 6ZM60 6L60 7L61 7L61 6ZM22 8L22 9L23 9L23 11L22 11L22 12L23 12L23 13L22 13L22 16L20 16L20 19L19 19L19 18L15 18L15 19L17 19L17 21L18 21L18 22L20 22L20 23L23 23L23 22L25 22L25 21L24 21L24 20L22 20L22 19L23 19L23 18L24 18L24 19L25 19L25 20L26 20L26 18L24 18L24 17L25 17L25 16L26 16L26 12L25 12L25 10L24 10L24 9L23 9L23 8ZM27 8L27 9L26 9L26 11L28 11L28 10L27 10L27 9L28 9L28 8ZM32 9L32 10L33 10L33 9ZM58 9L58 10L59 10L59 9ZM65 9L65 10L67 10L67 9ZM8 10L8 11L7 11L7 12L6 12L6 13L7 13L7 14L6 14L6 15L7 15L7 14L8 14L8 15L9 15L9 14L8 14L8 13L7 13L7 12L8 12L8 11L9 11L9 10ZM56 10L56 11L57 11L57 10ZM15 11L15 13L16 13L16 14L15 14L15 15L14 15L14 16L13 16L13 15L10 15L10 16L9 16L9 17L10 17L10 16L11 16L11 18L12 18L12 16L13 16L13 18L14 18L14 16L15 16L15 17L17 17L17 15L19 15L19 14L17 14L17 13L16 13L16 11ZM9 12L9 13L10 13L10 12ZM43 12L43 14L46 14L46 15L44 15L44 16L43 16L43 18L42 18L42 16L41 16L41 17L40 17L40 14L39 14L39 13L37 13L37 14L39 14L39 15L38 15L38 17L39 17L39 19L40 19L40 20L38 20L38 19L37 19L37 17L35 17L35 18L36 18L36 21L37 21L37 22L38 22L38 23L37 23L37 24L42 24L42 25L44 25L44 27L42 27L42 26L41 26L41 27L42 27L42 28L41 28L41 29L39 29L39 26L40 26L40 25L37 25L37 27L35 27L35 30L34 30L34 28L33 28L33 27L32 27L32 26L31 26L31 27L30 27L30 26L29 26L29 28L28 28L28 27L24 27L24 25L26 25L26 24L27 24L27 23L28 23L28 22L27 22L27 21L26 21L26 23L24 23L24 24L22 24L22 25L23 25L23 27L24 27L24 28L25 28L25 31L24 31L24 29L22 29L22 26L21 26L21 24L18 24L18 23L17 23L17 22L16 22L16 21L14 21L14 20L13 20L13 19L11 19L11 20L9 20L9 22L8 22L8 23L7 23L7 22L6 22L6 23L7 23L7 24L4 24L4 25L5 25L5 26L6 26L6 27L7 27L7 28L6 28L6 29L7 29L7 30L6 30L6 31L7 31L7 30L8 30L8 31L9 31L9 32L10 32L10 31L9 31L9 30L10 30L10 29L7 29L7 28L8 28L8 26L9 26L9 28L11 28L11 29L12 29L12 30L11 30L11 32L12 32L12 30L13 30L13 32L14 32L14 33L11 33L11 34L14 34L14 33L15 33L15 32L16 32L16 30L17 30L17 29L15 29L15 30L13 30L13 29L14 29L14 28L13 28L13 27L14 27L14 26L18 26L18 27L19 27L19 29L22 29L22 32L21 32L21 30L18 30L18 31L20 31L20 32L21 32L21 33L23 33L23 34L19 34L19 33L17 33L17 34L16 34L16 35L15 35L15 38L16 38L16 39L17 39L17 38L18 38L18 39L20 39L20 40L21 40L21 37L19 37L19 36L20 36L20 35L23 35L23 34L25 34L25 31L27 31L27 32L26 32L26 33L27 33L27 32L28 32L28 35L26 35L26 36L25 36L25 35L24 35L24 36L23 36L23 37L22 37L22 39L23 39L23 37L24 37L24 36L25 36L25 38L24 38L24 40L23 40L23 41L21 41L21 42L20 42L20 43L21 43L21 42L22 42L22 44L21 44L21 45L23 45L23 47L25 47L25 46L26 46L26 47L27 47L27 46L26 46L26 45L23 45L23 42L25 42L25 43L24 43L24 44L26 44L26 43L27 43L27 45L30 45L30 46L31 46L31 45L34 45L34 47L35 47L35 48L38 48L38 49L36 49L36 50L37 50L37 51L35 51L35 49L34 49L34 51L35 51L35 53L33 53L33 48L32 48L32 47L31 47L31 48L29 48L29 50L27 50L27 49L25 49L25 51L24 51L24 50L23 50L23 49L21 49L21 50L20 50L20 49L19 49L19 51L18 51L18 48L21 48L21 47L19 47L19 46L20 46L20 45L19 45L19 46L18 46L18 48L17 48L17 52L19 52L19 53L18 53L18 56L16 56L16 54L17 54L17 53L15 53L15 54L14 54L14 55L13 55L13 53L12 53L12 52L13 52L13 51L12 51L12 52L11 52L11 53L10 53L10 54L11 54L11 55L13 55L13 56L14 56L14 55L15 55L15 56L16 56L16 59L17 59L17 58L20 58L20 59L21 59L21 60L22 60L22 59L21 59L21 58L22 58L22 56L23 56L23 57L24 57L24 56L23 56L23 54L24 54L24 52L25 52L25 53L27 53L27 54L30 54L30 55L31 55L31 54L32 54L32 55L35 55L35 53L36 53L36 54L37 54L37 53L36 53L36 52L39 52L39 51L38 51L38 50L40 50L40 49L39 49L39 47L40 47L40 48L42 48L42 49L44 49L44 48L43 48L43 45L42 45L42 44L41 44L41 45L40 45L40 44L39 44L39 43L38 43L38 44L31 44L31 45L30 45L30 43L29 43L29 39L32 39L32 40L30 40L30 41L32 41L32 43L34 43L34 42L35 42L35 43L36 43L36 42L37 42L37 41L39 41L39 42L40 42L40 43L43 43L43 42L42 42L42 41L41 41L41 42L40 42L40 40L41 40L41 39L43 39L43 38L44 38L44 39L45 39L45 40L43 40L43 41L45 41L45 42L44 42L44 44L45 44L45 45L46 45L46 43L48 43L48 44L51 44L51 45L52 45L52 46L53 46L53 45L54 45L54 47L53 47L53 48L54 48L54 49L55 49L55 50L56 50L56 48L58 48L58 49L57 49L57 50L58 50L58 49L59 49L59 47L58 47L58 46L57 46L57 45L58 45L58 43L59 43L59 41L60 41L60 40L59 40L59 38L58 38L58 37L56 37L56 36L54 36L54 35L52 35L52 36L54 36L54 37L55 37L55 38L56 38L56 40L55 40L55 39L54 39L54 40L55 40L55 41L57 41L57 42L58 42L58 43L56 43L56 42L54 42L54 41L53 41L53 42L54 42L54 43L53 43L53 44L51 44L51 43L52 43L52 42L51 42L51 43L50 43L50 42L49 42L49 41L46 41L46 40L47 40L47 39L48 39L48 38L47 38L47 39L45 39L45 38L46 38L46 37L49 37L49 38L51 38L51 39L49 39L49 40L50 40L50 41L52 41L52 39L53 39L53 37L51 37L51 34L50 34L50 30L49 30L49 29L46 29L46 28L47 28L47 26L46 26L46 25L44 25L44 23L43 23L43 24L42 24L42 23L41 23L41 22L44 22L44 21L43 21L43 20L42 20L42 21L41 21L41 19L43 19L43 18L44 18L44 20L45 20L45 21L46 21L46 19L45 19L45 18L48 18L48 20L47 20L47 22L48 22L48 20L49 20L49 18L48 18L48 17L45 17L45 16L46 16L46 15L47 15L47 14L46 14L46 13L44 13L44 12ZM23 13L23 15L25 15L25 13ZM16 14L16 15L15 15L15 16L16 16L16 15L17 15L17 14ZM58 14L58 15L59 15L59 16L61 16L61 15L59 15L59 14ZM32 15L32 16L33 16L33 15ZM51 15L51 17L52 17L52 15ZM18 16L18 17L19 17L19 16ZM22 16L22 17L21 17L21 18L23 18L23 17L24 17L24 16ZM49 16L49 17L50 17L50 16ZM28 17L28 18L30 18L30 17ZM44 17L44 18L45 18L45 17ZM62 18L62 19L63 19L63 18ZM20 19L20 22L21 22L21 19ZM12 20L12 21L11 21L11 23L10 23L10 24L11 24L11 23L12 23L12 25L11 25L11 26L10 26L10 25L9 25L9 26L10 26L10 27L11 27L11 26L12 26L12 25L13 25L13 23L14 23L14 25L15 25L15 24L16 24L16 25L17 25L17 24L16 24L16 22L15 22L15 23L14 23L14 21L13 21L13 20ZM18 20L18 21L19 21L19 20ZM29 20L29 24L28 24L28 25L29 25L29 24L30 24L30 25L31 25L31 24L32 24L32 22L31 22L31 24L30 24L30 20ZM31 20L31 21L32 21L32 20ZM34 20L34 21L33 21L33 23L34 23L34 26L35 26L35 22L34 22L34 21L35 21L35 20ZM22 21L22 22L23 22L23 21ZM49 21L49 22L50 22L50 21ZM58 21L58 22L59 22L59 21ZM62 21L62 22L63 22L63 21ZM39 22L39 23L40 23L40 22ZM52 22L52 23L53 23L53 24L51 24L51 25L52 25L52 27L53 27L53 28L52 28L52 29L54 29L54 30L55 30L55 29L54 29L54 27L53 27L53 25L54 25L54 26L55 26L55 24L54 24L54 23L55 23L55 22L54 22L54 23L53 23L53 22ZM1 23L1 24L2 24L2 23ZM49 24L49 25L50 25L50 24ZM6 25L6 26L7 26L7 25ZM18 25L18 26L20 26L20 27L21 27L21 26L20 26L20 25ZM45 26L45 28L46 28L46 26ZM16 27L16 28L17 28L17 27ZM37 27L37 28L36 28L36 30L37 30L37 31L38 31L38 32L40 32L40 31L41 31L41 33L42 33L42 32L43 32L43 35L42 35L42 37L41 37L41 36L39 36L39 34L40 34L40 33L38 33L38 37L37 37L37 40L36 40L36 41L37 41L37 40L38 40L38 39L40 39L40 37L41 37L41 38L43 38L43 35L45 35L45 34L46 34L46 35L47 35L47 36L49 36L49 37L50 37L50 34L48 34L48 33L49 33L49 32L48 32L48 33L47 33L47 30L46 30L46 31L45 31L45 29L44 29L44 28L42 28L42 29L41 29L41 30L40 30L40 31L39 31L39 29L38 29L38 27ZM29 28L29 30L30 30L30 29L31 29L31 31L30 31L30 33L29 33L29 34L30 34L30 33L31 33L31 34L32 34L32 33L31 33L31 31L33 31L33 30L32 30L32 29L33 29L33 28ZM26 29L26 30L27 30L27 29ZM43 30L43 31L44 31L44 30ZM60 30L60 31L62 31L62 30ZM23 31L23 32L24 32L24 31ZM28 31L28 32L29 32L29 31ZM5 33L5 36L8 36L8 33ZM33 33L33 36L36 36L36 33ZM44 33L44 34L45 34L45 33ZM61 33L61 36L64 36L64 33ZM65 33L65 34L68 34L68 33ZM3 34L3 36L4 36L4 34ZM6 34L6 35L7 35L7 34ZM17 34L17 35L18 35L18 34ZM34 34L34 35L35 35L35 34ZM47 34L47 35L48 35L48 34ZM55 34L55 35L57 35L57 36L59 36L59 35L57 35L57 34ZM62 34L62 35L63 35L63 34ZM12 35L12 36L13 36L13 35ZM28 35L28 36L26 36L26 38L25 38L25 40L24 40L24 41L25 41L25 42L28 42L28 41L25 41L25 40L27 40L27 39L28 39L28 38L29 38L29 35ZM30 35L30 36L31 36L31 35ZM16 36L16 38L17 38L17 36ZM44 36L44 38L45 38L45 36ZM27 37L27 38L26 38L26 39L27 39L27 38L28 38L28 37ZM30 37L30 38L31 38L31 37ZM33 37L33 38L32 38L32 39L34 39L34 38L35 38L35 39L36 39L36 37ZM38 37L38 38L39 38L39 37ZM9 38L9 39L10 39L10 38ZM57 38L57 39L58 39L58 38ZM60 38L60 39L61 39L61 38ZM68 39L68 40L69 40L69 39ZM32 40L32 41L33 41L33 42L34 42L34 41L35 41L35 40L34 40L34 41L33 41L33 40ZM57 40L57 41L58 41L58 40ZM45 42L45 43L46 43L46 42ZM10 43L10 45L9 45L9 46L8 46L8 44L5 44L5 45L7 45L7 46L6 46L6 47L10 47L10 46L11 46L11 43ZM28 43L28 44L29 44L29 43ZM54 43L54 44L55 44L55 45L57 45L57 44L55 44L55 43ZM68 44L68 45L69 45L69 44ZM35 45L35 46L36 46L36 47L37 47L37 45ZM38 45L38 47L39 47L39 45ZM41 45L41 47L42 47L42 45ZM4 46L4 47L5 47L5 46ZM16 46L16 47L15 47L15 48L14 48L14 49L15 49L15 48L16 48L16 47L17 47L17 46ZM28 46L28 47L29 47L29 46ZM56 46L56 47L54 47L54 48L56 48L56 47L57 47L57 46ZM9 48L9 49L11 49L11 48ZM31 48L31 49L32 49L32 48ZM52 49L52 50L53 50L53 51L54 51L54 50L53 50L53 49ZM1 50L1 52L2 52L2 50ZM21 50L21 51L23 51L23 52L22 52L22 53L19 53L19 56L18 56L18 57L19 57L19 56L22 56L22 54L23 54L23 52L24 52L24 51L23 51L23 50ZM64 50L64 52L65 52L65 50ZM26 51L26 52L27 52L27 51ZM28 51L28 52L30 52L30 53L32 53L32 51ZM40 51L40 52L41 52L41 51ZM42 51L42 52L43 52L43 51ZM45 51L45 53L46 53L46 51ZM66 51L66 53L67 53L67 52L68 52L68 54L66 54L66 55L67 55L67 57L68 57L68 56L69 56L69 55L68 55L68 54L69 54L69 52L68 52L68 51ZM11 53L11 54L12 54L12 53ZM20 54L20 55L21 55L21 54ZM37 55L37 56L36 56L36 57L37 57L37 58L38 58L38 59L37 59L37 60L38 60L38 59L39 59L39 58L38 58L38 57L37 57L37 56L38 56L38 55ZM64 55L64 56L65 56L65 55ZM27 56L27 57L29 57L29 56ZM45 56L45 57L46 57L46 56ZM5 57L5 58L7 58L7 59L8 59L8 58L7 58L7 57ZM14 57L14 58L13 58L13 59L14 59L14 58L15 58L15 57ZM20 57L20 58L21 58L21 57ZM65 57L65 58L66 58L66 57ZM44 58L44 59L45 59L45 58ZM59 58L59 61L58 61L58 62L57 62L57 59L56 59L56 62L57 62L57 63L56 63L56 64L57 64L57 65L58 65L58 63L59 63L59 64L60 64L60 63L59 63L59 61L60 61L60 58ZM61 59L61 60L63 60L63 59ZM3 60L3 61L5 61L5 60ZM25 60L25 62L26 62L26 64L28 64L28 61L26 61L26 60ZM43 60L43 61L44 61L44 60ZM45 60L45 62L46 62L46 63L47 63L47 62L46 62L46 60ZM67 60L67 61L68 61L68 60ZM33 61L33 64L36 64L36 61ZM61 61L61 64L64 64L64 61ZM34 62L34 63L35 63L35 62ZM38 62L38 63L37 63L37 64L39 64L39 62ZM62 62L62 63L63 63L63 62ZM44 63L44 64L43 64L43 65L45 65L45 63ZM9 65L9 66L10 66L10 65ZM35 65L35 66L34 66L34 67L35 67L35 66L39 66L39 67L40 67L40 66L39 66L39 65ZM44 66L44 67L45 67L45 66ZM9 67L9 68L10 68L10 67ZM42 67L42 69L43 69L43 67ZM47 67L47 68L48 68L48 67ZM68 67L68 68L69 68L69 67ZM17 68L17 69L18 69L18 68ZM0 0L0 7L7 7L7 0ZM1 1L1 6L6 6L6 1ZM2 2L2 5L5 5L5 2ZM62 0L62 7L69 7L69 0ZM63 1L63 6L68 6L68 1ZM64 2L64 5L67 5L67 2ZM0 62L0 69L7 69L7 62ZM1 63L1 68L6 68L6 63ZM2 64L2 67L5 67L5 64Z" fill="#000000"/></g></g></svg>
