<?xml version="1.0" encoding="UTF-8"?>
<svg xmlns="http://www.w3.org/2000/svg" version="1.1" width="300" height="300" viewBox="0 0 300 300"><rect x="0" y="0" width="300" height="300" fill="#ffffff"/><g transform="scale(4.348)"><g transform="translate(0,0)"><path fill-rule="evenodd" d="M9 0L9 1L8 1L8 2L9 2L9 3L8 3L8 4L9 4L9 5L8 5L8 7L9 7L9 6L10 6L10 7L11 7L11 6L12 6L12 8L10 8L10 10L9 10L9 8L6 8L6 9L5 9L5 8L0 8L0 11L1 11L1 12L5 12L5 14L6 14L6 15L5 15L5 16L6 16L6 17L5 17L5 18L4 18L4 16L2 16L2 13L1 13L1 15L0 15L0 16L2 16L2 17L1 17L1 18L0 18L0 19L1 19L1 20L0 20L0 21L1 21L1 20L2 20L2 22L1 22L1 23L2 23L2 24L1 24L1 25L2 25L2 27L3 27L3 28L2 28L2 31L1 31L1 29L0 29L0 33L1 33L1 34L2 34L2 32L3 32L3 34L4 34L4 36L3 36L3 35L0 35L0 38L1 38L1 40L2 40L2 41L4 41L4 42L5 42L5 44L4 44L4 45L7 45L7 44L8 44L8 42L9 42L9 41L10 41L10 43L9 43L9 44L10 44L10 43L11 43L11 44L14 44L14 45L13 45L13 47L11 47L11 46L10 46L10 45L9 45L9 46L5 46L5 47L8 47L8 48L6 48L6 49L5 49L5 48L4 48L4 46L3 46L3 47L2 47L2 45L3 45L3 44L2 44L2 43L3 43L3 42L0 42L0 43L1 43L1 44L0 44L0 45L1 45L1 46L0 46L0 48L1 48L1 47L2 47L2 50L3 50L3 53L1 53L1 52L2 52L2 51L1 51L1 50L0 50L0 53L1 53L1 54L4 54L4 55L1 55L1 56L0 56L0 61L1 61L1 58L2 58L2 59L3 59L3 58L2 58L2 56L3 56L3 57L4 57L4 59L7 59L7 60L6 60L6 61L7 61L7 60L8 60L8 63L9 63L9 64L8 64L8 69L9 69L9 67L10 67L10 66L9 66L9 64L10 64L10 65L11 65L11 66L12 66L12 67L11 67L11 68L10 68L10 69L12 69L12 68L13 68L13 66L12 66L12 65L13 65L13 63L14 63L14 67L16 67L16 66L15 66L15 65L16 65L16 64L15 64L15 63L16 63L16 62L15 62L15 61L16 61L16 60L18 60L18 61L17 61L17 62L18 62L18 63L17 63L17 64L18 64L18 65L17 65L17 67L20 67L20 66L19 66L19 65L20 65L20 64L19 64L19 63L20 63L20 60L18 60L18 59L19 59L19 58L20 58L20 59L21 59L21 61L22 61L22 62L21 62L21 63L23 63L23 65L21 65L21 66L24 66L24 67L25 67L25 68L24 68L24 69L26 69L26 66L25 66L25 65L28 65L28 66L27 66L27 67L28 67L28 68L27 68L27 69L32 69L32 68L33 68L33 69L34 69L34 68L33 68L33 65L35 65L35 68L36 68L36 69L38 69L38 68L37 68L37 67L39 67L39 68L41 68L41 66L44 66L44 68L43 68L43 67L42 67L42 68L43 68L43 69L44 69L44 68L47 68L47 69L50 69L50 67L53 67L53 69L54 69L54 68L55 68L55 69L56 69L56 68L55 68L55 67L56 67L56 64L57 64L57 65L58 65L58 64L57 64L57 61L56 61L56 59L57 59L57 57L56 57L56 54L57 54L57 53L56 53L56 52L55 52L55 53L54 53L54 52L53 52L53 51L51 51L51 50L50 50L50 49L51 49L51 48L55 48L55 49L52 49L52 50L55 50L55 51L57 51L57 52L58 52L58 53L59 53L59 54L60 54L60 53L59 53L59 52L60 52L60 49L62 49L62 50L61 50L61 51L62 51L62 52L61 52L61 56L60 56L60 55L59 55L59 56L60 56L60 57L66 57L66 56L67 56L67 57L68 57L68 56L69 56L69 55L68 55L68 54L69 54L69 53L68 53L68 54L65 54L65 55L62 55L62 53L64 53L64 52L63 52L63 51L65 51L65 52L68 52L68 50L69 50L69 49L67 49L67 51L65 51L65 50L66 50L66 49L65 49L65 48L67 48L67 47L68 47L68 48L69 48L69 47L68 47L68 46L69 46L69 44L67 44L67 43L66 43L66 42L65 42L65 43L64 43L64 42L63 42L63 41L66 41L66 40L67 40L67 39L68 39L68 38L67 38L67 39L66 39L66 38L65 38L65 39L63 39L63 41L62 41L62 42L60 42L60 41L59 41L59 39L60 39L60 38L61 38L61 39L62 39L62 38L64 38L64 37L65 37L65 36L66 36L66 37L68 37L68 36L69 36L69 35L68 35L68 34L69 34L69 32L67 32L67 31L68 31L68 30L67 30L67 31L64 31L64 30L63 30L63 31L62 31L62 32L58 32L58 31L59 31L59 30L62 30L62 29L63 29L63 28L69 28L69 27L68 27L68 25L69 25L69 24L68 24L68 18L69 18L69 15L68 15L68 13L67 13L67 11L68 11L68 12L69 12L69 11L68 11L68 10L67 10L67 9L68 9L68 8L67 8L67 9L66 9L66 8L65 8L65 9L64 9L64 8L63 8L63 9L64 9L64 10L63 10L63 11L62 11L62 8L61 8L61 6L60 6L60 7L59 7L59 4L58 4L58 5L55 5L55 4L56 4L56 3L55 3L55 2L54 2L54 1L57 1L57 3L59 3L59 2L58 2L58 1L61 1L61 0L58 0L58 1L57 1L57 0L54 0L54 1L53 1L53 0L51 0L51 1L50 1L50 0L49 0L49 1L48 1L48 3L47 3L47 5L49 5L49 6L48 6L48 7L47 7L47 6L46 6L46 5L44 5L44 3L45 3L45 4L46 4L46 3L45 3L45 2L47 2L47 1L45 1L45 0L44 0L44 1L45 1L45 2L44 2L44 3L42 3L42 4L39 4L39 5L44 5L44 7L45 7L45 9L44 9L44 8L43 8L43 9L39 9L39 12L37 12L37 13L39 13L39 14L35 14L35 15L38 15L38 17L37 17L37 18L36 18L36 17L35 17L35 19L36 19L36 20L38 20L38 21L37 21L37 22L35 22L35 24L32 24L32 26L34 26L34 27L35 27L35 28L36 28L36 29L34 29L34 28L33 28L33 27L31 27L31 23L33 23L33 22L30 22L30 21L33 21L33 20L34 20L34 21L35 21L35 20L34 20L34 19L33 19L33 17L32 17L32 15L33 15L33 16L34 16L34 15L33 15L33 14L34 14L34 13L36 13L36 12L33 12L33 14L32 14L32 15L31 15L31 16L29 16L29 20L30 20L30 21L29 21L29 22L27 22L27 21L28 21L28 19L27 19L27 21L26 21L26 17L23 17L23 18L22 18L22 19L21 19L21 17L18 17L18 16L16 16L16 18L15 18L15 17L14 17L14 18L13 18L13 15L12 15L12 16L11 16L11 17L10 17L10 15L8 15L8 16L6 16L6 15L7 15L7 14L6 14L6 13L8 13L8 14L9 14L9 13L10 13L10 14L11 14L11 12L9 12L9 11L10 11L10 10L11 10L11 11L12 11L12 13L14 13L14 15L16 15L16 13L18 13L18 14L17 14L17 15L18 15L18 14L19 14L19 16L20 16L20 13L19 13L19 11L18 11L18 10L17 10L17 9L19 9L19 10L20 10L20 11L21 11L21 12L24 12L24 11L21 11L21 10L20 10L20 8L21 8L21 9L22 9L22 8L21 8L21 6L22 6L22 7L23 7L23 8L24 8L24 9L23 9L23 10L24 10L24 9L25 9L25 12L26 12L26 7L27 7L27 6L28 6L28 7L29 7L29 6L30 6L30 7L31 7L31 8L32 8L32 9L34 9L34 10L33 10L33 11L34 11L34 10L35 10L35 11L36 11L36 10L38 10L38 9L37 9L37 8L38 8L38 7L39 7L39 6L38 6L38 5L37 5L37 4L38 4L38 3L36 3L36 2L37 2L37 1L38 1L38 2L41 2L41 1L42 1L42 2L43 2L43 0L39 0L39 1L38 1L38 0L36 0L36 1L33 1L33 2L35 2L35 3L33 3L33 4L32 4L32 2L30 2L30 0L28 0L28 1L25 1L25 0L23 0L23 1L22 1L22 2L21 2L21 3L20 3L20 4L19 4L19 3L18 3L18 2L20 2L20 1L19 1L19 0L16 0L16 1L17 1L17 2L16 2L16 3L15 3L15 4L14 4L14 3L13 3L13 2L12 2L12 3L10 3L10 0ZM14 0L14 2L15 2L15 0ZM31 0L31 1L32 1L32 0ZM49 1L49 2L50 2L50 3L49 3L49 4L50 4L50 5L51 5L51 7L52 7L52 6L53 6L53 8L51 8L51 9L50 9L50 11L53 11L53 12L51 12L51 13L50 13L50 12L49 12L49 10L47 10L47 7L46 7L46 6L45 6L45 7L46 7L46 9L45 9L45 10L42 10L42 12L41 12L41 10L40 10L40 12L39 12L39 13L40 13L40 12L41 12L41 14L42 14L42 15L40 15L40 14L39 14L39 15L40 15L40 16L39 16L39 17L38 17L38 19L39 19L39 21L43 21L43 20L44 20L44 22L43 22L43 24L44 24L44 25L43 25L43 26L46 26L46 27L45 27L45 28L44 28L44 30L42 30L42 27L37 27L37 28L38 28L38 31L37 31L37 33L38 33L38 34L37 34L37 36L38 36L38 37L34 37L34 40L33 40L33 39L32 39L32 38L33 38L33 37L32 37L32 38L30 38L30 37L29 37L29 36L30 36L30 34L29 34L29 36L28 36L28 35L27 35L27 34L28 34L28 33L29 33L29 31L31 31L31 30L30 30L30 29L28 29L28 28L27 28L27 27L30 27L30 28L31 28L31 29L32 29L32 28L31 28L31 27L30 27L30 26L29 26L29 25L30 25L30 24L29 24L29 25L28 25L28 23L27 23L27 22L26 22L26 21L25 21L25 18L23 18L23 19L22 19L22 20L19 20L19 21L18 21L18 20L16 20L16 21L15 21L15 18L14 18L14 20L13 20L13 21L15 21L15 22L17 22L17 21L18 21L18 23L16 23L16 25L15 25L15 23L14 23L14 26L13 26L13 24L12 24L12 23L13 23L13 22L12 22L12 23L11 23L11 21L12 21L12 17L11 17L11 19L10 19L10 17L9 17L9 16L8 16L8 18L7 18L7 17L6 17L6 18L7 18L7 19L5 19L5 20L3 20L3 18L2 18L2 20L3 20L3 21L5 21L5 22L4 22L4 24L3 24L3 25L4 25L4 24L5 24L5 25L6 25L6 26L7 26L7 27L6 27L6 28L7 28L7 27L9 27L9 26L10 26L10 27L12 27L12 28L15 28L15 29L10 29L10 30L9 30L9 31L10 31L10 32L9 32L9 37L5 37L5 38L3 38L3 37L2 37L2 39L5 39L5 40L7 40L7 41L5 41L5 42L8 42L8 41L9 41L9 40L10 40L10 39L11 39L11 38L10 38L10 37L11 37L11 36L12 36L12 34L13 34L13 33L12 33L12 32L13 32L13 31L12 31L12 30L14 30L14 31L15 31L15 32L14 32L14 34L15 34L15 33L16 33L16 36L15 36L15 38L14 38L14 37L13 37L13 38L14 38L14 39L13 39L13 40L11 40L11 43L12 43L12 41L13 41L13 42L14 42L14 44L15 44L15 43L16 43L16 45L15 45L15 46L14 46L14 48L15 48L15 49L13 49L13 50L14 50L14 52L15 52L15 55L14 55L14 57L13 57L13 58L11 58L11 59L10 59L10 60L11 60L11 59L13 59L13 60L16 60L16 59L14 59L14 58L16 58L16 57L17 57L17 56L18 56L18 54L17 54L17 53L16 53L16 52L17 52L17 50L18 50L18 49L21 49L21 52L19 52L19 51L20 51L20 50L19 50L19 51L18 51L18 52L19 52L19 53L20 53L20 54L19 54L19 55L22 55L22 54L23 54L23 52L24 52L24 53L25 53L25 54L26 54L26 55L25 55L25 56L26 56L26 57L25 57L25 58L26 58L26 59L25 59L25 60L24 60L24 59L23 59L23 58L24 58L24 57L22 57L22 56L19 56L19 57L20 57L20 58L21 58L21 57L22 57L22 59L23 59L23 60L22 60L22 61L23 61L23 60L24 60L24 61L25 61L25 62L29 62L29 61L27 61L27 58L29 58L29 59L30 59L30 60L31 60L31 63L32 63L32 58L29 58L29 57L30 57L30 56L29 56L29 57L27 57L27 54L28 54L28 55L30 55L30 54L31 54L31 55L37 55L37 57L36 57L36 58L37 58L37 57L38 57L38 59L37 59L37 61L38 61L38 62L37 62L37 63L38 63L38 65L36 65L36 66L39 66L39 67L40 67L40 66L41 66L41 64L44 64L44 66L45 66L45 67L46 67L46 66L47 66L47 63L49 63L49 64L50 64L50 63L51 63L51 65L50 65L50 66L48 66L48 68L49 68L49 67L50 67L50 66L53 66L53 67L54 67L54 66L53 66L53 63L54 63L54 62L53 62L53 63L52 63L52 62L51 62L51 61L54 61L54 60L55 60L55 58L54 58L54 60L51 60L51 59L53 59L53 57L54 57L54 56L55 56L55 54L56 54L56 53L55 53L55 54L54 54L54 55L53 55L53 56L52 56L52 55L51 55L51 53L53 53L53 52L51 52L51 53L50 53L50 52L49 52L49 51L50 51L50 50L49 50L49 49L50 49L50 48L49 48L49 49L47 49L47 48L48 48L48 47L49 47L49 46L53 46L53 47L55 47L55 48L56 48L56 49L55 49L55 50L57 50L57 51L58 51L58 52L59 52L59 51L58 51L58 50L59 50L59 49L60 49L60 48L63 48L63 49L64 49L64 50L65 50L65 49L64 49L64 48L65 48L65 47L66 47L66 45L65 45L65 44L62 44L62 43L63 43L63 42L62 42L62 43L60 43L60 42L59 42L59 41L57 41L57 40L55 40L55 41L56 41L56 42L53 42L53 40L52 40L52 38L53 38L53 39L59 39L59 38L60 38L60 35L59 35L59 33L58 33L58 32L57 32L57 31L55 31L55 32L54 32L54 30L53 30L53 28L54 28L54 27L53 27L53 26L52 26L52 25L53 25L53 24L56 24L56 25L55 25L55 27L56 27L56 30L59 30L59 29L57 29L57 26L58 26L58 27L60 27L60 28L61 28L61 26L63 26L63 27L62 27L62 28L63 28L63 27L67 27L67 25L66 25L66 24L64 24L64 22L65 22L65 18L66 18L66 19L67 19L67 18L66 18L66 16L65 16L65 14L67 14L67 13L66 13L66 12L64 12L64 11L66 11L66 10L64 10L64 11L63 11L63 13L62 13L62 12L58 12L58 13L57 13L57 12L55 12L55 11L53 11L53 10L52 10L52 9L55 9L55 10L57 10L57 11L59 11L59 10L60 10L60 11L61 11L61 10L60 10L60 9L61 9L61 8L60 8L60 9L58 9L58 8L59 8L59 7L58 7L58 6L57 6L57 7L58 7L58 8L56 8L56 6L55 6L55 7L54 7L54 5L53 5L53 4L55 4L55 3L54 3L54 2L52 2L52 3L51 3L51 2L50 2L50 1ZM22 2L22 3L21 3L21 4L20 4L20 5L19 5L19 7L18 7L18 5L17 5L17 3L16 3L16 5L17 5L17 7L16 7L16 6L15 6L15 5L14 5L14 6L13 6L13 4L12 4L12 6L13 6L13 7L14 7L14 6L15 6L15 7L16 7L16 8L17 8L17 7L18 7L18 8L20 8L20 5L21 5L21 4L23 4L23 3L24 3L24 2ZM25 2L25 3L26 3L26 6L25 6L25 7L26 7L26 6L27 6L27 5L28 5L28 6L29 6L29 5L30 5L30 6L31 6L31 7L32 7L32 5L30 5L30 4L29 4L29 3L28 3L28 2L27 2L27 3L26 3L26 2ZM9 3L9 4L10 4L10 5L11 5L11 4L10 4L10 3ZM27 3L27 4L28 4L28 3ZM35 3L35 4L36 4L36 3ZM60 3L60 5L61 5L61 3ZM22 5L22 6L23 6L23 7L24 7L24 6L23 6L23 5ZM33 5L33 8L36 8L36 5ZM34 6L34 7L35 7L35 6ZM37 6L37 7L38 7L38 6ZM40 6L40 7L41 7L41 6ZM42 6L42 7L43 7L43 6ZM49 6L49 8L50 8L50 6ZM14 8L14 10L15 10L15 11L14 11L14 12L15 12L15 13L16 13L16 12L17 12L17 10L15 10L15 8ZM28 8L28 9L30 9L30 11L32 11L32 10L31 10L31 9L30 9L30 8ZM55 8L55 9L56 9L56 8ZM3 9L3 10L5 10L5 11L6 11L6 12L7 12L7 11L9 11L9 10L8 10L8 9L6 9L6 10L5 10L5 9ZM35 9L35 10L36 10L36 9ZM6 10L6 11L7 11L7 10ZM27 10L27 11L28 11L28 10ZM43 11L43 13L42 13L42 14L43 14L43 15L44 15L44 16L42 16L42 17L41 17L41 18L39 18L39 19L40 19L40 20L41 20L41 19L42 19L42 20L43 20L43 17L44 17L44 16L45 16L45 17L46 17L46 16L45 16L45 15L44 15L44 14L43 14L43 13L44 13L44 11ZM45 11L45 13L46 13L46 12L47 12L47 14L49 14L49 15L51 15L51 14L52 14L52 13L51 13L51 14L49 14L49 12L47 12L47 11ZM8 12L8 13L9 13L9 12ZM27 12L27 13L23 13L23 14L24 14L24 15L23 15L23 16L26 16L26 15L25 15L25 14L27 14L27 13L28 13L28 12ZM30 12L30 13L29 13L29 14L30 14L30 13L32 13L32 12ZM53 12L53 13L54 13L54 14L53 14L53 15L52 15L52 16L53 16L53 15L54 15L54 17L53 17L53 18L52 18L52 17L51 17L51 16L48 16L48 15L47 15L47 16L48 16L48 17L47 17L47 18L44 18L44 19L47 19L47 20L46 20L46 21L47 21L47 20L48 20L48 23L47 23L47 24L46 24L46 22L44 22L44 23L45 23L45 24L46 24L46 25L47 25L47 27L51 27L51 26L49 26L49 25L50 25L50 21L52 21L52 20L53 20L53 22L51 22L51 23L53 23L53 22L55 22L55 23L56 23L56 24L57 24L57 25L58 25L58 24L59 24L59 23L60 23L60 24L61 24L61 23L62 23L62 21L61 21L61 20L62 20L62 19L63 19L63 20L64 20L64 19L63 19L63 18L65 18L65 17L63 17L63 18L62 18L62 16L64 16L64 15L62 15L62 13L59 13L59 14L61 14L61 15L59 15L59 16L61 16L61 17L59 17L59 19L57 19L57 18L55 18L55 17L56 17L56 15L54 15L54 14L56 14L56 13L55 13L55 12ZM21 13L21 14L22 14L22 13ZM63 13L63 14L64 14L64 13ZM21 15L21 16L22 16L22 15ZM27 15L27 16L28 16L28 15ZM61 15L61 16L62 16L62 15ZM67 15L67 16L68 16L68 15ZM57 16L57 17L58 17L58 16ZM17 17L17 18L18 18L18 17ZM27 17L27 18L28 18L28 17ZM31 17L31 18L30 18L30 19L32 19L32 20L33 20L33 19L32 19L32 17ZM50 17L50 18L47 18L47 19L48 19L48 20L49 20L49 21L50 21L50 19L51 19L51 20L52 20L52 19L51 19L51 17ZM19 18L19 19L20 19L20 18ZM60 18L60 19L59 19L59 20L58 20L58 21L57 21L57 20L56 20L56 19L54 19L54 20L56 20L56 21L55 21L55 22L56 22L56 21L57 21L57 22L59 22L59 20L60 20L60 19L62 19L62 18ZM8 19L8 21L7 21L7 20L5 20L5 21L7 21L7 22L6 22L6 23L5 23L5 24L6 24L6 25L7 25L7 26L9 26L9 25L10 25L10 26L12 26L12 27L13 27L13 26L12 26L12 25L10 25L10 24L11 24L11 23L10 23L10 22L9 22L9 20L10 20L10 19ZM19 21L19 22L20 22L20 23L21 23L21 24L19 24L19 23L18 23L18 24L17 24L17 25L16 25L16 26L15 26L15 27L16 27L16 28L17 28L17 29L19 29L19 30L18 30L18 31L17 31L17 32L16 32L16 33L17 33L17 34L18 34L18 35L20 35L20 34L19 34L19 33L20 33L20 32L22 32L22 31L20 31L20 32L19 32L19 30L20 30L20 29L22 29L22 30L23 30L23 33L21 33L21 34L22 34L22 35L21 35L21 36L17 36L17 38L15 38L15 40L16 40L16 39L18 39L18 38L19 38L19 37L21 37L21 38L20 38L20 39L19 39L19 40L17 40L17 42L18 42L18 41L19 41L19 42L20 42L20 41L22 41L22 40L21 40L21 39L22 39L22 38L24 38L24 41L23 41L23 42L24 42L24 41L25 41L25 42L26 42L26 44L24 44L24 43L23 43L23 44L24 44L24 45L21 45L21 43L20 43L20 44L17 44L17 45L19 45L19 47L20 47L20 45L21 45L21 46L22 46L22 47L21 47L21 48L22 48L22 47L25 47L25 48L26 48L26 47L25 47L25 45L26 45L26 44L28 44L28 45L33 45L33 44L34 44L34 43L35 43L35 44L37 44L37 45L38 45L38 44L37 44L37 43L38 43L38 40L37 40L37 39L38 39L38 38L37 38L37 39L35 39L35 40L36 40L36 41L34 41L34 43L31 43L31 44L28 44L28 43L27 43L27 41L26 41L26 36L25 36L25 35L26 35L26 34L25 34L25 33L28 33L28 32L27 32L27 30L28 30L28 31L29 31L29 30L28 30L28 29L27 29L27 30L26 30L26 27L25 27L25 25L26 25L26 24L27 24L27 23L26 23L26 22L25 22L25 21L23 21L23 22L22 22L22 21L21 21L21 22L20 22L20 21ZM7 22L7 23L6 23L6 24L7 24L7 23L8 23L8 22ZM21 22L21 23L22 23L22 22ZM23 22L23 23L24 23L24 24L26 24L26 23L24 23L24 22ZM29 22L29 23L30 23L30 22ZM37 22L37 24L35 24L35 25L38 25L38 26L41 26L41 25L42 25L42 24L39 24L39 25L38 25L38 23L39 23L39 22ZM48 23L48 24L47 24L47 25L48 25L48 24L49 24L49 23ZM8 24L8 25L9 25L9 24ZM21 24L21 25L19 25L19 26L18 26L18 25L17 25L17 26L18 26L18 27L20 27L20 28L19 28L19 29L20 29L20 28L21 28L21 27L23 27L23 28L22 28L22 29L24 29L24 27L23 27L23 26L24 26L24 25L22 25L22 24ZM62 24L62 25L63 25L63 26L64 26L64 24ZM21 25L21 26L22 26L22 25ZM59 25L59 26L61 26L61 25ZM3 26L3 27L4 27L4 29L3 29L3 32L4 32L4 31L5 31L5 30L7 30L7 31L6 31L6 32L7 32L7 31L8 31L8 30L7 30L7 29L5 29L5 26ZM35 26L35 27L36 27L36 26ZM39 28L39 29L40 29L40 28ZM45 28L45 30L44 30L44 32L43 32L43 31L40 31L40 30L39 30L39 31L38 31L38 33L39 33L39 32L43 32L43 33L40 33L40 35L39 35L39 36L40 36L40 35L41 35L41 34L43 34L43 33L44 33L44 36L42 36L42 37L41 37L41 38L42 38L42 39L45 39L45 40L47 40L47 42L46 42L46 43L45 43L45 42L44 42L44 40L41 40L41 39L40 39L40 38L39 38L39 40L41 40L41 41L40 41L40 43L39 43L39 44L40 44L40 45L39 45L39 46L36 46L36 47L35 47L35 46L34 46L34 47L33 47L33 46L32 46L32 47L33 47L33 48L32 48L32 49L31 49L31 46L28 46L28 47L27 47L27 48L29 48L29 49L30 49L30 50L29 50L29 51L30 51L30 50L32 50L32 51L31 51L31 52L28 52L28 51L27 51L27 53L26 53L26 52L25 52L25 50L26 50L26 49L24 49L24 48L23 48L23 49L24 49L24 50L22 50L22 51L24 51L24 52L25 52L25 53L26 53L26 54L27 54L27 53L29 53L29 54L30 54L30 53L32 53L32 54L33 54L33 53L34 53L34 52L32 52L32 51L34 51L34 49L33 49L33 48L36 48L36 47L37 47L37 48L38 48L38 47L39 47L39 48L40 48L40 47L41 47L41 48L42 48L42 49L41 49L41 50L39 50L39 51L37 51L37 50L38 50L38 49L37 49L37 50L36 50L36 49L35 49L35 52L36 52L36 53L35 53L35 54L40 54L40 52L42 52L42 51L44 51L44 52L43 52L43 53L41 53L41 55L38 55L38 57L39 57L39 62L40 62L40 59L41 59L41 58L42 58L42 60L41 60L41 62L42 62L42 63L44 63L44 64L45 64L45 66L46 66L46 64L45 64L45 63L46 63L46 62L45 62L45 61L46 61L46 60L45 60L45 61L44 61L44 60L43 60L43 57L44 57L44 56L46 56L46 57L47 57L47 58L48 58L48 59L49 59L49 58L50 58L50 59L51 59L51 58L50 58L50 55L49 55L49 54L50 54L50 53L49 53L49 52L47 52L47 51L49 51L49 50L47 50L47 51L46 51L46 52L45 52L45 49L46 49L46 47L47 47L47 46L49 46L49 45L50 45L50 44L48 44L48 43L50 43L50 41L51 41L51 43L53 43L53 44L54 44L54 43L53 43L53 42L52 42L52 41L51 41L51 40L50 40L50 41L49 41L49 38L50 38L50 39L51 39L51 38L50 38L50 37L49 37L49 36L50 36L50 35L49 35L49 34L50 34L50 33L49 33L49 31L50 31L50 32L53 32L53 31L50 31L50 29L51 29L51 28L50 28L50 29L49 29L49 28L47 28L47 30L46 30L46 28ZM4 29L4 30L5 30L5 29ZM33 29L33 30L32 30L32 32L34 32L34 31L33 31L33 30L34 30L34 29ZM36 29L36 30L37 30L37 29ZM48 29L48 30L49 30L49 29ZM10 30L10 31L11 31L11 30ZM15 30L15 31L16 31L16 30ZM45 30L45 32L44 32L44 33L45 33L45 36L44 36L44 37L45 37L45 38L47 38L47 40L48 40L48 38L49 38L49 37L48 37L48 36L49 36L49 35L48 35L48 36L47 36L47 33L45 33L45 32L46 32L46 30ZM24 31L24 32L26 32L26 31ZM63 31L63 32L64 32L64 31ZM17 32L17 33L18 33L18 32ZM55 32L55 33L51 33L51 34L52 34L52 35L53 35L53 34L54 34L54 35L56 35L56 34L55 34L55 33L56 33L56 32ZM66 32L66 33L67 33L67 34L66 34L66 35L67 35L67 36L68 36L68 35L67 35L67 34L68 34L68 33L67 33L67 32ZM5 33L5 36L8 36L8 33ZM31 33L31 34L32 34L32 33ZM33 33L33 36L36 36L36 33ZM48 33L48 34L49 34L49 33ZM61 33L61 36L64 36L64 33ZM6 34L6 35L7 35L7 34ZM10 34L10 36L11 36L11 34ZM24 34L24 35L23 35L23 36L21 36L21 37L24 37L24 35L25 35L25 34ZM34 34L34 35L35 35L35 34ZM57 34L57 35L58 35L58 36L57 36L57 37L56 37L56 36L55 36L55 37L53 37L53 38L55 38L55 37L56 37L56 38L57 38L57 37L59 37L59 35L58 35L58 34ZM62 34L62 35L63 35L63 34ZM31 35L31 36L32 36L32 35ZM27 36L27 37L28 37L28 36ZM45 36L45 37L47 37L47 38L48 38L48 37L47 37L47 36ZM61 37L61 38L62 38L62 37ZM6 38L6 39L8 39L8 40L9 40L9 39L10 39L10 38L9 38L9 39L8 39L8 38ZM27 38L27 40L28 40L28 41L30 41L30 42L31 42L31 41L30 41L30 40L29 40L29 39L30 39L30 38L29 38L29 39L28 39L28 38ZM31 39L31 40L32 40L32 39ZM19 40L19 41L20 41L20 40ZM68 40L68 41L67 41L67 42L69 42L69 40ZM15 41L15 42L16 42L16 41ZM32 41L32 42L33 42L33 41ZM36 41L36 42L35 42L35 43L36 43L36 42L37 42L37 41ZM43 42L43 43L44 43L44 42ZM6 43L6 44L7 44L7 43ZM40 43L40 44L41 44L41 43ZM46 43L46 45L45 45L45 44L44 44L44 45L45 45L45 46L47 46L47 43ZM56 43L56 44L55 44L55 45L53 45L53 46L56 46L56 48L57 48L57 47L58 47L58 46L56 46L56 44L57 44L57 43ZM58 43L58 44L60 44L60 43ZM1 44L1 45L2 45L2 44ZM41 45L41 46L42 46L42 48L43 48L43 47L44 47L44 49L43 49L43 50L44 50L44 49L45 49L45 47L44 47L44 46L42 46L42 45ZM67 45L67 46L68 46L68 45ZM9 46L9 48L11 48L11 47L10 47L10 46ZM15 46L15 47L16 47L16 49L15 49L15 50L16 50L16 49L18 49L18 48L17 48L17 47L18 47L18 46ZM39 46L39 47L40 47L40 46ZM60 46L60 47L59 47L59 48L60 48L60 47L62 47L62 46ZM63 47L63 48L64 48L64 47ZM3 48L3 50L4 50L4 51L6 51L6 52L7 52L7 53L5 53L5 52L4 52L4 53L5 53L5 54L7 54L7 53L9 53L9 54L10 54L10 57L11 57L11 54L10 54L10 53L9 53L9 52L8 52L8 50L7 50L7 49L6 49L6 50L4 50L4 48ZM9 49L9 51L11 51L11 53L12 53L12 56L13 56L13 54L14 54L14 53L12 53L12 52L13 52L13 51L12 51L12 49L11 49L11 50L10 50L10 49ZM27 49L27 50L28 50L28 49ZM32 49L32 50L33 50L33 49ZM6 50L6 51L7 51L7 50ZM41 50L41 51L42 51L42 50ZM62 50L62 51L63 51L63 50ZM39 51L39 52L40 52L40 51ZM37 52L37 53L38 53L38 52ZM44 52L44 53L43 53L43 54L42 54L42 55L43 55L43 56L42 56L42 57L43 57L43 56L44 56L44 53L45 53L45 54L46 54L46 56L47 56L47 54L49 54L49 53L45 53L45 52ZM16 54L16 55L15 55L15 57L16 57L16 56L17 56L17 54ZM5 55L5 56L7 56L7 57L5 57L5 58L7 58L7 59L9 59L9 57L8 57L8 56L7 56L7 55ZM65 55L65 56L66 56L66 55ZM67 55L67 56L68 56L68 55ZM31 56L31 57L33 57L33 58L34 58L34 59L35 59L35 56ZM39 56L39 57L41 57L41 56ZM51 56L51 57L52 57L52 56ZM48 57L48 58L49 58L49 57ZM17 58L17 59L18 59L18 58ZM45 58L45 59L46 59L46 58ZM59 58L59 60L60 60L60 62L58 62L58 63L59 63L59 64L60 64L60 66L59 66L59 68L60 68L60 67L61 67L61 68L62 68L62 66L63 66L63 65L64 65L64 66L66 66L66 65L65 65L65 64L67 64L67 65L68 65L68 63L67 63L67 62L69 62L69 61L68 61L68 60L67 60L67 59L68 59L68 58L67 58L67 59L65 59L65 60L63 60L63 59L64 59L64 58L63 58L63 59L62 59L62 58ZM60 59L60 60L62 60L62 59ZM3 60L3 61L5 61L5 60ZM25 60L25 61L26 61L26 60ZM42 60L42 61L43 61L43 60ZM47 60L47 62L50 62L50 60ZM65 60L65 61L66 61L66 60ZM12 61L12 62L14 62L14 63L15 63L15 62L14 62L14 61ZM18 61L18 62L19 62L19 61ZM33 61L33 64L36 64L36 61ZM55 61L55 64L56 64L56 61ZM61 61L61 64L64 64L64 61ZM9 62L9 63L10 63L10 64L12 64L12 63L10 63L10 62ZM34 62L34 63L35 63L35 62ZM44 62L44 63L45 63L45 62ZM62 62L62 63L63 63L63 62ZM65 62L65 63L66 63L66 62ZM25 63L25 64L26 64L26 63ZM39 63L39 64L41 64L41 63ZM28 64L28 65L29 65L29 64ZM30 65L30 66L29 66L29 68L32 68L32 67L31 67L31 66L32 66L32 65ZM57 66L57 67L58 67L58 66ZM21 67L21 68L20 68L20 69L21 69L21 68L23 68L23 67ZM65 67L65 68L63 68L63 69L68 69L68 68L67 68L67 67ZM15 68L15 69L19 69L19 68ZM0 0L0 7L7 7L7 0ZM1 1L1 6L6 6L6 1ZM2 2L2 5L5 5L5 2ZM62 0L62 7L69 7L69 0ZM63 1L63 6L68 6L68 1ZM64 2L64 5L67 5L67 2ZM0 62L0 69L7 69L7 62ZM1 63L1 68L6 68L6 63ZM2 64L2 67L5 67L5 64Z" fill="#000000"/></g></g></svg>
