<?xml version="1.0" encoding="UTF-8"?>
<svg xmlns="http://www.w3.org/2000/svg" version="1.1" width="300" height="300" viewBox="0 0 300 300"><rect x="0" y="0" width="300" height="300" fill="#ffffff"/><g transform="scale(4.348)"><g transform="translate(0,0)"><path fill-rule="evenodd" d="M8 0L8 2L9 2L9 4L8 4L8 9L9 9L9 12L8 12L8 10L6 10L6 11L3 11L3 10L4 10L4 9L3 9L3 8L0 8L0 13L1 13L1 14L0 14L0 16L1 16L1 17L2 17L2 18L1 18L1 20L0 20L0 23L1 23L1 21L2 21L2 22L3 22L3 24L2 24L2 26L1 26L1 24L0 24L0 27L1 27L1 28L0 28L0 30L1 30L1 31L2 31L2 30L1 30L1 29L3 29L3 32L1 32L1 33L0 33L0 34L1 34L1 33L4 33L4 34L3 34L3 37L5 37L5 39L4 39L4 38L3 38L3 39L2 39L2 38L1 38L1 37L0 37L0 38L1 38L1 39L0 39L0 41L1 41L1 42L2 42L2 44L3 44L3 45L2 45L2 46L0 46L0 47L1 47L1 50L0 50L0 51L1 51L1 50L2 50L2 51L4 51L4 50L5 50L5 49L7 49L7 50L6 50L6 51L5 51L5 52L4 52L4 54L2 54L2 53L3 53L3 52L2 52L2 53L1 53L1 54L0 54L0 55L1 55L1 54L2 54L2 56L3 56L3 57L0 57L0 61L1 61L1 58L2 58L2 59L3 59L3 57L4 57L4 59L8 59L8 62L9 62L9 60L10 60L10 59L12 59L12 58L10 58L10 57L8 57L8 58L6 58L6 57L7 57L7 56L10 56L10 55L9 55L9 54L12 54L12 52L11 52L11 51L10 51L10 52L9 52L9 51L7 51L7 50L12 50L12 49L11 49L11 47L12 47L12 48L13 48L13 50L14 50L14 51L13 51L13 52L14 52L14 51L15 51L15 52L16 52L16 53L15 53L15 54L16 54L16 56L15 56L15 55L14 55L14 56L13 56L13 55L12 55L12 56L11 56L11 57L12 57L12 56L13 56L13 58L15 58L15 59L13 59L13 61L12 61L12 60L11 60L11 61L10 61L10 63L11 63L11 66L10 66L10 67L9 67L9 66L8 66L8 69L9 69L9 68L12 68L12 67L13 67L13 69L15 69L15 68L16 68L16 64L15 64L15 63L14 63L14 62L13 62L13 61L14 61L14 60L16 60L16 61L15 61L15 62L16 62L16 63L17 63L17 69L19 69L19 66L18 66L18 65L19 65L19 64L18 64L18 63L20 63L20 65L21 65L21 66L20 66L20 67L21 67L21 68L22 68L22 69L23 69L23 68L24 68L24 69L25 69L25 68L26 68L26 69L27 69L27 68L28 68L28 65L29 65L29 66L31 66L31 68L30 68L30 67L29 67L29 69L31 69L31 68L32 68L32 69L34 69L34 68L35 68L35 66L34 66L34 65L37 65L37 62L38 62L38 63L39 63L39 64L38 64L38 65L39 65L39 66L40 66L40 67L42 67L42 65L43 65L43 68L44 68L44 69L45 69L45 68L46 68L46 69L47 69L47 68L48 68L48 69L49 69L49 67L51 67L51 68L50 68L50 69L51 69L51 68L52 68L52 69L54 69L54 68L55 68L55 67L54 67L54 68L52 68L52 65L55 65L55 66L56 66L56 67L57 67L57 68L56 68L56 69L59 69L59 68L60 68L60 69L61 69L61 67L62 67L62 66L60 66L60 65L63 65L63 66L64 66L64 68L63 68L63 69L64 69L64 68L65 68L65 69L66 69L66 66L67 66L67 67L69 67L69 66L67 66L67 65L66 65L66 63L67 63L67 62L66 62L66 61L69 61L69 58L68 58L68 57L69 57L69 56L68 56L68 55L69 55L69 52L68 52L68 49L69 49L69 48L68 48L68 47L69 47L69 44L68 44L68 43L69 43L69 40L68 40L68 39L69 39L69 38L68 38L68 37L69 37L69 36L68 36L68 37L67 37L67 36L66 36L66 35L67 35L67 34L66 34L66 33L65 33L65 32L66 32L66 30L67 30L67 33L68 33L68 35L69 35L69 32L68 32L68 31L69 31L69 25L68 25L68 23L69 23L69 20L68 20L68 19L69 19L69 14L68 14L68 16L66 16L66 15L67 15L67 13L69 13L69 12L67 12L67 13L66 13L66 10L68 10L68 11L69 11L69 8L67 8L67 9L66 9L66 10L65 10L65 8L61 8L61 10L59 10L59 11L56 11L56 9L58 9L58 8L57 8L57 6L58 6L58 7L59 7L59 8L60 8L60 7L61 7L61 6L60 6L60 7L59 7L59 4L58 4L58 5L57 5L57 6L56 6L56 5L55 5L55 4L56 4L56 3L59 3L59 2L58 2L58 1L61 1L61 0L57 0L57 1L56 1L56 0L54 0L54 1L55 1L55 2L56 2L56 3L55 3L55 4L54 4L54 5L55 5L55 6L54 6L54 7L55 7L55 8L52 8L52 9L51 9L51 10L50 10L50 7L51 7L51 5L52 5L52 7L53 7L53 4L52 4L52 3L53 3L53 2L51 2L51 4L50 4L50 7L49 7L49 6L48 6L48 7L47 7L47 6L46 6L46 5L48 5L48 3L46 3L46 5L45 5L45 4L44 4L44 3L45 3L45 2L46 2L46 1L47 1L47 2L48 2L48 0L46 0L46 1L45 1L45 2L41 2L41 4L40 4L40 1L41 1L41 0L38 0L38 1L37 1L37 0L36 0L36 1L33 1L33 0L32 0L32 1L31 1L31 4L30 4L30 3L29 3L29 2L28 2L28 3L29 3L29 4L28 4L28 5L27 5L27 4L26 4L26 2L25 2L25 1L26 1L26 0L24 0L24 3L23 3L23 2L22 2L22 1L23 1L23 0L22 0L22 1L21 1L21 0L18 0L18 2L17 2L17 3L16 3L16 0L15 0L15 2L14 2L14 0L13 0L13 1L12 1L12 0L11 0L11 1L10 1L10 0ZM27 0L27 1L29 1L29 0ZM42 0L42 1L44 1L44 0ZM50 0L50 1L49 1L49 2L50 2L50 1L51 1L51 0ZM52 0L52 1L53 1L53 0ZM20 1L20 2L21 2L21 5L20 5L20 4L19 4L19 3L18 3L18 5L17 5L17 4L16 4L16 5L14 5L14 4L15 4L15 3L14 3L14 2L13 2L13 5L12 5L12 4L11 4L11 3L12 3L12 2L10 2L10 5L11 5L11 7L10 7L10 6L9 6L9 8L10 8L10 9L12 9L12 12L15 12L15 11L18 11L18 10L14 10L14 11L13 11L13 9L15 9L15 8L16 8L16 6L17 6L17 7L18 7L18 8L17 8L17 9L18 9L18 8L20 8L20 12L21 12L21 13L20 13L20 14L22 14L22 16L21 16L21 15L20 15L20 16L21 16L21 18L20 18L20 19L21 19L21 18L22 18L22 16L23 16L23 18L25 18L25 15L26 15L26 16L29 16L29 17L28 17L28 18L26 18L26 19L24 19L24 23L23 23L23 21L22 21L22 20L23 20L23 19L22 19L22 20L21 20L21 21L20 21L20 20L19 20L19 21L20 21L20 23L19 23L19 22L18 22L18 23L17 23L17 22L15 22L15 19L16 19L16 18L19 18L19 16L18 16L18 15L19 15L19 13L18 13L18 12L16 12L16 15L17 15L17 17L16 17L16 16L15 16L15 15L14 15L14 13L12 13L12 16L11 16L11 15L10 15L10 13L9 13L9 15L6 15L6 14L7 14L7 13L8 13L8 12L7 12L7 11L6 11L6 12L5 12L5 13L6 13L6 14L5 14L5 15L3 15L3 14L2 14L2 15L1 15L1 16L2 16L2 17L4 17L4 18L3 18L3 19L2 19L2 20L3 20L3 19L4 19L4 18L5 18L5 20L7 20L7 19L9 19L9 18L10 18L10 17L11 17L11 19L12 19L12 18L13 18L13 19L14 19L14 20L11 20L11 21L10 21L10 20L9 20L9 21L8 21L8 22L7 22L7 21L6 21L6 22L7 22L7 23L6 23L6 24L5 24L5 26L4 26L4 25L3 25L3 26L2 26L2 27L4 27L4 28L8 28L8 27L5 27L5 26L9 26L9 25L10 25L10 27L9 27L9 29L8 29L8 30L7 30L7 29L4 29L4 30L7 30L7 31L5 31L5 32L9 32L9 33L13 33L13 34L11 34L11 36L10 36L10 35L9 35L9 36L10 36L10 37L6 37L6 38L7 38L7 39L6 39L6 40L7 40L7 41L5 41L5 40L4 40L4 39L3 39L3 40L4 40L4 42L3 42L3 44L4 44L4 43L5 43L5 42L7 42L7 43L6 43L6 44L5 44L5 45L6 45L6 46L8 46L8 47L9 47L9 46L10 46L10 47L11 47L11 46L13 46L13 47L14 47L14 46L13 46L13 45L11 45L11 46L10 46L10 45L9 45L9 43L10 43L10 42L9 42L9 41L10 41L10 37L11 37L11 40L12 40L12 41L11 41L11 44L12 44L12 42L14 42L14 41L15 41L15 44L14 44L14 43L13 43L13 44L14 44L14 45L16 45L16 47L15 47L15 48L14 48L14 50L15 50L15 51L16 51L16 50L17 50L17 51L18 51L18 50L19 50L19 48L18 48L18 47L19 47L19 45L18 45L18 43L20 43L20 42L21 42L21 45L20 45L20 48L21 48L21 50L20 50L20 51L21 51L21 53L20 53L20 54L21 54L21 56L20 56L20 55L19 55L19 56L20 56L20 58L22 58L22 59L20 59L20 60L19 60L19 57L18 57L18 56L17 56L17 57L18 57L18 60L19 60L19 61L20 61L20 63L21 63L21 62L22 62L22 59L23 59L23 60L24 60L24 63L22 63L22 64L21 64L21 65L22 65L22 66L23 66L23 65L24 65L24 68L25 68L25 67L26 67L26 68L27 68L27 67L26 67L26 66L27 66L27 65L28 65L28 64L29 64L29 65L30 65L30 63L31 63L31 61L30 61L30 60L32 60L32 59L30 59L30 56L32 56L32 58L33 58L33 60L35 60L35 58L34 58L34 56L32 56L32 55L33 55L33 54L32 54L32 53L31 53L31 54L30 54L30 52L31 52L31 49L30 49L30 48L31 48L31 46L30 46L30 47L29 47L29 48L28 48L28 47L26 47L26 44L27 44L27 41L26 41L26 40L28 40L28 43L29 43L29 44L28 44L28 46L29 46L29 44L31 44L31 43L30 43L30 40L31 40L31 41L34 41L34 43L33 43L33 42L32 42L32 44L33 44L33 46L32 46L32 47L33 47L33 48L32 48L32 50L34 50L34 48L35 48L35 49L36 49L36 48L39 48L39 49L37 49L37 51L36 51L36 50L35 50L35 51L33 51L33 53L34 53L34 54L35 54L35 53L34 53L34 52L35 52L35 51L36 51L36 52L37 52L37 53L36 53L36 60L37 60L37 61L38 61L38 62L39 62L39 63L40 63L40 64L39 64L39 65L40 65L40 66L41 66L41 65L42 65L42 62L45 62L45 65L44 65L44 63L43 63L43 65L44 65L44 68L45 68L45 65L46 65L46 66L47 66L47 67L49 67L49 66L48 66L48 64L49 64L49 65L50 65L50 66L51 66L51 65L52 65L52 64L53 64L53 62L52 62L52 64L50 64L50 62L51 62L51 61L52 61L52 60L51 60L51 61L50 61L50 59L51 59L51 58L53 58L53 59L54 59L54 60L53 60L53 61L54 61L54 64L55 64L55 65L56 65L56 66L57 66L57 67L58 67L58 68L59 68L59 67L60 67L60 66L59 66L59 65L58 65L58 66L57 66L57 65L56 65L56 64L58 64L58 63L59 63L59 64L60 64L60 63L59 63L59 62L60 62L60 61L58 61L58 60L60 60L60 59L61 59L61 60L63 60L63 59L62 59L62 57L60 57L60 58L59 58L59 56L60 56L60 55L58 55L58 60L57 60L57 59L55 59L55 57L56 57L56 58L57 58L57 57L56 57L56 56L57 56L57 55L56 55L56 52L58 52L58 54L61 54L61 55L62 55L62 54L63 54L63 56L64 56L64 54L65 54L65 55L66 55L66 56L67 56L67 57L68 57L68 56L67 56L67 53L66 53L66 52L67 52L67 50L66 50L66 52L65 52L65 51L64 51L64 50L65 50L65 49L64 49L64 50L63 50L63 48L65 48L65 46L67 46L67 45L65 45L65 44L64 44L64 46L63 46L63 48L62 48L62 45L61 45L61 44L60 44L60 45L59 45L59 41L58 41L58 38L59 38L59 40L60 40L60 39L61 39L61 40L62 40L62 37L61 37L61 38L60 38L60 37L58 37L58 38L57 38L57 37L56 37L56 35L55 35L55 34L57 34L57 36L58 36L58 35L59 35L59 36L60 36L60 34L59 34L59 32L60 32L60 31L61 31L61 32L62 32L62 31L61 31L61 29L60 29L60 31L59 31L59 32L58 32L58 30L59 30L59 28L60 28L60 27L61 27L61 28L62 28L62 30L63 30L63 31L64 31L64 30L63 30L63 29L64 29L64 28L65 28L65 30L66 30L66 29L67 29L67 27L68 27L68 26L67 26L67 25L66 25L66 24L67 24L67 23L68 23L68 20L67 20L67 19L68 19L68 18L66 18L66 20L65 20L65 19L64 19L64 16L65 16L65 15L66 15L66 13L64 13L64 14L65 14L65 15L63 15L63 13L62 13L62 12L60 12L60 15L61 15L61 17L60 17L60 16L59 16L59 15L58 15L58 14L59 14L59 13L58 13L58 14L57 14L57 15L55 15L55 14L56 14L56 11L55 11L55 9L56 9L56 8L55 8L55 9L54 9L54 13L53 13L53 15L54 15L54 16L53 16L53 17L50 17L50 18L49 18L49 17L48 17L48 16L49 16L49 15L50 15L50 16L51 16L51 15L52 15L52 10L53 10L53 9L52 9L52 10L51 10L51 13L50 13L50 12L49 12L49 9L48 9L48 8L49 8L49 7L48 7L48 8L47 8L47 7L46 7L46 6L45 6L45 8L47 8L47 9L46 9L46 10L45 10L45 9L44 9L44 6L43 6L43 9L42 9L42 10L41 10L41 11L42 11L42 12L41 12L41 13L40 13L40 15L39 15L39 13L38 13L38 12L39 12L39 10L40 10L40 8L42 8L42 4L41 4L41 7L40 7L40 4L39 4L39 5L38 5L38 3L37 3L37 1L36 1L36 3L34 3L34 2L33 2L33 1L32 1L32 2L33 2L33 3L32 3L32 4L31 4L31 9L32 9L32 10L33 10L33 9L32 9L32 4L37 4L37 7L38 7L38 8L37 8L37 9L34 9L34 10L35 10L35 11L34 11L34 12L35 12L35 13L33 13L33 15L32 15L32 12L33 12L33 11L32 11L32 12L31 12L31 13L30 13L30 12L28 12L28 10L30 10L30 8L28 8L28 6L29 6L29 7L30 7L30 6L29 6L29 5L28 5L28 6L27 6L27 7L26 7L26 6L25 6L25 5L26 5L26 4L25 4L25 3L24 3L24 4L23 4L23 3L22 3L22 2L21 2L21 1ZM38 1L38 2L39 2L39 1ZM60 3L60 5L61 5L61 3ZM24 4L24 5L23 5L23 6L22 6L22 7L21 7L21 6L20 6L20 5L19 5L19 6L18 6L18 7L19 7L19 6L20 6L20 8L21 8L21 11L22 11L22 9L23 9L23 12L22 12L22 13L23 13L23 16L24 16L24 15L25 15L25 14L26 14L26 15L28 15L28 12L26 12L26 10L28 10L28 8L26 8L26 10L25 10L25 8L22 8L22 7L23 7L23 6L24 6L24 7L25 7L25 6L24 6L24 5L25 5L25 4ZM43 4L43 5L44 5L44 4ZM33 5L33 8L36 8L36 5ZM12 6L12 7L13 7L13 8L15 8L15 6L14 6L14 7L13 7L13 6ZM34 6L34 7L35 7L35 6ZM38 6L38 7L39 7L39 6ZM55 6L55 7L56 7L56 6ZM5 8L5 9L7 9L7 8ZM1 9L1 13L2 13L2 12L3 12L3 11L2 11L2 9ZM47 9L47 10L46 10L46 11L48 11L48 9ZM62 9L62 10L61 10L61 11L62 11L62 10L63 10L63 11L64 11L64 10L63 10L63 9ZM10 10L10 12L11 12L11 10ZM24 10L24 11L25 11L25 10ZM36 10L36 11L37 11L37 10ZM44 10L44 11L43 11L43 12L44 12L44 14L42 14L42 13L41 13L41 14L42 14L42 16L41 16L41 15L40 15L40 17L39 17L39 18L38 18L38 15L37 15L37 13L35 13L35 14L36 14L36 15L35 15L35 16L34 16L34 15L33 15L33 16L32 16L32 15L31 15L31 14L30 14L30 13L29 13L29 15L30 15L30 17L29 17L29 20L30 20L30 21L29 21L29 22L28 22L28 21L27 21L27 20L26 20L26 21L27 21L27 22L25 22L25 23L26 23L26 25L27 25L27 22L28 22L28 24L30 24L30 25L34 25L34 27L33 27L33 29L34 29L34 30L32 30L32 31L30 31L30 30L31 30L31 28L32 28L32 26L30 26L30 27L29 27L29 26L28 26L28 28L29 28L29 31L30 31L30 33L31 33L31 34L28 34L28 35L26 35L26 37L25 37L25 38L26 38L26 39L28 39L28 40L30 40L30 38L28 38L28 37L29 37L29 36L30 36L30 37L32 37L32 38L31 38L31 40L33 40L33 39L34 39L34 41L36 41L36 42L35 42L35 43L34 43L34 47L35 47L35 48L36 48L36 46L37 46L37 47L39 47L39 48L40 48L40 50L39 50L39 51L38 51L38 53L39 53L39 55L40 55L40 58L38 58L38 57L39 57L39 56L38 56L38 55L37 55L37 56L38 56L38 57L37 57L37 58L38 58L38 60L39 60L39 59L40 59L40 61L41 61L41 62L40 62L40 63L41 63L41 62L42 62L42 60L43 60L43 59L44 59L44 61L45 61L45 62L46 62L46 63L47 63L47 64L46 64L46 65L47 65L47 64L48 64L48 61L49 61L49 62L50 62L50 61L49 61L49 60L48 60L48 59L47 59L47 58L48 58L48 57L49 57L49 59L50 59L50 57L49 57L49 54L50 54L50 55L52 55L52 57L53 57L53 58L54 58L54 55L52 55L52 53L53 53L53 54L54 54L54 53L55 53L55 52L56 52L56 51L58 51L58 52L59 52L59 53L62 53L62 52L63 52L63 54L64 54L64 53L65 53L65 52L64 52L64 51L63 51L63 50L62 50L62 48L61 48L61 46L60 46L60 47L59 47L59 46L58 46L58 45L57 45L57 44L58 44L58 43L57 43L57 42L58 42L58 41L57 41L57 40L56 40L56 39L57 39L57 38L56 38L56 37L55 37L55 38L54 38L54 37L53 37L53 36L54 36L54 35L53 35L53 36L52 36L52 37L51 37L51 35L49 35L49 34L50 34L50 33L49 33L49 30L50 30L50 31L52 31L52 33L53 33L53 34L54 34L54 33L58 33L58 32L57 32L57 31L56 31L56 30L58 30L58 28L59 28L59 27L58 27L58 28L56 28L56 30L54 30L54 29L55 29L55 28L54 28L54 29L53 29L53 28L52 28L52 30L50 30L50 29L49 29L49 28L50 28L50 27L49 27L49 26L50 26L50 25L51 25L51 26L52 26L52 27L57 27L57 25L58 25L58 24L57 24L57 22L58 22L58 23L59 23L59 26L60 26L60 23L59 23L59 22L60 22L60 21L61 21L61 22L62 22L62 23L61 23L61 27L62 27L62 28L64 28L64 27L65 27L65 28L66 28L66 27L65 27L65 26L64 26L64 25L65 25L65 24L66 24L66 23L67 23L67 22L66 22L66 21L67 21L67 20L66 20L66 21L65 21L65 20L64 20L64 22L62 22L62 21L61 21L61 19L62 19L62 17L63 17L63 15L62 15L62 13L61 13L61 15L62 15L62 17L61 17L61 18L60 18L60 17L59 17L59 16L58 16L58 15L57 15L57 16L56 16L56 17L57 17L57 18L54 18L54 17L55 17L55 16L54 16L54 17L53 17L53 18L54 18L54 19L52 19L52 22L50 22L50 21L51 21L51 18L50 18L50 20L48 20L48 19L49 19L49 18L48 18L48 19L47 19L47 20L46 20L46 16L47 16L47 15L49 15L49 14L50 14L50 15L51 15L51 14L50 14L50 13L49 13L49 12L48 12L48 13L47 13L47 12L44 12L44 11L45 11L45 10ZM6 12L6 13L7 13L7 12ZM17 13L17 14L18 14L18 13ZM24 13L24 14L25 14L25 13ZM46 13L46 14L44 14L44 15L43 15L43 17L42 17L42 18L41 18L41 19L39 19L39 20L38 20L38 18L37 18L37 17L36 17L36 16L37 16L37 15L36 15L36 16L35 16L35 17L34 17L34 20L33 20L33 17L30 17L30 20L31 20L31 21L32 21L32 22L30 22L30 24L33 24L33 23L34 23L34 25L35 25L35 27L34 27L34 29L35 29L35 30L34 30L34 31L32 31L32 32L31 32L31 33L32 33L32 32L36 32L36 30L37 30L37 28L38 28L38 30L39 30L39 29L40 29L40 30L41 30L41 31L42 31L42 36L43 36L43 37L42 37L42 38L43 38L43 39L41 39L41 41L42 41L42 43L41 43L41 42L39 42L39 41L40 41L40 39L39 39L39 41L38 41L38 38L40 38L40 34L41 34L41 33L39 33L39 32L38 32L38 31L37 31L37 32L38 32L38 33L37 33L37 37L36 37L36 41L38 41L38 43L36 43L36 44L38 44L38 46L39 46L39 44L38 44L38 43L41 43L41 45L42 45L42 46L40 46L40 48L41 48L41 47L42 47L42 46L43 46L43 45L44 45L44 46L45 46L45 47L44 47L44 48L43 48L43 49L42 49L42 50L43 50L43 51L44 51L44 52L42 52L42 53L41 53L41 54L40 54L40 55L43 55L43 57L42 57L42 56L41 56L41 58L40 58L40 59L41 59L41 60L42 60L42 59L43 59L43 58L44 58L44 54L45 54L45 53L44 53L44 52L46 52L46 51L47 51L47 49L48 49L48 50L49 50L49 49L48 49L48 48L46 48L46 46L47 46L47 47L48 47L48 46L49 46L49 45L48 45L48 44L49 44L49 42L48 42L48 43L47 43L47 41L48 41L48 40L50 40L50 48L51 48L51 49L50 49L50 50L51 50L51 49L52 49L52 50L53 50L53 49L52 49L52 47L53 47L53 48L54 48L54 52L53 52L53 51L52 51L52 52L51 52L51 51L50 51L50 52L49 52L49 51L48 51L48 52L47 52L47 53L46 53L46 54L48 54L48 52L49 52L49 53L50 53L50 54L51 54L51 53L52 53L52 52L53 52L53 53L54 53L54 52L55 52L55 51L56 51L56 50L57 50L57 49L56 49L56 50L55 50L55 47L57 47L57 48L58 48L58 51L60 51L60 50L61 50L61 51L62 51L62 50L61 50L61 48L60 48L60 49L59 49L59 47L58 47L58 46L57 46L57 45L56 45L56 44L55 44L55 45L54 45L54 44L53 44L53 41L52 41L52 40L51 40L51 39L52 39L52 38L51 38L51 37L50 37L50 36L49 36L49 35L48 35L48 34L47 34L47 33L48 33L48 31L47 31L47 32L46 32L46 30L47 30L47 29L46 29L46 28L47 28L47 27L48 27L48 26L49 26L49 25L50 25L50 24L51 24L51 25L52 25L52 23L54 23L54 24L55 24L55 23L56 23L56 22L57 22L57 21L58 21L58 22L59 22L59 21L58 21L58 20L60 20L60 19L58 19L58 18L59 18L59 17L58 17L58 18L57 18L57 19L55 19L55 20L53 20L53 21L54 21L54 22L52 22L52 23L49 23L49 25L48 25L48 26L47 26L47 23L48 23L48 22L49 22L49 21L48 21L48 20L47 20L47 21L46 21L46 23L45 23L45 22L44 22L44 20L45 20L45 17L44 17L44 15L45 15L45 16L46 16L46 14L47 14L47 13ZM48 13L48 14L49 14L49 13ZM2 15L2 16L3 16L3 15ZM4 16L4 17L5 17L5 18L6 18L6 19L7 19L7 18L9 18L9 16L8 16L8 17L7 17L7 16ZM6 17L6 18L7 18L7 17ZM14 18L14 19L15 19L15 18ZM36 18L36 19L37 19L37 18ZM42 18L42 19L41 19L41 20L40 20L40 21L41 21L41 22L40 22L40 25L39 25L39 23L38 23L38 20L37 20L37 22L36 22L36 20L34 20L34 21L33 21L33 20L32 20L32 21L33 21L33 22L34 22L34 23L35 23L35 22L36 22L36 25L37 25L37 26L36 26L36 27L35 27L35 29L36 29L36 27L37 27L37 26L38 26L38 25L39 25L39 28L40 28L40 29L41 29L41 28L40 28L40 25L41 25L41 27L42 27L42 25L43 25L43 28L42 28L42 29L43 29L43 28L44 28L44 34L43 34L43 35L44 35L44 42L46 42L46 41L47 41L47 39L46 39L46 37L47 37L47 38L48 38L48 39L51 39L51 38L50 38L50 37L49 37L49 36L48 36L48 35L47 35L47 34L46 34L46 33L45 33L45 30L46 30L46 29L45 29L45 28L44 28L44 27L47 27L47 26L46 26L46 25L45 25L45 24L44 24L44 22L42 22L42 21L43 21L43 20L42 20L42 19L44 19L44 18ZM17 20L17 21L18 21L18 20ZM56 20L56 21L57 21L57 20ZM3 21L3 22L4 22L4 23L5 23L5 22L4 22L4 21ZM11 21L11 22L12 22L12 24L11 24L11 23L9 23L9 22L8 22L8 23L7 23L7 24L6 24L6 25L7 25L7 24L8 24L8 23L9 23L9 24L11 24L11 25L13 25L13 26L12 26L12 27L10 27L10 28L11 28L11 29L12 29L12 27L13 27L13 30L11 30L11 32L12 32L12 31L13 31L13 33L14 33L14 30L16 30L16 29L17 29L17 28L18 28L18 30L17 30L17 32L16 32L16 31L15 31L15 32L16 32L16 33L15 33L15 36L16 36L16 37L15 37L15 38L13 38L13 36L14 36L14 34L13 34L13 35L12 35L12 38L13 38L13 39L12 39L12 40L13 40L13 39L14 39L14 40L16 40L16 41L17 41L17 42L16 42L16 43L18 43L18 42L19 42L19 40L21 40L21 42L22 42L22 45L21 45L21 48L22 48L22 50L21 50L21 51L22 51L22 53L21 53L21 54L22 54L22 53L23 53L23 54L24 54L24 53L25 53L25 51L27 51L27 50L24 50L24 48L25 48L25 49L28 49L28 48L25 48L25 46L24 46L24 45L25 45L25 44L26 44L26 42L25 42L25 40L22 40L22 39L24 39L24 37L23 37L23 36L25 36L25 35L24 35L24 32L26 32L26 33L27 33L27 30L25 30L25 31L24 31L24 29L25 29L25 28L24 28L24 29L23 29L23 27L22 27L22 26L20 26L20 27L19 27L19 28L18 28L18 25L19 25L19 23L18 23L18 25L17 25L17 23L16 23L16 24L15 24L15 29L14 29L14 27L13 27L13 26L14 26L14 25L13 25L13 24L14 24L14 23L15 23L15 22L12 22L12 21ZM47 21L47 22L48 22L48 21ZM54 22L54 23L55 23L55 22ZM64 22L64 23L62 23L62 26L63 26L63 25L64 25L64 24L65 24L65 23L66 23L66 22ZM20 23L20 24L21 24L21 23ZM22 23L22 24L23 24L23 23ZM37 23L37 25L38 25L38 23ZM41 23L41 25L42 25L42 24L43 24L43 25L44 25L44 24L43 24L43 23ZM24 24L24 25L25 25L25 24ZM54 25L54 26L55 26L55 25ZM16 26L16 27L17 27L17 26ZM24 26L24 27L25 27L25 26ZM26 26L26 29L27 29L27 26ZM20 27L20 30L21 30L21 31L22 31L22 32L23 32L23 30L21 30L21 29L22 29L22 27ZM48 29L48 30L49 30L49 29ZM9 31L9 32L10 32L10 31ZM18 31L18 32L19 32L19 33L18 33L18 35L17 35L17 37L16 37L16 38L17 38L17 37L18 37L18 40L17 40L17 39L16 39L16 40L17 40L17 41L18 41L18 40L19 40L19 39L20 39L20 38L22 38L22 35L23 35L23 34L21 34L21 33L20 33L20 32L19 32L19 31ZM53 31L53 33L54 33L54 32L55 32L55 31ZM5 33L5 36L8 36L8 33ZM16 33L16 34L17 34L17 33ZM33 33L33 36L36 36L36 33ZM61 33L61 36L64 36L64 33ZM6 34L6 35L7 35L7 34ZM20 34L20 35L21 35L21 34ZM34 34L34 35L35 35L35 34ZM44 34L44 35L46 35L46 36L47 36L47 37L48 37L48 38L49 38L49 37L48 37L48 36L47 36L47 35L46 35L46 34ZM62 34L62 35L63 35L63 34ZM65 34L65 35L66 35L66 34ZM18 35L18 37L19 37L19 38L20 38L20 37L19 37L19 35ZM28 35L28 36L27 36L27 37L26 37L26 38L27 38L27 37L28 37L28 36L29 36L29 35ZM31 35L31 36L32 36L32 35ZM38 35L38 37L37 37L37 38L38 38L38 37L39 37L39 35ZM63 37L63 40L64 40L64 43L66 43L66 44L67 44L67 43L66 43L66 41L67 41L67 39L68 39L68 38L67 38L67 37L66 37L66 38L67 38L67 39L65 39L65 40L64 40L64 38L65 38L65 37ZM8 38L8 39L7 39L7 40L8 40L8 39L9 39L9 38ZM34 38L34 39L35 39L35 38ZM53 38L53 39L54 39L54 42L55 42L55 43L56 43L56 40L55 40L55 39L56 39L56 38L55 38L55 39L54 39L54 38ZM45 39L45 41L46 41L46 39ZM1 40L1 41L2 41L2 40ZM7 41L7 42L8 42L8 41ZM22 41L22 42L23 42L23 41ZM60 41L60 42L61 42L61 41ZM62 41L62 42L63 42L63 41ZM24 42L24 43L25 43L25 42ZM51 42L51 44L52 44L52 45L51 45L51 47L52 47L52 45L53 45L53 47L55 47L55 46L56 46L56 45L55 45L55 46L54 46L54 45L53 45L53 44L52 44L52 42ZM0 43L0 44L1 44L1 43ZM45 43L45 44L44 44L44 45L45 45L45 46L46 46L46 45L47 45L47 44L46 44L46 43ZM6 44L6 45L7 45L7 44ZM16 44L16 45L17 45L17 46L18 46L18 45L17 45L17 44ZM42 44L42 45L43 45L43 44ZM45 44L45 45L46 45L46 44ZM3 45L3 46L2 46L2 47L3 47L3 46L4 46L4 47L5 47L5 46L4 46L4 45ZM8 45L8 46L9 46L9 45ZM22 45L22 48L24 48L24 46L23 46L23 45ZM35 45L35 46L36 46L36 45ZM6 47L6 48L7 48L7 47ZM16 47L16 48L15 48L15 50L16 50L16 48L17 48L17 47ZM66 47L66 49L68 49L68 48L67 48L67 47ZM2 48L2 50L3 50L3 48ZM4 48L4 49L5 49L5 48ZM8 48L8 49L9 49L9 48ZM44 48L44 50L45 50L45 49L46 49L46 48ZM22 50L22 51L23 51L23 53L24 53L24 50ZM28 50L28 51L29 51L29 52L30 52L30 50ZM40 50L40 51L41 51L41 50ZM6 51L6 52L5 52L5 53L6 53L6 54L4 54L4 55L5 55L5 57L6 57L6 56L7 56L7 55L6 55L6 54L9 54L9 53L8 53L8 52L7 52L7 51ZM6 52L6 53L7 53L7 52ZM10 52L10 53L11 53L11 52ZM17 52L17 53L16 53L16 54L17 54L17 55L18 55L18 54L19 54L19 53L18 53L18 52ZM26 52L26 54L28 54L28 55L29 55L29 56L27 56L27 55L26 55L26 56L24 56L24 55L22 55L22 56L24 56L24 57L25 57L25 58L24 58L24 59L26 59L26 61L25 61L25 62L26 62L26 61L27 61L27 63L26 63L26 64L28 64L28 63L30 63L30 61L29 61L29 60L30 60L30 59L29 59L29 60L27 60L27 59L26 59L26 58L28 58L28 57L29 57L29 56L30 56L30 54L28 54L28 52ZM50 52L50 53L51 53L51 52ZM13 53L13 54L14 54L14 53ZM31 54L31 55L32 55L32 54ZM45 55L45 57L46 57L46 58L47 58L47 57L48 57L48 55ZM55 55L55 56L56 56L56 55ZM64 57L64 58L65 58L65 59L64 59L64 60L65 60L65 61L66 61L66 60L68 60L68 58L65 58L65 57ZM16 58L16 59L17 59L17 58ZM45 59L45 60L46 60L46 62L47 62L47 61L48 61L48 60L46 60L46 59ZM65 59L65 60L66 60L66 59ZM3 60L3 61L5 61L5 60ZM6 60L6 61L7 61L7 60ZM20 60L20 61L21 61L21 60ZM54 60L54 61L55 61L55 63L57 63L57 60L56 60L56 61L55 61L55 60ZM11 61L11 62L12 62L12 65L14 65L14 66L15 66L15 65L14 65L14 64L13 64L13 62L12 62L12 61ZM16 61L16 62L17 62L17 61ZM28 61L28 62L29 62L29 61ZM33 61L33 64L36 64L36 61ZM61 61L61 64L64 64L64 61ZM34 62L34 63L35 63L35 62ZM62 62L62 63L63 63L63 62ZM68 62L68 65L69 65L69 62ZM8 63L8 64L9 64L9 65L10 65L10 64L9 64L9 63ZM22 64L22 65L23 65L23 64ZM24 64L24 65L25 65L25 64ZM40 64L40 65L41 65L41 64ZM32 65L32 68L33 68L33 67L34 67L34 66L33 66L33 65ZM64 65L64 66L66 66L66 65ZM36 66L36 67L37 67L37 66ZM14 67L14 68L15 68L15 67ZM22 67L22 68L23 68L23 67ZM36 68L36 69L38 69L38 68ZM40 68L40 69L42 69L42 68ZM68 68L68 69L69 69L69 68ZM0 0L0 7L7 7L7 0ZM1 1L1 6L6 6L6 1ZM2 2L2 5L5 5L5 2ZM62 0L62 7L69 7L69 0ZM63 1L63 6L68 6L68 1ZM64 2L64 5L67 5L67 2ZM0 62L0 69L7 69L7 62ZM1 63L1 68L6 68L6 63ZM2 64L2 67L5 67L5 64Z" fill="#000000"/></g></g></svg>
