<?xml version="1.0" encoding="UTF-8"?>
<svg xmlns="http://www.w3.org/2000/svg" version="1.1" width="300" height="300" viewBox="0 0 300 300"><rect x="0" y="0" width="300" height="300" fill="#ffffff"/><g transform="scale(4.348)"><g transform="translate(0,0)"><path fill-rule="evenodd" d="M8 0L8 4L9 4L9 5L8 5L8 7L9 7L9 5L10 5L10 8L9 8L9 11L8 11L8 13L7 13L7 12L6 12L6 13L3 13L3 11L4 11L4 12L5 12L5 11L7 11L7 10L8 10L8 9L7 9L7 8L4 8L4 9L3 9L3 10L2 10L2 8L0 8L0 9L1 9L1 10L0 10L0 13L1 13L1 14L0 14L0 15L1 15L1 16L3 16L3 15L2 15L2 13L3 13L3 14L5 14L5 15L4 15L4 16L5 16L5 17L7 17L7 18L6 18L6 19L7 19L7 18L8 18L8 17L10 17L10 19L11 19L11 20L10 20L10 21L9 21L9 19L8 19L8 20L5 20L5 19L4 19L4 18L3 18L3 17L1 17L1 18L0 18L0 19L1 19L1 20L0 20L0 22L1 22L1 23L0 23L0 26L1 26L1 27L0 27L0 28L1 28L1 29L2 29L2 30L1 30L1 31L0 31L0 35L1 35L1 36L0 36L0 37L1 37L1 36L2 36L2 37L5 37L5 38L4 38L4 39L3 39L3 38L0 38L0 39L1 39L1 40L2 40L2 41L1 41L1 42L0 42L0 43L1 43L1 44L2 44L2 43L3 43L3 44L4 44L4 48L2 48L2 50L1 50L1 47L2 47L2 46L1 46L1 45L0 45L0 46L1 46L1 47L0 47L0 50L1 50L1 52L0 52L0 54L1 54L1 55L0 55L0 61L1 61L1 57L2 57L2 59L3 59L3 57L2 57L2 56L3 56L3 55L4 55L4 56L6 56L6 57L7 57L7 56L6 56L6 55L9 55L9 57L8 57L8 58L9 58L9 60L8 60L8 62L9 62L9 61L10 61L10 62L11 62L11 63L12 63L12 61L13 61L13 60L14 60L14 61L15 61L15 62L13 62L13 63L16 63L16 64L15 64L15 66L16 66L16 65L17 65L17 66L18 66L18 67L17 67L17 68L16 68L16 67L14 67L14 66L13 66L13 65L14 65L14 64L13 64L13 65L12 65L12 64L11 64L11 65L12 65L12 67L14 67L14 69L15 69L15 68L16 68L16 69L20 69L20 68L18 68L18 67L20 67L20 66L21 66L21 65L22 65L22 64L23 64L23 63L22 63L22 62L23 62L23 61L24 61L24 62L25 62L25 63L24 63L24 65L23 65L23 66L22 66L22 67L21 67L21 69L22 69L22 68L23 68L23 69L24 69L24 68L26 68L26 69L27 69L27 67L28 67L28 66L30 66L30 65L31 65L31 68L30 68L30 67L29 67L29 68L28 68L28 69L31 69L31 68L32 68L32 69L34 69L34 68L32 68L32 67L33 67L33 66L32 66L32 65L36 65L36 66L37 66L37 67L39 67L39 66L40 66L40 63L41 63L41 67L40 67L40 68L38 68L38 69L40 69L40 68L41 68L41 69L43 69L43 63L44 63L44 69L46 69L46 67L45 67L45 63L44 63L44 62L45 62L45 61L46 61L46 60L47 60L47 63L46 63L46 64L47 64L47 65L50 65L50 67L51 67L51 68L49 68L49 66L47 66L47 67L48 67L48 68L47 68L47 69L52 69L52 68L54 68L54 69L55 69L55 68L56 68L56 69L59 69L59 68L61 68L61 69L62 69L62 66L63 66L63 67L66 67L66 66L65 66L65 63L66 63L66 62L67 62L67 61L68 61L68 58L69 58L69 57L68 57L68 54L67 54L67 57L68 57L68 58L66 58L66 57L65 57L65 56L64 56L64 55L66 55L66 52L65 52L65 51L64 51L64 49L65 49L65 50L66 50L66 51L67 51L67 53L69 53L69 52L68 52L68 50L67 50L67 49L69 49L69 48L67 48L67 49L65 49L65 47L66 47L66 46L67 46L67 47L68 47L68 46L69 46L69 43L68 43L68 42L69 42L69 39L68 39L68 38L69 38L69 35L68 35L68 33L69 33L69 31L68 31L68 33L66 33L66 32L63 32L63 31L62 31L62 30L64 30L64 28L65 28L65 27L67 27L67 28L68 28L68 29L69 29L69 27L68 27L68 26L66 26L66 25L68 25L68 22L69 22L69 20L68 20L68 18L67 18L67 16L66 16L66 17L64 17L64 16L65 16L65 13L64 13L64 12L63 12L63 11L65 11L65 10L66 10L66 11L68 11L68 10L69 10L69 8L65 8L65 9L64 9L64 8L63 8L63 9L62 9L62 11L61 11L61 6L60 6L60 7L59 7L59 4L58 4L58 5L56 5L56 7L57 7L57 8L56 8L56 9L52 9L52 8L55 8L55 4L53 4L53 3L59 3L59 2L57 2L57 1L61 1L61 0L56 0L56 1L55 1L55 0L53 0L53 2L52 2L52 1L51 1L51 0L50 0L50 1L48 1L48 0L47 0L47 2L46 2L46 3L45 3L45 1L46 1L46 0L45 0L45 1L44 1L44 0L41 0L41 1L40 1L40 0L35 0L35 2L34 2L34 1L33 1L33 0L31 0L31 1L30 1L30 0L23 0L23 1L22 1L22 0L13 0L13 2L14 2L14 3L15 3L15 5L16 5L16 9L14 9L14 8L12 8L12 10L13 10L13 11L12 11L12 12L11 12L11 11L10 11L10 10L11 10L11 9L10 9L10 8L11 8L11 5L13 5L13 3L12 3L12 4L11 4L11 5L10 5L10 4L9 4L9 3L11 3L11 2L10 2L10 1L9 1L9 0ZM14 1L14 2L15 2L15 3L16 3L16 4L17 4L17 5L18 5L18 6L17 6L17 8L20 8L20 6L21 6L21 9L22 9L22 10L20 10L20 9L17 9L17 11L18 11L18 12L20 12L20 11L22 11L22 13L21 13L21 14L22 14L22 15L20 15L20 13L19 13L19 15L20 15L20 16L22 16L22 19L23 19L23 17L24 17L24 16L25 16L25 15L26 15L26 16L27 16L27 15L29 15L29 16L28 16L28 17L27 17L27 18L26 18L26 17L25 17L25 18L24 18L24 19L25 19L25 18L26 18L26 20L27 20L27 21L25 21L25 20L22 20L22 21L21 21L21 23L20 23L20 24L19 24L19 25L17 25L17 23L18 23L18 21L17 21L17 23L16 23L16 24L15 24L15 22L16 22L16 21L15 21L15 22L13 22L13 21L14 21L14 20L17 20L17 19L18 19L18 17L19 17L19 19L20 19L20 18L21 18L21 17L19 17L19 16L18 16L18 17L16 17L16 16L17 16L17 15L18 15L18 14L14 14L14 15L13 15L13 13L14 13L14 12L15 12L15 13L16 13L16 11L15 11L15 10L14 10L14 11L13 11L13 13L10 13L10 15L11 15L11 16L10 16L10 17L12 17L12 18L11 18L11 19L12 19L12 20L11 20L11 22L13 22L13 23L11 23L11 24L12 24L12 25L10 25L10 23L9 23L9 21L8 21L8 23L9 23L9 25L5 25L5 24L3 24L3 23L5 23L5 21L4 21L4 20L3 20L3 22L2 22L2 26L3 26L3 28L4 28L4 29L5 29L5 30L3 30L3 31L1 31L1 33L2 33L2 34L1 34L1 35L2 35L2 36L4 36L4 35L3 35L3 34L4 34L4 32L7 32L7 31L5 31L5 30L7 30L7 29L6 29L6 28L7 28L7 27L9 27L9 26L12 26L12 27L11 27L11 28L13 28L13 30L15 30L15 29L14 29L14 28L16 28L16 30L18 30L18 31L17 31L17 33L16 33L16 34L15 34L15 32L16 32L16 31L13 31L13 34L14 34L14 35L12 35L12 36L13 36L13 37L14 37L14 38L12 38L12 37L11 37L11 39L13 39L13 40L12 40L12 41L13 41L13 42L14 42L14 40L15 40L15 39L16 39L16 38L17 38L17 39L18 39L18 40L20 40L20 41L19 41L19 42L18 42L18 41L17 41L17 40L16 40L16 41L15 41L15 43L12 43L12 42L11 42L11 41L10 41L10 40L9 40L9 39L8 39L8 40L9 40L9 41L8 41L8 42L7 42L7 41L6 41L6 42L7 42L7 43L6 43L6 44L5 44L5 43L4 43L4 42L5 42L5 40L4 40L4 42L3 42L3 41L2 41L2 42L3 42L3 43L4 43L4 44L5 44L5 46L7 46L7 47L6 47L6 48L7 48L7 49L6 49L6 50L5 50L5 48L4 48L4 51L6 51L6 52L5 52L5 54L9 54L9 53L12 53L12 55L11 55L11 54L10 54L10 56L11 56L11 57L10 57L10 58L12 58L12 59L11 59L11 60L10 60L10 61L12 61L12 60L13 60L13 59L14 59L14 60L16 60L16 62L17 62L17 61L18 61L18 63L17 63L17 65L18 65L18 64L19 64L19 65L20 65L20 64L21 64L21 62L19 62L19 61L23 61L23 60L22 60L22 59L21 59L21 60L19 60L19 59L20 59L20 57L21 57L21 58L23 58L23 59L24 59L24 61L26 61L26 60L27 60L27 61L28 61L28 62L27 62L27 64L26 64L26 63L25 63L25 65L29 65L29 63L30 63L30 64L31 64L31 65L32 65L32 64L31 64L31 63L32 63L32 62L31 62L31 63L30 63L30 61L28 61L28 60L27 60L27 58L26 58L26 59L25 59L25 58L24 58L24 57L21 57L21 56L20 56L20 57L19 57L19 59L18 59L18 57L17 57L17 56L15 56L15 57L17 57L17 58L16 58L16 59L15 59L15 58L14 58L14 56L13 56L13 58L12 58L12 55L14 55L14 54L13 54L13 53L12 53L12 52L11 52L11 51L13 51L13 52L15 52L15 51L13 51L13 50L10 50L10 49L11 49L11 48L12 48L12 49L13 49L13 48L14 48L14 50L15 50L15 46L14 46L14 44L15 44L15 45L16 45L16 52L17 52L17 51L18 51L18 49L19 49L19 51L20 51L20 50L21 50L21 51L22 51L22 50L23 50L23 52L22 52L22 53L21 53L21 54L20 54L20 52L19 52L19 53L15 53L15 55L17 55L17 54L18 54L18 55L19 55L19 54L20 54L20 55L22 55L22 56L23 56L23 54L22 54L22 53L24 53L24 50L23 50L23 49L24 49L24 48L25 48L25 47L26 47L26 48L28 48L28 49L27 49L27 50L26 50L26 49L25 49L25 50L26 50L26 51L25 51L25 54L26 54L26 51L28 51L28 50L29 50L29 52L31 52L31 53L32 53L32 54L30 54L30 55L29 55L29 57L28 57L28 55L27 55L27 57L28 57L28 59L29 59L29 57L30 57L30 56L32 56L32 54L33 54L33 53L34 53L34 54L36 54L36 53L37 53L37 55L33 55L33 56L34 56L34 57L31 57L31 58L30 58L30 59L31 59L31 60L33 60L33 59L34 59L34 57L35 57L35 60L37 60L37 65L38 65L38 59L39 59L39 58L40 58L40 59L41 59L41 58L40 58L40 57L41 57L41 56L42 56L42 57L44 57L44 54L45 54L45 53L46 53L46 54L48 54L48 53L46 53L46 52L47 52L47 51L46 51L46 50L48 50L48 49L47 49L47 48L48 48L48 47L47 47L47 45L44 45L44 44L46 44L46 43L47 43L47 44L48 44L48 43L50 43L50 45L49 45L49 47L50 47L50 49L49 49L49 52L50 52L50 53L49 53L49 54L50 54L50 53L51 53L51 55L47 55L47 56L49 56L49 58L48 58L48 59L50 59L50 57L51 57L51 58L52 58L52 59L53 59L53 57L56 57L56 58L54 58L54 60L52 60L52 61L51 61L51 62L50 62L50 60L49 60L49 63L50 63L50 65L51 65L51 62L52 62L52 66L51 66L51 67L52 67L52 66L53 66L53 65L55 65L55 66L54 66L54 67L55 67L55 66L56 66L56 64L55 64L55 63L53 63L53 61L55 61L55 62L56 62L56 63L57 63L57 64L58 64L58 66L57 66L57 67L58 67L58 68L59 68L59 67L61 67L61 66L62 66L62 65L61 65L61 66L59 66L59 65L60 65L60 62L59 62L59 61L60 61L60 60L59 60L59 59L57 59L57 57L58 57L58 58L59 58L59 57L60 57L60 55L61 55L61 54L59 54L59 53L62 53L62 60L64 60L64 59L63 59L63 57L64 57L64 58L65 58L65 61L66 61L66 60L67 60L67 59L66 59L66 58L65 58L65 57L64 57L64 56L63 56L63 55L64 55L64 54L65 54L65 52L63 52L63 53L62 53L62 52L60 52L60 51L61 51L61 50L62 50L62 51L63 51L63 50L62 50L62 49L64 49L64 48L63 48L63 47L65 47L65 46L66 46L66 44L67 44L67 46L68 46L68 44L67 44L67 43L65 43L65 42L67 42L67 41L68 41L68 40L67 40L67 39L66 39L66 37L67 37L67 38L68 38L68 35L67 35L67 34L66 34L66 33L65 33L65 37L61 37L61 38L60 38L60 39L59 39L59 41L58 41L58 38L59 38L59 35L60 35L60 34L59 34L59 32L62 32L62 31L60 31L60 30L59 30L59 29L60 29L60 28L62 28L62 29L61 29L61 30L62 30L62 29L63 29L63 28L64 28L64 26L65 26L65 24L67 24L67 23L63 23L63 22L62 22L62 21L61 21L61 20L59 20L59 21L58 21L58 20L57 20L57 19L58 19L58 18L59 18L59 16L60 16L60 15L61 15L61 18L60 18L60 19L62 19L62 20L63 20L63 19L64 19L64 17L63 17L63 19L62 19L62 13L63 13L63 14L64 14L64 13L63 13L63 12L62 12L62 13L61 13L61 11L59 11L59 12L58 12L58 11L57 11L57 12L58 12L58 14L57 14L57 13L56 13L56 11L55 11L55 10L52 10L52 9L51 9L51 10L52 10L52 11L53 11L53 12L52 12L52 13L51 13L51 12L49 12L49 14L50 14L50 15L47 15L47 16L49 16L49 18L47 18L47 17L46 17L46 14L47 14L47 12L46 12L46 14L44 14L44 15L43 15L43 17L44 17L44 15L45 15L45 17L46 17L46 19L44 19L44 18L41 18L41 17L42 17L42 16L40 16L40 19L39 19L39 18L38 18L38 16L39 16L39 15L42 15L42 13L44 13L44 12L45 12L45 11L46 11L46 10L47 10L47 8L50 8L50 6L51 6L51 8L52 8L52 5L53 5L53 4L52 4L52 3L51 3L51 4L52 4L52 5L50 5L50 3L48 3L48 2L47 2L47 4L46 4L46 5L44 5L44 4L45 4L45 3L44 3L44 2L43 2L43 3L42 3L42 1L41 1L41 3L42 3L42 4L43 4L43 5L44 5L44 6L43 6L43 8L40 8L40 9L39 9L39 10L38 10L38 9L37 9L37 11L39 11L39 10L40 10L40 11L41 11L41 14L40 14L40 13L39 13L39 12L36 12L36 13L34 13L34 11L36 11L36 9L33 9L33 10L32 10L32 9L31 9L31 8L30 8L30 9L29 9L29 7L30 7L30 6L31 6L31 7L32 7L32 6L31 6L31 5L32 5L32 4L33 4L33 3L34 3L34 2L33 2L33 1L31 1L31 3L29 3L29 2L30 2L30 1L29 1L29 2L28 2L28 1L24 1L24 2L27 2L27 3L26 3L26 4L25 4L25 3L23 3L23 2L22 2L22 3L21 3L21 2L20 2L20 1L19 1L19 3L16 3L16 2L17 2L17 1ZM37 1L37 3L36 3L36 4L37 4L37 3L38 3L38 4L40 4L40 6L39 6L39 7L38 7L38 5L37 5L37 7L38 7L38 8L39 8L39 7L40 7L40 6L41 6L41 7L42 7L42 6L41 6L41 4L40 4L40 3L39 3L39 2L40 2L40 1ZM50 1L50 2L51 2L51 1ZM20 3L20 5L19 5L19 4L18 4L18 5L19 5L19 6L18 6L18 7L19 7L19 6L20 6L20 5L21 5L21 3ZM22 3L22 5L23 5L23 6L22 6L22 8L24 8L24 9L23 9L23 10L22 10L22 11L24 11L24 13L22 13L22 14L23 14L23 15L22 15L22 16L23 16L23 15L24 15L24 14L25 14L25 13L27 13L27 14L28 14L28 13L27 13L27 11L26 11L26 10L28 10L28 12L29 12L29 14L31 14L31 15L33 15L33 17L34 17L34 18L32 18L32 19L29 19L29 18L31 18L31 17L32 17L32 16L29 16L29 18L28 18L28 19L27 19L27 20L28 20L28 21L27 21L27 22L28 22L28 23L26 23L26 25L25 25L25 24L22 24L22 23L21 23L21 25L20 25L20 26L21 26L21 25L24 25L24 26L25 26L25 28L24 28L24 27L20 27L20 30L19 30L19 26L17 26L17 25L15 25L15 24L14 24L14 25L15 25L15 26L13 26L13 25L12 25L12 26L13 26L13 27L16 27L16 26L17 26L17 29L18 29L18 30L19 30L19 32L18 32L18 33L17 33L17 34L16 34L16 36L15 36L15 35L14 35L14 36L15 36L15 38L16 38L16 36L17 36L17 37L18 37L18 38L19 38L19 37L20 37L20 40L21 40L21 39L22 39L22 40L24 40L24 41L23 41L23 43L24 43L24 45L22 45L22 41L20 41L20 44L21 44L21 45L20 45L20 46L19 46L19 43L18 43L18 44L17 44L17 42L16 42L16 43L15 43L15 44L17 44L17 45L18 45L18 47L17 47L17 49L18 49L18 48L19 48L19 49L21 49L21 50L22 50L22 47L23 47L23 46L27 46L27 45L29 45L29 46L28 46L28 47L30 47L30 48L29 48L29 49L34 49L34 50L33 50L33 51L34 51L34 52L35 52L35 51L36 51L36 49L34 49L34 48L35 48L35 47L36 47L36 48L38 48L38 47L36 47L36 46L35 46L35 45L34 45L34 43L35 43L35 42L34 42L34 40L35 40L35 39L36 39L36 37L37 37L37 39L38 39L38 40L37 40L37 41L38 41L38 42L37 42L37 44L38 44L38 46L39 46L39 45L40 45L40 46L41 46L41 45L42 45L42 49L41 49L41 51L40 51L40 48L41 48L41 47L39 47L39 49L38 49L38 50L39 50L39 51L37 51L37 53L38 53L38 52L39 52L39 53L40 53L40 54L39 54L39 57L38 57L38 58L39 58L39 57L40 57L40 54L41 54L41 55L43 55L43 54L44 54L44 53L45 53L45 50L46 50L46 49L45 49L45 48L47 48L47 47L45 47L45 48L44 48L44 47L43 47L43 44L41 44L41 43L39 43L39 44L38 44L38 42L43 42L43 39L45 39L45 40L44 40L44 43L45 43L45 42L46 42L46 37L47 37L47 42L49 42L49 41L50 41L50 43L52 43L52 44L51 44L51 45L50 45L50 47L51 47L51 45L52 45L52 47L53 47L53 48L56 48L56 49L53 49L53 50L52 50L52 49L50 49L50 50L51 50L51 51L52 51L52 52L51 52L51 53L52 53L52 54L53 54L53 55L52 55L52 56L51 56L51 57L52 57L52 56L53 56L53 55L55 55L55 56L56 56L56 57L57 57L57 56L58 56L58 57L59 57L59 56L58 56L58 53L59 53L59 52L58 52L58 51L59 51L59 50L61 50L61 49L62 49L62 46L64 46L64 44L65 44L65 43L62 43L62 42L63 42L63 41L65 41L65 40L64 40L64 39L65 39L65 38L64 38L64 39L63 39L63 40L62 40L62 38L61 38L61 39L60 39L60 40L62 40L62 42L61 42L61 41L60 41L60 42L61 42L61 43L59 43L59 42L58 42L58 41L57 41L57 40L56 40L56 41L57 41L57 44L56 44L56 46L55 46L55 45L54 45L54 42L55 42L55 40L53 40L53 41L52 41L52 39L54 39L54 38L55 38L55 39L56 39L56 37L57 37L57 38L58 38L58 37L57 37L57 35L58 35L58 31L56 31L56 30L55 30L55 29L54 29L54 27L53 27L53 26L55 26L55 28L56 28L56 29L57 29L57 30L58 30L58 27L61 27L61 25L62 25L62 26L63 26L63 23L62 23L62 22L61 22L61 21L59 21L59 22L58 22L58 21L57 21L57 20L56 20L56 19L53 19L53 21L54 21L54 23L55 23L55 20L56 20L56 22L57 22L57 23L56 23L56 25L55 25L55 24L53 24L53 22L52 22L52 20L51 20L51 19L50 19L50 18L52 18L52 17L51 17L51 16L50 16L50 18L49 18L49 19L50 19L50 20L47 20L47 19L46 19L46 20L44 20L44 23L45 23L45 24L44 24L44 25L43 25L43 24L42 24L42 25L41 25L41 26L43 26L43 27L44 27L44 29L43 29L43 28L42 28L42 27L40 27L40 24L41 24L41 23L43 23L43 21L42 21L42 19L40 19L40 20L39 20L39 19L35 19L35 18L37 18L37 17L34 17L34 16L38 16L38 14L39 14L39 13L38 13L38 14L37 14L37 13L36 13L36 14L37 14L37 15L35 15L35 14L34 14L34 15L33 15L33 12L32 12L32 13L31 13L31 11L32 11L32 10L31 10L31 9L30 9L30 10L28 10L28 9L27 9L27 8L28 8L28 7L29 7L29 6L30 6L30 5L31 5L31 4L32 4L32 3L31 3L31 4L30 4L30 5L28 5L28 3L27 3L27 4L26 4L26 5L28 5L28 7L27 7L27 6L26 6L26 7L25 7L25 6L24 6L24 5L25 5L25 4L23 4L23 3ZM43 3L43 4L44 4L44 3ZM60 3L60 5L61 5L61 3ZM33 5L33 8L36 8L36 5ZM12 6L12 7L13 7L13 6ZM14 6L14 7L15 7L15 6ZM23 6L23 7L24 7L24 8L25 8L25 9L24 9L24 10L26 10L26 8L25 8L25 7L24 7L24 6ZM34 6L34 7L35 7L35 6ZM44 6L44 7L45 7L45 8L44 8L44 9L45 9L45 10L46 10L46 9L45 9L45 8L47 8L47 6L46 6L46 7L45 7L45 6ZM48 6L48 7L49 7L49 6ZM53 6L53 7L54 7L54 6ZM57 6L57 7L58 7L58 6ZM59 8L59 9L58 9L58 10L59 10L59 9L60 9L60 8ZM6 9L6 10L7 10L7 9ZM40 9L40 10L42 10L42 12L43 12L43 9ZM49 9L49 10L50 10L50 9ZM63 9L63 10L64 10L64 9ZM67 9L67 10L68 10L68 9ZM1 10L1 13L2 13L2 10ZM18 10L18 11L19 11L19 10ZM33 10L33 11L34 11L34 10ZM53 12L53 13L52 13L52 14L51 14L51 13L50 13L50 14L51 14L51 15L53 15L53 14L55 14L55 15L56 15L56 17L55 17L55 16L54 16L54 17L53 17L53 18L58 18L58 17L57 17L57 15L56 15L56 13L55 13L55 12ZM59 12L59 13L60 13L60 14L61 14L61 13L60 13L60 12ZM66 12L66 13L68 13L68 14L67 14L67 15L68 15L68 17L69 17L69 15L68 15L68 14L69 14L69 12ZM6 13L6 14L7 14L7 13ZM8 13L8 16L9 16L9 13ZM11 14L11 15L12 15L12 14ZM58 14L58 16L59 16L59 14ZM6 15L6 16L7 16L7 15ZM14 15L14 17L15 17L15 15ZM15 18L15 19L17 19L17 18ZM65 18L65 19L66 19L66 21L67 21L67 22L68 22L68 20L67 20L67 18ZM32 19L32 21L28 21L28 22L30 22L30 23L28 23L28 24L29 24L29 25L27 25L27 26L26 26L26 28L25 28L25 29L26 29L26 28L28 28L28 26L29 26L29 27L30 27L30 28L31 28L31 27L33 27L33 28L32 28L32 29L31 29L31 30L30 30L30 31L29 31L29 32L28 32L28 30L29 30L29 29L27 29L27 32L26 32L26 31L25 31L25 30L23 30L23 32L22 32L22 34L20 34L20 35L19 35L19 36L22 36L22 38L23 38L23 39L24 39L24 40L25 40L25 41L24 41L24 42L25 42L25 41L26 41L26 40L27 40L27 41L28 41L28 42L27 42L27 43L29 43L29 42L30 42L30 43L31 43L31 45L33 45L33 47L32 47L32 46L31 46L31 48L34 48L34 47L35 47L35 46L34 46L34 45L33 45L33 44L32 44L32 41L33 41L33 40L32 40L32 41L31 41L31 40L30 40L30 41L29 41L29 39L30 39L30 37L29 37L29 34L31 34L31 35L30 35L30 36L31 36L31 35L32 35L32 33L29 33L29 32L31 32L31 31L32 31L32 32L37 32L37 37L38 37L38 36L39 36L39 35L40 35L40 37L39 37L39 38L38 38L38 39L40 39L40 41L41 41L41 39L42 39L42 38L41 38L41 39L40 39L40 37L41 37L41 36L42 36L42 35L41 35L41 34L38 34L38 33L39 33L39 32L37 32L37 29L40 29L40 30L42 30L42 28L40 28L40 27L38 27L38 28L37 28L37 26L38 26L38 25L39 25L39 24L40 24L40 23L41 23L41 20L40 20L40 21L39 21L39 20L38 20L38 21L35 21L35 23L37 23L37 24L38 24L38 25L37 25L37 26L36 26L36 27L35 27L35 26L34 26L34 25L32 25L32 24L33 24L33 22L32 22L32 21L34 21L34 19ZM1 20L1 21L2 21L2 20ZM19 20L19 22L20 22L20 20ZM64 20L64 22L65 22L65 20ZM6 21L6 22L7 22L7 21ZM23 21L23 23L24 23L24 22L25 22L25 21ZM46 21L46 22L47 22L47 25L46 25L46 26L47 26L47 27L50 27L50 28L49 28L49 29L48 29L48 30L47 30L47 29L46 29L46 27L45 27L45 29L46 29L46 30L47 30L47 31L45 31L45 33L44 33L44 30L43 30L43 31L40 31L40 33L44 33L44 34L43 34L43 38L45 38L45 37L46 37L46 34L47 34L47 36L49 36L49 37L48 37L48 40L50 40L50 41L51 41L51 42L52 42L52 41L51 41L51 39L52 39L52 38L51 38L51 39L49 39L49 37L50 37L50 36L52 36L52 37L56 37L56 35L57 35L57 33L56 33L56 32L55 32L55 30L53 30L53 27L51 27L51 26L50 26L50 25L49 25L49 26L47 26L47 25L48 25L48 23L49 23L49 24L52 24L52 26L53 26L53 24L52 24L52 22L50 22L50 21L49 21L49 22L48 22L48 21ZM31 22L31 24L30 24L30 25L29 25L29 26L32 26L32 25L31 25L31 24L32 24L32 22ZM39 22L39 23L38 23L38 24L39 24L39 23L40 23L40 22ZM49 22L49 23L50 23L50 22ZM59 22L59 23L58 23L58 24L57 24L57 25L56 25L56 28L57 28L57 27L58 27L58 26L59 26L59 25L60 25L60 24L61 24L61 22ZM6 23L6 24L7 24L7 23ZM59 23L59 24L60 24L60 23ZM3 25L3 26L4 26L4 28L6 28L6 27L7 27L7 26L5 26L5 25ZM57 25L57 26L58 26L58 25ZM33 26L33 27L34 27L34 28L35 28L35 27L34 27L34 26ZM62 27L62 28L63 28L63 27ZM22 28L22 29L21 29L21 31L20 31L20 32L19 32L19 33L20 33L20 32L21 32L21 31L22 31L22 29L23 29L23 28ZM36 28L36 29L37 29L37 28ZM33 29L33 31L34 31L34 30L35 30L35 29ZM50 29L50 30L49 30L49 32L46 32L46 33L45 33L45 34L44 34L44 37L45 37L45 34L46 34L46 33L48 33L48 34L49 34L49 36L50 36L50 34L51 34L51 35L52 35L52 36L54 36L54 34L55 34L55 35L56 35L56 33L53 33L53 34L51 34L51 33L52 33L52 32L53 32L53 31L52 31L52 29ZM50 30L50 32L49 32L49 34L50 34L50 33L51 33L51 30ZM65 30L65 31L67 31L67 30ZM3 31L3 32L4 32L4 31ZM8 31L8 32L9 32L9 31ZM11 31L11 32L10 32L10 34L9 34L9 35L10 35L10 34L11 34L11 33L12 33L12 31ZM24 31L24 32L25 32L25 31ZM5 33L5 36L8 36L8 33ZM23 33L23 35L24 35L24 34L26 34L26 35L25 35L25 36L26 36L26 37L24 37L24 36L23 36L23 37L24 37L24 38L25 38L25 39L26 39L26 38L28 38L28 39L29 39L29 38L28 38L28 36L26 36L26 35L28 35L28 34L29 34L29 33ZM33 33L33 36L36 36L36 33ZM61 33L61 36L64 36L64 33ZM6 34L6 35L7 35L7 34ZM34 34L34 35L35 35L35 34ZM62 34L62 35L63 35L63 34ZM9 36L9 37L10 37L10 36ZM6 37L6 38L5 38L5 39L6 39L6 40L7 40L7 39L6 39L6 38L7 38L7 37ZM32 37L32 38L31 38L31 39L34 39L34 38L35 38L35 37ZM2 39L2 40L3 40L3 39ZM9 41L9 43L7 43L7 44L6 44L6 45L7 45L7 46L8 46L8 48L9 48L9 49L10 49L10 48L9 48L9 47L10 47L10 46L11 46L11 47L12 47L12 48L13 48L13 46L12 46L12 43L11 43L11 42L10 42L10 41ZM30 41L30 42L31 42L31 41ZM25 43L25 45L26 45L26 43ZM58 43L58 44L57 44L57 45L58 45L58 46L59 46L59 45L61 45L61 46L62 46L62 44L59 44L59 43ZM7 44L7 45L8 45L8 46L10 46L10 44L9 44L9 45L8 45L8 44ZM52 44L52 45L53 45L53 47L54 47L54 45L53 45L53 44ZM58 44L58 45L59 45L59 44ZM21 45L21 46L20 46L20 47L19 47L19 48L21 48L21 47L22 47L22 45ZM56 47L56 48L58 48L58 50L59 50L59 49L60 49L60 48L59 48L59 47ZM43 48L43 49L44 49L44 50L45 50L45 49L44 49L44 48ZM56 49L56 50L53 50L53 52L52 52L52 53L55 53L55 52L54 52L54 51L56 51L56 50L57 50L57 49ZM6 50L6 51L7 51L7 52L6 52L6 53L9 53L9 50ZM30 50L30 51L31 51L31 52L32 52L32 51L31 51L31 50ZM42 50L42 51L43 51L43 53L44 53L44 51L43 51L43 50ZM39 51L39 52L40 52L40 53L42 53L42 52L40 52L40 51ZM1 52L1 54L3 54L3 53L2 53L2 52ZM27 52L27 53L28 53L28 54L29 54L29 53L28 53L28 52ZM57 52L57 53L58 53L58 52ZM63 53L63 54L64 54L64 53ZM55 54L55 55L56 55L56 56L57 56L57 55L56 55L56 54ZM25 55L25 57L26 57L26 55ZM35 56L35 57L36 57L36 58L37 58L37 56ZM46 57L46 58L47 58L47 57ZM4 58L4 59L7 59L7 58ZM32 58L32 59L33 59L33 58ZM42 58L42 61L43 61L43 62L42 62L42 63L43 63L43 62L44 62L44 59L45 59L45 60L46 60L46 59L45 59L45 58ZM3 60L3 61L5 61L5 60ZM6 60L6 61L7 61L7 60ZM18 60L18 61L19 61L19 60ZM39 60L39 63L40 63L40 62L41 62L41 60ZM56 60L56 62L57 62L57 61L58 61L58 60ZM33 61L33 64L36 64L36 61ZM61 61L61 64L64 64L64 61ZM28 62L28 63L29 63L29 62ZM34 62L34 63L35 63L35 62ZM62 62L62 63L63 63L63 62ZM8 63L8 65L9 65L9 64L10 64L10 63ZM67 63L67 66L69 66L69 65L68 65L68 63ZM23 66L23 68L24 68L24 66ZM25 66L25 67L27 67L27 66ZM8 67L8 69L11 69L11 68L9 68L9 67ZM41 67L41 68L42 68L42 67ZM36 68L36 69L37 69L37 68ZM63 68L63 69L64 69L64 68ZM65 68L65 69L67 69L67 68ZM68 68L68 69L69 69L69 68ZM0 0L0 7L7 7L7 0ZM1 1L1 6L6 6L6 1ZM2 2L2 5L5 5L5 2ZM62 0L62 7L69 7L69 0ZM63 1L63 6L68 6L68 1ZM64 2L64 5L67 5L67 2ZM0 62L0 69L7 69L7 62ZM1 63L1 68L6 68L6 63ZM2 64L2 67L5 67L5 64Z" fill="#000000"/></g></g></svg>
