<?xml version="1.0" encoding="UTF-8"?>
<svg xmlns="http://www.w3.org/2000/svg" version="1.1" width="300" height="300" viewBox="0 0 300 300"><rect x="0" y="0" width="300" height="300" fill="#ffffff"/><g transform="scale(4.615)"><g transform="translate(0,0)"><path fill-rule="evenodd" d="M8 0L8 1L10 1L10 0ZM11 0L11 2L12 2L12 3L11 3L11 5L10 5L10 7L9 7L9 6L8 6L8 7L9 7L9 8L8 8L8 9L7 9L7 8L6 8L6 9L7 9L7 10L6 10L6 11L8 11L8 12L5 12L5 14L4 14L4 13L3 13L3 14L2 14L2 12L3 12L3 11L4 11L4 10L5 10L5 9L4 9L4 8L0 8L0 10L2 10L2 9L3 9L3 11L2 11L2 12L1 12L1 13L0 13L0 14L1 14L1 18L0 18L0 19L4 19L4 20L3 20L3 21L2 21L2 22L1 22L1 20L0 20L0 22L1 22L1 24L0 24L0 25L2 25L2 27L1 27L1 30L0 30L0 31L4 31L4 33L3 33L3 34L1 34L1 32L0 32L0 39L1 39L1 37L2 37L2 38L3 38L3 41L2 41L2 40L1 40L1 41L0 41L0 42L1 42L1 43L0 43L0 44L1 44L1 45L0 45L0 47L1 47L1 48L0 48L0 51L4 51L4 54L3 54L3 52L0 52L0 54L2 54L2 55L3 55L3 56L1 56L1 55L0 55L0 56L1 56L1 57L3 57L3 56L4 56L4 57L5 57L5 56L4 56L4 54L5 54L5 55L8 55L8 56L9 56L9 55L8 55L8 54L5 54L5 53L9 53L9 54L10 54L10 53L11 53L11 54L14 54L14 56L17 56L17 57L18 57L18 58L13 58L13 57L12 57L12 56L13 56L13 55L11 55L11 56L10 56L10 57L8 57L8 58L9 58L9 59L11 59L11 61L12 61L12 62L13 62L13 63L14 63L14 65L15 65L15 64L16 64L16 65L17 65L17 64L16 64L16 63L17 63L17 62L18 62L18 63L19 63L19 61L20 61L20 62L22 62L22 63L24 63L24 65L25 65L25 64L26 64L26 65L27 65L27 64L26 64L26 63L30 63L30 62L31 62L31 65L33 65L33 64L32 64L32 61L34 61L34 62L33 62L33 63L35 63L35 64L34 64L34 65L35 65L35 64L36 64L36 63L37 63L37 62L40 62L40 63L38 63L38 64L37 64L37 65L40 65L40 63L41 63L41 64L42 64L42 63L43 63L43 62L44 62L44 60L46 60L46 61L45 61L45 63L48 63L48 61L49 61L49 62L51 62L51 64L50 64L50 63L49 63L49 64L50 64L50 65L52 65L52 64L53 64L53 65L54 65L54 64L56 64L56 65L58 65L58 64L56 64L56 61L59 61L59 62L57 62L57 63L60 63L60 64L62 64L62 63L63 63L63 65L64 65L64 63L65 63L65 62L64 62L64 63L63 63L63 62L62 62L62 61L63 61L63 60L64 60L64 59L63 59L63 57L62 57L62 59L63 59L63 60L62 60L62 61L61 61L61 56L63 56L63 54L65 54L65 52L63 52L63 54L62 54L62 53L61 53L61 56L59 56L59 55L60 55L60 53L59 53L59 51L60 51L60 52L62 52L62 50L64 50L64 51L65 51L65 49L64 49L64 48L65 48L65 47L64 47L64 46L63 46L63 44L64 44L64 43L63 43L63 42L65 42L65 41L63 41L63 42L62 42L62 39L65 39L65 37L64 37L64 36L61 36L61 42L60 42L60 40L59 40L59 37L60 37L60 35L61 35L61 32L62 32L62 34L63 34L63 35L64 35L64 34L63 34L63 33L65 33L65 31L64 31L64 32L63 32L63 31L62 31L62 30L59 30L59 29L58 29L58 28L59 28L59 27L60 27L60 26L58 26L58 25L59 25L59 24L60 24L60 25L61 25L61 23L63 23L63 25L64 25L64 26L61 26L61 29L63 29L63 28L64 28L64 27L65 27L65 23L64 23L64 22L63 22L63 21L62 21L62 20L64 20L64 19L62 19L62 18L65 18L65 17L64 17L64 16L62 16L62 14L63 14L63 15L65 15L65 13L63 13L63 12L65 12L65 11L64 11L64 10L65 10L65 8L64 8L64 9L63 9L63 8L60 8L60 10L61 10L61 11L63 11L63 12L62 12L62 13L61 13L61 12L59 12L59 11L57 11L57 10L56 10L56 9L58 9L58 8L57 8L57 6L56 6L56 7L55 7L55 5L53 5L53 4L56 4L56 5L57 5L57 4L56 4L56 3L57 3L57 1L56 1L56 0L55 0L55 1L56 1L56 3L55 3L55 2L54 2L54 3L53 3L53 0L51 0L51 1L50 1L50 0L48 0L48 1L49 1L49 2L48 2L48 3L47 3L47 2L45 2L45 3L47 3L47 6L46 6L46 5L45 5L45 6L44 6L44 3L43 3L43 2L42 2L42 1L43 1L43 0L39 0L39 1L40 1L40 3L43 3L43 5L42 5L42 7L43 7L43 8L45 8L45 6L46 6L46 7L47 7L47 6L48 6L48 8L50 8L50 9L49 9L49 10L50 10L50 9L52 9L52 10L51 10L51 11L52 11L52 12L53 12L53 11L54 11L54 13L55 13L55 14L56 14L56 15L54 15L54 14L53 14L53 13L52 13L52 14L53 14L53 15L51 15L51 12L46 12L46 13L45 13L45 14L46 14L46 17L45 17L45 15L44 15L44 12L45 12L45 11L48 11L48 9L47 9L47 10L46 10L46 9L42 9L42 8L40 8L40 7L41 7L41 6L40 6L40 5L39 5L39 2L38 2L38 4L37 4L37 2L36 2L36 3L33 3L33 4L32 4L32 2L33 2L33 1L32 1L32 2L31 2L31 4L30 4L30 2L29 2L29 1L31 1L31 0L29 0L29 1L28 1L28 2L27 2L27 0L26 0L26 2L27 2L27 4L25 4L25 5L24 5L24 7L23 7L23 5L22 5L22 3L23 3L23 4L24 4L24 3L25 3L25 2L24 2L24 3L23 3L23 2L21 2L21 1L19 1L19 2L21 2L21 3L18 3L18 0L17 0L17 1L16 1L16 3L18 3L18 4L20 4L20 5L21 5L21 6L20 6L20 7L21 7L21 10L23 10L23 11L22 11L22 12L24 12L24 15L23 15L23 14L22 14L22 15L23 15L23 16L24 16L24 15L26 15L26 16L25 16L25 18L24 18L24 17L22 17L22 16L21 16L21 14L20 14L20 13L19 13L19 12L18 12L18 11L17 11L17 12L16 12L16 14L17 14L17 16L16 16L16 17L15 17L15 15L13 15L13 13L14 13L14 12L15 12L15 11L16 11L16 10L20 10L20 9L18 9L18 8L15 8L15 6L16 6L16 7L17 7L17 4L14 4L14 5L15 5L15 6L14 6L14 8L15 8L15 9L12 9L12 11L10 11L10 12L9 12L9 10L8 10L8 9L11 9L11 8L13 8L13 5L12 5L12 3L13 3L13 2L12 2L12 1L14 1L14 3L15 3L15 0ZM22 0L22 1L23 1L23 0ZM24 0L24 1L25 1L25 0ZM35 0L35 1L36 1L36 0ZM37 0L37 1L38 1L38 0ZM44 0L44 1L45 1L45 0ZM51 1L51 2L49 2L49 3L50 3L50 4L51 4L51 5L52 5L52 4L53 4L53 3L51 3L51 2L52 2L52 1ZM8 2L8 5L9 5L9 4L10 4L10 3L9 3L9 2ZM28 2L28 5L26 5L26 6L25 6L25 7L26 7L26 6L27 6L27 7L28 7L28 10L27 10L27 8L25 8L25 10L24 10L24 9L23 9L23 10L24 10L24 12L26 12L26 13L25 13L25 14L27 14L27 17L26 17L26 18L27 18L27 19L25 19L25 20L24 20L24 19L23 19L23 20L22 20L22 17L19 17L19 16L17 16L17 17L16 17L16 18L18 18L18 19L19 19L19 22L20 22L20 23L18 23L18 24L17 24L17 23L16 23L16 20L15 20L15 17L14 17L14 16L13 16L13 15L11 15L11 14L12 14L12 12L14 12L14 11L15 11L15 10L14 10L14 11L12 11L12 12L11 12L11 13L8 13L8 14L7 14L7 13L6 13L6 14L7 14L7 15L6 15L6 16L8 16L8 17L5 17L5 15L4 15L4 14L3 14L3 15L2 15L2 16L3 16L3 17L5 17L5 18L4 18L4 19L5 19L5 20L4 20L4 21L3 21L3 22L2 22L2 23L3 23L3 22L4 22L4 23L6 23L6 24L5 24L5 25L4 25L4 24L2 24L2 25L4 25L4 26L5 26L5 27L4 27L4 28L3 28L3 27L2 27L2 28L3 28L3 29L2 29L2 30L4 30L4 29L6 29L6 30L9 30L9 32L10 32L10 31L11 31L11 33L13 33L13 34L12 34L12 35L11 35L11 34L9 34L9 35L8 35L8 36L7 36L7 35L6 35L6 36L7 36L7 37L6 37L6 38L5 38L5 37L4 37L4 36L5 36L5 35L4 35L4 34L3 34L3 35L1 35L1 36L3 36L3 38L4 38L4 40L5 40L5 39L6 39L6 40L7 40L7 39L6 39L6 38L8 38L8 40L9 40L9 41L8 41L8 42L7 42L7 41L6 41L6 42L4 42L4 41L3 41L3 42L4 42L4 43L1 43L1 44L2 44L2 45L1 45L1 47L5 47L5 45L6 45L6 46L7 46L7 47L6 47L6 48L5 48L5 49L4 49L4 48L2 48L2 50L4 50L4 51L5 51L5 52L7 52L7 51L5 51L5 49L6 49L6 50L9 50L9 51L8 51L8 52L9 52L9 53L10 53L10 51L12 51L12 52L11 52L11 53L13 53L13 51L14 51L14 53L16 53L16 50L17 50L17 48L19 48L19 49L18 49L18 50L19 50L19 51L17 51L17 54L19 54L19 56L18 56L18 57L20 57L20 58L19 58L19 59L18 59L18 60L20 60L20 61L21 61L21 60L22 60L22 61L23 61L23 60L22 60L22 59L23 59L23 58L21 58L21 56L22 56L22 55L23 55L23 57L26 57L26 58L29 58L29 61L28 61L28 60L26 60L26 61L24 61L24 63L26 63L26 61L27 61L27 62L30 62L30 56L31 56L31 55L32 55L32 56L33 56L33 55L34 55L34 56L36 56L36 57L35 57L35 59L36 59L36 60L37 60L37 58L36 58L36 57L38 57L38 58L39 58L39 55L40 55L40 56L42 56L42 57L43 57L43 58L41 58L41 57L40 57L40 59L39 59L39 60L38 60L38 61L41 61L41 63L42 63L42 62L43 62L43 60L44 60L44 59L43 59L43 58L45 58L45 59L47 59L47 60L49 60L49 61L50 61L50 58L51 58L51 57L50 57L50 55L51 55L51 56L54 56L54 54L55 54L55 53L56 53L56 54L57 54L57 56L58 56L58 55L59 55L59 53L58 53L58 50L60 50L60 51L61 51L61 50L62 50L62 49L63 49L63 47L61 47L61 46L62 46L62 44L59 44L59 45L58 45L58 47L61 47L61 49L58 49L58 48L57 48L57 46L56 46L56 45L57 45L57 41L58 41L58 43L59 43L59 40L58 40L58 39L57 39L57 38L58 38L58 37L59 37L59 35L57 35L57 36L56 36L56 33L55 33L55 32L54 32L54 33L55 33L55 34L54 34L54 36L55 36L55 37L53 37L53 34L51 34L51 33L50 33L50 31L49 31L49 30L48 30L48 29L50 29L50 30L52 30L52 29L53 29L53 28L54 28L54 27L53 27L53 24L50 24L50 23L51 23L51 20L50 20L50 22L48 22L48 24L49 24L49 25L48 25L48 26L47 26L47 21L45 21L45 20L47 20L47 19L45 19L45 20L43 20L43 19L44 19L44 18L45 18L45 17L42 17L42 18L41 18L41 19L38 19L38 18L39 18L39 17L38 17L38 16L40 16L40 17L41 17L41 16L43 16L43 15L41 15L41 9L39 9L39 7L40 7L40 6L39 6L39 5L37 5L37 7L36 7L36 6L35 6L35 7L36 7L36 11L35 11L35 12L36 12L36 11L38 11L38 12L39 12L39 13L40 13L40 14L38 14L38 16L36 16L36 14L37 14L37 13L34 13L34 14L33 14L33 15L35 15L35 16L34 16L34 17L35 17L35 18L34 18L34 20L31 20L31 18L30 18L30 17L29 17L29 16L28 16L28 15L29 15L29 14L27 14L27 12L26 12L26 11L28 11L28 10L29 10L29 11L30 11L30 12L28 12L28 13L30 13L30 12L31 12L31 13L33 13L33 12L32 12L32 11L34 11L34 10L35 10L35 9L32 9L32 10L31 10L31 11L30 11L30 6L29 6L29 7L28 7L28 5L29 5L29 2ZM35 4L35 5L36 5L36 4ZM48 4L48 6L49 6L49 7L50 7L50 6L49 6L49 4ZM11 5L11 7L12 7L12 5ZM31 5L31 8L34 8L34 5ZM18 6L18 7L19 7L19 6ZM21 6L21 7L22 7L22 8L23 8L23 7L22 7L22 6ZM32 6L32 7L33 7L33 6ZM38 6L38 7L39 7L39 6ZM43 6L43 7L44 7L44 6ZM51 6L51 8L53 8L53 9L55 9L55 8L53 8L53 7L54 7L54 6L53 6L53 7L52 7L52 6ZM37 8L37 10L38 10L38 8ZM62 9L62 10L63 10L63 9ZM25 10L25 11L26 11L26 10ZM43 10L43 11L42 11L42 12L43 12L43 11L44 11L44 10ZM52 10L52 11L53 11L53 10ZM54 10L54 11L55 11L55 12L56 12L56 13L57 13L57 11L56 11L56 10ZM20 11L20 12L21 12L21 11ZM17 13L17 14L18 14L18 15L19 15L19 13ZM42 13L42 14L43 14L43 13ZM46 13L46 14L47 14L47 17L48 17L48 19L49 19L49 16L48 16L48 15L49 15L49 14L48 14L48 13ZM58 13L58 14L57 14L57 15L56 15L56 16L55 16L55 17L54 17L54 16L52 16L52 17L54 17L54 19L52 19L52 20L55 20L55 21L56 21L56 22L55 22L55 25L54 25L54 26L55 26L55 27L57 27L57 26L55 26L55 25L57 25L57 24L56 24L56 23L58 23L58 24L59 24L59 23L58 23L58 22L59 22L59 21L61 21L61 20L60 20L60 18L61 18L61 16L60 16L60 15L61 15L61 13L60 13L60 15L58 15L58 14L59 14L59 13ZM8 14L8 16L9 16L9 17L8 17L8 18L5 18L5 19L7 19L7 20L6 20L6 21L7 21L7 20L8 20L8 18L9 18L9 21L8 21L8 22L6 22L6 23L7 23L7 24L6 24L6 25L8 25L8 26L6 26L6 27L8 27L8 28L9 28L9 30L11 30L11 28L10 28L10 26L11 26L11 27L12 27L12 29L13 29L13 31L12 31L12 32L14 32L14 35L12 35L12 36L13 36L13 37L11 37L11 35L10 35L10 38L9 38L9 40L11 40L11 41L12 41L12 40L13 40L13 42L10 42L10 41L9 41L9 42L8 42L8 43L9 43L9 42L10 42L10 43L13 43L13 44L14 44L14 43L17 43L17 44L16 44L16 47L15 47L15 45L13 45L13 46L14 46L14 47L12 47L12 44L10 44L10 45L11 45L11 46L8 46L8 44L6 44L6 45L7 45L7 46L8 46L8 47L7 47L7 48L6 48L6 49L11 49L11 50L14 50L14 49L15 49L15 50L16 50L16 49L15 49L15 48L16 48L16 47L17 47L17 46L18 46L18 45L17 45L17 44L18 44L18 43L19 43L19 46L21 46L21 47L20 47L20 48L21 48L21 47L22 47L22 48L23 48L23 49L26 49L26 52L25 52L25 50L24 50L24 52L23 52L23 51L22 51L22 49L19 49L19 50L20 50L20 51L19 51L19 52L18 52L18 53L19 53L19 52L20 52L20 51L21 51L21 53L22 53L22 54L23 54L23 55L25 55L25 54L26 54L26 52L27 52L27 55L29 55L29 53L28 53L28 52L29 52L29 51L30 51L30 53L31 53L31 51L32 51L32 53L33 53L33 52L34 52L34 51L36 51L36 52L37 52L37 51L39 51L39 54L40 54L40 55L43 55L43 56L47 56L47 57L48 57L48 58L47 58L47 59L49 59L49 58L50 58L50 57L48 57L48 56L49 56L49 55L50 55L50 54L49 54L49 55L46 55L46 54L47 54L47 52L46 52L46 53L45 53L45 52L43 52L43 51L44 51L44 50L45 50L45 51L47 51L47 50L46 50L46 49L48 49L48 50L49 50L49 51L48 51L48 52L50 52L50 53L51 53L51 54L52 54L52 53L51 53L51 52L50 52L50 50L52 50L52 52L54 52L54 53L53 53L53 54L54 54L54 53L55 53L55 52L56 52L56 53L57 53L57 50L58 50L58 49L57 49L57 48L56 48L56 51L53 51L53 49L55 49L55 47L53 47L53 49L52 49L52 47L51 47L51 46L52 46L52 45L53 45L53 46L55 46L55 45L56 45L56 44L55 44L55 45L53 45L53 44L54 44L54 43L55 43L55 42L56 42L56 41L55 41L55 42L54 42L54 40L55 40L55 39L54 39L54 38L53 38L53 39L54 39L54 40L53 40L53 42L50 42L50 44L51 44L51 46L50 46L50 45L49 45L49 46L48 46L48 47L47 47L47 48L46 48L46 46L43 46L43 45L42 45L42 44L44 44L44 43L45 43L45 44L46 44L46 45L48 45L48 43L49 43L49 41L48 41L48 39L47 39L47 38L49 38L49 39L51 39L51 41L52 41L52 39L51 39L51 38L52 38L52 37L50 37L50 35L51 35L51 34L50 34L50 33L49 33L49 34L47 34L47 36L48 36L48 37L47 37L47 38L46 38L46 36L45 36L45 39L43 39L43 40L44 40L44 41L43 41L43 42L44 42L44 43L40 43L40 42L39 42L39 43L37 43L37 41L36 41L36 42L35 42L35 45L36 45L36 44L37 44L37 47L36 47L36 48L35 48L35 47L34 47L34 46L33 46L33 47L31 47L31 46L32 46L32 45L33 45L33 42L31 42L31 43L29 43L29 41L27 41L27 40L26 40L26 38L28 38L28 39L29 39L29 40L31 40L31 39L32 39L32 41L35 41L35 40L36 40L36 39L40 39L40 40L42 40L42 38L41 38L41 39L40 39L40 37L37 37L37 36L39 36L39 34L38 34L38 32L37 32L37 31L39 31L39 33L41 33L41 35L42 35L42 36L41 36L41 37L44 37L44 35L42 35L42 34L43 34L43 33L42 33L42 32L45 32L45 33L44 33L44 34L45 34L45 33L46 33L46 32L47 32L47 33L48 33L48 31L47 31L47 29L46 29L46 28L47 28L47 27L46 27L46 24L45 24L45 23L44 23L44 22L45 22L45 21L43 21L43 20L42 20L42 19L41 19L41 20L37 20L37 21L36 21L36 19L37 19L37 18L35 18L35 22L34 22L34 23L31 23L31 25L30 25L30 26L28 26L28 25L27 25L27 26L28 26L28 27L29 27L29 29L28 29L28 30L22 30L22 31L20 31L20 29L22 29L22 28L25 28L25 29L27 29L27 27L26 27L26 25L25 25L25 27L24 27L24 24L26 24L26 22L25 22L25 21L23 21L23 23L21 23L21 24L23 24L23 27L22 27L22 26L21 26L21 25L19 25L19 24L18 24L18 26L19 26L19 27L17 27L17 26L16 26L16 23L15 23L15 20L14 20L14 19L13 19L13 18L12 18L12 17L13 17L13 16L12 16L12 17L11 17L11 15L10 15L10 14ZM30 14L30 15L32 15L32 14ZM40 15L40 16L41 16L41 15ZM50 15L50 16L51 16L51 15ZM56 16L56 17L57 17L57 18L59 18L59 16ZM27 17L27 18L28 18L28 19L27 19L27 20L26 20L26 21L27 21L27 20L28 20L28 19L29 19L29 17ZM50 17L50 18L51 18L51 17ZM11 18L11 21L10 21L10 22L9 22L9 24L8 24L8 25L11 25L11 26L12 26L12 25L15 25L15 24L11 24L11 23L10 23L10 22L13 22L13 23L14 23L14 20L13 20L13 21L12 21L12 18ZM20 18L20 19L21 19L21 18ZM32 18L32 19L33 19L33 18ZM55 19L55 20L57 20L57 21L58 21L58 19ZM20 20L20 21L21 21L21 22L22 22L22 20ZM29 20L29 22L28 22L28 23L27 23L27 24L28 24L28 23L29 23L29 24L30 24L30 22L31 22L31 21L30 21L30 20ZM48 20L48 21L49 21L49 20ZM4 21L4 22L5 22L5 21ZM17 21L17 22L18 22L18 21ZM32 21L32 22L33 22L33 21ZM38 21L38 22L37 22L37 24L38 24L38 23L39 23L39 25L40 25L40 26L41 26L41 27L40 27L40 32L42 32L42 31L41 31L41 29L42 29L42 30L43 30L43 31L44 31L44 30L43 30L43 28L42 28L42 26L43 26L43 25L42 25L42 24L41 24L41 23L42 23L42 21ZM53 21L53 23L54 23L54 21ZM24 22L24 23L23 23L23 24L24 24L24 23L25 23L25 22ZM40 22L40 23L41 23L41 22ZM34 23L34 24L32 24L32 26L31 26L31 28L30 28L30 29L31 29L31 28L33 28L33 29L35 29L35 30L36 30L36 31L37 31L37 30L39 30L39 28L38 28L38 25L34 25L34 24L36 24L36 23ZM44 24L44 28L45 28L45 24ZM33 25L33 26L32 26L32 27L33 27L33 26L34 26L34 25ZM49 25L49 26L51 26L51 27L49 27L49 28L50 28L50 29L52 29L52 28L51 28L51 27L52 27L52 26L51 26L51 25ZM8 26L8 27L9 27L9 26ZM15 26L15 27L13 27L13 28L14 28L14 30L15 30L15 37L14 37L14 39L13 39L13 40L14 40L14 41L15 41L15 40L14 40L14 39L15 39L15 37L16 37L16 38L17 38L17 39L16 39L16 41L18 41L18 42L17 42L17 43L18 43L18 42L20 42L20 43L21 43L21 44L20 44L20 45L21 45L21 46L22 46L22 47L23 47L23 46L22 46L22 45L21 45L21 44L23 44L23 45L24 45L24 46L26 46L26 47L25 47L25 48L26 48L26 49L27 49L27 48L28 48L28 50L27 50L27 52L28 52L28 50L29 50L29 49L30 49L30 51L31 51L31 49L32 49L32 48L31 48L31 49L30 49L30 47L29 47L29 48L28 48L28 47L27 47L27 46L30 46L30 44L29 44L29 43L28 43L28 42L27 42L27 41L25 41L25 40L24 40L24 38L25 38L25 37L27 37L27 35L28 35L28 36L30 36L30 37L33 37L33 36L30 36L30 32L29 32L29 30L28 30L28 32L27 32L27 31L24 31L24 32L23 32L23 33L22 33L22 34L21 34L21 33L20 33L20 31L19 31L19 30L18 30L18 31L19 31L19 32L18 32L18 33L16 33L16 32L17 32L17 30L16 30L16 29L17 29L17 27L16 27L16 26ZM20 26L20 28L21 28L21 26ZM35 26L35 27L34 27L34 28L35 28L35 27L36 27L36 28L37 28L37 27L36 27L36 26ZM25 27L25 28L26 28L26 27ZM62 27L62 28L63 28L63 27ZM6 28L6 29L7 29L7 28ZM15 28L15 29L16 29L16 28ZM18 28L18 29L19 29L19 28ZM45 29L45 32L46 32L46 29ZM54 29L54 30L57 30L57 29ZM5 31L5 34L8 34L8 31ZM31 31L31 34L34 34L34 31ZM52 31L52 32L53 32L53 31ZM57 31L57 34L60 34L60 31ZM6 32L6 33L7 33L7 32ZM24 32L24 33L23 33L23 35L20 35L20 36L18 36L18 34L20 34L20 33L18 33L18 34L16 34L16 35L17 35L17 36L16 36L16 37L17 37L17 36L18 36L18 37L19 37L19 39L21 39L21 40L19 40L19 41L22 41L22 43L23 43L23 42L24 42L24 40L23 40L23 41L22 41L22 39L23 39L23 38L22 38L22 36L23 36L23 35L24 35L24 37L25 37L25 32ZM28 32L28 33L29 33L29 32ZM32 32L32 33L33 33L33 32ZM36 32L36 33L37 33L37 32ZM58 32L58 33L59 33L59 32ZM26 33L26 35L27 35L27 33ZM28 34L28 35L29 35L29 34ZM37 34L37 35L38 35L38 34ZM35 35L35 36L36 36L36 35ZM8 36L8 37L9 37L9 36ZM20 36L20 37L21 37L21 36ZM57 36L57 37L56 37L56 38L57 38L57 37L58 37L58 36ZM28 37L28 38L29 38L29 39L30 39L30 38L29 38L29 37ZM34 37L34 38L32 38L32 39L33 39L33 40L34 40L34 38L37 38L37 37ZM10 38L10 39L11 39L11 40L12 40L12 39L11 39L11 38ZM45 39L45 41L46 41L46 40L47 40L47 39ZM56 39L56 40L57 40L57 39ZM38 40L38 41L39 41L39 40ZM1 41L1 42L2 42L2 41ZM41 41L41 42L42 42L42 41ZM6 42L6 43L7 43L7 42ZM25 42L25 43L24 43L24 44L25 44L25 43L26 43L26 42ZM46 42L46 44L47 44L47 42ZM53 42L53 43L54 43L54 42ZM61 42L61 43L62 43L62 42ZM31 43L31 44L32 44L32 43ZM51 43L51 44L52 44L52 43ZM4 44L4 45L3 45L3 46L4 46L4 45L5 45L5 44ZM28 44L28 45L29 45L29 44ZM38 44L38 46L39 46L39 47L40 47L40 50L39 50L39 51L40 51L40 53L41 53L41 52L42 52L42 54L44 54L44 55L45 55L45 54L44 54L44 53L43 53L43 52L42 52L42 50L43 50L43 49L41 49L41 47L43 47L43 48L44 48L44 49L46 49L46 48L44 48L44 47L43 47L43 46L41 46L41 45L39 45L39 44ZM59 45L59 46L61 46L61 45ZM40 46L40 47L41 47L41 46ZM49 46L49 47L50 47L50 46ZM11 48L11 49L12 49L12 48ZM13 48L13 49L14 49L14 48ZM33 48L33 50L34 50L34 49L35 49L35 50L36 50L36 51L37 51L37 50L36 50L36 49L35 49L35 48ZM38 48L38 49L39 49L39 48ZM49 48L49 49L50 49L50 48ZM24 53L24 54L25 54L25 53ZM34 53L34 54L35 54L35 55L37 55L37 56L38 56L38 55L37 55L37 53ZM20 54L20 56L21 56L21 54ZM32 54L32 55L33 55L33 54ZM64 55L64 56L65 56L65 55ZM6 56L6 57L7 57L7 56ZM27 56L27 57L29 57L29 56ZM11 57L11 58L12 58L12 61L13 61L13 60L15 60L15 61L14 61L14 63L15 63L15 62L17 62L17 59L13 59L13 58L12 58L12 57ZM31 57L31 60L34 60L34 57ZM52 57L52 60L51 60L51 62L52 62L52 61L53 61L53 62L54 62L54 63L55 63L55 61L56 61L56 57L55 57L55 58L53 58L53 57ZM57 57L57 60L60 60L60 57ZM64 57L64 58L65 58L65 57ZM32 58L32 59L33 59L33 58ZM58 58L58 59L59 59L59 58ZM20 59L20 60L21 60L21 59ZM24 59L24 60L25 60L25 59ZM40 59L40 60L41 60L41 59ZM42 59L42 60L43 60L43 59ZM53 59L53 60L54 60L54 61L55 61L55 60L54 60L54 59ZM9 60L9 61L8 61L8 65L9 65L9 62L10 62L10 60ZM36 61L36 62L35 62L35 63L36 63L36 62L37 62L37 61ZM46 61L46 62L47 62L47 61ZM60 62L60 63L61 63L61 62ZM10 64L10 65L13 65L13 64ZM19 64L19 65L20 65L20 64ZM21 64L21 65L22 65L22 64ZM28 64L28 65L29 65L29 64ZM43 64L43 65L45 65L45 64ZM0 0L0 7L7 7L7 0ZM1 1L1 6L6 6L6 1ZM2 2L2 5L5 5L5 2ZM58 0L58 7L65 7L65 0ZM59 1L59 6L64 6L64 1ZM60 2L60 5L63 5L63 2ZM0 58L0 65L7 65L7 58ZM1 59L1 64L6 64L6 59ZM2 60L2 63L5 63L5 60Z" fill="#000000"/></g></g></svg>
