<?xml version="1.0" encoding="UTF-8"?>
<svg xmlns="http://www.w3.org/2000/svg" version="1.1" width="300" height="300" viewBox="0 0 300 300"><rect x="0" y="0" width="300" height="300" fill="#ffffff"/><g transform="scale(4.348)"><g transform="translate(0,0)"><path fill-rule="evenodd" d="M10 0L10 1L12 1L12 3L11 3L11 2L9 2L9 1L8 1L8 2L9 2L9 3L8 3L8 4L9 4L9 5L8 5L8 7L9 7L9 6L10 6L10 7L11 7L11 6L10 6L10 4L12 4L12 3L13 3L13 1L14 1L14 2L17 2L17 1L19 1L19 2L18 2L18 3L17 3L17 4L16 4L16 3L14 3L14 4L13 4L13 5L12 5L12 8L13 8L13 6L14 6L14 7L15 7L15 8L14 8L14 9L11 9L11 10L8 10L8 11L11 11L11 12L6 12L6 11L7 11L7 10L5 10L5 8L0 8L0 10L5 10L5 11L4 11L4 12L1 12L1 11L0 11L0 12L1 12L1 14L0 14L0 15L1 15L1 14L2 14L2 13L3 13L3 15L2 15L2 16L1 16L1 21L0 21L0 22L1 22L1 23L2 23L2 25L1 25L1 24L0 24L0 25L1 25L1 26L0 26L0 37L1 37L1 33L2 33L2 36L3 36L3 38L2 38L2 40L3 40L3 41L1 41L1 40L0 40L0 41L1 41L1 42L3 42L3 43L0 43L0 44L1 44L1 45L0 45L0 47L1 47L1 48L4 48L4 50L3 50L3 52L2 52L2 51L1 51L1 50L2 50L2 49L0 49L0 52L2 52L2 53L1 53L1 54L0 54L0 56L1 56L1 55L2 55L2 53L3 53L3 54L4 54L4 53L5 53L5 54L6 54L6 55L5 55L5 57L7 57L7 58L4 58L4 59L7 59L7 60L6 60L6 61L8 61L8 63L10 63L10 65L9 65L9 64L8 64L8 69L9 69L9 67L11 67L11 69L15 69L15 68L14 68L14 67L16 67L16 65L17 65L17 66L18 66L18 67L20 67L20 66L19 66L19 65L20 65L20 64L21 64L21 62L20 62L20 60L17 60L17 59L20 59L20 56L22 56L22 57L21 57L21 58L22 58L22 59L21 59L21 60L22 60L22 59L24 59L24 60L23 60L23 61L22 61L22 62L23 62L23 63L24 63L24 64L25 64L25 65L21 65L21 68L20 68L20 69L21 69L21 68L23 68L23 69L26 69L26 68L27 68L27 69L28 69L28 68L29 68L29 69L32 69L32 68L31 68L31 67L33 67L33 65L35 65L35 66L36 66L36 67L35 67L35 68L36 68L36 69L38 69L38 68L37 68L37 67L39 67L39 66L38 66L38 65L39 65L39 64L41 64L41 66L40 66L40 67L41 67L41 68L42 68L42 69L44 69L44 68L47 68L47 69L49 69L49 67L48 67L48 68L47 68L47 66L48 66L48 65L49 65L49 66L50 66L50 69L51 69L51 68L52 68L52 66L58 66L58 68L57 68L57 67L56 67L56 68L55 68L55 67L54 67L54 68L55 68L55 69L56 69L56 68L57 68L57 69L59 69L59 68L60 68L60 67L61 67L61 69L62 69L62 67L63 67L63 68L67 68L67 69L68 69L68 68L67 68L67 65L65 65L65 64L67 64L67 62L69 62L69 60L67 60L67 59L68 59L68 57L69 57L69 55L68 55L68 54L69 54L69 53L68 53L68 54L66 54L66 53L67 53L67 52L68 52L68 50L69 50L69 49L66 49L66 50L67 50L67 51L65 51L65 50L64 50L64 49L65 49L65 48L69 48L69 47L68 47L68 46L67 46L67 45L68 45L68 44L69 44L69 43L68 43L68 44L67 44L67 42L69 42L69 40L67 40L67 39L68 39L68 38L67 38L67 39L63 39L63 40L64 40L64 41L62 41L62 42L64 42L64 41L65 41L65 42L66 42L66 43L61 43L61 41L60 41L60 42L58 42L58 41L59 41L59 40L58 40L58 39L60 39L60 37L62 37L62 38L61 38L61 39L62 39L62 38L64 38L64 37L65 37L65 36L66 36L66 37L68 37L68 36L69 36L69 35L68 35L68 34L69 34L69 32L68 32L68 31L64 31L64 30L65 30L65 29L66 29L66 28L67 28L67 27L68 27L68 28L69 28L69 27L68 27L68 26L69 26L69 23L68 23L68 18L69 18L69 17L67 17L67 15L68 15L68 13L67 13L67 11L68 11L68 10L67 10L67 9L68 9L68 8L67 8L67 9L66 9L66 8L65 8L65 9L64 9L64 8L63 8L63 11L62 11L62 8L61 8L61 9L60 9L60 7L61 7L61 6L60 6L60 7L59 7L59 4L58 4L58 3L59 3L59 2L57 2L57 1L61 1L61 0L56 0L56 2L55 2L55 0L53 0L53 1L54 1L54 3L57 3L57 4L53 4L53 5L52 5L52 4L51 4L51 5L50 5L50 3L48 3L48 2L50 2L50 0L49 0L49 1L48 1L48 2L47 2L47 1L46 1L46 0L44 0L44 1L46 1L46 2L47 2L47 4L48 4L48 5L47 5L47 6L46 6L46 5L44 5L44 3L45 3L45 4L46 4L46 3L45 3L45 2L44 2L44 3L43 3L43 0L39 0L39 1L38 1L38 0L35 0L35 1L34 1L34 0L33 0L33 1L32 1L32 0L31 0L31 1L29 1L29 0L28 0L28 1L25 1L25 0L23 0L23 1L21 1L21 3L19 3L19 2L20 2L20 1L19 1L19 0L17 0L17 1L14 1L14 0L13 0L13 1L12 1L12 0ZM24 1L24 2L25 2L25 1ZM31 1L31 2L30 2L30 3L31 3L31 4L36 4L36 3L38 3L38 4L37 4L37 5L38 5L38 6L37 6L37 7L38 7L38 8L39 8L39 9L38 9L38 10L36 10L36 9L35 9L35 10L36 10L36 11L34 11L34 10L32 10L32 11L31 11L31 10L30 10L30 9L31 9L31 7L32 7L32 5L30 5L30 6L29 6L29 4L27 4L27 3L28 3L28 2L26 2L26 4L25 4L25 3L24 3L24 4L23 4L23 3L21 3L21 4L19 4L19 5L20 5L20 6L19 6L19 7L20 7L20 10L19 10L19 11L18 11L18 10L16 10L16 9L17 9L17 7L18 7L18 4L17 4L17 7L16 7L16 6L15 6L15 7L16 7L16 8L15 8L15 10L13 10L13 11L15 11L15 10L16 10L16 11L17 11L17 12L19 12L19 11L20 11L20 14L18 14L18 13L15 13L15 12L13 12L13 13L15 13L15 14L16 14L16 15L17 15L17 16L13 16L13 17L12 17L12 16L11 16L11 15L10 15L10 13L9 13L9 14L8 14L8 13L6 13L6 12L5 12L5 13L4 13L4 14L7 14L7 15L5 15L5 17L2 17L2 19L3 19L3 18L4 18L4 19L6 19L6 20L8 20L8 22L7 22L7 21L6 21L6 22L7 22L7 23L5 23L5 24L7 24L7 25L4 25L4 27L3 27L3 28L2 28L2 26L3 26L3 25L2 25L2 26L1 26L1 29L2 29L2 30L3 30L3 31L2 31L2 33L3 33L3 36L4 36L4 31L5 31L5 30L7 30L7 31L6 31L6 32L9 32L9 33L11 33L11 32L16 32L16 33L15 33L15 35L16 35L16 36L15 36L15 38L13 38L13 37L14 37L14 36L12 36L12 38L11 38L11 35L14 35L14 33L12 33L12 34L9 34L9 36L10 36L10 38L11 38L11 40L10 40L10 39L8 39L8 38L7 38L7 37L4 37L4 38L7 38L7 39L3 39L3 40L4 40L4 41L5 41L5 40L9 40L9 42L8 42L8 41L6 41L6 42L4 42L4 43L6 43L6 44L7 44L7 45L3 45L3 44L2 44L2 46L1 46L1 47L3 47L3 46L9 46L9 47L10 47L10 46L11 46L11 45L10 45L10 44L11 44L11 43L14 43L14 44L15 44L15 47L17 47L17 48L18 48L18 49L16 49L16 48L14 48L14 47L13 47L13 46L12 46L12 47L13 47L13 49L11 49L11 48L9 48L9 50L8 50L8 49L5 49L5 50L4 50L4 51L5 51L5 52L9 52L9 54L7 54L7 53L6 53L6 54L7 54L7 55L6 55L6 56L7 56L7 57L8 57L8 58L7 58L7 59L8 59L8 58L10 58L10 59L9 59L9 60L8 60L8 61L9 61L9 62L11 62L11 63L12 63L12 62L15 62L15 63L16 63L16 62L17 62L17 63L18 63L18 62L19 62L19 64L20 64L20 62L19 62L19 61L17 61L17 60L16 60L16 59L15 59L15 61L14 61L14 60L13 60L13 61L12 61L12 59L11 59L11 57L12 57L12 58L13 58L13 59L14 59L14 58L16 58L16 57L17 57L17 58L19 58L19 57L17 57L17 56L18 56L18 55L19 55L19 56L20 56L20 55L22 55L22 54L23 54L23 55L24 55L24 54L23 54L23 53L24 53L24 51L26 51L26 53L25 53L25 54L26 54L26 56L25 56L25 57L27 57L27 58L29 58L29 57L30 57L30 56L28 56L28 57L27 57L27 55L30 55L30 53L28 53L28 52L34 52L34 53L33 53L33 55L32 55L32 53L31 53L31 56L33 56L33 57L32 57L32 58L30 58L30 59L29 59L29 60L28 60L28 61L27 61L27 59L26 59L26 62L29 62L29 63L27 63L27 64L28 64L28 65L25 65L25 67L27 67L27 68L28 68L28 67L27 67L27 66L28 66L28 65L29 65L29 66L30 66L30 65L29 65L29 64L31 64L31 63L32 63L32 61L31 61L31 63L30 63L30 62L29 62L29 60L32 60L32 58L33 58L33 59L36 59L36 58L35 58L35 56L34 56L34 55L38 55L38 56L37 56L37 58L39 58L39 57L41 57L41 56L39 56L39 55L41 55L41 53L43 53L43 56L42 56L42 57L43 57L43 60L42 60L42 58L41 58L41 59L40 59L40 62L39 62L39 61L38 61L38 59L37 59L37 61L38 61L38 64L39 64L39 63L41 63L41 64L44 64L44 66L41 66L41 67L43 67L43 68L44 68L44 66L45 66L45 67L46 67L46 66L47 66L47 64L48 64L48 63L49 63L49 64L51 64L51 65L50 65L50 66L51 66L51 65L53 65L53 64L54 64L54 65L55 65L55 64L56 64L56 65L57 65L57 64L56 64L56 61L57 61L57 63L58 63L58 62L59 62L59 61L60 61L60 60L64 60L64 59L65 59L65 58L67 58L67 57L68 57L68 55L67 55L67 57L65 57L65 56L63 56L63 55L66 55L66 54L65 54L65 53L66 53L66 52L65 52L65 51L64 51L64 50L62 50L62 49L64 49L64 48L65 48L65 47L66 47L66 45L65 45L65 44L64 44L64 45L63 45L63 44L61 44L61 43L60 43L60 44L59 44L59 43L58 43L58 42L57 42L57 41L58 41L58 40L57 40L57 38L59 38L59 37L60 37L60 35L59 35L59 32L61 32L61 30L59 30L59 29L60 29L60 28L61 28L61 26L63 26L63 27L62 27L62 28L63 28L63 29L62 29L62 31L63 31L63 32L64 32L64 31L63 31L63 29L65 29L65 28L66 28L66 27L65 27L65 28L64 28L64 26L67 26L67 25L65 25L65 24L64 24L64 23L65 23L65 21L67 21L67 20L65 20L65 18L67 18L67 17L66 17L66 16L65 16L65 14L67 14L67 13L65 13L65 12L64 12L64 11L66 11L66 10L64 10L64 11L63 11L63 13L62 13L62 12L60 12L60 13L62 13L62 15L61 15L61 16L62 16L62 18L61 18L61 20L60 20L60 18L59 18L59 17L57 17L57 15L58 15L58 16L60 16L60 15L59 15L59 12L58 12L58 13L57 13L57 12L55 12L55 11L56 11L56 10L57 10L57 11L58 11L58 10L59 10L59 11L61 11L61 10L60 10L60 9L59 9L59 7L58 7L58 4L57 4L57 5L56 5L56 6L55 6L55 7L54 7L54 5L53 5L53 7L54 7L54 9L55 9L55 8L56 8L56 10L55 10L55 11L54 11L54 10L53 10L53 8L49 8L49 9L50 9L50 11L51 11L51 10L53 10L53 11L52 11L52 12L51 12L51 13L50 13L50 12L49 12L49 10L47 10L47 7L48 7L48 6L47 6L47 7L46 7L46 6L45 6L45 7L44 7L44 5L41 5L41 4L43 4L43 3L41 3L41 2L42 2L42 1L41 1L41 2L38 2L38 1L37 1L37 2L34 2L34 1L33 1L33 2L32 2L32 1ZM31 2L31 3L32 3L32 2ZM51 2L51 3L52 3L52 2ZM9 3L9 4L10 4L10 3ZM60 3L60 5L61 5L61 3ZM14 4L14 5L15 5L15 4ZM21 4L21 6L20 6L20 7L21 7L21 6L22 6L22 7L23 7L23 6L22 6L22 5L23 5L23 4ZM24 4L24 5L25 5L25 6L24 6L24 9L23 9L23 10L24 10L24 9L25 9L25 10L26 10L26 8L27 8L27 6L28 6L28 7L29 7L29 6L28 6L28 5L27 5L27 6L26 6L26 5L25 5L25 4ZM33 5L33 8L36 8L36 5ZM40 5L40 7L39 7L39 6L38 6L38 7L39 7L39 8L40 8L40 7L41 7L41 5ZM25 6L25 8L26 8L26 6ZM30 6L30 7L31 7L31 6ZM34 6L34 7L35 7L35 6ZM42 6L42 7L43 7L43 6ZM49 6L49 7L50 7L50 6ZM51 6L51 7L52 7L52 6ZM56 6L56 8L57 8L57 6ZM45 7L45 9L44 9L44 8L43 8L43 9L40 9L40 11L39 11L39 12L38 12L38 11L37 11L37 14L35 14L35 15L36 15L36 16L35 16L35 18L34 18L34 19L33 19L33 20L32 20L32 18L33 18L33 17L32 17L32 14L31 14L31 16L29 16L29 15L30 15L30 13L32 13L32 12L31 12L31 11L30 11L30 10L29 10L29 11L28 11L28 10L27 10L27 11L25 11L25 12L24 12L24 11L22 11L22 10L21 10L21 11L22 11L22 12L24 12L24 13L22 13L22 14L20 14L20 15L19 15L19 16L20 16L20 15L22 15L22 14L23 14L23 17L22 17L22 16L21 16L21 17L18 17L18 16L17 16L17 17L18 17L18 18L17 18L17 19L19 19L19 20L16 20L16 18L14 18L14 17L13 17L13 18L12 18L12 21L11 21L11 18L10 18L10 17L11 17L11 16L10 16L10 17L9 17L9 15L7 15L7 16L6 16L6 17L7 17L7 18L6 18L6 19L9 19L9 22L8 22L8 23L7 23L7 24L8 24L8 25L7 25L7 26L6 26L6 27L4 27L4 30L5 30L5 29L7 29L7 30L8 30L8 29L7 29L7 28L6 28L6 27L7 27L7 26L8 26L8 28L10 28L10 27L9 27L9 26L11 26L11 25L10 25L10 24L12 24L12 27L13 27L13 28L11 28L11 31L12 31L12 30L14 30L14 29L13 29L13 28L14 28L14 25L16 25L16 26L15 26L15 27L16 27L16 28L17 28L17 30L18 30L18 31L17 31L17 32L18 32L18 33L17 33L17 35L18 35L18 36L17 36L17 37L18 37L18 38L20 38L20 40L19 40L19 39L17 39L17 38L15 38L15 39L12 39L12 40L11 40L11 42L13 42L13 40L14 40L14 42L16 42L16 41L15 41L15 39L17 39L17 41L18 41L18 42L17 42L17 45L18 45L18 46L17 46L17 47L18 47L18 46L20 46L20 48L22 48L22 45L21 45L21 46L20 46L20 45L19 45L19 44L20 44L20 42L19 42L19 41L22 41L22 40L21 40L21 39L22 39L22 38L23 38L23 37L24 37L24 38L26 38L26 39L27 39L27 40L28 40L28 41L27 41L27 42L26 42L26 44L24 44L24 43L23 43L23 44L24 44L24 45L23 45L23 46L25 46L25 45L26 45L26 46L27 46L27 45L30 45L30 46L29 46L29 47L31 47L31 44L32 44L32 45L33 45L33 46L32 46L32 47L33 47L33 48L32 48L32 49L31 49L31 48L29 48L29 50L32 50L32 51L34 51L34 49L33 49L33 48L36 48L36 47L38 47L38 49L37 49L37 50L36 50L36 49L35 49L35 50L36 50L36 51L35 51L35 54L39 54L39 52L40 52L40 51L41 51L41 50L42 50L42 52L43 52L43 53L44 53L44 56L43 56L43 57L44 57L44 56L46 56L46 57L47 57L47 58L48 58L48 59L49 59L49 58L50 58L50 59L52 59L52 60L53 60L53 61L52 61L52 62L55 62L55 61L56 61L56 60L55 60L55 59L56 59L56 58L55 58L55 57L56 57L56 54L55 54L55 53L56 53L56 52L57 52L57 53L59 53L59 52L58 52L58 51L62 51L62 52L61 52L61 53L62 53L62 54L61 54L61 55L62 55L62 54L63 54L63 53L64 53L64 51L62 51L62 50L60 50L60 49L62 49L62 48L64 48L64 47L65 47L65 46L63 46L63 45L60 45L60 46L59 46L59 48L58 48L58 49L56 49L56 48L55 48L55 47L58 47L58 46L56 46L56 42L55 42L55 41L56 41L56 36L57 36L57 37L59 37L59 36L58 36L58 34L57 34L57 33L56 33L56 30L57 30L57 31L58 31L58 30L57 30L57 29L59 29L59 27L60 27L60 26L61 26L61 24L62 24L62 25L63 25L63 26L64 26L64 24L62 24L62 21L63 21L63 20L64 20L64 19L63 19L63 18L65 18L65 17L63 17L63 18L62 18L62 19L63 19L63 20L62 20L62 21L59 21L59 22L61 22L61 23L60 23L60 25L59 25L59 24L58 24L58 22L57 22L57 21L56 21L56 20L55 20L55 21L53 21L53 22L57 22L57 23L55 23L55 24L57 24L57 25L51 25L51 24L50 24L50 21L51 21L51 22L52 22L52 21L51 21L51 20L54 20L54 19L55 19L55 17L56 17L56 15L57 15L57 14L56 14L56 13L55 13L55 12L53 12L53 13L51 13L51 14L50 14L50 13L49 13L49 12L47 12L47 11L45 11L45 13L44 13L44 11L43 11L43 13L42 13L42 14L41 14L41 12L42 12L42 10L45 10L45 9L46 9L46 7ZM6 8L6 9L9 9L9 8ZM21 8L21 9L22 9L22 8ZM28 8L28 9L30 9L30 8ZM57 9L57 10L58 10L58 9ZM11 10L11 11L12 11L12 10ZM29 11L29 12L28 12L28 13L27 13L27 12L25 12L25 13L27 13L27 14L24 14L24 15L26 15L26 16L24 16L24 17L26 17L26 19L28 19L28 20L26 20L26 21L27 21L27 22L26 22L26 23L25 23L25 24L26 24L26 25L25 25L25 27L26 27L26 30L27 30L27 32L28 32L28 33L25 33L25 32L26 32L26 31L25 31L25 30L23 30L23 29L24 29L24 27L23 27L23 26L24 26L24 25L22 25L22 24L21 24L21 23L22 23L22 22L23 22L23 20L24 20L24 18L23 18L23 20L20 20L20 22L19 22L19 21L17 21L17 22L16 22L16 20L14 20L14 21L13 21L13 24L16 24L16 25L18 25L18 28L19 28L19 25L18 25L18 24L17 24L17 22L19 22L19 23L20 23L20 31L21 31L21 32L20 32L20 33L19 33L19 34L18 34L18 35L19 35L19 36L20 36L20 38L21 38L21 37L23 37L23 35L22 35L22 33L23 33L23 34L24 34L24 35L25 35L25 36L24 36L24 37L25 37L25 36L26 36L26 37L27 37L27 39L29 39L29 40L30 40L30 41L28 41L28 42L27 42L27 44L26 44L26 45L27 45L27 44L28 44L28 43L29 43L29 44L31 44L31 43L32 43L32 44L33 44L33 45L34 45L34 46L33 46L33 47L34 47L34 46L35 46L35 47L36 47L36 46L35 46L35 45L38 45L38 46L39 46L39 47L40 47L40 48L39 48L39 49L38 49L38 50L37 50L37 51L38 51L38 50L41 50L41 49L42 49L42 48L43 48L43 47L44 47L44 49L43 49L43 50L44 50L44 49L45 49L45 52L44 52L44 51L43 51L43 52L44 52L44 53L45 53L45 54L46 54L46 56L49 56L49 57L48 57L48 58L49 58L49 57L50 57L50 58L51 58L51 57L54 57L54 56L55 56L55 54L54 54L54 53L53 53L53 52L54 52L54 51L55 51L55 50L56 50L56 49L55 49L55 50L53 50L53 47L52 47L52 48L50 48L50 47L49 47L49 46L51 46L51 45L54 45L54 44L53 44L53 43L55 43L55 42L53 42L53 41L55 41L55 39L53 39L53 36L50 36L50 34L51 34L51 35L54 35L54 36L56 36L56 35L54 35L54 34L52 34L52 33L55 33L55 34L56 34L56 33L55 33L55 32L54 32L54 31L55 31L55 30L53 30L53 29L55 29L55 26L53 26L53 28L50 28L50 32L49 32L49 31L47 31L47 32L49 32L49 33L50 33L50 34L49 34L49 35L47 35L47 33L45 33L45 32L46 32L46 30L47 30L47 29L45 29L45 27L43 27L43 28L44 28L44 29L43 29L43 30L42 30L42 27L39 27L39 26L41 26L41 25L42 25L42 24L41 24L41 21L42 21L42 20L39 20L39 21L40 21L40 22L37 22L37 21L38 21L38 20L37 20L37 19L34 19L34 20L33 20L33 21L32 21L32 20L31 20L31 21L30 21L30 20L29 20L29 19L30 19L30 17L29 17L29 16L27 16L27 14L28 14L28 15L29 15L29 13L30 13L30 11ZM40 11L40 12L39 12L39 13L38 13L38 14L37 14L37 16L38 16L38 19L39 19L39 18L41 18L41 17L42 17L42 16L44 16L44 17L43 17L43 20L44 20L44 22L43 22L43 24L44 24L44 25L43 25L43 26L46 26L46 28L49 28L49 27L51 27L51 25L50 25L50 24L49 24L49 22L47 22L47 21L46 21L46 20L47 20L47 19L48 19L48 20L49 20L49 19L48 19L48 18L49 18L49 17L48 17L48 16L49 16L49 15L50 15L50 20L51 20L51 18L52 18L52 19L53 19L53 17L54 17L54 16L55 16L55 15L56 15L56 14L53 14L53 15L50 15L50 14L47 14L47 13L45 13L45 14L47 14L47 15L46 15L46 16L44 16L44 13L43 13L43 14L42 14L42 15L40 15L40 14L39 14L39 13L40 13L40 12L41 12L41 11ZM11 12L11 14L12 14L12 15L14 15L14 14L12 14L12 12ZM34 12L34 13L33 13L33 14L34 14L34 13L36 13L36 12ZM63 13L63 14L64 14L64 13ZM17 14L17 15L18 15L18 14ZM38 14L38 16L40 16L40 15L39 15L39 14ZM33 15L33 16L34 16L34 15ZM47 15L47 16L48 16L48 15ZM62 15L62 16L64 16L64 15ZM7 16L7 17L8 17L8 16ZM21 17L21 18L22 18L22 17ZM27 17L27 18L28 18L28 17ZM31 17L31 18L32 18L32 17ZM36 17L36 18L37 18L37 17ZM47 17L47 18L44 18L44 19L47 19L47 18L48 18L48 17ZM9 18L9 19L10 19L10 18ZM19 18L19 19L20 19L20 18ZM57 18L57 20L59 20L59 18ZM2 20L2 21L1 21L1 22L2 22L2 23L4 23L4 22L2 22L2 21L4 21L4 20ZM34 20L34 21L33 21L33 24L34 24L34 25L33 25L33 27L31 27L31 25L32 25L32 23L31 23L31 22L32 22L32 21L31 21L31 22L30 22L30 21L29 21L29 22L27 22L27 23L26 23L26 24L28 24L28 25L27 25L27 28L28 28L28 29L30 29L30 30L28 30L28 31L30 31L30 30L31 30L31 32L29 32L29 33L28 33L28 34L27 34L27 35L28 35L28 36L29 36L29 39L30 39L30 38L31 38L31 36L32 36L32 38L34 38L34 37L35 37L35 38L36 38L36 39L35 39L35 43L36 43L36 44L37 44L37 43L38 43L38 41L39 41L39 40L41 40L41 41L40 41L40 43L39 43L39 44L40 44L40 45L39 45L39 46L40 46L40 47L41 47L41 48L42 48L42 46L44 46L44 47L45 47L45 49L46 49L46 47L45 47L45 45L47 45L47 46L49 46L49 45L50 45L50 44L51 44L51 43L52 43L52 42L51 42L51 43L50 43L50 41L51 41L51 40L47 40L47 38L45 38L45 37L49 37L49 38L48 38L48 39L50 39L50 36L45 36L45 33L44 33L44 32L45 32L45 31L44 31L44 32L43 32L43 31L40 31L40 30L37 30L37 29L38 29L38 28L39 28L39 29L40 29L40 28L39 28L39 27L37 27L37 26L38 26L38 25L39 25L39 24L40 24L40 23L39 23L39 24L38 24L38 23L37 23L37 22L35 22L35 20ZM10 21L10 22L9 22L9 24L10 24L10 23L12 23L12 22L11 22L11 21ZM14 21L14 22L15 22L15 21ZM21 21L21 22L22 22L22 21ZM29 22L29 23L30 23L30 22ZM44 22L44 23L45 23L45 24L46 24L46 25L47 25L47 26L48 26L48 27L49 27L49 26L50 26L50 25L49 25L49 24L48 24L48 23L47 23L47 24L46 24L46 22ZM63 22L63 23L64 23L64 22ZM66 22L66 23L67 23L67 24L68 24L68 23L67 23L67 22ZM23 23L23 24L24 24L24 23ZM34 23L34 24L35 24L35 25L36 25L36 24L37 24L37 25L38 25L38 24L37 24L37 23ZM53 23L53 24L54 24L54 23ZM29 24L29 25L28 25L28 28L31 28L31 29L32 29L32 28L31 28L31 27L30 27L30 26L29 26L29 25L30 25L30 24ZM47 24L47 25L48 25L48 26L49 26L49 25L48 25L48 24ZM8 25L8 26L9 26L9 25ZM21 25L21 28L22 28L22 25ZM57 25L57 26L56 26L56 29L57 29L57 27L58 27L58 26L59 26L59 25ZM35 26L35 27L33 27L33 28L34 28L34 29L33 29L33 30L32 30L32 32L31 32L31 35L30 35L30 33L29 33L29 36L31 36L31 35L32 35L32 32L34 32L34 31L33 31L33 30L34 30L34 29L36 29L36 28L35 28L35 27L36 27L36 26ZM44 29L44 30L45 30L45 29ZM48 29L48 30L49 30L49 29ZM67 29L67 30L69 30L69 29ZM9 30L9 32L10 32L10 30ZM15 30L15 31L16 31L16 30ZM21 30L21 31L22 31L22 30ZM23 31L23 33L24 33L24 34L25 34L25 33L24 33L24 31ZM37 31L37 33L38 33L38 34L37 34L37 36L38 36L38 37L36 37L36 38L38 38L38 39L37 39L37 40L39 40L39 39L41 39L41 40L44 40L44 42L43 42L43 43L44 43L44 42L45 42L45 43L46 43L46 42L47 42L47 40L45 40L45 39L42 39L42 38L41 38L41 37L42 37L42 36L40 36L40 33L43 33L43 34L41 34L41 35L43 35L43 36L44 36L44 37L45 37L45 36L44 36L44 33L43 33L43 32L39 32L39 33L38 33L38 31ZM52 31L52 32L50 32L50 33L52 33L52 32L53 32L53 31ZM66 32L66 33L65 33L65 35L67 35L67 36L68 36L68 35L67 35L67 34L68 34L68 33L67 33L67 32ZM5 33L5 36L8 36L8 33ZM33 33L33 36L36 36L36 33ZM61 33L61 36L64 36L64 33ZM6 34L6 35L7 35L7 34ZM19 34L19 35L20 35L20 34ZM34 34L34 35L35 35L35 34ZM38 34L38 35L39 35L39 34ZM62 34L62 35L63 35L63 34ZM51 37L51 38L52 38L52 37ZM0 38L0 39L1 39L1 38ZM31 39L31 41L30 41L30 42L29 42L29 43L30 43L30 42L32 42L32 41L33 41L33 40L32 40L32 39ZM52 39L52 40L53 40L53 39ZM24 40L24 41L23 41L23 42L24 42L24 41L26 41L26 40ZM65 40L65 41L67 41L67 40ZM36 41L36 43L37 43L37 41ZM6 42L6 43L7 43L7 44L10 44L10 43L8 43L8 42ZM33 42L33 43L34 43L34 42ZM48 42L48 44L50 44L50 43L49 43L49 42ZM15 43L15 44L16 44L16 43ZM18 43L18 44L19 44L19 43ZM21 43L21 44L22 44L22 43ZM40 43L40 44L41 44L41 43ZM12 44L12 45L13 45L13 44ZM43 44L43 45L45 45L45 44ZM57 44L57 45L58 45L58 44ZM9 45L9 46L10 46L10 45ZM41 45L41 46L42 46L42 45ZM60 46L60 48L59 48L59 49L58 49L58 50L57 50L57 51L58 51L58 50L59 50L59 49L60 49L60 48L62 48L62 47L63 47L63 46L62 46L62 47L61 47L61 46ZM4 47L4 48L5 48L5 47ZM6 47L6 48L8 48L8 47ZM25 47L25 48L24 48L24 49L22 49L22 51L23 51L23 50L26 50L26 49L25 49L25 48L26 48L26 47ZM47 47L47 48L48 48L48 49L47 49L47 51L46 51L46 52L45 52L45 53L49 53L49 54L50 54L50 51L51 51L51 52L52 52L52 51L51 51L51 50L49 50L49 48L48 48L48 47ZM14 49L14 51L15 51L15 52L14 52L14 53L13 53L13 52L12 52L12 53L13 53L13 54L14 54L14 56L12 56L12 57L13 57L13 58L14 58L14 56L15 56L15 57L16 57L16 53L17 53L17 54L18 54L18 53L19 53L19 54L20 54L20 52L21 52L21 49L18 49L18 50L17 50L17 51L18 51L18 53L17 53L17 52L16 52L16 49ZM27 49L27 50L28 50L28 49ZM6 50L6 51L8 51L8 50ZM9 50L9 52L10 52L10 53L11 53L11 52L10 52L10 51L12 51L12 50ZM18 50L18 51L20 51L20 50ZM48 50L48 51L47 51L47 52L49 52L49 50ZM27 51L27 52L28 52L28 51ZM15 52L15 53L16 53L16 52ZM36 52L36 53L38 53L38 52ZM62 52L62 53L63 53L63 52ZM26 53L26 54L27 54L27 53ZM52 53L52 55L53 55L53 56L54 56L54 54L53 54L53 53ZM9 54L9 55L7 55L7 56L8 56L8 57L9 57L9 56L10 56L10 57L11 57L11 56L10 56L10 54ZM11 54L11 55L12 55L12 54ZM47 54L47 55L48 55L48 54ZM57 54L57 57L58 57L58 55L59 55L59 54ZM50 55L50 57L51 57L51 55ZM3 56L3 57L1 57L1 58L0 58L0 61L1 61L1 58L2 58L2 59L3 59L3 57L4 57L4 56ZM60 56L60 57L59 57L59 58L57 58L57 59L60 59L60 58L61 58L61 59L62 59L62 58L63 58L63 57L62 57L62 58L61 58L61 56ZM22 57L22 58L24 58L24 57ZM33 57L33 58L34 58L34 57ZM45 58L45 59L46 59L46 58ZM54 58L54 59L55 59L55 58ZM3 60L3 61L5 61L5 60ZM24 60L24 61L25 61L25 60ZM41 60L41 62L42 62L42 63L43 63L43 61L44 61L44 60L43 60L43 61L42 61L42 60ZM45 60L45 61L47 61L47 62L46 62L46 63L47 63L47 62L50 62L50 61L51 61L51 60L50 60L50 61L49 61L49 60ZM65 60L65 61L67 61L67 60ZM33 61L33 64L36 64L36 61ZM61 61L61 64L64 64L64 61ZM34 62L34 63L35 63L35 62ZM62 62L62 63L63 63L63 62ZM65 62L65 63L66 63L66 62ZM25 63L25 64L26 64L26 63ZM44 63L44 64L45 64L45 66L46 66L46 64L45 64L45 63ZM54 63L54 64L55 64L55 63ZM68 63L68 65L69 65L69 63ZM11 64L11 67L12 67L12 68L13 68L13 67L14 67L14 66L15 66L15 65L16 65L16 64L15 64L15 65L14 65L14 64L13 64L13 66L12 66L12 64ZM17 64L17 65L18 65L18 64ZM58 64L58 66L60 66L60 65L59 65L59 64ZM31 65L31 66L32 66L32 65ZM61 65L61 66L63 66L63 67L65 67L65 66L64 66L64 65ZM23 67L23 68L24 68L24 67ZM29 67L29 68L30 68L30 67ZM16 68L16 69L19 69L19 68ZM33 68L33 69L34 69L34 68ZM0 0L0 7L7 7L7 0ZM1 1L1 6L6 6L6 1ZM2 2L2 5L5 5L5 2ZM62 0L62 7L69 7L69 0ZM63 1L63 6L68 6L68 1ZM64 2L64 5L67 5L67 2ZM0 62L0 69L7 69L7 62ZM1 63L1 68L6 68L6 63ZM2 64L2 67L5 67L5 64Z" fill="#000000"/></g></g></svg>
