<?xml version="1.0" encoding="UTF-8"?>
<svg xmlns="http://www.w3.org/2000/svg" version="1.1" width="300" height="300" viewBox="0 0 300 300"><rect x="0" y="0" width="300" height="300" fill="#ffffff"/><g transform="scale(4.348)"><g transform="translate(0,0)"><path fill-rule="evenodd" d="M9 0L9 1L8 1L8 2L9 2L9 3L8 3L8 4L9 4L9 3L10 3L10 2L11 2L11 3L13 3L13 2L16 2L16 3L14 3L14 4L11 4L11 6L10 6L10 7L11 7L11 6L12 6L12 7L13 7L13 8L14 8L14 9L13 9L13 11L8 11L8 10L5 10L5 12L4 12L4 11L3 11L3 10L4 10L4 9L5 9L5 8L0 8L0 12L1 12L1 9L2 9L2 13L1 13L1 16L2 16L2 18L1 18L1 19L2 19L2 20L0 20L0 21L2 21L2 22L1 22L1 24L0 24L0 26L1 26L1 28L6 28L6 29L7 29L7 28L8 28L8 27L7 27L7 26L9 26L9 29L8 29L8 30L9 30L9 31L8 31L8 32L4 32L4 33L3 33L3 32L2 32L2 31L0 31L0 35L1 35L1 34L3 34L3 36L0 36L0 38L1 38L1 40L0 40L0 44L1 44L1 46L0 46L0 47L2 47L2 49L4 49L4 50L5 50L5 53L4 53L4 52L1 52L1 53L0 53L0 61L1 61L1 58L2 58L2 59L3 59L3 58L4 58L4 59L7 59L7 58L8 58L8 59L9 59L9 58L10 58L10 59L12 59L12 58L14 58L14 57L16 57L16 58L15 58L15 59L14 59L14 60L13 60L13 61L12 61L12 62L11 62L11 65L12 65L12 64L13 64L13 63L14 63L14 65L13 65L13 66L12 66L12 67L11 67L11 66L10 66L10 65L9 65L9 64L10 64L10 61L11 61L11 60L8 60L8 63L9 63L9 64L8 64L8 69L9 69L9 66L10 66L10 67L11 67L11 69L12 69L12 67L14 67L14 68L13 68L13 69L14 69L14 68L16 68L16 69L22 69L22 68L23 68L23 67L24 67L24 68L25 68L25 69L26 69L26 68L27 68L27 69L32 69L32 68L33 68L33 69L35 69L35 68L36 68L36 69L38 69L38 68L37 68L37 66L38 66L38 67L39 67L39 66L38 66L38 65L39 65L39 64L41 64L41 66L40 66L40 67L41 67L41 68L42 68L42 69L44 69L44 68L47 68L47 69L49 69L49 68L51 68L51 67L50 67L50 63L47 63L47 62L50 62L50 61L51 61L51 64L52 64L52 63L53 63L53 62L56 62L56 63L54 63L54 64L53 64L53 66L56 66L56 67L55 67L55 68L54 68L54 69L56 69L56 68L57 68L57 69L58 69L58 68L59 68L59 67L60 67L60 68L62 68L62 65L63 65L63 66L65 66L65 64L67 64L67 65L68 65L68 64L67 64L67 62L69 62L69 61L65 61L65 60L67 60L67 59L68 59L68 60L69 60L69 59L68 59L68 55L67 55L67 54L69 54L69 53L65 53L65 55L61 55L61 54L62 54L62 53L61 53L61 52L60 52L60 51L62 51L62 52L63 52L63 53L64 53L64 51L65 51L65 52L68 52L68 50L69 50L69 49L65 49L65 50L64 50L64 51L62 51L62 50L63 50L63 48L68 48L68 44L69 44L69 43L68 43L68 42L67 42L67 43L66 43L66 42L65 42L65 43L62 43L62 42L63 42L63 41L61 41L61 40L62 40L62 37L63 37L63 38L64 38L64 37L65 37L65 38L66 38L66 37L65 37L65 36L67 36L67 37L68 37L68 36L69 36L69 35L68 35L68 34L69 34L69 33L68 33L68 32L69 32L69 31L68 31L68 30L69 30L69 28L68 28L68 29L67 29L67 31L64 31L64 32L63 32L63 31L62 31L62 29L63 29L63 28L64 28L64 27L65 27L65 28L67 28L67 27L68 27L68 26L67 26L67 25L69 25L69 24L68 24L68 22L66 22L66 21L64 21L64 22L65 22L65 23L63 23L63 24L62 24L62 25L61 25L61 24L60 24L60 23L62 23L62 21L63 21L63 20L62 20L62 21L61 21L61 19L59 19L59 18L62 18L62 19L63 19L63 18L66 18L66 19L65 19L65 20L67 20L67 21L68 21L68 18L69 18L69 17L68 17L68 16L69 16L69 15L68 15L68 14L69 14L69 13L68 13L68 12L69 12L69 11L68 11L68 10L67 10L67 9L68 9L68 8L67 8L67 9L66 9L66 8L65 8L65 9L64 9L64 8L63 8L63 10L64 10L64 12L63 12L63 11L62 11L62 13L60 13L60 12L61 12L61 10L62 10L62 8L61 8L61 6L60 6L60 7L59 7L59 4L57 4L57 5L56 5L56 3L59 3L59 2L58 2L58 1L61 1L61 0L58 0L58 1L57 1L57 0L56 0L56 1L55 1L55 0L53 0L53 1L52 1L52 0L51 0L51 1L50 1L50 0L48 0L48 1L47 1L47 2L49 2L49 1L50 1L50 2L51 2L51 3L50 3L50 4L49 4L49 3L47 3L47 4L48 4L48 5L47 5L47 6L46 6L46 5L44 5L44 3L45 3L45 4L46 4L46 3L45 3L45 2L46 2L46 1L45 1L45 0L44 0L44 1L45 1L45 2L44 2L44 3L43 3L43 0L41 0L41 1L38 1L38 0L37 0L37 1L36 1L36 0L34 0L34 1L33 1L33 2L31 2L31 1L32 1L32 0L31 0L31 1L30 1L30 0L28 0L28 1L25 1L25 0L23 0L23 1L25 1L25 2L28 2L28 3L27 3L27 4L25 4L25 3L23 3L23 2L21 2L21 3L20 3L20 4L19 4L19 2L20 2L20 1L19 1L19 0L17 0L17 2L16 2L16 1L14 1L14 0L13 0L13 2L11 2L11 0ZM21 0L21 1L22 1L22 0ZM41 1L41 2L42 2L42 1ZM53 1L53 2L52 2L52 3L51 3L51 4L50 4L50 6L49 6L49 7L50 7L50 8L49 8L49 9L50 9L50 10L47 10L47 7L48 7L48 6L47 6L47 7L46 7L46 6L45 6L45 7L44 7L44 5L43 5L43 7L42 7L42 6L41 6L41 5L40 5L40 6L39 6L39 4L43 4L43 3L39 3L39 2L37 2L37 3L38 3L38 4L37 4L37 5L38 5L38 6L37 6L37 8L38 8L38 9L37 9L37 10L36 10L36 9L34 9L34 10L36 10L36 11L33 11L33 9L32 9L32 5L31 5L31 4L29 4L29 3L30 3L30 2L29 2L29 3L28 3L28 4L27 4L27 8L26 8L26 9L24 9L24 6L25 6L25 7L26 7L26 6L25 6L25 5L24 5L24 6L23 6L23 5L22 5L22 6L21 6L21 8L20 8L20 10L19 10L19 9L17 9L17 8L16 8L16 9L14 9L14 10L15 10L15 11L13 11L13 12L12 12L12 13L13 13L13 14L14 14L14 13L15 13L15 14L16 14L16 13L15 13L15 12L18 12L18 11L19 11L19 12L20 12L20 16L19 16L19 14L18 14L18 15L16 15L16 16L18 16L18 17L16 17L16 20L14 20L14 19L15 19L15 18L14 18L14 19L13 19L13 20L14 20L14 21L13 21L13 22L12 22L12 23L11 23L11 25L10 25L10 24L9 24L9 26L12 26L12 27L15 27L15 28L12 28L12 30L10 30L10 31L9 31L9 33L10 33L10 32L11 32L11 33L12 33L12 34L10 34L10 35L9 35L9 37L6 37L6 38L7 38L7 39L5 39L5 37L4 37L4 36L3 36L3 37L1 37L1 38L3 38L3 37L4 37L4 39L5 39L5 41L6 41L6 42L4 42L4 40L3 40L3 42L4 42L4 43L2 43L2 44L4 44L4 45L6 45L6 46L7 46L7 47L5 47L5 49L6 49L6 50L7 50L7 49L8 49L8 48L10 48L10 49L9 49L9 50L8 50L8 51L9 51L9 52L7 52L7 51L6 51L6 52L7 52L7 53L5 53L5 54L4 54L4 53L2 53L2 54L1 54L1 55L3 55L3 56L2 56L2 57L3 57L3 56L4 56L4 57L5 57L5 58L7 58L7 57L10 57L10 58L11 58L11 54L13 54L13 56L14 56L14 54L16 54L16 55L15 55L15 56L16 56L16 57L17 57L17 60L16 60L16 59L15 59L15 60L16 60L16 61L14 61L14 62L17 62L17 63L18 63L18 62L19 62L19 61L17 61L17 60L19 60L19 59L20 59L20 60L21 60L21 57L22 57L22 59L23 59L23 60L22 60L22 61L20 61L20 62L22 62L22 61L23 61L23 62L24 62L24 61L25 61L25 62L29 62L29 64L28 64L28 65L25 65L25 66L24 66L24 67L25 67L25 68L26 68L26 67L27 67L27 68L28 68L28 67L27 67L27 66L28 66L28 65L30 65L30 66L29 66L29 68L32 68L32 67L31 67L31 66L32 66L32 65L30 65L30 64L31 64L31 63L32 63L32 60L33 60L33 59L32 59L32 58L31 58L31 62L29 62L29 61L27 61L27 60L26 60L26 58L25 58L25 60L24 60L24 59L23 59L23 58L24 58L24 57L22 57L22 56L21 56L21 55L22 55L22 54L21 54L21 53L23 53L23 52L24 52L24 53L25 53L25 52L26 52L26 54L24 54L24 55L23 55L23 56L25 56L25 57L27 57L27 58L28 58L28 60L29 60L29 59L30 59L30 58L29 58L29 57L30 57L30 56L29 56L29 57L27 57L27 55L28 55L28 54L29 54L29 55L30 55L30 54L31 54L31 57L35 57L35 58L36 58L36 59L35 59L35 60L36 60L36 59L39 59L39 57L41 57L41 56L39 56L39 57L38 57L38 56L37 56L37 57L38 57L38 58L36 58L36 57L35 57L35 55L36 55L36 54L37 54L37 55L39 55L39 54L40 54L40 55L41 55L41 54L40 54L40 53L43 53L43 54L42 54L42 55L43 55L43 56L42 56L42 57L43 57L43 59L44 59L44 62L43 62L43 63L42 63L42 62L41 62L41 60L42 60L42 61L43 61L43 60L42 60L42 58L41 58L41 59L40 59L40 62L39 62L39 60L38 60L38 62L37 62L37 63L38 63L38 64L37 64L37 65L36 65L36 66L37 66L37 65L38 65L38 64L39 64L39 63L41 63L41 64L44 64L44 66L41 66L41 67L43 67L43 68L44 68L44 66L45 66L45 67L46 67L46 66L48 66L48 65L47 65L47 63L46 63L46 62L47 62L47 60L49 60L49 61L50 61L50 59L52 59L52 60L51 60L51 61L52 61L52 62L53 62L53 59L54 59L54 58L53 58L53 57L54 57L54 55L56 55L56 58L55 58L55 60L54 60L54 61L55 61L55 60L56 60L56 62L57 62L57 63L58 63L58 62L59 62L59 65L57 65L57 64L55 64L55 65L56 65L56 66L60 66L60 60L61 60L61 58L60 58L60 56L61 56L61 55L60 55L60 54L61 54L61 53L60 53L60 52L59 52L59 49L60 49L60 50L62 50L62 47L64 47L64 46L65 46L65 47L66 47L66 45L65 45L65 44L64 44L64 45L63 45L63 44L62 44L62 43L61 43L61 41L60 41L60 40L61 40L61 39L60 39L60 38L59 38L59 36L60 36L60 35L59 35L59 33L57 33L57 32L55 32L55 33L57 33L57 34L56 34L56 39L55 39L55 40L56 40L56 41L57 41L57 42L56 42L56 43L55 43L55 42L54 42L54 43L55 43L55 44L53 44L53 42L52 42L52 43L50 43L50 42L51 42L51 41L53 41L53 40L51 40L51 39L54 39L54 38L53 38L53 37L54 37L54 36L53 36L53 35L54 35L54 34L53 34L53 33L54 33L54 32L51 32L51 29L50 29L50 27L48 27L48 26L51 26L51 28L52 28L52 29L54 29L54 28L55 28L55 27L53 27L53 28L52 28L52 26L53 26L53 23L54 23L54 22L51 22L51 21L53 21L53 20L51 20L51 18L52 18L52 17L54 17L54 16L55 16L55 15L56 15L56 19L55 19L55 18L53 18L53 19L54 19L54 21L55 21L55 20L56 20L56 21L57 21L57 22L56 22L56 23L57 23L57 24L54 24L54 25L58 25L58 26L56 26L56 29L58 29L58 30L56 30L56 31L58 31L58 32L59 32L59 31L60 31L60 30L59 30L59 29L60 29L60 28L58 28L58 26L59 26L59 25L60 25L60 24L59 24L59 23L57 23L57 22L59 22L59 21L57 21L57 20L56 20L56 19L57 19L57 18L59 18L59 17L58 17L58 16L62 16L62 18L63 18L63 17L66 17L66 16L65 16L65 15L64 15L64 14L68 14L68 13L65 13L65 12L64 12L64 13L62 13L62 15L59 15L59 12L55 12L55 11L59 11L59 10L60 10L60 9L61 9L61 8L60 8L60 9L57 9L57 7L58 7L58 8L59 8L59 7L58 7L58 6L57 6L57 7L56 7L56 6L55 6L55 8L54 8L54 5L53 5L53 3L54 3L54 4L55 4L55 3L54 3L54 2L55 2L55 1ZM56 1L56 2L57 2L57 1ZM33 2L33 3L32 3L32 4L35 4L35 3L36 3L36 2ZM21 3L21 4L20 4L20 5L19 5L19 4L18 4L18 5L19 5L19 7L20 7L20 5L21 5L21 4L23 4L23 3ZM60 3L60 5L61 5L61 3ZM14 4L14 6L13 6L13 7L14 7L14 8L15 8L15 7L16 7L16 6L15 6L15 4ZM51 4L51 6L50 6L50 7L51 7L51 8L52 8L52 7L53 7L53 5L52 5L52 4ZM8 5L8 7L9 7L9 5ZM28 5L28 7L29 7L29 6L30 6L30 7L31 7L31 6L30 6L30 5ZM33 5L33 8L36 8L36 5ZM14 6L14 7L15 7L15 6ZM17 6L17 7L18 7L18 6ZM22 6L22 7L23 7L23 6ZM34 6L34 7L35 7L35 6ZM38 6L38 8L39 8L39 6ZM40 6L40 8L41 8L41 6ZM51 6L51 7L52 7L52 6ZM45 7L45 9L44 9L44 8L43 8L43 9L39 9L39 10L37 10L37 12L38 12L38 11L39 11L39 12L40 12L40 13L39 13L39 14L38 14L38 13L36 13L36 12L33 12L33 14L34 14L34 13L36 13L36 14L35 14L35 15L37 15L37 17L36 17L36 18L35 18L35 17L33 17L33 16L34 16L34 15L33 15L33 16L32 16L32 15L31 15L31 13L32 13L32 12L29 12L29 11L28 11L28 10L27 10L27 9L28 9L28 8L27 8L27 9L26 9L26 10L25 10L25 12L24 12L24 11L23 11L23 10L24 10L24 9L23 9L23 10L21 10L21 12L22 12L22 11L23 11L23 14L22 14L22 13L21 13L21 14L22 14L22 16L23 16L23 18L22 18L22 17L18 17L18 18L20 18L20 19L18 19L18 20L17 20L17 21L14 21L14 22L13 22L13 23L14 23L14 22L15 22L15 25L16 25L16 26L15 26L15 27L16 27L16 28L15 28L15 29L14 29L14 30L13 30L13 32L12 32L12 33L13 33L13 35L14 35L14 34L15 34L15 35L17 35L17 37L18 37L18 38L20 38L20 39L17 39L17 40L18 40L18 41L17 41L17 43L18 43L18 44L17 44L17 46L16 46L16 48L15 48L15 47L13 47L13 46L15 46L15 45L16 45L16 43L14 43L14 45L13 45L13 44L12 44L12 42L11 42L11 43L9 43L9 44L6 44L6 45L9 45L9 46L8 46L8 47L9 47L9 46L12 46L12 49L10 49L10 50L9 50L9 51L10 51L10 52L9 52L9 53L8 53L8 55L7 55L7 54L5 54L5 56L6 56L6 57L7 57L7 56L8 56L8 55L10 55L10 54L9 54L9 53L10 53L10 52L11 52L11 50L12 50L12 49L13 49L13 51L12 51L12 52L13 52L13 51L14 51L14 52L15 52L15 53L17 53L17 55L18 55L18 56L17 56L17 57L19 57L19 58L20 58L20 53L19 53L19 52L22 52L22 51L21 51L21 49L18 49L18 48L17 48L17 47L18 47L18 46L19 46L19 45L21 45L21 44L23 44L23 46L22 46L22 47L21 47L21 48L24 48L24 49L22 49L22 50L26 50L26 51L27 51L27 52L28 52L28 53L29 53L29 54L30 54L30 53L31 53L31 52L32 52L32 51L34 51L34 50L36 50L36 51L35 51L35 54L34 54L34 55L33 55L33 53L34 53L34 52L33 52L33 53L32 53L32 56L34 56L34 55L35 55L35 54L36 54L36 53L37 53L37 54L39 54L39 53L40 53L40 52L43 52L43 53L44 53L44 56L43 56L43 57L44 57L44 56L46 56L46 57L47 57L47 58L48 58L48 59L49 59L49 58L50 58L50 57L51 57L51 58L52 58L52 59L53 59L53 58L52 58L52 57L51 57L51 56L52 56L52 55L54 55L54 54L55 54L55 52L57 52L57 53L59 53L59 52L58 52L58 51L55 51L55 49L56 49L56 48L57 48L57 45L59 45L59 44L58 44L58 42L57 42L57 45L56 45L56 44L55 44L55 45L52 45L52 46L50 46L50 45L51 45L51 44L50 44L50 45L49 45L49 44L48 44L48 43L49 43L49 42L50 42L50 41L49 41L49 40L47 40L47 38L48 38L48 39L49 39L49 38L50 38L50 39L51 39L51 38L52 38L52 37L51 37L51 36L52 36L52 34L51 34L51 36L48 36L48 35L50 35L50 29L49 29L49 28L46 28L46 26L43 26L43 25L44 25L44 24L43 24L43 23L41 23L41 22L44 22L44 23L45 23L45 24L46 24L46 25L47 25L47 26L48 26L48 25L51 25L51 26L52 26L52 25L51 25L51 22L50 22L50 21L49 21L49 20L50 20L50 17L49 17L49 16L50 16L50 15L52 15L52 16L54 16L54 15L55 15L55 14L56 14L56 13L55 13L55 12L54 12L54 13L52 13L52 14L50 14L50 13L51 13L51 11L55 11L55 10L56 10L56 8L55 8L55 9L51 9L51 10L50 10L50 11L49 11L49 12L47 12L47 11L45 11L45 13L44 13L44 11L43 11L43 13L42 13L42 14L41 14L41 12L42 12L42 10L45 10L45 9L46 9L46 7ZM6 8L6 9L10 9L10 10L12 10L12 8L11 8L11 9L10 9L10 8ZM21 8L21 9L22 9L22 8ZM29 8L29 9L30 9L30 11L32 11L32 10L31 10L31 9L30 9L30 8ZM16 9L16 10L17 10L17 9ZM26 10L26 12L25 12L25 13L27 13L27 14L25 14L25 15L26 15L26 16L25 16L25 17L26 17L26 18L23 18L23 20L22 20L22 19L21 19L21 20L19 20L19 21L20 21L20 22L16 22L16 23L17 23L17 24L16 24L16 25L17 25L17 28L16 28L16 29L15 29L15 30L14 30L14 31L15 31L15 33L16 33L16 34L17 34L17 35L19 35L19 36L21 36L21 37L20 37L20 38L22 38L22 39L21 39L21 40L20 40L20 44L21 44L21 43L22 43L22 42L23 42L23 43L24 43L24 44L25 44L25 43L26 43L26 45L27 45L27 46L25 46L25 47L26 47L26 48L25 48L25 49L26 49L26 50L27 50L27 51L28 51L28 52L31 52L31 51L32 51L32 50L33 50L33 49L36 49L36 50L37 50L37 49L38 49L38 51L39 51L39 52L40 52L40 51L39 51L39 50L41 50L41 51L42 51L42 50L41 50L41 49L42 49L42 48L43 48L43 47L44 47L44 49L43 49L43 50L44 50L44 49L45 49L45 52L44 52L44 51L43 51L43 52L44 52L44 53L45 53L45 54L46 54L46 56L48 56L48 55L49 55L49 57L48 57L48 58L49 58L49 57L50 57L50 56L51 56L51 55L50 55L50 54L53 54L53 51L52 51L52 50L53 50L53 48L52 48L52 47L50 47L50 46L47 46L47 44L46 44L46 45L45 45L45 44L44 44L44 42L45 42L45 43L46 43L46 42L47 42L47 40L45 40L45 39L42 39L42 38L41 38L41 36L42 36L42 37L43 37L43 36L44 36L44 37L45 37L45 38L47 38L47 37L48 37L48 38L49 38L49 37L48 37L48 36L47 36L47 35L48 35L48 34L49 34L49 33L45 33L45 32L44 32L44 31L43 31L43 30L44 30L44 29L45 29L45 30L46 30L46 32L49 32L49 31L47 31L47 29L46 29L46 28L45 28L45 27L43 27L43 28L44 28L44 29L43 29L43 30L42 30L42 27L39 27L39 28L40 28L40 29L38 29L38 28L37 28L37 29L36 29L36 28L35 28L35 27L36 27L36 26L34 26L34 25L35 25L35 23L31 23L31 24L33 24L33 26L31 26L31 27L29 27L29 25L30 25L30 24L29 24L29 25L27 25L27 22L29 22L29 23L30 23L30 22L31 22L31 21L29 21L29 20L30 20L30 19L32 19L32 22L35 22L35 20L36 20L36 21L38 21L38 20L36 20L36 19L32 19L32 18L29 18L29 16L31 16L31 15L30 15L30 13L29 13L29 12L28 12L28 11L27 11L27 10ZM39 10L39 11L40 11L40 12L41 12L41 11L40 11L40 10ZM66 10L66 11L67 11L67 12L68 12L68 11L67 11L67 10ZM6 11L6 12L7 12L7 13L4 13L4 14L7 14L7 15L6 15L6 16L7 16L7 17L6 17L6 18L7 18L7 19L4 19L4 18L5 18L5 15L3 15L3 14L2 14L2 15L3 15L3 21L4 21L4 20L9 20L9 21L6 21L6 22L5 22L5 25L3 25L3 24L4 24L4 23L3 23L3 24L1 24L1 25L2 25L2 26L5 26L5 27L6 27L6 28L7 28L7 27L6 27L6 26L7 26L7 25L6 25L6 24L8 24L8 23L9 23L9 21L12 21L12 18L13 18L13 16L14 16L14 17L15 17L15 16L14 16L14 15L11 15L11 16L9 16L9 17L8 17L8 16L7 16L7 15L10 15L10 14L11 14L11 13L10 13L10 12L9 12L9 13L8 13L8 11ZM27 12L27 13L28 13L28 12ZM49 12L49 13L50 13L50 12ZM7 13L7 14L8 14L8 13ZM9 13L9 14L10 14L10 13ZM43 13L43 14L42 14L42 15L40 15L40 14L39 14L39 15L38 15L38 14L37 14L37 15L38 15L38 16L39 16L39 17L38 17L38 18L37 18L37 19L39 19L39 22L37 22L37 23L36 23L36 25L37 25L37 26L41 26L41 25L42 25L42 24L41 24L41 23L40 23L40 24L38 24L38 23L39 23L39 22L40 22L40 21L41 21L41 20L42 20L42 21L43 21L43 20L44 20L44 22L46 22L46 24L47 24L47 25L48 25L48 24L50 24L50 22L49 22L49 23L48 23L48 21L46 21L46 20L47 20L47 19L48 19L48 20L49 20L49 19L48 19L48 18L47 18L47 17L45 17L45 16L44 16L44 13ZM45 13L45 14L47 14L47 16L48 16L48 15L50 15L50 14L47 14L47 13ZM23 14L23 15L24 15L24 14ZM27 14L27 15L28 15L28 14ZM52 14L52 15L54 15L54 14ZM57 14L57 16L58 16L58 14ZM39 15L39 16L40 16L40 15ZM62 15L62 16L64 16L64 15ZM11 16L11 17L9 17L9 18L8 18L8 17L7 17L7 18L8 18L8 19L9 19L9 18L11 18L11 17L12 17L12 16ZM42 16L42 17L41 17L41 18L39 18L39 19L40 19L40 20L41 20L41 19L42 19L42 20L43 20L43 17L44 17L44 16ZM27 17L27 18L28 18L28 17ZM44 18L44 19L45 19L45 18ZM10 19L10 20L11 20L11 19ZM26 19L26 20L23 20L23 22L22 22L22 21L21 21L21 22L20 22L20 24L17 24L17 25L18 25L18 26L19 26L19 25L21 25L21 26L20 26L20 28L17 28L17 29L18 29L18 31L17 31L17 32L16 32L16 33L17 33L17 34L19 34L19 35L20 35L20 34L19 34L19 33L20 33L20 32L19 32L19 31L20 31L20 28L23 28L23 30L22 30L22 29L21 29L21 32L22 32L22 31L26 31L26 32L24 32L24 33L23 33L23 34L22 34L22 33L21 33L21 34L22 34L22 35L23 35L23 38L24 38L24 39L25 39L25 38L26 38L26 39L27 39L27 40L28 40L28 41L27 41L27 42L26 42L26 43L27 43L27 45L28 45L28 43L30 43L30 44L29 44L29 46L30 46L30 47L28 47L28 48L29 48L29 49L30 49L30 50L29 50L29 51L30 51L30 50L32 50L32 49L33 49L33 48L36 48L36 47L37 47L37 46L38 46L38 47L39 47L39 48L38 48L38 49L39 49L39 48L40 48L40 47L41 47L41 48L42 48L42 46L44 46L44 44L43 44L43 42L44 42L44 40L41 40L41 39L40 39L40 38L39 38L39 40L41 40L41 41L40 41L40 43L39 43L39 44L38 44L38 45L37 45L37 43L33 43L33 42L34 42L34 41L32 41L32 40L35 40L35 42L38 42L38 41L37 41L37 39L38 39L38 38L37 38L37 39L34 39L34 37L35 37L35 38L36 38L36 37L38 37L38 36L37 36L37 35L39 35L39 36L41 36L41 34L43 34L43 33L44 33L44 36L45 36L45 37L47 37L47 36L45 36L45 33L44 33L44 32L43 32L43 31L40 31L40 30L39 30L39 31L38 31L38 29L37 29L37 30L35 30L35 29L34 29L34 28L33 28L33 27L34 27L34 26L33 26L33 27L31 27L31 28L28 28L28 26L27 26L27 27L25 27L25 26L26 26L26 20L28 20L28 19ZM6 22L6 23L7 23L7 22ZM21 22L21 23L22 23L22 22ZM23 22L23 24L25 24L25 22ZM47 23L47 24L48 24L48 23ZM21 24L21 25L22 25L22 27L23 27L23 28L24 28L24 27L23 27L23 26L24 26L24 25L22 25L22 24ZM63 24L63 25L62 25L62 26L63 26L63 27L62 27L62 28L63 28L63 27L64 27L64 26L65 26L65 27L67 27L67 26L66 26L66 24ZM5 25L5 26L6 26L6 25ZM12 25L12 26L13 26L13 25ZM26 28L26 30L27 30L27 31L30 31L30 32L28 32L28 33L25 33L25 34L23 34L23 35L25 35L25 34L26 34L26 37L27 37L27 39L29 39L29 40L30 40L30 41L28 41L28 42L27 42L27 43L28 43L28 42L30 42L30 43L32 43L32 44L33 44L33 45L31 45L31 49L32 49L32 48L33 48L33 47L34 47L34 46L35 46L35 47L36 47L36 46L37 46L37 45L35 45L35 44L33 44L33 43L32 43L32 42L30 42L30 41L31 41L31 39L32 39L32 35L31 35L31 34L32 34L32 32L34 32L34 31L33 31L33 30L34 30L34 29L33 29L33 30L31 30L31 29L32 29L32 28L31 28L31 29L28 29L28 28ZM3 29L3 30L4 30L4 31L7 31L7 30L4 30L4 29ZM27 29L27 30L28 30L28 29ZM48 29L48 30L49 30L49 29ZM64 29L64 30L65 30L65 29ZM15 30L15 31L16 31L16 30ZM30 30L30 31L31 31L31 32L30 32L30 33L28 33L28 34L27 34L27 35L28 35L28 36L29 36L29 37L30 37L30 38L29 38L29 39L30 39L30 38L31 38L31 36L29 36L29 34L30 34L30 33L31 33L31 32L32 32L32 31L31 31L31 30ZM52 30L52 31L53 31L53 30ZM58 30L58 31L59 31L59 30ZM35 31L35 32L37 32L37 31ZM67 31L67 32L66 32L66 33L65 33L65 35L67 35L67 36L68 36L68 35L67 35L67 34L68 34L68 33L67 33L67 32L68 32L68 31ZM13 32L13 33L14 33L14 32ZM17 32L17 33L18 33L18 32ZM38 32L38 33L37 33L37 34L39 34L39 35L40 35L40 33L43 33L43 32ZM5 33L5 36L8 36L8 33ZM33 33L33 36L36 36L36 33ZM61 33L61 36L64 36L64 33ZM6 34L6 35L7 35L7 34ZM34 34L34 35L35 35L35 34ZM57 34L57 36L58 36L58 34ZM62 34L62 35L63 35L63 34ZM11 35L11 37L9 37L9 39L7 39L7 40L6 40L6 41L7 41L7 40L9 40L9 41L12 41L12 39L13 39L13 38L15 38L15 36L14 36L14 37L13 37L13 36L12 36L12 35ZM12 37L12 38L13 38L13 37ZM50 37L50 38L51 38L51 37ZM67 38L67 39L63 39L63 40L64 40L64 41L68 41L68 40L67 40L67 39L68 39L68 38ZM10 39L10 40L11 40L11 39ZM15 39L15 40L16 40L16 39ZM57 39L57 40L58 40L58 39ZM13 40L13 41L14 41L14 42L16 42L16 41L14 41L14 40ZM21 40L21 41L22 41L22 40ZM24 40L24 41L23 41L23 42L24 42L24 41L26 41L26 40ZM18 41L18 42L19 42L19 41ZM48 41L48 42L49 42L49 41ZM59 41L59 42L60 42L60 41ZM6 42L6 43L7 43L7 42ZM4 43L4 44L5 44L5 43ZM40 43L40 44L39 44L39 45L38 45L38 46L39 46L39 47L40 47L40 46L39 46L39 45L40 45L40 44L41 44L41 43ZM9 44L9 45L12 45L12 44ZM60 44L60 45L61 45L61 44ZM2 45L2 47L3 47L3 45ZM41 45L41 46L42 46L42 45ZM32 46L32 47L33 47L33 46ZM61 46L61 47L62 47L62 46ZM45 47L45 49L46 49L46 47ZM47 47L47 49L49 49L49 48L50 48L50 49L51 49L51 50L48 50L48 51L49 51L49 52L47 52L47 51L46 51L46 52L45 52L45 53L47 53L47 54L50 54L50 52L51 52L51 50L52 50L52 48L50 48L50 47ZM54 47L54 49L55 49L55 48L56 48L56 47ZM6 48L6 49L7 49L7 48ZM13 48L13 49L15 49L15 50L14 50L14 51L15 51L15 52L17 52L17 53L18 53L18 54L19 54L19 53L18 53L18 51L20 51L20 50L18 50L18 49L17 49L17 48L16 48L16 49L15 49L15 48ZM27 49L27 50L28 50L28 49ZM1 50L1 51L3 51L3 50ZM17 50L17 51L18 51L18 50ZM65 50L65 51L66 51L66 50ZM54 51L54 52L55 52L55 51ZM37 52L37 53L38 53L38 52ZM57 54L57 56L58 56L58 57L59 57L59 55L58 55L58 54ZM6 55L6 56L7 56L7 55ZM25 55L25 56L26 56L26 55ZM65 55L65 56L63 56L63 57L62 57L62 59L63 59L63 58L65 58L65 59L67 59L67 56L66 56L66 55ZM65 56L65 57L66 57L66 56ZM45 58L45 59L46 59L46 58ZM57 59L57 60L58 60L58 59ZM3 60L3 61L5 61L5 60ZM6 60L6 61L7 61L7 60ZM23 60L23 61L24 61L24 60ZM25 60L25 61L26 61L26 60ZM33 61L33 64L36 64L36 61ZM61 61L61 64L64 64L64 61ZM34 62L34 63L35 63L35 62ZM38 62L38 63L39 63L39 62ZM44 62L44 64L45 64L45 66L46 66L46 64L45 64L45 62ZM62 62L62 63L63 63L63 62ZM65 62L65 63L66 63L66 62ZM19 63L19 64L20 64L20 65L19 65L19 66L20 66L20 67L19 67L19 68L22 68L22 67L21 67L21 66L23 66L23 64L24 64L24 63ZM25 63L25 64L26 64L26 63ZM16 64L16 65L14 65L14 66L17 66L17 67L16 67L16 68L18 68L18 66L17 66L17 65L18 65L18 64ZM33 65L33 67L34 67L34 66L35 66L35 65ZM25 66L25 67L26 67L26 66ZM66 66L66 67L65 67L65 69L68 69L68 68L67 68L67 66ZM63 68L63 69L64 69L64 68ZM0 0L0 7L7 7L7 0ZM1 1L1 6L6 6L6 1ZM2 2L2 5L5 5L5 2ZM62 0L62 7L69 7L69 0ZM63 1L63 6L68 6L68 1ZM64 2L64 5L67 5L67 2ZM0 62L0 69L7 69L7 62ZM1 63L1 68L6 68L6 63ZM2 64L2 67L5 67L5 64Z" fill="#000000"/></g></g></svg>
