<?xml version="1.0" encoding="UTF-8"?>
<svg xmlns="http://www.w3.org/2000/svg" version="1.1" width="300" height="300" viewBox="0 0 300 300"><rect x="0" y="0" width="300" height="300" fill="#ffffff"/><g transform="scale(4.348)"><g transform="translate(0,0)"><path fill-rule="evenodd" d="M9 0L9 1L10 1L10 3L8 3L8 5L9 5L9 6L8 6L8 7L9 7L9 9L10 9L10 10L9 10L9 11L10 11L10 10L11 10L11 12L9 12L9 15L8 15L8 14L5 14L5 15L7 15L7 16L5 16L5 17L4 17L4 18L3 18L3 17L2 17L2 22L1 22L1 23L2 23L2 22L4 22L4 20L5 20L5 19L8 19L8 20L6 20L6 21L5 21L5 22L6 22L6 23L4 23L4 24L3 24L3 25L2 25L2 24L0 24L0 25L1 25L1 26L3 26L3 25L7 25L7 24L8 24L8 26L5 26L5 27L4 27L4 28L3 28L3 27L2 27L2 29L4 29L4 30L5 30L5 27L8 27L8 26L9 26L9 29L7 29L7 28L6 28L6 29L7 29L7 30L6 30L6 31L5 31L5 32L4 32L4 35L3 35L3 32L2 32L2 33L0 33L0 34L1 34L1 35L0 35L0 36L2 36L2 35L3 35L3 37L5 37L5 38L4 38L4 41L5 41L5 39L7 39L7 40L6 40L6 41L8 41L8 42L10 42L10 43L11 43L11 42L13 42L13 43L12 43L12 44L11 44L11 45L10 45L10 48L11 48L11 49L10 49L10 50L8 50L8 49L9 49L9 48L8 48L8 49L7 49L7 48L6 48L6 47L9 47L9 45L8 45L8 46L6 46L6 45L7 45L7 44L6 44L6 43L7 43L7 42L6 42L6 43L5 43L5 42L4 42L4 43L3 43L3 42L1 42L1 43L0 43L0 45L1 45L1 46L0 46L0 47L1 47L1 49L0 49L0 50L1 50L1 51L0 51L0 53L1 53L1 55L3 55L3 56L2 56L2 57L3 57L3 58L2 58L2 59L3 59L3 58L4 58L4 59L7 59L7 60L6 60L6 61L7 61L7 60L8 60L8 64L10 64L10 65L9 65L9 66L10 66L10 67L8 67L8 69L10 69L10 67L13 67L13 66L11 66L11 63L10 63L10 62L9 62L9 60L8 60L8 58L9 58L9 59L10 59L10 58L9 58L9 57L10 57L10 56L11 56L11 58L12 58L12 59L11 59L11 60L10 60L10 61L11 61L11 62L12 62L12 63L13 63L13 62L12 62L12 61L13 61L13 60L12 60L12 59L14 59L14 68L13 68L13 69L14 69L14 68L16 68L16 67L17 67L17 66L18 66L18 68L17 68L17 69L21 69L21 68L22 68L22 67L23 67L23 68L25 68L25 69L26 69L26 68L27 68L27 69L32 69L32 68L31 68L31 65L32 65L32 66L33 66L33 67L34 67L34 65L36 65L36 66L37 66L37 65L39 65L39 66L40 66L40 65L39 65L39 63L38 63L38 59L41 59L41 58L42 58L42 60L44 60L44 61L41 61L41 60L39 60L39 61L41 61L41 62L42 62L42 63L45 63L45 65L46 65L46 64L47 64L47 65L49 65L49 66L48 66L48 68L47 68L47 67L46 67L46 68L47 68L47 69L49 69L49 68L50 68L50 67L51 67L51 68L52 68L52 67L51 67L51 66L53 66L53 65L51 65L51 66L50 66L50 65L49 65L49 63L48 63L48 64L47 64L47 63L46 63L46 58L47 58L47 59L48 59L48 58L51 58L51 60L50 60L50 59L49 59L49 60L48 60L48 61L47 61L47 62L50 62L50 61L51 61L51 60L52 60L52 62L54 62L54 63L53 63L53 64L55 64L55 65L54 65L54 66L55 66L55 65L56 65L56 64L57 64L57 66L56 66L56 67L57 67L57 69L61 69L61 68L62 68L62 69L63 69L63 68L62 68L62 67L61 67L61 65L63 65L63 66L64 66L64 67L65 67L65 69L68 69L68 68L67 68L67 67L69 67L69 66L67 66L67 65L66 65L66 66L64 66L64 65L65 65L65 64L69 64L69 63L67 63L67 62L69 62L69 60L67 60L67 59L68 59L68 58L69 58L69 56L68 56L68 55L69 55L69 53L67 53L67 52L69 52L69 51L68 51L68 50L69 50L69 48L67 48L67 47L68 47L68 46L67 46L67 45L68 45L68 44L69 44L69 42L68 42L68 43L67 43L67 42L66 42L66 41L65 41L65 40L67 40L67 39L68 39L68 38L67 38L67 35L68 35L68 37L69 37L69 35L68 35L68 34L66 34L66 35L65 35L65 33L66 33L66 32L67 32L67 33L69 33L69 32L67 32L67 31L66 31L66 30L65 30L65 29L63 29L63 27L64 27L64 26L66 26L66 27L65 27L65 28L67 28L67 29L68 29L68 31L69 31L69 29L68 29L68 28L67 28L67 27L68 27L68 25L67 25L67 24L68 24L68 22L69 22L69 21L68 21L68 19L69 19L69 15L68 15L68 14L69 14L69 11L68 11L68 10L69 10L69 9L68 9L68 10L67 10L67 9L66 9L66 8L64 8L64 9L65 9L65 10L66 10L66 11L64 11L64 10L63 10L63 9L60 9L60 8L59 8L59 9L58 9L58 7L59 7L59 4L58 4L58 5L56 5L56 4L57 4L57 3L59 3L59 2L58 2L58 1L61 1L61 0L58 0L58 1L57 1L57 0L56 0L56 1L55 1L55 0L54 0L54 1L55 1L55 3L56 3L56 4L54 4L54 3L51 3L51 2L50 2L50 4L49 4L49 2L48 2L48 1L49 1L49 0L46 0L46 1L47 1L47 2L48 2L48 3L46 3L46 4L49 4L49 6L48 6L48 7L47 7L47 6L46 6L46 7L47 7L47 9L46 9L46 8L45 8L45 10L49 10L49 11L50 11L50 13L51 13L51 14L49 14L49 12L48 12L48 13L47 13L47 11L46 11L46 12L45 12L45 11L44 11L44 13L45 13L45 15L46 15L46 13L47 13L47 14L49 14L49 16L45 16L45 17L48 17L48 19L47 19L47 20L46 20L46 19L45 19L45 20L46 20L46 21L44 21L44 20L43 20L43 19L44 19L44 18L43 18L43 17L44 17L44 16L42 16L42 17L41 17L41 18L42 18L42 19L40 19L40 17L39 17L39 18L38 18L38 17L37 17L37 18L36 18L36 17L35 17L35 18L34 18L34 19L33 19L33 20L32 20L32 19L30 19L30 18L33 18L33 17L32 17L32 16L33 16L33 15L30 15L30 16L29 16L29 14L30 14L30 13L31 13L31 11L32 11L32 10L33 10L33 12L32 12L32 13L34 13L34 11L36 11L36 10L39 10L39 11L40 11L40 9L38 9L38 7L39 7L39 6L40 6L40 7L41 7L41 6L42 6L42 7L43 7L43 5L44 5L44 7L45 7L45 5L44 5L44 4L45 4L45 2L44 2L44 3L43 3L43 4L41 4L41 3L36 3L36 2L39 2L39 0L37 0L37 1L36 1L36 2L35 2L35 3L33 3L33 4L31 4L31 0L29 0L29 1L28 1L28 3L27 3L27 2L26 2L26 1L27 1L27 0L24 0L24 1L25 1L25 2L24 2L24 3L25 3L25 4L23 4L23 3L22 3L22 5L23 5L23 6L22 6L22 7L21 7L21 5L20 5L20 4L19 4L19 2L20 2L20 1L21 1L21 2L23 2L23 0L22 0L22 1L21 1L21 0L18 0L18 1L19 1L19 2L18 2L18 3L17 3L17 2L16 2L16 1L17 1L17 0L15 0L15 1L12 1L12 2L11 2L11 1L10 1L10 0ZM32 0L32 1L33 1L33 2L34 2L34 1L35 1L35 0ZM40 0L40 2L41 2L41 0ZM42 0L42 2L43 2L43 1L44 1L44 0ZM50 0L50 1L52 1L52 0ZM12 2L12 4L13 4L13 2ZM14 2L14 3L15 3L15 2ZM25 2L25 3L26 3L26 2ZM29 2L29 3L30 3L30 2ZM10 3L10 4L9 4L9 5L10 5L10 6L9 6L9 7L10 7L10 6L11 6L11 7L12 7L12 8L11 8L11 10L12 10L12 12L13 12L13 13L10 13L10 18L8 18L8 19L10 19L10 18L13 18L13 19L14 19L14 18L13 18L13 17L15 17L15 16L18 16L18 17L16 17L16 19L15 19L15 21L14 21L14 22L18 22L18 23L20 23L20 24L21 24L21 25L20 25L20 27L21 27L21 26L24 26L24 23L25 23L25 25L26 25L26 26L27 26L27 25L26 25L26 23L30 23L30 22L31 22L31 23L32 23L32 24L33 24L33 26L31 26L31 27L32 27L32 28L31 28L31 29L32 29L32 28L33 28L33 29L35 29L35 30L34 30L34 31L36 31L36 30L37 30L37 31L38 31L38 30L39 30L39 27L38 27L38 28L37 28L37 29L36 29L36 28L33 28L33 27L36 27L36 26L34 26L34 24L35 24L35 25L36 25L36 23L34 23L34 22L32 22L32 21L30 21L30 22L27 22L27 21L29 21L29 19L28 19L28 18L30 18L30 17L29 17L29 16L25 16L25 15L28 15L28 14L29 14L29 13L28 13L28 12L30 12L30 11L29 11L29 10L30 10L30 9L31 9L31 8L32 8L32 5L30 5L30 4L25 4L25 5L24 5L24 6L23 6L23 7L22 7L22 9L24 9L24 10L23 10L23 11L24 11L24 12L25 12L25 14L22 14L22 10L21 10L21 13L20 13L20 12L19 12L19 13L20 13L20 14L22 14L22 15L21 15L21 16L20 16L20 15L19 15L19 14L18 14L18 12L15 12L15 9L16 9L16 8L17 8L17 7L18 7L18 8L19 8L19 7L20 7L20 5L19 5L19 4L14 4L14 5L11 5L11 3ZM35 3L35 4L36 4L36 3ZM60 3L60 5L61 5L61 3ZM37 4L37 5L38 5L38 6L37 6L37 7L38 7L38 6L39 6L39 5L40 5L40 6L41 6L41 4ZM50 4L50 6L49 6L49 9L52 9L52 11L51 11L51 10L50 10L50 11L51 11L51 13L52 13L52 19L53 19L53 17L55 17L55 18L56 18L56 19L54 19L54 20L56 20L56 21L55 21L55 22L54 22L54 24L53 24L53 22L50 22L50 23L48 23L48 22L49 22L49 21L47 21L47 22L46 22L46 23L44 23L44 22L43 22L43 26L45 26L45 25L46 25L46 28L45 28L45 27L44 27L44 29L43 29L43 30L42 30L42 27L41 27L41 28L40 28L40 30L42 30L42 31L43 31L43 32L40 32L40 31L39 31L39 32L38 32L38 33L40 33L40 34L39 34L39 35L38 35L38 34L37 34L37 37L32 37L32 36L31 36L31 35L32 35L32 33L31 33L31 34L29 34L29 32L31 32L31 30L29 30L29 28L30 28L30 26L29 26L29 25L28 25L28 27L29 27L29 28L26 28L26 29L25 29L25 28L24 28L24 27L22 27L22 28L21 28L21 29L20 29L20 28L19 28L19 26L18 26L18 24L17 24L17 26L18 26L18 28L19 28L19 29L20 29L20 31L19 31L19 32L20 32L20 33L19 33L19 34L20 34L20 35L18 35L18 34L16 34L16 32L14 32L14 33L11 33L11 32L12 32L12 31L13 31L13 29L16 29L16 30L14 30L14 31L16 31L16 30L18 30L18 29L17 29L17 27L16 27L16 28L15 28L15 26L14 26L14 28L13 28L13 27L12 27L12 28L11 28L11 27L10 27L10 28L11 28L11 29L10 29L10 30L11 30L11 32L9 32L9 30L7 30L7 31L6 31L6 32L9 32L9 33L11 33L11 34L9 34L9 35L10 35L10 36L11 36L11 34L14 34L14 33L15 33L15 34L16 34L16 35L13 35L13 36L12 36L12 38L11 38L11 39L10 39L10 38L9 38L9 39L8 39L8 38L7 38L7 37L6 37L6 38L7 38L7 39L8 39L8 40L9 40L9 41L10 41L10 42L11 42L11 41L12 41L12 40L14 40L14 41L13 41L13 42L14 42L14 43L15 43L15 44L14 44L14 45L11 45L11 46L12 46L12 47L11 47L11 48L14 48L14 49L15 49L15 50L13 50L13 51L16 51L16 52L15 52L15 53L14 53L14 54L13 54L13 52L12 52L12 50L10 50L10 51L6 51L6 50L7 50L7 49L6 49L6 50L5 50L5 47L6 47L6 46L4 46L4 44L5 44L5 43L4 43L4 44L3 44L3 43L1 43L1 45L2 45L2 44L3 44L3 48L2 48L2 49L1 49L1 50L3 50L3 48L4 48L4 50L5 50L5 51L6 51L6 52L5 52L5 53L4 53L4 54L5 54L5 53L6 53L6 54L7 54L7 55L4 55L4 57L6 57L6 58L8 58L8 56L7 56L7 55L8 55L8 53L6 53L6 52L9 52L9 53L11 53L11 54L10 54L10 55L9 55L9 56L10 56L10 55L11 55L11 56L12 56L12 57L13 57L13 56L12 56L12 54L13 54L13 55L15 55L15 56L14 56L14 59L15 59L15 56L16 56L16 58L17 58L17 59L19 59L19 61L18 61L18 62L17 62L17 61L16 61L16 60L15 60L15 61L16 61L16 62L15 62L15 63L18 63L18 62L20 62L20 63L21 63L21 64L20 64L20 65L19 65L19 68L21 68L21 67L20 67L20 66L21 66L21 65L22 65L22 66L23 66L23 65L25 65L25 66L24 66L24 67L25 67L25 68L26 68L26 66L27 66L27 65L25 65L25 64L28 64L28 65L29 65L29 64L30 64L30 63L29 63L29 62L31 62L31 63L32 63L32 61L30 61L30 60L31 60L31 59L32 59L32 60L34 60L34 59L32 59L32 58L35 58L35 59L38 59L38 58L35 58L35 57L36 57L36 56L35 56L35 52L34 52L34 54L33 54L33 55L31 55L31 56L32 56L32 57L31 57L31 59L30 59L30 58L29 58L29 59L28 59L28 58L27 58L27 55L28 55L28 56L29 56L29 57L30 57L30 56L29 56L29 53L28 53L28 51L32 51L32 52L31 52L31 54L32 54L32 52L33 52L33 50L31 50L31 49L30 49L30 48L29 48L29 47L28 47L28 46L25 46L25 47L26 47L26 48L27 48L27 49L26 49L26 50L27 50L27 52L26 52L26 51L25 51L25 50L24 50L24 51L20 51L20 50L19 50L19 51L20 51L20 54L18 54L18 53L16 53L16 52L17 52L17 51L18 51L18 49L19 49L19 48L21 48L21 49L22 49L22 50L23 50L23 49L25 49L25 48L24 48L24 47L23 47L23 46L20 46L20 47L19 47L19 46L18 46L18 47L17 47L17 46L14 46L14 45L15 45L15 44L18 44L18 41L17 41L17 40L21 40L21 38L22 38L22 39L24 39L24 38L22 38L22 36L23 36L23 37L24 37L24 36L25 36L25 38L26 38L26 39L27 39L27 40L26 40L26 41L24 41L24 40L22 40L22 42L23 42L23 41L24 41L24 44L22 44L22 43L21 43L21 41L19 41L19 43L20 43L20 44L19 44L19 45L24 45L24 44L26 44L26 45L30 45L30 46L31 46L31 48L33 48L33 47L32 47L32 44L31 44L31 45L30 45L30 44L29 44L29 43L28 43L28 44L26 44L26 43L27 43L27 42L26 42L26 41L27 41L27 40L28 40L28 42L30 42L30 43L31 43L31 42L30 42L30 41L33 41L33 42L32 42L32 43L33 43L33 46L34 46L34 45L35 45L35 47L34 47L34 48L35 48L35 47L36 47L36 50L37 50L37 51L38 51L38 52L37 52L37 53L38 53L38 52L39 52L39 53L40 53L40 54L39 54L39 55L37 55L37 54L36 54L36 55L37 55L37 56L39 56L39 58L41 58L41 56L40 56L40 54L41 54L41 55L42 55L42 54L41 54L41 53L43 53L43 54L44 54L44 55L43 55L43 56L42 56L42 57L43 57L43 59L44 59L44 60L45 60L45 58L44 58L44 57L46 57L46 56L47 56L47 57L48 57L48 56L49 56L49 57L50 57L50 56L51 56L51 57L52 57L52 60L54 60L54 61L55 61L55 64L56 64L56 62L57 62L57 64L58 64L58 62L60 62L60 61L58 61L58 60L61 60L61 58L60 58L60 56L61 56L61 57L65 57L65 58L67 58L67 57L68 57L68 56L64 56L64 54L65 54L65 55L68 55L68 54L67 54L67 53L66 53L66 52L65 52L65 51L67 51L67 50L66 50L66 49L67 49L67 48L66 48L66 49L65 49L65 47L66 47L66 45L65 45L65 43L66 43L66 42L65 42L65 41L64 41L64 40L65 40L65 38L66 38L66 39L67 39L67 38L66 38L66 37L62 37L62 39L60 39L60 38L59 38L59 37L60 37L60 35L59 35L59 37L58 37L58 36L57 36L57 37L56 37L56 35L55 35L55 34L56 34L56 33L57 33L57 35L58 35L58 33L57 33L57 32L56 32L56 33L55 33L55 31L56 31L56 30L57 30L57 29L58 29L58 32L61 32L61 31L62 31L62 30L63 30L63 29L62 29L62 30L60 30L60 31L59 31L59 29L61 29L61 28L60 28L60 27L61 27L61 26L60 26L60 25L61 25L61 24L62 24L62 22L61 22L61 24L60 24L60 23L59 23L59 24L58 24L58 26L59 26L59 27L58 27L58 28L57 28L57 26L56 26L56 27L55 27L55 26L53 26L53 25L54 25L54 24L55 24L55 25L56 25L56 23L57 23L57 21L61 21L61 20L62 20L62 19L63 19L63 21L65 21L65 22L63 22L63 23L65 23L65 22L66 22L66 23L67 23L67 22L66 22L66 20L65 20L65 19L64 19L64 17L65 17L65 18L66 18L66 19L68 19L68 18L66 18L66 16L64 16L64 14L68 14L68 11L67 11L67 12L66 12L66 13L64 13L64 11L63 11L63 13L62 13L62 12L60 12L60 13L62 13L62 14L61 14L61 15L60 15L60 14L59 14L59 12L58 12L58 11L57 11L57 13L56 13L56 11L55 11L55 14L56 14L56 15L53 15L53 13L54 13L54 12L53 12L53 13L52 13L52 11L54 11L54 10L53 10L53 8L54 8L54 9L55 9L55 10L56 10L56 9L57 9L57 8L56 8L56 6L55 6L55 7L54 7L54 5L53 5L53 4ZM14 5L14 7L13 7L13 6L12 6L12 7L13 7L13 12L14 12L14 13L13 13L13 15L12 15L12 16L14 16L14 13L15 13L15 12L14 12L14 7L15 7L15 5ZM18 5L18 7L19 7L19 5ZM25 5L25 6L24 6L24 9L26 9L26 8L28 8L28 9L27 9L27 10L29 10L29 9L30 9L30 8L28 8L28 7L29 7L29 6L30 6L30 7L31 7L31 6L30 6L30 5L27 5L27 6L26 6L26 5ZM33 5L33 8L36 8L36 5ZM52 5L52 7L51 7L51 6L50 6L50 8L52 8L52 7L53 7L53 5ZM16 6L16 7L17 7L17 6ZM25 6L25 8L26 8L26 6ZM27 6L27 7L28 7L28 6ZM34 6L34 7L35 7L35 6ZM57 6L57 7L58 7L58 6ZM60 6L60 7L61 7L61 6ZM0 8L0 9L1 9L1 10L2 10L2 11L0 11L0 12L2 12L2 11L4 11L4 10L3 10L3 9L2 9L2 8ZM5 8L5 9L8 9L8 8ZM20 8L20 9L21 9L21 8ZM43 8L43 9L41 9L41 13L40 13L40 16L41 16L41 15L42 15L42 14L43 14L43 13L42 13L42 10L44 10L44 8ZM55 8L55 9L56 9L56 8ZM17 9L17 10L16 10L16 11L17 11L17 10L18 10L18 11L19 11L19 9ZM33 9L33 10L36 10L36 9ZM59 9L59 10L60 10L60 9ZM6 10L6 11L7 11L7 12L4 12L4 13L3 13L3 15L4 15L4 13L7 13L7 12L8 12L8 11L7 11L7 10ZM61 10L61 11L62 11L62 10ZM26 11L26 14L28 14L28 13L27 13L27 11ZM37 12L37 13L36 13L36 14L35 14L35 15L34 15L34 16L35 16L35 15L37 15L37 14L38 14L38 16L39 16L39 14L38 14L38 12ZM0 13L0 15L1 15L1 16L2 16L2 13ZM16 13L16 15L18 15L18 14L17 14L17 13ZM41 13L41 14L42 14L42 13ZM57 13L57 15L56 15L56 16L55 16L55 17L56 17L56 16L57 16L57 18L58 18L58 19L56 19L56 20L58 20L58 19L60 19L60 18L61 18L61 19L62 19L62 16L61 16L61 17L59 17L59 15L58 15L58 13ZM50 15L50 16L49 16L49 20L51 20L51 21L53 21L53 20L51 20L51 17L50 17L50 16L51 16L51 15ZM57 15L57 16L58 16L58 15ZM23 16L23 17L22 17L22 18L21 18L21 17L18 17L18 18L17 18L17 19L16 19L16 20L17 20L17 21L18 21L18 22L22 22L22 24L23 24L23 23L24 23L24 22L26 22L26 19L27 19L27 18L26 18L26 17L24 17L24 16ZM5 17L5 18L4 18L4 19L5 19L5 18L7 18L7 17ZM58 17L58 18L59 18L59 17ZM0 18L0 19L1 19L1 18ZM18 18L18 19L17 19L17 20L18 20L18 19L19 19L19 18ZM20 18L20 19L21 19L21 20L19 20L19 21L25 21L25 19L26 19L26 18L25 18L25 19L24 19L24 18L23 18L23 19L21 19L21 18ZM35 18L35 19L34 19L34 21L35 21L35 22L37 22L37 23L39 23L39 24L38 24L38 26L39 26L39 25L40 25L40 26L41 26L41 25L40 25L40 23L39 23L39 22L40 22L40 21L43 21L43 20L40 20L40 21L38 21L38 20L37 20L37 19L36 19L36 18ZM0 20L0 21L1 21L1 20ZM11 20L11 21L10 21L10 23L11 23L11 26L12 26L12 25L13 25L13 24L12 24L12 23L11 23L11 22L13 22L13 20ZM35 20L35 21L37 21L37 22L38 22L38 21L37 21L37 20ZM6 21L6 22L8 22L8 23L9 23L9 22L8 22L8 21ZM41 22L41 23L42 23L42 22ZM6 23L6 24L7 24L7 23ZM14 23L14 25L15 25L15 23ZM33 23L33 24L34 24L34 23ZM47 23L47 27L50 27L50 29L49 29L49 28L47 28L47 30L46 30L46 29L44 29L44 32L43 32L43 33L41 33L41 34L40 34L40 35L39 35L39 36L38 36L38 37L39 37L39 38L40 38L40 39L44 39L44 40L41 40L41 41L39 41L39 42L38 42L38 41L37 41L37 42L36 42L36 41L34 41L34 44L36 44L36 45L37 45L37 42L38 42L38 46L36 46L36 47L38 47L38 48L37 48L37 50L38 50L38 51L41 51L41 52L43 52L43 53L44 53L44 54L45 54L45 55L44 55L44 56L43 56L43 57L44 57L44 56L45 56L45 55L47 55L47 56L48 56L48 54L49 54L49 56L50 56L50 53L51 53L51 52L50 52L50 53L49 53L49 52L46 52L46 51L45 51L45 50L46 50L46 49L47 49L47 48L48 48L48 49L49 49L49 50L47 50L47 51L50 51L50 48L52 48L52 49L51 49L51 51L52 51L52 52L53 52L53 53L52 53L52 54L51 54L51 55L52 55L52 54L56 54L56 55L58 55L58 56L57 56L57 57L56 57L56 56L55 56L55 55L53 55L53 56L55 56L55 57L53 57L53 58L54 58L54 59L55 59L55 58L56 58L56 59L59 59L59 55L58 55L58 53L59 53L59 52L60 52L60 50L59 50L59 51L58 51L58 49L57 49L57 46L59 46L59 45L56 45L56 44L55 44L55 42L58 42L58 43L57 43L57 44L62 44L62 45L61 45L61 47L62 47L62 48L61 48L61 53L60 53L60 55L61 55L61 56L63 56L63 54L64 54L64 52L62 52L62 48L63 48L63 50L64 50L64 47L65 47L65 45L63 45L63 44L64 44L64 43L65 43L65 42L64 42L64 43L63 43L63 42L61 42L61 41L62 41L62 40L63 40L63 39L62 39L62 40L60 40L60 39L59 39L59 40L60 40L60 42L61 42L61 43L59 43L59 42L58 42L58 40L57 40L57 39L55 39L55 37L54 37L54 36L52 36L52 37L53 37L53 41L52 41L52 42L54 42L54 44L53 44L53 45L50 45L50 44L51 44L51 42L50 42L50 41L49 41L49 38L50 38L50 40L52 40L52 39L51 39L51 38L50 38L50 37L51 37L51 36L50 36L50 34L51 34L51 35L53 35L53 34L55 34L55 33L53 33L53 34L51 34L51 32L52 32L52 31L51 31L51 30L50 30L50 29L52 29L52 30L54 30L54 31L55 31L55 29L56 29L56 28L55 28L55 29L52 29L52 25L53 25L53 24L52 24L52 23L50 23L50 24L48 24L48 23ZM9 24L9 25L10 25L10 24ZM44 24L44 25L45 25L45 24ZM50 24L50 25L49 25L49 26L51 26L51 25L52 25L52 24ZM65 24L65 25L66 25L66 26L67 26L67 25L66 25L66 24ZM62 25L62 27L63 27L63 26L64 26L64 25ZM0 27L0 28L1 28L1 27ZM12 28L12 29L11 29L11 30L12 30L12 29L13 29L13 28ZM21 29L21 30L24 30L24 31L23 31L23 34L21 34L21 33L20 33L20 34L21 34L21 36L20 36L20 37L19 37L19 36L18 36L18 35L17 35L17 36L16 36L16 37L15 37L15 36L13 36L13 37L15 37L15 40L17 40L17 39L18 39L18 38L16 38L16 37L17 37L17 36L18 36L18 37L19 37L19 39L20 39L20 37L21 37L21 36L22 36L22 35L23 35L23 34L25 34L25 33L26 33L26 35L27 35L27 36L26 36L26 37L27 37L27 39L28 39L28 40L29 40L29 41L30 41L30 40L29 40L29 39L30 39L30 38L32 38L32 37L31 37L31 36L30 36L30 37L29 37L29 34L28 34L28 32L27 32L27 31L28 31L28 29L27 29L27 31L26 31L26 32L24 32L24 31L25 31L25 29ZM37 29L37 30L38 30L38 29ZM48 29L48 30L47 30L47 31L45 31L45 32L44 32L44 33L43 33L43 34L41 34L41 35L43 35L43 37L44 37L44 34L45 34L45 35L46 35L46 38L47 38L47 39L45 39L45 40L44 40L44 43L43 43L43 44L44 44L44 48L43 48L43 46L42 46L42 45L40 45L40 44L41 44L41 43L42 43L42 42L39 42L39 48L38 48L38 50L39 50L39 49L40 49L40 50L41 50L41 51L42 51L42 50L41 50L41 49L40 49L40 48L41 48L41 47L40 47L40 46L42 46L42 48L43 48L43 50L44 50L44 48L47 48L47 47L48 47L48 48L50 48L50 47L49 47L49 46L50 46L50 45L49 45L49 46L46 46L46 47L45 47L45 43L46 43L46 45L47 45L47 42L48 42L48 41L47 41L47 40L48 40L48 38L49 38L49 37L50 37L50 36L49 36L49 33L47 33L47 34L45 34L45 33L46 33L46 32L51 32L51 31L50 31L50 30L49 30L49 29ZM1 30L1 31L0 31L0 32L1 32L1 31L2 31L2 30ZM48 30L48 31L49 31L49 30ZM64 30L64 31L65 31L65 30ZM20 31L20 32L21 32L21 31ZM32 31L32 32L33 32L33 31ZM17 32L17 33L18 33L18 32ZM5 33L5 36L8 36L8 33ZM33 33L33 36L36 36L36 33ZM61 33L61 36L64 36L64 33ZM6 34L6 35L7 35L7 34ZM34 34L34 35L35 35L35 34ZM62 34L62 35L63 35L63 34ZM47 35L47 38L48 38L48 37L49 37L49 36L48 36L48 35ZM41 36L41 37L40 37L40 38L41 38L41 37L42 37L42 36ZM0 37L0 39L1 39L1 41L2 41L2 39L3 39L3 38L2 38L2 37ZM28 37L28 39L29 39L29 37ZM57 37L57 38L58 38L58 37ZM12 38L12 39L11 39L11 40L10 40L10 41L11 41L11 40L12 40L12 39L14 39L14 38ZM33 38L33 39L34 39L34 38ZM36 38L36 39L35 39L35 40L37 40L37 39L38 39L38 40L39 40L39 39L38 39L38 38ZM54 39L54 40L55 40L55 39ZM56 40L56 41L57 41L57 40ZM68 40L68 41L69 41L69 40ZM14 41L14 42L15 42L15 41ZM45 41L45 42L46 42L46 41ZM16 42L16 43L17 43L17 42ZM49 42L49 43L48 43L48 44L50 44L50 42ZM1 46L1 47L2 47L2 46ZM51 46L51 47L54 47L54 48L53 48L53 49L52 49L52 51L53 51L53 49L54 49L54 48L55 48L55 50L56 50L56 52L55 52L55 53L56 53L56 54L57 54L57 49L56 49L56 47L55 47L55 46ZM62 46L62 47L64 47L64 46ZM16 47L16 48L17 48L17 47ZM27 47L27 48L28 48L28 49L29 49L29 48L28 48L28 47ZM59 47L59 49L60 49L60 47ZM22 48L22 49L23 49L23 48ZM34 50L34 51L35 51L35 50ZM2 51L2 54L3 54L3 52L4 52L4 51ZM24 51L24 52L23 52L23 54L26 54L26 55L27 55L27 54L26 54L26 52L25 52L25 51ZM43 51L43 52L44 52L44 53L45 53L45 51ZM24 52L24 53L25 53L25 52ZM15 53L15 54L16 54L16 56L17 56L17 58L19 58L19 59L20 59L20 60L21 60L21 59L22 59L22 61L21 61L21 63L24 63L24 64L25 64L25 63L27 63L27 62L28 62L28 61L29 61L29 60L30 60L30 59L29 59L29 60L28 60L28 59L27 59L27 60L26 60L26 61L24 61L24 62L22 62L22 61L23 61L23 59L24 59L24 60L25 60L25 59L26 59L26 56L23 56L23 55L22 55L22 58L21 58L21 57L20 57L20 56L21 56L21 54L22 54L22 53L21 53L21 54L20 54L20 56L19 56L19 55L18 55L18 54L16 54L16 53ZM46 53L46 54L48 54L48 53ZM61 53L61 54L62 54L62 53ZM17 55L17 56L18 56L18 55ZM0 56L0 61L1 61L1 56ZM6 56L6 57L7 57L7 56ZM23 57L23 58L22 58L22 59L23 59L23 58L24 58L24 57ZM20 58L20 59L21 59L21 58ZM62 58L62 59L63 59L63 60L64 60L64 59L63 59L63 58ZM3 60L3 61L5 61L5 60ZM49 60L49 61L50 61L50 60ZM56 60L56 61L57 61L57 62L58 62L58 61L57 61L57 60ZM66 60L66 61L67 61L67 60ZM26 61L26 62L27 62L27 61ZM33 61L33 64L36 64L36 61ZM61 61L61 64L64 64L64 61ZM34 62L34 63L35 63L35 62ZM62 62L62 63L63 63L63 62ZM65 62L65 63L66 63L66 62ZM28 63L28 64L29 64L29 63ZM50 63L50 64L51 64L51 63ZM59 63L59 65L58 65L58 67L60 67L60 68L61 68L61 67L60 67L60 63ZM12 64L12 65L13 65L13 64ZM17 64L17 65L16 65L16 66L17 66L17 65L18 65L18 64ZM41 64L41 67L40 67L40 68L41 68L41 69L44 69L44 68L45 68L45 67L44 67L44 64ZM28 66L28 67L29 67L29 68L30 68L30 66ZM42 66L42 67L43 67L43 68L44 68L44 67L43 67L43 66ZM66 66L66 67L67 67L67 66ZM35 67L35 68L33 68L33 69L35 69L35 68L36 68L36 69L38 69L38 68L37 68L37 67ZM53 67L53 69L54 69L54 68L55 68L55 69L56 69L56 68L55 68L55 67ZM0 0L0 7L7 7L7 0ZM1 1L1 6L6 6L6 1ZM2 2L2 5L5 5L5 2ZM62 0L62 7L69 7L69 0ZM63 1L63 6L68 6L68 1ZM64 2L64 5L67 5L67 2ZM0 62L0 69L7 69L7 62ZM1 63L1 68L6 68L6 63ZM2 64L2 67L5 67L5 64Z" fill="#000000"/></g></g></svg>
