<?xml version="1.0" encoding="UTF-8"?>
<svg xmlns="http://www.w3.org/2000/svg" version="1.1" width="300" height="300" viewBox="0 0 300 300"><rect x="0" y="0" width="300" height="300" fill="#ffffff"/><g transform="scale(4.348)"><g transform="translate(0,0)"><path fill-rule="evenodd" d="M10 0L10 1L8 1L8 2L9 2L9 3L8 3L8 4L9 4L9 5L8 5L8 7L9 7L9 8L6 8L6 9L5 9L5 8L0 8L0 9L2 9L2 10L6 10L6 11L0 11L0 12L1 12L1 14L0 14L0 16L2 16L2 12L6 12L6 13L3 13L3 17L4 17L4 18L5 18L5 17L4 17L4 16L5 16L5 15L4 15L4 14L6 14L6 15L7 15L7 16L6 16L6 17L8 17L8 18L9 18L9 19L7 19L7 18L6 18L6 19L4 19L4 21L3 21L3 20L1 20L1 19L3 19L3 18L2 18L2 17L0 17L0 18L1 18L1 19L0 19L0 20L1 20L1 22L0 22L0 25L1 25L1 24L3 24L3 23L1 23L1 22L4 22L4 25L3 25L3 26L2 26L2 27L1 27L1 26L0 26L0 29L1 29L1 30L0 30L0 31L2 31L2 33L3 33L3 35L2 35L2 36L1 36L1 38L0 38L0 39L1 39L1 40L3 40L3 41L4 41L4 42L0 42L0 43L1 43L1 44L0 44L0 46L3 46L3 48L2 48L2 47L1 47L1 48L0 48L0 50L1 50L1 51L2 51L2 52L1 52L1 53L0 53L0 55L1 55L1 56L2 56L2 57L1 57L1 58L0 58L0 61L1 61L1 58L2 58L2 59L3 59L3 58L4 58L4 59L7 59L7 60L6 60L6 61L8 61L8 63L9 63L9 64L8 64L8 69L9 69L9 66L13 66L13 68L12 68L12 67L11 67L11 68L10 68L10 69L13 69L13 68L14 68L14 67L15 67L15 69L21 69L21 68L19 68L19 67L20 67L20 66L19 66L19 65L20 65L20 64L21 64L21 62L22 62L22 63L23 63L23 65L21 65L21 67L22 67L22 66L24 66L24 68L23 68L23 69L26 69L26 68L27 68L27 67L28 67L28 68L29 68L29 69L32 69L32 67L34 67L34 66L33 66L33 65L36 65L36 66L37 66L37 67L35 67L35 68L36 68L36 69L38 69L38 68L37 68L37 67L39 67L39 66L37 66L37 65L38 65L38 57L39 57L39 62L40 62L40 59L41 59L41 58L42 58L42 60L41 60L41 62L42 62L42 63L44 63L44 64L41 64L41 63L39 63L39 64L41 64L41 66L40 66L40 67L41 67L41 66L44 66L44 68L43 68L43 67L42 67L42 68L41 68L41 69L42 69L42 68L43 68L43 69L44 69L44 68L47 68L47 69L49 69L49 66L50 66L50 69L51 69L51 68L52 68L52 67L51 67L51 66L52 66L52 65L51 65L51 64L52 64L52 63L48 63L48 64L47 64L47 66L46 66L46 64L45 64L45 63L46 63L46 62L45 62L45 63L44 63L44 59L43 59L43 57L44 57L44 56L46 56L46 57L47 57L47 58L48 58L48 59L51 59L51 58L48 58L48 57L50 57L50 56L53 56L53 55L54 55L54 57L52 57L52 58L53 58L53 59L52 59L52 60L53 60L53 63L54 63L54 64L57 64L57 65L59 65L59 68L57 68L57 66L55 66L55 65L53 65L53 69L54 69L54 68L55 68L55 69L56 69L56 68L57 68L57 69L59 69L59 68L60 68L60 67L61 67L61 69L62 69L62 66L61 66L61 65L63 65L63 66L64 66L64 65L65 65L65 64L69 64L69 63L68 63L68 62L67 62L67 59L68 59L68 58L69 58L69 57L68 57L68 58L67 58L67 59L65 59L65 58L66 58L66 57L67 57L67 55L68 55L68 56L69 56L69 55L68 55L68 54L69 54L69 53L68 53L68 54L66 54L66 53L67 53L67 52L68 52L68 50L69 50L69 48L68 48L68 49L66 49L66 50L67 50L67 51L65 51L65 50L63 50L63 49L62 49L62 50L61 50L61 48L62 48L62 46L63 46L63 45L62 45L62 44L63 44L63 43L60 43L60 42L61 42L61 41L60 41L60 42L58 42L58 41L59 41L59 40L58 40L58 39L59 39L59 38L60 38L60 37L61 37L61 40L64 40L64 41L65 41L65 40L68 40L68 42L67 42L67 41L66 41L66 42L67 42L67 43L64 43L64 44L66 44L66 47L63 47L63 48L64 48L64 49L65 49L65 48L67 48L67 47L68 47L68 46L69 46L69 45L67 45L67 44L69 44L69 43L68 43L68 42L69 42L69 40L68 40L68 36L69 36L69 35L68 35L68 34L69 34L69 33L68 33L68 34L67 34L67 35L65 35L65 33L66 33L66 32L67 32L67 31L68 31L68 29L69 29L69 27L68 27L68 26L69 26L69 24L68 24L68 22L69 22L69 21L68 21L68 18L69 18L69 17L68 17L68 16L69 16L69 15L68 15L68 12L67 12L67 11L68 11L68 10L67 10L67 11L65 11L65 13L63 13L63 14L61 14L61 13L62 13L62 12L63 12L63 11L64 11L64 10L65 10L65 9L66 9L66 8L65 8L65 9L64 9L64 8L63 8L63 10L62 10L62 8L61 8L61 6L60 6L60 7L59 7L59 4L58 4L58 5L57 5L57 4L56 4L56 3L59 3L59 2L58 2L58 1L61 1L61 0L58 0L58 1L57 1L57 2L56 2L56 1L55 1L55 0L51 0L51 1L53 1L53 3L54 3L54 4L53 4L53 5L52 5L52 4L51 4L51 3L47 3L47 6L46 6L46 5L44 5L44 3L45 3L45 4L46 4L46 3L45 3L45 2L44 2L44 3L43 3L43 0L39 0L39 1L38 1L38 0L37 0L37 1L33 1L33 2L35 2L35 3L36 3L36 4L31 4L31 3L32 3L32 2L31 2L31 1L32 1L32 0L31 0L31 1L30 1L30 2L31 2L31 3L29 3L29 0L28 0L28 1L27 1L27 2L26 2L26 1L25 1L25 0L23 0L23 1L21 1L21 3L20 3L20 4L19 4L19 2L20 2L20 1L19 1L19 0L17 0L17 1L16 1L16 0L13 0L13 1L11 1L11 0ZM44 0L44 1L45 1L45 0ZM49 0L49 1L47 1L47 2L50 2L50 0ZM10 1L10 3L9 3L9 4L10 4L10 5L11 5L11 7L10 7L10 6L9 6L9 7L10 7L10 9L9 9L9 10L11 10L11 11L12 11L12 12L10 12L10 14L11 14L11 15L12 15L12 14L11 14L11 13L14 13L14 14L13 14L13 15L14 15L14 16L15 16L15 18L14 18L14 21L15 21L15 20L18 20L18 19L15 19L15 18L16 18L16 16L15 16L15 15L14 15L14 14L16 14L16 15L17 15L17 16L18 16L18 17L17 17L17 18L18 18L18 17L26 17L26 18L27 18L27 19L25 19L25 18L23 18L23 19L21 19L21 20L19 20L19 21L20 21L20 22L19 22L19 23L18 23L18 22L17 22L17 23L15 23L15 22L12 22L12 21L13 21L13 20L12 20L12 19L11 19L11 18L10 18L10 17L11 17L11 16L8 16L8 17L9 17L9 18L10 18L10 19L9 19L9 21L11 21L11 22L12 22L12 23L10 23L10 22L8 22L8 21L6 21L6 20L7 20L7 19L6 19L6 20L5 20L5 23L6 23L6 24L7 24L7 25L5 25L5 29L6 29L6 30L7 30L7 31L6 31L6 32L7 32L7 31L8 31L8 32L9 32L9 34L11 34L11 36L9 36L9 37L8 37L8 38L9 38L9 39L6 39L6 38L7 38L7 37L6 37L6 38L5 38L5 37L4 37L4 36L3 36L3 37L4 37L4 39L3 39L3 40L4 40L4 39L6 39L6 40L7 40L7 41L5 41L5 43L4 43L4 44L3 44L3 46L4 46L4 45L6 45L6 46L7 46L7 45L9 45L9 46L8 46L8 47L9 47L9 49L10 49L10 50L8 50L8 49L6 49L6 48L7 48L7 47L5 47L5 49L6 49L6 50L7 50L7 51L5 51L5 50L2 50L2 51L4 51L4 52L7 52L7 53L6 53L6 54L5 54L5 55L4 55L4 53L3 53L3 52L2 52L2 54L1 54L1 55L2 55L2 54L3 54L3 57L2 57L2 58L3 58L3 57L4 57L4 58L5 58L5 57L4 57L4 56L7 56L7 55L9 55L9 53L11 53L11 54L10 54L10 55L11 55L11 56L12 56L12 57L9 57L9 56L8 56L8 57L9 57L9 59L8 59L8 58L7 58L7 57L6 57L6 58L7 58L7 59L8 59L8 61L9 61L9 62L10 62L10 63L11 63L11 64L12 64L12 65L13 65L13 62L12 62L12 61L10 61L10 60L12 60L12 59L14 59L14 60L13 60L13 61L14 61L14 62L16 62L16 63L15 63L15 64L14 64L14 65L15 65L15 67L17 67L17 68L18 68L18 67L17 67L17 65L18 65L18 64L17 64L17 65L15 65L15 64L16 64L16 63L18 63L18 62L19 62L19 63L20 63L20 62L21 62L21 61L23 61L23 62L24 62L24 61L25 61L25 62L29 62L29 63L27 63L27 64L28 64L28 65L25 65L25 66L26 66L26 67L27 67L27 66L28 66L28 65L29 65L29 64L31 64L31 63L32 63L32 59L34 59L34 60L35 60L35 59L36 59L36 58L37 58L37 56L36 56L36 55L41 55L41 54L42 54L42 55L43 55L43 56L42 56L42 57L43 57L43 56L44 56L44 53L45 53L45 54L46 54L46 56L48 56L48 55L52 55L52 54L51 54L51 53L53 53L53 52L54 52L54 53L55 53L55 54L54 54L54 55L55 55L55 56L56 56L56 57L55 57L55 59L53 59L53 60L55 60L55 59L56 59L56 61L55 61L55 62L54 62L54 63L56 63L56 62L60 62L60 60L61 60L61 59L60 59L60 58L62 58L62 59L63 59L63 60L65 60L65 59L64 59L64 58L65 58L65 57L66 57L66 56L64 56L64 57L63 57L63 55L65 55L65 52L64 52L64 53L63 53L63 52L62 52L62 51L63 51L63 50L62 50L62 51L61 51L61 50L60 50L60 51L59 51L59 49L60 49L60 48L61 48L61 47L60 47L60 46L59 46L59 45L61 45L61 46L62 46L62 45L61 45L61 44L59 44L59 43L58 43L58 42L57 42L57 40L55 40L55 38L56 38L56 39L57 39L57 38L59 38L59 37L60 37L60 35L58 35L58 34L60 34L60 33L59 33L59 32L58 32L58 31L59 31L59 29L60 29L60 26L59 26L59 25L62 25L62 26L64 26L64 28L63 28L63 27L61 27L61 29L62 29L62 31L63 31L63 32L64 32L64 31L63 31L63 29L65 29L65 31L67 31L67 29L68 29L68 28L66 28L66 27L65 27L65 26L64 26L64 25L68 25L68 24L64 24L64 23L62 23L62 22L63 22L63 21L65 21L65 23L67 23L67 22L66 22L66 21L67 21L67 20L65 20L65 19L67 19L67 17L66 17L66 16L65 16L65 14L67 14L67 13L65 13L65 14L63 14L63 15L64 15L64 16L62 16L62 15L61 15L61 16L59 16L59 13L58 13L58 12L59 12L59 11L60 11L60 9L61 9L61 8L60 8L60 9L58 9L58 8L59 8L59 7L58 7L58 6L57 6L57 5L56 5L56 6L55 6L55 7L56 7L56 9L55 9L55 8L54 8L54 6L53 6L53 7L52 7L52 5L51 5L51 4L49 4L49 5L51 5L51 7L50 7L50 6L49 6L49 7L50 7L50 8L49 8L49 9L50 9L50 10L47 10L47 7L48 7L48 6L47 6L47 7L46 7L46 6L45 6L45 7L44 7L44 5L43 5L43 7L42 7L42 6L41 6L41 7L40 7L40 6L39 6L39 4L40 4L40 5L41 5L41 3L42 3L42 4L43 4L43 3L42 3L42 1L41 1L41 3L39 3L39 2L38 2L38 1L37 1L37 2L36 2L36 3L38 3L38 4L37 4L37 5L38 5L38 6L37 6L37 7L38 7L38 8L39 8L39 9L38 9L38 10L36 10L36 9L35 9L35 10L36 10L36 11L33 11L33 10L34 10L34 9L31 9L31 8L32 8L32 5L30 5L30 6L29 6L29 7L28 7L28 6L27 6L27 5L29 5L29 3L28 3L28 2L27 2L27 3L26 3L26 4L25 4L25 2L24 2L24 1L23 1L23 2L24 2L24 4L23 4L23 3L21 3L21 4L20 4L20 5L19 5L19 4L18 4L18 5L16 5L16 4L15 4L15 3L16 3L16 2L15 2L15 1L13 1L13 3L14 3L14 4L15 4L15 5L14 5L14 6L13 6L13 7L12 7L12 4L10 4L10 3L12 3L12 2L11 2L11 1ZM17 1L17 2L19 2L19 1ZM54 2L54 3L56 3L56 2ZM60 3L60 5L61 5L61 3ZM21 4L21 5L20 5L20 8L18 8L18 7L19 7L19 5L18 5L18 7L17 7L17 6L16 6L16 7L15 7L15 6L14 6L14 7L13 7L13 8L11 8L11 9L13 9L13 10L14 10L14 8L16 8L16 11L18 11L18 12L17 12L17 13L16 13L16 14L17 14L17 15L18 15L18 14L20 14L20 13L21 13L21 14L22 14L22 13L21 13L21 12L24 12L24 13L23 13L23 14L24 14L24 15L23 15L23 16L26 16L26 15L25 15L25 14L27 14L27 13L26 13L26 11L25 11L25 12L24 12L24 11L22 11L22 10L20 10L20 8L21 8L21 9L22 9L22 8L21 8L21 6L22 6L22 7L23 7L23 8L24 8L24 9L23 9L23 10L24 10L24 9L25 9L25 10L26 10L26 8L28 8L28 9L30 9L30 10L27 10L27 11L28 11L28 12L29 12L29 15L30 15L30 16L29 16L29 17L32 17L32 19L31 19L31 18L30 18L30 19L29 19L29 20L28 20L28 19L27 19L27 20L28 20L28 21L26 21L26 20L25 20L25 19L24 19L24 21L23 21L23 22L22 22L22 21L21 21L21 22L22 22L22 23L21 23L21 24L20 24L20 23L19 23L19 24L18 24L18 23L17 23L17 25L16 25L16 24L13 24L13 23L12 23L12 24L13 24L13 26L14 26L14 25L16 25L16 26L15 26L15 27L16 27L16 28L17 28L17 29L19 29L19 30L18 30L18 31L17 31L17 30L15 30L15 28L13 28L13 27L12 27L12 25L11 25L11 24L10 24L10 23L9 23L9 24L10 24L10 26L8 26L8 25L7 25L7 26L6 26L6 27L7 27L7 26L8 26L8 27L9 27L9 28L10 28L10 29L8 29L8 28L6 28L6 29L7 29L7 30L10 30L10 33L12 33L12 32L13 32L13 35L12 35L12 36L13 36L13 39L12 39L12 37L11 37L11 38L10 38L10 39L12 39L12 40L11 40L11 41L10 41L10 42L9 42L9 45L10 45L10 49L11 49L11 50L12 50L12 49L13 49L13 48L14 48L14 49L16 49L16 48L17 48L17 49L18 49L18 50L15 50L15 51L14 51L14 52L11 52L11 51L10 51L10 52L11 52L11 53L14 53L14 52L15 52L15 53L16 53L16 52L17 52L17 53L18 53L18 54L20 54L20 56L22 56L22 57L21 57L21 58L22 58L22 57L24 57L24 58L23 58L23 59L24 59L24 60L23 60L23 61L24 61L24 60L25 60L25 61L26 61L26 60L27 60L27 61L29 61L29 62L30 62L30 63L31 63L31 59L30 59L30 60L28 60L28 58L27 58L27 57L25 57L25 55L26 55L26 56L30 56L30 57L29 57L29 58L33 58L33 57L31 57L31 56L33 56L33 55L34 55L34 54L33 54L33 53L34 53L34 52L33 52L33 51L34 51L34 50L32 50L32 49L33 49L33 48L32 48L32 49L31 49L31 48L30 48L30 47L29 47L29 46L31 46L31 45L33 45L33 46L32 46L32 47L33 47L33 46L34 46L34 47L35 47L35 48L36 48L36 47L37 47L37 48L38 48L38 47L37 47L37 46L38 46L38 45L39 45L39 46L40 46L40 47L39 47L39 48L40 48L40 47L41 47L41 48L42 48L42 49L41 49L41 50L39 50L39 51L38 51L38 49L37 49L37 50L36 50L36 49L35 49L35 50L36 50L36 51L35 51L35 53L36 53L36 54L35 54L35 55L36 55L36 54L39 54L39 52L41 52L41 53L40 53L40 54L41 54L41 53L42 53L42 54L43 54L43 53L44 53L44 52L45 52L45 53L49 53L49 54L50 54L50 52L49 52L49 50L50 50L50 51L52 51L52 52L53 52L53 50L57 50L57 49L59 49L59 48L60 48L60 47L59 47L59 48L58 48L58 46L56 46L56 44L57 44L57 42L56 42L56 41L53 41L53 42L52 42L52 41L51 41L51 44L53 44L53 47L52 47L52 45L51 45L51 46L49 46L49 45L50 45L50 43L49 43L49 42L50 42L50 41L49 41L49 39L50 39L50 40L51 40L51 39L53 39L53 40L54 40L54 39L53 39L53 38L55 38L55 37L56 37L56 38L57 38L57 37L58 37L58 36L57 36L57 37L56 37L56 34L58 34L58 33L56 33L56 31L57 31L57 29L59 29L59 27L58 27L58 28L57 28L57 27L56 27L56 28L54 28L54 29L53 29L53 30L55 30L55 29L56 29L56 31L52 31L52 30L51 30L51 31L50 31L50 29L51 29L51 28L52 28L52 26L55 26L55 25L56 25L56 26L57 26L57 25L59 25L59 24L57 24L57 25L56 25L56 18L57 18L57 21L58 21L58 20L59 20L59 22L62 22L62 21L61 21L61 20L59 20L59 19L58 19L58 18L57 18L57 17L58 17L58 16L57 16L57 15L58 15L58 14L57 14L57 15L56 15L56 14L55 14L55 13L56 13L56 12L57 12L57 11L58 11L58 10L57 10L57 9L56 9L56 10L55 10L55 9L54 9L54 8L53 8L53 10L51 10L51 11L50 11L50 13L49 13L49 12L47 12L47 14L50 14L50 13L51 13L51 12L53 12L53 11L56 11L56 12L54 12L54 13L52 13L52 14L53 14L53 15L52 15L52 16L50 16L50 15L48 15L48 16L47 16L47 15L45 15L45 13L42 13L42 14L41 14L41 12L42 12L42 10L45 10L45 9L46 9L46 7L45 7L45 9L44 9L44 8L43 8L43 9L39 9L39 12L40 12L40 13L39 13L39 14L38 14L38 12L37 12L37 13L36 13L36 12L33 12L33 14L31 14L31 15L30 15L30 13L32 13L32 12L29 12L29 11L30 11L30 10L31 10L31 11L32 11L32 10L31 10L31 9L30 9L30 8L28 8L28 7L27 7L27 6L26 6L26 5L27 5L27 4L26 4L26 5L25 5L25 4L24 4L24 5L25 5L25 6L24 6L24 7L23 7L23 6L22 6L22 5L23 5L23 4ZM33 5L33 8L36 8L36 5ZM25 6L25 7L24 7L24 8L26 8L26 6ZM30 6L30 7L31 7L31 6ZM34 6L34 7L35 7L35 6ZM38 6L38 7L39 7L39 6ZM56 6L56 7L57 7L57 8L58 8L58 7L57 7L57 6ZM17 8L17 9L18 9L18 11L19 11L19 13L20 13L20 12L21 12L21 11L19 11L19 9L18 9L18 8ZM50 8L50 9L51 9L51 8ZM67 8L67 9L68 9L68 8ZM6 9L6 10L7 10L7 11L6 11L6 12L8 12L8 14L7 14L7 13L6 13L6 14L7 14L7 15L9 15L9 12L8 12L8 10L7 10L7 9ZM40 10L40 12L41 12L41 10ZM56 10L56 11L57 11L57 10ZM13 11L13 12L14 12L14 13L15 13L15 11ZM43 11L43 12L46 12L46 11ZM60 12L60 13L61 13L61 12ZM34 13L34 14L33 14L33 15L31 15L31 16L32 16L32 17L35 17L35 14L36 14L36 13ZM37 14L37 15L36 15L36 16L37 16L37 17L36 17L36 18L35 18L35 19L34 19L34 18L33 18L33 19L32 19L32 20L31 20L31 21L30 21L30 22L29 22L29 21L28 21L28 22L27 22L27 23L30 23L30 22L32 22L32 20L33 20L33 21L34 21L34 22L33 22L33 23L32 23L32 26L29 26L29 25L30 25L30 24L28 24L28 25L27 25L27 24L26 24L26 21L25 21L25 22L24 22L24 23L23 23L23 24L24 24L24 23L25 23L25 24L26 24L26 26L25 26L25 28L26 28L26 30L28 30L28 31L27 31L27 32L28 32L28 33L25 33L25 34L23 34L23 35L22 35L22 34L21 34L21 33L24 33L24 32L26 32L26 31L25 31L25 30L23 30L23 31L22 31L22 29L23 29L23 28L24 28L24 27L21 27L21 25L22 25L22 26L24 26L24 25L22 25L22 24L21 24L21 25L19 25L19 26L17 26L17 27L19 27L19 26L20 26L20 30L21 30L21 31L20 31L20 33L19 33L19 34L20 34L20 35L19 35L19 36L20 36L20 39L19 39L19 40L20 40L20 39L21 39L21 40L22 40L22 41L18 41L18 42L17 42L17 40L16 40L16 39L18 39L18 37L17 37L17 36L18 36L18 35L17 35L17 36L15 36L15 34L17 34L17 33L18 33L18 32L17 32L17 33L16 33L16 32L15 32L15 33L14 33L14 35L13 35L13 36L15 36L15 37L14 37L14 40L13 40L13 43L12 43L12 45L11 45L11 46L12 46L12 45L13 45L13 44L14 44L14 40L15 40L15 41L16 41L16 42L15 42L15 43L16 43L16 44L19 44L19 45L14 45L14 46L13 46L13 47L14 47L14 46L15 46L15 48L16 48L16 47L17 47L17 48L18 48L18 49L24 49L24 47L22 47L22 48L21 48L21 46L23 46L23 45L24 45L24 44L25 44L25 43L26 43L26 46L25 46L25 47L26 47L26 48L25 48L25 49L26 49L26 50L25 50L25 52L26 52L26 55L30 55L30 54L31 54L31 55L32 55L32 50L30 50L30 51L29 51L29 48L27 48L27 47L28 47L28 46L29 46L29 45L27 45L27 43L26 43L26 42L29 42L29 43L28 43L28 44L31 44L31 43L33 43L33 45L35 45L35 47L36 47L36 46L37 46L37 45L38 45L38 44L39 44L39 45L40 45L40 44L41 44L41 43L40 43L40 41L41 41L41 40L44 40L44 42L43 42L43 44L44 44L44 45L45 45L45 46L44 46L44 49L43 49L43 50L44 50L44 49L45 49L45 52L46 52L46 51L47 51L47 50L49 50L49 49L50 49L50 50L52 50L52 49L55 49L55 47L56 47L56 49L57 49L57 47L56 47L56 46L54 46L54 47L53 47L53 48L52 48L52 47L51 47L51 48L50 48L50 47L49 47L49 46L47 46L47 45L45 45L45 44L46 44L46 42L47 42L47 40L48 40L48 38L47 38L47 37L48 37L48 36L49 36L49 35L50 35L50 34L51 34L51 33L54 33L54 32L52 32L52 31L51 31L51 33L50 33L50 31L47 31L47 32L49 32L49 33L45 33L45 32L46 32L46 31L45 31L45 30L47 30L47 29L45 29L45 28L44 28L44 27L43 27L43 28L44 28L44 29L43 29L43 30L42 30L42 27L39 27L39 28L40 28L40 29L38 29L38 31L39 31L39 30L40 30L40 31L43 31L43 32L39 32L39 33L38 33L38 35L37 35L37 36L38 36L38 37L36 37L36 39L35 39L35 37L34 37L34 40L33 40L33 39L32 39L32 38L30 38L30 37L29 37L29 36L31 36L31 37L32 37L32 35L31 35L31 34L32 34L32 32L34 32L34 31L33 31L33 30L34 30L34 29L36 29L36 28L35 28L35 27L36 27L36 26L34 26L34 24L35 24L35 25L36 25L36 24L37 24L37 26L41 26L41 25L42 25L42 24L39 24L39 25L38 25L38 24L37 24L37 23L39 23L39 22L40 22L40 23L41 23L41 22L42 22L42 23L43 23L43 24L44 24L44 25L43 25L43 26L46 26L46 27L47 27L47 28L49 28L49 27L47 27L47 25L48 25L48 24L49 24L49 23L50 23L50 26L51 26L51 25L54 25L54 24L53 24L53 21L55 21L55 18L54 18L54 19L53 19L53 16L52 16L52 19L53 19L53 20L51 20L51 19L50 19L50 20L49 20L49 19L48 19L48 18L49 18L49 17L50 17L50 18L51 18L51 17L50 17L50 16L49 16L49 17L45 17L45 16L44 16L44 14L42 14L42 15L40 15L40 14L39 14L39 15L40 15L40 16L39 16L39 17L38 17L38 14ZM54 14L54 15L55 15L55 16L56 16L56 17L57 17L57 16L56 16L56 15L55 15L55 14ZM19 15L19 16L20 16L20 15ZM21 15L21 16L22 16L22 15ZM33 15L33 16L34 16L34 15ZM12 16L12 17L13 17L13 16ZM42 16L42 17L41 17L41 18L39 18L39 19L37 19L37 18L38 18L38 17L37 17L37 18L36 18L36 19L35 19L35 20L34 20L34 21L35 21L35 24L36 24L36 23L37 23L37 22L39 22L39 19L43 19L43 17L44 17L44 16ZM61 16L61 17L59 17L59 18L60 18L60 19L61 19L61 18L62 18L62 20L64 20L64 19L63 19L63 18L65 18L65 17L63 17L63 18L62 18L62 16ZM27 17L27 18L28 18L28 17ZM19 18L19 19L20 19L20 18ZM44 18L44 19L47 19L47 20L46 20L46 21L47 21L47 20L48 20L48 23L47 23L47 24L46 24L46 22L44 22L44 20L43 20L43 21L42 21L42 22L44 22L44 23L45 23L45 24L46 24L46 25L47 25L47 24L48 24L48 23L49 23L49 22L50 22L50 21L49 21L49 20L48 20L48 19L47 19L47 18ZM35 20L35 21L38 21L38 20ZM51 21L51 22L52 22L52 21ZM6 22L6 23L7 23L7 22ZM57 22L57 23L58 23L58 22ZM33 23L33 24L34 24L34 23ZM61 23L61 24L62 24L62 23ZM63 24L63 25L64 25L64 24ZM3 26L3 28L4 28L4 26ZM26 26L26 28L29 28L29 29L30 29L30 30L29 30L29 31L30 31L30 32L29 32L29 33L28 33L28 34L27 34L27 35L28 35L28 36L29 36L29 33L31 33L31 32L32 32L32 30L33 30L33 29L34 29L34 28L33 28L33 27L31 27L31 28L29 28L29 26ZM10 27L10 28L11 28L11 29L10 29L10 30L11 30L11 29L12 29L12 31L15 31L15 30L14 30L14 29L13 29L13 28L11 28L11 27ZM37 27L37 28L38 28L38 27ZM50 27L50 28L51 28L51 27ZM21 28L21 29L22 29L22 28ZM31 28L31 29L32 29L32 28ZM56 28L56 29L57 29L57 28ZM62 28L62 29L63 29L63 28ZM65 28L65 29L66 29L66 28ZM3 29L3 30L2 30L2 31L3 31L3 33L4 33L4 32L5 32L5 31L4 31L4 29ZM44 29L44 30L43 30L43 31L44 31L44 32L43 32L43 33L40 33L40 36L39 36L39 37L40 37L40 38L39 38L39 40L38 40L38 41L36 41L36 42L35 42L35 41L33 41L33 40L32 40L32 42L33 42L33 43L34 43L34 42L35 42L35 44L37 44L37 43L36 43L36 42L38 42L38 41L39 41L39 40L41 40L41 38L42 38L42 39L45 39L45 40L47 40L47 38L45 38L45 37L47 37L47 36L48 36L48 35L47 35L47 36L45 36L45 33L44 33L44 32L45 32L45 31L44 31L44 30L45 30L45 29ZM48 29L48 30L49 30L49 29ZM21 31L21 32L22 32L22 31ZM23 31L23 32L24 32L24 31ZM36 31L36 32L37 32L37 31ZM60 31L60 32L61 32L61 31ZM0 32L0 35L1 35L1 32ZM5 33L5 36L8 36L8 33ZM33 33L33 36L36 36L36 33ZM43 33L43 34L41 34L41 36L40 36L40 37L41 37L41 36L42 36L42 35L43 35L43 36L44 36L44 37L45 37L45 36L44 36L44 33ZM49 33L49 34L50 34L50 33ZM55 33L55 34L56 34L56 33ZM61 33L61 36L64 36L64 33ZM6 34L6 35L7 35L7 34ZM25 34L25 35L23 35L23 38L25 38L25 40L24 40L24 39L23 39L23 40L24 40L24 41L23 41L23 42L24 42L24 41L25 41L25 42L26 42L26 40L28 40L28 41L30 41L30 42L31 42L31 41L30 41L30 40L28 40L28 39L30 39L30 38L27 38L27 39L26 39L26 36L25 36L25 35L26 35L26 34ZM34 34L34 35L35 35L35 34ZM52 34L52 35L53 35L53 34ZM62 34L62 35L63 35L63 34ZM67 35L67 36L68 36L68 35ZM50 36L50 37L49 37L49 38L51 38L51 37L54 37L54 36ZM21 37L21 39L22 39L22 37ZM62 37L62 39L67 39L67 38L66 38L66 37L64 37L64 38L63 38L63 37ZM15 38L15 39L16 39L16 38ZM37 38L37 39L36 39L36 40L37 40L37 39L38 39L38 38ZM8 40L8 41L7 41L7 42L6 42L6 43L7 43L7 44L6 44L6 45L7 45L7 44L8 44L8 43L7 43L7 42L8 42L8 41L9 41L9 40ZM62 41L62 42L63 42L63 41ZM10 42L10 44L11 44L11 42ZM19 42L19 44L20 44L20 42ZM44 42L44 43L45 43L45 42ZM54 42L54 43L53 43L53 44L54 44L54 45L55 45L55 44L54 44L54 43L55 43L55 42ZM23 43L23 44L24 44L24 43ZM39 43L39 44L40 44L40 43ZM48 43L48 44L49 44L49 43ZM58 44L58 45L59 45L59 44ZM19 45L19 46L20 46L20 45ZM41 45L41 46L42 46L42 48L43 48L43 46L42 46L42 45ZM17 46L17 47L18 47L18 46ZM45 46L45 49L46 49L46 46ZM11 47L11 48L12 48L12 47ZM19 47L19 48L20 48L20 47ZM47 47L47 49L49 49L49 48L48 48L48 47ZM1 48L1 49L2 49L2 48ZM3 48L3 49L4 49L4 48ZM51 48L51 49L52 49L52 48ZM27 49L27 50L26 50L26 51L27 51L27 52L28 52L28 53L27 53L27 54L28 54L28 53L31 53L31 52L28 52L28 51L27 51L27 50L28 50L28 49ZM18 50L18 52L19 52L19 51L20 51L20 50ZM21 50L21 52L20 52L20 54L21 54L21 55L22 55L22 54L23 54L23 55L25 55L25 54L23 54L23 53L24 53L24 52L22 52L22 51L24 51L24 50ZM41 50L41 51L42 51L42 52L44 52L44 51L42 51L42 50ZM7 51L7 52L8 52L8 53L7 53L7 54L6 54L6 55L7 55L7 54L8 54L8 53L9 53L9 52L8 52L8 51ZM55 51L55 52L57 52L57 53L58 53L58 52L57 52L57 51ZM36 52L36 53L38 53L38 52ZM11 54L11 55L12 55L12 56L13 56L13 57L12 57L12 58L15 58L15 59L16 59L16 60L14 60L14 61L16 61L16 60L17 60L17 61L19 61L19 62L20 62L20 61L21 61L21 60L22 60L22 59L21 59L21 60L20 60L20 59L18 59L18 58L20 58L20 57L19 57L19 55L16 55L16 54L14 54L14 55L12 55L12 54ZM55 54L55 55L57 55L57 56L58 56L58 57L59 57L59 58L60 58L60 57L59 57L59 56L60 56L60 55L59 55L59 56L58 56L58 55L57 55L57 54ZM61 54L61 56L62 56L62 54ZM16 56L16 57L15 57L15 58L16 58L16 57L17 57L17 56ZM39 56L39 57L41 57L41 56ZM56 57L56 59L58 59L58 58L57 58L57 57ZM62 57L62 58L63 58L63 57ZM26 58L26 59L27 59L27 58ZM34 58L34 59L35 59L35 58ZM45 58L45 61L47 61L47 62L50 62L50 61L51 61L51 62L52 62L52 61L51 61L51 60L50 60L50 61L49 61L49 60L46 60L46 58ZM9 59L9 60L10 60L10 59ZM17 59L17 60L18 60L18 59ZM59 59L59 60L57 60L57 61L59 61L59 60L60 60L60 59ZM3 60L3 61L5 61L5 60ZM19 60L19 61L20 61L20 60ZM42 60L42 61L43 61L43 60ZM33 61L33 64L36 64L36 61ZM61 61L61 64L64 64L64 61ZM11 62L11 63L12 63L12 62ZM34 62L34 63L35 63L35 62ZM62 62L62 63L63 63L63 62ZM65 62L65 63L66 63L66 62ZM24 63L24 64L26 64L26 63ZM59 63L59 65L60 65L60 63ZM44 64L44 66L45 66L45 67L46 67L46 66L45 66L45 64ZM31 65L31 66L29 66L29 68L31 68L31 66L32 66L32 65ZM48 65L48 66L47 66L47 67L48 67L48 66L49 66L49 65ZM50 65L50 66L51 66L51 65ZM66 65L66 66L65 66L65 67L63 67L63 68L65 68L65 69L68 69L68 68L67 68L67 67L66 67L66 66L67 66L67 65ZM55 67L55 68L56 68L56 67ZM33 68L33 69L34 69L34 68ZM0 0L0 7L7 7L7 0ZM1 1L1 6L6 6L6 1ZM2 2L2 5L5 5L5 2ZM62 0L62 7L69 7L69 0ZM63 1L63 6L68 6L68 1ZM64 2L64 5L67 5L67 2ZM0 62L0 69L7 69L7 62ZM1 63L1 68L6 68L6 63ZM2 64L2 67L5 67L5 64Z" fill="#000000"/></g></g></svg>
