<?xml version="1.0" encoding="UTF-8"?>
<svg xmlns="http://www.w3.org/2000/svg" version="1.1" width="300" height="300" viewBox="0 0 300 300"><rect x="0" y="0" width="300" height="300" fill="#ffffff"/><g transform="scale(4.348)"><g transform="translate(0,0)"><path fill-rule="evenodd" d="M8 0L8 4L9 4L9 5L8 5L8 7L9 7L9 11L10 11L10 9L12 9L12 10L11 10L11 11L12 11L12 10L13 10L13 11L15 11L15 10L16 10L16 11L17 11L17 10L16 10L16 9L14 9L14 8L15 8L15 6L16 6L16 7L17 7L17 9L18 9L18 11L19 11L19 12L16 12L16 13L15 13L15 16L14 16L14 12L13 12L13 14L11 14L11 13L10 13L10 14L9 14L9 12L8 12L8 14L6 14L6 13L7 13L7 12L6 12L6 13L4 13L4 12L5 12L5 11L4 11L4 10L6 10L6 11L7 11L7 10L8 10L8 9L7 9L7 8L4 8L4 10L3 10L3 11L4 11L4 12L0 12L0 13L3 13L3 14L1 14L1 15L2 15L2 16L3 16L3 15L5 15L5 16L6 16L6 17L7 17L7 18L5 18L5 22L4 22L4 21L0 21L0 22L1 22L1 24L0 24L0 25L2 25L2 26L0 26L0 29L1 29L1 27L2 27L2 26L3 26L3 25L2 25L2 23L3 23L3 24L4 24L4 23L5 23L5 24L6 24L6 25L4 25L4 27L3 27L3 28L4 28L4 30L6 30L6 31L7 31L7 32L5 32L5 31L3 31L3 32L2 32L2 33L0 33L0 37L1 37L1 38L0 38L0 40L1 40L1 41L0 41L0 42L2 42L2 43L1 43L1 45L0 45L0 49L1 49L1 48L2 48L2 53L1 53L1 52L0 52L0 54L1 54L1 55L0 55L0 57L1 57L1 58L0 58L0 61L1 61L1 58L2 58L2 59L3 59L3 58L4 58L4 59L8 59L8 62L9 62L9 63L8 63L8 65L9 65L9 67L8 67L8 69L9 69L9 67L10 67L10 69L12 69L12 67L13 67L13 68L16 68L16 69L19 69L19 67L20 67L20 66L21 66L21 67L22 67L22 68L21 68L21 69L22 69L22 68L26 68L26 69L27 69L27 68L26 68L26 67L24 67L24 66L27 66L27 67L28 67L28 66L30 66L30 65L31 65L31 68L30 68L30 67L29 67L29 68L28 68L28 69L31 69L31 68L32 68L32 69L35 69L35 66L37 66L37 67L39 67L39 68L38 68L38 69L40 69L40 67L39 67L39 66L40 66L40 63L41 63L41 67L43 67L43 63L42 63L42 62L43 62L43 61L42 61L42 58L45 58L45 60L44 60L44 59L43 59L43 60L44 60L44 62L45 62L45 61L46 61L46 59L47 59L47 63L46 63L46 64L47 64L47 67L48 67L48 69L50 69L50 66L51 66L51 67L52 67L52 68L51 68L51 69L52 69L52 68L53 68L53 69L54 69L54 67L55 67L55 68L56 68L56 69L57 69L57 68L58 68L58 69L59 69L59 68L60 68L60 67L58 67L58 65L59 65L59 63L60 63L60 66L62 66L62 67L63 67L63 66L64 66L64 67L65 67L65 63L66 63L66 62L67 62L67 66L66 66L66 67L67 67L67 66L69 66L69 65L68 65L68 62L69 62L69 59L68 59L68 58L69 58L69 57L68 57L68 56L69 56L69 55L68 55L68 53L69 53L69 52L68 52L68 50L66 50L66 49L65 49L65 48L64 48L64 45L63 45L63 43L66 43L66 42L67 42L67 41L68 41L68 38L69 38L69 35L68 35L68 33L69 33L69 31L67 31L67 30L65 30L65 29L66 29L66 27L64 27L64 28L62 28L62 26L65 26L65 25L64 25L64 24L65 24L65 23L64 23L64 22L66 22L66 23L67 23L67 24L66 24L66 25L67 25L67 29L69 29L69 28L68 28L68 26L69 26L69 25L67 25L67 24L68 24L68 21L69 21L69 20L68 20L68 18L67 18L67 17L69 17L69 15L68 15L68 13L69 13L69 11L68 11L68 10L67 10L67 11L68 11L68 12L66 12L66 13L67 13L67 15L68 15L68 16L66 16L66 18L67 18L67 20L68 20L68 21L64 21L64 20L65 20L65 17L64 17L64 16L65 16L65 15L64 15L64 12L63 12L63 11L62 11L62 10L64 10L64 11L65 11L65 10L66 10L66 9L69 9L69 8L65 8L65 9L64 9L64 8L63 8L63 9L62 9L62 10L61 10L61 9L60 9L60 8L61 8L61 6L60 6L60 7L59 7L59 4L58 4L58 5L56 5L56 7L57 7L57 8L56 8L56 9L55 9L55 4L56 4L56 3L54 3L54 2L55 2L55 1L56 1L56 2L57 2L57 3L59 3L59 2L57 2L57 0L52 0L52 2L51 2L51 3L52 3L52 8L51 8L51 9L50 9L50 10L52 10L52 8L54 8L54 9L53 9L53 10L55 10L55 11L54 11L54 12L55 12L55 13L53 13L53 15L54 15L54 14L55 14L55 16L53 16L53 17L52 17L52 12L51 12L51 11L49 11L49 8L50 8L50 7L51 7L51 4L50 4L50 7L49 7L49 6L48 6L48 5L49 5L49 4L48 4L48 5L47 5L47 6L46 6L46 7L45 7L45 6L44 6L44 5L46 5L46 4L47 4L47 2L49 2L49 3L50 3L50 1L51 1L51 0L50 0L50 1L48 1L48 0L47 0L47 1L46 1L46 0L45 0L45 1L44 1L44 0L40 0L40 4L38 4L38 3L37 3L37 2L38 2L38 1L39 1L39 0L38 0L38 1L35 1L35 2L34 2L34 3L33 3L33 4L32 4L32 3L31 3L31 2L33 2L33 0L32 0L32 1L31 1L31 0L23 0L23 1L22 1L22 0L15 0L15 1L16 1L16 4L14 4L14 3L15 3L15 2L14 2L14 3L13 3L13 2L12 2L12 5L10 5L10 4L11 4L11 1L14 1L14 0ZM58 0L58 1L61 1L61 0ZM9 1L9 4L10 4L10 1ZM19 1L19 2L17 2L17 4L16 4L16 5L18 5L18 4L19 4L19 5L20 5L20 6L19 6L19 7L18 7L18 6L17 6L17 7L18 7L18 8L19 8L19 11L20 11L20 12L22 12L22 13L21 13L21 16L22 16L22 17L19 17L19 16L18 16L18 17L17 17L17 20L16 20L16 22L15 22L15 19L14 19L14 18L15 18L15 17L14 17L14 16L13 16L13 15L12 15L12 16L11 16L11 14L10 14L10 15L9 15L9 16L10 16L10 17L11 17L11 19L12 19L12 22L11 22L11 20L10 20L10 19L8 19L8 20L9 20L9 21L10 21L10 22L9 22L9 23L10 23L10 22L11 22L11 24L8 24L8 22L7 22L7 21L6 21L6 22L5 22L5 23L6 23L6 24L8 24L8 25L6 25L6 26L7 26L7 27L6 27L6 28L7 28L7 29L6 29L6 30L8 30L8 29L9 29L9 31L10 31L10 33L11 33L11 35L10 35L10 34L9 34L9 35L10 35L10 36L9 36L9 37L6 37L6 38L7 38L7 39L6 39L6 40L5 40L5 41L3 41L3 42L5 42L5 43L2 43L2 44L5 44L5 46L4 46L4 47L3 47L3 45L2 45L2 47L3 47L3 49L4 49L4 51L3 51L3 52L4 52L4 53L6 53L6 54L7 54L7 55L5 55L5 58L7 58L7 57L6 57L6 56L8 56L8 59L9 59L9 58L11 58L11 59L10 59L10 61L9 61L9 62L12 62L12 63L9 63L9 65L10 65L10 66L13 66L13 67L16 67L16 68L17 68L17 67L18 67L18 66L17 66L17 65L18 65L18 64L19 64L19 65L20 65L20 64L21 64L21 62L20 62L20 61L23 61L23 59L24 59L24 61L25 61L25 62L22 62L22 65L21 65L21 66L23 66L23 64L25 64L25 65L29 65L29 62L30 62L30 61L28 61L28 62L27 62L27 63L28 63L28 64L26 64L26 63L25 63L25 62L26 62L26 60L27 60L27 59L28 59L28 58L29 58L29 59L30 59L30 58L29 58L29 57L30 57L30 56L31 56L31 55L32 55L32 57L31 57L31 60L32 60L32 59L34 59L34 58L35 58L35 60L38 60L38 61L37 61L37 65L38 65L38 63L40 63L40 62L41 62L41 60L39 60L39 58L40 58L40 59L41 59L41 58L40 58L40 57L41 57L41 56L42 56L42 57L44 57L44 54L45 54L45 53L46 53L46 54L47 54L47 55L48 55L48 56L49 56L49 57L50 57L50 56L52 56L52 58L53 58L53 59L52 59L52 62L53 62L53 64L52 64L52 63L51 63L51 62L50 62L50 61L51 61L51 59L50 59L50 60L49 60L49 63L51 63L51 64L49 64L49 66L48 66L48 67L49 67L49 66L50 66L50 65L51 65L51 66L52 66L52 67L54 67L54 65L53 65L53 64L54 64L54 61L56 61L56 62L55 62L55 66L56 66L56 67L57 67L57 66L56 66L56 62L57 62L57 65L58 65L58 63L59 63L59 61L60 61L60 59L61 59L61 60L62 60L62 59L63 59L63 60L64 60L64 59L63 59L63 58L62 58L62 59L61 59L61 56L60 56L60 55L59 55L59 53L60 53L60 52L59 52L59 51L60 51L60 50L62 50L62 51L63 51L63 53L64 53L64 54L62 54L62 52L61 52L61 54L62 54L62 56L63 56L63 57L64 57L64 58L65 58L65 61L66 61L66 60L67 60L67 62L68 62L68 59L66 59L66 58L67 58L67 56L68 56L68 55L67 55L67 54L66 54L66 53L67 53L67 51L65 51L65 49L64 49L64 51L63 51L63 50L62 50L62 49L63 49L63 46L62 46L62 48L61 48L61 47L59 47L59 46L60 46L60 45L62 45L62 44L59 44L59 43L58 43L58 44L57 44L57 43L56 43L56 44L52 44L52 43L51 43L51 44L52 44L52 45L51 45L51 48L50 48L50 47L48 47L48 48L50 48L50 49L49 49L49 50L48 50L48 49L47 49L47 48L45 48L45 46L44 46L44 44L45 44L45 45L46 45L46 46L47 46L47 44L48 44L48 43L47 43L47 42L48 42L48 41L47 41L47 38L48 38L48 39L49 39L49 46L50 46L50 40L51 40L51 39L50 39L50 37L51 37L51 38L52 38L52 37L53 37L53 36L54 36L54 35L55 35L55 37L56 37L56 36L57 36L57 37L58 37L58 38L59 38L59 37L60 37L60 36L59 36L59 32L58 32L58 36L57 36L57 35L56 35L56 34L57 34L57 33L56 33L56 32L55 32L55 30L53 30L53 32L52 32L52 33L51 33L51 30L52 30L52 29L54 29L54 28L53 28L53 27L52 27L52 26L51 26L51 27L50 27L50 28L49 28L49 29L48 29L48 30L47 30L47 29L46 29L46 28L45 28L45 29L46 29L46 30L44 30L44 27L43 27L43 26L41 26L41 25L42 25L42 24L43 24L43 25L44 25L44 24L45 24L45 23L44 23L44 20L46 20L46 19L47 19L47 18L49 18L49 19L50 19L50 21L46 21L46 22L47 22L47 25L46 25L46 26L47 26L47 25L48 25L48 27L49 27L49 26L50 26L50 25L51 25L51 22L52 22L52 23L53 23L53 22L52 22L52 21L56 21L56 22L57 22L57 21L58 21L58 22L59 22L59 23L57 23L57 25L58 25L58 26L59 26L59 23L60 23L60 24L62 24L62 25L61 25L61 26L62 26L62 25L63 25L63 24L64 24L64 23L62 23L62 21L63 21L63 22L64 22L64 21L63 21L63 20L64 20L64 17L63 17L63 19L62 19L62 15L63 15L63 14L62 14L62 13L63 13L63 12L62 12L62 11L61 11L61 10L59 10L59 9L58 9L58 12L59 12L59 13L58 13L58 14L56 14L56 13L55 13L55 14L56 14L56 16L55 16L55 17L56 17L56 18L55 18L55 20L54 20L54 18L52 18L52 17L51 17L51 18L50 18L50 16L51 16L51 14L50 14L50 13L51 13L51 12L49 12L49 14L50 14L50 16L49 16L49 15L47 15L47 16L45 16L45 19L44 19L44 18L41 18L41 17L42 17L42 16L40 16L40 19L39 19L39 18L38 18L38 17L39 17L39 16L38 16L38 13L37 13L37 12L36 12L36 13L33 13L33 14L31 14L31 13L32 13L32 12L34 12L34 10L35 10L35 11L36 11L36 9L34 9L34 10L32 10L32 9L31 9L31 8L30 8L30 9L29 9L29 8L28 8L28 6L27 6L27 7L26 7L26 5L27 5L27 3L29 3L29 4L28 4L28 5L30 5L30 6L29 6L29 7L30 7L30 6L31 6L31 7L32 7L32 6L31 6L31 5L32 5L32 4L31 4L31 3L30 3L30 2L28 2L28 1L26 1L26 2L25 2L25 3L26 3L26 4L25 4L25 7L26 7L26 8L25 8L25 9L24 9L24 2L22 2L22 1L21 1L21 2L20 2L20 1ZM41 1L41 4L43 4L43 5L44 5L44 4L45 4L45 3L46 3L46 2L45 2L45 3L44 3L44 2L43 2L43 3L42 3L42 1ZM21 2L21 3L20 3L20 5L21 5L21 3L22 3L22 5L23 5L23 3L22 3L22 2ZM26 2L26 3L27 3L27 2ZM35 2L35 3L36 3L36 4L37 4L37 3L36 3L36 2ZM43 3L43 4L44 4L44 3ZM53 3L53 4L54 4L54 3ZM60 3L60 5L61 5L61 3ZM30 4L30 5L31 5L31 4ZM9 5L9 7L10 7L10 8L13 8L13 7L14 7L14 6L15 6L15 5L14 5L14 6L13 6L13 5L12 5L12 6L11 6L11 7L10 7L10 5ZM33 5L33 8L36 8L36 5ZM37 5L37 8L38 8L38 9L37 9L37 10L38 10L38 9L40 9L40 10L39 10L39 11L38 11L38 12L39 12L39 11L41 11L41 14L40 14L40 13L39 13L39 15L42 15L42 13L44 13L44 11L46 11L46 12L45 12L45 13L46 13L46 14L45 14L45 15L46 15L46 14L47 14L47 13L46 13L46 12L47 12L47 11L46 11L46 10L47 10L47 8L49 8L49 7L48 7L48 6L47 6L47 8L45 8L45 7L44 7L44 6L43 6L43 8L41 8L41 7L42 7L42 6L41 6L41 5L39 5L39 7L38 7L38 5ZM53 5L53 7L54 7L54 5ZM12 6L12 7L13 7L13 6ZM20 6L20 11L24 11L24 12L23 12L23 14L22 14L22 16L23 16L23 14L25 14L25 13L27 13L27 14L28 14L28 12L29 12L29 13L31 13L31 12L29 12L29 11L32 11L32 10L31 10L31 9L30 9L30 10L28 10L28 8L26 8L26 10L24 10L24 9L23 9L23 10L22 10L22 9L21 9L21 6ZM22 6L22 8L23 8L23 6ZM34 6L34 7L35 7L35 6ZM40 6L40 7L41 7L41 6ZM57 6L57 7L58 7L58 6ZM0 8L0 9L1 9L1 11L2 11L2 8ZM44 8L44 9L45 9L45 10L46 10L46 9L45 9L45 8ZM6 9L6 10L7 10L7 9ZM41 9L41 10L42 10L42 12L43 12L43 9ZM26 10L26 12L28 12L28 11L27 11L27 10ZM61 12L61 13L59 13L59 14L58 14L58 15L57 15L57 16L56 16L56 17L57 17L57 18L56 18L56 19L57 19L57 20L56 20L56 21L57 21L57 20L58 20L58 21L59 21L59 22L61 22L61 21L62 21L62 20L59 20L59 19L61 19L61 16L59 16L59 15L62 15L62 14L61 14L61 13L62 13L62 12ZM16 13L16 16L17 16L17 15L18 15L18 13ZM19 13L19 15L20 15L20 13ZM36 13L36 14L37 14L37 13ZM5 14L5 15L6 15L6 16L7 16L7 17L8 17L8 16L7 16L7 15L6 15L6 14ZM34 14L34 15L33 15L33 17L34 17L34 20L32 20L32 19L33 19L33 18L28 18L28 19L27 19L27 17L28 17L28 16L29 16L29 17L31 17L31 16L32 16L32 15L30 15L30 16L29 16L29 15L27 15L27 16L26 16L26 15L24 15L24 16L25 16L25 17L23 17L23 19L21 19L21 18L20 18L20 19L19 19L19 17L18 17L18 19L19 19L19 20L17 20L17 22L16 22L16 23L15 23L15 22L14 22L14 21L13 21L13 22L14 22L14 24L16 24L16 23L17 23L17 25L13 25L13 23L12 23L12 24L11 24L11 25L12 25L12 26L14 26L14 30L13 30L13 29L12 29L12 30L13 30L13 32L14 32L14 33L12 33L12 37L13 37L13 35L14 35L14 36L15 36L15 38L10 38L10 37L11 37L11 36L10 36L10 37L9 37L9 38L8 38L8 39L7 39L7 40L6 40L6 41L7 41L7 40L9 40L9 39L11 39L11 40L12 40L12 39L13 39L13 40L14 40L14 41L13 41L13 42L15 42L15 41L16 41L16 40L17 40L17 42L16 42L16 43L15 43L15 45L14 45L14 46L16 46L16 47L17 47L17 49L18 49L18 50L19 50L19 49L22 49L22 51L24 51L24 50L25 50L25 49L26 49L26 50L27 50L27 49L28 49L28 45L31 45L31 46L29 46L29 49L32 49L32 51L34 51L34 52L35 52L35 51L36 51L36 49L35 49L35 50L33 50L33 49L34 49L34 48L35 48L35 47L36 47L36 48L37 48L37 49L38 49L38 50L37 50L37 52L36 52L36 54L35 54L35 55L33 55L33 57L32 57L32 58L34 58L34 56L35 56L35 58L36 58L36 57L38 57L38 58L39 58L39 57L40 57L40 55L41 55L41 54L44 54L44 53L45 53L45 50L46 50L46 51L48 51L48 50L46 50L46 49L45 49L45 48L44 48L44 46L43 46L43 44L41 44L41 43L38 43L38 42L43 42L43 39L45 39L45 40L44 40L44 43L45 43L45 44L46 44L46 43L45 43L45 42L46 42L46 37L50 37L50 36L51 36L51 37L52 37L52 36L53 36L53 35L54 35L54 34L55 34L55 32L54 32L54 33L53 33L53 34L51 34L51 33L50 33L50 30L51 30L51 29L52 29L52 27L51 27L51 29L50 29L50 30L49 30L49 32L47 32L47 30L46 30L46 31L44 31L44 30L43 30L43 28L42 28L42 27L40 27L40 24L41 24L41 22L42 22L42 23L43 23L43 19L41 19L41 22L39 22L39 24L36 24L36 23L34 23L34 22L37 22L37 21L38 21L38 20L39 20L39 21L40 21L40 20L39 20L39 19L38 19L38 18L37 18L37 20L36 20L36 19L35 19L35 18L36 18L36 17L34 17L34 16L37 16L37 15L35 15L35 14ZM43 15L43 17L44 17L44 15ZM0 16L0 19L1 19L1 20L2 20L2 19L1 19L1 18L3 18L3 19L4 19L4 17L1 17L1 16ZM47 16L47 17L49 17L49 16ZM57 16L57 17L58 17L58 18L57 18L57 19L58 19L58 18L59 18L59 17L58 17L58 16ZM12 17L12 18L14 18L14 17ZM25 17L25 21L26 21L26 17ZM51 18L51 21L50 21L50 22L51 22L51 21L52 21L52 18ZM6 19L6 20L7 20L7 19ZM13 19L13 20L14 20L14 19ZM23 19L23 20L22 20L22 22L21 22L21 23L22 23L22 24L23 24L23 21L24 21L24 19ZM29 19L29 20L27 20L27 21L28 21L28 22L26 22L26 23L25 23L25 22L24 22L24 23L25 23L25 25L26 25L26 26L24 26L24 25L21 25L21 26L23 26L23 27L24 27L24 28L22 28L22 27L21 27L21 29L26 29L26 28L25 28L25 27L28 27L28 26L29 26L29 25L30 25L30 24L31 24L31 23L32 23L32 26L31 26L31 27L33 27L33 28L32 28L32 29L31 29L31 30L30 30L30 31L28 31L28 32L26 32L26 31L25 31L25 30L23 30L23 31L22 31L22 30L21 30L21 31L20 31L20 29L19 29L19 30L18 30L18 29L17 29L17 28L18 28L18 26L19 26L19 27L20 27L20 25L17 25L17 26L16 26L16 27L15 27L15 29L16 29L16 32L17 32L17 33L15 33L15 34L16 34L16 35L15 35L15 36L16 36L16 38L15 38L15 39L17 39L17 33L18 33L18 32L19 32L19 33L20 33L20 32L21 32L21 31L22 31L22 33L21 33L21 34L20 34L20 35L19 35L19 34L18 34L18 35L19 35L19 38L20 38L20 39L21 39L21 41L22 41L22 42L20 42L20 41L18 41L18 42L17 42L17 44L18 44L18 43L19 43L19 42L20 42L20 44L21 44L21 43L22 43L22 42L23 42L23 41L24 41L24 42L25 42L25 41L26 41L26 42L28 42L28 43L31 43L31 44L32 44L32 45L33 45L33 43L32 43L32 42L35 42L35 43L36 43L36 44L34 44L34 45L35 45L35 46L33 46L33 47L32 47L32 46L31 46L31 48L32 48L32 49L33 49L33 48L34 48L34 47L35 47L35 46L36 46L36 47L37 47L37 46L38 46L38 45L37 45L37 44L38 44L38 43L36 43L36 42L35 42L35 40L37 40L37 42L38 42L38 40L39 40L39 38L40 38L40 37L43 37L43 38L45 38L45 37L46 37L46 34L47 34L47 33L46 33L46 34L45 34L45 33L44 33L44 31L40 31L40 33L44 33L44 34L43 34L43 36L41 36L41 34L38 34L38 33L39 33L39 32L38 32L38 31L37 31L37 29L38 29L38 28L37 28L37 26L38 26L38 25L37 25L37 26L36 26L36 27L35 27L35 25L34 25L34 26L33 26L33 21L32 21L32 22L31 22L31 21L30 21L30 20L31 20L31 19ZM18 21L18 22L17 22L17 23L18 23L18 24L20 24L20 21ZM29 21L29 22L28 22L28 23L30 23L30 21ZM6 22L6 23L7 23L7 22ZM48 22L48 25L50 25L50 23L49 23L49 22ZM26 23L26 25L27 25L27 26L28 26L28 25L29 25L29 24L28 24L28 25L27 25L27 23ZM55 23L55 24L52 24L52 25L56 25L56 23ZM8 25L8 27L7 27L7 28L8 28L8 27L9 27L9 28L10 28L10 27L11 27L11 26L9 26L9 25ZM54 26L54 27L56 27L56 28L55 28L55 29L56 29L56 28L57 28L57 27L56 27L56 26ZM29 27L29 28L28 28L28 30L29 30L29 28L30 28L30 27ZM34 27L34 28L35 28L35 27ZM39 27L39 29L40 29L40 30L42 30L42 28L40 28L40 27ZM58 27L58 30L56 30L56 31L59 31L59 28L61 28L61 27ZM36 28L36 29L33 29L33 31L34 31L34 30L36 30L36 29L37 29L37 28ZM64 28L64 29L63 29L63 30L62 30L62 29L61 29L61 31L60 31L60 32L62 32L62 31L63 31L63 32L66 32L66 33L65 33L65 34L67 34L67 33L68 33L68 32L67 32L67 31L65 31L65 30L64 30L64 29L65 29L65 28ZM2 29L2 30L1 30L1 31L2 31L2 30L3 30L3 29ZM17 30L17 31L18 31L18 30ZM63 30L63 31L64 31L64 30ZM11 31L11 32L12 32L12 31ZM14 31L14 32L15 32L15 31ZM23 31L23 32L24 32L24 33L22 33L22 34L21 34L21 37L20 37L20 38L21 38L21 39L22 39L22 40L24 40L24 41L25 41L25 40L26 40L26 41L30 41L30 42L32 42L32 39L33 39L33 41L34 41L34 40L35 40L35 38L36 38L36 39L37 39L37 40L38 40L38 38L39 38L39 37L40 37L40 36L38 36L38 37L37 37L37 35L38 35L38 34L37 34L37 33L38 33L38 32L32 32L32 31L31 31L31 32L29 32L29 33L25 33L25 31ZM31 32L31 33L30 33L30 36L31 36L31 37L32 37L32 38L31 38L31 39L32 39L32 38L33 38L33 39L34 39L34 38L35 38L35 37L32 37L32 32ZM3 33L3 36L2 36L2 37L4 37L4 33ZM5 33L5 36L8 36L8 33ZM33 33L33 36L36 36L36 33ZM48 33L48 35L49 35L49 34L50 34L50 35L51 35L51 34L50 34L50 33ZM61 33L61 36L64 36L64 33ZM6 34L6 35L7 35L7 34ZM22 34L22 38L23 38L23 39L26 39L26 38L27 38L27 37L28 37L28 38L29 38L29 39L27 39L27 40L29 40L29 39L30 39L30 38L29 38L29 34L28 34L28 35L26 35L26 34ZM34 34L34 35L35 35L35 34ZM44 34L44 37L45 37L45 34ZM62 34L62 35L63 35L63 34ZM25 35L25 37L24 37L24 36L23 36L23 38L25 38L25 37L27 37L27 36L26 36L26 35ZM65 35L65 37L61 37L61 38L60 38L60 39L57 39L57 38L54 38L54 39L53 39L53 40L52 40L52 41L51 41L51 42L53 42L53 43L54 43L54 42L53 42L53 40L55 40L55 42L57 42L57 41L58 41L58 42L59 42L59 41L60 41L60 39L64 39L64 40L63 40L63 41L64 41L64 42L66 42L66 41L67 41L67 39L66 39L66 41L64 41L64 40L65 40L65 39L64 39L64 38L65 38L65 37L66 37L66 38L67 38L67 37L68 37L68 35ZM66 36L66 37L67 37L67 36ZM36 37L36 38L37 38L37 37ZM2 38L2 40L3 40L3 39L4 39L4 38ZM18 39L18 40L19 40L19 39ZM40 39L40 41L41 41L41 39ZM55 39L55 40L56 40L56 41L57 41L57 40L56 40L56 39ZM30 40L30 41L31 41L31 40ZM58 40L58 41L59 41L59 40ZM61 40L61 41L62 41L62 40ZM9 41L9 42L8 42L8 43L10 43L10 44L11 44L11 46L10 46L10 48L8 48L8 47L9 47L9 46L8 46L8 47L7 47L7 46L6 46L6 47L4 47L4 49L5 49L5 48L6 48L6 49L7 49L7 50L5 50L5 51L4 51L4 52L6 52L6 53L8 53L8 55L9 55L9 54L10 54L10 53L9 53L9 51L10 51L10 50L9 50L9 49L10 49L10 48L11 48L11 50L14 50L14 51L15 51L15 53L20 53L20 54L22 54L22 52L21 52L21 50L20 50L20 51L18 51L18 52L17 52L17 50L16 50L16 49L15 49L15 48L11 48L11 46L12 46L12 47L13 47L13 46L12 46L12 45L13 45L13 44L11 44L11 43L12 43L12 42L11 42L11 43L10 43L10 41ZM6 42L6 43L7 43L7 42ZM61 42L61 43L63 43L63 42ZM23 43L23 44L22 44L22 46L20 46L20 45L19 45L19 48L18 48L18 49L19 49L19 48L21 48L21 47L22 47L22 46L23 46L23 47L26 47L26 48L27 48L27 46L23 46L23 44L24 44L24 43ZM26 43L26 44L25 44L25 45L26 45L26 44L27 44L27 45L28 45L28 44L27 44L27 43ZM67 43L67 44L66 44L66 46L65 46L65 47L66 47L66 46L67 46L67 48L68 48L68 49L69 49L69 47L68 47L68 44L69 44L69 43ZM6 44L6 45L9 45L9 44ZM56 44L56 45L57 45L57 46L55 46L55 45L53 45L53 51L54 51L54 50L55 50L55 52L53 52L53 53L54 53L54 55L53 55L53 56L54 56L54 57L53 57L53 58L54 58L54 59L53 59L53 61L54 61L54 60L55 60L55 55L56 55L56 54L55 54L55 53L57 53L57 51L59 51L59 50L60 50L60 49L61 49L61 48L60 48L60 49L59 49L59 50L58 50L58 48L57 48L57 47L58 47L58 45L59 45L59 44L58 44L58 45L57 45L57 44ZM16 45L16 46L17 46L17 47L18 47L18 46L17 46L17 45ZM39 45L39 47L38 47L38 48L39 48L39 47L41 47L41 48L40 48L40 51L39 51L39 50L38 50L38 51L39 51L39 52L38 52L38 53L37 53L37 54L36 54L36 55L35 55L35 56L37 56L37 55L38 55L38 56L39 56L39 53L40 53L40 54L41 54L41 53L42 53L42 52L41 52L41 49L42 49L42 45L41 45L41 46L40 46L40 45ZM6 47L6 48L7 48L7 47ZM55 47L55 48L54 48L54 49L56 49L56 47ZM22 48L22 49L24 49L24 48ZM43 48L43 49L44 49L44 50L45 50L45 49L44 49L44 48ZM50 49L50 52L51 52L51 51L52 51L52 49ZM7 50L7 51L6 51L6 52L8 52L8 51L9 51L9 50ZM28 50L28 51L25 51L25 52L24 52L24 53L23 53L23 55L24 55L24 56L22 56L22 55L20 55L20 56L17 56L17 55L19 55L19 54L17 54L17 55L13 55L13 56L12 56L12 55L10 55L10 56L9 56L9 57L11 57L11 56L12 56L12 59L11 59L11 61L12 61L12 59L13 59L13 56L14 56L14 57L15 57L15 59L14 59L14 60L13 60L13 62L14 62L14 61L15 61L15 63L16 63L16 64L14 64L14 63L13 63L13 64L12 64L12 65L13 65L13 66L14 66L14 65L17 65L17 63L18 63L18 61L19 61L19 60L22 60L22 58L21 58L21 57L24 57L24 58L25 58L25 59L26 59L26 58L25 58L25 55L26 55L26 53L27 53L27 55L30 55L30 54L31 54L31 53L33 53L33 54L34 54L34 53L33 53L33 52L31 52L31 50ZM42 50L42 51L43 51L43 53L44 53L44 51L43 51L43 50ZM11 51L11 52L12 52L12 53L11 53L11 54L12 54L12 53L13 53L13 54L14 54L14 52L12 52L12 51ZM25 52L25 53L26 53L26 52ZM27 52L27 53L28 53L28 54L30 54L30 53L28 53L28 52ZM46 52L46 53L47 53L47 54L49 54L49 52ZM2 53L2 56L1 56L1 57L2 57L2 56L3 56L3 55L4 55L4 54L3 54L3 53ZM50 53L50 54L51 54L51 55L52 55L52 53ZM24 54L24 55L25 55L25 54ZM64 54L64 55L63 55L63 56L64 56L64 57L65 57L65 58L66 58L66 57L65 57L65 56L64 56L64 55L65 55L65 54ZM15 56L15 57L17 57L17 56ZM26 56L26 57L27 57L27 58L28 58L28 57L29 57L29 56L28 56L28 57L27 57L27 56ZM56 56L56 59L58 59L58 60L56 60L56 61L57 61L57 62L58 62L58 61L59 61L59 59L58 59L58 56ZM19 57L19 58L16 58L16 59L15 59L15 61L16 61L16 62L17 62L17 61L18 61L18 60L19 60L19 58L20 58L20 57ZM46 57L46 58L47 58L47 59L49 59L49 58L48 58L48 57ZM59 57L59 58L60 58L60 57ZM3 60L3 61L5 61L5 60ZM6 60L6 61L7 61L7 60ZM33 61L33 64L36 64L36 61ZM38 61L38 62L39 62L39 61ZM61 61L61 64L64 64L64 61ZM31 62L31 63L30 63L30 64L31 64L31 65L32 65L32 66L33 66L33 67L32 67L32 68L34 68L34 66L35 66L35 65L34 65L34 66L33 66L33 65L32 65L32 64L31 64L31 63L32 63L32 62ZM34 62L34 63L35 63L35 62ZM62 62L62 63L63 63L63 62ZM44 63L44 69L46 69L46 67L45 67L45 63ZM47 63L47 64L48 64L48 63ZM13 64L13 65L14 65L14 64ZM51 64L51 65L52 65L52 66L53 66L53 65L52 65L52 64ZM16 66L16 67L17 67L17 66ZM36 68L36 69L37 69L37 68ZM63 68L63 69L64 69L64 68ZM66 68L66 69L67 69L67 68ZM68 68L68 69L69 69L69 68ZM0 0L0 7L7 7L7 0ZM1 1L1 6L6 6L6 1ZM2 2L2 5L5 5L5 2ZM62 0L62 7L69 7L69 0ZM63 1L63 6L68 6L68 1ZM64 2L64 5L67 5L67 2ZM0 62L0 69L7 69L7 62ZM1 63L1 68L6 68L6 63ZM2 64L2 67L5 67L5 64Z" fill="#000000"/></g></g></svg>
