<?xml version="1.0" encoding="UTF-8"?>
<svg xmlns="http://www.w3.org/2000/svg" version="1.1" width="300" height="300" viewBox="0 0 300 300"><rect x="0" y="0" width="300" height="300" fill="#ffffff"/><g transform="scale(4.348)"><g transform="translate(0,0)"><path fill-rule="evenodd" d="M10 0L10 1L11 1L11 2L9 2L9 1L8 1L8 2L9 2L9 3L8 3L8 4L9 4L9 5L8 5L8 7L9 7L9 8L6 8L6 9L5 9L5 8L0 8L0 11L1 11L1 12L3 12L3 13L1 13L1 14L3 14L3 16L2 16L2 15L0 15L0 16L1 16L1 17L2 17L2 18L1 18L1 21L2 21L2 23L1 23L1 24L2 24L2 25L0 25L0 26L2 26L2 28L3 28L3 29L4 29L4 30L6 30L6 31L7 31L7 32L5 32L5 31L4 31L4 32L3 32L3 31L2 31L2 29L1 29L1 27L0 27L0 29L1 29L1 30L0 30L0 32L2 32L2 33L1 33L1 34L0 34L0 38L1 38L1 39L0 39L0 40L1 40L1 39L2 39L2 43L1 43L1 42L0 42L0 43L1 43L1 44L0 44L0 45L1 45L1 46L0 46L0 48L1 48L1 49L2 49L2 48L4 48L4 49L3 49L3 50L4 50L4 52L3 52L3 51L2 51L2 50L0 50L0 55L4 55L4 56L5 56L5 58L4 58L4 59L7 59L7 60L6 60L6 61L7 61L7 60L8 60L8 59L7 59L7 58L6 58L6 57L8 57L8 58L9 58L9 54L10 54L10 56L12 56L12 57L11 57L11 58L10 58L10 59L11 59L11 58L13 58L13 59L14 59L14 60L13 60L13 61L14 61L14 60L15 60L15 61L16 61L16 60L17 60L17 61L19 61L19 62L18 62L18 63L16 63L16 64L18 64L18 65L17 65L17 67L16 67L16 68L14 68L14 67L15 67L15 66L14 66L14 65L15 65L15 64L14 64L14 63L15 63L15 62L13 62L13 63L12 63L12 60L11 60L11 64L14 64L14 65L13 65L13 66L12 66L12 65L11 65L11 66L10 66L10 64L8 64L8 69L10 69L10 67L11 67L11 66L12 66L12 67L13 67L13 68L11 68L11 69L13 69L13 68L14 68L14 69L16 69L16 68L17 68L17 69L19 69L19 68L17 68L17 67L20 67L20 66L19 66L19 65L20 65L20 61L19 61L19 60L17 60L17 59L20 59L20 57L19 57L19 55L17 55L17 54L20 54L20 52L21 52L21 50L23 50L23 49L24 49L24 51L22 51L22 52L25 52L25 53L23 53L23 54L22 54L22 55L20 55L20 56L22 56L22 57L21 57L21 58L22 58L22 57L24 57L24 58L23 58L23 59L21 59L21 60L23 60L23 61L24 61L24 62L22 62L22 61L21 61L21 62L22 62L22 63L26 63L26 64L25 64L25 65L21 65L21 66L23 66L23 67L21 67L21 68L20 68L20 69L21 69L21 68L23 68L23 69L26 69L26 68L25 68L25 67L26 67L26 66L25 66L25 65L28 65L28 66L27 66L27 67L28 67L28 68L29 68L29 69L32 69L32 68L30 68L30 67L34 67L34 68L36 68L36 69L38 69L38 68L37 68L37 66L38 66L38 67L39 67L39 66L38 66L38 65L39 65L39 64L41 64L41 66L40 66L40 67L41 67L41 66L44 66L44 68L43 68L43 67L42 67L42 68L41 68L41 69L44 69L44 68L47 68L47 69L49 69L49 67L48 67L48 66L46 66L46 64L45 64L45 62L44 62L44 64L41 64L41 63L38 63L38 60L37 60L37 59L39 59L39 62L40 62L40 59L41 59L41 58L42 58L42 60L41 60L41 62L42 62L42 63L43 63L43 61L44 61L44 60L45 60L45 61L47 61L47 62L50 62L50 60L51 60L51 58L50 58L50 57L51 57L51 56L52 56L52 55L54 55L54 56L55 56L55 57L53 57L53 58L54 58L54 59L52 59L52 60L53 60L53 63L52 63L52 61L51 61L51 64L53 64L53 67L55 67L55 68L57 68L57 67L55 67L55 66L56 66L56 65L55 65L55 64L59 64L59 66L58 66L58 65L57 65L57 66L58 66L58 68L59 68L59 69L62 69L62 67L63 67L63 69L64 69L64 68L65 68L65 69L68 69L68 68L67 68L67 67L64 67L64 66L67 66L67 65L68 65L68 64L67 64L67 63L68 63L68 62L69 62L69 61L68 61L68 62L67 62L67 61L66 61L66 60L67 60L67 59L68 59L68 57L69 57L69 56L68 56L68 55L63 55L63 57L61 57L61 56L60 56L60 55L59 55L59 54L60 54L60 53L59 53L59 54L56 54L56 52L57 52L57 51L58 51L58 52L61 52L61 53L62 53L62 54L61 54L61 55L62 55L62 54L63 54L63 53L64 53L64 52L65 52L65 53L66 53L66 54L69 54L69 53L67 53L67 52L68 52L68 50L69 50L69 48L68 48L68 47L67 47L67 46L69 46L69 45L67 45L67 44L69 44L69 43L68 43L68 42L67 42L67 41L66 41L66 40L67 40L67 39L68 39L68 40L69 40L69 39L68 39L68 38L67 38L67 37L68 37L68 36L69 36L69 35L68 35L68 34L69 34L69 33L68 33L68 34L67 34L67 33L66 33L66 32L68 32L68 30L67 30L67 31L65 31L65 30L64 30L64 29L63 29L63 31L61 31L61 30L62 30L62 29L61 29L61 28L62 28L62 27L63 27L63 28L65 28L65 29L66 29L66 28L69 28L69 27L68 27L68 26L69 26L69 23L68 23L68 22L67 22L67 21L68 21L68 18L69 18L69 15L68 15L68 14L65 14L65 16L66 16L66 17L63 17L63 18L62 18L62 16L64 16L64 15L62 15L62 16L61 16L61 14L62 14L62 13L63 13L63 14L64 14L64 13L63 13L63 12L67 12L67 13L68 13L68 12L67 12L67 11L68 11L68 10L69 10L69 9L68 9L68 8L67 8L67 9L66 9L66 8L65 8L65 10L64 10L64 11L63 11L63 10L62 10L62 8L61 8L61 6L60 6L60 7L59 7L59 4L57 4L57 6L56 6L56 5L55 5L55 4L56 4L56 3L59 3L59 2L57 2L57 1L61 1L61 0L57 0L57 1L56 1L56 0L53 0L53 1L56 1L56 3L55 3L55 2L54 2L54 3L53 3L53 4L52 4L52 5L51 5L51 6L50 6L50 4L51 4L51 3L50 3L50 0L49 0L49 1L47 1L47 4L48 4L48 7L47 7L47 6L46 6L46 5L44 5L44 3L45 3L45 4L46 4L46 3L45 3L45 2L44 2L44 3L41 3L41 6L40 6L40 4L39 4L39 6L38 6L38 5L37 5L37 4L38 4L38 3L36 3L36 2L37 2L37 1L38 1L38 2L39 2L39 3L40 3L40 2L41 2L41 1L42 1L42 2L43 2L43 0L39 0L39 1L38 1L38 0L37 0L37 1L36 1L36 0L35 0L35 1L34 1L34 2L35 2L35 3L36 3L36 4L33 4L33 2L31 2L31 1L32 1L32 0L28 0L28 1L27 1L27 2L26 2L26 1L25 1L25 0L23 0L23 1L25 1L25 2L22 2L22 1L21 1L21 2L22 2L22 3L19 3L19 2L20 2L20 1L19 1L19 0L17 0L17 1L18 1L18 2L16 2L16 1L15 1L15 0L13 0L13 1L11 1L11 0ZM44 0L44 1L45 1L45 0ZM51 0L51 2L52 2L52 0ZM13 1L13 2L14 2L14 1ZM35 1L35 2L36 2L36 1ZM15 2L15 3L14 3L14 5L13 5L13 7L14 7L14 8L15 8L15 9L14 9L14 10L13 10L13 11L12 11L12 13L11 13L11 10L12 10L12 9L13 9L13 8L12 8L12 9L11 9L11 10L10 10L10 8L11 8L11 7L12 7L12 6L11 6L11 7L10 7L10 5L9 5L9 7L10 7L10 8L9 8L9 11L6 11L6 12L4 12L4 10L3 10L3 9L2 9L2 11L3 11L3 12L4 12L4 14L5 14L5 13L6 13L6 14L8 14L8 13L9 13L9 12L10 12L10 14L9 14L9 16L8 16L8 15L6 15L6 16L8 16L8 17L9 17L9 18L7 18L7 17L3 17L3 18L7 18L7 19L6 19L6 20L8 20L8 19L9 19L9 18L11 18L11 17L9 17L9 16L10 16L10 15L11 15L11 14L12 14L12 16L13 16L13 17L12 17L12 18L15 18L15 16L16 16L16 19L15 19L15 22L14 22L14 20L13 20L13 21L12 21L12 20L11 20L11 19L10 19L10 20L11 20L11 21L6 21L6 22L8 22L8 23L2 23L2 24L5 24L5 25L4 25L4 26L3 26L3 27L4 27L4 26L5 26L5 27L6 27L6 28L9 28L9 25L6 25L6 24L8 24L8 23L9 23L9 24L10 24L10 23L13 23L13 24L12 24L12 25L10 25L10 27L11 27L11 28L10 28L10 29L11 29L11 31L8 31L8 32L9 32L9 34L11 34L11 35L12 35L12 37L13 37L13 38L14 38L14 37L13 37L13 35L16 35L16 36L15 36L15 38L16 38L16 39L17 39L17 40L15 40L15 39L13 39L13 40L10 40L10 39L9 39L9 38L7 38L7 37L6 37L6 38L7 38L7 39L6 39L6 40L10 40L10 41L8 41L8 43L4 43L4 44L3 44L3 43L2 43L2 44L1 44L1 45L2 45L2 46L1 46L1 47L5 47L5 46L7 46L7 47L6 47L6 48L8 48L8 49L6 49L6 50L5 50L5 52L7 52L7 53L5 53L5 56L8 56L8 52L7 52L7 51L10 51L10 48L11 48L11 46L10 46L10 45L11 45L11 44L8 44L8 43L9 43L9 42L10 42L10 43L11 43L11 41L12 41L12 42L14 42L14 41L13 41L13 40L15 40L15 41L16 41L16 42L15 42L15 43L16 43L16 44L14 44L14 45L13 45L13 44L12 44L12 47L13 47L13 48L14 48L14 49L13 49L13 50L12 50L12 49L11 49L11 52L9 52L9 53L10 53L10 54L11 54L11 55L12 55L12 56L13 56L13 55L14 55L14 54L17 54L17 52L19 52L19 51L20 51L20 50L18 50L18 49L23 49L23 48L24 48L24 49L26 49L26 54L23 54L23 55L25 55L25 56L26 56L26 59L25 59L25 60L24 60L24 59L23 59L23 60L24 60L24 61L25 61L25 60L26 60L26 62L30 62L30 61L27 61L27 59L28 59L28 58L29 58L29 57L30 57L30 56L29 56L29 55L30 55L30 54L29 54L29 53L28 53L28 52L29 52L29 50L30 50L30 51L31 51L31 56L32 56L32 57L31 57L31 58L30 58L30 59L29 59L29 60L30 60L30 59L31 59L31 63L32 63L32 57L37 57L37 58L39 58L39 57L41 57L41 56L39 56L39 57L38 57L38 55L39 55L39 54L37 54L37 53L38 53L38 52L37 52L37 53L36 53L36 55L33 55L33 54L35 54L35 50L34 50L34 51L33 51L33 52L34 52L34 53L33 53L33 54L32 54L32 50L31 50L31 49L32 49L32 48L33 48L33 49L36 49L36 50L37 50L37 51L39 51L39 52L40 52L40 53L41 53L41 54L40 54L40 55L41 55L41 54L42 54L42 55L43 55L43 56L42 56L42 57L43 57L43 60L42 60L42 61L43 61L43 60L44 60L44 59L45 59L45 60L50 60L50 58L48 58L48 59L47 59L47 57L46 57L46 56L48 56L48 54L49 54L49 57L50 57L50 55L52 55L52 54L51 54L51 53L53 53L53 50L52 50L52 49L53 49L53 48L54 48L54 49L55 49L55 48L56 48L56 50L55 50L55 51L54 51L54 52L55 52L55 51L57 51L57 50L58 50L58 51L59 51L59 49L60 49L60 48L61 48L61 49L62 49L62 50L60 50L60 51L63 51L63 50L65 50L65 51L67 51L67 50L66 50L66 49L67 49L67 48L65 48L65 47L66 47L66 45L65 45L65 43L66 43L66 41L64 41L64 40L63 40L63 39L65 39L65 40L66 40L66 39L67 39L67 38L66 38L66 36L65 36L65 37L64 37L64 38L63 38L63 37L62 37L62 39L59 39L59 38L60 38L60 37L59 37L59 36L60 36L60 35L59 35L59 36L58 36L58 37L57 37L57 34L60 34L60 33L58 33L58 32L59 32L59 31L60 31L60 30L59 30L59 29L60 29L60 28L59 28L59 29L57 29L57 28L58 28L58 27L59 27L59 25L62 25L62 26L60 26L60 27L62 27L62 26L63 26L63 27L64 27L64 26L66 26L66 27L65 27L65 28L66 28L66 27L67 27L67 26L66 26L66 25L67 25L67 24L63 24L63 23L65 23L65 22L66 22L66 21L65 21L65 19L67 19L67 17L68 17L68 15L67 15L67 17L66 17L66 18L63 18L63 19L64 19L64 20L62 20L62 18L61 18L61 19L59 19L59 17L61 17L61 16L60 16L60 15L59 15L59 14L60 14L60 13L61 13L61 11L60 11L60 10L59 10L59 9L60 9L60 8L59 8L59 7L58 7L58 6L57 6L57 8L56 8L56 6L55 6L55 7L54 7L54 6L53 6L53 7L52 7L52 6L51 6L51 7L50 7L50 6L49 6L49 7L50 7L50 8L49 8L49 9L50 9L50 11L49 11L49 10L47 10L47 7L46 7L46 6L45 6L45 7L44 7L44 5L43 5L43 7L42 7L42 6L41 6L41 7L40 7L40 6L39 6L39 7L38 7L38 6L37 6L37 7L38 7L38 11L40 11L40 12L39 12L39 13L38 13L38 12L37 12L37 10L36 10L36 9L32 9L32 11L31 11L31 12L32 12L32 13L30 13L30 14L29 14L29 12L27 12L27 10L28 10L28 11L30 11L30 9L31 9L31 7L32 7L32 5L30 5L30 4L29 4L29 3L28 3L28 2L27 2L27 3L26 3L26 2L25 2L25 3L26 3L26 4L25 4L25 5L24 5L24 6L23 6L23 5L22 5L22 4L23 4L23 3L22 3L22 4L19 4L19 5L18 5L18 6L17 6L17 8L19 8L19 9L16 9L16 6L15 6L15 7L14 7L14 5L15 5L15 4L16 4L16 5L17 5L17 4L16 4L16 2ZM30 2L30 3L31 3L31 4L32 4L32 3L31 3L31 2ZM9 3L9 4L10 4L10 3ZM11 3L11 5L12 5L12 4L13 4L13 3ZM27 3L27 4L26 4L26 5L27 5L27 6L26 6L26 7L25 7L25 6L24 6L24 7L23 7L23 6L22 6L22 5L21 5L21 6L20 6L20 5L19 5L19 6L18 6L18 7L19 7L19 6L20 6L20 8L21 8L21 9L22 9L22 8L21 8L21 6L22 6L22 7L23 7L23 8L24 8L24 9L23 9L23 10L24 10L24 9L25 9L25 12L26 12L26 8L29 8L29 9L30 9L30 8L29 8L29 6L30 6L30 7L31 7L31 6L30 6L30 5L27 5L27 4L28 4L28 3ZM49 3L49 4L50 4L50 3ZM54 3L54 4L55 4L55 3ZM60 3L60 5L61 5L61 3ZM33 5L33 8L36 8L36 5ZM27 6L27 7L28 7L28 6ZM34 6L34 7L35 7L35 6ZM45 7L45 9L44 9L44 8L43 8L43 9L41 9L41 10L40 10L40 11L41 11L41 12L40 12L40 13L39 13L39 14L40 14L40 15L38 15L38 16L40 16L40 15L42 15L42 14L43 14L43 15L44 15L44 16L42 16L42 17L41 17L41 18L39 18L39 19L37 19L37 18L38 18L38 17L37 17L37 14L38 14L38 13L36 13L36 12L33 12L33 14L34 14L34 13L36 13L36 14L35 14L35 15L36 15L36 16L35 16L35 19L37 19L37 20L35 20L35 22L34 22L34 20L33 20L33 22L34 22L34 23L36 23L36 25L35 25L35 24L32 24L32 23L31 23L31 22L32 22L32 19L33 19L33 18L34 18L34 17L32 17L32 14L31 14L31 15L29 15L29 17L32 17L32 19L29 19L29 20L28 20L28 19L27 19L27 18L28 18L28 17L27 17L27 18L26 18L26 17L25 17L25 16L26 16L26 15L25 15L25 16L23 16L23 18L25 18L25 19L24 19L24 20L23 20L23 22L22 22L22 21L21 21L21 22L20 22L20 21L19 21L19 20L21 20L21 19L22 19L22 17L18 17L18 16L17 16L17 15L18 15L18 14L19 14L19 15L20 15L20 16L22 16L22 15L21 15L21 14L27 14L27 13L21 13L21 12L24 12L24 11L21 11L21 12L20 12L20 11L19 11L19 10L20 10L20 9L19 9L19 10L18 10L18 11L16 11L16 9L15 9L15 11L13 11L13 12L14 12L14 13L13 13L13 16L15 16L15 15L14 15L14 14L17 14L17 15L16 15L16 16L17 16L17 17L18 17L18 19L19 19L19 20L16 20L16 22L17 22L17 24L18 24L18 25L16 25L16 23L15 23L15 24L14 24L14 26L13 26L13 25L12 25L12 27L13 27L13 28L14 28L14 29L12 29L12 30L15 30L15 31L16 31L16 30L15 30L15 29L16 29L16 28L17 28L17 30L18 30L18 31L17 31L17 32L16 32L16 33L15 33L15 32L14 32L14 33L13 33L13 32L12 32L12 31L11 31L11 32L10 32L10 33L11 33L11 34L12 34L12 35L13 35L13 34L16 34L16 35L17 35L17 37L18 37L18 38L17 38L17 39L18 39L18 40L17 40L17 42L18 42L18 41L19 41L19 42L20 42L20 41L19 41L19 39L20 39L20 40L21 40L21 41L22 41L22 40L21 40L21 39L22 39L22 38L21 38L21 39L20 39L20 38L19 38L19 37L21 37L21 36L18 36L18 34L19 34L19 35L20 35L20 34L19 34L19 33L20 33L20 32L21 32L21 31L22 31L22 32L23 32L23 33L22 33L22 35L23 35L23 34L24 34L24 36L23 36L23 37L24 37L24 38L23 38L23 40L24 40L24 41L23 41L23 42L24 42L24 41L26 41L26 42L25 42L25 44L24 44L24 43L23 43L23 47L24 47L24 48L26 48L26 47L24 47L24 46L25 46L25 45L26 45L26 43L27 43L27 44L28 44L28 43L29 43L29 42L28 42L28 43L27 43L27 41L28 41L28 39L30 39L30 38L31 38L31 37L32 37L32 38L33 38L33 40L35 40L35 41L36 41L36 42L34 42L34 41L32 41L32 42L33 42L33 43L32 43L32 45L33 45L33 46L32 46L32 47L33 47L33 48L36 48L36 47L37 47L37 48L38 48L38 45L37 45L37 46L36 46L36 45L35 45L35 46L34 46L34 45L33 45L33 43L34 43L34 44L35 44L35 43L36 43L36 44L40 44L40 45L39 45L39 46L40 46L40 47L39 47L39 48L40 48L40 47L41 47L41 48L42 48L42 49L41 49L41 50L39 50L39 51L40 51L40 52L41 52L41 53L42 53L42 54L43 54L43 53L44 53L44 56L43 56L43 57L44 57L44 56L46 56L46 54L45 54L45 53L47 53L47 54L48 54L48 53L49 53L49 54L50 54L50 53L49 53L49 51L50 51L50 52L51 52L51 51L52 51L52 50L51 50L51 51L50 51L50 49L49 49L49 48L48 48L48 47L47 47L47 48L48 48L48 49L47 49L47 51L46 51L46 52L45 52L45 49L46 49L46 47L45 47L45 49L44 49L44 43L45 43L45 42L44 42L44 40L41 40L41 39L40 39L40 36L41 36L41 34L43 34L43 33L44 33L44 36L43 36L43 37L41 37L41 38L43 38L43 39L45 39L45 40L47 40L47 41L49 41L49 42L46 42L46 44L45 44L45 45L46 45L46 44L47 44L47 46L49 46L49 47L51 47L51 48L52 48L52 46L54 46L54 47L55 47L55 46L56 46L56 48L57 48L57 46L56 46L56 43L57 43L57 41L59 41L59 42L60 42L60 41L59 41L59 39L58 39L58 38L56 38L56 35L51 35L51 34L50 34L50 33L52 33L52 32L53 32L53 31L52 31L52 32L50 32L50 31L49 31L49 30L50 30L50 29L51 29L51 30L52 30L52 28L53 28L53 30L55 30L55 32L57 32L57 31L58 31L58 30L57 30L57 31L56 31L56 30L55 30L55 29L56 29L56 28L57 28L57 27L56 27L56 26L57 26L57 25L58 25L58 24L57 24L57 25L56 25L56 24L53 24L53 27L52 27L52 28L50 28L50 27L49 27L49 26L50 26L50 25L51 25L51 24L50 24L50 25L49 25L49 24L48 24L48 23L49 23L49 22L50 22L50 21L51 21L51 23L56 23L56 22L57 22L57 23L58 23L58 22L57 22L57 21L59 21L59 24L60 24L60 23L61 23L61 24L62 24L62 23L61 23L61 22L62 22L62 20L59 20L59 19L58 19L58 20L57 20L57 21L56 21L56 20L55 20L55 21L53 21L53 22L52 22L52 21L51 21L51 20L53 20L53 19L56 19L56 14L57 14L57 17L59 17L59 16L58 16L58 14L57 14L57 13L55 13L55 12L58 12L58 10L57 10L57 9L56 9L56 8L55 8L55 9L53 9L53 12L54 12L54 13L53 13L53 14L54 14L54 15L55 15L55 17L54 17L54 16L53 16L53 18L51 18L51 20L50 20L50 17L51 17L51 15L52 15L52 14L51 14L51 15L50 15L50 17L49 17L49 15L47 15L47 16L45 16L45 13L46 13L46 12L45 12L45 11L44 11L44 12L43 12L43 13L42 13L42 14L41 14L41 12L42 12L42 10L45 10L45 9L46 9L46 7ZM53 7L53 8L54 8L54 7ZM50 8L50 9L51 9L51 8ZM63 8L63 9L64 9L64 8ZM6 9L6 10L7 10L7 9ZM55 9L55 10L56 10L56 9ZM67 9L67 10L68 10L68 9ZM33 10L33 11L36 11L36 10ZM65 10L65 11L66 11L66 10ZM18 11L18 12L19 12L19 11ZM50 11L50 13L49 13L49 12L47 12L47 14L50 14L50 13L51 13L51 11ZM6 12L6 13L7 13L7 12ZM44 12L44 13L43 13L43 14L44 14L44 13L45 13L45 12ZM59 12L59 13L60 13L60 12ZM17 13L17 14L18 14L18 13ZM19 13L19 14L21 14L21 13ZM27 15L27 16L28 16L28 15ZM33 15L33 16L34 16L34 15ZM44 16L44 17L43 17L43 20L42 20L42 19L41 19L41 20L40 20L40 19L39 19L39 22L37 22L37 24L38 24L38 26L41 26L41 25L42 25L42 24L41 24L41 20L42 20L42 21L43 21L43 20L44 20L44 22L42 22L42 23L43 23L43 24L44 24L44 25L43 25L43 26L46 26L46 27L43 27L43 28L44 28L44 29L43 29L43 30L42 30L42 27L38 27L38 28L37 28L37 29L38 29L38 30L37 30L37 31L35 31L35 32L37 32L37 33L38 33L38 35L37 35L37 36L38 36L38 37L34 37L34 38L38 38L38 39L37 39L37 41L38 41L38 43L40 43L40 44L41 44L41 43L40 43L40 41L41 41L41 40L39 40L39 41L38 41L38 39L39 39L39 36L40 36L40 33L43 33L43 32L44 32L44 33L45 33L45 36L44 36L44 37L45 37L45 38L48 38L48 39L47 39L47 40L48 40L48 39L49 39L49 40L50 40L50 43L48 43L48 44L50 44L50 46L51 46L51 45L53 45L53 44L54 44L54 42L51 42L51 41L55 41L55 43L56 43L56 41L57 41L57 39L56 39L56 38L55 38L55 39L56 39L56 41L55 41L55 40L53 40L53 39L54 39L54 38L53 38L53 37L54 37L54 36L51 36L51 37L50 37L50 38L49 38L49 37L48 37L48 36L49 36L49 35L48 35L48 36L47 36L47 34L48 34L48 33L45 33L45 32L44 32L44 30L47 30L47 29L45 29L45 28L49 28L49 27L47 27L47 25L48 25L48 24L47 24L47 23L48 23L48 22L49 22L49 21L48 21L48 22L47 22L47 21L46 21L46 20L47 20L47 18L48 18L48 17L45 17L45 16ZM19 18L19 19L20 19L20 18ZM44 18L44 19L46 19L46 18ZM3 19L3 21L4 21L4 22L5 22L5 19ZM26 19L26 22L24 22L24 23L23 23L23 24L24 24L24 23L26 23L26 24L25 24L25 25L27 25L27 26L25 26L25 27L27 27L27 28L26 28L26 29L25 29L25 28L24 28L24 27L23 27L23 28L22 28L22 27L21 27L21 25L22 25L22 26L24 26L24 25L22 25L22 24L21 24L21 23L22 23L22 22L21 22L21 23L20 23L20 22L19 22L19 21L17 21L17 22L18 22L18 23L19 23L19 24L21 24L21 25L18 25L18 27L17 27L17 28L19 28L19 29L18 29L18 30L19 30L19 29L20 29L20 30L22 30L22 31L23 31L23 32L26 32L26 31L23 31L23 30L22 30L22 29L25 29L25 30L27 30L27 29L28 29L28 30L29 30L29 31L28 31L28 33L25 33L25 36L24 36L24 37L25 37L25 38L24 38L24 40L26 40L26 41L27 41L27 40L26 40L26 39L27 39L27 38L30 38L30 37L29 37L29 36L31 36L31 35L32 35L32 33L31 33L31 34L30 34L30 33L29 33L29 32L31 32L31 31L30 31L30 30L29 30L29 29L28 29L28 28L31 28L31 29L32 29L32 28L31 28L31 27L33 27L33 30L32 30L32 32L34 32L34 31L33 31L33 30L34 30L34 29L36 29L36 28L35 28L35 27L36 27L36 26L34 26L34 25L32 25L32 24L31 24L31 25L32 25L32 26L29 26L29 25L30 25L30 24L29 24L29 25L28 25L28 24L27 24L27 23L30 23L30 22L31 22L31 21L30 21L30 22L29 22L29 21L27 21L27 19ZM48 19L48 20L49 20L49 19ZM37 20L37 21L38 21L38 20ZM55 21L55 22L56 22L56 21ZM9 22L9 23L10 23L10 22ZM13 22L13 23L14 23L14 22ZM44 22L44 23L45 23L45 24L46 24L46 25L47 25L47 24L46 24L46 22ZM38 23L38 24L40 24L40 23ZM15 25L15 26L16 26L16 25ZM55 25L55 26L56 26L56 25ZM6 26L6 27L8 27L8 26ZM19 26L19 28L21 28L21 29L22 29L22 28L21 28L21 27L20 27L20 26ZM14 27L14 28L16 28L16 27ZM53 27L53 28L54 28L54 29L55 29L55 28L56 28L56 27L55 27L55 28L54 28L54 27ZM4 28L4 29L5 29L5 28ZM39 28L39 29L40 29L40 28ZM6 29L6 30L9 30L9 29ZM48 29L48 30L49 30L49 29ZM38 30L38 31L37 31L37 32L38 32L38 33L39 33L39 32L43 32L43 31L40 31L40 30ZM46 31L46 32L47 32L47 31ZM63 31L63 32L64 32L64 31ZM17 32L17 33L16 33L16 34L17 34L17 33L18 33L18 32ZM5 33L5 36L8 36L8 33ZM28 33L28 34L26 34L26 36L25 36L25 37L26 37L26 36L27 36L27 35L28 35L28 36L29 36L29 33ZM33 33L33 36L36 36L36 33ZM53 33L53 34L57 34L57 33ZM61 33L61 36L64 36L64 33ZM2 34L2 35L1 35L1 36L2 36L2 35L4 35L4 34ZM6 34L6 35L7 35L7 34ZM34 34L34 35L35 35L35 34ZM62 34L62 35L63 35L63 34ZM65 34L65 35L66 35L66 34ZM9 35L9 36L10 36L10 37L11 37L11 36L10 36L10 35ZM67 35L67 36L68 36L68 35ZM3 36L3 37L4 37L4 39L3 39L3 38L2 38L2 37L1 37L1 38L2 38L2 39L3 39L3 41L5 41L5 40L4 40L4 39L5 39L5 37L4 37L4 36ZM45 36L45 37L47 37L47 36ZM51 37L51 38L52 38L52 37ZM65 38L65 39L66 39L66 38ZM31 39L31 40L32 40L32 39ZM50 39L50 40L51 40L51 39ZM29 40L29 41L30 41L30 43L31 43L31 41L30 41L30 40ZM61 40L61 41L63 41L63 42L64 42L64 43L65 43L65 42L64 42L64 41L63 41L63 40ZM6 41L6 42L7 42L7 41ZM36 42L36 43L37 43L37 42ZM43 42L43 43L44 43L44 42ZM19 43L19 44L17 44L17 45L18 45L18 46L16 46L16 48L15 48L15 45L14 45L14 48L15 48L15 49L14 49L14 50L13 50L13 51L12 51L12 52L13 52L13 53L11 53L11 54L13 54L13 53L14 53L14 50L15 50L15 49L18 49L18 48L17 48L17 47L18 47L18 46L20 46L20 47L19 47L19 48L20 48L20 47L21 47L21 48L22 48L22 47L21 47L21 46L20 46L20 45L19 45L19 44L20 44L20 43ZM21 43L21 44L22 44L22 43ZM50 43L50 44L51 44L51 43ZM61 43L61 44L62 44L62 45L60 45L60 46L59 46L59 47L58 47L58 48L59 48L59 47L61 47L61 48L62 48L62 49L64 49L64 47L63 47L63 48L62 48L62 45L64 45L64 44L63 44L63 43ZM5 44L5 45L3 45L3 46L5 46L5 45L8 45L8 47L9 47L9 48L10 48L10 46L9 46L9 45L8 45L8 44ZM29 44L29 45L31 45L31 44ZM58 44L58 45L59 45L59 44ZM41 45L41 46L42 46L42 48L43 48L43 46L42 46L42 45ZM27 46L27 47L28 47L28 48L29 48L29 49L31 49L31 48L30 48L30 47L31 47L31 46ZM35 46L35 47L36 47L36 46ZM8 49L8 50L9 50L9 49ZM27 49L27 50L28 50L28 49ZM37 49L37 50L38 50L38 49ZM43 49L43 50L44 50L44 49ZM48 49L48 50L49 50L49 49ZM6 50L6 51L7 51L7 50ZM16 50L16 51L18 51L18 50ZM41 50L41 51L42 51L42 50ZM1 51L1 52L2 52L2 51ZM27 51L27 52L28 52L28 51ZM43 51L43 52L42 52L42 53L43 53L43 52L44 52L44 53L45 53L45 52L44 52L44 51ZM47 51L47 52L48 52L48 51ZM62 52L62 53L63 53L63 52ZM1 53L1 54L2 54L2 53ZM27 53L27 54L26 54L26 55L27 55L27 54L28 54L28 53ZM6 54L6 55L7 55L7 54ZM54 54L54 55L56 55L56 58L55 58L55 59L56 59L56 61L55 61L55 62L54 62L54 63L53 63L53 64L55 64L55 63L58 63L58 62L60 62L60 60L61 60L61 58L60 58L60 59L59 59L59 57L60 57L60 56L58 56L58 57L57 57L57 55L56 55L56 54ZM15 55L15 56L14 56L14 57L13 57L13 58L16 58L16 57L17 57L17 58L18 58L18 57L17 57L17 55ZM32 55L32 56L33 56L33 55ZM36 55L36 56L37 56L37 55ZM0 56L0 57L1 57L1 56ZM15 56L15 57L16 57L16 56ZM2 57L2 59L3 59L3 57ZM63 57L63 58L62 58L62 60L63 60L63 58L67 58L67 57ZM0 58L0 61L1 61L1 58ZM33 58L33 59L36 59L36 58ZM45 58L45 59L46 59L46 58ZM15 59L15 60L16 60L16 59ZM57 59L57 60L58 60L58 59ZM3 60L3 61L5 61L5 60ZM8 61L8 63L10 63L10 62L9 62L9 61ZM33 61L33 64L36 64L36 61ZM56 61L56 62L58 62L58 61ZM61 61L61 64L64 64L64 61ZM34 62L34 63L35 63L35 62ZM62 62L62 63L63 63L63 62ZM65 62L65 63L66 63L66 62ZM27 63L27 64L28 64L28 65L29 65L29 66L30 66L30 65L29 65L29 64L30 64L30 63L29 63L29 64L28 64L28 63ZM49 63L49 64L47 64L47 65L49 65L49 66L50 66L50 65L49 65L49 64L50 64L50 63ZM37 64L37 65L38 65L38 64ZM44 64L44 66L45 66L45 67L46 67L46 66L45 66L45 64ZM65 64L65 65L67 65L67 64ZM31 65L31 66L32 66L32 65ZM33 65L33 66L34 66L34 67L36 67L36 66L35 66L35 65ZM62 65L62 66L61 66L61 67L62 67L62 66L64 66L64 65ZM9 66L9 67L10 67L10 66ZM24 66L24 67L25 67L25 66ZM50 67L50 69L51 69L51 68L52 68L52 67ZM59 67L59 68L60 68L60 67ZM0 0L0 7L7 7L7 0ZM1 1L1 6L6 6L6 1ZM2 2L2 5L5 5L5 2ZM62 0L62 7L69 7L69 0ZM63 1L63 6L68 6L68 1ZM64 2L64 5L67 5L67 2ZM0 62L0 69L7 69L7 62ZM1 63L1 68L6 68L6 63ZM2 64L2 67L5 67L5 64Z" fill="#000000"/></g></g></svg>
