<?xml version="1.0" encoding="UTF-8"?>
<svg xmlns="http://www.w3.org/2000/svg" version="1.1" width="300" height="300" viewBox="0 0 300 300"><rect x="0" y="0" width="300" height="300" fill="#ffffff"/><g transform="scale(4.348)"><g transform="translate(0,0)"><path fill-rule="evenodd" d="M10 0L10 1L8 1L8 2L10 2L10 3L8 3L8 4L10 4L10 3L11 3L11 0ZM13 0L13 1L14 1L14 2L13 2L13 3L14 3L14 2L15 2L15 3L16 3L16 7L17 7L17 9L18 9L18 10L20 10L20 8L21 8L21 9L22 9L22 8L21 8L21 6L22 6L22 7L23 7L23 8L24 8L24 9L23 9L23 10L22 10L22 11L21 11L21 12L20 12L20 11L19 11L19 12L18 12L18 11L17 11L17 12L16 12L16 9L13 9L13 12L12 12L12 11L11 11L11 10L10 10L10 11L9 11L9 8L10 8L10 9L12 9L12 8L13 8L13 6L12 6L12 5L10 5L10 7L9 7L9 5L8 5L8 7L9 7L9 8L6 8L6 9L5 9L5 8L0 8L0 9L1 9L1 11L0 11L0 12L1 12L1 13L0 13L0 14L1 14L1 15L0 15L0 16L3 16L3 17L2 17L2 18L1 18L1 19L2 19L2 21L1 21L1 20L0 20L0 21L1 21L1 22L5 22L5 20L4 20L4 18L5 18L5 19L7 19L7 20L6 20L6 21L7 21L7 20L9 20L9 21L8 21L8 23L11 23L11 24L12 24L12 25L13 25L13 26L14 26L14 27L13 27L13 28L12 28L12 29L11 29L11 30L10 30L10 28L9 28L9 27L8 27L8 28L6 28L6 27L7 27L7 26L6 26L6 25L7 25L7 24L6 24L6 23L7 23L7 22L6 22L6 23L4 23L4 24L3 24L3 23L0 23L0 25L1 25L1 26L0 26L0 27L1 27L1 29L0 29L0 30L4 30L4 34L3 34L3 33L2 33L2 34L1 34L1 35L0 35L0 36L1 36L1 35L2 35L2 37L1 37L1 39L0 39L0 40L1 40L1 39L3 39L3 38L2 38L2 37L3 37L3 35L4 35L4 37L7 37L7 38L6 38L6 39L5 39L5 38L4 38L4 40L6 40L6 41L7 41L7 42L6 42L6 43L7 43L7 42L8 42L8 40L9 40L9 38L10 38L10 39L11 39L11 38L10 38L10 37L11 37L11 36L10 36L10 37L9 37L9 32L10 32L10 35L12 35L12 36L13 36L13 34L14 34L14 35L15 35L15 37L13 37L13 39L12 39L12 40L13 40L13 39L14 39L14 38L15 38L15 37L16 37L16 36L17 36L17 37L19 37L19 38L18 38L18 39L20 39L20 40L17 40L17 45L18 45L18 46L17 46L17 47L16 47L16 48L14 48L14 50L15 50L15 51L12 51L12 49L11 49L11 48L13 48L13 45L14 45L14 46L15 46L15 45L16 45L16 43L15 43L15 44L13 44L13 43L12 43L12 46L11 46L11 48L9 48L9 50L10 50L10 52L9 52L9 53L7 53L7 52L8 52L8 51L7 51L7 50L8 50L8 49L7 49L7 48L6 48L6 47L7 47L7 46L8 46L8 47L9 47L9 46L10 46L10 45L11 45L11 42L10 42L10 43L8 43L8 45L7 45L7 44L6 44L6 45L7 45L7 46L6 46L6 47L5 47L5 48L4 48L4 47L2 47L2 43L3 43L3 46L4 46L4 45L5 45L5 41L3 41L3 40L2 40L2 41L0 41L0 42L2 42L2 43L0 43L0 44L1 44L1 45L0 45L0 46L1 46L1 47L0 47L0 48L1 48L1 47L2 47L2 48L4 48L4 49L5 49L5 48L6 48L6 49L7 49L7 50L6 50L6 51L7 51L7 52L5 52L5 53L3 53L3 54L4 54L4 55L7 55L7 56L6 56L6 57L5 57L5 58L4 58L4 59L7 59L7 60L6 60L6 61L7 61L7 60L8 60L8 59L7 59L7 58L6 58L6 57L9 57L9 58L10 58L10 59L9 59L9 60L10 60L10 62L11 62L11 63L9 63L9 61L8 61L8 63L9 63L9 64L8 64L8 69L9 69L9 68L10 68L10 69L11 69L11 68L12 68L12 67L13 67L13 68L15 68L15 69L16 69L16 68L17 68L17 69L22 69L22 68L19 68L19 67L20 67L20 66L19 66L19 65L20 65L20 63L19 63L19 62L20 62L20 59L21 59L21 60L23 60L23 61L24 61L24 62L23 62L23 63L22 63L22 64L23 64L23 66L22 66L22 67L23 67L23 69L24 69L24 68L26 68L26 67L28 67L28 68L27 68L27 69L32 69L32 68L31 68L31 67L34 67L34 66L33 66L33 65L35 65L35 68L34 68L34 69L35 69L35 68L36 68L36 69L38 69L38 68L37 68L37 67L39 67L39 66L38 66L38 65L39 65L39 64L41 64L41 66L40 66L40 67L41 67L41 66L44 66L44 68L41 68L41 69L44 69L44 68L47 68L47 69L49 69L49 66L50 66L50 65L51 65L51 66L53 66L53 67L54 67L54 68L53 68L53 69L54 69L54 68L55 68L55 69L56 69L56 68L57 68L57 69L58 69L58 66L57 66L57 65L58 65L58 64L59 64L59 69L61 69L61 68L62 68L62 69L65 69L65 68L67 68L67 69L68 69L68 68L67 68L67 67L63 67L63 68L62 68L62 66L61 66L61 65L63 65L63 66L67 66L67 65L69 65L69 63L68 63L68 60L67 60L67 59L68 59L68 58L69 58L69 56L68 56L68 54L69 54L69 53L66 53L66 52L68 52L68 50L69 50L69 49L68 49L68 48L69 48L69 47L68 47L68 45L67 45L67 43L68 43L68 44L69 44L69 43L68 43L68 42L69 42L69 39L68 39L68 36L69 36L69 35L68 35L68 34L69 34L69 33L68 33L68 34L65 34L65 33L66 33L66 32L67 32L67 31L65 31L65 30L62 30L62 29L61 29L61 28L62 28L62 27L64 27L64 28L63 28L63 29L64 29L64 28L65 28L65 29L66 29L66 28L67 28L67 27L68 27L68 29L67 29L67 30L69 30L69 27L68 27L68 25L69 25L69 24L68 24L68 18L69 18L69 17L67 17L67 15L68 15L68 16L69 16L69 15L68 15L68 14L69 14L69 13L68 13L68 14L63 14L63 15L62 15L62 13L63 13L63 12L67 12L67 10L69 10L69 9L68 9L68 8L67 8L67 9L66 9L66 8L65 8L65 9L64 9L64 8L63 8L63 9L64 9L64 10L63 10L63 11L62 11L62 8L61 8L61 6L60 6L60 7L59 7L59 4L57 4L57 5L56 5L56 3L59 3L59 2L58 2L58 1L61 1L61 0L58 0L58 1L57 1L57 2L56 2L56 1L55 1L55 0L53 0L53 1L51 1L51 2L50 2L50 0L49 0L49 1L48 1L48 2L49 2L49 3L47 3L47 4L49 4L49 5L47 5L47 6L46 6L46 5L44 5L44 3L45 3L45 4L46 4L46 3L45 3L45 2L44 2L44 3L43 3L43 0L39 0L39 1L38 1L38 0L37 0L37 1L35 1L35 3L33 3L33 1L34 1L34 0L33 0L33 1L32 1L32 0L30 0L30 1L32 1L32 3L29 3L29 0L28 0L28 1L27 1L27 2L26 2L26 1L25 1L25 0L21 0L21 1L24 1L24 2L25 2L25 4L21 4L21 3L23 3L23 2L21 2L21 3L20 3L20 4L19 4L19 3L18 3L18 2L17 2L17 1L19 1L19 2L20 2L20 1L19 1L19 0L17 0L17 1L16 1L16 0L15 0L15 1L14 1L14 0ZM44 0L44 1L45 1L45 0ZM37 1L37 3L38 3L38 4L37 4L37 5L38 5L38 6L37 6L37 7L38 7L38 6L39 6L39 7L40 7L40 6L41 6L41 8L37 8L37 9L38 9L38 10L36 10L36 9L35 9L35 10L34 10L34 9L32 9L32 8L31 8L31 7L32 7L32 5L30 5L30 6L29 6L29 7L28 7L28 5L29 5L29 3L28 3L28 2L27 2L27 3L26 3L26 5L22 5L22 6L23 6L23 7L24 7L24 6L25 6L25 8L26 8L26 9L24 9L24 10L23 10L23 11L24 11L24 12L21 12L21 13L20 13L20 12L19 12L19 13L20 13L20 15L19 15L19 14L18 14L18 13L13 13L13 14L9 14L9 15L5 15L5 13L6 13L6 14L7 14L7 13L6 13L6 12L8 12L8 13L9 13L9 11L6 11L6 10L8 10L8 9L6 9L6 10L5 10L5 11L4 11L4 10L2 10L2 11L1 11L1 12L2 12L2 14L3 14L3 12L4 12L4 15L3 15L3 16L4 16L4 17L3 17L3 18L2 18L2 19L3 19L3 18L4 18L4 17L5 17L5 18L8 18L8 19L10 19L10 21L11 21L11 18L15 18L15 17L16 17L16 19L15 19L15 20L14 20L14 19L13 19L13 21L12 21L12 22L11 22L11 23L12 23L12 22L13 22L13 24L14 24L14 26L16 26L16 25L17 25L17 24L18 24L18 23L19 23L19 21L20 21L20 22L21 22L21 23L20 23L20 26L18 26L18 27L17 27L17 28L16 28L16 27L15 27L15 28L14 28L14 29L13 29L13 30L11 30L11 31L12 31L12 32L11 32L11 34L13 34L13 33L12 33L12 32L13 32L13 31L15 31L15 32L14 32L14 34L17 34L17 35L18 35L18 34L17 34L17 33L18 33L18 32L17 32L17 31L18 31L18 29L17 29L17 28L19 28L19 29L20 29L20 33L19 33L19 34L20 34L20 35L19 35L19 36L20 36L20 39L21 39L21 40L20 40L20 42L19 42L19 43L18 43L18 44L19 44L19 43L20 43L20 44L21 44L21 45L19 45L19 46L18 46L18 47L17 47L17 48L16 48L16 49L15 49L15 50L17 50L17 52L19 52L19 51L20 51L20 50L19 50L19 51L18 51L18 49L21 49L21 51L22 51L22 52L20 52L20 55L19 55L19 56L20 56L20 58L19 58L19 59L17 59L17 60L16 60L16 59L15 59L15 58L16 58L16 57L17 57L17 58L18 58L18 57L17 57L17 56L18 56L18 55L17 55L17 54L18 54L18 53L16 53L16 52L15 52L15 55L14 55L14 53L13 53L13 52L12 52L12 51L11 51L11 52L10 52L10 53L9 53L9 54L8 54L8 55L11 55L11 57L12 57L12 58L13 58L13 60L11 60L11 62L13 62L13 63L14 63L14 64L15 64L15 66L16 66L16 67L15 67L15 68L16 68L16 67L17 67L17 68L18 68L18 67L19 67L19 66L17 66L17 65L18 65L18 64L17 64L17 65L16 65L16 63L18 63L18 62L19 62L19 61L17 61L17 60L19 60L19 59L20 59L20 58L21 58L21 59L23 59L23 60L24 60L24 61L25 61L25 62L24 62L24 63L25 63L25 64L26 64L26 63L25 63L25 62L26 62L26 61L28 61L28 62L29 62L29 61L28 61L28 60L30 60L30 59L29 59L29 57L30 57L30 56L29 56L29 55L30 55L30 53L27 53L27 52L26 52L26 53L25 53L25 52L24 52L24 51L28 51L28 52L32 52L32 53L33 53L33 54L31 54L31 56L32 56L32 57L31 57L31 60L32 60L32 57L34 57L34 59L35 59L35 57L36 57L36 56L33 56L33 55L35 55L35 54L37 54L37 56L39 56L39 57L38 57L38 58L36 58L36 59L37 59L37 60L38 60L38 62L37 62L37 63L38 63L38 64L39 64L39 63L41 63L41 64L44 64L44 66L45 66L45 67L46 67L46 66L47 66L47 64L49 64L49 65L50 65L50 64L51 64L51 65L53 65L53 64L51 64L51 62L52 62L52 63L53 63L53 62L54 62L54 63L56 63L56 65L55 65L55 64L54 64L54 65L55 65L55 67L57 67L57 66L56 66L56 65L57 65L57 63L58 63L58 62L59 62L59 63L60 63L60 62L59 62L59 61L60 61L60 60L61 60L61 59L63 59L63 60L65 60L65 61L66 61L66 60L65 60L65 59L67 59L67 58L68 58L68 56L67 56L67 57L66 57L66 56L62 56L62 55L65 55L65 51L66 51L66 50L65 50L65 49L67 49L67 48L68 48L68 47L67 47L67 48L65 48L65 49L64 49L64 48L62 48L62 47L66 47L66 44L61 44L61 43L66 43L66 42L67 42L67 41L68 41L68 39L67 39L67 38L65 38L65 37L64 37L64 38L63 38L63 37L62 37L62 38L60 38L60 37L57 37L57 36L58 36L58 34L59 34L59 33L58 33L58 32L56 32L56 33L55 33L55 34L52 34L52 33L53 33L53 32L54 32L54 31L53 31L53 30L52 30L52 31L53 31L53 32L51 32L51 29L55 29L55 30L56 30L56 31L57 31L57 30L59 30L59 31L60 31L60 30L59 30L59 29L57 29L57 28L58 28L58 27L59 27L59 28L61 28L61 27L60 27L60 26L59 26L59 25L61 25L61 23L62 23L62 26L65 26L65 24L64 24L64 23L63 23L63 21L64 21L64 22L65 22L65 23L67 23L67 22L66 22L66 21L67 21L67 20L66 20L66 21L65 21L65 18L66 18L66 19L67 19L67 18L66 18L66 16L65 16L65 15L64 15L64 16L62 16L62 15L61 15L61 14L59 14L59 13L62 13L62 12L58 12L58 11L59 11L59 10L60 10L60 11L61 11L61 10L60 10L60 9L61 9L61 8L60 8L60 9L58 9L58 8L59 8L59 7L58 7L58 5L57 5L57 7L58 7L58 8L56 8L56 9L55 9L55 8L52 8L52 6L53 6L53 7L54 7L54 6L53 6L53 4L54 4L54 3L53 3L53 2L54 2L54 1L53 1L53 2L52 2L52 3L51 3L51 4L50 4L50 3L49 3L49 4L50 4L50 5L49 5L49 9L50 9L50 10L52 10L52 12L51 12L51 13L50 13L50 15L49 15L49 14L47 14L47 12L49 12L49 10L47 10L47 7L48 7L48 6L47 6L47 7L46 7L46 6L45 6L45 7L44 7L44 5L43 5L43 7L42 7L42 6L41 6L41 5L39 5L39 4L43 4L43 3L39 3L39 2L38 2L38 1ZM41 1L41 2L42 2L42 1ZM46 1L46 2L47 2L47 1ZM55 2L55 3L56 3L56 2ZM32 3L32 4L33 4L33 3ZM35 3L35 4L36 4L36 3ZM60 3L60 5L61 5L61 3ZM13 4L13 5L14 5L14 7L15 7L15 5L14 5L14 4ZM17 4L17 5L19 5L19 7L18 7L18 6L17 6L17 7L18 7L18 8L19 8L19 7L20 7L20 5L21 5L21 4L20 4L20 5L19 5L19 4ZM33 5L33 8L36 8L36 5ZM11 6L11 7L10 7L10 8L12 8L12 6ZM26 6L26 7L27 7L27 6ZM30 6L30 7L31 7L31 6ZM34 6L34 7L35 7L35 6ZM50 6L50 7L51 7L51 6ZM55 6L55 7L56 7L56 6ZM45 7L45 9L44 9L44 8L43 8L43 9L40 9L40 10L39 10L39 12L40 12L40 13L39 13L39 14L38 14L38 11L37 11L37 13L36 13L36 12L34 12L34 13L33 13L33 14L31 14L31 13L32 13L32 12L29 12L29 13L30 13L30 14L28 14L28 15L30 15L30 16L29 16L29 18L34 18L34 19L36 19L36 20L35 20L35 21L37 21L37 22L34 22L34 21L33 21L33 20L32 20L32 19L29 19L29 20L30 20L30 21L29 21L29 22L27 22L27 21L28 21L28 19L26 19L26 17L24 17L24 16L26 16L26 15L25 15L25 14L27 14L27 13L25 13L25 12L26 12L26 11L25 11L25 12L24 12L24 13L21 13L21 15L22 15L22 14L24 14L24 15L23 15L23 18L21 18L21 17L18 17L18 16L17 16L17 17L18 17L18 18L20 18L20 19L18 19L18 20L15 20L15 22L14 22L14 21L13 21L13 22L14 22L14 24L15 24L15 25L16 25L16 21L17 21L17 22L18 22L18 21L19 21L19 20L22 20L22 19L23 19L23 22L22 22L22 23L21 23L21 24L22 24L22 25L21 25L21 26L20 26L20 29L21 29L21 28L22 28L22 27L24 27L24 28L23 28L23 31L22 31L22 32L21 32L21 33L22 33L22 34L21 34L21 36L23 36L23 34L24 34L24 35L26 35L26 34L25 34L25 33L28 33L28 34L27 34L27 35L28 35L28 36L29 36L29 38L27 38L27 37L25 37L25 36L24 36L24 37L23 37L23 39L24 39L24 41L23 41L23 42L24 42L24 41L25 41L25 42L26 42L26 44L24 44L24 43L23 43L23 44L24 44L24 45L23 45L23 46L24 46L24 47L23 47L23 49L22 49L22 50L26 50L26 49L25 49L25 48L26 48L26 47L25 47L25 46L26 46L26 44L27 44L27 45L28 45L28 43L31 43L31 44L29 44L29 46L28 46L28 47L27 47L27 48L28 48L28 47L30 47L30 48L29 48L29 49L30 49L30 50L32 50L32 52L33 52L33 53L34 53L34 52L33 52L33 51L34 51L34 49L33 49L33 48L32 48L32 49L31 49L31 44L32 44L32 45L33 45L33 41L32 41L32 43L31 43L31 41L30 41L30 40L29 40L29 39L30 39L30 38L33 38L33 39L32 39L32 40L35 40L35 41L34 41L34 42L35 42L35 43L34 43L34 44L36 44L36 45L37 45L37 46L36 46L36 47L35 47L35 46L34 46L34 47L35 47L35 48L36 48L36 47L38 47L38 49L37 49L37 50L36 50L36 49L35 49L35 53L37 53L37 54L39 54L39 56L41 56L41 57L39 57L39 58L38 58L38 59L39 59L39 62L38 62L38 63L39 63L39 62L40 62L40 59L41 59L41 58L42 58L42 60L41 60L41 62L42 62L42 63L43 63L43 61L44 61L44 64L45 64L45 66L46 66L46 64L45 64L45 61L46 61L46 60L45 60L45 61L44 61L44 59L43 59L43 57L44 57L44 56L46 56L46 57L47 57L47 58L48 58L48 57L49 57L49 60L47 60L47 62L46 62L46 63L47 63L47 62L50 62L50 57L49 57L49 56L50 56L50 52L49 52L49 51L52 51L52 52L53 52L53 53L51 53L51 54L52 54L52 55L53 55L53 56L54 56L54 58L53 58L53 57L52 57L52 58L53 58L53 59L52 59L52 60L53 60L53 61L54 61L54 62L55 62L55 61L56 61L56 60L55 60L55 61L54 61L54 60L53 60L53 59L54 59L54 58L55 58L55 59L57 59L57 60L60 60L60 59L61 59L61 57L60 57L60 59L59 59L59 58L57 58L57 57L59 57L59 55L62 55L62 52L63 52L63 53L64 53L64 51L62 51L62 50L63 50L63 49L62 49L62 48L61 48L61 49L60 49L60 50L56 50L56 51L57 51L57 54L58 54L58 55L56 55L56 56L55 56L55 55L54 55L54 54L55 54L55 53L56 53L56 52L54 52L54 51L55 51L55 49L56 49L56 48L55 48L55 49L54 49L54 48L53 48L53 49L52 49L52 50L49 50L49 48L50 48L50 49L51 49L51 48L50 48L50 47L51 47L51 46L52 46L52 45L51 45L51 46L49 46L49 45L50 45L50 44L48 44L48 43L49 43L49 42L50 42L50 43L51 43L51 44L54 44L54 45L53 45L53 46L55 46L55 47L57 47L57 49L59 49L59 47L58 47L58 46L57 46L57 45L59 45L59 46L61 46L61 47L62 47L62 46L63 46L63 45L62 45L62 46L61 46L61 44L60 44L60 45L59 45L59 43L58 43L58 42L57 42L57 45L56 45L56 42L55 42L55 41L56 41L56 40L55 40L55 39L57 39L57 41L59 41L59 42L60 42L60 43L61 43L61 42L62 42L62 41L63 41L63 40L64 40L64 41L67 41L67 39L61 39L61 40L60 40L60 41L59 41L59 40L58 40L58 39L57 39L57 37L56 37L56 34L57 34L57 33L56 33L56 34L55 34L55 37L51 37L51 36L52 36L52 35L51 35L51 36L49 36L49 34L50 34L50 33L51 33L51 32L50 32L50 29L49 29L49 28L50 28L50 27L51 27L51 26L50 26L50 25L49 25L49 24L48 24L48 23L49 23L49 22L50 22L50 23L51 23L51 24L53 24L53 25L52 25L52 27L53 27L53 28L55 28L55 29L56 29L56 26L57 26L57 27L58 27L58 26L57 26L57 25L59 25L59 24L57 24L57 25L56 25L56 24L55 24L55 23L56 23L56 22L57 22L57 23L58 23L58 22L57 22L57 21L59 21L59 22L62 22L62 21L61 21L61 20L57 20L57 19L58 19L58 18L57 18L57 17L56 17L56 16L58 16L58 17L59 17L59 18L60 18L60 19L61 19L61 18L62 18L62 20L64 20L64 19L63 19L63 18L65 18L65 17L63 17L63 18L62 18L62 16L61 16L61 15L59 15L59 16L58 16L58 14L57 14L57 15L56 15L56 16L55 16L55 14L56 14L56 13L55 13L55 12L57 12L57 11L58 11L58 10L57 10L57 9L56 9L56 10L55 10L55 9L52 9L52 8L50 8L50 9L52 9L52 10L53 10L53 12L54 12L54 13L52 13L52 14L54 14L54 15L50 15L50 17L49 17L49 16L48 16L48 15L47 15L47 16L48 16L48 18L44 18L44 19L48 19L48 20L46 20L46 21L47 21L47 24L46 24L46 22L44 22L44 20L43 20L43 17L44 17L44 16L45 16L45 17L46 17L46 14L45 14L45 15L44 15L44 16L42 16L42 17L41 17L41 18L39 18L39 19L37 19L37 18L38 18L38 17L37 17L37 16L40 16L40 15L42 15L42 14L44 14L44 12L43 12L43 13L42 13L42 14L41 14L41 12L42 12L42 10L45 10L45 9L46 9L46 7ZM28 8L28 9L26 9L26 10L28 10L28 11L29 11L29 10L28 10L28 9L30 9L30 11L32 11L32 9L30 9L30 8ZM14 10L14 11L15 11L15 10ZM35 10L35 11L36 11L36 10ZM40 10L40 12L41 12L41 10ZM64 10L64 11L66 11L66 10ZM2 11L2 12L3 12L3 11ZM5 11L5 12L6 12L6 11ZM10 11L10 12L11 12L11 13L12 13L12 12L11 12L11 11ZM45 11L45 13L46 13L46 12L47 12L47 11ZM54 11L54 12L55 12L55 11ZM68 11L68 12L69 12L69 11ZM34 13L34 14L33 14L33 15L32 15L32 17L35 17L35 18L37 18L37 17L35 17L35 16L36 16L36 15L35 15L35 14L36 14L36 13ZM13 14L13 15L14 15L14 16L12 16L12 17L14 17L14 16L15 16L15 15L14 15L14 14ZM17 14L17 15L18 15L18 14ZM37 14L37 15L38 15L38 14ZM39 14L39 15L40 15L40 14ZM4 15L4 16L5 16L5 15ZM33 15L33 16L34 16L34 15ZM6 16L6 17L7 17L7 16ZM8 16L8 17L9 17L9 18L11 18L11 16ZM51 16L51 17L50 17L50 19L51 19L51 20L52 20L52 21L50 21L50 20L49 20L49 21L50 21L50 22L51 22L51 23L53 23L53 24L54 24L54 25L55 25L55 24L54 24L54 23L55 23L55 22L53 22L53 21L55 21L55 20L56 20L56 21L57 21L57 20L56 20L56 19L57 19L57 18L56 18L56 19L55 19L55 18L54 18L54 17L53 17L53 16ZM27 17L27 18L28 18L28 17ZM51 17L51 18L52 18L52 20L53 20L53 19L54 19L54 18L52 18L52 17ZM48 18L48 19L49 19L49 18ZM40 19L40 20L39 20L39 21L41 21L41 22L37 22L37 23L34 23L34 22L33 22L33 23L31 23L31 24L32 24L32 25L33 25L33 24L34 24L34 25L35 25L35 24L37 24L37 26L41 26L41 25L42 25L42 24L41 24L41 22L42 22L42 23L43 23L43 24L44 24L44 25L43 25L43 26L46 26L46 27L45 27L45 28L43 28L43 29L44 29L44 31L43 31L43 30L42 30L42 27L39 27L39 28L40 28L40 29L38 29L38 28L37 28L37 29L38 29L38 30L37 30L37 31L35 31L35 32L37 32L37 33L38 33L38 34L39 34L39 35L37 35L37 36L38 36L38 37L34 37L34 39L37 39L37 38L38 38L38 40L37 40L37 41L38 41L38 42L36 42L36 43L37 43L37 45L38 45L38 46L39 46L39 47L40 47L40 48L39 48L39 49L38 49L38 50L37 50L37 51L38 51L38 50L41 50L41 52L40 52L40 51L39 51L39 54L41 54L41 55L43 55L43 56L42 56L42 57L43 57L43 56L44 56L44 53L45 53L45 54L46 54L46 56L47 56L47 57L48 57L48 56L49 56L49 54L47 54L47 53L45 53L45 52L46 52L46 51L47 51L47 50L48 50L48 49L47 49L47 48L48 48L48 47L49 47L49 46L47 46L47 45L46 45L46 44L47 44L47 43L48 43L48 42L47 42L47 40L48 40L48 39L47 39L47 40L45 40L45 39L41 39L41 40L39 40L39 37L41 37L41 36L42 36L42 37L43 37L43 36L44 36L44 37L45 37L45 38L48 38L48 37L45 37L45 36L48 36L48 34L49 34L49 33L48 33L48 34L47 34L47 33L45 33L45 32L46 32L46 31L47 31L47 32L48 32L48 31L47 31L47 29L45 29L45 28L46 28L46 27L47 27L47 28L49 28L49 27L47 27L47 25L48 25L48 24L47 24L47 25L46 25L46 24L45 24L45 23L44 23L44 22L42 22L42 21L43 21L43 20L42 20L42 19ZM3 20L3 21L4 21L4 20ZM25 20L25 21L27 21L27 20ZM31 20L31 21L30 21L30 22L29 22L29 23L30 23L30 22L32 22L32 20ZM37 20L37 21L38 21L38 20ZM24 22L24 23L23 23L23 24L25 24L25 23L27 23L27 22ZM38 23L38 25L39 25L39 23ZM1 24L1 25L2 25L2 26L5 26L5 24L4 24L4 25L2 25L2 24ZM26 24L26 25L25 25L25 28L26 28L26 30L29 30L29 32L28 32L28 31L27 31L27 32L28 32L28 33L29 33L29 35L30 35L30 36L31 36L31 37L32 37L32 32L34 32L34 31L33 31L33 30L34 30L34 29L35 29L35 30L36 30L36 28L35 28L35 27L36 27L36 26L35 26L35 27L33 27L33 26L31 26L31 27L29 27L29 25L30 25L30 24L29 24L29 25L28 25L28 24ZM63 24L63 25L64 25L64 24ZM67 24L67 25L68 25L68 24ZM8 25L8 26L11 26L11 25ZM22 25L22 26L21 26L21 27L22 27L22 26L24 26L24 25ZM53 26L53 27L54 27L54 26ZM66 26L66 27L67 27L67 26ZM2 27L2 29L4 29L4 30L5 30L5 27L4 27L4 28L3 28L3 27ZM26 27L26 28L27 28L27 29L28 29L28 28L29 28L29 29L30 29L30 30L33 30L33 29L34 29L34 28L33 28L33 27L31 27L31 28L29 28L29 27L28 27L28 28L27 28L27 27ZM8 28L8 29L6 29L6 30L8 30L8 31L5 31L5 32L8 32L8 31L9 31L9 28ZM15 28L15 29L14 29L14 30L15 30L15 29L16 29L16 28ZM31 28L31 29L32 29L32 28ZM48 29L48 30L49 30L49 29ZM16 30L16 31L17 31L17 30ZM39 30L39 31L37 31L37 32L38 32L38 33L39 33L39 32L43 32L43 33L40 33L40 35L39 35L39 36L40 36L40 35L41 35L41 34L43 34L43 33L44 33L44 36L45 36L45 33L44 33L44 32L45 32L45 31L46 31L46 30L45 30L45 31L44 31L44 32L43 32L43 31L40 31L40 30ZM61 30L61 31L62 31L62 30ZM1 31L1 32L0 32L0 33L1 33L1 32L3 32L3 31ZM24 31L24 32L22 32L22 33L24 33L24 32L26 32L26 31ZM31 31L31 32L29 32L29 33L30 33L30 35L31 35L31 32L32 32L32 31ZM63 31L63 32L64 32L64 31ZM68 31L68 32L69 32L69 31ZM16 32L16 33L17 33L17 32ZM5 33L5 36L8 36L8 33ZM33 33L33 36L36 36L36 33ZM61 33L61 36L64 36L64 33ZM6 34L6 35L7 35L7 34ZM34 34L34 35L35 35L35 34ZM62 34L62 35L63 35L63 34ZM42 35L42 36L43 36L43 35ZM59 35L59 36L60 36L60 35ZM67 35L67 36L66 36L66 37L67 37L67 36L68 36L68 35ZM49 37L49 38L51 38L51 37ZM55 37L55 38L56 38L56 37ZM16 38L16 39L17 39L17 38ZM21 38L21 39L22 39L22 38ZM26 38L26 39L27 39L27 38ZM53 38L53 39L54 39L54 38ZM6 39L6 40L8 40L8 39ZM50 39L50 40L51 40L51 41L50 41L50 42L51 42L51 41L53 41L53 40L51 40L51 39ZM10 40L10 41L11 41L11 40ZM21 40L21 41L22 41L22 40ZM26 40L26 42L27 42L27 43L28 43L28 42L30 42L30 41L27 41L27 40ZM41 40L41 41L40 41L40 43L39 43L39 42L38 42L38 45L39 45L39 46L40 46L40 47L41 47L41 48L42 48L42 49L41 49L41 50L42 50L42 52L43 52L43 53L41 53L41 54L43 54L43 53L44 53L44 52L45 52L45 49L46 49L46 47L47 47L47 46L46 46L46 47L45 47L45 49L44 49L44 46L43 46L43 45L44 45L44 44L43 44L43 42L44 42L44 43L45 43L45 42L44 42L44 40ZM54 40L54 41L55 41L55 40ZM13 41L13 42L14 42L14 41ZM15 41L15 42L16 42L16 41ZM20 42L20 43L21 43L21 42ZM46 42L46 43L47 43L47 42ZM52 42L52 43L53 43L53 42ZM54 42L54 43L55 43L55 42ZM40 43L40 44L39 44L39 45L40 45L40 44L41 44L41 43ZM9 44L9 45L10 45L10 44ZM41 45L41 46L42 46L42 48L43 48L43 46L42 46L42 45ZM19 46L19 47L20 47L20 48L21 48L21 47L20 47L20 46ZM32 46L32 47L33 47L33 46ZM17 48L17 49L18 49L18 48ZM2 49L2 50L1 50L1 51L0 51L0 54L1 54L1 55L2 55L2 56L1 56L1 57L0 57L0 61L1 61L1 58L2 58L2 59L3 59L3 58L2 58L2 56L3 56L3 57L4 57L4 56L3 56L3 55L2 55L2 54L1 54L1 51L2 51L2 52L3 52L3 51L4 51L4 50L3 50L3 49ZM27 49L27 50L28 50L28 49ZM32 49L32 50L33 50L33 49ZM43 49L43 50L44 50L44 49ZM52 50L52 51L53 51L53 50ZM60 50L60 51L61 51L61 50ZM43 51L43 52L44 52L44 51ZM58 51L58 52L59 52L59 53L58 53L58 54L59 54L59 53L61 53L61 52L59 52L59 51ZM11 52L11 54L12 54L12 56L13 56L13 58L14 58L14 56L13 56L13 54L12 54L12 52ZM23 52L23 53L24 53L24 54L25 54L25 55L24 55L24 56L23 56L23 54L22 54L22 53L21 53L21 54L22 54L22 55L21 55L21 56L22 56L22 57L21 57L21 58L22 58L22 57L24 57L24 58L23 58L23 59L24 59L24 60L25 60L25 61L26 61L26 60L25 60L25 59L26 59L26 58L27 58L27 59L28 59L28 58L27 58L27 57L29 57L29 56L27 56L27 57L26 57L26 54L25 54L25 53L24 53L24 52ZM37 52L37 53L38 53L38 52ZM6 53L6 54L7 54L7 53ZM53 53L53 54L54 54L54 53ZM27 54L27 55L28 55L28 54ZM66 54L66 55L67 55L67 54ZM15 55L15 57L16 57L16 55ZM47 55L47 56L48 56L48 55ZM9 56L9 57L10 57L10 56ZM56 56L56 57L57 57L57 56ZM65 57L65 58L64 58L64 59L65 59L65 58L66 58L66 57ZM45 58L45 59L46 59L46 58ZM3 60L3 61L5 61L5 60ZM13 60L13 62L14 62L14 61L16 61L16 60ZM42 60L42 61L43 61L43 60ZM21 61L21 62L22 62L22 61ZM31 61L31 63L29 63L29 64L28 64L28 65L25 65L25 66L24 66L24 67L25 67L25 66L28 66L28 65L29 65L29 66L30 66L30 65L29 65L29 64L31 64L31 63L32 63L32 61ZM33 61L33 64L36 64L36 61ZM57 61L57 62L58 62L58 61ZM61 61L61 64L64 64L64 61ZM15 62L15 63L16 63L16 62ZM34 62L34 63L35 63L35 62ZM62 62L62 63L63 63L63 62ZM65 62L65 63L66 63L66 62ZM49 63L49 64L50 64L50 63ZM9 64L9 66L11 66L11 67L10 67L10 68L11 68L11 67L12 67L12 66L13 66L13 64L12 64L12 66L11 66L11 65L10 65L10 64ZM65 64L65 65L67 65L67 64ZM31 65L31 66L32 66L32 65ZM36 66L36 67L37 67L37 66ZM29 67L29 68L30 68L30 67ZM47 67L47 68L48 68L48 67ZM50 67L50 69L51 69L51 68L52 68L52 67ZM60 67L60 68L61 68L61 67ZM0 0L0 7L7 7L7 0ZM1 1L1 6L6 6L6 1ZM2 2L2 5L5 5L5 2ZM62 0L62 7L69 7L69 0ZM63 1L63 6L68 6L68 1ZM64 2L64 5L67 5L67 2ZM0 62L0 69L7 69L7 62ZM1 63L1 68L6 68L6 63ZM2 64L2 67L5 67L5 64Z" fill="#000000"/></g></g></svg>
