<?xml version="1.0" encoding="UTF-8"?>
<svg xmlns="http://www.w3.org/2000/svg" version="1.1" width="300" height="300" viewBox="0 0 300 300"><rect x="0" y="0" width="300" height="300" fill="#ffffff"/><g transform="scale(4.348)"><g transform="translate(0,0)"><path fill-rule="evenodd" d="M8 0L8 4L9 4L9 2L10 2L10 3L11 3L11 4L10 4L10 8L11 8L11 9L7 9L7 8L4 8L4 9L7 9L7 10L6 10L6 11L5 11L5 10L3 10L3 13L2 13L2 12L1 12L1 11L0 11L0 12L1 12L1 13L2 13L2 14L0 14L0 16L1 16L1 17L0 17L0 18L1 18L1 17L2 17L2 19L0 19L0 22L1 22L1 23L0 23L0 24L1 24L1 25L2 25L2 26L3 26L3 27L4 27L4 28L2 28L2 27L1 27L1 26L0 26L0 29L1 29L1 30L0 30L0 31L1 31L1 30L2 30L2 32L0 32L0 33L2 33L2 32L3 32L3 33L4 33L4 34L3 34L3 35L1 35L1 34L0 34L0 38L2 38L2 37L1 37L1 36L3 36L3 38L4 38L4 40L3 40L3 41L2 41L2 39L1 39L1 40L0 40L0 42L1 42L1 43L0 43L0 45L1 45L1 46L2 46L2 48L1 48L1 47L0 47L0 49L1 49L1 50L2 50L2 51L3 51L3 47L5 47L5 46L6 46L6 47L7 47L7 46L6 46L6 45L7 45L7 44L4 44L4 42L3 42L3 41L4 41L4 40L6 40L6 41L9 41L9 44L8 44L8 45L9 45L9 47L8 47L8 49L7 49L7 48L4 48L4 49L5 49L5 50L6 50L6 51L8 51L8 50L9 50L9 52L10 52L10 54L9 54L9 53L7 53L7 52L6 52L6 53L7 53L7 54L6 54L6 55L7 55L7 54L9 54L9 55L10 55L10 56L9 56L9 57L8 57L8 56L5 56L5 55L4 55L4 54L5 54L5 53L4 53L4 52L5 52L5 51L4 51L4 52L3 52L3 55L4 55L4 56L2 56L2 53L0 53L0 54L1 54L1 55L0 55L0 56L1 56L1 57L0 57L0 61L1 61L1 57L2 57L2 59L3 59L3 58L4 58L4 59L7 59L7 60L6 60L6 61L8 61L8 62L10 62L10 61L11 61L11 58L13 58L13 59L12 59L12 62L11 62L11 63L12 63L12 65L11 65L11 64L10 64L10 63L8 63L8 65L9 65L9 64L10 64L10 66L9 66L9 67L8 67L8 69L9 69L9 68L10 68L10 69L12 69L12 67L13 67L13 64L15 64L15 66L14 66L14 67L15 67L15 68L14 68L14 69L16 69L16 68L17 68L17 69L20 69L20 68L18 68L18 67L20 67L20 66L22 66L22 67L21 67L21 69L22 69L22 67L23 67L23 68L24 68L24 69L25 69L25 68L26 68L26 69L29 69L29 67L28 67L28 64L29 64L29 65L30 65L30 67L31 67L31 68L30 68L30 69L38 69L38 68L39 68L39 69L40 69L40 68L41 68L41 69L43 69L43 68L44 68L44 69L45 69L45 68L46 68L46 69L52 69L52 68L53 68L53 69L55 69L55 67L54 67L54 68L53 68L53 66L55 66L55 64L56 64L56 65L57 65L57 67L56 67L56 69L57 69L57 68L58 68L58 65L57 65L57 63L56 63L56 62L55 62L55 61L52 61L52 59L53 59L53 60L56 60L56 61L57 61L57 62L58 62L58 60L59 60L59 59L60 59L60 62L59 62L59 63L58 63L58 64L59 64L59 65L60 65L60 66L62 66L62 67L61 67L61 68L59 68L59 69L61 69L61 68L62 68L62 69L63 69L63 68L65 68L65 63L66 63L66 62L67 62L67 64L68 64L68 65L66 65L66 67L67 67L67 66L69 66L69 64L68 64L68 61L69 61L69 60L68 60L68 58L69 58L69 57L68 57L68 54L67 54L67 57L68 57L68 58L64 58L64 55L65 55L65 54L66 54L66 50L67 50L67 49L68 49L68 51L67 51L67 53L69 53L69 52L68 52L68 51L69 51L69 49L68 49L68 48L69 48L69 47L68 47L68 46L69 46L69 44L68 44L68 43L67 43L67 41L68 41L68 40L69 40L69 39L68 39L68 38L69 38L69 36L68 36L68 38L67 38L67 37L66 37L66 35L68 35L68 32L69 32L69 31L68 31L68 29L69 29L69 27L68 27L68 26L69 26L69 25L68 25L68 24L69 24L69 23L68 23L68 22L69 22L69 20L68 20L68 18L67 18L67 20L68 20L68 21L67 21L67 23L68 23L68 24L67 24L67 27L68 27L68 28L67 28L67 30L64 30L64 28L65 28L65 29L66 29L66 28L65 28L65 26L64 26L64 28L62 28L62 27L61 27L61 25L62 25L62 26L63 26L63 25L64 25L64 24L65 24L65 23L64 23L64 22L63 22L63 21L64 21L64 20L65 20L65 17L64 17L64 16L65 16L65 13L67 13L67 12L65 12L65 11L64 11L64 10L63 10L63 9L64 9L64 8L63 8L63 9L62 9L62 11L61 11L61 6L60 6L60 7L59 7L59 4L58 4L58 5L57 5L57 6L56 6L56 5L55 5L55 4L56 4L56 3L55 3L55 4L53 4L53 2L51 2L51 0L50 0L50 2L47 2L47 3L52 3L52 8L51 8L51 9L50 9L50 10L51 10L51 11L49 11L49 8L50 8L50 7L51 7L51 6L50 6L50 7L49 7L49 5L51 5L51 4L48 4L48 7L49 7L49 8L47 8L47 6L46 6L46 3L45 3L45 1L46 1L46 0L45 0L45 1L44 1L44 0L41 0L41 1L39 1L39 0L38 0L38 1L37 1L37 0L36 0L36 1L34 1L34 0L32 0L32 1L31 1L31 0L30 0L30 3L31 3L31 4L30 4L30 5L29 5L29 6L28 6L28 4L29 4L29 2L28 2L28 3L27 3L27 4L26 4L26 3L23 3L23 2L24 2L24 1L26 1L26 2L27 2L27 1L26 1L26 0L22 0L22 3L19 3L19 2L18 2L18 3L19 3L19 4L16 4L16 2L17 2L17 1L20 1L20 2L21 2L21 0L17 0L17 1L16 1L16 2L15 2L15 0L14 0L14 2L15 2L15 3L14 3L14 5L12 5L12 3L13 3L13 1L11 1L11 0ZM47 0L47 1L48 1L48 0ZM52 0L52 1L55 1L55 2L57 2L57 3L59 3L59 2L58 2L58 1L61 1L61 0L57 0L57 1L56 1L56 0ZM33 1L33 2L32 2L32 4L31 4L31 5L30 5L30 6L29 6L29 7L28 7L28 6L27 6L27 5L26 5L26 4L25 4L25 5L26 5L26 6L25 6L25 7L24 7L24 5L21 5L21 7L20 7L20 4L19 4L19 7L18 7L18 6L17 6L17 5L16 5L16 4L15 4L15 5L14 5L14 6L13 6L13 7L12 7L12 5L11 5L11 8L12 8L12 9L11 9L11 12L7 12L7 11L10 11L10 10L7 10L7 11L6 11L6 12L7 12L7 13L5 13L5 14L4 14L4 13L3 13L3 18L4 18L4 16L5 16L5 17L6 17L6 18L7 18L7 17L8 17L8 18L9 18L9 16L8 16L8 15L11 15L11 14L12 14L12 16L13 16L13 17L11 17L11 16L10 16L10 18L11 18L11 19L12 19L12 20L10 20L10 21L8 21L8 20L9 20L9 19L8 19L8 20L7 20L7 19L6 19L6 20L5 20L5 19L4 19L4 20L5 20L5 22L4 22L4 23L3 23L3 20L1 20L1 22L2 22L2 23L1 23L1 24L2 24L2 23L3 23L3 26L4 26L4 27L5 27L5 25L4 25L4 23L5 23L5 22L8 22L8 23L6 23L6 24L7 24L7 25L6 25L6 26L9 26L9 28L8 28L8 27L6 27L6 28L7 28L7 29L5 29L5 28L4 28L4 29L3 29L3 31L5 31L5 30L7 30L7 31L6 31L6 32L7 32L7 31L8 31L8 30L7 30L7 29L9 29L9 30L12 30L12 33L11 33L11 34L10 34L10 36L9 36L9 37L6 37L6 38L8 38L8 39L6 39L6 40L8 40L8 39L10 39L10 38L12 38L12 39L11 39L11 40L10 40L10 41L12 41L12 42L11 42L11 43L10 43L10 44L12 44L12 45L13 45L13 46L14 46L14 47L15 47L15 49L16 49L16 52L17 52L17 50L18 50L18 49L19 49L19 51L20 51L20 50L22 50L22 54L20 54L20 53L19 53L19 54L18 54L18 53L14 53L14 51L13 51L13 50L14 50L14 48L13 48L13 49L12 49L12 50L11 50L11 51L10 51L10 52L11 52L11 54L12 54L12 55L14 55L14 56L10 56L10 58L11 58L11 57L13 57L13 58L14 58L14 59L15 59L15 60L13 60L13 63L14 63L14 62L15 62L15 64L16 64L16 62L17 62L17 61L18 61L18 63L17 63L17 65L16 65L16 67L17 67L17 65L18 65L18 64L19 64L19 65L20 65L20 64L19 64L19 63L21 63L21 64L22 64L22 66L23 66L23 65L27 65L27 64L26 64L26 63L23 63L23 62L22 62L22 61L25 61L25 62L26 62L26 58L27 58L27 57L28 57L28 58L29 58L29 60L32 60L32 58L33 58L33 60L40 60L40 62L39 62L39 63L38 63L38 61L37 61L37 64L39 64L39 65L40 65L40 66L38 66L38 65L36 65L36 66L37 66L37 68L38 68L38 67L41 67L41 68L43 68L43 67L44 67L44 68L45 68L45 67L46 67L46 68L47 68L47 65L46 65L46 64L49 64L49 65L48 65L48 68L50 68L50 67L52 67L52 66L53 66L53 65L54 65L54 64L55 64L55 62L54 62L54 63L53 63L53 62L52 62L52 61L51 61L51 62L50 62L50 59L49 59L49 57L46 57L46 58L47 58L47 60L45 60L45 58L42 58L42 59L44 59L44 60L43 60L43 61L44 61L44 60L45 60L45 61L46 61L46 62L47 62L47 60L49 60L49 62L50 62L50 63L45 63L45 65L46 65L46 66L45 66L45 67L44 67L44 63L43 63L43 67L41 67L41 60L40 60L40 59L41 59L41 58L40 58L40 57L41 57L41 56L42 56L42 57L44 57L44 56L45 56L45 55L46 55L46 54L47 54L47 53L46 53L46 52L45 52L45 51L44 51L44 52L43 52L43 50L42 50L42 51L41 51L41 52L40 52L40 51L39 51L39 52L40 52L40 54L39 54L39 55L40 55L40 57L39 57L39 56L38 56L38 57L37 57L37 58L36 58L36 59L35 59L35 56L37 56L37 55L33 55L33 53L28 53L28 52L27 52L27 53L26 53L26 52L25 52L25 50L22 50L22 49L24 49L24 48L23 48L23 47L24 47L24 46L23 46L23 44L24 44L24 43L19 43L19 42L20 42L20 41L19 41L19 42L17 42L17 40L19 40L19 39L17 39L17 37L16 37L16 35L15 35L15 36L13 36L13 37L14 37L14 38L15 38L15 37L16 37L16 39L17 39L17 40L16 40L16 41L15 41L15 40L14 40L14 39L13 39L13 38L12 38L12 37L11 37L11 34L12 34L12 33L14 33L14 31L13 31L13 28L14 28L14 29L16 29L16 30L15 30L15 33L16 33L16 34L17 34L17 33L18 33L18 32L19 32L19 33L20 33L20 31L21 31L21 30L20 30L20 26L19 26L19 25L21 25L21 26L22 26L22 29L26 29L26 27L28 27L28 30L29 30L29 31L28 31L28 32L29 32L29 31L31 31L31 30L30 30L30 29L29 29L29 27L32 27L32 28L31 28L31 29L33 29L33 30L32 30L32 32L33 32L33 30L34 30L34 31L35 31L35 30L34 30L34 29L36 29L36 31L37 31L37 32L38 32L38 33L37 33L37 36L38 36L38 37L37 37L37 39L36 39L36 38L34 38L34 39L32 39L32 38L33 38L33 37L32 37L32 38L31 38L31 39L28 39L28 40L27 40L27 37L26 37L26 36L28 36L28 38L30 38L30 37L29 37L29 36L30 36L30 35L31 35L31 36L32 36L32 34L30 34L30 33L27 33L27 35L26 35L26 36L25 36L25 35L24 35L24 34L23 34L23 32L22 32L22 34L20 34L20 35L17 35L17 36L19 36L19 38L20 38L20 36L22 36L22 37L23 37L23 36L22 36L22 35L24 35L24 37L25 37L25 38L26 38L26 39L25 39L25 41L24 41L24 39L23 39L23 40L22 40L22 39L21 39L21 41L22 41L22 42L23 42L23 41L24 41L24 42L25 42L25 43L26 43L26 44L25 44L25 45L26 45L26 47L25 47L25 48L27 48L27 50L26 50L26 51L28 51L28 50L29 50L29 49L28 49L28 48L29 48L29 47L32 47L32 46L34 46L34 49L33 49L33 48L32 48L32 49L30 49L30 50L31 50L31 51L29 51L29 52L33 52L33 50L35 50L35 52L34 52L34 54L35 54L35 53L37 53L37 54L38 54L38 52L37 52L37 50L38 50L38 49L37 49L37 48L38 48L38 47L35 47L35 46L38 46L38 45L40 45L40 46L39 46L39 48L40 48L40 49L42 49L42 47L44 47L44 48L43 48L43 49L44 49L44 50L45 50L45 49L44 49L44 48L45 48L45 47L49 47L49 48L50 48L50 49L47 49L47 48L46 48L46 51L49 51L49 50L50 50L50 51L51 51L51 52L52 52L52 54L51 54L51 55L50 55L50 52L49 52L49 56L50 56L50 57L51 57L51 59L52 59L52 58L53 58L53 59L54 59L54 58L53 58L53 57L55 57L55 58L56 58L56 56L57 56L57 55L58 55L58 54L60 54L60 55L59 55L59 56L58 56L58 59L59 59L59 58L60 58L60 59L61 59L61 58L60 58L60 55L61 55L61 54L62 54L62 55L64 55L64 54L65 54L65 52L62 52L62 53L60 53L60 51L64 51L64 50L66 50L66 49L67 49L67 48L68 48L68 47L67 47L67 46L68 46L68 45L67 45L67 46L66 46L66 45L64 45L64 44L67 44L67 43L66 43L66 42L65 42L65 41L67 41L67 40L68 40L68 39L67 39L67 38L66 38L66 37L62 37L62 39L61 39L61 37L60 37L60 36L59 36L59 37L58 37L58 36L57 36L57 37L58 37L58 40L57 40L57 38L56 38L56 34L57 34L57 33L58 33L58 35L60 35L60 33L58 33L58 32L57 32L57 33L56 33L56 32L54 32L54 33L53 33L53 31L55 31L55 30L56 30L56 31L58 31L58 30L59 30L59 32L60 32L60 31L61 31L61 32L62 32L62 29L61 29L61 30L59 30L59 29L58 29L58 30L57 30L57 29L56 29L56 28L59 28L59 27L60 27L60 28L61 28L61 27L60 27L60 26L59 26L59 25L60 25L60 23L59 23L59 21L61 21L61 22L62 22L62 24L63 24L63 22L62 22L62 20L63 20L63 19L64 19L64 17L63 17L63 19L62 19L62 15L64 15L64 13L65 13L65 12L64 12L64 11L63 11L63 12L64 12L64 13L63 13L63 14L62 14L62 12L60 12L60 13L59 13L59 12L58 12L58 11L57 11L57 9L56 9L56 8L57 8L57 7L58 7L58 6L57 6L57 7L56 7L56 6L55 6L55 9L56 9L56 10L54 10L54 11L52 11L52 13L51 13L51 12L50 12L50 13L46 13L46 14L45 14L45 15L46 15L46 16L45 16L45 17L46 17L46 19L44 19L44 18L41 18L41 17L42 17L42 16L41 16L41 14L40 14L40 13L43 13L43 14L42 14L42 15L43 15L43 17L44 17L44 12L43 12L43 11L44 11L44 10L43 10L43 11L42 11L42 9L44 9L44 8L45 8L45 9L46 9L46 10L45 10L45 12L47 12L47 11L46 11L46 10L47 10L47 8L45 8L45 7L46 7L46 6L45 6L45 5L44 5L44 4L45 4L45 3L42 3L42 4L43 4L43 5L41 5L41 4L40 4L40 2L38 2L38 3L36 3L36 4L37 4L37 7L38 7L38 8L37 8L37 10L36 10L36 9L35 9L35 10L34 10L34 11L33 11L33 9L32 9L32 10L31 10L31 9L29 9L29 8L30 8L30 6L31 6L31 8L32 8L32 6L31 6L31 5L32 5L32 4L34 4L34 1ZM41 1L41 2L42 2L42 1ZM60 3L60 5L61 5L61 3ZM38 4L38 7L39 7L39 6L40 6L40 8L39 8L39 9L38 9L38 10L37 10L37 11L38 11L38 10L40 10L40 12L39 12L39 13L38 13L38 12L37 12L37 13L36 13L36 11L34 11L34 12L35 12L35 13L36 13L36 14L37 14L37 15L34 15L34 16L36 16L36 18L37 18L37 19L38 19L38 22L37 22L37 20L36 20L36 21L35 21L35 19L33 19L33 18L34 18L34 17L33 17L33 16L32 16L32 13L33 13L33 12L32 12L32 11L29 11L29 14L28 14L28 9L27 9L27 8L28 8L28 7L27 7L27 6L26 6L26 7L27 7L27 8L26 8L26 9L25 9L25 8L24 8L24 9L23 9L23 11L24 11L24 13L23 13L23 14L21 14L21 13L22 13L22 12L21 12L21 13L20 13L20 12L18 12L18 11L19 11L19 10L15 10L15 9L16 9L16 8L17 8L17 9L20 9L20 10L21 10L21 11L22 11L22 9L20 9L20 8L17 8L17 6L16 6L16 5L15 5L15 6L14 6L14 10L15 10L15 11L14 11L14 12L13 12L13 11L12 11L12 12L13 12L13 13L12 13L12 14L13 14L13 16L14 16L14 15L15 15L15 13L14 13L14 12L15 12L15 11L16 11L16 13L18 13L18 15L17 15L17 14L16 14L16 16L15 16L15 17L14 17L14 18L12 18L12 19L13 19L13 20L14 20L14 22L13 22L13 21L11 21L11 22L10 22L10 23L8 23L8 25L9 25L9 24L10 24L10 23L11 23L11 26L10 26L10 27L12 27L12 28L13 28L13 27L14 27L14 28L15 28L15 27L16 27L16 26L18 26L18 27L17 27L17 29L18 29L18 30L16 30L16 31L18 31L18 30L19 30L19 31L20 31L20 30L19 30L19 26L18 26L18 25L19 25L19 24L20 24L20 23L19 23L19 21L20 21L20 22L21 22L21 21L22 21L22 20L23 20L23 22L28 22L28 23L25 23L25 24L24 24L24 23L23 23L23 24L22 24L22 23L21 23L21 25L24 25L24 26L25 26L25 27L26 27L26 26L28 26L28 25L27 25L27 24L28 24L28 23L31 23L31 24L29 24L29 25L30 25L30 26L31 26L31 25L32 25L32 27L33 27L33 26L34 26L34 28L33 28L33 29L34 29L34 28L35 28L35 25L34 25L34 24L35 24L35 22L37 22L37 23L38 23L38 24L36 24L36 26L37 26L37 25L38 25L38 27L39 27L39 29L38 29L38 28L37 28L37 29L38 29L38 30L39 30L39 29L40 29L40 28L41 28L41 29L42 29L42 31L44 31L44 33L41 33L41 34L40 34L40 32L41 32L41 30L40 30L40 31L38 31L38 32L39 32L39 33L38 33L38 34L40 34L40 35L41 35L41 36L42 36L42 37L41 37L41 38L40 38L40 37L38 37L38 38L40 38L40 39L37 39L37 41L38 41L38 42L41 42L41 46L40 46L40 48L41 48L41 46L43 46L43 45L42 45L42 42L43 42L43 41L42 41L42 40L41 40L41 41L40 41L40 39L42 39L42 38L43 38L43 39L44 39L44 41L45 41L45 42L46 42L46 39L44 39L44 38L45 38L45 37L47 37L47 38L49 38L49 36L50 36L50 39L47 39L47 41L50 41L50 43L49 43L49 42L48 42L48 43L49 43L49 44L47 44L47 45L48 45L48 46L49 46L49 47L51 47L51 45L52 45L52 44L53 44L53 42L56 42L56 43L55 43L55 44L54 44L54 45L53 45L53 48L54 48L54 47L55 47L55 48L56 48L56 49L52 49L52 48L51 48L51 49L50 49L50 50L51 50L51 51L52 51L52 52L55 52L55 50L56 50L56 51L57 51L57 52L56 52L56 53L53 53L53 55L51 55L51 57L52 57L52 56L53 56L53 55L55 55L55 56L56 56L56 54L58 54L58 53L59 53L59 51L58 51L58 48L56 48L56 47L57 47L57 46L58 46L58 47L60 47L60 48L62 48L62 49L65 49L65 48L64 48L64 45L63 45L63 44L64 44L64 41L65 41L65 40L64 40L64 39L65 39L65 38L64 38L64 39L62 39L62 40L61 40L61 39L60 39L60 38L59 38L59 40L58 40L58 41L57 41L57 40L56 40L56 41L55 41L55 39L56 39L56 38L55 38L55 37L53 37L53 38L52 38L52 39L53 39L53 40L54 40L54 41L52 41L52 40L51 40L51 41L50 41L50 39L51 39L51 37L52 37L52 36L55 36L55 34L56 34L56 33L54 33L54 35L52 35L52 34L53 34L53 33L52 33L52 30L55 30L55 28L56 28L56 26L58 26L58 27L59 27L59 26L58 26L58 25L59 25L59 23L58 23L58 25L57 25L57 24L56 24L56 23L55 23L55 21L52 21L52 19L54 19L54 20L55 20L55 19L56 19L56 21L58 21L58 20L59 20L59 18L60 18L60 19L61 19L61 20L62 20L62 19L61 19L61 16L58 16L58 17L57 17L57 16L56 16L56 15L59 15L59 14L58 14L58 13L57 13L57 11L54 11L54 12L55 12L55 13L53 13L53 15L52 15L52 14L51 14L51 13L50 13L50 14L46 14L46 15L47 15L47 16L46 16L46 17L50 17L50 19L48 19L48 18L47 18L47 19L46 19L46 20L47 20L47 22L49 22L49 20L50 20L50 23L48 23L48 25L47 25L47 23L46 23L46 21L45 21L45 20L44 20L44 23L43 23L43 21L42 21L42 19L41 19L41 18L40 18L40 15L39 15L39 13L40 13L40 12L42 12L42 11L41 11L41 10L40 10L40 8L41 8L41 6L40 6L40 5L39 5L39 4ZM8 5L8 7L9 7L9 5ZM33 5L33 8L36 8L36 5ZM53 5L53 8L52 8L52 9L54 9L54 5ZM15 6L15 8L16 8L16 6ZM22 6L22 8L23 8L23 6ZM34 6L34 7L35 7L35 6ZM42 6L42 7L43 7L43 8L44 8L44 7L45 7L45 6L44 6L44 7L43 7L43 6ZM0 8L0 9L2 9L2 8ZM59 8L59 9L58 9L58 10L59 10L59 9L60 9L60 8ZM65 8L65 10L66 10L66 11L68 11L68 12L69 12L69 11L68 11L68 10L69 10L69 8ZM24 9L24 10L25 10L25 11L26 11L26 12L27 12L27 11L26 11L26 10L27 10L27 9L26 9L26 10L25 10L25 9ZM48 11L48 12L49 12L49 11ZM31 12L31 13L32 13L32 12ZM19 13L19 16L18 16L18 17L17 17L17 18L15 18L15 22L14 22L14 23L13 23L13 22L11 22L11 23L13 23L13 24L12 24L12 26L14 26L14 25L13 25L13 24L15 24L15 25L18 25L18 24L19 24L19 23L17 23L17 24L16 24L16 22L18 22L18 21L16 21L16 19L20 19L20 18L21 18L21 19L22 19L22 18L23 18L23 16L24 16L24 15L25 15L25 14L26 14L26 16L27 16L27 17L25 17L25 18L24 18L24 19L23 19L23 20L25 20L25 21L26 21L26 19L29 19L29 20L31 20L31 21L30 21L30 22L31 22L31 21L33 21L33 19L32 19L32 20L31 20L31 19L29 19L29 16L28 16L28 14L27 14L27 13L25 13L25 14L23 14L23 16L22 16L22 15L21 15L21 16L22 16L22 18L21 18L21 17L19 17L19 16L20 16L20 13ZM55 13L55 15L56 15L56 13ZM60 13L60 14L61 14L61 13ZM68 13L68 14L67 14L67 16L66 16L66 17L68 17L68 16L69 16L69 15L68 15L68 14L69 14L69 13ZM5 14L5 16L6 16L6 17L7 17L7 16L6 16L6 15L7 15L7 14ZM29 14L29 15L30 15L30 16L31 16L31 15L30 15L30 14ZM1 15L1 16L2 16L2 15ZM49 15L49 16L50 16L50 17L51 17L51 19L50 19L50 20L51 20L51 19L52 19L52 18L53 18L53 17L54 17L54 15L53 15L53 16L52 16L52 17L51 17L51 15ZM55 16L55 17L56 17L56 19L57 19L57 20L58 20L58 18L59 18L59 17L58 17L58 18L57 18L57 17L56 17L56 16ZM18 17L18 18L19 18L19 17ZM27 17L27 18L28 18L28 17ZM37 17L37 18L38 18L38 19L39 19L39 20L40 20L40 22L41 22L41 23L40 23L40 27L43 27L43 26L44 26L44 27L45 27L45 28L46 28L46 27L45 27L45 26L44 26L44 24L45 24L45 23L44 23L44 24L43 24L43 23L42 23L42 21L41 21L41 19L40 19L40 18L38 18L38 17ZM25 18L25 19L26 19L26 18ZM47 19L47 20L48 20L48 19ZM6 20L6 21L7 21L7 20ZM28 21L28 22L29 22L29 21ZM34 21L34 22L32 22L32 24L34 24L34 22L35 22L35 21ZM51 21L51 23L50 23L50 25L48 25L48 27L49 27L49 28L50 28L50 29L46 29L46 30L48 30L48 31L51 31L51 30L52 30L52 29L53 29L53 28L52 28L52 29L51 29L51 28L50 28L50 27L52 27L52 26L53 26L53 27L55 27L55 26L56 26L56 24L54 24L54 22L52 22L52 21ZM41 23L41 26L43 26L43 25L42 25L42 23ZM51 23L51 25L50 25L50 26L51 26L51 25L52 25L52 23ZM25 24L25 25L26 25L26 24ZM38 24L38 25L39 25L39 24ZM53 24L53 26L55 26L55 25L54 25L54 24ZM46 25L46 26L47 26L47 25ZM23 27L23 28L24 28L24 27ZM43 29L43 30L44 30L44 31L45 31L45 32L46 32L46 36L47 36L47 35L48 35L48 36L49 36L49 35L48 35L48 34L50 34L50 36L51 36L51 34L52 34L52 33L51 33L51 34L50 34L50 32L49 32L49 33L47 33L47 31L45 31L45 29ZM50 29L50 30L51 30L51 29ZM22 30L22 31L27 31L27 30ZM63 31L63 32L66 32L66 33L65 33L65 35L66 35L66 34L67 34L67 32L68 32L68 31ZM9 32L9 33L10 33L10 32ZM16 32L16 33L17 33L17 32ZM24 32L24 33L26 33L26 32ZM5 33L5 36L8 36L8 33ZM33 33L33 36L36 36L36 33ZM44 33L44 34L43 34L43 35L42 35L42 36L43 36L43 38L44 38L44 36L43 36L43 35L44 35L44 34L45 34L45 33ZM61 33L61 36L64 36L64 33ZM6 34L6 35L7 35L7 34ZM13 34L13 35L14 35L14 34ZM28 34L28 36L29 36L29 35L30 35L30 34ZM34 34L34 35L35 35L35 34ZM62 34L62 35L63 35L63 34ZM3 35L3 36L4 36L4 35ZM38 35L38 36L39 36L39 35ZM4 37L4 38L5 38L5 37ZM53 38L53 39L55 39L55 38ZM12 39L12 40L13 40L13 39ZM31 39L31 40L28 40L28 41L27 41L27 40L26 40L26 41L25 41L25 42L26 42L26 43L28 43L28 45L27 45L27 44L26 44L26 45L27 45L27 48L28 48L28 45L29 45L29 46L31 46L31 45L34 45L34 46L35 46L35 45L34 45L34 44L33 44L33 43L32 43L32 44L31 44L31 42L30 42L30 43L29 43L29 42L28 42L28 41L34 41L34 40L35 40L35 41L36 41L36 39L34 39L34 40L32 40L32 39ZM38 40L38 41L39 41L39 40ZM59 40L59 41L58 41L58 43L56 43L56 44L55 44L55 47L56 47L56 44L57 44L57 45L58 45L58 46L60 46L60 47L61 47L61 46L62 46L62 48L63 48L63 45L61 45L61 43L63 43L63 42L62 42L62 41L64 41L64 40L62 40L62 41L61 41L61 40ZM1 41L1 42L2 42L2 43L1 43L1 45L2 45L2 46L4 46L4 44L3 44L3 45L2 45L2 43L3 43L3 42L2 42L2 41ZM13 41L13 43L12 43L12 44L13 44L13 45L14 45L14 46L16 46L16 47L17 47L17 48L16 48L16 49L18 49L18 48L19 48L19 49L22 49L22 47L23 47L23 46L22 46L22 44L21 44L21 45L20 45L20 44L19 44L19 43L18 43L18 44L17 44L17 42L16 42L16 43L15 43L15 41ZM51 41L51 42L52 42L52 41ZM56 41L56 42L57 42L57 41ZM60 41L60 42L59 42L59 43L58 43L58 44L59 44L59 43L61 43L61 41ZM6 42L6 43L8 43L8 42ZM34 42L34 43L35 43L35 42ZM37 43L37 45L38 45L38 44L39 44L39 43ZM45 43L45 44L44 44L44 45L45 45L45 46L46 46L46 45L45 45L45 44L46 44L46 43ZM51 43L51 44L52 44L52 43ZM15 44L15 45L16 45L16 46L17 46L17 47L18 47L18 45L16 45L16 44ZM49 44L49 46L50 46L50 44ZM19 45L19 48L20 48L20 47L22 47L22 46L20 46L20 45ZM60 45L60 46L61 46L61 45ZM11 46L11 47L9 47L9 48L10 48L10 49L9 49L9 50L10 50L10 49L11 49L11 47L12 47L12 46ZM65 46L65 47L66 47L66 46ZM35 48L35 49L36 49L36 48ZM6 49L6 50L7 50L7 49ZM32 49L32 50L33 50L33 49ZM56 49L56 50L57 50L57 49ZM0 51L0 52L1 52L1 51ZM11 51L11 52L13 52L13 51ZM24 52L24 53L23 53L23 56L22 56L22 55L20 55L20 54L19 54L19 55L18 55L18 56L17 56L17 55L16 55L16 54L15 54L15 56L17 56L17 57L14 57L14 58L15 58L15 59L16 59L16 58L17 58L17 57L19 57L19 58L18 58L18 59L19 59L19 58L20 58L20 59L21 59L21 57L24 57L24 58L25 58L25 56L26 56L26 57L27 57L27 56L28 56L28 57L31 57L31 58L32 58L32 57L33 57L33 58L34 58L34 56L33 56L33 55L31 55L31 54L28 54L28 53L27 53L27 54L28 54L28 55L27 55L27 56L26 56L26 55L24 55L24 54L26 54L26 53L25 53L25 52ZM44 52L44 53L41 53L41 54L43 54L43 55L44 55L44 54L46 54L46 53L45 53L45 52ZM57 52L57 53L58 53L58 52ZM12 53L12 54L14 54L14 53ZM63 53L63 54L64 54L64 53ZM29 55L29 56L31 56L31 55ZM19 56L19 57L21 57L21 56ZM65 56L65 57L66 57L66 56ZM4 57L4 58L8 58L8 61L10 61L10 59L9 59L9 58L8 58L8 57ZM38 57L38 59L40 59L40 58L39 58L39 57ZM22 58L22 59L23 59L23 60L24 60L24 59L23 59L23 58ZM62 58L62 59L63 59L63 60L64 60L64 59L63 59L63 58ZM27 59L27 60L28 60L28 59ZM56 59L56 60L57 60L57 59ZM65 59L65 61L66 61L66 60L67 60L67 59ZM3 60L3 61L5 61L5 60ZM18 60L18 61L20 61L20 62L21 62L21 61L22 61L22 60L21 60L21 61L20 61L20 60ZM15 61L15 62L16 62L16 61ZM28 61L28 62L27 62L27 63L28 63L28 62L29 62L29 61ZM31 61L31 62L30 62L30 64L31 64L31 63L32 63L32 61ZM33 61L33 64L36 64L36 61ZM61 61L61 64L64 64L64 61ZM34 62L34 63L35 63L35 62ZM51 62L51 65L50 65L50 66L49 66L49 67L50 67L50 66L51 66L51 65L52 65L52 62ZM62 62L62 63L63 63L63 62ZM22 63L22 64L23 64L23 63ZM31 65L31 67L32 67L32 65ZM34 65L34 66L33 66L33 68L34 68L34 67L35 67L35 65ZM62 65L62 66L63 66L63 67L62 67L62 68L63 68L63 67L64 67L64 65ZM10 66L10 67L12 67L12 66ZM24 66L24 67L25 67L25 66ZM26 66L26 68L28 68L28 67L27 67L27 66ZM68 68L68 69L69 69L69 68ZM0 0L0 7L7 7L7 0ZM1 1L1 6L6 6L6 1ZM2 2L2 5L5 5L5 2ZM62 0L62 7L69 7L69 0ZM63 1L63 6L68 6L68 1ZM64 2L64 5L67 5L67 2ZM0 62L0 69L7 69L7 62ZM1 63L1 68L6 68L6 63ZM2 64L2 67L5 67L5 64Z" fill="#000000"/></g></g></svg>
