<?xml version="1.0" encoding="UTF-8"?>
<svg xmlns="http://www.w3.org/2000/svg" version="1.1" width="300" height="300" viewBox="0 0 300 300"><rect x="0" y="0" width="300" height="300" fill="#ffffff"/><g transform="scale(4.348)"><g transform="translate(0,0)"><path fill-rule="evenodd" d="M8 0L8 1L10 1L10 0ZM12 0L12 1L13 1L13 3L12 3L12 2L8 2L8 5L9 5L9 3L10 3L10 5L12 5L12 7L11 7L11 6L10 6L10 8L8 8L8 9L7 9L7 8L6 8L6 9L7 9L7 10L6 10L6 11L5 11L5 9L4 9L4 8L0 8L0 10L1 10L1 11L0 11L0 13L1 13L1 14L3 14L3 15L2 15L2 16L3 16L3 17L2 17L2 18L3 18L3 19L5 19L5 20L4 20L4 22L3 22L3 21L2 21L2 20L1 20L1 17L0 17L0 21L1 21L1 22L0 22L0 24L1 24L1 25L0 25L0 28L1 28L1 27L3 27L3 29L4 29L4 30L3 30L3 32L1 32L1 31L2 31L2 30L0 30L0 33L4 33L4 36L3 36L3 34L2 34L2 35L1 35L1 36L0 36L0 37L1 37L1 36L2 36L2 37L3 37L3 38L2 38L2 39L1 39L1 38L0 38L0 39L1 39L1 40L0 40L0 41L1 41L1 42L2 42L2 43L0 43L0 44L1 44L1 45L0 45L0 49L2 49L2 51L0 51L0 53L1 53L1 54L0 54L0 56L2 56L2 57L3 57L3 58L2 58L2 59L3 59L3 58L4 58L4 59L7 59L7 60L6 60L6 61L8 61L8 62L9 62L9 63L10 63L10 62L9 62L9 61L8 61L8 60L9 60L9 59L7 59L7 58L6 58L6 57L8 57L8 58L9 58L9 57L10 57L10 59L12 59L12 61L11 61L11 64L13 64L13 65L14 65L14 66L12 66L12 65L10 65L10 68L11 68L11 67L12 67L12 69L15 69L15 68L16 68L16 69L18 69L18 67L15 67L15 68L13 68L13 67L14 67L14 66L18 66L18 64L19 64L19 67L20 67L20 69L23 69L23 68L22 68L22 67L23 67L23 66L24 66L24 65L22 65L22 64L20 64L20 63L21 63L21 62L22 62L22 61L20 61L20 60L22 60L22 56L23 56L23 57L24 57L24 58L26 58L26 57L24 57L24 56L25 56L25 54L26 54L26 56L27 56L27 57L30 57L30 56L27 56L27 54L29 54L29 52L31 52L31 53L30 53L30 54L31 54L31 53L32 53L32 54L33 54L33 55L32 55L32 57L31 57L31 58L32 58L32 57L35 57L35 58L33 58L33 59L35 59L35 60L32 60L32 59L31 59L31 60L27 60L27 59L25 59L25 62L24 62L24 63L25 63L25 62L26 62L26 64L25 64L25 66L26 66L26 64L27 64L27 69L28 69L28 67L30 67L30 66L31 66L31 65L30 65L30 66L29 66L29 65L28 65L28 64L29 64L29 63L27 63L27 62L28 62L28 61L31 61L31 62L30 62L30 63L31 63L31 64L32 64L32 65L33 65L33 66L32 66L32 67L31 67L31 68L32 68L32 67L33 67L33 66L35 66L35 68L34 68L34 69L36 69L36 68L37 68L37 69L42 69L42 67L40 67L40 68L37 68L37 67L38 67L38 66L35 66L35 65L37 65L37 64L38 64L38 63L37 63L37 62L39 62L39 63L40 63L40 64L39 64L39 65L40 65L40 66L42 66L42 65L40 65L40 64L41 64L41 62L39 62L39 60L41 60L41 57L42 57L42 60L43 60L43 63L44 63L44 64L43 64L43 65L45 65L45 64L46 64L46 61L49 61L49 62L48 62L48 63L49 63L49 62L51 62L51 61L50 61L50 60L51 60L51 59L45 59L45 58L44 58L44 57L43 57L43 55L44 55L44 56L45 56L45 57L46 57L46 56L45 56L45 54L47 54L47 57L48 57L48 55L49 55L49 58L50 58L50 56L51 56L51 57L53 57L53 58L54 58L54 61L55 61L55 63L56 63L56 64L55 64L55 66L56 66L56 67L54 67L54 66L53 66L53 68L51 68L51 69L55 69L55 68L56 68L56 67L57 67L57 66L59 66L59 67L60 67L60 68L59 68L59 69L60 69L60 68L61 68L61 69L62 69L62 68L63 68L63 66L64 66L64 65L66 65L66 66L68 66L68 65L69 65L69 64L67 64L67 63L68 63L68 61L69 61L69 60L68 60L68 61L67 61L67 60L66 60L66 59L69 59L69 58L66 58L66 56L65 56L65 55L64 55L64 56L63 56L63 57L65 57L65 58L62 58L62 56L61 56L61 55L62 55L62 54L66 54L66 55L67 55L67 56L69 56L69 55L67 55L67 54L66 54L66 53L67 53L67 52L68 52L68 54L69 54L69 52L68 52L68 51L69 51L69 49L67 49L67 51L65 51L65 53L63 53L63 51L61 51L61 50L64 50L64 49L65 49L65 48L66 48L66 46L67 46L67 48L69 48L69 46L68 46L68 45L69 45L69 44L68 44L68 41L69 41L69 40L68 40L68 39L66 39L66 38L67 38L67 37L68 37L68 38L69 38L69 37L68 37L68 35L69 35L69 33L68 33L68 32L65 32L65 30L64 30L64 27L66 27L66 30L67 30L67 31L68 31L68 30L69 30L69 28L68 28L68 27L66 27L66 26L67 26L67 25L68 25L68 26L69 26L69 21L67 21L67 20L69 20L69 19L68 19L68 18L69 18L69 17L68 17L68 18L66 18L66 16L67 16L67 15L66 15L66 14L69 14L69 8L68 8L68 9L67 9L67 8L64 8L64 9L63 9L63 10L64 10L64 9L67 9L67 10L65 10L65 11L64 11L64 12L66 12L66 13L64 13L64 14L63 14L63 13L62 13L62 12L63 12L63 11L62 11L62 8L61 8L61 6L60 6L60 7L59 7L59 4L56 4L56 3L53 3L53 2L54 2L54 1L55 1L55 2L58 2L58 3L59 3L59 2L58 2L58 1L61 1L61 0L58 0L58 1L55 1L55 0L52 0L52 1L51 1L51 2L52 2L52 3L53 3L53 4L52 4L52 7L53 7L53 4L56 4L56 7L55 7L55 6L54 6L54 7L55 7L55 9L54 9L54 8L51 8L51 6L50 6L50 5L51 5L51 4L49 4L49 3L50 3L50 2L49 2L49 3L47 3L47 4L49 4L49 6L48 6L48 5L47 5L47 6L46 6L46 7L47 7L47 6L48 6L48 7L49 7L49 9L48 9L48 8L46 8L46 9L47 9L47 11L46 11L46 10L45 10L45 12L46 12L46 13L45 13L45 14L43 14L43 15L44 15L44 16L43 16L43 18L42 18L42 16L41 16L41 15L40 15L40 14L41 14L41 13L40 13L40 14L39 14L39 13L36 13L36 12L35 12L35 11L33 11L33 9L34 9L34 10L35 10L35 9L36 9L36 10L37 10L37 11L38 11L38 9L39 9L39 11L40 11L40 9L41 9L41 10L42 10L42 12L43 12L43 13L44 13L44 12L43 12L43 9L42 9L42 7L43 7L43 8L45 8L45 5L46 5L46 4L44 4L44 3L46 3L46 1L45 1L45 0L44 0L44 2L43 2L43 5L44 5L44 7L43 7L43 6L42 6L42 7L41 7L41 6L40 6L40 5L41 5L41 4L40 4L40 5L39 5L39 2L40 2L40 0L39 0L39 1L38 1L38 0L37 0L37 3L36 3L36 2L35 2L35 1L34 1L34 0L33 0L33 2L30 2L30 0L29 0L29 2L26 2L26 3L27 3L27 6L26 6L26 4L25 4L25 3L24 3L24 2L25 2L25 0L21 0L21 1L19 1L19 0L15 0L15 2L14 2L14 0ZM26 0L26 1L28 1L28 0ZM41 0L41 3L42 3L42 1L43 1L43 0ZM47 0L47 2L48 2L48 1L50 1L50 0ZM17 1L17 2L18 2L18 3L19 3L19 4L20 4L20 3L21 3L21 2L22 2L22 4L23 4L23 7L22 7L22 5L21 5L21 7L22 7L22 8L20 8L20 6L19 6L19 5L18 5L18 4L16 4L16 3L15 3L15 4L14 4L14 3L13 3L13 4L12 4L12 3L11 3L11 4L12 4L12 5L13 5L13 4L14 4L14 6L13 6L13 7L12 7L12 8L13 8L13 9L14 9L14 10L12 10L12 9L11 9L11 8L10 8L10 9L9 9L9 10L8 10L8 11L9 11L9 10L10 10L10 9L11 9L11 12L8 12L8 14L7 14L7 13L5 13L5 12L4 12L4 9L3 9L3 12L4 12L4 13L3 13L3 14L4 14L4 15L6 15L6 16L7 16L7 17L5 17L5 16L4 16L4 18L5 18L5 19L6 19L6 20L5 20L5 21L6 21L6 22L5 22L5 23L4 23L4 24L5 24L5 26L3 26L3 24L2 24L2 25L1 25L1 26L3 26L3 27L4 27L4 28L7 28L7 29L6 29L6 30L7 30L7 31L5 31L5 30L4 30L4 31L5 31L5 32L9 32L9 31L8 31L8 30L9 30L9 28L10 28L10 30L11 30L11 32L10 32L10 33L11 33L11 32L13 32L13 33L14 33L14 29L13 29L13 28L12 28L12 27L11 27L11 26L10 26L10 24L9 24L9 23L11 23L11 24L12 24L12 25L13 25L13 27L14 27L14 28L15 28L15 29L17 29L17 28L16 28L16 27L17 27L17 26L14 26L14 25L13 25L13 20L14 20L14 21L16 21L16 20L18 20L18 22L19 22L19 23L17 23L17 22L16 22L16 23L15 23L15 22L14 22L14 24L16 24L16 25L17 25L17 24L19 24L19 25L18 25L18 26L19 26L19 25L20 25L20 24L19 24L19 23L21 23L21 26L22 26L22 27L23 27L23 28L21 28L21 27L19 27L19 28L18 28L18 29L19 29L19 31L18 31L18 30L16 30L16 32L15 32L15 35L14 35L14 34L9 34L9 35L11 35L11 36L17 36L17 35L19 35L19 34L23 34L23 35L20 35L20 36L19 36L19 37L16 37L16 38L15 38L15 37L13 37L13 38L14 38L14 40L13 40L13 39L9 39L9 42L8 42L8 38L7 38L7 37L5 37L5 39L6 39L6 40L5 40L5 41L4 41L4 39L3 39L3 40L1 40L1 41L2 41L2 42L4 42L4 44L3 44L3 45L2 45L2 47L1 47L1 48L3 48L3 46L4 46L4 47L5 47L5 46L7 46L7 45L9 45L9 46L8 46L8 47L9 47L9 46L10 46L10 48L8 48L8 49L11 49L11 50L10 50L10 51L9 51L9 50L8 50L8 51L9 51L9 52L8 52L8 53L9 53L9 54L10 54L10 53L11 53L11 54L12 54L12 55L10 55L10 57L11 57L11 58L12 58L12 59L13 59L13 61L12 61L12 62L14 62L14 65L16 65L16 64L17 64L17 63L19 63L19 62L18 62L18 61L17 61L17 59L16 59L16 56L17 56L17 55L18 55L18 57L17 57L17 58L18 58L18 57L20 57L20 58L19 58L19 59L18 59L18 60L19 60L19 59L21 59L21 56L22 56L22 53L23 53L23 51L22 51L22 53L19 53L19 49L20 49L20 50L21 50L21 49L23 49L23 50L26 50L26 51L27 51L27 50L29 50L29 51L28 51L28 52L27 52L27 53L28 53L28 52L29 52L29 51L30 51L30 50L31 50L31 49L32 49L32 47L33 47L33 46L31 46L31 43L35 43L35 45L34 45L34 46L36 46L36 44L37 44L37 43L38 43L38 46L37 46L37 47L36 47L36 49L38 49L38 48L39 48L39 49L40 49L40 50L38 50L38 51L39 51L39 52L40 52L40 53L37 53L37 52L35 52L35 51L34 51L34 50L32 50L32 51L31 51L31 52L33 52L33 51L34 51L34 53L35 53L35 55L34 55L34 56L36 56L36 57L37 57L37 55L38 55L38 56L40 56L40 55L41 55L41 54L42 54L42 55L43 55L43 54L45 54L45 53L43 53L43 52L45 52L45 51L44 51L44 50L46 50L46 51L47 51L47 52L46 52L46 53L47 53L47 54L49 54L49 55L50 55L50 54L51 54L51 56L53 56L53 55L55 55L55 53L54 53L54 54L53 54L53 50L54 50L54 52L56 52L56 51L55 51L55 49L56 49L56 50L57 50L57 52L58 52L58 53L59 53L59 54L57 54L57 53L56 53L56 55L57 55L57 56L55 56L55 57L57 57L57 58L58 58L58 59L56 59L56 63L57 63L57 65L58 65L58 64L59 64L59 65L60 65L60 66L61 66L61 67L62 67L62 66L63 66L63 65L60 65L60 64L59 64L59 63L60 63L60 62L59 62L59 61L60 61L60 58L59 58L59 57L60 57L60 55L61 55L61 54L60 54L60 53L59 53L59 52L61 52L61 51L58 51L58 50L59 50L59 49L60 49L60 50L61 50L61 49L62 49L62 48L64 48L64 47L65 47L65 46L66 46L66 45L68 45L68 44L67 44L67 43L66 43L66 42L67 42L67 41L68 41L68 40L65 40L65 43L64 43L64 44L65 44L65 45L63 45L63 42L61 42L61 40L63 40L63 41L64 41L64 40L63 40L63 38L65 38L65 37L63 37L63 38L61 38L61 37L60 37L60 34L59 34L59 33L60 33L60 32L61 32L61 31L62 31L62 32L63 32L63 29L62 29L62 28L63 28L63 26L64 26L64 25L65 25L65 26L66 26L66 25L65 25L65 23L64 23L64 21L62 21L62 20L61 20L61 21L62 21L62 22L63 22L63 23L61 23L61 22L60 22L60 24L59 24L59 23L57 23L57 22L56 22L56 21L58 21L58 22L59 22L59 21L60 21L60 20L59 20L59 19L58 19L58 20L57 20L57 18L56 18L56 19L55 19L55 20L54 20L54 18L55 18L55 16L56 16L56 14L55 14L55 13L58 13L58 14L60 14L60 15L59 15L59 16L57 16L57 17L59 17L59 16L60 16L60 15L61 15L61 16L62 16L62 15L63 15L63 14L61 14L61 11L60 11L60 13L58 13L58 12L56 12L56 11L57 11L57 10L58 10L58 11L59 11L59 9L61 9L61 8L59 8L59 7L58 7L58 6L57 6L57 7L56 7L56 9L55 9L55 10L51 10L51 8L50 8L50 10L51 10L51 11L52 11L52 12L50 12L50 11L47 11L47 12L50 12L50 13L51 13L51 14L52 14L52 13L53 13L53 15L55 15L55 16L52 16L52 15L50 15L50 14L49 14L49 13L46 13L46 14L48 14L48 17L49 17L49 20L48 20L48 18L46 18L46 19L47 19L47 21L45 21L45 20L44 20L44 18L45 18L45 17L46 17L46 16L47 16L47 15L46 15L46 16L45 16L45 17L44 17L44 18L43 18L43 21L44 21L44 22L43 22L43 24L44 24L44 25L41 25L41 24L42 24L42 23L39 23L39 20L41 20L41 21L40 21L40 22L41 22L41 21L42 21L42 19L41 19L41 16L40 16L40 17L37 17L37 16L38 16L38 15L39 15L39 14L38 14L38 15L37 15L37 14L36 14L36 15L35 15L35 12L34 12L34 13L33 13L33 11L32 11L32 6L31 6L31 8L30 8L30 6L29 6L29 8L28 8L28 6L27 6L27 8L25 8L25 7L26 7L26 6L25 6L25 4L24 4L24 3L23 3L23 2L22 2L22 1L21 1L21 2L20 2L20 3L19 3L19 1ZM52 1L52 2L53 2L53 1ZM28 3L28 5L29 5L29 3ZM31 3L31 4L30 4L30 5L31 5L31 4L33 4L33 3ZM35 3L35 4L36 4L36 3ZM37 3L37 4L38 4L38 3ZM60 3L60 5L61 5L61 3ZM15 5L15 6L14 6L14 7L13 7L13 8L15 8L15 9L16 9L16 10L17 10L17 15L16 15L16 11L15 11L15 10L14 10L14 11L13 11L13 12L12 12L12 13L11 13L11 14L12 14L12 13L13 13L13 14L14 14L14 15L15 15L15 16L16 16L16 18L15 18L15 19L16 19L16 18L17 18L17 15L19 15L19 16L18 16L18 17L19 17L19 16L20 16L20 19L19 19L19 18L18 18L18 20L19 20L19 22L20 22L20 19L21 19L21 18L22 18L22 17L21 17L21 16L20 16L20 14L21 14L21 13L20 13L20 12L25 12L25 10L26 10L26 9L25 9L25 10L24 10L24 9L23 9L23 8L22 8L22 9L23 9L23 11L22 11L22 10L20 10L20 9L18 9L18 7L19 7L19 6L18 6L18 5L17 5L17 6L16 6L16 5ZM33 5L33 8L36 8L36 5ZM38 5L38 6L37 6L37 9L38 9L38 6L39 6L39 7L40 7L40 6L39 6L39 5ZM8 6L8 7L9 7L9 6ZM15 6L15 7L16 7L16 8L17 8L17 7L18 7L18 6L17 6L17 7L16 7L16 6ZM24 6L24 7L25 7L25 6ZM34 6L34 7L35 7L35 6ZM49 6L49 7L50 7L50 6ZM57 7L57 8L58 8L58 9L59 9L59 8L58 8L58 7ZM27 8L27 9L28 9L28 8ZM29 8L29 9L30 9L30 8ZM39 8L39 9L40 9L40 8ZM17 9L17 10L18 10L18 9ZM19 10L19 11L18 11L18 12L20 12L20 10ZM28 10L28 11L27 11L27 15L28 15L28 16L29 16L29 15L30 15L30 16L32 16L32 17L30 17L30 18L32 18L32 17L33 17L33 16L32 16L32 15L30 15L30 13L32 13L32 12L30 12L30 11L31 11L31 10L30 10L30 11L29 11L29 10ZM67 10L67 11L66 11L66 12L67 12L67 13L68 13L68 12L67 12L67 11L68 11L68 10ZM1 11L1 12L2 12L2 11ZM6 11L6 12L7 12L7 11ZM14 11L14 12L15 12L15 11ZM28 11L28 15L29 15L29 11ZM53 11L53 12L54 12L54 11ZM14 13L14 14L15 14L15 13ZM18 13L18 14L19 14L19 13ZM25 13L25 14L26 14L26 13ZM6 14L6 15L7 15L7 14ZM9 14L9 15L8 15L8 16L10 16L10 17L9 17L9 19L7 19L7 18L8 18L8 17L7 17L7 18L6 18L6 19L7 19L7 20L6 20L6 21L7 21L7 22L6 22L6 23L7 23L7 24L6 24L6 25L8 25L8 23L9 23L9 22L11 22L11 21L10 21L10 20L12 20L12 19L13 19L13 17L12 17L12 16L11 16L11 15L10 15L10 14ZM22 14L22 15L23 15L23 16L26 16L26 18L28 18L28 19L29 19L29 17L27 17L27 16L26 16L26 15L23 15L23 14ZM33 14L33 15L34 15L34 14ZM36 15L36 16L35 16L35 18L33 18L33 19L31 19L31 22L30 22L30 20L29 20L29 26L28 26L28 24L27 24L27 23L28 23L28 22L27 22L27 21L28 21L28 20L27 20L27 19L25 19L25 18L24 18L24 17L23 17L23 20L21 20L21 23L25 23L25 21L24 21L24 20L27 20L27 21L26 21L26 24L27 24L27 27L26 27L26 28L25 28L25 27L24 27L24 25L25 25L25 26L26 26L26 25L25 25L25 24L22 24L22 25L23 25L23 27L24 27L24 28L25 28L25 30L26 30L26 29L27 29L27 31L29 31L29 33L30 33L30 34L29 34L29 35L28 35L28 32L27 32L27 35L26 35L26 36L29 36L29 38L28 38L28 37L27 37L27 38L28 38L28 39L27 39L27 40L25 40L25 39L26 39L26 37L25 37L25 38L24 38L24 39L23 39L23 38L22 38L22 39L23 39L23 41L21 41L21 39L20 39L20 40L19 40L19 41L21 41L21 42L20 42L20 43L19 43L19 42L18 42L18 41L16 41L16 40L17 40L17 39L18 39L18 38L17 38L17 39L15 39L15 40L14 40L14 42L15 42L15 41L16 41L16 42L18 42L18 43L17 43L17 44L15 44L15 45L14 45L14 46L13 46L13 44L11 44L11 42L10 42L10 43L9 43L9 45L10 45L10 46L12 46L12 47L13 47L13 48L11 48L11 49L13 49L13 50L16 50L16 47L17 47L17 46L16 46L16 47L15 47L15 45L18 45L18 48L17 48L17 51L15 51L15 52L13 52L13 51L10 51L10 52L9 52L9 53L10 53L10 52L11 52L11 53L12 53L12 54L13 54L13 56L12 56L12 57L13 57L13 59L15 59L15 60L14 60L14 62L15 62L15 63L16 63L16 59L15 59L15 55L17 55L17 54L18 54L18 53L16 53L16 52L17 52L17 51L18 51L18 48L19 48L19 47L21 47L21 48L23 48L23 49L25 49L25 48L26 48L26 47L27 47L27 45L26 45L26 46L25 46L25 45L23 45L23 43L22 43L22 44L21 44L21 42L25 42L25 41L26 41L26 43L24 43L24 44L27 44L27 43L29 43L29 44L28 44L28 45L29 45L29 46L28 46L28 47L31 47L31 46L30 46L30 43L29 43L29 40L32 40L32 38L30 38L30 37L31 37L31 36L32 36L32 37L33 37L33 38L35 38L35 40L37 40L37 39L38 39L38 40L39 40L39 42L40 42L40 43L39 43L39 45L41 45L41 46L40 46L40 47L39 47L39 46L38 46L38 47L39 47L39 48L42 48L42 49L44 49L44 48L43 48L43 47L44 47L44 46L45 46L45 45L46 45L46 43L47 43L47 45L48 45L48 43L47 43L47 41L46 41L46 40L47 40L47 39L49 39L49 41L52 41L52 40L53 40L53 42L52 42L52 44L51 44L51 43L50 43L50 42L49 42L49 43L50 43L50 45L49 45L49 46L46 46L46 47L47 47L47 48L45 48L45 49L47 49L47 51L48 51L48 52L50 52L50 53L51 53L51 54L52 54L52 55L53 55L53 54L52 54L52 50L53 50L53 49L52 49L52 46L55 46L55 47L54 47L54 49L55 49L55 47L56 47L56 48L58 48L58 49L57 49L57 50L58 50L58 49L59 49L59 47L60 47L60 48L61 48L61 47L63 47L63 45L62 45L62 46L60 46L60 45L59 45L59 47L58 47L58 46L57 46L57 45L58 45L58 43L60 43L60 42L59 42L59 41L60 41L60 39L59 39L59 40L58 40L58 39L57 39L57 38L58 38L58 36L59 36L59 35L58 35L58 34L56 34L56 33L55 33L55 32L56 32L56 29L57 29L57 31L58 31L58 30L60 30L60 31L61 31L61 30L60 30L60 29L59 29L59 26L58 26L58 24L57 24L57 23L56 23L56 24L57 24L57 26L56 26L56 25L55 25L55 24L54 24L54 23L53 23L53 22L55 22L55 21L54 21L54 20L53 20L53 18L54 18L54 17L52 17L52 16L51 16L51 18L50 18L50 19L51 19L51 20L49 20L49 22L48 22L48 21L47 21L47 23L46 23L46 22L44 22L44 23L46 23L46 25L45 25L45 26L46 26L46 27L45 27L45 28L41 28L41 30L38 30L38 33L37 33L37 32L33 32L33 31L35 31L35 30L36 30L36 31L37 31L37 29L38 29L38 27L36 27L36 25L37 25L37 26L40 26L40 25L37 25L37 24L38 24L38 22L37 22L37 24L35 24L35 23L34 23L34 22L33 22L33 24L35 24L35 25L31 25L31 24L30 24L30 23L32 23L32 21L33 21L33 20L34 20L34 19L35 19L35 21L36 21L36 19L37 19L37 17L36 17L36 16L37 16L37 15ZM64 15L64 17L60 17L60 19L62 19L62 18L63 18L63 19L64 19L64 20L65 20L65 22L66 22L66 20L67 20L67 19L65 19L65 15ZM10 17L10 19L9 19L9 20L10 20L10 19L11 19L11 17ZM38 18L38 19L39 19L39 18ZM51 20L51 21L50 21L50 22L51 22L51 23L50 23L50 24L49 24L49 25L50 25L50 24L51 24L51 26L50 26L50 27L49 27L49 26L48 26L48 24L47 24L47 25L46 25L46 26L47 26L47 27L46 27L46 29L47 29L47 27L48 27L48 31L50 31L50 32L48 32L48 33L47 33L47 32L45 32L45 31L47 31L47 30L45 30L45 29L44 29L44 31L43 31L43 29L42 29L42 30L41 30L41 31L39 31L39 32L41 32L41 33L42 33L42 32L43 32L43 37L41 37L41 34L40 34L40 35L38 35L38 34L39 34L39 33L38 33L38 34L37 34L37 35L38 35L38 36L37 36L37 37L36 37L36 38L37 38L37 37L39 37L39 38L38 38L38 39L41 39L41 40L40 40L40 42L41 42L41 45L43 45L43 46L41 46L41 47L43 47L43 46L44 46L44 45L45 45L45 44L44 44L44 43L46 43L46 42L44 42L44 41L43 41L43 40L42 40L42 39L44 39L44 40L45 40L45 38L43 38L43 37L46 37L46 39L47 39L47 38L49 38L49 37L50 37L50 36L51 36L51 38L50 38L50 40L51 40L51 38L53 38L53 39L55 39L55 40L54 40L54 42L53 42L53 44L54 44L54 45L55 45L55 46L56 46L56 47L57 47L57 46L56 46L56 45L57 45L57 44L54 44L54 43L58 43L58 40L57 40L57 41L55 41L55 40L56 40L56 39L55 39L55 38L56 38L56 37L57 37L57 36L58 36L58 35L55 35L55 34L54 34L54 37L53 37L53 36L51 36L51 35L53 35L53 34L52 34L52 33L51 33L51 31L50 31L50 30L51 30L51 28L50 28L50 27L51 27L51 26L52 26L52 29L54 29L54 30L52 30L52 32L53 32L53 33L54 33L54 32L53 32L53 31L54 31L54 30L55 30L55 28L57 28L57 29L58 29L58 28L57 28L57 27L55 27L55 25L53 25L53 23L52 23L52 22L53 22L53 21L52 21L52 20ZM58 20L58 21L59 21L59 20ZM22 21L22 22L23 22L23 21ZM16 23L16 24L17 24L17 23ZM63 23L63 25L61 25L61 24L60 24L60 25L61 25L61 27L60 27L60 28L62 28L62 26L63 26L63 25L64 25L64 23ZM66 23L66 24L67 24L67 23ZM30 25L30 27L31 27L31 25ZM52 25L52 26L53 26L53 25ZM6 26L6 27L7 27L7 28L9 28L9 27L10 27L10 26L9 26L9 27L7 27L7 26ZM33 26L33 27L32 27L32 31L33 31L33 30L35 30L35 26ZM41 26L41 27L42 27L42 26ZM43 26L43 27L44 27L44 26ZM28 27L28 28L27 28L27 29L31 29L31 28L29 28L29 27ZM39 27L39 29L40 29L40 27ZM53 27L53 28L55 28L55 27ZM11 28L11 29L12 29L12 30L13 30L13 29L12 29L12 28ZM21 29L21 31L20 31L20 32L21 32L21 33L24 33L24 35L25 35L25 32L26 32L26 31L24 31L24 29L23 29L23 31L24 31L24 32L22 32L22 29ZM29 30L29 31L30 31L30 30ZM30 32L30 33L32 33L32 32ZM57 32L57 33L58 33L58 32ZM5 33L5 36L8 36L8 33ZM17 33L17 34L16 34L16 35L17 35L17 34L19 34L19 33ZM33 33L33 36L36 36L36 33ZM44 33L44 34L45 34L45 35L44 35L44 36L47 36L47 37L49 37L49 36L50 36L50 35L48 35L48 34L50 34L50 33L48 33L48 34L47 34L47 35L46 35L46 34L45 34L45 33ZM61 33L61 36L64 36L64 33ZM65 33L65 35L66 35L66 37L67 37L67 35L66 35L66 34L68 34L68 33ZM6 34L6 35L7 35L7 34ZM30 34L30 35L32 35L32 34ZM34 34L34 35L35 35L35 34ZM62 34L62 35L63 35L63 34ZM47 35L47 36L48 36L48 35ZM9 36L9 38L12 38L12 37L10 37L10 36ZM20 36L20 37L19 37L19 38L21 38L21 36ZM23 36L23 37L24 37L24 36ZM55 36L55 37L56 37L56 36ZM40 37L40 38L41 38L41 39L42 39L42 38L41 38L41 37ZM6 38L6 39L7 39L7 38ZM29 38L29 39L30 39L30 38ZM33 39L33 42L34 42L34 39ZM6 40L6 41L7 41L7 40ZM10 40L10 41L11 41L11 40ZM12 40L12 41L13 41L13 40ZM24 40L24 41L25 41L25 40ZM27 41L27 42L28 42L28 41ZM30 41L30 42L31 42L31 41ZM36 41L36 43L37 43L37 41ZM41 41L41 42L42 42L42 41ZM5 42L5 44L4 44L4 45L7 45L7 44L8 44L8 43L7 43L7 42ZM12 42L12 43L13 43L13 42ZM6 43L6 44L7 44L7 43ZM42 43L42 44L43 44L43 43ZM61 43L61 44L62 44L62 43ZM18 44L18 45L19 45L19 46L22 46L22 47L23 47L23 48L24 48L24 47L25 47L25 46L24 46L24 47L23 47L23 45L20 45L20 44ZM32 44L32 45L33 45L33 44ZM50 45L50 47L51 47L51 46L52 46L52 45ZM6 47L6 48L7 48L7 47ZM14 47L14 49L15 49L15 47ZM48 47L48 48L49 48L49 49L48 49L48 50L49 50L49 51L50 51L50 52L51 52L51 51L50 51L50 50L49 50L49 49L51 49L51 50L52 50L52 49L51 49L51 48L49 48L49 47ZM27 48L27 49L26 49L26 50L27 50L27 49L31 49L31 48ZM34 48L34 49L35 49L35 48ZM3 49L3 51L4 51L4 52L2 52L2 54L1 54L1 55L3 55L3 56L5 56L5 55L6 55L6 56L8 56L8 54L7 54L7 53L6 53L6 52L7 52L7 51L6 51L6 50L7 50L7 49L6 49L6 50L5 50L5 49ZM4 50L4 51L5 51L5 50ZM36 50L36 51L37 51L37 50ZM40 51L40 52L41 52L41 51ZM12 52L12 53L13 53L13 52ZM24 52L24 54L25 54L25 52ZM14 53L14 54L15 54L15 53ZM40 53L40 54L41 54L41 53ZM4 54L4 55L5 55L5 54ZM6 54L6 55L7 55L7 54ZM19 54L19 55L20 55L20 54ZM38 54L38 55L39 55L39 54ZM23 55L23 56L24 56L24 55ZM13 56L13 57L14 57L14 56ZM57 56L57 57L58 57L58 56ZM38 57L38 58L39 58L39 59L40 59L40 58L39 58L39 57ZM0 58L0 61L1 61L1 58ZM28 58L28 59L30 59L30 58ZM35 58L35 59L36 59L36 60L37 60L37 61L38 61L38 60L37 60L37 58ZM44 59L44 61L46 61L46 60L45 60L45 59ZM52 59L52 60L53 60L53 59ZM58 59L58 60L59 60L59 59ZM3 60L3 61L5 61L5 60ZM26 60L26 61L27 61L27 60ZM65 60L65 63L67 63L67 61L66 61L66 60ZM33 61L33 64L36 64L36 61ZM52 61L52 62L53 62L53 63L54 63L54 62L53 62L53 61ZM61 61L61 64L64 64L64 61ZM34 62L34 63L35 63L35 62ZM57 62L57 63L58 63L58 62ZM62 62L62 63L63 63L63 62ZM50 63L50 65L51 65L51 66L52 66L52 63ZM8 65L8 69L9 69L9 65ZM20 65L20 67L21 67L21 65ZM46 65L46 68L45 68L45 69L48 69L48 68L47 68L47 65ZM48 65L48 66L49 66L49 67L50 67L50 66L49 66L49 65ZM44 66L44 67L45 67L45 66ZM64 67L64 69L66 69L66 68L65 68L65 67ZM68 67L68 68L69 68L69 67ZM24 68L24 69L25 69L25 68ZM49 68L49 69L50 69L50 68ZM57 68L57 69L58 69L58 68ZM0 0L0 7L7 7L7 0ZM1 1L1 6L6 6L6 1ZM2 2L2 5L5 5L5 2ZM62 0L62 7L69 7L69 0ZM63 1L63 6L68 6L68 1ZM64 2L64 5L67 5L67 2ZM0 62L0 69L7 69L7 62ZM1 63L1 68L6 68L6 63ZM2 64L2 67L5 67L5 64Z" fill="#000000"/></g></g></svg>
