<?xml version="1.0" encoding="UTF-8"?>
<svg xmlns="http://www.w3.org/2000/svg" version="1.1" width="300" height="300" viewBox="0 0 300 300"><rect x="0" y="0" width="300" height="300" fill="#ffffff"/><g transform="scale(4.348)"><g transform="translate(0,0)"><path fill-rule="evenodd" d="M8 0L8 1L9 1L9 2L8 2L8 5L9 5L9 6L8 6L8 7L9 7L9 6L10 6L10 7L11 7L11 5L10 5L10 4L12 4L12 3L13 3L13 2L12 2L12 1L11 1L11 0ZM14 0L14 2L16 2L16 3L14 3L14 5L13 5L13 6L12 6L12 8L10 8L10 9L9 9L9 8L8 8L8 9L7 9L7 8L6 8L6 9L5 9L5 11L4 11L4 12L3 12L3 9L4 9L4 8L0 8L0 11L1 11L1 12L0 12L0 13L1 13L1 14L0 14L0 15L1 15L1 16L0 16L0 18L1 18L1 16L3 16L3 15L2 15L2 13L1 13L1 12L3 12L3 14L5 14L5 11L7 11L7 12L6 12L6 13L7 13L7 12L9 12L9 14L10 14L10 15L8 15L8 18L6 18L6 17L7 17L7 16L6 16L6 17L5 17L5 21L4 21L4 20L3 20L3 21L2 21L2 22L1 22L1 19L0 19L0 23L1 23L1 24L0 24L0 25L1 25L1 24L2 24L2 23L3 23L3 21L4 21L4 22L5 22L5 23L4 23L4 24L3 24L3 26L2 26L2 27L1 27L1 26L0 26L0 28L2 28L2 29L3 29L3 30L2 30L2 31L3 31L3 30L4 30L4 31L5 31L5 32L1 32L1 31L0 31L0 35L1 35L1 37L0 37L0 39L2 39L2 40L1 40L1 41L0 41L0 42L1 42L1 41L2 41L2 43L0 43L0 44L2 44L2 45L3 45L3 46L1 46L1 48L0 48L0 49L1 49L1 51L0 51L0 52L1 52L1 53L0 53L0 61L1 61L1 55L2 55L2 59L3 59L3 58L4 58L4 59L7 59L7 60L6 60L6 61L8 61L8 62L9 62L9 64L10 64L10 65L11 65L11 67L10 67L10 66L9 66L9 65L8 65L8 69L9 69L9 67L10 67L10 68L11 68L11 69L12 69L12 68L13 68L13 69L14 69L14 67L15 67L15 66L16 66L16 67L18 67L18 68L15 68L15 69L18 69L18 68L19 68L19 67L20 67L20 69L21 69L21 68L22 68L22 69L23 69L23 67L24 67L24 65L25 65L25 66L26 66L26 64L27 64L27 63L28 63L28 60L27 60L27 62L26 62L26 64L23 64L23 62L22 62L22 61L20 61L20 60L18 60L18 59L19 59L19 58L20 58L20 59L21 59L21 60L22 60L22 59L21 59L21 58L22 58L22 56L23 56L23 57L24 57L24 58L25 58L25 61L26 61L26 59L27 59L27 57L29 57L29 58L28 58L28 59L29 59L29 61L31 61L31 60L32 60L32 62L31 62L31 65L30 65L30 66L28 66L28 65L27 65L27 69L30 69L30 67L32 67L32 68L33 68L33 69L35 69L35 67L38 67L38 68L39 68L39 69L42 69L42 68L43 68L43 67L41 67L41 66L42 66L42 65L40 65L40 64L41 64L41 62L39 62L39 61L40 61L40 60L41 60L41 61L42 61L42 60L41 60L41 59L42 59L42 58L43 58L43 56L41 56L41 55L42 55L42 53L40 53L40 51L38 51L38 50L40 50L40 49L39 49L39 47L40 47L40 48L42 48L42 49L44 49L44 48L43 48L43 47L46 47L46 48L45 48L45 50L44 50L44 52L43 52L43 54L44 54L44 55L46 55L46 54L47 54L47 59L48 59L48 60L45 60L45 61L49 61L49 62L48 62L48 63L47 63L47 64L49 64L49 65L48 65L48 68L51 68L51 69L54 69L54 68L52 68L52 66L53 66L53 67L54 67L54 66L53 66L53 65L55 65L55 69L56 69L56 67L57 67L57 66L59 66L59 68L60 68L60 69L62 69L62 68L63 68L63 69L65 69L65 68L64 68L64 65L66 65L66 66L68 66L68 65L69 65L69 63L68 63L68 65L67 65L67 63L65 63L65 60L66 60L66 59L68 59L68 60L67 60L67 62L69 62L69 61L68 61L68 60L69 60L69 58L68 58L68 57L69 57L69 55L68 55L68 54L69 54L69 52L68 52L68 51L65 51L65 52L66 52L66 53L67 53L67 52L68 52L68 54L66 54L66 55L64 55L64 56L63 56L63 57L61 57L61 56L62 56L62 54L65 54L65 53L63 53L63 52L64 52L64 51L62 51L62 52L61 52L61 54L59 54L59 53L60 53L60 52L59 52L59 53L57 53L57 51L54 51L54 50L53 50L53 49L55 49L55 50L58 50L58 49L56 49L56 48L55 48L55 47L56 47L56 46L57 46L57 45L56 45L56 46L55 46L55 45L54 45L54 44L58 44L58 45L59 45L59 44L58 44L58 43L60 43L60 45L61 45L61 47L59 47L59 46L58 46L58 47L57 47L57 48L60 48L60 50L59 50L59 51L60 51L60 50L61 50L61 49L62 49L62 48L63 48L63 50L64 50L64 49L65 49L65 48L66 48L66 46L67 46L67 47L68 47L68 48L67 48L67 50L68 50L68 48L69 48L69 45L68 45L68 46L67 46L67 45L66 45L66 44L65 44L65 45L66 45L66 46L65 46L65 47L64 47L64 48L63 48L63 45L61 45L61 43L62 43L62 44L63 44L63 43L62 43L62 42L61 42L61 40L62 40L62 41L64 41L64 42L65 42L65 43L66 43L66 42L67 42L67 43L68 43L68 42L69 42L69 41L67 41L67 37L68 37L68 38L69 38L69 37L68 37L68 36L69 36L69 33L68 33L68 34L67 34L67 32L65 32L65 30L64 30L64 28L65 28L65 29L66 29L66 30L67 30L67 29L68 29L68 30L69 30L69 29L68 29L68 28L69 28L69 27L68 27L68 28L67 28L67 25L69 25L69 21L68 21L68 22L67 22L67 24L66 24L66 23L64 23L64 21L66 21L66 20L64 20L64 19L63 19L63 18L62 18L62 19L63 19L63 20L61 20L61 21L60 21L60 19L61 19L61 18L60 18L60 17L64 17L64 15L62 15L62 14L63 14L63 12L64 12L64 10L66 10L66 9L67 9L67 8L64 8L64 10L62 10L62 8L61 8L61 9L59 9L59 10L58 10L58 11L59 11L59 12L58 12L58 13L57 13L57 14L56 14L56 15L55 15L55 14L53 14L53 13L56 13L56 12L57 12L57 11L55 11L55 10L56 10L56 9L55 9L55 6L54 6L54 7L53 7L53 6L52 6L52 7L51 7L51 3L50 3L50 4L49 4L49 2L51 2L51 1L50 1L50 0L47 0L47 1L45 1L45 0L44 0L44 2L43 2L43 3L41 3L41 2L42 2L42 1L43 1L43 0L41 0L41 1L40 1L40 2L39 2L39 3L41 3L41 4L43 4L43 6L42 6L42 5L41 5L41 6L40 6L40 4L38 4L38 0L35 0L35 1L37 1L37 4L36 4L36 2L34 2L34 1L32 1L32 2L33 2L33 3L32 3L32 4L31 4L31 1L30 1L30 0L28 0L28 2L27 2L27 1L25 1L25 0L23 0L23 2L22 2L22 1L19 1L19 0ZM53 0L53 1L52 1L52 3L53 3L53 4L54 4L54 3L55 3L55 2L56 2L56 3L57 3L57 1L56 1L56 0ZM58 0L58 1L61 1L61 0ZM17 1L17 2L18 2L18 3L19 3L19 2L18 2L18 1ZM47 1L47 2L48 2L48 1ZM54 1L54 2L53 2L53 3L54 3L54 2L55 2L55 1ZM11 2L11 3L12 3L12 2ZM20 2L20 3L21 3L21 4L23 4L23 7L22 7L22 5L20 5L20 4L18 4L18 5L19 5L19 7L20 7L20 6L21 6L21 7L22 7L22 8L20 8L20 10L23 10L23 9L24 9L24 10L25 10L25 13L24 13L24 12L21 12L21 14L19 14L19 13L20 13L20 12L19 12L19 10L15 10L15 11L18 11L18 12L19 12L19 13L17 13L17 12L14 12L14 9L15 9L15 8L17 8L17 7L18 7L18 6L17 6L17 3L16 3L16 4L15 4L15 5L14 5L14 6L13 6L13 8L14 8L14 9L10 9L10 11L9 11L9 12L10 12L10 11L11 11L11 12L12 12L12 13L14 13L14 14L12 14L12 15L11 15L11 17L13 17L13 16L14 16L14 14L15 14L15 15L16 15L16 16L17 16L17 17L14 17L14 18L17 18L17 19L20 19L20 23L19 23L19 22L18 22L18 21L19 21L19 20L18 20L18 21L16 21L16 19L14 19L14 22L13 22L13 23L12 23L12 26L11 26L11 25L9 25L9 23L11 23L11 22L9 22L9 21L8 21L8 20L9 20L9 18L10 18L10 19L11 19L11 18L10 18L10 16L9 16L9 18L8 18L8 20L7 20L7 19L6 19L6 20L7 20L7 21L6 21L6 22L7 22L7 21L8 21L8 24L7 24L7 23L6 23L6 24L7 24L7 25L4 25L4 27L3 27L3 28L4 28L4 29L5 29L5 30L8 30L8 31L9 31L9 32L10 32L10 33L9 33L9 35L10 35L10 36L9 36L9 38L10 38L10 39L8 39L8 40L7 40L7 39L6 39L6 38L7 38L7 37L5 37L5 38L4 38L4 37L2 37L2 39L3 39L3 38L4 38L4 40L7 40L7 41L5 41L5 42L3 42L3 43L5 43L5 44L4 44L4 46L3 46L3 47L2 47L2 51L5 51L5 52L4 52L4 53L3 53L3 52L2 52L2 53L1 53L1 54L2 54L2 53L3 53L3 54L5 54L5 56L3 56L3 57L5 57L5 58L7 58L7 57L9 57L9 58L8 58L8 59L10 59L10 56L9 56L9 55L10 55L10 54L11 54L11 53L12 53L12 51L13 51L13 52L14 52L14 53L16 53L16 52L17 52L17 53L18 53L18 54L20 54L20 55L16 55L16 56L14 56L14 55L13 55L13 54L12 54L12 55L11 55L11 56L12 56L12 57L11 57L11 58L12 58L12 57L13 57L13 59L12 59L12 61L16 61L16 63L14 63L14 62L12 62L12 63L11 63L11 60L10 60L10 61L9 61L9 60L8 60L8 61L9 61L9 62L10 62L10 64L11 64L11 65L14 65L14 66L13 66L13 67L14 67L14 66L15 66L15 65L14 65L14 64L16 64L16 65L17 65L17 63L19 63L19 64L18 64L18 66L19 66L19 64L20 64L20 63L21 63L21 64L22 64L22 65L20 65L20 67L23 67L23 64L22 64L22 63L21 63L21 62L20 62L20 63L19 63L19 62L18 62L18 61L17 61L17 59L16 59L16 56L18 56L18 57L19 57L19 56L20 56L20 55L21 55L21 56L22 56L22 54L23 54L23 56L24 56L24 57L27 57L27 56L29 56L29 57L31 57L31 55L32 55L32 54L31 54L31 53L32 53L32 52L31 52L31 51L30 51L30 50L31 50L31 49L32 49L32 51L33 51L33 53L35 53L35 54L36 54L36 56L35 56L35 55L34 55L34 54L33 54L33 55L34 55L34 56L35 56L35 57L36 57L36 56L37 56L37 57L38 57L38 58L37 58L37 59L36 59L36 58L35 58L35 59L36 59L36 60L37 60L37 61L38 61L38 60L40 60L40 58L39 58L39 56L40 56L40 54L38 54L38 53L39 53L39 52L35 52L35 51L34 51L34 49L35 49L35 50L36 50L36 51L37 51L37 50L36 50L36 49L38 49L38 48L35 48L35 47L33 47L33 45L31 45L31 44L32 44L32 43L33 43L33 44L35 44L35 46L36 46L36 47L37 47L37 46L36 46L36 45L37 45L37 44L40 44L40 45L41 45L41 47L42 47L42 45L43 45L43 46L46 46L46 47L47 47L47 48L46 48L46 50L47 50L47 51L49 51L49 52L47 52L47 53L48 53L48 54L49 54L49 55L48 55L48 57L49 57L49 58L48 58L48 59L49 59L49 58L50 58L50 59L51 59L51 62L50 62L50 65L49 65L49 67L50 67L50 66L52 66L52 65L53 65L53 64L55 64L55 59L56 59L56 61L57 61L57 59L59 59L59 60L58 60L58 62L57 62L57 63L56 63L56 64L57 64L57 65L59 65L59 66L62 66L62 67L63 67L63 65L59 65L59 64L57 64L57 63L59 63L59 62L60 62L60 59L61 59L61 60L62 60L62 58L61 58L61 57L60 57L60 55L59 55L59 54L58 54L58 57L57 57L57 56L55 56L55 55L56 55L56 54L57 54L57 53L56 53L56 52L52 52L52 50L47 50L47 48L49 48L49 49L50 49L50 48L51 48L51 49L53 49L53 48L52 48L52 46L51 46L51 45L50 45L50 46L49 46L49 47L47 47L47 44L48 44L48 45L49 45L49 44L50 44L50 43L51 43L51 41L52 41L52 44L54 44L54 43L53 43L53 41L54 41L54 42L55 42L55 39L56 39L56 40L57 40L57 41L59 41L59 42L60 42L60 41L59 41L59 40L61 40L61 39L62 39L62 40L63 40L63 38L65 38L65 42L66 42L66 37L67 37L67 35L66 35L66 34L65 34L65 36L66 36L66 37L63 37L63 38L60 38L60 39L59 39L59 36L60 36L60 35L59 35L59 33L58 33L58 32L59 32L59 31L61 31L61 30L62 30L62 32L63 32L63 29L62 29L62 28L64 28L64 25L65 25L65 27L66 27L66 24L63 24L63 26L62 26L62 28L61 28L61 27L60 27L60 26L61 26L61 25L62 25L62 23L63 23L63 21L62 21L62 22L61 22L61 25L60 25L60 24L59 24L59 21L58 21L58 19L57 19L57 17L59 17L59 16L58 16L58 15L56 15L56 16L57 16L57 17L54 17L54 18L52 18L52 17L53 17L53 16L52 16L52 17L51 17L51 14L52 14L52 13L53 13L53 12L55 12L55 11L53 11L53 12L52 12L52 10L51 10L51 8L50 8L50 10L51 10L51 14L50 14L50 15L48 15L48 14L49 14L49 13L46 13L46 14L44 14L44 13L45 13L45 12L48 12L48 11L47 11L47 9L46 9L46 8L48 8L48 9L49 9L49 7L50 7L50 5L47 5L47 3L46 3L46 5L45 5L45 8L44 8L44 6L43 6L43 9L45 9L45 10L46 10L46 11L45 11L45 12L44 12L44 13L43 13L43 12L41 12L41 13L42 13L42 14L44 14L44 15L41 15L41 14L40 14L40 10L39 10L39 8L40 8L40 6L39 6L39 5L38 5L38 4L37 4L37 7L38 7L38 8L37 8L37 10L38 10L38 11L39 11L39 12L38 12L38 13L39 13L39 14L40 14L40 17L41 17L41 16L42 16L42 18L43 18L43 19L39 19L39 17L37 17L37 18L38 18L38 20L41 20L41 21L39 21L39 23L38 23L38 22L36 22L36 21L37 21L37 20L36 20L36 18L35 18L35 19L34 19L34 18L33 18L33 19L34 19L34 20L35 20L35 24L33 24L33 23L34 23L34 21L33 21L33 20L31 20L31 18L32 18L32 17L31 17L31 16L30 16L30 15L31 15L31 14L32 14L32 13L33 13L33 14L35 14L35 13L34 13L34 11L35 11L35 12L36 12L36 15L34 15L34 17L35 17L35 16L38 16L38 15L37 15L37 12L36 12L36 9L34 9L34 11L32 11L32 13L31 13L31 14L29 14L29 13L28 13L28 14L27 14L27 12L28 12L28 10L30 10L30 11L31 11L31 10L33 10L33 9L32 9L32 8L31 8L31 10L30 10L30 9L27 9L27 7L28 7L28 8L29 8L29 7L30 7L30 6L29 6L29 7L28 7L28 5L29 5L29 3L30 3L30 2L28 2L28 5L25 5L25 3L26 3L26 4L27 4L27 2L23 2L23 3L21 3L21 2ZM58 2L58 3L59 3L59 2ZM34 3L34 4L35 4L35 3ZM44 3L44 4L45 4L45 3ZM60 3L60 5L61 5L61 3ZM30 4L30 5L31 5L31 4ZM55 4L55 5L56 5L56 8L57 8L57 5L58 5L58 7L59 7L59 4ZM15 5L15 6L14 6L14 8L15 8L15 6L16 6L16 7L17 7L17 6L16 6L16 5ZM24 5L24 8L25 8L25 5ZM33 5L33 8L36 8L36 5ZM46 5L46 7L47 7L47 5ZM26 6L26 7L27 7L27 6ZM31 6L31 7L32 7L32 6ZM34 6L34 7L35 7L35 6ZM38 6L38 7L39 7L39 6ZM41 6L41 7L42 7L42 6ZM48 6L48 7L49 7L49 6ZM60 6L60 7L61 7L61 6ZM52 7L52 8L53 8L53 9L54 9L54 8L53 8L53 7ZM18 8L18 9L19 9L19 8ZM22 8L22 9L23 9L23 8ZM41 8L41 9L42 9L42 8ZM68 8L68 9L69 9L69 8ZM6 9L6 10L7 10L7 9ZM26 9L26 10L27 10L27 9ZM11 10L11 11L12 11L12 12L13 12L13 11L12 11L12 10ZM41 10L41 11L42 11L42 10ZM43 10L43 11L44 11L44 10ZM61 10L61 11L60 11L60 12L59 12L59 13L58 13L58 14L59 14L59 15L60 15L60 14L61 14L61 13L62 13L62 12L61 12L61 11L62 11L62 10ZM67 10L67 12L66 12L66 11L65 11L65 12L66 12L66 13L65 13L65 17L66 17L66 16L68 16L68 18L67 18L67 20L69 20L69 19L68 19L68 18L69 18L69 16L68 16L68 15L66 15L66 14L67 14L67 13L69 13L69 12L68 12L68 11L69 11L69 10ZM49 11L49 12L50 12L50 11ZM10 13L10 14L11 14L11 13ZM16 13L16 14L17 14L17 15L19 15L19 14L17 14L17 13ZM22 13L22 14L21 14L21 15L20 15L20 19L21 19L21 23L23 23L23 24L22 24L22 25L23 25L23 27L24 27L24 28L25 28L25 31L24 31L24 29L23 29L23 31L22 31L22 30L21 30L21 31L20 31L20 30L18 30L18 29L14 29L14 30L13 30L13 29L12 29L12 27L13 27L13 28L14 28L14 27L15 27L15 26L18 26L18 27L19 27L19 26L21 26L21 28L19 28L19 29L22 29L22 26L21 26L21 24L20 24L20 25L19 25L19 23L17 23L17 25L16 25L16 24L15 24L15 23L13 23L13 25L14 25L14 27L13 27L13 26L12 26L12 27L11 27L11 28L10 28L10 27L9 27L9 25L7 25L7 26L6 26L6 27L9 27L9 29L12 29L12 30L11 30L11 31L13 31L13 33L14 33L14 32L15 32L15 33L16 33L16 32L15 32L15 31L17 31L17 30L18 30L18 31L19 31L19 32L22 32L22 34L19 34L19 33L17 33L17 34L16 34L16 35L17 35L17 36L15 36L15 35L14 35L14 36L13 36L13 35L12 35L12 33L11 33L11 34L10 34L10 35L12 35L12 36L11 36L11 37L13 37L13 38L11 38L11 39L10 39L10 40L11 40L11 41L10 41L10 42L9 42L9 43L8 43L8 42L6 42L6 43L8 43L8 44L5 44L5 46L4 46L4 47L3 47L3 48L5 48L5 46L6 46L6 47L7 47L7 48L6 48L6 49L7 49L7 50L5 50L5 51L8 51L8 50L9 50L9 52L6 52L6 53L5 53L5 54L6 54L6 55L7 55L7 54L6 54L6 53L9 53L9 54L10 54L10 48L11 48L11 51L12 51L12 48L13 48L13 47L14 47L14 46L15 46L15 47L16 47L16 44L15 44L15 42L14 42L14 41L16 41L16 42L17 42L17 46L18 46L18 48L17 48L17 50L16 50L16 49L15 49L15 48L14 48L14 49L15 49L15 51L17 51L17 52L18 52L18 51L19 51L19 53L22 53L22 51L24 51L24 52L23 52L23 54L24 54L24 56L26 56L26 55L25 55L25 54L27 54L27 55L29 55L29 54L30 54L30 55L31 55L31 54L30 54L30 53L29 53L29 52L28 52L28 51L29 51L29 50L27 50L27 49L25 49L25 47L24 47L24 48L23 48L23 46L26 46L26 47L27 47L27 48L29 48L29 49L31 49L31 48L32 48L32 47L31 47L31 45L30 45L30 44L31 44L31 42L30 42L30 43L28 43L28 44L27 44L27 45L29 45L29 47L28 47L28 46L26 46L26 45L23 45L23 44L20 44L20 40L21 40L21 39L20 39L20 40L19 40L19 39L18 39L18 37L19 37L19 38L22 38L22 39L23 39L23 38L22 38L22 37L20 37L20 35L21 35L21 36L22 36L22 35L23 35L23 37L25 37L25 38L24 38L24 39L26 39L26 40L25 40L25 41L24 41L24 40L23 40L23 41L21 41L21 43L23 43L23 42L25 42L25 43L24 43L24 44L25 44L25 43L27 43L27 42L29 42L29 39L31 39L31 40L30 40L30 41L32 41L32 42L33 42L33 43L36 43L36 42L33 42L33 41L34 41L34 40L35 40L35 41L36 41L36 40L37 40L37 41L38 41L38 40L39 40L39 42L38 42L38 43L39 43L39 42L40 42L40 43L43 43L43 44L45 44L45 42L46 42L46 44L47 44L47 41L46 41L46 40L47 40L47 39L48 39L48 38L51 38L51 36L53 36L53 37L52 37L52 40L54 40L54 39L53 39L53 37L56 37L56 35L55 35L55 33L56 33L56 34L57 34L57 38L58 38L58 34L57 34L57 33L56 33L56 30L60 30L60 27L57 27L57 28L55 28L55 29L56 29L56 30L54 30L54 28L53 28L53 30L54 30L54 31L52 31L52 32L51 32L51 33L52 33L52 34L50 34L50 32L49 32L49 33L48 33L48 32L47 32L47 35L46 35L46 34L45 34L45 33L44 33L44 34L45 34L45 35L43 35L43 32L42 32L42 33L41 33L41 31L40 31L40 30L41 30L41 29L42 29L42 28L43 28L43 31L44 31L44 30L46 30L46 31L50 31L50 30L49 30L49 29L50 29L50 27L51 27L51 24L53 24L53 23L56 23L56 24L57 24L57 23L56 23L56 22L57 22L57 21L56 21L56 22L55 22L55 21L54 21L54 20L55 20L55 18L54 18L54 20L53 20L53 19L52 19L52 20L51 20L51 19L50 19L50 18L48 18L48 17L45 17L45 16L46 16L46 15L47 15L47 14L46 14L46 15L44 15L44 16L43 16L43 18L44 18L44 20L45 20L45 21L46 21L46 19L45 19L45 18L47 18L47 19L49 19L49 20L51 20L51 22L52 22L52 23L49 23L49 22L50 22L50 21L48 21L48 20L47 20L47 21L48 21L48 23L46 23L46 25L44 25L44 23L43 23L43 22L44 22L44 21L42 21L42 23L39 23L39 24L42 24L42 25L44 25L44 27L42 27L42 26L41 26L41 27L42 27L42 28L41 28L41 29L39 29L39 27L38 27L38 26L40 26L40 25L38 25L38 24L37 24L37 23L36 23L36 24L37 24L37 27L35 27L35 26L34 26L34 27L35 27L35 29L36 29L36 30L34 30L34 29L32 29L32 30L33 30L33 31L31 31L31 30L30 30L30 29L28 29L28 28L33 28L33 27L32 27L32 26L28 26L28 24L27 24L27 26L28 26L28 28L26 28L26 27L24 27L24 25L25 25L25 26L26 26L26 25L25 25L25 24L26 24L26 23L27 23L27 22L26 22L26 21L23 21L23 20L24 20L24 19L21 19L21 18L24 18L24 16L26 16L26 17L28 17L28 18L29 18L29 17L28 17L28 16L29 16L29 15L27 15L27 16L26 16L26 13L25 13L25 14L23 14L23 13ZM6 14L6 15L7 15L7 14ZM12 15L12 16L13 16L13 15ZM21 15L21 16L22 16L22 17L23 17L23 16L22 16L22 15ZM32 15L32 16L33 16L33 15ZM61 15L61 16L62 16L62 15ZM18 16L18 17L19 17L19 16ZM2 17L2 19L4 19L4 18L3 18L3 17ZM30 17L30 18L31 18L31 17ZM44 17L44 18L45 18L45 17ZM12 18L12 20L11 20L11 21L12 21L12 20L13 20L13 18ZM25 18L25 19L26 19L26 20L27 20L27 21L29 21L29 22L28 22L28 23L29 23L29 24L30 24L30 25L33 25L33 24L32 24L32 22L33 22L33 21L31 21L31 24L30 24L30 21L29 21L29 20L27 20L27 19L26 19L26 18ZM15 21L15 22L16 22L16 21ZM22 21L22 22L23 22L23 21ZM24 23L24 24L25 24L25 23ZM42 23L42 24L43 24L43 23ZM47 24L47 25L46 25L46 26L45 26L45 29L46 29L46 26L47 26L47 29L49 29L49 27L50 27L50 24L49 24L49 26L48 26L48 24ZM58 24L58 25L57 25L57 26L58 26L58 25L59 25L59 24ZM55 25L55 26L54 26L54 27L55 27L55 26L56 26L56 25ZM52 26L52 27L53 27L53 26ZM16 27L16 28L17 28L17 27ZM5 28L5 29L8 29L8 28ZM36 28L36 29L37 29L37 33L38 33L38 37L37 37L37 40L38 40L38 39L39 39L39 38L38 38L38 37L39 37L39 34L40 34L40 33L39 33L39 32L40 32L40 31L39 31L39 29L38 29L38 28ZM51 28L51 29L52 29L52 28ZM58 28L58 29L59 29L59 28ZM26 29L26 30L27 30L27 29ZM9 30L9 31L10 31L10 30ZM14 30L14 31L15 31L15 30ZM29 30L29 31L25 31L25 32L24 32L24 31L23 31L23 32L24 32L24 33L25 33L25 35L24 35L24 36L25 36L25 35L28 35L28 36L26 36L26 37L28 37L28 38L26 38L26 39L27 39L27 41L28 41L28 38L31 38L31 37L32 37L32 39L36 39L36 38L35 38L35 37L32 37L32 34L31 34L31 31L30 31L30 30ZM6 31L6 32L7 32L7 31ZM54 31L54 32L53 32L53 33L54 33L54 32L55 32L55 31ZM57 31L57 32L58 32L58 31ZM68 31L68 32L69 32L69 31ZM26 32L26 33L27 33L27 32ZM28 32L28 35L29 35L29 33L30 33L30 32ZM1 33L1 34L2 34L2 35L3 35L3 36L4 36L4 35L3 35L3 34L2 34L2 33ZM5 33L5 36L8 36L8 33ZM33 33L33 36L36 36L36 33ZM61 33L61 36L64 36L64 33ZM6 34L6 35L7 35L7 34ZM34 34L34 35L35 35L35 34ZM49 34L49 35L50 35L50 36L51 36L51 35L50 35L50 34ZM52 34L52 35L53 35L53 34ZM62 34L62 35L63 35L63 34ZM18 35L18 36L19 36L19 35ZM40 35L40 37L41 37L41 38L42 38L42 39L41 39L41 40L40 40L40 42L41 42L41 41L42 41L42 42L43 42L43 43L44 43L44 42L45 42L45 41L43 41L43 40L45 40L45 39L47 39L47 37L46 37L46 38L45 38L45 36L44 36L44 38L43 38L43 37L41 37L41 36L43 36L43 35ZM47 35L47 36L48 36L48 35ZM14 36L14 37L15 37L15 36ZM29 36L29 37L31 37L31 36ZM16 37L16 38L14 38L14 39L16 39L16 38L17 38L17 37ZM44 38L44 39L45 39L45 38ZM11 39L11 40L12 40L12 42L10 42L10 43L11 43L11 44L12 44L12 45L11 45L11 46L12 46L12 47L11 47L11 48L12 48L12 47L13 47L13 46L14 46L14 45L15 45L15 44L14 44L14 42L13 42L13 41L14 41L14 40L12 40L12 39ZM17 39L17 40L16 40L16 41L17 41L17 42L19 42L19 40L18 40L18 39ZM58 39L58 40L59 40L59 39ZM68 39L68 40L69 40L69 39ZM8 40L8 41L9 41L9 40ZM49 40L49 41L51 41L51 40ZM25 41L25 42L26 42L26 41ZM12 42L12 43L13 43L13 42ZM49 42L49 43L48 43L48 44L49 44L49 43L50 43L50 42ZM56 42L56 43L58 43L58 42ZM18 43L18 45L19 45L19 47L20 47L20 48L18 48L18 50L19 50L19 49L20 49L20 50L21 50L21 49L23 49L23 50L24 50L24 51L25 51L25 52L24 52L24 54L25 54L25 52L27 52L27 53L28 53L28 52L27 52L27 50L25 50L25 49L23 49L23 48L22 48L22 46L23 46L23 45L20 45L20 44L19 44L19 43ZM8 44L8 45L6 45L6 46L7 46L7 47L9 47L9 48L8 48L8 49L9 49L9 48L10 48L10 44ZM41 44L41 45L42 45L42 44ZM38 45L38 46L39 46L39 45ZM54 46L54 47L55 47L55 46ZM29 47L29 48L30 48L30 47ZM49 47L49 48L50 48L50 47ZM13 50L13 51L14 51L14 50ZM45 51L45 53L46 53L46 51ZM50 51L50 53L51 53L51 55L52 55L52 56L49 56L49 57L51 57L51 58L52 58L52 57L54 57L54 59L53 59L53 60L54 60L54 59L55 59L55 58L56 58L56 59L57 59L57 58L56 58L56 57L54 57L54 54L53 54L53 53L51 53L51 51ZM36 53L36 54L37 54L37 53ZM12 55L12 56L13 56L13 57L14 57L14 58L15 58L15 57L14 57L14 56L13 56L13 55ZM38 55L38 56L39 56L39 55ZM66 55L66 56L67 56L67 55ZM6 56L6 57L7 57L7 56ZM45 56L45 57L46 57L46 56ZM20 57L20 58L21 58L21 57ZM32 57L32 58L31 58L31 59L30 59L30 60L31 60L31 59L32 59L32 60L34 60L34 58L33 58L33 57ZM63 57L63 58L64 58L64 60L65 60L65 58L67 58L67 57ZM38 58L38 59L37 59L37 60L38 60L38 59L39 59L39 58ZM44 58L44 59L45 59L45 58ZM59 58L59 59L60 59L60 58ZM13 59L13 60L14 60L14 59ZM15 59L15 60L16 60L16 59ZM3 60L3 61L5 61L5 60ZM43 60L43 61L44 61L44 60ZM49 60L49 61L50 61L50 60ZM33 61L33 64L36 64L36 61ZM52 61L52 62L51 62L51 63L53 63L53 61ZM61 61L61 64L64 64L64 61ZM29 62L29 63L30 63L30 62ZM34 62L34 63L35 63L35 62ZM37 62L37 63L38 63L38 64L39 64L39 62ZM43 62L43 63L44 63L44 64L43 64L43 65L45 65L45 63L46 63L46 62L45 62L45 63L44 63L44 62ZM62 62L62 63L63 63L63 62ZM12 63L12 64L14 64L14 63ZM51 64L51 65L52 65L52 64ZM33 65L33 67L34 67L34 65ZM36 65L36 66L39 66L39 68L41 68L41 67L40 67L40 66L39 66L39 65ZM46 65L46 68L45 68L45 69L47 69L47 65ZM44 66L44 67L45 67L45 66ZM68 67L68 68L69 68L69 67ZM24 68L24 69L25 69L25 68ZM57 68L57 69L58 69L58 68ZM66 68L66 69L67 69L67 68ZM0 0L0 7L7 7L7 0ZM1 1L1 6L6 6L6 1ZM2 2L2 5L5 5L5 2ZM62 0L62 7L69 7L69 0ZM63 1L63 6L68 6L68 1ZM64 2L64 5L67 5L67 2ZM0 62L0 69L7 69L7 62ZM1 63L1 68L6 68L6 63ZM2 64L2 67L5 67L5 64Z" fill="#000000"/></g></g></svg>
