<?xml version="1.0" encoding="UTF-8"?>
<svg xmlns="http://www.w3.org/2000/svg" version="1.1" width="300" height="300" viewBox="0 0 300 300"><rect x="0" y="0" width="300" height="300" fill="#ffffff"/><g transform="scale(4.348)"><g transform="translate(0,0)"><path fill-rule="evenodd" d="M8 0L8 4L10 4L10 5L8 5L8 7L9 7L9 6L10 6L10 9L7 9L7 8L4 8L4 9L2 9L2 8L0 8L0 9L2 9L2 10L0 10L0 11L2 11L2 12L0 12L0 16L1 16L1 18L0 18L0 20L1 20L1 22L3 22L3 23L1 23L1 24L0 24L0 25L1 25L1 26L0 26L0 28L1 28L1 29L2 29L2 30L1 30L1 31L0 31L0 33L1 33L1 31L2 31L2 33L4 33L4 36L2 36L2 37L4 37L4 38L6 38L6 39L5 39L5 40L4 40L4 39L3 39L3 38L0 38L0 40L2 40L2 41L3 41L3 40L4 40L4 41L5 41L5 42L3 42L3 44L2 44L2 43L1 43L1 44L0 44L0 47L1 47L1 48L2 48L2 46L3 46L3 47L4 47L4 48L5 48L5 49L8 49L8 51L7 51L7 50L5 50L5 51L7 51L7 52L6 52L6 53L5 53L5 54L6 54L6 55L5 55L5 56L4 56L4 55L3 55L3 54L4 54L4 53L3 53L3 50L4 50L4 49L2 49L2 50L1 50L1 51L2 51L2 52L1 52L1 53L3 53L3 54L0 54L0 56L1 56L1 57L0 57L0 61L1 61L1 57L3 57L3 56L4 56L4 57L7 57L7 58L4 58L4 59L7 59L7 58L10 58L10 57L9 57L9 56L10 56L10 55L9 55L9 54L11 54L11 56L12 56L12 57L11 57L11 59L9 59L9 61L8 61L8 62L10 62L10 60L11 60L11 61L12 61L12 62L11 62L11 63L10 63L10 64L11 64L11 63L13 63L13 64L15 64L15 63L16 63L16 65L11 65L11 66L12 66L12 68L11 68L11 69L12 69L12 68L13 68L13 67L15 67L15 68L14 68L14 69L16 69L16 68L17 68L17 69L19 69L19 68L17 68L17 67L16 67L16 65L17 65L17 66L19 66L19 67L20 67L20 66L21 66L21 65L22 65L22 67L23 67L23 69L25 69L25 68L26 68L26 69L28 69L28 68L27 68L27 67L28 67L28 66L29 66L29 65L30 65L30 66L31 66L31 67L30 67L30 68L29 68L29 69L31 69L31 67L32 67L32 69L33 69L33 68L34 68L34 69L35 69L35 68L34 68L34 67L33 67L33 66L34 66L34 65L37 65L37 63L38 63L38 64L39 64L39 65L38 65L38 66L37 66L37 67L39 67L39 66L40 66L40 63L41 63L41 67L40 67L40 68L38 68L38 69L40 69L40 68L41 68L41 69L42 69L42 68L41 68L41 67L43 67L43 63L44 63L44 69L46 69L46 67L45 67L45 63L44 63L44 62L45 62L45 61L46 61L46 60L47 60L47 63L46 63L46 64L47 64L47 65L50 65L50 67L49 67L49 68L47 68L47 69L52 69L52 68L56 68L56 69L57 69L57 68L59 68L59 69L60 69L60 67L56 67L56 66L58 66L58 65L57 65L57 63L56 63L56 62L57 62L57 61L58 61L58 60L56 60L56 59L55 59L55 58L56 58L56 57L57 57L57 59L58 59L58 57L59 57L59 58L60 58L60 59L59 59L59 60L60 60L60 61L59 61L59 62L60 62L60 63L58 63L58 64L60 64L60 66L62 66L62 67L61 67L61 69L63 69L63 68L65 68L65 69L67 69L67 68L65 68L65 63L66 63L66 62L67 62L67 65L66 65L66 67L67 67L67 66L69 66L69 63L68 63L68 62L69 62L69 61L68 61L68 58L69 58L69 57L68 57L68 54L67 54L67 53L69 53L69 52L68 52L68 50L67 50L67 49L69 49L69 47L68 47L68 46L67 46L67 44L66 44L66 46L64 46L64 43L66 43L66 42L64 42L64 43L63 43L63 44L62 44L62 40L63 40L63 41L67 41L67 43L68 43L68 44L69 44L69 43L68 43L68 41L69 41L69 39L68 39L68 38L69 38L69 35L68 35L68 33L69 33L69 32L68 32L68 33L67 33L67 34L66 34L66 32L63 32L63 31L64 31L64 30L65 30L65 31L68 31L68 30L65 30L65 29L64 29L64 28L65 28L65 27L67 27L67 28L68 28L68 26L69 26L69 25L68 25L68 24L69 24L69 23L68 23L68 21L69 21L69 20L68 20L68 18L67 18L67 17L69 17L69 15L68 15L68 14L69 14L69 11L68 11L68 10L69 10L69 8L65 8L65 9L67 9L67 10L63 10L63 9L64 9L64 8L63 8L63 9L62 9L62 10L61 10L61 6L60 6L60 9L59 9L59 4L58 4L58 5L56 5L56 3L59 3L59 2L57 2L57 1L61 1L61 0L57 0L57 1L55 1L55 0L50 0L50 1L48 1L48 0L47 0L47 1L46 1L46 0L45 0L45 1L44 1L44 0L41 0L41 1L40 1L40 0L37 0L37 1L35 1L35 2L34 2L34 1L33 1L33 0L32 0L32 1L31 1L31 0L30 0L30 1L29 1L29 0L23 0L23 1L22 1L22 0L16 0L16 1L13 1L13 0L11 0L11 1L10 1L10 0ZM9 1L9 3L10 3L10 4L11 4L11 3L12 3L12 2L10 2L10 1ZM16 1L16 2L13 2L13 3L14 3L14 6L13 6L13 7L12 7L12 5L13 5L13 4L12 4L12 5L11 5L11 7L12 7L12 8L11 8L11 9L10 9L10 10L11 10L11 9L14 9L14 11L15 11L15 12L16 12L16 13L15 13L15 14L17 14L17 15L18 15L18 14L17 14L17 12L18 12L18 11L17 11L17 10L19 10L19 16L18 16L18 17L17 17L17 16L16 16L16 15L14 15L14 16L12 16L12 15L13 15L13 13L12 13L12 12L13 12L13 11L12 11L12 12L10 12L10 13L8 13L8 12L7 12L7 11L9 11L9 10L7 10L7 9L4 9L4 10L2 10L2 11L5 11L5 12L7 12L7 13L4 13L4 12L2 12L2 13L1 13L1 14L2 14L2 13L4 13L4 14L3 14L3 15L4 15L4 14L5 14L5 15L6 15L6 16L2 16L2 15L1 15L1 16L2 16L2 17L4 17L4 18L5 18L5 17L6 17L6 18L7 18L7 19L6 19L6 20L8 20L8 19L9 19L9 20L10 20L10 19L12 19L12 20L11 20L11 21L13 21L13 22L15 22L15 23L16 23L16 24L15 24L15 25L17 25L17 26L16 26L16 27L15 27L15 26L14 26L14 25L13 25L13 23L12 23L12 26L11 26L11 28L10 28L10 27L9 27L9 29L10 29L10 31L9 31L9 30L8 30L8 28L7 28L7 27L6 27L6 28L7 28L7 29L6 29L6 30L8 30L8 32L9 32L9 34L10 34L10 35L9 35L9 37L11 37L11 34L12 34L12 36L13 36L13 37L14 37L14 36L15 36L15 37L16 37L16 38L11 38L11 41L12 41L12 40L13 40L13 39L14 39L14 41L13 41L13 43L14 43L14 41L15 41L15 43L16 43L16 42L17 42L17 44L16 44L16 46L15 46L15 47L14 47L14 46L13 46L13 45L15 45L15 44L12 44L12 43L11 43L11 44L12 44L12 45L11 45L11 46L10 46L10 44L9 44L9 43L10 43L10 38L9 38L9 41L8 41L8 40L7 40L7 39L8 39L8 38L7 38L7 37L6 37L6 38L7 38L7 39L6 39L6 40L7 40L7 41L6 41L6 42L9 42L9 43L4 43L4 44L3 44L3 45L4 45L4 44L5 44L5 45L6 45L6 46L8 46L8 45L6 45L6 44L9 44L9 46L10 46L10 47L9 47L9 48L8 48L8 49L10 49L10 50L9 50L9 51L8 51L8 52L7 52L7 53L6 53L6 54L8 54L8 52L9 52L9 51L10 51L10 50L11 50L11 52L10 52L10 53L15 53L15 54L16 54L16 55L17 55L17 56L15 56L15 55L14 55L14 56L13 56L13 55L12 55L12 56L13 56L13 57L14 57L14 58L13 58L13 59L11 59L11 60L12 60L12 61L13 61L13 62L14 62L14 63L15 63L15 62L14 62L14 61L16 61L16 62L17 62L17 61L18 61L18 63L17 63L17 65L18 65L18 64L19 64L19 65L20 65L20 64L22 64L22 65L23 65L23 64L22 64L22 63L23 63L23 61L26 61L26 60L25 60L25 58L26 58L26 59L28 59L28 60L27 60L27 61L28 61L28 62L27 62L27 63L30 63L30 64L31 64L31 65L32 65L32 66L33 66L33 65L32 65L32 64L31 64L31 63L32 63L32 62L29 62L29 61L28 61L28 60L29 60L29 59L28 59L28 58L29 58L29 57L30 57L30 56L31 56L31 57L32 57L32 58L30 58L30 59L31 59L31 61L32 61L32 58L38 58L38 59L35 59L35 60L37 60L37 62L38 62L38 63L40 63L40 62L41 62L41 60L39 60L39 58L40 58L40 59L41 59L41 58L40 58L40 57L41 57L41 56L42 56L42 57L44 57L44 54L45 54L45 53L46 53L46 54L48 54L48 53L46 53L46 52L47 52L47 51L46 51L46 50L48 50L48 49L47 49L47 48L45 48L45 47L44 47L44 44L45 44L45 45L46 45L46 46L47 46L47 45L46 45L46 44L45 44L45 43L47 43L47 44L48 44L48 43L50 43L50 44L49 44L49 45L50 45L50 44L52 44L52 45L51 45L51 47L50 47L50 48L51 48L51 47L52 47L52 46L53 46L53 47L54 47L54 48L55 48L55 51L53 51L53 52L52 52L52 50L53 50L53 48L52 48L52 49L51 49L51 51L49 51L49 52L52 52L52 54L51 54L51 55L53 55L53 56L52 56L52 57L51 57L51 58L52 58L52 59L50 59L50 60L49 60L49 64L50 64L50 65L51 65L51 64L50 64L50 63L52 63L52 66L53 66L53 65L54 65L54 64L55 64L55 63L52 63L52 62L53 62L53 61L55 61L55 62L56 62L56 60L53 60L53 59L54 59L54 58L53 58L53 57L54 57L54 56L55 56L55 57L56 57L56 55L57 55L57 56L59 56L59 57L60 57L60 58L62 58L62 59L61 59L61 60L64 60L64 59L65 59L65 60L67 60L67 59L65 59L65 56L66 56L66 58L67 58L67 55L66 55L66 54L65 54L65 52L62 52L62 51L66 51L66 53L67 53L67 51L66 51L66 50L65 50L65 49L67 49L67 46L66 46L66 47L65 47L65 49L64 49L64 50L63 50L63 48L62 48L62 47L63 47L63 45L62 45L62 47L61 47L61 46L60 46L60 45L61 45L61 44L59 44L59 43L60 43L60 41L61 41L61 40L62 40L62 39L64 39L64 40L67 40L67 41L68 41L68 40L67 40L67 39L66 39L66 38L68 38L68 35L65 35L65 37L63 37L63 38L62 38L62 39L61 39L61 40L59 40L59 41L58 41L58 40L57 40L57 41L58 41L58 42L59 42L59 43L57 43L57 42L56 42L56 41L55 41L55 43L56 43L56 44L55 44L55 45L56 45L56 46L55 46L55 47L54 47L54 46L53 46L53 44L52 44L52 43L51 43L51 42L52 42L52 41L54 41L54 40L55 40L55 39L57 39L57 38L56 38L56 34L55 34L55 35L54 35L54 33L56 33L56 32L58 32L58 34L59 34L59 35L58 35L58 36L59 36L59 35L60 35L60 33L59 33L59 32L61 32L61 30L62 30L62 31L63 31L63 30L64 30L64 29L63 29L63 28L62 28L62 27L61 27L61 26L62 26L62 25L61 25L61 26L59 26L59 24L62 24L62 23L63 23L63 27L64 27L64 26L65 26L65 25L66 25L66 24L68 24L68 23L66 23L66 21L68 21L68 20L67 20L67 19L65 19L65 20L64 20L64 17L66 17L66 16L67 16L67 14L68 14L68 11L65 11L65 12L64 12L64 11L63 11L63 12L64 12L64 13L63 13L63 15L64 15L64 13L65 13L65 16L64 16L64 17L63 17L63 19L62 19L62 11L61 11L61 12L59 12L59 11L58 11L58 12L57 12L57 13L56 13L56 12L55 12L55 11L57 11L57 9L58 9L58 10L59 10L59 9L58 9L58 8L57 8L57 9L56 9L56 8L55 8L55 7L56 7L56 6L55 6L55 7L54 7L54 5L53 5L53 4L55 4L55 3L53 3L53 4L52 4L52 3L51 3L51 2L55 2L55 1L50 1L50 2L49 2L49 3L48 3L48 2L47 2L47 4L46 4L46 5L44 5L44 4L45 4L45 3L46 3L46 2L45 2L45 3L44 3L44 2L43 2L43 3L42 3L42 4L43 4L43 5L44 5L44 6L43 6L43 8L41 8L41 7L42 7L42 5L41 5L41 4L40 4L40 1L37 1L37 3L36 3L36 2L35 2L35 3L36 3L36 4L37 4L37 3L38 3L38 4L39 4L39 5L40 5L40 6L39 6L39 8L38 8L38 5L37 5L37 8L38 8L38 9L37 9L37 11L38 11L38 12L39 12L39 10L40 10L40 9L43 9L43 12L42 12L42 10L41 10L41 14L40 14L40 13L39 13L39 14L38 14L38 13L37 13L37 12L36 12L36 13L37 13L37 14L35 14L35 13L33 13L33 14L32 14L32 17L31 17L31 18L29 18L29 15L31 15L31 13L32 13L32 12L34 12L34 9L33 9L33 10L32 10L32 8L30 8L30 9L29 9L29 8L28 8L28 6L27 6L27 7L26 7L26 6L25 6L25 5L22 5L22 3L23 3L23 4L25 4L25 2L26 2L26 4L28 4L28 5L30 5L30 6L29 6L29 7L30 7L30 6L31 6L31 7L32 7L32 6L31 6L31 5L32 5L32 4L34 4L34 2L33 2L33 3L32 3L32 2L30 2L30 3L29 3L29 2L28 2L28 1L27 1L27 2L26 2L26 1L25 1L25 2L22 2L22 3L21 3L21 2L20 2L20 1ZM41 1L41 2L42 2L42 1ZM16 2L16 3L18 3L18 2ZM20 3L20 5L19 5L19 4L18 4L18 8L16 8L16 9L15 9L15 10L16 10L16 9L20 9L20 11L21 11L21 10L22 10L22 12L20 12L20 16L19 16L19 17L18 17L18 19L16 19L16 17L15 17L15 18L13 18L13 17L12 17L12 16L11 16L11 15L12 15L12 14L11 14L11 13L10 13L10 14L6 14L6 15L8 15L8 16L6 16L6 17L7 17L7 18L8 18L8 16L10 16L10 17L12 17L12 18L13 18L13 19L14 19L14 20L13 20L13 21L16 21L16 22L18 22L18 23L19 23L19 24L17 24L17 25L18 25L18 26L17 26L17 27L19 27L19 28L17 28L17 29L19 29L19 28L20 28L20 30L21 30L21 31L19 31L19 32L18 32L18 33L17 33L17 31L18 31L18 30L17 30L17 31L16 31L16 33L14 33L14 32L15 32L15 30L16 30L16 28L13 28L13 27L12 27L12 28L13 28L13 29L12 29L12 30L11 30L11 31L10 31L10 32L11 32L11 33L10 33L10 34L11 34L11 33L12 33L12 34L15 34L15 35L16 35L16 37L17 37L17 38L16 38L16 39L15 39L15 41L16 41L16 40L17 40L17 42L18 42L18 43L19 43L19 44L17 44L17 45L18 45L18 47L17 47L17 46L16 46L16 47L17 47L17 48L13 48L13 47L12 47L12 46L11 46L11 47L10 47L10 49L15 49L15 50L16 50L16 49L18 49L18 50L19 50L19 49L22 49L22 50L20 50L20 51L18 51L18 52L16 52L16 51L14 51L14 50L13 50L13 51L12 51L12 52L13 52L13 51L14 51L14 52L15 52L15 53L17 53L17 54L19 54L19 53L20 53L20 54L21 54L21 53L22 53L22 54L24 54L24 55L25 55L25 56L22 56L22 55L20 55L20 56L17 56L17 57L15 57L15 56L14 56L14 57L15 57L15 58L14 58L14 59L13 59L13 61L14 61L14 60L15 60L15 59L16 59L16 58L18 58L18 59L21 59L21 57L24 57L24 58L25 58L25 56L26 56L26 57L27 57L27 58L28 58L28 56L29 56L29 55L30 55L30 54L31 54L31 53L33 53L33 54L34 54L34 53L33 53L33 52L32 52L32 51L34 51L34 52L35 52L35 51L36 51L36 49L34 49L34 48L35 48L35 47L36 47L36 48L37 48L37 49L38 49L38 51L37 51L37 53L38 53L38 52L39 52L39 54L40 54L40 55L38 55L38 56L37 56L37 57L38 57L38 58L39 58L39 57L40 57L40 55L42 55L42 54L44 54L44 53L45 53L45 50L46 50L46 49L45 49L45 48L44 48L44 47L43 47L43 44L44 44L44 43L45 43L45 42L46 42L46 37L48 37L48 38L49 38L49 39L47 39L47 41L49 41L49 40L50 40L50 42L51 42L51 37L52 37L52 36L53 36L53 33L54 33L54 31L53 31L53 30L55 30L55 31L56 31L56 30L57 30L57 31L58 31L58 28L57 28L57 27L56 27L56 29L54 29L54 27L55 27L55 24L54 24L54 22L55 22L55 21L56 21L56 22L57 22L57 23L58 23L58 24L59 24L59 22L61 22L61 23L62 23L62 22L63 22L63 21L64 21L64 20L63 20L63 21L62 21L62 22L61 22L61 21L59 21L59 20L58 20L58 19L61 19L61 15L60 15L60 14L61 14L61 13L59 13L59 12L58 12L58 13L57 13L57 15L56 15L56 17L57 17L57 19L55 19L55 12L54 12L54 13L51 13L51 11L55 11L55 10L56 10L56 9L55 9L55 8L54 8L54 9L52 9L52 8L53 8L53 5L52 5L52 4L47 4L47 6L46 6L46 7L45 7L45 6L44 6L44 7L45 7L45 8L44 8L44 9L45 9L45 10L46 10L46 11L44 11L44 13L42 13L42 15L39 15L39 17L38 17L38 16L37 16L37 15L35 15L35 14L34 14L34 15L33 15L33 18L32 18L32 19L30 19L30 21L29 21L29 23L30 23L30 21L31 21L31 24L30 24L30 25L29 25L29 24L28 24L28 25L27 25L27 24L26 24L26 25L25 25L25 24L24 24L24 22L25 22L25 23L26 23L26 21L27 21L27 22L28 22L28 21L27 21L27 20L29 20L29 18L28 18L28 19L27 19L27 20L26 20L26 21L25 21L25 20L23 20L23 19L26 19L26 18L27 18L27 17L28 17L28 13L29 13L29 14L30 14L30 13L31 13L31 12L30 12L30 11L29 11L29 10L28 10L28 8L26 8L26 7L25 7L25 6L24 6L24 7L25 7L25 8L24 8L24 9L23 9L23 10L22 10L22 9L20 9L20 7L21 7L21 6L20 6L20 5L21 5L21 3ZM28 3L28 4L29 4L29 3ZM31 3L31 4L32 4L32 3ZM43 3L43 4L44 4L44 3ZM60 3L60 5L61 5L61 3ZM15 4L15 5L16 5L16 4ZM33 5L33 8L36 8L36 5ZM48 5L48 6L47 6L47 8L45 8L45 9L46 9L46 10L47 10L47 8L50 8L50 6L51 6L51 7L52 7L52 6L51 6L51 5ZM14 6L14 8L15 8L15 6ZM16 6L16 7L17 7L17 6ZM19 6L19 7L20 7L20 6ZM22 6L22 8L23 8L23 6ZM34 6L34 7L35 7L35 6ZM40 6L40 7L41 7L41 6ZM48 6L48 7L49 7L49 6ZM57 6L57 7L58 7L58 6ZM25 8L25 9L24 9L24 10L25 10L25 11L26 11L26 12L27 12L27 13L25 13L25 14L24 14L24 15L22 15L22 14L21 14L21 16L22 16L22 17L19 17L19 19L20 19L20 18L22 18L22 19L21 19L21 20L22 20L22 22L20 22L20 20L19 20L19 21L18 21L18 22L19 22L19 23L20 23L20 24L19 24L19 25L21 25L21 26L23 26L23 27L24 27L24 28L25 28L25 30L23 30L23 28L22 28L22 31L21 31L21 32L22 32L22 33L24 33L24 31L25 31L25 33L30 33L30 35L29 35L29 34L28 34L28 35L26 35L26 34L24 34L24 35L23 35L23 34L22 34L22 35L21 35L21 34L20 34L20 35L19 35L19 34L18 34L18 36L19 36L19 38L17 38L17 39L19 39L19 38L20 38L20 36L22 36L22 37L21 37L21 38L22 38L22 37L23 37L23 36L24 36L24 37L25 37L25 38L27 38L27 37L28 37L28 43L27 43L27 45L28 45L28 49L27 49L27 50L26 50L26 49L25 49L25 48L22 48L22 49L25 49L25 50L24 50L24 51L23 51L23 50L22 50L22 53L23 53L23 52L25 52L25 55L26 55L26 56L28 56L28 55L29 55L29 54L30 54L30 53L28 53L28 52L27 52L27 51L28 51L28 50L29 50L29 52L30 52L30 50L31 50L31 51L32 51L32 49L33 49L33 50L34 50L34 49L33 49L33 48L34 48L34 47L35 47L35 46L36 46L36 47L37 47L37 45L36 45L36 44L38 44L38 43L41 43L41 44L43 44L43 43L44 43L44 40L45 40L45 39L43 39L43 42L38 42L38 41L39 41L39 40L38 40L38 41L37 41L37 39L36 39L36 38L37 38L37 37L38 37L38 36L40 36L40 37L39 37L39 38L38 38L38 39L40 39L40 41L41 41L41 39L40 39L40 38L41 38L41 37L42 37L42 36L40 36L40 35L41 35L41 34L38 34L38 31L37 31L37 30L38 30L38 28L39 28L39 29L40 29L40 30L42 30L42 28L43 28L43 29L44 29L44 27L43 27L43 26L41 26L41 25L42 25L42 24L43 24L43 25L44 25L44 24L45 24L45 23L44 23L44 20L46 20L46 18L47 18L47 19L48 19L48 20L49 20L49 19L50 19L50 20L51 20L51 19L50 19L50 17L47 17L47 16L49 16L49 15L47 15L47 11L46 11L46 12L45 12L45 13L46 13L46 15L45 15L45 17L46 17L46 18L45 18L45 19L44 19L44 18L41 18L41 17L42 17L42 16L40 16L40 19L39 19L39 18L38 18L38 17L37 17L37 16L34 16L34 17L35 17L35 19L36 19L36 20L34 20L34 18L33 18L33 19L32 19L32 20L34 20L34 21L33 21L33 22L32 22L32 24L34 24L34 25L31 25L31 26L30 26L30 27L29 27L29 28L31 28L31 27L33 27L33 28L32 28L32 29L31 29L31 30L30 30L30 29L28 29L28 31L27 31L27 32L26 32L26 31L25 31L25 30L26 30L26 28L25 28L25 27L27 27L27 28L28 28L28 27L27 27L27 25L26 25L26 26L24 26L24 25L21 25L21 23L22 23L22 24L23 24L23 20L22 20L22 19L23 19L23 18L24 18L24 17L25 17L25 18L26 18L26 17L25 17L25 15L26 15L26 16L27 16L27 13L28 13L28 11L26 11L26 10L27 10L27 9L26 9L26 8ZM39 8L39 9L38 9L38 10L39 10L39 9L40 9L40 8ZM25 9L25 10L26 10L26 9ZM30 9L30 10L31 10L31 11L32 11L32 10L31 10L31 9ZM35 9L35 11L36 11L36 9ZM49 9L49 10L50 10L50 11L51 11L51 10L50 10L50 9ZM5 10L5 11L7 11L7 10ZM23 11L23 12L22 12L22 13L24 13L24 11ZM29 12L29 13L30 13L30 12ZM49 12L49 14L50 14L50 16L51 16L51 17L54 17L54 14L53 14L53 15L52 15L52 14L50 14L50 12ZM65 12L65 13L67 13L67 12ZM58 13L58 14L59 14L59 13ZM43 14L43 17L44 17L44 14ZM46 15L46 16L47 16L47 15ZM57 15L57 16L60 16L60 15ZM23 16L23 17L22 17L22 18L23 18L23 17L24 17L24 16ZM58 17L58 18L59 18L59 17ZM9 18L9 19L10 19L10 18ZM37 18L37 20L36 20L36 21L34 21L34 22L33 22L33 23L34 23L34 24L35 24L35 23L34 23L34 22L37 22L37 21L38 21L38 20L39 20L39 21L40 21L40 23L37 23L37 25L34 25L34 26L33 26L33 27L34 27L34 28L35 28L35 27L36 27L36 26L37 26L37 25L38 25L38 27L37 27L37 28L36 28L36 29L33 29L33 31L34 31L34 30L36 30L36 29L37 29L37 28L38 28L38 27L40 27L40 28L42 28L42 27L40 27L40 23L42 23L42 22L43 22L43 19L42 19L42 20L41 20L41 19L40 19L40 20L39 20L39 19L38 19L38 18ZM48 18L48 19L49 19L49 18ZM52 18L52 21L51 21L51 22L50 22L50 21L46 21L46 22L47 22L47 25L46 25L46 26L47 26L47 25L48 25L48 27L50 27L50 28L52 28L52 29L51 29L51 30L50 30L50 29L48 29L48 30L47 30L47 29L45 29L45 30L44 30L44 31L40 31L40 33L44 33L44 34L43 34L43 38L45 38L45 37L46 37L46 34L47 34L47 36L49 36L49 35L50 35L50 32L49 32L49 30L50 30L50 31L52 31L52 33L53 33L53 31L52 31L52 30L53 30L53 28L52 28L52 27L51 27L51 26L52 26L52 25L53 25L53 27L54 27L54 25L53 25L53 24L52 24L52 23L53 23L53 22L52 22L52 21L53 21L53 20L54 20L54 19L53 19L53 18ZM1 19L1 20L4 20L4 21L5 21L5 23L3 23L3 26L2 26L2 29L3 29L3 30L2 30L2 31L3 31L3 32L4 32L4 28L5 28L5 27L4 27L4 25L5 25L5 26L7 26L7 25L5 25L5 23L6 23L6 24L7 24L7 23L6 23L6 22L10 22L10 24L9 24L9 25L8 25L8 26L10 26L10 24L11 24L11 22L10 22L10 21L5 21L5 19ZM15 19L15 20L16 20L16 19ZM40 20L40 21L41 21L41 20ZM57 20L57 21L58 21L58 22L59 22L59 21L58 21L58 20ZM64 22L64 23L65 23L65 22ZM48 23L48 25L50 25L50 26L51 26L51 25L52 25L52 24L51 24L51 23L50 23L50 24L49 24L49 23ZM1 24L1 25L2 25L2 24ZM38 24L38 25L39 25L39 24ZM50 24L50 25L51 25L51 24ZM56 24L56 26L58 26L58 27L59 27L59 26L58 26L58 25L57 25L57 24ZM28 25L28 26L29 26L29 25ZM19 26L19 27L20 27L20 26ZM34 26L34 27L35 27L35 26ZM61 28L61 29L59 29L59 31L60 31L60 30L61 30L61 29L62 29L62 30L63 30L63 29L62 29L62 28ZM13 29L13 31L14 31L14 30L15 30L15 29ZM5 31L5 32L7 32L7 31ZM31 31L31 32L30 32L30 33L31 33L31 34L32 34L32 39L33 39L33 40L31 40L31 36L29 36L29 37L30 37L30 39L29 39L29 41L30 41L30 42L29 42L29 43L28 43L28 44L29 44L29 45L30 45L30 46L29 46L29 47L30 47L30 48L29 48L29 49L32 49L32 48L31 48L31 47L30 47L30 46L32 46L32 47L33 47L33 46L35 46L35 45L32 45L32 44L33 44L33 42L32 42L32 44L31 44L31 41L34 41L34 44L35 44L35 41L34 41L34 39L35 39L35 38L36 38L36 37L37 37L37 35L38 35L38 34L37 34L37 32L32 32L32 31ZM44 31L44 33L45 33L45 34L44 34L44 37L45 37L45 34L46 34L46 33L47 33L47 34L48 34L48 33L49 33L49 32L48 32L48 31ZM12 32L12 33L13 33L13 32ZM19 32L19 33L20 33L20 32ZM31 32L31 33L32 33L32 32ZM45 32L45 33L46 33L46 32ZM5 33L5 36L8 36L8 33ZM16 33L16 34L17 34L17 33ZM33 33L33 36L36 36L36 33ZM61 33L61 36L64 36L64 33ZM0 34L0 37L1 37L1 35L2 35L2 34ZM6 34L6 35L7 35L7 34ZM34 34L34 35L35 35L35 34ZM51 34L51 35L52 35L52 34ZM62 34L62 35L63 35L63 34ZM13 35L13 36L14 36L14 35ZM22 35L22 36L23 36L23 35ZM24 35L24 36L25 36L25 37L27 37L27 36L25 36L25 35ZM50 36L50 37L51 37L51 36ZM54 36L54 37L53 37L53 38L52 38L52 39L53 39L53 40L54 40L54 39L53 39L53 38L55 38L55 36ZM33 37L33 38L35 38L35 37ZM58 37L58 38L60 38L60 37ZM65 37L65 38L64 38L64 39L65 39L65 38L66 38L66 37ZM21 39L21 41L22 41L22 42L23 42L23 41L24 41L24 42L25 42L25 45L26 45L26 40L27 40L27 39L25 39L25 41L24 41L24 40L22 40L22 39ZM30 40L30 41L31 41L31 40ZM19 41L19 42L20 42L20 41ZM36 41L36 43L38 43L38 42L37 42L37 41ZM47 42L47 43L48 43L48 42ZM53 42L53 43L54 43L54 42ZM20 43L20 44L22 44L22 47L23 47L23 45L24 45L24 43ZM1 44L1 46L2 46L2 44ZM56 44L56 45L57 45L57 46L56 46L56 49L57 49L57 50L58 50L58 49L59 49L59 48L61 48L61 50L60 50L60 51L62 51L62 48L61 48L61 47L59 47L59 46L58 46L58 44ZM19 45L19 48L18 48L18 49L19 49L19 48L21 48L21 47L20 47L20 45ZM39 45L39 47L38 47L38 48L39 48L39 47L41 47L41 48L40 48L40 51L39 51L39 52L40 52L40 54L41 54L41 53L42 53L42 52L43 52L43 53L44 53L44 51L43 51L43 50L42 50L42 51L41 51L41 49L42 49L42 45L41 45L41 46L40 46L40 45ZM25 46L25 47L26 47L26 48L27 48L27 46ZM6 47L6 48L7 48L7 47ZM11 47L11 48L12 48L12 47ZM48 47L48 48L49 48L49 47ZM57 47L57 48L58 48L58 47ZM43 48L43 49L44 49L44 50L45 50L45 49L44 49L44 48ZM49 49L49 50L50 50L50 49ZM25 51L25 52L26 52L26 55L28 55L28 53L27 53L27 52L26 52L26 51ZM40 51L40 52L41 52L41 51ZM56 51L56 53L55 53L55 52L53 52L53 54L54 54L54 55L55 55L55 54L57 54L57 53L59 53L59 52L58 52L58 51ZM49 53L49 55L50 55L50 53ZM61 53L61 55L60 55L60 54L59 54L59 56L60 56L60 57L61 57L61 56L62 56L62 57L63 57L63 58L64 58L64 57L63 57L63 56L64 56L64 55L65 55L65 54L64 54L64 53ZM36 54L36 55L35 55L35 56L36 56L36 55L37 55L37 54ZM62 54L62 55L64 55L64 54ZM2 55L2 56L3 56L3 55ZM6 55L6 56L7 56L7 55ZM47 55L47 57L46 57L46 58L47 58L47 57L48 57L48 59L49 59L49 57L50 57L50 56L49 56L49 57L48 57L48 55ZM32 56L32 57L34 57L34 56ZM38 56L38 57L39 57L39 56ZM19 57L19 58L20 58L20 57ZM2 58L2 59L3 59L3 58ZM22 58L22 60L20 60L20 63L19 63L19 64L20 64L20 63L21 63L21 62L22 62L22 60L24 60L24 59L23 59L23 58ZM42 58L42 61L43 61L43 62L42 62L42 63L43 63L43 62L44 62L44 60L46 60L46 59L45 59L45 58ZM33 59L33 60L34 60L34 59ZM43 59L43 60L44 60L44 59ZM3 60L3 61L5 61L5 60ZM6 60L6 61L7 61L7 60ZM18 60L18 61L19 61L19 60ZM38 60L38 62L39 62L39 60ZM50 60L50 62L51 62L51 60ZM33 61L33 64L36 64L36 61ZM61 61L61 64L64 64L64 61ZM34 62L34 63L35 63L35 62ZM62 62L62 63L63 63L63 62ZM8 63L8 65L9 65L9 63ZM25 63L25 65L29 65L29 64L26 64L26 63ZM9 66L9 67L8 67L8 69L9 69L9 67L10 67L10 66ZM23 66L23 67L25 67L25 66ZM26 66L26 67L27 67L27 66ZM47 66L47 67L48 67L48 66ZM54 66L54 67L55 67L55 66ZM63 66L63 67L62 67L62 68L63 68L63 67L64 67L64 66ZM21 68L21 69L22 69L22 68ZM36 68L36 69L37 69L37 68ZM68 68L68 69L69 69L69 68ZM0 0L0 7L7 7L7 0ZM1 1L1 6L6 6L6 1ZM2 2L2 5L5 5L5 2ZM62 0L62 7L69 7L69 0ZM63 1L63 6L68 6L68 1ZM64 2L64 5L67 5L67 2ZM0 62L0 69L7 69L7 62ZM1 63L1 68L6 68L6 63ZM2 64L2 67L5 67L5 64Z" fill="#000000"/></g></g></svg>
