<?xml version="1.0" encoding="UTF-8"?>
<svg xmlns="http://www.w3.org/2000/svg" version="1.1" width="300" height="300" viewBox="0 0 300 300"><rect x="0" y="0" width="300" height="300" fill="#ffffff"/><g transform="scale(4.348)"><g transform="translate(0,0)"><path fill-rule="evenodd" d="M9 0L9 1L8 1L8 3L10 3L10 5L9 5L9 4L8 4L8 8L6 8L6 9L8 9L8 8L10 8L10 10L9 10L9 11L8 11L8 12L9 12L9 11L10 11L10 13L7 13L7 12L5 12L5 11L7 11L7 10L5 10L5 9L4 9L4 8L3 8L3 9L2 9L2 8L0 8L0 9L2 9L2 10L3 10L3 11L2 11L2 13L1 13L1 16L0 16L0 17L1 17L1 18L0 18L0 21L1 21L1 22L2 22L2 21L3 21L3 22L4 22L4 23L3 23L3 24L5 24L5 25L4 25L4 26L3 26L3 27L1 27L1 28L2 28L2 29L3 29L3 30L1 30L1 33L0 33L0 34L1 34L1 35L0 35L0 38L1 38L1 40L0 40L0 44L1 44L1 42L2 42L2 43L4 43L4 41L5 41L5 40L6 40L6 41L7 41L7 42L5 42L5 43L7 43L7 44L6 44L6 45L4 45L4 47L2 47L2 46L1 46L1 48L0 48L0 49L1 49L1 51L0 51L0 52L1 52L1 53L2 53L2 49L3 49L3 53L5 53L5 55L4 55L4 54L3 54L3 55L2 55L2 54L0 54L0 55L2 55L2 56L0 56L0 61L1 61L1 58L2 58L2 59L3 59L3 58L4 58L4 59L7 59L7 58L8 58L8 59L10 59L10 60L6 60L6 61L8 61L8 63L9 63L9 65L8 65L8 66L10 66L10 67L8 67L8 69L9 69L9 68L10 68L10 69L11 69L11 68L13 68L13 69L14 69L14 68L15 68L15 69L17 69L17 68L18 68L18 69L24 69L24 68L25 68L25 69L26 69L26 67L27 67L27 65L28 65L28 63L27 63L27 62L24 62L24 60L23 60L23 59L25 59L25 58L26 58L26 56L25 56L25 55L27 55L27 56L28 56L28 57L29 57L29 60L27 60L27 59L28 59L28 58L27 58L27 59L26 59L26 60L25 60L25 61L28 61L28 62L29 62L29 63L31 63L31 62L32 62L32 64L30 64L30 65L29 65L29 67L28 67L28 68L27 68L27 69L28 69L28 68L29 68L29 69L31 69L31 68L33 68L33 69L35 69L35 68L36 68L36 69L37 69L37 67L38 67L38 69L41 69L41 66L42 66L42 65L43 65L43 64L44 64L44 66L45 66L45 67L42 67L42 68L43 68L43 69L44 69L44 68L45 68L45 69L47 69L47 68L45 68L45 67L47 67L47 66L49 66L49 67L48 67L48 69L49 69L49 68L50 68L50 69L53 69L53 68L54 68L54 66L53 66L53 65L54 65L54 62L53 62L53 61L57 61L57 60L58 60L58 58L57 58L57 57L58 57L58 56L57 56L57 55L59 55L59 60L60 60L60 63L57 63L57 62L55 62L55 64L56 64L56 65L55 65L55 66L56 66L56 68L55 68L55 69L56 69L56 68L58 68L58 69L62 69L62 67L63 67L63 68L64 68L64 69L68 69L68 68L64 68L64 67L65 67L65 63L68 63L68 62L69 62L69 60L68 60L68 59L69 59L69 57L67 57L67 56L68 56L68 55L69 55L69 54L68 54L68 55L67 55L67 56L64 56L64 55L65 55L65 54L62 54L62 52L63 52L63 51L62 51L62 52L61 52L61 50L63 50L63 49L64 49L64 52L65 52L65 53L66 53L66 54L67 54L67 53L69 53L69 52L67 52L67 53L66 53L66 52L65 52L65 51L66 51L66 50L65 50L65 49L64 49L64 48L66 48L66 47L67 47L67 48L68 48L68 47L69 47L69 46L68 46L68 47L67 47L67 46L66 46L66 45L68 45L68 43L69 43L69 42L68 42L68 41L69 41L69 40L68 40L68 37L69 37L69 30L67 30L67 29L68 29L68 28L69 28L69 27L68 27L68 26L66 26L66 25L67 25L67 24L68 24L68 23L69 23L69 21L68 21L68 19L69 19L69 18L67 18L67 16L66 16L66 17L64 17L64 15L65 15L65 14L66 14L66 15L68 15L68 17L69 17L69 15L68 15L68 14L67 14L67 13L69 13L69 12L68 12L68 11L69 11L69 10L68 10L68 11L67 11L67 12L66 12L66 11L64 11L64 12L63 12L63 14L62 14L62 13L61 13L61 14L62 14L62 15L61 15L61 16L60 16L60 14L59 14L59 13L58 13L58 14L56 14L56 13L57 13L57 12L60 12L60 11L59 11L59 10L57 10L57 9L61 9L61 6L60 6L60 8L58 8L58 7L59 7L59 4L58 4L58 5L57 5L57 4L56 4L56 3L57 3L57 2L58 2L58 3L59 3L59 2L58 2L58 1L61 1L61 0L52 0L52 1L51 1L51 0L49 0L49 1L51 1L51 2L49 2L49 4L50 4L50 5L51 5L51 6L50 6L50 7L51 7L51 6L52 6L52 7L53 7L53 8L52 8L52 9L51 9L51 10L49 10L49 11L51 11L51 14L52 14L52 16L54 16L54 17L52 17L52 18L54 18L54 19L53 19L53 20L52 20L52 19L51 19L51 17L50 17L50 18L49 18L49 15L50 15L50 16L51 16L51 15L50 15L50 12L48 12L48 11L46 11L46 10L45 10L45 11L46 11L46 12L44 12L44 11L43 11L43 12L42 12L42 11L41 11L41 12L40 12L40 11L39 11L39 14L40 14L40 13L41 13L41 12L42 12L42 13L44 13L44 14L43 14L43 15L42 15L42 14L41 14L41 15L39 15L39 17L38 17L38 15L37 15L37 14L38 14L38 13L37 13L37 14L36 14L36 15L35 15L35 17L33 17L33 16L31 16L31 15L32 15L32 14L33 14L33 15L34 15L34 14L35 14L35 13L36 13L36 12L35 12L35 13L33 13L33 10L34 10L34 11L37 11L37 12L38 12L38 11L37 11L37 10L38 10L38 8L39 8L39 9L41 9L41 8L42 8L42 9L43 9L43 8L46 8L46 9L47 9L47 6L48 6L48 7L49 7L49 5L47 5L47 6L46 6L46 7L45 7L45 6L44 6L44 7L43 7L43 6L42 6L42 5L43 5L43 3L42 3L42 1L43 1L43 0L40 0L40 1L39 1L39 0L38 0L38 1L37 1L37 2L36 2L36 4L35 4L35 1L36 1L36 0L35 0L35 1L34 1L34 2L33 2L33 3L31 3L31 4L30 4L30 5L29 5L29 6L28 6L28 7L27 7L27 5L28 5L28 3L29 3L29 2L30 2L30 0L28 0L28 1L27 1L27 2L25 2L25 3L27 3L27 4L26 4L26 7L27 7L27 9L26 9L26 8L25 8L25 4L24 4L24 2L22 2L22 1L25 1L25 0L22 0L22 1L21 1L21 0L20 0L20 1L19 1L19 0L15 0L15 2L16 2L16 3L15 3L15 5L14 5L14 0ZM31 0L31 2L32 2L32 1L33 1L33 0ZM45 0L45 2L47 2L47 3L45 3L45 4L44 4L44 5L46 5L46 4L47 4L47 3L48 3L48 1L47 1L47 0ZM10 1L10 2L11 2L11 5L10 5L10 6L9 6L9 7L10 7L10 6L11 6L11 10L10 10L10 11L11 11L11 14L12 14L12 15L11 15L11 16L9 16L9 15L10 15L10 14L9 14L9 15L8 15L8 14L7 14L7 13L6 13L6 14L3 14L3 15L2 15L2 16L4 16L4 17L6 17L6 18L3 18L3 17L2 17L2 18L1 18L1 20L3 20L3 19L5 19L5 20L7 20L7 21L5 21L5 22L8 22L8 23L5 23L5 24L7 24L7 25L5 25L5 26L4 26L4 27L3 27L3 29L5 29L5 30L4 30L4 32L2 32L2 33L1 33L1 34L3 34L3 36L4 36L4 32L7 32L7 31L8 31L8 32L9 32L9 31L8 31L8 30L10 30L10 32L11 32L11 30L13 30L13 31L12 31L12 33L9 33L9 34L14 34L14 33L13 33L13 32L14 32L14 30L15 30L15 32L16 32L16 34L17 34L17 35L16 35L16 36L18 36L18 34L19 34L19 35L20 35L20 34L21 34L21 36L24 36L24 34L25 34L25 35L26 35L26 36L25 36L25 37L22 37L22 38L21 38L21 37L20 37L20 39L21 39L21 40L20 40L20 41L17 41L17 40L19 40L19 37L18 37L18 39L16 39L16 37L15 37L15 36L14 36L14 37L13 37L13 35L12 35L12 37L11 37L11 38L10 38L10 37L9 37L9 38L8 38L8 37L4 37L4 38L5 38L5 39L4 39L4 40L1 40L1 41L2 41L2 42L3 42L3 41L4 41L4 40L5 40L5 39L6 39L6 40L8 40L8 42L9 42L9 43L8 43L8 44L7 44L7 45L6 45L6 46L5 46L5 47L4 47L4 48L8 48L8 47L9 47L9 45L11 45L11 46L12 46L12 45L13 45L13 44L15 44L15 39L16 39L16 42L18 42L18 43L17 43L17 45L14 45L14 46L13 46L13 47L12 47L12 48L11 48L11 47L10 47L10 48L11 48L11 49L8 49L8 50L7 50L7 49L5 49L5 50L4 50L4 51L6 51L6 52L5 52L5 53L6 53L6 54L7 54L7 53L6 53L6 52L8 52L8 50L9 50L9 53L8 53L8 54L9 54L9 56L11 56L11 58L10 58L10 57L8 57L8 55L6 55L6 56L5 56L5 57L6 57L6 58L7 58L7 57L8 57L8 58L10 58L10 59L11 59L11 61L9 61L9 63L10 63L10 66L11 66L11 61L12 61L12 62L13 62L13 63L12 63L12 64L13 64L13 63L17 63L17 64L14 64L14 65L12 65L12 66L14 66L14 65L15 65L15 68L16 68L16 66L17 66L17 67L19 67L19 68L22 68L22 67L25 67L25 65L27 65L27 64L25 64L25 63L24 63L24 62L23 62L23 61L22 61L22 62L21 62L21 60L20 60L20 59L19 59L19 61L20 61L20 62L19 62L19 63L17 63L17 62L16 62L16 61L15 61L15 62L13 62L13 60L16 60L16 56L14 56L14 57L13 57L13 58L12 58L12 56L13 56L13 55L10 55L10 52L13 52L13 54L15 54L15 53L14 53L14 52L13 52L13 50L16 50L16 52L17 52L17 51L19 51L19 54L17 54L17 53L16 53L16 54L17 54L17 55L19 55L19 58L21 58L21 59L22 59L22 58L23 58L23 57L24 57L24 58L25 58L25 57L24 57L24 56L23 56L23 55L25 55L25 53L26 53L26 54L29 54L29 57L30 57L30 56L31 56L31 55L33 55L33 56L32 56L32 57L31 57L31 58L30 58L30 59L31 59L31 61L29 61L29 62L31 62L31 61L32 61L32 59L31 59L31 58L32 58L32 57L33 57L33 56L35 56L35 57L36 57L36 58L34 58L34 59L33 59L33 60L35 60L35 59L36 59L36 60L37 60L37 61L38 61L38 63L37 63L37 64L39 64L39 62L41 62L41 63L40 63L40 65L41 65L41 63L42 63L42 62L44 62L44 63L45 63L45 61L46 61L46 60L48 60L48 59L47 59L47 57L48 57L48 58L50 58L50 60L49 60L49 61L50 61L50 62L46 62L46 64L45 64L45 66L47 66L47 65L48 65L48 63L50 63L50 64L49 64L49 66L50 66L50 64L52 64L52 65L51 65L51 66L52 66L52 65L53 65L53 62L52 62L52 63L51 63L51 61L52 61L52 59L53 59L53 58L54 58L54 60L55 60L55 59L56 59L56 58L55 58L55 56L56 56L56 57L57 57L57 56L56 56L56 55L57 55L57 54L59 54L59 55L61 55L61 57L63 57L63 59L62 59L62 58L61 58L61 59L62 59L62 60L65 60L65 62L67 62L67 61L68 61L68 60L67 60L67 59L68 59L68 58L66 58L66 57L64 57L64 56L62 56L62 55L61 55L61 54L60 54L60 52L59 52L59 51L60 51L60 50L58 50L58 49L55 49L55 48L57 48L57 46L58 46L58 48L59 48L59 49L61 49L61 48L59 48L59 47L60 47L60 46L61 46L61 47L62 47L62 48L63 48L63 47L66 47L66 46L65 46L65 44L67 44L67 43L64 43L64 44L62 44L62 46L61 46L61 44L60 44L60 46L59 46L59 44L58 44L58 43L59 43L59 42L61 42L61 43L62 43L62 42L63 42L63 41L62 41L62 42L61 42L61 40L58 40L58 41L56 41L56 40L57 40L57 38L58 38L58 37L59 37L59 36L60 36L60 32L59 32L59 31L63 31L63 32L65 32L65 33L66 33L66 36L67 36L67 35L68 35L68 34L67 34L67 33L68 33L68 31L67 31L67 30L66 30L66 29L67 29L67 28L68 28L68 27L66 27L66 26L65 26L65 27L63 27L63 25L64 25L64 23L65 23L65 21L66 21L66 24L67 24L67 23L68 23L68 22L67 22L67 19L66 19L66 20L65 20L65 21L64 21L64 22L63 22L63 18L62 18L62 16L61 16L61 17L60 17L60 18L61 18L61 19L60 19L60 21L59 21L59 19L57 19L57 20L56 20L56 18L59 18L59 17L58 17L58 16L57 16L57 17L56 17L56 16L55 16L55 17L54 17L54 18L55 18L55 20L56 20L56 21L54 21L54 20L53 20L53 22L51 22L51 20L50 20L50 19L49 19L49 18L47 18L47 17L48 17L48 13L47 13L47 15L46 15L46 13L45 13L45 14L44 14L44 15L45 15L45 18L43 18L43 17L44 17L44 16L43 16L43 17L42 17L42 16L40 16L40 17L39 17L39 20L38 20L38 17L37 17L37 15L36 15L36 17L35 17L35 18L32 18L32 19L31 19L31 18L30 18L30 17L29 17L29 14L28 14L28 13L29 13L29 11L30 11L30 10L29 10L29 9L30 9L30 6L29 6L29 7L28 7L28 8L29 8L29 9L27 9L27 10L26 10L26 11L25 11L25 10L24 10L24 9L22 9L22 6L23 6L23 8L24 8L24 5L22 5L22 6L21 6L21 9L20 9L20 6L19 6L19 5L20 5L20 4L19 4L19 3L21 3L21 4L23 4L23 3L21 3L21 1L20 1L20 2L19 2L19 1L17 1L17 2L19 2L19 3L16 3L16 4L19 4L19 5L17 5L17 7L16 7L16 6L15 6L15 8L14 8L14 9L15 9L15 10L12 10L12 9L13 9L13 8L12 8L12 6L11 6L11 5L13 5L13 3L12 3L12 2L11 2L11 1ZM40 1L40 2L41 2L41 1ZM54 1L54 3L55 3L55 1ZM56 1L56 2L57 2L57 1ZM38 2L38 4L37 4L37 8L38 8L38 4L39 4L39 5L40 5L40 4L42 4L42 3L39 3L39 2ZM51 2L51 3L50 3L50 4L51 4L51 5L52 5L52 4L53 4L53 3L52 3L52 2ZM60 3L60 5L61 5L61 3ZM31 4L31 5L32 5L32 4ZM55 4L55 5L54 5L54 6L53 6L53 7L54 7L54 6L55 6L55 7L56 7L56 6L57 6L57 7L58 7L58 6L57 6L57 5L56 5L56 4ZM33 5L33 8L36 8L36 5ZM13 6L13 7L14 7L14 6ZM18 6L18 9L19 9L19 6ZM31 6L31 7L32 7L32 6ZM34 6L34 7L35 7L35 6ZM39 6L39 8L41 8L41 7L42 7L42 6L41 6L41 7L40 7L40 6ZM16 8L16 10L17 10L17 11L16 11L16 12L15 12L15 11L13 11L13 12L15 12L15 13L19 13L19 15L17 15L17 14L16 14L16 15L14 15L14 14L13 14L13 13L12 13L12 14L13 14L13 15L12 15L12 16L13 16L13 18L12 18L12 17L11 17L11 20L10 20L10 19L9 19L9 20L10 20L10 21L8 21L8 22L9 22L9 24L10 24L10 25L11 25L11 26L10 26L10 27L11 27L11 28L9 28L9 27L8 27L8 26L9 26L9 25L7 25L7 26L6 26L6 27L7 27L7 28L6 28L6 29L8 29L8 28L9 28L9 29L13 29L13 30L14 30L14 29L13 29L13 28L15 28L15 26L13 26L13 28L12 28L12 24L11 24L11 22L14 22L14 21L15 21L15 24L16 24L16 25L17 25L17 24L18 24L18 26L17 26L17 27L16 27L16 28L17 28L17 29L18 29L18 31L20 31L20 30L21 30L21 31L23 31L23 32L21 32L21 33L24 33L24 32L25 32L25 34L26 34L26 35L28 35L28 32L29 32L29 31L31 31L31 32L30 32L30 33L29 33L29 34L30 34L30 35L29 35L29 36L26 36L26 37L25 37L25 38L26 38L26 39L27 39L27 40L26 40L26 41L28 41L28 40L29 40L29 41L30 41L30 42L27 42L27 43L29 43L29 44L27 44L27 45L26 45L26 43L24 43L24 45L25 45L25 46L26 46L26 47L25 47L25 48L23 48L23 46L22 46L22 47L21 47L21 46L19 46L19 47L18 47L18 46L16 46L16 47L14 47L14 48L12 48L12 49L11 49L11 50L10 50L10 51L11 51L11 50L12 50L12 49L16 49L16 50L18 50L18 48L19 48L19 47L20 47L20 49L19 49L19 50L20 50L20 54L19 54L19 55L20 55L20 57L21 57L21 58L22 58L22 54L21 54L21 53L22 53L22 52L21 52L21 51L22 51L22 50L23 50L23 54L24 54L24 53L25 53L25 52L26 52L26 53L27 53L27 52L28 52L28 53L30 53L30 54L32 54L32 53L31 53L31 52L32 52L32 51L33 51L33 53L34 53L34 51L36 51L36 50L38 50L38 52L37 52L37 53L38 53L38 54L33 54L33 55L37 55L37 56L36 56L36 57L38 57L38 54L40 54L40 55L39 55L39 58L38 58L38 59L37 59L37 58L36 58L36 59L37 59L37 60L38 60L38 61L41 61L41 60L39 60L39 58L40 58L40 59L41 59L41 56L42 56L42 57L43 57L43 58L42 58L42 60L43 60L43 61L45 61L45 60L46 60L46 59L45 59L45 57L46 57L46 56L47 56L47 54L48 54L48 55L51 55L51 53L52 53L52 52L48 52L48 51L49 51L49 50L50 50L50 51L53 51L53 53L55 53L55 54L57 54L57 53L59 53L59 52L58 52L58 51L57 51L57 50L56 50L56 51L54 51L54 50L53 50L53 49L54 49L54 48L55 48L55 46L54 46L54 48L52 48L52 47L51 47L51 48L50 48L50 47L49 47L49 48L48 48L48 47L47 47L47 46L49 46L49 45L50 45L50 43L51 43L51 41L52 41L52 40L53 40L53 39L54 39L54 41L53 41L53 43L52 43L52 44L51 44L51 45L56 45L56 46L57 46L57 45L58 45L58 44L57 44L57 45L56 45L56 43L57 43L57 42L56 42L56 41L55 41L55 39L56 39L56 38L57 38L57 36L58 36L58 35L59 35L59 34L58 34L58 33L59 33L59 32L58 32L58 31L59 31L59 30L60 30L60 29L62 29L62 30L65 30L65 29L66 29L66 28L65 28L65 29L64 29L64 28L63 28L63 27L62 27L62 25L61 25L61 24L62 24L62 23L63 23L63 22L62 22L62 23L61 23L61 22L57 22L57 21L56 21L56 24L54 24L54 23L55 23L55 22L53 22L53 24L52 24L52 23L51 23L51 26L48 26L48 28L47 28L47 25L46 25L46 23L45 23L45 21L46 21L46 20L48 20L48 22L49 22L49 23L47 23L47 24L48 24L48 25L49 25L49 24L50 24L50 22L49 22L49 21L50 21L50 20L48 20L48 19L46 19L46 20L45 20L45 21L44 21L44 20L43 20L43 21L44 21L44 23L42 23L42 24L38 24L38 23L37 23L37 22L38 22L38 20L36 20L36 21L35 21L35 19L37 19L37 17L36 17L36 18L35 18L35 19L34 19L34 21L33 21L33 20L30 20L30 22L31 22L31 23L32 23L32 24L30 24L30 23L28 23L28 22L26 22L26 20L23 20L23 19L19 19L19 18L18 18L18 19L19 19L19 20L16 20L16 21L15 21L15 19L14 19L14 21L13 21L13 18L14 18L14 16L17 16L17 17L18 17L18 16L19 16L19 17L21 17L21 18L22 18L22 16L23 16L23 15L26 15L26 14L27 14L27 15L28 15L28 14L27 14L27 11L26 11L26 13L25 13L25 11L23 11L23 12L21 12L21 11L22 11L22 10L20 10L20 12L17 12L17 11L18 11L18 10L17 10L17 8ZM48 8L48 9L50 9L50 8ZM53 8L53 12L54 12L54 11L55 11L55 12L57 12L57 10L56 10L56 11L55 11L55 9L54 9L54 8ZM56 8L56 9L57 9L57 8ZM62 8L62 9L64 9L64 10L67 10L67 9L68 9L68 8L66 8L66 9L65 9L65 8ZM3 9L3 10L4 10L4 9ZM31 9L31 10L33 10L33 9ZM34 9L34 10L35 10L35 9ZM36 9L36 10L37 10L37 9ZM11 10L11 11L12 11L12 10ZM28 10L28 11L29 11L29 10ZM61 10L61 11L63 11L63 10ZM0 11L0 12L1 12L1 11ZM3 11L3 13L4 13L4 11ZM31 11L31 12L32 12L32 11ZM23 12L23 14L22 14L22 15L21 15L21 13L20 13L20 15L19 15L19 16L22 16L22 15L23 15L23 14L25 14L25 13L24 13L24 12ZM30 13L30 14L32 14L32 13ZM52 13L52 14L55 14L55 15L56 15L56 14L55 14L55 13ZM64 13L64 14L65 14L65 13ZM6 14L6 15L5 15L5 16L6 16L6 17L7 17L7 18L6 18L6 19L7 19L7 18L9 18L9 17L7 17L7 16L8 16L8 15L7 15L7 14ZM6 15L6 16L7 16L7 15ZM13 15L13 16L14 16L14 15ZM24 16L24 17L23 17L23 18L24 18L24 19L27 19L27 21L28 21L28 20L29 20L29 19L28 19L28 18L24 18L24 17L27 17L27 16ZM46 16L46 17L47 17L47 16ZM15 17L15 18L16 18L16 19L17 19L17 18L16 18L16 17ZM40 17L40 19L43 19L43 18L42 18L42 17ZM11 20L11 21L12 21L12 20ZM19 20L19 22L23 22L23 24L22 24L22 25L23 25L23 24L24 24L24 22L25 22L25 23L26 23L26 22L25 22L25 21L20 21L20 20ZM39 20L39 21L40 21L40 22L39 22L39 23L41 23L41 21L42 21L42 20ZM61 20L61 21L62 21L62 20ZM16 21L16 22L18 22L18 21ZM34 21L34 26L33 26L33 25L30 25L30 28L31 28L31 29L30 29L30 30L31 30L31 29L33 29L33 28L34 28L34 29L35 29L35 30L33 30L33 31L32 31L32 32L31 32L31 34L32 34L32 32L33 32L33 31L35 31L35 32L37 32L37 31L38 31L38 29L39 29L39 30L41 30L41 26L44 26L44 28L43 28L43 27L42 27L42 31L39 31L39 32L38 32L38 33L37 33L37 35L38 35L38 34L39 34L39 33L40 33L40 32L42 32L42 33L41 33L41 34L40 34L40 35L43 35L43 36L41 36L41 40L40 40L40 41L39 41L39 40L38 40L38 39L40 39L40 38L39 38L39 37L38 37L38 38L37 38L37 37L33 37L33 38L34 38L34 39L32 39L32 38L31 38L31 37L32 37L32 35L31 35L31 37L30 37L30 39L29 39L29 40L31 40L31 39L32 39L32 41L31 41L31 43L32 43L32 45L31 45L31 46L30 46L30 47L29 47L29 45L30 45L30 44L29 44L29 45L27 45L27 46L28 46L28 47L27 47L27 49L26 49L26 48L25 48L25 49L23 49L23 50L24 50L24 52L25 52L25 51L27 51L27 49L29 49L29 48L30 48L30 47L31 47L31 49L30 49L30 51L28 51L28 52L31 52L31 51L32 51L32 49L33 49L33 51L34 51L34 49L33 49L33 47L36 47L36 49L37 49L37 48L38 48L38 50L39 50L39 48L41 48L41 50L44 50L44 49L42 49L42 48L41 48L41 46L47 46L47 45L48 45L48 44L47 44L47 40L46 40L46 41L45 41L45 42L46 42L46 43L44 43L44 42L43 42L43 41L44 41L44 40L45 40L45 38L43 38L43 36L46 36L46 34L47 34L47 36L48 36L48 34L49 34L49 35L52 35L52 36L53 36L53 35L54 35L54 37L53 37L53 38L56 38L56 37L55 37L55 36L56 36L56 35L55 35L55 32L54 32L54 33L52 33L52 34L51 34L51 33L48 33L48 32L49 32L49 30L50 30L50 29L49 29L49 30L47 30L47 29L46 29L46 25L45 25L45 26L44 26L44 25L41 25L41 26L40 26L40 25L38 25L38 26L37 26L37 25L36 25L36 24L37 24L37 23L35 23L35 21ZM36 21L36 22L37 22L37 21ZM1 23L1 24L2 24L2 23ZM16 23L16 24L17 24L17 23ZM18 23L18 24L20 24L20 25L19 25L19 26L18 26L18 27L17 27L17 28L19 28L19 30L20 30L20 27L19 27L19 26L21 26L21 24L20 24L20 23ZM44 23L44 24L45 24L45 23ZM60 23L60 24L59 24L59 26L58 26L58 27L59 27L59 28L58 28L58 29L57 29L57 30L59 30L59 29L60 29L60 28L61 28L61 27L60 27L60 26L61 26L61 25L60 25L60 24L61 24L61 23ZM1 25L1 26L2 26L2 25ZM24 25L24 26L22 26L22 27L21 27L21 30L22 30L22 29L24 29L24 30L23 30L23 31L26 31L26 30L25 30L25 29L26 29L26 28L25 28L25 27L24 27L24 26L25 26L25 25ZM27 25L27 26L26 26L26 27L28 27L28 25ZM35 25L35 26L36 26L36 27L37 27L37 26L36 26L36 25ZM52 25L52 26L51 26L51 27L49 27L49 28L51 28L51 29L53 29L53 28L54 28L54 27L55 27L55 29L54 29L54 30L55 30L55 29L56 29L56 28L57 28L57 25L56 25L56 27L55 27L55 25ZM32 26L32 27L33 27L33 26ZM38 26L38 27L39 27L39 26ZM53 26L53 27L52 27L52 28L53 28L53 27L54 27L54 26ZM4 27L4 28L5 28L5 27ZM23 27L23 28L24 28L24 29L25 29L25 28L24 28L24 27ZM27 28L27 31L29 31L29 28ZM37 28L37 29L36 29L36 30L35 30L35 31L37 31L37 29L38 29L38 28ZM39 28L39 29L40 29L40 28ZM44 28L44 29L43 29L43 31L44 31L44 32L43 32L43 35L44 35L44 34L45 34L45 33L44 33L44 32L46 32L46 31L45 31L45 28ZM62 28L62 29L63 29L63 28ZM5 30L5 31L7 31L7 30ZM16 30L16 32L17 32L17 33L19 33L19 34L20 34L20 32L17 32L17 30ZM51 30L51 31L50 31L50 32L51 32L51 31L52 31L52 32L53 32L53 31L52 31L52 30ZM47 31L47 32L48 32L48 31ZM26 32L26 34L27 34L27 32ZM56 32L56 34L57 34L57 32ZM5 33L5 36L8 36L8 33ZM33 33L33 36L36 36L36 33ZM61 33L61 36L64 36L64 33ZM6 34L6 35L7 35L7 34ZM22 34L22 35L23 35L23 34ZM34 34L34 35L35 35L35 34ZM52 34L52 35L53 35L53 34ZM62 34L62 35L63 35L63 34ZM1 35L1 38L2 38L2 35ZM9 35L9 36L11 36L11 35ZM50 36L50 40L49 40L49 37L47 37L47 38L46 38L46 39L48 39L48 40L49 40L49 41L48 41L48 42L50 42L50 41L51 41L51 40L52 40L52 39L51 39L51 36ZM14 37L14 39L15 39L15 37ZM27 37L27 39L28 39L28 37ZM62 37L62 40L63 40L63 37ZM65 37L65 41L64 41L64 42L66 42L66 41L67 41L67 39L66 39L66 38L67 38L67 37ZM6 38L6 39L8 39L8 40L9 40L9 41L10 41L10 43L11 43L11 42L13 42L13 43L14 43L14 42L13 42L13 41L14 41L14 40L13 40L13 38L11 38L11 39L8 39L8 38ZM22 38L22 39L23 39L23 40L24 40L24 41L23 41L23 42L22 42L22 43L21 43L21 41L20 41L20 43L19 43L19 44L18 44L18 45L23 45L23 44L22 44L22 43L23 43L23 42L25 42L25 39L24 39L24 38ZM42 38L42 40L43 40L43 38ZM59 38L59 39L61 39L61 38ZM11 39L11 40L12 40L12 39ZM35 39L35 41L34 41L34 40L33 40L33 41L32 41L32 42L33 42L33 41L34 41L34 43L33 43L33 44L34 44L34 46L37 46L37 45L36 45L36 44L35 44L35 43L36 43L36 39ZM37 40L37 41L38 41L38 42L37 42L37 44L38 44L38 45L39 45L39 43L40 43L40 42L41 42L41 44L40 44L40 45L42 45L42 44L43 44L43 45L44 45L44 43L42 43L42 42L41 42L41 41L40 41L40 42L39 42L39 41L38 41L38 40ZM54 41L54 42L55 42L55 43L53 43L53 44L55 44L55 43L56 43L56 42L55 42L55 41ZM2 44L2 45L3 45L3 44ZM8 44L8 45L9 45L9 44ZM11 44L11 45L12 45L12 44ZM32 45L32 46L31 46L31 47L32 47L32 46L33 46L33 45ZM6 46L6 47L7 47L7 46ZM39 46L39 47L38 47L38 48L39 48L39 47L40 47L40 46ZM62 46L62 47L63 47L63 46ZM17 47L17 48L16 48L16 49L17 49L17 48L18 48L18 47ZM43 47L43 48L44 48L44 47ZM46 47L46 48L47 48L47 47ZM49 48L49 49L47 49L47 50L46 50L46 51L45 51L45 52L46 52L46 53L44 53L44 52L43 52L43 51L42 51L42 52L40 52L40 51L39 51L39 52L38 52L38 53L42 53L42 54L41 54L41 55L40 55L40 56L41 56L41 55L42 55L42 56L43 56L43 55L44 55L44 57L45 57L45 55L46 55L46 54L47 54L47 51L48 51L48 50L49 50L49 49L50 49L50 50L52 50L52 49L50 49L50 48ZM21 49L21 50L22 50L22 49ZM67 49L67 50L68 50L68 51L69 51L69 50L68 50L68 49ZM6 50L6 51L7 51L7 50ZM56 51L56 52L55 52L55 53L56 53L56 52L57 52L57 51ZM35 52L35 53L36 53L36 52ZM43 53L43 54L42 54L42 55L43 55L43 54L44 54L44 53ZM49 53L49 54L50 54L50 53ZM53 54L53 55L52 55L52 56L51 56L51 57L54 57L54 56L55 56L55 55L54 55L54 54ZM2 56L2 58L3 58L3 56ZM6 56L6 57L7 57L7 56ZM17 56L17 57L18 57L18 56ZM48 56L48 57L50 57L50 56ZM14 57L14 58L13 58L13 59L12 59L12 60L13 60L13 59L14 59L14 58L15 58L15 57ZM43 58L43 59L44 59L44 60L45 60L45 59L44 59L44 58ZM17 59L17 60L18 60L18 59ZM65 59L65 60L66 60L66 61L67 61L67 60L66 60L66 59ZM3 60L3 61L5 61L5 60ZM33 61L33 64L36 64L36 61ZM58 61L58 62L59 62L59 61ZM61 61L61 64L64 64L64 61ZM20 62L20 65L19 65L19 64L18 64L18 65L17 65L17 66L18 66L18 65L19 65L19 67L21 67L21 65L22 65L22 64L21 64L21 62ZM34 62L34 63L35 63L35 62ZM62 62L62 63L63 63L63 62ZM56 63L56 64L57 64L57 65L56 65L56 66L57 66L57 65L58 65L58 68L59 68L59 66L61 66L61 65L59 65L59 64L57 64L57 63ZM67 64L67 65L66 65L66 66L68 66L68 67L69 67L69 64ZM23 65L23 66L24 66L24 65ZM31 65L31 66L30 66L30 67L29 67L29 68L31 68L31 67L33 67L33 68L34 68L34 67L35 67L35 66L36 66L36 65L33 65L33 66L32 66L32 65ZM37 65L37 66L38 66L38 67L39 67L39 68L40 68L40 67L39 67L39 66L38 66L38 65ZM63 65L63 66L64 66L64 65ZM10 67L10 68L11 68L11 67ZM13 67L13 68L14 68L14 67ZM50 67L50 68L52 68L52 67ZM60 67L60 68L61 68L61 67ZM0 0L0 7L7 7L7 0ZM1 1L1 6L6 6L6 1ZM2 2L2 5L5 5L5 2ZM62 0L62 7L69 7L69 0ZM63 1L63 6L68 6L68 1ZM64 2L64 5L67 5L67 2ZM0 62L0 69L7 69L7 62ZM1 63L1 68L6 68L6 63ZM2 64L2 67L5 67L5 64Z" fill="#000000"/></g></g></svg>
