<?xml version="1.0" encoding="UTF-8"?>
<svg xmlns="http://www.w3.org/2000/svg" version="1.1" width="300" height="300" viewBox="0 0 300 300"><rect x="0" y="0" width="300" height="300" fill="#ffffff"/><g transform="scale(4.615)"><g transform="translate(0,0)"><path fill-rule="evenodd" d="M8 0L8 2L9 2L9 4L8 4L8 10L6 10L6 11L5 11L5 12L6 12L6 13L5 13L5 14L4 14L4 13L2 13L2 12L3 12L3 11L4 11L4 9L3 9L3 8L0 8L0 11L1 11L1 14L0 14L0 17L1 17L1 14L4 14L4 15L2 15L2 18L1 18L1 20L0 20L0 21L1 21L1 22L0 22L0 23L1 23L1 22L2 22L2 23L3 23L3 27L4 27L4 29L5 29L5 30L3 30L3 28L2 28L2 27L0 27L0 30L1 30L1 29L2 29L2 32L1 32L1 33L2 33L2 34L3 34L3 33L2 33L2 32L4 32L4 35L1 35L1 34L0 34L0 37L1 37L1 38L0 38L0 40L1 40L1 42L0 42L0 44L1 44L1 42L2 42L2 41L3 41L3 44L2 44L2 45L1 45L1 46L0 46L0 47L1 47L1 48L0 48L0 49L1 49L1 50L0 50L0 51L2 51L2 53L1 53L1 52L0 52L0 54L2 54L2 55L3 55L3 56L1 56L1 55L0 55L0 56L1 56L1 57L3 57L3 56L4 56L4 57L5 57L5 56L4 56L4 54L5 54L5 55L8 55L8 54L9 54L9 56L13 56L13 55L14 55L14 56L15 56L15 55L14 55L14 54L16 54L16 55L18 55L18 54L16 54L16 53L17 53L17 52L16 52L16 51L15 51L15 50L16 50L16 49L17 49L17 47L18 47L18 49L19 49L19 50L20 50L20 49L21 49L21 47L20 47L20 46L21 46L21 44L20 44L20 43L22 43L22 47L23 47L23 48L22 48L22 50L23 50L23 51L22 51L22 52L24 52L24 53L23 53L23 54L24 54L24 55L26 55L26 58L28 58L28 57L29 57L29 59L30 59L30 61L29 61L29 62L28 62L28 63L27 63L27 60L25 60L25 58L24 58L24 57L25 57L25 56L24 56L24 57L23 57L23 55L22 55L22 54L21 54L21 55L22 55L22 57L23 57L23 58L22 58L22 59L23 59L23 60L22 60L22 61L21 61L21 59L20 59L20 61L21 61L21 62L20 62L20 63L21 63L21 64L22 64L22 65L23 65L23 63L22 63L22 61L23 61L23 60L24 60L24 61L25 61L25 62L24 62L24 63L25 63L25 65L27 65L27 64L28 64L28 63L29 63L29 65L31 65L31 64L32 64L32 65L34 65L34 63L35 63L35 64L36 64L36 65L37 65L37 63L36 63L36 62L35 62L35 60L36 60L36 61L37 61L37 62L38 62L38 65L39 65L39 63L41 63L41 64L40 64L40 65L41 65L41 64L42 64L42 63L43 63L43 64L44 64L44 65L45 65L45 64L46 64L46 63L47 63L47 64L48 64L48 65L49 65L49 64L50 64L50 63L51 63L51 64L52 64L52 65L53 65L53 64L54 64L54 63L53 63L53 64L52 64L52 63L51 63L51 62L50 62L50 61L49 61L49 60L52 60L52 61L53 61L53 62L54 62L54 60L55 60L55 61L56 61L56 64L57 64L57 62L58 62L58 61L60 61L60 63L61 63L61 64L60 64L60 65L62 65L62 63L65 63L65 62L63 62L63 61L65 61L65 60L64 60L64 59L65 59L65 54L64 54L64 55L63 55L63 57L62 57L62 54L60 54L60 49L63 49L63 50L61 50L61 53L62 53L62 51L63 51L63 53L65 53L65 48L64 48L64 47L65 47L65 46L64 46L64 45L65 45L65 41L63 41L63 40L62 40L62 39L64 39L64 40L65 40L65 34L64 34L64 33L65 33L65 29L64 29L64 27L65 27L65 26L64 26L64 25L65 25L65 22L64 22L64 20L65 20L65 18L64 18L64 17L65 17L65 16L64 16L64 15L65 15L65 12L64 12L64 11L65 11L65 8L63 8L63 9L62 9L62 11L61 11L61 10L60 10L60 9L61 9L61 8L57 8L57 6L56 6L56 8L55 8L55 5L54 5L54 4L56 4L56 5L57 5L57 4L56 4L56 3L57 3L57 1L56 1L56 0L55 0L55 1L56 1L56 3L55 3L55 2L52 2L52 1L51 1L51 0L50 0L50 1L49 1L49 2L50 2L50 3L51 3L51 4L50 4L50 5L51 5L51 6L50 6L50 7L49 7L49 6L48 6L48 7L49 7L49 8L48 8L48 14L47 14L47 15L46 15L46 17L45 17L45 16L44 16L44 13L46 13L46 12L45 12L45 10L46 10L46 9L45 9L45 8L44 8L44 9L45 9L45 10L44 10L44 11L43 11L43 15L42 15L42 17L41 17L41 15L40 15L40 13L41 13L41 14L42 14L42 13L41 13L41 11L40 11L40 13L39 13L39 14L38 14L38 13L37 13L37 10L36 10L36 9L37 9L37 6L38 6L38 9L39 9L39 8L40 8L40 9L41 9L41 10L42 10L42 9L41 9L41 4L42 4L42 5L43 5L43 6L42 6L42 7L43 7L43 6L44 6L44 7L45 7L45 6L46 6L46 7L47 7L47 6L46 6L46 5L48 5L48 4L46 4L46 3L45 3L45 4L46 4L46 5L44 5L44 4L42 4L42 3L43 3L43 2L44 2L44 1L43 1L43 0L42 0L42 1L40 1L40 0L38 0L38 1L37 1L37 2L38 2L38 1L40 1L40 2L39 2L39 3L38 3L38 5L35 5L35 4L36 4L36 1L35 1L35 0L34 0L34 1L35 1L35 3L34 3L34 2L33 2L33 0L32 0L32 2L31 2L31 4L30 4L30 1L31 1L31 0L30 0L30 1L29 1L29 0L28 0L28 2L29 2L29 4L28 4L28 7L27 7L27 4L26 4L26 5L25 5L25 2L24 2L24 1L26 1L26 0L24 0L24 1L23 1L23 2L22 2L22 3L24 3L24 5L23 5L23 4L22 4L22 5L21 5L21 4L20 4L20 5L19 5L19 4L18 4L18 7L17 7L17 4L16 4L16 7L15 7L15 5L14 5L14 2L13 2L13 4L11 4L11 6L10 6L10 5L9 5L9 4L10 4L10 2L9 2L9 1L10 1L10 0ZM12 0L12 1L11 1L11 3L12 3L12 1L15 1L15 3L17 3L17 2L16 2L16 1L17 1L17 0L16 0L16 1L15 1L15 0ZM19 0L19 2L18 2L18 3L21 3L21 2L20 2L20 1L21 1L21 0ZM46 0L46 1L45 1L45 2L46 2L46 1L47 1L47 2L48 2L48 1L47 1L47 0ZM42 1L42 2L43 2L43 1ZM50 1L50 2L51 2L51 1ZM26 2L26 3L27 3L27 2ZM32 3L32 4L34 4L34 3ZM40 3L40 4L41 4L41 3ZM52 3L52 4L51 4L51 5L52 5L52 6L51 6L51 7L50 7L50 8L49 8L49 11L50 11L50 12L49 12L49 13L50 13L50 14L49 14L49 15L48 15L48 16L47 16L47 17L46 17L46 18L45 18L45 17L44 17L44 16L43 16L43 17L42 17L42 18L41 18L41 17L40 17L40 16L39 16L39 15L38 15L38 16L37 16L37 13L36 13L36 10L35 10L35 9L36 9L36 6L35 6L35 9L34 9L34 11L35 11L35 12L34 12L34 15L33 15L33 17L34 17L34 18L35 18L35 19L34 19L34 23L35 23L35 24L33 24L33 25L34 25L34 27L33 27L33 26L31 26L31 27L30 27L30 26L29 26L29 25L30 25L30 24L31 24L31 25L32 25L32 20L33 20L33 19L32 19L32 18L31 18L31 17L32 17L32 16L31 16L31 15L32 15L32 14L33 14L33 13L32 13L32 14L31 14L31 15L30 15L30 13L29 13L29 14L28 14L28 15L30 15L30 18L29 18L29 17L28 17L28 19L27 19L27 17L26 17L26 16L27 16L27 13L26 13L26 11L27 11L27 10L26 10L26 8L27 8L27 7L26 7L26 6L25 6L25 5L24 5L24 6L23 6L23 5L22 5L22 6L21 6L21 5L20 5L20 6L19 6L19 7L18 7L18 8L17 8L17 7L16 7L16 8L15 8L15 9L14 9L14 6L13 6L13 10L11 10L11 9L12 9L12 6L11 6L11 7L10 7L10 6L9 6L9 8L11 8L11 9L10 9L10 10L8 10L8 12L7 12L7 11L6 11L6 12L7 12L7 13L6 13L6 14L5 14L5 17L6 17L6 18L2 18L2 20L1 20L1 21L2 21L2 22L4 22L4 23L5 23L5 24L8 24L8 21L10 21L10 20L11 20L11 19L12 19L12 22L9 22L9 25L11 25L11 26L10 26L10 27L9 27L9 26L8 26L8 28L7 28L7 27L6 27L6 28L7 28L7 29L6 29L6 30L8 30L8 29L9 29L9 30L10 30L10 31L9 31L9 37L8 37L8 38L7 38L7 37L5 37L5 35L4 35L4 39L5 39L5 41L4 41L4 40L3 40L3 39L2 39L2 38L3 38L3 36L2 36L2 38L1 38L1 40L3 40L3 41L4 41L4 44L5 44L5 45L6 45L6 46L4 46L4 45L3 45L3 46L1 46L1 47L2 47L2 48L1 48L1 49L2 49L2 51L3 51L3 52L4 52L4 53L2 53L2 54L4 54L4 53L6 53L6 54L7 54L7 53L6 53L6 52L8 52L8 49L6 49L6 50L7 50L7 51L5 51L5 52L4 52L4 51L3 51L3 49L4 49L4 50L5 50L5 48L8 48L8 47L9 47L9 46L10 46L10 45L9 45L9 44L10 44L10 43L9 43L9 41L10 41L10 40L11 40L11 42L12 42L12 43L13 43L13 44L12 44L12 45L13 45L13 46L11 46L11 48L10 48L10 50L9 50L9 51L10 51L10 52L9 52L9 53L10 53L10 54L11 54L11 53L10 53L10 52L13 52L13 53L14 53L14 52L15 52L15 53L16 53L16 52L15 52L15 51L14 51L14 49L15 49L15 47L14 47L14 44L17 44L17 46L16 46L16 47L17 47L17 46L18 46L18 47L19 47L19 45L18 45L18 44L17 44L17 42L18 42L18 40L17 40L17 39L18 39L18 38L19 38L19 40L20 40L20 42L19 42L19 43L20 43L20 42L21 42L21 41L22 41L22 43L23 43L23 44L25 44L25 46L24 46L24 47L25 47L25 49L24 49L24 48L23 48L23 49L24 49L24 50L25 50L25 51L24 51L24 52L25 52L25 53L24 53L24 54L26 54L26 55L27 55L27 57L28 57L28 56L29 56L29 57L30 57L30 54L31 54L31 56L35 56L35 57L36 57L36 58L37 58L37 59L36 59L36 60L37 60L37 61L38 61L38 62L39 62L39 61L40 61L40 60L41 60L41 61L42 61L42 62L41 62L41 63L42 63L42 62L43 62L43 61L44 61L44 62L45 62L45 63L44 63L44 64L45 64L45 63L46 63L46 62L47 62L47 63L48 63L48 64L49 64L49 63L48 63L48 62L47 62L47 61L48 61L48 58L49 58L49 59L50 59L50 58L51 58L51 57L52 57L52 55L53 55L53 54L52 54L52 52L54 52L54 56L53 56L53 57L54 57L54 59L55 59L55 60L56 60L56 57L54 57L54 56L55 56L55 54L56 54L56 55L58 55L58 56L61 56L61 55L60 55L60 54L59 54L59 53L58 53L58 54L57 54L57 52L56 52L56 53L55 53L55 52L54 52L54 50L55 50L55 51L58 51L58 52L59 52L59 51L58 51L58 49L60 49L60 48L59 48L59 47L60 47L60 46L61 46L61 47L62 47L62 48L63 48L63 47L64 47L64 46L63 46L63 45L62 45L62 46L61 46L61 45L60 45L60 42L61 42L61 41L60 41L60 42L59 42L59 43L58 43L58 42L56 42L56 41L57 41L57 40L56 40L56 41L55 41L55 39L56 39L56 38L57 38L57 36L58 36L58 37L59 37L59 36L58 36L58 35L57 35L57 36L56 36L56 37L54 37L54 38L53 38L53 41L52 41L52 40L51 40L51 39L52 39L52 36L53 36L53 35L51 35L51 36L50 36L50 38L51 38L51 39L50 39L50 40L51 40L51 41L50 41L50 42L49 42L49 43L48 43L48 40L49 40L49 39L48 39L48 36L47 36L47 35L46 35L46 36L47 36L47 37L46 37L46 39L45 39L45 38L44 38L44 36L45 36L45 35L44 35L44 36L43 36L43 37L42 37L42 34L43 34L43 33L44 33L44 32L45 32L45 33L46 33L46 34L47 34L47 33L48 33L48 32L49 32L49 31L50 31L50 32L51 32L51 33L50 33L50 34L52 34L52 32L53 32L53 33L54 33L54 34L56 34L56 31L55 31L55 28L56 28L56 30L57 30L57 29L58 29L58 30L60 30L60 28L61 28L61 27L62 27L62 28L63 28L63 27L64 27L64 26L63 26L63 23L64 23L64 22L63 22L63 23L62 23L62 21L60 21L60 23L61 23L61 25L60 25L60 28L59 28L59 29L58 29L58 26L59 26L59 24L58 24L58 26L57 26L57 23L58 23L58 22L59 22L59 21L58 21L58 22L57 22L57 19L56 19L56 18L57 18L57 17L58 17L58 18L59 18L59 19L58 19L58 20L59 20L59 19L60 19L60 16L61 16L61 19L62 19L62 20L64 20L64 18L63 18L63 19L62 19L62 16L63 16L63 17L64 17L64 16L63 16L63 15L64 15L64 14L63 14L63 13L64 13L64 12L63 12L63 11L64 11L64 9L63 9L63 11L62 11L62 12L61 12L61 13L60 13L60 14L59 14L59 11L60 11L60 10L59 10L59 9L58 9L58 10L59 10L59 11L58 11L58 14L59 14L59 15L58 15L58 16L57 16L57 13L56 13L56 11L57 11L57 8L56 8L56 11L54 11L54 10L55 10L55 9L54 9L54 10L53 10L53 11L52 11L52 8L53 8L53 7L54 7L54 5L52 5L52 4L53 4L53 3ZM31 5L31 8L34 8L34 5ZM38 5L38 6L39 6L39 7L40 7L40 6L39 6L39 5ZM20 6L20 8L22 8L22 9L21 9L21 10L20 10L20 9L19 9L19 8L18 8L18 10L16 10L16 9L15 9L15 10L14 10L14 11L13 11L13 12L12 12L12 11L11 11L11 12L10 12L10 11L9 11L9 12L10 12L10 15L9 15L9 13L7 13L7 14L6 14L6 15L7 15L7 16L6 16L6 17L7 17L7 18L6 18L6 19L7 19L7 20L6 20L6 21L5 21L5 23L7 23L7 22L6 22L6 21L8 21L8 19L7 19L7 18L9 18L9 17L8 17L8 15L9 15L9 16L10 16L10 17L11 17L11 16L13 16L13 17L12 17L12 19L13 19L13 18L14 18L14 19L15 19L15 18L16 18L16 19L17 19L17 18L18 18L18 17L19 17L19 19L18 19L18 20L19 20L19 19L20 19L20 17L21 17L21 15L22 15L22 17L23 17L23 19L22 19L22 20L23 20L23 19L24 19L24 20L25 20L25 19L24 19L24 17L25 17L25 18L26 18L26 17L25 17L25 15L26 15L26 13L25 13L25 12L24 12L24 11L26 11L26 10L24 10L24 9L23 9L23 6L22 6L22 7L21 7L21 6ZM24 6L24 8L26 8L26 7L25 7L25 6ZM29 6L29 8L28 8L28 10L29 10L29 11L30 11L30 12L31 12L31 11L30 11L30 10L31 10L31 9L30 9L30 6ZM32 6L32 7L33 7L33 6ZM52 6L52 7L51 7L51 8L52 8L52 7L53 7L53 6ZM5 8L5 9L7 9L7 8ZM22 9L22 10L21 10L21 11L20 11L20 10L18 10L18 11L17 11L17 13L16 13L16 14L15 14L15 12L16 12L16 11L15 11L15 12L14 12L14 13L13 13L13 14L12 14L12 13L11 13L11 15L10 15L10 16L11 16L11 15L13 15L13 16L15 16L15 15L16 15L16 14L18 14L18 12L19 12L19 11L20 11L20 12L21 12L21 14L20 14L20 15L21 15L21 14L22 14L22 15L23 15L23 14L22 14L22 12L23 12L23 9ZM32 9L32 11L33 11L33 9ZM1 10L1 11L2 11L2 10ZM21 11L21 12L22 12L22 11ZM53 11L53 12L52 12L52 13L51 13L51 12L50 12L50 13L51 13L51 14L52 14L52 15L53 15L53 14L54 14L54 16L55 16L55 18L56 18L56 16L55 16L55 15L56 15L56 13L55 13L55 12L54 12L54 11ZM62 12L62 13L61 13L61 14L60 14L60 15L59 15L59 16L60 16L60 15L61 15L61 16L62 16L62 15L63 15L63 14L62 14L62 13L63 13L63 12ZM35 13L35 15L34 15L34 17L35 17L35 15L36 15L36 13ZM54 13L54 14L55 14L55 13ZM7 14L7 15L8 15L8 14ZM13 14L13 15L15 15L15 14ZM24 14L24 15L25 15L25 14ZM17 15L17 17L18 17L18 16L19 16L19 17L20 17L20 16L19 16L19 15ZM3 16L3 17L4 17L4 16ZM23 16L23 17L24 17L24 16ZM36 16L36 17L37 17L37 16ZM38 16L38 17L39 17L39 19L38 19L38 20L36 20L36 21L35 21L35 23L36 23L36 26L35 26L35 27L34 27L34 28L35 28L35 27L36 27L36 26L37 26L37 27L38 27L38 28L36 28L36 29L37 29L37 30L38 30L38 28L39 28L39 27L41 27L41 26L42 26L42 25L43 25L43 28L40 28L40 29L39 29L39 32L37 32L37 31L36 31L36 33L35 33L35 30L34 30L34 29L33 29L33 28L32 28L32 29L33 29L33 30L31 30L31 28L30 28L30 27L29 27L29 28L28 28L28 27L27 27L27 28L26 28L26 26L24 26L24 25L23 25L23 24L24 24L24 23L23 23L23 22L22 22L22 25L21 25L21 24L20 24L20 23L19 23L19 22L18 22L18 23L19 23L19 24L18 24L18 25L19 25L19 26L16 26L16 24L17 24L17 23L16 23L16 22L17 22L17 20L14 20L14 21L15 21L15 23L14 23L14 24L15 24L15 25L14 25L14 26L13 26L13 27L12 27L12 29L11 29L11 27L10 27L10 28L9 28L9 29L11 29L11 30L12 30L12 32L10 32L10 33L11 33L11 34L10 34L10 37L9 37L9 38L8 38L8 39L7 39L7 38L5 38L5 39L7 39L7 40L6 40L6 41L5 41L5 42L6 42L6 43L5 43L5 44L6 44L6 45L7 45L7 46L6 46L6 47L7 47L7 46L8 46L8 44L9 44L9 43L7 43L7 42L6 42L6 41L8 41L8 40L9 40L9 39L11 39L11 40L12 40L12 42L13 42L13 43L15 43L15 42L14 42L14 41L13 41L13 40L14 40L14 39L15 39L15 38L14 38L14 39L13 39L13 40L12 40L12 39L11 39L11 38L10 38L10 37L11 37L11 36L12 36L12 37L13 37L13 36L12 36L12 35L13 35L13 34L16 34L16 33L17 33L17 35L15 35L15 36L17 36L17 38L18 38L18 37L19 37L19 38L20 38L20 39L21 39L21 40L22 40L22 41L23 41L23 42L24 42L24 43L25 43L25 42L26 42L26 41L27 41L27 43L28 43L28 44L26 44L26 47L27 47L27 46L28 46L28 45L29 45L29 43L30 43L30 42L29 42L29 43L28 43L28 41L30 41L30 40L29 40L29 39L30 39L30 38L28 38L28 37L29 37L29 34L28 34L28 31L29 31L29 30L30 30L30 32L29 32L29 33L30 33L30 36L31 36L31 38L32 38L32 35L33 35L33 37L34 37L34 40L36 40L36 41L34 41L34 43L36 43L36 49L35 49L35 48L34 48L34 47L35 47L35 46L34 46L34 44L33 44L33 46L34 46L34 47L32 47L32 44L31 44L31 45L30 45L30 46L29 46L29 47L30 47L30 48L28 48L28 49L27 49L27 48L26 48L26 49L27 49L27 50L28 50L28 51L26 51L26 52L28 52L28 53L27 53L27 55L28 55L28 53L29 53L29 52L28 52L28 51L29 51L29 50L28 50L28 49L31 49L31 50L30 50L30 51L31 51L31 52L30 52L30 53L31 53L31 54L32 54L32 55L33 55L33 54L34 54L34 55L35 55L35 56L36 56L36 57L39 57L39 56L38 56L38 55L39 55L39 54L38 54L38 52L36 52L36 53L34 53L34 52L35 52L35 50L36 50L36 51L38 51L38 49L39 49L39 51L40 51L40 53L41 53L41 54L40 54L40 55L41 55L41 56L40 56L40 57L41 57L41 60L42 60L42 61L43 61L43 60L42 60L42 59L43 59L43 58L42 58L42 57L43 57L43 56L44 56L44 57L45 57L45 60L44 60L44 61L45 61L45 62L46 62L46 61L47 61L47 60L46 60L46 57L47 57L47 58L48 58L48 57L49 57L49 58L50 58L50 57L51 57L51 56L50 56L50 55L52 55L52 54L50 54L50 53L51 53L51 52L52 52L52 51L53 51L53 50L54 50L54 48L55 48L55 49L56 49L56 48L57 48L57 47L55 47L55 46L54 46L54 45L53 45L53 43L52 43L52 42L50 42L50 43L49 43L49 44L48 44L48 45L49 45L49 47L48 47L48 46L46 46L46 45L47 45L47 44L46 44L46 41L45 41L45 40L44 40L44 42L42 42L42 41L43 41L43 40L41 40L41 39L40 39L40 38L42 38L42 39L43 39L43 38L42 38L42 37L41 37L41 35L40 35L40 33L41 33L41 34L42 34L42 33L41 33L41 32L42 32L42 31L45 31L45 32L46 32L46 31L45 31L45 30L46 30L46 29L47 29L47 30L48 30L48 31L49 31L49 30L50 30L50 29L51 29L51 30L52 30L52 31L53 31L53 32L54 32L54 33L55 33L55 32L54 32L54 27L53 27L53 28L52 28L52 26L53 26L53 24L54 24L54 25L55 25L55 26L56 26L56 28L57 28L57 26L56 26L56 25L55 25L55 24L54 24L54 23L56 23L56 21L55 21L55 22L54 22L54 20L56 20L56 19L53 19L53 20L52 20L52 19L51 19L51 20L52 20L52 21L53 21L53 24L52 24L52 22L50 22L50 20L48 20L48 19L47 19L47 20L48 20L48 21L47 21L47 22L46 22L46 19L45 19L45 20L44 20L44 22L43 22L43 23L44 23L44 25L43 25L43 24L42 24L42 23L41 23L41 24L40 24L40 25L41 25L41 26L38 26L38 25L39 25L39 23L40 23L40 21L41 21L41 20L42 20L42 21L43 21L43 20L42 20L42 19L41 19L41 20L40 20L40 21L39 21L39 23L38 23L38 20L39 20L39 19L40 19L40 17L39 17L39 16ZM48 16L48 18L49 18L49 16ZM50 16L50 17L51 17L51 16ZM52 16L52 18L53 18L53 16ZM14 17L14 18L15 18L15 17ZM43 17L43 18L44 18L44 17ZM30 18L30 19L28 19L28 20L27 20L27 19L26 19L26 20L27 20L27 22L25 22L25 24L26 24L26 25L27 25L27 26L28 26L28 23L29 23L29 24L30 24L30 22L28 22L28 21L31 21L31 20L30 20L30 19L31 19L31 18ZM36 18L36 19L37 19L37 18ZM3 19L3 20L2 20L2 21L3 21L3 20L4 20L4 19ZM36 21L36 23L37 23L37 25L38 25L38 23L37 23L37 21ZM48 21L48 22L49 22L49 21ZM45 22L45 27L44 27L44 28L43 28L43 29L42 29L42 30L44 30L44 28L45 28L45 29L46 29L46 27L47 27L47 29L48 29L48 30L49 30L49 29L48 29L48 27L49 27L49 28L50 28L50 26L52 26L52 24L51 24L51 23L50 23L50 24L49 24L49 23L48 23L48 24L47 24L47 23L46 23L46 22ZM11 23L11 24L13 24L13 23ZM26 23L26 24L27 24L27 23ZM19 24L19 25L20 25L20 27L21 27L21 25L20 25L20 24ZM48 24L48 26L47 26L47 27L48 27L48 26L50 26L50 25L51 25L51 24L50 24L50 25L49 25L49 24ZM0 25L0 26L1 26L1 25ZM4 25L4 27L5 27L5 25ZM6 25L6 26L7 26L7 25ZM22 25L22 26L23 26L23 27L22 27L22 28L21 28L21 29L20 29L20 28L19 28L19 30L18 30L18 32L17 32L17 31L16 31L16 30L17 30L17 29L16 29L16 28L18 28L18 27L16 27L16 28L15 28L15 26L14 26L14 29L12 29L12 30L14 30L14 31L13 31L13 32L14 32L14 33L15 33L15 32L17 32L17 33L18 33L18 32L19 32L19 34L20 34L20 35L21 35L21 33L22 33L22 34L23 34L23 35L22 35L22 36L23 36L23 37L22 37L22 38L21 38L21 37L20 37L20 36L19 36L19 35L18 35L18 36L19 36L19 37L20 37L20 38L21 38L21 39L22 39L22 40L23 40L23 41L24 41L24 42L25 42L25 41L26 41L26 40L27 40L27 41L28 41L28 38L27 38L27 37L28 37L28 34L27 34L27 33L26 33L26 31L27 31L27 30L29 30L29 29L30 29L30 28L29 28L29 29L27 29L27 30L26 30L26 28L25 28L25 29L24 29L24 26L23 26L23 25ZM61 25L61 26L62 26L62 27L63 27L63 26L62 26L62 25ZM22 28L22 30L23 30L23 28ZM51 28L51 29L52 29L52 28ZM14 29L14 30L15 30L15 29ZM61 29L61 31L62 31L62 32L61 32L61 34L62 34L62 36L61 36L61 35L60 35L60 36L61 36L61 37L60 37L60 39L59 39L59 40L60 40L60 39L62 39L62 37L63 37L63 36L64 36L64 34L62 34L62 33L64 33L64 29L63 29L63 31L62 31L62 29ZM20 30L20 31L21 31L21 32L22 32L22 33L23 33L23 34L24 34L24 37L23 37L23 38L22 38L22 39L23 39L23 38L24 38L24 37L25 37L25 38L26 38L26 39L27 39L27 38L26 38L26 37L27 37L27 36L26 36L26 35L27 35L27 34L26 34L26 33L25 33L25 34L24 34L24 32L22 32L22 31L21 31L21 30ZM24 30L24 31L26 31L26 30ZM5 31L5 34L8 34L8 31ZM31 31L31 34L34 34L34 31ZM40 31L40 32L39 32L39 33L38 33L38 34L39 34L39 33L40 33L40 32L41 32L41 31ZM57 31L57 34L60 34L60 31ZM6 32L6 33L7 33L7 32ZM32 32L32 33L33 33L33 32ZM58 32L58 33L59 33L59 32ZM12 33L12 34L13 34L13 33ZM36 33L36 35L35 35L35 36L34 36L34 37L36 37L36 38L35 38L35 39L37 39L37 41L36 41L36 43L37 43L37 41L38 41L38 44L39 44L39 45L38 45L38 46L37 46L37 49L38 49L38 46L39 46L39 45L40 45L40 47L41 47L41 49L40 49L40 48L39 48L39 49L40 49L40 51L41 51L41 52L43 52L43 53L42 53L42 54L41 54L41 55L42 55L42 56L43 56L43 55L42 55L42 54L44 54L44 56L45 56L45 55L46 55L46 56L47 56L47 57L48 57L48 56L49 56L49 55L50 55L50 54L49 54L49 55L48 55L48 54L47 54L47 53L48 53L48 52L49 52L49 53L50 53L50 52L49 52L49 51L50 51L50 50L51 50L51 48L49 48L49 49L48 49L48 50L47 50L47 48L45 48L45 49L44 49L44 50L45 50L45 49L46 49L46 50L47 50L47 51L42 51L42 50L43 50L43 49L42 49L42 46L44 46L44 47L46 47L46 46L44 46L44 44L43 44L43 43L42 43L42 42L41 42L41 41L40 41L40 42L39 42L39 41L38 41L38 39L39 39L39 37L40 37L40 35L39 35L39 37L38 37L38 39L37 39L37 37L36 37L36 35L37 35L37 36L38 36L38 35L37 35L37 33ZM6 35L6 36L7 36L7 35ZM54 38L54 39L55 39L55 38ZM31 39L31 42L32 42L32 43L33 43L33 42L32 42L32 41L33 41L33 40L32 40L32 39ZM53 41L53 42L54 42L54 44L55 44L55 45L56 45L56 44L58 44L58 45L57 45L57 46L58 46L58 47L59 47L59 46L60 46L60 45L59 45L59 44L58 44L58 43L56 43L56 42L54 42L54 41ZM44 42L44 43L45 43L45 42ZM62 42L62 44L63 44L63 43L64 43L64 42ZM6 43L6 44L7 44L7 43ZM39 43L39 44L40 44L40 45L41 45L41 46L42 46L42 45L43 45L43 44L42 44L42 43ZM50 43L50 46L51 46L51 47L52 47L52 44L51 44L51 43ZM55 43L55 44L56 44L56 43ZM45 44L45 45L46 45L46 44ZM3 46L3 48L2 48L2 49L3 49L3 48L4 48L4 46ZM30 46L30 47L31 47L31 48L32 48L32 47L31 47L31 46ZM13 47L13 48L11 48L11 49L12 49L12 50L13 50L13 48L14 48L14 47ZM33 48L33 49L32 49L32 51L33 51L33 52L34 52L34 48ZM41 49L41 50L42 50L42 49ZM49 49L49 50L48 50L48 51L49 51L49 50L50 50L50 49ZM52 49L52 50L53 50L53 49ZM10 50L10 51L11 51L11 50ZM13 51L13 52L14 52L14 51ZM18 51L18 52L20 52L20 53L19 53L19 56L18 56L18 58L20 58L20 57L21 57L21 56L20 56L20 53L21 53L21 52L20 52L20 51ZM44 52L44 53L45 53L45 52ZM32 53L32 54L33 54L33 53ZM35 54L35 55L36 55L36 56L37 56L37 55L36 55L36 54ZM58 54L58 55L59 55L59 54ZM6 56L6 57L8 57L8 58L9 58L9 59L8 59L8 60L9 60L9 61L10 61L10 62L8 62L8 65L14 65L14 64L13 64L13 62L12 62L12 61L13 61L13 60L14 60L14 59L15 59L15 58L16 58L16 61L17 61L17 62L16 62L16 63L17 63L17 64L18 64L18 65L19 65L19 64L18 64L18 63L17 63L17 62L19 62L19 60L18 60L18 59L17 59L17 58L16 58L16 57L17 57L17 56L16 56L16 57L14 57L14 59L13 59L13 60L12 60L12 57L8 57L8 56ZM19 56L19 57L20 57L20 56ZM31 57L31 60L34 60L34 57ZM57 57L57 60L60 60L60 57ZM61 57L61 58L62 58L62 57ZM63 57L63 59L62 59L62 60L61 60L61 61L62 61L62 60L63 60L63 59L64 59L64 57ZM10 58L10 60L11 60L11 61L12 61L12 60L11 60L11 58ZM32 58L32 59L33 59L33 58ZM39 58L39 59L38 59L38 61L39 61L39 59L40 59L40 58ZM52 58L52 60L53 60L53 58ZM58 58L58 59L59 59L59 58ZM45 60L45 61L46 61L46 60ZM14 61L14 62L15 62L15 61ZM33 61L33 63L32 63L32 64L33 64L33 63L34 63L34 61ZM11 62L11 63L9 63L9 64L12 64L12 62ZM25 62L25 63L26 63L26 64L27 64L27 63L26 63L26 62ZM61 62L61 63L62 63L62 62ZM30 63L30 64L31 64L31 63ZM64 64L64 65L65 65L65 64ZM0 0L0 7L7 7L7 0ZM1 1L1 6L6 6L6 1ZM2 2L2 5L5 5L5 2ZM58 0L58 7L65 7L65 0ZM59 1L59 6L64 6L64 1ZM60 2L60 5L63 5L63 2ZM0 58L0 65L7 65L7 58ZM1 59L1 64L6 64L6 59ZM2 60L2 63L5 63L5 60Z" fill="#000000"/></g></g></svg>
