<?xml version="1.0" encoding="UTF-8"?>
<svg xmlns="http://www.w3.org/2000/svg" version="1.1" width="300" height="300" viewBox="0 0 300 300"><rect x="0" y="0" width="300" height="300" fill="#ffffff"/><g transform="scale(4.348)"><g transform="translate(0,0)"><path fill-rule="evenodd" d="M10 0L10 1L11 1L11 0ZM14 0L14 1L13 1L13 2L12 2L12 3L13 3L13 4L12 4L12 5L11 5L11 6L10 6L10 3L11 3L11 2L9 2L9 1L8 1L8 2L9 2L9 3L8 3L8 4L9 4L9 5L8 5L8 7L9 7L9 8L6 8L6 9L8 9L8 11L7 11L7 10L6 10L6 11L7 11L7 12L5 12L5 8L0 8L0 9L3 9L3 10L4 10L4 12L3 12L3 11L2 11L2 10L1 10L1 11L0 11L0 12L1 12L1 11L2 11L2 13L1 13L1 17L0 17L0 18L1 18L1 17L2 17L2 19L0 19L0 21L1 21L1 22L0 22L0 24L2 24L2 25L0 25L0 26L1 26L1 27L0 27L0 29L1 29L1 30L0 30L0 34L1 34L1 35L0 35L0 36L1 36L1 35L2 35L2 37L3 37L3 38L1 38L1 37L0 37L0 38L1 38L1 41L2 41L2 40L4 40L4 41L5 41L5 42L2 42L2 43L1 43L1 45L5 45L5 44L6 44L6 45L7 45L7 46L6 46L6 47L7 47L7 46L8 46L8 45L7 45L7 44L6 44L6 43L8 43L8 44L9 44L9 45L10 45L10 46L9 46L9 47L10 47L10 48L9 48L9 50L10 50L10 49L12 49L12 50L13 50L13 52L16 52L16 53L17 53L17 54L18 54L18 55L19 55L19 56L17 56L17 57L16 57L16 55L15 55L15 53L14 53L14 54L13 54L13 53L12 53L12 54L9 54L9 53L11 53L11 52L12 52L12 51L11 51L11 52L9 52L9 51L7 51L7 50L8 50L8 48L6 48L6 49L7 49L7 50L6 50L6 51L5 51L5 50L4 50L4 51L3 51L3 49L5 49L5 48L3 48L3 49L2 49L2 51L0 51L0 52L1 52L1 53L0 53L0 54L1 54L1 57L0 57L0 61L1 61L1 58L2 58L2 59L3 59L3 58L4 58L4 59L9 59L9 57L10 57L10 56L11 56L11 55L12 55L12 56L13 56L13 57L11 57L11 58L12 58L12 59L10 59L10 60L9 60L9 61L8 61L8 60L6 60L6 61L8 61L8 63L9 63L9 61L10 61L10 62L11 62L11 63L12 63L12 64L11 64L11 66L15 66L15 67L13 67L13 69L14 69L14 68L15 68L15 67L16 67L16 65L17 65L17 68L16 68L16 69L17 69L17 68L18 68L18 69L21 69L21 68L19 68L19 67L20 67L20 66L19 66L19 65L20 65L20 64L23 64L23 66L22 66L22 67L23 67L23 66L25 66L25 65L27 65L27 62L25 62L25 61L26 61L26 59L28 59L28 58L26 58L26 56L23 56L23 54L24 54L24 55L26 55L26 52L25 52L25 51L26 51L26 50L25 50L25 48L24 48L24 49L22 49L22 47L21 47L21 46L20 46L20 45L21 45L21 44L24 44L24 45L23 45L23 47L24 47L24 46L25 46L25 47L26 47L26 46L27 46L27 45L26 45L26 43L29 43L29 42L27 42L27 41L31 41L31 42L30 42L30 44L28 44L28 45L29 45L29 46L28 46L28 47L29 47L29 46L32 46L32 47L31 47L31 48L27 48L27 50L28 50L28 49L30 49L30 50L33 50L33 52L32 52L32 51L29 51L29 52L28 52L28 51L27 51L27 53L32 53L32 55L33 55L33 56L32 56L32 59L31 59L31 58L29 58L29 61L31 61L31 62L29 62L29 63L31 63L31 64L29 64L29 66L27 66L27 67L24 67L24 68L23 68L23 69L26 69L26 68L27 68L27 67L29 67L29 68L28 68L28 69L29 69L29 68L30 68L30 69L32 69L32 67L33 67L33 69L34 69L34 67L38 67L38 69L39 69L39 67L38 67L38 65L37 65L37 63L38 63L38 64L41 64L41 65L39 65L39 66L44 66L44 67L43 67L43 69L44 69L44 68L45 68L45 67L46 67L46 68L47 68L47 69L49 69L49 68L47 68L47 67L49 67L49 66L50 66L50 65L51 65L51 66L52 66L52 65L51 65L51 64L50 64L50 63L48 63L48 62L50 62L50 61L51 61L51 62L52 62L52 63L53 63L53 62L54 62L54 64L55 64L55 65L53 65L53 66L54 66L54 67L55 67L55 69L56 69L56 67L55 67L55 65L56 65L56 66L57 66L57 69L59 69L59 68L62 68L62 69L68 69L68 68L67 68L67 65L68 65L68 62L67 62L67 61L68 61L68 60L67 60L67 59L68 59L68 55L67 55L67 54L69 54L69 53L67 53L67 54L66 54L66 52L68 52L68 51L69 51L69 50L68 50L68 46L67 46L67 44L68 44L68 45L69 45L69 44L68 44L68 42L69 42L69 41L68 41L68 42L67 42L67 41L66 41L66 43L65 43L65 42L63 42L63 43L65 43L65 45L66 45L66 47L65 47L65 46L64 46L64 49L62 49L62 48L61 48L61 47L62 47L62 46L63 46L63 45L62 45L62 46L61 46L61 44L62 44L62 40L61 40L61 41L60 41L60 43L61 43L61 44L60 44L60 45L59 45L59 43L57 43L57 45L59 45L59 46L56 46L56 43L55 43L55 42L57 42L57 41L58 41L58 40L57 40L57 39L56 39L56 38L57 38L57 37L56 37L56 35L54 35L54 34L57 34L57 33L59 33L59 32L58 32L58 31L59 31L59 30L61 30L61 31L60 31L60 34L59 34L59 35L60 35L60 37L59 37L59 36L58 36L58 37L59 37L59 39L60 39L60 38L61 38L61 39L62 39L62 38L64 38L64 37L65 37L65 36L66 36L66 38L65 38L65 39L63 39L63 41L65 41L65 40L67 40L67 39L68 39L68 38L67 38L67 37L68 37L68 36L67 36L67 35L68 35L68 34L69 34L69 33L68 33L68 32L69 32L69 31L68 31L68 29L69 29L69 27L68 27L68 26L69 26L69 23L68 23L68 22L66 22L66 23L65 23L65 22L63 22L63 23L62 23L62 21L63 21L63 20L62 20L62 21L59 21L59 22L58 22L58 23L62 23L62 25L59 25L59 24L58 24L58 25L59 25L59 26L58 26L58 27L57 27L57 26L55 26L55 25L56 25L56 23L57 23L57 21L58 21L58 19L59 19L59 18L62 18L62 19L63 19L63 18L65 18L65 20L67 20L67 21L68 21L68 18L69 18L69 17L68 17L68 16L67 16L67 15L68 15L68 12L67 12L67 11L68 11L68 10L69 10L69 9L68 9L68 8L67 8L67 9L66 9L66 8L65 8L65 12L66 12L66 13L67 13L67 14L64 14L64 13L63 13L63 11L62 11L62 8L61 8L61 9L60 9L60 7L61 7L61 6L60 6L60 7L59 7L59 4L58 4L58 3L59 3L59 2L57 2L57 4L58 4L58 7L57 7L57 6L56 6L56 7L57 7L57 9L56 9L56 8L55 8L55 5L56 5L56 3L53 3L53 4L51 4L51 5L50 5L50 3L49 3L49 1L50 1L50 0L47 0L47 1L45 1L45 0L44 0L44 1L45 1L45 3L47 3L47 4L49 4L49 6L48 6L48 5L46 5L46 7L45 7L45 4L44 4L44 3L43 3L43 0L41 0L41 1L38 1L38 0L33 0L33 1L35 1L35 4L32 4L32 3L33 3L33 2L32 2L32 0L31 0L31 1L30 1L30 0L29 0L29 1L30 1L30 2L29 2L29 4L30 4L30 5L29 5L29 6L28 6L28 7L27 7L27 6L26 6L26 5L27 5L27 4L28 4L28 3L27 3L27 4L26 4L26 3L25 3L25 4L24 4L24 2L22 2L22 1L25 1L25 2L26 2L26 1L27 1L27 2L28 2L28 0L26 0L26 1L25 1L25 0L21 0L21 3L16 3L16 4L15 4L15 3L14 3L14 1L15 1L15 0ZM16 0L16 2L17 2L17 1L19 1L19 2L20 2L20 1L19 1L19 0ZM51 0L51 2L53 2L53 1L54 1L54 2L55 2L55 1L61 1L61 0L53 0L53 1L52 1L52 0ZM41 1L41 2L42 2L42 1ZM30 2L30 3L32 3L32 2ZM38 2L38 3L39 3L39 4L38 4L38 5L37 5L37 7L38 7L38 8L39 8L39 9L38 9L38 10L37 10L37 12L36 12L36 11L33 11L33 10L36 10L36 9L33 9L33 10L31 10L31 9L29 9L29 8L28 8L28 9L27 9L27 7L26 7L26 6L25 6L25 7L24 7L24 4L23 4L23 3L21 3L21 4L20 4L20 6L19 6L19 7L18 7L18 5L19 5L19 4L16 4L16 6L15 6L15 7L16 7L16 6L17 6L17 8L16 8L16 9L17 9L17 11L19 11L19 12L20 12L20 11L21 11L21 10L22 10L22 12L21 12L21 13L20 13L20 14L18 14L18 13L17 13L17 12L16 12L16 13L17 13L17 14L15 14L15 15L14 15L14 14L13 14L13 15L11 15L11 16L10 16L10 15L6 15L6 14L8 14L8 13L5 13L5 12L4 12L4 13L5 13L5 16L4 16L4 15L3 15L3 13L2 13L2 16L4 16L4 17L3 17L3 18L4 18L4 17L5 17L5 19L3 19L3 20L2 20L2 21L3 21L3 22L2 22L2 24L5 24L5 22L8 22L8 20L9 20L9 19L8 19L8 18L7 18L7 17L9 17L9 18L11 18L11 19L13 19L13 18L12 18L12 17L14 17L14 18L15 18L15 17L16 17L16 19L14 19L14 23L13 23L13 24L11 24L11 23L12 23L12 22L9 22L9 25L8 25L8 23L6 23L6 24L7 24L7 25L4 25L4 26L3 26L3 25L2 25L2 27L5 27L5 28L7 28L7 29L6 29L6 30L7 30L7 29L8 29L8 30L12 30L12 32L13 32L13 28L12 28L12 29L10 29L10 28L11 28L11 25L12 25L12 27L14 27L14 31L15 31L15 32L14 32L14 33L12 33L12 35L10 35L10 33L11 33L11 31L10 31L10 32L9 32L9 38L8 38L8 39L10 39L10 40L9 40L9 42L8 42L8 40L7 40L7 39L6 39L6 38L7 38L7 37L4 37L4 38L5 38L5 39L6 39L6 40L5 40L5 41L6 41L6 42L8 42L8 43L9 43L9 42L10 42L10 45L11 45L11 46L12 46L12 47L11 47L11 48L14 48L14 47L15 47L15 48L16 48L16 49L13 49L13 50L15 50L15 51L16 51L16 52L19 52L19 53L20 53L20 54L21 54L21 55L20 55L20 56L21 56L21 57L17 57L17 58L18 58L18 59L19 59L19 60L20 60L20 62L19 62L19 61L18 61L18 60L16 60L16 59L15 59L15 60L14 60L14 61L15 61L15 62L13 62L13 60L10 60L10 61L12 61L12 63L16 63L16 64L14 64L14 65L16 65L16 64L17 64L17 65L18 65L18 64L17 64L17 63L18 63L18 62L19 62L19 64L20 64L20 63L23 63L23 64L26 64L26 63L25 63L25 62L23 62L23 61L25 61L25 60L24 60L24 59L23 59L23 58L24 58L24 57L22 57L22 56L21 56L21 55L22 55L22 54L23 54L23 53L24 53L24 52L23 52L23 50L22 50L22 49L21 49L21 47L20 47L20 46L18 46L18 45L17 45L17 44L18 44L18 43L17 43L17 41L18 41L18 42L19 42L19 41L20 41L20 42L22 42L22 43L24 43L24 44L25 44L25 43L26 43L26 41L27 41L27 40L26 40L26 39L25 39L25 38L23 38L23 36L24 36L24 37L27 37L27 38L28 38L28 39L31 39L31 41L33 41L33 42L31 42L31 43L33 43L33 42L37 42L37 41L38 41L38 43L39 43L39 44L37 44L37 45L38 45L38 46L35 46L35 45L36 45L36 44L31 44L31 45L33 45L33 47L34 47L34 46L35 46L35 47L39 47L39 49L38 49L38 48L36 48L36 49L35 49L35 48L34 48L34 49L33 49L33 48L31 48L31 49L33 49L33 50L34 50L34 52L33 52L33 54L34 54L34 56L33 56L33 57L35 57L35 58L34 58L34 59L37 59L37 60L38 60L38 63L39 63L39 61L41 61L41 60L44 60L44 61L46 61L46 62L41 62L41 64L44 64L44 66L47 66L47 64L48 64L48 63L46 63L46 62L47 62L47 60L45 60L45 59L44 59L44 58L46 58L46 59L47 59L47 57L46 57L46 56L48 56L48 55L50 55L50 54L53 54L53 52L54 52L54 53L55 53L55 54L54 54L54 55L52 55L52 56L51 56L51 57L50 57L50 56L49 56L49 57L50 57L50 58L48 58L48 59L49 59L49 60L50 60L50 59L51 59L51 60L52 60L52 61L53 61L53 60L52 60L52 59L54 59L54 58L52 58L52 57L55 57L55 56L54 56L54 55L56 55L56 57L57 57L57 59L56 59L56 58L55 58L55 60L56 60L56 62L60 62L60 60L64 60L64 59L67 59L67 57L65 57L65 56L64 56L64 57L63 57L63 56L62 56L62 57L60 57L60 56L61 56L61 53L60 53L60 52L62 52L62 51L63 51L63 50L62 50L62 49L61 49L61 48L59 48L59 47L61 47L61 46L59 46L59 47L57 47L57 48L56 48L56 50L57 50L57 51L58 51L58 52L59 52L59 53L57 53L57 52L55 52L55 50L51 50L51 49L53 49L53 48L49 48L49 47L50 47L50 46L52 46L52 47L53 47L53 45L55 45L55 44L54 44L54 43L53 43L53 44L51 44L51 45L50 45L50 43L51 43L51 41L53 41L53 40L52 40L52 39L55 39L55 40L56 40L56 41L57 41L57 40L56 40L56 39L55 39L55 38L56 38L56 37L55 37L55 38L52 38L52 37L54 37L54 36L53 36L53 35L52 35L52 34L54 34L54 33L55 33L55 32L54 32L54 31L55 31L55 30L56 30L56 31L57 31L57 30L59 30L59 29L60 29L60 28L57 28L57 27L56 27L56 29L55 29L55 27L53 27L53 28L52 28L52 27L51 27L51 25L52 25L52 26L53 26L53 23L54 23L54 22L53 22L53 20L52 20L52 19L54 19L54 21L55 21L55 23L56 23L56 21L57 21L57 20L55 20L55 19L57 19L57 18L59 18L59 14L60 14L60 13L62 13L62 14L61 14L61 15L60 15L60 16L62 16L62 18L63 18L63 17L65 17L65 18L67 18L67 17L66 17L66 16L65 16L65 15L64 15L64 16L62 16L62 14L63 14L63 13L62 13L62 11L61 11L61 10L60 10L60 9L57 9L57 10L56 10L56 9L55 9L55 8L54 8L54 5L52 5L52 6L51 6L51 7L50 7L50 6L49 6L49 7L50 7L50 8L51 8L51 9L50 9L50 10L51 10L51 9L53 9L53 8L54 8L54 9L55 9L55 12L54 12L54 11L53 11L53 10L52 10L52 11L51 11L51 13L50 13L50 11L49 11L49 10L47 10L47 7L48 7L48 6L47 6L47 7L46 7L46 9L45 9L45 8L43 8L43 9L44 9L44 10L45 10L45 12L44 12L44 13L43 13L43 12L42 12L42 13L43 13L43 15L40 15L40 14L39 14L39 13L41 13L41 11L43 11L43 10L40 10L40 9L41 9L41 8L42 8L42 6L43 6L43 7L44 7L44 6L43 6L43 5L44 5L44 4L43 4L43 5L41 5L41 3L39 3L39 2ZM36 3L36 4L37 4L37 3ZM60 3L60 5L61 5L61 3ZM13 4L13 5L12 5L12 6L11 6L11 8L9 8L9 9L10 9L10 10L11 10L11 11L12 11L12 9L13 9L13 11L14 11L14 12L15 12L15 10L14 10L14 9L13 9L13 7L14 7L14 4ZM21 4L21 6L20 6L20 7L19 7L19 8L17 8L17 9L19 9L19 10L20 10L20 7L21 7L21 6L22 6L22 7L23 7L23 8L24 8L24 9L23 9L23 10L24 10L24 9L26 9L26 11L25 11L25 12L24 12L24 11L23 11L23 14L25 14L25 15L24 15L24 16L26 16L26 14L27 14L27 13L25 13L25 12L26 12L26 11L28 11L28 12L29 12L29 13L30 13L30 14L31 14L31 15L28 15L28 16L27 16L27 17L22 17L22 16L21 16L21 17L18 17L18 16L17 16L17 15L18 15L18 14L17 14L17 15L15 15L15 16L14 16L14 17L15 17L15 16L17 16L17 17L18 17L18 18L17 18L17 19L16 19L16 20L15 20L15 22L16 22L16 20L17 20L17 25L16 25L16 23L15 23L15 24L14 24L14 25L16 25L16 26L15 26L15 27L16 27L16 28L17 28L17 30L16 30L16 31L17 31L17 32L18 32L18 33L17 33L17 34L15 34L15 35L14 35L14 34L13 34L13 35L12 35L12 37L11 37L11 38L10 38L10 39L11 39L11 38L13 38L13 37L19 37L19 38L14 38L14 39L12 39L12 41L11 41L11 42L12 42L12 43L13 43L13 44L14 44L14 45L12 45L12 44L11 44L11 45L12 45L12 46L15 46L15 45L16 45L16 43L15 43L15 44L14 44L14 43L13 43L13 42L12 42L12 41L14 41L14 42L16 42L16 41L14 41L14 40L16 40L16 39L17 39L17 40L18 40L18 41L19 41L19 40L21 40L21 41L22 41L22 40L21 40L21 39L22 39L22 37L21 37L21 36L23 36L23 35L24 35L24 36L25 36L25 35L24 35L24 34L25 34L25 33L26 33L26 32L28 32L28 33L27 33L27 34L28 34L28 33L29 33L29 34L30 34L30 35L29 35L29 37L30 37L30 38L32 38L32 40L34 40L34 39L35 39L35 40L37 40L37 38L38 38L38 37L40 37L40 36L41 36L41 37L42 37L42 38L40 38L40 39L38 39L38 40L41 40L41 41L40 41L40 44L41 44L41 48L42 48L42 49L39 49L39 50L38 50L38 49L37 49L37 50L35 50L35 49L34 49L34 50L35 50L35 54L37 54L37 55L35 55L35 57L36 57L36 58L37 58L37 59L38 59L38 60L40 60L40 59L43 59L43 57L44 57L44 56L43 56L43 55L42 55L42 54L43 54L43 53L44 53L44 55L45 55L45 56L46 56L46 54L45 54L45 53L46 53L46 52L45 52L45 49L44 49L44 47L45 47L45 45L46 45L46 44L47 44L47 47L46 47L46 49L47 49L47 55L48 55L48 53L49 53L49 54L50 54L50 53L51 53L51 50L50 50L50 49L49 49L49 48L48 48L48 47L49 47L49 46L50 46L50 45L49 45L49 42L50 42L50 41L49 41L49 38L50 38L50 39L51 39L51 38L50 38L50 37L51 37L51 36L50 36L50 37L49 37L49 36L47 36L47 37L49 37L49 38L48 38L48 40L47 40L47 38L46 38L46 37L45 37L45 38L46 38L46 39L45 39L45 40L47 40L47 41L49 41L49 42L46 42L46 44L45 44L45 45L44 45L44 43L45 43L45 41L44 41L44 38L43 38L43 37L44 37L44 36L46 36L46 34L45 34L45 33L46 33L46 32L47 32L47 33L48 33L48 34L47 34L47 35L49 35L49 34L50 34L50 35L51 35L51 34L50 34L50 33L49 33L49 32L52 32L52 30L55 30L55 29L54 29L54 28L53 28L53 29L52 29L52 28L51 28L51 27L50 27L50 25L49 25L49 24L48 24L48 23L47 23L47 24L46 24L46 22L45 22L45 21L47 21L47 22L48 22L48 21L49 21L49 22L50 22L50 24L51 24L51 23L53 23L53 22L50 22L50 21L52 21L52 20L51 20L51 18L54 18L54 19L55 19L55 17L56 17L56 18L57 18L57 17L58 17L58 16L57 16L57 17L56 17L56 14L57 14L57 13L58 13L58 11L56 11L56 12L55 12L55 13L51 13L51 14L50 14L50 13L49 13L49 11L47 11L47 12L46 12L46 13L48 13L48 14L47 14L47 15L48 15L48 16L47 16L47 18L44 18L44 19L45 19L45 21L44 21L44 20L43 20L43 17L44 17L44 16L45 16L45 17L46 17L46 16L45 16L45 15L44 15L44 16L42 16L42 17L39 17L39 15L38 15L38 17L37 17L37 14L38 14L38 12L37 12L37 13L36 13L36 12L34 12L34 13L32 13L32 11L31 11L31 10L30 10L30 11L31 11L31 12L29 12L29 11L28 11L28 10L27 10L27 9L26 9L26 8L24 8L24 7L23 7L23 6L22 6L22 5L23 5L23 4ZM25 4L25 5L26 5L26 4ZM30 5L30 6L29 6L29 7L30 7L30 8L31 8L31 7L32 7L32 5ZM33 5L33 8L36 8L36 5ZM39 5L39 6L38 6L38 7L39 7L39 6L40 6L40 7L41 7L41 6L40 6L40 5ZM9 6L9 7L10 7L10 6ZM12 6L12 7L13 7L13 6ZM30 6L30 7L31 7L31 6ZM34 6L34 7L35 7L35 6ZM52 6L52 7L51 7L51 8L52 8L52 7L53 7L53 6ZM21 8L21 9L22 9L22 8ZM63 8L63 10L64 10L64 8ZM67 9L67 10L66 10L66 11L67 11L67 10L68 10L68 9ZM39 10L39 12L40 12L40 10ZM59 10L59 11L60 11L60 12L59 12L59 13L60 13L60 12L61 12L61 11L60 11L60 10ZM8 11L8 12L10 12L10 13L9 13L9 14L10 14L10 13L12 13L12 12L10 12L10 11ZM56 12L56 13L55 13L55 14L56 14L56 13L57 13L57 12ZM31 13L31 14L32 14L32 16L31 16L31 18L29 18L29 16L28 16L28 17L27 17L27 19L23 19L23 20L22 20L22 19L21 19L21 20L20 20L20 22L18 22L18 23L19 23L19 25L17 25L17 26L18 26L18 27L17 27L17 28L20 28L20 30L19 30L19 31L20 31L20 33L19 33L19 34L20 34L20 35L18 35L18 34L17 34L17 36L19 36L19 37L20 37L20 39L21 39L21 37L20 37L20 36L21 36L21 34L22 34L22 33L23 33L23 34L24 34L24 33L25 33L25 31L27 31L27 30L28 30L28 32L29 32L29 31L30 31L30 30L32 30L32 32L31 32L31 33L30 33L30 34L31 34L31 35L30 35L30 36L31 36L31 35L32 35L32 34L31 34L31 33L32 33L32 32L33 32L33 29L30 29L30 30L29 30L29 28L30 28L30 27L32 27L32 28L34 28L34 29L36 29L36 30L35 30L35 31L34 31L34 32L38 32L38 34L37 34L37 36L40 36L40 35L41 35L41 36L42 36L42 37L43 37L43 36L44 36L44 33L45 33L45 32L44 32L44 31L45 31L45 30L49 30L49 31L51 31L51 28L50 28L50 30L49 30L49 29L47 29L47 28L49 28L49 27L47 27L47 25L48 25L48 24L47 24L47 25L46 25L46 24L44 24L44 21L43 21L43 23L41 23L41 21L42 21L42 20L41 20L41 18L39 18L39 17L38 17L38 19L39 19L39 20L38 20L38 21L37 21L37 20L35 20L35 19L34 19L34 18L35 18L35 17L36 17L36 18L37 18L37 17L36 17L36 15L34 15L34 14L35 14L35 13L34 13L34 14L32 14L32 13ZM44 13L44 14L45 14L45 13ZM20 14L20 15L19 15L19 16L20 16L20 15L22 15L22 14ZM48 14L48 15L50 15L50 14ZM52 14L52 16L50 16L50 18L49 18L49 17L48 17L48 18L47 18L47 20L48 20L48 18L49 18L49 21L50 21L50 18L51 18L51 17L55 17L55 16L53 16L53 15L54 15L54 14ZM6 16L6 17L7 17L7 16ZM11 16L11 17L12 17L12 16ZM33 16L33 17L34 17L34 16ZM21 17L21 18L22 18L22 17ZM6 18L6 19L7 19L7 20L3 20L3 21L4 21L4 22L5 22L5 21L7 21L7 20L8 20L8 19L7 19L7 18ZM18 18L18 19L17 19L17 20L18 20L18 19L20 19L20 18ZM28 18L28 19L27 19L27 20L28 20L28 21L29 21L29 22L30 22L30 21L31 21L31 20L32 20L32 19L29 19L29 18ZM28 19L28 20L29 20L29 19ZM60 19L60 20L61 20L61 19ZM11 20L11 21L13 21L13 20ZM24 20L24 21L23 21L23 22L22 22L22 23L21 23L21 22L20 22L20 24L22 24L22 25L21 25L21 26L20 26L20 25L19 25L19 26L20 26L20 28L23 28L23 29L22 29L22 30L20 30L20 31L21 31L21 32L22 32L22 30L23 30L23 33L24 33L24 31L25 31L25 29L26 29L26 28L27 28L27 29L28 29L28 28L29 28L29 26L27 26L27 25L30 25L30 26L31 26L31 24L32 24L32 23L33 23L33 22L34 22L34 21L35 21L35 20L33 20L33 22L32 22L32 23L27 23L27 25L26 25L26 24L25 24L25 23L26 23L26 20ZM36 21L36 22L35 22L35 23L36 23L36 24L37 24L37 23L38 23L38 25L36 25L36 26L35 26L35 24L33 24L33 25L32 25L32 27L35 27L35 28L37 28L37 30L36 30L36 31L37 31L37 30L38 30L38 31L39 31L39 32L40 32L40 31L41 31L41 32L43 32L43 33L41 33L41 34L43 34L43 33L44 33L44 32L43 32L43 31L44 31L44 30L45 30L45 29L44 29L44 27L43 27L43 26L45 26L45 27L46 27L46 26L45 26L45 25L44 25L44 24L42 24L42 25L41 25L41 26L39 26L39 28L40 28L40 27L42 27L42 28L43 28L43 29L41 29L41 30L40 30L40 29L39 29L39 30L38 30L38 27L37 27L37 26L38 26L38 25L39 25L39 24L41 24L41 23L39 23L39 22L37 22L37 21ZM23 23L23 24L24 24L24 23ZM64 23L64 24L63 24L63 25L62 25L62 26L61 26L61 27L63 27L63 28L62 28L62 31L61 31L61 32L62 32L62 31L63 31L63 32L64 32L64 31L67 31L67 32L66 32L66 34L65 34L65 35L67 35L67 34L68 34L68 33L67 33L67 32L68 32L68 31L67 31L67 29L68 29L68 28L66 28L66 27L65 27L65 26L64 26L64 25L67 25L67 26L68 26L68 25L67 25L67 24L68 24L68 23L67 23L67 24L65 24L65 23ZM10 24L10 25L9 25L9 26L10 26L10 25L11 25L11 24ZM54 24L54 25L55 25L55 24ZM7 25L7 26L6 26L6 27L7 27L7 26L8 26L8 25ZM22 25L22 27L23 27L23 28L24 28L24 29L23 29L23 30L24 30L24 29L25 29L25 28L26 28L26 27L27 27L27 26L26 26L26 25L25 25L25 26L26 26L26 27L25 27L25 28L24 28L24 27L23 27L23 26L24 26L24 25ZM59 26L59 27L60 27L60 26ZM64 27L64 28L65 28L65 29L66 29L66 28L65 28L65 27ZM2 29L2 30L3 30L3 29ZM63 29L63 31L64 31L64 29ZM17 30L17 31L18 31L18 30ZM41 30L41 31L43 31L43 30ZM2 31L2 32L1 32L1 34L2 34L2 32L7 32L7 31ZM56 32L56 33L57 33L57 32ZM3 33L3 35L4 35L4 33ZM5 33L5 36L8 36L8 33ZM33 33L33 36L36 36L36 33ZM39 33L39 34L38 34L38 35L39 35L39 34L40 34L40 33ZM61 33L61 36L64 36L64 33ZM6 34L6 35L7 35L7 34ZM34 34L34 35L35 35L35 34ZM62 34L62 35L63 35L63 34ZM26 35L26 36L27 36L27 35ZM42 35L42 36L43 36L43 35ZM32 37L32 38L34 38L34 37ZM35 37L35 38L36 38L36 37ZM61 37L61 38L62 38L62 37ZM42 38L42 39L43 39L43 38ZM18 39L18 40L19 40L19 39ZM24 39L24 41L23 41L23 42L24 42L24 41L26 41L26 40L25 40L25 39ZM6 40L6 41L7 41L7 40ZM43 42L43 43L42 43L42 44L43 44L43 43L44 43L44 42ZM4 43L4 44L5 44L5 43ZM19 43L19 44L21 44L21 43ZM47 43L47 44L48 44L48 43ZM25 45L25 46L26 46L26 45ZM43 45L43 46L44 46L44 45ZM48 45L48 46L49 46L49 45ZM0 46L0 50L1 50L1 48L2 48L2 47L3 47L3 46L2 46L2 47L1 47L1 46ZM4 46L4 47L5 47L5 46ZM16 46L16 48L17 48L17 49L18 49L18 51L19 51L19 52L22 52L22 51L21 51L21 49L18 49L18 48L17 48L17 47L18 47L18 46ZM19 47L19 48L20 48L20 47ZM42 47L42 48L43 48L43 47ZM47 48L47 49L48 49L48 48ZM65 48L65 49L64 49L64 50L65 50L65 51L64 51L64 53L62 53L62 55L66 55L66 54L65 54L65 52L66 52L66 51L68 51L68 50L67 50L67 48ZM43 49L43 50L44 50L44 49ZM57 49L57 50L58 50L58 51L60 51L60 50L58 50L58 49ZM65 49L65 50L66 50L66 49ZM16 50L16 51L17 51L17 50ZM19 50L19 51L20 51L20 50ZM37 50L37 51L38 51L38 50ZM39 50L39 51L40 51L40 50ZM41 50L41 52L38 52L38 54L40 54L40 55L41 55L41 54L40 54L40 53L42 53L42 52L44 52L44 53L45 53L45 52L44 52L44 51L42 51L42 50ZM61 50L61 51L62 51L62 50ZM6 51L6 52L7 52L7 53L5 53L5 52L4 52L4 53L3 53L3 54L4 54L4 55L2 55L2 56L3 56L3 57L2 57L2 58L3 58L3 57L4 57L4 55L5 55L5 54L8 54L8 57L9 57L9 56L10 56L10 55L9 55L9 54L8 54L8 53L9 53L9 52L7 52L7 51ZM36 52L36 53L37 53L37 52ZM49 52L49 53L50 53L50 52ZM4 53L4 54L5 54L5 53ZM21 53L21 54L22 54L22 53ZM56 53L56 55L60 55L60 53L59 53L59 54L57 54L57 53ZM6 55L6 56L7 56L7 55ZM14 55L14 57L13 57L13 59L14 59L14 57L15 57L15 58L16 58L16 57L15 57L15 55ZM27 55L27 56L28 56L28 55ZM29 55L29 57L31 57L31 55ZM38 55L38 56L37 56L37 57L38 57L38 59L39 59L39 57L42 57L42 56L39 56L39 55ZM38 56L38 57L39 57L39 56ZM57 56L57 57L58 57L58 56ZM5 57L5 58L7 58L7 57ZM21 57L21 59L22 59L22 60L23 60L23 59L22 59L22 57ZM59 57L59 59L58 59L58 60L57 60L57 61L58 61L58 60L59 60L59 59L60 59L60 57ZM19 58L19 59L20 59L20 58ZM61 58L61 59L62 59L62 58ZM30 59L30 60L31 60L31 61L32 61L32 60L33 60L33 59L32 59L32 60L31 60L31 59ZM3 60L3 61L5 61L5 60ZM15 60L15 61L16 61L16 60ZM65 60L65 61L67 61L67 60ZM17 61L17 62L16 62L16 63L17 63L17 62L18 62L18 61ZM21 61L21 62L22 62L22 61ZM33 61L33 64L36 64L36 61ZM61 61L61 64L64 64L64 61ZM31 62L31 63L32 63L32 62ZM34 62L34 63L35 63L35 62ZM62 62L62 63L63 63L63 62ZM65 62L65 63L66 63L66 62ZM44 63L44 64L45 64L45 63ZM55 63L55 64L56 64L56 65L57 65L57 66L58 66L58 67L59 67L59 66L60 66L60 65L59 65L59 64L60 64L60 63L57 63L57 64L56 64L56 63ZM8 64L8 69L9 69L9 68L10 68L10 66L9 66L9 65L10 65L10 64ZM31 64L31 65L32 65L32 66L30 66L30 67L32 67L32 66L33 66L33 67L34 67L34 66L35 66L35 65L32 65L32 64ZM65 64L65 66L63 66L63 67L62 67L62 66L61 66L61 67L62 67L62 68L63 68L63 67L66 67L66 65L67 65L67 64ZM50 67L50 68L51 68L51 67ZM35 68L35 69L37 69L37 68ZM0 0L0 7L7 7L7 0ZM1 1L1 6L6 6L6 1ZM2 2L2 5L5 5L5 2ZM62 0L62 7L69 7L69 0ZM63 1L63 6L68 6L68 1ZM64 2L64 5L67 5L67 2ZM0 62L0 69L7 69L7 62ZM1 63L1 68L6 68L6 63ZM2 64L2 67L5 67L5 64Z" fill="#000000"/></g></g></svg>
