<?xml version="1.0" encoding="UTF-8"?>
<svg xmlns="http://www.w3.org/2000/svg" version="1.1" width="300" height="300" viewBox="0 0 300 300"><rect x="0" y="0" width="300" height="300" fill="#ffffff"/><g transform="scale(4.615)"><g transform="translate(0,0)"><path fill-rule="evenodd" d="M8 0L8 2L9 2L9 4L8 4L8 9L7 9L7 8L5 8L5 9L7 9L7 10L3 10L3 8L0 8L0 11L1 11L1 12L0 12L0 18L1 18L1 20L0 20L0 21L2 21L2 22L0 22L0 25L1 25L1 23L2 23L2 27L1 27L1 26L0 26L0 29L2 29L2 32L3 32L3 34L4 34L4 35L9 35L9 36L3 36L3 35L0 35L0 38L1 38L1 39L2 39L2 40L0 40L0 44L1 44L1 45L0 45L0 49L1 49L1 48L2 48L2 49L3 49L3 48L2 48L2 47L1 47L1 45L3 45L3 46L5 46L5 47L4 47L4 49L5 49L5 50L2 50L2 52L1 52L1 54L2 54L2 55L3 55L3 56L1 56L1 55L0 55L0 56L1 56L1 57L3 57L3 56L4 56L4 57L5 57L5 56L4 56L4 53L5 53L5 51L7 51L7 52L6 52L6 53L8 53L8 54L9 54L9 53L10 53L10 54L12 54L12 53L14 53L14 52L16 52L16 53L15 53L15 54L13 54L13 55L15 55L15 56L14 56L14 58L13 58L13 57L12 57L12 58L11 58L11 59L10 59L10 60L9 60L9 59L8 59L8 60L9 60L9 61L10 61L10 60L11 60L11 61L12 61L12 62L15 62L15 60L16 60L16 61L17 61L17 62L16 62L16 63L18 63L18 65L19 65L19 63L18 63L18 61L19 61L19 60L20 60L20 61L21 61L21 62L20 62L20 63L21 63L21 65L23 65L23 64L22 64L22 63L23 63L23 59L24 59L24 61L25 61L25 62L24 62L24 63L25 63L25 65L28 65L28 63L29 63L29 62L31 62L31 61L34 61L34 63L33 63L33 62L32 62L32 63L31 63L31 64L30 64L30 65L34 65L34 63L35 63L35 64L36 64L36 65L37 65L37 63L36 63L36 62L35 62L35 60L36 60L36 61L37 61L37 62L38 62L38 65L39 65L39 63L41 63L41 64L40 64L40 65L41 65L41 64L42 64L42 65L43 65L43 64L44 64L44 65L46 65L46 64L47 64L47 63L48 63L48 62L47 62L47 63L46 63L46 64L44 64L44 63L45 63L45 62L43 62L43 63L41 63L41 60L42 60L42 61L43 61L43 60L42 60L42 59L44 59L44 61L47 61L47 60L48 60L48 61L49 61L49 64L48 64L48 65L49 65L49 64L50 64L50 61L49 61L49 58L50 58L50 59L53 59L53 58L54 58L54 59L55 59L55 61L56 61L56 64L57 64L57 65L59 65L59 64L58 64L58 63L59 63L59 62L58 62L58 63L57 63L57 61L60 61L60 63L61 63L61 64L60 64L60 65L63 65L63 64L62 64L62 62L63 62L63 63L65 63L65 62L63 62L63 60L64 60L64 61L65 61L65 60L64 60L64 59L65 59L65 54L64 54L64 53L65 53L65 48L64 48L64 47L65 47L65 46L64 46L64 45L65 45L65 37L64 37L64 36L65 36L65 34L64 34L64 36L63 36L63 37L64 37L64 40L63 40L63 42L64 42L64 43L63 43L63 44L64 44L64 45L63 45L63 46L60 46L60 44L62 44L62 39L63 39L63 38L62 38L62 39L61 39L61 38L60 38L60 39L59 39L59 38L57 38L57 35L58 35L58 37L59 37L59 35L61 35L61 36L62 36L62 34L63 34L63 33L62 33L62 34L61 34L61 30L62 30L62 31L63 31L63 30L62 30L62 29L64 29L64 33L65 33L65 29L64 29L64 27L65 27L65 26L64 26L64 24L63 24L63 26L64 26L64 27L63 27L63 28L62 28L62 27L61 27L61 26L60 26L60 27L59 27L59 26L58 26L58 25L59 25L59 23L60 23L60 25L61 25L61 23L60 23L60 21L62 21L62 22L64 22L64 23L65 23L65 22L64 22L64 21L63 21L63 20L62 20L62 19L64 19L64 20L65 20L65 16L64 16L64 15L65 15L65 8L63 8L63 9L64 9L64 11L63 11L63 12L64 12L64 13L63 13L63 14L64 14L64 15L63 15L63 16L62 16L62 14L61 14L61 12L60 12L60 14L58 14L58 11L60 11L60 9L61 9L61 11L62 11L62 9L61 9L61 8L54 8L54 7L55 7L55 5L52 5L52 7L51 7L51 6L50 6L50 5L51 5L51 4L50 4L50 3L51 3L51 2L52 2L52 1L51 1L51 0L50 0L50 1L48 1L48 0L46 0L46 1L48 1L48 2L47 2L47 4L46 4L46 5L45 5L45 6L44 6L44 9L43 9L43 11L42 11L42 9L41 9L41 8L40 8L40 9L41 9L41 10L40 10L40 13L39 13L39 14L38 14L38 13L37 13L37 11L36 11L36 10L38 10L38 11L39 11L39 10L38 10L38 7L39 7L39 6L40 6L40 7L41 7L41 4L42 4L42 5L44 5L44 3L46 3L46 2L44 2L44 1L45 1L45 0L42 0L42 1L43 1L43 3L42 3L42 2L40 2L40 1L41 1L41 0L38 0L38 1L39 1L39 3L38 3L38 5L35 5L35 4L36 4L36 1L35 1L35 0L34 0L34 1L35 1L35 3L34 3L34 2L33 2L33 0L30 0L30 4L28 4L28 3L29 3L29 2L28 2L28 1L29 1L29 0L27 0L27 2L26 2L26 3L27 3L27 4L26 4L26 5L25 5L25 2L24 2L24 1L25 1L25 0L23 0L23 2L22 2L22 3L23 3L23 4L22 4L22 5L23 5L23 4L24 4L24 7L23 7L23 6L22 6L22 7L23 7L23 8L22 8L22 9L23 9L23 10L22 10L22 11L20 11L20 9L19 9L19 8L18 8L18 11L17 11L17 12L18 12L18 13L16 13L16 10L17 10L17 9L15 9L15 10L14 10L14 8L16 8L16 7L17 7L17 6L18 6L18 7L19 7L19 6L18 6L18 5L20 5L20 7L21 7L21 3L19 3L19 2L20 2L20 1L21 1L21 0L20 0L20 1L19 1L19 2L18 2L18 3L19 3L19 4L18 4L18 5L17 5L17 6L16 6L16 7L15 7L15 5L16 5L16 2L17 2L17 0L16 0L16 1L15 1L15 0L14 0L14 1L13 1L13 0L12 0L12 1L11 1L11 0ZM55 0L55 1L56 1L56 3L55 3L55 2L54 2L54 1L53 1L53 4L56 4L56 5L57 5L57 4L56 4L56 3L57 3L57 1L56 1L56 0ZM9 1L9 2L10 2L10 5L9 5L9 8L10 8L10 9L11 9L11 11L10 11L10 10L9 10L9 9L8 9L8 11L9 11L9 12L10 12L10 13L11 13L11 14L12 14L12 15L10 15L10 14L9 14L9 15L10 15L10 16L8 16L8 14L7 14L7 13L6 13L6 12L7 12L7 11L6 11L6 12L5 12L5 13L4 13L4 15L3 15L3 14L2 14L2 13L1 13L1 14L2 14L2 15L1 15L1 17L3 17L3 18L2 18L2 21L3 21L3 22L4 22L4 23L3 23L3 24L4 24L4 23L5 23L5 22L8 22L8 24L7 24L7 23L6 23L6 24L7 24L7 25L5 25L5 26L4 26L4 28L7 28L7 29L6 29L6 30L7 30L7 29L8 29L8 30L9 30L9 32L10 32L10 31L11 31L11 32L12 32L12 31L11 31L11 30L9 30L9 29L10 29L10 27L5 27L5 26L7 26L7 25L10 25L10 26L11 26L11 27L12 27L12 26L11 26L11 25L14 25L14 27L16 27L16 28L15 28L15 32L14 32L14 29L13 29L13 33L12 33L12 34L11 34L11 33L10 33L10 34L9 34L9 35L10 35L10 36L9 36L9 37L6 37L6 38L8 38L8 41L10 41L10 42L11 42L11 43L9 43L9 42L7 42L7 41L6 41L6 40L7 40L7 39L3 39L3 38L2 38L2 39L3 39L3 40L5 40L5 41L4 41L4 42L5 42L5 43L2 43L2 44L4 44L4 45L5 45L5 46L8 46L8 45L9 45L9 46L10 46L10 47L5 47L5 48L7 48L7 49L6 49L6 50L8 50L8 49L9 49L9 50L10 50L10 51L8 51L8 52L10 52L10 53L12 53L12 52L11 52L11 49L9 49L9 48L10 48L10 47L11 47L11 46L10 46L10 45L11 45L11 43L14 43L14 44L17 44L17 45L18 45L18 46L16 46L16 47L18 47L18 48L17 48L17 49L16 49L16 50L17 50L17 53L16 53L16 58L14 58L14 59L16 59L16 60L17 60L17 61L18 61L18 59L17 59L17 58L19 58L19 59L20 59L20 60L21 60L21 61L22 61L22 59L23 59L23 57L24 57L24 59L25 59L25 60L26 60L26 59L27 59L27 63L26 63L26 62L25 62L25 63L26 63L26 64L27 64L27 63L28 63L28 62L29 62L29 60L30 60L30 58L29 58L29 56L31 56L31 55L32 55L32 54L33 54L33 56L35 56L35 58L36 58L36 60L37 60L37 61L38 61L38 62L39 62L39 61L40 61L40 60L41 60L41 59L42 59L42 58L43 58L43 57L44 57L44 56L43 56L43 55L42 55L42 54L44 54L44 52L43 52L43 48L42 48L42 51L41 51L41 52L43 52L43 53L42 53L42 54L41 54L41 55L42 55L42 56L43 56L43 57L42 57L42 58L41 58L41 57L40 57L40 56L39 56L39 55L38 55L38 56L37 56L37 57L36 57L36 56L35 56L35 55L36 55L36 54L35 54L35 53L36 53L36 52L38 52L38 54L40 54L40 53L39 53L39 51L40 51L40 47L42 47L42 46L43 46L43 47L44 47L44 46L45 46L45 45L44 45L44 44L43 44L43 45L42 45L42 46L41 46L41 45L40 45L40 44L39 44L39 43L38 43L38 42L41 42L41 41L42 41L42 43L41 43L41 44L42 44L42 43L44 43L44 42L45 42L45 43L46 43L46 44L47 44L47 45L46 45L46 47L47 47L47 48L46 48L46 51L48 51L48 52L47 52L47 53L46 53L46 52L45 52L45 57L46 57L46 58L45 58L45 59L46 59L46 60L47 60L47 59L48 59L48 56L49 56L49 57L50 57L50 58L51 58L51 57L50 57L50 54L51 54L51 55L52 55L52 54L53 54L53 57L54 57L54 58L56 58L56 57L54 57L54 56L55 56L55 53L54 53L54 52L55 52L55 51L54 51L54 50L57 50L57 52L58 52L58 50L59 50L59 53L60 53L60 54L59 54L59 55L58 55L58 54L57 54L57 53L56 53L56 55L58 55L58 56L59 56L59 55L60 55L60 56L61 56L61 59L62 59L62 60L61 60L61 62L62 62L62 60L63 60L63 59L64 59L64 58L63 58L63 59L62 59L62 56L63 56L63 57L64 57L64 56L63 56L63 55L64 55L64 54L63 54L63 55L62 55L62 56L61 56L61 53L60 53L60 50L63 50L63 51L62 51L62 53L64 53L64 49L62 49L62 48L63 48L63 47L64 47L64 46L63 46L63 47L62 47L62 48L61 48L61 47L60 47L60 48L59 48L59 47L58 47L58 46L57 46L57 45L58 45L58 44L56 44L56 43L55 43L55 40L56 40L56 39L57 39L57 38L56 38L56 37L54 37L54 36L53 36L53 37L52 37L52 36L51 36L51 37L50 37L50 38L49 38L49 37L48 37L48 38L47 38L47 37L46 37L46 36L47 36L47 35L46 35L46 36L45 36L45 37L44 37L44 35L43 35L43 37L42 37L42 35L41 35L41 33L40 33L40 32L43 32L43 33L42 33L42 34L45 34L45 33L44 33L44 32L47 32L47 33L46 33L46 34L48 34L48 35L49 35L49 36L50 36L50 34L52 34L52 35L54 35L54 34L56 34L56 33L54 33L54 32L56 32L56 30L57 30L57 29L58 29L58 30L59 30L59 29L60 29L60 28L61 28L61 29L62 29L62 28L61 28L61 27L60 27L60 28L59 28L59 29L58 29L58 26L57 26L57 25L58 25L58 24L57 24L57 23L58 23L58 22L59 22L59 21L58 21L58 22L57 22L57 21L56 21L56 20L58 20L58 18L60 18L60 19L62 19L62 16L61 16L61 17L60 17L60 16L59 16L59 17L58 17L58 15L57 15L57 12L55 12L55 11L56 11L56 10L57 10L57 9L56 9L56 10L55 10L55 9L54 9L54 8L53 8L53 7L54 7L54 6L53 6L53 7L52 7L52 8L51 8L51 9L50 9L50 10L49 10L49 9L48 9L48 8L50 8L50 6L49 6L49 5L50 5L50 4L49 4L49 3L48 3L48 4L47 4L47 5L46 5L46 6L45 6L45 7L46 7L46 8L47 8L47 9L46 9L46 10L47 10L47 11L46 11L46 12L47 12L47 13L46 13L46 16L45 16L45 15L44 15L44 16L43 16L43 17L42 17L42 16L41 16L41 13L40 13L40 16L39 16L39 17L38 17L38 15L37 15L37 13L36 13L36 11L35 11L35 10L36 10L36 9L34 9L34 11L33 11L33 9L32 9L32 11L33 11L33 13L32 13L32 14L31 14L31 15L30 15L30 13L29 13L29 14L28 14L28 15L30 15L30 17L28 17L28 19L27 19L27 17L26 17L26 16L27 16L27 15L26 15L26 16L25 16L25 17L24 17L24 19L23 19L23 17L22 17L22 16L23 16L23 15L22 15L22 12L23 12L23 11L22 11L22 12L21 12L21 14L20 14L20 15L21 15L21 17L20 17L20 18L19 18L19 17L18 17L18 16L19 16L19 13L18 13L18 16L16 16L16 15L17 15L17 14L16 14L16 13L14 13L14 11L13 11L13 10L12 10L12 9L13 9L13 8L14 8L14 5L12 5L12 4L11 4L11 3L12 3L12 2L13 2L13 1L12 1L12 2L10 2L10 1ZM31 1L31 2L32 2L32 1ZM50 1L50 2L51 2L51 1ZM23 2L23 3L24 3L24 2ZM32 3L32 4L34 4L34 3ZM40 3L40 4L41 4L41 3ZM27 4L27 5L26 5L26 6L25 6L25 9L24 9L24 8L23 8L23 9L24 9L24 12L25 12L25 13L26 13L26 14L27 14L27 13L26 13L26 12L28 12L28 11L30 11L30 12L31 12L31 11L30 11L30 10L31 10L31 9L30 9L30 6L29 6L29 5L28 5L28 4ZM48 4L48 5L47 5L47 6L46 6L46 7L47 7L47 6L48 6L48 7L49 7L49 6L48 6L48 5L49 5L49 4ZM31 5L31 8L34 8L34 5ZM38 5L38 6L37 6L37 7L38 7L38 6L39 6L39 5ZM10 6L10 8L11 8L11 6ZM12 6L12 7L13 7L13 6ZM26 6L26 7L27 7L27 8L26 8L26 9L25 9L25 11L28 11L28 9L29 9L29 8L28 8L28 7L29 7L29 6L28 6L28 7L27 7L27 6ZM32 6L32 7L33 7L33 6ZM35 6L35 7L36 7L36 6ZM42 6L42 8L43 8L43 6ZM56 6L56 7L57 7L57 6ZM27 8L27 9L26 9L26 10L27 10L27 9L28 9L28 8ZM52 8L52 9L51 9L51 10L50 10L50 11L51 11L51 12L48 12L48 14L47 14L47 16L46 16L46 17L47 17L47 19L46 19L46 20L44 20L44 19L43 19L43 20L42 20L42 19L41 19L41 20L40 20L40 21L39 21L39 23L38 23L38 20L39 20L39 19L38 19L38 20L36 20L36 21L35 21L35 23L34 23L34 19L35 19L35 18L34 18L34 17L35 17L35 15L36 15L36 13L35 13L35 12L34 12L34 13L33 13L33 14L32 14L32 15L34 15L34 17L33 17L33 16L32 16L32 18L31 18L31 19L32 19L32 25L31 25L31 24L30 24L30 23L31 23L31 22L30 22L30 21L31 21L31 20L30 20L30 18L29 18L29 19L28 19L28 20L30 20L30 21L29 21L29 22L30 22L30 23L29 23L29 24L26 24L26 25L27 25L27 26L26 26L26 27L27 27L27 28L24 28L24 27L25 27L25 26L24 26L24 25L25 25L25 22L24 22L24 21L25 21L25 20L23 20L23 19L22 19L22 20L23 20L23 22L24 22L24 23L23 23L23 24L22 24L22 23L20 23L20 21L21 21L21 20L20 20L20 19L18 19L18 20L20 20L20 21L19 21L19 22L17 22L17 20L15 20L15 19L17 19L17 17L13 17L13 15L12 15L12 17L10 17L10 19L9 19L9 17L7 17L7 16L6 16L6 15L7 15L7 14L5 14L5 17L4 17L4 18L3 18L3 20L4 20L4 22L5 22L5 21L7 21L7 20L6 20L6 19L7 19L7 18L8 18L8 19L9 19L9 20L8 20L8 22L9 22L9 23L10 23L10 21L9 21L9 20L11 20L11 18L12 18L12 20L13 20L13 21L15 21L15 23L14 23L14 22L11 22L11 24L10 24L10 25L11 25L11 24L13 24L13 23L14 23L14 24L15 24L15 26L16 26L16 25L17 25L17 26L18 26L18 29L19 29L19 27L20 27L20 29L21 29L21 27L22 27L22 29L23 29L23 28L24 28L24 29L25 29L25 30L24 30L24 31L25 31L25 32L26 32L26 34L25 34L25 35L24 35L24 34L22 34L22 33L23 33L23 31L22 31L22 30L20 30L20 31L22 31L22 33L21 33L21 32L20 32L20 33L19 33L19 32L18 32L18 31L17 31L17 30L16 30L16 31L17 31L17 32L15 32L15 33L13 33L13 36L14 36L14 38L13 38L13 39L12 39L12 40L10 40L10 41L12 41L12 40L13 40L13 42L14 42L14 43L15 43L15 42L16 42L16 43L17 43L17 42L18 42L18 45L19 45L19 48L18 48L18 49L17 49L17 50L18 50L18 49L19 49L19 50L20 50L20 51L18 51L18 52L20 52L20 53L19 53L19 54L20 54L20 56L19 56L19 55L18 55L18 54L17 54L17 55L18 55L18 57L19 57L19 58L20 58L20 56L21 56L21 54L20 54L20 53L21 53L21 52L20 52L20 51L21 51L21 50L22 50L22 49L23 49L23 51L22 51L22 52L23 52L23 54L22 54L22 55L23 55L23 56L22 56L22 57L21 57L21 58L22 58L22 57L23 57L23 56L24 56L24 57L25 57L25 58L26 58L26 57L27 57L27 58L28 58L28 60L29 60L29 58L28 58L28 56L27 56L27 55L29 55L29 54L28 54L28 53L30 53L30 54L31 54L31 52L33 52L33 51L32 51L32 48L34 48L34 51L35 51L35 50L36 50L36 51L38 51L38 49L39 49L39 47L40 47L40 45L39 45L39 44L38 44L38 43L37 43L37 42L38 42L38 41L39 41L39 39L40 39L40 38L39 38L39 39L38 39L38 37L39 37L39 35L40 35L40 37L41 37L41 38L42 38L42 41L43 41L43 39L44 39L44 41L45 41L45 42L46 42L46 43L47 43L47 44L48 44L48 45L49 45L49 46L47 46L47 47L48 47L48 51L49 51L49 52L48 52L48 53L49 53L49 54L50 54L50 53L49 53L49 52L50 52L50 51L51 51L51 52L52 52L52 53L51 53L51 54L52 54L52 53L53 53L53 51L52 51L52 50L54 50L54 48L55 48L55 49L56 49L56 47L54 47L54 45L53 45L53 44L54 44L54 41L53 41L53 39L52 39L52 38L50 38L50 39L51 39L51 40L50 40L50 41L49 41L49 38L48 38L48 43L47 43L47 42L46 42L46 41L45 41L45 40L46 40L46 39L47 39L47 38L46 38L46 37L45 37L45 39L44 39L44 38L42 38L42 37L41 37L41 35L40 35L40 33L39 33L39 32L38 32L38 31L36 31L36 33L35 33L35 30L33 30L33 29L34 29L34 28L32 28L32 27L31 27L31 28L32 28L32 30L31 30L31 29L29 29L29 28L30 28L30 26L33 26L33 27L34 27L34 25L33 25L33 24L36 24L36 25L35 25L35 27L37 27L37 26L38 26L38 24L39 24L39 23L40 23L40 25L39 25L39 26L40 26L40 25L41 25L41 26L42 26L42 25L41 25L41 23L40 23L40 21L41 21L41 20L42 20L42 21L43 21L43 23L42 23L42 24L44 24L44 25L43 25L43 27L41 27L41 28L40 28L40 29L39 29L39 31L43 31L43 30L42 30L42 29L43 29L43 27L44 27L44 31L47 31L47 32L48 32L48 33L49 33L49 34L50 34L50 33L51 33L51 32L52 32L52 33L53 33L53 34L54 34L54 33L53 33L53 32L54 32L54 31L53 31L53 30L54 30L54 29L55 29L55 30L56 30L56 29L57 29L57 26L56 26L56 21L55 21L55 20L54 20L54 19L53 19L53 20L52 20L52 22L51 22L51 23L50 23L50 24L49 24L49 22L50 22L50 20L51 20L51 19L52 19L52 17L53 17L53 16L54 16L54 17L55 17L55 18L56 18L56 17L57 17L57 18L58 18L58 17L57 17L57 16L54 16L54 15L53 15L53 14L52 14L52 13L55 13L55 12L53 12L53 11L55 11L55 10L54 10L54 9L53 9L53 8ZM1 9L1 11L2 11L2 12L4 12L4 11L3 11L3 10L2 10L2 9ZM44 9L44 10L45 10L45 9ZM47 9L47 10L48 10L48 11L49 11L49 10L48 10L48 9ZM58 9L58 10L59 10L59 9ZM51 10L51 11L53 11L53 10ZM11 11L11 12L12 12L12 14L13 14L13 12L12 12L12 11ZM18 11L18 12L19 12L19 11ZM41 11L41 12L42 12L42 11ZM43 11L43 13L42 13L42 15L43 15L43 14L44 14L44 11ZM34 13L34 14L35 14L35 13ZM50 13L50 14L51 14L51 13ZM14 14L14 16L15 16L15 14ZM24 14L24 15L25 15L25 14ZM48 14L48 15L49 15L49 14ZM55 14L55 15L56 15L56 14ZM60 14L60 15L61 15L61 14ZM50 15L50 19L49 19L49 17L48 17L48 16L47 16L47 17L48 17L48 19L47 19L47 20L46 20L46 22L45 22L45 21L44 21L44 20L43 20L43 21L44 21L44 22L45 22L45 23L44 23L44 24L45 24L45 23L46 23L46 26L44 26L44 27L45 27L45 28L46 28L46 27L47 27L47 25L48 25L48 23L47 23L47 22L48 22L48 19L49 19L49 20L50 20L50 19L51 19L51 17L52 17L52 16L53 16L53 15L52 15L52 16L51 16L51 15ZM36 16L36 17L37 17L37 16ZM40 16L40 17L39 17L39 18L40 18L40 17L41 17L41 16ZM44 16L44 17L43 17L43 18L45 18L45 16ZM63 16L63 17L64 17L64 16ZM5 17L5 18L4 18L4 20L5 20L5 18L7 18L7 17ZM21 17L21 18L22 18L22 17ZM32 18L32 19L33 19L33 18ZM36 18L36 19L37 19L37 18ZM26 19L26 20L27 20L27 19ZM27 21L27 22L26 22L26 23L27 23L27 22L28 22L28 21ZM36 21L36 24L38 24L38 23L37 23L37 21ZM54 21L54 22L55 22L55 21ZM16 22L16 23L17 23L17 22ZM52 22L52 23L51 23L51 24L50 24L50 26L48 26L48 28L47 28L47 29L46 29L46 30L48 30L48 32L49 32L49 33L50 33L50 31L52 31L52 32L53 32L53 31L52 31L52 28L53 28L53 29L54 29L54 27L52 27L52 28L50 28L50 27L51 27L51 25L52 25L52 26L53 26L53 25L52 25L52 24L53 24L53 22ZM19 23L19 24L20 24L20 23ZM21 24L21 25L20 25L20 27L21 27L21 26L23 26L23 25L22 25L22 24ZM54 24L54 26L55 26L55 27L56 27L56 26L55 26L55 24ZM28 25L28 26L27 26L27 27L28 27L28 28L29 28L29 27L28 27L28 26L29 26L29 25ZM36 25L36 26L37 26L37 25ZM2 27L2 28L3 28L3 27ZM38 27L38 28L36 28L36 29L37 29L37 30L38 30L38 28L39 28L39 27ZM8 28L8 29L9 29L9 28ZM16 28L16 29L17 29L17 28ZM48 28L48 29L49 29L49 30L50 30L50 28ZM55 28L55 29L56 29L56 28ZM4 29L4 30L3 30L3 31L4 31L4 30L5 30L5 29ZM27 29L27 30L25 30L25 31L26 31L26 32L27 32L27 33L28 33L28 35L29 35L29 37L28 37L28 36L27 36L27 35L26 35L26 36L27 36L27 37L26 37L26 38L25 38L25 36L24 36L24 39L22 39L22 38L23 38L23 37L22 37L22 38L21 38L21 36L20 36L20 35L21 35L21 33L20 33L20 35L18 35L18 36L19 36L19 37L18 37L18 38L19 38L19 37L20 37L20 39L19 39L19 40L20 40L20 42L19 42L19 41L18 41L18 40L17 40L17 37L16 37L16 38L15 38L15 40L14 40L14 42L15 42L15 41L16 41L16 42L17 42L17 41L18 41L18 42L19 42L19 44L21 44L21 46L20 46L20 47L21 47L21 49L20 49L20 48L19 48L19 49L20 49L20 50L21 50L21 49L22 49L22 48L23 48L23 47L22 47L22 46L23 46L23 45L22 45L22 42L21 42L21 41L22 41L22 40L23 40L23 41L24 41L24 42L23 42L23 43L24 43L24 44L25 44L25 46L24 46L24 47L25 47L25 49L24 49L24 50L25 50L25 51L24 51L24 56L25 56L25 57L26 57L26 55L25 55L25 54L27 54L27 52L28 52L28 51L27 51L27 49L26 49L26 47L27 47L27 48L32 48L32 47L34 47L34 48L35 48L35 49L36 49L36 43L34 43L34 41L35 41L35 42L37 42L37 41L36 41L36 39L37 39L37 40L38 40L38 39L37 39L37 37L36 37L36 35L37 35L37 36L38 36L38 35L37 35L37 33L38 33L38 34L39 34L39 33L38 33L38 32L37 32L37 33L36 33L36 35L35 35L35 36L34 36L34 37L32 37L32 38L33 38L33 39L31 39L31 40L33 40L33 41L32 41L32 42L33 42L33 43L32 43L32 47L31 47L31 45L30 45L30 44L31 44L31 41L28 41L28 40L27 40L27 41L26 41L26 38L27 38L27 39L30 39L30 37L31 37L31 36L32 36L32 35L31 35L31 36L30 36L30 33L29 33L29 32L30 32L30 30L29 30L29 29ZM27 30L27 32L28 32L28 31L29 31L29 30ZM0 31L0 32L1 32L1 31ZM5 31L5 34L8 34L8 31ZM31 31L31 34L34 34L34 31ZM57 31L57 34L60 34L60 31ZM6 32L6 33L7 33L7 32ZM17 32L17 33L16 33L16 34L14 34L14 35L16 35L16 34L18 34L18 32ZM32 32L32 33L33 33L33 32ZM58 32L58 33L59 33L59 32ZM0 33L0 34L2 34L2 33ZM10 34L10 35L11 35L11 36L10 36L10 37L9 37L9 38L10 38L10 39L11 39L11 37L12 37L12 35L11 35L11 34ZM22 35L22 36L23 36L23 35ZM4 37L4 38L5 38L5 37ZM27 37L27 38L28 38L28 37ZM34 37L34 40L35 40L35 38L36 38L36 37ZM53 37L53 38L54 38L54 40L55 40L55 38L54 38L54 37ZM21 39L21 40L22 40L22 39ZM60 39L60 40L61 40L61 39ZM16 40L16 41L17 41L17 40ZM24 40L24 41L25 41L25 40ZM40 40L40 41L41 41L41 40ZM2 41L2 42L3 42L3 41ZM27 41L27 42L25 42L25 43L27 43L27 44L26 44L26 45L27 45L27 46L28 46L28 45L29 45L29 44L30 44L30 43L29 43L29 42L28 42L28 41ZM50 41L50 42L49 42L49 44L50 44L50 42L51 42L51 41ZM52 41L52 43L53 43L53 41ZM60 41L60 42L59 42L59 44L60 44L60 42L61 42L61 41ZM6 42L6 43L5 43L5 44L6 44L6 45L7 45L7 44L9 44L9 43L7 43L7 42ZM20 42L20 43L21 43L21 42ZM6 43L6 44L7 44L7 43ZM28 43L28 44L29 44L29 43ZM12 44L12 46L13 46L13 48L12 48L12 49L15 49L15 48L14 48L14 47L15 47L15 45L13 45L13 44ZM33 44L33 46L34 46L34 47L35 47L35 46L34 46L34 44ZM51 44L51 45L50 45L50 47L49 47L49 48L50 48L50 50L52 50L52 46L53 46L53 45L52 45L52 44ZM55 44L55 45L56 45L56 44ZM38 45L38 46L37 46L37 49L38 49L38 46L39 46L39 45ZM51 45L51 46L52 46L52 45ZM25 46L25 47L26 47L26 46ZM50 47L50 48L51 48L51 47ZM53 47L53 48L54 48L54 47ZM25 49L25 50L26 50L26 49ZM28 49L28 50L29 50L29 52L31 52L31 51L30 51L30 50L31 50L31 49ZM44 49L44 51L45 51L45 49ZM57 49L57 50L58 50L58 49ZM26 51L26 52L27 52L27 51ZM3 52L3 53L2 53L2 54L3 54L3 53L4 53L4 52ZM33 53L33 54L34 54L34 55L35 55L35 54L34 54L34 53ZM5 54L5 55L7 55L7 54ZM10 55L10 56L6 56L6 57L8 57L8 58L10 58L10 57L11 57L11 56L12 56L12 55ZM46 56L46 57L47 57L47 56ZM31 57L31 60L34 60L34 57ZM37 57L37 59L38 59L38 61L39 61L39 58L40 58L40 59L41 59L41 58L40 58L40 57L39 57L39 58L38 58L38 57ZM57 57L57 60L60 60L60 57ZM12 58L12 59L11 59L11 60L13 60L13 61L14 61L14 60L13 60L13 58ZM32 58L32 59L33 59L33 58ZM46 58L46 59L47 59L47 58ZM58 58L58 59L59 59L59 58ZM52 60L52 61L51 61L51 63L53 63L53 64L52 64L52 65L53 65L53 64L54 64L54 63L55 63L55 62L54 62L54 60ZM52 61L52 62L53 62L53 63L54 63L54 62L53 62L53 61ZM8 62L8 65L10 65L10 64L9 64L9 62ZM12 63L12 64L13 64L13 65L14 65L14 63ZM15 64L15 65L16 65L16 64ZM64 64L64 65L65 65L65 64ZM0 0L0 7L7 7L7 0ZM1 1L1 6L6 6L6 1ZM2 2L2 5L5 5L5 2ZM58 0L58 7L65 7L65 0ZM59 1L59 6L64 6L64 1ZM60 2L60 5L63 5L63 2ZM0 58L0 65L7 65L7 58ZM1 59L1 64L6 64L6 59ZM2 60L2 63L5 63L5 60Z" fill="#000000"/></g></g></svg>
