<?xml version="1.0" encoding="UTF-8"?>
<svg xmlns="http://www.w3.org/2000/svg" version="1.1" width="300" height="300" viewBox="0 0 300 300"><rect x="0" y="0" width="300" height="300" fill="#ffffff"/><g transform="scale(4.348)"><g transform="translate(0,0)"><path fill-rule="evenodd" d="M9 0L9 1L8 1L8 2L9 2L9 3L8 3L8 4L9 4L9 5L8 5L8 7L9 7L9 6L10 6L10 7L11 7L11 6L12 6L12 8L13 8L13 6L14 6L14 8L15 8L15 6L14 6L14 4L13 4L13 3L12 3L12 1L13 1L13 2L14 2L14 3L17 3L17 4L22 4L22 5L21 5L21 6L20 6L20 5L17 5L17 6L16 6L16 9L17 9L17 10L15 10L15 9L14 9L14 10L12 10L12 9L11 9L11 10L12 10L12 12L11 12L11 11L10 11L10 13L9 13L9 11L7 11L7 10L10 10L10 8L6 8L6 9L7 9L7 10L5 10L5 8L0 8L0 10L1 10L1 9L3 9L3 10L5 10L5 11L4 11L4 13L5 13L5 11L7 11L7 12L6 12L6 13L9 13L9 14L5 14L5 15L7 15L7 16L6 16L6 17L5 17L5 18L6 18L6 19L7 19L7 20L5 20L5 21L7 21L7 20L8 20L8 19L9 19L9 20L11 20L11 21L8 21L8 22L6 22L6 23L5 23L5 24L6 24L6 25L3 25L3 24L4 24L4 23L3 23L3 22L4 22L4 18L2 18L2 17L4 17L4 16L2 16L2 17L1 17L1 16L0 16L0 17L1 17L1 19L0 19L0 20L1 20L1 21L0 21L0 22L1 22L1 21L2 21L2 20L3 20L3 22L2 22L2 23L3 23L3 24L1 24L1 23L0 23L0 25L1 25L1 26L0 26L0 27L1 27L1 28L0 28L0 29L1 29L1 30L0 30L0 33L1 33L1 34L2 34L2 35L0 35L0 36L2 36L2 35L4 35L4 38L5 38L5 37L8 37L8 40L6 40L6 39L7 39L7 38L6 38L6 39L5 39L5 40L4 40L4 39L3 39L3 37L0 37L0 38L1 38L1 39L0 39L0 40L1 40L1 41L0 41L0 42L1 42L1 44L0 44L0 45L1 45L1 46L2 46L2 47L1 47L1 48L2 48L2 49L3 49L3 47L4 47L4 46L5 46L5 47L7 47L7 48L6 48L6 49L5 49L5 48L4 48L4 54L5 54L5 53L8 53L8 54L6 54L6 55L4 55L4 56L5 56L5 57L7 57L7 56L8 56L8 57L9 57L9 58L10 58L10 59L13 59L13 60L14 60L14 58L10 58L10 57L12 57L12 56L13 56L13 57L14 57L14 56L15 56L15 57L16 57L16 58L15 58L15 59L16 59L16 60L15 60L15 61L16 61L16 60L18 60L18 61L17 61L17 62L16 62L16 63L15 63L15 62L14 62L14 61L12 61L12 62L13 62L13 63L11 63L11 64L10 64L10 63L9 63L9 62L10 62L10 60L9 60L9 59L8 59L8 60L9 60L9 61L8 61L8 63L9 63L9 64L8 64L8 69L9 69L9 66L10 66L10 67L12 67L12 68L10 68L10 69L14 69L14 68L15 68L15 69L22 69L22 68L19 68L19 67L20 67L20 66L19 66L19 65L20 65L20 63L21 63L21 64L23 64L23 67L24 67L24 68L25 68L25 69L26 69L26 68L27 68L27 67L28 67L28 68L29 68L29 69L32 69L32 68L29 68L29 66L31 66L31 67L33 67L33 65L37 65L37 66L38 66L38 67L39 67L39 66L38 66L38 65L39 65L39 64L41 64L41 66L40 66L40 67L41 67L41 66L44 66L44 68L43 68L43 67L42 67L42 68L43 68L43 69L44 69L44 68L47 68L47 69L49 69L49 68L50 68L50 69L51 69L51 68L52 68L52 67L55 67L55 69L56 69L56 66L57 66L57 69L59 69L59 67L61 67L61 68L60 68L60 69L61 69L61 68L62 68L62 69L63 69L63 68L62 68L62 67L64 67L64 66L65 66L65 64L69 64L69 63L68 63L68 62L69 62L69 59L68 59L68 57L67 57L67 59L65 59L65 58L64 58L64 59L65 59L65 60L62 60L62 58L63 58L63 56L65 56L65 57L66 57L66 56L67 56L67 55L68 55L68 56L69 56L69 55L68 55L68 54L69 54L69 53L68 53L68 54L66 54L66 53L67 53L67 52L68 52L68 50L69 50L69 47L68 47L68 44L69 44L69 43L68 43L68 42L67 42L67 43L65 43L65 42L63 42L63 43L62 43L62 40L63 40L63 41L65 41L65 40L68 40L68 41L69 41L69 39L68 39L68 38L67 38L67 37L68 37L68 36L69 36L69 35L68 35L68 34L69 34L69 33L68 33L68 32L69 32L69 31L68 31L68 30L67 30L67 31L64 31L64 32L63 32L63 31L61 31L61 32L59 32L59 35L60 35L60 37L59 37L59 36L58 36L58 34L57 34L57 33L56 33L56 32L57 32L57 31L56 31L56 30L55 30L55 29L56 29L56 28L55 28L55 27L54 27L54 28L53 28L53 29L52 29L52 30L50 30L50 29L49 29L49 28L50 28L50 27L51 27L51 28L52 28L52 27L53 27L53 26L55 26L55 25L56 25L56 24L55 24L55 22L57 22L57 21L59 21L59 22L58 22L58 24L59 24L59 22L61 22L61 23L60 23L60 25L59 25L59 26L58 26L58 25L57 25L57 26L56 26L56 27L57 27L57 28L61 28L61 26L62 26L62 25L63 25L63 23L62 23L62 21L63 21L63 22L64 22L64 23L65 23L65 24L67 24L67 25L66 25L66 26L65 26L65 27L64 27L64 26L63 26L63 27L64 27L64 28L62 28L62 29L59 29L59 30L62 30L62 29L64 29L64 28L65 28L65 29L66 29L66 28L67 28L67 27L68 27L68 26L67 26L67 25L69 25L69 24L68 24L68 22L69 22L69 21L68 21L68 18L69 18L69 16L67 16L67 15L68 15L68 14L69 14L69 13L68 13L68 12L69 12L69 11L68 11L68 8L67 8L67 11L65 11L65 10L64 10L64 8L63 8L63 11L62 11L62 8L61 8L61 6L60 6L60 7L59 7L59 4L57 4L57 5L56 5L56 8L55 8L55 9L53 9L53 10L52 10L52 8L53 8L53 6L54 6L54 7L55 7L55 4L56 4L56 3L55 3L55 2L54 2L54 1L55 1L55 0L54 0L54 1L53 1L53 0L51 0L51 3L50 3L50 0L48 0L48 2L47 2L47 1L45 1L45 0L44 0L44 1L45 1L45 2L44 2L44 3L41 3L41 1L42 1L42 2L43 2L43 0L39 0L39 1L38 1L38 0L36 0L36 1L35 1L35 2L37 2L37 1L38 1L38 2L39 2L39 3L41 3L41 4L39 4L39 6L38 6L38 5L37 5L37 4L38 4L38 3L36 3L36 4L33 4L33 3L32 3L32 2L34 2L34 1L32 1L32 0L30 0L30 2L31 2L31 3L29 3L29 0L28 0L28 1L27 1L27 2L25 2L25 0L23 0L23 2L25 2L25 3L24 3L24 4L22 4L22 3L17 3L17 2L20 2L20 1L19 1L19 0L17 0L17 1L16 1L16 2L15 2L15 1L14 1L14 0ZM56 0L56 1L57 1L57 3L59 3L59 2L58 2L58 1L61 1L61 0L58 0L58 1L57 1L57 0ZM10 1L10 3L11 3L11 4L10 4L10 6L11 6L11 5L12 5L12 6L13 6L13 4L12 4L12 3L11 3L11 1ZM31 1L31 2L32 2L32 1ZM27 2L27 3L26 3L26 6L25 6L25 5L22 5L22 6L21 6L21 7L20 7L20 6L19 6L19 8L20 8L20 10L19 10L19 9L18 9L18 6L17 6L17 9L18 9L18 10L19 10L19 11L20 11L20 14L18 14L18 15L15 15L15 14L17 14L17 12L18 12L18 11L17 11L17 12L16 12L16 11L13 11L13 13L11 13L11 16L10 16L10 14L9 14L9 16L7 16L7 17L6 17L6 18L8 18L8 17L9 17L9 18L10 18L10 17L11 17L11 16L12 16L12 15L14 15L14 16L13 16L13 18L11 18L11 20L12 20L12 23L13 23L13 19L15 19L15 20L14 20L14 24L15 24L15 22L16 22L16 21L17 21L17 20L18 20L18 19L20 19L20 18L18 18L18 17L21 17L21 18L22 18L22 19L21 19L21 20L20 20L20 22L19 22L19 21L18 21L18 22L17 22L17 23L18 23L18 22L19 22L19 24L20 24L20 22L21 22L21 23L22 23L22 22L23 22L23 24L24 24L24 23L25 23L25 24L26 24L26 26L25 26L25 28L24 28L24 27L23 27L23 28L20 28L20 31L19 31L19 32L20 32L20 33L19 33L19 34L20 34L20 35L18 35L18 34L17 34L17 33L18 33L18 32L17 32L17 31L18 31L18 30L17 30L17 28L16 28L16 27L15 27L15 28L14 28L14 29L13 29L13 30L12 30L12 28L13 28L13 27L14 27L14 25L10 25L10 24L8 24L8 25L6 25L6 26L5 26L5 27L6 27L6 28L10 28L10 29L9 29L9 30L10 30L10 29L11 29L11 30L12 30L12 31L13 31L13 30L14 30L14 31L15 31L15 32L12 32L12 33L13 33L13 36L12 36L12 34L11 34L11 36L10 36L10 34L9 34L9 39L11 39L11 38L10 38L10 37L11 37L11 36L12 36L12 37L13 37L13 36L15 36L15 37L14 37L14 38L12 38L12 40L9 40L9 41L10 41L10 42L11 42L11 44L12 44L12 45L9 45L9 42L8 42L8 44L7 44L7 43L5 43L5 42L4 42L4 41L3 41L3 42L4 42L4 43L2 43L2 44L1 44L1 45L2 45L2 46L4 46L4 45L2 45L2 44L5 44L5 45L6 45L6 46L8 46L8 48L9 48L9 49L11 49L11 50L12 50L12 52L11 52L11 51L10 51L10 52L9 52L9 50L7 50L7 49L6 49L6 50L7 50L7 51L6 51L6 52L8 52L8 53L10 53L10 54L8 54L8 55L10 55L10 54L11 54L11 53L13 53L13 52L14 52L14 51L13 51L13 49L14 49L14 50L16 50L16 51L15 51L15 52L17 52L17 53L14 53L14 54L12 54L12 55L13 55L13 56L14 56L14 55L15 55L15 56L16 56L16 57L17 57L17 58L20 58L20 59L18 59L18 60L20 60L20 59L21 59L21 57L22 57L22 59L23 59L23 60L21 60L21 61L18 61L18 62L17 62L17 63L16 63L16 65L15 65L15 64L14 64L14 63L13 63L13 66L12 66L12 65L10 65L10 64L9 64L9 65L10 65L10 66L12 66L12 67L13 67L13 68L14 68L14 67L13 67L13 66L14 66L14 65L15 65L15 67L16 67L16 68L18 68L18 66L17 66L17 65L18 65L18 64L17 64L17 63L18 63L18 62L21 62L21 61L22 61L22 63L23 63L23 62L24 62L24 61L25 61L25 62L27 62L27 61L28 61L28 62L29 62L29 63L28 63L28 65L25 65L25 67L27 67L27 66L28 66L28 65L29 65L29 63L30 63L30 62L29 62L29 61L28 61L28 60L30 60L30 59L31 59L31 63L32 63L32 59L33 59L33 58L35 58L35 59L36 59L36 57L35 57L35 55L36 55L36 54L37 54L37 55L38 55L38 56L37 56L37 57L38 57L38 58L39 58L39 57L41 57L41 56L39 56L39 55L41 55L41 54L42 54L42 55L43 55L43 56L42 56L42 57L43 57L43 59L44 59L44 62L43 62L43 63L42 63L42 62L41 62L41 60L42 60L42 61L43 61L43 60L42 60L42 58L41 58L41 59L40 59L40 62L39 62L39 61L38 61L38 60L39 60L39 59L37 59L37 61L38 61L38 62L37 62L37 65L38 65L38 62L39 62L39 63L41 63L41 64L44 64L44 66L45 66L45 67L46 67L46 66L47 66L47 64L51 64L51 65L50 65L50 66L49 66L49 65L48 65L48 66L49 66L49 67L51 67L51 66L53 66L53 64L51 64L51 61L53 61L53 59L56 59L56 61L58 61L58 62L55 62L55 63L58 63L58 65L57 65L57 64L55 64L55 66L56 66L56 65L57 65L57 66L58 66L58 67L59 67L59 66L60 66L60 65L59 65L59 64L60 64L60 62L59 62L59 61L60 61L60 60L61 60L61 58L62 58L62 56L61 56L61 54L62 54L62 55L65 55L65 56L66 56L66 55L65 55L65 51L66 51L66 50L67 50L67 49L68 49L68 48L65 48L65 47L66 47L66 45L63 45L63 46L62 46L62 43L58 43L58 42L60 42L60 40L61 40L61 39L60 39L60 38L59 38L59 37L57 37L57 36L56 36L56 35L57 35L57 34L56 34L56 33L55 33L55 34L56 34L56 35L55 35L55 36L54 36L54 37L55 37L55 36L56 36L56 38L58 38L58 40L57 40L57 39L56 39L56 41L55 41L55 39L53 39L53 33L54 33L54 32L55 32L55 30L52 30L52 31L51 31L51 33L50 33L50 30L49 30L49 29L48 29L48 30L49 30L49 33L48 33L48 35L49 35L49 36L50 36L50 38L49 38L49 39L47 39L47 40L45 40L45 39L43 39L43 38L42 38L42 37L43 37L43 36L44 36L44 37L45 37L45 38L47 38L47 37L45 37L45 36L47 36L47 33L45 33L45 32L46 32L46 31L47 31L47 29L45 29L45 27L44 27L44 29L43 29L43 30L42 30L42 27L39 27L39 26L41 26L41 25L42 25L42 24L41 24L41 23L42 23L42 22L41 22L41 20L42 20L42 21L43 21L43 20L44 20L44 22L43 22L43 24L44 24L44 25L43 25L43 26L46 26L46 27L47 27L47 28L49 28L49 27L48 27L48 26L49 26L49 25L50 25L50 26L51 26L51 25L52 25L52 26L53 26L53 25L55 25L55 24L54 24L54 23L53 23L53 22L51 22L51 21L53 21L53 20L56 20L56 21L57 21L57 20L58 20L58 19L59 19L59 21L60 21L60 20L63 20L63 21L64 21L64 22L66 22L66 23L67 23L67 22L68 22L68 21L67 21L67 20L65 20L65 19L66 19L66 18L63 18L63 17L66 17L66 16L65 16L65 14L68 14L68 13L66 13L66 12L64 12L64 11L63 11L63 12L62 12L62 13L61 13L61 10L60 10L60 9L61 9L61 8L60 8L60 9L59 9L59 7L58 7L58 6L57 6L57 7L58 7L58 8L56 8L56 9L55 9L55 10L53 10L53 11L57 11L57 10L59 10L59 12L58 12L58 13L57 13L57 12L51 12L51 13L50 13L50 14L47 14L47 13L45 13L45 12L49 12L49 10L51 10L51 11L52 11L52 10L51 10L51 8L52 8L52 5L53 5L53 4L54 4L54 2L52 2L52 3L51 3L51 4L47 4L47 2L45 2L45 3L44 3L44 5L40 5L40 6L39 6L39 7L38 7L38 6L37 6L37 10L36 10L36 9L35 9L35 10L33 10L33 9L32 9L32 11L31 11L31 12L32 12L32 13L31 13L31 14L33 14L33 15L31 15L31 17L32 17L32 16L33 16L33 18L32 18L32 20L35 20L35 21L36 21L36 20L35 20L35 19L33 19L33 18L36 18L36 17L35 17L35 16L36 16L36 15L35 15L35 13L34 13L34 12L36 12L36 13L37 13L37 12L38 12L38 15L37 15L37 17L38 17L38 19L39 19L39 20L40 20L40 21L39 21L39 22L37 22L37 24L38 24L38 26L37 26L37 27L38 27L38 28L40 28L40 29L37 29L37 30L40 30L40 31L43 31L43 32L39 32L39 33L38 33L38 31L35 31L35 32L37 32L37 33L38 33L38 34L37 34L37 36L38 36L38 37L36 37L36 39L34 39L34 40L33 40L33 41L34 41L34 42L32 42L32 40L31 40L31 39L32 39L32 33L31 33L31 34L30 34L30 33L29 33L29 32L28 32L28 33L25 33L25 32L26 32L26 31L25 31L25 30L23 30L23 29L25 29L25 28L26 28L26 30L28 30L28 31L29 31L29 29L30 29L30 30L31 30L31 31L30 31L30 32L31 32L31 31L32 31L32 32L34 32L34 31L33 31L33 30L34 30L34 29L36 29L36 28L35 28L35 27L36 27L36 26L35 26L35 25L33 25L33 24L35 24L35 23L32 23L32 25L31 25L31 27L30 27L30 26L29 26L29 25L30 25L30 24L28 24L28 25L27 25L27 23L30 23L30 22L31 22L31 21L30 21L30 22L29 22L29 21L28 21L28 20L29 20L29 16L27 16L27 14L30 14L30 13L27 13L27 10L30 10L30 9L31 9L31 8L32 8L32 5L30 5L30 4L29 4L29 3L28 3L28 2ZM27 3L27 4L28 4L28 3ZM31 3L31 4L32 4L32 3ZM45 3L45 4L46 4L46 3ZM60 3L60 5L61 5L61 3ZM15 4L15 5L16 5L16 4ZM51 4L51 5L47 5L47 6L46 6L46 5L44 5L44 7L45 7L45 9L44 9L44 8L43 8L43 9L41 9L41 12L40 12L40 10L37 10L37 11L39 11L39 12L40 12L40 13L39 13L39 14L40 14L40 15L38 15L38 16L40 16L40 15L42 15L42 14L43 14L43 13L44 13L44 14L45 14L45 13L44 13L44 12L45 12L45 11L44 11L44 12L43 12L43 13L42 13L42 14L41 14L41 12L42 12L42 10L45 10L45 9L46 9L46 7L47 7L47 10L49 10L49 6L50 6L50 7L51 7L51 5L52 5L52 4ZM27 5L27 6L26 6L26 7L27 7L27 8L29 8L29 9L30 9L30 8L29 8L29 6L30 6L30 7L31 7L31 6L30 6L30 5ZM33 5L33 8L36 8L36 5ZM22 6L22 7L23 7L23 8L24 8L24 9L23 9L23 10L24 10L24 9L26 9L26 10L27 10L27 9L26 9L26 8L24 8L24 7L25 7L25 6L24 6L24 7L23 7L23 6ZM27 6L27 7L28 7L28 6ZM34 6L34 7L35 7L35 6ZM40 6L40 8L38 8L38 9L40 9L40 8L41 8L41 6ZM42 6L42 7L43 7L43 6ZM45 6L45 7L46 7L46 6ZM47 6L47 7L48 7L48 6ZM21 8L21 9L22 9L22 8ZM65 8L65 9L66 9L66 8ZM56 9L56 10L57 10L57 9ZM35 10L35 11L36 11L36 10ZM0 11L0 12L1 12L1 13L2 13L2 12L1 12L1 11ZM21 11L21 12L23 12L23 16L24 16L24 15L25 15L25 16L26 16L26 15L25 15L25 14L27 14L27 13L25 13L25 12L26 12L26 11L25 11L25 12L24 12L24 11ZM29 11L29 12L30 12L30 11ZM33 11L33 12L34 12L34 11ZM67 11L67 12L68 12L68 11ZM63 12L63 13L64 13L64 12ZM14 13L14 14L15 14L15 13ZM21 13L21 15L22 15L22 13ZM33 13L33 14L34 14L34 13ZM53 13L53 14L54 14L54 16L55 16L55 17L52 17L52 18L50 18L50 17L51 17L51 16L50 16L50 15L49 15L49 16L48 16L48 15L44 15L44 16L42 16L42 17L41 17L41 18L39 18L39 19L40 19L40 20L41 20L41 19L42 19L42 20L43 20L43 17L44 17L44 16L45 16L45 17L46 17L46 16L48 16L48 17L47 17L47 18L44 18L44 19L47 19L47 18L48 18L48 20L46 20L46 21L47 21L47 24L46 24L46 22L44 22L44 23L45 23L45 24L46 24L46 25L47 25L47 26L48 26L48 25L49 25L49 24L48 24L48 23L49 23L49 22L50 22L50 23L51 23L51 24L52 24L52 23L51 23L51 22L50 22L50 21L49 21L49 19L51 19L51 20L53 20L53 19L54 19L54 18L55 18L55 19L56 19L56 18L57 18L57 17L56 17L56 16L58 16L58 17L59 17L59 18L62 18L62 19L63 19L63 20L64 20L64 19L63 19L63 18L62 18L62 16L64 16L64 14L61 14L61 13L59 13L59 14L60 14L60 15L62 15L62 16L61 16L61 17L59 17L59 16L58 16L58 15L56 15L56 16L55 16L55 14L56 14L56 13ZM2 14L2 15L3 15L3 14ZM19 15L19 16L20 16L20 15ZM33 15L33 16L34 16L34 15ZM52 15L52 16L53 16L53 15ZM14 16L14 18L15 18L15 16ZM16 16L16 19L18 19L18 18L17 18L17 17L18 17L18 16ZM21 16L21 17L22 17L22 18L24 18L24 19L22 19L22 20L24 20L24 21L23 21L23 22L25 22L25 23L26 23L26 22L25 22L25 21L26 21L26 20L25 20L25 18L26 18L26 19L27 19L27 20L28 20L28 19L27 19L27 18L28 18L28 17L27 17L27 18L26 18L26 17L22 17L22 16ZM49 16L49 17L48 17L48 18L49 18L49 17L50 17L50 16ZM30 18L30 19L31 19L31 18ZM52 18L52 19L53 19L53 18ZM15 20L15 21L16 21L16 20ZM37 20L37 21L38 21L38 20ZM21 21L21 22L22 22L22 21ZM32 21L32 22L33 22L33 21ZM66 21L66 22L67 22L67 21ZM8 22L8 23L11 23L11 22ZM39 22L39 23L40 23L40 22ZM6 23L6 24L7 24L7 23ZM61 23L61 25L62 25L62 23ZM16 24L16 25L15 25L15 26L16 26L16 25L17 25L17 24ZM21 24L21 25L19 25L19 26L17 26L17 27L20 27L20 26L21 26L21 25L22 25L22 26L24 26L24 25L22 25L22 24ZM47 24L47 25L48 25L48 24ZM9 25L9 26L6 26L6 27L10 27L10 25ZM32 25L32 26L33 26L33 27L31 27L31 28L30 28L30 27L28 27L28 26L27 26L27 27L28 27L28 29L29 29L29 28L30 28L30 29L31 29L31 30L33 30L33 27L34 27L34 26L33 26L33 25ZM12 26L12 27L13 27L13 26ZM57 26L57 27L58 27L58 26ZM3 27L3 28L2 28L2 29L3 29L3 31L4 31L4 32L2 32L2 30L1 30L1 32L2 32L2 33L3 33L3 34L4 34L4 32L7 32L7 31L6 31L6 30L7 30L7 29L5 29L5 28L4 28L4 27ZM15 28L15 29L14 29L14 30L15 30L15 31L16 31L16 30L15 30L15 29L16 29L16 28ZM31 28L31 29L32 29L32 28ZM54 28L54 29L55 29L55 28ZM68 28L68 29L69 29L69 28ZM21 30L21 31L22 31L22 30ZM43 30L43 31L44 31L44 32L43 32L43 33L40 33L40 36L39 36L39 37L40 37L40 38L41 38L41 39L38 39L38 38L37 38L37 39L36 39L36 40L35 40L35 42L34 42L34 43L35 43L35 44L37 44L37 45L38 45L38 44L37 44L37 43L38 43L38 41L39 41L39 40L41 40L41 41L40 41L40 43L39 43L39 44L40 44L40 45L39 45L39 46L36 46L36 47L35 47L35 46L34 46L34 45L33 45L33 43L32 43L32 45L33 45L33 46L32 46L32 47L33 47L33 48L32 48L32 49L31 49L31 48L30 48L30 47L31 47L31 46L30 46L30 45L31 45L31 43L29 43L29 42L27 42L27 41L30 41L30 42L31 42L31 41L30 41L30 40L28 40L28 39L30 39L30 38L31 38L31 35L29 35L29 33L28 33L28 34L25 34L25 33L22 33L22 35L21 35L21 36L20 36L20 37L19 37L19 36L17 36L17 34L15 34L15 33L17 33L17 32L15 32L15 33L14 33L14 34L15 34L15 36L17 36L17 39L16 39L16 38L15 38L15 40L14 40L14 41L13 41L13 40L12 40L12 41L11 41L11 42L12 42L12 41L13 41L13 43L14 43L14 42L16 42L16 41L15 41L15 40L17 40L17 41L19 41L19 42L17 42L17 43L18 43L18 44L17 44L17 45L19 45L19 47L20 47L20 48L22 48L22 46L23 46L23 47L24 47L24 48L23 48L23 51L24 51L24 52L23 52L23 53L24 53L24 54L22 54L22 55L21 55L21 56L20 56L20 55L19 55L19 56L17 56L17 57L21 57L21 56L22 56L22 57L24 57L24 58L23 58L23 59L24 59L24 60L23 60L23 61L24 61L24 60L25 60L25 61L26 61L26 59L27 59L27 60L28 60L28 59L27 59L27 57L25 57L25 56L30 56L30 57L29 57L29 58L31 58L31 57L32 57L32 58L33 58L33 56L34 56L34 55L33 55L33 56L31 56L31 54L30 54L30 55L27 55L27 54L28 54L28 53L31 53L31 51L29 51L29 52L28 52L28 51L27 51L27 50L28 50L28 49L27 49L27 50L26 50L26 49L25 49L25 48L26 48L26 47L24 47L24 46L25 46L25 45L26 45L26 46L27 46L27 48L28 48L28 47L29 47L29 48L30 48L30 49L29 49L29 50L30 50L30 49L31 49L31 50L32 50L32 54L33 54L33 53L34 53L34 52L33 52L33 51L34 51L34 49L33 49L33 48L36 48L36 47L37 47L37 50L36 50L36 49L35 49L35 50L36 50L36 51L35 51L35 54L36 54L36 53L37 53L37 54L40 54L40 53L39 53L39 52L40 52L40 51L41 51L41 50L42 50L42 51L44 51L44 52L42 52L42 54L43 54L43 53L44 53L44 56L43 56L43 57L44 57L44 56L46 56L46 57L49 57L49 58L50 58L50 56L52 56L52 55L53 55L53 56L55 56L55 57L53 57L53 58L57 58L57 57L56 57L56 55L53 55L53 54L55 54L55 53L56 53L56 54L57 54L57 53L58 53L58 52L59 52L59 51L60 51L60 49L61 49L61 50L62 50L62 49L64 49L64 46L63 46L63 48L62 48L62 49L61 49L61 48L60 48L60 47L62 47L62 46L61 46L61 44L60 44L60 45L59 45L59 44L58 44L58 45L59 45L59 48L58 48L58 49L59 49L59 50L58 50L58 52L57 52L57 51L56 51L56 52L55 52L55 50L56 50L56 48L55 48L55 45L56 45L56 47L57 47L57 45L56 45L56 42L55 42L55 41L51 41L51 42L54 42L54 44L53 44L53 43L50 43L50 44L48 44L48 43L49 43L49 42L50 42L50 40L53 40L53 39L51 39L51 38L52 38L52 37L51 37L51 38L50 38L50 40L47 40L47 42L46 42L46 43L47 43L47 44L45 44L45 42L44 42L44 40L41 40L41 39L42 39L42 38L41 38L41 37L42 37L42 36L43 36L43 35L41 35L41 34L43 34L43 33L44 33L44 36L45 36L45 33L44 33L44 32L45 32L45 30ZM8 31L8 32L9 32L9 31ZM10 31L10 33L11 33L11 31ZM23 31L23 32L24 32L24 31ZM52 31L52 32L53 32L53 31ZM67 31L67 32L66 32L66 33L65 33L65 34L66 34L66 35L67 35L67 36L66 36L66 37L67 37L67 36L68 36L68 35L67 35L67 34L68 34L68 33L67 33L67 32L68 32L68 31ZM5 33L5 36L8 36L8 33ZM33 33L33 36L36 36L36 33ZM49 33L49 35L50 35L50 33ZM61 33L61 36L64 36L64 33ZM6 34L6 35L7 35L7 34ZM23 34L23 36L21 36L21 37L20 37L20 38L19 38L19 39L17 39L17 40L19 40L19 41L20 41L20 42L19 42L19 44L21 44L21 45L20 45L20 47L21 47L21 45L24 45L24 44L25 44L25 43L26 43L26 45L27 45L27 46L29 46L29 45L28 45L28 44L27 44L27 43L26 43L26 41L27 41L27 38L29 38L29 36L28 36L28 35L27 35L27 36L26 36L26 35L24 35L24 34ZM34 34L34 35L35 35L35 34ZM38 34L38 35L39 35L39 34ZM62 34L62 35L63 35L63 34ZM51 35L51 36L52 36L52 35ZM24 36L24 37L23 37L23 40L24 40L24 41L23 41L23 42L24 42L24 41L26 41L26 40L25 40L25 39L26 39L26 36ZM40 36L40 37L41 37L41 36ZM34 37L34 38L35 38L35 37ZM62 37L62 39L66 39L66 38L65 38L65 37L64 37L64 38L63 38L63 37ZM20 38L20 40L21 40L21 41L22 41L22 40L21 40L21 39L22 39L22 38ZM59 39L59 40L60 40L60 39ZM5 40L5 41L6 41L6 42L7 42L7 41L6 41L6 40ZM37 40L37 41L38 41L38 40ZM48 41L48 42L49 42L49 41ZM20 42L20 43L21 43L21 44L22 44L22 43L21 43L21 42ZM35 42L35 43L36 43L36 42ZM43 42L43 44L44 44L44 45L45 45L45 46L42 46L42 45L41 45L41 46L42 46L42 48L41 48L41 47L40 47L40 46L39 46L39 47L40 47L40 48L38 48L38 51L39 51L39 50L41 50L41 49L42 49L42 48L43 48L43 47L44 47L44 49L43 49L43 50L44 50L44 49L45 49L45 52L44 52L44 53L45 53L45 54L46 54L46 56L48 56L48 55L52 55L52 53L55 53L55 52L54 52L54 51L53 51L53 47L54 47L54 46L53 46L53 44L51 44L51 45L50 45L50 46L51 46L51 45L52 45L52 46L53 46L53 47L50 47L50 48L49 48L49 50L48 50L48 49L47 49L47 48L48 48L48 47L49 47L49 46L47 46L47 45L45 45L45 44L44 44L44 42ZM15 43L15 45L16 45L16 43ZM23 43L23 44L24 44L24 43ZM40 43L40 44L41 44L41 43ZM64 43L64 44L65 44L65 43ZM67 43L67 44L68 44L68 43ZM6 44L6 45L7 45L7 44ZM13 44L13 45L12 45L12 46L11 46L11 47L10 47L10 46L9 46L9 48L11 48L11 47L13 47L13 48L14 48L14 47L15 47L15 46L14 46L14 44ZM17 46L17 47L16 47L16 48L15 48L15 49L16 49L16 48L17 48L17 49L18 49L18 50L17 50L17 51L19 51L19 52L18 52L18 53L17 53L17 54L18 54L18 53L19 53L19 54L20 54L20 52L22 52L22 51L21 51L21 50L22 50L22 49L18 49L18 48L17 48L17 47L18 47L18 46ZM45 46L45 49L46 49L46 47L47 47L47 46ZM50 48L50 49L51 49L51 48ZM54 48L54 49L55 49L55 48ZM59 48L59 49L60 49L60 48ZM32 49L32 50L33 50L33 49ZM0 50L0 51L1 51L1 52L0 52L0 54L1 54L1 53L2 53L2 55L1 55L1 56L0 56L0 61L1 61L1 58L2 58L2 59L3 59L3 58L4 58L4 59L7 59L7 58L4 58L4 57L3 57L3 56L2 56L2 55L3 55L3 53L2 53L2 51L3 51L3 50ZM19 50L19 51L20 51L20 50ZM24 50L24 51L25 51L25 52L24 52L24 53L25 53L25 55L24 55L24 56L25 56L25 55L26 55L26 53L28 53L28 52L27 52L27 51L26 51L26 50ZM47 50L47 51L46 51L46 52L45 52L45 53L48 53L48 54L47 54L47 55L48 55L48 54L50 54L50 53L51 53L51 51L52 51L52 50L49 50L49 52L47 52L47 51L48 51L48 50ZM61 51L61 53L62 53L62 52L63 52L63 53L64 53L64 52L63 52L63 51ZM25 52L25 53L26 53L26 52ZM37 52L37 53L38 53L38 52ZM49 52L49 53L50 53L50 52ZM56 52L56 53L57 53L57 52ZM15 54L15 55L16 55L16 54ZM58 54L58 55L59 55L59 56L58 56L58 57L59 57L59 58L60 58L60 57L61 57L61 56L60 56L60 54ZM6 55L6 56L7 56L7 55ZM9 56L9 57L10 57L10 56ZM38 56L38 57L39 57L39 56ZM59 56L59 57L60 57L60 56ZM45 58L45 61L46 61L46 60L47 60L47 62L44 62L44 64L45 64L45 66L46 66L46 64L45 64L45 63L47 63L47 62L50 62L50 60L51 60L51 59L50 59L50 60L47 60L47 59L48 59L48 58L47 58L47 59L46 59L46 58ZM3 60L3 61L5 61L5 60ZM6 60L6 61L7 61L7 60ZM54 60L54 61L55 61L55 60ZM33 61L33 64L36 64L36 61ZM61 61L61 64L64 64L64 61ZM67 61L67 62L68 62L68 61ZM34 62L34 63L35 63L35 62ZM58 62L58 63L59 63L59 62ZM62 62L62 63L63 63L63 62ZM65 62L65 63L66 63L66 62ZM24 63L24 64L26 64L26 63ZM31 65L31 66L32 66L32 65ZM63 65L63 66L64 66L64 65ZM34 66L34 67L35 67L35 68L34 68L34 69L35 69L35 68L36 68L36 69L38 69L38 68L37 68L37 67L35 67L35 66ZM61 66L61 67L62 67L62 66ZM47 67L47 68L48 68L48 67ZM65 67L65 68L67 68L67 69L68 69L68 68L67 68L67 67ZM53 68L53 69L54 69L54 68ZM0 0L0 7L7 7L7 0ZM1 1L1 6L6 6L6 1ZM2 2L2 5L5 5L5 2ZM62 0L62 7L69 7L69 0ZM63 1L63 6L68 6L68 1ZM64 2L64 5L67 5L67 2ZM0 62L0 69L7 69L7 62ZM1 63L1 68L6 68L6 63ZM2 64L2 67L5 67L5 64Z" fill="#000000"/></g></g></svg>
