<?xml version="1.0" encoding="UTF-8"?>
<svg xmlns="http://www.w3.org/2000/svg" version="1.1" width="300" height="300" viewBox="0 0 300 300"><rect x="0" y="0" width="300" height="300" fill="#ffffff"/><g transform="scale(4.348)"><g transform="translate(0,0)"><path fill-rule="evenodd" d="M9 0L9 1L8 1L8 2L9 2L9 3L8 3L8 4L9 4L9 3L10 3L10 2L13 2L13 3L14 3L14 2L13 2L13 1L14 1L14 0L12 0L12 1L10 1L10 0ZM15 0L15 3L16 3L16 4L14 4L14 5L13 5L13 4L12 4L12 3L11 3L11 4L12 4L12 7L13 7L13 8L12 8L12 10L10 10L10 9L11 9L11 8L10 8L10 9L9 9L9 8L6 8L6 9L7 9L7 10L5 10L5 8L0 8L0 10L1 10L1 9L2 9L2 11L0 11L0 12L2 12L2 11L4 11L4 13L3 13L3 14L0 14L0 15L2 15L2 17L3 17L3 16L4 16L4 18L1 18L1 16L0 16L0 18L1 18L1 19L2 19L2 20L0 20L0 21L2 21L2 23L3 23L3 22L5 22L5 23L4 23L4 24L6 24L6 25L5 25L5 28L4 28L4 25L3 25L3 27L0 27L0 28L2 28L2 29L1 29L1 32L2 32L2 33L0 33L0 34L2 34L2 35L1 35L1 36L0 36L0 39L2 39L2 40L0 40L0 42L1 42L1 43L0 43L0 44L1 44L1 45L0 45L0 50L1 50L1 51L2 51L2 53L5 53L5 54L6 54L6 55L8 55L8 54L10 54L10 53L13 53L13 51L11 51L11 50L8 50L8 49L7 49L7 48L6 48L6 47L7 47L7 46L8 46L8 48L9 48L9 49L12 49L12 50L13 50L13 49L12 49L12 45L13 45L13 46L14 46L14 45L13 45L13 44L14 44L14 43L13 43L13 42L12 42L12 44L11 44L11 43L10 43L10 46L8 46L8 45L7 45L7 44L5 44L5 43L7 43L7 42L6 42L6 41L8 41L8 42L9 42L9 41L8 41L8 40L9 40L9 39L10 39L10 38L11 38L11 40L10 40L10 42L11 42L11 41L12 41L12 40L13 40L13 41L14 41L14 42L16 42L16 41L14 41L14 40L13 40L13 39L12 39L12 38L13 38L13 37L14 37L14 36L15 36L15 35L16 35L16 36L17 36L17 38L18 38L18 39L19 39L19 40L17 40L17 47L16 47L16 48L15 48L15 47L13 47L13 48L15 48L15 49L16 49L16 48L17 48L17 49L18 49L18 50L20 50L20 51L19 51L19 52L18 52L18 53L17 53L17 50L15 50L15 52L14 52L14 55L12 55L12 54L11 54L11 55L9 55L9 56L5 56L5 55L4 55L4 54L3 54L3 55L4 55L4 56L3 56L3 57L4 57L4 59L7 59L7 60L6 60L6 61L8 61L8 63L9 63L9 62L10 62L10 63L12 63L12 61L13 61L13 62L14 62L14 63L13 63L13 64L12 64L12 66L10 66L10 68L11 68L11 69L12 69L12 67L14 67L14 66L13 66L13 65L14 65L14 64L15 64L15 65L17 65L17 66L16 66L16 67L15 67L15 68L13 68L13 69L19 69L19 68L18 68L18 67L20 67L20 66L19 66L19 65L20 65L20 64L19 64L19 63L21 63L21 64L22 64L22 63L21 63L21 62L20 62L20 61L22 61L22 62L25 62L25 63L24 63L24 64L23 64L23 66L21 66L21 68L20 68L20 69L21 69L21 68L23 68L23 67L24 67L24 68L25 68L25 69L26 69L26 66L25 66L25 65L28 65L28 66L27 66L27 67L28 67L28 68L27 68L27 69L28 69L28 68L29 68L29 69L32 69L32 68L30 68L30 67L34 67L34 66L33 66L33 65L36 65L36 67L35 67L35 68L36 68L36 69L38 69L38 68L37 68L37 67L39 67L39 66L37 66L37 65L38 65L38 61L37 61L37 59L38 59L38 60L39 60L39 62L40 62L40 59L41 59L41 58L42 58L42 60L41 60L41 62L42 62L42 63L44 63L44 64L41 64L41 63L39 63L39 64L41 64L41 66L40 66L40 67L41 67L41 69L42 69L42 68L43 68L43 69L44 69L44 68L47 68L47 69L49 69L49 66L50 66L50 69L51 69L51 68L52 68L52 67L55 67L55 68L54 68L54 69L55 69L55 68L57 68L57 67L59 67L59 69L60 69L60 68L61 68L61 69L63 69L63 68L64 68L64 69L65 69L65 68L66 68L66 69L68 69L68 68L67 68L67 67L66 67L66 66L67 66L67 65L66 65L66 66L65 66L65 64L67 64L67 63L68 63L68 65L69 65L69 63L68 63L68 62L69 62L69 61L68 61L68 60L67 60L67 59L68 59L68 58L69 58L69 55L68 55L68 54L69 54L69 53L68 53L68 54L67 54L67 53L66 53L66 52L68 52L68 50L69 50L69 47L68 47L68 46L69 46L69 45L68 45L68 46L67 46L67 43L68 43L68 44L69 44L69 43L68 43L68 42L65 42L65 45L66 45L66 47L65 47L65 46L63 46L63 45L62 45L62 42L63 42L63 41L62 41L62 42L61 42L61 43L59 43L59 42L60 42L60 41L61 41L61 40L60 40L60 39L62 39L62 38L64 38L64 37L65 37L65 36L66 36L66 38L65 38L65 39L63 39L63 40L64 40L64 41L66 41L66 40L67 40L67 41L69 41L69 40L67 40L67 39L68 39L68 36L69 36L69 35L68 35L68 34L69 34L69 32L67 32L67 31L68 31L68 30L69 30L69 29L68 29L68 28L69 28L69 27L68 27L68 26L69 26L69 24L68 24L68 23L67 23L67 22L69 22L69 21L68 21L68 18L69 18L69 15L68 15L68 14L65 14L65 13L63 13L63 14L65 14L65 16L66 16L66 17L63 17L63 18L62 18L62 16L64 16L64 15L62 15L62 12L63 12L63 10L64 10L64 11L65 11L65 12L66 12L66 13L67 13L67 11L68 11L68 8L67 8L67 9L66 9L66 8L65 8L65 9L64 9L64 8L63 8L63 10L62 10L62 8L61 8L61 6L60 6L60 7L59 7L59 4L56 4L56 3L59 3L59 2L58 2L58 1L61 1L61 0L58 0L58 1L57 1L57 2L56 2L56 3L53 3L53 5L52 5L52 4L51 4L51 5L49 5L49 3L52 3L52 0L51 0L51 2L50 2L50 0L49 0L49 1L48 1L48 0L47 0L47 1L46 1L46 0L44 0L44 1L46 1L46 2L49 2L49 3L47 3L47 5L49 5L49 6L48 6L48 7L47 7L47 6L46 6L46 5L44 5L44 3L45 3L45 4L46 4L46 3L45 3L45 2L44 2L44 3L43 3L43 0L41 0L41 1L35 1L35 4L32 4L32 3L31 3L31 1L32 1L32 0L28 0L28 1L26 1L26 2L25 2L25 0L23 0L23 1L21 1L21 2L23 2L23 1L24 1L24 2L25 2L25 3L26 3L26 2L28 2L28 3L27 3L27 4L24 4L24 3L23 3L23 4L22 4L22 3L19 3L19 2L20 2L20 1L19 1L19 0L17 0L17 1L16 1L16 0ZM33 0L33 2L34 2L34 0ZM53 0L53 1L56 1L56 0ZM41 1L41 2L36 2L36 3L38 3L38 4L37 4L37 5L38 5L38 6L37 6L37 9L38 9L38 10L36 10L36 9L35 9L35 10L34 10L34 11L33 11L33 9L32 9L32 5L30 5L30 6L29 6L29 8L28 8L28 9L27 9L27 8L26 8L26 6L27 6L27 7L28 7L28 6L27 6L27 5L29 5L29 4L27 4L27 5L25 5L25 8L26 8L26 9L24 9L24 8L23 8L23 7L24 7L24 4L23 4L23 5L22 5L22 4L18 4L18 5L17 5L17 4L16 4L16 5L14 5L14 6L13 6L13 7L14 7L14 8L13 8L13 10L14 10L14 11L13 11L13 13L12 13L12 11L11 11L11 14L10 14L10 15L11 15L11 16L12 16L12 17L13 17L13 18L11 18L11 19L13 19L13 20L11 20L11 21L10 21L10 22L9 22L9 20L8 20L8 19L10 19L10 17L9 17L9 18L8 18L8 16L9 16L9 15L8 15L8 16L7 16L7 15L6 15L6 16L5 16L5 14L3 14L3 15L4 15L4 16L5 16L5 17L6 17L6 18L4 18L4 19L3 19L3 20L4 20L4 19L5 19L5 20L7 20L7 21L6 21L6 22L8 22L8 23L6 23L6 24L7 24L7 25L6 25L6 26L7 26L7 27L6 27L6 28L5 28L5 29L6 29L6 30L10 30L10 32L9 32L9 31L5 31L5 30L2 30L2 31L4 31L4 32L3 32L3 33L4 33L4 32L9 32L9 36L12 36L12 35L15 35L15 34L17 34L17 35L18 35L18 36L19 36L19 37L20 37L20 38L19 38L19 39L20 39L20 38L21 38L21 37L22 37L22 39L21 39L21 40L19 40L19 41L18 41L18 42L19 42L19 41L20 41L20 42L21 42L21 45L20 45L20 46L18 46L18 47L17 47L17 48L18 48L18 49L21 49L21 51L22 51L22 52L19 52L19 53L18 53L18 54L17 54L17 53L16 53L16 52L15 52L15 53L16 53L16 54L15 54L15 55L14 55L14 57L12 57L12 55L11 55L11 57L10 57L10 58L9 58L9 57L8 57L8 58L7 58L7 57L6 57L6 58L7 58L7 59L8 59L8 60L9 60L9 61L10 61L10 62L11 62L11 61L12 61L12 60L13 60L13 58L14 58L14 57L15 57L15 58L16 58L16 57L17 57L17 58L19 58L19 59L17 59L17 60L16 60L16 59L15 59L15 60L14 60L14 62L16 62L16 63L18 63L18 62L19 62L19 61L20 61L20 60L22 60L22 61L25 61L25 60L24 60L24 59L22 59L22 58L24 58L24 57L22 57L22 56L21 56L21 57L20 57L20 55L22 55L22 54L23 54L23 55L24 55L24 56L25 56L25 57L27 57L27 58L26 58L26 59L27 59L27 60L26 60L26 62L29 62L29 60L30 60L30 58L29 58L29 57L30 57L30 56L28 56L28 55L30 55L30 53L28 53L28 52L32 52L32 53L31 53L31 55L33 55L33 54L34 54L34 55L35 55L35 56L33 56L33 57L35 57L35 59L34 59L34 60L35 60L35 59L36 59L36 58L39 58L39 57L41 57L41 56L38 56L38 57L35 57L35 56L36 56L36 55L39 55L39 54L40 54L40 55L41 55L41 54L40 54L40 53L42 53L42 52L44 52L44 53L43 53L43 56L42 56L42 57L43 57L43 59L44 59L44 63L45 63L45 64L44 64L44 66L41 66L41 67L43 67L43 68L44 68L44 66L45 66L45 67L46 67L46 66L47 66L47 68L48 68L48 66L49 66L49 65L47 65L47 64L48 64L48 63L49 63L49 64L50 64L50 66L51 66L51 65L54 65L54 64L50 64L50 63L51 63L51 61L55 61L55 60L56 60L56 61L57 61L57 62L56 62L56 63L55 63L55 64L56 64L56 65L57 65L57 66L55 66L55 67L57 67L57 66L60 66L60 64L59 64L59 63L58 63L58 62L60 62L60 60L65 60L65 61L66 61L66 60L65 60L65 59L67 59L67 58L68 58L68 55L67 55L67 57L66 57L66 56L64 56L64 57L63 57L63 56L62 56L62 57L61 57L61 58L62 58L62 59L59 59L59 60L58 60L58 59L55 59L55 58L59 58L59 57L60 57L60 56L61 56L61 54L62 54L62 55L66 55L66 53L65 53L65 52L64 52L64 51L63 51L63 50L65 50L65 51L67 51L67 50L66 50L66 49L68 49L68 47L67 47L67 48L64 48L64 47L63 47L63 46L62 46L62 45L61 45L61 44L59 44L59 43L58 43L58 44L59 44L59 45L57 45L57 44L54 44L54 43L55 43L55 42L56 42L56 43L57 43L57 42L59 42L59 41L60 41L60 40L59 40L59 39L57 39L57 38L62 38L62 37L60 37L60 35L59 35L59 34L60 34L60 32L61 32L61 30L59 30L59 29L58 29L58 30L56 30L56 29L57 29L57 28L58 28L58 27L57 27L57 26L59 26L59 28L60 28L60 27L61 27L61 26L59 26L59 25L60 25L60 23L61 23L61 25L62 25L62 26L63 26L63 27L62 27L62 28L63 28L63 29L62 29L62 31L63 31L63 32L64 32L64 31L63 31L63 29L64 29L64 30L65 30L65 31L67 31L67 28L65 28L65 27L67 27L67 26L68 26L68 24L63 24L63 21L64 21L64 22L66 22L66 21L67 21L67 20L66 20L66 19L65 19L65 18L63 18L63 19L64 19L64 20L62 20L62 18L61 18L61 19L59 19L59 17L58 17L58 16L62 16L62 15L59 15L59 13L58 13L58 12L60 12L60 13L61 13L61 10L59 10L59 9L57 9L57 8L56 8L56 9L55 9L55 10L56 10L56 11L57 11L57 12L56 12L56 15L55 15L55 14L52 14L52 13L54 13L54 12L51 12L51 13L50 13L50 12L49 12L49 10L47 10L47 7L46 7L46 6L45 6L45 7L44 7L44 5L43 5L43 7L42 7L42 5L41 5L41 3L42 3L42 1ZM29 2L29 3L30 3L30 2ZM60 3L60 5L61 5L61 3ZM8 5L8 7L9 7L9 6L10 6L10 7L11 7L11 6L10 6L10 5ZM18 5L18 7L17 7L17 6L16 6L16 11L15 11L15 14L16 14L16 17L18 17L18 18L20 18L20 19L18 19L18 20L17 20L17 19L15 19L15 18L13 18L13 19L15 19L15 20L14 20L14 21L11 21L11 22L12 22L12 25L11 25L11 26L10 26L10 23L9 23L9 26L8 26L8 25L7 25L7 26L8 26L8 28L10 28L10 29L11 29L11 31L12 31L12 33L11 33L11 32L10 32L10 33L11 33L11 34L13 34L13 33L14 33L14 31L12 31L12 30L14 30L14 29L15 29L15 27L16 27L16 28L17 28L17 30L18 30L18 31L17 31L17 32L18 32L18 33L17 33L17 34L18 34L18 35L20 35L20 34L19 34L19 33L20 33L20 32L19 32L19 31L20 31L20 27L21 27L21 28L23 28L23 30L22 30L22 29L21 29L21 30L22 30L22 31L21 31L21 32L22 32L22 31L23 31L23 30L25 30L25 31L26 31L26 32L23 32L23 33L21 33L21 34L22 34L22 35L21 35L21 36L23 36L23 38L25 38L25 40L24 40L24 41L23 41L23 42L22 42L22 43L23 43L23 46L22 46L22 45L21 45L21 47L19 47L19 48L21 48L21 49L22 49L22 50L23 50L23 54L24 54L24 55L25 55L25 53L26 53L26 54L28 54L28 53L26 53L26 52L25 52L25 50L26 50L26 51L27 51L27 52L28 52L28 51L27 51L27 50L28 50L28 49L27 49L27 50L26 50L26 49L25 49L25 48L26 48L26 47L25 47L25 46L26 46L26 44L27 44L27 42L28 42L28 41L30 41L30 42L32 42L32 43L30 43L30 44L29 44L29 43L28 43L28 44L29 44L29 46L28 46L28 47L29 47L29 49L30 49L30 50L29 50L29 51L30 51L30 50L32 50L32 52L33 52L33 53L32 53L32 54L33 54L33 53L34 53L34 52L33 52L33 51L34 51L34 50L32 50L32 49L33 49L33 48L36 48L36 47L37 47L37 46L38 46L38 45L37 45L37 46L36 46L36 45L34 45L34 46L32 46L32 47L33 47L33 48L32 48L32 49L31 49L31 48L30 48L30 47L29 47L29 46L30 46L30 45L31 45L31 44L32 44L32 45L33 45L33 41L32 41L32 40L34 40L34 39L35 39L35 41L34 41L34 42L35 42L35 43L34 43L34 44L37 44L37 43L36 43L36 42L38 42L38 40L41 40L41 41L40 41L40 43L38 43L38 44L40 44L40 45L39 45L39 46L40 46L40 47L38 47L38 49L37 49L37 50L36 50L36 49L35 49L35 50L36 50L36 51L35 51L35 55L36 55L36 54L39 54L39 52L40 52L40 51L41 51L41 50L42 50L42 51L44 51L44 52L45 52L45 53L44 53L44 56L43 56L43 57L44 57L44 56L46 56L46 57L47 57L47 58L48 58L48 59L49 59L49 60L47 60L47 62L46 62L46 63L47 63L47 62L50 62L50 59L51 59L51 60L53 60L53 59L54 59L54 60L55 60L55 59L54 59L54 58L55 58L55 57L56 57L56 52L58 52L58 51L57 51L57 49L58 49L58 48L60 48L60 47L61 47L61 49L62 49L62 50L59 50L59 52L60 52L60 53L59 53L59 54L61 54L61 53L62 53L62 54L63 54L63 53L64 53L64 52L63 52L63 51L62 51L62 50L63 50L63 49L62 49L62 46L61 46L61 45L59 45L59 47L58 47L58 46L56 46L56 45L54 45L54 46L52 46L52 45L51 45L51 46L49 46L49 45L50 45L50 43L49 43L49 44L48 44L48 43L47 43L47 42L48 42L48 41L49 41L49 42L50 42L50 41L51 41L51 43L52 43L52 42L55 42L55 41L54 41L54 40L53 40L53 39L55 39L55 40L57 40L57 41L56 41L56 42L57 42L57 41L58 41L58 40L57 40L57 39L56 39L56 38L55 38L55 37L56 37L56 36L55 36L55 35L56 35L56 33L55 33L55 32L57 32L57 33L59 33L59 32L58 32L58 31L59 31L59 30L58 30L58 31L55 31L55 29L56 29L56 28L55 28L55 29L53 29L53 31L51 31L51 32L50 32L50 31L49 31L49 30L50 30L50 29L51 29L51 30L52 30L52 28L53 28L53 27L52 27L52 28L51 28L51 26L55 26L55 25L56 25L56 24L55 24L55 23L57 23L57 21L59 21L59 23L60 23L60 22L61 22L61 23L62 23L62 21L61 21L61 20L60 20L60 21L59 21L59 19L56 19L56 20L55 20L55 21L53 21L53 22L52 22L52 23L50 23L50 19L49 19L49 18L50 18L50 17L51 17L51 18L52 18L52 20L54 20L54 18L55 18L55 17L56 17L56 18L57 18L57 17L56 17L56 16L57 16L57 15L58 15L58 14L57 14L57 15L56 15L56 16L54 16L54 15L52 15L52 14L50 14L50 13L49 13L49 12L47 12L47 11L46 11L46 12L47 12L47 14L49 14L49 15L45 15L45 14L44 14L44 16L42 16L42 17L41 17L41 18L39 18L39 19L38 19L38 15L39 15L39 16L40 16L40 15L42 15L42 14L43 14L43 13L42 13L42 14L41 14L41 12L42 12L42 10L45 10L45 9L46 9L46 7L45 7L45 9L44 9L44 8L43 8L43 9L41 9L41 12L40 12L40 11L39 11L39 10L40 10L40 9L39 9L39 10L38 10L38 12L37 12L37 14L35 14L35 15L36 15L36 16L35 16L35 17L33 17L33 16L34 16L34 15L33 15L33 16L32 16L32 14L31 14L31 13L32 13L32 12L29 12L29 10L27 10L27 12L29 12L29 15L28 15L28 16L29 16L29 17L30 17L30 18L29 18L29 20L28 20L28 19L27 19L27 21L26 21L26 19L24 19L24 20L23 20L23 19L22 19L22 18L26 18L26 17L25 17L25 16L26 16L26 15L25 15L25 13L26 13L26 14L27 14L27 13L26 13L26 12L24 12L24 11L23 11L23 14L24 14L24 15L23 15L23 16L24 16L24 17L18 17L18 16L17 16L17 15L18 15L18 14L20 14L20 15L21 15L21 14L20 14L20 13L19 13L19 12L21 12L21 11L22 11L22 10L20 10L20 9L22 9L22 8L21 8L21 6L22 6L22 7L23 7L23 6L22 6L22 5L21 5L21 6L20 6L20 5ZM33 5L33 8L36 8L36 5ZM53 5L53 7L52 7L52 6L51 6L51 7L50 7L50 6L49 6L49 7L50 7L50 8L51 8L51 9L50 9L50 11L53 11L53 9L54 9L54 5ZM55 5L55 7L56 7L56 5ZM14 6L14 7L15 7L15 6ZM19 6L19 7L20 7L20 6ZM30 6L30 7L31 7L31 6ZM34 6L34 7L35 7L35 6ZM38 6L38 8L40 8L40 7L41 7L41 6L40 6L40 7L39 7L39 6ZM57 6L57 7L58 7L58 8L59 8L59 7L58 7L58 6ZM19 8L19 9L20 9L20 8ZM29 8L29 9L30 9L30 10L31 10L31 11L32 11L32 10L31 10L31 9L30 9L30 8ZM60 8L60 9L61 9L61 8ZM3 9L3 10L4 10L4 11L5 11L5 10L4 10L4 9ZM8 9L8 10L7 10L7 11L6 11L6 12L9 12L9 13L8 13L8 14L9 14L9 13L10 13L10 11L8 11L8 10L9 10L9 9ZM14 9L14 10L15 10L15 9ZM23 9L23 10L24 10L24 9ZM56 9L56 10L57 10L57 11L58 11L58 10L57 10L57 9ZM65 9L65 11L67 11L67 10L66 10L66 9ZM17 10L17 12L19 12L19 11L20 11L20 10L19 10L19 11L18 11L18 10ZM25 10L25 11L26 11L26 10ZM35 10L35 11L36 11L36 10ZM43 11L43 12L45 12L45 11ZM33 12L33 14L34 14L34 13L36 13L36 12ZM38 12L38 14L37 14L37 15L38 15L38 14L39 14L39 15L40 15L40 14L39 14L39 13L40 13L40 12ZM68 12L68 13L69 13L69 12ZM6 13L6 14L7 14L7 13ZM16 13L16 14L18 14L18 13ZM11 14L11 15L12 15L12 16L13 16L13 17L15 17L15 15L14 15L14 14ZM29 15L29 16L30 16L30 15ZM50 15L50 16L49 16L49 17L47 17L47 16L44 16L44 17L43 17L43 19L42 19L42 20L40 20L40 19L39 19L39 20L40 20L40 22L37 22L37 23L40 23L40 22L41 22L41 21L43 21L43 20L44 20L44 22L42 22L42 23L43 23L43 24L44 24L44 25L43 25L43 26L46 26L46 28L44 28L44 27L43 27L43 28L44 28L44 30L42 30L42 27L39 27L39 28L40 28L40 29L38 29L38 30L40 30L40 31L43 31L43 32L39 32L39 33L38 33L38 31L37 31L37 33L38 33L38 34L37 34L37 36L38 36L38 37L36 37L36 38L35 38L35 37L34 37L34 38L35 38L35 39L36 39L36 38L38 38L38 39L37 39L37 40L36 40L36 41L35 41L35 42L36 42L36 41L37 41L37 40L38 40L38 39L39 39L39 37L40 37L40 38L41 38L41 40L44 40L44 42L43 42L43 43L44 43L44 42L45 42L45 44L43 44L43 46L42 46L42 45L41 45L41 46L42 46L42 48L41 48L41 47L40 47L40 48L39 48L39 49L38 49L38 50L37 50L37 51L39 51L39 50L41 50L41 49L42 49L42 48L43 48L43 47L44 47L44 49L43 49L43 50L44 50L44 49L45 49L45 52L46 52L46 51L47 51L47 50L48 50L48 51L49 51L49 49L47 49L47 48L48 48L48 47L49 47L49 46L47 46L47 44L46 44L46 42L47 42L47 40L48 40L48 39L49 39L49 40L50 40L50 39L51 39L51 40L52 40L52 41L53 41L53 40L52 40L52 39L53 39L53 37L54 37L54 36L53 36L53 32L51 32L51 33L50 33L50 34L48 34L48 33L46 33L46 32L47 32L47 31L46 31L46 32L44 32L44 31L45 31L45 30L47 30L47 28L49 28L49 29L48 29L48 30L49 30L49 29L50 29L50 26L51 26L51 25L55 25L55 24L51 24L51 25L50 25L50 23L48 23L48 24L47 24L47 21L48 21L48 22L49 22L49 21L48 21L48 20L49 20L49 19L48 19L48 20L47 20L47 19L46 19L46 18L49 18L49 17L50 17L50 16L52 16L52 18L54 18L54 17L53 17L53 16L52 16L52 15ZM67 15L67 17L66 17L66 18L67 18L67 17L68 17L68 15ZM6 16L6 17L7 17L7 16ZM31 16L31 17L32 17L32 16ZM27 17L27 18L28 18L28 17ZM36 17L36 18L37 18L37 17ZM45 17L45 18L44 18L44 19L45 19L45 18L46 18L46 17ZM6 18L6 19L8 19L8 18ZM33 18L33 19L32 19L32 22L33 22L33 23L31 23L31 24L33 24L33 26L31 26L31 27L33 27L33 30L31 30L31 29L32 29L32 28L31 28L31 29L27 29L27 27L26 27L26 30L30 30L30 31L32 31L32 32L31 32L31 33L29 33L29 32L28 32L28 33L25 33L25 36L26 36L26 37L25 37L25 38L26 38L26 40L25 40L25 41L24 41L24 42L23 42L23 43L24 43L24 44L26 44L26 42L25 42L25 41L28 41L28 40L30 40L30 41L31 41L31 39L33 39L33 38L32 38L32 37L31 37L31 38L30 38L30 37L29 37L29 36L28 36L28 35L27 35L27 34L28 34L28 33L29 33L29 34L31 34L31 35L30 35L30 36L32 36L32 34L31 34L31 33L32 33L32 32L34 32L34 31L33 31L33 30L34 30L34 29L36 29L36 28L35 28L35 27L36 27L36 26L34 26L34 25L36 25L36 24L35 24L35 21L36 21L36 20L37 20L37 21L38 21L38 20L37 20L37 19L34 19L34 18ZM21 19L21 20L19 20L19 21L20 21L20 22L21 22L21 23L20 23L20 24L19 24L19 25L20 25L20 26L18 26L18 27L17 27L17 28L19 28L19 27L20 27L20 26L21 26L21 25L22 25L22 26L24 26L24 25L22 25L22 24L21 24L21 23L22 23L22 22L23 22L23 20L22 20L22 19ZM15 20L15 21L14 21L14 22L13 22L13 26L11 26L11 29L12 29L12 27L15 27L15 26L16 26L16 25L17 25L17 24L18 24L18 23L19 23L19 22L18 22L18 21L16 21L16 20ZM33 20L33 21L35 21L35 20ZM46 20L46 21L47 21L47 20ZM56 20L56 21L55 21L55 22L56 22L56 21L57 21L57 20ZM65 20L65 21L66 21L66 20ZM15 21L15 22L16 22L16 23L15 23L15 25L16 25L16 23L17 23L17 22L16 22L16 21ZM21 21L21 22L22 22L22 21ZM27 21L27 22L29 22L29 23L30 23L30 22L31 22L31 21L30 21L30 22L29 22L29 21ZM0 22L0 25L1 25L1 22ZM24 22L24 23L25 23L25 22ZM44 22L44 23L45 23L45 24L46 24L46 25L47 25L47 27L49 27L49 26L50 26L50 25L49 25L49 24L48 24L48 25L47 25L47 24L46 24L46 22ZM53 22L53 23L54 23L54 22ZM26 23L26 26L29 26L29 25L30 25L30 24L28 24L28 23ZM27 24L27 25L28 25L28 24ZM39 24L39 25L38 25L38 26L41 26L41 25L42 25L42 24ZM57 24L57 25L58 25L58 24ZM63 25L63 26L64 26L64 25ZM65 25L65 26L66 26L66 25ZM33 26L33 27L34 27L34 26ZM23 27L23 28L24 28L24 27ZM28 27L28 28L30 28L30 27ZM37 27L37 28L38 28L38 27ZM63 27L63 28L64 28L64 27ZM6 28L6 29L7 29L7 28ZM13 28L13 29L14 29L14 28ZM15 30L15 31L16 31L16 30ZM15 32L15 33L16 33L16 32ZM43 32L43 33L40 33L40 35L39 35L39 34L38 34L38 35L39 35L39 36L41 36L41 34L43 34L43 33L44 33L44 36L43 36L43 37L41 37L41 38L43 38L43 39L45 39L45 40L47 40L47 38L45 38L45 37L49 37L49 39L50 39L50 37L51 37L51 38L52 38L52 37L51 37L51 36L52 36L52 35L51 35L51 36L50 36L50 35L48 35L48 36L45 36L45 33L44 33L44 32ZM66 32L66 33L65 33L65 34L66 34L66 33L67 33L67 34L68 34L68 33L67 33L67 32ZM5 33L5 36L8 36L8 33ZM33 33L33 36L36 36L36 33ZM61 33L61 36L64 36L64 33ZM6 34L6 35L7 35L7 34ZM23 34L23 35L24 35L24 34ZM34 34L34 35L35 35L35 34ZM62 34L62 35L63 35L63 34ZM57 35L57 37L58 37L58 35ZM67 35L67 36L68 36L68 35ZM1 36L1 37L2 37L2 36ZM3 36L3 41L2 41L2 44L3 44L3 45L1 45L1 46L3 46L3 47L1 47L1 49L2 49L2 50L3 50L3 51L4 51L4 52L5 52L5 50L7 50L7 49L5 49L5 50L4 50L4 46L7 46L7 45L4 45L4 43L5 43L5 38L10 38L10 37L4 37L4 36ZM27 36L27 37L26 37L26 38L27 38L27 37L28 37L28 36ZM44 36L44 37L45 37L45 36ZM49 36L49 37L50 37L50 36ZM11 37L11 38L12 38L12 37ZM14 38L14 39L15 39L15 40L16 40L16 38ZM28 38L28 39L27 39L27 40L28 40L28 39L30 39L30 38ZM66 38L66 39L65 39L65 40L66 40L66 39L67 39L67 38ZM6 39L6 40L7 40L7 39ZM21 40L21 41L22 41L22 40ZM3 41L3 42L4 42L4 41ZM15 43L15 45L16 45L16 43ZM18 43L18 44L20 44L20 43ZM40 43L40 44L41 44L41 43ZM63 43L63 44L64 44L64 43ZM45 44L45 45L44 45L44 47L45 47L45 49L46 49L46 47L47 47L47 46L46 46L46 47L45 47L45 45L46 45L46 44ZM10 46L10 47L9 47L9 48L11 48L11 46ZM23 46L23 47L24 47L24 48L22 48L22 47L21 47L21 48L22 48L22 49L24 49L24 48L25 48L25 47L24 47L24 46ZM35 46L35 47L36 47L36 46ZM54 46L54 47L50 47L50 50L52 50L52 51L50 51L50 52L51 52L51 53L50 53L50 55L52 55L52 56L49 56L49 53L48 53L48 54L47 54L47 53L45 53L45 54L46 54L46 56L49 56L49 57L48 57L48 58L51 58L51 57L52 57L52 58L53 58L53 57L54 57L54 56L55 56L55 54L54 54L54 55L52 55L52 54L51 54L51 53L53 53L53 52L54 52L54 51L56 51L56 50L52 50L52 49L55 49L55 48L56 48L56 49L57 49L57 47L55 47L55 46ZM2 48L2 49L3 49L3 48ZM6 51L6 52L7 52L7 53L6 53L6 54L7 54L7 53L9 53L9 52L10 52L10 51L9 51L9 52L8 52L8 51ZM60 51L60 52L62 52L62 53L63 53L63 52L62 52L62 51ZM0 52L0 54L1 54L1 55L2 55L2 54L1 54L1 52ZM37 52L37 53L38 53L38 52ZM19 53L19 54L20 54L20 53ZM21 53L21 54L22 54L22 53ZM16 54L16 55L15 55L15 57L16 57L16 56L17 56L17 57L19 57L19 58L20 58L20 57L19 57L19 55L17 55L17 54ZM57 55L57 56L58 56L58 55ZM0 56L0 61L1 61L1 58L2 58L2 59L3 59L3 58L2 58L2 56ZM27 56L27 57L28 57L28 56ZM11 57L11 58L10 58L10 59L9 59L9 58L8 58L8 59L9 59L9 60L10 60L10 61L11 61L11 60L12 60L12 59L11 59L11 58L12 58L12 57ZM21 57L21 58L22 58L22 57ZM31 57L31 59L32 59L32 60L31 60L31 62L30 62L30 63L28 63L28 65L29 65L29 66L30 66L30 65L29 65L29 64L31 64L31 63L32 63L32 60L33 60L33 58L32 58L32 57ZM27 58L27 59L28 59L28 60L27 60L27 61L28 61L28 60L29 60L29 58ZM45 58L45 61L46 61L46 58ZM63 58L63 59L64 59L64 58ZM19 59L19 60L17 60L17 61L19 61L19 60L20 60L20 59ZM3 60L3 61L5 61L5 60ZM15 60L15 61L16 61L16 60ZM42 60L42 61L43 61L43 60ZM33 61L33 64L36 64L36 61ZM61 61L61 64L64 64L64 61ZM67 61L67 62L68 62L68 61ZM34 62L34 63L35 63L35 62ZM53 62L53 63L54 63L54 62ZM62 62L62 63L63 63L63 62ZM65 62L65 63L66 63L66 62ZM25 63L25 64L26 64L26 63ZM56 63L56 64L57 64L57 65L59 65L59 64L58 64L58 63ZM8 64L8 69L9 69L9 65L11 65L11 64ZM17 64L17 65L18 65L18 64ZM45 64L45 66L46 66L46 64ZM31 65L31 66L32 66L32 65ZM61 65L61 66L62 66L62 67L61 67L61 68L63 68L63 67L65 67L65 66L63 66L63 65ZM17 66L17 67L16 67L16 68L17 68L17 67L18 67L18 66ZM24 66L24 67L25 67L25 66ZM33 68L33 69L34 69L34 68ZM0 0L0 7L7 7L7 0ZM1 1L1 6L6 6L6 1ZM2 2L2 5L5 5L5 2ZM62 0L62 7L69 7L69 0ZM63 1L63 6L68 6L68 1ZM64 2L64 5L67 5L67 2ZM0 62L0 69L7 69L7 62ZM1 63L1 68L6 68L6 63ZM2 64L2 67L5 67L5 64Z" fill="#000000"/></g></g></svg>
