<?xml version="1.0" encoding="UTF-8"?>
<svg xmlns="http://www.w3.org/2000/svg" version="1.1" width="300" height="300" viewBox="0 0 300 300"><rect x="0" y="0" width="300" height="300" fill="#ffffff"/><g transform="scale(4.348)"><g transform="translate(0,0)"><path fill-rule="evenodd" d="M8 0L8 4L10 4L10 7L11 7L11 9L9 9L9 11L8 11L8 9L7 9L7 8L4 8L4 9L5 9L5 11L4 11L4 10L3 10L3 11L4 11L4 13L1 13L1 14L2 14L2 16L3 16L3 17L0 17L0 20L1 20L1 21L0 21L0 25L1 25L1 26L0 26L0 27L1 27L1 28L0 28L0 30L1 30L1 31L0 31L0 34L1 34L1 35L0 35L0 38L1 38L1 39L0 39L0 43L2 43L2 44L1 44L1 45L0 45L0 46L1 46L1 45L2 45L2 47L1 47L1 48L2 48L2 49L0 49L0 50L2 50L2 52L1 52L1 53L3 53L3 55L2 55L2 56L0 56L0 57L2 57L2 56L3 56L3 57L4 57L4 56L5 56L5 58L4 58L4 59L7 59L7 60L6 60L6 61L8 61L8 62L9 62L9 63L8 63L8 65L10 65L10 64L11 64L11 61L12 61L12 59L13 59L13 60L14 60L14 61L15 61L15 62L13 62L13 63L12 63L12 65L13 65L13 64L14 64L14 65L15 65L15 66L14 66L14 67L15 67L15 69L17 69L17 67L15 67L15 66L16 66L16 65L15 65L15 64L14 64L14 63L15 63L15 62L16 62L16 64L17 64L17 63L18 63L18 61L19 61L19 60L18 60L18 61L17 61L17 62L16 62L16 61L15 61L15 60L14 60L14 59L16 59L16 58L17 58L17 59L22 59L22 60L20 60L20 62L21 62L21 64L20 64L20 63L19 63L19 64L18 64L18 65L17 65L17 66L19 66L19 67L18 67L18 69L20 69L20 68L19 68L19 67L20 67L20 66L21 66L21 69L22 69L22 66L23 66L23 67L24 67L24 66L25 66L25 68L23 68L23 69L25 69L25 68L26 68L26 69L27 69L27 68L26 68L26 66L27 66L27 67L28 67L28 66L29 66L29 68L28 68L28 69L31 69L31 68L32 68L32 69L33 69L33 68L32 68L32 67L34 67L34 68L35 68L35 67L37 67L37 65L38 65L38 67L39 67L39 66L40 66L40 63L41 63L41 67L40 67L40 68L38 68L38 69L40 69L40 68L41 68L41 69L43 69L43 63L42 63L42 62L44 62L44 69L46 69L46 67L45 67L45 62L46 62L46 64L47 64L47 65L48 65L48 69L50 69L50 68L49 68L49 65L50 65L50 67L51 67L51 69L52 69L52 68L55 68L55 69L57 69L57 68L59 68L59 69L60 69L60 67L59 67L59 66L58 66L58 65L59 65L59 64L60 64L60 66L61 66L61 65L62 65L62 66L63 66L63 67L67 67L67 66L69 66L69 64L68 64L68 65L66 65L66 66L65 66L65 63L66 63L66 62L67 62L67 63L68 63L68 62L69 62L69 61L68 61L68 58L69 58L69 56L68 56L68 54L64 54L64 53L63 53L63 52L64 52L64 51L62 51L62 48L63 48L63 49L65 49L65 51L66 51L66 50L67 50L67 53L69 53L69 52L68 52L68 50L67 50L67 49L65 49L65 47L66 47L66 46L67 46L67 48L68 48L68 49L69 49L69 48L68 48L68 46L67 46L67 44L68 44L68 45L69 45L69 44L68 44L68 42L69 42L69 41L68 41L68 40L69 40L69 39L68 39L68 38L69 38L69 35L68 35L68 33L69 33L69 31L68 31L68 30L65 30L65 29L64 29L64 28L65 28L65 27L67 27L67 28L68 28L68 29L69 29L69 27L67 27L67 26L64 26L64 24L65 24L65 23L64 23L64 22L65 22L65 21L66 21L66 22L67 22L67 24L66 24L66 25L67 25L67 24L68 24L68 22L69 22L69 20L68 20L68 18L67 18L67 17L68 17L68 16L69 16L69 15L68 15L68 13L69 13L69 12L68 12L68 11L67 11L67 9L69 9L69 8L65 8L65 10L64 10L64 11L65 11L65 10L66 10L66 11L67 11L67 12L65 12L65 13L67 13L67 15L68 15L68 16L66 16L66 18L67 18L67 20L68 20L68 21L66 21L66 19L65 19L65 17L64 17L64 16L65 16L65 14L64 14L64 12L63 12L63 9L64 9L64 8L63 8L63 9L62 9L62 12L61 12L61 13L60 13L60 10L61 10L61 8L60 8L60 7L61 7L61 6L60 6L60 7L59 7L59 4L58 4L58 5L57 5L57 6L56 6L56 3L55 3L55 2L54 2L54 1L55 1L55 0L54 0L54 1L52 1L52 0L50 0L50 1L47 1L47 2L46 2L46 3L45 3L45 1L46 1L46 0L45 0L45 1L44 1L44 0L41 0L41 1L40 1L40 0L36 0L36 1L35 1L35 2L34 2L34 1L33 1L33 0L31 0L31 1L30 1L30 0L23 0L23 1L22 1L22 0L17 0L17 1L16 1L16 0L13 0L13 1L14 1L14 2L13 2L13 3L11 3L11 2L12 2L12 0L11 0L11 2L10 2L10 3L9 3L9 1L10 1L10 0ZM56 0L56 2L57 2L57 3L59 3L59 2L58 2L58 1L61 1L61 0L58 0L58 1L57 1L57 0ZM17 1L17 2L16 2L16 3L15 3L15 2L14 2L14 3L13 3L13 4L14 4L14 5L13 5L13 7L12 7L12 4L11 4L11 7L12 7L12 12L11 12L11 11L10 11L10 12L8 12L8 13L4 13L4 14L8 14L8 17L9 17L9 18L8 18L8 19L6 19L6 20L4 20L4 21L6 21L6 22L2 22L2 21L3 21L3 18L7 18L7 17L6 17L6 16L7 16L7 15L6 15L6 16L4 16L4 15L3 15L3 16L4 16L4 17L3 17L3 18L2 18L2 19L1 19L1 20L2 20L2 21L1 21L1 23L2 23L2 26L3 26L3 25L4 25L4 23L6 23L6 24L5 24L5 25L6 25L6 26L7 26L7 27L5 27L5 28L2 28L2 29L1 29L1 30L2 30L2 31L1 31L1 32L2 32L2 34L3 34L3 32L4 32L4 31L6 31L6 32L7 32L7 31L9 31L9 37L10 37L10 39L11 39L11 41L10 41L10 40L7 40L7 39L8 39L8 37L2 37L2 35L1 35L1 38L2 38L2 39L1 39L1 42L2 42L2 43L3 43L3 44L4 44L4 42L3 42L3 41L5 41L5 40L2 40L2 39L6 39L6 40L7 40L7 41L6 41L6 42L5 42L5 43L6 43L6 44L7 44L7 45L3 45L3 47L2 47L2 48L3 48L3 47L5 47L5 46L7 46L7 47L6 47L6 48L5 48L5 50L4 50L4 49L2 49L2 50L3 50L3 53L4 53L4 54L5 54L5 56L7 56L7 55L8 55L8 56L10 56L10 57L9 57L9 58L7 58L7 57L6 57L6 58L7 58L7 59L10 59L10 60L11 60L11 59L10 59L10 57L11 57L11 56L12 56L12 58L13 58L13 59L14 59L14 57L17 57L17 58L20 58L20 57L17 57L17 56L16 56L16 54L18 54L18 56L20 56L20 55L19 55L19 54L20 54L20 53L19 53L19 54L18 54L18 53L17 53L17 52L18 52L18 51L20 51L20 50L21 50L21 51L22 51L22 50L23 50L23 52L22 52L22 54L21 54L21 55L22 55L22 56L25 56L25 57L26 57L26 56L27 56L27 57L28 57L28 58L29 58L29 57L30 57L30 56L31 56L31 55L32 55L32 56L34 56L34 57L32 57L32 58L30 58L30 59L27 59L27 58L26 58L26 59L25 59L25 58L24 58L24 57L21 57L21 58L23 58L23 59L24 59L24 60L22 60L22 62L23 62L23 61L26 61L26 60L27 60L27 61L28 61L28 62L29 62L29 61L28 61L28 60L30 60L30 59L32 59L32 60L33 60L33 58L34 58L34 60L37 60L37 63L40 63L40 62L41 62L41 60L39 60L39 58L40 58L40 59L41 59L41 58L40 58L40 57L41 57L41 56L42 56L42 57L44 57L44 54L45 54L45 53L46 53L46 54L47 54L47 57L46 57L46 58L47 58L47 57L48 57L48 55L49 55L49 56L50 56L50 57L49 57L49 58L48 58L48 59L50 59L50 57L55 57L55 58L57 58L57 57L56 57L56 56L59 56L59 57L58 57L58 59L56 59L56 60L54 60L54 61L56 61L56 62L55 62L55 63L54 63L54 62L53 62L53 59L54 59L54 58L53 58L53 59L52 59L52 58L51 58L51 62L50 62L50 61L49 61L49 63L48 63L48 64L49 64L49 63L50 63L50 65L51 65L51 64L52 64L52 66L51 66L51 67L52 67L52 66L53 66L53 65L55 65L55 66L54 66L54 67L57 67L57 65L58 65L58 64L57 64L57 63L60 63L60 62L59 62L59 61L60 61L60 59L61 59L61 60L63 60L63 57L62 57L62 56L61 56L61 55L59 55L59 53L60 53L60 54L61 54L61 53L62 53L62 55L64 55L64 60L65 60L65 61L67 61L67 62L68 62L68 61L67 61L67 59L65 59L65 58L68 58L68 56L67 56L67 55L64 55L64 54L63 54L63 53L62 53L62 51L61 51L61 48L62 48L62 47L64 47L64 46L66 46L66 45L64 45L64 44L63 44L63 41L64 41L64 43L65 43L65 44L67 44L67 42L68 42L68 41L67 41L67 40L68 40L68 39L66 39L66 38L67 38L67 37L68 37L68 35L65 35L65 36L66 36L66 37L62 37L62 45L64 45L64 46L62 46L62 47L61 47L61 46L60 46L60 47L61 47L61 48L58 48L58 47L57 47L57 49L58 49L58 50L57 50L57 51L56 51L56 50L52 50L52 49L53 49L53 47L50 47L50 45L49 45L49 47L48 47L48 48L49 48L49 49L47 49L47 48L45 48L45 47L46 47L46 46L47 46L47 44L48 44L48 43L49 43L49 44L50 44L50 43L51 43L51 44L52 44L52 45L53 45L53 44L52 44L52 43L53 43L53 41L54 41L54 39L55 39L55 41L56 41L56 43L57 43L57 41L58 41L58 44L57 44L57 45L58 45L58 46L59 46L59 45L60 45L60 44L59 44L59 41L60 41L60 39L61 39L61 37L60 37L60 36L59 36L59 37L58 37L58 39L57 39L57 37L56 37L56 36L57 36L57 35L58 35L58 34L59 34L59 35L60 35L60 33L59 33L59 32L62 32L62 31L63 31L63 32L66 32L66 33L65 33L65 34L66 34L66 33L68 33L68 32L67 32L67 31L63 31L63 30L62 30L62 29L63 29L63 27L62 27L62 28L61 28L61 27L58 27L58 26L59 26L59 23L60 23L60 25L61 25L61 26L62 26L62 25L63 25L63 22L64 22L64 21L65 21L65 20L64 20L64 17L63 17L63 20L64 20L64 21L63 21L63 22L62 22L62 21L61 21L61 20L62 20L62 15L63 15L63 14L62 14L62 13L63 13L63 12L62 12L62 13L61 13L61 14L60 14L60 13L58 13L58 12L57 12L57 13L58 13L58 14L59 14L59 15L61 15L61 18L59 18L59 17L58 17L58 19L57 19L57 17L56 17L56 16L57 16L57 15L56 15L56 16L55 16L55 15L54 15L54 16L52 16L52 17L51 17L51 15L53 15L53 13L55 13L55 14L56 14L56 12L55 12L55 10L52 10L52 9L56 9L56 10L57 10L57 9L58 9L58 11L59 11L59 9L60 9L60 8L59 8L59 7L58 7L58 6L57 6L57 7L58 7L58 8L57 8L57 9L56 9L56 6L55 6L55 8L53 8L53 7L54 7L54 5L50 5L50 4L52 4L52 2L51 2L51 1L50 1L50 2L48 2L48 3L47 3L47 4L46 4L46 5L44 5L44 4L45 4L45 3L44 3L44 2L42 2L42 1L41 1L41 2L40 2L40 1L37 1L37 2L36 2L36 3L34 3L34 2L32 2L32 3L31 3L31 2L30 2L30 3L29 3L29 2L28 2L28 1L27 1L27 2L26 2L26 1L25 1L25 2L24 2L24 3L23 3L23 4L25 4L25 2L26 2L26 4L27 4L27 3L29 3L29 4L28 4L28 5L30 5L30 6L29 6L29 7L30 7L30 6L31 6L31 7L32 7L32 6L31 6L31 5L32 5L32 3L34 3L34 4L37 4L37 3L38 3L38 4L39 4L39 7L38 7L38 5L37 5L37 7L38 7L38 9L37 9L37 11L38 11L38 12L36 12L36 13L34 13L34 11L33 11L33 10L34 10L34 9L33 9L33 10L32 10L32 11L31 11L31 10L30 10L30 9L32 9L32 8L30 8L30 9L28 9L28 6L27 6L27 5L26 5L26 6L25 6L25 9L24 9L24 8L22 8L22 6L23 6L23 7L24 7L24 6L23 6L23 5L19 5L19 3L22 3L22 1L21 1L21 2L20 2L20 1L19 1L19 2L18 2L18 1ZM17 2L17 3L16 3L16 4L15 4L15 5L14 5L14 7L15 7L15 8L14 8L14 9L15 9L15 8L16 8L16 7L17 7L17 9L18 9L18 10L19 10L19 11L20 11L20 12L21 12L21 13L19 13L19 12L17 12L17 13L16 13L16 11L15 11L15 10L14 10L14 11L13 11L13 12L12 12L12 13L10 13L10 14L9 14L9 16L10 16L10 17L11 17L11 18L10 18L10 19L8 19L8 20L11 20L11 22L10 22L10 21L9 21L9 22L10 22L10 23L8 23L8 24L6 24L6 25L7 25L7 26L8 26L8 24L9 24L9 25L11 25L11 26L10 26L10 27L9 27L9 28L6 28L6 29L9 29L9 28L10 28L10 31L11 31L11 32L10 32L10 34L11 34L11 32L12 32L12 34L13 34L13 35L10 35L10 37L11 37L11 38L12 38L12 40L13 40L13 37L11 37L11 36L14 36L14 38L15 38L15 40L14 40L14 41L16 41L16 33L15 33L15 35L14 35L14 34L13 34L13 33L14 33L14 32L15 32L15 31L16 31L16 32L17 32L17 31L18 31L18 30L19 30L19 32L18 32L18 33L17 33L17 35L18 35L18 34L19 34L19 35L20 35L20 34L21 34L21 37L20 37L20 36L17 36L17 38L19 38L19 37L20 37L20 39L18 39L18 41L17 41L17 42L16 42L16 43L15 43L15 42L14 42L14 44L13 44L13 41L12 41L12 42L11 42L11 45L10 45L10 44L9 44L9 42L8 42L8 46L9 46L9 47L10 47L10 48L14 48L14 49L12 49L12 50L14 50L14 52L13 52L13 53L12 53L12 52L11 52L11 50L10 50L10 49L9 49L9 52L8 52L8 51L7 51L7 50L5 50L5 52L4 52L4 53L5 53L5 52L6 52L6 53L7 53L7 52L8 52L8 55L10 55L10 56L11 56L11 55L12 55L12 56L13 56L13 57L14 57L14 56L15 56L15 55L14 55L14 54L16 54L16 52L17 52L17 50L16 50L16 49L15 49L15 47L13 47L13 46L12 46L12 45L15 45L15 46L16 46L16 44L17 44L17 46L18 46L18 47L17 47L17 49L18 49L18 50L19 50L19 49L21 49L21 50L22 50L22 48L23 48L23 46L28 46L28 45L27 45L27 42L28 42L28 43L29 43L29 44L30 44L30 45L29 45L29 46L30 46L30 45L31 45L31 46L32 46L32 47L33 47L33 49L34 49L34 47L33 47L33 46L34 46L34 44L35 44L35 45L36 45L36 46L35 46L35 47L36 47L36 48L37 48L37 49L38 49L38 50L39 50L39 51L37 51L37 52L35 52L35 51L36 51L36 49L35 49L35 50L32 50L32 51L34 51L34 52L35 52L35 54L34 54L34 53L33 53L33 54L32 54L32 53L31 53L31 52L29 52L29 50L30 50L30 51L31 51L31 50L30 50L30 49L32 49L32 48L29 48L29 50L28 50L28 51L27 51L27 49L28 49L28 47L27 47L27 48L26 48L26 47L24 47L24 49L23 49L23 50L24 50L24 52L23 52L23 54L26 54L26 55L25 55L25 56L26 56L26 55L27 55L27 56L28 56L28 55L27 55L27 54L26 54L26 53L29 53L29 55L30 55L30 53L31 53L31 54L32 54L32 55L34 55L34 56L36 56L36 57L34 57L34 58L36 58L36 57L38 57L38 58L39 58L39 57L40 57L40 55L41 55L41 54L44 54L44 53L45 53L45 50L46 50L46 51L47 51L47 52L46 52L46 53L48 53L48 54L49 54L49 55L50 55L50 56L51 56L51 55L50 55L50 54L51 54L51 53L52 53L52 54L53 54L53 55L55 55L55 56L56 56L56 55L55 55L55 53L52 53L52 52L51 52L51 51L52 51L52 50L51 50L51 48L50 48L50 47L49 47L49 48L50 48L50 50L48 50L48 51L47 51L47 50L46 50L46 49L45 49L45 48L44 48L44 47L45 47L45 46L46 46L46 45L45 45L45 42L46 42L46 37L48 37L48 38L49 38L49 37L50 37L50 38L51 38L51 41L50 41L50 40L49 40L49 39L47 39L47 41L50 41L50 42L49 42L49 43L50 43L50 42L51 42L51 43L52 43L52 38L56 38L56 37L55 37L55 36L54 36L54 37L52 37L52 35L53 35L53 34L54 34L54 35L55 35L55 34L56 34L56 35L57 35L57 34L58 34L58 32L59 32L59 31L60 31L60 30L61 30L61 31L62 31L62 30L61 30L61 28L59 28L59 31L57 31L57 32L56 32L56 33L55 33L55 31L53 31L53 30L56 30L56 29L57 29L57 30L58 30L58 28L56 28L56 29L55 29L55 26L56 26L56 27L57 27L57 26L58 26L58 24L56 24L56 25L53 25L53 27L54 27L54 29L52 29L52 27L51 27L51 25L52 25L52 24L55 24L55 23L54 23L54 22L55 22L55 20L56 20L56 21L57 21L57 19L55 19L55 17L54 17L54 20L53 20L53 21L50 21L50 22L52 22L52 24L51 24L51 25L50 25L50 24L49 24L49 23L48 23L48 25L47 25L47 22L46 22L46 21L49 21L49 20L51 20L51 19L53 19L53 18L51 18L51 17L50 17L50 16L48 16L48 15L49 15L49 13L50 13L50 15L51 15L51 14L52 14L52 13L50 13L50 12L51 12L51 11L52 11L52 10L51 10L51 9L52 9L52 8L51 8L51 6L50 6L50 5L49 5L49 4L50 4L50 3L51 3L51 2L50 2L50 3L49 3L49 4L48 4L48 5L47 5L47 6L46 6L46 7L45 7L45 6L44 6L44 5L43 5L43 4L44 4L44 3L43 3L43 4L42 4L42 2L41 2L41 3L40 3L40 2L39 2L39 3L40 3L40 5L41 5L41 6L40 6L40 8L39 8L39 9L38 9L38 10L40 10L40 11L39 11L39 12L38 12L38 15L39 15L39 16L38 16L38 18L39 18L39 19L37 19L37 21L36 21L36 19L35 19L35 18L36 18L36 17L37 17L37 16L36 16L36 15L35 15L35 14L34 14L34 15L33 15L33 18L32 18L32 15L30 15L30 14L33 14L33 12L32 12L32 13L31 13L31 12L30 12L30 11L29 11L29 10L28 10L28 9L27 9L27 6L26 6L26 9L25 9L25 10L24 10L24 9L23 9L23 11L22 11L22 9L21 9L21 8L20 8L20 7L21 7L21 6L20 6L20 7L19 7L19 5L18 5L18 4L17 4L17 3L18 3L18 2ZM60 3L60 5L61 5L61 3ZM16 4L16 5L15 5L15 7L16 7L16 6L17 6L17 7L18 7L18 5L17 5L17 4ZM30 4L30 5L31 5L31 4ZM8 5L8 7L9 7L9 5ZM33 5L33 8L36 8L36 5ZM34 6L34 7L35 7L35 6ZM41 6L41 7L42 7L42 6ZM43 6L43 8L40 8L40 10L41 10L41 14L40 14L40 13L39 13L39 15L42 15L42 13L44 13L44 12L42 12L42 10L41 10L41 9L43 9L43 11L45 11L45 12L46 12L46 14L43 14L43 17L44 17L44 15L45 15L45 17L46 17L46 19L44 19L44 18L41 18L41 17L42 17L42 16L40 16L40 19L39 19L39 20L38 20L38 21L37 21L37 22L35 22L35 21L33 21L33 22L31 22L31 21L32 21L32 20L33 20L33 19L34 19L34 18L35 18L35 16L34 16L34 18L33 18L33 19L32 19L32 18L31 18L31 17L29 17L29 14L30 14L30 13L28 13L28 12L29 12L29 11L28 11L28 12L27 12L27 13L26 13L26 11L27 11L27 9L26 9L26 11L25 11L25 13L26 13L26 14L25 14L25 15L24 15L24 16L22 16L22 14L23 14L23 13L24 13L24 11L23 11L23 12L22 12L22 13L21 13L21 14L19 14L19 15L20 15L20 16L22 16L22 18L23 18L23 17L25 17L25 18L24 18L24 19L23 19L23 20L22 20L22 22L21 22L21 23L22 23L22 24L24 24L24 23L25 23L25 22L24 22L24 23L23 23L23 20L24 20L24 19L25 19L25 21L26 21L26 20L27 20L27 21L28 21L28 24L29 24L29 25L28 25L28 26L27 26L27 27L26 27L26 28L25 28L25 26L26 26L26 24L27 24L27 22L26 22L26 24L25 24L25 26L24 26L24 25L21 25L21 24L20 24L20 21L21 21L21 20L20 20L20 21L19 21L19 22L17 22L17 21L16 21L16 20L15 20L15 22L16 22L16 24L15 24L15 23L14 23L14 21L12 21L12 23L11 23L11 25L13 25L13 26L11 26L11 27L12 27L12 28L11 28L11 31L12 31L12 32L13 32L13 31L15 31L15 30L12 30L12 28L13 28L13 29L14 29L14 27L13 27L13 26L15 26L15 25L17 25L17 24L19 24L19 25L18 25L18 26L16 26L16 27L15 27L15 28L16 28L16 30L17 30L17 28L18 28L18 26L19 26L19 28L20 28L20 29L19 29L19 30L20 30L20 32L19 32L19 33L20 33L20 32L21 32L21 33L29 33L29 34L28 34L28 35L27 35L27 34L25 34L25 35L23 35L23 34L22 34L22 38L23 38L23 37L24 37L24 36L25 36L25 37L26 37L26 35L27 35L27 36L28 36L28 39L30 39L30 37L29 37L29 34L30 34L30 33L29 33L29 32L31 32L31 34L32 34L32 32L36 32L36 31L39 31L39 30L38 30L38 29L37 29L37 30L36 30L36 28L37 28L37 26L38 26L38 27L39 27L39 29L40 29L40 30L42 30L42 28L43 28L43 29L44 29L44 28L43 28L43 26L41 26L41 25L42 25L42 24L43 24L43 25L44 25L44 24L45 24L45 23L44 23L44 20L46 20L46 19L47 19L47 18L48 18L48 19L49 19L49 17L46 17L46 16L47 16L47 15L46 15L46 14L47 14L47 11L46 11L46 10L47 10L47 8L50 8L50 9L49 9L49 10L50 10L50 11L49 11L49 12L50 12L50 11L51 11L51 10L50 10L50 9L51 9L51 8L50 8L50 6L49 6L49 7L48 7L48 6L47 6L47 8L45 8L45 7L44 7L44 6ZM52 6L52 7L53 7L53 6ZM0 8L0 10L1 10L1 11L0 11L0 12L1 12L1 11L2 11L2 10L1 10L1 9L2 9L2 8ZM19 8L19 10L20 10L20 11L21 11L21 10L20 10L20 8ZM44 8L44 9L45 9L45 10L46 10L46 9L45 9L45 8ZM58 8L58 9L59 9L59 8ZM6 9L6 10L7 10L7 9ZM35 9L35 11L36 11L36 9ZM6 11L6 12L7 12L7 11ZM14 12L14 13L15 13L15 14L14 14L14 15L13 15L13 14L10 14L10 16L12 16L12 18L15 18L15 17L13 17L13 16L14 16L14 15L15 15L15 16L16 16L16 19L17 19L17 18L18 18L18 17L19 17L19 19L18 19L18 20L19 20L19 19L20 19L20 18L21 18L21 17L19 17L19 16L18 16L18 17L17 17L17 15L18 15L18 13L17 13L17 15L16 15L16 13L15 13L15 12ZM67 12L67 13L68 13L68 12ZM27 13L27 14L28 14L28 13ZM0 15L0 16L1 16L1 15ZM25 15L25 17L26 17L26 19L27 19L27 20L29 20L29 23L30 23L30 21L31 21L31 20L32 20L32 19L31 19L31 20L29 20L29 19L30 19L30 18L28 18L28 19L27 19L27 17L28 17L28 16L26 16L26 15ZM13 19L13 20L14 20L14 19ZM41 19L41 21L40 21L40 20L39 20L39 23L40 23L40 24L39 24L39 25L38 25L38 24L36 24L36 25L35 25L35 22L34 22L34 23L33 23L33 24L32 24L32 23L31 23L31 24L30 24L30 25L29 25L29 26L31 26L31 24L32 24L32 26L33 26L33 25L34 25L34 28L35 28L35 27L36 27L36 26L37 26L37 25L38 25L38 26L39 26L39 27L40 27L40 28L42 28L42 27L40 27L40 24L41 24L41 23L40 23L40 22L43 22L43 20L42 20L42 19ZM58 19L58 21L60 21L60 23L61 23L61 24L62 24L62 22L61 22L61 21L60 21L60 20L59 20L59 19ZM6 20L6 21L7 21L7 20ZM6 22L6 23L7 23L7 22ZM56 22L56 23L57 23L57 22ZM12 23L12 24L14 24L14 23ZM20 25L20 26L21 26L21 27L20 27L20 28L21 28L21 29L20 29L20 30L22 30L22 31L24 31L24 32L25 32L25 31L26 31L26 32L27 32L27 31L28 31L28 29L29 29L29 30L30 30L30 29L32 29L32 28L33 28L33 27L30 27L30 29L29 29L29 27L28 27L28 29L27 29L27 28L26 28L26 30L25 30L25 29L24 29L24 27L23 27L23 26L21 26L21 25ZM46 25L46 26L47 26L47 25ZM48 25L48 27L49 27L49 28L50 28L50 29L48 29L48 30L47 30L47 28L46 28L46 30L43 30L43 31L40 31L40 33L44 33L44 34L43 34L43 35L41 35L41 34L38 34L38 32L37 32L37 37L36 37L36 38L37 38L37 37L38 37L38 36L39 36L39 35L40 35L40 37L42 37L42 36L43 36L43 38L42 38L42 39L43 39L43 42L38 42L38 41L39 41L39 40L38 40L38 39L39 39L39 38L38 38L38 39L35 39L35 40L34 40L34 38L35 38L35 37L33 37L33 39L32 39L32 35L30 35L30 36L31 36L31 39L32 39L32 41L31 41L31 40L30 40L30 41L29 41L29 40L28 40L28 42L30 42L30 44L31 44L31 43L32 43L32 41L35 41L35 43L36 43L36 44L37 44L37 43L36 43L36 41L37 41L37 42L38 42L38 43L41 43L41 44L43 44L43 43L44 43L44 40L45 40L45 39L43 39L43 38L45 38L45 37L46 37L46 34L49 34L49 33L46 33L46 32L47 32L47 31L49 31L49 32L50 32L50 33L51 33L51 34L52 34L52 33L53 33L53 31L52 31L52 29L51 29L51 28L50 28L50 27L49 27L49 26L50 26L50 25ZM22 27L22 30L24 30L24 29L23 29L23 27ZM3 29L3 30L4 30L4 29ZM33 29L33 31L34 31L34 30L35 30L35 29ZM50 29L50 31L51 31L51 29ZM6 30L6 31L7 31L7 30ZM31 30L31 32L32 32L32 30ZM46 30L46 31L47 31L47 30ZM2 31L2 32L3 32L3 31ZM44 31L44 33L45 33L45 34L44 34L44 37L45 37L45 34L46 34L46 33L45 33L45 31ZM51 32L51 33L52 33L52 32ZM5 33L5 36L8 36L8 33ZM33 33L33 36L36 36L36 33ZM61 33L61 36L64 36L64 33ZM6 34L6 35L7 35L7 34ZM34 34L34 35L35 35L35 34ZM62 34L62 35L63 35L63 34ZM48 35L48 36L49 36L49 35ZM50 36L50 37L51 37L51 38L52 38L52 37L51 37L51 36ZM6 38L6 39L7 39L7 38ZM25 38L25 39L23 39L23 40L22 40L22 39L21 39L21 40L20 40L20 41L18 41L18 42L17 42L17 43L18 43L18 44L20 44L20 43L21 43L21 42L20 42L20 41L22 41L22 43L23 43L23 44L22 44L22 45L21 45L21 46L22 46L22 45L24 45L24 43L23 43L23 41L24 41L24 42L25 42L25 45L26 45L26 42L27 42L27 41L24 41L24 40L25 40L25 39L27 39L27 38ZM59 38L59 39L58 39L58 41L59 41L59 39L60 39L60 38ZM64 38L64 39L63 39L63 40L64 40L64 41L66 41L66 40L64 40L64 39L65 39L65 38ZM40 39L40 41L41 41L41 39ZM37 40L37 41L38 41L38 40ZM56 40L56 41L57 41L57 40ZM30 41L30 42L31 42L31 41ZM6 42L6 43L7 43L7 42ZM47 42L47 43L46 43L46 44L47 44L47 43L48 43L48 42ZM54 42L54 45L55 45L55 49L56 49L56 45L55 45L55 42ZM60 42L60 43L61 43L61 42ZM33 43L33 44L32 44L32 45L33 45L33 44L34 44L34 43ZM38 44L38 45L37 45L37 46L36 46L36 47L38 47L38 48L39 48L39 47L41 47L41 48L40 48L40 51L39 51L39 52L38 52L38 53L36 53L36 54L35 54L35 55L36 55L36 56L38 56L38 57L39 57L39 56L38 56L38 55L39 55L39 53L44 53L44 51L43 51L43 50L42 50L42 51L43 51L43 52L41 52L41 49L42 49L42 45L41 45L41 46L40 46L40 45L39 45L39 44ZM58 44L58 45L59 45L59 44ZM9 45L9 46L10 46L10 45ZM19 45L19 47L20 47L20 48L22 48L22 47L20 47L20 45ZM38 45L38 46L39 46L39 45ZM44 45L44 46L45 46L45 45ZM6 48L6 49L7 49L7 48ZM18 48L18 49L19 49L19 48ZM43 48L43 49L44 49L44 50L45 50L45 49L44 49L44 48ZM14 49L14 50L15 50L15 49ZM25 49L25 53L26 53L26 52L27 52L27 51L26 51L26 49ZM50 50L50 51L49 51L49 52L50 52L50 51L51 51L51 50ZM58 50L58 51L57 51L57 52L56 52L56 51L53 51L53 52L56 52L56 54L57 54L57 52L58 52L58 53L59 53L59 50ZM6 51L6 52L7 52L7 51ZM15 51L15 52L14 52L14 53L15 53L15 52L16 52L16 51ZM60 51L60 52L61 52L61 51ZM65 52L65 53L66 53L66 52ZM49 53L49 54L50 54L50 53ZM6 54L6 55L7 55L7 54ZM36 54L36 55L37 55L37 54ZM60 56L60 57L59 57L59 58L61 58L61 59L62 59L62 58L61 58L61 56ZM0 58L0 61L1 61L1 58ZM2 58L2 59L3 59L3 58ZM42 58L42 61L44 61L44 62L45 62L45 61L46 61L46 62L47 62L47 61L46 61L46 59L45 59L45 58ZM37 59L37 60L38 60L38 62L39 62L39 60L38 60L38 59ZM3 60L3 61L5 61L5 60ZM44 60L44 61L45 61L45 60ZM56 60L56 61L58 61L58 60ZM9 61L9 62L10 62L10 61ZM33 61L33 64L36 64L36 61ZM61 61L61 64L64 64L64 61ZM30 62L30 64L31 64L31 65L29 65L29 64L28 64L28 63L27 63L27 64L26 64L26 63L25 63L25 65L29 65L29 66L31 66L31 65L32 65L32 66L33 66L33 65L32 65L32 64L31 64L31 63L32 63L32 62ZM34 62L34 63L35 63L35 62ZM51 62L51 63L52 63L52 64L54 64L54 63L53 63L53 62ZM62 62L62 63L63 63L63 62ZM9 63L9 64L10 64L10 63ZM23 63L23 64L22 64L22 65L21 65L21 66L22 66L22 65L24 65L24 63ZM19 64L19 65L20 65L20 64ZM38 64L38 65L39 65L39 64ZM56 64L56 65L57 65L57 64ZM34 65L34 66L36 66L36 65ZM9 66L9 67L8 67L8 69L11 69L11 68L13 68L13 69L14 69L14 68L13 68L13 66L12 66L12 67L11 67L11 66ZM9 67L9 68L10 68L10 67ZM61 67L61 69L63 69L63 68L62 68L62 67ZM36 68L36 69L37 69L37 68ZM64 68L64 69L65 69L65 68ZM66 68L66 69L67 69L67 68ZM68 68L68 69L69 69L69 68ZM0 0L0 7L7 7L7 0ZM1 1L1 6L6 6L6 1ZM2 2L2 5L5 5L5 2ZM62 0L62 7L69 7L69 0ZM63 1L63 6L68 6L68 1ZM64 2L64 5L67 5L67 2ZM0 62L0 69L7 69L7 62ZM1 63L1 68L6 68L6 63ZM2 64L2 67L5 67L5 64Z" fill="#000000"/></g></g></svg>
