<?xml version="1.0" encoding="UTF-8"?>
<svg xmlns="http://www.w3.org/2000/svg" version="1.1" width="300" height="300" viewBox="0 0 300 300"><rect x="0" y="0" width="300" height="300" fill="#ffffff"/><g transform="scale(4.348)"><g transform="translate(0,0)"><path fill-rule="evenodd" d="M10 0L10 1L12 1L12 2L13 2L13 3L12 3L12 4L11 4L11 2L10 2L10 4L9 4L9 3L8 3L8 4L9 4L9 5L8 5L8 7L9 7L9 8L6 8L6 9L5 9L5 8L0 8L0 10L1 10L1 11L0 11L0 12L1 12L1 13L2 13L2 14L1 14L1 15L2 15L2 17L1 17L1 16L0 16L0 17L1 17L1 18L0 18L0 21L1 21L1 18L2 18L2 17L3 17L3 16L5 16L5 17L7 17L7 16L9 16L9 17L8 17L8 18L9 18L9 19L8 19L8 20L6 20L6 19L7 19L7 18L3 18L3 19L5 19L5 20L6 20L6 21L8 21L8 22L6 22L6 23L3 23L3 21L4 21L4 20L3 20L3 21L2 21L2 22L1 22L1 24L0 24L0 27L1 27L1 28L0 28L0 29L3 29L3 31L2 31L2 30L1 30L1 31L0 31L0 37L1 37L1 34L2 34L2 33L1 33L1 31L2 31L2 32L4 32L4 33L3 33L3 36L4 36L4 37L8 37L8 38L6 38L6 39L2 39L2 38L3 38L3 37L2 37L2 38L1 38L1 41L0 41L0 43L1 43L1 44L2 44L2 45L1 45L1 46L0 46L0 47L1 47L1 48L0 48L0 49L1 49L1 50L0 50L0 52L1 52L1 53L0 53L0 54L2 54L2 53L3 53L3 52L1 52L1 50L3 50L3 49L4 49L4 48L3 48L3 47L5 47L5 46L4 46L4 45L7 45L7 46L6 46L6 47L8 47L8 48L5 48L5 49L7 49L7 50L4 50L4 54L5 54L5 55L4 55L4 59L7 59L7 60L6 60L6 61L8 61L8 63L9 63L9 62L10 62L10 61L11 61L11 60L14 60L14 63L13 63L13 62L11 62L11 63L10 63L10 64L8 64L8 69L9 69L9 67L10 67L10 68L13 68L13 69L14 69L14 68L15 68L15 67L17 67L17 68L16 68L16 69L17 69L17 68L18 68L18 69L19 69L19 68L18 68L18 67L17 67L17 66L19 66L19 67L20 67L20 66L19 66L19 65L20 65L20 63L21 63L21 64L22 64L22 62L20 62L20 61L19 61L19 60L20 60L20 57L19 57L19 55L20 55L20 56L22 56L22 57L21 57L21 58L22 58L22 59L24 59L24 60L25 60L25 61L23 61L23 62L25 62L25 63L23 63L23 64L25 64L25 65L21 65L21 68L20 68L20 69L21 69L21 68L25 68L25 69L26 69L26 68L27 68L27 69L28 69L28 68L29 68L29 69L32 69L32 68L30 68L30 67L35 67L35 68L36 68L36 69L38 69L38 68L37 68L37 67L39 67L39 66L38 66L38 63L39 63L39 64L41 64L41 66L40 66L40 67L41 67L41 69L42 69L42 68L43 68L43 69L44 69L44 68L47 68L47 69L50 69L50 67L51 67L51 68L52 68L52 67L51 67L51 66L50 66L50 65L51 65L51 63L52 63L52 61L51 61L51 63L49 63L49 64L48 64L48 63L47 63L47 64L48 64L48 65L47 65L47 66L46 66L46 64L45 64L45 63L46 63L46 62L45 62L45 63L44 63L44 59L43 59L43 57L44 57L44 56L46 56L46 57L48 57L48 58L47 58L47 59L46 59L46 58L45 58L45 59L46 59L46 60L45 60L45 61L46 61L46 60L47 60L47 62L50 62L50 61L49 61L49 60L51 60L51 59L52 59L52 60L53 60L53 61L54 61L54 62L53 62L53 65L52 65L52 66L55 66L55 67L54 67L54 68L53 68L53 69L54 69L54 68L55 68L55 69L56 69L56 68L57 68L57 66L56 66L56 64L57 64L57 65L59 65L59 64L57 64L57 63L56 63L56 62L55 62L55 61L56 61L56 60L55 60L55 61L54 61L54 60L53 60L53 59L54 59L54 58L56 58L56 54L55 54L55 53L56 53L56 52L53 52L53 51L57 51L57 53L59 53L59 52L60 52L60 53L61 53L61 52L62 52L62 54L61 54L61 55L62 55L62 54L63 54L63 53L64 53L64 51L61 51L61 52L60 52L60 49L61 49L61 50L62 50L62 49L63 49L63 50L64 50L64 49L65 49L65 48L69 48L69 47L68 47L68 46L69 46L69 44L67 44L67 42L69 42L69 41L67 41L67 40L68 40L68 36L69 36L69 35L68 35L68 34L69 34L69 32L68 32L68 34L67 34L67 33L66 33L66 32L67 32L67 31L68 31L68 30L69 30L69 29L67 29L67 31L64 31L64 30L63 30L63 31L60 31L60 34L59 34L59 35L58 35L58 34L57 34L57 33L59 33L59 30L62 30L62 29L63 29L63 28L64 28L64 26L65 26L65 27L66 27L66 28L65 28L65 29L66 29L66 28L69 28L69 27L68 27L68 26L69 26L69 23L68 23L68 22L67 22L67 21L68 21L68 18L69 18L69 17L67 17L67 15L68 15L68 16L69 16L69 15L68 15L68 14L65 14L65 13L64 13L64 12L66 12L66 13L67 13L67 11L68 11L68 10L67 10L67 9L68 9L68 8L67 8L67 9L66 9L66 8L65 8L65 10L64 10L64 8L63 8L63 11L61 11L61 10L62 10L62 8L61 8L61 6L60 6L60 7L59 7L59 4L55 4L55 3L59 3L59 2L58 2L58 1L61 1L61 0L56 0L56 1L57 1L57 2L55 2L55 3L54 3L54 1L55 1L55 0L54 0L54 1L52 1L52 2L53 2L53 4L52 4L52 5L53 5L53 6L52 6L52 7L51 7L51 5L50 5L50 4L51 4L51 3L50 3L50 0L47 0L47 4L48 4L48 5L49 5L49 6L48 6L48 7L47 7L47 6L46 6L46 5L44 5L44 3L45 3L45 4L46 4L46 3L45 3L45 2L44 2L44 3L43 3L43 4L41 4L41 5L44 5L44 7L45 7L45 9L44 9L44 8L43 8L43 9L39 9L39 8L41 8L41 6L40 6L40 5L39 5L39 6L38 6L38 5L37 5L37 4L38 4L38 3L37 3L37 4L32 4L32 3L33 3L33 2L34 2L34 1L35 1L35 2L39 2L39 3L40 3L40 2L41 2L41 1L42 1L42 2L43 2L43 0L41 0L41 1L37 1L37 0L33 0L33 2L31 2L31 1L32 1L32 0L28 0L28 1L25 1L25 0L23 0L23 1L21 1L21 2L23 2L23 4L22 4L22 3L19 3L19 2L20 2L20 1L19 1L19 0L17 0L17 4L22 4L22 5L21 5L21 6L20 6L20 5L19 5L19 6L18 6L18 7L19 7L19 6L20 6L20 7L21 7L21 6L22 6L22 7L23 7L23 8L24 8L24 9L23 9L23 10L20 10L20 8L16 8L16 9L15 9L15 10L12 10L12 11L9 11L9 10L8 10L8 9L11 9L11 8L10 8L10 7L11 7L11 5L12 5L12 8L14 8L14 7L15 7L15 5L16 5L16 4L15 4L15 5L14 5L14 7L13 7L13 5L12 5L12 4L14 4L14 1L15 1L15 3L16 3L16 0L14 0L14 1L12 1L12 0ZM44 0L44 1L45 1L45 0ZM8 1L8 2L9 2L9 1ZM18 1L18 2L19 2L19 1ZM24 1L24 2L25 2L25 3L24 3L24 4L25 4L25 3L26 3L26 6L25 6L25 5L22 5L22 6L23 6L23 7L24 7L24 6L25 6L25 8L26 8L26 11L28 11L28 13L27 13L27 12L26 12L26 13L27 13L27 14L25 14L25 15L26 15L26 16L24 16L24 17L26 17L26 21L27 21L27 22L26 22L26 23L25 23L25 25L27 25L27 26L26 26L26 27L29 27L29 28L31 28L31 29L32 29L32 28L31 28L31 27L33 27L33 28L34 28L34 29L33 29L33 30L32 30L32 32L31 32L31 30L30 30L30 29L28 29L28 28L26 28L26 29L25 29L25 30L23 30L23 29L24 29L24 27L23 27L23 26L24 26L24 25L22 25L22 24L21 24L21 23L22 23L22 22L23 22L23 20L22 20L22 19L24 19L24 18L22 18L22 19L21 19L21 20L20 20L20 22L19 22L19 21L18 21L18 22L19 22L19 23L18 23L18 24L16 24L16 25L13 25L13 23L14 23L14 24L15 24L15 23L16 23L16 21L17 21L17 18L18 18L18 20L19 20L19 19L20 19L20 18L18 18L18 17L23 17L23 16L19 16L19 14L18 14L18 15L17 15L17 12L16 12L16 10L17 10L17 11L18 11L18 9L16 9L16 10L15 10L15 11L14 11L14 12L13 12L13 11L12 11L12 12L13 12L13 14L16 14L16 15L15 15L15 16L14 16L14 15L12 15L12 14L11 14L11 15L9 15L9 13L8 13L8 12L9 12L9 11L5 11L5 9L1 9L1 10L4 10L4 11L3 11L3 12L2 12L2 11L1 11L1 12L2 12L2 13L3 13L3 14L2 14L2 15L3 15L3 14L4 14L4 15L5 15L5 16L7 16L7 15L6 15L6 14L7 14L7 13L8 13L8 15L9 15L9 16L10 16L10 20L8 20L8 21L9 21L9 24L10 24L10 23L11 23L11 24L12 24L12 25L9 25L9 26L8 26L8 24L7 24L7 23L6 23L6 24L5 24L5 25L6 25L6 26L8 26L8 27L9 27L9 28L8 28L8 29L9 29L9 30L8 30L8 31L9 31L9 32L11 32L11 33L10 33L10 34L11 34L11 33L12 33L12 35L10 35L10 36L12 36L12 37L11 37L11 40L9 40L9 39L8 39L8 42L9 42L9 43L8 43L8 45L10 45L10 46L13 46L13 47L10 47L10 49L11 49L11 50L10 50L10 51L8 51L8 50L7 50L7 51L6 51L6 52L7 52L7 51L8 51L8 52L9 52L9 53L8 53L8 54L7 54L7 53L6 53L6 54L7 54L7 55L6 55L6 56L7 56L7 57L6 57L6 58L7 58L7 57L8 57L8 59L9 59L9 60L8 60L8 61L9 61L9 60L10 60L10 59L13 59L13 56L16 56L16 57L14 57L14 58L16 58L16 57L17 57L17 56L18 56L18 55L19 55L19 53L15 53L15 52L14 52L14 54L13 54L13 50L12 50L12 49L15 49L15 50L14 50L14 51L16 51L16 52L19 52L19 51L20 51L20 50L18 50L18 49L21 49L21 52L20 52L20 54L21 54L21 55L22 55L22 54L23 54L23 52L24 52L24 51L28 51L28 52L26 52L26 54L24 54L24 55L23 55L23 56L26 56L26 57L27 57L27 58L28 58L28 59L27 59L27 60L26 60L26 58L25 58L25 60L26 60L26 62L29 62L29 57L30 57L30 56L29 56L29 55L30 55L30 53L28 53L28 52L31 52L31 51L32 51L32 53L33 53L33 54L36 54L36 55L33 55L33 56L32 56L32 54L31 54L31 56L32 56L32 57L31 57L31 59L30 59L30 60L31 60L31 63L28 63L28 65L25 65L25 66L22 66L22 67L25 67L25 68L26 68L26 67L27 67L27 68L28 68L28 67L27 67L27 66L28 66L28 65L29 65L29 66L30 66L30 65L29 65L29 64L31 64L31 63L32 63L32 60L33 60L33 59L35 59L35 58L36 58L36 57L38 57L38 59L39 59L39 57L41 57L41 56L39 56L39 57L38 57L38 56L36 56L36 55L41 55L41 54L37 54L37 53L38 53L38 52L37 52L37 53L36 53L36 52L35 52L35 51L36 51L36 50L37 50L37 49L38 49L38 51L39 51L39 50L41 50L41 51L40 51L40 52L39 52L39 53L42 53L42 50L41 50L41 49L42 49L42 48L43 48L43 46L42 46L42 45L41 45L41 46L42 46L42 48L41 48L41 47L40 47L40 46L39 46L39 45L40 45L40 44L41 44L41 43L40 43L40 41L41 41L41 40L44 40L44 42L43 42L43 43L44 43L44 45L45 45L45 46L44 46L44 49L43 49L43 50L44 50L44 49L45 49L45 52L44 52L44 51L43 51L43 52L44 52L44 53L43 53L43 56L42 56L42 57L43 57L43 56L44 56L44 53L45 53L45 54L46 54L46 56L47 56L47 54L48 54L48 53L45 53L45 52L46 52L46 51L47 51L47 49L48 49L48 48L49 48L49 49L50 49L50 50L49 50L49 54L51 54L51 55L49 55L49 56L50 56L50 58L49 58L49 59L47 59L47 60L49 60L49 59L50 59L50 58L52 58L52 57L53 57L53 56L52 56L52 54L54 54L54 55L55 55L55 54L54 54L54 53L53 53L53 52L51 52L51 51L53 51L53 50L52 50L52 49L53 49L53 47L55 47L55 48L54 48L54 49L55 49L55 48L56 48L56 50L58 50L58 51L59 51L59 49L60 49L60 48L59 48L59 45L60 45L60 47L61 47L61 48L62 48L62 47L63 47L63 49L64 49L64 48L65 48L65 47L66 47L66 44L65 44L65 45L63 45L63 42L66 42L66 41L63 41L63 39L65 39L65 38L66 38L66 39L67 39L67 38L66 38L66 37L64 37L64 38L63 38L63 37L61 37L61 38L62 38L62 40L61 40L61 39L60 39L60 35L59 35L59 36L56 36L56 35L55 35L55 34L56 34L56 33L57 33L57 30L59 30L59 29L60 29L60 26L59 26L59 25L60 25L60 24L61 24L61 25L62 25L62 27L61 27L61 29L62 29L62 27L63 27L63 26L64 26L64 25L66 25L66 26L67 26L67 25L68 25L68 23L67 23L67 22L66 22L66 21L65 21L65 18L63 18L63 17L66 17L66 18L67 18L67 17L66 17L66 16L65 16L65 15L64 15L64 14L63 14L63 13L62 13L62 12L61 12L61 11L58 11L58 10L60 10L60 9L61 9L61 8L60 8L60 9L59 9L59 8L58 8L58 6L57 6L57 5L56 5L56 6L55 6L55 7L54 7L54 6L53 6L53 8L49 8L49 9L50 9L50 10L47 10L47 7L46 7L46 6L45 6L45 7L46 7L46 9L45 9L45 10L42 10L42 12L41 12L41 10L40 10L40 12L39 12L39 13L38 13L38 12L37 12L37 11L39 11L39 9L38 9L38 6L37 6L37 9L38 9L38 10L36 10L36 9L35 9L35 10L34 10L34 9L32 9L32 11L30 11L30 12L32 12L32 13L29 13L29 11L28 11L28 10L30 10L30 9L31 9L31 7L32 7L32 5L31 5L31 4L27 4L27 3L28 3L28 2L27 2L27 3L26 3L26 2L25 2L25 1ZM29 2L29 3L30 3L30 2ZM48 2L48 3L49 3L49 4L50 4L50 3L49 3L49 2ZM60 3L60 5L61 5L61 3ZM10 4L10 5L9 5L9 7L10 7L10 5L11 5L11 4ZM27 5L27 6L26 6L26 7L27 7L27 6L28 6L28 7L29 7L29 6L30 6L30 7L31 7L31 6L30 6L30 5L29 5L29 6L28 6L28 5ZM33 5L33 8L36 8L36 5ZM16 6L16 7L17 7L17 6ZM34 6L34 7L35 7L35 6ZM39 6L39 7L40 7L40 6ZM42 6L42 7L43 7L43 6ZM49 6L49 7L50 7L50 6ZM56 6L56 7L55 7L55 8L53 8L53 9L51 9L51 11L50 11L50 13L49 13L49 12L45 12L45 13L47 13L47 14L49 14L49 15L48 15L48 16L45 16L45 14L44 14L44 16L42 16L42 17L41 17L41 18L39 18L39 19L37 19L37 18L38 18L38 17L37 17L37 16L36 16L36 15L38 15L38 13L36 13L36 12L34 12L34 11L33 11L33 12L34 12L34 13L33 13L33 14L34 14L34 13L36 13L36 14L35 14L35 19L36 19L36 20L38 20L38 21L35 21L35 23L36 23L36 24L35 24L35 26L36 26L36 27L35 27L35 28L36 28L36 29L34 29L34 30L33 30L33 31L34 31L34 32L32 32L32 33L31 33L31 32L29 32L29 33L28 33L28 31L27 31L27 30L28 30L28 29L27 29L27 30L25 30L25 31L26 31L26 32L25 32L25 33L24 33L24 32L23 32L23 34L22 34L22 36L23 36L23 38L27 38L27 37L28 37L28 36L29 36L29 37L30 37L30 38L29 38L29 39L30 39L30 38L31 38L31 37L32 37L32 38L34 38L34 39L33 39L33 40L32 40L32 39L31 39L31 40L32 40L32 43L31 43L31 41L30 41L30 40L28 40L28 41L30 41L30 42L27 42L27 41L26 41L26 39L25 39L25 40L24 40L24 41L23 41L23 42L20 42L20 40L21 40L21 41L22 41L22 40L21 40L21 39L22 39L22 37L21 37L21 38L20 38L20 37L19 37L19 36L17 36L17 35L20 35L20 34L19 34L19 33L20 33L20 31L21 31L21 30L22 30L22 31L23 31L23 30L22 30L22 29L21 29L21 30L20 30L20 29L19 29L19 28L20 28L20 25L21 25L21 26L22 26L22 25L21 25L21 24L20 24L20 23L19 23L19 24L18 24L18 25L16 25L16 26L13 26L13 25L12 25L12 26L13 26L13 28L14 28L14 27L16 27L16 28L17 28L17 30L18 30L18 31L16 31L16 33L17 33L17 34L14 34L14 33L13 33L13 35L14 35L14 38L13 38L13 37L12 37L12 39L13 39L13 41L10 41L10 45L12 45L12 44L13 44L13 45L14 45L14 43L15 43L15 45L17 45L17 47L16 47L16 48L17 48L17 49L18 49L18 48L17 48L17 47L18 47L18 46L20 46L20 47L19 47L19 48L20 48L20 47L22 47L22 45L21 45L21 46L20 46L20 43L21 43L21 44L23 44L23 46L24 46L24 47L23 47L23 49L22 49L22 48L21 48L21 49L22 49L22 50L23 50L23 51L22 51L22 52L23 52L23 51L24 51L24 50L26 50L26 49L24 49L24 47L25 47L25 48L26 48L26 47L25 47L25 45L26 45L26 46L27 46L27 48L29 48L29 49L30 49L30 50L29 50L29 51L30 51L30 50L33 50L33 51L34 51L34 49L31 49L31 48L29 48L29 47L30 47L30 46L31 46L31 44L32 44L32 45L33 45L33 44L37 44L37 45L36 45L36 47L35 47L35 46L34 46L34 47L35 47L35 48L36 48L36 47L37 47L37 46L38 46L38 44L40 44L40 43L38 43L38 44L37 44L37 42L38 42L38 38L37 38L37 39L35 39L35 38L36 38L36 37L38 37L38 36L37 36L37 35L39 35L39 36L40 36L40 35L41 35L41 34L43 34L43 33L44 33L44 36L42 36L42 37L41 37L41 39L39 39L39 40L41 40L41 39L42 39L42 38L43 38L43 39L45 39L45 40L47 40L47 42L46 42L46 44L47 44L47 46L45 46L45 49L46 49L46 47L47 47L47 48L48 48L48 47L47 47L47 46L50 46L50 47L51 47L51 48L50 48L50 49L51 49L51 48L52 48L52 47L53 47L53 46L55 46L55 47L58 47L58 46L57 46L57 45L59 45L59 44L60 44L60 45L61 45L61 47L62 47L62 46L63 46L63 45L61 45L61 43L62 43L62 42L63 42L63 41L62 41L62 42L61 42L61 40L60 40L60 42L61 42L61 43L59 43L59 42L56 42L56 39L57 39L57 41L59 41L59 40L58 40L58 39L57 39L57 38L56 38L56 36L55 36L55 37L53 37L53 38L52 38L52 39L51 39L51 38L49 38L49 37L51 37L51 35L50 35L50 32L52 32L52 31L50 31L50 29L51 29L51 30L53 30L53 33L51 33L51 34L53 34L53 35L54 35L54 34L55 34L55 33L56 33L56 32L55 32L55 31L56 31L56 30L55 30L55 29L56 29L56 24L58 24L58 23L56 23L56 22L55 22L55 21L56 21L56 19L57 19L57 18L56 18L56 16L58 16L58 17L59 17L59 19L58 19L58 20L57 20L57 21L59 21L59 24L60 24L60 22L61 22L61 24L62 24L62 25L63 25L63 24L64 24L64 23L65 23L65 24L67 24L67 23L66 23L66 22L63 22L63 23L62 23L62 20L60 20L60 21L59 21L59 19L61 19L61 18L62 18L62 19L63 19L63 20L64 20L64 19L63 19L63 18L62 18L62 16L64 16L64 15L63 15L63 14L62 14L62 13L60 13L60 12L59 12L59 13L60 13L60 14L59 14L59 16L58 16L58 14L57 14L57 13L58 13L58 12L57 12L57 11L56 11L56 12L55 12L55 10L58 10L58 9L56 9L56 8L57 8L57 6ZM21 8L21 9L22 9L22 8ZM28 8L28 9L27 9L27 10L28 10L28 9L30 9L30 8ZM6 9L6 10L7 10L7 9ZM24 9L24 10L23 10L23 11L24 11L24 12L21 12L21 11L20 11L20 10L19 10L19 13L20 13L20 15L21 15L21 13L24 13L24 12L25 12L25 9ZM35 10L35 11L36 11L36 10ZM52 10L52 11L51 11L51 13L50 13L50 18L49 18L49 17L45 17L45 16L44 16L44 17L43 17L43 20L42 20L42 19L41 19L41 20L40 20L40 19L39 19L39 21L41 21L41 20L42 20L42 21L43 21L43 20L44 20L44 22L43 22L43 24L44 24L44 25L43 25L43 26L46 26L46 28L44 28L44 29L45 29L45 30L44 30L44 31L43 31L43 30L42 30L42 27L37 27L37 28L40 28L40 29L37 29L37 30L40 30L40 31L43 31L43 32L39 32L39 33L38 33L38 32L37 32L37 34L39 34L39 35L40 35L40 33L43 33L43 32L44 32L44 33L45 33L45 36L44 36L44 37L45 37L45 38L47 38L47 37L45 37L45 36L50 36L50 35L48 35L48 34L49 34L49 33L45 33L45 32L46 32L46 31L45 31L45 30L47 30L47 29L46 29L46 28L49 28L49 27L50 27L50 28L52 28L52 29L53 29L53 28L54 28L54 29L55 29L55 26L54 26L54 25L55 25L55 24L54 24L54 23L55 23L55 22L54 22L54 23L51 23L51 22L53 22L53 20L55 20L55 18L52 18L52 19L50 19L50 18L51 18L51 17L53 17L53 16L54 16L54 17L55 17L55 16L56 16L56 15L57 15L57 14L56 14L56 13L57 13L57 12L56 12L56 13L55 13L55 16L54 16L54 14L53 14L53 12L54 12L54 11L53 11L53 10ZM66 10L66 11L67 11L67 10ZM43 11L43 13L42 13L42 14L41 14L41 12L40 12L40 13L39 13L39 14L40 14L40 15L39 15L39 16L40 16L40 15L42 15L42 14L43 14L43 13L44 13L44 11ZM63 11L63 12L64 12L64 11ZM3 12L3 13L5 13L5 12ZM6 12L6 13L7 13L7 12ZM14 12L14 13L16 13L16 12ZM20 12L20 13L21 13L21 12ZM23 14L23 15L24 15L24 14ZM28 14L28 15L27 15L27 16L28 16L28 15L29 15L29 17L30 17L30 18L31 18L31 16L32 16L32 19L31 19L31 20L30 20L30 19L29 19L29 22L30 22L30 23L28 23L28 25L29 25L29 27L30 27L30 26L31 26L31 25L32 25L32 26L33 26L33 27L34 27L34 26L33 26L33 25L34 25L34 24L33 24L33 25L32 25L32 23L33 23L33 22L32 22L32 21L34 21L34 20L32 20L32 19L33 19L33 16L34 16L34 15L33 15L33 16L32 16L32 15L31 15L31 14ZM51 14L51 16L53 16L53 15L52 15L52 14ZM61 14L61 15L60 15L60 16L59 16L59 17L60 17L60 16L62 16L62 14ZM11 15L11 17L12 17L12 15ZM30 15L30 16L31 16L31 15ZM15 16L15 17L13 17L13 18L12 18L12 19L13 19L13 20L14 20L14 18L15 18L15 21L16 21L16 18L17 18L17 17L18 17L18 16ZM15 17L15 18L16 18L16 17ZM27 17L27 18L28 18L28 17ZM44 18L44 19L47 19L47 20L46 20L46 21L47 21L47 22L48 22L48 21L49 21L49 22L50 22L50 21L51 21L51 20L50 20L50 19L49 19L49 20L48 20L48 18ZM27 19L27 21L28 21L28 19ZM52 19L52 20L53 20L53 19ZM10 20L10 22L12 22L12 21L11 21L11 20ZM31 20L31 21L30 21L30 22L31 22L31 21L32 21L32 20ZM13 21L13 22L14 22L14 23L15 23L15 22L14 22L14 21ZM21 21L21 22L22 22L22 21ZM37 22L37 23L39 23L39 25L38 25L38 24L37 24L37 25L38 25L38 26L41 26L41 25L42 25L42 24L41 24L41 23L42 23L42 22ZM44 22L44 23L45 23L45 24L46 24L46 25L47 25L47 26L48 26L48 27L49 27L49 26L50 26L50 25L51 25L51 24L50 24L50 25L49 25L49 24L48 24L48 23L47 23L47 24L46 24L46 22ZM23 23L23 24L24 24L24 23ZM6 24L6 25L7 25L7 24ZM29 24L29 25L30 25L30 24ZM47 24L47 25L48 25L48 26L49 26L49 25L48 25L48 24ZM53 24L53 25L54 25L54 24ZM1 25L1 27L3 27L3 29L4 29L4 32L7 32L7 31L5 31L5 30L7 30L7 29L4 29L4 28L7 28L7 27L5 27L5 26L2 26L2 25ZM18 25L18 26L17 26L17 27L19 27L19 25ZM9 26L9 27L11 27L11 26ZM51 26L51 27L52 27L52 28L53 28L53 27L54 27L54 26ZM57 26L57 27L58 27L58 28L59 28L59 27L58 27L58 26ZM21 27L21 28L22 28L22 27ZM9 28L9 29L10 29L10 30L11 30L11 29L12 29L12 30L13 30L13 31L12 31L12 32L13 32L13 31L15 31L15 30L14 30L14 29L12 29L12 28ZM48 29L48 30L49 30L49 29ZM19 30L19 31L20 31L20 30ZM29 30L29 31L30 31L30 30ZM44 31L44 32L45 32L45 31ZM47 31L47 32L48 32L48 31ZM63 31L63 32L64 32L64 31ZM17 32L17 33L18 33L18 32ZM54 32L54 33L55 33L55 32ZM5 33L5 36L8 36L8 33ZM25 33L25 34L23 34L23 36L24 36L24 35L25 35L25 37L27 37L27 36L28 36L28 35L27 35L27 34L28 34L28 33ZM29 33L29 36L31 36L31 35L32 35L32 34L31 34L31 33ZM33 33L33 36L36 36L36 33ZM61 33L61 36L64 36L64 33ZM6 34L6 35L7 35L7 34ZM25 34L25 35L26 35L26 34ZM34 34L34 35L35 35L35 34ZM62 34L62 35L63 35L63 34ZM65 34L65 35L67 35L67 36L68 36L68 35L67 35L67 34ZM15 36L15 38L18 38L18 37L17 37L17 36ZM34 37L34 38L35 38L35 37ZM39 37L39 38L40 38L40 37ZM19 38L19 40L20 40L20 38ZM6 39L6 40L7 40L7 39ZM14 39L14 42L15 42L15 43L16 43L16 44L18 44L18 43L17 43L17 42L19 42L19 41L17 41L17 40L15 40L15 39ZM47 39L47 40L49 40L49 41L48 41L48 42L49 42L49 41L50 41L50 43L48 43L48 44L49 44L49 45L50 45L50 46L51 46L51 45L53 45L53 41L54 41L54 39L53 39L53 40L51 40L51 41L50 41L50 40L49 40L49 39ZM2 40L2 42L3 42L3 43L2 43L2 44L3 44L3 45L2 45L2 46L1 46L1 47L2 47L2 46L3 46L3 45L4 45L4 44L3 44L3 43L4 43L4 42L5 42L5 43L6 43L6 44L7 44L7 43L6 43L6 42L7 42L7 41L4 41L4 42L3 42L3 40ZM33 40L33 41L35 41L35 42L33 42L33 43L35 43L35 42L36 42L36 41L35 41L35 40ZM15 41L15 42L16 42L16 41ZM24 41L24 42L23 42L23 43L24 43L24 44L26 44L26 45L27 45L27 46L28 46L28 47L29 47L29 44L31 44L31 43L28 43L28 44L26 44L26 43L25 43L25 41ZM11 42L11 43L13 43L13 42ZM44 42L44 43L45 43L45 42ZM51 42L51 43L52 43L52 42ZM54 42L54 43L55 43L55 44L54 44L54 45L55 45L55 46L56 46L56 45L57 45L57 43L56 43L56 42ZM50 44L50 45L51 45L51 44ZM55 44L55 45L56 45L56 44ZM67 45L67 46L68 46L68 45ZM32 46L32 47L33 47L33 46ZM14 47L14 48L15 48L15 47ZM39 47L39 48L38 48L38 49L39 49L39 48L40 48L40 47ZM2 48L2 49L3 49L3 48ZM8 48L8 49L9 49L9 48ZM57 48L57 49L58 49L58 48ZM23 49L23 50L24 50L24 49ZM27 49L27 50L28 50L28 49ZM35 49L35 50L36 50L36 49ZM66 49L66 50L67 50L67 51L65 51L65 52L66 52L66 54L65 54L65 55L63 55L63 56L65 56L65 58L64 58L64 59L65 59L65 60L62 60L62 58L63 58L63 57L62 57L62 56L60 56L60 54L59 54L59 55L58 55L58 54L57 54L57 55L58 55L58 56L60 56L60 57L59 57L59 59L58 59L58 58L57 58L57 59L58 59L58 60L59 60L59 59L61 59L61 60L60 60L60 61L59 61L59 62L58 62L58 61L57 61L57 62L58 62L58 63L60 63L60 66L59 66L59 68L60 68L60 69L61 69L61 68L62 68L62 69L65 69L65 68L67 68L67 69L68 69L68 68L67 68L67 66L65 66L65 64L67 64L67 62L69 62L69 61L67 61L67 59L68 59L68 60L69 60L69 59L68 59L68 58L66 58L66 56L68 56L68 55L66 55L66 54L69 54L69 53L67 53L67 52L68 52L68 50L69 50L69 49ZM11 50L11 51L12 51L12 50ZM17 50L17 51L18 51L18 50ZM50 50L50 51L51 51L51 50ZM10 52L10 53L9 53L9 54L8 54L8 55L9 55L9 56L8 56L8 57L11 57L11 56L10 56L10 55L11 55L11 54L10 54L10 53L12 53L12 52ZM33 52L33 53L34 53L34 52ZM50 52L50 53L51 53L51 52ZM27 53L27 54L28 54L28 53ZM9 54L9 55L10 55L10 54ZM17 54L17 55L18 55L18 54ZM0 55L0 57L1 57L1 55ZM2 55L2 59L3 59L3 55ZM65 55L65 56L66 56L66 55ZM35 56L35 57L36 57L36 56ZM51 56L51 57L52 57L52 56ZM54 56L54 57L55 57L55 56ZM22 57L22 58L24 58L24 57ZM32 57L32 58L33 58L33 57ZM61 57L61 58L62 58L62 57ZM0 58L0 61L1 61L1 58ZM9 58L9 59L10 59L10 58ZM17 58L17 59L19 59L19 58ZM41 58L41 59L40 59L40 62L39 62L39 60L38 60L38 62L37 62L37 63L38 63L38 62L39 62L39 63L41 63L41 64L44 64L44 66L41 66L41 67L43 67L43 68L44 68L44 66L45 66L45 67L46 67L46 66L45 66L45 64L44 64L44 63L42 63L42 62L41 62L41 60L42 60L42 61L43 61L43 60L42 60L42 58ZM15 59L15 60L16 60L16 61L15 61L15 63L14 63L14 65L13 65L13 63L12 63L12 64L11 64L11 65L9 65L9 66L11 66L11 67L12 67L12 66L14 66L14 67L15 67L15 65L16 65L16 66L17 66L17 65L18 65L18 64L17 64L17 63L18 63L18 62L19 62L19 63L20 63L20 62L19 62L19 61L18 61L18 62L17 62L17 60L16 60L16 59ZM31 59L31 60L32 60L32 59ZM3 60L3 61L5 61L5 60ZM27 60L27 61L28 61L28 60ZM65 60L65 61L66 61L66 60ZM33 61L33 64L36 64L36 61ZM61 61L61 64L64 64L64 61ZM16 62L16 63L17 63L17 62ZM34 62L34 63L35 63L35 62ZM54 62L54 63L55 63L55 64L56 64L56 63L55 63L55 62ZM62 62L62 63L63 63L63 62ZM65 62L65 63L66 63L66 62ZM25 63L25 64L26 64L26 63ZM68 63L68 65L69 65L69 63ZM16 64L16 65L17 65L17 64ZM49 64L49 65L50 65L50 64ZM31 65L31 66L32 66L32 65ZM33 65L33 66L35 66L35 67L37 67L37 66L36 66L36 65ZM62 65L62 66L61 66L61 67L62 67L62 68L63 68L63 66L64 66L64 68L65 68L65 66L64 66L64 65ZM25 66L25 67L26 67L26 66ZM48 66L48 67L50 67L50 66ZM55 67L55 68L56 68L56 67ZM33 68L33 69L34 69L34 68ZM0 0L0 7L7 7L7 0ZM1 1L1 6L6 6L6 1ZM2 2L2 5L5 5L5 2ZM62 0L62 7L69 7L69 0ZM63 1L63 6L68 6L68 1ZM64 2L64 5L67 5L67 2ZM0 62L0 69L7 69L7 62ZM1 63L1 68L6 68L6 63ZM2 64L2 67L5 67L5 64Z" fill="#000000"/></g></g></svg>
