<?xml version="1.0" encoding="UTF-8"?>
<svg xmlns="http://www.w3.org/2000/svg" version="1.1" width="300" height="300" viewBox="0 0 300 300"><rect x="0" y="0" width="300" height="300" fill="#ffffff"/><g transform="scale(4.348)"><g transform="translate(0,0)"><path fill-rule="evenodd" d="M10 0L10 1L8 1L8 3L10 3L10 1L11 1L11 2L12 2L12 3L11 3L11 4L12 4L12 7L11 7L11 5L10 5L10 4L8 4L8 8L6 8L6 9L7 9L7 10L5 10L5 9L4 9L4 8L3 8L3 9L2 9L2 8L0 8L0 10L1 10L1 11L2 11L2 12L3 12L3 16L2 16L2 13L1 13L1 12L0 12L0 13L1 13L1 16L0 16L0 17L1 17L1 16L2 16L2 18L3 18L3 19L4 19L4 20L2 20L2 19L1 19L1 18L0 18L0 19L1 19L1 20L2 20L2 21L0 21L0 23L1 23L1 24L0 24L0 26L1 26L1 28L0 28L0 30L1 30L1 31L2 31L2 32L1 32L1 33L0 33L0 36L2 36L2 37L4 37L4 38L2 38L2 39L1 39L1 40L0 40L0 41L1 41L1 40L2 40L2 39L3 39L3 40L4 40L4 43L3 43L3 42L2 42L2 44L0 44L0 45L2 45L2 46L3 46L3 45L4 45L4 46L5 46L5 47L4 47L4 48L5 48L5 47L7 47L7 48L6 48L6 49L4 49L4 51L5 51L5 50L6 50L6 51L7 51L7 52L6 52L6 53L7 53L7 54L6 54L6 55L5 55L5 52L4 52L4 54L2 54L2 56L3 56L3 57L2 57L2 59L3 59L3 57L5 57L5 58L4 58L4 59L7 59L7 58L8 58L8 57L9 57L9 58L10 58L10 61L11 61L11 60L12 60L12 59L14 59L14 61L13 61L13 62L14 62L14 63L13 63L13 66L12 66L12 67L10 67L10 66L11 66L11 65L12 65L12 62L10 62L10 63L9 63L9 60L8 60L8 63L9 63L9 64L10 64L10 65L8 65L8 66L9 66L9 67L8 67L8 69L14 69L14 68L15 68L15 69L17 69L17 68L18 68L18 69L23 69L23 68L18 68L18 67L21 67L21 66L22 66L22 67L25 67L25 66L27 66L27 65L25 65L25 64L27 64L27 63L28 63L28 64L29 64L29 65L28 65L28 66L29 66L29 68L28 68L28 69L29 69L29 68L30 68L30 69L32 69L32 65L35 65L35 66L37 66L37 65L38 65L38 66L39 66L39 67L40 67L40 68L39 68L39 69L41 69L41 67L40 67L40 66L39 66L39 65L40 65L40 64L41 64L41 66L42 66L42 65L43 65L43 64L44 64L44 66L45 66L45 67L44 67L44 68L43 68L43 67L42 67L42 68L43 68L43 69L44 69L44 68L45 68L45 69L49 69L49 67L50 67L50 68L51 68L51 69L55 69L55 68L57 68L57 69L58 69L58 66L57 66L57 65L61 65L61 66L59 66L59 67L61 67L61 68L59 68L59 69L62 69L62 67L61 67L61 66L62 66L62 65L64 65L64 66L63 66L63 67L64 67L64 69L65 69L65 63L67 63L67 64L68 64L68 65L66 65L66 66L68 66L68 67L69 67L69 64L68 64L68 63L67 63L67 62L69 62L69 61L68 61L68 60L69 60L69 58L68 58L68 59L67 59L67 56L68 56L68 57L69 57L69 56L68 56L68 55L69 55L69 54L68 54L68 55L67 55L67 56L64 56L64 55L66 55L66 54L63 54L63 52L64 52L64 51L62 51L62 52L61 52L61 50L63 50L63 48L66 48L66 47L67 47L67 46L68 46L68 49L67 49L67 51L68 51L68 50L69 50L69 46L68 46L68 43L69 43L69 39L68 39L68 37L69 37L69 36L68 36L68 35L69 35L69 27L68 27L68 25L67 25L67 24L66 24L66 23L67 23L67 21L68 21L68 19L69 19L69 18L67 18L67 20L65 20L65 19L66 19L66 18L65 18L65 17L64 17L64 15L61 15L61 16L62 16L62 18L63 18L63 21L64 21L64 22L63 22L63 23L62 23L62 22L60 22L60 23L59 23L59 24L60 24L60 23L62 23L62 24L63 24L63 25L66 25L66 26L64 26L64 27L66 27L66 26L67 26L67 28L68 28L68 29L66 29L66 30L67 30L67 31L68 31L68 32L67 32L67 34L68 34L68 35L67 35L67 36L66 36L66 34L65 34L65 32L63 32L63 31L61 31L61 30L60 30L60 29L62 29L62 30L63 30L63 29L64 29L64 30L65 30L65 29L64 29L64 28L59 28L59 27L61 27L61 26L62 26L62 25L61 25L61 26L59 26L59 25L58 25L58 24L56 24L56 23L57 23L57 21L56 21L56 20L55 20L55 19L56 19L56 18L57 18L57 20L59 20L59 21L61 21L61 20L62 20L62 19L61 19L61 18L60 18L60 17L59 17L59 18L57 18L57 17L58 17L58 15L60 15L60 14L59 14L59 12L61 12L61 10L60 10L60 11L58 11L58 10L56 10L56 8L57 8L57 4L56 4L56 3L57 3L57 2L55 2L55 1L56 1L56 0L54 0L54 3L53 3L53 1L52 1L52 0L46 0L46 1L48 1L48 2L49 2L49 4L48 4L48 5L47 5L47 6L46 6L46 3L47 3L47 2L44 2L44 3L45 3L45 4L44 4L44 5L43 5L43 4L40 4L40 5L41 5L41 6L40 6L40 7L41 7L41 8L40 8L40 9L42 9L42 8L43 8L43 9L44 9L44 10L43 10L43 11L42 11L42 10L38 10L38 11L36 11L36 9L37 9L37 5L38 5L38 7L39 7L39 4L37 4L37 2L36 2L36 4L35 4L35 1L33 1L33 0L29 0L29 1L33 1L33 3L31 3L31 2L29 2L29 3L31 3L31 4L30 4L30 5L28 5L28 0L26 0L26 1L25 1L25 0L20 0L20 1L19 1L19 0L17 0L17 1L16 1L16 0ZM36 0L36 1L38 1L38 2L39 2L39 3L42 3L42 1L43 1L43 0L41 0L41 2L40 2L40 1L39 1L39 0ZM57 0L57 1L61 1L61 0ZM18 1L18 2L19 2L19 3L18 3L18 5L17 5L17 3L16 3L16 4L15 4L15 5L13 5L13 7L14 7L14 9L17 9L17 10L14 10L14 11L18 11L18 12L19 12L19 10L20 10L20 11L21 11L21 10L22 10L22 11L25 11L25 13L22 13L22 14L23 14L23 15L21 15L21 12L20 12L20 13L18 13L18 14L16 14L16 13L17 13L17 12L16 12L16 13L15 13L15 14L16 14L16 15L15 15L15 16L14 16L14 15L13 15L13 16L12 16L12 13L13 13L13 12L11 12L11 10L13 10L13 9L11 9L11 7L10 7L10 5L9 5L9 7L10 7L10 8L8 8L8 13L5 13L5 12L7 12L7 11L5 11L5 10L3 10L3 12L4 12L4 14L8 14L8 16L9 16L9 17L6 17L6 16L7 16L7 15L4 15L4 17L6 17L6 18L5 18L5 20L4 20L4 21L2 21L2 23L4 23L4 24L2 24L2 25L1 25L1 26L2 26L2 27L4 27L4 28L1 28L1 29L2 29L2 31L3 31L3 30L4 30L4 31L5 31L5 32L8 32L8 31L9 31L9 34L10 34L10 35L9 35L9 36L10 36L10 37L9 37L9 38L10 38L10 39L8 39L8 40L7 40L7 39L6 39L6 38L7 38L7 37L5 37L5 38L4 38L4 40L7 40L7 41L5 41L5 44L7 44L7 45L6 45L6 46L7 46L7 45L8 45L8 49L6 49L6 50L9 50L9 46L10 46L10 45L11 45L11 47L12 47L12 46L13 46L13 50L14 50L14 48L15 48L15 47L14 47L14 46L16 46L16 47L17 47L17 48L18 48L18 50L16 50L16 49L15 49L15 51L13 51L13 52L12 52L12 54L15 54L15 55L14 55L14 57L15 57L15 60L16 60L16 56L15 56L15 55L17 55L17 59L18 59L18 60L19 60L19 61L20 61L20 62L19 62L19 63L17 63L17 64L15 64L15 63L14 63L14 64L15 64L15 66L14 66L14 67L18 67L18 66L19 66L19 65L20 65L20 64L19 64L19 63L20 63L20 62L21 62L21 64L22 64L22 65L23 65L23 63L24 63L24 64L25 64L25 63L24 63L24 62L25 62L25 60L27 60L27 61L26 61L26 62L28 62L28 63L30 63L30 64L31 64L31 65L32 65L32 61L30 61L30 62L28 62L28 60L27 60L27 59L26 59L26 57L27 57L27 58L28 58L28 59L29 59L29 60L32 60L32 59L30 59L30 58L31 58L31 57L33 57L33 58L34 58L34 59L36 59L36 60L37 60L37 59L36 59L36 58L38 58L38 63L37 63L37 64L38 64L38 63L39 63L39 61L40 61L40 60L42 60L42 61L41 61L41 62L43 62L43 63L44 63L44 62L45 62L45 65L46 65L46 68L48 68L48 65L47 65L47 62L48 62L48 63L51 63L51 64L50 64L50 65L49 65L49 66L50 66L50 65L51 65L51 68L52 68L52 67L54 67L54 68L55 68L55 67L54 67L54 66L56 66L56 65L54 65L54 66L53 66L53 64L56 64L56 62L58 62L58 64L60 64L60 60L59 60L59 59L60 59L60 58L61 58L61 60L64 60L64 59L65 59L65 58L66 58L66 57L64 57L64 56L63 56L63 55L61 55L61 54L62 54L62 53L60 53L60 50L58 50L58 49L61 49L61 48L62 48L62 46L63 46L63 47L66 47L66 46L67 46L67 45L66 45L66 46L65 46L65 45L62 45L62 43L61 43L61 42L62 42L62 39L63 39L63 37L62 37L62 38L61 38L61 37L59 37L59 36L60 36L60 31L59 31L59 28L58 28L58 29L57 29L57 31L58 31L58 32L56 32L56 31L54 31L54 32L56 32L56 33L58 33L58 34L59 34L59 35L57 35L57 34L55 34L55 33L54 33L54 35L53 35L53 33L49 33L49 34L47 34L47 33L48 33L48 32L49 32L49 31L50 31L50 32L51 32L51 31L50 31L50 29L51 29L51 25L50 25L50 24L49 24L49 25L48 25L48 24L47 24L47 21L48 21L48 22L49 22L49 23L50 23L50 22L53 22L53 23L54 23L54 25L53 25L53 26L54 26L54 28L53 28L53 27L52 27L52 29L54 29L54 30L55 30L55 29L56 29L56 28L55 28L55 26L58 26L58 25L55 25L55 22L56 22L56 21L55 21L55 20L54 20L54 21L51 21L51 20L53 20L53 17L54 17L54 19L55 19L55 18L56 18L56 16L57 16L57 14L58 14L58 13L57 13L57 14L56 14L56 15L54 15L54 16L53 16L53 15L51 15L51 13L50 13L50 14L49 14L49 13L47 13L47 12L48 12L48 11L49 11L49 12L51 12L51 10L52 10L52 11L53 11L53 10L55 10L55 11L54 11L54 12L55 12L55 13L52 13L52 14L55 14L55 13L56 13L56 12L58 12L58 11L56 11L56 10L55 10L55 8L56 8L56 4L55 4L55 3L54 3L54 4L55 4L55 5L54 5L54 6L53 6L53 7L54 7L54 6L55 6L55 8L53 8L53 9L48 9L48 8L49 8L49 7L50 7L50 8L52 8L52 6L51 6L51 7L50 7L50 4L52 4L52 5L53 5L53 3L52 3L52 1L49 1L49 2L50 2L50 4L49 4L49 5L48 5L48 6L47 6L47 9L46 9L46 8L45 8L45 7L46 7L46 6L45 6L45 5L44 5L44 6L43 6L43 5L42 5L42 6L41 6L41 7L42 7L42 6L43 6L43 8L44 8L44 9L45 9L45 10L46 10L46 11L45 11L45 13L43 13L43 12L44 12L44 11L43 11L43 12L41 12L41 11L40 11L40 17L39 17L39 19L41 19L41 17L42 17L42 18L43 18L43 19L42 19L42 21L41 21L41 23L40 23L40 24L41 24L41 26L40 26L40 25L39 25L39 24L38 24L38 23L37 23L37 25L35 25L35 26L37 26L37 25L38 25L38 28L39 28L39 31L40 31L40 32L42 32L42 33L41 33L41 35L40 35L40 36L41 36L41 37L40 37L40 38L39 38L39 37L37 37L37 38L36 38L36 37L35 37L35 38L32 38L32 36L31 36L31 37L29 37L29 38L28 38L28 31L29 31L29 33L30 33L30 31L29 31L29 27L30 27L30 26L31 26L31 28L32 28L32 29L30 29L30 30L31 30L31 31L32 31L32 32L36 32L36 31L35 31L35 30L34 30L34 29L36 29L36 30L37 30L37 35L38 35L38 34L40 34L40 33L38 33L38 29L36 29L36 28L37 28L37 27L33 27L33 26L32 26L32 25L34 25L34 24L35 24L35 23L34 23L34 22L35 22L35 21L34 21L34 22L33 22L33 20L34 20L34 18L35 18L35 15L36 15L36 16L37 16L37 18L38 18L38 15L36 15L36 14L39 14L39 13L37 13L37 12L36 12L36 11L35 11L35 9L34 9L34 13L35 13L35 15L34 15L34 17L32 17L32 16L33 16L33 13L29 13L29 14L28 14L28 13L27 13L27 14L25 14L25 13L26 13L26 10L27 10L27 11L28 11L28 12L29 12L29 11L30 11L30 10L31 10L31 11L32 11L32 6L31 6L31 8L29 8L29 9L27 9L27 8L26 8L26 6L27 6L27 7L28 7L28 6L27 6L27 3L26 3L26 2L27 2L27 1L26 1L26 2L25 2L25 1L24 1L24 2L25 2L25 3L24 3L24 4L25 4L25 5L26 5L26 6L25 6L25 7L24 7L24 5L22 5L22 6L21 6L21 7L20 7L20 3L21 3L21 2L22 2L22 1L20 1L20 2L19 2L19 1ZM14 2L14 3L12 3L12 4L14 4L14 3L15 3L15 2ZM58 2L58 3L59 3L59 2ZM22 3L22 4L23 4L23 3ZM25 3L25 4L26 4L26 3ZM60 3L60 5L61 5L61 3ZM31 4L31 5L32 5L32 4ZM58 4L58 9L59 9L59 4ZM18 5L18 7L19 7L19 8L17 8L17 9L18 9L18 10L19 10L19 9L20 9L20 7L19 7L19 5ZM33 5L33 8L36 8L36 5ZM14 6L14 7L15 7L15 8L16 8L16 7L17 7L17 6L16 6L16 7L15 7L15 6ZM22 6L22 9L24 9L24 10L26 10L26 8L24 8L24 7L23 7L23 6ZM29 6L29 7L30 7L30 6ZM34 6L34 7L35 7L35 6ZM44 6L44 7L45 7L45 6ZM48 6L48 7L49 7L49 6ZM60 6L60 7L61 7L61 6ZM62 8L62 9L63 9L63 10L62 10L62 11L64 11L64 14L66 14L66 15L68 15L68 16L66 16L66 17L68 17L68 16L69 16L69 15L68 15L68 13L69 13L69 12L68 12L68 11L69 11L69 10L68 10L68 8L66 8L66 9L67 9L67 10L68 10L68 11L67 11L67 12L66 12L66 10L65 10L65 8ZM29 9L29 10L30 10L30 9ZM9 10L9 11L10 11L10 10ZM64 10L64 11L65 11L65 10ZM4 11L4 12L5 12L5 11ZM10 12L10 13L8 13L8 14L9 14L9 16L10 16L10 17L9 17L9 18L6 18L6 19L7 19L7 20L5 20L5 21L4 21L4 23L5 23L5 24L4 24L4 26L5 26L5 29L4 29L4 30L5 30L5 29L7 29L7 28L6 28L6 27L7 27L7 26L5 26L5 25L7 25L7 24L8 24L8 26L9 26L9 24L8 24L8 23L10 23L10 21L11 21L11 23L12 23L12 24L10 24L10 26L12 26L12 27L13 27L13 26L14 26L14 27L15 27L15 24L16 24L16 25L17 25L17 26L18 26L18 25L19 25L19 28L17 28L17 27L16 27L16 28L12 28L12 29L11 29L11 27L8 27L8 30L9 30L9 31L10 31L10 33L11 33L11 31L10 31L10 30L9 30L9 28L10 28L10 29L11 29L11 30L13 30L13 29L16 29L16 28L17 28L17 29L18 29L18 31L19 31L19 28L20 28L20 31L21 31L21 34L20 34L20 32L16 32L16 33L19 33L19 34L18 34L18 35L17 35L17 34L16 34L16 35L14 35L14 31L12 31L12 33L13 33L13 36L11 36L11 37L10 37L10 38L11 38L11 39L12 39L12 40L13 40L13 42L15 42L15 44L17 44L17 43L18 43L18 42L16 42L16 39L17 39L17 41L19 41L19 39L20 39L20 42L19 42L19 44L18 44L18 45L17 45L17 47L18 47L18 48L20 48L20 49L19 49L19 50L18 50L18 51L17 51L17 52L15 52L15 53L17 53L17 54L19 54L19 56L18 56L18 57L19 57L19 56L20 56L20 54L21 54L21 58L20 58L20 61L24 61L24 60L21 60L21 58L22 58L22 54L24 54L24 55L23 55L23 56L24 56L24 57L23 57L23 59L25 59L25 58L24 58L24 57L25 57L25 56L28 56L28 55L29 55L29 54L30 54L30 55L31 55L31 54L32 54L32 51L33 51L33 50L34 50L34 51L37 51L37 50L38 50L38 52L37 52L37 53L36 53L36 55L37 55L37 53L38 53L38 52L39 52L39 53L40 53L40 52L42 52L42 53L41 53L41 54L40 54L40 55L39 55L39 54L38 54L38 55L39 55L39 56L37 56L37 57L39 57L39 58L40 58L40 59L39 59L39 60L40 60L40 59L41 59L41 56L40 56L40 55L41 55L41 54L42 54L42 53L43 53L43 54L44 54L44 53L45 53L45 51L46 51L46 53L47 53L47 54L46 54L46 55L44 55L44 56L43 56L43 58L42 58L42 59L44 59L44 60L43 60L43 61L45 61L45 60L46 60L46 59L45 59L45 58L44 58L44 56L45 56L45 57L46 57L46 56L47 56L47 54L48 54L48 55L49 55L49 56L48 56L48 57L49 57L49 58L48 58L48 60L47 60L47 61L46 61L46 62L47 62L47 61L49 61L49 62L50 62L50 61L49 61L49 60L50 60L50 59L49 59L49 58L50 58L50 56L51 56L51 55L50 55L50 54L51 54L51 53L52 53L52 52L53 52L53 53L55 53L55 56L52 56L52 57L56 57L56 59L55 59L55 58L54 58L54 59L55 59L55 60L53 60L53 59L52 59L52 58L51 58L51 59L52 59L52 60L51 60L51 61L52 61L52 63L55 63L55 62L53 62L53 61L58 61L58 62L59 62L59 60L58 60L58 58L57 58L57 57L60 57L60 56L58 56L58 55L57 55L57 51L58 51L58 53L59 53L59 51L58 51L58 50L57 50L57 48L58 48L58 46L57 46L57 47L55 47L55 50L54 50L54 51L55 51L55 50L57 50L57 51L56 51L56 53L55 53L55 52L53 52L53 50L52 50L52 51L51 51L51 50L50 50L50 48L51 48L51 49L53 49L53 48L51 48L51 47L50 47L50 48L46 48L46 47L44 47L44 46L45 46L45 45L44 45L44 44L45 44L45 43L46 43L46 44L47 44L47 43L48 43L48 45L50 45L50 44L51 44L51 46L52 46L52 47L54 47L54 45L56 45L56 44L55 44L55 43L53 43L53 42L54 42L54 41L55 41L55 40L56 40L56 41L57 41L57 37L58 37L58 39L59 39L59 40L58 40L58 41L59 41L59 40L61 40L61 39L59 39L59 37L58 37L58 36L56 36L56 35L54 35L54 36L55 36L55 37L56 37L56 39L55 39L55 38L54 38L54 40L53 40L53 39L52 39L52 38L53 38L53 36L52 36L52 34L51 34L51 35L50 35L50 34L49 34L49 35L50 35L50 37L49 37L49 36L47 36L47 37L46 37L46 38L47 38L47 37L48 37L48 39L45 39L45 36L44 36L44 34L45 34L45 35L46 35L46 34L45 34L45 33L44 33L44 32L45 32L45 31L49 31L49 27L50 27L50 25L49 25L49 26L48 26L48 27L47 27L47 25L46 25L46 23L44 23L44 22L43 22L43 24L42 24L42 23L41 23L41 24L42 24L42 25L46 25L46 27L45 27L45 26L42 26L42 27L41 27L41 28L42 28L42 29L43 29L43 28L42 28L42 27L44 27L44 30L43 30L43 31L44 31L44 32L43 32L43 35L42 35L42 36L43 36L43 39L42 39L42 38L41 38L41 39L39 39L39 40L38 40L38 42L39 42L39 43L37 43L37 44L36 44L36 45L35 45L35 43L36 43L36 41L35 41L35 42L32 42L32 41L34 41L34 40L35 40L35 39L36 39L36 38L35 38L35 39L32 39L32 40L31 40L31 39L27 39L27 40L26 40L26 41L25 41L25 40L24 40L24 38L23 38L23 37L25 37L25 38L27 38L27 35L25 35L25 34L26 34L26 33L27 33L27 31L26 31L26 30L27 30L27 27L26 27L26 29L25 29L25 28L24 28L24 27L25 27L25 26L27 26L27 25L28 25L28 26L29 26L29 25L28 25L28 24L30 24L30 25L31 25L31 24L30 24L30 23L32 23L32 24L33 24L33 23L32 23L32 22L31 22L31 21L32 21L32 18L30 18L30 17L31 17L31 16L30 16L30 15L32 15L32 14L29 14L29 15L28 15L28 14L27 14L27 16L23 16L23 18L22 18L22 16L21 16L21 15L20 15L20 14L19 14L19 15L16 15L16 16L17 16L17 17L16 17L16 18L15 18L15 19L16 19L16 18L17 18L17 17L18 17L18 16L19 16L19 17L21 17L21 18L22 18L22 19L23 19L23 20L21 20L21 19L19 19L19 20L18 20L18 19L17 19L17 21L18 21L18 23L17 23L17 24L16 24L16 20L15 20L15 21L14 21L14 19L13 19L13 21L12 21L12 20L11 20L11 19L12 19L12 18L13 18L13 17L11 17L11 16L10 16L10 15L11 15L11 14L10 14L10 13L11 13L11 12ZM35 12L35 13L36 13L36 12ZM65 12L65 13L66 13L66 12ZM67 12L67 13L68 13L68 12ZM41 13L41 14L42 14L42 13ZM46 13L46 14L47 14L47 17L49 17L49 15L48 15L48 14L47 14L47 13ZM61 13L61 14L62 14L62 13ZM43 14L43 15L41 15L41 16L42 16L42 17L43 17L43 18L45 18L45 17L46 17L46 16L45 16L45 15L44 15L44 14ZM50 15L50 19L51 19L51 18L52 18L52 16L51 16L51 15ZM28 16L28 18L29 18L29 16ZM43 16L43 17L44 17L44 16ZM24 17L24 18L23 18L23 19L25 19L25 20L26 20L26 21L27 21L27 19L26 19L26 17ZM10 18L10 19L11 19L11 18ZM47 18L47 19L46 19L46 20L45 20L45 21L46 21L46 20L48 20L48 21L50 21L50 20L49 20L49 18ZM59 18L59 19L60 19L60 20L61 20L61 19L60 19L60 18ZM8 19L8 21L10 21L10 20L9 20L9 19ZM36 19L36 22L38 22L38 20L37 20L37 19ZM19 20L19 22L21 22L21 20ZM23 20L23 21L22 21L22 22L23 22L23 23L24 23L24 24L25 24L25 25L24 25L24 26L22 26L22 30L23 30L23 27L24 27L24 26L25 26L25 25L26 25L26 24L25 24L25 23L27 23L27 24L28 24L28 22L29 22L29 23L30 23L30 22L29 22L29 21L30 21L30 20L28 20L28 22L25 22L25 21L24 21L24 20ZM43 20L43 21L44 21L44 20ZM6 21L6 22L7 22L7 23L6 23L6 24L7 24L7 23L8 23L8 22L7 22L7 21ZM14 22L14 23L15 23L15 22ZM24 22L24 23L25 23L25 22ZM64 22L64 24L65 24L65 22ZM68 22L68 24L69 24L69 22ZM18 23L18 24L20 24L20 28L21 28L21 24L20 24L20 23ZM22 24L22 25L23 25L23 24ZM12 25L12 26L13 26L13 25ZM32 27L32 28L33 28L33 27ZM46 27L46 28L45 28L45 30L44 30L44 31L45 31L45 30L47 30L47 29L46 29L46 28L47 28L47 27ZM24 29L24 30L25 30L25 29ZM6 30L6 31L7 31L7 30ZM15 30L15 31L17 31L17 30ZM32 30L32 31L33 31L33 30ZM40 30L40 31L41 31L41 30ZM25 31L25 32L26 32L26 31ZM52 31L52 32L53 32L53 31ZM3 32L3 34L2 34L2 33L1 33L1 35L3 35L3 34L4 34L4 32ZM23 32L23 33L22 33L22 34L25 34L25 33L24 33L24 32ZM5 33L5 36L8 36L8 33ZM31 33L31 34L29 34L29 35L31 35L31 34L32 34L32 33ZM33 33L33 36L36 36L36 33ZM61 33L61 36L64 36L64 33ZM6 34L6 35L7 35L7 34ZM11 34L11 35L12 35L12 34ZM19 34L19 35L20 35L20 34ZM34 34L34 35L35 35L35 34ZM62 34L62 35L63 35L63 34ZM21 35L21 36L23 36L23 35ZM24 35L24 36L25 36L25 35ZM15 36L15 37L14 37L14 39L13 39L13 37L12 37L12 39L13 39L13 40L14 40L14 41L15 41L15 40L14 40L14 39L16 39L16 37L17 37L17 39L18 39L18 38L19 38L19 37L17 37L17 36ZM0 37L0 38L1 38L1 37ZM20 37L20 38L21 38L21 42L22 42L22 43L23 43L23 45L18 45L18 47L19 47L19 46L20 46L20 47L23 47L23 46L24 46L24 48L25 48L25 49L23 49L23 51L22 51L22 53L23 53L23 52L25 52L25 53L24 53L24 54L25 54L25 55L24 55L24 56L25 56L25 55L27 55L27 54L29 54L29 53L27 53L27 54L26 54L26 51L27 51L27 49L26 49L26 47L25 47L25 45L24 45L24 43L25 43L25 44L26 44L26 46L27 46L27 48L29 48L29 47L30 47L30 48L31 48L31 49L32 49L32 50L30 50L30 49L29 49L29 50L30 50L30 51L28 51L28 52L31 52L31 51L32 51L32 50L33 50L33 48L35 48L35 50L36 50L36 49L38 49L38 50L39 50L39 51L41 51L41 50L44 50L44 49L42 49L42 48L41 48L41 47L40 47L40 48L41 48L41 50L40 50L40 49L38 49L38 47L37 47L37 48L35 48L35 47L36 47L36 46L35 46L35 45L32 45L32 44L31 44L31 45L30 45L30 44L29 44L29 45L28 45L28 44L26 44L26 43L27 43L27 42L31 42L31 43L32 43L32 42L31 42L31 40L30 40L30 41L29 41L29 40L27 40L27 41L26 41L26 43L25 43L25 42L23 42L23 41L24 41L24 40L23 40L23 39L22 39L22 37ZM50 37L50 38L49 38L49 39L48 39L48 40L49 40L49 39L50 39L50 38L52 38L52 37ZM66 37L66 41L67 41L67 42L68 42L68 41L67 41L67 37ZM37 38L37 39L38 39L38 38ZM44 39L44 40L43 40L43 41L42 41L42 42L43 42L43 43L41 43L41 42L40 42L40 41L41 41L41 40L40 40L40 41L39 41L39 42L40 42L40 43L41 43L41 44L40 44L40 45L42 45L42 47L43 47L43 48L44 48L44 47L43 47L43 45L42 45L42 44L44 44L44 43L45 43L45 42L46 42L46 43L47 43L47 42L48 42L48 41L47 41L47 40L46 40L46 41L45 41L45 42L44 42L44 40L45 40L45 39ZM51 39L51 40L52 40L52 41L51 41L51 44L52 44L52 42L53 42L53 40L52 40L52 39ZM8 40L8 41L9 41L9 40ZM10 40L10 41L11 41L11 40ZM49 41L49 43L50 43L50 41ZM63 41L63 42L65 42L65 43L64 43L64 44L67 44L67 43L66 43L66 42L65 42L65 41ZM0 42L0 43L1 43L1 42ZM6 42L6 43L8 43L8 42ZM11 42L11 43L10 43L10 44L9 44L9 45L10 45L10 44L11 44L11 43L12 43L12 45L14 45L14 44L13 44L13 43L12 43L12 42ZM56 42L56 43L57 43L57 44L58 44L58 43L59 43L59 45L61 45L61 46L60 46L60 47L59 47L59 48L61 48L61 46L62 46L62 45L61 45L61 43L59 43L59 42L58 42L58 43L57 43L57 42ZM20 43L20 44L21 44L21 43ZM33 43L33 44L34 44L34 43ZM2 44L2 45L3 45L3 44ZM37 44L37 46L39 46L39 45L38 45L38 44ZM53 44L53 45L52 45L52 46L53 46L53 45L54 45L54 44ZM31 45L31 48L33 48L33 47L35 47L35 46L33 46L33 47L32 47L32 45ZM0 46L0 47L1 47L1 48L3 48L3 47L1 47L1 46ZM28 46L28 47L29 47L29 46ZM11 48L11 49L10 49L10 51L8 51L8 52L7 52L7 53L8 53L8 52L9 52L9 53L10 53L10 51L12 51L12 48ZM45 48L45 50L46 50L46 48ZM0 49L0 50L1 50L1 49ZM25 49L25 51L26 51L26 49ZM48 49L48 50L47 50L47 52L49 52L49 53L48 53L48 54L50 54L50 53L51 53L51 52L49 52L49 49ZM64 49L64 50L65 50L65 51L66 51L66 50L65 50L65 49ZM2 50L2 51L0 51L0 54L1 54L1 53L3 53L3 52L2 52L2 51L3 51L3 50ZM19 50L19 51L18 51L18 52L17 52L17 53L18 53L18 52L20 52L20 50ZM43 52L43 53L44 53L44 52ZM65 52L65 53L69 53L69 52ZM19 53L19 54L20 54L20 53ZM30 53L30 54L31 54L31 53ZM8 54L8 56L9 56L9 54ZM33 54L33 55L32 55L32 56L33 56L33 57L35 57L35 56L34 56L34 55L35 55L35 54ZM53 54L53 55L54 55L54 54ZM59 54L59 55L60 55L60 54ZM0 55L0 61L1 61L1 55ZM6 55L6 56L7 56L7 55ZM10 55L10 58L12 58L12 57L13 57L13 55L12 55L12 56L11 56L11 55ZM56 55L56 57L57 57L57 55ZM29 56L29 57L31 57L31 56ZM62 56L62 57L63 57L63 56ZM6 57L6 58L7 58L7 57ZM62 58L62 59L64 59L64 58ZM66 59L66 60L65 60L65 62L67 62L67 59ZM3 60L3 61L5 61L5 60ZM6 60L6 61L7 61L7 60ZM15 61L15 62L16 62L16 61ZM17 61L17 62L18 62L18 61ZM33 61L33 64L36 64L36 61ZM61 61L61 64L64 64L64 61ZM30 62L30 63L31 63L31 62ZM34 62L34 63L35 63L35 62ZM62 62L62 63L63 63L63 62ZM10 63L10 64L11 64L11 63ZM18 64L18 65L17 65L17 66L18 66L18 65L19 65L19 64ZM51 64L51 65L52 65L52 64ZM24 65L24 66L25 66L25 65ZM33 66L33 67L34 67L34 69L38 69L38 68L35 68L35 67L34 67L34 66ZM12 67L12 68L13 68L13 67ZM26 67L26 68L27 68L27 67ZM30 67L30 68L31 68L31 67ZM66 68L66 69L68 69L68 68ZM0 0L0 7L7 7L7 0ZM1 1L1 6L6 6L6 1ZM2 2L2 5L5 5L5 2ZM62 0L62 7L69 7L69 0ZM63 1L63 6L68 6L68 1ZM64 2L64 5L67 5L67 2ZM0 62L0 69L7 69L7 62ZM1 63L1 68L6 68L6 63ZM2 64L2 67L5 67L5 64Z" fill="#000000"/></g></g></svg>
