<?xml version="1.0" encoding="UTF-8"?>
<svg xmlns="http://www.w3.org/2000/svg" version="1.1" width="300" height="300" viewBox="0 0 300 300"><rect x="0" y="0" width="300" height="300" fill="#ffffff"/><g transform="scale(4.348)"><g transform="translate(0,0)"><path fill-rule="evenodd" d="M8 0L8 4L9 4L9 5L8 5L8 7L9 7L9 8L10 8L10 7L11 7L11 6L12 6L12 7L13 7L13 8L12 8L12 10L11 10L11 12L13 12L13 13L14 13L14 14L12 14L12 16L13 16L13 15L14 15L14 16L15 16L15 18L13 18L13 17L12 17L12 18L11 18L11 17L9 17L9 19L8 19L8 18L5 18L5 19L3 19L3 18L2 18L2 17L4 17L4 16L3 16L3 15L4 15L4 14L5 14L5 17L7 17L7 16L6 16L6 15L8 15L8 14L9 14L9 15L10 15L10 16L11 16L11 15L10 15L10 13L7 13L7 12L8 12L8 11L7 11L7 10L9 10L9 11L10 11L10 9L7 9L7 8L4 8L4 9L2 9L2 8L0 8L0 9L1 9L1 10L0 10L0 11L1 11L1 12L0 12L0 13L1 13L1 14L2 14L2 11L3 11L3 13L4 13L4 14L3 14L3 15L1 15L1 16L0 16L0 18L2 18L2 19L0 19L0 20L1 20L1 21L2 21L2 24L1 24L1 23L0 23L0 26L1 26L1 25L2 25L2 24L3 24L3 27L1 27L1 28L0 28L0 29L1 29L1 30L0 30L0 32L1 32L1 31L2 31L2 30L3 30L3 31L4 31L4 32L3 32L3 33L4 33L4 35L0 35L0 42L1 42L1 43L0 43L0 44L1 44L1 43L3 43L3 45L0 45L0 48L1 48L1 50L0 50L0 51L2 51L2 53L1 53L1 54L0 54L0 55L2 55L2 54L3 54L3 56L0 56L0 61L1 61L1 58L2 58L2 59L3 59L3 58L2 58L2 57L3 57L3 56L6 56L6 57L5 57L5 58L4 58L4 59L8 59L8 58L9 58L9 61L8 61L8 62L9 62L9 63L8 63L8 65L9 65L9 64L10 64L10 66L9 66L9 67L8 67L8 69L9 69L9 67L11 67L11 68L10 68L10 69L11 69L11 68L12 68L12 67L13 67L13 68L16 68L16 69L20 69L20 68L18 68L18 67L20 67L20 66L21 66L21 69L22 69L22 66L24 66L24 68L25 68L25 67L26 67L26 66L27 66L27 67L28 67L28 66L31 66L31 67L30 67L30 68L29 68L29 69L31 69L31 67L33 67L33 68L32 68L32 69L33 69L33 68L34 68L34 69L35 69L35 66L34 66L34 65L36 65L36 66L37 66L37 67L39 67L39 68L38 68L38 69L40 69L40 68L41 68L41 69L42 69L42 68L43 68L43 63L44 63L44 69L46 69L46 67L45 67L45 63L46 63L46 64L47 64L47 65L50 65L50 66L49 66L49 67L47 67L47 69L52 69L52 68L54 68L54 69L55 69L55 68L56 68L56 69L58 69L58 68L57 68L57 67L56 67L56 66L55 66L55 65L54 65L54 62L56 62L56 65L57 65L57 66L58 66L58 65L59 65L59 64L60 64L60 66L62 66L62 67L61 67L61 68L60 68L60 67L59 67L59 68L60 68L60 69L62 69L62 67L63 67L63 69L64 69L64 67L65 67L65 63L66 63L66 62L67 62L67 63L68 63L68 62L69 62L69 61L67 61L67 60L65 60L65 59L68 59L68 60L69 60L69 59L68 59L68 58L69 58L69 56L68 56L68 55L67 55L67 54L66 54L66 55L67 55L67 56L64 56L64 55L65 55L65 54L64 54L64 53L63 53L63 51L60 51L60 53L61 53L61 52L62 52L62 53L63 53L63 54L64 54L64 55L61 55L61 54L60 54L60 58L61 58L61 59L59 59L59 58L58 58L58 57L59 57L59 55L58 55L58 53L59 53L59 52L58 52L58 53L57 53L57 52L56 52L56 51L58 51L58 48L60 48L60 49L59 49L59 50L60 50L60 49L62 49L62 50L64 50L64 49L63 49L63 48L62 48L62 45L63 45L63 47L64 47L64 48L65 48L65 47L66 47L66 46L67 46L67 44L66 44L66 46L64 46L64 45L63 45L63 44L62 44L62 42L63 42L63 43L65 43L65 42L67 42L67 43L68 43L68 44L69 44L69 43L68 43L68 42L69 42L69 40L68 40L68 42L67 42L67 41L65 41L65 40L64 40L64 39L65 39L65 38L66 38L66 37L65 37L65 33L66 33L66 34L67 34L67 35L68 35L68 38L67 38L67 39L68 39L68 38L69 38L69 35L68 35L68 30L65 30L65 29L66 29L66 27L67 27L67 28L68 28L68 29L69 29L69 27L68 27L68 24L69 24L69 23L68 23L68 22L69 22L69 20L68 20L68 18L67 18L67 20L68 20L68 22L66 22L66 17L67 17L67 16L68 16L68 17L69 17L69 15L68 15L68 14L69 14L69 12L68 12L68 13L67 13L67 16L66 16L66 17L64 17L64 16L65 16L65 15L63 15L63 13L64 13L64 14L65 14L65 13L64 13L64 11L66 11L66 10L67 10L67 11L68 11L68 10L69 10L69 8L65 8L65 9L64 9L64 8L63 8L63 9L62 9L62 10L63 10L63 9L64 9L64 11L62 11L62 12L61 12L61 9L59 9L59 11L58 11L58 12L57 12L57 11L56 11L56 13L54 13L54 11L53 11L53 10L56 10L56 9L58 9L58 8L59 8L59 4L58 4L58 7L57 7L57 4L56 4L56 3L59 3L59 2L57 2L57 1L61 1L61 0L56 0L56 1L55 1L55 0L53 0L53 1L55 1L55 2L52 2L52 0L50 0L50 1L48 1L48 0L47 0L47 1L46 1L46 0L45 0L45 1L44 1L44 0L40 0L40 2L39 2L39 3L40 3L40 5L41 5L41 6L40 6L40 8L39 8L39 9L38 9L38 10L37 10L37 8L38 8L38 7L39 7L39 4L38 4L38 3L37 3L37 2L38 2L38 1L39 1L39 0L38 0L38 1L36 1L36 0L35 0L35 1L34 1L34 0L31 0L31 1L30 1L30 0L23 0L23 1L22 1L22 0L17 0L17 1L20 1L20 2L21 2L21 1L22 1L22 4L21 4L21 3L19 3L19 4L18 4L18 8L17 8L17 6L16 6L16 7L15 7L15 6L14 6L14 7L13 7L13 6L12 6L12 5L16 5L16 4L13 4L13 3L12 3L12 1L13 1L13 0ZM14 1L14 2L15 2L15 1ZM27 1L27 3L26 3L26 4L25 4L25 5L26 5L26 6L25 6L25 7L24 7L24 5L21 5L21 7L20 7L20 4L19 4L19 7L20 7L20 8L19 8L19 11L17 11L17 9L16 9L16 8L13 8L13 9L14 9L14 10L13 10L13 12L14 12L14 13L15 13L15 12L14 12L14 10L15 10L15 11L16 11L16 13L17 13L17 12L19 12L19 16L18 16L18 17L17 17L17 18L18 18L18 17L19 17L19 19L20 19L20 18L21 18L21 20L22 20L22 21L21 21L21 23L20 23L20 24L21 24L21 23L22 23L22 24L23 24L23 23L24 23L24 24L26 24L26 20L27 20L27 21L28 21L28 24L27 24L27 25L25 25L25 26L24 26L24 25L21 25L21 26L23 26L23 27L21 27L21 28L20 28L20 25L17 25L17 24L16 24L16 23L18 23L18 24L19 24L19 22L20 22L20 21L19 21L19 22L17 22L17 19L15 19L15 22L13 22L13 21L14 21L14 19L13 19L13 18L12 18L12 19L13 19L13 20L11 20L11 21L10 21L10 19L11 19L11 18L10 18L10 19L9 19L9 21L6 21L6 20L8 20L8 19L5 19L5 21L6 21L6 22L4 22L4 20L2 20L2 21L3 21L3 23L4 23L4 24L5 24L5 27L6 27L6 28L4 28L4 27L3 27L3 28L1 28L1 29L3 29L3 30L7 30L7 31L5 31L5 32L7 32L7 31L8 31L8 30L7 30L7 29L6 29L6 28L8 28L8 29L9 29L9 30L10 30L10 32L9 32L9 33L10 33L10 34L9 34L9 36L10 36L10 37L8 37L8 39L6 39L6 40L7 40L7 41L5 41L5 39L4 39L4 38L5 38L5 37L4 37L4 36L1 36L1 38L2 38L2 37L3 37L3 39L2 39L2 40L1 40L1 41L2 41L2 40L3 40L3 43L4 43L4 44L5 44L5 43L6 43L6 44L7 44L7 45L5 45L5 46L4 46L4 45L3 45L3 46L2 46L2 47L1 47L1 48L3 48L3 49L4 49L4 48L7 48L7 49L5 49L5 51L6 51L6 52L7 52L7 53L6 53L6 54L7 54L7 55L6 55L6 56L7 56L7 57L6 57L6 58L8 58L8 56L7 56L7 55L9 55L9 56L11 56L11 55L9 55L9 54L10 54L10 52L13 52L13 53L11 53L11 54L12 54L12 55L13 55L13 56L12 56L12 61L11 61L11 57L9 57L9 58L10 58L10 62L11 62L11 63L10 63L10 64L11 64L11 66L12 66L12 62L13 62L13 59L14 59L14 58L15 58L15 57L17 57L17 58L16 58L16 59L15 59L15 61L16 61L16 62L15 62L15 63L13 63L13 67L14 67L14 66L15 66L15 67L16 67L16 66L17 66L17 65L18 65L18 64L19 64L19 65L20 65L20 64L22 64L22 65L21 65L21 66L22 66L22 65L23 65L23 63L25 63L25 65L29 65L29 64L28 64L28 62L29 62L29 63L30 63L30 64L31 64L31 65L32 65L32 66L33 66L33 65L32 65L32 64L31 64L31 63L32 63L32 62L31 62L31 61L28 61L28 60L33 60L33 59L32 59L32 58L34 58L34 60L38 60L38 61L37 61L37 63L38 63L38 64L37 64L37 65L38 65L38 64L39 64L39 63L40 63L40 66L39 66L39 67L41 67L41 68L42 68L42 67L41 67L41 63L40 63L40 62L41 62L41 60L38 60L38 59L39 59L39 58L40 58L40 59L41 59L41 58L40 58L40 57L41 57L41 56L42 56L42 57L44 57L44 54L45 54L45 53L46 53L46 54L48 54L48 53L46 53L46 52L49 52L49 55L47 55L47 56L49 56L49 57L48 57L48 59L49 59L49 58L50 58L50 60L49 60L49 63L48 63L48 64L50 64L50 65L51 65L51 66L50 66L50 67L49 67L49 68L50 68L50 67L52 67L52 66L53 66L53 67L54 67L54 68L55 68L55 66L53 66L53 63L52 63L52 61L54 61L54 60L55 60L55 61L56 61L56 60L57 60L57 59L58 59L58 58L57 58L57 57L58 57L58 55L56 55L56 54L55 54L55 55L54 55L54 53L56 53L56 52L54 52L54 53L53 53L53 52L52 52L52 53L51 53L51 51L50 51L50 52L49 52L49 51L48 51L48 50L50 50L50 48L52 48L52 49L51 49L51 50L52 50L52 49L56 49L56 48L58 48L58 46L59 46L59 47L61 47L61 45L60 45L60 44L61 44L61 43L57 43L57 41L58 41L58 42L59 42L59 41L60 41L60 42L62 42L62 39L64 39L64 38L65 38L65 37L62 37L62 39L61 39L61 40L57 40L57 39L56 39L56 38L57 38L57 37L58 37L58 38L59 38L59 39L60 39L60 38L61 38L61 37L60 37L60 36L59 36L59 35L60 35L60 32L61 32L61 31L60 31L60 30L59 30L59 25L60 25L60 24L58 24L58 26L56 26L56 27L54 27L54 25L53 25L53 23L55 23L55 22L53 22L53 20L54 20L54 21L56 21L56 24L55 24L55 25L56 25L56 24L57 24L57 23L61 23L61 24L62 24L62 25L61 25L61 26L62 26L62 25L63 25L63 24L62 24L62 21L61 21L61 22L59 22L59 21L58 21L58 20L60 20L60 19L62 19L62 13L63 13L63 12L62 12L62 13L61 13L61 12L60 12L60 11L59 11L59 12L58 12L58 14L57 14L57 13L56 13L56 14L55 14L55 16L54 16L54 17L55 17L55 18L53 18L53 15L54 15L54 14L53 14L53 11L52 11L52 13L51 13L51 15L50 15L50 9L51 9L51 10L52 10L52 9L54 9L54 8L52 8L52 6L53 6L53 7L54 7L54 5L51 5L51 7L50 7L50 4L52 4L52 2L51 2L51 1L50 1L50 2L51 2L51 3L48 3L48 2L47 2L47 4L46 4L46 5L44 5L44 4L45 4L45 3L46 3L46 2L45 2L45 3L44 3L44 2L42 2L42 1L41 1L41 2L42 2L42 3L41 3L41 4L43 4L43 5L44 5L44 6L43 6L43 8L40 8L40 10L41 10L41 14L40 14L40 13L39 13L39 12L38 12L38 13L37 13L37 12L36 12L36 13L37 13L37 14L35 14L35 13L34 13L34 11L36 11L36 9L33 9L33 10L32 10L32 11L31 11L31 10L30 10L30 9L31 9L31 8L30 8L30 9L29 9L29 7L30 7L30 6L31 6L31 7L32 7L32 6L31 6L31 5L32 5L32 4L34 4L34 1L31 1L31 2L30 2L30 3L29 3L29 2L28 2L28 1ZM35 1L35 2L36 2L36 1ZM9 2L9 4L10 4L10 3L11 3L11 5L12 5L12 3L11 3L11 2ZM17 2L17 3L18 3L18 2ZM31 2L31 4L30 4L30 5L29 5L29 6L28 6L28 4L29 4L29 3L27 3L27 4L26 4L26 5L27 5L27 6L26 6L26 7L25 7L25 8L24 8L24 9L23 9L23 11L24 11L24 12L23 12L23 13L22 13L22 12L20 12L20 11L19 11L19 12L20 12L20 15L21 15L21 16L19 16L19 17L22 17L22 19L23 19L23 20L25 20L25 17L26 17L26 19L27 19L27 20L28 20L28 21L29 21L29 23L30 23L30 21L31 21L31 24L30 24L30 25L29 25L29 26L31 26L31 25L33 25L33 27L28 27L28 25L27 25L27 26L26 26L26 27L25 27L25 28L24 28L24 27L23 27L23 29L22 29L22 28L21 28L21 29L20 29L20 28L19 28L19 26L17 26L17 25L15 25L15 24L12 24L12 22L6 22L6 23L5 23L5 24L6 24L6 25L7 25L7 24L8 24L8 25L11 25L11 28L12 28L12 27L16 27L16 26L17 26L17 29L20 29L20 30L25 30L25 31L24 31L24 33L23 33L23 38L21 38L21 37L22 37L22 36L20 36L20 38L19 38L19 35L20 35L20 34L22 34L22 32L23 32L23 31L21 31L21 32L20 32L20 33L19 33L19 32L18 32L18 33L17 33L17 32L16 32L16 33L15 33L15 34L16 34L16 35L15 35L15 36L16 36L16 37L15 37L15 38L16 38L16 37L17 37L17 38L18 38L18 39L15 39L15 41L16 41L16 40L17 40L17 41L19 41L19 40L20 40L20 42L22 42L22 43L24 43L24 45L23 45L23 46L22 46L22 44L21 44L21 45L19 45L19 44L17 44L17 42L16 42L16 43L14 43L14 47L13 47L13 43L12 43L12 42L13 42L13 41L14 41L14 39L13 39L13 40L12 40L12 38L13 38L13 37L12 37L12 36L14 36L14 32L15 32L15 31L13 31L13 30L12 30L12 29L11 29L11 31L12 31L12 32L13 32L13 34L12 34L12 33L11 33L11 35L10 35L10 36L11 36L11 37L10 37L10 38L9 38L9 39L8 39L8 41L7 41L7 42L6 42L6 43L7 43L7 44L10 44L10 43L8 43L8 41L9 41L9 42L10 42L10 40L12 40L12 41L11 41L11 45L12 45L12 47L11 47L11 48L10 48L10 47L9 47L9 45L7 45L7 46L6 46L6 47L8 47L8 49L9 49L9 48L10 48L10 50L12 50L12 51L13 51L13 52L15 52L15 53L14 53L14 56L13 56L13 58L14 58L14 57L15 57L15 55L18 55L18 56L17 56L17 57L19 57L19 59L21 59L21 61L19 61L19 60L18 60L18 61L17 61L17 62L16 62L16 63L15 63L15 64L14 64L14 65L15 65L15 66L16 66L16 65L15 65L15 64L17 64L17 63L18 63L18 61L19 61L19 64L20 64L20 62L21 62L21 63L22 63L22 62L21 62L21 61L22 61L22 60L23 60L23 61L24 61L24 62L25 62L25 63L26 63L26 64L27 64L27 62L28 62L28 61L27 61L27 60L28 60L28 59L29 59L29 58L31 58L31 56L30 56L30 57L29 57L29 58L28 58L28 56L26 56L26 57L25 57L25 55L28 55L28 53L30 53L30 54L29 54L29 55L30 55L30 54L32 54L32 55L33 55L33 56L32 56L32 57L34 57L34 58L35 58L35 59L36 59L36 56L35 56L35 55L36 55L36 54L37 54L37 53L38 53L38 52L39 52L39 54L41 54L41 55L43 55L43 54L44 54L44 53L45 53L45 50L46 50L46 51L47 51L47 50L46 50L46 49L45 49L45 48L47 48L47 49L49 49L49 48L50 48L50 47L51 47L51 45L52 45L52 46L53 46L53 45L54 45L54 47L52 47L52 48L55 48L55 47L57 47L57 46L58 46L58 44L56 44L56 43L55 43L55 41L53 41L53 42L52 42L52 43L51 43L51 41L52 41L52 40L54 40L54 39L55 39L55 38L56 38L56 37L57 37L57 36L58 36L58 37L59 37L59 36L58 36L58 35L59 35L59 34L58 34L58 33L59 33L59 32L58 32L58 33L57 33L57 32L56 32L56 30L55 30L55 29L53 29L53 30L52 30L52 27L53 27L53 28L54 28L54 27L53 27L53 25L52 25L52 21L50 21L50 20L48 20L48 18L47 18L47 19L46 19L46 17L45 17L45 16L47 16L47 17L49 17L49 19L52 19L52 18L51 18L51 17L52 17L52 16L50 16L50 17L49 17L49 16L48 16L48 15L49 15L49 8L50 8L50 7L49 7L49 6L48 6L48 7L49 7L49 8L47 8L47 6L46 6L46 7L45 7L45 6L44 6L44 7L45 7L45 8L44 8L44 9L45 9L45 10L46 10L46 11L43 11L43 9L41 9L41 10L42 10L42 12L43 12L43 13L42 13L42 15L37 15L37 16L38 16L38 18L39 18L39 19L36 19L36 16L35 16L35 14L34 14L34 15L33 15L33 17L34 17L34 16L35 16L35 18L34 18L34 20L35 20L35 21L34 21L34 24L32 24L32 23L33 23L33 21L31 21L31 20L32 20L32 19L33 19L33 18L32 18L32 14L33 14L33 12L32 12L32 13L31 13L31 11L30 11L30 10L29 10L29 11L28 11L28 9L27 9L27 8L26 8L26 7L27 7L27 6L28 6L28 7L29 7L29 6L30 6L30 5L31 5L31 4L32 4L32 3L33 3L33 2ZM55 2L55 3L56 3L56 2ZM35 3L35 4L36 4L36 3ZM43 3L43 4L44 4L44 3ZM60 3L60 5L61 5L61 3ZM33 5L33 8L36 8L36 5ZM37 5L37 7L38 7L38 5ZM55 5L55 7L56 7L56 8L55 8L55 9L56 9L56 8L57 8L57 7L56 7L56 5ZM9 6L9 7L10 7L10 6ZM22 6L22 8L23 8L23 6ZM34 6L34 7L35 7L35 6ZM41 6L41 7L42 7L42 6ZM60 6L60 7L61 7L61 6ZM20 8L20 10L21 10L21 11L22 11L22 9L21 9L21 8ZM25 8L25 9L24 9L24 10L26 10L26 11L25 11L25 13L26 13L26 14L24 14L24 15L22 15L22 14L21 14L21 15L22 15L22 17L23 17L23 16L25 16L25 15L26 15L26 16L28 16L28 17L27 17L27 19L28 19L28 18L29 18L29 20L31 20L31 19L32 19L32 18L31 18L31 17L29 17L29 16L28 16L28 15L27 15L27 13L28 13L28 14L29 14L29 15L30 15L30 16L31 16L31 14L30 14L30 13L28 13L28 11L27 11L27 10L26 10L26 8ZM45 8L45 9L46 9L46 10L47 10L47 8ZM51 8L51 9L52 9L52 8ZM4 9L4 10L3 10L3 11L4 11L4 10L5 10L5 9ZM6 9L6 10L7 10L7 9ZM15 9L15 10L16 10L16 9ZM33 10L33 11L34 11L34 10ZM38 10L38 11L39 11L39 10ZM6 11L6 12L4 12L4 13L6 13L6 14L7 14L7 13L6 13L6 12L7 12L7 11ZM26 11L26 13L27 13L27 11ZM46 11L46 15L47 15L47 11ZM59 12L59 13L60 13L60 14L61 14L61 13L60 13L60 12ZM38 13L38 14L39 14L39 13ZM44 13L44 14L43 14L43 17L44 17L44 14L45 14L45 13ZM16 14L16 15L18 15L18 14ZM56 14L56 18L57 18L57 20L56 20L56 19L54 19L54 20L56 20L56 21L57 21L57 22L58 22L58 21L57 21L57 20L58 20L58 19L59 19L59 18L61 18L61 17L59 17L59 18L58 18L58 15L59 15L59 16L61 16L61 15L59 15L59 14L58 14L58 15L57 15L57 14ZM40 16L40 19L39 19L39 20L38 20L38 21L37 21L37 22L36 22L36 21L35 21L35 23L37 23L37 24L36 24L36 25L37 25L37 26L36 26L36 27L35 27L35 28L34 28L34 27L33 27L33 28L32 28L32 29L31 29L31 30L30 30L30 29L28 29L28 31L27 31L27 32L26 32L26 31L25 31L25 33L29 33L29 32L28 32L28 31L30 31L30 32L31 32L31 35L29 35L29 34L28 34L28 35L27 35L27 34L26 34L26 35L25 35L25 34L24 34L24 35L25 35L25 36L24 36L24 37L25 37L25 39L24 39L24 40L22 40L22 39L21 39L21 38L20 38L20 39L21 39L21 41L22 41L22 42L23 42L23 41L24 41L24 42L25 42L25 41L26 41L26 42L30 42L30 43L34 43L34 46L33 46L33 47L32 47L32 46L30 46L30 45L29 45L29 44L28 44L28 43L27 43L27 44L28 44L28 49L27 49L27 50L26 50L26 49L25 49L25 50L24 50L24 51L23 51L23 52L22 52L22 53L21 53L21 54L20 54L20 53L19 53L19 57L21 57L21 59L22 59L22 58L23 58L23 59L24 59L24 61L26 61L26 60L27 60L27 59L28 59L28 58L26 58L26 59L25 59L25 58L24 58L24 57L21 57L21 56L20 56L20 55L22 55L22 56L23 56L23 53L24 53L24 52L25 52L25 54L26 54L26 51L28 51L28 50L29 50L29 52L30 52L30 50L31 50L31 52L32 52L32 49L36 49L36 50L35 50L35 52L34 52L34 51L33 51L33 53L32 53L32 54L33 54L33 55L34 55L34 54L35 54L35 52L37 52L37 51L39 51L39 50L38 50L38 49L39 49L39 47L41 47L41 48L40 48L40 51L41 51L41 49L42 49L42 45L41 45L41 46L40 46L40 45L39 45L39 43L41 43L41 44L43 44L43 45L44 45L44 46L43 46L43 47L44 47L44 48L43 48L43 49L44 49L44 50L45 50L45 49L44 49L44 48L45 48L45 47L46 47L46 46L47 46L47 45L46 45L46 46L45 46L45 45L44 45L44 44L43 44L43 43L44 43L44 40L45 40L45 39L43 39L43 38L45 38L45 37L46 37L46 42L45 42L45 43L47 43L47 44L48 44L48 43L50 43L50 41L48 41L48 42L47 42L47 39L51 39L51 40L52 40L52 38L53 38L53 37L54 37L54 36L55 36L55 37L56 37L56 36L57 36L57 33L56 33L56 32L55 32L55 31L54 31L54 32L53 32L53 31L51 31L51 30L50 30L50 28L49 28L49 29L48 29L48 30L47 30L47 28L46 28L46 29L44 29L44 28L45 28L45 27L44 27L44 28L43 28L43 26L41 26L41 25L42 25L42 24L43 24L43 25L44 25L44 24L45 24L45 23L44 23L44 20L46 20L46 19L44 19L44 18L41 18L41 17L42 17L42 16ZM63 17L63 20L64 20L64 21L63 21L63 22L64 22L64 23L65 23L65 24L64 24L64 26L63 26L63 27L66 27L66 26L67 26L67 25L66 25L66 24L68 24L68 23L65 23L65 22L64 22L64 21L65 21L65 20L64 20L64 17ZM41 19L41 21L40 21L40 24L39 24L39 23L38 23L38 24L37 24L37 25L38 25L38 26L37 26L37 28L36 28L36 29L37 29L37 28L38 28L38 30L37 30L37 32L32 32L32 30L31 30L31 32L32 32L32 41L33 41L33 42L34 42L34 43L36 43L36 42L37 42L37 40L36 40L36 41L33 41L33 40L34 40L34 38L33 38L33 37L37 37L37 39L38 39L38 43L37 43L37 45L36 45L36 46L35 46L35 47L36 47L36 48L38 48L38 46L39 46L39 45L38 45L38 43L39 43L39 42L43 42L43 39L42 39L42 38L43 38L43 34L44 34L44 37L45 37L45 34L46 34L46 37L47 37L47 38L49 38L49 36L50 36L50 35L51 35L51 37L50 37L50 38L51 38L51 37L52 37L52 36L53 36L53 35L55 35L55 36L56 36L56 33L53 33L53 34L52 34L52 32L46 32L46 33L45 33L45 30L44 30L44 29L43 29L43 28L42 28L42 27L40 27L40 24L41 24L41 23L43 23L43 19ZM23 21L23 22L25 22L25 21ZM46 21L46 22L47 22L47 21ZM48 21L48 23L47 23L47 25L46 25L46 26L47 26L47 25L48 25L48 27L50 27L50 25L48 25L48 23L49 23L49 22L50 22L50 24L51 24L51 22L50 22L50 21ZM15 22L15 23L16 23L16 22ZM6 23L6 24L7 24L7 23ZM10 23L10 24L11 24L11 25L12 25L12 26L13 26L13 25L12 25L12 24L11 24L11 23ZM34 24L34 25L35 25L35 24ZM38 24L38 25L39 25L39 24ZM14 25L14 26L15 26L15 25ZM6 26L6 27L7 27L7 26ZM8 26L8 27L9 27L9 29L10 29L10 26ZM38 26L38 28L39 28L39 29L40 29L40 30L42 30L42 28L40 28L40 27L39 27L39 26ZM51 26L51 27L52 27L52 26ZM57 27L57 28L56 28L56 29L57 29L57 31L58 31L58 27ZM60 27L60 28L61 28L61 30L62 30L62 31L63 31L63 32L66 32L66 33L67 33L67 31L64 31L64 29L65 29L65 28L64 28L64 29L63 29L63 30L62 30L62 28L61 28L61 27ZM15 28L15 29L14 29L14 30L16 30L16 31L18 31L18 30L16 30L16 28ZM25 28L25 29L26 29L26 28ZM33 29L33 31L34 31L34 30L35 30L35 29ZM38 30L38 31L39 31L39 30ZM43 30L43 31L40 31L40 33L44 33L44 34L45 34L45 33L44 33L44 30ZM38 32L38 33L37 33L37 34L38 34L38 35L37 35L37 37L38 37L38 36L40 36L40 37L39 37L39 38L38 38L38 39L40 39L40 41L41 41L41 39L40 39L40 38L41 38L41 37L42 37L42 35L41 35L41 34L38 34L38 33L39 33L39 32ZM5 33L5 36L8 36L8 33ZM16 33L16 34L17 34L17 33ZM33 33L33 36L36 36L36 33ZM46 33L46 34L47 34L47 37L48 37L48 35L49 35L49 34L47 34L47 33ZM61 33L61 36L64 36L64 33ZM6 34L6 35L7 35L7 34ZM18 34L18 35L19 35L19 34ZM34 34L34 35L35 35L35 34ZM51 34L51 35L52 35L52 34ZM62 34L62 35L63 35L63 34ZM26 35L26 36L25 36L25 37L27 37L27 38L28 38L28 39L26 39L26 41L30 41L30 42L31 42L31 41L30 41L30 40L31 40L31 36L29 36L29 37L30 37L30 39L29 39L29 38L28 38L28 36L27 36L27 35ZM40 35L40 36L41 36L41 35ZM6 37L6 38L7 38L7 37ZM10 38L10 39L11 39L11 38ZM3 39L3 40L4 40L4 39ZM18 39L18 40L19 40L19 39ZM28 39L28 40L29 40L29 39ZM24 40L24 41L25 41L25 40ZM56 40L56 41L57 41L57 40ZM63 40L63 41L64 41L64 42L65 42L65 41L64 41L64 40ZM4 41L4 43L5 43L5 41ZM18 42L18 43L19 43L19 42ZM53 42L53 43L52 43L52 45L53 45L53 43L54 43L54 44L55 44L55 46L57 46L57 45L56 45L56 44L55 44L55 43L54 43L54 42ZM25 43L25 46L24 46L24 47L22 47L22 46L19 46L19 48L18 48L18 49L12 49L12 50L14 50L14 51L15 51L15 52L16 52L16 54L17 54L17 52L16 52L16 51L17 51L17 50L18 50L18 51L20 51L20 50L21 50L21 51L22 51L22 50L23 50L23 48L25 48L25 47L26 47L26 48L27 48L27 46L26 46L26 43ZM15 44L15 45L16 45L16 47L14 47L14 48L17 48L17 47L18 47L18 46L17 46L17 45L16 45L16 44ZM31 44L31 45L33 45L33 44ZM49 44L49 46L50 46L50 44ZM37 45L37 46L36 46L36 47L37 47L37 46L38 46L38 45ZM59 45L59 46L60 46L60 45ZM3 46L3 48L4 48L4 46ZM12 47L12 48L13 48L13 47ZM21 47L21 48L19 48L19 49L18 49L18 50L19 50L19 49L22 49L22 47ZM29 47L29 49L32 49L32 48L30 48L30 47ZM33 47L33 48L34 48L34 47ZM48 47L48 48L49 48L49 47ZM67 47L67 49L69 49L69 47ZM65 49L65 51L66 51L66 49ZM2 50L2 51L4 51L4 50ZM6 50L6 51L7 51L7 52L8 52L8 50ZM25 50L25 51L26 51L26 50ZM42 50L42 51L43 51L43 52L40 52L40 53L44 53L44 51L43 51L43 50ZM67 50L67 53L69 53L69 52L68 52L68 50ZM9 51L9 52L10 52L10 51ZM3 52L3 54L5 54L5 53L4 53L4 52ZM27 52L27 53L28 53L28 52ZM8 53L8 54L9 54L9 53ZM33 53L33 54L34 54L34 53ZM50 53L50 55L51 55L51 57L50 57L50 58L51 58L51 57L52 57L52 55L51 55L51 53ZM52 53L52 54L53 54L53 53ZM37 55L37 57L38 57L38 58L37 58L37 59L38 59L38 58L39 58L39 57L40 57L40 55L39 55L39 56L38 56L38 55ZM55 55L55 56L54 56L54 57L53 57L53 58L52 58L52 59L51 59L51 61L50 61L50 62L51 62L51 61L52 61L52 60L54 60L54 58L55 58L55 59L56 59L56 57L57 57L57 56L56 56L56 55ZM34 56L34 57L35 57L35 56ZM55 56L55 57L56 57L56 56ZM61 56L61 58L62 58L62 59L63 59L63 60L64 60L64 59L63 59L63 57L64 57L64 58L65 58L65 57L64 57L64 56L63 56L63 57L62 57L62 56ZM67 56L67 57L66 57L66 58L67 58L67 57L68 57L68 56ZM46 57L46 58L47 58L47 57ZM17 58L17 59L18 59L18 58ZM42 58L42 61L43 61L43 62L42 62L42 63L43 63L43 62L44 62L44 60L45 60L45 61L46 61L46 62L47 62L47 61L46 61L46 60L45 60L45 58ZM43 59L43 60L44 60L44 59ZM3 60L3 61L5 61L5 60ZM6 60L6 61L7 61L7 60ZM58 60L58 62L57 62L57 63L58 63L58 64L59 64L59 63L60 63L60 62L59 62L59 61L60 61L60 60ZM33 61L33 64L36 64L36 61ZM38 61L38 62L39 62L39 61ZM61 61L61 64L64 64L64 61ZM34 62L34 63L35 63L35 62ZM62 62L62 63L63 63L63 62ZM51 63L51 65L52 65L52 63ZM68 64L68 65L66 65L66 66L69 66L69 64ZM26 68L26 69L27 69L27 68ZM36 68L36 69L37 69L37 68ZM66 68L66 69L67 69L67 68ZM68 68L68 69L69 69L69 68ZM0 0L0 7L7 7L7 0ZM1 1L1 6L6 6L6 1ZM2 2L2 5L5 5L5 2ZM62 0L62 7L69 7L69 0ZM63 1L63 6L68 6L68 1ZM64 2L64 5L67 5L67 2ZM0 62L0 69L7 69L7 62ZM1 63L1 68L6 68L6 63ZM2 64L2 67L5 67L5 64Z" fill="#000000"/></g></g></svg>
