<?xml version="1.0" encoding="UTF-8"?>
<svg xmlns="http://www.w3.org/2000/svg" version="1.1" width="300" height="300" viewBox="0 0 300 300"><rect x="0" y="0" width="300" height="300" fill="#ffffff"/><g transform="scale(4.348)"><g transform="translate(0,0)"><path fill-rule="evenodd" d="M8 0L8 2L10 2L10 1L11 1L11 0L10 0L10 1L9 1L9 0ZM12 0L12 2L11 2L11 3L12 3L12 5L10 5L10 9L13 9L13 10L12 10L12 11L13 11L13 13L12 13L12 12L11 12L11 10L10 10L10 11L8 11L8 9L9 9L9 4L10 4L10 3L9 3L9 4L8 4L8 9L7 9L7 8L5 8L5 10L4 10L4 9L3 9L3 8L0 8L0 12L4 12L4 11L5 11L5 12L6 12L6 13L7 13L7 12L9 12L9 15L8 15L8 17L7 17L7 16L6 16L6 15L7 15L7 14L5 14L5 13L3 13L3 14L2 14L2 15L3 15L3 14L4 14L4 15L5 15L5 16L3 16L3 17L2 17L2 16L0 16L0 17L2 17L2 18L4 18L4 20L3 20L3 25L4 25L4 27L5 27L5 26L6 26L6 27L8 27L8 28L10 28L10 29L11 29L11 27L12 27L12 28L13 28L13 29L14 29L14 30L10 30L10 32L11 32L11 31L14 31L14 32L16 32L16 33L14 33L14 34L15 34L15 37L13 37L13 36L14 36L14 35L12 35L12 34L10 34L10 35L11 35L11 37L13 37L13 38L11 38L11 39L10 39L10 38L9 38L9 37L10 37L10 36L9 36L9 29L8 29L8 30L5 30L5 31L4 31L4 33L3 33L3 30L4 30L4 29L7 29L7 28L3 28L3 30L2 30L2 29L0 29L0 30L2 30L2 32L1 32L1 31L0 31L0 32L1 32L1 33L0 33L0 36L1 36L1 33L3 33L3 34L2 34L2 35L3 35L3 37L2 37L2 38L0 38L0 39L2 39L2 40L1 40L1 41L0 41L0 42L2 42L2 43L0 43L0 44L1 44L1 45L2 45L2 46L3 46L3 45L2 45L2 44L4 44L4 46L5 46L5 48L6 48L6 49L7 49L7 50L5 50L5 49L2 49L2 48L1 48L1 46L0 46L0 48L1 48L1 49L0 49L0 50L3 50L3 51L0 51L0 52L3 52L3 53L4 53L4 52L5 52L5 54L6 54L6 55L7 55L7 56L6 56L6 57L7 57L7 56L8 56L8 57L9 57L9 58L5 58L5 57L4 57L4 56L5 56L5 55L4 55L4 54L3 54L3 55L2 55L2 53L1 53L1 54L0 54L0 55L1 55L1 57L2 57L2 56L3 56L3 58L2 58L2 59L3 59L3 58L4 58L4 59L9 59L9 60L8 60L8 62L9 62L9 63L8 63L8 64L9 64L9 63L11 63L11 62L12 62L12 61L11 61L11 62L9 62L9 61L10 61L10 60L13 60L13 62L14 62L14 63L13 63L13 65L11 65L11 66L12 66L12 67L11 67L11 69L14 69L14 68L15 68L15 69L16 69L16 67L17 67L17 68L18 68L18 69L19 69L19 67L18 67L18 65L19 65L19 64L18 64L18 63L21 63L21 64L20 64L20 65L21 65L21 66L20 66L20 67L21 67L21 69L23 69L23 68L24 68L24 67L25 67L25 69L29 69L29 68L30 68L30 69L31 69L31 64L32 64L32 66L33 66L33 65L37 65L37 62L38 62L38 63L39 63L39 62L38 62L38 60L36 60L36 59L38 59L38 57L39 57L39 56L38 56L38 55L39 55L39 53L41 53L41 51L42 51L42 53L43 53L43 50L42 50L42 49L43 49L43 48L44 48L44 50L46 50L46 51L44 51L44 54L43 54L43 55L44 55L44 57L45 57L45 58L42 58L42 57L41 57L41 56L42 56L42 55L41 55L41 54L40 54L40 58L39 58L39 59L40 59L40 58L41 58L41 59L43 59L43 60L44 60L44 61L45 61L45 62L42 62L42 61L41 61L41 60L39 60L39 61L41 61L41 62L40 62L40 65L39 65L39 66L40 66L40 65L41 65L41 67L42 67L42 65L43 65L43 67L44 67L44 69L45 69L45 67L44 67L44 65L47 65L47 64L46 64L46 63L45 63L45 62L46 62L46 61L47 61L47 63L48 63L48 66L47 66L47 67L46 67L46 69L47 69L47 67L48 67L48 66L49 66L49 67L50 67L50 68L48 68L48 69L51 69L51 67L52 67L52 65L53 65L53 66L54 66L54 68L52 68L52 69L54 69L54 68L55 68L55 67L57 67L57 68L56 68L56 69L60 69L60 67L61 67L61 68L62 68L62 67L61 67L61 66L60 66L60 67L59 67L59 68L58 68L58 64L59 64L59 65L64 65L64 68L63 68L63 69L65 69L65 68L66 68L66 69L67 69L67 68L66 68L66 67L69 67L69 66L67 66L67 65L69 65L69 62L68 62L68 61L69 61L69 60L66 60L66 59L65 59L65 60L64 60L64 59L63 59L63 58L64 58L64 57L65 57L65 58L67 58L67 56L66 56L66 55L67 55L67 54L66 54L66 51L67 51L67 53L68 53L68 55L69 55L69 52L68 52L68 51L69 51L69 45L68 45L68 49L67 49L67 50L66 50L66 47L67 47L67 46L65 46L65 47L64 47L64 49L63 49L63 48L62 48L62 47L63 47L63 46L64 46L64 44L65 44L65 45L67 45L67 44L68 44L68 43L69 43L69 42L68 42L68 43L67 43L67 40L68 40L68 39L69 39L69 38L68 38L68 37L69 37L69 33L68 33L68 32L67 32L67 33L66 33L66 34L67 34L67 33L68 33L68 37L67 37L67 38L68 38L68 39L67 39L67 40L66 40L66 38L64 38L64 40L66 40L66 41L65 41L65 42L64 42L64 41L63 41L63 37L65 37L65 36L66 36L66 35L65 35L65 32L66 32L66 30L67 30L67 29L68 29L68 31L69 31L69 29L68 29L68 28L67 28L67 29L66 29L66 27L67 27L67 25L68 25L68 23L69 23L69 20L68 20L68 19L69 19L69 17L67 17L67 16L68 16L68 15L69 15L69 14L68 14L68 13L69 13L69 8L67 8L67 9L66 9L66 10L65 10L65 11L62 11L62 9L65 9L65 8L61 8L61 10L59 10L59 12L60 12L60 11L62 11L62 13L61 13L61 14L62 14L62 17L61 17L61 19L62 19L62 17L63 17L63 15L65 15L65 16L64 16L64 19L63 19L63 20L62 20L62 21L61 21L61 20L59 20L59 19L58 19L58 17L59 17L59 18L60 18L60 16L58 16L58 17L57 17L57 16L56 16L56 15L55 15L55 16L54 16L54 15L53 15L53 14L52 14L52 13L54 13L54 12L55 12L55 10L54 10L54 9L55 9L55 8L56 8L56 10L57 10L57 11L56 11L56 14L57 14L57 15L59 15L59 14L60 14L60 13L59 13L59 14L58 14L58 13L57 13L57 12L58 12L58 9L59 9L59 8L60 8L60 7L61 7L61 6L60 6L60 7L59 7L59 4L58 4L58 3L59 3L59 2L58 2L58 1L61 1L61 0L57 0L57 2L55 2L55 4L54 4L54 5L56 5L56 7L55 7L55 6L54 6L54 7L53 7L53 5L52 5L52 3L53 3L53 2L54 2L54 1L56 1L56 0L54 0L54 1L53 1L53 0L50 0L50 1L51 1L51 2L48 2L48 0L46 0L46 1L47 1L47 2L46 2L46 3L47 3L47 4L46 4L46 5L47 5L47 4L48 4L48 5L49 5L49 6L48 6L48 7L47 7L47 6L46 6L46 7L47 7L47 8L44 8L44 9L43 9L43 11L41 11L41 10L42 10L42 8L43 8L43 4L44 4L44 7L45 7L45 4L44 4L44 2L43 2L43 4L42 4L42 8L40 8L40 10L38 10L38 7L39 7L39 6L38 6L38 5L40 5L40 7L41 7L41 4L40 4L40 2L41 2L41 3L42 3L42 2L41 2L41 1L40 1L40 0L38 0L38 2L37 2L37 4L36 4L36 3L35 3L35 2L36 2L36 1L37 1L37 0L32 0L32 1L33 1L33 2L34 2L34 3L35 3L35 4L32 4L32 9L33 9L33 10L32 10L32 11L33 11L33 10L34 10L34 11L35 11L35 9L37 9L37 11L36 11L36 12L37 12L37 11L41 11L41 13L40 13L40 14L41 14L41 13L42 13L42 12L43 12L43 11L44 11L44 13L45 13L45 14L43 14L43 15L42 15L42 16L40 16L40 17L39 17L39 15L38 15L38 13L37 13L37 14L36 14L36 16L34 16L34 17L33 17L33 16L32 16L32 14L31 14L31 15L30 15L30 13L31 13L31 11L28 11L28 9L29 9L29 8L28 8L28 7L29 7L29 6L30 6L30 8L31 8L31 4L30 4L30 2L31 2L31 1L30 1L30 0L29 0L29 1L28 1L28 2L29 2L29 3L28 3L28 5L29 5L29 6L28 6L28 7L27 7L27 6L26 6L26 5L27 5L27 4L26 4L26 3L27 3L27 0L24 0L24 2L23 2L23 0L22 0L22 2L20 2L20 1L21 1L21 0L18 0L18 1L17 1L17 4L18 4L18 5L17 5L17 6L16 6L16 5L15 5L15 6L14 6L14 7L13 7L13 5L14 5L14 3L12 3L12 2L15 2L15 3L16 3L16 2L15 2L15 1L13 1L13 0ZM42 0L42 1L44 1L44 0ZM29 1L29 2L30 2L30 1ZM39 1L39 2L40 2L40 1ZM52 1L52 2L53 2L53 1ZM18 2L18 4L19 4L19 5L18 5L18 6L17 6L17 7L16 7L16 6L15 6L15 8L14 8L14 10L15 10L15 9L16 9L16 12L15 12L15 11L14 11L14 13L13 13L13 14L11 14L11 13L10 13L10 15L9 15L9 17L8 17L8 18L7 18L7 17L5 17L5 19L6 19L6 20L5 20L5 23L4 23L4 24L8 24L8 23L6 23L6 22L9 22L9 23L12 23L12 24L11 24L11 26L10 26L10 25L9 25L9 26L8 26L8 27L11 27L11 26L12 26L12 27L13 27L13 28L14 28L14 29L15 29L15 26L14 26L14 25L15 25L15 24L14 24L14 25L13 25L13 26L12 26L12 24L13 24L13 23L14 23L14 22L15 22L15 23L17 23L17 26L16 26L16 27L17 27L17 28L16 28L16 30L19 30L19 29L20 29L20 31L18 31L18 32L19 32L19 33L18 33L18 34L19 34L19 35L17 35L17 36L16 36L16 38L15 38L15 39L13 39L13 40L12 40L12 41L11 41L11 40L10 40L10 41L11 41L11 43L10 43L10 45L9 45L9 46L7 46L7 45L8 45L8 44L9 44L9 43L8 43L8 42L9 42L9 39L8 39L8 37L6 37L6 38L7 38L7 39L5 39L5 37L3 37L3 39L4 39L4 41L6 41L6 42L5 42L5 43L6 43L6 44L5 44L5 45L6 45L6 46L7 46L7 47L6 47L6 48L7 48L7 47L9 47L9 49L8 49L8 50L7 50L7 51L5 51L5 52L7 52L7 53L6 53L6 54L7 54L7 53L8 53L8 54L9 54L9 55L8 55L8 56L9 56L9 57L10 57L10 58L9 58L9 59L12 59L12 58L13 58L13 59L14 59L14 62L15 62L15 55L14 55L14 57L12 57L12 58L11 58L11 56L13 56L13 55L11 55L11 53L10 53L10 52L12 52L12 53L13 53L13 54L14 54L14 53L13 53L13 51L14 51L14 52L15 52L15 53L16 53L16 54L17 54L17 55L16 55L16 56L17 56L17 57L18 57L18 58L16 58L16 59L17 59L17 61L16 61L16 63L14 63L14 66L13 66L13 67L15 67L15 64L16 64L16 66L17 66L17 64L16 64L16 63L17 63L17 62L18 62L18 58L19 58L19 57L20 57L20 59L19 59L19 60L20 60L20 59L22 59L22 60L23 60L23 61L24 61L24 62L23 62L23 63L22 63L22 64L21 64L21 65L22 65L22 66L21 66L21 67L22 67L22 66L23 66L23 65L24 65L24 66L26 66L26 67L27 67L27 64L29 64L29 66L28 66L28 67L30 67L30 64L31 64L31 62L32 62L32 61L30 61L30 60L28 60L28 59L26 59L26 58L27 58L27 57L26 57L26 56L27 56L27 55L28 55L28 58L29 58L29 59L30 59L30 58L32 58L32 57L34 57L34 58L33 58L33 59L34 59L34 60L35 60L35 59L34 59L34 58L37 58L37 55L36 55L36 54L37 54L37 53L36 53L36 54L35 54L35 53L34 53L34 54L32 54L32 53L33 53L33 50L35 50L35 49L34 49L34 48L35 48L35 46L37 46L37 47L38 47L38 48L39 48L39 49L38 49L38 51L39 51L39 49L40 49L40 51L41 51L41 49L40 49L40 48L41 48L41 47L44 47L44 48L47 48L47 49L46 49L46 50L48 50L48 51L47 51L47 52L46 52L46 54L47 54L47 55L45 55L45 54L44 54L44 55L45 55L45 57L46 57L46 58L47 58L47 59L46 59L46 60L47 60L47 61L48 61L48 63L49 63L49 65L50 65L50 67L51 67L51 65L52 65L52 64L54 64L54 66L55 66L55 65L56 65L56 64L57 64L57 63L60 63L60 61L58 61L58 59L59 59L59 60L60 60L60 59L62 59L62 60L63 60L63 59L62 59L62 57L64 57L64 54L65 54L65 55L66 55L66 54L65 54L65 53L64 53L64 54L63 54L63 53L62 53L62 54L61 54L61 53L60 53L60 54L59 54L59 52L57 52L57 51L56 51L56 50L55 50L55 48L54 48L54 47L53 47L53 46L52 46L52 48L51 48L51 45L52 45L52 44L54 44L54 46L55 46L55 47L58 47L58 48L57 48L57 49L58 49L58 50L59 50L59 51L60 51L60 49L62 49L62 50L61 50L61 51L62 51L62 50L63 50L63 49L62 49L62 48L60 48L60 47L58 47L58 46L59 46L59 45L58 45L58 46L55 46L55 45L56 45L56 44L57 44L57 43L58 43L58 44L59 44L59 42L60 42L60 41L58 41L58 42L56 42L56 38L57 38L57 37L58 37L58 38L59 38L59 39L57 39L57 40L60 40L60 39L61 39L61 37L60 37L60 35L58 35L58 34L59 34L59 33L60 33L60 32L62 32L62 31L60 31L60 32L59 32L59 31L58 31L58 30L59 30L59 29L58 29L58 28L57 28L57 27L59 27L59 28L60 28L60 30L61 30L61 28L60 28L60 27L61 27L61 23L60 23L60 24L59 24L59 25L58 25L58 26L57 26L57 25L56 25L56 24L57 24L57 23L59 23L59 20L58 20L58 19L57 19L57 20L58 20L58 21L56 21L56 18L55 18L55 17L56 17L56 16L55 16L55 17L54 17L54 16L53 16L53 17L52 17L52 16L51 16L51 17L50 17L50 16L49 16L49 13L48 13L48 11L51 11L51 12L50 12L50 14L51 14L51 13L52 13L52 12L53 12L53 11L54 11L54 10L52 10L52 9L51 9L51 7L52 7L52 5L51 5L51 7L50 7L50 6L49 6L49 7L48 7L48 8L47 8L47 9L46 9L46 10L45 10L45 11L46 11L46 10L47 10L47 9L48 9L48 11L47 11L47 12L46 12L46 14L45 14L45 16L46 16L46 20L45 20L45 17L44 17L44 15L43 15L43 17L42 17L42 18L41 18L41 17L40 17L40 19L42 19L42 20L43 20L43 21L42 21L42 22L43 22L43 21L44 21L44 23L42 23L42 24L43 24L43 25L42 25L42 26L41 26L41 25L40 25L40 22L41 22L41 21L40 21L40 20L38 20L38 21L40 21L40 22L39 22L39 24L38 24L38 23L37 23L37 24L38 24L38 27L36 27L36 28L37 28L37 29L38 29L38 31L39 31L39 32L37 32L37 31L36 31L36 30L34 30L34 31L36 31L36 32L37 32L37 33L38 33L38 34L37 34L37 38L36 38L36 40L38 40L38 42L37 42L37 43L36 43L36 45L34 45L34 44L32 44L32 45L30 45L30 43L28 43L28 44L29 44L29 45L28 45L28 46L27 46L27 45L26 45L26 44L25 44L25 45L24 45L24 44L23 44L23 41L22 41L22 42L21 42L21 41L20 41L20 42L19 42L19 43L18 43L18 42L17 42L17 41L16 41L16 40L17 40L17 39L18 39L18 40L19 40L19 39L18 39L18 38L19 38L19 37L20 37L20 39L21 39L21 37L22 37L22 36L23 36L23 39L22 39L22 40L23 40L23 39L26 39L26 40L27 40L27 38L26 38L26 36L27 36L27 37L28 37L28 38L29 38L29 39L28 39L28 42L31 42L31 41L32 41L32 40L33 40L33 41L34 41L34 42L36 42L36 41L34 41L34 40L35 40L35 37L32 37L32 33L31 33L31 35L30 35L30 36L29 36L29 37L28 37L28 36L27 36L27 35L26 35L26 34L27 34L27 32L28 32L28 31L30 31L30 32L29 32L29 34L28 34L28 35L29 35L29 34L30 34L30 32L31 32L31 31L30 31L30 30L31 30L31 29L30 29L30 26L31 26L31 25L30 25L30 26L29 26L29 25L28 25L28 27L27 27L27 28L28 28L28 31L27 31L27 29L26 29L26 27L24 27L24 26L26 26L26 24L28 24L28 23L29 23L29 21L28 21L28 20L29 20L29 19L28 19L28 18L29 18L29 17L30 17L30 18L31 18L31 17L32 17L32 16L31 16L31 17L30 17L30 15L29 15L29 17L28 17L28 16L27 16L27 15L28 15L28 14L29 14L29 13L30 13L30 12L29 12L29 13L28 13L28 14L27 14L27 15L26 15L26 16L27 16L27 17L26 17L26 18L25 18L25 13L24 13L24 14L23 14L23 15L24 15L24 16L23 16L23 17L24 17L24 20L23 20L23 18L22 18L22 16L21 16L21 15L22 15L22 14L21 14L21 13L22 13L22 11L19 11L19 10L18 10L18 11L17 11L17 9L16 9L16 8L20 8L20 10L21 10L21 8L20 8L20 3L19 3L19 2ZM22 2L22 5L21 5L21 7L22 7L22 8L23 8L23 7L24 7L24 8L25 8L25 10L24 10L24 11L25 11L25 10L26 10L26 11L27 11L27 12L28 12L28 11L27 11L27 10L26 10L26 8L27 8L27 7L26 7L26 6L25 6L25 5L23 5L23 2ZM24 2L24 3L26 3L26 2ZM38 3L38 4L39 4L39 3ZM48 3L48 4L49 4L49 5L50 5L50 4L51 4L51 3L50 3L50 4L49 4L49 3ZM56 3L56 5L57 5L57 7L56 7L56 8L57 8L57 9L58 9L58 8L59 8L59 7L58 7L58 5L57 5L57 3ZM60 3L60 5L61 5L61 3ZM33 5L33 8L36 8L36 5ZM11 6L11 7L12 7L12 6ZM18 6L18 7L19 7L19 6ZM22 6L22 7L23 7L23 6ZM24 6L24 7L25 7L25 8L26 8L26 7L25 7L25 6ZM34 6L34 7L35 7L35 6ZM37 6L37 7L38 7L38 6ZM54 7L54 8L53 8L53 9L54 9L54 8L55 8L55 7ZM57 7L57 8L58 8L58 7ZM48 8L48 9L49 9L49 10L50 10L50 9L49 9L49 8ZM2 9L2 10L1 10L1 11L4 11L4 10L3 10L3 9ZM6 9L6 10L7 10L7 9ZM22 9L22 10L23 10L23 9ZM67 9L67 10L66 10L66 13L64 13L64 12L63 12L63 13L62 13L62 14L65 14L65 15L66 15L66 16L67 16L67 15L68 15L68 14L67 14L67 15L66 15L66 13L67 13L67 12L68 12L68 9ZM6 11L6 12L7 12L7 11ZM16 12L16 13L17 13L17 14L15 14L15 13L14 13L14 14L13 14L13 16L11 16L11 17L9 17L9 18L13 18L13 22L14 22L14 21L15 21L15 22L17 22L17 23L19 23L19 24L18 24L18 25L19 25L19 24L20 24L20 23L19 23L19 22L20 22L20 21L21 21L21 22L22 22L22 21L23 21L23 23L22 23L22 24L24 24L24 25L25 25L25 24L26 24L26 23L28 23L28 21L27 21L27 20L26 20L26 19L27 19L27 18L26 18L26 19L25 19L25 20L24 20L24 21L23 21L23 20L22 20L22 21L21 21L21 19L20 19L20 18L21 18L21 16L20 16L20 15L18 15L18 16L19 16L19 19L18 19L18 18L17 18L17 19L15 19L15 17L14 17L14 14L15 14L15 15L16 15L16 17L17 17L17 14L18 14L18 13L19 13L19 14L20 14L20 12L18 12L18 13L17 13L17 12ZM32 12L32 13L33 13L33 12ZM47 13L47 14L46 14L46 15L47 15L47 16L48 16L48 18L47 18L47 22L46 22L46 21L45 21L45 20L44 20L44 21L45 21L45 23L47 23L47 26L46 26L46 25L45 25L45 24L44 24L44 25L45 25L45 27L43 27L43 26L42 26L42 27L43 27L43 28L40 28L40 25L39 25L39 27L38 27L38 28L39 28L39 31L40 31L40 33L39 33L39 34L38 34L38 35L39 35L39 36L38 36L38 37L41 37L41 38L38 38L38 40L39 40L39 39L40 39L40 41L39 41L39 42L38 42L38 43L37 43L37 46L38 46L38 47L39 47L39 46L38 46L38 45L39 45L39 42L42 42L42 43L41 43L41 44L42 44L42 45L43 45L43 46L44 46L44 47L46 47L46 45L47 45L47 47L48 47L48 49L49 49L49 50L50 50L50 51L51 51L51 52L48 52L48 53L47 53L47 54L48 54L48 55L49 55L49 56L48 56L48 57L49 57L49 58L48 58L48 61L49 61L49 63L50 63L50 65L51 65L51 64L52 64L52 62L53 62L53 63L55 63L55 62L56 62L56 63L57 63L57 62L58 62L58 61L57 61L57 60L56 60L56 61L55 61L55 60L54 60L54 59L53 59L53 58L54 58L54 57L53 57L53 55L51 55L51 56L50 56L50 55L49 55L49 54L50 54L50 53L52 53L52 54L54 54L54 53L55 53L55 51L54 51L54 48L52 48L52 49L51 49L51 48L50 48L50 47L48 47L48 45L49 45L49 46L50 46L50 45L51 45L51 43L54 43L54 40L55 40L55 38L56 38L56 37L57 37L57 36L58 36L58 37L59 37L59 38L60 38L60 37L59 37L59 36L58 36L58 35L57 35L57 34L58 34L58 32L57 32L57 30L58 30L58 29L57 29L57 28L56 28L56 29L55 29L55 28L54 28L54 29L53 29L53 27L54 27L54 25L53 25L53 24L52 24L52 25L53 25L53 27L52 27L52 26L51 26L51 28L50 28L50 27L49 27L49 26L50 26L50 25L51 25L51 24L49 24L49 22L50 22L50 23L53 23L53 21L54 21L54 20L55 20L55 19L52 19L52 22L50 22L50 21L51 21L51 19L50 19L50 17L49 17L49 16L48 16L48 13ZM34 14L34 15L35 15L35 14ZM36 16L36 17L34 17L34 18L32 18L32 20L31 20L31 19L30 19L30 20L31 20L31 23L30 23L30 24L31 24L31 23L32 23L32 24L33 24L33 26L35 26L35 24L36 24L36 22L37 22L37 19L36 19L36 18L37 18L37 16ZM38 17L38 18L39 18L39 17ZM65 17L65 19L64 19L64 20L63 20L63 21L62 21L62 23L63 23L63 25L62 25L62 28L63 28L63 29L62 29L62 30L64 30L64 31L65 31L65 30L66 30L66 29L64 29L64 28L63 28L63 25L64 25L64 23L66 23L66 25L65 25L65 26L66 26L66 25L67 25L67 23L68 23L68 22L67 22L67 23L66 23L66 21L68 21L68 20L67 20L67 19L68 19L68 18L67 18L67 17ZM0 18L0 22L1 22L1 18ZM6 18L6 19L7 19L7 20L6 20L6 21L9 21L9 19L7 19L7 18ZM34 18L34 19L33 19L33 20L32 20L32 21L33 21L33 23L34 23L34 22L36 22L36 21L34 21L34 19L35 19L35 18ZM42 18L42 19L44 19L44 18ZM48 18L48 19L49 19L49 21L50 21L50 19L49 19L49 18ZM11 19L11 20L10 20L10 21L11 21L11 22L12 22L12 21L11 21L11 20L12 20L12 19ZM14 19L14 20L15 20L15 19ZM17 19L17 21L18 21L18 22L19 22L19 21L20 21L20 20L19 20L19 21L18 21L18 19ZM65 19L65 20L64 20L64 22L63 22L63 23L64 23L64 22L65 22L65 21L66 21L66 19ZM25 20L25 21L24 21L24 22L25 22L25 21L26 21L26 20ZM55 21L55 22L56 22L56 23L57 23L57 22L56 22L56 21ZM60 21L60 22L61 22L61 21ZM47 22L47 23L48 23L48 22ZM24 23L24 24L25 24L25 23ZM6 25L6 26L7 26L7 25ZM36 25L36 26L37 26L37 25ZM48 25L48 26L47 26L47 27L46 27L46 28L45 28L45 29L44 29L44 28L43 28L43 29L40 29L40 30L42 30L42 36L41 36L41 37L42 37L42 38L43 38L43 41L42 41L42 39L41 39L41 41L42 41L42 42L43 42L43 41L44 41L44 43L42 43L42 44L43 44L43 45L44 45L44 43L46 43L46 44L45 44L45 45L46 45L46 44L47 44L47 45L48 45L48 44L47 44L47 43L48 43L48 40L49 40L49 41L50 41L50 42L49 42L49 45L50 45L50 42L51 42L51 41L52 41L52 42L53 42L53 41L52 41L52 40L54 40L54 39L52 39L52 40L51 40L51 38L52 38L52 36L54 36L54 38L55 38L55 37L56 37L56 36L57 36L57 35L56 35L56 36L55 36L55 34L57 34L57 33L56 33L56 32L55 32L55 31L56 31L56 30L55 30L55 29L54 29L54 30L52 30L52 29L50 29L50 30L51 30L51 32L50 32L50 31L48 31L48 30L47 30L47 29L48 29L48 26L49 26L49 25ZM1 26L1 27L0 27L0 28L1 28L1 27L2 27L2 26ZM17 26L17 27L18 27L18 29L19 29L19 28L20 28L20 29L21 29L21 28L20 28L20 27L23 27L23 26L20 26L20 27L18 27L18 26ZM68 26L68 27L69 27L69 26ZM28 27L28 28L29 28L29 27ZM34 27L34 28L35 28L35 27ZM22 28L22 29L23 29L23 31L24 31L24 32L22 32L22 31L21 31L21 32L20 32L20 33L21 33L21 34L20 34L20 35L21 35L21 36L20 36L20 37L21 37L21 36L22 36L22 34L24 34L24 33L25 33L25 31L24 31L24 29L25 29L25 28L24 28L24 29L23 29L23 28ZM32 28L32 29L33 29L33 28ZM43 29L43 30L44 30L44 29ZM45 29L45 31L44 31L44 34L43 34L43 35L44 35L44 37L43 37L43 38L45 38L45 39L46 39L46 41L45 41L45 40L44 40L44 41L45 41L45 42L46 42L46 41L47 41L47 39L46 39L46 35L47 35L47 36L48 36L48 37L47 37L47 38L48 38L48 37L51 37L51 36L52 36L52 35L53 35L53 34L54 34L54 33L55 33L55 32L54 32L54 31L55 31L55 30L54 30L54 31L52 31L52 35L51 35L51 36L50 36L50 32L48 32L48 31L47 31L47 30L46 30L46 29ZM5 31L5 32L7 32L7 31ZM16 31L16 32L17 32L17 31ZM26 31L26 32L27 32L27 31ZM32 31L32 32L33 32L33 31ZM21 32L21 33L22 33L22 32ZM46 32L46 34L44 34L44 35L46 35L46 34L47 34L47 35L48 35L48 36L49 36L49 33L48 33L48 32ZM53 32L53 33L54 33L54 32ZM5 33L5 36L8 36L8 33ZM16 33L16 34L17 34L17 33ZM33 33L33 36L36 36L36 33ZM47 33L47 34L48 34L48 33ZM61 33L61 36L64 36L64 33ZM3 34L3 35L4 35L4 34ZM6 34L6 35L7 35L7 34ZM34 34L34 35L35 35L35 34ZM39 34L39 35L41 35L41 34ZM62 34L62 35L63 35L63 34ZM18 36L18 37L17 37L17 38L16 38L16 39L15 39L15 40L16 40L16 39L17 39L17 38L18 38L18 37L19 37L19 36ZM30 36L30 37L31 37L31 39L30 39L30 40L31 40L31 39L32 39L32 37L31 37L31 36ZM7 39L7 40L6 40L6 41L7 41L7 42L6 42L6 43L7 43L7 44L6 44L6 45L7 45L7 44L8 44L8 43L7 43L7 42L8 42L8 41L7 41L7 40L8 40L8 39ZM49 39L49 40L50 40L50 41L51 41L51 40L50 40L50 39ZM2 40L2 42L3 42L3 43L4 43L4 42L3 42L3 40ZM13 40L13 41L12 41L12 42L13 42L13 43L12 43L12 44L15 44L15 45L14 45L14 46L13 46L13 45L12 45L12 46L10 46L10 48L11 48L11 50L10 50L10 51L12 51L12 50L16 50L16 51L15 51L15 52L17 52L17 51L18 51L18 55L17 55L17 56L18 56L18 57L19 57L19 56L18 56L18 55L19 55L19 54L20 54L20 53L21 53L21 51L22 51L22 54L23 54L23 55L22 55L22 56L23 56L23 55L25 55L25 56L24 56L24 57L25 57L25 56L26 56L26 55L27 55L27 54L24 54L24 52L23 52L23 51L22 51L22 50L23 50L23 48L22 48L22 50L21 50L21 48L20 48L20 45L21 45L21 46L22 46L22 47L24 47L24 48L25 48L25 50L26 50L26 49L27 49L27 48L26 48L26 47L27 47L27 46L25 46L25 47L24 47L24 45L23 45L23 44L22 44L22 43L21 43L21 42L20 42L20 43L19 43L19 44L18 44L18 45L19 45L19 47L18 47L18 48L19 48L19 50L16 50L16 48L17 48L17 46L16 46L16 45L17 45L17 44L15 44L15 43L14 43L14 42L13 42L13 41L14 41L14 40ZM16 42L16 43L17 43L17 42ZM24 42L24 43L27 43L27 42ZM61 42L61 44L60 44L60 45L61 45L61 44L62 44L62 45L63 45L63 44L64 44L64 42L63 42L63 44L62 44L62 42ZM20 43L20 44L21 44L21 45L22 45L22 46L23 46L23 45L22 45L22 44L21 44L21 43ZM66 43L66 44L67 44L67 43ZM40 45L40 46L41 46L41 45ZM12 46L12 49L13 49L13 48L14 48L14 49L15 49L15 48L14 48L14 47L13 47L13 46ZM15 46L15 47L16 47L16 46ZM29 46L29 47L28 47L28 49L29 49L29 47L30 47L30 50L31 50L31 51L32 51L32 48L31 48L31 47L32 47L32 46L31 46L31 47L30 47L30 46ZM61 46L61 47L62 47L62 46ZM33 47L33 48L34 48L34 47ZM36 48L36 49L37 49L37 48ZM59 48L59 49L60 49L60 48ZM50 49L50 50L51 50L51 49ZM52 49L52 50L53 50L53 49ZM64 49L64 50L65 50L65 49ZM20 50L20 51L21 51L21 50ZM28 50L28 51L29 51L29 52L30 52L30 53L32 53L32 52L30 52L30 51L29 51L29 50ZM67 50L67 51L68 51L68 50ZM3 51L3 52L4 52L4 51ZM8 51L8 53L9 53L9 54L10 54L10 53L9 53L9 51ZM25 51L25 52L26 52L26 53L27 53L27 51ZM34 51L34 52L35 52L35 51ZM36 51L36 52L37 52L37 51ZM53 51L53 53L54 53L54 51ZM64 51L64 52L65 52L65 51ZM38 52L38 53L39 53L39 52ZM56 52L56 54L55 54L55 55L54 55L54 56L55 56L55 55L58 55L58 56L56 56L56 57L55 57L55 59L56 59L56 58L57 58L57 59L58 59L58 57L59 57L59 59L60 59L60 58L61 58L61 56L63 56L63 54L62 54L62 55L60 55L60 56L59 56L59 54L58 54L58 53L57 53L57 52ZM48 53L48 54L49 54L49 53ZM28 54L28 55L29 55L29 58L30 58L30 57L32 57L32 56L30 56L30 55L32 55L32 54ZM34 54L34 55L35 55L35 56L34 56L34 57L35 57L35 56L36 56L36 55L35 55L35 54ZM3 55L3 56L4 56L4 55ZM9 55L9 56L11 56L11 55ZM20 56L20 57L21 57L21 56ZM65 56L65 57L66 57L66 56ZM68 56L68 57L69 57L69 56ZM50 57L50 58L49 58L49 60L50 60L50 62L52 62L52 58L51 58L51 57ZM0 58L0 61L1 61L1 58ZM22 58L22 59L23 59L23 58ZM24 58L24 59L25 59L25 58ZM68 58L68 59L69 59L69 58ZM31 59L31 60L32 60L32 59ZM44 59L44 60L45 60L45 59ZM50 59L50 60L51 60L51 59ZM3 60L3 61L5 61L5 60ZM6 60L6 61L7 61L7 60ZM26 60L26 61L27 61L27 63L26 63L26 64L27 64L27 63L28 63L28 60ZM53 60L53 61L54 61L54 62L55 62L55 61L54 61L54 60ZM20 61L20 62L21 62L21 61ZM29 61L29 62L30 62L30 61ZM33 61L33 64L36 64L36 61ZM61 61L61 64L64 64L64 61ZM66 61L66 62L67 62L67 63L66 63L66 65L65 65L65 67L66 67L66 65L67 65L67 64L68 64L68 62L67 62L67 61ZM24 62L24 63L25 63L25 62ZM34 62L34 63L35 63L35 62ZM62 62L62 63L63 63L63 62ZM41 63L41 65L42 65L42 63ZM43 63L43 65L44 65L44 63ZM22 64L22 65L23 65L23 64ZM24 64L24 65L25 65L25 64ZM9 65L9 66L8 66L8 69L10 69L10 68L9 68L9 66L10 66L10 65ZM33 67L33 68L32 68L32 69L37 69L37 68L36 68L36 67L35 67L35 68L34 68L34 67ZM39 67L39 68L38 68L38 69L39 69L39 68L40 68L40 69L43 69L43 68L40 68L40 67ZM68 68L68 69L69 69L69 68ZM0 0L0 7L7 7L7 0ZM1 1L1 6L6 6L6 1ZM2 2L2 5L5 5L5 2ZM62 0L62 7L69 7L69 0ZM63 1L63 6L68 6L68 1ZM64 2L64 5L67 5L67 2ZM0 62L0 69L7 69L7 62ZM1 63L1 68L6 68L6 63ZM2 64L2 67L5 67L5 64Z" fill="#000000"/></g></g></svg>
