<?xml version="1.0" encoding="UTF-8"?>
<svg xmlns="http://www.w3.org/2000/svg" version="1.1" width="300" height="300" viewBox="0 0 300 300"><rect x="0" y="0" width="300" height="300" fill="#ffffff"/><g transform="scale(4.615)"><g transform="translate(0,0)"><path fill-rule="evenodd" d="M8 0L8 1L11 1L11 0ZM16 0L16 1L13 1L13 2L9 2L9 4L11 4L11 5L10 5L10 8L11 8L11 10L10 10L10 12L8 12L8 10L9 10L9 9L8 9L8 10L6 10L6 9L7 9L7 8L6 8L6 9L5 9L5 8L3 8L3 9L2 9L2 8L0 8L0 9L1 9L1 10L3 10L3 11L2 11L2 13L1 13L1 14L0 14L0 15L1 15L1 17L0 17L0 19L1 19L1 18L2 18L2 17L3 17L3 18L4 18L4 19L2 19L2 20L4 20L4 19L5 19L5 20L6 20L6 21L4 21L4 22L3 22L3 21L1 21L1 20L0 20L0 21L1 21L1 22L0 22L0 23L1 23L1 22L2 22L2 24L0 24L0 25L1 25L1 27L0 27L0 28L1 28L1 29L2 29L2 28L3 28L3 30L0 30L0 32L2 32L2 33L3 33L3 34L4 34L4 35L5 35L5 37L4 37L4 36L3 36L3 37L1 37L1 38L0 38L0 39L1 39L1 41L4 41L4 42L5 42L5 43L3 43L3 42L2 42L2 45L0 45L0 46L1 46L1 48L0 48L0 51L2 51L2 52L0 52L0 54L2 54L2 55L3 55L3 56L1 56L1 55L0 55L0 56L1 56L1 57L3 57L3 56L4 56L4 57L5 57L5 56L4 56L4 54L5 54L5 55L7 55L7 54L8 54L8 55L9 55L9 56L10 56L10 57L8 57L8 56L6 56L6 57L8 57L8 58L9 58L9 60L8 60L8 62L12 62L12 63L11 63L11 64L10 64L10 63L8 63L8 65L11 65L11 64L12 64L12 65L13 65L13 64L14 64L14 65L17 65L17 63L18 63L18 62L21 62L21 60L20 60L20 61L19 61L19 59L21 59L21 58L22 58L22 59L24 59L24 62L23 62L23 63L24 63L24 64L23 64L23 65L24 65L24 64L25 64L25 65L27 65L27 64L28 64L28 65L35 65L35 64L36 64L36 65L39 65L39 64L36 64L36 63L35 63L35 58L39 58L39 59L38 59L38 62L39 62L39 63L40 63L40 64L41 64L41 65L47 65L47 64L43 64L43 63L45 63L45 62L44 62L44 61L45 61L45 60L46 60L46 61L47 61L47 60L46 60L46 58L47 58L47 59L48 59L48 62L47 62L47 63L48 63L48 65L49 65L49 64L50 64L50 65L51 65L51 64L53 64L53 65L54 65L54 64L55 64L55 65L56 65L56 64L59 64L59 63L60 63L60 65L63 65L63 63L64 63L64 64L65 64L65 62L59 62L59 61L62 61L62 59L61 59L61 57L62 57L62 58L63 58L63 57L64 57L64 58L65 58L65 57L64 57L64 56L65 56L65 47L63 47L63 48L62 48L62 46L65 46L65 45L64 45L64 44L65 44L65 42L64 42L64 41L63 41L63 42L62 42L62 43L61 43L61 41L62 41L62 40L63 40L63 39L62 39L62 40L61 40L61 38L62 38L62 37L61 37L61 36L62 36L62 35L61 35L61 28L62 28L62 33L63 33L63 34L65 34L65 30L64 30L64 33L63 33L63 29L65 29L65 28L63 28L63 27L62 27L62 25L63 25L63 26L64 26L64 27L65 27L65 26L64 26L64 25L65 25L65 24L64 24L64 23L63 23L63 24L62 24L62 22L65 22L65 21L64 21L64 20L65 20L65 17L63 17L63 16L65 16L65 12L62 12L62 11L63 11L63 10L65 10L65 8L64 8L64 9L62 9L62 10L61 10L61 9L60 9L60 11L61 11L61 12L59 12L59 11L56 11L56 12L55 12L55 11L54 11L54 10L59 10L59 8L58 8L58 9L57 9L57 8L56 8L56 7L57 7L57 6L56 6L56 7L55 7L55 5L54 5L54 7L55 7L55 9L53 9L53 8L52 8L52 7L53 7L53 4L56 4L56 5L57 5L57 4L56 4L56 3L57 3L57 1L56 1L56 0L55 0L55 1L56 1L56 3L55 3L55 2L54 2L54 1L53 1L53 0L50 0L50 1L49 1L49 0L48 0L48 1L47 1L47 0L46 0L46 1L45 1L45 0L42 0L42 1L40 1L40 0L38 0L38 3L39 3L39 4L37 4L37 3L35 3L35 4L33 4L33 3L34 3L34 2L33 2L33 3L32 3L32 0L30 0L30 1L29 1L29 0L27 0L27 1L25 1L25 0L23 0L23 2L22 2L22 4L24 4L24 5L22 5L22 7L21 7L21 6L20 6L20 5L21 5L21 4L20 4L20 3L21 3L21 2L20 2L20 1L21 1L21 0L20 0L20 1L18 1L18 0ZM34 0L34 1L35 1L35 2L37 2L37 1L35 1L35 0ZM16 1L16 5L18 5L18 6L17 6L17 8L15 8L15 7L16 7L16 6L15 6L15 5L14 5L14 4L15 4L15 2L14 2L14 4L13 4L13 3L11 3L11 4L12 4L12 5L13 5L13 7L14 7L14 8L15 8L15 9L14 9L14 12L13 12L13 13L14 13L14 15L13 15L13 16L14 16L14 15L15 15L15 17L16 17L16 18L15 18L15 20L18 20L18 21L16 21L16 22L17 22L17 23L16 23L16 24L17 24L17 25L16 25L16 26L15 26L15 25L14 25L14 24L15 24L15 21L12 21L12 20L13 20L13 19L14 19L14 18L13 18L13 17L11 17L11 16L10 16L10 13L11 13L11 15L12 15L12 12L10 12L10 13L5 13L5 14L4 14L4 16L3 16L3 17L5 17L5 16L7 16L7 15L8 15L8 14L9 14L9 20L8 20L8 19L6 19L6 20L7 20L7 21L6 21L6 22L5 22L5 23L6 23L6 24L5 24L5 25L6 25L6 26L7 26L7 27L6 27L6 28L5 28L5 27L4 27L4 28L5 28L5 29L6 29L6 30L9 30L9 31L10 31L10 33L9 33L9 34L10 34L10 35L6 35L6 36L7 36L7 37L5 37L5 38L3 38L3 39L2 39L2 38L1 38L1 39L2 39L2 40L3 40L3 39L4 39L4 41L5 41L5 42L9 42L9 40L10 40L10 42L11 42L11 39L10 39L10 38L11 38L11 34L12 34L12 35L13 35L13 33L14 33L14 32L19 32L19 34L20 34L20 32L19 32L19 31L20 31L20 30L21 30L21 33L22 33L22 31L23 31L23 33L26 33L26 34L25 34L25 35L24 35L24 34L22 34L22 35L24 35L24 36L25 36L25 35L26 35L26 36L27 36L27 37L28 37L28 38L27 38L27 39L26 39L26 40L25 40L25 41L26 41L26 40L27 40L27 43L26 43L26 42L24 42L24 41L23 41L23 40L24 40L24 39L25 39L25 38L26 38L26 37L25 37L25 38L23 38L23 37L22 37L22 38L21 38L21 39L22 39L22 38L23 38L23 40L21 40L21 41L20 41L20 43L19 43L19 42L18 42L18 44L20 44L20 46L19 46L19 45L16 45L16 46L17 46L17 47L16 47L16 48L17 48L17 49L16 49L16 50L15 50L15 51L13 51L13 50L12 50L12 49L14 49L14 47L13 47L13 46L12 46L12 45L11 45L11 44L12 44L12 43L11 43L11 44L10 44L10 43L9 43L9 44L8 44L8 45L6 45L6 44L7 44L7 43L6 43L6 44L3 44L3 45L2 45L2 46L3 46L3 45L4 45L4 46L5 46L5 45L6 45L6 46L7 46L7 47L6 47L6 48L5 48L5 47L4 47L4 48L3 48L3 47L2 47L2 49L1 49L1 50L3 50L3 51L4 51L4 50L9 50L9 48L7 48L7 47L9 47L9 46L11 46L11 52L12 52L12 51L13 51L13 54L12 54L12 55L13 55L13 56L11 56L11 53L10 53L10 51L9 51L9 53L8 53L8 52L7 52L7 51L5 51L5 52L4 52L4 53L5 53L5 52L7 52L7 53L6 53L6 54L7 54L7 53L8 53L8 54L9 54L9 55L10 55L10 56L11 56L11 58L10 58L10 60L12 60L12 61L13 61L13 63L12 63L12 64L13 64L13 63L14 63L14 61L15 61L15 64L16 64L16 62L18 62L18 60L17 60L17 61L16 61L16 59L19 59L19 58L15 58L15 56L16 56L16 57L17 57L17 56L20 56L20 57L22 57L22 58L23 58L23 57L22 57L22 55L23 55L23 56L26 56L26 58L24 58L24 59L25 59L25 62L27 62L27 63L25 63L25 64L27 64L27 63L28 63L28 62L29 62L29 63L30 63L30 64L31 64L31 63L34 63L34 61L32 61L32 62L31 62L31 63L30 63L30 60L28 60L28 58L27 58L27 56L26 56L26 54L27 54L27 53L29 53L29 52L30 52L30 53L31 53L31 55L30 55L30 54L28 54L28 56L29 56L29 57L30 57L30 56L31 56L31 55L34 55L34 56L35 56L35 55L36 55L36 54L37 54L37 53L38 53L38 54L39 54L39 55L37 55L37 57L40 57L40 58L41 58L41 57L43 57L43 58L42 58L42 59L43 59L43 58L44 58L44 57L45 57L45 56L44 56L44 55L42 55L42 53L41 53L41 52L42 52L42 51L41 51L41 52L40 52L40 50L41 50L41 49L42 49L42 48L43 48L43 47L45 47L45 44L48 44L48 42L49 42L49 43L50 43L50 45L51 45L51 46L49 46L49 45L47 45L47 46L46 46L46 50L45 50L45 49L43 49L43 50L44 50L44 51L43 51L43 52L45 52L45 53L43 53L43 54L45 54L45 55L46 55L46 56L48 56L48 54L49 54L49 53L50 53L50 54L51 54L51 55L52 55L52 56L50 56L50 55L49 55L49 56L50 56L50 57L49 57L49 58L50 58L50 60L49 60L49 62L50 62L50 63L51 63L51 62L52 62L52 63L53 63L53 64L54 64L54 62L53 62L53 61L52 61L52 59L53 59L53 57L52 57L52 56L53 56L53 55L52 55L52 54L54 54L54 53L56 53L56 52L57 52L57 49L58 49L58 50L59 50L59 49L60 49L60 47L59 47L59 45L58 45L58 42L59 42L59 44L61 44L61 45L62 45L62 44L61 44L61 43L60 43L60 41L59 41L59 39L60 39L60 38L59 38L59 39L58 39L58 42L57 42L57 41L56 41L56 40L57 40L57 39L56 39L56 38L57 38L57 36L58 36L58 37L60 37L60 35L57 35L57 36L56 36L56 35L55 35L55 36L53 36L53 33L52 33L52 32L54 32L54 31L55 31L55 30L54 30L54 29L55 29L55 28L54 28L54 27L55 27L55 26L56 26L56 25L57 25L57 24L58 24L58 26L59 26L59 27L56 27L56 28L57 28L57 29L56 29L56 30L57 30L57 29L59 29L59 30L60 30L60 28L61 28L61 26L59 26L59 24L61 24L61 22L60 22L60 23L56 23L56 24L55 24L55 22L54 22L54 20L53 20L53 21L52 21L52 19L55 19L55 20L56 20L56 19L55 19L55 18L53 18L53 17L56 17L56 18L57 18L57 16L58 16L58 17L60 17L60 18L61 18L61 19L60 19L60 20L59 20L59 19L58 19L58 21L60 21L60 20L62 20L62 21L63 21L63 20L64 20L64 18L63 18L63 20L62 20L62 17L60 17L60 16L59 16L59 15L60 15L60 13L59 13L59 12L58 12L58 14L59 14L59 15L57 15L57 14L56 14L56 13L55 13L55 12L54 12L54 11L53 11L53 9L52 9L52 8L50 8L50 5L48 5L48 4L46 4L46 6L45 6L45 5L43 5L43 8L41 8L41 9L43 9L43 11L42 11L42 10L40 10L40 11L39 11L39 10L38 10L38 9L39 9L39 8L38 8L38 9L35 9L35 10L36 10L36 12L35 12L35 11L34 11L34 15L33 15L33 13L32 13L32 11L33 11L33 10L31 10L31 9L30 9L30 8L29 8L29 7L30 7L30 5L29 5L29 4L28 4L28 3L29 3L29 1L28 1L28 3L27 3L27 2L25 2L25 4L26 4L26 3L27 3L27 5L26 5L26 6L25 6L25 5L24 5L24 6L23 6L23 7L22 7L22 8L21 8L21 7L20 7L20 6L19 6L19 5L20 5L20 4L19 4L19 5L18 5L18 3L17 3L17 2L18 2L18 1ZM39 1L39 2L40 2L40 1ZM43 1L43 2L44 2L44 1ZM46 1L46 2L45 2L45 3L47 3L47 1ZM48 1L48 2L49 2L49 4L51 4L51 7L52 7L52 4L51 4L51 2L49 2L49 1ZM52 1L52 3L54 3L54 2L53 2L53 1ZM19 2L19 3L20 3L20 2ZM30 2L30 4L31 4L31 2ZM41 3L41 4L40 4L40 6L39 6L39 5L38 5L38 6L37 6L37 4L35 4L35 8L37 8L37 7L38 7L38 6L39 6L39 7L40 7L40 6L41 6L41 7L42 7L42 6L41 6L41 5L42 5L42 4L43 4L43 3ZM28 5L28 7L27 7L27 6L26 6L26 8L27 8L27 11L30 11L30 13L31 13L31 14L29 14L29 12L26 12L26 13L25 13L25 12L24 12L24 11L25 11L25 6L24 6L24 8L22 8L22 9L23 9L23 10L24 10L24 11L23 11L23 12L22 12L22 11L21 11L21 9L19 9L19 8L20 8L20 7L19 7L19 6L18 6L18 7L19 7L19 8L17 8L17 10L18 10L18 13L17 13L17 12L15 12L15 13L17 13L17 14L19 14L19 15L17 15L17 16L16 16L16 17L17 17L17 18L19 18L19 20L21 20L21 19L20 19L20 17L21 17L21 16L24 16L24 18L23 18L23 17L22 17L22 18L23 18L23 19L22 19L22 20L23 20L23 21L22 21L22 22L23 22L23 23L21 23L21 21L18 21L18 23L17 23L17 24L18 24L18 25L20 25L20 26L21 26L21 25L20 25L20 24L19 24L19 22L20 22L20 23L21 23L21 24L22 24L22 25L23 25L23 24L24 24L24 23L25 23L25 24L26 24L26 25L24 25L24 26L22 26L22 28L24 28L24 29L22 29L22 30L24 30L24 32L25 32L25 31L26 31L26 32L27 32L27 34L26 34L26 35L27 35L27 36L28 36L28 37L29 37L29 36L28 36L28 35L27 35L27 34L29 34L29 33L28 33L28 31L29 31L29 29L34 29L34 30L30 30L30 35L31 35L31 36L30 36L30 37L31 37L31 39L30 39L30 38L28 38L28 39L29 39L29 40L28 40L28 43L27 43L27 46L28 46L28 48L27 48L27 47L26 47L26 49L25 49L25 48L24 48L24 49L23 49L23 47L24 47L24 45L25 45L25 46L26 46L26 45L25 45L25 44L26 44L26 43L24 43L24 42L23 42L23 41L21 41L21 42L22 42L22 46L23 46L23 47L22 47L22 49L23 49L23 50L24 50L24 51L25 51L25 50L26 50L26 51L28 51L28 52L29 52L29 51L30 51L30 52L31 52L31 53L32 53L32 52L31 52L31 47L29 47L29 43L30 43L30 42L32 42L32 43L33 43L33 42L32 42L32 41L29 41L29 40L31 40L31 39L32 39L32 40L34 40L34 41L35 41L35 42L34 42L34 43L38 43L38 44L35 44L35 45L34 45L34 44L31 44L31 45L30 45L30 46L35 46L35 45L37 45L37 46L36 46L36 47L32 47L32 50L34 50L34 51L33 51L33 52L35 52L35 51L36 51L36 53L37 53L37 51L38 51L38 52L39 52L39 50L40 50L40 49L41 49L41 48L42 48L42 46L43 46L43 45L42 45L42 44L44 44L44 43L45 43L45 42L46 42L46 43L47 43L47 42L48 42L48 41L49 41L49 42L50 42L50 43L51 43L51 44L52 44L52 45L53 45L53 46L52 46L52 47L49 47L49 48L47 48L47 50L48 50L48 51L46 51L46 53L45 53L45 54L47 54L47 52L48 52L48 53L49 53L49 52L48 52L48 51L49 51L49 48L52 48L52 49L50 49L50 50L51 50L51 51L50 51L50 52L51 52L51 54L52 54L52 49L54 49L54 50L53 50L53 53L54 53L54 52L55 52L55 51L56 51L56 50L55 50L55 49L57 49L57 47L55 47L55 49L54 49L54 48L52 48L52 47L54 47L54 46L58 46L58 45L56 45L56 43L57 43L57 42L56 42L56 41L55 41L55 38L56 38L56 36L55 36L55 37L53 37L53 36L52 36L52 35L51 35L51 34L52 34L52 33L50 33L50 32L51 32L51 31L54 31L54 30L53 30L53 29L54 29L54 28L53 28L53 29L52 29L52 30L51 30L51 31L50 31L50 29L49 29L49 27L50 27L50 28L51 28L51 27L52 27L52 26L53 26L53 27L54 27L54 26L55 26L55 24L53 24L53 23L52 23L52 22L51 22L51 21L50 21L50 20L49 20L49 19L48 19L48 17L51 17L51 18L52 18L52 17L51 17L51 16L50 16L50 14L51 14L51 15L52 15L52 16L53 16L53 15L54 15L54 16L57 16L57 15L56 15L56 14L55 14L55 13L54 13L54 12L53 12L53 11L52 11L52 9L50 9L50 8L49 8L49 6L48 6L48 5L47 5L47 6L46 6L46 7L45 7L45 6L44 6L44 8L46 8L46 9L45 9L45 10L44 10L44 11L43 11L43 12L44 12L44 13L42 13L42 11L41 11L41 12L40 12L40 13L38 13L38 14L37 14L37 12L36 12L36 13L35 13L35 14L37 14L37 15L36 15L36 17L33 17L33 15L32 15L32 13L31 13L31 10L30 10L30 9L29 9L29 8L28 8L28 7L29 7L29 5ZM31 5L31 8L34 8L34 5ZM8 6L8 8L9 8L9 6ZM11 6L11 8L12 8L12 6ZM14 6L14 7L15 7L15 6ZM32 6L32 7L33 7L33 6ZM36 6L36 7L37 7L37 6ZM47 6L47 7L46 7L46 8L47 8L47 7L48 7L48 6ZM4 10L4 11L3 11L3 13L4 13L4 12L5 12L5 11L6 11L6 12L7 12L7 11L6 11L6 10ZM12 10L12 11L13 11L13 10ZM19 10L19 11L20 11L20 12L21 12L21 13L19 13L19 14L21 14L21 15L20 15L20 16L19 16L19 17L20 17L20 16L21 16L21 15L22 15L22 14L23 14L23 15L24 15L24 16L26 16L26 15L27 15L27 13L26 13L26 15L25 15L25 13L24 13L24 14L23 14L23 13L22 13L22 12L21 12L21 11L20 11L20 10ZM37 10L37 11L38 11L38 10ZM45 10L45 11L44 11L44 12L45 12L45 13L44 13L44 14L43 14L43 15L44 15L44 14L45 14L45 16L47 16L47 17L48 17L48 16L49 16L49 15L47 15L47 14L48 14L48 12L49 12L49 11L51 11L51 10L49 10L49 11L48 11L48 12L47 12L47 13L46 13L46 12L45 12L45 11L47 11L47 10ZM0 11L0 12L1 12L1 11ZM50 12L50 13L49 13L49 14L50 14L50 13L52 13L52 12ZM61 12L61 15L62 15L62 12ZM21 13L21 14L22 14L22 13ZM40 13L40 15L39 15L39 14L38 14L38 15L37 15L37 16L39 16L39 17L37 17L37 19L38 19L38 20L39 20L39 21L40 21L40 20L41 20L41 19L43 19L43 21L45 21L45 23L44 23L44 22L42 22L42 21L41 21L41 23L44 23L44 24L42 24L42 25L44 25L44 26L41 26L41 25L40 25L40 24L39 24L39 22L36 22L36 23L34 23L34 24L33 24L33 25L32 25L32 23L33 23L33 22L32 22L32 21L33 21L33 20L28 20L28 19L30 19L30 18L31 18L31 16L32 16L32 15L31 15L31 16L30 16L30 18L28 18L28 19L27 19L27 17L29 17L29 14L28 14L28 16L27 16L27 17L26 17L26 18L24 18L24 19L23 19L23 20L25 20L25 22L26 22L26 20L27 20L27 21L31 21L31 22L32 22L32 23L31 23L31 24L30 24L30 23L29 23L29 24L30 24L30 25L28 25L28 24L27 24L27 23L28 23L28 22L27 22L27 23L26 23L26 24L27 24L27 25L26 25L26 28L28 28L28 29L25 29L25 30L26 30L26 31L27 31L27 30L28 30L28 29L29 29L29 28L28 28L28 27L31 27L31 28L32 28L32 26L33 26L33 25L34 25L34 27L33 27L33 28L34 28L34 29L36 29L36 27L37 27L37 29L38 29L38 30L35 30L35 32L37 32L37 33L39 33L39 34L40 34L40 32L41 32L41 31L40 31L40 32L38 32L38 31L39 31L39 29L40 29L40 30L42 30L42 29L43 29L43 28L44 28L44 27L46 27L46 26L47 26L47 27L49 27L49 26L50 26L50 27L51 27L51 26L50 26L50 25L49 25L49 26L47 26L47 25L48 25L48 22L47 22L47 24L46 24L46 26L45 26L45 25L44 25L44 24L45 24L45 23L46 23L46 20L47 20L47 18L46 18L46 19L45 19L45 17L44 17L44 19L43 19L43 18L40 18L40 19L39 19L39 17L42 17L42 15L41 15L41 13ZM1 14L1 15L3 15L3 14ZM5 14L5 15L7 15L7 14ZM15 14L15 15L16 15L16 14ZM63 14L63 15L64 15L64 14ZM17 16L17 17L18 17L18 16ZM6 17L6 18L8 18L8 17ZM10 17L10 18L11 18L11 17ZM32 17L32 19L33 19L33 17ZM12 18L12 19L10 19L10 20L9 20L9 22L8 22L8 23L7 23L7 22L6 22L6 23L7 23L7 24L6 24L6 25L7 25L7 26L11 26L11 27L7 27L7 28L6 28L6 29L8 29L8 28L11 28L11 29L10 29L10 31L11 31L11 33L12 33L12 32L14 32L14 31L13 31L13 30L15 30L15 28L18 28L18 29L16 29L16 31L17 31L17 30L18 30L18 29L21 29L21 27L19 27L19 26L18 26L18 27L15 27L15 26L14 26L14 25L13 25L13 26L11 26L11 24L9 24L9 23L11 23L11 22L12 22L12 24L13 24L13 23L14 23L14 22L12 22L12 21L11 21L11 22L10 22L10 20L12 20L12 19L13 19L13 18ZM35 18L35 19L34 19L34 21L35 21L35 20L36 20L36 18ZM25 19L25 20L26 20L26 19ZM44 19L44 20L45 20L45 19ZM36 23L36 25L35 25L35 26L37 26L37 24L38 24L38 27L40 27L40 28L41 28L41 29L42 29L42 28L41 28L41 26L40 26L40 25L39 25L39 24L38 24L38 23ZM49 23L49 24L50 24L50 23ZM2 24L2 27L3 27L3 26L4 26L4 25L3 25L3 24ZM8 24L8 25L9 25L9 24ZM51 24L51 25L52 25L52 24ZM63 24L63 25L64 25L64 24ZM27 25L27 27L28 27L28 25ZM13 26L13 29L14 29L14 26ZM11 27L11 28L12 28L12 27ZM59 27L59 28L60 28L60 27ZM45 28L45 29L44 29L44 31L43 31L43 33L45 33L45 32L44 32L44 31L47 31L47 30L49 30L49 29L48 29L48 28ZM45 29L45 30L47 30L47 29ZM3 30L3 33L4 33L4 30ZM11 30L11 31L12 31L12 30ZM5 31L5 34L8 34L8 31ZM31 31L31 34L34 34L34 31ZM49 31L49 32L50 32L50 31ZM57 31L57 34L60 34L60 31ZM6 32L6 33L7 33L7 32ZM32 32L32 33L33 33L33 32ZM55 32L55 34L56 34L56 32ZM58 32L58 33L59 33L59 32ZM17 33L17 34L18 34L18 33ZM48 33L48 34L49 34L49 35L47 35L47 34L46 34L46 35L47 35L47 37L46 37L46 36L45 36L45 35L44 35L44 36L43 36L43 35L42 35L42 34L41 34L41 35L39 35L39 37L40 37L40 41L41 41L41 42L42 42L42 40L43 40L43 39L41 39L41 37L42 37L42 36L43 36L43 37L44 37L44 36L45 36L45 37L46 37L46 39L44 39L44 40L45 40L45 41L44 41L44 42L43 42L43 43L44 43L44 42L45 42L45 41L46 41L46 39L47 39L47 38L48 38L48 36L50 36L50 37L49 37L49 38L50 38L50 37L52 37L52 38L53 38L53 37L52 37L52 36L51 36L51 35L50 35L50 34L49 34L49 33ZM0 34L0 36L1 36L1 34ZM14 34L14 35L15 35L15 34ZM36 34L36 36L35 36L35 35L34 35L34 38L32 38L32 39L34 39L34 40L35 40L35 41L36 41L36 42L37 42L37 41L38 41L38 42L39 42L39 39L37 39L37 38L38 38L38 37L37 37L37 38L36 38L36 40L35 40L35 39L34 39L34 38L35 38L35 37L36 37L36 36L38 36L38 34ZM16 35L16 36L14 36L14 37L13 37L13 36L12 36L12 37L13 37L13 38L12 38L12 42L14 42L14 43L15 43L15 44L17 44L17 42L16 42L16 43L15 43L15 42L14 42L14 41L18 41L18 40L20 40L20 38L18 38L18 39L16 39L16 38L17 38L17 36L18 36L18 35ZM32 35L32 36L31 36L31 37L33 37L33 35ZM41 35L41 36L40 36L40 37L41 37L41 36L42 36L42 35ZM8 36L8 37L9 37L9 38L10 38L10 36ZM19 36L19 37L21 37L21 36ZM63 36L63 37L64 37L64 36ZM15 37L15 38L13 38L13 39L15 39L15 40L16 40L16 39L15 39L15 38L16 38L16 37ZM6 38L6 39L7 39L7 40L5 40L5 41L7 41L7 40L8 40L8 39L7 39L7 38ZM64 38L64 39L65 39L65 38ZM49 39L49 40L51 40L51 41L50 41L50 42L51 42L51 43L52 43L52 44L53 44L53 45L54 45L54 44L55 44L55 43L54 43L54 41L53 41L53 39ZM13 40L13 41L14 41L14 40ZM36 40L36 41L37 41L37 40ZM47 40L47 41L48 41L48 40ZM52 42L52 43L53 43L53 44L54 44L54 43L53 43L53 42ZM63 42L63 44L64 44L64 42ZM41 43L41 44L42 44L42 43ZM13 44L13 45L14 45L14 46L15 46L15 45L14 45L14 44ZM23 44L23 45L24 45L24 44ZM38 44L38 45L40 45L40 44ZM18 46L18 47L19 47L19 48L18 48L18 50L16 50L16 51L18 51L18 50L19 50L19 49L20 49L20 51L21 51L21 47L19 47L19 46ZM47 46L47 47L48 47L48 46ZM36 47L36 48L35 48L35 49L34 49L34 50L35 50L35 49L36 49L36 50L38 50L38 47ZM40 47L40 48L39 48L39 49L40 49L40 48L41 48L41 47ZM58 47L58 48L59 48L59 47ZM4 48L4 49L5 49L5 48ZM6 48L6 49L7 49L7 48ZM36 48L36 49L37 49L37 48ZM28 49L28 50L30 50L30 49ZM54 50L54 51L55 51L55 50ZM62 50L62 51L64 51L64 50ZM58 51L58 54L55 54L55 56L59 56L59 55L60 55L60 56L62 56L62 57L63 57L63 56L64 56L64 53L63 53L63 52L61 52L61 54L62 54L62 55L60 55L60 53L59 53L59 52L60 52L60 51ZM2 52L2 54L3 54L3 52ZM14 52L14 54L13 54L13 55L14 55L14 54L17 54L17 55L16 55L16 56L17 56L17 55L22 55L22 54L23 54L23 52L22 52L22 54L20 54L20 53L21 53L21 52L19 52L19 53L16 53L16 52ZM24 52L24 55L25 55L25 53L26 53L26 52ZM33 53L33 54L34 54L34 55L35 55L35 54L34 54L34 53ZM39 53L39 54L40 54L40 55L39 55L39 56L40 56L40 57L41 57L41 56L42 56L42 55L41 55L41 54L40 54L40 53ZM58 54L58 55L59 55L59 54ZM29 55L29 56L30 56L30 55ZM40 55L40 56L41 56L41 55ZM62 55L62 56L63 56L63 55ZM13 56L13 61L14 61L14 60L15 60L15 58L14 58L14 56ZM31 57L31 60L34 60L34 57ZM50 57L50 58L51 58L51 57ZM57 57L57 60L60 60L60 57ZM11 58L11 59L12 59L12 58ZM26 58L26 59L27 59L27 58ZM32 58L32 59L33 59L33 58ZM55 58L55 60L54 60L54 61L55 61L55 62L56 62L56 63L59 63L59 62L58 62L58 61L55 61L55 60L56 60L56 58ZM58 58L58 59L59 59L59 58ZM36 59L36 62L37 62L37 59ZM39 59L39 61L40 61L40 59ZM44 59L44 60L41 60L41 61L44 61L44 60L45 60L45 59ZM63 59L63 60L64 60L64 61L65 61L65 60L64 60L64 59ZM22 60L22 61L23 61L23 60ZM26 60L26 61L27 61L27 60ZM50 60L50 62L51 62L51 60ZM20 63L20 64L21 64L21 63ZM18 64L18 65L19 65L19 64ZM0 0L0 7L7 7L7 0ZM1 1L1 6L6 6L6 1ZM2 2L2 5L5 5L5 2ZM58 0L58 7L65 7L65 0ZM59 1L59 6L64 6L64 1ZM60 2L60 5L63 5L63 2ZM0 58L0 65L7 65L7 58ZM1 59L1 64L6 64L6 59ZM2 60L2 63L5 63L5 60Z" fill="#000000"/></g></g></svg>
