<?xml version="1.0" encoding="UTF-8"?>
<svg xmlns="http://www.w3.org/2000/svg" version="1.1" width="300" height="300" viewBox="0 0 300 300"><rect x="0" y="0" width="300" height="300" fill="#ffffff"/><g transform="scale(4.348)"><g transform="translate(0,0)"><path fill-rule="evenodd" d="M8 0L8 4L9 4L9 5L8 5L8 7L9 7L9 5L10 5L10 8L11 8L11 9L12 9L12 8L13 8L13 5L14 5L14 4L15 4L15 5L16 5L16 4L17 4L17 3L19 3L19 4L20 4L20 7L21 7L21 3L22 3L22 5L25 5L25 6L24 6L24 9L23 9L23 10L22 10L22 9L21 9L21 8L20 8L20 10L19 10L19 8L17 8L17 6L18 6L18 7L19 7L19 5L17 5L17 6L16 6L16 9L13 9L13 10L17 10L17 12L16 12L16 11L14 11L14 13L12 13L12 14L11 14L11 15L12 15L12 17L11 17L11 18L12 18L12 17L13 17L13 18L14 18L14 19L13 19L13 20L12 20L12 21L11 21L11 20L10 20L10 19L8 19L8 17L9 17L9 18L10 18L10 16L9 16L9 15L10 15L10 13L11 13L11 12L12 12L12 10L10 10L10 9L8 9L8 11L10 11L10 12L8 12L8 14L6 14L6 15L5 15L5 14L3 14L3 16L2 16L2 17L1 17L1 18L0 18L0 21L1 21L1 19L3 19L3 20L2 20L2 21L3 21L3 20L5 20L5 22L3 22L3 23L5 23L5 24L3 24L3 25L1 25L1 23L2 23L2 22L1 22L1 23L0 23L0 26L2 26L2 27L1 27L1 29L0 29L0 31L3 31L3 32L4 32L4 37L3 37L3 33L1 33L1 32L0 32L0 33L1 33L1 35L0 35L0 40L1 40L1 41L3 41L3 40L4 40L4 37L5 37L5 41L8 41L8 42L2 42L2 45L0 45L0 47L1 47L1 49L2 49L2 47L1 47L1 46L4 46L4 48L3 48L3 52L0 52L0 53L1 53L1 54L2 54L2 55L3 55L3 56L2 56L2 57L1 57L1 56L0 56L0 61L1 61L1 58L2 58L2 59L3 59L3 58L4 58L4 59L9 59L9 61L8 61L8 62L10 62L10 64L9 64L9 63L8 63L8 65L9 65L9 67L8 67L8 69L9 69L9 68L10 68L10 69L11 69L11 68L12 68L12 69L13 69L13 68L14 68L14 66L15 66L15 65L17 65L17 66L16 66L16 67L18 67L18 68L17 68L17 69L19 69L19 67L20 67L20 66L21 66L21 67L22 67L22 68L21 68L21 69L22 69L22 68L23 68L23 69L24 69L24 67L23 67L23 66L25 66L25 67L26 67L26 68L25 68L25 69L29 69L29 67L28 67L28 64L29 64L29 66L30 66L30 67L31 67L31 68L30 68L30 69L31 69L31 68L32 68L32 69L34 69L34 68L35 68L35 69L37 69L37 68L38 68L38 67L40 67L40 68L39 68L39 69L40 69L40 68L41 68L41 69L42 69L42 67L43 67L43 63L44 63L44 67L47 67L47 66L46 66L46 65L50 65L50 66L49 66L49 67L48 67L48 68L46 68L46 69L50 69L50 66L51 66L51 69L52 69L52 68L53 68L53 69L55 69L55 68L54 68L54 67L57 67L57 66L58 66L58 65L59 65L59 64L60 64L60 66L61 66L61 68L59 68L59 69L61 69L61 68L62 68L62 69L63 69L63 68L64 68L64 69L65 69L65 68L64 68L64 67L67 67L67 66L69 66L69 63L68 63L68 61L69 61L69 59L68 59L68 57L69 57L69 55L67 55L67 56L66 56L66 57L67 57L67 58L65 58L65 59L68 59L68 61L65 61L65 60L64 60L64 57L63 57L63 56L64 56L64 55L65 55L65 54L64 54L64 53L62 53L62 52L64 52L64 51L60 51L60 52L61 52L61 55L60 55L60 54L59 54L59 55L58 55L58 51L59 51L59 50L58 50L58 49L59 49L59 47L60 47L60 48L62 48L62 50L63 50L63 49L65 49L65 48L64 48L64 47L63 47L63 48L62 48L62 46L61 46L61 45L63 45L63 46L64 46L64 45L63 45L63 44L65 44L65 45L66 45L66 46L65 46L65 47L66 47L66 46L67 46L67 47L68 47L68 48L67 48L67 49L66 49L66 50L65 50L65 51L66 51L66 50L67 50L67 49L68 49L68 51L67 51L67 52L65 52L65 53L66 53L66 54L67 54L67 53L69 53L69 52L68 52L68 51L69 51L69 49L68 49L68 48L69 48L69 47L68 47L68 45L69 45L69 43L68 43L68 42L69 42L69 39L68 39L68 38L69 38L69 36L68 36L68 38L67 38L67 37L66 37L66 36L65 36L65 33L66 33L66 35L68 35L68 32L67 32L67 33L66 33L66 32L63 32L63 31L68 31L68 30L69 30L69 28L68 28L68 26L67 26L67 25L68 25L68 21L69 21L69 20L68 20L68 18L66 18L66 19L65 19L65 17L64 17L64 16L65 16L65 15L63 15L63 13L64 13L64 12L65 12L65 13L67 13L67 15L68 15L68 16L66 16L66 17L69 17L69 15L68 15L68 14L69 14L69 12L68 12L68 13L67 13L67 12L65 12L65 10L66 10L66 9L69 9L69 8L65 8L65 9L64 9L64 8L63 8L63 9L60 9L60 8L59 8L59 4L58 4L58 3L59 3L59 2L58 2L58 1L61 1L61 0L50 0L50 1L49 1L49 4L48 4L48 7L49 7L49 8L47 8L47 5L46 5L46 2L47 2L47 1L46 1L46 0L45 0L45 1L44 1L44 0L40 0L40 1L39 1L39 0L37 0L37 1L36 1L36 0L35 0L35 1L34 1L34 0L32 0L32 1L31 1L31 0L30 0L30 3L31 3L31 4L30 4L30 5L29 5L29 6L28 6L28 4L29 4L29 2L28 2L28 3L27 3L27 1L26 1L26 0L22 0L22 1L21 1L21 0L17 0L17 1L20 1L20 2L21 2L21 3L19 3L19 2L17 2L17 3L14 3L14 1L13 1L13 0L11 0L11 1L10 1L10 2L11 2L11 1L12 1L12 2L13 2L13 4L12 4L12 3L11 3L11 4L12 4L12 8L11 8L11 5L10 5L10 3L9 3L9 0ZM15 0L15 1L16 1L16 0ZM35 1L35 3L34 3L34 2L31 2L31 3L32 3L32 4L31 4L31 5L30 5L30 6L29 6L29 7L28 7L28 6L27 6L27 7L26 7L26 6L25 6L25 9L24 9L24 10L25 10L25 11L26 11L26 12L27 12L27 11L26 11L26 8L27 8L27 7L28 7L28 8L30 8L30 6L31 6L31 7L32 7L32 6L31 6L31 5L32 5L32 4L33 4L33 3L34 3L34 4L36 4L36 3L37 3L37 5L38 5L38 6L37 6L37 10L36 10L36 9L35 9L35 10L34 10L34 11L33 11L33 9L32 9L32 10L31 10L31 9L27 9L27 10L28 10L28 14L27 14L27 13L25 13L25 14L23 14L23 16L22 16L22 15L21 15L21 14L20 14L20 13L24 13L24 11L22 11L22 10L21 10L21 11L19 11L19 12L20 12L20 13L19 13L19 14L20 14L20 15L19 15L19 16L18 16L18 17L17 17L17 16L15 16L15 14L14 14L14 16L15 16L15 17L14 17L14 18L15 18L15 19L14 19L14 20L15 20L15 22L13 22L13 21L12 21L12 22L11 22L11 21L10 21L10 20L9 20L9 22L10 22L10 24L9 24L9 23L6 23L6 22L7 22L7 21L8 21L8 19L6 19L6 20L7 20L7 21L6 21L6 22L5 22L5 23L6 23L6 24L7 24L7 25L6 25L6 26L7 26L7 25L8 25L8 24L9 24L9 25L11 25L11 27L8 27L8 28L10 28L10 29L9 29L9 31L6 31L6 30L8 30L8 29L6 29L6 30L5 30L5 29L3 29L3 30L5 30L5 31L4 31L4 32L10 32L10 31L11 31L11 30L10 30L10 29L13 29L13 30L12 30L12 31L13 31L13 30L15 30L15 29L16 29L16 32L17 32L17 33L16 33L16 35L17 35L17 33L18 33L18 32L19 32L19 33L20 33L20 32L21 32L21 33L23 33L23 32L24 32L24 33L26 33L26 32L24 32L24 31L23 31L23 32L22 32L22 30L23 30L23 29L26 29L26 27L27 27L27 28L29 28L29 27L32 27L32 28L31 28L31 29L27 29L27 30L25 30L25 31L28 31L28 32L30 32L30 30L31 30L31 29L33 29L33 30L32 30L32 32L33 32L33 30L34 30L34 31L35 31L35 32L37 32L37 33L38 33L38 32L40 32L40 33L39 33L39 35L37 35L37 38L36 38L36 39L35 39L35 38L34 38L34 39L33 39L33 40L32 40L32 38L33 38L33 37L32 37L32 38L31 38L31 39L28 39L28 40L27 40L27 39L26 39L26 38L27 38L27 37L26 37L26 36L28 36L28 38L30 38L30 37L29 37L29 36L30 36L30 35L31 35L31 36L32 36L32 33L31 33L31 34L30 34L30 35L29 35L29 36L28 36L28 34L29 34L29 33L27 33L27 34L26 34L26 35L24 35L24 37L26 37L26 38L24 38L24 39L25 39L25 41L24 41L24 40L22 40L22 39L21 39L21 41L22 41L22 43L20 43L20 41L18 41L18 40L17 40L17 39L16 39L16 41L15 41L15 42L14 42L14 43L13 43L13 42L12 42L12 43L13 43L13 44L12 44L12 46L11 46L11 45L8 45L8 44L9 44L9 43L10 43L10 42L11 42L11 41L13 41L13 40L14 40L14 39L15 39L15 37L13 37L13 36L15 36L15 34L14 34L14 35L12 35L12 36L11 36L11 34L10 34L10 37L8 37L8 39L6 39L6 40L8 40L8 41L9 41L9 40L8 40L8 39L11 39L11 38L10 38L10 37L13 37L13 39L12 39L12 40L11 40L11 41L10 41L10 42L8 42L8 43L6 43L6 44L7 44L7 45L6 45L6 46L7 46L7 47L6 47L6 48L7 48L7 49L5 49L5 48L4 48L4 54L3 54L3 53L2 53L2 54L3 54L3 55L4 55L4 56L8 56L8 55L9 55L9 53L10 53L10 54L12 54L12 55L10 55L10 56L12 56L12 57L11 57L11 59L10 59L10 60L11 60L11 61L12 61L12 60L11 60L11 59L12 59L12 57L13 57L13 60L14 60L14 62L11 62L11 65L10 65L10 67L12 67L12 68L13 68L13 66L14 66L14 64L15 64L15 63L14 63L14 62L15 62L15 61L16 61L16 64L17 64L17 65L18 65L18 64L19 64L19 65L20 65L20 64L21 64L21 62L20 62L20 61L18 61L18 63L17 63L17 60L20 60L20 59L19 59L19 58L18 58L18 57L17 57L17 56L19 56L19 57L21 57L21 58L22 58L22 59L21 59L21 61L23 61L23 60L22 60L22 59L24 59L24 61L25 61L25 62L22 62L22 63L23 63L23 64L22 64L22 65L21 65L21 66L23 66L23 64L25 64L25 65L27 65L27 64L26 64L26 63L25 63L25 62L26 62L26 58L27 58L27 60L28 60L28 59L30 59L30 58L31 58L31 61L28 61L28 62L27 62L27 63L28 63L28 62L29 62L29 63L32 63L32 60L33 60L33 59L34 59L34 60L37 60L37 62L38 62L38 63L37 63L37 66L35 66L35 65L34 65L34 66L33 66L33 67L32 67L32 65L30 65L30 66L31 66L31 67L32 67L32 68L34 68L34 67L36 67L36 68L37 68L37 66L38 66L38 65L39 65L39 66L40 66L40 67L41 67L41 63L43 63L43 62L44 62L44 63L46 63L46 64L47 64L47 63L48 63L48 64L49 64L49 63L50 63L50 65L51 65L51 66L52 66L52 67L54 67L54 65L55 65L55 66L56 66L56 62L57 62L57 63L60 63L60 62L59 62L59 61L60 61L60 59L61 59L61 58L62 58L62 60L63 60L63 58L62 58L62 57L61 57L61 58L59 58L59 57L60 57L60 56L59 56L59 57L58 57L58 56L57 56L57 55L56 55L56 53L55 53L55 55L54 55L54 53L53 53L53 52L52 52L52 53L51 53L51 51L50 51L50 52L49 52L49 51L48 51L48 50L50 50L50 49L51 49L51 50L52 50L52 49L53 49L53 46L52 46L52 47L51 47L51 48L50 48L50 45L51 45L51 44L52 44L52 45L56 45L56 46L57 46L57 45L58 45L58 46L60 46L60 47L61 47L61 46L60 46L60 45L61 45L61 44L58 44L58 43L59 43L59 41L60 41L60 43L63 43L63 42L62 42L62 41L64 41L64 43L65 43L65 44L67 44L67 42L68 42L68 41L67 41L67 40L68 40L68 39L66 39L66 41L64 41L64 40L65 40L65 39L64 39L64 38L65 38L65 37L62 37L62 39L61 39L61 37L60 37L60 36L59 36L59 37L58 37L58 38L57 38L57 37L56 37L56 36L58 36L58 35L57 35L57 33L58 33L58 34L59 34L59 35L60 35L60 32L59 32L59 33L58 33L58 32L57 32L57 33L56 33L56 36L52 36L52 35L50 35L50 33L51 33L51 34L53 34L53 35L54 35L54 33L55 33L55 31L54 31L54 32L53 32L53 31L52 31L52 29L53 29L53 28L52 28L52 27L51 27L51 26L50 26L50 25L49 25L49 26L47 26L47 25L48 25L48 23L50 23L50 24L51 24L51 23L50 23L50 21L49 21L49 22L48 22L48 23L47 23L47 25L46 25L46 26L47 26L47 27L49 27L49 28L50 28L50 29L47 29L47 28L46 28L46 32L45 32L45 33L44 33L44 30L45 30L45 29L44 29L44 28L45 28L45 27L43 27L43 26L42 26L42 27L43 27L43 29L44 29L44 30L43 30L43 31L40 31L40 30L41 30L41 29L42 29L42 28L40 28L40 27L41 27L41 24L43 24L43 23L42 23L42 21L44 21L44 20L46 20L46 22L47 22L47 20L48 20L48 19L49 19L49 20L50 20L50 19L49 19L49 17L48 17L48 19L47 19L47 17L46 17L46 18L45 18L45 19L44 19L44 18L40 18L40 17L42 17L42 16L40 16L40 17L39 17L39 18L40 18L40 19L38 19L38 16L39 16L39 15L37 15L37 14L36 14L36 13L38 13L38 12L37 12L37 10L38 10L38 9L39 9L39 10L40 10L40 9L41 9L41 11L42 11L42 9L44 9L44 10L43 10L43 11L46 11L46 10L47 10L47 8L45 8L45 9L44 9L44 6L45 6L45 7L46 7L46 5L44 5L44 4L45 4L45 3L44 3L44 4L43 4L43 2L42 2L42 1L41 1L41 2L42 2L42 3L41 3L41 4L43 4L43 5L41 5L41 7L40 7L40 3L39 3L39 1L37 1L37 2L36 2L36 1ZM45 1L45 2L46 2L46 1ZM51 1L51 2L50 2L50 4L49 4L49 7L50 7L50 6L51 6L51 7L52 7L52 9L51 9L51 8L50 8L50 9L49 9L49 11L47 11L47 12L45 12L45 13L46 13L46 14L45 14L45 15L46 15L46 14L47 14L47 16L48 16L48 13L47 13L47 12L50 12L50 13L49 13L49 15L50 15L50 13L51 13L51 16L50 16L50 17L51 17L51 16L52 16L52 21L51 21L51 22L52 22L52 23L53 23L53 24L52 24L52 25L53 25L53 24L55 24L55 25L56 25L56 28L55 28L55 26L53 26L53 27L54 27L54 28L55 28L55 29L56 29L56 28L57 28L57 29L58 29L58 30L56 30L56 31L58 31L58 30L59 30L59 29L61 29L61 32L62 32L62 31L63 31L63 30L62 30L62 28L61 28L61 27L60 27L60 26L59 26L59 24L60 24L60 25L61 25L61 26L62 26L62 24L63 24L63 25L64 25L64 26L63 26L63 27L64 27L64 30L67 30L67 29L68 29L68 28L67 28L67 26L66 26L66 25L65 25L65 24L67 24L67 22L66 22L66 21L68 21L68 20L67 20L67 19L66 19L66 21L65 21L65 20L64 20L64 23L63 23L63 22L62 22L62 21L63 21L63 19L64 19L64 17L63 17L63 19L62 19L62 12L61 12L61 10L60 10L60 11L58 11L58 10L59 10L59 9L58 9L58 8L57 8L57 9L56 9L56 8L55 8L55 7L56 7L56 4L57 4L57 3L56 3L56 4L55 4L55 2L56 2L56 1L55 1L55 2L53 2L53 1ZM22 2L22 3L24 3L24 4L25 4L25 5L26 5L26 4L27 4L27 3L26 3L26 4L25 4L25 2ZM37 2L37 3L38 3L38 2ZM52 2L52 4L53 4L53 5L52 5L52 7L53 7L53 9L52 9L52 10L53 10L53 11L51 11L51 9L50 9L50 12L51 12L51 13L52 13L52 12L54 12L54 15L55 15L55 16L53 16L53 18L55 18L55 19L54 19L54 20L53 20L53 21L52 21L52 22L53 22L53 23L55 23L55 20L56 20L56 23L57 23L57 22L58 22L58 24L56 24L56 25L57 25L57 26L58 26L58 24L59 24L59 23L60 23L60 24L62 24L62 22L61 22L61 21L62 21L62 20L60 20L60 21L59 21L59 22L58 22L58 19L61 19L61 15L60 15L60 14L61 14L61 13L59 13L59 12L58 12L58 11L57 11L57 10L58 10L58 9L57 9L57 10L56 10L56 9L54 9L54 7L55 7L55 4L53 4L53 2ZM60 3L60 5L61 5L61 3ZM38 4L38 5L39 5L39 4ZM50 4L50 5L51 5L51 4ZM33 5L33 8L36 8L36 5ZM43 5L43 6L42 6L42 7L43 7L43 6L44 6L44 5ZM53 5L53 7L54 7L54 5ZM14 6L14 7L15 7L15 6ZM22 6L22 8L23 8L23 6ZM34 6L34 7L35 7L35 6ZM38 6L38 8L39 8L39 9L40 9L40 7L39 7L39 6ZM57 6L57 7L58 7L58 6ZM60 6L60 7L61 7L61 6ZM0 8L0 9L2 9L2 8ZM4 8L4 10L5 10L5 12L6 12L6 13L7 13L7 12L6 12L6 11L7 11L7 10L5 10L5 9L7 9L7 8ZM41 8L41 9L42 9L42 8ZM17 9L17 10L18 10L18 9ZM45 9L45 10L46 10L46 9ZM63 9L63 10L64 10L64 9ZM29 10L29 11L30 11L30 12L29 12L29 13L30 13L30 14L29 14L29 15L27 15L27 16L26 16L26 14L25 14L25 15L24 15L24 16L23 16L23 20L24 20L24 21L23 21L23 22L24 22L24 23L25 23L25 24L22 24L22 23L21 23L21 21L22 21L22 18L20 18L20 19L18 19L18 20L17 20L17 21L16 21L16 22L15 22L15 23L16 23L16 24L17 24L17 25L15 25L15 27L14 27L14 28L13 28L13 26L12 26L12 28L13 28L13 29L15 29L15 27L16 27L16 26L17 26L17 28L16 28L16 29L17 29L17 31L18 31L18 30L19 30L19 31L21 31L21 29L22 29L22 28L24 28L24 27L23 27L23 26L22 26L22 28L21 28L21 25L24 25L24 26L25 26L25 27L26 27L26 26L27 26L27 27L29 27L29 26L28 26L28 25L27 25L27 24L28 24L28 23L31 23L31 24L29 24L29 25L30 25L30 26L32 26L32 27L34 27L34 30L35 30L35 27L34 27L34 26L35 26L35 25L36 25L36 26L37 26L37 27L40 27L40 24L41 24L41 22L40 22L40 24L38 24L38 23L39 23L39 21L40 21L40 20L39 20L39 21L37 21L37 19L35 19L35 18L37 18L37 15L34 15L34 16L35 16L35 18L33 18L33 16L32 16L32 13L33 13L33 12L32 12L32 11L30 11L30 10ZM55 10L55 11L54 11L54 12L55 12L55 11L56 11L56 10ZM0 11L0 13L1 13L1 12L2 12L2 13L3 13L3 11ZM34 11L34 13L36 13L36 11ZM63 11L63 12L64 12L64 11ZM15 12L15 13L16 13L16 14L17 14L17 15L18 15L18 14L17 14L17 13L16 13L16 12ZM31 12L31 13L32 13L32 12ZM40 12L40 13L39 13L39 14L40 14L40 15L41 15L41 14L40 14L40 13L43 13L43 17L44 17L44 13L43 13L43 12ZM55 13L55 15L56 15L56 16L55 16L55 17L56 17L56 20L57 20L57 19L58 19L58 18L59 18L59 16L58 16L58 18L57 18L57 17L56 17L56 16L57 16L57 15L58 15L58 14L59 14L59 13L58 13L58 14L56 14L56 13ZM12 14L12 15L13 15L13 14ZM52 14L52 15L53 15L53 14ZM0 15L0 16L1 16L1 15ZM4 15L4 16L5 16L5 17L6 17L6 18L7 18L7 17L6 17L6 16L8 16L8 15L6 15L6 16L5 16L5 15ZM29 15L29 16L27 16L27 17L25 17L25 16L24 16L24 17L25 17L25 18L24 18L24 19L25 19L25 21L26 21L26 24L25 24L25 26L26 26L26 24L27 24L27 23L28 23L28 22L29 22L29 21L28 21L28 22L27 22L27 21L26 21L26 19L29 19L29 20L31 20L31 19L29 19L29 18L30 18L30 17L29 17L29 16L31 16L31 15ZM19 16L19 17L18 17L18 18L19 18L19 17L22 17L22 16ZM2 17L2 18L4 18L4 19L5 19L5 18L4 18L4 17ZM16 17L16 19L15 19L15 20L16 20L16 19L17 19L17 17ZM27 17L27 18L28 18L28 17ZM25 18L25 19L26 19L26 18ZM32 19L32 21L30 21L30 22L32 22L32 24L31 24L31 25L32 25L32 26L34 26L34 23L36 23L36 24L37 24L37 22L36 22L36 20L35 20L35 21L33 21L33 19ZM41 19L41 20L42 20L42 19ZM43 19L43 20L44 20L44 19ZM19 20L19 21L18 21L18 22L17 22L17 23L18 23L18 24L19 24L19 27L20 27L20 25L21 25L21 23L20 23L20 24L19 24L19 22L20 22L20 20ZM32 21L32 22L33 22L33 21ZM12 22L12 23L11 23L11 25L13 25L13 24L12 24L12 23L13 23L13 22ZM44 22L44 23L45 23L45 22ZM65 22L65 23L66 23L66 22ZM32 24L32 25L33 25L33 24ZM3 25L3 26L4 26L4 25ZM17 25L17 26L18 26L18 25ZM37 25L37 26L38 26L38 25ZM2 27L2 28L3 28L3 27ZM6 27L6 28L7 28L7 27ZM50 27L50 28L51 28L51 29L50 29L50 30L47 30L47 31L50 31L50 30L51 30L51 29L52 29L52 28L51 28L51 27ZM57 27L57 28L58 28L58 29L59 29L59 28L58 28L58 27ZM20 28L20 29L19 29L19 30L20 30L20 29L21 29L21 28ZM37 28L37 29L36 29L36 30L37 30L37 31L39 31L39 30L40 30L40 28L39 28L39 29L38 29L38 28ZM65 28L65 29L66 29L66 28ZM1 29L1 30L2 30L2 29ZM37 29L37 30L38 30L38 29ZM14 31L14 32L12 32L12 33L14 33L14 32L15 32L15 31ZM46 32L46 33L45 33L45 34L44 34L44 33L41 33L41 34L40 34L40 35L39 35L39 37L38 37L38 38L40 38L40 39L38 39L38 40L37 40L37 41L34 41L34 40L35 40L35 39L34 39L34 40L33 40L33 41L32 41L32 40L28 40L28 41L27 41L27 40L26 40L26 41L25 41L25 42L24 42L24 41L23 41L23 43L24 43L24 45L23 45L23 46L22 46L22 44L20 44L20 47L19 47L19 44L18 44L18 43L17 43L17 42L18 42L18 41L17 41L17 42L16 42L16 43L15 43L15 47L13 47L13 48L11 48L11 49L10 49L10 50L11 50L11 51L9 51L9 50L8 50L8 49L7 49L7 50L5 50L5 53L7 53L7 52L8 52L8 51L9 51L9 52L11 52L11 53L12 53L12 52L11 52L11 51L14 51L14 53L13 53L13 54L14 54L14 53L15 53L15 55L13 55L13 56L14 56L14 60L15 60L15 59L16 59L16 58L17 58L17 57L15 57L15 56L17 56L17 55L18 55L18 54L17 54L17 55L16 55L16 52L17 52L17 53L19 53L19 52L20 52L20 54L19 54L19 56L20 56L20 55L21 55L21 57L24 57L24 58L25 58L25 56L24 56L24 54L25 54L25 55L26 55L26 54L28 54L28 55L27 55L27 56L26 56L26 57L27 57L27 58L28 58L28 56L29 56L29 57L31 57L31 56L29 56L29 55L31 55L31 54L32 54L32 51L31 51L31 49L32 49L32 48L33 48L33 49L34 49L34 48L35 48L35 50L33 50L33 54L34 54L34 52L35 52L35 50L37 50L37 53L35 53L35 55L36 55L36 54L37 54L37 53L38 53L38 54L39 54L39 57L38 57L38 56L36 56L36 57L35 57L35 58L34 58L34 55L33 55L33 56L32 56L32 57L33 57L33 58L32 58L32 59L33 59L33 58L34 58L34 59L36 59L36 58L37 58L37 57L38 57L38 58L39 58L39 59L37 59L37 60L39 60L39 61L38 61L38 62L40 62L40 63L41 63L41 62L43 62L43 61L40 61L40 60L44 60L44 62L45 62L45 61L50 61L50 62L51 62L51 61L52 61L52 60L53 60L53 58L54 58L54 60L55 60L55 58L57 58L57 60L56 60L56 61L53 61L53 63L52 63L52 64L51 64L51 65L52 65L52 66L53 66L53 65L52 65L52 64L53 64L53 63L54 63L54 64L55 64L55 62L56 62L56 61L57 61L57 62L58 62L58 59L59 59L59 58L58 58L58 57L57 57L57 56L56 56L56 57L55 57L55 56L53 56L53 55L52 55L52 56L51 56L51 55L49 55L49 56L47 56L47 54L48 54L48 53L49 53L49 52L46 52L46 48L47 48L47 49L49 49L49 48L48 48L48 47L49 47L49 46L47 46L47 47L46 47L46 48L44 48L44 47L42 47L42 49L40 49L40 47L41 47L41 46L44 46L44 45L45 45L45 46L46 46L46 45L50 45L50 44L51 44L51 43L52 43L52 44L54 44L54 42L55 42L55 43L57 43L57 42L58 42L58 41L57 41L57 40L56 40L56 39L55 39L55 40L54 40L54 41L52 41L52 40L53 40L53 39L54 39L54 38L55 38L55 37L53 37L53 38L52 38L52 40L51 40L51 41L50 41L50 40L48 40L48 39L47 39L47 41L50 41L50 42L51 42L51 43L50 43L50 44L46 44L46 43L44 43L44 42L46 42L46 37L47 37L47 36L46 36L46 35L48 35L48 37L50 37L50 38L49 38L49 39L50 39L50 38L51 38L51 37L52 37L52 36L51 36L51 37L50 37L50 36L49 36L49 33L50 33L50 32ZM5 33L5 36L8 36L8 33ZM33 33L33 36L36 36L36 33ZM46 33L46 34L45 34L45 35L46 35L46 34L47 34L47 33ZM61 33L61 36L64 36L64 33ZM6 34L6 35L7 35L7 34ZM18 34L18 35L19 35L19 38L18 38L18 37L17 37L17 36L16 36L16 38L18 38L18 39L19 39L19 40L20 40L20 36L22 36L22 37L23 37L23 36L22 36L22 35L23 35L23 34L20 34L20 35L19 35L19 34ZM34 34L34 35L35 35L35 34ZM43 34L43 35L42 35L42 36L41 36L41 35L40 35L40 38L41 38L41 39L40 39L40 41L41 41L41 40L42 40L42 38L41 38L41 37L42 37L42 36L43 36L43 35L44 35L44 34ZM62 34L62 35L63 35L63 34ZM1 35L1 36L2 36L2 35ZM45 36L45 37L43 37L43 38L44 38L44 39L43 39L43 41L44 41L44 40L45 40L45 37L46 37L46 36ZM6 37L6 38L7 38L7 37ZM1 38L1 40L2 40L2 38ZM58 38L58 40L60 40L60 41L62 41L62 40L64 40L64 39L62 39L62 40L61 40L61 39L60 39L60 38ZM55 40L55 42L57 42L57 41L56 41L56 40ZM26 41L26 42L25 42L25 43L26 43L26 44L25 44L25 45L26 45L26 47L24 47L24 46L23 46L23 48L22 48L22 47L21 47L21 48L22 48L22 54L21 54L21 55L22 55L22 56L23 56L23 54L24 54L24 53L26 53L26 52L27 52L27 53L28 53L28 54L31 54L31 53L28 53L28 52L27 52L27 51L28 51L28 50L29 50L29 49L28 49L28 48L31 48L31 47L32 47L32 46L33 46L33 47L34 47L34 46L35 46L35 44L34 44L34 46L33 46L33 45L32 45L32 44L33 44L33 43L36 43L36 44L39 44L39 45L40 45L40 46L41 46L41 45L44 45L44 44L41 44L41 42L39 42L39 43L38 43L38 41L37 41L37 43L36 43L36 42L34 42L34 41L33 41L33 43L32 43L32 41L28 41L28 42L27 42L27 41ZM51 41L51 42L52 42L52 43L53 43L53 42L52 42L52 41ZM26 42L26 43L27 43L27 44L26 44L26 45L27 45L27 48L25 48L25 49L24 49L24 48L23 48L23 49L24 49L24 50L23 50L23 51L25 51L25 52L26 52L26 51L27 51L27 48L28 48L28 45L31 45L31 44L30 44L30 43L27 43L27 42ZM42 42L42 43L43 43L43 42ZM65 42L65 43L66 43L66 42ZM4 43L4 44L3 44L3 45L4 45L4 44L5 44L5 43ZM13 44L13 46L14 46L14 44ZM27 44L27 45L28 45L28 44ZM56 44L56 45L57 45L57 44ZM7 45L7 46L8 46L8 45ZM16 45L16 47L15 47L15 48L16 48L16 51L18 51L18 49L19 49L19 51L20 51L20 50L21 50L21 49L19 49L19 48L18 48L18 49L17 49L17 47L18 47L18 46L17 46L17 45ZM36 45L36 46L37 46L37 47L35 47L35 48L39 48L39 47L38 47L38 45ZM7 47L7 48L9 48L9 47ZM54 47L54 48L55 48L55 50L54 50L54 52L55 52L55 50L56 50L56 48L57 48L57 49L58 49L58 47ZM43 48L43 49L44 49L44 50L45 50L45 49L44 49L44 48ZM11 49L11 50L12 50L12 49ZM13 49L13 50L14 50L14 51L15 51L15 50L14 50L14 49ZM37 49L37 50L38 50L38 49ZM39 49L39 52L38 52L38 53L39 53L39 52L40 52L40 53L42 53L42 52L40 52L40 49ZM0 50L0 51L1 51L1 50ZM7 50L7 51L6 51L6 52L7 52L7 51L8 51L8 50ZM25 50L25 51L26 51L26 50ZM42 50L42 51L43 51L43 53L44 53L44 51L43 51L43 50ZM29 51L29 52L31 52L31 51ZM23 52L23 53L24 53L24 52ZM45 52L45 53L46 53L46 54L47 54L47 53L46 53L46 52ZM50 53L50 54L51 54L51 53ZM52 53L52 54L53 54L53 53ZM5 54L5 55L7 55L7 54ZM42 54L42 55L43 55L43 54ZM44 54L44 55L45 55L45 54ZM62 54L62 55L64 55L64 54ZM40 55L40 57L39 57L39 58L40 58L40 59L39 59L39 60L40 60L40 59L41 59L41 58L40 58L40 57L42 57L42 56L41 56L41 55ZM43 56L43 57L44 57L44 58L45 58L45 57L44 57L44 56ZM49 56L49 58L48 58L48 57L46 57L46 58L47 58L47 60L48 60L48 59L49 59L49 58L50 58L50 59L51 59L51 58L50 58L50 56ZM52 56L52 58L53 58L53 56ZM4 57L4 58L10 58L10 57ZM44 59L44 60L46 60L46 59ZM3 60L3 61L5 61L5 60ZM6 60L6 61L7 61L7 60ZM33 61L33 64L36 64L36 61ZM61 61L61 64L64 64L64 61ZM19 62L19 63L20 63L20 62ZM34 62L34 63L35 63L35 62ZM48 62L48 63L49 63L49 62ZM62 62L62 63L63 63L63 62ZM66 62L66 63L65 63L65 66L66 66L66 65L68 65L68 64L67 64L67 62ZM57 64L57 65L58 65L58 64ZM12 65L12 66L13 66L13 65ZM62 65L62 68L63 68L63 67L64 67L64 65ZM27 67L27 68L28 68L28 67ZM15 68L15 69L16 69L16 68ZM44 68L44 69L45 69L45 68ZM56 68L56 69L57 69L57 68ZM66 68L66 69L67 69L67 68ZM68 68L68 69L69 69L69 68ZM0 0L0 7L7 7L7 0ZM1 1L1 6L6 6L6 1ZM2 2L2 5L5 5L5 2ZM62 0L62 7L69 7L69 0ZM63 1L63 6L68 6L68 1ZM64 2L64 5L67 5L67 2ZM0 62L0 69L7 69L7 62ZM1 63L1 68L6 68L6 63ZM2 64L2 67L5 67L5 64Z" fill="#000000"/></g></g></svg>
