<?xml version="1.0" encoding="UTF-8"?>
<svg xmlns="http://www.w3.org/2000/svg" version="1.1" width="300" height="300" viewBox="0 0 300 300"><rect x="0" y="0" width="300" height="300" fill="#ffffff"/><g transform="scale(4.348)"><g transform="translate(0,0)"><path fill-rule="evenodd" d="M8 0L8 2L9 2L9 0ZM10 0L10 1L11 1L11 3L10 3L10 4L8 4L8 9L9 9L9 8L10 8L10 10L9 10L9 12L8 12L8 13L9 13L9 14L6 14L6 13L7 13L7 12L6 12L6 13L4 13L4 14L3 14L3 13L2 13L2 11L1 11L1 10L0 10L0 11L1 11L1 12L0 12L0 13L1 13L1 14L0 14L0 15L1 15L1 16L0 16L0 19L1 19L1 18L2 18L2 19L4 19L4 18L6 18L6 19L5 19L5 20L3 20L3 21L2 21L2 20L0 20L0 25L1 25L1 26L0 26L0 27L1 27L1 29L0 29L0 30L1 30L1 31L0 31L0 38L2 38L2 39L4 39L4 40L6 40L6 41L4 41L4 42L3 42L3 40L1 40L1 39L0 39L0 42L1 42L1 41L2 41L2 42L3 42L3 43L4 43L4 44L5 44L5 45L3 45L3 44L2 44L2 43L0 43L0 50L1 50L1 48L2 48L2 51L0 51L0 53L1 53L1 55L0 55L0 57L2 57L2 56L1 56L1 55L4 55L4 56L3 56L3 57L5 57L5 56L6 56L6 57L9 57L9 58L8 58L8 59L7 59L7 58L4 58L4 59L7 59L7 60L6 60L6 61L7 61L7 60L8 60L8 62L9 62L9 63L8 63L8 64L9 64L9 66L8 66L8 69L10 69L10 68L12 68L12 69L13 69L13 68L14 68L14 67L15 67L15 68L16 68L16 67L17 67L17 69L19 69L19 68L18 68L18 67L19 67L19 66L18 66L18 65L19 65L19 64L18 64L18 63L20 63L20 65L21 65L21 62L22 62L22 63L24 63L24 64L22 64L22 66L20 66L20 67L21 67L21 69L25 69L25 68L26 68L26 69L28 69L28 68L29 68L29 67L28 67L28 66L30 66L30 67L31 67L31 68L30 68L30 69L31 69L31 68L32 68L32 69L37 69L37 68L36 68L36 66L35 66L35 68L34 68L34 67L33 67L33 68L32 68L32 67L31 67L31 66L30 66L30 65L31 65L31 64L32 64L32 66L34 66L34 65L37 65L37 62L38 62L38 65L39 65L39 66L40 66L40 65L41 65L41 67L40 67L40 69L42 69L42 65L43 65L43 67L44 67L44 69L45 69L45 67L44 67L44 65L47 65L47 64L46 64L46 63L48 63L48 61L49 61L49 64L48 64L48 67L46 67L46 69L51 69L51 66L50 66L50 65L51 65L51 64L52 64L52 65L53 65L53 64L54 64L54 65L55 65L55 64L54 64L54 63L56 63L56 61L57 61L57 63L58 63L58 60L59 60L59 62L60 62L60 64L59 64L59 65L61 65L61 66L60 66L60 67L61 67L61 68L62 68L62 69L63 69L63 68L62 68L62 67L63 67L63 66L64 66L64 69L67 69L67 68L66 68L66 67L69 67L69 66L67 66L67 65L69 65L69 64L68 64L68 63L69 63L69 61L68 61L68 60L69 60L69 58L68 58L68 57L69 57L69 52L68 52L68 51L69 51L69 48L68 48L68 47L69 47L69 46L68 46L68 47L67 47L67 46L64 46L64 45L68 45L68 44L69 44L69 41L68 41L68 40L69 40L69 38L68 38L68 37L69 37L69 33L68 33L68 32L69 32L69 30L68 30L68 29L69 29L69 25L68 25L68 23L69 23L69 20L68 20L68 19L69 19L69 17L68 17L68 16L66 16L66 15L67 15L67 14L68 14L68 15L69 15L69 14L68 14L68 13L69 13L69 12L67 12L67 13L66 13L66 10L68 10L68 11L69 11L69 10L68 10L68 9L69 9L69 8L67 8L67 9L66 9L66 10L65 10L65 8L61 8L61 10L60 10L60 12L62 12L62 13L61 13L61 14L60 14L60 17L59 17L59 16L58 16L58 15L59 15L59 14L58 14L58 12L57 12L57 10L56 10L56 9L58 9L58 8L57 8L57 6L56 6L56 7L55 7L55 6L54 6L54 5L56 5L56 3L57 3L57 4L58 4L58 7L59 7L59 8L60 8L60 7L61 7L61 6L60 6L60 7L59 7L59 4L58 4L58 3L59 3L59 2L56 2L56 1L57 1L57 0L54 0L54 1L55 1L55 2L53 2L53 0L52 0L52 3L51 3L51 2L50 2L50 3L49 3L49 4L48 4L48 3L47 3L47 0L46 0L46 3L47 3L47 4L46 4L46 5L47 5L47 4L48 4L48 7L47 7L47 6L46 6L46 7L47 7L47 8L44 8L44 9L43 9L43 11L41 11L41 10L42 10L42 8L43 8L43 6L42 6L42 5L43 5L43 4L44 4L44 7L45 7L45 4L44 4L44 2L43 2L43 3L42 3L42 2L41 2L41 1L40 1L40 0L38 0L38 2L37 2L37 4L34 4L34 3L36 3L36 0L35 0L35 2L34 2L34 0L31 0L31 1L30 1L30 2L29 2L29 1L28 1L28 2L29 2L29 3L28 3L28 5L29 5L29 6L28 6L28 7L27 7L27 5L26 5L26 10L27 10L27 11L28 11L28 7L29 7L29 6L30 6L30 8L31 8L31 10L29 10L29 11L30 11L30 13L31 13L31 10L32 10L32 11L33 11L33 12L32 12L32 13L33 13L33 12L34 12L34 11L35 11L35 9L37 9L37 10L38 10L38 9L39 9L39 6L38 6L38 5L40 5L40 9L41 9L41 10L40 10L40 11L41 11L41 13L40 13L40 14L41 14L41 13L42 13L42 12L43 12L43 11L44 11L44 14L43 14L43 15L42 15L42 16L40 16L40 17L39 17L39 14L38 14L38 12L37 12L37 11L36 11L36 12L37 12L37 14L36 14L36 16L34 16L34 17L32 17L32 14L28 14L28 13L29 13L29 12L28 12L28 13L27 13L27 12L26 12L26 14L25 14L25 19L24 19L24 15L23 15L23 14L24 14L24 13L25 13L25 11L24 11L24 10L25 10L25 8L22 8L22 7L23 7L23 6L24 6L24 7L25 7L25 4L24 4L24 3L23 3L23 2L25 2L25 3L26 3L26 2L27 2L27 0L24 0L24 1L23 1L23 0L22 0L22 1L23 1L23 2L22 2L22 3L23 3L23 4L24 4L24 5L23 5L23 6L22 6L22 7L21 7L21 6L20 6L20 5L21 5L21 2L20 2L20 1L21 1L21 0L18 0L18 1L16 1L16 0L15 0L15 1L16 1L16 2L13 2L13 1L14 1L14 0ZM42 0L42 1L44 1L44 0ZM50 0L50 1L51 1L51 0ZM58 0L58 1L61 1L61 0ZM18 1L18 2L19 2L19 1ZM25 1L25 2L26 2L26 1ZM39 1L39 3L38 3L38 4L39 4L39 3L40 3L40 4L41 4L41 5L42 5L42 4L41 4L41 3L40 3L40 1ZM30 2L30 4L29 4L29 5L30 5L30 4L31 4L31 7L32 7L32 4L33 4L33 3L34 3L34 2L32 2L32 4L31 4L31 2ZM12 3L12 4L11 4L11 5L12 5L12 6L11 6L11 7L10 7L10 5L9 5L9 7L10 7L10 8L11 8L11 10L10 10L10 12L9 12L9 13L10 13L10 14L11 14L11 18L12 18L12 20L10 20L10 17L6 17L6 16L7 16L7 15L6 15L6 14L5 14L5 16L3 16L3 14L1 14L1 15L2 15L2 16L1 16L1 17L3 17L3 18L4 18L4 17L6 17L6 18L7 18L7 19L6 19L6 20L5 20L5 21L6 21L6 22L7 22L7 23L6 23L6 24L8 24L8 27L6 27L6 26L7 26L7 25L6 25L6 26L5 26L5 25L4 25L4 26L3 26L3 24L4 24L4 23L5 23L5 22L4 22L4 23L3 23L3 22L2 22L2 21L1 21L1 22L2 22L2 23L1 23L1 24L2 24L2 28L3 28L3 27L4 27L4 29L2 29L2 30L4 30L4 31L3 31L3 32L2 32L2 31L1 31L1 33L2 33L2 34L1 34L1 35L2 35L2 36L1 36L1 37L2 37L2 38L3 38L3 37L4 37L4 35L3 35L3 34L4 34L4 33L3 33L3 32L4 32L4 31L6 31L6 32L7 32L7 31L6 31L6 30L8 30L8 27L9 27L9 28L11 28L11 29L9 29L9 31L8 31L8 32L10 32L10 33L9 33L9 34L11 34L11 33L12 33L12 34L13 34L13 35L12 35L12 36L13 36L13 39L12 39L12 40L11 40L11 39L10 39L10 38L12 38L12 37L10 37L10 36L9 36L9 37L8 37L8 39L6 39L6 38L7 38L7 37L5 37L5 38L4 38L4 39L6 39L6 40L7 40L7 41L6 41L6 42L7 42L7 43L5 43L5 42L4 42L4 43L5 43L5 44L8 44L8 42L9 42L9 41L10 41L10 42L11 42L11 43L9 43L9 45L6 45L6 46L5 46L5 47L3 47L3 49L4 49L4 51L2 51L2 52L1 52L1 53L2 53L2 54L3 54L3 53L4 53L4 55L6 55L6 56L8 56L8 55L9 55L9 56L10 56L10 57L12 57L12 56L13 56L13 54L12 54L12 53L16 53L16 54L15 54L15 55L14 55L14 56L16 56L16 54L17 54L17 53L18 53L18 55L17 55L17 57L18 57L18 58L16 58L16 59L17 59L17 61L16 61L16 60L15 60L15 59L14 59L14 57L13 57L13 58L12 58L12 59L10 59L10 58L9 58L9 59L10 59L10 60L9 60L9 61L11 61L11 60L12 60L12 62L11 62L11 63L13 63L13 64L11 64L11 65L10 65L10 66L9 66L9 67L12 67L12 68L13 68L13 64L14 64L14 63L15 63L15 65L14 65L14 66L15 66L15 65L16 65L16 66L17 66L17 67L18 67L18 66L17 66L17 65L16 65L16 63L17 63L17 62L18 62L18 59L20 59L20 60L19 60L19 61L20 61L20 62L21 62L21 61L22 61L22 62L23 62L23 61L22 61L22 60L21 60L21 59L23 59L23 60L24 60L24 63L25 63L25 64L24 64L24 67L22 67L22 68L25 68L25 66L27 66L27 64L29 64L29 65L30 65L30 64L31 64L31 63L30 63L30 60L34 60L34 58L36 58L36 60L38 60L38 62L39 62L39 65L40 65L40 62L41 62L41 61L42 61L42 62L43 62L43 61L44 61L44 60L45 60L45 61L46 61L46 62L45 62L45 63L46 63L46 62L47 62L47 61L48 61L48 55L45 55L45 54L44 54L44 51L46 51L46 50L48 50L48 48L47 48L47 45L48 45L48 47L49 47L49 48L50 48L50 47L51 47L51 45L52 45L52 44L53 44L53 45L54 45L54 48L55 48L55 49L54 49L54 50L52 50L52 49L50 49L50 50L52 50L52 51L49 51L49 53L50 53L50 55L49 55L49 57L50 57L50 58L49 58L49 60L50 60L50 62L51 62L51 63L52 63L52 64L53 64L53 63L54 63L54 62L55 62L55 61L56 61L56 60L57 60L57 59L56 59L56 60L54 60L54 62L53 62L53 63L52 63L52 59L51 59L51 60L50 60L50 58L51 58L51 57L52 57L52 58L53 58L53 59L54 59L54 58L57 58L57 57L56 57L56 56L58 56L58 54L59 54L59 53L58 53L58 54L57 54L57 55L56 55L56 54L55 54L55 53L56 53L56 52L55 52L55 51L54 51L54 50L55 50L55 49L56 49L56 48L55 48L55 45L56 45L56 47L57 47L57 45L56 45L56 44L55 44L55 43L58 43L58 44L60 44L60 45L58 45L58 46L61 46L61 48L60 48L60 47L59 47L59 48L60 48L60 49L61 49L61 50L59 50L59 49L58 49L58 48L57 48L57 49L58 49L58 50L57 50L57 51L58 51L58 52L59 52L59 51L60 51L60 53L61 53L61 54L60 54L60 55L61 55L61 54L63 54L63 57L62 57L62 56L61 56L61 57L62 57L62 58L60 58L60 57L58 57L58 58L60 58L60 59L59 59L59 60L60 60L60 59L62 59L62 58L63 58L63 59L64 59L64 60L65 60L65 61L66 61L66 62L67 62L67 61L66 61L66 60L67 60L67 59L68 59L68 58L65 58L65 57L64 57L64 54L67 54L67 55L66 55L66 56L67 56L67 57L68 57L68 53L67 53L67 51L68 51L68 50L67 50L67 47L66 47L66 49L64 49L64 46L63 46L63 45L64 45L64 44L65 44L65 43L66 43L66 44L68 44L68 43L66 43L66 42L67 42L67 39L68 39L68 38L67 38L67 37L68 37L68 33L67 33L67 32L68 32L68 30L66 30L66 29L67 29L67 28L68 28L68 26L67 26L67 23L68 23L68 22L67 22L67 21L68 21L68 20L67 20L67 19L68 19L68 18L67 18L67 17L66 17L66 21L64 21L64 20L65 20L65 19L64 19L64 16L65 16L65 15L66 15L66 13L65 13L65 14L64 14L64 12L65 12L65 11L64 11L64 10L63 10L63 9L62 9L62 10L63 10L63 13L62 13L62 14L61 14L61 17L60 17L60 20L57 20L57 21L56 21L56 22L57 22L57 24L58 24L58 26L57 26L57 25L56 25L56 26L55 26L55 25L54 25L54 24L55 24L55 23L54 23L54 22L55 22L55 20L54 20L54 19L53 19L53 18L52 18L52 19L53 19L53 20L54 20L54 22L53 22L53 21L52 21L52 24L51 24L51 25L50 25L50 22L51 22L51 21L50 21L50 22L49 22L49 25L48 25L48 26L47 26L47 23L45 23L45 21L46 21L46 22L47 22L47 19L46 19L46 20L45 20L45 17L44 17L44 15L45 15L45 14L44 14L44 15L43 15L43 17L42 17L42 18L41 18L41 17L40 17L40 19L39 19L39 20L38 20L38 21L39 21L39 23L40 23L40 24L39 24L39 25L38 25L38 26L37 26L37 24L38 24L38 23L37 23L37 24L35 24L35 23L36 23L36 22L37 22L37 21L36 21L36 18L35 18L35 19L34 19L34 18L32 18L32 20L31 20L31 23L30 23L30 24L33 24L33 26L34 26L34 25L36 25L36 26L37 26L37 27L36 27L36 28L37 28L37 31L36 31L36 29L35 29L35 30L34 30L34 31L36 31L36 32L37 32L37 33L38 33L38 34L37 34L37 39L36 39L36 40L35 40L35 41L36 41L36 40L37 40L37 39L38 39L38 40L39 40L39 41L38 41L38 43L37 43L37 42L36 42L36 44L37 44L37 45L36 45L36 46L37 46L37 47L38 47L38 48L36 48L36 49L38 49L38 50L39 50L39 49L40 49L40 51L41 51L41 52L42 52L42 54L41 54L41 53L39 53L39 52L38 52L38 53L39 53L39 55L37 55L37 53L34 53L34 55L33 55L33 54L32 54L32 53L33 53L33 49L34 49L34 50L35 50L35 51L34 51L34 52L35 52L35 51L36 51L36 52L37 52L37 51L36 51L36 50L35 50L35 49L34 49L34 47L35 47L35 45L34 45L34 43L35 43L35 42L34 42L34 43L33 43L33 42L32 42L32 43L31 43L31 41L32 41L32 40L33 40L33 41L34 41L34 40L33 40L33 39L34 39L34 38L36 38L36 37L33 37L33 39L32 39L32 40L30 40L30 39L31 39L31 37L30 37L30 36L32 36L32 35L31 35L31 33L30 33L30 32L29 32L29 30L31 30L31 29L30 29L30 28L31 28L31 27L30 27L30 26L32 26L32 25L30 25L30 26L29 26L29 25L28 25L28 24L27 24L27 23L29 23L29 22L30 22L30 19L28 19L28 18L30 18L30 15L28 15L28 14L27 14L27 15L26 15L26 16L27 16L27 17L26 17L26 18L27 18L27 19L25 19L25 21L24 21L24 19L22 19L22 18L23 18L23 17L22 17L22 15L21 15L21 14L22 14L22 12L23 12L23 13L24 13L24 12L23 12L23 9L22 9L22 11L21 11L21 9L20 9L20 8L19 8L19 9L20 9L20 11L18 11L18 12L16 12L16 10L17 10L17 9L16 9L16 10L15 10L15 11L14 11L14 10L13 10L13 11L12 11L12 12L14 12L14 13L13 13L13 14L14 14L14 15L13 15L13 16L14 16L14 17L13 17L13 18L12 18L12 13L10 13L10 12L11 12L11 10L12 10L12 9L13 9L13 8L14 8L14 9L15 9L15 7L16 7L16 6L17 6L17 8L18 8L18 5L19 5L19 3L18 3L18 5L17 5L17 3L16 3L16 4L15 4L15 3ZM50 3L50 4L51 4L51 5L52 5L52 6L51 6L51 8L50 8L50 6L49 6L49 7L48 7L48 8L47 8L47 9L46 9L46 10L45 10L45 13L46 13L46 14L47 14L47 13L48 13L48 15L50 15L50 14L53 14L53 13L51 13L51 12L50 12L50 10L51 10L51 9L52 9L52 10L53 10L53 9L54 9L54 11L53 11L53 12L54 12L54 14L55 14L55 15L54 15L54 16L53 16L53 17L54 17L54 18L56 18L56 19L58 19L58 18L59 18L59 17L58 17L58 16L57 16L57 17L56 17L56 14L55 14L55 12L54 12L54 11L56 11L56 10L55 10L55 9L56 9L56 8L55 8L55 9L54 9L54 6L53 6L53 5L54 5L54 3L52 3L52 4L51 4L51 3ZM60 3L60 5L61 5L61 3ZM12 4L12 5L13 5L13 6L12 6L12 7L11 7L11 8L13 8L13 6L14 6L14 7L15 7L15 6L16 6L16 5L13 5L13 4ZM52 4L52 5L53 5L53 4ZM33 5L33 8L36 8L36 5ZM19 6L19 7L20 7L20 6ZM34 6L34 7L35 7L35 6ZM37 6L37 7L38 7L38 6ZM41 6L41 8L42 8L42 6ZM52 6L52 9L53 9L53 6ZM0 8L0 9L2 9L2 10L3 10L3 8ZM5 8L5 9L4 9L4 11L3 11L3 12L5 12L5 9L7 9L7 8ZM37 8L37 9L38 9L38 8ZM48 8L48 9L47 9L47 10L46 10L46 13L47 13L47 11L48 11L48 13L49 13L49 14L50 14L50 12L49 12L49 11L48 11L48 9L49 9L49 10L50 10L50 9L49 9L49 8ZM32 9L32 10L33 10L33 11L34 11L34 10L33 10L33 9ZM6 10L6 11L7 11L7 10ZM20 11L20 13L19 13L19 12L18 12L18 13L19 13L19 14L20 14L20 13L21 13L21 11ZM15 13L15 14L16 14L16 15L15 15L15 17L14 17L14 18L13 18L13 19L14 19L14 20L12 20L12 21L10 21L10 20L9 20L9 21L10 21L10 22L8 22L8 24L9 24L9 23L10 23L10 24L13 24L13 25L14 25L14 26L13 26L13 27L12 27L12 29L13 29L13 30L10 30L10 32L12 32L12 31L15 31L15 32L14 32L14 33L15 33L15 35L14 35L14 36L15 36L15 38L14 38L14 39L15 39L15 40L16 40L16 41L17 41L17 40L16 40L16 36L17 36L17 35L18 35L18 38L17 38L17 39L18 39L18 43L20 43L20 44L18 44L18 45L19 45L19 47L18 47L18 48L19 48L19 50L18 50L18 51L19 51L19 52L18 52L18 53L19 53L19 54L20 54L20 55L21 55L21 54L20 54L20 53L21 53L21 51L22 51L22 53L23 53L23 55L22 55L22 56L24 56L24 57L25 57L25 58L24 58L24 59L26 59L26 61L27 61L27 63L26 63L26 64L27 64L27 63L28 63L28 60L27 60L27 59L28 59L28 57L29 57L29 58L30 58L30 59L29 59L29 60L30 60L30 59L32 59L32 58L34 58L34 57L35 57L35 56L36 56L36 58L37 58L37 59L40 59L40 58L41 58L41 59L43 59L43 60L44 60L44 59L46 59L46 61L47 61L47 58L46 58L46 57L45 57L45 55L44 55L44 54L43 54L43 55L44 55L44 57L45 57L45 58L42 58L42 57L41 57L41 56L42 56L42 55L41 55L41 54L40 54L40 58L38 58L38 56L36 56L36 54L35 54L35 56L34 56L34 57L32 57L32 56L30 56L30 55L32 55L32 54L28 54L28 52L27 52L27 51L26 51L26 49L27 49L27 48L26 48L26 47L27 47L27 46L28 46L28 45L29 45L29 44L28 44L28 45L27 45L27 44L26 44L26 43L24 43L24 42L27 42L27 43L28 43L28 40L29 40L29 39L28 39L28 37L29 37L29 35L30 35L30 33L29 33L29 32L28 32L28 29L29 29L29 28L30 28L30 27L28 27L28 25L27 25L27 24L26 24L26 26L24 26L24 27L26 27L26 29L27 29L27 31L26 31L26 32L27 32L27 35L26 35L26 34L24 34L24 33L25 33L25 31L23 31L23 30L24 30L24 29L25 29L25 28L22 28L22 29L21 29L21 27L22 27L22 26L20 26L20 23L21 23L21 22L20 22L20 21L21 21L21 19L20 19L20 18L21 18L21 16L19 16L19 15L18 15L18 16L19 16L19 20L18 20L18 21L16 21L16 20L17 20L17 17L16 17L16 16L17 16L17 14L16 14L16 13ZM34 14L34 15L35 15L35 14ZM63 14L63 15L62 15L62 17L61 17L61 20L60 20L60 21L59 21L59 22L60 22L60 23L59 23L59 24L60 24L60 25L59 25L59 26L58 26L58 27L57 27L57 26L56 26L56 30L55 30L55 31L54 31L54 29L53 29L53 27L52 27L52 26L53 26L53 24L52 24L52 25L51 25L51 28L50 28L50 27L49 27L49 26L50 26L50 25L49 25L49 26L48 26L48 29L47 29L47 30L48 30L48 33L47 33L47 34L46 34L46 32L45 32L45 31L44 31L44 34L43 34L43 35L42 35L42 30L40 30L40 29L43 29L43 30L44 30L44 29L46 29L46 28L47 28L47 26L46 26L46 25L45 25L45 24L44 24L44 25L45 25L45 28L44 28L44 29L43 29L43 28L40 28L40 25L41 25L41 26L42 26L42 27L43 27L43 26L42 26L42 25L43 25L43 24L42 24L42 23L41 23L41 22L42 22L42 21L43 21L43 23L44 23L44 21L45 21L45 20L44 20L44 21L43 21L43 20L42 20L42 19L44 19L44 18L42 18L42 19L40 19L40 21L41 21L41 22L40 22L40 23L41 23L41 24L40 24L40 25L39 25L39 31L38 31L38 33L39 33L39 34L38 34L38 35L39 35L39 36L38 36L38 37L39 37L39 36L40 36L40 38L38 38L38 39L40 39L40 41L39 41L39 42L42 42L42 43L41 43L41 44L42 44L42 45L43 45L43 46L44 46L44 47L41 47L41 48L40 48L40 49L41 49L41 51L43 51L43 50L42 50L42 49L43 49L43 48L44 48L44 50L46 50L46 49L47 49L47 48L44 48L44 47L45 47L45 45L47 45L47 44L48 44L48 45L49 45L49 46L50 46L50 45L49 45L49 43L48 43L48 42L50 42L50 44L52 44L52 43L53 43L53 42L54 42L54 40L53 40L53 38L54 38L54 39L55 39L55 40L56 40L56 41L55 41L55 42L58 42L58 39L60 39L60 40L59 40L59 41L62 41L62 43L63 43L63 38L62 38L62 40L61 40L61 38L58 38L58 37L65 37L65 36L66 36L66 37L67 37L67 36L66 36L66 34L67 34L67 33L65 33L65 32L66 32L66 30L65 30L65 31L64 31L64 30L63 30L63 31L62 31L62 28L64 28L64 29L65 29L65 28L64 28L64 27L65 27L65 26L66 26L66 23L67 23L67 22L64 22L64 21L63 21L63 19L62 19L62 17L63 17L63 15L64 15L64 14ZM8 15L8 16L10 16L10 15ZM27 15L27 16L28 16L28 17L29 17L29 16L28 16L28 15ZM36 16L36 17L37 17L37 16ZM49 16L49 17L48 17L48 18L49 18L49 19L50 19L50 20L51 20L51 19L50 19L50 18L51 18L51 17L52 17L52 16ZM54 16L54 17L55 17L55 16ZM38 17L38 18L37 18L37 19L38 19L38 18L39 18L39 17ZM46 17L46 18L47 18L47 17ZM49 17L49 18L50 18L50 17ZM57 17L57 18L58 18L58 17ZM14 18L14 19L15 19L15 20L16 20L16 19L15 19L15 18ZM7 19L7 20L6 20L6 21L8 21L8 19ZM33 19L33 20L34 20L34 19ZM22 20L22 21L23 21L23 23L22 23L22 24L24 24L24 25L25 25L25 24L24 24L24 23L25 23L25 22L24 22L24 21L23 21L23 20ZM26 20L26 21L27 21L27 22L26 22L26 23L27 23L27 22L28 22L28 21L29 21L29 20L28 20L28 21L27 21L27 20ZM13 21L13 22L12 22L12 23L13 23L13 24L17 24L17 26L16 26L16 27L19 27L19 29L18 29L18 28L17 28L17 29L16 29L16 28L15 28L15 27L14 27L14 29L16 29L16 30L15 30L15 31L16 31L16 30L17 30L17 29L18 29L18 30L19 30L19 29L20 29L20 30L21 30L21 31L20 31L20 32L19 32L19 31L18 31L18 32L19 32L19 33L18 33L18 34L19 34L19 36L21 36L21 37L20 37L20 39L19 39L19 40L20 40L20 43L21 43L21 45L20 45L20 47L19 47L19 48L21 48L21 47L22 47L22 46L23 46L23 50L22 50L22 51L23 51L23 52L25 52L25 53L24 53L24 56L27 56L27 57L28 57L28 55L26 55L26 51L24 51L24 50L25 50L25 48L24 48L24 46L25 46L25 45L24 45L24 46L23 46L23 45L22 45L22 43L23 43L23 41L22 41L22 43L21 43L21 40L20 40L20 39L21 39L21 37L22 37L22 35L23 35L23 37L24 37L24 39L22 39L22 40L24 40L24 39L25 39L25 38L26 38L26 40L25 40L25 41L26 41L26 40L28 40L28 39L27 39L27 38L26 38L26 35L24 35L24 34L21 34L21 33L22 33L22 32L23 32L23 31L22 31L22 30L21 30L21 29L20 29L20 27L19 27L19 25L18 25L18 24L19 24L19 23L18 23L18 24L17 24L17 23L14 23L14 21ZM15 21L15 22L16 22L16 21ZM32 21L32 22L33 22L33 24L34 24L34 22L36 22L36 21L34 21L34 22L33 22L33 21ZM57 21L57 22L58 22L58 21ZM60 21L60 22L61 22L61 23L62 23L62 26L63 26L63 25L64 25L64 26L65 26L65 25L64 25L64 24L65 24L65 23L64 23L64 24L63 24L63 23L62 23L62 22L63 22L63 21L62 21L62 22L61 22L61 21ZM10 22L10 23L11 23L11 22ZM2 23L2 24L3 24L3 23ZM9 25L9 27L11 27L11 26L12 26L12 25ZM60 25L60 26L59 26L59 27L60 27L60 28L57 28L57 29L58 29L58 30L59 30L59 29L60 29L60 30L61 30L61 29L60 29L60 28L62 28L62 27L60 27L60 26L61 26L61 25ZM26 26L26 27L27 27L27 28L28 28L28 27L27 27L27 26ZM34 27L34 28L32 28L32 29L34 29L34 28L35 28L35 27ZM37 27L37 28L38 28L38 27ZM5 28L5 30L6 30L6 29L7 29L7 28ZM50 29L50 32L49 32L49 33L48 33L48 35L46 35L46 34L44 34L44 35L43 35L43 36L42 36L42 35L41 35L41 34L39 34L39 35L41 35L41 36L42 36L42 38L41 38L41 41L42 41L42 42L43 42L43 41L44 41L44 43L42 43L42 44L43 44L43 45L44 45L44 43L45 43L45 44L47 44L47 41L48 41L48 40L49 40L49 41L50 41L50 42L52 42L52 38L53 38L53 37L52 37L52 36L53 36L53 35L54 35L54 36L55 36L55 37L54 37L54 38L56 38L56 40L57 40L57 39L58 39L58 38L57 38L57 37L56 37L56 34L57 34L57 33L56 33L56 31L57 31L57 30L56 30L56 31L55 31L55 32L54 32L54 31L53 31L53 29L52 29L52 31L51 31L51 29ZM21 31L21 32L20 32L20 33L21 33L21 32L22 32L22 31ZM32 31L32 32L33 32L33 31ZM39 31L39 33L40 33L40 31ZM52 31L52 33L53 33L53 34L51 34L51 36L52 36L52 35L53 35L53 34L54 34L54 35L55 35L55 34L54 34L54 32L53 32L53 31ZM58 31L58 35L57 35L57 36L58 36L58 35L59 35L59 36L60 36L60 34L59 34L59 33L60 33L60 32L61 32L61 31L60 31L60 32L59 32L59 31ZM16 32L16 35L15 35L15 36L16 36L16 35L17 35L17 32ZM50 32L50 33L49 33L49 34L50 34L50 33L51 33L51 32ZM5 33L5 36L8 36L8 33ZM33 33L33 36L36 36L36 33ZM61 33L61 36L64 36L64 33ZM6 34L6 35L7 35L7 34ZM20 34L20 35L21 35L21 34ZM28 34L28 35L29 35L29 34ZM34 34L34 35L35 35L35 34ZM62 34L62 35L63 35L63 34ZM44 35L44 37L43 37L43 38L42 38L42 41L43 41L43 38L45 38L45 39L46 39L46 41L45 41L45 40L44 40L44 41L45 41L45 42L46 42L46 41L47 41L47 39L49 39L49 38L48 38L48 37L49 37L49 36L48 36L48 37L47 37L47 39L46 39L46 35ZM64 38L64 40L65 40L65 38ZM8 39L8 41L9 41L9 40L10 40L10 41L11 41L11 40L10 40L10 39ZM50 39L50 41L51 41L51 39ZM12 40L12 42L13 42L13 43L15 43L15 41L14 41L14 40ZM13 41L13 42L14 42L14 41ZM16 42L16 43L17 43L17 42ZM64 42L64 43L65 43L65 42ZM30 43L30 45L32 45L32 44L33 44L33 43L32 43L32 44L31 44L31 43ZM60 43L60 44L61 44L61 45L62 45L62 44L61 44L61 43ZM12 44L12 45L13 45L13 46L12 46L12 47L11 47L11 46L10 46L10 45L9 45L9 46L10 46L10 47L8 47L8 46L6 46L6 47L5 47L5 48L6 48L6 49L7 49L7 48L10 48L10 49L8 49L8 51L7 51L7 50L6 50L6 51L7 51L7 52L6 52L6 53L5 53L5 54L6 54L6 55L8 55L8 54L6 54L6 53L7 53L7 52L9 52L9 55L10 55L10 54L11 54L11 53L12 53L12 52L11 52L11 53L10 53L10 52L9 52L9 51L15 51L15 52L16 52L16 53L17 53L17 52L16 52L16 51L17 51L17 50L16 50L16 49L17 49L17 47L16 47L16 44L15 44L15 47L16 47L16 49L15 49L15 48L13 48L13 49L12 49L12 47L14 47L14 45L13 45L13 44ZM38 44L38 45L37 45L37 46L38 46L38 45L39 45L39 44ZM2 45L2 46L3 46L3 45ZM33 45L33 47L34 47L34 45ZM40 45L40 46L41 46L41 45ZM30 46L30 47L28 47L28 49L29 49L29 50L28 50L28 51L29 51L29 52L30 52L30 53L32 53L32 52L30 52L30 51L29 51L29 50L31 50L31 51L32 51L32 48L31 48L31 47L32 47L32 46ZM52 46L52 47L53 47L53 46ZM62 46L62 47L63 47L63 46ZM6 47L6 48L7 48L7 47ZM10 47L10 48L11 48L11 47ZM13 49L13 50L15 50L15 49ZM63 49L63 50L62 50L62 52L63 52L63 54L64 54L64 53L65 53L65 52L66 52L66 51L67 51L67 50L66 50L66 51L65 51L65 50L64 50L64 49ZM20 50L20 51L21 51L21 50ZM58 50L58 51L59 51L59 50ZM63 50L63 51L64 51L64 50ZM4 51L4 52L5 52L5 51ZM47 51L47 52L46 52L46 54L48 54L48 51ZM2 52L2 53L3 53L3 52ZM19 52L19 53L20 53L20 52ZM50 52L50 53L51 53L51 52ZM52 52L52 54L53 54L53 52ZM54 52L54 53L55 53L55 52ZM11 55L11 56L12 56L12 55ZM50 55L50 57L51 57L51 56L52 56L52 57L53 57L53 58L54 58L54 57L55 57L55 56L54 56L54 55L53 55L53 56L52 56L52 55ZM18 56L18 57L19 57L19 58L20 58L20 59L21 59L21 58L20 58L20 56ZM30 57L30 58L32 58L32 57ZM63 57L63 58L64 58L64 57ZM0 58L0 61L1 61L1 58ZM2 58L2 59L3 59L3 58ZM12 59L12 60L14 60L14 61L13 61L13 62L15 62L15 63L16 63L16 61L15 61L15 60L14 60L14 59ZM65 59L65 60L66 60L66 59ZM3 60L3 61L5 61L5 60ZM20 60L20 61L21 61L21 60ZM39 60L39 61L41 61L41 60ZM31 61L31 62L32 62L32 61ZM33 61L33 64L36 64L36 61ZM61 61L61 64L64 64L64 61ZM34 62L34 63L35 63L35 62ZM62 62L62 63L63 63L63 62ZM29 63L29 64L30 64L30 63ZM41 63L41 65L42 65L42 63ZM43 63L43 65L44 65L44 63ZM66 63L66 65L65 65L65 67L66 67L66 65L67 65L67 63ZM49 64L49 65L50 65L50 64ZM56 64L56 66L58 66L58 68L57 68L57 67L56 67L56 69L59 69L59 66L58 66L58 64ZM49 66L49 67L50 67L50 66ZM52 66L52 67L53 67L53 68L52 68L52 69L53 69L53 68L54 68L54 69L55 69L55 68L54 68L54 67L53 67L53 66ZM61 66L61 67L62 67L62 66ZM26 67L26 68L27 68L27 67ZM38 68L38 69L39 69L39 68ZM68 68L68 69L69 69L69 68ZM0 0L0 7L7 7L7 0ZM1 1L1 6L6 6L6 1ZM2 2L2 5L5 5L5 2ZM62 0L62 7L69 7L69 0ZM63 1L63 6L68 6L68 1ZM64 2L64 5L67 5L67 2ZM0 62L0 69L7 69L7 62ZM1 63L1 68L6 68L6 63ZM2 64L2 67L5 67L5 64Z" fill="#000000"/></g></g></svg>
