<?xml version="1.0" encoding="UTF-8"?>
<svg xmlns="http://www.w3.org/2000/svg" version="1.1" width="300" height="300" viewBox="0 0 300 300"><rect x="0" y="0" width="300" height="300" fill="#ffffff"/><g transform="scale(4.348)"><g transform="translate(0,0)"><path fill-rule="evenodd" d="M8 0L8 1L9 1L9 2L8 2L8 5L9 5L9 6L8 6L8 7L9 7L9 8L8 8L8 12L6 12L6 13L5 13L5 12L4 12L4 10L5 10L5 11L7 11L7 10L6 10L6 9L7 9L7 8L6 8L6 9L4 9L4 8L0 8L0 11L2 11L2 10L3 10L3 12L4 12L4 13L1 13L1 12L0 12L0 13L1 13L1 14L0 14L0 16L1 16L1 14L2 14L2 15L3 15L3 14L4 14L4 16L3 16L3 18L2 18L2 20L1 20L1 19L0 19L0 25L2 25L2 26L3 26L3 25L4 25L4 27L3 27L3 28L1 28L1 27L0 27L0 29L1 29L1 31L0 31L0 32L1 32L1 33L0 33L0 35L2 35L2 31L3 31L3 34L4 34L4 35L3 35L3 38L4 38L4 39L2 39L2 38L0 38L0 39L2 39L2 40L0 40L0 41L2 41L2 40L3 40L3 41L4 41L4 39L5 39L5 41L7 41L7 42L6 42L6 43L7 43L7 44L6 44L6 45L7 45L7 46L6 46L6 47L8 47L8 49L7 49L7 48L6 48L6 49L5 49L5 47L4 47L4 45L3 45L3 44L5 44L5 43L3 43L3 44L2 44L2 42L0 42L0 43L1 43L1 46L0 46L0 47L1 47L1 48L0 48L0 49L3 49L3 50L1 50L1 51L0 51L0 52L1 52L1 53L0 53L0 56L2 56L2 55L3 55L3 56L4 56L4 59L7 59L7 58L5 58L5 56L4 56L4 55L9 55L9 56L6 56L6 57L9 57L9 58L8 58L8 59L9 59L9 58L10 58L10 59L11 59L11 58L13 58L13 59L14 59L14 60L13 60L13 65L16 65L16 66L15 66L15 68L14 68L14 67L13 67L13 69L18 69L18 68L19 68L19 67L20 67L20 69L26 69L26 68L28 68L28 69L30 69L30 68L31 68L31 67L33 67L33 68L34 68L34 69L35 69L35 68L34 68L34 66L35 66L35 67L36 67L36 65L37 65L37 63L38 63L38 62L39 62L39 66L38 66L38 68L39 68L39 69L41 69L41 68L43 68L43 67L41 67L41 66L42 66L42 65L40 65L40 64L41 64L41 62L39 62L39 61L40 61L40 60L41 60L41 61L42 61L42 60L41 60L41 59L42 59L42 58L43 58L43 56L41 56L41 55L42 55L42 53L43 53L43 54L44 54L44 55L46 55L46 54L48 54L48 53L47 53L47 52L49 52L49 49L50 49L50 53L52 53L52 52L51 52L51 50L52 50L52 51L54 51L54 50L52 50L52 49L50 49L50 48L49 48L49 46L50 46L50 45L51 45L51 47L52 47L52 48L53 48L53 49L56 49L56 48L60 48L60 47L63 47L63 48L64 48L64 49L65 49L65 50L66 50L66 51L64 51L64 50L63 50L63 51L62 51L62 53L61 53L61 52L57 52L57 51L58 51L58 49L57 49L57 50L56 50L56 51L55 51L55 52L56 52L56 53L55 53L55 54L59 54L59 56L58 56L58 55L57 55L57 56L58 56L58 57L59 57L59 58L58 58L58 59L57 59L57 57L53 57L53 56L51 56L51 55L54 55L54 56L55 56L55 55L54 55L54 54L51 54L51 55L49 55L49 57L48 57L48 55L47 55L47 57L48 57L48 58L49 58L49 59L48 59L48 60L47 60L47 59L45 59L45 58L44 58L44 59L43 59L43 62L45 62L45 63L44 63L44 64L43 64L43 65L45 65L45 63L46 63L46 62L45 62L45 61L44 61L44 60L47 60L47 61L49 61L49 62L48 62L48 63L50 63L50 62L51 62L51 66L50 66L50 67L51 67L51 69L55 69L55 68L58 68L58 67L59 67L59 68L60 68L60 69L65 69L65 68L64 68L64 67L62 67L62 66L63 66L63 65L64 65L64 66L65 66L65 67L67 67L67 66L68 66L68 65L69 65L69 64L68 64L68 61L69 61L69 55L68 55L68 54L69 54L69 52L68 52L68 51L67 51L67 50L68 50L68 49L65 49L65 48L66 48L66 46L67 46L67 47L69 47L69 46L67 46L67 45L66 45L66 44L65 44L65 41L66 41L66 43L68 43L68 44L69 44L69 43L68 43L68 41L66 41L66 40L68 40L68 39L67 39L67 38L69 38L69 37L68 37L68 36L69 36L69 33L68 33L68 34L67 34L67 32L65 32L65 31L64 31L64 30L63 30L63 32L62 32L62 30L61 30L61 32L60 32L60 31L59 31L59 34L60 34L60 38L58 38L58 37L59 37L59 35L58 35L58 34L55 34L55 33L53 33L53 32L54 32L54 31L53 31L53 30L54 30L54 29L56 29L56 30L55 30L55 32L57 32L57 33L58 33L58 32L57 32L57 31L58 31L58 30L60 30L60 28L61 28L61 29L62 29L62 27L64 27L64 28L66 28L66 30L67 30L67 31L68 31L68 29L69 29L69 28L67 28L67 26L64 26L64 23L65 23L65 25L67 25L67 24L66 24L66 23L69 23L69 21L68 21L68 22L66 22L66 23L65 23L65 20L63 20L63 18L62 18L62 19L61 19L61 20L60 20L60 19L59 19L59 20L58 20L58 19L57 19L57 18L60 18L60 17L58 17L58 16L60 16L60 15L61 15L61 14L63 14L63 15L62 15L62 16L61 16L61 17L64 17L64 15L65 15L65 17L66 17L66 18L67 18L67 20L69 20L69 19L68 19L68 18L69 18L69 17L68 17L68 16L67 16L67 15L66 15L66 14L69 14L69 13L68 13L68 12L69 12L69 8L68 8L68 10L65 10L65 11L63 11L63 10L64 10L64 9L67 9L67 8L64 8L64 9L63 9L63 10L62 10L62 8L61 8L61 6L60 6L60 7L59 7L59 4L58 4L58 3L59 3L59 2L58 2L58 1L61 1L61 0L58 0L58 1L57 1L57 0L56 0L56 1L55 1L55 0L52 0L52 3L53 3L53 2L54 2L54 4L56 4L56 3L55 3L55 2L56 2L56 1L57 1L57 2L58 2L58 3L57 3L57 6L56 6L56 5L55 5L55 6L54 6L54 5L51 5L51 3L50 3L50 4L49 4L49 2L48 2L48 1L50 1L50 0L48 0L48 1L47 1L47 2L45 2L45 0L44 0L44 2L42 2L42 1L43 1L43 0L41 0L41 1L40 1L40 2L39 2L39 3L41 3L41 2L42 2L42 3L43 3L43 5L42 5L42 7L41 7L41 4L40 4L40 5L39 5L39 4L38 4L38 1L37 1L37 0L36 0L36 1L37 1L37 2L33 2L33 1L35 1L35 0L33 0L33 1L32 1L32 0L31 0L31 1L32 1L32 2L31 2L31 3L29 3L29 6L28 6L28 4L27 4L27 6L26 6L26 5L23 5L23 4L26 4L26 3L23 3L23 2L21 2L21 1L22 1L22 0L21 0L21 1L19 1L19 0L17 0L17 1L16 1L16 2L15 2L15 1L14 1L14 0L12 0L12 1L13 1L13 2L11 2L11 0ZM23 0L23 1L24 1L24 2L27 2L27 3L28 3L28 2L29 2L29 1L30 1L30 0L28 0L28 2L27 2L27 1L25 1L25 0ZM18 1L18 2L16 2L16 3L15 3L15 2L14 2L14 4L12 4L12 5L11 5L11 4L10 4L10 2L9 2L9 4L10 4L10 6L9 6L9 7L10 7L10 8L13 8L13 10L12 10L12 9L10 9L10 12L9 12L9 13L10 13L10 14L8 14L8 13L6 13L6 14L8 14L8 16L9 16L9 17L6 17L6 18L7 18L7 19L6 19L6 20L7 20L7 21L6 21L6 22L7 22L7 23L5 23L5 22L4 22L4 20L5 20L5 19L4 19L4 20L3 20L3 21L1 21L1 23L2 23L2 25L3 25L3 23L2 23L2 22L4 22L4 25L5 25L5 26L7 26L7 27L5 27L5 28L4 28L4 31L5 31L5 32L7 32L7 31L8 31L8 30L7 30L7 29L6 29L6 28L11 28L11 29L10 29L10 30L11 30L11 31L16 31L16 32L13 32L13 34L11 34L11 33L12 33L12 32L11 32L11 33L9 33L9 34L11 34L11 35L10 35L10 36L9 36L9 37L10 37L10 38L8 38L8 37L4 37L4 38L8 38L8 39L6 39L6 40L7 40L7 41L8 41L8 42L7 42L7 43L8 43L8 44L7 44L7 45L8 45L8 44L9 44L9 45L10 45L10 44L9 44L9 41L10 41L10 43L13 43L13 45L11 45L11 46L13 46L13 47L14 47L14 46L16 46L16 48L18 48L18 51L16 51L16 50L17 50L17 49L16 49L16 50L15 50L15 48L13 48L13 49L12 49L12 48L11 48L11 47L10 47L10 46L9 46L9 47L10 47L10 48L9 48L9 49L10 49L10 48L11 48L11 49L12 49L12 50L15 50L15 51L13 51L13 52L14 52L14 53L11 53L11 52L12 52L12 51L11 51L11 50L7 50L7 49L6 49L6 50L4 50L4 52L7 52L7 53L6 53L6 54L8 54L8 51L9 51L9 52L10 52L10 53L9 53L9 55L10 55L10 57L13 57L13 56L12 56L12 54L13 54L13 55L14 55L14 54L15 54L15 51L16 51L16 53L17 53L17 52L18 52L18 53L19 53L19 54L17 54L17 55L15 55L15 59L16 59L16 62L15 62L15 61L14 61L14 64L15 64L15 63L16 63L16 62L17 62L17 63L19 63L19 64L18 64L18 66L17 66L17 68L18 68L18 66L19 66L19 64L22 64L22 65L24 65L24 66L21 66L21 65L20 65L20 67L22 67L22 68L23 68L23 67L24 67L24 68L25 68L25 67L24 67L24 66L25 66L25 64L26 64L26 66L27 66L27 65L28 65L28 66L29 66L29 67L31 67L31 66L29 66L29 64L30 64L30 65L31 65L31 63L30 63L30 62L32 62L32 61L29 61L29 60L26 60L26 59L25 59L25 58L24 58L24 57L26 57L26 58L28 58L28 59L30 59L30 58L29 58L29 57L32 57L32 55L33 55L33 54L31 54L31 55L30 55L30 53L35 53L35 54L34 54L34 55L35 55L35 56L36 56L36 60L37 60L37 59L39 59L39 60L38 60L38 61L39 61L39 60L40 60L40 58L39 58L39 56L40 56L40 55L41 55L41 54L40 54L40 53L41 53L41 52L40 52L40 53L39 53L39 52L36 52L36 53L35 53L35 51L37 51L37 50L36 50L36 49L40 49L40 50L38 50L38 51L42 51L42 52L44 52L44 50L45 50L45 48L46 48L46 50L47 50L47 51L48 51L48 48L46 48L46 47L44 47L44 45L45 45L45 43L46 43L46 42L45 42L45 41L43 41L43 40L45 40L45 39L47 39L47 40L46 40L46 41L47 41L47 44L48 44L48 45L49 45L49 44L50 44L50 43L52 43L52 44L53 44L53 45L54 45L54 44L55 44L55 46L54 46L54 48L55 48L55 46L56 46L56 47L60 47L60 46L59 46L59 45L60 45L60 44L62 44L62 45L61 45L61 46L66 46L66 45L63 45L63 44L64 44L64 43L63 43L63 42L62 42L62 40L61 40L61 39L63 39L63 38L67 38L67 37L66 37L66 36L67 36L67 34L66 34L66 36L65 36L65 37L61 37L61 39L58 39L58 40L57 40L57 36L58 36L58 35L54 35L54 34L52 34L52 35L51 35L51 33L50 33L50 32L51 32L51 30L53 30L53 28L54 28L54 26L55 26L55 28L58 28L58 27L57 27L57 26L55 26L55 25L57 25L57 24L58 24L58 26L61 26L61 27L62 27L62 25L63 25L63 24L62 24L62 25L59 25L59 24L58 24L58 23L57 23L57 24L56 24L56 21L58 21L58 22L59 22L59 23L60 23L60 24L61 24L61 22L59 22L59 21L60 21L60 20L59 20L59 21L58 21L58 20L57 20L57 19L56 19L56 18L55 18L55 16L58 16L58 14L59 14L59 15L60 15L60 14L61 14L61 12L62 12L62 13L64 13L64 14L65 14L65 13L67 13L67 11L66 11L66 12L62 12L62 10L61 10L61 11L60 11L60 12L59 12L59 11L58 11L58 14L57 14L57 15L56 15L56 14L55 14L55 12L56 12L56 13L57 13L57 12L56 12L56 10L57 10L57 9L58 9L58 10L59 10L59 9L61 9L61 8L59 8L59 7L58 7L58 6L57 6L57 7L56 7L56 6L55 6L55 7L54 7L54 6L53 6L53 7L52 7L52 6L51 6L51 5L50 5L50 6L49 6L49 7L48 7L48 6L47 6L47 7L46 7L46 5L47 5L47 3L48 3L48 2L47 2L47 3L46 3L46 5L45 5L45 8L44 8L44 6L43 6L43 9L45 9L45 10L46 10L46 12L45 12L45 11L44 11L44 10L43 10L43 11L44 11L44 13L43 13L43 12L41 12L41 13L42 13L42 14L43 14L43 15L41 15L41 14L40 14L40 11L42 11L42 10L41 10L41 9L42 9L42 8L41 8L41 9L40 9L40 11L39 11L39 8L40 8L40 6L39 6L39 5L38 5L38 4L37 4L37 7L38 7L38 8L37 8L37 9L38 9L38 10L37 10L37 11L39 11L39 12L38 12L38 13L39 13L39 14L37 14L37 12L36 12L36 9L32 9L32 10L33 10L33 11L32 11L32 13L31 13L31 14L30 14L30 11L29 11L29 10L30 10L30 9L29 9L29 7L30 7L30 6L29 6L29 7L28 7L28 6L27 6L27 7L28 7L28 10L27 10L27 11L25 11L25 12L26 12L26 16L22 16L22 17L21 17L21 18L23 18L23 19L22 19L22 20L23 20L23 21L22 21L22 22L23 22L23 21L24 21L24 20L23 20L23 19L25 19L25 18L27 18L27 20L25 20L25 24L26 24L26 25L24 25L24 27L23 27L23 28L22 28L22 29L20 29L20 28L21 28L21 27L22 27L22 26L23 26L23 25L22 25L22 24L24 24L24 23L21 23L21 19L20 19L20 16L19 16L19 15L17 15L17 14L15 14L15 13L14 13L14 14L15 14L15 15L17 15L17 17L16 17L16 16L13 16L13 11L14 11L14 12L15 12L15 10L14 10L14 8L15 8L15 9L16 9L16 10L17 10L17 12L19 12L19 10L18 10L18 9L19 9L19 7L20 7L20 6L21 6L21 7L22 7L22 8L20 8L20 10L22 10L22 12L21 12L21 13L22 13L22 15L23 15L23 14L25 14L25 13L23 13L23 9L24 9L24 10L26 10L26 9L27 9L27 8L26 8L26 6L25 6L25 7L24 7L24 6L23 6L23 7L22 7L22 5L20 5L20 4L19 4L19 7L18 7L18 6L17 6L17 7L16 7L16 6L15 6L15 5L16 5L16 4L17 4L17 3L18 3L18 2L19 2L19 1ZM54 1L54 2L55 2L55 1ZM20 2L20 3L21 3L21 4L23 4L23 3L21 3L21 2ZM32 3L32 4L35 4L35 3ZM44 3L44 4L45 4L45 3ZM60 3L60 5L61 5L61 3ZM14 4L14 5L13 5L13 6L12 6L12 7L13 7L13 8L14 8L14 7L15 7L15 6L14 6L14 5L15 5L15 4ZM30 4L30 5L31 5L31 4ZM33 5L33 8L36 8L36 5ZM10 6L10 7L11 7L11 6ZM13 6L13 7L14 7L14 6ZM31 6L31 8L32 8L32 6ZM34 6L34 7L35 7L35 6ZM38 6L38 7L39 7L39 6ZM50 6L50 7L49 7L49 8L51 8L51 9L52 9L52 10L56 10L56 9L54 9L54 8L52 8L52 7L51 7L51 6ZM23 7L23 8L22 8L22 9L23 9L23 8L24 8L24 7ZM55 7L55 8L56 8L56 7ZM16 8L16 9L18 9L18 8ZM46 8L46 9L47 9L47 11L48 11L48 12L46 12L46 13L44 13L44 16L43 16L43 18L42 18L42 16L41 16L41 17L40 17L40 14L39 14L39 16L38 16L38 17L39 17L39 20L38 20L38 19L37 19L37 17L34 17L34 15L35 15L35 16L36 16L36 12L35 12L35 10L34 10L34 11L33 11L33 13L32 13L32 14L33 14L33 16L32 16L32 15L30 15L30 14L28 14L28 13L29 13L29 12L27 12L27 14L28 14L28 15L27 15L27 16L26 16L26 17L28 17L28 18L29 18L29 20L27 20L27 21L26 21L26 24L27 24L27 26L25 26L25 27L24 27L24 28L23 28L23 29L22 29L22 32L21 32L21 34L19 34L19 33L17 33L17 32L16 32L16 33L17 33L17 34L18 34L18 36L16 36L16 35L15 35L15 33L14 33L14 35L13 35L13 36L11 36L11 37L13 37L13 38L12 38L12 40L15 40L15 41L11 41L11 42L14 42L14 45L13 45L13 46L14 46L14 45L15 45L15 41L16 41L16 42L17 42L17 43L18 43L18 44L16 44L16 45L18 45L18 48L21 48L21 46L22 46L22 48L23 48L23 49L24 49L24 48L23 48L23 47L24 47L24 46L26 46L26 47L27 47L27 48L29 48L29 49L31 49L31 50L27 50L27 49L25 49L25 50L24 50L24 51L23 51L23 50L22 50L22 49L21 49L21 50L20 50L20 49L19 49L19 52L20 52L20 53L21 53L21 54L22 54L22 56L19 56L19 55L20 55L20 54L19 54L19 55L17 55L17 56L16 56L16 59L17 59L17 61L18 61L18 62L19 62L19 63L20 63L20 62L22 62L22 63L24 63L24 60L23 60L23 59L22 59L22 56L23 56L23 57L24 57L24 55L27 55L27 57L29 57L29 55L27 55L27 54L26 54L26 53L28 53L28 54L29 54L29 52L32 52L32 51L33 51L33 50L32 50L32 49L33 49L33 48L32 48L32 47L30 47L30 48L29 48L29 46L26 46L26 45L24 45L24 44L27 44L27 42L28 42L28 43L29 43L29 45L30 45L30 46L31 46L31 45L30 45L30 44L32 44L32 45L33 45L33 46L34 46L34 47L35 47L35 48L37 48L37 47L38 47L38 45L37 45L37 44L39 44L39 47L40 47L40 48L42 48L42 49L44 49L44 48L43 48L43 45L44 45L44 43L45 43L45 42L44 42L44 43L43 43L43 42L42 42L42 41L41 41L41 42L40 42L40 40L41 40L41 39L40 39L40 38L41 38L41 37L43 37L43 38L44 38L44 39L45 39L45 38L46 38L46 37L47 37L47 36L48 36L48 38L51 38L51 39L53 39L53 42L52 42L52 43L53 43L53 44L54 44L54 43L53 43L53 42L54 42L54 41L55 41L55 43L56 43L56 44L58 44L58 45L59 45L59 44L58 44L58 43L56 43L56 41L57 41L57 42L60 42L60 40L58 40L58 41L57 41L57 40L54 40L54 39L53 39L53 38L51 38L51 35L50 35L50 34L49 34L49 33L48 33L48 31L50 31L50 30L49 30L49 29L50 29L50 27L51 27L51 24L54 24L54 25L55 25L55 24L54 24L54 23L52 23L52 22L55 22L55 21L56 21L56 19L54 19L54 17L53 17L53 18L50 18L50 20L49 20L49 22L50 22L50 23L48 23L48 22L47 22L47 23L46 23L46 25L44 25L44 23L43 23L43 22L44 22L44 21L43 21L43 20L42 20L42 19L43 19L43 18L44 18L44 20L45 20L45 21L46 21L46 19L47 19L47 21L48 21L48 18L47 18L47 17L48 17L48 15L50 15L50 14L51 14L51 16L49 16L49 17L52 17L52 16L55 16L55 15L54 15L54 14L53 14L53 13L52 13L52 14L51 14L51 13L50 13L50 12L54 12L54 11L50 11L50 12L49 12L49 10L50 10L50 9L48 9L48 8ZM11 11L11 12L12 12L12 11ZM11 13L11 14L12 14L12 13ZM18 13L18 14L20 14L20 15L21 15L21 14L20 14L20 13ZM33 13L33 14L35 14L35 13ZM46 13L46 14L45 14L45 17L44 17L44 18L45 18L45 17L46 17L46 16L47 16L47 15L48 15L48 14L49 14L49 13ZM6 15L6 16L7 16L7 15ZM11 15L11 17L10 17L10 20L11 20L11 21L10 21L10 22L8 22L8 21L9 21L9 18L8 18L8 21L7 21L7 22L8 22L8 24L9 24L9 26L8 26L8 25L7 25L7 24L5 24L5 25L7 25L7 26L8 26L8 27L10 27L10 25L11 25L11 28L13 28L13 29L11 29L11 30L13 30L13 29L14 29L14 30L16 30L16 31L17 31L17 30L18 30L18 31L19 31L19 32L20 32L20 31L21 31L21 30L20 30L20 31L19 31L19 30L18 30L18 29L16 29L16 28L18 28L18 27L21 27L21 25L20 25L20 24L19 24L19 23L20 23L20 19L19 19L19 18L17 18L17 21L16 21L16 17L14 17L14 19L15 19L15 20L14 20L14 21L13 21L13 20L11 20L11 18L13 18L13 17L12 17L12 15ZM18 16L18 17L19 17L19 16ZM28 16L28 17L30 17L30 18L31 18L31 19L32 19L32 18L31 18L31 16ZM66 16L66 17L67 17L67 18L68 18L68 17L67 17L67 16ZM23 17L23 18L24 18L24 17ZM33 18L33 19L34 19L34 21L33 21L33 20L32 20L32 23L31 23L31 20L30 20L30 21L27 21L27 24L29 24L29 25L28 25L28 26L27 26L27 27L28 27L28 26L29 26L29 27L31 27L31 25L32 25L32 27L33 27L33 28L29 28L29 29L30 29L30 30L29 30L29 31L28 31L28 30L27 30L27 29L26 29L26 30L27 30L27 31L25 31L25 28L26 28L26 27L25 27L25 28L24 28L24 30L23 30L23 31L25 31L25 32L24 32L24 33L25 33L25 34L26 34L26 37L24 37L24 35L22 35L22 36L21 36L21 35L20 35L20 36L19 36L19 37L16 37L16 38L15 38L15 36L14 36L14 39L18 39L18 40L16 40L16 41L19 41L19 44L18 44L18 45L19 45L19 44L20 44L20 46L19 46L19 47L20 47L20 46L21 46L21 44L24 44L24 43L25 43L25 42L21 42L21 41L23 41L23 39L24 39L24 41L25 41L25 39L24 39L24 38L27 38L27 39L28 39L28 40L27 40L27 41L26 41L26 42L27 42L27 41L29 41L29 43L33 43L33 44L35 44L35 45L34 45L34 46L36 46L36 47L37 47L37 45L36 45L36 44L37 44L37 42L38 42L38 43L39 43L39 44L40 44L40 45L41 45L41 47L42 47L42 45L43 45L43 43L40 43L40 42L39 42L39 41L38 41L38 40L39 40L39 38L40 38L40 37L41 37L41 35L38 35L38 37L37 37L37 38L36 38L36 37L30 37L30 38L32 38L32 40L33 40L33 41L34 41L34 42L35 42L35 39L38 39L38 40L37 40L37 41L36 41L36 43L33 43L33 42L32 42L32 41L30 41L30 40L31 40L31 39L29 39L29 35L28 35L28 32L30 32L30 33L32 33L32 32L30 32L30 30L32 30L32 31L33 31L33 30L32 30L32 29L33 29L33 28L34 28L34 30L35 30L35 27L38 27L38 29L37 29L37 28L36 28L36 30L37 30L37 31L35 31L35 32L37 32L37 33L38 33L38 34L40 34L40 33L39 33L39 32L40 32L40 31L41 31L41 33L42 33L42 32L43 32L43 35L45 35L45 34L46 34L46 35L49 35L49 37L50 37L50 35L49 35L49 34L48 34L48 33L47 33L47 32L45 32L45 29L49 29L49 27L50 27L50 25L49 25L49 26L48 26L48 24L47 24L47 25L46 25L46 26L45 26L45 29L43 29L43 28L44 28L44 25L42 25L42 24L43 24L43 23L42 23L42 24L37 24L37 23L38 23L38 22L35 22L35 18ZM18 19L18 21L17 21L17 23L19 23L19 19ZM51 20L51 21L50 21L50 22L52 22L52 20ZM53 20L53 21L54 21L54 20ZM61 20L61 21L62 21L62 22L63 22L63 23L64 23L64 22L63 22L63 21L62 21L62 20ZM12 21L12 22L13 22L13 21ZM14 21L14 22L15 22L15 21ZM39 21L39 22L40 22L40 21ZM10 22L10 23L9 23L9 24L10 24L10 23L11 23L11 25L12 25L12 27L13 27L13 28L14 28L14 29L15 29L15 28L16 28L16 27L17 27L17 26L14 26L14 27L13 27L13 24L15 24L15 23L13 23L13 24L12 24L12 23L11 23L11 22ZM28 22L28 23L29 23L29 24L30 24L30 25L31 25L31 24L30 24L30 22ZM33 22L33 25L34 25L34 27L35 27L35 25L34 25L34 24L35 24L35 22ZM16 24L16 25L17 25L17 24ZM36 24L36 25L37 25L37 26L40 26L40 25L37 25L37 24ZM68 24L68 26L69 26L69 24ZM52 25L52 27L53 27L53 25ZM41 26L41 27L42 27L42 28L41 28L41 29L39 29L39 31L40 31L40 30L41 30L41 29L42 29L42 28L43 28L43 27L42 27L42 26ZM46 26L46 27L47 27L47 26ZM14 27L14 28L15 28L15 27ZM59 27L59 28L60 28L60 27ZM51 28L51 29L52 29L52 28ZM5 29L5 30L6 30L6 31L7 31L7 30L6 30L6 29ZM56 30L56 31L57 31L57 30ZM9 31L9 32L10 32L10 31ZM37 31L37 32L38 32L38 31ZM52 31L52 32L53 32L53 31ZM26 32L26 33L27 33L27 32ZM5 33L5 36L8 36L8 33ZM33 33L33 36L36 36L36 33ZM44 33L44 34L45 34L45 33ZM61 33L61 36L64 36L64 33ZM6 34L6 35L7 35L7 34ZM34 34L34 35L35 35L35 34ZM62 34L62 35L63 35L63 34ZM27 35L27 36L28 36L28 35ZM30 35L30 36L31 36L31 35ZM53 35L53 36L54 36L54 37L56 37L56 36L54 36L54 35ZM0 36L0 37L2 37L2 36ZM44 36L44 38L45 38L45 36ZM19 37L19 38L20 38L20 39L19 39L19 40L20 40L20 41L21 41L21 37ZM27 37L27 38L28 38L28 37ZM38 37L38 38L39 38L39 37ZM10 38L10 39L8 39L8 41L9 41L9 40L10 40L10 39L11 39L11 38ZM22 38L22 39L23 39L23 38ZM33 38L33 40L34 40L34 39L35 39L35 38ZM49 40L49 41L50 41L50 40ZM51 40L51 41L52 41L52 40ZM63 40L63 41L64 41L64 40ZM20 42L20 43L21 43L21 42ZM49 42L49 43L48 43L48 44L49 44L49 43L50 43L50 42ZM61 42L61 43L62 43L62 44L63 44L63 43L62 43L62 42ZM41 44L41 45L42 45L42 44ZM2 45L2 47L3 47L3 48L4 48L4 47L3 47L3 45ZM46 45L46 46L47 46L47 45ZM56 45L56 46L57 46L57 45ZM52 46L52 47L53 47L53 46ZM64 47L64 48L65 48L65 47ZM31 48L31 49L32 49L32 48ZM59 49L59 51L60 51L60 49ZM6 50L6 51L7 51L7 50ZM25 50L25 51L26 51L26 50ZM34 50L34 51L35 51L35 50ZM10 51L10 52L11 52L11 51ZM21 51L21 52L22 52L22 53L23 53L23 52L22 52L22 51ZM28 51L28 52L29 52L29 51ZM45 51L45 53L46 53L46 51ZM2 52L2 53L3 53L3 54L5 54L5 53L3 53L3 52ZM24 52L24 54L25 54L25 52ZM63 52L63 53L62 53L62 54L60 54L60 53L59 53L59 54L60 54L60 55L62 55L62 56L64 56L64 55L65 55L65 54L63 54L63 53L66 53L66 54L68 54L68 52ZM10 53L10 54L11 54L11 53ZM36 53L36 54L35 54L35 55L37 55L37 53ZM38 53L38 54L39 54L39 53ZM38 55L38 56L39 56L39 55ZM66 55L66 56L67 56L67 55ZM18 56L18 57L17 57L17 59L18 59L18 60L19 60L19 58L18 58L18 57L19 57L19 56ZM45 56L45 57L46 57L46 56ZM50 56L50 57L49 57L49 58L50 58L50 59L51 59L51 62L52 62L52 63L55 63L55 64L52 64L52 66L51 66L51 67L52 67L52 68L53 68L53 67L54 67L54 68L55 68L55 67L58 67L58 66L57 66L57 65L55 65L55 64L56 64L56 62L55 62L55 61L53 61L53 60L52 60L52 57L51 57L51 56ZM59 56L59 57L61 57L61 58L59 58L59 59L58 59L58 60L59 60L59 61L58 61L58 62L57 62L57 64L60 64L60 59L61 59L61 58L63 58L63 59L62 59L62 60L65 60L65 59L66 59L66 61L65 61L65 63L67 63L67 61L68 61L68 59L67 59L67 58L68 58L68 57L61 57L61 56ZM1 57L1 58L0 58L0 61L1 61L1 58L2 58L2 59L3 59L3 57ZM20 57L20 58L21 58L21 57ZM34 57L34 58L33 58L33 60L35 60L35 57ZM37 57L37 58L38 58L38 57ZM31 58L31 60L32 60L32 58ZM54 58L54 60L55 60L55 58ZM64 58L64 59L65 59L65 58ZM21 59L21 60L22 60L22 61L23 61L23 60L22 60L22 59ZM56 59L56 61L57 61L57 59ZM3 60L3 61L5 61L5 60ZM6 60L6 61L7 61L7 60ZM8 60L8 62L12 62L12 60L11 60L11 61L10 61L10 60ZM25 60L25 61L26 61L26 64L27 64L27 62L28 62L28 63L29 63L29 62L28 62L28 61L26 61L26 60ZM33 61L33 64L36 64L36 61ZM52 61L52 62L53 62L53 61ZM61 61L61 64L64 64L64 61ZM34 62L34 63L35 63L35 62ZM62 62L62 63L63 63L63 62ZM11 63L11 65L10 65L10 66L11 66L11 65L12 65L12 63ZM49 64L49 65L50 65L50 64ZM67 64L67 65L68 65L68 64ZM8 65L8 69L10 69L10 68L12 68L12 67L9 67L9 65ZM46 65L46 68L45 68L45 69L48 69L48 68L49 68L49 66L48 66L48 68L47 68L47 65ZM53 65L53 66L52 66L52 67L53 67L53 66L54 66L54 65ZM60 65L60 66L61 66L61 65ZM65 65L65 66L66 66L66 65ZM39 66L39 67L40 67L40 68L41 68L41 67L40 67L40 66ZM44 66L44 67L45 67L45 66ZM68 67L68 68L69 68L69 67ZM0 0L0 7L7 7L7 0ZM1 1L1 6L6 6L6 1ZM2 2L2 5L5 5L5 2ZM62 0L62 7L69 7L69 0ZM63 1L63 6L68 6L68 1ZM64 2L64 5L67 5L67 2ZM0 62L0 69L7 69L7 62ZM1 63L1 68L6 68L6 63ZM2 64L2 67L5 67L5 64Z" fill="#000000"/></g></g></svg>
