<?xml version="1.0" encoding="UTF-8"?>
<svg xmlns="http://www.w3.org/2000/svg" version="1.1" width="300" height="300" viewBox="0 0 300 300"><rect x="0" y="0" width="300" height="300" fill="#ffffff"/><g transform="scale(4.615)"><g transform="translate(0,0)"><path fill-rule="evenodd" d="M8 0L8 2L9 2L9 3L10 3L10 4L12 4L12 3L13 3L13 4L14 4L14 5L17 5L17 4L14 4L14 3L13 3L13 2L12 2L12 0ZM13 0L13 1L15 1L15 3L16 3L16 2L17 2L17 0ZM19 0L19 2L18 2L18 3L20 3L20 2L21 2L21 1L22 1L22 0ZM24 0L24 2L22 2L22 3L23 3L23 4L22 4L22 5L21 5L21 4L20 4L20 7L19 7L19 4L18 4L18 9L17 9L17 10L18 10L18 11L19 11L19 12L18 12L18 15L17 15L17 11L14 11L14 8L17 8L17 6L16 6L16 7L15 7L15 6L14 6L14 7L13 7L13 5L12 5L12 7L11 7L11 6L10 6L10 7L11 7L11 8L10 8L10 10L9 10L9 12L5 12L5 11L8 11L8 9L9 9L9 4L8 4L8 9L7 9L7 8L5 8L5 9L4 9L4 10L3 10L3 8L0 8L0 9L1 9L1 11L0 11L0 14L1 14L1 15L2 15L2 14L1 14L1 11L2 11L2 12L3 12L3 13L4 13L4 14L5 14L5 15L7 15L7 16L4 16L4 15L3 15L3 16L2 16L2 17L1 17L1 18L0 18L0 19L1 19L1 23L2 23L2 24L5 24L5 23L3 23L3 22L5 22L5 20L4 20L4 19L7 19L7 18L8 18L8 17L10 17L10 18L9 18L9 19L8 19L8 20L11 20L11 22L10 22L10 24L6 24L6 25L8 25L8 26L9 26L9 27L8 27L8 29L10 29L10 27L11 27L11 29L12 29L12 28L13 28L13 27L14 27L14 28L16 28L16 29L17 29L17 28L18 28L18 30L16 30L16 31L18 31L18 34L17 34L17 35L16 35L16 33L17 33L17 32L16 32L16 33L14 33L14 32L13 32L13 31L14 31L14 30L15 30L15 29L14 29L14 30L13 30L13 31L12 31L12 32L13 32L13 33L12 33L12 34L13 34L13 35L14 35L14 34L15 34L15 35L16 35L16 36L15 36L15 37L12 37L12 35L11 35L11 34L10 34L10 32L11 32L11 30L4 30L4 32L2 32L2 31L3 31L3 29L5 29L5 27L7 27L7 26L5 26L5 25L2 25L2 26L1 26L1 24L0 24L0 26L1 26L1 27L2 27L2 26L5 26L5 27L3 27L3 28L0 28L0 36L1 36L1 37L0 37L0 39L1 39L1 40L0 40L0 41L1 41L1 42L0 42L0 43L1 43L1 44L0 44L0 46L1 46L1 48L0 48L0 50L1 50L1 51L0 51L0 52L1 52L1 53L0 53L0 54L1 54L1 53L2 53L2 52L5 52L5 53L4 53L4 54L2 54L2 55L3 55L3 56L1 56L1 55L0 55L0 56L1 56L1 57L3 57L3 56L4 56L4 57L5 57L5 56L4 56L4 54L5 54L5 55L7 55L7 56L6 56L6 57L7 57L7 56L8 56L8 58L9 58L9 55L10 55L10 56L13 56L13 58L11 58L11 60L10 60L10 61L11 61L11 60L12 60L12 61L13 61L13 62L14 62L14 64L11 64L11 65L14 65L14 64L15 64L15 62L14 62L14 61L15 61L15 59L17 59L17 60L16 60L16 61L17 61L17 62L16 62L16 63L17 63L17 65L19 65L19 60L20 60L20 61L21 61L21 62L20 62L20 63L21 63L21 64L22 64L22 65L23 65L23 64L22 64L22 63L23 63L23 60L20 60L20 59L19 59L19 58L20 58L20 57L21 57L21 59L22 59L22 57L23 57L23 59L24 59L24 61L25 61L25 59L26 59L26 63L25 63L25 62L24 62L24 63L25 63L25 64L26 64L26 65L28 65L28 63L29 63L29 62L30 62L30 65L31 65L31 62L30 62L30 61L32 61L32 63L33 63L33 64L32 64L32 65L34 65L34 63L35 63L35 64L36 64L36 65L37 65L37 63L36 63L36 62L35 62L35 60L36 60L36 61L37 61L37 62L38 62L38 65L39 65L39 63L41 63L41 64L40 64L40 65L41 65L41 64L42 64L42 61L43 61L43 62L44 62L44 63L43 63L43 64L44 64L44 65L45 65L45 64L46 64L46 65L47 65L47 64L48 64L48 65L51 65L51 64L50 64L50 63L49 63L49 56L48 56L48 58L47 58L47 59L46 59L46 61L48 61L48 62L47 62L47 63L45 63L45 58L42 58L42 56L44 56L44 57L45 57L45 56L46 56L46 57L47 57L47 56L46 56L46 55L49 55L49 54L46 54L46 53L47 53L47 52L48 52L48 53L50 53L50 52L48 52L48 51L49 51L49 50L50 50L50 51L51 51L51 52L52 52L52 53L51 53L51 54L52 54L52 53L53 53L53 56L52 56L52 55L50 55L50 57L51 57L51 56L52 56L52 57L53 57L53 59L52 59L52 61L53 61L53 62L52 62L52 63L53 63L53 64L52 64L52 65L53 65L53 64L54 64L54 57L53 57L53 56L54 56L54 55L55 55L55 57L56 57L56 59L55 59L55 65L56 65L56 64L58 64L58 63L59 63L59 62L58 62L58 61L60 61L60 63L61 63L61 64L60 64L60 65L63 65L63 64L62 64L62 63L61 63L61 62L63 62L63 63L65 63L65 62L63 62L63 61L65 61L65 58L64 58L64 59L63 59L63 60L62 60L62 59L61 59L61 57L63 57L63 56L62 56L62 55L63 55L63 54L62 54L62 51L63 51L63 50L60 50L60 49L64 49L64 51L65 51L65 48L64 48L64 47L65 47L65 46L64 46L64 44L65 44L65 42L64 42L64 44L62 44L62 42L60 42L60 41L61 41L61 40L60 40L60 39L61 39L61 38L62 38L62 37L61 37L61 36L62 36L62 34L63 34L63 33L62 33L62 31L63 31L63 30L62 30L62 29L63 29L63 28L64 28L64 33L65 33L65 28L64 28L64 27L65 27L65 26L64 26L64 23L65 23L65 22L64 22L64 21L63 21L63 20L64 20L64 19L65 19L65 16L64 16L64 15L65 15L65 12L64 12L64 11L65 11L65 8L63 8L63 9L64 9L64 11L63 11L63 10L62 10L62 9L61 9L61 8L57 8L57 6L56 6L56 8L52 8L52 7L53 7L53 5L52 5L52 3L53 3L53 4L56 4L56 5L57 5L57 4L56 4L56 3L57 3L57 1L56 1L56 0L55 0L55 1L56 1L56 3L55 3L55 2L53 2L53 1L54 1L54 0L52 0L52 1L51 1L51 0L50 0L50 1L51 1L51 2L52 2L52 3L50 3L50 2L49 2L49 1L48 1L48 0L46 0L46 1L45 1L45 0L42 0L42 1L40 1L40 0L38 0L38 2L39 2L39 3L38 3L38 5L35 5L35 4L36 4L36 1L35 1L35 0L34 0L34 1L35 1L35 3L34 3L34 2L32 2L32 1L33 1L33 0L32 0L32 1L31 1L31 0L30 0L30 1L31 1L31 2L29 2L29 3L28 3L28 1L29 1L29 0L27 0L27 2L26 2L26 3L27 3L27 4L26 4L26 5L25 5L25 3L24 3L24 2L25 2L25 0ZM9 1L9 2L10 2L10 1ZM39 1L39 2L40 2L40 1ZM42 1L42 3L40 3L40 4L41 4L41 7L40 7L40 6L39 6L39 5L38 5L38 6L37 6L37 7L38 7L38 8L39 8L39 9L38 9L38 10L39 10L39 11L37 11L37 9L36 9L36 8L35 8L35 9L34 9L34 11L33 11L33 9L32 9L32 11L33 11L33 12L34 12L34 14L33 14L33 13L32 13L32 12L31 12L31 10L30 10L30 9L29 9L29 7L30 7L30 6L29 6L29 7L28 7L28 5L27 5L27 7L26 7L26 6L25 6L25 5L24 5L24 4L23 4L23 5L22 5L22 6L21 6L21 7L20 7L20 8L19 8L19 9L18 9L18 10L19 10L19 9L20 9L20 10L21 10L21 11L20 11L20 12L21 12L21 13L22 13L22 15L21 15L21 14L20 14L20 15L21 15L21 16L20 16L20 19L19 19L19 17L18 17L18 16L19 16L19 15L18 15L18 16L17 16L17 15L15 15L15 14L14 14L14 13L15 13L15 12L14 12L14 13L13 13L13 14L14 14L14 16L15 16L15 17L14 17L14 18L12 18L12 17L13 17L13 15L11 15L11 14L12 14L12 13L11 13L11 10L10 10L10 12L9 12L9 13L8 13L8 14L7 14L7 13L6 13L6 14L7 14L7 15L10 15L10 17L11 17L11 18L10 18L10 19L11 19L11 20L12 20L12 21L13 21L13 20L14 20L14 21L15 21L15 20L17 20L17 22L16 22L16 23L17 23L17 24L16 24L16 26L17 26L17 27L16 27L16 28L17 28L17 27L18 27L18 28L19 28L19 30L18 30L18 31L19 31L19 33L20 33L20 34L19 34L19 35L18 35L18 36L19 36L19 35L20 35L20 34L21 34L21 33L22 33L22 34L23 34L23 33L24 33L24 35L22 35L22 36L23 36L23 37L22 37L22 38L21 38L21 36L20 36L20 38L19 38L19 37L18 37L18 38L19 38L19 39L18 39L18 40L17 40L17 39L16 39L16 38L17 38L17 37L16 37L16 38L15 38L15 39L14 39L14 38L11 38L11 37L10 37L10 39L9 39L9 40L7 40L7 39L8 39L8 38L9 38L9 37L8 37L8 36L7 36L7 35L6 35L6 36L7 36L7 37L4 37L4 38L3 38L3 37L1 37L1 39L4 39L4 40L1 40L1 41L2 41L2 44L1 44L1 45L2 45L2 47L3 47L3 46L4 46L4 45L5 45L5 48L4 48L4 49L3 49L3 51L4 51L4 49L6 49L6 50L7 50L7 51L6 51L6 52L7 52L7 53L5 53L5 54L7 54L7 55L9 55L9 54L7 54L7 53L8 53L8 52L9 52L9 53L10 53L10 54L12 54L12 55L13 55L13 56L15 56L15 55L16 55L16 58L17 58L17 59L18 59L18 58L17 58L17 56L18 56L18 54L19 54L19 55L20 55L20 56L19 56L19 57L20 57L20 56L21 56L21 57L22 57L22 55L23 55L23 57L24 57L24 59L25 59L25 58L26 58L26 59L27 59L27 58L26 58L26 56L30 56L30 54L31 54L31 55L32 55L32 56L35 56L35 58L37 58L37 59L36 59L36 60L37 60L37 61L38 61L38 62L39 62L39 61L40 61L40 60L41 60L41 61L42 61L42 60L43 60L43 61L44 61L44 59L40 59L40 58L41 58L41 57L40 57L40 56L41 56L41 55L42 55L42 54L43 54L43 53L44 53L44 54L45 54L45 53L46 53L46 52L47 52L47 50L48 50L48 47L47 47L47 48L46 48L46 52L45 52L45 53L44 53L44 51L41 51L41 49L40 49L40 48L39 48L39 49L38 49L38 46L39 46L39 45L40 45L40 47L41 47L41 45L40 45L40 44L39 44L39 42L40 42L40 39L41 39L41 40L42 40L42 42L44 42L44 39L45 39L45 40L46 40L46 42L45 42L45 43L43 43L43 44L42 44L42 47L43 47L43 46L44 46L44 47L46 47L46 46L47 46L47 45L46 45L46 44L47 44L47 43L49 43L49 44L51 44L51 43L50 43L50 42L52 42L52 43L53 43L53 44L54 44L54 46L53 46L53 45L50 45L50 47L51 47L51 48L49 48L49 49L50 49L50 50L51 50L51 51L54 51L54 52L53 52L53 53L54 53L54 54L55 54L55 55L56 55L56 54L57 54L57 55L58 55L58 56L59 56L59 55L58 55L58 52L59 52L59 53L60 53L60 55L61 55L61 53L60 53L60 52L61 52L61 51L60 51L60 50L59 50L59 49L60 49L60 48L61 48L61 47L60 47L60 48L58 48L58 45L59 45L59 44L60 44L60 42L59 42L59 43L58 43L58 41L59 41L59 39L60 39L60 38L61 38L61 37L60 37L60 38L59 38L59 39L58 39L58 37L59 37L59 36L58 36L58 35L57 35L57 36L56 36L56 35L55 35L55 36L56 36L56 37L54 37L54 34L56 34L56 33L55 33L55 32L54 32L54 31L52 31L52 32L51 32L51 33L50 33L50 34L51 34L51 37L50 37L50 36L49 36L49 37L48 37L48 36L47 36L47 35L46 35L46 36L45 36L45 37L44 37L44 36L43 36L43 37L42 37L42 35L41 35L41 37L40 37L40 34L39 34L39 33L40 33L40 32L41 32L41 33L42 33L42 34L44 34L44 32L45 32L45 31L48 31L48 32L47 32L47 33L46 33L46 34L48 34L48 35L49 35L49 34L48 34L48 32L49 32L49 31L51 31L51 30L53 30L53 29L52 29L52 28L53 28L53 27L54 27L54 30L55 30L55 29L56 29L56 30L57 30L57 29L58 29L58 30L59 30L59 29L60 29L60 28L61 28L61 25L60 25L60 24L58 24L58 22L59 22L59 21L58 21L58 22L57 22L57 21L56 21L56 22L57 22L57 23L56 23L56 24L58 24L58 27L57 27L57 25L56 25L56 26L55 26L55 25L54 25L54 24L55 24L55 23L54 23L54 22L55 22L55 21L54 21L54 22L53 22L53 21L52 21L52 20L53 20L53 18L52 18L52 15L51 15L51 13L52 13L52 14L53 14L53 13L54 13L54 14L55 14L55 17L54 17L54 20L55 20L55 18L57 18L57 19L58 19L58 18L59 18L59 19L62 19L62 20L63 20L63 19L64 19L64 16L63 16L63 15L64 15L64 14L62 14L62 12L63 12L63 11L62 11L62 12L61 12L61 14L60 14L60 11L61 11L61 9L60 9L60 11L58 11L58 10L59 10L59 9L58 9L58 10L57 10L57 8L56 8L56 10L57 10L57 11L56 11L56 12L57 12L57 11L58 11L58 14L60 14L60 16L59 16L59 15L57 15L57 13L56 13L56 14L55 14L55 9L53 9L53 11L54 11L54 12L53 12L53 13L52 13L52 12L51 12L51 11L50 11L50 12L49 12L49 11L48 11L48 12L47 12L47 13L46 13L46 19L45 19L45 17L44 17L44 16L45 16L45 15L44 15L44 14L45 14L45 13L44 13L44 12L45 12L45 11L47 11L47 10L48 10L48 8L50 8L50 6L51 6L51 7L52 7L52 6L51 6L51 5L50 5L50 3L49 3L49 2L48 2L48 1L46 1L46 2L45 2L45 1L44 1L44 4L43 4L43 1ZM11 2L11 3L12 3L12 2ZM46 2L46 3L47 3L47 4L46 4L46 5L47 5L47 6L46 6L46 7L45 7L45 4L44 4L44 5L43 5L43 4L42 4L42 7L43 7L43 8L40 8L40 9L39 9L39 10L40 10L40 13L39 13L39 14L38 14L38 13L37 13L37 11L36 11L36 13L35 13L35 14L34 14L34 17L33 17L33 16L32 16L32 15L33 15L33 14L32 14L32 13L31 13L31 12L30 12L30 10L28 10L28 7L27 7L27 8L26 8L26 7L25 7L25 6L24 6L24 8L26 8L26 9L25 9L25 10L24 10L24 9L23 9L23 6L22 6L22 9L21 9L21 10L22 10L22 13L23 13L23 16L22 16L22 17L23 17L23 18L24 18L24 17L25 17L25 18L26 18L26 17L27 17L27 19L26 19L26 20L27 20L27 19L28 19L28 21L27 21L27 22L25 22L25 24L26 24L26 25L27 25L27 27L28 27L28 24L27 24L27 22L28 22L28 23L29 23L29 24L30 24L30 25L29 25L29 28L26 28L26 27L25 27L25 26L24 26L24 25L23 25L23 24L22 24L22 25L23 25L23 26L21 26L21 27L20 27L20 29L21 29L21 30L20 30L20 31L21 31L21 30L22 30L22 29L23 29L23 28L24 28L24 29L25 29L25 30L24 30L24 31L25 31L25 32L24 32L24 33L25 33L25 35L24 35L24 36L25 36L25 38L24 38L24 41L23 41L23 38L22 38L22 39L21 39L21 40L22 40L22 41L23 41L23 42L22 42L22 43L23 43L23 44L22 44L22 47L23 47L23 48L22 48L22 49L21 49L21 47L20 47L20 46L21 46L21 44L19 44L19 43L18 43L18 41L19 41L19 42L20 42L20 40L18 40L18 41L17 41L17 44L15 44L15 48L13 48L13 47L12 47L12 45L11 45L11 44L14 44L14 43L16 43L16 42L14 42L14 41L15 41L15 40L14 40L14 41L13 41L13 42L12 42L12 40L13 40L13 39L12 39L12 40L11 40L11 41L10 41L10 40L9 40L9 41L7 41L7 40L6 40L6 39L7 39L7 38L8 38L8 37L7 37L7 38L6 38L6 39L5 39L5 40L4 40L4 41L3 41L3 44L2 44L2 45L4 45L4 43L5 43L5 45L7 45L7 46L6 46L6 47L9 47L9 48L10 48L10 46L11 46L11 47L12 47L12 48L11 48L11 49L12 49L12 50L11 50L11 51L10 51L10 49L9 49L9 51L10 51L10 52L11 52L11 53L14 53L14 55L15 55L15 54L16 54L16 55L17 55L17 54L16 54L16 51L17 51L17 50L16 50L16 49L17 49L17 47L18 47L18 50L19 50L19 51L18 51L18 52L19 52L19 51L20 51L20 53L19 53L19 54L20 54L20 55L22 55L22 54L20 54L20 53L21 53L21 51L20 51L20 49L21 49L21 50L22 50L22 49L23 49L23 50L24 50L24 53L23 53L23 54L24 54L24 57L25 57L25 55L26 55L26 54L24 54L24 53L25 53L25 50L24 50L24 49L25 49L25 47L26 47L26 49L27 49L27 50L28 50L28 49L31 49L31 48L28 48L28 49L27 49L27 47L26 47L26 46L25 46L25 44L26 44L26 45L27 45L27 46L28 46L28 45L30 45L30 46L29 46L29 47L30 47L30 46L31 46L31 47L32 47L32 48L33 48L33 47L32 47L32 44L33 44L33 46L34 46L34 49L33 49L33 50L32 50L32 51L31 51L31 50L30 50L30 51L28 51L28 53L27 53L27 55L28 55L28 53L29 53L29 52L30 52L30 51L31 51L31 52L32 52L32 53L31 53L31 54L32 54L32 53L33 53L33 52L34 52L34 51L35 51L35 50L36 50L36 51L38 51L38 49L37 49L37 46L38 46L38 45L39 45L39 44L38 44L38 41L37 41L37 40L38 40L38 37L39 37L39 38L40 38L40 37L39 37L39 34L38 34L38 33L39 33L39 32L40 32L40 31L41 31L41 32L42 32L42 33L43 33L43 32L42 32L42 31L44 31L44 30L46 30L46 29L47 29L47 28L48 28L48 29L49 29L49 30L48 30L48 31L49 31L49 30L50 30L50 29L51 29L51 28L52 28L52 27L53 27L53 26L54 26L54 27L55 27L55 28L56 28L56 29L57 29L57 27L55 27L55 26L54 26L54 25L53 25L53 24L54 24L54 23L52 23L52 25L51 25L51 26L50 26L50 20L48 20L48 18L49 18L49 19L50 19L50 15L48 15L48 13L49 13L49 14L50 14L50 13L51 13L51 12L50 12L50 13L49 13L49 12L48 12L48 13L47 13L47 15L48 15L48 18L47 18L47 20L48 20L48 21L47 21L47 24L46 24L46 23L45 23L45 22L44 22L44 21L46 21L46 20L44 20L44 21L43 21L43 22L44 22L44 23L45 23L45 24L44 24L44 25L43 25L43 26L46 26L46 27L44 27L44 29L43 29L43 30L42 30L42 28L43 28L43 27L42 27L42 28L40 28L40 29L39 29L39 31L38 31L38 33L37 33L37 31L36 31L36 33L35 33L35 30L34 30L34 25L33 25L33 24L35 24L35 23L36 23L36 21L37 21L37 24L36 24L36 26L38 26L38 28L36 28L36 29L37 29L37 30L38 30L38 28L39 28L39 27L40 27L40 25L42 25L42 24L40 24L40 21L41 21L41 20L40 20L40 21L39 21L39 24L40 24L40 25L39 25L39 26L38 26L38 20L39 20L39 19L40 19L40 18L41 18L41 16L42 16L42 17L43 17L43 18L44 18L44 17L43 17L43 16L42 16L42 15L43 15L43 14L42 14L42 12L43 12L43 10L44 10L44 9L45 9L45 10L46 10L46 9L47 9L47 8L48 8L48 7L49 7L49 6L50 6L50 5L49 5L49 4L48 4L48 2ZM29 3L29 4L30 4L30 3ZM32 3L32 4L34 4L34 3ZM31 5L31 8L34 8L34 5ZM48 5L48 6L47 6L47 7L46 7L46 8L45 8L45 9L46 9L46 8L47 8L47 7L48 7L48 6L49 6L49 5ZM54 5L54 7L55 7L55 5ZM32 6L32 7L33 7L33 6ZM35 6L35 7L36 7L36 6ZM38 6L38 7L39 7L39 6ZM43 6L43 7L44 7L44 6ZM12 7L12 8L11 8L11 9L12 9L12 8L13 8L13 7ZM51 8L51 9L50 9L50 10L52 10L52 8ZM5 9L5 10L7 10L7 9ZM15 9L15 10L16 10L16 9ZM22 9L22 10L23 10L23 9ZM26 9L26 10L27 10L27 9ZM35 9L35 10L36 10L36 9ZM40 9L40 10L41 10L41 11L42 11L42 10L43 10L43 9L42 9L42 10L41 10L41 9ZM2 10L2 11L3 11L3 12L4 12L4 13L5 13L5 12L4 12L4 11L3 11L3 10ZM12 10L12 12L13 12L13 10ZM23 11L23 12L24 12L24 11ZM34 11L34 12L35 12L35 11ZM25 12L25 14L24 14L24 15L25 15L25 14L27 14L27 13L26 13L26 12ZM9 13L9 14L11 14L11 13ZM29 13L29 14L28 14L28 15L30 15L30 17L31 17L31 18L32 18L32 19L33 19L33 17L32 17L32 16L31 16L31 15L32 15L32 14L31 14L31 15L30 15L30 13ZM36 13L36 15L35 15L35 17L34 17L34 18L35 18L35 19L34 19L34 23L35 23L35 21L36 21L36 20L38 20L38 19L39 19L39 18L40 18L40 15L41 15L41 13L40 13L40 15L39 15L39 16L38 16L38 15L37 15L37 13ZM61 14L61 16L60 16L60 18L61 18L61 17L62 17L62 19L63 19L63 17L62 17L62 14ZM26 15L26 16L25 16L25 17L26 17L26 16L27 16L27 17L28 17L28 19L29 19L29 21L28 21L28 22L29 22L29 21L30 21L30 22L32 22L32 23L30 23L30 24L31 24L31 25L32 25L32 23L33 23L33 22L32 22L32 20L31 20L31 19L29 19L29 17L28 17L28 16L27 16L27 15ZM53 15L53 16L54 16L54 15ZM3 16L3 17L2 17L2 18L4 18L4 16ZM7 16L7 17L6 17L6 18L7 18L7 17L8 17L8 16ZM11 16L11 17L12 17L12 16ZM16 16L16 18L14 18L14 20L15 20L15 19L16 19L16 18L18 18L18 17L17 17L17 16ZM23 16L23 17L24 17L24 16ZM36 16L36 17L37 17L37 18L36 18L36 19L37 19L37 18L38 18L38 17L37 17L37 16ZM57 17L57 18L58 18L58 17ZM11 18L11 19L12 19L12 18ZM51 18L51 19L52 19L52 18ZM18 19L18 20L19 20L19 19ZM20 19L20 21L19 21L19 23L18 23L18 22L17 22L17 23L18 23L18 24L17 24L17 26L18 26L18 27L19 27L19 24L21 24L21 23L20 23L20 21L21 21L21 19ZM22 19L22 20L24 20L24 19ZM6 20L6 21L7 21L7 20ZM2 21L2 22L3 22L3 21ZM23 21L23 22L22 22L22 23L24 23L24 21ZM48 21L48 24L47 24L47 25L46 25L46 26L47 26L47 25L48 25L48 28L49 28L49 25L48 25L48 24L49 24L49 21ZM60 21L60 23L61 23L61 21ZM6 22L6 23L7 23L7 22ZM8 22L8 23L9 23L9 22ZM11 22L11 23L12 23L12 24L10 24L10 25L9 25L9 26L10 26L10 25L12 25L12 26L14 26L14 27L15 27L15 25L14 25L14 24L15 24L15 23L14 23L14 22ZM63 22L63 23L62 23L62 28L63 28L63 27L64 27L64 26L63 26L63 23L64 23L64 22ZM52 25L52 26L53 26L53 25ZM59 25L59 26L60 26L60 25ZM23 26L23 27L24 27L24 28L25 28L25 27L24 27L24 26ZM30 26L30 29L31 29L31 30L32 30L32 28L33 28L33 26ZM50 27L50 28L51 28L51 27ZM58 27L58 29L59 29L59 27ZM6 28L6 29L7 29L7 28ZM21 28L21 29L22 29L22 28ZM27 29L27 30L26 30L26 32L25 32L25 33L26 33L26 32L27 32L27 30L29 30L29 31L28 31L28 34L27 34L27 35L26 35L26 36L27 36L27 37L26 37L26 38L25 38L25 39L26 39L26 40L25 40L25 41L24 41L24 42L23 42L23 43L24 43L24 44L25 44L25 43L24 43L24 42L26 42L26 40L27 40L27 43L28 43L28 42L29 42L29 43L30 43L30 41L31 41L31 39L32 39L32 40L33 40L33 41L32 41L32 42L31 42L31 44L30 44L30 45L31 45L31 44L32 44L32 43L33 43L33 44L34 44L34 46L35 46L35 49L34 49L34 50L33 50L33 51L34 51L34 50L35 50L35 49L36 49L36 43L37 43L37 41L36 41L36 40L37 40L37 37L36 37L36 35L37 35L37 36L38 36L38 35L37 35L37 33L36 33L36 35L34 35L34 37L33 37L33 35L31 35L31 36L32 36L32 38L30 38L30 33L29 33L29 32L30 32L30 30L29 30L29 29ZM1 30L1 31L2 31L2 30ZM5 31L5 34L8 34L8 31ZM9 31L9 32L10 32L10 31ZM22 31L22 33L23 33L23 31ZM31 31L31 34L34 34L34 31ZM57 31L57 34L60 34L60 31ZM6 32L6 33L7 33L7 32ZM32 32L32 33L33 33L33 32ZM52 32L52 33L51 33L51 34L52 34L52 33L53 33L53 34L54 34L54 32ZM58 32L58 33L59 33L59 32ZM61 33L61 34L62 34L62 33ZM2 34L2 36L4 36L4 34ZM28 34L28 36L29 36L29 34ZM64 34L64 35L65 35L65 34ZM9 35L9 36L10 36L10 35ZM60 35L60 36L61 36L61 35ZM46 36L46 37L45 37L45 38L46 38L46 39L47 39L47 40L48 40L48 42L50 42L50 41L49 41L49 39L50 39L50 40L51 40L51 41L52 41L52 42L54 42L54 44L55 44L55 46L54 46L54 49L53 49L53 46L52 46L52 50L54 50L54 51L55 51L55 52L54 52L54 53L55 53L55 54L56 54L56 53L57 53L57 52L58 52L58 51L59 51L59 50L58 50L58 51L57 51L57 52L56 52L56 50L57 50L57 47L56 47L56 45L58 45L58 44L57 44L57 42L56 42L56 44L55 44L55 42L54 42L54 39L55 39L55 41L58 41L58 40L57 40L57 37L58 37L58 36L57 36L57 37L56 37L56 38L54 38L54 37L53 37L53 36L52 36L52 37L53 37L53 38L51 38L51 39L50 39L50 37L49 37L49 39L48 39L48 37L47 37L47 36ZM63 36L63 38L64 38L64 39L63 39L63 41L65 41L65 37L64 37L64 36ZM34 37L34 40L35 40L35 38L36 38L36 37ZM41 37L41 38L42 38L42 39L44 39L44 38L42 38L42 37ZM46 37L46 38L47 38L47 37ZM26 38L26 39L27 39L27 40L28 40L28 39L30 39L30 38ZM32 38L32 39L33 39L33 38ZM53 38L53 39L54 39L54 38ZM5 40L5 42L7 42L7 41L6 41L6 40ZM9 41L9 42L10 42L10 41ZM34 41L34 43L35 43L35 41ZM11 42L11 43L12 43L12 42ZM13 42L13 43L14 43L14 42ZM46 42L46 43L47 43L47 42ZM6 43L6 44L7 44L7 45L8 45L8 46L10 46L10 45L8 45L8 44L7 44L7 43ZM17 44L17 45L18 45L18 44ZM44 44L44 45L45 45L45 46L46 46L46 45L45 45L45 44ZM13 45L13 46L14 46L14 45ZM48 45L48 46L49 46L49 45ZM60 45L60 46L62 46L62 45ZM16 46L16 47L17 47L17 46ZM18 46L18 47L19 47L19 46ZM24 46L24 47L25 47L25 46ZM63 46L63 47L62 47L62 48L63 48L63 47L64 47L64 46ZM55 47L55 48L56 48L56 47ZM1 48L1 50L2 50L2 48ZM6 48L6 49L7 49L7 48ZM15 48L15 49L14 49L14 50L12 50L12 52L14 52L14 50L15 50L15 49L16 49L16 48ZM23 48L23 49L24 49L24 48ZM42 48L42 50L43 50L43 48ZM39 49L39 51L40 51L40 49ZM44 49L44 50L45 50L45 49ZM54 49L54 50L56 50L56 49ZM22 51L22 52L23 52L23 51ZM26 51L26 52L27 52L27 51ZM36 52L36 53L35 53L35 54L34 54L34 55L35 55L35 54L36 54L36 57L37 57L37 55L39 55L39 54L38 54L38 52ZM40 52L40 54L42 54L42 53L43 53L43 52ZM63 52L63 53L64 53L64 57L65 57L65 53L64 53L64 52ZM44 55L44 56L45 56L45 55ZM14 57L14 58L13 58L13 59L12 59L12 60L14 60L14 58L15 58L15 57ZM28 57L28 58L29 58L29 59L28 59L28 60L27 60L27 63L26 63L26 64L27 64L27 63L28 63L28 62L29 62L29 61L30 61L30 57ZM31 57L31 60L34 60L34 57ZM57 57L57 60L60 60L60 57ZM32 58L32 59L33 59L33 58ZM58 58L58 59L59 59L59 58ZM8 59L8 60L9 60L9 59ZM38 59L38 61L39 61L39 59ZM61 60L61 61L62 61L62 60ZM33 61L33 63L34 63L34 61ZM8 62L8 65L9 65L9 62ZM10 62L10 63L12 63L12 62ZM57 62L57 63L58 63L58 62ZM44 63L44 64L45 64L45 63ZM48 63L48 64L49 64L49 63ZM64 64L64 65L65 65L65 64ZM0 0L0 7L7 7L7 0ZM1 1L1 6L6 6L6 1ZM2 2L2 5L5 5L5 2ZM58 0L58 7L65 7L65 0ZM59 1L59 6L64 6L64 1ZM60 2L60 5L63 5L63 2ZM0 58L0 65L7 65L7 58ZM1 59L1 64L6 64L6 59ZM2 60L2 63L5 63L5 60Z" fill="#000000"/></g></g></svg>
