<?xml version="1.0" encoding="UTF-8"?>
<svg xmlns="http://www.w3.org/2000/svg" version="1.1" width="300" height="300" viewBox="0 0 300 300"><rect x="0" y="0" width="300" height="300" fill="#ffffff"/><g transform="scale(4.348)"><g transform="translate(0,0)"><path fill-rule="evenodd" d="M10 0L10 1L11 1L11 2L10 2L10 4L9 4L9 3L8 3L8 4L9 4L9 5L8 5L8 7L9 7L9 8L6 8L6 9L5 9L5 8L0 8L0 12L1 12L1 13L0 13L0 15L2 15L2 16L0 16L0 18L2 18L2 21L3 21L3 22L4 22L4 23L3 23L3 24L2 24L2 22L0 22L0 24L2 24L2 25L0 25L0 26L2 26L2 27L1 27L1 28L0 28L0 32L1 32L1 33L0 33L0 34L1 34L1 37L2 37L2 36L4 36L4 38L2 38L2 39L4 39L4 43L3 43L3 42L2 42L2 41L1 41L1 42L2 42L2 43L3 43L3 45L2 45L2 44L0 44L0 47L1 47L1 48L2 48L2 46L3 46L3 49L2 49L2 50L1 50L1 49L0 49L0 50L1 50L1 51L0 51L0 53L1 53L1 52L2 52L2 53L4 53L4 54L5 54L5 56L4 56L4 59L7 59L7 60L6 60L6 61L7 61L7 60L8 60L8 59L9 59L9 58L11 58L11 60L10 60L10 61L8 61L8 63L10 63L10 65L9 65L9 64L8 64L8 69L11 69L11 67L12 67L12 65L11 65L11 64L12 64L12 63L13 63L13 62L14 62L14 63L15 63L15 64L16 64L16 65L15 65L15 66L14 66L14 67L13 67L13 68L12 68L12 69L14 69L14 67L16 67L16 69L17 69L17 68L18 68L18 69L19 69L19 68L18 68L18 67L16 67L16 65L17 65L17 66L19 66L19 67L20 67L20 66L19 66L19 65L20 65L20 64L23 64L23 66L25 66L25 67L28 67L28 68L27 68L27 69L32 69L32 68L33 68L33 69L34 69L34 68L33 68L33 65L35 65L35 66L34 66L34 67L35 67L35 68L36 68L36 69L38 69L38 68L37 68L37 67L39 67L39 68L40 68L40 67L41 67L41 66L44 66L44 68L41 68L41 69L44 69L44 68L47 68L47 69L49 69L49 66L50 66L50 67L51 67L51 68L50 68L50 69L51 69L51 68L52 68L52 66L54 66L54 69L56 69L56 68L57 68L57 69L59 69L59 68L57 68L57 65L51 65L51 64L50 64L50 65L49 65L49 64L47 64L47 65L49 65L49 66L46 66L46 64L45 64L45 63L47 63L47 62L50 62L50 61L49 61L49 60L47 60L47 62L45 62L45 61L46 61L46 60L45 60L45 61L44 61L44 59L43 59L43 57L44 57L44 56L46 56L46 57L47 57L47 59L49 59L49 58L50 58L50 55L49 55L49 54L50 54L50 53L51 53L51 52L50 52L50 51L51 51L51 50L49 50L49 47L50 47L50 48L52 48L52 45L51 45L51 46L50 46L50 44L51 44L51 43L53 43L53 49L52 49L52 50L53 50L53 51L55 51L55 52L53 52L53 53L54 53L54 54L52 54L52 55L51 55L51 56L53 56L53 55L54 55L54 54L55 54L55 57L51 57L51 58L53 58L53 59L52 59L52 60L53 60L53 61L54 61L54 62L53 62L53 63L54 63L54 64L58 64L58 63L59 63L59 62L58 62L58 61L59 61L59 60L60 60L60 65L59 65L59 66L58 66L58 67L61 67L61 68L62 68L62 66L61 66L61 65L65 65L65 64L68 64L68 65L69 65L69 64L68 64L68 62L69 62L69 59L68 59L68 58L69 58L69 57L68 57L68 58L66 58L66 57L65 57L65 58L63 58L63 60L62 60L62 57L61 57L61 56L63 56L63 57L64 57L64 56L68 56L68 54L69 54L69 53L67 53L67 54L66 54L66 52L68 52L68 50L69 50L69 47L68 47L68 46L67 46L67 43L68 43L68 44L69 44L69 43L68 43L68 42L69 42L69 41L68 41L68 40L69 40L69 39L68 39L68 36L69 36L69 35L68 35L68 34L69 34L69 33L68 33L68 32L69 32L69 31L68 31L68 30L69 30L69 27L68 27L68 25L69 25L69 24L68 24L68 22L69 22L69 21L68 21L68 18L69 18L69 17L68 17L68 13L69 13L69 11L68 11L68 10L66 10L66 8L65 8L65 9L64 9L64 8L63 8L63 10L65 10L65 12L66 12L66 13L67 13L67 14L65 14L65 13L63 13L63 12L64 12L64 11L61 11L61 10L62 10L62 8L61 8L61 9L60 9L60 8L59 8L59 4L56 4L56 3L54 3L54 2L53 2L53 1L55 1L55 2L56 2L56 1L55 1L55 0L53 0L53 1L51 1L51 2L50 2L50 0L49 0L49 1L48 1L48 0L47 0L47 1L46 1L46 2L48 2L48 3L47 3L47 4L49 4L49 5L50 5L50 4L51 4L51 2L53 2L53 3L54 3L54 4L52 4L52 5L51 5L51 6L50 6L50 7L51 7L51 6L52 6L52 8L51 8L51 11L50 11L50 9L49 9L49 6L48 6L48 7L47 7L47 6L46 6L46 5L44 5L44 3L45 3L45 4L46 4L46 3L45 3L45 2L44 2L44 3L43 3L43 0L41 0L41 1L38 1L38 0L35 0L35 1L34 1L34 0L33 0L33 1L32 1L32 0L30 0L30 1L32 1L32 2L35 2L35 4L32 4L32 3L29 3L29 0L28 0L28 1L27 1L27 2L26 2L26 1L25 1L25 0L21 0L21 1L22 1L22 2L24 2L24 3L25 3L25 4L22 4L22 3L19 3L19 2L20 2L20 1L19 1L19 0L14 0L14 1L13 1L13 0ZM44 0L44 1L45 1L45 0ZM57 0L57 3L59 3L59 2L58 2L58 1L61 1L61 0ZM8 1L8 2L9 2L9 1ZM41 1L41 2L37 2L37 3L38 3L38 4L37 4L37 5L38 5L38 6L37 6L37 9L38 9L38 11L37 11L37 10L36 10L36 9L34 9L34 10L36 10L36 11L33 11L33 9L32 9L32 8L31 8L31 7L32 7L32 5L30 5L30 6L29 6L29 8L26 8L26 10L27 10L27 11L28 11L28 12L26 12L26 11L25 11L25 9L24 9L24 8L23 8L23 7L24 7L24 6L25 6L25 7L26 7L26 6L27 6L27 7L28 7L28 6L27 6L27 5L29 5L29 3L28 3L28 2L27 2L27 3L26 3L26 2L25 2L25 3L26 3L26 4L25 4L25 5L24 5L24 6L23 6L23 5L22 5L22 4L20 4L20 6L19 6L19 7L18 7L18 5L19 5L19 4L18 4L18 3L17 3L17 2L16 2L16 3L15 3L15 4L14 4L14 3L13 3L13 2L11 2L11 4L10 4L10 5L11 5L11 4L12 4L12 3L13 3L13 4L14 4L14 5L13 5L13 11L11 11L11 13L4 13L4 12L7 12L7 11L6 11L6 10L8 10L8 9L6 9L6 10L5 10L5 11L4 11L4 12L3 12L3 14L2 14L2 15L3 15L3 18L4 18L4 19L3 19L3 20L4 20L4 19L5 19L5 18L7 18L7 19L6 19L6 20L5 20L5 21L6 21L6 22L5 22L5 23L4 23L4 24L3 24L3 25L4 25L4 28L3 28L3 29L5 29L5 28L7 28L7 29L6 29L6 30L7 30L7 31L4 31L4 32L8 32L8 31L9 31L9 30L10 30L10 29L11 29L11 31L10 31L10 32L9 32L9 33L10 33L10 34L9 34L9 35L10 35L10 34L11 34L11 33L10 33L10 32L11 32L11 31L12 31L12 32L13 32L13 33L12 33L12 35L15 35L15 38L16 38L16 39L17 39L17 40L14 40L14 39L13 39L13 38L14 38L14 37L13 37L13 36L12 36L12 37L13 37L13 38L12 38L12 39L11 39L11 38L8 38L8 39L6 39L6 38L7 38L7 37L6 37L6 38L5 38L5 42L7 42L7 43L6 43L6 44L5 44L5 45L3 45L3 46L4 46L4 51L3 51L3 50L2 50L2 52L4 52L4 53L5 53L5 54L7 54L7 55L6 55L6 56L7 56L7 57L6 57L6 58L8 58L8 56L10 56L10 57L12 57L12 56L13 56L13 57L15 57L15 58L16 58L16 57L17 57L17 58L18 58L18 57L17 57L17 56L19 56L19 57L20 57L20 58L19 58L19 59L20 59L20 60L21 60L21 61L18 61L18 60L16 60L16 59L15 59L15 61L14 61L14 62L17 62L17 63L16 63L16 64L17 64L17 65L18 65L18 64L17 64L17 63L18 63L18 62L20 62L20 63L23 63L23 64L24 64L24 63L25 63L25 64L26 64L26 63L25 63L25 62L26 62L26 61L27 61L27 62L29 62L29 64L28 64L28 63L27 63L27 64L28 64L28 65L25 65L25 66L28 66L28 65L29 65L29 64L31 64L31 63L32 63L32 57L31 57L31 59L29 59L29 57L30 57L30 56L26 56L26 57L27 57L27 58L26 58L26 59L25 59L25 60L24 60L24 59L23 59L23 58L24 58L24 57L22 57L22 56L21 56L21 57L20 57L20 55L22 55L22 54L21 54L21 53L24 53L24 51L26 51L26 53L25 53L25 54L23 54L23 56L24 56L24 55L27 55L27 54L28 54L28 55L30 55L30 53L27 53L27 51L28 51L28 52L29 52L29 50L30 50L30 52L32 52L32 53L33 53L33 54L31 54L31 56L33 56L33 57L35 57L35 56L33 56L33 55L38 55L38 58L37 58L37 61L38 61L38 62L37 62L37 64L38 64L38 65L37 65L37 66L36 66L36 67L37 67L37 66L39 66L39 67L40 67L40 66L41 66L41 64L44 64L44 66L45 66L45 67L46 67L46 66L45 66L45 64L44 64L44 63L42 63L42 62L41 62L41 60L42 60L42 61L43 61L43 62L44 62L44 61L43 61L43 60L42 60L42 58L41 58L41 59L40 59L40 62L39 62L39 61L38 61L38 58L39 58L39 57L41 57L41 56L39 56L39 55L40 55L40 54L36 54L36 53L35 53L35 51L36 51L36 50L37 50L37 51L39 51L39 50L41 50L41 51L40 51L40 52L39 52L39 53L41 53L41 51L42 51L42 50L41 50L41 49L42 49L42 48L43 48L43 47L44 47L44 49L43 49L43 50L44 50L44 49L45 49L45 52L44 52L44 51L43 51L43 52L44 52L44 53L43 53L43 54L42 54L42 55L43 55L43 56L42 56L42 57L43 57L43 56L44 56L44 53L45 53L45 54L46 54L46 56L47 56L47 53L45 53L45 52L46 52L46 51L47 51L47 52L48 52L48 51L49 51L49 50L48 50L48 49L47 49L47 48L48 48L48 47L49 47L49 46L47 46L47 43L46 43L46 42L49 42L49 43L48 43L48 44L49 44L49 43L50 43L50 42L51 42L51 41L52 41L52 42L53 42L53 41L54 41L54 40L53 40L53 37L54 37L54 36L53 36L53 34L52 34L52 33L55 33L55 34L54 34L54 35L55 35L55 36L56 36L56 37L55 37L55 38L56 38L56 39L58 39L58 42L57 42L57 40L55 40L55 41L56 41L56 42L55 42L55 43L56 43L56 46L55 46L55 48L54 48L54 49L55 49L55 51L57 51L57 52L56 52L56 53L55 53L55 54L58 54L58 57L57 57L57 55L56 55L56 57L55 57L55 58L56 58L56 61L55 61L55 60L54 60L54 61L55 61L55 62L54 62L54 63L58 63L58 62L56 62L56 61L58 61L58 60L57 60L57 58L58 58L58 59L60 59L60 60L61 60L61 59L60 59L60 58L61 58L61 57L60 57L60 56L59 56L59 55L65 55L65 51L67 51L67 49L68 49L68 47L67 47L67 48L63 48L63 49L62 49L62 47L63 47L63 46L64 46L64 47L66 47L66 44L65 44L65 43L67 43L67 42L68 42L68 41L67 41L67 40L65 40L65 41L64 41L64 40L63 40L63 39L65 39L65 37L66 37L66 36L65 36L65 37L64 37L64 38L62 38L62 37L60 37L60 35L59 35L59 37L58 37L58 34L60 34L60 32L61 32L61 31L63 31L63 32L64 32L64 31L67 31L67 32L66 32L66 33L67 33L67 34L68 34L68 33L67 33L67 32L68 32L68 31L67 31L67 28L68 28L68 27L67 27L67 28L66 28L66 27L65 27L65 26L64 26L64 28L63 28L63 25L66 25L66 26L67 26L67 25L68 25L68 24L65 24L65 22L68 22L68 21L65 21L65 18L63 18L63 17L66 17L66 16L65 16L65 14L63 14L63 13L62 13L62 12L61 12L61 11L60 11L60 12L59 12L59 13L57 13L57 12L56 12L56 11L58 11L58 10L60 10L60 9L59 9L59 8L58 8L58 5L55 5L55 7L56 7L56 6L57 6L57 8L55 8L55 10L52 10L52 12L50 12L50 11L49 11L49 10L47 10L47 7L46 7L46 6L45 6L45 7L44 7L44 5L43 5L43 7L42 7L42 6L41 6L41 8L39 8L39 9L38 9L38 6L39 6L39 7L40 7L40 6L39 6L39 5L40 5L40 4L41 4L41 2L42 2L42 1ZM16 3L16 4L17 4L17 5L15 5L15 6L14 6L14 7L15 7L15 8L14 8L14 10L15 10L15 8L16 8L16 10L17 10L17 11L15 11L15 12L14 12L14 13L15 13L15 14L17 14L17 15L15 15L15 16L14 16L14 15L13 15L13 14L12 14L12 16L11 16L11 15L10 15L10 14L9 14L9 15L8 15L8 14L5 14L5 15L4 15L4 14L3 14L3 15L4 15L4 17L7 17L7 18L8 18L8 20L6 20L6 21L7 21L7 22L6 22L6 23L7 23L7 24L4 24L4 25L5 25L5 26L6 26L6 27L8 27L8 29L10 29L10 28L11 28L11 26L10 26L10 25L12 25L12 27L13 27L13 28L14 28L14 26L13 26L13 25L16 25L16 26L15 26L15 27L16 27L16 28L17 28L17 30L15 30L15 29L14 29L14 31L13 31L13 30L12 30L12 31L13 31L13 32L15 32L15 33L17 33L17 34L15 34L15 35L16 35L16 36L17 36L17 39L19 39L19 40L17 40L17 41L18 41L18 42L17 42L17 44L16 44L16 43L15 43L15 42L16 42L16 41L15 41L15 42L14 42L14 40L13 40L13 39L12 39L12 40L11 40L11 42L10 42L10 41L8 41L8 40L9 40L9 39L8 39L8 40L6 40L6 41L7 41L7 42L10 42L10 44L9 44L9 43L7 43L7 44L6 44L6 45L7 45L7 44L8 44L8 45L9 45L9 47L10 47L10 48L9 48L9 49L7 49L7 48L8 48L8 47L7 47L7 46L6 46L6 47L5 47L5 48L6 48L6 49L5 49L5 50L6 50L6 51L7 51L7 52L6 52L6 53L7 53L7 54L8 54L8 52L9 52L9 53L10 53L10 54L11 54L11 53L10 53L10 52L12 52L12 53L13 53L13 54L15 54L15 55L14 55L14 56L15 56L15 57L16 57L16 54L15 54L15 52L16 52L16 53L19 53L19 54L20 54L20 53L19 53L19 52L23 52L23 50L26 50L26 51L27 51L27 50L28 50L28 49L27 49L27 50L26 50L26 49L25 49L25 48L26 48L26 47L25 47L25 48L23 48L23 50L21 50L21 49L18 49L18 48L17 48L17 47L18 47L18 46L19 46L19 48L20 48L20 45L19 45L19 44L23 44L23 45L21 45L21 47L23 47L23 46L25 46L25 45L26 45L26 44L27 44L27 43L28 43L28 42L27 42L27 41L28 41L28 40L29 40L29 41L30 41L30 42L31 42L31 41L30 41L30 40L29 40L29 39L30 39L30 38L31 38L31 36L32 36L32 40L34 40L34 39L36 39L36 40L35 40L35 41L36 41L36 40L37 40L37 39L38 39L38 38L37 38L37 39L36 39L36 37L38 37L38 36L37 36L37 35L38 35L38 32L43 32L43 33L40 33L40 35L41 35L41 36L42 36L42 37L41 37L41 38L42 38L42 39L45 39L45 40L47 40L47 41L49 41L49 42L50 42L50 41L49 41L49 39L48 39L48 38L50 38L50 37L51 37L51 38L52 38L52 37L51 37L51 36L45 36L45 33L44 33L44 32L46 32L46 33L49 33L49 34L48 34L48 35L49 35L49 34L50 34L50 35L51 35L51 34L50 34L50 31L49 31L49 30L50 30L50 29L51 29L51 31L52 31L52 32L51 32L51 33L52 33L52 32L55 32L55 33L56 33L56 30L55 30L55 29L56 29L56 28L55 28L55 29L51 29L51 28L52 28L52 27L51 27L51 26L50 26L50 25L51 25L51 23L54 23L54 24L57 24L57 25L56 25L56 26L58 26L58 28L57 28L57 29L59 29L59 30L62 30L62 29L63 29L63 30L64 30L64 29L63 29L63 28L62 28L62 25L63 25L63 24L62 24L62 25L61 25L61 23L60 23L60 22L62 22L62 23L64 23L64 22L65 22L65 21L64 21L64 22L62 22L62 21L63 21L63 20L64 20L64 19L63 19L63 18L62 18L62 16L64 16L64 15L62 15L62 13L59 13L59 14L60 14L60 15L59 15L59 16L60 16L60 17L59 17L59 18L60 18L60 19L61 19L61 18L62 18L62 20L60 20L60 21L59 21L59 20L57 20L57 19L58 19L58 18L57 18L57 17L58 17L58 16L57 16L57 15L58 15L58 14L57 14L57 13L56 13L56 12L55 12L55 11L53 11L53 12L55 12L55 13L53 13L53 14L55 14L55 13L56 13L56 16L55 16L55 17L53 17L53 18L54 18L54 19L55 19L55 20L53 20L53 19L52 19L52 20L51 20L51 19L50 19L50 16L51 16L51 14L52 14L52 13L51 13L51 14L49 14L49 13L50 13L50 12L47 12L47 11L46 11L46 12L47 12L47 14L49 14L49 15L44 15L44 14L43 14L43 13L44 13L44 11L43 11L43 13L42 13L42 14L41 14L41 12L42 12L42 10L45 10L45 9L46 9L46 7L45 7L45 9L44 9L44 8L43 8L43 9L41 9L41 12L40 12L40 10L39 10L39 11L38 11L38 13L36 13L36 12L33 12L33 14L32 14L32 15L30 15L30 16L29 16L29 14L27 14L27 13L26 13L26 12L24 12L24 11L23 11L23 10L24 10L24 9L23 9L23 10L22 10L22 11L21 11L21 10L20 10L20 9L22 9L22 8L21 8L21 6L22 6L22 7L23 7L23 6L22 6L22 5L21 5L21 6L20 6L20 9L19 9L19 8L18 8L18 9L17 9L17 5L18 5L18 4L17 4L17 3ZM27 3L27 4L28 4L28 3ZM42 3L42 4L43 4L43 3ZM49 3L49 4L50 4L50 3ZM60 3L60 5L61 5L61 3ZM25 5L25 6L26 6L26 5ZM33 5L33 8L36 8L36 5ZM52 5L52 6L53 6L53 7L54 7L54 6L53 6L53 5ZM9 6L9 7L10 7L10 6ZM11 6L11 7L12 7L12 6ZM15 6L15 7L16 7L16 6ZM30 6L30 7L31 7L31 6ZM34 6L34 7L35 7L35 6ZM60 6L60 7L61 7L61 6ZM10 8L10 9L9 9L9 12L10 12L10 10L11 10L11 8ZM29 8L29 9L30 9L30 10L31 10L31 11L32 11L32 10L31 10L31 9L30 9L30 8ZM52 8L52 9L54 9L54 8ZM57 8L57 10L58 10L58 8ZM67 8L67 9L68 9L68 8ZM1 9L1 11L3 11L3 10L4 10L4 9L3 9L3 10L2 10L2 9ZM18 9L18 10L19 10L19 11L18 11L18 12L19 12L19 13L20 13L20 16L19 16L19 14L18 14L18 13L17 13L17 12L16 12L16 13L17 13L17 14L18 14L18 15L17 15L17 16L18 16L18 17L14 17L14 18L12 18L12 17L11 17L11 16L9 16L9 17L8 17L8 18L10 18L10 19L9 19L9 20L13 20L13 22L14 22L14 23L9 23L9 22L8 22L8 23L9 23L9 24L12 24L12 25L13 25L13 24L14 24L14 23L16 23L16 21L15 21L15 20L17 20L17 19L18 19L18 17L21 17L21 18L22 18L22 20L19 20L19 21L17 21L17 23L18 23L18 22L19 22L19 23L20 23L20 26L18 26L18 28L19 28L19 29L20 29L20 33L19 33L19 34L18 34L18 35L19 35L19 36L20 36L20 38L21 38L21 37L24 37L24 36L21 36L21 34L22 34L22 33L23 33L23 32L26 32L26 31L25 31L25 30L28 30L28 31L27 31L27 32L28 32L28 33L25 33L25 34L26 34L26 35L27 35L27 36L26 36L26 37L27 37L27 38L22 38L22 39L21 39L21 40L22 40L22 41L20 41L20 42L19 42L19 43L18 43L18 44L19 44L19 43L21 43L21 42L23 42L23 43L24 43L24 44L25 44L25 42L26 42L26 41L27 41L27 40L28 40L28 39L29 39L29 38L30 38L30 37L29 37L29 36L28 36L28 35L27 35L27 34L28 34L28 33L29 33L29 35L30 35L30 36L31 36L31 35L30 35L30 33L29 33L29 30L30 30L30 29L27 29L27 28L30 28L30 27L33 27L33 28L34 28L34 29L33 29L33 30L31 30L31 31L32 31L32 32L31 32L31 34L32 34L32 32L34 32L34 31L33 31L33 30L34 30L34 29L35 29L35 30L36 30L36 28L35 28L35 27L36 27L36 26L34 26L34 25L36 25L36 24L37 24L37 23L38 23L38 25L37 25L37 26L41 26L41 25L42 25L42 24L39 24L39 22L37 22L37 23L34 23L34 22L35 22L35 21L36 21L36 20L35 20L35 19L36 19L36 18L37 18L37 19L39 19L39 18L41 18L41 17L42 17L42 16L44 16L44 17L43 17L43 20L42 20L42 19L40 19L40 20L39 20L39 21L41 21L41 20L42 20L42 21L43 21L43 20L44 20L44 22L41 22L41 23L43 23L43 24L44 24L44 25L43 25L43 26L46 26L46 27L47 27L47 28L49 28L49 29L48 29L48 30L49 30L49 29L50 29L50 28L51 28L51 27L47 27L47 25L48 25L48 24L49 24L49 25L50 25L50 23L51 23L51 22L53 22L53 20L52 20L52 21L51 21L51 20L50 20L50 19L49 19L49 17L47 17L47 16L46 16L46 18L45 18L45 16L44 16L44 15L43 15L43 14L42 14L42 15L40 15L40 14L39 14L39 13L40 13L40 12L39 12L39 13L38 13L38 14L37 14L37 15L36 15L36 16L37 16L37 17L36 17L36 18L35 18L35 13L34 13L34 14L33 14L33 15L32 15L32 16L31 16L31 17L29 17L29 16L27 16L27 14L26 14L26 13L25 13L25 15L24 15L24 17L23 17L23 13L24 13L24 12L20 12L20 10L19 10L19 9ZM67 11L67 13L68 13L68 11ZM29 12L29 13L30 13L30 14L31 14L31 13L32 13L32 12ZM6 15L6 16L8 16L8 15ZM21 15L21 16L22 16L22 15ZM25 15L25 16L26 16L26 15ZM33 15L33 16L32 16L32 17L31 17L31 18L30 18L30 19L29 19L29 20L28 20L28 19L26 19L26 17L24 17L24 18L25 18L25 19L23 19L23 22L22 22L22 23L21 23L21 24L22 24L22 25L21 25L21 28L20 28L20 29L21 29L21 30L22 30L22 29L21 29L21 28L23 28L23 27L24 27L24 28L25 28L25 29L23 29L23 30L25 30L25 29L26 29L26 27L27 27L27 26L28 26L28 25L29 25L29 26L32 26L32 25L33 25L33 24L32 24L32 22L33 22L33 21L35 21L35 20L33 20L33 21L32 21L32 22L30 22L30 21L31 21L31 20L32 20L32 19L31 19L31 18L33 18L33 19L34 19L34 18L33 18L33 16L34 16L34 15ZM38 15L38 17L37 17L37 18L38 18L38 17L39 17L39 16L40 16L40 15ZM49 15L49 16L50 16L50 15ZM60 15L60 16L62 16L62 15ZM56 16L56 17L55 17L55 18L56 18L56 19L57 19L57 18L56 18L56 17L57 17L57 16ZM10 17L10 18L11 18L11 19L12 19L12 18L11 18L11 17ZM27 17L27 18L28 18L28 17ZM15 18L15 19L14 19L14 20L15 20L15 19L17 19L17 18ZM19 18L19 19L20 19L20 18ZM44 18L44 19L45 19L45 18ZM46 18L46 19L48 19L48 20L46 20L46 21L48 21L48 22L47 22L47 24L46 24L46 22L44 22L44 23L45 23L45 24L46 24L46 25L47 25L47 24L48 24L48 22L49 22L49 23L50 23L50 21L49 21L49 19L48 19L48 18ZM25 19L25 20L26 20L26 21L25 21L25 22L24 22L24 23L26 23L26 24L25 24L25 25L28 25L28 23L30 23L30 22L29 22L29 21L30 21L30 20L29 20L29 21L27 21L27 20L26 20L26 19ZM37 20L37 21L38 21L38 20ZM55 20L55 21L57 21L57 22L55 22L55 23L57 23L57 22L59 22L59 21L57 21L57 20ZM10 21L10 22L12 22L12 21ZM19 21L19 22L20 22L20 21ZM26 21L26 23L27 23L27 21ZM58 23L58 26L59 26L59 29L61 29L61 27L60 27L60 26L59 26L59 25L60 25L60 23ZM7 24L7 25L6 25L6 26L7 26L7 25L8 25L8 24ZM16 24L16 25L17 25L17 24ZM29 24L29 25L30 25L30 24ZM31 24L31 25L32 25L32 24ZM22 25L22 27L23 27L23 26L24 26L24 25ZM53 25L53 26L54 26L54 27L53 27L53 28L54 28L54 27L55 27L55 25ZM33 26L33 27L34 27L34 26ZM9 27L9 28L10 28L10 27ZM38 27L38 28L37 28L37 29L38 29L38 30L37 30L37 31L36 31L36 32L37 32L37 31L39 31L39 30L40 30L40 31L43 31L43 32L44 32L44 29L45 29L45 30L46 30L46 32L48 32L48 31L47 31L47 29L45 29L45 28L44 28L44 27L43 27L43 28L44 28L44 29L43 29L43 30L42 30L42 27ZM1 28L1 29L2 29L2 28ZM31 28L31 29L32 29L32 28ZM38 28L38 29L40 29L40 28ZM65 28L65 29L66 29L66 28ZM17 30L17 31L16 31L16 32L17 32L17 33L18 33L18 32L17 32L17 31L18 31L18 30ZM52 30L52 31L53 31L53 30ZM22 31L22 32L21 32L21 33L22 33L22 32L23 32L23 31ZM58 31L58 32L57 32L57 34L55 34L55 35L56 35L56 36L57 36L57 34L58 34L58 33L59 33L59 31ZM2 32L2 33L3 33L3 34L2 34L2 35L3 35L3 34L4 34L4 33L3 33L3 32ZM5 33L5 36L8 36L8 33ZM33 33L33 36L36 36L36 33ZM43 33L43 34L41 34L41 35L42 35L42 36L44 36L44 37L45 37L45 38L47 38L47 37L45 37L45 36L44 36L44 33ZM61 33L61 36L64 36L64 33ZM6 34L6 35L7 35L7 34ZM19 34L19 35L20 35L20 34ZM34 34L34 35L35 35L35 34ZM62 34L62 35L63 35L63 34ZM65 34L65 35L66 35L66 34ZM67 35L67 36L68 36L68 35ZM9 36L9 37L10 37L10 36ZM27 36L27 37L28 37L28 36ZM34 37L34 38L35 38L35 37ZM56 37L56 38L57 38L57 37ZM27 38L27 39L28 39L28 38ZM60 38L60 39L59 39L59 40L60 40L60 41L59 41L59 42L58 42L58 43L59 43L59 42L60 42L60 43L61 43L61 44L60 44L60 45L59 45L59 46L56 46L56 48L55 48L55 49L56 49L56 50L57 50L57 51L58 51L58 50L57 50L57 49L56 49L56 48L58 48L58 49L59 49L59 52L60 52L60 50L61 50L61 52L62 52L62 53L61 53L61 54L62 54L62 53L64 53L64 51L65 51L65 50L66 50L66 49L65 49L65 50L63 50L63 51L62 51L62 49L61 49L61 48L60 48L60 47L62 47L62 46L63 46L63 45L65 45L65 44L64 44L64 43L61 43L61 40L62 40L62 38ZM23 39L23 40L24 40L24 41L23 41L23 42L24 42L24 41L26 41L26 40L24 40L24 39ZM39 39L39 40L38 40L38 41L37 41L37 43L36 43L36 42L34 42L34 41L32 41L32 43L31 43L31 44L28 44L28 45L30 45L30 46L28 46L28 47L30 47L30 48L29 48L29 49L30 49L30 50L33 50L33 51L32 51L32 52L33 52L33 53L34 53L34 52L33 52L33 51L34 51L34 50L33 50L33 49L31 49L31 44L32 44L32 45L33 45L33 46L32 46L32 47L33 47L33 46L34 46L34 47L35 47L35 48L36 48L36 47L37 47L37 48L38 48L38 47L37 47L37 46L38 46L38 45L39 45L39 46L40 46L40 47L39 47L39 48L40 48L40 47L41 47L41 48L42 48L42 46L43 46L43 45L44 45L44 47L45 47L45 49L46 49L46 47L47 47L47 46L45 46L45 45L46 45L46 44L45 44L45 42L44 42L44 40L41 40L41 39ZM47 39L47 40L48 40L48 39ZM50 39L50 40L52 40L52 39ZM60 39L60 40L61 40L61 39ZM12 40L12 43L13 43L13 44L12 44L12 46L11 46L11 47L12 47L12 48L10 48L10 49L9 49L9 50L8 50L8 51L9 51L9 52L10 52L10 51L11 51L11 50L12 50L12 52L13 52L13 48L14 48L14 49L15 49L15 50L14 50L14 51L15 51L15 50L16 50L16 52L18 52L18 51L17 51L17 50L18 50L18 49L17 49L17 48L16 48L16 49L15 49L15 48L14 48L14 47L12 47L12 46L15 46L15 47L17 47L17 46L18 46L18 45L16 45L16 44L14 44L14 42L13 42L13 40ZM39 40L39 41L38 41L38 43L37 43L37 44L35 44L35 43L34 43L34 44L33 44L33 45L34 45L34 46L35 46L35 47L36 47L36 46L35 46L35 45L38 45L38 43L40 43L40 44L39 44L39 45L40 45L40 44L41 44L41 43L40 43L40 41L41 41L41 40ZM62 41L62 42L64 42L64 41ZM66 41L66 42L67 42L67 41ZM43 42L43 43L44 43L44 42ZM44 44L44 45L45 45L45 44ZM57 44L57 45L58 45L58 44ZM62 44L62 45L61 45L61 46L62 46L62 45L63 45L63 44ZM1 45L1 46L2 46L2 45ZM15 45L15 46L16 46L16 45ZM41 45L41 46L42 46L42 45ZM59 46L59 47L58 47L58 48L59 48L59 49L60 49L60 48L59 48L59 47L60 47L60 46ZM6 47L6 48L7 48L7 47ZM6 49L6 50L7 50L7 49ZM10 49L10 50L9 50L9 51L10 51L10 50L11 50L11 49ZM35 49L35 50L36 50L36 49ZM37 49L37 50L38 50L38 49ZM19 50L19 51L20 51L20 50ZM37 52L37 53L38 53L38 52ZM49 52L49 53L48 53L48 54L49 54L49 53L50 53L50 52ZM0 54L0 57L1 57L1 56L2 56L2 59L3 59L3 56L2 56L2 55L3 55L3 54L2 54L2 55L1 55L1 54ZM17 54L17 55L18 55L18 54ZM10 55L10 56L11 56L11 55ZM21 57L21 58L20 58L20 59L22 59L22 60L23 60L23 61L21 61L21 62L23 62L23 63L24 63L24 62L25 62L25 61L26 61L26 60L25 60L25 61L24 61L24 60L23 60L23 59L22 59L22 57ZM56 57L56 58L57 58L57 57ZM59 57L59 58L60 58L60 57ZM0 58L0 61L1 61L1 58ZM12 58L12 60L11 60L11 61L10 61L10 63L12 63L12 62L13 62L13 61L12 61L12 60L14 60L14 59L13 59L13 58ZM33 58L33 60L35 60L35 59L34 59L34 58ZM45 58L45 59L46 59L46 58ZM27 59L27 61L28 61L28 59ZM50 59L50 60L51 60L51 59ZM67 59L67 60L65 60L65 61L68 61L68 59ZM3 60L3 61L5 61L5 60ZM29 60L29 61L30 61L30 63L31 63L31 60ZM11 61L11 62L12 62L12 61ZM17 61L17 62L18 62L18 61ZM33 61L33 64L36 64L36 61ZM61 61L61 64L64 64L64 61ZM34 62L34 63L35 63L35 62ZM38 62L38 64L41 64L41 63L39 63L39 62ZM51 62L51 63L52 63L52 62ZM62 62L62 63L63 63L63 62ZM65 62L65 63L66 63L66 62ZM10 65L10 66L9 66L9 67L10 67L10 66L11 66L11 65ZM30 65L30 66L32 66L32 65ZM50 65L50 66L51 66L51 65ZM66 65L66 66L65 66L65 68L64 68L64 67L63 67L63 69L68 69L68 68L67 68L67 65ZM55 66L55 68L56 68L56 66ZM21 67L21 68L20 68L20 69L21 69L21 68L22 68L22 67ZM29 67L29 68L30 68L30 67ZM31 67L31 68L32 68L32 67ZM47 67L47 68L48 68L48 67ZM23 68L23 69L24 69L24 68ZM0 0L0 7L7 7L7 0ZM1 1L1 6L6 6L6 1ZM2 2L2 5L5 5L5 2ZM62 0L62 7L69 7L69 0ZM63 1L63 6L68 6L68 1ZM64 2L64 5L67 5L67 2ZM0 62L0 69L7 69L7 62ZM1 63L1 68L6 68L6 63ZM2 64L2 67L5 67L5 64Z" fill="#000000"/></g></g></svg>
