<?xml version="1.0" encoding="UTF-8"?>
<svg xmlns="http://www.w3.org/2000/svg" version="1.1" width="300" height="300" viewBox="0 0 300 300"><rect x="0" y="0" width="300" height="300" fill="#ffffff"/><g transform="scale(4.615)"><g transform="translate(0,0)"><path fill-rule="evenodd" d="M8 0L8 2L9 2L9 4L8 4L8 9L7 9L7 8L5 8L5 9L4 9L4 10L2 10L2 11L1 11L1 9L3 9L3 8L0 8L0 13L1 13L1 12L2 12L2 14L1 14L1 15L0 15L0 23L3 23L3 24L1 24L1 26L3 26L3 27L2 27L2 28L3 28L3 29L1 29L1 30L0 30L0 33L1 33L1 30L2 30L2 31L3 31L3 32L2 32L2 34L1 34L1 35L0 35L0 40L1 40L1 41L4 41L4 40L5 40L5 41L9 41L9 39L10 39L10 38L12 38L12 40L13 40L13 38L14 38L14 41L13 41L13 42L12 42L12 41L10 41L10 42L6 42L6 43L9 43L9 45L11 45L11 44L10 44L10 43L11 43L11 42L12 42L12 44L13 44L13 45L12 45L12 46L13 46L13 47L10 47L10 48L11 48L11 49L9 49L9 48L8 48L8 49L7 49L7 48L6 48L6 49L5 49L5 48L3 48L3 49L1 49L1 48L2 48L2 47L3 47L3 46L4 46L4 47L5 47L5 46L6 46L6 47L8 47L8 45L7 45L7 44L6 44L6 45L5 45L5 43L4 43L4 42L3 42L3 44L2 44L2 42L1 42L1 43L0 43L0 46L1 46L1 45L3 45L3 46L2 46L2 47L1 47L1 48L0 48L0 52L1 52L1 51L2 51L2 50L3 50L3 49L5 49L5 50L6 50L6 51L7 51L7 50L8 50L8 52L6 52L6 53L5 53L5 52L4 52L4 54L3 54L3 53L0 53L0 54L2 54L2 55L3 55L3 56L1 56L1 55L0 55L0 56L1 56L1 57L3 57L3 56L4 56L4 57L5 57L5 56L4 56L4 54L5 54L5 55L10 55L10 56L8 56L8 58L9 58L9 57L12 57L12 58L10 58L10 59L8 59L8 60L9 60L9 61L10 61L10 62L8 62L8 65L10 65L10 64L11 64L11 65L12 65L12 64L13 64L13 65L14 65L14 64L15 64L15 65L16 65L16 64L15 64L15 60L16 60L16 61L17 61L17 62L16 62L16 63L18 63L18 65L19 65L19 60L20 60L20 61L21 61L21 60L20 60L20 59L21 59L21 58L23 58L23 59L22 59L22 61L23 61L23 60L24 60L24 61L25 61L25 62L24 62L24 63L25 63L25 64L26 64L26 65L27 65L27 64L28 64L28 63L29 63L29 65L32 65L32 63L33 63L33 65L34 65L34 63L35 63L35 64L36 64L36 65L37 65L37 63L36 63L36 62L35 62L35 60L36 60L36 61L37 61L37 62L38 62L38 65L39 65L39 64L40 64L40 65L42 65L42 64L43 64L43 63L44 63L44 65L46 65L46 64L48 64L48 65L50 65L50 64L51 64L51 63L50 63L50 64L48 64L48 62L47 62L47 63L46 63L46 59L48 59L48 61L51 61L51 60L52 60L52 62L53 62L53 63L52 63L52 65L57 65L57 64L58 64L58 65L59 65L59 64L58 64L58 63L59 63L59 62L58 62L58 61L60 61L60 63L61 63L61 64L60 64L60 65L63 65L63 64L62 64L62 62L63 62L63 63L65 63L65 62L63 62L63 61L65 61L65 60L64 60L64 59L65 59L65 58L64 58L64 57L65 57L65 53L64 53L64 52L63 52L63 56L62 56L62 51L63 51L63 50L61 50L61 52L60 52L60 53L59 53L59 51L60 51L60 49L64 49L64 51L65 51L65 48L64 48L64 47L65 47L65 46L64 46L64 44L65 44L65 42L64 42L64 39L65 39L65 38L64 38L64 35L65 35L65 34L64 34L64 35L63 35L63 38L62 38L62 39L61 39L61 40L60 40L60 37L61 37L61 36L62 36L62 34L63 34L63 33L62 33L62 31L63 31L63 28L62 28L62 27L61 27L61 28L60 28L60 26L62 26L62 25L61 25L61 23L63 23L63 25L64 25L64 33L65 33L65 22L64 22L64 23L63 23L63 22L61 22L61 23L60 23L60 21L63 21L63 20L64 20L64 19L65 19L65 18L64 18L64 17L65 17L65 16L64 16L64 15L65 15L65 12L64 12L64 13L63 13L63 12L62 12L62 11L65 11L65 8L63 8L63 9L61 9L61 8L56 8L56 9L55 9L55 11L56 11L56 9L57 9L57 10L58 10L58 11L57 11L57 12L56 12L56 13L55 13L55 12L54 12L54 8L55 8L55 5L54 5L54 7L53 7L53 6L52 6L52 9L51 9L51 4L52 4L52 5L53 5L53 4L56 4L56 5L57 5L57 4L56 4L56 3L57 3L57 1L56 1L56 0L55 0L55 1L56 1L56 3L55 3L55 2L53 2L53 4L52 4L52 1L51 1L51 0L50 0L50 1L51 1L51 2L50 2L50 3L51 3L51 4L50 4L50 7L49 7L49 6L48 6L48 7L47 7L47 4L46 4L46 3L47 3L47 2L48 2L48 1L49 1L49 0L46 0L46 1L45 1L45 0L42 0L42 1L40 1L40 0L38 0L38 1L40 1L40 2L39 2L39 3L38 3L38 5L35 5L35 4L36 4L36 1L35 1L35 0L34 0L34 1L35 1L35 3L34 3L34 2L31 2L31 0L30 0L30 2L29 2L29 0L28 0L28 3L27 3L27 2L26 2L26 3L27 3L27 4L26 4L26 5L25 5L25 4L24 4L24 7L23 7L23 4L22 4L22 7L23 7L23 8L22 8L22 10L23 10L23 11L24 11L24 12L22 12L22 11L21 11L21 10L20 10L20 8L21 8L21 3L20 3L20 2L21 2L21 1L22 1L22 0L20 0L20 2L18 2L18 3L19 3L19 4L18 4L18 5L17 5L17 1L18 1L18 0L16 0L16 1L15 1L15 0L14 0L14 4L15 4L15 5L16 5L16 7L15 7L15 6L14 6L14 7L13 7L13 1L11 1L11 0ZM24 0L24 3L25 3L25 1L26 1L26 0ZM32 0L32 1L33 1L33 0ZM9 1L9 2L10 2L10 3L11 3L11 4L10 4L10 6L9 6L9 11L5 11L5 10L4 10L4 12L5 12L5 13L6 13L6 14L7 14L7 13L8 13L8 15L6 15L6 16L4 16L4 15L5 15L5 14L4 14L4 13L3 13L3 14L2 14L2 15L1 15L1 17L2 17L2 16L3 16L3 18L2 18L2 19L1 19L1 20L2 20L2 21L1 21L1 22L3 22L3 23L4 23L4 22L5 22L5 24L4 24L4 30L5 30L5 29L6 29L6 30L7 30L7 29L6 29L6 28L7 28L7 27L5 27L5 26L9 26L9 28L10 28L10 29L9 29L9 31L10 31L10 30L11 30L11 31L12 31L12 29L11 29L11 28L12 28L12 26L11 26L11 25L10 25L10 26L9 26L9 24L10 24L10 22L9 22L9 23L8 23L8 25L6 25L6 24L7 24L7 23L6 23L6 22L8 22L8 20L7 20L7 19L10 19L10 18L11 18L11 19L12 19L12 20L10 20L10 21L11 21L11 22L12 22L12 23L13 23L13 24L15 24L15 20L14 20L14 19L15 19L15 18L14 18L14 19L12 19L12 18L13 18L13 16L12 16L12 18L11 18L11 17L10 17L10 18L7 18L7 17L9 17L9 16L11 16L11 15L13 15L13 13L14 13L14 12L15 12L15 13L16 13L16 15L15 15L15 16L14 16L14 17L17 17L17 18L16 18L16 20L17 20L17 22L16 22L16 23L17 23L17 24L16 24L16 26L17 26L17 27L16 27L16 28L15 28L15 25L13 25L13 26L14 26L14 27L13 27L13 28L14 28L14 30L13 30L13 31L14 31L14 32L13 32L13 33L12 33L12 36L11 36L11 35L9 35L9 36L8 36L8 35L4 35L4 36L3 36L3 35L1 35L1 38L2 38L2 39L1 39L1 40L2 40L2 39L3 39L3 38L4 38L4 36L8 36L8 37L5 37L5 38L8 38L8 37L10 37L10 36L11 36L11 37L12 37L12 38L13 38L13 36L15 36L15 37L14 37L14 38L15 38L15 37L16 37L16 40L15 40L15 42L16 42L16 43L17 43L17 39L18 39L18 40L19 40L19 44L20 44L20 42L21 42L21 41L22 41L22 40L23 40L23 41L24 41L24 43L23 43L23 42L22 42L22 43L21 43L21 46L20 46L20 47L22 47L22 46L23 46L23 45L22 45L22 44L25 44L25 45L26 45L26 44L27 44L27 43L25 43L25 42L26 42L26 40L27 40L27 41L28 41L28 42L30 42L30 44L29 44L29 43L28 43L28 44L29 44L29 45L28 45L28 46L27 46L27 49L26 49L26 48L25 48L25 49L24 49L24 48L23 48L23 49L22 49L22 48L21 48L21 49L20 49L20 48L19 48L19 47L18 47L18 44L17 44L17 46L16 46L16 47L17 47L17 49L16 49L16 50L15 50L15 51L14 51L14 50L10 50L10 51L9 51L9 52L8 52L8 54L10 54L10 53L11 53L11 54L12 54L12 55L11 55L11 56L13 56L13 55L15 55L15 56L17 56L17 57L16 57L16 60L17 60L17 61L18 61L18 60L19 60L19 59L18 59L18 58L17 58L17 57L18 57L18 56L19 56L19 57L20 57L20 58L21 58L21 57L22 57L22 56L24 56L24 60L25 60L25 59L26 59L26 58L25 58L25 57L26 57L26 56L25 56L25 54L26 54L26 55L27 55L27 57L28 57L28 59L27 59L27 63L26 63L26 64L27 64L27 63L28 63L28 62L30 62L30 64L31 64L31 63L32 63L32 62L33 62L33 63L34 63L34 61L32 61L32 62L31 62L31 61L30 61L30 59L29 59L29 57L30 57L30 56L29 56L29 57L28 57L28 55L30 55L30 53L32 53L32 54L31 54L31 56L33 56L33 55L34 55L34 56L35 56L35 55L36 55L36 54L35 54L35 55L34 55L34 54L33 54L33 53L32 53L32 50L33 50L33 51L34 51L34 53L36 53L36 52L38 52L38 54L40 54L40 55L42 55L42 56L41 56L41 57L40 57L40 58L39 58L39 56L38 56L38 55L37 55L37 57L35 57L35 58L37 58L37 59L36 59L36 60L37 60L37 61L38 61L38 62L39 62L39 61L40 61L40 60L41 60L41 61L42 61L42 62L41 62L41 63L40 63L40 64L42 64L42 63L43 63L43 61L44 61L44 60L45 60L45 59L46 59L46 58L48 58L48 59L49 59L49 57L50 57L50 58L51 58L51 59L52 59L52 60L53 60L53 61L54 61L54 62L55 62L55 61L56 61L56 59L55 59L55 60L53 60L53 59L52 59L52 58L51 58L51 57L52 57L52 56L53 56L53 57L54 57L54 58L56 58L56 57L54 57L54 56L55 56L55 55L56 55L56 54L55 54L55 53L54 53L54 52L55 52L55 51L54 51L54 50L55 50L55 48L56 48L56 47L55 47L55 48L54 48L54 50L53 50L53 49L52 49L52 47L51 47L51 48L50 48L50 47L49 47L49 48L50 48L50 52L49 52L49 53L50 53L50 54L51 54L51 55L48 55L48 56L47 56L47 57L46 57L46 55L47 55L47 54L48 54L48 52L46 52L46 51L47 51L47 50L48 50L48 51L49 51L49 50L48 50L48 46L47 46L47 45L48 45L48 44L46 44L46 42L47 42L47 41L48 41L48 42L49 42L49 44L50 44L50 46L52 46L52 44L56 44L56 42L55 42L55 40L56 40L56 41L57 41L57 43L58 43L58 45L57 45L57 48L58 48L58 49L57 49L57 50L56 50L56 51L57 51L57 56L59 56L59 55L60 55L60 56L61 56L61 58L62 58L62 60L61 60L61 61L62 61L62 60L63 60L63 59L64 59L64 58L62 58L62 56L61 56L61 53L60 53L60 54L59 54L59 55L58 55L58 49L59 49L59 48L58 48L58 45L60 45L60 46L62 46L62 45L63 45L63 44L64 44L64 42L63 42L63 41L62 41L62 40L63 40L63 39L64 39L64 38L63 38L63 39L62 39L62 40L61 40L61 41L60 41L60 42L59 42L59 41L58 41L58 40L59 40L59 39L58 39L58 38L57 38L57 37L55 37L55 36L56 36L56 34L55 34L55 33L54 33L54 34L55 34L55 36L54 36L54 39L53 39L53 38L52 38L52 37L51 37L51 36L50 36L50 34L51 34L51 35L53 35L53 33L52 33L52 32L53 32L53 31L54 31L54 32L55 32L55 31L54 31L54 30L55 30L55 29L56 29L56 30L57 30L57 29L58 29L58 30L59 30L59 29L60 29L60 30L62 30L62 28L61 28L61 29L60 29L60 28L59 28L59 29L58 29L58 27L59 27L59 26L60 26L60 23L59 23L59 20L58 20L58 23L57 23L57 20L56 20L56 18L57 18L57 17L58 17L58 19L60 19L60 17L58 17L58 16L59 16L59 15L58 15L58 16L57 16L57 13L56 13L56 18L55 18L55 17L54 17L54 14L55 14L55 13L54 13L54 14L53 14L53 15L52 15L52 12L53 12L53 11L52 11L52 10L53 10L53 9L52 9L52 10L51 10L51 9L50 9L50 8L49 8L49 7L48 7L48 8L47 8L47 7L46 7L46 6L45 6L45 5L46 5L46 4L45 4L45 3L46 3L46 2L47 2L47 1L46 1L46 2L45 2L45 1L44 1L44 2L45 2L45 3L44 3L44 4L45 4L45 5L44 5L44 6L43 6L43 5L42 5L42 2L43 2L43 1L42 1L42 2L41 2L41 3L40 3L40 4L41 4L41 7L42 7L42 14L43 14L43 13L44 13L44 14L45 14L45 15L44 15L44 16L43 16L43 15L41 15L41 13L40 13L40 11L41 11L41 9L40 9L40 10L39 10L39 9L38 9L38 10L39 10L39 11L37 11L37 13L36 13L36 11L35 11L35 9L34 9L34 11L33 11L33 9L32 9L32 11L33 11L33 12L35 12L35 13L34 13L34 14L33 14L33 13L32 13L32 14L33 14L33 15L30 15L30 12L31 12L31 11L30 11L30 12L29 12L29 14L28 14L28 15L30 15L30 17L28 17L28 18L29 18L29 19L28 19L28 20L26 20L26 19L27 19L27 17L26 17L26 16L25 16L25 17L24 17L24 16L23 16L23 13L22 13L22 12L21 12L21 13L22 13L22 14L20 14L20 15L21 15L21 17L20 17L20 19L19 19L19 17L18 17L18 16L19 16L19 13L18 13L18 12L20 12L20 11L18 11L18 12L17 12L17 11L15 11L15 10L14 10L14 9L16 9L16 10L18 10L18 8L15 8L15 7L14 7L14 8L13 8L13 7L12 7L12 5L11 5L11 4L12 4L12 2L10 2L10 1ZM22 2L22 3L23 3L23 2ZM30 2L30 3L28 3L28 4L27 4L27 5L26 5L26 6L25 6L25 8L23 8L23 9L24 9L24 11L26 11L26 12L25 12L25 14L24 14L24 15L25 15L25 14L26 14L26 15L27 15L27 13L26 13L26 12L27 12L27 11L26 11L26 10L29 10L29 7L30 7L30 6L29 6L29 5L28 5L28 4L31 4L31 2ZM32 3L32 4L34 4L34 3ZM31 5L31 8L34 8L34 5ZM38 5L38 6L37 6L37 8L39 8L39 7L40 7L40 6L39 6L39 5ZM10 6L10 7L11 7L11 6ZM17 6L17 7L18 7L18 6ZM19 6L19 7L20 7L20 6ZM26 6L26 7L27 7L27 6ZM28 6L28 7L29 7L29 6ZM32 6L32 7L33 7L33 6ZM35 6L35 7L36 7L36 6ZM38 6L38 7L39 7L39 6ZM42 6L42 7L43 7L43 6ZM44 6L44 7L45 7L45 8L44 8L44 9L43 9L43 10L44 10L44 9L45 9L45 11L47 11L47 12L48 12L48 14L47 14L47 15L46 15L46 17L47 17L47 18L48 18L48 17L49 17L49 16L50 16L50 17L51 17L51 20L50 20L50 19L49 19L49 20L48 20L48 19L47 19L47 20L48 20L48 21L47 21L47 24L48 24L48 26L46 26L46 24L44 24L44 26L43 26L43 27L42 27L42 25L43 25L43 23L45 23L45 22L46 22L46 21L45 21L45 20L44 20L44 17L45 17L45 16L44 16L44 17L43 17L43 16L42 16L42 17L41 17L41 15L40 15L40 13L39 13L39 14L38 14L38 13L37 13L37 15L39 15L39 16L40 16L40 18L42 18L42 17L43 17L43 20L42 20L42 19L41 19L41 20L40 20L40 21L39 21L39 23L38 23L38 20L39 20L39 19L38 19L38 16L36 16L36 17L37 17L37 18L36 18L36 19L38 19L38 20L36 20L36 21L35 21L35 23L34 23L34 19L35 19L35 18L34 18L34 17L35 17L35 15L36 15L36 13L35 13L35 14L34 14L34 17L33 17L33 16L32 16L32 19L31 19L31 23L32 23L32 25L30 25L30 22L29 22L29 25L30 25L30 27L29 27L29 28L28 28L28 23L27 23L27 22L28 22L28 21L27 21L27 22L26 22L26 25L27 25L27 27L26 27L26 26L24 26L24 25L25 25L25 24L24 24L24 21L25 21L25 20L24 20L24 19L25 19L25 18L26 18L26 17L25 17L25 18L24 18L24 17L23 17L23 16L22 16L22 17L21 17L21 18L22 18L22 17L23 17L23 19L22 19L22 20L23 20L23 22L22 22L22 23L23 23L23 24L22 24L22 25L23 25L23 26L22 26L22 29L23 29L23 28L24 28L24 29L25 29L25 30L24 30L24 31L26 31L26 33L25 33L25 32L23 32L23 31L22 31L22 30L20 30L20 31L22 31L22 33L21 33L21 34L20 34L20 33L19 33L19 31L18 31L18 33L17 33L17 32L16 32L16 33L15 33L15 32L14 32L14 33L13 33L13 35L15 35L15 36L16 36L16 37L17 37L17 38L18 38L18 37L19 37L19 36L18 36L18 35L19 35L19 34L20 34L20 36L21 36L21 38L22 38L22 39L21 39L21 40L22 40L22 39L23 39L23 40L24 40L24 41L25 41L25 40L26 40L26 39L27 39L27 40L28 40L28 41L29 41L29 40L30 40L30 42L32 42L32 43L31 43L31 44L30 44L30 45L31 45L31 47L32 47L32 49L31 49L31 48L28 48L28 49L27 49L27 50L28 50L28 49L31 49L31 50L30 50L30 51L31 51L31 50L32 50L32 49L34 49L34 51L35 51L35 50L36 50L36 51L38 51L38 49L39 49L39 47L40 47L40 50L39 50L39 51L40 51L40 50L41 50L41 51L42 51L42 49L43 49L43 46L42 46L42 45L41 45L41 44L42 44L42 40L44 40L44 41L43 41L43 42L44 42L44 43L45 43L45 42L46 42L46 39L47 39L47 40L48 40L48 41L49 41L49 42L50 42L50 43L51 43L51 42L52 42L52 41L53 41L53 42L54 42L54 43L55 43L55 42L54 42L54 40L55 40L55 39L56 39L56 40L57 40L57 38L55 38L55 39L54 39L54 40L53 40L53 39L52 39L52 38L50 38L50 36L49 36L49 35L48 35L48 37L49 37L49 38L48 38L48 39L47 39L47 38L46 38L46 37L45 37L45 36L46 36L46 35L47 35L47 34L48 34L48 33L49 33L49 34L50 34L50 33L51 33L51 34L52 34L52 33L51 33L51 32L52 32L52 31L53 31L53 30L54 30L54 28L52 28L52 27L54 27L54 25L55 25L55 24L57 24L57 26L56 26L56 27L55 27L55 28L56 28L56 29L57 29L57 27L58 27L58 24L59 24L59 23L58 23L58 24L57 24L57 23L56 23L56 22L55 22L55 23L54 23L54 21L55 21L55 19L54 19L54 20L52 20L52 17L53 17L53 16L52 16L52 15L51 15L51 14L50 14L50 12L51 12L51 10L50 10L50 9L49 9L49 8L48 8L48 9L49 9L49 10L48 10L48 11L47 11L47 10L46 10L46 7L45 7L45 6ZM56 6L56 7L57 7L57 6ZM12 8L12 9L11 9L11 10L10 10L10 11L9 11L9 12L8 12L8 13L11 13L11 14L12 14L12 13L13 13L13 12L14 12L14 10L13 10L13 8ZM26 8L26 9L25 9L25 10L26 10L26 9L27 9L27 8ZM6 9L6 10L7 10L7 9ZM30 9L30 10L31 10L31 9ZM36 9L36 10L37 10L37 9ZM58 9L58 10L60 10L60 11L58 11L58 14L60 14L60 15L61 15L61 14L60 14L60 11L62 11L62 10L61 10L61 9ZM11 10L11 11L10 11L10 12L13 12L13 11L12 11L12 10ZM49 10L49 11L48 11L48 12L50 12L50 10ZM6 12L6 13L7 13L7 12ZM16 12L16 13L17 13L17 12ZM44 12L44 13L45 13L45 14L46 14L46 12ZM61 12L61 13L62 13L62 14L63 14L63 15L62 15L62 17L61 17L61 19L62 19L62 20L63 20L63 19L64 19L64 18L63 18L63 19L62 19L62 17L64 17L64 16L63 16L63 15L64 15L64 14L63 14L63 13L62 13L62 12ZM9 14L9 15L8 15L8 16L9 16L9 15L10 15L10 14ZM48 14L48 16L47 16L47 17L48 17L48 16L49 16L49 14ZM17 15L17 16L18 16L18 15ZM50 15L50 16L51 16L51 17L52 17L52 16L51 16L51 15ZM6 16L6 17L5 17L5 18L4 18L4 19L2 19L2 20L4 20L4 21L3 21L3 22L4 22L4 21L7 21L7 20L5 20L5 19L7 19L7 18L6 18L6 17L7 17L7 16ZM18 19L18 20L19 20L19 22L18 22L18 23L19 23L19 22L20 22L20 23L21 23L21 22L20 22L20 20L21 20L21 19L20 19L20 20L19 20L19 19ZM29 19L29 21L30 21L30 19ZM41 20L41 21L40 21L40 23L39 23L39 25L38 25L38 23L37 23L37 21L36 21L36 23L35 23L35 24L33 24L33 25L34 25L34 27L33 27L33 26L31 26L31 27L30 27L30 29L31 29L31 30L33 30L33 29L32 29L32 28L34 28L34 30L35 30L35 33L36 33L36 35L34 35L34 37L32 37L32 38L30 38L30 36L29 36L29 37L28 37L28 35L30 35L30 33L28 33L28 35L26 35L26 36L27 36L27 37L26 37L26 38L25 38L25 37L24 37L24 38L23 38L23 37L22 37L22 38L23 38L23 39L26 39L26 38L27 38L27 37L28 37L28 38L29 38L29 39L28 39L28 40L29 40L29 39L30 39L30 40L31 40L31 39L32 39L32 42L33 42L33 43L32 43L32 47L34 47L34 48L35 48L35 49L36 49L36 43L37 43L37 41L38 41L38 42L39 42L39 43L38 43L38 44L39 44L39 45L38 45L38 46L37 46L37 49L38 49L38 46L39 46L39 45L40 45L40 47L41 47L41 49L42 49L42 47L41 47L41 45L40 45L40 44L39 44L39 43L40 43L40 42L41 42L41 41L40 41L40 40L39 40L39 39L41 39L41 40L42 40L42 38L44 38L44 36L43 36L43 37L42 37L42 34L43 34L43 33L44 33L44 35L46 35L46 34L47 34L47 33L48 33L48 32L49 32L49 33L50 33L50 32L51 32L51 29L52 29L52 28L51 28L51 29L50 29L50 26L51 26L51 27L52 27L52 26L53 26L53 25L52 25L52 24L54 24L54 23L52 23L52 24L50 24L50 23L51 23L51 22L52 22L52 20L51 20L51 21L50 21L50 22L49 22L49 21L48 21L48 22L49 22L49 23L48 23L48 24L50 24L50 26L48 26L48 28L47 28L47 29L46 29L46 30L48 30L48 31L45 31L45 29L44 29L44 27L45 27L45 28L46 28L46 26L44 26L44 27L43 27L43 28L42 28L42 27L40 27L40 26L39 26L39 25L40 25L40 24L41 24L41 23L43 23L43 22L45 22L45 21L44 21L44 20L43 20L43 21L42 21L42 20ZM12 21L12 22L13 22L13 23L14 23L14 22L13 22L13 21ZM36 23L36 25L35 25L35 26L36 26L36 27L37 27L37 23ZM18 24L18 26L19 26L19 27L20 27L20 24ZM23 24L23 25L24 25L24 24ZM51 25L51 26L52 26L52 25ZM10 26L10 27L11 27L11 26ZM23 26L23 27L24 27L24 28L25 28L25 27L24 27L24 26ZM17 27L17 28L16 28L16 29L17 29L17 30L16 30L16 31L17 31L17 30L19 30L19 28L18 28L18 27ZM31 27L31 28L32 28L32 27ZM38 27L38 28L36 28L36 29L37 29L37 30L38 30L38 28L39 28L39 27ZM20 28L20 29L21 29L21 28ZM40 28L40 29L39 29L39 31L38 31L38 32L39 32L39 31L41 31L41 32L40 32L40 33L39 33L39 34L38 34L38 33L37 33L37 31L36 31L36 33L37 33L37 35L36 35L36 37L34 37L34 40L36 40L36 41L37 41L37 39L38 39L38 37L39 37L39 38L40 38L40 37L41 37L41 38L42 38L42 37L41 37L41 35L40 35L40 37L39 37L39 34L40 34L40 33L41 33L41 34L42 34L42 33L41 33L41 32L42 32L42 31L43 31L43 32L44 32L44 33L45 33L45 34L46 34L46 33L47 33L47 32L46 32L46 33L45 33L45 32L44 32L44 29L43 29L43 30L42 30L42 28ZM48 28L48 29L49 29L49 28ZM27 29L27 30L26 30L26 31L27 31L27 30L29 30L29 31L28 31L28 32L30 32L30 30L29 30L29 29ZM14 30L14 31L15 31L15 30ZM41 30L41 31L42 31L42 30ZM5 31L5 34L8 34L8 31ZM31 31L31 34L34 34L34 31ZM49 31L49 32L50 32L50 31ZM57 31L57 34L60 34L60 31ZM3 32L3 33L4 33L4 32ZM6 32L6 33L7 33L7 32ZM32 32L32 33L33 33L33 32ZM58 32L58 33L59 33L59 32ZM14 33L14 34L15 34L15 33ZM16 33L16 35L17 35L17 33ZM18 33L18 34L19 34L19 33ZM22 33L22 34L23 34L23 33ZM24 33L24 35L22 35L22 36L24 36L24 35L25 35L25 33ZM26 33L26 34L27 34L27 33ZM61 33L61 34L62 34L62 33ZM32 35L32 36L33 36L33 35ZM37 35L37 36L38 36L38 35ZM57 35L57 36L58 36L58 35ZM60 35L60 36L59 36L59 37L60 37L60 36L61 36L61 35ZM2 36L2 37L3 37L3 36ZM36 37L36 38L35 38L35 39L37 39L37 37ZM19 38L19 40L20 40L20 38ZM45 38L45 39L46 39L46 38ZM49 38L49 39L50 39L50 40L49 40L49 41L50 41L50 42L51 42L51 39L50 39L50 38ZM6 39L6 40L7 40L7 39ZM38 40L38 41L39 41L39 40ZM34 41L34 43L36 43L36 42L35 42L35 41ZM44 41L44 42L45 42L45 41ZM61 41L61 42L60 42L60 45L62 45L62 41ZM58 42L58 43L59 43L59 42ZM13 43L13 44L14 44L14 45L13 45L13 46L14 46L14 45L15 45L15 44L14 44L14 43ZM33 44L33 46L34 46L34 47L35 47L35 46L34 46L34 44ZM44 44L44 49L45 49L45 50L46 50L46 49L47 49L47 46L46 46L46 44ZM6 45L6 46L7 46L7 45ZM54 45L54 46L56 46L56 45ZM24 46L24 47L26 47L26 46ZM29 46L29 47L30 47L30 46ZM45 46L45 49L46 49L46 46ZM63 46L63 47L62 47L62 48L63 48L63 47L64 47L64 46ZM60 47L60 48L61 48L61 47ZM12 48L12 49L13 49L13 48ZM14 48L14 49L15 49L15 48ZM18 48L18 49L17 49L17 50L16 50L16 53L15 53L15 52L13 52L13 51L10 51L10 52L9 52L9 53L10 53L10 52L11 52L11 53L12 53L12 54L14 54L14 53L15 53L15 54L16 54L16 53L17 53L17 50L18 50L18 49L19 49L19 51L18 51L18 52L19 52L19 51L20 51L20 53L19 53L19 54L20 54L20 53L21 53L21 50L20 50L20 49L19 49L19 48ZM6 49L6 50L7 50L7 49ZM23 49L23 51L22 51L22 52L23 52L23 55L24 55L24 53L25 53L25 51L24 51L24 49ZM25 49L25 50L26 50L26 49ZM43 50L43 52L40 52L40 54L42 54L42 55L43 55L43 54L42 54L42 53L43 53L43 52L44 52L44 53L45 53L45 55L46 55L46 52L44 52L44 50ZM51 50L51 52L52 52L52 53L53 53L53 54L52 54L52 55L53 55L53 56L54 56L54 53L53 53L53 52L52 52L52 50ZM23 51L23 52L24 52L24 51ZM26 51L26 52L27 52L27 55L28 55L28 52L27 52L27 51ZM12 52L12 53L13 53L13 52ZM6 53L6 54L7 54L7 53ZM17 54L17 56L18 56L18 54ZM21 54L21 55L22 55L22 54ZM6 56L6 57L7 57L7 56ZM20 56L20 57L21 57L21 56ZM42 56L42 57L41 57L41 59L42 59L42 60L43 60L43 59L44 59L44 58L43 58L43 59L42 59L42 57L43 57L43 56ZM44 56L44 57L45 57L45 58L46 58L46 57L45 57L45 56ZM48 56L48 57L49 57L49 56ZM13 57L13 58L12 58L12 59L14 59L14 60L12 60L12 61L11 61L11 60L10 60L10 61L11 61L11 62L10 62L10 63L12 63L12 61L14 61L14 60L15 60L15 59L14 59L14 58L15 58L15 57ZM31 57L31 60L34 60L34 57ZM57 57L57 60L60 60L60 57ZM32 58L32 59L33 59L33 58ZM58 58L58 59L59 59L59 58ZM38 59L38 61L39 61L39 59ZM13 62L13 64L14 64L14 62ZM20 62L20 63L21 63L21 64L22 64L22 65L23 65L23 64L22 64L22 63L23 63L23 62L22 62L22 63L21 63L21 62ZM44 62L44 63L45 63L45 64L46 64L46 63L45 63L45 62ZM54 63L54 64L55 64L55 63ZM64 64L64 65L65 65L65 64ZM0 0L0 7L7 7L7 0ZM1 1L1 6L6 6L6 1ZM2 2L2 5L5 5L5 2ZM58 0L58 7L65 7L65 0ZM59 1L59 6L64 6L64 1ZM60 2L60 5L63 5L63 2ZM0 58L0 65L7 65L7 58ZM1 59L1 64L6 64L6 59ZM2 60L2 63L5 63L5 60Z" fill="#000000"/></g></g></svg>
