<?xml version="1.0" encoding="UTF-8"?>
<svg xmlns="http://www.w3.org/2000/svg" version="1.1" width="300" height="300" viewBox="0 0 300 300"><rect x="0" y="0" width="300" height="300" fill="#ffffff"/><g transform="scale(4.348)"><g transform="translate(0,0)"><path fill-rule="evenodd" d="M8 0L8 4L9 4L9 5L8 5L8 7L9 7L9 6L10 6L10 8L9 8L9 9L8 9L8 10L6 10L6 9L7 9L7 8L4 8L4 9L3 9L3 10L4 10L4 12L0 12L0 15L1 15L1 16L0 16L0 21L1 21L1 22L0 22L0 23L3 23L3 21L4 21L4 20L2 20L2 19L1 19L1 18L3 18L3 19L7 19L7 18L9 18L9 15L8 15L8 14L6 14L6 13L7 13L7 12L10 12L10 15L11 15L11 11L12 11L12 10L13 10L13 9L11 9L11 8L13 8L13 6L14 6L14 8L16 8L16 9L17 9L17 11L16 11L16 10L15 10L15 9L14 9L14 13L13 13L13 14L15 14L15 15L12 15L12 16L10 16L10 17L11 17L11 18L12 18L12 19L11 19L11 20L10 20L10 21L11 21L11 22L12 22L12 25L11 25L11 26L10 26L10 25L9 25L9 26L8 26L8 24L10 24L10 22L9 22L9 21L8 21L8 20L9 20L9 19L8 19L8 20L5 20L5 21L7 21L7 22L6 22L6 23L7 23L7 24L5 24L5 22L4 22L4 24L5 24L5 26L4 26L4 27L0 27L0 28L1 28L1 29L2 29L2 28L4 28L4 31L3 31L3 30L1 30L1 32L2 32L2 31L3 31L3 32L4 32L4 33L2 33L2 35L3 35L3 36L1 36L1 34L0 34L0 36L1 36L1 37L0 37L0 38L1 38L1 41L2 41L2 43L1 43L1 46L0 46L0 47L3 47L3 46L4 46L4 49L3 49L3 50L6 50L6 51L7 51L7 50L8 50L8 53L9 53L9 54L10 54L10 52L11 52L11 55L10 55L10 56L11 56L11 55L12 55L12 50L13 50L13 49L14 49L14 50L16 50L16 51L13 51L13 52L15 52L15 53L17 53L17 54L14 54L14 55L13 55L13 56L12 56L12 59L11 59L11 60L12 60L12 59L13 59L13 60L14 60L14 59L13 59L13 58L15 58L15 59L16 59L16 58L17 58L17 57L18 57L18 59L17 59L17 61L20 61L20 63L19 63L19 64L18 64L18 65L17 65L17 64L15 64L15 63L18 63L18 62L16 62L16 61L13 61L13 62L12 62L12 63L11 63L11 62L10 62L10 61L8 61L8 60L6 60L6 61L8 61L8 62L9 62L9 63L8 63L8 65L9 65L9 66L10 66L10 64L11 64L11 66L12 66L12 65L14 65L14 66L13 66L13 67L10 67L10 69L12 69L12 68L13 68L13 67L16 67L16 66L15 66L15 65L17 65L17 68L14 68L14 69L17 69L17 68L18 68L18 69L19 69L19 68L18 68L18 66L19 66L19 67L20 67L20 66L22 66L22 64L23 64L23 66L24 66L24 69L25 69L25 68L26 68L26 69L27 69L27 68L26 68L26 67L25 67L25 66L27 66L27 67L28 67L28 66L30 66L30 65L31 65L31 67L32 67L32 69L33 69L33 68L34 68L34 69L35 69L35 68L34 68L34 67L35 67L35 66L36 66L36 67L39 67L39 68L38 68L38 69L40 69L40 68L41 68L41 67L43 67L43 63L44 63L44 69L46 69L46 67L45 67L45 63L46 63L46 64L47 64L47 63L48 63L48 65L47 65L47 66L48 66L48 65L49 65L49 59L50 59L50 62L51 62L51 61L52 61L52 60L54 60L54 58L55 58L55 59L56 59L56 57L57 57L57 59L58 59L58 60L56 60L56 61L53 61L53 62L52 62L52 63L51 63L51 64L50 64L50 66L53 66L53 67L50 67L50 69L52 69L52 68L54 68L54 69L55 69L55 67L56 67L56 69L58 69L58 68L62 68L62 69L63 69L63 68L65 68L65 67L66 67L66 66L69 66L69 64L68 64L68 63L67 63L67 64L68 64L68 65L65 65L65 63L66 63L66 62L67 62L67 61L66 61L66 59L64 59L64 57L63 57L63 56L64 56L64 55L65 55L65 54L66 54L66 53L69 53L69 52L68 52L68 50L67 50L67 52L66 52L66 53L65 53L65 54L64 54L64 53L63 53L63 54L64 54L64 55L61 55L61 54L58 54L58 53L57 53L57 52L56 52L56 53L53 53L53 55L51 55L51 56L50 56L50 54L52 54L52 52L55 52L55 51L52 51L52 50L56 50L56 51L58 51L58 52L60 52L60 53L62 53L62 52L63 52L63 51L62 51L62 50L64 50L64 51L66 51L66 50L64 50L64 49L63 49L63 48L65 48L65 47L66 47L66 46L67 46L67 49L69 49L69 47L68 47L68 46L69 46L69 44L68 44L68 46L67 46L67 44L65 44L65 45L66 45L66 46L64 46L64 44L63 44L63 45L61 45L61 44L60 44L60 45L61 45L61 47L60 47L60 46L58 46L58 45L59 45L59 44L58 44L58 43L57 43L57 44L56 44L56 43L55 43L55 41L57 41L57 42L58 42L58 40L61 40L61 39L62 39L62 40L64 40L64 41L63 41L63 43L64 43L64 41L65 41L65 40L64 40L64 39L65 39L65 38L64 38L64 39L62 39L62 38L63 38L63 37L66 37L66 38L67 38L67 42L66 42L66 43L68 43L68 41L69 41L69 40L68 40L68 38L69 38L69 35L68 35L68 30L65 30L65 29L64 29L64 28L65 28L65 27L66 27L66 26L65 26L65 25L67 25L67 27L68 27L68 26L69 26L69 25L67 25L67 24L69 24L69 23L68 23L68 22L69 22L69 20L68 20L68 18L67 18L67 16L66 16L66 17L64 17L64 16L65 16L65 13L64 13L64 12L65 12L65 11L66 11L66 10L67 10L67 11L68 11L68 12L67 12L67 15L68 15L68 17L69 17L69 15L68 15L68 13L69 13L69 11L68 11L68 9L69 9L69 8L65 8L65 9L64 9L64 8L63 8L63 9L62 9L62 10L63 10L63 11L58 11L58 12L59 12L59 13L60 13L60 15L62 15L62 19L61 19L61 20L63 20L63 21L62 21L62 22L63 22L63 23L64 23L64 22L65 22L65 23L66 23L66 22L65 22L65 21L67 21L67 20L68 20L68 22L67 22L67 24L65 24L65 25L62 25L62 23L61 23L61 25L60 25L60 24L59 24L59 23L57 23L57 24L56 24L56 23L55 23L55 24L56 24L56 26L58 26L58 27L57 27L57 28L56 28L56 27L55 27L55 25L54 25L54 27L53 27L53 26L52 26L52 27L53 27L53 28L54 28L54 29L53 29L53 30L55 30L55 31L54 31L54 33L52 33L52 32L51 32L51 31L50 31L50 30L52 30L52 29L51 29L51 28L50 28L50 27L51 27L51 25L52 25L52 24L54 24L54 23L52 23L52 24L51 24L51 23L50 23L50 22L52 22L52 21L50 21L50 20L51 20L51 17L52 17L52 16L54 16L54 17L53 17L53 18L52 18L52 19L54 19L54 20L53 20L53 22L56 22L56 21L57 21L57 22L58 22L58 20L59 20L59 22L61 22L61 21L60 21L60 18L61 18L61 16L60 16L60 17L59 17L59 18L58 18L58 17L57 17L57 16L59 16L59 14L58 14L58 13L57 13L57 10L56 10L56 9L59 9L59 10L61 10L61 6L60 6L60 7L59 7L59 4L58 4L58 7L57 7L57 4L56 4L56 3L59 3L59 2L57 2L57 1L61 1L61 0L57 0L57 1L55 1L55 0L50 0L50 1L49 1L49 2L48 2L48 3L49 3L49 2L50 2L50 5L49 5L49 4L47 4L47 2L46 2L46 3L45 3L45 1L46 1L46 0L45 0L45 1L44 1L44 0L41 0L41 1L40 1L40 0L38 0L38 1L40 1L40 4L38 4L38 3L37 3L37 1L36 1L36 0L34 0L34 4L32 4L32 3L31 3L31 2L32 2L32 1L33 1L33 0L31 0L31 2L29 2L29 1L30 1L30 0L23 0L23 2L22 2L22 4L21 4L21 3L19 3L19 1L20 1L20 2L21 2L21 0L16 0L16 2L15 2L15 1L13 1L13 2L12 2L12 0L11 0L11 1L10 1L10 2L9 2L9 0ZM24 1L24 2L23 2L23 4L25 4L25 5L21 5L21 9L22 9L22 10L20 10L20 4L19 4L19 3L18 3L18 2L16 2L16 3L17 3L17 4L13 4L13 3L12 3L12 2L11 2L11 4L10 4L10 3L9 3L9 4L10 4L10 5L11 5L11 7L12 7L12 5L11 5L11 4L13 4L13 5L14 5L14 6L15 6L15 7L16 7L16 8L17 8L17 7L18 7L18 5L17 5L17 4L19 4L19 9L18 9L18 10L20 10L20 12L19 12L19 14L20 14L20 16L21 16L21 15L22 15L22 19L23 19L23 17L25 17L25 18L26 18L26 19L24 19L24 20L22 20L22 22L21 22L21 23L20 23L20 24L19 24L19 29L18 29L18 28L17 28L17 27L18 27L18 25L17 25L17 24L14 24L14 23L13 23L13 24L14 24L14 25L17 25L17 26L16 26L16 27L15 27L15 29L16 29L16 30L17 30L17 29L18 29L18 31L17 31L17 32L16 32L16 31L15 31L15 30L14 30L14 32L15 32L15 33L13 33L13 32L12 32L12 31L13 31L13 29L14 29L14 27L13 27L13 26L11 26L11 27L9 27L9 28L8 28L8 27L6 27L6 28L5 28L5 27L4 27L4 28L5 28L5 31L4 31L4 32L5 32L5 31L6 31L6 32L8 32L8 30L7 30L7 29L6 29L6 28L8 28L8 29L10 29L10 30L9 30L9 33L11 33L11 36L10 36L10 35L9 35L9 37L8 37L8 38L9 38L9 37L10 37L10 39L11 39L11 36L12 36L12 38L13 38L13 36L12 36L12 35L15 35L15 33L16 33L16 35L17 35L17 36L16 36L16 38L17 38L17 39L20 39L20 36L22 36L22 38L23 38L23 39L24 39L24 38L23 38L23 36L22 36L22 35L23 35L23 34L22 34L22 35L21 35L21 34L20 34L20 35L19 35L19 34L18 34L18 35L17 35L17 33L18 33L18 32L19 32L19 33L20 33L20 32L22 32L22 33L23 33L23 31L22 31L22 29L24 29L24 28L25 28L25 29L26 29L26 28L28 28L28 30L29 30L29 28L31 28L31 27L33 27L33 28L32 28L32 29L31 29L31 30L30 30L30 31L32 31L32 32L31 32L31 33L30 33L30 32L29 32L29 31L28 31L28 32L26 32L26 31L25 31L25 33L30 33L30 35L29 35L29 34L28 34L28 35L27 35L27 34L25 34L25 35L24 35L24 37L26 37L26 36L27 36L27 37L28 37L28 38L29 38L29 39L28 39L28 40L27 40L27 38L26 38L26 39L25 39L25 41L24 41L24 40L22 40L22 39L21 39L21 40L20 40L20 41L19 41L19 42L18 42L18 41L17 41L17 40L16 40L16 39L15 39L15 37L14 37L14 40L12 40L12 42L14 42L14 40L16 40L16 41L15 41L15 43L11 43L11 40L9 40L9 41L10 41L10 43L9 43L9 42L8 42L8 39L6 39L6 38L7 38L7 37L6 37L6 38L5 38L5 39L4 39L4 36L3 36L3 38L2 38L2 37L1 37L1 38L2 38L2 39L3 39L3 41L4 41L4 40L7 40L7 41L5 41L5 42L4 42L4 43L3 43L3 44L5 44L5 42L8 42L8 44L7 44L7 43L6 43L6 44L7 44L7 45L6 45L6 46L7 46L7 47L5 47L5 49L6 49L6 50L7 50L7 49L8 49L8 50L9 50L9 49L10 49L10 50L11 50L11 49L12 49L12 48L15 48L15 49L16 49L16 50L17 50L17 51L18 51L18 52L17 52L17 53L18 53L18 54L17 54L17 56L16 56L16 55L15 55L15 57L17 57L17 56L19 56L19 57L21 57L21 58L20 58L20 59L19 59L19 60L22 60L22 61L21 61L21 62L23 62L23 64L24 64L24 63L25 63L25 65L30 65L30 63L32 63L32 62L31 62L31 61L27 61L27 62L28 62L28 63L29 63L29 64L26 64L26 63L25 63L25 62L24 62L24 61L26 61L26 58L24 58L24 57L21 57L21 55L22 55L22 56L25 56L25 57L26 57L26 56L27 56L27 55L26 55L26 54L27 54L27 53L28 53L28 54L30 54L30 55L28 55L28 58L27 58L27 59L28 59L28 58L29 58L29 57L30 57L30 56L31 56L31 57L32 57L32 58L30 58L30 60L33 60L33 59L34 59L34 57L36 57L36 56L38 56L38 57L37 57L37 59L36 59L36 58L35 58L35 59L36 59L36 60L38 60L38 61L37 61L37 63L38 63L38 61L39 61L39 63L40 63L40 66L39 66L39 67L41 67L41 63L40 63L40 62L41 62L41 60L39 60L39 59L38 59L38 57L39 57L39 58L40 58L40 59L41 59L41 58L40 58L40 57L41 57L41 56L42 56L42 57L44 57L44 54L45 54L45 53L46 53L46 54L47 54L47 57L46 57L46 58L47 58L47 59L48 59L48 55L49 55L49 54L50 54L50 52L51 52L51 50L50 50L50 49L54 49L54 48L55 48L55 49L56 49L56 48L57 48L57 49L58 49L58 51L61 51L61 50L62 50L62 48L63 48L63 46L62 46L62 47L61 47L61 50L59 50L59 49L60 49L60 48L59 48L59 47L58 47L58 46L57 46L57 45L58 45L58 44L57 44L57 45L56 45L56 44L52 44L52 46L51 46L51 47L50 47L50 45L51 45L51 43L50 43L50 40L52 40L52 41L51 41L51 42L52 42L52 41L54 41L54 40L55 40L55 38L53 38L53 36L54 36L54 37L56 37L56 39L57 39L57 37L58 37L58 39L59 39L59 37L60 37L60 38L61 38L61 37L60 37L60 36L59 36L59 37L58 37L58 36L57 36L57 37L56 37L56 35L57 35L57 34L56 34L56 33L55 33L55 34L54 34L54 35L53 35L53 36L52 36L52 37L51 37L51 39L49 39L49 37L50 37L50 35L51 35L51 34L52 34L52 33L51 33L51 32L50 32L50 31L49 31L49 30L50 30L50 29L48 29L48 30L47 30L47 29L46 29L46 28L45 28L45 27L44 27L44 28L43 28L43 26L41 26L41 25L42 25L42 24L43 24L43 25L44 25L44 24L45 24L45 23L44 23L44 20L46 20L46 19L44 19L44 18L41 18L41 17L42 17L42 16L40 16L40 19L42 19L42 20L40 20L40 22L39 22L39 20L38 20L38 21L37 21L37 18L38 18L38 19L39 19L39 18L38 18L38 13L37 13L37 12L36 12L36 13L33 13L33 15L32 15L32 17L29 17L29 16L28 16L28 17L27 17L27 18L26 18L26 17L25 17L25 15L26 15L26 16L27 16L27 15L29 15L29 13L30 13L30 15L31 15L31 13L32 13L32 12L33 12L33 11L34 11L34 10L32 10L32 9L31 9L31 8L30 8L30 9L29 9L29 7L30 7L30 6L31 6L31 7L32 7L32 6L31 6L31 5L32 5L32 4L31 4L31 3L29 3L29 2L28 2L28 1ZM35 1L35 3L36 3L36 4L37 4L37 3L36 3L36 1ZM41 1L41 3L42 3L42 4L43 4L43 5L44 5L44 6L43 6L43 8L40 8L40 6L39 6L39 7L38 7L38 5L37 5L37 7L38 7L38 8L37 8L37 10L38 10L38 9L39 9L39 8L40 8L40 11L41 11L41 14L40 14L40 13L39 13L39 15L42 15L42 13L44 13L44 14L43 14L43 17L44 17L44 14L45 14L45 17L46 17L46 18L48 18L48 19L47 19L47 20L50 20L50 17L51 17L51 14L50 14L50 11L49 11L49 14L50 14L50 15L49 15L49 16L50 16L50 17L46 17L46 14L47 14L47 13L46 13L46 12L45 12L45 11L46 11L46 10L47 10L47 8L49 8L49 9L51 9L51 10L52 10L52 11L53 11L53 12L52 12L52 14L53 14L53 15L54 15L54 14L53 14L53 13L54 13L54 12L55 12L55 11L56 11L56 10L55 10L55 11L53 11L53 10L52 10L52 9L55 9L55 7L56 7L56 4L55 4L55 2L54 2L54 1L50 1L50 2L51 2L51 5L52 5L52 6L51 6L51 7L50 7L50 6L49 6L49 7L48 7L48 6L47 6L47 4L46 4L46 5L44 5L44 4L45 4L45 3L44 3L44 2L42 2L42 1ZM24 2L24 3L25 3L25 4L26 4L26 5L25 5L25 6L24 6L24 7L23 7L23 6L22 6L22 8L24 8L24 9L23 9L23 10L22 10L22 11L21 11L21 12L20 12L20 14L21 14L21 13L22 13L22 11L24 11L24 12L23 12L23 15L24 15L24 14L25 14L25 12L26 12L26 13L27 13L27 14L28 14L28 13L27 13L27 12L28 12L28 8L26 8L26 10L27 10L27 12L26 12L26 11L25 11L25 10L24 10L24 9L25 9L25 8L24 8L24 7L25 7L25 6L26 6L26 7L27 7L27 6L28 6L28 7L29 7L29 6L30 6L30 5L31 5L31 4L29 4L29 3L28 3L28 4L26 4L26 2ZM52 2L52 4L53 4L53 5L54 5L54 7L53 7L53 6L52 6L52 7L51 7L51 9L52 9L52 8L54 8L54 7L55 7L55 4L54 4L54 2ZM43 3L43 4L44 4L44 3ZM60 3L60 5L61 5L61 3ZM28 4L28 6L29 6L29 4ZM40 4L40 5L41 5L41 4ZM16 5L16 7L17 7L17 5ZM33 5L33 8L36 8L36 5ZM34 6L34 7L35 7L35 6ZM41 6L41 7L42 7L42 6ZM44 6L44 7L45 7L45 8L44 8L44 9L45 9L45 10L46 10L46 9L45 9L45 8L47 8L47 6L46 6L46 7L45 7L45 6ZM49 7L49 8L50 8L50 7ZM58 7L58 8L59 8L59 7ZM0 8L0 11L2 11L2 8ZM9 9L9 10L10 10L10 11L11 11L11 9ZM30 9L30 10L29 10L29 12L30 12L30 13L31 13L31 11L32 11L32 10L31 10L31 9ZM35 9L35 11L36 11L36 9ZM41 9L41 10L42 10L42 12L43 12L43 9ZM63 9L63 10L64 10L64 9ZM5 10L5 12L4 12L4 13L1 13L1 14L3 14L3 15L5 15L5 16L8 16L8 15L6 15L6 14L5 14L5 13L6 13L6 12L7 12L7 11L6 11L6 10ZM30 10L30 11L31 11L31 10ZM38 11L38 12L39 12L39 11ZM16 12L16 13L15 13L15 14L17 14L17 15L15 15L15 18L13 18L13 17L12 17L12 18L13 18L13 19L12 19L12 20L11 20L11 21L12 21L12 20L14 20L14 22L15 22L15 23L17 23L17 22L16 22L16 21L18 21L18 22L20 22L20 20L19 20L19 21L18 21L18 20L17 20L17 19L20 19L20 18L21 18L21 17L19 17L19 16L18 16L18 17L16 17L16 16L17 16L17 15L18 15L18 13L17 13L17 12ZM44 12L44 13L45 13L45 14L46 14L46 13L45 13L45 12ZM60 12L60 13L61 13L61 14L62 14L62 15L64 15L64 13L63 13L63 12L62 12L62 13L61 13L61 12ZM36 13L36 14L37 14L37 13ZM55 13L55 21L56 21L56 20L58 20L58 18L57 18L57 17L56 17L56 15L58 15L58 14L56 14L56 13ZM62 13L62 14L63 14L63 13ZM34 14L34 15L33 15L33 17L34 17L34 16L35 16L35 17L36 17L36 18L37 18L37 15L36 15L36 16L35 16L35 14ZM47 15L47 16L48 16L48 15ZM1 16L1 17L2 17L2 16ZM3 17L3 18L4 18L4 17ZM5 17L5 18L7 18L7 17ZM18 17L18 18L19 18L19 17ZM63 17L63 19L64 19L64 17ZM15 18L15 20L16 20L16 18ZM28 18L28 19L26 19L26 21L27 21L27 23L28 23L28 21L29 21L29 23L30 23L30 21L32 21L32 22L31 22L31 23L34 23L34 24L33 24L33 26L34 26L34 28L33 28L33 31L34 31L34 30L35 30L35 29L34 29L34 28L35 28L35 27L36 27L36 26L37 26L37 28L36 28L36 30L37 30L37 31L36 31L36 32L32 32L32 33L31 33L31 34L32 34L32 35L30 35L30 36L29 36L29 38L30 38L30 39L29 39L29 40L28 40L28 41L27 41L27 40L26 40L26 41L25 41L25 42L24 42L24 41L23 41L23 43L24 43L24 44L23 44L23 46L21 46L21 45L22 45L22 41L20 41L20 43L21 43L21 45L19 45L19 43L18 43L18 42L16 42L16 43L15 43L15 45L10 45L10 46L9 46L9 44L8 44L8 46L9 46L9 47L7 47L7 48L6 48L6 49L7 49L7 48L9 48L9 47L10 47L10 46L16 46L16 44L17 44L17 45L18 45L18 47L17 47L17 49L18 49L18 51L19 51L19 52L18 52L18 53L20 53L20 54L21 54L21 53L22 53L22 52L23 52L23 51L26 51L26 53L23 53L23 55L24 55L24 54L26 54L26 53L27 53L27 52L28 52L28 53L30 53L30 54L31 54L31 53L33 53L33 54L32 54L32 55L33 55L33 56L32 56L32 57L34 57L34 53L33 53L33 51L34 51L34 52L35 52L35 51L36 51L36 49L34 49L34 48L35 48L35 47L36 47L36 48L38 48L38 50L39 50L39 51L37 51L37 52L36 52L36 54L35 54L35 55L37 55L37 53L38 53L38 52L39 52L39 54L44 54L44 53L45 53L45 50L46 50L46 51L50 51L50 50L49 50L49 49L50 49L50 47L49 47L49 45L50 45L50 44L49 44L49 43L48 43L48 42L47 42L47 43L46 43L46 44L45 44L45 42L46 42L46 37L47 37L47 34L48 34L48 33L50 33L50 34L51 34L51 33L50 33L50 32L49 32L49 31L47 31L47 30L46 30L46 29L45 29L45 28L44 28L44 29L45 29L45 30L44 30L44 33L40 33L40 31L43 31L43 28L42 28L42 27L40 27L40 24L41 24L41 23L42 23L42 22L43 22L43 21L41 21L41 22L40 22L40 24L38 24L38 23L36 23L36 25L35 25L35 23L34 23L34 22L33 22L33 21L35 21L35 22L37 22L37 21L35 21L35 20L36 20L36 19L34 19L34 18L33 18L33 20L32 20L32 18L31 18L31 20L30 20L30 21L29 21L29 18ZM65 18L65 20L64 20L64 21L63 21L63 22L64 22L64 21L65 21L65 20L67 20L67 18ZM1 20L1 21L2 21L2 20ZM27 20L27 21L28 21L28 20ZM23 21L23 22L25 22L25 23L23 23L23 24L22 24L22 23L21 23L21 25L20 25L20 26L21 26L21 27L20 27L20 30L19 30L19 32L20 32L20 30L21 30L21 29L22 29L22 27L23 27L23 28L24 28L24 27L23 27L23 26L21 26L21 25L24 25L24 26L26 26L26 27L25 27L25 28L26 28L26 27L28 27L28 25L27 25L27 24L26 24L26 22L25 22L25 21ZM46 21L46 22L48 22L48 23L47 23L47 25L46 25L46 26L47 26L47 25L48 25L48 27L49 27L49 25L50 25L50 23L49 23L49 22L50 22L50 21ZM7 22L7 23L9 23L9 22ZM48 23L48 25L49 25L49 23ZM0 24L0 25L2 25L2 26L3 26L3 25L2 25L2 24ZM25 24L25 25L26 25L26 24ZM30 24L30 25L29 25L29 27L30 27L30 26L32 26L32 25L31 25L31 24ZM57 24L57 25L58 25L58 26L60 26L60 25L59 25L59 24ZM6 25L6 26L7 26L7 25ZM34 25L34 26L35 26L35 25ZM37 25L37 26L38 26L38 27L39 27L39 28L38 28L38 29L37 29L37 30L38 30L38 31L37 31L37 37L36 37L36 38L37 38L37 37L38 37L38 36L39 36L39 37L41 37L41 36L42 36L42 37L43 37L43 38L42 38L42 39L43 39L43 42L38 42L38 41L37 41L37 40L38 40L38 39L40 39L40 41L41 41L41 39L40 39L40 38L38 38L38 39L35 39L35 40L34 40L34 39L32 39L32 38L35 38L35 37L32 37L32 38L31 38L31 39L32 39L32 40L34 40L34 41L35 41L35 42L34 42L34 43L33 43L33 41L31 41L31 40L30 40L30 41L28 41L28 42L27 42L27 41L26 41L26 42L27 42L27 43L26 43L26 44L25 44L25 45L26 45L26 46L23 46L23 48L22 48L22 49L19 49L19 48L18 48L18 49L19 49L19 51L20 51L20 50L21 50L21 51L22 51L22 49L23 49L23 50L24 50L24 49L25 49L25 50L26 50L26 51L28 51L28 50L31 50L31 52L32 52L32 51L33 51L33 50L34 50L34 49L29 49L29 48L28 48L28 49L27 49L27 50L26 50L26 49L25 49L25 47L26 47L26 48L27 48L27 45L28 45L28 46L29 46L29 45L30 45L30 47L31 47L31 48L34 48L34 47L35 47L35 46L36 46L36 47L37 47L37 46L36 46L36 45L35 45L35 44L38 44L38 45L39 45L39 47L41 47L41 48L40 48L40 51L39 51L39 52L40 52L40 53L44 53L44 51L43 51L43 50L42 50L42 51L41 51L41 49L42 49L42 45L41 45L41 46L40 46L40 45L39 45L39 44L38 44L38 43L41 43L41 44L43 44L43 46L44 46L44 40L45 40L45 39L43 39L43 38L45 38L45 37L46 37L46 34L47 34L47 33L46 33L46 32L45 32L45 33L44 33L44 34L43 34L43 35L41 35L41 34L39 34L39 35L38 35L38 31L39 31L39 30L38 30L38 29L40 29L40 30L42 30L42 28L40 28L40 27L39 27L39 26L38 26L38 25ZM61 25L61 27L60 27L60 28L59 28L59 27L58 27L58 28L57 28L57 29L56 29L56 28L55 28L55 27L54 27L54 28L55 28L55 30L56 30L56 31L57 31L57 32L58 32L58 31L59 31L59 32L61 32L61 30L62 30L62 31L63 31L63 32L66 32L66 33L67 33L67 31L64 31L64 30L62 30L62 29L61 29L61 27L62 27L62 28L63 28L63 27L62 27L62 25ZM11 27L11 28L12 28L12 29L11 29L11 31L10 31L10 32L11 32L11 33L12 33L12 34L13 34L13 33L12 33L12 32L11 32L11 31L12 31L12 29L13 29L13 28L12 28L12 27ZM16 28L16 29L17 29L17 28ZM58 28L58 29L57 29L57 31L58 31L58 29L59 29L59 31L60 31L60 30L61 30L61 29L59 29L59 28ZM6 30L6 31L7 31L7 30ZM45 30L45 31L46 31L46 30ZM5 33L5 36L8 36L8 33ZM33 33L33 36L36 36L36 33ZM45 33L45 34L44 34L44 37L45 37L45 34L46 34L46 33ZM58 33L58 34L59 34L59 33ZM61 33L61 36L64 36L64 33ZM6 34L6 35L7 35L7 34ZM34 34L34 35L35 35L35 34ZM62 34L62 35L63 35L63 34ZM65 34L65 36L66 36L66 37L68 37L68 35L66 35L66 34ZM48 35L48 37L49 37L49 35ZM17 36L17 37L18 37L18 38L19 38L19 36ZM47 38L47 41L49 41L49 39L48 39L48 38ZM52 38L52 39L53 39L53 40L54 40L54 39L53 39L53 38ZM35 40L35 41L36 41L36 40ZM30 41L30 42L31 42L31 41ZM59 41L59 43L62 43L62 42L60 42L60 41ZM36 42L36 43L38 43L38 42ZM27 43L27 44L26 44L26 45L27 45L27 44L28 44L28 45L29 45L29 43ZM34 43L34 44L33 44L33 45L31 45L31 44L30 44L30 45L31 45L31 46L32 46L32 47L34 47L34 46L35 46L35 45L34 45L34 44L35 44L35 43ZM47 43L47 44L48 44L48 43ZM2 45L2 46L3 46L3 45ZM46 45L46 46L45 46L45 47L44 47L44 48L43 48L43 49L44 49L44 50L45 50L45 49L46 49L46 50L48 50L48 49L47 49L47 48L48 48L48 47L47 47L47 48L45 48L45 47L46 47L46 46L47 46L47 45ZM54 45L54 47L57 47L57 48L58 48L58 47L57 47L57 46L56 46L56 45ZM19 46L19 47L20 47L20 48L21 48L21 47L20 47L20 46ZM52 46L52 47L53 47L53 46ZM11 47L11 48L12 48L12 47ZM0 48L0 49L1 49L1 51L0 51L0 53L1 53L1 54L0 54L0 55L1 55L1 54L4 54L4 53L5 53L5 55L3 55L3 56L2 56L2 57L1 57L1 58L0 58L0 61L1 61L1 58L2 58L2 59L3 59L3 58L2 58L2 57L4 57L4 56L5 56L5 58L4 58L4 59L7 59L7 58L8 58L8 59L9 59L9 60L10 60L10 58L9 58L9 57L8 57L8 56L5 56L5 55L8 55L8 54L6 54L6 53L7 53L7 52L4 52L4 51L2 51L2 49L1 49L1 48ZM23 48L23 49L24 49L24 48ZM44 48L44 49L45 49L45 48ZM1 51L1 53L2 53L2 51ZM9 51L9 52L10 52L10 51ZM40 51L40 52L41 52L41 51ZM42 51L42 52L43 52L43 51ZM3 52L3 53L4 53L4 52ZM46 52L46 53L47 53L47 54L49 54L49 52ZM56 54L56 56L55 56L55 57L56 57L56 56L57 56L57 57L58 57L58 59L59 59L59 60L58 60L58 61L57 61L57 62L56 62L56 63L55 63L55 64L52 64L52 65L55 65L55 66L54 66L54 67L55 67L55 66L56 66L56 67L57 67L57 68L58 68L58 67L57 67L57 66L56 66L56 64L57 64L57 65L58 65L58 66L59 66L59 67L61 67L61 66L62 66L62 68L63 68L63 65L61 65L61 66L59 66L59 65L60 65L60 64L59 64L59 61L60 61L60 59L61 59L61 58L60 58L60 57L62 57L62 56L60 56L60 55L59 55L59 57L58 57L58 54ZM38 55L38 56L39 56L39 57L40 57L40 55ZM67 55L67 57L68 57L68 58L67 58L67 59L68 59L68 60L69 60L69 59L68 59L68 58L69 58L69 55ZM13 56L13 57L14 57L14 56ZM52 56L52 57L51 57L51 58L50 58L50 57L49 57L49 58L50 58L50 59L51 59L51 60L52 60L52 57L54 57L54 56ZM65 56L65 57L66 57L66 56ZM6 57L6 58L7 58L7 57ZM32 58L32 59L33 59L33 58ZM42 58L42 61L43 61L43 62L42 62L42 63L43 63L43 62L44 62L44 60L45 60L45 61L46 61L46 63L47 63L47 61L46 61L46 60L45 60L45 58ZM62 58L62 60L63 60L63 58ZM23 59L23 61L24 61L24 59ZM3 60L3 61L5 61L5 60ZM33 61L33 64L36 64L36 61ZM61 61L61 64L64 64L64 61ZM13 62L13 64L14 64L14 65L15 65L15 64L14 64L14 62ZM29 62L29 63L30 63L30 62ZM34 62L34 63L35 63L35 62ZM62 62L62 63L63 63L63 62ZM20 63L20 64L19 64L19 65L20 65L20 64L22 64L22 63ZM31 64L31 65L32 65L32 66L33 66L33 67L34 67L34 66L35 66L35 65L34 65L34 66L33 66L33 65L32 65L32 64ZM37 64L37 65L38 65L38 64ZM8 67L8 69L9 69L9 67ZM22 67L22 68L23 68L23 67ZM29 67L29 68L28 68L28 69L31 69L31 68L30 68L30 67ZM48 67L48 69L49 69L49 67ZM36 68L36 69L37 69L37 68ZM66 68L66 69L67 69L67 68ZM68 68L68 69L69 69L69 68ZM0 0L0 7L7 7L7 0ZM1 1L1 6L6 6L6 1ZM2 2L2 5L5 5L5 2ZM62 0L62 7L69 7L69 0ZM63 1L63 6L68 6L68 1ZM64 2L64 5L67 5L67 2ZM0 62L0 69L7 69L7 62ZM1 63L1 68L6 68L6 63ZM2 64L2 67L5 67L5 64Z" fill="#000000"/></g></g></svg>
