<?xml version="1.0" encoding="UTF-8"?>
<svg xmlns="http://www.w3.org/2000/svg" version="1.1" width="300" height="300" viewBox="0 0 300 300"><rect x="0" y="0" width="300" height="300" fill="#ffffff"/><g transform="scale(4.348)"><g transform="translate(0,0)"><path fill-rule="evenodd" d="M9 0L9 1L8 1L8 2L9 2L9 1L10 1L10 4L9 4L9 3L8 3L8 4L9 4L9 5L8 5L8 7L9 7L9 8L6 8L6 9L5 9L5 8L0 8L0 9L3 9L3 10L4 10L4 9L5 9L5 10L6 10L6 11L4 11L4 15L7 15L7 14L6 14L6 13L7 13L7 12L8 12L8 13L9 13L9 11L7 11L7 10L6 10L6 9L8 9L8 10L9 10L9 8L11 8L11 9L10 9L10 11L11 11L11 10L12 10L12 11L13 11L13 9L15 9L15 6L16 6L16 8L17 8L17 9L16 9L16 10L18 10L18 11L17 11L17 12L16 12L16 11L15 11L15 13L14 13L14 12L13 12L13 13L14 13L14 14L12 14L12 15L11 15L11 14L8 14L8 16L9 16L9 17L10 17L10 18L9 18L9 19L7 19L7 18L6 18L6 17L7 17L7 16L4 16L4 18L2 18L2 16L3 16L3 15L2 15L2 14L1 14L1 12L2 12L2 13L3 13L3 11L2 11L2 10L1 10L1 12L0 12L0 14L1 14L1 15L2 15L2 16L1 16L1 17L0 17L0 18L1 18L1 19L3 19L3 20L4 20L4 21L7 21L7 22L3 22L3 21L2 21L2 22L1 22L1 24L0 24L0 26L2 26L2 22L3 22L3 26L4 26L4 27L5 27L5 28L3 28L3 27L0 27L0 28L3 28L3 29L1 29L1 30L0 30L0 32L1 32L1 33L0 33L0 35L1 35L1 36L0 36L0 38L1 38L1 39L0 39L0 40L2 40L2 41L7 41L7 42L6 42L6 43L5 43L5 44L4 44L4 45L3 45L3 44L2 44L2 42L1 42L1 41L0 41L0 42L1 42L1 43L0 43L0 44L1 44L1 45L0 45L0 48L1 48L1 49L0 49L0 52L1 52L1 51L2 51L2 53L1 53L1 54L0 54L0 55L1 55L1 54L2 54L2 56L4 56L4 57L2 57L2 59L3 59L3 58L4 58L4 59L9 59L9 61L8 61L8 63L9 63L9 61L11 61L11 63L10 63L10 64L8 64L8 69L9 69L9 68L10 68L10 67L9 67L9 65L10 65L10 66L11 66L11 68L12 68L12 69L13 69L13 68L12 68L12 66L13 66L13 67L15 67L15 68L14 68L14 69L15 69L15 68L16 68L16 67L17 67L17 69L22 69L22 68L18 68L18 67L17 67L17 66L19 66L19 67L20 67L20 66L19 66L19 65L20 65L20 64L21 64L21 63L22 63L22 64L23 64L23 65L21 65L21 66L25 66L25 67L26 67L26 66L25 66L25 65L28 65L28 66L27 66L27 67L28 67L28 68L27 68L27 69L32 69L32 68L29 68L29 65L30 65L30 66L31 66L31 67L33 67L33 66L34 66L34 67L35 67L35 68L34 68L34 69L35 69L35 68L36 68L36 69L38 69L38 68L37 68L37 67L35 67L35 66L36 66L36 65L37 65L37 66L38 66L38 67L39 67L39 68L41 68L41 69L42 69L42 68L43 68L43 69L44 69L44 68L48 68L48 69L50 69L50 68L48 68L48 67L47 67L47 66L46 66L46 64L45 64L45 63L44 63L44 64L41 64L41 63L39 63L39 62L40 62L40 59L41 59L41 58L42 58L42 60L41 60L41 62L42 62L42 63L43 63L43 61L44 61L44 59L43 59L43 57L44 57L44 56L46 56L46 57L49 57L49 58L48 58L48 59L49 59L49 60L47 60L47 59L46 59L46 58L45 58L45 59L46 59L46 60L45 60L45 61L47 61L47 62L50 62L50 60L51 60L51 61L52 61L52 62L55 62L55 61L56 61L56 60L55 60L55 59L54 59L54 58L57 58L57 61L59 61L59 62L56 62L56 63L55 63L55 64L54 64L54 63L53 63L53 65L52 65L52 66L50 66L50 64L51 64L51 63L50 63L50 64L49 64L49 63L47 63L47 65L49 65L49 66L50 66L50 67L51 67L51 68L52 68L52 66L54 66L54 67L53 67L53 69L56 69L56 68L57 68L57 69L62 69L62 66L63 66L63 69L64 69L64 66L65 66L65 68L66 68L66 69L68 69L68 68L67 68L67 65L68 65L68 64L69 64L69 63L68 63L68 62L69 62L69 61L68 61L68 62L67 62L67 59L68 59L68 60L69 60L69 59L68 59L68 57L69 57L69 56L68 56L68 57L67 57L67 58L65 58L65 60L60 60L60 61L59 61L59 58L60 58L60 57L62 57L62 56L63 56L63 57L66 57L66 56L67 56L67 55L68 55L68 54L69 54L69 53L68 53L68 54L66 54L66 52L68 52L68 50L69 50L69 48L68 48L68 47L67 47L67 46L69 46L69 44L68 44L68 43L65 43L65 42L64 42L64 43L65 43L65 45L66 45L66 47L65 47L65 48L67 48L67 50L66 50L66 51L64 51L64 52L63 52L63 51L61 51L61 50L63 50L63 49L61 49L61 50L60 50L60 49L59 49L59 50L58 50L58 49L57 49L57 50L58 50L58 51L55 51L55 49L56 49L56 48L57 48L57 45L59 45L59 47L61 47L61 48L62 48L62 42L63 42L63 41L59 41L59 40L57 40L57 39L55 39L55 38L57 38L57 37L56 37L56 36L58 36L58 37L59 37L59 39L61 39L61 40L64 40L64 41L65 41L65 40L68 40L68 41L66 41L66 42L69 42L69 39L68 39L68 38L66 38L66 37L65 37L65 36L67 36L67 37L68 37L68 36L69 36L69 35L68 35L68 34L69 34L69 33L68 33L68 34L67 34L67 35L65 35L65 34L66 34L66 32L68 32L68 30L67 30L67 31L64 31L64 32L63 32L63 30L62 30L62 29L63 29L63 28L65 28L65 29L64 29L64 30L65 30L65 29L66 29L66 28L67 28L67 26L69 26L69 23L68 23L68 22L69 22L69 21L68 21L68 18L69 18L69 15L68 15L68 13L69 13L69 12L68 12L68 10L67 10L67 11L65 11L65 9L66 9L66 8L65 8L65 9L64 9L64 8L63 8L63 11L61 11L61 12L62 12L62 13L59 13L59 14L62 14L62 16L61 16L61 15L59 15L59 18L57 18L57 19L55 19L55 18L56 18L56 16L55 16L55 13L56 13L56 15L58 15L58 14L57 14L57 13L56 13L56 12L57 12L57 11L56 11L56 12L55 12L55 13L52 13L52 14L50 14L50 12L52 12L52 10L53 10L53 11L55 11L55 10L56 10L56 8L58 8L58 9L57 9L57 10L58 10L58 12L60 12L60 11L59 11L59 10L62 10L62 8L61 8L61 9L60 9L60 8L58 8L58 7L59 7L59 4L58 4L58 5L57 5L57 4L56 4L56 2L57 2L57 3L59 3L59 2L58 2L58 1L61 1L61 0L57 0L57 1L56 1L56 0L54 0L54 1L53 1L53 0L52 0L52 1L51 1L51 2L50 2L50 0L48 0L48 2L47 2L47 3L48 3L48 4L47 4L47 5L48 5L48 7L47 7L47 6L46 6L46 5L44 5L44 3L45 3L45 4L46 4L46 3L45 3L45 2L44 2L44 3L42 3L42 4L41 4L41 5L44 5L44 7L45 7L45 9L44 9L44 8L43 8L43 9L41 9L41 12L40 12L40 11L39 11L39 12L40 12L40 13L39 13L39 14L40 14L40 15L39 15L39 16L40 16L40 15L42 15L42 14L43 14L43 15L44 15L44 16L42 16L42 17L41 17L41 18L39 18L39 19L37 19L37 18L38 18L38 17L37 17L37 14L38 14L38 12L37 12L37 13L36 13L36 12L34 12L34 13L33 13L33 14L34 14L34 13L35 13L35 15L36 15L36 16L35 16L35 17L34 17L34 18L33 18L33 16L34 16L34 15L33 15L33 16L32 16L32 14L31 14L31 13L32 13L32 12L28 12L28 11L29 11L29 10L28 10L28 11L27 11L27 10L26 10L26 8L28 8L28 9L30 9L30 11L32 11L32 10L31 10L31 9L33 9L33 10L35 10L35 11L36 11L36 10L38 10L38 9L37 9L37 8L38 8L38 7L39 7L39 6L38 6L38 5L37 5L37 4L38 4L38 3L37 3L37 2L39 2L39 3L41 3L41 1L42 1L42 2L43 2L43 0L41 0L41 1L35 1L35 0L33 0L33 1L32 1L32 0L28 0L28 1L27 1L27 2L25 2L25 0L23 0L23 1L22 1L22 0L21 0L21 2L22 2L22 3L23 3L23 1L24 1L24 2L25 2L25 4L22 4L22 5L19 5L19 6L18 6L18 5L17 5L17 4L21 4L21 3L17 3L17 2L20 2L20 1L19 1L19 0L16 0L16 2L15 2L15 3L14 3L14 5L13 5L13 6L12 6L12 4L11 4L11 3L12 3L12 2L13 2L13 1L12 1L12 2L11 2L11 0ZM44 0L44 1L45 1L45 0ZM31 1L31 2L32 2L32 4L33 4L33 3L36 3L36 2L35 2L35 1L34 1L34 2L32 2L32 1ZM52 1L52 2L51 2L51 4L50 4L50 2L48 2L48 3L49 3L49 4L48 4L48 5L49 5L49 4L50 4L50 6L49 6L49 7L50 7L50 8L49 8L49 9L50 9L50 10L47 10L47 7L46 7L46 6L45 6L45 7L46 7L46 9L45 9L45 10L42 10L42 12L41 12L41 14L42 14L42 13L43 13L43 14L47 14L47 15L46 15L46 16L47 16L47 17L45 17L45 16L44 16L44 17L43 17L43 20L44 20L44 22L41 22L41 20L42 20L42 19L41 19L41 20L40 20L40 19L39 19L39 20L40 20L40 22L41 22L41 23L43 23L43 24L44 24L44 25L43 25L43 26L46 26L46 28L49 28L49 29L48 29L48 30L49 30L49 31L50 31L50 30L51 30L51 29L55 29L55 31L58 31L58 32L56 32L56 33L55 33L55 32L53 32L53 31L54 31L54 30L53 30L53 31L52 31L52 32L51 32L51 33L50 33L50 32L49 32L49 33L50 33L50 34L47 34L47 33L45 33L45 32L46 32L46 30L47 30L47 29L46 29L46 30L45 30L45 32L44 32L44 29L45 29L45 28L44 28L44 27L43 27L43 28L44 28L44 29L43 29L43 30L42 30L42 27L38 27L38 28L37 28L37 29L38 29L38 30L37 30L37 31L36 31L36 32L37 32L37 33L38 33L38 34L37 34L37 36L38 36L38 37L36 37L36 38L35 38L35 37L34 37L34 40L33 40L33 38L32 38L32 36L31 36L31 35L32 35L32 33L31 33L31 35L30 35L30 33L29 33L29 31L30 31L30 32L31 32L31 31L30 31L30 29L27 29L27 28L28 28L28 27L29 27L29 28L31 28L31 29L32 29L32 28L31 28L31 27L33 27L33 28L34 28L34 29L33 29L33 30L32 30L32 32L34 32L34 31L33 31L33 30L34 30L34 29L35 29L35 30L36 30L36 28L35 28L35 27L36 27L36 26L35 26L35 27L33 27L33 26L31 26L31 27L29 27L29 25L30 25L30 24L29 24L29 25L27 25L27 23L30 23L30 22L32 22L32 24L31 24L31 25L35 25L35 24L36 24L36 23L34 23L34 22L37 22L37 23L39 23L39 22L37 22L37 21L38 21L38 20L36 20L36 19L35 19L35 18L34 18L34 19L33 19L33 18L32 18L32 16L31 16L31 17L29 17L29 16L30 16L30 14L29 14L29 13L27 13L27 11L26 11L26 10L25 10L25 9L24 9L24 6L25 6L25 8L26 8L26 6L27 6L27 7L28 7L28 6L27 6L27 5L30 5L30 6L29 6L29 8L30 8L30 9L31 9L31 7L32 7L32 5L31 5L31 4L29 4L29 3L30 3L30 2L29 2L29 3L28 3L28 2L27 2L27 3L26 3L26 4L25 4L25 5L22 5L22 6L21 6L21 7L20 7L20 6L19 6L19 7L18 7L18 6L17 6L17 5L16 5L16 3L15 3L15 5L16 5L16 6L17 6L17 7L18 7L18 8L19 8L19 9L20 9L20 10L23 10L23 11L24 11L24 12L22 12L22 11L19 11L19 13L20 13L20 15L21 15L21 16L19 16L19 14L18 14L18 13L15 13L15 14L14 14L14 15L15 15L15 14L16 14L16 17L15 17L15 16L10 16L10 15L9 15L9 16L10 16L10 17L11 17L11 19L13 19L13 20L11 20L11 21L9 21L9 20L10 20L10 19L9 19L9 20L7 20L7 19L6 19L6 20L7 20L7 21L9 21L9 22L8 22L8 23L6 23L6 24L8 24L8 25L5 25L5 23L4 23L4 25L5 25L5 26L7 26L7 27L6 27L6 28L7 28L7 29L5 29L5 30L4 30L4 29L3 29L3 32L2 32L2 30L1 30L1 32L2 32L2 34L1 34L1 35L2 35L2 34L4 34L4 33L3 33L3 32L5 32L5 30L7 30L7 31L6 31L6 32L8 32L8 30L9 30L9 29L8 29L8 27L10 27L10 29L11 29L11 30L10 30L10 31L9 31L9 34L10 34L10 35L9 35L9 36L10 36L10 38L11 38L11 41L10 41L10 40L8 40L8 39L9 39L9 37L4 37L4 38L3 38L3 36L4 36L4 35L3 35L3 36L1 36L1 38L2 38L2 40L4 40L4 38L8 38L8 39L6 39L6 40L8 40L8 42L11 42L11 41L13 41L13 43L14 43L14 41L16 41L16 42L15 42L15 43L16 43L16 44L18 44L18 43L17 43L17 40L18 40L18 39L17 39L17 38L19 38L19 37L17 37L17 36L21 36L21 37L20 37L20 39L19 39L19 40L20 40L20 42L19 42L19 43L20 43L20 42L23 42L23 43L24 43L24 44L22 44L22 43L21 43L21 45L20 45L20 44L19 44L19 45L20 45L20 46L18 46L18 45L15 45L15 44L13 44L13 45L11 45L11 44L12 44L12 43L11 43L11 44L9 44L9 43L6 43L6 44L8 44L8 47L9 47L9 46L10 46L10 45L11 45L11 46L18 46L18 47L17 47L17 48L16 48L16 47L14 47L14 48L11 48L11 47L10 47L10 48L7 48L7 47L6 47L6 48L7 48L7 49L6 49L6 50L7 50L7 49L10 49L10 48L11 48L11 49L12 49L12 50L17 50L17 51L11 51L11 50L8 50L8 51L5 51L5 49L4 49L4 48L5 48L5 47L4 47L4 46L7 46L7 45L4 45L4 46L3 46L3 47L2 47L2 50L3 50L3 49L4 49L4 51L3 51L3 52L4 52L4 53L3 53L3 55L4 55L4 56L5 56L5 54L8 54L8 55L6 55L6 56L7 56L7 57L4 57L4 58L9 58L9 59L10 59L10 60L11 60L11 61L12 61L12 62L13 62L13 64L11 64L11 66L12 66L12 65L13 65L13 64L14 64L14 66L15 66L15 67L16 67L16 66L17 66L17 65L18 65L18 64L17 64L17 63L18 63L18 62L19 62L19 64L20 64L20 62L21 62L21 61L23 61L23 62L22 62L22 63L23 63L23 64L24 64L24 63L25 63L25 64L26 64L26 63L25 63L25 62L26 62L26 61L27 61L27 62L28 62L28 63L27 63L27 64L28 64L28 65L29 65L29 64L31 64L31 63L32 63L32 61L27 61L27 60L28 60L28 58L29 58L29 57L30 57L30 56L26 56L26 55L27 55L27 54L28 54L28 55L30 55L30 54L31 54L31 57L32 57L32 56L33 56L33 57L34 57L34 58L31 58L31 59L29 59L29 60L32 60L32 59L33 59L33 60L35 60L35 58L36 58L36 57L35 57L35 56L33 56L33 55L32 55L32 53L27 53L27 52L26 52L26 54L25 54L25 56L26 56L26 57L25 57L25 58L26 58L26 59L25 59L25 60L24 60L24 59L23 59L23 60L21 60L21 59L22 59L22 58L24 58L24 57L22 57L22 56L21 56L21 55L22 55L22 54L23 54L23 53L25 53L25 52L23 52L23 49L26 49L26 50L27 50L27 51L28 51L28 52L31 52L31 51L33 51L33 52L34 52L34 53L33 53L33 54L34 54L34 55L35 55L35 54L37 54L37 57L38 57L38 58L37 58L37 59L38 59L38 58L39 58L39 57L41 57L41 56L39 56L39 57L38 57L38 55L39 55L39 54L40 54L40 55L42 55L42 54L40 54L40 53L42 53L42 50L41 50L41 49L42 49L42 48L43 48L43 46L44 46L44 49L43 49L43 50L44 50L44 49L45 49L45 52L44 52L44 51L43 51L43 52L44 52L44 53L43 53L43 56L42 56L42 57L43 57L43 56L44 56L44 53L45 53L45 54L46 54L46 56L48 56L48 54L51 54L51 55L50 55L50 58L49 58L49 59L50 59L50 58L51 58L51 57L52 57L52 58L54 58L54 57L55 57L55 56L56 56L56 57L57 57L57 58L59 58L59 57L60 57L60 56L61 56L61 55L66 55L66 54L65 54L65 52L64 52L64 53L63 53L63 52L61 52L61 51L60 51L60 52L59 52L59 53L58 53L58 54L57 54L57 52L56 52L56 53L55 53L55 54L54 54L54 53L53 53L53 52L52 52L52 51L54 51L54 52L55 52L55 51L54 51L54 50L51 50L51 49L53 49L53 48L54 48L54 49L55 49L55 48L56 48L56 47L55 47L55 46L56 46L56 45L57 45L57 44L55 44L55 43L56 43L56 42L51 42L51 41L54 41L54 40L55 40L55 41L57 41L57 42L58 42L58 43L59 43L59 45L60 45L60 44L61 44L61 42L60 42L60 43L59 43L59 41L57 41L57 40L55 40L55 39L54 39L54 38L53 38L53 40L52 40L52 39L50 39L50 42L48 42L48 41L47 41L47 40L49 40L49 39L47 39L47 40L45 40L45 39L43 39L43 38L42 38L42 39L41 39L41 37L43 37L43 36L44 36L44 37L45 37L45 38L51 38L51 37L55 37L55 36L56 36L56 35L59 35L59 36L60 36L60 35L59 35L59 33L58 33L58 32L59 32L59 31L60 31L60 30L59 30L59 29L60 29L60 28L61 28L61 29L62 29L62 27L60 27L60 26L59 26L59 25L60 25L60 24L61 24L61 26L63 26L63 27L65 27L65 28L66 28L66 27L65 27L65 26L67 26L67 25L66 25L66 24L63 24L63 25L62 25L62 22L65 22L65 23L67 23L67 24L68 24L68 23L67 23L67 22L68 22L68 21L67 21L67 20L65 20L65 18L66 18L66 16L65 16L65 15L64 15L64 14L67 14L67 13L68 13L68 12L67 12L67 13L66 13L66 12L64 12L64 11L63 11L63 13L62 13L62 14L63 14L63 15L64 15L64 16L62 16L62 18L59 18L59 20L58 20L58 19L57 19L57 20L55 20L55 19L53 19L53 18L51 18L51 17L53 17L53 16L54 16L54 15L52 15L52 16L51 16L51 15L49 15L49 14L47 14L47 13L45 13L45 12L44 12L44 11L46 11L46 12L50 12L50 11L51 11L51 10L52 10L52 9L55 9L55 8L54 8L54 6L53 6L53 7L52 7L52 6L51 6L51 5L52 5L52 4L54 4L54 3L55 3L55 1L54 1L54 3L53 3L53 1ZM27 3L27 4L28 4L28 3ZM60 3L60 5L61 5L61 3ZM25 5L25 6L26 6L26 5ZM33 5L33 8L36 8L36 5ZM55 5L55 7L56 7L56 6L57 6L57 7L58 7L58 6L57 6L57 5ZM9 6L9 7L10 7L10 6ZM11 6L11 8L12 8L12 6ZM13 6L13 7L14 7L14 6ZM22 6L22 7L23 7L23 6ZM30 6L30 7L31 7L31 6ZM34 6L34 7L35 7L35 6ZM37 6L37 7L38 7L38 6ZM40 6L40 7L41 7L41 6ZM42 6L42 7L43 7L43 6ZM50 6L50 7L51 7L51 6ZM60 6L60 7L61 7L61 6ZM19 7L19 8L20 8L20 7ZM21 8L21 9L22 9L22 8ZM67 8L67 9L68 9L68 8ZM23 9L23 10L24 10L24 9ZM35 9L35 10L36 10L36 9ZM58 9L58 10L59 10L59 9ZM6 11L6 12L7 12L7 11ZM25 11L25 12L26 12L26 11ZM11 12L11 13L12 13L12 12ZM43 12L43 13L44 13L44 12ZM21 13L21 14L22 14L22 15L23 15L23 14L27 14L27 13L23 13L23 14L22 14L22 13ZM63 13L63 14L64 14L64 13ZM17 14L17 15L18 15L18 14ZM28 14L28 16L29 16L29 14ZM25 15L25 16L24 16L24 17L18 17L18 16L17 16L17 17L16 17L16 18L15 18L15 17L14 17L14 18L15 18L15 19L14 19L14 21L13 21L13 22L12 22L12 24L11 24L11 29L12 29L12 30L11 30L11 31L12 31L12 32L10 32L10 34L11 34L11 35L13 35L13 32L14 32L14 28L15 28L15 29L17 29L17 30L15 30L15 32L18 32L18 33L17 33L17 34L15 34L15 36L17 36L17 35L20 35L20 34L19 34L19 33L20 33L20 32L21 32L21 31L22 31L22 32L24 32L24 33L21 33L21 35L23 35L23 36L24 36L24 35L26 35L26 36L25 36L25 37L23 37L23 38L24 38L24 39L23 39L23 40L24 40L24 41L23 41L23 42L24 42L24 41L25 41L25 43L26 43L26 44L24 44L24 45L23 45L23 46L22 46L22 45L21 45L21 46L20 46L20 47L19 47L19 48L20 48L20 47L21 47L21 48L22 48L22 47L23 47L23 48L26 48L26 47L25 47L25 46L26 46L26 44L27 44L27 43L28 43L28 42L26 42L26 39L25 39L25 37L26 37L26 38L27 38L27 37L26 37L26 36L27 36L27 35L28 35L28 36L29 36L29 37L30 37L30 38L28 38L28 39L27 39L27 41L30 41L30 42L29 42L29 44L28 44L28 45L29 45L29 46L28 46L28 47L27 47L27 48L29 48L29 51L30 51L30 50L33 50L33 51L34 51L34 50L33 50L33 49L31 49L31 47L30 47L30 48L29 48L29 46L30 46L30 45L34 45L34 48L36 48L36 47L37 47L37 46L38 46L38 45L39 45L39 46L40 46L40 47L38 47L38 49L37 49L37 50L36 50L36 49L35 49L35 50L36 50L36 51L35 51L35 53L36 53L36 52L38 52L38 53L37 53L37 54L39 54L39 53L40 53L40 52L41 52L41 50L39 50L39 51L37 51L37 50L38 50L38 49L39 49L39 48L40 48L40 47L41 47L41 48L42 48L42 46L43 46L43 45L44 45L44 44L45 44L45 45L47 45L47 46L50 46L50 47L48 47L48 48L47 48L47 49L49 49L49 50L47 50L47 51L46 51L46 52L45 52L45 53L49 53L49 51L51 51L51 50L50 50L50 48L51 48L51 47L52 47L52 46L50 46L50 45L49 45L49 44L48 44L48 43L47 43L47 42L46 42L46 43L45 43L45 42L44 42L44 40L41 40L41 39L40 39L40 38L39 38L39 40L41 40L41 41L40 41L40 43L38 43L38 41L37 41L37 39L38 39L38 38L37 38L37 39L35 39L35 40L36 40L36 41L37 41L37 43L36 43L36 42L35 42L35 41L34 41L34 42L35 42L35 43L34 43L34 44L32 44L32 43L30 43L30 42L33 42L33 41L32 41L32 39L31 39L31 41L30 41L30 40L29 40L29 39L30 39L30 38L31 38L31 36L30 36L30 35L29 35L29 33L28 33L28 32L27 32L27 31L28 31L28 30L25 30L25 29L26 29L26 28L27 28L27 27L28 27L28 26L27 26L27 25L25 25L25 23L26 23L26 20L25 20L25 19L22 19L22 20L23 20L23 22L22 22L22 23L21 23L21 22L20 22L20 21L21 21L21 18L26 18L26 19L27 19L27 21L29 21L29 22L30 22L30 21L31 21L31 20L32 20L32 19L31 19L31 18L30 18L30 19L29 19L29 20L28 20L28 19L27 19L27 18L28 18L28 17L27 17L27 18L26 18L26 17L25 17L25 16L26 16L26 15ZM47 15L47 16L48 16L48 17L49 17L49 18L50 18L50 19L51 19L51 20L50 20L50 21L49 21L49 20L46 20L46 21L48 21L48 22L47 22L47 24L46 24L46 22L44 22L44 23L45 23L45 24L46 24L46 25L47 25L47 26L48 26L48 27L50 27L50 29L49 29L49 30L50 30L50 29L51 29L51 28L55 28L55 29L56 29L56 30L57 30L57 29L59 29L59 27L58 27L58 26L57 26L57 25L56 25L56 23L55 23L55 24L53 24L53 23L54 23L54 22L56 22L56 21L55 21L55 20L53 20L53 19L51 19L51 18L50 18L50 16L48 16L48 15ZM57 16L57 17L58 17L58 16ZM17 17L17 18L16 18L16 20L15 20L15 21L14 21L14 22L15 22L15 21L16 21L16 22L17 22L17 20L18 20L18 19L20 19L20 18L18 18L18 17ZM63 17L63 18L62 18L62 19L61 19L61 20L59 20L59 22L57 22L57 24L58 24L58 25L59 25L59 24L60 24L60 23L61 23L61 22L62 22L62 21L63 21L63 20L64 20L64 19L63 19L63 18L65 18L65 17ZM4 18L4 19L5 19L5 18ZM17 18L17 19L18 19L18 18ZM44 18L44 19L47 19L47 18ZM30 19L30 20L29 20L29 21L30 21L30 20L31 20L31 19ZM62 19L62 20L63 20L63 19ZM19 20L19 21L20 21L20 20ZM34 20L34 21L32 21L32 22L34 22L34 21L35 21L35 20ZM51 20L51 21L50 21L50 22L49 22L49 23L48 23L48 24L47 24L47 25L48 25L48 26L49 26L49 25L50 25L50 27L53 27L53 26L52 26L52 25L53 25L53 24L51 24L51 25L50 25L50 24L49 24L49 23L52 23L52 22L54 22L54 21L53 21L53 20ZM57 20L57 21L58 21L58 20ZM51 21L51 22L52 22L52 21ZM19 22L19 23L16 23L16 25L15 25L15 26L14 26L14 27L13 27L13 25L12 25L12 28L14 28L14 27L15 27L15 28L16 28L16 27L15 27L15 26L16 26L16 25L17 25L17 26L18 26L18 27L17 27L17 28L19 28L19 29L20 29L20 30L19 30L19 31L20 31L20 30L21 30L21 29L22 29L22 30L23 30L23 29L25 29L25 28L24 28L24 27L23 27L23 26L24 26L24 25L22 25L22 24L21 24L21 25L17 25L17 24L20 24L20 22ZM9 23L9 26L10 26L10 23ZM13 23L13 24L14 24L14 23ZM23 23L23 24L24 24L24 23ZM58 23L58 24L59 24L59 23ZM37 24L37 26L41 26L41 25L42 25L42 24L39 24L39 25L38 25L38 24ZM48 24L48 25L49 25L49 24ZM21 25L21 26L22 26L22 25ZM19 26L19 28L20 28L20 26ZM25 26L25 27L27 27L27 26ZM55 26L55 27L56 27L56 29L57 29L57 28L58 28L58 27L57 27L57 26ZM21 27L21 28L23 28L23 27ZM38 28L38 29L40 29L40 28ZM7 29L7 30L8 30L8 29ZM17 30L17 31L18 31L18 30ZM39 30L39 31L37 31L37 32L38 32L38 33L39 33L39 32L43 32L43 33L40 33L40 35L39 35L39 34L38 34L38 35L39 35L39 36L42 36L42 35L41 35L41 34L43 34L43 33L44 33L44 36L45 36L45 37L50 37L50 36L53 36L53 35L47 35L47 36L45 36L45 33L44 33L44 32L43 32L43 31L40 31L40 30ZM58 30L58 31L59 31L59 30ZM61 30L61 32L62 32L62 30ZM24 31L24 32L26 32L26 31ZM5 33L5 36L8 36L8 33ZM25 33L25 34L26 34L26 35L27 35L27 34L28 34L28 33ZM33 33L33 36L36 36L36 33ZM52 33L52 34L55 34L55 35L54 35L54 36L55 36L55 35L56 35L56 34L55 34L55 33ZM61 33L61 36L64 36L64 33ZM6 34L6 35L7 35L7 34ZM23 34L23 35L24 35L24 34ZM34 34L34 35L35 35L35 34ZM62 34L62 35L63 35L63 34ZM67 35L67 36L68 36L68 35ZM12 36L12 40L13 40L13 41L14 41L14 40L15 40L15 39L16 39L16 38L15 38L15 39L13 39L13 38L14 38L14 36ZM60 37L60 38L61 38L61 39L65 39L65 37L64 37L64 38L61 38L61 37ZM21 38L21 39L20 39L20 40L21 40L21 41L22 41L22 40L21 40L21 39L22 39L22 38ZM24 39L24 40L25 40L25 39ZM43 42L43 43L44 43L44 42ZM50 42L50 44L51 44L51 42ZM40 43L40 44L39 44L39 45L40 45L40 44L41 44L41 43ZM46 43L46 44L47 44L47 43ZM53 43L53 44L54 44L54 46L53 46L53 47L54 47L54 46L55 46L55 44L54 44L54 43ZM34 44L34 45L38 45L38 44ZM67 44L67 45L68 45L68 44ZM41 45L41 46L42 46L42 45ZM23 46L23 47L24 47L24 46ZM32 46L32 47L33 47L33 46ZM35 46L35 47L36 47L36 46ZM45 46L45 49L46 49L46 46ZM63 46L63 47L64 47L64 46ZM17 48L17 49L18 49L18 51L17 51L17 52L16 52L16 53L15 53L15 52L13 52L13 53L11 53L11 51L10 51L10 52L9 52L9 51L8 51L8 52L5 52L5 51L4 51L4 52L5 52L5 53L4 53L4 54L5 54L5 53L9 53L9 54L11 54L11 55L10 55L10 59L11 59L11 60L12 60L12 61L14 61L14 60L15 60L15 61L16 61L16 60L18 60L18 61L17 61L17 62L14 62L14 64L16 64L16 63L17 63L17 62L18 62L18 61L19 61L19 62L20 62L20 61L19 61L19 58L20 58L20 59L21 59L21 58L22 58L22 57L21 57L21 56L20 56L20 55L19 55L19 54L20 54L20 52L22 52L22 51L21 51L21 50L22 50L22 49L18 49L18 48ZM27 49L27 50L28 50L28 49ZM19 50L19 51L20 51L20 50ZM24 50L24 51L25 51L25 50ZM39 51L39 52L40 52L40 51ZM50 52L50 53L51 53L51 52ZM60 52L60 54L58 54L58 55L57 55L57 54L56 54L56 55L57 55L57 57L59 57L59 56L60 56L60 55L61 55L61 52ZM13 53L13 54L12 54L12 56L11 56L11 59L12 59L12 57L15 57L15 58L13 58L13 60L14 60L14 59L15 59L15 60L16 60L16 59L15 59L15 58L16 58L16 57L17 57L17 56L18 56L18 54L19 54L19 53L16 53L16 54L17 54L17 55L15 55L15 56L14 56L14 55L13 55L13 54L14 54L14 53ZM52 54L52 55L53 55L53 57L54 57L54 54ZM0 56L0 61L1 61L1 56ZM15 56L15 57L16 57L16 56ZM19 56L19 57L20 57L20 58L21 58L21 57L20 57L20 56ZM17 58L17 59L18 59L18 58ZM61 58L61 59L62 59L62 58ZM63 58L63 59L64 59L64 58ZM51 59L51 60L52 60L52 61L53 61L53 60L54 60L54 59L53 59L53 60L52 60L52 59ZM3 60L3 61L5 61L5 60ZM6 60L6 61L7 61L7 60ZM23 60L23 61L24 61L24 62L23 62L23 63L24 63L24 62L25 62L25 61L26 61L26 60L25 60L25 61L24 61L24 60ZM42 60L42 61L43 61L43 60ZM33 61L33 64L36 64L36 61ZM38 61L38 62L37 62L37 65L38 65L38 66L39 66L39 67L40 67L40 66L41 66L41 67L43 67L43 68L44 68L44 66L45 66L45 67L46 67L46 66L45 66L45 64L44 64L44 66L41 66L41 64L39 64L39 65L38 65L38 62L39 62L39 61ZM61 61L61 64L64 64L64 61ZM29 62L29 63L31 63L31 62ZM34 62L34 63L35 63L35 62ZM62 62L62 63L63 63L63 62ZM65 62L65 63L66 63L66 62ZM58 63L58 64L55 64L55 65L56 65L56 66L55 66L55 68L56 68L56 67L57 67L57 66L58 66L58 68L59 68L59 66L60 66L60 63ZM67 63L67 64L65 64L65 65L67 65L67 64L68 64L68 63ZM31 65L31 66L32 66L32 65ZM34 65L34 66L35 66L35 65ZM61 65L61 66L62 66L62 65ZM63 65L63 66L64 66L64 65ZM24 68L24 69L26 69L26 68ZM0 0L0 7L7 7L7 0ZM1 1L1 6L6 6L6 1ZM2 2L2 5L5 5L5 2ZM62 0L62 7L69 7L69 0ZM63 1L63 6L68 6L68 1ZM64 2L64 5L67 5L67 2ZM0 62L0 69L7 69L7 62ZM1 63L1 68L6 68L6 63ZM2 64L2 67L5 67L5 64Z" fill="#000000"/></g></g></svg>
