<?xml version="1.0" encoding="UTF-8"?>
<svg xmlns="http://www.w3.org/2000/svg" version="1.1" width="300" height="300" viewBox="0 0 300 300"><rect x="0" y="0" width="300" height="300" fill="#ffffff"/><g transform="scale(4.348)"><g transform="translate(0,0)"><path fill-rule="evenodd" d="M8 0L8 4L9 4L9 5L8 5L8 7L9 7L9 9L7 9L7 8L4 8L4 9L2 9L2 8L0 8L0 9L2 9L2 10L0 10L0 11L2 11L2 12L1 12L1 14L0 14L0 15L1 15L1 14L2 14L2 16L1 16L1 17L2 17L2 19L4 19L4 18L5 18L5 19L7 19L7 20L5 20L5 21L4 21L4 20L2 20L2 21L3 21L3 23L2 23L2 22L1 22L1 23L2 23L2 25L3 25L3 24L4 24L4 25L8 25L8 27L9 27L9 29L8 29L8 31L7 31L7 30L6 30L6 31L7 31L7 32L3 32L3 33L2 33L2 32L1 32L1 33L0 33L0 34L3 34L3 33L4 33L4 35L3 35L3 36L0 36L0 38L2 38L2 37L3 37L3 39L2 39L2 40L1 40L1 41L2 41L2 42L3 42L3 44L1 44L1 43L0 43L0 49L3 49L3 50L5 50L5 49L9 49L9 50L6 50L6 51L7 51L7 52L5 52L5 54L6 54L6 55L7 55L7 54L8 54L8 56L6 56L6 57L9 57L9 58L10 58L10 59L8 59L8 60L6 60L6 61L8 61L8 62L9 62L9 63L8 63L8 65L10 65L10 66L11 66L11 67L14 67L14 68L12 68L12 69L15 69L15 68L16 68L16 69L19 69L19 67L20 67L20 66L21 66L21 67L22 67L22 68L21 68L21 69L22 69L22 68L26 68L26 69L29 69L29 67L28 67L28 64L29 64L29 65L30 65L30 67L31 67L31 65L32 65L32 67L33 67L33 68L32 68L32 69L38 69L38 68L36 68L36 65L38 65L38 66L37 66L37 67L38 67L38 66L39 66L39 67L40 67L40 68L39 68L39 69L40 69L40 68L41 68L41 69L43 69L43 63L42 63L42 62L44 62L44 61L45 61L45 62L46 62L46 61L47 61L47 62L48 62L48 65L47 65L47 66L48 66L48 67L47 67L47 68L46 68L46 69L52 69L52 68L55 68L55 67L57 67L57 66L56 66L56 65L59 65L59 66L61 66L61 65L62 65L62 66L64 66L64 67L63 67L63 68L62 68L62 67L61 67L61 68L62 68L62 69L65 69L65 66L66 66L66 65L65 65L65 63L66 63L66 62L67 62L67 66L69 66L69 64L68 64L68 62L69 62L69 59L68 59L68 58L69 58L69 56L68 56L68 54L67 54L67 57L68 57L68 58L67 58L67 59L68 59L68 60L67 60L67 61L66 61L66 59L64 59L64 55L66 55L66 54L64 54L64 53L63 53L63 51L64 51L64 49L65 49L65 47L66 47L66 46L67 46L67 48L68 48L68 51L67 51L67 49L66 49L66 50L65 50L65 51L67 51L67 53L69 53L69 52L68 52L68 51L69 51L69 47L68 47L68 45L69 45L69 44L68 44L68 45L67 45L67 44L65 44L65 42L64 42L64 43L63 43L63 44L62 44L62 41L59 41L59 43L60 43L60 44L62 44L62 45L61 45L61 46L58 46L58 44L56 44L56 43L58 43L58 40L63 40L63 41L67 41L67 42L66 42L66 43L68 43L68 42L69 42L69 39L68 39L68 38L69 38L69 36L68 36L68 37L67 37L67 36L66 36L66 37L65 37L65 35L66 35L66 34L67 34L67 35L68 35L68 33L66 33L66 32L63 32L63 30L64 30L64 28L65 28L65 27L68 27L68 30L65 30L65 31L68 31L68 30L69 30L69 27L68 27L68 25L67 25L67 24L68 24L68 21L69 21L69 20L68 20L68 18L67 18L67 17L69 17L69 15L68 15L68 14L69 14L69 13L68 13L68 14L67 14L67 16L66 16L66 17L64 17L64 16L65 16L65 13L67 13L67 12L65 12L65 13L64 13L64 12L63 12L63 9L64 9L64 10L66 10L66 9L67 9L67 11L68 11L68 9L69 9L69 8L65 8L65 9L64 9L64 8L63 8L63 9L62 9L62 19L61 19L61 16L60 16L60 15L59 15L59 14L61 14L61 13L60 13L60 11L61 11L61 6L60 6L60 7L59 7L59 4L58 4L58 5L56 5L56 7L57 7L57 6L58 6L58 7L59 7L59 14L58 14L58 8L56 8L56 10L55 10L55 9L52 9L52 8L53 8L53 6L54 6L54 7L55 7L55 4L53 4L53 3L54 3L54 2L55 2L55 3L59 3L59 2L56 2L56 0L53 0L53 1L54 1L54 2L52 2L52 4L53 4L53 5L51 5L51 4L50 4L50 2L51 2L51 0L50 0L50 1L48 1L48 0L47 0L47 1L46 1L46 0L45 0L45 1L44 1L44 0L41 0L41 1L39 1L39 0L38 0L38 1L39 1L39 2L40 2L40 4L38 4L38 5L37 5L37 4L36 4L36 3L35 3L35 2L37 2L37 3L38 3L38 2L37 2L37 1L35 1L35 0L34 0L34 1L35 1L35 2L34 2L34 3L32 3L32 1L33 1L33 0L31 0L31 1L30 1L30 0L29 0L29 1L30 1L30 3L32 3L32 5L31 5L31 4L30 4L30 5L29 5L29 6L28 6L28 4L29 4L29 2L28 2L28 3L27 3L27 6L26 6L26 2L27 2L27 1L26 1L26 0L23 0L23 1L22 1L22 0L17 0L17 2L15 2L15 1L13 1L13 2L14 2L14 3L13 3L13 5L12 5L12 3L10 3L10 1L9 1L9 0ZM57 0L57 1L61 1L61 0ZM19 1L19 2L17 2L17 4L16 4L16 3L15 3L15 4L14 4L14 5L13 5L13 7L14 7L14 8L12 8L12 10L11 10L11 14L9 14L9 16L8 16L8 17L6 17L6 16L7 16L7 15L8 15L8 14L7 14L7 13L6 13L6 14L5 14L5 18L7 18L7 19L8 19L8 20L7 20L7 21L6 21L6 22L7 22L7 21L8 21L8 22L9 22L9 23L11 23L11 25L10 25L10 24L8 24L8 25L10 25L10 26L9 26L9 27L12 27L12 25L13 25L13 24L12 24L12 22L11 22L11 21L10 21L10 18L11 18L11 20L12 20L12 21L13 21L13 22L14 22L14 28L13 28L13 30L12 30L12 29L11 29L11 28L10 28L10 29L9 29L9 30L11 30L11 31L9 31L9 37L10 37L10 39L11 39L11 41L10 41L10 40L9 40L9 39L8 39L8 37L4 37L4 36L3 36L3 37L4 37L4 39L6 39L6 40L5 40L5 41L6 41L6 42L7 42L7 43L5 43L5 42L4 42L4 40L3 40L3 42L4 42L4 43L5 43L5 44L4 44L4 45L3 45L3 46L2 46L2 45L1 45L1 48L2 48L2 47L3 47L3 49L4 49L4 48L5 48L5 47L6 47L6 48L7 48L7 47L8 47L8 48L9 48L9 47L11 47L11 44L13 44L13 45L16 45L16 46L15 46L15 47L16 47L16 48L15 48L15 49L14 49L14 48L11 48L11 49L10 49L10 50L11 50L11 49L12 49L12 50L13 50L13 53L14 53L14 54L13 54L13 55L10 55L10 53L11 53L11 52L12 52L12 51L9 51L9 52L8 52L8 53L9 53L9 55L10 55L10 56L15 56L15 57L17 57L17 58L16 58L16 59L15 59L15 60L16 60L16 62L15 62L15 63L14 63L14 62L12 62L12 63L11 63L11 60L12 60L12 61L14 61L14 60L12 60L12 57L11 57L11 60L9 60L9 62L10 62L10 65L11 65L11 66L12 66L12 65L14 65L14 64L15 64L15 65L16 65L16 66L15 66L15 67L17 67L17 65L18 65L18 64L19 64L19 65L20 65L20 64L22 64L22 65L21 65L21 66L22 66L22 67L23 67L23 66L22 66L22 65L23 65L23 64L22 64L22 62L23 62L23 63L25 63L25 65L27 65L27 64L28 64L28 63L27 63L27 64L26 64L26 63L25 63L25 62L24 62L24 61L26 61L26 60L29 60L29 59L28 59L28 58L30 58L30 60L32 60L32 57L33 57L33 55L32 55L32 54L33 54L33 53L32 53L32 52L31 52L31 51L33 51L33 50L34 50L34 49L35 49L35 48L37 48L37 47L38 47L38 48L39 48L39 47L40 47L40 46L41 46L41 48L40 48L40 49L39 49L39 50L38 50L38 49L37 49L37 50L36 50L36 51L35 51L35 52L34 52L34 54L36 54L36 53L38 53L38 52L37 52L37 50L38 50L38 51L39 51L39 52L40 52L40 54L41 54L41 55L40 55L40 57L39 57L39 56L38 56L38 55L34 55L34 58L33 58L33 60L34 60L34 58L36 58L36 59L35 59L35 60L38 60L38 61L37 61L37 62L38 62L38 65L39 65L39 66L40 66L40 67L41 67L41 64L40 64L40 65L39 65L39 63L40 63L40 62L41 62L41 61L44 61L44 60L45 60L45 61L46 61L46 59L45 59L45 58L44 58L44 56L45 56L45 54L44 54L44 56L43 56L43 54L41 54L41 53L44 53L44 51L43 51L43 50L42 50L42 51L41 51L41 49L42 49L42 47L43 47L43 46L41 46L41 44L42 44L42 43L44 43L44 40L45 40L45 39L46 39L46 42L45 42L45 44L46 44L46 43L48 43L48 41L47 41L47 38L48 38L48 40L52 40L52 41L51 41L51 42L50 42L50 41L49 41L49 42L50 42L50 44L49 44L49 45L46 45L46 46L49 46L49 45L50 45L50 44L51 44L51 42L52 42L52 45L51 45L51 46L52 46L52 50L50 50L50 49L51 49L51 47L47 47L47 48L46 48L46 51L49 51L49 50L50 50L50 52L49 52L49 54L50 54L50 53L52 53L52 58L51 58L51 59L50 59L50 57L51 57L51 55L49 55L49 56L50 56L50 57L46 57L46 58L48 58L48 59L47 59L47 60L48 60L48 59L50 59L50 60L49 60L49 63L50 63L50 64L49 64L49 67L48 67L48 68L50 68L50 64L52 64L52 65L56 65L56 64L59 64L59 65L60 65L60 63L59 63L59 62L60 62L60 59L61 59L61 57L62 57L62 60L63 60L63 57L62 57L62 56L61 56L61 57L60 57L60 56L59 56L59 53L60 53L60 55L64 55L64 54L61 54L61 53L60 53L60 51L61 51L61 52L62 52L62 51L63 51L63 50L62 50L62 51L61 51L61 50L59 50L59 49L60 49L60 48L59 48L59 47L58 47L58 46L57 46L57 45L56 45L56 44L54 44L54 43L55 43L55 42L57 42L57 41L56 41L56 40L57 40L57 39L58 39L58 38L59 38L59 37L58 37L58 35L60 35L60 34L59 34L59 33L58 33L58 32L57 32L57 29L58 29L58 31L59 31L59 32L61 32L61 31L62 31L62 29L63 29L63 28L64 28L64 27L65 27L65 26L64 26L64 25L66 25L66 24L67 24L67 23L66 23L66 22L67 22L67 21L68 21L68 20L67 20L67 18L66 18L66 19L65 19L65 20L64 20L64 17L63 17L63 19L62 19L62 21L61 21L61 20L60 20L60 21L61 21L61 22L59 22L59 20L58 20L58 19L59 19L59 17L60 17L60 16L59 16L59 17L58 17L58 16L57 16L57 15L58 15L58 14L57 14L57 15L56 15L56 13L55 13L55 14L53 14L53 16L52 16L52 15L51 15L51 14L52 14L52 13L53 13L53 12L55 12L55 10L53 10L53 12L52 12L52 13L51 13L51 12L50 12L50 11L52 11L52 9L51 9L51 10L50 10L50 9L49 9L49 11L48 11L48 12L50 12L50 13L49 13L49 14L48 14L48 15L47 15L47 11L46 11L46 10L47 10L47 8L49 8L49 7L50 7L50 8L52 8L52 6L51 6L51 5L50 5L50 4L49 4L49 3L48 3L48 2L44 2L44 4L43 4L43 2L42 2L42 1L41 1L41 3L42 3L42 4L43 4L43 5L44 5L44 6L43 6L43 7L42 7L42 5L40 5L40 6L39 6L39 7L38 7L38 6L37 6L37 7L38 7L38 8L37 8L37 10L36 10L36 9L33 9L33 10L31 10L31 9L32 9L32 8L31 8L31 9L28 9L28 8L30 8L30 6L31 6L31 7L32 7L32 6L31 6L31 5L30 5L30 6L29 6L29 7L28 7L28 6L27 6L27 7L28 7L28 8L27 8L27 9L28 9L28 11L26 11L26 6L25 6L25 7L24 7L24 6L23 6L23 5L24 5L24 3L25 3L25 2L26 2L26 1L25 1L25 2L24 2L24 1L23 1L23 2L24 2L24 3L23 3L23 5L21 5L21 7L20 7L20 5L19 5L19 7L20 7L20 8L19 8L19 10L17 10L17 8L18 8L18 6L17 6L17 4L19 4L19 3L22 3L22 1L21 1L21 2L20 2L20 1ZM9 3L9 4L10 4L10 3ZM34 3L34 4L35 4L35 3ZM60 3L60 5L61 5L61 3ZM15 4L15 5L14 5L14 7L15 7L15 5L16 5L16 4ZM44 4L44 5L45 5L45 6L44 6L44 7L43 7L43 8L42 8L42 9L40 9L40 8L41 8L41 6L40 6L40 7L39 7L39 8L38 8L38 10L37 10L37 13L36 13L36 11L34 11L34 10L33 10L33 11L34 11L34 12L35 12L35 14L37 14L37 13L38 13L38 15L39 15L39 16L36 16L36 18L37 18L37 17L38 17L38 18L39 18L39 17L40 17L40 20L39 20L39 19L35 19L35 17L33 17L33 16L32 16L32 13L33 13L33 12L32 12L32 11L30 11L30 10L29 10L29 11L28 11L28 12L26 12L26 11L25 11L25 10L24 10L24 9L25 9L25 8L24 8L24 7L23 7L23 6L22 6L22 8L24 8L24 9L23 9L23 10L22 10L22 9L21 9L21 8L20 8L20 10L21 10L21 11L20 11L20 15L19 15L19 12L18 12L18 11L17 11L17 10L16 10L16 8L15 8L15 9L14 9L14 10L12 10L12 11L13 11L13 12L12 12L12 13L13 13L13 14L12 14L12 15L10 15L10 16L9 16L9 17L11 17L11 18L12 18L12 20L13 20L13 21L14 21L14 22L15 22L15 24L17 24L17 25L15 25L15 27L16 27L16 26L18 26L18 28L17 28L17 29L18 29L18 30L16 30L16 28L14 28L14 29L15 29L15 30L13 30L13 31L11 31L11 32L13 32L13 31L14 31L14 32L15 32L15 33L14 33L14 35L13 35L13 36L12 36L12 35L10 35L10 36L12 36L12 40L13 40L13 42L11 42L11 43L9 43L9 44L6 44L6 45L7 45L7 46L6 46L6 47L7 47L7 46L8 46L8 47L9 47L9 46L10 46L10 45L9 45L9 44L11 44L11 43L14 43L14 44L16 44L16 45L17 45L17 46L16 46L16 47L17 47L17 49L18 49L18 50L16 50L16 49L15 49L15 50L14 50L14 53L15 53L15 54L14 54L14 55L16 55L16 56L17 56L17 57L20 57L20 58L17 58L17 59L21 59L21 57L24 57L24 58L25 58L25 60L26 60L26 59L27 59L27 58L28 58L28 57L32 57L32 56L29 56L29 55L31 55L31 54L32 54L32 53L31 53L31 52L29 52L29 51L31 51L31 50L32 50L32 48L33 48L33 49L34 49L34 47L37 47L37 45L38 45L38 46L40 46L40 45L38 45L38 44L37 44L37 45L36 45L36 46L35 46L35 45L33 45L33 44L31 44L31 43L30 43L30 42L29 42L29 43L27 43L27 42L28 42L28 41L27 41L27 40L28 40L28 39L31 39L31 40L29 40L29 41L31 41L31 40L32 40L32 41L33 41L33 42L32 42L32 43L33 43L33 42L34 42L34 44L35 44L35 42L36 42L36 43L38 43L38 42L43 42L43 41L40 41L40 38L39 38L39 37L40 37L40 36L42 36L42 37L41 37L41 40L42 40L42 38L43 38L43 40L44 40L44 38L43 38L43 37L49 37L49 35L48 35L48 34L49 34L49 32L47 32L47 30L48 30L48 29L50 29L50 30L49 30L49 31L50 31L50 30L51 30L51 31L53 31L53 32L56 32L56 33L52 33L52 32L51 32L51 33L50 33L50 34L51 34L51 35L52 35L52 36L51 36L51 37L50 37L50 38L51 38L51 39L52 39L52 40L53 40L53 43L54 43L54 42L55 42L55 40L54 40L54 38L55 38L55 39L56 39L56 37L57 37L57 38L58 38L58 37L57 37L57 35L58 35L58 33L57 33L57 32L56 32L56 30L55 30L55 28L54 28L54 27L56 27L56 26L57 26L57 25L59 25L59 28L58 28L58 27L57 27L57 28L56 28L56 29L57 29L57 28L58 28L58 29L59 29L59 31L60 31L60 30L61 30L61 29L62 29L62 28L63 28L63 27L62 27L62 26L63 26L63 25L64 25L64 23L65 23L65 22L66 22L66 21L67 21L67 20L66 20L66 21L64 21L64 20L63 20L63 21L62 21L62 22L63 22L63 23L59 23L59 24L58 24L58 23L55 23L55 24L54 24L54 23L53 23L53 22L56 22L56 21L57 21L57 22L58 22L58 20L56 20L56 21L55 21L55 19L54 19L54 18L55 18L55 16L56 16L56 18L57 18L57 19L58 19L58 17L57 17L57 16L56 16L56 15L55 15L55 16L53 16L53 18L52 18L52 19L51 19L51 17L52 17L52 16L51 16L51 15L50 15L50 14L51 14L51 13L50 13L50 14L49 14L49 15L50 15L50 16L51 16L51 17L49 17L49 16L47 16L47 15L46 15L46 13L45 13L45 12L46 12L46 11L45 11L45 10L46 10L46 9L45 9L45 8L47 8L47 6L46 6L46 4ZM9 5L9 7L10 7L10 8L11 8L11 7L12 7L12 6L11 6L11 7L10 7L10 5ZM33 5L33 8L36 8L36 5ZM48 5L48 7L49 7L49 5ZM16 6L16 7L17 7L17 6ZM34 6L34 7L35 7L35 6ZM45 6L45 7L46 7L46 6ZM50 6L50 7L51 7L51 6ZM43 8L43 10L41 10L41 12L40 12L40 13L39 13L39 15L40 15L40 17L42 17L42 16L41 16L41 15L43 15L43 17L44 17L44 15L45 15L45 16L46 16L46 15L45 15L45 14L44 14L44 15L43 15L43 14L40 14L40 13L42 13L42 12L43 12L43 11L44 11L44 10L45 10L45 9L44 9L44 8ZM4 9L4 10L5 10L5 12L4 12L4 13L2 13L2 14L3 14L3 18L4 18L4 13L5 13L5 12L8 12L8 13L10 13L10 9L9 9L9 10L7 10L7 9L6 9L6 10L5 10L5 9ZM39 9L39 10L40 10L40 9ZM2 10L2 11L3 11L3 10ZM6 10L6 11L7 11L7 10ZM14 10L14 12L16 12L16 11L15 11L15 10ZM56 10L56 11L57 11L57 10ZM8 11L8 12L9 12L9 11ZM23 11L23 12L22 12L22 14L23 14L23 12L24 12L24 11ZM29 11L29 12L28 12L28 14L27 14L27 13L25 13L25 14L24 14L24 15L23 15L23 16L22 16L22 15L20 15L20 16L22 16L22 18L23 18L23 16L24 16L24 17L25 17L25 18L27 18L27 19L26 19L26 20L24 20L24 19L21 19L21 20L22 20L22 21L21 21L21 22L20 22L20 20L19 20L19 23L18 23L18 24L19 24L19 26L20 26L20 27L19 27L19 30L18 30L18 31L16 31L16 30L15 30L15 32L17 32L17 33L15 33L15 35L16 35L16 38L13 38L13 40L14 40L14 42L15 42L15 43L16 43L16 42L17 42L17 44L18 44L18 43L19 43L19 44L20 44L20 45L19 45L19 48L18 48L18 49L19 49L19 50L18 50L18 51L20 51L20 50L21 50L21 51L22 51L22 50L24 50L24 49L25 49L25 48L27 48L27 51L25 51L25 52L24 52L24 53L23 53L23 52L22 52L22 54L21 54L21 55L22 55L22 56L24 56L24 55L25 55L25 58L27 58L27 57L28 57L28 56L27 56L27 55L28 55L28 54L31 54L31 53L28 53L28 52L27 52L27 51L28 51L28 50L29 50L29 49L28 49L28 48L27 48L27 45L26 45L26 44L27 44L27 43L26 43L26 42L27 42L27 41L26 41L26 39L27 39L27 37L26 37L26 36L28 36L28 38L30 38L30 37L29 37L29 36L30 36L30 35L32 35L32 33L30 33L30 32L29 32L29 31L30 31L30 30L29 30L29 29L28 29L28 30L29 30L29 31L28 31L28 32L29 32L29 33L27 33L27 35L26 35L26 34L25 34L25 35L24 35L24 36L23 36L23 34L22 34L22 33L24 33L24 31L23 31L23 32L22 32L22 33L21 33L21 34L20 34L20 35L19 35L19 37L17 37L17 35L16 35L16 34L17 34L17 33L18 33L18 32L19 32L19 33L20 33L20 31L22 31L22 30L23 30L23 29L24 29L24 28L25 28L25 29L26 29L26 27L27 27L27 28L28 28L28 26L30 26L30 27L32 27L32 28L31 28L31 29L33 29L33 30L32 30L32 32L33 32L33 30L34 30L34 31L35 31L35 32L37 32L37 36L38 36L38 37L36 37L36 38L34 38L34 39L33 39L33 37L32 37L32 36L31 36L31 37L32 37L32 38L31 38L31 39L33 39L33 40L34 40L34 41L36 41L36 42L38 42L38 41L36 41L36 40L37 40L37 39L38 39L38 40L39 40L39 38L38 38L38 37L39 37L39 36L40 36L40 35L41 35L41 34L38 34L38 33L39 33L39 32L37 32L37 31L39 31L39 30L41 30L41 29L44 29L44 28L40 28L40 29L39 29L39 30L38 30L38 29L37 29L37 26L38 26L38 25L37 25L37 24L39 24L39 23L40 23L40 27L41 27L41 25L43 25L43 27L45 27L45 29L46 29L46 30L43 30L43 31L41 31L41 32L40 32L40 33L44 33L44 34L43 34L43 35L42 35L42 36L43 36L43 35L44 35L44 34L45 34L45 33L46 33L46 35L45 35L45 36L46 36L46 35L47 35L47 32L45 32L45 33L44 33L44 31L46 31L46 30L47 30L47 29L48 29L48 27L49 27L49 26L47 26L47 25L48 25L48 22L47 22L47 20L50 20L50 21L49 21L49 23L50 23L50 24L49 24L49 25L50 25L50 24L52 24L52 25L51 25L51 27L50 27L50 28L51 28L51 29L54 29L54 28L53 28L53 27L54 27L54 25L53 25L53 24L52 24L52 21L53 21L53 19L52 19L52 21L51 21L51 19L49 19L49 18L47 18L47 17L45 17L45 19L44 19L44 18L41 18L41 20L40 20L40 21L39 21L39 23L37 23L37 22L35 22L35 21L36 21L36 20L34 20L34 18L31 18L31 19L29 19L29 18L30 18L30 17L29 17L29 15L28 15L28 14L29 14L29 13L30 13L30 16L31 16L31 13L32 13L32 12L31 12L31 13L30 13L30 11ZM38 11L38 12L39 12L39 11ZM14 13L14 15L12 15L12 16L15 16L15 18L14 18L14 17L13 17L13 18L14 18L14 19L13 19L13 20L14 20L14 21L15 21L15 22L16 22L16 21L17 21L17 22L18 22L18 21L17 21L17 20L15 20L15 19L17 19L17 18L18 18L18 19L20 19L20 18L21 18L21 17L19 17L19 16L18 16L18 17L16 17L16 16L17 16L17 15L18 15L18 13L17 13L17 14L16 14L16 13ZM63 13L63 15L64 15L64 13ZM6 14L6 15L7 15L7 14ZM15 14L15 15L16 15L16 14ZM25 14L25 17L27 17L27 18L28 18L28 17L27 17L27 16L28 16L28 15L27 15L27 16L26 16L26 14ZM34 15L34 16L35 16L35 15ZM18 17L18 18L19 18L19 17ZM0 18L0 21L1 21L1 18ZM8 18L8 19L9 19L9 18ZM27 19L27 20L26 20L26 21L27 21L27 22L26 22L26 23L24 23L24 22L25 22L25 21L23 21L23 24L22 24L22 23L21 23L21 25L20 25L20 26L21 26L21 27L20 27L20 30L21 30L21 29L22 29L22 27L23 27L23 28L24 28L24 27L23 27L23 26L21 26L21 25L24 25L24 26L25 26L25 27L26 27L26 26L28 26L28 25L27 25L27 24L28 24L28 23L34 23L34 24L29 24L29 25L30 25L30 26L31 26L31 25L33 25L33 26L32 26L32 27L33 27L33 26L35 26L35 25L34 25L34 24L36 24L36 23L34 23L34 22L33 22L33 20L32 20L32 19L31 19L31 20L29 20L29 19ZM42 19L42 20L44 20L44 22L45 22L45 23L44 23L44 25L45 25L45 27L46 27L46 28L47 28L47 26L46 26L46 25L47 25L47 23L46 23L46 21L45 21L45 20L44 20L44 19ZM46 19L46 20L47 20L47 19ZM8 20L8 21L9 21L9 20ZM31 20L31 21L30 21L30 22L32 22L32 20ZM37 20L37 21L38 21L38 20ZM28 21L28 22L27 22L27 23L26 23L26 24L25 24L25 26L26 26L26 24L27 24L27 23L28 23L28 22L29 22L29 21ZM40 21L40 23L41 23L41 24L42 24L42 23L43 23L43 21L42 21L42 23L41 23L41 21ZM50 21L50 23L51 23L51 21ZM63 21L63 22L64 22L64 21ZM5 23L5 24L7 24L7 23ZM19 23L19 24L20 24L20 23ZM0 24L0 25L1 25L1 24ZM36 25L36 26L37 26L37 25ZM52 25L52 27L53 27L53 25ZM55 25L55 26L56 26L56 25ZM61 25L61 26L62 26L62 25ZM0 26L0 27L2 27L2 28L1 28L1 30L2 30L2 31L4 31L4 30L5 30L5 28L6 28L6 29L7 29L7 28L6 28L6 27L7 27L7 26L5 26L5 28L4 28L4 27L3 27L3 26ZM34 27L34 28L33 28L33 29L34 29L34 30L35 30L35 31L36 31L36 29L34 29L34 28L35 28L35 27ZM61 27L61 28L62 28L62 27ZM2 28L2 29L3 29L3 28ZM59 28L59 29L60 29L60 28ZM25 30L25 31L27 31L27 30ZM54 30L54 31L55 31L55 30ZM25 32L25 33L26 33L26 32ZM5 33L5 36L8 36L8 33ZM29 33L29 34L28 34L28 36L29 36L29 35L30 35L30 33ZM33 33L33 36L36 36L36 33ZM56 33L56 35L55 35L55 34L52 34L52 35L53 35L53 36L52 36L52 37L51 37L51 38L52 38L52 37L54 37L54 36L55 36L55 37L56 37L56 35L57 35L57 33ZM61 33L61 36L64 36L64 33ZM6 34L6 35L7 35L7 34ZM34 34L34 35L35 35L35 34ZM62 34L62 35L63 35L63 34ZM21 35L21 36L20 36L20 39L17 39L17 38L16 38L16 39L15 39L15 41L16 41L16 39L17 39L17 41L19 41L19 43L22 43L22 44L21 44L21 45L20 45L20 46L22 46L22 44L23 44L23 43L24 43L24 45L23 45L23 46L25 46L25 47L26 47L26 45L25 45L25 44L26 44L26 43L25 43L25 42L26 42L26 41L25 41L25 40L24 40L24 39L23 39L23 38L25 38L25 39L26 39L26 37L25 37L25 36L24 36L24 37L23 37L23 38L21 38L21 37L22 37L22 35ZM13 36L13 37L15 37L15 36ZM61 37L61 38L62 38L62 39L64 39L64 40L67 40L67 41L68 41L68 40L67 40L67 39L66 39L66 38L67 38L67 37L66 37L66 38L65 38L65 37L63 37L63 38L62 38L62 37ZM6 38L6 39L7 39L7 38ZM64 38L64 39L65 39L65 38ZM21 39L21 40L19 40L19 41L22 41L22 43L23 43L23 41L24 41L24 42L25 42L25 41L24 41L24 40L22 40L22 39ZM34 39L34 40L35 40L35 39ZM6 40L6 41L7 41L7 42L8 42L8 41L9 41L9 40ZM60 42L60 43L61 43L61 42ZM63 44L63 45L64 45L64 46L62 46L62 48L61 48L61 49L62 49L62 48L63 48L63 49L64 49L64 48L63 48L63 47L65 47L65 46L66 46L66 45L65 45L65 44ZM4 45L4 46L3 46L3 47L5 47L5 45ZM8 45L8 46L9 46L9 45ZM28 45L28 47L29 47L29 45ZM30 45L30 48L31 48L31 47L32 47L32 46L33 46L33 47L34 47L34 46L33 46L33 45ZM44 45L44 46L45 46L45 45ZM52 45L52 46L53 46L53 48L54 48L54 46L55 46L55 47L57 47L57 46L55 46L55 45ZM13 46L13 47L14 47L14 46ZM17 46L17 47L18 47L18 46ZM20 47L20 48L19 48L19 49L22 49L22 48L23 48L23 49L24 49L24 48L23 48L23 47ZM44 47L44 48L43 48L43 49L44 49L44 50L45 50L45 49L44 49L44 48L45 48L45 47ZM47 48L47 50L49 50L49 49L50 49L50 48ZM56 48L56 49L53 49L53 50L52 50L52 51L53 51L53 50L55 50L55 52L53 52L53 54L54 54L54 56L55 56L55 52L56 52L56 54L57 54L57 56L56 56L56 57L57 57L57 60L56 60L56 61L57 61L57 62L56 62L56 63L58 63L58 61L59 61L59 60L58 60L58 59L60 59L60 57L59 57L59 58L58 58L58 57L57 57L57 56L58 56L58 49L59 49L59 48L58 48L58 49L57 49L57 48ZM1 50L1 52L2 52L2 53L0 53L0 55L1 55L1 54L2 54L2 53L4 53L4 52L3 52L3 51L2 51L2 50ZM56 50L56 51L57 51L57 50ZM15 51L15 53L16 53L16 54L18 54L18 55L17 55L17 56L20 56L20 53L17 53L17 51ZM40 51L40 52L41 52L41 51ZM9 52L9 53L10 53L10 52ZM26 52L26 53L24 53L24 54L26 54L26 55L27 55L27 54L28 54L28 53L27 53L27 52ZM46 52L46 54L47 54L47 55L48 55L48 54L47 54L47 52ZM6 53L6 54L7 54L7 53ZM26 53L26 54L27 54L27 53ZM3 55L3 56L4 56L4 57L3 57L3 58L2 58L2 59L3 59L3 58L4 58L4 59L7 59L7 58L5 58L5 56L4 56L4 55ZM0 56L0 61L1 61L1 57L2 57L2 56ZM26 56L26 57L27 57L27 56ZM37 56L37 59L40 59L40 60L39 60L39 61L38 61L38 62L39 62L39 61L40 61L40 60L43 60L43 59L44 59L44 58L43 58L43 56L42 56L42 57L40 57L40 58L39 58L39 57L38 57L38 56ZM13 57L13 59L14 59L14 57ZM53 57L53 58L52 58L52 59L51 59L51 60L50 60L50 62L51 62L51 63L52 63L52 64L53 64L53 62L54 62L54 63L55 63L55 61L54 61L54 60L53 60L53 59L54 59L54 58L55 58L55 57ZM22 58L22 60L21 60L21 61L20 61L20 60L18 60L18 61L17 61L17 63L15 63L15 64L16 64L16 65L17 65L17 63L18 63L18 61L20 61L20 62L19 62L19 64L20 64L20 63L21 63L21 61L22 61L22 60L23 60L23 61L24 61L24 59L23 59L23 58ZM40 58L40 59L41 59L41 58ZM3 60L3 61L5 61L5 60ZM52 60L52 61L51 61L51 62L53 62L53 60ZM57 60L57 61L58 61L58 60ZM27 61L27 62L29 62L29 63L32 63L32 61L31 61L31 62L29 62L29 61ZM33 61L33 64L36 64L36 61ZM61 61L61 64L64 64L64 61ZM67 61L67 62L68 62L68 61ZM34 62L34 63L35 63L35 62ZM62 62L62 63L63 63L63 62ZM12 63L12 64L14 64L14 63ZM44 63L44 67L45 67L45 65L46 65L46 64L45 64L45 63ZM34 65L34 66L33 66L33 67L34 67L34 68L35 68L35 65ZM25 66L25 67L27 67L27 68L28 68L28 67L27 67L27 66ZM51 66L51 68L52 68L52 66ZM53 66L53 67L55 67L55 66ZM8 67L8 69L9 69L9 67ZM10 68L10 69L11 69L11 68ZM30 68L30 69L31 69L31 68ZM44 68L44 69L45 69L45 68ZM56 68L56 69L57 69L57 68ZM66 68L66 69L67 69L67 68ZM68 68L68 69L69 69L69 68ZM0 0L0 7L7 7L7 0ZM1 1L1 6L6 6L6 1ZM2 2L2 5L5 5L5 2ZM62 0L62 7L69 7L69 0ZM63 1L63 6L68 6L68 1ZM64 2L64 5L67 5L67 2ZM0 62L0 69L7 69L7 62ZM1 63L1 68L6 68L6 63ZM2 64L2 67L5 67L5 64Z" fill="#000000"/></g></g></svg>
