<?xml version="1.0" encoding="UTF-8"?>
<svg xmlns="http://www.w3.org/2000/svg" version="1.1" width="300" height="300" viewBox="0 0 300 300"><rect x="0" y="0" width="300" height="300" fill="#ffffff"/><g transform="scale(4.348)"><g transform="translate(0,0)"><path fill-rule="evenodd" d="M8 0L8 1L9 1L9 0ZM10 0L10 1L16 1L16 2L17 2L17 1L19 1L19 3L15 3L15 4L17 4L17 5L16 5L16 7L15 7L15 5L14 5L14 4L13 4L13 3L12 3L12 2L10 2L10 3L9 3L9 2L8 2L8 5L9 5L9 4L10 4L10 5L11 5L11 6L10 6L10 9L9 9L9 8L8 8L8 9L9 9L9 12L6 12L6 11L8 11L8 10L6 10L6 9L7 9L7 8L6 8L6 9L4 9L4 8L0 8L0 10L2 10L2 11L1 11L1 12L0 12L0 13L1 13L1 14L0 14L0 15L2 15L2 13L1 13L1 12L4 12L4 13L5 13L5 15L8 15L8 14L9 14L9 16L8 16L8 18L9 18L9 19L8 19L8 20L6 20L6 19L7 19L7 18L6 18L6 17L7 17L7 16L6 16L6 17L5 17L5 16L3 16L3 17L2 17L2 16L0 16L0 17L1 17L1 18L0 18L0 19L1 19L1 18L4 18L4 17L5 17L5 20L4 20L4 21L1 21L1 22L0 22L0 23L1 23L1 25L0 25L0 26L1 26L1 25L2 25L2 23L3 23L3 24L4 24L4 23L5 23L5 26L6 26L6 27L2 27L2 28L1 28L1 30L2 30L2 29L5 29L5 28L6 28L6 29L7 29L7 28L6 28L6 27L7 27L7 26L9 26L9 27L10 27L10 28L9 28L9 32L6 32L6 31L8 31L8 30L5 30L5 32L4 32L4 33L3 33L3 31L4 31L4 30L3 30L3 31L1 31L1 32L2 32L2 34L4 34L4 37L7 37L7 38L6 38L6 39L8 39L8 38L9 38L9 40L5 40L5 39L4 39L4 38L3 38L3 37L2 37L2 36L3 36L3 35L1 35L1 33L0 33L0 36L1 36L1 37L0 37L0 38L1 38L1 39L0 39L0 41L1 41L1 42L0 42L0 43L1 43L1 42L4 42L4 43L7 43L7 44L5 44L5 45L8 45L8 44L9 44L9 43L10 43L10 45L9 45L9 46L10 46L10 47L11 47L11 48L6 48L6 47L8 47L8 46L6 46L6 47L5 47L5 46L4 46L4 45L3 45L3 47L2 47L2 45L1 45L1 44L0 44L0 47L2 47L2 48L3 48L3 47L4 47L4 48L6 48L6 49L5 49L5 50L4 50L4 49L1 49L1 48L0 48L0 49L1 49L1 51L2 51L2 52L0 52L0 57L3 57L3 58L2 58L2 59L3 59L3 58L4 58L4 59L7 59L7 58L8 58L8 62L9 62L9 63L10 63L10 64L9 64L9 65L8 65L8 69L11 69L11 67L9 67L9 65L10 65L10 66L11 66L11 65L13 65L13 64L14 64L14 66L13 66L13 68L12 68L12 69L14 69L14 68L15 68L15 69L18 69L18 68L19 68L19 69L26 69L26 67L25 67L25 68L23 68L23 67L24 67L24 64L25 64L25 66L26 66L26 64L27 64L27 63L31 63L31 65L29 65L29 66L28 66L28 65L27 65L27 68L29 68L29 69L30 69L30 68L33 68L33 69L34 69L34 67L35 67L35 66L37 66L37 67L38 67L38 68L39 68L39 69L42 69L42 67L41 67L41 66L42 66L42 65L40 65L40 64L41 64L41 62L39 62L39 61L40 61L40 60L41 60L41 61L42 61L42 60L41 60L41 59L42 59L42 58L43 58L43 56L41 56L41 55L42 55L42 54L40 54L40 56L39 56L39 58L40 58L40 60L39 60L39 59L38 59L38 60L39 60L39 61L37 61L37 60L36 60L36 59L37 59L37 58L38 58L38 57L35 57L35 53L33 53L33 52L32 52L32 54L34 54L34 55L32 55L32 56L33 56L33 57L29 57L29 58L26 58L26 57L24 57L24 55L26 55L26 56L28 56L28 55L29 55L29 54L30 54L30 55L31 55L31 53L29 53L29 52L28 52L28 51L33 51L33 50L34 50L34 51L35 51L35 52L39 52L39 53L38 53L38 54L39 54L39 53L40 53L40 52L42 52L42 53L43 53L43 54L44 54L44 55L46 55L46 54L47 54L47 57L48 57L48 56L49 56L49 58L47 58L47 59L48 59L48 60L47 60L47 61L49 61L49 62L48 62L48 64L49 64L49 63L50 63L50 65L52 65L52 62L51 62L51 60L52 60L52 59L53 59L53 60L54 60L54 61L56 61L56 62L54 62L54 64L53 64L53 66L51 66L51 67L53 67L53 68L49 68L49 67L50 67L50 66L49 66L49 65L48 65L48 66L49 66L49 67L48 67L48 68L47 68L47 65L46 65L46 68L45 68L45 69L48 69L48 68L49 68L49 69L53 69L53 68L54 68L54 69L55 69L55 67L53 67L53 66L54 66L54 65L55 65L55 66L56 66L56 67L58 67L58 69L59 69L59 68L60 68L60 69L63 69L63 68L64 68L64 69L66 69L66 68L64 68L64 67L62 67L62 65L63 65L63 66L64 66L64 65L66 65L66 67L67 67L67 66L68 66L68 65L69 65L69 63L68 63L68 65L67 65L67 63L65 63L65 60L66 60L66 59L67 59L67 60L68 60L68 61L69 61L69 56L66 56L66 55L64 55L64 57L65 57L65 60L64 60L64 58L63 58L63 55L62 55L62 54L61 54L61 52L59 52L59 53L57 53L57 51L56 51L56 50L58 50L58 48L59 48L59 47L60 47L60 50L59 50L59 51L60 51L60 50L61 50L61 49L63 49L63 51L62 51L62 52L64 52L64 49L63 49L63 47L64 47L64 48L66 48L66 46L67 46L67 50L68 50L68 49L69 49L69 48L68 48L68 47L69 47L69 45L68 45L68 42L69 42L69 41L67 41L67 40L69 40L69 39L66 39L66 38L67 38L67 37L68 37L68 38L69 38L69 37L68 37L68 36L69 36L69 31L68 31L68 30L67 30L67 29L68 29L68 28L67 28L67 27L66 27L66 25L68 25L68 26L69 26L69 24L66 24L66 23L65 23L65 21L66 21L66 22L67 22L67 23L69 23L69 21L68 21L68 22L67 22L67 21L66 21L66 20L63 20L63 18L62 18L62 20L61 20L61 21L59 21L59 20L60 20L60 17L64 17L64 14L65 14L65 19L67 19L67 20L69 20L69 19L68 19L68 18L69 18L69 16L68 16L68 15L66 15L66 14L67 14L67 13L68 13L68 12L66 12L66 11L67 11L67 10L68 10L68 11L69 11L69 8L68 8L68 9L67 9L67 8L64 8L64 10L63 10L63 11L62 11L62 12L61 12L61 10L62 10L62 8L61 8L61 6L60 6L60 7L59 7L59 4L58 4L58 7L59 7L59 8L57 8L57 9L59 9L59 11L58 11L58 10L56 10L56 7L57 7L57 5L55 5L55 6L54 6L54 7L53 7L53 5L52 5L52 4L49 4L49 3L47 3L47 1L49 1L49 2L51 2L51 3L53 3L53 4L54 4L54 3L55 3L55 4L56 4L56 3L55 3L55 2L56 2L56 1L61 1L61 0L53 0L53 2L52 2L52 0L51 0L51 1L50 1L50 0L47 0L47 1L46 1L46 0L44 0L44 2L43 2L43 3L42 3L42 1L43 1L43 0L41 0L41 1L40 1L40 2L41 2L41 3L42 3L42 4L43 4L43 6L42 6L42 5L40 5L40 4L38 4L38 1L37 1L37 3L35 3L35 2L36 2L36 0L35 0L35 2L34 2L34 0L33 0L33 1L32 1L32 0L31 0L31 1L32 1L32 2L29 2L29 1L30 1L30 0L28 0L28 2L27 2L27 1L25 1L25 0L23 0L23 2L24 2L24 3L25 3L25 4L26 4L26 5L27 5L27 6L26 6L26 7L25 7L25 5L24 5L24 7L23 7L23 4L22 4L22 7L21 7L21 3L20 3L20 2L22 2L22 0L21 0L21 1L19 1L19 0L17 0L17 1L16 1L16 0ZM24 1L24 2L25 2L25 1ZM54 1L54 2L53 2L53 3L54 3L54 2L55 2L55 1ZM26 2L26 4L28 4L28 6L27 6L27 7L26 7L26 8L25 8L25 7L24 7L24 8L23 8L23 7L22 7L22 8L21 8L21 9L20 9L20 10L19 10L19 11L18 11L18 9L19 9L19 8L20 8L20 6L19 6L19 4L20 4L20 3L19 3L19 4L18 4L18 5L17 5L17 7L18 7L18 6L19 6L19 8L18 8L18 9L17 9L17 8L16 8L16 9L15 9L15 7L14 7L14 5L13 5L13 7L12 7L12 6L11 6L11 7L12 7L12 8L11 8L11 9L10 9L10 10L12 10L12 8L13 8L13 9L14 9L14 11L13 11L13 12L14 12L14 11L15 11L15 10L16 10L16 11L18 11L18 12L19 12L19 11L20 11L20 13L21 13L21 14L22 14L22 15L20 15L20 14L19 14L19 13L18 13L18 14L19 14L19 15L17 15L17 18L16 18L16 16L15 16L15 14L17 14L17 13L15 13L15 14L14 14L14 15L12 15L12 16L11 16L11 15L10 15L10 16L9 16L9 17L10 17L10 18L12 18L12 19L9 19L9 21L6 21L6 20L5 20L5 22L10 22L10 23L9 23L9 24L8 24L8 25L9 25L9 26L10 26L10 27L11 27L11 28L10 28L10 29L11 29L11 28L12 28L12 29L13 29L13 30L10 30L10 32L9 32L9 34L10 34L10 32L11 32L11 33L12 33L12 35L14 35L14 34L13 34L13 33L12 33L12 32L11 32L11 31L13 31L13 32L14 32L14 31L13 31L13 30L15 30L15 29L17 29L17 30L16 30L16 32L17 32L17 33L15 33L15 37L14 37L14 36L10 36L10 35L9 35L9 36L10 36L10 37L11 37L11 38L12 38L12 40L14 40L14 42L13 42L13 41L12 41L12 42L11 42L11 41L10 41L10 40L9 40L9 41L4 41L4 39L3 39L3 38L2 38L2 40L3 40L3 41L4 41L4 42L8 42L8 43L9 43L9 41L10 41L10 43L11 43L11 45L10 45L10 46L14 46L14 47L12 47L12 48L11 48L11 49L6 49L6 50L5 50L5 51L4 51L4 52L2 52L2 53L3 53L3 54L2 54L2 55L1 55L1 56L3 56L3 57L4 57L4 58L5 58L5 57L6 57L6 58L7 58L7 57L6 57L6 56L8 56L8 55L6 55L6 54L7 54L7 53L8 53L8 54L9 54L9 57L11 57L11 56L10 56L10 53L12 53L12 54L11 54L11 55L12 55L12 56L14 56L14 55L12 55L12 54L13 54L13 53L14 53L14 51L13 51L13 50L12 50L12 48L13 48L13 49L14 49L14 50L15 50L15 52L16 52L16 53L18 53L18 54L17 54L17 55L19 55L19 56L18 56L18 57L17 57L17 59L16 59L16 55L15 55L15 59L14 59L14 60L13 60L13 61L15 61L15 59L16 59L16 62L15 62L15 63L20 63L20 64L21 64L21 63L20 63L20 61L19 61L19 62L18 62L18 61L17 61L17 59L19 59L19 60L21 60L21 62L23 62L23 60L24 60L24 63L25 63L25 64L26 64L26 62L25 62L25 58L24 58L24 57L23 57L23 56L22 56L22 54L21 54L21 53L20 53L20 52L18 52L18 51L19 51L19 49L20 49L20 50L21 50L21 49L23 49L23 50L25 50L25 51L24 51L24 54L23 54L23 55L24 55L24 54L26 54L26 55L28 55L28 53L25 53L25 51L26 51L26 52L27 52L27 50L29 50L29 48L31 48L31 49L30 49L30 50L31 50L31 49L32 49L32 48L33 48L33 49L34 49L34 50L35 50L35 51L43 51L43 52L44 52L44 50L45 50L45 48L46 48L46 50L47 50L47 53L49 53L49 54L50 54L50 55L51 55L51 56L50 56L50 58L49 58L49 59L51 59L51 56L52 56L52 54L51 54L51 52L52 52L52 53L54 53L54 55L53 55L53 57L54 57L54 56L55 56L55 57L56 57L56 58L58 58L58 59L59 59L59 61L58 61L58 62L57 62L57 63L59 63L59 64L57 64L57 65L59 65L59 66L58 66L58 67L59 67L59 66L61 66L61 65L60 65L60 59L59 59L59 57L61 57L61 58L62 58L62 56L59 56L59 54L60 54L60 55L61 55L61 54L60 54L60 53L59 53L59 54L57 54L57 53L56 53L56 54L55 54L55 52L56 52L56 51L55 51L55 49L54 49L54 48L56 48L56 49L57 49L57 47L59 47L59 45L60 45L60 46L66 46L66 45L67 45L67 46L68 46L68 45L67 45L67 41L66 41L66 39L65 39L65 41L66 41L66 43L65 43L65 44L63 44L63 42L62 42L62 40L61 40L61 38L60 38L60 35L59 35L59 33L58 33L58 32L61 32L61 31L62 31L62 32L63 32L63 31L65 31L65 32L68 32L68 31L67 31L67 30L66 30L66 28L65 28L65 27L64 27L64 30L63 30L63 27L62 27L62 29L61 29L61 27L60 27L60 26L61 26L61 25L63 25L63 26L65 26L65 24L64 24L64 22L63 22L63 21L62 21L62 22L63 22L63 23L61 23L61 22L59 22L59 21L58 21L58 22L59 22L59 23L61 23L61 25L60 25L60 24L59 24L59 25L58 25L58 24L56 24L56 23L54 23L54 21L55 21L55 22L56 22L56 21L57 21L57 20L58 20L58 19L59 19L59 18L57 18L57 17L59 17L59 16L60 16L60 15L61 15L61 16L62 16L62 15L63 15L63 14L64 14L64 13L66 13L66 12L63 12L63 14L62 14L62 15L61 15L61 12L60 12L60 11L59 11L59 12L58 12L58 11L57 11L57 12L56 12L56 13L55 13L55 10L53 10L53 9L51 9L51 8L53 8L53 7L52 7L52 5L50 5L50 6L49 6L49 7L48 7L48 5L47 5L47 3L46 3L46 5L45 5L45 8L44 8L44 6L43 6L43 9L45 9L45 10L46 10L46 12L48 12L48 11L47 11L47 9L46 9L46 8L48 8L48 9L49 9L49 8L50 8L50 10L49 10L49 11L52 11L52 12L50 12L50 13L51 13L51 14L49 14L49 13L46 13L46 14L47 14L47 15L48 15L48 14L49 14L49 16L46 16L46 17L47 17L47 18L49 18L49 17L50 17L50 18L51 18L51 19L46 19L46 21L45 21L45 20L44 20L44 18L45 18L45 17L44 17L44 18L43 18L43 16L44 16L44 14L45 14L45 12L44 12L44 10L43 10L43 12L41 12L41 13L42 13L42 14L43 14L43 15L41 15L41 14L40 14L40 11L42 11L42 10L41 10L41 9L42 9L42 8L41 8L41 9L40 9L40 11L39 11L39 8L40 8L40 6L39 6L39 5L38 5L38 4L37 4L37 7L38 7L38 11L37 11L37 12L36 12L36 9L35 9L35 10L33 10L33 11L32 11L32 13L30 13L30 14L29 14L29 12L30 12L30 11L29 11L29 10L30 10L30 9L27 9L27 7L28 7L28 8L29 8L29 7L30 7L30 6L29 6L29 5L31 5L31 4L29 4L29 2L28 2L28 3L27 3L27 2ZM32 2L32 4L35 4L35 3L33 3L33 2ZM58 2L58 3L59 3L59 2ZM10 3L10 4L11 4L11 5L12 5L12 3ZM44 3L44 4L45 4L45 3ZM60 3L60 5L61 5L61 3ZM33 5L33 8L36 8L36 5ZM46 5L46 7L47 7L47 5ZM8 6L8 7L9 7L9 6ZM28 6L28 7L29 7L29 6ZM31 6L31 7L32 7L32 6ZM34 6L34 7L35 7L35 6ZM38 6L38 7L39 7L39 6ZM41 6L41 7L42 7L42 6ZM50 6L50 7L51 7L51 6ZM55 6L55 7L54 7L54 8L55 8L55 7L56 7L56 6ZM13 7L13 8L14 8L14 7ZM22 8L22 9L23 9L23 10L21 10L21 11L23 11L23 12L24 12L24 13L26 13L26 12L29 12L29 11L25 11L25 10L24 10L24 9L23 9L23 8ZM60 8L60 9L61 9L61 8ZM2 9L2 10L3 10L3 11L4 11L4 12L5 12L5 13L6 13L6 14L7 14L7 13L6 13L6 12L5 12L5 11L6 11L6 10L5 10L5 11L4 11L4 10L3 10L3 9ZM16 9L16 10L17 10L17 9ZM26 9L26 10L27 10L27 9ZM31 9L31 10L32 10L32 9ZM65 9L65 10L64 10L64 11L65 11L65 10L67 10L67 9ZM10 11L10 12L11 12L11 13L9 13L9 14L13 14L13 13L12 13L12 11ZM33 11L33 13L32 13L32 14L30 14L30 15L28 15L28 13L27 13L27 16L26 16L26 14L25 14L25 15L22 15L22 16L20 16L20 19L17 19L17 22L16 22L16 18L15 18L15 19L14 19L14 20L13 20L13 22L12 22L12 21L11 21L11 20L10 20L10 22L11 22L11 23L14 23L14 25L15 25L15 26L14 26L14 28L13 28L13 29L15 29L15 26L17 26L17 27L16 27L16 28L18 28L18 27L19 27L19 25L20 25L20 27L21 27L21 24L19 24L19 23L18 23L18 24L17 24L17 22L20 22L20 23L24 23L24 24L22 24L22 25L23 25L23 26L22 26L22 27L24 27L24 28L23 28L23 30L22 30L22 29L21 29L21 28L19 28L19 29L21 29L21 31L19 31L19 30L18 30L18 31L19 31L19 32L21 32L21 33L23 33L23 34L19 34L19 33L17 33L17 34L16 34L16 35L18 35L18 36L17 36L17 39L18 39L18 40L19 40L19 41L18 41L18 42L17 42L17 41L16 41L16 40L15 40L15 39L16 39L16 37L15 37L15 38L14 38L14 37L13 37L13 38L14 38L14 40L15 40L15 41L16 41L16 42L17 42L17 44L15 44L15 45L14 45L14 46L15 46L15 47L14 47L14 48L15 48L15 50L16 50L16 51L18 51L18 48L19 48L19 47L21 47L21 48L23 48L23 49L25 49L25 50L27 50L27 49L25 49L25 48L23 48L23 47L22 47L22 46L20 46L20 44L21 44L21 45L23 45L23 46L24 46L24 47L25 47L25 46L26 46L26 47L27 47L27 46L26 46L26 45L24 45L24 44L27 44L27 45L29 45L29 47L28 47L28 48L29 48L29 47L31 47L31 48L32 48L32 47L31 47L31 46L30 46L30 44L27 44L27 43L31 43L31 44L32 44L32 45L35 45L35 44L36 44L36 42L37 42L37 41L36 41L36 42L35 42L35 41L34 41L34 39L33 39L33 37L36 37L36 38L35 38L35 39L36 39L36 40L39 40L39 42L40 42L40 43L43 43L43 45L42 45L42 44L41 44L41 45L40 45L40 44L38 44L38 43L37 43L37 46L38 46L38 45L39 45L39 47L38 47L38 48L37 48L37 47L36 47L36 46L34 46L34 47L33 47L33 48L37 48L37 49L36 49L36 50L40 50L40 49L38 49L38 48L39 48L39 47L40 47L40 48L42 48L42 49L44 49L44 48L43 48L43 46L44 46L44 47L46 47L46 48L47 48L47 50L53 50L53 51L52 51L52 52L55 52L55 51L54 51L54 50L53 50L53 49L52 49L52 47L49 47L49 46L50 46L50 42L49 42L49 43L48 43L48 41L46 41L46 40L47 40L47 39L45 39L45 38L46 38L46 37L47 37L47 36L48 36L48 39L49 39L49 34L50 34L50 33L49 33L49 34L48 34L48 32L49 32L49 29L46 29L46 27L47 27L47 26L46 26L46 25L47 25L47 24L48 24L48 26L50 26L50 27L49 27L49 28L50 28L50 29L51 29L51 30L50 30L50 32L51 32L51 33L53 33L53 34L55 34L55 35L57 35L57 33L56 33L56 34L55 34L55 32L54 32L54 31L53 31L53 30L54 30L54 29L53 29L53 30L52 30L52 29L51 29L51 28L50 28L50 27L51 27L51 26L52 26L52 28L55 28L55 31L56 31L56 29L57 29L57 32L58 32L58 30L60 30L60 31L61 31L61 30L60 30L60 29L59 29L59 28L60 28L60 27L59 27L59 26L58 26L58 25L55 25L55 26L58 26L58 29L57 29L57 28L55 28L55 27L54 27L54 26L53 26L53 25L51 25L51 24L50 24L50 23L48 23L48 20L47 20L47 23L46 23L46 25L44 25L44 23L43 23L43 24L42 24L42 23L41 23L41 22L44 22L44 21L43 21L43 20L41 20L41 19L43 19L43 18L42 18L42 16L41 16L41 17L40 17L40 14L39 14L39 13L36 13L36 12L35 12L35 11ZM53 11L53 12L54 12L54 11ZM43 12L43 13L44 13L44 12ZM57 12L57 14L56 14L56 15L57 15L57 14L58 14L58 15L60 15L60 12L59 12L59 14L58 14L58 12ZM33 13L33 14L32 14L32 17L31 17L31 16L28 16L28 17L26 17L26 16L24 16L24 18L23 18L23 19L22 19L22 18L21 18L21 19L20 19L20 22L21 22L21 20L23 20L23 21L22 21L22 22L23 22L23 21L24 21L24 19L25 19L25 18L26 18L26 19L27 19L27 20L25 20L25 23L26 23L26 21L27 21L27 24L26 24L26 25L24 25L24 27L25 27L25 26L27 26L27 25L28 25L28 26L30 26L30 29L31 29L31 30L29 30L29 31L25 31L25 28L24 28L24 30L23 30L23 31L21 31L21 32L23 32L23 33L25 33L25 34L24 34L24 36L25 36L25 34L27 34L27 35L26 35L26 38L25 38L25 37L23 37L23 35L22 35L22 36L21 36L21 35L20 35L20 36L19 36L19 37L21 37L21 40L20 40L20 41L19 41L19 42L20 42L20 43L21 43L21 44L22 44L22 43L23 43L23 44L24 44L24 43L25 43L25 42L22 42L22 43L21 43L21 41L23 41L23 39L24 39L24 41L25 41L25 39L26 39L26 40L29 40L29 42L31 42L31 43L33 43L33 44L35 44L35 43L33 43L33 42L34 42L34 41L33 41L33 39L32 39L32 40L31 40L31 39L28 39L28 38L29 38L29 36L31 36L31 35L32 35L32 34L31 34L31 35L28 35L28 32L29 32L29 31L33 31L33 30L32 30L32 29L33 29L33 28L34 28L34 30L35 30L35 27L37 27L37 25L40 25L40 26L38 26L38 28L36 28L36 30L37 30L37 31L35 31L35 32L37 32L37 33L38 33L38 34L37 34L37 35L38 35L38 37L37 37L37 39L41 39L41 40L40 40L40 42L41 42L41 41L42 41L42 42L43 42L43 43L44 43L44 46L45 46L45 44L46 44L46 46L47 46L47 44L48 44L48 45L49 45L49 44L48 44L48 43L47 43L47 44L46 44L46 42L45 42L45 41L43 41L43 40L45 40L45 39L44 39L44 38L45 38L45 36L44 36L44 38L43 38L43 37L42 37L42 35L41 35L41 36L39 36L39 34L40 34L40 33L39 33L39 32L40 32L40 31L41 31L41 33L42 33L42 32L43 32L43 35L45 35L45 34L46 34L46 35L47 35L47 32L45 32L45 30L44 30L44 29L43 29L43 28L45 28L45 27L46 27L46 26L45 26L45 27L44 27L44 25L42 25L42 24L39 24L39 23L40 23L40 22L39 22L39 23L38 23L38 22L35 22L35 21L36 21L36 20L37 20L37 19L34 19L34 20L32 20L32 21L31 21L31 18L32 18L32 17L33 17L33 18L34 18L34 17L37 17L37 18L38 18L38 20L39 20L39 21L40 21L40 20L39 20L39 17L38 17L38 16L39 16L39 14L36 14L36 15L34 15L34 17L33 17L33 14L35 14L35 13ZM53 13L53 14L52 14L52 16L53 16L53 18L54 18L54 20L53 20L53 19L51 19L51 20L49 20L49 22L50 22L50 21L51 21L51 20L52 20L52 22L51 22L51 23L52 23L52 22L53 22L53 21L54 21L54 20L56 20L56 19L57 19L57 18L56 18L56 17L57 17L57 16L55 16L55 14L54 14L54 13ZM3 14L3 15L4 15L4 14ZM36 15L36 16L38 16L38 15ZM13 16L13 17L15 17L15 16ZM18 16L18 17L19 17L19 16ZM22 16L22 17L23 17L23 16ZM54 16L54 18L55 18L55 16ZM66 16L66 18L68 18L68 16ZM28 17L28 18L30 18L30 17ZM2 19L2 20L3 20L3 19ZM18 20L18 21L19 21L19 20ZM28 20L28 21L29 21L29 22L28 22L28 23L29 23L29 24L28 24L28 25L29 25L29 24L30 24L30 25L31 25L31 28L33 28L33 27L34 27L34 26L35 26L35 25L34 25L34 24L35 24L35 22L34 22L34 21L33 21L33 25L32 25L32 24L30 24L30 20ZM14 21L14 23L15 23L15 24L16 24L16 25L17 25L17 24L16 24L16 22L15 22L15 21ZM1 22L1 23L2 23L2 22ZM31 22L31 23L32 23L32 22ZM6 23L6 24L7 24L7 23ZM36 23L36 25L37 25L37 24L38 24L38 23ZM53 23L53 24L54 24L54 23ZM10 24L10 25L11 25L11 24ZM12 24L12 26L11 26L11 27L13 27L13 24ZM3 25L3 26L4 26L4 25ZM6 25L6 26L7 26L7 25ZM33 25L33 26L32 26L32 27L33 27L33 26L34 26L34 25ZM41 26L41 27L42 27L42 28L41 28L41 29L39 29L39 31L40 31L40 30L41 30L41 29L42 29L42 28L43 28L43 27L42 27L42 26ZM27 28L27 29L26 29L26 30L27 30L27 29L28 29L28 28ZM23 31L23 32L25 32L25 31ZM51 31L51 32L53 32L53 33L54 33L54 32L53 32L53 31ZM26 32L26 33L27 33L27 32ZM30 32L30 33L32 33L32 32ZM5 33L5 36L8 36L8 33ZM33 33L33 36L36 36L36 33ZM44 33L44 34L45 34L45 33ZM61 33L61 36L64 36L64 33ZM65 33L65 35L66 35L66 37L67 37L67 35L66 35L66 33ZM67 33L67 34L68 34L68 33ZM6 34L6 35L7 35L7 34ZM18 34L18 35L19 35L19 34ZM34 34L34 35L35 35L35 34ZM62 34L62 35L63 35L63 34ZM27 35L27 36L28 36L28 35ZM58 35L58 37L57 37L57 38L56 38L56 36L55 36L55 39L57 39L57 38L58 38L58 37L59 37L59 35ZM27 37L27 38L26 38L26 39L27 39L27 38L28 38L28 37ZM30 37L30 38L31 38L31 37ZM38 37L38 38L41 38L41 37ZM50 37L50 41L51 41L51 43L53 43L53 44L51 44L51 45L53 45L53 47L56 47L56 45L55 45L55 44L54 44L54 43L56 43L56 44L57 44L57 45L58 45L58 43L59 43L59 42L60 42L60 45L61 45L61 43L62 43L62 42L60 42L60 40L59 40L59 41L58 41L58 40L55 40L55 41L58 41L58 43L57 43L57 42L54 42L54 40L53 40L53 39L54 39L54 38L53 38L53 37L52 37L52 38L53 38L53 39L52 39L52 40L53 40L53 42L52 42L52 41L51 41L51 37ZM63 37L63 38L62 38L62 39L63 39L63 38L65 38L65 37ZM18 38L18 39L20 39L20 38ZM22 38L22 39L23 39L23 38ZM24 38L24 39L25 39L25 38ZM42 38L42 39L43 39L43 38ZM59 38L59 39L60 39L60 38ZM30 40L30 41L31 41L31 42L33 42L33 41L31 41L31 40ZM63 40L63 41L64 41L64 40ZM14 42L14 43L13 43L13 44L12 44L12 45L13 45L13 44L14 44L14 43L15 43L15 42ZM44 42L44 43L45 43L45 42ZM2 43L2 44L3 44L3 43ZM18 43L18 45L15 45L15 46L17 46L17 47L16 47L16 50L17 50L17 48L18 48L18 46L19 46L19 43ZM62 44L62 45L63 45L63 44ZM41 45L41 47L42 47L42 45ZM47 47L47 48L48 48L48 47ZM49 48L49 49L51 49L51 48ZM2 50L2 51L3 51L3 50ZM6 50L6 51L7 51L7 52L6 52L6 53L4 53L4 54L3 54L3 55L4 55L4 57L5 57L5 54L6 54L6 53L7 53L7 52L8 52L8 51L9 51L9 50L8 50L8 51L7 51L7 50ZM12 51L12 52L13 52L13 51ZM22 51L22 53L23 53L23 51ZM45 51L45 53L46 53L46 51ZM48 51L48 52L49 52L49 51ZM65 51L65 52L66 52L66 53L67 53L67 55L68 55L68 54L69 54L69 52L68 52L68 51ZM67 52L67 53L68 53L68 52ZM63 53L63 54L65 54L65 53ZM20 54L20 55L21 55L21 54ZM56 54L56 56L57 56L57 54ZM37 55L37 56L38 56L38 55ZM21 56L21 58L22 58L22 56ZM45 56L45 57L46 57L46 56ZM58 56L58 57L59 57L59 56ZM12 57L12 58L9 58L9 59L10 59L10 60L9 60L9 62L10 62L10 60L11 60L11 62L12 62L12 63L11 63L11 64L13 64L13 63L14 63L14 62L12 62L12 60L11 60L11 59L12 59L12 58L13 58L13 57ZM19 57L19 58L20 58L20 57ZM33 57L33 58L31 58L31 59L30 59L30 60L31 60L31 61L28 61L28 60L27 60L27 59L26 59L26 61L27 61L27 62L32 62L32 59L36 59L36 58L35 58L35 57ZM66 57L66 58L68 58L68 57ZM0 58L0 61L1 61L1 58ZM44 58L44 59L45 59L45 58ZM53 58L53 59L54 59L54 58ZM21 59L21 60L22 60L22 59ZM56 59L56 61L57 61L57 59ZM61 59L61 60L63 60L63 59ZM3 60L3 61L5 61L5 60ZM6 60L6 61L7 61L7 60ZM43 60L43 61L44 61L44 60ZM45 60L45 62L43 62L43 63L44 63L44 64L43 64L43 65L45 65L45 63L46 63L46 60ZM33 61L33 64L36 64L36 61ZM61 61L61 64L64 64L64 61ZM34 62L34 63L35 63L35 62ZM50 62L50 63L51 63L51 62ZM62 62L62 63L63 63L63 62ZM38 63L38 64L39 64L39 63ZM16 64L16 65L17 65L17 64ZM18 64L18 66L19 66L19 64ZM22 64L22 65L23 65L23 64ZM55 64L55 65L56 65L56 64ZM20 65L20 67L19 67L19 68L20 68L20 67L21 67L21 68L22 68L22 67L23 67L23 66L21 66L21 65ZM38 65L38 66L39 66L39 68L41 68L41 67L40 67L40 66L39 66L39 65ZM14 66L14 67L15 67L15 66ZM16 66L16 68L18 68L18 67L17 67L17 66ZM29 66L29 67L31 67L31 66ZM33 66L33 67L34 67L34 66ZM44 66L44 67L45 67L45 66ZM60 67L60 68L61 68L61 67ZM68 67L68 68L69 68L69 67ZM0 0L0 7L7 7L7 0ZM1 1L1 6L6 6L6 1ZM2 2L2 5L5 5L5 2ZM62 0L62 7L69 7L69 0ZM63 1L63 6L68 6L68 1ZM64 2L64 5L67 5L67 2ZM0 62L0 69L7 69L7 62ZM1 63L1 68L6 68L6 63ZM2 64L2 67L5 67L5 64Z" fill="#000000"/></g></g></svg>
