<?xml version="1.0" encoding="UTF-8"?>
<svg xmlns="http://www.w3.org/2000/svg" version="1.1" width="300" height="300" viewBox="0 0 300 300"><rect x="0" y="0" width="300" height="300" fill="#ffffff"/><g transform="scale(4.615)"><g transform="translate(0,0)"><path fill-rule="evenodd" d="M8 0L8 2L9 2L9 1L10 1L10 2L11 2L11 3L10 3L10 4L8 4L8 9L7 9L7 8L5 8L5 9L4 9L4 10L3 10L3 12L2 12L2 10L1 10L1 9L3 9L3 8L0 8L0 11L1 11L1 12L2 12L2 13L1 13L1 14L0 14L0 17L1 17L1 18L0 18L0 19L2 19L2 20L3 20L3 22L4 22L4 24L5 24L5 27L7 27L7 28L5 28L5 30L4 30L4 29L3 29L3 30L4 30L4 31L2 31L2 33L1 33L1 32L0 32L0 33L1 33L1 34L2 34L2 33L3 33L3 32L4 32L4 35L5 35L5 36L2 36L2 35L0 35L0 39L1 39L1 40L0 40L0 41L1 41L1 42L2 42L2 44L4 44L4 45L2 45L2 46L5 46L5 48L6 48L6 49L8 49L8 51L7 51L7 50L5 50L5 49L2 49L2 48L1 48L1 47L0 47L0 51L1 51L1 50L4 50L4 51L3 51L3 52L2 52L2 55L3 55L3 56L1 56L1 55L0 55L0 56L1 56L1 57L3 57L3 56L4 56L4 57L5 57L5 56L4 56L4 54L3 54L3 52L4 52L4 53L5 53L5 55L7 55L7 54L6 54L6 53L7 53L7 52L8 52L8 51L9 51L9 53L8 53L8 54L9 54L9 55L8 55L8 56L6 56L6 57L8 57L8 58L9 58L9 59L8 59L8 60L9 60L9 62L8 62L8 65L10 65L10 64L11 64L11 63L10 63L10 62L11 62L11 61L13 61L13 63L12 63L12 64L13 64L13 65L14 65L14 64L15 64L15 63L14 63L14 58L15 58L15 60L16 60L16 61L17 61L17 60L16 60L16 57L17 57L17 56L15 56L15 57L13 57L13 58L12 58L12 60L9 60L9 59L11 59L11 57L12 57L12 55L13 55L13 53L14 53L14 55L16 55L16 51L15 51L15 50L16 50L16 49L17 49L17 50L18 50L18 49L19 49L19 50L20 50L20 52L19 52L19 51L18 51L18 52L19 52L19 54L18 54L18 55L19 55L19 56L18 56L18 57L19 57L19 59L20 59L20 57L21 57L21 58L22 58L22 59L21 59L21 60L20 60L20 61L21 61L21 62L20 62L20 63L22 63L22 65L23 65L23 63L22 63L22 62L23 62L23 58L24 58L24 61L25 61L25 62L24 62L24 63L25 63L25 65L27 65L27 64L28 64L28 63L29 63L29 64L30 64L30 65L34 65L34 63L35 63L35 64L36 64L36 65L37 65L37 63L36 63L36 62L35 62L35 60L36 60L36 61L37 61L37 62L38 62L38 65L39 65L39 63L43 63L43 62L42 62L42 59L43 59L43 58L42 58L42 57L41 57L41 56L42 56L42 55L44 55L44 57L45 57L45 59L46 59L46 56L47 56L47 54L48 54L48 55L52 55L52 57L51 57L51 56L50 56L50 57L49 57L49 56L48 56L48 57L49 57L49 59L48 59L48 58L47 58L47 59L48 59L48 61L47 61L47 62L48 62L48 63L47 63L47 64L46 64L46 61L45 61L45 60L44 60L44 65L47 65L47 64L48 64L48 65L50 65L50 64L52 64L52 65L55 65L55 64L56 64L56 65L59 65L59 64L58 64L58 63L59 63L59 62L58 62L58 63L57 63L57 61L60 61L60 63L61 63L61 64L60 64L60 65L63 65L63 64L62 64L62 62L63 62L63 63L65 63L65 62L63 62L63 61L65 61L65 60L63 60L63 61L62 61L62 55L63 55L63 54L61 54L61 56L59 56L59 55L60 55L60 53L62 53L62 51L63 51L63 53L64 53L64 57L63 57L63 59L65 59L65 52L64 52L64 51L65 51L65 48L64 48L64 47L65 47L65 46L64 46L64 43L65 43L65 42L64 42L64 43L63 43L63 41L62 41L62 42L60 42L60 41L61 41L61 40L60 40L60 39L61 39L61 38L62 38L62 39L63 39L63 38L64 38L64 39L65 39L65 36L64 36L64 37L61 37L61 36L62 36L62 34L63 34L63 33L62 33L62 30L63 30L63 29L61 29L61 28L60 28L60 29L61 29L61 30L58 30L58 29L59 29L59 27L58 27L58 25L59 25L59 23L60 23L60 26L62 26L62 25L63 25L63 24L62 24L62 22L63 22L63 20L65 20L65 18L64 18L64 19L63 19L63 16L64 16L64 17L65 17L65 16L64 16L64 15L65 15L65 12L64 12L64 13L63 13L63 12L62 12L62 11L63 11L63 10L64 10L64 11L65 11L65 8L63 8L63 10L62 10L62 9L61 9L61 8L57 8L57 10L56 10L56 8L55 8L55 12L52 12L52 11L53 11L53 8L52 8L52 7L53 7L53 4L56 4L56 5L57 5L57 4L56 4L56 3L57 3L57 1L56 1L56 0L55 0L55 1L56 1L56 3L55 3L55 2L54 2L54 1L53 1L53 0L52 0L52 1L51 1L51 0L50 0L50 1L49 1L49 2L50 2L50 3L49 3L49 4L48 4L48 5L49 5L49 6L48 6L48 7L47 7L47 6L46 6L46 7L47 7L47 10L46 10L46 8L44 8L44 9L43 9L43 10L42 10L42 7L43 7L43 6L44 6L44 7L45 7L45 6L44 6L44 5L45 5L45 4L44 4L44 3L46 3L46 2L44 2L44 1L45 1L45 0L42 0L42 2L44 2L44 3L43 3L43 4L42 4L42 5L43 5L43 6L42 6L42 7L41 7L41 4L40 4L40 3L41 3L41 1L40 1L40 0L38 0L38 2L39 2L39 3L38 3L38 5L35 5L35 4L36 4L36 1L35 1L35 0L34 0L34 1L35 1L35 3L34 3L34 2L33 2L33 1L32 1L32 0L30 0L30 2L29 2L29 4L28 4L28 1L29 1L29 0L27 0L27 2L26 2L26 3L27 3L27 4L26 4L26 7L27 7L27 4L28 4L28 8L29 8L29 6L30 6L30 9L29 9L29 10L30 10L30 9L31 9L31 12L30 12L30 11L28 11L28 9L27 9L27 8L26 8L26 10L25 10L25 11L26 11L26 13L25 13L25 12L24 12L24 9L25 9L25 8L24 8L24 7L25 7L25 6L24 6L24 5L25 5L25 0L24 0L24 2L22 2L22 3L23 3L23 4L22 4L22 9L23 9L23 10L22 10L22 11L23 11L23 12L22 12L22 14L21 14L21 12L18 12L18 13L17 13L17 12L16 12L16 13L15 13L15 11L20 11L20 9L21 9L21 8L20 8L20 7L21 7L21 6L20 6L20 7L19 7L19 4L20 4L20 5L21 5L21 3L19 3L19 2L20 2L20 1L22 1L22 0L19 0L19 2L18 2L18 3L19 3L19 4L18 4L18 7L17 7L17 6L16 6L16 4L17 4L17 2L16 2L16 0L15 0L15 1L14 1L14 0L13 0L13 1L10 1L10 0ZM46 0L46 1L47 1L47 2L48 2L48 1L47 1L47 0ZM31 1L31 2L32 2L32 1ZM39 1L39 2L40 2L40 1ZM50 1L50 2L51 2L51 1ZM14 2L14 3L15 3L15 4L16 4L16 3L15 3L15 2ZM52 2L52 4L51 4L51 5L50 5L50 4L49 4L49 5L50 5L50 6L49 6L49 8L50 8L50 6L51 6L51 7L52 7L52 4L53 4L53 2ZM11 3L11 4L12 4L12 3ZM32 3L32 4L34 4L34 3ZM43 4L43 5L44 5L44 4ZM46 4L46 5L47 5L47 4ZM9 5L9 9L8 9L8 14L10 14L10 13L9 13L9 11L10 11L10 12L12 12L12 13L13 13L13 14L12 14L12 15L9 15L9 16L8 16L8 15L6 15L6 14L7 14L7 13L5 13L5 12L4 12L4 13L3 13L3 14L1 14L1 15L3 15L3 14L4 14L4 15L6 15L6 16L8 16L8 17L5 17L5 16L3 16L3 18L2 18L2 19L3 19L3 20L4 20L4 21L5 21L5 22L7 22L7 21L8 21L8 22L9 22L9 23L10 23L10 24L8 24L8 23L5 23L5 24L7 24L7 25L6 25L6 26L7 26L7 27L8 27L8 29L6 29L6 30L9 30L9 28L10 28L10 30L11 30L11 28L12 28L12 29L13 29L13 30L12 30L12 31L14 31L14 34L13 34L13 35L15 35L15 36L16 36L16 34L19 34L19 33L20 33L20 35L21 35L21 33L22 33L22 32L24 32L24 34L23 34L23 35L22 35L22 36L23 36L23 35L24 35L24 34L27 34L27 33L26 33L26 32L27 32L27 30L29 30L29 31L28 31L28 35L30 35L30 33L29 33L29 32L30 32L30 30L29 30L29 29L30 29L30 28L31 28L31 29L32 29L32 28L33 28L33 29L34 29L34 30L35 30L35 33L36 33L36 35L35 35L35 36L34 36L34 38L33 38L33 35L32 35L32 38L31 38L31 36L30 36L30 37L29 37L29 36L28 36L28 38L27 38L27 37L26 37L26 38L25 38L25 36L24 36L24 38L23 38L23 37L22 37L22 38L21 38L21 37L20 37L20 36L19 36L19 35L18 35L18 36L19 36L19 37L18 37L18 38L17 38L17 37L16 37L16 38L15 38L15 37L11 37L11 38L15 38L15 39L13 39L13 40L14 40L14 41L15 41L15 42L14 42L14 43L13 43L13 42L12 42L12 39L10 39L10 37L9 37L9 38L7 38L7 37L8 37L8 35L6 35L6 36L7 36L7 37L6 37L6 38L7 38L7 39L4 39L4 40L3 40L3 41L2 41L2 42L3 42L3 43L4 43L4 44L5 44L5 43L4 43L4 42L5 42L5 41L6 41L6 42L8 42L8 43L6 43L6 44L8 44L8 45L6 45L6 46L7 46L7 47L6 47L6 48L8 48L8 49L9 49L9 51L11 51L11 50L10 50L10 49L11 49L11 48L10 48L10 47L9 47L9 48L8 48L8 45L9 45L9 46L10 46L10 45L9 45L9 44L8 44L8 43L11 43L11 45L12 45L12 51L13 51L13 52L10 52L10 53L9 53L9 54L10 54L10 53L11 53L11 54L12 54L12 53L13 53L13 52L15 52L15 51L13 51L13 50L14 50L14 49L16 49L16 48L15 48L15 47L14 47L14 46L15 46L15 45L14 45L14 46L13 46L13 45L12 45L12 44L14 44L14 43L15 43L15 42L16 42L16 43L18 43L18 44L17 44L17 46L16 46L16 47L17 47L17 49L18 49L18 48L19 48L19 47L18 47L18 44L19 44L19 42L18 42L18 40L17 40L17 39L18 39L18 38L19 38L19 40L20 40L20 42L22 42L22 43L23 43L23 44L25 44L25 46L24 46L24 47L26 47L26 46L27 46L27 48L30 48L30 47L31 47L31 48L32 48L32 47L33 47L33 48L34 48L34 49L32 49L32 51L33 51L33 52L34 52L34 53L32 53L32 52L31 52L31 51L30 51L30 50L31 50L31 49L28 49L28 51L27 51L27 49L26 49L26 48L25 48L25 49L24 49L24 50L23 50L23 49L22 49L22 47L23 47L23 46L22 46L22 47L21 47L21 46L20 46L20 47L21 47L21 49L20 49L20 50L21 50L21 52L20 52L20 56L19 56L19 57L20 57L20 56L24 56L24 58L25 58L25 59L26 59L26 60L27 60L27 62L26 62L26 64L27 64L27 63L28 63L28 62L29 62L29 61L30 61L30 59L29 59L29 60L28 60L28 59L27 59L27 57L28 57L28 58L29 58L29 57L28 57L28 56L31 56L31 55L32 55L32 54L33 54L33 56L35 56L35 59L36 59L36 60L37 60L37 61L38 61L38 62L39 62L39 61L40 61L40 60L41 60L41 59L42 59L42 58L41 58L41 59L40 59L40 58L39 58L39 57L40 57L40 56L39 56L39 57L38 57L38 55L36 55L36 54L35 54L35 55L34 55L34 53L36 53L36 52L38 52L38 54L39 54L39 55L40 55L40 54L41 54L41 55L42 55L42 54L43 54L43 53L44 53L44 52L45 52L45 53L46 53L46 54L44 54L44 55L45 55L45 56L46 56L46 54L47 54L47 53L48 53L48 52L47 52L47 51L48 51L48 50L49 50L49 49L48 49L48 50L47 50L47 48L45 48L45 49L44 49L44 47L45 47L45 46L44 46L44 44L46 44L46 42L47 42L47 41L48 41L48 42L49 42L49 41L48 41L48 40L47 40L47 39L48 39L48 38L47 38L47 37L48 37L48 36L47 36L47 37L46 37L46 38L45 38L45 39L44 39L44 35L45 35L45 36L46 36L46 35L45 35L45 34L44 34L44 32L46 32L46 31L47 31L47 33L46 33L46 34L49 34L49 37L50 37L50 39L49 39L49 40L50 40L50 43L49 43L49 44L50 44L50 43L52 43L52 42L53 42L53 44L56 44L56 45L54 45L54 46L53 46L53 45L52 45L52 46L51 46L51 45L50 45L50 47L49 47L49 45L48 45L48 44L47 44L47 45L46 45L46 47L49 47L49 48L50 48L50 52L49 52L49 53L50 53L50 54L52 54L52 55L53 55L53 57L54 57L54 58L53 58L53 59L52 59L52 58L51 58L51 57L50 57L50 58L51 58L51 59L50 59L50 60L51 60L51 61L50 61L50 62L49 62L49 63L48 63L48 64L50 64L50 62L51 62L51 63L52 63L52 64L53 64L53 63L52 63L52 60L53 60L53 59L54 59L54 60L55 60L55 61L54 61L54 64L55 64L55 63L56 63L56 64L57 64L57 63L56 63L56 62L55 62L55 61L56 61L56 57L54 57L54 56L56 56L56 55L53 55L53 54L52 54L52 52L54 52L54 54L55 54L55 51L58 51L58 52L59 52L59 53L57 53L57 52L56 52L56 54L57 54L57 55L58 55L58 54L59 54L59 53L60 53L60 52L61 52L61 50L63 50L63 49L61 49L61 47L62 47L62 48L63 48L63 47L64 47L64 46L62 46L62 45L63 45L63 43L62 43L62 44L61 44L61 45L60 45L60 46L59 46L59 47L58 47L58 45L59 45L59 44L60 44L60 42L59 42L59 40L58 40L58 42L59 42L59 44L58 44L58 45L57 45L57 44L56 44L56 43L57 43L57 42L56 42L56 41L57 41L57 40L56 40L56 41L54 41L54 40L55 40L55 39L54 39L54 38L55 38L55 37L54 37L54 38L52 38L52 36L51 36L51 35L50 35L50 34L51 34L51 33L52 33L52 35L53 35L53 36L54 36L54 35L53 35L53 33L52 33L52 32L54 32L54 34L55 34L55 32L56 32L56 31L55 31L55 32L54 32L54 30L55 30L55 29L54 29L54 28L56 28L56 30L57 30L57 29L58 29L58 27L57 27L57 28L56 28L56 26L57 26L57 25L58 25L58 22L59 22L59 21L58 21L58 22L57 22L57 20L55 20L55 21L54 21L54 22L55 22L55 25L54 25L54 23L52 23L52 20L53 20L53 17L52 17L52 15L54 15L54 16L55 16L55 17L54 17L54 19L58 19L58 20L59 20L59 19L58 19L58 18L60 18L60 16L61 16L61 15L58 15L58 18L57 18L57 17L56 17L56 16L57 16L57 15L56 15L56 16L55 16L55 14L57 14L57 11L58 11L58 14L60 14L60 12L59 12L59 11L58 11L58 10L59 10L59 9L58 9L58 10L57 10L57 11L56 11L56 12L55 12L55 13L53 13L53 14L51 14L51 13L52 13L52 12L51 12L51 13L50 13L50 12L49 12L49 11L46 11L46 10L45 10L45 12L47 12L47 13L46 13L46 15L47 15L47 17L46 17L46 16L45 16L45 15L44 15L44 14L45 14L45 13L44 13L44 11L42 11L42 12L41 12L41 13L40 13L40 10L41 10L41 9L40 9L40 8L38 8L38 6L39 6L39 7L40 7L40 6L39 6L39 5L38 5L38 6L37 6L37 8L38 8L38 10L37 10L37 13L36 13L36 11L35 11L35 10L36 10L36 9L34 9L34 11L33 11L33 9L32 9L32 11L33 11L33 12L34 12L34 13L32 13L32 12L31 12L31 13L32 13L32 14L33 14L33 15L30 15L30 13L29 13L29 14L28 14L28 15L30 15L30 17L28 17L28 18L27 18L27 17L26 17L26 16L27 16L27 15L26 15L26 16L25 16L25 17L24 17L24 16L23 16L23 17L22 17L22 16L21 16L21 17L20 17L20 19L19 19L19 17L18 17L18 16L19 16L19 15L18 15L18 14L19 14L19 13L18 13L18 14L17 14L17 15L15 15L15 13L13 13L13 9L14 9L14 8L17 8L17 9L16 9L16 10L17 10L17 9L18 9L18 10L19 10L19 9L18 9L18 8L19 8L19 7L18 7L18 8L17 8L17 7L16 7L16 6L15 6L15 5L13 5L13 7L12 7L12 5ZM31 5L31 8L34 8L34 5ZM54 5L54 7L55 7L55 5ZM10 6L10 7L11 7L11 6ZM14 6L14 7L15 7L15 6ZM23 6L23 7L24 7L24 6ZM32 6L32 7L33 7L33 6ZM35 6L35 7L36 7L36 6ZM56 6L56 7L57 7L57 6ZM11 8L11 9L12 9L12 8ZM51 8L51 9L50 9L50 11L52 11L52 10L51 10L51 9L52 9L52 8ZM6 9L6 10L4 10L4 11L6 11L6 12L7 12L7 11L6 11L6 10L7 10L7 9ZM9 9L9 10L10 10L10 11L11 11L11 10L10 10L10 9ZM39 9L39 10L38 10L38 11L39 11L39 10L40 10L40 9ZM48 9L48 10L49 10L49 9ZM60 9L60 11L61 11L61 9ZM14 10L14 11L15 11L15 10ZM26 10L26 11L27 11L27 12L28 12L28 11L27 11L27 10ZM42 12L42 13L43 13L43 14L44 14L44 13L43 13L43 12ZM48 12L48 15L49 15L49 16L48 16L48 18L49 18L49 19L48 19L48 21L47 21L47 22L46 22L46 19L45 19L45 20L44 20L44 18L46 18L46 17L45 17L45 16L44 16L44 18L43 18L43 20L42 20L42 19L41 19L41 20L40 20L40 21L39 21L39 24L40 24L40 26L39 26L39 27L38 27L38 24L36 24L36 21L37 21L37 23L38 23L38 20L39 20L39 19L38 19L38 20L36 20L36 21L35 21L35 23L34 23L34 19L35 19L35 18L34 18L34 17L35 17L35 15L36 15L36 13L35 13L35 15L34 15L34 17L33 17L33 16L32 16L32 17L33 17L33 19L32 19L32 25L30 25L30 23L31 23L31 22L30 22L30 19L29 19L29 18L28 18L28 19L26 19L26 20L27 20L27 22L24 22L24 21L25 21L25 18L24 18L24 17L23 17L23 18L24 18L24 19L22 19L22 20L24 20L24 21L23 21L23 22L24 22L24 23L21 23L21 24L20 24L20 23L19 23L19 22L20 22L20 20L21 20L21 19L20 19L20 20L19 20L19 19L18 19L18 20L19 20L19 22L17 22L17 20L16 20L16 19L17 19L17 16L18 16L18 15L17 15L17 16L15 16L15 17L13 17L13 16L14 16L14 14L13 14L13 16L11 16L11 17L12 17L12 19L14 19L14 21L13 21L13 20L12 20L12 21L11 21L11 19L9 19L9 20L10 20L10 21L9 21L9 22L10 22L10 21L11 21L11 24L10 24L10 25L9 25L9 26L11 26L11 27L10 27L10 28L11 28L11 27L12 27L12 28L14 28L14 29L15 29L15 27L16 27L16 25L17 25L17 26L18 26L18 27L20 27L20 29L21 29L21 27L22 27L22 30L20 30L20 31L21 31L21 32L22 32L22 30L23 30L23 28L24 28L24 29L25 29L25 30L24 30L24 31L25 31L25 32L26 32L26 31L25 31L25 30L26 30L26 29L29 29L29 28L30 28L30 27L31 27L31 28L32 28L32 27L31 27L31 26L33 26L33 27L34 27L34 25L33 25L33 24L36 24L36 25L37 25L37 27L38 27L38 28L36 28L36 29L37 29L37 30L38 30L38 28L39 28L39 27L40 27L40 26L42 26L42 27L41 27L41 28L40 28L40 29L39 29L39 31L41 31L41 32L40 32L40 33L41 33L41 35L40 35L40 34L38 34L38 33L39 33L39 32L38 32L38 31L36 31L36 33L37 33L37 35L36 35L36 37L35 37L35 38L34 38L34 39L33 39L33 40L32 40L32 39L30 39L30 38L29 38L29 41L30 41L30 40L31 40L31 43L32 43L32 44L31 44L31 45L30 45L30 46L29 46L29 47L30 47L30 46L31 46L31 47L32 47L32 44L33 44L33 46L34 46L34 48L35 48L35 46L34 46L34 44L33 44L33 42L32 42L32 41L33 41L33 40L36 40L36 41L34 41L34 43L36 43L36 49L35 49L35 50L34 50L34 51L35 51L35 50L36 50L36 51L38 51L38 49L39 49L39 47L40 47L40 51L39 51L39 54L40 54L40 53L41 53L41 54L42 54L42 53L43 53L43 52L44 52L44 51L43 51L43 52L41 52L41 48L42 48L42 49L43 49L43 46L42 46L42 44L41 44L41 42L42 42L42 43L43 43L43 44L44 44L44 43L45 43L45 42L46 42L46 40L44 40L44 39L43 39L43 38L42 38L42 37L43 37L43 35L44 35L44 34L42 34L42 33L41 33L41 32L42 32L42 31L41 31L41 30L42 30L42 29L43 29L43 28L42 28L42 27L44 27L44 31L43 31L43 32L44 32L44 31L45 31L45 30L46 30L46 29L45 29L45 28L48 28L48 30L47 30L47 31L48 31L48 30L49 30L49 32L48 32L48 33L49 33L49 34L50 34L50 33L51 33L51 31L50 31L50 27L53 27L53 28L52 28L52 29L53 29L53 30L52 30L52 31L53 31L53 30L54 30L54 29L53 29L53 28L54 28L54 27L53 27L53 26L52 26L52 25L53 25L53 24L52 24L52 23L49 23L49 21L50 21L50 20L52 20L52 19L50 19L50 15L51 15L51 14L50 14L50 13L49 13L49 12ZM26 13L26 14L27 14L27 13ZM37 13L37 16L36 16L36 17L37 17L37 16L38 16L38 15L40 15L40 18L42 18L42 17L41 17L41 16L42 16L42 15L40 15L40 13L39 13L39 14L38 14L38 13ZM62 13L62 14L63 14L63 15L62 15L62 16L63 16L63 15L64 15L64 14L63 14L63 13ZM20 14L20 15L21 15L21 14ZM22 14L22 15L23 15L23 14ZM24 14L24 15L25 15L25 14ZM49 14L49 15L50 15L50 14ZM4 17L4 18L3 18L3 19L4 19L4 18L5 18L5 17ZM8 17L8 18L6 18L6 19L8 19L8 18L9 18L9 17ZM15 17L15 18L14 18L14 19L15 19L15 18L16 18L16 17ZM21 17L21 18L22 18L22 17ZM51 17L51 18L52 18L52 17ZM55 17L55 18L56 18L56 17ZM61 17L61 19L62 19L62 20L63 20L63 19L62 19L62 17ZM36 18L36 19L37 19L37 18ZM49 19L49 20L50 20L50 19ZM5 20L5 21L7 21L7 20ZM41 20L41 21L40 21L40 24L41 24L41 23L44 23L44 24L42 24L42 26L45 26L45 27L47 27L47 26L48 26L48 28L49 28L49 27L50 27L50 26L51 26L51 25L52 25L52 24L51 24L51 25L50 25L50 26L49 26L49 25L48 25L48 22L47 22L47 24L46 24L46 22L45 22L45 21L44 21L44 20L43 20L43 21L42 21L42 20ZM1 21L1 23L0 23L0 24L1 24L1 25L0 25L0 26L1 26L1 27L0 27L0 31L1 31L1 28L2 28L2 26L3 26L3 28L4 28L4 25L2 25L2 21ZM12 21L12 23L13 23L13 21ZM14 21L14 22L15 22L15 21ZM28 21L28 23L30 23L30 22L29 22L29 21ZM43 21L43 22L44 22L44 21ZM60 21L60 23L61 23L61 22L62 22L62 21ZM64 21L64 33L65 33L65 21ZM16 22L16 23L17 23L17 25L18 25L18 26L19 26L19 25L18 25L18 23L17 23L17 22ZM14 23L14 24L15 24L15 25L14 25L14 26L12 26L12 25L13 25L13 24L11 24L11 26L12 26L12 27L15 27L15 25L16 25L16 24L15 24L15 23ZM25 23L25 25L24 25L24 26L25 26L25 27L24 27L24 28L25 28L25 29L26 29L26 28L28 28L28 27L30 27L30 26L29 26L29 25L28 25L28 24L27 24L27 25L26 25L26 23ZM21 24L21 25L20 25L20 27L21 27L21 26L23 26L23 25L22 25L22 24ZM44 24L44 25L45 25L45 26L46 26L46 24ZM56 24L56 25L55 25L55 26L56 26L56 25L57 25L57 24ZM7 25L7 26L8 26L8 25ZM25 25L25 26L26 26L26 27L25 27L25 28L26 28L26 27L28 27L28 25L27 25L27 26L26 26L26 25ZM35 26L35 27L36 27L36 26ZM16 28L16 29L17 29L17 28ZM18 28L18 30L19 30L19 28ZM34 28L34 29L35 29L35 28ZM14 30L14 31L15 31L15 30ZM16 30L16 31L17 31L17 30ZM5 31L5 34L8 34L8 31ZM10 31L10 32L9 32L9 34L10 34L10 33L11 33L11 31ZM18 31L18 33L19 33L19 31ZM31 31L31 34L34 34L34 31ZM57 31L57 34L60 34L60 31ZM6 32L6 33L7 33L7 32ZM32 32L32 33L33 33L33 32ZM37 32L37 33L38 33L38 32ZM58 32L58 33L59 33L59 32ZM61 33L61 34L62 34L62 33ZM11 34L11 35L9 35L9 36L11 36L11 35L12 35L12 34ZM64 34L64 35L65 35L65 34ZM26 35L26 36L27 36L27 35ZM37 35L37 36L38 36L38 35ZM39 35L39 37L38 37L38 39L39 39L39 40L38 40L38 42L37 42L37 41L36 41L36 42L37 42L37 43L38 43L38 44L39 44L39 45L38 45L38 46L37 46L37 49L38 49L38 46L39 46L39 45L40 45L40 47L42 47L42 46L41 46L41 45L40 45L40 44L39 44L39 43L40 43L40 42L41 42L41 41L40 41L40 39L41 39L41 40L42 40L42 42L43 42L43 43L44 43L44 42L45 42L45 41L44 41L44 40L43 40L43 39L42 39L42 38L41 38L41 37L42 37L42 35L41 35L41 37L40 37L40 35ZM55 35L55 36L56 36L56 35ZM57 35L57 37L56 37L56 38L58 38L58 35ZM1 36L1 37L2 37L2 36ZM59 36L59 37L60 37L60 38L59 38L59 39L60 39L60 38L61 38L61 37L60 37L60 36ZM4 37L4 38L5 38L5 37ZM19 37L19 38L20 38L20 37ZM36 37L36 38L35 38L35 39L37 39L37 37ZM1 38L1 39L3 39L3 38ZM16 38L16 39L17 39L17 38ZM22 38L22 42L23 42L23 43L24 43L24 41L25 41L25 42L26 42L26 45L27 45L27 46L28 46L28 45L29 45L29 44L28 44L28 43L27 43L27 42L28 42L28 40L27 40L27 38L26 38L26 39L25 39L25 38L24 38L24 39L23 39L23 38ZM39 38L39 39L40 39L40 38ZM46 38L46 39L47 39L47 38ZM7 39L7 40L6 40L6 41L7 41L7 40L8 40L8 42L10 42L10 39ZM24 39L24 40L25 40L25 41L26 41L26 42L27 42L27 41L26 41L26 40L25 40L25 39ZM50 39L50 40L52 40L52 41L53 41L53 42L54 42L54 43L55 43L55 42L54 42L54 41L53 41L53 40L52 40L52 39ZM4 40L4 41L3 41L3 42L4 42L4 41L5 41L5 40ZM64 40L64 41L65 41L65 40ZM11 42L11 43L12 43L12 42ZM29 42L29 43L30 43L30 42ZM38 42L38 43L39 43L39 42ZM0 43L0 46L1 46L1 43ZM20 43L20 44L21 44L21 45L22 45L22 44L21 44L21 43ZM52 46L52 47L50 47L50 48L52 48L52 49L51 49L51 51L52 51L52 49L53 49L53 50L54 50L54 51L55 51L55 50L57 50L57 49L58 49L58 51L60 51L60 47L59 47L59 49L58 49L58 47L57 47L57 46L56 46L56 47L55 47L55 46L54 46L54 47L53 47L53 46ZM13 47L13 49L14 49L14 47ZM54 48L54 50L55 50L55 48ZM45 49L45 52L46 52L46 53L47 53L47 52L46 52L46 51L47 51L47 50L46 50L46 49ZM6 51L6 52L5 52L5 53L6 53L6 52L7 52L7 51ZM22 51L22 52L23 52L23 51ZM26 51L26 52L27 52L27 51ZM28 51L28 53L27 53L27 54L26 54L26 57L25 57L25 58L26 58L26 57L27 57L27 54L28 54L28 55L29 55L29 54L28 54L28 53L29 53L29 51ZM24 52L24 53L23 53L23 54L24 54L24 53L25 53L25 52ZM30 52L30 53L31 53L31 54L32 54L32 53L31 53L31 52ZM50 52L50 53L51 53L51 52ZM9 55L9 56L8 56L8 57L9 57L9 56L10 56L10 57L11 57L11 56L10 56L10 55ZM35 55L35 56L36 56L36 59L37 59L37 58L38 58L38 61L39 61L39 58L38 58L38 57L37 57L37 56L36 56L36 55ZM31 57L31 60L34 60L34 57ZM57 57L57 60L60 60L60 57ZM32 58L32 59L33 59L33 58ZM54 58L54 59L55 59L55 58ZM58 58L58 59L59 59L59 58ZM18 60L18 61L19 61L19 60ZM21 60L21 61L22 61L22 60ZM31 61L31 62L30 62L30 64L31 64L31 63L32 63L32 62L33 62L33 63L34 63L34 61ZM16 62L16 63L17 63L17 64L18 64L18 65L20 65L20 64L18 64L18 62ZM9 63L9 64L10 64L10 63ZM40 64L40 65L42 65L42 64ZM64 64L64 65L65 65L65 64ZM0 0L0 7L7 7L7 0ZM1 1L1 6L6 6L6 1ZM2 2L2 5L5 5L5 2ZM58 0L58 7L65 7L65 0ZM59 1L59 6L64 6L64 1ZM60 2L60 5L63 5L63 2ZM0 58L0 65L7 65L7 58ZM1 59L1 64L6 64L6 59ZM2 60L2 63L5 63L5 60Z" fill="#000000"/></g></g></svg>
