<?xml version="1.0" encoding="UTF-8"?>
<svg xmlns="http://www.w3.org/2000/svg" version="1.1" width="300" height="300" viewBox="0 0 300 300"><rect x="0" y="0" width="300" height="300" fill="#ffffff"/><g transform="scale(4.348)"><g transform="translate(0,0)"><path fill-rule="evenodd" d="M8 0L8 4L9 4L9 5L8 5L8 7L9 7L9 5L10 5L10 9L9 9L9 11L11 11L11 9L12 9L12 10L13 10L13 12L8 12L8 11L7 11L7 10L6 10L6 9L7 9L7 8L4 8L4 9L5 9L5 11L3 11L3 9L2 9L2 8L0 8L0 10L2 10L2 11L3 11L3 12L0 12L0 13L1 13L1 14L0 14L0 16L2 16L2 17L3 17L3 16L2 16L2 15L4 15L4 14L6 14L6 15L5 15L5 17L4 17L4 19L3 19L3 18L2 18L2 21L4 21L4 23L2 23L2 22L0 22L0 26L1 26L1 28L0 28L0 29L1 29L1 30L0 30L0 31L1 31L1 32L0 32L0 33L3 33L3 34L2 34L2 35L4 35L4 36L3 36L3 39L4 39L4 40L2 40L2 41L1 41L1 40L0 40L0 43L1 43L1 44L0 44L0 46L1 46L1 48L2 48L2 50L3 50L3 48L4 48L4 46L3 46L3 45L4 45L4 44L3 44L3 42L5 42L5 46L6 46L6 47L7 47L7 48L6 48L6 49L5 49L5 50L6 50L6 51L8 51L8 48L9 48L9 51L10 51L10 52L11 52L11 51L13 51L13 50L11 50L11 51L10 51L10 49L11 49L11 48L14 48L14 47L16 47L16 45L20 45L20 46L21 46L21 48L20 48L20 47L19 47L19 46L18 46L18 47L17 47L17 49L18 49L18 50L17 50L17 52L14 52L14 54L16 54L16 53L17 53L17 57L15 57L15 56L16 56L16 55L15 55L15 56L14 56L14 55L13 55L13 56L12 56L12 57L11 57L11 55L12 55L12 54L11 54L11 53L9 53L9 52L8 52L8 56L6 56L6 57L7 57L7 58L4 58L4 59L8 59L8 57L9 57L9 56L10 56L10 58L9 58L9 59L11 59L11 60L12 60L12 61L13 61L13 62L12 62L12 63L13 63L13 65L12 65L12 67L8 67L8 69L11 69L11 68L12 68L12 69L13 69L13 67L14 67L14 68L16 68L16 69L19 69L19 68L18 68L18 67L15 67L15 66L16 66L16 65L17 65L17 66L19 66L19 67L20 67L20 66L21 66L21 67L22 67L22 68L24 68L24 67L22 67L22 62L21 62L21 61L22 61L22 60L23 60L23 62L25 62L25 63L26 63L26 64L27 64L27 62L28 62L28 61L29 61L29 62L30 62L30 63L28 63L28 64L30 64L30 65L25 65L25 64L24 64L24 63L23 63L23 64L24 64L24 65L23 65L23 66L25 66L25 67L26 67L26 69L27 69L27 67L28 67L28 66L29 66L29 69L31 69L31 68L32 68L32 69L35 69L35 66L34 66L34 65L37 65L37 67L39 67L39 68L38 68L38 69L40 69L40 67L39 67L39 66L40 66L40 63L41 63L41 69L42 69L42 67L43 67L43 63L42 63L42 62L44 62L44 69L46 69L46 67L45 67L45 62L46 62L46 61L47 61L47 63L46 63L46 64L47 64L47 65L48 65L48 66L47 66L47 69L50 69L50 67L51 67L51 69L52 69L52 68L53 68L53 69L55 69L55 67L57 67L57 66L58 66L58 64L59 64L59 63L58 63L58 61L59 61L59 62L60 62L60 66L61 66L61 69L64 69L64 68L65 68L65 67L67 67L67 66L69 66L69 64L68 64L68 65L67 65L67 66L66 66L66 65L65 65L65 63L66 63L66 62L67 62L67 63L68 63L68 62L69 62L69 61L68 61L68 62L67 62L67 60L68 60L68 57L69 57L69 55L67 55L67 60L66 60L66 61L65 61L65 58L66 58L66 55L65 55L65 54L67 54L67 53L69 53L69 52L68 52L68 50L66 50L66 49L65 49L65 48L64 48L64 47L66 47L66 46L67 46L67 48L68 48L68 49L69 49L69 47L68 47L68 46L69 46L69 43L68 43L68 42L69 42L69 39L68 39L68 38L69 38L69 35L68 35L68 33L69 33L69 31L68 31L68 30L69 30L69 27L68 27L68 22L67 22L67 21L66 21L66 23L67 23L67 24L65 24L65 26L64 26L64 23L63 23L63 24L62 24L62 22L63 22L63 21L64 21L64 20L65 20L65 18L67 18L67 20L68 20L68 21L69 21L69 20L68 20L68 18L67 18L67 16L66 16L66 17L64 17L64 16L65 16L65 15L62 15L62 19L61 19L61 20L58 20L58 19L59 19L59 18L61 18L61 13L62 13L62 14L63 14L63 13L64 13L64 14L65 14L65 13L67 13L67 15L68 15L68 16L69 16L69 15L68 15L68 13L67 13L67 12L65 12L65 11L68 11L68 10L69 10L69 8L65 8L65 9L64 9L64 8L63 8L63 9L62 9L62 12L61 12L61 9L60 9L60 8L59 8L59 4L58 4L58 8L59 8L59 10L58 10L58 9L57 9L57 8L56 8L56 7L57 7L57 6L56 6L56 5L57 5L57 4L56 4L56 5L55 5L55 4L53 4L53 3L59 3L59 2L58 2L58 1L61 1L61 0L57 0L57 1L56 1L56 2L55 2L55 0L50 0L50 7L49 7L49 6L48 6L48 7L49 7L49 8L47 8L47 6L46 6L46 7L45 7L45 6L44 6L44 5L46 5L46 4L47 4L47 3L49 3L49 1L48 1L48 0L47 0L47 2L46 2L46 0L45 0L45 1L44 1L44 0L41 0L41 1L40 1L40 0L38 0L38 1L40 1L40 4L38 4L38 3L37 3L37 4L34 4L34 3L35 3L35 2L37 2L37 1L35 1L35 0L31 0L31 1L30 1L30 0L23 0L23 1L24 1L24 2L22 2L22 0L17 0L17 1L18 1L18 2L13 2L13 3L14 3L14 5L15 5L15 6L14 6L14 7L13 7L13 6L12 6L12 5L11 5L11 4L12 4L12 1L11 1L11 2L10 2L10 3L11 3L11 4L9 4L9 1L10 1L10 0ZM14 0L14 1L15 1L15 0ZM19 1L19 3L18 3L18 5L20 5L20 6L19 6L19 7L18 7L18 6L17 6L17 8L20 8L20 9L19 9L19 11L18 11L18 9L17 9L17 10L16 10L16 11L15 11L15 10L14 10L14 9L16 9L16 8L15 8L15 7L16 7L16 6L15 6L15 7L14 7L14 9L13 9L13 8L12 8L12 9L13 9L13 10L14 10L14 12L17 12L17 11L18 11L18 12L19 12L19 13L21 13L21 12L22 12L22 14L23 14L23 12L24 12L24 11L20 11L20 9L22 9L22 10L23 10L23 9L24 9L24 10L26 10L26 6L25 6L25 5L24 5L24 3L25 3L25 2L26 2L26 5L27 5L27 8L28 8L28 6L29 6L29 7L30 7L30 6L31 6L31 8L30 8L30 9L28 9L28 11L26 11L26 12L25 12L25 15L26 15L26 16L28 16L28 17L27 17L27 19L28 19L28 18L29 18L29 16L28 16L28 15L30 15L30 16L31 16L31 15L32 15L32 18L34 18L34 19L29 19L29 20L27 20L27 21L26 21L26 20L25 20L25 19L26 19L26 17L25 17L25 18L23 18L23 20L22 20L22 21L21 21L21 23L20 23L20 24L21 24L21 23L22 23L22 24L23 24L23 21L24 21L24 20L25 20L25 21L26 21L26 23L25 23L25 22L24 22L24 24L25 24L25 25L26 25L26 26L24 26L24 25L21 25L21 26L22 26L22 29L25 29L25 30L26 30L26 28L27 28L27 29L28 29L28 32L26 32L26 31L25 31L25 32L24 32L24 33L23 33L23 32L22 32L22 31L21 31L21 32L22 32L22 33L21 33L21 34L20 34L20 35L19 35L19 34L18 34L18 35L17 35L17 33L18 33L18 32L19 32L19 33L20 33L20 32L19 32L19 30L20 30L20 29L19 29L19 30L18 30L18 31L17 31L17 29L16 29L16 28L17 28L17 26L18 26L18 25L17 25L17 24L16 24L16 23L19 23L19 22L20 22L20 21L19 21L19 22L16 22L16 19L15 19L15 22L12 22L12 21L13 21L13 19L14 19L14 17L13 17L13 16L14 16L14 15L15 15L15 14L16 14L16 13L12 13L12 14L11 14L11 13L6 13L6 12L7 12L7 11L5 11L5 12L4 12L4 13L2 13L2 14L1 14L1 15L2 15L2 14L4 14L4 13L6 13L6 14L7 14L7 15L6 15L6 16L7 16L7 17L6 17L6 18L5 18L5 19L4 19L4 21L5 21L5 19L6 19L6 20L7 20L7 21L6 21L6 22L5 22L5 24L4 24L4 25L3 25L3 27L4 27L4 29L5 29L5 28L7 28L7 29L6 29L6 30L7 30L7 29L8 29L8 31L5 31L5 30L3 30L3 31L2 31L2 30L1 30L1 31L2 31L2 32L4 32L4 31L5 31L5 32L8 32L8 31L9 31L9 36L10 36L10 35L11 35L11 36L12 36L12 37L13 37L13 38L12 38L12 39L11 39L11 40L10 40L10 37L8 37L8 38L9 38L9 40L8 40L8 39L5 39L5 37L4 37L4 39L5 39L5 40L4 40L4 41L5 41L5 42L7 42L7 43L6 43L6 44L7 44L7 45L6 45L6 46L7 46L7 47L8 47L8 45L9 45L9 46L10 46L10 47L9 47L9 48L11 48L11 45L12 45L12 47L14 47L14 46L15 46L15 45L16 45L16 44L15 44L15 43L16 43L16 42L17 42L17 43L18 43L18 44L19 44L19 42L20 42L20 43L21 43L21 42L20 42L20 41L18 41L18 42L17 42L17 39L18 39L18 38L17 38L17 37L16 37L16 36L18 36L18 35L19 35L19 38L20 38L20 39L19 39L19 40L20 40L20 39L21 39L21 41L22 41L22 42L23 42L23 41L24 41L24 42L25 42L25 43L26 43L26 44L25 44L25 46L24 46L24 47L26 47L26 48L28 48L28 49L27 49L27 50L26 50L26 49L25 49L25 48L22 48L22 49L19 49L19 48L18 48L18 49L19 49L19 51L20 51L20 50L21 50L21 51L22 51L22 49L25 49L25 50L26 50L26 51L25 51L25 56L27 56L27 55L28 55L28 58L29 58L29 59L30 59L30 60L31 60L31 61L32 61L32 57L33 57L33 59L35 59L35 60L37 60L37 65L39 65L39 64L38 64L38 61L39 61L39 63L40 63L40 62L41 62L41 60L38 60L38 59L39 59L39 58L40 58L40 59L41 59L41 58L40 58L40 57L41 57L41 56L42 56L42 57L44 57L44 54L45 54L45 53L46 53L46 54L47 54L47 55L48 55L48 54L50 54L50 55L49 55L49 57L52 57L52 58L51 58L51 60L52 60L52 61L51 61L51 62L50 62L50 61L49 61L49 63L48 63L48 64L49 64L49 63L50 63L50 65L49 65L49 66L48 66L48 67L50 67L50 65L51 65L51 66L52 66L52 65L55 65L55 66L53 66L53 67L55 67L55 66L57 66L57 65L56 65L56 64L57 64L57 63L56 63L56 62L57 62L57 61L58 61L58 59L57 59L57 57L58 57L58 58L60 58L60 59L61 59L61 58L60 58L60 57L61 57L61 55L58 55L58 56L57 56L57 53L56 53L56 52L58 52L58 54L59 54L59 53L60 53L60 54L61 54L61 53L62 53L62 55L64 55L64 56L62 56L62 60L64 60L64 59L63 59L63 57L64 57L64 58L65 58L65 55L64 55L64 54L65 54L65 53L67 53L67 51L65 51L65 49L64 49L64 48L62 48L62 47L64 47L64 46L66 46L66 44L67 44L67 43L65 43L65 42L66 42L66 40L68 40L68 39L66 39L66 38L65 38L65 37L66 37L66 36L67 36L67 38L68 38L68 35L66 35L66 34L67 34L67 32L68 32L68 31L65 31L65 30L67 30L67 29L68 29L68 28L67 28L67 26L65 26L65 27L66 27L66 29L65 29L65 28L64 28L64 29L63 29L63 26L62 26L62 25L61 25L61 27L60 27L60 26L59 26L59 25L60 25L60 24L61 24L61 23L59 23L59 21L58 21L58 20L57 20L57 21L56 21L56 18L57 18L57 17L58 17L58 18L59 18L59 16L58 16L58 15L57 15L57 13L56 13L56 12L55 12L55 14L54 14L54 15L55 15L55 14L56 14L56 16L55 16L55 17L56 17L56 18L54 18L54 19L55 19L55 21L56 21L56 22L55 22L55 23L54 23L54 25L53 25L53 24L52 24L52 23L53 23L53 19L52 19L52 17L54 17L54 16L53 16L53 12L52 12L52 13L51 13L51 14L52 14L52 15L50 15L50 11L52 11L52 10L53 10L53 9L54 9L54 8L52 8L52 6L53 6L53 7L54 7L54 6L53 6L53 5L52 5L52 2L53 2L53 1L51 1L51 7L50 7L50 8L49 8L49 10L50 10L50 11L49 11L49 15L48 15L48 16L49 16L49 15L50 15L50 17L51 17L51 21L52 21L52 23L51 23L51 24L50 24L50 19L49 19L49 21L46 21L46 22L47 22L47 25L46 25L46 26L47 26L47 27L49 27L49 28L50 28L50 29L48 29L48 30L47 30L47 29L46 29L46 28L45 28L45 27L43 27L43 26L41 26L41 25L42 25L42 24L43 24L43 25L44 25L44 24L45 24L45 23L44 23L44 20L46 20L46 18L49 18L49 17L46 17L46 16L47 16L47 13L46 13L46 16L45 16L45 17L46 17L46 18L45 18L45 19L44 19L44 18L41 18L41 17L42 17L42 16L40 16L40 19L41 19L41 20L40 20L40 21L39 21L39 20L38 20L38 21L34 21L34 19L39 19L39 18L38 18L38 17L39 17L39 16L38 16L38 15L42 15L42 13L44 13L44 14L45 14L45 13L44 13L44 11L45 11L45 12L47 12L47 11L46 11L46 10L47 10L47 8L45 8L45 7L44 7L44 6L43 6L43 8L41 8L41 7L42 7L42 6L41 6L41 5L40 5L40 6L39 6L39 7L38 7L38 5L37 5L37 12L36 12L36 13L37 13L37 14L35 14L35 13L33 13L33 14L29 14L29 13L28 13L28 11L29 11L29 12L30 12L30 11L31 11L31 13L32 13L32 12L33 12L33 11L34 11L34 9L33 9L33 10L32 10L32 11L31 11L31 10L30 10L30 9L32 9L32 6L31 6L31 5L32 5L32 3L34 3L34 2L31 2L31 3L30 3L30 2L28 2L28 1L27 1L27 2L26 2L26 1L25 1L25 2L24 2L24 3L23 3L23 5L20 5L20 3L22 3L22 2L20 2L20 1ZM41 1L41 4L43 4L43 5L44 5L44 4L45 4L45 3L46 3L46 2L45 2L45 3L44 3L44 2L43 2L43 3L42 3L42 1ZM27 3L27 5L28 5L28 4L29 4L29 3ZM43 3L43 4L44 4L44 3ZM60 3L60 5L61 5L61 3ZM16 4L16 5L17 5L17 4ZM30 4L30 5L29 5L29 6L30 6L30 5L31 5L31 4ZM48 4L48 5L49 5L49 4ZM23 5L23 6L22 6L22 8L24 8L24 9L25 9L25 6L24 6L24 5ZM33 5L33 8L36 8L36 5ZM11 6L11 7L12 7L12 6ZM20 6L20 8L21 8L21 6ZM23 6L23 7L24 7L24 6ZM34 6L34 7L35 7L35 6ZM40 6L40 7L41 7L41 6ZM55 6L55 7L56 7L56 6ZM60 6L60 7L61 7L61 6ZM44 8L44 9L45 9L45 10L46 10L46 9L45 9L45 8ZM51 8L51 9L50 9L50 10L52 10L52 8ZM55 8L55 9L56 9L56 11L57 11L57 9L56 9L56 8ZM35 9L35 11L36 11L36 9ZM38 9L38 10L39 10L39 11L38 11L38 12L37 12L37 13L38 13L38 14L37 14L37 15L35 15L35 14L34 14L34 15L33 15L33 17L34 17L34 18L35 18L35 17L34 17L34 16L36 16L36 18L37 18L37 17L38 17L38 16L37 16L37 15L38 15L38 14L39 14L39 13L40 13L40 14L41 14L41 10L42 10L42 12L43 12L43 9L40 9L40 10L39 10L39 9ZM63 9L63 10L64 10L64 11L63 11L63 12L62 12L62 13L63 13L63 12L64 12L64 13L65 13L65 12L64 12L64 11L65 11L65 10L68 10L68 9L65 9L65 10L64 10L64 9ZM29 10L29 11L30 11L30 10ZM19 11L19 12L20 12L20 11ZM58 11L58 12L59 12L59 13L58 13L58 14L59 14L59 13L61 13L61 12L59 12L59 11ZM26 12L26 13L27 13L27 14L28 14L28 13L27 13L27 12ZM38 12L38 13L39 13L39 12ZM8 14L8 16L9 16L9 14ZM12 14L12 16L11 16L11 15L10 15L10 16L11 16L11 17L12 17L12 16L13 16L13 14ZM17 14L17 15L16 15L16 16L17 16L17 15L18 15L18 14ZM19 14L19 15L20 15L20 14ZM21 15L21 17L19 17L19 16L18 16L18 17L17 17L17 18L18 18L18 17L19 17L19 19L17 19L17 20L19 20L19 19L20 19L20 18L21 18L21 19L22 19L22 18L21 18L21 17L23 17L23 16L22 16L22 15ZM43 15L43 17L44 17L44 15ZM56 16L56 17L57 17L57 16ZM0 17L0 21L1 21L1 17ZM9 17L9 19L10 19L10 17ZM63 17L63 19L62 19L62 20L64 20L64 17ZM6 18L6 19L8 19L8 18ZM11 18L11 20L12 20L12 18ZM9 20L9 21L10 21L10 20ZM30 20L30 21L29 21L29 23L30 23L30 21L31 21L31 23L33 23L33 22L32 22L32 21L31 21L31 20ZM41 20L41 21L40 21L40 22L39 22L39 24L38 24L38 23L37 23L37 24L35 24L35 22L34 22L34 24L32 24L32 26L33 26L33 27L30 27L30 28L29 28L29 29L32 29L32 28L33 28L33 27L34 27L34 28L35 28L35 27L36 27L36 26L37 26L37 28L36 28L36 29L33 29L33 31L34 31L34 30L35 30L35 31L36 31L36 29L37 29L37 32L32 32L32 30L31 30L31 31L29 31L29 32L30 32L30 33L24 33L24 34L26 34L26 35L28 35L28 34L29 34L29 35L30 35L30 36L29 36L29 37L30 37L30 39L29 39L29 38L28 38L28 37L27 37L27 36L26 36L26 37L27 37L27 38L26 38L26 39L25 39L25 37L24 37L24 36L25 36L25 35L24 35L24 36L23 36L23 35L22 35L22 36L20 36L20 38L21 38L21 39L22 39L22 40L23 40L23 39L24 39L24 41L25 41L25 40L26 40L26 41L27 41L27 42L26 42L26 43L27 43L27 44L26 44L26 46L27 46L27 47L29 47L29 49L30 49L30 51L29 51L29 50L28 50L28 51L26 51L26 55L27 55L27 53L31 53L31 54L32 54L32 53L31 53L31 49L32 49L32 51L34 51L34 52L35 52L35 53L36 53L36 54L37 54L37 53L38 53L38 52L39 52L39 53L40 53L40 54L39 54L39 57L38 57L38 56L36 56L36 57L35 57L35 58L37 58L37 59L38 59L38 58L39 58L39 57L40 57L40 55L41 55L41 54L42 54L42 55L43 55L43 54L44 54L44 53L45 53L45 50L46 50L46 51L49 51L49 52L46 52L46 53L50 53L50 54L52 54L52 52L55 52L55 50L56 50L56 51L57 51L57 49L58 49L58 48L59 48L59 46L60 46L60 49L59 49L59 50L60 50L60 51L62 51L62 53L63 53L63 54L64 54L64 53L63 53L63 52L65 52L65 51L62 51L62 49L61 49L61 47L62 47L62 46L64 46L64 44L63 44L63 43L64 43L64 41L65 41L65 40L64 40L64 39L65 39L65 38L64 38L64 39L63 39L63 40L61 40L61 39L62 39L62 38L63 38L63 37L65 37L65 33L66 33L66 32L63 32L63 31L61 31L61 28L62 28L62 27L61 27L61 28L60 28L60 27L59 27L59 28L58 28L58 29L57 29L57 27L56 27L56 26L57 26L57 25L59 25L59 23L58 23L58 21L57 21L57 22L56 22L56 23L55 23L55 24L56 24L56 25L54 25L54 27L52 27L52 26L53 26L53 25L52 25L52 24L51 24L51 25L50 25L50 24L49 24L49 23L48 23L48 25L47 25L47 26L49 26L49 27L50 27L50 28L51 28L51 29L50 29L50 30L51 30L51 31L52 31L52 32L47 32L47 30L46 30L46 29L45 29L45 28L44 28L44 29L45 29L45 30L46 30L46 31L44 31L44 33L40 33L40 31L43 31L43 28L42 28L42 27L40 27L40 22L41 22L41 23L43 23L43 21L42 21L42 20ZM27 21L27 22L28 22L28 21ZM61 21L61 22L62 22L62 21ZM6 22L6 23L11 23L11 25L10 25L10 24L9 24L9 25L7 25L7 24L5 24L5 25L4 25L4 27L7 27L7 26L9 26L9 27L8 27L8 29L9 29L9 31L10 31L10 34L11 34L11 35L12 35L12 36L14 36L14 35L13 35L13 34L15 34L15 36L16 36L16 33L17 33L17 32L16 32L16 29L15 29L15 27L16 27L16 26L17 26L17 25L15 25L15 23L16 23L16 22L15 22L15 23L12 23L12 22ZM1 23L1 25L2 25L2 23ZM56 23L56 24L58 24L58 23ZM12 24L12 25L11 25L11 26L14 26L14 27L13 27L13 28L12 28L12 29L10 29L10 30L11 30L11 34L13 34L13 33L16 33L16 32L15 32L15 29L14 29L14 27L15 27L15 25L14 25L14 24ZM26 24L26 25L27 25L27 26L26 26L26 27L25 27L25 28L26 28L26 27L27 27L27 28L28 28L28 27L29 27L29 26L31 26L31 24L30 24L30 25L29 25L29 26L28 26L28 24ZM34 24L34 25L33 25L33 26L35 26L35 24ZM37 24L37 25L38 25L38 24ZM5 25L5 26L7 26L7 25ZM9 25L9 26L10 26L10 25ZM19 25L19 27L20 27L20 25ZM49 25L49 26L50 26L50 25ZM51 25L51 26L52 26L52 25ZM9 27L9 28L11 28L11 27ZM23 27L23 28L24 28L24 27ZM38 27L38 28L37 28L37 29L40 29L40 30L42 30L42 28L40 28L40 27ZM55 27L55 29L56 29L56 27ZM52 28L52 29L53 29L53 28ZM59 28L59 29L58 29L58 30L59 30L59 29L60 29L60 28ZM12 29L12 30L13 30L13 29ZM62 29L62 30L63 30L63 29ZM64 29L64 30L65 30L65 29ZM54 30L54 32L52 32L52 33L51 33L51 34L52 34L52 35L56 35L56 36L52 36L52 37L55 37L55 38L54 38L54 40L53 40L53 39L52 39L52 38L50 38L50 36L51 36L51 35L50 35L50 36L49 36L49 35L47 35L47 36L49 36L49 37L46 37L46 34L49 34L49 33L46 33L46 32L45 32L45 33L44 33L44 34L43 34L43 38L45 38L45 37L46 37L46 42L45 42L45 44L46 44L46 47L47 47L47 48L45 48L45 46L44 46L44 45L43 45L43 47L44 47L44 48L43 48L43 49L44 49L44 50L45 50L45 49L46 49L46 50L47 50L47 48L48 48L48 47L47 47L47 44L48 44L48 41L47 41L47 39L48 39L48 40L49 40L49 39L50 39L50 40L52 40L52 42L53 42L53 43L52 43L52 45L51 45L51 44L50 44L50 45L49 45L49 49L50 49L50 45L51 45L51 46L53 46L53 47L54 47L54 48L52 48L52 50L53 50L53 49L56 49L56 48L58 48L58 47L56 47L56 46L57 46L57 45L56 45L56 44L58 44L58 43L59 43L59 45L58 45L58 46L59 46L59 45L60 45L60 46L61 46L61 45L63 45L63 44L61 44L61 43L59 43L59 42L62 42L62 43L63 43L63 41L64 41L64 40L63 40L63 41L60 41L60 40L59 40L59 39L60 39L60 37L58 37L58 38L56 38L56 36L57 36L57 35L58 35L58 36L59 36L59 35L60 35L60 33L58 33L58 32L59 32L59 31L57 31L57 30L56 30L56 31L57 31L57 33L56 33L56 32L55 32L55 30ZM13 31L13 32L12 32L12 33L13 33L13 32L14 32L14 31ZM37 32L37 34L38 34L38 35L37 35L37 37L36 37L36 38L35 38L35 37L31 37L31 39L33 39L33 38L34 38L34 39L35 39L35 40L34 40L34 41L35 41L35 40L36 40L36 41L37 41L37 43L36 43L36 42L35 42L35 43L34 43L34 42L33 42L33 41L32 41L32 42L31 42L31 43L30 43L30 44L32 44L32 45L33 45L33 47L32 47L32 46L30 46L30 47L31 47L31 48L32 48L32 49L33 49L33 48L34 48L34 50L35 50L35 49L36 49L36 51L35 51L35 52L37 52L37 51L38 51L38 49L37 49L37 48L36 48L36 47L38 47L38 48L39 48L39 47L41 47L41 48L40 48L40 53L42 53L42 52L43 52L43 53L44 53L44 51L43 51L43 50L42 50L42 52L41 52L41 49L42 49L42 45L41 45L41 46L40 46L40 45L39 45L39 46L38 46L38 44L39 44L39 43L41 43L41 44L43 44L43 43L44 43L44 40L45 40L45 39L43 39L43 42L39 42L39 43L38 43L38 40L39 40L39 39L40 39L40 41L41 41L41 39L42 39L42 38L40 38L40 37L42 37L42 35L41 35L41 34L38 34L38 32ZM5 33L5 36L8 36L8 33ZM22 33L22 34L23 34L23 33ZM30 33L30 35L31 35L31 36L32 36L32 35L31 35L31 33ZM33 33L33 36L36 36L36 33ZM45 33L45 34L44 34L44 37L45 37L45 34L46 34L46 33ZM53 33L53 34L56 34L56 33ZM57 33L57 34L58 34L58 35L59 35L59 34L58 34L58 33ZM61 33L61 36L64 36L64 33ZM0 34L0 35L1 35L1 34ZM6 34L6 35L7 35L7 34ZM34 34L34 35L35 35L35 34ZM62 34L62 35L63 35L63 34ZM40 35L40 36L38 36L38 37L37 37L37 40L38 40L38 38L39 38L39 37L40 37L40 36L41 36L41 35ZM0 36L0 37L1 37L1 38L0 38L0 39L1 39L1 38L2 38L2 36ZM22 36L22 38L23 38L23 36ZM6 37L6 38L7 38L7 37ZM14 37L14 40L13 40L13 39L12 39L12 42L11 42L11 43L9 43L9 42L10 42L10 41L8 41L8 40L5 40L5 41L8 41L8 43L9 43L9 45L10 45L10 44L11 44L11 43L12 43L12 42L13 42L13 41L16 41L16 39L17 39L17 38L16 38L16 37ZM15 38L15 39L16 39L16 38ZM55 38L55 40L54 40L54 44L53 44L53 46L56 46L56 45L55 45L55 43L57 43L57 42L58 42L58 39L59 39L59 38L58 38L58 39L57 39L57 40L56 40L56 38ZM27 40L27 41L28 41L28 46L29 46L29 42L30 42L30 41L31 41L31 40L30 40L30 41L29 41L29 40ZM55 40L55 41L56 41L56 42L57 42L57 41L56 41L56 40ZM2 41L2 42L1 42L1 43L2 43L2 42L3 42L3 41ZM49 41L49 43L51 43L51 42L50 42L50 41ZM14 42L14 43L15 43L15 42ZM23 43L23 44L22 44L22 45L21 45L21 46L22 46L22 47L23 47L23 46L22 46L22 45L23 45L23 44L24 44L24 43ZM33 43L33 45L34 45L34 46L35 46L35 47L34 47L34 48L35 48L35 47L36 47L36 46L37 46L37 44L38 44L38 43L37 43L37 44L36 44L36 43L35 43L35 45L34 45L34 43ZM46 43L46 44L47 44L47 43ZM1 44L1 46L2 46L2 48L3 48L3 46L2 46L2 45L3 45L3 44ZM12 44L12 45L14 45L14 44ZM60 44L60 45L61 45L61 44ZM67 45L67 46L68 46L68 45ZM55 47L55 48L56 48L56 47ZM44 48L44 49L45 49L45 48ZM0 49L0 55L3 55L3 56L2 56L2 57L1 57L1 56L0 56L0 61L1 61L1 58L2 58L2 59L3 59L3 56L4 56L4 55L3 55L3 54L1 54L1 53L3 53L3 51L1 51L1 49ZM6 49L6 50L7 50L7 49ZM14 49L14 50L15 50L15 51L16 51L16 49ZM60 49L60 50L61 50L61 49ZM63 49L63 50L64 50L64 49ZM23 51L23 52L22 52L22 53L21 53L21 55L20 55L20 52L19 52L19 56L20 56L20 57L19 57L19 58L16 58L16 59L15 59L15 58L11 58L11 59L12 59L12 60L13 60L13 59L15 59L15 60L14 60L14 61L16 61L16 62L13 62L13 63L14 63L14 64L15 64L15 65L13 65L13 66L15 66L15 65L16 65L16 63L17 63L17 65L18 65L18 64L19 64L19 65L20 65L20 64L21 64L21 62L20 62L20 61L21 61L21 60L22 60L22 59L20 59L20 57L21 57L21 58L23 58L23 59L24 59L24 61L25 61L25 62L26 62L26 60L25 60L25 58L26 58L26 59L27 59L27 57L25 57L25 58L24 58L24 57L21 57L21 55L22 55L22 56L23 56L23 55L24 55L24 54L23 54L23 53L24 53L24 51ZM50 51L50 53L51 53L51 51ZM58 51L58 52L59 52L59 51ZM4 52L4 54L5 54L5 52ZM6 52L6 53L7 53L7 52ZM33 53L33 54L34 54L34 56L33 56L33 55L31 55L31 56L30 56L30 57L29 57L29 58L31 58L31 56L33 56L33 57L34 57L34 56L35 56L35 54L34 54L34 53ZM53 53L53 57L54 57L54 59L55 59L55 60L56 60L56 61L52 61L52 62L51 62L51 65L52 65L52 63L53 63L53 64L54 64L54 63L53 63L53 62L56 62L56 61L57 61L57 60L56 60L56 57L57 57L57 56L56 56L56 57L55 57L55 56L54 56L54 55L56 55L56 53ZM6 54L6 55L7 55L7 54ZM9 54L9 55L10 55L10 54ZM28 54L28 55L30 55L30 54ZM50 55L50 56L51 56L51 55ZM58 56L58 57L59 57L59 56ZM37 57L37 58L38 58L38 57ZM46 57L46 58L47 58L47 59L49 59L49 60L50 60L50 59L49 59L49 58L48 58L48 57ZM42 58L42 61L44 61L44 62L45 62L45 61L44 61L44 59L45 59L45 60L46 60L46 59L45 59L45 58ZM52 58L52 59L53 59L53 58ZM18 59L18 60L17 60L17 63L18 63L18 61L20 61L20 59ZM3 60L3 61L5 61L5 60ZM6 60L6 61L7 61L7 60ZM27 60L27 61L28 61L28 60ZM59 60L59 61L60 61L60 60ZM8 61L8 62L9 62L9 63L8 63L8 65L9 65L9 66L11 66L11 65L9 65L9 63L10 63L10 64L11 64L11 61L10 61L10 62L9 62L9 61ZM33 61L33 64L36 64L36 61ZM61 61L61 64L64 64L64 61ZM31 62L31 63L32 63L32 62ZM34 62L34 63L35 63L35 62ZM62 62L62 63L63 63L63 62ZM19 63L19 64L20 64L20 63ZM55 63L55 64L56 64L56 63ZM31 64L31 65L30 65L30 66L31 66L31 65L32 65L32 66L33 66L33 65L32 65L32 64ZM26 66L26 67L27 67L27 66ZM63 66L63 67L62 67L62 68L64 68L64 66ZM32 67L32 68L34 68L34 67ZM58 67L58 68L56 68L56 69L58 69L58 68L59 68L59 69L60 69L60 68L59 68L59 67ZM36 68L36 69L37 69L37 68ZM68 68L68 69L69 69L69 68ZM0 0L0 7L7 7L7 0ZM1 1L1 6L6 6L6 1ZM2 2L2 5L5 5L5 2ZM62 0L62 7L69 7L69 0ZM63 1L63 6L68 6L68 1ZM64 2L64 5L67 5L67 2ZM0 62L0 69L7 69L7 62ZM1 63L1 68L6 68L6 63ZM2 64L2 67L5 67L5 64Z" fill="#000000"/></g></g></svg>
