<?xml version="1.0" encoding="UTF-8"?>
<svg xmlns="http://www.w3.org/2000/svg" version="1.1" width="300" height="300" viewBox="0 0 300 300"><rect x="0" y="0" width="300" height="300" fill="#ffffff"/><g transform="scale(4.348)"><g transform="translate(0,0)"><path fill-rule="evenodd" d="M9 0L9 1L8 1L8 3L9 3L9 4L8 4L8 8L6 8L6 9L8 9L8 8L10 8L10 7L11 7L11 9L9 9L9 11L8 11L8 12L6 12L6 11L7 11L7 10L5 10L5 9L4 9L4 8L3 8L3 10L2 10L2 8L0 8L0 9L1 9L1 10L0 10L0 11L1 11L1 12L0 12L0 13L2 13L2 12L6 12L6 13L7 13L7 14L4 14L4 13L3 13L3 14L4 14L4 15L3 15L3 16L1 16L1 15L2 15L2 14L0 14L0 17L1 17L1 19L2 19L2 20L3 20L3 21L4 21L4 25L3 25L3 26L1 26L1 23L0 23L0 26L1 26L1 27L0 27L0 29L1 29L1 30L0 30L0 33L1 33L1 30L2 30L2 28L4 28L4 29L3 29L3 31L2 31L2 33L3 33L3 32L4 32L4 35L2 35L2 34L0 34L0 35L1 35L1 36L2 36L2 37L0 37L0 38L3 38L3 39L1 39L1 40L0 40L0 43L1 43L1 41L3 41L3 39L4 39L4 44L3 44L3 43L2 43L2 45L1 45L1 44L0 44L0 45L1 45L1 47L2 47L2 49L1 49L1 50L2 50L2 51L0 51L0 52L2 52L2 51L4 51L4 50L6 50L6 51L7 51L7 50L9 50L9 51L8 51L8 53L7 53L7 52L5 52L5 53L2 53L2 54L1 54L1 53L0 53L0 54L1 54L1 56L0 56L0 57L2 57L2 59L3 59L3 58L4 58L4 59L8 59L8 57L9 57L9 56L10 56L10 55L8 55L8 54L10 54L10 53L9 53L9 51L10 51L10 52L11 52L11 51L12 51L12 50L13 50L13 51L15 51L15 52L13 52L13 53L14 53L14 55L12 55L12 57L11 57L11 58L9 58L9 59L12 59L12 57L15 57L15 56L16 56L16 62L15 62L15 58L13 58L13 59L14 59L14 60L12 60L12 61L11 61L11 60L9 60L9 61L8 61L8 63L10 63L10 64L9 64L9 65L8 65L8 66L9 66L9 67L8 67L8 69L13 69L13 68L14 68L14 69L15 69L15 66L16 66L16 69L17 69L17 68L18 68L18 69L21 69L21 68L19 68L19 67L21 67L21 65L22 65L22 64L23 64L23 63L22 63L22 62L24 62L24 64L28 64L28 62L29 62L29 65L28 65L28 66L29 66L29 67L30 67L30 69L32 69L32 65L36 65L36 66L35 66L35 67L36 67L36 66L37 66L37 65L38 65L38 66L39 66L39 67L40 67L40 68L39 68L39 69L44 69L44 68L45 68L45 69L47 69L47 68L48 68L48 69L49 69L49 68L51 68L51 69L53 69L53 67L55 67L55 68L59 68L59 69L61 69L61 68L62 68L62 67L61 67L61 66L62 66L62 65L64 65L64 67L63 67L63 69L65 69L65 67L66 67L66 65L65 65L65 63L68 63L68 62L69 62L69 60L66 60L66 59L65 59L65 60L61 60L61 59L60 59L60 61L59 61L59 60L58 60L58 58L56 58L56 56L54 56L54 57L55 57L55 58L56 58L56 60L55 60L55 59L54 59L54 60L55 60L55 62L53 62L53 67L52 67L52 66L51 66L51 65L52 65L52 64L51 64L51 63L52 63L52 61L53 61L53 59L52 59L52 58L53 58L53 56L52 56L52 55L51 55L51 59L48 59L48 60L47 60L47 61L46 61L46 63L48 63L48 64L47 64L47 65L49 65L49 63L48 63L48 62L47 62L47 61L49 61L49 62L50 62L50 61L51 61L51 63L50 63L50 64L51 64L51 65L50 65L50 66L48 66L48 67L47 67L47 68L46 68L46 65L45 65L45 63L43 63L43 62L45 62L45 60L46 60L46 59L45 59L45 58L44 58L44 56L45 56L45 57L46 57L46 56L48 56L48 57L47 57L47 58L50 58L50 57L49 57L49 56L50 56L50 55L49 55L49 53L50 53L50 54L51 54L51 53L52 53L52 52L51 52L51 53L50 53L50 52L48 52L48 51L49 51L49 50L50 50L50 49L49 49L49 48L51 48L51 49L52 49L52 50L51 50L51 51L53 51L53 55L54 55L54 53L55 53L55 52L54 52L54 51L56 51L56 50L57 50L57 49L58 49L58 50L59 50L59 49L58 49L58 46L57 46L57 45L56 45L56 41L57 41L57 39L56 39L56 38L57 38L57 36L58 36L58 35L60 35L60 37L58 37L58 40L60 40L60 41L61 41L61 40L62 40L62 38L61 38L61 39L60 39L60 37L63 37L63 41L65 41L65 38L66 38L66 35L65 35L65 32L63 32L63 30L64 30L64 31L65 31L65 30L64 30L64 28L65 28L65 27L67 27L67 28L68 28L68 29L66 29L66 30L67 30L67 32L68 32L68 31L69 31L69 28L68 28L68 26L67 26L67 25L68 25L68 24L69 24L69 21L68 21L68 19L69 19L69 18L67 18L67 21L66 21L66 20L65 20L65 17L64 17L64 15L65 15L65 14L66 14L66 15L67 15L67 16L66 16L66 17L67 17L67 16L68 16L68 17L69 17L69 16L68 16L68 11L69 11L69 10L68 10L68 11L67 11L67 13L65 13L65 12L66 12L66 11L65 11L65 10L67 10L67 9L68 9L68 8L66 8L66 9L65 9L65 8L62 8L62 9L63 9L63 10L64 10L64 12L63 12L63 14L64 14L64 15L60 15L60 14L59 14L59 11L60 11L60 12L61 12L61 11L60 11L60 9L59 9L59 8L61 8L61 6L60 6L60 7L59 7L59 4L58 4L58 7L57 7L57 5L55 5L55 4L53 4L53 5L52 5L52 7L51 7L51 6L50 6L50 7L49 7L49 6L48 6L48 5L49 5L49 4L50 4L50 5L51 5L51 3L50 3L50 1L51 1L51 2L52 2L52 3L53 3L53 2L55 2L55 3L57 3L57 2L55 2L55 1L61 1L61 0L52 0L52 1L51 1L51 0L49 0L49 4L48 4L48 5L47 5L47 6L46 6L46 3L47 3L47 2L48 2L48 1L47 1L47 0L46 0L46 1L47 1L47 2L44 2L44 3L45 3L45 4L44 4L44 5L43 5L43 4L36 4L36 2L33 2L33 4L32 4L32 5L31 5L31 4L30 4L30 5L28 5L28 0L26 0L26 1L27 1L27 2L24 2L24 1L25 1L25 0L20 0L20 1L19 1L19 0L17 0L17 1L16 1L16 0L11 0L11 1L12 1L12 2L11 2L11 3L10 3L10 0ZM29 0L29 1L31 1L31 2L32 2L32 1L33 1L33 0ZM34 0L34 1L35 1L35 0ZM38 0L38 1L37 1L37 2L40 2L40 1L41 1L41 3L43 3L43 2L42 2L42 1L43 1L43 0ZM14 1L14 5L15 5L15 7L14 7L14 6L13 6L13 7L14 7L14 11L13 11L13 10L12 10L12 11L10 11L10 12L8 12L8 15L6 15L6 16L7 16L7 17L6 17L6 18L5 18L5 22L7 22L7 21L6 21L6 20L8 20L8 21L9 21L9 22L8 22L8 23L9 23L9 22L10 22L10 21L11 21L11 23L10 23L10 24L8 24L8 25L6 25L6 26L9 26L9 28L10 28L10 29L9 29L9 30L8 30L8 27L5 27L5 28L7 28L7 29L6 29L6 30L5 30L5 29L4 29L4 31L6 31L6 32L7 32L7 31L6 31L6 30L8 30L8 31L10 31L10 32L9 32L9 34L12 34L12 35L11 35L11 36L9 36L9 37L8 37L8 38L11 38L11 39L12 39L12 41L11 41L11 40L10 40L10 39L8 39L8 40L7 40L7 39L6 39L6 38L7 38L7 37L3 37L3 38L4 38L4 39L6 39L6 40L5 40L5 45L4 45L4 47L3 47L3 50L4 50L4 48L5 48L5 49L6 49L6 50L7 50L7 49L6 49L6 48L7 48L7 47L8 47L8 46L7 46L7 45L6 45L6 44L8 44L8 45L9 45L9 44L10 44L10 45L11 45L11 46L10 46L10 47L9 47L9 49L10 49L10 50L11 50L11 49L15 49L15 51L16 51L16 52L15 52L15 55L16 55L16 56L17 56L17 58L21 58L21 57L20 57L20 56L21 56L21 54L22 54L22 60L24 60L24 62L28 62L28 61L25 61L25 59L23 59L23 57L24 57L24 58L26 58L26 60L29 60L29 59L30 59L30 60L32 60L32 59L36 59L36 60L37 60L37 58L38 58L38 59L40 59L40 60L38 60L38 63L37 63L37 64L38 64L38 65L39 65L39 66L40 66L40 67L41 67L41 68L42 68L42 67L43 67L43 68L44 68L44 67L45 67L45 66L44 66L44 64L43 64L43 65L42 65L42 66L41 66L41 64L40 64L40 65L39 65L39 61L40 61L40 60L42 60L42 61L41 61L41 62L43 62L43 59L42 59L42 58L43 58L43 56L44 56L44 55L46 55L46 54L47 54L47 55L48 55L48 56L49 56L49 55L48 55L48 54L47 54L47 53L46 53L46 51L45 51L45 53L44 53L44 52L43 52L43 51L41 51L41 50L44 50L44 49L42 49L42 48L41 48L41 47L40 47L40 48L41 48L41 50L40 50L40 49L39 49L39 44L38 44L38 43L39 43L39 42L40 42L40 43L41 43L41 44L40 44L40 45L42 45L42 47L43 47L43 48L44 48L44 47L45 47L45 46L46 46L46 48L45 48L45 50L46 50L46 48L47 48L47 51L48 51L48 48L47 48L47 47L52 47L52 48L53 48L53 51L54 51L54 50L56 50L56 49L55 49L55 48L56 48L56 47L57 47L57 46L56 46L56 47L55 47L55 45L54 45L54 44L55 44L55 41L56 41L56 40L55 40L55 39L54 39L54 38L56 38L56 37L55 37L55 35L56 35L56 34L55 34L55 33L54 33L54 31L55 31L55 29L56 29L56 28L57 28L57 31L56 31L56 33L58 33L58 34L59 34L59 33L58 33L58 31L59 31L59 32L61 32L61 31L60 31L60 30L62 30L62 29L63 29L63 28L64 28L64 27L65 27L65 26L66 26L66 25L67 25L67 24L68 24L68 22L67 22L67 23L66 23L66 24L65 24L65 23L64 23L64 22L65 22L65 21L63 21L63 18L62 18L62 16L61 16L61 17L60 17L60 18L61 18L61 19L59 19L59 15L58 15L58 11L56 11L56 12L57 12L57 16L58 16L58 17L56 17L56 16L55 16L55 17L54 17L54 18L53 18L53 19L52 19L52 17L53 17L53 16L54 16L54 15L55 15L55 14L56 14L56 13L54 13L54 12L55 12L55 11L54 11L54 10L59 10L59 9L57 9L57 8L56 8L56 9L54 9L54 8L53 8L53 9L50 9L50 8L51 8L51 7L50 7L50 8L49 8L49 7L48 7L48 6L47 6L47 9L46 9L46 8L45 8L45 7L46 7L46 6L45 6L45 5L44 5L44 6L43 6L43 5L39 5L39 7L38 7L38 5L37 5L37 7L38 7L38 8L37 8L37 9L36 9L36 11L34 11L34 13L35 13L35 12L36 12L36 13L38 13L38 16L37 16L37 15L36 15L36 14L35 14L35 15L34 15L34 17L35 17L35 15L36 15L36 16L37 16L37 19L36 19L36 18L35 18L35 19L36 19L36 21L37 21L37 22L38 22L38 20L37 20L37 19L38 19L38 17L39 17L39 19L41 19L41 21L40 21L40 22L42 22L42 24L41 24L41 23L40 23L40 24L41 24L41 26L40 26L40 25L39 25L39 24L38 24L38 23L37 23L37 25L35 25L35 26L34 26L34 27L33 27L33 25L30 25L30 24L32 24L32 23L33 23L33 24L36 24L36 23L33 23L33 22L34 22L34 21L35 21L35 20L34 20L34 21L33 21L33 13L29 13L29 14L30 14L30 15L28 15L28 18L29 18L29 16L31 16L31 17L30 17L30 18L32 18L32 19L31 19L31 20L32 20L32 21L31 21L31 23L30 23L30 22L29 22L29 21L30 21L30 20L28 20L28 21L27 21L27 18L26 18L26 17L25 17L25 16L27 16L27 14L28 14L28 13L27 13L27 14L25 14L25 12L26 12L26 11L25 11L25 10L24 10L24 9L22 9L22 6L23 6L23 8L24 8L24 5L22 5L22 4L23 4L23 3L22 3L22 1L20 1L20 2L19 2L19 3L17 3L17 2L15 2L15 1ZM52 1L52 2L53 2L53 1ZM12 2L12 5L10 5L10 4L9 4L9 7L10 7L10 6L11 6L11 7L12 7L12 5L13 5L13 2ZM58 2L58 3L59 3L59 2ZM16 3L16 4L17 4L17 5L19 5L19 6L18 6L18 7L17 7L17 6L16 6L16 7L15 7L15 9L16 9L16 8L18 8L18 9L17 9L17 11L16 11L16 12L15 12L15 11L14 11L14 12L12 12L12 13L11 13L11 12L10 12L10 13L9 13L9 14L10 14L10 13L11 13L11 15L15 15L15 16L14 16L14 18L13 18L13 19L12 19L12 18L11 18L11 17L10 17L10 15L9 15L9 16L8 16L8 18L6 18L6 19L9 19L9 20L10 20L10 19L12 19L12 20L11 20L11 21L12 21L12 20L14 20L14 21L15 21L15 23L16 23L16 25L17 25L17 27L16 27L16 28L15 28L15 27L14 27L14 26L15 26L15 24L14 24L14 26L13 26L13 25L12 25L12 24L13 24L13 23L14 23L14 22L13 22L13 23L11 23L11 24L10 24L10 25L9 25L9 26L10 26L10 28L13 28L13 29L14 29L14 30L15 30L15 31L14 31L14 33L19 33L19 34L18 34L18 35L17 35L17 34L16 34L16 36L17 36L17 37L16 37L16 38L15 38L15 34L13 34L13 36L12 36L12 37L13 37L13 36L14 36L14 39L13 39L13 38L12 38L12 39L13 39L13 40L14 40L14 41L12 41L12 42L13 42L13 44L12 44L12 43L11 43L11 42L10 42L10 40L8 40L8 41L7 41L7 40L6 40L6 41L7 41L7 42L6 42L6 43L11 43L11 45L12 45L12 46L11 46L11 47L10 47L10 49L11 49L11 48L12 48L12 47L13 47L13 48L14 48L14 47L13 47L13 45L15 45L15 44L16 44L16 45L17 45L17 47L16 47L16 46L15 46L15 47L16 47L16 50L17 50L17 51L18 51L18 52L16 52L16 53L18 53L18 54L19 54L19 55L17 55L17 56L18 56L18 57L19 57L19 55L20 55L20 54L21 54L21 53L22 53L22 52L23 52L23 51L26 51L26 54L25 54L25 55L29 55L29 54L30 54L30 55L31 55L31 54L32 54L32 55L34 55L34 56L27 56L27 57L26 57L26 56L24 56L24 57L26 57L26 58L27 58L27 57L33 57L33 58L34 58L34 57L35 57L35 54L32 54L32 53L33 53L33 52L31 52L31 51L30 51L30 52L28 52L28 51L29 51L29 50L33 50L33 49L35 49L35 48L38 48L38 47L37 47L37 46L38 46L38 45L37 45L37 44L35 44L35 43L36 43L36 42L37 42L37 40L35 40L35 41L34 41L34 42L33 42L33 44L32 44L32 43L31 43L31 42L32 42L32 41L33 41L33 38L35 38L35 39L36 39L36 38L37 38L37 39L38 39L38 40L39 40L39 41L38 41L38 42L39 42L39 41L40 41L40 42L41 42L41 43L43 43L43 42L42 42L42 41L43 41L43 40L44 40L44 42L45 42L45 44L46 44L46 45L47 45L47 44L46 44L46 42L45 42L45 41L46 41L46 40L47 40L47 43L48 43L48 45L49 45L49 46L50 46L50 44L51 44L51 46L52 46L52 47L53 47L53 43L54 43L54 42L53 42L53 41L52 41L52 40L54 40L54 39L53 39L53 38L51 38L51 39L52 39L52 40L48 40L48 39L45 39L45 36L44 36L44 34L45 34L45 35L46 35L46 34L45 34L45 33L44 33L44 32L47 32L47 31L49 31L49 32L48 32L48 35L47 35L47 36L48 36L48 37L46 37L46 38L49 38L49 39L50 39L50 37L49 37L49 36L51 36L51 37L54 37L54 33L53 33L53 32L52 32L52 31L53 31L53 30L54 30L54 29L55 29L55 28L56 28L56 27L57 27L57 26L56 26L56 25L57 25L57 24L59 24L59 22L57 22L57 21L56 21L56 19L57 19L57 20L59 20L59 21L60 21L60 20L59 20L59 19L57 19L57 18L54 18L54 20L55 20L55 21L56 21L56 22L57 22L57 24L56 24L56 25L55 25L55 22L54 22L54 23L53 23L53 20L52 20L52 19L51 19L51 17L52 17L52 16L53 16L53 15L52 15L52 16L50 16L50 15L48 15L48 14L47 14L47 13L49 13L49 14L50 14L50 13L49 13L49 11L52 11L52 10L49 10L49 11L48 11L48 12L46 12L46 10L45 10L45 9L44 9L44 8L43 8L43 6L42 6L42 7L41 7L41 6L40 6L40 8L38 8L38 9L42 9L42 8L43 8L43 9L44 9L44 10L43 10L43 11L42 11L42 10L38 10L38 13L39 13L39 17L40 17L40 11L41 11L41 12L43 12L43 13L44 13L44 14L43 14L43 15L41 15L41 16L42 16L42 17L41 17L41 19L42 19L42 21L44 21L44 20L43 20L43 18L45 18L45 19L46 19L46 20L45 20L45 21L46 21L46 20L48 20L48 21L47 21L47 22L48 22L48 23L47 23L47 24L48 24L48 25L49 25L49 26L48 26L48 27L47 27L47 25L46 25L46 23L44 23L44 22L43 22L43 24L42 24L42 25L46 25L46 28L44 28L44 29L43 29L43 28L42 28L42 27L45 27L45 26L42 26L42 27L41 27L41 28L42 28L42 29L43 29L43 30L45 30L45 31L44 31L44 32L43 32L43 35L42 35L42 36L43 36L43 38L39 38L39 39L38 39L38 38L37 38L37 37L41 37L41 33L42 33L42 32L40 32L40 31L41 31L41 30L40 30L40 31L37 31L37 30L35 30L35 29L34 29L34 30L35 30L35 31L37 31L37 32L32 32L32 31L33 31L33 30L32 30L32 31L28 31L28 36L26 36L26 35L27 35L27 34L26 34L26 33L27 33L27 31L26 31L26 30L27 30L27 29L28 29L28 28L26 28L26 30L25 30L25 31L23 31L23 30L24 30L24 29L25 29L25 28L24 28L24 27L25 27L25 26L24 26L24 25L27 25L27 24L30 24L30 23L28 23L28 22L25 22L25 23L27 23L27 24L24 24L24 22L22 22L22 21L26 21L26 20L25 20L25 19L24 19L24 20L23 20L23 19L22 19L22 18L21 18L21 19L15 19L15 18L17 18L17 17L18 17L18 16L19 16L19 17L22 17L22 16L23 16L23 18L24 18L24 16L23 16L23 15L25 15L25 14L23 14L23 12L25 12L25 11L23 11L23 10L22 10L22 11L21 11L21 10L20 10L20 12L17 12L17 11L18 11L18 9L19 9L19 6L20 6L20 9L21 9L21 6L22 6L22 5L21 5L21 3L19 3L19 4L17 4L17 3ZM24 3L24 4L27 4L27 3ZM34 3L34 4L35 4L35 3ZM60 3L60 5L61 5L61 3ZM19 4L19 5L20 5L20 6L21 6L21 5L20 5L20 4ZM25 5L25 7L26 7L26 9L27 9L27 11L29 11L29 12L31 12L31 11L32 11L32 10L31 10L31 9L32 9L32 8L29 8L29 7L30 7L30 6L29 6L29 7L28 7L28 6L27 6L27 5ZM33 5L33 8L36 8L36 5ZM53 5L53 7L54 7L54 6L55 6L55 7L56 7L56 6L55 6L55 5ZM26 6L26 7L27 7L27 8L28 8L28 9L29 9L29 11L31 11L31 10L30 10L30 9L29 9L29 8L28 8L28 7L27 7L27 6ZM31 6L31 7L32 7L32 6ZM34 6L34 7L35 7L35 6ZM44 6L44 7L45 7L45 6ZM58 7L58 8L59 8L59 7ZM12 8L12 9L13 9L13 8ZM48 8L48 9L49 9L49 8ZM34 9L34 10L35 10L35 9ZM64 9L64 10L65 10L65 9ZM1 10L1 11L2 11L2 10ZM22 11L22 12L23 12L23 11ZM36 11L36 12L37 12L37 11ZM43 11L43 12L45 12L45 11ZM53 11L53 12L51 12L51 14L53 14L53 12L54 12L54 11ZM14 12L14 13L12 13L12 14L14 14L14 13L15 13L15 12ZM16 12L16 13L17 13L17 15L19 15L19 16L21 16L21 13L20 13L20 14L19 14L19 13L17 13L17 12ZM41 13L41 14L42 14L42 13ZM45 13L45 14L44 14L44 15L46 15L46 13ZM61 13L61 14L62 14L62 13ZM15 14L15 15L16 15L16 14ZM31 14L31 15L32 15L32 14ZM47 15L47 16L46 16L46 17L45 17L45 18L50 18L50 16L49 16L49 17L48 17L48 15ZM4 16L4 17L3 17L3 18L2 18L2 19L3 19L3 20L4 20L4 17L5 17L5 16ZM15 16L15 17L16 17L16 16ZM43 16L43 17L42 17L42 18L43 18L43 17L44 17L44 16ZM9 17L9 19L10 19L10 17ZM14 19L14 20L15 20L15 21L16 21L16 23L17 23L17 24L18 24L18 23L17 23L17 22L18 22L18 20L17 20L17 21L16 21L16 20L15 20L15 19ZM21 19L21 20L20 20L20 21L19 21L19 22L21 22L21 20L22 20L22 19ZM50 19L50 20L51 20L51 19ZM0 20L0 21L1 21L1 22L2 22L2 24L3 24L3 22L2 22L2 21L1 21L1 20ZM61 20L61 21L62 21L62 20ZM48 21L48 22L50 22L50 23L49 23L49 25L50 25L50 26L51 26L51 27L49 27L49 28L52 28L52 30L53 30L53 27L54 27L54 28L55 28L55 25L54 25L54 26L53 26L53 25L52 25L52 26L51 26L51 24L50 24L50 23L52 23L52 22L51 22L51 21ZM61 22L61 23L60 23L60 24L62 24L62 25L61 25L61 27L62 27L62 25L65 25L65 24L64 24L64 23L63 23L63 22ZM6 23L6 24L7 24L7 23ZM19 23L19 24L20 24L20 25L18 25L18 27L20 27L20 29L18 29L18 30L17 30L17 28L16 28L16 29L15 29L15 28L14 28L14 27L13 27L13 28L14 28L14 29L15 29L15 30L16 30L16 31L15 31L15 32L16 32L16 31L17 31L17 32L20 32L20 34L19 34L19 35L18 35L18 36L19 36L19 37L20 37L20 39L19 39L19 38L16 38L16 39L19 39L19 41L17 41L17 40L16 40L16 42L20 42L20 39L21 39L21 44L22 44L22 43L23 43L23 45L18 45L18 44L19 44L19 43L18 43L18 44L17 44L17 45L18 45L18 47L17 47L17 48L18 48L18 50L19 50L19 52L20 52L20 50L19 50L19 49L20 49L20 48L21 48L21 46L22 46L22 47L23 47L23 49L22 49L22 50L21 50L21 51L23 51L23 50L25 50L25 49L26 49L26 51L27 51L27 49L26 49L26 47L23 47L23 46L25 46L25 45L24 45L24 43L26 43L26 45L27 45L27 47L29 47L29 48L31 48L31 49L32 49L32 48L31 48L31 46L30 46L30 45L27 45L27 44L28 44L28 43L27 43L27 42L29 42L29 43L30 43L30 42L31 42L31 41L32 41L32 34L31 34L31 33L32 33L32 32L31 32L31 33L30 33L30 32L29 32L29 34L30 34L30 36L31 36L31 37L30 37L30 38L29 38L29 39L31 39L31 40L30 40L30 41L29 41L29 40L28 40L28 41L25 41L25 42L23 42L23 41L24 41L24 40L26 40L26 39L28 39L28 37L25 37L25 33L21 33L21 32L20 32L20 29L21 29L21 27L20 27L20 26L21 26L21 24L20 24L20 23ZM22 24L22 25L23 25L23 24ZM4 25L4 26L3 26L3 27L4 27L4 26L5 26L5 25ZM10 25L10 26L12 26L12 25ZM28 25L28 26L29 26L29 25ZM37 25L37 26L35 26L35 27L37 27L37 26L38 26L38 27L39 27L39 26L38 26L38 25ZM58 25L58 26L59 26L59 27L58 27L58 29L59 29L59 30L60 30L60 29L61 29L61 28L60 28L60 26L59 26L59 25ZM23 26L23 27L24 27L24 26ZM26 26L26 27L27 27L27 26ZM30 26L30 28L29 28L29 30L30 30L30 29L32 29L32 28L33 28L33 27L32 27L32 28L31 28L31 26ZM52 26L52 27L53 27L53 26ZM63 26L63 27L64 27L64 26ZM22 28L22 30L23 30L23 28ZM36 28L36 29L37 29L37 28ZM38 28L38 30L39 30L39 28ZM59 28L59 29L60 29L60 28ZM10 29L10 30L11 30L11 29ZM45 29L45 30L47 30L47 29ZM49 29L49 31L50 31L50 32L51 32L51 31L50 31L50 29ZM12 30L12 32L11 32L11 33L13 33L13 30ZM18 30L18 31L19 31L19 30ZM25 31L25 32L26 32L26 31ZM38 32L38 33L37 33L37 34L38 34L38 35L39 35L39 34L40 34L40 33L39 33L39 32ZM5 33L5 36L8 36L8 33ZM33 33L33 36L36 36L36 33ZM49 33L49 35L50 35L50 34L52 34L52 36L53 36L53 33ZM61 33L61 36L64 36L64 33ZM66 33L66 34L68 34L68 35L67 35L67 37L69 37L69 36L68 36L68 35L69 35L69 33ZM6 34L6 35L7 35L7 34ZM20 34L20 35L19 35L19 36L20 36L20 37L24 37L24 35L23 35L23 34ZM34 34L34 35L35 35L35 34ZM62 34L62 35L63 35L63 34ZM21 35L21 36L23 36L23 35ZM35 37L35 38L36 38L36 37ZM22 38L22 39L23 39L23 38ZM24 38L24 39L26 39L26 38ZM67 38L67 39L68 39L68 38ZM14 39L14 40L15 40L15 39ZM44 39L44 40L45 40L45 39ZM40 40L40 41L41 41L41 40ZM66 40L66 42L61 42L61 44L59 44L59 45L61 45L61 46L60 46L60 48L61 48L61 46L62 46L62 49L60 49L60 50L62 50L62 49L63 49L63 51L62 51L62 55L61 55L61 51L60 51L60 53L59 53L59 51L57 51L57 52L56 52L56 55L58 55L58 56L57 56L57 57L58 57L58 56L59 56L59 58L61 58L61 56L63 56L63 57L62 57L62 59L63 59L63 57L65 57L65 58L67 58L67 57L66 57L66 56L64 56L64 55L67 55L67 56L68 56L68 57L69 57L69 56L68 56L68 55L69 55L69 54L68 54L68 55L67 55L67 54L66 54L66 53L69 53L69 52L65 52L65 51L68 51L68 50L69 50L69 49L67 49L67 50L66 50L66 49L64 49L64 47L65 47L65 48L66 48L66 47L69 47L69 45L68 45L68 46L66 46L66 45L67 45L67 44L66 44L66 45L65 45L65 43L66 43L66 42L67 42L67 43L68 43L68 44L69 44L69 40L68 40L68 41L67 41L67 40ZM14 41L14 42L15 42L15 41ZM48 41L48 42L49 42L49 43L51 43L51 44L52 44L52 43L51 43L51 42L52 42L52 41L51 41L51 42L50 42L50 41ZM58 42L58 43L57 43L57 44L58 44L58 43L60 43L60 42ZM14 43L14 44L15 44L15 43ZM62 43L62 44L61 44L61 45L62 45L62 44L63 44L63 46L65 46L65 47L66 47L66 46L65 46L65 45L64 45L64 43ZM31 44L31 45L32 45L32 47L33 47L33 45L32 45L32 44ZM42 44L42 45L43 45L43 46L45 46L45 45L44 45L44 44ZM34 45L34 46L35 46L35 47L36 47L36 46L37 46L37 45ZM6 46L6 47L5 47L5 48L6 48L6 47L7 47L7 46ZM19 46L19 47L18 47L18 48L20 48L20 46ZM24 48L24 49L25 49L25 48ZM36 49L36 50L34 50L34 51L38 51L38 52L35 52L35 53L36 53L36 54L37 54L37 53L38 53L38 52L39 52L39 53L40 53L40 54L38 54L38 55L37 55L37 56L38 56L38 55L39 55L39 58L40 58L40 59L41 59L41 56L40 56L40 55L41 55L41 54L42 54L42 55L43 55L43 54L44 54L44 53L43 53L43 54L42 54L42 53L40 53L40 51L38 51L38 49ZM24 52L24 53L23 53L23 55L24 55L24 53L25 53L25 52ZM63 52L63 54L65 54L65 52ZM6 53L6 54L7 54L7 53ZM11 53L11 54L12 54L12 53ZM19 53L19 54L20 54L20 53ZM27 53L27 54L29 54L29 53ZM30 53L30 54L31 54L31 53ZM58 53L58 55L59 55L59 56L60 56L60 54L59 54L59 53ZM2 54L2 55L3 55L3 56L7 56L7 57L6 57L6 58L7 58L7 57L8 57L8 55L3 55L3 54ZM0 58L0 61L1 61L1 58ZM30 58L30 59L32 59L32 58ZM68 58L68 59L69 59L69 58ZM18 59L18 60L17 60L17 62L16 62L16 64L17 64L17 65L16 65L16 66L17 66L17 67L19 67L19 65L20 65L20 64L22 64L22 63L20 63L20 62L21 62L21 61L20 61L20 59ZM3 60L3 61L5 61L5 60ZM6 60L6 61L7 61L7 60ZM18 60L18 62L17 62L17 63L19 63L19 62L20 62L20 61L19 61L19 60ZM49 60L49 61L50 61L50 60ZM9 61L9 62L10 62L10 63L11 63L11 64L12 64L12 65L10 65L10 66L11 66L11 68L13 68L13 67L14 67L14 65L15 65L15 63L14 63L14 61L13 61L13 63L12 63L12 62L11 62L11 61ZM31 61L31 62L30 62L30 64L31 64L31 65L32 65L32 61ZM33 61L33 64L36 64L36 61ZM56 61L56 62L55 62L55 63L56 63L56 64L55 64L55 65L54 65L54 66L55 66L55 67L56 67L56 66L58 66L58 67L59 67L59 66L61 66L61 65L60 65L60 64L59 64L59 63L60 63L60 62L58 62L58 63L57 63L57 61ZM61 61L61 64L64 64L64 61ZM65 61L65 62L68 62L68 61ZM34 62L34 63L35 63L35 62ZM62 62L62 63L63 63L63 62ZM13 63L13 64L14 64L14 63ZM18 64L18 65L17 65L17 66L18 66L18 65L19 65L19 64ZM56 64L56 65L55 65L55 66L56 66L56 65L57 65L57 64ZM67 64L67 66L68 66L68 67L69 67L69 64ZM12 65L12 67L13 67L13 65ZM23 65L23 66L22 66L22 69L23 69L23 66L24 66L24 65ZM25 65L25 68L24 68L24 69L26 69L26 67L27 67L27 65ZM9 67L9 68L10 68L10 67ZM33 67L33 68L34 68L34 67ZM48 67L48 68L49 68L49 67ZM51 67L51 68L52 68L52 67ZM60 67L60 68L61 68L61 67ZM28 68L28 69L29 69L29 68ZM35 68L35 69L38 69L38 68ZM66 68L66 69L68 69L68 68ZM0 0L0 7L7 7L7 0ZM1 1L1 6L6 6L6 1ZM2 2L2 5L5 5L5 2ZM62 0L62 7L69 7L69 0ZM63 1L63 6L68 6L68 1ZM64 2L64 5L67 5L67 2ZM0 62L0 69L7 69L7 62ZM1 63L1 68L6 68L6 63ZM2 64L2 67L5 67L5 64Z" fill="#000000"/></g></g></svg>
