<?xml version="1.0" encoding="UTF-8"?>
<svg xmlns="http://www.w3.org/2000/svg" version="1.1" width="300" height="300" viewBox="0 0 300 300"><rect x="0" y="0" width="300" height="300" fill="#ffffff"/><g transform="scale(4.348)"><g transform="translate(0,0)"><path fill-rule="evenodd" d="M8 0L8 2L9 2L9 0ZM13 0L13 1L14 1L14 0ZM15 0L15 2L13 2L13 3L14 3L14 4L13 4L13 5L12 5L12 3L11 3L11 4L10 4L10 5L9 5L9 4L8 4L8 9L7 9L7 8L5 8L5 9L4 9L4 11L3 11L3 14L2 14L2 10L1 10L1 9L3 9L3 8L0 8L0 12L1 12L1 13L0 13L0 15L4 15L4 16L6 16L6 17L7 17L7 16L8 16L8 17L9 17L9 16L8 16L8 15L9 15L9 14L10 14L10 13L14 13L14 12L16 12L16 13L17 13L17 12L16 12L16 11L14 11L14 10L15 10L15 9L16 9L16 8L15 8L15 6L14 6L14 4L15 4L15 5L16 5L16 7L17 7L17 8L18 8L18 9L19 9L19 10L18 10L18 11L19 11L19 12L18 12L18 13L19 13L19 14L20 14L20 15L18 15L18 16L19 16L19 18L16 18L16 17L15 17L15 16L17 16L17 15L16 15L16 14L15 14L15 16L14 16L14 15L13 15L13 14L12 14L12 15L10 15L10 17L11 17L11 18L9 18L9 19L8 19L8 18L6 18L6 19L5 19L5 20L4 20L4 19L2 19L2 18L1 18L1 16L0 16L0 18L1 18L1 21L0 21L0 22L1 22L1 21L2 21L2 23L3 23L3 21L5 21L5 22L6 22L6 23L5 23L5 25L7 25L7 26L6 26L6 27L5 27L5 26L4 26L4 25L3 25L3 27L1 27L1 26L2 26L2 24L0 24L0 25L1 25L1 26L0 26L0 28L2 28L2 29L4 29L4 30L5 30L5 29L4 29L4 28L3 28L3 27L5 27L5 28L6 28L6 29L7 29L7 28L8 28L8 29L9 29L9 31L8 31L8 32L6 32L6 31L7 31L7 30L6 30L6 31L2 31L2 30L1 30L1 31L0 31L0 32L1 32L1 33L0 33L0 35L1 35L1 34L2 34L2 35L4 35L4 37L5 37L5 38L6 38L6 39L7 39L7 38L9 38L9 39L10 39L10 38L11 38L11 40L9 40L9 41L8 41L8 43L7 43L7 42L6 42L6 43L7 43L7 44L5 44L5 42L4 42L4 41L5 41L5 39L3 39L3 41L2 41L2 42L0 42L0 43L1 43L1 44L0 44L0 45L1 45L1 44L3 44L3 43L2 43L2 42L4 42L4 44L5 44L5 45L2 45L2 46L0 46L0 47L3 47L3 48L4 48L4 46L6 46L6 47L7 47L7 48L5 48L5 49L8 49L8 50L6 50L6 51L4 51L4 53L3 53L3 52L2 52L2 54L1 54L1 50L2 50L2 51L3 51L3 50L4 50L4 49L3 49L3 50L2 50L2 49L0 49L0 55L1 55L1 57L2 57L2 56L3 56L3 58L2 58L2 59L3 59L3 58L4 58L4 59L9 59L9 60L10 60L10 59L11 59L11 58L12 58L12 62L13 62L13 63L11 63L11 62L9 62L9 61L8 61L8 60L6 60L6 61L8 61L8 62L9 62L9 63L8 63L8 64L9 64L9 65L10 65L10 66L11 66L11 68L12 68L12 69L13 69L13 67L12 67L12 66L11 66L11 65L10 65L10 64L12 64L12 65L13 65L13 66L14 66L14 65L13 65L13 63L14 63L14 64L15 64L15 66L16 66L16 67L14 67L14 69L16 69L16 68L17 68L17 67L18 67L18 65L19 65L19 64L20 64L20 65L21 65L21 64L22 64L22 66L20 66L20 67L21 67L21 69L24 69L24 68L25 68L25 66L24 66L24 63L25 63L25 62L26 62L26 61L27 61L27 62L28 62L28 60L27 60L27 59L28 59L28 57L29 57L29 56L30 56L30 58L29 58L29 59L30 59L30 62L29 62L29 63L30 63L30 62L31 62L31 64L28 64L28 65L27 65L27 66L26 66L26 67L27 67L27 68L26 68L26 69L27 69L27 68L28 68L28 65L29 65L29 66L31 66L31 67L32 67L32 69L35 69L35 68L36 68L36 69L37 69L37 68L38 68L38 67L42 67L42 65L43 65L43 68L40 68L40 69L43 69L43 68L44 68L44 69L46 69L46 68L47 68L47 69L49 69L49 68L50 68L50 69L51 69L51 67L50 67L50 65L51 65L51 64L50 64L50 63L52 63L52 65L53 65L53 66L52 66L52 67L54 67L54 64L53 64L53 62L54 62L54 63L56 63L56 62L58 62L58 61L60 61L60 64L59 64L59 63L58 63L58 64L56 64L56 65L55 65L55 68L54 68L54 69L55 69L55 68L56 68L56 69L57 69L57 68L58 68L58 65L61 65L61 66L60 66L60 67L59 67L59 69L61 69L61 68L62 68L62 69L63 69L63 68L62 68L62 67L63 67L63 66L64 66L64 69L66 69L66 67L69 67L69 66L64 66L64 65L66 65L66 63L67 63L67 64L68 64L68 65L69 65L69 64L68 64L68 63L69 63L69 62L68 62L68 61L69 61L69 56L68 56L68 55L69 55L69 52L68 52L68 49L69 49L69 44L68 44L68 43L69 43L69 40L68 40L68 39L69 39L69 38L68 38L68 39L67 39L67 37L66 37L66 39L67 39L67 41L68 41L68 43L67 43L67 42L66 42L66 41L65 41L65 42L64 42L64 41L63 41L63 40L62 40L62 43L63 43L63 44L62 44L62 45L61 45L61 43L60 43L60 40L61 40L61 37L62 37L62 39L63 39L63 37L65 37L65 36L66 36L66 35L67 35L67 33L68 33L68 35L69 35L69 29L66 29L66 30L62 30L62 28L63 28L63 26L64 26L64 29L65 29L65 26L66 26L66 27L67 27L67 26L66 26L66 25L67 25L67 24L69 24L69 22L68 22L68 23L67 23L67 21L66 21L66 22L65 22L65 20L66 20L66 19L67 19L67 20L68 20L68 21L69 21L69 20L68 20L68 19L69 19L69 16L66 16L66 15L67 15L67 12L66 12L66 11L67 11L67 10L68 10L68 12L69 12L69 8L67 8L67 10L66 10L66 9L65 9L65 8L61 8L61 6L60 6L60 8L59 8L59 4L58 4L58 3L59 3L59 2L58 2L58 1L61 1L61 0L58 0L58 1L57 1L57 4L58 4L58 5L57 5L57 6L56 6L56 0L54 0L54 1L55 1L55 2L54 2L54 3L53 3L53 2L52 2L52 3L50 3L50 1L51 1L51 0L50 0L50 1L49 1L49 0L46 0L46 1L45 1L45 2L42 2L42 7L43 7L43 8L44 8L44 9L43 9L43 12L42 12L42 11L41 11L41 10L40 10L40 9L41 9L41 4L40 4L40 3L41 3L41 1L40 1L40 0L38 0L38 1L37 1L37 0L36 0L36 1L35 1L35 0L32 0L32 2L33 2L33 1L35 1L35 2L34 2L34 4L33 4L33 3L32 3L32 7L31 7L31 4L30 4L30 3L29 3L29 2L28 2L28 3L29 3L29 4L28 4L28 5L27 5L27 4L26 4L26 3L25 3L25 1L26 1L26 0L24 0L24 1L23 1L23 2L24 2L24 3L25 3L25 4L24 4L24 5L25 5L25 6L24 6L24 7L23 7L23 6L22 6L22 7L21 7L21 6L20 6L20 5L22 5L22 2L20 2L20 1L22 1L22 0L18 0L18 1L17 1L17 0ZM27 0L27 1L29 1L29 0ZM30 0L30 1L31 1L31 0ZM42 0L42 1L44 1L44 0ZM10 1L10 2L11 2L11 1ZM16 1L16 2L17 2L17 1ZM18 1L18 2L19 2L19 1ZM36 1L36 3L38 3L38 4L37 4L37 7L38 7L38 6L39 6L39 9L38 9L38 10L37 10L37 9L34 9L34 10L35 10L35 11L34 11L34 12L35 12L35 13L33 13L33 15L32 15L32 12L33 12L33 11L32 11L32 12L31 12L31 11L30 11L30 8L28 8L28 6L29 6L29 7L30 7L30 6L29 6L29 5L28 5L28 6L27 6L27 5L26 5L26 4L25 4L25 5L26 5L26 6L25 6L25 7L24 7L24 8L25 8L25 10L24 10L24 11L25 11L25 10L26 10L26 12L27 12L27 10L26 10L26 8L27 8L27 9L28 9L28 16L29 16L29 17L28 17L28 18L27 18L27 19L26 19L26 18L25 18L25 16L24 16L24 15L26 15L26 16L27 16L27 15L26 15L26 14L25 14L25 13L24 13L24 12L23 12L23 13L24 13L24 15L22 15L22 14L21 14L21 13L20 13L20 12L21 12L21 11L22 11L22 10L23 10L23 9L22 9L22 10L21 10L21 9L20 9L20 6L19 6L19 5L18 5L18 4L19 4L19 3L18 3L18 4L17 4L17 5L18 5L18 6L17 6L17 7L18 7L18 8L19 8L19 9L20 9L20 10L19 10L19 11L20 11L20 12L19 12L19 13L20 13L20 14L21 14L21 15L22 15L22 16L21 16L21 18L20 18L20 19L21 19L21 21L20 21L20 22L19 22L19 21L18 21L18 19L17 19L17 20L16 20L16 18L14 18L14 19L15 19L15 20L13 20L13 19L9 19L9 20L10 20L10 22L9 22L9 23L6 23L6 24L9 24L9 25L8 25L8 26L7 26L7 27L6 27L6 28L7 28L7 27L8 27L8 28L9 28L9 29L10 29L10 30L11 30L11 32L13 32L13 33L11 33L11 34L9 34L9 36L10 36L10 37L9 37L9 38L10 38L10 37L13 37L13 38L14 38L14 37L13 37L13 36L14 36L14 35L12 35L12 36L10 36L10 35L11 35L11 34L15 34L15 33L16 33L16 34L17 34L17 35L18 35L18 34L19 34L19 36L21 36L21 37L20 37L20 38L19 38L19 39L20 39L20 38L21 38L21 37L22 37L22 36L23 36L23 39L22 39L22 40L23 40L23 39L24 39L24 40L25 40L25 42L24 42L24 43L25 43L25 42L26 42L26 44L25 44L25 45L24 45L24 46L23 46L23 45L22 45L22 44L21 44L21 45L20 45L20 47L21 47L21 50L20 50L20 51L21 51L21 53L20 53L20 54L19 54L19 53L18 53L18 52L19 52L19 51L18 51L18 50L19 50L19 48L18 48L18 47L19 47L19 45L18 45L18 43L19 43L19 44L20 44L20 43L19 43L19 41L18 41L18 39L17 39L17 38L18 38L18 36L17 36L17 37L16 37L16 35L15 35L15 37L16 37L16 38L15 38L15 40L13 40L13 41L12 41L12 42L10 42L10 41L9 41L9 42L10 42L10 44L7 44L7 45L6 45L6 46L7 46L7 47L8 47L8 48L9 48L9 50L10 50L10 51L11 51L11 52L10 52L10 53L9 53L9 51L6 51L6 52L8 52L8 53L9 53L9 55L8 55L8 56L9 56L9 59L10 59L10 56L11 56L11 57L12 57L12 56L11 56L11 54L12 54L12 55L13 55L13 56L14 56L14 58L15 58L15 54L17 54L17 55L16 55L16 56L17 56L17 58L16 58L16 59L17 59L17 61L16 61L16 62L15 62L15 60L14 60L14 59L13 59L13 61L14 61L14 63L15 63L15 64L16 64L16 66L17 66L17 64L16 64L16 62L18 62L18 59L17 59L17 58L19 58L19 60L21 60L21 61L20 61L20 62L19 62L19 63L18 63L18 64L19 64L19 63L20 63L20 64L21 64L21 63L20 63L20 62L21 62L21 61L22 61L22 62L23 62L23 63L24 63L24 62L25 62L25 61L26 61L26 59L27 59L27 58L26 58L26 56L27 56L27 57L28 57L28 56L29 56L29 55L28 55L28 54L30 54L30 56L32 56L32 57L31 57L31 58L32 58L32 60L35 60L35 59L33 59L33 58L34 58L34 55L31 55L31 54L32 54L32 52L33 52L33 53L34 53L34 54L36 54L36 56L35 56L35 58L37 58L37 59L36 59L36 60L38 60L38 63L37 63L37 65L38 65L38 66L39 66L39 65L38 65L38 63L40 63L40 62L41 62L41 61L42 61L42 62L43 62L43 61L44 61L44 63L43 63L43 65L44 65L44 68L45 68L45 67L47 67L47 65L48 65L48 64L49 64L49 65L50 65L50 64L49 64L49 61L50 61L50 62L52 62L52 61L50 61L50 59L53 59L53 60L55 60L55 61L54 61L54 62L56 62L56 60L57 60L57 61L58 61L58 60L59 60L59 59L60 59L60 58L61 58L61 60L63 60L63 59L62 59L62 58L61 58L61 57L62 57L62 56L61 56L61 57L60 57L60 58L59 58L59 57L58 57L58 56L59 56L59 55L57 55L57 57L56 57L56 55L55 55L55 54L57 54L57 53L58 53L58 54L60 54L60 55L62 55L62 53L63 53L63 52L60 52L60 53L59 53L59 52L57 52L57 51L56 51L56 50L57 50L57 49L56 49L56 47L57 47L57 48L58 48L58 51L60 51L60 50L59 50L59 48L60 48L60 47L58 47L58 46L59 46L59 45L58 45L58 44L57 44L57 45L58 45L58 46L56 46L56 42L57 42L57 41L56 41L56 38L57 38L57 37L56 37L56 36L57 36L57 35L58 35L58 36L59 36L59 37L58 37L58 38L59 38L59 39L58 39L58 40L60 40L60 38L59 38L59 37L60 37L60 35L59 35L59 33L60 33L60 32L61 32L61 31L62 31L62 30L61 30L61 29L60 29L60 30L59 30L59 29L58 29L58 28L57 28L57 26L56 26L56 23L57 23L57 25L58 25L58 27L60 27L60 28L62 28L62 27L60 27L60 26L61 26L61 24L60 24L60 26L59 26L59 25L58 25L58 24L59 24L59 23L60 23L60 22L61 22L61 23L62 23L62 22L63 22L63 24L62 24L62 26L63 26L63 25L64 25L64 24L65 24L65 25L66 25L66 24L67 24L67 23L66 23L66 24L65 24L65 23L64 23L64 22L63 22L63 21L64 21L64 20L65 20L65 19L66 19L66 18L67 18L67 19L68 19L68 18L67 18L67 17L65 17L65 19L64 19L64 16L65 16L65 15L66 15L66 13L64 13L64 12L62 12L62 11L60 11L60 15L58 15L58 16L57 16L57 15L56 15L56 14L57 14L57 13L58 13L58 14L59 14L59 13L58 13L58 11L59 11L59 8L58 8L58 6L57 6L57 8L58 8L58 9L56 9L56 8L55 8L55 7L56 7L56 6L55 6L55 5L54 5L54 4L55 4L55 3L54 3L54 4L53 4L53 3L52 3L52 4L51 4L51 5L52 5L52 6L51 6L51 7L50 7L50 6L49 6L49 5L50 5L50 3L48 3L48 4L49 4L49 5L48 5L48 6L47 6L47 5L46 5L46 4L45 4L45 3L47 3L47 2L49 2L49 1L46 1L46 2L45 2L45 3L44 3L44 4L43 4L43 5L46 5L46 6L45 6L45 8L47 8L47 9L46 9L46 10L45 10L45 9L44 9L44 11L46 11L46 12L45 12L45 13L46 13L46 15L45 15L45 14L44 14L44 15L43 15L43 17L42 17L42 18L40 18L40 16L42 16L42 15L41 15L41 13L40 13L40 11L38 11L38 10L39 10L39 9L40 9L40 5L38 5L38 4L39 4L39 3L40 3L40 1L38 1L38 2L37 2L37 1ZM15 3L15 4L16 4L16 3ZM60 3L60 5L61 5L61 3ZM33 5L33 8L36 8L36 5ZM9 6L9 8L10 8L10 6ZM11 6L11 7L12 7L12 6ZM13 6L13 9L12 9L12 8L11 8L11 10L12 10L12 11L10 11L10 12L9 12L9 13L8 13L8 11L9 11L9 10L10 10L10 9L9 9L9 10L7 10L7 9L6 9L6 10L7 10L7 11L5 11L5 12L7 12L7 13L6 13L6 14L7 14L7 15L6 15L6 16L7 16L7 15L8 15L8 14L9 14L9 13L10 13L10 12L13 12L13 9L15 9L15 8L14 8L14 6ZM18 6L18 7L19 7L19 6ZM26 6L26 7L27 7L27 6ZM34 6L34 7L35 7L35 6ZM43 6L43 7L44 7L44 6ZM46 6L46 7L47 7L47 8L48 8L48 9L47 9L47 10L46 10L46 11L48 11L48 9L49 9L49 11L50 11L50 13L49 13L49 12L48 12L48 13L47 13L47 12L46 12L46 13L47 13L47 14L48 14L48 15L47 15L47 20L48 20L48 21L47 21L47 22L46 22L46 21L45 21L45 20L46 20L46 19L45 19L45 20L44 20L44 21L45 21L45 23L44 23L44 22L42 22L42 21L41 21L41 19L40 19L40 18L39 18L39 19L38 19L38 17L39 17L39 16L38 16L38 13L39 13L39 14L40 14L40 13L39 13L39 12L38 12L38 11L37 11L37 10L36 10L36 11L37 11L37 12L38 12L38 13L35 13L35 14L36 14L36 15L35 15L35 16L34 16L34 15L33 15L33 16L32 16L32 15L31 15L31 14L29 14L29 16L30 16L30 17L29 17L29 20L30 20L30 21L29 21L29 22L28 22L28 21L27 21L27 20L26 20L26 19L25 19L25 18L24 18L24 17L23 17L23 16L22 16L22 17L23 17L23 20L22 20L22 21L21 21L21 22L22 22L22 21L23 21L23 22L24 22L24 23L25 23L25 22L26 22L26 23L27 23L27 22L28 22L28 24L26 24L26 25L27 25L27 26L26 26L26 29L27 29L27 30L25 30L25 31L24 31L24 28L22 28L22 27L23 27L23 26L22 26L22 27L21 27L21 26L20 26L20 25L21 25L21 24L20 24L20 23L19 23L19 22L18 22L18 23L17 23L17 22L15 22L15 21L13 21L13 20L12 20L12 21L11 21L11 24L13 24L13 23L12 23L12 21L13 21L13 22L14 22L14 25L13 25L13 27L12 27L12 26L10 26L10 25L9 25L9 26L8 26L8 27L10 27L10 28L11 28L11 29L12 29L12 31L13 31L13 30L15 30L15 31L14 31L14 33L15 33L15 31L16 31L16 33L17 33L17 34L18 34L18 33L19 33L19 32L20 32L20 33L21 33L21 32L22 32L22 34L20 34L20 35L21 35L21 36L22 36L22 34L23 34L23 35L24 35L24 36L25 36L25 38L24 38L24 39L26 39L26 38L27 38L27 39L28 39L28 40L26 40L26 42L28 42L28 43L30 43L30 42L31 42L31 43L33 43L33 44L32 44L32 45L31 45L31 44L30 44L30 45L31 45L31 46L28 46L28 44L26 44L26 47L27 47L27 48L24 48L24 47L25 47L25 46L24 46L24 47L23 47L23 48L22 48L22 49L23 49L23 50L24 50L24 49L28 49L28 48L30 48L30 50L28 50L28 51L29 51L29 52L30 52L30 54L31 54L31 52L32 52L32 48L33 48L33 47L34 47L34 49L35 49L35 48L36 48L36 49L37 49L37 48L36 48L36 46L35 46L35 45L36 45L36 43L37 43L37 42L38 42L38 44L37 44L37 46L38 46L38 47L39 47L39 46L40 46L40 49L39 49L39 51L37 51L37 50L36 50L36 51L35 51L35 50L33 50L33 51L35 51L35 52L34 52L34 53L35 53L35 52L36 52L36 54L37 54L37 55L39 55L39 54L40 54L40 53L41 53L41 54L42 54L42 55L40 55L40 58L38 58L38 56L37 56L37 58L38 58L38 60L39 60L39 59L40 59L40 61L41 61L41 60L42 60L42 61L43 61L43 60L44 60L44 61L45 61L45 62L46 62L46 64L47 64L47 62L48 62L48 61L49 61L49 56L48 56L48 55L50 55L50 57L51 57L51 56L52 56L52 58L53 58L53 59L55 59L55 60L56 60L56 57L55 57L55 56L52 56L52 55L51 55L51 54L52 54L52 53L53 53L53 51L54 51L54 53L55 53L55 52L56 52L56 53L57 53L57 52L56 52L56 51L54 51L54 48L55 48L55 47L56 47L56 46L55 46L55 47L54 47L54 48L52 48L52 49L51 49L51 47L53 47L53 45L55 45L55 43L52 43L52 42L54 42L54 41L55 41L55 40L54 40L54 39L55 39L55 38L56 38L56 37L55 37L55 38L54 38L54 37L53 37L53 36L54 36L54 35L53 35L53 34L54 34L54 32L56 32L56 33L55 33L55 35L57 35L57 32L58 32L58 33L59 33L59 32L60 32L60 31L58 31L58 29L57 29L57 28L56 28L56 26L54 26L54 25L53 25L53 24L54 24L54 23L55 23L55 22L56 22L56 21L57 21L57 22L58 22L58 21L59 21L59 22L60 22L60 20L59 20L59 19L60 19L60 17L61 17L61 19L62 19L62 17L63 17L63 15L62 15L62 12L61 12L61 15L60 15L60 17L59 17L59 16L58 16L58 17L57 17L57 16L56 16L56 15L55 15L55 16L56 16L56 18L54 18L54 15L53 15L53 16L52 16L52 15L51 15L51 16L52 16L52 17L51 17L51 20L52 20L52 21L51 21L51 23L50 23L50 21L49 21L49 19L50 19L50 16L49 16L49 14L50 14L50 13L51 13L51 14L52 14L52 13L53 13L53 14L54 14L54 13L55 13L55 14L56 14L56 13L57 13L57 10L56 10L56 11L55 11L55 10L54 10L54 7L55 7L55 6L54 6L54 7L53 7L53 6L52 6L52 7L51 7L51 8L50 8L50 9L49 9L49 8L48 8L48 7L49 7L49 6L48 6L48 7L47 7L47 6ZM22 7L22 8L23 8L23 7ZM31 8L31 10L33 10L33 9L32 9L32 8ZM50 9L50 10L51 10L51 9ZM60 9L60 10L61 10L61 9ZM62 9L62 10L63 10L63 11L64 11L64 10L63 10L63 9ZM52 10L52 11L51 11L51 13L52 13L52 12L53 12L53 11L54 11L54 12L55 12L55 11L54 11L54 10ZM30 12L30 13L31 13L31 12ZM43 12L43 13L42 13L42 14L43 14L43 13L44 13L44 12ZM7 13L7 14L8 14L8 13ZM48 13L48 14L49 14L49 13ZM68 13L68 15L69 15L69 13ZM4 14L4 15L5 15L5 14ZM36 15L36 16L35 16L35 17L34 17L34 18L35 18L35 17L36 17L36 16L37 16L37 17L38 17L38 16L37 16L37 15ZM44 15L44 17L45 17L45 18L46 18L46 16L45 16L45 15ZM61 15L61 17L62 17L62 15ZM2 16L2 17L3 17L3 18L5 18L5 17L3 17L3 16ZM11 16L11 17L13 17L13 16ZM30 17L30 20L31 20L31 18L33 18L33 17ZM52 17L52 19L53 19L53 17ZM58 17L58 18L59 18L59 17ZM21 18L21 19L22 19L22 18ZM42 18L42 19L44 19L44 18ZM56 18L56 19L55 19L55 21L54 21L54 20L53 20L53 21L52 21L52 22L53 22L53 21L54 21L54 22L55 22L55 21L56 21L56 20L58 20L58 19L57 19L57 18ZM6 19L6 20L5 20L5 21L6 21L6 22L8 22L8 21L6 21L6 20L8 20L8 19ZM32 19L32 20L33 20L33 19ZM34 19L34 22L35 22L35 23L34 23L34 25L35 25L35 26L34 26L34 28L33 28L33 23L32 23L32 22L33 22L33 21L32 21L32 22L30 22L30 24L29 24L29 25L28 25L28 27L27 27L27 29L28 29L28 30L29 30L29 31L30 31L30 32L31 32L31 31L32 31L32 32L36 32L36 30L37 30L37 29L38 29L38 32L39 32L39 33L38 33L38 34L37 34L37 37L36 37L36 41L37 41L37 37L38 37L38 38L40 38L40 36L39 36L39 37L38 37L38 34L40 34L40 32L39 32L39 30L40 30L40 31L42 31L42 35L41 35L41 39L43 39L43 37L44 37L44 40L43 40L43 41L42 41L42 40L41 40L41 41L42 41L42 42L43 42L43 41L44 41L44 42L45 42L45 43L46 43L46 44L47 44L47 45L46 45L46 46L45 46L45 47L44 47L44 43L41 43L41 42L39 42L39 41L40 41L40 39L39 39L39 40L38 40L38 42L39 42L39 43L41 43L41 44L42 44L42 46L43 46L43 47L44 47L44 48L43 48L43 49L42 49L42 50L43 50L43 51L44 51L44 52L43 52L43 53L42 53L42 51L41 51L41 53L42 53L42 54L43 54L43 55L42 55L42 56L41 56L41 58L40 58L40 59L43 59L43 57L44 57L44 60L45 60L45 57L46 57L46 58L47 58L47 57L48 57L48 56L47 56L47 55L45 55L45 57L44 57L44 54L43 54L43 53L44 53L44 52L45 52L45 53L46 53L46 54L47 54L47 53L48 53L48 54L49 54L49 53L50 53L50 54L51 54L51 51L50 51L50 52L49 52L49 51L47 51L47 50L48 50L48 47L49 47L49 48L50 48L50 47L51 47L51 45L52 45L52 43L50 43L50 42L52 42L52 40L53 40L53 41L54 41L54 40L53 40L53 39L49 39L49 38L48 38L48 35L49 35L49 37L50 37L50 38L52 38L52 36L53 36L53 35L52 35L52 34L53 34L53 33L52 33L52 34L51 34L51 32L50 32L50 35L49 35L49 34L48 34L48 32L49 32L49 31L50 31L50 30L52 30L52 27L51 27L51 28L50 28L50 26L51 26L51 25L52 25L52 24L53 24L53 23L51 23L51 24L50 24L50 26L49 26L49 28L50 28L50 30L49 30L49 29L48 29L48 30L47 30L47 29L46 29L46 28L47 28L47 27L46 27L46 28L45 28L45 29L46 29L46 30L47 30L47 31L45 31L45 30L44 30L44 27L43 27L43 29L42 29L42 27L41 27L41 25L40 25L40 22L39 22L39 21L40 21L40 20L39 20L39 21L38 21L38 19ZM63 19L63 20L62 20L62 21L61 21L61 22L62 22L62 21L63 21L63 20L64 20L64 19ZM23 20L23 21L24 21L24 22L25 22L25 21L24 21L24 20ZM36 20L36 21L37 21L37 22L36 22L36 25L37 25L37 26L36 26L36 27L35 27L35 28L34 28L34 30L32 30L32 31L34 31L34 30L35 30L35 29L36 29L36 27L37 27L37 28L38 28L38 29L39 29L39 27L40 27L40 25L39 25L39 27L38 27L38 24L37 24L37 22L38 22L38 21L37 21L37 20ZM41 22L41 24L42 24L42 26L43 26L43 25L44 25L44 24L43 24L43 23L42 23L42 22ZM48 22L48 23L49 23L49 22ZM16 23L16 24L17 24L17 25L18 25L18 26L16 26L16 27L17 27L17 29L16 29L16 31L17 31L17 30L18 30L18 27L19 27L19 25L20 25L20 24L19 24L19 25L18 25L18 24L17 24L17 23ZM22 23L22 24L23 24L23 23ZM31 23L31 24L30 24L30 25L32 25L32 23ZM45 23L45 25L46 25L46 26L47 26L47 23ZM24 24L24 25L25 25L25 24ZM14 25L14 26L15 26L15 25ZM24 26L24 27L25 27L25 26ZM30 26L30 27L28 27L28 29L29 29L29 30L30 30L30 31L31 31L31 28L32 28L32 26ZM53 26L53 29L54 29L54 30L56 30L56 31L57 31L57 30L56 30L56 28L55 28L55 27L54 27L54 26ZM68 26L68 28L69 28L69 26ZM11 27L11 28L12 28L12 29L13 29L13 28L15 28L15 27L13 27L13 28L12 28L12 27ZM30 27L30 28L29 28L29 29L30 29L30 28L31 28L31 27ZM21 28L21 29L20 29L20 30L19 30L19 31L18 31L18 32L19 32L19 31L20 31L20 32L21 32L21 31L22 31L22 28ZM40 28L40 30L41 30L41 28ZM54 28L54 29L55 29L55 28ZM48 30L48 31L47 31L47 32L46 32L46 33L45 33L45 31L44 31L44 34L43 34L43 36L44 36L44 37L45 37L45 39L46 39L46 41L45 41L45 40L44 40L44 41L45 41L45 42L46 42L46 41L47 41L47 42L48 42L48 43L47 43L47 44L48 44L48 46L46 46L46 47L48 47L48 46L49 46L49 47L50 47L50 44L48 44L48 43L49 43L49 42L50 42L50 41L49 41L49 39L48 39L48 41L47 41L47 39L46 39L46 36L47 36L47 35L48 35L48 34L47 34L47 35L46 35L46 33L47 33L47 32L48 32L48 31L49 31L49 30ZM66 30L66 32L65 32L65 35L66 35L66 33L67 33L67 30ZM1 31L1 32L2 32L2 33L4 33L4 32L2 32L2 31ZM53 31L53 32L54 32L54 31ZM24 32L24 34L27 34L27 35L25 35L25 36L27 36L27 37L28 37L28 38L30 38L30 40L28 40L28 42L30 42L30 40L31 40L31 42L32 42L32 41L34 41L34 43L35 43L35 41L34 41L34 40L35 40L35 38L33 38L33 40L31 40L31 38L32 38L32 37L30 37L30 36L29 36L29 35L28 35L28 34L29 34L29 32L27 32L27 33L26 33L26 32ZM5 33L5 36L8 36L8 33ZM31 33L31 36L32 36L32 33ZM33 33L33 36L36 36L36 33ZM61 33L61 36L64 36L64 33ZM6 34L6 35L7 35L7 34ZM34 34L34 35L35 35L35 34ZM44 34L44 35L45 35L45 36L46 36L46 35L45 35L45 34ZM62 34L62 35L63 35L63 34ZM27 35L27 36L28 36L28 37L29 37L29 36L28 36L28 35ZM51 35L51 36L52 36L52 35ZM0 36L0 37L2 37L2 38L3 38L3 36ZM68 36L68 37L69 37L69 36ZM6 37L6 38L7 38L7 37ZM64 38L64 40L65 40L65 38ZM0 40L0 41L1 41L1 40ZM6 40L6 41L7 41L7 40ZM16 40L16 41L17 41L17 40ZM20 40L20 42L21 42L21 43L23 43L23 41L22 41L22 42L21 42L21 40ZM13 41L13 43L11 43L11 44L10 44L10 45L14 45L14 46L9 46L9 45L8 45L8 46L9 46L9 47L11 47L11 49L12 49L12 51L13 51L13 49L14 49L14 50L16 50L16 51L15 51L15 52L12 52L12 54L14 54L14 53L15 53L15 52L17 52L17 50L16 50L16 49L15 49L15 48L17 48L17 47L16 47L16 44L15 44L15 43L14 43L14 42L15 42L15 41ZM58 41L58 43L59 43L59 44L60 44L60 43L59 43L59 41ZM16 42L16 43L18 43L18 42ZM63 42L63 43L64 43L64 44L63 44L63 45L62 45L62 46L61 46L61 45L60 45L60 46L61 46L61 48L62 48L62 46L63 46L63 49L62 49L62 50L65 50L65 51L64 51L64 52L65 52L65 53L64 53L64 54L63 54L63 57L64 57L64 58L65 58L65 59L64 59L64 60L65 60L65 59L66 59L66 60L68 60L68 56L67 56L67 47L68 47L68 46L67 46L67 45L68 45L68 44L67 44L67 43L66 43L66 42L65 42L65 43L64 43L64 42ZM65 43L65 44L64 44L64 45L63 45L63 46L64 46L64 45L67 45L67 44L66 44L66 43ZM14 44L14 45L15 45L15 44ZM33 44L33 45L34 45L34 44ZM39 44L39 45L38 45L38 46L39 46L39 45L40 45L40 44ZM21 45L21 47L22 47L22 45ZM32 46L32 47L33 47L33 46ZM34 46L34 47L35 47L35 46ZM65 46L65 49L66 49L66 47L67 47L67 46ZM13 47L13 48L15 48L15 47ZM30 47L30 48L31 48L31 47ZM44 48L44 50L45 50L45 51L46 51L46 52L47 52L47 51L46 51L46 49L45 49L45 48ZM40 49L40 50L41 50L41 49ZM50 49L50 50L51 50L51 49ZM55 49L55 50L56 50L56 49ZM21 50L21 51L22 51L22 53L21 53L21 54L20 54L20 55L21 55L21 54L22 54L22 53L23 53L23 54L24 54L24 55L22 55L22 56L24 56L24 57L25 57L25 54L26 54L26 53L27 53L27 54L28 54L28 52L26 52L26 53L25 53L25 52L24 52L24 53L23 53L23 51L22 51L22 50ZM25 50L25 51L27 51L27 50ZM30 50L30 52L31 52L31 50ZM36 51L36 52L37 52L37 53L38 53L38 54L39 54L39 53L38 53L38 52L37 52L37 51ZM48 52L48 53L49 53L49 52ZM4 53L4 54L2 54L2 55L6 55L6 56L4 56L4 58L7 58L7 57L6 57L6 56L7 56L7 55L6 55L6 54L7 54L7 53L6 53L6 54L5 54L5 53ZM10 53L10 54L11 54L11 53ZM17 53L17 54L18 54L18 55L19 55L19 54L18 54L18 53ZM24 53L24 54L25 54L25 53ZM60 53L60 54L61 54L61 53ZM64 54L64 57L65 57L65 58L67 58L67 56L66 56L66 54ZM9 55L9 56L10 56L10 55ZM18 56L18 57L19 57L19 58L20 58L20 59L21 59L21 60L22 60L22 61L23 61L23 60L22 60L22 58L20 58L20 57L21 57L21 56ZM65 56L65 57L66 57L66 56ZM32 57L32 58L33 58L33 57ZM54 57L54 58L55 58L55 57ZM57 57L57 60L58 60L58 57ZM0 58L0 61L1 61L1 58ZM24 58L24 59L26 59L26 58ZM46 59L46 62L47 62L47 61L48 61L48 59ZM3 60L3 61L5 61L5 60ZM33 61L33 64L36 64L36 61ZM61 61L61 64L64 64L64 61ZM66 61L66 62L67 62L67 63L68 63L68 62L67 62L67 61ZM34 62L34 63L35 63L35 62ZM62 62L62 63L63 63L63 62ZM9 63L9 64L10 64L10 63ZM26 63L26 64L27 64L27 63ZM41 63L41 65L40 65L40 66L41 66L41 65L42 65L42 63ZM44 63L44 65L45 65L45 63ZM32 65L32 67L34 67L34 68L35 68L35 67L36 67L36 68L37 68L37 67L36 67L36 65L34 65L34 66L33 66L33 65ZM56 65L56 66L57 66L57 65ZM62 65L62 66L63 66L63 65ZM8 66L8 69L10 69L10 67L9 67L9 66ZM34 66L34 67L35 67L35 66ZM22 67L22 68L23 68L23 67ZM29 67L29 69L31 69L31 68L30 68L30 67ZM18 68L18 69L19 69L19 68ZM52 68L52 69L53 69L53 68ZM68 68L68 69L69 69L69 68ZM0 0L0 7L7 7L7 0ZM1 1L1 6L6 6L6 1ZM2 2L2 5L5 5L5 2ZM62 0L62 7L69 7L69 0ZM63 1L63 6L68 6L68 1ZM64 2L64 5L67 5L67 2ZM0 62L0 69L7 69L7 62ZM1 63L1 68L6 68L6 63ZM2 64L2 67L5 67L5 64Z" fill="#000000"/></g></g></svg>
