<?xml version="1.0" encoding="UTF-8"?>
<svg xmlns="http://www.w3.org/2000/svg" version="1.1" width="300" height="300" viewBox="0 0 300 300"><rect x="0" y="0" width="300" height="300" fill="#ffffff"/><g transform="scale(4.348)"><g transform="translate(0,0)"><path fill-rule="evenodd" d="M9 0L9 1L8 1L8 2L9 2L9 3L8 3L8 4L9 4L9 3L10 3L10 2L9 2L9 1L10 1L10 0ZM11 0L11 1L12 1L12 4L11 4L11 5L8 5L8 7L9 7L9 6L10 6L10 8L6 8L6 9L7 9L7 10L6 10L6 11L7 11L7 12L5 12L5 10L4 10L4 11L3 11L3 10L0 10L0 11L1 11L1 12L0 12L0 17L3 17L3 18L2 18L2 19L1 19L1 18L0 18L0 19L1 19L1 20L2 20L2 19L3 19L3 20L4 20L4 21L2 21L2 23L3 23L3 24L4 24L4 25L2 25L2 24L0 24L0 25L1 25L1 27L0 27L0 32L1 32L1 37L0 37L0 38L2 38L2 37L3 37L3 38L4 38L4 37L5 37L5 39L7 39L7 40L5 40L5 41L7 41L7 42L5 42L5 46L4 46L4 42L3 42L3 41L4 41L4 40L2 40L2 41L1 41L1 40L0 40L0 41L1 41L1 43L2 43L2 42L3 42L3 44L2 44L2 45L1 45L1 44L0 44L0 45L1 45L1 46L3 46L3 47L2 47L2 48L0 48L0 50L1 50L1 49L3 49L3 48L5 48L5 49L4 49L4 51L5 51L5 52L4 52L4 53L3 53L3 54L2 54L2 55L1 55L1 54L0 54L0 57L1 57L1 58L0 58L0 61L1 61L1 58L2 58L2 59L3 59L3 58L4 58L4 59L10 59L10 60L9 60L9 61L8 61L8 60L6 60L6 61L8 61L8 63L9 63L9 64L8 64L8 69L9 69L9 68L10 68L10 69L11 69L11 68L12 68L12 69L15 69L15 68L12 68L12 67L13 67L13 66L14 66L14 67L16 67L16 66L14 66L14 64L18 64L18 65L17 65L17 69L22 69L22 68L19 68L19 67L20 67L20 66L19 66L19 65L20 65L20 64L21 64L21 63L22 63L22 64L24 64L24 65L23 65L23 67L24 67L24 69L26 69L26 66L25 66L25 65L28 65L28 66L27 66L27 67L28 67L28 68L27 68L27 69L32 69L32 68L29 68L29 66L30 66L30 65L32 65L32 66L31 66L31 67L33 67L33 69L35 69L35 68L36 68L36 69L38 69L38 68L37 68L37 67L39 67L39 66L38 66L38 64L41 64L41 66L40 66L40 67L41 67L41 68L42 68L42 69L44 69L44 68L47 68L47 69L49 69L49 66L50 66L50 68L52 68L52 66L53 66L53 67L55 67L55 66L56 66L56 68L55 68L55 69L56 69L56 68L57 68L57 66L58 66L58 67L60 67L60 68L58 68L58 69L60 69L60 68L62 68L62 69L64 69L64 68L65 68L65 69L68 69L68 68L67 68L67 65L68 65L68 62L69 62L69 61L68 61L68 62L67 62L67 61L66 61L66 60L67 60L67 59L68 59L68 60L69 60L69 59L68 59L68 58L69 58L69 56L67 56L67 55L68 55L68 54L69 54L69 53L68 53L68 54L65 54L65 55L63 55L63 56L62 56L62 54L61 54L61 53L62 53L62 52L63 52L63 53L64 53L64 52L68 52L68 50L69 50L69 48L68 48L68 45L67 45L67 44L69 44L69 43L66 43L66 42L69 42L69 40L67 40L67 39L68 39L68 38L67 38L67 39L62 39L62 37L63 37L63 38L64 38L64 37L65 37L65 36L66 36L66 37L68 37L68 36L69 36L69 35L68 35L68 34L69 34L69 33L68 33L68 34L67 34L67 33L66 33L66 32L67 32L67 31L68 31L68 32L69 32L69 31L68 31L68 30L69 30L69 29L67 29L67 31L64 31L64 32L63 32L63 31L62 31L62 32L58 32L58 30L57 30L57 31L56 31L56 30L55 30L55 29L56 29L56 27L55 27L55 26L56 26L56 24L55 24L55 23L54 23L54 22L56 22L56 23L57 23L57 25L59 25L59 26L57 26L57 27L58 27L58 29L59 29L59 30L62 30L62 29L61 29L61 28L62 28L62 27L63 27L63 28L65 28L65 29L64 29L64 30L65 30L65 29L66 29L66 28L68 28L68 26L67 26L67 25L69 25L69 24L68 24L68 18L69 18L69 17L67 17L67 16L69 16L69 15L68 15L68 14L64 14L64 13L63 13L63 12L65 12L65 13L67 13L67 11L68 11L68 12L69 12L69 11L68 11L68 10L67 10L67 9L68 9L68 8L67 8L67 9L66 9L66 8L65 8L65 11L63 11L63 10L61 10L61 9L62 9L62 8L61 8L61 9L60 9L60 7L61 7L61 6L60 6L60 7L59 7L59 4L58 4L58 5L57 5L57 6L56 6L56 5L55 5L55 4L56 4L56 3L55 3L55 2L56 2L56 1L55 1L55 0L53 0L53 1L52 1L52 0L51 0L51 3L50 3L50 2L49 2L49 1L50 1L50 0L49 0L49 1L48 1L48 0L47 0L47 1L48 1L48 2L47 2L47 3L48 3L48 4L47 4L47 6L46 6L46 5L44 5L44 3L45 3L45 4L46 4L46 3L45 3L45 2L46 2L46 1L45 1L45 0L44 0L44 1L45 1L45 2L44 2L44 3L43 3L43 4L42 4L42 2L43 2L43 0L41 0L41 1L38 1L38 0L37 0L37 1L34 1L34 2L35 2L35 3L33 3L33 2L32 2L32 0L31 0L31 1L30 1L30 0L28 0L28 1L27 1L27 2L28 2L28 3L27 3L27 4L28 4L28 3L29 3L29 4L31 4L31 5L32 5L32 10L31 10L31 9L30 9L30 8L28 8L28 9L27 9L27 11L26 11L26 12L25 12L25 13L21 13L21 10L20 10L20 8L21 8L21 9L22 9L22 8L21 8L21 6L22 6L22 7L23 7L23 6L22 6L22 5L25 5L25 6L24 6L24 7L25 7L25 8L24 8L24 9L23 9L23 10L22 10L22 11L23 11L23 12L24 12L24 11L23 11L23 10L24 10L24 9L25 9L25 10L26 10L26 7L27 7L27 6L28 6L28 7L29 7L29 6L30 6L30 7L31 7L31 6L30 6L30 5L29 5L29 6L28 6L28 5L27 5L27 6L26 6L26 2L25 2L25 0L23 0L23 1L24 1L24 2L23 2L23 3L25 3L25 4L21 4L21 3L22 3L22 2L21 2L21 3L19 3L19 2L20 2L20 1L19 1L19 0L17 0L17 1L16 1L16 0L14 0L14 2L13 2L13 0ZM21 0L21 1L22 1L22 0ZM57 0L57 1L61 1L61 0ZM15 1L15 3L14 3L14 5L13 5L13 4L12 4L12 6L11 6L11 8L12 8L12 10L13 10L13 11L14 11L14 14L13 14L13 15L11 15L11 14L12 14L12 11L8 11L8 12L11 12L11 14L9 14L9 13L6 13L6 14L5 14L5 13L4 13L4 12L3 12L3 11L2 11L2 12L3 12L3 13L2 13L2 16L3 16L3 15L4 15L4 17L5 17L5 16L7 16L7 17L6 17L6 18L4 18L4 19L5 19L5 21L4 21L4 22L3 22L3 23L4 23L4 22L10 22L10 23L11 23L11 22L10 22L10 21L8 21L8 20L9 20L9 19L10 19L10 18L9 18L9 19L8 19L8 20L7 20L7 19L6 19L6 18L8 18L8 16L9 16L9 17L11 17L11 21L12 21L12 24L13 24L13 23L14 23L14 24L15 24L15 23L14 23L14 22L15 22L15 19L14 19L14 21L12 21L12 20L13 20L13 19L12 19L12 18L13 18L13 16L14 16L14 17L15 17L15 18L16 18L16 19L17 19L17 20L18 20L18 19L17 19L17 18L18 18L18 17L21 17L21 18L22 18L22 17L23 17L23 19L21 19L21 20L19 20L19 21L16 21L16 22L17 22L17 24L16 24L16 25L11 25L11 24L10 24L10 25L6 25L6 24L7 24L7 23L6 23L6 24L5 24L5 25L4 25L4 26L3 26L3 27L2 27L2 28L3 28L3 27L4 27L4 26L5 26L5 25L6 25L6 26L9 26L9 27L8 27L8 28L7 28L7 27L5 27L5 29L6 29L6 30L5 30L5 31L4 31L4 32L5 32L5 31L6 31L6 32L7 32L7 31L8 31L8 32L9 32L9 33L10 33L10 32L11 32L11 34L10 34L10 35L11 35L11 34L13 34L13 32L14 32L14 34L15 34L15 33L16 33L16 34L17 34L17 35L16 35L16 36L15 36L15 35L13 35L13 37L12 37L12 36L10 36L10 37L8 37L8 38L10 38L10 40L9 40L9 39L8 39L8 40L7 40L7 41L10 41L10 40L11 40L11 42L9 42L9 43L8 43L8 44L7 44L7 43L6 43L6 44L7 44L7 45L6 45L6 46L5 46L5 48L7 48L7 47L8 47L8 49L6 49L6 50L5 50L5 51L6 51L6 52L7 52L7 51L6 51L6 50L8 50L8 49L11 49L11 50L12 50L12 51L13 51L13 53L12 53L12 52L11 52L11 51L10 51L10 50L9 50L9 51L10 51L10 52L8 52L8 53L10 53L10 54L11 54L11 53L12 53L12 54L13 54L13 55L12 55L12 56L11 56L11 55L9 55L9 54L8 54L8 57L5 57L5 58L8 58L8 57L10 57L10 58L11 58L11 60L10 60L10 63L11 63L11 60L13 60L13 59L12 59L12 58L14 58L14 57L15 57L15 58L16 58L16 57L17 57L17 56L19 56L19 57L20 57L20 58L21 58L21 59L20 59L20 62L21 62L21 61L23 61L23 60L24 60L24 61L25 61L25 60L26 60L26 62L27 62L27 63L28 63L28 65L29 65L29 64L30 64L30 63L32 63L32 60L33 60L33 59L34 59L34 60L36 60L36 59L37 59L37 60L39 60L39 59L38 59L38 58L39 58L39 57L41 57L41 56L39 56L39 55L41 55L41 54L42 54L42 55L43 55L43 56L42 56L42 57L43 57L43 60L42 60L42 58L41 58L41 59L40 59L40 62L39 62L39 61L38 61L38 63L37 63L37 64L38 64L38 63L41 63L41 64L44 64L44 66L41 66L41 67L43 67L43 68L44 68L44 66L45 66L45 67L46 67L46 66L47 66L47 63L53 63L53 62L51 62L51 61L54 61L54 60L56 60L56 61L57 61L57 62L56 62L56 63L55 63L55 64L56 64L56 66L57 66L57 65L58 65L58 66L60 66L60 65L59 65L59 64L60 64L60 60L61 60L61 59L60 59L60 58L62 58L62 60L63 60L63 58L65 58L65 59L64 59L64 60L66 60L66 59L67 59L67 58L68 58L68 57L67 57L67 56L66 56L66 58L65 58L65 56L64 56L64 57L62 57L62 56L61 56L61 55L60 55L60 56L57 56L57 55L59 55L59 53L60 53L60 52L62 52L62 51L67 51L67 50L66 50L66 49L67 49L67 48L65 48L65 47L66 47L66 44L63 44L63 42L65 42L65 41L63 41L63 40L62 40L62 43L59 43L59 41L61 41L61 38L59 38L59 37L60 37L60 35L56 35L56 33L57 33L57 34L60 34L60 33L57 33L57 32L55 32L55 31L54 31L54 30L52 30L52 31L53 31L53 32L51 32L51 29L54 29L54 26L53 26L53 24L54 24L54 25L55 25L55 24L54 24L54 23L51 23L51 22L52 22L52 21L53 21L53 20L52 20L52 18L53 18L53 16L51 16L51 17L50 17L50 16L49 16L49 14L47 14L47 12L49 12L49 13L50 13L50 15L51 15L51 13L52 13L52 14L53 14L53 13L56 13L56 15L55 15L55 14L54 14L54 15L55 15L55 16L54 16L54 17L55 17L55 18L56 18L56 22L57 22L57 23L58 23L58 22L59 22L59 21L62 21L62 22L61 22L61 23L62 23L62 24L59 24L59 25L62 25L62 26L63 26L63 27L65 27L65 26L63 26L63 25L65 25L65 23L66 23L66 22L65 22L65 20L66 20L66 21L67 21L67 20L66 20L66 18L67 18L67 17L66 17L66 16L65 16L65 15L64 15L64 16L62 16L62 15L63 15L63 13L62 13L62 11L60 11L60 10L59 10L59 7L58 7L58 6L57 6L57 7L58 7L58 8L56 8L56 9L55 9L55 8L54 8L54 9L55 9L55 10L53 10L53 7L54 7L54 5L53 5L53 2L54 2L54 1L53 1L53 2L52 2L52 3L51 3L51 4L50 4L50 3L49 3L49 2L48 2L48 3L49 3L49 4L48 4L48 6L47 6L47 7L46 7L46 6L45 6L45 7L44 7L44 5L43 5L43 7L42 7L42 6L41 6L41 2L42 2L42 1L41 1L41 2L36 2L36 3L35 3L35 4L36 4L36 3L38 3L38 4L37 4L37 5L38 5L38 6L37 6L37 8L38 8L38 10L36 10L36 9L34 9L34 10L32 10L32 11L31 11L31 12L32 12L32 13L31 13L31 14L29 14L29 12L26 12L26 13L25 13L25 14L23 14L23 15L22 15L22 14L21 14L21 13L20 13L20 10L19 10L19 9L17 9L17 11L18 11L18 10L19 10L19 13L20 13L20 14L21 14L21 15L19 15L19 14L18 14L18 15L17 15L17 14L16 14L16 15L15 15L15 11L14 11L14 8L16 8L16 5L20 5L20 6L19 6L19 7L20 7L20 6L21 6L21 4L17 4L17 3L16 3L16 1ZM18 1L18 2L19 2L19 1ZM29 2L29 3L30 3L30 2ZM31 2L31 4L32 4L32 2ZM57 2L57 3L59 3L59 2ZM15 3L15 4L16 4L16 3ZM60 3L60 5L61 5L61 3ZM39 4L39 6L38 6L38 7L39 7L39 6L40 6L40 8L39 8L39 10L38 10L38 11L37 11L37 13L36 13L36 12L34 12L34 13L33 13L33 14L34 14L34 13L35 13L35 15L38 15L38 16L37 16L37 18L36 18L36 17L34 17L34 18L33 18L33 16L34 16L34 15L33 15L33 16L32 16L32 15L31 15L31 16L29 16L29 20L30 20L30 21L29 21L29 22L30 22L30 23L27 23L27 22L26 22L26 20L24 20L24 19L23 19L23 22L22 22L22 23L20 23L20 21L19 21L19 24L17 24L17 25L16 25L16 26L13 26L13 27L12 27L12 26L10 26L10 28L8 28L8 29L7 29L7 28L6 28L6 29L7 29L7 30L6 30L6 31L7 31L7 30L11 30L11 31L12 31L12 30L11 30L11 29L10 29L10 28L11 28L11 27L12 27L12 28L13 28L13 27L14 27L14 29L13 29L13 30L14 30L14 31L16 31L16 30L15 30L15 29L17 29L17 30L18 30L18 31L17 31L17 32L16 32L16 33L17 33L17 34L19 34L19 35L17 35L17 37L18 37L18 38L17 38L17 39L16 39L16 40L17 40L17 45L18 45L18 46L17 46L17 47L16 47L16 48L17 48L17 49L18 49L18 50L17 50L17 52L14 52L14 55L13 55L13 56L12 56L12 57L11 57L11 56L10 56L10 57L11 57L11 58L12 58L12 57L14 57L14 56L15 56L15 57L16 57L16 56L15 56L15 55L17 55L17 54L19 54L19 56L20 56L20 57L21 57L21 58L22 58L22 57L24 57L24 58L23 58L23 59L21 59L21 60L23 60L23 59L24 59L24 60L25 60L25 58L26 58L26 60L27 60L27 61L28 61L28 60L27 60L27 57L25 57L25 56L26 56L26 55L25 55L25 53L26 53L26 54L28 54L28 55L27 55L27 56L28 56L28 55L29 55L29 56L30 56L30 57L29 57L29 58L28 58L28 59L29 59L29 58L30 58L30 60L29 60L29 62L28 62L28 63L30 63L30 62L31 62L31 60L32 60L32 59L31 59L31 56L32 56L32 55L34 55L34 54L33 54L33 53L34 53L34 52L33 52L33 53L31 53L31 52L32 52L32 51L31 51L31 52L28 52L28 51L27 51L27 50L28 50L28 49L27 49L27 50L26 50L26 49L25 49L25 48L26 48L26 47L25 47L25 48L24 48L24 49L22 49L22 47L23 47L23 46L27 46L27 48L29 48L29 49L31 49L31 50L33 50L33 51L34 51L34 50L36 50L36 51L35 51L35 53L37 53L37 54L36 54L36 55L35 55L35 57L36 57L36 58L34 58L34 59L36 59L36 58L38 58L38 55L37 55L37 54L39 54L39 53L40 53L40 52L42 52L42 51L44 51L44 52L43 52L43 53L42 53L42 54L43 54L43 53L44 53L44 56L43 56L43 57L44 57L44 56L46 56L46 57L47 57L47 58L48 58L48 59L49 59L49 60L47 60L47 59L46 59L46 58L45 58L45 59L46 59L46 60L45 60L45 61L44 61L44 60L43 60L43 61L42 61L42 60L41 60L41 62L42 62L42 63L43 63L43 61L44 61L44 62L45 62L45 63L44 63L44 64L45 64L45 66L46 66L46 64L45 64L45 63L46 63L46 62L45 62L45 61L46 61L46 60L47 60L47 62L50 62L50 60L51 60L51 59L50 59L50 55L51 55L51 56L52 56L52 55L54 55L54 54L55 54L55 56L53 56L53 57L54 57L54 58L53 58L53 59L54 59L54 58L55 58L55 57L56 57L56 58L57 58L57 57L56 57L56 55L57 55L57 53L59 53L59 52L58 52L58 51L62 51L62 50L63 50L63 49L62 49L62 50L58 50L58 49L56 49L56 47L57 47L57 48L60 48L60 47L61 47L61 48L62 48L62 46L63 46L63 47L64 47L64 46L63 46L63 45L62 45L62 46L60 46L60 45L59 45L59 44L58 44L58 45L59 45L59 47L58 47L58 46L57 46L57 45L56 45L56 44L54 44L54 43L55 43L55 41L54 41L54 40L57 40L57 41L56 41L56 43L58 43L58 42L57 42L57 41L58 41L58 40L59 40L59 39L56 39L56 35L55 35L55 37L53 37L53 38L55 38L55 39L53 39L53 41L51 41L51 42L50 42L50 40L52 40L52 39L51 39L51 38L52 38L52 37L51 37L51 38L49 38L49 37L50 37L50 36L49 36L49 34L50 34L50 33L51 33L51 34L52 34L52 35L51 35L51 36L53 36L53 34L55 34L55 33L51 33L51 32L50 32L50 31L49 31L49 30L50 30L50 29L51 29L51 28L50 28L50 27L53 27L53 26L52 26L52 25L51 25L51 23L50 23L50 21L52 21L52 20L50 20L50 17L49 17L49 16L48 16L48 15L47 15L47 16L45 16L45 15L44 15L44 14L45 14L45 13L44 13L44 12L46 12L46 11L44 11L44 12L43 12L43 13L42 13L42 14L41 14L41 12L42 12L42 10L45 10L45 9L46 9L46 7L45 7L45 9L44 9L44 8L43 8L43 9L41 9L41 12L40 12L40 11L39 11L39 10L40 10L40 8L41 8L41 6L40 6L40 4ZM49 4L49 5L50 5L50 4ZM51 4L51 5L52 5L52 4ZM14 5L14 7L13 7L13 6L12 6L12 7L13 7L13 8L14 8L14 7L15 7L15 5ZM33 5L33 8L36 8L36 5ZM17 6L17 7L18 7L18 6ZM25 6L25 7L26 7L26 6ZM34 6L34 7L35 7L35 6ZM48 6L48 7L47 7L47 10L50 10L50 7L51 7L51 8L52 8L52 7L53 7L53 6L52 6L52 7L51 7L51 6L50 6L50 7L49 7L49 6ZM55 6L55 7L56 7L56 6ZM0 8L0 9L5 9L5 8ZM63 8L63 9L64 9L64 8ZM8 9L8 10L9 10L9 9ZM10 9L10 10L11 10L11 9ZM15 9L15 10L16 10L16 9ZM28 9L28 10L29 10L29 11L30 11L30 9ZM56 9L56 11L55 11L55 12L58 12L58 13L60 13L60 14L59 14L59 15L58 15L58 14L57 14L57 15L56 15L56 16L55 16L55 17L56 17L56 16L59 16L59 18L60 18L60 20L62 20L62 21L63 21L63 18L66 18L66 17L63 17L63 18L62 18L62 16L61 16L61 15L62 15L62 13L60 13L60 12L58 12L58 11L59 11L59 10L57 10L57 9ZM35 10L35 11L36 11L36 10ZM66 10L66 11L67 11L67 10ZM38 11L38 14L39 14L39 15L40 15L40 16L38 16L38 19L39 19L39 20L40 20L40 21L39 21L39 22L37 22L37 23L35 23L35 21L38 21L38 20L35 20L35 19L30 19L30 20L33 20L33 21L30 21L30 22L31 22L31 23L32 23L32 24L31 24L31 25L32 25L32 26L31 26L31 27L33 27L33 28L34 28L34 29L33 29L33 30L32 30L32 32L31 32L31 31L29 31L29 30L31 30L31 29L32 29L32 28L31 28L31 29L28 29L28 27L29 27L29 28L30 28L30 27L29 27L29 25L30 25L30 24L28 24L28 25L27 25L27 24L26 24L26 22L25 22L25 23L24 23L24 22L23 22L23 23L24 23L24 24L25 24L25 25L27 25L27 26L28 26L28 27L25 27L25 28L24 28L24 27L23 27L23 26L24 26L24 25L22 25L22 24L21 24L21 25L20 25L20 24L19 24L19 25L17 25L17 28L19 28L19 29L20 29L20 30L22 30L22 32L20 32L20 31L19 31L19 32L20 32L20 33L19 33L19 34L20 34L20 35L19 35L19 37L20 37L20 39L21 39L21 40L20 40L20 42L21 42L21 43L24 43L24 44L26 44L26 45L27 45L27 46L28 46L28 47L30 47L30 48L31 48L31 49L33 49L33 50L34 50L34 49L36 49L36 50L37 50L37 51L39 51L39 52L40 52L40 51L39 51L39 50L41 50L41 51L42 51L42 50L41 50L41 49L42 49L42 48L43 48L43 46L42 46L42 45L41 45L41 46L42 46L42 48L41 48L41 47L40 47L40 46L39 46L39 45L40 45L40 44L41 44L41 43L40 43L40 41L41 41L41 40L44 40L44 42L43 42L43 43L44 43L44 42L45 42L45 43L46 43L46 44L43 44L43 45L44 45L44 46L47 46L47 47L46 47L46 49L45 49L45 47L44 47L44 49L43 49L43 50L44 50L44 49L45 49L45 52L44 52L44 53L45 53L45 54L46 54L46 56L49 56L49 55L47 55L47 54L48 54L48 53L45 53L45 52L46 52L46 51L47 51L47 49L48 49L48 48L49 48L49 49L50 49L50 50L49 50L49 53L50 53L50 54L51 54L51 55L52 55L52 54L51 54L51 53L53 53L53 52L54 52L54 53L57 53L57 52L55 52L55 51L56 51L56 50L55 50L55 51L53 51L53 49L54 49L54 48L55 48L55 47L53 47L53 43L54 43L54 42L53 42L53 43L52 43L52 42L51 42L51 43L50 43L50 42L49 42L49 41L47 41L47 40L50 40L50 39L47 39L47 40L45 40L45 39L42 39L42 38L40 38L40 39L41 39L41 40L39 40L39 37L41 37L41 36L42 36L42 37L43 37L43 36L44 36L44 37L45 37L45 38L48 38L48 37L45 37L45 36L47 36L47 35L48 35L48 34L49 34L49 33L50 33L50 32L49 32L49 33L45 33L45 32L44 32L44 31L46 31L46 32L47 32L47 31L46 31L46 30L47 30L47 28L49 28L49 27L50 27L50 26L51 26L51 25L50 25L50 24L49 24L49 23L48 23L48 24L47 24L47 22L49 22L49 21L50 21L50 20L49 20L49 18L47 18L47 17L48 17L48 16L47 16L47 17L45 17L45 16L44 16L44 15L43 15L43 14L44 14L44 13L43 13L43 14L42 14L42 15L40 15L40 14L39 14L39 13L40 13L40 12L39 12L39 11ZM49 11L49 12L50 12L50 13L51 13L51 11ZM53 11L53 12L54 12L54 11ZM26 13L26 14L27 14L27 16L28 16L28 15L29 15L29 14L27 14L27 13ZM4 14L4 15L5 15L5 14ZM6 14L6 15L7 15L7 16L8 16L8 14ZM9 15L9 16L10 16L10 15ZM25 15L25 16L26 16L26 15ZM59 15L59 16L60 16L60 15ZM15 16L15 17L16 17L16 18L17 18L17 17L18 17L18 16ZM21 16L21 17L22 17L22 16ZM23 16L23 17L24 17L24 18L25 18L25 19L26 19L26 17L24 17L24 16ZM31 16L31 18L32 18L32 16ZM42 16L42 17L41 17L41 18L39 18L39 19L40 19L40 20L42 20L42 21L41 21L41 22L44 22L44 23L45 23L45 24L46 24L46 25L47 25L47 26L48 26L48 27L49 27L49 26L50 26L50 25L49 25L49 24L48 24L48 25L47 25L47 24L46 24L46 22L44 22L44 20L43 20L43 17L44 17L44 16ZM27 17L27 18L28 18L28 17ZM51 17L51 18L52 18L52 17ZM19 18L19 19L20 19L20 18ZM44 18L44 19L46 19L46 18ZM61 18L61 19L62 19L62 18ZM27 19L27 20L28 20L28 19ZM54 19L54 20L55 20L55 19ZM58 19L58 20L57 20L57 22L58 22L58 20L59 20L59 19ZM6 20L6 21L7 21L7 20ZM46 20L46 21L49 21L49 20ZM0 21L0 22L1 22L1 21ZM32 22L32 23L33 23L33 24L34 24L34 25L33 25L33 27L35 27L35 28L36 28L36 29L37 29L37 30L35 30L35 29L34 29L34 30L33 30L33 31L34 31L34 32L32 32L32 34L30 34L30 35L29 35L29 33L31 33L31 32L29 32L29 31L27 31L27 30L25 30L25 29L26 29L26 28L25 28L25 29L22 29L22 30L25 30L25 31L26 31L26 32L24 32L24 33L21 33L21 35L23 35L23 36L24 36L24 37L21 37L21 36L20 36L20 37L21 37L21 39L22 39L22 38L26 38L26 36L27 36L27 35L28 35L28 36L29 36L29 37L30 37L30 38L29 38L29 39L30 39L30 38L31 38L31 36L32 36L32 40L33 40L33 41L30 41L30 40L28 40L28 39L27 39L27 41L30 41L30 42L33 42L33 43L34 43L34 44L35 44L35 45L33 45L33 44L31 44L31 43L30 43L30 44L29 44L29 43L27 43L27 42L26 42L26 40L24 40L24 39L23 39L23 40L24 40L24 41L23 41L23 42L24 42L24 41L25 41L25 43L26 43L26 44L27 44L27 45L28 45L28 44L29 44L29 46L30 46L30 45L33 45L33 46L32 46L32 47L33 47L33 46L34 46L34 47L35 47L35 48L36 48L36 47L37 47L37 48L38 48L38 47L37 47L37 46L38 46L38 45L39 45L39 44L40 44L40 43L39 43L39 42L38 42L38 41L39 41L39 40L38 40L38 38L36 38L36 37L38 37L38 36L37 36L37 35L38 35L38 33L39 33L39 32L43 32L43 33L40 33L40 35L39 35L39 36L40 36L40 35L41 35L41 34L43 34L43 33L44 33L44 36L45 36L45 33L44 33L44 32L43 32L43 31L40 31L40 30L39 30L39 31L38 31L38 29L40 29L40 28L39 28L39 27L42 27L42 30L43 30L43 29L44 29L44 30L46 30L46 29L44 29L44 28L43 28L43 27L46 27L46 26L43 26L43 25L44 25L44 24L43 24L43 23L38 23L38 24L42 24L42 25L41 25L41 26L39 26L39 27L38 27L38 29L37 29L37 26L38 26L38 25L37 25L37 24L36 24L36 25L35 25L35 24L34 24L34 22ZM62 22L62 23L65 23L65 22ZM19 25L19 26L20 26L20 27L21 27L21 26L22 26L22 25L21 25L21 26L20 26L20 25ZM48 25L48 26L49 26L49 25ZM35 26L35 27L36 27L36 26ZM15 27L15 28L16 28L16 27ZM22 27L22 28L23 28L23 27ZM20 28L20 29L21 29L21 28ZM59 28L59 29L60 29L60 28ZM2 29L2 30L1 30L1 31L2 31L2 32L3 32L3 31L2 31L2 30L3 30L3 29ZM48 29L48 30L49 30L49 29ZM37 31L37 33L38 33L38 31ZM17 32L17 33L18 33L18 32ZM28 32L28 33L25 33L25 34L23 34L23 35L25 35L25 36L26 36L26 35L27 35L27 34L28 34L28 33L29 33L29 32ZM5 33L5 36L8 36L8 33ZM33 33L33 36L36 36L36 33ZM61 33L61 36L64 36L64 33ZM65 33L65 34L66 34L66 33ZM6 34L6 35L7 35L7 34ZM25 34L25 35L26 35L26 34ZM34 34L34 35L35 35L35 34ZM62 34L62 35L63 35L63 34ZM67 35L67 36L68 36L68 35ZM57 36L57 37L58 37L58 36ZM6 37L6 38L7 38L7 37ZM10 37L10 38L12 38L12 39L11 39L11 40L13 40L13 43L12 43L12 42L11 42L11 43L9 43L9 44L8 44L8 45L7 45L7 46L6 46L6 47L7 47L7 46L8 46L8 47L9 47L9 48L11 48L11 46L12 46L12 45L13 45L13 46L14 46L14 47L15 47L15 45L14 45L14 44L16 44L16 43L14 43L14 42L16 42L16 41L15 41L15 38L12 38L12 37ZM34 37L34 38L35 38L35 37ZM13 39L13 40L14 40L14 39ZM17 39L17 40L18 40L18 39ZM33 39L33 40L34 40L34 41L33 41L33 42L34 42L34 43L36 43L36 42L34 42L34 41L36 41L36 40L35 40L35 39ZM21 40L21 41L22 41L22 40ZM37 40L37 41L38 41L38 40ZM66 40L66 41L67 41L67 40ZM18 41L18 42L19 42L19 41ZM37 42L37 43L38 43L38 44L37 44L37 45L35 45L35 47L36 47L36 46L37 46L37 45L38 45L38 44L39 44L39 43L38 43L38 42ZM46 42L46 43L47 43L47 44L46 44L46 45L47 45L47 46L50 46L50 47L51 47L51 48L50 48L50 49L51 49L51 48L53 48L53 47L51 47L51 46L52 46L52 45L51 45L51 44L50 44L50 43L49 43L49 44L48 44L48 42ZM11 43L11 44L12 44L12 43ZM18 43L18 44L19 44L19 45L20 45L20 46L18 46L18 47L17 47L17 48L18 48L18 49L21 49L21 50L22 50L22 49L21 49L21 47L22 47L22 46L23 46L23 44L20 44L20 43ZM9 44L9 45L10 45L10 44ZM49 44L49 45L50 45L50 46L51 46L51 45L50 45L50 44ZM9 46L9 47L10 47L10 46ZM20 46L20 47L19 47L19 48L20 48L20 47L21 47L21 46ZM39 47L39 48L40 48L40 47ZM47 47L47 48L48 48L48 47ZM13 48L13 49L15 49L15 48ZM37 49L37 50L38 50L38 49ZM2 50L2 51L0 51L0 53L1 53L1 52L3 52L3 50ZM14 50L14 51L15 51L15 50ZM18 50L18 52L19 52L19 53L20 53L20 56L21 56L21 57L22 57L22 56L21 56L21 55L22 55L22 54L23 54L23 56L25 56L25 55L24 55L24 54L23 54L23 53L24 53L24 52L25 52L25 51L26 51L26 53L28 53L28 54L29 54L29 55L30 55L30 54L31 54L31 55L32 55L32 54L31 54L31 53L30 53L30 54L29 54L29 53L28 53L28 52L27 52L27 51L26 51L26 50L25 50L25 51L24 51L24 52L19 52L19 51L20 51L20 50ZM29 50L29 51L30 51L30 50ZM51 50L51 52L52 52L52 50ZM57 50L57 51L58 51L58 50ZM10 52L10 53L11 53L11 52ZM37 52L37 53L38 53L38 52ZM5 53L5 54L4 54L4 55L3 55L3 56L4 56L4 55L5 55L5 54L7 54L7 53ZM15 53L15 54L17 54L17 53ZM21 53L21 54L22 54L22 53ZM6 55L6 56L7 56L7 55ZM36 56L36 57L37 57L37 56ZM60 56L60 57L59 57L59 58L60 58L60 57L61 57L61 56ZM32 57L32 58L33 58L33 57ZM48 57L48 58L49 58L49 57ZM51 57L51 58L52 58L52 57ZM17 58L17 60L16 60L16 59L15 59L15 60L16 60L16 61L14 61L14 62L12 62L12 64L10 64L10 65L9 65L9 67L10 67L10 68L11 68L11 67L12 67L12 64L14 64L14 63L15 63L15 62L16 62L16 63L18 63L18 62L19 62L19 61L17 61L17 60L19 60L19 58ZM58 59L58 60L59 60L59 59ZM3 60L3 61L5 61L5 60ZM33 61L33 64L36 64L36 61ZM61 61L61 64L64 64L64 61ZM22 62L22 63L23 63L23 62ZM34 62L34 63L35 63L35 62ZM58 62L58 63L56 63L56 64L59 64L59 62ZM62 62L62 63L63 63L63 62ZM65 62L65 63L66 63L66 62ZM19 63L19 64L20 64L20 63ZM25 63L25 64L26 64L26 63ZM51 64L51 65L50 65L50 66L52 66L52 65L53 65L53 64ZM65 64L65 66L64 66L64 65L62 65L62 66L61 66L61 67L62 67L62 68L64 68L64 67L65 67L65 66L66 66L66 65L67 65L67 64ZM10 65L10 67L11 67L11 65ZM33 65L33 66L34 66L34 67L37 67L37 65L36 65L36 66L35 66L35 65ZM48 65L48 66L49 66L49 65ZM62 66L62 67L64 67L64 66ZM0 0L0 7L7 7L7 0ZM1 1L1 6L6 6L6 1ZM2 2L2 5L5 5L5 2ZM62 0L62 7L69 7L69 0ZM63 1L63 6L68 6L68 1ZM64 2L64 5L67 5L67 2ZM0 62L0 69L7 69L7 62ZM1 63L1 68L6 68L6 63ZM2 64L2 67L5 67L5 64Z" fill="#000000"/></g></g></svg>
