<?xml version="1.0" encoding="UTF-8"?>
<svg xmlns="http://www.w3.org/2000/svg" version="1.1" width="300" height="300" viewBox="0 0 300 300"><rect x="0" y="0" width="300" height="300" fill="#ffffff"/><g transform="scale(4.348)"><g transform="translate(0,0)"><path fill-rule="evenodd" d="M8 0L8 4L9 4L9 5L8 5L8 7L9 7L9 8L10 8L10 9L11 9L11 8L12 8L12 7L13 7L13 8L14 8L14 9L16 9L16 7L17 7L17 6L16 6L16 5L17 5L17 4L15 4L15 3L14 3L14 1L15 1L15 2L16 2L16 3L17 3L17 2L19 2L19 1L20 1L20 2L21 2L21 0L16 0L16 1L15 1L15 0L14 0L14 1L13 1L13 0L10 0L10 2L9 2L9 0ZM22 0L22 3L19 3L19 4L18 4L18 8L17 8L17 9L18 9L18 10L19 10L19 11L18 11L18 12L16 12L16 10L15 10L15 12L14 12L14 13L18 13L18 15L17 15L17 14L16 14L16 16L15 16L15 17L14 17L14 16L12 16L12 17L13 17L13 18L11 18L11 17L10 17L10 16L11 16L11 15L13 15L13 11L12 11L12 10L13 10L13 9L12 9L12 10L11 10L11 11L9 11L9 12L10 12L10 13L8 13L8 14L6 14L6 13L7 13L7 12L8 12L8 9L7 9L7 8L4 8L4 9L5 9L5 10L6 10L6 11L5 11L5 12L4 12L4 13L5 13L5 14L4 14L4 15L3 15L3 17L4 17L4 19L5 19L5 20L6 20L6 21L8 21L8 22L6 22L6 23L5 23L5 21L4 21L4 20L3 20L3 19L0 19L0 20L3 20L3 21L4 21L4 22L3 22L3 23L2 23L2 21L1 21L1 23L0 23L0 24L1 24L1 25L2 25L2 24L3 24L3 26L1 26L1 27L0 27L0 30L1 30L1 31L2 31L2 32L1 32L1 33L0 33L0 35L2 35L2 36L1 36L1 39L3 39L3 38L4 38L4 41L3 41L3 40L2 40L2 41L1 41L1 42L0 42L0 43L1 43L1 44L0 44L0 47L2 47L2 45L3 45L3 46L4 46L4 51L5 51L5 52L3 52L3 51L2 51L2 53L0 53L0 54L1 54L1 55L0 55L0 56L1 56L1 57L2 57L2 59L3 59L3 58L4 58L4 59L8 59L8 62L9 62L9 61L10 61L10 60L9 60L9 59L8 59L8 55L7 55L7 54L8 54L8 53L9 53L9 55L10 55L10 56L9 56L9 57L11 57L11 58L10 58L10 59L11 59L11 60L12 60L12 62L10 62L10 63L8 63L8 65L9 65L9 64L10 64L10 63L13 63L13 62L14 62L14 64L11 64L11 65L10 65L10 66L9 66L9 67L8 67L8 69L9 69L9 67L10 67L10 69L12 69L12 68L11 68L11 67L10 67L10 66L11 66L11 65L12 65L12 67L14 67L14 65L17 65L17 66L15 66L15 67L16 67L16 69L20 69L20 68L17 68L17 66L19 66L19 67L20 67L20 66L21 66L21 69L22 69L22 64L21 64L21 63L23 63L23 61L24 61L24 62L25 62L25 63L26 63L26 64L27 64L27 65L23 65L23 67L26 67L26 69L29 69L29 67L28 67L28 64L29 64L29 66L30 66L30 67L31 67L31 65L32 65L32 69L33 69L33 66L34 66L34 67L35 67L35 69L37 69L37 68L38 68L38 69L40 69L40 68L41 68L41 69L43 69L43 63L44 63L44 69L46 69L46 68L45 68L45 65L47 65L47 67L49 67L49 68L47 68L47 69L52 69L52 68L53 68L53 69L54 69L54 68L55 68L55 67L54 67L54 66L55 66L55 65L57 65L57 67L56 67L56 69L59 69L59 68L60 68L60 69L62 69L62 67L63 67L63 69L64 69L64 67L67 67L67 66L69 66L69 63L67 63L67 66L66 66L66 65L65 65L65 63L66 63L66 62L67 62L67 61L69 61L69 60L66 60L66 61L65 61L65 59L68 59L68 58L69 58L69 55L68 55L68 53L69 53L69 52L68 52L68 51L69 51L69 47L68 47L68 46L69 46L69 44L68 44L68 43L67 43L67 44L66 44L66 46L64 46L64 45L63 45L63 44L61 44L61 43L62 43L62 41L61 41L61 39L62 39L62 40L63 40L63 42L64 42L64 43L65 43L65 42L66 42L66 41L68 41L68 38L69 38L69 36L68 36L68 37L67 37L67 36L66 36L66 37L65 37L65 34L66 34L66 35L68 35L68 33L66 33L66 32L63 32L63 31L62 31L62 32L61 32L61 31L60 31L60 32L58 32L58 33L57 33L57 31L58 31L58 29L59 29L59 30L61 30L61 28L62 28L62 26L64 26L64 24L65 24L65 23L64 23L64 22L65 22L65 21L66 21L66 22L67 22L67 23L68 23L68 24L69 24L69 23L68 23L68 21L69 21L69 20L68 20L68 18L67 18L67 20L65 20L65 18L66 18L66 17L67 17L67 16L66 16L66 17L64 17L64 16L65 16L65 14L64 14L64 12L65 12L65 11L64 11L64 10L63 10L63 9L64 9L64 8L63 8L63 9L62 9L62 10L61 10L61 8L59 8L59 4L58 4L58 8L59 8L59 11L62 11L62 12L61 12L61 13L59 13L59 14L58 14L58 13L57 13L57 12L58 12L58 11L56 11L56 9L57 9L57 8L56 8L56 9L53 9L53 10L52 10L52 12L51 12L51 9L52 9L52 8L54 8L54 7L55 7L55 6L56 6L56 7L57 7L57 5L55 5L55 4L53 4L53 1L55 1L55 2L54 2L54 3L59 3L59 2L58 2L58 1L61 1L61 0L57 0L57 1L55 1L55 0L53 0L53 1L52 1L52 2L51 2L51 3L50 3L50 1L51 1L51 0L50 0L50 1L49 1L49 0L48 0L48 1L47 1L47 2L48 2L48 3L50 3L50 7L49 7L49 6L48 6L48 5L49 5L49 4L47 4L47 6L46 6L46 7L45 7L45 6L44 6L44 2L45 2L45 1L46 1L46 0L45 0L45 1L44 1L44 0L41 0L41 1L42 1L42 2L40 2L40 0L38 0L38 1L36 1L36 0L35 0L35 1L36 1L36 2L37 2L37 4L36 4L36 3L35 3L35 2L34 2L34 1L33 1L33 0L31 0L31 1L30 1L30 0L29 0L29 1L30 1L30 3L31 3L31 2L32 2L32 5L31 5L31 4L30 4L30 5L29 5L29 6L28 6L28 4L29 4L29 2L28 2L28 3L27 3L27 1L26 1L26 0ZM11 1L11 3L9 3L9 4L13 4L13 7L14 7L14 8L15 8L15 7L16 7L16 6L15 6L15 4L13 4L13 3L12 3L12 2L13 2L13 1ZM16 1L16 2L17 2L17 1ZM23 1L23 3L24 3L24 4L25 4L25 3L26 3L26 4L27 4L27 3L26 3L26 1L25 1L25 2L24 2L24 1ZM48 1L48 2L49 2L49 1ZM33 2L33 3L34 3L34 2ZM38 2L38 3L39 3L39 4L40 4L40 5L39 5L39 7L40 7L40 9L39 9L39 10L38 10L38 8L37 8L37 10L36 10L36 9L34 9L34 10L35 10L35 11L36 11L36 14L35 14L35 12L34 12L34 11L33 11L33 9L29 9L29 8L30 8L30 6L31 6L31 7L32 7L32 6L31 6L31 5L30 5L30 6L29 6L29 7L28 7L28 6L27 6L27 7L26 7L26 5L25 5L25 7L24 7L24 5L21 5L21 7L20 7L20 4L19 4L19 7L20 7L20 9L19 9L19 10L20 10L20 9L22 9L22 10L21 10L21 11L20 11L20 12L19 12L19 14L20 14L20 15L19 15L19 16L18 16L18 17L17 17L17 18L18 18L18 17L19 17L19 19L20 19L20 18L22 18L22 17L24 17L24 16L25 16L25 15L24 15L24 14L23 14L23 12L24 12L24 11L22 11L22 10L23 10L23 9L24 9L24 10L25 10L25 11L26 11L26 12L27 12L27 11L28 11L28 10L30 10L30 11L29 11L29 12L28 12L28 14L29 14L29 15L27 15L27 13L25 13L25 14L26 14L26 16L27 16L27 17L25 17L25 20L23 20L23 19L22 19L22 22L21 22L21 23L22 23L22 24L23 24L23 21L26 21L26 22L24 22L24 23L26 23L26 24L27 24L27 23L28 23L28 24L31 24L31 23L32 23L32 25L33 25L33 26L35 26L35 29L37 29L37 30L34 30L34 27L32 27L32 26L31 26L31 27L32 27L32 28L31 28L31 29L33 29L33 30L32 30L32 32L33 32L33 30L34 30L34 31L35 31L35 32L36 32L36 31L37 31L37 32L38 32L38 33L37 33L37 35L39 35L39 34L40 34L40 33L44 33L44 34L43 34L43 35L41 35L41 36L40 36L40 37L39 37L39 38L38 38L38 37L37 37L37 38L36 38L36 37L35 37L35 38L34 38L34 39L35 39L35 40L34 40L34 42L33 42L33 41L32 41L32 42L31 42L31 41L29 41L29 40L33 40L33 39L32 39L32 38L33 38L33 37L31 37L31 39L28 39L28 42L29 42L29 43L31 43L31 44L32 44L32 43L34 43L34 45L35 45L35 46L36 46L36 45L35 45L35 43L36 43L36 44L38 44L38 41L37 41L37 43L36 43L36 42L35 42L35 41L36 41L36 40L39 40L39 38L40 38L40 41L41 41L41 39L42 39L42 40L43 40L43 41L44 41L44 39L45 39L45 37L46 37L46 42L44 42L44 43L45 43L45 45L43 45L43 44L42 44L42 45L43 45L43 46L42 46L42 47L41 47L41 42L39 42L39 44L40 44L40 46L39 46L39 47L40 47L40 49L39 49L39 50L38 50L38 49L36 49L36 50L35 50L35 52L34 52L34 54L33 54L33 52L32 52L32 51L33 51L33 50L34 50L34 49L35 49L35 48L38 48L38 47L35 47L35 48L34 48L34 47L33 47L33 48L34 48L34 49L32 49L32 50L31 50L31 51L29 51L29 52L32 52L32 54L31 54L31 53L28 53L28 52L27 52L27 51L28 51L28 50L30 50L30 49L28 49L28 47L29 47L29 48L31 48L31 47L32 47L32 46L33 46L33 45L31 45L31 46L30 46L30 45L29 45L29 44L28 44L28 43L26 43L26 42L27 42L27 41L26 41L26 40L25 40L25 39L27 39L27 37L25 37L25 38L24 38L24 39L23 39L23 40L22 40L22 39L21 39L21 38L20 38L20 37L21 37L21 36L22 36L22 38L23 38L23 37L24 37L24 36L22 36L22 35L23 35L23 34L22 34L22 33L24 33L24 31L27 31L27 32L31 32L31 30L29 30L29 28L28 28L28 27L29 27L29 26L30 26L30 25L25 25L25 26L24 26L24 25L21 25L21 24L20 24L20 21L18 21L18 22L16 22L16 24L15 24L15 23L14 23L14 22L15 22L15 21L14 21L14 20L16 20L16 19L14 19L14 18L13 18L13 19L14 19L14 20L13 20L13 21L11 21L11 22L10 22L10 23L9 23L9 22L8 22L8 23L6 23L6 24L8 24L8 25L6 25L6 26L5 26L5 27L4 27L4 26L3 26L3 28L2 28L2 27L1 27L1 28L2 28L2 29L3 29L3 28L4 28L4 29L5 29L5 28L7 28L7 29L6 29L6 30L7 30L7 29L11 29L11 31L12 31L12 32L13 32L13 34L15 34L15 36L16 36L16 38L15 38L15 39L14 39L14 38L13 38L13 37L14 37L14 35L13 35L13 36L12 36L12 33L11 33L11 34L9 34L9 35L11 35L11 37L10 37L10 38L7 38L7 37L6 37L6 38L7 38L7 39L6 39L6 40L5 40L5 43L4 43L4 42L3 42L3 41L2 41L2 42L1 42L1 43L2 43L2 42L3 42L3 43L4 43L4 46L9 46L9 45L8 45L8 44L10 44L10 45L12 45L12 47L11 47L11 46L10 46L10 48L9 48L9 49L8 49L8 47L5 47L5 48L7 48L7 49L6 49L6 50L7 50L7 51L6 51L6 52L7 52L7 53L2 53L2 56L4 56L4 57L5 57L5 56L7 56L7 55L5 55L5 54L7 54L7 53L8 53L8 52L9 52L9 53L10 53L10 54L11 54L11 52L12 52L12 55L11 55L11 56L12 56L12 58L11 58L11 59L13 59L13 57L14 57L14 56L15 56L15 57L17 57L17 56L19 56L19 58L16 58L16 59L15 59L15 58L14 58L14 59L15 59L15 60L16 60L16 62L18 62L18 63L16 63L16 64L17 64L17 65L18 65L18 64L19 64L19 65L20 65L20 64L19 64L19 63L21 63L21 62L22 62L22 61L23 61L23 59L24 59L24 61L26 61L26 58L27 58L27 61L28 61L28 62L29 62L29 63L30 63L30 62L29 62L29 60L28 60L28 58L29 58L29 59L30 59L30 58L31 58L31 60L32 60L32 59L33 59L33 57L32 57L32 56L33 56L33 55L34 55L34 58L35 58L35 57L36 57L36 56L37 56L37 58L36 58L36 59L35 59L35 60L37 60L37 63L38 63L38 64L37 64L37 66L38 66L38 64L40 64L40 65L39 65L39 66L40 66L40 65L41 65L41 63L42 63L42 62L40 62L40 61L44 61L44 63L45 63L45 64L46 64L46 63L47 63L47 64L48 64L48 62L47 62L47 61L46 61L46 62L45 62L45 61L44 61L44 56L45 56L45 55L44 55L44 54L45 54L45 53L46 53L46 54L47 54L47 52L49 52L49 54L48 54L48 56L49 56L49 55L50 55L50 56L52 56L52 57L53 57L53 59L54 59L54 56L55 56L55 61L56 61L56 62L52 62L52 61L54 61L54 60L52 60L52 61L51 61L51 62L50 62L50 57L46 57L46 58L49 58L49 63L50 63L50 64L52 64L52 65L51 65L51 66L50 66L50 65L48 65L48 66L50 66L50 68L52 68L52 67L51 67L51 66L53 66L53 64L52 64L52 63L54 63L54 64L55 64L55 63L57 63L57 65L58 65L58 66L59 66L59 67L60 67L60 68L61 68L61 67L62 67L62 66L59 66L59 65L60 65L60 64L59 64L59 65L58 65L58 63L60 63L60 60L59 60L59 59L60 59L60 56L59 56L59 55L60 55L60 54L61 54L61 53L60 53L60 52L59 52L59 51L63 51L63 52L62 52L62 53L64 53L64 54L62 54L62 55L64 55L64 56L63 56L63 57L62 57L62 56L61 56L61 58L62 58L62 59L63 59L63 60L64 60L64 59L65 59L65 56L68 56L68 55L66 55L66 54L65 54L65 53L67 53L67 51L68 51L68 49L67 49L67 48L68 48L68 47L67 47L67 46L66 46L66 47L65 47L65 49L64 49L64 48L62 48L62 47L63 47L63 45L60 45L60 44L59 44L59 41L60 41L60 43L61 43L61 41L60 41L60 40L58 40L58 39L57 39L57 37L56 37L56 35L57 35L57 33L56 33L56 32L54 32L54 33L56 33L56 35L54 35L54 34L52 34L52 33L53 33L53 32L52 32L52 31L53 31L53 29L55 29L55 30L54 30L54 31L55 31L55 30L56 30L56 31L57 31L57 29L58 29L58 28L61 28L61 27L59 27L59 25L60 25L60 24L57 24L57 21L58 21L58 22L59 22L59 23L62 23L62 25L61 25L61 26L62 26L62 25L63 25L63 22L64 22L64 21L65 21L65 20L64 20L64 17L63 17L63 19L62 19L62 15L64 15L64 14L62 14L62 13L63 13L63 12L62 12L62 13L61 13L61 19L60 19L60 20L61 20L61 19L62 19L62 20L64 20L64 21L63 21L63 22L62 22L62 21L61 21L61 22L59 22L59 21L58 21L58 19L56 19L56 18L57 18L57 17L56 17L56 14L57 14L57 13L56 13L56 11L55 11L55 10L54 10L54 11L55 11L55 13L56 13L56 14L54 14L54 15L55 15L55 16L52 16L52 15L50 15L50 16L52 16L52 17L51 17L51 18L50 18L50 17L49 17L49 18L48 18L48 17L46 17L46 15L47 15L47 13L46 13L46 12L47 12L47 11L46 11L46 10L47 10L47 8L49 8L49 11L48 11L48 12L49 12L49 11L50 11L50 8L51 8L51 7L52 7L52 6L53 6L53 7L54 7L54 5L53 5L53 4L52 4L52 3L51 3L51 7L50 7L50 8L49 8L49 7L48 7L48 6L47 6L47 8L45 8L45 7L44 7L44 6L43 6L43 5L41 5L41 4L40 4L40 2ZM42 2L42 4L43 4L43 2ZM45 3L45 5L46 5L46 3ZM60 3L60 5L61 5L61 3ZM37 4L37 5L38 5L38 4ZM9 5L9 7L10 7L10 8L11 8L11 7L12 7L12 5L11 5L11 7L10 7L10 5ZM33 5L33 8L36 8L36 5ZM14 6L14 7L15 7L15 6ZM22 6L22 8L23 8L23 6ZM34 6L34 7L35 7L35 6ZM37 6L37 7L38 7L38 6ZM40 6L40 7L41 7L41 6ZM42 6L42 7L43 7L43 8L44 8L44 9L45 9L45 10L46 10L46 9L45 9L45 8L44 8L44 7L43 7L43 6ZM60 6L60 7L61 7L61 6ZM27 7L27 8L26 8L26 11L27 11L27 10L28 10L28 9L27 9L27 8L28 8L28 7ZM0 8L0 9L1 9L1 10L2 10L2 8ZM24 8L24 9L25 9L25 8ZM65 8L65 10L66 10L66 9L68 9L68 10L67 10L67 11L68 11L68 10L69 10L69 8ZM6 9L6 10L7 10L7 9ZM40 9L40 10L39 10L39 13L37 13L37 15L36 15L36 17L35 17L35 18L33 18L33 16L32 16L32 13L34 13L34 12L32 12L32 11L30 11L30 12L29 12L29 14L30 14L30 13L31 13L31 16L30 16L30 15L29 15L29 17L31 17L31 18L29 18L29 19L27 19L27 18L28 18L28 17L27 17L27 18L26 18L26 19L27 19L27 20L26 20L26 21L27 21L27 22L26 22L26 23L27 23L27 22L28 22L28 23L31 23L31 22L30 22L30 21L31 21L31 20L32 20L32 21L33 21L33 23L34 23L34 24L35 24L35 25L36 25L36 26L37 26L37 27L39 27L39 29L38 29L38 32L39 32L39 33L38 33L38 34L39 34L39 33L40 33L40 31L43 31L43 29L40 29L40 28L43 28L43 26L44 26L44 25L45 25L45 27L46 27L46 28L47 28L47 31L46 31L46 29L45 29L45 28L44 28L44 30L45 30L45 31L44 31L44 33L45 33L45 34L44 34L44 37L43 37L43 36L41 36L41 37L40 37L40 38L41 38L41 37L42 37L42 39L43 39L43 38L44 38L44 37L45 37L45 36L46 36L46 37L47 37L47 42L49 42L49 44L48 44L48 43L47 43L47 46L48 46L48 49L47 49L47 47L46 47L46 45L45 45L45 48L44 48L44 47L42 47L42 49L41 49L41 50L39 50L39 51L38 51L38 50L37 50L37 53L35 53L35 54L34 54L34 55L36 55L36 54L37 54L37 53L38 53L38 55L39 55L39 57L38 57L38 58L37 58L37 59L38 59L38 58L39 58L39 60L38 60L38 63L40 63L40 62L39 62L39 61L40 61L40 60L41 60L41 59L42 59L42 60L43 60L43 59L42 59L42 58L43 58L43 57L40 57L40 55L41 55L41 56L43 56L43 54L44 54L44 53L45 53L45 52L46 52L46 51L47 51L47 50L48 50L48 49L50 49L50 50L49 50L49 52L50 52L50 55L52 55L52 56L54 56L54 55L55 55L55 53L53 53L53 55L52 55L52 52L56 52L56 53L57 53L57 54L56 54L56 59L57 59L57 60L56 60L56 61L58 61L58 57L59 57L59 56L57 56L57 55L59 55L59 54L58 54L58 52L57 52L57 51L55 51L55 50L56 50L56 49L57 49L57 50L58 50L58 51L59 51L59 50L58 50L58 48L59 48L59 47L60 47L60 48L61 48L61 49L60 49L60 50L61 50L61 49L62 49L62 50L63 50L63 51L64 51L64 52L65 52L65 51L67 51L67 50L66 50L66 49L65 49L65 50L64 50L64 49L62 49L62 48L61 48L61 47L62 47L62 46L61 46L61 47L60 47L60 45L59 45L59 46L58 46L58 44L56 44L56 42L57 42L57 43L58 43L58 41L57 41L57 40L56 40L56 37L54 37L54 36L53 36L53 38L52 38L52 39L51 39L51 40L48 40L48 37L49 37L49 35L51 35L51 36L50 36L50 38L49 38L49 39L50 39L50 38L51 38L51 37L52 37L52 35L51 35L51 33L52 33L52 32L51 32L51 33L50 33L50 30L51 30L51 31L52 31L52 29L50 29L50 28L49 28L49 27L52 27L52 22L56 22L56 21L57 21L57 20L56 20L56 19L55 19L55 18L56 18L56 17L52 17L52 18L51 18L51 19L52 19L52 18L53 18L53 19L54 19L54 20L56 20L56 21L51 21L51 20L50 20L50 22L48 22L48 25L47 25L47 22L46 22L46 21L49 21L49 20L48 20L48 19L46 19L46 20L44 20L44 19L45 19L45 18L46 18L46 17L45 17L45 15L46 15L46 13L45 13L45 12L46 12L46 11L43 11L43 9ZM3 10L3 11L0 11L0 17L2 17L2 16L1 16L1 12L2 12L2 13L3 13L3 11L4 11L4 10ZM37 10L37 11L38 11L38 10ZM40 10L40 11L41 11L41 12L40 12L40 14L39 14L39 17L42 17L42 16L41 16L41 12L42 12L42 13L43 13L43 11L41 11L41 10ZM62 10L62 11L63 11L63 10ZM6 11L6 12L7 12L7 11ZM21 11L21 12L20 12L20 14L21 14L21 15L22 15L22 16L19 16L19 17L22 17L22 16L23 16L23 14L21 14L21 13L22 13L22 11ZM11 12L11 14L12 14L12 12ZM31 12L31 13L32 13L32 12ZM50 12L50 13L51 13L51 12ZM52 12L52 14L53 14L53 12ZM66 12L66 13L67 13L67 15L68 15L68 17L69 17L69 15L68 15L68 14L69 14L69 13L68 13L68 12ZM44 13L44 14L42 14L42 15L43 15L43 17L44 17L44 15L45 15L45 13ZM5 14L5 16L8 16L8 15L9 15L9 16L10 16L10 15L9 15L9 14L8 14L8 15L6 15L6 14ZM14 14L14 15L15 15L15 14ZM34 15L34 16L35 16L35 15ZM57 15L57 16L58 16L58 15ZM37 16L37 17L36 17L36 18L35 18L35 19L37 19L37 18L38 18L38 21L37 21L37 22L34 22L34 23L36 23L36 24L37 24L37 25L38 25L38 21L40 21L40 22L39 22L39 24L40 24L40 27L41 27L41 24L40 24L40 23L44 23L44 22L45 22L45 23L46 23L46 22L45 22L45 21L44 21L44 20L43 20L43 19L44 19L44 18L40 18L40 19L39 19L39 18L38 18L38 16ZM6 17L6 18L5 18L5 19L6 19L6 20L7 20L7 19L6 19L6 18L7 18L7 17ZM8 17L8 18L10 18L10 17ZM15 17L15 18L16 18L16 17ZM58 17L58 18L59 18L59 17ZM31 18L31 19L29 19L29 20L31 20L31 19L32 19L32 20L33 20L33 21L34 21L34 19L32 19L32 18ZM8 20L8 21L9 21L9 20ZM41 20L41 22L43 22L43 20ZM67 20L67 21L68 21L68 20ZM28 21L28 22L29 22L29 21ZM50 22L50 24L49 24L49 25L51 25L51 22ZM1 23L1 24L2 24L2 23ZM3 23L3 24L5 24L5 23ZM8 23L8 24L9 24L9 23ZM10 23L10 24L11 24L11 26L9 26L9 25L8 25L8 26L9 26L9 27L7 27L7 26L6 26L6 27L7 27L7 28L9 28L9 27L10 27L10 28L11 28L11 29L12 29L12 30L13 30L13 31L14 31L14 32L15 32L15 33L17 33L17 34L16 34L16 35L17 35L17 34L19 34L19 35L18 35L18 36L17 36L17 37L20 37L20 36L19 36L19 35L20 35L20 34L21 34L21 35L22 35L22 34L21 34L21 33L22 33L22 32L23 32L23 31L22 31L22 32L20 32L20 31L21 31L21 29L22 29L22 30L27 30L27 31L28 31L28 29L27 29L27 27L26 27L26 26L25 26L25 27L26 27L26 29L25 29L25 28L24 28L24 27L23 27L23 26L22 26L22 27L21 27L21 25L20 25L20 26L18 26L18 25L19 25L19 24L17 24L17 25L15 25L15 24L14 24L14 26L15 26L15 27L13 27L13 28L12 28L12 27L11 27L11 26L12 26L12 24L13 24L13 23ZM54 23L54 24L53 24L53 26L55 26L55 27L54 27L54 28L56 28L56 29L57 29L57 28L56 28L56 26L55 26L55 23ZM42 24L42 25L43 25L43 24ZM56 24L56 25L57 25L57 26L58 26L58 25L57 25L57 24ZM66 24L66 25L67 25L67 24ZM46 25L46 26L47 26L47 28L48 28L48 27L49 27L49 26L47 26L47 25ZM16 26L16 27L15 27L15 28L13 28L13 29L14 29L14 31L15 31L15 29L16 29L16 32L17 32L17 33L18 33L18 32L19 32L19 33L20 33L20 32L19 32L19 30L20 30L20 29L21 29L21 28L20 28L20 27L19 27L19 28L20 28L20 29L17 29L17 27L18 27L18 26ZM65 26L65 27L68 27L68 28L67 28L67 29L69 29L69 27L68 27L68 26ZM22 27L22 29L23 29L23 27ZM49 29L49 30L50 30L50 29ZM62 29L62 30L64 30L64 29ZM2 30L2 31L4 31L4 32L9 32L9 30L8 30L8 31L5 31L5 30ZM17 30L17 31L18 31L18 30ZM39 30L39 31L40 31L40 30ZM65 30L65 31L68 31L68 32L69 32L69 31L68 31L68 30ZM45 31L45 33L46 33L46 35L47 35L47 33L46 33L46 31ZM25 32L25 33L26 33L26 32ZM2 33L2 34L3 34L3 33ZM5 33L5 36L8 36L8 33ZM27 33L27 36L28 36L28 38L30 38L30 37L29 37L29 36L30 36L30 35L31 35L31 36L32 36L32 35L31 35L31 34L32 34L32 33L31 33L31 34L30 34L30 33ZM33 33L33 36L36 36L36 33ZM49 33L49 34L48 34L48 35L49 35L49 34L50 34L50 33ZM58 33L58 34L59 34L59 33ZM61 33L61 36L64 36L64 33ZM6 34L6 35L7 35L7 34ZM24 34L24 35L25 35L25 34ZM28 34L28 36L29 36L29 35L30 35L30 34ZM34 34L34 35L35 35L35 34ZM62 34L62 35L63 35L63 34ZM58 35L58 38L59 38L59 37L60 37L60 36L59 36L59 35ZM3 36L3 37L2 37L2 38L3 38L3 37L4 37L4 36ZM61 37L61 38L62 38L62 39L64 39L64 40L67 40L67 39L64 39L64 38L65 38L65 37ZM66 37L66 38L67 38L67 37ZM12 38L12 39L11 39L11 40L12 40L12 41L13 41L13 40L14 40L14 41L16 41L16 40L14 40L14 39L13 39L13 38ZM16 38L16 39L17 39L17 42L16 42L16 43L15 43L15 42L13 42L13 43L15 43L15 44L16 44L16 45L13 45L13 44L12 44L12 43L10 43L10 42L11 42L11 41L10 41L10 39L9 39L9 40L8 40L8 41L10 41L10 42L9 42L9 43L10 43L10 44L12 44L12 45L13 45L13 47L12 47L12 48L11 48L11 50L10 50L10 49L9 49L9 50L10 50L10 51L9 51L9 52L10 52L10 51L11 51L11 50L12 50L12 51L15 51L15 52L13 52L13 53L14 53L14 55L12 55L12 56L14 56L14 55L15 55L15 56L16 56L16 55L18 55L18 54L19 54L19 55L20 55L20 58L19 58L19 59L17 59L17 61L20 61L20 62L21 62L21 61L22 61L22 60L21 60L21 61L20 61L20 59L21 59L21 57L24 57L24 58L25 58L25 57L27 57L27 58L28 58L28 57L31 57L31 58L32 58L32 57L31 57L31 56L32 56L32 55L31 55L31 54L28 54L28 53L27 53L27 52L26 52L26 51L25 51L25 50L27 50L27 48L24 48L24 49L23 49L23 50L22 50L22 48L23 48L23 47L21 47L21 46L22 46L22 44L23 44L23 43L24 43L24 45L23 45L23 46L25 46L25 47L26 47L26 45L27 45L27 46L28 46L28 45L27 45L27 44L26 44L26 43L25 43L25 42L26 42L26 41L25 41L25 40L24 40L24 41L23 41L23 43L22 43L22 41L20 41L20 40L21 40L21 39L20 39L20 38L19 38L19 40L18 40L18 38ZM35 38L35 39L36 39L36 38ZM53 38L53 40L52 40L52 41L51 41L51 42L50 42L50 41L49 41L49 42L50 42L50 44L49 44L49 46L50 46L50 44L52 44L52 49L51 49L51 50L50 50L50 52L52 52L52 51L53 51L53 50L52 50L52 49L53 49L53 48L54 48L54 49L56 49L56 48L58 48L58 46L57 46L57 45L56 45L56 44L55 44L55 46L53 46L53 44L54 44L54 42L53 42L53 44L52 44L52 41L56 41L56 40L55 40L55 38ZM6 40L6 41L7 41L7 40ZM19 41L19 43L20 43L20 44L19 44L19 46L20 46L20 45L21 45L21 43L20 43L20 41ZM24 41L24 42L25 42L25 41ZM64 41L64 42L65 42L65 41ZM6 42L6 43L8 43L8 42ZM34 42L34 43L35 43L35 42ZM6 44L6 45L7 45L7 44ZM25 44L25 45L26 45L26 44ZM67 44L67 45L68 45L68 44ZM16 45L16 46L15 46L15 47L16 47L16 48L12 48L12 50L13 50L13 49L16 49L16 50L15 50L15 51L17 51L17 52L15 52L15 53L16 53L16 54L17 54L17 52L19 52L19 51L20 51L20 50L21 50L21 51L22 51L22 50L21 50L21 49L19 49L19 48L20 48L20 47L19 47L19 48L18 48L18 49L17 49L17 47L18 47L18 45ZM37 45L37 46L38 46L38 45ZM16 46L16 47L17 47L17 46ZM55 46L55 47L57 47L57 46ZM49 47L49 48L51 48L51 47ZM1 48L1 49L2 49L2 50L3 50L3 48ZM43 48L43 49L44 49L44 50L45 50L45 49L44 49L44 48ZM7 49L7 50L8 50L8 49ZM18 49L18 50L19 50L19 49ZM46 49L46 50L47 50L47 49ZM0 50L0 52L1 52L1 50ZM42 50L42 51L43 51L43 50ZM51 50L51 51L52 51L52 50ZM24 51L24 52L22 52L22 53L21 53L21 55L22 55L22 56L27 56L27 57L28 57L28 56L27 56L27 55L28 55L28 54L27 54L27 55L26 55L26 52L25 52L25 51ZM39 51L39 52L38 52L38 53L39 53L39 55L40 55L40 53L42 53L42 52L41 52L41 51ZM44 51L44 52L43 52L43 53L44 53L44 52L45 52L45 51ZM39 52L39 53L40 53L40 52ZM19 53L19 54L20 54L20 53ZM23 53L23 55L25 55L25 53ZM3 54L3 55L4 55L4 56L5 56L5 55L4 55L4 54ZM41 54L41 55L42 55L42 54ZM64 54L64 55L65 55L65 54ZM29 55L29 56L31 56L31 55ZM6 57L6 58L7 58L7 57ZM39 57L39 58L40 58L40 59L41 59L41 58L40 58L40 57ZM63 57L63 58L64 58L64 57ZM66 57L66 58L68 58L68 57ZM0 58L0 61L1 61L1 58ZM22 58L22 59L23 59L23 58ZM51 58L51 59L52 59L52 58ZM46 59L46 60L47 60L47 59ZM3 60L3 61L5 61L5 60ZM6 60L6 61L7 61L7 60ZM14 61L14 62L15 62L15 61ZM31 61L31 63L32 63L32 61ZM33 61L33 64L36 64L36 61ZM61 61L61 64L64 64L64 61ZM34 62L34 63L35 63L35 62ZM51 62L51 63L52 63L52 62ZM62 62L62 63L63 63L63 62ZM27 63L27 64L28 64L28 63ZM34 65L34 66L36 66L36 65ZM64 65L64 66L63 66L63 67L64 67L64 66L65 66L65 65ZM26 66L26 67L27 67L27 68L28 68L28 67L27 67L27 66ZM36 67L36 68L37 68L37 67ZM39 67L39 68L40 68L40 67ZM57 67L57 68L58 68L58 67ZM13 68L13 69L14 69L14 68ZM23 68L23 69L25 69L25 68ZM30 68L30 69L31 69L31 68ZM68 68L68 69L69 69L69 68ZM0 0L0 7L7 7L7 0ZM1 1L1 6L6 6L6 1ZM2 2L2 5L5 5L5 2ZM62 0L62 7L69 7L69 0ZM63 1L63 6L68 6L68 1ZM64 2L64 5L67 5L67 2ZM0 62L0 69L7 69L7 62ZM1 63L1 68L6 68L6 63ZM2 64L2 67L5 67L5 64Z" fill="#000000"/></g></g></svg>
