<?xml version="1.0" encoding="UTF-8"?>
<svg xmlns="http://www.w3.org/2000/svg" version="1.1" width="300" height="300" viewBox="0 0 300 300"><rect x="0" y="0" width="300" height="300" fill="#ffffff"/><g transform="scale(4.348)"><g transform="translate(0,0)"><path fill-rule="evenodd" d="M9 0L9 1L8 1L8 2L9 2L9 3L8 3L8 4L9 4L9 5L8 5L8 7L9 7L9 8L6 8L6 9L5 9L5 8L0 8L0 12L1 12L1 10L2 10L2 13L0 13L0 14L1 14L1 15L0 15L0 16L1 16L1 17L2 17L2 18L1 18L1 19L2 19L2 21L7 21L7 22L5 22L5 23L7 23L7 22L8 22L8 24L6 24L6 25L5 25L5 24L3 24L3 25L2 25L2 26L3 26L3 27L4 27L4 28L5 28L5 29L1 29L1 27L0 27L0 29L1 29L1 30L0 30L0 31L3 31L3 33L4 33L4 35L2 35L2 37L0 37L0 39L1 39L1 40L0 40L0 42L1 42L1 43L3 43L3 44L1 44L1 45L3 45L3 49L2 49L2 47L0 47L0 50L3 50L3 51L2 51L2 53L3 53L3 55L1 55L1 54L0 54L0 55L1 55L1 57L2 57L2 59L3 59L3 57L5 57L5 58L4 58L4 59L7 59L7 58L8 58L8 57L9 57L9 58L10 58L10 59L12 59L12 61L10 61L10 63L11 63L11 62L12 62L12 61L13 61L13 64L10 64L10 67L11 67L11 66L12 66L12 67L13 67L13 66L12 66L12 65L13 65L13 64L16 64L16 65L14 65L14 67L17 67L17 66L19 66L19 67L18 67L18 68L17 68L17 69L22 69L22 68L19 68L19 67L20 67L20 66L19 66L19 65L20 65L20 61L21 61L21 60L23 60L23 63L22 63L22 62L21 62L21 64L23 64L23 67L24 67L24 68L25 68L25 69L26 69L26 68L27 68L27 67L28 67L28 68L29 68L29 69L32 69L32 68L33 68L33 69L34 69L34 68L33 68L33 65L35 65L35 66L34 66L34 67L35 67L35 68L36 68L36 69L38 69L38 68L37 68L37 67L39 67L39 66L38 66L38 64L37 64L37 63L38 63L38 61L39 61L39 62L40 62L40 59L41 59L41 58L42 58L42 60L41 60L41 62L42 62L42 63L43 63L43 61L44 61L44 60L46 60L46 58L45 58L45 59L44 59L44 60L43 60L43 57L44 57L44 56L46 56L46 57L48 57L48 58L47 58L47 59L49 59L49 58L50 58L50 57L51 57L51 59L50 59L50 60L47 60L47 62L46 62L46 63L47 63L47 66L46 66L46 64L45 64L45 62L44 62L44 64L41 64L41 63L39 63L39 64L41 64L41 66L40 66L40 67L41 67L41 68L42 68L42 69L44 69L44 68L48 68L48 69L49 69L49 68L48 68L48 67L49 67L49 66L50 66L50 67L51 67L51 66L52 66L52 67L54 67L54 68L53 68L53 69L56 69L56 67L57 67L57 66L58 66L58 68L59 68L59 67L60 67L60 69L62 69L62 67L63 67L63 68L67 68L67 69L68 69L68 68L67 68L67 65L65 65L65 64L67 64L67 63L68 63L68 64L69 64L69 63L68 63L68 62L67 62L67 60L68 60L68 56L69 56L69 55L68 55L68 54L69 54L69 53L68 53L68 54L67 54L67 52L68 52L68 50L69 50L69 49L67 49L67 51L65 51L65 53L66 53L66 55L59 55L59 54L60 54L60 53L59 53L59 52L60 52L60 51L61 51L61 53L62 53L62 52L63 52L63 53L64 53L64 52L63 52L63 51L64 51L64 50L63 50L63 51L61 51L61 50L62 50L62 49L60 49L60 50L58 50L58 51L55 51L55 50L57 50L57 49L56 49L56 48L55 48L55 47L53 47L53 48L55 48L55 49L53 49L53 50L50 50L50 47L52 47L52 45L51 45L51 46L50 46L50 44L54 44L54 45L53 45L53 46L56 46L56 47L59 47L59 46L61 46L61 47L62 47L62 48L64 48L64 46L63 46L63 47L62 47L62 45L59 45L59 44L60 44L60 43L61 43L61 44L62 44L62 40L63 40L63 41L66 41L66 40L67 40L67 39L68 39L68 42L67 42L67 43L65 43L65 42L63 42L63 43L65 43L65 44L63 44L63 45L66 45L66 47L65 47L65 48L69 48L69 47L67 47L67 46L69 46L69 43L68 43L68 42L69 42L69 39L68 39L68 36L69 36L69 35L68 35L68 34L69 34L69 32L68 32L68 30L69 30L69 28L68 28L68 26L67 26L67 25L65 25L65 29L66 29L66 28L67 28L67 31L65 31L65 30L64 30L64 29L63 29L63 28L64 28L64 26L61 26L61 24L62 24L62 23L63 23L63 24L64 24L64 23L65 23L65 24L68 24L68 25L69 25L69 24L68 24L68 22L69 22L69 21L68 21L68 18L69 18L69 16L68 16L68 14L62 14L62 13L63 13L63 11L64 11L64 12L66 12L66 13L69 13L69 12L68 12L68 10L69 10L69 9L68 9L68 8L67 8L67 10L66 10L66 8L65 8L65 9L64 9L64 8L63 8L63 9L64 9L64 10L62 10L62 8L61 8L61 9L59 9L59 10L61 10L61 11L62 11L62 13L60 13L60 11L59 11L59 13L60 13L60 14L59 14L59 15L61 15L61 14L62 14L62 16L59 16L59 20L60 20L60 18L62 18L62 19L61 19L61 21L59 21L59 22L58 22L58 19L57 19L57 21L56 21L56 20L55 20L55 21L54 21L54 18L55 18L55 17L56 17L56 14L57 14L57 13L56 13L56 12L58 12L58 11L57 11L57 10L56 10L56 12L55 12L55 11L54 11L54 13L52 13L52 14L51 14L51 16L49 16L49 15L47 15L47 17L49 17L49 18L50 18L50 19L48 19L48 20L46 20L46 21L49 21L49 22L47 22L47 24L46 24L46 22L44 22L44 20L43 20L43 17L44 17L44 16L46 16L46 15L45 15L45 14L43 14L43 13L44 13L44 12L43 12L43 13L42 13L42 14L41 14L41 12L42 12L42 10L45 10L45 9L46 9L46 7L47 7L47 10L49 10L49 12L46 12L46 11L45 11L45 12L46 12L46 13L47 13L47 14L50 14L50 13L51 13L51 11L50 11L50 9L49 9L49 6L48 6L48 7L47 7L47 6L46 6L46 5L44 5L44 3L45 3L45 4L46 4L46 3L45 3L45 2L44 2L44 3L43 3L43 0L41 0L41 1L37 1L37 0L33 0L33 1L32 1L32 0L31 0L31 1L30 1L30 0L28 0L28 1L26 1L26 2L25 2L25 4L24 4L24 3L23 3L23 1L25 1L25 0L23 0L23 1L21 1L21 2L22 2L22 3L17 3L17 2L20 2L20 1L19 1L19 0L17 0L17 2L15 2L15 3L13 3L13 2L12 2L12 1L10 1L10 0ZM14 0L14 1L15 1L15 0ZM44 0L44 1L46 1L46 2L47 2L47 3L48 3L48 4L47 4L47 5L50 5L50 4L49 4L49 3L48 3L48 2L50 2L50 3L52 3L52 2L54 2L54 1L55 1L55 4L51 4L51 6L50 6L50 8L51 8L51 6L52 6L52 7L53 7L53 8L54 8L54 9L53 9L53 10L52 10L52 12L53 12L53 10L55 10L55 8L58 8L58 7L59 7L59 4L58 4L58 3L59 3L59 2L56 2L56 1L57 1L57 0L56 0L56 1L55 1L55 0L54 0L54 1L53 1L53 0L51 0L51 2L50 2L50 0L47 0L47 1L46 1L46 0ZM58 0L58 1L61 1L61 0ZM9 1L9 2L10 2L10 1ZM29 1L29 3L28 3L28 2L26 2L26 4L25 4L25 5L24 5L24 4L23 4L23 3L22 3L22 4L20 4L20 6L19 6L19 7L18 7L18 4L16 4L16 5L17 5L17 7L18 7L18 8L19 8L19 7L20 7L20 6L21 6L21 8L20 8L20 11L19 11L19 10L17 10L17 8L16 8L16 6L15 6L15 5L14 5L14 4L12 4L12 2L11 2L11 4L12 4L12 6L11 6L11 8L9 8L9 9L10 9L10 10L8 10L8 11L6 11L6 10L7 10L7 9L6 9L6 10L5 10L5 9L2 9L2 10L3 10L3 12L4 12L4 13L5 13L5 14L3 14L3 13L2 13L2 14L3 14L3 15L2 15L2 17L3 17L3 18L2 18L2 19L3 19L3 20L8 20L8 19L3 19L3 18L4 18L4 17L5 17L5 16L4 16L4 15L5 15L5 14L9 14L9 15L6 15L6 16L9 16L9 15L11 15L11 14L10 14L10 13L6 13L6 12L8 12L8 11L10 11L10 12L13 12L13 11L10 11L10 10L11 10L11 8L12 8L12 9L14 9L14 11L15 11L15 8L16 8L16 10L17 10L17 11L19 11L19 13L20 13L20 14L21 14L21 15L22 15L22 16L19 16L19 14L18 14L18 13L17 13L17 12L14 12L14 13L13 13L13 16L12 16L12 18L13 18L13 19L14 19L14 20L12 20L12 21L10 21L10 20L11 20L11 17L10 17L10 19L9 19L9 21L8 21L8 22L9 22L9 23L10 23L10 22L11 22L11 23L13 23L13 22L14 22L14 20L15 20L15 21L16 21L16 22L15 22L15 23L17 23L17 21L18 21L18 22L19 22L19 21L20 21L20 22L21 22L21 23L20 23L20 24L19 24L19 25L20 25L20 26L18 26L18 25L17 25L17 24L16 24L16 25L15 25L15 26L16 26L16 25L17 25L17 26L18 26L18 27L17 27L17 28L16 28L16 27L14 27L14 26L13 26L13 25L14 25L14 24L12 24L12 27L11 27L11 26L9 26L9 24L8 24L8 27L9 27L9 28L13 28L13 27L14 27L14 28L16 28L16 29L15 29L15 31L14 31L14 30L13 30L13 31L12 31L12 30L11 30L11 29L8 29L8 30L11 30L11 31L10 31L10 32L9 32L9 31L6 31L6 30L7 30L7 29L6 29L6 30L4 30L4 32L5 32L5 31L6 31L6 32L9 32L9 34L10 34L10 32L11 32L11 34L13 34L13 35L15 35L15 33L16 33L16 34L17 34L17 35L16 35L16 36L15 36L15 37L14 37L14 36L12 36L12 37L11 37L11 36L9 36L9 37L10 37L10 38L12 38L12 39L13 39L13 41L11 41L11 39L9 39L9 38L8 38L8 39L6 39L6 38L7 38L7 37L4 37L4 36L3 36L3 37L4 37L4 38L2 38L2 40L1 40L1 42L3 42L3 43L5 43L5 45L6 45L6 46L4 46L4 48L8 48L8 49L4 49L4 51L3 51L3 53L4 53L4 54L7 54L7 55L6 55L6 56L5 56L5 55L4 55L4 56L5 56L5 57L6 57L6 58L7 58L7 57L8 57L8 56L9 56L9 57L10 57L10 56L9 56L9 55L8 55L8 54L9 54L9 53L8 53L8 52L9 52L9 51L10 51L10 54L11 54L11 55L12 55L12 56L11 56L11 58L12 58L12 59L13 59L13 60L16 60L16 61L14 61L14 62L16 62L16 63L18 63L18 62L19 62L19 61L20 61L20 59L21 59L21 57L22 57L22 58L24 58L24 57L22 57L22 56L21 56L21 55L22 55L22 54L23 54L23 53L25 53L25 52L26 52L26 54L27 54L27 55L30 55L30 54L31 54L31 55L32 55L32 56L31 56L31 59L30 59L30 60L31 60L31 59L32 59L32 60L33 60L33 58L35 58L35 56L36 56L36 55L37 55L37 56L38 56L38 58L37 58L37 59L38 59L38 60L39 60L39 59L38 59L38 58L39 58L39 57L41 57L41 56L38 56L38 55L41 55L41 54L42 54L42 55L43 55L43 56L42 56L42 57L43 57L43 56L44 56L44 53L45 53L45 54L46 54L46 56L48 56L48 55L47 55L47 54L49 54L49 53L50 53L50 55L49 55L49 56L51 56L51 57L52 57L52 58L53 58L53 60L52 60L52 59L51 59L51 60L50 60L50 62L47 62L47 63L48 63L48 64L49 64L49 65L48 65L48 66L49 66L49 65L50 65L50 66L51 66L51 65L52 65L52 66L53 66L53 65L54 65L54 64L53 64L53 63L54 63L54 62L53 62L53 60L54 60L54 61L55 61L55 59L56 59L56 61L57 61L57 62L59 62L59 63L57 63L57 64L55 64L55 65L56 65L56 66L57 66L57 64L58 64L58 66L59 66L59 65L60 65L60 64L59 64L59 63L60 63L60 62L59 62L59 61L60 61L60 60L62 60L62 59L63 59L63 60L65 60L65 59L64 59L64 58L67 58L67 57L66 57L66 56L64 56L64 57L63 57L63 56L62 56L62 57L61 57L61 58L60 58L60 56L59 56L59 55L57 55L57 54L59 54L59 53L58 53L58 52L59 52L59 51L58 51L58 52L55 52L55 51L53 51L53 52L50 52L50 51L48 51L48 49L47 49L47 47L48 47L48 48L49 48L49 46L47 46L47 45L45 45L45 44L44 44L44 42L45 42L45 43L46 43L46 42L47 42L47 40L48 40L48 38L49 38L49 40L50 40L50 43L48 43L48 44L50 44L50 43L52 43L52 42L51 42L51 41L53 41L53 40L54 40L54 41L55 41L55 42L54 42L54 43L55 43L55 42L56 42L56 43L58 43L58 42L59 42L59 43L60 43L60 42L59 42L59 41L60 41L60 40L61 40L61 39L65 39L65 40L66 40L66 39L65 39L65 38L66 38L66 36L65 36L65 37L64 37L64 38L61 38L61 39L58 39L58 40L57 40L57 38L60 38L60 35L59 35L59 34L60 34L60 32L59 32L59 31L60 31L60 30L59 30L59 29L60 29L60 28L61 28L61 29L62 29L62 30L61 30L61 32L62 32L62 31L63 31L63 32L64 32L64 31L63 31L63 29L62 29L62 27L61 27L61 26L59 26L59 25L60 25L60 24L61 24L61 23L62 23L62 22L63 22L63 21L65 21L65 22L68 22L68 21L67 21L67 20L65 20L65 19L67 19L67 17L68 17L68 16L67 16L67 17L66 17L66 16L65 16L65 15L64 15L64 16L62 16L62 18L63 18L63 19L62 19L62 20L63 20L63 21L62 21L62 22L61 22L61 23L60 23L60 24L59 24L59 23L58 23L58 22L56 22L56 23L55 23L55 24L54 24L54 22L53 22L53 20L51 20L51 21L50 21L50 22L49 22L49 23L48 23L48 24L47 24L47 25L46 25L46 24L45 24L45 23L44 23L44 22L43 22L43 24L44 24L44 25L43 25L43 26L46 26L46 28L49 28L49 29L48 29L48 30L49 30L49 29L50 29L50 31L51 31L51 32L50 32L50 33L49 33L49 34L51 34L51 35L53 35L53 32L54 32L54 33L55 33L55 34L54 34L54 35L55 35L55 34L56 34L56 33L57 33L57 35L56 35L56 37L55 37L55 38L53 38L53 39L52 39L52 40L51 40L51 37L54 37L54 36L50 36L50 38L49 38L49 37L48 37L48 38L47 38L47 37L45 37L45 36L47 36L47 35L48 35L48 34L47 34L47 33L46 33L46 32L47 32L47 31L46 31L46 32L44 32L44 31L43 31L43 30L47 30L47 29L45 29L45 28L44 28L44 27L43 27L43 28L44 28L44 29L43 29L43 30L42 30L42 27L37 27L37 30L40 30L40 31L43 31L43 32L39 32L39 33L38 33L38 32L37 32L37 31L35 31L35 32L37 32L37 33L38 33L38 34L37 34L37 36L38 36L38 37L34 37L34 38L33 38L33 39L32 39L32 37L31 37L31 38L30 38L30 37L29 37L29 36L28 36L28 35L26 35L26 34L28 34L28 33L29 33L29 32L28 32L28 33L25 33L25 34L23 34L23 35L24 35L24 37L23 37L23 36L21 36L21 35L22 35L22 34L21 34L21 33L24 33L24 32L26 32L26 31L23 31L23 30L22 30L22 29L23 29L23 28L24 28L24 27L22 27L22 26L24 26L24 25L22 25L22 24L21 24L21 23L22 23L22 22L23 22L23 24L24 24L24 22L23 22L23 20L25 20L25 21L27 21L27 22L26 22L26 25L25 25L25 27L26 27L26 25L28 25L28 26L27 26L27 28L26 28L26 30L29 30L29 25L30 25L30 24L29 24L29 25L28 25L28 23L30 23L30 22L31 22L31 23L32 23L32 24L31 24L31 27L33 27L33 28L34 28L34 29L33 29L33 30L32 30L32 32L31 32L31 35L30 35L30 34L29 34L29 35L30 35L30 36L31 36L31 35L32 35L32 32L34 32L34 31L33 31L33 30L34 30L34 29L36 29L36 28L35 28L35 27L36 27L36 26L35 26L35 27L33 27L33 25L38 25L38 26L41 26L41 25L42 25L42 24L39 24L39 25L38 25L38 23L42 23L42 22L37 22L37 21L38 21L38 20L37 20L37 19L39 19L39 18L41 18L41 17L42 17L42 16L44 16L44 15L43 15L43 14L42 14L42 15L40 15L40 14L39 14L39 13L40 13L40 12L41 12L41 10L40 10L40 12L39 12L39 9L43 9L43 8L44 8L44 9L45 9L45 7L46 7L46 6L45 6L45 7L44 7L44 5L43 5L43 7L42 7L42 6L41 6L41 5L39 5L39 4L41 4L41 2L42 2L42 1L41 1L41 2L37 2L37 3L38 3L38 4L37 4L37 5L38 5L38 6L37 6L37 7L38 7L38 6L39 6L39 7L40 7L40 6L41 6L41 8L38 8L38 10L36 10L36 9L35 9L35 10L36 10L36 11L33 11L33 10L34 10L34 9L33 9L33 10L32 10L32 11L31 11L31 12L32 12L32 13L31 13L31 14L30 14L30 13L29 13L29 12L30 12L30 11L29 11L29 10L30 10L30 9L31 9L31 8L32 8L32 5L30 5L30 4L29 4L29 3L31 3L31 4L32 4L32 3L33 3L33 4L35 4L35 3L36 3L36 2L35 2L35 1L33 1L33 2L32 2L32 1L31 1L31 2L30 2L30 1ZM31 2L31 3L32 3L32 2ZM42 3L42 4L43 4L43 3ZM56 3L56 6L55 6L55 7L56 7L56 6L57 6L57 7L58 7L58 4L57 4L57 3ZM60 3L60 5L61 5L61 3ZM22 4L22 5L21 5L21 6L22 6L22 7L23 7L23 6L24 6L24 9L23 9L23 10L24 10L24 9L26 9L26 10L27 10L27 9L26 9L26 8L27 8L27 6L28 6L28 7L29 7L29 6L30 6L30 7L31 7L31 6L30 6L30 5L29 5L29 6L28 6L28 5L27 5L27 4L26 4L26 5L25 5L25 6L24 6L24 5L23 5L23 4ZM22 5L22 6L23 6L23 5ZM26 5L26 6L25 6L25 8L26 8L26 6L27 6L27 5ZM33 5L33 8L36 8L36 5ZM53 5L53 7L54 7L54 5ZM9 6L9 7L10 7L10 6ZM12 6L12 8L14 8L14 7L15 7L15 6L14 6L14 7L13 7L13 6ZM34 6L34 7L35 7L35 6ZM60 6L60 7L61 7L61 6ZM21 8L21 9L22 9L22 8ZM29 8L29 9L30 9L30 8ZM21 10L21 11L20 11L20 12L22 12L22 10ZM64 10L64 11L65 11L65 10ZM5 11L5 12L6 12L6 11ZM23 11L23 12L24 12L24 11ZM26 11L26 12L25 12L25 13L23 13L23 14L24 14L24 15L23 15L23 16L26 16L26 15L25 15L25 13L26 13L26 14L27 14L27 13L26 13L26 12L27 12L27 11ZM37 11L37 12L38 12L38 11ZM33 12L33 14L31 14L31 15L30 15L30 16L29 16L29 18L31 18L31 17L32 17L32 18L33 18L33 17L32 17L32 16L31 16L31 15L33 15L33 16L34 16L34 15L33 15L33 14L34 14L34 13L36 13L36 14L35 14L35 15L36 15L36 16L35 16L35 17L37 17L37 18L34 18L34 19L37 19L37 18L38 18L38 17L37 17L37 16L38 16L38 15L39 15L39 16L40 16L40 15L39 15L39 14L37 14L37 13L36 13L36 12ZM14 13L14 16L13 16L13 17L14 17L14 16L16 16L16 14L17 14L17 15L18 15L18 14L17 14L17 13L16 13L16 14L15 14L15 13ZM21 13L21 14L22 14L22 13ZM55 13L55 14L53 14L53 16L51 16L51 17L50 17L50 18L51 18L51 17L55 17L55 16L54 16L54 15L55 15L55 14L56 14L56 13ZM28 14L28 15L27 15L27 16L28 16L28 15L29 15L29 14ZM57 15L57 16L58 16L58 15ZM3 16L3 17L4 17L4 16ZM17 16L17 17L15 17L15 20L16 20L16 21L17 21L17 20L16 20L16 18L17 18L17 19L18 19L18 18L20 18L20 19L19 19L19 20L18 20L18 21L19 21L19 20L23 20L23 19L22 19L22 18L21 18L21 17L18 17L18 16ZM6 17L6 18L7 18L7 17ZM8 17L8 18L9 18L9 17ZM17 17L17 18L18 18L18 17ZM23 17L23 18L26 18L26 19L25 19L25 20L26 20L26 19L27 19L27 21L28 21L28 19L27 19L27 18L28 18L28 17L27 17L27 18L26 18L26 17ZM45 17L45 18L44 18L44 19L45 19L45 18L46 18L46 19L47 19L47 18L46 18L46 17ZM63 17L63 18L66 18L66 17ZM29 19L29 20L30 20L30 21L29 21L29 22L30 22L30 21L31 21L31 22L32 22L32 21L33 21L33 22L35 22L35 23L36 23L36 24L37 24L37 22L35 22L35 20L34 20L34 21L33 21L33 20L32 20L32 19ZM40 19L40 20L39 20L39 21L41 21L41 19ZM31 20L31 21L32 21L32 20ZM42 20L42 21L43 21L43 20ZM0 21L0 22L1 22L1 24L2 24L2 23L3 23L3 22L1 22L1 21ZM12 21L12 22L13 22L13 21ZM21 21L21 22L22 22L22 21ZM51 21L51 22L52 22L52 23L50 23L50 25L49 25L49 24L48 24L48 25L47 25L47 27L49 27L49 28L50 28L50 27L51 27L51 28L54 28L54 29L52 29L52 30L51 30L51 31L52 31L52 30L53 30L53 31L54 31L54 32L55 32L55 33L56 33L56 31L55 31L55 29L56 29L56 30L57 30L57 31L59 31L59 30L57 30L57 29L59 29L59 27L58 27L58 26L57 26L57 25L58 25L58 24L57 24L57 23L56 23L56 24L55 24L55 25L52 25L52 26L50 26L50 25L51 25L51 24L52 24L52 23L53 23L53 22L52 22L52 21ZM56 24L56 25L55 25L55 26L53 26L53 27L54 27L54 28L55 28L55 26L56 26L56 29L57 29L57 26L56 26L56 25L57 25L57 24ZM0 25L0 26L1 26L1 25ZM4 25L4 26L5 26L5 28L7 28L7 27L6 27L6 26L7 26L7 25L6 25L6 26L5 26L5 25ZM21 25L21 26L20 26L20 27L19 27L19 28L17 28L17 30L16 30L16 31L17 31L17 32L16 32L16 33L17 33L17 34L18 34L18 35L17 35L17 37L18 37L18 38L17 38L17 39L19 39L19 40L17 40L17 41L18 41L18 42L19 42L19 44L17 44L17 46L15 46L15 45L16 45L16 43L14 43L14 45L13 45L13 46L12 46L12 47L13 47L13 46L14 46L14 47L16 47L16 48L17 48L17 49L18 49L18 50L17 50L17 52L16 52L16 51L15 51L15 50L14 50L14 48L13 48L13 49L12 49L12 48L10 48L10 51L12 51L12 53L13 53L13 56L14 56L14 57L16 57L16 58L15 58L15 59L16 59L16 60L17 60L17 62L18 62L18 61L19 61L19 59L20 59L20 56L18 56L18 55L17 55L17 54L15 54L15 55L14 55L14 53L15 53L15 52L16 52L16 53L18 53L18 54L20 54L20 55L21 55L21 54L22 54L22 53L21 53L21 54L20 54L20 53L19 53L19 52L21 52L21 50L22 50L22 49L18 49L18 48L17 48L17 47L18 47L18 46L20 46L20 45L21 45L21 44L22 44L22 42L21 42L21 44L20 44L20 41L19 41L19 40L21 40L21 41L22 41L22 40L21 40L21 39L22 39L22 37L21 37L21 39L20 39L20 36L18 36L18 35L20 35L20 34L19 34L19 33L20 33L20 32L22 32L22 31L19 31L19 30L20 30L20 29L19 29L19 28L21 28L21 29L22 29L22 28L21 28L21 26L22 26L22 25ZM49 26L49 27L50 27L50 26ZM27 28L27 29L28 29L28 28ZM31 28L31 29L32 29L32 28ZM39 28L39 29L40 29L40 28ZM18 29L18 30L17 30L17 31L18 31L18 30L19 30L19 29ZM11 31L11 32L12 32L12 31ZM13 31L13 32L14 32L14 31ZM0 32L0 36L1 36L1 34L2 34L2 32ZM17 32L17 33L18 33L18 32ZM43 32L43 33L40 33L40 35L39 35L39 36L40 36L40 35L41 35L41 39L39 39L39 40L38 40L38 38L36 38L36 39L35 39L35 41L34 41L34 42L35 42L35 41L36 41L36 42L37 42L37 43L35 43L35 44L37 44L37 43L38 43L38 41L39 41L39 40L41 40L41 41L40 41L40 43L39 43L39 44L40 44L40 45L39 45L39 46L38 46L38 45L37 45L37 46L36 46L36 47L35 47L35 46L34 46L34 45L33 45L33 44L29 44L29 47L30 47L30 48L29 48L29 49L30 49L30 50L29 50L29 51L30 51L30 50L33 50L33 51L34 51L34 50L33 50L33 49L31 49L31 45L33 45L33 46L32 46L32 47L33 47L33 46L34 46L34 47L35 47L35 48L36 48L36 47L37 47L37 48L38 48L38 47L39 47L39 48L40 48L40 47L41 47L41 48L42 48L42 49L41 49L41 50L39 50L39 51L37 51L37 50L38 50L38 49L37 49L37 50L36 50L36 49L35 49L35 52L38 52L38 53L37 53L37 54L39 54L39 51L41 51L41 53L42 53L42 54L43 54L43 53L44 53L44 52L45 52L45 53L49 53L49 52L47 52L47 51L46 51L46 52L45 52L45 49L46 49L46 47L45 47L45 49L44 49L44 46L43 46L43 45L44 45L44 44L43 44L43 42L44 42L44 40L41 40L41 39L42 39L42 38L43 38L43 39L45 39L45 40L47 40L47 38L45 38L45 37L44 37L44 36L45 36L45 33L44 33L44 32ZM57 32L57 33L58 33L58 32ZM66 32L66 33L65 33L65 34L66 34L66 35L67 35L67 36L68 36L68 35L67 35L67 34L68 34L68 32ZM5 33L5 36L8 36L8 33ZM13 33L13 34L14 34L14 33ZM33 33L33 36L36 36L36 33ZM43 33L43 34L41 34L41 35L43 35L43 36L42 36L42 37L43 37L43 36L44 36L44 33ZM61 33L61 36L64 36L64 33ZM6 34L6 35L7 35L7 34ZM34 34L34 35L35 35L35 34ZM62 34L62 35L63 35L63 34ZM27 36L27 37L24 37L24 38L23 38L23 39L24 39L24 38L25 38L25 39L26 39L26 40L24 40L24 41L23 41L23 42L24 42L24 41L26 41L26 40L29 40L29 41L30 41L30 42L28 42L28 43L27 43L27 42L26 42L26 43L25 43L25 44L24 44L24 43L23 43L23 46L22 46L22 47L21 47L21 48L22 48L22 47L25 47L25 48L26 48L26 47L25 47L25 46L26 46L26 43L27 43L27 45L28 45L28 43L31 43L31 42L33 42L33 40L34 40L34 39L33 39L33 40L32 40L32 39L31 39L31 40L32 40L32 41L30 41L30 40L29 40L29 39L30 39L30 38L29 38L29 39L28 39L28 38L27 38L27 37L28 37L28 36ZM12 37L12 38L13 38L13 37ZM39 37L39 38L40 38L40 37ZM56 37L56 38L55 38L55 39L56 39L56 38L57 38L57 37ZM5 39L5 40L4 40L4 41L3 41L3 42L4 42L4 41L5 41L5 42L6 42L6 43L7 43L7 44L6 44L6 45L7 45L7 46L6 46L6 47L8 47L8 42L9 42L9 45L10 45L10 47L11 47L11 45L12 45L12 44L13 44L13 42L12 42L12 44L11 44L11 45L10 45L10 40L6 40L6 39ZM14 39L14 41L15 41L15 42L16 42L16 41L15 41L15 39ZM55 40L55 41L56 41L56 40ZM6 41L6 42L8 42L8 41ZM40 43L40 44L41 44L41 43ZM67 43L67 45L68 45L68 43ZM3 44L3 45L4 45L4 44ZM19 44L19 45L20 45L20 44ZM55 44L55 45L56 45L56 46L59 46L59 45L57 45L57 44ZM41 45L41 46L42 46L42 48L43 48L43 46L42 46L42 45ZM27 46L27 48L28 48L28 46ZM39 46L39 47L40 47L40 46ZM19 47L19 48L20 48L20 47ZM23 49L23 51L22 51L22 52L25 52L25 50L26 50L26 49ZM27 49L27 50L28 50L28 49ZM43 49L43 50L44 50L44 49ZM5 50L5 51L7 51L7 52L4 52L4 53L7 53L7 52L8 52L8 50ZM18 50L18 52L19 52L19 51L20 51L20 50ZM41 50L41 51L42 51L42 50ZM0 51L0 52L1 52L1 51ZM26 51L26 52L28 52L28 53L29 53L29 54L30 54L30 53L31 53L31 54L33 54L33 53L34 53L34 52L33 52L33 53L32 53L32 52L28 52L28 51ZM43 51L43 52L42 52L42 53L43 53L43 52L44 52L44 51ZM53 52L53 53L51 53L51 56L52 56L52 55L54 55L54 54L55 54L55 53L54 53L54 52ZM53 53L53 54L54 54L54 53ZM56 53L56 54L57 54L57 53ZM35 54L35 55L33 55L33 56L35 56L35 55L36 55L36 54ZM7 55L7 56L6 56L6 57L7 57L7 56L8 56L8 55ZM16 55L16 57L17 57L17 55ZM24 55L24 56L25 56L25 57L27 57L27 58L26 58L26 59L25 59L25 60L24 60L24 59L23 59L23 60L24 60L24 61L25 61L25 60L26 60L26 62L27 62L27 64L28 64L28 65L25 65L25 66L24 66L24 67L25 67L25 68L26 68L26 66L28 66L28 65L30 65L30 66L29 66L29 68L32 68L32 67L31 67L31 66L32 66L32 65L30 65L30 64L31 64L31 63L32 63L32 61L31 61L31 63L29 63L29 62L30 62L30 61L28 61L28 60L29 60L29 57L30 57L30 56L26 56L26 55ZM56 55L56 56L54 56L54 57L53 57L53 58L54 58L54 59L55 59L55 57L56 57L56 56L57 56L57 55ZM67 55L67 56L68 56L68 55ZM58 56L58 57L59 57L59 56ZM12 57L12 58L13 58L13 59L14 59L14 58L13 58L13 57ZM32 57L32 58L33 58L33 57ZM62 57L62 58L61 58L61 59L62 59L62 58L63 58L63 57ZM0 58L0 61L1 61L1 58ZM17 58L17 59L19 59L19 58ZM57 58L57 59L58 59L58 60L57 60L57 61L58 61L58 60L59 60L59 59L60 59L60 58L59 58L59 59L58 59L58 58ZM27 59L27 60L28 60L28 59ZM3 60L3 61L5 61L5 60ZM6 60L6 61L7 61L7 60ZM8 60L8 63L9 63L9 60ZM42 60L42 61L43 61L43 60ZM51 60L51 61L52 61L52 60ZM27 61L27 62L28 62L28 61ZM33 61L33 64L36 64L36 61ZM61 61L61 64L64 64L64 61ZM34 62L34 63L35 63L35 62ZM55 62L55 63L56 63L56 62ZM62 62L62 63L63 63L63 62ZM65 62L65 63L66 63L66 62ZM25 63L25 64L26 64L26 63ZM28 63L28 64L29 64L29 63ZM50 63L50 64L51 64L51 63ZM8 64L8 69L9 69L9 64ZM17 64L17 65L16 65L16 66L17 66L17 65L18 65L18 64ZM44 64L44 66L41 66L41 67L43 67L43 68L44 68L44 66L45 66L45 67L46 67L46 66L45 66L45 64ZM61 65L61 66L64 66L64 67L65 67L65 66L64 66L64 65ZM36 66L36 67L37 67L37 66ZM10 68L10 69L11 69L11 68ZM12 68L12 69L16 69L16 68ZM50 68L50 69L51 69L51 68ZM0 0L0 7L7 7L7 0ZM1 1L1 6L6 6L6 1ZM2 2L2 5L5 5L5 2ZM62 0L62 7L69 7L69 0ZM63 1L63 6L68 6L68 1ZM64 2L64 5L67 5L67 2ZM0 62L0 69L7 69L7 62ZM1 63L1 68L6 68L6 63ZM2 64L2 67L5 67L5 64Z" fill="#000000"/></g></g></svg>
