<?xml version="1.0" encoding="UTF-8"?>
<svg xmlns="http://www.w3.org/2000/svg" version="1.1" width="300" height="300" viewBox="0 0 300 300"><rect x="0" y="0" width="300" height="300" fill="#ffffff"/><g transform="scale(4.615)"><g transform="translate(0,0)"><path fill-rule="evenodd" d="M9 0L9 1L8 1L8 2L9 2L9 1L10 1L10 0ZM14 0L14 1L11 1L11 2L10 2L10 3L8 3L8 4L10 4L10 5L12 5L12 4L13 4L13 6L12 6L12 7L11 7L11 6L10 6L10 7L9 7L9 5L8 5L8 7L9 7L9 8L6 8L6 9L7 9L7 10L3 10L3 9L5 9L5 8L0 8L0 9L1 9L1 10L0 10L0 12L1 12L1 11L2 11L2 13L0 13L0 14L2 14L2 16L5 16L5 18L6 18L6 19L7 19L7 18L9 18L9 16L12 16L12 18L11 18L11 19L10 19L10 20L11 20L11 21L9 21L9 19L8 19L8 21L7 21L7 20L4 20L4 19L3 19L3 18L4 18L4 17L3 17L3 18L2 18L2 17L0 17L0 18L2 18L2 20L4 20L4 22L3 22L3 21L2 21L2 22L0 22L0 24L2 24L2 22L3 22L3 25L4 25L4 27L5 27L5 25L7 25L7 24L5 24L5 23L7 23L7 22L11 22L11 24L9 24L9 23L8 23L8 25L9 25L9 26L10 26L10 28L9 28L9 29L8 29L8 28L6 28L6 29L5 29L5 30L4 30L4 28L3 28L3 29L2 29L2 27L1 27L1 28L0 28L0 29L2 29L2 31L1 31L1 30L0 30L0 31L1 31L1 33L2 33L2 34L1 34L1 35L2 35L2 36L3 36L3 37L1 37L1 36L0 36L0 37L1 37L1 40L0 40L0 41L1 41L1 42L0 42L0 45L1 45L1 47L0 47L0 48L3 48L3 49L2 49L2 50L0 50L0 54L1 54L1 53L2 53L2 55L3 55L3 56L1 56L1 55L0 55L0 56L1 56L1 57L3 57L3 56L4 56L4 57L5 57L5 56L4 56L4 54L5 54L5 55L8 55L8 56L9 56L9 57L8 57L8 59L10 59L10 60L8 60L8 65L9 65L9 64L10 64L10 65L11 65L11 63L9 63L9 62L11 62L11 61L12 61L12 63L13 63L13 62L16 62L16 61L15 61L15 60L16 60L16 59L18 59L18 57L19 57L19 58L20 58L20 57L19 57L19 56L21 56L21 57L22 57L22 58L24 58L24 59L21 59L21 60L23 60L23 61L21 61L21 63L22 63L22 64L23 64L23 63L24 63L24 64L25 64L25 65L26 65L26 64L27 64L27 62L28 62L28 61L29 61L29 62L30 62L30 61L32 61L32 62L31 62L31 63L29 63L29 64L28 64L28 65L29 65L29 64L30 64L30 65L32 65L32 64L33 64L33 65L38 65L38 64L41 64L41 63L40 63L40 62L42 62L42 63L44 63L44 59L46 59L46 58L44 58L44 59L41 59L41 58L43 58L43 57L44 57L44 56L45 56L45 55L44 55L44 50L45 50L45 51L47 51L47 52L48 52L48 53L47 53L47 61L48 61L48 62L47 62L47 63L46 63L46 62L45 62L45 65L49 65L49 62L50 62L50 59L51 59L51 60L55 60L55 59L56 59L56 62L55 62L55 61L53 61L53 62L54 62L54 63L56 63L56 62L57 62L57 63L58 63L58 62L57 62L57 61L61 61L61 62L59 62L59 63L60 63L60 64L59 64L59 65L63 65L63 64L64 64L64 61L65 61L65 59L63 59L63 61L62 61L62 58L65 58L65 57L62 57L62 55L63 55L63 54L65 54L65 53L64 53L64 52L62 52L62 51L61 51L61 49L60 49L60 48L62 48L62 47L60 47L60 48L59 48L59 47L56 47L56 46L55 46L55 45L52 45L52 46L51 46L51 47L50 47L50 41L49 41L49 40L48 40L48 39L50 39L50 40L51 40L51 39L52 39L52 40L53 40L53 41L52 41L52 42L55 42L55 40L60 40L60 41L59 41L59 43L61 43L61 44L60 44L60 45L59 45L59 46L61 46L61 45L62 45L62 46L63 46L63 44L62 44L62 41L61 41L61 40L62 40L62 39L60 39L60 38L63 38L63 37L65 37L65 36L64 36L64 35L63 35L63 32L65 32L65 31L63 31L63 30L65 30L65 27L63 27L63 26L62 26L62 25L63 25L63 24L65 24L65 23L63 23L63 22L62 22L62 21L61 21L61 20L62 20L62 18L63 18L63 17L62 17L62 18L57 18L57 19L58 19L58 20L56 20L56 19L54 19L54 18L56 18L56 16L53 16L53 17L52 17L52 19L51 19L51 18L50 18L50 17L51 17L51 14L52 14L52 15L53 15L53 14L55 14L55 15L56 15L56 14L55 14L55 13L60 13L60 15L59 15L59 16L60 16L60 17L61 17L61 16L62 16L62 15L63 15L63 13L62 13L62 11L63 11L63 12L64 12L64 11L63 11L63 10L64 10L64 8L63 8L63 9L62 9L62 8L61 8L61 9L60 9L60 8L59 8L59 9L60 9L60 12L55 12L55 11L54 11L54 10L56 10L56 11L58 11L58 10L56 10L56 9L55 9L55 5L54 5L54 4L56 4L56 5L57 5L57 4L56 4L56 3L57 3L57 1L56 1L56 0L55 0L55 1L56 1L56 3L55 3L55 2L54 2L54 0L52 0L52 1L53 1L53 2L54 2L54 4L52 4L52 7L51 7L51 5L50 5L50 4L51 4L51 3L50 3L50 0L47 0L47 2L45 2L45 0L44 0L44 2L43 2L43 0L39 0L39 2L37 2L37 1L38 1L38 0L37 0L37 1L36 1L36 0L35 0L35 2L34 2L34 1L32 1L32 0L29 0L29 1L27 1L27 0L26 0L26 1L27 1L27 2L33 2L33 4L32 4L32 3L30 3L30 5L27 5L27 6L26 6L26 7L25 7L25 6L24 6L24 7L25 7L25 9L24 9L24 8L23 8L23 9L24 9L24 10L23 10L23 11L22 11L22 12L24 12L24 13L23 13L23 14L21 14L21 13L19 13L19 12L18 12L18 11L19 11L19 10L20 10L20 12L21 12L21 10L20 10L20 9L21 9L21 8L22 8L22 7L23 7L23 6L22 6L22 5L20 5L20 7L19 7L19 4L22 4L22 3L20 3L20 1L18 1L18 0L16 0L16 1L15 1L15 0ZM22 0L22 1L21 1L21 2L22 2L22 1L23 1L23 5L26 5L26 4L24 4L24 2L25 2L25 3L26 3L26 2L25 2L25 0ZM17 1L17 2L15 2L15 3L14 3L14 2L11 2L11 3L10 3L10 4L12 4L12 3L14 3L14 6L13 6L13 7L12 7L12 8L14 8L14 6L15 6L15 8L17 8L17 7L18 7L18 8L19 8L19 7L18 7L18 6L17 6L17 7L16 7L16 6L15 6L15 3L17 3L17 4L18 4L18 3L17 3L17 2L18 2L18 1ZM41 1L41 2L40 2L40 3L39 3L39 4L38 4L38 3L37 3L37 2L35 2L35 3L37 3L37 4L36 4L36 6L35 6L35 8L37 8L37 9L38 9L38 11L35 11L35 12L39 12L39 13L38 13L38 14L35 14L35 13L33 13L33 12L34 12L34 11L33 11L33 12L31 12L31 13L29 13L29 8L30 8L30 6L29 6L29 7L28 7L28 6L27 6L27 7L28 7L28 9L27 9L27 8L26 8L26 10L25 10L25 11L26 11L26 14L28 14L28 13L29 13L29 14L31 14L31 13L32 13L32 15L33 15L33 14L34 14L34 15L35 15L35 16L32 16L32 17L31 17L31 16L28 16L28 15L26 15L26 18L29 18L29 17L31 17L31 20L32 20L32 21L31 21L31 22L29 22L29 20L28 20L28 21L25 21L25 22L24 22L24 23L23 23L23 21L22 21L22 20L21 20L21 19L22 19L22 18L23 18L23 20L26 20L26 19L25 19L25 18L23 18L23 17L24 17L24 16L25 16L25 13L24 13L24 14L23 14L23 15L22 15L22 16L19 16L19 17L20 17L20 18L18 18L18 19L17 19L17 18L15 18L15 20L14 20L14 19L13 19L13 21L12 21L12 23L13 23L13 27L12 27L12 26L11 26L11 25L10 25L10 26L11 26L11 28L10 28L10 29L9 29L9 30L10 30L10 29L11 29L11 28L13 28L13 29L14 29L14 28L15 28L15 29L16 29L16 30L11 30L11 31L9 31L9 34L10 34L10 32L12 32L12 31L13 31L13 33L12 33L12 34L11 34L11 35L9 35L9 36L8 36L8 37L5 37L5 35L3 35L3 34L4 34L4 33L3 33L3 32L4 32L4 30L3 30L3 31L2 31L2 33L3 33L3 34L2 34L2 35L3 35L3 36L4 36L4 37L3 37L3 38L8 38L8 39L5 39L5 40L4 40L4 41L3 41L3 40L2 40L2 41L3 41L3 42L2 42L2 43L1 43L1 44L4 44L4 45L2 45L2 46L4 46L4 47L6 47L6 48L7 48L7 47L8 47L8 49L9 49L9 50L7 50L7 49L6 49L6 50L5 50L5 49L3 49L3 50L2 50L2 51L1 51L1 52L2 52L2 53L4 53L4 52L5 52L5 53L6 53L6 54L7 54L7 53L6 53L6 52L7 52L7 51L9 51L9 52L8 52L8 53L9 53L9 52L10 52L10 51L11 51L11 50L12 50L12 47L13 47L13 51L12 51L12 52L13 52L13 51L14 51L14 49L15 49L15 52L14 52L14 55L13 55L13 54L12 54L12 55L11 55L11 56L12 56L12 57L11 57L11 60L10 60L10 61L11 61L11 60L12 60L12 61L13 61L13 59L12 59L12 58L13 58L13 57L15 57L15 59L16 59L16 58L17 58L17 56L19 56L19 55L20 55L20 54L21 54L21 53L22 53L22 55L21 55L21 56L22 56L22 57L23 57L23 56L22 56L22 55L24 55L24 56L25 56L25 57L27 57L27 58L28 58L28 59L25 59L25 60L26 60L26 61L25 61L25 64L26 64L26 61L28 61L28 60L30 60L30 56L33 56L33 55L34 55L34 56L35 56L35 52L36 52L36 51L35 51L35 50L33 50L33 48L38 48L38 50L37 50L37 49L36 49L36 50L37 50L37 53L36 53L36 54L37 54L37 55L36 55L36 56L40 56L40 57L35 57L35 59L36 59L36 58L39 58L39 59L40 59L40 60L38 60L38 59L37 59L37 60L38 60L38 63L37 63L37 62L36 62L36 61L35 61L35 62L32 62L32 63L33 63L33 64L35 64L35 63L36 63L36 64L38 64L38 63L39 63L39 62L40 62L40 61L42 61L42 60L41 60L41 59L40 59L40 58L41 58L41 57L43 57L43 56L44 56L44 55L41 55L41 53L42 53L42 51L43 51L43 50L44 50L44 49L45 49L45 50L47 50L47 51L48 51L48 52L49 52L49 53L48 53L48 54L49 54L49 55L50 55L50 58L48 58L48 59L50 59L50 58L51 58L51 57L52 57L52 58L53 58L53 59L54 59L54 58L53 58L53 57L55 57L55 58L56 58L56 56L58 56L58 55L59 55L59 56L61 56L61 54L59 54L59 53L56 53L56 50L54 50L54 51L52 51L52 52L51 52L51 51L50 51L50 52L49 52L49 51L48 51L48 50L47 50L47 49L45 49L45 48L46 48L46 47L47 47L47 46L49 46L49 45L46 45L46 44L48 44L48 43L49 43L49 42L47 42L47 40L46 40L46 41L45 41L45 40L43 40L43 41L45 41L45 42L44 42L44 45L43 45L43 47L42 47L42 48L40 48L40 47L39 47L39 46L41 46L41 44L40 44L40 43L41 43L41 40L42 40L42 39L40 39L40 40L39 40L39 41L38 41L38 38L41 38L41 36L43 36L43 35L42 35L42 34L40 34L40 33L42 33L42 32L44 32L44 34L46 34L46 35L47 35L47 36L45 36L45 35L44 35L44 37L43 37L43 38L44 38L44 39L45 39L45 38L47 38L47 39L48 39L48 38L47 38L47 36L48 36L48 35L51 35L51 37L50 37L50 36L49 36L49 37L50 37L50 39L51 39L51 37L54 37L54 36L55 36L55 38L53 38L53 40L55 40L55 39L59 39L59 37L60 37L60 35L59 35L59 36L57 36L57 37L56 37L56 36L55 36L55 35L56 35L56 34L55 34L55 35L54 35L54 34L52 34L52 35L51 35L51 33L55 33L55 31L56 31L56 30L60 30L60 29L59 29L59 28L57 28L57 29L56 29L56 28L55 28L55 29L56 29L56 30L54 30L54 28L53 28L53 26L52 26L52 28L51 28L51 25L53 25L53 24L58 24L58 23L60 23L60 24L59 24L59 25L55 25L55 27L56 27L56 26L57 26L57 27L59 27L59 25L60 25L60 24L61 24L61 25L62 25L62 24L63 24L63 23L62 23L62 22L59 22L59 21L60 21L60 20L61 20L61 19L60 19L60 20L59 20L59 21L56 21L56 20L55 20L55 21L56 21L56 23L54 23L54 22L53 22L53 20L54 20L54 19L52 19L52 20L51 20L51 19L50 19L50 18L47 18L47 16L49 16L49 17L50 17L50 15L48 15L48 14L51 14L51 13L54 13L54 11L53 11L53 10L54 10L54 9L53 9L53 7L54 7L54 6L53 6L53 7L52 7L52 8L51 8L51 7L50 7L50 6L49 6L49 4L48 4L48 6L47 6L47 7L46 7L46 6L45 6L45 5L47 5L47 4L45 4L45 2L44 2L44 4L45 4L45 5L44 5L44 6L43 6L43 7L42 7L42 5L41 5L41 2L42 2L42 1ZM48 1L48 2L47 2L47 3L48 3L48 2L49 2L49 1ZM28 3L28 4L29 4L29 3ZM37 4L37 6L36 6L36 7L37 7L37 8L41 8L41 9L42 9L42 10L41 10L41 11L39 11L39 12L43 12L43 13L41 13L41 14L39 14L39 15L40 15L40 16L41 16L41 15L42 15L42 16L43 16L43 17L41 17L41 18L40 18L40 19L39 19L39 18L37 18L37 17L38 17L38 15L36 15L36 16L35 16L35 17L36 17L36 18L35 18L35 19L36 19L36 20L33 20L33 21L32 21L32 24L31 24L31 23L30 23L30 24L29 24L29 23L28 23L28 22L27 22L27 23L26 23L26 24L25 24L25 23L24 23L24 24L23 24L23 23L21 23L21 22L22 22L22 21L21 21L21 22L20 22L20 21L18 21L18 20L17 20L17 21L16 21L16 20L15 20L15 21L16 21L16 22L14 22L14 21L13 21L13 22L14 22L14 23L16 23L16 24L15 24L15 25L14 25L14 26L15 26L15 27L16 27L16 26L15 26L15 25L16 25L16 24L17 24L17 29L20 29L20 28L21 28L21 27L22 27L22 28L23 28L23 29L22 29L22 30L21 30L21 32L23 32L23 37L24 37L24 38L26 38L26 40L25 40L25 39L24 39L24 41L21 41L21 43L20 43L20 41L19 41L19 40L23 40L23 38L22 38L22 39L20 39L20 38L19 38L19 37L22 37L22 36L21 36L21 35L22 35L22 34L20 34L20 33L19 33L19 31L20 31L20 30L19 30L19 31L17 31L17 33L19 33L19 34L18 34L18 35L15 35L15 36L14 36L14 33L15 33L15 32L16 32L16 31L15 31L15 32L14 32L14 33L13 33L13 35L11 35L11 37L12 37L12 38L15 38L15 37L16 37L16 36L18 36L18 37L17 37L17 40L16 40L16 41L17 41L17 43L16 43L16 42L15 42L15 39L13 39L13 40L12 40L12 39L10 39L10 38L9 38L9 39L10 39L10 40L9 40L9 42L3 42L3 43L5 43L5 45L4 45L4 46L6 46L6 47L7 47L7 46L6 46L6 45L7 45L7 44L6 44L6 43L8 43L8 44L9 44L9 45L8 45L8 46L10 46L10 47L9 47L9 48L10 48L10 50L11 50L11 47L12 47L12 46L13 46L13 47L14 47L14 46L15 46L15 47L16 47L16 48L17 48L17 49L19 49L19 52L20 52L20 51L21 51L21 52L22 52L22 53L23 53L23 54L25 54L25 56L26 56L26 55L27 55L27 56L30 56L30 55L33 55L33 54L32 54L32 53L33 53L33 52L35 52L35 51L33 51L33 50L32 50L32 48L33 48L33 46L32 46L32 45L37 45L37 46L35 46L35 47L38 47L38 48L39 48L39 47L38 47L38 45L37 45L37 44L38 44L38 41L37 41L37 40L35 40L35 39L36 39L36 38L38 38L38 37L37 37L37 36L34 36L34 35L35 35L35 34L38 34L38 33L37 33L37 32L35 32L35 31L36 31L36 30L37 30L37 31L39 31L39 32L40 32L40 30L41 30L41 31L42 31L42 30L43 30L43 31L44 31L44 30L43 30L43 29L44 29L44 28L43 28L43 29L42 29L42 30L41 30L41 29L40 29L40 30L38 30L38 29L39 29L39 28L40 28L40 27L38 27L38 25L39 25L39 26L41 26L41 27L42 27L42 26L43 26L43 27L44 27L44 23L45 23L45 25L46 25L46 24L47 24L47 25L48 25L48 26L50 26L50 25L49 25L49 23L47 23L47 22L48 22L48 21L49 21L49 22L50 22L50 21L49 21L49 19L48 19L48 20L47 20L47 18L46 18L46 17L45 17L45 18L44 18L44 16L45 16L45 15L46 15L46 14L45 14L45 13L50 13L50 11L51 11L51 12L52 12L52 10L53 10L53 9L52 9L52 10L50 10L50 9L51 9L51 8L50 8L50 7L49 7L49 6L48 6L48 8L45 8L45 6L44 6L44 8L42 8L42 7L41 7L41 5L40 5L40 4L39 4L39 5L40 5L40 7L39 7L39 6L38 6L38 4ZM31 5L31 8L34 8L34 5ZM21 6L21 7L22 7L22 6ZM32 6L32 7L33 7L33 6ZM37 6L37 7L38 7L38 6ZM56 6L56 8L57 8L57 9L58 9L58 8L57 8L57 6ZM10 7L10 8L11 8L11 7ZM44 8L44 10L42 10L42 11L43 11L43 12L44 12L44 13L45 13L45 12L49 12L49 9L45 9L45 8ZM8 9L8 11L9 11L9 14L8 14L8 12L7 12L7 11L6 11L6 12L7 12L7 13L5 13L5 12L4 12L4 11L3 11L3 10L2 10L2 11L3 11L3 12L4 12L4 13L5 13L5 14L4 14L4 15L5 15L5 16L7 16L7 15L8 15L8 16L9 16L9 14L11 14L11 15L13 15L13 17L17 17L17 16L18 16L18 15L17 15L17 16L15 16L15 15L16 15L16 14L17 14L17 12L16 12L16 10L17 10L17 11L18 11L18 10L17 10L17 9L16 9L16 10L15 10L15 9L13 9L13 10L10 10L10 11L9 11L9 9ZM32 9L32 10L31 10L31 11L32 11L32 10L36 10L36 9ZM39 9L39 10L40 10L40 9ZM61 9L61 11L62 11L62 9ZM26 10L26 11L27 11L27 13L28 13L28 11L27 11L27 10ZM45 10L45 11L47 11L47 10ZM11 11L11 14L13 14L13 15L14 15L14 13L12 13L12 11ZM14 11L14 12L15 12L15 11ZM2 13L2 14L3 14L3 13ZM61 13L61 15L60 15L60 16L61 16L61 15L62 15L62 13ZM64 13L64 14L65 14L65 13ZM6 14L6 15L7 15L7 14ZM19 14L19 15L20 15L20 14ZM57 14L57 15L58 15L58 14ZM0 15L0 16L1 16L1 15ZM23 15L23 16L24 16L24 15ZM43 15L43 16L44 16L44 15ZM57 16L57 17L58 17L58 16ZM6 17L6 18L7 18L7 17ZM32 17L32 18L33 18L33 19L34 19L34 18L33 18L33 17ZM64 17L64 18L65 18L65 17ZM41 18L41 19L40 19L40 20L39 20L39 21L38 21L38 19L37 19L37 21L38 21L38 22L35 22L35 21L33 21L33 22L35 22L35 24L37 24L37 25L38 25L38 24L39 24L39 25L41 25L41 26L42 26L42 24L43 24L43 23L44 23L44 22L47 22L47 20L46 20L46 18L45 18L45 19L44 19L44 22L42 22L42 21L41 21L41 19L43 19L43 18ZM0 19L0 20L1 20L1 19ZM11 19L11 20L12 20L12 19ZM19 19L19 20L20 20L20 19ZM45 20L45 21L46 21L46 20ZM63 20L63 21L65 21L65 20ZM5 21L5 22L4 22L4 23L5 23L5 22L7 22L7 21ZM17 21L17 22L18 22L18 21ZM51 21L51 24L53 24L53 23L52 23L52 21ZM19 22L19 23L17 23L17 24L19 24L19 25L20 25L20 26L19 26L19 28L20 28L20 27L21 27L21 25L23 25L23 26L22 26L22 27L23 27L23 26L24 26L24 27L25 27L25 29L27 29L27 28L26 28L26 27L27 27L27 26L26 26L26 25L28 25L28 31L27 31L27 32L26 32L26 30L25 30L25 32L24 32L24 31L23 31L23 32L24 32L24 33L25 33L25 32L26 32L26 34L25 34L25 35L24 35L24 37L26 37L26 38L27 38L27 39L28 39L28 40L26 40L26 41L25 41L25 42L23 42L23 44L19 44L19 45L21 45L21 47L22 47L22 48L20 48L20 50L21 50L21 51L22 51L22 50L21 50L21 49L24 49L24 48L25 48L25 46L26 46L26 47L28 47L28 49L27 49L27 48L26 48L26 50L30 50L30 48L32 48L32 46L31 46L31 45L32 45L32 44L29 44L29 43L28 43L28 45L27 45L27 44L26 44L26 43L27 43L27 41L28 41L28 42L30 42L30 43L32 43L32 42L33 42L33 43L34 43L34 44L37 44L37 43L36 43L36 41L35 41L35 42L33 42L33 41L34 41L34 39L35 39L35 37L33 37L33 35L32 35L32 39L33 39L33 40L31 40L31 39L28 39L28 38L31 38L31 37L29 37L29 36L31 36L31 35L29 35L29 36L28 36L28 35L27 35L27 34L30 34L30 31L29 31L29 29L30 29L30 30L36 30L36 29L33 29L33 27L31 27L31 24L30 24L30 25L28 25L28 24L26 24L26 25L25 25L25 24L24 24L24 25L23 25L23 24L21 24L21 23L20 23L20 22ZM38 22L38 23L39 23L39 24L41 24L41 23L42 23L42 22ZM33 23L33 24L32 24L32 25L33 25L33 26L35 26L35 27L34 27L34 28L36 28L36 27L37 27L37 29L38 29L38 27L37 27L37 26L36 26L36 25L34 25L34 23ZM61 23L61 24L62 24L62 23ZM4 24L4 25L5 25L5 24ZM0 25L0 26L1 26L1 25ZM24 25L24 26L25 26L25 25ZM6 26L6 27L7 27L7 26ZM45 26L45 29L48 29L48 30L49 30L49 31L47 31L47 34L50 34L50 33L49 33L49 31L50 31L50 32L52 32L52 31L54 31L54 30L52 30L52 29L51 29L51 30L49 30L49 28L50 28L50 27L49 27L49 28L46 28L46 26ZM60 26L60 28L61 28L61 29L63 29L63 27L62 27L62 28L61 28L61 26ZM29 27L29 28L31 28L31 29L32 29L32 28L31 28L31 27ZM6 29L6 30L8 30L8 29ZM23 29L23 30L24 30L24 29ZM45 30L45 32L46 32L46 30ZM61 30L61 31L62 31L62 32L61 32L61 35L62 35L62 36L63 36L63 35L62 35L62 32L63 32L63 31L62 31L62 30ZM5 31L5 34L8 34L8 31ZM31 31L31 34L34 34L34 31ZM57 31L57 34L60 34L60 31ZM6 32L6 33L7 33L7 32ZM27 32L27 33L29 33L29 32ZM32 32L32 33L33 33L33 32ZM58 32L58 33L59 33L59 32ZM19 34L19 36L20 36L20 34ZM6 35L6 36L7 36L7 35ZM25 35L25 36L26 36L26 35ZM38 35L38 36L41 36L41 35ZM53 35L53 36L54 36L54 35ZM9 36L9 37L10 37L10 36ZM12 36L12 37L14 37L14 36ZM27 36L27 37L28 37L28 36ZM44 37L44 38L45 38L45 37ZM57 37L57 38L58 38L58 37ZM33 38L33 39L34 39L34 38ZM18 39L18 40L19 40L19 39ZM63 39L63 41L64 41L64 42L65 42L65 40L64 40L64 39ZM6 40L6 41L7 41L7 40ZM10 40L10 41L11 41L11 42L9 42L9 44L10 44L10 45L11 45L11 46L12 46L12 45L11 45L11 42L12 42L12 40ZM13 40L13 41L14 41L14 40ZM28 40L28 41L30 41L30 42L32 42L32 41L31 41L31 40ZM13 42L13 43L15 43L15 44L14 44L14 45L15 45L15 46L16 46L16 45L17 45L17 48L19 48L19 47L20 47L20 46L18 46L18 45L17 45L17 44L18 44L18 43L19 43L19 42L18 42L18 43L17 43L17 44L16 44L16 43L15 43L15 42ZM39 42L39 43L40 43L40 42ZM45 43L45 44L46 44L46 43ZM52 43L52 44L55 44L55 43ZM56 43L56 45L57 45L57 46L58 46L58 45L57 45L57 44L58 44L58 43ZM64 43L64 44L65 44L65 43ZM15 44L15 45L16 45L16 44ZM24 44L24 45L23 45L23 46L24 46L24 45L26 45L26 46L27 46L27 45L26 45L26 44ZM44 45L44 46L45 46L45 45ZM28 46L28 47L29 47L29 46ZM52 46L52 47L51 47L51 48L52 48L52 49L50 49L50 48L49 48L49 47L48 47L48 48L49 48L49 49L50 49L50 50L52 50L52 49L57 49L57 48L56 48L56 47L54 47L54 48L52 48L52 47L53 47L53 46ZM23 47L23 48L24 48L24 47ZM44 47L44 48L43 48L43 49L40 49L40 50L38 50L38 51L39 51L39 52L38 52L38 53L37 53L37 54L38 54L38 53L39 53L39 54L40 54L40 53L39 53L39 52L40 52L40 50L41 50L41 51L42 51L42 50L43 50L43 49L44 49L44 48L45 48L45 47ZM63 48L63 49L64 49L64 50L65 50L65 49L64 49L64 48ZM59 49L59 50L57 50L57 51L58 51L58 52L60 52L60 51L59 51L59 50L60 50L60 49ZM4 50L4 51L3 51L3 52L4 52L4 51L5 51L5 52L6 52L6 51L7 51L7 50L6 50L6 51L5 51L5 50ZM17 50L17 51L16 51L16 52L15 52L15 53L18 53L18 54L20 54L20 53L18 53L18 52L17 52L17 51L18 51L18 50ZM24 50L24 51L23 51L23 53L25 53L25 54L28 54L28 55L29 55L29 54L31 54L31 53L32 53L32 52L31 52L31 53L30 53L30 52L29 52L29 51L28 51L28 52L27 52L27 53L25 53L25 52L26 52L26 51L25 51L25 50ZM54 51L54 52L53 52L53 55L51 55L51 56L53 56L53 55L54 55L54 56L56 56L56 55L58 55L58 54L55 54L55 51ZM61 52L61 53L62 53L62 52ZM10 53L10 54L11 54L11 53ZM49 53L49 54L50 54L50 53ZM16 54L16 55L14 55L14 56L15 56L15 57L16 57L16 55L17 55L17 54ZM9 55L9 56L10 56L10 55ZM12 55L12 56L13 56L13 55ZM40 55L40 56L41 56L41 55ZM6 56L6 57L7 57L7 56ZM9 57L9 58L10 58L10 57ZM31 57L31 60L34 60L34 57ZM57 57L57 60L60 60L60 57ZM61 57L61 58L62 58L62 57ZM32 58L32 59L33 59L33 58ZM58 58L58 59L59 59L59 58ZM17 60L17 62L18 62L18 61L20 61L20 60ZM23 61L23 62L22 62L22 63L23 63L23 62L24 62L24 61ZM19 62L19 63L18 63L18 64L16 64L16 63L15 63L15 65L21 65L21 64L19 64L19 63L20 63L20 62ZM62 62L62 63L61 63L61 64L63 64L63 62ZM47 63L47 64L48 64L48 63ZM50 63L50 65L51 65L51 64L53 64L53 63ZM12 64L12 65L13 65L13 64ZM43 64L43 65L44 65L44 64ZM56 64L56 65L58 65L58 64ZM0 0L0 7L7 7L7 0ZM1 1L1 6L6 6L6 1ZM2 2L2 5L5 5L5 2ZM58 0L58 7L65 7L65 0ZM59 1L59 6L64 6L64 1ZM60 2L60 5L63 5L63 2ZM0 58L0 65L7 65L7 58ZM1 59L1 64L6 64L6 59ZM2 60L2 63L5 63L5 60Z" fill="#000000"/></g></g></svg>
