<?xml version="1.0" encoding="UTF-8"?>
<svg xmlns="http://www.w3.org/2000/svg" version="1.1" width="300" height="300" viewBox="0 0 300 300"><rect x="0" y="0" width="300" height="300" fill="#ffffff"/><g transform="scale(4.348)"><g transform="translate(0,0)"><path fill-rule="evenodd" d="M9 0L9 1L8 1L8 2L9 2L9 3L8 3L8 4L9 4L9 5L8 5L8 7L9 7L9 8L6 8L6 9L5 9L5 8L0 8L0 10L1 10L1 9L3 9L3 11L2 11L2 14L0 14L0 15L2 15L2 16L1 16L1 17L0 17L0 18L1 18L1 19L3 19L3 20L1 20L1 21L3 21L3 22L0 22L0 23L1 23L1 24L0 24L0 26L2 26L2 25L3 25L3 26L4 26L4 28L6 28L6 29L5 29L5 30L6 30L6 31L7 31L7 32L5 32L5 31L4 31L4 32L3 32L3 31L2 31L2 32L1 32L1 30L4 30L4 29L0 29L0 34L1 34L1 35L0 35L0 36L1 36L1 37L0 37L0 38L1 38L1 40L0 40L0 41L1 41L1 44L0 44L0 45L1 45L1 44L2 44L2 45L7 45L7 46L5 46L5 48L4 48L4 47L3 47L3 48L2 48L2 47L1 47L1 46L0 46L0 50L1 50L1 51L2 51L2 50L1 50L1 49L5 49L5 53L4 53L4 52L3 52L3 53L2 53L2 54L1 54L1 52L0 52L0 61L1 61L1 57L2 57L2 59L3 59L3 58L4 58L4 59L7 59L7 60L6 60L6 61L7 61L7 60L8 60L8 63L11 63L11 62L9 62L9 61L10 61L10 60L9 60L9 59L7 59L7 58L6 58L6 57L7 57L7 56L5 56L5 53L9 53L9 55L8 55L8 58L10 58L10 57L9 57L9 56L11 56L11 55L13 55L13 56L12 56L12 57L11 57L11 60L12 60L12 59L13 59L13 63L12 63L12 64L8 64L8 69L11 69L11 68L14 68L14 69L15 69L15 67L12 67L12 66L13 66L13 65L14 65L14 64L13 64L13 63L14 63L14 61L16 61L16 60L17 60L17 62L18 62L18 63L16 63L16 62L15 62L15 64L18 64L18 65L17 65L17 66L16 66L16 67L17 67L17 69L22 69L22 68L19 68L19 67L20 67L20 66L19 66L19 65L20 65L20 64L19 64L19 63L22 63L22 64L23 64L23 63L24 63L24 62L25 62L25 63L26 63L26 64L24 64L24 65L21 65L21 67L23 67L23 66L25 66L25 67L24 67L24 68L23 68L23 69L26 69L26 68L25 68L25 67L26 67L26 66L25 66L25 65L28 65L28 66L27 66L27 67L28 67L28 68L27 68L27 69L28 69L28 68L29 68L29 69L32 69L32 67L33 67L33 65L35 65L35 66L36 66L36 65L38 65L38 61L39 61L39 62L40 62L40 59L41 59L41 58L42 58L42 60L41 60L41 62L42 62L42 63L43 63L43 62L45 62L45 61L47 61L47 62L46 62L46 63L47 63L47 65L49 65L49 66L50 66L50 67L48 67L48 66L46 66L46 64L45 64L45 63L44 63L44 64L41 64L41 63L39 63L39 64L41 64L41 66L40 66L40 67L39 67L39 66L37 66L37 67L35 67L35 68L36 68L36 69L38 69L38 68L37 68L37 67L39 67L39 68L41 68L41 69L44 69L44 68L47 68L47 69L49 69L49 68L50 68L50 69L51 69L51 67L52 67L52 66L50 66L50 65L51 65L51 63L47 63L47 62L50 62L50 60L53 60L53 62L55 62L55 63L54 63L54 64L53 64L53 66L55 66L55 67L56 67L56 68L55 68L55 69L56 69L56 68L57 68L57 69L58 69L58 68L57 68L57 67L59 67L59 68L60 68L60 67L61 67L61 69L62 69L62 67L63 67L63 69L68 69L68 68L67 68L67 67L64 67L64 66L65 66L65 64L67 64L67 63L68 63L68 64L69 64L69 63L68 63L68 62L67 62L67 61L68 61L68 60L67 60L67 59L68 59L68 56L67 56L67 55L68 55L68 54L69 54L69 53L68 53L68 54L67 54L67 55L63 55L63 56L62 56L62 58L61 58L61 56L60 56L60 55L62 55L62 54L63 54L63 53L64 53L64 52L65 52L65 54L66 54L66 53L67 53L67 52L68 52L68 50L69 50L69 49L68 49L68 48L69 48L69 47L68 47L68 46L67 46L67 44L68 44L68 45L69 45L69 44L68 44L68 42L69 42L69 40L68 40L68 36L69 36L69 35L68 35L68 34L69 34L69 33L68 33L68 32L69 32L69 31L68 31L68 32L67 32L67 31L64 31L64 32L63 32L63 31L60 31L60 30L62 30L62 29L61 29L61 28L62 28L62 27L63 27L63 28L64 28L64 27L65 27L65 29L64 29L64 30L65 30L65 29L66 29L66 28L67 28L67 30L69 30L69 27L68 27L68 25L69 25L69 23L68 23L68 22L69 22L69 21L68 21L68 18L69 18L69 17L68 17L68 16L69 16L69 15L68 15L68 14L69 14L69 11L68 11L68 10L66 10L66 8L65 8L65 9L64 9L64 8L63 8L63 10L62 10L62 8L60 8L60 9L59 9L59 10L58 10L58 8L57 8L57 5L58 5L58 7L59 7L59 4L52 4L52 5L51 5L51 6L50 6L50 3L52 3L52 1L53 1L53 2L54 2L54 1L55 1L55 3L59 3L59 2L58 2L58 1L61 1L61 0L58 0L58 1L55 1L55 0L54 0L54 1L53 1L53 0L52 0L52 1L51 1L51 2L50 2L50 0L47 0L47 1L45 1L45 0L44 0L44 1L45 1L45 2L44 2L44 3L43 3L43 4L39 4L39 5L41 5L41 6L40 6L40 7L39 7L39 6L38 6L38 5L37 5L37 4L38 4L38 3L36 3L36 2L41 2L41 3L42 3L42 2L43 2L43 0L41 0L41 1L37 1L37 0L36 0L36 1L35 1L35 3L36 3L36 4L33 4L33 3L32 3L32 2L34 2L34 0L33 0L33 1L32 1L32 0L31 0L31 1L29 1L29 0L28 0L28 1L27 1L27 2L26 2L26 3L25 3L25 4L24 4L24 3L23 3L23 4L22 4L22 3L20 3L20 4L19 4L19 2L20 2L20 1L19 1L19 0L17 0L17 1L18 1L18 2L17 2L17 3L16 3L16 4L15 4L15 5L17 5L17 4L18 4L18 5L20 5L20 7L19 7L19 6L18 6L18 7L17 7L17 6L16 6L16 7L15 7L15 6L14 6L14 7L15 7L15 8L13 8L13 6L12 6L12 5L13 5L13 4L14 4L14 2L16 2L16 1L13 1L13 0L11 0L11 1L13 1L13 2L11 2L11 3L10 3L10 2L9 2L9 1L10 1L10 0ZM23 0L23 1L22 1L22 2L25 2L25 0ZM31 1L31 2L32 2L32 1ZM41 1L41 2L42 2L42 1ZM27 2L27 3L26 3L26 6L25 6L25 5L24 5L24 4L23 4L23 5L22 5L22 4L20 4L20 5L22 5L22 6L21 6L21 7L20 7L20 10L19 10L19 9L18 9L18 8L16 8L16 11L19 11L19 12L21 12L21 13L19 13L19 14L18 14L18 15L17 15L17 12L16 12L16 14L15 14L15 15L17 15L17 16L18 16L18 17L16 17L16 16L15 16L15 17L11 17L11 15L14 15L14 14L13 14L13 13L15 13L15 12L13 12L13 11L14 11L14 10L13 10L13 11L12 11L12 12L11 12L11 11L10 11L10 10L11 10L11 7L12 7L12 6L11 6L11 7L10 7L10 6L9 6L9 7L10 7L10 9L8 9L8 10L7 10L7 9L6 9L6 10L5 10L5 9L4 9L4 10L5 10L5 13L4 13L4 11L3 11L3 16L4 16L4 17L5 17L5 18L7 18L7 17L8 17L8 16L7 16L7 15L4 15L4 14L5 14L5 13L6 13L6 14L9 14L9 13L6 13L6 12L8 12L8 10L9 10L9 12L11 12L11 13L12 13L12 14L11 14L11 15L10 15L10 17L11 17L11 18L8 18L8 19L6 19L6 20L5 20L5 19L4 19L4 18L3 18L3 19L4 19L4 20L3 20L3 21L4 21L4 22L3 22L3 24L5 24L5 25L4 25L4 26L5 26L5 27L6 27L6 28L7 28L7 29L6 29L6 30L7 30L7 31L9 31L9 33L11 33L11 32L10 32L10 31L13 31L13 32L12 32L12 34L13 34L13 35L12 35L12 37L13 37L13 35L14 35L14 36L16 36L16 35L17 35L17 33L18 33L18 32L17 32L17 31L18 31L18 30L19 30L19 29L18 29L18 28L17 28L17 29L14 29L14 28L16 28L16 27L14 27L14 28L13 28L13 23L12 23L12 24L11 24L11 23L6 23L6 22L7 22L7 21L6 21L6 20L8 20L8 21L11 21L11 22L13 22L13 21L15 21L15 24L14 24L14 26L16 26L16 25L17 25L17 24L19 24L19 23L20 23L20 26L19 26L19 25L18 25L18 26L17 26L17 27L22 27L22 26L24 26L24 25L22 25L22 24L21 24L21 23L22 23L22 22L23 22L23 23L24 23L24 22L23 22L23 21L27 21L27 22L25 22L25 23L26 23L26 24L25 24L25 25L27 25L27 27L28 27L28 28L26 28L26 26L25 26L25 28L24 28L24 27L23 27L23 28L20 28L20 30L21 30L21 29L22 29L22 31L20 31L20 33L19 33L19 34L20 34L20 35L18 35L18 36L20 36L20 38L19 38L19 39L18 39L18 37L15 37L15 40L14 40L14 41L13 41L13 38L11 38L11 39L12 39L12 40L10 40L10 36L11 36L11 34L9 34L9 35L10 35L10 36L9 36L9 38L8 38L8 37L6 37L6 38L8 38L8 39L5 39L5 38L3 38L3 39L2 39L2 40L1 40L1 41L2 41L2 40L3 40L3 41L4 41L4 44L5 44L5 43L6 43L6 44L7 44L7 45L9 45L9 47L8 47L8 48L7 48L7 47L6 47L6 48L7 48L7 49L6 49L6 50L7 50L7 51L6 51L6 52L9 52L9 53L10 53L10 55L11 55L11 54L14 54L14 55L15 55L15 56L16 56L16 57L15 57L15 58L16 58L16 57L17 57L17 55L18 55L18 56L19 56L19 57L20 57L20 62L22 62L22 63L23 63L23 62L24 62L24 61L25 61L25 62L26 62L26 61L27 61L27 64L28 64L28 65L29 65L29 66L30 66L30 65L29 65L29 64L31 64L31 63L32 63L32 61L31 61L31 63L30 63L30 61L29 61L29 60L27 60L27 58L29 58L29 57L30 57L30 56L29 56L29 55L30 55L30 53L28 53L28 52L29 52L29 44L30 44L30 41L34 41L34 42L33 42L33 43L36 43L36 42L35 42L35 41L36 41L36 40L35 40L35 39L37 39L37 38L38 38L38 40L37 40L37 41L38 41L38 42L37 42L37 44L33 44L33 45L32 45L32 42L31 42L31 47L30 47L30 48L31 48L31 49L32 49L32 48L33 48L33 50L34 50L34 51L32 51L32 50L30 50L30 51L31 51L31 52L34 52L34 53L33 53L33 54L32 54L32 53L31 53L31 60L32 60L32 56L33 56L33 57L34 57L34 58L37 58L37 61L38 61L38 60L39 60L39 59L38 59L38 58L39 58L39 57L41 57L41 56L39 56L39 55L41 55L41 53L42 53L42 52L44 52L44 53L43 53L43 54L42 54L42 55L43 55L43 56L42 56L42 57L43 57L43 59L44 59L44 61L45 61L45 58L46 58L46 59L47 59L47 60L49 60L49 59L50 59L50 58L52 58L52 57L53 57L53 58L54 58L54 59L53 59L53 60L54 60L54 61L55 61L55 60L56 60L56 65L57 65L57 66L60 66L60 65L59 65L59 63L60 63L60 62L59 62L59 61L60 61L60 60L65 60L65 61L66 61L66 60L65 60L65 56L63 56L63 58L62 58L62 59L60 59L60 58L59 58L59 57L60 57L60 56L59 56L59 55L60 55L60 54L62 54L62 53L63 53L63 52L62 52L62 51L63 51L63 50L65 50L65 51L66 51L66 50L67 50L67 48L68 48L68 47L67 47L67 48L65 48L65 47L66 47L66 44L65 44L65 43L63 43L63 42L65 42L65 41L67 41L67 42L66 42L66 43L67 43L67 42L68 42L68 40L65 40L65 41L63 41L63 39L65 39L65 38L66 38L66 37L67 37L67 36L68 36L68 35L67 35L67 34L68 34L68 33L67 33L67 32L66 32L66 33L67 33L67 34L66 34L66 35L67 35L67 36L66 36L66 37L64 37L64 38L63 38L63 37L62 37L62 40L61 40L61 39L60 39L60 40L59 40L59 38L60 38L60 35L58 35L58 34L59 34L59 33L58 33L58 32L55 32L55 31L52 31L52 30L53 30L53 28L52 28L52 27L53 27L53 26L54 26L54 27L55 27L55 28L56 28L56 29L57 29L57 30L56 30L56 31L58 31L58 30L59 30L59 29L60 29L60 28L59 28L59 29L57 29L57 28L58 28L58 27L59 27L59 25L60 25L60 23L61 23L61 25L62 25L62 26L63 26L63 27L64 27L64 26L66 26L66 25L65 25L65 23L64 23L64 24L63 24L63 21L64 21L64 22L65 22L65 21L66 21L66 22L68 22L68 21L66 21L66 20L65 20L65 19L67 19L67 18L66 18L66 16L65 16L65 15L64 15L64 14L63 14L63 13L65 13L65 14L68 14L68 11L67 11L67 13L65 13L65 10L63 10L63 12L62 12L62 14L61 14L61 15L59 15L59 13L57 13L57 12L56 12L56 10L57 10L57 11L58 11L58 10L57 10L57 8L56 8L56 10L55 10L55 12L56 12L56 13L55 13L55 14L56 14L56 15L55 15L55 16L56 16L56 18L52 18L52 19L54 19L54 20L51 20L51 17L54 17L54 14L53 14L53 12L52 12L52 11L53 11L53 9L55 9L55 7L56 7L56 5L55 5L55 7L54 7L54 5L53 5L53 8L50 8L50 11L51 11L51 12L52 12L52 13L50 13L50 12L49 12L49 10L47 10L47 7L48 7L48 6L49 6L49 7L50 7L50 6L49 6L49 4L47 4L47 3L48 3L48 2L45 2L45 3L44 3L44 5L43 5L43 7L42 7L42 6L41 6L41 7L40 7L40 8L39 8L39 7L38 7L38 6L37 6L37 7L38 7L38 9L37 9L37 10L36 10L36 9L33 9L33 10L32 10L32 8L31 8L31 7L32 7L32 5L30 5L30 4L27 4L27 3L28 3L28 2ZM29 2L29 3L30 3L30 2ZM49 2L49 3L50 3L50 2ZM11 3L11 5L12 5L12 3ZM31 3L31 4L32 4L32 3ZM45 3L45 4L46 4L46 3ZM60 3L60 5L61 5L61 3ZM23 5L23 6L22 6L22 7L23 7L23 6L24 6L24 9L23 9L23 10L24 10L24 9L25 9L25 10L26 10L26 8L27 8L27 6L28 6L28 7L29 7L29 6L30 6L30 7L31 7L31 6L30 6L30 5L29 5L29 6L28 6L28 5L27 5L27 6L26 6L26 7L25 7L25 6L24 6L24 5ZM33 5L33 8L36 8L36 5ZM44 5L44 7L45 7L45 9L44 9L44 8L43 8L43 9L40 9L40 10L37 10L37 11L38 11L38 13L39 13L39 14L35 14L35 15L36 15L36 16L35 16L35 18L36 18L36 19L35 19L35 20L32 20L32 18L33 18L33 16L34 16L34 15L33 15L33 16L32 16L32 15L30 15L30 16L29 16L29 17L31 17L31 18L29 18L29 22L27 22L27 25L28 25L28 24L30 24L30 25L29 25L29 27L30 27L30 28L29 28L29 30L26 30L26 28L25 28L25 29L23 29L23 30L25 30L25 31L26 31L26 32L25 32L25 33L24 33L24 32L23 32L23 34L22 34L22 33L21 33L21 36L24 36L24 37L23 37L23 38L24 38L24 39L25 39L25 40L24 40L24 41L23 41L23 42L20 42L20 41L22 41L22 40L21 40L21 39L22 39L22 38L20 38L20 41L19 41L19 40L18 40L18 39L17 39L17 38L16 38L16 40L18 40L18 41L17 41L17 42L18 42L18 43L19 43L19 44L17 44L17 45L18 45L18 46L17 46L17 47L16 47L16 48L13 48L13 49L12 49L12 48L11 48L11 49L10 49L10 47L9 47L9 48L8 48L8 51L10 51L10 53L12 53L12 52L15 52L15 53L16 53L16 52L15 52L15 51L16 51L16 50L15 50L15 49L16 49L16 48L17 48L17 49L18 49L18 50L17 50L17 53L18 53L18 55L19 55L19 56L20 56L20 57L21 57L21 59L24 59L24 60L23 60L23 61L22 61L22 60L21 60L21 61L22 61L22 62L23 62L23 61L24 61L24 60L25 60L25 61L26 61L26 60L25 60L25 59L26 59L26 56L27 56L27 57L28 57L28 56L27 56L27 53L26 53L26 52L25 52L25 53L23 53L23 54L22 54L22 55L21 55L21 56L20 56L20 55L19 55L19 54L20 54L20 52L22 52L22 51L21 51L21 50L22 50L22 49L18 49L18 48L17 48L17 47L18 47L18 46L20 46L20 47L21 47L21 48L24 48L24 49L23 49L23 50L25 50L25 51L26 51L26 49L25 49L25 48L26 48L26 47L25 47L25 46L26 46L26 43L28 43L28 44L29 44L29 43L28 43L28 41L30 41L30 40L29 40L29 39L30 39L30 38L31 38L31 35L32 35L32 39L31 39L31 40L32 40L32 39L33 39L33 40L34 40L34 39L35 39L35 38L36 38L36 37L38 37L38 36L37 36L37 35L39 35L39 34L38 34L38 33L39 33L39 32L43 32L43 33L40 33L40 36L41 36L41 34L43 34L43 33L44 33L44 36L43 36L43 35L42 35L42 36L43 36L43 37L41 37L41 38L43 38L43 39L45 39L45 40L47 40L47 42L46 42L46 43L45 43L45 42L44 42L44 40L41 40L41 39L40 39L40 37L39 37L39 40L38 40L38 41L39 41L39 40L41 40L41 41L40 41L40 43L39 43L39 42L38 42L38 44L37 44L37 45L33 45L33 46L32 46L32 47L33 47L33 46L34 46L34 48L36 48L36 47L37 47L37 46L38 46L38 44L40 44L40 45L39 45L39 46L40 46L40 47L38 47L38 49L37 49L37 50L36 50L36 49L35 49L35 50L36 50L36 51L35 51L35 53L36 53L36 54L33 54L33 56L34 56L34 55L35 55L35 56L37 56L37 54L40 54L40 52L41 52L41 50L42 50L42 51L44 51L44 52L45 52L45 53L44 53L44 56L43 56L43 57L44 57L44 56L46 56L46 57L48 57L48 58L47 58L47 59L49 59L49 58L50 58L50 57L51 57L51 56L53 56L53 57L54 57L54 58L56 58L56 59L57 59L57 60L58 60L58 61L57 61L57 62L58 62L58 63L59 63L59 62L58 62L58 61L59 61L59 60L60 60L60 59L59 59L59 60L58 60L58 58L57 58L57 57L59 57L59 56L57 56L57 55L56 55L56 54L55 54L55 53L56 53L56 52L55 52L55 53L54 53L54 52L53 52L53 51L56 51L56 50L55 50L55 49L56 49L56 48L57 48L57 49L58 49L58 47L59 47L59 46L57 46L57 45L59 45L59 43L61 43L61 44L60 44L60 45L61 45L61 47L62 47L62 48L60 48L60 49L59 49L59 50L57 50L57 52L58 52L58 51L59 51L59 52L60 52L60 53L59 53L59 54L60 54L60 53L61 53L61 52L60 52L60 51L62 51L62 50L63 50L63 48L64 48L64 47L62 47L62 45L61 45L61 44L63 44L63 45L64 45L64 44L63 44L63 43L62 43L62 41L61 41L61 42L60 42L60 41L59 41L59 42L58 42L58 43L57 43L57 45L56 45L56 44L55 44L55 43L53 43L53 42L56 42L56 39L57 39L57 38L56 38L56 36L55 36L55 37L51 37L51 39L50 39L50 40L51 40L51 41L52 41L52 43L50 43L50 41L49 41L49 38L50 38L50 37L49 37L49 36L50 36L50 35L48 35L48 36L45 36L45 33L48 33L48 34L50 34L50 33L49 33L49 30L50 30L50 29L51 29L51 27L52 27L52 26L53 26L53 25L52 25L52 26L51 26L51 27L50 27L50 25L51 25L51 23L53 23L53 24L55 24L55 25L54 25L54 26L55 26L55 27L56 27L56 26L57 26L57 27L58 27L58 26L57 26L57 25L58 25L58 23L59 23L59 22L61 22L61 23L62 23L62 21L60 21L60 20L61 20L61 19L60 19L60 20L57 20L57 19L58 19L58 18L57 18L57 19L56 19L56 20L55 20L55 21L51 21L51 23L50 23L50 20L49 20L49 19L50 19L50 15L53 15L53 14L50 14L50 13L49 13L49 12L47 12L47 11L44 11L44 12L43 12L43 13L42 13L42 14L41 14L41 12L42 12L42 10L45 10L45 9L46 9L46 7L47 7L47 6L46 6L46 5ZM34 6L34 7L35 7L35 6ZM45 6L45 7L46 7L46 6ZM51 6L51 7L52 7L52 6ZM60 6L60 7L61 7L61 6ZM21 8L21 9L22 9L22 8ZM29 8L29 9L30 9L30 11L29 11L29 10L27 10L27 11L25 11L25 12L24 12L24 11L23 11L23 12L24 12L24 13L23 13L23 14L27 14L27 15L29 15L29 14L27 14L27 13L26 13L26 12L29 12L29 13L32 13L32 12L31 12L31 11L32 11L32 10L31 10L31 9L30 9L30 8ZM67 8L67 9L68 9L68 8ZM17 9L17 10L18 10L18 9ZM6 10L6 11L7 11L7 10ZM20 10L20 11L22 11L22 10ZM33 10L33 11L34 11L34 10ZM35 10L35 11L36 11L36 10ZM40 10L40 12L39 12L39 13L40 13L40 12L41 12L41 10ZM59 10L59 12L60 12L60 13L61 13L61 10ZM0 12L0 13L1 13L1 12ZM12 12L12 13L13 13L13 12ZM33 12L33 14L34 14L34 13L36 13L36 12ZM44 12L44 13L43 13L43 14L42 14L42 15L40 15L40 14L39 14L39 15L37 15L37 16L38 16L38 18L37 18L37 17L36 17L36 18L37 18L37 19L36 19L36 20L37 20L37 21L38 21L38 20L37 20L37 19L39 19L39 22L37 22L37 23L35 23L35 21L32 21L32 20L31 20L31 21L30 21L30 22L29 22L29 23L30 23L30 22L31 22L31 21L32 21L32 24L31 24L31 25L33 25L33 24L34 24L34 25L36 25L36 24L37 24L37 23L38 23L38 26L37 26L37 30L40 30L40 31L43 31L43 32L44 32L44 33L45 33L45 32L44 32L44 31L46 31L46 32L48 32L48 31L47 31L47 28L49 28L49 29L48 29L48 30L49 30L49 29L50 29L50 27L47 27L47 25L48 25L48 24L49 24L49 25L50 25L50 23L48 23L48 24L47 24L47 22L49 22L49 21L46 21L46 20L47 20L47 15L49 15L49 14L47 14L47 13L45 13L45 12ZM21 13L21 14L20 14L20 16L21 16L21 17L18 17L18 18L17 18L17 19L15 19L15 20L17 20L17 21L16 21L16 22L18 22L18 23L19 23L19 22L20 22L20 20L21 20L21 19L22 19L22 20L26 20L26 17L24 17L24 16L23 16L23 15L21 15L21 14L22 14L22 13ZM56 13L56 14L57 14L57 17L59 17L59 18L62 18L62 19L63 19L63 20L64 20L64 19L63 19L63 18L65 18L65 17L63 17L63 18L62 18L62 16L64 16L64 15L62 15L62 16L61 16L61 17L59 17L59 16L58 16L58 14L57 14L57 13ZM43 14L43 15L44 15L44 16L42 16L42 17L41 17L41 18L39 18L39 19L40 19L40 20L41 20L41 21L40 21L40 22L39 22L39 24L42 24L42 25L41 25L41 26L39 26L39 27L42 27L42 30L43 30L43 31L44 31L44 30L45 30L45 29L44 29L44 28L46 28L46 26L43 26L43 25L44 25L44 24L43 24L43 23L42 23L42 22L44 22L44 23L45 23L45 24L46 24L46 25L47 25L47 24L46 24L46 22L44 22L44 20L43 20L43 17L44 17L44 16L45 16L45 17L46 17L46 16L45 16L45 15L47 15L47 14L45 14L45 15L44 15L44 14ZM25 15L25 16L26 16L26 15ZM39 15L39 16L40 16L40 15ZM67 15L67 16L68 16L68 15ZM6 16L6 17L7 17L7 16ZM22 16L22 17L21 17L21 18L22 18L22 19L24 19L24 18L22 18L22 17L23 17L23 16ZM15 17L15 18L16 18L16 17ZM27 17L27 18L28 18L28 17ZM11 18L11 20L12 20L12 21L13 21L13 20L14 20L14 18ZM18 18L18 19L17 19L17 20L19 20L19 19L20 19L20 18ZM44 18L44 19L46 19L46 18ZM48 18L48 19L49 19L49 18ZM9 19L9 20L10 20L10 19ZM27 19L27 21L28 21L28 19ZM41 19L41 20L42 20L42 19ZM4 20L4 21L5 21L5 22L6 22L6 21L5 21L5 20ZM56 20L56 22L57 22L57 23L56 23L56 25L57 25L57 23L58 23L58 22L59 22L59 21L57 21L57 20ZM18 21L18 22L19 22L19 21ZM41 21L41 22L40 22L40 23L41 23L41 22L42 22L42 21ZM33 22L33 23L34 23L34 22ZM54 22L54 23L55 23L55 22ZM16 23L16 24L15 24L15 25L16 25L16 24L17 24L17 23ZM67 23L67 25L68 25L68 23ZM1 24L1 25L2 25L2 24ZM6 24L6 25L5 25L5 26L6 26L6 27L7 27L7 26L6 26L6 25L9 25L9 24ZM10 25L10 27L9 27L9 26L8 26L8 27L9 27L9 28L8 28L8 30L9 30L9 28L10 28L10 30L11 30L11 28L10 28L10 27L11 27L11 25ZM21 25L21 26L22 26L22 25ZM30 26L30 27L33 27L33 28L34 28L34 29L33 29L33 30L31 30L31 29L32 29L32 28L31 28L31 29L30 29L30 30L29 30L29 31L30 31L30 30L31 30L31 31L32 31L32 32L34 32L34 31L33 31L33 30L34 30L34 29L35 29L35 30L36 30L36 28L35 28L35 27L36 27L36 26L34 26L34 27L33 27L33 26ZM60 26L60 27L61 27L61 26ZM1 27L1 28L2 28L2 27ZM43 27L43 28L44 28L44 27ZM67 27L67 28L68 28L68 27ZM12 28L12 29L13 29L13 31L14 31L14 32L13 32L13 33L14 33L14 32L15 32L15 31L16 31L16 30L14 30L14 29L13 29L13 28ZM38 28L38 29L40 29L40 28ZM17 29L17 30L18 30L18 29ZM43 29L43 30L44 30L44 29ZM35 31L35 32L37 32L37 33L38 33L38 32L37 32L37 31ZM50 31L50 32L52 32L52 31ZM2 32L2 33L3 33L3 34L2 34L2 35L1 35L1 36L2 36L2 37L3 37L3 35L4 35L4 33L3 33L3 32ZM16 32L16 33L15 33L15 34L14 34L14 35L15 35L15 34L16 34L16 33L17 33L17 32ZM28 32L28 33L25 33L25 34L24 34L24 35L26 35L26 36L25 36L25 37L27 37L27 38L25 38L25 39L26 39L26 41L24 41L24 42L23 42L23 43L24 43L24 44L25 44L25 43L26 43L26 42L27 42L27 41L28 41L28 40L27 40L27 39L29 39L29 38L30 38L30 37L29 37L29 36L30 36L30 35L31 35L31 34L30 34L30 33L29 33L29 32ZM54 32L54 33L53 33L53 34L52 34L52 33L51 33L51 35L54 35L54 34L58 34L58 33L55 33L55 32ZM5 33L5 36L8 36L8 33ZM28 33L28 34L26 34L26 35L28 35L28 36L29 36L29 33ZM33 33L33 36L36 36L36 33ZM61 33L61 36L64 36L64 33ZM6 34L6 35L7 35L7 34ZM34 34L34 35L35 35L35 34ZM62 34L62 35L63 35L63 34ZM44 36L44 37L45 37L45 38L48 38L48 37L45 37L45 36ZM58 36L58 37L59 37L59 36ZM34 37L34 38L33 38L33 39L34 39L34 38L35 38L35 37ZM53 38L53 40L52 40L52 39L51 39L51 40L52 40L52 41L54 41L54 39L55 39L55 38ZM8 39L8 40L4 40L4 41L5 41L5 42L6 42L6 43L8 43L8 42L9 42L9 41L10 41L10 40L9 40L9 39ZM47 39L47 40L48 40L48 39ZM6 41L6 42L8 42L8 41ZM11 41L11 42L10 42L10 46L11 46L11 47L12 47L12 46L13 46L13 47L14 47L14 46L15 46L15 45L16 45L16 43L14 43L14 42L16 42L16 41L14 41L14 42L13 42L13 41ZM18 41L18 42L19 42L19 43L20 43L20 42L19 42L19 41ZM11 42L11 43L12 43L12 44L11 44L11 46L12 46L12 44L13 44L13 45L14 45L14 44L13 44L13 42ZM43 42L43 43L44 43L44 46L42 46L42 45L41 45L41 46L42 46L42 48L41 48L41 47L40 47L40 48L39 48L39 49L38 49L38 50L37 50L37 51L39 51L39 52L40 52L40 51L39 51L39 50L41 50L41 49L42 49L42 48L43 48L43 47L44 47L44 49L43 49L43 50L44 50L44 49L45 49L45 52L46 52L46 51L47 51L47 52L49 52L49 53L50 53L50 54L49 54L49 57L50 57L50 55L51 55L51 54L53 54L53 52L50 52L50 50L51 50L51 51L53 51L53 50L51 50L51 49L55 49L55 48L56 48L56 47L55 47L55 46L56 46L56 45L55 45L55 46L54 46L54 45L53 45L53 43L52 43L52 44L51 44L51 45L50 45L50 43L48 43L48 44L49 44L49 45L50 45L50 46L47 46L47 44L46 44L46 45L45 45L45 43L44 43L44 42ZM21 43L21 44L20 44L20 46L22 46L22 47L24 47L24 46L23 46L23 44L22 44L22 43ZM40 43L40 44L41 44L41 43ZM51 45L51 46L50 46L50 47L49 47L49 48L48 48L48 47L47 47L47 50L50 50L50 49L51 49L51 48L50 48L50 47L53 47L53 48L55 48L55 47L54 47L54 46L53 46L53 45ZM27 46L27 47L28 47L28 46ZM35 46L35 47L36 47L36 46ZM45 46L45 49L46 49L46 46ZM49 48L49 49L50 49L50 48ZM9 49L9 50L10 50L10 51L11 51L11 50L12 50L12 51L13 51L13 50L12 50L12 49L11 49L11 50L10 50L10 49ZM27 49L27 50L28 50L28 49ZM60 49L60 50L62 50L62 49ZM14 50L14 51L15 51L15 50ZM18 50L18 52L19 52L19 51L20 51L20 50ZM23 51L23 52L24 52L24 51ZM27 51L27 52L28 52L28 51ZM36 52L36 53L38 53L38 52ZM3 53L3 54L2 54L2 55L1 55L1 56L2 56L2 57L3 57L3 54L4 54L4 53ZM25 53L25 56L26 56L26 53ZM45 53L45 54L46 54L46 56L47 56L47 53ZM6 54L6 55L7 55L7 54ZM15 54L15 55L17 55L17 54ZM54 54L54 55L53 55L53 56L54 56L54 57L55 57L55 56L56 56L56 57L57 57L57 56L56 56L56 55L55 55L55 54ZM54 55L54 56L55 56L55 55ZM13 56L13 57L12 57L12 58L13 58L13 59L14 59L14 60L16 60L16 59L14 59L14 56ZM21 56L21 57L22 57L22 58L24 58L24 57L22 57L22 56ZM38 56L38 57L37 57L37 58L38 58L38 57L39 57L39 56ZM66 57L66 59L67 59L67 57ZM17 58L17 59L19 59L19 58ZM63 58L63 59L64 59L64 58ZM34 59L34 60L35 60L35 59ZM54 59L54 60L55 60L55 59ZM3 60L3 61L5 61L5 60ZM42 60L42 61L43 61L43 60ZM18 61L18 62L19 62L19 61ZM33 61L33 64L36 64L36 61ZM51 61L51 62L52 62L52 61ZM61 61L61 64L64 64L64 61ZM34 62L34 63L35 63L35 62ZM62 62L62 63L63 63L63 62ZM65 62L65 63L66 63L66 62ZM28 63L28 64L29 64L29 63ZM12 64L12 65L9 65L9 66L12 66L12 65L13 65L13 64ZM44 64L44 66L41 66L41 68L42 68L42 67L43 67L43 68L44 68L44 66L45 66L45 67L46 67L46 66L45 66L45 64ZM49 64L49 65L50 65L50 64ZM57 64L57 65L58 65L58 64ZM31 65L31 66L32 66L32 65ZM61 65L61 66L64 66L64 65ZM66 65L66 66L67 66L67 65ZM10 67L10 68L11 68L11 67ZM30 67L30 68L31 68L31 67ZM33 68L33 69L34 69L34 68ZM0 0L0 7L7 7L7 0ZM1 1L1 6L6 6L6 1ZM2 2L2 5L5 5L5 2ZM62 0L62 7L69 7L69 0ZM63 1L63 6L68 6L68 1ZM64 2L64 5L67 5L67 2ZM0 62L0 69L7 69L7 62ZM1 63L1 68L6 68L6 63ZM2 64L2 67L5 67L5 64Z" fill="#000000"/></g></g></svg>
