<?xml version="1.0" encoding="UTF-8"?>
<svg xmlns="http://www.w3.org/2000/svg" version="1.1" width="300" height="300" viewBox="0 0 300 300"><rect x="0" y="0" width="300" height="300" fill="#ffffff"/><g transform="scale(4.348)"><g transform="translate(0,0)"><path fill-rule="evenodd" d="M8 0L8 4L10 4L10 5L11 5L11 4L12 4L12 7L11 7L11 6L10 6L10 7L9 7L9 5L8 5L8 7L9 7L9 8L10 8L10 10L11 10L11 11L10 11L10 12L9 12L9 11L7 11L7 10L8 10L8 9L7 9L7 8L4 8L4 9L3 9L3 10L2 10L2 8L0 8L0 9L1 9L1 10L2 10L2 11L0 11L0 12L2 12L2 13L1 13L1 14L2 14L2 15L4 15L4 16L5 16L5 17L4 17L4 18L3 18L3 20L2 20L2 21L4 21L4 22L2 22L2 23L3 23L3 24L4 24L4 25L5 25L5 24L6 24L6 25L8 25L8 24L9 24L9 26L6 26L6 27L9 27L9 29L8 29L8 30L10 30L10 31L8 31L8 32L6 32L6 31L7 31L7 30L5 30L5 32L4 32L4 35L3 35L3 33L2 33L2 32L3 32L3 30L4 30L4 29L7 29L7 28L4 28L4 29L2 29L2 28L1 28L1 27L0 27L0 28L1 28L1 29L2 29L2 32L1 32L1 31L0 31L0 32L1 32L1 36L2 36L2 38L4 38L4 37L7 37L7 38L5 38L5 39L4 39L4 41L3 41L3 39L2 39L2 40L1 40L1 39L0 39L0 40L1 40L1 41L0 41L0 42L1 42L1 43L0 43L0 44L2 44L2 45L1 45L1 47L0 47L0 49L1 49L1 50L0 50L0 52L1 52L1 50L4 50L4 51L3 51L3 52L2 52L2 53L1 53L1 54L3 54L3 52L5 52L5 54L6 54L6 55L5 55L5 56L4 56L4 55L2 55L2 56L1 56L1 57L3 57L3 56L4 56L4 59L7 59L7 60L6 60L6 61L7 61L7 60L8 60L8 62L9 62L9 63L8 63L8 65L9 65L9 66L10 66L10 67L8 67L8 69L9 69L9 68L11 68L11 69L12 69L12 68L11 68L11 66L10 66L10 64L11 64L11 65L12 65L12 66L13 66L13 69L14 69L14 68L15 68L15 69L16 69L16 68L17 68L17 69L19 69L19 68L18 68L18 66L19 66L19 67L20 67L20 66L22 66L22 68L23 68L23 67L24 67L24 66L26 66L26 69L29 69L29 67L28 67L28 64L29 64L29 65L32 65L32 67L31 67L31 66L30 66L30 67L31 67L31 68L30 68L30 69L31 69L31 68L32 68L32 69L33 69L33 68L34 68L34 67L33 67L33 66L34 66L34 65L38 65L38 66L37 66L37 68L35 68L35 69L37 69L37 68L38 68L38 67L40 67L40 68L39 68L39 69L40 69L40 68L42 68L42 67L43 67L43 69L45 69L45 66L46 66L46 64L47 64L47 66L48 66L48 68L46 68L46 69L50 69L50 68L49 68L49 65L50 65L50 66L51 66L51 65L52 65L52 67L51 67L51 69L52 69L52 68L54 68L54 69L57 69L57 68L60 68L60 69L61 69L61 67L63 67L63 69L65 69L65 67L67 67L67 66L69 66L69 64L68 64L68 62L69 62L69 61L68 61L68 60L69 60L69 59L68 59L68 58L69 58L69 56L68 56L68 55L67 55L67 54L66 54L66 55L67 55L67 56L68 56L68 58L67 58L67 59L68 59L68 60L66 60L66 61L65 61L65 58L66 58L66 57L65 57L65 58L64 58L64 57L63 57L63 56L64 56L64 55L65 55L65 54L64 54L64 53L63 53L63 51L64 51L64 52L65 52L65 53L66 53L66 52L65 52L65 51L66 51L66 50L63 50L63 51L61 51L61 50L60 50L60 49L61 49L61 47L62 47L62 49L65 49L65 47L66 47L66 46L67 46L67 48L68 48L68 51L67 51L67 53L69 53L69 52L68 52L68 51L69 51L69 47L68 47L68 46L69 46L69 43L68 43L68 41L69 41L69 40L68 40L68 38L69 38L69 36L68 36L68 38L67 38L67 37L66 37L66 36L65 36L65 35L68 35L68 33L69 33L69 32L68 32L68 31L67 31L67 30L64 30L64 28L65 28L65 29L66 29L66 27L65 27L65 26L64 26L64 28L63 28L63 25L64 25L64 23L65 23L65 22L63 22L63 21L64 21L64 20L65 20L65 21L66 21L66 22L67 22L67 23L68 23L68 24L65 24L65 25L67 25L67 28L68 28L68 26L69 26L69 25L68 25L68 24L69 24L69 23L68 23L68 22L69 22L69 20L68 20L68 18L66 18L66 19L65 19L65 17L64 17L64 16L65 16L65 13L64 13L64 12L65 12L65 11L63 11L63 10L64 10L64 8L63 8L63 9L62 9L62 11L61 11L61 12L62 12L62 19L61 19L61 17L59 17L59 16L58 16L58 15L59 15L59 14L58 14L58 12L59 12L59 13L60 13L60 14L61 14L61 13L60 13L60 12L59 12L59 11L60 11L60 10L61 10L61 8L60 8L60 9L59 9L59 4L58 4L58 5L56 5L56 3L59 3L59 2L58 2L58 1L61 1L61 0L57 0L57 2L55 2L55 1L56 1L56 0L53 0L53 1L54 1L54 2L51 2L51 1L52 1L52 0L50 0L50 2L51 2L51 3L52 3L52 4L50 4L50 7L49 7L49 6L48 6L48 7L49 7L49 8L47 8L47 6L46 6L46 4L47 4L47 3L49 3L49 1L48 1L48 0L47 0L47 3L46 3L46 4L44 4L44 2L45 2L45 1L46 1L46 0L45 0L45 1L44 1L44 0L41 0L41 1L42 1L42 2L43 2L43 4L41 4L41 2L39 2L39 3L38 3L38 2L37 2L37 1L39 1L39 0L37 0L37 1L35 1L35 2L34 2L34 0L32 0L32 1L31 1L31 0L29 0L29 1L30 1L30 3L31 3L31 4L30 4L30 5L29 5L29 6L28 6L28 4L29 4L29 2L28 2L28 3L27 3L27 4L26 4L26 2L27 2L27 1L26 1L26 0L22 0L22 3L20 3L20 5L19 5L19 4L18 4L18 7L19 7L19 8L16 8L16 9L15 9L15 5L16 5L16 7L17 7L17 3L18 3L18 2L19 2L19 1L20 1L20 2L21 2L21 0L17 0L17 1L16 1L16 0L14 0L14 1L16 1L16 2L17 2L17 3L16 3L16 4L14 4L14 3L15 3L15 2L13 2L13 0L11 0L11 1L10 1L10 3L9 3L9 0ZM11 1L11 2L12 2L12 1ZM23 1L23 2L26 2L26 1ZM32 1L32 2L33 2L33 3L32 3L32 4L31 4L31 5L30 5L30 6L29 6L29 7L28 7L28 6L27 6L27 7L26 7L26 6L25 6L25 5L26 5L26 4L25 4L25 3L23 3L23 4L25 4L25 5L20 5L20 6L19 6L19 7L20 7L20 9L16 9L16 10L20 10L20 9L22 9L22 10L21 10L21 11L19 11L19 16L18 16L18 17L17 17L17 18L16 18L16 16L17 16L17 15L18 15L18 14L17 14L17 15L14 15L14 13L13 13L13 12L15 12L15 14L16 14L16 12L17 12L17 11L16 11L16 12L15 12L15 10L14 10L14 6L13 6L13 7L12 7L12 10L14 10L14 11L13 11L13 12L12 12L12 11L11 11L11 12L12 12L12 14L11 14L11 13L10 13L10 14L11 14L11 15L12 15L12 16L10 16L10 15L9 15L9 14L7 14L7 13L8 13L8 12L7 12L7 11L6 11L6 10L7 10L7 9L5 9L5 11L3 11L3 13L2 13L2 14L4 14L4 15L5 15L5 16L7 16L7 17L5 17L5 18L4 18L4 21L5 21L5 23L4 23L4 24L5 24L5 23L6 23L6 24L7 24L7 23L8 23L8 21L9 21L9 22L10 22L10 20L11 20L11 22L12 22L12 23L11 23L11 24L10 24L10 26L9 26L9 27L11 27L11 28L12 28L12 27L13 27L13 26L15 26L15 25L18 25L18 26L19 26L19 27L17 27L17 26L16 26L16 27L15 27L15 28L14 28L14 29L13 29L13 30L12 30L12 29L11 29L11 30L12 30L12 32L11 32L11 31L10 31L10 32L9 32L9 35L10 35L10 36L9 36L9 39L8 39L8 38L7 38L7 39L5 39L5 41L4 41L4 42L2 42L2 41L1 41L1 42L2 42L2 44L5 44L5 45L3 45L3 46L2 46L2 47L1 47L1 48L3 48L3 49L4 49L4 50L7 50L7 51L5 51L5 52L7 52L7 53L6 53L6 54L7 54L7 53L8 53L8 54L9 54L9 53L10 53L10 52L11 52L11 53L13 53L13 52L14 52L14 53L16 53L16 55L17 55L17 56L15 56L15 54L11 54L11 55L9 55L9 56L8 56L8 55L6 55L6 56L5 56L5 57L6 57L6 58L7 58L7 59L9 59L9 60L11 60L11 61L9 61L9 62L10 62L10 63L9 63L9 64L10 64L10 63L12 63L12 64L13 64L13 62L14 62L14 61L16 61L16 64L14 64L14 65L13 65L13 66L14 66L14 67L15 67L15 68L16 68L16 67L17 67L17 65L18 65L18 64L19 64L19 65L20 65L20 64L22 64L22 66L23 66L23 64L25 64L25 65L27 65L27 64L28 64L28 63L29 63L29 64L31 64L31 63L32 63L32 60L37 60L37 63L39 63L39 64L40 64L40 66L41 66L41 63L42 63L42 62L40 62L40 61L41 61L41 60L40 60L40 61L39 61L39 62L38 62L38 59L37 59L37 57L39 57L39 58L40 58L40 59L44 59L44 60L43 60L43 67L44 67L44 63L45 63L45 64L46 64L46 63L48 63L48 64L49 64L49 63L50 63L50 65L51 65L51 62L52 62L52 65L53 65L53 67L54 67L54 65L55 65L55 66L57 66L57 67L61 67L61 66L60 66L60 64L59 64L59 62L60 62L60 59L61 59L61 60L62 60L62 59L63 59L63 60L64 60L64 59L63 59L63 58L62 58L62 59L61 59L61 57L62 57L62 56L61 56L61 57L60 57L60 56L59 56L59 57L58 57L58 55L59 55L59 53L62 53L62 55L64 55L64 54L63 54L63 53L62 53L62 52L59 52L59 51L60 51L60 50L59 50L59 49L60 49L60 48L59 48L59 49L56 49L56 48L58 48L58 46L60 46L60 45L61 45L61 44L62 44L62 47L63 47L63 48L64 48L64 46L66 46L66 44L68 44L68 43L67 43L67 42L65 42L65 41L67 41L67 39L64 39L64 38L65 38L65 37L62 37L62 40L59 40L59 39L56 39L56 40L55 40L55 41L56 41L56 42L53 42L53 44L52 44L52 41L54 41L54 40L53 40L53 39L52 39L52 38L51 38L51 39L49 39L49 38L48 38L48 39L49 39L49 40L51 40L51 44L50 44L50 45L49 45L49 46L48 46L48 45L46 45L46 43L47 43L47 44L49 44L49 43L50 43L50 41L48 41L48 42L47 42L47 37L46 37L46 35L45 35L45 37L44 37L44 34L45 34L45 33L46 33L46 34L48 34L48 33L46 33L46 30L47 30L47 29L48 29L48 27L49 27L49 25L48 25L48 23L47 23L47 25L46 25L46 26L47 26L47 25L48 25L48 27L47 27L47 29L46 29L46 30L45 30L45 29L44 29L44 27L43 27L43 26L45 26L45 25L44 25L44 24L45 24L45 23L44 23L44 24L42 24L42 23L43 23L43 22L41 22L41 24L40 24L40 22L39 22L39 23L37 23L37 22L35 22L35 21L34 21L34 19L35 19L35 18L34 18L34 17L35 17L35 16L34 16L34 15L37 15L37 17L36 17L36 19L37 19L37 21L38 21L38 19L39 19L39 20L40 20L40 21L41 21L41 19L42 19L42 21L44 21L44 20L45 20L45 21L46 21L46 22L50 22L50 23L49 23L49 24L51 24L51 23L52 23L52 21L53 21L53 19L54 19L54 17L56 17L56 16L57 16L57 15L56 15L56 12L55 12L55 14L53 14L53 13L54 13L54 12L53 12L53 11L57 11L57 12L58 12L58 10L59 10L59 9L58 9L58 8L57 8L57 9L56 9L56 10L51 10L51 12L52 12L52 14L51 14L51 15L50 15L50 12L49 12L49 11L48 11L48 12L49 12L49 14L48 14L48 13L46 13L46 15L45 15L45 17L46 17L46 18L47 18L47 19L48 19L48 20L49 20L49 21L47 21L47 20L46 20L46 19L44 19L44 18L41 18L41 17L42 17L42 16L41 16L41 15L43 15L43 17L44 17L44 15L43 15L43 14L40 14L40 13L42 13L42 12L43 12L43 13L44 13L44 12L43 12L43 11L41 11L41 12L40 12L40 13L39 13L39 14L40 14L40 15L37 15L37 13L38 13L38 12L37 12L37 11L40 11L40 9L44 9L44 8L45 8L45 9L46 9L46 10L44 10L44 11L45 11L45 12L47 12L47 11L46 11L46 10L47 10L47 8L45 8L45 7L46 7L46 6L45 6L45 5L44 5L44 4L43 4L43 7L42 7L42 6L41 6L41 5L40 5L40 6L39 6L39 7L38 7L38 4L37 4L37 3L36 3L36 2L35 2L35 3L34 3L34 2L33 2L33 1ZM10 3L10 4L11 4L11 3ZM12 3L12 4L13 4L13 5L14 5L14 4L13 4L13 3ZM33 3L33 4L32 4L32 5L31 5L31 6L30 6L30 8L29 8L29 9L31 9L31 10L32 10L32 9L33 9L33 11L34 11L34 12L32 12L32 11L31 11L31 12L30 12L30 13L29 13L29 12L28 12L28 11L29 11L29 10L28 10L28 7L27 7L27 8L26 8L26 9L25 9L25 8L24 8L24 7L25 7L25 6L24 6L24 7L23 7L23 6L22 6L22 8L24 8L24 9L23 9L23 10L22 10L22 11L21 11L21 12L20 12L20 15L22 15L22 16L19 16L19 17L18 17L18 19L19 19L19 20L18 20L18 21L17 21L17 20L16 20L16 18L14 18L14 17L15 17L15 16L14 16L14 15L13 15L13 14L12 14L12 15L13 15L13 16L12 16L12 21L13 21L13 22L14 22L14 21L13 21L13 19L14 19L14 20L16 20L16 21L15 21L15 22L16 22L16 23L12 23L12 25L11 25L11 26L13 26L13 24L14 24L14 25L15 25L15 24L17 24L17 22L18 22L18 23L19 23L19 24L18 24L18 25L19 25L19 24L20 24L20 27L19 27L19 28L17 28L17 31L16 31L16 32L17 32L17 31L18 31L18 30L19 30L19 28L20 28L20 31L21 31L21 32L20 32L20 33L19 33L19 32L18 32L18 33L17 33L17 34L19 34L19 35L20 35L20 34L23 34L23 35L24 35L24 34L25 34L25 35L26 35L26 37L27 37L27 39L26 39L26 38L25 38L25 37L24 37L24 36L23 36L23 37L21 37L21 36L22 36L22 35L21 35L21 36L16 36L16 33L15 33L15 34L14 34L14 35L13 35L13 34L12 34L12 35L11 35L11 36L10 36L10 37L11 37L11 36L13 36L13 37L12 37L12 38L10 38L10 39L9 39L9 40L8 40L8 39L7 39L7 40L6 40L6 41L7 41L7 40L8 40L8 41L9 41L9 42L11 42L11 41L10 41L10 39L12 39L12 41L14 41L14 43L11 43L11 44L10 44L10 43L9 43L9 44L10 44L10 45L12 45L12 47L11 47L11 48L9 48L9 47L8 47L8 46L9 46L9 45L8 45L8 42L6 42L6 43L5 43L5 44L6 44L6 45L7 45L7 46L5 46L5 48L4 48L4 47L3 47L3 48L4 48L4 49L5 49L5 48L6 48L6 49L7 49L7 50L10 50L10 49L12 49L12 48L13 48L13 47L14 47L14 48L15 48L15 50L14 50L14 52L16 52L16 53L17 53L17 54L18 54L18 53L20 53L20 54L22 54L22 51L25 51L25 50L27 50L27 48L25 48L25 47L26 47L26 45L27 45L27 46L28 46L28 45L27 45L27 44L26 44L26 43L28 43L28 44L29 44L29 45L30 45L30 46L31 46L31 44L30 44L30 43L31 43L31 42L28 42L28 41L34 41L34 42L33 42L33 43L34 43L34 44L32 44L32 45L33 45L33 46L32 46L32 47L30 47L30 49L29 49L29 47L28 47L28 49L29 49L29 50L28 50L28 51L26 51L26 54L28 54L28 55L26 55L26 57L27 57L27 58L26 58L26 61L21 61L21 60L24 60L24 59L23 59L23 58L22 58L22 59L21 59L21 57L24 57L24 58L25 58L25 56L22 56L22 55L21 55L21 57L20 57L20 59L21 59L21 60L19 60L19 55L18 55L18 56L17 56L17 57L15 57L15 59L16 59L16 58L18 58L18 59L17 59L17 61L20 61L20 62L19 62L19 63L21 63L21 62L22 62L22 64L23 64L23 63L26 63L26 64L27 64L27 62L28 62L28 61L27 61L27 60L28 60L28 59L27 59L27 58L28 58L28 56L29 56L29 57L31 57L31 58L30 58L30 59L29 59L29 63L31 63L31 60L32 60L32 59L31 59L31 58L32 58L32 57L31 57L31 56L29 56L29 55L31 55L31 54L32 54L32 52L29 52L29 51L31 51L31 50L30 50L30 49L32 49L32 48L33 48L33 54L34 54L34 52L35 52L35 53L36 53L36 54L35 54L35 55L36 55L36 54L37 54L37 55L38 55L38 54L39 54L39 57L40 57L40 58L43 58L43 57L45 57L45 59L46 59L46 60L47 60L47 62L48 62L48 63L49 63L49 61L50 61L50 62L51 62L51 61L50 61L50 60L51 60L51 59L54 59L54 60L56 60L56 62L57 62L57 61L58 61L58 60L59 60L59 58L58 58L58 57L57 57L57 56L56 56L56 55L57 55L57 52L56 52L56 55L55 55L55 53L52 53L52 52L55 52L55 51L56 51L56 50L55 50L55 48L53 48L53 49L52 49L52 47L55 47L55 44L56 44L56 47L57 47L57 46L58 46L58 45L59 45L59 44L61 44L61 43L62 43L62 41L65 41L65 40L64 40L64 39L63 39L63 40L62 40L62 41L61 41L61 43L60 43L60 42L58 42L58 41L59 41L59 40L58 40L58 41L57 41L57 40L56 40L56 41L57 41L57 42L56 42L56 43L55 43L55 44L54 44L54 45L53 45L53 46L51 46L51 45L52 45L52 44L51 44L51 45L50 45L50 47L51 47L51 48L49 48L49 47L48 47L48 48L47 48L47 49L50 49L50 50L46 50L46 48L44 48L44 47L42 47L42 49L40 49L40 47L41 47L41 46L43 46L43 44L44 44L44 45L45 45L45 47L46 47L46 45L45 45L45 44L44 44L44 43L43 43L43 41L42 41L42 43L43 43L43 44L41 44L41 45L40 45L40 43L39 43L39 42L41 42L41 41L40 41L40 39L41 39L41 38L42 38L42 40L43 40L43 39L44 39L44 37L42 37L42 36L41 36L41 37L40 37L40 35L43 35L43 34L44 34L44 33L45 33L45 31L44 31L44 29L43 29L43 27L42 27L42 26L43 26L43 25L42 25L42 24L41 24L41 27L40 27L40 24L39 24L39 25L38 25L38 24L37 24L37 23L35 23L35 22L34 22L34 21L33 21L33 20L32 20L32 19L31 19L31 18L33 18L33 16L32 16L32 13L36 13L36 11L35 11L35 10L34 10L34 9L36 9L36 10L37 10L37 4L34 4L34 3ZM39 3L39 4L40 4L40 3ZM54 3L54 4L55 4L55 3ZM60 3L60 5L61 5L61 3ZM52 4L52 5L53 5L53 4ZM33 5L33 8L36 8L36 5ZM20 6L20 7L21 7L21 6ZM31 6L31 7L32 7L32 6ZM34 6L34 7L35 7L35 6ZM40 6L40 7L41 7L41 6ZM44 6L44 7L43 7L43 8L44 8L44 7L45 7L45 6ZM51 6L51 7L50 7L50 9L49 9L49 10L50 10L50 9L51 9L51 8L52 8L52 9L53 9L53 8L52 8L52 6ZM53 6L53 7L54 7L54 8L55 8L55 7L56 7L56 6L55 6L55 7L54 7L54 6ZM57 6L57 7L58 7L58 6ZM60 6L60 7L61 7L61 6ZM31 8L31 9L32 9L32 8ZM65 8L65 10L66 10L66 11L67 11L67 9L69 9L69 8ZM24 9L24 10L25 10L25 11L26 11L26 12L27 12L27 13L25 13L25 14L23 14L23 12L24 12L24 11L22 11L22 13L21 13L21 14L23 14L23 16L22 16L22 17L19 17L19 19L20 19L20 18L21 18L21 19L22 19L22 17L23 17L23 16L24 16L24 15L25 15L25 14L26 14L26 16L27 16L27 17L25 17L25 18L26 18L26 19L24 19L24 20L22 20L22 21L21 21L21 23L20 23L20 24L21 24L21 23L22 23L22 24L23 24L23 23L24 23L24 24L25 24L25 25L26 25L26 23L24 23L24 22L23 22L23 21L26 21L26 19L29 19L29 20L31 20L31 19L29 19L29 18L31 18L31 17L29 17L29 16L31 16L31 13L32 13L32 12L31 12L31 13L30 13L30 15L29 15L29 16L27 16L27 15L28 15L28 14L29 14L29 13L28 13L28 12L27 12L27 11L26 11L26 10L25 10L25 9ZM38 9L38 10L39 10L39 9ZM57 9L57 10L58 10L58 9ZM5 11L5 12L6 12L6 13L5 13L5 14L6 14L6 15L7 15L7 16L9 16L9 15L7 15L7 14L6 14L6 13L7 13L7 12L6 12L6 11ZM68 11L68 12L69 12L69 11ZM66 12L66 13L67 13L67 15L68 15L68 16L66 16L66 17L69 17L69 15L68 15L68 14L69 14L69 13L67 13L67 12ZM27 13L27 14L28 14L28 13ZM63 13L63 15L64 15L64 13ZM52 14L52 15L53 15L53 14ZM0 16L0 17L1 17L1 16ZM13 16L13 17L14 17L14 16ZM46 16L46 17L47 17L47 18L48 18L48 19L50 19L50 22L51 22L51 21L52 21L52 19L50 19L50 18L52 18L52 17L50 17L50 18L48 18L48 17L49 17L49 16ZM53 16L53 17L54 17L54 16ZM8 17L8 18L6 18L6 19L5 19L5 21L7 21L7 20L9 20L9 18L11 18L11 17ZM27 17L27 18L28 18L28 17ZM38 17L38 18L40 18L40 19L41 19L41 18L40 18L40 17ZM58 17L58 18L57 18L57 19L58 19L58 20L57 20L57 21L58 21L58 23L57 23L57 22L56 22L56 21L55 21L55 22L56 22L56 23L55 23L55 24L52 24L52 25L51 25L51 26L52 26L52 25L56 25L56 27L55 27L55 26L53 26L53 27L54 27L54 28L52 28L52 29L51 29L51 30L50 30L50 28L49 28L49 30L48 30L48 32L49 32L49 34L50 34L50 33L51 33L51 34L52 34L52 35L49 35L49 37L51 37L51 36L52 36L52 37L55 37L55 38L54 38L54 39L55 39L55 38L56 38L56 36L57 36L57 35L56 35L56 34L57 34L57 33L56 33L56 32L57 32L57 31L59 31L59 32L61 32L61 31L62 31L62 29L63 29L63 28L62 28L62 25L61 25L61 24L62 24L62 23L63 23L63 22L62 22L62 20L61 20L61 19L60 19L60 20L59 20L59 19L58 19L58 18L59 18L59 17ZM63 17L63 19L64 19L64 17ZM0 18L0 20L1 20L1 19L2 19L2 18ZM55 18L55 19L56 19L56 18ZM6 19L6 20L7 20L7 19ZM66 19L66 21L68 21L68 20L67 20L67 19ZM19 20L19 21L18 21L18 22L20 22L20 20ZM58 20L58 21L59 21L59 23L58 23L58 24L56 24L56 25L57 25L57 27L59 27L59 28L60 28L60 29L59 29L59 30L60 30L60 31L61 31L61 29L62 29L62 28L60 28L60 27L61 27L61 25L60 25L60 24L61 24L61 23L62 23L62 22L61 22L61 20L60 20L60 21L59 21L59 20ZM0 21L0 22L1 22L1 21ZM28 21L28 22L27 22L27 23L28 23L28 24L27 24L27 25L28 25L28 26L30 26L30 27L32 27L32 28L31 28L31 29L29 29L29 27L27 27L27 26L26 26L26 27L25 27L25 26L24 26L24 25L21 25L21 27L22 27L22 30L21 30L21 31L27 31L27 32L28 32L28 31L30 31L30 32L31 32L31 29L33 29L33 30L32 30L32 32L33 32L33 30L34 30L34 31L37 31L37 30L38 30L38 31L41 31L41 32L40 32L40 34L41 34L41 33L44 33L44 31L42 31L42 29L41 29L41 28L40 28L40 27L38 27L38 25L37 25L37 24L35 24L35 25L34 25L34 23L33 23L33 22L32 22L32 21L30 21L30 22L31 22L31 23L28 23L28 22L29 22L29 21ZM6 22L6 23L7 23L7 22ZM31 23L31 24L28 24L28 25L30 25L30 26L32 26L32 27L34 27L34 28L35 28L35 26L34 26L34 25L33 25L33 24L32 24L32 23ZM1 24L1 25L2 25L2 24ZM32 25L32 26L33 26L33 25ZM36 25L36 26L37 26L37 25ZM58 25L58 26L59 26L59 27L60 27L60 26L59 26L59 25ZM3 26L3 27L4 27L4 26ZM22 26L22 27L23 27L23 28L24 28L24 27L23 27L23 26ZM26 27L26 29L23 29L23 30L27 30L27 31L28 31L28 28L27 28L27 27ZM15 28L15 29L14 29L14 30L13 30L13 32L15 32L15 30L16 30L16 28ZM37 28L37 29L34 29L34 30L37 30L37 29L38 29L38 30L39 30L39 29L40 29L40 28L39 28L39 29L38 29L38 28ZM56 28L56 29L52 29L52 31L51 31L51 33L52 33L52 34L53 34L53 35L52 35L52 36L56 36L56 35L54 35L54 34L56 34L56 33L55 33L55 32L53 32L53 31L56 31L56 30L58 30L58 28ZM49 31L49 32L50 32L50 31ZM63 31L63 32L66 32L66 33L65 33L65 34L66 34L66 33L67 33L67 31ZM10 32L10 33L11 33L11 32ZM22 32L22 33L24 33L24 32ZM25 32L25 33L26 33L26 32ZM37 32L37 37L35 37L35 40L34 40L34 41L35 41L35 40L37 40L37 43L36 43L36 42L34 42L34 43L35 43L35 44L34 44L34 45L35 45L35 46L33 46L33 48L34 48L34 50L35 50L35 52L36 52L36 53L37 53L37 54L38 54L38 53L40 53L40 54L41 54L41 55L40 55L40 57L43 57L43 55L45 55L45 53L44 53L44 52L46 52L46 54L50 54L50 56L52 56L52 58L53 58L53 57L56 57L56 60L57 60L57 57L56 57L56 56L52 56L52 55L53 55L53 54L52 54L52 53L51 53L51 54L50 54L50 53L47 53L47 51L46 51L46 50L45 50L45 49L44 49L44 48L43 48L43 49L44 49L44 50L45 50L45 51L43 51L43 50L42 50L42 51L41 51L41 50L40 50L40 49L39 49L39 50L40 50L40 51L39 51L39 52L37 52L37 51L38 51L38 49L37 49L37 50L35 50L35 48L37 48L37 47L38 47L38 48L39 48L39 47L40 47L40 45L39 45L39 43L38 43L38 41L39 41L39 40L38 40L38 39L39 39L39 38L40 38L40 37L39 37L39 34L38 34L38 33L39 33L39 32ZM52 32L52 33L53 33L53 32ZM5 33L5 36L8 36L8 33ZM27 33L27 34L26 34L26 35L27 35L27 36L28 36L28 38L30 38L30 37L29 37L29 36L30 36L30 35L31 35L31 37L32 37L32 38L31 38L31 39L28 39L28 40L27 40L27 41L28 41L28 40L32 40L32 38L33 38L33 39L34 39L34 38L33 38L33 37L32 37L32 35L31 35L31 34L32 34L32 33L31 33L31 34L30 34L30 33ZM33 33L33 36L36 36L36 33ZM58 33L58 34L59 34L59 35L58 35L58 38L59 38L59 37L60 37L60 36L59 36L59 35L60 35L60 34L59 34L59 33ZM61 33L61 36L64 36L64 33ZM6 34L6 35L7 35L7 34ZM28 34L28 36L29 36L29 35L30 35L30 34ZM34 34L34 35L35 35L35 34ZM62 34L62 35L63 35L63 34ZM2 35L2 36L3 36L3 35ZM47 35L47 36L48 36L48 35ZM15 36L15 37L13 37L13 39L16 39L16 38L17 38L17 40L16 40L16 41L15 41L15 43L14 43L14 46L15 46L15 43L16 43L16 42L17 42L17 43L18 43L18 44L19 44L19 46L20 46L20 47L19 47L19 48L18 48L18 49L17 49L17 47L18 47L18 45L17 45L17 44L16 44L16 47L15 47L15 48L16 48L16 50L18 50L18 49L19 49L19 51L16 51L16 52L17 52L17 53L18 53L18 52L19 52L19 51L20 51L20 50L23 50L23 48L22 48L22 49L19 49L19 48L20 48L20 47L21 47L21 46L22 46L22 45L23 45L23 44L24 44L24 43L23 43L23 44L22 44L22 43L21 43L21 44L20 44L20 41L18 41L18 42L17 42L17 40L19 40L19 38L20 38L20 37L19 37L19 38L17 38L17 37L16 37L16 36ZM15 37L15 38L16 38L16 37ZM23 37L23 38L24 38L24 39L23 39L23 40L22 40L22 39L21 39L21 41L22 41L22 42L23 42L23 41L24 41L24 42L25 42L25 43L26 43L26 39L25 39L25 38L24 38L24 37ZM38 37L38 38L39 38L39 37ZM45 37L45 40L44 40L44 41L45 41L45 42L46 42L46 37ZM24 40L24 41L25 41L25 40ZM57 42L57 43L56 43L56 44L57 44L57 45L58 45L58 44L59 44L59 43L58 43L58 42ZM64 42L64 43L63 43L63 46L64 46L64 44L65 44L65 42ZM6 43L6 44L7 44L7 43ZM57 43L57 44L58 44L58 43ZM12 44L12 45L13 45L13 44ZM21 44L21 45L20 45L20 46L21 46L21 45L22 45L22 44ZM25 44L25 45L26 45L26 44ZM37 44L37 45L38 45L38 47L39 47L39 45L38 45L38 44ZM67 45L67 46L68 46L68 45ZM23 46L23 47L24 47L24 46ZM35 46L35 47L34 47L34 48L35 48L35 47L37 47L37 46ZM6 47L6 48L7 48L7 49L9 49L9 48L8 48L8 47ZM11 50L11 51L12 51L12 52L13 52L13 50ZM7 51L7 52L8 52L8 53L9 53L9 52L10 52L10 51L9 51L9 52L8 52L8 51ZM49 51L49 52L52 52L52 51ZM23 52L23 54L24 54L24 55L25 55L25 53L24 53L24 52ZM27 52L27 53L28 53L28 54L31 54L31 53L28 53L28 52ZM42 52L42 55L41 55L41 56L42 56L42 55L43 55L43 54L44 54L44 53L43 53L43 52ZM60 54L60 55L61 55L61 54ZM12 55L12 56L10 56L10 57L9 57L9 58L10 58L10 59L11 59L11 60L12 60L12 59L14 59L14 58L13 58L13 56L14 56L14 55ZM33 55L33 59L36 59L36 57L35 57L35 58L34 58L34 55ZM48 55L48 56L49 56L49 55ZM6 56L6 57L7 57L7 58L8 58L8 56ZM10 57L10 58L11 58L11 59L12 59L12 57ZM46 57L46 58L47 58L47 59L48 59L48 60L50 60L50 57L48 57L48 58L47 58L47 57ZM0 58L0 61L1 61L1 58ZM2 58L2 59L3 59L3 58ZM48 58L48 59L49 59L49 58ZM54 58L54 59L55 59L55 58ZM30 59L30 60L31 60L31 59ZM3 60L3 61L5 61L5 60ZM13 60L13 61L14 61L14 60ZM44 60L44 61L45 61L45 60ZM11 61L11 62L12 62L12 61ZM33 61L33 64L36 64L36 61ZM53 61L53 64L54 64L54 63L55 63L55 61ZM61 61L61 64L64 64L64 61ZM17 62L17 63L18 63L18 62ZM34 62L34 63L35 63L35 62ZM39 62L39 63L40 63L40 62ZM62 62L62 63L63 63L63 62ZM66 62L66 63L65 63L65 65L64 65L64 66L63 66L63 67L64 67L64 66L65 66L65 65L67 65L67 62ZM57 63L57 64L56 64L56 65L58 65L58 63ZM15 65L15 66L16 66L16 65ZM35 66L35 67L36 67L36 66ZM27 67L27 68L28 68L28 67ZM24 68L24 69L25 69L25 68ZM68 68L68 69L69 69L69 68ZM0 0L0 7L7 7L7 0ZM1 1L1 6L6 6L6 1ZM2 2L2 5L5 5L5 2ZM62 0L62 7L69 7L69 0ZM63 1L63 6L68 6L68 1ZM64 2L64 5L67 5L67 2ZM0 62L0 69L7 69L7 62ZM1 63L1 68L6 68L6 63ZM2 64L2 67L5 67L5 64Z" fill="#000000"/></g></g></svg>
