<?xml version="1.0" encoding="UTF-8"?>
<svg xmlns="http://www.w3.org/2000/svg" version="1.1" width="300" height="300" viewBox="0 0 300 300"><rect x="0" y="0" width="300" height="300" fill="#ffffff"/><g transform="scale(4.348)"><g transform="translate(0,0)"><path fill-rule="evenodd" d="M9 0L9 1L8 1L8 2L9 2L9 3L8 3L8 4L9 4L9 3L11 3L11 4L10 4L10 5L8 5L8 7L9 7L9 8L6 8L6 9L7 9L7 10L5 10L5 8L0 8L0 9L1 9L1 10L0 10L0 12L1 12L1 14L2 14L2 12L3 12L3 15L4 15L4 16L5 16L5 15L7 15L7 14L5 14L5 12L4 12L4 11L8 11L8 12L9 12L9 13L10 13L10 14L9 14L9 15L8 15L8 16L6 16L6 17L4 17L4 19L3 19L3 20L2 20L2 19L1 19L1 18L3 18L3 16L2 16L2 17L1 17L1 15L0 15L0 17L1 17L1 18L0 18L0 22L2 22L2 23L0 23L0 24L1 24L1 25L0 25L0 28L1 28L1 29L3 29L3 30L2 30L2 31L3 31L3 30L4 30L4 29L5 29L5 31L9 31L9 32L4 32L4 33L3 33L3 32L1 32L1 31L0 31L0 32L1 32L1 33L2 33L2 34L3 34L3 36L2 36L2 35L1 35L1 34L0 34L0 36L1 36L1 38L2 38L2 39L1 39L1 40L2 40L2 39L4 39L4 40L3 40L3 41L2 41L2 42L0 42L0 44L1 44L1 47L2 47L2 48L3 48L3 47L4 47L4 49L2 49L2 50L0 50L0 51L2 51L2 52L0 52L0 55L1 55L1 56L2 56L2 57L1 57L1 58L0 58L0 61L1 61L1 58L2 58L2 59L3 59L3 56L4 56L4 55L7 55L7 54L8 54L8 56L9 56L9 58L8 58L8 57L7 57L7 56L5 56L5 58L4 58L4 59L8 59L8 60L6 60L6 61L8 61L8 63L11 63L11 64L8 64L8 69L10 69L10 68L9 68L9 65L10 65L10 66L11 66L11 65L12 65L12 68L11 68L11 69L12 69L12 68L13 68L13 69L14 69L14 68L16 68L16 67L15 67L15 65L13 65L13 64L18 64L18 65L17 65L17 69L19 69L19 67L20 67L20 66L19 66L19 65L20 65L20 64L19 64L19 62L18 62L18 63L17 63L17 62L16 62L16 63L15 63L15 62L14 62L14 63L13 63L13 61L12 61L12 59L13 59L13 60L14 60L14 61L15 61L15 59L16 59L16 60L17 60L17 61L22 61L22 62L20 62L20 63L21 63L21 64L23 64L23 65L21 65L21 66L23 66L23 67L21 67L21 68L20 68L20 69L21 69L21 68L23 68L23 69L26 69L26 67L24 67L24 66L25 66L25 65L28 65L28 66L27 66L27 67L28 67L28 68L27 68L27 69L28 69L28 68L29 68L29 69L32 69L32 68L33 68L33 69L35 69L35 68L36 68L36 69L38 69L38 68L37 68L37 66L38 66L38 67L39 67L39 66L38 66L38 65L39 65L39 64L41 64L41 66L40 66L40 67L41 67L41 68L43 68L43 69L44 69L44 68L47 68L47 69L49 69L49 67L50 67L50 68L51 68L51 67L52 67L52 66L53 66L53 68L54 68L54 69L56 69L56 68L57 68L57 69L58 69L58 68L59 68L59 69L60 69L60 68L62 68L62 67L63 67L63 68L64 68L64 66L67 66L67 65L68 65L68 64L69 64L69 63L68 63L68 62L69 62L69 59L68 59L68 58L69 58L69 57L68 57L68 58L67 58L67 59L65 59L65 60L62 60L62 57L61 57L61 56L63 56L63 57L64 57L64 56L65 56L65 57L66 57L66 56L68 56L68 55L66 55L66 54L65 54L65 55L62 55L62 53L64 53L64 51L65 51L65 53L66 53L66 52L68 52L68 50L69 50L69 48L68 48L68 46L69 46L69 45L67 45L67 44L68 44L68 42L66 42L66 41L65 41L65 40L68 40L68 38L67 38L67 37L68 37L68 36L69 36L69 35L68 35L68 34L69 34L69 33L68 33L68 32L67 32L67 31L68 31L68 30L69 30L69 28L68 28L68 30L67 30L67 31L65 31L65 30L64 30L64 29L63 29L63 31L62 31L62 32L61 32L61 30L62 30L62 29L61 29L61 28L62 28L62 25L63 25L63 28L67 28L67 27L68 27L68 25L69 25L69 24L68 24L68 18L69 18L69 16L68 16L68 13L67 13L67 12L68 12L68 11L67 11L67 10L69 10L69 9L68 9L68 8L67 8L67 9L66 9L66 8L65 8L65 9L64 9L64 8L63 8L63 11L61 11L61 10L62 10L62 8L61 8L61 6L60 6L60 8L58 8L58 7L59 7L59 4L55 4L55 3L59 3L59 2L56 2L56 0L51 0L51 1L53 1L53 2L55 2L55 3L54 3L54 4L53 4L53 5L50 5L50 4L51 4L51 3L50 3L50 4L49 4L49 2L50 2L50 0L49 0L49 2L47 2L47 1L48 1L48 0L47 0L47 1L46 1L46 0L44 0L44 1L46 1L46 2L47 2L47 4L48 4L48 5L47 5L47 6L46 6L46 5L44 5L44 3L45 3L45 4L46 4L46 3L45 3L45 2L44 2L44 3L43 3L43 0L39 0L39 1L38 1L38 0L37 0L37 1L35 1L35 0L33 0L33 1L35 1L35 4L33 4L33 3L32 3L32 4L31 4L31 1L32 1L32 0L31 0L31 1L29 1L29 0L28 0L28 1L25 1L25 0L21 0L21 2L22 2L22 1L24 1L24 2L23 2L23 3L24 3L24 4L22 4L22 3L17 3L17 4L16 4L16 2L15 2L15 3L14 3L14 1L15 1L15 0L14 0L14 1L13 1L13 0L12 0L12 1L11 1L11 2L10 2L10 0ZM16 0L16 1L17 1L17 2L18 2L18 1L19 1L19 2L20 2L20 1L19 1L19 0ZM57 0L57 1L61 1L61 0ZM12 1L12 2L11 2L11 3L12 3L12 2L13 2L13 1ZM37 1L37 3L38 3L38 4L37 4L37 5L38 5L38 6L37 6L37 7L38 7L38 6L39 6L39 7L40 7L40 6L41 6L41 8L37 8L37 9L38 9L38 10L36 10L36 9L34 9L34 10L32 10L32 5L30 5L30 4L29 4L29 3L30 3L30 2L29 2L29 3L28 3L28 2L27 2L27 3L26 3L26 4L25 4L25 7L24 7L24 6L23 6L23 5L22 5L22 4L19 4L19 5L20 5L20 6L19 6L19 8L20 8L20 10L19 10L19 9L18 9L18 8L17 8L17 7L18 7L18 5L17 5L17 7L16 7L16 5L15 5L15 4L13 4L13 5L15 5L15 8L17 8L17 9L18 9L18 10L19 10L19 13L20 13L20 14L21 14L21 15L19 15L19 14L18 14L18 13L16 13L16 12L15 12L15 11L17 11L17 12L18 12L18 11L17 11L17 10L16 10L16 9L15 9L15 11L14 11L14 13L15 13L15 14L12 14L12 17L13 17L13 18L14 18L14 19L12 19L12 18L11 18L11 19L10 19L10 21L9 21L9 18L10 18L10 17L11 17L11 16L10 16L10 15L9 15L9 18L8 18L8 17L6 17L6 18L5 18L5 19L6 19L6 20L7 20L7 21L6 21L6 22L7 22L7 23L6 23L6 24L5 24L5 20L4 20L4 22L3 22L3 23L4 23L4 24L2 24L2 25L1 25L1 26L3 26L3 27L1 27L1 28L3 28L3 27L5 27L5 28L7 28L7 27L8 27L8 28L11 28L11 29L9 29L9 31L10 31L10 33L9 33L9 34L13 34L13 35L11 35L11 36L13 36L13 38L12 38L12 37L11 37L11 38L12 38L12 39L9 39L9 37L5 37L5 38L4 38L4 36L3 36L3 38L4 38L4 39L5 39L5 40L4 40L4 41L6 41L6 42L8 42L8 40L10 40L10 41L11 41L11 40L12 40L12 39L13 39L13 40L14 40L14 41L16 41L16 42L14 42L14 43L16 43L16 44L15 44L15 46L14 46L14 45L13 45L13 46L11 46L11 45L10 45L10 44L13 44L13 42L12 42L12 43L6 43L6 44L8 44L8 45L6 45L6 46L5 46L5 45L4 45L4 42L2 42L2 44L3 44L3 45L2 45L2 47L3 47L3 46L4 46L4 47L6 47L6 48L5 48L5 50L4 50L4 53L2 53L2 54L1 54L1 55L4 55L4 54L7 54L7 53L9 53L9 56L10 56L10 54L13 54L13 52L14 52L14 49L16 49L16 50L15 50L15 52L16 52L16 53L15 53L15 54L17 54L17 55L16 55L16 57L14 57L14 58L16 58L16 57L17 57L17 60L21 60L21 59L18 59L18 58L19 58L19 57L20 57L20 58L21 58L21 57L22 57L22 59L23 59L23 60L22 60L22 61L23 61L23 62L22 62L22 63L23 63L23 64L26 64L26 63L25 63L25 62L26 62L26 61L27 61L27 63L29 63L29 64L28 64L28 65L29 65L29 68L32 68L32 67L30 67L30 65L29 65L29 64L31 64L31 63L32 63L32 60L35 60L35 59L37 59L37 60L38 60L38 64L37 64L37 65L38 65L38 64L39 64L39 63L41 63L41 64L44 64L44 66L41 66L41 67L43 67L43 68L44 68L44 66L45 66L45 67L46 67L46 66L48 66L48 67L49 67L49 66L48 66L48 65L47 65L47 63L50 63L50 64L49 64L49 65L50 65L50 67L51 67L51 65L53 65L53 63L54 63L54 62L53 62L53 63L51 63L51 61L54 61L54 60L56 60L56 61L57 61L57 62L59 62L59 65L57 65L57 63L56 63L56 62L55 62L55 63L56 63L56 66L54 66L54 68L56 68L56 67L57 67L57 68L58 68L58 66L59 66L59 65L60 65L60 62L59 62L59 61L60 61L60 60L61 60L61 57L60 57L60 56L61 56L61 55L60 55L60 54L59 54L59 53L62 53L62 51L64 51L64 50L65 50L65 51L66 51L66 50L65 50L65 49L68 49L68 48L65 48L65 47L66 47L66 45L62 45L62 44L61 44L61 43L63 43L63 42L65 42L65 43L66 43L66 42L65 42L65 41L63 41L63 40L61 40L61 39L65 39L65 37L67 37L67 36L68 36L68 35L67 35L67 34L68 34L68 33L67 33L67 32L66 32L66 33L65 33L65 35L67 35L67 36L65 36L65 37L64 37L64 38L61 38L61 37L60 37L60 35L59 35L59 34L60 34L60 33L57 33L57 32L58 32L58 31L57 31L57 30L59 30L59 31L60 31L60 30L59 30L59 28L58 28L58 27L59 27L59 26L60 26L60 27L61 27L61 26L60 26L60 25L62 25L62 24L63 24L63 25L65 25L65 24L64 24L64 22L66 22L66 23L67 23L67 22L66 22L66 21L67 21L67 20L65 20L65 18L67 18L67 17L68 17L68 16L67 16L67 17L66 17L66 16L65 16L65 14L67 14L67 13L66 13L66 12L64 12L64 11L63 11L63 12L64 12L64 13L62 13L62 12L61 12L61 11L59 11L59 12L58 12L58 13L57 13L57 12L56 12L56 11L58 11L58 10L60 10L60 9L61 9L61 8L60 8L60 9L58 9L58 8L56 8L56 6L57 6L57 7L58 7L58 6L57 6L57 5L56 5L56 6L55 6L55 7L54 7L54 6L53 6L53 7L52 7L52 6L51 6L51 7L50 7L50 6L49 6L49 7L50 7L50 8L51 8L51 9L49 9L49 10L47 10L47 7L48 7L48 6L47 6L47 7L46 7L46 6L45 6L45 7L44 7L44 5L43 5L43 7L42 7L42 6L41 6L41 2L42 2L42 1L41 1L41 2L40 2L40 3L39 3L39 2L38 2L38 1ZM42 3L42 4L43 4L43 3ZM60 3L60 5L61 5L61 3ZM21 5L21 6L20 6L20 7L21 7L21 6L22 6L22 7L23 7L23 8L24 8L24 9L23 9L23 10L24 10L24 9L25 9L25 10L26 10L26 7L27 7L27 5L26 5L26 7L25 7L25 8L24 8L24 7L23 7L23 6L22 6L22 5ZM29 5L29 6L28 6L28 9L30 9L30 11L32 11L32 10L31 10L31 9L30 9L30 8L29 8L29 6L30 6L30 7L31 7L31 6L30 6L30 5ZM33 5L33 8L36 8L36 5ZM39 5L39 6L40 6L40 5ZM9 6L9 7L10 7L10 6ZM11 6L11 7L12 7L12 8L13 8L13 7L14 7L14 6L13 6L13 7L12 7L12 6ZM34 6L34 7L35 7L35 6ZM45 7L45 9L44 9L44 8L43 8L43 9L39 9L39 10L38 10L38 11L37 11L37 14L35 14L35 15L36 15L36 16L35 16L35 17L33 17L33 16L34 16L34 15L33 15L33 16L32 16L32 15L31 15L31 16L30 16L30 14L29 14L29 18L30 18L30 19L31 19L31 20L28 20L28 19L27 19L27 21L31 21L31 20L32 20L32 19L36 19L36 20L33 20L33 21L32 21L32 22L30 22L30 23L29 23L29 22L27 22L27 23L25 23L25 24L23 24L23 23L24 23L24 22L25 22L25 21L26 21L26 20L25 20L25 19L26 19L26 17L24 17L24 16L26 16L26 15L24 15L24 14L27 14L27 15L28 15L28 14L27 14L27 13L28 13L28 11L27 11L27 13L25 13L25 12L26 12L26 11L25 11L25 12L24 12L24 11L21 11L21 12L20 12L20 13L21 13L21 14L22 14L22 13L21 13L21 12L23 12L23 17L18 17L18 16L17 16L17 15L18 15L18 14L17 14L17 15L16 15L16 14L15 14L15 15L13 15L13 16L14 16L14 17L18 17L18 19L19 19L19 20L17 20L17 21L16 21L16 20L14 20L14 22L15 22L15 23L14 23L14 24L13 24L13 22L12 22L12 21L13 21L13 20L12 20L12 21L10 21L10 22L9 22L9 21L8 21L8 22L9 22L9 23L7 23L7 24L6 24L6 25L5 25L5 26L6 26L6 27L7 27L7 26L10 26L10 27L11 27L11 28L12 28L12 29L11 29L11 31L12 31L12 32L11 32L11 33L12 33L12 32L13 32L13 34L15 34L15 33L16 33L16 32L15 32L15 33L14 33L14 32L13 32L13 31L16 31L16 30L15 30L15 29L14 29L14 28L13 28L13 27L14 27L14 26L15 26L15 27L16 27L16 28L17 28L17 30L18 30L18 31L17 31L17 32L18 32L18 33L17 33L17 34L19 34L19 35L20 35L20 34L19 34L19 33L20 33L20 32L22 32L22 31L23 31L23 30L25 30L25 31L26 31L26 32L25 32L25 33L21 33L21 36L23 36L23 34L24 34L24 36L25 36L25 37L23 37L23 38L26 38L26 36L27 36L27 37L28 37L28 36L29 36L29 39L27 39L27 40L29 40L29 41L30 41L30 44L29 44L29 45L30 45L30 46L29 46L29 47L31 47L31 45L33 45L33 44L34 44L34 43L35 43L35 44L36 44L36 45L37 45L37 46L36 46L36 47L35 47L35 46L34 46L34 47L33 47L33 46L32 46L32 47L33 47L33 48L36 48L36 47L37 47L37 50L36 50L36 49L34 49L34 50L33 50L33 49L31 49L31 48L29 48L29 49L30 49L30 50L33 50L33 51L34 51L34 50L36 50L36 51L35 51L35 52L36 52L36 53L35 53L35 54L34 54L34 55L31 55L31 54L33 54L33 53L34 53L34 52L33 52L33 53L32 53L32 52L31 52L31 51L29 51L29 52L28 52L28 51L26 51L26 49L24 49L24 48L26 48L26 47L24 47L24 46L25 46L25 45L26 45L26 46L27 46L27 47L28 47L28 46L27 46L27 45L26 45L26 44L28 44L28 43L29 43L29 42L28 42L28 43L27 43L27 41L26 41L26 39L23 39L23 40L24 40L24 41L23 41L23 42L24 42L24 41L26 41L26 42L25 42L25 43L26 43L26 44L24 44L24 43L23 43L23 47L24 47L24 48L23 48L23 49L22 49L22 50L23 50L23 49L24 49L24 50L25 50L25 51L22 51L22 52L24 52L24 53L23 53L23 54L22 54L22 55L20 55L20 53L19 53L19 52L21 52L21 49L18 49L18 48L17 48L17 47L18 47L18 46L19 46L19 47L20 47L20 48L22 48L22 47L20 47L20 45L21 45L21 43L22 43L22 42L21 42L21 43L20 43L20 42L18 42L18 41L22 41L22 40L21 40L21 39L22 39L22 38L20 38L20 36L18 36L18 35L17 35L17 38L16 38L16 40L17 40L17 38L19 38L19 40L18 40L18 41L17 41L17 43L18 43L18 44L17 44L17 47L15 47L15 48L16 48L16 49L18 49L18 50L20 50L20 51L17 51L17 53L19 53L19 54L18 54L18 55L17 55L17 57L19 57L19 56L20 56L20 57L21 57L21 56L22 56L22 57L24 57L24 58L23 58L23 59L24 59L24 60L23 60L23 61L24 61L24 62L23 62L23 63L24 63L24 62L25 62L25 61L26 61L26 60L27 60L27 59L28 59L28 60L29 60L29 62L31 62L31 59L30 59L30 58L32 58L32 59L35 59L35 58L33 58L33 57L31 57L31 56L34 56L34 55L35 55L35 57L37 57L37 59L38 59L38 60L39 60L39 62L40 62L40 59L41 59L41 58L42 58L42 60L41 60L41 62L42 62L42 63L43 63L43 61L44 61L44 59L43 59L43 57L44 57L44 56L46 56L46 57L49 57L49 58L47 58L47 59L46 59L46 58L45 58L45 59L46 59L46 60L47 60L47 62L46 62L46 61L45 61L45 62L46 62L46 63L47 63L47 62L50 62L50 61L49 61L49 60L50 60L50 59L54 59L54 58L55 58L55 59L56 59L56 58L57 58L57 61L59 61L59 58L60 58L60 57L59 57L59 54L55 54L55 53L56 53L56 52L55 52L55 53L51 53L51 54L50 54L50 53L49 53L49 51L50 51L50 52L54 52L54 51L56 51L56 50L57 50L57 51L58 51L58 50L57 50L57 49L55 49L55 48L57 48L57 47L58 47L58 46L56 46L56 44L55 44L55 42L57 42L57 45L59 45L59 43L58 43L58 42L57 42L57 41L59 41L59 39L57 39L57 38L56 38L56 35L57 35L57 36L58 36L58 37L59 37L59 35L57 35L57 34L56 34L56 30L57 30L57 29L56 29L56 28L55 28L55 27L57 27L57 26L56 26L56 25L55 25L55 24L57 24L57 25L60 25L60 24L61 24L61 23L62 23L62 19L63 19L63 20L64 20L64 19L63 19L63 18L65 18L65 17L63 17L63 18L62 18L62 16L64 16L64 15L62 15L62 13L59 13L59 14L61 14L61 15L60 15L60 16L58 16L58 14L57 14L57 13L56 13L56 12L55 12L55 11L56 11L56 8L55 8L55 9L54 9L54 8L53 8L53 9L51 9L51 10L49 10L49 11L50 11L50 12L47 12L47 14L49 14L49 16L47 16L47 17L49 17L49 18L46 18L46 17L45 17L45 18L44 18L44 19L45 19L45 18L46 18L46 19L49 19L49 18L50 18L50 20L46 20L46 21L49 21L49 22L47 22L47 24L46 24L46 22L44 22L44 20L43 20L43 17L44 17L44 16L45 16L45 14L44 14L44 16L42 16L42 17L41 17L41 18L39 18L39 19L38 19L38 17L39 17L39 16L40 16L40 15L42 15L42 14L43 14L43 13L44 13L44 11L43 11L43 13L42 13L42 14L41 14L41 12L42 12L42 10L45 10L45 9L46 9L46 7ZM51 7L51 8L52 8L52 7ZM9 8L9 9L8 9L8 11L9 11L9 12L10 12L10 13L11 13L11 11L12 11L12 12L13 12L13 11L12 11L12 10L14 10L14 9L10 9L10 8ZM21 8L21 9L22 9L22 8ZM1 10L1 12L2 12L2 11L3 11L3 10ZM9 10L9 11L10 11L10 10ZM34 10L34 11L36 11L36 10ZM51 10L51 12L50 12L50 16L51 16L51 17L50 17L50 18L51 18L51 20L50 20L50 22L49 22L49 23L48 23L48 24L47 24L47 25L46 25L46 24L45 24L45 23L44 23L44 22L41 22L41 20L42 20L42 19L39 19L39 21L40 21L40 22L37 22L37 23L38 23L38 24L37 24L37 25L38 25L38 26L37 26L37 27L38 27L38 28L40 28L40 29L38 29L38 30L37 30L37 31L35 31L35 32L38 32L38 34L37 34L37 36L38 36L38 37L36 37L36 38L35 38L35 37L34 37L34 38L33 38L33 39L32 39L32 36L31 36L31 38L30 38L30 39L29 39L29 40L30 40L30 41L31 41L31 44L32 44L32 41L35 41L35 42L37 42L37 43L38 43L38 42L39 42L39 43L40 43L40 44L37 44L37 45L38 45L38 46L37 46L37 47L40 47L40 48L38 48L38 50L37 50L37 51L39 51L39 50L41 50L41 51L40 51L40 52L39 52L39 54L37 54L37 53L38 53L38 52L37 52L37 53L36 53L36 54L35 54L35 55L38 55L38 56L37 56L37 57L38 57L38 59L39 59L39 57L41 57L41 56L39 56L39 55L41 55L41 54L40 54L40 53L43 53L43 54L42 54L42 55L43 55L43 56L42 56L42 57L43 57L43 56L44 56L44 53L45 53L45 54L46 54L46 56L48 56L48 55L47 55L47 53L45 53L45 52L46 52L46 51L48 51L48 50L49 50L49 49L50 49L50 51L51 51L51 50L52 50L52 51L53 51L53 50L52 50L52 49L54 49L54 48L55 48L55 47L54 47L54 48L52 48L52 47L53 47L53 45L55 45L55 44L53 44L53 42L52 42L52 43L50 43L50 42L51 42L51 41L53 41L53 40L54 40L54 41L55 41L55 40L56 40L56 41L57 41L57 40L56 40L56 38L55 38L55 40L54 40L54 38L53 38L53 35L54 35L54 36L55 36L55 35L56 35L56 34L55 34L55 35L54 35L54 34L53 34L53 33L54 33L54 32L53 32L53 28L54 28L54 27L55 27L55 26L54 26L54 25L53 25L53 24L54 24L54 23L55 23L55 22L53 22L53 20L55 20L55 18L51 18L51 17L54 17L54 16L55 16L55 14L56 14L56 13L55 13L55 14L54 14L54 15L53 15L53 16L52 16L52 14L51 14L51 13L53 13L53 12L54 12L54 11L52 11L52 10ZM65 10L65 11L66 11L66 10ZM40 11L40 12L38 12L38 15L37 15L37 17L35 17L35 18L37 18L37 17L38 17L38 15L40 15L40 14L39 14L39 13L40 13L40 12L41 12L41 11ZM45 11L45 13L46 13L46 11ZM6 12L6 13L7 13L7 12ZM29 12L29 13L32 13L32 12ZM34 12L34 13L33 13L33 14L34 14L34 13L36 13L36 12ZM64 13L64 14L65 14L65 13ZM4 14L4 15L5 15L5 14ZM15 15L15 16L16 16L16 15ZM56 15L56 23L57 23L57 22L58 22L58 23L59 23L59 22L60 22L60 21L61 21L61 20L60 20L60 21L57 21L57 20L58 20L58 19L62 19L62 18L59 18L59 17L58 17L58 16L57 16L57 15ZM61 15L61 16L62 16L62 15ZM31 16L31 18L32 18L32 16ZM27 17L27 18L28 18L28 17ZM6 18L6 19L7 19L7 20L8 20L8 19L7 19L7 18ZM15 18L15 19L16 19L16 18ZM19 18L19 19L20 19L20 18ZM22 18L22 19L24 19L24 18ZM57 18L57 19L58 19L58 18ZM52 19L52 20L53 20L53 19ZM20 20L20 22L19 22L19 21L17 21L17 23L18 23L18 24L19 24L19 23L20 23L20 24L21 24L21 25L19 25L19 26L18 26L18 25L17 25L17 24L16 24L16 23L15 23L15 24L14 24L14 25L13 25L13 24L10 24L10 23L9 23L9 25L10 25L10 26L11 26L11 27L12 27L12 25L13 25L13 26L14 26L14 25L15 25L15 26L16 26L16 25L17 25L17 26L18 26L18 27L19 27L19 28L20 28L20 31L22 31L22 29L23 29L23 28L24 28L24 27L23 27L23 26L24 26L24 25L22 25L22 24L21 24L21 23L22 23L22 22L23 22L23 21L24 21L24 20ZM36 20L36 21L38 21L38 20ZM33 21L33 22L32 22L32 24L31 24L31 26L29 26L29 25L30 25L30 24L29 24L29 25L28 25L28 23L27 23L27 24L25 24L25 25L28 25L28 26L25 26L25 28L26 28L26 29L25 29L25 30L29 30L29 27L30 27L30 28L31 28L31 29L30 29L30 30L31 30L31 29L32 29L32 28L31 28L31 27L33 27L33 28L34 28L34 29L33 29L33 30L32 30L32 32L31 32L31 31L28 31L28 33L25 33L25 34L28 34L28 33L29 33L29 32L31 32L31 34L30 34L30 35L29 35L29 36L30 36L30 35L32 35L32 32L34 32L34 31L33 31L33 30L34 30L34 29L35 29L35 30L36 30L36 28L35 28L35 27L36 27L36 26L32 26L32 24L34 24L34 25L36 25L36 23L34 23L34 22L35 22L35 21ZM63 21L63 22L64 22L64 21ZM18 22L18 23L19 23L19 22ZM40 22L40 23L41 23L41 24L42 24L42 25L41 25L41 26L39 26L39 27L42 27L42 30L45 30L45 29L44 29L44 28L47 28L47 32L46 32L46 31L44 31L44 32L43 32L43 31L40 31L40 30L38 30L38 32L43 32L43 33L40 33L40 35L39 35L39 34L38 34L38 35L39 35L39 36L41 36L41 34L43 34L43 33L44 33L44 36L43 36L43 37L41 37L41 38L42 38L42 39L45 39L45 40L47 40L47 41L48 41L48 42L50 42L50 41L51 41L51 40L52 40L52 39L53 39L53 38L52 38L52 39L51 39L51 40L50 40L50 39L49 39L49 38L50 38L50 35L51 35L51 36L52 36L52 33L51 33L51 32L52 32L52 31L50 31L50 29L51 29L51 30L52 30L52 29L51 29L51 28L53 28L53 27L54 27L54 26L52 26L52 25L51 25L51 28L50 28L50 27L49 27L49 26L50 26L50 24L52 24L52 23L51 23L51 22L50 22L50 24L48 24L48 25L47 25L47 26L48 26L48 27L49 27L49 28L47 28L47 27L46 27L46 26L43 26L43 25L44 25L44 24L43 24L43 23L41 23L41 22ZM15 24L15 25L16 25L16 24ZM6 25L6 26L7 26L7 25ZM21 25L21 26L22 26L22 25ZM48 25L48 26L49 26L49 25ZM66 25L66 26L64 26L64 27L67 27L67 25ZM20 27L20 28L21 28L21 29L22 29L22 28L23 28L23 27ZM43 27L43 28L44 28L44 27ZM6 29L6 30L7 30L7 29ZM12 29L12 30L14 30L14 29ZM48 29L48 30L49 30L49 29ZM49 31L49 33L46 33L46 32L44 32L44 33L45 33L45 36L44 36L44 37L45 37L45 38L47 38L47 40L49 40L49 39L48 39L48 38L49 38L49 37L45 37L45 36L48 36L48 34L49 34L49 35L50 35L50 34L51 34L51 33L50 33L50 31ZM63 31L63 32L64 32L64 31ZM5 33L5 36L8 36L8 33ZM33 33L33 36L36 36L36 33ZM49 33L49 34L50 34L50 33ZM61 33L61 36L64 36L64 33ZM6 34L6 35L7 35L7 34ZM34 34L34 35L35 35L35 34ZM62 34L62 35L63 35L63 34ZM9 35L9 36L10 36L10 35ZM13 35L13 36L14 36L14 38L13 38L13 39L15 39L15 36L16 36L16 35ZM25 35L25 36L26 36L26 35ZM27 35L27 36L28 36L28 35ZM39 37L39 38L40 38L40 37ZM6 38L6 39L8 39L8 38ZM34 38L34 39L33 39L33 40L34 40L34 39L35 39L35 40L38 40L38 41L37 41L37 42L38 42L38 41L39 41L39 40L41 40L41 41L40 41L40 43L41 43L41 44L40 44L40 45L39 45L39 46L40 46L40 47L41 47L41 48L42 48L42 49L41 49L41 50L42 50L42 51L41 51L41 52L43 52L43 53L44 53L44 52L45 52L45 49L46 49L46 46L45 46L45 45L44 45L44 47L43 47L43 48L42 48L42 46L43 46L43 44L45 44L45 42L44 42L44 40L41 40L41 39L39 39L39 40L38 40L38 38L37 38L37 39L35 39L35 38ZM31 39L31 40L32 40L32 39ZM6 40L6 41L7 41L7 40ZM61 41L61 42L63 42L63 41ZM43 42L43 43L44 43L44 42ZM46 42L46 43L47 43L47 44L46 44L46 45L47 45L47 46L49 46L49 47L47 47L47 49L49 49L49 48L51 48L51 49L52 49L52 48L51 48L51 46L52 46L52 45L51 45L51 46L49 46L49 45L50 45L50 44L48 44L48 43L47 43L47 42ZM19 44L19 45L20 45L20 44ZM9 45L9 46L6 46L6 47L9 47L9 48L10 48L10 47L9 47L9 46L10 46L10 45ZM41 45L41 46L42 46L42 45ZM60 46L60 47L62 47L62 50L61 50L61 48L60 48L60 49L59 49L59 52L57 52L57 53L59 53L59 52L60 52L60 50L61 50L61 51L62 51L62 50L63 50L63 49L64 49L64 48L63 48L63 47L65 47L65 46L63 46L63 47L62 47L62 46ZM11 47L11 49L14 49L14 47ZM44 47L44 49L43 49L43 50L44 50L44 49L45 49L45 47ZM0 48L0 49L1 49L1 48ZM6 48L6 49L8 49L8 48ZM9 49L9 50L8 50L8 52L9 52L9 51L10 51L10 53L11 53L11 50L10 50L10 49ZM27 49L27 50L28 50L28 49ZM6 50L6 51L5 51L5 52L6 52L6 53L7 53L7 52L6 52L6 51L7 51L7 50ZM12 50L12 51L13 51L13 50ZM43 51L43 52L44 52L44 51ZM26 52L26 54L24 54L24 55L26 55L26 54L27 54L27 56L25 56L25 57L27 57L27 58L29 58L29 57L30 57L30 56L29 56L29 57L27 57L27 56L28 56L28 55L30 55L30 54L31 54L31 53L30 53L30 52L29 52L29 53L28 53L28 52ZM29 53L29 54L30 54L30 53ZM48 53L48 54L49 54L49 56L50 56L50 58L49 58L49 59L47 59L47 60L49 60L49 59L50 59L50 58L51 58L51 57L53 57L53 55L55 55L55 56L56 56L56 57L55 57L55 58L56 58L56 57L57 57L57 58L59 58L59 57L58 57L58 55L57 55L57 56L56 56L56 55L55 55L55 54L53 54L53 55L50 55L50 54L49 54L49 53ZM67 53L67 54L69 54L69 53ZM11 55L11 56L12 56L12 58L13 58L13 56L14 56L14 55L13 55L13 56L12 56L12 55ZM6 57L6 58L7 58L7 57ZM10 57L10 58L9 58L9 62L10 62L10 61L11 61L11 63L12 63L12 61L11 61L11 57ZM25 58L25 60L24 60L24 61L25 61L25 60L26 60L26 58ZM63 58L63 59L64 59L64 58ZM3 60L3 61L5 61L5 60ZM42 60L42 61L43 61L43 60ZM67 60L67 61L68 61L68 60ZM33 61L33 64L36 64L36 61ZM61 61L61 64L64 64L64 61ZM34 62L34 63L35 63L35 62ZM62 62L62 63L63 63L63 62ZM65 62L65 63L66 63L66 62ZM44 63L44 64L45 64L45 66L46 66L46 64L45 64L45 63ZM67 63L67 64L65 64L65 65L67 65L67 64L68 64L68 63ZM31 65L31 66L32 66L32 65ZM33 65L33 67L34 67L34 66L36 66L36 65ZM61 65L61 67L62 67L62 66L64 66L64 65ZM18 66L18 67L19 67L19 66ZM13 67L13 68L14 68L14 67ZM23 67L23 68L24 68L24 67ZM59 67L59 68L60 68L60 67ZM65 67L65 69L68 69L68 68L67 68L67 67ZM0 0L0 7L7 7L7 0ZM1 1L1 6L6 6L6 1ZM2 2L2 5L5 5L5 2ZM62 0L62 7L69 7L69 0ZM63 1L63 6L68 6L68 1ZM64 2L64 5L67 5L67 2ZM0 62L0 69L7 69L7 62ZM1 63L1 68L6 68L6 63ZM2 64L2 67L5 67L5 64Z" fill="#000000"/></g></g></svg>
