<?xml version="1.0" encoding="UTF-8"?>
<svg xmlns="http://www.w3.org/2000/svg" version="1.1" width="300" height="300" viewBox="0 0 300 300"><rect x="0" y="0" width="300" height="300" fill="#ffffff"/><g transform="scale(4.348)"><g transform="translate(0,0)"><path fill-rule="evenodd" d="M9 0L9 1L8 1L8 2L10 2L10 4L9 4L9 3L8 3L8 4L9 4L9 5L8 5L8 7L9 7L9 6L10 6L10 8L11 8L11 9L9 9L9 8L6 8L6 9L8 9L8 10L9 10L9 12L8 12L8 11L7 11L7 10L6 10L6 11L4 11L4 9L5 9L5 8L0 8L0 12L1 12L1 10L2 10L2 11L4 11L4 13L3 13L3 14L2 14L2 13L1 13L1 14L0 14L0 18L2 18L2 19L1 19L1 20L2 20L2 21L1 21L1 22L0 22L0 27L1 27L1 28L3 28L3 29L1 29L1 31L0 31L0 33L3 33L3 34L1 34L1 35L3 35L3 34L4 34L4 37L3 37L3 36L0 36L0 38L2 38L2 39L1 39L1 40L0 40L0 41L2 41L2 42L4 42L4 43L5 43L5 41L2 41L2 39L3 39L3 40L4 40L4 39L5 39L5 40L6 40L6 41L7 41L7 42L6 42L6 43L7 43L7 42L8 42L8 44L9 44L9 41L8 41L8 40L9 40L9 38L11 38L11 37L12 37L12 39L11 39L11 40L12 40L12 39L13 39L13 38L14 38L14 37L16 37L16 36L17 36L17 39L14 39L14 41L13 41L13 42L16 42L16 41L15 41L15 40L17 40L17 45L18 45L18 46L16 46L16 48L15 48L15 45L16 45L16 43L15 43L15 44L14 44L14 43L13 43L13 44L12 44L12 41L10 41L10 42L11 42L11 44L12 44L12 45L9 45L9 46L8 46L8 48L6 48L6 49L4 49L4 46L6 46L6 47L7 47L7 46L6 46L6 45L7 45L7 44L5 44L5 45L3 45L3 44L1 44L1 42L0 42L0 45L1 45L1 46L2 46L2 47L0 47L0 53L1 53L1 50L2 50L2 51L4 51L4 53L3 53L3 52L2 52L2 55L1 55L1 54L0 54L0 57L1 57L1 58L0 58L0 61L1 61L1 58L2 58L2 59L3 59L3 57L7 57L7 56L8 56L8 55L9 55L9 53L8 53L8 52L10 52L10 55L11 55L11 57L12 57L12 55L13 55L13 58L11 58L11 59L10 59L10 56L9 56L9 59L8 59L8 60L9 60L9 59L10 59L10 60L11 60L11 61L13 61L13 63L14 63L14 62L15 62L15 61L16 61L16 60L18 60L18 61L17 61L17 62L16 62L16 63L15 63L15 65L16 65L16 63L17 63L17 64L18 64L18 65L17 65L17 66L16 66L16 67L17 67L17 66L18 66L18 67L20 67L20 66L19 66L19 65L20 65L20 64L19 64L19 62L20 62L20 61L22 61L22 62L23 62L23 63L22 63L22 64L23 64L23 65L21 65L21 67L24 67L24 68L25 68L25 69L26 69L26 66L25 66L25 65L28 65L28 66L27 66L27 67L28 67L28 68L27 68L27 69L28 69L28 68L29 68L29 69L32 69L32 68L33 68L33 69L34 69L34 68L33 68L33 65L37 65L37 66L38 66L38 67L39 67L39 68L41 68L41 69L42 69L42 68L43 68L43 69L44 69L44 68L47 68L47 69L49 69L49 68L50 68L50 69L51 69L51 68L52 68L52 67L51 67L51 68L50 68L50 65L51 65L51 66L54 66L54 67L53 67L53 69L56 69L56 68L55 68L55 66L57 66L57 67L58 67L58 66L57 66L57 65L58 65L58 64L57 64L57 65L56 65L56 63L59 63L59 65L60 65L60 66L59 66L59 68L60 68L60 69L62 69L62 65L64 65L64 66L63 66L63 69L64 69L64 68L65 68L65 69L68 69L68 68L67 68L67 67L64 67L64 66L65 66L65 64L67 64L67 65L66 65L66 66L67 66L67 65L69 65L69 64L68 64L68 62L69 62L69 61L68 61L68 62L67 62L67 59L68 59L68 60L69 60L69 59L68 59L68 57L69 57L69 56L68 56L68 55L63 55L63 56L62 56L62 58L60 58L60 57L61 57L61 56L60 56L60 57L59 57L59 56L57 56L57 57L59 57L59 58L57 58L57 59L59 59L59 60L57 60L57 61L59 61L59 60L60 60L60 62L56 62L56 60L54 60L54 59L56 59L56 55L57 55L57 53L59 53L59 54L60 54L60 55L62 55L62 54L63 54L63 53L64 53L64 52L63 52L63 51L61 51L61 52L62 52L62 54L60 54L60 53L59 53L59 52L60 52L60 49L59 49L59 48L58 48L58 49L59 49L59 50L57 50L57 49L54 49L54 48L53 48L53 47L52 47L52 48L51 48L51 46L49 46L49 45L50 45L50 44L51 44L51 43L50 43L50 44L48 44L48 43L49 43L49 42L50 42L50 41L49 41L49 39L50 39L50 40L54 40L54 39L55 39L55 37L56 37L56 35L57 35L57 37L59 37L59 36L58 36L58 35L57 35L57 34L56 34L56 35L55 35L55 33L56 33L56 32L57 32L57 33L59 33L59 34L60 34L60 38L59 38L59 39L57 39L57 38L56 38L56 40L55 40L55 41L51 41L51 42L54 42L54 43L53 43L53 46L55 46L55 48L57 48L57 47L58 47L58 46L57 46L57 45L58 45L58 44L57 44L57 45L56 45L56 43L55 43L55 41L56 41L56 42L57 42L57 41L59 41L59 42L61 42L61 43L59 43L59 44L60 44L60 45L61 45L61 46L60 46L60 47L62 47L62 49L61 49L61 50L62 50L62 49L64 49L64 48L63 48L63 47L65 47L65 48L68 48L68 49L67 49L67 51L65 51L65 52L66 52L66 53L67 53L67 54L69 54L69 53L67 53L67 52L68 52L68 50L69 50L69 47L68 47L68 46L69 46L69 44L68 44L68 42L69 42L69 41L68 41L68 42L66 42L66 43L64 43L64 44L65 44L65 45L66 45L66 47L65 47L65 46L63 46L63 45L62 45L62 44L63 44L63 43L62 43L62 42L61 42L61 41L62 41L62 40L60 40L60 41L59 41L59 39L62 39L62 38L64 38L64 37L65 37L65 38L66 38L66 39L63 39L63 40L64 40L64 41L65 41L65 40L67 40L67 39L68 39L68 38L67 38L67 37L68 37L68 36L69 36L69 35L68 35L68 34L69 34L69 33L68 33L68 32L69 32L69 31L68 31L68 30L69 30L69 27L68 27L68 26L67 26L67 27L65 27L65 25L63 25L63 24L67 24L67 25L69 25L69 24L68 24L68 22L69 22L69 21L68 21L68 18L69 18L69 17L68 17L68 16L69 16L69 15L68 15L68 12L69 12L69 11L68 11L68 10L69 10L69 9L68 9L68 8L67 8L67 11L65 11L65 9L66 9L66 8L65 8L65 9L64 9L64 8L63 8L63 9L64 9L64 10L63 10L63 11L56 11L56 10L57 10L57 9L59 9L59 10L62 10L62 8L61 8L61 6L60 6L60 9L59 9L59 8L57 8L57 9L56 9L56 8L55 8L55 4L56 4L56 3L57 3L57 4L58 4L58 7L59 7L59 4L58 4L58 3L59 3L59 2L58 2L58 1L61 1L61 0L56 0L56 1L57 1L57 2L56 2L56 3L54 3L54 2L55 2L55 0L51 0L51 1L50 1L50 0L49 0L49 1L48 1L48 0L47 0L47 3L48 3L48 4L47 4L47 5L48 5L48 7L47 7L47 6L46 6L46 5L44 5L44 3L45 3L45 4L46 4L46 3L45 3L45 2L44 2L44 3L43 3L43 0L41 0L41 1L37 1L37 0L35 0L35 2L36 2L36 3L35 3L35 4L31 4L31 1L32 1L32 2L34 2L34 0L33 0L33 1L32 1L32 0L31 0L31 1L29 1L29 0L28 0L28 1L27 1L27 2L28 2L28 3L29 3L29 6L28 6L28 5L27 5L27 4L26 4L26 2L25 2L25 0L21 0L21 2L22 2L22 1L23 1L23 2L25 2L25 3L24 3L24 4L22 4L22 3L18 3L18 2L20 2L20 1L19 1L19 0L17 0L17 1L16 1L16 0L11 0L11 1L10 1L10 0ZM44 0L44 1L45 1L45 0ZM13 1L13 4L16 4L16 5L17 5L17 7L18 7L18 8L20 8L20 10L17 10L17 8L16 8L16 10L15 10L15 11L16 11L16 12L15 12L15 13L14 13L14 15L13 15L13 16L12 16L12 14L13 14L13 12L12 12L12 11L11 11L11 10L10 10L10 12L12 12L12 14L10 14L10 13L9 13L9 16L8 16L8 15L6 15L6 14L8 14L8 13L5 13L5 15L3 15L3 16L1 16L1 17L2 17L2 18L3 18L3 22L1 22L1 24L2 24L2 23L3 23L3 24L4 24L4 25L3 25L3 26L5 26L5 24L4 24L4 23L6 23L6 24L7 24L7 25L6 25L6 26L7 26L7 27L5 27L5 28L4 28L4 27L3 27L3 28L4 28L4 29L5 29L5 31L6 31L6 32L10 32L10 34L11 34L11 35L9 35L9 36L12 36L12 35L13 35L13 34L14 34L14 36L13 36L13 37L14 37L14 36L16 36L16 35L17 35L17 36L20 36L20 38L18 38L18 39L17 39L17 40L20 40L20 38L21 38L21 37L22 37L22 39L21 39L21 40L22 40L22 41L20 41L20 42L23 42L23 43L22 43L22 44L21 44L21 43L18 43L18 44L21 44L21 45L20 45L20 46L21 46L21 45L22 45L22 47L23 47L23 48L21 48L21 47L19 47L19 46L18 46L18 47L17 47L17 48L18 48L18 49L15 49L15 50L13 50L13 48L14 48L14 46L13 46L13 48L12 48L12 47L9 47L9 48L8 48L8 50L7 50L7 49L6 49L6 50L7 50L7 51L5 51L5 50L4 50L4 51L5 51L5 53L6 53L6 54L7 54L7 55L5 55L5 56L7 56L7 55L8 55L8 53L6 53L6 52L8 52L8 51L12 51L12 50L13 50L13 51L14 51L14 52L13 52L13 53L12 53L12 52L11 52L11 53L12 53L12 54L11 54L11 55L12 55L12 54L13 54L13 55L15 55L15 54L17 54L17 53L18 53L18 54L19 54L19 55L20 55L20 58L19 58L19 61L18 61L18 62L17 62L17 63L18 63L18 62L19 62L19 61L20 61L20 60L22 60L22 61L23 61L23 62L24 62L24 61L25 61L25 60L26 60L26 62L27 62L27 61L28 61L28 62L29 62L29 61L28 61L28 59L29 59L29 60L31 60L31 62L30 62L30 63L29 63L29 64L28 64L28 65L29 65L29 68L32 68L32 67L31 67L31 66L32 66L32 65L29 65L29 64L31 64L31 63L32 63L32 60L31 60L31 59L32 59L32 56L33 56L33 58L35 58L35 59L34 59L34 60L35 60L35 59L37 59L37 60L39 60L39 59L38 59L38 58L39 58L39 57L41 57L41 56L39 56L39 55L41 55L41 53L43 53L43 54L42 54L42 55L43 55L43 56L42 56L42 57L43 57L43 59L44 59L44 61L43 61L43 60L42 60L42 58L41 58L41 59L40 59L40 62L39 62L39 61L38 61L38 62L37 62L37 63L38 63L38 62L39 62L39 63L41 63L41 64L39 64L39 65L38 65L38 64L37 64L37 65L38 65L38 66L39 66L39 67L40 67L40 66L41 66L41 67L43 67L43 68L44 68L44 66L45 66L45 67L46 67L46 66L47 66L47 67L48 67L48 68L49 68L49 66L47 66L47 65L48 65L48 64L49 64L49 63L53 63L53 62L51 62L51 60L52 60L52 61L54 61L54 60L52 60L52 59L53 59L53 57L55 57L55 56L53 56L53 55L52 55L52 54L54 54L54 55L56 55L56 53L57 53L57 50L55 50L55 51L54 51L54 50L52 50L52 51L54 51L54 52L56 52L56 53L55 53L55 54L54 54L54 53L53 53L53 52L50 52L50 51L51 51L51 48L50 48L50 47L49 47L49 46L47 46L47 44L46 44L46 42L47 42L47 43L48 43L48 42L47 42L47 40L48 40L48 39L47 39L47 40L45 40L45 39L42 39L42 38L41 38L41 35L43 35L43 36L44 36L44 37L45 37L45 38L49 38L49 37L45 37L45 36L48 36L48 35L47 35L47 34L49 34L49 36L50 36L50 39L52 39L52 38L53 38L53 39L54 39L54 38L53 38L53 37L55 37L55 35L54 35L54 34L52 34L52 33L53 33L53 32L54 32L54 31L52 31L52 32L51 32L51 33L50 33L50 31L51 31L51 29L50 29L50 30L49 30L49 29L48 29L48 30L49 30L49 33L45 33L45 32L44 32L44 31L45 31L45 30L47 30L47 29L45 29L45 28L44 28L44 27L43 27L43 28L44 28L44 29L43 29L43 30L42 30L42 27L39 27L39 26L41 26L41 25L42 25L42 24L41 24L41 22L37 22L37 21L38 21L38 20L37 20L37 19L39 19L39 20L40 20L40 21L43 21L43 20L44 20L44 22L43 22L43 24L44 24L44 25L43 25L43 26L46 26L46 27L47 27L47 28L49 28L49 27L47 27L47 25L48 25L48 24L49 24L49 25L50 25L50 26L53 26L53 27L55 27L55 28L56 28L56 29L55 29L55 30L56 30L56 31L60 31L60 30L59 30L59 29L60 29L60 26L59 26L59 24L61 24L61 25L62 25L62 26L61 26L61 29L62 29L62 30L61 30L61 31L63 31L63 32L64 32L64 31L67 31L67 29L68 29L68 27L67 27L67 28L63 28L63 25L62 25L62 23L63 23L63 22L65 22L65 23L67 23L67 22L68 22L68 21L67 21L67 20L65 20L65 18L63 18L63 17L66 17L66 16L65 16L65 15L64 15L64 16L62 16L62 15L61 15L61 14L64 14L64 13L65 13L65 14L67 14L67 13L66 13L66 12L64 12L64 11L63 11L63 12L62 12L62 13L61 13L61 12L58 12L58 13L57 13L57 12L56 12L56 11L55 11L55 12L56 12L56 13L55 13L55 14L54 14L54 15L55 15L55 14L56 14L56 13L57 13L57 14L58 14L58 15L56 15L56 17L55 17L55 18L54 18L54 17L53 17L53 16L52 16L52 15L53 15L53 13L54 13L54 12L53 12L53 11L54 11L54 10L53 10L53 11L52 11L52 10L51 10L51 9L53 9L53 8L54 8L54 9L55 9L55 10L56 10L56 9L55 9L55 8L54 8L54 6L53 6L53 2L54 2L54 1L52 1L52 2L51 2L51 4L50 4L50 1L49 1L49 2L48 2L48 3L49 3L49 4L48 4L48 5L49 5L49 4L50 4L50 5L51 5L51 7L50 7L50 6L49 6L49 7L50 7L50 8L51 8L51 9L49 9L49 10L47 10L47 7L46 7L46 6L45 6L45 7L44 7L44 5L43 5L43 7L42 7L42 6L41 6L41 5L40 5L40 6L39 6L39 4L43 4L43 3L42 3L42 1L41 1L41 2L37 2L37 3L38 3L38 4L37 4L37 5L38 5L38 6L37 6L37 8L38 8L38 10L36 10L36 9L35 9L35 10L36 10L36 11L33 11L33 9L32 9L32 11L31 11L31 10L30 10L30 9L31 9L31 7L32 7L32 5L30 5L30 6L29 6L29 7L28 7L28 6L27 6L27 7L26 7L26 4L25 4L25 5L24 5L24 6L23 6L23 5L22 5L22 4L20 4L20 6L19 6L19 7L18 7L18 5L19 5L19 4L18 4L18 3L17 3L17 2L15 2L15 3L14 3L14 1ZM11 2L11 3L12 3L12 2ZM29 2L29 3L30 3L30 2ZM60 3L60 5L61 5L61 3ZM11 4L11 5L10 5L10 6L11 6L11 7L12 7L12 6L13 6L13 8L12 8L12 9L13 9L13 11L14 11L14 9L15 9L15 7L16 7L16 6L15 6L15 5L14 5L14 6L13 6L13 5L12 5L12 4ZM17 4L17 5L18 5L18 4ZM51 4L51 5L52 5L52 4ZM21 5L21 6L20 6L20 7L21 7L21 6L22 6L22 7L23 7L23 8L24 8L24 9L23 9L23 10L24 10L24 9L26 9L26 12L24 12L24 11L22 11L22 12L23 12L23 14L25 14L25 13L26 13L26 14L27 14L27 16L29 16L29 19L31 19L31 20L29 20L29 21L33 21L33 22L30 22L30 23L29 23L29 22L28 22L28 24L27 24L27 25L28 25L28 24L30 24L30 25L29 25L29 26L30 26L30 27L28 27L28 28L27 28L27 26L26 26L26 28L25 28L25 25L26 25L26 24L25 24L25 23L26 23L26 22L27 22L27 21L26 21L26 20L28 20L28 19L27 19L27 18L28 18L28 17L27 17L27 18L26 18L26 17L22 17L22 16L23 16L23 15L22 15L22 13L21 13L21 14L20 14L20 12L21 12L21 11L20 11L20 12L19 12L19 11L17 11L17 10L16 10L16 11L17 11L17 13L15 13L15 14L17 14L17 15L18 15L18 14L19 14L19 16L21 16L21 17L18 17L18 16L16 16L16 15L15 15L15 16L16 16L16 17L14 17L14 16L13 16L13 19L11 19L11 21L10 21L10 20L9 20L9 19L10 19L10 17L11 17L11 18L12 18L12 16L10 16L10 17L9 17L9 18L5 18L5 16L6 16L6 17L7 17L7 16L6 16L6 15L5 15L5 16L4 16L4 18L5 18L5 19L7 19L7 20L5 20L5 22L6 22L6 23L7 23L7 22L6 22L6 21L7 21L7 20L9 20L9 21L8 21L8 25L9 25L9 26L11 26L11 25L10 25L10 22L12 22L12 23L11 23L11 24L12 24L12 25L13 25L13 26L12 26L12 27L9 27L9 28L8 28L8 29L7 29L7 28L6 28L6 29L7 29L7 30L6 30L6 31L9 31L9 30L8 30L8 29L10 29L10 30L11 30L11 29L14 29L14 28L15 28L15 27L16 27L16 28L17 28L17 30L16 30L16 31L17 31L17 32L18 32L18 33L17 33L17 35L20 35L20 34L19 34L19 33L20 33L20 31L22 31L22 32L24 32L24 33L23 33L23 34L22 34L22 36L23 36L23 40L24 40L24 41L23 41L23 42L24 42L24 41L26 41L26 44L24 44L24 43L23 43L23 44L24 44L24 45L23 45L23 47L24 47L24 48L23 48L23 50L25 50L25 51L27 51L27 52L28 52L28 53L27 53L27 54L26 54L26 52L25 52L25 53L24 53L24 52L23 52L23 53L24 53L24 54L22 54L22 53L21 53L21 54L22 54L22 55L21 55L21 56L22 56L22 57L21 57L21 58L20 58L20 59L22 59L22 60L23 60L23 61L24 61L24 60L25 60L25 59L26 59L26 58L27 58L27 59L28 59L28 58L27 58L27 57L25 57L25 56L27 56L27 54L28 54L28 53L31 53L31 52L32 52L32 55L31 55L31 54L30 54L30 55L29 55L29 56L30 56L30 57L29 57L29 58L30 58L30 59L31 59L31 56L32 56L32 55L33 55L33 56L35 56L35 57L36 57L36 58L38 58L38 57L39 57L39 56L38 56L38 57L36 57L36 56L37 56L37 54L40 54L40 52L41 52L41 50L42 50L42 51L44 51L44 52L43 52L43 53L44 53L44 56L43 56L43 57L44 57L44 56L46 56L46 57L47 57L47 56L48 56L48 57L49 57L49 58L47 58L47 59L51 59L51 58L50 58L50 56L52 56L52 55L49 55L49 54L50 54L50 53L49 53L49 51L46 51L46 52L45 52L45 49L46 49L46 47L45 47L45 49L44 49L44 46L45 46L45 45L46 45L46 44L45 44L45 45L44 45L44 43L45 43L45 42L44 42L44 40L41 40L41 39L40 39L40 37L39 37L39 39L38 39L38 38L35 38L35 39L34 39L34 37L38 37L38 36L37 36L37 35L39 35L39 34L37 34L37 32L38 32L38 33L39 33L39 32L43 32L43 33L40 33L40 35L41 35L41 34L43 34L43 33L44 33L44 36L45 36L45 33L44 33L44 32L43 32L43 31L44 31L44 30L45 30L45 29L44 29L44 30L43 30L43 31L40 31L40 30L38 30L38 29L40 29L40 28L37 28L37 26L38 26L38 25L39 25L39 23L37 23L37 22L34 22L34 21L33 21L33 20L32 20L32 18L33 18L33 19L37 19L37 18L38 18L38 17L39 17L39 16L40 16L40 15L42 15L42 14L43 14L43 15L44 15L44 16L42 16L42 17L41 17L41 18L39 18L39 19L40 19L40 20L41 20L41 19L43 19L43 17L44 17L44 16L45 16L45 17L48 17L48 18L47 18L47 19L51 19L51 18L52 18L52 20L51 20L51 21L52 21L52 20L53 20L53 19L54 19L54 18L53 18L53 17L51 17L51 18L50 18L50 17L49 17L49 16L50 16L50 12L51 12L51 10L49 10L49 11L50 11L50 12L46 12L46 11L43 11L43 13L42 13L42 14L41 14L41 12L42 12L42 10L45 10L45 9L46 9L46 7L45 7L45 9L44 9L44 8L43 8L43 9L40 9L40 8L41 8L41 6L40 6L40 8L39 8L39 10L41 10L41 12L40 12L40 11L39 11L39 12L38 12L38 13L39 13L39 14L37 14L37 13L36 13L36 12L33 12L33 14L34 14L34 13L35 13L35 18L33 18L33 16L34 16L34 15L33 15L33 16L32 16L32 15L31 15L31 16L29 16L29 14L31 14L31 13L32 13L32 12L30 12L30 10L27 10L27 9L26 9L26 7L25 7L25 6L24 6L24 7L23 7L23 6L22 6L22 5ZM33 5L33 8L36 8L36 5ZM56 5L56 7L57 7L57 5ZM14 6L14 7L15 7L15 6ZM30 6L30 7L31 7L31 6ZM34 6L34 7L35 7L35 6ZM38 6L38 7L39 7L39 6ZM52 6L52 7L53 7L53 6ZM13 8L13 9L14 9L14 8ZM21 8L21 9L22 9L22 8ZM29 8L29 9L30 9L30 8ZM6 11L6 12L7 12L7 11ZM67 11L67 12L68 12L68 11ZM26 12L26 13L27 13L27 14L29 14L29 12ZM39 12L39 13L40 13L40 12ZM44 12L44 13L43 13L43 14L45 14L45 15L47 15L47 16L48 16L48 15L49 15L49 14L47 14L47 13L46 13L46 12ZM59 13L59 14L61 14L61 13ZM39 14L39 15L37 15L37 16L36 16L36 18L37 18L37 16L39 16L39 15L40 15L40 14ZM51 14L51 15L52 15L52 14ZM21 15L21 16L22 16L22 15ZM25 15L25 16L26 16L26 15ZM59 15L59 16L57 16L57 17L56 17L56 19L55 19L55 21L53 21L53 22L58 22L58 23L60 23L60 22L61 22L61 23L62 23L62 21L63 21L63 20L64 20L64 19L63 19L63 18L62 18L62 16L60 16L60 15ZM31 16L31 18L32 18L32 16ZM17 17L17 18L14 18L14 19L13 19L13 20L16 20L16 21L14 21L14 22L17 22L17 20L16 20L16 19L18 19L18 17ZM21 17L21 20L20 20L20 22L19 22L19 21L18 21L18 22L19 22L19 23L17 23L17 24L16 24L16 25L14 25L14 26L13 26L13 27L15 27L15 26L16 26L16 25L17 25L17 28L19 28L19 29L20 29L20 30L22 30L22 31L24 31L24 32L26 32L26 31L25 31L25 30L22 30L22 29L23 29L23 28L24 28L24 29L25 29L25 28L24 28L24 27L23 27L23 28L21 28L21 25L22 25L22 26L24 26L24 25L22 25L22 24L21 24L21 23L22 23L22 22L23 22L23 24L24 24L24 23L25 23L25 22L26 22L26 21L25 21L25 22L23 22L23 20L26 20L26 19L25 19L25 18L22 18L22 17ZM57 17L57 19L56 19L56 21L58 21L58 22L60 22L60 21L62 21L62 18L61 18L61 20L60 20L60 19L59 19L59 17ZM19 18L19 19L20 19L20 18ZM44 18L44 19L45 19L45 18ZM57 19L57 20L58 20L58 19ZM46 20L46 21L49 21L49 22L47 22L47 24L46 24L46 22L44 22L44 23L45 23L45 24L46 24L46 25L47 25L47 24L48 24L48 23L49 23L49 24L50 24L50 23L51 23L51 24L52 24L52 23L51 23L51 22L50 22L50 20ZM59 20L59 21L60 21L60 20ZM9 21L9 22L10 22L10 21ZM12 21L12 22L13 22L13 21ZM21 21L21 22L22 22L22 21ZM65 21L65 22L67 22L67 21ZM33 22L33 23L32 23L32 24L31 24L31 27L30 27L30 28L28 28L28 29L27 29L27 28L26 28L26 30L28 30L28 31L27 31L27 32L28 32L28 33L25 33L25 34L26 34L26 35L25 35L25 36L26 36L26 37L25 37L25 38L26 38L26 41L27 41L27 44L26 44L26 46L24 46L24 47L26 47L26 48L25 48L25 49L26 49L26 50L27 50L27 51L28 51L28 52L29 52L29 50L30 50L30 51L32 51L32 52L34 52L34 53L33 53L33 55L36 55L36 54L37 54L37 53L38 53L38 52L37 52L37 53L35 53L35 49L36 49L36 50L37 50L37 51L39 51L39 52L40 52L40 51L39 51L39 50L41 50L41 49L42 49L42 48L43 48L43 46L44 46L44 45L43 45L43 46L42 46L42 45L41 45L41 46L42 46L42 48L41 48L41 47L40 47L40 46L39 46L39 45L40 45L40 44L41 44L41 43L40 43L40 41L41 41L41 40L38 40L38 43L37 43L37 41L36 41L36 40L34 40L34 41L33 41L33 42L30 42L30 41L31 41L31 39L32 39L32 40L33 40L33 37L32 37L32 38L30 38L30 37L29 37L29 36L32 36L32 32L34 32L34 31L33 31L33 30L34 30L34 29L35 29L35 30L37 30L37 29L36 29L36 28L35 28L35 27L36 27L36 26L34 26L34 25L38 25L38 24L35 24L35 23L34 23L34 22ZM49 22L49 23L50 23L50 22ZM12 23L12 24L14 24L14 23ZM19 23L19 24L17 24L17 25L18 25L18 26L20 26L20 23ZM53 23L53 24L54 24L54 23ZM55 23L55 25L53 25L53 26L56 26L56 27L58 27L58 28L59 28L59 27L58 27L58 26L57 26L57 25L56 25L56 23ZM33 24L33 25L34 25L34 24ZM1 25L1 26L2 26L2 25ZM33 26L33 27L31 27L31 28L30 28L30 29L29 29L29 30L30 30L30 29L31 29L31 32L30 32L30 33L28 33L28 34L27 34L27 35L28 35L28 36L27 36L27 37L26 37L26 38L27 38L27 37L28 37L28 36L29 36L29 34L30 34L30 33L31 33L31 32L32 32L32 30L33 30L33 29L34 29L34 28L33 28L33 27L34 27L34 26ZM19 27L19 28L20 28L20 27ZM50 27L50 28L52 28L52 29L53 29L53 28L52 28L52 27ZM31 28L31 29L32 29L32 28ZM62 28L62 29L63 29L63 28ZM64 29L64 30L65 30L65 29ZM12 30L12 31L13 31L13 30ZM17 30L17 31L18 31L18 30ZM1 31L1 32L4 32L4 31ZM28 31L28 32L29 32L29 31ZM46 31L46 32L47 32L47 31ZM13 32L13 33L14 33L14 32ZM66 32L66 33L65 33L65 34L66 34L66 35L67 35L67 36L68 36L68 35L67 35L67 34L68 34L68 33L67 33L67 32ZM5 33L5 36L8 36L8 33ZM11 33L11 34L12 34L12 33ZM33 33L33 36L36 36L36 33ZM49 33L49 34L50 34L50 35L52 35L52 34L50 34L50 33ZM61 33L61 36L64 36L64 33ZM6 34L6 35L7 35L7 34ZM15 34L15 35L16 35L16 34ZM34 34L34 35L35 35L35 34ZM62 34L62 35L63 35L63 34ZM65 36L65 37L66 37L66 36ZM4 37L4 38L3 38L3 39L4 39L4 38L5 38L5 39L6 39L6 40L7 40L7 39L8 39L8 38L9 38L9 37L6 37L6 38L5 38L5 37ZM61 37L61 38L62 38L62 37ZM6 38L6 39L7 39L7 38ZM28 38L28 39L27 39L27 41L30 41L30 40L28 40L28 39L30 39L30 38ZM56 40L56 41L57 41L57 40ZM18 41L18 42L19 42L19 41ZM34 41L34 42L35 42L35 43L34 43L34 44L35 44L35 45L34 45L34 47L35 47L35 48L36 48L36 47L37 47L37 46L38 46L38 45L36 45L36 44L37 44L37 43L36 43L36 42L35 42L35 41ZM43 42L43 43L44 43L44 42ZM29 43L29 44L27 44L27 45L30 45L30 48L29 48L29 49L30 49L30 50L32 50L32 51L34 51L34 49L33 49L33 48L32 48L32 49L31 49L31 44L32 44L32 45L33 45L33 43ZM39 43L39 44L40 44L40 43ZM61 43L61 44L62 44L62 43ZM13 44L13 45L14 45L14 44ZM67 44L67 46L68 46L68 44ZM55 45L55 46L56 46L56 45ZM28 46L28 47L27 47L27 48L28 48L28 47L29 47L29 46ZM32 46L32 47L33 47L33 46ZM35 46L35 47L36 47L36 46ZM62 46L62 47L63 47L63 46ZM39 47L39 48L38 48L38 49L37 49L37 50L38 50L38 49L39 49L39 48L40 48L40 47ZM47 47L47 48L48 48L48 49L47 49L47 50L50 50L50 49L49 49L49 48L48 48L48 47ZM10 48L10 49L9 49L9 50L12 50L12 49L11 49L11 48ZM52 48L52 49L53 49L53 48ZM2 49L2 50L3 50L3 49ZM18 49L18 50L20 50L20 51L19 51L19 52L18 52L18 53L19 53L19 54L20 54L20 52L22 52L22 51L21 51L21 49ZM27 49L27 50L28 50L28 49ZM32 49L32 50L33 50L33 49ZM43 49L43 50L44 50L44 49ZM65 49L65 50L66 50L66 49ZM15 52L15 53L13 53L13 54L15 54L15 53L17 53L17 52ZM44 52L44 53L45 53L45 54L46 54L46 56L47 56L47 53L45 53L45 52ZM48 53L48 54L49 54L49 53ZM24 55L24 56L25 56L25 55ZM48 55L48 56L49 56L49 55ZM2 56L2 57L3 57L3 56ZM16 56L16 57L15 57L15 58L16 58L16 57L17 57L17 56ZM64 56L64 57L63 57L63 58L62 58L62 59L60 59L60 60L65 60L65 59L67 59L67 57L68 57L68 56L67 56L67 57L65 57L65 56ZM22 57L22 58L24 58L24 57ZM4 58L4 59L7 59L7 58ZM13 58L13 59L12 59L12 60L13 60L13 61L14 61L14 60L16 60L16 59L14 59L14 58ZM45 58L45 59L46 59L46 58ZM63 58L63 59L64 59L64 58ZM23 59L23 60L24 60L24 59ZM3 60L3 61L5 61L5 60ZM6 60L6 61L7 61L7 60ZM41 60L41 62L42 62L42 63L43 63L43 61L42 61L42 60ZM45 60L45 61L44 61L44 62L45 62L45 61L47 61L47 62L46 62L46 63L47 63L47 64L48 64L48 63L47 63L47 62L50 62L50 60ZM8 61L8 63L9 63L9 64L8 64L8 69L9 69L9 68L10 68L10 69L11 69L11 68L10 68L10 67L9 67L9 64L10 64L10 63L9 63L9 62L10 62L10 61ZM33 61L33 64L36 64L36 61ZM61 61L61 64L64 64L64 61ZM34 62L34 63L35 63L35 62ZM55 62L55 63L54 63L54 65L55 65L55 63L56 63L56 62ZM62 62L62 63L63 63L63 62ZM65 62L65 63L66 63L66 62ZM25 63L25 64L26 64L26 63ZM44 63L44 64L41 64L41 66L44 66L44 64L45 64L45 66L46 66L46 64L45 64L45 63ZM11 64L11 65L10 65L10 66L11 66L11 67L12 67L12 68L13 68L13 65L12 65L12 64ZM51 64L51 65L53 65L53 64ZM14 66L14 67L15 67L15 66ZM24 66L24 67L25 67L25 66ZM35 67L35 68L36 68L36 69L38 69L38 68L37 68L37 67ZM60 67L60 68L61 68L61 67ZM15 68L15 69L16 69L16 68ZM17 68L17 69L22 69L22 68ZM57 68L57 69L58 69L58 68ZM0 0L0 7L7 7L7 0ZM1 1L1 6L6 6L6 1ZM2 2L2 5L5 5L5 2ZM62 0L62 7L69 7L69 0ZM63 1L63 6L68 6L68 1ZM64 2L64 5L67 5L67 2ZM0 62L0 69L7 69L7 62ZM1 63L1 68L6 68L6 63ZM2 64L2 67L5 67L5 64Z" fill="#000000"/></g></g></svg>
