<?xml version="1.0" encoding="UTF-8"?>
<svg xmlns="http://www.w3.org/2000/svg" version="1.1" width="300" height="300" viewBox="0 0 300 300"><rect x="0" y="0" width="300" height="300" fill="#ffffff"/><g transform="scale(4.348)"><g transform="translate(0,0)"><path fill-rule="evenodd" d="M8 0L8 4L9 4L9 5L8 5L8 7L9 7L9 5L10 5L10 4L11 4L11 3L12 3L12 2L13 2L13 3L14 3L14 4L15 4L15 5L18 5L18 7L17 7L17 6L16 6L16 8L15 8L15 6L14 6L14 7L13 7L13 6L12 6L12 7L13 7L13 8L14 8L14 9L16 9L16 10L17 10L17 13L16 13L16 12L15 12L15 11L14 11L14 10L13 10L13 9L12 9L12 8L11 8L11 6L10 6L10 8L9 8L9 11L10 11L10 10L11 10L11 9L12 9L12 13L13 13L13 14L12 14L12 19L11 19L11 18L10 18L10 16L11 16L11 13L10 13L10 14L9 14L9 13L7 13L7 12L8 12L8 11L7 11L7 10L6 10L6 11L7 11L7 12L4 12L4 10L3 10L3 9L2 9L2 8L0 8L0 14L1 14L1 13L2 13L2 12L1 12L1 10L3 10L3 13L4 13L4 14L3 14L3 16L5 16L5 15L4 15L4 14L5 14L5 13L7 13L7 14L6 14L6 15L7 15L7 14L9 14L9 15L8 15L8 16L6 16L6 17L7 17L7 18L5 18L5 17L1 17L1 16L2 16L2 15L0 15L0 18L5 18L5 19L8 19L8 18L9 18L9 19L11 19L11 21L12 21L12 22L11 22L11 23L12 23L12 25L11 25L11 26L10 26L10 27L9 27L9 25L10 25L10 23L7 23L7 22L6 22L6 23L7 23L7 24L6 24L6 25L5 25L5 22L3 22L3 21L4 21L4 20L2 20L2 19L0 19L0 20L2 20L2 21L1 21L1 22L0 22L0 23L1 23L1 25L3 25L3 24L2 24L2 23L4 23L4 25L5 25L5 26L6 26L6 27L9 27L9 28L6 28L6 29L7 29L7 30L5 30L5 28L4 28L4 26L2 26L2 28L4 28L4 29L2 29L2 31L1 31L1 28L0 28L0 31L1 31L1 35L2 35L2 36L0 36L0 37L3 37L3 36L4 36L4 39L3 39L3 38L2 38L2 40L1 40L1 38L0 38L0 42L1 42L1 43L2 43L2 45L1 45L1 46L0 46L0 53L1 53L1 54L0 54L0 61L1 61L1 57L2 57L2 56L1 56L1 55L2 55L2 54L3 54L3 53L4 53L4 55L3 55L3 56L4 56L4 57L7 57L7 56L5 56L5 55L9 55L9 54L13 54L13 53L14 53L14 54L15 54L15 55L14 55L14 56L13 56L13 58L12 58L12 57L11 57L11 56L12 56L12 55L11 55L11 56L10 56L10 57L9 57L9 56L8 56L8 57L9 57L9 58L8 58L8 59L7 59L7 58L4 58L4 59L7 59L7 60L6 60L6 61L7 61L7 60L8 60L8 59L11 59L11 60L10 60L10 62L9 62L9 61L8 61L8 62L9 62L9 63L8 63L8 65L10 65L10 68L12 68L12 67L13 67L13 69L14 69L14 68L16 68L16 69L19 69L19 67L20 67L20 66L21 66L21 65L22 65L22 68L24 68L24 69L25 69L25 68L24 68L24 67L25 67L25 66L27 66L27 67L26 67L26 69L28 69L28 68L27 68L27 67L28 67L28 66L29 66L29 69L31 69L31 67L33 67L33 66L34 66L34 65L35 65L35 67L34 67L34 68L35 68L35 67L36 67L36 66L37 66L37 67L39 67L39 68L38 68L38 69L40 69L40 67L39 67L39 66L40 66L40 63L41 63L41 67L43 67L43 63L42 63L42 62L44 62L44 69L46 69L46 67L45 67L45 62L46 62L46 60L47 60L47 63L46 63L46 64L47 64L47 65L48 65L48 67L50 67L50 68L47 68L47 69L50 69L50 68L51 68L51 69L52 69L52 68L54 68L54 69L55 69L55 67L54 67L54 66L56 66L56 69L58 69L58 68L57 68L57 66L58 66L58 67L59 67L59 66L58 66L58 65L57 65L57 64L58 64L58 63L56 63L56 65L55 65L55 64L54 64L54 65L53 65L53 66L52 66L52 64L53 64L53 63L55 63L55 62L56 62L56 61L59 61L59 64L60 64L60 66L61 66L61 67L60 67L60 68L59 68L59 69L61 69L61 68L62 68L62 69L67 69L67 68L62 68L62 67L65 67L65 66L66 66L66 67L67 67L67 66L69 66L69 63L68 63L68 62L69 62L69 59L68 59L68 58L69 58L69 57L68 57L68 55L67 55L67 53L69 53L69 52L68 52L68 50L67 50L67 53L66 53L66 52L65 52L65 51L62 51L62 50L60 50L60 51L61 51L61 55L60 55L60 54L59 54L59 55L58 55L58 51L57 51L57 50L58 50L58 49L59 49L59 48L62 48L62 49L63 49L63 50L64 50L64 49L65 49L65 47L66 47L66 46L67 46L67 47L68 47L68 46L69 46L69 44L68 44L68 45L67 45L67 44L66 44L66 46L64 46L64 45L63 45L63 43L58 43L58 44L60 44L60 45L59 45L59 46L61 46L61 47L58 47L58 45L57 45L57 43L56 43L56 42L58 42L58 41L59 41L59 42L60 42L60 41L61 41L61 42L62 42L62 41L65 41L65 40L64 40L64 39L66 39L66 38L67 38L67 39L68 39L68 40L66 40L66 41L69 41L69 39L68 39L68 38L69 38L69 35L68 35L68 33L69 33L69 31L68 31L68 30L69 30L69 28L67 28L67 30L65 30L65 29L64 29L64 27L63 27L63 28L62 28L62 26L65 26L65 27L67 27L67 25L64 25L64 24L65 24L65 22L63 22L63 21L64 21L64 20L65 20L65 21L66 21L66 23L67 23L67 24L68 24L68 21L69 21L69 20L68 20L68 18L65 18L65 17L64 17L64 16L65 16L65 14L64 14L64 15L62 15L62 14L63 14L63 13L64 13L64 12L65 12L65 13L68 13L68 14L67 14L67 15L68 15L68 14L69 14L69 13L68 13L68 10L64 10L64 8L63 8L63 9L62 9L62 10L64 10L64 11L62 11L62 14L61 14L61 13L60 13L60 12L61 12L61 9L60 9L60 8L61 8L61 6L60 6L60 8L59 8L59 4L58 4L58 5L57 5L57 4L56 4L56 3L59 3L59 2L58 2L58 1L61 1L61 0L58 0L58 1L57 1L57 0L56 0L56 1L55 1L55 0L54 0L54 1L53 1L53 0L52 0L52 1L51 1L51 0L50 0L50 1L49 1L49 0L48 0L48 1L46 1L46 0L45 0L45 1L44 1L44 0L41 0L41 1L40 1L40 0L38 0L38 1L40 1L40 4L38 4L38 3L37 3L37 0L36 0L36 1L35 1L35 2L34 2L34 4L32 4L32 3L31 3L31 2L32 2L32 1L34 1L34 0L32 0L32 1L29 1L29 0L23 0L23 2L25 2L25 4L23 4L23 3L22 3L22 0L17 0L17 1L16 1L16 2L15 2L15 1L13 1L13 0L10 0L10 2L11 2L11 3L9 3L9 0ZM19 1L19 3L18 3L18 2L16 2L16 3L18 3L18 5L19 5L19 8L20 8L20 9L19 9L19 10L18 10L18 12L19 12L19 11L20 11L20 12L21 12L21 10L20 10L20 9L22 9L22 11L23 11L23 12L22 12L22 14L23 14L23 15L22 15L22 16L21 16L21 15L19 15L19 16L18 16L18 17L15 17L15 18L14 18L14 20L12 20L12 21L13 21L13 22L12 22L12 23L13 23L13 26L12 26L12 28L9 28L9 29L8 29L8 30L7 30L7 31L5 31L5 30L4 30L4 31L2 31L2 33L3 33L3 34L2 34L2 35L4 35L4 31L5 31L5 32L7 32L7 31L8 31L8 32L9 32L9 34L10 34L10 35L9 35L9 36L10 36L10 35L11 35L11 33L12 33L12 35L13 35L13 34L15 34L15 35L14 35L14 36L15 36L15 35L17 35L17 36L16 36L16 38L15 38L15 39L13 39L13 37L12 37L12 36L11 36L11 39L12 39L12 40L8 40L8 39L10 39L10 38L9 38L9 37L8 37L8 39L6 39L6 38L7 38L7 37L5 37L5 39L4 39L4 40L2 40L2 41L1 41L1 42L3 42L3 41L4 41L4 40L5 40L5 42L7 42L7 41L6 41L6 40L8 40L8 41L9 41L9 42L10 42L10 44L9 44L9 43L8 43L8 44L9 44L9 45L10 45L10 44L11 44L11 46L12 46L12 47L11 47L11 48L10 48L10 50L8 50L8 49L9 49L9 48L8 48L8 47L10 47L10 46L8 46L8 45L6 45L6 46L8 46L8 47L6 47L6 48L5 48L5 47L4 47L4 45L2 45L2 46L3 46L3 47L2 47L2 48L1 48L1 53L3 53L3 51L4 51L4 53L5 53L5 54L7 54L7 53L8 53L8 54L9 54L9 53L11 53L11 52L10 52L10 50L11 50L11 51L14 51L14 50L15 50L15 51L16 51L16 50L18 50L18 51L17 51L17 52L19 52L19 51L20 51L20 50L21 50L21 52L22 52L22 53L21 53L21 54L20 54L20 53L18 53L18 56L19 56L19 57L21 57L21 59L19 59L19 58L16 58L16 59L15 59L15 57L17 57L17 55L16 55L16 56L14 56L14 58L13 58L13 60L11 60L11 61L12 61L12 62L13 62L13 65L12 65L12 66L11 66L11 67L12 67L12 66L13 66L13 65L15 65L15 66L14 66L14 67L15 67L15 66L16 66L16 67L17 67L17 65L18 65L18 64L19 64L19 65L20 65L20 64L19 64L19 63L21 63L21 62L22 62L22 63L23 63L23 62L22 62L22 61L26 61L26 58L27 58L27 57L28 57L28 60L30 60L30 58L29 58L29 57L30 57L30 56L32 56L32 54L33 54L33 53L34 53L34 54L35 54L35 55L36 55L36 56L34 56L34 57L32 57L32 58L31 58L31 60L32 60L32 58L33 58L33 59L35 59L35 60L37 60L37 63L38 63L38 64L37 64L37 66L38 66L38 64L39 64L39 63L40 63L40 62L41 62L41 60L39 60L39 59L35 59L35 58L34 58L34 57L36 57L36 58L37 58L37 57L36 57L36 56L37 56L37 55L38 55L38 56L39 56L39 55L40 55L40 57L39 57L39 58L40 58L40 59L41 59L41 58L40 58L40 57L41 57L41 56L42 56L42 57L44 57L44 54L45 54L45 53L46 53L46 54L47 54L47 53L46 53L46 52L47 52L47 51L49 51L49 52L50 52L50 53L48 53L48 55L47 55L47 57L46 57L46 58L47 58L47 59L49 59L49 60L50 60L50 61L49 61L49 63L50 63L50 65L49 65L49 66L50 66L50 67L52 67L52 66L50 66L50 65L51 65L51 64L52 64L52 63L53 63L53 59L54 59L54 58L53 58L53 59L51 59L51 60L50 60L50 57L51 57L51 56L52 56L52 57L56 57L56 55L57 55L57 56L58 56L58 55L57 55L57 54L56 54L56 55L55 55L55 56L53 56L53 55L54 55L54 54L53 54L53 51L55 51L55 53L56 53L56 52L57 52L57 51L56 51L56 50L57 50L57 49L55 49L55 50L53 50L53 48L55 48L55 47L56 47L56 43L55 43L55 42L54 42L54 43L55 43L55 47L53 47L53 48L52 48L52 46L53 46L53 43L52 43L52 45L51 45L51 44L50 44L50 43L51 43L51 42L50 42L50 41L56 41L56 39L57 39L57 40L58 40L58 38L61 38L61 37L59 37L59 36L57 36L57 35L58 35L58 34L59 34L59 32L62 32L62 29L61 29L61 30L60 30L60 31L58 31L58 34L56 34L56 32L57 32L57 31L56 31L56 30L57 30L57 29L58 29L58 30L59 30L59 29L60 29L60 28L61 28L61 27L60 27L60 26L59 26L59 25L60 25L60 24L59 24L59 25L58 25L58 27L57 27L57 29L56 29L56 27L54 27L54 25L53 25L53 24L55 24L55 23L52 23L52 22L53 22L53 21L55 21L55 22L56 22L56 23L58 23L58 22L59 22L59 21L61 21L61 22L62 22L62 23L63 23L63 22L62 22L62 20L61 20L61 19L62 19L62 15L61 15L61 14L60 14L60 13L59 13L59 12L60 12L60 11L59 11L59 8L58 8L58 6L57 6L57 10L56 10L56 11L59 11L59 12L57 12L57 13L56 13L56 12L55 12L55 14L54 14L54 16L55 16L55 17L56 17L56 15L57 15L57 17L58 17L58 18L57 18L57 19L56 19L56 18L55 18L55 19L56 19L56 20L53 20L53 19L52 19L52 18L53 18L53 15L52 15L52 13L54 13L54 12L53 12L53 11L55 11L55 10L53 10L53 7L54 7L54 8L55 8L55 7L56 7L56 5L55 5L55 7L54 7L54 6L53 6L53 7L52 7L52 5L53 5L53 4L55 4L55 3L56 3L56 2L55 2L55 1L54 1L54 2L55 2L55 3L53 3L53 4L52 4L52 2L53 2L53 1L52 1L52 2L51 2L51 1L50 1L50 2L49 2L49 1L48 1L48 3L47 3L47 4L46 4L46 5L44 5L44 4L45 4L45 3L46 3L46 1L45 1L45 3L44 3L44 2L42 2L42 1L41 1L41 2L42 2L42 3L44 3L44 4L43 4L43 5L44 5L44 6L43 6L43 8L40 8L40 9L39 9L39 10L38 10L38 9L37 9L37 11L38 11L38 12L36 12L36 13L38 13L38 12L39 12L39 10L40 10L40 9L43 9L43 11L45 11L45 13L46 13L46 14L43 14L43 17L44 17L44 15L45 15L45 17L46 17L46 19L44 19L44 18L41 18L41 17L42 17L42 16L40 16L40 19L39 19L39 18L38 18L38 17L39 17L39 16L38 16L38 15L37 15L37 14L35 14L35 13L33 13L33 14L31 14L31 13L32 13L32 12L33 12L33 11L34 11L34 10L35 10L35 11L36 11L36 9L34 9L34 10L32 10L32 9L31 9L31 8L30 8L30 9L29 9L29 7L30 7L30 6L31 6L31 7L32 7L32 6L31 6L31 5L32 5L32 4L31 4L31 3L30 3L30 2L28 2L28 1L27 1L27 2L26 2L26 1L25 1L25 2L26 2L26 5L22 5L22 3L21 3L21 2L20 2L20 1ZM14 2L14 3L15 3L15 2ZM19 3L19 5L21 5L21 3ZM28 3L28 4L27 4L27 5L26 5L26 9L25 9L25 8L24 8L24 7L25 7L25 6L24 6L24 7L23 7L23 6L22 6L22 8L24 8L24 9L23 9L23 11L24 11L24 12L23 12L23 14L26 14L26 13L27 13L27 14L28 14L28 16L26 16L26 15L24 15L24 17L21 17L21 16L19 16L19 17L18 17L18 18L15 18L15 19L18 19L18 18L19 18L19 17L21 17L21 18L20 18L20 19L19 19L19 20L15 20L15 24L14 24L14 25L15 25L15 27L14 27L14 28L15 28L15 27L16 27L16 26L17 26L17 25L18 25L18 27L19 27L19 26L20 26L20 27L21 27L21 29L20 29L20 28L17 28L17 29L20 29L20 30L19 30L19 32L18 32L18 33L17 33L17 32L16 32L16 29L15 29L15 30L14 30L14 31L15 31L15 32L13 32L13 33L15 33L15 34L16 34L16 33L17 33L17 34L18 34L18 36L17 36L17 37L19 37L19 35L20 35L20 34L21 34L21 37L20 37L20 38L18 38L18 39L17 39L17 38L16 38L16 39L15 39L15 41L16 41L16 40L17 40L17 42L16 42L16 43L15 43L15 42L14 42L14 41L13 41L13 40L12 40L12 41L10 41L10 42L14 42L14 43L11 43L11 44L12 44L12 46L16 46L16 47L17 47L17 48L16 48L16 49L15 49L15 48L11 48L11 50L13 50L13 49L15 49L15 50L16 50L16 49L18 49L18 50L19 50L19 49L21 49L21 50L22 50L22 51L24 51L24 50L25 50L25 49L26 49L26 51L25 51L25 52L26 52L26 54L25 54L25 53L23 53L23 54L25 54L25 55L26 55L26 56L22 56L22 55L21 55L21 57L24 57L24 58L25 58L25 57L27 57L27 56L28 56L28 55L30 55L30 54L28 54L28 53L31 53L31 54L32 54L32 53L31 53L31 52L29 52L29 51L31 51L31 50L30 50L30 49L32 49L32 52L33 52L33 51L34 51L34 52L35 52L35 53L38 53L38 52L39 52L39 53L40 53L40 52L41 52L41 53L42 53L42 55L43 55L43 54L44 54L44 53L45 53L45 50L46 50L46 51L47 51L47 50L48 50L48 49L49 49L49 45L50 45L50 47L51 47L51 45L50 45L50 44L49 44L49 43L50 43L50 42L49 42L49 43L48 43L48 41L50 41L50 40L51 40L51 39L52 39L52 38L53 38L53 40L54 40L54 38L55 38L55 39L56 39L56 38L58 38L58 37L57 37L57 36L56 36L56 34L55 34L55 32L54 32L54 33L52 33L52 32L53 32L53 30L56 30L56 29L54 29L54 28L53 28L53 25L52 25L52 23L51 23L51 22L52 22L52 20L50 20L50 23L49 23L49 22L48 22L48 21L49 21L49 20L47 20L47 19L48 19L48 18L49 18L49 19L51 19L51 18L52 18L52 16L51 16L51 17L50 17L50 16L49 16L49 15L50 15L50 14L51 14L51 13L52 13L52 12L51 12L51 11L50 11L50 14L49 14L49 8L47 8L47 6L48 6L48 7L49 7L49 5L51 5L51 4L49 4L49 5L47 5L47 6L46 6L46 7L45 7L45 6L44 6L44 7L45 7L45 8L44 8L44 9L45 9L45 10L46 10L46 12L47 12L47 14L46 14L46 16L47 16L47 19L46 19L46 20L44 20L44 23L45 23L45 24L44 24L44 25L43 25L43 24L42 24L42 25L41 25L41 26L43 26L43 28L42 28L42 27L40 27L40 24L41 24L41 23L40 23L40 22L39 22L39 23L34 23L34 21L35 21L35 22L37 22L37 21L38 21L38 20L39 20L39 21L40 21L40 20L39 20L39 19L38 19L38 18L37 18L37 17L38 17L38 16L37 16L37 15L35 15L35 14L34 14L34 15L33 15L33 17L34 17L34 18L33 18L33 19L34 19L34 20L32 20L32 18L31 18L31 20L30 20L30 21L29 21L29 19L30 19L30 18L28 18L28 19L27 19L27 17L28 17L28 16L29 16L29 17L31 17L31 16L32 16L32 15L31 15L31 14L30 14L30 13L31 13L31 11L32 11L32 10L31 10L31 9L30 9L30 10L29 10L29 11L30 11L30 13L29 13L29 14L28 14L28 9L27 9L27 6L28 6L28 7L29 7L29 6L30 6L30 5L31 5L31 4L29 4L29 3ZM35 3L35 4L37 4L37 3ZM60 3L60 5L61 5L61 3ZM12 4L12 5L13 5L13 4ZM28 4L28 6L29 6L29 4ZM33 5L33 8L36 8L36 5ZM37 5L37 8L38 8L38 5ZM39 5L39 7L40 7L40 6L41 6L41 7L42 7L42 6L41 6L41 5ZM20 6L20 8L21 8L21 6ZM34 6L34 7L35 7L35 6ZM50 6L50 7L51 7L51 6ZM4 8L4 9L7 9L7 8ZM16 8L16 9L17 9L17 8ZM45 8L45 9L46 9L46 10L47 10L47 8ZM65 8L65 9L69 9L69 8ZM24 9L24 10L25 10L25 13L26 13L26 10L25 10L25 9ZM50 9L50 10L51 10L51 9ZM30 10L30 11L31 11L31 10ZM41 10L41 14L40 14L40 13L39 13L39 15L42 15L42 13L43 13L43 12L42 12L42 10ZM52 10L52 11L53 11L53 10ZM13 11L13 13L14 13L14 14L15 14L15 12L14 12L14 11ZM65 11L65 12L67 12L67 11ZM17 13L17 14L16 14L16 16L17 16L17 15L18 15L18 13ZM19 13L19 14L20 14L20 13ZM57 13L57 15L58 15L58 16L59 16L59 14L58 14L58 13ZM29 14L29 15L30 15L30 14ZM55 14L55 15L56 15L56 14ZM13 15L13 17L14 17L14 16L15 16L15 15ZM8 16L8 17L9 17L9 16ZM34 16L34 17L37 17L37 16ZM66 16L66 17L67 17L67 16ZM25 17L25 18L22 18L22 19L21 19L21 20L20 20L20 21L16 21L16 22L17 22L17 23L16 23L16 24L15 24L15 25L17 25L17 24L18 24L18 23L19 23L19 25L21 25L21 26L22 26L22 29L21 29L21 30L20 30L20 32L19 32L19 33L20 33L20 32L22 32L22 33L21 33L21 34L22 34L22 38L23 38L23 37L24 37L24 36L25 36L25 37L26 37L26 38L27 38L27 37L26 37L26 36L28 36L28 38L29 38L29 39L28 39L28 40L29 40L29 39L30 39L30 38L29 38L29 34L30 34L30 35L31 35L31 36L32 36L32 34L31 34L31 33L29 33L29 32L30 32L30 31L32 31L32 32L35 32L35 31L37 31L37 32L38 32L38 33L37 33L37 37L36 37L36 38L35 38L35 37L31 37L31 40L30 40L30 41L28 41L28 42L30 42L30 43L31 43L31 44L32 44L32 45L33 45L33 46L34 46L34 50L35 50L35 49L36 49L36 51L35 51L35 52L37 52L37 50L38 50L38 51L39 51L39 50L38 50L38 48L36 48L36 47L37 47L37 46L36 46L36 45L37 45L37 43L36 43L36 41L37 41L37 42L38 42L38 45L39 45L39 47L41 47L41 48L40 48L40 51L41 51L41 52L43 52L43 53L44 53L44 51L43 51L43 50L42 50L42 51L41 51L41 49L42 49L42 45L41 45L41 46L40 46L40 45L39 45L39 43L41 43L41 44L43 44L43 43L44 43L44 40L45 40L45 39L43 39L43 38L45 38L45 37L46 37L46 42L45 42L45 45L46 45L46 46L44 46L44 48L43 48L43 49L44 49L44 50L45 50L45 49L46 49L46 50L47 50L47 48L48 48L48 47L47 47L47 48L45 48L45 47L46 47L46 46L47 46L47 45L46 45L46 44L48 44L48 43L47 43L47 39L49 39L49 40L50 40L50 37L51 37L51 38L52 38L52 37L56 37L56 36L52 36L52 37L51 37L51 35L52 35L52 33L51 33L51 35L49 35L49 34L50 34L50 31L51 31L51 30L52 30L52 29L53 29L53 28L52 28L52 29L51 29L51 27L50 27L50 28L49 28L49 29L48 29L48 30L47 30L47 29L46 29L46 28L45 28L45 29L46 29L46 31L45 31L45 30L44 30L44 28L43 28L43 31L40 31L40 33L44 33L44 34L43 34L43 35L42 35L42 37L43 37L43 38L41 38L41 39L40 39L40 37L41 37L41 34L39 34L39 35L38 35L38 33L39 33L39 32L38 32L38 31L39 31L39 30L38 30L38 28L39 28L39 29L40 29L40 30L42 30L42 28L40 28L40 27L38 27L38 25L39 25L39 24L40 24L40 23L39 23L39 24L38 24L38 25L37 25L37 24L35 24L35 25L34 25L34 23L33 23L33 21L32 21L32 20L31 20L31 21L30 21L30 23L28 23L28 22L29 22L29 21L28 21L28 20L27 20L27 21L26 21L26 20L25 20L25 19L26 19L26 17ZM49 17L49 18L50 18L50 17ZM59 17L59 18L58 18L58 21L57 21L57 20L56 20L56 21L57 21L57 22L58 22L58 21L59 21L59 20L60 20L60 19L61 19L61 17ZM63 17L63 20L64 20L64 17ZM35 18L35 19L37 19L37 18ZM59 18L59 19L60 19L60 18ZM22 19L22 20L21 20L21 21L20 21L20 24L21 24L21 25L24 25L24 26L25 26L25 28L26 28L26 30L25 30L25 29L23 29L23 30L21 30L21 31L22 31L22 32L23 32L23 33L22 33L22 34L23 34L23 33L24 33L24 35L26 35L26 34L27 34L27 35L28 35L28 34L29 34L29 33L24 33L24 32L25 32L25 31L26 31L26 32L28 32L28 31L30 31L30 30L31 30L31 29L32 29L32 28L33 28L33 31L34 31L34 30L35 30L35 29L34 29L34 28L35 28L35 27L36 27L36 26L37 26L37 25L35 25L35 26L34 26L34 28L33 28L33 27L31 27L31 28L30 28L30 26L31 26L31 25L32 25L32 22L31 22L31 24L30 24L30 25L29 25L29 28L28 28L28 25L27 25L27 24L28 24L28 23L27 23L27 22L28 22L28 21L27 21L27 22L25 22L25 20L23 20L23 19ZM41 19L41 21L42 21L42 23L43 23L43 21L42 21L42 19ZM65 19L65 20L66 20L66 21L68 21L68 20L67 20L67 19ZM6 20L6 21L8 21L8 20ZM22 20L22 22L21 22L21 23L22 23L22 24L25 24L25 25L26 25L26 26L27 26L27 25L26 25L26 24L27 24L27 23L26 23L26 24L25 24L25 23L24 23L24 22L23 22L23 20ZM9 21L9 22L10 22L10 21ZM46 21L46 22L47 22L47 21ZM13 22L13 23L14 23L14 22ZM47 23L47 25L46 25L46 26L47 26L47 25L48 25L48 27L49 27L49 26L50 26L50 24L51 24L51 23L50 23L50 24L49 24L49 25L48 25L48 23ZM62 24L62 25L61 25L61 26L62 26L62 25L63 25L63 24ZM6 25L6 26L8 26L8 25ZM51 25L51 26L52 26L52 25ZM55 25L55 26L56 26L56 25ZM0 26L0 27L1 27L1 26ZM23 27L23 28L24 28L24 27ZM26 27L26 28L27 28L27 27ZM36 28L36 29L37 29L37 28ZM58 28L58 29L59 29L59 28ZM10 29L10 30L12 30L12 31L13 31L13 30L12 30L12 29ZM28 29L28 30L29 30L29 29ZM50 29L50 30L51 30L51 29ZM63 29L63 30L64 30L64 31L63 31L63 32L66 32L66 33L65 33L65 35L66 35L66 37L68 37L68 35L67 35L67 32L68 32L68 31L65 31L65 30L64 30L64 29ZM17 30L17 31L18 31L18 30ZM37 30L37 31L38 31L38 30ZM10 31L10 32L11 32L11 31ZM44 31L44 33L45 33L45 34L44 34L44 37L45 37L45 34L46 34L46 37L48 37L48 38L49 38L49 37L50 37L50 36L49 36L49 35L47 35L47 34L46 34L46 33L49 33L49 32L46 32L46 33L45 33L45 31ZM5 33L5 36L8 36L8 33ZM33 33L33 36L36 36L36 33ZM61 33L61 36L64 36L64 33ZM6 34L6 35L7 35L7 34ZM34 34L34 35L35 35L35 34ZM54 34L54 35L55 35L55 34ZM62 34L62 35L63 35L63 34ZM39 35L39 36L38 36L38 37L37 37L37 39L38 39L38 38L39 38L39 37L40 37L40 35ZM62 37L62 39L61 39L61 40L63 40L63 39L64 39L64 38L65 38L65 37ZM20 38L20 39L21 39L21 41L22 41L22 42L20 42L20 41L18 41L18 42L20 42L20 43L19 43L19 45L21 45L21 44L22 44L22 46L21 46L21 47L19 47L19 48L18 48L18 49L19 49L19 48L22 48L22 49L24 49L24 48L23 48L23 47L22 47L22 46L23 46L23 44L24 44L24 43L23 43L23 41L24 41L24 42L25 42L25 43L26 43L26 44L25 44L25 45L26 45L26 46L25 46L25 47L26 47L26 48L27 48L27 47L29 47L29 48L28 48L28 49L27 49L27 51L28 51L28 50L29 50L29 49L30 49L30 48L32 48L32 49L33 49L33 47L32 47L32 46L31 46L31 45L28 45L28 44L29 44L29 43L26 43L26 42L25 42L25 41L26 41L26 39L25 39L25 38L24 38L24 39L25 39L25 41L24 41L24 40L22 40L22 39L21 39L21 38ZM32 38L32 40L31 40L31 41L30 41L30 42L32 42L32 41L33 41L33 42L35 42L35 41L33 41L33 40L35 40L35 38ZM5 39L5 40L6 40L6 39ZM39 39L39 40L38 40L38 42L43 42L43 39L41 39L41 41L40 41L40 39ZM59 40L59 41L60 41L60 40ZM64 42L64 44L65 44L65 42ZM66 42L66 43L67 43L67 42ZM3 43L3 44L5 44L5 43ZM6 43L6 44L7 44L7 43ZM14 43L14 44L13 44L13 45L16 45L16 46L17 46L17 47L18 47L18 45L16 45L16 44L15 44L15 43ZM32 43L32 44L33 44L33 45L34 45L34 46L35 46L35 47L36 47L36 46L35 46L35 45L36 45L36 44L35 44L35 43L34 43L34 44L33 44L33 43ZM26 44L26 45L27 45L27 46L28 46L28 45L27 45L27 44ZM34 44L34 45L35 45L35 44ZM61 44L61 45L62 45L62 44ZM29 46L29 47L31 47L31 46ZM62 46L62 48L63 48L63 49L64 49L64 47L63 47L63 46ZM3 47L3 49L2 49L2 50L3 50L3 49L4 49L4 50L5 50L5 49L4 49L4 47ZM57 47L57 48L58 48L58 47ZM6 48L6 49L7 49L7 48ZM44 48L44 49L45 49L45 48ZM51 48L51 49L50 49L50 50L49 50L49 51L50 51L50 52L51 52L51 53L50 53L50 54L49 54L49 55L48 55L48 58L49 58L49 57L50 57L50 56L51 56L51 55L50 55L50 54L52 54L52 51L53 51L53 50L52 50L52 51L51 51L51 49L52 49L52 48ZM68 48L68 49L69 49L69 48ZM6 50L6 51L7 51L7 52L6 52L6 53L7 53L7 52L8 52L8 53L9 53L9 52L8 52L8 50ZM63 52L63 53L62 53L62 55L61 55L61 56L62 56L62 55L64 55L64 60L66 60L66 61L67 61L67 60L68 60L68 59L65 59L65 57L66 57L66 58L68 58L68 57L67 57L67 55L66 55L66 54L65 54L65 52ZM16 53L16 54L17 54L17 53ZM63 53L63 54L64 54L64 55L65 55L65 54L64 54L64 53ZM19 54L19 56L20 56L20 54ZM26 54L26 55L28 55L28 54ZM36 54L36 55L37 55L37 54ZM40 54L40 55L41 55L41 54ZM49 55L49 56L50 56L50 55ZM59 56L59 57L58 57L58 58L55 58L55 59L56 59L56 60L54 60L54 61L56 61L56 60L57 60L57 59L58 59L58 60L59 60L59 61L60 61L60 60L59 60L59 59L58 59L58 58L59 58L59 57L60 57L60 56ZM10 57L10 58L11 58L11 57ZM61 57L61 58L62 58L62 60L63 60L63 58L62 58L62 57ZM2 58L2 59L3 59L3 58ZM22 58L22 59L21 59L21 61L20 61L20 60L19 60L19 59L17 59L17 61L20 61L20 62L21 62L21 61L22 61L22 60L24 60L24 59L23 59L23 58ZM42 58L42 61L44 61L44 60L46 60L46 59L45 59L45 58ZM43 59L43 60L44 60L44 59ZM3 60L3 61L5 61L5 60ZM51 60L51 61L50 61L50 62L51 62L51 61L52 61L52 60ZM15 61L15 62L14 62L14 64L15 64L15 65L17 65L17 64L15 64L15 63L18 63L18 62L16 62L16 61ZM27 61L27 62L28 62L28 63L29 63L29 64L26 64L26 63L24 63L24 64L22 64L22 65L29 65L29 64L31 64L31 65L32 65L32 66L33 66L33 65L32 65L32 64L31 64L31 63L32 63L32 62L31 62L31 61ZM33 61L33 64L36 64L36 61ZM38 61L38 62L39 62L39 61ZM61 61L61 64L64 64L64 61ZM10 62L10 63L9 63L9 64L10 64L10 63L11 63L11 64L12 64L12 63L11 63L11 62ZM29 62L29 63L31 63L31 62ZM34 62L34 63L35 63L35 62ZM62 62L62 63L63 63L63 62ZM66 62L66 63L65 63L65 65L68 65L68 63L67 63L67 62ZM56 65L56 66L57 66L57 65ZM23 66L23 67L24 67L24 66ZM8 67L8 69L9 69L9 67ZM32 68L32 69L33 69L33 68ZM36 68L36 69L37 69L37 68ZM41 68L41 69L43 69L43 68ZM68 68L68 69L69 69L69 68ZM0 0L0 7L7 7L7 0ZM1 1L1 6L6 6L6 1ZM2 2L2 5L5 5L5 2ZM62 0L62 7L69 7L69 0ZM63 1L63 6L68 6L68 1ZM64 2L64 5L67 5L67 2ZM0 62L0 69L7 69L7 62ZM1 63L1 68L6 68L6 63ZM2 64L2 67L5 67L5 64Z" fill="#000000"/></g></g></svg>
