<?xml version="1.0" encoding="UTF-8"?>
<svg xmlns="http://www.w3.org/2000/svg" version="1.1" width="300" height="300" viewBox="0 0 300 300"><rect x="0" y="0" width="300" height="300" fill="#ffffff"/><g transform="scale(4.348)"><g transform="translate(0,0)"><path fill-rule="evenodd" d="M8 0L8 4L9 4L9 0ZM11 0L11 1L10 1L10 4L11 4L11 5L8 5L8 7L9 7L9 6L10 6L10 7L11 7L11 6L12 6L12 7L13 7L13 8L14 8L14 10L12 10L12 8L11 8L11 9L10 9L10 8L9 8L9 9L10 9L10 10L9 10L9 11L8 11L8 9L7 9L7 8L4 8L4 10L6 10L6 11L7 11L7 12L5 12L5 11L2 11L2 10L3 10L3 9L2 9L2 8L0 8L0 9L2 9L2 10L1 10L1 11L0 11L0 15L1 15L1 16L2 16L2 17L1 17L1 20L0 20L0 21L1 21L1 22L2 22L2 24L1 24L1 23L0 23L0 25L1 25L1 28L0 28L0 31L1 31L1 32L0 32L0 37L1 37L1 38L0 38L0 39L1 39L1 40L0 40L0 41L1 41L1 42L0 42L0 43L1 43L1 44L0 44L0 47L1 47L1 44L3 44L3 45L2 45L2 46L4 46L4 44L5 44L5 45L9 45L9 46L6 46L6 47L8 47L8 48L4 48L4 47L3 47L3 48L0 48L0 51L3 51L3 48L4 48L4 50L5 50L5 49L9 49L9 50L10 50L10 51L11 51L11 50L12 50L12 51L13 51L13 48L14 48L14 49L18 49L18 50L16 50L16 52L17 52L17 53L20 53L20 59L19 59L19 54L17 54L17 57L15 57L15 56L16 56L16 53L15 53L15 52L14 52L14 57L13 57L13 52L12 52L12 54L8 54L8 53L7 53L7 52L5 52L5 51L4 51L4 52L3 52L3 53L4 53L4 54L3 54L3 56L1 56L1 55L2 55L2 54L1 54L1 53L2 53L2 52L1 52L1 53L0 53L0 56L1 56L1 58L0 58L0 61L1 61L1 58L2 58L2 59L3 59L3 56L4 56L4 54L5 54L5 57L7 57L7 58L4 58L4 59L7 59L7 58L9 58L9 59L10 59L10 58L14 58L14 59L12 59L12 60L11 60L11 61L8 61L8 60L6 60L6 61L8 61L8 62L11 62L11 63L10 63L10 64L9 64L9 63L8 63L8 65L11 65L11 66L12 66L12 67L11 67L11 69L13 69L13 68L14 68L14 69L15 69L15 68L14 68L14 67L16 67L16 65L15 65L15 66L14 66L14 63L13 63L13 62L14 62L14 61L15 61L15 64L17 64L17 63L18 63L18 61L19 61L19 60L20 60L20 62L19 62L19 63L21 63L21 64L20 64L20 65L19 65L19 64L18 64L18 65L17 65L17 67L18 67L18 68L17 68L17 69L20 69L20 68L19 68L19 67L20 67L20 66L21 66L21 69L22 69L22 68L23 68L23 67L25 67L25 68L26 68L26 69L27 69L27 67L28 67L28 66L29 66L29 65L31 65L31 66L30 66L30 67L31 67L31 68L29 68L29 69L31 69L31 68L32 68L32 69L35 69L35 67L39 67L39 68L38 68L38 69L40 69L40 67L39 67L39 66L40 66L40 63L41 63L41 67L43 67L43 63L42 63L42 62L43 62L43 61L42 61L42 58L45 58L45 59L44 59L44 62L45 62L45 63L44 63L44 69L46 69L46 67L45 67L45 63L46 63L46 64L47 64L47 63L48 63L48 65L47 65L47 66L48 66L48 69L50 69L50 68L51 68L51 69L52 69L52 68L54 68L54 69L55 69L55 67L57 67L57 63L55 63L55 64L54 64L54 65L53 65L53 66L55 66L55 67L52 67L52 66L51 66L51 65L52 65L52 64L53 64L53 62L55 62L55 60L56 60L56 62L57 62L57 61L58 61L58 60L56 60L56 58L57 58L57 59L59 59L59 60L60 60L60 64L59 64L59 63L58 63L58 65L59 65L59 66L61 66L61 67L58 67L58 68L56 68L56 69L59 69L59 68L62 68L62 69L64 69L64 67L65 67L65 63L66 63L66 62L67 62L67 63L68 63L68 64L67 64L67 66L69 66L69 63L68 63L68 62L69 62L69 61L68 61L68 58L69 58L69 56L68 56L68 55L67 55L67 56L66 56L66 57L65 57L65 58L64 58L64 57L63 57L63 56L64 56L64 55L66 55L66 53L69 53L69 52L68 52L68 50L67 50L67 49L65 49L65 47L66 47L66 46L67 46L67 48L68 48L68 49L69 49L69 47L68 47L68 46L67 46L67 44L66 44L66 46L64 46L64 45L65 45L65 43L66 43L66 41L65 41L65 40L64 40L64 39L65 39L65 38L64 38L64 39L60 39L60 38L61 38L61 37L62 37L62 38L63 38L63 37L66 37L66 38L67 38L67 41L68 41L68 42L67 42L67 43L68 43L68 45L69 45L69 43L68 43L68 42L69 42L69 40L68 40L68 38L69 38L69 35L68 35L68 33L69 33L69 32L67 32L67 33L66 33L66 32L63 32L63 31L64 31L64 30L65 30L65 31L68 31L68 28L67 28L67 30L65 30L65 29L64 29L64 27L68 27L68 26L69 26L69 25L68 25L68 23L67 23L67 20L68 20L68 21L69 21L69 20L68 20L68 18L67 18L67 17L69 17L69 16L68 16L68 14L69 14L69 12L68 12L68 11L67 11L67 9L69 9L69 8L65 8L65 9L64 9L64 8L63 8L63 9L62 9L62 10L61 10L61 9L60 9L60 8L61 8L61 6L60 6L60 7L59 7L59 4L58 4L58 8L59 8L59 10L61 10L61 12L62 12L62 14L61 14L61 13L60 13L60 12L59 12L59 14L58 14L58 13L57 13L57 12L58 12L58 11L56 11L56 13L55 13L55 11L54 11L54 10L56 10L56 9L57 9L57 8L56 8L56 9L55 9L55 8L53 8L53 12L54 12L54 15L53 15L53 18L51 18L51 17L52 17L52 15L51 15L51 14L52 14L52 13L50 13L50 12L51 12L51 11L50 11L50 10L52 10L52 8L51 8L51 6L50 6L50 8L47 8L47 6L46 6L46 7L45 7L45 6L44 6L44 5L46 5L46 4L47 4L47 3L48 3L48 2L49 2L49 0L47 0L47 2L46 2L46 0L45 0L45 1L44 1L44 0L40 0L40 2L39 2L39 3L40 3L40 4L38 4L38 3L37 3L37 2L38 2L38 1L39 1L39 0L38 0L38 1L36 1L36 0L35 0L35 1L34 1L34 4L32 4L32 5L31 5L31 4L29 4L29 3L33 3L33 0L32 0L32 1L31 1L31 2L29 2L29 0L23 0L23 1L24 1L24 3L25 3L25 4L23 4L23 2L22 2L22 4L21 4L21 3L19 3L19 4L18 4L18 5L17 5L17 6L16 6L16 4L15 4L15 5L13 5L13 6L12 6L12 4L13 4L13 2L12 2L12 3L11 3L11 1L12 1L12 0ZM15 0L15 2L14 2L14 3L15 3L15 2L16 2L16 1L18 1L18 2L19 2L19 1L20 1L20 2L21 2L21 1L22 1L22 0ZM50 0L50 3L49 3L49 4L48 4L48 5L54 5L54 7L55 7L55 3L59 3L59 2L57 2L57 1L55 1L55 0L54 0L54 1L53 1L53 0ZM58 0L58 1L61 1L61 0ZM25 1L25 2L26 2L26 1ZM27 1L27 3L26 3L26 5L25 5L25 7L24 7L24 6L23 6L23 5L21 5L21 8L20 8L20 5L19 5L19 7L18 7L18 6L17 6L17 7L16 7L16 6L15 6L15 12L13 12L13 11L10 11L10 12L9 12L9 13L11 13L11 15L12 15L12 16L10 16L10 14L8 14L8 15L6 15L6 16L5 16L5 14L7 14L7 13L8 13L8 12L7 12L7 13L5 13L5 12L3 12L3 13L4 13L4 14L3 14L3 15L4 15L4 17L3 17L3 18L4 18L4 20L7 20L7 19L8 19L8 21L5 21L5 22L4 22L4 21L3 21L3 20L2 20L2 21L3 21L3 24L2 24L2 25L3 25L3 26L2 26L2 27L3 27L3 31L2 31L2 28L1 28L1 31L2 31L2 32L3 32L3 31L4 31L4 32L5 32L5 31L6 31L6 32L7 32L7 31L6 31L6 30L7 30L7 29L9 29L9 30L10 30L10 31L8 31L8 32L9 32L9 33L10 33L10 34L9 34L9 36L10 36L10 38L9 38L9 37L8 37L8 38L9 38L9 39L8 39L8 42L7 42L7 41L5 41L5 42L7 42L7 43L6 43L6 44L7 44L7 43L8 43L8 44L12 44L12 46L10 46L10 47L9 47L9 48L10 48L10 50L11 50L11 49L12 49L12 48L13 48L13 47L14 47L14 48L17 48L17 47L18 47L18 45L16 45L16 44L15 44L15 43L16 43L16 42L17 42L17 43L18 43L18 44L19 44L19 42L20 42L20 41L19 41L19 42L18 42L18 41L17 41L17 39L16 39L16 38L17 38L17 36L21 36L21 35L22 35L22 37L21 37L21 38L23 38L23 37L25 37L25 39L23 39L23 40L22 40L22 39L21 39L21 41L22 41L22 43L23 43L23 44L22 44L22 46L21 46L21 47L20 47L20 45L19 45L19 47L20 47L20 48L21 48L21 47L22 47L22 49L23 49L23 52L22 52L22 53L21 53L21 55L22 55L22 56L24 56L24 55L25 55L25 58L24 58L24 57L21 57L21 58L23 58L23 59L24 59L24 61L23 61L23 60L22 60L22 59L20 59L20 60L21 60L21 61L23 61L23 64L22 64L22 67L23 67L23 65L24 65L24 64L25 64L25 65L29 65L29 64L28 64L28 63L27 63L27 64L26 64L26 63L25 63L25 62L24 62L24 61L26 61L26 60L27 60L27 61L28 61L28 62L29 62L29 63L30 63L30 64L31 64L31 65L32 65L32 66L33 66L33 67L32 67L32 68L34 68L34 67L35 67L35 66L36 66L36 65L34 65L34 66L33 66L33 65L32 65L32 64L31 64L31 63L32 63L32 62L31 62L31 63L30 63L30 62L29 62L29 60L27 60L27 59L28 59L28 58L29 58L29 59L30 59L30 60L31 60L31 59L32 59L32 60L37 60L37 58L38 58L38 61L37 61L37 66L38 66L38 63L40 63L40 62L41 62L41 60L39 60L39 58L40 58L40 59L41 59L41 58L40 58L40 57L41 57L41 56L42 56L42 57L44 57L44 54L45 54L45 53L46 53L46 54L47 54L47 57L46 57L46 58L47 58L47 57L48 57L48 55L51 55L51 54L52 54L52 57L51 57L51 56L50 56L50 57L49 57L49 58L48 58L48 59L50 59L50 60L49 60L49 63L51 63L51 64L52 64L52 63L51 63L51 62L52 62L52 61L54 61L54 60L55 60L55 59L54 59L54 58L53 58L53 57L55 57L55 58L56 58L56 56L57 56L57 57L58 57L58 58L59 58L59 57L60 57L60 58L61 58L61 57L60 57L60 55L58 55L58 56L57 56L57 55L56 55L56 56L53 56L53 55L54 55L54 54L52 54L52 53L53 53L53 52L54 52L54 51L55 51L55 53L56 53L56 54L57 54L57 53L56 53L56 50L57 50L57 49L58 49L58 50L59 50L59 51L61 51L61 52L62 52L62 53L60 53L60 52L58 52L58 54L62 54L62 55L61 55L61 56L62 56L62 55L64 55L64 54L65 54L65 52L67 52L67 50L66 50L66 51L65 51L65 49L64 49L64 47L63 47L63 45L64 45L64 44L62 44L62 47L61 47L61 44L60 44L60 43L64 43L64 42L65 42L65 41L64 41L64 42L63 42L63 41L62 41L62 42L60 42L60 43L59 43L59 41L61 41L61 40L60 40L60 39L59 39L59 37L60 37L60 36L59 36L59 35L60 35L60 34L59 34L59 33L60 33L60 31L63 31L63 30L64 30L64 29L63 29L63 27L64 27L64 26L66 26L66 25L67 25L67 23L65 23L65 22L66 22L66 20L67 20L67 18L66 18L66 19L65 19L65 20L64 20L64 21L63 21L63 22L64 22L64 23L63 23L63 24L62 24L62 15L64 15L64 14L65 14L65 16L64 16L64 17L63 17L63 19L64 19L64 17L66 17L66 16L67 16L67 14L68 14L68 13L65 13L65 12L67 12L67 11L65 11L65 12L64 12L64 13L63 13L63 14L62 14L62 15L61 15L61 14L59 14L59 17L58 17L58 18L55 18L55 20L54 20L54 19L51 19L51 18L50 18L50 17L51 17L51 15L50 15L50 16L49 16L49 15L47 15L47 12L46 12L46 10L47 10L47 8L45 8L45 7L44 7L44 6L43 6L43 5L44 5L44 4L45 4L45 3L46 3L46 2L45 2L45 3L44 3L44 2L43 2L43 3L44 3L44 4L43 4L43 5L39 5L39 7L38 7L38 5L37 5L37 7L38 7L38 8L37 8L37 10L38 10L38 12L36 12L36 13L37 13L37 14L35 14L35 13L33 13L33 15L32 15L32 16L31 16L31 17L29 17L29 16L30 16L30 14L31 14L31 13L32 13L32 12L33 12L33 11L34 11L34 10L35 10L35 11L36 11L36 9L33 9L33 10L32 10L32 8L30 8L30 9L28 9L28 6L27 6L27 3L29 3L29 2L28 2L28 1ZM35 1L35 2L36 2L36 1ZM41 1L41 2L40 2L40 3L41 3L41 2L42 2L42 1ZM54 1L54 2L55 2L55 1ZM50 3L50 4L52 4L52 3ZM60 3L60 5L61 5L61 3ZM28 4L28 5L29 5L29 4ZM56 4L56 7L57 7L57 4ZM30 5L30 6L29 6L29 7L30 7L30 6L31 6L31 7L32 7L32 6L31 6L31 5ZM33 5L33 8L36 8L36 5ZM13 6L13 7L14 7L14 6ZM22 6L22 8L24 8L24 9L23 9L23 10L22 10L22 9L20 9L20 8L18 8L18 7L17 7L17 9L20 9L20 10L22 10L22 11L24 11L24 12L23 12L23 13L22 13L22 12L21 12L21 13L19 13L19 12L18 12L18 11L16 11L16 14L15 14L15 13L14 13L14 14L13 14L13 12L12 12L12 14L13 14L13 15L15 15L15 16L16 16L16 17L15 17L15 18L11 18L11 17L10 17L10 18L11 18L11 19L9 19L9 21L12 21L12 20L14 20L14 22L15 22L15 23L12 23L12 22L10 22L10 24L9 24L9 23L7 23L7 22L5 22L5 25L4 25L4 24L3 24L3 25L4 25L4 26L3 26L3 27L4 27L4 26L6 26L6 27L5 27L5 28L4 28L4 29L5 29L5 28L6 28L6 29L7 29L7 28L6 28L6 27L8 27L8 25L7 25L7 24L9 24L9 25L10 25L10 24L11 24L11 25L13 25L13 26L12 26L12 27L11 27L11 26L10 26L10 28L9 28L9 29L10 29L10 30L11 30L11 31L12 31L12 34L10 34L10 35L12 35L12 36L11 36L11 37L13 37L13 38L10 38L10 39L9 39L9 40L10 40L10 41L9 41L9 42L12 42L12 43L13 43L13 44L14 44L14 45L13 45L13 46L12 46L12 47L10 47L10 48L12 48L12 47L13 47L13 46L14 46L14 47L16 47L16 45L15 45L15 44L14 44L14 42L15 42L15 41L16 41L16 39L13 39L13 38L16 38L16 36L17 36L17 34L19 34L19 35L20 35L20 34L21 34L21 33L22 33L22 31L24 31L24 32L23 32L23 34L26 34L26 41L25 41L25 40L24 40L24 41L23 41L23 43L24 43L24 45L23 45L23 46L22 46L22 47L23 47L23 49L24 49L24 50L25 50L25 49L26 49L26 51L27 51L27 52L26 52L26 54L25 54L25 51L24 51L24 52L23 52L23 53L22 53L22 54L25 54L25 55L27 55L27 56L26 56L26 57L27 57L27 58L25 58L25 60L26 60L26 59L27 59L27 58L28 58L28 57L29 57L29 58L30 58L30 59L31 59L31 56L30 56L30 57L29 57L29 56L28 56L28 55L30 55L30 54L28 54L28 53L31 53L31 54L32 54L32 55L33 55L33 57L32 57L32 59L35 59L35 58L36 58L36 57L38 57L38 58L39 58L39 57L40 57L40 55L41 55L41 53L42 53L42 55L43 55L43 54L44 54L44 53L45 53L45 50L46 50L46 51L49 51L49 52L46 52L46 53L47 53L47 54L49 54L49 52L50 52L50 54L51 54L51 53L52 53L52 52L53 52L53 50L56 50L56 49L57 49L57 48L56 48L56 49L54 49L54 47L55 47L55 44L54 44L54 47L52 47L52 46L53 46L53 45L52 45L52 42L53 42L53 43L54 43L54 42L55 42L55 40L56 40L56 47L60 47L60 48L61 48L61 47L60 47L60 45L59 45L59 46L58 46L58 45L57 45L57 42L58 42L58 41L59 41L59 39L58 39L58 31L59 31L59 30L61 30L61 28L62 28L62 27L63 27L63 26L64 26L64 24L65 24L65 23L64 23L64 24L63 24L63 25L62 25L62 24L60 24L60 23L57 23L57 24L56 24L56 22L55 22L55 21L51 21L51 20L50 20L50 23L48 23L48 25L47 25L47 22L46 22L46 21L48 21L48 22L49 22L49 19L48 19L48 17L49 17L49 16L46 16L46 12L45 12L45 11L43 11L43 9L40 9L40 8L43 8L43 6L42 6L42 7L41 7L41 6L40 6L40 8L38 8L38 10L42 10L42 12L44 12L44 13L45 13L45 15L44 15L44 14L43 14L43 13L42 13L42 15L39 15L39 13L40 13L40 14L41 14L41 11L39 11L39 12L38 12L38 15L37 15L37 16L36 16L36 15L35 15L35 14L34 14L34 15L33 15L33 16L32 16L32 17L34 17L34 16L35 16L35 17L36 17L36 18L37 18L37 21L34 21L34 20L36 20L36 19L34 19L34 18L32 18L32 19L31 19L31 20L30 20L30 21L29 21L29 22L28 22L28 21L27 21L27 20L29 20L29 18L28 18L28 19L27 19L27 17L28 17L28 16L29 16L29 14L28 14L28 11L29 11L29 13L31 13L31 11L32 11L32 10L31 10L31 9L30 9L30 11L29 11L29 10L28 10L28 9L27 9L27 8L26 8L26 9L25 9L25 8L24 8L24 7L23 7L23 6ZM26 6L26 7L27 7L27 6ZM34 6L34 7L35 7L35 6ZM48 6L48 7L49 7L49 6ZM52 6L52 7L53 7L53 6ZM44 8L44 9L45 9L45 10L46 10L46 9L45 9L45 8ZM50 8L50 9L49 9L49 10L50 10L50 9L51 9L51 8ZM6 9L6 10L7 10L7 9ZM24 9L24 10L25 10L25 9ZM26 9L26 10L27 10L27 11L28 11L28 10L27 10L27 9ZM65 9L65 10L66 10L66 9ZM62 10L62 11L64 11L64 10ZM25 11L25 13L26 13L26 14L23 14L23 15L19 15L19 16L18 16L18 17L16 17L16 18L15 18L15 19L14 19L14 20L15 20L15 22L16 22L16 24L15 24L15 25L14 25L14 24L13 24L13 25L14 25L14 26L13 26L13 27L12 27L12 28L11 28L11 30L13 30L13 31L15 31L15 29L14 29L14 30L13 30L13 28L14 28L14 27L15 27L15 28L16 28L16 34L15 34L15 35L14 35L14 34L13 34L13 35L14 35L14 36L13 36L13 37L15 37L15 35L16 35L16 34L17 34L17 33L18 33L18 32L19 32L19 33L20 33L20 32L19 32L19 31L22 31L22 30L20 30L20 28L19 28L19 27L20 27L20 24L21 24L21 23L22 23L22 24L24 24L24 22L23 22L23 21L25 21L25 22L26 22L26 23L25 23L25 25L26 25L26 26L24 26L24 25L21 25L21 26L23 26L23 27L21 27L21 28L22 28L22 29L26 29L26 28L27 28L27 27L28 27L28 28L31 28L31 27L33 27L33 28L32 28L32 29L28 29L28 30L30 30L30 31L27 31L27 32L26 32L26 31L25 31L25 32L24 32L24 33L29 33L29 32L31 32L31 33L32 33L32 32L38 32L38 33L37 33L37 37L31 37L31 40L30 40L30 41L28 41L28 39L30 39L30 37L29 37L29 36L31 36L31 35L32 35L32 34L28 34L28 35L27 35L27 37L28 37L28 38L27 38L27 41L26 41L26 42L27 42L27 41L28 41L28 43L30 43L30 44L32 44L32 45L33 45L33 41L32 41L32 38L33 38L33 40L34 40L34 41L35 41L35 43L34 43L34 45L35 45L35 46L33 46L33 47L32 47L32 46L31 46L31 47L30 47L30 48L32 48L32 49L29 49L29 48L28 48L28 47L29 47L29 46L30 46L30 45L28 45L28 44L27 44L27 45L26 45L26 43L25 43L25 45L26 45L26 46L24 46L24 49L25 49L25 47L26 47L26 48L28 48L28 49L27 49L27 51L28 51L28 50L29 50L29 52L33 52L33 53L32 53L32 54L33 54L33 53L34 53L34 54L35 54L35 55L34 55L34 57L33 57L33 58L34 58L34 57L36 57L36 56L37 56L37 55L39 55L39 54L40 54L40 53L41 53L41 52L42 52L42 51L43 51L43 53L44 53L44 51L43 51L43 50L42 50L42 51L41 51L41 49L42 49L42 45L41 45L41 46L40 46L40 45L39 45L39 47L41 47L41 48L40 48L40 51L39 51L39 50L38 50L38 49L39 49L39 48L38 48L38 47L37 47L37 46L38 46L38 45L35 45L35 44L38 44L38 43L41 43L41 44L43 44L43 45L44 45L44 46L43 46L43 47L44 47L44 48L43 48L43 49L44 49L44 50L45 50L45 49L46 49L46 50L47 50L47 48L48 48L48 47L47 47L47 45L46 45L46 46L45 46L45 45L44 45L44 40L45 40L45 39L43 39L43 38L45 38L45 37L46 37L46 42L45 42L45 43L46 43L46 44L48 44L48 43L49 43L49 45L50 45L50 44L51 44L51 42L50 42L50 41L53 41L53 40L55 40L55 39L56 39L56 40L58 40L58 39L57 39L57 38L56 38L56 36L57 36L57 33L56 33L56 36L53 36L53 35L55 35L55 34L53 34L53 35L52 35L52 33L54 33L54 31L55 31L55 30L56 30L56 28L59 28L59 29L58 29L58 30L57 30L57 31L58 31L58 30L59 30L59 29L60 29L60 27L61 27L61 26L62 26L62 25L61 25L61 26L60 26L60 27L59 27L59 25L60 25L60 24L57 24L57 25L56 25L56 24L55 24L55 25L56 25L56 27L55 27L55 26L53 26L53 27L52 27L52 29L51 29L51 28L50 28L50 27L49 27L49 26L50 26L50 24L51 24L51 23L50 23L50 24L49 24L49 25L48 25L48 27L49 27L49 28L50 28L50 29L48 29L48 30L47 30L47 28L46 28L46 27L45 27L45 29L46 29L46 31L47 31L47 32L50 32L50 31L51 31L51 32L52 32L52 33L51 33L51 34L50 34L50 33L49 33L49 34L48 34L48 33L46 33L46 32L45 32L45 33L44 33L44 31L40 31L40 33L44 33L44 34L43 34L43 36L40 36L40 35L41 35L41 34L39 34L39 35L38 35L38 33L39 33L39 32L38 32L38 31L37 31L37 30L38 30L38 29L40 29L40 30L42 30L42 28L43 28L43 30L44 30L44 27L43 27L43 26L41 26L41 25L42 25L42 24L43 24L43 25L44 25L44 24L45 24L45 23L44 23L44 20L46 20L46 18L47 18L47 17L46 17L46 16L45 16L45 17L46 17L46 18L45 18L45 19L44 19L44 18L41 18L41 17L42 17L42 16L40 16L40 19L39 19L39 18L38 18L38 17L37 17L37 18L38 18L38 19L39 19L39 20L38 20L38 21L37 21L37 22L35 22L35 23L37 23L37 24L38 24L38 25L37 25L37 26L36 26L36 27L35 27L35 25L32 25L32 26L31 26L31 27L30 27L30 26L29 26L29 25L30 25L30 24L31 24L31 23L32 23L32 24L33 24L33 23L34 23L34 21L32 21L32 20L34 20L34 19L32 19L32 20L31 20L31 21L30 21L30 23L28 23L28 22L26 22L26 19L25 19L25 18L26 18L26 17L25 17L25 18L24 18L24 20L22 20L22 21L21 21L21 22L20 22L20 21L18 21L18 22L19 22L19 23L20 23L20 24L19 24L19 25L18 25L18 26L16 26L16 27L15 27L15 25L17 25L17 24L18 24L18 23L17 23L17 22L16 22L16 19L17 19L17 18L18 18L18 19L20 19L20 18L22 18L22 19L23 19L23 17L24 17L24 15L26 15L26 16L27 16L27 15L28 15L28 14L27 14L27 13L26 13L26 11ZM1 12L1 15L2 15L2 12ZM17 13L17 14L16 14L16 15L18 15L18 13ZM49 13L49 14L50 14L50 13ZM56 13L56 15L54 15L54 16L55 16L55 17L56 17L56 15L57 15L57 16L58 16L58 15L57 15L57 13ZM43 15L43 17L44 17L44 15ZM6 16L6 17L5 17L5 18L6 18L6 19L7 19L7 18L8 18L8 16ZM13 16L13 17L14 17L14 16ZM19 16L19 17L18 17L18 18L19 18L19 17L22 17L22 16ZM6 17L6 18L7 18L7 17ZM59 17L59 18L58 18L58 19L59 19L59 20L58 20L58 21L57 21L57 20L56 20L56 21L57 21L57 22L58 22L58 21L59 21L59 22L61 22L61 19L60 19L60 18L61 18L61 17ZM41 19L41 21L40 21L40 23L39 23L39 25L38 25L38 28L39 28L39 27L40 27L40 28L42 28L42 27L40 27L40 24L41 24L41 22L42 22L42 23L43 23L43 21L42 21L42 19ZM59 20L59 21L60 21L60 20ZM6 23L6 24L7 24L7 23ZM53 23L53 24L52 24L52 25L51 25L51 26L52 26L52 25L53 25L53 24L54 24L54 23ZM26 24L26 25L29 25L29 24ZM6 25L6 26L7 26L7 25ZM46 25L46 26L47 26L47 25ZM57 25L57 26L58 26L58 25ZM18 26L18 27L19 27L19 26ZM26 26L26 27L27 27L27 26ZM28 26L28 27L29 27L29 26ZM33 26L33 27L34 27L34 28L35 28L35 27L34 27L34 26ZM23 27L23 28L24 28L24 27ZM17 28L17 31L18 31L18 30L19 30L19 28ZM36 28L36 29L33 29L33 31L34 31L34 30L37 30L37 28ZM53 28L53 29L52 29L52 30L51 30L51 29L50 29L50 30L49 30L49 31L50 31L50 30L51 30L51 31L53 31L53 30L55 30L55 28ZM62 29L62 30L63 30L63 29ZM4 30L4 31L5 31L5 30ZM31 31L31 32L32 32L32 31ZM10 32L10 33L11 33L11 32ZM14 32L14 33L15 33L15 32ZM5 33L5 36L8 36L8 33ZM33 33L33 36L36 36L36 33ZM45 33L45 34L44 34L44 37L45 37L45 34L46 34L46 37L47 37L47 43L48 43L48 41L50 41L50 39L48 39L48 37L49 37L49 36L50 36L50 38L51 38L51 37L52 37L52 35L51 35L51 36L50 36L50 34L49 34L49 36L47 36L47 34L46 34L46 33ZM61 33L61 36L64 36L64 33ZM65 33L65 36L66 36L66 37L67 37L67 38L68 38L68 35L66 35L66 33ZM1 34L1 35L2 35L2 36L1 36L1 37L2 37L2 36L3 36L3 38L1 38L1 39L3 39L3 40L2 40L2 41L4 41L4 39L5 39L5 38L7 38L7 37L5 37L5 38L4 38L4 34ZM6 34L6 35L7 35L7 34ZM34 34L34 35L35 35L35 34ZM62 34L62 35L63 35L63 34ZM23 35L23 36L24 36L24 35ZM38 36L38 37L37 37L37 38L34 38L34 40L35 40L35 39L37 39L37 40L36 40L36 43L37 43L37 40L39 40L39 41L38 41L38 42L43 42L43 39L42 39L42 38L43 38L43 37L40 37L40 36ZM19 37L19 38L20 38L20 37ZM39 37L39 38L38 38L38 39L39 39L39 38L40 38L40 37ZM53 37L53 38L52 38L52 39L54 39L54 38L55 38L55 37ZM3 38L3 39L4 39L4 38ZM6 39L6 40L7 40L7 39ZM10 39L10 40L11 40L11 41L13 41L13 42L14 42L14 41L15 41L15 40L14 40L14 41L13 41L13 40L12 40L12 39ZM18 39L18 40L19 40L19 39ZM40 39L40 41L41 41L41 39ZM24 41L24 42L25 42L25 41ZM30 41L30 42L31 42L31 41ZM1 42L1 43L2 43L2 42ZM20 43L20 44L21 44L21 43ZM58 43L58 44L59 44L59 43ZM27 45L27 47L28 47L28 45ZM51 45L51 46L52 46L52 45ZM35 46L35 47L34 47L34 48L33 48L33 49L34 49L34 48L35 48L35 47L36 47L36 48L37 48L37 49L38 49L38 48L37 48L37 47L36 47L36 46ZM45 47L45 48L44 48L44 49L45 49L45 48L47 48L47 47ZM49 47L49 48L50 48L50 49L49 49L49 51L50 51L50 52L51 52L51 50L50 50L50 49L51 49L51 48L52 48L52 49L53 49L53 48L52 48L52 47L51 47L51 48L50 48L50 47ZM62 47L62 49L60 49L60 50L61 50L61 51L62 51L62 52L63 52L63 51L64 51L64 49L63 49L63 47ZM18 48L18 49L19 49L19 50L18 50L18 51L17 51L17 52L18 52L18 51L20 51L20 50L21 50L21 51L22 51L22 50L21 50L21 49L19 49L19 48ZM1 49L1 50L2 50L2 49ZM35 49L35 50L32 50L32 51L34 51L34 52L35 52L35 50L36 50L36 49ZM62 49L62 51L63 51L63 49ZM6 50L6 51L8 51L8 50ZM30 50L30 51L31 51L31 50ZM37 51L37 53L38 53L38 52L39 52L39 51ZM4 52L4 53L5 53L5 54L7 54L7 53L5 53L5 52ZM10 52L10 53L11 53L11 52ZM62 53L62 54L64 54L64 53ZM27 54L27 55L28 55L28 54ZM36 54L36 55L35 55L35 56L36 56L36 55L37 55L37 54ZM6 55L6 56L7 56L7 57L9 57L9 58L10 58L10 57L11 57L11 56L12 56L12 55L11 55L11 56L7 56L7 55ZM27 56L27 57L28 57L28 56ZM38 56L38 57L39 57L39 56ZM58 56L58 57L59 57L59 56ZM14 57L14 58L15 58L15 57ZM17 57L17 58L16 58L16 59L15 59L15 61L16 61L16 62L17 62L17 61L18 61L18 60L19 60L19 59L17 59L17 58L18 58L18 57ZM50 57L50 59L51 59L51 60L50 60L50 62L51 62L51 61L52 61L52 58L51 58L51 57ZM66 57L66 58L65 58L65 61L66 61L66 60L67 60L67 59L66 59L66 58L68 58L68 57ZM62 58L62 59L61 59L61 60L64 60L64 59L63 59L63 58ZM45 59L45 61L46 61L46 63L47 63L47 60L46 60L46 59ZM53 59L53 60L54 60L54 59ZM3 60L3 61L5 61L5 60ZM12 60L12 61L14 61L14 60ZM33 61L33 64L36 64L36 61ZM38 61L38 62L39 62L39 61ZM61 61L61 64L64 64L64 61ZM21 62L21 63L22 63L22 62ZM34 62L34 63L35 63L35 62ZM62 62L62 63L63 63L63 62ZM12 63L12 65L13 65L13 63ZM49 64L49 66L50 66L50 67L51 67L51 68L52 68L52 67L51 67L51 66L50 66L50 64ZM55 64L55 66L56 66L56 64ZM13 66L13 67L12 67L12 68L13 68L13 67L14 67L14 66ZM26 66L26 67L27 67L27 66ZM62 66L62 68L63 68L63 66ZM8 67L8 69L9 69L9 68L10 68L10 67ZM36 68L36 69L37 69L37 68ZM41 68L41 69L43 69L43 68ZM66 68L66 69L67 69L67 68ZM68 68L68 69L69 69L69 68ZM0 0L0 7L7 7L7 0ZM1 1L1 6L6 6L6 1ZM2 2L2 5L5 5L5 2ZM62 0L62 7L69 7L69 0ZM63 1L63 6L68 6L68 1ZM64 2L64 5L67 5L67 2ZM0 62L0 69L7 69L7 62ZM1 63L1 68L6 68L6 63ZM2 64L2 67L5 67L5 64Z" fill="#000000"/></g></g></svg>
