<?xml version="1.0" encoding="UTF-8"?>
<svg xmlns="http://www.w3.org/2000/svg" version="1.1" width="300" height="300" viewBox="0 0 300 300"><rect x="0" y="0" width="300" height="300" fill="#ffffff"/><g transform="scale(4.348)"><g transform="translate(0,0)"><path fill-rule="evenodd" d="M8 0L8 4L10 4L10 7L11 7L11 5L12 5L12 7L13 7L13 5L14 5L14 8L15 8L15 6L16 6L16 7L17 7L17 6L16 6L16 5L17 5L17 3L19 3L19 4L20 4L20 7L21 7L21 5L23 5L23 6L22 6L22 8L23 8L23 6L24 6L24 7L25 7L25 8L24 8L24 9L23 9L23 10L22 10L22 9L21 9L21 8L20 8L20 10L17 10L17 11L15 11L15 9L10 9L10 11L9 11L9 12L10 12L10 14L11 14L11 15L10 15L10 16L9 16L9 17L10 17L10 16L11 16L11 15L12 15L12 14L13 14L13 13L14 13L14 14L15 14L15 15L13 15L13 16L12 16L12 17L13 17L13 16L14 16L14 18L13 18L13 19L11 19L11 18L9 18L9 19L8 19L8 17L7 17L7 16L6 16L6 15L8 15L8 14L6 14L6 15L5 15L5 12L6 12L6 13L8 13L8 10L6 10L6 11L4 11L4 10L5 10L5 9L7 9L7 8L4 8L4 10L3 10L3 9L2 9L2 8L0 8L0 11L1 11L1 9L2 9L2 10L3 10L3 11L4 11L4 12L3 12L3 13L2 13L2 12L1 12L1 13L0 13L0 14L1 14L1 13L2 13L2 14L3 14L3 15L4 15L4 17L7 17L7 18L6 18L6 19L5 19L5 24L6 24L6 25L7 25L7 24L6 24L6 23L7 23L7 22L6 22L6 21L7 21L7 20L8 20L8 22L9 22L9 23L8 23L8 24L9 24L9 26L10 26L10 27L9 27L9 28L6 28L6 27L7 27L7 26L6 26L6 27L5 27L5 26L4 26L4 23L3 23L3 24L2 24L2 25L0 25L0 26L1 26L1 27L0 27L0 31L2 31L2 29L3 29L3 28L4 28L4 27L5 27L5 28L6 28L6 29L5 29L5 30L4 30L4 31L3 31L3 33L4 33L4 34L2 34L2 35L0 35L0 36L2 36L2 39L1 39L1 40L2 40L2 42L1 42L1 41L0 41L0 42L1 42L1 43L0 43L0 47L1 47L1 48L0 48L0 52L1 52L1 53L0 53L0 54L1 54L1 55L0 55L0 56L1 56L1 58L0 58L0 61L1 61L1 58L2 58L2 59L3 59L3 58L2 58L2 56L3 56L3 55L2 55L2 54L4 54L4 56L5 56L5 54L4 54L4 53L2 53L2 52L1 52L1 51L2 51L2 50L1 50L1 49L3 49L3 50L4 50L4 49L5 49L5 50L6 50L6 51L5 51L5 53L7 53L7 54L6 54L6 55L7 55L7 56L6 56L6 57L5 57L5 58L4 58L4 59L7 59L7 60L6 60L6 61L7 61L7 60L8 60L8 59L7 59L7 58L6 58L6 57L8 57L8 56L9 56L9 55L10 55L10 57L11 57L11 58L9 58L9 60L10 60L10 61L8 61L8 62L10 62L10 63L8 63L8 65L9 65L9 67L8 67L8 69L10 69L10 67L11 67L11 68L12 68L12 69L13 69L13 67L14 67L14 69L19 69L19 68L16 68L16 67L14 67L14 66L16 66L16 65L17 65L17 66L19 66L19 67L20 67L20 66L22 66L22 67L28 67L28 66L30 66L30 67L31 67L31 68L29 68L29 69L31 69L31 68L32 68L32 69L33 69L33 68L34 68L34 69L35 69L35 68L34 68L34 65L35 65L35 66L36 66L36 65L38 65L38 67L39 67L39 68L38 68L38 69L40 69L40 67L39 67L39 66L40 66L40 63L41 63L41 68L42 68L42 67L43 67L43 63L44 63L44 69L46 69L46 67L45 67L45 63L46 63L46 64L47 64L47 65L48 65L48 66L49 66L49 68L48 68L48 67L47 67L47 69L50 69L50 66L52 66L52 68L51 68L51 69L52 69L52 68L53 68L53 69L54 69L54 67L56 67L56 66L57 66L57 67L58 67L58 68L56 68L56 69L58 69L58 68L59 68L59 69L60 69L60 67L58 67L58 63L54 63L54 62L56 62L56 61L58 61L58 60L59 60L59 58L58 58L58 55L59 55L59 56L61 56L61 57L60 57L60 58L63 58L63 59L60 59L60 63L59 63L59 66L61 66L61 65L63 65L63 66L62 66L62 67L61 67L61 69L67 69L67 68L62 68L62 67L63 67L63 66L64 66L64 67L65 67L65 66L66 66L66 67L67 67L67 66L69 66L69 65L67 65L67 66L66 66L66 65L65 65L65 63L66 63L66 62L67 62L67 61L69 61L69 60L68 60L68 55L67 55L67 60L66 60L66 61L65 61L65 58L66 58L66 57L65 57L65 58L64 58L64 55L66 55L66 54L64 54L64 53L63 53L63 51L64 51L64 52L65 52L65 51L64 51L64 50L63 50L63 49L65 49L65 48L64 48L64 47L66 47L66 46L67 46L67 47L68 47L68 48L67 48L67 49L66 49L66 50L67 50L67 53L69 53L69 52L68 52L68 50L67 50L67 49L69 49L69 47L68 47L68 45L69 45L69 43L68 43L68 42L69 42L69 39L68 39L68 38L69 38L69 35L68 35L68 32L69 32L69 31L67 31L67 30L63 30L63 29L62 29L62 28L63 28L63 26L64 26L64 25L62 25L62 23L61 23L61 25L59 25L59 26L61 26L61 27L62 27L62 28L61 28L61 29L59 29L59 28L58 28L58 27L57 27L57 28L56 28L56 26L55 26L55 25L54 25L54 24L53 24L53 23L54 23L54 22L55 22L55 24L56 24L56 25L57 25L57 26L58 26L58 24L56 24L56 21L57 21L57 23L59 23L59 22L61 22L61 21L62 21L62 22L63 22L63 21L64 21L64 20L65 20L65 19L67 19L67 20L66 20L66 21L65 21L65 22L67 22L67 20L68 20L68 21L69 21L69 20L68 20L68 18L67 18L67 17L69 17L69 15L68 15L68 12L65 12L65 13L67 13L67 15L68 15L68 16L66 16L66 18L65 18L65 17L64 17L64 16L65 16L65 14L64 14L64 11L67 11L67 9L69 9L69 8L65 8L65 9L66 9L66 10L63 10L63 9L64 9L64 8L63 8L63 9L62 9L62 10L61 10L61 8L60 8L60 9L59 9L59 11L60 11L60 12L61 12L61 13L59 13L59 12L58 12L58 8L59 8L59 4L58 4L58 5L56 5L56 7L55 7L55 4L56 4L56 3L59 3L59 2L58 2L58 1L61 1L61 0L57 0L57 1L55 1L55 0L52 0L52 1L51 1L51 0L50 0L50 2L51 2L51 3L52 3L52 4L50 4L50 5L49 5L49 4L48 4L48 3L49 3L49 1L48 1L48 3L47 3L47 2L46 2L46 0L45 0L45 1L44 1L44 0L41 0L41 1L40 1L40 0L34 0L34 3L33 3L33 4L32 4L32 2L31 2L31 1L33 1L33 0L31 0L31 1L30 1L30 0L22 0L22 1L26 1L26 3L25 3L25 4L23 4L23 2L22 2L22 3L19 3L19 1L20 1L20 2L21 2L21 0L17 0L17 1L16 1L16 0L15 0L15 2L14 2L14 4L10 4L10 2L9 2L9 0ZM13 0L13 1L14 1L14 0ZM17 1L17 2L15 2L15 3L17 3L17 2L18 2L18 1ZM27 1L27 3L26 3L26 5L25 5L25 7L26 7L26 8L25 8L25 9L24 9L24 10L25 10L25 9L26 9L26 8L28 8L28 6L27 6L27 7L26 7L26 5L27 5L27 3L29 3L29 4L28 4L28 5L30 5L30 6L29 6L29 7L30 7L30 6L31 6L31 8L30 8L30 9L27 9L27 10L26 10L26 11L25 11L25 13L26 13L26 14L24 14L24 15L22 15L22 16L21 16L21 17L19 17L19 16L20 16L20 15L21 15L21 14L20 14L20 15L19 15L19 16L18 16L18 17L17 17L17 18L16 18L16 16L17 16L17 15L18 15L18 13L16 13L16 12L15 12L15 11L14 11L14 10L12 10L12 11L11 11L11 13L12 13L12 11L14 11L14 12L15 12L15 13L16 13L16 14L17 14L17 15L15 15L15 18L16 18L16 19L14 19L14 20L11 20L11 19L10 19L10 20L11 20L11 21L14 21L14 20L15 20L15 21L16 21L16 20L17 20L17 18L18 18L18 17L19 17L19 19L18 19L18 20L19 20L19 23L20 23L20 24L19 24L19 30L18 30L18 31L17 31L17 33L16 33L16 35L15 35L15 34L13 34L13 35L12 35L12 36L10 36L10 35L9 35L9 38L10 38L10 39L8 39L8 41L6 41L6 40L7 40L7 39L6 39L6 40L3 40L3 41L6 41L6 42L3 42L3 43L5 43L5 44L4 44L4 45L3 45L3 47L2 47L2 46L1 46L1 47L2 47L2 48L3 48L3 49L4 49L4 45L6 45L6 46L5 46L5 49L6 49L6 50L7 50L7 49L6 49L6 48L7 48L7 47L6 47L6 46L7 46L7 45L6 45L6 44L7 44L7 43L8 43L8 47L10 47L10 49L8 49L8 51L9 51L9 53L8 53L8 54L7 54L7 55L9 55L9 54L11 54L11 51L12 51L12 53L13 53L13 55L11 55L11 57L12 57L12 56L13 56L13 55L15 55L15 54L14 54L14 53L16 53L16 54L17 54L17 56L15 56L15 57L13 57L13 58L11 58L11 61L12 61L12 62L13 62L13 63L12 63L12 64L9 64L9 65L10 65L10 66L11 66L11 67L12 67L12 66L14 66L14 64L13 64L13 63L14 63L14 61L16 61L16 62L15 62L15 63L16 63L16 64L17 64L17 65L18 65L18 64L19 64L19 65L20 65L20 64L22 64L22 66L23 66L23 64L22 64L22 63L21 63L21 62L20 62L20 61L21 61L21 60L22 60L22 62L23 62L23 61L25 61L25 62L26 62L26 60L27 60L27 59L29 59L29 57L30 57L30 56L31 56L31 58L30 58L30 59L31 59L31 60L32 60L32 59L33 59L33 58L34 58L34 60L38 60L38 59L39 59L39 58L40 58L40 59L41 59L41 58L40 58L40 57L41 57L41 56L42 56L42 57L44 57L44 54L45 54L45 53L46 53L46 54L47 54L47 53L46 53L46 52L47 52L47 51L48 51L48 52L49 52L49 49L48 49L48 50L47 50L47 48L48 48L48 47L47 47L47 48L45 48L45 47L46 47L46 46L47 46L47 44L48 44L48 43L49 43L49 44L50 44L50 45L49 45L49 48L50 48L50 49L51 49L51 50L52 50L52 49L54 49L54 48L55 48L55 50L53 50L53 51L52 51L52 53L51 53L51 54L50 54L50 53L49 53L49 55L50 55L50 56L52 56L52 59L51 59L51 58L50 58L50 57L49 57L49 58L48 58L48 55L47 55L47 57L46 57L46 58L47 58L47 59L49 59L49 66L50 66L50 64L51 64L51 63L52 63L52 66L53 66L53 67L54 67L54 66L53 66L53 63L52 63L52 61L56 61L56 60L57 60L57 59L58 59L58 58L57 58L57 57L56 57L56 56L57 56L57 55L58 55L58 54L59 54L59 53L60 53L60 54L62 54L62 55L64 55L64 54L63 54L63 53L61 53L61 52L62 52L62 51L63 51L63 50L62 50L62 51L61 51L61 50L60 50L60 49L62 49L62 48L63 48L63 45L64 45L64 46L66 46L66 44L68 44L68 43L67 43L67 42L68 42L68 41L66 41L66 40L68 40L68 39L66 39L66 37L68 37L68 35L66 35L66 34L65 34L65 35L66 35L66 37L63 37L63 38L62 38L62 39L61 39L61 41L60 41L60 40L57 40L57 39L58 39L58 38L59 38L59 39L60 39L60 38L59 38L59 37L60 37L60 36L59 36L59 35L60 35L60 34L59 34L59 33L60 33L60 32L59 32L59 31L57 31L57 29L58 29L58 30L59 30L59 29L58 29L58 28L57 28L57 29L56 29L56 28L55 28L55 26L53 26L53 24L52 24L52 23L53 23L53 21L56 21L56 20L57 20L57 21L58 21L58 22L59 22L59 21L60 21L60 18L59 18L59 17L58 17L58 16L59 16L59 15L58 15L58 14L59 14L59 13L58 13L58 14L56 14L56 13L55 13L55 14L53 14L53 13L54 13L54 12L55 12L55 10L52 10L52 9L54 9L54 8L55 8L55 9L56 9L56 11L57 11L57 9L56 9L56 8L58 8L58 6L57 6L57 7L56 7L56 8L55 8L55 7L54 7L54 6L53 6L53 4L54 4L54 3L56 3L56 2L55 2L55 1L52 1L52 2L54 2L54 3L53 3L53 4L52 4L52 6L51 6L51 5L50 5L50 6L49 6L49 5L47 5L47 4L46 4L46 5L44 5L44 4L45 4L45 3L46 3L46 2L45 2L45 3L44 3L44 2L42 2L42 1L41 1L41 3L44 3L44 4L43 4L43 5L44 5L44 6L43 6L43 8L41 8L41 7L42 7L42 6L41 6L41 7L40 7L40 6L39 6L39 7L38 7L38 5L37 5L37 11L38 11L38 12L39 12L39 11L40 11L40 10L41 10L41 14L40 14L40 13L39 13L39 14L38 14L38 13L37 13L37 12L36 12L36 13L33 13L33 14L32 14L32 16L31 16L31 14L29 14L29 12L31 12L31 13L32 13L32 12L33 12L33 11L34 11L34 10L35 10L35 11L36 11L36 9L32 9L32 6L31 6L31 5L32 5L32 4L31 4L31 2L30 2L30 3L29 3L29 2L28 2L28 1ZM37 1L37 3L36 3L36 4L37 4L37 3L38 3L38 4L40 4L40 1ZM60 3L60 5L61 5L61 3ZM14 4L14 5L15 5L15 4ZM8 5L8 7L9 7L9 5ZM18 5L18 8L17 8L17 9L19 9L19 5ZM33 5L33 8L36 8L36 5ZM34 6L34 7L35 7L35 6ZM44 6L44 7L45 7L45 8L44 8L44 9L45 9L45 10L46 10L46 11L45 11L45 12L44 12L44 13L42 13L42 15L39 15L39 16L38 16L38 18L37 18L37 21L36 21L36 19L34 19L34 16L37 16L37 15L38 15L38 14L37 14L37 13L36 13L36 14L37 14L37 15L35 15L35 14L34 14L34 15L33 15L33 18L31 18L31 16L29 16L29 14L28 14L28 12L29 12L29 11L26 11L26 13L27 13L27 14L28 14L28 15L27 15L27 16L26 16L26 15L25 15L25 17L24 17L24 16L23 16L23 17L21 17L21 18L20 18L20 19L19 19L19 20L20 20L20 22L21 22L21 21L22 21L22 20L23 20L23 24L22 24L22 23L21 23L21 24L20 24L20 26L21 26L21 27L20 27L20 30L19 30L19 32L18 32L18 33L17 33L17 34L18 34L18 35L20 35L20 34L22 34L22 32L23 32L23 31L24 31L24 32L25 32L25 31L26 31L26 32L27 32L27 31L28 31L28 29L29 29L29 30L30 30L30 32L29 32L29 33L23 33L23 34L24 34L24 35L26 35L26 38L25 38L25 36L23 36L23 38L21 38L21 37L22 37L22 36L17 36L17 35L16 35L16 36L17 36L17 38L19 38L19 37L20 37L20 40L19 40L19 39L17 39L17 41L18 41L18 42L19 42L19 41L20 41L20 42L21 42L21 44L20 44L20 43L19 43L19 44L18 44L18 43L17 43L17 42L16 42L16 43L14 43L14 44L15 44L15 45L14 45L14 46L13 46L13 42L15 42L15 41L16 41L16 39L15 39L15 38L16 38L16 37L15 37L15 38L14 38L14 39L12 39L12 38L13 38L13 37L14 37L14 36L15 36L15 35L13 35L13 36L12 36L12 37L11 37L11 39L12 39L12 41L13 41L13 42L11 42L11 40L10 40L10 42L9 42L9 41L8 41L8 42L9 42L9 44L10 44L10 45L9 45L9 46L10 46L10 47L11 47L11 46L10 46L10 45L12 45L12 46L13 46L13 47L12 47L12 49L11 49L11 50L9 50L9 51L11 51L11 50L12 50L12 51L13 51L13 52L14 52L14 51L15 51L15 52L16 52L16 53L18 53L18 56L17 56L17 57L15 57L15 58L13 58L13 59L12 59L12 60L15 60L15 59L16 59L16 58L17 58L17 57L18 57L18 58L19 58L19 59L18 59L18 60L17 60L17 62L16 62L16 63L18 63L18 61L20 61L20 60L19 60L19 59L23 59L23 60L24 60L24 59L23 59L23 58L21 58L21 57L24 57L24 58L25 58L25 59L26 59L26 58L28 58L28 57L29 57L29 55L30 55L30 54L28 54L28 53L31 53L31 54L32 54L32 55L33 55L33 57L32 57L32 58L33 58L33 57L34 57L34 58L35 58L35 59L37 59L37 58L35 58L35 57L36 57L36 55L37 55L37 57L38 57L38 58L39 58L39 57L40 57L40 55L41 55L41 54L42 54L42 55L43 55L43 54L44 54L44 53L45 53L45 50L46 50L46 51L47 51L47 50L46 50L46 49L45 49L45 48L44 48L44 46L46 46L46 44L47 44L47 43L48 43L48 41L49 41L49 40L50 40L50 42L49 42L49 43L50 43L50 44L51 44L51 45L50 45L50 47L51 47L51 49L52 49L52 47L53 47L53 45L54 45L54 47L56 47L56 49L59 49L59 48L58 48L58 47L60 47L60 48L61 48L61 47L62 47L62 45L63 45L63 44L64 44L64 41L65 41L65 40L64 40L64 39L65 39L65 38L64 38L64 39L62 39L62 40L64 40L64 41L61 41L61 42L63 42L63 43L60 43L60 41L59 41L59 43L58 43L58 41L57 41L57 40L56 40L56 38L55 38L55 36L56 36L56 37L57 37L57 38L58 38L58 37L59 37L59 36L58 36L58 33L59 33L59 32L58 32L58 33L57 33L57 32L56 32L56 33L52 33L52 31L54 31L54 30L56 30L56 29L55 29L55 28L54 28L54 29L53 29L53 30L52 30L52 28L53 28L53 26L52 26L52 24L51 24L51 25L50 25L50 22L52 22L52 21L50 21L50 20L51 20L51 17L52 17L52 16L50 16L50 15L52 15L52 14L51 14L51 13L52 13L52 12L51 12L51 11L52 11L52 10L51 10L51 9L52 9L52 7L53 7L53 8L54 8L54 7L53 7L53 6L52 6L52 7L51 7L51 6L50 6L50 8L47 8L47 6L46 6L46 7L45 7L45 6ZM48 6L48 7L49 7L49 6ZM60 6L60 7L61 7L61 6ZM45 8L45 9L46 9L46 10L47 10L47 8ZM50 8L50 9L49 9L49 11L51 11L51 10L50 10L50 9L51 9L51 8ZM30 9L30 10L31 10L31 11L32 11L32 10L31 10L31 9ZM38 9L38 10L39 10L39 9ZM41 9L41 10L42 10L42 12L43 12L43 9ZM21 10L21 11L20 11L20 12L19 12L19 11L17 11L17 12L19 12L19 13L24 13L24 11L22 11L22 10ZM60 10L60 11L61 11L61 12L62 12L62 13L61 13L61 14L60 14L60 15L61 15L61 20L62 20L62 13L63 13L63 12L62 12L62 11L63 11L63 10L62 10L62 11L61 11L61 10ZM6 11L6 12L7 12L7 11ZM45 12L45 13L44 13L44 14L43 14L43 17L44 17L44 14L45 14L45 13L46 13L46 14L47 14L47 13L46 13L46 12ZM50 12L50 13L51 13L51 12ZM55 14L55 15L54 15L54 16L53 16L53 18L52 18L52 19L53 19L53 20L56 20L56 19L57 19L57 20L58 20L58 21L59 21L59 18L58 18L58 17L57 17L57 16L58 16L58 15L56 15L56 14ZM0 15L0 21L1 21L1 22L0 22L0 23L1 23L1 22L4 22L4 20L1 20L1 17L2 17L2 19L4 19L4 18L3 18L3 16L2 16L2 15ZM45 15L45 17L46 17L46 18L45 18L45 19L44 19L44 18L41 18L41 17L42 17L42 16L40 16L40 19L43 19L43 23L41 23L41 22L40 22L40 21L41 21L41 20L40 20L40 21L39 21L39 20L38 20L38 21L37 21L37 22L34 22L34 23L33 23L33 22L31 22L31 21L30 21L30 23L29 23L29 20L30 20L30 19L31 19L31 18L30 18L30 17L29 17L29 16L28 16L28 17L27 17L27 19L25 19L25 18L26 18L26 17L25 17L25 18L24 18L24 19L23 19L23 20L24 20L24 19L25 19L25 21L26 21L26 20L27 20L27 19L28 19L28 18L30 18L30 19L29 19L29 20L28 20L28 23L27 23L27 24L29 24L29 25L28 25L28 26L27 26L27 27L26 27L26 28L25 28L25 26L26 26L26 23L25 23L25 22L24 22L24 23L25 23L25 26L24 26L24 25L21 25L21 26L22 26L22 27L21 27L21 28L22 28L22 29L24 29L24 28L25 28L25 29L26 29L26 28L30 28L30 27L33 27L33 28L32 28L32 29L31 29L31 31L32 31L32 32L31 32L31 35L32 35L32 32L35 32L35 31L37 31L37 32L38 32L38 33L37 33L37 34L38 34L38 35L37 35L37 37L36 37L36 38L37 38L37 37L38 37L38 36L39 36L39 35L41 35L41 34L38 34L38 33L39 33L39 32L38 32L38 31L39 31L39 30L38 30L38 29L40 29L40 30L42 30L42 28L43 28L43 30L44 30L44 28L45 28L45 27L43 27L43 26L41 26L41 25L42 25L42 24L43 24L43 25L44 25L44 24L45 24L45 23L44 23L44 20L46 20L46 18L47 18L47 19L48 19L48 20L50 20L50 16L49 16L49 19L48 19L48 15L47 15L47 17L46 17L46 15ZM55 15L55 17L56 17L56 15ZM63 17L63 20L64 20L64 17ZM21 18L21 20L22 20L22 18ZM38 18L38 19L39 19L39 18ZM53 18L53 19L55 19L55 18ZM6 19L6 20L7 20L7 19ZM32 19L32 21L33 21L33 20L34 20L34 19ZM17 21L17 22L18 22L18 21ZM46 21L46 22L47 22L47 25L46 25L46 26L47 26L47 25L48 25L48 27L49 27L49 28L50 28L50 29L48 29L48 30L47 30L47 29L45 29L45 31L48 31L48 32L50 32L50 33L46 33L46 32L45 32L45 33L44 33L44 31L40 31L40 33L44 33L44 34L43 34L43 36L42 36L42 37L43 37L43 38L41 38L41 36L40 36L40 37L39 37L39 38L38 38L38 39L35 39L35 40L34 40L34 41L35 41L35 42L36 42L36 40L37 40L37 43L34 43L34 42L33 42L33 38L35 38L35 37L33 37L33 38L32 38L32 36L31 36L31 39L32 39L32 42L30 42L30 41L31 41L31 40L30 40L30 41L28 41L28 40L29 40L29 39L30 39L30 37L29 37L29 34L30 34L30 33L29 33L29 34L28 34L28 35L27 35L27 37L28 37L28 38L26 38L26 39L28 39L28 40L27 40L27 41L28 41L28 42L27 42L27 43L32 43L32 45L33 45L33 46L34 46L34 47L32 47L32 46L30 46L30 45L29 45L29 44L27 44L27 45L28 45L28 46L26 46L26 43L25 43L25 46L22 46L22 45L24 45L24 43L22 43L22 45L21 45L21 46L20 46L20 44L19 44L19 45L17 45L17 44L16 44L16 46L14 46L14 47L15 47L15 48L14 48L14 49L15 49L15 48L16 48L16 52L19 52L19 56L21 56L21 55L22 55L22 56L23 56L23 54L22 54L22 53L23 53L23 52L22 52L22 53L21 53L21 54L20 54L20 52L19 52L19 51L20 51L20 50L21 50L21 51L22 51L22 49L23 49L23 48L24 48L24 47L26 47L26 48L27 48L27 47L28 47L28 46L29 46L29 48L28 48L28 49L27 49L27 50L26 50L26 49L25 49L25 50L23 50L23 51L24 51L24 52L25 52L25 53L26 53L26 52L27 52L27 51L28 51L28 50L29 50L29 52L31 52L31 51L33 51L33 52L32 52L32 54L33 54L33 53L34 53L34 55L36 55L36 54L37 54L37 55L38 55L38 56L39 56L39 55L40 55L40 54L41 54L41 53L44 53L44 51L43 51L43 50L42 50L42 52L41 52L41 49L42 49L42 45L41 45L41 46L40 46L40 45L39 45L39 43L41 43L41 44L43 44L43 46L44 46L44 40L45 40L45 39L43 39L43 38L45 38L45 37L46 37L46 42L45 42L45 43L47 43L47 39L48 39L48 38L49 38L49 39L50 39L50 37L51 37L51 34L52 34L52 35L53 35L53 36L52 36L52 38L51 38L51 39L53 39L53 37L54 37L54 36L55 36L55 35L54 35L54 34L52 34L52 33L51 33L51 32L50 32L50 31L51 31L51 30L50 30L50 29L51 29L51 28L52 28L52 26L50 26L50 25L48 25L48 23L49 23L49 22L50 22L50 21L49 21L49 22L47 22L47 21ZM11 22L11 24L10 24L10 23L9 23L9 24L10 24L10 25L11 25L11 27L10 27L10 28L11 28L11 29L9 29L9 31L10 31L10 33L9 33L9 34L11 34L11 31L10 31L10 30L11 30L11 29L12 29L12 31L13 31L13 32L12 32L12 33L13 33L13 32L14 32L14 33L15 33L15 32L16 32L16 31L14 31L14 30L15 30L15 29L16 29L16 30L17 30L17 27L18 27L18 26L16 26L16 27L15 27L15 25L17 25L17 24L15 24L15 23L16 23L16 22L15 22L15 23L14 23L14 25L13 25L13 28L11 28L11 27L12 27L12 23L13 23L13 22ZM31 23L31 24L30 24L30 25L29 25L29 26L28 26L28 27L29 27L29 26L33 26L33 25L32 25L32 23ZM34 23L34 24L35 24L35 26L34 26L34 28L33 28L33 31L34 31L34 30L35 30L35 29L34 29L34 28L35 28L35 27L36 27L36 26L37 26L37 28L36 28L36 29L37 29L37 28L38 28L38 26L39 26L39 27L40 27L40 28L42 28L42 27L40 27L40 23L37 23L37 25L36 25L36 23ZM67 23L67 24L65 24L65 25L66 25L66 26L65 26L65 27L67 27L67 28L68 28L68 29L69 29L69 28L68 28L68 27L67 27L67 24L68 24L68 23ZM38 24L38 25L37 25L37 26L38 26L38 25L39 25L39 24ZM2 25L2 26L3 26L3 27L4 27L4 26L3 26L3 25ZM14 27L14 28L15 28L15 27ZM22 27L22 28L24 28L24 27ZM46 27L46 28L47 28L47 27ZM1 28L1 29L2 29L2 28ZM6 29L6 30L5 30L5 31L4 31L4 32L5 32L5 31L6 31L6 32L7 32L7 31L8 31L8 29ZM13 29L13 30L14 30L14 29ZM61 29L61 31L62 31L62 29ZM6 30L6 31L7 31L7 30ZM49 30L49 31L50 31L50 30ZM20 31L20 32L19 32L19 33L20 33L20 32L22 32L22 31ZM63 31L63 32L66 32L66 33L67 33L67 31ZM1 32L1 33L0 33L0 34L1 34L1 33L2 33L2 32ZM5 33L5 36L8 36L8 33ZM33 33L33 36L36 36L36 33ZM45 33L45 34L44 34L44 37L45 37L45 34L46 34L46 37L49 37L49 36L50 36L50 35L49 35L49 36L47 36L47 34L46 34L46 33ZM50 33L50 34L51 34L51 33ZM61 33L61 36L64 36L64 33ZM6 34L6 35L7 35L7 34ZM34 34L34 35L35 35L35 34ZM56 34L56 36L57 36L57 34ZM62 34L62 35L63 35L63 34ZM2 35L2 36L3 36L3 35ZM3 37L3 38L4 38L4 37ZM6 37L6 38L8 38L8 37ZM28 38L28 39L29 39L29 38ZM54 38L54 39L55 39L55 38ZM21 39L21 40L20 40L20 41L22 41L22 42L23 42L23 41L24 41L24 42L25 42L25 41L26 41L26 40L25 40L25 41L24 41L24 40L22 40L22 39ZM38 39L38 43L37 43L37 44L36 44L36 45L35 45L35 47L34 47L34 48L29 48L29 49L30 49L30 51L31 51L31 49L34 49L34 50L33 50L33 51L34 51L34 52L35 52L35 53L38 53L38 52L39 52L39 54L40 54L40 48L41 48L41 47L39 47L39 45L38 45L38 43L39 43L39 42L43 42L43 39L41 39L41 41L40 41L40 39ZM13 40L13 41L14 41L14 40ZM52 40L52 41L51 41L51 42L50 42L50 43L51 43L51 44L52 44L52 45L53 45L53 44L54 44L54 43L56 43L56 40L55 40L55 42L54 42L54 43L53 43L53 44L52 44L52 42L53 42L53 41L54 41L54 40ZM6 42L6 43L7 43L7 42ZM10 42L10 44L12 44L12 43L11 43L11 42ZM65 42L65 43L66 43L66 42ZM1 43L1 45L2 45L2 43ZM33 43L33 45L34 45L34 43ZM57 43L57 44L58 44L58 43ZM59 44L59 45L58 45L58 46L57 46L57 45L56 45L56 46L57 46L57 47L58 47L58 46L59 46L59 45L60 45L60 44ZM61 44L61 45L62 45L62 44ZM36 45L36 47L35 47L35 48L34 48L34 49L36 49L36 51L35 51L35 52L37 52L37 51L39 51L39 50L38 50L38 49L39 49L39 47L38 47L38 48L36 48L36 47L37 47L37 46L38 46L38 45ZM18 46L18 47L17 47L17 49L18 49L18 50L19 50L19 49L22 49L22 46L21 46L21 47L19 47L19 46ZM60 46L60 47L61 47L61 46ZM18 48L18 49L19 49L19 48ZM43 48L43 49L44 49L44 50L45 50L45 49L44 49L44 48ZM12 49L12 50L13 50L13 51L14 51L14 50L13 50L13 49ZM25 50L25 52L26 52L26 50ZM3 51L3 52L4 52L4 51ZM6 51L6 52L7 52L7 51ZM53 51L53 53L52 53L52 54L51 54L51 55L52 55L52 54L53 54L53 53L54 53L54 56L56 56L56 55L57 55L57 54L58 54L58 52L61 52L61 51ZM55 52L55 53L56 53L56 54L57 54L57 53L56 53L56 52ZM26 54L26 55L24 55L24 56L25 56L25 57L26 57L26 55L28 55L28 54ZM27 56L27 57L28 57L28 56ZM34 56L34 57L35 57L35 56ZM19 57L19 58L20 58L20 57ZM53 57L53 58L56 58L56 59L57 59L57 58L56 58L56 57ZM42 58L42 61L43 61L43 62L42 62L42 63L43 63L43 62L44 62L44 59L45 59L45 58ZM49 58L49 59L50 59L50 62L51 62L51 61L52 61L52 60L51 60L51 59L50 59L50 58ZM53 59L53 60L54 60L54 59ZM63 59L63 60L64 60L64 59ZM3 60L3 61L5 61L5 60ZM39 60L39 62L38 62L38 61L37 61L37 63L38 63L38 65L39 65L39 63L40 63L40 62L41 62L41 60ZM45 60L45 61L46 61L46 63L47 63L47 61L46 61L46 60ZM27 61L27 63L28 63L28 64L26 64L26 63L24 63L24 64L25 64L25 65L29 65L29 62L30 62L30 61ZM33 61L33 64L36 64L36 61ZM61 61L61 64L64 64L64 61ZM19 62L19 64L20 64L20 62ZM31 62L31 63L32 63L32 62ZM34 62L34 63L35 63L35 62ZM62 62L62 63L63 63L63 62ZM68 63L68 64L69 64L69 63ZM31 64L31 65L30 65L30 66L31 66L31 65L32 65L32 66L33 66L33 65L32 65L32 64ZM11 65L11 66L12 66L12 65ZM32 67L32 68L33 68L33 67ZM23 68L23 69L24 69L24 68ZM25 68L25 69L28 69L28 68ZM36 68L36 69L37 69L37 68ZM68 68L68 69L69 69L69 68ZM0 0L0 7L7 7L7 0ZM1 1L1 6L6 6L6 1ZM2 2L2 5L5 5L5 2ZM62 0L62 7L69 7L69 0ZM63 1L63 6L68 6L68 1ZM64 2L64 5L67 5L67 2ZM0 62L0 69L7 69L7 62ZM1 63L1 68L6 68L6 63ZM2 64L2 67L5 67L5 64Z" fill="#000000"/></g></g></svg>
