<?xml version="1.0" encoding="UTF-8"?>
<svg xmlns="http://www.w3.org/2000/svg" version="1.1" width="300" height="300" viewBox="0 0 300 300"><rect x="0" y="0" width="300" height="300" fill="#ffffff"/><g transform="scale(4.348)"><g transform="translate(0,0)"><path fill-rule="evenodd" d="M8 0L8 2L10 2L10 1L11 1L11 0L10 0L10 1L9 1L9 0ZM12 0L12 1L13 1L13 2L14 2L14 3L13 3L13 4L14 4L14 8L11 8L11 6L10 6L10 5L11 5L11 4L12 4L12 3L10 3L10 4L8 4L8 9L10 9L10 8L11 8L11 9L13 9L13 10L14 10L14 11L13 11L13 12L11 12L11 11L12 11L12 10L11 10L11 11L10 11L10 12L11 12L11 13L10 13L10 14L11 14L11 13L13 13L13 14L12 14L12 16L11 16L11 19L10 19L10 21L9 21L9 19L7 19L7 18L9 18L9 16L8 16L8 15L7 15L7 14L6 14L6 13L7 13L7 12L8 12L8 11L9 11L9 10L8 10L8 11L7 11L7 10L6 10L6 9L7 9L7 8L5 8L5 10L6 10L6 11L5 11L5 12L3 12L3 13L1 13L1 11L0 11L0 14L1 14L1 15L0 15L0 17L2 17L2 16L3 16L3 17L4 17L4 18L5 18L5 19L4 19L4 20L3 20L3 19L1 19L1 21L0 21L0 22L2 22L2 24L3 24L3 25L1 25L1 24L0 24L0 25L1 25L1 26L0 26L0 27L1 27L1 28L0 28L0 29L3 29L3 30L6 30L6 31L5 31L5 32L4 32L4 31L3 31L3 32L1 32L1 33L3 33L3 34L4 34L4 35L3 35L3 36L2 36L2 37L1 37L1 36L0 36L0 37L1 37L1 38L3 38L3 36L4 36L4 37L7 37L7 38L6 38L6 39L5 39L5 38L4 38L4 39L5 39L5 40L3 40L3 39L1 39L1 40L3 40L3 41L1 41L1 42L0 42L0 43L2 43L2 44L0 44L0 45L1 45L1 46L0 46L0 47L1 47L1 48L0 48L0 51L1 51L1 52L0 52L0 54L1 54L1 53L2 53L2 55L1 55L1 56L0 56L0 57L1 57L1 58L0 58L0 61L1 61L1 58L2 58L2 59L3 59L3 58L4 58L4 59L7 59L7 58L8 58L8 60L6 60L6 61L8 61L8 62L9 62L9 63L8 63L8 64L10 64L10 65L9 65L9 66L8 66L8 69L10 69L10 68L9 68L9 67L12 67L12 65L11 65L11 63L10 63L10 61L12 61L12 60L11 60L11 59L10 59L10 58L11 58L11 55L7 55L7 54L8 54L8 53L9 53L9 52L10 52L10 54L11 54L11 52L12 52L12 51L13 51L13 50L12 50L12 51L10 51L10 50L9 50L9 48L10 48L10 49L11 49L11 48L10 48L10 47L12 47L12 49L14 49L14 50L16 50L16 51L17 51L17 52L15 52L15 54L14 54L14 52L13 52L13 54L12 54L12 56L13 56L13 57L12 57L12 58L14 58L14 59L13 59L13 60L14 60L14 59L15 59L15 60L16 60L16 61L15 61L15 62L16 62L16 61L17 61L17 59L16 59L16 58L18 58L18 57L19 57L19 59L20 59L20 57L21 57L21 56L20 56L20 55L21 55L21 54L22 54L22 53L23 53L23 54L24 54L24 53L25 53L25 54L26 54L26 53L27 53L27 52L26 52L26 51L27 51L27 50L26 50L26 49L27 49L27 48L28 48L28 49L29 49L29 50L28 50L28 51L30 51L30 54L28 54L28 55L27 55L27 56L26 56L26 57L27 57L27 58L26 58L26 59L25 59L25 58L24 58L24 59L25 59L25 60L26 60L26 61L25 61L25 62L26 62L26 61L27 61L27 62L28 62L28 63L30 63L30 64L27 64L27 63L26 63L26 64L27 64L27 66L24 66L24 65L25 65L25 64L24 64L24 60L23 60L23 58L21 58L21 59L22 59L22 61L23 61L23 63L22 63L22 62L20 62L20 60L18 60L18 62L17 62L17 63L16 63L16 64L17 64L17 66L18 66L18 67L17 67L17 68L16 68L16 69L17 69L17 68L18 68L18 69L19 69L19 66L18 66L18 65L19 65L19 64L20 64L20 65L21 65L21 64L20 64L20 63L22 63L22 66L20 66L20 67L21 67L21 69L25 69L25 67L26 67L26 69L29 69L29 68L30 68L30 69L31 69L31 68L30 68L30 67L28 67L28 66L31 66L31 64L32 64L32 66L33 66L33 68L32 68L32 69L33 69L33 68L34 68L34 67L35 67L35 69L37 69L37 68L36 68L36 67L37 67L37 62L38 62L38 65L39 65L39 66L40 66L40 65L41 65L41 68L40 68L40 69L42 69L42 65L43 65L43 67L44 67L44 69L45 69L45 67L44 67L44 65L47 65L47 66L48 66L48 67L46 67L46 69L47 69L47 68L48 68L48 69L50 69L50 68L48 68L48 67L49 67L49 66L50 66L50 67L52 67L52 66L54 66L54 67L57 67L57 68L56 68L56 69L57 69L57 68L58 68L58 69L60 69L60 67L61 67L61 69L62 69L62 67L63 67L63 66L64 66L64 68L63 68L63 69L66 69L66 67L69 67L69 66L64 66L64 65L66 65L66 63L67 63L67 62L66 62L66 61L68 61L68 59L69 59L69 58L68 58L68 59L67 59L67 56L68 56L68 57L69 57L69 56L68 56L68 55L69 55L69 52L68 52L68 51L69 51L69 45L68 45L68 49L66 49L66 47L67 47L67 46L65 46L65 48L64 48L64 47L63 47L63 46L64 46L64 45L67 45L67 44L66 44L66 43L65 43L65 44L64 44L64 45L62 45L62 44L61 44L61 42L60 42L60 41L62 41L62 43L64 43L64 40L65 40L65 41L68 41L68 44L69 44L69 38L68 38L68 37L69 37L69 33L68 33L68 37L67 37L67 38L66 38L66 35L65 35L65 32L66 32L66 30L68 30L68 31L69 31L69 30L68 30L68 28L69 28L69 25L68 25L68 23L69 23L69 20L68 20L68 19L69 19L69 17L68 17L68 16L66 16L66 15L67 15L67 13L68 13L68 11L69 11L69 10L68 10L68 11L67 11L67 12L66 12L66 10L67 10L67 9L69 9L69 8L67 8L67 9L66 9L66 10L65 10L65 8L61 8L61 9L63 9L63 10L64 10L64 11L61 11L61 14L60 14L60 15L59 15L59 14L58 14L58 13L59 13L59 12L60 12L60 8L59 8L59 4L58 4L58 5L56 5L56 10L55 10L55 12L54 12L54 9L55 9L55 6L54 6L54 7L53 7L53 6L52 6L52 9L51 9L51 6L50 6L50 7L49 7L49 5L48 5L48 1L49 1L49 0L48 0L48 1L47 1L47 0L46 0L46 1L45 1L45 2L46 2L46 3L47 3L47 4L46 4L46 5L47 5L47 6L46 6L46 7L47 7L47 8L44 8L44 9L43 9L43 11L41 11L41 10L42 10L42 8L43 8L43 4L44 4L44 7L45 7L45 4L44 4L44 2L43 2L43 4L42 4L42 8L40 8L40 9L41 9L41 10L40 10L40 11L41 11L41 13L40 13L40 14L41 14L41 13L42 13L42 12L44 12L44 13L45 13L45 14L46 14L46 15L47 15L47 16L48 16L48 18L47 18L47 19L48 19L48 18L49 18L49 17L51 17L51 18L53 18L53 19L51 19L51 23L50 23L50 21L49 21L49 20L50 20L50 19L49 19L49 20L48 20L48 21L47 21L47 22L46 22L46 21L45 21L45 20L46 20L46 16L45 16L45 15L44 15L44 14L43 14L43 15L42 15L42 16L40 16L40 17L39 17L39 14L38 14L38 13L37 13L37 14L36 14L36 13L35 13L35 14L34 14L34 15L35 15L35 16L34 16L34 17L35 17L35 18L36 18L36 20L35 20L35 21L37 21L37 22L36 22L36 23L38 23L38 24L37 24L37 26L36 26L36 24L35 24L35 25L34 25L34 27L33 27L33 26L32 26L32 23L33 23L33 22L32 22L32 21L33 21L33 20L32 20L32 19L34 19L34 18L33 18L33 17L32 17L32 15L33 15L33 14L32 14L32 15L31 15L31 14L29 14L29 16L28 16L28 17L29 17L29 16L30 16L30 19L31 19L31 20L30 20L30 22L29 22L29 23L28 23L28 21L29 21L29 20L27 20L27 18L26 18L26 17L27 17L27 16L26 16L26 15L28 15L28 12L29 12L29 11L30 11L30 13L31 13L31 10L29 10L29 11L28 11L28 10L27 10L27 8L28 8L28 7L29 7L29 6L30 6L30 8L31 8L31 9L37 9L37 10L38 10L38 11L36 11L36 12L39 12L39 10L38 10L38 9L39 9L39 8L38 8L38 7L39 7L39 6L38 6L38 5L40 5L40 7L41 7L41 5L40 5L40 3L42 3L42 2L41 2L41 0L40 0L40 2L39 2L39 0L38 0L38 1L37 1L37 3L36 3L36 2L34 2L34 4L33 4L33 0L32 0L32 2L30 2L30 0L29 0L29 1L28 1L28 2L29 2L29 4L28 4L28 5L27 5L27 6L26 6L26 5L25 5L25 2L24 2L24 1L27 1L27 0L24 0L24 1L23 1L23 0L18 0L18 2L17 2L17 1L16 1L16 0L14 0L14 1L13 1L13 0ZM34 0L34 1L35 1L35 0ZM42 0L42 1L44 1L44 0ZM50 0L50 1L51 1L51 2L50 2L50 3L51 3L51 4L50 4L50 5L53 5L53 4L54 4L54 5L55 5L55 4L56 4L56 2L54 2L54 3L53 3L53 2L52 2L52 1L53 1L53 0L52 0L52 1L51 1L51 0ZM54 0L54 1L56 1L56 0ZM58 0L58 1L61 1L61 0ZM15 1L15 3L14 3L14 4L15 4L15 3L16 3L16 4L17 4L17 5L18 5L18 4L19 4L19 8L21 8L21 7L22 7L22 8L25 8L25 10L24 10L24 11L25 11L25 10L26 10L26 12L25 12L25 13L24 13L24 15L23 15L23 13L22 13L22 11L20 11L20 10L21 10L21 9L20 9L20 10L19 10L19 9L18 9L18 6L17 6L17 9L15 9L15 8L16 8L16 5L15 5L15 8L14 8L14 10L15 10L15 11L14 11L14 13L15 13L15 14L13 14L13 16L12 16L12 19L11 19L11 20L12 20L12 21L13 21L13 18L16 18L16 16L17 16L17 18L18 18L18 19L17 19L17 20L16 20L16 21L15 21L15 20L14 20L14 23L15 23L15 24L17 24L17 26L16 26L16 27L17 27L17 29L16 29L16 30L17 30L17 29L18 29L18 30L19 30L19 29L20 29L20 30L21 30L21 31L20 31L20 32L19 32L19 31L18 31L18 32L19 32L19 33L18 33L18 35L15 35L15 34L14 34L14 33L15 33L15 32L14 32L14 31L13 31L13 32L12 32L12 31L11 31L11 28L12 28L12 29L13 29L13 28L14 28L14 30L15 30L15 25L14 25L14 24L12 24L12 27L11 27L11 24L10 24L10 23L11 23L11 21L10 21L10 23L9 23L9 24L8 24L8 26L7 26L7 25L6 25L6 24L7 24L7 23L8 23L8 21L6 21L6 22L5 22L5 21L3 21L3 20L2 20L2 22L5 22L5 23L3 23L3 24L4 24L4 26L2 26L2 28L3 28L3 29L5 29L5 28L3 28L3 27L5 27L5 26L7 26L7 27L6 27L6 28L7 28L7 29L6 29L6 30L7 30L7 31L6 31L6 32L9 32L9 33L10 33L10 31L11 31L11 34L9 34L9 37L8 37L8 38L7 38L7 39L6 39L6 40L8 40L8 41L9 41L9 40L10 40L10 38L11 38L11 41L10 41L10 42L8 42L8 43L11 43L11 44L8 44L8 45L9 45L9 46L7 46L7 45L4 45L4 44L7 44L7 43L6 43L6 42L7 42L7 41L6 41L6 42L5 42L5 41L3 41L3 42L5 42L5 43L4 43L4 44L3 44L3 46L5 46L5 48L4 48L4 47L2 47L2 48L3 48L3 49L1 49L1 51L2 51L2 53L3 53L3 52L4 52L4 54L3 54L3 56L1 56L1 57L3 57L3 56L4 56L4 58L7 58L7 57L8 57L8 56L7 56L7 55L6 55L6 54L7 54L7 53L8 53L8 52L9 52L9 51L8 51L8 49L5 49L5 48L8 48L8 47L10 47L10 46L11 46L11 45L12 45L12 47L13 47L13 48L14 48L14 47L15 47L15 49L16 49L16 50L17 50L17 51L18 51L18 52L17 52L17 53L16 53L16 56L17 56L17 57L18 57L18 56L19 56L19 57L20 57L20 56L19 56L19 53L20 53L20 54L21 54L21 53L22 53L22 52L21 52L21 53L20 53L20 52L19 52L19 48L18 48L18 47L19 47L19 46L21 46L21 47L22 47L22 46L23 46L23 45L22 45L22 44L23 44L23 41L22 41L22 42L21 42L21 41L20 41L20 38L23 38L23 37L24 37L24 39L25 39L25 42L24 42L24 43L27 43L27 45L26 45L26 44L25 44L25 45L24 45L24 47L23 47L23 50L25 50L25 48L24 48L24 47L25 47L25 45L26 45L26 46L27 46L27 47L26 47L26 48L27 48L27 47L28 47L28 48L29 48L29 49L30 49L30 51L31 51L31 52L32 52L32 53L31 53L31 54L32 54L32 55L30 55L30 56L31 56L31 57L30 57L30 58L29 58L29 55L28 55L28 58L27 58L27 61L28 61L28 62L30 62L30 60L31 60L31 59L30 59L30 58L32 58L32 57L33 57L33 59L32 59L32 60L35 60L35 59L36 59L36 60L38 60L38 62L39 62L39 65L40 65L40 62L41 62L41 61L42 61L42 62L43 62L43 65L44 65L44 63L45 63L45 61L44 61L44 59L41 59L41 58L40 58L40 55L42 55L42 56L41 56L41 57L42 57L42 58L45 58L45 57L46 57L46 58L47 58L47 61L46 61L46 62L47 62L47 61L48 61L48 64L47 64L47 63L46 63L46 64L47 64L47 65L48 65L48 64L49 64L49 65L50 65L50 66L51 66L51 65L52 65L52 64L53 64L53 63L54 63L54 64L55 64L55 65L54 65L54 66L55 66L55 65L56 65L56 63L57 63L57 65L58 65L58 66L57 66L57 67L58 67L58 66L59 66L59 67L60 67L60 66L61 66L61 67L62 67L62 66L63 66L63 65L60 65L60 63L59 63L59 62L60 62L60 61L59 61L59 60L60 60L60 59L61 59L61 60L63 60L63 59L62 59L62 58L63 58L63 57L64 57L64 58L65 58L65 59L64 59L64 60L65 60L65 59L66 59L66 60L67 60L67 59L66 59L66 58L65 58L65 57L66 57L66 56L67 56L67 51L68 51L68 50L67 50L67 51L64 51L64 52L65 52L65 53L64 53L64 54L63 54L63 52L62 52L62 49L63 49L63 48L62 48L62 45L61 45L61 44L60 44L60 45L61 45L61 46L60 46L60 48L62 48L62 49L61 49L61 50L59 50L59 49L58 49L58 48L59 48L59 47L58 47L58 48L57 48L57 46L56 46L56 44L57 44L57 45L58 45L58 46L59 46L59 43L60 43L60 42L59 42L59 40L60 40L60 39L61 39L61 40L62 40L62 38L60 38L60 39L58 39L58 38L59 38L59 36L60 36L60 33L58 33L58 34L59 34L59 36L58 36L58 35L57 35L57 34L56 34L56 30L57 30L57 31L58 31L58 32L62 32L62 31L61 31L61 29L62 29L62 30L63 30L63 31L64 31L64 26L63 26L63 25L64 25L64 24L65 24L65 25L66 25L66 26L65 26L65 30L66 30L66 29L67 29L67 27L66 27L66 26L67 26L67 25L66 25L66 24L67 24L67 23L68 23L68 20L67 20L67 19L68 19L68 18L67 18L67 19L64 19L64 16L65 16L65 15L66 15L66 12L65 12L65 14L64 14L64 15L63 15L63 13L64 13L64 12L62 12L62 15L60 15L60 16L59 16L59 17L58 17L58 18L57 18L57 17L56 17L56 16L57 16L57 14L56 14L56 16L55 16L55 13L53 13L53 15L54 15L54 16L55 16L55 17L54 17L54 18L56 18L56 19L55 19L55 20L53 20L53 21L52 21L52 23L51 23L51 24L50 24L50 23L49 23L49 21L48 21L48 22L47 22L47 23L45 23L45 21L44 21L44 20L45 20L45 17L44 17L44 15L43 15L43 17L42 17L42 18L41 18L41 17L40 17L40 19L42 19L42 20L41 20L41 21L40 21L40 20L38 20L38 21L40 21L40 22L39 22L39 24L38 24L38 26L37 26L37 27L36 27L36 28L37 28L37 27L38 27L38 30L37 30L37 29L36 29L36 30L34 30L34 31L36 31L36 30L37 30L37 31L38 31L38 30L39 30L39 25L40 25L40 28L43 28L43 29L40 29L40 30L42 30L42 35L41 35L41 34L39 34L39 33L40 33L40 31L39 31L39 32L37 32L37 33L38 33L38 34L37 34L37 39L36 39L36 38L35 38L35 37L33 37L33 38L34 38L34 40L33 40L33 39L32 39L32 40L30 40L30 39L31 39L31 38L32 38L32 37L30 37L30 36L32 36L32 35L31 35L31 34L32 34L32 32L33 32L33 31L32 31L32 32L31 32L31 33L30 33L30 32L29 32L29 28L28 28L28 27L30 27L30 28L31 28L31 27L30 27L30 26L31 26L31 25L30 25L30 26L29 26L29 25L28 25L28 23L26 23L26 24L25 24L25 22L27 22L27 21L26 21L26 20L25 20L25 19L24 19L24 18L25 18L25 17L24 17L24 15L25 15L25 13L26 13L26 12L28 12L28 11L27 11L27 10L26 10L26 6L25 6L25 7L24 7L24 6L23 6L23 3L24 3L24 2L23 2L23 3L22 3L22 1L20 1L20 2L21 2L21 7L20 7L20 3L19 3L19 2L18 2L18 4L17 4L17 2L16 2L16 1ZM46 1L46 2L47 2L47 1ZM26 2L26 3L27 3L27 2ZM57 2L57 3L59 3L59 2ZM30 3L30 5L31 5L31 8L32 8L32 3ZM38 3L38 4L39 4L39 3ZM52 3L52 4L53 4L53 3ZM54 3L54 4L55 4L55 3ZM60 3L60 5L61 5L61 3ZM12 5L12 7L13 7L13 5ZM33 5L33 8L36 8L36 5ZM9 6L9 7L10 7L10 6ZM22 6L22 7L23 7L23 6ZM27 6L27 7L28 7L28 6ZM34 6L34 7L35 7L35 6ZM37 6L37 7L38 7L38 6ZM47 6L47 7L48 7L48 8L47 8L47 9L46 9L46 10L45 10L45 11L46 11L46 10L47 10L47 9L48 9L48 11L47 11L47 13L46 13L46 14L47 14L47 13L48 13L48 16L49 16L49 15L50 15L50 14L51 14L51 13L52 13L52 11L53 11L53 9L54 9L54 8L53 8L53 9L52 9L52 10L51 10L51 9L50 9L50 8L49 8L49 7L48 7L48 6ZM57 6L57 11L58 11L58 12L57 12L57 13L58 13L58 12L59 12L59 9L58 9L58 6ZM60 6L60 7L61 7L61 6ZM0 8L0 10L2 10L2 11L3 11L3 8ZM48 8L48 9L49 9L49 11L48 11L48 13L49 13L49 14L50 14L50 13L51 13L51 10L50 10L50 9L49 9L49 8ZM22 9L22 10L23 10L23 9ZM17 10L17 12L18 12L18 13L16 13L16 14L15 14L15 15L16 15L16 14L18 14L18 13L19 13L19 15L18 15L18 16L19 16L19 19L18 19L18 21L16 21L16 22L15 22L15 23L16 23L16 22L18 22L18 25L19 25L19 27L18 27L18 26L17 26L17 27L18 27L18 29L19 29L19 27L20 27L20 29L21 29L21 27L22 27L22 29L23 29L23 30L22 30L22 31L21 31L21 32L20 32L20 33L21 33L21 32L22 32L22 34L23 34L23 35L21 35L21 34L20 34L20 35L21 35L21 36L22 36L22 37L23 37L23 35L24 35L24 34L23 34L23 32L25 32L25 31L24 31L24 28L23 28L23 27L22 27L22 26L21 26L21 27L20 27L20 25L19 25L19 23L20 23L20 21L21 21L21 19L23 19L23 18L24 18L24 17L23 17L23 15L21 15L21 16L20 16L20 13L19 13L19 11L18 11L18 10ZM32 10L32 11L33 11L33 12L32 12L32 13L33 13L33 12L34 12L34 11L35 11L35 10L34 10L34 11L33 11L33 10ZM6 11L6 12L7 12L7 11ZM49 12L49 13L50 13L50 12ZM21 13L21 14L22 14L22 13ZM4 14L4 15L6 15L6 16L4 16L4 17L6 17L6 18L7 18L7 17L6 17L6 16L7 16L7 15L6 15L6 14ZM35 14L35 15L36 15L36 14ZM37 14L37 16L38 16L38 14ZM68 14L68 15L69 15L69 14ZM1 15L1 16L2 16L2 15ZM30 15L30 16L31 16L31 15ZM62 15L62 17L61 17L61 16L60 16L60 17L59 17L59 18L58 18L58 19L56 19L56 21L57 21L57 22L56 22L56 23L58 23L58 21L59 21L59 20L60 20L60 19L62 19L62 20L61 20L61 23L62 23L62 25L61 25L61 24L60 24L60 22L59 22L59 24L60 24L60 25L59 25L59 26L58 26L58 24L56 24L56 29L57 29L57 30L58 30L58 31L60 31L60 29L61 29L61 28L62 28L62 29L63 29L63 26L62 26L62 25L63 25L63 23L62 23L62 21L63 21L63 22L64 22L64 21L65 21L65 24L66 24L66 23L67 23L67 22L66 22L66 21L65 21L65 20L64 20L64 21L63 21L63 19L62 19L62 17L63 17L63 15ZM13 16L13 17L14 17L14 16ZM21 16L21 18L20 18L20 19L21 19L21 18L23 18L23 17L22 17L22 16ZM35 16L35 17L36 17L36 18L37 18L37 17L36 17L36 16ZM38 17L38 18L39 18L39 17ZM60 17L60 18L61 18L61 17ZM28 18L28 19L29 19L29 18ZM42 18L42 19L44 19L44 18ZM6 19L6 20L7 20L7 19ZM58 19L58 20L57 20L57 21L58 21L58 20L59 20L59 19ZM19 20L19 21L18 21L18 22L19 22L19 21L20 21L20 20ZM22 20L22 21L23 21L23 22L24 22L24 21L25 21L25 20L24 20L24 21L23 21L23 20ZM42 20L42 21L41 21L41 22L40 22L40 25L41 25L41 26L42 26L42 27L43 27L43 28L44 28L44 29L43 29L43 30L44 30L44 34L43 34L43 35L42 35L42 36L41 36L41 35L39 35L39 34L38 34L38 35L39 35L39 36L38 36L38 37L41 37L41 38L38 38L38 39L40 39L40 41L39 41L39 42L38 42L38 40L36 40L36 39L35 39L35 40L34 40L34 41L32 41L32 42L29 42L29 44L28 44L28 45L27 45L27 46L28 46L28 45L29 45L29 46L30 46L30 47L29 47L29 48L30 48L30 49L31 49L31 51L32 51L32 52L33 52L33 53L32 53L32 54L34 54L34 55L35 55L35 56L34 56L34 58L36 58L36 57L37 57L37 59L38 59L38 60L39 60L39 61L41 61L41 60L39 60L39 59L40 59L40 58L38 58L38 57L39 57L39 56L38 56L38 55L39 55L39 53L40 53L40 54L42 54L42 53L43 53L43 50L42 50L42 49L43 49L43 48L44 48L44 50L46 50L46 51L44 51L44 54L43 54L43 55L44 55L44 57L45 57L45 55L49 55L49 56L48 56L48 57L47 57L47 58L48 58L48 61L49 61L49 64L50 64L50 65L51 65L51 64L52 64L52 63L53 63L53 62L54 62L54 63L55 63L55 62L56 62L56 61L57 61L57 63L58 63L58 65L59 65L59 63L58 63L58 60L59 60L59 59L60 59L60 58L61 58L61 53L60 53L60 52L61 52L61 51L60 51L60 52L59 52L59 53L60 53L60 56L59 56L59 55L58 55L58 52L57 52L57 51L56 51L56 50L57 50L57 48L56 48L56 47L55 47L55 46L54 46L54 45L55 45L55 44L54 44L54 43L57 43L57 44L58 44L58 43L59 43L59 42L58 42L58 40L56 40L56 42L54 42L54 41L53 41L53 40L54 40L54 37L55 37L55 38L58 38L58 36L57 36L57 35L56 35L56 34L54 34L54 32L55 32L55 30L54 30L54 28L53 28L53 27L55 27L55 26L54 26L54 24L52 24L52 25L51 25L51 26L50 26L50 24L49 24L49 23L47 23L47 26L46 26L46 25L45 25L45 24L44 24L44 25L45 25L45 27L43 27L43 26L42 26L42 25L43 25L43 24L42 24L42 21L43 21L43 23L44 23L44 21L43 21L43 20ZM53 21L53 22L54 22L54 23L55 23L55 22L54 22L54 21ZM6 22L6 23L7 23L7 22ZM12 22L12 23L13 23L13 22ZM31 22L31 23L30 23L30 24L31 24L31 23L32 23L32 22ZM22 23L22 24L24 24L24 25L25 25L25 24L24 24L24 23ZM9 24L9 25L10 25L10 24ZM26 24L26 25L27 25L27 27L28 27L28 25L27 25L27 24ZM13 25L13 26L14 26L14 25ZM60 25L60 27L62 27L62 26L61 26L61 25ZM8 26L8 27L7 27L7 28L8 28L8 27L10 27L10 28L9 28L9 29L7 29L7 30L8 30L8 31L9 31L9 29L10 29L10 28L11 28L11 27L10 27L10 26ZM24 26L24 27L26 27L26 26ZM51 26L51 27L50 27L50 28L51 28L51 27L52 27L52 26ZM57 26L57 27L58 27L58 26ZM34 27L34 28L32 28L32 29L34 29L34 28L35 28L35 27ZM45 27L45 29L44 29L44 30L45 30L45 29L46 29L46 30L47 30L47 31L48 31L48 32L46 32L46 34L44 34L44 35L43 35L43 36L42 36L42 38L43 38L43 41L42 41L42 39L41 39L41 41L42 41L42 42L39 42L39 43L38 43L38 42L37 42L37 41L36 41L36 42L37 42L37 43L36 43L36 44L37 44L37 43L38 43L38 48L36 48L36 49L38 49L38 50L37 50L37 51L36 51L36 52L35 52L35 51L34 51L34 52L35 52L35 53L34 53L34 54L35 54L35 55L36 55L36 56L37 56L37 55L36 55L36 54L37 54L37 51L38 51L38 50L39 50L39 49L40 49L40 51L41 51L41 53L42 53L42 51L41 51L41 49L40 49L40 48L41 48L41 47L44 47L44 48L47 48L47 49L46 49L46 50L48 50L48 48L49 48L49 49L50 49L50 50L51 50L51 51L50 51L50 52L49 52L49 53L48 53L48 51L47 51L47 52L46 52L46 54L47 54L47 53L48 53L48 54L49 54L49 55L50 55L50 56L49 56L49 57L50 57L50 58L52 58L52 59L53 59L53 60L54 60L54 59L55 59L55 61L54 61L54 62L55 62L55 61L56 61L56 60L58 60L58 58L59 58L59 56L58 56L58 55L57 55L57 54L56 54L56 51L55 51L55 49L56 49L56 48L55 48L55 49L54 49L54 51L52 51L52 50L53 50L53 49L52 49L52 48L53 48L53 47L52 47L52 44L53 44L53 45L54 45L54 44L53 44L53 43L54 43L54 42L53 42L53 43L52 43L52 40L51 40L51 39L52 39L52 38L51 38L51 37L52 37L52 36L53 36L53 33L52 33L52 31L53 31L53 32L54 32L54 30L52 30L52 29L50 29L50 30L49 30L49 31L48 31L48 30L47 30L47 29L48 29L48 27ZM26 28L26 29L27 29L27 31L26 31L26 32L27 32L27 34L26 34L26 35L25 35L25 38L26 38L26 39L27 39L27 38L28 38L28 39L29 39L29 38L30 38L30 37L29 37L29 35L28 35L28 34L30 34L30 33L29 33L29 32L28 32L28 29L27 29L27 28ZM58 28L58 30L59 30L59 28ZM50 30L50 31L51 31L51 30ZM16 31L16 32L17 32L17 31ZM48 32L48 37L47 37L47 39L46 39L46 35L47 35L47 34L46 34L46 35L44 35L44 37L43 37L43 38L45 38L45 39L46 39L46 41L45 41L45 40L44 40L44 41L43 41L43 42L42 42L42 43L41 43L41 44L42 44L42 45L43 45L43 44L42 44L42 43L44 43L44 41L45 41L45 42L46 42L46 41L47 41L47 39L48 39L48 41L49 41L49 43L48 43L48 42L47 42L47 43L46 43L46 44L44 44L44 45L45 45L45 46L44 46L44 47L46 47L46 45L47 45L47 48L48 48L48 45L49 45L49 46L50 46L50 45L51 45L51 44L50 44L50 40L49 40L49 39L51 39L51 38L50 38L50 37L49 37L49 33L51 33L51 32ZM5 33L5 36L8 36L8 33ZM16 33L16 34L17 34L17 33ZM33 33L33 36L36 36L36 33ZM61 33L61 36L64 36L64 33ZM0 34L0 35L1 35L1 34ZM6 34L6 35L7 35L7 34ZM12 34L12 35L13 35L13 36L14 36L14 37L15 37L15 39L14 39L14 38L13 38L13 37L11 37L11 36L10 36L10 37L11 37L11 38L12 38L12 39L14 39L14 40L12 40L12 41L11 41L11 42L13 42L13 43L12 43L12 45L13 45L13 46L14 46L14 44L15 44L15 43L14 43L14 42L15 42L15 40L16 40L16 41L17 41L17 40L16 40L16 39L18 39L18 41L19 41L19 42L18 42L18 43L19 43L19 44L18 44L18 46L19 46L19 44L20 44L20 43L21 43L21 44L22 44L22 43L21 43L21 42L20 42L20 41L19 41L19 38L16 38L16 37L17 37L17 36L16 36L16 37L15 37L15 35L14 35L14 34ZM34 34L34 35L35 35L35 34ZM51 34L51 36L52 36L52 34ZM62 34L62 35L63 35L63 34ZM18 35L18 37L19 37L19 35ZM26 35L26 36L27 36L27 37L28 37L28 38L29 38L29 37L28 37L28 36L27 36L27 35ZM54 35L54 36L55 36L55 37L56 37L56 35ZM63 37L63 40L64 40L64 38L65 38L65 37ZM67 38L67 39L66 39L66 40L68 40L68 38ZM22 39L22 40L23 40L23 39ZM26 40L26 42L28 42L28 41L27 41L27 40ZM13 41L13 42L14 42L14 41ZM34 41L34 42L35 42L35 41ZM16 42L16 43L17 43L17 42ZM32 42L32 43L33 43L33 44L32 44L32 45L31 45L31 46L32 46L32 47L30 47L30 48L32 48L32 51L33 51L33 49L34 49L34 50L35 50L35 49L34 49L34 48L35 48L35 46L37 46L37 45L35 45L35 46L34 46L34 44L35 44L35 43L33 43L33 42ZM30 43L30 44L29 44L29 45L30 45L30 44L31 44L31 43ZM16 44L16 45L15 45L15 47L16 47L16 48L17 48L17 47L16 47L16 45L17 45L17 44ZM47 44L47 45L48 45L48 44ZM49 44L49 45L50 45L50 44ZM21 45L21 46L22 46L22 45ZM40 45L40 46L41 46L41 45ZM6 46L6 47L7 47L7 46ZM33 46L33 48L34 48L34 46ZM49 47L49 48L50 48L50 49L51 49L51 48L50 48L50 47ZM21 48L21 49L22 49L22 48ZM3 49L3 50L2 50L2 51L4 51L4 52L5 52L5 54L6 54L6 53L7 53L7 52L8 52L8 51L7 51L7 50L4 50L4 49ZM64 49L64 50L66 50L66 49ZM20 50L20 51L22 51L22 50ZM5 51L5 52L7 52L7 51ZM24 51L24 52L25 52L25 53L26 53L26 52L25 52L25 51ZM51 51L51 52L52 52L52 53L51 53L51 54L50 54L50 53L49 53L49 54L50 54L50 55L51 55L51 56L50 56L50 57L51 57L51 56L52 56L52 57L53 57L53 59L54 59L54 56L55 56L55 55L56 55L56 57L55 57L55 58L56 58L56 59L57 59L57 58L58 58L58 57L57 57L57 55L56 55L56 54L55 54L55 55L54 55L54 56L52 56L52 55L51 55L51 54L53 54L53 52L52 52L52 51ZM18 52L18 53L19 53L19 52ZM38 52L38 53L39 53L39 52ZM65 53L65 54L64 54L64 57L65 57L65 56L66 56L66 53ZM13 54L13 56L15 56L15 55L14 55L14 54ZM44 54L44 55L45 55L45 54ZM62 54L62 57L63 57L63 54ZM4 55L4 56L5 56L5 57L7 57L7 56L6 56L6 55ZM22 55L22 56L24 56L24 57L25 57L25 56L24 56L24 55ZM32 55L32 56L33 56L33 55ZM14 57L14 58L15 58L15 57ZM56 57L56 58L57 58L57 57ZM28 58L28 59L29 59L29 60L28 60L28 61L29 61L29 60L30 60L30 59L29 59L29 58ZM9 59L9 60L8 60L8 61L10 61L10 59ZM45 59L45 60L46 60L46 59ZM50 59L50 60L49 60L49 61L50 61L50 62L52 62L52 60L51 60L51 59ZM3 60L3 61L5 61L5 60ZM31 61L31 62L32 62L32 61ZM33 61L33 64L36 64L36 61ZM43 61L43 62L44 62L44 61ZM61 61L61 64L64 64L64 61ZM12 62L12 63L13 63L13 64L14 64L14 65L15 65L15 64L14 64L14 62ZM19 62L19 63L18 63L18 64L19 64L19 63L20 63L20 62ZM34 62L34 63L35 63L35 62ZM62 62L62 63L63 63L63 62ZM68 62L68 64L67 64L67 65L69 65L69 62ZM41 63L41 65L42 65L42 63ZM23 64L23 65L24 65L24 64ZM34 65L34 66L35 66L35 67L36 67L36 65ZM13 66L13 68L11 68L11 69L14 69L14 66ZM22 66L22 68L23 68L23 67L24 67L24 66ZM38 68L38 69L39 69L39 68ZM52 68L52 69L53 69L53 68ZM54 68L54 69L55 69L55 68ZM68 68L68 69L69 69L69 68ZM0 0L0 7L7 7L7 0ZM1 1L1 6L6 6L6 1ZM2 2L2 5L5 5L5 2ZM62 0L62 7L69 7L69 0ZM63 1L63 6L68 6L68 1ZM64 2L64 5L67 5L67 2ZM0 62L0 69L7 69L7 62ZM1 63L1 68L6 68L6 63ZM2 64L2 67L5 67L5 64Z" fill="#000000"/></g></g></svg>
