<?xml version="1.0" encoding="UTF-8"?>
<svg xmlns="http://www.w3.org/2000/svg" version="1.1" width="300" height="300" viewBox="0 0 300 300"><rect x="0" y="0" width="300" height="300" fill="#ffffff"/><g transform="scale(4.348)"><g transform="translate(0,0)"><path fill-rule="evenodd" d="M12 0L12 1L8 1L8 2L9 2L9 3L8 3L8 4L9 4L9 5L8 5L8 7L9 7L9 5L12 5L12 7L13 7L13 4L15 4L15 5L14 5L14 7L15 7L15 8L14 8L14 9L15 9L15 10L14 10L14 11L13 11L13 10L12 10L12 9L13 9L13 8L12 8L12 9L9 9L9 8L6 8L6 9L7 9L7 10L6 10L6 11L7 11L7 12L6 12L6 13L8 13L8 14L6 14L6 15L7 15L7 16L6 16L6 17L4 17L4 16L5 16L5 15L4 15L4 14L5 14L5 13L4 13L4 14L3 14L3 12L5 12L5 11L4 11L4 10L5 10L5 8L0 8L0 9L4 9L4 10L0 10L0 11L1 11L1 12L2 12L2 15L1 15L1 16L0 16L0 17L3 17L3 19L4 19L4 20L1 20L1 19L2 19L2 18L1 18L1 19L0 19L0 20L1 20L1 21L0 21L0 22L2 22L2 23L0 23L0 24L1 24L1 25L0 25L0 31L2 31L2 29L4 29L4 30L3 30L3 34L2 34L2 35L4 35L4 36L1 36L1 37L3 37L3 39L2 39L2 38L1 38L1 39L0 39L0 40L1 40L1 42L2 42L2 40L3 40L3 42L4 42L4 43L3 43L3 44L2 44L2 43L0 43L0 45L3 45L3 44L4 44L4 45L5 45L5 43L7 43L7 44L6 44L6 45L7 45L7 46L6 46L6 47L7 47L7 46L8 46L8 44L9 44L9 43L15 43L15 44L16 44L16 45L17 45L17 47L15 47L15 49L18 49L18 50L17 50L17 52L16 52L16 51L14 51L14 47L13 47L13 46L15 46L15 45L13 45L13 46L12 46L12 47L8 47L8 48L6 48L6 49L8 49L8 51L7 51L7 50L5 50L5 48L4 48L4 47L5 47L5 46L1 46L1 47L0 47L0 53L3 53L3 54L4 54L4 55L5 55L5 53L3 53L3 52L2 52L2 50L5 50L5 51L7 51L7 52L6 52L6 53L7 53L7 54L6 54L6 55L7 55L7 54L10 54L10 53L12 53L12 54L11 54L11 58L10 58L10 60L9 60L9 61L8 61L8 59L7 59L7 58L8 58L8 56L10 56L10 55L8 55L8 56L6 56L6 57L7 57L7 58L4 58L4 57L5 57L5 56L3 56L3 58L2 58L2 59L3 59L3 58L4 58L4 59L7 59L7 60L6 60L6 61L8 61L8 63L9 63L9 64L8 64L8 69L10 69L10 68L11 68L11 69L14 69L14 68L16 68L16 69L22 69L22 68L23 68L23 69L26 69L26 68L27 68L27 69L28 69L28 68L29 68L29 69L32 69L32 68L33 68L33 69L34 69L34 68L33 68L33 66L34 66L34 67L35 67L35 68L36 68L36 69L38 69L38 68L37 68L37 66L38 66L38 67L39 67L39 66L38 66L38 65L39 65L39 64L41 64L41 66L40 66L40 67L41 67L41 66L44 66L44 68L43 68L43 67L42 67L42 68L41 68L41 69L44 69L44 68L47 68L47 69L49 69L49 68L47 68L47 67L49 67L49 66L50 66L50 65L49 65L49 64L50 64L50 63L48 63L48 64L47 64L47 66L46 66L46 64L45 64L45 63L44 63L44 62L46 62L46 63L47 63L47 62L50 62L50 60L51 60L51 64L53 64L53 65L54 65L54 66L51 66L51 67L50 67L50 68L51 68L51 67L54 67L54 68L53 68L53 69L54 69L54 68L55 68L55 69L56 69L56 68L55 68L55 67L56 67L56 66L57 66L57 65L59 65L59 67L57 67L57 69L58 69L58 68L59 68L59 67L60 67L60 68L61 68L61 69L62 69L62 67L63 67L63 69L65 69L65 68L67 68L67 69L68 69L68 68L67 68L67 65L68 65L68 64L69 64L69 63L68 63L68 60L67 60L67 59L68 59L68 58L65 58L65 59L64 59L64 60L62 60L62 58L63 58L63 57L64 57L64 56L67 56L67 57L68 57L68 56L69 56L69 55L61 55L61 56L60 56L60 57L59 57L59 58L60 58L60 57L61 57L61 56L63 56L63 57L62 57L62 58L61 58L61 60L60 60L60 61L59 61L59 62L56 62L56 63L54 63L54 62L55 62L55 61L56 61L56 60L55 60L55 59L56 59L56 58L57 58L57 57L58 57L58 56L59 56L59 55L57 55L57 57L56 57L56 52L57 52L57 53L59 53L59 54L60 54L60 53L59 53L59 51L61 51L61 52L62 52L62 53L61 53L61 54L62 54L62 53L64 53L64 52L63 52L63 51L64 51L64 50L63 50L63 49L64 49L64 47L63 47L63 49L62 49L62 48L61 48L61 49L60 49L60 50L59 50L59 51L58 51L58 50L57 50L57 51L55 51L55 50L56 50L56 48L55 48L55 47L59 47L59 46L57 46L57 45L58 45L58 44L57 44L57 43L56 43L56 44L55 44L55 45L53 45L53 47L54 47L54 48L53 48L53 49L51 49L51 48L50 48L50 47L52 47L52 46L50 46L50 45L51 45L51 44L52 44L52 43L53 43L53 42L57 42L57 41L58 41L58 40L57 40L57 39L55 39L55 37L56 37L56 38L57 38L57 37L58 37L58 36L59 36L59 35L60 35L60 37L59 37L59 39L60 39L60 38L61 38L61 41L60 41L60 42L59 42L59 44L62 44L62 45L60 45L60 46L61 46L61 47L62 47L62 46L63 46L63 45L64 45L64 44L65 44L65 45L66 45L66 47L65 47L65 48L67 48L67 51L66 51L66 52L65 52L65 54L69 54L69 53L66 53L66 52L68 52L68 50L69 50L69 49L68 49L68 48L67 48L67 47L68 47L68 46L69 46L69 43L68 43L68 41L67 41L67 40L69 40L69 39L68 39L68 36L69 36L69 35L68 35L68 34L69 34L69 33L68 33L68 32L67 32L67 31L68 31L68 28L69 28L69 27L67 27L67 26L69 26L69 23L68 23L68 22L65 22L65 21L63 21L63 24L64 24L64 22L65 22L65 25L64 25L64 27L62 27L62 29L59 29L59 26L62 26L62 24L61 24L61 22L62 22L62 21L61 21L61 20L62 20L62 19L63 19L63 20L64 20L64 19L63 19L63 18L65 18L65 20L66 20L66 21L68 21L68 18L69 18L69 16L68 16L68 17L67 17L67 15L68 15L68 13L67 13L67 12L68 12L68 10L67 10L67 9L68 9L68 8L67 8L67 9L66 9L66 8L65 8L65 9L64 9L64 8L63 8L63 9L64 9L64 10L66 10L66 11L65 11L65 13L63 13L63 14L62 14L62 12L64 12L64 11L63 11L63 10L61 10L61 9L62 9L62 8L61 8L61 6L60 6L60 7L59 7L59 4L58 4L58 5L55 5L55 4L56 4L56 2L55 2L55 0L53 0L53 1L54 1L54 2L55 2L55 4L53 4L53 5L52 5L52 4L51 4L51 2L52 2L52 1L51 1L51 2L50 2L50 0L48 0L48 1L49 1L49 2L50 2L50 4L51 4L51 5L49 5L49 3L48 3L48 2L47 2L47 1L45 1L45 0L44 0L44 1L45 1L45 2L44 2L44 3L43 3L43 0L41 0L41 1L38 1L38 0L36 0L36 1L34 1L34 0L33 0L33 1L32 1L32 0L30 0L30 1L29 1L29 0L28 0L28 1L27 1L27 2L26 2L26 3L25 3L25 2L24 2L24 1L25 1L25 0L23 0L23 1L22 1L22 2L23 2L23 3L25 3L25 4L22 4L22 3L17 3L17 2L20 2L20 1L19 1L19 0L17 0L17 1L15 1L15 0ZM56 0L56 1L61 1L61 0ZM13 1L13 2L12 2L12 3L16 3L16 4L17 4L17 7L16 7L16 5L15 5L15 7L16 7L16 8L15 8L15 9L17 9L17 7L18 7L18 8L20 8L20 10L19 10L19 11L18 11L18 10L16 10L16 11L14 11L14 12L13 12L13 13L12 13L12 15L11 15L11 14L10 14L10 13L9 13L9 12L10 12L10 11L11 11L11 10L9 10L9 9L8 9L8 10L7 10L7 11L8 11L8 13L9 13L9 14L8 14L8 15L9 15L9 16L10 16L10 18L11 18L11 16L12 16L12 17L13 17L13 18L12 18L12 19L11 19L11 20L12 20L12 21L13 21L13 22L14 22L14 21L16 21L16 25L15 25L15 23L12 23L12 22L11 22L11 21L10 21L10 19L9 19L9 17L8 17L8 16L7 16L7 17L6 17L6 18L5 18L5 20L4 20L4 21L6 21L6 22L5 22L5 23L4 23L4 22L3 22L3 21L2 21L2 22L3 22L3 23L2 23L2 25L1 25L1 26L2 26L2 27L1 27L1 29L2 29L2 28L4 28L4 29L5 29L5 28L7 28L7 27L6 27L6 26L8 26L8 25L9 25L9 23L8 23L8 22L9 22L9 21L10 21L10 22L11 22L11 24L10 24L10 25L11 25L11 24L14 24L14 25L15 25L15 26L16 26L16 25L17 25L17 21L16 21L16 20L15 20L15 19L16 19L16 16L18 16L18 17L17 17L17 18L18 18L18 17L23 17L23 13L24 13L24 12L25 12L25 11L26 11L26 13L27 13L27 14L25 14L25 15L24 15L24 17L26 17L26 20L25 20L25 18L24 18L24 19L23 19L23 18L22 18L22 20L21 20L21 21L20 21L20 20L19 20L19 19L20 19L20 18L19 18L19 19L17 19L17 20L19 20L19 21L18 21L18 22L19 22L19 23L18 23L18 24L19 24L19 25L20 25L20 26L17 26L17 27L19 27L19 29L15 29L15 30L17 30L17 31L18 31L18 30L19 30L19 32L20 32L20 33L19 33L19 34L20 34L20 35L18 35L18 34L17 34L17 33L18 33L18 32L17 32L17 33L16 33L16 32L15 32L15 31L12 31L12 32L14 32L14 33L11 33L11 30L12 30L12 27L14 27L14 28L13 28L13 30L14 30L14 28L16 28L16 27L14 27L14 26L10 26L10 27L11 27L11 30L10 30L10 29L9 29L9 27L8 27L8 29L6 29L6 30L8 30L8 29L9 29L9 33L11 33L11 34L12 34L12 35L13 35L13 34L15 34L15 33L16 33L16 35L18 35L18 36L21 36L21 37L20 37L20 39L21 39L21 40L22 40L22 41L20 41L20 42L19 42L19 41L18 41L18 40L19 40L19 39L17 39L17 40L14 40L14 42L15 42L15 43L16 43L16 44L19 44L19 43L21 43L21 44L20 44L20 46L18 46L18 47L17 47L17 48L18 48L18 49L21 49L21 51L22 51L22 52L19 52L19 53L16 53L16 52L14 52L14 54L12 54L12 56L13 56L13 59L14 59L14 60L13 60L13 61L14 61L14 62L12 62L12 60L11 60L11 61L9 61L9 63L11 63L11 62L12 62L12 63L14 63L14 64L15 64L15 65L14 65L14 66L13 66L13 67L12 67L12 68L13 68L13 67L14 67L14 66L15 66L15 67L17 67L17 65L18 65L18 64L17 64L17 65L16 65L16 64L15 64L15 63L16 63L16 62L17 62L17 63L18 63L18 62L19 62L19 63L20 63L20 65L19 65L19 66L18 66L18 67L19 67L19 68L22 68L22 67L23 67L23 68L26 68L26 67L27 67L27 68L28 68L28 67L27 67L27 66L28 66L28 65L29 65L29 68L32 68L32 67L31 67L31 66L32 66L32 65L29 65L29 63L30 63L30 62L31 62L31 63L32 63L32 60L31 60L31 59L33 59L33 58L35 58L35 59L36 59L36 58L37 58L37 60L38 60L38 64L37 64L37 65L38 65L38 64L39 64L39 63L41 63L41 64L44 64L44 66L45 66L45 67L46 67L46 66L45 66L45 64L44 64L44 63L42 63L42 62L41 62L41 60L42 60L42 61L43 61L43 62L44 62L44 61L45 61L45 60L44 60L44 59L45 59L45 58L46 58L46 59L47 59L47 60L46 60L46 62L47 62L47 60L49 60L49 58L48 58L48 59L47 59L47 57L48 57L48 56L49 56L49 57L50 57L50 59L51 59L51 60L52 60L52 63L53 63L53 62L54 62L54 61L55 61L55 60L54 60L54 61L53 61L53 60L52 60L52 59L55 59L55 58L52 58L52 59L51 59L51 57L54 57L54 56L55 56L55 54L54 54L54 53L53 53L53 52L55 52L55 51L53 51L53 50L52 50L52 52L51 52L51 49L50 49L50 48L49 48L49 47L50 47L50 46L47 46L47 45L45 45L45 44L44 44L44 45L45 45L45 46L42 46L42 45L41 45L41 46L42 46L42 48L41 48L41 47L40 47L40 46L39 46L39 45L40 45L40 44L41 44L41 43L40 43L40 41L41 41L41 40L44 40L44 42L43 42L43 43L44 43L44 42L45 42L45 43L46 43L46 44L47 44L47 43L48 43L48 44L49 44L49 45L50 45L50 44L51 44L51 43L52 43L52 42L51 42L51 41L53 41L53 39L54 39L54 40L55 40L55 39L54 39L54 38L53 38L53 37L55 37L55 36L56 36L56 37L57 37L57 35L59 35L59 34L60 34L60 32L59 32L59 33L57 33L57 32L55 32L55 31L56 31L56 29L57 29L57 31L60 31L60 30L59 30L59 29L58 29L58 26L59 26L59 25L60 25L60 24L57 24L57 23L58 23L58 22L59 22L59 23L60 23L60 22L59 22L59 21L58 21L58 20L60 20L60 19L62 19L62 18L63 18L63 17L66 17L66 16L65 16L65 15L64 15L64 14L63 14L63 15L64 15L64 16L62 16L62 14L60 14L60 15L59 15L59 12L60 12L60 13L61 13L61 10L59 10L59 9L58 9L58 8L59 8L59 7L58 7L58 6L57 6L57 7L56 7L56 6L55 6L55 7L56 7L56 9L55 9L55 11L56 11L56 9L57 9L57 11L58 11L58 10L59 10L59 12L58 12L58 13L57 13L57 12L56 12L56 14L54 14L54 15L56 15L56 18L53 18L53 19L54 19L54 20L56 20L56 21L55 21L55 22L54 22L54 21L53 21L53 20L52 20L52 18L51 18L51 16L52 16L52 17L53 17L53 16L52 16L52 15L53 15L53 12L54 12L54 10L53 10L53 11L52 11L52 12L50 12L50 11L51 11L51 9L53 9L53 8L52 8L52 6L51 6L51 9L50 9L50 6L49 6L49 9L50 9L50 11L49 11L49 10L47 10L47 7L48 7L48 6L47 6L47 5L48 5L48 3L47 3L47 2L45 2L45 3L44 3L44 5L40 5L40 4L43 4L43 3L41 3L41 2L42 2L42 1L41 1L41 2L37 2L37 3L38 3L38 4L37 4L37 5L38 5L38 6L37 6L37 7L38 7L38 8L37 8L37 9L38 9L38 10L36 10L36 9L35 9L35 10L36 10L36 11L34 11L34 10L33 10L33 9L31 9L31 7L32 7L32 5L30 5L30 4L29 4L29 3L28 3L28 2L27 2L27 3L26 3L26 6L25 6L25 8L26 8L26 9L24 9L24 8L23 8L23 7L24 7L24 5L22 5L22 4L19 4L19 5L22 5L22 6L21 6L21 7L20 7L20 6L19 6L19 7L18 7L18 4L17 4L17 3L16 3L16 2L15 2L15 1ZM31 1L31 2L30 2L30 3L31 3L31 4L32 4L32 1ZM33 1L33 3L36 3L36 2L34 2L34 1ZM10 2L10 3L9 3L9 4L10 4L10 3L11 3L11 2ZM57 2L57 3L59 3L59 2ZM45 3L45 4L46 4L46 3ZM60 3L60 5L61 5L61 3ZM28 5L28 7L29 7L29 6L30 6L30 7L31 7L31 6L30 6L30 5ZM33 5L33 8L36 8L36 5ZM44 5L44 7L45 7L45 9L44 9L44 8L43 8L43 9L41 9L41 12L40 12L40 11L39 11L39 10L40 10L40 9L39 9L39 8L40 8L40 7L41 7L41 6L40 6L40 7L39 7L39 6L38 6L38 7L39 7L39 8L38 8L38 9L39 9L39 10L38 10L38 11L37 11L37 12L38 12L38 13L37 13L37 14L35 14L35 15L37 15L37 14L38 14L38 16L37 16L37 17L36 17L36 18L35 18L35 17L32 17L32 14L31 14L31 13L32 13L32 12L29 12L29 10L27 10L27 13L30 13L30 15L31 15L31 16L29 16L29 14L27 14L27 16L29 16L29 20L30 20L30 21L29 21L29 22L27 22L27 21L28 21L28 19L27 19L27 21L23 21L23 22L22 22L22 21L21 21L21 22L20 22L20 21L19 21L19 22L20 22L20 25L21 25L21 26L22 26L22 25L24 25L24 26L23 26L23 27L21 27L21 28L20 28L20 29L19 29L19 30L20 30L20 31L21 31L21 30L20 30L20 29L22 29L22 31L23 31L23 32L24 32L24 31L23 31L23 30L25 30L25 31L26 31L26 32L25 32L25 33L22 33L22 35L23 35L23 34L25 34L25 33L28 33L28 34L26 34L26 35L24 35L24 37L23 37L23 38L24 38L24 39L25 39L25 40L24 40L24 41L23 41L23 42L24 42L24 41L25 41L25 42L26 42L26 44L24 44L24 43L23 43L23 44L24 44L24 45L23 45L23 46L22 46L22 45L21 45L21 46L20 46L20 47L19 47L19 48L20 48L20 47L21 47L21 49L22 49L22 50L23 50L23 49L24 49L24 50L26 50L26 49L24 49L24 48L26 48L26 47L25 47L25 46L26 46L26 44L27 44L27 42L26 42L26 40L27 40L27 41L30 41L30 42L29 42L29 43L30 43L30 44L28 44L28 45L27 45L27 46L28 46L28 45L30 45L30 46L29 46L29 48L30 48L30 49L29 49L29 50L30 50L30 49L31 49L31 50L32 50L32 51L29 51L29 52L28 52L28 51L25 51L25 53L24 53L24 51L23 51L23 53L21 53L21 54L20 54L20 53L19 53L19 54L16 54L16 55L19 55L19 54L20 54L20 55L21 55L21 56L20 56L20 57L19 57L19 56L17 56L17 57L16 57L16 56L15 56L15 57L14 57L14 59L16 59L16 60L17 60L17 61L19 61L19 62L20 62L20 63L21 63L21 62L22 62L22 61L21 61L21 62L20 62L20 61L19 61L19 60L17 60L17 59L21 59L21 60L23 60L23 61L24 61L24 62L23 62L23 63L26 63L26 64L24 64L24 65L21 65L21 67L22 67L22 66L24 66L24 67L25 67L25 65L28 65L28 64L27 64L27 63L28 63L28 62L25 62L25 61L26 61L26 60L27 60L27 61L28 61L28 60L29 60L29 61L31 61L31 60L29 60L29 59L26 59L26 58L27 58L27 57L29 57L29 58L31 58L31 54L30 54L30 55L29 55L29 54L27 54L27 53L31 53L31 52L32 52L32 54L33 54L33 55L35 55L35 57L37 57L37 58L38 58L38 57L39 57L39 59L38 59L38 60L39 60L39 62L40 62L40 59L41 59L41 58L42 58L42 60L43 60L43 61L44 61L44 60L43 60L43 57L44 57L44 56L46 56L46 57L47 57L47 56L48 56L48 55L47 55L47 56L46 56L46 54L45 54L45 53L47 53L47 54L48 54L48 53L49 53L49 54L50 54L50 55L49 55L49 56L50 56L50 55L51 55L51 56L52 56L52 55L54 55L54 54L53 54L53 53L51 53L51 52L50 52L50 51L49 51L49 50L50 50L50 49L49 49L49 48L47 48L47 49L49 49L49 50L47 50L47 51L46 51L46 52L45 52L45 49L46 49L46 47L47 47L47 46L46 46L46 47L45 47L45 49L44 49L44 47L43 47L43 48L42 48L42 49L41 49L41 50L39 50L39 51L38 51L38 49L39 49L39 48L40 48L40 47L38 47L38 45L37 45L37 46L36 46L36 47L35 47L35 46L34 46L34 47L33 47L33 46L32 46L32 47L33 47L33 48L32 48L32 49L31 49L31 48L30 48L30 47L31 47L31 43L30 43L30 42L31 42L31 41L30 41L30 40L29 40L29 39L30 39L30 38L31 38L31 37L32 37L32 39L33 39L33 40L35 40L35 41L32 41L32 45L33 45L33 42L35 42L35 44L37 44L37 43L38 43L38 44L40 44L40 43L38 43L38 38L37 38L37 39L36 39L36 37L38 37L38 36L37 36L37 35L39 35L39 36L40 36L40 35L41 35L41 36L43 36L43 37L39 37L39 40L41 40L41 39L45 39L45 40L47 40L47 42L46 42L46 43L47 43L47 42L48 42L48 43L49 43L49 42L50 42L50 43L51 43L51 42L50 42L50 41L51 41L51 40L50 40L50 39L49 39L49 38L50 38L50 37L49 37L49 36L50 36L50 35L48 35L48 34L47 34L47 36L45 36L45 33L49 33L49 34L50 34L50 33L49 33L49 31L50 31L50 29L52 29L52 30L51 30L51 32L52 32L52 31L53 31L53 32L54 32L54 33L52 33L52 34L53 34L53 35L54 35L54 36L55 36L55 32L54 32L54 31L55 31L55 29L56 29L56 28L55 28L55 27L52 27L52 28L50 28L50 29L49 29L49 28L47 28L47 30L46 30L46 29L44 29L44 27L45 27L45 28L46 28L46 26L43 26L43 25L44 25L44 24L43 24L43 22L44 22L44 23L45 23L45 24L46 24L46 25L47 25L47 26L48 26L48 27L49 27L49 26L50 26L50 25L51 25L51 26L52 26L52 25L51 25L51 23L52 23L52 22L50 22L50 21L49 21L49 20L46 20L46 21L47 21L47 24L46 24L46 22L44 22L44 20L43 20L43 17L44 17L44 16L45 16L45 17L46 17L46 16L47 16L47 17L50 17L50 16L49 16L49 15L52 15L52 13L51 13L51 14L49 14L49 13L50 13L50 12L47 12L47 14L45 14L45 13L44 13L44 12L46 12L46 11L43 11L43 13L42 13L42 14L41 14L41 12L42 12L42 10L45 10L45 9L46 9L46 7L47 7L47 6L46 6L46 5ZM53 5L53 7L54 7L54 5ZM10 6L10 8L11 8L11 6ZM22 6L22 7L23 7L23 6ZM26 6L26 8L27 8L27 6ZM34 6L34 7L35 7L35 6ZM42 6L42 7L43 7L43 6ZM45 6L45 7L46 7L46 6ZM57 7L57 8L58 8L58 7ZM21 8L21 9L22 9L22 8ZM28 8L28 9L30 9L30 11L32 11L32 10L31 10L31 9L30 9L30 8ZM60 8L60 9L61 9L61 8ZM23 9L23 10L22 10L22 11L21 11L21 10L20 10L20 11L19 11L19 12L17 12L17 11L16 11L16 12L17 12L17 14L16 14L16 15L18 15L18 14L20 14L20 15L21 15L21 14L20 14L20 12L24 12L24 11L23 11L23 10L24 10L24 9ZM8 10L8 11L9 11L9 10ZM2 11L2 12L3 12L3 11ZM38 11L38 12L39 12L39 13L38 13L38 14L39 14L39 15L40 15L40 16L38 16L38 18L37 18L37 19L39 19L39 18L41 18L41 17L42 17L42 16L44 16L44 13L43 13L43 14L42 14L42 15L40 15L40 14L39 14L39 13L40 13L40 12L39 12L39 11ZM14 12L14 13L15 13L15 12ZM34 12L34 13L33 13L33 14L34 14L34 13L36 13L36 12ZM0 13L0 14L1 14L1 13ZM65 13L65 14L67 14L67 13ZM9 14L9 15L10 15L10 14ZM14 14L14 16L13 16L13 15L12 15L12 16L13 16L13 17L14 17L14 19L15 19L15 17L14 17L14 16L15 16L15 14ZM47 14L47 16L48 16L48 15L49 15L49 14ZM56 14L56 15L58 15L58 14ZM2 15L2 16L3 16L3 15ZM25 15L25 16L26 16L26 15ZM33 15L33 16L34 16L34 15ZM45 15L45 16L46 16L46 15ZM60 15L60 16L61 16L61 17L59 17L59 18L62 18L62 16L61 16L61 15ZM54 16L54 17L55 17L55 16ZM7 17L7 18L6 18L6 19L7 19L7 20L6 20L6 21L7 21L7 22L6 22L6 23L5 23L5 24L4 24L4 25L2 25L2 26L6 26L6 25L8 25L8 24L6 24L6 23L7 23L7 22L8 22L8 21L7 21L7 20L8 20L8 19L7 19L7 18L8 18L8 17ZM27 17L27 18L28 18L28 17ZM31 17L31 18L30 18L30 19L32 19L32 20L31 20L31 21L30 21L30 22L29 22L29 23L30 23L30 22L31 22L31 21L32 21L32 22L34 22L34 23L31 23L31 25L32 25L32 26L29 26L29 25L30 25L30 24L28 24L28 23L26 23L26 26L25 26L25 28L24 28L24 27L23 27L23 28L22 28L22 29L25 29L25 28L26 28L26 30L27 30L27 31L29 31L29 32L28 32L28 33L29 33L29 36L28 36L28 35L26 35L26 37L25 37L25 38L26 38L26 39L29 39L29 36L32 36L32 33L31 33L31 35L30 35L30 33L29 33L29 32L30 32L30 31L29 31L29 30L31 30L31 29L32 29L32 28L31 28L31 29L29 29L29 28L30 28L30 27L33 27L33 28L34 28L34 29L33 29L33 30L32 30L32 32L34 32L34 31L33 31L33 30L34 30L34 29L36 29L36 30L37 30L37 29L36 29L36 28L35 28L35 27L36 27L36 26L35 26L35 27L33 27L33 25L32 25L32 24L34 24L34 25L35 25L35 22L37 22L37 24L38 24L38 23L39 23L39 25L37 25L37 26L41 26L41 25L42 25L42 24L41 24L41 22L40 22L40 23L39 23L39 22L37 22L37 21L38 21L38 20L35 20L35 18L34 18L34 19L33 19L33 18L32 18L32 17ZM44 18L44 19L45 19L45 18ZM48 18L48 19L51 19L51 18ZM40 19L40 20L39 20L39 21L41 21L41 19ZM56 19L56 20L58 20L58 19ZM13 20L13 21L14 21L14 20ZM32 20L32 21L34 21L34 20ZM56 21L56 22L55 22L55 23L57 23L57 21ZM21 22L21 23L22 23L22 22ZM23 22L23 23L24 23L24 22ZM49 22L49 23L48 23L48 24L47 24L47 25L48 25L48 26L49 26L49 25L50 25L50 22ZM53 22L53 26L55 26L55 25L56 25L56 27L57 27L57 25L56 25L56 24L54 24L54 22ZM67 23L67 25L65 25L65 26L67 26L67 25L68 25L68 23ZM5 24L5 25L6 25L6 24ZM21 24L21 25L22 25L22 24ZM27 24L27 25L28 25L28 24ZM48 24L48 25L49 25L49 24ZM26 26L26 27L28 27L28 28L29 28L29 27L28 27L28 26ZM4 27L4 28L5 28L5 27ZM39 27L39 28L38 28L38 30L40 30L40 31L43 31L43 32L39 32L39 33L38 33L38 32L37 32L37 33L38 33L38 34L39 34L39 35L40 35L40 33L43 33L43 34L41 34L41 35L43 35L43 36L44 36L44 37L45 37L45 38L47 38L47 40L49 40L49 41L48 41L48 42L49 42L49 41L50 41L50 40L49 40L49 39L48 39L48 38L49 38L49 37L45 37L45 36L44 36L44 33L45 33L45 32L44 32L44 29L43 29L43 30L42 30L42 27ZM60 27L60 28L61 28L61 27ZM64 27L64 28L63 28L63 29L62 29L62 30L61 30L61 31L62 31L62 30L63 30L63 29L64 29L64 30L65 30L65 31L67 31L67 28L66 28L66 29L65 29L65 27ZM39 28L39 29L40 29L40 28ZM52 28L52 29L55 29L55 28ZM48 29L48 30L49 30L49 29ZM4 30L4 32L8 32L8 31L5 31L5 30ZM45 30L45 31L46 31L46 32L47 32L47 31L46 31L46 30ZM63 31L63 32L64 32L64 31ZM0 32L0 34L1 34L1 32ZM43 32L43 33L44 33L44 32ZM66 32L66 33L67 33L67 34L66 34L66 35L67 35L67 36L68 36L68 35L67 35L67 34L68 34L68 33L67 33L67 32ZM5 33L5 36L8 36L8 33ZM33 33L33 36L36 36L36 33ZM56 33L56 35L57 35L57 33ZM61 33L61 36L64 36L64 33ZM6 34L6 35L7 35L7 34ZM9 34L9 35L10 35L10 34ZM34 34L34 35L35 35L35 34ZM62 34L62 35L63 35L63 34ZM14 35L14 37L15 37L15 38L12 38L12 37L11 37L11 38L10 38L10 39L9 39L9 37L10 37L10 36L9 36L9 37L4 37L4 40L5 40L5 39L6 39L6 40L7 40L7 41L6 41L6 42L7 42L7 43L9 43L9 42L10 42L10 41L12 41L12 39L15 39L15 38L18 38L18 37L17 37L17 36L15 36L15 35ZM51 35L51 36L52 36L52 35ZM27 36L27 37L28 37L28 36ZM65 36L65 37L64 37L64 38L63 38L63 37L62 37L62 40L63 40L63 41L62 41L62 42L60 42L60 43L65 43L65 42L67 42L67 41L66 41L66 40L65 40L65 41L64 41L64 40L63 40L63 39L65 39L65 37L66 37L66 36ZM21 37L21 39L22 39L22 37ZM34 37L34 38L33 38L33 39L34 39L34 38L35 38L35 37ZM51 37L51 38L52 38L52 37ZM6 38L6 39L8 39L8 38ZM10 39L10 40L9 40L9 41L10 41L10 40L11 40L11 39ZM35 39L35 40L36 40L36 39ZM56 40L56 41L57 41L57 40ZM4 41L4 42L5 42L5 41ZM15 41L15 42L16 42L16 41ZM17 41L17 42L18 42L18 41ZM36 41L36 42L37 42L37 41ZM63 41L63 42L64 42L64 41ZM21 42L21 43L22 43L22 42ZM67 43L67 44L68 44L68 43ZM10 44L10 45L9 45L9 46L11 46L11 44ZM56 44L56 45L55 45L55 46L56 46L56 45L57 45L57 44ZM67 45L67 46L68 46L68 45ZM1 47L1 50L2 50L2 48L3 48L3 47ZM22 47L22 49L23 49L23 47ZM36 47L36 48L33 48L33 49L32 49L32 50L34 50L34 51L33 51L33 52L34 52L34 53L33 53L33 54L35 54L35 55L38 55L38 56L39 56L39 57L41 57L41 56L39 56L39 54L40 54L40 55L43 55L43 56L42 56L42 57L43 57L43 56L44 56L44 53L45 53L45 52L44 52L44 51L43 51L43 52L40 52L40 51L39 51L39 54L37 54L37 53L38 53L38 52L37 52L37 53L35 53L35 51L36 51L36 50L37 50L37 49L38 49L38 47ZM8 48L8 49L9 49L9 48ZM10 48L10 49L11 49L11 50L10 50L10 51L8 51L8 52L7 52L7 53L8 53L8 52L10 52L10 51L12 51L12 53L13 53L13 51L12 51L12 50L13 50L13 48ZM57 48L57 49L58 49L58 48ZM27 49L27 50L28 50L28 49ZM35 49L35 50L36 50L36 49ZM43 49L43 50L44 50L44 49ZM18 50L18 51L20 51L20 50ZM41 50L41 51L42 51L42 50ZM62 50L62 51L63 51L63 50ZM47 51L47 52L49 52L49 51ZM26 52L26 53L25 53L25 56L26 56L26 57L27 57L27 56L26 56L26 53L27 53L27 52ZM43 52L43 53L41 53L41 54L43 54L43 53L44 53L44 52ZM50 53L50 54L51 54L51 53ZM0 54L0 55L1 55L1 56L2 56L2 55L1 55L1 54ZM14 54L14 55L15 55L15 54ZM21 54L21 55L22 55L22 54ZM21 56L21 57L20 57L20 58L21 58L21 59L22 59L22 58L24 58L24 57L22 57L22 56ZM29 56L29 57L30 57L30 56ZM15 57L15 58L16 58L16 57ZM21 57L21 58L22 58L22 57ZM32 57L32 58L33 58L33 57ZM0 58L0 61L1 61L1 58ZM11 58L11 59L12 59L12 58ZM23 59L23 60L24 60L24 61L25 61L25 60L24 60L24 59ZM57 59L57 61L58 61L58 60L59 60L59 59ZM3 60L3 61L5 61L5 60ZM14 60L14 61L15 61L15 60ZM65 60L65 61L67 61L67 60ZM33 61L33 64L36 64L36 61ZM61 61L61 64L64 64L64 61ZM14 62L14 63L15 63L15 62ZM34 62L34 63L35 63L35 62ZM62 62L62 63L63 63L63 62ZM65 62L65 63L66 63L66 62ZM59 63L59 65L60 65L60 63ZM9 64L9 66L10 66L10 65L11 65L11 66L12 66L12 65L13 65L13 64ZM55 64L55 66L54 66L54 67L55 67L55 66L56 66L56 65L57 65L57 64ZM65 64L65 65L67 65L67 64ZM15 65L15 66L16 66L16 65ZM34 65L34 66L36 66L36 65ZM19 66L19 67L20 67L20 66ZM61 66L61 67L62 67L62 66ZM63 66L63 67L64 67L64 68L65 68L65 67L66 67L66 66ZM0 0L0 7L7 7L7 0ZM1 1L1 6L6 6L6 1ZM2 2L2 5L5 5L5 2ZM62 0L62 7L69 7L69 0ZM63 1L63 6L68 6L68 1ZM64 2L64 5L67 5L67 2ZM0 62L0 69L7 69L7 62ZM1 63L1 68L6 68L6 63ZM2 64L2 67L5 67L5 64Z" fill="#000000"/></g></g></svg>
