<?xml version="1.0" encoding="UTF-8"?>
<svg xmlns="http://www.w3.org/2000/svg" version="1.1" width="300" height="300" viewBox="0 0 300 300"><rect x="0" y="0" width="300" height="300" fill="#ffffff"/><g transform="scale(4.348)"><g transform="translate(0,0)"><path fill-rule="evenodd" d="M8 0L8 2L9 2L9 1L10 1L10 3L9 3L9 4L8 4L8 9L7 9L7 8L5 8L5 9L7 9L7 10L6 10L6 11L7 11L7 10L8 10L8 11L11 11L11 10L13 10L13 9L14 9L14 12L16 12L16 13L15 13L15 14L16 14L16 13L17 13L17 10L16 10L16 9L17 9L17 8L15 8L15 9L14 9L14 7L15 7L15 6L16 6L16 7L17 7L17 6L18 6L18 9L19 9L19 10L18 10L18 11L19 11L19 12L18 12L18 13L19 13L19 14L20 14L20 15L18 15L18 16L19 16L19 20L18 20L18 21L17 21L17 20L15 20L15 19L18 19L18 18L17 18L17 17L16 17L16 18L15 18L15 15L14 15L14 14L12 14L12 15L13 15L13 16L12 16L12 18L13 18L13 19L14 19L14 20L15 20L15 21L13 21L13 20L12 20L12 21L11 21L11 17L10 17L10 15L9 15L9 14L11 14L11 13L13 13L13 12L11 12L11 13L10 13L10 12L5 12L5 10L4 10L4 13L3 13L3 18L1 18L1 17L2 17L2 16L1 16L1 17L0 17L0 18L1 18L1 19L2 19L2 20L0 20L0 22L1 22L1 23L0 23L0 24L1 24L1 25L0 25L0 28L2 28L2 29L0 29L0 30L1 30L1 31L0 31L0 32L1 32L1 33L2 33L2 32L3 32L3 33L4 33L4 36L2 36L2 37L1 37L1 34L0 34L0 37L1 37L1 38L0 38L0 39L1 39L1 41L2 41L2 39L3 39L3 38L2 38L2 37L5 37L5 39L4 39L4 40L3 40L3 41L7 41L7 40L6 40L6 39L8 39L8 42L6 42L6 43L4 43L4 42L1 42L1 43L0 43L0 44L1 44L1 45L0 45L0 47L1 47L1 49L0 49L0 50L1 50L1 51L2 51L2 52L0 52L0 53L2 53L2 52L3 52L3 53L4 53L4 52L5 52L5 51L7 51L7 52L6 52L6 53L5 53L5 54L0 54L0 55L3 55L3 56L2 56L2 57L1 57L1 56L0 56L0 57L1 57L1 58L0 58L0 61L1 61L1 58L2 58L2 59L3 59L3 58L2 58L2 57L3 57L3 56L5 56L5 58L4 58L4 59L7 59L7 58L6 58L6 57L8 57L8 58L9 58L9 59L8 59L8 60L6 60L6 61L8 61L8 62L11 62L11 61L13 61L13 62L12 62L12 63L13 63L13 64L11 64L11 63L10 63L10 66L8 66L8 69L9 69L9 68L10 68L10 69L11 69L11 68L12 68L12 67L10 67L10 66L12 66L12 65L13 65L13 64L14 64L14 65L15 65L15 67L14 67L14 68L13 68L13 69L16 69L16 65L17 65L17 66L18 66L18 67L17 67L17 68L18 68L18 69L20 69L20 68L19 68L19 66L18 66L18 65L19 65L19 64L20 64L20 65L21 65L21 66L20 66L20 67L22 67L22 69L23 69L23 66L24 66L24 69L25 69L25 68L26 68L26 69L27 69L27 68L28 68L28 69L29 69L29 67L30 67L30 69L31 69L31 67L30 67L30 66L31 66L31 64L32 64L32 66L33 66L33 65L35 65L35 66L36 66L36 67L35 67L35 69L37 69L37 68L36 68L36 67L38 67L38 64L37 64L37 63L38 63L38 60L36 60L36 59L40 59L40 58L41 58L41 59L44 59L44 61L43 61L43 62L42 62L42 61L41 61L41 60L39 60L39 61L41 61L41 62L40 62L40 65L39 65L39 66L40 66L40 65L41 65L41 68L40 68L40 67L39 67L39 68L38 68L38 69L39 69L39 68L40 68L40 69L41 69L41 68L42 68L42 69L43 69L43 68L42 68L42 65L43 65L43 67L44 67L44 69L45 69L45 67L44 67L44 65L47 65L47 64L46 64L46 63L45 63L45 62L46 62L46 60L47 60L47 59L48 59L48 61L47 61L47 63L48 63L48 61L49 61L49 63L50 63L50 64L48 64L48 66L47 66L47 67L46 67L46 69L47 69L47 68L48 68L48 69L50 69L50 68L51 68L51 67L53 67L53 68L52 68L52 69L53 69L53 68L54 68L54 69L55 69L55 68L54 68L54 67L59 67L59 66L58 66L58 65L61 65L61 66L60 66L60 68L59 68L59 69L60 69L60 68L61 68L61 69L62 69L62 66L63 66L63 67L65 67L65 68L64 68L64 69L65 69L65 68L66 68L66 69L67 69L67 68L66 68L66 63L67 63L67 65L69 65L69 62L68 62L68 61L69 61L69 57L68 57L68 55L69 55L69 52L68 52L68 51L69 51L69 48L68 48L68 47L69 47L69 44L68 44L68 43L69 43L69 42L68 42L68 41L69 41L69 40L68 40L68 39L69 39L69 38L68 38L68 39L67 39L67 38L66 38L66 37L65 37L65 36L66 36L66 35L67 35L67 34L65 34L65 32L66 32L66 30L67 30L67 31L69 31L69 28L68 28L68 29L66 29L66 27L67 27L67 25L66 25L66 23L67 23L67 22L68 22L68 24L69 24L69 20L68 20L68 19L69 19L69 16L68 16L68 15L69 15L69 14L68 14L68 13L66 13L66 10L68 10L68 12L69 12L69 8L67 8L67 9L66 9L66 10L65 10L65 8L59 8L59 11L58 11L58 13L57 13L57 11L56 11L56 13L57 13L57 14L58 14L58 16L56 16L56 14L54 14L54 12L52 12L52 11L53 11L53 10L54 10L54 11L55 11L55 10L54 10L54 9L57 9L57 6L58 6L58 7L59 7L59 4L58 4L58 5L57 5L57 4L56 4L56 3L59 3L59 2L58 2L58 1L61 1L61 0L58 0L58 1L57 1L57 0L56 0L56 1L55 1L55 0L53 0L53 2L52 2L52 1L51 1L51 0L50 0L50 1L48 1L48 0L46 0L46 3L47 3L47 4L46 4L46 5L47 5L47 6L46 6L46 7L47 7L47 8L44 8L44 9L43 9L43 11L41 11L41 10L42 10L42 8L43 8L43 6L42 6L42 5L43 5L43 4L44 4L44 7L45 7L45 4L44 4L44 2L41 2L41 0L40 0L40 2L39 2L39 0L35 0L35 1L34 1L34 0L32 0L32 2L30 2L30 1L31 1L31 0L29 0L29 1L28 1L28 2L29 2L29 4L28 4L28 5L29 5L29 6L28 6L28 7L27 7L27 6L26 6L26 7L25 7L25 4L26 4L26 5L27 5L27 4L26 4L26 3L24 3L24 7L25 7L25 8L22 8L22 7L23 7L23 6L22 6L22 7L21 7L21 5L22 5L22 1L23 1L23 0L22 0L22 1L21 1L21 0L18 0L18 1L17 1L17 0L16 0L16 2L14 2L14 1L15 1L15 0L14 0L14 1L13 1L13 0ZM24 0L24 1L25 1L25 2L26 2L26 1L27 1L27 0ZM42 0L42 1L44 1L44 0ZM11 1L11 3L12 3L12 5L11 5L11 4L9 4L9 7L10 7L10 6L11 6L11 8L13 8L13 7L14 7L14 6L15 6L15 5L14 5L14 6L13 6L13 7L12 7L12 5L13 5L13 4L15 4L15 3L14 3L14 2L12 2L12 1ZM20 1L20 2L21 2L21 1ZM36 1L36 2L37 2L37 1ZM47 1L47 2L48 2L48 4L49 4L49 2L48 2L48 1ZM50 1L50 2L51 2L51 1ZM56 1L56 2L57 2L57 1ZM16 2L16 3L18 3L18 6L19 6L19 9L20 9L20 14L21 14L21 15L20 15L20 16L24 16L24 23L29 23L29 21L30 21L30 20L31 20L31 21L32 21L32 20L33 20L33 19L32 19L32 18L31 18L31 17L34 17L34 20L36 20L36 22L35 22L35 21L33 21L33 23L32 23L32 22L31 22L31 23L30 23L30 24L31 24L31 23L32 23L32 24L33 24L33 25L32 25L32 26L33 26L33 27L34 27L34 28L32 28L32 29L34 29L34 28L35 28L35 27L34 27L34 26L33 26L33 25L36 25L36 26L37 26L37 25L36 25L36 24L35 24L35 23L36 23L36 22L37 22L37 20L36 20L36 16L35 16L35 15L36 15L36 14L37 14L37 17L38 17L38 18L39 18L39 17L40 17L40 19L41 19L41 21L40 21L40 22L39 22L39 23L40 23L40 24L39 24L39 25L38 25L38 26L39 26L39 25L40 25L40 28L43 28L43 27L45 27L45 25L46 25L46 26L47 26L47 23L45 23L45 21L46 21L46 22L48 22L48 23L49 23L49 22L48 22L48 18L47 18L47 17L48 17L48 15L50 15L50 16L49 16L49 21L50 21L50 24L51 24L51 25L50 25L50 26L49 26L49 27L50 27L50 28L51 28L51 27L53 27L53 26L51 26L51 25L52 25L52 24L53 24L53 25L54 25L54 30L53 30L53 32L54 32L54 34L52 34L52 31L51 31L51 29L50 29L50 31L48 31L48 30L47 30L47 29L48 29L48 27L46 27L46 28L45 28L45 29L46 29L46 31L48 31L48 32L46 32L46 34L44 34L44 31L43 31L43 30L44 30L44 29L40 29L40 30L42 30L42 35L41 35L41 34L39 34L39 33L40 33L40 31L39 31L39 29L36 29L36 30L34 30L34 31L35 31L35 32L36 32L36 30L37 30L37 31L39 31L39 32L38 32L38 34L39 34L39 35L37 35L37 39L36 39L36 41L35 41L35 42L36 42L36 41L38 41L38 43L36 43L36 45L38 45L38 46L39 46L39 47L38 47L38 48L39 48L39 49L38 49L38 50L37 50L37 51L36 51L36 52L35 52L35 51L34 51L34 52L35 52L35 53L34 53L34 54L33 54L33 56L32 56L32 55L30 55L30 56L32 56L32 57L30 57L30 58L29 58L29 57L28 57L28 56L29 56L29 55L28 55L28 54L30 54L30 52L31 52L31 53L32 53L32 52L31 52L31 50L29 50L29 49L30 49L30 48L29 48L29 47L30 47L30 46L32 46L32 47L31 47L31 48L33 48L33 49L34 49L34 50L35 50L35 49L34 49L34 48L35 48L35 45L34 45L34 44L33 44L33 42L32 42L32 45L30 45L30 44L31 44L31 40L32 40L32 41L34 41L34 40L35 40L35 39L34 39L34 40L32 40L32 39L33 39L33 38L35 38L35 37L33 37L33 38L32 38L32 39L31 39L31 37L30 37L30 36L31 36L31 33L32 33L32 32L33 32L33 31L32 31L32 32L31 32L31 33L30 33L30 32L29 32L29 33L30 33L30 36L29 36L29 37L28 37L28 38L27 38L27 37L26 37L26 34L27 34L27 32L26 32L26 31L27 31L27 29L28 29L28 31L30 31L30 30L29 30L29 29L30 29L30 28L31 28L31 27L30 27L30 26L31 26L31 25L30 25L30 26L29 26L29 24L28 24L28 26L29 26L29 27L30 27L30 28L29 28L29 29L28 29L28 27L27 27L27 25L26 25L26 24L25 24L25 25L24 25L24 24L22 24L22 23L23 23L23 21L22 21L22 20L20 20L20 22L21 22L21 23L20 23L20 24L19 24L19 22L18 22L18 23L17 23L17 22L16 22L16 21L15 21L15 22L13 22L13 21L12 21L12 22L13 22L13 23L12 23L12 24L9 24L9 22L8 22L8 23L6 23L6 24L7 24L7 25L5 25L5 24L4 24L4 23L5 23L5 21L6 21L6 22L7 22L7 21L8 21L8 19L9 19L9 18L10 18L10 17L9 17L9 16L7 16L7 15L6 15L6 16L7 16L7 17L4 17L4 18L3 18L3 20L2 20L2 21L1 21L1 22L2 22L2 23L3 23L3 24L4 24L4 25L3 25L3 26L5 26L5 27L6 27L6 28L4 28L4 29L2 29L2 30L3 30L3 32L7 32L7 31L8 31L8 30L9 30L9 29L10 29L10 30L11 30L11 31L10 31L10 32L9 32L9 33L10 33L10 32L11 32L11 31L12 31L12 32L13 32L13 33L11 33L11 34L9 34L9 35L11 35L11 36L10 36L10 37L6 37L6 38L8 38L8 39L9 39L9 42L11 42L11 43L12 43L12 44L11 44L11 46L10 46L10 47L9 47L9 46L8 46L8 44L10 44L10 43L6 43L6 44L4 44L4 43L3 43L3 46L2 46L2 45L1 45L1 47L3 47L3 46L4 46L4 47L5 47L5 49L4 49L4 50L5 50L5 49L6 49L6 50L7 50L7 49L6 49L6 48L7 48L7 47L9 47L9 49L8 49L8 53L9 53L9 56L8 56L8 57L10 57L10 60L11 60L11 59L12 59L12 60L13 60L13 59L12 59L12 57L13 57L13 56L14 56L14 55L13 55L13 56L12 56L12 54L15 54L15 53L16 53L16 54L17 54L17 55L16 55L16 56L17 56L17 57L18 57L18 58L16 58L16 59L17 59L17 61L16 61L16 62L18 62L18 58L19 58L19 57L18 57L18 56L19 56L19 55L18 55L18 54L19 54L19 53L18 53L18 52L19 52L19 51L18 51L18 50L19 50L19 48L18 48L18 47L19 47L19 46L20 46L20 48L21 48L21 50L20 50L20 51L21 51L21 53L20 53L20 54L21 54L21 56L20 56L20 58L23 58L23 60L24 60L24 63L22 63L22 62L23 62L23 61L22 61L22 60L21 60L21 59L20 59L20 60L21 60L21 61L20 61L20 62L21 62L21 63L20 63L20 64L21 64L21 65L22 65L22 66L23 66L23 65L24 65L24 66L27 66L27 64L26 64L26 63L29 63L29 64L31 64L31 63L29 63L29 62L32 62L32 61L30 61L30 60L31 60L31 59L30 59L30 58L32 58L32 57L34 57L34 58L33 58L33 59L34 59L34 60L35 60L35 59L34 59L34 58L37 58L37 56L38 56L38 58L40 58L40 55L42 55L42 56L41 56L41 57L42 57L42 58L45 58L45 57L46 57L46 58L47 58L47 57L48 57L48 58L49 58L49 61L50 61L50 62L51 62L51 63L52 63L52 64L51 64L51 65L50 65L50 67L49 67L49 66L48 66L48 68L50 68L50 67L51 67L51 66L52 66L52 64L53 64L53 65L54 65L54 66L53 66L53 67L54 67L54 66L55 66L55 65L56 65L56 63L57 63L57 64L58 64L58 63L60 63L60 61L59 61L59 60L60 60L60 59L61 59L61 60L63 60L63 59L62 59L62 58L63 58L63 57L64 57L64 58L65 58L65 59L64 59L64 60L65 60L65 61L66 61L66 62L67 62L67 63L68 63L68 62L67 62L67 61L68 61L68 57L67 57L67 54L66 54L66 53L67 53L67 51L68 51L68 50L67 50L67 49L68 49L68 48L67 48L67 47L68 47L68 46L67 46L67 45L68 45L68 44L67 44L67 43L68 43L68 42L66 42L66 41L68 41L68 40L67 40L67 39L66 39L66 40L64 40L64 38L65 38L65 37L63 37L63 40L64 40L64 44L65 44L65 43L66 43L66 44L67 44L67 45L64 45L64 46L67 46L67 47L66 47L66 49L64 49L64 51L63 51L63 52L62 52L62 53L60 53L60 54L59 54L59 51L60 51L60 50L59 50L59 49L58 49L58 48L60 48L60 49L61 49L61 48L63 48L63 47L62 47L62 46L63 46L63 43L62 43L62 41L61 41L61 40L62 40L62 37L61 37L61 38L60 38L60 37L58 37L58 38L57 38L57 37L56 37L56 36L60 36L60 34L59 34L59 33L60 33L60 32L61 32L61 31L60 31L60 32L59 32L59 31L58 31L58 30L59 30L59 29L60 29L60 30L61 30L61 29L60 29L60 28L62 28L62 30L63 30L63 31L64 31L64 30L63 30L63 29L64 29L64 28L65 28L65 26L66 26L66 25L64 25L64 23L66 23L66 22L67 22L67 21L68 21L68 20L67 20L67 19L68 19L68 18L67 18L67 17L68 17L68 16L67 16L67 15L68 15L68 14L67 14L67 15L66 15L66 13L65 13L65 14L64 14L64 12L65 12L65 10L64 10L64 9L62 9L62 11L61 11L61 12L60 12L60 11L59 11L59 12L60 12L60 16L58 16L58 18L57 18L57 17L56 17L56 16L55 16L55 15L54 15L54 14L53 14L53 13L52 13L52 12L49 12L49 13L48 13L48 11L49 11L49 9L48 9L48 8L51 8L51 7L52 7L52 6L53 6L53 7L54 7L54 8L55 8L55 7L56 7L56 6L57 6L57 5L56 5L56 4L55 4L55 2L53 2L53 3L52 3L52 4L53 4L53 5L51 5L51 7L50 7L50 6L49 6L49 5L48 5L48 6L47 6L47 7L48 7L48 8L47 8L47 9L46 9L46 10L45 10L45 13L43 13L43 12L42 12L42 13L41 13L41 11L40 11L40 10L41 10L41 9L40 9L40 6L41 6L41 8L42 8L42 6L41 6L41 5L42 5L42 4L43 4L43 3L41 3L41 2L40 2L40 4L39 4L39 3L38 3L38 4L39 4L39 5L38 5L38 6L37 6L37 7L38 7L38 6L39 6L39 9L38 9L38 8L37 8L37 9L34 9L34 13L32 13L32 12L33 12L33 11L32 11L32 10L33 10L33 9L32 9L32 3L34 3L34 4L35 4L35 3L34 3L34 2L32 2L32 3L30 3L30 4L29 4L29 5L30 5L30 4L31 4L31 8L30 8L30 6L29 6L29 7L28 7L28 8L27 8L27 9L26 9L26 8L25 8L25 10L24 10L24 11L26 11L26 12L25 12L25 13L24 13L24 12L23 12L23 9L22 9L22 10L21 10L21 9L20 9L20 8L21 8L21 7L20 7L20 6L19 6L19 3L18 3L18 2ZM36 3L36 4L37 4L37 3ZM50 3L50 4L51 4L51 3ZM60 3L60 5L61 5L61 3ZM40 4L40 5L41 5L41 4ZM54 4L54 5L55 5L55 4ZM33 5L33 8L36 8L36 5ZM34 6L34 7L35 7L35 6ZM48 6L48 7L49 7L49 6ZM54 6L54 7L55 7L55 6ZM60 6L60 7L61 7L61 6ZM0 8L0 10L1 10L1 9L2 9L2 11L1 11L1 12L2 12L2 11L3 11L3 8ZM8 9L8 10L9 10L9 9ZM27 9L27 10L26 10L26 11L27 11L27 12L26 12L26 13L25 13L25 15L24 15L24 13L23 13L23 12L22 12L22 11L21 11L21 12L22 12L22 13L23 13L23 14L22 14L22 15L24 15L24 16L25 16L25 18L26 18L26 21L27 21L27 22L28 22L28 21L29 21L29 20L30 20L30 19L31 19L31 20L32 20L32 19L31 19L31 18L30 18L30 17L31 17L31 16L32 16L32 15L33 15L33 14L32 14L32 15L31 15L31 16L30 16L30 14L29 14L29 16L28 16L28 17L29 17L29 18L28 18L28 19L29 19L29 20L27 20L27 18L26 18L26 17L27 17L27 16L26 16L26 15L28 15L28 13L29 13L29 12L30 12L30 13L31 13L31 12L30 12L30 11L31 11L31 10L30 10L30 11L29 11L29 10L28 10L28 9ZM37 9L37 11L36 11L36 12L37 12L37 13L39 13L39 12L38 12L38 9ZM47 9L47 10L46 10L46 12L47 12L47 11L48 11L48 9ZM50 9L50 11L51 11L51 9ZM52 9L52 10L53 10L53 9ZM60 9L60 10L61 10L61 9ZM28 11L28 12L27 12L27 13L28 13L28 12L29 12L29 11ZM62 11L62 12L61 12L61 15L62 15L62 17L61 17L61 16L60 16L60 17L59 17L59 18L58 18L58 20L57 20L57 18L56 18L56 17L55 17L55 18L54 18L54 17L53 17L53 14L50 14L50 13L49 13L49 14L50 14L50 15L51 15L51 16L50 16L50 17L51 17L51 20L50 20L50 21L51 21L51 24L52 24L52 23L53 23L53 22L52 22L52 21L53 21L53 20L54 20L54 21L55 21L55 22L56 22L56 21L59 21L59 23L60 23L60 24L61 24L61 26L60 26L60 25L59 25L59 26L58 26L58 24L57 24L57 23L56 23L56 25L57 25L57 26L58 26L58 28L57 28L57 27L56 27L56 30L54 30L54 31L56 31L56 34L54 34L54 35L57 35L57 34L58 34L58 35L59 35L59 34L58 34L58 31L56 31L56 30L58 30L58 28L59 28L59 27L61 27L61 26L62 26L62 28L64 28L64 27L63 27L63 26L64 26L64 25L63 25L63 23L64 23L64 22L66 22L66 21L65 21L65 20L64 20L64 19L65 19L65 17L67 17L67 16L66 16L66 15L65 15L65 16L64 16L64 19L63 19L63 20L64 20L64 22L63 22L63 23L62 23L62 17L63 17L63 15L64 15L64 14L63 14L63 15L62 15L62 12L64 12L64 11ZM1 13L1 14L0 14L0 15L1 15L1 14L2 14L2 13ZM6 13L6 14L8 14L8 13ZM35 13L35 14L34 14L34 15L35 15L35 14L36 14L36 13ZM40 13L40 14L41 14L41 13ZM45 13L45 14L43 14L43 15L42 15L42 16L40 16L40 17L41 17L41 18L42 18L42 19L44 19L44 18L42 18L42 17L43 17L43 15L44 15L44 17L45 17L45 20L44 20L44 21L43 21L43 20L42 20L42 21L41 21L41 22L40 22L40 23L41 23L41 24L40 24L40 25L41 25L41 26L42 26L42 27L43 27L43 26L42 26L42 25L43 25L43 24L42 24L42 21L43 21L43 23L44 23L44 21L45 21L45 20L46 20L46 17L47 17L47 16L46 16L46 13ZM47 13L47 15L48 15L48 13ZM58 13L58 14L59 14L59 13ZM4 14L4 15L5 15L5 14ZM29 16L29 17L30 17L30 16ZM34 16L34 17L35 17L35 16ZM38 16L38 17L39 17L39 16ZM51 16L51 17L52 17L52 16ZM8 17L8 18L9 18L9 17ZM13 17L13 18L14 18L14 19L15 19L15 18L14 18L14 17ZM60 17L60 18L61 18L61 17ZM4 18L4 20L3 20L3 21L2 21L2 22L3 22L3 21L5 21L5 20L6 20L6 21L7 21L7 20L6 20L6 19L7 19L7 18L6 18L6 19L5 19L5 18ZM20 18L20 19L21 19L21 18ZM22 18L22 19L23 19L23 18ZM66 18L66 19L67 19L67 18ZM60 19L60 20L59 20L59 21L60 21L60 23L61 23L61 21L60 21L60 20L61 20L61 19ZM9 20L9 21L10 21L10 22L11 22L11 21L10 21L10 20ZM38 20L38 21L39 21L39 20ZM15 22L15 23L16 23L16 22ZM34 22L34 23L35 23L35 22ZM13 23L13 25L10 25L10 26L9 26L9 24L8 24L8 25L7 25L7 26L6 26L6 27L7 27L7 28L6 28L6 29L5 29L5 31L7 31L7 30L6 30L6 29L7 29L7 28L8 28L8 26L9 26L9 27L10 27L10 29L11 29L11 30L12 30L12 31L13 31L13 32L15 32L15 31L16 31L16 29L17 29L17 34L15 34L15 35L14 35L14 34L13 34L13 36L14 36L14 37L13 37L13 39L12 39L12 36L11 36L11 37L10 37L10 38L9 38L9 39L10 39L10 38L11 38L11 39L12 39L12 40L11 40L11 41L12 41L12 42L13 42L13 41L14 41L14 43L13 43L13 44L14 44L14 43L15 43L15 38L16 38L16 41L17 41L17 39L18 39L18 41L19 41L19 42L18 42L18 43L19 43L19 44L18 44L18 45L17 45L17 46L18 46L18 45L19 45L19 44L21 44L21 43L22 43L22 45L21 45L21 46L22 46L22 49L23 49L23 50L22 50L22 51L23 51L23 52L22 52L22 53L23 53L23 54L24 54L24 55L22 55L22 56L24 56L24 57L25 57L25 58L24 58L24 59L25 59L25 58L26 58L26 59L28 59L28 57L27 57L27 52L26 52L26 57L25 57L25 56L24 56L24 55L25 55L25 54L24 54L24 53L25 53L25 52L24 52L24 51L27 51L27 50L26 50L26 49L27 49L27 48L28 48L28 49L29 49L29 48L28 48L28 47L29 47L29 46L28 46L28 45L29 45L29 44L28 44L28 43L24 43L24 42L25 42L25 39L26 39L26 37L25 37L25 36L24 36L24 35L21 35L21 34L20 34L20 35L21 35L21 36L20 36L20 37L19 37L19 36L18 36L18 38L16 38L16 37L17 37L17 34L18 34L18 35L19 35L19 34L18 34L18 33L19 33L19 32L18 32L18 31L19 31L19 30L20 30L20 28L18 28L18 27L16 27L16 26L17 26L17 24L14 24L14 23ZM18 24L18 25L19 25L19 27L22 27L22 29L23 29L23 30L21 30L21 31L22 31L22 33L23 33L23 34L24 34L24 33L25 33L25 30L24 30L24 28L23 28L23 27L22 27L22 26L20 26L20 25L19 25L19 24ZM44 24L44 25L45 25L45 24ZM54 24L54 25L55 25L55 24ZM14 25L14 27L13 27L13 26L12 26L12 28L14 28L14 29L12 29L12 30L14 30L14 29L15 29L15 25ZM25 25L25 26L24 26L24 27L26 27L26 25ZM62 25L62 26L63 26L63 25ZM68 26L68 27L69 27L69 26ZM2 27L2 28L3 28L3 27ZM36 27L36 28L39 28L39 27ZM17 28L17 29L18 29L18 30L19 30L19 29L18 29L18 28ZM26 28L26 29L27 29L27 28ZM46 28L46 29L47 29L47 28ZM65 29L65 30L66 30L66 29ZM23 30L23 32L24 32L24 30ZM1 31L1 32L2 32L2 31ZM20 32L20 33L21 33L21 32ZM48 32L48 33L47 33L47 34L46 34L46 35L44 35L44 34L43 34L43 35L42 35L42 36L40 36L40 37L39 37L39 36L38 36L38 37L39 37L39 38L38 38L38 41L39 41L39 42L42 42L42 43L41 43L41 44L42 44L42 45L45 45L45 46L44 46L44 47L41 47L41 48L40 48L40 49L39 49L39 50L38 50L38 51L37 51L37 53L36 53L36 54L34 54L34 57L36 57L36 54L37 54L37 55L40 55L40 54L42 54L42 55L44 55L44 57L45 57L45 55L49 55L49 54L50 54L50 57L49 57L49 56L48 56L48 57L49 57L49 58L50 58L50 57L51 57L51 58L52 58L52 59L53 59L53 58L54 58L54 57L55 57L55 56L56 56L56 57L57 57L57 58L58 58L58 59L59 59L59 58L62 58L62 57L63 57L63 54L64 54L64 57L65 57L65 58L66 58L66 59L65 59L65 60L66 60L66 61L67 61L67 60L66 60L66 59L67 59L67 57L66 57L66 54L64 54L64 53L65 53L65 51L67 51L67 50L65 50L65 51L64 51L64 52L63 52L63 54L62 54L62 55L61 55L61 54L60 54L60 56L58 56L58 55L57 55L57 54L56 54L56 53L58 53L58 52L57 52L57 51L58 51L58 49L57 49L57 48L58 48L58 45L60 45L60 46L59 46L59 47L60 47L60 48L61 48L61 47L60 47L60 46L62 46L62 43L61 43L61 45L60 45L60 42L61 42L61 41L60 41L60 40L61 40L61 39L60 39L60 40L59 40L59 44L58 44L58 43L56 43L56 41L58 41L58 39L59 39L59 38L58 38L58 39L56 39L56 37L55 37L55 38L54 38L54 36L52 36L52 38L50 38L50 37L51 37L51 36L50 36L50 37L49 37L49 34L50 34L50 35L52 35L52 34L50 34L50 32ZM68 32L68 37L69 37L69 32ZM5 33L5 36L8 36L8 33ZM33 33L33 36L36 36L36 33ZM61 33L61 36L64 36L64 33ZM6 34L6 35L7 35L7 34ZM11 34L11 35L12 35L12 34ZM28 34L28 35L29 35L29 34ZM34 34L34 35L35 35L35 34ZM62 34L62 35L63 35L63 34ZM15 35L15 37L14 37L14 38L15 38L15 37L16 37L16 35ZM43 35L43 36L42 36L42 38L43 38L43 41L42 41L42 39L41 39L41 41L42 41L42 42L43 42L43 41L44 41L44 43L45 43L45 44L46 44L46 46L45 46L45 47L44 47L44 48L43 48L43 49L42 49L42 50L43 50L43 52L42 52L42 54L44 54L44 55L45 55L45 54L44 54L44 51L46 51L46 50L48 50L48 51L47 51L47 52L46 52L46 54L48 54L48 51L49 51L49 50L48 50L48 49L46 49L46 50L44 50L44 48L47 48L47 47L46 47L46 46L47 46L47 45L48 45L48 47L49 47L49 48L50 48L50 50L51 50L51 51L50 51L50 54L51 54L51 55L52 55L52 56L51 56L51 57L52 57L52 56L53 56L53 55L56 55L56 56L57 56L57 55L56 55L56 54L55 54L55 53L56 53L56 52L55 52L55 51L54 51L54 52L53 52L53 53L52 53L52 48L50 48L50 47L52 47L52 46L51 46L51 45L52 45L52 43L50 43L50 42L52 42L52 39L53 39L53 41L54 41L54 44L53 44L53 45L54 45L54 47L53 47L53 49L54 49L54 50L56 50L56 51L57 51L57 50L56 50L56 48L57 48L57 46L56 46L56 44L55 44L55 41L56 41L56 39L55 39L55 40L54 40L54 38L52 38L52 39L50 39L50 38L49 38L49 39L50 39L50 40L49 40L49 41L48 41L48 39L47 39L47 37L48 37L48 36L47 36L47 35L46 35L46 39L45 39L45 38L43 38L43 37L44 37L44 35ZM21 36L21 37L20 37L20 39L21 39L21 38L23 38L23 37L22 37L22 36ZM24 37L24 39L25 39L25 37ZM40 37L40 38L39 38L39 41L40 41L40 38L41 38L41 37ZM28 38L28 39L27 39L27 40L26 40L26 41L27 41L27 42L28 42L28 41L29 41L29 40L28 40L28 39L29 39L29 38ZM13 39L13 40L14 40L14 39ZM22 39L22 40L23 40L23 39ZM30 39L30 40L31 40L31 39ZM46 39L46 41L45 41L45 40L44 40L44 41L45 41L45 42L46 42L46 41L47 41L47 39ZM19 40L19 41L20 41L20 42L19 42L19 43L20 43L20 42L21 42L21 40ZM50 40L50 41L49 41L49 42L50 42L50 41L51 41L51 40ZM22 41L22 43L23 43L23 41ZM16 42L16 43L17 43L17 42ZM29 42L29 43L30 43L30 42ZM47 42L47 43L46 43L46 44L48 44L48 45L49 45L49 47L50 47L50 45L51 45L51 44L50 44L50 43L48 43L48 42ZM42 43L42 44L43 44L43 43ZM6 44L6 45L4 45L4 46L6 46L6 47L7 47L7 46L6 46L6 45L7 45L7 44ZM23 44L23 45L22 45L22 46L23 46L23 49L24 49L24 50L25 50L25 49L24 49L24 46L25 46L25 45L26 45L26 46L27 46L27 47L26 47L26 48L27 48L27 47L28 47L28 46L27 46L27 45L26 45L26 44L25 44L25 45L24 45L24 44ZM38 44L38 45L39 45L39 44ZM54 44L54 45L55 45L55 44ZM12 45L12 46L13 46L13 45ZM14 45L14 47L12 47L12 48L10 48L10 49L9 49L9 50L10 50L10 51L9 51L9 53L10 53L10 56L11 56L11 53L14 53L14 52L13 52L13 51L12 51L12 52L11 52L11 49L12 49L12 50L15 50L15 52L16 52L16 53L17 53L17 52L18 52L18 51L17 51L17 50L16 50L16 48L17 48L17 47L16 47L16 46L15 46L15 45ZM23 45L23 46L24 46L24 45ZM40 45L40 46L41 46L41 45ZM33 46L33 48L34 48L34 46ZM54 47L54 49L55 49L55 47ZM64 47L64 48L65 48L65 47ZM2 48L2 49L3 49L3 48ZM12 48L12 49L15 49L15 48ZM36 48L36 49L37 49L37 48ZM40 49L40 52L38 52L38 53L39 53L39 54L40 54L40 52L41 52L41 49ZM62 49L62 50L61 50L61 51L62 51L62 50L63 50L63 49ZM2 50L2 51L3 51L3 52L4 52L4 51L3 51L3 50ZM28 50L28 51L29 51L29 52L30 52L30 51L29 51L29 50ZM16 51L16 52L17 52L17 51ZM54 52L54 53L55 53L55 52ZM6 53L6 54L7 54L7 55L5 55L5 56L7 56L7 55L8 55L8 54L7 54L7 53ZM51 53L51 54L52 54L52 53ZM17 55L17 56L18 56L18 55ZM61 56L61 57L62 57L62 56ZM14 57L14 58L15 58L15 57ZM58 57L58 58L59 58L59 57ZM29 59L29 60L26 60L26 61L25 61L25 62L26 62L26 61L27 61L27 62L28 62L28 61L29 61L29 60L30 60L30 59ZM45 59L45 60L46 60L46 59ZM50 59L50 61L51 61L51 59ZM54 59L54 60L55 60L55 59ZM3 60L3 61L5 61L5 60ZM8 60L8 61L9 61L9 60ZM14 60L14 61L15 61L15 60ZM52 60L52 61L53 61L53 64L54 64L54 65L55 65L55 63L56 63L56 61L57 61L57 62L58 62L58 61L57 61L57 60L56 60L56 61L55 61L55 63L54 63L54 61L53 61L53 60ZM21 61L21 62L22 62L22 61ZM33 61L33 64L36 64L36 61ZM44 61L44 62L45 62L45 61ZM61 61L61 64L64 64L64 61ZM34 62L34 63L35 63L35 62ZM62 62L62 63L63 63L63 62ZM8 63L8 64L9 64L9 63ZM18 63L18 64L19 64L19 63ZM41 63L41 65L42 65L42 63ZM43 63L43 65L44 65L44 63ZM22 64L22 65L23 65L23 64ZM24 64L24 65L25 65L25 64ZM36 65L36 66L37 66L37 65ZM28 66L28 67L29 67L29 66ZM67 66L67 67L69 67L69 66ZM26 67L26 68L27 68L27 67ZM33 67L33 68L32 68L32 69L33 69L33 68L34 68L34 67ZM56 68L56 69L58 69L58 68ZM68 68L68 69L69 69L69 68ZM0 0L0 7L7 7L7 0ZM1 1L1 6L6 6L6 1ZM2 2L2 5L5 5L5 2ZM62 0L62 7L69 7L69 0ZM63 1L63 6L68 6L68 1ZM64 2L64 5L67 5L67 2ZM0 62L0 69L7 69L7 62ZM1 63L1 68L6 68L6 63ZM2 64L2 67L5 67L5 64Z" fill="#000000"/></g></g></svg>
