<?xml version="1.0" encoding="UTF-8"?>
<svg xmlns="http://www.w3.org/2000/svg" version="1.1" width="300" height="300" viewBox="0 0 300 300"><rect x="0" y="0" width="300" height="300" fill="#ffffff"/><g transform="scale(4.348)"><g transform="translate(0,0)"><path fill-rule="evenodd" d="M8 0L8 4L9 4L9 5L8 5L8 7L9 7L9 5L10 5L10 7L11 7L11 11L10 11L10 8L9 8L9 11L10 11L10 12L8 12L8 13L7 13L7 12L6 12L6 13L7 13L7 14L4 14L4 13L5 13L5 11L8 11L8 10L5 10L5 11L4 11L4 9L7 9L7 8L4 8L4 9L3 9L3 11L2 11L2 10L1 10L1 12L3 12L3 11L4 11L4 13L3 13L3 14L2 14L2 13L1 13L1 14L0 14L0 15L1 15L1 14L2 14L2 16L1 16L1 17L2 17L2 18L1 18L1 19L2 19L2 20L6 20L6 21L4 21L4 22L5 22L5 23L4 23L4 25L8 25L8 24L11 24L11 25L9 25L9 27L8 27L8 26L6 26L6 27L7 27L7 28L5 28L5 27L4 27L4 30L2 30L2 31L0 31L0 33L2 33L2 34L0 34L0 37L1 37L1 39L2 39L2 41L1 41L1 43L0 43L0 47L1 47L1 49L2 49L2 48L4 48L4 47L7 47L7 48L5 48L5 50L3 50L3 51L4 51L4 52L3 52L3 54L2 54L2 56L0 56L0 61L1 61L1 57L2 57L2 56L3 56L3 55L4 55L4 54L6 54L6 55L5 55L5 56L6 56L6 57L4 57L4 59L7 59L7 58L6 58L6 57L7 57L7 56L8 56L8 58L9 58L9 57L10 57L10 55L11 55L11 56L12 56L12 57L13 57L13 59L16 59L16 58L17 58L17 59L18 59L18 58L17 58L17 57L19 57L19 59L20 59L20 58L21 58L21 57L24 57L24 58L25 58L25 60L26 60L26 62L25 62L25 61L24 61L24 59L23 59L23 58L22 58L22 59L21 59L21 60L18 60L18 61L17 61L17 63L15 63L15 62L16 62L16 61L15 61L15 62L14 62L14 60L13 60L13 62L14 62L14 64L15 64L15 66L14 66L14 65L13 65L13 67L14 67L14 68L11 68L11 67L10 67L10 66L9 66L9 67L8 67L8 69L9 69L9 68L10 68L10 69L14 69L14 68L15 68L15 69L17 69L17 67L15 67L15 66L16 66L16 65L17 65L17 66L19 66L19 67L20 67L20 66L21 66L21 67L22 67L22 68L21 68L21 69L22 69L22 68L23 68L23 69L24 69L24 68L25 68L25 69L27 69L27 68L25 68L25 67L26 67L26 66L27 66L27 67L28 67L28 66L29 66L29 68L28 68L28 69L31 69L31 67L32 67L32 69L33 69L33 68L34 68L34 69L35 69L35 68L34 68L34 67L36 67L36 66L37 66L37 65L38 65L38 67L39 67L39 66L40 66L40 63L41 63L41 67L40 67L40 68L38 68L38 69L40 69L40 68L41 68L41 69L43 69L43 63L44 63L44 69L46 69L46 67L45 67L45 63L46 63L46 64L47 64L47 65L49 65L49 61L50 61L50 62L51 62L51 61L52 61L52 63L50 63L50 68L49 68L49 66L48 66L48 68L47 68L47 69L50 69L50 68L51 68L51 69L52 69L52 68L53 68L53 69L55 69L55 68L56 68L56 69L57 69L57 68L58 68L58 69L59 69L59 66L58 66L58 64L60 64L60 66L61 66L61 65L62 65L62 66L63 66L63 65L65 65L65 63L66 63L66 62L67 62L67 63L68 63L68 65L66 65L66 66L64 66L64 67L63 67L63 69L64 69L64 67L66 67L66 66L69 66L69 63L68 63L68 62L69 62L69 60L67 60L67 61L66 61L66 59L68 59L68 57L69 57L69 56L68 56L68 55L67 55L67 56L65 56L65 59L64 59L64 55L66 55L66 52L65 52L65 51L66 51L66 50L67 50L67 53L69 53L69 52L68 52L68 50L67 50L67 49L65 49L65 48L64 48L64 49L63 49L63 51L62 51L62 48L63 48L63 47L62 47L62 46L64 46L64 47L66 47L66 46L67 46L67 47L68 47L68 46L69 46L69 44L68 44L68 41L69 41L69 40L68 40L68 38L69 38L69 35L68 35L68 32L69 32L69 31L68 31L68 30L69 30L69 29L67 29L67 30L65 30L65 31L68 31L68 32L67 32L67 33L66 33L66 32L63 32L63 31L62 31L62 32L59 32L59 31L60 31L60 30L61 30L61 29L62 29L62 30L64 30L64 28L65 28L65 27L66 27L66 25L65 25L65 27L64 27L64 25L63 25L63 23L65 23L65 22L64 22L64 20L65 20L65 21L67 21L67 23L68 23L68 24L69 24L69 23L68 23L68 22L69 22L69 20L68 20L68 18L67 18L67 16L66 16L66 19L67 19L67 20L65 20L65 17L64 17L64 16L65 16L65 15L64 15L64 14L65 14L65 13L64 13L64 12L65 12L65 11L66 11L66 10L67 10L67 11L68 11L68 14L67 14L67 15L68 15L68 17L69 17L69 15L68 15L68 14L69 14L69 11L68 11L68 9L69 9L69 8L65 8L65 10L63 10L63 9L64 9L64 8L63 8L63 9L62 9L62 10L61 10L61 9L59 9L59 11L60 11L60 12L62 12L62 14L61 14L61 13L59 13L59 14L58 14L58 12L57 12L57 11L58 11L58 8L57 8L57 5L56 5L56 2L55 2L55 1L56 1L56 0L53 0L53 1L52 1L52 4L51 4L51 3L50 3L50 2L51 2L51 0L50 0L50 1L49 1L49 0L48 0L48 1L49 1L49 3L50 3L50 4L49 4L49 5L53 5L53 6L52 6L52 7L51 7L51 6L50 6L50 7L49 7L49 6L48 6L48 7L49 7L49 8L47 8L47 6L46 6L46 7L45 7L45 6L44 6L44 5L46 5L46 4L47 4L47 2L46 2L46 3L45 3L45 1L46 1L46 0L45 0L45 1L44 1L44 0L40 0L40 2L39 2L39 3L40 3L40 4L38 4L38 3L37 3L37 2L38 2L38 1L39 1L39 0L38 0L38 1L34 1L34 3L33 3L33 4L32 4L32 5L31 5L31 4L29 4L29 3L32 3L32 2L29 2L29 1L30 1L30 0L23 0L23 2L22 2L22 1L21 1L21 0L17 0L17 1L16 1L16 0L15 0L15 2L14 2L14 0L10 0L10 1L9 1L9 0ZM31 0L31 1L33 1L33 0ZM57 0L57 1L61 1L61 0ZM10 1L10 2L13 2L13 1ZM19 1L19 3L18 3L18 2L16 2L16 3L14 3L14 5L15 5L15 8L17 8L17 7L18 7L18 6L19 6L19 7L20 7L20 8L19 8L19 9L17 9L17 10L13 10L13 11L12 11L12 12L11 12L11 14L12 14L12 15L10 15L10 17L9 17L9 18L8 18L8 17L6 17L6 16L7 16L7 15L8 15L8 16L9 16L9 13L8 13L8 14L7 14L7 15L6 15L6 16L5 16L5 15L4 15L4 16L5 16L5 17L3 17L3 18L2 18L2 19L3 19L3 18L5 18L5 19L6 19L6 20L7 20L7 21L6 21L6 22L8 22L8 23L6 23L6 24L8 24L8 23L11 23L11 24L12 24L12 25L13 25L13 26L10 26L10 27L9 27L9 30L10 30L10 31L9 31L9 32L10 32L10 33L11 33L11 32L13 32L13 33L12 33L12 34L11 34L11 35L10 35L10 36L9 36L9 37L8 37L8 38L10 38L10 36L11 36L11 35L12 35L12 36L13 36L13 35L14 35L14 34L16 34L16 35L15 35L15 36L14 36L14 38L15 38L15 36L16 36L16 39L15 39L15 40L14 40L14 39L13 39L13 41L12 41L12 40L11 40L11 39L10 39L10 40L11 40L11 41L10 41L10 42L9 42L9 41L6 41L6 40L7 40L7 39L6 39L6 38L7 38L7 37L4 37L4 36L2 36L2 37L3 37L3 39L4 39L4 40L3 40L3 43L4 43L4 42L8 42L8 44L9 44L9 43L10 43L10 45L8 45L8 46L7 46L7 45L6 45L6 44L7 44L7 43L6 43L6 44L4 44L4 45L6 45L6 46L7 46L7 47L8 47L8 48L9 48L9 49L8 49L8 51L9 51L9 52L7 52L7 51L6 51L6 50L7 50L7 49L6 49L6 50L5 50L5 52L4 52L4 53L6 53L6 54L7 54L7 53L8 53L8 55L10 55L10 53L11 53L11 55L12 55L12 56L13 56L13 57L17 57L17 56L16 56L16 55L15 55L15 56L14 56L14 55L13 55L13 54L15 54L15 52L14 52L14 51L15 51L15 48L16 48L16 52L17 52L17 51L18 51L18 49L19 49L19 51L20 51L20 50L21 50L21 51L22 51L22 50L21 50L21 49L24 49L24 48L25 48L25 47L26 47L26 48L28 48L28 49L27 49L27 50L26 50L26 49L25 49L25 50L24 50L24 51L23 51L23 52L22 52L22 54L20 54L20 53L19 53L19 54L18 54L18 56L19 56L19 57L21 57L21 56L20 56L20 55L22 55L22 56L23 56L23 55L24 55L24 56L25 56L25 57L26 57L26 59L27 59L27 60L28 60L28 62L27 62L27 63L28 63L28 64L26 64L26 63L25 63L25 62L24 62L24 61L23 61L23 59L22 59L22 61L21 61L21 62L23 62L23 63L24 63L24 64L22 64L22 63L20 63L20 61L18 61L18 63L17 63L17 65L18 65L18 64L19 64L19 65L20 65L20 64L22 64L22 66L23 66L23 68L24 68L24 67L25 67L25 66L23 66L23 65L29 65L29 64L30 64L30 63L28 63L28 62L29 62L29 60L28 60L28 59L29 59L29 57L30 57L30 56L31 56L31 55L32 55L32 56L33 56L33 55L34 55L34 57L31 57L31 58L30 58L30 59L31 59L31 61L32 61L32 58L33 58L33 59L35 59L35 60L37 60L37 62L38 62L38 63L37 63L37 64L38 64L38 65L39 65L39 64L38 64L38 63L40 63L40 62L41 62L41 60L39 60L39 59L38 59L38 60L37 60L37 58L36 58L36 59L35 59L35 56L37 56L37 57L38 57L38 55L40 55L40 57L39 57L39 58L40 58L40 59L41 59L41 58L40 58L40 57L41 57L41 56L42 56L42 57L44 57L44 54L45 54L45 53L46 53L46 54L50 54L50 55L51 55L51 54L50 54L50 53L46 53L46 52L47 52L47 51L48 51L48 52L52 52L52 55L54 55L54 56L55 56L55 57L56 57L56 56L57 56L57 57L58 57L58 58L55 58L55 62L54 62L54 63L56 63L56 64L53 64L53 63L52 63L52 66L51 66L51 68L52 68L52 66L53 66L53 65L56 65L56 64L57 64L57 63L59 63L59 62L60 62L60 60L58 60L58 61L56 61L56 60L57 60L57 59L58 59L58 58L59 58L59 59L60 59L60 58L61 58L61 57L62 57L62 59L61 59L61 60L63 60L63 56L61 56L61 57L60 57L60 54L59 54L59 53L60 53L60 51L61 51L61 52L62 52L62 53L61 53L61 55L64 55L64 54L65 54L65 52L62 52L62 51L61 51L61 49L60 49L60 48L59 48L59 49L56 49L56 48L55 48L55 50L53 50L53 49L54 49L54 48L53 48L53 45L56 45L56 46L57 46L57 45L58 45L58 46L59 46L59 47L60 47L60 46L59 46L59 45L60 45L60 44L61 44L61 45L62 45L62 43L64 43L64 46L66 46L66 44L67 44L67 46L68 46L68 44L67 44L67 39L66 39L66 37L68 37L68 35L66 35L66 34L65 34L65 36L66 36L66 37L62 37L62 39L61 39L61 37L60 37L60 36L59 36L59 37L58 37L58 38L56 38L56 40L55 40L55 38L54 38L54 40L52 40L52 39L53 39L53 38L52 38L52 37L56 37L56 36L57 36L57 34L56 34L56 36L53 36L53 35L54 35L54 34L53 34L53 33L55 33L55 31L56 31L56 30L57 30L57 29L56 29L56 28L58 28L58 30L59 30L59 29L61 29L61 27L60 27L60 28L59 28L59 25L61 25L61 24L62 24L62 21L63 21L63 19L64 19L64 17L63 17L63 19L62 19L62 15L63 15L63 14L64 14L64 13L63 13L63 14L62 14L62 15L61 15L61 14L60 14L60 15L59 15L59 16L58 16L58 18L56 18L56 20L55 20L55 23L57 23L57 25L56 25L56 24L55 24L55 27L54 27L54 25L53 25L53 24L54 24L54 23L53 23L53 22L52 22L52 23L51 23L51 22L50 22L50 20L51 20L51 21L53 21L53 19L55 19L55 18L52 18L52 17L54 17L54 16L53 16L53 15L54 15L54 14L53 14L53 15L52 15L52 17L51 17L51 18L52 18L52 19L50 19L50 20L49 20L49 18L50 18L50 17L49 17L49 18L47 18L47 17L46 17L46 16L47 16L47 15L46 15L46 14L47 14L47 13L46 13L46 14L45 14L45 13L44 13L44 12L46 12L46 10L47 10L47 8L45 8L45 7L44 7L44 6L43 6L43 5L44 5L44 4L45 4L45 3L44 3L44 2L42 2L42 1L41 1L41 2L40 2L40 3L41 3L41 4L42 4L42 3L44 3L44 4L43 4L43 5L40 5L40 6L39 6L39 8L38 8L38 5L37 5L37 8L38 8L38 9L37 9L37 10L38 10L38 12L39 12L39 11L40 11L40 9L43 9L43 11L44 11L44 12L42 12L42 10L41 10L41 14L40 14L40 13L39 13L39 14L38 14L38 13L37 13L37 12L36 12L36 13L37 13L37 14L35 14L35 13L34 13L34 11L36 11L36 9L35 9L35 10L34 10L34 9L33 9L33 10L32 10L32 9L31 9L31 8L32 8L32 6L31 6L31 5L30 5L30 6L29 6L29 7L28 7L28 5L29 5L29 4L28 4L28 3L29 3L29 2L28 2L28 1L25 1L25 2L23 2L23 3L25 3L25 2L26 2L26 4L25 4L25 7L24 7L24 6L23 6L23 5L20 5L20 3L22 3L22 2L20 2L20 1ZM57 2L57 3L59 3L59 2ZM9 3L9 4L10 4L10 5L11 5L11 4L12 4L12 3L11 3L11 4L10 4L10 3ZM16 3L16 7L17 7L17 5L19 5L19 6L20 6L20 7L21 7L21 6L20 6L20 5L19 5L19 4L17 4L17 3ZM34 3L34 4L36 4L36 3ZM53 3L53 4L55 4L55 3ZM60 3L60 5L61 5L61 3ZM26 4L26 5L28 5L28 4ZM58 4L58 7L59 7L59 8L60 8L60 7L61 7L61 6L60 6L60 7L59 7L59 4ZM12 5L12 6L11 6L11 7L12 7L12 8L13 8L13 9L14 9L14 6L13 6L13 5ZM33 5L33 8L36 8L36 5ZM55 5L55 7L54 7L54 6L53 6L53 7L54 7L54 8L55 8L55 7L56 7L56 5ZM12 6L12 7L13 7L13 6ZM22 6L22 8L23 8L23 6ZM26 6L26 9L25 9L25 8L24 8L24 9L23 9L23 11L24 11L24 12L23 12L23 15L24 15L24 14L25 14L25 13L27 13L27 14L28 14L28 16L26 16L26 15L25 15L25 17L24 17L24 16L23 16L23 17L24 17L24 18L22 18L22 15L21 15L21 13L22 13L22 11L20 11L20 10L22 10L22 9L21 9L21 8L20 8L20 10L17 10L17 11L20 11L20 14L19 14L19 12L17 12L17 13L18 13L18 15L17 15L17 14L13 14L13 12L14 12L14 13L16 13L16 11L15 11L15 12L14 12L14 11L13 11L13 12L12 12L12 14L13 14L13 15L12 15L12 16L11 16L11 17L10 17L10 18L9 18L9 19L8 19L8 18L6 18L6 19L8 19L8 20L10 20L10 21L12 21L12 22L11 22L11 23L12 23L12 24L13 24L13 25L14 25L14 26L13 26L13 27L11 27L11 28L10 28L10 29L11 29L11 30L12 30L12 31L13 31L13 30L16 30L16 28L15 28L15 27L16 27L16 26L18 26L18 27L17 27L17 29L20 29L20 33L19 33L19 32L18 32L18 33L17 33L17 31L18 31L18 30L17 30L17 31L16 31L16 32L15 32L15 31L14 31L14 32L15 32L15 33L17 33L17 35L16 35L16 36L17 36L17 37L18 37L18 38L17 38L17 39L16 39L16 40L15 40L15 41L13 41L13 42L15 42L15 41L16 41L16 40L17 40L17 42L16 42L16 43L14 43L14 44L15 44L15 45L13 45L13 44L12 44L12 42L10 42L10 43L11 43L11 44L12 44L12 45L11 45L11 46L9 46L9 47L11 47L11 46L13 46L13 47L12 47L12 48L11 48L11 49L10 49L10 51L11 51L11 49L12 49L12 50L14 50L14 49L12 49L12 48L13 48L13 47L14 47L14 48L15 48L15 46L16 46L16 47L17 47L17 49L18 49L18 48L19 48L19 49L21 49L21 48L24 48L24 47L23 47L23 46L27 46L27 47L28 47L28 48L29 48L29 49L32 49L32 51L31 51L31 50L30 50L30 51L29 51L29 50L28 50L28 51L27 51L27 52L26 52L26 53L23 53L23 54L25 54L25 55L30 55L30 54L28 54L28 53L31 53L31 54L32 54L32 55L33 55L33 54L34 54L34 55L35 55L35 54L34 54L34 53L33 53L33 54L32 54L32 53L31 53L31 52L32 52L32 51L34 51L34 52L35 52L35 51L36 51L36 49L34 49L34 46L35 46L35 47L36 47L36 48L38 48L38 47L39 47L39 49L38 49L38 50L37 50L37 52L36 52L36 53L38 53L38 52L39 52L39 51L40 51L40 48L41 48L41 47L39 47L39 45L40 45L40 46L41 46L41 45L42 45L42 49L41 49L41 51L42 51L42 53L40 53L40 55L41 55L41 54L44 54L44 53L45 53L45 50L46 50L46 51L47 51L47 50L46 50L46 49L45 49L45 48L47 48L47 49L48 49L48 50L49 50L49 49L50 49L50 50L51 50L51 51L53 51L53 50L52 50L52 46L51 46L51 45L52 45L52 44L53 44L53 41L52 41L52 40L51 40L51 39L52 39L52 38L51 38L51 37L52 37L52 35L50 35L50 34L51 34L51 33L52 33L52 32L53 32L53 31L52 31L52 30L56 30L56 29L54 29L54 27L53 27L53 26L52 26L52 24L53 24L53 23L52 23L52 24L51 24L51 23L50 23L50 24L49 24L49 23L48 23L48 22L46 22L46 21L49 21L49 20L48 20L48 19L47 19L47 18L46 18L46 17L45 17L45 16L46 16L46 15L44 15L44 17L43 17L43 14L44 14L44 13L42 13L42 15L38 15L38 16L37 16L37 15L36 15L36 16L35 16L35 14L34 14L34 15L33 15L33 12L32 12L32 13L31 13L31 11L32 11L32 10L31 10L31 9L30 9L30 8L31 8L31 6L30 6L30 7L29 7L29 9L30 9L30 11L28 11L28 9L27 9L27 8L28 8L28 7L27 7L27 6ZM34 6L34 7L35 7L35 6ZM40 6L40 7L41 7L41 8L43 8L43 6L42 6L42 7L41 7L41 6ZM50 7L50 8L49 8L49 12L50 12L50 13L49 13L49 15L48 15L48 16L49 16L49 15L51 15L51 14L52 14L52 13L55 13L55 17L56 17L56 16L57 16L57 15L56 15L56 12L52 12L52 10L50 10L50 9L51 9L51 7ZM0 8L0 9L2 9L2 8ZM39 8L39 9L38 9L38 10L39 10L39 9L40 9L40 8ZM44 8L44 9L45 9L45 10L46 10L46 9L45 9L45 8ZM52 8L52 9L53 9L53 8ZM24 9L24 10L25 10L25 9ZM55 9L55 10L54 10L54 11L57 11L57 9ZM26 10L26 12L27 12L27 13L28 13L28 14L29 14L29 16L28 16L28 17L27 17L27 18L26 18L26 17L25 17L25 19L24 19L24 20L22 20L22 22L20 22L20 20L19 20L19 19L20 19L20 18L21 18L21 17L19 17L19 16L18 16L18 17L13 17L13 16L16 16L16 15L13 15L13 16L12 16L12 17L11 17L11 18L13 18L13 19L12 19L12 21L14 21L14 20L13 20L13 19L15 19L15 20L16 20L16 21L15 21L15 22L16 22L16 23L15 23L15 24L14 24L14 25L18 25L18 26L19 26L19 27L20 27L20 28L21 28L21 27L22 27L22 30L21 30L21 32L22 32L22 33L24 33L24 31L25 31L25 33L29 33L29 32L31 32L31 33L32 33L32 32L38 32L38 33L37 33L37 37L36 37L36 39L35 39L35 37L32 37L32 34L31 34L31 35L29 35L29 34L28 34L28 35L27 35L27 34L26 34L26 35L23 35L23 34L22 34L22 38L23 38L23 40L22 40L22 39L21 39L21 40L20 40L20 41L19 41L19 42L20 42L20 43L19 43L19 48L20 48L20 44L22 44L22 46L21 46L21 47L22 47L22 46L23 46L23 45L24 45L24 43L23 43L23 44L22 44L22 43L21 43L21 42L20 42L20 41L22 41L22 42L23 42L23 41L24 41L24 42L25 42L25 41L26 41L26 42L27 42L27 44L28 44L28 46L29 46L29 47L30 47L30 48L32 48L32 49L33 49L33 50L34 50L34 49L33 49L33 47L32 47L32 46L31 46L31 45L33 45L33 46L34 46L34 45L35 45L35 46L36 46L36 47L37 47L37 46L38 46L38 45L37 45L37 42L38 42L38 44L39 44L39 43L41 43L41 44L43 44L43 47L44 47L44 48L43 48L43 49L44 49L44 50L45 50L45 49L44 49L44 48L45 48L45 45L44 45L44 44L45 44L45 43L47 43L47 44L46 44L46 46L47 46L47 44L48 44L48 43L47 43L47 42L48 42L48 41L47 41L47 37L48 37L48 38L49 38L49 37L48 37L48 34L47 34L47 33L46 33L46 32L45 32L45 33L44 33L44 31L49 31L49 32L50 32L50 33L49 33L49 34L50 34L50 33L51 33L51 32L52 32L52 31L51 31L51 30L52 30L52 29L53 29L53 27L52 27L52 26L50 26L50 25L51 25L51 24L50 24L50 25L48 25L48 23L47 23L47 25L46 25L46 26L47 26L47 25L48 25L48 27L50 27L50 28L51 28L51 30L50 30L50 29L48 29L48 30L47 30L47 29L45 29L45 30L44 30L44 28L45 28L45 27L44 27L44 28L43 28L43 26L41 26L41 25L42 25L42 24L43 24L43 25L44 25L44 24L45 24L45 23L44 23L44 20L46 20L46 19L44 19L44 18L41 18L41 17L42 17L42 16L40 16L40 19L42 19L42 20L40 20L40 21L39 21L39 20L38 20L38 21L37 21L37 22L36 22L36 20L35 20L35 21L34 21L34 19L32 19L32 18L33 18L33 15L32 15L32 14L31 14L31 13L29 13L29 12L27 12L27 10ZM33 10L33 11L34 11L34 10ZM60 10L60 11L61 11L61 10ZM50 11L50 12L51 12L51 13L50 13L50 14L51 14L51 13L52 13L52 12L51 12L51 11ZM63 11L63 12L64 12L64 11ZM31 15L31 16L29 16L29 17L31 17L31 18L28 18L28 19L25 19L25 20L26 20L26 21L27 21L27 22L25 22L25 21L23 21L23 22L25 22L25 23L23 23L23 24L22 24L22 23L20 23L20 22L18 22L18 21L19 21L19 20L18 20L18 21L17 21L17 22L18 22L18 23L19 23L19 24L18 24L18 25L19 25L19 24L21 24L21 25L20 25L20 26L21 26L21 25L24 25L24 26L26 26L26 25L27 25L27 27L28 27L28 28L26 28L26 27L25 27L25 28L24 28L24 27L23 27L23 28L24 28L24 29L23 29L23 30L22 30L22 31L23 31L23 30L25 30L25 31L26 31L26 32L28 32L28 31L30 31L30 30L31 30L31 32L32 32L32 30L31 30L31 29L32 29L32 28L33 28L33 31L34 31L34 30L37 30L37 31L38 31L38 32L39 32L39 33L38 33L38 34L41 34L41 35L43 35L43 34L44 34L44 37L45 37L45 38L43 38L43 37L42 37L42 36L41 36L41 38L40 38L40 35L39 35L39 36L38 36L38 37L37 37L37 39L38 39L38 42L43 42L43 39L45 39L45 40L44 40L44 43L45 43L45 42L46 42L46 37L47 37L47 34L46 34L46 33L45 33L45 34L44 34L44 33L40 33L40 31L44 31L44 30L43 30L43 28L42 28L42 27L40 27L40 24L41 24L41 23L42 23L42 22L43 22L43 21L41 21L41 23L40 23L40 24L38 24L38 23L37 23L37 24L36 24L36 25L35 25L35 23L34 23L34 22L32 22L32 21L33 21L33 20L32 20L32 19L31 19L31 18L32 18L32 15ZM60 15L60 17L59 17L59 18L58 18L58 19L57 19L57 20L56 20L56 21L57 21L57 22L58 22L58 21L60 21L60 22L61 22L61 21L62 21L62 19L61 19L61 21L60 21L60 19L59 19L59 18L61 18L61 15ZM34 16L34 17L35 17L35 16ZM38 16L38 17L36 17L36 19L37 19L37 18L38 18L38 19L39 19L39 18L38 18L38 17L39 17L39 16ZM18 17L18 18L15 18L15 19L18 19L18 18L19 18L19 17ZM10 19L10 20L11 20L11 19ZM29 19L29 20L31 20L31 19ZM58 19L58 20L57 20L57 21L58 21L58 20L59 20L59 19ZM27 20L27 21L28 21L28 23L26 23L26 24L25 24L25 25L26 25L26 24L28 24L28 27L30 27L30 26L29 26L29 25L30 25L30 24L32 24L32 26L31 26L31 27L33 27L33 28L34 28L34 29L36 29L36 28L37 28L37 30L38 30L38 29L40 29L40 30L42 30L42 28L40 28L40 27L37 27L37 26L38 26L38 24L37 24L37 26L36 26L36 27L35 27L35 26L34 26L34 23L31 23L31 21L30 21L30 23L29 23L29 21L28 21L28 20ZM67 20L67 21L68 21L68 20ZM0 21L0 23L1 23L1 24L0 24L0 28L2 28L2 27L3 27L3 25L1 25L1 24L3 24L3 22L2 22L2 21ZM8 21L8 22L9 22L9 21ZM12 22L12 23L14 23L14 22ZM16 23L16 24L17 24L17 23ZM59 23L59 24L58 24L58 25L57 25L57 26L58 26L58 25L59 25L59 24L60 24L60 23ZM67 25L67 28L68 28L68 26L69 26L69 25ZM14 26L14 27L13 27L13 28L14 28L14 29L15 29L15 28L14 28L14 27L15 27L15 26ZM33 26L33 27L34 27L34 28L35 28L35 27L34 27L34 26ZM55 27L55 28L56 28L56 27ZM62 27L62 28L63 28L63 27ZM11 28L11 29L12 29L12 28ZM25 28L25 29L26 29L26 28ZM0 29L0 30L1 30L1 29ZM5 29L5 30L4 30L4 31L2 31L2 32L4 32L4 31L5 31L5 30L7 30L7 31L6 31L6 32L7 32L7 31L8 31L8 30L7 30L7 29ZM27 29L27 31L28 31L28 30L30 30L30 29ZM10 31L10 32L11 32L11 31ZM50 31L50 32L51 32L51 31ZM57 31L57 33L58 33L58 34L59 34L59 33L58 33L58 31ZM5 33L5 36L8 36L8 33ZM33 33L33 36L36 36L36 33ZM61 33L61 36L64 36L64 33ZM3 34L3 35L4 35L4 34ZM6 34L6 35L7 35L7 34ZM12 34L12 35L13 35L13 34ZM18 34L18 35L17 35L17 36L18 36L18 35L19 35L19 36L20 36L20 37L19 37L19 39L17 39L17 40L19 40L19 39L20 39L20 37L21 37L21 34L20 34L20 35L19 35L19 34ZM34 34L34 35L35 35L35 34ZM45 34L45 37L46 37L46 34ZM62 34L62 35L63 35L63 34ZM23 36L23 38L24 38L24 39L25 39L25 40L24 40L24 41L25 41L25 40L26 40L26 41L27 41L27 42L28 42L28 44L30 44L30 45L29 45L29 46L30 46L30 45L31 45L31 44L32 44L32 43L29 43L29 42L28 42L28 41L27 41L27 39L29 39L29 41L30 41L30 42L32 42L32 40L33 40L33 42L35 42L35 41L34 41L34 40L33 40L33 39L32 39L32 40L31 40L31 38L32 38L32 37L31 37L31 36L29 36L29 37L30 37L30 39L29 39L29 38L28 38L28 37L27 37L27 36L26 36L26 37L27 37L27 38L26 38L26 39L25 39L25 37L24 37L24 36ZM50 36L50 37L51 37L51 36ZM4 38L4 39L5 39L5 38ZM38 38L38 39L39 39L39 38ZM58 38L58 39L57 39L57 40L56 40L56 41L55 41L55 40L54 40L54 43L55 43L55 44L56 44L56 45L57 45L57 43L55 43L55 42L56 42L56 41L57 41L57 40L59 40L59 38ZM64 38L64 39L62 39L62 40L61 40L61 39L60 39L60 40L61 40L61 41L60 41L60 43L62 43L62 41L65 41L65 42L64 42L64 43L65 43L65 42L66 42L66 41L65 41L65 40L64 40L64 39L65 39L65 38ZM8 39L8 40L9 40L9 39ZM40 39L40 41L41 41L41 39ZM49 39L49 45L50 45L50 44L52 44L52 41L51 41L51 40L50 40L50 39ZM4 40L4 41L5 41L5 40ZM30 40L30 41L31 41L31 40ZM36 40L36 41L37 41L37 40ZM50 41L50 42L51 42L51 41ZM1 43L1 46L3 46L3 47L4 47L4 46L3 46L3 44L2 44L2 43ZM33 43L33 45L34 45L34 43ZM58 43L58 44L59 44L59 43ZM16 44L16 46L17 46L17 47L18 47L18 45L17 45L17 44ZM25 44L25 45L26 45L26 44ZM54 46L54 47L55 47L55 46ZM48 47L48 48L50 48L50 49L51 49L51 48L50 48L50 47ZM57 47L57 48L58 48L58 47ZM61 47L61 48L62 48L62 47ZM68 48L68 49L69 49L69 48ZM59 49L59 50L60 50L60 49ZM64 49L64 51L65 51L65 49ZM0 50L0 52L1 52L1 50ZM38 50L38 51L39 51L39 50ZM42 50L42 51L43 51L43 53L44 53L44 51L43 51L43 50ZM12 51L12 52L11 52L11 53L13 53L13 51ZM55 51L55 52L53 52L53 54L54 54L54 55L55 55L55 56L56 56L56 55L55 55L55 54L57 54L57 53L58 53L58 52L59 52L59 51L58 51L58 52L57 52L57 51ZM6 52L6 53L7 53L7 52ZM9 52L9 53L10 53L10 52ZM27 52L27 53L26 53L26 54L27 54L27 53L28 53L28 52ZM55 52L55 53L56 53L56 52ZM0 53L0 55L1 55L1 53ZM16 53L16 54L17 54L17 53ZM63 53L63 54L64 54L64 53ZM6 55L6 56L7 56L7 55ZM48 55L48 56L49 56L49 57L46 57L46 58L48 58L48 59L49 59L49 60L50 60L50 61L51 61L51 60L52 60L52 61L54 61L54 60L53 60L53 59L54 59L54 57L53 57L53 56L52 56L52 57L53 57L53 58L52 58L52 59L50 59L50 56L49 56L49 55ZM57 55L57 56L59 56L59 55ZM26 56L26 57L27 57L27 59L28 59L28 56ZM59 57L59 58L60 58L60 57ZM66 57L66 58L67 58L67 57ZM2 58L2 59L3 59L3 58ZM10 58L10 59L8 59L8 60L9 60L9 61L8 61L8 62L9 62L9 61L10 61L10 63L11 63L11 66L12 66L12 63L11 63L11 61L10 61L10 59L11 59L11 58ZM42 58L42 61L44 61L44 60L45 60L45 61L46 61L46 62L47 62L47 61L46 61L46 60L47 60L47 59L46 59L46 60L45 60L45 58ZM43 59L43 60L44 60L44 59ZM3 60L3 61L5 61L5 60ZM6 60L6 61L7 61L7 60ZM38 60L38 62L39 62L39 60ZM33 61L33 64L36 64L36 61ZM61 61L61 64L64 64L64 61ZM67 61L67 62L68 62L68 61ZM31 62L31 63L32 63L32 62ZM34 62L34 63L35 63L35 62ZM42 62L42 63L43 63L43 62ZM44 62L44 63L45 63L45 62ZM62 62L62 63L63 63L63 62ZM8 63L8 65L9 65L9 63ZM19 63L19 64L20 64L20 63ZM31 64L31 65L30 65L30 66L31 66L31 65L32 65L32 66L33 66L33 67L34 67L34 66L36 66L36 65L34 65L34 66L33 66L33 65L32 65L32 64ZM56 66L56 67L58 67L58 66ZM61 67L61 69L62 69L62 67ZM18 68L18 69L19 69L19 68ZM36 68L36 69L37 69L37 68ZM65 68L65 69L67 69L67 68ZM68 68L68 69L69 69L69 68ZM0 0L0 7L7 7L7 0ZM1 1L1 6L6 6L6 1ZM2 2L2 5L5 5L5 2ZM62 0L62 7L69 7L69 0ZM63 1L63 6L68 6L68 1ZM64 2L64 5L67 5L67 2ZM0 62L0 69L7 69L7 62ZM1 63L1 68L6 68L6 63ZM2 64L2 67L5 67L5 64Z" fill="#000000"/></g></g></svg>
