<?xml version="1.0" encoding="UTF-8"?>
<svg xmlns="http://www.w3.org/2000/svg" version="1.1" width="300" height="300" viewBox="0 0 300 300"><rect x="0" y="0" width="300" height="300" fill="#ffffff"/><g transform="scale(4.348)"><g transform="translate(0,0)"><path fill-rule="evenodd" d="M10 0L10 1L8 1L8 2L10 2L10 4L11 4L11 3L12 3L12 4L14 4L14 5L18 5L18 7L17 7L17 6L16 6L16 7L17 7L17 8L15 8L15 6L14 6L14 7L13 7L13 6L12 6L12 7L11 7L11 5L10 5L10 7L9 7L9 5L8 5L8 7L9 7L9 8L6 8L6 9L9 9L9 8L11 8L11 9L12 9L12 8L13 8L13 9L17 9L17 10L12 10L12 12L13 12L13 13L14 13L14 12L15 12L15 11L16 11L16 16L15 16L15 15L14 15L14 14L13 14L13 15L12 15L12 17L13 17L13 18L12 18L12 19L13 19L13 20L12 20L12 22L10 22L10 21L11 21L11 19L10 19L10 18L11 18L11 16L10 16L10 17L9 17L9 15L8 15L8 14L6 14L6 13L8 13L8 12L9 12L9 14L10 14L10 15L11 15L11 14L12 14L12 13L11 13L11 12L10 12L10 10L8 10L8 12L6 12L6 11L7 11L7 10L5 10L5 8L0 8L0 14L1 14L1 15L0 15L0 16L1 16L1 21L0 21L0 24L2 24L2 23L1 23L1 22L2 22L2 19L3 19L3 21L5 21L5 22L4 22L4 23L3 23L3 25L4 25L4 26L3 26L3 27L2 27L2 28L0 28L0 29L3 29L3 31L4 31L4 32L1 32L1 33L0 33L0 34L1 34L1 33L2 33L2 34L3 34L3 35L2 35L2 37L3 37L3 38L2 38L2 39L3 39L3 40L2 40L2 41L0 41L0 43L1 43L1 44L0 44L0 47L1 47L1 48L0 48L0 49L1 49L1 51L0 51L0 52L1 52L1 51L2 51L2 50L3 50L3 51L4 51L4 52L3 52L3 54L2 54L2 53L1 53L1 55L0 55L0 57L1 57L1 58L0 58L0 61L1 61L1 58L2 58L2 59L3 59L3 58L4 58L4 59L7 59L7 60L6 60L6 61L8 61L8 63L9 63L9 64L8 64L8 69L9 69L9 68L13 68L13 67L10 67L10 66L12 66L12 65L13 65L13 63L14 63L14 67L15 67L15 68L14 68L14 69L22 69L22 68L23 68L23 67L22 67L22 66L25 66L25 67L24 67L24 68L25 68L25 69L26 69L26 68L27 68L27 69L32 69L32 68L31 68L31 67L34 67L34 66L33 66L33 65L35 65L35 68L36 68L36 69L38 69L38 68L37 68L37 67L39 67L39 68L40 68L40 67L41 67L41 68L43 68L43 69L44 69L44 68L47 68L47 69L49 69L49 68L50 68L50 69L51 69L51 68L52 68L52 67L53 67L53 68L54 68L54 69L56 69L56 68L57 68L57 67L59 67L59 68L60 68L60 69L63 69L63 68L64 68L64 69L68 69L68 68L67 68L67 67L65 67L65 68L64 68L64 67L63 67L63 66L64 66L64 65L65 65L65 64L69 64L69 63L68 63L68 62L69 62L69 61L68 61L68 62L67 62L67 59L68 59L68 60L69 60L69 59L68 59L68 58L69 58L69 57L68 57L68 58L67 58L67 59L65 59L65 60L63 60L63 59L64 59L64 58L63 58L63 59L62 59L62 57L61 57L61 56L63 56L63 57L65 57L65 58L66 58L66 57L65 57L65 56L68 56L68 54L69 54L69 53L67 53L67 52L68 52L68 50L69 50L69 48L68 48L68 47L67 47L67 46L69 46L69 45L67 45L67 43L68 43L68 44L69 44L69 43L68 43L68 42L69 42L69 39L68 39L68 36L69 36L69 35L68 35L68 34L69 34L69 32L68 32L68 29L69 29L69 27L68 27L68 26L69 26L69 23L68 23L68 22L69 22L69 21L68 21L68 18L69 18L69 17L68 17L68 13L69 13L69 12L68 12L68 13L67 13L67 11L68 11L68 8L67 8L67 10L66 10L66 8L65 8L65 9L64 9L64 8L63 8L63 9L64 9L64 10L63 10L63 11L60 11L60 12L61 12L61 13L59 13L59 14L62 14L62 12L66 12L66 13L67 13L67 14L65 14L65 13L63 13L63 14L64 14L64 15L62 15L62 16L61 16L61 15L59 15L59 16L58 16L58 14L56 14L56 16L54 16L54 17L53 17L53 18L55 18L55 19L56 19L56 20L55 20L55 21L51 21L51 23L50 23L50 21L49 21L49 20L50 20L50 19L49 19L49 18L50 18L50 12L52 12L52 10L55 10L55 11L54 11L54 12L55 12L55 13L53 13L53 15L52 15L52 16L53 16L53 15L55 15L55 13L56 13L56 12L57 12L57 13L58 13L58 12L59 12L59 11L58 11L58 10L57 10L57 9L58 9L58 8L57 8L57 4L58 4L58 7L59 7L59 10L62 10L62 8L60 8L60 7L61 7L61 6L60 6L60 7L59 7L59 4L58 4L58 3L59 3L59 2L57 2L57 4L56 4L56 3L53 3L53 5L49 5L49 3L50 3L50 4L51 4L51 3L50 3L50 2L51 2L51 1L50 1L50 0L47 0L47 2L48 2L48 3L47 3L47 4L48 4L48 5L47 5L47 6L46 6L46 5L44 5L44 3L45 3L45 4L46 4L46 3L45 3L45 2L46 2L46 1L45 1L45 0L44 0L44 1L45 1L45 2L44 2L44 3L43 3L43 4L42 4L42 2L43 2L43 0L41 0L41 1L38 1L38 0L35 0L35 1L34 1L34 0L33 0L33 1L32 1L32 0L28 0L28 1L27 1L27 2L28 2L28 3L27 3L27 4L26 4L26 1L25 1L25 0L23 0L23 1L25 1L25 4L24 4L24 3L23 3L23 2L22 2L22 1L21 1L21 3L20 3L20 4L19 4L19 2L20 2L20 1L19 1L19 0L17 0L17 2L18 2L18 3L17 3L17 4L15 4L15 2L16 2L16 1L15 1L15 2L14 2L14 3L13 3L13 1L14 1L14 0L13 0L13 1L12 1L12 0ZM52 0L52 1L53 1L53 2L55 2L55 0ZM56 0L56 1L61 1L61 0ZM10 1L10 2L12 2L12 1ZM30 1L30 2L31 2L31 4L32 4L32 1ZM41 1L41 2L42 2L42 1ZM48 1L48 2L50 2L50 1ZM33 2L33 4L35 4L35 2ZM37 2L37 3L38 3L38 4L37 4L37 5L38 5L38 6L37 6L37 8L38 8L38 10L36 10L36 9L35 9L35 10L36 10L36 11L33 11L33 10L32 10L32 8L31 8L31 7L32 7L32 5L30 5L30 6L29 6L29 7L28 7L28 5L29 5L29 3L28 3L28 4L27 4L27 7L26 7L26 5L24 5L24 4L23 4L23 3L21 3L21 4L20 4L20 5L19 5L19 7L18 7L18 8L17 8L17 9L18 9L18 10L17 10L17 12L19 12L19 13L20 13L20 16L19 16L19 14L18 14L18 15L17 15L17 16L16 16L16 17L15 17L15 18L14 18L14 19L16 19L16 21L15 21L15 20L13 20L13 21L15 21L15 23L14 23L14 22L13 22L13 23L9 23L9 22L8 22L8 23L6 23L6 24L5 24L5 23L4 23L4 25L5 25L5 26L4 26L4 27L3 27L3 29L4 29L4 30L5 30L5 29L6 29L6 30L7 30L7 31L5 31L5 32L9 32L9 31L8 31L8 30L9 30L9 28L10 28L10 29L11 29L11 30L10 30L10 31L11 31L11 32L12 32L12 33L11 33L11 34L12 34L12 33L14 33L14 34L13 34L13 35L12 35L12 37L10 37L10 39L9 39L9 37L6 37L6 38L5 38L5 37L4 37L4 36L3 36L3 37L4 37L4 38L3 38L3 39L4 39L4 38L5 38L5 40L4 40L4 41L5 41L5 40L7 40L7 39L6 39L6 38L8 38L8 42L7 42L7 41L6 41L6 42L5 42L5 44L8 44L8 45L9 45L9 43L8 43L8 42L10 42L10 43L11 43L11 42L10 42L10 39L11 39L11 38L13 38L13 40L15 40L15 41L14 41L14 42L15 42L15 43L16 43L16 45L15 45L15 44L14 44L14 43L13 43L13 45L10 45L10 46L8 46L8 47L10 47L10 48L8 48L8 49L6 49L6 48L7 48L7 47L6 47L6 48L5 48L5 45L3 45L3 42L1 42L1 43L2 43L2 44L1 44L1 47L2 47L2 48L3 48L3 47L4 47L4 48L5 48L5 49L3 49L3 50L5 50L5 49L6 49L6 50L10 50L10 52L9 52L9 53L8 53L8 51L5 51L5 52L7 52L7 53L6 53L6 54L5 54L5 53L4 53L4 54L3 54L3 55L1 55L1 57L5 57L5 58L7 58L7 57L9 57L9 58L8 58L8 60L9 60L9 61L10 61L10 62L11 62L11 59L10 59L10 58L11 58L11 57L13 57L13 56L12 56L12 55L13 55L13 54L16 54L16 55L15 55L15 56L14 56L14 57L15 57L15 58L16 58L16 57L17 57L17 58L19 58L19 59L18 59L18 60L19 60L19 61L18 61L18 62L17 62L17 60L16 60L16 59L14 59L14 60L13 60L13 62L14 62L14 63L18 63L18 62L19 62L19 63L22 63L22 64L20 64L20 65L19 65L19 66L20 66L20 67L19 67L19 68L22 68L22 67L21 67L21 65L23 65L23 62L24 62L24 61L25 61L25 62L29 62L29 60L28 60L28 59L27 59L27 58L29 58L29 57L30 57L30 56L27 56L27 54L28 54L28 55L30 55L30 53L27 53L27 52L26 52L26 55L25 55L25 54L24 54L24 55L23 55L23 56L26 56L26 57L27 57L27 58L26 58L26 59L25 59L25 60L24 60L24 59L22 59L22 58L24 58L24 57L22 57L22 56L21 56L21 55L22 55L22 54L21 54L21 53L25 53L25 52L24 52L24 51L25 51L25 50L23 50L23 48L24 48L24 46L23 46L23 45L24 45L24 44L25 44L25 41L27 41L27 43L26 43L26 46L25 46L25 47L26 47L26 48L25 48L25 49L26 49L26 50L27 50L27 51L28 51L28 52L29 52L29 45L27 45L27 44L30 44L30 43L28 43L28 42L30 42L30 41L31 41L31 44L32 44L32 43L33 43L33 45L31 45L31 49L33 49L33 50L30 50L30 51L32 51L32 52L34 52L34 53L33 53L33 54L32 54L32 53L31 53L31 55L33 55L33 54L34 54L34 55L36 55L36 53L35 53L35 49L36 49L36 50L37 50L37 51L39 51L39 52L40 52L40 53L39 53L39 54L37 54L37 56L36 56L36 57L35 57L35 56L32 56L32 57L33 57L33 58L31 58L31 59L30 59L30 60L31 60L31 63L27 63L27 64L28 64L28 65L25 65L25 66L26 66L26 67L27 67L27 68L28 68L28 67L27 67L27 66L28 66L28 65L29 65L29 66L30 66L30 65L29 65L29 64L31 64L31 63L32 63L32 60L31 60L31 59L35 59L35 60L36 60L36 59L37 59L37 61L38 61L38 62L37 62L37 63L38 63L38 62L39 62L39 63L41 63L41 64L38 64L38 65L37 65L37 66L36 66L36 67L37 67L37 66L39 66L39 67L40 67L40 66L41 66L41 67L43 67L43 68L44 68L44 66L45 66L45 67L46 67L46 66L47 66L47 64L48 64L48 63L49 63L49 64L50 64L50 68L51 68L51 65L53 65L53 66L54 66L54 68L55 68L55 67L56 67L56 66L60 66L60 64L59 64L59 63L57 63L57 64L54 64L54 62L53 62L53 63L52 63L52 64L50 64L50 63L51 63L51 61L53 61L53 60L54 60L54 61L55 61L55 63L56 63L56 61L57 61L57 62L59 62L59 61L60 61L60 60L62 60L62 59L60 59L60 58L61 58L61 57L60 57L60 56L61 56L61 54L62 54L62 55L66 55L66 54L67 54L67 53L65 53L65 51L66 51L66 50L67 50L67 48L65 48L65 47L66 47L66 44L65 44L65 43L67 43L67 42L68 42L68 39L67 39L67 38L66 38L66 39L67 39L67 42L66 42L66 40L65 40L65 41L63 41L63 39L65 39L65 37L67 37L67 36L68 36L68 35L67 35L67 34L68 34L68 32L66 32L66 33L65 33L65 35L67 35L67 36L65 36L65 37L64 37L64 38L62 38L62 37L61 37L61 38L60 38L60 37L57 37L57 35L58 35L58 36L60 36L60 35L59 35L59 34L60 34L60 32L59 32L59 28L58 28L58 27L61 27L61 26L63 26L63 27L62 27L62 28L61 28L61 29L62 29L62 30L60 30L60 31L61 31L61 32L62 32L62 30L63 30L63 29L64 29L64 31L63 31L63 32L64 32L64 31L67 31L67 29L68 29L68 28L66 28L66 27L65 27L65 26L67 26L67 25L68 25L68 23L67 23L67 22L68 22L68 21L67 21L67 20L66 20L66 19L67 19L67 17L66 17L66 16L65 16L65 15L64 15L64 16L62 16L62 18L61 18L61 19L60 19L60 18L59 18L59 17L57 17L57 16L56 16L56 18L57 18L57 19L58 19L58 20L56 20L56 22L54 22L54 23L55 23L55 24L56 24L56 25L55 25L55 26L54 26L54 24L50 24L50 23L48 23L48 24L47 24L47 21L46 21L46 20L49 20L49 19L48 19L48 18L49 18L49 17L48 17L48 18L47 18L47 17L45 17L45 16L49 16L49 14L47 14L47 13L45 13L45 12L50 12L50 10L51 10L51 9L53 9L53 8L54 8L54 9L55 9L55 10L56 10L56 9L57 9L57 8L56 8L56 9L55 9L55 8L54 8L54 5L53 5L53 7L52 7L52 6L51 6L51 7L50 7L50 6L49 6L49 7L50 7L50 8L49 8L49 9L50 9L50 10L47 10L47 7L48 7L48 6L47 6L47 7L46 7L46 6L45 6L45 7L44 7L44 5L43 5L43 7L42 7L42 6L41 6L41 3L39 3L39 2ZM8 3L8 4L9 4L9 3ZM60 3L60 5L61 5L61 3ZM21 4L21 5L20 5L20 7L19 7L19 8L18 8L18 9L19 9L19 10L20 10L20 11L19 11L19 12L20 12L20 11L21 11L21 13L22 13L22 14L24 14L24 15L21 15L21 16L23 16L23 18L22 18L22 17L18 17L18 16L17 16L17 17L16 17L16 18L17 18L17 19L19 19L19 20L17 20L17 22L18 22L18 24L17 24L17 23L15 23L15 25L11 25L11 28L12 28L12 27L13 27L13 29L14 29L14 27L13 27L13 26L15 26L15 27L16 27L16 28L17 28L17 30L16 30L16 31L17 31L17 32L16 32L16 33L17 33L17 34L19 34L19 35L18 35L18 36L17 36L17 35L16 35L16 34L15 34L15 36L17 36L17 38L19 38L19 39L17 39L17 42L18 42L18 41L22 41L22 40L21 40L21 39L22 39L22 37L21 37L21 36L20 36L20 37L19 37L19 35L20 35L20 34L19 34L19 33L20 33L20 32L19 32L19 30L20 30L20 28L19 28L19 27L20 27L20 24L22 24L22 25L21 25L21 26L22 26L22 25L24 25L24 26L23 26L23 27L24 27L24 28L23 28L23 29L22 29L22 30L21 30L21 32L22 32L22 31L23 31L23 32L24 32L24 33L23 33L23 34L22 34L22 33L21 33L21 34L22 34L22 35L23 35L23 34L24 34L24 35L25 35L25 33L28 33L28 34L26 34L26 36L25 36L25 37L23 37L23 38L24 38L24 39L23 39L23 40L24 40L24 41L23 41L23 42L24 42L24 41L25 41L25 40L27 40L27 41L28 41L28 40L29 40L29 41L30 41L30 40L29 40L29 39L30 39L30 38L32 38L32 39L33 39L33 38L34 38L34 37L38 37L38 36L37 36L37 34L38 34L38 35L39 35L39 36L42 36L42 37L40 37L40 38L39 38L39 39L38 39L38 38L36 38L36 39L35 39L35 40L37 40L37 39L38 39L38 40L41 40L41 41L40 41L40 43L39 43L39 42L38 42L38 41L34 41L34 40L32 40L32 42L33 42L33 41L34 41L34 43L35 43L35 45L36 45L36 47L35 47L35 46L32 46L32 47L35 47L35 48L36 48L36 47L38 47L38 49L37 49L37 50L38 50L38 49L39 49L39 48L40 48L40 47L41 47L41 48L42 48L42 49L41 49L41 50L39 50L39 51L40 51L40 52L41 52L41 54L40 54L40 55L39 55L39 56L37 56L37 57L36 57L36 58L35 58L35 59L36 59L36 58L38 58L38 59L39 59L39 60L38 60L38 61L39 61L39 62L40 62L40 59L41 59L41 58L42 58L42 60L41 60L41 62L42 62L42 63L43 63L43 61L44 61L44 62L45 62L45 61L47 61L47 62L46 62L46 63L47 63L47 62L50 62L50 60L47 60L47 59L50 59L50 57L51 57L51 56L53 56L53 57L52 57L52 58L51 58L51 59L52 59L52 60L53 60L53 59L54 59L54 58L55 58L55 57L56 57L56 56L53 56L53 54L55 54L55 53L56 53L56 52L55 52L55 50L56 50L56 47L58 47L58 46L57 46L57 45L58 45L58 44L57 44L57 43L58 43L58 42L57 42L57 41L59 41L59 40L57 40L57 41L56 41L56 40L55 40L55 39L56 39L56 38L57 38L57 39L59 39L59 38L57 38L57 37L56 37L56 35L57 35L57 33L59 33L59 32L58 32L58 31L57 31L57 29L56 29L56 28L57 28L57 27L58 27L58 26L57 26L57 25L58 25L58 24L57 24L57 25L56 25L56 26L55 26L55 27L56 27L56 28L55 28L55 29L53 29L53 31L52 31L52 30L51 30L51 31L52 31L52 32L51 32L51 33L52 33L52 32L53 32L53 31L55 31L55 29L56 29L56 32L54 32L54 33L53 33L53 35L54 35L54 34L55 34L55 33L56 33L56 35L55 35L55 37L53 37L53 39L52 39L52 40L51 40L51 42L52 42L52 43L51 43L51 44L53 44L53 46L52 46L52 45L51 45L51 46L49 46L49 45L50 45L50 43L49 43L49 42L50 42L50 40L49 40L49 39L51 39L51 38L52 38L52 37L51 37L51 38L50 38L50 36L51 36L51 34L50 34L50 33L49 33L49 32L50 32L50 31L49 31L49 30L50 30L50 29L51 29L51 28L52 28L52 26L49 26L49 24L48 24L48 25L47 25L47 24L46 24L46 22L44 22L44 20L43 20L43 17L44 17L44 16L45 16L45 15L47 15L47 14L45 14L45 15L44 15L44 14L43 14L43 13L44 13L44 12L43 12L43 13L42 13L42 14L41 14L41 12L42 12L42 10L45 10L45 9L46 9L46 7L45 7L45 9L44 9L44 8L43 8L43 9L40 9L40 8L41 8L41 6L40 6L40 8L39 8L39 12L40 12L40 13L39 13L39 14L37 14L37 13L36 13L36 12L33 12L33 14L32 14L32 15L31 15L31 13L32 13L32 12L31 12L31 11L32 11L32 10L31 10L31 9L30 9L30 8L28 8L28 9L30 9L30 11L27 11L27 10L26 10L26 7L25 7L25 6L24 6L24 7L23 7L23 6L22 6L22 5L23 5L23 4ZM39 4L39 5L40 5L40 4ZM55 4L55 5L56 5L56 4ZM33 5L33 8L36 8L36 5ZM21 6L21 8L22 8L22 9L20 9L20 8L19 8L19 9L20 9L20 10L22 10L22 11L24 11L24 12L25 12L25 13L27 13L27 14L25 14L25 15L26 15L26 16L24 16L24 17L26 17L26 18L25 18L25 19L24 19L24 20L22 20L22 19L21 19L21 20L19 20L19 21L20 21L20 23L22 23L22 22L23 22L23 21L24 21L24 20L26 20L26 23L25 23L25 22L24 22L24 23L23 23L23 24L26 24L26 25L25 25L25 26L26 26L26 29L25 29L25 30L23 30L23 31L24 31L24 32L26 32L26 31L25 31L25 30L28 30L28 31L29 31L29 32L28 32L28 33L29 33L29 32L31 32L31 31L32 31L32 32L34 32L34 31L33 31L33 30L34 30L34 29L36 29L36 28L35 28L35 27L36 27L36 26L35 26L35 27L33 27L33 26L32 26L32 24L35 24L35 25L38 25L38 26L37 26L37 29L38 29L38 30L37 30L37 32L38 32L38 34L39 34L39 35L40 35L40 33L43 33L43 34L41 34L41 35L43 35L43 36L44 36L44 37L45 37L45 38L47 38L47 37L45 37L45 36L47 36L47 35L49 35L49 36L50 36L50 34L47 34L47 33L45 33L45 32L44 32L44 31L45 31L45 30L46 30L46 32L49 32L49 31L47 31L47 28L49 28L49 27L47 27L47 25L46 25L46 24L45 24L45 23L44 23L44 22L43 22L43 24L44 24L44 25L43 25L43 26L46 26L46 28L44 28L44 27L43 27L43 28L44 28L44 31L43 31L43 30L42 30L42 27L38 27L38 26L41 26L41 25L42 25L42 24L41 24L41 23L40 23L40 22L41 22L41 20L42 20L42 19L39 19L39 18L41 18L41 17L42 17L42 16L44 16L44 15L43 15L43 14L42 14L42 15L40 15L40 14L39 14L39 15L40 15L40 16L38 16L38 15L36 15L36 16L37 16L37 17L36 17L36 18L37 18L37 17L38 17L38 19L39 19L39 21L40 21L40 22L37 22L37 21L38 21L38 20L36 20L36 21L35 21L35 19L34 19L34 18L35 18L35 14L36 14L36 13L34 13L34 14L33 14L33 15L32 15L32 16L31 16L31 15L30 15L30 14L29 14L29 12L27 12L27 11L26 11L26 12L25 12L25 9L24 9L24 8L25 8L25 7L24 7L24 8L23 8L23 7L22 7L22 6ZM30 6L30 7L31 7L31 6ZM34 6L34 7L35 7L35 6ZM38 6L38 7L39 7L39 6ZM55 6L55 7L56 7L56 6ZM1 9L1 12L4 12L4 14L3 14L3 13L1 13L1 14L2 14L2 15L1 15L1 16L2 16L2 18L3 18L3 19L5 19L5 18L7 18L7 17L8 17L8 18L9 18L9 17L8 17L8 15L6 15L6 14L5 14L5 10L4 10L4 9ZM23 9L23 10L24 10L24 9ZM37 11L37 12L38 12L38 11ZM40 11L40 12L41 12L41 11ZM55 11L55 12L56 12L56 11ZM22 12L22 13L23 13L23 12ZM51 13L51 14L52 14L52 13ZM4 14L4 15L2 15L2 16L3 16L3 17L4 17L4 18L5 18L5 16L6 16L6 17L7 17L7 16L6 16L6 15L5 15L5 14ZM13 15L13 16L14 16L14 15ZM27 15L27 16L29 16L29 17L30 17L30 18L33 18L33 16L34 16L34 15L33 15L33 16L32 16L32 17L31 17L31 16L30 16L30 15ZM17 17L17 18L18 18L18 17ZM27 17L27 18L26 18L26 20L28 20L28 19L27 19L27 18L28 18L28 17ZM63 17L63 18L62 18L62 19L63 19L63 20L64 20L64 19L63 19L63 18L65 18L65 17ZM19 18L19 19L20 19L20 18ZM44 18L44 19L45 19L45 18ZM51 18L51 20L54 20L54 19L52 19L52 18ZM6 19L6 20L7 20L7 21L6 21L6 22L7 22L7 21L8 21L8 20L7 20L7 19ZM29 19L29 20L30 20L30 21L29 21L29 22L28 22L28 24L30 24L30 25L29 25L29 27L30 27L30 28L28 28L28 29L31 29L31 30L33 30L33 27L31 27L31 24L32 24L32 23L33 23L33 22L30 22L30 21L34 21L34 20L32 20L32 19ZM59 19L59 20L60 20L60 19ZM61 20L61 21L59 21L59 24L60 24L60 25L59 25L59 26L61 26L61 25L62 25L62 20ZM65 20L65 22L64 22L64 21L63 21L63 24L65 24L65 25L63 25L63 26L65 26L65 25L67 25L67 23L65 23L65 22L67 22L67 21L66 21L66 20ZM21 21L21 22L22 22L22 21ZM29 22L29 23L30 23L30 22ZM34 22L34 23L36 23L36 24L37 24L37 22ZM56 22L56 23L57 23L57 22ZM60 22L60 23L61 23L61 22ZM8 23L8 24L9 24L9 23ZM13 23L13 24L14 24L14 23ZM26 23L26 24L27 24L27 23ZM38 23L38 25L39 25L39 23ZM6 24L6 25L7 25L7 26L6 26L6 27L4 27L4 28L6 28L6 29L7 29L7 30L8 30L8 29L7 29L7 28L6 28L6 27L8 27L8 28L9 28L9 25L7 25L7 24ZM16 24L16 25L15 25L15 26L16 26L16 25L17 25L17 24ZM0 25L0 26L1 26L1 25ZM26 25L26 26L27 26L27 25ZM17 26L17 27L19 27L19 26ZM53 26L53 27L54 27L54 26ZM56 26L56 27L57 27L57 26ZM21 27L21 28L22 28L22 27ZM50 27L50 28L51 28L51 27ZM63 27L63 28L64 28L64 27ZM31 28L31 29L32 29L32 28ZM38 28L38 29L40 29L40 28ZM65 28L65 29L66 29L66 28ZM18 29L18 30L17 30L17 31L18 31L18 30L19 30L19 29ZM48 29L48 30L49 30L49 29ZM0 30L0 31L1 31L1 30ZM12 30L12 32L14 32L14 33L15 33L15 31L13 31L13 30ZM29 30L29 31L30 31L30 30ZM38 30L38 32L43 32L43 33L44 33L44 36L45 36L45 33L44 33L44 32L43 32L43 31L40 31L40 30ZM17 32L17 33L18 33L18 32ZM56 32L56 33L57 33L57 32ZM5 33L5 36L8 36L8 33ZM9 33L9 34L10 34L10 33ZM31 33L31 34L32 34L32 33ZM33 33L33 36L36 36L36 33ZM61 33L61 36L64 36L64 33ZM66 33L66 34L67 34L67 33ZM6 34L6 35L7 35L7 34ZM29 34L29 36L28 36L28 35L27 35L27 36L26 36L26 37L25 37L25 39L24 39L24 40L25 40L25 39L26 39L26 38L28 38L28 39L29 39L29 38L30 38L30 37L29 37L29 36L31 36L31 35L30 35L30 34ZM34 34L34 35L35 35L35 34ZM62 34L62 35L63 35L63 34ZM0 35L0 36L1 36L1 35ZM9 35L9 36L10 36L10 35ZM13 35L13 36L14 36L14 35ZM27 36L27 37L28 37L28 36ZM0 37L0 38L1 38L1 37ZM13 37L13 38L14 38L14 37ZM20 37L20 39L19 39L19 40L20 40L20 39L21 39L21 37ZM32 37L32 38L33 38L33 37ZM15 38L15 39L16 39L16 38ZM40 38L40 39L41 39L41 40L44 40L44 42L43 42L43 43L44 43L44 45L43 45L43 46L42 46L42 45L41 45L41 46L42 46L42 48L43 48L43 46L44 46L44 49L43 49L43 50L44 50L44 49L45 49L45 52L44 52L44 51L43 51L43 52L44 52L44 53L43 53L43 54L42 54L42 55L43 55L43 56L42 56L42 57L43 57L43 59L44 59L44 61L45 61L45 58L46 58L46 59L47 59L47 57L46 57L46 56L47 56L47 54L48 54L48 55L52 55L52 54L53 54L53 53L55 53L55 52L53 52L53 51L52 51L52 49L53 49L53 48L55 48L55 46L56 46L56 45L57 45L57 44L56 44L56 43L53 43L53 44L56 44L56 45L55 45L55 46L53 46L53 47L52 47L52 48L51 48L51 47L50 47L50 48L49 48L49 46L47 46L47 43L46 43L46 42L47 42L47 40L48 40L48 39L49 39L49 38L48 38L48 39L47 39L47 40L45 40L45 39L42 39L42 38ZM61 38L61 39L62 39L62 38ZM0 39L0 40L1 40L1 39ZM53 39L53 40L52 40L52 42L53 42L53 40L54 40L54 41L55 41L55 42L56 42L56 41L55 41L55 40L54 40L54 39ZM11 40L11 41L12 41L12 42L13 42L13 41L12 41L12 40ZM61 40L61 41L60 41L60 42L59 42L59 43L61 43L61 44L63 44L63 43L64 43L64 42L63 42L63 43L61 43L61 41L62 41L62 40ZM15 41L15 42L16 42L16 41ZM6 42L6 43L7 43L7 42ZM19 42L19 44L17 44L17 45L21 45L21 46L20 46L20 47L19 47L19 48L20 48L20 47L21 47L21 48L23 48L23 46L22 46L22 45L21 45L21 44L24 44L24 43L22 43L22 42ZM37 42L37 43L38 43L38 44L39 44L39 45L37 45L37 46L39 46L39 47L40 47L40 46L39 46L39 45L40 45L40 44L41 44L41 43L40 43L40 44L39 44L39 43L38 43L38 42ZM44 42L44 43L45 43L45 42ZM20 43L20 44L21 44L21 43ZM48 43L48 44L49 44L49 43ZM45 44L45 45L44 45L44 46L45 46L45 45L46 45L46 44ZM2 45L2 47L3 47L3 45ZM6 45L6 46L7 46L7 45ZM14 45L14 47L15 47L15 45ZM61 45L61 50L63 50L63 51L60 51L60 49L59 49L59 48L58 48L58 49L59 49L59 50L58 50L58 51L57 51L57 52L58 52L58 51L59 51L59 52L60 52L60 54L61 54L61 53L62 53L62 54L63 54L63 53L64 53L64 51L65 51L65 50L66 50L66 49L65 49L65 48L64 48L64 49L62 49L62 45ZM10 46L10 47L11 47L11 50L12 50L12 51L11 51L11 52L10 52L10 53L9 53L9 54L6 54L6 55L7 55L7 56L5 56L5 55L4 55L4 56L5 56L5 57L7 57L7 56L9 56L9 57L11 57L11 56L9 56L9 54L10 54L10 55L12 55L12 53L11 53L11 52L12 52L12 51L13 51L13 52L14 52L14 53L15 53L15 52L14 52L14 51L13 51L13 50L16 50L16 49L18 49L18 50L20 50L20 51L19 51L19 52L18 52L18 53L17 53L17 54L18 54L18 53L19 53L19 54L20 54L20 55L21 55L21 54L20 54L20 52L22 52L22 51L21 51L21 50L22 50L22 49L18 49L18 48L17 48L17 47L18 47L18 46L16 46L16 49L14 49L14 48L13 48L13 46L12 46L12 47L11 47L11 46ZM27 46L27 47L28 47L28 46ZM63 46L63 47L65 47L65 46ZM45 47L45 49L46 49L46 47ZM47 47L47 49L49 49L49 51L48 51L48 50L47 50L47 51L46 51L46 52L45 52L45 53L44 53L44 56L43 56L43 57L44 57L44 56L46 56L46 54L45 54L45 53L48 53L48 54L50 54L50 53L51 53L51 50L50 50L50 49L49 49L49 48L48 48L48 47ZM12 49L12 50L13 50L13 49ZM27 49L27 50L28 50L28 49ZM64 49L64 50L65 50L65 49ZM33 50L33 51L34 51L34 50ZM41 50L41 52L42 52L42 50ZM47 51L47 52L48 52L48 51ZM49 51L49 53L50 53L50 51ZM37 52L37 53L38 53L38 52ZM57 54L57 55L58 55L58 56L57 56L57 57L59 57L59 56L60 56L60 55L58 55L58 54ZM17 55L17 57L19 57L19 58L20 58L20 59L21 59L21 58L22 58L22 57L21 57L21 58L20 58L20 56L19 56L19 55ZM15 56L15 57L16 57L16 56ZM39 56L39 57L38 57L38 58L39 58L39 57L41 57L41 56ZM49 56L49 57L48 57L48 58L49 58L49 57L50 57L50 56ZM12 58L12 59L13 59L13 58ZM52 58L52 59L53 59L53 58ZM56 58L56 59L57 59L57 61L59 61L59 60L60 60L60 59L57 59L57 58ZM9 59L9 60L10 60L10 59ZM3 60L3 61L5 61L5 60ZM14 60L14 62L15 62L15 61L16 61L16 60ZM23 60L23 61L21 61L21 62L23 62L23 61L24 61L24 60ZM25 60L25 61L26 61L26 60ZM27 60L27 61L28 61L28 60ZM42 60L42 61L43 61L43 60ZM55 60L55 61L56 61L56 60ZM65 60L65 61L66 61L66 60ZM19 61L19 62L20 62L20 61ZM33 61L33 64L36 64L36 61ZM61 61L61 64L64 64L64 61ZM34 62L34 63L35 63L35 62ZM62 62L62 63L63 63L63 62ZM65 62L65 63L66 63L66 62ZM11 63L11 64L12 64L12 63ZM24 63L24 64L26 64L26 63ZM44 63L44 64L41 64L41 66L44 66L44 64L45 64L45 66L46 66L46 64L45 64L45 63ZM15 64L15 67L16 67L16 68L17 68L17 67L18 67L18 66L17 66L17 65L18 65L18 64ZM57 64L57 65L58 65L58 64ZM31 65L31 66L32 66L32 65ZM48 65L48 66L49 66L49 65ZM54 65L54 66L56 66L56 65ZM62 65L62 66L61 66L61 68L63 68L63 67L62 67L62 66L63 66L63 65ZM66 65L66 66L67 66L67 65ZM16 66L16 67L17 67L17 66ZM29 67L29 68L30 68L30 67ZM47 67L47 68L48 68L48 67ZM33 68L33 69L34 69L34 68ZM0 0L0 7L7 7L7 0ZM1 1L1 6L6 6L6 1ZM2 2L2 5L5 5L5 2ZM62 0L62 7L69 7L69 0ZM63 1L63 6L68 6L68 1ZM64 2L64 5L67 5L67 2ZM0 62L0 69L7 69L7 62ZM1 63L1 68L6 68L6 63ZM2 64L2 67L5 67L5 64Z" fill="#000000"/></g></g></svg>
