<?xml version="1.0" encoding="UTF-8"?>
<svg xmlns="http://www.w3.org/2000/svg" version="1.1" width="300" height="300" viewBox="0 0 300 300"><rect x="0" y="0" width="300" height="300" fill="#ffffff"/><g transform="scale(4.615)"><g transform="translate(0,0)"><path fill-rule="evenodd" d="M8 0L8 2L10 2L10 3L9 3L9 4L8 4L8 9L7 9L7 8L5 8L5 9L3 9L3 8L0 8L0 10L2 10L2 9L3 9L3 11L2 11L2 12L1 12L1 11L0 11L0 12L1 12L1 13L4 13L4 12L3 12L3 11L4 11L4 10L5 10L5 13L8 13L8 14L6 14L6 15L5 15L5 16L6 16L6 17L8 17L8 18L6 18L6 19L5 19L5 18L4 18L4 16L2 16L2 15L0 15L0 17L1 17L1 19L2 19L2 20L1 20L1 21L0 21L0 22L1 22L1 24L2 24L2 25L3 25L3 26L2 26L2 27L1 27L1 25L0 25L0 30L3 30L3 32L4 32L4 34L2 34L2 33L0 33L0 35L2 35L2 37L1 37L1 36L0 36L0 38L1 38L1 39L2 39L2 40L3 40L3 41L1 41L1 42L0 42L0 44L1 44L1 43L2 43L2 42L3 42L3 41L7 41L7 42L5 42L5 44L4 44L4 43L3 43L3 45L4 45L4 46L3 46L3 47L2 47L2 45L1 45L1 47L0 47L0 51L1 51L1 49L3 49L3 48L4 48L4 49L5 49L5 50L2 50L2 51L4 51L4 53L3 53L3 52L2 52L2 53L3 53L3 54L2 54L2 55L3 55L3 56L1 56L1 55L0 55L0 56L1 56L1 57L3 57L3 56L4 56L4 57L5 57L5 56L4 56L4 54L5 54L5 55L7 55L7 56L6 56L6 57L8 57L8 58L10 58L10 57L9 57L9 56L13 56L13 60L11 60L11 59L12 59L12 58L11 58L11 59L10 59L10 60L9 60L9 59L8 59L8 60L9 60L9 61L10 61L10 62L8 62L8 65L9 65L9 64L11 64L11 63L10 63L10 62L12 62L12 61L13 61L13 65L15 65L15 62L14 62L14 61L15 61L15 59L14 59L14 58L16 58L16 56L13 56L13 53L12 53L12 52L13 52L13 51L15 51L15 50L16 50L16 53L15 53L15 52L14 52L14 54L16 54L16 53L17 53L17 50L18 50L18 49L19 49L19 51L18 51L18 52L19 52L19 51L20 51L20 53L19 53L19 54L17 54L17 58L20 58L20 57L21 57L21 56L20 56L20 55L19 55L19 54L20 54L20 53L21 53L21 50L22 50L22 49L23 49L23 50L24 50L24 49L25 49L25 50L26 50L26 49L27 49L27 50L28 50L28 52L27 52L27 51L26 51L26 52L27 52L27 54L24 54L24 53L25 53L25 51L24 51L24 53L23 53L23 54L22 54L22 55L23 55L23 54L24 54L24 57L23 57L23 56L22 56L22 57L23 57L23 59L22 59L22 58L21 58L21 60L20 60L20 61L21 61L21 62L20 62L20 63L22 63L22 65L24 65L24 64L23 64L23 60L24 60L24 61L25 61L25 62L24 62L24 63L26 63L26 65L28 65L28 63L29 63L29 62L32 62L32 63L33 63L33 64L32 64L32 65L34 65L34 63L35 63L35 64L36 64L36 65L37 65L37 63L36 63L36 62L35 62L35 60L36 60L36 61L37 61L37 62L38 62L38 65L39 65L39 63L41 63L41 64L40 64L40 65L43 65L43 64L42 64L42 63L43 63L43 62L42 62L42 61L43 61L43 60L44 60L44 61L45 61L45 64L44 64L44 65L47 65L47 64L46 64L46 61L49 61L49 62L47 62L47 63L49 63L49 64L48 64L48 65L49 65L49 64L50 64L50 61L49 61L49 60L50 60L50 59L52 59L52 58L50 58L50 57L49 57L49 56L52 56L52 57L53 57L53 58L54 58L54 59L55 59L55 61L56 61L56 64L55 64L55 65L56 65L56 64L58 64L58 65L59 65L59 64L58 64L58 63L59 63L59 61L60 61L60 63L61 63L61 64L60 64L60 65L62 65L62 62L63 62L63 63L65 63L65 62L63 62L63 60L62 60L62 58L63 58L63 57L65 57L65 56L62 56L62 51L63 51L63 50L61 50L61 51L60 51L60 49L64 49L64 52L65 52L65 48L64 48L64 47L65 47L65 46L64 46L64 45L62 45L62 43L63 43L63 42L64 42L64 44L65 44L65 37L64 37L64 36L63 36L63 37L64 37L64 40L63 40L63 41L62 41L62 42L60 42L60 41L61 41L61 40L62 40L62 37L61 37L61 38L60 38L60 37L59 37L59 36L60 36L60 35L61 35L61 36L62 36L62 34L64 34L64 35L65 35L65 34L64 34L64 33L65 33L65 28L64 28L64 27L65 27L65 26L64 26L64 27L63 27L63 26L62 26L62 25L64 25L64 23L65 23L65 22L64 22L64 23L63 23L63 21L64 21L64 20L65 20L65 18L64 18L64 20L62 20L62 19L63 19L63 16L64 16L64 17L65 17L65 16L64 16L64 15L65 15L65 13L63 13L63 12L64 12L64 11L65 11L65 10L64 10L64 9L65 9L65 8L63 8L63 9L61 9L61 8L56 8L56 7L57 7L57 6L56 6L56 7L55 7L55 5L54 5L54 7L53 7L53 5L51 5L51 4L52 4L52 3L53 3L53 4L56 4L56 5L57 5L57 4L56 4L56 3L57 3L57 1L56 1L56 0L55 0L55 1L56 1L56 3L55 3L55 2L52 2L52 1L51 1L51 0L50 0L50 1L49 1L49 0L48 0L48 1L47 1L47 0L46 0L46 1L45 1L45 2L44 2L44 1L43 1L43 0L42 0L42 1L41 1L41 2L39 2L39 3L38 3L38 5L35 5L35 4L36 4L36 1L35 1L35 0L34 0L34 1L35 1L35 3L34 3L34 2L32 2L32 1L33 1L33 0L32 0L32 1L31 1L31 0L30 0L30 1L29 1L29 0L27 0L27 2L26 2L26 3L27 3L27 4L26 4L26 5L27 5L27 4L28 4L28 5L29 5L29 6L28 6L28 7L27 7L27 6L26 6L26 7L27 7L27 8L26 8L26 9L25 9L25 6L24 6L24 5L25 5L25 3L24 3L24 1L25 1L25 0L24 0L24 1L23 1L23 2L22 2L22 3L23 3L23 4L22 4L22 10L21 10L21 12L20 12L20 9L21 9L21 6L20 6L20 5L21 5L21 3L20 3L20 2L21 2L21 0L19 0L19 2L18 2L18 3L19 3L19 4L18 4L18 5L17 5L17 0L15 0L15 1L16 1L16 2L15 2L15 3L16 3L16 7L15 7L15 5L14 5L14 2L11 2L11 1L14 1L14 0L11 0L11 1L10 1L10 0ZM38 0L38 1L37 1L37 2L38 2L38 1L40 1L40 0ZM53 0L53 1L54 1L54 0ZM30 1L30 3L31 3L31 1ZM42 1L42 2L43 2L43 1ZM46 1L46 2L45 2L45 3L44 3L44 4L43 4L43 5L44 5L44 6L43 6L43 7L42 7L42 3L40 3L40 4L41 4L41 7L42 7L42 10L41 10L41 9L38 9L38 10L37 10L37 13L36 13L36 11L35 11L35 9L34 9L34 11L33 11L33 9L32 9L32 11L31 11L31 10L30 10L30 6L29 6L29 7L28 7L28 8L27 8L27 9L26 9L26 10L25 10L25 9L24 9L24 10L25 10L25 11L23 11L23 12L25 12L25 14L24 14L24 15L25 15L25 17L24 17L24 18L23 18L23 17L22 17L22 15L23 15L23 13L22 13L22 12L21 12L21 14L20 14L20 15L21 15L21 16L20 16L20 18L21 18L21 19L20 19L20 20L18 20L18 19L19 19L19 17L18 17L18 16L19 16L19 15L18 15L18 16L17 16L17 14L16 14L16 13L15 13L15 14L14 14L14 15L16 15L16 16L17 16L17 17L16 17L16 18L15 18L15 16L13 16L13 14L12 14L12 13L13 13L13 12L10 12L10 14L12 14L12 16L13 16L13 17L14 17L14 18L12 18L12 19L11 19L11 20L10 20L10 21L11 21L11 20L12 20L12 22L13 22L13 25L10 25L10 27L9 27L9 25L6 25L6 24L7 24L7 23L8 23L8 24L9 24L9 23L10 23L10 22L9 22L9 23L8 23L8 22L7 22L7 21L9 21L9 20L8 20L8 19L10 19L10 18L11 18L11 17L10 17L10 16L9 16L9 14L8 14L8 15L6 15L6 16L9 16L9 18L8 18L8 19L6 19L6 20L3 20L3 21L2 21L2 22L3 22L3 23L2 23L2 24L3 24L3 23L4 23L4 27L2 27L2 29L4 29L4 27L5 27L5 28L7 28L7 29L5 29L5 30L9 30L9 33L11 33L11 32L10 32L10 30L11 30L11 31L12 31L12 30L13 30L13 31L14 31L14 32L15 32L15 33L16 33L16 34L15 34L15 35L14 35L14 33L13 33L13 32L12 32L12 36L11 36L11 37L10 37L10 38L9 38L9 36L8 36L8 35L6 35L6 36L7 36L7 37L2 37L2 39L3 39L3 40L7 40L7 39L8 39L8 38L9 38L9 41L8 41L8 43L6 43L6 44L5 44L5 47L4 47L4 48L8 48L8 49L6 49L6 50L5 50L5 51L6 51L6 52L7 52L7 53L5 53L5 54L7 54L7 53L8 53L8 54L9 54L9 55L11 55L11 53L8 53L8 52L9 52L9 50L10 50L10 48L11 48L11 51L10 51L10 52L12 52L12 49L16 49L16 50L17 50L17 49L18 49L18 47L19 47L19 45L18 45L18 43L16 43L16 42L18 42L18 40L21 40L21 41L20 41L20 42L19 42L19 43L20 43L20 44L21 44L21 46L20 46L20 47L21 47L21 49L20 49L20 50L21 50L21 49L22 49L22 48L23 48L23 49L24 49L24 48L23 48L23 47L22 47L22 44L21 44L21 43L20 43L20 42L21 42L21 41L22 41L22 40L21 40L21 36L20 36L20 38L19 38L19 37L18 37L18 39L17 39L17 36L16 36L16 34L18 34L18 31L19 31L19 32L21 32L21 33L20 33L20 34L19 34L19 35L18 35L18 36L19 36L19 35L21 35L21 33L22 33L22 34L23 34L23 33L22 33L22 32L24 32L24 35L22 35L22 36L23 36L23 37L22 37L22 38L23 38L23 37L24 37L24 39L23 39L23 41L24 41L24 42L23 42L23 44L25 44L25 46L24 46L24 47L26 47L26 46L27 46L27 48L31 48L31 49L28 49L28 50L29 50L29 52L30 52L30 53L28 53L28 54L27 54L27 57L26 57L26 55L25 55L25 57L24 57L24 58L25 58L25 59L24 59L24 60L25 60L25 61L26 61L26 60L27 60L27 62L26 62L26 63L28 63L28 62L29 62L29 60L30 60L30 58L29 58L29 57L30 57L30 56L31 56L31 51L34 51L34 52L35 52L35 53L36 53L36 52L38 52L38 54L39 54L39 56L38 56L38 55L36 55L36 54L35 54L35 55L34 55L34 53L33 53L33 52L32 52L32 56L35 56L35 57L36 57L36 56L37 56L37 59L36 59L36 60L37 60L37 61L38 61L38 62L39 62L39 61L40 61L40 60L41 60L41 57L42 57L42 60L43 60L43 59L44 59L44 60L45 60L45 61L46 61L46 59L48 59L48 58L49 58L49 57L48 57L48 58L47 58L47 56L46 56L46 59L45 59L45 57L44 57L44 56L45 56L45 54L44 54L44 52L45 52L45 53L46 53L46 55L52 55L52 56L54 56L54 58L56 58L56 57L55 57L55 56L54 56L54 55L56 55L56 53L54 53L54 52L55 52L55 51L54 51L54 50L55 50L55 48L54 48L54 47L58 47L58 48L57 48L57 53L58 53L58 49L59 49L59 48L60 48L60 47L61 47L61 45L60 45L60 42L59 42L59 43L58 43L58 40L60 40L60 39L58 39L58 38L59 38L59 37L58 37L58 35L57 35L57 36L56 36L56 35L55 35L55 36L54 36L54 34L56 34L56 33L55 33L55 31L53 31L53 30L52 30L52 28L54 28L54 30L55 30L55 25L56 25L56 27L57 27L57 28L56 28L56 30L57 30L57 29L58 29L58 30L59 30L59 29L60 29L60 30L61 30L61 29L62 29L62 33L61 33L61 34L62 34L62 33L64 33L64 28L63 28L63 27L62 27L62 26L61 26L61 25L62 25L62 24L63 24L63 23L62 23L62 24L61 24L61 25L60 25L60 26L61 26L61 27L62 27L62 28L61 28L61 29L60 29L60 28L59 28L59 29L58 29L58 27L59 27L59 24L58 24L58 22L59 22L59 21L58 21L58 22L57 22L57 21L56 21L56 20L55 20L55 19L57 19L57 17L58 17L58 19L59 19L59 18L61 18L61 19L62 19L62 17L60 17L60 16L59 16L59 15L56 15L56 14L57 14L57 11L58 11L58 14L61 14L61 13L60 13L60 12L61 12L61 11L58 11L58 10L59 10L59 9L58 9L58 10L57 10L57 9L56 9L56 8L55 8L55 7L54 7L54 8L53 8L53 9L52 9L52 6L51 6L51 8L50 8L50 6L49 6L49 7L48 7L48 5L50 5L50 4L51 4L51 3L52 3L52 2L51 2L51 1L50 1L50 2L49 2L49 3L48 3L48 2L47 2L47 1ZM28 2L28 4L29 4L29 2ZM46 2L46 3L45 3L45 4L44 4L44 5L45 5L45 4L46 4L46 5L48 5L48 3L47 3L47 2ZM50 2L50 3L49 3L49 4L50 4L50 3L51 3L51 2ZM10 3L10 4L9 4L9 5L10 5L10 4L11 4L11 5L12 5L12 6L11 6L11 7L10 7L10 6L9 6L9 7L10 7L10 8L9 8L9 10L7 10L7 9L5 9L5 10L7 10L7 11L6 11L6 12L9 12L9 10L10 10L10 11L12 11L12 8L13 8L13 9L16 9L16 10L15 10L15 11L14 11L14 10L13 10L13 11L14 11L14 12L15 12L15 11L16 11L16 12L17 12L17 13L18 13L18 14L19 14L19 13L18 13L18 12L17 12L17 11L18 11L18 10L19 10L19 9L18 9L18 8L20 8L20 6L19 6L19 7L18 7L18 6L17 6L17 7L16 7L16 8L14 8L14 6L13 6L13 3ZM32 3L32 4L34 4L34 3ZM46 3L46 4L47 4L47 3ZM19 4L19 5L20 5L20 4ZM31 5L31 8L34 8L34 5ZM38 5L38 6L37 6L37 8L39 8L39 7L40 7L40 6L39 6L39 5ZM12 6L12 7L13 7L13 6ZM23 6L23 7L24 7L24 6ZM32 6L32 7L33 7L33 6ZM35 6L35 7L36 7L36 6ZM38 6L38 7L39 7L39 6ZM44 6L44 7L43 7L43 8L44 8L44 9L43 9L43 10L42 10L42 11L41 11L41 10L40 10L40 13L39 13L39 14L38 14L38 13L37 13L37 16L36 16L36 17L37 17L37 18L36 18L36 19L37 19L37 18L38 18L38 17L39 17L39 18L40 18L40 17L41 17L41 19L42 19L42 16L43 16L43 15L45 15L45 16L44 16L44 17L43 17L43 18L45 18L45 19L44 19L44 21L45 21L45 22L44 22L44 23L43 23L43 24L42 24L42 23L40 23L40 21L41 21L41 20L40 20L40 21L39 21L39 23L40 23L40 25L39 25L39 24L36 24L36 21L37 21L37 23L38 23L38 20L39 20L39 19L38 19L38 20L36 20L36 21L35 21L35 23L34 23L34 19L35 19L35 18L34 18L34 17L35 17L35 15L36 15L36 13L35 13L35 14L34 14L34 13L33 13L33 11L32 11L32 14L33 14L33 15L32 15L32 18L30 18L30 15L31 15L31 12L30 12L30 10L28 10L28 11L29 11L29 12L27 12L27 10L26 10L26 15L27 15L27 16L26 16L26 17L25 17L25 18L24 18L24 19L22 19L22 20L23 20L23 22L22 22L22 23L20 23L20 25L19 25L19 24L18 24L18 25L19 25L19 26L17 26L17 28L16 28L16 27L13 27L13 28L12 28L12 26L11 26L11 27L10 27L10 28L9 28L9 27L8 27L8 26L5 26L5 27L8 27L8 28L9 28L9 29L11 29L11 30L12 30L12 29L15 29L15 28L16 28L16 29L17 29L17 30L16 30L16 31L18 31L18 30L19 30L19 28L20 28L20 29L21 29L21 30L20 30L20 31L21 31L21 32L22 32L22 30L23 30L23 28L20 28L20 27L19 27L19 26L20 26L20 25L21 25L21 26L22 26L22 25L23 25L23 27L24 27L24 29L25 29L25 28L26 28L26 29L29 29L29 30L27 30L27 32L26 32L26 30L24 30L24 31L25 31L25 32L26 32L26 33L25 33L25 35L24 35L24 37L25 37L25 40L24 40L24 41L25 41L25 42L24 42L24 43L26 43L26 41L27 41L27 42L28 42L28 43L29 43L29 44L26 44L26 45L27 45L27 46L28 46L28 45L30 45L30 46L29 46L29 47L30 47L30 46L31 46L31 47L32 47L32 49L31 49L31 50L30 50L30 51L31 51L31 50L32 50L32 49L33 49L33 48L34 48L34 51L35 51L35 50L36 50L36 51L38 51L38 49L39 49L39 47L40 47L40 51L39 51L39 54L40 54L40 57L41 57L41 56L42 56L42 57L43 57L43 56L44 56L44 55L43 55L43 54L42 54L42 53L43 53L43 52L44 52L44 49L45 49L45 51L47 51L47 50L46 50L46 48L47 48L47 47L48 47L48 50L49 50L49 51L48 51L48 53L51 53L51 54L52 54L52 55L54 55L54 53L53 53L53 52L54 52L54 51L51 51L51 50L52 50L52 49L53 49L53 50L54 50L54 48L53 48L53 47L54 47L54 45L56 45L56 46L58 46L58 47L60 47L60 45L59 45L59 46L58 46L58 45L56 45L56 44L58 44L58 43L57 43L57 41L56 41L56 40L57 40L57 37L56 37L56 36L55 36L55 37L56 37L56 39L55 39L55 42L54 42L54 40L52 40L52 42L50 42L50 41L51 41L51 39L52 39L52 38L51 38L51 39L50 39L50 36L52 36L52 37L53 37L53 39L54 39L54 37L53 37L53 35L52 35L52 33L53 33L53 34L54 34L54 32L52 32L52 31L50 31L50 32L48 32L48 34L46 34L46 32L47 32L47 31L48 31L48 29L49 29L49 28L48 28L48 29L47 29L47 28L46 28L46 27L45 27L45 28L44 28L44 27L42 27L42 28L40 28L40 29L39 29L39 31L38 31L38 32L37 32L37 31L36 31L36 33L35 33L35 30L33 30L33 29L34 29L34 28L35 28L35 27L38 27L38 28L36 28L36 29L37 29L37 30L38 30L38 28L39 28L39 27L38 27L38 25L39 25L39 26L40 26L40 27L41 27L41 26L40 26L40 25L41 25L41 24L42 24L42 25L43 25L43 26L46 26L46 23L45 23L45 22L46 22L46 21L47 21L47 20L48 20L48 21L49 21L49 22L48 22L48 23L47 23L47 24L48 24L48 25L47 25L47 27L49 27L49 26L50 26L50 24L52 24L52 26L54 26L54 25L55 25L55 22L56 22L56 21L55 21L55 20L54 20L54 19L53 19L53 20L52 20L52 23L50 23L50 21L51 21L51 19L52 19L52 17L53 17L53 16L52 16L52 15L54 15L54 17L55 17L55 18L56 18L56 17L57 17L57 16L55 16L55 14L54 14L54 13L55 13L55 12L56 12L56 11L55 11L55 12L54 12L54 13L53 13L53 12L52 12L52 11L53 11L53 10L52 10L52 11L51 11L51 10L50 10L50 9L49 9L49 8L48 8L48 7L47 7L47 6L46 6L46 7L45 7L45 6ZM17 7L17 8L16 8L16 9L17 9L17 10L16 10L16 11L17 11L17 10L18 10L18 9L17 9L17 8L18 8L18 7ZM44 7L44 8L45 8L45 9L44 9L44 11L46 11L46 12L45 12L45 13L44 13L44 14L45 14L45 13L46 13L46 19L45 19L45 21L46 21L46 19L48 19L48 20L50 20L50 19L51 19L51 17L52 17L52 16L51 16L51 15L50 15L50 14L51 14L51 13L52 13L52 12L51 12L51 11L50 11L50 10L49 10L49 11L48 11L48 8L47 8L47 7L46 7L46 8L45 8L45 7ZM10 8L10 10L11 10L11 8ZM54 8L54 9L55 9L55 10L56 10L56 9L55 9L55 8ZM45 9L45 10L46 10L46 11L47 11L47 12L46 12L46 13L47 13L47 14L48 14L48 13L49 13L49 14L50 14L50 13L49 13L49 12L50 12L50 11L49 11L49 12L48 12L48 11L47 11L47 10L46 10L46 9ZM60 9L60 10L61 10L61 9ZM62 10L62 12L63 12L63 11L64 11L64 10ZM42 11L42 15L41 15L41 13L40 13L40 15L41 15L41 16L42 16L42 15L43 15L43 11ZM47 12L47 13L48 13L48 12ZM29 13L29 14L28 14L28 15L30 15L30 13ZM62 13L62 14L63 14L63 15L62 15L62 16L63 16L63 15L64 15L64 14L63 14L63 13ZM3 14L3 15L4 15L4 14ZM21 14L21 15L22 15L22 14ZM33 15L33 17L34 17L34 15ZM38 15L38 16L37 16L37 17L38 17L38 16L39 16L39 15ZM48 15L48 18L49 18L49 19L50 19L50 16L49 16L49 15ZM1 16L1 17L2 17L2 16ZM28 16L28 19L27 19L27 17L26 17L26 18L25 18L25 21L24 21L24 22L25 22L25 24L24 24L24 23L22 23L22 24L21 24L21 25L22 25L22 24L23 24L23 25L24 25L24 26L26 26L26 22L27 22L27 27L28 27L28 28L29 28L29 27L30 27L30 29L32 29L32 28L33 28L33 26L31 26L31 27L30 27L30 26L29 26L29 25L32 25L32 23L33 23L33 21L32 21L32 22L31 22L31 19L30 19L30 18L29 18L29 16ZM58 16L58 17L59 17L59 16ZM17 17L17 18L16 18L16 20L15 20L15 18L14 18L14 19L12 19L12 20L13 20L13 21L14 21L14 22L15 22L15 24L14 24L14 25L13 25L13 26L16 26L16 25L17 25L17 23L16 23L16 22L17 22L17 18L18 18L18 17ZM21 17L21 18L22 18L22 17ZM26 19L26 20L27 20L27 19ZM28 19L28 20L29 20L29 21L30 21L30 19ZM6 20L6 21L3 21L3 22L5 22L5 23L7 23L7 22L6 22L6 21L7 21L7 20ZM27 21L27 22L28 22L28 21ZM54 21L54 22L55 22L55 21ZM60 21L60 23L61 23L61 22L62 22L62 21ZM18 22L18 23L19 23L19 22ZM11 23L11 24L12 24L12 23ZM44 23L44 24L43 24L43 25L44 25L44 24L45 24L45 23ZM48 23L48 24L50 24L50 23ZM52 23L52 24L54 24L54 23ZM33 24L33 25L34 25L34 27L35 27L35 26L36 26L36 24ZM56 24L56 25L57 25L57 27L58 27L58 24ZM48 25L48 26L49 26L49 25ZM28 26L28 27L29 27L29 26ZM51 27L51 28L50 28L50 29L51 29L51 28L52 28L52 27ZM43 28L43 29L42 29L42 30L43 30L43 29L44 29L44 30L45 30L45 31L43 31L43 33L42 33L42 34L44 34L44 35L45 35L45 34L44 34L44 32L46 32L46 30L47 30L47 29L46 29L46 30L45 30L45 29L44 29L44 28ZM14 30L14 31L15 31L15 30ZM29 30L29 31L28 31L28 32L27 32L27 33L26 33L26 34L27 34L27 33L28 33L28 35L30 35L30 33L29 33L29 32L30 32L30 30ZM0 31L0 32L1 32L1 31ZM5 31L5 34L8 34L8 31ZM31 31L31 34L34 34L34 31ZM39 31L39 32L38 32L38 34L40 34L40 35L39 35L39 37L38 37L38 39L37 39L37 37L36 37L36 35L37 35L37 36L38 36L38 35L37 35L37 33L36 33L36 35L35 35L35 36L34 36L34 38L35 38L35 40L33 40L33 41L32 41L32 47L34 47L34 48L35 48L35 49L36 49L36 40L38 40L38 39L39 39L39 38L40 38L40 39L42 39L42 40L41 40L41 41L38 41L38 42L40 42L40 43L41 43L41 41L42 41L42 44L43 44L43 42L44 42L44 43L45 43L45 45L46 45L46 46L45 46L45 47L46 47L46 46L47 46L47 45L48 45L48 47L50 47L50 46L51 46L51 47L53 47L53 46L52 46L52 43L50 43L50 44L49 44L49 45L48 45L48 43L45 43L45 42L44 42L44 40L45 40L45 37L44 37L44 39L42 39L42 38L43 38L43 37L42 37L42 35L41 35L41 34L40 34L40 32L42 32L42 31ZM57 31L57 34L60 34L60 31ZM6 32L6 33L7 33L7 32ZM16 32L16 33L17 33L17 32ZM32 32L32 33L33 33L33 32ZM51 32L51 33L50 33L50 34L51 34L51 33L52 33L52 32ZM58 32L58 33L59 33L59 32ZM48 34L48 36L47 36L47 35L46 35L46 42L47 42L47 41L48 41L48 42L49 42L49 41L48 41L48 39L49 39L49 40L50 40L50 39L49 39L49 37L48 37L48 36L50 36L50 35L49 35L49 34ZM3 35L3 36L4 36L4 35ZM26 35L26 36L27 36L27 35ZM32 35L32 36L33 36L33 35ZM40 35L40 37L41 37L41 38L42 38L42 37L41 37L41 35ZM12 36L12 38L15 38L15 39L13 39L13 41L14 41L14 42L16 42L16 41L17 41L17 39L16 39L16 38L15 38L15 37L13 37L13 36ZM26 37L26 39L27 39L27 37ZM28 37L28 39L29 39L29 41L28 41L28 40L27 40L27 41L28 41L28 42L29 42L29 43L30 43L30 45L31 45L31 41L30 41L30 39L31 39L31 38L30 38L30 37ZM32 37L32 38L33 38L33 37ZM35 37L35 38L36 38L36 37ZM3 38L3 39L4 39L4 38ZM5 38L5 39L7 39L7 38ZM10 38L10 39L11 39L11 41L12 41L12 39L11 39L11 38ZM15 39L15 41L16 41L16 39ZM25 40L25 41L26 41L26 40ZM42 40L42 41L43 41L43 40ZM34 41L34 43L35 43L35 41ZM11 42L11 44L12 44L12 45L10 45L10 43L8 43L8 44L6 44L6 45L8 45L8 46L6 46L6 47L8 47L8 48L9 48L9 46L10 46L10 47L11 47L11 48L13 48L13 47L12 47L12 46L14 46L14 48L16 48L16 49L17 49L17 47L18 47L18 46L17 46L17 44L13 44L13 42ZM53 42L53 43L54 43L54 44L56 44L56 42L55 42L55 43L54 43L54 42ZM38 43L38 44L39 44L39 45L38 45L38 46L37 46L37 49L38 49L38 46L39 46L39 45L40 45L40 47L42 47L42 46L43 46L43 47L44 47L44 45L42 45L42 46L41 46L41 45L40 45L40 44L39 44L39 43ZM33 44L33 46L34 46L34 47L35 47L35 46L34 46L34 44ZM46 44L46 45L47 45L47 44ZM50 44L50 45L49 45L49 46L50 46L50 45L51 45L51 44ZM14 45L14 46L15 46L15 45ZM16 46L16 47L17 47L17 46ZM63 46L63 47L62 47L62 48L63 48L63 47L64 47L64 46ZM25 48L25 49L26 49L26 48ZM41 48L41 49L42 49L42 50L43 50L43 49L44 49L44 48L43 48L43 49L42 49L42 48ZM49 48L49 49L50 49L50 50L51 50L51 49L52 49L52 48ZM8 49L8 50L6 50L6 51L8 51L8 50L9 50L9 49ZM22 51L22 52L23 52L23 51ZM41 51L41 52L43 52L43 51ZM50 51L50 52L51 52L51 51ZM59 51L59 53L60 53L60 54L59 54L59 55L60 55L60 54L61 54L61 53L60 53L60 51ZM0 52L0 53L1 53L1 52ZM46 52L46 53L47 53L47 52ZM52 53L52 54L53 54L53 53ZM63 53L63 54L64 54L64 55L65 55L65 54L64 54L64 53ZM29 54L29 56L28 56L28 57L27 57L27 58L26 58L26 59L25 59L25 60L26 60L26 59L27 59L27 60L29 60L29 58L28 58L28 57L29 57L29 56L30 56L30 54ZM41 54L41 55L42 55L42 56L43 56L43 55L42 55L42 54ZM57 54L57 56L58 56L58 54ZM19 56L19 57L20 57L20 56ZM31 57L31 60L34 60L34 57ZM57 57L57 60L60 60L60 57ZM61 57L61 58L62 58L62 57ZM32 58L32 59L33 59L33 58ZM58 58L58 59L59 59L59 58ZM64 58L64 59L65 59L65 58ZM18 59L18 61L19 61L19 59ZM38 59L38 61L39 61L39 59ZM10 60L10 61L11 61L11 60ZM13 60L13 61L14 61L14 60ZM16 60L16 61L17 61L17 60ZM21 60L21 61L22 61L22 60ZM52 60L52 61L53 61L53 64L52 64L52 65L53 65L53 64L54 64L54 63L55 63L55 62L54 62L54 61L53 61L53 60ZM61 60L61 61L62 61L62 60ZM64 60L64 61L65 61L65 60ZM32 61L32 62L33 62L33 63L34 63L34 61ZM57 61L57 62L58 62L58 61ZM16 62L16 63L17 63L17 64L18 64L18 65L20 65L20 64L18 64L18 62ZM41 62L41 63L42 63L42 62ZM30 63L30 65L31 65L31 63ZM64 64L64 65L65 65L65 64ZM0 0L0 7L7 7L7 0ZM1 1L1 6L6 6L6 1ZM2 2L2 5L5 5L5 2ZM58 0L58 7L65 7L65 0ZM59 1L59 6L64 6L64 1ZM60 2L60 5L63 5L63 2ZM0 58L0 65L7 65L7 58ZM1 59L1 64L6 64L6 59ZM2 60L2 63L5 63L5 60Z" fill="#000000"/></g></g></svg>
