<?xml version="1.0" encoding="UTF-8"?>
<svg xmlns="http://www.w3.org/2000/svg" version="1.1" width="300" height="300" viewBox="0 0 300 300"><rect x="0" y="0" width="300" height="300" fill="#ffffff"/><g transform="scale(4.348)"><g transform="translate(0,0)"><path fill-rule="evenodd" d="M8 0L8 4L9 4L9 3L10 3L10 5L8 5L8 7L9 7L9 9L7 9L7 8L4 8L4 9L2 9L2 8L0 8L0 10L1 10L1 9L2 9L2 10L3 10L3 11L0 11L0 12L1 12L1 13L0 13L0 15L1 15L1 19L0 19L0 20L1 20L1 21L3 21L3 22L2 22L2 23L1 23L1 22L0 22L0 23L1 23L1 24L0 24L0 27L1 27L1 28L2 28L2 27L1 27L1 25L2 25L2 26L3 26L3 27L5 27L5 28L3 28L3 29L2 29L2 30L1 30L1 32L0 32L0 33L1 33L1 32L3 32L3 31L5 31L5 32L4 32L4 33L2 33L2 35L0 35L0 36L2 36L2 37L3 37L3 38L4 38L4 37L8 37L8 38L6 38L6 39L8 39L8 40L9 40L9 42L12 42L12 43L11 43L11 44L12 44L12 45L13 45L13 44L15 44L15 46L13 46L13 47L14 47L14 48L13 48L13 50L12 50L12 52L11 52L11 53L7 53L7 52L8 52L8 51L9 51L9 52L10 52L10 51L11 51L11 49L8 49L8 46L6 46L6 47L5 47L5 45L2 45L2 44L5 44L5 43L7 43L7 42L8 42L8 41L7 41L7 40L3 40L3 39L2 39L2 38L1 38L1 37L0 37L0 38L1 38L1 40L3 40L3 42L2 42L2 41L1 41L1 43L0 43L0 44L1 44L1 45L0 45L0 46L1 46L1 45L2 45L2 48L1 48L1 49L2 49L2 50L1 50L1 51L0 51L0 52L2 52L2 50L3 50L3 52L4 52L4 53L1 53L1 54L0 54L0 55L1 55L1 54L4 54L4 55L8 55L8 56L1 56L1 57L0 57L0 61L1 61L1 58L2 58L2 59L3 59L3 57L4 57L4 59L7 59L7 60L6 60L6 61L8 61L8 62L10 62L10 63L8 63L8 65L9 65L9 64L11 64L11 63L12 63L12 64L13 64L13 66L12 66L12 65L10 65L10 66L9 66L9 67L8 67L8 69L10 69L10 67L12 67L12 68L13 68L13 69L15 69L15 68L14 68L14 64L15 64L15 66L16 66L16 64L17 64L17 63L18 63L18 61L20 61L20 62L21 62L21 63L22 63L22 60L23 60L23 61L24 61L24 62L25 62L25 63L23 63L23 64L25 64L25 63L26 63L26 64L28 64L28 61L29 61L29 65L23 65L23 67L21 67L21 69L22 69L22 68L23 68L23 69L25 69L25 67L24 67L24 66L27 66L27 67L26 67L26 69L28 69L28 68L27 68L27 67L28 67L28 66L29 66L29 69L31 69L31 68L32 68L32 69L35 69L35 67L34 67L34 68L32 68L32 67L33 67L33 66L34 66L34 65L35 65L35 66L37 66L37 67L39 67L39 66L40 66L40 63L41 63L41 67L40 67L40 68L38 68L38 69L40 69L40 68L41 68L41 67L43 67L43 63L42 63L42 62L44 62L44 61L45 61L45 60L46 60L46 61L47 61L47 63L46 63L46 64L47 64L47 63L48 63L48 65L47 65L47 67L50 67L50 66L51 66L51 68L47 68L47 69L52 69L52 68L53 68L53 69L55 69L55 67L56 67L56 69L59 69L59 68L61 68L61 67L59 67L59 66L58 66L58 65L60 65L60 66L61 66L61 65L63 65L63 69L64 69L64 67L65 67L65 66L66 66L66 65L65 65L65 63L66 63L66 62L67 62L67 63L68 63L68 64L67 64L67 66L69 66L69 63L68 63L68 62L69 62L69 60L68 60L68 58L69 58L69 55L68 55L68 53L69 53L69 52L68 52L68 50L65 50L65 51L67 51L67 52L66 52L66 54L67 54L67 55L68 55L68 58L67 58L67 61L66 61L66 60L64 60L64 57L61 57L61 56L60 56L60 58L58 58L58 57L59 57L59 55L62 55L62 54L64 54L64 55L63 55L63 56L64 56L64 55L65 55L65 54L64 54L64 53L62 53L62 52L64 52L64 49L65 49L65 47L66 47L66 46L67 46L67 47L68 47L68 49L69 49L69 47L68 47L68 45L69 45L69 44L68 44L68 42L69 42L69 41L68 41L68 38L69 38L69 35L68 35L68 33L69 33L69 32L68 32L68 33L67 33L67 34L66 34L66 32L63 32L63 31L64 31L64 30L65 30L65 31L68 31L68 29L69 29L69 28L68 28L68 29L67 29L67 30L65 30L65 29L66 29L66 28L65 28L65 29L64 29L64 27L65 27L65 26L67 26L67 27L68 27L68 26L69 26L69 25L64 25L64 24L65 24L65 23L68 23L68 24L69 24L69 23L68 23L68 22L69 22L69 20L68 20L68 18L67 18L67 16L66 16L66 17L64 17L64 16L65 16L65 14L64 14L64 15L62 15L62 19L61 19L61 20L60 20L60 18L61 18L61 13L60 13L60 12L59 12L59 10L61 10L61 12L62 12L62 14L63 14L63 13L64 13L64 12L65 12L65 11L66 11L66 10L67 10L67 12L66 12L66 13L67 13L67 15L68 15L68 13L69 13L69 12L68 12L68 10L67 10L67 9L69 9L69 8L65 8L65 10L64 10L64 8L63 8L63 9L62 9L62 10L61 10L61 8L59 8L59 4L57 4L57 5L58 5L58 7L57 7L57 6L56 6L56 3L59 3L59 2L57 2L57 1L61 1L61 0L57 0L57 1L56 1L56 3L54 3L54 2L55 2L55 0L52 0L52 1L51 1L51 0L50 0L50 2L51 2L51 3L50 3L50 5L48 5L48 7L49 7L49 6L50 6L50 7L51 7L51 5L52 5L52 4L53 4L53 5L54 5L54 7L55 7L55 8L53 8L53 9L50 9L50 8L47 8L47 6L46 6L46 7L45 7L45 6L44 6L44 5L46 5L46 4L47 4L47 3L49 3L49 2L46 2L46 3L45 3L45 1L46 1L46 0L45 0L45 1L44 1L44 0L41 0L41 1L40 1L40 0L37 0L37 1L34 1L34 0L32 0L32 1L31 1L31 0L30 0L30 1L29 1L29 0L23 0L23 2L22 2L22 3L19 3L19 4L17 4L17 5L16 5L16 4L15 4L15 2L17 2L17 3L18 3L18 2L19 2L19 1L20 1L20 2L21 2L21 1L22 1L22 0L15 0L15 1L14 1L14 2L13 2L13 0L12 0L12 1L11 1L11 0ZM48 0L48 1L49 1L49 0ZM9 1L9 2L10 2L10 3L11 3L11 1ZM24 1L24 3L23 3L23 4L25 4L25 3L26 3L26 5L25 5L25 7L24 7L24 6L23 6L23 5L21 5L21 9L22 9L22 10L21 10L21 11L20 11L20 9L19 9L19 11L17 11L17 9L16 9L16 11L15 11L15 12L14 12L14 10L13 10L13 7L14 7L14 4L13 4L13 2L12 2L12 4L11 4L11 8L12 8L12 9L11 9L11 10L12 10L12 12L11 12L11 13L12 13L12 16L13 16L13 17L12 17L12 18L10 18L10 23L11 23L11 24L12 24L12 23L13 23L13 24L14 24L14 23L15 23L15 22L16 22L16 23L17 23L17 24L15 24L15 25L14 25L14 26L13 26L13 25L12 25L12 26L11 26L11 27L10 27L10 25L9 25L9 22L8 22L8 21L9 21L9 20L8 20L8 21L4 21L4 20L7 20L7 19L5 19L5 17L6 17L6 18L7 18L7 17L6 17L6 16L8 16L8 17L11 17L11 15L10 15L10 16L8 16L8 15L9 15L9 14L7 14L7 13L9 13L9 11L10 11L10 9L9 9L9 10L8 10L8 11L6 11L6 10L7 10L7 9L5 9L5 10L4 10L4 13L5 13L5 11L6 11L6 12L7 12L7 13L6 13L6 14L2 14L2 13L1 13L1 15L2 15L2 16L3 16L3 15L6 15L6 16L4 16L4 17L2 17L2 19L1 19L1 20L2 20L2 19L3 19L3 18L4 18L4 20L3 20L3 21L4 21L4 23L3 23L3 24L2 24L2 25L5 25L5 27L6 27L6 28L7 28L7 29L6 29L6 30L5 30L5 29L3 29L3 30L2 30L2 31L3 31L3 30L5 30L5 31L6 31L6 32L8 32L8 28L9 28L9 27L10 27L10 28L11 28L11 29L10 29L10 32L11 32L11 33L12 33L12 31L14 31L14 33L13 33L13 34L12 34L12 35L11 35L11 34L9 34L9 40L10 40L10 41L12 41L12 42L15 42L15 43L16 43L16 42L17 42L17 43L18 43L18 44L20 44L20 43L21 43L21 44L22 44L22 49L19 49L19 48L18 48L18 49L16 49L16 48L17 48L17 47L18 47L18 45L17 45L17 44L16 44L16 48L15 48L15 49L14 49L14 51L15 51L15 52L16 52L16 54L17 54L17 55L15 55L15 53L14 53L14 54L13 54L13 55L12 55L12 56L8 56L8 57L6 57L6 58L7 58L7 59L9 59L9 60L8 60L8 61L10 61L10 57L12 57L12 58L11 58L11 60L12 60L12 61L11 61L11 62L13 62L13 63L15 63L15 60L16 60L16 63L17 63L17 61L18 61L18 60L20 60L20 61L21 61L21 60L22 60L22 59L21 59L21 60L20 60L20 57L21 57L21 58L23 58L23 59L24 59L24 61L26 61L26 60L27 60L27 61L28 61L28 60L30 60L30 59L31 59L31 60L33 60L33 59L34 59L34 58L35 58L35 59L36 59L36 60L37 60L37 59L38 59L38 60L39 60L39 62L38 62L38 61L37 61L37 62L38 62L38 63L40 63L40 62L41 62L41 60L39 60L39 58L40 58L40 59L41 59L41 58L40 58L40 57L41 57L41 56L42 56L42 57L44 57L44 54L45 54L45 53L46 53L46 54L48 54L48 56L49 56L49 57L46 57L46 58L47 58L47 59L49 59L49 60L50 60L50 61L49 61L49 65L48 65L48 66L50 66L50 65L51 65L51 66L52 66L52 67L55 67L55 66L56 66L56 67L58 67L58 66L57 66L57 65L58 65L58 64L59 64L59 63L60 63L60 62L59 62L59 61L60 61L60 60L58 60L58 61L56 61L56 60L57 60L57 59L58 59L58 58L56 58L56 54L55 54L55 55L54 55L54 54L52 54L52 53L53 53L53 51L55 51L55 50L53 50L53 49L54 49L54 48L55 48L55 49L56 49L56 52L55 52L55 53L56 53L56 52L57 52L57 57L58 57L58 55L59 55L59 54L60 54L60 52L59 52L59 53L58 53L58 51L57 51L57 49L58 49L58 50L59 50L59 51L61 51L61 50L62 50L62 51L63 51L63 50L62 50L62 48L63 48L63 49L64 49L64 48L63 48L63 44L64 44L64 46L66 46L66 45L65 45L65 44L67 44L67 42L68 42L68 41L67 41L67 39L66 39L66 36L67 36L67 37L68 37L68 35L65 35L65 37L60 37L60 36L59 36L59 37L58 37L58 36L57 36L57 35L58 35L58 34L59 34L59 35L60 35L60 33L58 33L58 32L57 32L57 30L56 30L56 32L55 32L55 30L52 30L52 29L53 29L53 28L52 28L52 29L51 29L51 30L50 30L50 29L48 29L48 30L47 30L47 29L46 29L46 30L45 30L45 31L46 31L46 30L47 30L47 31L50 31L50 32L51 32L51 31L52 31L52 33L51 33L51 34L50 34L50 33L49 33L49 35L48 35L48 33L46 33L46 32L45 32L45 33L44 33L44 30L43 30L43 31L40 31L40 33L44 33L44 34L43 34L43 38L45 38L45 37L46 37L46 42L45 42L45 43L44 43L44 40L45 40L45 39L43 39L43 42L39 42L39 43L41 43L41 44L43 44L43 47L44 47L44 48L43 48L43 49L44 49L44 50L45 50L45 53L44 53L44 51L43 51L43 50L42 50L42 52L43 52L43 53L44 53L44 54L41 54L41 55L40 55L40 54L39 54L39 52L38 52L38 53L36 53L36 52L37 52L37 51L39 51L39 50L38 50L38 49L39 49L39 48L38 48L38 47L41 47L41 48L40 48L40 53L41 53L41 49L42 49L42 45L41 45L41 46L40 46L40 45L39 45L39 46L38 46L38 45L35 45L35 44L37 44L37 43L38 43L38 41L39 41L39 39L40 39L40 41L41 41L41 39L42 39L42 37L41 37L41 36L42 36L42 35L41 35L41 34L39 34L39 35L37 35L37 37L36 37L36 38L35 38L35 37L32 37L32 38L31 38L31 39L32 39L32 40L33 40L33 38L34 38L34 39L35 39L35 40L34 40L34 42L33 42L33 41L32 41L32 42L31 42L31 43L28 43L28 42L30 42L30 41L31 41L31 40L30 40L30 41L29 41L29 39L30 39L30 37L29 37L29 36L31 36L31 35L32 35L32 34L31 34L31 35L30 35L30 34L28 34L28 35L27 35L27 34L26 34L26 35L24 35L24 36L25 36L25 37L26 37L26 38L25 38L25 41L24 41L24 40L22 40L22 39L21 39L21 38L22 38L22 37L23 37L23 33L29 33L29 31L30 31L30 30L31 30L31 31L32 31L32 32L37 32L37 34L38 34L38 29L36 29L36 28L37 28L37 26L36 26L36 27L35 27L35 25L36 25L36 24L38 24L38 25L39 25L39 24L40 24L40 27L39 27L39 29L40 29L40 30L42 30L42 28L43 28L43 29L44 29L44 28L45 28L45 27L44 27L44 28L43 28L43 26L41 26L41 25L42 25L42 24L43 24L43 25L44 25L44 24L45 24L45 23L44 23L44 20L46 20L46 19L44 19L44 18L41 18L41 17L42 17L42 16L40 16L40 19L39 19L39 18L38 18L38 17L39 17L39 15L42 15L42 13L43 13L43 17L44 17L44 15L45 15L45 17L46 17L46 18L47 18L47 20L49 20L49 22L47 22L47 21L46 21L46 22L47 22L47 25L46 25L46 26L47 26L47 27L49 27L49 26L50 26L50 28L51 28L51 27L55 27L55 29L56 29L56 28L59 28L59 29L58 29L58 30L59 30L59 29L61 29L61 32L62 32L62 31L63 31L63 30L62 30L62 29L61 29L61 26L62 26L62 25L61 25L61 24L60 24L60 25L59 25L59 24L58 24L58 23L59 23L59 19L58 19L58 18L59 18L59 17L58 17L58 18L57 18L57 17L56 17L56 16L58 16L58 15L57 15L57 14L56 14L56 13L55 13L55 14L53 14L53 13L54 13L54 12L52 12L52 13L51 13L51 14L50 14L50 12L49 12L49 15L47 15L47 11L46 11L46 10L47 10L47 8L45 8L45 7L44 7L44 6L43 6L43 5L44 5L44 4L45 4L45 3L44 3L44 2L42 2L42 1L41 1L41 2L40 2L40 1L37 1L37 2L35 2L35 4L36 4L36 3L38 3L38 4L39 4L39 5L40 5L40 6L39 6L39 7L38 7L38 5L37 5L37 7L38 7L38 8L37 8L37 10L38 10L38 11L37 11L37 12L36 12L36 13L37 13L37 14L35 14L35 13L33 13L33 15L32 15L32 14L30 14L30 13L29 13L29 10L30 10L30 11L31 11L31 13L32 13L32 12L33 12L33 11L34 11L34 10L35 10L35 11L36 11L36 9L32 9L32 8L30 8L30 9L27 9L27 11L26 11L26 8L27 8L27 7L28 7L28 8L29 8L29 7L30 7L30 6L31 6L31 7L32 7L32 6L31 6L31 5L32 5L32 2L31 2L31 1L30 1L30 2L28 2L28 1ZM33 1L33 4L34 4L34 1ZM52 1L52 2L54 2L54 1ZM26 2L26 3L27 3L27 2ZM39 2L39 3L40 3L40 5L43 5L43 4L44 4L44 3L42 3L42 2L41 2L41 3L40 3L40 2ZM28 3L28 4L27 4L27 5L26 5L26 7L25 7L25 8L24 8L24 9L23 9L23 10L22 10L22 11L24 11L24 13L22 13L22 12L17 12L17 13L16 13L16 12L15 12L15 13L13 13L13 12L12 12L12 13L13 13L13 14L14 14L14 15L15 15L15 13L16 13L16 14L17 14L17 13L18 13L18 15L16 15L16 16L14 16L14 17L13 17L13 18L14 18L14 20L12 20L12 19L11 19L11 20L12 20L12 21L11 21L11 23L12 23L12 22L13 22L13 23L14 23L14 22L13 22L13 21L14 21L14 20L15 20L15 21L17 21L17 23L18 23L18 24L17 24L17 25L15 25L15 26L14 26L14 27L16 27L16 26L18 26L18 27L19 27L19 26L21 26L21 25L24 25L24 26L25 26L25 28L24 28L24 27L23 27L23 26L22 26L22 27L20 27L20 28L17 28L17 29L18 29L18 30L16 30L16 29L15 29L15 28L14 28L14 29L13 29L13 30L14 30L14 31L16 31L16 33L14 33L14 35L13 35L13 36L12 36L12 38L13 38L13 39L11 39L11 40L13 40L13 41L16 41L16 40L17 40L17 41L18 41L18 42L19 42L19 43L20 43L20 42L21 42L21 43L24 43L24 44L23 44L23 46L24 46L24 47L23 47L23 49L24 49L24 50L23 50L23 51L24 51L24 50L25 50L25 49L26 49L26 51L25 51L25 52L23 52L23 53L22 53L22 50L20 50L20 51L19 51L19 49L18 49L18 50L17 50L17 51L16 51L16 49L15 49L15 51L16 51L16 52L17 52L17 51L19 51L19 52L18 52L18 53L17 53L17 54L18 54L18 53L19 53L19 52L20 52L20 54L21 54L21 53L22 53L22 54L23 54L23 55L25 55L25 54L26 54L26 57L25 57L25 56L22 56L22 55L18 55L18 56L17 56L17 57L15 57L15 58L13 58L13 60L15 60L15 59L16 59L16 58L17 58L17 57L18 57L18 59L19 59L19 57L20 57L20 56L21 56L21 57L24 57L24 58L25 58L25 59L26 59L26 57L27 57L27 60L28 60L28 57L27 57L27 56L29 56L29 55L30 55L30 54L29 54L29 55L28 55L28 53L31 53L31 54L32 54L32 56L30 56L30 57L29 57L29 59L30 59L30 58L31 58L31 57L33 57L33 58L32 58L32 59L33 59L33 58L34 58L34 56L35 56L35 55L37 55L37 54L34 54L34 53L33 53L33 54L32 54L32 52L33 52L33 51L34 51L34 52L35 52L35 51L36 51L36 49L35 49L35 50L34 50L34 48L35 48L35 47L36 47L36 48L37 48L37 49L38 49L38 48L37 48L37 47L38 47L38 46L37 46L37 47L36 47L36 46L35 46L35 45L34 45L34 44L35 44L35 42L34 42L34 44L33 44L33 43L31 43L31 44L30 44L30 45L29 45L29 46L30 46L30 45L31 45L31 46L32 46L32 47L34 47L34 48L31 48L31 47L30 47L30 48L29 48L29 50L28 50L28 51L27 51L27 49L28 49L28 47L27 47L27 48L26 48L26 47L25 47L25 44L26 44L26 46L28 46L28 45L27 45L27 44L26 44L26 43L27 43L27 42L28 42L28 40L26 40L26 42L24 42L24 41L23 41L23 42L22 42L22 41L19 41L19 40L18 40L18 39L17 39L17 38L19 38L19 39L20 39L20 40L21 40L21 39L20 39L20 38L21 38L21 37L22 37L22 35L21 35L21 37L19 37L19 36L18 36L18 35L20 35L20 34L22 34L22 32L25 32L25 31L26 31L26 32L27 32L27 31L28 31L28 29L27 29L27 28L26 28L26 26L25 26L25 25L27 25L27 26L28 26L28 28L29 28L29 26L33 26L33 27L30 27L30 29L29 29L29 30L30 30L30 29L32 29L32 28L33 28L33 31L34 31L34 30L35 30L35 31L36 31L36 29L34 29L34 28L35 28L35 27L34 27L34 26L33 26L33 25L34 25L34 24L35 24L35 22L34 22L34 24L33 24L33 25L32 25L32 23L33 23L33 20L32 20L32 19L34 19L34 21L35 21L35 20L36 20L36 22L37 22L37 21L38 21L38 20L39 20L39 21L40 21L40 20L41 20L41 19L40 19L40 20L39 20L39 19L38 19L38 18L37 18L37 17L38 17L38 16L37 16L37 15L35 15L35 14L34 14L34 15L33 15L33 17L34 17L34 18L31 18L31 17L32 17L32 15L29 15L29 17L30 17L30 18L28 18L28 19L27 19L27 17L28 17L28 16L26 16L26 15L25 15L25 16L23 16L23 17L22 17L22 15L24 15L24 14L25 14L25 13L27 13L27 14L28 14L28 13L27 13L27 12L28 12L28 11L27 11L27 12L26 12L26 11L25 11L25 10L24 10L24 9L25 9L25 8L26 8L26 7L27 7L27 5L28 5L28 7L29 7L29 6L30 6L30 5L31 5L31 4L29 4L29 3ZM51 3L51 4L52 4L52 3ZM53 3L53 4L54 4L54 3ZM60 3L60 5L61 5L61 3ZM12 4L12 5L13 5L13 4ZM19 4L19 5L18 5L18 6L17 6L17 7L18 7L18 6L19 6L19 7L20 7L20 4ZM28 4L28 5L29 5L29 4ZM15 5L15 8L16 8L16 5ZM33 5L33 8L36 8L36 5ZM9 6L9 7L10 7L10 6ZM12 6L12 7L13 7L13 6ZM22 6L22 8L23 8L23 6ZM34 6L34 7L35 7L35 6ZM40 6L40 7L39 7L39 8L38 8L38 10L39 10L39 13L38 13L38 15L39 15L39 13L40 13L40 14L41 14L41 10L42 10L42 12L44 12L44 14L45 14L45 15L46 15L46 17L47 17L47 18L49 18L49 16L50 16L50 18L51 18L51 17L52 17L52 16L54 16L54 17L53 17L53 19L54 19L54 20L53 20L53 22L52 22L52 21L51 21L51 20L50 20L50 19L49 19L49 20L50 20L50 24L49 24L49 23L48 23L48 25L47 25L47 26L49 26L49 25L50 25L50 26L51 26L51 25L52 25L52 26L56 26L56 27L58 27L58 24L56 24L56 22L57 22L57 19L56 19L56 17L55 17L55 16L56 16L56 14L55 14L55 15L53 15L53 14L52 14L52 15L51 15L51 16L50 16L50 15L49 15L49 16L47 16L47 15L46 15L46 11L43 11L43 9L40 9L40 8L43 8L43 6L42 6L42 7L41 7L41 6ZM52 6L52 7L53 7L53 6ZM55 6L55 7L56 7L56 8L55 8L55 9L56 9L56 10L53 10L53 11L57 11L57 13L58 13L58 14L59 14L59 15L60 15L60 13L59 13L59 12L58 12L58 11L57 11L57 9L56 9L56 8L57 8L57 7L56 7L56 6ZM60 6L60 7L61 7L61 6ZM44 8L44 9L45 9L45 10L46 10L46 9L45 9L45 8ZM30 9L30 10L31 10L31 11L32 11L32 9ZM49 9L49 10L50 10L50 9ZM58 9L58 10L59 10L59 9ZM63 10L63 12L64 12L64 10ZM19 13L19 15L20 15L20 16L21 16L21 15L22 15L22 14L20 14L20 13ZM6 14L6 15L7 15L7 14ZM18 16L18 17L17 17L17 18L18 18L18 19L20 19L20 18L22 18L22 17L19 17L19 16ZM34 16L34 17L36 17L36 16ZM14 17L14 18L16 18L16 17ZM18 17L18 18L19 18L19 17ZM25 17L25 18L24 18L24 19L22 19L22 21L21 21L21 23L20 23L20 21L18 21L18 23L19 23L19 25L18 25L18 26L19 26L19 25L21 25L21 23L22 23L22 24L23 24L23 21L25 21L25 22L24 22L24 24L26 24L26 23L28 23L28 24L27 24L27 25L28 25L28 26L29 26L29 25L30 25L30 24L31 24L31 23L32 23L32 20L31 20L31 21L28 21L28 20L27 20L27 19L26 19L26 20L25 20L25 18L26 18L26 17ZM63 17L63 19L62 19L62 20L61 20L61 22L62 22L62 24L64 24L64 23L63 23L63 22L62 22L62 21L63 21L63 19L64 19L64 17ZM8 18L8 19L9 19L9 18ZM30 18L30 19L31 19L31 18ZM34 18L34 19L37 19L37 18ZM54 18L54 19L55 19L55 18ZM65 18L65 20L64 20L64 22L65 22L65 21L67 21L67 22L68 22L68 20L67 20L67 18ZM16 19L16 20L17 20L17 19ZM26 20L26 21L27 21L27 22L28 22L28 23L30 23L30 22L28 22L28 21L27 21L27 20ZM42 20L42 21L41 21L41 23L40 23L40 22L39 22L39 23L40 23L40 24L41 24L41 23L43 23L43 20ZM54 20L54 21L55 21L55 22L53 22L53 23L54 23L54 24L55 24L55 25L56 25L56 26L57 26L57 25L56 25L56 24L55 24L55 22L56 22L56 20ZM6 22L6 23L4 23L4 24L5 24L5 25L7 25L7 24L8 24L8 22ZM25 22L25 23L26 23L26 22ZM51 22L51 24L52 24L52 25L53 25L53 24L52 24L52 22ZM6 23L6 24L7 24L7 23ZM28 24L28 25L29 25L29 24ZM60 25L60 26L61 26L61 25ZM6 26L6 27L7 27L7 28L8 28L8 27L9 27L9 26L8 26L8 27L7 27L7 26ZM11 27L11 28L13 28L13 27ZM33 27L33 28L34 28L34 27ZM40 27L40 28L42 28L42 27ZM62 27L62 28L63 28L63 27ZM20 28L20 29L19 29L19 30L18 30L18 31L17 31L17 33L16 33L16 34L17 34L17 33L18 33L18 32L19 32L19 33L20 33L20 32L22 32L22 31L23 31L23 28L22 28L22 30L20 30L20 29L21 29L21 28ZM25 28L25 29L26 29L26 28ZM6 30L6 31L7 31L7 30ZM11 30L11 31L12 31L12 30ZM19 31L19 32L20 32L20 31ZM53 32L53 33L54 33L54 35L55 35L55 36L54 36L54 37L52 37L52 36L53 36L53 35L51 35L51 37L50 37L50 38L49 38L49 39L50 39L50 38L51 38L51 40L50 40L50 42L49 42L49 43L48 43L48 44L47 44L47 46L46 46L46 45L45 45L45 44L46 44L46 43L45 43L45 44L44 44L44 43L43 43L43 44L44 44L44 45L45 45L45 48L44 48L44 49L45 49L45 50L46 50L46 51L49 51L49 52L46 52L46 53L50 53L50 54L49 54L49 56L50 56L50 60L51 60L51 58L52 58L52 59L54 59L54 60L55 60L55 59L56 59L56 58L55 58L55 56L54 56L54 55L53 55L53 56L54 56L54 57L52 57L52 56L50 56L50 55L51 55L51 53L52 53L52 51L53 51L53 50L52 50L52 51L51 51L51 53L50 53L50 51L49 51L49 49L50 49L50 50L51 50L51 49L52 49L52 47L53 47L53 48L54 48L54 47L57 47L57 48L56 48L56 49L57 49L57 48L58 48L58 47L59 47L59 46L60 46L60 45L61 45L61 47L60 47L60 48L61 48L61 47L62 47L62 44L63 44L63 43L62 43L62 42L63 42L63 41L66 41L66 39L65 39L65 38L64 38L64 39L62 39L62 38L60 38L60 37L59 37L59 38L58 38L58 37L57 37L57 36L56 36L56 35L57 35L57 34L58 34L58 33L57 33L57 32L56 32L56 33L55 33L55 32ZM5 33L5 36L8 36L8 33ZM33 33L33 36L36 36L36 33ZM45 33L45 34L44 34L44 37L45 37L45 34L46 34L46 37L49 37L49 36L48 36L48 35L47 35L47 34L46 34L46 33ZM56 33L56 34L57 34L57 33ZM61 33L61 36L64 36L64 33ZM3 34L3 37L4 37L4 34ZM6 34L6 35L7 35L7 34ZM34 34L34 35L35 35L35 34ZM62 34L62 35L63 35L63 34ZM15 35L15 36L14 36L14 37L13 37L13 38L14 38L14 40L16 40L16 39L15 39L15 37L16 37L16 38L17 38L17 37L16 37L16 36L17 36L17 35ZM39 35L39 36L38 36L38 37L37 37L37 39L38 39L38 38L39 38L39 37L40 37L40 35ZM26 36L26 37L27 37L27 38L28 38L28 39L29 39L29 38L28 38L28 36ZM55 36L55 37L56 37L56 39L55 39L55 38L54 38L54 39L53 39L53 38L52 38L52 37L51 37L51 38L52 38L52 41L51 41L51 42L50 42L50 43L49 43L49 46L50 46L50 44L51 44L51 42L53 42L53 43L54 43L54 42L53 42L53 40L54 40L54 41L56 41L56 42L55 42L55 43L56 43L56 44L52 44L52 46L53 46L53 45L55 45L55 46L57 46L57 47L58 47L58 46L59 46L59 45L60 45L60 44L59 44L59 45L58 45L58 46L57 46L57 45L56 45L56 44L58 44L58 43L59 43L59 41L60 41L60 43L61 43L61 44L62 44L62 43L61 43L61 42L62 42L62 41L60 41L60 40L58 40L58 38L57 38L57 37L56 37L56 36ZM47 38L47 41L49 41L49 40L48 40L48 38ZM56 39L56 41L57 41L57 42L58 42L58 41L57 41L57 39ZM61 39L61 40L62 40L62 39ZM64 39L64 40L65 40L65 39ZM37 40L37 41L38 41L38 40ZM6 41L6 42L7 42L7 41ZM3 42L3 43L4 43L4 42ZM36 42L36 43L37 43L37 42ZM64 42L64 44L65 44L65 42ZM1 43L1 44L2 44L2 43ZM8 43L8 44L9 44L9 43ZM12 43L12 44L13 44L13 43ZM6 44L6 45L7 45L7 44ZM31 44L31 45L33 45L33 44ZM10 45L10 46L9 46L9 47L10 47L10 48L12 48L12 47L10 47L10 46L11 46L11 45ZM19 45L19 47L20 47L20 48L21 48L21 46L20 46L20 45ZM34 46L34 47L35 47L35 46ZM6 47L6 48L7 48L7 47ZM24 47L24 49L25 49L25 47ZM48 47L48 48L49 48L49 47ZM3 48L3 50L4 50L4 52L7 52L7 51L5 51L5 49L4 49L4 48ZM45 48L45 49L46 49L46 50L47 50L47 48ZM50 48L50 49L51 49L51 48ZM6 49L6 50L8 50L8 49ZM30 49L30 50L29 50L29 51L30 51L30 50L31 50L31 51L33 51L33 49ZM9 50L9 51L10 51L10 50ZM26 51L26 52L25 52L25 53L26 53L26 54L27 54L27 53L28 53L28 52L27 52L27 51ZM26 52L26 53L27 53L27 52ZM4 53L4 54L7 54L7 53ZM9 54L9 55L11 55L11 54ZM33 54L33 56L34 56L34 54ZM13 55L13 57L14 57L14 56L15 56L15 55ZM39 55L39 57L38 57L38 58L39 58L39 57L40 57L40 55ZM36 56L36 57L35 57L35 58L36 58L36 59L37 59L37 56ZM65 56L65 57L67 57L67 56ZM8 57L8 58L9 58L9 57ZM42 58L42 61L44 61L44 60L45 60L45 58ZM54 58L54 59L55 59L55 58ZM60 58L60 59L61 59L61 58ZM62 58L62 59L63 59L63 58ZM43 59L43 60L44 60L44 59ZM3 60L3 61L5 61L5 60ZM33 61L33 64L36 64L36 61ZM50 61L50 62L51 62L51 61ZM53 61L53 66L55 66L55 62L56 62L56 61ZM61 61L61 64L64 64L64 61ZM31 62L31 63L30 63L30 64L31 64L31 65L32 65L32 66L33 66L33 65L32 65L32 64L31 64L31 63L32 63L32 62ZM34 62L34 63L35 63L35 62ZM62 62L62 63L63 63L63 62ZM19 63L19 64L18 64L18 65L17 65L17 68L16 68L16 69L20 69L20 68L19 68L19 67L20 67L20 66L22 66L22 64L20 64L20 63ZM44 63L44 69L46 69L46 67L45 67L45 63ZM50 63L50 64L51 64L51 65L52 65L52 63ZM57 63L57 64L56 64L56 65L57 65L57 64L58 64L58 63ZM19 64L19 65L20 65L20 64ZM37 64L37 66L38 66L38 64ZM29 65L29 66L30 66L30 65ZM18 66L18 67L19 67L19 66ZM36 68L36 69L37 69L37 68ZM42 68L42 69L43 69L43 68ZM65 68L65 69L67 69L67 68ZM68 68L68 69L69 69L69 68ZM0 0L0 7L7 7L7 0ZM1 1L1 6L6 6L6 1ZM2 2L2 5L5 5L5 2ZM62 0L62 7L69 7L69 0ZM63 1L63 6L68 6L68 1ZM64 2L64 5L67 5L67 2ZM0 62L0 69L7 69L7 62ZM1 63L1 68L6 68L6 63ZM2 64L2 67L5 67L5 64Z" fill="#000000"/></g></g></svg>
