<?xml version="1.0" encoding="UTF-8"?>
<svg xmlns="http://www.w3.org/2000/svg" version="1.1" width="300" height="300" viewBox="0 0 300 300"><rect x="0" y="0" width="300" height="300" fill="#ffffff"/><g transform="scale(4.348)"><g transform="translate(0,0)"><path fill-rule="evenodd" d="M9 0L9 3L8 3L8 5L11 5L11 6L10 6L10 7L9 7L9 6L8 6L8 7L9 7L9 9L11 9L11 11L12 11L12 12L13 12L13 14L12 14L12 13L11 13L11 14L10 14L10 15L8 15L8 14L9 14L9 13L10 13L10 12L9 12L9 11L10 11L10 10L9 10L9 11L7 11L7 10L8 10L8 8L5 8L5 10L4 10L4 9L3 9L3 10L2 10L2 8L0 8L0 9L1 9L1 10L0 10L0 12L1 12L1 13L0 13L0 17L1 17L1 19L0 19L0 21L1 21L1 22L0 22L0 24L1 24L1 23L2 23L2 24L3 24L3 26L4 26L4 27L3 27L3 28L2 28L2 27L1 27L1 26L2 26L2 25L0 25L0 27L1 27L1 28L0 28L0 29L1 29L1 30L2 30L2 31L1 31L1 33L3 33L3 35L4 35L4 36L2 36L2 34L1 34L1 35L0 35L0 36L2 36L2 37L0 37L0 38L1 38L1 39L0 39L0 43L1 43L1 44L3 44L3 45L4 45L4 46L6 46L6 47L3 47L3 48L1 48L1 47L0 47L0 48L1 48L1 49L0 49L0 50L1 50L1 51L0 51L0 53L1 53L1 52L2 52L2 53L3 53L3 54L2 54L2 55L1 55L1 54L0 54L0 55L1 55L1 57L3 57L3 58L2 58L2 59L3 59L3 58L4 58L4 59L7 59L7 60L6 60L6 61L8 61L8 64L10 64L10 65L9 65L9 67L8 67L8 69L10 69L10 68L12 68L12 69L14 69L14 68L16 68L16 69L19 69L19 68L18 68L18 67L19 67L19 65L20 65L20 64L21 64L21 62L22 62L22 61L23 61L23 64L24 64L24 63L27 63L27 64L25 64L25 65L23 65L23 67L22 67L22 65L21 65L21 66L20 66L20 67L22 67L22 68L24 68L24 69L26 69L26 68L28 68L28 69L29 69L29 68L30 68L30 69L31 69L31 68L34 68L34 69L39 69L39 68L38 68L38 67L39 67L39 66L38 66L38 65L37 65L37 62L38 62L38 63L39 63L39 65L40 65L40 66L41 66L41 67L40 67L40 68L42 68L42 69L43 69L43 68L45 68L45 69L49 69L49 67L50 67L50 65L49 65L49 64L51 64L51 63L52 63L52 64L54 64L54 66L55 66L55 65L56 65L56 64L55 64L55 63L53 63L53 62L55 62L55 61L54 61L54 60L55 60L55 58L56 58L56 59L57 59L57 58L59 58L59 59L58 59L58 60L59 60L59 61L60 61L60 62L58 62L58 64L57 64L57 66L56 66L56 67L54 67L54 68L53 68L53 69L56 69L56 67L58 67L58 68L57 68L57 69L58 69L58 68L59 68L59 69L60 69L60 68L61 68L61 69L62 69L62 67L61 67L61 65L63 65L63 67L65 67L65 68L63 68L63 69L68 69L68 68L67 68L67 67L69 67L69 66L67 66L67 65L68 65L68 64L69 64L69 63L68 63L68 61L67 61L67 59L68 59L68 60L69 60L69 59L68 59L68 58L69 58L69 53L67 53L67 52L69 52L69 50L68 50L68 49L69 49L69 48L68 48L68 44L69 44L69 40L68 40L68 44L67 44L67 43L65 43L65 42L64 42L64 43L63 43L63 41L62 41L62 44L60 44L60 43L61 43L61 41L60 41L60 42L58 42L58 41L59 41L59 39L60 39L60 37L62 37L62 38L61 38L61 40L63 40L63 39L62 39L62 38L63 38L63 37L66 37L66 38L67 38L67 39L65 39L65 40L64 40L64 41L65 41L65 40L67 40L67 39L68 39L68 38L67 38L67 37L66 37L66 36L67 36L67 35L68 35L68 34L66 34L66 35L65 35L65 33L66 33L66 32L67 32L67 33L68 33L68 32L67 32L67 31L66 31L66 30L64 30L64 31L63 31L63 30L62 30L62 29L63 29L63 27L61 27L61 26L62 26L62 25L63 25L63 26L64 26L64 25L65 25L65 26L67 26L67 27L64 27L64 28L67 28L67 29L68 29L68 31L69 31L69 27L68 27L68 26L67 26L67 25L66 25L66 24L68 24L68 22L69 22L69 21L68 21L68 19L69 19L69 16L68 16L68 12L69 12L69 11L68 11L68 9L66 9L66 8L64 8L64 9L57 9L57 11L55 11L55 9L56 9L56 8L54 8L54 7L55 7L55 6L56 6L56 7L57 7L57 8L58 8L58 7L59 7L59 4L58 4L58 3L59 3L59 2L58 2L58 1L61 1L61 0L58 0L58 1L57 1L57 0L56 0L56 1L55 1L55 0L54 0L54 1L53 1L53 2L54 2L54 3L55 3L55 4L53 4L53 3L52 3L52 2L51 2L51 1L52 1L52 0L50 0L50 3L49 3L49 0L48 0L48 1L47 1L47 0L45 0L45 2L43 2L43 1L44 1L44 0L42 0L42 3L38 3L38 2L39 2L39 1L40 1L40 2L41 2L41 1L40 1L40 0L38 0L38 2L37 2L37 1L36 1L36 0L35 0L35 2L37 2L37 3L33 3L33 2L31 2L31 1L30 1L30 0L27 0L27 1L30 1L30 2L29 2L29 3L28 3L28 4L30 4L30 5L29 5L29 6L28 6L28 5L27 5L27 6L26 6L26 5L25 5L25 4L27 4L27 3L26 3L26 2L24 2L24 1L26 1L26 0L24 0L24 1L23 1L23 0L22 0L22 1L21 1L21 0L18 0L18 1L13 1L13 0L11 0L11 1L10 1L10 0ZM32 0L32 1L33 1L33 0ZM11 1L11 2L10 2L10 4L11 4L11 3L13 3L13 4L12 4L12 5L14 5L14 6L13 6L13 7L12 7L12 6L11 6L11 7L10 7L10 8L11 8L11 9L12 9L12 8L14 8L14 9L13 9L13 12L14 12L14 9L15 9L15 10L17 10L17 9L18 9L18 11L17 11L17 12L16 12L16 13L14 13L14 15L10 15L10 16L9 16L9 17L6 17L6 18L7 18L7 19L6 19L6 20L5 20L5 21L4 21L4 19L5 19L5 18L4 18L4 16L5 16L5 15L6 15L6 16L8 16L8 15L6 15L6 14L7 14L7 13L6 13L6 14L4 14L4 13L2 13L2 14L1 14L1 15L2 15L2 14L4 14L4 16L1 16L1 17L3 17L3 18L4 18L4 19L1 19L1 20L2 20L2 21L4 21L4 22L3 22L3 23L5 23L5 22L7 22L7 23L6 23L6 24L8 24L8 21L9 21L9 17L10 17L10 23L9 23L9 25L6 25L6 26L7 26L7 27L4 27L4 28L8 28L8 27L9 27L9 28L10 28L10 30L12 30L12 31L14 31L14 32L12 32L12 34L11 34L11 36L12 36L12 37L10 37L10 41L11 41L11 42L9 42L9 39L8 39L8 38L7 38L7 37L4 37L4 38L3 38L3 37L2 37L2 38L3 38L3 39L1 39L1 40L3 40L3 39L4 39L4 40L7 40L7 39L8 39L8 42L7 42L7 41L4 41L4 43L6 43L6 44L7 44L7 45L6 45L6 46L7 46L7 47L6 47L6 48L8 48L8 49L6 49L6 50L8 50L8 52L7 52L7 51L6 51L6 52L7 52L7 53L5 53L5 54L3 54L3 55L5 55L5 54L7 54L7 55L6 55L6 56L5 56L5 58L7 58L7 59L8 59L8 60L9 60L9 61L10 61L10 62L9 62L9 63L13 63L13 62L12 62L12 61L13 61L13 60L15 60L15 61L14 61L14 63L15 63L15 64L16 64L16 68L17 68L17 65L18 65L18 64L16 64L16 63L15 63L15 61L16 61L16 62L17 62L17 63L18 63L18 62L19 62L19 61L20 61L20 62L21 62L21 61L22 61L22 60L23 60L23 61L25 61L25 62L27 62L27 63L29 63L29 64L27 64L27 65L25 65L25 68L26 68L26 67L27 67L27 65L28 65L28 68L29 68L29 67L31 67L31 66L29 66L29 64L30 64L30 63L32 63L32 62L29 62L29 61L30 61L30 60L31 60L31 59L32 59L32 60L34 60L34 59L35 59L35 57L36 57L36 56L35 56L35 55L36 55L36 53L37 53L37 52L36 52L36 53L35 53L35 52L34 52L34 51L38 51L38 52L39 52L39 51L38 51L38 50L40 50L40 53L38 53L38 54L37 54L37 57L38 57L38 56L39 56L39 58L38 58L38 62L40 62L40 65L41 65L41 64L44 64L44 67L45 67L45 64L46 64L46 67L47 67L47 68L48 68L48 66L49 66L49 65L47 65L47 63L48 63L48 64L49 64L49 62L47 62L47 61L48 61L48 60L49 60L49 61L50 61L50 63L51 63L51 62L53 62L53 61L52 61L52 60L53 60L53 57L55 57L55 56L56 56L56 58L57 58L57 57L58 57L58 56L59 56L59 57L60 57L60 58L61 58L61 57L60 57L60 56L64 56L64 57L66 57L66 58L64 58L64 60L65 60L65 61L66 61L66 60L65 60L65 59L67 59L67 57L68 57L68 56L64 56L64 54L65 54L65 52L64 52L64 54L63 54L63 55L62 55L62 52L63 52L63 50L62 50L62 48L65 48L65 47L66 47L66 44L65 44L65 43L64 43L64 44L62 44L62 48L61 48L61 45L60 45L60 44L59 44L59 47L60 47L60 49L59 49L59 48L58 48L58 47L57 47L57 48L58 48L58 51L59 51L59 53L58 53L58 52L57 52L57 51L55 51L55 50L53 50L53 51L55 51L55 52L56 52L56 53L55 53L55 54L54 54L54 53L53 53L53 52L52 52L52 51L51 51L51 53L50 53L50 52L49 52L49 53L50 53L50 54L47 54L47 52L46 52L46 51L48 51L48 48L50 48L50 47L49 47L49 46L50 46L50 45L51 45L51 47L52 47L52 45L55 45L55 43L56 43L56 45L57 45L57 44L58 44L58 43L56 43L56 42L57 42L57 40L58 40L58 39L59 39L59 37L58 37L58 38L57 38L57 39L55 39L55 40L53 40L53 38L51 38L51 37L52 37L52 36L54 36L54 37L55 37L55 38L56 38L56 36L57 36L57 35L58 35L58 36L60 36L60 34L59 34L59 35L58 35L58 34L57 34L57 35L56 35L56 33L57 33L57 32L61 32L61 30L60 30L60 31L59 31L59 25L60 25L60 23L61 23L61 22L60 22L60 23L59 23L59 22L58 22L58 23L59 23L59 25L58 25L58 27L55 27L55 28L54 28L54 29L55 29L55 31L54 31L54 30L52 30L52 29L53 29L53 25L54 25L54 23L56 23L56 24L55 24L55 26L57 26L57 25L56 25L56 24L57 24L57 20L58 20L58 19L59 19L59 17L61 17L61 16L62 16L62 19L61 19L61 18L60 18L60 19L61 19L61 20L59 20L59 21L61 21L61 20L62 20L62 21L65 21L65 22L62 22L62 23L63 23L63 25L64 25L64 23L65 23L65 22L66 22L66 23L67 23L67 22L66 22L66 20L65 20L65 19L68 19L68 18L65 18L65 19L64 19L64 17L66 17L66 16L64 16L64 15L63 15L63 13L62 13L62 10L59 10L59 11L61 11L61 12L60 12L60 13L62 13L62 15L61 15L61 14L59 14L59 12L58 12L58 11L57 11L57 13L58 13L58 14L56 14L56 15L55 15L55 14L54 14L54 15L55 15L55 16L56 16L56 17L57 17L57 16L56 16L56 15L58 15L58 19L57 19L57 20L56 20L56 18L55 18L55 19L54 19L54 18L53 18L53 17L54 17L54 16L53 16L53 13L50 13L50 12L49 12L49 13L48 13L48 11L49 11L49 10L45 10L45 8L46 8L46 9L47 9L47 7L48 7L48 6L49 6L49 7L50 7L50 8L49 8L49 9L50 9L50 8L51 8L51 11L53 11L53 10L52 10L52 9L53 9L53 7L54 7L54 5L53 5L53 4L50 4L50 6L49 6L49 4L44 4L44 5L43 5L43 7L42 7L42 6L41 6L41 4L40 4L40 6L39 6L39 4L38 4L38 3L37 3L37 4L38 4L38 5L37 5L37 7L38 7L38 8L39 8L39 9L40 9L40 12L39 12L39 11L37 11L37 12L36 12L36 11L35 11L35 10L36 10L36 9L35 9L35 10L34 10L34 12L33 12L33 10L31 10L31 9L32 9L32 8L31 8L31 7L32 7L32 5L30 5L30 6L29 6L29 7L30 7L30 8L31 8L31 9L29 9L29 10L28 10L28 15L27 15L27 14L26 14L26 15L27 15L27 16L25 16L25 17L27 17L27 16L28 16L28 18L26 18L26 19L25 19L25 18L24 18L24 19L25 19L25 20L26 20L26 21L25 21L25 22L23 22L23 23L25 23L25 25L26 25L26 27L25 27L25 28L26 28L26 29L25 29L25 30L27 30L27 28L28 28L28 30L30 30L30 31L32 31L32 32L37 32L37 33L38 33L38 31L40 31L40 32L39 32L39 33L40 33L40 34L37 34L37 35L39 35L39 37L38 37L38 36L37 36L37 37L38 37L38 38L37 38L37 40L34 40L34 39L33 39L33 40L32 40L32 37L31 37L31 38L30 38L30 36L32 36L32 34L31 34L31 33L29 33L29 34L28 34L28 32L29 32L29 31L28 31L28 32L26 32L26 33L25 33L25 34L26 34L26 33L27 33L27 35L28 35L28 36L27 36L27 37L28 37L28 39L27 39L27 38L26 38L26 39L25 39L25 40L26 40L26 45L25 45L25 46L26 46L26 47L21 47L21 46L20 46L20 45L19 45L19 46L18 46L18 45L17 45L17 43L19 43L19 44L20 44L20 43L21 43L21 39L20 39L20 38L22 38L22 39L24 39L24 38L23 38L23 37L24 37L24 36L25 36L25 37L26 37L26 35L24 35L24 34L23 34L23 33L24 33L24 32L25 32L25 31L24 31L24 30L21 30L21 29L24 29L24 27L23 27L23 28L22 28L22 27L20 27L20 26L24 26L24 24L22 24L22 21L24 21L24 20L23 20L23 19L21 19L21 18L22 18L22 17L23 17L23 14L22 14L22 16L19 16L19 14L18 14L18 11L19 11L19 12L20 12L20 15L21 15L21 11L22 11L22 12L23 12L23 11L24 11L24 12L25 12L25 11L26 11L26 12L27 12L27 11L26 11L26 10L25 10L25 9L24 9L24 8L26 8L26 9L28 9L28 6L27 6L27 8L26 8L26 6L25 6L25 5L22 5L22 3L24 3L24 2L23 2L23 1L22 1L22 2L21 2L21 1L20 1L20 2L19 2L19 1L18 1L18 2L19 2L19 4L20 4L20 5L19 5L19 7L18 7L18 5L17 5L17 4L16 4L16 2L15 2L15 4L14 4L14 3L13 3L13 2L12 2L12 1ZM30 2L30 3L31 3L31 4L33 4L33 3L31 3L31 2ZM45 2L45 3L46 3L46 2ZM56 2L56 3L57 3L57 2ZM42 3L42 4L43 4L43 3ZM60 3L60 5L61 5L61 3ZM15 4L15 6L14 6L14 8L18 8L18 9L19 9L19 11L20 11L20 10L24 10L24 9L22 9L22 7L23 7L23 8L24 8L24 7L25 7L25 6L24 6L24 7L23 7L23 6L22 6L22 7L21 7L21 5L20 5L20 9L19 9L19 8L18 8L18 7L17 7L17 5L16 5L16 4ZM56 4L56 5L57 5L57 7L58 7L58 5L57 5L57 4ZM33 5L33 8L36 8L36 5ZM44 5L44 8L42 8L42 7L41 7L41 6L40 6L40 7L41 7L41 8L42 8L42 9L41 9L41 10L42 10L42 11L43 11L43 13L42 13L42 12L40 12L40 13L39 13L39 14L40 14L40 15L39 15L39 16L38 16L38 17L37 17L37 18L36 18L36 19L37 19L37 20L38 20L38 21L35 21L35 20L34 20L34 19L33 19L33 20L32 20L32 18L31 18L31 16L33 16L33 17L34 17L34 18L35 18L35 17L34 17L34 16L36 16L36 15L37 15L37 14L38 14L38 12L37 12L37 14L36 14L36 13L35 13L35 14L34 14L34 15L32 15L32 14L33 14L33 12L32 12L32 11L31 11L31 10L30 10L30 11L31 11L31 12L30 12L30 13L29 13L29 20L28 20L28 21L26 21L26 22L25 22L25 23L26 23L26 22L30 22L30 21L31 21L31 23L28 23L28 24L26 24L26 25L27 25L27 27L28 27L28 24L30 24L30 26L29 26L29 29L34 29L34 30L32 30L32 31L34 31L34 30L35 30L35 29L34 29L34 28L37 28L37 29L38 29L38 28L39 28L39 27L40 27L40 28L41 28L41 26L45 26L45 29L44 29L44 28L43 28L43 29L41 29L41 30L40 30L40 29L39 29L39 30L40 30L40 31L41 31L41 32L43 32L43 33L41 33L41 34L40 34L40 35L41 35L41 34L43 34L43 33L44 33L44 32L45 32L45 31L44 31L44 32L43 32L43 31L42 31L42 30L43 30L43 29L44 29L44 30L46 30L46 33L45 33L45 34L44 34L44 35L42 35L42 36L43 36L43 37L42 37L42 38L41 38L41 36L40 36L40 38L39 38L39 39L40 39L40 38L41 38L41 39L42 39L42 40L41 40L41 41L39 41L39 42L38 42L38 40L37 40L37 41L35 41L35 42L34 42L34 43L35 43L35 44L36 44L36 45L37 45L37 46L39 46L39 47L41 47L41 48L40 48L40 50L42 50L42 51L44 51L44 52L42 52L42 54L43 54L43 55L41 55L41 53L40 53L40 54L38 54L38 55L40 55L40 56L41 56L41 58L39 58L39 59L41 59L41 58L42 58L42 59L43 59L43 60L42 60L42 62L41 62L41 60L40 60L40 62L41 62L41 63L42 63L42 62L44 62L44 61L45 61L45 63L47 63L47 62L46 62L46 60L48 60L48 59L49 59L49 60L50 60L50 61L51 61L51 60L50 60L50 59L49 59L49 58L51 58L51 59L52 59L52 58L51 58L51 57L50 57L50 55L48 55L48 56L46 56L46 57L45 57L45 59L46 59L46 60L44 60L44 56L45 56L45 55L47 55L47 54L46 54L46 53L44 53L44 52L45 52L45 51L46 51L46 49L45 49L45 48L44 48L44 47L43 47L43 46L44 46L44 44L45 44L45 47L46 47L46 46L47 46L47 45L50 45L50 44L52 44L52 43L53 43L53 42L54 42L54 43L55 43L55 42L56 42L56 40L55 40L55 41L53 41L53 42L52 42L52 43L50 43L50 41L52 41L52 39L51 39L51 40L50 40L50 41L49 41L49 39L50 39L50 37L49 37L49 36L51 36L51 35L52 35L52 33L51 33L51 32L52 32L52 30L50 30L50 29L52 29L52 25L53 25L53 24L52 24L52 23L54 23L54 22L55 22L55 21L56 21L56 20L55 20L55 21L54 21L54 22L51 22L51 21L49 21L49 18L50 18L50 20L51 20L51 19L52 19L52 20L54 20L54 19L53 19L53 18L52 18L52 17L51 17L51 16L52 16L52 14L50 14L50 13L49 13L49 14L50 14L50 16L49 16L49 15L46 15L46 16L47 16L47 18L46 18L46 17L45 17L45 20L46 20L46 21L44 21L44 18L43 18L43 17L44 17L44 16L42 16L42 17L41 17L41 18L42 18L42 19L43 19L43 21L41 21L41 22L42 22L42 23L43 23L43 25L42 25L42 24L40 24L40 23L39 23L39 20L40 20L40 18L38 18L38 17L39 17L39 16L41 16L41 14L42 14L42 15L43 15L43 13L45 13L45 14L44 14L44 15L45 15L45 14L46 14L46 13L47 13L47 14L48 14L48 13L47 13L47 12L46 12L46 11L43 11L43 10L44 10L44 8L45 8L45 6L46 6L46 7L47 7L47 6L46 6L46 5ZM52 5L52 7L51 7L51 6L50 6L50 7L51 7L51 8L52 8L52 7L53 7L53 5ZM15 6L15 7L16 7L16 6ZM30 6L30 7L31 7L31 6ZM34 6L34 7L35 7L35 6ZM38 6L38 7L39 7L39 6ZM60 6L60 7L61 7L61 6ZM6 9L6 10L7 10L7 9ZM64 9L64 10L65 10L65 9ZM1 10L1 11L2 11L2 10ZM3 10L3 11L4 11L4 10ZM66 10L66 11L67 11L67 12L68 12L68 11L67 11L67 10ZM6 11L6 12L7 12L7 11ZM31 12L31 14L30 14L30 15L31 15L31 14L32 14L32 12ZM54 12L54 13L55 13L55 12ZM40 13L40 14L41 14L41 13ZM64 13L64 14L67 14L67 13ZM16 14L16 15L15 15L15 16L16 16L16 17L15 17L15 18L14 18L14 16L12 16L12 18L11 18L11 21L12 21L12 22L13 22L13 21L14 21L14 20L15 20L15 22L14 22L14 23L12 23L12 24L10 24L10 25L9 25L9 27L10 27L10 28L11 28L11 29L12 29L12 30L15 30L15 33L14 33L14 34L13 34L13 35L12 35L12 36L13 36L13 38L14 38L14 39L12 39L12 38L11 38L11 41L12 41L12 43L10 43L10 44L9 44L9 42L8 42L8 45L7 45L7 46L8 46L8 45L9 45L9 51L10 51L10 53L9 53L9 52L8 52L8 55L7 55L7 56L6 56L6 57L9 57L9 56L8 56L8 55L10 55L10 53L11 53L11 54L12 54L12 53L11 53L11 52L13 52L13 50L14 50L14 51L15 51L15 52L16 52L16 53L15 53L15 54L14 54L14 53L13 53L13 55L11 55L11 56L10 56L10 57L11 57L11 56L12 56L12 58L11 58L11 59L12 59L12 58L13 58L13 59L15 59L15 60L16 60L16 61L17 61L17 62L18 62L18 61L19 61L19 58L20 58L20 60L21 60L21 55L20 55L20 53L19 53L19 52L20 52L20 51L21 51L21 52L22 52L22 51L21 51L21 48L20 48L20 47L19 47L19 49L18 49L18 50L20 50L20 51L19 51L19 52L18 52L18 51L17 51L17 50L16 50L16 49L13 49L13 48L14 48L14 47L16 47L16 48L17 48L17 47L18 47L18 46L17 46L17 45L16 45L16 44L15 44L15 42L14 42L14 44L13 44L13 41L15 41L15 40L14 40L14 39L15 39L15 38L16 38L16 37L17 37L17 36L16 36L16 37L14 37L14 36L15 36L15 35L16 35L16 34L18 34L18 35L20 35L20 34L21 34L21 33L20 33L20 32L19 32L19 31L20 31L20 29L21 29L21 28L20 28L20 27L19 27L19 28L16 28L16 27L18 27L18 26L17 26L17 24L18 24L18 25L19 25L19 22L20 22L20 24L21 24L21 21L19 21L19 20L21 20L21 19L20 19L20 18L21 18L21 17L18 17L18 16L16 16L16 15L18 15L18 14ZM24 14L24 15L25 15L25 14ZM67 16L67 17L68 17L68 16ZM17 17L17 18L18 18L18 17ZM50 17L50 18L51 18L51 17ZM13 18L13 19L14 19L14 18ZM15 18L15 20L16 20L16 18ZM30 18L30 19L31 19L31 18ZM37 18L37 19L38 19L38 20L39 20L39 19L38 19L38 18ZM7 19L7 20L6 20L6 21L8 21L8 19ZM17 19L17 20L19 20L19 19ZM46 19L46 20L48 20L48 19ZM63 19L63 20L64 20L64 19ZM12 20L12 21L13 21L13 20ZM33 21L33 22L35 22L35 21ZM43 21L43 22L44 22L44 23L45 23L45 25L46 25L46 27L47 27L47 28L46 28L46 30L47 30L47 32L51 32L51 31L49 31L49 29L50 29L50 28L51 28L51 25L52 25L52 24L51 24L51 22L49 22L49 21L47 21L47 22L46 22L46 23L45 23L45 22L44 22L44 21ZM16 22L16 23L14 23L14 24L17 24L17 23L18 23L18 22ZM37 22L37 23L34 23L34 24L35 24L35 26L36 26L36 24L38 24L38 22ZM31 23L31 24L33 24L33 23ZM47 23L47 27L49 27L49 26L50 26L50 25L51 25L51 24L48 24L48 23ZM12 24L12 25L13 25L13 24ZM39 24L39 25L38 25L38 26L37 26L37 27L38 27L38 26L39 26L39 25L40 25L40 26L41 26L41 25L40 25L40 24ZM4 25L4 26L5 26L5 25ZM14 25L14 27L15 27L15 25ZM33 25L33 26L34 26L34 25ZM12 26L12 27L11 27L11 28L13 28L13 29L14 29L14 28L13 28L13 26ZM31 26L31 27L32 27L32 26ZM60 27L60 28L61 28L61 27ZM67 27L67 28L68 28L68 27ZM19 28L19 29L16 29L16 30L19 30L19 29L20 29L20 28ZM47 28L47 29L49 29L49 28ZM55 28L55 29L56 29L56 28ZM2 29L2 30L3 30L3 31L2 31L2 32L3 32L3 31L4 31L4 32L5 32L5 31L6 31L6 32L7 32L7 31L6 31L6 30L8 30L8 31L9 31L9 29L6 29L6 30L5 30L5 29ZM57 29L57 30L56 30L56 31L58 31L58 29ZM36 30L36 31L37 31L37 30ZM16 31L16 32L17 32L17 33L18 33L18 32L17 32L17 31ZM22 31L22 32L24 32L24 31ZM55 32L55 33L53 33L53 34L54 34L54 36L56 36L56 35L55 35L55 33L56 33L56 32ZM5 33L5 36L8 36L8 33ZM9 33L9 35L10 35L10 33ZM19 33L19 34L20 34L20 33ZM33 33L33 36L36 36L36 33ZM47 33L47 34L45 34L45 35L48 35L48 36L47 36L47 37L46 37L46 36L45 36L45 37L44 37L44 38L42 38L42 39L44 39L44 38L45 38L45 40L44 40L44 41L43 41L43 40L42 40L42 41L43 41L43 42L44 42L44 43L42 43L42 42L39 42L39 43L38 43L38 42L37 42L37 43L38 43L38 45L39 45L39 43L41 43L41 44L40 44L40 45L42 45L42 44L44 44L44 43L45 43L45 44L46 44L46 45L47 45L47 44L48 44L48 42L49 42L49 41L47 41L47 40L48 40L48 38L49 38L49 37L48 37L48 36L49 36L49 35L48 35L48 33ZM49 33L49 34L50 34L50 33ZM61 33L61 36L64 36L64 33ZM6 34L6 35L7 35L7 34ZM22 34L22 35L21 35L21 36L22 36L22 37L23 37L23 36L24 36L24 35L23 35L23 34ZM30 34L30 35L29 35L29 36L28 36L28 37L29 37L29 36L30 36L30 35L31 35L31 34ZM34 34L34 35L35 35L35 34ZM62 34L62 35L63 35L63 34ZM22 35L22 36L23 36L23 35ZM18 36L18 38L17 38L17 39L16 39L16 40L17 40L17 41L19 41L19 42L20 42L20 41L19 41L19 40L20 40L20 39L19 39L19 38L20 38L20 37L19 37L19 36ZM68 36L68 37L69 37L69 36ZM35 37L35 39L36 39L36 37ZM4 38L4 39L5 39L5 38ZM6 38L6 39L7 39L7 38ZM46 38L46 39L47 39L47 38ZM17 39L17 40L18 40L18 39ZM29 39L29 41L31 41L31 42L30 42L30 45L29 45L29 44L27 44L27 47L28 47L28 48L25 48L25 49L24 49L24 48L22 48L22 49L23 49L23 52L25 52L25 53L23 53L23 54L24 54L24 55L22 55L22 58L23 58L23 59L24 59L24 60L26 60L26 61L27 61L27 62L28 62L28 61L27 61L27 60L28 60L28 59L27 59L27 58L29 58L29 59L31 59L31 58L29 58L29 57L33 57L33 56L34 56L34 55L35 55L35 54L34 54L34 53L31 53L31 51L28 51L28 52L27 52L27 54L25 54L25 53L26 53L26 52L25 52L25 51L26 51L26 50L25 50L25 49L28 49L28 48L29 48L29 47L30 47L30 45L31 45L31 46L32 46L32 47L31 47L31 48L30 48L30 49L31 49L31 50L32 50L32 52L33 52L33 51L34 51L34 49L35 49L35 48L36 48L36 49L37 49L37 50L38 50L38 47L35 47L35 45L33 45L33 46L32 46L32 45L31 45L31 43L32 43L32 44L33 44L33 41L31 41L31 39ZM12 40L12 41L13 41L13 40ZM22 40L22 44L21 44L21 45L24 45L24 44L25 44L25 41L24 41L24 40ZM1 41L1 42L3 42L3 41ZM23 41L23 44L24 44L24 41ZM27 41L27 42L28 42L28 43L29 43L29 42L28 42L28 41ZM44 41L44 42L46 42L46 41ZM6 42L6 43L7 43L7 42ZM16 42L16 43L17 43L17 42ZM35 42L35 43L36 43L36 42ZM46 43L46 44L47 44L47 43ZM10 44L10 46L12 46L12 47L11 47L11 48L10 48L10 49L11 49L11 50L10 50L10 51L11 51L11 50L13 50L13 49L11 49L11 48L13 48L13 47L14 47L14 45L13 45L13 44L12 44L12 45L11 45L11 44ZM0 45L0 46L1 46L1 45ZM63 45L63 47L65 47L65 45ZM33 46L33 47L34 47L34 46ZM42 47L42 48L43 48L43 50L44 50L44 48L43 48L43 47ZM47 47L47 48L48 48L48 47ZM53 47L53 49L54 49L54 48L55 48L55 49L56 49L56 50L57 50L57 49L56 49L56 47ZM3 48L3 50L4 50L4 52L5 52L5 48ZM32 48L32 50L33 50L33 49L34 49L34 48ZM66 48L66 49L64 49L64 50L65 50L65 51L66 51L66 50L67 50L67 51L68 51L68 50L67 50L67 49L68 49L68 48ZM1 49L1 50L2 50L2 49ZM49 49L49 50L51 50L51 49ZM60 49L60 50L59 50L59 51L62 51L62 50L61 50L61 49ZM15 50L15 51L16 51L16 50ZM2 51L2 52L3 52L3 51ZM17 52L17 53L16 53L16 54L17 54L17 53L18 53L18 55L13 55L13 56L14 56L14 58L15 58L15 56L16 56L16 58L17 58L17 56L19 56L19 57L20 57L20 55L19 55L19 53L18 53L18 52ZM60 52L60 53L61 53L61 52ZM21 53L21 54L22 54L22 53ZM28 53L28 54L27 54L27 55L26 55L26 56L25 56L25 57L26 57L26 58L27 58L27 56L29 56L29 55L28 55L28 54L30 54L30 55L31 55L31 53ZM43 53L43 54L44 54L44 53ZM51 53L51 54L53 54L53 53ZM56 53L56 56L57 56L57 55L60 55L60 54L58 54L58 53ZM66 53L66 54L67 54L67 55L68 55L68 54L67 54L67 53ZM32 54L32 55L34 55L34 54ZM52 55L52 56L53 56L53 55ZM54 55L54 56L55 56L55 55ZM23 57L23 58L24 58L24 57ZM47 57L47 58L46 58L46 59L47 59L47 58L48 58L48 57ZM0 58L0 61L1 61L1 58ZM8 58L8 59L9 59L9 58ZM36 58L36 59L37 59L37 58ZM62 58L62 59L60 59L60 60L63 60L63 58ZM26 59L26 60L27 60L27 59ZM3 60L3 61L5 61L5 60ZM11 60L11 61L12 61L12 60ZM43 60L43 61L44 61L44 60ZM56 60L56 61L57 61L57 60ZM33 61L33 64L36 64L36 61ZM61 61L61 64L64 64L64 61ZM34 62L34 63L35 63L35 62ZM62 62L62 63L63 63L63 62ZM65 62L65 63L66 63L66 62ZM19 63L19 64L20 64L20 63ZM59 63L59 65L58 65L58 67L59 67L59 68L60 68L60 66L59 66L59 65L60 65L60 63ZM67 63L67 64L65 64L65 66L66 66L66 65L67 65L67 64L68 64L68 63ZM13 64L13 65L12 65L12 66L10 66L10 67L13 67L13 65L14 65L14 64ZM31 64L31 65L32 65L32 67L33 67L33 65L32 65L32 64ZM34 65L34 66L35 66L35 67L34 67L34 68L35 68L35 67L36 67L36 66L35 66L35 65ZM14 66L14 67L15 67L15 66ZM42 66L42 67L43 67L43 66ZM51 66L51 67L52 67L52 66ZM20 68L20 69L21 69L21 68ZM0 0L0 7L7 7L7 0ZM1 1L1 6L6 6L6 1ZM2 2L2 5L5 5L5 2ZM62 0L62 7L69 7L69 0ZM63 1L63 6L68 6L68 1ZM64 2L64 5L67 5L67 2ZM0 62L0 69L7 69L7 62ZM1 63L1 68L6 68L6 63ZM2 64L2 67L5 67L5 64Z" fill="#000000"/></g></g></svg>
