<?xml version="1.0" encoding="UTF-8"?>
<svg xmlns="http://www.w3.org/2000/svg" version="1.1" width="300" height="300" viewBox="0 0 300 300"><rect x="0" y="0" width="300" height="300" fill="#ffffff"/><g transform="scale(4.348)"><g transform="translate(0,0)"><path fill-rule="evenodd" d="M8 0L8 4L9 4L9 5L8 5L8 7L9 7L9 5L10 5L10 3L11 3L11 6L10 6L10 8L9 8L9 9L8 9L8 10L9 10L9 9L10 9L10 8L13 8L13 5L14 5L14 2L13 2L13 3L12 3L12 2L11 2L11 1L12 1L12 0L11 0L11 1L10 1L10 0ZM13 0L13 1L14 1L14 0ZM15 0L15 3L16 3L16 4L17 4L17 3L18 3L18 2L16 2L16 1L20 1L20 2L21 2L21 3L19 3L19 4L18 4L18 8L17 8L17 10L16 10L16 8L14 8L14 9L15 9L15 11L14 11L14 10L13 10L13 9L11 9L11 10L10 10L10 11L11 11L11 10L13 10L13 11L12 11L12 13L11 13L11 12L9 12L9 11L7 11L7 10L5 10L5 9L7 9L7 8L4 8L4 9L2 9L2 8L0 8L0 10L1 10L1 9L2 9L2 10L4 10L4 11L7 11L7 12L6 12L6 13L8 13L8 17L7 17L7 16L5 16L5 17L4 17L4 16L0 16L0 17L2 17L2 20L1 20L1 19L0 19L0 23L1 23L1 25L0 25L0 27L3 27L3 28L1 28L1 29L0 29L0 31L1 31L1 32L0 32L0 33L1 33L1 34L0 34L0 35L1 35L1 36L0 36L0 39L1 39L1 36L2 36L2 33L3 33L3 36L4 36L4 38L3 38L3 37L2 37L2 38L3 38L3 39L2 39L2 40L0 40L0 41L2 41L2 42L0 42L0 44L1 44L1 43L2 43L2 44L6 44L6 45L1 45L1 46L0 46L0 52L1 52L1 53L0 53L0 54L1 54L1 56L0 56L0 57L1 57L1 58L0 58L0 61L1 61L1 58L2 58L2 59L3 59L3 58L4 58L4 59L8 59L8 62L10 62L10 64L9 64L9 63L8 63L8 65L10 65L10 67L8 67L8 69L12 69L12 68L13 68L13 66L14 66L14 67L15 67L15 68L16 68L16 69L20 69L20 68L19 68L19 67L20 67L20 66L21 66L21 69L22 69L22 64L20 64L20 63L21 63L21 62L22 62L22 63L23 63L23 68L24 68L24 69L25 69L25 67L24 67L24 66L26 66L26 69L28 69L28 68L27 68L27 67L28 67L28 66L30 66L30 65L31 65L31 67L30 67L30 68L29 68L29 69L31 69L31 67L32 67L32 69L33 69L33 68L34 68L34 69L35 69L35 68L34 68L34 67L37 67L37 66L34 66L34 65L38 65L38 67L39 67L39 66L40 66L40 63L41 63L41 67L40 67L40 68L38 68L38 69L40 69L40 68L42 68L42 67L43 67L43 63L44 63L44 69L46 69L46 67L45 67L45 63L46 63L46 64L47 64L47 66L48 66L48 65L50 65L50 66L49 66L49 67L47 67L47 69L50 69L50 68L49 68L49 67L50 67L50 66L51 66L51 67L52 67L52 68L51 68L51 69L52 69L52 68L54 68L54 69L55 69L55 68L56 68L56 69L57 69L57 66L58 66L58 67L59 67L59 66L58 66L58 65L60 65L60 66L61 66L61 67L60 67L60 68L59 68L59 69L64 69L64 68L65 68L65 69L67 69L67 68L65 68L65 66L69 66L69 64L68 64L68 65L65 65L65 63L66 63L66 62L67 62L67 61L68 61L68 60L69 60L69 59L68 59L68 58L69 58L69 57L68 57L68 54L67 54L67 53L69 53L69 52L68 52L68 50L64 50L64 49L63 49L63 48L64 48L64 47L66 47L66 46L67 46L67 49L69 49L69 47L68 47L68 46L69 46L69 44L68 44L68 42L69 42L69 41L68 41L68 40L69 40L69 39L68 39L68 38L69 38L69 35L68 35L68 33L69 33L69 32L68 32L68 30L64 30L64 31L67 31L67 32L68 32L68 33L66 33L66 32L63 32L63 31L62 31L62 30L63 30L63 29L64 29L64 27L65 27L65 26L66 26L66 27L67 27L67 28L68 28L68 29L69 29L69 28L68 28L68 26L67 26L67 24L69 24L69 23L68 23L68 22L69 22L69 20L68 20L68 18L66 18L66 19L65 19L65 17L64 17L64 16L65 16L65 14L64 14L64 15L62 15L62 14L63 14L63 13L64 13L64 12L65 12L65 11L66 11L66 10L67 10L67 11L68 11L68 10L69 10L69 8L65 8L65 10L63 10L63 9L64 9L64 8L63 8L63 9L62 9L62 10L63 10L63 11L60 11L60 10L61 10L61 9L60 9L60 7L61 7L61 6L60 6L60 7L59 7L59 4L57 4L57 6L56 6L56 5L55 5L55 4L56 4L56 3L59 3L59 2L57 2L57 0L53 0L53 1L52 1L52 0L50 0L50 1L46 1L46 0L45 0L45 1L44 1L44 0L41 0L41 1L40 1L40 0L37 0L37 1L33 1L33 0L32 0L32 1L31 1L31 0L30 0L30 1L29 1L29 0L23 0L23 1L26 1L26 3L25 3L25 2L24 2L24 3L22 3L22 2L21 2L21 1L22 1L22 0ZM58 0L58 1L61 1L61 0ZM27 1L27 3L26 3L26 5L27 5L27 7L28 7L28 5L29 5L29 4L31 4L31 5L30 5L30 6L29 6L29 7L30 7L30 6L31 6L31 7L32 7L32 6L31 6L31 5L32 5L32 2L33 2L33 4L34 4L34 2L33 2L33 1L32 1L32 2L30 2L30 3L29 3L29 2L28 2L28 1ZM37 1L37 3L38 3L38 4L40 4L40 5L39 5L39 7L40 7L40 11L41 11L41 14L40 14L40 13L39 13L39 14L38 14L38 13L37 13L37 12L36 12L36 13L34 13L34 11L33 11L33 10L32 10L32 11L31 11L31 10L30 10L30 9L31 9L31 8L30 8L30 9L26 9L26 8L25 8L25 9L24 9L24 8L22 8L22 6L23 6L23 7L24 7L24 6L25 6L25 7L26 7L26 6L25 6L25 5L22 5L22 3L21 3L21 7L20 7L20 4L19 4L19 8L20 8L20 9L19 9L19 10L20 10L20 11L19 11L19 12L20 12L20 11L21 11L21 12L22 12L22 18L21 18L21 17L19 17L19 16L18 16L18 17L14 17L14 15L13 15L13 13L15 13L15 16L17 16L17 15L18 15L18 13L17 13L17 12L16 12L16 11L15 11L15 12L13 12L13 13L12 13L12 15L11 15L11 13L10 13L10 15L9 15L9 17L8 17L8 18L9 18L9 21L8 21L8 19L5 19L5 21L4 21L4 23L5 23L5 24L8 24L8 22L12 22L12 23L10 23L10 25L3 25L3 24L2 24L2 26L3 26L3 27L5 27L5 28L4 28L4 29L5 29L5 31L4 31L4 30L3 30L3 31L4 31L4 32L8 32L8 30L7 30L7 29L8 29L8 28L7 28L7 27L6 27L6 26L9 26L9 27L10 27L10 25L11 25L11 24L13 24L13 23L14 23L14 24L15 24L15 25L17 25L17 26L16 26L16 27L13 27L13 28L15 28L15 29L16 29L16 30L17 30L17 28L18 28L18 25L17 25L17 24L16 24L16 23L18 23L18 24L19 24L19 22L20 22L20 20L19 20L19 22L18 22L18 21L17 21L17 18L18 18L18 19L20 19L20 18L21 18L21 20L22 20L22 21L21 21L21 23L20 23L20 25L19 25L19 27L21 27L21 26L22 26L22 30L21 30L21 32L22 32L22 33L21 33L21 34L20 34L20 35L18 35L18 34L17 34L17 33L18 33L18 32L19 32L19 33L20 33L20 29L19 29L19 30L18 30L18 31L17 31L17 33L16 33L16 35L15 35L15 36L14 36L14 34L13 34L13 33L15 33L15 32L16 32L16 31L15 31L15 32L14 32L14 31L11 31L11 30L12 30L12 29L11 29L11 28L12 28L12 26L11 26L11 28L9 28L9 30L10 30L10 31L9 31L9 34L10 34L10 35L9 35L9 36L10 36L10 37L13 37L13 38L11 38L11 39L10 39L10 38L9 38L9 37L8 37L8 39L6 39L6 38L7 38L7 37L6 37L6 38L4 38L4 39L6 39L6 40L4 40L4 41L3 41L3 40L2 40L2 41L3 41L3 42L8 42L8 41L9 41L9 42L10 42L10 43L9 43L9 44L8 44L8 43L6 43L6 44L7 44L7 45L6 45L6 46L7 46L7 45L8 45L8 47L9 47L9 48L10 48L10 49L9 49L9 50L10 50L10 49L11 49L11 50L12 50L12 51L11 51L11 53L10 53L10 52L9 52L9 51L8 51L8 50L7 50L7 49L6 49L6 48L7 48L7 47L5 47L5 46L3 46L3 47L5 47L5 49L4 49L4 50L3 50L3 49L2 49L2 47L1 47L1 49L2 49L2 50L3 50L3 51L1 51L1 52L2 52L2 53L1 53L1 54L2 54L2 55L3 55L3 54L2 54L2 53L3 53L3 51L5 51L5 52L4 52L4 53L5 53L5 52L7 52L7 53L6 53L6 54L9 54L9 53L10 53L10 54L11 54L11 55L10 55L10 56L12 56L12 57L8 57L8 58L12 58L12 57L17 57L17 58L16 58L16 59L14 59L14 58L13 58L13 59L12 59L12 60L14 60L14 61L15 61L15 60L16 60L16 62L17 62L17 61L18 61L18 63L17 63L17 65L16 65L16 63L14 63L14 64L12 64L12 62L13 62L13 61L11 61L11 59L10 59L10 61L11 61L11 64L10 64L10 65L12 65L12 66L13 66L13 65L14 65L14 66L15 66L15 67L16 67L16 66L17 66L17 65L18 65L18 64L19 64L19 65L20 65L20 64L19 64L19 62L20 62L20 61L18 61L18 60L20 60L20 58L19 58L19 57L21 57L21 58L23 58L23 59L22 59L22 62L23 62L23 63L24 63L24 62L23 62L23 59L24 59L24 61L26 61L26 62L27 62L27 63L30 63L30 62L31 62L31 63L32 63L32 62L31 62L31 61L29 61L29 60L28 60L28 59L29 59L29 57L30 57L30 56L31 56L31 60L32 60L32 57L33 57L33 56L34 56L34 58L33 58L33 59L34 59L34 58L35 58L35 57L37 57L37 58L38 58L38 56L39 56L39 55L40 55L40 57L39 57L39 58L40 58L40 59L41 59L41 58L40 58L40 57L41 57L41 56L42 56L42 57L44 57L44 54L45 54L45 53L46 53L46 54L48 54L48 53L46 53L46 52L47 52L47 51L48 51L48 52L50 52L50 51L51 51L51 53L52 53L52 55L51 55L51 54L50 54L50 53L49 53L49 55L48 55L48 56L49 56L49 55L50 55L50 56L52 56L52 57L51 57L51 58L50 58L50 57L46 57L46 58L48 58L48 59L49 59L49 63L48 63L48 64L50 64L50 63L51 63L51 64L52 64L52 66L53 66L53 67L54 67L54 68L55 68L55 67L54 67L54 65L56 65L56 66L57 66L57 65L58 65L58 64L60 64L60 62L59 62L59 61L60 61L60 60L59 60L59 61L58 61L58 62L57 62L57 63L58 63L58 64L57 64L57 65L56 65L56 62L53 62L53 63L54 63L54 64L52 64L52 61L54 61L54 60L55 60L55 61L56 61L56 60L58 60L58 59L57 59L57 58L56 58L56 56L59 56L59 57L58 57L58 58L59 58L59 57L60 57L60 56L62 56L62 57L64 57L64 58L65 58L65 60L68 60L68 59L66 59L66 58L68 58L68 57L66 57L66 58L65 58L65 57L64 57L64 56L67 56L67 55L64 55L64 54L66 54L66 52L67 52L67 51L65 51L65 52L64 52L64 51L63 51L63 50L62 50L62 49L61 49L61 48L63 48L63 46L62 46L62 45L63 45L63 43L65 43L65 44L64 44L64 46L66 46L66 44L67 44L67 45L68 45L68 44L67 44L67 43L66 43L66 42L65 42L65 41L64 41L64 42L63 42L63 39L64 39L64 40L65 40L65 39L64 39L64 38L66 38L66 37L61 37L61 38L62 38L62 43L61 43L61 46L62 46L62 47L60 47L60 46L59 46L59 45L60 45L60 44L58 44L58 43L59 43L59 41L61 41L61 40L58 40L58 38L59 38L59 39L60 39L60 36L59 36L59 35L60 35L60 32L62 32L62 31L60 31L60 32L59 32L59 33L58 33L58 32L57 32L57 33L58 33L58 34L56 34L56 32L55 32L55 34L54 34L54 35L55 35L55 36L52 36L52 37L51 37L51 36L49 36L49 37L48 37L48 35L49 35L49 34L50 34L50 35L51 35L51 34L52 34L52 35L53 35L53 33L54 33L54 31L55 31L55 30L54 30L54 31L52 31L52 33L51 33L51 34L50 34L50 33L48 33L48 35L47 35L47 37L46 37L46 34L47 34L47 33L46 33L46 32L45 32L45 33L44 33L44 31L45 31L45 30L44 30L44 28L45 28L45 29L46 29L46 31L47 31L47 32L49 32L49 30L50 30L50 32L51 32L51 30L52 30L52 29L54 29L54 28L55 28L55 29L56 29L56 28L59 28L59 29L58 29L58 30L59 30L59 29L60 29L60 28L61 28L61 30L62 30L62 29L63 29L63 27L64 27L64 26L65 26L65 24L67 24L67 23L65 23L65 20L64 20L64 21L63 21L63 19L64 19L64 17L63 17L63 19L62 19L62 15L61 15L61 14L62 14L62 12L60 12L60 13L58 13L58 12L57 12L57 13L58 13L58 14L59 14L59 15L61 15L61 18L60 18L60 19L59 19L59 20L58 20L58 18L59 18L59 16L57 16L57 17L58 17L58 18L56 18L56 15L57 15L57 14L56 14L56 12L55 12L55 15L54 15L54 14L53 14L53 15L52 15L52 13L54 13L54 12L52 12L52 13L51 13L51 12L50 12L50 13L49 13L49 14L50 14L50 15L52 15L52 17L51 17L51 16L49 16L49 15L47 15L47 16L46 16L46 15L45 15L45 17L46 17L46 18L47 18L47 21L46 21L46 22L48 22L48 23L47 23L47 25L46 25L46 26L47 26L47 27L43 27L43 26L41 26L41 25L42 25L42 24L43 24L43 25L44 25L44 24L45 24L45 23L44 23L44 20L46 20L46 19L44 19L44 18L41 18L41 17L42 17L42 16L40 16L40 19L39 19L39 18L38 18L38 16L39 16L39 15L42 15L42 13L44 13L44 14L43 14L43 17L44 17L44 14L45 14L45 13L46 13L46 14L47 14L47 11L46 11L46 10L47 10L47 8L49 8L49 9L50 9L50 8L49 8L49 7L50 7L50 6L51 6L51 7L52 7L52 9L51 9L51 11L52 11L52 10L53 10L53 9L56 9L56 11L58 11L58 10L60 10L60 9L58 9L58 10L57 10L57 9L56 9L56 8L58 8L58 6L57 6L57 7L56 7L56 6L55 6L55 7L54 7L54 6L53 6L53 7L52 7L52 5L53 5L53 4L52 4L52 3L51 3L51 2L52 2L52 1L51 1L51 2L48 2L48 3L47 3L47 4L46 4L46 5L44 5L44 4L45 4L45 3L46 3L46 1L45 1L45 3L44 3L44 2L43 2L43 3L44 3L44 4L43 4L43 5L44 5L44 6L43 6L43 8L41 8L41 7L42 7L42 6L41 6L41 7L40 7L40 5L41 5L41 4L40 4L40 1ZM41 1L41 2L42 2L42 1ZM55 1L55 3L56 3L56 1ZM9 2L9 3L10 3L10 2ZM27 3L27 5L28 5L28 4L29 4L29 3ZM50 3L50 5L49 5L49 4L47 4L47 5L48 5L48 7L49 7L49 6L50 6L50 5L52 5L52 4L51 4L51 3ZM60 3L60 5L61 5L61 3ZM12 4L12 5L13 5L13 4ZM15 5L15 6L14 6L14 7L15 7L15 6L16 6L16 7L17 7L17 6L16 6L16 5ZM33 5L33 8L36 8L36 5ZM37 5L37 10L38 10L38 12L39 12L39 10L38 10L38 9L39 9L39 8L38 8L38 5ZM11 6L11 7L12 7L12 6ZM34 6L34 7L35 7L35 6ZM44 6L44 7L45 7L45 8L44 8L44 9L45 9L45 10L46 10L46 9L45 9L45 8L47 8L47 6L46 6L46 7L45 7L45 6ZM20 9L20 10L21 10L21 11L22 11L22 9ZM23 9L23 11L24 11L24 12L23 12L23 14L24 14L24 15L25 15L25 17L23 17L23 19L22 19L22 20L23 20L23 22L25 22L25 23L23 23L23 24L22 24L22 23L21 23L21 25L20 25L20 26L21 26L21 25L24 25L24 26L26 26L26 29L25 29L25 28L24 28L24 27L23 27L23 28L24 28L24 29L23 29L23 30L22 30L22 32L23 32L23 33L22 33L22 34L26 34L26 37L25 37L25 35L24 35L24 36L23 36L23 38L21 38L21 37L22 37L22 36L20 36L20 39L19 39L19 38L18 38L18 39L17 39L17 38L16 38L16 36L17 36L17 37L19 37L19 36L17 36L17 35L16 35L16 36L15 36L15 37L14 37L14 38L13 38L13 40L15 40L15 41L13 41L13 43L10 43L10 45L12 45L12 44L13 44L13 43L15 43L15 44L14 44L14 46L12 46L12 47L13 47L13 49L12 49L12 50L13 50L13 51L12 51L12 53L13 53L13 54L14 54L14 53L15 53L15 55L17 55L17 54L18 54L18 55L20 55L20 56L21 56L21 57L24 57L24 58L26 58L26 61L27 61L27 62L28 62L28 60L27 60L27 59L28 59L28 57L29 57L29 55L30 55L30 54L32 54L32 52L33 52L33 51L34 51L34 52L35 52L35 53L38 53L38 52L39 52L39 51L40 51L40 48L41 48L41 47L38 47L38 48L37 48L37 47L36 47L36 45L38 45L38 46L39 46L39 45L40 45L40 46L41 46L41 45L42 45L42 49L41 49L41 52L42 52L42 50L43 50L43 51L44 51L44 53L42 53L42 55L43 55L43 54L44 54L44 53L45 53L45 50L46 50L46 51L47 51L47 50L46 50L46 49L45 49L45 48L47 48L47 49L50 49L50 50L52 50L52 51L53 51L53 53L54 53L54 55L52 55L52 56L53 56L53 57L52 57L52 58L51 58L51 59L53 59L53 60L54 60L54 59L55 59L55 60L56 60L56 58L55 58L55 56L54 56L54 55L55 55L55 54L57 54L57 55L58 55L58 52L59 52L59 50L58 50L58 48L59 48L59 47L58 47L58 45L57 45L57 44L56 44L56 45L55 45L55 43L58 43L58 41L57 41L57 40L56 40L56 41L57 41L57 42L55 42L55 41L54 41L54 40L53 40L53 41L52 41L52 42L51 42L51 39L57 39L57 38L58 38L58 37L57 37L57 36L58 36L58 35L59 35L59 34L58 34L58 35L56 35L56 34L55 34L55 35L56 35L56 37L52 37L52 38L51 38L51 37L50 37L50 38L51 38L51 39L50 39L50 43L51 43L51 44L50 44L50 45L49 45L49 43L48 43L48 44L46 44L46 45L45 45L45 44L44 44L44 45L45 45L45 48L44 48L44 47L43 47L43 44L41 44L41 43L39 43L39 42L43 42L43 39L45 39L45 40L44 40L44 43L45 43L45 42L46 42L46 37L45 37L45 34L46 34L46 33L45 33L45 34L44 34L44 33L40 33L40 31L44 31L44 30L43 30L43 28L42 28L42 27L40 27L40 24L41 24L41 23L40 23L40 22L43 22L43 20L42 20L42 21L40 21L40 20L39 20L39 19L37 19L37 20L36 20L36 17L37 17L37 16L36 16L36 15L35 15L35 14L34 14L34 15L33 15L33 17L34 17L34 18L35 18L35 19L33 19L33 20L32 20L32 18L31 18L31 16L32 16L32 14L33 14L33 12L32 12L32 13L31 13L31 12L29 12L29 10L28 10L28 12L26 12L26 11L27 11L27 10L26 10L26 9L25 9L25 10L24 10L24 9ZM35 9L35 11L36 11L36 9ZM41 9L41 10L42 10L42 12L44 12L44 13L45 13L45 12L46 12L46 11L45 11L45 12L44 12L44 11L43 11L43 9ZM25 10L25 11L26 11L26 10ZM54 10L54 11L55 11L55 10ZM0 11L0 13L1 13L1 14L0 14L0 15L1 15L1 14L2 14L2 15L3 15L3 13L4 13L4 15L7 15L7 14L5 14L5 12L2 12L2 11ZM8 12L8 13L9 13L9 12ZM25 12L25 15L26 15L26 16L28 16L28 17L27 17L27 19L26 19L26 20L25 20L25 19L23 19L23 20L25 20L25 21L26 21L26 20L27 20L27 19L28 19L28 18L29 18L29 16L28 16L28 15L27 15L27 13L26 13L26 12ZM28 12L28 14L29 14L29 15L30 15L30 16L31 16L31 14L29 14L29 12ZM67 12L67 16L66 16L66 17L67 17L67 16L68 16L68 17L69 17L69 15L68 15L68 14L69 14L69 12ZM19 13L19 15L20 15L20 13ZM50 13L50 14L51 14L51 13ZM60 13L60 14L61 14L61 13ZM37 14L37 15L38 15L38 14ZM11 16L11 17L9 17L9 18L10 18L10 19L13 19L13 18L14 18L14 20L11 20L11 21L12 21L12 22L15 22L15 21L16 21L16 19L15 19L15 18L14 18L14 17L12 17L12 16ZM34 16L34 17L35 17L35 16ZM47 16L47 18L48 18L48 17L49 17L49 16ZM53 16L53 22L54 22L54 24L53 24L53 26L52 26L52 23L50 23L50 27L47 27L47 28L46 28L46 29L47 29L47 30L48 30L48 29L50 29L50 30L51 30L51 29L52 29L52 28L53 28L53 27L54 27L54 26L55 26L55 28L56 28L56 26L57 26L57 27L58 27L58 25L57 25L57 24L56 24L56 23L55 23L55 22L56 22L56 21L57 21L57 22L58 22L58 24L59 24L59 26L60 26L60 27L61 27L61 28L62 28L62 27L63 27L63 26L64 26L64 25L62 25L62 24L63 24L63 23L64 23L64 22L63 22L63 21L62 21L62 19L60 19L60 20L59 20L59 21L60 21L60 22L61 22L61 23L59 23L59 22L58 22L58 21L57 21L57 19L56 19L56 18L55 18L55 17L54 17L54 16ZM6 17L6 18L7 18L7 17ZM11 17L11 18L12 18L12 17ZM18 17L18 18L19 18L19 17ZM25 17L25 18L26 18L26 17ZM50 17L50 18L51 18L51 17ZM30 18L30 19L29 19L29 21L27 21L27 22L26 22L26 23L25 23L25 25L26 25L26 26L27 26L27 25L28 25L28 27L27 27L27 28L28 28L28 27L29 27L29 28L31 28L31 27L33 27L33 28L32 28L32 29L31 29L31 30L29 30L29 29L27 29L27 30L28 30L28 31L27 31L27 32L26 32L26 31L25 31L25 30L23 30L23 32L24 32L24 31L25 31L25 33L29 33L29 32L28 32L28 31L30 31L30 32L31 32L31 31L32 31L32 32L35 32L35 31L37 31L37 30L38 30L38 31L39 31L39 30L38 30L38 29L40 29L40 30L42 30L42 28L40 28L40 27L38 27L38 28L37 28L37 26L38 26L38 25L39 25L39 24L40 24L40 23L39 23L39 20L38 20L38 21L37 21L37 22L35 22L35 21L34 21L34 22L33 22L33 23L31 23L31 22L32 22L32 20L31 20L31 18ZM48 19L48 22L49 22L49 19ZM55 19L55 21L56 21L56 19ZM66 19L66 21L68 21L68 20L67 20L67 19ZM6 20L6 21L5 21L5 22L6 22L6 23L7 23L7 22L6 22L6 21L7 21L7 20ZM14 20L14 21L15 21L15 20ZM30 20L30 21L29 21L29 22L28 22L28 23L27 23L27 24L26 24L26 25L27 25L27 24L28 24L28 23L30 23L30 21L31 21L31 20ZM50 20L50 22L52 22L52 20ZM60 20L60 21L61 21L61 22L62 22L62 23L63 23L63 22L62 22L62 21L61 21L61 20ZM1 22L1 23L2 23L2 22ZM34 22L34 24L33 24L33 25L34 25L34 28L35 28L35 27L36 27L36 26L37 26L37 25L38 25L38 24L37 24L37 23L36 23L36 24L35 24L35 22ZM48 23L48 25L47 25L47 26L49 26L49 23ZM30 24L30 25L29 25L29 26L32 26L32 24ZM34 24L34 25L35 25L35 24ZM54 24L54 25L56 25L56 24ZM60 24L60 25L61 25L61 27L62 27L62 25L61 25L61 24ZM50 27L50 28L52 28L52 27ZM5 28L5 29L7 29L7 28ZM36 28L36 29L33 29L33 31L34 31L34 30L37 30L37 28ZM65 28L65 29L66 29L66 28ZM10 29L10 30L11 30L11 29ZM13 29L13 30L14 30L14 29ZM6 30L6 31L7 31L7 30ZM56 30L56 31L57 31L57 30ZM10 32L10 33L11 33L11 36L13 36L13 35L12 35L12 33L13 33L13 32ZM38 32L38 33L37 33L37 34L38 34L38 33L39 33L39 32ZM5 33L5 36L8 36L8 33ZM31 33L31 34L28 34L28 35L27 35L27 36L28 36L28 38L27 38L27 39L28 39L28 40L27 40L27 41L28 41L28 42L27 42L27 43L26 43L26 44L25 44L25 46L24 46L24 47L26 47L26 48L28 48L28 49L27 49L27 51L24 51L24 50L23 50L23 49L25 49L25 50L26 50L26 49L25 49L25 48L22 48L22 49L19 49L19 48L20 48L20 45L21 45L21 43L19 43L19 42L20 42L20 41L22 41L22 42L23 42L23 41L24 41L24 42L25 42L25 41L26 41L26 40L25 40L25 39L26 39L26 38L25 38L25 39L23 39L23 40L22 40L22 39L21 39L21 40L20 40L20 41L17 41L17 39L16 39L16 38L15 38L15 40L16 40L16 41L15 41L15 43L16 43L16 42L17 42L17 43L18 43L18 44L20 44L20 45L19 45L19 48L18 48L18 49L17 49L17 47L18 47L18 45L17 45L17 44L15 44L15 45L16 45L16 50L17 50L17 51L15 51L15 49L13 49L13 50L14 50L14 51L13 51L13 53L14 53L14 52L15 52L15 53L16 53L16 54L17 54L17 53L16 53L16 52L17 52L17 51L18 51L18 52L19 52L19 51L20 51L20 50L21 50L21 52L22 52L22 53L21 53L21 54L20 54L20 53L18 53L18 54L20 54L20 55L22 55L22 56L25 56L25 57L26 57L26 58L27 58L27 57L28 57L28 56L27 56L27 57L26 57L26 55L27 55L27 54L26 54L26 52L27 52L27 53L28 53L28 55L29 55L29 53L28 53L28 52L27 52L27 51L28 51L28 50L29 50L29 51L30 51L30 49L29 49L29 48L28 48L28 47L30 47L30 48L34 48L34 49L31 49L31 52L32 52L32 51L33 51L33 50L34 50L34 49L36 49L36 50L35 50L35 52L37 52L37 50L38 50L38 51L39 51L39 50L38 50L38 49L39 49L39 48L38 48L38 49L37 49L37 48L36 48L36 47L35 47L35 46L33 46L33 47L32 47L32 46L31 46L31 45L30 45L30 46L29 46L29 44L28 44L28 47L27 47L27 45L26 45L26 44L27 44L27 43L29 43L29 42L30 42L30 43L32 43L32 45L33 45L33 44L34 44L34 45L36 45L36 44L37 44L37 43L38 43L38 45L39 45L39 43L38 43L38 41L39 41L39 38L41 38L41 37L42 37L42 36L41 36L41 34L39 34L39 35L37 35L37 37L32 37L32 36L31 36L31 35L32 35L32 33ZM33 33L33 36L36 36L36 33ZM61 33L61 36L64 36L64 33ZM65 33L65 36L67 36L67 37L68 37L68 35L66 35L66 33ZM6 34L6 35L7 35L7 34ZM34 34L34 35L35 35L35 34ZM43 34L43 38L42 38L42 39L43 39L43 38L45 38L45 37L44 37L44 34ZM62 34L62 35L63 35L63 34ZM29 35L29 37L30 37L30 39L29 39L29 41L30 41L30 42L32 42L32 43L36 43L36 42L37 42L37 41L36 41L36 40L35 40L35 39L38 39L38 38L39 38L39 37L40 37L40 35L39 35L39 36L38 36L38 37L37 37L37 38L35 38L35 39L34 39L34 38L32 38L32 37L31 37L31 36L30 36L30 35ZM47 37L47 42L49 42L49 40L48 40L48 39L49 39L49 38L48 38L48 37ZM31 38L31 40L30 40L30 41L31 41L31 40L32 40L32 38ZM9 39L9 40L10 40L10 42L12 42L12 39L11 39L11 40L10 40L10 39ZM40 39L40 41L41 41L41 39ZM66 39L66 41L67 41L67 42L68 42L68 41L67 41L67 40L68 40L68 39ZM6 40L6 41L7 41L7 40ZM24 40L24 41L25 41L25 40ZM33 40L33 41L32 41L32 42L33 42L33 41L35 41L35 40ZM53 41L53 42L52 42L52 45L51 45L51 46L53 46L53 47L54 47L54 49L55 49L55 50L56 50L56 49L55 49L55 47L56 47L56 46L57 46L57 45L56 45L56 46L55 46L55 47L54 47L54 45L53 45L53 44L54 44L54 41ZM22 43L22 47L23 47L23 45L24 45L24 43ZM46 45L46 47L47 47L47 48L50 48L50 49L51 49L51 48L52 48L52 50L53 50L53 48L52 48L52 47L47 47L47 45ZM10 46L10 47L11 47L11 46ZM34 47L34 48L35 48L35 47ZM57 47L57 48L58 48L58 47ZM43 48L43 49L44 49L44 50L45 50L45 49L44 49L44 48ZM5 49L5 51L7 51L7 50L6 50L6 49ZM18 49L18 50L19 50L19 49ZM22 50L22 51L23 51L23 50ZM48 50L48 51L49 51L49 50ZM60 50L60 52L61 52L61 54L60 54L60 53L59 53L59 55L62 55L62 53L63 53L63 54L64 54L64 53L63 53L63 51L62 51L62 50ZM55 51L55 52L54 52L54 53L56 53L56 51ZM57 51L57 52L58 52L58 51ZM8 52L8 53L9 53L9 52ZM24 52L24 53L23 53L23 55L24 55L24 54L25 54L25 55L26 55L26 54L25 54L25 52ZM33 53L33 54L34 54L34 56L35 56L35 55L36 55L36 54L34 54L34 53ZM39 53L39 54L40 54L40 55L41 55L41 54L40 54L40 53ZM4 54L4 55L5 55L5 56L4 56L4 57L5 57L5 58L7 58L7 57L5 57L5 56L8 56L8 55L5 55L5 54ZM13 55L13 56L14 56L14 55ZM31 55L31 56L32 56L32 55ZM63 55L63 56L64 56L64 55ZM2 56L2 58L3 58L3 56ZM17 56L17 57L19 57L19 56ZM42 58L42 61L43 61L43 62L42 62L42 63L43 63L43 62L45 62L45 61L46 61L46 62L47 62L47 59L45 59L45 58ZM49 58L49 59L50 59L50 58ZM53 58L53 59L54 59L54 58ZM62 58L62 59L61 59L61 60L64 60L64 59L63 59L63 58ZM35 59L35 60L38 60L38 59ZM44 59L44 61L45 61L45 59ZM3 60L3 61L5 61L5 60ZM6 60L6 61L7 61L7 60ZM39 60L39 62L38 62L38 61L37 61L37 62L38 62L38 63L37 63L37 64L38 64L38 65L39 65L39 63L40 63L40 62L41 62L41 60ZM50 60L50 62L51 62L51 60ZM33 61L33 64L36 64L36 61ZM61 61L61 64L64 64L64 61ZM34 62L34 63L35 63L35 62ZM62 62L62 63L63 63L63 62ZM25 63L25 65L30 65L30 64L26 64L26 63ZM14 64L14 65L15 65L15 66L16 66L16 65L15 65L15 64ZM31 64L31 65L32 65L32 66L33 66L33 67L34 67L34 66L33 66L33 65L32 65L32 64ZM61 65L61 66L63 66L63 67L62 67L62 68L64 68L64 66L63 66L63 65ZM36 68L36 69L37 69L37 68ZM68 68L68 69L69 69L69 68ZM0 0L0 7L7 7L7 0ZM1 1L1 6L6 6L6 1ZM2 2L2 5L5 5L5 2ZM62 0L62 7L69 7L69 0ZM63 1L63 6L68 6L68 1ZM64 2L64 5L67 5L67 2ZM0 62L0 69L7 69L7 62ZM1 63L1 68L6 68L6 63ZM2 64L2 67L5 67L5 64Z" fill="#000000"/></g></g></svg>
