<?xml version="1.0" encoding="UTF-8"?>
<svg xmlns="http://www.w3.org/2000/svg" version="1.1" width="300" height="300" viewBox="0 0 300 300"><rect x="0" y="0" width="300" height="300" fill="#ffffff"/><g transform="scale(4.348)"><g transform="translate(0,0)"><path fill-rule="evenodd" d="M8 0L8 4L10 4L10 5L11 5L11 4L12 4L12 7L11 7L11 6L10 6L10 8L11 8L11 9L8 9L8 10L6 10L6 11L5 11L5 10L4 10L4 11L5 11L5 14L4 14L4 12L3 12L3 13L2 13L2 8L0 8L0 9L1 9L1 10L0 10L0 11L1 11L1 12L0 12L0 15L1 15L1 16L5 16L5 17L8 17L8 16L5 16L5 14L6 14L6 15L7 15L7 14L9 14L9 13L7 13L7 12L6 12L6 11L8 11L8 10L11 10L11 11L12 11L12 9L13 9L13 6L14 6L14 7L15 7L15 5L14 5L14 4L12 4L12 3L14 3L14 2L15 2L15 4L16 4L16 3L17 3L17 2L18 2L18 3L19 3L19 1L20 1L20 2L21 2L21 3L20 3L20 5L16 5L16 8L15 8L15 9L14 9L14 10L13 10L13 12L14 12L14 11L15 11L15 13L16 13L16 11L15 11L15 10L17 10L17 9L19 9L19 8L20 8L20 11L24 11L24 12L25 12L25 13L23 13L23 14L21 14L21 13L22 13L22 12L18 12L18 11L19 11L19 10L18 10L18 11L17 11L17 14L18 14L18 15L17 15L17 17L15 17L15 14L14 14L14 13L12 13L12 14L11 14L11 12L10 12L10 14L11 14L11 15L9 15L9 16L10 16L10 17L9 17L9 18L6 18L6 19L5 19L5 18L4 18L4 17L0 17L0 18L1 18L1 19L3 19L3 18L4 18L4 19L5 19L5 21L7 21L7 20L6 20L6 19L9 19L9 20L8 20L8 21L9 21L9 20L11 20L11 21L10 21L10 23L9 23L9 22L8 22L8 23L7 23L7 22L6 22L6 23L4 23L4 24L5 24L5 25L7 25L7 26L6 26L6 27L5 27L5 26L4 26L4 25L3 25L3 26L1 26L1 25L2 25L2 24L3 24L3 23L2 23L2 22L4 22L4 21L2 21L2 20L1 20L1 21L0 21L0 23L1 23L1 25L0 25L0 26L1 26L1 27L0 27L0 30L1 30L1 31L2 31L2 32L3 32L3 33L1 33L1 34L0 34L0 36L1 36L1 37L0 37L0 38L1 38L1 39L0 39L0 41L1 41L1 43L0 43L0 50L1 50L1 48L2 48L2 49L3 49L3 50L4 50L4 49L5 49L5 52L4 52L4 51L2 51L2 52L1 52L1 53L0 53L0 54L2 54L2 55L1 55L1 57L0 57L0 61L1 61L1 58L2 58L2 59L3 59L3 58L4 58L4 59L7 59L7 58L8 58L8 60L9 60L9 58L8 58L8 57L9 57L9 55L7 55L7 54L6 54L6 53L8 53L8 54L9 54L9 53L10 53L10 54L11 54L11 55L12 55L12 56L13 56L13 59L12 59L12 58L11 58L11 56L10 56L10 64L9 64L9 63L8 63L8 65L9 65L9 67L8 67L8 69L13 69L13 67L15 67L15 68L14 68L14 69L16 69L16 68L17 68L17 69L20 69L20 68L18 68L18 66L19 66L19 67L20 67L20 66L22 66L22 67L21 67L21 69L22 69L22 67L23 67L23 69L25 69L25 68L26 68L26 69L28 69L28 68L26 68L26 67L28 67L28 66L31 66L31 67L30 67L30 68L29 68L29 69L31 69L31 67L33 67L33 68L32 68L32 69L33 69L33 68L34 68L34 69L35 69L35 68L34 68L34 67L39 67L39 68L38 68L38 69L40 69L40 67L39 67L39 66L40 66L40 63L41 63L41 69L43 69L43 63L44 63L44 69L46 69L46 67L45 67L45 63L44 63L44 62L46 62L46 64L47 64L47 63L48 63L48 65L47 65L47 69L50 69L50 68L48 68L48 67L50 67L50 66L51 66L51 69L52 69L52 68L53 68L53 67L54 67L54 66L55 66L55 67L56 67L56 66L57 66L57 64L58 64L58 65L59 65L59 64L60 64L60 66L62 66L62 67L61 67L61 68L62 68L62 69L63 69L63 68L64 68L64 69L67 69L67 68L65 68L65 67L67 67L67 66L69 66L69 64L68 64L68 65L67 65L67 66L66 66L66 65L65 65L65 63L66 63L66 62L67 62L67 61L68 61L68 60L69 60L69 59L68 59L68 58L69 58L69 57L68 57L68 58L66 58L66 57L65 57L65 59L64 59L64 60L63 60L63 59L62 59L62 58L64 58L64 57L62 57L62 58L61 58L61 59L60 59L60 58L59 58L59 60L58 60L58 57L59 57L59 55L60 55L60 57L61 57L61 56L64 56L64 55L65 55L65 54L64 54L64 53L63 53L63 54L64 54L64 55L60 55L60 54L59 54L59 55L56 55L56 58L57 58L57 60L56 60L56 61L57 61L57 62L56 62L56 65L55 65L55 63L54 63L54 64L53 64L53 63L52 63L52 62L55 62L55 61L52 61L52 59L53 59L53 60L55 60L55 57L54 57L54 59L53 59L53 58L52 58L52 56L54 56L54 55L55 55L55 54L56 54L56 53L58 53L58 52L60 52L60 53L61 53L61 54L62 54L62 52L63 52L63 51L62 51L62 50L64 50L64 52L65 52L65 51L67 51L67 53L66 53L66 54L67 54L67 56L68 56L68 54L67 54L67 53L69 53L69 52L68 52L68 50L67 50L67 49L69 49L69 48L68 48L68 46L69 46L69 43L68 43L68 42L69 42L69 39L68 39L68 38L69 38L69 35L68 35L68 32L69 32L69 31L68 31L68 32L67 32L67 35L68 35L68 38L67 38L67 36L65 36L65 35L66 35L66 34L65 34L65 33L66 33L66 32L63 32L63 31L62 31L62 30L64 30L64 31L67 31L67 30L64 30L64 28L65 28L65 29L66 29L66 27L64 27L64 28L63 28L63 29L62 29L62 30L61 30L61 28L62 28L62 27L63 27L63 25L64 25L64 26L66 26L66 25L67 25L67 27L68 27L68 22L69 22L69 20L68 20L68 18L65 18L65 17L64 17L64 16L65 16L65 13L64 13L64 10L66 10L66 11L68 11L68 9L69 9L69 8L65 8L65 9L64 9L64 8L63 8L63 9L62 9L62 11L61 11L61 9L60 9L60 7L61 7L61 6L60 6L60 7L59 7L59 4L58 4L58 5L57 5L57 6L56 6L56 5L55 5L55 4L56 4L56 2L57 2L57 3L59 3L59 2L58 2L58 1L61 1L61 0L58 0L58 1L57 1L57 0L53 0L53 2L51 2L51 0L50 0L50 2L49 2L49 0L48 0L48 1L47 1L47 2L46 2L46 3L45 3L45 1L46 1L46 0L45 0L45 1L44 1L44 0L40 0L40 4L41 4L41 6L40 6L40 5L39 5L39 4L38 4L38 3L37 3L37 2L38 2L38 1L39 1L39 0L38 0L38 1L36 1L36 0L34 0L34 1L36 1L36 2L34 2L34 4L32 4L32 3L31 3L31 4L29 4L29 3L30 3L30 2L31 2L31 1L32 1L32 2L33 2L33 0L31 0L31 1L30 1L30 0L23 0L23 1L22 1L22 0L15 0L15 1L14 1L14 0L13 0L13 2L12 2L12 1L11 1L11 0ZM9 1L9 2L10 2L10 3L12 3L12 2L11 2L11 1ZM15 1L15 2L17 2L17 1ZM21 1L21 2L22 2L22 1ZM25 1L25 2L24 2L24 3L23 3L23 5L22 5L22 3L21 3L21 5L20 5L20 6L19 6L19 7L20 7L20 8L21 8L21 9L22 9L22 10L23 10L23 9L24 9L24 10L25 10L25 9L26 9L26 12L28 12L28 15L32 15L32 17L31 17L31 18L30 18L30 17L29 17L29 16L28 16L28 17L27 17L27 18L26 18L26 17L25 17L25 15L26 15L26 16L27 16L27 13L25 13L25 14L24 14L24 15L20 15L20 13L19 13L19 15L20 15L20 16L22 16L22 19L21 19L21 20L22 20L22 22L21 22L21 23L20 23L20 24L19 24L19 25L18 25L18 26L19 26L19 27L17 27L17 26L16 26L16 27L14 27L14 26L15 26L15 25L17 25L17 24L18 24L18 23L17 23L17 21L18 21L18 22L20 22L20 21L18 21L18 19L20 19L20 18L21 18L21 17L19 17L19 16L18 16L18 17L17 17L17 19L16 19L16 20L17 20L17 21L15 21L15 20L12 20L12 21L11 21L11 22L12 22L12 23L11 23L11 26L10 26L10 27L9 27L9 28L7 28L7 27L8 27L8 26L7 26L7 27L6 27L6 28L5 28L5 27L3 27L3 28L4 28L4 29L6 29L6 30L3 30L3 29L1 29L1 30L3 30L3 31L5 31L5 32L7 32L7 31L6 31L6 30L8 30L8 29L9 29L9 31L8 31L8 32L9 32L9 37L11 37L11 38L12 38L12 39L15 39L15 37L14 37L14 38L13 38L13 35L14 35L14 36L15 36L15 33L16 33L16 34L17 34L17 33L18 33L18 32L19 32L19 33L20 33L20 32L21 32L21 31L22 31L22 33L21 33L21 34L20 34L20 35L19 35L19 34L18 34L18 35L19 35L19 38L18 38L18 40L19 40L19 42L20 42L20 43L21 43L21 42L20 42L20 40L19 40L19 39L20 39L20 36L21 36L21 34L22 34L22 37L21 37L21 38L22 38L22 37L23 37L23 39L24 39L24 40L22 40L22 39L21 39L21 41L22 41L22 42L23 42L23 41L24 41L24 42L25 42L25 45L26 45L26 46L25 46L25 47L26 47L26 48L28 48L28 49L27 49L27 50L26 50L26 49L25 49L25 50L26 50L26 51L24 51L24 50L21 50L21 49L19 49L19 48L18 48L18 49L16 49L16 50L14 50L14 49L15 49L15 48L17 48L17 47L18 47L18 45L17 45L17 44L16 44L16 46L15 46L15 45L14 45L14 46L13 46L13 45L11 45L11 46L10 46L10 47L12 47L12 48L11 48L11 49L9 49L9 47L8 47L8 48L7 48L7 47L6 47L6 48L7 48L7 49L6 49L6 50L7 50L7 51L6 51L6 52L8 52L8 53L9 53L9 52L10 52L10 53L12 53L12 55L13 55L13 53L14 53L14 57L17 57L17 58L16 58L16 59L15 59L15 58L14 58L14 59L15 59L15 60L13 60L13 62L11 62L11 63L12 63L12 64L14 64L14 65L16 65L16 66L15 66L15 67L17 67L17 65L18 65L18 64L19 64L19 65L20 65L20 64L19 64L19 63L20 63L20 61L18 61L18 63L16 63L16 64L14 64L14 63L15 63L15 62L14 62L14 61L16 61L16 62L17 62L17 60L19 60L19 59L18 59L18 58L20 58L20 57L21 57L21 58L22 58L22 59L20 59L20 60L22 60L22 61L21 61L21 63L22 63L22 66L23 66L23 67L25 67L25 66L23 66L23 63L24 63L24 64L25 64L25 65L29 65L29 64L26 64L26 63L25 63L25 62L23 62L23 63L22 63L22 61L23 61L23 60L22 60L22 59L24 59L24 61L26 61L26 58L27 58L27 57L26 57L26 56L25 56L25 55L28 55L28 54L29 54L29 53L27 53L27 54L25 54L25 55L23 55L23 53L26 53L26 51L28 51L28 50L29 50L29 51L30 51L30 49L29 49L29 47L30 47L30 48L32 48L32 49L31 49L31 52L32 52L32 49L33 49L33 50L34 50L34 49L36 49L36 50L35 50L35 52L34 52L34 51L33 51L33 53L31 53L31 54L30 54L30 55L29 55L29 56L28 56L28 60L27 60L27 61L28 61L28 62L27 62L27 63L28 63L28 62L30 62L30 63L32 63L32 62L31 62L31 61L28 61L28 60L31 60L31 59L32 59L32 60L33 60L33 59L35 59L35 60L37 60L37 65L36 65L36 66L38 66L38 60L37 60L37 59L38 59L38 57L39 57L39 58L40 58L40 59L41 59L41 58L40 58L40 57L41 57L41 56L42 56L42 57L44 57L44 54L45 54L45 53L46 53L46 54L47 54L47 56L49 56L49 54L50 54L50 55L51 55L51 56L50 56L50 57L46 57L46 58L49 58L49 64L50 64L50 63L51 63L51 64L52 64L52 66L53 66L53 64L52 64L52 63L51 63L51 62L52 62L52 61L51 61L51 60L50 60L50 57L51 57L51 56L52 56L52 55L54 55L54 53L53 53L53 52L52 52L52 51L50 51L50 49L49 49L49 51L46 51L46 50L47 50L47 48L45 48L45 47L47 47L47 44L48 44L48 43L49 43L49 44L50 44L50 45L49 45L49 47L50 47L50 45L51 45L51 46L52 46L52 47L51 47L51 49L52 49L52 50L53 50L53 49L54 49L54 48L55 48L55 50L54 50L54 51L56 51L56 50L57 50L57 52L58 52L58 50L59 50L59 51L60 51L60 50L62 50L62 47L63 47L63 48L64 48L64 50L65 50L65 49L67 49L67 46L68 46L68 43L66 43L66 41L67 41L67 42L68 42L68 40L67 40L67 39L66 39L66 37L61 37L61 38L59 38L59 37L60 37L60 36L58 36L58 34L59 34L59 35L60 35L60 34L59 34L59 33L60 33L60 32L62 32L62 31L61 31L61 30L60 30L60 31L59 31L59 29L60 29L60 28L61 28L61 27L57 27L57 26L56 26L56 24L57 24L57 25L58 25L58 26L59 26L59 25L58 25L58 24L59 24L59 23L60 23L60 24L61 24L61 22L62 22L62 24L63 24L63 22L64 22L64 25L65 25L65 24L67 24L67 22L68 22L68 20L67 20L67 19L65 19L65 20L64 20L64 21L63 21L63 20L62 20L62 21L61 21L61 20L60 20L60 21L58 21L58 20L59 20L59 19L58 19L58 18L59 18L59 17L61 17L61 19L62 19L62 15L63 15L63 14L64 14L64 13L63 13L63 12L62 12L62 13L61 13L61 11L59 11L59 8L58 8L58 12L57 12L57 13L58 13L58 14L59 14L59 15L58 15L58 16L57 16L57 17L58 17L58 18L56 18L56 15L54 15L54 14L52 14L52 13L53 13L53 12L52 12L52 11L51 11L51 10L50 10L50 8L51 8L51 7L52 7L52 3L51 3L51 2L50 2L50 3L49 3L49 2L47 2L47 4L46 4L46 5L44 5L44 4L45 4L45 3L44 3L44 2L42 2L42 1L41 1L41 3L42 3L42 4L43 4L43 5L44 5L44 6L43 6L43 8L40 8L40 6L39 6L39 7L38 7L38 5L37 5L37 7L38 7L38 8L37 8L37 9L38 9L38 8L40 8L40 10L41 10L41 14L40 14L40 13L39 13L39 12L38 12L38 11L37 11L37 12L36 12L36 13L34 13L34 11L33 11L33 10L32 10L32 11L31 11L31 10L30 10L30 9L31 9L31 8L32 8L32 6L31 6L31 5L32 5L32 4L31 4L31 5L30 5L30 6L29 6L29 7L28 7L28 5L29 5L29 4L28 4L28 3L29 3L29 2L28 2L28 1L27 1L27 3L26 3L26 4L25 4L25 7L24 7L24 6L23 6L23 5L24 5L24 3L25 3L25 2L26 2L26 1ZM55 1L55 2L56 2L56 1ZM35 3L35 4L36 4L36 3ZM43 3L43 4L44 4L44 3ZM50 3L50 7L49 7L49 6L48 6L48 7L49 7L49 8L47 8L47 6L46 6L46 7L45 7L45 6L44 6L44 7L45 7L45 8L44 8L44 9L45 9L45 10L46 10L46 11L43 11L43 9L41 9L41 10L42 10L42 12L43 12L43 13L42 13L42 15L38 15L38 16L37 16L37 15L35 15L35 14L34 14L34 15L33 15L33 17L34 17L34 16L37 16L37 17L36 17L36 18L37 18L37 21L36 21L36 22L37 22L37 21L38 21L38 20L39 20L39 21L40 21L40 20L39 20L39 19L40 19L40 16L42 16L42 17L41 17L41 18L44 18L44 19L45 19L45 18L46 18L46 20L44 20L44 23L45 23L45 24L44 24L44 25L43 25L43 24L42 24L42 25L41 25L41 26L43 26L43 27L45 27L45 28L44 28L44 29L43 29L43 28L42 28L42 27L40 27L40 24L41 24L41 22L43 22L43 21L42 21L42 19L41 19L41 22L39 22L39 23L40 23L40 24L38 24L38 23L35 23L35 20L36 20L36 19L34 19L34 18L31 18L31 19L33 19L33 20L32 20L32 21L34 21L34 23L33 23L33 22L31 22L31 23L33 23L33 24L32 24L32 26L33 26L33 27L29 27L29 26L31 26L31 24L30 24L30 25L29 25L29 24L28 24L28 25L27 25L27 24L26 24L26 26L25 26L25 24L24 24L24 23L23 23L23 24L22 24L22 23L21 23L21 25L19 25L19 26L20 26L20 27L19 27L19 28L17 28L17 29L19 29L19 28L20 28L20 30L22 30L22 31L23 31L23 32L24 32L24 33L22 33L22 34L23 34L23 35L24 35L24 34L25 34L25 36L26 36L26 37L27 37L27 38L28 38L28 37L27 37L27 35L28 35L28 34L29 34L29 33L31 33L31 34L32 34L32 36L30 36L30 35L29 35L29 37L30 37L30 39L27 39L27 40L26 40L26 41L25 41L25 40L24 40L24 41L25 41L25 42L26 42L26 45L27 45L27 47L29 47L29 46L30 46L30 47L31 47L31 46L32 46L32 47L33 47L33 49L34 49L34 47L33 47L33 45L34 45L34 46L35 46L35 47L36 47L36 48L37 48L37 49L38 49L38 50L39 50L39 51L37 51L37 52L35 52L35 53L38 53L38 52L39 52L39 51L40 51L40 48L41 48L41 47L38 47L38 48L37 48L37 47L36 47L36 46L37 46L37 45L38 45L38 46L39 46L39 45L40 45L40 46L41 46L41 45L42 45L42 49L41 49L41 51L42 51L42 50L43 50L43 51L44 51L44 53L39 53L39 57L40 57L40 55L43 55L43 54L44 54L44 53L45 53L45 50L46 50L46 49L45 49L45 48L44 48L44 47L43 47L43 46L44 46L44 45L45 45L45 46L46 46L46 45L45 45L45 44L46 44L46 43L45 43L45 42L46 42L46 37L49 37L49 36L50 36L50 35L51 35L51 37L50 37L50 38L49 38L49 39L48 39L48 38L47 38L47 42L48 42L48 41L50 41L50 42L51 42L51 41L52 41L52 43L51 43L51 45L52 45L52 46L54 46L54 47L55 47L55 48L56 48L56 49L57 49L57 50L58 50L58 49L57 49L57 48L58 48L58 47L59 47L59 48L60 48L60 49L59 49L59 50L60 50L60 49L61 49L61 47L62 47L62 46L63 46L63 47L64 47L64 45L63 45L63 44L64 44L64 41L66 41L66 39L65 39L65 38L64 38L64 39L63 39L63 40L62 40L62 38L61 38L61 39L60 39L60 40L62 40L62 41L63 41L63 43L62 43L62 42L61 42L61 41L60 41L60 42L61 42L61 43L59 43L59 42L58 42L58 41L59 41L59 38L58 38L58 36L56 36L56 37L57 37L57 38L58 38L58 41L57 41L57 40L56 40L56 41L52 41L52 40L55 40L55 39L56 39L56 38L55 38L55 37L54 37L54 36L53 36L53 38L52 38L52 40L49 40L49 39L50 39L50 38L51 38L51 37L52 37L52 35L53 35L53 34L55 34L55 33L57 33L57 34L58 34L58 32L59 32L59 31L58 31L58 32L57 32L57 31L55 31L55 32L54 32L54 33L52 33L52 32L53 32L53 30L56 30L56 29L57 29L57 28L56 28L56 29L55 29L55 27L56 27L56 26L55 26L55 25L54 25L54 22L55 22L55 24L56 24L56 23L59 23L59 22L58 22L58 21L57 21L57 20L58 20L58 19L56 19L56 18L55 18L55 16L54 16L54 17L52 17L52 16L53 16L53 15L52 15L52 16L51 16L51 17L50 17L50 20L49 20L49 18L48 18L48 19L47 19L47 18L46 18L46 17L49 17L49 16L50 16L50 15L49 15L49 13L50 13L50 14L51 14L51 13L52 13L52 12L51 12L51 11L50 11L50 10L49 10L49 8L50 8L50 7L51 7L51 3ZM53 3L53 4L55 4L55 3ZM60 3L60 5L61 5L61 3ZM26 4L26 9L27 9L27 11L28 11L28 12L29 12L29 14L33 14L33 12L32 12L32 13L31 13L31 12L29 12L29 11L30 11L30 10L28 10L28 9L27 9L27 8L28 8L28 7L27 7L27 5L28 5L28 4ZM48 4L48 5L49 5L49 4ZM8 5L8 7L9 7L9 5ZM33 5L33 8L36 8L36 5ZM17 6L17 7L18 7L18 6ZM20 6L20 7L21 7L21 6ZM22 6L22 8L23 8L23 6ZM30 6L30 7L29 7L29 9L30 9L30 8L31 8L31 6ZM34 6L34 7L35 7L35 6ZM41 6L41 7L42 7L42 6ZM53 6L53 7L54 7L54 6ZM55 6L55 7L56 7L56 6ZM57 6L57 7L58 7L58 6ZM4 8L4 9L7 9L7 8ZM24 8L24 9L25 9L25 8ZM45 8L45 9L46 9L46 10L47 10L47 8ZM52 8L52 9L56 9L56 11L57 11L57 9L56 9L56 8ZM35 9L35 11L36 11L36 9ZM63 9L63 10L64 10L64 9ZM46 11L46 12L45 12L45 13L44 13L44 15L43 15L43 17L44 17L44 15L45 15L45 17L46 17L46 16L47 16L47 15L46 15L46 14L47 14L47 11ZM37 12L37 13L38 13L38 14L39 14L39 13L38 13L38 12ZM50 12L50 13L51 13L51 12ZM55 12L55 14L56 14L56 12ZM59 12L59 14L61 14L61 15L60 15L60 16L61 16L61 15L62 15L62 14L63 14L63 13L62 13L62 14L61 14L61 13L60 13L60 12ZM66 12L66 13L67 13L67 12ZM1 13L1 14L2 14L2 15L4 15L4 14L2 14L2 13ZM6 13L6 14L7 14L7 13ZM45 13L45 14L46 14L46 13ZM68 13L68 14L67 14L67 16L66 16L66 17L67 17L67 16L68 16L68 17L69 17L69 16L68 16L68 14L69 14L69 13ZM12 14L12 15L11 15L11 17L10 17L10 18L9 18L9 19L10 19L10 18L12 18L12 19L13 19L13 18L14 18L14 19L15 19L15 17L13 17L13 16L12 16L12 15L14 15L14 14ZM48 15L48 16L49 16L49 15ZM23 16L23 17L24 17L24 18L25 18L25 20L24 20L24 19L23 19L23 22L25 22L25 23L26 23L26 21L27 21L27 23L28 23L28 21L29 21L29 23L30 23L30 21L31 21L31 20L30 20L30 21L29 21L29 18L28 18L28 19L27 19L27 20L26 20L26 18L25 18L25 17L24 17L24 16ZM18 17L18 18L19 18L19 17ZM37 17L37 18L38 18L38 19L39 19L39 18L38 18L38 17ZM51 17L51 19L52 19L52 21L51 21L51 22L50 22L50 21L49 21L49 22L48 22L48 21L46 21L46 22L47 22L47 25L46 25L46 26L47 26L47 25L48 25L48 27L49 27L49 26L50 26L50 28L51 28L51 26L52 26L52 29L51 29L51 30L50 30L50 29L48 29L48 30L47 30L47 27L46 27L46 30L45 30L45 29L44 29L44 31L40 31L40 33L44 33L44 34L43 34L43 38L41 38L41 37L42 37L42 36L41 36L41 34L39 34L39 35L37 35L37 37L31 37L31 40L30 40L30 41L29 41L29 40L27 40L27 41L26 41L26 42L27 42L27 43L30 43L30 44L28 44L28 46L29 46L29 45L30 45L30 46L31 46L31 45L33 45L33 41L32 41L32 42L30 42L30 41L31 41L31 40L32 40L32 38L37 38L37 37L38 37L38 36L40 36L40 37L39 37L39 38L38 38L38 39L35 39L35 40L34 40L34 39L33 39L33 40L34 40L34 42L35 42L35 43L34 43L34 45L37 45L37 43L38 43L38 45L39 45L39 43L41 43L41 44L43 44L43 45L44 45L44 44L45 44L45 43L44 43L44 40L45 40L45 39L43 39L43 38L45 38L45 37L46 37L46 34L48 34L48 33L46 33L46 32L45 32L45 33L44 33L44 31L46 31L46 30L47 30L47 31L48 31L48 32L49 32L49 31L51 31L51 30L52 30L52 29L54 29L54 28L53 28L53 27L54 27L54 26L53 26L53 21L55 21L55 22L56 22L56 19L55 19L55 20L53 20L53 18L52 18L52 17ZM63 17L63 19L64 19L64 17ZM25 20L25 21L26 21L26 20ZM66 20L66 21L67 21L67 20ZM13 21L13 22L14 22L14 25L13 25L13 26L11 26L11 28L12 28L12 27L13 27L13 31L14 31L14 33L13 33L13 32L12 32L12 29L11 29L11 30L10 30L10 31L9 31L9 32L10 32L10 33L12 33L12 34L10 34L10 36L12 36L12 35L13 35L13 34L14 34L14 33L15 33L15 31L14 31L14 29L15 29L15 30L16 30L16 29L15 29L15 28L14 28L14 27L13 27L13 26L14 26L14 25L15 25L15 24L17 24L17 23L16 23L16 22L14 22L14 21ZM60 21L60 22L61 22L61 21ZM62 21L62 22L63 22L63 21ZM64 21L64 22L65 22L65 21ZM49 22L49 23L48 23L48 25L50 25L50 26L51 26L51 25L52 25L52 23L50 23L50 22ZM6 23L6 24L7 24L7 25L8 25L8 24L7 24L7 23ZM49 23L49 24L50 24L50 25L51 25L51 24L50 24L50 23ZM9 24L9 25L10 25L10 24ZM35 24L35 25L37 25L37 26L36 26L36 27L35 27L35 28L34 28L34 27L33 27L33 28L32 28L32 29L29 29L29 28L28 28L28 27L27 27L27 26L26 26L26 28L25 28L25 26L24 26L24 25L21 25L21 26L22 26L22 27L20 27L20 28L21 28L21 29L23 29L23 28L22 28L22 27L24 27L24 28L25 28L25 30L26 30L26 28L27 28L27 29L28 29L28 31L30 31L30 30L31 30L31 31L32 31L32 32L37 32L37 34L38 34L38 31L39 31L39 30L38 30L38 29L40 29L40 30L42 30L42 28L40 28L40 27L38 27L38 24ZM28 25L28 26L29 26L29 25ZM1 27L1 28L2 28L2 27ZM37 27L37 28L36 28L36 29L38 29L38 27ZM6 28L6 29L7 29L7 28ZM58 28L58 29L59 29L59 28ZM68 28L68 29L69 29L69 28ZM33 29L33 31L34 31L34 30L35 30L35 29ZM17 30L17 31L16 31L16 33L17 33L17 31L18 31L18 30ZM25 31L25 33L29 33L29 32L26 32L26 31ZM50 32L50 33L49 33L49 35L47 35L47 36L49 36L49 35L50 35L50 33L51 33L51 34L52 34L52 33L51 33L51 32ZM3 33L3 34L1 34L1 36L2 36L2 35L3 35L3 37L2 37L2 39L1 39L1 40L2 40L2 39L3 39L3 37L4 37L4 38L5 38L5 39L6 39L6 40L5 40L5 41L6 41L6 42L7 42L7 43L5 43L5 42L4 42L4 40L3 40L3 42L2 42L2 44L1 44L1 45L3 45L3 42L4 42L4 43L5 43L5 44L4 44L4 46L7 46L7 45L9 45L9 43L10 43L10 44L11 44L11 42L12 42L12 44L13 44L13 43L14 43L14 42L15 42L15 43L16 43L16 42L17 42L17 39L16 39L16 41L14 41L14 40L13 40L13 41L14 41L14 42L12 42L12 41L9 41L9 42L8 42L8 41L6 41L6 40L7 40L7 39L6 39L6 38L7 38L7 37L4 37L4 35L3 35L3 34L4 34L4 33ZM5 33L5 36L8 36L8 33ZM33 33L33 36L36 36L36 33ZM45 33L45 34L44 34L44 37L45 37L45 34L46 34L46 33ZM61 33L61 36L64 36L64 33ZM6 34L6 35L7 35L7 34ZM34 34L34 35L35 35L35 34ZM62 34L62 35L63 35L63 34ZM16 35L16 38L17 38L17 35ZM23 36L23 37L24 37L24 39L26 39L26 38L25 38L25 37L24 37L24 36ZM8 38L8 39L10 39L10 40L11 40L11 39L10 39L10 38ZM39 38L39 39L38 39L38 40L39 40L39 41L38 41L38 43L39 43L39 42L43 42L43 39L41 39L41 38ZM54 38L54 39L55 39L55 38ZM40 39L40 41L41 41L41 39ZM64 39L64 40L63 40L63 41L64 41L64 40L65 40L65 39ZM35 40L35 42L37 42L37 40ZM27 41L27 42L28 42L28 41ZM54 42L54 43L55 43L55 42ZM56 42L56 43L57 43L57 42ZM23 43L23 44L22 44L22 46L20 46L20 47L21 47L21 48L22 48L22 49L23 49L23 47L22 47L22 46L23 46L23 44L24 44L24 43ZM31 43L31 44L30 44L30 45L31 45L31 44L32 44L32 43ZM52 43L52 45L55 45L55 44L53 44L53 43ZM61 43L61 44L59 44L59 45L58 45L58 44L57 44L57 45L56 45L56 46L57 46L57 47L58 47L58 46L59 46L59 47L61 47L61 46L62 46L62 45L61 45L61 44L62 44L62 43ZM6 44L6 45L7 45L7 44ZM19 44L19 45L21 45L21 44ZM66 44L66 46L65 46L65 47L66 47L66 46L67 46L67 44ZM57 45L57 46L58 46L58 45ZM59 45L59 46L60 46L60 45ZM1 46L1 47L2 47L2 46ZM12 46L12 47L13 47L13 46ZM16 46L16 47L17 47L17 46ZM3 47L3 48L5 48L5 47ZM13 48L13 49L11 49L11 50L10 50L10 51L11 51L11 52L12 52L12 51L11 51L11 50L13 50L13 51L14 51L14 52L15 52L15 51L14 51L14 50L13 50L13 49L14 49L14 48ZM38 48L38 49L39 49L39 48ZM43 48L43 49L44 49L44 50L45 50L45 49L44 49L44 48ZM7 49L7 50L9 50L9 49ZM18 49L18 50L17 50L17 51L16 51L16 52L17 52L17 51L18 51L18 50L19 50L19 49ZM20 50L20 51L19 51L19 52L18 52L18 53L17 53L17 54L18 54L18 53L20 53L20 54L22 54L22 52L23 52L23 51L22 51L22 52L21 52L21 50ZM49 51L49 52L46 52L46 53L47 53L47 54L48 54L48 53L50 53L50 54L51 54L51 53L52 53L52 54L53 54L53 53L52 53L52 52L51 52L51 53L50 53L50 51ZM55 52L55 53L56 53L56 52ZM2 53L2 54L5 54L5 55L3 55L3 56L4 56L4 57L6 57L6 58L7 58L7 57L6 57L6 56L7 56L7 55L6 55L6 54L5 54L5 53ZM15 53L15 56L16 56L16 53ZM33 53L33 54L32 54L32 57L33 57L33 58L32 58L32 59L33 59L33 58L34 58L34 56L35 56L35 55L34 55L34 53ZM5 55L5 56L6 56L6 55ZM19 55L19 56L17 56L17 57L20 57L20 56L21 56L21 57L24 57L24 58L25 58L25 56L22 56L22 55ZM33 55L33 56L34 56L34 55ZM30 56L30 57L29 57L29 59L30 59L30 58L31 58L31 56ZM37 56L37 57L36 57L36 58L37 58L37 57L38 57L38 56ZM57 56L57 57L58 57L58 56ZM2 57L2 58L3 58L3 57ZM42 58L42 61L43 61L43 62L42 62L42 63L43 63L43 62L44 62L44 59L45 59L45 58ZM51 58L51 59L52 59L52 58ZM11 59L11 60L12 60L12 59ZM61 59L61 60L62 60L62 59ZM65 59L65 61L66 61L66 60L67 60L67 59ZM3 60L3 61L5 61L5 60ZM6 60L6 61L7 61L7 60ZM39 60L39 63L40 63L40 62L41 62L41 60ZM45 60L45 61L46 61L46 62L47 62L47 60ZM57 60L57 61L58 61L58 63L60 63L60 60L59 60L59 61L58 61L58 60ZM8 61L8 62L9 62L9 61ZM33 61L33 64L36 64L36 61ZM50 61L50 62L51 62L51 61ZM61 61L61 64L64 64L64 61ZM34 62L34 63L35 63L35 62ZM62 62L62 63L63 63L63 62ZM10 64L10 65L11 65L11 64ZM31 64L31 65L32 65L32 66L33 66L33 65L32 65L32 64ZM34 65L34 66L35 66L35 65ZM48 65L48 66L50 66L50 65ZM63 65L63 67L62 67L62 68L63 68L63 67L64 67L64 66L65 66L65 65ZM11 66L11 68L12 68L12 67L13 67L13 66ZM57 67L57 68L56 68L56 69L59 69L59 68L60 68L60 67ZM36 68L36 69L37 69L37 68ZM54 68L54 69L55 69L55 68ZM68 68L68 69L69 69L69 68ZM0 0L0 7L7 7L7 0ZM1 1L1 6L6 6L6 1ZM2 2L2 5L5 5L5 2ZM62 0L62 7L69 7L69 0ZM63 1L63 6L68 6L68 1ZM64 2L64 5L67 5L67 2ZM0 62L0 69L7 69L7 62ZM1 63L1 68L6 68L6 63ZM2 64L2 67L5 67L5 64Z" fill="#000000"/></g></g></svg>
