<?xml version="1.0" encoding="UTF-8"?>
<svg xmlns="http://www.w3.org/2000/svg" version="1.1" width="300" height="300" viewBox="0 0 300 300"><rect x="0" y="0" width="300" height="300" fill="#ffffff"/><g transform="scale(4.348)"><g transform="translate(0,0)"><path fill-rule="evenodd" d="M11 0L11 1L10 1L10 2L9 2L9 1L8 1L8 2L9 2L9 3L8 3L8 4L9 4L9 5L8 5L8 7L9 7L9 5L10 5L10 4L12 4L12 2L13 2L13 0ZM14 0L14 1L15 1L15 2L14 2L14 3L15 3L15 4L14 4L14 5L15 5L15 6L14 6L14 7L13 7L13 5L11 5L11 6L10 6L10 9L9 9L9 8L6 8L6 9L5 9L5 8L0 8L0 9L3 9L3 10L0 10L0 11L1 11L1 12L0 12L0 13L1 13L1 12L2 12L2 11L4 11L4 12L5 12L5 13L4 13L4 14L0 14L0 15L1 15L1 16L0 16L0 17L1 17L1 18L3 18L3 19L2 19L2 20L1 20L1 19L0 19L0 22L1 22L1 23L0 23L0 28L1 28L1 26L3 26L3 27L7 27L7 28L6 28L6 29L5 29L5 28L3 28L3 29L0 29L0 30L3 30L3 31L2 31L2 32L1 32L1 33L2 33L2 34L1 34L1 35L0 35L0 42L2 42L2 43L3 43L3 40L4 40L4 39L5 39L5 41L4 41L4 42L5 42L5 45L3 45L3 44L1 44L1 45L0 45L0 46L6 46L6 47L7 47L7 48L6 48L6 49L7 49L7 50L6 50L6 51L7 51L7 52L6 52L6 53L7 53L7 54L5 54L5 52L4 52L4 50L2 50L2 49L5 49L5 47L0 47L0 48L1 48L1 50L0 50L0 52L1 52L1 53L0 53L0 54L2 54L2 52L1 52L1 51L3 51L3 53L4 53L4 54L5 54L5 55L4 55L4 56L2 56L2 55L0 55L0 56L2 56L2 57L0 57L0 61L1 61L1 58L2 58L2 59L3 59L3 58L2 58L2 57L4 57L4 59L7 59L7 58L6 58L6 57L7 57L7 56L6 56L6 55L7 55L7 54L8 54L8 53L7 53L7 52L8 52L8 51L7 51L7 50L8 50L8 49L9 49L9 48L10 48L10 47L12 47L12 48L14 48L14 47L12 47L12 46L14 46L14 45L16 45L16 43L14 43L14 45L12 45L12 46L11 46L11 45L10 45L10 46L9 46L9 48L8 48L8 47L7 47L7 46L6 46L6 45L8 45L8 44L10 44L10 43L11 43L11 44L12 44L12 42L10 42L10 43L8 43L8 44L6 44L6 43L7 43L7 42L6 42L6 41L8 41L8 42L9 42L9 41L10 41L10 40L12 40L12 41L14 41L14 42L16 42L16 41L15 41L15 40L16 40L16 39L17 39L17 38L16 38L16 39L15 39L15 38L14 38L14 37L19 37L19 39L20 39L20 40L21 40L21 41L22 41L22 40L21 40L21 39L22 39L22 38L24 38L24 39L23 39L23 40L24 40L24 41L23 41L23 42L24 42L24 41L25 41L25 42L26 42L26 44L24 44L24 43L23 43L23 46L22 46L22 47L21 47L21 48L22 48L22 47L23 47L23 48L24 48L24 49L22 49L22 50L21 50L21 49L18 49L18 48L17 48L17 47L18 47L18 46L19 46L19 47L20 47L20 45L19 45L19 44L20 44L20 43L19 43L19 42L20 42L20 41L19 41L19 40L17 40L17 45L18 45L18 46L15 46L15 48L16 48L16 49L18 49L18 51L19 51L19 52L17 52L17 50L15 50L15 51L14 51L14 49L12 49L12 50L11 50L11 49L10 49L10 51L12 51L12 52L11 52L11 53L12 53L12 52L13 52L13 53L14 53L14 54L13 54L13 55L11 55L11 56L10 56L10 52L9 52L9 55L8 55L8 57L9 57L9 59L8 59L8 63L9 63L9 64L8 64L8 69L9 69L9 66L10 66L10 67L11 67L11 68L10 68L10 69L11 69L11 68L12 68L12 69L13 69L13 68L12 68L12 66L13 66L13 67L14 67L14 69L15 69L15 66L14 66L14 65L17 65L17 67L20 67L20 66L19 66L19 65L20 65L20 62L18 62L18 61L21 61L21 60L19 60L19 59L18 59L18 58L20 58L20 59L21 59L21 58L22 58L22 57L24 57L24 58L23 58L23 59L24 59L24 60L25 60L25 61L23 61L23 62L25 62L25 63L23 63L23 66L21 66L21 67L23 67L23 66L25 66L25 65L28 65L28 66L27 66L27 67L28 67L28 68L27 68L27 69L32 69L32 67L33 67L33 69L35 69L35 68L36 68L36 69L38 69L38 68L37 68L37 67L39 67L39 66L37 66L37 65L39 65L39 64L41 64L41 66L40 66L40 67L41 67L41 66L44 66L44 68L42 68L42 69L44 69L44 68L47 68L47 69L49 69L49 67L50 67L50 69L51 69L51 67L52 67L52 66L53 66L53 69L55 69L55 68L57 68L57 67L58 67L58 66L57 66L57 65L58 65L58 63L59 63L59 62L60 62L60 64L59 64L59 65L60 65L60 66L59 66L59 67L60 67L60 69L61 69L61 68L62 68L62 69L65 69L65 68L67 68L67 69L68 69L68 68L67 68L67 67L65 67L65 68L64 68L64 67L63 67L63 68L62 68L62 65L63 65L63 66L65 66L65 64L67 64L67 65L68 65L68 64L67 64L67 63L68 63L68 62L69 62L69 61L68 61L68 58L67 58L67 59L65 59L65 60L62 60L62 58L63 58L63 59L64 59L64 58L63 58L63 56L65 56L65 58L66 58L66 56L67 56L67 55L68 55L68 56L69 56L69 55L68 55L68 54L69 54L69 53L68 53L68 54L67 54L67 53L65 53L65 55L62 55L62 54L59 54L59 55L58 55L58 56L60 56L60 57L59 57L59 59L57 59L57 57L56 57L56 55L57 55L57 54L56 54L56 50L57 50L57 49L56 49L56 48L55 48L55 49L54 49L54 46L55 46L55 47L58 47L58 48L60 48L60 47L61 47L61 48L62 48L62 49L61 49L61 50L62 50L62 49L64 49L64 48L68 48L68 49L66 49L66 51L65 51L65 52L68 52L68 50L69 50L69 48L68 48L68 46L69 46L69 44L68 44L68 42L69 42L69 40L68 40L68 36L69 36L69 35L68 35L68 34L69 34L69 33L68 33L68 32L67 32L67 31L68 31L68 30L69 30L69 27L68 27L68 26L69 26L69 24L68 24L68 18L69 18L69 16L68 16L68 17L67 17L67 15L68 15L68 14L69 14L69 12L68 12L68 14L65 14L65 13L63 13L63 12L67 12L67 10L69 10L69 9L68 9L68 8L67 8L67 9L66 9L66 8L65 8L65 9L64 9L64 8L63 8L63 11L61 11L61 10L62 10L62 8L61 8L61 6L60 6L60 7L59 7L59 4L57 4L57 6L56 6L56 3L59 3L59 2L57 2L57 0L56 0L56 1L55 1L55 0L54 0L54 1L53 1L53 0L51 0L51 1L53 1L53 3L54 3L54 4L52 4L52 5L50 5L50 4L49 4L49 3L48 3L48 2L50 2L50 3L52 3L52 2L50 2L50 0L49 0L49 1L45 1L45 0L44 0L44 1L45 1L45 2L44 2L44 3L43 3L43 0L39 0L39 1L38 1L38 0L35 0L35 4L33 4L33 3L32 3L32 2L34 2L34 0L33 0L33 1L32 1L32 0L31 0L31 1L32 1L32 2L31 2L31 3L29 3L29 0L28 0L28 1L27 1L27 2L26 2L26 3L25 3L25 4L21 4L21 3L23 3L23 1L25 1L25 0L21 0L21 1L22 1L22 2L21 2L21 3L20 3L20 4L19 4L19 2L20 2L20 1L19 1L19 0L17 0L17 1L18 1L18 2L16 2L16 0ZM58 0L58 1L61 1L61 0ZM11 1L11 2L12 2L12 1ZM37 1L37 2L36 2L36 3L38 3L38 4L37 4L37 5L38 5L38 6L37 6L37 8L40 8L40 9L38 9L38 10L36 10L36 9L35 9L35 10L36 10L36 11L34 11L34 10L32 10L32 9L31 9L31 8L32 8L32 5L30 5L30 4L29 4L29 3L28 3L28 2L27 2L27 3L26 3L26 4L25 4L25 8L26 8L26 10L25 10L25 9L24 9L24 8L23 8L23 7L24 7L24 6L23 6L23 5L22 5L22 6L21 6L21 4L20 4L20 5L19 5L19 4L16 4L16 5L17 5L17 7L16 7L16 6L15 6L15 7L14 7L14 9L13 9L13 12L14 12L14 13L15 13L15 11L14 11L14 9L15 9L15 8L17 8L17 7L18 7L18 5L19 5L19 7L20 7L20 6L21 6L21 8L20 8L20 10L23 10L23 11L24 11L24 12L22 12L22 11L19 11L19 9L16 9L16 10L17 10L17 11L16 11L16 12L18 12L18 11L19 11L19 12L21 12L21 13L19 13L19 14L18 14L18 15L17 15L17 14L16 14L16 15L15 15L15 14L13 14L13 13L11 13L11 14L12 14L12 16L13 16L13 17L10 17L10 18L8 18L8 17L9 17L9 14L10 14L10 13L9 13L9 11L10 11L10 10L9 10L9 9L8 9L8 10L7 10L7 9L6 9L6 10L7 10L7 11L6 11L6 12L8 12L8 14L7 14L7 13L5 13L5 14L4 14L4 15L5 15L5 14L7 14L7 15L6 15L6 16L8 16L8 17L6 17L6 18L8 18L8 19L6 19L6 20L8 20L8 22L7 22L7 21L5 21L5 22L4 22L4 20L5 20L5 16L3 16L3 15L2 15L2 16L1 16L1 17L2 17L2 16L3 16L3 18L4 18L4 20L3 20L3 21L2 21L2 22L4 22L4 24L3 24L3 25L4 25L4 26L5 26L5 22L7 22L7 23L6 23L6 24L7 24L7 25L6 25L6 26L7 26L7 27L8 27L8 26L9 26L9 25L11 25L11 26L10 26L10 27L9 27L9 28L7 28L7 29L6 29L6 30L7 30L7 31L3 31L3 32L2 32L2 33L3 33L3 32L9 32L9 33L10 33L10 34L9 34L9 35L10 35L10 36L12 36L12 37L10 37L10 38L9 38L9 40L8 40L8 41L9 41L9 40L10 40L10 38L11 38L11 39L12 39L12 40L14 40L14 38L13 38L13 39L12 39L12 37L14 37L14 36L15 36L15 34L16 34L16 36L17 36L17 35L18 35L18 34L17 34L17 33L18 33L18 32L17 32L17 31L18 31L18 29L17 29L17 28L19 28L19 27L20 27L20 30L22 30L22 31L23 31L23 32L21 32L21 31L20 31L20 33L19 33L19 34L20 34L20 35L19 35L19 36L21 36L21 37L20 37L20 39L21 39L21 37L23 37L23 35L22 35L22 34L21 34L21 33L25 33L25 36L26 36L26 37L25 37L25 38L26 38L26 39L28 39L28 38L30 38L30 39L29 39L29 40L28 40L28 41L27 41L27 40L26 40L26 42L30 42L30 41L31 41L31 45L30 45L30 46L29 46L29 45L28 45L28 44L30 44L30 43L28 43L28 44L26 44L26 45L25 45L25 47L24 47L24 46L23 46L23 47L24 47L24 48L25 48L25 49L26 49L26 51L25 51L25 50L23 50L23 52L20 52L20 54L19 54L19 55L18 55L18 53L17 53L17 52L16 52L16 51L15 51L15 54L16 54L16 57L15 57L15 58L16 58L16 57L17 57L17 56L19 56L19 57L20 57L20 58L21 58L21 57L22 57L22 56L20 56L20 55L22 55L22 54L23 54L23 53L25 53L25 56L26 56L26 57L25 57L25 58L26 58L26 59L28 59L28 61L27 61L27 60L26 60L26 62L27 62L27 64L28 64L28 65L29 65L29 64L31 64L31 63L32 63L32 61L31 61L31 63L30 63L30 62L29 62L29 59L28 59L28 58L29 58L29 57L30 57L30 56L29 56L29 55L30 55L30 54L29 54L29 53L27 53L27 52L26 52L26 51L28 51L28 52L29 52L29 48L31 48L31 49L32 49L32 50L30 50L30 52L34 52L34 53L33 53L33 54L35 54L35 55L34 55L34 56L33 56L33 57L34 57L34 58L33 58L33 59L35 59L35 60L36 60L36 59L38 59L38 58L39 58L39 57L41 57L41 56L39 56L39 57L38 57L38 56L36 56L36 59L35 59L35 55L36 55L36 53L38 53L38 52L35 52L35 51L36 51L36 50L37 50L37 51L38 51L38 50L41 50L41 51L39 51L39 53L41 53L41 52L44 52L44 53L43 53L43 54L42 54L42 55L43 55L43 56L42 56L42 57L43 57L43 60L42 60L42 58L41 58L41 59L40 59L40 62L39 62L39 61L38 61L38 60L37 60L37 61L38 61L38 62L37 62L37 64L39 64L39 63L41 63L41 64L44 64L44 66L45 66L45 67L46 67L46 66L47 66L47 67L48 67L48 66L49 66L49 65L50 65L50 67L51 67L51 65L53 65L53 66L54 66L54 68L55 68L55 66L54 66L54 64L51 64L51 63L52 63L52 62L53 62L53 63L56 63L56 65L57 65L57 63L56 63L56 61L57 61L57 62L59 62L59 61L60 61L60 60L61 60L61 59L60 59L60 60L59 60L59 61L57 61L57 59L56 59L56 57L55 57L55 58L54 58L54 56L55 56L55 55L56 55L56 54L53 54L53 55L51 55L51 53L55 53L55 52L54 52L54 51L55 51L55 50L56 50L56 49L55 49L55 50L53 50L53 48L52 48L52 47L53 47L53 46L54 46L54 45L53 45L53 44L51 44L51 41L53 41L53 40L51 40L51 41L50 41L50 39L52 39L52 38L53 38L53 37L55 37L55 38L56 38L56 39L57 39L57 38L58 38L58 39L59 39L59 41L57 41L57 40L54 40L54 41L55 41L55 42L52 42L52 43L55 43L55 44L56 44L56 45L57 45L57 46L58 46L58 47L60 47L60 46L61 46L61 45L62 45L62 48L64 48L64 47L66 47L66 44L65 44L65 42L66 42L66 43L67 43L67 42L68 42L68 40L67 40L67 42L66 42L66 41L64 41L64 40L63 40L63 42L62 42L62 41L61 41L61 40L62 40L62 39L67 39L67 36L68 36L68 35L67 35L67 34L68 34L68 33L67 33L67 32L66 32L66 33L67 33L67 34L66 34L66 35L67 35L67 36L66 36L66 38L65 38L65 37L64 37L64 38L62 38L62 37L61 37L61 38L60 38L60 37L59 37L59 36L60 36L60 35L59 35L59 36L57 36L57 35L56 35L56 37L55 37L55 36L54 36L54 34L52 34L52 33L53 33L53 32L54 32L54 31L53 31L53 29L55 29L55 28L56 28L56 29L57 29L57 30L56 30L56 33L55 33L55 34L56 34L56 33L57 33L57 34L60 34L60 32L62 32L62 31L63 31L63 32L64 32L64 31L63 31L63 29L64 29L64 30L65 30L65 31L67 31L67 30L68 30L68 28L66 28L66 27L67 27L67 26L68 26L68 24L67 24L67 25L66 25L66 24L64 24L64 23L65 23L65 22L66 22L66 21L65 21L65 19L66 19L66 18L63 18L63 17L66 17L66 16L65 16L65 14L64 14L64 16L62 16L62 15L61 15L61 14L59 14L59 13L62 13L62 14L63 14L63 13L62 13L62 12L61 12L61 11L60 11L60 10L59 10L59 9L58 9L58 10L57 10L57 8L55 8L55 10L56 10L56 11L57 11L57 12L55 12L55 11L53 11L53 10L52 10L52 9L54 9L54 8L53 8L53 7L54 7L54 5L53 5L53 7L52 7L52 6L51 6L51 7L50 7L50 5L49 5L49 4L48 4L48 5L49 5L49 7L50 7L50 8L51 8L51 9L49 9L49 10L47 10L47 7L48 7L48 6L47 6L47 2L45 2L45 3L44 3L44 5L43 5L43 7L42 7L42 6L41 6L41 5L40 5L40 6L39 6L39 4L43 4L43 3L42 3L42 1L41 1L41 3L39 3L39 2L38 2L38 1ZM54 1L54 2L55 2L55 1ZM9 3L9 4L10 4L10 3ZM31 3L31 4L32 4L32 3ZM45 3L45 4L46 4L46 3ZM60 3L60 5L61 5L61 3ZM26 4L26 5L27 5L27 4ZM29 5L29 6L28 6L28 9L30 9L30 11L29 11L29 17L32 17L32 18L30 18L30 19L31 19L31 20L28 20L28 19L27 19L27 18L28 18L28 17L27 17L27 18L26 18L26 17L22 17L22 16L21 16L21 17L18 17L18 16L17 16L17 15L16 15L16 17L15 17L15 16L14 16L14 17L13 17L13 19L14 19L14 20L15 20L15 21L14 21L14 22L15 22L15 23L14 23L14 25L13 25L13 23L12 23L12 21L13 21L13 20L11 20L11 19L10 19L10 20L9 20L9 19L8 19L8 20L9 20L9 22L8 22L8 23L9 23L9 22L10 22L10 23L11 23L11 24L12 24L12 25L13 25L13 26L15 26L15 27L16 27L16 28L17 28L17 25L18 25L18 26L19 26L19 25L21 25L21 26L20 26L20 27L21 27L21 29L22 29L22 30L25 30L25 31L26 31L26 32L25 32L25 33L28 33L28 34L27 34L27 35L26 35L26 36L27 36L27 37L28 37L28 36L29 36L29 37L30 37L30 38L32 38L32 39L33 39L33 40L32 40L32 42L33 42L33 43L32 43L32 45L33 45L33 44L35 44L35 45L37 45L37 46L36 46L36 47L35 47L35 46L34 46L34 47L35 47L35 48L36 48L36 47L37 47L37 48L38 48L38 47L37 47L37 46L38 46L38 45L39 45L39 46L40 46L40 47L39 47L39 48L40 48L40 47L41 47L41 48L42 48L42 49L41 49L41 50L42 50L42 51L44 51L44 52L45 52L45 53L44 53L44 56L43 56L43 57L44 57L44 56L46 56L46 57L51 57L51 55L50 55L50 53L51 53L51 52L53 52L53 51L51 51L51 50L52 50L52 48L50 48L50 47L52 47L52 46L50 46L50 44L48 44L48 43L49 43L49 42L50 42L50 41L49 41L49 40L47 40L47 38L48 38L48 39L49 39L49 38L50 38L50 36L52 36L52 34L51 34L51 35L50 35L50 33L51 33L51 32L52 32L52 31L50 31L50 29L51 29L51 28L52 28L52 27L53 27L53 28L54 28L54 27L55 27L55 25L56 25L56 24L57 24L57 25L59 25L59 26L60 26L60 27L58 27L58 26L57 26L57 29L59 29L59 30L57 30L57 31L58 31L58 32L57 32L57 33L59 33L59 30L62 30L62 29L63 29L63 26L64 26L64 27L66 27L66 26L64 26L64 25L63 25L63 26L61 26L61 25L62 25L62 24L61 24L61 23L60 23L60 22L62 22L62 21L63 21L63 20L64 20L64 19L63 19L63 18L62 18L62 16L59 16L59 19L58 19L58 18L56 18L56 19L55 19L55 20L54 20L54 18L55 18L55 17L56 17L56 16L55 16L55 15L54 15L54 16L55 16L55 17L54 17L54 18L53 18L53 19L52 19L52 18L50 18L50 17L49 17L49 16L50 16L50 15L47 15L47 17L49 17L49 18L48 18L48 19L49 19L49 20L46 20L46 21L47 21L47 22L48 22L48 21L49 21L49 22L50 22L50 21L51 21L51 24L55 24L55 25L52 25L52 27L51 27L51 26L50 26L50 25L49 25L49 24L50 24L50 23L49 23L49 24L48 24L48 23L47 23L47 24L46 24L46 22L44 22L44 20L43 20L43 17L44 17L44 16L45 16L45 18L44 18L44 19L45 19L45 18L46 18L46 19L47 19L47 18L46 18L46 16L45 16L45 15L44 15L44 14L45 14L45 13L42 13L42 14L41 14L41 12L42 12L42 10L45 10L45 9L46 9L46 7L47 7L47 6L46 6L46 5L44 5L44 7L45 7L45 9L44 9L44 8L43 8L43 9L41 9L41 12L40 12L40 10L39 10L39 12L40 12L40 13L39 13L39 14L40 14L40 15L38 15L38 13L37 13L37 14L35 14L35 15L38 15L38 16L37 16L37 17L32 17L32 15L33 15L33 16L34 16L34 15L33 15L33 14L34 14L34 13L36 13L36 12L34 12L34 11L33 11L33 12L34 12L34 13L33 13L33 14L32 14L32 15L30 15L30 14L31 14L31 13L32 13L32 12L30 12L30 11L32 11L32 10L31 10L31 9L30 9L30 8L29 8L29 6L30 6L30 7L31 7L31 6L30 6L30 5ZM33 5L33 8L36 8L36 5ZM11 6L11 7L12 7L12 6ZM22 6L22 7L23 7L23 6ZM26 6L26 8L27 8L27 6ZM34 6L34 7L35 7L35 6ZM38 6L38 7L39 7L39 6ZM40 6L40 8L41 8L41 6ZM45 6L45 7L46 7L46 6ZM55 6L55 7L56 7L56 6ZM57 6L57 7L58 7L58 6ZM51 7L51 8L52 8L52 7ZM21 8L21 9L22 9L22 8ZM60 8L60 9L61 9L61 8ZM23 9L23 10L24 10L24 9ZM4 10L4 11L5 11L5 10ZM49 10L49 12L46 12L46 13L47 13L47 14L50 14L50 13L51 13L51 11L52 11L52 12L53 12L53 11L52 11L52 10ZM58 10L58 12L57 12L57 13L58 13L58 12L59 12L59 10ZM65 10L65 11L66 11L66 10ZM25 11L25 12L24 12L24 13L23 13L23 14L27 14L27 16L28 16L28 14L27 14L27 13L25 13L25 12L26 12L26 11ZM37 11L37 12L38 12L38 11ZM43 11L43 12L45 12L45 11ZM49 12L49 13L50 13L50 12ZM54 12L54 13L52 13L52 14L56 14L56 15L57 15L57 14L56 14L56 13L55 13L55 12ZM19 14L19 15L22 15L22 14ZM42 14L42 15L40 15L40 16L39 16L39 17L38 17L38 18L37 18L37 19L35 19L35 18L34 18L34 19L33 19L33 18L32 18L32 20L33 20L33 21L34 21L34 22L35 22L35 20L36 20L36 21L38 21L38 20L37 20L37 19L39 19L39 21L40 21L40 22L37 22L37 25L38 25L38 26L37 26L37 27L38 27L38 28L37 28L37 29L36 29L36 28L35 28L35 27L36 27L36 26L35 26L35 25L34 25L34 24L36 24L36 23L33 23L33 22L32 22L32 21L27 21L27 20L26 20L26 19L24 19L24 18L23 18L23 19L22 19L22 17L21 17L21 21L20 21L20 20L19 20L19 21L18 21L18 23L17 23L17 24L16 24L16 23L15 23L15 24L16 24L16 25L15 25L15 26L16 26L16 25L17 25L17 24L18 24L18 23L19 23L19 24L20 24L20 22L21 22L21 23L22 23L22 22L23 22L23 24L24 24L24 22L23 22L23 21L25 21L25 20L26 20L26 23L27 23L27 24L26 24L26 25L25 25L25 26L26 26L26 30L27 30L27 32L28 32L28 33L29 33L29 31L30 31L30 30L31 30L31 29L32 29L32 28L31 28L31 29L30 29L30 30L29 30L29 29L28 29L28 28L29 28L29 25L30 25L30 24L28 24L28 23L27 23L27 22L29 22L29 23L30 23L30 22L31 22L31 23L32 23L32 24L31 24L31 27L33 27L33 28L34 28L34 29L33 29L33 30L32 30L32 32L34 32L34 31L33 31L33 30L34 30L34 29L36 29L36 30L37 30L37 29L38 29L38 31L39 31L39 30L40 30L40 31L43 31L43 32L39 32L39 33L38 33L38 32L37 32L37 31L35 31L35 32L37 32L37 33L38 33L38 35L37 35L37 36L38 36L38 37L36 37L36 38L35 38L35 37L34 37L34 38L33 38L33 39L36 39L36 38L38 38L38 39L37 39L37 40L38 40L38 42L37 42L37 45L38 45L38 44L39 44L39 45L40 45L40 44L41 44L41 43L40 43L40 41L41 41L41 40L44 40L44 42L43 42L43 43L44 43L44 42L45 42L45 43L46 43L46 44L44 44L44 45L46 45L46 46L42 46L42 45L41 45L41 46L42 46L42 48L43 48L43 47L44 47L44 49L43 49L43 50L44 50L44 49L45 49L45 52L46 52L46 51L48 51L48 50L47 50L47 47L48 47L48 48L49 48L49 49L50 49L50 50L51 50L51 49L50 49L50 48L49 48L49 46L47 46L47 45L46 45L46 44L47 44L47 43L46 43L46 42L47 42L47 40L45 40L45 39L42 39L42 38L41 38L41 36L39 36L39 35L40 35L40 33L43 33L43 34L41 34L41 35L43 35L43 36L42 36L42 37L43 37L43 36L44 36L44 37L45 37L45 38L47 38L47 37L45 37L45 36L49 36L49 33L50 33L50 31L47 31L47 29L45 29L45 28L44 28L44 27L43 27L43 28L44 28L44 29L43 29L43 30L42 30L42 27L38 27L38 26L41 26L41 25L42 25L42 24L39 24L39 23L42 23L42 22L41 22L41 21L42 21L42 20L40 20L40 19L39 19L39 18L41 18L41 17L42 17L42 16L44 16L44 15L43 15L43 14ZM25 15L25 16L26 16L26 15ZM52 15L52 16L53 16L53 15ZM57 16L57 17L58 17L58 16ZM16 17L16 18L15 18L15 20L16 20L16 21L15 21L15 22L17 22L17 20L18 20L18 19L20 19L20 18L18 18L18 17ZM60 18L60 19L59 19L59 21L57 21L57 19L56 19L56 21L55 21L55 22L54 22L54 21L53 21L53 20L51 20L51 21L53 21L53 22L54 22L54 23L55 23L55 22L56 22L56 23L57 23L57 22L58 22L58 24L59 24L59 25L61 25L61 24L59 24L59 21L60 21L60 20L61 20L61 21L62 21L62 18ZM10 20L10 21L11 21L11 20ZM49 20L49 21L50 21L50 20ZM19 21L19 22L20 22L20 21ZM21 21L21 22L22 22L22 21ZM56 21L56 22L57 22L57 21ZM64 21L64 22L65 22L65 21ZM43 22L43 24L44 24L44 25L43 25L43 26L46 26L46 27L47 27L47 28L49 28L49 27L48 27L48 26L49 26L49 25L48 25L48 24L47 24L47 25L46 25L46 24L45 24L45 23L44 23L44 22ZM1 23L1 25L2 25L2 23ZM8 24L8 25L9 25L9 24ZM21 24L21 25L22 25L22 26L21 26L21 27L23 27L23 28L22 28L22 29L25 29L25 28L24 28L24 27L23 27L23 26L24 26L24 25L22 25L22 24ZM32 24L32 26L34 26L34 25L33 25L33 24ZM38 24L38 25L39 25L39 24ZM47 25L47 26L48 26L48 25ZM53 26L53 27L54 27L54 26ZM10 27L10 28L9 28L9 29L10 29L10 30L8 30L8 29L7 29L7 30L8 30L8 31L9 31L9 32L10 32L10 30L12 30L12 32L13 32L13 33L12 33L12 34L10 34L10 35L12 35L12 36L14 36L14 31L13 31L13 30L14 30L14 27L13 27L13 28L12 28L12 29L10 29L10 28L11 28L11 27ZM50 27L50 28L51 28L51 27ZM61 27L61 29L62 29L62 27ZM38 28L38 29L40 29L40 28ZM65 28L65 29L66 29L66 28ZM4 29L4 30L5 30L5 29ZM44 29L44 32L43 32L43 33L44 33L44 36L45 36L45 33L44 33L44 32L46 32L46 33L49 33L49 32L46 32L46 30L45 30L45 29ZM48 29L48 30L49 30L49 29ZM16 30L16 31L17 31L17 30ZM5 33L5 36L8 36L8 33ZM30 33L30 34L29 34L29 35L30 35L30 36L31 36L31 37L32 37L32 35L31 35L31 34L32 34L32 33ZM33 33L33 36L36 36L36 33ZM61 33L61 36L64 36L64 33ZM2 34L2 36L3 36L3 37L4 37L4 34ZM6 34L6 35L7 35L7 34ZM12 34L12 35L13 35L13 34ZM34 34L34 35L35 35L35 34ZM62 34L62 35L63 35L63 34ZM27 35L27 36L28 36L28 35ZM6 37L6 38L5 38L5 39L6 39L6 40L7 40L7 39L6 39L6 38L8 38L8 37ZM48 37L48 38L49 38L49 37ZM59 38L59 39L60 39L60 38ZM61 38L61 39L62 39L62 38ZM1 39L1 41L2 41L2 39ZM38 39L38 40L41 40L41 39ZM29 40L29 41L30 41L30 40ZM33 40L33 42L34 42L34 41L35 41L35 40ZM48 41L48 42L49 42L49 41ZM56 41L56 43L57 43L57 45L59 45L59 43L60 43L60 42L61 42L61 44L60 44L60 45L61 45L61 44L63 44L63 45L64 45L64 44L63 44L63 43L62 43L62 42L61 42L61 41L60 41L60 42L57 42L57 41ZM21 42L21 44L22 44L22 42ZM18 43L18 44L19 44L19 43ZM39 43L39 44L40 44L40 43ZM27 45L27 46L28 46L28 47L29 47L29 46L28 46L28 45ZM32 46L32 47L33 47L33 46ZM46 46L46 47L45 47L45 49L46 49L46 47L47 47L47 46ZM25 47L25 48L26 48L26 47ZM32 48L32 49L33 49L33 50L32 50L32 51L34 51L34 50L36 50L36 49L33 49L33 48ZM27 49L27 50L28 50L28 49ZM37 49L37 50L38 50L38 49ZM12 50L12 51L13 51L13 52L14 52L14 51L13 51L13 50ZM19 50L19 51L20 51L20 50ZM58 50L58 52L57 52L57 53L59 53L59 52L61 52L61 53L64 53L64 52L63 52L63 51L64 51L64 50L63 50L63 51L60 51L60 50ZM50 51L50 52L49 52L49 53L50 53L50 52L51 52L51 51ZM25 52L25 53L26 53L26 54L27 54L27 55L26 55L26 56L27 56L27 55L28 55L28 54L27 54L27 53L26 53L26 52ZM31 53L31 55L32 55L32 53ZM45 53L45 54L46 54L46 56L48 56L48 55L47 55L47 53ZM37 54L37 55L41 55L41 54ZM66 54L66 55L67 55L67 54ZM13 55L13 56L12 56L12 57L13 57L13 56L15 56L15 55ZM49 55L49 56L50 56L50 55ZM60 55L60 56L61 56L61 58L62 58L62 55ZM4 56L4 57L6 57L6 56ZM9 56L9 57L10 57L10 59L9 59L9 60L10 60L10 59L12 59L12 60L11 60L11 62L9 62L9 63L10 63L10 64L9 64L9 65L10 65L10 66L11 66L11 65L13 65L13 64L11 64L11 63L14 63L14 64L15 64L15 63L14 63L14 62L16 62L16 63L18 63L18 62L17 62L17 60L16 60L16 59L15 59L15 61L14 61L14 59L12 59L12 58L11 58L11 57L10 57L10 56ZM31 56L31 59L30 59L30 60L31 60L31 59L32 59L32 56ZM37 57L37 58L38 58L38 57ZM52 57L52 58L47 58L47 59L46 59L46 58L45 58L45 59L44 59L44 60L43 60L43 61L42 61L42 60L41 60L41 62L42 62L42 63L43 63L43 62L44 62L44 64L45 64L45 66L46 66L46 64L45 64L45 63L46 63L46 62L44 62L44 60L47 60L47 62L50 62L50 61L51 61L51 62L52 62L52 61L51 61L51 60L53 60L53 62L55 62L55 61L56 61L56 60L55 60L55 59L54 59L54 58L53 58L53 57ZM52 58L52 59L53 59L53 60L54 60L54 61L55 61L55 60L54 60L54 59L53 59L53 58ZM47 59L47 60L49 60L49 61L50 61L50 59ZM3 60L3 61L5 61L5 60ZM6 60L6 61L7 61L7 60ZM12 60L12 62L13 62L13 60ZM65 60L65 61L66 61L66 60ZM33 61L33 64L36 64L36 61ZM61 61L61 64L64 64L64 61ZM28 62L28 63L29 63L29 62ZM34 62L34 63L35 63L35 62ZM62 62L62 63L63 63L63 62ZM65 62L65 63L66 63L66 62ZM25 63L25 64L26 64L26 63ZM47 63L47 64L48 64L48 65L49 65L49 64L50 64L50 65L51 65L51 64L50 64L50 63L49 63L49 64L48 64L48 63ZM17 64L17 65L18 65L18 64ZM30 65L30 66L32 66L32 65ZM33 65L33 67L34 67L34 66L35 66L35 67L37 67L37 66L35 66L35 65ZM56 66L56 67L57 67L57 66ZM24 67L24 69L26 69L26 67ZM29 67L29 68L30 68L30 67ZM16 68L16 69L21 69L21 68ZM0 0L0 7L7 7L7 0ZM1 1L1 6L6 6L6 1ZM2 2L2 5L5 5L5 2ZM62 0L62 7L69 7L69 0ZM63 1L63 6L68 6L68 1ZM64 2L64 5L67 5L67 2ZM0 62L0 69L7 69L7 62ZM1 63L1 68L6 68L6 63ZM2 64L2 67L5 67L5 64Z" fill="#000000"/></g></g></svg>
