<?xml version="1.0" encoding="UTF-8"?>
<svg xmlns="http://www.w3.org/2000/svg" version="1.1" width="300" height="300" viewBox="0 0 300 300"><rect x="0" y="0" width="300" height="300" fill="#ffffff"/><g transform="scale(4.348)"><g transform="translate(0,0)"><path fill-rule="evenodd" d="M9 0L9 1L8 1L8 2L9 2L9 1L10 1L10 0ZM12 0L12 1L11 1L11 2L12 2L12 3L8 3L8 4L10 4L10 5L11 5L11 6L10 6L10 7L9 7L9 5L8 5L8 7L9 7L9 8L6 8L6 9L5 9L5 8L0 8L0 10L1 10L1 12L3 12L3 13L0 13L0 20L1 20L1 19L3 19L3 20L2 20L2 23L1 23L1 24L2 24L2 23L5 23L5 24L4 24L4 25L5 25L5 26L4 26L4 27L3 27L3 26L2 26L2 28L3 28L3 30L5 30L5 29L8 29L8 30L6 30L6 31L5 31L5 32L4 32L4 33L2 33L2 32L3 32L3 31L2 31L2 29L1 29L1 27L0 27L0 30L1 30L1 31L0 31L0 33L2 33L2 34L1 34L1 35L0 35L0 36L2 36L2 35L4 35L4 36L3 36L3 40L4 40L4 41L3 41L3 42L2 42L2 39L0 39L0 46L1 46L1 47L0 47L0 48L1 48L1 49L0 49L0 53L1 53L1 54L0 54L0 55L1 55L1 56L0 56L0 61L1 61L1 56L2 56L2 55L3 55L3 54L2 54L2 53L3 53L3 52L4 52L4 51L8 51L8 49L9 49L9 50L11 50L11 48L10 48L10 49L9 49L9 48L8 48L8 46L9 46L9 45L11 45L11 46L10 46L10 47L16 47L16 48L17 48L17 49L18 49L18 51L16 51L16 50L14 50L14 49L15 49L15 48L14 48L14 49L12 49L12 51L11 51L11 53L12 53L12 52L13 52L13 51L14 51L14 53L13 53L13 55L14 55L14 58L13 58L13 59L12 59L12 60L13 60L13 61L12 61L12 62L10 62L10 60L9 60L9 57L10 57L10 56L11 56L11 55L12 55L12 54L9 54L9 57L8 57L8 59L7 59L7 58L6 58L6 57L7 57L7 56L6 56L6 57L5 57L5 55L7 55L7 54L8 54L8 52L5 52L5 53L4 53L4 54L5 54L5 55L4 55L4 57L2 57L2 59L3 59L3 58L4 58L4 59L7 59L7 60L6 60L6 61L8 61L8 63L9 63L9 62L10 62L10 63L11 63L11 64L10 64L10 65L9 65L9 64L8 64L8 69L11 69L11 68L12 68L12 69L15 69L15 68L14 68L14 67L16 67L16 66L14 66L14 65L17 65L17 68L16 68L16 69L19 69L19 67L20 67L20 66L19 66L19 65L20 65L20 61L19 61L19 59L20 59L20 56L22 56L22 57L21 57L21 58L22 58L22 57L24 57L24 58L23 58L23 59L24 59L24 60L23 60L23 61L24 61L24 62L22 62L22 61L21 61L21 64L23 64L23 67L21 67L21 68L20 68L20 69L21 69L21 68L23 68L23 67L24 67L24 69L26 69L26 68L27 68L27 67L28 67L28 68L29 68L29 69L32 69L32 67L33 67L33 65L36 65L36 66L37 66L37 67L35 67L35 66L34 66L34 67L35 67L35 68L36 68L36 69L38 69L38 68L37 68L37 67L39 67L39 68L40 68L40 67L41 67L41 69L44 69L44 68L47 68L47 69L49 69L49 68L47 68L47 67L50 67L50 65L51 65L51 64L52 64L52 63L50 63L50 65L49 65L49 63L47 63L47 62L50 62L50 61L51 61L51 59L50 59L50 61L49 61L49 60L46 60L46 58L45 58L45 61L44 61L44 59L43 59L43 57L44 57L44 56L46 56L46 57L47 57L47 59L49 59L49 58L50 58L50 57L51 57L51 58L52 58L52 60L53 60L53 61L54 61L54 62L53 62L53 64L54 64L54 65L52 65L52 66L51 66L51 67L52 67L52 66L55 66L55 65L56 65L56 66L57 66L57 67L55 67L55 68L53 68L53 69L55 69L55 68L57 68L57 67L58 67L58 66L57 66L57 65L58 65L58 64L59 64L59 65L60 65L60 66L59 66L59 68L58 68L58 69L61 69L61 68L62 68L62 69L63 69L63 68L65 68L65 69L68 69L68 68L67 68L67 67L66 67L66 66L67 66L67 65L68 65L68 64L69 64L69 63L68 63L68 62L67 62L67 61L66 61L66 60L67 60L67 59L68 59L68 58L69 58L69 57L68 57L68 56L69 56L69 55L68 55L68 54L69 54L69 53L68 53L68 54L67 54L67 55L63 55L63 56L62 56L62 57L61 57L61 56L60 56L60 57L59 57L59 56L58 56L58 55L57 55L57 56L58 56L58 57L59 57L59 58L57 58L57 57L56 57L56 54L55 54L55 52L57 52L57 51L61 51L61 52L60 52L60 53L59 53L59 55L62 55L62 54L63 54L63 53L64 53L64 52L63 52L63 51L62 51L62 46L61 46L61 45L62 45L62 44L63 44L63 45L65 45L65 44L66 44L66 47L65 47L65 46L63 46L63 47L65 47L65 48L64 48L64 49L65 49L65 48L67 48L67 49L66 49L66 50L65 50L65 51L66 51L66 52L65 52L65 54L66 54L66 52L68 52L68 50L69 50L69 49L68 49L68 42L69 42L69 40L68 40L68 38L67 38L67 39L63 39L63 41L65 41L65 40L67 40L67 41L66 41L66 42L63 42L63 43L62 43L62 42L60 42L60 41L62 41L62 40L60 40L60 39L62 39L62 38L64 38L64 37L65 37L65 38L66 38L66 37L68 37L68 36L69 36L69 35L68 35L68 34L69 34L69 31L68 31L68 30L67 30L67 31L65 31L65 29L66 29L66 28L67 28L67 29L69 29L69 28L68 28L68 27L67 27L67 26L69 26L69 23L68 23L68 22L69 22L69 21L68 21L68 18L69 18L69 16L68 16L68 17L67 17L67 15L68 15L68 14L69 14L69 12L68 12L68 8L67 8L67 11L65 11L65 10L64 10L64 8L63 8L63 11L62 11L62 8L61 8L61 6L60 6L60 7L59 7L59 4L56 4L56 3L53 3L53 5L54 5L54 8L53 8L53 6L52 6L52 4L51 4L51 2L52 2L52 0L51 0L51 1L50 1L50 0L49 0L49 1L50 1L50 4L51 4L51 5L49 5L49 3L47 3L47 4L48 4L48 5L49 5L49 6L48 6L48 7L47 7L47 6L46 6L46 5L44 5L44 3L45 3L45 4L46 4L46 3L45 3L45 2L47 2L47 1L45 1L45 0L44 0L44 1L45 1L45 2L44 2L44 3L43 3L43 0L41 0L41 1L37 1L37 0L36 0L36 1L35 1L35 4L31 4L31 3L32 3L32 2L34 2L34 1L32 1L32 0L31 0L31 1L32 1L32 2L31 2L31 3L29 3L29 0L28 0L28 1L27 1L27 2L28 2L28 3L29 3L29 4L31 4L31 5L32 5L32 9L30 9L30 8L29 8L29 6L30 6L30 7L31 7L31 6L30 6L30 5L29 5L29 6L28 6L28 8L29 8L29 9L30 9L30 10L29 10L29 11L28 11L28 10L26 10L26 8L27 8L27 6L26 6L26 8L24 8L24 9L23 9L23 10L24 10L24 9L25 9L25 10L26 10L26 11L25 11L25 12L24 12L24 11L22 11L22 12L24 12L24 13L23 13L23 16L26 16L26 15L24 15L24 14L27 14L27 15L29 15L29 17L30 17L30 18L29 18L29 20L28 20L28 19L27 19L27 21L26 21L26 20L23 20L23 22L22 22L22 21L21 21L21 22L22 22L22 23L21 23L21 24L20 24L20 23L19 23L19 22L20 22L20 21L19 21L19 20L22 20L22 18L23 18L23 19L25 19L25 18L26 18L26 17L22 17L22 15L21 15L21 14L20 14L20 13L21 13L21 12L20 12L20 13L19 13L19 11L21 11L21 10L20 10L20 9L19 9L19 8L18 8L18 7L19 7L19 6L20 6L20 8L21 8L21 9L22 9L22 8L21 8L21 6L22 6L22 7L23 7L23 6L24 6L24 7L25 7L25 5L27 5L27 4L25 4L25 3L26 3L26 2L25 2L25 0L21 0L21 2L23 2L23 4L22 4L22 3L19 3L19 2L20 2L20 1L19 1L19 0L17 0L17 1L16 1L16 0ZM54 0L54 1L53 1L53 2L54 2L54 1L55 1L55 0ZM56 0L56 1L57 1L57 0ZM58 0L58 1L61 1L61 0ZM13 1L13 2L15 2L15 3L12 3L12 4L14 4L14 5L16 5L16 6L15 6L15 10L14 10L14 11L15 11L15 12L16 12L16 13L15 13L15 14L18 14L18 15L14 15L14 17L13 17L13 16L10 16L10 18L9 18L9 17L8 17L8 16L9 16L9 15L11 15L11 14L12 14L12 15L13 15L13 14L12 14L12 13L14 13L14 12L12 12L12 11L13 11L13 10L12 10L12 9L10 9L10 8L9 8L9 9L8 9L8 10L7 10L7 9L6 9L6 10L5 10L5 9L3 9L3 12L4 12L4 11L5 11L5 13L3 13L3 15L2 15L2 14L1 14L1 15L2 15L2 16L1 16L1 17L2 17L2 18L4 18L4 20L3 20L3 22L4 22L4 21L5 21L5 23L6 23L6 24L5 24L5 25L6 25L6 26L5 26L5 28L4 28L4 29L5 29L5 28L9 28L9 27L11 27L11 28L10 28L10 29L9 29L9 31L10 31L10 30L11 30L11 28L15 28L15 29L14 29L14 31L15 31L15 30L17 30L17 31L16 31L16 32L14 32L14 33L13 33L13 34L14 34L14 33L15 33L15 34L17 34L17 36L15 36L15 35L14 35L14 36L13 36L13 35L12 35L12 34L11 34L11 33L9 33L9 35L10 35L10 37L11 37L11 38L8 38L8 40L7 40L7 39L6 39L6 38L7 38L7 37L6 37L6 38L5 38L5 37L4 37L4 40L5 40L5 39L6 39L6 40L7 40L7 41L6 41L6 42L5 42L5 43L6 43L6 44L7 44L7 45L6 45L6 46L5 46L5 44L1 44L1 46L2 46L2 45L3 45L3 47L2 47L2 48L3 48L3 47L4 47L4 46L5 46L5 48L4 48L4 49L2 49L2 51L1 51L1 52L3 52L3 51L4 51L4 49L5 49L5 48L7 48L7 49L6 49L6 50L7 50L7 49L8 49L8 48L7 48L7 47L6 47L6 46L7 46L7 45L9 45L9 42L10 42L10 43L11 43L11 45L14 45L14 46L15 46L15 45L16 45L16 46L17 46L17 45L16 45L16 44L20 44L20 46L18 46L18 47L17 47L17 48L18 48L18 49L21 49L21 51L22 51L22 52L19 52L19 51L20 51L20 50L19 50L19 51L18 51L18 52L19 52L19 53L20 53L20 55L22 55L22 54L24 54L24 53L25 53L25 52L24 52L24 53L23 53L23 50L22 50L22 49L23 49L23 48L22 48L22 47L24 47L24 46L23 46L23 45L24 45L24 44L25 44L25 42L26 42L26 41L28 41L28 42L29 42L29 43L28 43L28 45L27 45L27 43L26 43L26 46L25 46L25 47L26 47L26 48L25 48L25 49L26 49L26 50L24 50L24 51L26 51L26 55L25 55L25 56L26 56L26 59L28 59L28 60L26 60L26 62L27 62L27 61L28 61L28 62L29 62L29 64L28 64L28 65L25 65L25 66L24 66L24 67L25 67L25 68L26 68L26 66L28 66L28 65L29 65L29 64L30 64L30 63L32 63L32 60L35 60L35 59L34 59L34 58L32 58L32 56L31 56L31 58L29 58L29 57L30 57L30 56L29 56L29 55L30 55L30 54L31 54L31 55L33 55L33 54L35 54L35 53L36 53L36 52L35 52L35 49L36 49L36 50L37 50L37 47L38 47L38 48L39 48L39 49L38 49L38 51L39 51L39 54L37 54L37 55L40 55L40 54L42 54L42 55L43 55L43 56L42 56L42 57L43 57L43 56L44 56L44 53L45 53L45 54L46 54L46 56L49 56L49 57L48 57L48 58L49 58L49 57L50 57L50 55L51 55L51 53L53 53L53 52L55 52L55 50L56 50L56 51L57 51L57 50L61 50L61 46L60 46L60 48L59 48L59 49L57 49L57 47L56 47L56 46L58 46L58 47L59 47L59 45L60 45L60 44L62 44L62 43L59 43L59 44L58 44L58 42L59 42L59 41L60 41L60 40L59 40L59 39L57 39L57 38L59 38L59 37L60 37L60 38L62 38L62 37L60 37L60 35L57 35L57 34L59 34L59 33L60 33L60 32L61 32L61 31L63 31L63 32L64 32L64 31L63 31L63 29L65 29L65 28L66 28L66 27L65 27L65 25L66 25L66 24L65 24L65 23L67 23L67 24L68 24L68 23L67 23L67 20L66 20L66 19L67 19L67 18L66 18L66 16L65 16L65 15L64 15L64 16L62 16L62 14L63 14L63 13L65 13L65 14L68 14L68 12L67 12L67 13L66 13L66 12L65 12L65 11L64 11L64 12L62 12L62 11L61 11L61 10L59 10L59 9L61 9L61 8L59 8L59 7L58 7L58 5L57 5L57 8L55 8L55 9L57 9L57 10L55 10L55 11L52 11L52 12L51 12L51 13L50 13L50 10L52 10L52 9L53 9L53 8L52 8L52 6L51 6L51 7L50 7L50 6L49 6L49 9L50 9L50 10L47 10L47 7L46 7L46 6L45 6L45 7L44 7L44 5L43 5L43 7L42 7L42 5L41 5L41 7L40 7L40 6L39 6L39 4L41 4L41 3L42 3L42 1L41 1L41 2L37 2L37 3L36 3L36 4L37 4L37 5L38 5L38 6L37 6L37 7L38 7L38 11L37 11L37 10L36 10L36 9L32 9L32 11L31 11L31 10L30 10L30 11L29 11L29 12L28 12L28 11L26 11L26 13L27 13L27 14L29 14L29 13L30 13L30 16L31 16L31 14L33 14L33 15L32 15L32 17L31 17L31 19L30 19L30 20L31 20L31 19L32 19L32 21L33 21L33 20L34 20L34 22L36 22L36 21L38 21L38 20L37 20L37 19L39 19L39 21L40 21L40 22L37 22L37 23L31 23L31 27L33 27L33 30L32 30L32 32L31 32L31 29L32 29L32 28L31 28L31 29L28 29L28 28L29 28L29 27L30 27L30 26L29 26L29 25L30 25L30 24L29 24L29 25L27 25L27 24L28 24L28 23L30 23L30 22L31 22L31 21L30 21L30 22L29 22L29 21L27 21L27 22L26 22L26 23L25 23L25 22L23 22L23 23L25 23L25 24L26 24L26 25L25 25L25 28L26 28L26 29L25 29L25 30L24 30L24 33L23 33L23 30L22 30L22 29L23 29L23 28L24 28L24 27L23 27L23 26L24 26L24 25L22 25L22 24L21 24L21 25L17 25L17 24L16 24L16 23L18 23L18 24L19 24L19 23L18 23L18 22L19 22L19 21L18 21L18 22L15 22L15 21L14 21L14 22L13 22L13 23L12 23L12 21L13 21L13 20L12 20L12 19L13 19L13 18L14 18L14 20L15 20L15 18L14 18L14 17L15 17L15 16L18 16L18 17L17 17L17 18L16 18L16 21L17 21L17 20L19 20L19 19L20 19L20 18L19 18L19 19L18 19L18 17L21 17L21 18L22 18L22 17L21 17L21 15L20 15L20 16L19 16L19 14L18 14L18 13L17 13L17 12L18 12L18 11L16 11L16 10L17 10L17 9L18 9L18 10L19 10L19 9L18 9L18 8L17 8L17 7L18 7L18 6L19 6L19 5L20 5L20 6L21 6L21 5L22 5L22 6L23 6L23 5L22 5L22 4L19 4L19 5L18 5L18 4L17 4L17 3L18 3L18 2L19 2L19 1L18 1L18 2L17 2L17 3L16 3L16 2L15 2L15 1ZM23 1L23 2L24 2L24 3L25 3L25 2L24 2L24 1ZM57 2L57 3L59 3L59 2ZM15 3L15 4L16 4L16 3ZM37 3L37 4L38 4L38 3ZM60 3L60 5L61 5L61 3ZM33 5L33 8L36 8L36 5ZM55 5L55 7L56 7L56 5ZM11 6L11 8L13 8L13 9L14 9L14 6L13 6L13 7L12 7L12 6ZM16 6L16 7L17 7L17 6ZM34 6L34 7L35 7L35 6ZM38 6L38 7L39 7L39 8L40 8L40 7L39 7L39 6ZM45 7L45 9L44 9L44 8L43 8L43 9L39 9L39 12L37 12L37 13L36 13L36 12L34 12L34 11L33 11L33 12L34 12L34 13L33 13L33 14L34 14L34 13L35 13L35 17L36 17L36 18L33 18L33 17L32 17L32 18L33 18L33 19L37 19L37 18L38 18L38 17L36 17L36 16L38 16L38 13L39 13L39 14L40 14L40 15L39 15L39 16L40 16L40 15L42 15L42 14L43 14L43 13L42 13L42 14L41 14L41 12L42 12L42 10L45 10L45 9L46 9L46 7ZM50 8L50 9L52 9L52 8ZM58 8L58 9L59 9L59 8ZM65 8L65 9L66 9L66 8ZM9 9L9 10L8 10L8 12L6 12L6 13L9 13L9 14L10 14L10 13L9 13L9 12L11 12L11 11L12 11L12 10L10 10L10 9ZM6 10L6 11L7 11L7 10ZM35 10L35 11L36 11L36 10ZM40 10L40 12L39 12L39 13L40 13L40 12L41 12L41 10ZM57 10L57 11L56 11L56 12L53 12L53 13L54 13L54 14L53 14L53 15L52 15L52 16L50 16L50 17L49 17L49 16L48 16L48 15L45 15L45 14L44 14L44 16L42 16L42 17L41 17L41 18L39 18L39 19L41 19L41 20L42 20L42 19L43 19L43 17L44 17L44 16L45 16L45 18L44 18L44 19L45 19L45 18L46 18L46 19L48 19L48 18L49 18L49 19L50 19L50 17L52 17L52 16L53 16L53 18L54 18L54 19L52 19L52 18L51 18L51 19L52 19L52 20L51 20L51 21L52 21L52 22L50 22L50 20L46 20L46 21L47 21L47 22L48 22L48 23L47 23L47 24L46 24L46 22L44 22L44 20L43 20L43 21L42 21L42 22L41 22L41 24L42 24L42 25L41 25L41 26L38 26L38 25L39 25L39 24L38 24L38 23L37 23L37 24L35 24L35 26L34 26L34 24L32 24L32 26L33 26L33 27L35 27L35 28L36 28L36 29L37 29L37 30L35 30L35 29L34 29L34 30L33 30L33 31L34 31L34 32L32 32L32 34L30 34L30 33L31 33L31 32L29 32L29 31L30 31L30 30L28 30L28 29L27 29L27 30L25 30L25 31L26 31L26 32L25 32L25 33L24 33L24 34L23 34L23 33L21 33L21 34L22 34L22 35L23 35L23 38L24 38L24 39L23 39L23 40L24 40L24 41L23 41L23 42L21 42L21 43L20 43L20 44L24 44L24 43L23 43L23 42L24 42L24 41L26 41L26 40L28 40L28 41L30 41L30 43L29 43L29 46L30 46L30 45L31 45L31 44L32 44L32 45L33 45L33 46L32 46L32 47L35 47L35 48L36 48L36 47L37 47L37 46L38 46L38 47L39 47L39 48L40 48L40 47L41 47L41 48L42 48L42 49L41 49L41 50L39 50L39 51L40 51L40 52L41 52L41 53L42 53L42 54L43 54L43 53L44 53L44 52L45 52L45 53L47 53L47 54L48 54L48 55L50 55L50 53L49 53L49 52L47 52L47 51L46 51L46 52L45 52L45 49L46 49L46 46L45 46L45 49L44 49L44 43L45 43L45 45L46 45L46 44L47 44L47 46L49 46L49 47L48 47L48 48L47 48L47 49L49 49L49 50L50 50L50 52L53 52L53 50L55 50L55 49L56 49L56 50L57 50L57 49L56 49L56 48L54 48L54 49L53 49L53 50L52 50L52 51L51 51L51 50L50 50L50 49L51 49L51 48L50 48L50 47L51 47L51 46L50 46L50 44L57 44L57 43L55 43L55 42L56 42L56 38L55 38L55 37L56 37L56 35L55 35L55 34L56 34L56 32L57 32L57 33L59 33L59 30L62 30L62 28L64 28L64 26L61 26L61 25L62 25L62 24L64 24L64 23L65 23L65 21L66 21L66 20L65 20L65 21L64 21L64 22L62 22L62 21L63 21L63 18L65 18L65 17L63 17L63 18L62 18L62 16L61 16L61 14L62 14L62 12L61 12L61 13L60 13L60 11L59 11L59 10ZM30 11L30 13L32 13L32 12L31 12L31 11ZM43 11L43 12L45 12L45 13L47 13L47 14L50 14L50 13L49 13L49 12L47 12L47 11ZM57 11L57 12L56 12L56 13L55 13L55 14L54 14L54 15L53 15L53 16L54 16L54 15L55 15L55 14L56 14L56 17L57 17L57 18L56 18L56 19L54 19L54 20L56 20L56 21L55 21L55 22L53 22L53 23L52 23L52 24L49 24L49 23L50 23L50 22L49 22L49 21L48 21L48 22L49 22L49 23L48 23L48 24L47 24L47 25L46 25L46 24L45 24L45 23L44 23L44 22L42 22L42 23L43 23L43 24L44 24L44 25L43 25L43 26L46 26L46 27L47 27L47 28L44 28L44 27L43 27L43 28L44 28L44 29L43 29L43 30L42 30L42 27L38 27L38 26L37 26L37 27L38 27L38 28L37 28L37 29L38 29L38 31L39 31L39 30L40 30L40 31L43 31L43 32L38 32L38 34L37 34L37 36L38 36L38 37L34 37L34 38L33 38L33 39L32 39L32 38L30 38L30 37L29 37L29 36L28 36L28 35L26 35L26 34L28 34L28 33L29 33L29 32L28 32L28 33L25 33L25 36L24 36L24 37L25 37L25 36L26 36L26 39L29 39L29 40L30 40L30 41L31 41L31 43L30 43L30 44L31 44L31 43L35 43L35 42L37 42L37 43L38 43L38 44L37 44L37 45L38 45L38 46L39 46L39 47L40 47L40 46L39 46L39 45L40 45L40 44L41 44L41 43L40 43L40 41L41 41L41 40L44 40L44 42L43 42L43 43L44 43L44 42L45 42L45 43L46 43L46 42L47 42L47 40L51 40L51 41L50 41L50 43L49 43L49 42L48 42L48 44L50 44L50 43L52 43L52 42L51 42L51 41L55 41L55 40L53 40L53 39L52 39L52 40L51 40L51 37L53 37L53 36L51 36L51 33L52 33L52 34L53 34L53 35L54 35L54 36L55 36L55 35L54 35L54 34L53 34L53 33L55 33L55 31L57 31L57 30L59 30L59 28L58 28L58 27L57 27L57 26L59 26L59 27L61 27L61 26L59 26L59 25L60 25L60 24L59 24L59 25L57 25L57 24L58 24L58 22L59 22L59 21L60 21L60 20L61 20L61 19L62 19L62 18L59 18L59 16L58 16L58 15L59 15L59 14L60 14L60 13L59 13L59 11ZM57 12L57 13L56 13L56 14L57 14L57 15L58 15L58 14L57 14L57 13L58 13L58 12ZM4 14L4 18L6 18L6 19L5 19L5 20L6 20L6 21L8 21L8 20L10 20L10 21L9 21L9 22L11 22L11 19L9 19L9 18L8 18L8 17L7 17L7 16L5 16L5 14ZM6 14L6 15L7 15L7 14ZM33 15L33 16L34 16L34 15ZM46 16L46 18L48 18L48 17L47 17L47 16ZM57 16L57 17L58 17L58 16ZM6 17L6 18L7 18L7 19L6 19L6 20L8 20L8 18L7 18L7 17ZM11 17L11 18L12 18L12 17ZM27 17L27 18L28 18L28 17ZM56 19L56 20L57 20L57 19ZM35 20L35 21L36 21L36 20ZM52 20L52 21L53 21L53 20ZM56 21L56 22L55 22L55 23L54 23L54 24L53 24L53 25L52 25L52 27L51 27L51 28L52 28L52 27L53 27L53 28L54 28L54 29L51 29L51 32L50 32L50 29L49 29L49 28L50 28L50 27L49 27L49 26L50 26L50 25L49 25L49 24L48 24L48 25L47 25L47 26L48 26L48 27L49 27L49 28L47 28L47 31L48 31L48 32L46 32L46 31L45 31L45 30L44 30L44 32L43 32L43 33L40 33L40 35L39 35L39 36L41 36L41 37L39 37L39 39L38 39L38 38L36 38L36 39L35 39L35 38L34 38L34 39L35 39L35 40L36 40L36 41L37 41L37 42L38 42L38 41L37 41L37 40L41 40L41 38L43 38L43 39L45 39L45 40L47 40L47 38L48 38L48 39L49 39L49 38L50 38L50 36L48 36L48 34L50 34L50 33L51 33L51 32L52 32L52 30L53 30L53 32L54 32L54 31L55 31L55 29L56 29L56 30L57 30L57 29L56 29L56 28L55 28L55 27L56 27L56 26L57 26L57 25L56 25L56 24L57 24L57 23L56 23L56 22L57 22L57 21ZM6 22L6 23L7 23L7 22ZM14 22L14 23L13 23L13 24L11 24L11 23L8 23L8 27L9 27L9 26L10 26L10 24L11 24L11 26L12 26L12 27L14 27L14 26L12 26L12 25L13 25L13 24L14 24L14 23L15 23L15 22ZM61 22L61 24L62 24L62 22ZM26 23L26 24L27 24L27 23ZM55 23L55 24L54 24L54 25L55 25L55 26L56 26L56 25L55 25L55 24L56 24L56 23ZM6 24L6 25L7 25L7 24ZM15 24L15 25L16 25L16 26L15 26L15 27L16 27L16 28L17 28L17 30L18 30L18 31L17 31L17 32L16 32L16 33L17 33L17 34L18 34L18 35L20 35L20 34L19 34L19 33L20 33L20 28L19 28L19 27L18 27L18 26L17 26L17 25L16 25L16 24ZM37 24L37 25L38 25L38 24ZM21 25L21 26L20 26L20 27L22 27L22 25ZM48 25L48 26L49 26L49 25ZM6 26L6 27L7 27L7 26ZM26 26L26 28L28 28L28 27L29 27L29 26ZM35 26L35 27L36 27L36 26ZM53 26L53 27L54 27L54 26ZM39 28L39 29L40 29L40 28ZM12 29L12 30L13 30L13 29ZM18 29L18 30L19 30L19 29ZM48 29L48 30L49 30L49 29ZM21 30L21 32L22 32L22 30ZM1 31L1 32L2 32L2 31ZM6 31L6 32L7 32L7 31ZM12 31L12 32L13 32L13 31ZM35 31L35 32L37 32L37 31ZM67 31L67 32L66 32L66 33L65 33L65 34L66 34L66 33L67 33L67 34L68 34L68 31ZM17 32L17 33L18 33L18 32ZM44 32L44 33L43 33L43 34L41 34L41 36L42 36L42 35L43 35L43 36L44 36L44 37L45 37L45 38L47 38L47 37L48 37L48 36L47 36L47 33L46 33L46 32ZM49 32L49 33L50 33L50 32ZM5 33L5 36L8 36L8 33ZM33 33L33 36L36 36L36 33ZM44 33L44 36L45 36L45 37L47 37L47 36L45 36L45 33ZM61 33L61 36L64 36L64 33ZM6 34L6 35L7 35L7 34ZM10 34L10 35L11 35L11 34ZM34 34L34 35L35 35L35 34ZM62 34L62 35L63 35L63 34ZM30 35L30 36L31 36L31 37L32 37L32 36L31 36L31 35ZM67 35L67 36L68 36L68 35ZM11 36L11 37L12 37L12 38L11 38L11 39L9 39L9 40L10 40L10 42L11 42L11 43L12 43L12 44L14 44L14 45L15 45L15 44L16 44L16 43L12 43L12 42L14 42L14 41L15 41L15 42L16 42L16 41L15 41L15 40L17 40L17 38L19 38L19 39L18 39L18 41L17 41L17 42L18 42L18 41L19 41L19 42L20 42L20 41L19 41L19 40L21 40L21 41L22 41L22 40L21 40L21 39L22 39L22 37L21 37L21 38L20 38L20 36L17 36L17 38L14 38L14 37L12 37L12 36ZM27 36L27 37L28 37L28 36ZM58 36L58 37L59 37L59 36ZM65 36L65 37L66 37L66 36ZM1 37L1 38L2 38L2 37ZM29 38L29 39L30 39L30 38ZM11 39L11 42L12 42L12 41L14 41L14 40L15 40L15 39L14 39L14 40L13 40L13 39ZM31 39L31 40L32 40L32 39ZM57 40L57 42L58 42L58 40ZM7 41L7 42L6 42L6 43L7 43L7 44L8 44L8 43L7 43L7 42L9 42L9 41ZM32 41L32 42L33 42L33 41ZM34 41L34 42L35 42L35 41ZM67 41L67 42L68 42L68 41ZM1 42L1 43L2 43L2 42ZM3 42L3 43L4 43L4 42ZM53 42L53 43L54 43L54 42ZM39 43L39 44L38 44L38 45L39 45L39 44L40 44L40 43ZM63 43L63 44L64 44L64 43ZM33 44L33 45L34 45L34 46L35 46L35 47L36 47L36 44ZM41 45L41 46L42 46L42 48L43 48L43 46L42 46L42 45ZM52 45L52 46L54 46L54 47L55 47L55 46L56 46L56 45ZM20 46L20 47L19 47L19 48L21 48L21 46ZM27 46L27 48L28 48L28 46ZM29 48L29 49L31 49L31 50L33 50L33 51L34 51L34 50L33 50L33 49L31 49L31 48ZM49 48L49 49L50 49L50 48ZM27 49L27 50L26 50L26 51L27 51L27 52L28 52L28 53L31 53L31 54L33 54L33 53L34 53L34 52L33 52L33 53L32 53L32 51L30 51L30 50L29 50L29 52L28 52L28 51L27 51L27 50L28 50L28 49ZM43 49L43 50L44 50L44 49ZM41 50L41 52L42 52L42 53L43 53L43 52L44 52L44 51L42 51L42 50ZM9 51L9 53L10 53L10 51ZM15 51L15 53L14 53L14 55L15 55L15 54L16 54L16 55L18 55L18 53L16 53L16 51ZM37 52L37 53L38 53L38 52ZM61 52L61 54L62 54L62 52ZM5 53L5 54L7 54L7 53ZM21 53L21 54L22 54L22 53ZM54 54L54 55L55 55L55 54ZM52 55L52 56L51 56L51 57L52 57L52 58L53 58L53 59L54 59L54 58L53 58L53 57L55 57L55 56L53 56L53 55ZM67 55L67 56L68 56L68 55ZM16 56L16 57L15 57L15 58L16 58L16 57L17 57L17 56ZM33 56L33 57L35 57L35 58L36 58L36 59L37 59L37 56ZM38 56L38 59L39 59L39 57L41 57L41 56ZM64 56L64 57L63 57L63 58L62 58L62 60L63 60L63 58L65 58L65 56ZM66 57L66 58L68 58L68 57ZM10 58L10 59L11 59L11 58ZM28 58L28 59L29 59L29 58ZM41 58L41 59L40 59L40 62L39 62L39 61L38 61L38 60L37 60L37 61L38 61L38 65L37 65L37 66L39 66L39 67L40 67L40 66L41 66L41 67L43 67L43 68L44 68L44 66L45 66L45 67L46 67L46 66L47 66L47 63L46 63L46 62L47 62L47 61L46 61L46 62L44 62L44 61L43 61L43 60L42 60L42 58ZM55 58L55 59L56 59L56 61L55 61L55 62L54 62L54 63L55 63L55 64L56 64L56 65L57 65L57 63L56 63L56 61L57 61L57 62L59 62L59 64L60 64L60 62L59 62L59 61L60 61L60 60L61 60L61 58L59 58L59 61L57 61L57 60L58 60L58 59L57 59L57 58ZM13 59L13 60L14 60L14 62L16 62L16 63L15 63L15 64L17 64L17 65L18 65L18 64L17 64L17 63L18 63L18 62L19 62L19 61L18 61L18 60L16 60L16 59ZM31 59L31 60L28 60L28 61L29 61L29 62L31 62L31 60L32 60L32 59ZM64 59L64 60L66 60L66 59ZM3 60L3 61L5 61L5 60ZM8 60L8 61L9 61L9 60ZM15 60L15 61L16 61L16 60ZM24 60L24 61L25 61L25 60ZM41 60L41 62L42 62L42 63L44 63L44 64L41 64L41 63L39 63L39 64L41 64L41 66L44 66L44 64L45 64L45 66L46 66L46 64L45 64L45 63L44 63L44 62L43 62L43 61L42 61L42 60ZM68 60L68 61L69 61L69 60ZM17 61L17 62L18 62L18 61ZM33 61L33 64L36 64L36 61ZM61 61L61 64L64 64L64 61ZM34 62L34 63L35 63L35 62ZM62 62L62 63L63 63L63 62ZM65 62L65 63L66 63L66 62ZM25 63L25 64L26 64L26 63ZM13 64L13 65L14 65L14 64ZM65 64L65 65L62 65L62 66L61 66L61 67L60 67L60 68L61 68L61 67L62 67L62 68L63 68L63 67L65 67L65 66L66 66L66 65L67 65L67 64ZM10 65L10 66L9 66L9 67L11 67L11 66L12 66L12 65ZM30 65L30 66L29 66L29 68L31 68L31 66L32 66L32 65ZM62 66L62 67L63 67L63 66ZM33 68L33 69L34 69L34 68ZM50 68L50 69L51 69L51 68ZM0 0L0 7L7 7L7 0ZM1 1L1 6L6 6L6 1ZM2 2L2 5L5 5L5 2ZM62 0L62 7L69 7L69 0ZM63 1L63 6L68 6L68 1ZM64 2L64 5L67 5L67 2ZM0 62L0 69L7 69L7 62ZM1 63L1 68L6 68L6 63ZM2 64L2 67L5 67L5 64Z" fill="#000000"/></g></g></svg>
