<?xml version="1.0" encoding="UTF-8"?>
<svg xmlns="http://www.w3.org/2000/svg" version="1.1" width="300" height="300" viewBox="0 0 300 300"><rect x="0" y="0" width="300" height="300" fill="#ffffff"/><g transform="scale(4.348)"><g transform="translate(0,0)"><path fill-rule="evenodd" d="M9 0L9 1L8 1L8 2L9 2L9 1L10 1L10 0ZM11 0L11 1L12 1L12 0ZM14 0L14 1L18 1L18 2L14 2L14 3L12 3L12 2L10 2L10 5L8 5L8 7L9 7L9 6L10 6L10 8L6 8L6 9L7 9L7 10L6 10L6 11L7 11L7 10L8 10L8 12L6 12L6 13L7 13L7 14L6 14L6 15L7 15L7 14L8 14L8 16L5 16L5 17L4 17L4 15L3 15L3 14L5 14L5 13L1 13L1 12L0 12L0 13L1 13L1 14L0 14L0 17L1 17L1 19L0 19L0 20L1 20L1 21L0 21L0 27L1 27L1 26L2 26L2 24L1 24L1 23L2 23L2 22L4 22L4 21L9 21L9 22L5 22L5 23L3 23L3 27L2 27L2 28L5 28L5 29L4 29L4 30L5 30L5 31L4 31L4 34L3 34L3 33L2 33L2 34L3 34L3 36L2 36L2 35L1 35L1 33L0 33L0 38L3 38L3 39L5 39L5 38L6 38L6 39L7 39L7 40L5 40L5 41L4 41L4 40L3 40L3 41L2 41L2 44L1 44L1 42L0 42L0 44L1 44L1 45L0 45L0 46L1 46L1 47L3 47L3 48L4 48L4 49L7 49L7 50L6 50L6 51L7 51L7 50L8 50L8 52L9 52L9 53L7 53L7 52L5 52L5 53L7 53L7 54L6 54L6 55L9 55L9 53L10 53L10 54L11 54L11 53L10 53L10 52L12 52L12 51L14 51L14 53L15 53L15 51L16 51L16 52L17 52L17 50L15 50L15 51L14 51L14 50L12 50L12 47L11 47L11 49L10 49L10 48L9 48L9 47L10 47L10 46L12 46L12 45L13 45L13 49L14 49L14 48L15 48L15 49L18 49L18 51L19 51L19 52L18 52L18 53L17 53L17 54L15 54L15 57L16 57L16 58L15 58L15 59L16 59L16 60L18 60L18 61L17 61L17 62L18 62L18 63L17 63L17 64L15 64L15 65L17 65L17 66L18 66L18 67L20 67L20 66L19 66L19 65L20 65L20 64L23 64L23 63L26 63L26 64L25 64L25 65L23 65L23 66L22 66L22 65L21 65L21 67L25 67L25 68L24 68L24 69L26 69L26 67L28 67L28 68L29 68L29 69L32 69L32 67L33 67L33 65L35 65L35 66L34 66L34 67L35 67L35 68L36 68L36 69L38 69L38 68L37 68L37 67L39 67L39 68L40 68L40 67L41 67L41 66L44 66L44 68L43 68L43 69L44 69L44 68L47 68L47 69L49 69L49 68L52 68L52 67L53 67L53 66L55 66L55 68L54 68L54 69L55 69L55 68L59 68L59 67L60 67L60 68L62 68L62 67L63 67L63 69L68 69L68 68L67 68L67 65L68 65L68 64L67 64L67 63L68 63L68 62L67 62L67 61L65 61L65 60L68 60L68 54L69 54L69 53L66 53L66 52L68 52L68 50L69 50L69 49L68 49L68 48L69 48L69 47L67 47L67 46L69 46L69 45L67 45L67 44L69 44L69 43L68 43L68 42L69 42L69 40L68 40L68 42L66 42L66 43L65 43L65 45L66 45L66 47L64 47L64 46L63 46L63 47L64 47L64 49L65 49L65 48L67 48L67 49L66 49L66 50L63 50L63 51L62 51L62 46L60 46L60 47L59 47L59 48L58 48L58 49L59 49L59 48L60 48L60 47L61 47L61 50L55 50L55 49L56 49L56 48L55 48L55 47L54 47L54 46L56 46L56 47L58 47L58 46L56 46L56 44L57 44L57 45L58 45L58 44L57 44L57 43L56 43L56 44L55 44L55 45L54 45L54 46L53 46L53 45L52 45L52 46L53 46L53 48L54 48L54 49L52 49L52 50L51 50L51 51L50 51L50 48L51 48L51 46L50 46L50 43L49 43L49 44L48 44L48 43L47 43L47 42L46 42L46 43L45 43L45 42L44 42L44 40L41 40L41 39L42 39L42 38L43 38L43 39L45 39L45 40L47 40L47 41L48 41L48 42L50 42L50 41L51 41L51 43L53 43L53 42L54 42L54 43L55 43L55 42L56 42L56 40L55 40L55 41L51 41L51 40L53 40L53 38L54 38L54 39L55 39L55 37L56 37L56 38L57 38L57 41L58 41L58 39L60 39L60 38L61 38L61 39L62 39L62 40L64 40L64 41L63 41L63 42L64 42L64 41L67 41L67 39L68 39L68 38L67 38L67 37L68 37L68 36L69 36L69 35L68 35L68 34L69 34L69 33L68 33L68 34L67 34L67 33L66 33L66 32L68 32L68 29L69 29L69 27L68 27L68 26L69 26L69 23L68 23L68 22L66 22L66 23L65 23L65 25L63 25L63 24L61 24L61 23L62 23L62 21L63 21L63 23L64 23L64 22L65 22L65 21L68 21L68 18L69 18L69 17L68 17L68 16L67 16L67 15L68 15L68 12L67 12L67 11L68 11L68 10L69 10L69 9L68 9L68 8L67 8L67 9L66 9L66 8L65 8L65 11L64 11L64 12L66 12L66 13L67 13L67 14L64 14L64 15L62 15L62 12L63 12L63 10L62 10L62 8L61 8L61 9L60 9L60 8L58 8L58 9L59 9L59 12L58 12L58 13L59 13L59 15L58 15L58 14L57 14L57 13L56 13L56 12L57 12L57 11L56 11L56 10L57 10L57 9L56 9L56 10L55 10L55 8L57 8L57 6L58 6L58 7L59 7L59 4L58 4L58 5L57 5L57 4L56 4L56 3L54 3L54 2L57 2L57 3L59 3L59 2L57 2L57 0L56 0L56 1L55 1L55 0L51 0L51 2L50 2L50 0L49 0L49 1L48 1L48 0L47 0L47 1L46 1L46 0L44 0L44 1L46 1L46 2L47 2L47 4L48 4L48 5L49 5L49 6L48 6L48 7L47 7L47 6L46 6L46 5L44 5L44 3L45 3L45 4L46 4L46 3L45 3L45 2L44 2L44 3L42 3L42 4L41 4L41 5L44 5L44 7L45 7L45 9L44 9L44 8L43 8L43 9L39 9L39 6L38 6L38 5L37 5L37 4L38 4L38 3L37 3L37 2L39 2L39 3L40 3L40 2L41 2L41 1L42 1L42 2L43 2L43 0L41 0L41 1L38 1L38 0L36 0L36 1L35 1L35 4L33 4L33 1L32 1L32 0L28 0L28 1L27 1L27 2L28 2L28 3L29 3L29 5L28 5L28 7L29 7L29 6L30 6L30 7L31 7L31 6L30 6L30 5L32 5L32 10L31 10L31 9L30 9L30 8L28 8L28 9L30 9L30 11L28 11L28 12L27 12L27 11L26 11L26 12L24 12L24 11L23 11L23 14L24 14L24 15L21 15L21 14L22 14L22 13L21 13L21 12L19 12L19 10L20 10L20 9L22 9L22 8L21 8L21 6L22 6L22 7L23 7L23 8L24 8L24 9L23 9L23 10L24 10L24 9L25 9L25 10L26 10L26 8L27 8L27 5L26 5L26 8L25 8L25 6L24 6L24 7L23 7L23 6L22 6L22 5L23 5L23 4L24 4L24 5L25 5L25 4L26 4L26 2L25 2L25 4L24 4L24 3L23 3L23 2L21 2L21 3L19 3L19 2L20 2L20 1L19 1L19 0ZM23 0L23 1L25 1L25 0ZM58 0L58 1L61 1L61 0ZM29 1L29 3L31 3L31 4L32 4L32 1ZM49 2L49 5L52 5L52 6L51 6L51 7L50 7L50 6L49 6L49 7L50 7L50 8L51 8L51 9L50 9L50 10L47 10L47 7L46 7L46 6L45 6L45 7L46 7L46 9L45 9L45 10L42 10L42 12L41 12L41 11L40 11L40 12L39 12L39 13L38 13L38 12L37 12L37 10L36 10L36 9L35 9L35 10L34 10L34 9L33 9L33 10L32 10L32 11L31 11L31 12L32 12L32 13L30 13L30 12L29 12L29 13L27 13L27 12L26 12L26 13L25 13L25 15L26 15L26 16L25 16L25 17L26 17L26 22L25 22L25 23L23 23L23 24L26 24L26 25L25 25L25 27L26 27L26 30L27 30L27 29L28 29L28 30L29 30L29 31L32 31L32 32L31 32L31 33L29 33L29 32L28 32L28 31L27 31L27 32L28 32L28 33L25 33L25 32L26 32L26 31L25 31L25 30L23 30L23 29L24 29L24 27L23 27L23 28L21 28L21 27L22 27L22 26L24 26L24 25L22 25L22 24L21 24L21 25L20 25L20 26L19 26L19 25L18 25L18 27L20 27L20 30L19 30L19 29L17 29L17 28L16 28L16 27L15 27L15 26L16 26L16 25L17 25L17 23L18 23L18 24L20 24L20 22L21 22L21 23L22 23L22 22L23 22L23 20L25 20L25 19L24 19L24 18L23 18L23 17L24 17L24 16L20 16L20 14L21 14L21 13L19 13L19 14L18 14L18 13L17 13L17 12L14 12L14 10L15 10L15 11L18 11L18 10L19 10L19 9L20 9L20 6L19 6L19 7L18 7L18 5L17 5L17 3L16 3L16 4L14 4L14 5L17 5L17 7L16 7L16 6L15 6L15 7L14 7L14 6L13 6L13 7L12 7L12 5L13 5L13 4L12 4L12 5L11 5L11 7L12 7L12 9L13 9L13 7L14 7L14 10L13 10L13 13L12 13L12 11L10 11L10 14L9 14L9 12L8 12L8 14L9 14L9 16L8 16L8 17L6 17L6 18L5 18L5 20L7 20L7 19L6 19L6 18L8 18L8 19L9 19L9 20L10 20L10 23L8 23L8 24L7 24L7 23L6 23L6 24L7 24L7 25L6 25L6 26L8 26L8 27L5 27L5 24L4 24L4 27L5 27L5 28L7 28L7 29L5 29L5 30L7 30L7 31L5 31L5 32L7 32L7 31L8 31L8 32L9 32L9 31L10 31L10 30L12 30L12 32L15 32L15 33L16 33L16 35L17 35L17 36L13 36L13 35L12 35L12 33L11 33L11 32L10 32L10 33L9 33L9 34L10 34L10 33L11 33L11 35L10 35L10 36L11 36L11 37L10 37L10 38L8 38L8 37L6 37L6 38L8 38L8 40L7 40L7 41L5 41L5 42L3 42L3 44L2 44L2 45L3 45L3 46L4 46L4 45L5 45L5 44L4 44L4 43L6 43L6 44L7 44L7 45L6 45L6 46L5 46L5 48L8 48L8 47L9 47L9 46L7 46L7 45L8 45L8 43L10 43L10 44L11 44L11 45L12 45L12 43L10 43L10 42L13 42L13 43L14 43L14 42L15 42L15 43L16 43L16 44L19 44L19 45L20 45L20 46L18 46L18 45L15 45L15 44L13 44L13 45L15 45L15 46L18 46L18 47L17 47L17 48L18 48L18 49L22 49L22 50L21 50L21 51L22 51L22 52L19 52L19 53L18 53L18 55L17 55L17 56L16 56L16 57L17 57L17 56L20 56L20 59L22 59L22 58L24 58L24 57L22 57L22 56L20 56L20 55L22 55L22 54L23 54L23 52L24 52L24 51L23 51L23 48L21 48L21 47L20 47L20 46L21 46L21 45L22 45L22 46L23 46L23 45L24 45L24 44L25 44L25 43L26 43L26 46L24 46L24 47L26 47L26 48L25 48L25 49L26 49L26 50L27 50L27 51L28 51L28 52L26 52L26 53L25 53L25 54L24 54L24 55L25 55L25 56L26 56L26 57L25 57L25 58L26 58L26 59L28 59L28 58L29 58L29 57L30 57L30 56L27 56L27 55L30 55L30 54L29 54L29 53L28 53L28 52L29 52L29 51L31 51L31 56L32 56L32 57L31 57L31 63L29 63L29 61L27 61L27 60L26 60L26 61L25 61L25 60L24 60L24 59L23 59L23 60L20 60L20 62L19 62L19 61L18 61L18 62L19 62L19 64L20 64L20 62L21 62L21 63L23 63L23 62L21 62L21 61L23 61L23 60L24 60L24 61L25 61L25 62L27 62L27 63L28 63L28 65L25 65L25 66L28 66L28 65L29 65L29 66L30 66L30 65L29 65L29 64L31 64L31 63L32 63L32 57L35 57L35 55L40 55L40 54L41 54L41 52L42 52L42 53L43 53L43 54L42 54L42 55L43 55L43 56L42 56L42 57L43 57L43 59L44 59L44 61L43 61L43 60L42 60L42 58L41 58L41 59L40 59L40 62L39 62L39 61L38 61L38 60L39 60L39 57L41 57L41 56L38 56L38 59L37 59L37 58L36 58L36 59L37 59L37 61L38 61L38 63L41 63L41 64L38 64L38 65L36 65L36 66L39 66L39 67L40 67L40 66L41 66L41 64L44 64L44 66L45 66L45 67L46 67L46 66L47 66L47 67L49 67L49 65L47 65L47 64L50 64L50 67L52 67L52 66L53 66L53 64L54 64L54 62L53 62L53 64L50 64L50 63L51 63L51 61L53 61L53 60L54 60L54 58L53 58L53 60L52 60L52 58L51 58L51 57L55 57L55 56L56 56L56 57L57 57L57 58L56 58L56 61L55 61L55 62L59 62L59 64L58 64L58 65L57 65L57 64L56 64L56 63L55 63L55 64L56 64L56 66L57 66L57 67L59 67L59 66L60 66L60 65L59 65L59 64L60 64L60 62L59 62L59 61L60 61L60 60L61 60L61 58L59 58L59 57L60 57L60 56L62 56L62 60L64 60L64 59L65 59L65 58L67 58L67 57L65 57L65 56L63 56L63 55L66 55L66 54L65 54L65 52L66 52L66 51L64 51L64 53L62 53L62 52L61 52L61 51L58 51L58 52L57 52L57 51L53 51L53 50L52 50L52 51L53 51L53 52L49 52L49 53L50 53L50 54L49 54L49 55L50 55L50 54L51 54L51 55L52 55L52 56L51 56L51 57L50 57L50 56L49 56L49 57L50 57L50 58L51 58L51 61L50 61L50 59L48 59L48 58L47 58L47 57L46 57L46 56L47 56L47 53L45 53L45 52L46 52L46 51L47 51L47 50L48 50L48 51L49 51L49 50L48 50L48 48L50 48L50 47L49 47L49 46L47 46L47 43L46 43L46 44L45 44L45 43L44 43L44 42L43 42L43 44L44 44L44 45L43 45L43 46L42 46L42 45L41 45L41 46L42 46L42 48L41 48L41 47L40 47L40 46L39 46L39 45L40 45L40 44L41 44L41 43L40 43L40 41L41 41L41 40L39 40L39 39L41 39L41 38L40 38L40 37L43 37L43 36L44 36L44 37L45 37L45 38L47 38L47 40L49 40L49 41L50 41L50 40L51 40L51 39L52 39L52 38L53 38L53 37L54 37L54 36L53 36L53 35L54 35L54 34L52 34L52 33L54 33L54 32L53 32L53 28L56 28L56 29L55 29L55 32L56 32L56 33L55 33L55 34L56 34L56 33L57 33L57 35L56 35L56 37L57 37L57 38L60 38L60 37L57 37L57 36L60 36L60 34L59 34L59 29L58 29L58 26L59 26L59 28L61 28L61 29L62 29L62 31L60 31L60 32L62 32L62 31L63 31L63 32L64 32L64 31L63 31L63 29L65 29L65 31L67 31L67 29L68 29L68 28L65 28L65 27L67 27L67 26L68 26L68 25L67 25L67 26L63 26L63 25L62 25L62 26L63 26L63 27L62 27L62 28L61 28L61 27L60 27L60 26L59 26L59 25L60 25L60 24L59 24L59 23L58 23L58 22L59 22L59 21L62 21L62 20L63 20L63 21L65 21L65 18L66 18L66 19L67 19L67 18L66 18L66 16L65 16L65 15L64 15L64 16L62 16L62 15L61 15L61 16L62 16L62 18L61 18L61 20L60 20L60 18L59 18L59 17L57 17L57 15L56 15L56 13L55 13L55 12L56 12L56 11L55 11L55 10L53 10L53 7L54 7L54 5L52 5L52 4L54 4L54 3L53 3L53 2L51 2L51 4L50 4L50 2ZM8 3L8 4L9 4L9 3ZM21 3L21 4L19 4L19 5L21 5L21 4L23 4L23 3ZM60 3L60 5L61 5L61 3ZM39 4L39 5L40 5L40 4ZM33 5L33 8L36 8L36 5ZM56 5L56 6L55 6L55 7L56 7L56 6L57 6L57 5ZM34 6L34 7L35 7L35 6ZM37 6L37 9L38 9L38 11L39 11L39 9L38 9L38 6ZM40 6L40 8L41 8L41 6ZM42 6L42 7L43 7L43 6ZM52 6L52 7L53 7L53 6ZM60 6L60 7L61 7L61 6ZM15 7L15 8L16 8L16 7ZM0 8L0 9L2 9L2 10L0 10L0 11L2 11L2 12L4 12L4 11L5 11L5 8ZM18 8L18 9L15 9L15 10L18 10L18 9L19 9L19 8ZM63 8L63 9L64 9L64 8ZM3 9L3 11L4 11L4 9ZM8 9L8 10L10 10L10 9ZM21 10L21 11L22 11L22 10ZM33 10L33 11L34 11L34 10ZM35 10L35 11L36 11L36 10ZM51 10L51 11L50 11L50 12L47 12L47 14L45 14L45 13L46 13L46 12L45 12L45 11L43 11L43 13L42 13L42 14L41 14L41 12L40 12L40 13L39 13L39 14L40 14L40 15L38 15L38 13L37 13L37 14L35 14L35 15L36 15L36 16L35 16L35 17L32 17L32 15L33 15L33 16L34 16L34 15L33 15L33 14L34 14L34 13L36 13L36 12L33 12L33 14L30 14L30 13L29 13L29 14L27 14L27 13L26 13L26 14L27 14L27 15L29 15L29 22L27 22L27 23L26 23L26 24L27 24L27 25L28 25L28 24L30 24L30 25L29 25L29 26L30 26L30 27L31 27L31 28L28 28L28 29L29 29L29 30L30 30L30 29L31 29L31 30L33 30L33 31L34 31L34 32L32 32L32 34L31 34L31 35L29 35L29 33L28 33L28 34L26 34L26 36L25 36L25 35L24 35L24 34L25 34L25 33L24 33L24 31L23 31L23 34L22 34L22 33L21 33L21 36L17 36L17 37L19 37L19 38L18 38L18 40L17 40L17 41L18 41L18 42L19 42L19 44L20 44L20 43L21 43L21 44L22 44L22 43L23 43L23 44L24 44L24 43L23 43L23 42L24 42L24 41L26 41L26 43L27 43L27 41L28 41L28 40L27 40L27 41L26 41L26 38L27 38L27 37L28 37L28 36L29 36L29 38L28 38L28 39L30 39L30 38L31 38L31 35L32 35L32 38L33 38L33 39L31 39L31 40L35 40L35 43L32 43L32 45L33 45L33 46L32 46L32 47L33 47L33 46L34 46L34 48L36 48L36 47L37 47L37 48L38 48L38 45L39 45L39 44L40 44L40 43L39 43L39 44L38 44L38 45L37 45L37 43L36 43L36 41L37 41L37 42L38 42L38 41L39 41L39 40L38 40L38 38L34 38L34 37L38 37L38 36L37 36L37 34L38 34L38 33L39 33L39 32L43 32L43 33L40 33L40 36L41 36L41 34L43 34L43 33L44 33L44 36L45 36L45 37L49 37L49 38L48 38L48 39L49 39L49 38L50 38L50 39L51 39L51 38L50 38L50 36L49 36L49 35L51 35L51 36L52 36L52 35L51 35L51 34L49 34L49 33L51 33L51 32L49 32L49 31L50 31L50 29L51 29L51 28L50 28L50 27L53 27L53 26L55 26L55 25L56 25L56 23L57 23L57 22L58 22L58 20L57 20L57 22L56 22L56 19L59 19L59 18L57 18L57 17L56 17L56 16L55 16L55 15L52 15L52 16L54 16L54 17L51 17L51 16L50 16L50 12L51 12L51 11L53 11L53 12L55 12L55 11L53 11L53 10ZM61 10L61 11L62 11L62 10ZM66 10L66 11L67 11L67 10ZM44 12L44 13L43 13L43 14L42 14L42 15L40 15L40 16L38 16L38 15L37 15L37 16L38 16L38 18L37 18L37 19L35 19L35 18L34 18L34 19L33 19L33 18L31 18L31 19L32 19L32 20L31 20L31 21L30 21L30 22L29 22L29 23L30 23L30 22L31 22L31 21L32 21L32 24L31 24L31 25L32 25L32 26L31 26L31 27L33 27L33 28L34 28L34 29L33 29L33 30L34 30L34 29L35 29L35 30L36 30L36 28L35 28L35 27L36 27L36 26L33 26L33 25L32 25L32 24L34 24L34 25L36 25L36 24L35 24L35 23L33 23L33 20L34 20L34 22L37 22L37 24L38 24L38 26L41 26L41 25L42 25L42 24L41 24L41 22L42 22L42 23L43 23L43 24L44 24L44 25L43 25L43 26L46 26L46 27L43 27L43 28L44 28L44 29L43 29L43 30L42 30L42 27L38 27L38 31L39 31L39 30L40 30L40 31L43 31L43 32L44 32L44 33L45 33L45 36L48 36L48 33L45 33L45 32L44 32L44 30L45 30L45 31L46 31L46 32L47 32L47 31L46 31L46 30L47 30L47 28L49 28L49 27L48 27L48 26L49 26L49 25L48 25L48 24L49 24L49 23L48 23L48 24L47 24L47 22L48 22L48 21L46 21L46 20L52 20L52 21L50 21L50 26L51 26L51 25L55 25L55 24L54 24L54 23L53 23L53 21L55 21L55 19L56 19L56 17L55 17L55 18L52 18L52 19L51 19L51 17L50 17L50 19L47 19L47 18L48 18L48 17L47 17L47 16L44 16L44 15L45 15L45 14L44 14L44 13L45 13L45 12ZM60 12L60 13L61 13L61 12ZM11 13L11 14L10 14L10 15L13 15L13 17L12 17L12 19L13 19L13 18L14 18L14 17L16 17L16 18L17 18L17 17L18 17L18 19L19 19L19 20L17 20L17 19L14 19L14 20L17 20L17 21L18 21L18 23L19 23L19 22L20 22L20 21L21 21L21 20L22 20L22 19L23 19L23 18L22 18L22 19L21 19L21 17L18 17L18 16L17 16L17 15L18 15L18 14L17 14L17 13L13 13L13 14L12 14L12 13ZM52 13L52 14L55 14L55 13ZM1 14L1 17L2 17L2 16L3 16L3 15L2 15L2 14ZM15 14L15 15L14 15L14 16L15 16L15 15L16 15L16 14ZM29 14L29 15L30 15L30 14ZM43 14L43 15L44 15L44 14ZM47 14L47 15L49 15L49 14ZM59 15L59 16L60 16L60 15ZM9 16L9 17L8 17L8 18L9 18L9 19L10 19L10 20L11 20L11 22L12 22L12 23L13 23L13 24L14 24L14 25L11 25L11 24L8 24L8 25L10 25L10 26L9 26L9 27L8 27L8 28L9 28L9 29L7 29L7 30L9 30L9 29L10 29L10 28L11 28L11 29L12 29L12 30L13 30L13 31L14 31L14 29L15 29L15 28L14 28L14 25L16 25L16 23L15 23L15 21L14 21L14 22L12 22L12 21L13 21L13 20L11 20L11 18L10 18L10 16ZM16 16L16 17L17 17L17 16ZM42 16L42 17L41 17L41 18L39 18L39 19L37 19L37 20L35 20L35 21L37 21L37 22L39 22L39 23L40 23L40 20L41 20L41 21L42 21L42 22L44 22L44 23L45 23L45 24L46 24L46 25L47 25L47 26L48 26L48 25L47 25L47 24L46 24L46 22L44 22L44 20L43 20L43 17L44 17L44 16ZM3 17L3 18L2 18L2 19L4 19L4 17ZM27 17L27 18L28 18L28 17ZM63 17L63 18L62 18L62 19L63 19L63 20L64 20L64 19L63 19L63 18L65 18L65 17ZM19 18L19 19L20 19L20 18ZM44 18L44 19L45 19L45 18ZM27 19L27 20L28 20L28 19ZM39 19L39 20L40 20L40 19ZM41 19L41 20L42 20L42 21L43 21L43 20L42 20L42 19ZM52 19L52 20L54 20L54 19ZM19 20L19 21L20 21L20 20ZM37 20L37 21L38 21L38 20ZM1 21L1 22L2 22L2 21ZM55 22L55 23L56 23L56 22ZM60 22L60 23L61 23L61 22ZM14 23L14 24L15 24L15 23ZM27 23L27 24L28 24L28 23ZM67 23L67 24L68 24L68 23ZM21 25L21 26L20 26L20 27L21 27L21 26L22 26L22 25ZM10 26L10 27L12 27L12 26ZM26 26L26 27L28 27L28 26ZM56 26L56 27L57 27L57 26ZM63 27L63 28L64 28L64 27ZM0 28L0 29L1 29L1 28ZM12 28L12 29L13 29L13 28ZM31 28L31 29L32 29L32 28ZM39 28L39 29L40 29L40 28ZM45 28L45 30L46 30L46 28ZM2 29L2 30L1 30L1 32L2 32L2 31L3 31L3 29ZM48 29L48 30L49 30L49 29ZM56 29L56 32L57 32L57 33L58 33L58 32L57 32L57 29ZM15 30L15 32L16 32L16 33L17 33L17 34L19 34L19 35L20 35L20 34L19 34L19 33L20 33L20 32L19 32L19 30L18 30L18 31L17 31L17 30ZM20 30L20 31L21 31L21 32L22 32L22 31L21 31L21 30ZM35 31L35 32L37 32L37 33L38 33L38 32L37 32L37 31ZM17 32L17 33L18 33L18 32ZM5 33L5 36L8 36L8 33ZM33 33L33 36L36 36L36 33ZM61 33L61 36L64 36L64 33ZM6 34L6 35L7 35L7 34ZM34 34L34 35L35 35L35 34ZM62 34L62 35L63 35L63 34ZM65 34L65 35L66 35L66 34ZM27 35L27 36L26 36L26 37L25 37L25 36L24 36L24 37L25 37L25 38L23 38L23 36L21 36L21 37L20 37L20 38L19 38L19 39L20 39L20 38L21 38L21 37L22 37L22 39L21 39L21 40L20 40L20 42L23 42L23 41L24 41L24 40L23 40L23 39L25 39L25 38L26 38L26 37L27 37L27 36L28 36L28 35ZM42 35L42 36L43 36L43 35ZM67 35L67 36L68 36L68 35ZM1 36L1 37L2 37L2 36ZM11 37L11 38L10 38L10 40L9 40L9 41L8 41L8 42L6 42L6 43L8 43L8 42L9 42L9 41L10 41L10 40L11 40L11 39L13 39L13 40L12 40L12 41L13 41L13 40L14 40L14 39L15 39L15 40L16 40L16 39L17 39L17 38L16 38L16 39L15 39L15 38L14 38L14 37ZM61 37L61 38L62 38L62 39L66 39L66 38L65 38L65 37L64 37L64 38L62 38L62 37ZM13 38L13 39L14 39L14 38ZM0 40L0 41L1 41L1 40ZM21 40L21 41L22 41L22 40ZM29 40L29 41L30 41L30 42L28 42L28 43L30 43L30 44L29 44L29 47L28 47L28 46L27 46L27 47L28 47L28 48L29 48L29 49L30 49L30 50L32 50L32 54L33 54L33 53L34 53L34 52L33 52L33 51L34 51L34 49L33 49L33 48L32 48L32 49L31 49L31 47L30 47L30 46L31 46L31 41L30 41L30 40ZM37 40L37 41L38 41L38 40ZM60 40L60 41L59 41L59 43L61 43L61 44L62 44L62 45L63 45L63 44L64 44L64 43L63 43L63 44L62 44L62 41L61 41L61 40ZM15 41L15 42L16 42L16 41ZM32 41L32 42L33 42L33 41ZM60 41L60 42L61 42L61 41ZM27 44L27 45L28 45L28 44ZM33 44L33 45L34 45L34 46L35 46L35 47L36 47L36 44ZM44 45L44 46L45 46L45 49L44 49L44 47L43 47L43 48L42 48L42 49L41 49L41 50L39 50L39 51L37 51L37 50L38 50L38 49L37 49L37 50L36 50L36 49L35 49L35 52L36 52L36 53L35 53L35 54L39 54L39 52L40 52L40 51L41 51L41 50L42 50L42 52L43 52L43 53L44 53L44 56L43 56L43 57L44 57L44 56L46 56L46 54L45 54L45 53L44 53L44 52L45 52L45 49L46 49L46 46L45 46L45 45ZM6 46L6 47L7 47L7 46ZM19 47L19 48L20 48L20 47ZM39 47L39 48L40 48L40 47ZM47 47L47 48L48 48L48 47ZM1 48L1 51L3 51L3 54L4 54L4 51L3 51L3 50L2 50L2 48ZM8 49L8 50L10 50L10 51L12 51L12 50L10 50L10 49ZM27 49L27 50L28 50L28 49ZM32 49L32 50L33 50L33 49ZM43 49L43 50L44 50L44 49ZM19 50L19 51L20 51L20 50ZM43 51L43 52L44 52L44 51ZM0 52L0 53L1 53L1 52ZM37 52L37 53L38 53L38 52ZM55 52L55 53L51 53L51 54L52 54L52 55L53 55L53 56L55 56L55 55L53 55L53 54L56 54L56 56L59 56L59 54L58 54L58 55L57 55L57 54L56 54L56 52ZM58 52L58 53L59 53L59 52ZM19 53L19 54L20 54L20 53ZM21 53L21 54L22 54L22 53ZM1 54L1 58L0 58L0 61L1 61L1 58L2 58L2 59L3 59L3 58L4 58L4 59L7 59L7 60L6 60L6 61L7 61L7 60L8 60L8 63L9 63L9 64L8 64L8 69L9 69L9 68L10 68L10 69L11 69L11 68L10 68L10 67L13 67L13 65L12 65L12 66L10 66L10 65L11 65L11 64L10 64L10 63L11 63L11 62L10 62L10 61L13 61L13 62L12 62L12 64L13 64L13 62L14 62L14 63L16 63L16 62L14 62L14 61L15 61L15 60L14 60L14 58L12 58L12 59L13 59L13 60L11 60L11 57L14 57L14 56L6 56L6 57L5 57L5 58L4 58L4 56L5 56L5 55L4 55L4 56L3 56L3 55L2 55L2 54ZM13 54L13 55L14 55L14 54ZM25 54L25 55L27 55L27 54ZM60 54L60 55L62 55L62 54ZM33 55L33 56L34 56L34 55ZM36 56L36 57L37 57L37 56ZM2 57L2 58L3 58L3 57ZM6 57L6 58L7 58L7 59L9 59L9 61L10 61L10 59L9 59L9 58L7 58L7 57ZM21 57L21 58L22 58L22 57ZM17 58L17 59L18 59L18 58ZM33 58L33 59L35 59L35 58ZM45 58L45 59L46 59L46 58ZM57 58L57 59L58 59L58 58ZM29 59L29 60L30 60L30 59ZM3 60L3 61L5 61L5 60ZM13 60L13 61L14 61L14 60ZM41 60L41 62L42 62L42 63L44 63L44 64L45 64L45 66L46 66L46 64L45 64L45 63L46 63L46 62L43 62L43 61L42 61L42 60ZM45 60L45 61L47 61L47 62L50 62L50 61L49 61L49 60ZM57 60L57 61L59 61L59 60ZM33 61L33 64L36 64L36 61ZM61 61L61 64L64 64L64 61ZM9 62L9 63L10 63L10 62ZM34 62L34 63L35 63L35 62ZM62 62L62 63L63 63L63 62ZM65 62L65 63L66 63L66 62ZM9 64L9 65L10 65L10 64ZM17 64L17 65L18 65L18 64ZM65 64L65 65L64 65L64 66L63 66L63 65L61 65L61 67L62 67L62 66L63 66L63 67L65 67L65 66L66 66L66 65L67 65L67 64ZM31 65L31 66L32 66L32 65ZM51 65L51 66L52 66L52 65ZM14 67L14 68L15 68L15 69L16 69L16 68L17 68L17 69L21 69L21 68L17 68L17 67ZM30 67L30 68L31 68L31 67ZM33 68L33 69L34 69L34 68ZM0 0L0 7L7 7L7 0ZM1 1L1 6L6 6L6 1ZM2 2L2 5L5 5L5 2ZM62 0L62 7L69 7L69 0ZM63 1L63 6L68 6L68 1ZM64 2L64 5L67 5L67 2ZM0 62L0 69L7 69L7 62ZM1 63L1 68L6 68L6 63ZM2 64L2 67L5 67L5 64Z" fill="#000000"/></g></g></svg>
