<?xml version="1.0" encoding="UTF-8"?>
<svg xmlns="http://www.w3.org/2000/svg" version="1.1" width="300" height="300" viewBox="0 0 300 300"><rect x="0" y="0" width="300" height="300" fill="#ffffff"/><g transform="scale(4.348)"><g transform="translate(0,0)"><path fill-rule="evenodd" d="M8 0L8 4L9 4L9 5L8 5L8 7L9 7L9 6L10 6L10 12L12 12L12 11L14 11L14 9L15 9L15 12L14 12L14 13L12 13L12 14L15 14L15 16L14 16L14 15L13 15L13 16L12 16L12 15L11 15L11 14L9 14L9 17L8 17L8 15L7 15L7 14L8 14L8 13L9 13L9 10L8 10L8 12L6 12L6 13L4 13L4 14L3 14L3 13L1 13L1 14L0 14L0 15L3 15L3 16L1 16L1 17L0 17L0 24L3 24L3 25L1 25L1 26L2 26L2 27L4 27L4 28L0 28L0 31L1 31L1 32L2 32L2 34L3 34L3 35L4 35L4 39L2 39L2 41L3 41L3 40L4 40L4 39L5 39L5 41L4 41L4 42L3 42L3 43L4 43L4 44L6 44L6 45L5 45L5 46L4 46L4 45L3 45L3 44L0 44L0 46L1 46L1 45L3 45L3 48L2 48L2 47L0 47L0 48L1 48L1 49L0 49L0 50L1 50L1 52L0 52L0 54L1 54L1 53L3 53L3 54L4 54L4 53L5 53L5 55L7 55L7 54L6 54L6 53L7 53L7 52L6 52L6 53L5 53L5 52L4 52L4 53L3 53L3 51L4 51L4 49L5 49L5 51L8 51L8 50L9 50L9 51L10 51L10 52L11 52L11 51L12 51L12 52L14 52L14 54L15 54L15 56L16 56L16 52L14 52L14 51L15 51L15 50L16 50L16 51L17 51L17 54L19 54L19 52L20 52L20 54L22 54L22 52L23 52L23 51L24 51L24 50L25 50L25 51L26 51L26 57L27 57L27 58L28 58L28 59L27 59L27 60L26 60L26 61L24 61L24 59L23 59L23 58L22 58L22 60L21 60L21 59L20 59L20 58L21 58L21 57L24 57L24 58L25 58L25 59L26 59L26 58L25 58L25 55L24 55L24 54L25 54L25 53L23 53L23 56L22 56L22 55L21 55L21 57L20 57L20 56L18 56L18 55L17 55L17 57L15 57L15 58L14 58L14 57L12 57L12 56L13 56L13 54L11 54L11 53L8 53L8 54L9 54L9 55L8 55L8 56L6 56L6 57L5 57L5 56L4 56L4 57L3 57L3 55L2 55L2 56L1 56L1 55L0 55L0 57L1 57L1 58L0 58L0 61L1 61L1 58L2 58L2 59L3 59L3 58L4 58L4 59L7 59L7 60L6 60L6 61L7 61L7 60L8 60L8 62L9 62L9 60L8 60L8 59L10 59L10 61L12 61L12 63L13 63L13 64L14 64L14 63L16 63L16 65L15 65L15 66L14 66L14 67L13 67L13 66L11 66L11 67L10 67L10 69L12 69L12 68L16 68L16 67L17 67L17 69L19 69L19 68L18 68L18 67L20 67L20 66L21 66L21 67L22 67L22 68L24 68L24 69L25 69L25 68L24 68L24 67L25 67L25 66L27 66L27 67L26 67L26 69L27 69L27 67L28 67L28 66L30 66L30 65L31 65L31 68L30 68L30 67L29 67L29 68L28 68L28 69L31 69L31 68L32 68L32 69L33 69L33 68L32 68L32 67L34 67L34 68L35 68L35 67L34 67L34 65L35 65L35 66L36 66L36 65L37 65L37 63L38 63L38 62L39 62L39 60L41 60L41 62L40 62L40 63L39 63L39 64L38 64L38 66L37 66L37 67L39 67L39 68L38 68L38 69L40 69L40 68L41 68L41 69L43 69L43 68L41 68L41 67L43 67L43 63L42 63L42 62L44 62L44 69L46 69L46 67L45 67L45 63L46 63L46 64L47 64L47 65L48 65L48 66L49 66L49 64L48 64L48 63L49 63L49 61L50 61L50 62L51 62L51 61L52 61L52 62L53 62L53 63L51 63L51 64L50 64L50 67L49 67L49 68L47 68L47 69L50 69L50 68L51 68L51 69L52 69L52 68L55 68L55 67L54 67L54 66L56 66L56 65L57 65L57 66L58 66L58 67L56 67L56 69L57 69L57 68L59 68L59 66L58 66L58 65L57 65L57 64L58 64L58 61L59 61L59 60L60 60L60 63L59 63L59 65L60 65L60 66L61 66L61 65L62 65L62 66L64 66L64 67L63 67L63 68L62 68L62 67L61 67L61 69L63 69L63 68L65 68L65 69L67 69L67 68L65 68L65 67L67 67L67 66L69 66L69 64L68 64L68 62L69 62L69 61L68 61L68 60L69 60L69 59L68 59L68 58L69 58L69 56L68 56L68 57L67 57L67 61L65 61L65 60L64 60L64 55L65 55L65 57L66 57L66 55L68 55L68 53L69 53L69 52L68 52L68 50L67 50L67 49L66 49L66 50L65 50L65 51L64 51L64 49L63 49L63 48L62 48L62 46L64 46L64 45L66 45L66 46L65 46L65 47L64 47L64 48L65 48L65 47L66 47L66 46L67 46L67 48L68 48L68 49L69 49L69 47L68 47L68 46L69 46L69 45L68 45L68 46L67 46L67 44L69 44L69 43L68 43L68 42L69 42L69 41L68 41L68 42L67 42L67 41L66 41L66 39L67 39L67 40L68 40L68 38L69 38L69 35L68 35L68 33L69 33L69 31L68 31L68 29L69 29L69 27L68 27L68 24L69 24L69 23L68 23L68 22L69 22L69 20L68 20L68 18L67 18L67 17L68 17L68 16L66 16L66 18L65 18L65 17L64 17L64 16L65 16L65 13L64 13L64 12L65 12L65 11L66 11L66 10L67 10L67 11L68 11L68 9L69 9L69 8L65 8L65 10L64 10L64 8L63 8L63 9L62 9L62 11L61 11L61 6L60 6L60 9L59 9L59 12L58 12L58 9L57 9L57 6L56 6L56 7L55 7L55 5L56 5L56 3L54 3L54 2L55 2L55 1L56 1L56 0L53 0L53 2L52 2L52 1L51 1L51 0L50 0L50 2L49 2L49 3L50 3L50 5L48 5L48 7L49 7L49 6L50 6L50 8L47 8L47 6L46 6L46 7L45 7L45 6L44 6L44 5L46 5L46 4L47 4L47 2L46 2L46 0L45 0L45 1L44 1L44 0L41 0L41 1L40 1L40 0L37 0L37 1L35 1L35 2L34 2L34 1L33 1L33 0L32 0L32 1L31 1L31 0L30 0L30 1L29 1L29 0L23 0L23 1L22 1L22 2L21 2L21 0L16 0L16 2L15 2L15 3L13 3L13 4L12 4L12 2L13 2L13 1L14 1L14 0L13 0L13 1L11 1L11 0ZM48 0L48 1L49 1L49 0ZM57 0L57 1L61 1L61 0ZM17 1L17 2L19 2L19 3L17 3L17 4L19 4L19 5L20 5L20 3L21 3L21 9L22 9L22 10L20 10L20 6L19 6L19 7L18 7L18 6L17 6L17 5L16 5L16 6L15 6L15 4L16 4L16 3L15 3L15 4L13 4L13 5L12 5L12 4L11 4L11 5L10 5L10 6L11 6L11 7L12 7L12 9L11 9L11 11L12 11L12 10L13 10L13 9L14 9L14 8L13 8L13 7L14 7L14 6L15 6L15 7L16 7L16 8L15 8L15 9L16 9L16 10L17 10L17 9L16 9L16 8L17 8L17 7L18 7L18 8L19 8L19 11L16 11L16 12L15 12L15 13L16 13L16 14L17 14L17 15L16 15L16 17L15 17L15 20L14 20L14 16L13 16L13 17L12 17L12 16L11 16L11 15L10 15L10 16L11 16L11 17L9 17L9 18L7 18L7 17L4 17L4 16L3 16L3 17L4 17L4 18L3 18L3 19L4 19L4 18L7 18L7 19L5 19L5 21L4 21L4 20L3 20L3 21L1 21L1 23L2 23L2 22L3 22L3 21L4 21L4 23L3 23L3 24L4 24L4 25L5 25L5 24L4 24L4 23L6 23L6 24L7 24L7 25L6 25L6 26L5 26L5 27L6 27L6 28L7 28L7 29L5 29L5 28L4 28L4 29L1 29L1 31L2 31L2 30L3 30L3 31L4 31L4 32L7 32L7 31L8 31L8 32L9 32L9 31L8 31L8 30L7 30L7 29L9 29L9 30L10 30L10 31L11 31L11 30L12 30L12 31L13 31L13 32L14 32L14 33L16 33L16 35L15 35L15 36L14 36L14 34L13 34L13 33L11 33L11 32L10 32L10 33L11 33L11 35L12 35L12 38L11 38L11 39L10 39L10 38L9 38L9 39L8 39L8 40L7 40L7 39L6 39L6 40L7 40L7 41L6 41L6 42L7 42L7 43L6 43L6 44L8 44L8 40L9 40L9 42L10 42L10 41L12 41L12 40L13 40L13 41L14 41L14 39L15 39L15 40L16 40L16 41L15 41L15 43L14 43L14 45L12 45L12 44L11 44L11 43L10 43L10 44L9 44L9 46L8 46L8 45L6 45L6 46L5 46L5 49L6 49L6 50L7 50L7 49L6 49L6 48L7 48L7 47L6 47L6 46L8 46L8 47L10 47L10 49L9 49L9 50L10 50L10 51L11 51L11 50L12 50L12 51L13 51L13 50L15 50L15 49L16 49L16 50L17 50L17 51L20 51L20 50L21 50L21 51L22 51L22 50L21 50L21 49L19 49L19 48L21 48L21 46L22 46L22 49L23 49L23 50L24 50L24 49L25 49L25 50L26 50L26 51L28 51L28 50L30 50L30 49L29 49L29 48L30 48L30 47L31 47L31 48L32 48L32 49L31 49L31 52L32 52L32 54L30 54L30 55L27 55L27 57L28 57L28 58L29 58L29 59L28 59L28 60L27 60L27 61L26 61L26 62L27 62L27 61L28 61L28 63L27 63L27 64L26 64L26 63L24 63L24 61L23 61L23 60L22 60L22 61L21 61L21 60L19 60L19 59L18 59L18 58L16 58L16 59L14 59L14 58L12 58L12 57L11 57L11 55L9 55L9 56L10 56L10 57L6 57L6 58L7 58L7 59L8 59L8 58L10 58L10 57L11 57L11 58L12 58L12 59L13 59L13 60L12 60L12 61L13 61L13 63L14 63L14 62L15 62L15 61L16 61L16 62L17 62L17 61L18 61L18 63L17 63L17 65L16 65L16 66L15 66L15 67L16 67L16 66L17 66L17 65L18 65L18 64L19 64L19 65L20 65L20 63L21 63L21 62L23 62L23 63L24 63L24 64L25 64L25 65L29 65L29 64L31 64L31 65L32 65L32 66L33 66L33 65L32 65L32 64L31 64L31 63L32 63L32 62L31 62L31 63L29 63L29 61L28 61L28 60L29 60L29 59L32 59L32 60L33 60L33 58L34 58L34 59L36 59L36 60L37 60L37 62L38 62L38 60L37 60L37 59L36 59L36 58L34 58L34 57L35 57L35 55L36 55L36 56L37 56L37 58L38 58L38 59L39 59L39 58L40 58L40 59L41 59L41 58L40 58L40 57L41 57L41 56L42 56L42 57L44 57L44 54L45 54L45 53L46 53L46 54L47 54L47 57L46 57L46 58L47 58L47 59L45 59L45 58L42 58L42 61L44 61L44 62L45 62L45 61L46 61L46 62L47 62L47 59L50 59L50 60L52 60L52 61L53 61L53 60L54 60L54 61L56 61L56 60L57 60L57 61L58 61L58 60L59 60L59 59L58 59L58 58L62 58L62 59L61 59L61 60L62 60L62 59L63 59L63 56L62 56L62 57L60 57L60 55L59 55L59 53L60 53L60 54L62 54L62 55L64 55L64 54L66 54L66 52L67 52L67 50L66 50L66 51L65 51L65 52L63 52L63 53L61 53L61 52L60 52L60 51L61 51L61 50L62 50L62 51L63 51L63 50L62 50L62 48L59 48L59 49L58 49L58 48L57 48L57 49L58 49L58 52L57 52L57 53L56 53L56 52L55 52L55 55L53 55L53 54L52 54L52 53L54 53L54 52L52 52L52 53L51 53L51 54L50 54L50 53L49 53L49 54L48 54L48 53L46 53L46 52L49 52L49 49L50 49L50 48L51 48L51 47L50 47L50 48L49 48L49 47L47 47L47 45L46 45L46 47L47 47L47 48L45 48L45 46L44 46L44 48L43 48L43 49L44 49L44 50L45 50L45 53L44 53L44 51L43 51L43 50L42 50L42 51L41 51L41 49L42 49L42 45L41 45L41 46L40 46L40 45L39 45L39 46L38 46L38 45L37 45L37 46L36 46L36 45L35 45L35 44L39 44L39 43L41 43L41 44L43 44L43 45L44 45L44 44L45 44L45 43L47 43L47 44L48 44L48 43L50 43L50 41L49 41L49 42L48 42L48 43L47 43L47 39L48 39L48 40L49 40L49 39L52 39L52 41L51 41L51 42L52 42L52 43L53 43L53 44L52 44L52 47L53 47L53 44L54 44L54 45L56 45L56 46L57 46L57 45L58 45L58 46L59 46L59 45L61 45L61 44L62 44L62 43L63 43L63 45L64 45L64 42L66 42L66 41L63 41L63 40L62 40L62 39L64 39L64 40L65 40L65 39L66 39L66 37L67 37L67 38L68 38L68 35L65 35L65 36L66 36L66 37L62 37L62 39L61 39L61 40L59 40L59 39L58 39L58 38L61 38L61 37L60 37L60 36L59 36L59 35L60 35L60 34L59 34L59 33L60 33L60 32L62 32L62 31L63 31L63 32L66 32L66 34L67 34L67 32L68 32L68 31L64 31L64 30L67 30L67 29L68 29L68 27L67 27L67 25L66 25L66 26L65 26L65 24L68 24L68 23L67 23L67 22L68 22L68 20L67 20L67 19L65 19L65 20L64 20L64 22L62 22L62 15L64 15L64 13L63 13L63 12L59 12L59 13L58 13L58 14L59 14L59 13L61 13L61 14L62 14L62 15L58 15L58 18L57 18L57 17L56 17L56 16L57 16L57 13L55 13L55 14L56 14L56 15L54 15L54 13L53 13L53 12L55 12L55 11L56 11L56 10L54 10L54 11L53 11L53 10L50 10L50 9L49 9L49 10L50 10L50 11L51 11L51 12L50 12L50 13L49 13L49 15L48 15L48 16L49 16L49 15L50 15L50 17L46 17L46 16L45 16L45 17L46 17L46 18L48 18L48 19L47 19L47 20L49 20L49 19L52 19L52 21L51 21L51 22L50 22L50 21L49 21L49 22L48 22L48 23L47 23L47 25L46 25L46 26L47 26L47 27L44 27L44 28L43 28L43 26L41 26L41 25L42 25L42 24L43 24L43 25L44 25L44 24L45 24L45 23L44 23L44 20L46 20L46 19L44 19L44 18L41 18L41 17L42 17L42 16L40 16L40 19L39 19L39 18L38 18L38 16L39 16L39 15L42 15L42 13L44 13L44 14L43 14L43 17L44 17L44 15L45 15L45 13L44 13L44 12L45 12L45 11L46 11L46 10L47 10L47 8L45 8L45 7L44 7L44 6L43 6L43 8L40 8L40 6L41 6L41 7L42 7L42 6L41 6L41 5L40 5L40 6L39 6L39 7L38 7L38 5L37 5L37 7L38 7L38 8L37 8L37 10L38 10L38 12L36 12L36 13L33 13L33 14L31 14L31 13L32 13L32 12L33 12L33 11L36 11L36 9L32 9L32 11L31 11L31 10L30 10L30 9L31 9L31 8L30 8L30 9L29 9L29 7L30 7L30 6L31 6L31 7L32 7L32 6L31 6L31 5L32 5L32 3L33 3L33 4L34 4L34 2L32 2L32 3L30 3L30 2L28 2L28 1L26 1L26 2L24 2L24 3L26 3L26 4L25 4L25 5L24 5L24 6L23 6L23 5L22 5L22 3L23 3L23 2L22 2L22 3L21 3L21 2L20 2L20 1ZM37 1L37 2L36 2L36 3L35 3L35 4L37 4L37 3L38 3L38 4L40 4L40 3L41 3L41 4L43 4L43 5L44 5L44 4L45 4L45 3L46 3L46 2L45 2L45 3L44 3L44 2L42 2L42 1L41 1L41 2L40 2L40 1ZM26 2L26 3L27 3L27 4L26 4L26 10L24 10L24 9L25 9L25 8L24 8L24 9L23 9L23 11L22 11L22 12L21 12L21 13L20 13L20 11L19 11L19 12L16 12L16 13L18 13L18 15L17 15L17 17L16 17L16 19L17 19L17 21L16 21L16 22L14 22L14 21L13 21L13 23L12 23L12 25L13 25L13 26L14 26L14 25L15 25L15 27L16 27L16 26L18 26L18 27L19 27L19 28L18 28L18 29L17 29L17 28L16 28L16 29L14 29L14 30L15 30L15 31L14 31L14 32L15 32L15 31L16 31L16 32L17 32L17 31L18 31L18 29L20 29L20 33L19 33L19 32L18 32L18 33L17 33L17 35L16 35L16 37L15 37L15 39L16 39L16 40L17 40L17 42L16 42L16 43L15 43L15 44L17 44L17 45L18 45L18 47L17 47L17 49L18 49L18 50L19 50L19 49L18 49L18 48L19 48L19 45L20 45L20 46L21 46L21 45L22 45L22 46L23 46L23 49L24 49L24 47L25 47L25 49L26 49L26 50L27 50L27 49L28 49L28 48L26 48L26 47L25 47L25 46L28 46L28 47L29 47L29 46L28 46L28 45L30 45L30 46L32 46L32 47L33 47L33 45L34 45L34 46L35 46L35 47L34 47L34 48L33 48L33 49L32 49L32 52L33 52L33 51L34 51L34 52L35 52L35 51L36 51L36 49L35 49L35 50L33 50L33 49L34 49L34 48L35 48L35 47L36 47L36 48L38 48L38 47L36 47L36 46L35 46L35 45L34 45L34 44L35 44L35 43L37 43L37 41L36 41L36 40L35 40L35 41L34 41L34 39L35 39L35 38L36 38L36 37L37 37L37 40L38 40L38 38L39 38L39 37L40 37L40 36L41 36L41 38L40 38L40 39L39 39L39 41L38 41L38 42L43 42L43 39L45 39L45 40L44 40L44 43L43 43L43 44L44 44L44 43L45 43L45 42L46 42L46 37L47 37L47 38L49 38L49 36L50 36L50 38L51 38L51 37L52 37L52 36L53 36L53 34L54 34L54 35L56 35L56 34L57 34L57 33L58 33L58 32L59 32L59 31L60 31L60 30L61 30L61 29L62 29L62 30L63 30L63 29L64 29L64 28L65 28L65 29L66 29L66 27L65 27L65 26L64 26L64 24L65 24L65 22L66 22L66 21L65 21L65 22L64 22L64 24L63 24L63 23L62 23L62 24L60 24L60 23L61 23L61 21L59 21L59 20L58 20L58 21L57 21L57 19L56 19L56 22L55 22L55 21L52 21L52 22L51 22L51 25L50 25L50 24L49 24L49 23L48 23L48 25L47 25L47 26L49 26L49 25L50 25L50 27L47 27L47 30L48 30L48 29L49 29L49 28L50 28L50 27L52 27L52 28L51 28L51 29L50 29L50 30L51 30L51 29L52 29L52 30L56 30L56 31L51 31L51 33L50 33L50 34L52 34L52 35L49 35L49 34L46 34L46 33L49 33L49 32L50 32L50 31L44 31L44 29L46 29L46 28L44 28L44 29L43 29L43 28L42 28L42 27L40 27L40 23L41 23L41 22L43 22L43 19L41 19L41 22L40 22L40 20L39 20L39 19L38 19L38 18L37 18L37 19L34 19L34 20L33 20L33 21L31 21L31 20L32 20L32 19L33 19L33 18L31 18L31 16L32 16L32 15L31 15L31 14L28 14L28 12L29 12L29 13L31 13L31 12L29 12L29 10L28 10L28 9L27 9L27 8L28 8L28 7L29 7L29 6L30 6L30 5L31 5L31 4L29 4L29 3L27 3L27 2ZM39 2L39 3L40 3L40 2ZM50 2L50 3L51 3L51 4L52 4L52 5L53 5L53 4L54 4L54 3L53 3L53 4L52 4L52 3L51 3L51 2ZM57 2L57 3L59 3L59 2ZM9 3L9 4L10 4L10 3ZM43 3L43 4L44 4L44 3ZM60 3L60 5L61 5L61 3ZM28 4L28 5L27 5L27 7L28 7L28 5L29 5L29 4ZM58 4L58 8L59 8L59 4ZM11 5L11 6L12 6L12 7L13 7L13 6L12 6L12 5ZM33 5L33 8L36 8L36 5ZM50 5L50 6L51 6L51 8L52 8L52 9L53 9L53 8L55 8L55 7L54 7L54 6L53 6L53 8L52 8L52 6L51 6L51 5ZM16 6L16 7L17 7L17 6ZM22 6L22 8L23 8L23 6ZM24 6L24 7L25 7L25 6ZM34 6L34 7L35 7L35 6ZM0 8L0 9L1 9L1 10L2 10L2 11L3 11L3 12L5 12L5 10L6 10L6 11L7 11L7 10L6 10L6 9L7 9L7 8L4 8L4 9L3 9L3 10L2 10L2 8ZM39 8L39 9L38 9L38 10L39 10L39 12L38 12L38 15L39 15L39 13L40 13L40 14L41 14L41 10L42 10L42 12L44 12L44 11L43 11L43 9L41 9L41 10L40 10L40 8ZM44 8L44 9L45 9L45 10L46 10L46 9L45 9L45 8ZM4 9L4 10L3 10L3 11L4 11L4 10L5 10L5 9ZM26 10L26 11L25 11L25 13L26 13L26 14L25 14L25 15L24 15L24 14L23 14L23 12L24 12L24 11L23 11L23 12L22 12L22 14L20 14L20 13L19 13L19 14L20 14L20 15L19 15L19 16L18 16L18 17L17 17L17 18L18 18L18 19L20 19L20 18L21 18L21 17L19 17L19 16L22 16L22 19L21 19L21 20L20 20L20 21L19 21L19 22L17 22L17 23L13 23L13 25L14 25L14 24L15 24L15 25L17 25L17 24L19 24L19 25L21 25L21 27L22 27L22 29L21 29L21 28L20 28L20 29L21 29L21 30L22 30L22 31L25 31L25 33L29 33L29 34L28 34L28 35L27 35L27 37L28 37L28 40L27 40L27 41L28 41L28 42L27 42L27 44L29 44L29 43L30 43L30 41L31 41L31 40L30 40L30 41L29 41L29 39L30 39L30 38L29 38L29 34L30 34L30 33L29 33L29 32L30 32L30 31L32 31L32 32L31 32L31 33L32 33L32 32L36 32L36 31L37 31L37 34L38 34L38 35L37 35L37 37L38 37L38 36L40 36L40 35L41 35L41 36L42 36L42 37L43 37L43 38L45 38L45 37L46 37L46 34L45 34L45 33L46 33L46 32L45 32L45 33L44 33L44 31L40 31L40 33L44 33L44 34L43 34L43 35L41 35L41 34L38 34L38 31L37 31L37 30L38 30L38 29L40 29L40 30L42 30L42 28L40 28L40 27L39 27L39 26L38 26L38 25L39 25L39 24L38 24L38 23L40 23L40 22L39 22L39 20L38 20L38 21L37 21L37 20L34 20L34 22L33 22L33 23L32 23L32 22L31 22L31 21L28 21L28 22L27 22L27 23L26 23L26 19L28 19L28 18L29 18L29 16L31 16L31 15L28 15L28 17L27 17L27 18L26 18L26 17L25 17L25 15L26 15L26 16L27 16L27 13L26 13L26 11L27 11L27 12L28 12L28 10ZM63 10L63 11L64 11L64 10ZM0 11L0 12L1 12L1 11ZM52 11L52 12L51 12L51 13L50 13L50 14L51 14L51 13L52 13L52 15L53 15L53 13L52 13L52 12L53 12L53 11ZM46 12L46 14L47 14L47 12ZM66 12L66 13L67 13L67 15L68 15L68 13L69 13L69 12L68 12L68 13L67 13L67 12ZM6 13L6 14L5 14L5 15L6 15L6 16L7 16L7 15L6 15L6 14L7 14L7 13ZM62 13L62 14L63 14L63 13ZM34 14L34 15L33 15L33 17L34 17L34 18L36 18L36 17L37 17L37 16L36 16L36 15L35 15L35 14ZM23 16L23 17L24 17L24 18L25 18L25 19L26 19L26 18L25 18L25 17L24 17L24 16ZM34 16L34 17L35 17L35 16ZM51 16L51 17L50 17L50 18L51 18L51 17L52 17L52 19L53 19L53 20L55 20L55 18L56 18L56 17L55 17L55 16L54 16L54 17L52 17L52 16ZM11 17L11 19L10 19L10 18L9 18L9 19L10 19L10 20L11 20L11 19L12 19L12 20L13 20L13 18L12 18L12 17ZM18 17L18 18L19 18L19 17ZM59 17L59 18L58 18L58 19L60 19L60 20L61 20L61 19L60 19L60 18L61 18L61 17ZM63 17L63 19L64 19L64 17ZM1 18L1 19L2 19L2 18ZM7 19L7 20L6 20L6 21L5 21L5 22L6 22L6 23L7 23L7 24L9 24L9 25L10 25L10 26L11 26L11 27L12 27L12 26L11 26L11 24L10 24L10 21L9 21L9 20L8 20L8 19ZM23 19L23 22L25 22L25 20L24 20L24 19ZM7 20L7 21L6 21L6 22L7 22L7 23L8 23L8 22L7 22L7 21L8 21L8 20ZM21 20L21 21L20 21L20 22L22 22L22 20ZM11 21L11 22L12 22L12 21ZM35 21L35 22L37 22L37 21ZM46 21L46 22L47 22L47 21ZM58 21L58 22L57 22L57 25L58 25L58 27L57 27L57 29L56 29L56 27L55 27L55 26L56 26L56 25L55 25L55 24L54 24L54 23L55 23L55 22L53 22L53 24L52 24L52 27L53 27L53 28L52 28L52 29L53 29L53 28L55 28L55 29L56 29L56 30L57 30L57 29L58 29L58 30L59 30L59 29L58 29L58 28L59 28L59 25L60 25L60 24L59 24L59 23L60 23L60 22L59 22L59 21ZM28 22L28 23L30 23L30 22ZM19 23L19 24L20 24L20 23ZM21 23L21 25L24 25L24 26L25 26L25 25L29 25L29 26L28 26L28 29L27 29L27 26L26 26L26 27L25 27L25 28L24 28L24 27L23 27L23 26L22 26L22 27L23 27L23 30L25 30L25 31L26 31L26 32L28 32L28 31L29 31L29 30L28 30L28 29L30 29L30 30L31 30L31 29L32 29L32 28L33 28L33 27L34 27L34 28L35 28L35 27L36 27L36 26L37 26L37 25L38 25L38 24L37 24L37 23L36 23L36 24L35 24L35 23L34 23L34 24L35 24L35 26L33 26L33 25L32 25L32 23L31 23L31 24L30 24L30 25L29 25L29 24L26 24L26 23L25 23L25 24L24 24L24 23L23 23L23 24L22 24L22 23ZM36 24L36 25L37 25L37 24ZM53 24L53 27L54 27L54 26L55 26L55 25L54 25L54 24ZM31 25L31 27L30 27L30 26L29 26L29 28L31 28L31 27L33 27L33 26L32 26L32 25ZM61 25L61 26L62 26L62 25ZM6 26L6 27L8 27L8 28L9 28L9 29L10 29L10 27L9 27L9 26ZM13 27L13 28L14 28L14 27ZM37 27L37 28L36 28L36 29L33 29L33 31L34 31L34 30L37 30L37 29L38 29L38 28L39 28L39 27ZM62 27L62 28L64 28L64 27ZM25 28L25 30L26 30L26 28ZM16 29L16 30L17 30L17 29ZM4 30L4 31L7 31L7 30ZM22 32L22 33L21 33L21 34L20 34L20 35L17 35L17 36L19 36L19 38L17 38L17 37L16 37L16 39L19 39L19 40L20 40L20 41L19 41L19 42L18 42L18 43L20 43L20 41L22 41L22 43L23 43L23 44L22 44L22 45L23 45L23 44L24 44L24 43L23 43L23 41L24 41L24 42L25 42L25 45L26 45L26 40L25 40L25 41L24 41L24 40L22 40L22 39L21 39L21 38L20 38L20 36L22 36L22 38L23 38L23 39L24 39L24 37L25 37L25 39L27 39L27 38L26 38L26 34L25 34L25 35L24 35L24 37L23 37L23 36L22 36L22 35L23 35L23 32ZM52 32L52 34L53 34L53 33L54 33L54 32ZM55 32L55 33L56 33L56 32ZM0 33L0 34L1 34L1 33ZM3 33L3 34L4 34L4 33ZM5 33L5 36L8 36L8 33ZM33 33L33 36L36 36L36 33ZM61 33L61 36L64 36L64 33ZM6 34L6 35L7 35L7 34ZM12 34L12 35L13 35L13 34ZM21 34L21 35L22 35L22 34ZM31 34L31 36L32 36L32 34ZM34 34L34 35L35 35L35 34ZM44 34L44 37L45 37L45 34ZM62 34L62 35L63 35L63 34ZM0 35L0 39L1 39L1 37L2 37L2 38L3 38L3 37L2 37L2 35ZM9 35L9 37L11 37L11 36L10 36L10 35ZM47 35L47 37L48 37L48 35ZM57 35L57 36L56 36L56 37L55 37L55 36L54 36L54 37L53 37L53 38L52 38L52 39L55 39L55 38L56 38L56 41L57 41L57 43L56 43L56 45L57 45L57 43L58 43L58 44L59 44L59 43L60 43L60 44L61 44L61 43L62 43L62 41L61 41L61 42L59 42L59 43L58 43L58 41L57 41L57 40L58 40L58 39L57 39L57 38L58 38L58 35ZM13 36L13 37L14 37L14 36ZM5 37L5 38L8 38L8 37ZM32 37L32 38L31 38L31 39L32 39L32 40L33 40L33 39L34 39L34 38L35 38L35 37ZM13 38L13 39L14 39L14 38ZM19 38L19 39L20 39L20 40L21 40L21 39L20 39L20 38ZM41 38L41 39L40 39L40 41L41 41L41 39L42 39L42 38ZM64 38L64 39L65 39L65 38ZM9 39L9 40L10 40L10 39ZM11 39L11 40L12 40L12 39ZM0 40L0 42L1 42L1 40ZM54 40L54 41L53 41L53 43L54 43L54 42L55 42L55 40ZM32 41L32 42L31 42L31 44L32 44L32 45L33 45L33 43L34 43L34 42L33 42L33 41ZM35 41L35 42L36 42L36 41ZM4 42L4 43L5 43L5 42ZM12 42L12 43L13 43L13 42ZM28 42L28 43L29 43L29 42ZM32 42L32 43L33 43L33 42ZM65 43L65 44L67 44L67 43ZM20 44L20 45L21 45L21 44ZM49 44L49 45L50 45L50 44ZM11 45L11 48L12 48L12 50L13 50L13 48L14 48L14 47L16 47L16 45L14 45L14 46L12 46L12 45ZM54 46L54 47L55 47L55 46ZM60 46L60 47L61 47L61 46ZM12 47L12 48L13 48L13 47ZM39 47L39 49L38 49L38 50L37 50L37 52L36 52L36 53L38 53L38 52L39 52L39 53L40 53L40 54L42 54L42 55L43 55L43 54L44 54L44 53L43 53L43 52L42 52L42 53L40 53L40 52L41 52L41 51L40 51L40 48L41 48L41 47ZM44 48L44 49L45 49L45 50L46 50L46 51L47 51L47 50L46 50L46 49L45 49L45 48ZM47 48L47 49L49 49L49 48ZM52 48L52 49L55 49L55 50L51 50L51 51L50 51L50 52L51 52L51 51L56 51L56 48ZM1 49L1 50L3 50L3 49ZM38 50L38 51L39 51L39 52L40 52L40 51L39 51L39 50ZM27 52L27 53L28 53L28 54L29 54L29 53L28 53L28 52ZM58 52L58 53L59 53L59 52ZM33 53L33 54L32 54L32 55L33 55L33 57L32 57L32 56L30 56L30 57L29 57L29 58L31 58L31 57L32 57L32 58L33 58L33 57L34 57L34 55L35 55L35 54L34 54L34 53ZM63 53L63 54L64 54L64 53ZM36 54L36 55L37 55L37 56L39 56L39 57L38 57L38 58L39 58L39 57L40 57L40 55L37 55L37 54ZM56 54L56 58L58 58L58 57L59 57L59 56L58 56L58 57L57 57L57 54ZM48 55L48 58L49 58L49 56L50 56L50 58L51 58L51 57L52 57L52 59L53 59L53 58L54 58L54 59L55 59L55 57L52 57L52 55L51 55L51 56L50 56L50 55ZM2 57L2 58L3 58L3 57ZM19 57L19 58L20 58L20 57ZM43 59L43 60L44 60L44 61L45 61L45 60L44 60L44 59ZM57 59L57 60L58 60L58 59ZM3 60L3 61L5 61L5 60ZM14 60L14 61L15 61L15 60ZM18 60L18 61L19 61L19 60ZM20 61L20 62L21 62L21 61ZM33 61L33 64L36 64L36 61ZM61 61L61 64L64 64L64 61ZM10 62L10 63L8 63L8 65L9 65L9 66L10 66L10 65L11 65L11 62ZM34 62L34 63L35 63L35 62ZM54 62L54 63L53 63L53 64L52 64L52 65L51 65L51 66L52 66L52 67L53 67L53 66L52 66L52 65L54 65L54 64L55 64L55 65L56 65L56 64L55 64L55 63L56 63L56 62ZM62 62L62 63L63 63L63 62ZM66 62L66 63L65 63L65 65L67 65L67 62ZM28 63L28 64L29 64L29 63ZM40 63L40 66L39 66L39 67L41 67L41 63ZM22 64L22 65L21 65L21 66L23 66L23 64ZM8 67L8 69L9 69L9 67ZM11 67L11 68L12 68L12 67ZM36 68L36 69L37 69L37 68ZM68 68L68 69L69 69L69 68ZM0 0L0 7L7 7L7 0ZM1 1L1 6L6 6L6 1ZM2 2L2 5L5 5L5 2ZM62 0L62 7L69 7L69 0ZM63 1L63 6L68 6L68 1ZM64 2L64 5L67 5L67 2ZM0 62L0 69L7 69L7 62ZM1 63L1 68L6 68L6 63ZM2 64L2 67L5 67L5 64Z" fill="#000000"/></g></g></svg>
