<?xml version="1.0" encoding="UTF-8"?>
<svg xmlns="http://www.w3.org/2000/svg" version="1.1" width="300" height="300" viewBox="0 0 300 300"><rect x="0" y="0" width="300" height="300" fill="#ffffff"/><g transform="scale(4.348)"><g transform="translate(0,0)"><path fill-rule="evenodd" d="M8 0L8 1L9 1L9 2L8 2L8 5L10 5L10 4L11 4L11 3L9 3L9 2L10 2L10 1L11 1L11 2L14 2L14 4L15 4L15 5L14 5L14 7L15 7L15 8L13 8L13 5L11 5L11 6L10 6L10 8L8 8L8 9L7 9L7 8L6 8L6 9L5 9L5 10L4 10L4 8L0 8L0 10L1 10L1 11L0 11L0 13L1 13L1 14L2 14L2 12L3 12L3 13L4 13L4 12L5 12L5 11L7 11L7 12L6 12L6 13L5 13L5 16L4 16L4 15L2 15L2 16L1 16L1 15L0 15L0 17L2 17L2 20L3 20L3 21L2 21L2 22L1 22L1 24L0 24L0 27L2 27L2 25L1 25L1 24L3 24L3 25L5 25L5 23L4 23L4 24L3 24L3 22L6 22L6 23L8 23L8 24L6 24L6 25L7 25L7 26L6 26L6 27L7 27L7 28L4 28L4 30L3 30L3 28L2 28L2 30L1 30L1 31L0 31L0 35L1 35L1 34L2 34L2 36L3 36L3 37L2 37L2 39L1 39L1 40L0 40L0 41L1 41L1 42L0 42L0 44L1 44L1 43L3 43L3 46L5 46L5 45L7 45L7 44L8 44L8 43L11 43L11 41L12 41L12 42L13 42L13 41L16 41L16 42L17 42L17 44L16 44L16 45L17 45L17 46L18 46L18 48L17 48L17 52L16 52L16 53L15 53L15 52L14 52L14 50L16 50L16 46L13 46L13 44L15 44L15 42L14 42L14 43L12 43L12 46L11 46L11 45L10 45L10 44L9 44L9 45L10 45L10 46L11 46L11 47L9 47L9 46L8 46L8 47L7 47L7 46L6 46L6 47L4 47L4 50L3 50L3 48L2 48L2 49L0 49L0 52L1 52L1 53L0 53L0 54L2 54L2 55L3 55L3 56L1 56L1 57L0 57L0 61L1 61L1 57L2 57L2 59L3 59L3 58L4 58L4 59L7 59L7 60L6 60L6 61L7 61L7 60L8 60L8 58L9 58L9 61L8 61L8 62L10 62L10 63L9 63L9 64L10 64L10 63L12 63L12 62L13 62L13 59L14 59L14 61L15 61L15 62L16 62L16 64L15 64L15 63L13 63L13 64L11 64L11 65L8 65L8 69L9 69L9 66L10 66L10 69L11 69L11 67L12 67L12 69L13 69L13 68L15 68L15 67L14 67L14 65L15 65L15 66L17 66L17 67L16 67L16 68L17 68L17 69L18 69L18 68L19 68L19 69L23 69L23 68L25 68L25 67L22 67L22 66L21 66L21 67L20 67L20 65L22 65L22 64L19 64L19 63L23 63L23 64L25 64L25 66L26 66L26 64L28 64L28 63L30 63L30 64L31 64L31 66L30 66L30 65L29 65L29 66L28 66L28 65L27 65L27 68L29 68L29 69L30 69L30 67L31 67L31 68L33 68L33 69L34 69L34 67L35 67L35 66L36 66L36 67L37 67L37 66L36 66L36 65L37 65L37 63L38 63L38 64L39 64L39 66L38 66L38 68L39 68L39 69L43 69L43 68L42 68L42 67L41 67L41 66L42 66L42 65L40 65L40 64L41 64L41 62L39 62L39 61L40 61L40 60L41 60L41 61L42 61L42 60L41 60L41 59L42 59L42 58L43 58L43 56L41 56L41 54L42 54L42 55L43 55L43 54L44 54L44 55L46 55L46 54L47 54L47 52L49 52L49 53L48 53L48 54L49 54L49 53L50 53L50 51L49 51L49 50L51 50L51 53L52 53L52 52L53 52L53 51L54 51L54 53L58 53L58 56L59 56L59 55L60 55L60 56L61 56L61 57L59 57L59 58L58 58L58 59L57 59L57 57L55 57L55 56L57 56L57 55L56 55L56 54L55 54L55 56L54 56L54 57L53 57L53 55L54 55L54 54L50 54L50 55L48 55L48 56L49 56L49 57L50 57L50 56L51 56L51 57L52 57L52 58L53 58L53 62L51 62L51 61L50 61L50 60L52 60L52 59L50 59L50 58L48 58L48 60L47 60L47 59L45 59L45 58L44 58L44 59L45 59L45 60L46 60L46 61L49 61L49 62L48 62L48 63L47 63L47 64L48 64L48 63L50 63L50 62L51 62L51 69L53 69L53 68L52 68L52 67L53 67L53 66L54 66L54 67L55 67L55 69L56 69L56 66L54 66L54 65L57 65L57 66L59 66L59 67L60 67L60 69L61 69L61 68L63 68L63 69L65 69L65 68L63 68L63 67L62 67L62 66L64 66L64 65L65 65L65 67L67 67L67 66L68 66L68 65L69 65L69 63L68 63L68 65L67 65L67 63L65 63L65 60L66 60L66 61L68 61L68 59L69 59L69 58L68 58L68 57L67 57L67 56L69 56L69 55L67 55L67 56L66 56L66 57L67 57L67 58L63 58L63 56L61 56L61 55L62 55L62 53L63 53L63 54L66 54L66 52L68 52L68 54L69 54L69 52L68 52L68 51L65 51L65 50L64 50L64 48L63 48L63 51L62 51L62 53L61 53L61 55L60 55L60 54L59 54L59 53L60 53L60 52L59 52L59 51L60 51L60 49L59 49L59 48L58 48L58 49L59 49L59 51L58 51L58 50L57 50L57 49L56 49L56 48L57 48L57 47L56 47L56 46L57 46L57 45L56 45L56 46L55 46L55 45L54 45L54 43L55 43L55 42L56 42L56 43L57 43L57 44L58 44L58 45L59 45L59 44L58 44L58 43L59 43L59 41L61 41L61 43L62 43L62 42L63 42L63 41L64 41L64 42L65 42L65 43L67 43L67 45L66 45L66 44L65 44L65 45L66 45L66 46L64 46L64 47L65 47L65 48L66 48L66 46L67 46L67 49L66 49L66 50L68 50L68 49L69 49L69 48L68 48L68 47L69 47L69 46L68 46L68 44L69 44L69 43L68 43L68 42L67 42L67 41L65 41L65 40L67 40L67 38L63 38L63 39L61 39L61 37L65 37L65 36L66 36L66 35L67 35L67 37L68 37L68 38L69 38L69 37L68 37L68 36L69 36L69 33L68 33L68 32L65 32L65 29L66 29L66 30L67 30L67 29L68 29L68 30L69 30L69 28L67 28L67 26L69 26L69 24L66 24L66 23L67 23L67 22L68 22L68 23L69 23L69 21L66 21L66 23L62 23L62 25L61 25L61 26L64 26L64 27L63 27L63 29L64 29L64 30L63 30L63 32L62 32L62 30L61 30L61 32L59 32L59 31L60 31L60 29L58 29L58 28L59 28L59 27L60 27L60 28L61 28L61 29L62 29L62 27L60 27L60 26L58 26L58 25L60 25L60 22L62 22L62 21L59 21L59 24L58 24L58 23L57 23L57 21L55 21L55 18L54 18L54 15L53 15L53 14L52 14L52 13L50 13L50 12L51 12L51 11L49 11L49 10L50 10L50 9L52 9L52 10L53 10L53 11L55 11L55 9L53 9L53 8L55 8L55 6L54 6L54 7L53 7L53 5L52 5L52 4L51 4L51 3L53 3L53 4L54 4L54 2L55 2L55 0L53 0L53 1L52 1L52 2L51 2L51 1L50 1L50 0L49 0L49 1L46 1L46 2L45 2L45 0L44 0L44 2L43 2L43 5L42 5L42 7L41 7L41 5L40 5L40 4L38 4L38 0L37 0L37 2L34 2L34 1L35 1L35 0L34 0L34 1L32 1L32 0L31 0L31 1L30 1L30 0L28 0L28 2L27 2L27 1L25 1L25 0L23 0L23 2L22 2L22 0L21 0L21 1L19 1L19 0L16 0L16 1L17 1L17 2L18 2L18 3L17 3L17 4L20 4L20 5L22 5L22 7L21 7L21 6L20 6L20 8L22 8L22 9L23 9L23 11L22 11L22 10L21 10L21 12L20 12L20 9L19 9L19 11L18 11L18 10L17 10L17 9L18 9L18 8L17 8L17 9L16 9L16 10L15 10L15 8L16 8L16 7L17 7L17 5L16 5L16 4L15 4L15 3L16 3L16 2L14 2L14 1L15 1L15 0L13 0L13 1L12 1L12 0L10 0L10 1L9 1L9 0ZM41 0L41 1L40 1L40 2L39 2L39 3L42 3L42 1L43 1L43 0ZM56 0L56 2L57 2L57 1L61 1L61 0ZM49 1L49 2L48 2L48 3L50 3L50 1ZM20 2L20 3L21 3L21 4L23 4L23 5L24 5L24 6L23 6L23 7L22 7L22 8L23 8L23 9L24 9L24 10L27 10L27 12L26 12L26 11L25 11L25 13L23 13L23 12L22 12L22 13L23 13L23 14L22 14L22 15L20 15L20 14L19 14L19 13L18 13L18 14L19 14L19 15L17 15L17 14L16 14L16 13L17 13L17 12L18 12L18 11L17 11L17 12L14 12L14 10L13 10L13 8L12 8L12 6L11 6L11 8L10 8L10 9L12 9L12 11L11 11L11 10L9 10L9 9L8 9L8 10L9 10L9 11L11 11L11 12L10 12L10 13L8 13L8 14L7 14L7 13L6 13L6 14L7 14L7 15L6 15L6 16L7 16L7 17L6 17L6 18L9 18L9 20L8 20L8 21L6 21L6 22L8 22L8 23L9 23L9 22L10 22L10 19L12 19L12 17L13 17L13 16L14 16L14 17L15 17L15 18L13 18L13 22L15 22L15 23L14 23L14 25L13 25L13 24L12 24L12 23L10 23L10 24L9 24L9 25L8 25L8 26L7 26L7 27L8 27L8 28L10 28L10 25L11 25L11 27L12 27L12 30L11 30L11 29L10 29L10 31L9 31L9 29L6 29L6 30L7 30L7 31L2 31L2 32L8 32L8 31L9 31L9 32L10 32L10 31L11 31L11 33L12 33L12 34L11 34L11 35L14 35L14 34L15 34L15 35L16 35L16 36L18 36L18 35L19 35L19 34L21 34L21 32L22 32L22 31L23 31L23 33L22 33L22 34L23 34L23 35L24 35L24 36L21 36L21 35L20 35L20 36L19 36L19 37L16 37L16 38L18 38L18 39L21 39L21 41L20 41L20 40L17 40L17 39L16 39L16 41L19 41L19 43L18 43L18 45L20 45L20 46L22 46L22 47L19 47L19 48L18 48L18 52L17 52L17 54L16 54L16 56L14 56L14 57L15 57L15 59L16 59L16 62L17 62L17 63L19 63L19 62L20 62L20 61L19 61L19 62L17 62L17 60L18 60L18 59L19 59L19 60L21 60L21 59L22 59L22 61L23 61L23 63L24 63L24 62L25 62L25 64L26 64L26 62L25 62L25 58L26 58L26 57L27 57L27 59L26 59L26 61L27 61L27 60L30 60L30 59L31 59L31 62L32 62L32 60L35 60L35 59L34 59L34 58L36 58L36 57L37 57L37 58L38 58L38 59L39 59L39 60L38 60L38 61L39 61L39 60L40 60L40 58L39 58L39 56L40 56L40 54L41 54L41 52L42 52L42 54L43 54L43 52L44 52L44 50L45 50L45 48L46 48L46 50L47 50L47 51L48 51L48 50L49 50L49 49L48 49L48 50L47 50L47 48L46 48L46 47L43 47L43 48L44 48L44 49L42 49L42 48L40 48L40 47L39 47L39 45L38 45L38 47L37 47L37 45L32 45L32 44L30 44L30 45L31 45L31 46L29 46L29 44L27 44L27 43L26 43L26 42L23 42L23 43L22 43L22 42L21 42L21 41L23 41L23 39L25 39L25 40L24 40L24 41L25 41L25 40L27 40L27 39L28 39L28 38L29 38L29 35L30 35L30 36L31 36L31 37L30 37L30 38L35 38L35 37L32 37L32 33L31 33L31 31L30 31L30 33L29 33L29 35L28 35L28 32L29 32L29 30L28 30L28 29L24 29L24 27L25 27L25 28L26 28L26 27L28 27L28 28L29 28L29 29L30 29L30 30L32 30L32 31L33 31L33 30L32 30L32 29L33 29L33 28L34 28L34 30L36 30L36 29L37 29L37 30L38 30L38 32L40 32L40 31L41 31L41 33L42 33L42 32L43 32L43 35L42 35L42 36L43 36L43 35L45 35L45 34L46 34L46 35L47 35L47 34L48 34L48 35L49 35L49 34L50 34L50 36L49 36L49 37L46 37L46 38L45 38L45 36L44 36L44 38L43 38L43 37L41 37L41 35L38 35L38 34L40 34L40 33L38 33L38 34L37 34L37 35L38 35L38 37L37 37L37 38L36 38L36 39L38 39L38 40L36 40L36 41L35 41L35 40L34 40L34 41L33 41L33 40L31 40L31 39L29 39L29 42L28 42L28 41L27 41L27 42L28 42L28 43L30 43L30 42L31 42L31 43L32 43L32 42L34 42L34 41L35 41L35 42L36 42L36 44L40 44L40 45L41 45L41 47L42 47L42 45L43 45L43 46L47 46L47 45L45 45L45 44L44 44L44 42L45 42L45 43L46 43L46 44L48 44L48 45L49 45L49 44L48 44L48 42L47 42L47 43L46 43L46 42L45 42L45 41L43 41L43 40L45 40L45 39L47 39L47 40L46 40L46 41L49 41L49 42L50 42L50 44L52 44L52 43L53 43L53 42L52 42L52 41L54 41L54 42L55 42L55 41L56 41L56 40L55 40L55 39L54 39L54 38L56 38L56 39L57 39L57 40L58 40L58 41L59 41L59 40L61 40L61 41L62 41L62 40L61 40L61 39L60 39L60 35L59 35L59 36L58 36L58 38L59 38L59 39L57 39L57 36L56 36L56 37L55 37L55 36L54 36L54 35L55 35L55 34L54 34L54 35L53 35L53 36L52 36L52 35L51 35L51 34L53 34L53 33L54 33L54 32L55 32L55 31L56 31L56 33L57 33L57 35L58 35L58 34L59 34L59 33L57 33L57 31L59 31L59 30L57 30L57 31L56 31L56 30L55 30L55 28L56 28L56 27L57 27L57 28L58 28L58 27L57 27L57 26L56 26L56 27L54 27L54 26L55 26L55 24L56 24L56 25L57 25L57 24L56 24L56 22L55 22L55 23L53 23L53 21L54 21L54 18L52 18L52 17L53 17L53 15L52 15L52 14L51 14L51 15L52 15L52 17L51 17L51 16L49 16L49 15L48 15L48 14L49 14L49 13L47 13L47 12L48 12L48 11L47 11L47 9L46 9L46 8L48 8L48 9L50 9L50 8L49 8L49 7L50 7L50 4L49 4L49 7L48 7L48 6L47 6L47 7L46 7L46 5L47 5L47 3L46 3L46 5L45 5L45 8L44 8L44 6L43 6L43 9L45 9L45 10L46 10L46 11L45 11L45 12L44 12L44 10L43 10L43 12L41 12L41 13L42 13L42 14L44 14L44 13L46 13L46 14L45 14L45 17L44 17L44 18L43 18L43 16L44 16L44 15L41 15L41 14L40 14L40 10L39 10L39 8L38 8L38 10L37 10L37 11L38 11L38 12L39 12L39 14L38 14L38 15L37 15L37 12L36 12L36 9L33 9L33 10L34 10L34 11L35 11L35 12L36 12L36 13L34 13L34 12L33 12L33 11L32 11L32 13L31 13L31 14L30 14L30 12L28 12L28 10L30 10L30 11L31 11L31 10L32 10L32 8L31 8L31 10L30 10L30 9L29 9L29 8L28 8L28 6L29 6L29 7L30 7L30 6L29 6L29 5L31 5L31 4L28 4L28 5L27 5L27 3L26 3L26 4L24 4L24 3L25 3L25 2L24 2L24 3L21 3L21 2ZM28 2L28 3L30 3L30 2ZM31 2L31 3L32 3L32 4L36 4L36 3L33 3L33 2ZM58 2L58 3L59 3L59 2ZM12 3L12 4L13 4L13 3ZM44 3L44 4L45 4L45 3ZM55 3L55 5L56 5L56 7L57 7L57 4L56 4L56 3ZM60 3L60 5L61 5L61 3ZM37 4L37 7L38 7L38 6L39 6L39 7L40 7L40 8L41 8L41 9L42 9L42 8L41 8L41 7L40 7L40 6L39 6L39 5L38 5L38 4ZM58 4L58 7L59 7L59 4ZM15 5L15 7L16 7L16 5ZM33 5L33 8L36 8L36 5ZM8 6L8 7L9 7L9 6ZM18 6L18 7L19 7L19 6ZM24 6L24 7L23 7L23 8L24 8L24 7L25 7L25 6ZM26 6L26 8L27 8L27 10L28 10L28 8L27 8L27 6ZM31 6L31 7L32 7L32 6ZM34 6L34 7L35 7L35 6ZM51 6L51 7L52 7L52 8L53 8L53 7L52 7L52 6ZM60 6L60 7L61 7L61 6ZM57 8L57 9L58 9L58 8ZM61 8L61 9L59 9L59 10L58 10L58 12L59 12L59 14L58 14L58 13L57 13L57 14L58 14L58 16L57 16L57 15L56 15L56 12L57 12L57 10L56 10L56 12L55 12L55 15L56 15L56 16L55 16L55 17L56 17L56 18L57 18L57 19L58 19L58 18L59 18L59 20L60 20L60 17L64 17L64 14L65 14L65 18L66 18L66 19L67 19L67 20L69 20L69 19L68 19L68 18L69 18L69 16L68 16L68 15L66 15L66 14L67 14L67 12L68 12L68 13L69 13L69 10L68 10L68 9L69 9L69 8L68 8L68 9L67 9L67 8L64 8L64 9L66 9L66 10L65 10L65 11L64 11L64 10L62 10L62 8ZM6 9L6 10L7 10L7 9ZM3 10L3 12L4 12L4 10ZM38 10L38 11L39 11L39 10ZM41 10L41 11L42 11L42 10ZM60 10L60 11L59 11L59 12L60 12L60 15L61 15L61 16L62 16L62 15L63 15L63 14L64 14L64 13L65 13L65 12L64 12L64 11L63 11L63 14L62 14L62 15L61 15L61 13L62 13L62 10ZM46 11L46 12L47 12L47 11ZM66 11L66 12L67 12L67 11ZM11 12L11 13L10 13L10 14L9 14L9 15L8 15L8 17L9 17L9 18L11 18L11 17L10 17L10 16L9 16L9 15L11 15L11 16L12 16L12 15L15 15L15 16L16 16L16 18L15 18L15 20L14 20L14 21L15 21L15 22L16 22L16 23L17 23L17 24L18 24L18 26L17 26L17 25L16 25L16 24L15 24L15 26L17 26L17 27L16 27L16 28L18 28L18 27L19 27L19 28L20 28L20 27L24 27L24 25L26 25L26 24L25 24L25 23L26 23L26 22L27 22L27 24L28 24L28 22L27 22L27 21L28 21L28 20L27 20L27 21L26 21L26 22L25 22L25 20L26 20L26 19L27 19L27 18L26 18L26 19L25 19L25 18L24 18L24 17L23 17L23 18L22 18L22 17L21 17L21 16L20 16L20 19L17 19L17 16L16 16L16 14L14 14L14 13L13 13L13 12ZM11 13L11 14L13 14L13 13ZM25 13L25 14L24 14L24 15L25 15L25 16L26 16L26 17L28 17L28 18L29 18L29 17L28 17L28 15L27 15L27 16L26 16L26 13ZM27 13L27 14L28 14L28 13ZM32 13L32 14L31 14L31 15L30 15L30 14L29 14L29 16L31 16L31 17L30 17L30 18L31 18L31 19L29 19L29 21L30 21L30 20L31 20L31 19L32 19L32 21L31 21L31 22L32 22L32 23L33 23L33 25L32 25L32 24L30 24L30 22L29 22L29 24L30 24L30 25L31 25L31 27L30 27L30 28L33 28L33 27L34 27L34 24L35 24L35 22L34 22L34 21L35 21L35 20L37 20L37 22L38 22L38 23L39 23L39 24L42 24L42 25L44 25L44 28L43 28L43 27L42 27L42 26L41 26L41 27L42 27L42 28L41 28L41 29L39 29L39 28L38 28L38 27L39 27L39 26L40 26L40 25L38 25L38 24L36 24L36 25L37 25L37 26L38 26L38 27L35 27L35 29L36 29L36 28L37 28L37 29L39 29L39 31L40 31L40 30L41 30L41 29L42 29L42 28L43 28L43 30L44 30L44 31L45 31L45 32L47 32L47 33L48 33L48 34L49 34L49 33L50 33L50 32L51 32L51 33L53 33L53 32L54 32L54 31L52 31L52 29L51 29L51 31L50 31L50 32L49 32L49 29L46 29L46 28L47 28L47 26L46 26L46 25L47 25L47 24L48 24L48 26L49 26L49 27L50 27L50 28L51 28L51 25L49 25L49 22L50 22L50 21L49 21L49 22L47 22L47 23L46 23L46 25L44 25L44 23L43 23L43 24L42 24L42 23L40 23L40 22L44 22L44 21L41 21L41 19L43 19L43 18L42 18L42 16L41 16L41 17L40 17L40 14L39 14L39 15L38 15L38 17L39 17L39 20L38 20L38 19L37 19L37 15L36 15L36 14L33 14L33 13ZM46 14L46 15L47 15L47 16L48 16L48 15L47 15L47 14ZM32 15L32 16L33 16L33 15ZM34 15L34 17L33 17L33 19L34 19L34 20L35 20L35 19L34 19L34 18L36 18L36 16L35 16L35 15ZM3 16L3 17L4 17L4 18L5 18L5 17L4 17L4 16ZM18 16L18 17L19 17L19 16ZM58 16L58 17L59 17L59 16ZM66 16L66 18L68 18L68 17L67 17L67 16ZM45 17L45 18L44 18L44 20L45 20L45 21L46 21L46 19L47 19L47 21L48 21L48 19L50 19L50 20L52 20L52 21L53 21L53 19L52 19L52 18L50 18L50 17L49 17L49 18L47 18L47 17ZM0 18L0 19L1 19L1 18ZM23 18L23 19L20 19L20 20L18 20L18 22L17 22L17 23L18 23L18 24L20 24L20 23L18 23L18 22L19 22L19 21L20 21L20 22L21 22L21 20L23 20L23 21L22 21L22 22L23 22L23 23L21 23L21 26L23 26L23 25L22 25L22 24L24 24L24 23L25 23L25 22L23 22L23 21L24 21L24 20L23 20L23 19L24 19L24 18ZM62 18L62 19L63 19L63 18ZM4 19L4 20L7 20L7 19ZM16 19L16 21L17 21L17 19ZM11 20L11 21L12 21L12 20ZM39 20L39 22L40 22L40 20ZM63 20L63 22L65 22L65 20ZM8 21L8 22L9 22L9 21ZM32 21L32 22L33 22L33 23L34 23L34 22L33 22L33 21ZM51 22L51 23L50 23L50 24L53 24L53 25L52 25L52 28L53 28L53 30L54 30L54 27L53 27L53 25L54 25L54 24L53 24L53 23L52 23L52 22ZM63 24L63 25L64 25L64 26L65 26L65 27L64 27L64 29L65 29L65 27L66 27L66 26L67 26L67 25L65 25L65 24ZM12 25L12 27L13 27L13 28L14 28L14 29L13 29L13 30L12 30L12 32L13 32L13 34L14 34L14 33L17 33L17 34L16 34L16 35L18 35L18 34L19 34L19 33L17 33L17 32L16 32L16 31L17 31L17 30L18 30L18 31L19 31L19 30L18 30L18 29L15 29L15 27L14 27L14 26L13 26L13 25ZM19 25L19 26L20 26L20 25ZM27 25L27 26L28 26L28 25ZM4 26L4 27L5 27L5 26ZM25 26L25 27L26 27L26 26ZM32 26L32 27L33 27L33 26ZM45 26L45 28L46 28L46 26ZM21 28L21 29L22 29L22 30L20 30L20 31L22 31L22 30L24 30L24 29L22 29L22 28ZM44 29L44 30L45 30L45 31L47 31L47 30L45 30L45 29ZM13 30L13 31L14 31L14 30ZM15 30L15 31L16 31L16 30ZM25 30L25 31L24 31L24 33L23 33L23 34L25 34L25 36L24 36L24 37L26 37L26 34L25 34L25 31L27 31L27 32L26 32L26 33L27 33L27 32L28 32L28 30ZM48 32L48 33L49 33L49 32ZM2 33L2 34L4 34L4 33ZM5 33L5 36L8 36L8 33ZM30 33L30 35L31 35L31 33ZM33 33L33 36L36 36L36 33ZM44 33L44 34L45 34L45 33ZM61 33L61 36L64 36L64 33ZM67 33L67 34L68 34L68 33ZM6 34L6 35L7 35L7 34ZM9 34L9 38L7 38L7 37L6 37L6 38L4 38L4 37L3 37L3 39L2 39L2 40L5 40L5 41L4 41L4 42L5 42L5 43L6 43L6 44L7 44L7 43L6 43L6 42L7 42L7 41L6 41L6 40L7 40L7 39L8 39L8 40L9 40L9 41L8 41L8 42L10 42L10 41L11 41L11 40L15 40L15 39L11 39L11 40L10 40L10 37L13 37L13 38L14 38L14 36L10 36L10 34ZM34 34L34 35L35 35L35 34ZM62 34L62 35L63 35L63 34ZM65 34L65 35L66 35L66 34ZM3 35L3 36L4 36L4 35ZM27 35L27 38L26 38L26 39L27 39L27 38L28 38L28 35ZM0 36L0 38L1 38L1 36ZM20 36L20 37L19 37L19 38L22 38L22 39L23 39L23 38L22 38L22 37L21 37L21 36ZM50 36L50 37L49 37L49 41L50 41L50 40L51 40L51 41L52 41L52 40L51 40L51 39L52 39L52 37L51 37L51 36ZM38 37L38 38L39 38L39 37ZM6 38L6 39L7 39L7 38ZM41 38L41 39L39 39L39 42L40 42L40 43L43 43L43 42L42 42L42 41L41 41L41 42L40 42L40 40L41 40L41 39L43 39L43 38ZM44 38L44 39L45 39L45 38ZM50 38L50 39L51 39L51 38ZM53 39L53 40L54 40L54 39ZM30 40L30 41L31 41L31 40ZM68 40L68 41L69 41L69 40ZM2 41L2 42L3 42L3 41ZM37 42L37 43L38 43L38 42ZM57 42L57 43L58 43L58 42ZM24 43L24 44L25 44L25 43ZM33 43L33 44L35 44L35 43ZM63 43L63 44L64 44L64 43ZM21 44L21 45L23 45L23 46L24 46L24 49L25 49L25 51L24 51L24 50L23 50L23 49L22 49L22 48L21 48L21 50L20 50L20 49L19 49L19 52L20 52L20 53L21 53L21 54L22 54L22 56L21 56L21 58L20 58L20 54L19 54L19 53L18 53L18 56L16 56L16 59L17 59L17 58L19 58L19 59L21 59L21 58L22 58L22 56L23 56L23 57L24 57L24 58L25 58L25 57L24 57L24 56L23 56L23 55L24 55L24 53L25 53L25 54L26 54L26 56L28 56L28 57L29 57L29 59L30 59L30 58L33 58L33 57L36 57L36 54L37 54L37 53L36 53L36 54L35 54L35 53L32 53L32 52L31 52L31 51L33 51L33 50L34 50L34 51L35 51L35 52L39 52L39 53L38 53L38 54L40 54L40 51L38 51L38 50L40 50L40 49L39 49L39 48L37 48L37 47L36 47L36 46L34 46L34 47L35 47L35 48L37 48L37 49L36 49L36 50L34 50L34 49L33 49L33 48L32 48L32 47L29 47L29 46L28 46L28 47L27 47L27 46L26 46L26 47L27 47L27 48L28 48L28 47L29 47L29 50L27 50L27 49L25 49L25 45L23 45L23 44ZM41 44L41 45L42 45L42 44ZM60 44L60 48L62 48L62 47L63 47L63 45L62 45L62 44ZM0 45L0 46L1 46L1 47L0 47L0 48L1 48L1 47L2 47L2 46L1 46L1 45ZM50 45L50 46L49 46L49 48L50 48L50 49L51 49L51 50L54 50L54 51L56 51L56 52L57 52L57 51L56 51L56 50L55 50L55 49L54 49L54 48L56 48L56 47L54 47L54 48L53 48L53 46L52 46L52 47L51 47L51 45ZM61 45L61 46L62 46L62 45ZM6 47L6 48L7 48L7 49L5 49L5 51L6 51L6 52L5 52L5 54L3 54L3 55L4 55L4 56L3 56L3 57L4 57L4 58L7 58L7 57L9 57L9 55L8 55L8 56L7 56L7 55L6 55L6 56L5 56L5 54L10 54L10 56L11 56L11 57L10 57L10 58L11 58L11 59L10 59L10 60L11 60L11 61L12 61L12 60L11 60L11 59L13 59L13 57L12 57L12 56L13 56L13 55L14 55L14 54L15 54L15 53L14 53L14 52L11 52L11 51L9 51L9 50L11 50L11 49L9 49L9 50L8 50L8 48L9 48L9 47L8 47L8 48L7 48L7 47ZM14 47L14 48L15 48L15 47ZM31 48L31 49L32 49L32 50L33 50L33 49L32 49L32 48ZM13 49L13 50L12 50L12 51L13 51L13 50L14 50L14 49ZM1 50L1 51L2 51L2 53L4 53L4 52L3 52L3 50ZM6 50L6 51L7 51L7 50ZM36 50L36 51L37 51L37 50ZM21 51L21 52L22 52L22 53L24 53L24 52L22 52L22 51ZM25 51L25 52L26 52L26 51ZM28 51L28 52L27 52L27 53L28 53L28 52L29 52L29 54L28 54L28 56L29 56L29 57L33 57L33 56L34 56L34 55L33 55L33 54L31 54L31 52L29 52L29 51ZM42 51L42 52L43 52L43 51ZM45 51L45 53L46 53L46 51ZM63 51L63 53L65 53L65 51ZM6 52L6 53L7 53L7 52ZM8 52L8 53L9 53L9 52ZM10 52L10 53L11 53L11 56L12 56L12 55L13 55L13 54L12 54L12 53L11 53L11 52ZM58 52L58 53L59 53L59 52ZM30 54L30 55L31 55L31 56L33 56L33 55L31 55L31 54ZM38 55L38 56L39 56L39 55ZM64 55L64 57L65 57L65 55ZM4 56L4 57L5 57L5 56ZM6 56L6 57L7 57L7 56ZM18 56L18 57L19 57L19 56ZM45 56L45 57L46 57L46 56ZM59 58L59 61L58 61L58 62L57 62L57 63L58 63L58 65L60 65L60 66L62 66L62 65L60 65L60 58ZM36 59L36 60L37 60L37 59ZM56 59L56 61L57 61L57 59ZM61 59L61 60L63 60L63 59ZM66 59L66 60L67 60L67 59ZM3 60L3 61L5 61L5 60ZM43 60L43 62L45 62L45 63L44 63L44 64L43 64L43 65L45 65L45 63L46 63L46 62L45 62L45 61L44 61L44 60ZM28 61L28 62L29 62L29 61ZM33 61L33 64L36 64L36 61ZM54 61L54 62L55 62L55 61ZM61 61L61 64L64 64L64 61ZM34 62L34 63L35 63L35 62ZM62 62L62 63L63 63L63 62ZM55 63L55 64L56 64L56 63ZM16 64L16 65L17 65L17 64ZM18 64L18 67L19 67L19 68L20 68L20 67L19 67L19 64ZM52 64L52 65L53 65L53 64ZM23 65L23 66L24 66L24 65ZM46 65L46 68L45 68L45 69L48 69L48 68L49 68L49 69L50 69L50 67L49 67L49 65L48 65L48 67L47 67L47 65ZM33 66L33 67L34 67L34 66ZM39 66L39 68L41 68L41 67L40 67L40 66ZM44 66L44 67L45 67L45 66ZM21 67L21 68L22 68L22 67ZM68 67L68 68L69 68L69 67ZM66 68L66 69L67 69L67 68ZM0 0L0 7L7 7L7 0ZM1 1L1 6L6 6L6 1ZM2 2L2 5L5 5L5 2ZM62 0L62 7L69 7L69 0ZM63 1L63 6L68 6L68 1ZM64 2L64 5L67 5L67 2ZM0 62L0 69L7 69L7 62ZM1 63L1 68L6 68L6 63ZM2 64L2 67L5 67L5 64Z" fill="#000000"/></g></g></svg>
