<?xml version="1.0" encoding="UTF-8"?>
<svg xmlns="http://www.w3.org/2000/svg" version="1.1" width="300" height="300" viewBox="0 0 300 300"><rect x="0" y="0" width="300" height="300" fill="#ffffff"/><g transform="scale(4.348)"><g transform="translate(0,0)"><path fill-rule="evenodd" d="M8 0L8 1L9 1L9 0ZM10 0L10 1L12 1L12 0ZM16 0L16 3L17 3L17 5L16 5L16 4L15 4L15 3L14 3L14 2L15 2L15 1L14 1L14 2L13 2L13 3L14 3L14 4L15 4L15 5L12 5L12 4L11 4L11 3L12 3L12 2L9 2L9 3L10 3L10 5L11 5L11 6L10 6L10 7L11 7L11 8L10 8L10 9L7 9L7 8L6 8L6 9L5 9L5 8L3 8L3 9L2 9L2 8L0 8L0 9L1 9L1 10L0 10L0 11L1 11L1 12L3 12L3 11L4 11L4 12L5 12L5 13L3 13L3 15L4 15L4 17L5 17L5 14L6 14L6 15L10 15L10 16L11 16L11 18L10 18L10 22L11 22L11 23L10 23L10 24L11 24L11 25L10 25L10 26L9 26L9 27L7 27L7 26L8 26L8 25L9 25L9 21L7 21L7 20L5 20L5 18L4 18L4 19L3 19L3 17L2 17L2 16L1 16L1 15L2 15L2 13L0 13L0 16L1 16L1 17L0 17L0 20L1 20L1 19L2 19L2 21L0 21L0 22L1 22L1 24L2 24L2 25L0 25L0 26L2 26L2 27L0 27L0 30L2 30L2 31L3 31L3 32L1 32L1 33L0 33L0 36L1 36L1 37L2 37L2 39L3 39L3 41L7 41L7 40L8 40L8 42L6 42L6 43L8 43L8 45L7 45L7 44L6 44L6 45L7 45L7 46L5 46L5 45L3 45L3 46L2 46L2 43L0 43L0 45L1 45L1 46L0 46L0 49L1 49L1 50L0 50L0 51L1 51L1 50L2 50L2 53L0 53L0 54L1 54L1 57L0 57L0 61L1 61L1 57L2 57L2 55L3 55L3 56L4 56L4 57L3 57L3 58L2 58L2 59L3 59L3 58L4 58L4 59L7 59L7 60L6 60L6 61L7 61L7 60L8 60L8 59L7 59L7 58L8 58L8 54L9 54L9 53L10 53L10 52L9 52L9 53L8 53L8 52L6 52L6 53L8 53L8 54L6 54L6 55L7 55L7 56L4 56L4 55L5 55L5 53L3 53L3 51L8 51L8 49L9 49L9 47L10 47L10 48L11 48L11 47L10 47L10 46L9 46L9 45L12 45L12 46L13 46L13 44L14 44L14 43L13 43L13 42L12 42L12 41L14 41L14 40L15 40L15 39L16 39L16 40L17 40L17 39L16 39L16 36L18 36L18 37L17 37L17 38L19 38L19 39L21 39L21 40L20 40L20 41L19 41L19 40L18 40L18 44L17 44L17 45L15 45L15 46L14 46L14 47L13 47L13 48L12 48L12 49L13 49L13 50L11 50L11 49L10 49L10 51L11 51L11 54L14 54L14 57L12 57L12 56L11 56L11 57L9 57L9 58L10 58L10 59L9 59L9 60L11 60L11 59L12 59L12 61L8 61L8 62L12 62L12 63L10 63L10 65L9 65L9 64L8 64L8 66L9 66L9 67L8 67L8 69L9 69L9 67L11 67L11 65L12 65L12 67L13 67L13 65L12 65L12 63L14 63L14 64L15 64L15 66L16 66L16 67L17 67L17 69L19 69L19 68L20 68L20 69L23 69L23 68L22 68L22 67L24 67L24 69L25 69L25 68L26 68L26 67L27 67L27 68L28 68L28 69L31 69L31 68L30 68L30 67L31 67L31 65L32 65L32 66L34 66L34 67L32 67L32 68L33 68L33 69L35 69L35 68L36 68L36 69L37 69L37 68L39 68L39 67L37 67L37 65L39 65L39 66L41 66L41 68L40 68L40 69L41 69L41 68L42 68L42 69L43 69L43 68L44 68L44 65L46 65L46 66L48 66L48 68L47 68L47 67L46 67L46 69L51 69L51 68L50 68L50 67L52 67L52 65L51 65L51 66L50 66L50 65L49 65L49 63L50 63L50 64L51 64L51 63L52 63L52 62L53 62L53 65L54 65L54 66L53 66L53 68L52 68L52 69L55 69L55 68L57 68L57 69L59 69L59 68L57 68L57 67L55 67L55 66L58 66L58 67L59 67L59 66L60 66L60 67L61 67L61 65L64 65L64 67L62 67L62 68L63 68L63 69L64 69L64 67L65 67L65 69L67 69L67 68L69 68L69 66L67 66L67 65L66 65L66 64L68 64L68 65L69 65L69 63L67 63L67 62L68 62L68 61L69 61L69 60L68 60L68 59L69 59L69 57L68 57L68 55L69 55L69 51L67 51L67 49L68 49L68 48L69 48L69 45L67 45L67 43L66 43L66 40L67 40L67 38L66 38L66 37L67 37L67 35L68 35L68 38L69 38L69 34L67 34L67 35L66 35L66 34L65 34L65 33L66 33L66 32L67 32L67 33L69 33L69 29L67 29L67 31L66 31L66 28L68 28L68 27L65 27L65 25L66 25L66 26L69 26L69 25L68 25L68 24L69 24L69 21L68 21L68 22L67 22L67 21L66 21L66 20L67 20L67 18L68 18L68 20L69 20L69 15L67 15L67 14L63 14L63 13L65 13L65 12L64 12L64 11L66 11L66 13L68 13L68 14L69 14L69 13L68 13L68 11L69 11L69 10L68 10L68 9L69 9L69 8L68 8L68 9L65 9L65 10L64 10L64 11L63 11L63 8L62 8L62 9L60 9L60 8L61 8L61 6L60 6L60 8L59 8L59 4L58 4L58 3L59 3L59 2L57 2L57 1L56 1L56 0L54 0L54 2L52 2L52 1L53 1L53 0L52 0L52 1L51 1L51 0L50 0L50 2L51 2L51 4L49 4L49 2L48 2L48 3L47 3L47 2L46 2L46 1L48 1L48 0L46 0L46 1L44 1L44 0L42 0L42 2L41 2L41 0L40 0L40 3L38 3L38 2L37 2L37 1L39 1L39 0L32 0L32 1L31 1L31 0L29 0L29 1L28 1L28 2L29 2L29 3L28 3L28 4L29 4L29 5L28 5L28 7L27 7L27 6L26 6L26 8L27 8L27 9L25 9L25 6L24 6L24 5L26 5L26 4L27 4L27 0L24 0L24 1L23 1L23 0L22 0L22 1L23 1L23 3L22 3L22 2L21 2L21 0L18 0L18 2L17 2L17 0ZM58 0L58 1L61 1L61 0ZM19 1L19 2L20 2L20 4L21 4L21 2L20 2L20 1ZM24 1L24 2L25 2L25 4L26 4L26 2L25 2L25 1ZM32 1L32 2L33 2L33 4L34 4L34 2L33 2L33 1ZM30 2L30 3L31 3L31 4L32 4L32 3L31 3L31 2ZM36 2L36 4L37 4L37 5L38 5L38 6L37 6L37 9L39 9L39 10L41 10L41 12L40 12L40 11L37 11L37 10L36 10L36 9L35 9L35 11L36 11L36 12L34 12L34 13L33 13L33 14L32 14L32 15L33 15L33 16L31 16L31 17L30 17L30 15L31 15L31 14L30 14L30 12L31 12L31 13L32 13L32 12L33 12L33 11L31 11L31 10L32 10L32 9L31 9L31 7L32 7L32 5L29 5L29 7L28 7L28 9L29 9L29 10L28 10L28 11L30 11L30 12L28 12L28 14L27 14L27 13L25 13L25 14L26 14L26 15L29 15L29 16L27 16L27 17L26 17L26 16L22 16L22 14L23 14L23 15L24 15L24 14L23 14L23 13L24 13L24 12L25 12L25 11L26 11L26 12L27 12L27 10L25 10L25 9L24 9L24 8L23 8L23 7L24 7L24 6L23 6L23 7L22 7L22 5L21 5L21 7L22 7L22 8L23 8L23 9L24 9L24 11L23 11L23 10L21 10L21 11L23 11L23 13L22 13L22 12L20 12L20 10L19 10L19 9L17 9L17 10L15 10L15 11L11 11L11 10L13 10L13 9L15 9L15 8L17 8L17 7L18 7L18 6L19 6L19 8L20 8L20 9L21 9L21 8L20 8L20 6L19 6L19 4L18 4L18 5L17 5L17 7L16 7L16 6L15 6L15 7L14 7L14 6L13 6L13 7L12 7L12 6L11 6L11 7L12 7L12 9L11 9L11 10L8 10L8 11L9 11L9 12L8 12L8 13L6 13L6 14L8 14L8 13L9 13L9 14L10 14L10 15L11 15L11 14L12 14L12 16L13 16L13 17L12 17L12 18L11 18L11 21L12 21L12 22L14 22L14 23L13 23L13 24L12 24L12 25L11 25L11 26L12 26L12 28L11 28L11 29L10 29L10 27L9 27L9 29L8 29L8 30L9 30L9 34L11 34L11 35L12 35L12 37L11 37L11 36L10 36L10 35L9 35L9 37L8 37L8 38L9 38L9 37L11 37L11 38L12 38L12 37L13 37L13 39L12 39L12 40L11 40L11 39L9 39L9 40L11 40L11 41L9 41L9 44L10 44L10 43L11 43L11 41L12 41L12 40L13 40L13 39L15 39L15 37L13 37L13 36L15 36L15 34L13 34L13 33L12 33L12 32L13 32L13 31L14 31L14 33L15 33L15 32L16 32L16 33L18 33L18 32L16 32L16 31L17 31L17 30L18 30L18 28L17 28L17 27L21 27L21 29L20 29L20 28L19 28L19 29L20 29L20 30L19 30L19 31L20 31L20 32L19 32L19 34L20 34L20 33L21 33L21 34L23 34L23 33L25 33L25 34L26 34L26 32L28 32L28 31L27 31L27 29L25 29L25 30L24 30L24 29L23 29L23 28L24 28L24 27L22 27L22 26L24 26L24 24L25 24L25 25L26 25L26 24L27 24L27 25L28 25L28 26L26 26L26 27L25 27L25 28L26 28L26 27L28 27L28 26L29 26L29 24L30 24L30 23L29 23L29 22L31 22L31 21L29 21L29 22L27 22L27 23L25 23L25 22L26 22L26 21L28 21L28 20L32 20L32 25L31 25L31 26L32 26L32 28L31 28L31 29L33 29L33 27L34 27L34 26L32 26L32 25L33 25L33 23L34 23L34 22L35 22L35 23L36 23L36 21L34 21L34 22L33 22L33 20L32 20L32 19L30 19L30 18L31 18L31 17L33 17L33 18L37 18L37 17L38 17L38 18L39 18L39 17L41 17L41 18L40 18L40 19L37 19L37 20L39 20L39 21L38 21L38 22L37 22L37 23L38 23L38 25L37 25L37 24L36 24L36 25L37 25L37 26L38 26L38 27L39 27L39 26L38 26L38 25L40 25L40 27L41 27L41 28L40 28L40 29L41 29L41 28L42 28L42 27L41 27L41 25L40 25L40 24L39 24L39 23L38 23L38 22L39 22L39 21L40 21L40 20L42 20L42 21L41 21L41 24L42 24L42 23L43 23L43 25L44 25L44 24L45 24L45 25L46 25L46 26L47 26L47 32L46 32L46 33L47 33L47 34L45 34L45 31L46 31L46 30L45 30L45 31L44 31L44 32L41 32L41 33L40 33L40 31L38 31L38 30L39 30L39 28L38 28L38 30L37 30L37 31L36 31L36 30L35 30L35 28L34 28L34 31L35 31L35 32L37 32L37 33L40 33L40 34L37 34L37 37L31 37L31 38L30 38L30 36L31 36L31 35L32 35L32 34L30 34L30 36L29 36L29 35L28 35L28 36L29 36L29 37L28 37L28 38L30 38L30 39L27 39L27 37L25 37L25 39L24 39L24 38L23 38L23 37L24 37L24 36L23 36L23 35L18 35L18 34L16 34L16 35L18 35L18 36L19 36L19 38L20 38L20 36L21 36L21 38L23 38L23 40L22 40L22 41L23 41L23 42L21 42L21 41L20 41L20 42L21 42L21 46L22 46L22 48L21 48L21 49L19 49L19 48L20 48L20 46L18 46L18 45L17 45L17 47L16 47L16 50L17 50L17 51L16 51L16 52L14 52L14 54L16 54L16 52L17 52L17 51L19 51L19 50L21 50L21 51L20 51L20 52L21 52L21 53L20 53L20 55L21 55L21 56L20 56L20 57L21 57L21 58L19 58L19 57L16 57L16 58L18 58L18 60L17 60L17 59L16 59L16 60L17 60L17 61L16 61L16 62L15 62L15 61L14 61L14 62L15 62L15 64L17 64L17 63L18 63L18 62L20 62L20 63L19 63L19 64L20 64L20 63L22 63L22 64L21 64L21 65L19 65L19 67L18 67L18 68L19 68L19 67L20 67L20 66L21 66L21 67L22 67L22 66L24 66L24 64L26 64L26 65L25 65L25 66L27 66L27 63L28 63L28 62L31 62L31 61L30 61L30 60L32 60L32 58L33 58L33 57L34 57L34 56L35 56L35 58L36 58L36 57L39 57L39 58L41 58L41 57L40 57L40 55L41 55L41 54L42 54L42 53L43 53L43 54L44 54L44 56L42 56L42 57L43 57L43 60L41 60L41 61L39 61L39 62L38 62L38 61L37 61L37 63L39 63L39 65L41 65L41 66L42 66L42 67L43 67L43 66L42 66L42 64L45 64L45 63L42 63L42 62L41 62L41 61L43 61L43 62L44 62L44 57L47 57L47 56L48 56L48 55L49 55L49 56L50 56L50 57L51 57L51 59L49 59L49 57L48 57L48 58L46 58L46 63L49 63L49 62L50 62L50 63L51 63L51 62L52 62L52 60L51 60L51 59L53 59L53 58L52 58L52 56L53 56L53 57L54 57L54 56L55 56L55 57L57 57L57 56L56 56L56 55L58 55L58 57L59 57L59 58L58 58L58 59L57 59L57 58L54 58L54 60L55 60L55 61L56 61L56 60L58 60L58 63L57 63L57 64L60 64L60 63L59 63L59 62L60 62L60 61L59 61L59 60L61 60L61 59L60 59L60 56L61 56L61 57L62 57L62 58L63 58L63 56L64 56L64 54L63 54L63 53L62 53L62 52L64 52L64 53L66 53L66 54L65 54L65 56L66 56L66 58L64 58L64 59L65 59L65 60L66 60L66 58L67 58L67 56L66 56L66 54L67 54L67 55L68 55L68 52L66 52L66 51L65 51L65 50L66 50L66 49L67 49L67 48L68 48L68 47L67 47L67 48L66 48L66 47L65 47L65 46L66 46L66 44L65 44L65 42L64 42L64 44L62 44L62 42L60 42L60 43L59 43L59 42L58 42L58 41L59 41L59 40L61 40L61 39L62 39L62 41L63 41L63 40L65 40L65 39L64 39L64 38L65 38L65 37L63 37L63 38L61 38L61 39L58 39L58 38L59 38L59 37L58 37L58 36L59 36L59 35L60 35L60 32L59 32L59 31L58 31L58 30L57 30L57 29L59 29L59 30L60 30L60 29L61 29L61 28L60 28L60 29L59 29L59 25L60 25L60 24L62 24L62 25L64 25L64 24L66 24L66 23L67 23L67 24L68 24L68 23L67 23L67 22L66 22L66 23L62 23L62 22L61 22L61 23L60 23L60 21L63 21L63 22L64 22L64 20L65 20L65 19L66 19L66 17L65 17L65 16L64 16L64 15L63 15L63 14L62 14L62 13L63 13L63 12L58 12L58 4L55 4L55 8L56 8L56 10L55 10L55 11L54 11L54 10L52 10L52 11L53 11L53 12L54 12L54 13L55 13L55 15L54 15L54 14L52 14L52 12L51 12L51 14L50 14L50 12L49 12L49 10L50 10L50 11L51 11L51 10L50 10L50 9L52 9L52 8L54 8L54 3L53 3L53 7L52 7L52 4L51 4L51 5L50 5L50 6L49 6L49 5L48 5L48 4L46 4L46 2L45 2L45 8L43 8L43 7L44 7L44 5L43 5L43 7L42 7L42 6L41 6L41 7L40 7L40 4L39 4L39 5L38 5L38 4L37 4L37 2ZM56 2L56 3L57 3L57 2ZM60 3L60 5L61 5L61 3ZM23 4L23 5L24 5L24 4ZM41 4L41 5L42 5L42 4ZM33 5L33 8L36 8L36 5ZM46 5L46 7L47 7L47 8L45 8L45 10L44 10L44 9L41 9L41 8L40 8L40 9L41 9L41 10L44 10L44 11L43 11L43 13L42 13L42 12L41 12L41 13L40 13L40 14L41 14L41 15L40 15L40 16L41 16L41 17L42 17L42 19L43 19L43 20L46 20L46 18L47 18L47 20L48 20L48 21L42 21L42 22L45 22L45 23L46 23L46 24L47 24L47 26L48 26L48 27L49 27L49 28L48 28L48 29L49 29L49 30L48 30L48 32L47 32L47 33L48 33L48 34L47 34L47 35L44 35L44 37L45 37L45 38L44 38L44 40L42 40L42 43L41 43L41 45L42 45L42 46L44 46L44 47L43 47L43 48L41 48L41 46L40 46L40 49L38 49L38 48L39 48L39 43L38 43L38 41L39 41L39 42L40 42L40 41L39 41L39 39L35 39L35 38L31 38L31 39L35 39L35 41L32 41L32 40L31 40L31 41L28 41L28 40L27 40L27 39L25 39L25 40L23 40L23 41L27 41L27 43L28 43L28 42L29 42L29 43L30 43L30 42L31 42L31 43L32 43L32 46L34 46L34 47L33 47L33 48L30 48L30 47L31 47L31 46L30 46L30 45L31 45L31 44L29 44L29 45L28 45L28 44L27 44L27 46L26 46L26 45L25 45L25 44L26 44L26 43L25 43L25 44L24 44L24 42L23 42L23 44L22 44L22 46L24 46L24 47L23 47L23 48L22 48L22 49L21 49L21 50L22 50L22 51L21 51L21 52L22 52L22 51L24 51L24 52L23 52L23 53L21 53L21 54L23 54L23 55L22 55L22 56L23 56L23 57L22 57L22 60L21 60L21 61L20 61L20 60L18 60L18 61L20 61L20 62L22 62L22 63L24 63L24 62L26 62L26 63L27 63L27 62L28 62L28 61L29 61L29 60L30 60L30 59L31 59L31 58L32 58L32 57L33 57L33 56L34 56L34 55L35 55L35 56L39 56L39 53L36 53L36 52L38 52L38 50L39 50L39 51L40 51L40 49L41 49L41 50L42 50L42 51L41 51L41 53L42 53L42 52L43 52L43 53L44 53L44 54L45 54L45 55L48 55L48 54L47 54L47 52L46 52L46 51L48 51L48 53L49 53L49 55L50 55L50 56L51 56L51 54L50 54L50 53L52 53L52 51L53 51L53 53L54 53L54 54L53 54L53 55L54 55L54 54L55 54L55 55L56 55L56 53L58 53L58 54L59 54L59 56L60 56L60 54L59 54L59 53L61 53L61 52L62 52L62 51L61 51L61 52L56 52L56 51L55 51L55 50L57 50L57 51L60 51L60 49L61 49L61 48L62 48L62 47L63 47L63 49L62 49L62 50L63 50L63 51L64 51L64 48L65 48L65 49L66 49L66 48L65 48L65 47L63 47L63 46L65 46L65 44L64 44L64 45L63 45L63 46L61 46L61 44L60 44L60 45L57 45L57 47L58 47L58 46L59 46L59 50L58 50L58 48L56 48L56 45L53 45L53 44L54 44L54 42L56 42L56 43L55 43L55 44L58 44L58 43L57 43L57 42L56 42L56 41L58 41L58 40L57 40L57 39L56 39L56 38L58 38L58 37L57 37L57 36L58 36L58 35L59 35L59 33L58 33L58 32L57 32L57 30L56 30L56 32L57 32L57 34L55 34L55 33L53 33L53 32L52 32L52 33L51 33L51 31L54 31L54 32L55 32L55 29L57 29L57 27L58 27L58 25L59 25L59 21L60 21L60 19L62 19L62 20L63 20L63 19L62 19L62 17L63 17L63 16L60 16L60 19L59 19L59 15L60 15L60 14L61 14L61 15L62 15L62 14L61 14L61 13L60 13L60 14L58 14L58 12L57 12L57 10L56 10L56 11L55 11L55 13L56 13L56 15L57 15L57 14L58 14L58 17L57 17L57 16L53 16L53 17L54 17L54 19L55 19L55 20L53 20L53 19L52 19L52 18L50 18L50 17L51 17L51 16L52 16L52 14L51 14L51 15L50 15L50 14L49 14L49 12L48 12L48 10L49 10L49 6L48 6L48 5ZM56 5L56 7L57 7L57 5ZM8 6L8 8L9 8L9 6ZM30 6L30 7L31 7L31 6ZM34 6L34 7L35 7L35 6ZM38 6L38 8L39 8L39 6ZM47 6L47 7L48 7L48 6ZM50 6L50 8L52 8L52 7L51 7L51 6ZM29 8L29 9L30 9L30 10L31 10L31 9L30 9L30 8ZM4 9L4 11L5 11L5 9ZM6 9L6 10L7 10L7 9ZM33 9L33 10L34 10L34 9ZM1 10L1 11L2 11L2 10ZM17 10L17 11L15 11L15 12L14 12L14 14L13 14L13 15L14 15L14 16L15 16L15 17L14 17L14 18L13 18L13 19L14 19L14 18L16 18L16 15L15 15L15 13L16 13L16 12L18 12L18 13L17 13L17 15L18 15L18 14L19 14L19 16L20 16L20 17L17 17L17 19L18 19L18 20L17 20L17 21L16 21L16 20L15 20L15 21L14 21L14 20L13 20L13 21L14 21L14 22L17 22L17 24L14 24L14 25L13 25L13 26L14 26L14 27L13 27L13 28L12 28L12 29L13 29L13 30L12 30L12 31L13 31L13 30L14 30L14 29L15 29L15 31L16 31L16 30L17 30L17 29L15 29L15 28L16 28L16 26L17 26L17 24L18 24L18 26L19 26L19 24L20 24L20 23L21 23L21 22L22 22L22 23L23 23L23 24L24 24L24 22L25 22L25 20L27 20L27 18L26 18L26 17L24 17L24 18L25 18L25 20L24 20L24 19L22 19L22 18L23 18L23 17L21 17L21 16L20 16L20 15L21 15L21 14L22 14L22 13L19 13L19 12L18 12L18 10ZM45 10L45 11L46 11L46 12L45 12L45 13L43 13L43 14L42 14L42 13L41 13L41 14L42 14L42 15L41 15L41 16L47 16L47 18L48 18L48 20L49 20L49 19L50 19L50 18L49 18L49 17L48 17L48 16L49 16L49 14L47 14L47 13L48 13L48 12L47 12L47 10ZM60 10L60 11L62 11L62 10ZM6 11L6 12L7 12L7 11ZM10 11L10 12L9 12L9 13L10 13L10 14L11 14L11 11ZM12 12L12 13L13 13L13 12ZM37 12L37 13L35 13L35 14L34 14L34 16L36 16L36 17L37 17L37 16L38 16L38 17L39 17L39 15L38 15L38 14L39 14L39 13L38 13L38 12ZM46 12L46 13L45 13L45 15L46 15L46 13L47 13L47 12ZM37 13L37 14L38 14L38 13ZM29 14L29 15L30 15L30 14ZM36 15L36 16L37 16L37 15ZM47 15L47 16L48 16L48 15ZM6 16L6 17L7 17L7 18L6 18L6 19L8 19L8 20L9 20L9 19L8 19L8 17L7 17L7 16ZM67 16L67 17L68 17L68 16ZM1 17L1 18L2 18L2 17ZM28 17L28 19L29 19L29 18L30 18L30 17ZM43 17L43 18L44 18L44 19L45 19L45 17ZM18 18L18 19L19 19L19 20L21 20L21 21L22 21L22 20L21 20L21 18L20 18L20 19L19 19L19 18ZM57 18L57 19L56 19L56 20L55 20L55 21L57 21L57 19L58 19L58 20L59 20L59 19L58 19L58 18ZM64 18L64 19L65 19L65 18ZM34 19L34 20L36 20L36 19ZM4 20L4 23L2 23L2 24L7 24L7 25L5 25L5 27L4 27L4 26L3 26L3 25L2 25L2 26L3 26L3 27L2 27L2 28L3 28L3 30L4 30L4 32L3 32L3 34L4 34L4 32L5 32L5 31L6 31L6 32L8 32L8 31L6 31L6 30L7 30L7 29L6 29L6 28L7 28L7 27L6 27L6 26L7 26L7 25L8 25L8 22L7 22L7 21L5 21L5 20ZM2 21L2 22L3 22L3 21ZM18 21L18 24L19 24L19 23L20 23L20 22L19 22L19 21ZM48 21L48 22L46 22L46 23L47 23L47 24L49 24L49 23L48 23L48 22L49 22L49 21ZM5 22L5 23L7 23L7 22ZM54 22L54 23L55 23L55 24L54 24L54 25L52 25L52 24L53 24L53 23L50 23L50 24L51 24L51 26L52 26L52 27L51 27L51 29L50 29L50 28L49 28L49 29L50 29L50 30L49 30L49 32L50 32L50 30L51 30L51 29L52 29L52 30L54 30L54 29L53 29L53 26L54 26L54 28L56 28L56 27L57 27L57 25L56 25L56 22ZM27 23L27 24L28 24L28 23ZM57 23L57 24L58 24L58 23ZM14 25L14 26L15 26L15 25ZM20 25L20 26L21 26L21 25ZM48 25L48 26L49 26L49 27L50 27L50 25ZM54 25L54 26L55 26L55 25ZM35 26L35 27L36 27L36 26ZM43 26L43 28L45 28L45 29L46 29L46 27L44 27L44 26ZM61 26L61 27L62 27L62 26ZM3 27L3 28L4 28L4 30L5 30L5 28L4 28L4 27ZM14 27L14 28L13 28L13 29L14 29L14 28L15 28L15 27ZM64 27L64 28L62 28L62 30L63 30L63 31L61 31L61 32L63 32L63 31L65 31L65 30L64 30L64 29L65 29L65 27ZM28 28L28 29L29 29L29 30L30 30L30 28ZM9 29L9 30L10 30L10 33L11 33L11 30L10 30L10 29ZM20 30L20 31L22 31L22 30ZM42 30L42 31L43 31L43 30ZM23 31L23 32L22 32L22 33L23 33L23 32L24 32L24 31ZM25 31L25 32L26 32L26 31ZM29 31L29 32L31 32L31 33L32 33L32 31ZM67 31L67 32L68 32L68 31ZM5 33L5 36L8 36L8 33ZM28 33L28 34L29 34L29 33ZM33 33L33 36L36 36L36 33ZM41 33L41 34L40 34L40 35L39 35L39 36L38 36L38 37L37 37L37 38L40 38L40 37L41 37L41 39L43 39L43 35L42 35L42 34L43 34L43 33ZM52 33L52 34L51 34L51 35L49 35L49 34L48 34L48 35L49 35L49 37L48 37L48 36L46 36L46 39L45 39L45 41L44 41L44 43L43 43L43 44L44 44L44 45L46 45L46 44L47 44L47 43L48 43L48 44L49 44L49 46L48 46L48 47L47 47L47 46L46 46L46 47L44 47L44 48L43 48L43 49L44 49L44 50L43 50L43 52L45 52L45 51L46 51L46 50L49 50L49 53L50 53L50 50L49 50L49 49L48 49L48 47L49 47L49 46L50 46L50 49L52 49L52 48L51 48L51 46L52 46L52 47L54 47L54 46L53 46L53 45L52 45L52 44L53 44L53 43L52 43L52 42L54 42L54 41L55 41L55 40L54 40L54 39L50 39L50 38L49 38L49 37L51 37L51 38L52 38L52 36L51 36L51 35L53 35L53 37L54 37L54 36L55 36L55 38L56 38L56 36L57 36L57 35L58 35L58 34L57 34L57 35L56 35L56 36L55 36L55 35L54 35L54 34L53 34L53 33ZM61 33L61 36L64 36L64 33ZM1 34L1 36L2 36L2 34ZM6 34L6 35L7 35L7 34ZM34 34L34 35L35 35L35 34ZM62 34L62 35L63 35L63 34ZM3 35L3 39L4 39L4 40L7 40L7 39L4 39L4 35ZM26 35L26 36L27 36L27 35ZM40 35L40 36L41 36L41 35ZM65 35L65 36L66 36L66 35ZM22 36L22 37L23 37L23 36ZM5 37L5 38L7 38L7 37ZM47 37L47 39L48 39L48 37ZM68 39L68 40L69 40L69 39ZM1 40L1 41L0 41L0 42L2 42L2 40ZM36 40L36 42L34 42L34 43L33 43L33 45L34 45L34 44L35 44L35 45L36 45L36 46L37 46L37 44L38 44L38 43L37 43L37 41L38 41L38 40ZM48 40L48 41L49 41L49 42L48 42L48 43L49 43L49 44L52 44L52 43L50 43L50 41L51 41L51 40L50 40L50 41L49 41L49 40ZM53 40L53 41L54 41L54 40ZM16 41L16 43L17 43L17 41ZM31 41L31 42L32 42L32 41ZM45 41L45 42L47 42L47 41ZM68 41L68 44L69 44L69 41ZM3 42L3 44L4 44L4 43L5 43L5 42ZM19 43L19 44L20 44L20 43ZM35 43L35 44L37 44L37 43ZM45 43L45 44L46 44L46 43ZM23 44L23 45L24 45L24 44ZM50 45L50 46L51 46L51 45ZM4 46L4 47L3 47L3 48L2 48L2 47L1 47L1 49L3 49L3 50L4 50L4 49L5 49L5 48L4 48L4 47L5 47L5 46ZM7 46L7 47L6 47L6 48L8 48L8 47L9 47L9 46ZM25 46L25 47L24 47L24 48L23 48L23 50L24 50L24 49L25 49L25 50L26 50L26 52L27 52L27 53L26 53L26 54L24 54L24 53L25 53L25 52L24 52L24 53L23 53L23 54L24 54L24 55L26 55L26 56L25 56L25 57L27 57L27 55L28 55L28 57L30 57L30 56L29 56L29 55L28 55L28 54L27 54L27 53L28 53L28 50L29 50L29 49L30 49L30 48L29 48L29 49L28 49L28 48L27 48L27 47L26 47L26 46ZM28 46L28 47L30 47L30 46ZM60 46L60 48L61 48L61 46ZM14 47L14 48L13 48L13 49L14 49L14 50L13 50L13 51L15 51L15 49L14 49L14 48L15 48L15 47ZM17 47L17 48L18 48L18 47ZM25 47L25 49L26 49L26 50L27 50L27 48L26 48L26 47ZM34 47L34 48L33 48L33 49L31 49L31 50L30 50L30 51L31 51L31 50L32 50L32 51L33 51L33 50L35 50L35 49L34 49L34 48L36 48L36 50L38 50L38 49L37 49L37 48L38 48L38 47ZM46 47L46 48L44 48L44 49L45 49L45 50L44 50L44 51L45 51L45 50L46 50L46 49L47 49L47 47ZM54 48L54 49L56 49L56 48ZM6 49L6 50L7 50L7 49ZM18 49L18 50L19 50L19 49ZM29 52L29 54L30 54L30 52ZM34 52L34 53L35 53L35 52ZM54 52L54 53L56 53L56 52ZM17 53L17 54L19 54L19 53ZM31 53L31 54L32 54L32 55L31 55L31 56L33 56L33 54L32 54L32 53ZM3 54L3 55L4 55L4 54ZM35 54L35 55L37 55L37 54ZM62 54L62 56L63 56L63 54ZM9 55L9 56L10 56L10 55ZM15 55L15 56L18 56L18 55ZM6 57L6 58L7 58L7 57ZM23 57L23 59L24 59L24 57ZM12 58L12 59L13 59L13 60L15 60L15 59L14 59L14 58ZM25 58L25 60L23 60L23 61L26 61L26 62L27 62L27 61L28 61L28 60L29 60L29 58L28 58L28 60L27 60L27 61L26 61L26 59L27 59L27 58ZM37 58L37 60L40 60L40 59L38 59L38 58ZM33 59L33 60L36 60L36 59ZM47 59L47 60L48 60L48 61L47 61L47 62L49 62L49 60L48 60L48 59ZM3 60L3 61L5 61L5 60ZM50 60L50 62L51 62L51 60ZM33 61L33 64L36 64L36 61ZM61 61L61 64L64 64L64 61ZM34 62L34 63L35 63L35 62ZM40 62L40 63L41 63L41 62ZM62 62L62 63L63 63L63 62ZM65 62L65 63L66 63L66 62ZM29 63L29 64L28 64L28 67L30 67L30 66L29 66L29 65L30 65L30 64L31 64L31 63ZM55 63L55 64L54 64L54 65L55 65L55 64L56 64L56 63ZM46 64L46 65L48 65L48 64ZM17 65L17 66L18 66L18 65ZM35 65L35 67L34 67L34 68L35 68L35 67L36 67L36 65ZM65 66L65 67L66 67L66 66ZM54 67L54 68L55 68L55 67ZM10 68L10 69L11 69L11 68ZM12 68L12 69L14 69L14 68ZM0 0L0 7L7 7L7 0ZM1 1L1 6L6 6L6 1ZM2 2L2 5L5 5L5 2ZM62 0L62 7L69 7L69 0ZM63 1L63 6L68 6L68 1ZM64 2L64 5L67 5L67 2ZM0 62L0 69L7 69L7 62ZM1 63L1 68L6 68L6 63ZM2 64L2 67L5 67L5 64Z" fill="#000000"/></g></g></svg>
