<?xml version="1.0" encoding="UTF-8"?>
<svg xmlns="http://www.w3.org/2000/svg" version="1.1" width="300" height="300" viewBox="0 0 300 300"><rect x="0" y="0" width="300" height="300" fill="#ffffff"/><g transform="scale(4.348)"><g transform="translate(0,0)"><path fill-rule="evenodd" d="M8 0L8 2L10 2L10 1L9 1L9 0ZM12 0L12 2L11 2L11 3L9 3L9 4L8 4L8 9L7 9L7 8L5 8L5 9L7 9L7 10L4 10L4 9L3 9L3 8L0 8L0 9L3 9L3 10L0 10L0 11L1 11L1 12L2 12L2 13L0 13L0 14L1 14L1 15L2 15L2 16L0 16L0 17L1 17L1 18L2 18L2 17L3 17L3 19L1 19L1 20L0 20L0 22L2 22L2 24L3 24L3 25L2 25L2 26L1 26L1 25L0 25L0 26L1 26L1 27L2 27L2 28L3 28L3 29L2 29L2 30L1 30L1 31L2 31L2 30L3 30L3 32L1 32L1 33L0 33L0 34L3 34L3 32L4 32L4 37L8 37L8 39L7 39L7 38L6 38L6 39L5 39L5 38L2 38L2 40L0 40L0 45L1 45L1 44L2 44L2 43L1 43L1 41L2 41L2 42L3 42L3 43L4 43L4 42L5 42L5 43L7 43L7 44L4 44L4 45L3 45L3 46L2 46L2 47L1 47L1 46L0 46L0 47L1 47L1 51L0 51L0 55L2 55L2 54L3 54L3 56L2 56L2 59L3 59L3 58L4 58L4 59L8 59L8 60L6 60L6 61L8 61L8 62L10 62L10 63L8 63L8 64L10 64L10 67L9 67L9 66L8 66L8 69L9 69L9 68L10 68L10 67L12 67L12 68L11 68L11 69L13 69L13 67L14 67L14 65L15 65L15 66L16 66L16 67L15 67L15 68L14 68L14 69L15 69L15 68L16 68L16 67L17 67L17 69L19 69L19 66L18 66L18 65L19 65L19 64L18 64L18 63L20 63L20 65L21 65L21 66L20 66L20 67L21 67L21 69L23 69L23 68L22 68L22 67L24 67L24 68L26 68L26 69L27 69L27 68L28 68L28 65L29 65L29 64L28 64L28 63L29 63L29 62L28 62L28 61L29 61L29 59L32 59L32 61L31 61L31 60L30 60L30 62L31 62L31 64L30 64L30 66L31 66L31 68L30 68L30 67L29 67L29 69L31 69L31 68L32 68L32 69L33 69L33 68L34 68L34 69L35 69L35 68L36 68L36 69L39 69L39 68L38 68L38 67L37 67L37 64L38 64L38 65L39 65L39 63L40 63L40 66L39 66L39 67L42 67L42 69L43 69L43 67L44 67L44 65L45 65L45 66L46 66L46 65L45 65L45 62L44 62L44 61L45 61L45 60L44 60L44 59L47 59L47 60L46 60L46 61L47 61L47 60L48 60L48 62L49 62L49 64L48 64L48 65L47 65L47 66L48 66L48 67L46 67L46 68L44 68L44 69L46 69L46 68L48 68L48 69L50 69L50 68L51 68L51 67L54 67L54 68L52 68L52 69L54 69L54 68L56 68L56 69L57 69L57 68L58 68L58 67L59 67L59 69L60 69L60 67L61 67L61 68L62 68L62 69L67 69L67 68L66 68L66 67L69 67L69 66L65 66L65 65L66 65L66 63L67 63L67 65L69 65L69 61L67 61L67 60L66 60L66 59L65 59L65 58L68 58L68 60L69 60L69 58L68 58L68 56L69 56L69 52L68 52L68 49L69 49L69 44L68 44L68 43L69 43L69 41L68 41L68 40L67 40L67 41L68 41L68 43L67 43L67 44L66 44L66 43L65 43L65 42L64 42L64 41L63 41L63 40L62 40L62 39L63 39L63 37L66 37L66 33L65 33L65 32L66 32L66 30L68 30L68 31L69 31L69 29L68 29L68 28L69 28L69 25L67 25L67 24L66 24L66 23L65 23L65 22L66 22L66 21L67 21L67 20L68 20L68 24L69 24L69 20L68 20L68 19L69 19L69 14L68 14L68 13L69 13L69 12L68 12L68 13L67 13L67 12L66 12L66 11L67 11L67 10L68 10L68 11L69 11L69 8L67 8L67 9L65 9L65 8L61 8L61 6L60 6L60 8L61 8L61 10L60 10L60 11L61 11L61 12L64 12L64 15L65 15L65 16L64 16L64 19L65 19L65 20L64 20L64 21L63 21L63 22L62 22L62 21L61 21L61 22L60 22L60 20L62 20L62 17L63 17L63 14L62 14L62 13L61 13L61 14L60 14L60 15L59 15L59 14L58 14L58 13L59 13L59 12L58 12L58 13L57 13L57 11L58 11L58 8L59 8L59 4L58 4L58 3L59 3L59 2L58 2L58 1L61 1L61 0L58 0L58 1L56 1L56 0L54 0L54 1L53 1L53 0L52 0L52 1L53 1L53 2L52 2L52 3L51 3L51 4L48 4L48 0L46 0L46 1L45 1L45 2L46 2L46 1L47 1L47 3L46 3L46 4L45 4L45 5L44 5L44 3L43 3L43 4L42 4L42 3L41 3L41 0L38 0L38 1L37 1L37 2L36 2L36 1L35 1L35 0L32 0L32 1L35 1L35 2L34 2L34 3L33 3L33 4L32 4L32 2L31 2L31 4L30 4L30 3L29 3L29 2L28 2L28 3L29 3L29 4L28 4L28 5L26 5L26 3L24 3L24 2L25 2L25 1L26 1L26 0L24 0L24 2L22 2L22 3L24 3L24 5L26 5L26 7L25 7L25 6L24 6L24 7L23 7L23 6L22 6L22 7L21 7L21 2L20 2L20 1L21 1L21 0L18 0L18 1L17 1L17 0L14 0L14 1L13 1L13 0ZM22 0L22 1L23 1L23 0ZM27 0L27 1L29 1L29 0ZM42 0L42 1L44 1L44 0ZM50 0L50 1L51 1L51 0ZM18 1L18 2L19 2L19 1ZM38 1L38 2L37 2L37 7L38 7L38 8L37 8L37 9L33 9L33 11L32 11L32 12L31 12L31 11L30 11L30 8L29 8L29 9L28 9L28 10L29 10L29 11L27 11L27 10L26 10L26 8L25 8L25 7L24 7L24 8L25 8L25 10L24 10L24 11L25 11L25 10L26 10L26 12L28 12L28 15L26 15L26 14L25 14L25 13L24 13L24 12L23 12L23 13L24 13L24 14L23 14L23 15L24 15L24 16L23 16L23 17L24 17L24 18L23 18L23 19L22 19L22 20L21 20L21 21L20 21L20 23L19 23L19 24L20 24L20 23L21 23L21 25L20 25L20 26L23 26L23 28L25 28L25 29L24 29L24 31L25 31L25 30L27 30L27 33L26 33L26 32L24 32L24 34L23 34L23 33L22 33L22 32L23 32L23 31L21 31L21 29L22 29L22 28L21 28L21 29L20 29L20 31L18 31L18 32L19 32L19 33L18 33L18 34L17 34L17 32L16 32L16 31L17 31L17 30L18 30L18 28L20 28L20 27L19 27L19 25L18 25L18 24L17 24L17 23L18 23L18 22L17 22L17 21L16 21L16 20L18 20L18 19L19 19L19 16L18 16L18 15L19 15L19 13L20 13L20 15L21 15L21 16L22 16L22 12L21 12L21 13L20 13L20 12L19 12L19 13L18 13L18 11L19 11L19 9L18 9L18 6L17 6L17 9L16 9L16 8L15 8L15 7L16 7L16 6L15 6L15 5L13 5L13 3L11 3L11 4L10 4L10 6L9 6L9 9L8 9L8 11L6 11L6 12L8 12L8 13L10 13L10 14L8 14L8 16L7 16L7 15L5 15L5 14L2 14L2 15L3 15L3 17L4 17L4 19L3 19L3 20L2 20L2 22L3 22L3 23L4 23L4 25L3 25L3 26L2 26L2 27L3 27L3 28L4 28L4 29L3 29L3 30L4 30L4 32L5 32L5 31L6 31L6 32L9 32L9 33L12 33L12 34L10 34L10 35L13 35L13 34L14 34L14 36L13 36L13 37L12 37L12 38L13 38L13 41L12 41L12 40L11 40L11 41L10 41L10 39L11 39L11 37L10 37L10 36L9 36L9 38L10 38L10 39L9 39L9 41L10 41L10 44L9 44L9 42L8 42L8 44L7 44L7 45L4 45L4 46L3 46L3 47L6 47L6 48L7 48L7 49L6 49L6 50L5 50L5 48L3 48L3 49L2 49L2 50L3 50L3 49L4 49L4 50L5 50L5 51L4 51L4 52L3 52L3 51L1 51L1 52L2 52L2 53L4 53L4 54L5 54L5 56L7 56L7 57L6 57L6 58L7 58L7 57L8 57L8 56L9 56L9 55L10 55L10 54L11 54L11 53L10 53L10 52L11 52L11 51L13 51L13 50L15 50L15 47L16 47L16 46L17 46L17 48L16 48L16 52L13 52L13 53L12 53L12 54L13 54L13 55L14 55L14 57L15 57L15 56L17 56L17 57L18 57L18 58L16 58L16 59L17 59L17 61L16 61L16 62L14 62L14 63L13 63L13 62L11 62L11 63L13 63L13 64L12 64L12 65L13 65L13 64L14 64L14 63L16 63L16 62L18 62L18 59L19 59L19 58L21 58L21 59L20 59L20 60L19 60L19 61L20 61L20 63L22 63L22 64L21 64L21 65L22 65L22 66L23 66L23 65L24 65L24 66L26 66L26 68L27 68L27 65L28 65L28 64L26 64L26 63L28 63L28 62L27 62L27 61L28 61L28 60L27 60L27 57L28 57L28 58L30 58L30 56L33 56L33 58L32 58L32 57L31 57L31 58L32 58L32 59L33 59L33 60L34 60L34 58L35 58L35 57L34 57L34 55L35 55L35 56L37 56L37 55L38 55L38 54L39 54L39 56L38 56L38 58L40 58L40 60L39 60L39 59L38 59L38 60L37 60L37 59L36 59L36 60L37 60L37 61L38 61L38 62L37 62L37 63L38 63L38 62L40 62L40 60L41 60L41 65L42 65L42 67L43 67L43 65L44 65L44 63L43 63L43 61L44 61L44 60L43 60L43 61L42 61L42 59L41 59L41 58L40 58L40 55L41 55L41 56L42 56L42 58L43 58L43 59L44 59L44 58L45 58L45 57L46 57L46 58L47 58L47 59L48 59L48 58L49 58L49 59L50 59L50 60L49 60L49 61L50 61L50 62L52 62L52 64L49 64L49 65L48 65L48 66L49 66L49 68L50 68L50 66L51 66L51 65L52 65L52 66L53 66L53 65L52 65L52 64L53 64L53 62L52 62L52 60L51 60L51 59L53 59L53 61L54 61L54 62L56 62L56 60L57 60L57 63L55 63L55 64L54 64L54 67L56 67L56 66L57 66L57 65L56 65L56 64L57 64L57 63L58 63L58 66L59 66L59 67L60 67L60 66L61 66L61 65L60 65L60 63L59 63L59 62L60 62L60 61L58 61L58 60L60 60L60 59L62 59L62 60L63 60L63 59L62 59L62 58L60 58L60 57L61 57L61 56L60 56L60 57L58 57L58 54L60 54L60 55L62 55L62 52L60 52L60 53L59 53L59 51L60 51L60 49L62 49L62 50L61 50L61 51L62 51L62 50L63 50L63 51L65 51L65 53L64 53L64 54L63 54L63 56L62 56L62 57L64 57L64 58L65 58L65 57L66 57L66 56L67 56L67 55L68 55L68 54L67 54L67 55L66 55L66 54L65 54L65 53L67 53L67 51L65 51L65 50L66 50L66 49L67 49L67 48L68 48L68 46L67 46L67 45L64 45L64 44L65 44L65 43L64 43L64 42L63 42L63 41L62 41L62 42L61 42L61 40L60 40L60 39L62 39L62 37L61 37L61 38L60 38L60 37L58 37L58 39L56 39L56 36L57 36L57 34L56 34L56 31L57 31L57 30L56 30L56 27L57 27L57 28L58 28L58 32L57 32L57 33L58 33L58 34L59 34L59 35L58 35L58 36L60 36L60 32L62 32L62 31L60 31L60 32L59 32L59 28L58 28L58 26L59 26L59 25L58 25L58 26L57 26L57 25L56 25L56 24L57 24L57 23L59 23L59 24L60 24L60 22L59 22L59 21L58 21L58 22L57 22L57 23L56 23L56 20L57 20L57 19L58 19L58 18L59 18L59 17L58 17L58 16L59 16L59 15L58 15L58 14L56 14L56 16L54 16L54 15L55 15L55 13L56 13L56 12L55 12L55 11L56 11L56 8L55 8L55 7L56 7L56 6L57 6L57 7L58 7L58 4L57 4L57 3L56 3L56 4L55 4L55 2L56 2L56 1L55 1L55 2L54 2L54 4L53 4L53 3L52 3L52 4L51 4L51 7L52 7L52 4L53 4L53 7L54 7L54 8L53 8L53 9L52 9L52 8L50 8L50 6L49 6L49 7L48 7L48 6L47 6L47 7L46 7L46 6L45 6L45 8L47 8L47 9L46 9L46 10L45 10L45 13L46 13L46 14L45 14L45 16L46 16L46 18L45 18L45 17L44 17L44 11L43 11L43 9L44 9L44 8L43 8L43 7L44 7L44 6L43 6L43 7L42 7L42 4L41 4L41 3L40 3L40 2L39 2L39 1ZM15 2L15 4L16 4L16 5L18 5L18 4L19 4L19 7L20 7L20 8L21 8L21 7L20 7L20 3L18 3L18 4L17 4L17 3L16 3L16 2ZM35 2L35 3L34 3L34 4L36 4L36 2ZM38 2L38 3L39 3L39 4L38 4L38 7L39 7L39 8L38 8L38 9L37 9L37 10L36 10L36 11L37 11L37 12L38 12L38 11L41 11L41 10L40 10L40 9L43 9L43 8L40 8L40 7L41 7L41 6L40 6L40 7L39 7L39 5L41 5L41 4L40 4L40 3L39 3L39 2ZM49 2L49 3L50 3L50 2ZM60 3L60 5L61 5L61 3ZM31 4L31 10L32 10L32 4ZM54 4L54 5L55 5L55 6L54 6L54 7L55 7L55 6L56 6L56 5L57 5L57 4L56 4L56 5L55 5L55 4ZM28 5L28 6L27 6L27 8L28 8L28 6L29 6L29 7L30 7L30 6L29 6L29 5ZM33 5L33 8L36 8L36 5ZM10 6L10 9L11 9L11 10L12 10L12 9L15 9L15 8L12 8L12 9L11 9L11 6ZM12 6L12 7L13 7L13 6ZM14 6L14 7L15 7L15 6ZM34 6L34 7L35 7L35 6ZM22 7L22 8L23 8L23 7ZM47 7L47 8L48 8L48 9L47 9L47 10L46 10L46 13L47 13L47 14L46 14L46 16L47 16L47 14L48 14L48 15L49 15L49 16L48 16L48 18L47 18L47 19L48 19L48 21L49 21L49 22L48 22L48 23L47 23L47 22L46 22L46 20L44 20L44 21L43 21L43 20L42 20L42 21L41 21L41 19L40 19L40 18L42 18L42 19L44 19L44 18L42 18L42 17L43 17L43 14L42 14L42 12L43 12L43 11L42 11L42 12L40 12L40 14L39 14L39 15L40 15L40 17L39 17L39 16L38 16L38 13L35 13L35 12L34 12L34 11L35 11L35 10L34 10L34 11L33 11L33 12L32 12L32 15L31 15L31 12L30 12L30 18L29 18L29 20L30 20L30 21L29 21L29 22L28 22L28 21L27 21L27 19L26 19L26 21L25 21L25 22L24 22L24 19L23 19L23 20L22 20L22 21L23 21L23 22L24 22L24 25L25 25L25 24L26 24L26 29L27 29L27 30L28 30L28 32L30 32L30 34L28 34L28 35L27 35L27 34L25 34L25 35L24 35L24 36L25 36L25 35L26 35L26 37L27 37L27 39L26 39L26 38L24 38L24 37L23 37L23 36L22 36L22 35L21 35L21 34L22 34L22 33L21 33L21 32L20 32L20 33L21 33L21 34L20 34L20 35L21 35L21 36L22 36L22 38L21 38L21 39L20 39L20 37L19 37L19 36L18 36L18 35L19 35L19 34L18 34L18 35L17 35L17 34L16 34L16 32L14 32L14 34L15 34L15 37L14 37L14 38L16 38L16 41L17 41L17 42L16 42L16 43L18 43L18 45L19 45L19 46L20 46L20 47L18 47L18 48L19 48L19 50L17 50L17 52L18 52L18 53L17 53L17 54L16 54L16 53L13 53L13 54L14 54L14 55L17 55L17 54L18 54L18 57L19 57L19 55L21 55L21 54L20 54L20 53L21 53L21 51L22 51L22 53L23 53L23 54L24 54L24 57L25 57L25 58L24 58L24 59L25 59L25 60L26 60L26 61L27 61L27 60L26 60L26 59L25 59L25 58L26 58L26 57L27 57L27 56L26 56L26 57L25 57L25 54L26 54L26 53L27 53L27 54L28 54L28 55L29 55L29 56L28 56L28 57L29 57L29 56L30 56L30 54L31 54L31 55L32 55L32 54L34 54L34 53L35 53L35 54L36 54L36 53L37 53L37 54L38 54L38 52L39 52L39 53L41 53L41 54L42 54L42 51L43 51L43 50L42 50L42 49L43 49L43 48L44 48L44 50L45 50L45 51L46 51L46 49L47 49L47 48L48 48L48 50L47 50L47 51L48 51L48 54L46 54L46 53L47 53L47 52L44 52L44 53L45 53L45 54L44 54L44 55L42 55L42 56L44 56L44 57L45 57L45 54L46 54L46 55L48 55L48 57L47 57L47 58L48 58L48 57L49 57L49 58L50 58L50 59L51 59L51 58L50 58L50 57L51 57L51 56L50 56L50 57L49 57L49 55L51 55L51 54L53 54L53 56L52 56L52 58L53 58L53 59L54 59L54 53L55 53L55 52L56 52L56 53L57 53L57 54L56 54L56 57L57 57L57 59L58 59L58 57L57 57L57 54L58 54L58 52L56 52L56 51L57 51L57 50L58 50L58 51L59 51L59 50L58 50L58 49L60 49L60 48L61 48L61 46L62 46L62 48L63 48L63 50L64 50L64 49L66 49L66 47L67 47L67 46L64 46L64 45L62 45L62 44L63 44L63 42L62 42L62 44L61 44L61 42L60 42L60 43L59 43L59 42L58 42L58 40L56 40L56 39L55 39L55 40L56 40L56 41L57 41L57 42L56 42L56 46L55 46L55 47L56 47L56 46L57 46L57 47L58 47L58 48L56 48L56 49L55 49L55 48L54 48L54 47L53 47L53 46L52 46L52 45L54 45L54 44L55 44L55 42L54 42L54 41L53 41L53 40L52 40L52 39L54 39L54 37L55 37L55 36L56 36L56 34L54 34L54 32L55 32L55 31L56 31L56 30L54 30L54 29L55 29L55 28L54 28L54 27L53 27L53 28L52 28L52 26L51 26L51 28L50 28L50 27L49 27L49 25L50 25L50 23L52 23L52 25L53 25L53 23L54 23L54 25L55 25L55 24L56 24L56 23L55 23L55 22L54 22L54 21L53 21L53 20L55 20L55 19L56 19L56 18L58 18L58 17L57 17L57 16L58 16L58 15L57 15L57 16L56 16L56 17L55 17L55 18L54 18L54 16L52 16L52 15L53 15L53 14L52 14L52 13L54 13L54 11L55 11L55 10L54 10L54 9L55 9L55 8L54 8L54 9L53 9L53 10L52 10L52 13L51 13L51 14L50 14L50 12L51 12L51 10L50 10L50 8L48 8L48 7ZM39 8L39 9L38 9L38 10L39 10L39 9L40 9L40 8ZM20 9L20 11L21 11L21 9ZM22 9L22 11L23 11L23 9ZM48 9L48 11L47 11L47 13L48 13L48 12L50 12L50 11L49 11L49 9ZM62 9L62 10L63 10L63 11L66 11L66 10L64 10L64 9ZM9 10L9 11L10 11L10 10ZM14 10L14 11L12 11L12 12L10 12L10 13L11 13L11 14L10 14L10 16L9 16L9 17L7 17L7 16L5 16L5 15L4 15L4 17L7 17L7 18L6 18L6 19L4 19L4 20L3 20L3 22L5 22L5 23L7 23L7 24L5 24L5 26L3 26L3 27L4 27L4 28L5 28L5 27L7 27L7 28L6 28L6 29L7 29L7 28L8 28L8 29L9 29L9 31L10 31L10 32L12 32L12 31L14 31L14 30L15 30L15 31L16 31L16 28L18 28L18 27L16 27L16 26L18 26L18 25L17 25L17 24L16 24L16 23L15 23L15 22L16 22L16 21L15 21L15 20L16 20L16 18L15 18L15 19L14 19L14 18L13 18L13 19L12 19L12 18L11 18L11 17L13 17L13 16L11 16L11 15L12 15L12 13L13 13L13 14L14 14L14 13L13 13L13 12L14 12L14 11L15 11L15 14L17 14L17 13L16 13L16 12L17 12L17 11L18 11L18 10ZM53 10L53 11L54 11L54 10ZM2 11L2 12L3 12L3 13L4 13L4 11ZM6 13L6 14L7 14L7 13ZM33 13L33 15L32 15L32 16L33 16L33 15L34 15L34 16L35 16L35 13ZM65 13L65 15L66 15L66 16L68 16L68 14L67 14L67 15L66 15L66 13ZM40 14L40 15L41 15L41 16L42 16L42 14ZM51 14L51 15L52 15L52 14ZM61 14L61 15L60 15L60 16L61 16L61 17L60 17L60 18L61 18L61 17L62 17L62 14ZM14 15L14 17L15 17L15 15ZM25 15L25 18L28 18L28 17L29 17L29 16L26 16L26 15ZM10 16L10 17L11 17L11 16ZM16 16L16 17L17 17L17 16ZM36 16L36 17L38 17L38 19L39 19L39 17L38 17L38 16ZM49 16L49 17L50 17L50 18L49 18L49 20L50 20L50 22L49 22L49 23L50 23L50 22L52 22L52 23L53 23L53 21L52 21L52 18L53 18L53 17L52 17L52 16ZM31 17L31 18L30 18L30 20L31 20L31 18L32 18L32 20L33 20L33 18L34 18L34 20L35 20L35 21L34 21L34 22L33 22L33 23L32 23L32 21L31 21L31 22L30 22L30 24L28 24L28 22L27 22L27 21L26 21L26 22L25 22L25 23L26 23L26 24L27 24L27 25L28 25L28 27L27 27L27 29L28 29L28 30L29 30L29 29L30 29L30 30L31 30L31 31L32 31L32 32L35 32L35 31L36 31L36 32L37 32L37 35L39 35L39 33L40 33L40 36L39 36L39 37L38 37L38 38L37 38L37 39L36 39L36 41L35 41L35 43L34 43L34 39L35 39L35 38L34 38L34 39L33 39L33 42L32 42L32 43L34 43L34 44L33 44L33 46L32 46L32 47L33 47L33 46L35 46L35 45L34 45L34 44L35 44L35 43L36 43L36 45L37 45L37 43L36 43L36 42L37 42L37 41L38 41L38 42L39 42L39 43L38 43L38 46L36 46L36 48L35 48L35 50L36 50L36 48L37 48L37 49L38 49L38 50L40 50L40 51L41 51L41 49L40 49L40 48L41 48L41 47L42 47L42 46L43 46L43 45L44 45L44 48L45 48L45 49L46 49L46 48L47 48L47 47L45 47L45 45L44 45L44 44L45 44L45 43L48 43L48 44L46 44L46 46L48 46L48 48L49 48L49 47L50 47L50 50L51 50L51 49L52 49L52 48L53 48L53 47L51 47L51 45L52 45L52 43L53 43L53 42L52 42L52 40L51 40L51 39L52 39L52 38L53 38L53 37L52 37L52 34L53 34L53 35L54 35L54 36L55 36L55 35L54 35L54 34L53 34L53 33L52 33L52 31L50 31L50 32L49 32L49 31L48 31L48 32L47 32L47 29L48 29L48 30L49 30L49 29L48 29L48 28L46 28L46 27L44 27L44 28L43 28L43 27L41 27L41 25L42 25L42 26L44 26L44 25L42 25L42 24L43 24L43 23L42 23L42 22L43 22L43 21L42 21L42 22L41 22L41 23L40 23L40 21L38 21L38 23L40 23L40 24L38 24L38 26L37 26L37 25L35 25L35 26L33 26L33 25L34 25L34 24L35 24L35 23L36 23L36 24L37 24L37 23L36 23L36 22L37 22L37 20L36 20L36 19L35 19L35 18L34 18L34 17ZM66 17L66 20L67 20L67 19L68 19L68 18L67 18L67 17ZM7 18L7 19L6 19L6 20L5 20L5 21L6 21L6 22L10 22L10 21L11 21L11 20L12 20L12 22L11 22L11 23L14 23L14 24L13 24L13 25L12 25L12 24L11 24L11 25L9 25L9 24L10 24L10 23L8 23L8 25L6 25L6 26L9 26L9 27L8 27L8 28L9 28L9 29L10 29L10 30L11 30L11 29L12 29L12 30L14 30L14 29L12 29L12 28L13 28L13 26L14 26L14 28L15 28L15 26L14 26L14 25L15 25L15 23L14 23L14 19L13 19L13 20L12 20L12 19L9 19L9 20L8 20L8 18ZM17 18L17 19L18 19L18 18ZM20 18L20 19L21 19L21 18ZM50 18L50 19L51 19L51 18ZM59 19L59 20L60 20L60 19ZM6 20L6 21L8 21L8 20ZM9 20L9 21L10 21L10 20ZM35 21L35 22L36 22L36 21ZM26 22L26 23L27 23L27 22ZM44 22L44 23L45 23L45 25L46 25L46 26L47 26L47 23L45 23L45 22ZM61 22L61 23L62 23L62 22ZM63 22L63 24L62 24L62 26L63 26L63 25L64 25L64 22ZM0 23L0 24L1 24L1 23ZM22 23L22 24L23 24L23 23ZM31 23L31 24L30 24L30 25L31 25L31 27L30 27L30 29L31 29L31 28L32 28L32 25L33 25L33 24L34 24L34 23L33 23L33 24L32 24L32 23ZM41 23L41 24L40 24L40 25L39 25L39 26L38 26L38 28L37 28L37 29L36 29L36 27L37 27L37 26L36 26L36 27L35 27L35 29L34 29L34 27L33 27L33 29L34 29L34 30L32 30L32 31L34 31L34 30L35 30L35 29L36 29L36 31L37 31L37 30L38 30L38 31L40 31L40 33L41 33L41 35L42 35L42 36L40 36L40 37L39 37L39 38L38 38L38 39L37 39L37 40L38 40L38 41L39 41L39 42L42 42L42 41L43 41L43 42L44 42L44 43L42 43L42 44L41 44L41 43L40 43L40 47L39 47L39 48L38 48L38 49L39 49L39 48L40 48L40 47L41 47L41 46L42 46L42 44L44 44L44 43L45 43L45 42L46 42L46 41L47 41L47 39L46 39L46 41L45 41L45 39L44 39L44 38L45 38L45 36L46 36L46 37L47 37L47 38L48 38L48 42L49 42L49 44L48 44L48 46L50 46L50 45L51 45L51 43L50 43L50 41L51 41L51 40L50 40L50 39L49 39L49 38L48 38L48 37L49 37L49 36L48 36L48 37L47 37L47 35L46 35L46 33L47 33L47 32L46 32L46 28L44 28L44 29L43 29L43 28L42 28L42 29L41 29L41 28L40 28L40 25L41 25L41 24L42 24L42 23ZM65 24L65 25L66 25L66 24ZM11 25L11 26L12 26L12 25ZM60 25L60 27L61 27L61 25ZM24 26L24 27L25 27L25 26ZM55 26L55 27L56 27L56 26ZM65 26L65 27L62 27L62 28L61 28L61 29L60 29L60 30L61 30L61 29L62 29L62 30L64 30L64 31L65 31L65 30L66 30L66 29L67 29L67 27L66 27L66 26ZM11 27L11 28L10 28L10 29L11 29L11 28L12 28L12 27ZM0 28L0 29L1 29L1 28ZM38 28L38 30L39 30L39 29L40 29L40 28ZM51 28L51 29L50 29L50 30L51 30L51 29L52 29L52 30L53 30L53 29L54 29L54 28L53 28L53 29L52 29L52 28ZM64 28L64 29L65 29L65 28ZM42 29L42 30L40 30L40 31L42 31L42 35L43 35L43 37L42 37L42 38L41 38L41 39L42 39L42 38L44 38L44 35L45 35L45 34L44 34L44 30L43 30L43 29ZM6 30L6 31L8 31L8 30ZM38 32L38 33L39 33L39 32ZM48 32L48 33L49 33L49 34L48 34L48 35L50 35L50 37L51 37L51 34L50 34L50 33L49 33L49 32ZM67 32L67 33L68 33L68 35L69 35L69 33L68 33L68 32ZM5 33L5 36L8 36L8 33ZM33 33L33 36L36 36L36 33ZM61 33L61 36L64 36L64 33ZM6 34L6 35L7 35L7 34ZM31 34L31 37L30 37L30 36L29 36L29 35L28 35L28 36L27 36L27 37L28 37L28 38L30 38L30 40L28 40L28 39L27 39L27 42L26 42L26 40L25 40L25 39L24 39L24 40L25 40L25 42L24 42L24 43L25 43L25 42L26 42L26 44L25 44L25 45L24 45L24 46L23 46L23 45L22 45L22 44L23 44L23 41L22 41L22 43L21 43L21 40L19 40L19 41L20 41L20 43L19 43L19 42L18 42L18 43L19 43L19 45L20 45L20 46L21 46L21 45L22 45L22 47L20 47L20 48L21 48L21 50L20 50L20 51L21 51L21 50L22 50L22 51L24 51L24 52L23 52L23 53L24 53L24 54L25 54L25 53L26 53L26 52L28 52L28 54L30 54L30 52L33 52L33 53L34 53L34 52L35 52L35 51L31 51L31 50L30 50L30 47L31 47L31 46L30 46L30 47L29 47L29 45L30 45L30 43L29 43L29 45L28 45L28 42L30 42L30 40L32 40L32 39L31 39L31 38L32 38L32 34ZM34 34L34 35L35 35L35 34ZM43 34L43 35L44 35L44 34ZM62 34L62 35L63 35L63 34ZM0 35L0 36L1 36L1 37L3 37L3 36L1 36L1 35ZM16 36L16 38L17 38L17 37L18 37L18 39L17 39L17 40L18 40L18 39L19 39L19 37L18 37L18 36ZM28 36L28 37L29 37L29 36ZM68 36L68 37L69 37L69 36ZM59 38L59 39L60 39L60 38ZM64 38L64 40L65 40L65 41L66 41L66 38ZM68 38L68 39L69 39L69 38ZM6 39L6 40L5 40L5 42L7 42L7 41L6 41L6 40L7 40L7 39ZM22 39L22 40L23 40L23 39ZM38 39L38 40L39 40L39 41L40 41L40 39ZM43 39L43 41L44 41L44 39ZM3 40L3 41L4 41L4 40ZM49 40L49 41L50 41L50 40ZM59 40L59 41L60 41L60 40ZM11 41L11 43L12 43L12 44L10 44L10 45L14 45L14 44L15 44L15 41L13 41L13 42L12 42L12 41ZM13 42L13 43L14 43L14 42ZM57 42L57 44L58 44L58 46L61 46L61 44L60 44L60 45L59 45L59 44L58 44L58 42ZM8 44L8 45L9 45L9 44ZM26 44L26 47L27 47L27 48L25 48L25 47L24 47L24 48L23 48L23 47L22 47L22 49L23 49L23 50L24 50L24 51L25 51L25 52L26 52L26 51L25 51L25 50L24 50L24 48L25 48L25 49L28 49L28 47L27 47L27 46L28 46L28 45L27 45L27 44ZM49 44L49 45L50 45L50 44ZM15 45L15 46L16 46L16 45ZM6 46L6 47L9 47L9 48L10 48L10 50L9 50L9 49L7 49L7 50L6 50L6 51L7 51L7 52L6 52L6 53L5 53L5 54L6 54L6 55L7 55L7 56L8 56L8 55L7 55L7 54L6 54L6 53L7 53L7 52L8 52L8 53L9 53L9 54L10 54L10 53L9 53L9 52L10 52L10 50L13 50L13 49L14 49L14 46L10 46L10 47L9 47L9 46ZM10 47L10 48L11 48L11 49L13 49L13 47ZM59 47L59 48L60 48L60 47ZM63 47L63 48L65 48L65 47ZM32 48L32 49L33 49L33 50L34 50L34 48ZM54 49L54 50L55 50L55 51L54 51L54 52L55 52L55 51L56 51L56 50L57 50L57 49L56 49L56 50L55 50L55 49ZM7 50L7 51L8 51L8 52L9 52L9 51L8 51L8 50ZM28 50L28 51L29 51L29 52L30 52L30 50ZM48 50L48 51L49 51L49 53L50 53L50 54L51 54L51 53L52 53L52 52L53 52L53 51L49 51L49 50ZM36 51L36 52L38 52L38 51ZM50 52L50 53L51 53L51 52ZM18 53L18 54L19 54L19 53ZM60 53L60 54L61 54L61 53ZM64 54L64 57L65 57L65 56L66 56L66 55L65 55L65 54ZM11 55L11 56L10 56L10 57L9 57L9 59L10 59L10 58L11 58L11 56L12 56L12 55ZM22 55L22 56L23 56L23 55ZM0 56L0 57L1 57L1 56ZM3 56L3 57L4 57L4 56ZM36 57L36 58L37 58L37 57ZM0 58L0 61L1 61L1 58ZM12 58L12 59L11 59L11 60L10 60L10 61L12 61L12 60L13 60L13 61L14 61L14 59L15 59L15 58L14 58L14 59L13 59L13 58ZM22 58L22 59L21 59L21 60L20 60L20 61L21 61L21 60L22 60L22 63L24 63L24 65L25 65L25 63L24 63L24 60L22 60L22 59L23 59L23 58ZM59 58L59 59L60 59L60 58ZM55 59L55 60L54 60L54 61L55 61L55 60L56 60L56 59ZM64 59L64 60L65 60L65 61L66 61L66 62L67 62L67 61L66 61L66 60L65 60L65 59ZM3 60L3 61L5 61L5 60ZM38 60L38 61L39 61L39 60ZM33 61L33 64L36 64L36 61ZM61 61L61 64L64 64L64 61ZM34 62L34 63L35 63L35 62ZM62 62L62 63L63 63L63 62ZM42 63L42 65L43 65L43 63ZM46 63L46 64L47 64L47 63ZM15 64L15 65L16 65L16 66L17 66L17 67L18 67L18 66L17 66L17 65L16 65L16 64ZM22 64L22 65L23 65L23 64ZM32 65L32 67L36 67L36 68L37 68L37 67L36 67L36 65L34 65L34 66L33 66L33 65ZM49 65L49 66L50 66L50 65ZM55 65L55 66L56 66L56 65ZM62 65L62 66L63 66L63 65ZM12 66L12 67L13 67L13 66ZM62 67L62 68L64 68L64 67ZM40 68L40 69L41 69L41 68ZM68 68L68 69L69 69L69 68ZM0 0L0 7L7 7L7 0ZM1 1L1 6L6 6L6 1ZM2 2L2 5L5 5L5 2ZM62 0L62 7L69 7L69 0ZM63 1L63 6L68 6L68 1ZM64 2L64 5L67 5L67 2ZM0 62L0 69L7 69L7 62ZM1 63L1 68L6 68L6 63ZM2 64L2 67L5 67L5 64Z" fill="#000000"/></g></g></svg>
