<?xml version="1.0" encoding="UTF-8"?>
<svg xmlns="http://www.w3.org/2000/svg" version="1.1" width="300" height="300" viewBox="0 0 300 300"><rect x="0" y="0" width="300" height="300" fill="#ffffff"/><g transform="scale(4.348)"><g transform="translate(0,0)"><path fill-rule="evenodd" d="M9 0L9 1L8 1L8 2L9 2L9 3L8 3L8 4L9 4L9 5L8 5L8 7L9 7L9 6L10 6L10 8L6 8L6 9L8 9L8 10L11 10L11 14L10 14L10 16L8 16L8 17L7 17L7 16L6 16L6 17L4 17L4 19L3 19L3 18L1 18L1 17L3 17L3 16L2 16L2 15L0 15L0 16L1 16L1 17L0 17L0 18L1 18L1 19L0 19L0 20L1 20L1 21L0 21L0 26L1 26L1 25L2 25L2 28L4 28L4 29L5 29L5 30L6 30L6 31L4 31L4 30L3 30L3 29L2 29L2 30L1 30L1 27L0 27L0 30L1 30L1 31L2 31L2 33L1 33L1 32L0 32L0 33L1 33L1 35L0 35L0 39L2 39L2 40L1 40L1 41L2 41L2 42L0 42L0 48L2 48L2 49L1 49L1 51L0 51L0 55L1 55L1 54L2 54L2 55L3 55L3 56L4 56L4 55L3 55L3 54L4 54L4 52L3 52L3 51L5 51L5 52L6 52L6 53L5 53L5 54L6 54L6 55L5 55L5 58L4 58L4 59L7 59L7 60L6 60L6 61L8 61L8 63L9 63L9 64L8 64L8 69L10 69L10 68L11 68L11 69L12 69L12 68L11 68L11 67L12 67L12 66L13 66L13 67L14 67L14 68L15 68L15 69L16 69L16 68L15 68L15 67L17 67L17 66L19 66L19 67L20 67L20 66L19 66L19 65L20 65L20 63L22 63L22 61L21 61L21 62L20 62L20 61L19 61L19 60L20 60L20 57L21 57L21 58L22 58L22 59L21 59L21 60L23 60L23 61L24 61L24 62L23 62L23 65L21 65L21 68L20 68L20 69L21 69L21 68L23 68L23 69L24 69L24 68L23 68L23 67L22 67L22 66L24 66L24 67L25 67L25 68L26 68L26 67L28 67L28 68L27 68L27 69L28 69L28 68L29 68L29 69L32 69L32 68L31 68L31 67L33 67L33 65L37 65L37 66L34 66L34 67L35 67L35 68L34 68L34 69L35 69L35 68L36 68L36 69L38 69L38 68L37 68L37 66L38 66L38 67L39 67L39 66L38 66L38 65L39 65L39 64L41 64L41 66L40 66L40 67L41 67L41 66L44 66L44 68L43 68L43 67L42 67L42 68L41 68L41 69L42 69L42 68L43 68L43 69L44 69L44 68L47 68L47 69L49 69L49 68L48 68L48 67L47 67L47 66L46 66L46 64L45 64L45 63L46 63L46 62L44 62L44 60L43 60L43 57L44 57L44 56L46 56L46 57L47 57L47 59L48 59L48 58L50 58L50 56L51 56L51 55L49 55L49 54L50 54L50 53L49 53L49 52L50 52L50 51L48 51L48 52L47 52L47 51L46 51L46 52L45 52L45 49L46 49L46 46L45 46L45 45L47 45L47 46L49 46L49 47L51 47L51 48L50 48L50 49L49 49L49 48L47 48L47 49L49 49L49 50L50 50L50 49L51 49L51 50L52 50L52 49L51 49L51 48L53 48L53 46L55 46L55 49L53 49L53 51L51 51L51 52L53 52L53 54L52 54L52 55L53 55L53 57L51 57L51 58L52 58L52 59L51 59L51 60L52 60L52 59L53 59L53 60L54 60L54 58L55 58L55 57L56 57L56 58L57 58L57 57L58 57L58 56L60 56L60 58L59 58L59 59L57 59L57 60L58 60L58 61L57 61L57 62L58 62L58 63L55 63L55 61L56 61L56 60L55 60L55 61L51 61L51 64L50 64L50 63L47 63L47 65L48 65L48 66L50 66L50 65L51 65L51 67L50 67L50 69L51 69L51 68L52 68L52 65L51 65L51 64L54 64L54 65L53 65L53 66L56 66L56 65L55 65L55 64L60 64L60 66L58 66L58 68L59 68L59 67L60 67L60 68L62 68L62 67L61 67L61 66L62 66L62 65L65 65L65 64L67 64L67 65L66 65L66 67L65 67L65 68L64 68L64 67L63 67L63 68L64 68L64 69L65 69L65 68L67 68L67 69L68 69L68 68L67 68L67 65L69 65L69 63L68 63L68 57L69 57L69 56L68 56L68 54L69 54L69 53L66 53L66 52L68 52L68 50L69 50L69 49L68 49L68 48L67 48L67 47L68 47L68 45L67 45L67 43L68 43L68 44L69 44L69 43L68 43L68 41L69 41L69 40L68 40L68 38L67 38L67 37L68 37L68 36L69 36L69 35L68 35L68 34L69 34L69 33L68 33L68 32L69 32L69 31L68 31L68 25L69 25L69 23L68 23L68 18L69 18L69 16L68 16L68 17L67 17L67 15L68 15L68 12L69 12L69 11L68 11L68 10L69 10L69 9L68 9L68 8L67 8L67 9L66 9L66 8L65 8L65 9L64 9L64 8L63 8L63 11L62 11L62 8L61 8L61 6L60 6L60 7L59 7L59 4L57 4L57 5L56 5L56 4L53 4L53 5L51 5L51 6L50 6L50 7L51 7L51 6L52 6L52 8L49 8L49 6L48 6L48 7L47 7L47 6L46 6L46 5L44 5L44 3L45 3L45 4L46 4L46 3L45 3L45 2L47 2L47 1L45 1L45 0L44 0L44 1L45 1L45 2L44 2L44 3L43 3L43 0L41 0L41 1L36 1L36 0L33 0L33 2L32 2L32 1L31 1L31 2L32 2L32 3L29 3L29 1L30 1L30 0L28 0L28 1L25 1L25 0L23 0L23 1L21 1L21 2L24 2L24 1L25 1L25 4L22 4L22 5L20 5L20 4L21 4L21 3L20 3L20 4L19 4L19 3L18 3L18 2L20 2L20 1L19 1L19 0L17 0L17 3L14 3L14 2L16 2L16 0ZM49 0L49 1L50 1L50 2L48 2L48 3L47 3L47 4L49 4L49 5L50 5L50 4L49 4L49 3L50 3L50 2L51 2L51 3L52 3L52 2L51 2L51 1L52 1L52 0L51 0L51 1L50 1L50 0ZM53 0L53 2L54 2L54 1L56 1L56 2L55 2L55 3L59 3L59 2L58 2L58 1L61 1L61 0L57 0L57 1L56 1L56 0ZM11 1L11 2L10 2L10 4L11 4L11 2L12 2L12 1ZM35 1L35 2L33 2L33 3L32 3L32 4L35 4L35 2L36 2L36 1ZM41 1L41 3L39 3L39 2L37 2L37 3L38 3L38 4L37 4L37 5L38 5L38 6L37 6L37 7L38 7L38 8L37 8L37 9L38 9L38 10L36 10L36 9L34 9L34 10L33 10L33 9L32 9L32 8L31 8L31 7L32 7L32 5L31 5L31 4L29 4L29 3L28 3L28 2L27 2L27 3L26 3L26 4L25 4L25 8L26 8L26 9L24 9L24 8L23 8L23 7L24 7L24 5L22 5L22 6L21 6L21 7L20 7L20 5L19 5L19 4L18 4L18 5L17 5L17 9L18 9L18 10L17 10L17 11L18 11L18 12L20 12L20 14L18 14L18 13L17 13L17 14L16 14L16 13L15 13L15 12L16 12L16 11L15 11L15 9L13 9L13 7L14 7L14 6L15 6L15 7L16 7L16 4L13 4L13 3L12 3L12 6L11 6L11 5L10 5L10 6L11 6L11 8L10 8L10 9L13 9L13 10L12 10L12 11L14 11L14 12L13 12L13 13L12 13L12 14L11 14L11 16L10 16L10 17L11 17L11 18L14 18L14 21L13 21L13 19L11 19L11 20L8 20L8 18L9 18L9 19L10 19L10 18L9 18L9 17L8 17L8 18L7 18L7 17L6 17L6 18L7 18L7 19L6 19L6 20L8 20L8 21L6 21L6 22L9 22L9 23L6 23L6 24L4 24L4 23L5 23L5 22L3 22L3 24L2 24L2 23L1 23L1 24L2 24L2 25L3 25L3 24L4 24L4 26L7 26L7 27L6 27L6 28L7 28L7 29L6 29L6 30L7 30L7 31L6 31L6 32L7 32L7 31L8 31L8 32L10 32L10 33L13 33L13 32L14 32L14 34L13 34L13 35L15 35L15 33L16 33L16 35L17 35L17 33L18 33L18 32L17 32L17 31L18 31L18 30L17 30L17 28L16 28L16 27L14 27L14 30L17 30L17 31L16 31L16 32L14 32L14 31L13 31L13 28L12 28L12 27L11 27L11 26L10 26L10 23L12 23L12 24L11 24L11 25L12 25L12 26L13 26L13 25L12 25L12 24L13 24L13 23L14 23L14 25L15 25L15 26L16 26L16 25L17 25L17 26L18 26L18 27L19 27L19 29L20 29L20 30L22 30L22 29L23 29L23 28L24 28L24 27L22 27L22 26L24 26L24 25L22 25L22 24L21 24L21 23L22 23L22 22L23 22L23 21L25 21L25 19L24 19L24 18L23 18L23 20L20 20L20 22L19 22L19 23L18 23L18 21L17 21L17 20L18 20L18 19L17 19L17 18L18 18L18 17L24 17L24 16L19 16L19 15L20 15L20 14L21 14L21 13L22 13L22 14L23 14L23 13L24 13L24 12L25 12L25 11L26 11L26 13L27 13L27 14L24 14L24 15L26 15L26 16L25 16L25 17L26 17L26 21L27 21L27 22L26 22L26 23L25 23L25 22L24 22L24 23L23 23L23 24L24 24L24 23L25 23L25 24L26 24L26 25L25 25L25 26L26 26L26 27L27 27L27 28L26 28L26 29L25 29L25 30L23 30L23 31L24 31L24 32L21 32L21 31L19 31L19 32L20 32L20 33L19 33L19 34L18 34L18 35L19 35L19 36L20 36L20 38L18 38L18 37L17 37L17 36L16 36L16 37L15 37L15 36L14 36L14 38L18 38L18 39L12 39L12 40L11 40L11 39L10 39L10 40L8 40L8 39L6 39L6 38L7 38L7 37L5 37L5 39L3 39L3 38L4 38L4 37L3 37L3 36L2 36L2 35L1 35L1 36L2 36L2 37L3 37L3 38L2 38L2 39L3 39L3 40L2 40L2 41L3 41L3 40L4 40L4 42L3 42L3 44L4 44L4 45L5 45L5 44L7 44L7 43L5 43L5 44L4 44L4 42L8 42L8 45L6 45L6 46L5 46L5 47L3 47L3 46L2 46L2 45L1 45L1 46L2 46L2 48L3 48L3 49L2 49L2 51L3 51L3 50L7 50L7 51L6 51L6 52L8 52L8 53L6 53L6 54L7 54L7 55L6 55L6 56L7 56L7 57L6 57L6 58L7 58L7 57L8 57L8 60L9 60L9 63L10 63L10 62L11 62L11 64L10 64L10 65L11 65L11 66L12 66L12 63L13 63L13 65L14 65L14 67L15 67L15 66L17 66L17 65L18 65L18 64L17 64L17 63L18 63L18 62L19 62L19 61L18 61L18 60L16 60L16 59L15 59L15 58L16 58L16 57L17 57L17 56L19 56L19 57L20 57L20 55L18 55L18 54L19 54L19 53L20 53L20 54L21 54L21 55L22 55L22 54L23 54L23 56L24 56L24 55L25 55L25 56L26 56L26 58L25 58L25 60L24 60L24 59L23 59L23 60L24 60L24 61L25 61L25 62L27 62L27 64L28 64L28 65L25 65L25 67L26 67L26 66L28 66L28 65L29 65L29 64L30 64L30 63L32 63L32 60L33 60L33 58L32 58L32 57L35 57L35 59L39 59L39 57L41 57L41 56L39 56L39 55L41 55L41 53L43 53L43 56L42 56L42 57L43 57L43 56L44 56L44 53L45 53L45 54L46 54L46 56L48 56L48 54L47 54L47 53L45 53L45 52L44 52L44 51L42 51L42 50L41 50L41 49L42 49L42 48L43 48L43 46L42 46L42 45L41 45L41 46L42 46L42 48L41 48L41 47L40 47L40 46L39 46L39 45L40 45L40 44L41 44L41 43L40 43L40 41L41 41L41 40L44 40L44 42L43 42L43 44L44 44L44 45L45 45L45 43L46 43L46 44L47 44L47 43L46 43L46 42L47 42L47 40L50 40L50 42L49 42L49 41L48 41L48 42L49 42L49 43L48 43L48 44L50 44L50 45L49 45L49 46L51 46L51 47L52 47L52 46L51 46L51 45L53 45L53 44L50 44L50 43L51 43L51 41L53 41L53 42L52 42L52 43L53 43L53 42L54 42L54 44L56 44L56 45L55 45L55 46L56 46L56 45L57 45L57 46L59 46L59 47L58 47L58 50L56 50L56 49L57 49L57 48L56 48L56 49L55 49L55 51L57 51L57 52L55 52L55 53L57 53L57 54L54 54L54 55L55 55L55 56L56 56L56 57L57 57L57 56L56 56L56 55L57 55L57 54L60 54L60 52L61 52L61 54L62 54L62 56L61 56L61 55L60 55L60 56L61 56L61 58L62 58L62 59L60 59L60 60L59 60L59 61L58 61L58 62L59 62L59 63L60 63L60 60L62 60L62 59L63 59L63 58L65 58L65 59L64 59L64 60L66 60L66 61L67 61L67 60L66 60L66 59L67 59L67 56L63 56L63 55L67 55L67 54L66 54L66 53L65 53L65 52L66 52L66 50L67 50L67 48L65 48L65 47L66 47L66 44L64 44L64 45L63 45L63 44L62 44L62 43L66 43L66 41L68 41L68 40L66 40L66 39L67 39L67 38L66 38L66 37L67 37L67 36L68 36L68 35L67 35L67 34L68 34L68 33L67 33L67 32L68 32L68 31L67 31L67 28L66 28L66 27L65 27L65 28L63 28L63 29L62 29L62 27L61 27L61 28L60 28L60 26L59 26L59 25L58 25L58 24L60 24L60 23L59 23L59 21L60 21L60 20L59 20L59 19L62 19L62 24L61 24L61 26L63 26L63 27L64 27L64 26L63 26L63 25L65 25L65 26L66 26L66 25L65 25L65 24L63 24L63 21L64 21L64 23L66 23L66 22L67 22L67 20L65 20L65 19L66 19L66 18L63 18L63 17L66 17L66 16L65 16L65 14L67 14L67 13L66 13L66 12L64 12L64 11L63 11L63 12L62 12L62 11L61 11L61 10L59 10L59 9L60 9L60 8L59 8L59 7L58 7L58 6L57 6L57 8L56 8L56 9L57 9L57 10L53 10L53 8L55 8L55 7L56 7L56 6L55 6L55 7L54 7L54 5L53 5L53 8L52 8L52 10L51 10L51 9L50 9L50 10L47 10L47 7L46 7L46 6L45 6L45 7L44 7L44 5L43 5L43 7L42 7L42 6L41 6L41 7L40 7L40 6L39 6L39 4L40 4L40 5L41 5L41 3L42 3L42 1ZM27 3L27 4L28 4L28 3ZM60 3L60 5L61 5L61 3ZM26 5L26 7L27 7L27 9L26 9L26 11L27 11L27 13L28 13L28 12L29 12L29 14L27 14L27 16L28 16L28 15L29 15L29 17L31 17L31 18L29 18L29 19L30 19L30 20L28 20L28 19L27 19L27 21L31 21L31 22L30 22L30 23L29 23L29 22L27 22L27 23L28 23L28 24L27 24L27 25L29 25L29 26L28 26L28 27L29 27L29 28L28 28L28 29L27 29L27 30L25 30L25 31L26 31L26 32L25 32L25 33L23 33L23 34L22 34L22 33L21 33L21 36L23 36L23 38L24 38L24 39L23 39L23 40L24 40L24 41L23 41L23 42L20 42L20 40L21 40L21 41L22 41L22 40L21 40L21 39L22 39L22 38L20 38L20 39L18 39L18 40L17 40L17 41L18 41L18 42L17 42L17 43L18 43L18 44L16 44L16 43L15 43L15 44L16 44L16 45L15 45L15 46L16 46L16 45L17 45L17 47L16 47L16 49L14 49L14 48L15 48L15 47L13 47L13 46L12 46L12 45L13 45L13 44L14 44L14 43L13 43L13 44L12 44L12 45L11 45L11 46L12 46L12 47L11 47L11 48L10 48L10 47L9 47L9 48L10 48L10 49L7 49L7 48L8 48L8 47L7 47L7 46L6 46L6 47L5 47L5 48L4 48L4 49L5 49L5 48L6 48L6 49L7 49L7 50L10 50L10 51L9 51L9 53L8 53L8 54L9 54L9 55L8 55L8 57L10 57L10 58L11 58L11 57L10 57L10 56L12 56L12 57L13 57L13 58L12 58L12 59L11 59L11 60L12 60L12 59L13 59L13 61L14 61L14 63L15 63L15 65L16 65L16 63L17 63L17 62L18 62L18 61L17 61L17 62L16 62L16 63L15 63L15 61L16 61L16 60L14 60L14 58L15 58L15 57L16 57L16 56L15 56L15 55L17 55L17 54L15 54L15 55L14 55L14 54L11 54L11 53L12 53L12 52L10 52L10 51L11 51L11 49L12 49L12 51L13 51L13 49L14 49L14 50L16 50L16 51L18 51L18 50L20 50L20 51L19 51L19 52L16 52L16 53L19 53L19 52L22 52L22 51L21 51L21 49L22 49L22 50L23 50L23 54L25 54L25 55L26 55L26 49L22 49L22 48L21 48L21 47L23 47L23 48L26 48L26 47L25 47L25 46L27 46L27 45L25 45L25 44L24 44L24 43L23 43L23 42L24 42L24 41L26 41L26 42L25 42L25 43L26 43L26 44L27 44L27 41L28 41L28 40L29 40L29 41L30 41L30 42L28 42L28 43L30 43L30 42L31 42L31 41L30 41L30 40L29 40L29 39L30 39L30 38L31 38L31 37L32 37L32 38L33 38L33 39L34 39L34 40L35 40L35 41L34 41L34 42L35 42L35 43L34 43L34 44L35 44L35 46L34 46L34 45L33 45L33 43L31 43L31 44L28 44L28 45L31 45L31 44L32 44L32 45L33 45L33 46L32 46L32 47L33 47L33 46L34 46L34 47L35 47L35 48L36 48L36 47L37 47L37 46L38 46L38 45L37 45L37 46L36 46L36 44L37 44L37 43L38 43L38 41L37 41L37 39L38 39L38 38L37 38L37 39L36 39L36 37L38 37L38 36L37 36L37 34L38 34L38 35L39 35L39 36L40 36L40 35L41 35L41 36L42 36L42 35L41 35L41 34L43 34L43 33L44 33L44 36L43 36L43 37L40 37L40 38L42 38L42 39L45 39L45 40L47 40L47 39L48 39L48 37L49 37L49 39L50 39L50 40L51 40L51 39L50 39L50 33L51 33L51 32L52 32L52 30L54 30L54 32L55 32L55 33L52 33L52 34L51 34L51 36L52 36L52 35L53 35L53 38L52 38L52 40L53 40L53 41L54 41L54 42L57 42L57 41L56 41L56 39L55 39L55 37L56 37L56 36L57 36L57 34L58 34L58 37L59 37L59 38L57 38L57 40L60 40L60 39L61 39L61 40L62 40L62 38L64 38L64 37L65 37L65 36L67 36L67 35L65 35L65 33L66 33L66 32L67 32L67 31L64 31L64 32L63 32L63 30L62 30L62 29L59 29L59 26L58 26L58 25L57 25L57 26L58 26L58 27L57 27L57 29L59 29L59 30L60 30L60 31L58 31L58 32L59 32L59 34L58 34L58 33L57 33L57 34L56 34L56 36L55 36L55 33L56 33L56 32L55 32L55 31L56 31L56 30L55 30L55 29L56 29L56 24L58 24L58 22L57 22L57 21L59 21L59 20L58 20L58 18L56 18L56 14L57 14L57 13L60 13L60 14L59 14L59 16L58 16L58 15L57 15L57 17L59 17L59 18L62 18L62 19L63 19L63 18L62 18L62 16L64 16L64 15L63 15L63 14L62 14L62 12L61 12L61 11L59 11L59 12L58 12L58 10L57 10L57 11L56 11L56 12L53 12L53 10L52 10L52 11L49 11L49 12L47 12L47 11L44 11L44 12L43 12L43 13L42 13L42 14L41 14L41 12L42 12L42 10L45 10L45 9L46 9L46 7L45 7L45 9L44 9L44 8L43 8L43 9L39 9L39 10L41 10L41 12L40 12L40 11L39 11L39 12L40 12L40 13L39 13L39 14L37 14L37 13L38 13L38 12L37 12L37 13L36 13L36 12L34 12L34 11L33 11L33 12L34 12L34 13L33 13L33 14L32 14L32 15L31 15L31 13L32 13L32 12L29 12L29 11L32 11L32 9L30 9L30 8L29 8L29 6L30 6L30 7L31 7L31 6L30 6L30 5ZM33 5L33 8L36 8L36 5ZM12 6L12 7L13 7L13 6ZM18 6L18 7L19 7L19 6ZM22 6L22 7L23 7L23 6ZM27 6L27 7L28 7L28 6ZM34 6L34 7L35 7L35 6ZM38 6L38 7L39 7L39 6ZM0 8L0 9L3 9L3 11L2 11L2 10L0 10L0 14L3 14L3 15L4 15L4 16L5 16L5 15L9 15L9 14L8 14L8 13L9 13L9 12L10 12L10 11L7 11L7 10L5 10L5 8ZM18 8L18 9L19 9L19 10L20 10L20 8ZM21 8L21 9L22 9L22 8ZM57 8L57 9L59 9L59 8ZM23 9L23 10L22 10L22 11L21 11L21 12L22 12L22 11L23 11L23 12L24 12L24 11L23 11L23 10L24 10L24 9ZM27 9L27 10L28 10L28 11L29 11L29 10L30 10L30 9ZM35 10L35 11L36 11L36 10ZM65 10L65 11L66 11L66 10ZM1 11L1 13L3 13L3 12L4 12L4 14L7 14L7 13L5 13L5 12L7 12L7 11L5 11L5 12L4 12L4 11L3 11L3 12L2 12L2 11ZM67 11L67 12L68 12L68 11ZM44 12L44 13L43 13L43 14L42 14L42 15L40 15L40 14L39 14L39 15L35 15L35 13L34 13L34 14L33 14L33 15L32 15L32 17L34 17L34 19L33 19L33 18L32 18L32 20L31 20L31 21L32 21L32 22L31 22L31 23L32 23L32 24L31 24L31 27L30 27L30 28L31 28L31 29L32 29L32 28L31 28L31 27L33 27L33 28L34 28L34 29L33 29L33 30L31 30L31 31L32 31L32 32L34 32L34 31L33 31L33 30L34 30L34 29L36 29L36 30L37 30L37 29L38 29L38 30L40 30L40 31L43 31L43 32L38 32L38 31L37 31L37 32L38 32L38 34L39 34L39 35L40 35L40 33L43 33L43 32L44 32L44 33L45 33L45 36L44 36L44 37L45 37L45 38L47 38L47 37L45 37L45 36L48 36L48 35L49 35L49 33L50 33L50 32L51 32L51 30L52 30L52 29L55 29L55 27L53 27L53 23L54 23L54 22L53 22L53 20L52 20L52 19L51 19L51 18L53 18L53 19L54 19L54 20L56 20L56 21L55 21L55 24L56 24L56 23L57 23L57 22L56 22L56 21L57 21L57 20L56 20L56 19L54 19L54 18L53 18L53 17L55 17L55 14L56 14L56 13L57 13L57 12L56 12L56 13L55 13L55 14L52 14L52 13L53 13L53 12L51 12L51 13L50 13L50 15L49 15L49 14L47 14L47 12ZM60 12L60 13L61 13L61 12ZM63 12L63 13L64 13L64 14L65 14L65 13L64 13L64 12ZM14 13L14 14L15 14L15 15L14 15L14 18L16 18L16 17L18 17L18 16L17 16L17 15L18 15L18 14L17 14L17 15L16 15L16 14L15 14L15 13ZM29 14L29 15L30 15L30 14ZM44 14L44 16L42 16L42 17L41 17L41 18L39 18L39 19L38 19L38 17L39 17L39 16L40 16L40 15L39 15L39 16L38 16L38 17L37 17L37 18L35 18L35 19L36 19L36 20L34 20L34 21L33 21L33 23L35 23L35 26L34 26L34 25L33 25L33 24L32 24L32 25L33 25L33 26L34 26L34 27L35 27L35 28L36 28L36 29L37 29L37 27L42 27L42 30L43 30L43 29L44 29L44 28L45 28L45 30L44 30L44 32L46 32L46 33L47 33L47 35L48 35L48 33L49 33L49 32L50 32L50 29L49 29L49 28L50 28L50 25L51 25L51 24L52 24L52 23L53 23L53 22L52 22L52 23L51 23L51 22L50 22L50 21L51 21L51 20L49 20L49 19L50 19L50 17L52 17L52 16L53 16L53 15L52 15L52 16L48 16L48 15L47 15L47 17L49 17L49 18L46 18L46 16L45 16L45 14ZM60 14L60 15L61 15L61 16L62 16L62 14ZM33 15L33 16L34 16L34 15ZM12 16L12 17L13 17L13 16ZM44 16L44 17L43 17L43 20L42 20L42 19L41 19L41 20L39 20L39 21L43 21L43 20L44 20L44 22L41 22L41 23L40 23L40 22L37 22L37 23L36 23L36 24L37 24L37 25L38 25L38 26L41 26L41 25L42 25L42 24L41 24L41 23L43 23L43 24L44 24L44 25L43 25L43 26L46 26L46 28L49 28L49 27L48 27L48 26L49 26L49 25L50 25L50 24L51 24L51 23L50 23L50 22L49 22L49 23L48 23L48 24L47 24L47 21L46 21L46 20L48 20L48 19L46 19L46 18L45 18L45 16ZM27 17L27 18L28 18L28 17ZM19 18L19 19L20 19L20 18ZM44 18L44 19L45 19L45 18ZM2 19L2 20L3 20L3 21L5 21L5 19L4 19L4 20L3 20L3 19ZM15 19L15 21L14 21L14 23L17 23L17 21L16 21L16 19ZM11 20L11 21L9 21L9 22L11 22L11 21L12 21L12 20ZM37 20L37 21L38 21L38 20ZM15 21L15 22L16 22L16 21ZM34 21L34 22L35 22L35 21ZM44 22L44 23L45 23L45 24L46 24L46 25L47 25L47 26L48 26L48 25L49 25L49 24L50 24L50 23L49 23L49 24L48 24L48 25L47 25L47 24L46 24L46 22ZM19 23L19 24L17 24L17 25L19 25L19 26L20 26L20 27L21 27L21 26L22 26L22 25L21 25L21 24L20 24L20 23ZM67 23L67 24L68 24L68 23ZM6 24L6 25L7 25L7 26L8 26L8 25L9 25L9 24L8 24L8 25L7 25L7 24ZM15 24L15 25L16 25L16 24ZM29 24L29 25L30 25L30 24ZM38 24L38 25L39 25L39 24ZM62 24L62 25L63 25L63 24ZM20 25L20 26L21 26L21 25ZM35 26L35 27L36 27L36 26ZM51 26L51 28L52 28L52 26ZM4 27L4 28L5 28L5 27ZM7 27L7 28L8 28L8 27ZM43 27L43 28L44 28L44 27ZM11 28L11 29L9 29L9 30L8 30L8 29L7 29L7 30L8 30L8 31L9 31L9 30L10 30L10 31L11 31L11 32L13 32L13 31L12 31L12 28ZM15 28L15 29L16 29L16 28ZM39 28L39 29L40 29L40 28ZM65 28L65 29L66 29L66 28ZM28 29L28 33L25 33L25 34L23 34L23 36L24 36L24 37L25 37L25 36L26 36L26 41L27 41L27 38L28 38L28 39L29 39L29 38L30 38L30 37L29 37L29 36L28 36L28 35L27 35L27 34L28 34L28 33L29 33L29 35L31 35L31 36L32 36L32 33L31 33L31 34L30 34L30 33L29 33L29 30L30 30L30 29ZM46 29L46 30L45 30L45 31L46 31L46 32L47 32L47 31L46 31L46 30L47 30L47 29ZM48 29L48 30L49 30L49 29ZM61 30L61 32L62 32L62 30ZM3 31L3 34L4 34L4 31ZM16 32L16 33L17 33L17 32ZM5 33L5 36L8 36L8 33ZM33 33L33 36L36 36L36 33ZM61 33L61 36L64 36L64 33ZM6 34L6 35L7 35L7 34ZM19 34L19 35L20 35L20 34ZM34 34L34 35L35 35L35 34ZM53 34L53 35L54 35L54 34ZM59 34L59 37L60 37L60 38L59 38L59 39L60 39L60 38L62 38L62 37L60 37L60 34ZM62 34L62 35L63 35L63 34ZM9 35L9 37L11 37L11 35ZM12 36L12 38L13 38L13 36ZM27 36L27 37L28 37L28 36ZM54 36L54 37L55 37L55 36ZM34 37L34 39L35 39L35 37ZM65 38L65 39L63 39L63 40L64 40L64 41L62 41L62 42L61 42L61 43L60 43L60 42L58 42L58 43L59 43L59 44L61 44L61 43L62 43L62 42L64 42L64 41L66 41L66 40L65 40L65 39L66 39L66 38ZM5 39L5 40L6 40L6 41L7 41L7 40L6 40L6 39ZM31 39L31 40L32 40L32 42L33 42L33 40L32 40L32 39ZM39 39L39 40L41 40L41 39ZM10 40L10 42L11 42L11 43L12 43L12 42L14 42L14 41L15 41L15 42L16 42L16 41L15 41L15 40L13 40L13 41L11 41L11 40ZM54 40L54 41L55 41L55 40ZM8 41L8 42L9 42L9 41ZM36 42L36 43L37 43L37 42ZM44 42L44 43L45 43L45 42ZM19 43L19 44L20 44L20 43ZM22 43L22 44L21 44L21 45L19 45L19 46L18 46L18 47L17 47L17 48L18 48L18 49L16 49L16 50L18 50L18 49L21 49L21 48L20 48L20 46L21 46L21 45L22 45L22 46L23 46L23 47L24 47L24 46L23 46L23 45L24 45L24 44L23 44L23 43ZM39 43L39 44L40 44L40 43ZM9 44L9 45L8 45L8 46L10 46L10 44ZM57 44L57 45L58 45L58 44ZM60 45L60 46L61 46L61 47L62 47L62 48L63 48L63 49L61 49L61 48L60 48L60 49L59 49L59 50L58 50L58 51L61 51L61 52L63 52L63 53L62 53L62 54L63 54L63 53L64 53L64 52L63 52L63 51L62 51L62 50L63 50L63 49L64 49L64 48L63 48L63 47L65 47L65 46L63 46L63 45L62 45L62 46L61 46L61 45ZM28 46L28 47L27 47L27 48L28 48L28 47L29 47L29 48L30 48L30 49L29 49L29 51L30 51L30 49L31 49L31 50L32 50L32 51L34 51L34 49L33 49L33 48L32 48L32 49L31 49L31 48L30 48L30 47L31 47L31 46L30 46L30 47L29 47L29 46ZM35 46L35 47L36 47L36 46ZM62 46L62 47L63 47L63 46ZM6 47L6 48L7 48L7 47ZM38 47L38 49L37 49L37 50L36 50L36 49L35 49L35 50L36 50L36 51L35 51L35 52L36 52L36 53L35 53L35 54L36 54L36 55L33 55L33 53L34 53L34 52L28 52L28 51L27 51L27 52L28 52L28 53L30 53L30 55L27 55L27 56L30 56L30 57L29 57L29 58L27 58L27 59L26 59L26 60L25 60L25 61L26 61L26 60L28 60L28 61L27 61L27 62L28 62L28 61L29 61L29 62L31 62L31 60L32 60L32 59L31 59L31 60L28 60L28 59L29 59L29 58L31 58L31 56L35 56L35 57L36 57L36 58L38 58L38 57L39 57L39 56L38 56L38 55L37 55L37 54L40 54L40 53L39 53L39 51L41 51L41 50L39 50L39 51L37 51L37 50L38 50L38 49L39 49L39 48L40 48L40 47ZM44 47L44 49L43 49L43 50L44 50L44 49L45 49L45 47ZM12 48L12 49L13 49L13 48ZM27 49L27 50L28 50L28 49ZM32 49L32 50L33 50L33 49ZM60 49L60 50L61 50L61 49ZM1 52L1 53L2 53L2 54L3 54L3 53L2 53L2 52ZM14 52L14 53L15 53L15 52ZM24 52L24 53L25 53L25 52ZM37 52L37 53L36 53L36 54L37 54L37 53L38 53L38 52ZM43 52L43 53L44 53L44 52ZM57 52L57 53L58 53L58 52ZM9 53L9 54L10 54L10 55L11 55L11 54L10 54L10 53ZM31 53L31 55L32 55L32 53ZM12 55L12 56L13 56L13 55ZM1 56L1 58L0 58L0 61L1 61L1 58L2 58L2 59L3 59L3 57L2 57L2 56ZM21 56L21 57L22 57L22 58L24 58L24 57L22 57L22 56ZM36 56L36 57L38 57L38 56ZM62 56L62 58L63 58L63 56ZM53 57L53 58L54 58L54 57ZM65 57L65 58L66 58L66 57ZM17 58L17 59L19 59L19 58ZM41 58L41 59L40 59L40 62L39 62L39 61L38 61L38 60L37 60L37 61L38 61L38 63L41 63L41 64L44 64L44 66L45 66L45 67L46 67L46 66L45 66L45 64L44 64L44 62L43 62L43 63L42 63L42 62L41 62L41 60L42 60L42 61L43 61L43 60L42 60L42 58ZM45 58L45 59L46 59L46 58ZM49 59L49 60L45 60L45 61L47 61L47 62L50 62L50 61L49 61L49 60L50 60L50 59ZM3 60L3 61L5 61L5 60ZM33 61L33 64L36 64L36 61ZM61 61L61 64L64 64L64 61ZM34 62L34 63L35 63L35 62ZM53 62L53 63L54 63L54 62ZM62 62L62 63L63 63L63 62ZM65 62L65 63L66 63L66 62ZM24 63L24 64L26 64L26 63ZM37 64L37 65L38 65L38 64ZM49 64L49 65L50 65L50 64ZM30 65L30 66L32 66L32 65ZM9 67L9 68L10 68L10 67ZM29 67L29 68L30 68L30 67ZM56 67L56 68L53 68L53 69L56 69L56 68L57 68L57 67ZM17 68L17 69L19 69L19 68ZM0 0L0 7L7 7L7 0ZM1 1L1 6L6 6L6 1ZM2 2L2 5L5 5L5 2ZM62 0L62 7L69 7L69 0ZM63 1L63 6L68 6L68 1ZM64 2L64 5L67 5L67 2ZM0 62L0 69L7 69L7 62ZM1 63L1 68L6 68L6 63ZM2 64L2 67L5 67L5 64Z" fill="#000000"/></g></g></svg>
