<?xml version="1.0" encoding="UTF-8"?>
<svg xmlns="http://www.w3.org/2000/svg" version="1.1" width="300" height="300" viewBox="0 0 300 300"><rect x="0" y="0" width="300" height="300" fill="#ffffff"/><g transform="scale(4.348)"><g transform="translate(0,0)"><path fill-rule="evenodd" d="M8 0L8 4L9 4L9 0ZM10 0L10 3L11 3L11 4L10 4L10 5L8 5L8 7L9 7L9 6L10 6L10 11L9 11L9 9L7 9L7 8L4 8L4 9L2 9L2 8L0 8L0 11L1 11L1 10L2 10L2 15L4 15L4 14L3 14L3 13L4 13L4 11L5 11L5 10L6 10L6 11L9 11L9 13L7 13L7 12L5 12L5 14L6 14L6 15L7 15L7 16L5 16L5 17L4 17L4 16L3 16L3 17L2 17L2 19L0 19L0 22L1 22L1 23L0 23L0 24L1 24L1 25L0 25L0 28L1 28L1 29L3 29L3 30L4 30L4 31L5 31L5 32L3 32L3 33L1 33L1 32L2 32L2 31L1 31L1 30L0 30L0 31L1 31L1 32L0 32L0 36L1 36L1 37L0 37L0 38L3 38L3 40L4 40L4 42L3 42L3 41L1 41L1 40L0 40L0 41L1 41L1 42L3 42L3 43L0 43L0 46L1 46L1 44L3 44L3 43L5 43L5 44L4 44L4 45L3 45L3 46L2 46L2 47L0 47L0 48L1 48L1 50L0 50L0 52L1 52L1 53L0 53L0 55L1 55L1 56L0 56L0 57L1 57L1 58L0 58L0 61L1 61L1 58L2 58L2 59L3 59L3 57L4 57L4 59L7 59L7 60L6 60L6 61L7 61L7 60L8 60L8 62L9 62L9 63L8 63L8 65L9 65L9 64L10 64L10 62L11 62L11 64L13 64L13 65L15 65L15 66L16 66L16 67L18 67L18 68L17 68L17 69L19 69L19 67L20 67L20 66L21 66L21 65L22 65L22 66L23 66L23 67L22 67L22 68L23 68L23 67L24 67L24 69L25 69L25 67L26 67L26 66L27 66L27 67L28 67L28 66L29 66L29 69L31 69L31 67L33 67L33 66L32 66L32 65L36 65L36 66L35 66L35 67L34 67L34 68L32 68L32 69L35 69L35 67L39 67L39 66L40 66L40 63L41 63L41 67L40 67L40 68L38 68L38 69L40 69L40 68L41 68L41 69L42 69L42 68L43 68L43 63L44 63L44 69L46 69L46 67L45 67L45 63L44 63L44 62L46 62L46 60L47 60L47 63L46 63L46 64L47 64L47 66L48 66L48 69L49 69L49 68L50 68L50 69L52 69L52 68L53 68L53 69L55 69L55 64L54 64L54 63L55 63L55 62L57 62L57 61L58 61L58 59L59 59L59 60L60 60L60 61L59 61L59 63L56 63L56 65L58 65L58 64L59 64L59 65L60 65L60 66L61 66L61 65L62 65L62 67L61 67L61 69L62 69L62 67L64 67L64 68L63 68L63 69L65 69L65 67L67 67L67 66L69 66L69 64L68 64L68 61L69 61L69 59L68 59L68 58L69 58L69 57L67 57L67 56L66 56L66 57L65 57L65 59L64 59L64 60L61 60L61 59L62 59L62 58L64 58L64 57L62 57L62 58L61 58L61 56L62 56L62 54L64 54L64 55L63 55L63 56L64 56L64 55L65 55L65 54L66 54L66 55L68 55L68 53L69 53L69 52L68 52L68 50L64 50L64 49L65 49L65 47L66 47L66 46L67 46L67 49L68 49L68 48L69 48L69 47L68 47L68 45L67 45L67 44L69 44L69 43L68 43L68 42L69 42L69 41L68 41L68 40L69 40L69 39L68 39L68 38L69 38L69 35L68 35L68 32L67 32L67 33L66 33L66 32L63 32L63 31L64 31L64 30L65 30L65 31L68 31L68 29L69 29L69 28L68 28L68 29L67 29L67 30L65 30L65 29L66 29L66 27L65 27L65 25L64 25L64 24L65 24L65 23L68 23L68 24L67 24L67 25L68 25L68 26L67 26L67 27L68 27L68 26L69 26L69 25L68 25L68 24L69 24L69 23L68 23L68 22L69 22L69 20L68 20L68 18L67 18L67 17L69 17L69 16L68 16L68 14L69 14L69 11L68 11L68 10L69 10L69 8L65 8L65 10L64 10L64 8L63 8L63 9L62 9L62 10L61 10L61 6L60 6L60 8L59 8L59 4L58 4L58 5L56 5L56 9L54 9L54 8L55 8L55 4L56 4L56 3L59 3L59 2L58 2L58 1L61 1L61 0L58 0L58 1L55 1L55 0L53 0L53 1L55 1L55 2L54 2L54 3L55 3L55 4L53 4L53 2L52 2L52 1L51 1L51 0L50 0L50 2L49 2L49 1L48 1L48 0L47 0L47 1L48 1L48 3L50 3L50 2L52 2L52 4L49 4L49 5L48 5L48 4L47 4L47 2L46 2L46 3L45 3L45 1L46 1L46 0L45 0L45 1L44 1L44 0L41 0L41 1L40 1L40 0L37 0L37 1L35 1L35 0L34 0L34 1L35 1L35 2L34 2L34 4L32 4L32 2L33 2L33 0L32 0L32 2L31 2L31 4L30 4L30 5L28 5L28 4L29 4L29 3L27 3L27 2L25 2L25 3L24 3L24 2L22 2L22 1L28 1L28 2L30 2L30 0L22 0L22 1L21 1L21 0L17 0L17 1L18 1L18 2L17 2L17 5L16 5L16 4L15 4L15 5L13 5L13 4L14 4L14 3L16 3L16 2L14 2L14 0ZM15 0L15 1L16 1L16 0ZM11 1L11 2L12 2L12 1ZM19 1L19 2L18 2L18 5L17 5L17 8L16 8L16 5L15 5L15 7L14 7L14 6L13 6L13 5L12 5L12 4L13 4L13 3L12 3L12 4L11 4L11 9L12 9L12 10L11 10L11 11L10 11L10 12L11 12L11 13L10 13L10 14L9 14L9 15L8 15L8 14L7 14L7 13L6 13L6 14L7 14L7 15L8 15L8 16L7 16L7 17L5 17L5 18L3 18L3 19L4 19L4 20L5 20L5 21L3 21L3 20L2 20L2 21L3 21L3 22L2 22L2 23L1 23L1 24L3 24L3 25L1 25L1 26L2 26L2 27L1 27L1 28L3 28L3 29L5 29L5 30L8 30L8 32L9 32L9 30L8 30L8 27L9 27L9 28L11 28L11 26L12 26L12 25L17 25L17 24L19 24L19 23L18 23L18 21L17 21L17 20L19 20L19 22L20 22L20 20L19 20L19 19L20 19L20 18L21 18L21 17L24 17L24 16L25 16L25 15L26 15L26 16L28 16L28 17L27 17L27 18L26 18L26 17L25 17L25 18L24 18L24 19L23 19L23 18L22 18L22 21L21 21L21 23L20 23L20 24L21 24L21 23L22 23L22 24L23 24L23 23L25 23L25 22L23 22L23 20L24 20L24 19L25 19L25 18L26 18L26 20L25 20L25 21L26 21L26 20L27 20L27 19L28 19L28 18L29 18L29 20L28 20L28 22L27 22L27 24L29 24L29 25L27 25L27 26L24 26L24 25L21 25L21 26L20 26L20 25L19 25L19 26L20 26L20 27L19 27L19 28L21 28L21 29L23 29L23 28L22 28L22 26L23 26L23 27L24 27L24 28L25 28L25 29L26 29L26 28L25 28L25 27L27 27L27 28L28 28L28 27L29 27L29 25L30 25L30 24L31 24L31 23L32 23L32 26L31 26L31 27L30 27L30 28L31 28L31 27L33 27L33 28L32 28L32 29L28 29L28 30L27 30L27 31L28 31L28 30L29 30L29 32L26 32L26 31L25 31L25 30L23 30L23 31L25 31L25 32L22 32L22 33L29 33L29 34L28 34L28 35L27 35L27 37L26 37L26 34L25 34L25 35L24 35L24 34L20 34L20 35L18 35L18 34L17 34L17 33L18 33L18 32L19 32L19 33L20 33L20 32L21 32L21 30L20 30L20 29L18 29L18 28L17 28L17 27L18 27L18 26L16 26L16 27L15 27L15 26L14 26L14 29L16 29L16 30L17 30L17 29L18 29L18 31L17 31L17 33L16 33L16 34L17 34L17 35L16 35L16 36L15 36L15 37L16 37L16 39L20 39L20 36L22 36L22 38L23 38L23 40L22 40L22 39L21 39L21 40L19 40L19 41L22 41L22 42L21 42L21 44L22 44L22 45L21 45L21 46L22 46L22 45L23 45L23 44L24 44L24 43L23 43L23 44L22 44L22 42L23 42L23 41L24 41L24 42L25 42L25 41L26 41L26 40L25 40L25 38L23 38L23 37L24 37L24 36L25 36L25 37L26 37L26 39L27 39L27 40L28 40L28 42L27 42L27 43L28 43L28 42L29 42L29 43L30 43L30 44L31 44L31 43L32 43L32 42L33 42L33 44L32 44L32 45L35 45L35 46L34 46L34 47L32 47L32 46L31 46L31 45L30 45L30 46L31 46L31 47L30 47L30 48L32 48L32 49L29 49L29 48L28 48L28 49L27 49L27 51L28 51L28 50L29 50L29 51L30 51L30 50L31 50L31 53L28 53L28 52L27 52L27 53L28 53L28 55L29 55L29 56L28 56L28 58L27 58L27 59L26 59L26 60L25 60L25 58L24 58L24 57L21 57L21 55L22 55L22 56L25 56L25 57L26 57L26 52L25 52L25 50L26 50L26 49L25 49L25 50L23 50L23 52L22 52L22 53L21 53L21 54L20 54L20 53L16 53L16 55L15 55L15 57L13 57L13 59L12 59L12 60L14 60L14 58L15 58L15 57L17 57L17 58L16 58L16 59L15 59L15 61L16 61L16 62L15 62L15 63L16 63L16 62L17 62L17 61L18 61L18 63L17 63L17 65L16 65L16 64L15 64L15 65L16 65L16 66L17 66L17 65L18 65L18 64L19 64L19 65L20 65L20 64L21 64L21 63L20 63L20 64L19 64L19 62L20 62L20 61L18 61L18 60L19 60L19 58L20 58L20 60L21 60L21 59L22 59L22 58L23 58L23 59L24 59L24 61L23 61L23 60L22 60L22 63L25 63L25 64L22 64L22 65L29 65L29 64L26 64L26 63L25 63L25 62L26 62L26 60L27 60L27 59L28 59L28 60L29 60L29 59L33 59L33 60L34 60L34 59L35 59L35 60L38 60L38 59L39 59L39 58L40 58L40 59L41 59L41 58L40 58L40 57L41 57L41 56L42 56L42 57L44 57L44 54L45 54L45 53L46 53L46 54L47 54L47 55L48 55L48 56L49 56L49 57L48 57L48 58L47 58L47 57L46 57L46 58L47 58L47 59L49 59L49 60L50 60L50 61L49 61L49 63L48 63L48 64L50 64L50 63L51 63L51 62L52 62L52 63L54 63L54 62L53 62L53 60L55 60L55 61L56 61L56 60L57 60L57 59L58 59L58 58L59 58L59 59L61 59L61 58L59 58L59 57L60 57L60 56L58 56L58 55L57 55L57 53L56 53L56 54L55 54L55 56L52 56L52 55L53 55L53 54L50 54L50 52L49 52L49 54L47 54L47 53L46 53L46 52L47 52L47 51L50 51L50 49L51 49L51 52L52 52L52 53L55 53L55 51L56 51L56 50L57 50L57 49L58 49L58 50L59 50L59 51L57 51L57 52L59 52L59 53L58 53L58 54L59 54L59 55L60 55L60 54L61 54L61 53L62 53L62 51L63 51L63 53L64 53L64 54L65 54L65 52L67 52L67 51L64 51L64 50L63 50L63 49L64 49L64 46L66 46L66 44L67 44L67 42L66 42L66 41L64 41L64 40L67 40L67 38L68 38L68 35L67 35L67 34L65 34L65 37L62 37L62 39L61 39L61 37L60 37L60 36L59 36L59 35L60 35L60 32L61 32L61 30L62 30L62 31L63 31L63 30L62 30L62 28L61 28L61 26L62 26L62 25L61 25L61 26L59 26L59 25L60 25L60 24L63 24L63 22L62 22L62 21L63 21L63 20L62 20L62 13L63 13L63 14L64 14L64 15L65 15L65 16L64 16L64 17L63 17L63 19L64 19L64 17L65 17L65 20L64 20L64 23L65 23L65 22L66 22L66 21L65 21L65 20L67 20L67 22L68 22L68 20L67 20L67 18L66 18L66 16L67 16L67 14L68 14L68 11L66 11L66 10L65 10L65 12L64 12L64 13L63 13L63 12L62 12L62 13L61 13L61 11L59 11L59 12L58 12L58 10L59 10L59 9L58 9L58 10L57 10L57 9L56 9L56 10L55 10L55 13L56 13L56 15L55 15L55 16L54 16L54 17L55 17L55 18L54 18L54 19L53 19L53 18L52 18L52 17L53 17L53 15L54 15L54 12L53 12L53 10L52 10L52 9L53 9L53 8L52 8L52 9L51 9L51 7L52 7L52 5L49 5L49 7L48 7L48 6L47 6L47 4L46 4L46 5L44 5L44 4L45 4L45 3L44 3L44 2L43 2L43 3L44 3L44 4L43 4L43 5L39 5L39 7L40 7L40 11L41 11L41 14L40 14L40 13L39 13L39 14L38 14L38 12L39 12L39 11L38 11L38 9L39 9L39 8L38 8L38 5L37 5L37 8L38 8L38 9L37 9L37 11L38 11L38 12L36 12L36 13L37 13L37 14L35 14L35 13L34 13L34 11L36 11L36 9L31 9L31 8L32 8L32 6L31 6L31 5L32 5L32 4L31 4L31 5L30 5L30 6L29 6L29 7L30 7L30 6L31 6L31 8L30 8L30 9L27 9L27 11L26 11L26 10L25 10L25 9L26 9L26 6L25 6L25 5L24 5L24 6L23 6L23 5L21 5L21 7L20 7L20 4L19 4L19 3L21 3L21 4L22 4L22 2L20 2L20 1ZM37 1L37 2L35 2L35 4L36 4L36 3L38 3L38 4L40 4L40 1ZM41 1L41 3L42 3L42 1ZM26 3L26 4L27 4L27 3ZM60 3L60 5L61 5L61 3ZM18 5L18 7L19 7L19 8L17 8L17 9L16 9L16 8L13 8L13 6L12 6L12 8L13 8L13 10L12 10L12 13L15 13L15 14L14 14L14 16L13 16L13 17L11 17L11 16L10 16L10 15L11 15L11 14L10 14L10 15L9 15L9 17L7 17L7 18L6 18L6 19L5 19L5 20L6 20L6 21L5 21L5 22L6 22L6 23L7 23L7 24L5 24L5 23L4 23L4 22L3 22L3 23L4 23L4 24L5 24L5 25L9 25L9 26L11 26L11 25L12 25L12 23L14 23L14 24L16 24L16 21L14 21L14 22L13 22L13 21L12 21L12 18L14 18L14 20L16 20L16 18L17 18L17 19L18 19L18 18L19 18L19 17L21 17L21 16L23 16L23 14L24 14L24 15L25 15L25 13L27 13L27 14L28 14L28 16L29 16L29 17L32 17L32 15L33 15L33 19L34 19L34 20L32 20L32 18L31 18L31 20L30 20L30 21L29 21L29 22L28 22L28 23L30 23L30 21L32 21L32 23L34 23L34 24L35 24L35 22L34 22L34 20L36 20L36 19L34 19L34 18L35 18L35 17L38 17L38 18L37 18L37 21L36 21L36 22L37 22L37 21L38 21L38 20L39 20L39 21L40 21L40 22L39 22L39 23L38 23L38 24L36 24L36 25L34 25L34 26L35 26L35 27L34 27L34 28L33 28L33 31L34 31L34 30L37 30L37 31L38 31L38 34L37 34L37 32L32 32L32 31L31 31L31 32L29 32L29 33L30 33L30 34L29 34L29 37L30 37L30 39L29 39L29 38L28 38L28 37L27 37L27 39L29 39L29 41L30 41L30 42L32 42L32 41L33 41L33 42L34 42L34 43L35 43L35 42L36 42L36 43L37 43L37 41L38 41L38 46L39 46L39 45L40 45L40 46L41 46L41 45L42 45L42 49L41 49L41 52L42 52L42 53L40 53L40 48L41 48L41 47L38 47L38 48L37 48L37 47L36 47L36 46L35 46L35 47L34 47L34 48L33 48L33 49L32 49L32 51L34 51L34 52L35 52L35 54L34 54L34 53L33 53L33 52L32 52L32 53L33 53L33 54L34 54L34 55L31 55L31 56L30 56L30 57L29 57L29 58L28 58L28 59L29 59L29 58L32 58L32 57L34 57L34 55L36 55L36 54L37 54L37 53L38 53L38 52L39 52L39 53L40 53L40 54L39 54L39 56L38 56L38 58L37 58L37 57L35 57L35 59L38 59L38 58L39 58L39 57L40 57L40 54L41 54L41 55L42 55L42 54L44 54L44 53L45 53L45 50L46 50L46 51L47 51L47 50L46 50L46 49L45 49L45 48L47 48L47 49L50 49L50 48L51 48L51 49L52 49L52 50L55 50L55 48L56 48L56 49L57 49L57 48L58 48L58 47L59 47L59 48L60 48L60 49L59 49L59 50L60 50L60 51L59 51L59 52L61 52L61 51L62 51L62 49L63 49L63 48L62 48L62 46L64 46L64 45L65 45L65 43L64 43L64 41L63 41L63 40L64 40L64 39L66 39L66 38L67 38L67 36L66 36L66 37L65 37L65 38L64 38L64 39L62 39L62 40L61 40L61 39L60 39L60 37L59 37L59 38L58 38L58 35L59 35L59 34L58 34L58 33L57 33L57 31L56 31L56 30L55 30L55 29L52 29L52 26L53 26L53 27L55 27L55 26L56 26L56 25L59 25L59 23L57 23L57 24L56 24L56 25L55 25L55 24L54 24L54 23L53 23L53 22L55 22L55 23L56 23L56 22L58 22L58 21L59 21L59 22L61 22L61 23L62 23L62 22L61 22L61 21L59 21L59 19L58 19L58 17L59 17L59 18L61 18L61 13L60 13L60 12L59 12L59 13L60 13L60 15L59 15L59 14L58 14L58 12L57 12L57 10L56 10L56 13L57 13L57 14L58 14L58 15L56 15L56 18L55 18L55 19L54 19L54 20L53 20L53 21L52 21L52 19L51 19L51 17L52 17L52 16L51 16L51 17L50 17L50 16L49 16L49 13L50 13L50 14L52 14L52 10L51 10L51 9L50 9L50 7L51 7L51 6L50 6L50 7L49 7L49 8L47 8L47 6L46 6L46 7L45 7L45 6L44 6L44 5L43 5L43 6L42 6L42 7L41 7L41 6L40 6L40 7L41 7L41 8L43 8L43 6L44 6L44 7L45 7L45 8L44 8L44 9L45 9L45 10L46 10L46 11L45 11L45 12L44 12L44 13L42 13L42 15L39 15L39 16L37 16L37 15L38 15L38 14L37 14L37 15L36 15L36 16L35 16L35 14L34 14L34 15L33 15L33 12L32 12L32 13L31 13L31 12L30 12L30 11L29 11L29 10L28 10L28 11L27 11L27 12L26 12L26 11L25 11L25 10L24 10L24 9L25 9L25 8L24 8L24 9L23 9L23 11L24 11L24 13L23 13L23 14L22 14L22 9L20 9L20 7L19 7L19 5ZM33 5L33 8L36 8L36 5ZM53 5L53 7L54 7L54 5ZM22 6L22 8L23 8L23 6ZM24 6L24 7L25 7L25 6ZM27 6L27 8L28 8L28 6ZM34 6L34 7L35 7L35 6ZM57 6L57 7L58 7L58 6ZM45 8L45 9L46 9L46 10L47 10L47 8ZM6 9L6 10L7 10L7 9ZM15 9L15 10L13 10L13 11L14 11L14 12L15 12L15 11L16 11L16 12L17 12L17 11L16 11L16 9ZM17 9L17 10L19 10L19 13L21 13L21 12L20 12L20 9ZM30 9L30 10L31 10L31 11L32 11L32 10L31 10L31 9ZM41 9L41 10L42 10L42 12L43 12L43 9ZM49 9L49 10L50 10L50 11L49 11L49 12L50 12L50 13L51 13L51 12L50 12L50 11L51 11L51 10L50 10L50 9ZM33 10L33 11L34 11L34 10ZM63 10L63 11L64 11L64 10ZM28 11L28 12L27 12L27 13L28 13L28 14L29 14L29 11ZM46 11L46 12L45 12L45 13L46 13L46 14L45 14L45 17L46 17L46 19L44 19L44 18L41 18L41 17L42 17L42 16L40 16L40 19L39 19L39 18L38 18L38 19L39 19L39 20L40 20L40 21L41 21L41 20L40 20L40 19L42 19L42 20L43 20L43 22L40 22L40 23L39 23L39 24L40 24L40 27L37 27L37 26L38 26L38 25L37 25L37 26L36 26L36 27L35 27L35 28L34 28L34 29L36 29L36 28L37 28L37 29L40 29L40 30L42 30L42 28L43 28L43 29L44 29L44 27L43 27L43 26L41 26L41 25L42 25L42 24L43 24L43 25L44 25L44 24L45 24L45 23L44 23L44 20L46 20L46 19L47 19L47 17L48 17L48 15L47 15L47 17L46 17L46 14L47 14L47 13L46 13L46 12L47 12L47 11ZM0 12L0 13L1 13L1 12ZM66 12L66 13L67 13L67 12ZM17 13L17 14L16 14L16 15L15 15L15 16L14 16L14 17L17 17L17 18L18 18L18 17L19 17L19 16L18 16L18 17L17 17L17 16L16 16L16 15L18 15L18 13ZM64 13L64 14L65 14L65 13ZM0 14L0 17L1 17L1 14ZM12 14L12 15L13 15L13 14ZM19 14L19 15L20 15L20 14ZM21 14L21 15L22 15L22 14ZM31 14L31 15L32 15L32 14ZM43 14L43 17L44 17L44 14ZM58 15L58 16L57 16L57 17L58 17L58 16L59 16L59 15ZM34 16L34 17L35 17L35 16ZM9 17L9 19L6 19L6 20L7 20L7 21L6 21L6 22L8 22L8 23L9 23L9 24L10 24L10 25L11 25L11 24L10 24L10 23L11 23L11 22L10 22L10 23L9 23L9 21L8 21L8 20L11 20L11 19L10 19L10 18L11 18L11 17ZM49 17L49 19L50 19L50 21L49 21L49 22L50 22L50 25L48 25L48 22L47 22L47 21L46 21L46 22L47 22L47 25L46 25L46 26L47 26L47 25L48 25L48 27L49 27L49 26L50 26L50 25L51 25L51 26L52 26L52 25L53 25L53 24L52 24L52 21L51 21L51 19L50 19L50 17ZM55 19L55 22L56 22L56 20L57 20L57 21L58 21L58 19ZM50 21L50 22L51 22L51 21ZM14 22L14 23L15 23L15 22ZM40 23L40 24L41 24L41 23ZM25 24L25 25L26 25L26 24ZM51 24L51 25L52 25L52 24ZM3 25L3 27L4 27L4 25ZM5 26L5 29L7 29L7 28L6 28L6 27L7 27L7 26ZM40 27L40 28L42 28L42 27ZM45 27L45 28L46 28L46 27ZM50 27L50 28L51 28L51 27ZM57 27L57 28L56 28L56 29L57 29L57 30L58 30L58 32L59 32L59 31L60 31L60 30L61 30L61 29L59 29L59 30L58 30L58 27ZM12 28L12 29L13 29L13 28ZM16 28L16 29L17 29L17 28ZM64 28L64 29L65 29L65 28ZM10 29L10 30L11 30L11 29ZM46 29L46 30L47 30L47 31L45 31L45 33L44 33L44 30L43 30L43 31L40 31L40 33L44 33L44 34L43 34L43 35L41 35L41 34L39 34L39 35L37 35L37 37L36 37L36 38L37 38L37 37L38 37L38 36L39 36L39 35L41 35L41 36L40 36L40 37L39 37L39 38L38 38L38 41L39 41L39 39L40 39L40 41L41 41L41 38L40 38L40 37L42 37L42 36L43 36L43 38L45 38L45 37L46 37L46 42L45 42L45 43L44 43L44 40L45 40L45 39L43 39L43 42L39 42L39 43L41 43L41 44L43 44L43 45L44 45L44 46L45 46L45 47L44 47L44 48L43 48L43 49L44 49L44 50L45 50L45 49L44 49L44 48L45 48L45 47L47 47L47 44L48 44L48 43L47 43L47 42L48 42L48 41L47 41L47 38L48 38L48 39L50 39L50 40L49 40L49 42L50 42L50 44L49 44L49 46L50 46L50 44L51 44L51 43L52 43L52 41L53 41L53 39L52 39L52 38L53 38L53 36L54 36L54 37L56 37L56 39L57 39L57 37L56 37L56 36L57 36L57 33L56 33L56 31L55 31L55 30L52 30L52 29L51 29L51 30L50 30L50 29L48 29L48 30L47 30L47 29ZM13 30L13 31L11 31L11 33L12 33L12 34L10 34L10 33L9 33L9 37L8 37L8 38L9 38L9 37L12 37L12 36L13 36L13 38L14 38L14 36L13 36L13 35L15 35L15 34L14 34L14 32L13 32L13 31L15 31L15 32L16 32L16 31L15 31L15 30ZM19 30L19 32L20 32L20 30ZM49 30L49 31L50 31L50 32L51 32L51 33L50 33L50 34L52 34L52 32L55 32L55 31L50 31L50 30ZM6 31L6 32L7 32L7 31ZM12 32L12 33L13 33L13 32ZM31 32L31 33L32 33L32 32ZM46 32L46 33L45 33L45 34L44 34L44 37L45 37L45 34L46 34L46 37L49 37L49 35L48 35L48 33L49 33L49 32ZM3 33L3 34L4 34L4 33ZM5 33L5 36L8 36L8 33ZM33 33L33 36L36 36L36 33ZM46 33L46 34L47 34L47 33ZM54 33L54 35L55 35L55 36L56 36L56 33ZM61 33L61 36L64 36L64 33ZM1 34L1 35L2 35L2 34ZM6 34L6 35L7 35L7 34ZM30 34L30 36L32 36L32 34ZM34 34L34 35L35 35L35 34ZM62 34L62 35L63 35L63 34ZM3 35L3 36L4 36L4 35ZM11 35L11 36L12 36L12 35ZM52 35L52 36L50 36L50 39L51 39L51 37L52 37L52 36L53 36L53 35ZM16 36L16 37L17 37L17 38L19 38L19 36ZM3 37L3 38L5 38L5 39L4 39L4 40L5 40L5 43L6 43L6 44L5 44L5 45L6 45L6 46L7 46L7 47L4 47L4 46L3 46L3 47L2 47L2 48L3 48L3 49L2 49L2 50L1 50L1 51L2 51L2 52L3 52L3 51L2 51L2 50L3 50L3 49L4 49L4 48L7 48L7 49L5 49L5 50L4 50L4 53L5 53L5 54L1 54L1 55L2 55L2 56L1 56L1 57L2 57L2 56L3 56L3 55L6 55L6 56L5 56L5 58L9 58L9 59L10 59L10 60L11 60L11 59L10 59L10 58L9 58L9 57L10 57L10 56L11 56L11 58L12 58L12 56L11 56L11 55L12 55L12 54L13 54L13 53L14 53L14 54L15 54L15 53L14 53L14 52L15 52L15 51L14 51L14 50L13 50L13 53L11 53L11 52L12 52L12 49L13 49L13 48L15 48L15 49L16 49L16 52L18 52L18 51L20 51L20 50L21 50L21 51L22 51L22 49L23 49L23 48L22 48L22 49L19 49L19 48L18 48L18 49L16 49L16 48L17 48L17 47L18 47L18 46L17 46L17 44L15 44L15 43L16 43L16 42L17 42L17 40L16 40L16 41L14 41L14 42L13 42L13 41L11 41L11 39L12 39L12 40L15 40L15 39L12 39L12 38L10 38L10 41L6 41L6 40L7 40L7 39L6 39L6 38L7 38L7 37L6 37L6 38L5 38L5 37ZM32 37L32 38L31 38L31 39L32 39L32 40L34 40L34 41L37 41L37 39L35 39L35 40L34 40L34 39L32 39L32 38L35 38L35 37ZM54 38L54 39L55 39L55 38ZM5 39L5 40L6 40L6 39ZM58 39L58 42L57 42L57 41L56 41L56 42L57 42L57 43L55 43L55 42L53 42L53 44L52 44L52 45L54 45L54 44L55 44L55 46L53 46L53 47L52 47L52 46L51 46L51 47L52 47L52 49L53 49L53 47L54 47L54 48L55 48L55 46L57 46L57 47L56 47L56 48L57 48L57 47L58 47L58 46L59 46L59 47L61 47L61 46L62 46L62 45L64 45L64 43L63 43L63 41L62 41L62 43L61 43L61 44L59 44L59 45L58 45L58 46L57 46L57 45L56 45L56 44L58 44L58 42L59 42L59 43L60 43L60 41L61 41L61 40L60 40L60 39ZM24 40L24 41L25 41L25 40ZM30 40L30 41L31 41L31 40ZM51 40L51 41L50 41L50 42L51 42L51 41L52 41L52 40ZM54 40L54 41L55 41L55 40ZM10 41L10 42L11 42L11 43L10 43L10 44L9 44L9 43L8 43L8 42L6 42L6 43L8 43L8 44L6 44L6 45L8 45L8 48L9 48L9 50L8 50L8 49L7 49L7 50L6 50L6 51L5 51L5 53L8 53L8 54L9 54L9 52L10 52L10 51L11 51L11 50L10 50L10 48L11 48L11 49L12 49L12 48L13 48L13 47L15 47L15 46L16 46L16 45L15 45L15 44L12 44L12 42L11 42L11 41ZM18 42L18 43L19 43L19 47L20 47L20 43L19 43L19 42ZM25 43L25 45L26 45L26 46L23 46L23 47L24 47L24 48L25 48L25 47L26 47L26 48L27 48L27 46L29 46L29 45L26 45L26 43ZM46 43L46 44L44 44L44 45L46 45L46 44L47 44L47 43ZM62 43L62 44L61 44L61 45L62 45L62 44L63 44L63 43ZM8 44L8 45L9 45L9 46L10 46L10 47L11 47L11 44L10 44L10 45L9 45L9 44ZM36 44L36 45L37 45L37 44ZM13 45L13 46L12 46L12 47L13 47L13 46L14 46L14 45ZM3 47L3 48L4 48L4 47ZM35 47L35 48L34 48L34 50L35 50L35 49L36 49L36 51L35 51L35 52L36 52L36 53L37 53L37 51L39 51L39 50L38 50L38 49L39 49L39 48L38 48L38 49L37 49L37 48L36 48L36 47ZM48 47L48 48L49 48L49 47ZM61 48L61 49L60 49L60 50L61 50L61 49L62 49L62 48ZM18 49L18 50L19 50L19 49ZM7 50L7 51L6 51L6 52L7 52L7 51L8 51L8 52L9 52L9 51L10 51L10 50L9 50L9 51L8 51L8 50ZM42 50L42 51L43 51L43 53L44 53L44 51L43 51L43 50ZM52 51L52 52L53 52L53 51ZM23 52L23 53L24 53L24 55L25 55L25 53L24 53L24 52ZM6 54L6 55L7 55L7 56L6 56L6 57L7 57L7 56L8 56L8 57L9 57L9 56L8 56L8 55L7 55L7 54ZM17 54L17 57L18 57L18 58L19 58L19 57L20 57L20 58L21 58L21 57L20 57L20 56L19 56L19 55L20 55L20 54L19 54L19 55L18 55L18 54ZM29 54L29 55L30 55L30 54ZM49 54L49 56L50 56L50 60L51 60L51 61L50 61L50 62L51 62L51 61L52 61L52 60L51 60L51 59L52 59L52 58L53 58L53 59L55 59L55 57L52 57L52 56L50 56L50 54ZM13 55L13 56L14 56L14 55ZM56 56L56 57L57 57L57 58L58 58L58 56ZM51 57L51 58L52 58L52 57ZM66 57L66 58L67 58L67 57ZM33 58L33 59L34 59L34 58ZM42 58L42 61L43 61L43 62L42 62L42 63L43 63L43 62L44 62L44 60L45 60L45 58ZM65 59L65 60L67 60L67 61L68 61L68 59ZM3 60L3 61L5 61L5 60ZM31 60L31 61L32 61L32 60ZM39 60L39 62L38 62L38 61L37 61L37 62L38 62L38 63L37 63L37 66L38 66L38 63L40 63L40 62L41 62L41 60ZM9 61L9 62L10 62L10 61ZM12 61L12 62L13 62L13 64L14 64L14 62L13 62L13 61ZM24 61L24 62L25 62L25 61ZM27 61L27 63L30 63L30 64L31 64L31 65L30 65L30 66L31 66L31 65L32 65L32 64L31 64L31 63L32 63L32 62L29 62L29 61ZM33 61L33 64L36 64L36 61ZM61 61L61 64L64 64L64 61ZM34 62L34 63L35 63L35 62ZM62 62L62 63L63 63L63 62ZM66 62L66 63L65 63L65 66L67 66L67 65L68 65L68 64L67 64L67 62ZM52 64L52 67L53 67L53 68L54 68L54 67L53 67L53 64ZM49 65L49 66L50 66L50 68L51 68L51 66L50 66L50 65ZM13 66L13 67L14 67L14 69L15 69L15 67L14 67L14 66ZM24 66L24 67L25 67L25 66ZM8 67L8 69L9 69L9 67ZM11 67L11 68L10 68L10 69L11 69L11 68L12 68L12 69L13 69L13 68L12 68L12 67ZM41 67L41 68L42 68L42 67ZM58 67L58 69L60 69L60 68L59 68L59 67ZM26 68L26 69L28 69L28 68ZM36 68L36 69L37 69L37 68ZM56 68L56 69L57 69L57 68ZM66 68L66 69L67 69L67 68ZM68 68L68 69L69 69L69 68ZM0 0L0 7L7 7L7 0ZM1 1L1 6L6 6L6 1ZM2 2L2 5L5 5L5 2ZM62 0L62 7L69 7L69 0ZM63 1L63 6L68 6L68 1ZM64 2L64 5L67 5L67 2ZM0 62L0 69L7 69L7 62ZM1 63L1 68L6 68L6 63ZM2 64L2 67L5 67L5 64Z" fill="#000000"/></g></g></svg>
