<?xml version="1.0" encoding="UTF-8"?>
<svg xmlns="http://www.w3.org/2000/svg" version="1.1" width="300" height="300" viewBox="0 0 300 300"><rect x="0" y="0" width="300" height="300" fill="#ffffff"/><g transform="scale(4.348)"><g transform="translate(0,0)"><path fill-rule="evenodd" d="M8 0L8 4L10 4L10 5L8 5L8 7L9 7L9 8L10 8L10 7L11 7L11 5L12 5L12 8L13 8L13 9L12 9L12 11L13 11L13 9L15 9L15 10L16 10L16 11L15 11L15 12L13 12L13 13L12 13L12 14L13 14L13 16L14 16L14 17L13 17L13 19L14 19L14 20L15 20L15 19L16 19L16 20L17 20L17 22L15 22L15 23L14 23L14 21L13 21L13 20L10 20L10 19L11 19L11 17L12 17L12 15L11 15L11 13L9 13L9 12L11 12L11 11L10 11L10 10L11 10L11 9L10 9L10 10L8 10L8 9L7 9L7 8L4 8L4 9L7 9L7 10L6 10L6 11L5 11L5 10L3 10L3 11L2 11L2 10L1 10L1 11L2 11L2 12L0 12L0 13L4 13L4 14L5 14L5 15L3 15L3 14L1 14L1 16L0 16L0 17L1 17L1 16L4 16L4 17L5 17L5 18L3 18L3 17L2 17L2 22L1 22L1 21L0 21L0 24L2 24L2 25L0 25L0 26L1 26L1 27L3 27L3 26L2 26L2 25L5 25L5 23L7 23L7 24L6 24L6 25L8 25L8 24L9 24L9 26L4 26L4 29L3 29L3 28L0 28L0 29L2 29L2 30L4 30L4 31L3 31L3 32L4 32L4 34L3 34L3 33L1 33L1 32L0 32L0 34L2 34L2 35L1 35L1 36L2 36L2 35L4 35L4 36L3 36L3 37L5 37L5 38L6 38L6 39L7 39L7 40L5 40L5 39L4 39L4 38L1 38L1 37L0 37L0 38L1 38L1 39L4 39L4 40L3 40L3 41L2 41L2 40L1 40L1 41L0 41L0 44L1 44L1 45L5 45L5 47L4 47L4 46L2 46L2 47L1 47L1 46L0 46L0 52L1 52L1 51L2 51L2 52L3 52L3 51L4 51L4 53L5 53L5 55L7 55L7 56L6 56L6 57L5 57L5 56L3 56L3 55L4 55L4 54L3 54L3 53L2 53L2 54L3 54L3 55L2 55L2 56L0 56L0 57L3 57L3 58L2 58L2 59L3 59L3 58L4 58L4 59L7 59L7 58L6 58L6 57L8 57L8 55L7 55L7 54L10 54L10 55L9 55L9 57L10 57L10 60L11 60L11 61L12 61L12 62L13 62L13 61L14 61L14 62L15 62L15 63L16 63L16 64L14 64L14 65L13 65L13 64L11 64L11 62L9 62L9 61L8 61L8 62L9 62L9 63L8 63L8 65L9 65L9 67L8 67L8 69L9 69L9 68L10 68L10 69L11 69L11 68L12 68L12 69L14 69L14 67L15 67L15 68L16 68L16 69L20 69L20 68L16 68L16 64L17 64L17 63L18 63L18 61L20 61L20 63L21 63L21 62L22 62L22 63L26 63L26 64L27 64L27 65L23 65L23 69L25 69L25 68L26 68L26 69L29 69L29 67L28 67L28 64L29 64L29 65L32 65L32 67L31 67L31 66L30 66L30 67L31 67L31 68L30 68L30 69L31 69L31 68L32 68L32 69L34 69L34 68L35 68L35 69L37 69L37 68L38 68L38 69L40 69L40 66L41 66L41 67L43 67L43 68L42 68L42 69L43 69L43 68L44 68L44 69L46 69L46 68L45 68L45 67L46 67L46 65L47 65L47 64L46 64L46 63L44 63L44 67L43 67L43 63L42 63L42 62L43 62L43 61L41 61L41 62L40 62L40 63L39 63L39 61L40 61L40 58L41 58L41 59L42 59L42 60L44 60L44 61L46 61L46 60L47 60L47 61L49 61L49 59L51 59L51 60L50 60L50 62L47 62L47 63L48 63L48 66L47 66L47 67L48 67L48 68L47 68L47 69L50 69L50 66L51 66L51 69L52 69L52 68L53 68L53 66L55 66L55 67L56 67L56 69L57 69L57 68L58 68L58 67L56 67L56 66L58 66L58 65L60 65L60 66L61 66L61 67L59 67L59 68L60 68L60 69L61 69L61 68L62 68L62 69L64 69L64 67L65 67L65 66L64 66L64 65L65 65L65 63L66 63L66 62L67 62L67 66L66 66L66 67L67 67L67 66L69 66L69 65L68 65L68 61L67 61L67 60L65 60L65 59L64 59L64 60L61 60L61 59L62 59L62 58L64 58L64 55L68 55L68 56L65 56L65 58L66 58L66 59L68 59L68 56L69 56L69 55L68 55L68 53L69 53L69 52L68 52L68 51L69 51L69 49L68 49L68 51L67 51L67 52L66 52L66 53L65 53L65 54L64 54L64 53L63 53L63 54L64 54L64 55L62 55L62 54L61 54L61 52L63 52L63 51L64 51L64 49L65 49L65 51L66 51L66 50L67 50L67 49L65 49L65 47L66 47L66 46L67 46L67 47L68 47L68 45L69 45L69 43L68 43L68 42L69 42L69 41L68 41L68 40L69 40L69 39L68 39L68 38L69 38L69 36L68 36L68 38L67 38L67 37L66 37L66 38L67 38L67 39L68 39L68 40L64 40L64 39L65 39L65 38L64 38L64 39L62 39L62 38L59 38L59 39L58 39L58 37L59 37L59 36L60 36L60 37L65 37L65 33L66 33L66 32L63 32L63 31L62 31L62 30L63 30L63 29L64 29L64 28L65 28L65 29L66 29L66 28L65 28L65 25L67 25L67 27L68 27L68 29L67 29L67 30L65 30L65 31L68 31L68 30L69 30L69 27L68 27L68 26L69 26L69 25L68 25L68 24L69 24L69 23L68 23L68 21L69 21L69 20L68 20L68 18L67 18L67 17L68 17L68 16L69 16L69 15L68 15L68 14L69 14L69 11L68 11L68 10L67 10L67 11L68 11L68 14L67 14L67 16L66 16L66 18L65 18L65 17L64 17L64 16L65 16L65 15L64 15L64 12L63 12L63 11L65 11L65 10L66 10L66 9L69 9L69 8L65 8L65 10L64 10L64 8L63 8L63 9L62 9L62 10L63 10L63 11L60 11L60 10L61 10L61 8L60 8L60 9L59 9L59 10L58 10L58 8L59 8L59 4L58 4L58 7L57 7L57 5L56 5L56 9L53 9L53 11L51 11L51 10L52 10L52 8L53 8L53 6L52 6L52 7L51 7L51 3L50 3L50 2L51 2L51 0L50 0L50 1L48 1L48 0L47 0L47 1L46 1L46 0L45 0L45 1L44 1L44 0L41 0L41 1L42 1L42 2L40 2L40 4L39 4L39 3L38 3L38 5L37 5L37 4L35 4L35 2L39 2L39 0L38 0L38 1L35 1L35 2L34 2L34 0L32 0L32 1L33 1L33 2L32 2L32 3L31 3L31 1L30 1L30 0L29 0L29 1L30 1L30 3L31 3L31 4L30 4L30 5L29 5L29 6L28 6L28 4L29 4L29 2L28 2L28 3L27 3L27 1L26 1L26 0L23 0L23 1L22 1L22 0L15 0L15 1L14 1L14 0L13 0L13 1L14 1L14 3L12 3L12 2L11 2L11 0ZM53 0L53 1L52 1L52 4L53 4L53 5L54 5L54 8L55 8L55 4L56 4L56 3L55 3L55 1L56 1L56 2L57 2L57 3L59 3L59 2L57 2L57 0ZM58 0L58 1L61 1L61 0ZM9 1L9 3L10 3L10 1ZM15 1L15 2L16 2L16 1ZM17 1L17 4L16 4L16 3L15 3L15 4L14 4L14 5L13 5L13 4L12 4L12 3L11 3L11 4L12 4L12 5L13 5L13 7L14 7L14 6L15 6L15 7L16 7L16 6L17 6L17 7L18 7L18 6L19 6L19 7L20 7L20 8L21 8L21 9L22 9L22 11L23 11L23 12L22 12L22 13L24 13L24 11L23 11L23 9L24 9L24 10L25 10L25 11L26 11L26 12L27 12L27 11L26 11L26 8L25 8L25 7L26 7L26 6L27 6L27 7L28 7L28 8L27 8L27 9L28 9L28 11L29 11L29 12L28 12L28 15L29 15L29 16L27 16L27 13L25 13L25 14L26 14L26 16L27 16L27 17L25 17L25 15L24 15L24 17L23 17L23 14L22 14L22 16L21 16L21 17L19 17L19 16L20 16L20 15L19 15L19 16L18 16L18 17L17 17L17 18L16 18L16 19L18 19L18 20L19 20L19 19L20 19L20 18L21 18L21 20L20 20L20 21L18 21L18 22L17 22L17 23L15 23L15 24L14 24L14 23L12 23L12 24L14 24L14 25L12 25L12 26L11 26L11 29L10 29L10 28L9 28L9 29L6 29L6 28L7 28L7 27L6 27L6 28L5 28L5 29L6 29L6 30L5 30L5 31L4 31L4 32L5 32L5 31L6 31L6 32L7 32L7 31L8 31L8 32L12 32L12 33L9 33L9 35L10 35L10 36L9 36L9 37L8 37L8 38L7 38L7 37L6 37L6 38L7 38L7 39L8 39L8 40L7 40L7 41L6 41L6 42L2 42L2 43L1 43L1 44L2 44L2 43L4 43L4 44L5 44L5 45L6 45L6 46L7 46L7 47L6 47L6 48L7 48L7 49L4 49L4 50L5 50L5 51L6 51L6 52L7 52L7 51L6 51L6 50L8 50L8 48L7 48L7 47L9 47L9 46L10 46L10 45L11 45L11 47L10 47L10 48L11 48L11 51L10 51L10 49L9 49L9 51L10 51L10 52L8 52L8 53L10 53L10 52L11 52L11 55L10 55L10 57L11 57L11 55L12 55L12 58L11 58L11 59L12 59L12 61L13 61L13 58L14 58L14 60L15 60L15 61L16 61L16 62L17 62L17 61L18 61L18 60L19 60L19 59L20 59L20 61L26 61L26 60L27 60L27 59L26 59L26 60L25 60L25 58L24 58L24 57L21 57L21 56L20 56L20 55L18 55L18 56L20 56L20 57L19 57L19 58L16 58L16 59L15 59L15 57L17 57L17 55L13 55L13 54L12 54L12 53L14 53L14 54L17 54L17 53L18 53L18 54L20 54L20 53L18 53L18 51L20 51L20 50L21 50L21 52L22 52L22 54L21 54L21 55L22 55L22 56L25 56L25 57L26 57L26 58L27 58L27 57L28 57L28 62L29 62L29 58L30 58L30 60L33 60L33 59L32 59L32 58L34 58L34 59L35 59L35 60L37 60L37 58L38 58L38 59L39 59L39 58L40 58L40 57L44 57L44 56L45 56L45 55L44 55L44 54L45 54L45 53L44 53L44 51L43 51L43 50L42 50L42 51L43 51L43 52L41 52L41 51L40 51L40 50L41 50L41 49L42 49L42 47L44 47L44 48L43 48L43 49L44 49L44 50L45 50L45 49L44 49L44 48L45 48L45 47L46 47L46 51L45 51L45 52L46 52L46 54L47 54L47 52L49 52L49 50L50 50L50 53L49 53L49 54L48 54L48 55L47 55L47 57L46 57L46 58L47 58L47 59L49 59L49 58L47 58L47 57L48 57L48 55L49 55L49 57L51 57L51 58L52 58L52 59L53 59L53 57L56 57L56 58L55 58L55 59L54 59L54 61L55 61L55 62L56 62L56 63L57 63L57 65L58 65L58 64L59 64L59 63L60 63L60 60L59 60L59 59L60 59L60 58L61 58L61 57L63 57L63 56L61 56L61 57L60 57L60 56L59 56L59 57L58 57L58 58L57 58L57 57L56 57L56 56L57 56L57 55L56 55L56 54L57 54L57 53L56 53L56 52L55 52L55 51L57 51L57 52L58 52L58 54L59 54L59 55L60 55L60 51L63 51L63 50L62 50L62 49L61 49L61 48L62 48L62 47L63 47L63 45L64 45L64 47L65 47L65 46L66 46L66 44L68 44L68 43L65 43L65 45L64 45L64 44L62 44L62 43L64 43L64 42L67 42L67 41L64 41L64 42L62 42L62 43L59 43L59 42L60 42L60 40L59 40L59 41L57 41L57 42L56 42L56 38L57 38L57 37L58 37L58 36L57 36L57 35L60 35L60 34L59 34L59 33L56 33L56 32L57 32L57 31L59 31L59 29L61 29L61 30L62 30L62 29L61 29L61 26L62 26L62 24L63 24L63 26L64 26L64 25L65 25L65 24L68 24L68 23L65 23L65 22L64 22L64 21L68 21L68 20L67 20L67 19L65 19L65 20L64 20L64 21L63 21L63 19L64 19L64 17L63 17L63 19L62 19L62 15L63 15L63 14L62 14L62 12L60 12L60 13L59 13L59 12L58 12L58 10L57 10L57 9L56 9L56 11L55 11L55 10L54 10L54 11L53 11L53 12L52 12L52 13L51 13L51 16L50 16L50 17L51 17L51 18L52 18L52 19L49 19L49 17L48 17L48 15L46 15L46 14L48 14L48 13L47 13L47 12L46 12L46 14L45 14L45 13L43 13L43 11L42 11L42 9L41 9L41 7L42 7L42 8L43 8L43 7L44 7L44 6L45 6L45 7L46 7L46 6L45 6L45 5L44 5L44 4L46 4L46 5L47 5L47 8L45 8L45 9L46 9L46 10L45 10L45 11L46 11L46 10L47 10L47 8L49 8L49 10L50 10L50 9L51 9L51 7L50 7L50 3L48 3L48 1L47 1L47 2L46 2L46 1L45 1L45 3L43 3L43 2L42 2L42 3L41 3L41 4L40 4L40 5L39 5L39 7L38 7L38 6L37 6L37 8L39 8L39 11L37 11L37 10L36 10L36 9L35 9L35 10L34 10L34 9L33 9L33 10L31 10L31 9L28 9L28 8L30 8L30 6L31 6L31 7L32 7L32 6L31 6L31 5L32 5L32 4L34 4L34 2L33 2L33 3L32 3L32 4L31 4L31 5L30 5L30 6L29 6L29 7L28 7L28 6L27 6L27 5L26 5L26 4L27 4L27 3L26 3L26 4L25 4L25 1L23 1L23 2L24 2L24 3L23 3L23 4L25 4L25 7L24 7L24 6L23 6L23 5L21 5L21 7L20 7L20 6L19 6L19 5L20 5L20 3L21 3L21 4L22 4L22 1L21 1L21 2L20 2L20 1L19 1L19 3L18 3L18 1ZM53 1L53 2L54 2L54 1ZM42 3L42 4L41 4L41 5L42 5L42 7L43 7L43 6L44 6L44 5L43 5L43 3ZM46 3L46 4L47 4L47 5L48 5L48 3ZM53 3L53 4L54 4L54 3ZM60 3L60 5L61 5L61 3ZM15 4L15 5L16 5L16 4ZM17 5L17 6L18 6L18 5ZM33 5L33 8L36 8L36 5ZM9 6L9 7L10 7L10 6ZM22 6L22 8L24 8L24 9L25 9L25 8L24 8L24 7L23 7L23 6ZM34 6L34 7L35 7L35 6ZM40 6L40 7L41 7L41 6ZM48 6L48 7L49 7L49 6ZM60 6L60 7L61 7L61 6ZM0 8L0 9L2 9L2 8ZM15 8L15 9L17 9L17 10L18 10L18 9L17 9L17 8ZM19 9L19 10L20 10L20 11L17 11L17 12L19 12L19 13L21 13L21 10L20 10L20 9ZM43 9L43 10L44 10L44 9ZM29 10L29 11L31 11L31 12L29 12L29 14L30 14L30 13L31 13L31 15L30 15L30 16L29 16L29 19L26 19L26 18L25 18L25 17L24 17L24 19L23 19L23 17L21 17L21 18L22 18L22 19L23 19L23 20L24 20L24 19L25 19L25 20L26 20L26 22L25 22L25 21L23 21L23 24L22 24L22 23L21 23L21 22L22 22L22 20L21 20L21 21L20 21L20 24L21 24L21 25L19 25L19 23L18 23L18 25L14 25L14 26L13 26L13 27L12 27L12 30L11 30L11 31L13 31L13 32L14 32L14 33L13 33L13 34L12 34L12 35L11 35L11 36L13 36L13 37L15 37L15 38L16 38L16 33L15 33L15 32L17 32L17 31L18 31L18 30L17 30L17 31L16 31L16 28L15 28L15 27L16 27L16 26L18 26L18 27L17 27L17 29L20 29L20 33L19 33L19 32L18 32L18 33L17 33L17 34L19 34L19 35L18 35L18 36L17 36L17 37L20 37L20 39L19 39L19 40L17 40L17 39L18 39L18 38L17 38L17 39L14 39L14 38L12 38L12 37L9 37L9 41L8 41L8 42L6 42L6 43L5 43L5 44L6 44L6 45L8 45L8 42L9 42L9 43L10 43L10 44L9 44L9 45L10 45L10 44L11 44L11 45L12 45L12 43L13 43L13 46L12 46L12 47L11 47L11 48L12 48L12 51L11 51L11 52L12 52L12 51L13 51L13 52L14 52L14 53L17 53L17 51L18 51L18 50L19 50L19 49L22 49L22 46L21 46L21 45L22 45L22 44L21 44L21 42L22 42L22 43L24 43L24 45L23 45L23 46L24 46L24 47L23 47L23 49L24 49L24 51L22 51L22 52L23 52L23 53L24 53L24 54L25 54L25 53L24 53L24 51L25 51L25 52L26 52L26 55L25 55L25 56L26 56L26 57L27 57L27 56L28 56L28 57L34 57L34 58L35 58L35 59L36 59L36 58L37 58L37 56L36 56L36 57L34 57L34 55L33 55L33 54L34 54L34 52L35 52L35 49L36 49L36 50L37 50L37 51L38 51L38 52L36 52L36 53L38 53L38 55L39 55L39 56L38 56L38 58L39 58L39 57L40 57L40 55L41 55L41 56L42 56L42 55L43 55L43 56L44 56L44 55L43 55L43 54L44 54L44 53L42 53L42 55L41 55L41 54L40 54L40 51L38 51L38 50L39 50L39 49L40 49L40 48L41 48L41 47L42 47L42 46L43 46L43 45L44 45L44 47L45 47L45 46L46 46L46 47L47 47L47 46L48 46L48 49L47 49L47 51L48 51L48 50L49 50L49 49L50 49L50 50L51 50L51 53L50 53L50 54L49 54L49 55L50 55L50 54L51 54L51 53L52 53L52 54L53 54L53 53L54 53L54 55L51 55L51 57L52 57L52 56L56 56L56 55L55 55L55 52L54 52L54 51L53 51L53 50L57 50L57 51L58 51L58 52L59 52L59 50L58 50L58 48L59 48L59 47L60 47L60 48L61 48L61 47L62 47L62 44L60 44L60 45L59 45L59 44L58 44L58 43L56 43L56 45L55 45L55 44L53 44L53 43L54 43L54 42L55 42L55 41L52 41L52 40L51 40L51 39L49 39L49 40L48 40L48 39L47 39L47 44L46 44L46 45L45 45L45 43L44 43L44 42L46 42L46 37L45 37L45 34L46 34L46 36L47 36L47 37L48 37L48 38L49 38L49 37L50 37L50 38L52 38L52 39L53 39L53 38L56 38L56 37L57 37L57 36L56 36L56 35L57 35L57 34L56 34L56 33L55 33L55 32L56 32L56 31L57 31L57 30L58 30L58 29L59 29L59 28L60 28L60 26L61 26L61 25L59 25L59 28L58 28L58 29L57 29L57 27L58 27L58 24L60 24L60 23L61 23L61 24L62 24L62 23L64 23L64 22L63 22L63 21L62 21L62 19L61 19L61 20L59 20L59 19L60 19L60 18L61 18L61 16L59 16L59 19L58 19L58 17L57 17L57 16L58 16L58 15L59 15L59 14L58 14L58 12L57 12L57 11L56 11L56 13L55 13L55 11L54 11L54 12L53 12L53 13L52 13L52 15L53 15L53 13L54 13L54 15L55 15L55 16L56 16L56 17L52 17L52 16L51 16L51 17L52 17L52 18L53 18L53 19L54 19L54 20L53 20L53 23L52 23L52 21L51 21L51 20L49 20L49 19L47 19L47 20L46 20L46 19L45 19L45 18L46 18L46 17L47 17L47 16L46 16L46 15L45 15L45 14L44 14L44 17L43 17L43 15L41 15L41 16L42 16L42 17L40 17L40 16L39 16L39 15L40 15L40 13L38 13L38 15L37 15L37 16L36 16L36 15L34 15L34 16L36 16L36 17L33 17L33 16L32 16L32 13L36 13L36 14L37 14L37 13L36 13L36 11L34 11L34 10L33 10L33 12L32 12L32 11L31 11L31 10ZM6 11L6 12L7 12L7 11ZM41 11L41 12L42 12L42 11ZM48 11L48 12L49 12L49 13L50 13L50 11ZM15 12L15 14L14 14L14 13L13 13L13 14L14 14L14 16L15 16L15 17L16 17L16 16L17 16L17 15L18 15L18 13L17 13L17 15L16 15L16 12ZM31 12L31 13L32 13L32 12ZM66 12L66 13L67 13L67 12ZM6 13L6 14L7 14L7 13ZM8 13L8 14L9 14L9 15L8 15L8 17L9 17L9 18L10 18L10 17L9 17L9 15L10 15L10 14L9 14L9 13ZM41 13L41 14L43 14L43 13ZM60 13L60 15L62 15L62 14L61 14L61 13ZM6 15L6 16L7 16L7 15ZM15 15L15 16L16 16L16 15ZM56 15L56 16L57 16L57 15ZM37 16L37 17L36 17L36 19L35 19L35 20L34 20L34 18L33 18L33 19L32 19L32 18L31 18L31 19L29 19L29 20L31 20L31 21L30 21L30 22L32 22L32 20L34 20L34 21L33 21L33 23L32 23L32 24L33 24L33 25L34 25L34 26L35 26L35 28L34 28L34 27L32 27L32 25L31 25L31 27L32 27L32 28L31 28L31 29L33 29L33 30L32 30L32 32L33 32L33 30L34 30L34 31L35 31L35 32L37 32L37 29L38 29L38 28L37 28L37 26L38 26L38 24L39 24L39 23L38 23L38 24L37 24L37 22L38 22L38 20L37 20L37 22L35 22L35 20L36 20L36 19L37 19L37 18L38 18L38 19L39 19L39 22L40 22L40 23L42 23L42 24L40 24L40 27L39 27L39 28L40 28L40 29L39 29L39 30L40 30L40 31L41 31L41 32L40 32L40 33L39 33L39 31L38 31L38 33L37 33L37 34L38 34L38 35L37 35L37 36L38 36L38 35L39 35L39 37L40 37L40 41L41 41L41 42L39 42L39 43L38 43L38 41L39 41L39 38L38 38L38 37L37 37L37 38L38 38L38 39L36 39L36 37L35 37L35 39L34 39L34 41L24 41L24 40L22 40L22 39L21 39L21 41L22 41L22 42L23 42L23 41L24 41L24 42L25 42L25 43L26 43L26 44L25 44L25 45L26 45L26 47L25 47L25 48L24 48L24 49L25 49L25 48L27 48L27 50L26 50L26 51L28 51L28 50L29 50L29 49L28 49L28 48L30 48L30 47L32 47L32 46L34 46L34 45L37 45L37 47L34 47L34 48L33 48L33 49L31 49L31 51L29 51L29 52L32 52L32 54L31 54L31 53L28 53L28 52L27 52L27 53L28 53L28 54L27 54L27 55L26 55L26 56L27 56L27 55L28 55L28 54L31 54L31 55L29 55L29 56L31 56L31 55L32 55L32 56L33 56L33 55L32 55L32 54L33 54L33 49L35 49L35 48L38 48L38 44L40 44L40 45L41 45L41 44L42 44L42 41L44 41L44 38L45 38L45 37L44 37L44 36L41 36L41 34L40 34L40 33L44 33L44 34L43 34L43 35L44 35L44 34L45 34L45 33L46 33L46 34L47 34L47 35L49 35L49 34L50 34L50 35L53 35L53 36L52 36L52 37L53 37L53 36L54 36L54 37L56 37L56 36L55 36L55 35L56 35L56 34L54 34L54 35L53 35L53 34L52 34L52 33L54 33L54 31L56 31L56 30L57 30L57 29L56 29L56 27L55 27L55 26L53 26L53 24L54 24L54 23L55 23L55 25L56 25L56 26L57 26L57 25L56 25L56 24L58 24L58 23L60 23L60 22L59 22L59 21L58 21L58 19L57 19L57 17L56 17L56 18L55 18L55 19L56 19L56 20L55 20L55 22L54 22L54 23L53 23L53 24L52 24L52 26L50 26L50 25L49 25L49 26L47 26L47 25L48 25L48 23L47 23L47 22L49 22L49 23L50 23L50 24L51 24L51 22L50 22L50 21L46 21L46 20L45 20L45 19L44 19L44 18L41 18L41 19L40 19L40 17L39 17L39 16ZM6 17L6 18L5 18L5 19L6 19L6 20L7 20L7 21L6 21L6 22L7 22L7 23L9 23L9 24L10 24L10 25L11 25L11 24L10 24L10 22L13 22L13 21L10 21L10 20L9 20L9 19L8 19L8 18L7 18L7 17ZM18 17L18 18L19 18L19 17ZM27 17L27 18L28 18L28 17ZM38 17L38 18L39 18L39 17ZM0 18L0 20L1 20L1 18ZM6 18L6 19L7 19L7 18ZM31 19L31 20L32 20L32 19ZM41 19L41 22L42 22L42 23L44 23L44 25L45 25L45 27L44 27L44 29L41 29L41 31L43 31L43 30L44 30L44 29L45 29L45 31L44 31L44 33L45 33L45 32L46 32L46 33L47 33L47 34L49 34L49 32L47 32L47 31L46 31L46 28L47 28L47 30L48 30L48 31L50 31L50 30L52 30L52 31L51 31L51 33L50 33L50 34L51 34L51 33L52 33L52 32L53 32L53 30L56 30L56 29L55 29L55 28L54 28L54 27L53 27L53 26L52 26L52 28L51 28L51 29L50 29L50 28L49 28L49 27L48 27L48 28L47 28L47 26L46 26L46 25L47 25L47 23L46 23L46 21L45 21L45 20L44 20L44 19ZM8 20L8 21L9 21L9 22L10 22L10 21L9 21L9 20ZM42 20L42 21L43 21L43 22L44 22L44 23L45 23L45 21L44 21L44 20ZM56 20L56 23L57 23L57 22L58 22L58 21L57 21L57 20ZM3 21L3 22L2 22L2 23L3 23L3 24L4 24L4 23L5 23L5 21ZM28 21L28 22L26 22L26 23L28 23L28 26L30 26L30 25L29 25L29 24L31 24L31 23L28 23L28 22L29 22L29 21ZM61 21L61 23L62 23L62 21ZM3 22L3 23L4 23L4 22ZM24 23L24 24L25 24L25 26L24 26L24 25L21 25L21 26L23 26L23 27L24 27L24 29L23 29L23 28L22 28L22 30L24 30L24 29L26 29L26 27L27 27L27 26L26 26L26 24L25 24L25 23ZM34 23L34 24L35 24L35 25L36 25L36 26L37 26L37 24L35 24L35 23ZM42 24L42 25L41 25L41 26L43 26L43 24ZM18 25L18 26L19 26L19 27L20 27L20 26L19 26L19 25ZM9 26L9 27L10 27L10 26ZM14 26L14 27L13 27L13 31L14 31L14 32L15 32L15 30L14 30L14 27L15 27L15 26ZM25 26L25 27L26 27L26 26ZM40 27L40 28L41 28L41 27ZM62 27L62 28L63 28L63 27ZM33 28L33 29L34 29L34 30L35 30L35 31L36 31L36 29L34 29L34 28ZM52 28L52 29L54 29L54 28ZM9 29L9 30L8 30L8 31L9 31L9 30L10 30L10 29ZM28 29L28 30L29 30L29 31L28 31L28 32L30 32L30 31L31 31L31 30L29 30L29 29ZM49 29L49 30L50 30L50 29ZM6 30L6 31L7 31L7 30ZM25 30L25 31L27 31L27 30ZM21 31L21 32L22 32L22 37L21 37L21 34L20 34L20 35L19 35L19 36L20 36L20 37L21 37L21 38L22 38L22 37L23 37L23 39L27 39L27 38L24 38L24 37L26 37L26 35L27 35L27 36L28 36L28 38L30 38L30 37L29 37L29 36L30 36L30 35L31 35L31 34L32 34L32 33L31 33L31 34L30 34L30 35L29 35L29 36L28 36L28 34L29 34L29 33L27 33L27 34L26 34L26 35L24 35L24 37L23 37L23 32L24 32L24 33L26 33L26 32L24 32L24 31L23 31L23 32L22 32L22 31ZM61 31L61 32L62 32L62 31ZM67 32L67 34L66 34L66 35L68 35L68 32ZM5 33L5 36L8 36L8 33ZM33 33L33 36L36 36L36 33ZM38 33L38 34L39 34L39 33ZM61 33L61 36L64 36L64 33ZM6 34L6 35L7 35L7 34ZM34 34L34 35L35 35L35 34ZM62 34L62 35L63 35L63 34ZM31 36L31 37L32 37L32 38L31 38L31 39L28 39L28 40L32 40L32 38L33 38L33 37L32 37L32 36ZM50 36L50 37L51 37L51 36ZM41 37L41 38L43 38L43 37ZM10 38L10 41L9 41L9 42L10 42L10 43L11 43L11 42L12 42L12 41L11 41L11 39L12 39L12 38ZM41 39L41 41L42 41L42 39ZM57 39L57 40L58 40L58 39ZM61 39L61 41L62 41L62 39ZM16 40L16 41L14 41L14 42L13 42L13 43L14 43L14 42L15 42L15 43L16 43L16 42L17 42L17 44L20 44L20 45L19 45L19 48L18 48L18 49L17 49L17 47L18 47L18 46L17 46L17 45L15 45L15 44L14 44L14 46L15 46L15 48L16 48L16 51L14 51L14 52L16 52L16 51L17 51L17 50L18 50L18 49L19 49L19 48L20 48L20 47L21 47L21 46L20 46L20 45L21 45L21 44L20 44L20 41L17 41L17 40ZM35 40L35 41L36 41L36 40ZM37 40L37 41L38 41L38 40ZM50 40L50 41L49 41L49 42L48 42L48 44L49 44L49 45L50 45L50 44L52 44L52 45L51 45L51 47L52 47L52 50L53 50L53 48L54 48L54 49L56 49L56 48L57 48L57 47L56 47L56 46L57 46L57 45L58 45L58 46L59 46L59 45L58 45L58 44L57 44L57 45L56 45L56 46L55 46L55 47L54 47L54 45L53 45L53 44L52 44L52 43L53 43L53 42L52 42L52 41L51 41L51 40ZM10 41L10 42L11 42L11 41ZM50 41L50 43L49 43L49 44L50 44L50 43L51 43L51 41ZM18 42L18 43L19 43L19 42ZM26 42L26 43L27 43L27 44L26 44L26 45L27 45L27 48L28 48L28 47L29 47L29 46L30 46L30 45L31 45L31 44L32 44L32 45L34 45L34 44L35 44L35 42L34 42L34 44L32 44L32 43L31 43L31 42L29 42L29 43L27 43L27 42ZM6 43L6 44L7 44L7 43ZM27 44L27 45L28 45L28 46L29 46L29 45L30 45L30 44L29 44L29 45L28 45L28 44ZM46 45L46 46L47 46L47 45ZM52 45L52 46L53 46L53 45ZM60 45L60 46L61 46L61 45ZM16 46L16 47L17 47L17 46ZM2 47L2 48L1 48L1 50L3 50L3 49L2 49L2 48L4 48L4 47ZM12 47L12 48L14 48L14 47ZM49 47L49 48L50 48L50 49L51 49L51 48L50 48L50 47ZM63 48L63 49L64 49L64 48ZM14 49L14 50L15 50L15 49ZM37 49L37 50L38 50L38 49ZM38 52L38 53L39 53L39 52ZM52 52L52 53L53 53L53 52ZM0 53L0 54L1 54L1 53ZM6 53L6 54L7 54L7 53ZM35 54L35 55L37 55L37 54ZM39 54L39 55L40 55L40 54ZM13 56L13 57L14 57L14 56ZM20 57L20 58L21 58L21 57ZM59 57L59 58L58 58L58 59L59 59L59 58L60 58L60 57ZM66 57L66 58L67 58L67 57ZM0 58L0 61L1 61L1 58ZM8 58L8 60L9 60L9 58ZM42 58L42 59L43 59L43 58ZM44 58L44 60L45 60L45 58ZM56 58L56 59L55 59L55 60L56 60L56 61L57 61L57 62L58 62L58 60L56 60L56 59L57 59L57 58ZM21 59L21 60L22 60L22 59ZM23 59L23 60L24 60L24 59ZM3 60L3 61L5 61L5 60ZM6 60L6 61L7 61L7 60ZM38 60L38 61L37 61L37 63L38 63L38 64L37 64L37 65L33 65L33 67L35 67L35 68L37 68L37 66L38 66L38 64L39 64L39 63L38 63L38 61L39 61L39 60ZM52 60L52 61L51 61L51 62L50 62L50 63L49 63L49 64L51 64L51 63L52 63L52 66L53 66L53 65L55 65L55 66L56 66L56 65L55 65L55 64L53 64L53 63L52 63L52 62L53 62L53 60ZM31 61L31 62L30 62L30 63L32 63L32 61ZM33 61L33 64L36 64L36 61ZM61 61L61 64L64 64L64 61ZM34 62L34 63L35 63L35 62ZM62 62L62 63L63 63L63 62ZM9 63L9 64L10 64L10 68L11 68L11 67L12 67L12 68L13 68L13 67L14 67L14 66L15 66L15 65L14 65L14 66L13 66L13 65L12 65L12 66L11 66L11 64L10 64L10 63ZM27 63L27 64L28 64L28 63ZM18 64L18 65L17 65L17 67L18 67L18 66L19 66L19 67L20 67L20 66L21 66L21 69L22 69L22 64L20 64L20 65L19 65L19 64ZM40 64L40 65L39 65L39 66L40 66L40 65L41 65L41 64ZM45 64L45 65L46 65L46 64ZM49 65L49 66L48 66L48 67L49 67L49 66L50 66L50 65ZM12 66L12 67L13 67L13 66ZM25 66L25 67L27 67L27 68L28 68L28 67L27 67L27 66ZM62 66L62 68L63 68L63 67L64 67L64 66ZM54 68L54 69L55 69L55 68ZM66 68L66 69L67 69L67 68ZM68 68L68 69L69 69L69 68ZM0 0L0 7L7 7L7 0ZM1 1L1 6L6 6L6 1ZM2 2L2 5L5 5L5 2ZM62 0L62 7L69 7L69 0ZM63 1L63 6L68 6L68 1ZM64 2L64 5L67 5L67 2ZM0 62L0 69L7 69L7 62ZM1 63L1 68L6 68L6 63ZM2 64L2 67L5 67L5 64Z" fill="#000000"/></g></g></svg>
