<?xml version="1.0" encoding="UTF-8"?>
<svg xmlns="http://www.w3.org/2000/svg" version="1.1" width="300" height="300" viewBox="0 0 300 300"><rect x="0" y="0" width="300" height="300" fill="#ffffff"/><g transform="scale(4.348)"><g transform="translate(0,0)"><path fill-rule="evenodd" d="M8 0L8 4L9 4L9 5L8 5L8 7L9 7L9 5L10 5L10 4L11 4L11 5L12 5L12 4L11 4L11 2L12 2L12 3L14 3L14 2L13 2L13 1L14 1L14 0L12 0L12 1L11 1L11 0ZM16 0L16 2L15 2L15 3L16 3L16 4L15 4L15 6L14 6L14 4L13 4L13 6L12 6L12 7L11 7L11 6L10 6L10 7L11 7L11 9L10 9L10 8L9 8L9 9L10 9L10 10L9 10L9 11L8 11L8 9L7 9L7 8L4 8L4 9L3 9L3 10L5 10L5 12L2 12L2 8L0 8L0 9L1 9L1 10L0 10L0 11L1 11L1 12L0 12L0 13L2 13L2 14L1 14L1 15L0 15L0 17L1 17L1 15L2 15L2 21L1 21L1 19L0 19L0 21L1 21L1 22L2 22L2 23L3 23L3 22L2 22L2 21L4 21L4 22L5 22L5 21L7 21L7 20L8 20L8 19L10 19L10 18L13 18L13 20L12 20L12 22L11 22L11 20L9 20L9 21L8 21L8 22L9 22L9 21L10 21L10 22L11 22L11 23L10 23L10 24L11 24L11 23L12 23L12 22L13 22L13 26L11 26L11 27L9 27L9 28L8 28L8 29L10 29L10 31L11 31L11 35L10 35L10 34L9 34L9 30L6 30L6 29L7 29L7 28L6 28L6 27L7 27L7 26L6 26L6 25L8 25L8 26L10 26L10 25L8 25L8 24L5 24L5 26L3 26L3 25L2 25L2 27L5 27L5 28L4 28L4 29L2 29L2 30L6 30L6 31L4 31L4 34L3 34L3 32L2 32L2 33L1 33L1 30L0 30L0 37L2 37L2 41L3 41L3 42L2 42L2 43L1 43L1 41L0 41L0 45L1 45L1 46L2 46L2 47L1 47L1 48L0 48L0 54L1 54L1 55L2 55L2 53L1 53L1 51L2 51L2 50L3 50L3 51L4 51L4 52L3 52L3 53L4 53L4 59L8 59L8 58L9 58L9 59L10 59L10 60L9 60L9 61L8 61L8 62L9 62L9 63L8 63L8 65L9 65L9 66L10 66L10 67L8 67L8 69L9 69L9 68L10 68L10 69L11 69L11 68L10 68L10 67L12 67L12 66L13 66L13 68L14 68L14 69L16 69L16 68L17 68L17 69L19 69L19 67L20 67L20 66L22 66L22 68L23 68L23 67L24 67L24 66L25 66L25 67L26 67L26 69L29 69L29 67L28 67L28 64L29 64L29 63L31 63L31 64L30 64L30 65L29 65L29 66L30 66L30 67L31 67L31 66L30 66L30 65L32 65L32 67L34 67L34 65L36 65L36 66L35 66L35 69L38 69L38 68L39 68L39 69L40 69L40 68L41 68L41 69L42 69L42 67L43 67L43 68L44 68L44 69L46 69L46 68L44 68L44 67L47 67L47 66L46 66L46 65L49 65L49 64L50 64L50 68L47 68L47 69L52 69L52 68L54 68L54 69L55 69L55 67L56 67L56 69L57 69L57 68L58 68L58 65L57 65L57 64L56 64L56 62L55 62L55 60L56 60L56 61L57 61L57 62L58 62L58 60L60 60L60 62L59 62L59 63L58 63L58 64L59 64L59 63L60 63L60 66L62 66L62 67L61 67L61 68L59 68L59 69L61 69L61 68L62 68L62 69L63 69L63 68L64 68L64 67L65 67L65 66L64 66L64 67L63 67L63 65L65 65L65 63L66 63L66 62L67 62L67 64L68 64L68 65L67 65L67 66L69 66L69 63L68 63L68 62L69 62L69 59L68 59L68 58L69 58L69 57L68 57L68 56L69 56L69 55L68 55L68 53L69 53L69 52L68 52L68 51L69 51L69 47L68 47L68 46L69 46L69 45L67 45L67 44L65 44L65 43L64 43L64 41L65 41L65 42L66 42L66 43L68 43L68 44L69 44L69 43L68 43L68 42L69 42L69 41L68 41L68 42L67 42L67 40L68 40L68 38L69 38L69 36L68 36L68 37L67 37L67 36L66 36L66 37L65 37L65 35L66 35L66 34L67 34L67 35L68 35L68 33L69 33L69 32L68 32L68 31L67 31L67 30L65 30L65 29L66 29L66 28L65 28L65 26L64 26L64 27L63 27L63 24L62 24L62 22L63 22L63 23L64 23L64 22L65 22L65 23L66 23L66 22L67 22L67 24L65 24L65 25L66 25L66 27L68 27L68 26L69 26L69 25L67 25L67 24L68 24L68 22L67 22L67 21L66 21L66 19L67 19L67 20L68 20L68 21L69 21L69 20L68 20L68 18L66 18L66 19L65 19L65 17L64 17L64 16L65 16L65 15L64 15L64 14L65 14L65 13L64 13L64 12L65 12L65 11L67 11L67 10L65 10L65 9L69 9L69 8L65 8L65 9L64 9L64 8L63 8L63 9L62 9L62 10L61 10L61 8L60 8L60 9L59 9L59 11L58 11L58 12L59 12L59 13L60 13L60 14L61 14L61 13L62 13L62 14L63 14L63 15L62 15L62 20L63 20L63 21L62 21L62 22L61 22L61 20L60 20L60 21L59 21L59 20L58 20L58 21L57 21L57 19L59 19L59 18L60 18L60 19L61 19L61 15L59 15L59 14L58 14L58 13L57 13L57 10L56 10L56 11L54 11L54 13L53 13L53 14L55 14L55 13L56 13L56 14L58 14L58 15L57 15L57 16L56 16L56 15L52 15L52 16L50 16L50 15L49 15L49 13L50 13L50 14L52 14L52 13L50 13L50 12L51 12L51 9L52 9L52 10L55 10L55 9L54 9L54 8L53 8L53 5L54 5L54 7L55 7L55 8L56 8L56 9L58 9L58 8L59 8L59 4L58 4L58 8L57 8L57 6L56 6L56 7L55 7L55 5L57 5L57 4L56 4L56 3L59 3L59 2L58 2L58 1L61 1L61 0L58 0L58 1L57 1L57 0L56 0L56 1L55 1L55 0L50 0L50 1L49 1L49 0L47 0L47 3L49 3L49 5L46 5L46 3L45 3L45 2L46 2L46 0L45 0L45 1L44 1L44 0L41 0L41 1L40 1L40 0L38 0L38 1L40 1L40 2L39 2L39 3L40 3L40 4L41 4L41 6L40 6L40 5L39 5L39 4L38 4L38 7L37 7L37 4L36 4L36 3L35 3L35 2L37 2L37 3L38 3L38 2L37 2L37 0L34 0L34 1L33 1L33 0L32 0L32 1L31 1L31 0L29 0L29 1L30 1L30 3L32 3L32 5L31 5L31 4L30 4L30 5L29 5L29 6L28 6L28 4L29 4L29 2L28 2L28 3L27 3L27 5L25 5L25 3L24 3L24 5L23 5L23 3L19 3L19 1L20 1L20 2L21 2L21 0ZM23 0L23 2L24 2L24 1L26 1L26 2L27 2L27 1L26 1L26 0ZM32 1L32 3L34 3L34 2L33 2L33 1ZM41 1L41 2L40 2L40 3L41 3L41 2L42 2L42 3L43 3L43 7L42 7L42 6L41 6L41 7L42 7L42 8L40 8L40 10L39 10L39 11L37 11L37 10L36 10L36 9L35 9L35 10L34 10L34 9L33 9L33 10L31 10L31 9L32 9L32 6L31 6L31 5L30 5L30 6L29 6L29 7L28 7L28 6L27 6L27 7L28 7L28 8L30 8L30 6L31 6L31 9L26 9L26 6L25 6L25 7L24 7L24 6L23 6L23 5L21 5L21 7L20 7L20 5L19 5L19 7L18 7L18 4L19 4L19 3L17 3L17 2L16 2L16 3L17 3L17 5L16 5L16 6L15 6L15 8L13 8L13 7L14 7L14 6L13 6L13 7L12 7L12 8L13 8L13 9L11 9L11 10L10 10L10 11L9 11L9 12L8 12L8 11L6 11L6 12L5 12L5 13L3 13L3 14L2 14L2 15L3 15L3 14L5 14L5 15L4 15L4 16L3 16L3 18L4 18L4 19L3 19L3 20L4 20L4 21L5 21L5 20L7 20L7 19L5 19L5 17L6 17L6 18L9 18L9 17L8 17L8 16L7 16L7 15L6 15L6 14L7 14L7 13L9 13L9 14L8 14L8 15L9 15L9 16L11 16L11 15L12 15L12 17L13 17L13 18L14 18L14 15L15 15L15 16L17 16L17 15L18 15L18 13L16 13L16 12L18 12L18 11L19 11L19 10L20 10L20 12L21 12L21 10L20 10L20 9L22 9L22 10L23 10L23 9L24 9L24 10L25 10L25 11L26 11L26 12L27 12L27 13L25 13L25 12L24 12L24 11L22 11L22 13L25 13L25 14L26 14L26 16L27 16L27 17L25 17L25 19L24 19L24 20L25 20L25 21L26 21L26 20L25 20L25 19L29 19L29 20L31 20L31 21L30 21L30 22L31 22L31 21L35 21L35 20L34 20L34 19L37 19L37 20L36 20L36 21L37 21L37 22L35 22L35 24L34 24L34 22L33 22L33 23L28 23L28 22L29 22L29 21L28 21L28 22L25 22L25 23L23 23L23 20L22 20L22 18L23 18L23 14L21 14L21 15L20 15L20 13L19 13L19 16L18 16L18 17L17 17L17 18L16 18L16 17L15 17L15 19L14 19L14 20L16 20L16 22L17 22L17 23L14 23L14 25L17 25L17 23L18 23L18 24L19 24L19 27L18 27L18 26L16 26L16 27L15 27L15 26L13 26L13 27L12 27L12 28L10 28L10 29L11 29L11 30L12 30L12 29L16 29L16 32L17 32L17 33L16 33L16 34L15 34L15 35L13 35L13 34L14 34L14 33L15 33L15 32L14 32L14 31L15 31L15 30L13 30L13 31L12 31L12 33L13 33L13 34L12 34L12 35L13 35L13 36L12 36L12 37L13 37L13 38L15 38L15 39L16 39L16 41L12 41L12 39L10 39L10 38L9 38L9 37L8 37L8 38L9 38L9 39L3 39L3 40L7 40L7 41L5 41L5 43L4 43L4 42L3 42L3 43L4 43L4 45L5 45L5 46L7 46L7 45L6 45L6 44L8 44L8 47L4 47L4 49L3 49L3 50L4 50L4 51L6 51L6 52L7 52L7 53L5 53L5 56L7 56L7 55L8 55L8 56L9 56L9 58L10 58L10 57L11 57L11 58L12 58L12 59L11 59L11 60L12 60L12 59L13 59L13 58L15 58L15 57L17 57L17 56L19 56L19 57L21 57L21 59L19 59L19 58L16 58L16 59L15 59L15 61L16 61L16 64L15 64L15 63L14 63L14 61L13 61L13 63L14 63L14 67L15 67L15 68L16 68L16 67L18 67L18 66L17 66L17 65L18 65L18 64L19 64L19 65L20 65L20 63L21 63L21 64L22 64L22 66L23 66L23 65L27 65L27 64L28 64L28 63L29 63L29 60L27 60L27 61L28 61L28 62L27 62L27 64L26 64L26 63L25 63L25 62L26 62L26 55L25 55L25 54L26 54L26 52L25 52L25 50L24 50L24 51L22 51L22 50L21 50L21 49L19 49L19 48L18 48L18 49L17 49L17 47L18 47L18 46L17 46L17 45L16 45L16 46L15 46L15 48L14 48L14 49L13 49L13 47L14 47L14 46L12 46L12 45L11 45L11 44L8 44L8 43L6 43L6 42L7 42L7 41L8 41L8 42L9 42L9 43L10 43L10 42L9 42L9 41L8 41L8 40L9 40L9 39L10 39L10 40L11 40L11 41L12 41L12 42L11 42L11 43L12 43L12 44L13 44L13 45L15 45L15 44L13 44L13 43L16 43L16 42L17 42L17 40L19 40L19 41L18 41L18 42L19 42L19 44L20 44L20 45L19 45L19 47L20 47L20 48L21 48L21 47L22 47L22 46L23 46L23 44L24 44L24 43L22 43L22 42L23 42L23 41L24 41L24 42L25 42L25 43L26 43L26 44L25 44L25 45L26 45L26 47L25 47L25 46L24 46L24 48L27 48L27 50L26 50L26 51L28 51L28 50L29 50L29 49L28 49L28 47L29 47L29 46L30 46L30 48L31 48L31 47L32 47L32 46L33 46L33 47L34 47L34 49L33 49L33 48L32 48L32 50L31 50L31 51L29 51L29 52L31 52L31 51L32 51L32 52L33 52L33 50L34 50L34 49L35 49L35 50L37 50L37 51L35 51L35 52L34 52L34 60L37 60L37 62L38 62L38 63L37 63L37 64L38 64L38 65L39 65L39 66L40 66L40 67L39 67L39 68L40 68L40 67L41 67L41 66L40 66L40 65L41 65L41 64L40 64L40 65L39 65L39 62L40 62L40 63L41 63L41 62L40 62L40 61L41 61L41 60L42 60L42 59L43 59L43 67L44 67L44 62L45 62L45 61L46 61L46 62L47 62L47 64L49 64L49 63L50 63L50 64L52 64L52 66L51 66L51 67L52 67L52 66L53 66L53 64L55 64L55 66L54 66L54 67L55 67L55 66L56 66L56 67L57 67L57 66L56 66L56 64L55 64L55 62L54 62L54 63L53 63L53 64L52 64L52 63L51 63L51 62L52 62L52 61L54 61L54 60L55 60L55 58L53 58L53 60L52 60L52 61L51 61L51 62L50 62L50 61L46 61L46 60L49 60L49 58L50 58L50 60L51 60L51 59L52 59L52 58L50 58L50 57L51 57L51 55L53 55L53 56L52 56L52 57L54 57L54 55L53 55L53 54L51 54L51 55L47 55L47 56L50 56L50 57L49 57L49 58L48 58L48 59L46 59L46 60L45 60L45 59L43 59L43 58L42 58L42 59L41 59L41 58L40 58L40 57L41 57L41 56L42 56L42 54L41 54L41 53L43 53L43 54L44 54L44 56L43 56L43 57L44 57L44 58L45 58L45 57L44 57L44 56L45 56L45 53L44 53L44 52L45 52L45 51L47 51L47 52L49 52L49 54L50 54L50 52L51 52L51 51L50 51L50 52L49 52L49 50L50 50L50 49L51 49L51 50L52 50L52 51L53 51L53 52L52 52L52 53L56 53L56 52L57 52L57 53L58 53L58 54L56 54L56 55L55 55L55 57L56 57L56 55L58 55L58 54L59 54L59 53L60 53L60 54L61 54L61 53L62 53L62 55L64 55L64 56L63 56L63 57L64 57L64 60L65 60L65 61L68 61L68 60L67 60L67 59L65 59L65 58L67 58L67 57L66 57L66 56L68 56L68 55L67 55L67 54L66 54L66 55L64 55L64 54L65 54L65 53L67 53L67 51L68 51L68 47L67 47L67 46L66 46L66 45L65 45L65 44L64 44L64 46L62 46L62 47L61 47L61 45L62 45L62 44L59 44L59 45L58 45L58 46L57 46L57 49L58 49L58 51L59 51L59 53L58 53L58 52L57 52L57 51L56 51L56 50L55 50L55 51L53 51L53 50L52 50L52 49L53 49L53 47L54 47L54 49L56 49L56 44L58 44L58 43L59 43L59 42L60 42L60 43L63 43L63 41L64 41L64 40L65 40L65 41L66 41L66 40L67 40L67 39L66 39L66 38L65 38L65 37L62 37L62 39L61 39L61 40L63 40L63 41L60 41L60 40L59 40L59 36L57 36L57 37L56 37L56 34L57 34L57 35L58 35L58 34L59 34L59 35L60 35L60 34L59 34L59 32L62 32L62 31L63 31L63 32L66 32L66 33L65 33L65 34L66 34L66 33L68 33L68 32L67 32L67 31L65 31L65 30L64 30L64 29L65 29L65 28L64 28L64 29L63 29L63 27L62 27L62 28L61 28L61 27L60 27L60 26L59 26L59 24L61 24L61 22L60 22L60 23L59 23L59 21L58 21L58 22L56 22L56 19L57 19L57 17L58 17L58 18L59 18L59 17L58 17L58 16L59 16L59 15L58 15L58 16L57 16L57 17L56 17L56 16L52 16L52 17L51 17L51 18L50 18L50 16L49 16L49 15L48 15L48 14L47 14L47 11L46 11L46 10L47 10L47 8L49 8L49 10L50 10L50 9L51 9L51 8L52 8L52 9L53 9L53 8L52 8L52 3L51 3L51 2L54 2L54 3L56 3L56 2L55 2L55 1L50 1L50 4L51 4L51 5L49 5L49 7L48 7L48 6L47 6L47 8L45 8L45 9L44 9L44 8L43 8L43 7L44 7L44 6L45 6L45 7L46 7L46 5L44 5L44 4L45 4L45 3L43 3L43 2L42 2L42 1ZM9 3L9 4L10 4L10 3ZM60 3L60 5L61 5L61 3ZM33 5L33 8L36 8L36 5ZM16 6L16 7L17 7L17 6ZM22 6L22 8L23 8L23 6ZM34 6L34 7L35 7L35 6ZM39 6L39 7L38 7L38 8L37 8L37 9L39 9L39 7L40 7L40 6ZM50 6L50 7L49 7L49 8L50 8L50 7L51 7L51 6ZM60 6L60 7L61 7L61 6ZM15 8L15 11L18 11L18 10L19 10L19 9L20 9L20 8L17 8L17 10L16 10L16 8ZM24 8L24 9L25 9L25 10L26 10L26 11L27 11L27 12L28 12L28 13L27 13L27 16L28 16L28 13L30 13L30 14L31 14L31 16L29 16L29 17L31 17L31 18L29 18L29 19L31 19L31 20L32 20L32 18L34 18L34 17L33 17L33 16L32 16L32 13L33 13L33 12L32 12L32 11L31 11L31 12L29 12L29 10L28 10L28 11L27 11L27 10L26 10L26 9L25 9L25 8ZM42 8L42 9L41 9L41 10L43 10L43 12L44 12L44 13L41 13L41 15L38 15L38 16L36 16L36 15L34 15L34 16L35 16L35 17L38 17L38 22L37 22L37 23L36 23L36 24L37 24L37 23L39 23L39 24L38 24L38 26L37 26L37 25L36 25L36 26L37 26L37 28L38 28L38 27L39 27L39 29L34 29L34 28L35 28L35 27L34 27L34 26L35 26L35 25L34 25L34 24L29 24L29 25L30 25L30 26L32 26L32 27L30 27L30 28L29 28L29 29L31 29L31 31L30 31L30 30L28 30L28 23L26 23L26 25L25 25L25 24L22 24L22 23L21 23L21 24L20 24L20 23L19 23L19 24L20 24L20 27L21 27L21 25L24 25L24 26L25 26L25 27L26 27L26 29L24 29L24 27L23 27L23 26L22 26L22 27L23 27L23 29L22 29L22 28L21 28L21 29L20 29L20 28L17 28L17 31L18 31L18 29L20 29L20 30L22 30L22 31L19 31L19 32L18 32L18 33L17 33L17 34L16 34L16 36L15 36L15 38L16 38L16 39L18 39L18 38L19 38L19 37L20 37L20 39L19 39L19 40L20 40L20 43L21 43L21 42L22 42L22 41L21 41L21 39L22 39L22 40L23 40L23 39L25 39L25 40L24 40L24 41L25 41L25 42L26 42L26 43L27 43L27 44L26 44L26 45L27 45L27 46L28 46L28 45L34 45L34 44L33 44L33 42L34 42L34 43L38 43L38 46L34 46L34 47L37 47L37 48L35 48L35 49L38 49L38 50L39 50L39 51L37 51L37 52L38 52L38 54L37 54L37 53L35 53L35 55L36 55L36 54L37 54L37 55L38 55L38 56L37 56L37 57L36 57L36 58L35 58L35 59L37 59L37 60L38 60L38 59L37 59L37 57L38 57L38 58L39 58L39 61L38 61L38 62L39 62L39 61L40 61L40 58L39 58L39 57L40 57L40 55L41 55L41 54L40 54L40 55L39 55L39 53L40 53L40 52L41 52L41 51L42 51L42 50L43 50L43 52L44 52L44 51L45 51L45 50L44 50L44 49L45 49L45 48L44 48L44 47L45 47L45 46L46 46L46 47L47 47L47 46L46 46L46 44L45 44L45 42L46 42L46 39L45 39L45 40L44 40L44 39L43 39L43 40L44 40L44 41L40 41L40 39L42 39L42 38L44 38L44 37L47 37L47 42L49 42L49 40L50 40L50 39L49 39L49 37L50 37L50 38L52 38L52 39L51 39L51 41L50 41L50 43L51 43L51 41L52 41L52 44L51 44L51 45L49 45L49 43L47 43L47 45L48 45L48 46L49 46L49 47L48 47L48 49L50 49L50 48L51 48L51 45L52 45L52 44L53 44L53 46L52 46L52 47L53 47L53 46L55 46L55 44L56 44L56 42L58 42L58 41L57 41L57 40L58 40L58 37L57 37L57 38L55 38L55 32L56 32L56 33L57 33L57 34L58 34L58 32L57 32L57 31L56 31L56 30L55 30L55 29L54 29L54 27L53 27L53 29L52 29L52 26L51 26L51 25L52 25L52 24L53 24L53 26L55 26L55 23L56 23L56 25L57 25L57 26L56 26L56 27L55 27L55 28L56 28L56 29L57 29L57 30L58 30L58 31L59 31L59 30L60 30L60 31L61 31L61 28L60 28L60 29L59 29L59 30L58 30L58 24L59 24L59 23L56 23L56 22L55 22L55 21L53 21L53 22L52 22L52 20L51 20L51 21L50 21L50 22L49 22L49 20L46 20L46 19L48 19L48 18L49 18L49 19L50 19L50 18L49 18L49 16L47 16L47 14L46 14L46 13L45 13L45 12L44 12L44 11L45 11L45 10L46 10L46 9L45 9L45 10L44 10L44 9L43 9L43 8ZM5 9L5 10L7 10L7 9ZM63 9L63 10L64 10L64 9ZM11 10L11 12L10 12L10 13L11 13L11 14L12 14L12 15L14 15L14 14L15 14L15 15L17 15L17 14L15 14L15 13L11 13L11 12L13 12L13 11L14 11L14 10L13 10L13 11L12 11L12 10ZM33 10L33 11L34 11L34 13L36 13L36 14L37 14L37 13L38 13L38 14L40 14L40 12L42 12L42 11L39 11L39 13L38 13L38 12L37 12L37 13L36 13L36 11L34 11L34 10ZM48 11L48 12L49 12L49 11ZM61 11L61 12L60 12L60 13L61 13L61 12L62 12L62 13L63 13L63 14L64 14L64 13L63 13L63 12L62 12L62 11ZM68 11L68 12L67 12L67 15L68 15L68 14L69 14L69 11ZM6 12L6 13L5 13L5 14L6 14L6 13L7 13L7 12ZM31 12L31 13L32 13L32 12ZM44 13L44 14L42 14L42 15L43 15L43 17L44 17L44 15L45 15L45 17L46 17L46 18L47 18L47 17L46 17L46 15L45 15L45 13ZM4 16L4 17L5 17L5 16ZM6 16L6 17L7 17L7 16ZM19 16L19 17L18 17L18 18L19 18L19 17L22 17L22 16ZM38 16L38 17L39 17L39 16ZM40 16L40 17L42 17L42 16ZM66 16L66 17L67 17L67 16ZM68 16L68 17L69 17L69 16ZM27 17L27 18L28 18L28 17ZM53 17L53 18L51 18L51 19L53 19L53 18L56 18L56 17ZM63 17L63 20L64 20L64 21L65 21L65 20L64 20L64 17ZM20 18L20 19L16 19L16 20L17 20L17 21L20 21L20 22L21 22L21 21L22 21L22 20L21 20L21 18ZM41 18L41 19L39 19L39 22L41 22L41 21L43 21L43 22L42 22L42 24L43 24L43 25L44 25L44 28L40 28L40 29L39 29L39 30L40 30L40 31L37 31L37 30L34 30L34 29L33 29L33 28L34 28L34 27L32 27L32 28L31 28L31 29L33 29L33 30L32 30L32 32L33 32L33 30L34 30L34 31L35 31L35 32L37 32L37 38L36 38L36 37L35 37L35 38L36 38L36 39L35 39L35 40L34 40L34 38L33 38L33 39L32 39L32 35L31 35L31 34L32 34L32 33L30 33L30 32L29 32L29 31L27 31L27 30L23 30L23 31L27 31L27 32L29 32L29 33L27 33L27 34L25 34L25 35L23 35L23 34L22 34L22 33L23 33L23 32L22 32L22 33L21 33L21 34L20 34L20 35L18 35L18 34L17 34L17 36L16 36L16 38L18 38L18 37L17 37L17 36L21 36L21 35L22 35L22 37L21 37L21 38L23 38L23 37L24 37L24 36L25 36L25 38L26 38L26 39L27 39L27 38L26 38L26 35L27 35L27 36L28 36L28 38L30 38L30 37L29 37L29 36L30 36L30 35L31 35L31 39L28 39L28 40L27 40L27 41L28 41L28 43L30 43L30 44L31 44L31 43L32 43L32 42L33 42L33 40L34 40L34 41L35 41L35 40L36 40L36 41L37 41L37 42L38 42L38 43L40 43L40 45L39 45L39 46L38 46L38 48L39 48L39 47L41 47L41 48L40 48L40 49L42 49L42 47L43 47L43 46L42 46L42 47L41 47L41 45L44 45L44 44L41 44L41 42L38 42L38 40L39 40L39 39L40 39L40 38L41 38L41 37L42 37L42 36L41 36L41 33L44 33L44 34L43 34L43 37L44 37L44 34L45 34L45 33L44 33L44 30L45 30L45 29L44 29L44 28L46 28L46 31L45 31L45 32L46 32L46 31L48 31L48 29L47 29L47 27L50 27L50 28L51 28L51 26L50 26L50 25L49 25L49 26L47 26L47 25L48 25L48 23L49 23L49 22L48 22L48 21L46 21L46 20L45 20L45 19L44 19L44 18ZM41 19L41 20L42 20L42 19ZM54 19L54 20L55 20L55 19ZM44 20L44 21L45 21L45 22L44 22L44 25L45 25L45 27L47 27L47 26L46 26L46 25L47 25L47 23L46 23L46 21L45 21L45 20ZM14 21L14 22L15 22L15 21ZM6 22L6 23L7 23L7 22ZM50 22L50 24L51 24L51 22ZM0 23L0 26L1 26L1 23ZM40 24L40 27L43 27L43 26L41 26L41 24ZM32 25L32 26L34 26L34 25ZM5 26L5 27L6 27L6 26ZM26 26L26 27L27 27L27 26ZM0 27L0 28L1 28L1 27ZM13 27L13 28L14 28L14 27ZM56 27L56 28L57 28L57 27ZM68 28L68 29L69 29L69 28ZM41 29L41 31L43 31L43 30L44 30L44 29ZM49 29L49 31L50 31L50 32L49 32L49 33L46 33L46 34L48 34L48 35L47 35L47 36L50 36L50 37L51 37L51 36L52 36L52 37L53 37L53 36L54 36L54 33L53 33L53 31L54 31L54 32L55 32L55 30L53 30L53 31L52 31L52 30L51 30L51 31L50 31L50 29ZM62 29L62 30L63 30L63 29ZM6 31L6 32L8 32L8 31ZM19 32L19 33L20 33L20 32ZM25 32L25 33L26 33L26 32ZM50 32L50 34L51 34L51 35L50 35L50 36L51 36L51 35L52 35L52 36L53 36L53 33L52 33L52 32ZM5 33L5 36L8 36L8 33ZM29 33L29 34L28 34L28 36L29 36L29 35L30 35L30 33ZM33 33L33 36L36 36L36 33ZM38 33L38 34L40 34L40 33ZM51 33L51 34L52 34L52 33ZM61 33L61 36L64 36L64 33ZM1 34L1 35L2 35L2 37L3 37L3 35L2 35L2 34ZM6 34L6 35L7 35L7 34ZM34 34L34 35L35 35L35 34ZM62 34L62 35L63 35L63 34ZM38 35L38 38L40 38L40 37L39 37L39 35ZM45 35L45 36L46 36L46 35ZM4 37L4 38L7 38L7 37ZM54 38L54 39L53 39L53 40L52 40L52 41L53 41L53 40L55 40L55 42L56 42L56 39L55 39L55 38ZM64 38L64 39L63 39L63 40L64 40L64 39L65 39L65 38ZM13 39L13 40L14 40L14 39ZM31 39L31 40L28 40L28 41L32 41L32 39ZM37 39L37 40L38 40L38 39ZM48 39L48 40L49 40L49 39ZM25 40L25 41L26 41L26 40ZM43 42L43 43L44 43L44 42ZM53 43L53 44L55 44L55 43ZM2 44L2 46L3 46L3 44ZM21 44L21 45L20 45L20 47L21 47L21 46L22 46L22 44ZM27 44L27 45L28 45L28 44ZM36 44L36 45L37 45L37 44ZM10 45L10 46L9 46L9 47L8 47L8 49L7 49L7 48L6 48L6 49L7 49L7 50L6 50L6 51L7 51L7 52L8 52L8 53L9 53L9 54L12 54L12 55L9 55L9 56L11 56L11 57L12 57L12 58L13 58L13 57L12 57L12 56L13 56L13 55L14 55L14 56L17 56L17 55L20 55L20 54L21 54L21 53L22 53L22 52L21 52L21 50L20 50L20 51L19 51L19 49L18 49L18 51L17 51L17 50L16 50L16 48L15 48L15 50L16 50L16 51L17 51L17 52L15 52L15 51L14 51L14 52L13 52L13 51L12 51L12 50L11 50L11 49L10 49L10 48L12 48L12 47L10 47L10 46L11 46L11 45ZM59 45L59 46L58 46L58 49L59 49L59 50L60 50L60 49L62 49L62 50L63 50L63 51L60 51L60 53L61 53L61 52L63 52L63 51L64 51L64 49L65 49L65 48L64 48L64 47L66 47L66 46L64 46L64 47L62 47L62 48L61 48L61 47L59 47L59 46L60 46L60 45ZM16 46L16 47L17 47L17 46ZM2 47L2 48L3 48L3 47ZM9 47L9 48L10 48L10 47ZM49 47L49 48L50 48L50 47ZM22 48L22 49L23 49L23 48ZM43 48L43 49L44 49L44 48ZM59 48L59 49L60 49L60 48ZM62 48L62 49L64 49L64 48ZM8 49L8 50L7 50L7 51L8 51L8 50L9 50L9 52L10 52L10 51L11 51L11 50L10 50L10 49ZM40 50L40 51L39 51L39 52L40 52L40 51L41 51L41 50ZM47 50L47 51L48 51L48 50ZM65 50L65 51L67 51L67 50ZM11 52L11 53L12 53L12 54L13 54L13 53L12 53L12 52ZM14 52L14 53L15 53L15 52ZM24 52L24 53L23 53L23 56L22 56L22 55L21 55L21 57L24 57L24 58L25 58L25 55L24 55L24 54L25 54L25 52ZM27 52L27 53L28 53L28 54L27 54L27 55L28 55L28 54L31 54L31 55L29 55L29 56L31 56L31 57L28 57L28 56L27 56L27 57L28 57L28 58L29 58L29 59L30 59L30 60L31 60L31 63L32 63L32 60L33 60L33 57L32 57L32 54L33 54L33 53L28 53L28 52ZM16 53L16 55L17 55L17 54L20 54L20 53ZM46 53L46 54L48 54L48 53ZM63 53L63 54L64 54L64 53ZM6 54L6 55L7 55L7 54ZM14 54L14 55L15 55L15 54ZM38 56L38 57L39 57L39 56ZM57 56L57 57L58 57L58 59L59 59L59 58L60 58L60 59L61 59L61 57L60 57L60 56L59 56L59 57L58 57L58 56ZM2 57L2 59L3 59L3 57ZM5 57L5 58L7 58L7 57ZM31 57L31 58L30 58L30 59L31 59L31 60L32 60L32 59L31 59L31 58L32 58L32 57ZM46 57L46 58L47 58L47 57ZM0 58L0 61L1 61L1 58ZM22 58L22 59L23 59L23 61L24 61L24 62L25 62L25 61L24 61L24 59L23 59L23 58ZM62 58L62 59L63 59L63 58ZM56 59L56 60L57 60L57 59ZM3 60L3 61L5 61L5 60ZM6 60L6 61L7 61L7 60ZM17 60L17 63L18 63L18 61L20 61L20 62L21 62L21 63L22 63L22 64L24 64L24 63L23 63L23 62L21 62L21 61L22 61L22 60ZM44 60L44 61L45 61L45 60ZM10 61L10 62L11 62L11 63L9 63L9 64L10 64L10 65L11 65L11 66L12 66L12 65L11 65L11 63L12 63L12 61ZM33 61L33 64L36 64L36 61ZM61 61L61 64L64 64L64 61ZM34 62L34 63L35 63L35 62ZM48 62L48 63L49 63L49 62ZM62 62L62 63L63 63L63 62ZM16 64L16 65L15 65L15 66L16 66L16 65L17 65L17 64ZM26 66L26 67L27 67L27 68L28 68L28 67L27 67L27 66ZM36 67L36 68L38 68L38 67ZM62 67L62 68L63 68L63 67ZM24 68L24 69L25 69L25 68ZM30 68L30 69L31 69L31 68ZM32 68L32 69L33 69L33 68ZM66 68L66 69L67 69L67 68ZM68 68L68 69L69 69L69 68ZM0 0L0 7L7 7L7 0ZM1 1L1 6L6 6L6 1ZM2 2L2 5L5 5L5 2ZM62 0L62 7L69 7L69 0ZM63 1L63 6L68 6L68 1ZM64 2L64 5L67 5L67 2ZM0 62L0 69L7 69L7 62ZM1 63L1 68L6 68L6 63ZM2 64L2 67L5 67L5 64Z" fill="#000000"/></g></g></svg>
