<?xml version="1.0" encoding="UTF-8"?>
<svg xmlns="http://www.w3.org/2000/svg" version="1.1" width="300" height="300" viewBox="0 0 300 300"><rect x="0" y="0" width="300" height="300" fill="#ffffff"/><g transform="scale(4.348)"><g transform="translate(0,0)"><path fill-rule="evenodd" d="M8 0L8 4L9 4L9 3L10 3L10 4L12 4L12 5L8 5L8 7L9 7L9 6L10 6L10 8L9 8L9 9L7 9L7 8L4 8L4 9L2 9L2 8L0 8L0 9L2 9L2 10L1 10L1 11L3 11L3 12L2 12L2 13L3 13L3 14L2 14L2 15L3 15L3 14L4 14L4 15L7 15L7 14L8 14L8 15L9 15L9 16L6 16L6 17L8 17L8 19L7 19L7 18L6 18L6 19L4 19L4 17L2 17L2 16L0 16L0 17L1 17L1 18L3 18L3 19L1 19L1 20L2 20L2 22L3 22L3 24L2 24L2 25L1 25L1 24L0 24L0 26L1 26L1 27L0 27L0 29L1 29L1 28L2 28L2 30L1 30L1 31L0 31L0 32L1 32L1 31L2 31L2 33L3 33L3 34L4 34L4 39L3 39L3 37L1 37L1 38L0 38L0 39L1 39L1 40L0 40L0 41L1 41L1 42L0 42L0 43L1 43L1 42L2 42L2 44L0 44L0 47L2 47L2 48L1 48L1 49L0 49L0 51L1 51L1 52L0 52L0 56L1 56L1 54L2 54L2 55L4 55L4 56L2 56L2 57L1 57L1 58L0 58L0 61L1 61L1 58L2 58L2 59L3 59L3 58L4 58L4 59L8 59L8 58L5 58L5 57L4 57L4 56L5 56L5 55L4 55L4 54L2 54L2 53L5 53L5 52L2 52L2 48L3 48L3 51L4 51L4 50L5 50L5 45L7 45L7 46L6 46L6 47L8 47L8 46L9 46L9 45L11 45L11 46L13 46L13 47L9 47L9 49L8 49L8 50L10 50L10 51L11 51L11 52L12 52L12 53L11 53L11 55L10 55L10 52L9 52L9 51L7 51L7 50L6 50L6 51L7 51L7 52L6 52L6 53L7 53L7 54L6 54L6 55L8 55L8 54L9 54L9 55L10 55L10 56L6 56L6 57L10 57L10 58L9 58L9 59L10 59L10 60L8 60L8 62L10 62L10 64L11 64L11 65L9 65L9 63L8 63L8 65L9 65L9 66L10 66L10 67L8 67L8 69L9 69L9 68L10 68L10 69L12 69L12 68L11 68L11 67L13 67L13 68L14 68L14 66L15 66L15 65L17 65L17 66L16 66L16 67L15 67L15 68L16 68L16 67L17 67L17 69L19 69L19 68L18 68L18 67L17 67L17 66L19 66L19 67L20 67L20 66L21 66L21 67L22 67L22 68L21 68L21 69L22 69L22 68L23 68L23 69L25 69L25 68L26 68L26 69L28 69L28 68L27 68L27 67L28 67L28 66L29 66L29 69L31 69L31 67L32 67L32 69L33 69L33 67L34 67L34 68L35 68L35 67L34 67L34 65L35 65L35 66L36 66L36 65L37 65L37 67L39 67L39 66L40 66L40 63L41 63L41 67L40 67L40 68L38 68L38 69L40 69L40 68L41 68L41 69L42 69L42 67L43 67L43 63L42 63L42 62L43 62L43 61L42 61L42 58L45 58L45 59L44 59L44 62L46 62L46 64L47 64L47 63L48 63L48 65L47 65L47 67L48 67L48 65L50 65L50 66L49 66L49 68L47 68L47 69L49 69L49 68L50 68L50 69L52 69L52 68L53 68L53 67L55 67L55 66L56 66L56 65L57 65L57 66L58 66L58 65L57 65L57 64L58 64L58 61L57 61L57 60L56 60L56 61L55 61L55 60L54 60L54 61L53 61L53 62L52 62L52 64L50 64L50 63L49 63L49 61L50 61L50 62L51 62L51 61L52 61L52 60L53 60L53 59L54 59L54 58L55 58L55 59L56 59L56 58L55 58L55 56L56 56L56 57L57 57L57 59L58 59L58 60L60 60L60 62L59 62L59 63L60 63L60 65L59 65L59 66L61 66L61 67L59 67L59 68L61 68L61 67L63 67L63 68L64 68L64 67L65 67L65 66L66 66L66 67L67 67L67 66L69 66L69 65L68 65L68 62L69 62L69 60L68 60L68 58L69 58L69 55L68 55L68 53L69 53L69 52L68 52L68 50L67 50L67 52L66 52L66 53L65 53L65 54L64 54L64 53L62 53L62 52L63 52L63 51L64 51L64 49L65 49L65 47L66 47L66 46L67 46L67 47L68 47L68 46L69 46L69 45L68 45L68 43L67 43L67 41L68 41L68 38L69 38L69 35L68 35L68 33L69 33L69 31L68 31L68 32L67 32L67 34L66 34L66 35L65 35L65 33L66 33L66 32L63 32L63 30L64 30L64 27L65 27L65 29L66 29L66 27L65 27L65 25L68 25L68 21L69 21L69 20L68 20L68 18L67 18L67 16L68 16L68 17L69 17L69 16L68 16L68 14L69 14L69 13L68 13L68 11L67 11L67 10L64 10L64 11L62 11L62 12L61 12L61 13L60 13L60 12L59 12L59 11L61 11L61 9L60 9L60 8L59 8L59 4L58 4L58 5L57 5L57 4L56 4L56 3L59 3L59 2L58 2L58 1L61 1L61 0L58 0L58 1L57 1L57 0L56 0L56 1L55 1L55 0L52 0L52 1L51 1L51 0L50 0L50 1L49 1L49 0L47 0L47 2L46 2L46 3L45 3L45 1L46 1L46 0L45 0L45 1L44 1L44 0L41 0L41 1L40 1L40 0L38 0L38 1L40 1L40 2L39 2L39 3L40 3L40 4L41 4L41 6L40 6L40 5L39 5L39 4L38 4L38 3L37 3L37 1L35 1L35 0L34 0L34 1L33 1L33 0L32 0L32 1L31 1L31 0L30 0L30 1L29 1L29 0L23 0L23 1L22 1L22 2L23 2L23 3L22 3L22 4L21 4L21 3L19 3L19 2L17 2L17 3L19 3L19 4L18 4L18 5L17 5L17 4L16 4L16 7L17 7L17 6L18 6L18 7L19 7L19 4L20 4L20 10L19 10L19 11L18 11L18 12L17 12L17 13L16 13L16 11L17 11L17 10L15 10L15 12L14 12L14 13L15 13L15 15L14 15L14 18L16 18L16 19L13 19L13 20L12 20L12 22L13 22L13 23L12 23L12 24L14 24L14 23L15 23L15 24L17 24L17 25L14 25L14 26L13 26L13 25L10 25L10 22L8 22L8 21L11 21L11 19L12 19L12 18L13 18L13 13L12 13L12 14L10 14L10 13L8 13L8 12L9 12L9 11L10 11L10 12L12 12L12 11L14 11L14 10L9 10L9 9L11 9L11 6L12 6L12 8L13 8L13 2L12 2L12 3L11 3L11 1L12 1L12 0L11 0L11 1L10 1L10 0ZM13 0L13 1L14 1L14 2L15 2L15 3L16 3L16 2L15 2L15 1L14 1L14 0ZM17 0L17 1L20 1L20 2L21 2L21 0ZM24 1L24 2L26 2L26 4L25 4L25 5L24 5L24 6L23 6L23 5L21 5L21 9L22 9L22 13L21 13L21 10L20 10L20 13L19 13L19 14L20 14L20 15L19 15L19 16L18 16L18 17L17 17L17 18L18 18L18 19L20 19L20 18L21 18L21 17L25 17L25 18L24 18L24 19L23 19L23 18L22 18L22 22L20 22L20 21L19 21L19 23L18 23L18 21L17 21L17 22L16 22L16 23L18 23L18 24L19 24L19 27L20 27L20 28L19 28L19 30L18 30L18 31L17 31L17 26L18 26L18 25L17 25L17 26L16 26L16 27L14 27L14 28L12 28L12 27L13 27L13 26L12 26L12 27L11 27L11 28L10 28L10 25L9 25L9 23L8 23L8 24L7 24L7 23L6 23L6 22L7 22L7 21L8 21L8 20L9 20L9 19L10 19L10 18L12 18L12 16L11 16L11 15L10 15L10 14L9 14L9 15L10 15L10 16L9 16L9 17L10 17L10 18L9 18L9 19L8 19L8 20L7 20L7 19L6 19L6 20L7 20L7 21L6 21L6 22L5 22L5 23L4 23L4 24L5 24L5 26L7 26L7 27L3 27L3 26L2 26L2 28L7 28L7 27L9 27L9 29L5 29L5 30L9 30L9 31L8 31L8 32L9 32L9 33L10 33L10 34L9 34L9 38L8 38L8 37L6 37L6 38L5 38L5 39L4 39L4 40L3 40L3 41L2 41L2 40L1 40L1 41L2 41L2 42L3 42L3 43L4 43L4 45L5 45L5 44L7 44L7 45L9 45L9 44L12 44L12 45L13 45L13 42L15 42L15 43L16 43L16 42L17 42L17 43L18 43L18 44L19 44L19 46L20 46L20 47L19 47L19 48L18 48L18 49L17 49L17 47L18 47L18 45L17 45L17 44L15 44L15 45L16 45L16 46L15 46L15 47L13 47L13 49L14 49L14 50L15 50L15 51L13 51L13 50L11 50L11 51L12 51L12 52L14 52L14 54L12 54L12 55L11 55L11 56L10 56L10 57L12 57L12 58L11 58L11 60L13 60L13 59L14 59L14 60L15 60L15 61L16 61L16 62L14 62L14 61L13 61L13 63L14 63L14 64L12 64L12 62L11 62L11 64L12 64L12 65L13 65L13 66L14 66L14 64L15 64L15 63L16 63L16 62L17 62L17 61L18 61L18 63L17 63L17 65L18 65L18 64L19 64L19 65L20 65L20 64L19 64L19 63L20 63L20 60L19 60L19 59L20 59L20 53L19 53L19 55L18 55L18 56L19 56L19 58L18 58L18 59L17 59L17 58L16 58L16 59L14 59L14 58L15 58L15 57L17 57L17 52L16 52L16 56L15 56L15 51L16 51L16 50L18 50L18 51L20 51L20 50L21 50L21 52L22 52L22 54L21 54L21 55L22 55L22 56L25 56L25 58L24 58L24 57L21 57L21 60L22 60L22 61L21 61L21 64L22 64L22 65L21 65L21 66L22 66L22 67L23 67L23 65L29 65L29 64L26 64L26 63L25 63L25 62L26 62L26 60L25 60L25 58L26 58L26 59L29 59L29 57L30 57L30 56L31 56L31 59L30 59L30 60L31 60L31 61L32 61L32 60L33 60L33 59L34 59L34 60L35 60L35 59L36 59L36 60L37 60L37 59L36 59L36 58L35 58L35 57L36 57L36 56L37 56L37 58L38 58L38 59L39 59L39 58L40 58L40 59L41 59L41 58L40 58L40 57L41 57L41 56L42 56L42 57L44 57L44 54L45 54L45 53L46 53L46 54L47 54L47 55L49 55L49 53L52 53L52 54L51 54L51 56L49 56L49 58L47 58L47 57L46 57L46 58L47 58L47 59L46 59L46 60L45 60L45 61L46 61L46 62L47 62L47 61L46 61L46 60L47 60L47 59L49 59L49 60L51 60L51 58L50 58L50 57L52 57L52 59L53 59L53 57L54 57L54 56L53 56L53 55L54 55L54 53L53 53L53 51L54 51L54 52L55 52L55 51L56 51L56 50L57 50L57 49L58 49L58 51L57 51L57 53L56 53L56 54L55 54L55 55L56 55L56 56L57 56L57 57L58 57L58 59L60 59L60 56L61 56L61 58L62 58L62 59L61 59L61 60L62 60L62 59L63 59L63 60L65 60L65 61L67 61L67 62L66 62L66 63L65 63L65 65L64 65L64 66L63 66L63 67L64 67L64 66L65 66L65 65L66 65L66 66L67 66L67 62L68 62L68 60L67 60L67 59L64 59L64 58L65 58L65 56L68 56L68 55L66 55L66 54L65 54L65 55L64 55L64 54L61 54L61 55L59 55L59 57L58 57L58 55L56 55L56 54L57 54L57 53L58 53L58 54L59 54L59 53L60 53L60 52L61 52L61 51L60 51L60 49L61 49L61 50L62 50L62 51L63 51L63 49L64 49L64 47L65 47L65 46L66 46L66 44L67 44L67 43L65 43L65 44L64 44L64 42L66 42L66 41L63 41L63 40L61 40L61 41L60 41L60 39L64 39L64 40L67 40L67 38L68 38L68 35L66 35L66 37L67 37L67 38L66 38L66 39L64 39L64 38L65 38L65 37L63 37L63 38L62 38L62 37L61 37L61 38L60 38L60 37L58 37L58 38L59 38L59 39L58 39L58 40L59 40L59 41L58 41L58 42L57 42L57 41L56 41L56 42L55 42L55 43L54 43L54 44L53 44L53 40L55 40L55 39L57 39L57 38L53 38L53 39L52 39L52 45L51 45L51 47L52 47L52 49L53 49L53 45L55 45L55 46L54 46L54 47L55 47L55 49L56 49L56 50L53 50L53 51L52 51L52 50L51 50L51 52L50 52L50 51L49 51L49 53L48 53L48 54L47 54L47 53L46 53L46 52L47 52L47 51L46 51L46 50L47 50L47 48L50 48L50 47L47 47L47 48L45 48L45 46L44 46L44 44L45 44L45 45L46 45L46 46L47 46L47 45L46 45L46 44L48 44L48 42L49 42L49 45L50 45L50 43L51 43L51 42L50 42L50 41L47 41L47 39L50 39L50 40L51 40L51 39L50 39L50 37L51 37L51 38L52 38L52 37L54 37L54 36L55 36L55 37L56 37L56 36L57 36L57 33L58 33L58 35L60 35L60 34L59 34L59 33L58 33L58 32L57 32L57 33L55 33L55 32L52 32L52 33L55 33L55 34L52 34L52 35L53 35L53 36L52 36L52 37L51 37L51 35L50 35L50 33L51 33L51 32L50 32L50 33L49 33L49 34L48 34L48 33L46 33L46 32L45 32L45 33L44 33L44 31L45 31L45 29L44 29L44 27L43 27L43 26L41 26L41 25L42 25L42 24L43 24L43 25L44 25L44 24L45 24L45 23L44 23L44 20L46 20L46 18L47 18L47 17L46 17L46 16L47 16L47 15L46 15L46 14L47 14L47 12L46 12L46 14L45 14L45 15L46 15L46 16L45 16L45 17L46 17L46 18L45 18L45 19L44 19L44 18L41 18L41 17L42 17L42 16L40 16L40 19L39 19L39 18L38 18L38 17L37 17L37 16L38 16L38 15L42 15L42 13L43 13L43 12L42 12L42 10L41 10L41 9L43 9L43 11L46 11L46 10L47 10L47 8L50 8L50 6L51 6L51 8L52 8L52 9L51 9L51 10L50 10L50 9L49 9L49 14L50 14L50 15L51 15L51 16L52 16L52 17L51 17L51 18L52 18L52 21L51 21L51 22L50 22L50 20L51 20L51 19L50 19L50 16L49 16L49 18L48 18L48 20L49 20L49 21L48 21L48 22L47 22L47 21L46 21L46 22L47 22L47 25L46 25L46 26L47 26L47 25L48 25L48 27L49 27L49 25L50 25L50 23L51 23L51 24L52 24L52 25L53 25L53 24L52 24L52 21L53 21L53 20L54 20L54 19L58 19L58 21L57 21L57 23L58 23L58 24L57 24L57 25L58 25L58 30L57 30L57 29L56 29L56 28L57 28L57 26L52 26L52 27L56 27L56 28L55 28L55 29L56 29L56 30L55 30L55 31L56 31L56 30L57 30L57 31L59 31L59 25L58 25L58 24L59 24L59 23L60 23L60 24L61 24L61 25L62 25L62 24L63 24L63 22L64 22L64 21L65 21L65 22L66 22L66 23L65 23L65 24L64 24L64 25L63 25L63 26L64 26L64 25L65 25L65 24L67 24L67 22L66 22L66 21L68 21L68 20L67 20L67 18L66 18L66 16L67 16L67 14L68 14L68 13L66 13L66 12L67 12L67 11L64 11L64 13L63 13L63 12L62 12L62 13L61 13L61 14L60 14L60 13L59 13L59 12L58 12L58 11L59 11L59 10L60 10L60 9L59 9L59 8L58 8L58 11L57 11L57 10L56 10L56 11L55 11L55 10L53 10L53 11L52 11L52 9L56 9L56 6L55 6L55 8L54 8L54 5L53 5L53 4L52 4L52 2L53 2L53 3L54 3L54 4L55 4L55 5L56 5L56 4L55 4L55 3L56 3L56 2L57 2L57 1L56 1L56 2L55 2L55 1L52 1L52 2L50 2L50 3L47 3L47 4L46 4L46 5L44 5L44 4L45 4L45 3L44 3L44 2L42 2L42 1L41 1L41 2L40 2L40 3L41 3L41 4L43 4L43 5L44 5L44 6L43 6L43 8L41 8L41 7L42 7L42 6L41 6L41 7L40 7L40 6L39 6L39 7L40 7L40 9L39 9L39 8L38 8L38 5L37 5L37 8L38 8L38 9L37 9L37 10L38 10L38 11L37 11L37 12L36 12L36 13L34 13L34 11L36 11L36 9L34 9L34 11L33 11L33 9L32 9L32 8L30 8L30 9L29 9L29 8L28 8L28 6L29 6L29 7L30 7L30 6L31 6L31 7L32 7L32 6L31 6L31 5L32 5L32 4L34 4L34 2L32 2L32 4L31 4L31 2L30 2L30 3L29 3L29 2L28 2L28 1L27 1L27 2L26 2L26 1ZM48 1L48 2L49 2L49 1ZM54 2L54 3L55 3L55 2ZM23 3L23 4L24 4L24 3ZM27 3L27 5L26 5L26 7L27 7L27 5L28 5L28 4L29 4L29 3ZM36 3L36 4L37 4L37 3ZM43 3L43 4L44 4L44 3ZM60 3L60 5L61 5L61 3ZM49 4L49 5L47 5L47 6L46 6L46 7L45 7L45 6L44 6L44 7L45 7L45 8L44 8L44 9L45 9L45 10L46 10L46 9L45 9L45 8L47 8L47 6L48 6L48 7L49 7L49 5L51 5L51 6L52 6L52 8L53 8L53 5L51 5L51 4ZM29 5L29 6L30 6L30 5ZM33 5L33 8L36 8L36 5ZM14 6L14 9L15 9L15 6ZM22 6L22 8L24 8L24 9L23 9L23 11L24 11L24 12L25 12L25 10L26 10L26 13L23 13L23 16L25 16L25 17L26 17L26 21L23 21L23 23L24 23L24 22L25 22L25 23L27 23L27 22L28 22L28 20L29 20L29 23L30 23L30 21L31 21L31 20L32 20L32 19L34 19L34 20L33 20L33 21L32 21L32 22L33 22L33 24L32 24L32 23L31 23L31 24L30 24L30 25L29 25L29 26L28 26L28 24L22 24L22 23L21 23L21 25L20 25L20 27L21 27L21 28L20 28L20 30L19 30L19 31L20 31L20 33L19 33L19 32L18 32L18 33L17 33L17 34L18 34L18 35L20 35L20 34L21 34L21 36L17 36L17 35L16 35L16 33L15 33L15 30L16 30L16 28L14 28L14 29L15 29L15 30L14 30L14 34L15 34L15 35L14 35L14 36L13 36L13 34L12 34L12 33L13 33L13 32L12 32L12 31L11 31L11 30L12 30L12 29L11 29L11 30L10 30L10 29L9 29L9 30L10 30L10 31L9 31L9 32L10 32L10 33L11 33L11 35L10 35L10 38L9 38L9 39L7 39L7 38L6 38L6 39L5 39L5 40L4 40L4 41L7 41L7 42L6 42L6 43L8 43L8 42L9 42L9 43L10 43L10 41L11 41L11 42L13 42L13 41L11 41L11 40L13 40L13 39L12 39L12 38L14 38L14 37L15 37L15 39L16 39L16 40L14 40L14 41L16 41L16 40L17 40L17 41L18 41L18 42L19 42L19 44L20 44L20 42L21 42L21 43L22 43L22 44L21 44L21 45L20 45L20 46L22 46L22 47L21 47L21 48L19 48L19 49L18 49L18 50L19 50L19 49L22 49L22 51L24 51L24 50L25 50L25 49L26 49L26 50L27 50L27 49L28 49L28 45L27 45L27 44L29 44L29 45L30 45L30 47L29 47L29 50L28 50L28 51L27 51L27 52L26 52L26 51L25 51L25 52L23 52L23 55L24 55L24 54L25 54L25 55L27 55L27 56L26 56L26 58L28 58L28 56L29 56L29 55L30 55L30 54L28 54L28 55L27 55L27 53L31 53L31 54L32 54L32 55L31 55L31 56L32 56L32 55L34 55L34 56L33 56L33 57L32 57L32 59L31 59L31 60L32 60L32 59L33 59L33 57L34 57L34 56L35 56L35 55L36 55L36 54L37 54L37 53L38 53L38 52L39 52L39 56L38 56L38 55L37 55L37 56L38 56L38 58L39 58L39 57L40 57L40 55L41 55L41 53L40 53L40 52L41 52L41 51L42 51L42 55L43 55L43 54L44 54L44 53L45 53L45 50L46 50L46 49L45 49L45 48L44 48L44 47L43 47L43 44L41 44L41 43L39 43L39 44L38 44L38 42L43 42L43 39L45 39L45 40L44 40L44 43L45 43L45 42L46 42L46 37L48 37L48 38L49 38L49 37L50 37L50 36L48 36L48 34L46 34L46 33L45 33L45 34L44 34L44 33L40 33L40 31L44 31L44 29L43 29L43 28L42 28L42 27L40 27L40 24L41 24L41 23L43 23L43 21L40 21L40 20L43 20L43 19L40 19L40 20L39 20L39 19L37 19L37 21L38 21L38 20L39 20L39 21L40 21L40 22L39 22L39 23L38 23L38 24L35 24L35 22L34 22L34 20L35 20L35 21L36 21L36 19L34 19L34 18L35 18L35 17L34 17L34 16L37 16L37 15L38 15L38 14L39 14L39 13L40 13L40 14L41 14L41 10L40 10L40 11L39 11L39 13L38 13L38 14L37 14L37 13L36 13L36 14L37 14L37 15L35 15L35 14L34 14L34 15L33 15L33 16L32 16L32 14L33 14L33 12L32 12L32 13L31 13L31 11L32 11L32 10L31 10L31 9L30 9L30 10L29 10L29 11L28 11L28 8L26 8L26 9L25 9L25 8L24 8L24 7L25 7L25 6L24 6L24 7L23 7L23 6ZM34 6L34 7L35 7L35 6ZM57 6L57 7L58 7L58 6ZM60 6L60 7L61 7L61 6ZM17 8L17 9L19 9L19 8ZM63 8L63 9L62 9L62 10L63 10L63 9L64 9L64 8ZM65 8L65 9L69 9L69 8ZM6 9L6 10L5 10L5 11L6 11L6 12L8 12L8 10L7 10L7 9ZM24 9L24 10L25 10L25 9ZM38 9L38 10L39 10L39 9ZM6 10L6 11L7 11L7 10ZM27 11L27 12L28 12L28 14L27 14L27 13L26 13L26 14L25 14L25 15L26 15L26 16L27 16L27 15L28 15L28 17L27 17L27 19L28 19L28 18L29 18L29 20L30 20L30 19L31 19L31 18L33 18L33 17L32 17L32 16L31 16L31 18L30 18L30 17L29 17L29 16L30 16L30 15L31 15L31 14L29 14L29 12L28 12L28 11ZM50 11L50 14L51 14L51 13L52 13L52 16L53 16L53 15L54 15L54 16L56 16L56 17L52 17L52 18L58 18L58 19L59 19L59 22L61 22L61 21L62 21L62 22L63 22L63 21L64 21L64 20L65 20L65 17L64 17L64 16L65 16L65 14L64 14L64 15L62 15L62 14L63 14L63 13L62 13L62 14L61 14L61 15L62 15L62 19L61 19L61 20L60 20L60 18L61 18L61 16L60 16L60 15L59 15L59 14L58 14L58 13L57 13L57 11L56 11L56 13L55 13L55 12L54 12L54 13L52 13L52 11ZM3 12L3 13L5 13L5 14L7 14L7 13L5 13L5 12ZM20 13L20 14L21 14L21 15L22 15L22 14L21 14L21 13ZM56 13L56 14L54 14L54 15L56 15L56 16L57 16L57 17L58 17L58 18L59 18L59 16L57 16L57 15L58 15L58 14L57 14L57 13ZM17 14L17 15L16 15L16 16L15 16L15 17L16 17L16 16L17 16L17 15L18 15L18 14ZM43 14L43 17L44 17L44 14ZM56 14L56 15L57 15L57 14ZM10 16L10 17L11 17L11 16ZM19 16L19 17L18 17L18 18L19 18L19 17L21 17L21 16ZM63 17L63 20L62 20L62 21L63 21L63 20L64 20L64 17ZM3 20L3 21L5 21L5 20ZM14 20L14 22L15 22L15 21L16 21L16 20ZM0 21L0 23L1 23L1 21ZM26 21L26 22L27 22L27 21ZM55 21L55 22L54 22L54 25L56 25L56 24L55 24L55 22L56 22L56 21ZM40 22L40 23L39 23L39 24L38 24L38 25L37 25L37 26L36 26L36 27L35 27L35 28L34 28L34 25L33 25L33 26L32 26L32 25L31 25L31 26L29 26L29 28L27 28L27 27L28 27L28 26L27 26L27 25L25 25L25 26L24 26L24 25L21 25L21 26L23 26L23 27L22 27L22 29L21 29L21 30L20 30L20 31L21 31L21 30L22 30L22 29L26 29L26 28L27 28L27 29L28 29L28 31L29 31L29 32L26 32L26 31L25 31L25 32L22 32L22 33L21 33L21 34L22 34L22 38L23 38L23 37L24 37L24 35L25 35L25 34L24 34L24 35L23 35L23 34L22 34L22 33L29 33L29 34L28 34L28 35L27 35L27 34L26 34L26 35L27 35L27 37L25 37L25 39L26 39L26 40L25 40L25 41L24 41L24 40L22 40L22 39L21 39L21 38L20 38L20 37L17 37L17 36L16 36L16 35L15 35L15 36L16 36L16 39L17 39L17 38L18 38L18 39L19 39L19 38L20 38L20 39L21 39L21 41L22 41L22 42L23 42L23 41L24 41L24 42L25 42L25 41L26 41L26 42L27 42L27 43L29 43L29 42L30 42L30 41L31 41L31 43L30 43L30 44L31 44L31 43L32 43L32 45L33 45L33 47L32 47L32 46L31 46L31 47L30 47L30 48L32 48L32 49L31 49L31 51L32 51L32 54L33 54L33 53L34 53L34 54L36 54L36 52L37 52L37 50L38 50L38 51L39 51L39 52L40 52L40 51L41 51L41 49L42 49L42 45L41 45L41 46L40 46L40 45L39 45L39 47L38 47L38 45L37 45L37 46L36 46L36 45L35 45L35 44L37 44L37 42L38 42L38 40L39 40L39 39L40 39L40 41L41 41L41 39L40 39L40 37L43 37L43 38L45 38L45 37L46 37L46 34L45 34L45 37L44 37L44 34L43 34L43 36L42 36L42 35L41 35L41 34L38 34L38 33L39 33L39 32L37 32L37 31L38 31L38 28L39 28L39 29L40 29L40 30L42 30L42 28L40 28L40 27L38 27L38 28L37 28L37 26L38 26L38 25L39 25L39 24L40 24L40 23L41 23L41 22ZM49 22L49 23L48 23L48 25L49 25L49 23L50 23L50 22ZM5 23L5 24L6 24L6 25L7 25L7 26L9 26L9 25L7 25L7 24L6 24L6 23ZM19 23L19 24L20 24L20 23ZM61 23L61 24L62 24L62 23ZM25 26L25 28L26 28L26 27L27 27L27 26ZM23 27L23 28L24 28L24 27ZM30 27L30 28L29 28L29 29L32 29L32 28L33 28L33 27ZM50 27L50 28L49 28L49 29L48 29L48 30L47 30L47 28L46 28L46 31L52 31L52 30L53 30L53 29L54 29L54 28L52 28L52 30L50 30L50 29L51 29L51 27ZM62 27L62 28L63 28L63 27ZM36 28L36 29L37 29L37 28ZM67 28L67 29L69 29L69 28ZM33 29L33 31L34 31L34 30L35 30L35 29ZM61 29L61 32L62 32L62 29ZM30 30L30 31L31 31L31 32L29 32L29 33L31 33L31 34L29 34L29 35L31 35L31 36L29 36L29 37L30 37L30 39L29 39L29 38L28 38L28 37L27 37L27 38L28 38L28 39L27 39L27 40L26 40L26 41L30 41L30 40L31 40L31 41L32 41L32 39L31 39L31 38L32 38L32 37L35 37L35 38L34 38L34 39L33 39L33 43L36 43L36 42L37 42L37 41L35 41L35 42L34 42L34 39L38 39L38 38L39 38L39 37L40 37L40 36L41 36L41 35L40 35L40 36L38 36L38 37L37 37L37 32L32 32L32 31L31 31L31 30ZM65 30L65 31L67 31L67 30ZM4 31L4 32L5 32L5 31ZM6 31L6 32L7 32L7 31ZM16 31L16 32L17 32L17 31ZM11 32L11 33L12 33L12 32ZM5 33L5 36L8 36L8 33ZM33 33L33 36L36 36L36 33ZM61 33L61 36L64 36L64 33ZM0 34L0 35L1 35L1 34ZM6 34L6 35L7 35L7 34ZM31 34L31 35L32 35L32 34ZM34 34L34 35L35 35L35 34ZM62 34L62 35L63 35L63 34ZM11 35L11 36L12 36L12 37L13 37L13 36L12 36L12 35ZM36 37L36 38L37 38L37 37ZM10 38L10 39L9 39L9 41L10 41L10 39L11 39L11 38ZM6 39L6 40L7 40L7 41L8 41L8 40L7 40L7 39ZM19 40L19 42L20 42L20 40ZM59 41L59 43L60 43L60 44L61 44L61 45L60 45L60 46L61 46L61 47L60 47L60 48L62 48L62 49L63 49L63 48L62 48L62 46L61 46L61 45L63 45L63 47L64 47L64 44L62 44L62 42L61 42L61 43L60 43L60 41ZM4 42L4 43L5 43L5 42ZM56 42L56 46L55 46L55 47L56 47L56 49L57 49L57 48L58 48L58 49L59 49L59 48L58 48L58 45L59 45L59 44L58 44L58 43L57 43L57 42ZM23 43L23 44L22 44L22 46L23 46L23 48L22 48L22 49L25 49L25 47L26 47L26 48L27 48L27 46L25 46L25 47L24 47L24 46L23 46L23 44L24 44L24 43ZM2 44L2 45L1 45L1 46L2 46L2 47L4 47L4 46L2 46L2 45L3 45L3 44ZM25 44L25 45L26 45L26 44ZM33 44L33 45L34 45L34 44ZM57 44L57 45L58 45L58 44ZM16 46L16 47L17 47L17 46ZM35 46L35 47L36 47L36 48L37 48L37 49L38 49L38 50L39 50L39 51L40 51L40 48L41 48L41 47L39 47L39 48L38 48L38 47L36 47L36 46ZM6 48L6 49L7 49L7 48ZM15 48L15 50L16 50L16 48ZM33 48L33 49L34 49L34 48ZM43 48L43 49L44 49L44 50L45 50L45 49L44 49L44 48ZM67 48L67 49L68 49L68 48ZM35 49L35 50L32 50L32 51L34 51L34 52L35 52L35 51L36 51L36 49ZM29 50L29 51L30 51L30 50ZM42 50L42 51L43 51L43 53L44 53L44 51L43 51L43 50ZM1 52L1 53L2 53L2 52ZM25 52L25 53L26 53L26 52ZM58 52L58 53L59 53L59 52ZM61 55L61 56L62 56L62 57L63 57L63 58L64 58L64 55ZM2 57L2 58L3 58L3 57ZM66 57L66 58L68 58L68 57ZM22 58L22 60L23 60L23 61L22 61L22 62L25 62L25 61L24 61L24 59L23 59L23 58ZM3 60L3 61L5 61L5 60ZM6 60L6 61L7 61L7 60ZM18 60L18 61L19 61L19 60ZM38 60L38 61L37 61L37 63L38 63L38 64L37 64L37 65L38 65L38 64L39 64L39 63L40 63L40 62L41 62L41 60ZM28 61L28 62L27 62L27 63L29 63L29 61ZM33 61L33 64L36 64L36 61ZM38 61L38 63L39 63L39 61ZM61 61L61 64L64 64L64 61ZM30 62L30 63L32 63L32 62ZM34 62L34 63L35 63L35 62ZM55 62L55 65L56 65L56 62ZM62 62L62 63L63 63L63 62ZM44 63L44 69L46 69L46 67L45 67L45 63ZM31 64L31 65L30 65L30 66L31 66L31 65L32 65L32 66L33 66L33 65L32 65L32 64ZM52 64L52 65L51 65L51 66L50 66L50 68L51 68L51 66L52 66L52 67L53 67L53 64ZM24 66L24 68L25 68L25 66ZM57 67L57 68L56 68L56 69L57 69L57 68L58 68L58 67ZM36 68L36 69L37 69L37 68ZM54 68L54 69L55 69L55 68ZM66 68L66 69L67 69L67 68ZM68 68L68 69L69 69L69 68ZM0 0L0 7L7 7L7 0ZM1 1L1 6L6 6L6 1ZM2 2L2 5L5 5L5 2ZM62 0L62 7L69 7L69 0ZM63 1L63 6L68 6L68 1ZM64 2L64 5L67 5L67 2ZM0 62L0 69L7 69L7 62ZM1 63L1 68L6 68L6 63ZM2 64L2 67L5 67L5 64Z" fill="#000000"/></g></g></svg>
