<?xml version="1.0" encoding="UTF-8"?>
<svg xmlns="http://www.w3.org/2000/svg" version="1.1" width="300" height="300" viewBox="0 0 300 300"><rect x="0" y="0" width="300" height="300" fill="#ffffff"/><g transform="scale(4.348)"><g transform="translate(0,0)"><path fill-rule="evenodd" d="M8 0L8 1L9 1L9 2L8 2L8 5L9 5L9 2L10 2L10 0ZM12 0L12 2L13 2L13 3L12 3L12 5L11 5L11 4L10 4L10 7L9 7L9 6L8 6L8 7L9 7L9 8L8 8L8 9L7 9L7 8L6 8L6 9L5 9L5 10L4 10L4 11L3 11L3 10L2 10L2 9L4 9L4 8L0 8L0 9L1 9L1 12L0 12L0 13L2 13L2 14L0 14L0 15L2 15L2 14L4 14L4 15L3 15L3 16L1 16L1 17L3 17L3 19L0 19L0 22L1 22L1 20L3 20L3 21L2 21L2 25L3 25L3 26L4 26L4 23L3 23L3 22L4 22L4 18L5 18L5 17L8 17L8 18L9 18L9 17L10 17L10 16L9 16L9 17L8 17L8 14L9 14L9 13L10 13L10 12L12 12L12 13L13 13L13 14L12 14L12 15L13 15L13 16L14 16L14 17L13 17L13 18L12 18L12 16L11 16L11 18L10 18L10 19L7 19L7 18L6 18L6 19L7 19L7 20L5 20L5 22L6 22L6 23L7 23L7 22L6 22L6 21L9 21L9 23L8 23L8 25L10 25L10 24L11 24L11 25L12 25L12 24L11 24L11 23L10 23L10 22L12 22L12 23L13 23L13 24L14 24L14 25L13 25L13 26L10 26L10 27L11 27L11 28L13 28L13 30L12 30L12 31L11 31L11 32L12 32L12 33L15 33L15 31L17 31L17 30L18 30L18 31L19 31L19 32L21 32L21 34L19 34L19 33L17 33L17 32L16 32L16 33L17 33L17 34L18 34L18 35L17 35L17 37L19 37L19 38L18 38L18 40L20 40L20 41L21 41L21 42L20 42L20 43L19 43L19 42L18 42L18 41L16 41L16 39L17 39L17 38L16 38L16 36L13 36L13 34L10 34L10 33L9 33L9 32L10 32L10 30L9 30L9 31L8 31L8 30L6 30L6 29L8 29L8 28L5 28L5 29L4 29L4 27L3 27L3 29L2 29L2 27L0 27L0 31L1 31L1 29L2 29L2 31L4 31L4 34L3 34L3 33L0 33L0 34L1 34L1 35L0 35L0 36L1 36L1 38L0 38L0 39L1 39L1 41L0 41L0 44L1 44L1 46L0 46L0 47L1 47L1 48L0 48L0 49L1 49L1 48L2 48L2 47L3 47L3 48L4 48L4 50L3 50L3 49L2 49L2 50L0 50L0 52L1 52L1 51L7 51L7 50L5 50L5 49L8 49L8 50L9 50L9 49L10 49L10 52L9 52L9 51L8 51L8 52L6 52L6 53L5 53L5 52L2 52L2 53L1 53L1 54L2 54L2 53L4 53L4 54L3 54L3 55L2 55L2 56L0 56L0 61L1 61L1 58L2 58L2 59L3 59L3 58L4 58L4 59L8 59L8 62L10 62L10 63L11 63L11 64L9 64L9 65L8 65L8 69L11 69L11 68L12 68L12 69L13 69L13 68L12 68L12 67L13 67L13 66L14 66L14 67L15 67L15 68L16 68L16 69L18 69L18 68L19 68L19 67L20 67L20 69L21 69L21 68L22 68L22 69L24 69L24 68L22 68L22 67L20 67L20 65L22 65L22 66L23 66L23 67L24 67L24 65L25 65L25 66L26 66L26 64L28 64L28 60L29 60L29 61L32 61L32 62L31 62L31 63L30 63L30 62L29 62L29 63L30 63L30 64L29 64L29 66L28 66L28 65L27 65L27 69L30 69L30 68L31 68L31 67L32 67L32 68L33 68L33 69L34 69L34 67L38 67L38 68L39 68L39 69L42 69L42 68L43 68L43 67L41 67L41 66L42 66L42 65L40 65L40 64L41 64L41 62L39 62L39 61L40 61L40 60L41 60L41 61L42 61L42 60L41 60L41 59L42 59L42 58L43 58L43 56L41 56L41 55L42 55L42 53L43 53L43 54L44 54L44 55L46 55L46 54L48 54L48 55L47 55L47 57L48 57L48 58L50 58L50 57L51 57L51 58L52 58L52 59L53 59L53 58L57 58L57 57L59 57L59 56L61 56L61 57L60 57L60 58L58 58L58 59L60 59L60 61L59 61L59 60L57 60L57 61L56 61L56 59L55 59L55 60L53 60L53 61L52 61L52 62L51 62L51 59L48 59L48 60L47 60L47 61L49 61L49 62L48 62L48 63L47 63L47 62L46 62L46 59L45 59L45 58L44 58L44 59L43 59L43 62L44 62L44 64L43 64L43 65L45 65L45 62L46 62L46 63L47 63L47 64L48 64L48 63L50 63L50 62L51 62L51 63L52 63L52 62L53 62L53 61L56 61L56 63L57 63L57 64L54 64L54 63L53 63L53 64L54 64L54 65L53 65L53 66L54 66L54 67L53 67L53 68L50 68L50 67L52 67L52 66L50 66L50 67L49 67L49 69L53 69L53 68L55 68L55 66L54 66L54 65L57 65L57 67L56 67L56 68L57 68L57 69L59 69L59 68L60 68L60 69L61 69L61 66L60 66L60 65L63 65L63 66L62 66L62 69L63 69L63 68L64 68L64 69L66 69L66 68L64 68L64 67L63 67L63 66L64 66L64 65L65 65L65 67L67 67L67 66L68 66L68 63L65 63L65 60L66 60L66 61L67 61L67 62L69 62L69 58L68 58L68 57L69 57L69 55L68 55L68 54L69 54L69 52L68 52L68 51L67 51L67 50L68 50L68 48L69 48L69 45L68 45L68 44L69 44L69 43L67 43L67 45L66 45L66 46L65 46L65 48L61 48L61 50L60 50L60 49L59 49L59 52L58 52L58 49L57 49L57 51L53 51L53 49L52 49L52 50L51 50L51 47L49 47L49 46L50 46L50 45L53 45L53 44L52 44L52 42L54 42L54 44L58 44L58 45L59 45L59 44L61 44L61 45L62 45L62 46L59 46L59 47L58 47L58 46L57 46L57 45L56 45L56 46L55 46L55 45L54 45L54 48L55 48L55 49L56 49L56 48L57 48L57 47L58 47L58 48L60 48L60 47L63 47L63 45L65 45L65 41L66 41L66 40L67 40L67 39L66 39L66 38L63 38L63 40L64 40L64 41L63 41L63 45L62 45L62 43L61 43L61 42L60 42L60 41L62 41L62 40L59 40L59 39L61 39L61 38L62 38L62 37L65 37L65 36L66 36L66 37L68 37L68 38L69 38L69 37L68 37L68 36L69 36L69 33L68 33L68 34L65 34L65 33L67 33L67 32L65 32L65 30L63 30L63 32L60 32L60 31L58 31L58 30L60 30L60 29L59 29L59 28L61 28L61 27L60 27L60 26L59 26L59 27L58 27L58 26L56 26L56 27L58 27L58 28L54 28L54 27L53 27L53 29L52 29L52 28L51 28L51 27L52 27L52 26L53 26L53 25L54 25L54 23L53 23L53 22L56 22L56 23L55 23L55 25L56 25L56 23L57 23L57 24L60 24L60 23L61 23L61 24L65 24L65 25L67 25L67 26L64 26L64 25L62 25L62 27L66 27L66 30L67 30L67 31L68 31L68 32L69 32L69 31L68 31L68 30L69 30L69 27L68 27L68 30L67 30L67 26L69 26L69 22L67 22L67 20L69 20L69 19L68 19L68 18L69 18L69 15L68 15L68 18L67 18L67 20L66 20L66 21L65 21L65 20L64 20L64 19L63 19L63 18L62 18L62 20L61 20L61 18L60 18L60 17L57 17L57 16L56 16L56 14L58 14L58 15L59 15L59 16L61 16L61 17L64 17L64 15L63 15L63 13L62 13L62 12L63 12L63 11L64 11L64 12L66 12L66 10L67 10L67 12L69 12L69 8L68 8L68 9L67 9L67 8L64 8L64 9L65 9L65 11L64 11L64 10L63 10L63 11L60 11L60 10L62 10L62 8L61 8L61 6L60 6L60 8L59 8L59 4L56 4L56 3L57 3L57 1L61 1L61 0L57 0L57 1L56 1L56 0L54 0L54 2L55 2L55 4L56 4L56 5L55 5L55 6L54 6L54 7L53 7L53 6L52 6L52 8L51 8L51 10L50 10L50 7L51 7L51 6L50 6L50 5L51 5L51 2L52 2L52 3L53 3L53 2L52 2L52 1L53 1L53 0L52 0L52 1L50 1L50 0L48 0L48 1L47 1L47 2L46 2L46 1L45 1L45 0L44 0L44 2L43 2L43 3L42 3L42 1L43 1L43 0L39 0L39 1L40 1L40 3L42 3L42 4L43 4L43 5L42 5L42 7L41 7L41 6L40 6L40 8L37 8L37 4L38 4L38 5L39 5L39 4L38 4L38 2L37 2L37 3L36 3L36 2L34 2L34 1L35 1L35 0L33 0L33 1L32 1L32 0L30 0L30 2L29 2L29 0L28 0L28 2L27 2L27 4L26 4L26 3L25 3L25 2L26 2L26 1L25 1L25 0L23 0L23 1L22 1L22 0L21 0L21 1L19 1L19 0L16 0L16 1L14 1L14 2L13 2L13 0ZM36 0L36 1L38 1L38 0ZM49 1L49 2L47 2L47 3L46 3L46 5L45 5L45 8L44 8L44 6L43 6L43 9L45 9L45 10L46 10L46 12L44 12L44 10L43 10L43 12L41 12L41 13L42 13L42 14L43 14L43 15L41 15L41 14L40 14L40 11L42 11L42 10L40 10L40 9L38 9L38 10L37 10L37 12L36 12L36 9L34 9L34 11L32 11L32 13L30 13L30 14L29 14L29 12L30 12L30 11L31 11L31 10L32 10L32 9L31 9L31 10L30 10L30 9L27 9L27 8L26 8L26 6L27 6L27 7L28 7L28 8L29 8L29 7L30 7L30 6L29 6L29 2L28 2L28 6L27 6L27 5L25 5L25 3L24 3L24 6L23 6L23 7L22 7L22 4L23 4L23 2L20 2L20 3L21 3L21 5L20 5L20 4L17 4L17 5L16 5L16 4L14 4L14 6L13 6L13 5L12 5L12 6L11 6L11 8L12 8L12 11L13 11L13 13L14 13L14 10L17 10L17 11L18 11L18 12L19 12L19 13L18 13L18 14L19 14L19 15L17 15L17 18L14 18L14 19L13 19L13 20L12 20L12 18L11 18L11 19L10 19L10 20L9 20L9 21L13 21L13 20L14 20L14 21L15 21L15 22L16 22L16 21L17 21L17 23L18 23L18 24L21 24L21 26L23 26L23 25L22 25L22 24L23 24L23 23L24 23L24 24L25 24L25 25L24 25L24 27L21 27L21 28L22 28L22 30L23 30L23 29L24 29L24 30L25 30L25 29L24 29L24 27L25 27L25 25L26 25L26 26L27 26L27 24L26 24L26 21L27 21L27 22L29 22L29 21L27 21L27 20L30 20L30 24L29 24L29 23L28 23L28 24L29 24L29 25L28 25L28 27L27 27L27 28L28 28L28 29L29 29L29 30L27 30L27 29L26 29L26 30L27 30L27 31L25 31L25 32L24 32L24 33L25 33L25 35L24 35L24 34L23 34L23 35L24 35L24 36L25 36L25 35L26 35L26 37L23 37L23 36L21 36L21 35L22 35L22 34L21 34L21 35L20 35L20 36L19 36L19 37L23 37L23 39L22 39L22 38L21 38L21 41L23 41L23 40L24 40L24 41L25 41L25 42L22 42L22 43L21 43L21 44L22 44L22 43L23 43L23 44L24 44L24 45L25 45L25 46L24 46L24 47L25 47L25 49L24 49L24 48L23 48L23 46L21 46L21 45L20 45L20 44L19 44L19 43L18 43L18 45L20 45L20 46L21 46L21 47L22 47L22 48L20 48L20 47L19 47L19 48L18 48L18 46L17 46L17 42L16 42L16 41L15 41L15 39L16 39L16 38L15 38L15 39L14 39L14 37L13 37L13 36L12 36L12 35L10 35L10 36L9 36L9 37L8 37L8 38L7 38L7 37L5 37L5 38L7 38L7 39L6 39L6 40L7 40L7 41L5 41L5 42L4 42L4 40L3 40L3 43L2 43L2 42L1 42L1 43L2 43L2 45L4 45L4 46L3 46L3 47L4 47L4 48L8 48L8 49L9 49L9 48L10 48L10 49L11 49L11 50L12 50L12 53L13 53L13 51L14 51L14 52L15 52L15 50L14 50L14 48L18 48L18 51L16 51L16 53L17 53L17 55L18 55L18 57L17 57L17 58L18 58L18 59L16 59L16 56L15 56L15 57L14 57L14 56L13 56L13 55L15 55L15 54L13 54L13 55L12 55L12 54L11 54L11 52L10 52L10 53L9 53L9 52L8 52L8 53L6 53L6 54L5 54L5 57L6 57L6 58L8 58L8 56L11 56L11 57L12 57L12 56L13 56L13 58L15 58L15 59L16 59L16 60L15 60L15 61L14 61L14 60L13 60L13 61L12 61L12 60L10 60L10 59L9 59L9 60L10 60L10 61L11 61L11 62L12 62L12 63L13 63L13 64L15 64L15 63L19 63L19 62L17 62L17 60L18 60L18 59L19 59L19 61L21 61L21 63L20 63L20 64L21 64L21 63L22 63L22 65L23 65L23 63L24 63L24 64L26 64L26 61L27 61L27 60L28 60L28 59L32 59L32 58L33 58L33 60L35 60L35 59L36 59L36 60L37 60L37 61L39 61L39 60L40 60L40 58L39 58L39 56L40 56L40 55L41 55L41 51L43 51L43 52L44 52L44 50L45 50L45 48L46 48L46 50L48 50L48 51L50 51L50 52L51 52L51 51L50 51L50 48L49 48L49 50L48 50L48 48L46 48L46 46L47 46L47 44L48 44L48 45L49 45L49 44L51 44L51 42L52 42L52 41L54 41L54 42L55 42L55 41L54 41L54 40L52 40L52 41L51 41L51 39L55 39L55 40L56 40L56 39L59 39L59 36L60 36L60 34L59 34L59 33L60 33L60 32L59 32L59 33L58 33L58 34L59 34L59 36L58 36L58 38L57 38L57 36L56 36L56 37L55 37L55 34L57 34L57 32L58 32L58 31L57 31L57 29L56 29L56 31L57 31L57 32L55 32L55 34L53 34L53 33L54 33L54 32L53 32L53 31L54 31L54 30L55 30L55 29L54 29L54 30L53 30L53 31L51 31L51 29L49 29L49 27L50 27L50 26L48 26L48 24L47 24L47 25L46 25L46 23L48 23L48 22L49 22L49 21L50 21L50 22L51 22L51 23L52 23L52 22L53 22L53 21L50 21L50 20L51 20L51 19L48 19L48 18L47 18L47 19L46 19L46 16L47 16L47 17L49 17L49 16L50 16L50 18L53 18L53 17L54 17L54 18L55 18L55 20L54 20L54 19L53 19L53 20L54 20L54 21L56 21L56 22L57 22L57 20L56 20L56 18L57 18L57 19L59 19L59 20L58 20L58 22L59 22L59 23L60 23L60 22L59 22L59 21L60 21L60 19L59 19L59 18L57 18L57 17L56 17L56 18L55 18L55 17L54 17L54 14L55 14L55 13L58 13L58 14L59 14L59 12L56 12L56 9L57 9L57 10L58 10L58 11L59 11L59 10L60 10L60 9L59 9L59 8L58 8L58 5L57 5L57 7L56 7L56 6L55 6L55 7L56 7L56 8L54 8L54 9L55 9L55 10L51 10L51 12L50 12L50 11L49 11L49 12L50 12L50 13L51 13L51 16L50 16L50 15L49 15L49 16L47 16L47 15L48 15L48 14L49 14L49 13L46 13L46 12L48 12L48 11L47 11L47 9L46 9L46 8L48 8L48 9L49 9L49 7L50 7L50 6L49 6L49 5L47 5L47 3L49 3L49 4L50 4L50 3L49 3L49 2L50 2L50 1ZM55 1L55 2L56 2L56 1ZM15 2L15 3L18 3L18 2ZM30 2L30 3L31 3L31 4L30 4L30 5L31 5L31 4L32 4L32 3L31 3L31 2ZM58 2L58 3L59 3L59 2ZM33 3L33 4L35 4L35 3ZM44 3L44 4L45 4L45 3ZM60 3L60 5L61 5L61 3ZM40 4L40 5L41 5L41 4ZM15 5L15 6L14 6L14 7L15 7L15 8L14 8L14 9L17 9L17 10L19 10L19 11L21 11L21 10L20 10L20 9L18 9L18 8L16 8L16 7L17 7L17 6L16 6L16 5ZM18 5L18 7L19 7L19 5ZM33 5L33 8L36 8L36 5ZM46 5L46 7L47 7L47 5ZM12 6L12 8L13 8L13 6ZM15 6L15 7L16 7L16 6ZM20 6L20 8L22 8L22 9L23 9L23 11L22 11L22 12L20 12L20 13L19 13L19 14L21 14L21 15L19 15L19 16L18 16L18 17L19 17L19 16L20 16L20 19L17 19L17 21L18 21L18 20L19 20L19 22L20 22L20 23L23 23L23 22L25 22L25 21L24 21L24 20L27 20L27 19L26 19L26 18L25 18L25 19L23 19L23 18L24 18L24 17L25 17L25 16L26 16L26 17L28 17L28 18L30 18L30 17L28 17L28 15L29 15L29 14L28 14L28 11L25 11L25 10L26 10L26 9L25 9L25 10L24 10L24 9L23 9L23 8L25 8L25 6L24 6L24 7L23 7L23 8L22 8L22 7L21 7L21 6ZM28 6L28 7L29 7L29 6ZM31 6L31 7L32 7L32 6ZM34 6L34 7L35 7L35 6ZM38 6L38 7L39 7L39 6ZM48 6L48 7L49 7L49 6ZM41 8L41 9L42 9L42 8ZM6 9L6 10L5 10L5 11L4 11L4 12L2 12L2 13L4 13L4 12L5 12L5 11L6 11L6 12L7 12L7 13L6 13L6 14L5 14L5 15L4 15L4 16L3 16L3 17L5 17L5 15L6 15L6 16L7 16L7 15L6 15L6 14L7 14L7 13L8 13L8 12L9 12L9 11L8 11L8 10L7 10L7 9ZM6 10L6 11L7 11L7 10ZM10 10L10 11L11 11L11 10ZM29 10L29 11L30 11L30 10ZM34 11L34 13L36 13L36 12L35 12L35 11ZM38 11L38 12L39 12L39 11ZM52 11L52 12L53 12L53 11ZM54 11L54 13L55 13L55 11ZM15 12L15 14L13 14L13 15L16 15L16 12ZM22 12L22 13L23 13L23 14L22 14L22 15L23 15L23 16L22 16L22 17L21 17L21 19L20 19L20 22L23 22L23 21L21 21L21 20L23 20L23 19L22 19L22 18L23 18L23 16L25 16L25 15L24 15L24 14L26 14L26 16L27 16L27 12L26 12L26 13L24 13L24 12ZM60 12L60 15L61 15L61 16L62 16L62 13L61 13L61 12ZM32 13L32 14L30 14L30 15L31 15L31 17L32 17L32 18L31 18L31 19L32 19L32 20L31 20L31 21L32 21L32 20L33 20L33 21L35 21L35 22L38 22L38 24L42 24L42 25L44 25L44 28L43 28L43 27L42 27L42 26L41 26L41 27L42 27L42 28L41 28L41 29L39 29L39 28L37 28L37 27L35 27L35 26L33 26L33 27L32 27L32 26L31 26L31 27L30 27L30 26L29 26L29 28L33 28L33 27L35 27L35 29L36 29L36 30L34 30L34 29L32 29L32 30L33 30L33 31L31 31L31 29L30 29L30 30L29 30L29 31L31 31L31 33L32 33L32 34L31 34L31 35L29 35L29 34L30 34L30 32L28 32L28 31L27 31L27 32L26 32L26 33L27 33L27 32L28 32L28 35L27 35L27 37L26 37L26 38L24 38L24 40L25 40L25 41L27 41L27 42L25 42L25 43L24 43L24 44L27 44L27 46L26 46L26 47L27 47L27 48L29 48L29 50L27 50L27 49L25 49L25 50L27 50L27 51L26 51L26 52L25 52L25 51L24 51L24 50L23 50L23 49L21 49L21 50L20 50L20 49L19 49L19 52L20 52L20 53L21 53L21 54L22 54L22 56L21 56L21 55L20 55L20 56L21 56L21 58L20 58L20 57L18 57L18 58L19 58L19 59L20 59L20 60L23 60L23 59L21 59L21 58L22 58L22 56L23 56L23 57L24 57L24 58L25 58L25 61L26 61L26 59L27 59L27 58L25 58L25 57L24 57L24 56L23 56L23 55L25 55L25 54L24 54L24 53L22 53L22 52L23 52L23 51L24 51L24 52L25 52L25 53L28 53L28 54L29 54L29 52L31 52L31 53L30 53L30 55L31 55L31 56L32 56L32 57L29 57L29 58L32 58L32 57L33 57L33 58L34 58L34 59L35 59L35 58L34 58L34 57L35 57L35 56L34 56L34 55L37 55L37 56L36 56L36 57L37 57L37 60L39 60L39 58L38 58L38 57L37 57L37 56L39 56L39 55L40 55L40 51L35 51L35 50L34 50L34 49L33 49L33 50L34 50L34 51L35 51L35 53L32 53L32 49L31 49L31 48L32 48L32 47L31 47L31 45L35 45L35 43L34 43L34 42L35 42L35 41L34 41L34 40L35 40L35 39L36 39L36 41L37 41L37 40L38 40L38 39L37 39L37 37L38 37L38 38L39 38L39 42L40 42L40 43L43 43L43 45L42 45L42 44L41 44L41 45L40 45L40 44L38 44L38 42L36 42L36 43L37 43L37 44L36 44L36 45L37 45L37 47L36 47L36 46L33 46L33 48L34 48L34 47L35 47L35 48L37 48L37 49L36 49L36 50L40 50L40 49L39 49L39 48L37 48L37 47L38 47L38 45L39 45L39 47L40 47L40 48L42 48L42 49L44 49L44 48L43 48L43 45L44 45L44 47L45 47L45 45L46 45L46 44L47 44L47 43L48 43L48 44L49 44L49 43L50 43L50 42L49 42L49 43L48 43L48 41L46 41L46 40L47 40L47 39L45 39L45 38L46 38L46 37L49 37L49 38L51 38L51 36L50 36L50 37L49 37L49 35L48 35L48 34L50 34L50 35L52 35L52 36L53 36L53 37L52 37L52 38L53 38L53 37L54 37L54 35L53 35L53 34L52 34L52 33L53 33L53 32L51 32L51 31L50 31L50 32L49 32L49 33L48 33L48 32L47 32L47 35L46 35L46 34L45 34L45 33L46 33L46 32L45 32L45 33L44 33L44 34L45 34L45 35L43 35L43 32L42 32L42 33L41 33L41 31L40 31L40 30L41 30L41 29L42 29L42 28L43 28L43 29L45 29L45 31L49 31L49 29L46 29L46 27L47 27L47 26L46 26L46 25L44 25L44 23L43 23L43 24L42 24L42 22L44 22L44 21L43 21L43 20L42 20L42 19L43 19L43 18L44 18L44 20L45 20L45 21L46 21L46 19L45 19L45 18L44 18L44 17L45 17L45 14L46 14L46 13L44 13L44 16L43 16L43 18L42 18L42 16L41 16L41 17L40 17L40 14L39 14L39 13L38 13L38 16L37 16L37 15L36 15L36 14L33 14L33 13ZM64 13L64 14L65 14L65 17L66 17L66 16L67 16L67 15L66 15L66 14L67 14L67 13ZM32 15L32 16L33 16L33 15ZM34 15L34 17L36 17L36 16L35 16L35 15ZM51 16L51 17L52 17L52 16ZM37 17L37 19L36 19L36 20L35 20L35 19L34 19L34 20L35 20L35 21L36 21L36 20L37 20L37 19L38 19L38 20L39 20L39 17ZM47 19L47 21L48 21L48 19ZM41 20L41 21L39 21L39 23L40 23L40 22L41 22L41 21L42 21L42 20ZM62 21L62 22L61 22L61 23L62 23L62 22L63 22L63 23L64 23L64 21ZM13 22L13 23L14 23L14 22ZM33 22L33 23L34 23L34 25L36 25L36 24L35 24L35 23L34 23L34 22ZM65 22L65 23L66 23L66 24L67 24L67 22ZM0 23L0 25L1 25L1 23ZM9 23L9 24L10 24L10 23ZM6 24L6 25L5 25L5 27L7 27L7 26L6 26L6 25L7 25L7 24ZM16 24L16 25L17 25L17 24ZM30 24L30 25L31 25L31 24ZM49 24L49 25L50 25L50 24ZM51 24L51 25L53 25L53 24ZM19 25L19 26L20 26L20 25ZM37 25L37 26L38 26L38 27L39 27L39 26L40 26L40 25ZM8 26L8 27L9 27L9 26ZM13 26L13 27L14 27L14 29L15 29L15 28L16 28L16 29L18 29L18 30L21 30L21 29L20 29L20 27L17 27L17 26L15 26L15 27L14 27L14 26ZM45 26L45 27L46 27L46 26ZM16 27L16 28L17 28L17 27ZM36 28L36 29L37 29L37 31L35 31L35 32L37 32L37 31L38 31L38 32L40 32L40 31L39 31L39 29L37 29L37 28ZM63 28L63 29L64 29L64 28ZM3 29L3 30L4 30L4 31L5 31L5 32L7 32L7 31L6 31L6 30L4 30L4 29ZM14 30L14 31L13 31L13 32L14 32L14 31L15 31L15 30ZM21 31L21 32L22 32L22 31ZM5 33L5 36L8 36L8 33ZM33 33L33 36L36 36L36 33ZM38 33L38 34L40 34L40 33ZM50 33L50 34L51 34L51 33ZM61 33L61 36L64 36L64 33ZM6 34L6 35L7 35L7 34ZM34 34L34 35L35 35L35 34ZM62 34L62 35L63 35L63 34ZM2 35L2 38L1 38L1 39L3 39L3 35ZM28 35L28 38L26 38L26 39L27 39L27 40L28 40L28 41L29 41L29 42L27 42L27 44L28 44L28 47L29 47L29 48L30 48L30 47L29 47L29 46L30 46L30 45L31 45L31 43L32 43L32 40L31 40L31 39L28 39L28 38L31 38L31 37L29 37L29 35ZM31 35L31 36L32 36L32 35ZM38 35L38 37L39 37L39 38L40 38L40 37L41 37L41 40L40 40L40 42L41 42L41 41L42 41L42 42L43 42L43 43L44 43L44 45L45 45L45 44L46 44L46 42L45 42L45 41L43 41L43 40L45 40L45 39L44 39L44 38L45 38L45 36L44 36L44 38L43 38L43 37L42 37L42 35L41 35L41 36L40 36L40 35ZM47 35L47 36L48 36L48 35ZM66 35L66 36L67 36L67 35ZM10 36L10 37L9 37L9 38L8 38L8 39L7 39L7 40L8 40L8 41L7 41L7 42L6 42L6 43L7 43L7 42L8 42L8 46L6 46L6 47L8 47L8 46L9 46L9 47L10 47L10 45L9 45L9 44L11 44L11 43L9 43L9 41L10 41L10 42L12 42L12 45L13 45L13 46L14 46L14 47L13 47L13 48L11 48L11 49L12 49L12 50L13 50L13 48L14 48L14 47L16 47L16 44L15 44L15 42L14 42L14 45L13 45L13 41L14 41L14 40L13 40L13 37L12 37L12 36ZM10 37L10 38L9 38L9 40L10 40L10 41L13 41L13 40L11 40L11 39L12 39L12 37ZM33 37L33 38L32 38L32 39L35 39L35 38L36 38L36 37ZM60 37L60 38L61 38L61 37ZM55 38L55 39L56 39L56 38ZM49 39L49 40L50 40L50 39ZM68 39L68 40L69 40L69 39ZM30 40L30 41L31 41L31 40ZM57 40L57 43L58 43L58 44L59 44L59 43L58 43L58 41L59 41L59 40ZM33 41L33 42L34 42L34 41ZM68 41L68 42L69 42L69 41ZM44 42L44 43L45 43L45 42ZM3 43L3 44L4 44L4 45L5 45L5 43ZM29 43L29 45L30 45L30 43ZM33 43L33 44L34 44L34 43ZM6 44L6 45L7 45L7 44ZM14 45L14 46L15 46L15 45ZM41 45L41 47L42 47L42 45ZM11 46L11 47L12 47L12 46ZM52 46L52 47L53 47L53 46ZM56 46L56 47L57 47L57 46ZM66 46L66 48L65 48L65 49L64 49L64 50L61 50L61 51L63 51L63 52L60 52L60 53L59 53L59 55L58 55L58 53L57 53L57 56L56 56L56 54L55 54L55 53L56 53L56 52L52 52L52 53L54 53L54 55L53 55L53 57L52 57L52 58L53 58L53 57L54 57L54 56L55 56L55 57L57 57L57 56L59 56L59 55L60 55L60 54L62 54L62 57L63 57L63 59L66 59L66 60L67 60L67 55L66 55L66 54L68 54L68 52L67 52L67 53L66 53L66 52L65 52L65 51L66 51L66 50L67 50L67 48L68 48L68 46ZM16 49L16 50L17 50L17 49ZM21 50L21 51L23 51L23 50ZM29 50L29 51L28 51L28 52L29 52L29 51L30 51L30 50ZM64 50L64 51L65 51L65 50ZM45 51L45 53L46 53L46 51ZM37 52L37 55L39 55L39 54L38 54L38 53L39 53L39 52ZM47 52L47 53L49 53L49 56L48 56L48 57L50 57L50 55L52 55L52 54L51 54L51 53L49 53L49 52ZM8 53L8 54L6 54L6 55L7 55L7 56L6 56L6 57L7 57L7 56L8 56L8 54L9 54L9 53ZM18 53L18 54L19 54L19 53ZM35 53L35 54L36 54L36 53ZM63 53L63 54L66 54L66 53ZM31 54L31 55L32 55L32 56L33 56L33 54ZM3 55L3 57L2 57L2 58L3 58L3 57L4 57L4 55ZM11 55L11 56L12 56L12 55ZM28 55L28 56L29 56L29 55ZM64 55L64 57L65 57L65 58L66 58L66 57L65 57L65 55ZM45 56L45 57L46 57L46 56ZM11 58L11 59L12 59L12 58ZM61 59L61 60L62 60L62 59ZM3 60L3 61L5 61L5 60ZM6 60L6 61L7 61L7 60ZM44 60L44 61L45 61L45 60ZM49 60L49 61L50 61L50 60ZM15 61L15 62L14 62L14 63L15 63L15 62L16 62L16 61ZM33 61L33 64L36 64L36 61ZM58 61L58 62L57 62L57 63L58 63L58 64L57 64L57 65L59 65L59 64L60 64L60 63L59 63L59 61ZM61 61L61 64L64 64L64 61ZM24 62L24 63L25 63L25 62ZM34 62L34 63L35 63L35 62ZM37 62L37 64L39 64L39 62ZM62 62L62 63L63 63L63 62ZM11 64L11 65L10 65L10 66L9 66L9 68L10 68L10 67L11 67L11 65L12 65L12 66L13 66L13 65L12 65L12 64ZM18 64L18 66L16 66L16 65L15 65L15 67L19 67L19 64ZM30 64L30 65L31 65L31 64ZM49 64L49 65L46 65L46 68L45 68L45 69L48 69L48 68L47 68L47 66L49 66L49 65L50 65L50 64ZM51 64L51 65L52 65L52 64ZM36 65L36 66L39 66L39 67L40 67L40 68L41 68L41 67L40 67L40 66L39 66L39 65ZM66 65L66 66L67 66L67 65ZM29 66L29 67L31 67L31 66ZM44 66L44 67L45 67L45 66ZM25 67L25 68L26 68L26 67ZM57 67L57 68L59 68L59 67ZM68 67L68 68L69 68L69 67ZM0 0L0 7L7 7L7 0ZM1 1L1 6L6 6L6 1ZM2 2L2 5L5 5L5 2ZM62 0L62 7L69 7L69 0ZM63 1L63 6L68 6L68 1ZM64 2L64 5L67 5L67 2ZM0 62L0 69L7 69L7 62ZM1 63L1 68L6 68L6 63ZM2 64L2 67L5 67L5 64Z" fill="#000000"/></g></g></svg>
