<?xml version="1.0" encoding="UTF-8"?>
<svg xmlns="http://www.w3.org/2000/svg" version="1.1" width="300" height="300" viewBox="0 0 300 300"><rect x="0" y="0" width="300" height="300" fill="#ffffff"/><g transform="scale(4.348)"><g transform="translate(0,0)"><path fill-rule="evenodd" d="M8 0L8 1L9 1L9 6L8 6L8 8L9 8L9 9L10 9L10 7L11 7L11 6L10 6L10 4L11 4L11 3L13 3L13 4L12 4L12 5L14 5L14 8L13 8L13 9L12 9L12 8L11 8L11 9L12 9L12 10L14 10L14 8L15 8L15 9L16 9L16 10L15 10L15 11L16 11L16 12L17 12L17 11L16 11L16 10L18 10L18 9L19 9L19 10L21 10L21 11L20 11L20 12L21 12L21 11L24 11L24 9L25 9L25 11L26 11L26 13L25 13L25 12L22 12L22 16L23 16L23 14L25 14L25 16L26 16L26 17L24 17L24 18L23 18L23 17L21 17L21 16L20 16L20 15L19 15L19 16L20 16L20 17L15 17L15 18L14 18L14 17L12 17L12 16L11 16L11 15L9 15L9 14L10 14L10 13L7 13L7 12L10 12L10 10L9 10L9 11L8 11L8 9L7 9L7 8L6 8L6 9L7 9L7 10L5 10L5 11L4 11L4 12L5 12L5 11L7 11L7 12L6 12L6 13L7 13L7 14L6 14L6 15L7 15L7 16L5 16L5 14L4 14L4 15L3 15L3 17L8 17L8 21L9 21L9 22L10 22L10 23L9 23L9 24L8 24L8 22L5 22L5 20L6 20L6 21L7 21L7 20L6 20L6 19L7 19L7 18L4 18L4 19L3 19L3 20L4 20L4 22L3 22L3 21L0 21L0 22L1 22L1 23L2 23L2 24L0 24L0 25L2 25L2 26L3 26L3 28L2 28L2 27L1 27L1 26L0 26L0 28L2 28L2 29L1 29L1 30L3 30L3 29L4 29L4 31L8 31L8 32L4 32L4 33L2 33L2 34L1 34L1 33L0 33L0 35L3 35L3 36L0 36L0 40L1 40L1 41L0 41L0 42L1 42L1 41L2 41L2 43L3 43L3 44L4 44L4 45L5 45L5 46L4 46L4 47L3 47L3 46L2 46L2 44L1 44L1 43L0 43L0 45L1 45L1 46L0 46L0 47L3 47L3 49L0 49L0 50L2 50L2 51L3 51L3 52L5 52L5 53L3 53L3 54L4 54L4 55L7 55L7 56L6 56L6 57L7 57L7 56L8 56L8 57L9 57L9 58L10 58L10 59L11 59L11 58L12 58L12 59L14 59L14 60L16 60L16 61L12 61L12 60L11 60L11 61L12 61L12 64L11 64L11 62L10 62L10 60L9 60L9 59L8 59L8 60L6 60L6 61L8 61L8 62L10 62L10 64L8 64L8 66L9 66L9 65L10 65L10 66L11 66L11 67L10 67L10 69L11 69L11 67L12 67L12 68L13 68L13 69L14 69L14 68L15 68L15 69L16 69L16 68L17 68L17 69L21 69L21 66L20 66L20 67L19 67L19 65L21 65L21 63L22 63L22 64L23 64L23 65L22 65L22 69L24 69L24 68L25 68L25 69L26 69L26 68L28 68L28 69L31 69L31 68L30 68L30 67L31 67L31 65L32 65L32 66L33 66L33 67L32 67L32 68L33 68L33 69L35 69L35 68L36 68L36 69L37 69L37 68L40 68L40 69L41 69L41 68L40 68L40 67L36 67L36 66L35 66L35 65L39 65L39 66L41 66L41 67L42 67L42 66L43 66L43 68L42 68L42 69L43 69L43 68L44 68L44 65L46 65L46 66L47 66L47 67L46 67L46 69L49 69L49 68L48 68L48 67L49 67L49 66L50 66L50 67L52 67L52 66L53 66L53 65L51 65L51 63L50 63L50 62L52 62L52 64L54 64L54 67L55 67L55 66L56 66L56 65L57 65L57 64L58 64L58 66L59 66L59 64L60 64L60 68L61 68L61 69L62 69L62 68L63 68L63 69L64 69L64 68L63 68L63 67L62 67L62 65L64 65L64 67L65 67L65 68L69 68L69 66L67 66L67 65L68 65L68 64L69 64L69 63L68 63L68 62L67 62L67 60L68 60L68 61L69 61L69 57L68 57L68 55L69 55L69 51L65 51L65 50L64 50L64 49L66 49L66 50L67 50L67 49L69 49L69 46L67 46L67 44L68 44L68 45L69 45L69 44L68 44L68 43L69 43L69 41L68 41L68 40L69 40L69 39L66 39L66 40L67 40L67 43L65 43L65 42L66 42L66 41L65 41L65 40L64 40L64 41L62 41L62 43L61 43L61 48L62 48L62 50L64 50L64 52L63 52L63 54L62 54L62 55L60 55L60 54L61 54L61 53L62 53L62 51L61 51L61 53L60 53L60 50L61 50L61 49L60 49L60 45L59 45L59 44L58 44L58 43L57 43L57 41L58 41L58 42L59 42L59 43L60 43L60 42L61 42L61 40L55 40L55 39L56 39L56 38L57 38L57 39L59 39L59 38L58 38L58 37L61 37L61 38L63 38L63 37L65 37L65 35L66 35L66 37L67 37L67 38L69 38L69 34L65 34L65 33L66 33L66 32L67 32L67 33L68 33L68 32L67 32L67 31L66 31L66 28L67 28L67 27L65 27L65 22L66 22L66 25L67 25L67 26L68 26L68 25L67 25L67 24L68 24L68 23L69 23L69 21L67 21L67 18L68 18L68 20L69 20L69 17L67 17L67 14L65 14L65 13L67 13L67 11L69 11L69 10L68 10L68 9L69 9L69 8L68 8L68 9L65 9L65 11L66 11L66 12L64 12L64 14L63 14L63 13L62 13L62 12L63 12L63 11L64 11L64 9L63 9L63 8L62 8L62 9L60 9L60 8L59 8L59 9L58 9L58 8L57 8L57 10L55 10L55 8L53 8L53 6L54 6L54 7L55 7L55 6L56 6L56 7L57 7L57 6L56 6L56 5L55 5L55 4L58 4L58 7L59 7L59 4L58 4L58 3L59 3L59 2L57 2L57 1L56 1L56 2L55 2L55 0L54 0L54 1L53 1L53 0L52 0L52 2L51 2L51 3L50 3L50 5L49 5L49 3L48 3L48 2L46 2L46 4L47 4L47 5L46 5L46 7L47 7L47 8L45 8L45 1L44 1L44 0L42 0L42 2L43 2L43 3L41 3L41 0L40 0L40 3L38 3L38 2L37 2L37 1L39 1L39 0L37 0L37 1L36 1L36 0L32 0L32 1L31 1L31 0L30 0L30 1L28 1L28 2L29 2L29 3L28 3L28 4L29 4L29 5L28 5L28 7L27 7L27 6L26 6L26 7L27 7L27 8L28 8L28 7L29 7L29 5L32 5L32 8L31 8L31 9L30 9L30 8L29 8L29 9L28 9L28 10L29 10L29 11L27 11L27 9L25 9L25 6L24 6L24 5L27 5L27 3L25 3L25 2L26 2L26 1L27 1L27 0L24 0L24 2L23 2L23 0L22 0L22 1L21 1L21 0L18 0L18 3L17 3L17 4L16 4L16 3L14 3L14 2L13 2L13 1L15 1L15 2L16 2L16 1L17 1L17 0L16 0L16 1L15 1L15 0L11 0L11 1L10 1L10 0ZM46 0L46 1L48 1L48 0ZM50 0L50 1L49 1L49 2L50 2L50 1L51 1L51 0ZM58 0L58 1L61 1L61 0ZM11 1L11 2L12 2L12 1ZM19 1L19 2L20 2L20 3L19 3L19 4L21 4L21 5L19 5L19 7L18 7L18 4L17 4L17 5L16 5L16 4L15 4L15 8L16 8L16 6L17 6L17 8L19 8L19 9L21 9L21 7L22 7L22 8L23 8L23 9L24 9L24 6L23 6L23 7L22 7L22 4L21 4L21 3L22 3L22 2L20 2L20 1ZM30 1L30 2L31 2L31 1ZM32 1L32 3L33 3L33 4L37 4L37 5L38 5L38 6L37 6L37 9L38 9L38 6L39 6L39 9L40 9L40 10L36 10L36 9L32 9L32 10L34 10L34 11L36 11L36 12L34 12L34 13L33 13L33 16L31 16L31 15L30 15L30 14L31 14L31 13L32 13L32 12L33 12L33 11L29 11L29 12L31 12L31 13L30 13L30 14L29 14L29 13L28 13L28 12L27 12L27 13L26 13L26 15L27 15L27 17L26 17L26 18L25 18L25 21L28 21L28 20L29 20L29 19L28 19L28 17L30 17L30 16L31 16L31 17L34 17L34 18L35 18L35 19L34 19L34 20L35 20L35 21L37 21L37 20L39 20L39 21L38 21L38 22L37 22L37 25L40 25L40 27L41 27L41 28L40 28L40 29L41 29L41 28L42 28L42 27L41 27L41 25L40 25L40 23L41 23L41 24L42 24L42 23L43 23L43 25L44 25L44 24L45 24L45 25L46 25L46 26L47 26L47 27L44 27L44 26L43 26L43 27L44 27L44 28L43 28L43 30L42 30L42 31L43 31L43 30L44 30L44 28L47 28L47 32L46 32L46 33L47 33L47 34L45 34L45 31L44 31L44 32L41 32L41 33L40 33L40 31L39 31L39 27L38 27L38 26L37 26L37 29L35 29L35 28L34 28L34 31L36 31L36 30L37 30L37 29L38 29L38 31L37 31L37 32L39 32L39 33L40 33L40 34L38 34L38 35L37 35L37 37L36 37L36 38L35 38L35 37L31 37L31 38L30 38L30 36L31 36L31 35L32 35L32 34L31 34L31 35L30 35L30 33L28 33L28 34L29 34L29 35L28 35L28 36L29 36L29 37L28 37L28 38L27 38L27 37L25 37L25 39L26 39L26 40L25 40L25 41L23 41L23 40L22 40L22 41L23 41L23 42L24 42L24 44L23 44L23 45L24 45L24 44L25 44L25 45L28 45L28 44L29 44L29 45L30 45L30 46L29 46L29 47L26 47L26 46L25 46L25 47L24 47L24 46L22 46L22 43L21 43L21 44L20 44L20 43L19 43L19 44L20 44L20 45L21 45L21 46L18 46L18 45L17 45L17 47L15 47L15 46L14 46L14 45L16 45L16 44L18 44L18 42L17 42L17 43L16 43L16 41L18 41L18 40L19 40L19 41L20 41L20 42L21 42L21 41L20 41L20 40L21 40L21 38L23 38L23 39L24 39L24 38L23 38L23 37L24 37L24 36L23 36L23 35L26 35L26 36L27 36L27 34L26 34L26 32L29 32L29 31L31 31L31 32L32 32L32 31L31 31L31 29L33 29L33 27L36 27L36 26L34 26L34 24L33 24L33 23L34 23L34 21L30 21L30 22L31 22L31 23L32 23L32 28L31 28L31 27L30 27L30 26L29 26L29 25L28 25L28 27L27 27L27 28L28 28L28 29L30 29L30 30L28 30L28 31L27 31L27 29L26 29L26 30L24 30L24 29L25 29L25 28L26 28L26 24L27 24L27 23L28 23L28 24L30 24L30 23L29 23L29 22L27 22L27 23L26 23L26 24L25 24L25 28L24 28L24 27L23 27L23 26L24 26L24 24L23 24L23 23L22 23L22 20L23 20L23 18L22 18L22 20L21 20L21 18L20 18L20 19L18 19L18 18L15 18L15 19L14 19L14 18L12 18L12 17L10 17L10 16L9 16L9 15L8 15L8 17L9 17L9 20L10 20L10 18L11 18L11 19L14 19L14 22L12 22L12 21L11 21L11 23L10 23L10 25L8 25L8 26L7 26L7 25L6 25L6 24L7 24L7 23L6 23L6 24L5 24L5 23L3 23L3 25L6 25L6 26L4 26L4 27L5 27L5 28L7 28L7 29L6 29L6 30L7 30L7 29L8 29L8 28L12 28L12 27L11 27L11 26L10 26L10 25L12 25L12 26L13 26L13 28L14 28L14 26L15 26L15 24L16 24L16 23L17 23L17 22L18 22L18 24L17 24L17 26L16 26L16 28L15 28L15 29L18 29L18 28L19 28L19 29L20 29L20 30L21 30L21 31L20 31L20 32L19 32L19 34L17 34L17 35L19 35L19 39L18 39L18 38L17 38L17 37L18 37L18 36L17 36L17 37L16 37L16 39L15 39L15 38L14 38L14 35L12 35L12 33L13 33L13 34L14 34L14 33L18 33L18 32L17 32L17 31L16 31L16 32L13 32L13 31L12 31L12 30L14 30L14 29L12 29L12 30L11 30L11 29L9 29L9 30L8 30L8 31L10 31L10 33L9 33L9 34L10 34L10 35L9 35L9 36L10 36L10 37L5 37L5 38L4 38L4 39L3 39L3 38L1 38L1 39L3 39L3 40L2 40L2 41L3 41L3 42L4 42L4 43L6 43L6 44L5 44L5 45L6 45L6 46L5 46L5 47L4 47L4 49L3 49L3 50L5 50L5 52L7 52L7 53L6 53L6 54L7 54L7 53L8 53L8 54L9 54L9 53L8 53L8 51L9 51L9 52L10 52L10 53L11 53L11 56L9 56L9 55L8 55L8 56L9 56L9 57L10 57L10 58L11 58L11 57L12 57L12 58L13 58L13 57L14 57L14 59L15 59L15 57L14 57L14 55L13 55L13 53L12 53L12 52L10 52L10 50L13 50L13 51L14 51L14 52L15 52L15 50L14 50L14 48L16 48L16 50L17 50L17 51L16 51L16 53L17 53L17 55L18 55L18 52L19 52L19 51L18 51L18 49L19 49L19 50L21 50L21 51L20 51L20 52L21 52L21 53L20 53L20 54L19 54L19 55L20 55L20 57L21 57L21 58L18 58L18 59L16 59L16 60L18 60L18 59L22 59L22 60L21 60L21 62L22 62L22 63L23 63L23 61L25 61L25 64L24 64L24 65L23 65L23 67L25 67L25 68L26 68L26 66L27 66L27 63L29 63L29 64L28 64L28 67L30 67L30 66L29 66L29 65L30 65L30 64L31 64L31 63L30 63L30 62L29 62L29 61L30 61L30 60L29 60L29 59L30 59L30 58L27 58L27 57L28 57L28 56L29 56L29 57L30 57L30 56L29 56L29 55L28 55L28 54L27 54L27 53L28 53L28 50L29 50L29 49L30 49L30 46L31 46L31 48L32 48L32 49L31 49L31 50L30 50L30 52L29 52L29 54L30 54L30 52L31 52L31 54L32 54L32 53L33 53L33 51L31 51L31 50L35 50L35 51L36 51L36 50L38 50L38 52L37 52L37 53L41 53L41 54L40 54L40 55L38 55L38 56L37 56L37 57L39 57L39 58L37 58L37 59L38 59L38 60L37 60L37 64L38 64L38 63L39 63L39 65L41 65L41 66L42 66L42 64L45 64L45 63L48 63L48 64L50 64L50 63L49 63L49 62L50 62L50 61L49 61L49 62L47 62L47 61L48 61L48 60L49 60L49 59L48 59L48 60L46 60L46 61L45 61L45 62L43 62L43 63L42 63L42 62L41 62L41 61L44 61L44 60L45 60L45 59L44 59L44 57L47 57L47 55L45 55L45 54L44 54L44 53L43 53L43 54L44 54L44 56L42 56L42 57L43 57L43 60L41 60L41 61L39 61L39 62L38 62L38 60L40 60L40 59L39 59L39 58L41 58L41 57L40 57L40 55L41 55L41 54L42 54L42 53L41 53L41 52L39 52L39 50L38 50L38 49L40 49L40 51L42 51L42 50L41 50L41 49L40 49L40 46L41 46L41 48L43 48L43 49L44 49L44 50L43 50L43 52L45 52L45 51L46 51L46 52L47 52L47 54L48 54L48 55L49 55L49 54L48 54L48 52L49 52L49 53L50 53L50 56L51 56L51 57L52 57L52 58L50 58L50 57L48 57L48 58L50 58L50 59L51 59L51 61L52 61L52 62L54 62L54 64L55 64L55 65L56 65L56 64L57 64L57 63L58 63L58 64L59 64L59 63L60 63L60 62L59 62L59 61L58 61L58 59L60 59L60 60L62 60L62 59L61 59L61 58L58 58L58 59L56 59L56 58L57 58L57 56L58 56L58 57L64 57L64 54L63 54L63 56L59 56L59 54L60 54L60 53L59 53L59 50L60 50L60 49L58 49L58 53L56 53L56 55L55 55L55 54L54 54L54 53L55 53L55 52L54 52L54 53L53 53L53 52L52 52L52 51L54 51L54 50L52 50L52 48L51 48L51 47L52 47L52 44L53 44L53 43L54 43L54 41L55 41L55 43L56 43L56 44L55 44L55 47L54 47L54 46L53 46L53 47L54 47L54 48L53 48L53 49L55 49L55 47L57 47L57 48L59 48L59 46L58 46L58 47L57 47L57 43L56 43L56 41L55 41L55 40L54 40L54 41L53 41L53 39L52 39L52 38L51 38L51 39L48 39L48 38L50 38L50 37L52 37L52 36L51 36L51 35L53 35L53 37L55 37L55 38L56 38L56 35L55 35L55 36L54 36L54 35L53 35L53 33L58 33L58 32L59 32L59 31L61 31L61 32L63 32L63 31L64 31L64 30L65 30L65 28L64 28L64 23L62 23L62 24L63 24L63 28L62 28L62 30L60 30L60 29L59 29L59 31L58 31L58 30L56 30L56 29L55 29L55 28L56 28L56 27L54 27L54 26L53 26L53 25L56 25L56 26L57 26L57 25L58 25L58 26L59 26L59 25L58 25L58 24L57 24L57 23L58 23L58 22L57 22L57 20L58 20L58 19L60 19L60 17L61 17L61 16L63 16L63 17L62 17L62 19L61 19L61 20L60 20L60 21L62 21L62 20L63 20L63 22L65 22L65 21L64 21L64 20L65 20L65 19L66 19L66 17L65 17L65 16L64 16L64 15L65 15L65 14L64 14L64 15L63 15L63 14L62 14L62 13L61 13L61 11L59 11L59 10L57 10L57 13L58 13L58 14L56 14L56 13L55 13L55 11L54 11L54 10L53 10L53 11L52 11L52 10L48 10L48 12L47 12L47 13L46 13L46 11L47 11L47 10L45 10L45 8L43 8L43 7L44 7L44 5L43 5L43 7L42 7L42 4L40 4L40 5L38 5L38 4L37 4L37 2L35 2L35 1L34 1L34 2L33 2L33 1ZM34 2L34 3L35 3L35 2ZM53 2L53 3L54 3L54 4L51 4L51 5L54 5L54 4L55 4L55 3L54 3L54 2ZM56 2L56 3L57 3L57 2ZM24 3L24 4L23 4L23 5L24 5L24 4L25 4L25 3ZM60 3L60 5L61 5L61 3ZM33 5L33 8L36 8L36 5ZM48 5L48 6L47 6L47 7L48 7L48 6L49 6L49 7L50 7L50 8L49 8L49 9L50 9L50 8L51 8L51 9L52 9L52 6L51 6L51 7L50 7L50 6L49 6L49 5ZM9 6L9 7L10 7L10 6ZM12 6L12 7L13 7L13 6ZM20 6L20 7L21 7L21 6ZM30 6L30 7L31 7L31 6ZM34 6L34 7L35 7L35 6ZM40 6L40 7L41 7L41 6ZM60 6L60 7L61 7L61 6ZM0 8L0 11L1 11L1 10L2 10L2 8ZM3 8L3 10L4 10L4 9L5 9L5 8ZM40 8L40 9L41 9L41 10L40 10L40 12L41 12L41 13L40 13L40 14L41 14L41 15L40 15L40 16L41 16L41 17L39 17L39 13L38 13L38 12L39 12L39 11L38 11L38 12L37 12L37 13L38 13L38 14L34 14L34 16L35 16L35 18L36 18L36 19L40 19L40 21L41 21L41 23L42 23L42 22L45 22L45 23L46 23L46 24L47 24L47 26L48 26L48 27L49 27L49 26L48 26L48 25L50 25L50 26L52 26L52 27L51 27L51 28L53 28L53 29L51 29L51 30L50 30L50 29L49 29L49 28L48 28L48 29L49 29L49 30L48 30L48 31L49 31L49 30L50 30L50 31L52 31L52 30L53 30L53 29L54 29L54 32L55 32L55 31L56 31L56 32L57 32L57 31L56 31L56 30L55 30L55 29L54 29L54 28L53 28L53 26L52 26L52 25L53 25L53 24L55 24L55 21L53 21L53 20L54 20L54 19L56 19L56 20L57 20L57 19L58 19L58 18L59 18L59 17L60 17L60 16L59 16L59 15L61 15L61 13L60 13L60 14L58 14L58 16L59 16L59 17L57 17L57 15L56 15L56 14L55 14L55 13L54 13L54 12L52 12L52 11L49 11L49 12L48 12L48 13L47 13L47 14L46 14L46 13L45 13L45 10L44 10L44 9L41 9L41 8ZM29 9L29 10L30 10L30 9ZM41 10L41 12L42 12L42 13L41 13L41 14L42 14L42 15L41 15L41 16L47 16L47 17L48 17L48 16L50 16L50 19L51 19L51 18L52 18L52 19L53 19L53 18L54 18L54 17L53 17L53 15L52 15L52 14L53 14L53 13L52 13L52 14L51 14L51 16L50 16L50 15L49 15L49 14L50 14L50 13L51 13L51 12L50 12L50 13L49 13L49 14L47 14L47 15L46 15L46 14L44 14L44 10ZM62 10L62 11L63 11L63 10ZM2 11L2 14L1 14L1 12L0 12L0 16L1 16L1 15L2 15L2 14L3 14L3 11ZM12 11L12 12L11 12L11 14L12 14L12 15L13 15L13 12L14 12L14 16L15 16L15 14L16 14L16 13L15 13L15 12L14 12L14 11ZM18 11L18 14L17 14L17 15L16 15L16 16L17 16L17 15L18 15L18 14L21 14L21 13L19 13L19 11ZM58 11L58 12L59 12L59 11ZM27 13L27 15L28 15L28 16L29 16L29 15L28 15L28 13ZM42 13L42 14L43 14L43 15L44 15L44 14L43 14L43 13ZM68 13L68 14L69 14L69 13ZM54 14L54 15L55 15L55 14ZM35 15L35 16L36 16L36 18L37 18L37 17L38 17L38 18L39 18L39 17L38 17L38 16L37 16L37 15ZM68 15L68 16L69 16L69 15ZM0 17L0 18L1 18L1 20L2 20L2 18L1 18L1 17ZM41 17L41 18L40 18L40 19L41 19L41 20L42 20L42 17ZM43 17L43 18L44 18L44 19L45 19L45 17ZM55 17L55 18L56 18L56 17ZM26 18L26 20L27 20L27 18ZM30 18L30 19L31 19L31 20L32 20L32 19L31 19L31 18ZM46 18L46 20L43 20L43 21L47 21L47 19L48 19L48 20L49 20L49 19L48 19L48 18ZM64 18L64 19L65 19L65 18ZM4 19L4 20L5 20L5 19ZM15 19L15 20L17 20L17 21L15 21L15 22L14 22L14 24L15 24L15 22L17 22L17 21L18 21L18 22L20 22L20 23L19 23L19 24L18 24L18 26L17 26L17 28L18 28L18 26L19 26L19 27L21 27L21 28L20 28L20 29L21 29L21 30L22 30L22 35L21 35L21 33L20 33L20 34L19 34L19 35L21 35L21 36L20 36L20 38L21 38L21 36L22 36L22 37L23 37L23 36L22 36L22 35L23 35L23 34L25 34L25 33L24 33L24 30L22 30L22 29L21 29L21 28L22 28L22 26L21 26L21 25L20 25L20 23L21 23L21 20L17 20L17 19ZM50 20L50 21L51 21L51 20ZM24 22L24 23L25 23L25 22ZM32 22L32 23L33 23L33 22ZM35 22L35 23L36 23L36 22ZM38 22L38 24L39 24L39 23L40 23L40 22ZM46 22L46 23L47 23L47 24L49 24L49 23L48 23L48 22ZM52 22L52 23L50 23L50 24L51 24L51 25L52 25L52 23L54 23L54 22ZM56 22L56 23L57 23L57 22ZM59 22L59 23L60 23L60 22ZM12 24L12 25L13 25L13 26L14 26L14 25L13 25L13 24ZM56 24L56 25L57 25L57 24ZM60 24L60 25L61 25L61 27L62 27L62 25L61 25L61 24ZM19 25L19 26L20 26L20 25ZM6 26L6 27L7 27L7 28L8 28L8 27L10 27L10 26L8 26L8 27L7 27L7 26ZM28 27L28 28L29 28L29 27ZM57 27L57 28L59 28L59 27ZM30 28L30 29L31 29L31 28ZM68 28L68 29L67 29L67 30L68 30L68 31L69 31L69 28ZM10 30L10 31L11 31L11 30ZM62 30L62 31L63 31L63 30ZM0 31L0 32L3 32L3 31ZM25 31L25 32L26 32L26 31ZM11 32L11 33L12 33L12 32ZM47 32L47 33L49 33L49 34L47 34L47 35L44 35L44 37L45 37L45 38L44 38L44 40L42 40L42 43L41 43L41 45L42 45L42 46L44 46L44 44L43 44L43 43L44 43L44 41L45 41L45 42L47 42L47 41L45 41L45 39L46 39L46 36L48 36L48 37L50 37L50 35L49 35L49 34L51 34L51 33L50 33L50 32ZM52 32L52 33L53 33L53 32ZM5 33L5 36L8 36L8 33ZM33 33L33 36L36 36L36 33ZM41 33L41 34L40 34L40 35L39 35L39 36L38 36L38 37L37 37L37 38L36 38L36 39L35 39L35 38L33 38L33 39L32 39L32 38L31 38L31 40L33 40L33 41L32 41L32 42L31 42L31 41L29 41L29 40L28 40L28 42L31 42L31 44L30 44L30 43L29 43L29 44L30 44L30 45L32 45L32 46L33 46L33 44L32 44L32 42L34 42L34 43L35 43L35 42L34 42L34 40L33 40L33 39L35 39L35 40L36 40L36 42L38 42L38 43L36 43L36 44L37 44L37 45L35 45L35 44L34 44L34 45L35 45L35 46L34 46L34 47L33 47L33 48L34 48L34 49L35 49L35 50L36 50L36 48L35 48L35 47L38 47L38 48L37 48L37 49L38 49L38 48L39 48L39 47L38 47L38 46L39 46L39 45L38 45L38 43L39 43L39 42L40 42L40 41L39 41L39 39L40 39L40 38L39 38L39 36L40 36L40 37L41 37L41 39L42 39L42 38L43 38L43 37L41 37L41 36L42 36L42 34L43 34L43 33ZM61 33L61 36L64 36L64 33ZM3 34L3 35L4 35L4 34ZM6 34L6 35L7 35L7 34ZM15 34L15 35L16 35L16 34ZM34 34L34 35L35 35L35 34ZM57 34L57 35L60 35L60 34ZM62 34L62 35L63 35L63 34ZM67 35L67 37L68 37L68 35ZM10 37L10 38L9 38L9 39L8 39L8 38L5 38L5 39L8 39L8 40L6 40L6 41L5 41L5 42L6 42L6 43L7 43L7 44L6 44L6 45L7 45L7 46L6 46L6 47L7 47L7 46L8 46L8 48L5 48L5 50L6 50L6 51L7 51L7 50L8 50L8 49L9 49L9 50L10 50L10 49L12 49L12 48L14 48L14 47L13 47L13 45L14 45L14 44L15 44L15 42L14 42L14 44L13 44L13 43L12 43L12 45L11 45L11 46L10 46L10 45L9 45L9 46L8 46L8 43L7 43L7 42L6 42L6 41L8 41L8 42L9 42L9 43L11 43L11 42L13 42L13 41L15 41L15 40L14 40L14 38L12 38L12 37ZM10 38L10 39L9 39L9 40L11 40L11 41L12 41L12 40L13 40L13 39L12 39L12 38ZM28 38L28 39L30 39L30 38ZM37 38L37 40L38 40L38 39L39 39L39 38ZM64 38L64 39L65 39L65 38ZM16 39L16 40L17 40L17 39ZM51 39L51 41L52 41L52 43L51 43L51 42L50 42L50 41L49 41L49 40L48 40L48 41L49 41L49 42L48 42L48 43L47 43L47 45L46 45L46 43L45 43L45 46L47 46L47 47L46 47L46 48L44 48L44 47L43 47L43 48L44 48L44 49L45 49L45 50L44 50L44 51L45 51L45 50L46 50L46 51L49 51L49 52L50 52L50 51L51 51L51 48L50 48L50 47L49 47L49 48L47 48L47 47L48 47L48 46L51 46L51 44L52 44L52 43L53 43L53 41L52 41L52 39ZM3 40L3 41L4 41L4 40ZM26 40L26 41L25 41L25 43L26 43L26 44L27 44L27 43L26 43L26 42L27 42L27 40ZM9 41L9 42L10 42L10 41ZM38 41L38 42L39 42L39 41ZM59 41L59 42L60 42L60 41ZM49 42L49 43L48 43L48 44L49 44L49 43L50 43L50 44L51 44L51 43L50 43L50 42ZM63 42L63 44L62 44L62 45L64 45L64 42ZM65 44L65 46L63 46L63 47L62 47L62 48L63 48L63 49L64 49L64 48L63 48L63 47L65 47L65 48L66 48L66 49L67 49L67 48L66 48L66 47L65 47L65 46L66 46L66 44ZM9 46L9 47L10 47L10 48L12 48L12 47L10 47L10 46ZM21 46L21 47L19 47L19 49L21 49L21 50L22 50L22 51L21 51L21 52L22 52L22 51L23 51L23 53L21 53L21 54L23 54L23 53L24 53L24 54L25 54L25 55L24 55L24 56L23 56L23 55L22 55L22 56L23 56L23 57L22 57L22 59L23 59L23 60L22 60L22 61L23 61L23 60L26 60L26 63L27 63L27 62L28 62L28 60L27 60L27 58L26 58L26 57L25 57L25 56L28 56L28 55L27 55L27 54L26 54L26 53L27 53L27 52L25 52L25 51L26 51L26 50L27 50L27 48L26 48L26 47L25 47L25 48L24 48L24 47L23 47L23 48L22 48L22 49L21 49L21 47L22 47L22 46ZM17 47L17 48L18 48L18 47ZM28 48L28 49L29 49L29 48ZM6 49L6 50L7 50L7 49ZM25 49L25 50L26 50L26 49ZM46 49L46 50L48 50L48 49ZM49 50L49 51L50 51L50 50ZM56 50L56 51L57 51L57 50ZM0 51L0 52L1 52L1 53L2 53L2 52L1 52L1 51ZM24 52L24 53L25 53L25 52ZM34 52L34 53L35 53L35 55L36 55L36 53L35 53L35 52ZM64 52L64 53L66 53L66 52ZM67 52L67 55L68 55L68 52ZM51 53L51 54L53 54L53 55L51 55L51 56L52 56L52 57L53 57L53 58L55 58L55 55L54 55L54 54L53 54L53 53ZM58 53L58 54L59 54L59 53ZM0 55L0 56L3 56L3 57L2 57L2 59L3 59L3 58L4 58L4 59L7 59L7 58L5 58L5 57L4 57L4 56L3 56L3 55ZM12 55L12 56L13 56L13 55ZM15 55L15 56L16 56L16 55ZM31 55L31 59L33 59L33 60L34 60L34 59L35 59L35 60L36 60L36 57L35 57L35 58L34 58L34 55L33 55L33 57L32 57L32 55ZM56 55L56 56L57 56L57 55ZM65 56L65 57L66 57L66 59L65 59L65 60L66 60L66 59L67 59L67 58L68 58L68 57L67 57L67 56ZM16 57L16 58L17 58L17 57ZM23 57L23 59L24 59L24 57ZM0 58L0 61L1 61L1 58ZM46 58L46 59L47 59L47 58ZM63 58L63 59L64 59L64 58ZM52 59L52 61L53 61L53 59ZM54 59L54 62L55 62L55 60L56 60L56 62L57 62L57 60L56 60L56 59ZM3 60L3 61L5 61L5 60ZM8 60L8 61L9 61L9 60ZM31 60L31 61L32 61L32 60ZM16 61L16 62L17 62L17 63L18 63L18 62L20 62L20 61L18 61L18 62L17 62L17 61ZM33 61L33 64L36 64L36 61ZM61 61L61 64L64 64L64 61ZM34 62L34 63L35 63L35 62ZM40 62L40 63L41 63L41 62ZM62 62L62 63L63 63L63 62ZM65 62L65 63L66 63L66 62ZM14 63L14 65L13 65L13 64L12 64L12 65L11 65L11 66L12 66L12 65L13 65L13 68L14 68L14 66L15 66L15 63ZM55 63L55 64L56 64L56 63ZM25 64L25 65L24 65L24 66L25 66L25 65L26 65L26 64ZM46 64L46 65L47 65L47 64ZM66 64L66 65L67 65L67 64ZM17 65L17 66L16 66L16 67L15 67L15 68L16 68L16 67L18 67L18 65ZM50 65L50 66L51 66L51 65ZM34 66L34 68L35 68L35 66ZM65 66L65 67L66 67L66 66ZM8 67L8 69L9 69L9 67ZM61 67L61 68L62 68L62 67ZM50 68L50 69L51 69L51 68ZM52 68L52 69L53 69L53 68ZM54 68L54 69L56 69L56 68ZM57 68L57 69L58 69L58 68ZM0 0L0 7L7 7L7 0ZM1 1L1 6L6 6L6 1ZM2 2L2 5L5 5L5 2ZM62 0L62 7L69 7L69 0ZM63 1L63 6L68 6L68 1ZM64 2L64 5L67 5L67 2ZM0 62L0 69L7 69L7 62ZM1 63L1 68L6 68L6 63ZM2 64L2 67L5 67L5 64Z" fill="#000000"/></g></g></svg>
