<?xml version="1.0" encoding="UTF-8"?>
<svg xmlns="http://www.w3.org/2000/svg" version="1.1" width="300" height="300" viewBox="0 0 300 300"><rect x="0" y="0" width="300" height="300" fill="#ffffff"/><g transform="scale(4.348)"><g transform="translate(0,0)"><path fill-rule="evenodd" d="M11 0L11 1L10 1L10 2L9 2L9 1L8 1L8 2L9 2L9 3L8 3L8 4L9 4L9 5L8 5L8 7L9 7L9 8L6 8L6 9L5 9L5 8L0 8L0 14L1 14L1 13L3 13L3 12L5 12L5 11L9 11L9 9L10 9L10 10L11 10L11 9L10 9L10 8L13 8L13 6L14 6L14 7L15 7L15 8L14 8L14 9L12 9L12 11L10 11L10 12L6 12L6 13L5 13L5 14L6 14L6 15L8 15L8 17L7 17L7 16L5 16L5 15L4 15L4 14L2 14L2 15L0 15L0 16L1 16L1 18L2 18L2 20L1 20L1 22L0 22L0 24L1 24L1 23L2 23L2 25L1 25L1 26L0 26L0 27L1 27L1 28L0 28L0 30L1 30L1 29L3 29L3 31L0 31L0 32L1 32L1 33L0 33L0 34L1 34L1 36L0 36L0 38L1 38L1 37L2 37L2 38L3 38L3 39L2 39L2 40L1 40L1 41L2 41L2 42L0 42L0 43L2 43L2 44L4 44L4 45L7 45L7 46L6 46L6 47L5 47L5 48L4 48L4 47L3 47L3 45L1 45L1 46L0 46L0 47L1 47L1 46L2 46L2 48L1 48L1 49L0 49L0 50L1 50L1 52L0 52L0 56L2 56L2 57L3 57L3 58L2 58L2 59L3 59L3 58L4 58L4 59L7 59L7 60L6 60L6 61L7 61L7 60L11 60L11 61L10 61L10 62L11 62L11 61L12 61L12 62L13 62L13 63L11 63L11 64L8 64L8 69L12 69L12 67L13 67L13 69L16 69L16 68L17 68L17 69L19 69L19 67L20 67L20 66L19 66L19 65L20 65L20 64L21 64L21 62L23 62L23 63L24 63L24 64L23 64L23 66L21 66L21 68L20 68L20 69L21 69L21 68L23 68L23 69L24 69L24 68L25 68L25 65L28 65L28 66L26 66L26 68L27 68L27 69L28 69L28 68L29 68L29 69L32 69L32 67L33 67L33 65L36 65L36 66L37 66L37 67L35 67L35 66L34 66L34 67L35 67L35 68L36 68L36 69L38 69L38 68L37 68L37 67L39 67L39 66L38 66L38 64L41 64L41 66L40 66L40 67L41 67L41 68L42 68L42 69L44 69L44 68L47 68L47 69L49 69L49 68L50 68L50 69L51 69L51 68L52 68L52 66L51 66L51 67L49 67L49 66L50 66L50 65L51 65L51 64L52 64L52 62L51 62L51 64L50 64L50 63L48 63L48 64L47 64L47 65L49 65L49 66L48 66L48 67L49 67L49 68L47 68L47 66L46 66L46 64L45 64L45 63L46 63L46 62L45 62L45 63L44 63L44 62L43 62L43 61L44 61L44 59L43 59L43 57L44 57L44 56L46 56L46 57L47 57L47 58L48 58L48 57L50 57L50 56L48 56L48 55L47 55L47 56L46 56L46 54L45 54L45 53L49 53L49 54L50 54L50 53L51 53L51 52L53 52L53 54L52 54L52 55L51 55L51 56L52 56L52 55L53 55L53 56L54 56L54 57L53 57L53 59L52 59L52 60L54 60L54 61L53 61L53 62L54 62L54 63L56 63L56 64L53 64L53 67L55 67L55 68L53 68L53 69L56 69L56 68L57 68L57 67L58 67L58 66L57 66L57 65L56 65L56 64L57 64L57 63L60 63L60 64L59 64L59 65L60 65L60 66L59 66L59 67L60 67L60 68L62 68L62 69L64 69L64 68L67 68L67 69L68 69L68 68L67 68L67 66L65 66L65 67L63 67L63 65L65 65L65 64L67 64L67 63L68 63L68 64L69 64L69 63L68 63L68 62L67 62L67 59L68 59L68 58L69 58L69 57L68 57L68 58L67 58L67 59L65 59L65 60L62 60L62 58L63 58L63 59L64 59L64 58L63 58L63 57L65 57L65 58L66 58L66 57L67 57L67 55L68 55L68 56L69 56L69 55L68 55L68 54L69 54L69 53L68 53L68 54L67 54L67 53L66 53L66 52L68 52L68 50L69 50L69 48L68 48L68 49L67 49L67 50L66 50L66 49L65 49L65 48L67 48L67 47L68 47L68 45L67 45L67 44L68 44L68 42L69 42L69 40L68 40L68 41L66 41L66 40L67 40L67 39L68 39L68 38L67 38L67 37L68 37L68 36L69 36L69 35L68 35L68 34L69 34L69 31L68 31L68 34L67 34L67 35L66 35L66 34L65 34L65 33L66 33L66 32L67 32L67 31L65 31L65 30L64 30L64 32L63 32L63 31L62 31L62 29L63 29L63 28L64 28L64 26L63 26L63 28L62 28L62 27L60 27L60 28L59 28L59 27L58 27L58 26L57 26L57 25L58 25L58 23L59 23L59 24L60 24L60 25L59 25L59 26L62 26L62 25L64 25L64 24L67 24L67 25L66 25L66 26L65 26L65 29L66 29L66 28L67 28L67 27L68 27L68 29L67 29L67 30L69 30L69 27L68 27L68 25L69 25L69 23L68 23L68 22L69 22L69 21L68 21L68 18L69 18L69 17L68 17L68 14L65 14L65 13L63 13L63 11L64 11L64 12L66 12L66 13L67 13L67 11L68 11L68 12L69 12L69 11L68 11L68 10L69 10L69 9L68 9L68 8L67 8L67 11L64 11L64 10L65 10L65 9L66 9L66 8L65 8L65 9L64 9L64 8L63 8L63 11L61 11L61 13L60 13L60 11L59 11L59 10L62 10L62 8L61 8L61 6L60 6L60 7L59 7L59 4L58 4L58 5L57 5L57 6L56 6L56 5L55 5L55 4L56 4L56 3L59 3L59 2L58 2L58 1L61 1L61 0L58 0L58 1L57 1L57 2L56 2L56 3L55 3L55 1L56 1L56 0L51 0L51 1L50 1L50 0L49 0L49 1L48 1L48 0L47 0L47 1L46 1L46 0L44 0L44 1L46 1L46 2L48 2L48 3L47 3L47 4L48 4L48 5L47 5L47 6L46 6L46 5L44 5L44 3L45 3L45 4L46 4L46 3L45 3L45 2L44 2L44 3L43 3L43 0L41 0L41 1L38 1L38 0L37 0L37 1L35 1L35 2L39 2L39 3L41 3L41 1L42 1L42 3L43 3L43 4L39 4L39 5L44 5L44 7L45 7L45 9L44 9L44 8L43 8L43 9L40 9L40 10L41 10L41 12L40 12L40 11L39 11L39 10L38 10L38 7L39 7L39 6L38 6L38 5L37 5L37 4L38 4L38 3L37 3L37 4L34 4L34 3L33 3L33 2L34 2L34 1L32 1L32 0L28 0L28 1L27 1L27 2L28 2L28 3L27 3L27 4L28 4L28 3L29 3L29 4L30 4L30 5L28 5L28 7L29 7L29 6L30 6L30 7L31 7L31 6L30 6L30 5L32 5L32 9L30 9L30 8L28 8L28 9L26 9L26 7L27 7L27 6L26 6L26 1L25 1L25 0L23 0L23 2L22 2L22 1L21 1L21 3L17 3L17 2L18 2L18 1L19 1L19 2L20 2L20 1L19 1L19 0L17 0L17 2L16 2L16 4L17 4L17 5L18 5L18 7L17 7L17 6L16 6L16 7L15 7L15 5L14 5L14 4L13 4L13 6L12 6L12 7L11 7L11 6L10 6L10 4L11 4L11 5L12 5L12 4L11 4L11 3L10 3L10 2L12 2L12 3L13 3L13 2L14 2L14 1L15 1L15 0ZM24 1L24 2L23 2L23 3L21 3L21 4L20 4L20 5L21 5L21 4L23 4L23 3L24 3L24 2L25 2L25 1ZM31 1L31 2L30 2L30 3L31 3L31 2L32 2L32 1ZM49 1L49 3L50 3L50 5L48 5L48 6L47 6L47 7L46 7L46 6L45 6L45 7L46 7L46 9L45 9L45 10L42 10L42 12L41 12L41 14L42 14L42 15L40 15L40 14L39 14L39 13L40 13L40 12L39 12L39 11L38 11L38 10L36 10L36 9L35 9L35 10L34 10L34 9L32 9L32 11L31 11L31 12L32 12L32 13L27 13L27 12L28 12L28 11L30 11L30 9L28 9L28 11L26 11L26 12L25 12L25 10L26 10L26 9L24 9L24 6L25 6L25 7L26 7L26 6L25 6L25 5L24 5L24 6L23 6L23 5L22 5L22 6L21 6L21 7L20 7L20 6L19 6L19 7L20 7L20 11L19 11L19 10L17 10L17 11L16 11L16 12L15 12L15 10L16 10L16 9L17 9L17 8L16 8L16 9L14 9L14 11L13 11L13 13L14 13L14 15L13 15L13 16L15 16L15 15L16 15L16 20L15 20L15 19L10 19L10 18L14 18L14 17L11 17L11 16L10 16L10 17L8 17L8 18L9 18L9 19L10 19L10 20L9 20L9 21L10 21L10 22L13 22L13 23L12 23L12 24L11 24L11 23L9 23L9 22L8 22L8 21L6 21L6 20L8 20L8 19L6 19L6 18L7 18L7 17L5 17L5 16L3 16L3 15L2 15L2 16L3 16L3 18L4 18L4 19L3 19L3 21L4 21L4 24L5 24L5 25L3 25L3 29L4 29L4 30L7 30L7 29L8 29L8 28L7 28L7 27L8 27L8 25L9 25L9 30L8 30L8 32L9 32L9 30L10 30L10 32L11 32L11 35L9 35L9 37L12 37L12 39L10 39L10 40L11 40L11 41L10 41L10 42L9 42L9 43L6 43L6 42L8 42L8 41L9 41L9 40L7 40L7 39L9 39L9 38L8 38L8 37L6 37L6 38L7 38L7 39L6 39L6 40L5 40L5 39L4 39L4 40L2 40L2 41L3 41L3 43L4 43L4 44L9 44L9 45L8 45L8 47L9 47L9 48L7 48L7 47L6 47L6 48L5 48L5 49L4 49L4 51L3 51L3 50L2 50L2 49L3 49L3 48L2 48L2 49L1 49L1 50L2 50L2 52L1 52L1 53L2 53L2 54L3 54L3 53L4 53L4 57L5 57L5 58L7 58L7 57L8 57L8 58L9 58L9 59L12 59L12 61L13 61L13 62L14 62L14 63L13 63L13 64L11 64L11 65L13 65L13 66L14 66L14 68L15 68L15 66L17 66L17 65L18 65L18 64L17 64L17 65L15 65L15 64L16 64L16 63L18 63L18 62L19 62L19 63L20 63L20 62L21 62L21 61L23 61L23 60L24 60L24 61L25 61L25 62L24 62L24 63L25 63L25 64L26 64L26 63L25 63L25 62L26 62L26 61L27 61L27 62L28 62L28 63L27 63L27 64L28 64L28 65L29 65L29 68L31 68L31 66L32 66L32 65L31 65L31 66L30 66L30 65L29 65L29 63L30 63L30 62L31 62L31 63L32 63L32 60L31 60L31 59L33 59L33 58L34 58L34 59L37 59L37 61L38 61L38 62L37 62L37 63L38 63L38 62L39 62L39 63L41 63L41 64L44 64L44 66L41 66L41 67L42 67L42 68L44 68L44 66L45 66L45 67L46 67L46 66L45 66L45 64L44 64L44 63L42 63L42 62L41 62L41 60L42 60L42 61L43 61L43 60L42 60L42 58L41 58L41 59L40 59L40 62L39 62L39 60L38 60L38 59L39 59L39 57L41 57L41 56L39 56L39 57L38 57L38 58L35 58L35 55L36 55L36 54L37 54L37 55L42 55L42 54L37 54L37 53L38 53L38 52L37 52L37 53L35 53L35 51L36 51L36 50L37 50L37 51L39 51L39 50L41 50L41 51L42 51L42 52L39 52L39 53L43 53L43 56L42 56L42 57L43 57L43 56L44 56L44 53L45 53L45 52L46 52L46 51L47 51L47 47L48 47L48 48L49 48L49 49L50 49L50 51L49 51L49 52L50 52L50 51L51 51L51 50L52 50L52 49L53 49L53 48L52 48L52 47L51 47L51 48L52 48L52 49L50 49L50 48L49 48L49 47L50 47L50 46L51 46L51 45L55 45L55 44L56 44L56 46L57 46L57 47L55 47L55 48L54 48L54 49L55 49L55 50L57 50L57 51L55 51L55 52L56 52L56 53L55 53L55 54L54 54L54 55L55 55L55 56L56 56L56 57L55 57L55 60L56 60L56 61L55 61L55 62L60 62L60 60L61 60L61 58L62 58L62 56L61 56L61 53L63 53L63 54L62 54L62 55L67 55L67 54L66 54L66 53L65 53L65 51L66 51L66 50L65 50L65 49L63 49L63 48L65 48L65 47L66 47L66 44L65 44L65 43L64 43L64 42L65 42L65 41L64 41L64 40L62 40L62 39L65 39L65 40L66 40L66 39L67 39L67 38L66 38L66 37L67 37L67 36L68 36L68 35L67 35L67 36L65 36L65 37L64 37L64 38L62 38L62 39L60 39L60 38L61 38L61 37L60 37L60 35L59 35L59 37L58 37L58 35L56 35L56 37L55 37L55 34L56 34L56 33L57 33L57 34L59 34L59 33L60 33L60 31L61 31L61 32L62 32L62 31L61 31L61 30L59 30L59 28L58 28L58 27L56 27L56 25L57 25L57 22L59 22L59 23L60 23L60 22L59 22L59 21L60 21L60 20L61 20L61 21L62 21L62 24L61 24L61 25L62 25L62 24L64 24L64 23L67 23L67 24L68 24L68 23L67 23L67 22L64 22L64 23L63 23L63 21L67 21L67 20L65 20L65 18L63 18L63 17L66 17L66 18L67 18L67 17L66 17L66 16L65 16L65 15L64 15L64 14L63 14L63 13L62 13L62 15L61 15L61 16L62 16L62 18L61 18L61 19L60 19L60 20L58 20L58 19L59 19L59 17L58 17L58 16L56 16L56 14L58 14L58 15L59 15L59 16L60 16L60 15L59 15L59 14L60 14L60 13L57 13L57 12L55 12L55 13L56 13L56 14L55 14L55 16L54 16L54 15L53 15L53 14L52 14L52 13L54 13L54 12L52 12L52 11L53 11L53 9L55 9L55 11L56 11L56 9L58 9L58 10L57 10L57 11L58 11L58 12L59 12L59 11L58 11L58 10L59 10L59 9L60 9L60 8L59 8L59 7L58 7L58 6L57 6L57 7L56 7L56 6L55 6L55 7L56 7L56 9L55 9L55 8L52 8L52 6L51 6L51 7L50 7L50 5L52 5L52 4L53 4L53 3L54 3L54 1L52 1L52 2L50 2L50 1ZM32 3L32 4L33 4L33 3ZM60 3L60 5L61 5L61 3ZM33 5L33 8L36 8L36 5ZM53 5L53 7L54 7L54 5ZM9 6L9 7L10 7L10 6ZM22 6L22 7L23 7L23 6ZM34 6L34 7L35 7L35 6ZM37 6L37 7L38 7L38 6ZM40 6L40 7L41 7L41 6ZM42 6L42 7L43 7L43 6ZM48 6L48 7L47 7L47 10L49 10L49 11L50 11L50 13L49 13L49 12L46 12L46 11L43 11L43 12L46 12L46 13L47 13L47 14L45 14L45 13L44 13L44 14L43 14L43 13L42 13L42 14L43 14L43 15L44 15L44 16L42 16L42 17L41 17L41 18L39 18L39 19L37 19L37 18L38 18L38 16L40 16L40 15L38 15L38 16L36 16L36 15L37 15L37 14L38 14L38 13L36 13L36 12L34 12L34 11L33 11L33 12L34 12L34 13L33 13L33 14L34 14L34 13L36 13L36 14L35 14L35 17L32 17L32 15L31 15L31 14L29 14L29 18L33 18L33 19L36 19L36 20L35 20L35 21L34 21L34 20L32 20L32 19L29 19L29 22L27 22L27 25L26 25L26 24L23 24L23 22L25 22L25 23L26 23L26 22L25 22L25 21L26 21L26 20L28 20L28 19L26 19L26 17L25 17L25 16L26 16L26 15L24 15L24 14L27 14L27 15L28 15L28 14L27 14L27 13L25 13L25 12L24 12L24 11L21 11L21 12L20 12L20 13L19 13L19 12L16 12L16 13L15 13L15 12L14 12L14 13L15 13L15 14L16 14L16 15L18 15L18 14L19 14L19 15L20 15L20 16L21 16L21 17L18 17L18 16L17 16L17 17L18 17L18 19L17 19L17 20L16 20L16 21L15 21L15 20L14 20L14 21L15 21L15 24L12 24L12 26L13 26L13 27L14 27L14 28L11 28L11 30L15 30L15 27L16 27L16 28L17 28L17 29L19 29L19 30L18 30L18 31L17 31L17 30L16 30L16 31L17 31L17 32L16 32L16 33L17 33L17 34L18 34L18 35L20 35L20 34L19 34L19 33L20 33L20 32L19 32L19 30L20 30L20 27L19 27L19 28L17 28L17 25L18 25L18 26L20 26L20 25L21 25L21 28L23 28L23 27L24 27L24 29L21 29L21 31L22 31L22 32L24 32L24 33L23 33L23 34L22 34L22 33L21 33L21 34L22 34L22 35L23 35L23 39L25 39L25 40L24 40L24 41L23 41L23 42L22 42L22 43L21 43L21 44L24 44L24 45L21 45L21 47L19 47L19 48L23 48L23 46L24 46L24 47L25 47L25 48L24 48L24 49L22 49L22 50L25 50L25 51L24 51L24 52L23 52L23 53L24 53L24 56L23 56L23 54L22 54L22 55L21 55L21 54L20 54L20 53L19 53L19 52L22 52L22 51L21 51L21 49L18 49L18 48L17 48L17 47L18 47L18 46L20 46L20 41L22 41L22 40L21 40L21 39L22 39L22 37L21 37L21 36L17 36L17 35L16 35L16 34L15 34L15 31L11 31L11 32L12 32L12 33L13 33L13 34L14 34L14 38L15 38L15 39L12 39L12 41L11 41L11 43L10 43L10 45L9 45L9 46L10 46L10 47L11 47L11 46L12 46L12 48L9 48L9 49L8 49L8 50L5 50L5 52L6 52L6 53L5 53L5 54L6 54L6 55L5 55L5 57L7 57L7 56L9 56L9 58L12 58L12 59L13 59L13 60L15 60L15 61L14 61L14 62L15 62L15 61L16 61L16 60L17 60L17 61L19 61L19 62L20 62L20 61L21 61L21 60L22 60L22 59L21 59L21 60L20 60L20 59L19 59L19 60L17 60L17 58L20 58L20 57L19 57L19 55L20 55L20 56L22 56L22 57L21 57L21 58L22 58L22 57L24 57L24 58L23 58L23 59L24 59L24 60L25 60L25 61L26 61L26 60L25 60L25 59L26 59L26 58L27 58L27 57L25 57L25 54L26 54L26 55L27 55L27 56L30 56L30 57L29 57L29 58L28 58L28 59L27 59L27 60L28 60L28 59L29 59L29 58L30 58L30 59L31 59L31 57L32 57L32 58L33 58L33 57L32 57L32 55L31 55L31 54L30 54L30 55L29 55L29 54L26 54L26 52L27 52L27 53L31 53L31 51L29 51L29 52L28 52L28 51L26 51L26 49L25 49L25 48L26 48L26 47L25 47L25 45L26 45L26 43L28 43L28 42L27 42L27 41L30 41L30 42L29 42L29 44L27 44L27 45L29 45L29 47L28 47L28 46L27 46L27 48L30 48L30 49L29 49L29 50L30 50L30 49L31 49L31 50L32 50L32 51L34 51L34 50L33 50L33 48L36 48L36 47L37 47L37 50L38 50L38 49L39 49L39 48L40 48L40 47L41 47L41 48L42 48L42 49L41 49L41 50L42 50L42 51L44 51L44 52L43 52L43 53L44 53L44 52L45 52L45 49L46 49L46 47L45 47L45 49L44 49L44 46L45 46L45 45L44 45L44 43L45 43L45 44L46 44L46 45L47 45L47 46L50 46L50 45L51 45L51 44L50 44L50 43L51 43L51 42L52 42L52 43L53 43L53 44L55 44L55 43L56 43L56 40L57 40L57 41L59 41L59 40L60 40L60 39L58 39L58 40L57 40L57 39L56 39L56 40L54 40L54 39L55 39L55 37L51 37L51 38L50 38L50 37L49 37L49 36L50 36L50 35L49 35L49 36L45 36L45 33L48 33L48 34L50 34L50 33L51 33L51 36L52 36L52 34L53 34L53 35L54 35L54 34L55 34L55 33L56 33L56 32L57 32L57 33L58 33L58 32L57 32L57 31L56 31L56 30L55 30L55 29L56 29L56 27L55 27L55 28L53 28L53 31L50 31L50 28L52 28L52 27L49 27L49 26L50 26L50 25L49 25L49 24L48 24L48 22L49 22L49 23L50 23L50 24L51 24L51 23L50 23L50 21L51 21L51 22L55 22L55 23L53 23L53 24L55 24L55 25L51 25L51 26L55 26L55 25L56 25L56 19L55 19L55 21L51 21L51 20L54 20L54 18L57 18L57 17L56 17L56 16L55 16L55 17L54 17L54 16L53 16L53 18L52 18L52 17L51 17L51 18L50 18L50 16L49 16L49 15L48 15L48 16L47 16L47 18L44 18L44 19L47 19L47 18L48 18L48 19L50 19L50 21L49 21L49 20L46 20L46 21L47 21L47 24L46 24L46 22L44 22L44 20L43 20L43 17L44 17L44 16L46 16L46 15L47 15L47 14L50 14L50 15L51 15L51 14L50 14L50 13L52 13L52 12L51 12L51 10L52 10L52 8L50 8L50 9L49 9L49 6ZM57 7L57 8L58 8L58 7ZM21 8L21 9L22 9L22 8ZM2 9L2 10L1 10L1 11L5 11L5 10L3 10L3 9ZM6 9L6 10L7 10L7 9ZM23 9L23 10L24 10L24 9ZM50 9L50 10L51 10L51 9ZM35 10L35 11L36 11L36 10ZM37 11L37 12L38 12L38 11ZM10 12L10 13L6 13L6 14L10 14L10 13L12 13L12 12ZM21 12L21 13L20 13L20 15L21 15L21 16L22 16L22 17L21 17L21 21L20 21L20 20L19 20L19 21L18 21L18 22L19 22L19 24L20 24L20 22L21 22L21 23L22 23L22 22L23 22L23 19L25 19L25 18L23 18L23 19L22 19L22 17L23 17L23 16L22 16L22 15L23 15L23 12ZM16 13L16 14L17 14L17 13ZM21 13L21 15L22 15L22 13ZM44 14L44 15L45 15L45 14ZM33 15L33 16L34 16L34 15ZM62 15L62 16L64 16L64 15ZM27 17L27 18L28 18L28 17ZM36 17L36 18L37 18L37 17ZM48 17L48 18L49 18L49 17ZM19 18L19 19L20 19L20 18ZM51 18L51 19L52 19L52 18ZM62 18L62 19L63 19L63 20L62 20L62 21L63 21L63 20L64 20L64 19L63 19L63 18ZM4 19L4 21L5 21L5 19ZM40 19L40 20L39 20L39 21L43 21L43 20L42 20L42 19ZM12 20L12 21L13 21L13 20ZM31 20L31 21L30 21L30 22L29 22L29 23L30 23L30 22L31 22L31 23L32 23L32 24L31 24L31 25L32 25L32 26L30 26L30 27L29 27L29 28L30 28L30 27L33 27L33 28L34 28L34 29L33 29L33 30L31 30L31 29L32 29L32 28L31 28L31 29L28 29L28 28L27 28L27 27L28 27L28 26L29 26L29 25L30 25L30 24L29 24L29 25L27 25L27 26L26 26L26 25L25 25L25 26L26 26L26 29L25 29L25 30L27 30L27 31L28 31L28 33L25 33L25 34L24 34L24 35L25 35L25 36L26 36L26 37L27 37L27 38L28 38L28 39L26 39L26 41L27 41L27 40L28 40L28 39L29 39L29 40L30 40L30 41L31 41L31 39L33 39L33 40L32 40L32 41L33 41L33 42L30 42L30 44L33 44L33 45L30 45L30 46L31 46L31 47L30 47L30 48L31 48L31 49L32 49L32 48L33 48L33 47L34 47L34 46L35 46L35 47L36 47L36 46L37 46L37 47L38 47L38 48L39 48L39 47L40 47L40 46L39 46L39 45L40 45L40 44L41 44L41 43L40 43L40 41L41 41L41 40L44 40L44 42L43 42L43 43L44 43L44 42L45 42L45 43L46 43L46 44L47 44L47 43L48 43L48 44L49 44L49 45L50 45L50 44L49 44L49 43L50 43L50 42L51 42L51 40L52 40L52 41L54 41L54 40L52 40L52 39L50 39L50 38L49 38L49 37L45 37L45 36L44 36L44 33L45 33L45 32L46 32L46 30L47 30L47 28L49 28L49 27L47 27L47 25L48 25L48 24L47 24L47 25L46 25L46 24L45 24L45 23L44 23L44 22L37 22L37 23L36 23L36 24L37 24L37 26L41 26L41 25L42 25L42 24L41 24L41 23L43 23L43 24L44 24L44 25L43 25L43 26L46 26L46 28L45 28L45 27L43 27L43 28L44 28L44 29L46 29L46 30L44 30L44 31L43 31L43 30L42 30L42 27L38 27L38 28L40 28L40 29L38 29L38 30L37 30L37 31L39 31L39 30L40 30L40 31L43 31L43 32L38 32L38 34L37 34L37 36L38 36L38 37L36 37L36 38L35 38L35 37L34 37L34 38L32 38L32 37L31 37L31 38L30 38L30 39L29 39L29 36L31 36L31 35L32 35L32 33L31 33L31 34L29 34L29 36L28 36L28 35L27 35L27 36L26 36L26 35L25 35L25 34L28 34L28 33L29 33L29 32L31 32L31 31L32 31L32 32L34 32L34 31L33 31L33 30L34 30L34 29L35 29L35 30L36 30L36 28L35 28L35 27L36 27L36 26L35 26L35 22L34 22L34 21L32 21L32 20ZM36 20L36 21L38 21L38 20ZM57 20L57 21L58 21L58 20ZM16 21L16 25L15 25L15 26L16 26L16 25L17 25L17 24L18 24L18 23L17 23L17 21ZM19 21L19 22L20 22L20 21ZM21 21L21 22L22 22L22 21ZM31 21L31 22L32 22L32 21ZM2 22L2 23L3 23L3 22ZM6 22L6 23L8 23L8 24L6 24L6 25L5 25L5 26L4 26L4 27L5 27L5 28L6 28L6 29L7 29L7 28L6 28L6 27L7 27L7 26L6 26L6 25L8 25L8 24L9 24L9 25L10 25L10 24L9 24L9 23L8 23L8 22ZM37 23L37 24L38 24L38 23ZM21 24L21 25L22 25L22 26L24 26L24 25L22 25L22 24ZM33 24L33 27L34 27L34 24ZM1 26L1 27L2 27L2 26ZM5 26L5 27L6 27L6 26ZM10 26L10 27L11 27L11 26ZM27 29L27 30L28 30L28 31L31 31L31 30L28 30L28 29ZM48 29L48 30L49 30L49 29ZM22 30L22 31L23 31L23 30ZM3 31L3 32L2 32L2 35L3 35L3 34L4 34L4 32L7 32L7 31ZM24 31L24 32L26 32L26 31ZM44 31L44 32L43 32L43 33L40 33L40 35L41 35L41 36L42 36L42 37L40 37L40 38L39 38L39 40L41 40L41 38L42 38L42 39L45 39L45 40L47 40L47 41L48 41L48 43L49 43L49 42L50 42L50 39L48 39L48 40L47 40L47 38L45 38L45 37L44 37L44 36L42 36L42 35L41 35L41 34L43 34L43 33L44 33L44 32L45 32L45 31ZM47 31L47 32L49 32L49 33L50 33L50 31ZM53 31L53 32L51 32L51 33L53 33L53 32L54 32L54 33L55 33L55 32L54 32L54 31ZM13 32L13 33L14 33L14 32ZM17 32L17 33L18 33L18 32ZM5 33L5 36L8 36L8 33ZM9 33L9 34L10 34L10 33ZM33 33L33 36L36 36L36 33ZM61 33L61 36L64 36L64 33ZM6 34L6 35L7 35L7 34ZM34 34L34 35L35 35L35 34ZM62 34L62 35L63 35L63 34ZM12 35L12 37L13 37L13 35ZM3 36L3 38L4 38L4 36ZM15 36L15 38L16 38L16 39L15 39L15 40L13 40L13 41L16 41L16 42L15 42L15 43L16 43L16 45L15 45L15 44L14 44L14 43L11 43L11 44L13 44L13 46L14 46L14 47L13 47L13 48L14 48L14 50L18 50L18 49L15 49L15 48L16 48L16 47L17 47L17 44L19 44L19 41L20 41L20 40L19 40L19 39L20 39L20 38L21 38L21 37L20 37L20 38L19 38L19 37L17 37L17 36ZM56 37L56 38L57 38L57 37ZM18 38L18 39L19 39L19 38ZM37 38L37 39L35 39L35 40L36 40L36 41L37 41L37 42L35 42L35 41L34 41L34 40L33 40L33 41L34 41L34 42L35 42L35 44L36 44L36 45L37 45L37 46L38 46L38 47L39 47L39 46L38 46L38 45L39 45L39 44L40 44L40 43L37 43L37 42L38 42L38 40L37 40L37 39L38 39L38 38ZM53 38L53 39L54 39L54 38ZM4 40L4 42L5 42L5 40ZM6 40L6 41L7 41L7 40ZM18 40L18 41L17 41L17 42L18 42L18 41L19 41L19 40ZM24 41L24 42L23 42L23 43L24 43L24 44L25 44L25 41ZM60 41L60 42L59 42L59 44L63 44L63 45L62 45L62 46L61 46L61 47L57 47L57 48L58 48L58 49L57 49L57 50L58 50L58 51L59 51L59 52L60 52L60 50L58 50L58 49L59 49L59 48L61 48L61 47L62 47L62 46L63 46L63 45L65 45L65 44L64 44L64 43L62 43L62 41ZM63 41L63 42L64 42L64 41ZM46 42L46 43L47 43L47 42ZM53 42L53 43L55 43L55 42ZM57 42L57 43L58 43L58 42ZM60 42L60 43L61 43L61 42ZM66 42L66 43L67 43L67 42ZM33 43L33 44L34 44L34 43ZM37 44L37 45L38 45L38 44ZM57 44L57 45L58 45L58 44ZM10 45L10 46L11 46L11 45ZM33 45L33 46L32 46L32 47L33 47L33 46L34 46L34 45ZM41 45L41 46L42 46L42 48L43 48L43 46L42 46L42 45ZM14 47L14 48L15 48L15 47ZM6 48L6 49L7 49L7 48ZM55 48L55 49L56 49L56 48ZM9 49L9 51L8 51L8 52L10 52L10 50L11 50L11 51L12 51L12 50L13 50L13 49L12 49L12 50L11 50L11 49ZM27 49L27 50L28 50L28 49ZM35 49L35 50L36 50L36 49ZM43 49L43 50L44 50L44 49ZM62 49L62 50L61 50L61 51L62 51L62 52L63 52L63 53L64 53L64 52L63 52L63 51L64 51L64 50L63 50L63 49ZM19 50L19 51L20 51L20 50ZM62 50L62 51L63 51L63 50ZM6 51L6 52L7 52L7 51ZM15 51L15 54L17 54L17 56L16 56L16 57L15 57L15 58L16 58L16 57L17 57L17 56L18 56L18 53L16 53L16 51ZM53 51L53 52L54 52L54 51ZM2 52L2 53L3 53L3 52ZM12 52L12 53L11 53L11 56L12 56L12 58L14 58L14 57L13 57L13 56L12 56L12 55L14 55L14 53L13 53L13 52ZM24 52L24 53L25 53L25 52ZM33 52L33 53L32 53L32 54L33 54L33 53L34 53L34 52ZM57 52L57 53L58 53L58 52ZM6 53L6 54L7 54L7 55L6 55L6 56L7 56L7 55L9 55L9 56L10 56L10 54L7 54L7 53ZM12 53L12 54L13 54L13 53ZM59 54L59 55L56 55L56 56L57 56L57 57L59 57L59 58L60 58L60 57L61 57L61 56L60 56L60 54ZM33 55L33 56L34 56L34 55ZM47 56L47 57L48 57L48 56ZM59 56L59 57L60 57L60 56ZM51 57L51 58L49 58L49 59L50 59L50 60L46 60L46 58L45 58L45 61L47 61L47 62L50 62L50 61L51 61L51 58L52 58L52 57ZM0 58L0 61L1 61L1 58ZM56 58L56 59L57 59L57 61L59 61L59 59L57 59L57 58ZM15 59L15 60L16 60L16 59ZM3 60L3 61L5 61L5 60ZM19 60L19 61L20 61L20 60ZM29 60L29 61L31 61L31 60ZM68 60L68 61L69 61L69 60ZM8 61L8 63L9 63L9 61ZM33 61L33 64L36 64L36 61ZM61 61L61 64L64 64L64 61ZM34 62L34 63L35 63L35 62ZM62 62L62 63L63 63L63 62ZM65 62L65 63L66 63L66 62ZM14 63L14 64L15 64L15 63ZM49 64L49 65L50 65L50 64ZM9 65L9 67L11 67L11 66L10 66L10 65ZM14 65L14 66L15 66L15 65ZM55 65L55 67L57 67L57 66L56 66L56 65ZM23 66L23 68L24 68L24 66ZM61 66L61 67L62 67L62 68L63 68L63 67L62 67L62 66ZM17 67L17 68L18 68L18 67ZM27 67L27 68L28 68L28 67ZM33 68L33 69L34 69L34 68ZM58 68L58 69L59 69L59 68ZM0 0L0 7L7 7L7 0ZM1 1L1 6L6 6L6 1ZM2 2L2 5L5 5L5 2ZM62 0L62 7L69 7L69 0ZM63 1L63 6L68 6L68 1ZM64 2L64 5L67 5L67 2ZM0 62L0 69L7 69L7 62ZM1 63L1 68L6 68L6 63ZM2 64L2 67L5 67L5 64Z" fill="#000000"/></g></g></svg>
