<?xml version="1.0" encoding="UTF-8"?>
<svg xmlns="http://www.w3.org/2000/svg" version="1.1" width="300" height="300" viewBox="0 0 300 300"><rect x="0" y="0" width="300" height="300" fill="#ffffff"/><g transform="scale(4.615)"><g transform="translate(0,0)"><path fill-rule="evenodd" d="M8 0L8 2L9 2L9 4L8 4L8 10L6 10L6 9L7 9L7 8L5 8L5 9L4 9L4 11L3 11L3 8L0 8L0 11L1 11L1 14L0 14L0 15L2 15L2 17L3 17L3 18L1 18L1 17L0 17L0 20L1 20L1 19L4 19L4 20L3 20L3 21L4 21L4 20L5 20L5 21L7 21L7 22L6 22L6 23L5 23L5 22L4 22L4 23L3 23L3 22L1 22L1 21L0 21L0 24L1 24L1 26L0 26L0 27L4 27L4 29L7 29L7 30L2 30L2 31L1 31L1 30L0 30L0 31L1 31L1 33L0 33L0 34L1 34L1 35L2 35L2 36L1 36L1 37L0 37L0 38L1 38L1 41L4 41L4 40L5 40L5 43L4 43L4 42L0 42L0 43L1 43L1 44L0 44L0 48L1 48L1 49L2 49L2 47L1 47L1 44L2 44L2 46L3 46L3 47L4 47L4 48L3 48L3 50L2 50L2 52L3 52L3 54L2 54L2 55L3 55L3 56L1 56L1 55L0 55L0 56L1 56L1 57L3 57L3 56L4 56L4 57L5 57L5 56L4 56L4 53L5 53L5 50L4 50L4 48L5 48L5 49L7 49L7 48L8 48L8 49L9 49L9 48L12 48L12 47L14 47L14 48L13 48L13 49L11 49L11 52L10 52L10 53L11 53L11 54L12 54L12 55L14 55L14 56L12 56L12 57L11 57L11 55L9 55L9 54L8 54L8 53L9 53L9 52L8 52L8 51L9 51L9 50L8 50L8 51L7 51L7 50L6 50L6 51L7 51L7 52L6 52L6 53L7 53L7 54L5 54L5 55L7 55L7 56L6 56L6 57L8 57L8 58L9 58L9 59L8 59L8 60L9 60L9 62L8 62L8 65L9 65L9 64L10 64L10 65L12 65L12 64L13 64L13 63L15 63L15 61L13 61L13 60L14 60L14 58L16 58L16 59L15 59L15 60L16 60L16 61L17 61L17 60L16 60L16 59L19 59L19 58L20 58L20 57L21 57L21 55L20 55L20 57L19 57L19 55L14 55L14 53L13 53L13 54L12 54L12 51L13 51L13 50L14 50L14 49L15 49L15 50L16 50L16 51L17 51L17 50L16 50L16 49L17 49L17 48L18 48L18 49L19 49L19 50L20 50L20 49L21 49L21 50L22 50L22 49L23 49L23 50L24 50L24 49L25 49L25 47L26 47L26 50L27 50L27 51L26 51L26 52L27 52L27 51L28 51L28 53L27 53L27 54L24 54L24 52L25 52L25 51L24 51L24 52L23 52L23 51L22 51L22 52L23 52L23 54L22 54L22 57L23 57L23 59L24 59L24 61L25 61L25 59L24 59L24 56L23 56L23 54L24 54L24 55L25 55L25 56L26 56L26 57L25 57L25 58L26 58L26 63L27 63L27 64L26 64L26 65L27 65L27 64L28 64L28 63L29 63L29 64L30 64L30 65L31 65L31 64L32 64L32 63L33 63L33 65L34 65L34 63L35 63L35 64L36 64L36 65L37 65L37 63L36 63L36 62L35 62L35 60L36 60L36 61L37 61L37 62L38 62L38 65L39 65L39 63L42 63L42 61L41 61L41 60L40 60L40 61L39 61L39 58L38 58L38 56L36 56L36 57L37 57L37 59L38 59L38 61L37 61L37 60L36 60L36 58L35 58L35 56L32 56L32 55L33 55L33 54L34 54L34 55L35 55L35 54L36 54L36 55L40 55L40 54L42 54L42 55L41 55L41 56L40 56L40 57L41 57L41 59L42 59L42 57L43 57L43 59L44 59L44 61L45 61L45 62L46 62L46 61L47 61L47 63L46 63L46 64L45 64L45 63L44 63L44 62L43 62L43 63L44 63L44 65L46 65L46 64L48 64L48 65L49 65L49 64L50 64L50 65L51 65L51 63L54 63L54 64L52 64L52 65L54 65L54 64L56 64L56 65L58 65L58 63L59 63L59 61L60 61L60 63L61 63L61 64L60 64L60 65L62 65L62 63L65 63L65 62L63 62L63 60L62 60L62 59L63 59L63 58L64 58L64 61L65 61L65 58L64 58L64 57L65 57L65 48L64 48L64 47L65 47L65 46L64 46L64 45L65 45L65 42L64 42L64 44L63 44L63 45L62 45L62 46L60 46L60 45L61 45L61 44L62 44L62 42L63 42L63 41L64 41L64 40L63 40L63 41L62 41L62 39L65 39L65 37L63 37L63 38L62 38L62 37L61 37L61 36L62 36L62 34L64 34L64 35L63 35L63 36L64 36L64 35L65 35L65 34L64 34L64 33L65 33L65 28L64 28L64 27L65 27L65 26L64 26L64 25L65 25L65 21L64 21L64 19L65 19L65 16L64 16L64 15L65 15L65 10L64 10L64 9L65 9L65 8L63 8L63 10L62 10L62 9L61 9L61 8L54 8L54 7L55 7L55 5L54 5L54 4L56 4L56 5L57 5L57 4L56 4L56 3L57 3L57 1L56 1L56 0L55 0L55 1L56 1L56 3L55 3L55 2L54 2L54 1L52 1L52 0L50 0L50 1L52 1L52 3L51 3L51 2L49 2L49 1L48 1L48 0L46 0L46 1L45 1L45 0L42 0L42 1L43 1L43 2L44 2L44 3L43 3L43 4L42 4L42 7L41 7L41 4L40 4L40 3L42 3L42 2L40 2L40 1L41 1L41 0L38 0L38 1L37 1L37 2L38 2L38 1L39 1L39 3L38 3L38 5L35 5L35 4L36 4L36 1L35 1L35 0L34 0L34 1L35 1L35 3L34 3L34 2L31 2L31 4L29 4L29 3L30 3L30 1L31 1L31 0L30 0L30 1L29 1L29 0L28 0L28 3L27 3L27 2L26 2L26 3L27 3L27 4L26 4L26 5L25 5L25 1L26 1L26 0L24 0L24 2L22 2L22 3L23 3L23 4L22 4L22 5L21 5L21 1L22 1L22 0L20 0L20 2L18 2L18 3L19 3L19 4L18 4L18 5L17 5L17 4L16 4L16 3L15 3L15 4L13 4L13 5L12 5L12 4L11 4L11 3L12 3L12 2L13 2L13 3L14 3L14 2L16 2L16 1L15 1L15 0L13 0L13 1L11 1L11 0L10 0L10 2L9 2L9 0ZM17 0L17 1L18 1L18 0ZM32 0L32 1L33 1L33 0ZM44 1L44 2L45 2L45 3L44 3L44 4L45 4L45 5L44 5L44 6L43 6L43 9L42 9L42 8L41 8L41 9L40 9L40 6L39 6L39 5L38 5L38 6L37 6L37 7L38 7L38 6L39 6L39 9L38 9L38 8L37 8L37 9L38 9L38 10L37 10L37 13L36 13L36 6L35 6L35 9L34 9L34 11L33 11L33 9L32 9L32 11L33 11L33 12L34 12L34 14L33 14L33 13L32 13L32 14L31 14L31 15L30 15L30 13L29 13L29 14L28 14L28 15L30 15L30 17L28 17L28 18L29 18L29 19L28 19L28 22L27 22L27 20L26 20L26 19L27 19L27 17L26 17L26 16L25 16L25 17L24 17L24 16L23 16L23 17L22 17L22 16L21 16L21 17L20 17L20 19L19 19L19 17L18 17L18 16L19 16L19 13L18 13L18 11L17 11L17 10L19 10L19 12L20 12L20 10L21 10L21 9L22 9L22 12L21 12L21 14L20 14L20 15L21 15L21 14L22 14L22 15L23 15L23 14L22 14L22 12L25 12L25 14L24 14L24 15L25 15L25 14L26 14L26 15L27 15L27 13L26 13L26 12L27 12L27 9L26 9L26 6L25 6L25 5L24 5L24 4L23 4L23 5L24 5L24 6L23 6L23 8L24 8L24 6L25 6L25 9L24 9L24 11L23 11L23 9L22 9L22 6L21 6L21 5L20 5L20 4L19 4L19 5L18 5L18 6L17 6L17 7L18 7L18 8L17 8L17 9L16 9L16 8L15 8L15 11L14 11L14 10L12 10L12 12L11 12L11 11L9 11L9 12L10 12L10 13L9 13L9 15L8 15L8 12L7 12L7 11L6 11L6 10L5 10L5 11L4 11L4 12L3 12L3 13L2 13L2 15L3 15L3 17L4 17L4 16L7 16L7 15L8 15L8 17L5 17L5 18L4 18L4 19L5 19L5 20L7 20L7 21L8 21L8 22L10 22L10 23L6 23L6 24L5 24L5 25L3 25L3 23L1 23L1 24L2 24L2 26L5 26L5 25L6 25L6 26L7 26L7 25L6 25L6 24L8 24L8 26L9 26L9 24L10 24L10 27L11 27L11 28L12 28L12 27L14 27L14 28L13 28L13 30L12 30L12 29L9 29L9 30L12 30L12 31L11 31L11 32L10 32L10 31L9 31L9 32L10 32L10 33L11 33L11 32L12 32L12 31L13 31L13 34L12 34L12 35L13 35L13 34L15 34L15 32L16 32L16 35L14 35L14 36L13 36L13 37L15 37L15 36L16 36L16 35L17 35L17 34L19 34L19 33L20 33L20 35L21 35L21 33L22 33L22 34L23 34L23 35L22 35L22 36L23 36L23 35L24 35L24 34L26 34L26 31L27 31L27 30L29 30L29 31L28 31L28 32L27 32L27 33L28 33L28 35L29 35L29 36L30 36L30 33L28 33L28 32L30 32L30 30L29 30L29 29L27 29L27 30L26 30L26 31L24 31L24 30L25 30L25 29L24 29L24 27L25 27L25 25L26 25L26 27L27 27L27 28L28 28L28 27L29 27L29 25L30 25L30 24L31 24L31 25L32 25L32 23L33 23L33 22L32 22L32 21L31 21L31 17L32 17L32 18L33 18L33 17L34 17L34 18L35 18L35 19L34 19L34 23L35 23L35 21L36 21L36 24L33 24L33 25L34 25L34 27L33 27L33 26L30 26L30 28L31 28L31 30L33 30L33 29L32 29L32 28L34 28L34 30L35 30L35 33L36 33L36 35L35 35L35 36L34 36L34 38L33 38L33 35L32 35L32 36L31 36L31 37L28 37L28 36L27 36L27 35L26 35L26 36L27 36L27 37L26 37L26 38L25 38L25 36L24 36L24 38L23 38L23 37L22 37L22 38L21 38L21 36L19 36L19 35L18 35L18 36L19 36L19 37L18 37L18 38L17 38L17 37L16 37L16 39L15 39L15 41L12 41L12 42L11 42L11 41L10 41L10 40L12 40L12 39L10 39L10 38L9 38L9 37L10 37L10 36L11 36L11 34L10 34L10 36L9 36L9 35L6 35L6 36L5 36L5 35L4 35L4 31L2 31L2 35L3 35L3 36L2 36L2 37L1 37L1 38L2 38L2 40L3 40L3 38L2 38L2 37L3 37L3 36L4 36L4 39L5 39L5 40L7 40L7 41L6 41L6 42L8 42L8 43L9 43L9 42L10 42L10 43L11 43L11 45L12 45L12 46L11 46L11 47L12 47L12 46L15 46L15 45L13 45L13 44L15 44L15 43L13 43L13 42L15 42L15 41L16 41L16 42L18 42L18 40L20 40L20 43L19 43L19 44L20 44L20 43L21 43L21 41L22 41L22 43L23 43L23 44L25 44L25 45L26 45L26 47L27 47L27 48L31 48L31 49L28 49L28 50L29 50L29 52L31 52L31 53L28 53L28 54L27 54L27 55L28 55L28 56L27 56L27 57L28 57L28 58L29 58L29 57L30 57L30 54L31 54L31 55L32 55L32 54L33 54L33 53L34 53L34 50L35 50L35 53L36 53L36 52L38 52L38 54L39 54L39 53L40 53L40 52L43 52L43 53L42 53L42 54L44 54L44 56L43 56L43 55L42 55L42 56L43 56L43 57L44 57L44 56L45 56L45 54L44 54L44 51L46 51L46 52L45 52L45 53L46 53L46 54L48 54L48 55L49 55L49 53L48 53L48 52L50 52L50 56L51 56L51 57L48 57L48 56L46 56L46 57L45 57L45 59L47 59L47 58L49 58L49 59L51 59L51 57L52 57L52 58L53 58L53 59L54 59L54 60L56 60L56 57L55 57L55 56L56 56L56 55L58 55L58 56L61 56L61 55L62 55L62 57L61 57L61 58L62 58L62 57L64 57L64 49L61 49L61 48L60 48L60 51L58 51L58 49L59 49L59 47L60 47L60 46L59 46L59 47L58 47L58 45L60 45L60 42L61 42L61 41L60 41L60 42L59 42L59 43L58 43L58 41L59 41L59 40L61 40L61 37L60 37L60 39L58 39L58 38L59 38L59 37L58 37L58 35L57 35L57 40L56 40L56 41L55 41L55 39L54 39L54 38L56 38L56 37L54 37L54 38L51 38L51 35L50 35L50 34L51 34L51 33L52 33L52 35L53 35L53 36L54 36L54 34L55 34L55 36L56 36L56 32L55 32L55 29L52 29L52 28L53 28L53 27L54 27L54 28L56 28L56 26L57 26L57 29L56 29L56 30L57 30L57 29L58 29L58 30L60 30L60 28L61 28L61 27L60 27L60 26L61 26L61 25L63 25L63 24L64 24L64 21L60 21L60 23L62 23L62 24L61 24L61 25L60 25L60 24L59 24L59 25L58 25L58 24L57 24L57 23L58 23L58 22L59 22L59 21L58 21L58 20L59 20L59 19L58 19L58 18L59 18L59 17L60 17L60 19L62 19L62 20L63 20L63 19L62 19L62 16L63 16L63 17L64 17L64 16L63 16L63 15L64 15L64 14L63 14L63 13L64 13L64 12L63 12L63 11L64 11L64 10L63 10L63 11L62 11L62 10L61 10L61 11L62 11L62 13L61 13L61 14L62 14L62 16L61 16L61 17L60 17L60 16L59 16L59 17L58 17L58 15L57 15L57 12L56 12L56 11L57 11L57 9L56 9L56 11L55 11L55 12L54 12L54 11L53 11L53 12L54 12L54 15L53 15L53 17L52 17L52 16L51 16L51 17L50 17L50 15L52 15L52 13L50 13L50 12L51 12L51 9L52 9L52 8L53 8L53 9L54 9L54 10L55 10L55 9L54 9L54 8L53 8L53 7L54 7L54 6L53 6L53 7L52 7L52 6L51 6L51 7L50 7L50 3L49 3L49 2L48 2L48 1L46 1L46 2L45 2L45 1ZM10 2L10 3L11 3L11 2ZM46 2L46 3L47 3L47 4L46 4L46 5L45 5L45 6L44 6L44 9L45 9L45 10L44 10L44 11L43 11L43 12L44 12L44 13L43 13L43 14L42 14L42 11L41 11L41 10L42 10L42 9L41 9L41 10L40 10L40 9L39 9L39 10L38 10L38 11L39 11L39 10L40 10L40 13L39 13L39 14L38 14L38 13L37 13L37 16L36 16L36 17L37 17L37 18L36 18L36 19L38 19L38 20L36 20L36 21L37 21L37 23L38 23L38 20L39 20L39 19L38 19L38 15L40 15L40 13L41 13L41 16L40 16L40 18L41 18L41 16L42 16L42 17L43 17L43 18L45 18L45 16L46 16L46 17L47 17L47 19L48 19L48 21L47 21L47 22L46 22L46 20L44 20L44 19L43 19L43 20L44 20L44 21L45 21L45 23L47 23L47 22L48 22L48 23L49 23L49 20L50 20L50 19L48 19L48 17L49 17L49 18L50 18L50 17L49 17L49 15L50 15L50 13L49 13L49 12L50 12L50 11L49 11L49 12L48 12L48 13L47 13L47 14L48 14L48 15L47 15L47 16L46 16L46 12L47 12L47 10L46 10L46 9L48 9L48 10L50 10L50 9L51 9L51 8L52 8L52 7L51 7L51 8L50 8L50 7L49 7L49 6L48 6L48 5L49 5L49 4L48 4L48 2ZM32 3L32 4L34 4L34 3ZM52 3L52 4L51 4L51 5L53 5L53 3ZM9 4L9 5L10 5L10 6L9 6L9 7L10 7L10 9L9 9L9 10L11 10L11 9L12 9L12 6L11 6L11 5L10 5L10 4ZM15 4L15 5L14 5L14 6L13 6L13 9L14 9L14 6L15 6L15 7L16 7L16 4ZM27 4L27 5L28 5L28 4ZM47 4L47 5L46 5L46 6L45 6L45 8L47 8L47 7L48 7L48 6L47 6L47 5L48 5L48 4ZM31 5L31 8L34 8L34 5ZM10 6L10 7L11 7L11 6ZM18 6L18 7L19 7L19 8L18 8L18 9L19 9L19 10L20 10L20 9L19 9L19 8L20 8L20 7L21 7L21 6L20 6L20 7L19 7L19 6ZM27 6L27 7L28 7L28 6ZM29 6L29 8L30 8L30 6ZM32 6L32 7L33 7L33 6ZM46 6L46 7L47 7L47 6ZM56 6L56 7L57 7L57 6ZM49 8L49 9L50 9L50 8ZM1 9L1 11L2 11L2 9ZM28 9L28 12L29 12L29 9ZM30 9L30 10L31 10L31 9ZM58 9L58 10L59 10L59 11L58 11L58 14L59 14L59 15L60 15L60 12L59 12L59 11L60 11L60 10L59 10L59 9ZM25 10L25 12L26 12L26 10ZM45 10L45 11L44 11L44 12L45 12L45 11L46 11L46 10ZM5 11L5 12L4 12L4 14L3 14L3 15L4 15L4 14L5 14L5 15L7 15L7 14L6 14L6 13L7 13L7 12L6 12L6 11ZM13 11L13 13L12 13L12 14L13 14L13 15L14 15L14 16L12 16L12 15L9 15L9 17L8 17L8 18L11 18L11 19L9 19L9 21L10 21L10 22L11 22L11 23L10 23L10 24L11 24L11 23L12 23L12 26L11 26L11 27L12 27L12 26L15 26L15 27L16 27L16 29L17 29L17 30L16 30L16 31L17 31L17 30L19 30L19 27L18 27L18 28L17 28L17 27L16 27L16 25L17 25L17 24L18 24L18 25L19 25L19 23L21 23L21 22L20 22L20 21L19 21L19 23L16 23L16 22L17 22L17 19L16 19L16 18L17 18L17 17L14 17L14 16L15 16L15 14L16 14L16 16L18 16L18 15L17 15L17 14L16 14L16 13L17 13L17 12L16 12L16 13L14 13L14 11ZM30 11L30 12L31 12L31 11ZM34 11L34 12L35 12L35 11ZM35 13L35 14L34 14L34 17L35 17L35 15L36 15L36 13ZM44 13L44 14L43 14L43 15L42 15L42 16L43 16L43 17L44 17L44 16L45 16L45 13ZM48 13L48 14L49 14L49 13ZM55 13L55 14L56 14L56 13ZM31 15L31 16L32 16L32 17L33 17L33 16L32 16L32 15ZM54 15L54 17L55 17L55 19L54 19L54 20L52 20L52 21L51 21L51 23L50 23L50 24L48 24L48 25L47 25L47 28L46 28L46 27L45 27L45 28L44 28L44 30L42 30L42 28L43 28L43 27L44 27L44 25L46 25L46 24L44 24L44 23L42 23L42 24L40 24L40 21L41 21L41 20L40 20L40 21L39 21L39 24L38 24L38 25L37 25L37 24L36 24L36 25L35 25L35 26L36 26L36 27L37 27L37 26L38 26L38 25L39 25L39 24L40 24L40 25L41 25L41 26L39 26L39 27L38 27L38 28L36 28L36 29L37 29L37 30L38 30L38 28L39 28L39 27L42 27L42 28L40 28L40 29L39 29L39 31L38 31L38 33L37 33L37 31L36 31L36 33L37 33L37 35L36 35L36 37L35 37L35 38L34 38L34 39L33 39L33 38L32 38L32 39L30 39L30 40L29 40L29 38L28 38L28 37L27 37L27 38L26 38L26 39L25 39L25 40L26 40L26 42L25 42L25 44L26 44L26 45L27 45L27 46L28 46L28 45L30 45L30 44L29 44L29 43L30 43L30 42L32 42L32 41L33 41L33 40L36 40L36 41L34 41L34 43L35 43L35 42L36 42L36 41L37 41L37 42L38 42L38 43L36 43L36 49L35 49L35 48L33 48L33 47L32 47L32 44L33 44L33 46L34 46L34 47L35 47L35 46L34 46L34 44L33 44L33 43L32 43L32 44L31 44L31 47L32 47L32 49L31 49L31 50L30 50L30 51L31 51L31 52L32 52L32 53L31 53L31 54L32 54L32 53L33 53L33 50L34 50L34 49L35 49L35 50L36 50L36 51L38 51L38 49L39 49L39 51L40 51L40 49L41 49L41 47L42 47L42 49L43 49L43 47L44 47L44 49L45 49L45 50L46 50L46 49L47 49L47 50L48 50L48 51L47 51L47 52L48 52L48 51L50 51L50 48L52 48L52 49L51 49L51 50L52 50L52 53L55 53L55 55L56 55L56 53L58 53L58 51L57 51L57 50L56 50L56 52L54 52L54 51L53 51L53 50L54 50L54 49L57 49L57 48L58 48L58 47L55 47L55 46L56 46L56 45L58 45L58 43L56 43L56 44L54 44L54 41L53 41L53 40L54 40L54 39L51 39L51 38L50 38L50 37L49 37L49 34L50 34L50 33L51 33L51 31L50 31L50 32L48 32L48 30L47 30L47 32L46 32L46 31L45 31L45 32L44 32L44 33L43 33L43 34L42 34L42 33L41 33L41 32L40 32L40 33L39 33L39 31L44 31L44 30L46 30L46 29L47 29L47 28L48 28L48 29L49 29L49 28L48 28L48 26L49 26L49 27L50 27L50 25L51 25L51 28L52 28L52 27L53 27L53 26L54 26L54 25L55 25L55 26L56 26L56 25L55 25L55 24L56 24L56 23L57 23L57 22L58 22L58 21L57 21L57 22L55 22L55 23L54 23L54 20L55 20L55 19L56 19L56 17L57 17L57 18L58 18L58 17L57 17L57 15L56 15L56 16L55 16L55 15ZM10 16L10 17L11 17L11 16ZM47 16L47 17L48 17L48 16ZM12 17L12 19L13 19L13 20L11 20L11 21L12 21L12 22L13 22L13 21L14 21L14 20L16 20L16 19L15 19L15 18L13 18L13 17ZM23 17L23 18L24 18L24 17ZM25 17L25 18L26 18L26 17ZM51 17L51 18L52 18L52 17ZM6 18L6 19L7 19L7 20L8 20L8 19L7 19L7 18ZM18 19L18 20L19 20L19 19ZM20 19L20 20L21 20L21 19ZM22 19L22 20L24 20L24 21L23 21L23 22L22 22L22 23L23 23L23 24L22 24L22 26L21 26L21 27L20 27L20 29L21 29L21 27L22 27L22 30L23 30L23 27L24 27L24 25L25 25L25 24L26 24L26 25L27 25L27 27L28 27L28 25L29 25L29 24L30 24L30 22L31 22L31 23L32 23L32 22L31 22L31 21L29 21L29 22L28 22L28 23L25 23L25 22L24 22L24 21L25 21L25 20L24 20L24 19ZM57 19L57 20L58 20L58 19ZM14 22L14 23L13 23L13 24L14 24L14 25L15 25L15 22ZM28 23L28 24L27 24L27 25L28 25L28 24L29 24L29 23ZM52 23L52 24L51 24L51 25L52 25L52 26L53 26L53 25L54 25L54 23ZM43 24L43 25L42 25L42 27L43 27L43 25L44 25L44 24ZM52 24L52 25L53 25L53 24ZM57 25L57 26L58 26L58 25ZM59 25L59 26L60 26L60 25ZM62 26L62 28L63 28L63 30L62 30L62 29L61 29L61 30L62 30L62 33L61 33L61 34L62 34L62 33L64 33L64 28L63 28L63 27L64 27L64 26ZM5 27L5 28L7 28L7 29L8 29L8 28L9 28L9 27L8 27L8 28L7 28L7 27ZM58 27L58 29L59 29L59 28L60 28L60 27ZM20 30L20 31L21 31L21 30ZM5 31L5 34L8 34L8 31ZM14 31L14 32L15 32L15 31ZM18 31L18 33L19 33L19 31ZM22 31L22 33L23 33L23 34L24 34L24 33L25 33L25 32L23 32L23 31ZM31 31L31 34L34 34L34 31ZM57 31L57 34L60 34L60 31ZM6 32L6 33L7 33L7 32ZM32 32L32 33L33 33L33 32ZM47 32L47 33L46 33L46 34L49 34L49 33L48 33L48 32ZM52 32L52 33L53 33L53 34L54 34L54 33L53 33L53 32ZM58 32L58 33L59 33L59 32ZM38 33L38 34L39 34L39 37L38 37L38 39L37 39L37 37L36 37L36 38L35 38L35 39L37 39L37 41L38 41L38 42L40 42L40 40L41 40L41 39L42 39L42 38L43 38L43 40L42 40L42 43L43 43L43 42L44 42L44 40L45 40L45 41L46 41L46 42L48 42L48 43L49 43L49 45L48 45L48 44L47 44L47 43L44 43L44 44L43 44L43 45L42 45L42 44L41 44L41 45L40 45L40 44L39 44L39 43L38 43L38 44L39 44L39 45L38 45L38 46L37 46L37 49L38 49L38 46L39 46L39 45L40 45L40 47L41 47L41 45L42 45L42 47L43 47L43 46L44 46L44 47L45 47L45 45L46 45L46 46L49 46L49 45L50 45L50 46L52 46L52 47L53 47L53 49L52 49L52 50L53 50L53 49L54 49L54 46L55 46L55 45L54 45L54 46L53 46L53 45L52 45L52 43L53 43L53 41L52 41L52 40L50 40L50 38L49 38L49 39L46 39L46 38L48 38L48 36L47 36L47 35L45 35L45 33L44 33L44 35L43 35L43 37L42 37L42 34L41 34L41 37L40 37L40 34L39 34L39 33ZM37 35L37 36L38 36L38 35ZM59 35L59 36L60 36L60 35ZM6 36L6 37L5 37L5 38L6 38L6 39L7 39L7 38L6 38L6 37L7 37L7 36ZM8 36L8 37L9 37L9 36ZM44 36L44 37L45 37L45 38L46 38L46 37L45 37L45 36ZM11 37L11 38L12 38L12 37ZM39 37L39 38L40 38L40 39L38 39L38 41L39 41L39 40L40 40L40 39L41 39L41 38L42 38L42 37L41 37L41 38L40 38L40 37ZM8 38L8 41L9 41L9 40L10 40L10 39L9 39L9 38ZM13 38L13 39L14 39L14 38ZM18 38L18 39L17 39L17 40L16 40L16 41L17 41L17 40L18 40L18 39L19 39L19 38ZM20 38L20 39L21 39L21 40L22 40L22 41L23 41L23 43L24 43L24 40L22 40L22 39L21 39L21 38ZM27 38L27 40L28 40L28 42L27 42L27 43L26 43L26 44L28 44L28 42L30 42L30 41L31 41L31 40L30 40L30 41L29 41L29 40L28 40L28 38ZM32 39L32 40L33 40L33 39ZM45 39L45 40L46 40L46 41L47 41L47 40L46 40L46 39ZM48 40L48 41L49 41L49 42L50 42L50 43L52 43L52 42L50 42L50 40ZM57 40L57 41L58 41L58 40ZM5 43L5 44L3 44L3 46L5 46L5 47L6 47L6 48L7 48L7 47L6 47L6 46L9 46L9 47L8 47L8 48L9 48L9 47L10 47L10 45L8 45L8 44L7 44L7 43ZM16 43L16 44L17 44L17 45L18 45L18 44L17 44L17 43ZM6 44L6 45L5 45L5 46L6 46L6 45L7 45L7 44ZM21 44L21 46L20 46L20 47L22 47L22 44ZM44 44L44 45L45 45L45 44ZM46 44L46 45L47 45L47 44ZM50 44L50 45L51 45L51 44ZM16 46L16 47L18 47L18 46ZM24 46L24 47L25 47L25 46ZM62 46L62 48L63 48L63 47L64 47L64 46ZM49 47L49 48L50 48L50 47ZM15 48L15 49L16 49L16 48ZM21 48L21 49L22 49L22 48ZM39 48L39 49L40 49L40 48ZM45 48L45 49L46 49L46 48ZM32 49L32 50L31 50L31 51L32 51L32 50L33 50L33 49ZM48 49L48 50L49 50L49 49ZM61 50L61 51L60 51L60 52L61 52L61 53L62 53L62 51L63 51L63 50ZM0 51L0 53L1 53L1 51ZM3 51L3 52L4 52L4 51ZM14 51L14 52L15 52L15 54L16 54L16 52L15 52L15 51ZM18 51L18 52L19 52L19 54L20 54L20 52L21 52L21 51L20 51L20 52L19 52L19 51ZM7 52L7 53L8 53L8 52ZM7 54L7 55L8 55L8 56L9 56L9 55L8 55L8 54ZM28 54L28 55L29 55L29 54ZM51 54L51 55L52 55L52 57L53 57L53 55L52 55L52 54ZM58 54L58 55L59 55L59 54ZM60 54L60 55L61 55L61 54ZM62 54L62 55L63 55L63 54ZM14 56L14 57L16 57L16 58L17 58L17 57L16 57L16 56ZM28 56L28 57L29 57L29 56ZM9 57L9 58L10 58L10 57ZM31 57L31 60L34 60L34 57ZM57 57L57 60L60 60L60 57ZM11 58L11 59L9 59L9 60L10 60L10 62L9 62L9 63L11 63L11 62L12 62L12 63L13 63L13 62L12 62L12 58ZM32 58L32 59L33 59L33 58ZM58 58L58 59L59 59L59 58ZM27 59L27 63L28 63L28 62L30 62L30 63L32 63L32 61L30 61L30 59ZM18 60L18 63L17 63L17 62L16 62L16 63L17 63L17 65L20 65L20 64L18 64L18 63L19 63L19 60ZM20 60L20 61L21 61L21 60ZM22 60L22 62L20 62L20 63L22 63L22 65L24 65L24 64L23 64L23 63L22 63L22 62L23 62L23 60ZM45 60L45 61L46 61L46 60ZM49 60L49 61L50 61L50 62L48 62L48 64L49 64L49 63L50 63L50 62L53 62L53 61L52 61L52 60ZM61 60L61 61L62 61L62 60ZM33 61L33 63L34 63L34 61ZM38 61L38 62L39 62L39 61ZM54 61L54 62L55 62L55 63L56 63L56 64L57 64L57 63L56 63L56 62L55 62L55 61ZM57 61L57 62L58 62L58 61ZM24 62L24 63L25 63L25 62ZM61 62L61 63L62 63L62 62ZM40 64L40 65L42 65L42 64ZM64 64L64 65L65 65L65 64ZM0 0L0 7L7 7L7 0ZM1 1L1 6L6 6L6 1ZM2 2L2 5L5 5L5 2ZM58 0L58 7L65 7L65 0ZM59 1L59 6L64 6L64 1ZM60 2L60 5L63 5L63 2ZM0 58L0 65L7 65L7 58ZM1 59L1 64L6 64L6 59ZM2 60L2 63L5 63L5 60Z" fill="#000000"/></g></g></svg>
