<?xml version="1.0" encoding="UTF-8"?>
<svg xmlns="http://www.w3.org/2000/svg" version="1.1" width="300" height="300" viewBox="0 0 300 300"><rect x="0" y="0" width="300" height="300" fill="#ffffff"/><g transform="scale(4.348)"><g transform="translate(0,0)"><path fill-rule="evenodd" d="M8 0L8 4L11 4L11 6L10 6L10 5L8 5L8 7L9 7L9 8L10 8L10 9L9 9L9 10L10 10L10 11L11 11L11 10L13 10L13 11L12 11L12 12L10 12L10 15L13 15L13 14L14 14L14 15L15 15L15 14L16 14L16 13L18 13L18 15L17 15L17 16L15 16L15 17L16 17L16 18L17 18L17 20L16 20L16 19L14 19L14 16L13 16L13 18L12 18L12 17L11 17L11 16L10 16L10 17L9 17L9 15L8 15L8 14L9 14L9 13L8 13L8 14L6 14L6 13L7 13L7 12L6 12L6 13L4 13L4 12L5 12L5 10L6 10L6 11L8 11L8 10L6 10L6 9L7 9L7 8L4 8L4 11L3 11L3 9L2 9L2 8L0 8L0 9L2 9L2 13L3 13L3 14L5 14L5 15L3 15L3 17L4 17L4 18L2 18L2 19L0 19L0 20L3 20L3 22L4 22L4 23L3 23L3 25L1 25L1 24L2 24L2 23L1 23L1 24L0 24L0 26L2 26L2 27L4 27L4 24L5 24L5 26L6 26L6 27L5 27L5 28L3 28L3 30L4 30L4 31L3 31L3 33L4 33L4 34L3 34L3 35L4 35L4 36L2 36L2 37L1 37L1 35L2 35L2 34L1 34L1 33L2 33L2 31L1 31L1 30L2 30L2 28L1 28L1 29L0 29L0 32L1 32L1 33L0 33L0 34L1 34L1 35L0 35L0 37L1 37L1 39L2 39L2 40L0 40L0 44L3 44L3 45L2 45L2 46L0 46L0 50L1 50L1 54L0 54L0 55L1 55L1 54L2 54L2 55L3 55L3 56L2 56L2 59L3 59L3 56L4 56L4 55L3 55L3 54L4 54L4 51L5 51L5 55L8 55L8 56L6 56L6 57L4 57L4 59L7 59L7 60L6 60L6 61L8 61L8 62L10 62L10 63L8 63L8 65L9 65L9 66L10 66L10 67L8 67L8 69L9 69L9 68L10 68L10 69L13 69L13 68L14 68L14 67L15 67L15 69L16 69L16 68L17 68L17 69L20 69L20 68L19 68L19 67L20 67L20 66L21 66L21 69L22 69L22 68L23 68L23 69L25 69L25 68L26 68L26 69L27 69L27 68L26 68L26 67L25 67L25 66L27 66L27 67L28 67L28 66L30 66L30 67L33 67L33 68L32 68L32 69L33 69L33 68L34 68L34 69L35 69L35 68L34 68L34 65L35 65L35 67L39 67L39 66L40 66L40 63L41 63L41 67L40 67L40 68L38 68L38 69L40 69L40 68L43 68L43 63L42 63L42 62L43 62L43 61L42 61L42 58L45 58L45 59L44 59L44 69L46 69L46 67L45 67L45 63L46 63L46 64L47 64L47 63L48 63L48 65L47 65L47 66L48 66L48 65L50 65L50 66L49 66L49 67L50 67L50 68L47 68L47 69L50 69L50 68L51 68L51 69L52 69L52 68L56 68L56 69L57 69L57 68L58 68L58 69L59 69L59 68L58 68L58 67L57 67L57 66L56 66L56 65L57 65L57 62L58 62L58 59L59 59L59 60L60 60L60 62L59 62L59 63L58 63L58 64L59 64L59 63L60 63L60 65L59 65L59 66L61 66L61 68L62 68L62 69L63 69L63 68L62 68L62 67L64 67L64 68L65 68L65 63L66 63L66 62L67 62L67 60L66 60L66 61L65 61L65 59L68 59L68 58L69 58L69 55L68 55L68 53L69 53L69 52L68 52L68 50L67 50L67 49L69 49L69 47L68 47L68 46L69 46L69 45L68 45L68 43L67 43L67 44L66 44L66 46L64 46L64 44L65 44L65 43L64 43L64 41L65 41L65 40L64 40L64 39L65 39L65 38L64 38L64 39L60 39L60 38L58 38L58 36L60 36L60 37L62 37L62 38L63 38L63 37L66 37L66 38L67 38L67 39L68 39L68 38L69 38L69 35L68 35L68 33L69 33L69 31L68 31L68 30L69 30L69 28L68 28L68 26L69 26L69 25L67 25L67 26L65 26L65 25L64 25L64 26L63 26L63 23L64 23L64 22L63 22L63 21L64 21L64 20L65 20L65 23L68 23L68 24L69 24L69 23L68 23L68 22L69 22L69 20L68 20L68 18L67 18L67 20L68 20L68 22L67 22L67 21L66 21L66 20L65 20L65 17L64 17L64 16L65 16L65 13L67 13L67 12L65 12L65 13L64 13L64 15L63 15L63 13L62 13L62 12L63 12L63 11L65 11L65 10L66 10L66 11L67 11L67 9L69 9L69 8L65 8L65 9L64 9L64 8L63 8L63 9L62 9L62 10L61 10L61 9L60 9L60 8L61 8L61 6L60 6L60 8L59 8L59 4L58 4L58 8L57 8L57 5L56 5L56 7L55 7L55 4L56 4L56 3L55 3L55 2L54 2L54 1L55 1L55 0L54 0L54 1L51 1L51 0L50 0L50 2L51 2L51 3L50 3L50 5L49 5L49 4L47 4L47 1L46 1L46 0L45 0L45 1L44 1L44 0L40 0L40 2L39 2L39 3L40 3L40 4L41 4L41 6L40 6L40 7L39 7L39 4L38 4L38 3L37 3L37 2L38 2L38 1L39 1L39 0L38 0L38 1L34 1L34 4L32 4L32 3L33 3L33 2L32 2L32 1L33 1L33 0L31 0L31 1L30 1L30 0L22 0L22 4L21 4L21 3L19 3L19 2L18 2L18 1L20 1L20 2L21 2L21 0L14 0L14 1L12 1L12 0L10 0L10 3L9 3L9 0ZM48 0L48 1L49 1L49 0ZM56 0L56 1L57 1L57 3L59 3L59 2L58 2L58 1L61 1L61 0L58 0L58 1L57 1L57 0ZM16 1L16 2L17 2L17 1ZM24 1L24 3L23 3L23 5L21 5L21 7L20 7L20 5L18 5L18 4L19 4L19 3L15 3L15 2L14 2L14 5L15 5L15 4L17 4L17 5L18 5L18 6L17 6L17 7L16 7L16 6L15 6L15 8L13 8L13 10L14 10L14 11L13 11L13 13L11 13L11 14L13 14L13 13L14 13L14 11L15 11L15 12L18 12L18 11L19 11L19 10L20 10L20 13L19 13L19 15L20 15L20 16L21 16L21 17L19 17L19 16L18 16L18 17L17 17L17 18L18 18L18 19L20 19L20 18L21 18L21 17L23 17L23 16L24 16L24 15L26 15L26 16L27 16L27 13L28 13L28 14L29 14L29 15L30 15L30 16L31 16L31 15L32 15L32 18L30 18L30 19L29 19L29 20L30 20L30 19L32 19L32 20L33 20L33 21L34 21L34 23L32 23L32 24L34 24L34 25L36 25L36 24L37 24L37 23L38 23L38 24L40 24L40 27L39 27L39 28L38 28L38 25L37 25L37 26L36 26L36 27L35 27L35 28L34 28L34 27L33 27L33 25L31 25L31 27L33 27L33 28L32 28L32 29L31 29L31 30L30 30L30 29L28 29L28 31L27 31L27 32L26 32L26 31L25 31L25 33L30 33L30 34L31 34L31 33L30 33L30 32L31 32L31 30L32 30L32 32L35 32L35 31L37 31L37 33L38 33L38 29L40 29L40 30L42 30L42 28L43 28L43 29L44 29L44 30L43 30L43 31L40 31L40 33L44 33L44 34L43 34L43 35L42 35L42 37L43 37L43 38L41 38L41 36L40 36L40 35L41 35L41 34L39 34L39 35L37 35L37 37L36 37L36 38L37 38L37 37L38 37L38 36L40 36L40 37L39 37L39 38L38 38L38 39L34 39L34 38L35 38L35 37L32 37L32 35L29 35L29 34L28 34L28 35L27 35L27 37L26 37L26 34L25 34L25 35L24 35L24 34L23 34L23 33L24 33L24 31L20 31L20 27L21 27L21 26L22 26L22 29L26 29L26 28L28 28L28 27L25 27L25 26L27 26L27 25L28 25L28 26L29 26L29 27L30 27L30 26L29 26L29 25L30 25L30 24L31 24L31 22L32 22L32 21L30 21L30 23L28 23L28 22L29 22L29 21L28 21L28 20L27 20L27 21L28 21L28 22L27 22L27 23L25 23L25 22L24 22L24 24L27 24L27 25L25 25L25 26L24 26L24 25L21 25L21 26L20 26L20 24L21 24L21 23L22 23L22 24L23 24L23 20L22 20L22 21L21 21L21 22L20 22L20 20L19 20L19 21L16 21L16 22L17 22L17 24L15 24L15 25L17 25L17 24L18 24L18 23L20 23L20 24L19 24L19 25L18 25L18 26L16 26L16 27L15 27L15 26L14 26L14 25L13 25L13 24L14 24L14 23L15 23L15 20L14 20L14 21L13 21L13 20L12 20L12 21L11 21L11 22L10 22L10 23L9 23L9 24L8 24L8 22L7 22L7 21L9 21L9 20L11 20L11 18L10 18L10 19L9 19L9 17L6 17L6 16L7 16L7 15L6 15L6 16L5 16L5 18L7 18L7 19L5 19L5 20L7 20L7 21L6 21L6 22L7 22L7 23L6 23L6 24L8 24L8 26L7 26L7 25L6 25L6 26L7 26L7 27L6 27L6 28L7 28L7 29L6 29L6 30L7 30L7 31L5 31L5 32L7 32L7 31L8 31L8 32L9 32L9 31L10 31L10 35L9 35L9 39L10 39L10 40L9 40L9 42L8 42L8 39L6 39L6 38L7 38L7 37L6 37L6 38L5 38L5 37L3 37L3 38L5 38L5 39L4 39L4 40L2 40L2 41L5 41L5 42L4 42L4 46L3 46L3 47L2 47L2 49L1 49L1 50L2 50L2 51L3 51L3 49L4 49L4 50L5 50L5 51L6 51L6 52L7 52L7 53L6 53L6 54L8 54L8 55L10 55L10 56L9 56L9 57L10 57L10 58L11 58L11 59L12 59L12 58L11 58L11 57L10 57L10 56L11 56L11 53L12 53L12 51L13 51L13 50L14 50L14 52L13 52L13 54L12 54L12 55L13 55L13 54L15 54L15 53L16 53L16 55L17 55L17 53L18 53L18 56L19 56L19 57L21 57L21 58L20 58L20 59L18 59L18 60L19 60L19 61L17 61L17 58L16 58L16 59L15 59L15 61L14 61L14 59L13 59L13 61L14 61L14 62L15 62L15 61L16 61L16 62L18 62L18 63L16 63L16 64L17 64L17 65L15 65L15 64L13 64L13 63L12 63L12 60L9 60L9 58L8 58L8 57L6 57L6 58L7 58L7 59L8 59L8 61L11 61L11 63L10 63L10 64L13 64L13 65L12 65L12 66L11 66L11 67L10 67L10 68L11 68L11 67L12 67L12 68L13 68L13 67L14 67L14 66L13 66L13 65L15 65L15 67L16 67L16 66L17 66L17 65L18 65L18 64L19 64L19 65L20 65L20 64L21 64L21 63L20 63L20 64L19 64L19 61L21 61L21 62L22 62L22 65L21 65L21 66L22 66L22 67L23 67L23 68L25 68L25 67L23 67L23 66L22 66L22 65L23 65L23 64L24 64L24 63L23 63L23 61L26 61L26 60L25 60L25 58L26 58L26 59L27 59L27 57L28 57L28 60L27 60L27 61L28 61L28 62L29 62L29 64L28 64L28 63L27 63L27 64L26 64L26 63L25 63L25 65L29 65L29 64L31 64L31 65L30 65L30 66L31 66L31 65L32 65L32 66L33 66L33 65L32 65L32 64L31 64L31 63L32 63L32 62L29 62L29 60L30 60L30 58L29 58L29 57L30 57L30 56L31 56L31 60L33 60L33 59L34 59L34 58L35 58L35 59L36 59L36 60L39 60L39 63L40 63L40 62L41 62L41 60L39 60L39 59L38 59L38 57L39 57L39 58L40 58L40 59L41 59L41 58L40 58L40 57L41 57L41 56L42 56L42 57L44 57L44 54L45 54L45 53L46 53L46 54L47 54L47 53L46 53L46 52L47 52L47 51L48 51L48 52L49 52L49 51L50 51L50 52L51 52L51 50L52 50L52 54L50 54L50 53L49 53L49 55L48 55L48 56L49 56L49 58L48 58L48 57L46 57L46 58L47 58L47 59L45 59L45 61L46 61L46 62L47 62L47 61L46 61L46 60L47 60L47 59L49 59L49 64L50 64L50 65L51 65L51 64L52 64L52 65L54 65L54 64L55 64L55 63L56 63L56 62L54 62L54 63L53 63L53 62L52 62L52 61L56 61L56 60L57 60L57 59L58 59L58 58L59 58L59 57L60 57L60 59L61 59L61 60L64 60L64 59L63 59L63 58L62 58L62 59L61 59L61 57L60 57L60 56L61 56L61 55L64 55L64 58L65 58L65 55L66 55L66 58L68 58L68 57L67 57L67 56L68 56L68 55L67 55L67 51L64 51L64 50L66 50L66 49L67 49L67 48L68 48L68 47L67 47L67 46L68 46L68 45L67 45L67 46L66 46L66 47L65 47L65 48L64 48L64 47L63 47L63 44L64 44L64 43L63 43L63 42L62 42L62 45L61 45L61 44L58 44L58 43L59 43L59 41L60 41L60 39L59 39L59 41L56 41L56 39L55 39L55 38L52 38L52 37L56 37L56 36L58 36L58 35L60 35L60 31L61 31L61 30L62 30L62 31L63 31L63 32L66 32L66 33L65 33L65 34L67 34L67 33L68 33L68 31L64 31L64 29L65 29L65 30L68 30L68 29L67 29L67 27L65 27L65 26L64 26L64 27L62 27L62 25L61 25L61 26L59 26L59 25L60 25L60 24L62 24L62 20L63 20L63 19L64 19L64 17L63 17L63 19L62 19L62 15L61 15L61 14L60 14L60 13L61 13L61 10L60 10L60 9L59 9L59 8L58 8L58 10L59 10L59 12L58 12L58 14L59 14L59 15L61 15L61 18L59 18L59 17L58 17L58 16L57 16L57 15L56 15L56 14L57 14L57 13L56 13L56 11L57 11L57 10L56 10L56 8L55 8L55 7L54 7L54 6L53 6L53 8L52 8L52 10L53 10L53 11L55 11L55 12L52 12L52 13L51 13L51 14L50 14L50 12L49 12L49 15L47 15L47 16L46 16L46 14L47 14L47 11L46 11L46 10L47 10L47 8L49 8L49 10L50 10L50 11L51 11L51 10L50 10L50 8L51 8L51 7L52 7L52 3L51 3L51 7L50 7L50 6L49 6L49 5L47 5L47 4L46 4L46 5L44 5L44 4L45 4L45 3L46 3L46 1L45 1L45 3L44 3L44 2L42 2L42 1L41 1L41 2L40 2L40 3L44 3L44 4L43 4L43 5L44 5L44 6L43 6L43 8L40 8L40 9L39 9L39 7L38 7L38 5L37 5L37 10L38 10L38 9L39 9L39 11L37 11L37 12L36 12L36 13L34 13L34 11L33 11L33 10L32 10L32 11L31 11L31 10L30 10L30 9L32 9L32 8L30 8L30 9L29 9L29 7L30 7L30 6L31 6L31 7L32 7L32 6L31 6L31 5L32 5L32 4L31 4L31 2L30 2L30 3L29 3L29 2L28 2L28 1ZM11 2L11 3L12 3L12 2ZM25 2L25 3L24 3L24 5L23 5L23 6L22 6L22 8L24 8L24 9L23 9L23 10L22 10L22 9L21 9L21 8L20 8L20 7L19 7L19 6L18 6L18 7L19 7L19 8L17 8L17 11L18 11L18 10L19 10L19 9L20 9L20 10L21 10L21 13L20 13L20 14L22 14L22 15L21 15L21 16L23 16L23 14L26 14L26 13L27 13L27 12L28 12L28 11L29 11L29 13L31 13L31 14L33 14L33 12L32 12L32 13L31 13L31 11L30 11L30 10L28 10L28 9L27 9L27 8L28 8L28 7L29 7L29 6L30 6L30 5L28 5L28 3L27 3L27 4L26 4L26 2ZM35 2L35 4L37 4L37 3L36 3L36 2ZM53 2L53 4L55 4L55 3L54 3L54 2ZM60 3L60 5L61 5L61 3ZM26 5L26 6L25 6L25 7L24 7L24 6L23 6L23 7L24 7L24 8L25 8L25 9L24 9L24 10L25 10L25 9L26 9L26 8L25 8L25 7L26 7L26 6L27 6L27 7L28 7L28 5ZM33 5L33 8L36 8L36 5ZM9 6L9 7L10 7L10 6ZM11 6L11 9L10 9L10 10L11 10L11 9L12 9L12 6ZM13 6L13 7L14 7L14 6ZM34 6L34 7L35 7L35 6ZM41 6L41 7L42 7L42 6ZM44 6L44 7L45 7L45 8L44 8L44 9L45 9L45 10L46 10L46 9L45 9L45 8L47 8L47 6L46 6L46 7L45 7L45 6ZM48 6L48 7L49 7L49 8L50 8L50 7L49 7L49 6ZM15 8L15 9L14 9L14 10L15 10L15 11L16 11L16 10L15 10L15 9L16 9L16 8ZM54 8L54 9L53 9L53 10L55 10L55 11L56 11L56 10L55 10L55 8ZM35 9L35 11L36 11L36 9ZM41 9L41 10L40 10L40 11L39 11L39 13L38 13L38 16L39 16L39 17L38 17L38 18L37 18L37 16L36 16L36 15L35 15L35 14L34 14L34 15L33 15L33 17L34 17L34 18L33 18L33 19L34 19L34 20L36 20L36 19L34 19L34 18L35 18L35 17L36 17L36 18L37 18L37 21L35 21L35 22L37 22L37 21L38 21L38 20L39 20L39 21L40 21L40 22L39 22L39 23L40 23L40 24L41 24L41 23L40 23L40 22L41 22L41 21L40 21L40 20L42 20L42 19L40 19L40 16L42 16L42 17L41 17L41 18L44 18L44 19L45 19L45 14L46 14L46 11L43 11L43 9ZM63 9L63 10L64 10L64 9ZM41 10L41 14L40 14L40 13L39 13L39 15L42 15L42 13L43 13L43 14L44 14L44 12L42 12L42 10ZM23 11L23 12L22 12L22 14L23 14L23 12L24 12L24 11ZM25 11L25 13L26 13L26 12L27 12L27 11ZM68 11L68 14L67 14L67 16L66 16L66 17L69 17L69 16L68 16L68 14L69 14L69 11ZM59 12L59 13L60 13L60 12ZM53 13L53 14L52 14L52 15L51 15L51 16L50 16L50 15L49 15L49 16L47 16L47 18L48 18L48 17L49 17L49 16L50 16L50 18L51 18L51 17L52 17L52 19L51 19L51 20L50 20L50 19L48 19L48 21L47 21L47 19L46 19L46 20L44 20L44 23L45 23L45 24L44 24L44 25L43 25L43 24L42 24L42 25L41 25L41 26L43 26L43 27L46 27L46 28L47 28L47 30L48 30L48 29L49 29L49 28L50 28L50 27L47 27L47 26L49 26L49 25L50 25L50 26L51 26L51 29L50 29L50 30L52 30L52 28L53 28L53 27L54 27L54 29L53 29L53 30L56 30L56 29L57 29L57 32L56 32L56 31L54 31L54 32L53 32L53 31L51 31L51 32L50 32L50 31L49 31L49 32L47 32L47 31L46 31L46 29L45 29L45 28L44 28L44 29L45 29L45 31L44 31L44 33L45 33L45 34L44 34L44 37L45 37L45 38L43 38L43 39L41 39L41 38L40 38L40 39L39 39L39 40L38 40L38 42L36 42L36 41L37 41L37 40L35 40L35 42L34 42L34 44L33 44L33 45L31 45L31 44L32 44L32 43L29 43L29 45L30 45L30 46L29 46L29 47L28 47L28 45L27 45L27 42L28 42L28 41L27 41L27 39L29 39L29 41L30 41L30 42L31 42L31 41L34 41L34 39L32 39L32 40L31 40L31 38L32 38L32 37L31 37L31 36L29 36L29 37L30 37L30 39L29 39L29 38L28 38L28 37L27 37L27 39L25 39L25 36L24 36L24 35L23 35L23 38L22 38L22 36L19 36L19 35L20 35L20 34L22 34L22 32L20 32L20 31L19 31L19 32L18 32L18 33L17 33L17 31L18 31L18 30L19 30L19 26L18 26L18 28L17 28L17 29L18 29L18 30L16 30L16 28L14 28L14 27L13 27L13 29L12 29L12 30L14 30L14 31L13 31L13 32L11 32L11 33L12 33L12 36L10 36L10 38L13 38L13 37L14 37L14 38L16 38L16 39L15 39L15 41L14 41L14 39L11 39L11 40L10 40L10 41L11 41L11 42L12 42L12 41L14 41L14 43L15 43L15 44L17 44L17 45L20 45L20 46L18 46L18 47L17 47L17 46L16 46L16 45L15 45L15 46L14 46L14 47L13 47L13 45L14 45L14 44L13 44L13 45L12 45L12 46L11 46L11 45L10 45L10 47L9 47L9 46L6 46L6 45L7 45L7 44L10 44L10 43L8 43L8 42L6 42L6 43L5 43L5 46L4 46L4 47L5 47L5 48L4 48L4 49L5 49L5 50L6 50L6 51L7 51L7 52L8 52L8 51L9 51L9 52L10 52L10 53L9 53L9 54L10 54L10 53L11 53L11 52L10 52L10 51L12 51L12 50L11 50L11 49L12 49L12 48L11 48L11 47L13 47L13 48L14 48L14 49L15 49L15 50L16 50L16 49L18 49L18 51L15 51L15 52L14 52L14 53L15 53L15 52L16 52L16 53L17 53L17 52L18 52L18 53L19 53L19 52L20 52L20 54L19 54L19 55L20 55L20 56L21 56L21 57L24 57L24 58L25 58L25 56L22 56L22 55L20 55L20 54L21 54L21 53L22 53L22 54L23 54L23 55L25 55L25 54L26 54L26 53L27 53L27 55L26 55L26 57L27 57L27 55L28 55L28 56L29 56L29 55L30 55L30 54L29 54L29 55L28 55L28 53L31 53L31 54L32 54L32 56L33 56L33 58L32 58L32 59L33 59L33 58L34 58L34 56L35 56L35 55L37 55L37 53L38 53L38 52L39 52L39 53L40 53L40 54L39 54L39 57L40 57L40 54L42 54L42 55L43 55L43 54L44 54L44 53L45 53L45 50L46 50L46 51L47 51L47 50L49 50L49 48L47 48L47 47L49 47L49 45L50 45L50 47L51 47L51 45L52 45L52 44L53 44L53 45L54 45L54 47L53 47L53 46L52 46L52 48L50 48L50 50L51 50L51 49L52 49L52 50L57 50L57 51L56 51L56 53L55 53L55 51L53 51L53 54L54 54L54 55L52 55L52 56L51 56L51 55L49 55L49 56L51 56L51 57L50 57L50 58L49 58L49 59L50 59L50 60L51 60L51 61L50 61L50 62L51 62L51 61L52 61L52 60L54 60L54 58L55 58L55 59L56 59L56 58L58 58L58 57L57 57L57 56L59 56L59 55L61 55L61 54L59 54L59 55L58 55L58 52L59 52L59 51L58 51L58 49L59 49L59 50L60 50L60 52L61 52L61 53L62 53L62 54L64 54L64 55L65 55L65 54L66 54L66 53L65 53L65 54L64 54L64 53L63 53L63 51L62 51L62 50L64 50L64 48L62 48L62 50L61 50L61 47L62 47L62 46L61 46L61 47L60 47L60 49L59 49L59 48L58 48L58 49L57 49L57 47L59 47L59 46L60 46L60 45L59 45L59 46L58 46L58 45L57 45L57 43L56 43L56 42L55 42L55 39L52 39L52 38L51 38L51 37L52 37L52 36L56 36L56 35L58 35L58 32L59 32L59 30L61 30L61 29L62 29L62 30L63 30L63 29L64 29L64 28L65 28L65 27L64 27L64 28L63 28L63 29L62 29L62 28L59 28L59 30L58 30L58 28L56 28L56 29L55 29L55 27L58 27L58 25L57 25L57 24L58 24L58 23L59 23L59 24L60 24L60 23L61 23L61 21L59 21L59 20L58 20L58 21L57 21L57 20L56 20L56 21L55 21L55 18L56 18L56 19L58 19L58 17L57 17L57 16L56 16L56 17L52 17L52 16L54 16L54 14L56 14L56 13ZM0 14L0 17L1 17L1 16L2 16L2 15L1 15L1 14ZM43 15L43 17L44 17L44 15ZM28 16L28 17L27 17L27 18L26 18L26 17L25 17L25 18L26 18L26 19L28 19L28 18L29 18L29 16ZM34 16L34 17L35 17L35 16ZM18 17L18 18L19 18L19 17ZM22 18L22 19L23 19L23 18ZM38 18L38 19L39 19L39 20L40 20L40 19L39 19L39 18ZM3 19L3 20L4 20L4 19ZM24 19L24 20L25 20L25 21L26 21L26 20L25 20L25 19ZM52 19L52 21L51 21L51 23L50 23L50 20L49 20L49 21L48 21L48 23L47 23L47 25L46 25L46 26L47 26L47 25L48 25L48 23L49 23L49 24L50 24L50 25L51 25L51 23L52 23L52 25L53 25L53 23L54 23L54 25L55 25L55 26L54 26L54 27L55 27L55 26L56 26L56 25L55 25L55 23L54 23L54 22L52 22L52 21L53 21L53 19ZM60 19L60 20L62 20L62 19ZM4 21L4 22L5 22L5 21ZM42 21L42 23L43 23L43 21ZM46 21L46 22L47 22L47 21ZM58 21L58 22L56 22L56 23L58 23L58 22L59 22L59 21ZM12 22L12 23L14 23L14 22ZM34 23L34 24L36 24L36 23ZM10 24L10 26L11 26L11 27L12 27L12 25L11 25L11 24ZM28 24L28 25L29 25L29 24ZM52 26L52 27L53 27L53 26ZM8 27L8 29L7 29L7 30L8 30L8 31L9 31L9 30L8 30L8 29L9 29L9 28L10 28L10 29L11 29L11 28L10 28L10 27ZM23 27L23 28L24 28L24 27ZM40 27L40 28L42 28L42 27ZM36 28L36 30L37 30L37 29L38 29L38 28ZM33 29L33 31L34 31L34 30L35 30L35 29ZM10 30L10 31L11 31L11 30ZM29 30L29 31L30 31L30 30ZM14 31L14 32L13 32L13 33L14 33L14 32L15 32L15 33L16 33L16 34L17 34L17 35L18 35L18 34L17 34L17 33L16 33L16 31ZM19 32L19 33L20 33L20 32ZM49 32L49 33L50 33L50 32ZM52 32L52 33L51 33L51 34L52 34L52 35L54 35L54 34L53 34L53 32ZM54 32L54 33L56 33L56 32ZM5 33L5 36L8 36L8 33ZM33 33L33 36L36 36L36 33ZM46 33L46 34L45 34L45 37L46 37L46 42L45 42L45 43L46 43L46 44L45 44L45 45L46 45L46 46L47 46L47 45L46 45L46 44L48 44L48 43L49 43L49 44L50 44L50 45L51 45L51 44L50 44L50 43L51 43L51 42L52 42L52 43L53 43L53 42L52 42L52 41L54 41L54 40L52 40L52 41L51 41L51 42L50 42L50 40L49 40L49 39L51 39L51 38L50 38L50 36L51 36L51 35L49 35L49 34L48 34L48 33ZM61 33L61 36L64 36L64 33ZM6 34L6 35L7 35L7 34ZM14 34L14 35L15 35L15 37L16 37L16 38L18 38L18 39L17 39L17 40L16 40L16 41L15 41L15 43L16 43L16 42L17 42L17 43L18 43L18 44L22 44L22 46L20 46L20 48L21 48L21 47L22 47L22 50L21 50L21 49L19 49L19 48L18 48L18 49L19 49L19 51L18 51L18 52L19 52L19 51L20 51L20 50L21 50L21 51L22 51L22 50L24 50L24 49L25 49L25 50L26 50L26 51L28 51L28 50L29 50L29 51L30 51L30 49L29 49L29 48L32 48L32 49L31 49L31 52L32 52L32 54L33 54L33 56L34 56L34 55L35 55L35 54L36 54L36 53L37 53L37 51L39 51L39 52L40 52L40 53L41 53L41 52L40 52L40 51L41 51L41 49L42 49L42 45L41 45L41 46L40 46L40 45L39 45L39 47L37 47L37 45L35 45L35 44L34 44L34 45L35 45L35 46L33 46L33 47L32 47L32 46L30 46L30 47L29 47L29 48L28 48L28 47L27 47L27 46L25 46L25 47L26 47L26 48L28 48L28 49L27 49L27 50L26 50L26 49L25 49L25 48L24 48L24 49L23 49L23 47L24 47L24 46L23 46L23 45L24 45L24 43L22 43L22 42L23 42L23 41L24 41L24 42L25 42L25 41L26 41L26 40L25 40L25 39L24 39L24 40L22 40L22 39L21 39L21 40L20 40L20 37L19 37L19 38L18 38L18 37L17 37L17 36L16 36L16 35L15 35L15 34ZM34 34L34 35L35 35L35 34ZM46 34L46 37L49 37L49 36L48 36L48 35L47 35L47 34ZM55 34L55 35L56 35L56 34ZM62 34L62 35L63 35L63 34ZM65 35L65 36L67 36L67 37L68 37L68 35ZM48 38L48 39L47 39L47 42L49 42L49 40L48 40L48 39L49 39L49 38ZM57 38L57 40L58 40L58 38ZM18 39L18 41L17 41L17 42L18 42L18 41L20 41L20 43L21 43L21 42L22 42L22 41L20 41L20 40L19 40L19 39ZM40 39L40 41L41 41L41 39ZM43 39L43 42L38 42L38 43L41 43L41 44L43 44L43 43L44 43L44 40L45 40L45 39ZM6 40L6 41L7 41L7 40ZM11 40L11 41L12 41L12 40ZM24 40L24 41L25 41L25 40ZM30 40L30 41L31 41L31 40ZM61 40L61 41L62 41L62 40ZM63 40L63 41L64 41L64 40ZM67 40L67 41L68 41L68 40ZM1 42L1 43L2 43L2 42ZM35 42L35 43L36 43L36 44L37 44L37 43L36 43L36 42ZM54 42L54 43L55 43L55 42ZM60 42L60 43L61 43L61 42ZM6 43L6 44L7 44L7 43ZM11 43L11 44L12 44L12 43ZM25 43L25 45L26 45L26 43ZM43 45L43 47L44 47L44 48L43 48L43 49L44 49L44 50L45 50L45 49L46 49L46 50L47 50L47 48L45 48L45 46L44 46L44 45ZM55 45L55 46L56 46L56 45ZM5 46L5 47L6 47L6 48L7 48L7 49L6 49L6 50L8 50L8 49L11 49L11 48L9 48L9 47L8 47L8 48L7 48L7 47L6 47L6 46ZM15 46L15 47L14 47L14 48L15 48L15 49L16 49L16 48L17 48L17 47L16 47L16 46ZM22 46L22 47L23 47L23 46ZM35 46L35 47L36 47L36 48L37 48L37 49L38 49L38 50L39 50L39 51L40 51L40 48L41 48L41 47L39 47L39 49L38 49L38 48L37 48L37 47L36 47L36 46ZM33 47L33 49L32 49L32 52L33 52L33 51L34 51L34 52L35 52L35 53L36 53L36 52L35 52L35 51L36 51L36 49L34 49L34 47ZM44 48L44 49L45 49L45 48ZM52 48L52 49L56 49L56 48ZM33 49L33 50L34 50L34 49ZM9 50L9 51L10 51L10 50ZM42 50L42 52L43 52L43 53L44 53L44 51L43 51L43 50ZM24 51L24 52L25 52L25 53L26 53L26 52L25 52L25 51ZM57 51L57 52L58 52L58 51ZM22 52L22 53L23 53L23 52ZM27 52L27 53L28 53L28 52ZM33 53L33 54L34 54L34 53ZM56 53L56 54L55 54L55 55L54 55L54 56L52 56L52 57L51 57L51 58L50 58L50 59L51 59L51 60L52 60L52 59L53 59L53 58L52 58L52 57L56 57L56 56L57 56L57 53ZM55 55L55 56L56 56L56 55ZM12 56L12 57L13 57L13 56ZM14 56L14 57L17 57L17 56ZM36 56L36 57L35 57L35 58L36 58L36 59L37 59L37 56ZM62 56L62 57L63 57L63 56ZM0 58L0 61L1 61L1 58ZM21 58L21 61L22 61L22 59L23 59L23 60L24 60L24 59L23 59L23 58ZM51 58L51 59L52 59L52 58ZM3 60L3 61L5 61L5 60ZM33 61L33 64L36 64L36 61ZM37 61L37 63L38 63L38 61ZM61 61L61 64L64 64L64 61ZM34 62L34 63L35 63L35 62ZM62 62L62 63L63 63L63 62ZM52 63L52 64L53 64L53 63ZM67 63L67 66L66 66L66 67L67 67L67 66L69 66L69 65L68 65L68 64L69 64L69 63ZM37 64L37 65L36 65L36 66L37 66L37 65L38 65L38 64ZM61 65L61 66L63 66L63 65ZM18 66L18 67L17 67L17 68L18 68L18 67L19 67L19 66ZM50 66L50 67L53 67L53 66ZM55 66L55 67L56 67L56 68L57 68L57 67L56 67L56 66ZM29 68L29 69L31 69L31 68ZM36 68L36 69L37 69L37 68ZM66 68L66 69L67 69L67 68ZM68 68L68 69L69 69L69 68ZM0 0L0 7L7 7L7 0ZM1 1L1 6L6 6L6 1ZM2 2L2 5L5 5L5 2ZM62 0L62 7L69 7L69 0ZM63 1L63 6L68 6L68 1ZM64 2L64 5L67 5L67 2ZM0 62L0 69L7 69L7 62ZM1 63L1 68L6 68L6 63ZM2 64L2 67L5 67L5 64Z" fill="#000000"/></g></g></svg>
