<?xml version="1.0" encoding="UTF-8"?>
<svg xmlns="http://www.w3.org/2000/svg" version="1.1" width="300" height="300" viewBox="0 0 300 300"><rect x="0" y="0" width="300" height="300" fill="#ffffff"/><g transform="scale(4.348)"><g transform="translate(0,0)"><path fill-rule="evenodd" d="M8 0L8 1L9 1L9 2L10 2L10 3L11 3L11 4L10 4L10 5L9 5L9 6L8 6L8 8L9 8L9 6L10 6L10 7L11 7L11 6L12 6L12 8L10 8L10 9L8 9L8 10L6 10L6 11L5 11L5 12L3 12L3 10L2 10L2 8L0 8L0 10L2 10L2 13L1 13L1 14L0 14L0 15L2 15L2 16L1 16L1 19L0 19L0 20L1 20L1 21L0 21L0 23L1 23L1 22L2 22L2 25L3 25L3 24L5 24L5 25L4 25L4 27L3 27L3 26L1 26L1 27L0 27L0 29L1 29L1 30L0 30L0 31L1 31L1 32L0 32L0 33L1 33L1 34L0 34L0 37L1 37L1 36L2 36L2 35L4 35L4 36L3 36L3 39L1 39L1 41L2 41L2 40L3 40L3 39L5 39L5 40L4 40L4 41L3 41L3 42L2 42L2 46L1 46L1 44L0 44L0 46L1 46L1 47L0 47L0 48L1 48L1 50L0 50L0 53L2 53L2 56L3 56L3 57L4 57L4 59L7 59L7 60L6 60L6 61L7 61L7 60L8 60L8 62L10 62L10 63L12 63L12 64L13 64L13 65L11 65L11 64L10 64L10 65L11 65L11 66L10 66L10 67L11 67L11 66L13 66L13 68L14 68L14 67L15 67L15 66L17 66L17 67L19 67L19 68L16 68L16 69L21 69L21 67L22 67L22 69L23 69L23 65L21 65L21 63L22 63L22 64L23 64L23 62L25 62L25 61L24 61L24 60L26 60L26 63L28 63L28 64L29 64L29 65L27 65L27 66L25 66L25 65L26 65L26 64L24 64L24 66L25 66L25 67L24 67L24 68L26 68L26 67L27 67L27 68L28 68L28 66L29 66L29 65L31 65L31 67L29 67L29 68L30 68L30 69L31 69L31 67L32 67L32 65L33 65L33 67L35 67L35 69L38 69L38 68L40 68L40 69L42 69L42 68L43 68L43 69L44 69L44 68L43 68L43 67L44 67L44 65L45 65L45 66L47 66L47 63L48 63L48 62L49 62L49 64L48 64L48 67L45 67L45 68L46 68L46 69L47 69L47 68L48 68L48 69L49 69L49 68L50 68L50 69L51 69L51 68L52 68L52 69L55 69L55 68L56 68L56 67L57 67L57 66L59 66L59 65L57 65L57 64L55 64L55 65L54 65L54 64L53 64L53 63L50 63L50 62L51 62L51 60L50 60L50 59L51 59L51 58L52 58L52 59L53 59L53 57L54 57L54 58L56 58L56 59L58 59L58 61L57 61L57 60L56 60L56 61L54 61L54 60L52 60L52 61L53 61L53 62L55 62L55 63L57 63L57 62L58 62L58 61L60 61L60 68L61 68L61 66L62 66L62 68L63 68L63 66L62 66L62 65L66 65L66 66L64 66L64 68L65 68L65 69L67 69L67 68L69 68L69 66L67 66L67 65L66 65L66 64L69 64L69 63L68 63L68 62L67 62L67 61L65 61L65 60L67 60L67 59L69 59L69 48L68 48L68 47L69 47L69 45L68 45L68 44L69 44L69 42L68 42L68 41L67 41L67 42L68 42L68 44L67 44L67 43L66 43L66 41L65 41L65 40L62 40L62 41L61 41L61 40L59 40L59 41L58 41L58 39L60 39L60 38L63 38L63 37L65 37L65 38L64 38L64 39L65 39L65 38L66 38L66 40L67 40L67 38L69 38L69 36L68 36L68 37L67 37L67 35L69 35L69 34L67 34L67 33L66 33L66 32L67 32L67 31L68 31L68 32L69 32L69 27L68 27L68 26L67 26L67 27L64 27L64 25L67 25L67 23L68 23L68 24L69 24L69 22L68 22L68 21L66 21L66 20L67 20L67 18L68 18L68 20L69 20L69 15L67 15L67 14L69 14L69 12L68 12L68 11L69 11L69 10L68 10L68 9L69 9L69 8L68 8L68 9L67 9L67 10L68 10L68 11L66 11L66 10L65 10L65 11L66 11L66 12L64 12L64 11L62 11L62 10L64 10L64 9L63 9L63 8L62 8L62 9L57 9L57 10L56 10L56 13L54 13L54 12L55 12L55 11L54 11L54 10L55 10L55 9L53 9L53 8L54 8L54 7L55 7L55 8L57 8L57 6L56 6L56 7L55 7L55 5L56 5L56 4L57 4L57 5L58 5L58 7L59 7L59 8L61 8L61 6L60 6L60 7L59 7L59 4L58 4L58 3L59 3L59 2L58 2L58 1L61 1L61 0L54 0L54 1L53 1L53 2L51 2L51 1L52 1L52 0L50 0L50 2L49 2L49 3L47 3L47 5L44 5L44 7L43 7L43 4L46 4L46 3L44 3L44 2L45 2L45 1L44 1L44 0L42 0L42 2L43 2L43 3L41 3L41 2L40 2L40 0L38 0L38 2L40 2L40 3L39 3L39 4L38 4L38 3L37 3L37 0L36 0L36 1L35 1L35 0L34 0L34 1L35 1L35 2L34 2L34 3L35 3L35 4L33 4L33 3L30 3L30 2L32 2L32 1L33 1L33 0L32 0L32 1L31 1L31 0L30 0L30 2L28 2L28 4L29 4L29 5L26 5L26 7L25 7L25 4L27 4L27 3L25 3L25 2L26 2L26 0L24 0L24 1L25 1L25 2L24 2L24 3L22 3L22 1L23 1L23 0L18 0L18 1L17 1L17 2L16 2L16 0L15 0L15 2L16 2L16 3L17 3L17 6L16 6L16 4L15 4L15 3L14 3L14 4L12 4L12 3L11 3L11 2L14 2L14 0ZM27 0L27 1L29 1L29 0ZM46 0L46 1L49 1L49 0ZM10 1L10 2L11 2L11 1ZM19 1L19 2L20 2L20 3L19 3L19 4L21 4L21 2L20 2L20 1ZM55 1L55 2L54 2L54 3L55 3L55 2L56 2L56 3L57 3L57 2L56 2L56 1ZM17 2L17 3L18 3L18 2ZM60 3L60 5L61 5L61 3ZM14 4L14 5L12 5L12 6L13 6L13 9L10 9L10 10L12 10L12 11L13 11L13 12L11 12L11 13L10 13L10 11L8 11L8 12L7 12L7 11L6 11L6 12L5 12L5 13L4 13L4 15L3 15L3 16L2 16L2 18L3 18L3 17L5 17L5 16L7 16L7 17L6 17L6 18L9 18L9 16L10 16L10 15L11 15L11 16L12 16L12 15L11 15L11 14L14 14L14 12L15 12L15 15L16 15L16 17L15 17L15 18L13 18L13 19L12 19L12 20L11 20L11 21L10 21L10 20L9 20L9 19L8 19L8 20L7 20L7 19L5 19L5 18L4 18L4 19L3 19L3 20L4 20L4 19L5 19L5 20L7 20L7 21L6 21L6 22L7 22L7 23L6 23L6 24L7 24L7 25L6 25L6 26L5 26L5 27L4 27L4 29L6 29L6 30L8 30L8 29L9 29L9 32L10 32L10 31L11 31L11 30L13 30L13 31L12 31L12 32L14 32L14 33L15 33L15 34L12 34L12 36L10 36L10 35L11 35L11 34L9 34L9 36L10 36L10 37L12 37L12 38L11 38L11 39L12 39L12 41L13 41L13 40L14 40L14 42L13 42L13 43L14 43L14 44L16 44L16 45L17 45L17 47L15 47L15 45L14 45L14 46L13 46L13 45L12 45L12 44L10 44L10 45L9 45L9 46L10 46L10 45L11 45L11 47L10 47L10 48L9 48L9 47L8 47L8 46L7 46L7 45L8 45L8 44L9 44L9 42L8 42L8 41L10 41L10 43L11 43L11 41L10 41L10 38L9 38L9 37L6 37L6 38L5 38L5 37L4 37L4 38L5 38L5 39L6 39L6 40L8 40L8 41L4 41L4 42L3 42L3 43L4 43L4 44L7 44L7 45L3 45L3 46L4 46L4 49L2 49L2 50L1 50L1 51L3 51L3 50L4 50L4 49L6 49L6 50L5 50L5 51L4 51L4 52L2 52L2 53L3 53L3 56L4 56L4 55L5 55L5 54L7 54L7 55L6 55L6 56L7 56L7 57L5 57L5 58L7 58L7 57L8 57L8 58L9 58L9 60L11 60L11 62L13 62L13 64L14 64L14 65L13 65L13 66L15 66L15 64L16 64L16 65L17 65L17 66L18 66L18 65L17 65L17 63L18 63L18 62L20 62L20 61L21 61L21 62L23 62L23 61L22 61L22 60L20 60L20 59L19 59L19 57L21 57L21 58L22 58L22 59L24 59L24 57L23 57L23 56L25 56L25 58L26 58L26 60L27 60L27 61L28 61L28 63L29 63L29 62L32 62L32 61L30 61L30 60L34 60L34 58L35 58L35 57L34 57L34 56L35 56L35 55L36 55L36 54L32 54L32 53L35 53L35 52L34 52L34 51L32 51L32 52L31 52L31 53L30 53L30 52L29 52L29 53L30 53L30 55L31 55L31 56L33 56L33 57L29 57L29 55L28 55L28 54L27 54L27 55L26 55L26 56L25 56L25 54L26 54L26 53L25 53L25 52L26 52L26 51L25 51L25 52L24 52L24 53L23 53L23 52L22 52L22 50L21 50L21 49L22 49L22 48L24 48L24 49L25 49L25 48L27 48L27 47L28 47L28 46L27 46L27 44L28 44L28 45L29 45L29 44L31 44L31 43L29 43L29 42L28 42L28 43L27 43L27 41L30 41L30 42L32 42L32 46L31 46L31 45L30 45L30 46L29 46L29 48L28 48L28 49L27 49L27 52L28 52L28 50L29 50L29 51L31 51L31 50L32 50L32 49L33 49L33 48L32 48L32 49L31 49L31 50L30 50L30 47L33 47L33 46L34 46L34 47L35 47L35 50L38 50L38 48L39 48L39 50L40 50L40 48L39 48L39 47L38 47L38 48L37 48L37 49L36 49L36 47L37 47L37 44L38 44L38 42L39 42L39 43L41 43L41 45L42 45L42 44L44 44L44 45L43 45L43 47L41 47L41 48L43 48L43 49L44 49L44 50L43 50L43 51L42 51L42 50L41 50L41 51L40 51L40 53L38 53L38 54L37 54L37 55L38 55L38 54L40 54L40 55L39 55L39 58L41 58L41 61L40 61L40 60L39 60L39 59L37 59L37 62L38 62L38 61L39 61L39 63L38 63L38 64L37 64L37 68L38 68L38 67L39 67L39 65L38 65L38 64L39 64L39 63L40 63L40 65L41 65L41 66L42 66L42 67L40 67L40 68L42 68L42 67L43 67L43 66L42 66L42 64L45 64L45 65L46 65L46 64L45 64L45 63L46 63L46 62L47 62L47 61L48 61L48 60L47 60L47 59L48 59L48 58L49 58L49 57L50 57L50 56L49 56L49 55L48 55L48 52L45 52L45 53L47 53L47 55L43 55L43 54L44 54L44 53L43 53L43 52L44 52L44 50L45 50L45 51L46 51L46 50L48 50L48 45L47 45L47 44L49 44L49 46L50 46L50 47L49 47L49 48L50 48L50 49L49 49L49 52L50 52L50 51L51 51L51 50L52 50L52 46L53 46L53 45L57 45L57 44L56 44L56 43L55 43L55 44L54 44L54 40L57 40L57 38L55 38L55 39L54 39L54 38L53 38L53 37L56 37L56 36L57 36L57 37L58 37L58 38L59 38L59 37L58 37L58 36L59 36L59 35L60 35L60 32L63 32L63 31L64 31L64 29L65 29L65 28L64 28L64 27L63 27L63 29L62 29L62 28L61 28L61 29L62 29L62 30L63 30L63 31L61 31L61 30L60 30L60 27L62 27L62 26L60 26L60 25L61 25L61 24L63 24L63 25L64 25L64 24L63 24L63 22L61 22L61 24L59 24L59 23L60 23L60 22L59 22L59 23L58 23L58 22L57 22L57 23L56 23L56 24L55 24L55 26L53 26L53 27L52 27L52 24L51 24L51 23L49 23L49 22L48 22L48 21L47 21L47 22L46 22L46 23L44 23L44 24L43 24L43 22L42 22L42 25L43 25L43 26L44 26L44 24L45 24L45 25L46 25L46 26L47 26L47 29L48 29L48 28L49 28L49 29L50 29L50 30L51 30L51 31L50 31L50 33L51 33L51 31L52 31L52 30L51 30L51 29L53 29L53 30L54 30L54 31L55 31L55 32L56 32L56 33L55 33L55 34L54 34L54 32L53 32L53 34L51 34L51 35L50 35L50 34L49 34L49 35L48 35L48 36L47 36L47 34L45 34L45 33L46 33L46 32L48 32L48 30L47 30L47 31L46 31L46 30L45 30L45 31L44 31L44 32L41 32L41 33L39 33L39 35L38 35L38 36L39 36L39 35L40 35L40 36L42 36L42 37L43 37L43 39L45 39L45 41L47 41L47 42L45 42L45 43L43 43L43 42L44 42L44 41L43 41L43 40L41 40L41 39L42 39L42 38L41 38L41 39L39 39L39 38L40 38L40 37L39 37L39 38L38 38L38 37L37 37L37 38L35 38L35 39L34 39L34 38L33 38L33 37L32 37L32 35L29 35L29 34L32 34L32 33L29 33L29 32L32 32L32 30L34 30L34 31L33 31L33 32L35 32L35 31L36 31L36 32L37 32L37 33L38 33L38 32L39 32L39 31L36 31L36 30L35 30L35 29L33 29L33 28L32 28L32 29L31 29L31 31L29 31L29 30L30 30L30 28L31 28L31 27L30 27L30 23L32 23L32 25L31 25L31 26L33 26L33 23L34 23L34 21L33 21L33 20L32 20L32 18L37 18L37 17L36 17L36 15L35 15L35 14L36 14L36 13L37 13L37 16L38 16L38 13L39 13L39 14L40 14L40 15L41 15L41 16L39 16L39 17L38 17L38 18L40 18L40 17L41 17L41 19L38 19L38 20L37 20L37 19L36 19L36 20L37 20L37 22L38 22L38 23L36 23L36 22L35 22L35 23L36 23L36 25L35 25L35 24L34 24L34 27L35 27L35 26L36 26L36 25L37 25L37 28L36 28L36 29L38 29L38 30L40 30L40 29L41 29L41 31L43 31L43 30L44 30L44 29L43 29L43 30L42 30L42 28L43 28L43 27L41 27L41 25L40 25L40 24L39 24L39 22L38 22L38 21L40 21L40 20L41 20L41 19L42 19L42 17L41 17L41 16L45 16L45 15L46 15L46 16L47 16L47 17L48 17L48 18L47 18L47 19L46 19L46 18L45 18L45 17L43 17L43 18L44 18L44 19L43 19L43 20L42 20L42 21L45 21L45 20L44 20L44 19L46 19L46 20L47 20L47 19L48 19L48 20L49 20L49 21L50 21L50 20L49 20L49 17L48 17L48 16L47 16L47 15L49 15L49 16L50 16L50 18L52 18L52 17L53 17L53 19L54 19L54 20L53 20L53 21L55 21L55 22L56 22L56 21L57 21L57 20L58 20L58 21L59 21L59 20L58 20L58 19L60 19L60 20L62 20L62 21L64 21L64 22L65 22L65 24L66 24L66 23L67 23L67 22L66 22L66 21L64 21L64 20L66 20L66 18L67 18L67 17L68 17L68 16L67 16L67 17L65 17L65 16L64 16L64 15L65 15L65 14L67 14L67 13L68 13L68 12L67 12L67 13L65 13L65 14L64 14L64 13L63 13L63 14L62 14L62 12L61 12L61 11L60 11L60 10L57 10L57 11L60 11L60 12L59 12L59 13L58 13L58 14L57 14L57 13L56 13L56 14L54 14L54 15L55 15L55 16L53 16L53 14L52 14L52 11L53 11L53 12L54 12L54 11L53 11L53 9L52 9L52 8L53 8L53 7L54 7L54 6L53 6L53 7L52 7L52 5L54 5L54 4L52 4L52 5L51 5L51 10L50 10L50 6L49 6L49 10L48 10L48 11L49 11L49 10L50 10L50 11L51 11L51 12L49 12L49 13L48 13L48 12L47 12L47 10L45 10L45 8L47 8L47 7L48 7L48 6L47 6L47 7L46 7L46 6L45 6L45 8L41 8L41 7L42 7L42 4L41 4L41 7L40 7L40 5L38 5L38 6L37 6L37 7L38 7L38 9L39 9L39 10L40 10L40 11L39 11L39 12L38 12L38 11L37 11L37 12L33 12L33 11L36 11L36 9L35 9L35 10L33 10L33 9L32 9L32 8L31 8L31 7L32 7L32 5L29 5L29 7L30 7L30 8L31 8L31 9L29 9L29 8L28 8L28 6L27 6L27 8L25 8L25 7L24 7L24 4L23 4L23 7L22 7L22 5L21 5L21 7L22 7L22 8L23 8L23 9L24 9L24 11L23 11L23 10L21 10L21 11L20 11L20 10L19 10L19 9L21 9L21 8L19 8L19 9L18 9L18 8L16 8L16 6L15 6L15 8L16 8L16 9L18 9L18 11L20 11L20 12L19 12L19 14L18 14L18 12L15 12L15 11L14 11L14 10L15 10L15 9L14 9L14 5L15 5L15 4ZM49 4L49 5L50 5L50 4ZM10 5L10 6L11 6L11 5ZM19 5L19 7L20 7L20 5ZM33 5L33 8L36 8L36 5ZM17 6L17 7L18 7L18 6ZM30 6L30 7L31 7L31 6ZM34 6L34 7L35 7L35 6ZM38 6L38 7L39 7L39 8L40 8L40 9L41 9L41 11L40 11L40 14L42 14L42 15L44 15L44 14L46 14L46 15L47 15L47 14L48 14L48 13L47 13L47 12L46 12L46 13L45 13L45 12L44 12L44 11L45 11L45 10L43 10L43 9L41 9L41 8L40 8L40 7L39 7L39 6ZM23 7L23 8L24 8L24 9L25 9L25 10L27 10L27 11L28 11L28 13L27 13L27 12L26 12L26 11L25 11L25 12L24 12L24 13L23 13L23 11L22 11L22 14L23 14L23 17L21 17L21 16L22 16L22 15L21 15L21 12L20 12L20 14L19 14L19 16L20 16L20 17L17 17L17 18L19 18L19 19L20 19L20 18L21 18L21 20L22 20L22 21L19 21L19 20L16 20L16 19L15 19L15 21L14 21L14 19L13 19L13 21L12 21L12 22L11 22L11 23L12 23L12 24L11 24L11 25L10 25L10 27L9 27L9 24L10 24L10 23L9 23L9 22L10 22L10 21L9 21L9 20L8 20L8 21L7 21L7 22L8 22L8 23L7 23L7 24L8 24L8 25L7 25L7 26L6 26L6 27L5 27L5 28L6 28L6 29L7 29L7 28L9 28L9 29L10 29L10 28L11 28L11 25L12 25L12 26L14 26L14 28L12 28L12 29L14 29L14 30L15 30L15 31L16 31L16 32L18 32L18 33L16 33L16 34L15 34L15 35L13 35L13 36L12 36L12 37L13 37L13 39L16 39L16 40L17 40L17 39L19 39L19 35L23 35L23 36L22 36L22 37L21 37L21 36L20 36L20 38L21 38L21 40L18 40L18 43L17 43L17 41L16 41L16 43L17 43L17 45L18 45L18 46L19 46L19 44L18 44L18 43L19 43L19 42L20 42L20 41L21 41L21 43L20 43L20 47L19 47L19 49L18 49L18 50L17 50L17 51L16 51L16 48L14 48L14 51L11 51L11 52L9 52L9 51L10 51L10 50L13 50L13 49L10 49L10 50L8 50L8 48L6 48L6 47L7 47L7 46L5 46L5 48L6 48L6 49L7 49L7 50L6 50L6 51L5 51L5 52L4 52L4 54L5 54L5 53L7 53L7 52L6 52L6 51L7 51L7 50L8 50L8 52L9 52L9 53L11 53L11 54L10 54L10 55L9 55L9 54L8 54L8 55L9 55L9 56L8 56L8 57L9 57L9 58L10 58L10 59L11 59L11 56L12 56L12 59L14 59L14 58L15 58L15 60L13 60L13 61L14 61L14 62L16 62L16 61L17 61L17 60L18 60L18 61L20 61L20 60L18 60L18 58L16 58L16 57L19 57L19 56L16 56L16 54L17 54L17 55L18 55L18 54L17 54L17 53L19 53L19 54L20 54L20 55L21 55L21 54L20 54L20 53L21 53L21 52L20 52L20 51L21 51L21 50L19 50L19 49L21 49L21 44L22 44L22 45L23 45L23 47L27 47L27 46L25 46L25 44L24 44L24 42L23 42L23 41L25 41L25 43L26 43L26 44L27 44L27 43L26 43L26 41L27 41L27 40L26 40L26 37L27 37L27 39L29 39L29 40L30 40L30 41L31 41L31 40L32 40L32 42L33 42L33 38L32 38L32 37L31 37L31 36L30 36L30 38L31 38L31 39L29 39L29 38L28 38L28 37L29 37L29 35L27 35L27 33L26 33L26 37L25 37L25 36L24 36L24 34L25 34L25 33L23 33L23 32L24 32L24 30L25 30L25 31L27 31L27 30L25 30L25 29L27 29L27 28L28 28L28 30L29 30L29 27L27 27L27 28L25 28L25 25L27 25L27 26L28 26L28 25L29 25L29 24L28 24L28 25L27 25L27 22L29 22L29 23L30 23L30 21L31 21L31 22L33 22L33 21L32 21L32 20L31 20L31 19L30 19L30 17L31 17L31 16L32 16L32 17L34 17L34 16L35 16L35 15L31 15L31 14L32 14L32 13L33 13L33 12L32 12L32 11L33 11L33 10L32 10L32 11L31 11L31 12L30 12L30 10L29 10L29 9L28 9L28 8L27 8L27 9L25 9L25 8L24 8L24 7ZM3 8L3 9L4 9L4 10L5 10L5 8ZM6 8L6 9L7 9L7 8ZM13 9L13 10L14 10L14 9ZM42 10L42 11L41 11L41 13L44 13L44 12L42 12L42 11L43 11L43 10ZM6 12L6 13L5 13L5 14L6 14L6 15L7 15L7 16L8 16L8 15L9 15L9 14L10 14L10 13L9 13L9 12L8 12L8 13L7 13L7 12ZM31 12L31 13L30 13L30 14L29 14L29 13L28 13L28 14L27 14L27 13L25 13L25 14L24 14L24 15L27 15L27 16L28 16L28 17L30 17L30 16L31 16L31 15L30 15L30 14L31 14L31 13L32 13L32 12ZM37 12L37 13L38 13L38 12ZM2 13L2 14L3 14L3 13ZM6 13L6 14L7 14L7 15L8 15L8 14L9 14L9 13L8 13L8 14L7 14L7 13ZM16 13L16 15L18 15L18 14L17 14L17 13ZM46 13L46 14L47 14L47 13ZM50 13L50 14L51 14L51 15L50 15L50 16L52 16L52 14L51 14L51 13ZM60 13L60 14L58 14L58 15L57 15L57 16L55 16L55 17L54 17L54 18L55 18L55 19L58 19L58 18L59 18L59 17L57 17L57 16L58 16L58 15L60 15L60 19L62 19L62 20L63 20L63 19L62 19L62 17L63 17L63 16L61 16L61 15L62 15L62 14L61 14L61 13ZM28 14L28 16L30 16L30 15L29 15L29 14ZM4 15L4 16L5 16L5 15ZM25 16L25 17L26 17L26 16ZM11 17L11 18L12 18L12 17ZM23 17L23 18L22 18L22 19L23 19L23 18L24 18L24 17ZM55 17L55 18L57 18L57 17ZM25 18L25 19L24 19L24 20L23 20L23 21L24 21L24 20L25 20L25 21L29 21L29 18ZM64 18L64 19L65 19L65 18ZM1 19L1 20L2 20L2 19ZM25 19L25 20L26 20L26 19ZM34 19L34 20L35 20L35 19ZM55 20L55 21L56 21L56 20ZM2 21L2 22L3 22L3 23L5 23L5 22L4 22L4 21ZM8 21L8 22L9 22L9 21ZM15 21L15 23L13 23L13 25L15 25L15 23L16 23L16 22L18 22L18 21ZM19 22L19 23L20 23L20 24L21 24L21 27L22 27L22 28L21 28L21 29L20 29L20 30L19 30L19 34L20 34L20 33L22 33L22 32L20 32L20 30L21 30L21 31L22 31L22 30L24 30L24 29L23 29L23 28L24 28L24 27L22 27L22 26L24 26L24 24L26 24L26 22L24 22L24 23L22 23L22 22L21 22L21 23L20 23L20 22ZM52 22L52 23L54 23L54 22ZM46 23L46 24L47 24L47 26L48 26L48 27L49 27L49 28L50 28L50 29L51 29L51 24L50 24L50 27L49 27L49 26L48 26L48 25L49 25L49 24L47 24L47 23ZM0 24L0 25L1 25L1 24ZM17 24L17 25L18 25L18 24ZM37 24L37 25L38 25L38 26L39 26L39 28L41 28L41 27L40 27L40 25L38 25L38 24ZM53 24L53 25L54 25L54 24ZM56 24L56 25L57 25L57 26L55 26L55 27L56 27L56 28L53 28L53 29L54 29L54 30L55 30L55 29L57 29L57 30L56 30L56 31L60 31L60 30L59 30L59 28L57 28L57 27L58 27L58 25L59 25L59 24ZM19 25L19 26L18 26L18 27L19 27L19 26L20 26L20 25ZM16 26L16 29L18 29L18 28L17 28L17 26ZM1 27L1 29L3 29L3 28L2 28L2 27ZM6 27L6 28L7 28L7 27ZM44 27L44 28L45 28L45 29L46 29L46 28L45 28L45 27ZM66 28L66 31L67 31L67 28ZM21 29L21 30L22 30L22 29ZM2 30L2 32L1 32L1 33L2 33L2 34L1 34L1 35L2 35L2 34L3 34L3 33L2 33L2 32L5 32L5 30L4 30L4 31L3 31L3 30ZM16 30L16 31L17 31L17 30ZM6 31L6 32L8 32L8 31ZM45 31L45 32L46 32L46 31ZM57 32L57 33L56 33L56 34L55 34L55 35L54 35L54 36L56 36L56 35L57 35L57 33L58 33L58 35L59 35L59 33L58 33L58 32ZM5 33L5 36L8 36L8 33ZM28 33L28 34L29 34L29 33ZM33 33L33 36L36 36L36 33ZM41 33L41 35L42 35L42 34L43 34L43 33ZM61 33L61 36L64 36L64 33ZM65 33L65 34L66 34L66 33ZM6 34L6 35L7 35L7 34ZM16 34L16 35L15 35L15 36L13 36L13 37L14 37L14 38L15 38L15 37L16 37L16 38L17 38L17 37L18 37L18 36L17 36L17 35L18 35L18 34ZM34 34L34 35L35 35L35 34ZM62 34L62 35L63 35L63 34ZM43 35L43 37L44 37L44 38L45 38L45 35ZM51 35L51 36L52 36L52 37L53 37L53 35ZM65 35L65 36L66 36L66 35ZM16 36L16 37L17 37L17 36ZM27 36L27 37L28 37L28 36ZM46 36L46 37L47 37L47 38L48 38L48 39L49 39L49 38L50 38L50 40L48 40L48 41L49 41L49 42L47 42L47 43L49 43L49 44L51 44L51 43L52 43L52 45L53 45L53 42L52 42L52 41L51 41L51 40L52 40L52 39L53 39L53 40L54 40L54 39L53 39L53 38L52 38L52 39L51 39L51 37L49 37L49 36L48 36L48 37L47 37L47 36ZM22 37L22 38L23 38L23 39L24 39L24 40L25 40L25 39L24 39L24 38L23 38L23 37ZM48 37L48 38L49 38L49 37ZM66 37L66 38L67 38L67 37ZM6 38L6 39L8 39L8 40L9 40L9 39L8 39L8 38ZM37 38L37 39L35 39L35 41L34 41L34 42L35 42L35 44L34 44L34 43L33 43L33 44L34 44L34 45L35 45L35 47L36 47L36 45L35 45L35 44L37 44L37 42L38 42L38 41L39 41L39 42L40 42L40 41L39 41L39 39L38 39L38 38ZM37 39L37 40L38 40L38 39ZM68 39L68 40L69 40L69 39ZM22 40L22 41L23 41L23 40ZM35 41L35 42L36 42L36 41ZM42 41L42 42L41 42L41 43L42 43L42 42L43 42L43 41ZM50 41L50 42L49 42L49 43L50 43L50 42L51 42L51 41ZM56 41L56 42L57 42L57 43L58 43L58 44L59 44L59 45L61 45L61 46L60 46L60 47L59 47L59 46L58 46L58 47L57 47L57 46L56 46L56 47L55 47L55 46L54 46L54 47L55 47L55 48L53 48L53 49L56 49L56 50L57 50L57 51L58 51L58 52L57 52L57 53L55 53L55 54L52 54L52 55L53 55L53 56L54 56L54 55L56 55L56 56L55 56L55 57L56 57L56 58L57 58L57 53L59 53L59 54L60 54L60 55L62 55L62 56L61 56L61 57L62 57L62 58L63 58L63 56L64 56L64 54L63 54L63 52L64 52L64 53L68 53L68 52L65 52L65 51L67 51L67 50L68 50L68 49L67 49L67 48L66 48L66 47L64 47L64 46L63 46L63 45L64 45L64 43L65 43L65 42L64 42L64 43L63 43L63 44L62 44L62 42L63 42L63 41L62 41L62 42L60 42L60 41L59 41L59 42L60 42L60 43L61 43L61 44L59 44L59 43L58 43L58 42L57 42L57 41ZM6 42L6 43L8 43L8 42ZM14 42L14 43L15 43L15 42ZM22 42L22 44L23 44L23 45L24 45L24 44L23 44L23 42ZM45 43L45 46L44 46L44 47L43 47L43 48L44 48L44 49L45 49L45 50L46 50L46 48L47 48L47 47L45 47L45 46L47 46L47 45L46 45L46 43ZM61 44L61 45L62 45L62 44ZM65 44L65 46L66 46L66 44ZM50 45L50 46L51 46L51 45ZM67 45L67 46L68 46L68 45ZM12 46L12 48L13 48L13 46ZM61 46L61 47L62 47L62 48L61 48L61 49L60 49L60 48L59 48L59 47L58 47L58 48L57 48L57 47L56 47L56 49L58 49L58 48L59 48L59 49L60 49L60 50L59 50L59 51L61 51L61 50L62 50L62 49L63 49L63 51L64 51L64 49L66 49L66 48L64 48L64 49L63 49L63 46ZM17 47L17 48L18 48L18 47ZM44 47L44 48L45 48L45 47ZM50 49L50 50L51 50L51 49ZM14 51L14 55L15 55L15 53L16 53L16 52L15 52L15 51ZM17 51L17 52L18 52L18 51ZM38 51L38 52L39 52L39 51ZM12 52L12 54L13 54L13 52ZM41 52L41 54L43 54L43 53L42 53L42 52ZM51 52L51 53L50 53L50 55L51 55L51 53L54 53L54 52ZM59 52L59 53L60 53L60 52ZM22 53L22 54L23 54L23 53ZM24 53L24 54L25 54L25 53ZM0 54L0 56L1 56L1 54ZM31 54L31 55L32 55L32 54ZM62 54L62 55L63 55L63 54ZM66 54L66 55L67 55L67 56L68 56L68 54ZM12 55L12 56L13 56L13 58L14 58L14 56L13 56L13 55ZM22 55L22 56L23 56L23 55ZM40 55L40 57L41 57L41 58L42 58L42 59L43 59L43 60L42 60L42 61L41 61L41 62L40 62L40 63L41 63L41 62L42 62L42 63L44 63L44 62L43 62L43 60L44 60L44 61L45 61L45 62L46 62L46 60L44 60L44 59L43 59L43 57L44 57L44 58L45 58L45 59L46 59L46 58L47 58L47 57L44 57L44 56L42 56L42 55ZM47 55L47 56L48 56L48 57L49 57L49 56L48 56L48 55ZM58 55L58 56L59 56L59 60L61 60L61 59L60 59L60 56L59 56L59 55ZM9 56L9 57L10 57L10 56ZM27 56L27 57L26 57L26 58L28 58L28 61L29 61L29 60L30 60L30 58L29 58L29 57L28 57L28 56ZM37 56L37 57L38 57L38 56ZM51 56L51 57L52 57L52 56ZM65 56L65 57L66 57L66 59L67 59L67 57L66 57L66 56ZM1 57L1 58L0 58L0 61L1 61L1 58L2 58L2 59L3 59L3 58L2 58L2 57ZM22 57L22 58L23 58L23 57ZM16 59L16 60L15 60L15 61L16 61L16 60L17 60L17 59ZM35 59L35 60L36 60L36 59ZM63 59L63 60L64 60L64 59ZM3 60L3 61L5 61L5 60ZM49 60L49 62L50 62L50 60ZM68 60L68 61L69 61L69 60ZM33 61L33 64L36 64L36 61ZM56 61L56 62L57 62L57 61ZM61 61L61 64L64 64L64 61ZM34 62L34 63L35 63L35 62ZM62 62L62 63L63 63L63 62ZM65 62L65 63L66 63L66 62ZM58 63L58 64L59 64L59 63ZM8 64L8 66L9 66L9 64ZM31 64L31 65L32 65L32 64ZM50 64L50 66L49 66L49 67L48 67L48 68L49 68L49 67L50 67L50 68L51 68L51 67L52 67L52 68L54 68L54 67L55 67L55 66L54 66L54 65L53 65L53 64ZM19 65L19 67L20 67L20 66L21 66L21 65ZM51 65L51 66L50 66L50 67L51 67L51 66L52 66L52 67L54 67L54 66L53 66L53 65ZM56 65L56 66L57 66L57 65ZM35 66L35 67L36 67L36 66ZM8 67L8 69L9 69L9 67ZM58 67L58 68L57 68L57 69L59 69L59 67ZM10 68L10 69L11 69L11 68ZM33 68L33 69L34 69L34 68ZM0 0L0 7L7 7L7 0ZM1 1L1 6L6 6L6 1ZM2 2L2 5L5 5L5 2ZM62 0L62 7L69 7L69 0ZM63 1L63 6L68 6L68 1ZM64 2L64 5L67 5L67 2ZM0 62L0 69L7 69L7 62ZM1 63L1 68L6 68L6 63ZM2 64L2 67L5 67L5 64Z" fill="#000000"/></g></g></svg>
