<?xml version="1.0" encoding="UTF-8"?>
<svg xmlns="http://www.w3.org/2000/svg" version="1.1" width="300" height="300" viewBox="0 0 300 300"><rect x="0" y="0" width="300" height="300" fill="#ffffff"/><g transform="scale(4.348)"><g transform="translate(0,0)"><path fill-rule="evenodd" d="M9 0L9 1L8 1L8 2L10 2L10 4L9 4L9 3L8 3L8 4L9 4L9 5L8 5L8 7L9 7L9 5L10 5L10 4L11 4L11 5L12 5L12 7L13 7L13 8L12 8L12 12L11 12L11 11L10 11L10 10L9 10L9 9L11 9L11 8L6 8L6 9L5 9L5 8L0 8L0 10L3 10L3 9L4 9L4 10L5 10L5 11L3 11L3 12L4 12L4 14L5 14L5 15L4 15L4 16L5 16L5 17L1 17L1 18L5 18L5 17L7 17L7 18L6 18L6 19L2 19L2 20L3 20L3 21L4 21L4 23L3 23L3 22L2 22L2 21L0 21L0 22L1 22L1 23L2 23L2 24L5 24L5 25L4 25L4 26L3 26L3 25L2 25L2 26L0 26L0 27L2 27L2 28L3 28L3 29L4 29L4 31L5 31L5 32L3 32L3 31L2 31L2 33L1 33L1 31L0 31L0 37L1 37L1 39L0 39L0 40L1 40L1 41L0 41L0 42L1 42L1 43L0 43L0 45L1 45L1 46L0 46L0 49L1 49L1 48L2 48L2 50L0 50L0 55L1 55L1 54L3 54L3 53L4 53L4 54L5 54L5 53L4 53L4 52L5 52L5 51L9 51L9 52L6 52L6 53L9 53L9 55L10 55L10 56L8 56L8 54L6 54L6 55L5 55L5 57L4 57L4 59L7 59L7 58L9 58L9 60L10 60L10 63L11 63L11 61L12 61L12 60L11 60L11 59L12 59L12 58L13 58L13 59L14 59L14 57L10 57L10 56L12 56L12 54L13 54L13 53L12 53L12 52L14 52L14 53L18 53L18 54L17 54L17 57L16 57L16 54L15 54L15 57L16 57L16 58L15 58L15 59L16 59L16 60L17 60L17 62L16 62L16 63L17 63L17 64L18 64L18 65L17 65L17 66L19 66L19 67L18 67L18 68L16 68L16 67L14 67L14 68L16 68L16 69L19 69L19 67L20 67L20 66L19 66L19 65L20 65L20 64L21 64L21 63L20 63L20 64L19 64L19 62L20 62L20 61L19 61L19 60L20 60L20 59L21 59L21 58L22 58L22 57L24 57L24 58L23 58L23 59L22 59L22 60L23 60L23 59L24 59L24 60L25 60L25 61L23 61L23 62L25 62L25 63L24 63L24 64L25 64L25 65L23 65L23 66L22 66L22 67L21 67L21 68L20 68L20 69L21 69L21 68L23 68L23 66L25 66L25 67L24 67L24 69L26 69L26 68L27 68L27 69L28 69L28 68L29 68L29 69L32 69L32 67L33 67L33 65L36 65L36 66L37 66L37 67L35 67L35 68L36 68L36 69L38 69L38 68L37 68L37 67L39 67L39 68L40 68L40 67L41 67L41 68L42 68L42 69L44 69L44 68L48 68L48 69L51 69L51 68L52 68L52 67L55 67L55 69L56 69L56 67L55 67L55 65L51 65L51 64L52 64L52 63L53 63L53 64L57 64L57 65L56 65L56 66L57 66L57 69L59 69L59 68L61 68L61 69L64 69L64 68L66 68L66 69L68 69L68 68L67 68L67 67L64 67L64 66L65 66L65 64L68 64L68 65L69 65L69 64L68 64L68 63L67 63L67 62L69 62L69 60L68 60L68 61L67 61L67 59L68 59L68 58L69 58L69 57L68 57L68 56L69 56L69 55L68 55L68 54L69 54L69 53L68 53L68 54L67 54L67 52L68 52L68 50L69 50L69 49L67 49L67 50L66 50L66 49L65 49L65 50L64 50L64 52L63 52L63 51L62 51L62 50L63 50L63 49L64 49L64 47L62 47L62 46L61 46L61 47L62 47L62 48L61 48L61 49L62 49L62 50L61 50L61 51L62 51L62 53L64 53L64 52L66 52L66 53L65 53L65 55L61 55L61 56L60 56L60 55L59 55L59 54L57 54L57 53L56 53L56 52L57 52L57 51L58 51L58 50L57 50L57 51L55 51L55 49L56 49L56 48L57 48L57 49L58 49L58 48L59 48L59 47L58 47L58 48L57 48L57 46L56 46L56 44L57 44L57 45L59 45L59 46L60 46L60 45L61 45L61 44L60 44L60 45L59 45L59 44L58 44L58 43L59 43L59 42L58 42L58 43L56 43L56 44L55 44L55 43L53 43L53 45L52 45L52 46L56 46L56 48L55 48L55 47L54 47L54 48L55 48L55 49L53 49L53 50L52 50L52 51L51 51L51 52L50 52L50 53L49 53L49 52L47 52L47 51L49 51L49 50L50 50L50 49L49 49L49 48L51 48L51 46L50 46L50 45L51 45L51 42L50 42L50 40L51 40L51 38L49 38L49 37L50 37L50 36L49 36L49 34L50 34L50 35L51 35L51 36L52 36L52 35L51 35L51 34L50 34L50 33L51 33L51 32L52 32L52 30L53 30L53 31L55 31L55 32L54 32L54 33L53 33L53 35L56 35L56 36L55 36L55 37L52 37L52 38L55 38L55 37L56 37L56 39L55 39L55 41L53 41L53 42L57 42L57 41L58 41L58 40L59 40L59 39L57 39L57 37L56 37L56 36L57 36L57 35L58 35L58 37L59 37L59 38L60 38L60 39L62 39L62 40L61 40L61 41L60 41L60 43L62 43L62 45L63 45L63 43L62 43L62 42L64 42L64 41L65 41L65 44L66 44L66 47L65 47L65 48L67 48L67 47L68 47L68 48L69 48L69 47L68 47L68 46L67 46L67 45L68 45L68 44L67 44L67 43L68 43L68 42L69 42L69 40L68 40L68 36L69 36L69 35L68 35L68 34L69 34L69 31L68 31L68 29L69 29L69 28L68 28L68 27L66 27L66 26L69 26L69 23L68 23L68 22L66 22L66 23L65 23L65 24L67 24L67 23L68 23L68 25L66 25L66 26L65 26L65 25L64 25L64 26L65 26L65 29L66 29L66 28L67 28L67 31L64 31L64 32L63 32L63 31L62 31L62 29L63 29L63 30L64 30L64 29L63 29L63 27L62 27L62 29L61 29L61 27L60 27L60 26L62 26L62 24L63 24L63 23L64 23L64 22L65 22L65 21L66 21L66 20L67 20L67 21L68 21L68 18L69 18L69 17L68 17L68 14L65 14L65 16L66 16L66 17L63 17L63 18L62 18L62 16L64 16L64 14L62 14L62 12L63 12L63 13L64 13L64 12L67 12L67 11L68 11L68 10L69 10L69 9L68 9L68 8L67 8L67 9L66 9L66 8L65 8L65 9L64 9L64 8L63 8L63 9L64 9L64 10L66 10L66 11L64 11L64 12L63 12L63 10L61 10L61 9L62 9L62 8L61 8L61 6L60 6L60 8L61 8L61 9L59 9L59 10L58 10L58 8L57 8L57 9L56 9L56 8L55 8L55 6L56 6L56 7L57 7L57 6L58 6L58 7L59 7L59 4L55 4L55 3L59 3L59 2L58 2L58 1L61 1L61 0L57 0L57 2L55 2L55 1L56 1L56 0L53 0L53 1L52 1L52 0L51 0L51 1L50 1L50 0L49 0L49 1L48 1L48 0L47 0L47 3L48 3L48 4L49 4L49 6L48 6L48 7L47 7L47 6L46 6L46 5L44 5L44 3L45 3L45 4L46 4L46 3L45 3L45 2L46 2L46 1L45 1L45 0L44 0L44 1L45 1L45 2L44 2L44 3L43 3L43 0L41 0L41 1L36 1L36 0L35 0L35 1L33 1L33 2L32 2L32 1L31 1L31 2L32 2L32 3L29 3L29 1L30 1L30 0L28 0L28 1L27 1L27 2L28 2L28 3L27 3L27 4L28 4L28 3L29 3L29 4L30 4L30 5L28 5L28 7L29 7L29 6L30 6L30 7L31 7L31 6L30 6L30 5L32 5L32 8L31 8L31 9L30 9L30 8L29 8L29 9L30 9L30 11L32 11L32 10L33 10L33 11L34 11L34 10L35 10L35 11L36 11L36 10L38 10L38 11L37 11L37 14L35 14L35 15L37 15L37 14L38 14L38 13L39 13L39 14L40 14L40 15L39 15L39 16L38 16L38 17L36 17L36 18L34 18L34 17L32 17L32 15L33 15L33 16L34 16L34 15L33 15L33 14L34 14L34 13L36 13L36 12L33 12L33 14L32 14L32 15L31 15L31 13L32 13L32 12L28 12L28 10L25 10L25 12L24 12L24 11L22 11L22 10L21 10L21 12L20 12L20 11L19 11L19 10L20 10L20 9L19 9L19 8L18 8L18 7L19 7L19 6L20 6L20 8L21 8L21 9L22 9L22 8L21 8L21 6L22 6L22 7L23 7L23 8L24 8L24 9L23 9L23 10L24 10L24 9L26 9L26 8L27 8L27 6L26 6L26 8L25 8L25 4L26 4L26 3L25 3L25 2L26 2L26 1L25 1L25 0L21 0L21 3L17 3L17 4L18 4L18 5L17 5L17 6L16 6L16 4L15 4L15 3L16 3L16 2L18 2L18 1L19 1L19 2L20 2L20 1L19 1L19 0L17 0L17 1L16 1L16 2L15 2L15 1L14 1L14 0ZM10 1L10 2L11 2L11 4L12 4L12 1ZM23 1L23 2L24 2L24 1ZM35 1L35 2L33 2L33 3L32 3L32 4L33 4L33 3L36 3L36 4L37 4L37 5L38 5L38 6L37 6L37 7L38 7L38 8L37 8L37 9L38 9L38 10L40 10L40 12L39 12L39 13L40 13L40 12L41 12L41 14L42 14L42 15L40 15L40 16L39 16L39 17L38 17L38 18L37 18L37 19L34 19L34 18L32 18L32 17L31 17L31 19L29 19L29 18L30 18L30 17L29 17L29 16L27 16L27 14L28 14L28 15L30 15L30 14L29 14L29 13L27 13L27 11L26 11L26 12L25 12L25 13L27 13L27 14L25 14L25 15L26 15L26 16L25 16L25 17L26 17L26 19L28 19L28 21L27 21L27 20L23 20L23 19L24 19L24 18L23 18L23 16L22 16L22 15L24 15L24 14L23 14L23 13L24 13L24 12L21 12L21 13L20 13L20 12L19 12L19 11L18 11L18 10L16 10L16 8L17 8L17 7L18 7L18 6L19 6L19 5L20 5L20 6L21 6L21 4L23 4L23 5L22 5L22 6L23 6L23 7L24 7L24 4L25 4L25 3L24 3L24 4L23 4L23 3L21 3L21 4L19 4L19 5L18 5L18 6L17 6L17 7L16 7L16 6L15 6L15 4L14 4L14 3L15 3L15 2L13 2L13 4L14 4L14 5L13 5L13 7L14 7L14 6L15 6L15 11L14 11L14 10L13 10L13 12L14 12L14 13L15 13L15 12L17 12L17 11L18 11L18 12L19 12L19 13L20 13L20 14L18 14L18 13L17 13L17 14L13 14L13 13L12 13L12 14L11 14L11 15L10 15L10 14L9 14L9 13L11 13L11 12L8 12L8 9L6 9L6 10L7 10L7 11L5 11L5 14L9 14L9 15L10 15L10 16L9 16L9 17L10 17L10 18L9 18L9 19L10 19L10 20L7 20L7 19L8 19L8 18L7 18L7 19L6 19L6 20L4 20L4 21L6 21L6 22L5 22L5 23L6 23L6 24L8 24L8 25L10 25L10 26L9 26L9 27L6 27L6 26L7 26L7 25L5 25L5 27L3 27L3 28L9 28L9 29L8 29L8 30L7 30L7 29L6 29L6 30L5 30L5 31L6 31L6 32L8 32L8 30L9 30L9 29L11 29L11 32L10 32L10 31L9 31L9 33L11 33L11 32L12 32L12 33L13 33L13 34L11 34L11 36L10 36L10 37L8 37L8 38L7 38L7 37L6 37L6 38L7 38L7 39L5 39L5 41L4 41L4 44L5 44L5 43L6 43L6 44L7 44L7 45L6 45L6 46L7 46L7 47L5 47L5 50L3 50L3 52L1 52L1 53L3 53L3 52L4 52L4 51L5 51L5 50L8 50L8 49L6 49L6 48L10 48L10 49L9 49L9 50L10 50L10 51L11 51L11 52L10 52L10 53L11 53L11 52L12 52L12 51L11 51L11 50L10 50L10 49L11 49L11 48L10 48L10 47L8 47L8 46L11 46L11 45L13 45L13 49L12 49L12 50L13 50L13 49L14 49L14 52L18 52L18 51L15 51L15 50L18 50L18 49L21 49L21 50L22 50L22 51L23 51L23 50L22 50L22 49L26 49L26 50L25 50L25 51L26 51L26 53L25 53L25 52L24 52L24 53L23 53L23 52L20 52L20 55L22 55L22 54L24 54L24 53L25 53L25 54L26 54L26 55L25 55L25 56L26 56L26 57L25 57L25 58L26 58L26 59L25 59L25 60L26 60L26 61L25 61L25 62L28 62L28 63L27 63L27 64L28 64L28 65L25 65L25 66L28 66L28 65L29 65L29 66L30 66L30 65L29 65L29 64L31 64L31 63L32 63L32 61L31 61L31 63L29 63L29 61L27 61L27 60L28 60L28 59L27 59L27 58L29 58L29 57L30 57L30 56L29 56L29 55L30 55L30 54L29 54L29 53L27 53L27 51L28 51L28 52L31 52L31 57L32 57L32 58L30 58L30 59L29 59L29 60L30 60L30 59L31 59L31 60L32 60L32 58L33 58L33 57L34 57L34 58L35 58L35 59L33 59L33 60L35 60L35 59L37 59L37 56L38 56L38 59L39 59L39 57L41 57L41 56L38 56L38 55L40 55L40 53L42 53L42 52L41 52L41 51L42 51L42 50L41 50L41 49L42 49L42 48L43 48L43 47L44 47L44 49L43 49L43 50L44 50L44 49L45 49L45 52L44 52L44 51L43 51L43 52L44 52L44 53L43 53L43 54L41 54L41 55L43 55L43 56L42 56L42 57L43 57L43 60L42 60L42 58L41 58L41 59L40 59L40 62L39 62L39 61L38 61L38 62L37 62L37 64L38 64L38 65L37 65L37 66L39 66L39 67L40 67L40 66L41 66L41 67L42 67L42 68L44 68L44 66L45 66L45 67L46 67L46 66L47 66L47 67L48 67L48 68L51 68L51 65L50 65L50 67L48 67L48 65L47 65L47 64L48 64L48 63L52 63L52 62L53 62L53 63L57 63L57 64L58 64L58 62L60 62L60 60L65 60L65 61L66 61L66 60L65 60L65 56L63 56L63 58L62 58L62 57L61 57L61 58L59 58L59 57L60 57L60 56L59 56L59 55L56 55L56 53L55 53L55 52L54 52L54 53L55 53L55 54L54 54L54 55L53 55L53 56L52 56L52 53L53 53L53 51L52 51L52 52L51 52L51 53L50 53L50 54L51 54L51 55L49 55L49 56L50 56L50 57L46 57L46 56L48 56L48 54L47 54L47 53L45 53L45 52L46 52L46 51L47 51L47 50L49 50L49 49L47 49L47 48L48 48L48 47L50 47L50 46L47 46L47 45L46 45L46 44L47 44L47 43L46 43L46 42L47 42L47 40L48 40L48 39L47 39L47 40L45 40L45 39L43 39L43 38L42 38L42 39L41 39L41 35L43 35L43 36L44 36L44 37L45 37L45 38L48 38L48 37L45 37L45 36L47 36L47 34L48 34L48 33L46 33L46 32L47 32L47 29L46 29L46 27L47 27L47 28L49 28L49 29L48 29L48 30L49 30L49 31L50 31L50 32L49 32L49 33L50 33L50 32L51 32L51 29L53 29L53 27L55 27L55 28L54 28L54 29L55 29L55 31L56 31L56 33L55 33L55 34L60 34L60 32L59 32L59 31L60 31L60 30L59 30L59 29L58 29L58 30L57 30L57 31L56 31L56 29L57 29L57 28L58 28L58 26L59 26L59 25L60 25L60 24L62 24L62 23L63 23L63 22L64 22L64 21L65 21L65 20L66 20L66 19L65 19L65 18L63 18L63 19L62 19L62 18L61 18L61 19L60 19L60 18L59 18L59 16L62 16L62 14L59 14L59 13L61 13L61 12L62 12L62 11L61 11L61 10L59 10L59 11L60 11L60 12L59 12L59 13L57 13L57 12L56 12L56 13L57 13L57 14L58 14L58 15L59 15L59 16L56 16L56 14L54 14L54 15L55 15L55 16L54 16L54 17L55 17L55 18L53 18L53 19L54 19L54 20L55 20L55 19L56 19L56 22L53 22L53 23L51 23L51 21L53 21L53 20L51 20L51 17L53 17L53 13L54 13L54 11L53 11L53 10L51 10L51 8L52 8L52 9L53 9L53 8L54 8L54 9L55 9L55 10L56 10L56 11L58 11L58 10L56 10L56 9L55 9L55 8L54 8L54 5L53 5L53 4L54 4L54 3L55 3L55 2L52 2L52 1L51 1L51 2L52 2L52 3L50 3L50 1L49 1L49 2L48 2L48 3L49 3L49 4L50 4L50 5L51 5L51 7L50 7L50 6L49 6L49 10L47 10L47 7L46 7L46 6L45 6L45 7L44 7L44 5L43 5L43 7L42 7L42 6L41 6L41 4L43 4L43 3L41 3L41 2L42 2L42 1L41 1L41 2L40 2L40 3L39 3L39 2L37 2L37 3L36 3L36 1ZM37 3L37 4L38 4L38 3ZM60 3L60 5L61 5L61 3ZM39 4L39 5L40 5L40 4ZM33 5L33 8L36 8L36 5ZM52 5L52 8L53 8L53 5ZM56 5L56 6L57 6L57 5ZM10 6L10 7L11 7L11 6ZM34 6L34 7L35 7L35 6ZM38 6L38 7L39 7L39 6ZM40 6L40 7L41 7L41 6ZM45 7L45 9L44 9L44 8L43 8L43 9L41 9L41 12L42 12L42 10L45 10L45 9L46 9L46 7ZM13 8L13 9L14 9L14 8ZM38 8L38 9L39 9L39 8ZM31 9L31 10L32 10L32 9ZM33 9L33 10L34 10L34 9ZM35 9L35 10L36 10L36 9ZM49 10L49 12L46 12L46 11L45 11L45 13L44 13L44 12L43 12L43 13L42 13L42 14L43 14L43 15L44 15L44 16L42 16L42 17L41 17L41 18L39 18L39 19L37 19L37 20L35 20L35 21L36 21L36 22L34 22L34 20L33 20L33 22L32 22L32 19L31 19L31 20L29 20L29 21L31 21L31 22L30 22L30 23L29 23L29 22L27 22L27 21L23 21L23 22L22 22L22 23L20 23L20 20L22 20L22 19L23 19L23 18L22 18L22 17L18 17L18 16L17 16L17 15L18 15L18 14L17 14L17 15L14 15L14 16L13 16L13 18L14 18L14 16L16 16L16 19L14 19L14 20L15 20L15 21L13 21L13 22L10 22L10 21L11 21L11 20L13 20L13 19L12 19L12 18L10 18L10 19L11 19L11 20L10 20L10 21L8 21L8 22L6 22L6 23L8 23L8 24L9 24L9 22L10 22L10 23L11 23L11 26L12 26L12 28L11 28L11 29L12 29L12 28L13 28L13 30L12 30L12 31L13 31L13 32L14 32L14 33L15 33L15 32L14 32L14 31L13 31L13 30L14 30L14 28L13 28L13 27L16 27L16 28L15 28L15 29L16 29L16 28L18 28L18 29L17 29L17 30L16 30L16 31L17 31L17 32L18 32L18 33L17 33L17 34L15 34L15 35L13 35L13 36L12 36L12 38L11 38L11 37L10 37L10 38L9 38L9 39L8 39L8 41L7 41L7 40L6 40L6 41L7 41L7 42L6 42L6 43L7 43L7 42L8 42L8 41L9 41L9 43L8 43L8 45L10 45L10 43L11 43L11 44L13 44L13 41L14 41L14 42L16 42L16 41L14 41L14 40L18 40L18 41L17 41L17 42L18 42L18 43L19 43L19 44L17 44L17 45L18 45L18 46L15 46L15 44L16 44L16 43L15 43L15 44L14 44L14 47L15 47L15 48L14 48L14 49L15 49L15 48L17 48L17 49L18 49L18 48L17 48L17 47L18 47L18 46L20 46L20 47L21 47L21 49L22 49L22 47L23 47L23 48L24 48L24 47L25 47L25 48L26 48L26 47L25 47L25 46L26 46L26 43L28 43L28 42L26 42L26 43L25 43L25 44L24 44L24 43L23 43L23 44L24 44L24 45L23 45L23 46L20 46L20 45L21 45L21 43L20 43L20 40L21 40L21 41L22 41L22 40L21 40L21 39L22 39L22 38L23 38L23 40L24 40L24 41L23 41L23 42L24 42L24 41L26 41L26 40L25 40L25 37L26 37L26 39L28 39L28 40L27 40L27 41L28 41L28 40L29 40L29 41L30 41L30 42L31 42L31 41L30 41L30 40L29 40L29 39L30 39L30 38L31 38L31 35L29 35L29 34L30 34L30 33L32 33L32 43L33 43L33 44L32 44L32 45L34 45L34 47L35 47L35 48L36 48L36 47L37 47L37 46L38 46L38 47L39 47L39 48L38 48L38 49L37 49L37 50L36 50L36 49L35 49L35 54L36 54L36 55L34 55L34 54L33 54L33 53L34 53L34 52L33 52L33 51L34 51L34 50L32 50L32 49L33 49L33 48L32 48L32 49L31 49L31 43L30 43L30 44L28 44L28 45L30 45L30 47L28 47L28 46L27 46L27 47L28 47L28 48L29 48L29 50L32 50L32 54L33 54L33 55L32 55L32 57L33 57L33 55L34 55L34 56L35 56L35 58L36 58L36 56L37 56L37 54L39 54L39 51L41 51L41 50L39 50L39 51L38 51L38 49L39 49L39 48L40 48L40 47L41 47L41 48L42 48L42 46L45 46L45 49L46 49L46 47L47 47L47 46L45 46L45 45L44 45L44 44L43 44L43 42L44 42L44 43L45 43L45 42L44 42L44 40L41 40L41 39L38 39L38 38L34 38L34 37L38 37L38 36L37 36L37 35L39 35L39 34L37 34L37 32L38 32L38 33L39 33L39 32L43 32L43 33L40 33L40 35L41 35L41 34L43 34L43 33L44 33L44 36L45 36L45 33L44 33L44 32L46 32L46 30L44 30L44 32L43 32L43 31L40 31L40 30L35 30L35 29L34 29L34 28L33 28L33 27L34 27L34 26L36 26L36 27L35 27L35 28L36 28L36 29L38 29L38 27L37 27L37 26L38 26L38 25L35 25L35 24L37 24L37 22L41 22L41 24L42 24L42 25L41 25L41 26L39 26L39 27L42 27L42 30L43 30L43 29L44 29L44 28L43 28L43 27L46 27L46 26L43 26L43 25L44 25L44 24L43 24L43 22L44 22L44 23L45 23L45 24L46 24L46 25L47 25L47 27L49 27L49 28L50 28L50 27L51 27L51 26L50 26L50 25L49 25L49 24L48 24L48 23L50 23L50 19L47 19L47 18L46 18L46 17L49 17L49 18L50 18L50 17L51 17L51 16L52 16L52 15L51 15L51 16L50 16L50 17L49 17L49 15L50 15L50 12L51 12L51 10ZM0 11L0 13L1 13L1 12L2 12L2 11ZM52 11L52 12L53 12L53 11ZM6 12L6 13L8 13L8 12ZM43 13L43 14L44 14L44 13ZM45 13L45 14L46 14L46 15L49 15L49 14L47 14L47 13ZM1 14L1 15L0 15L0 16L3 16L3 14ZM20 14L20 15L19 15L19 16L20 16L20 15L22 15L22 14ZM6 15L6 16L8 16L8 15ZM10 16L10 17L12 17L12 16ZM44 16L44 17L43 17L43 19L41 19L41 20L40 20L40 19L39 19L39 21L43 21L43 20L44 20L44 22L46 22L46 24L47 24L47 25L48 25L48 24L47 24L47 22L49 22L49 21L46 21L46 20L47 20L47 19L46 19L46 18L45 18L45 16ZM55 16L55 17L56 17L56 19L58 19L58 20L57 20L57 21L60 21L60 22L57 22L57 25L56 25L56 23L53 23L53 24L54 24L54 25L52 25L52 26L55 26L55 25L56 25L56 28L55 28L55 29L56 29L56 28L57 28L57 26L58 26L58 25L59 25L59 24L60 24L60 23L62 23L62 21L60 21L60 19L59 19L59 18L57 18L57 17L56 17L56 16ZM17 17L17 18L18 18L18 17ZM27 17L27 18L28 18L28 17ZM66 17L66 18L67 18L67 17ZM19 18L19 19L20 19L20 18ZM21 18L21 19L22 19L22 18ZM44 18L44 19L45 19L45 18ZM0 19L0 20L1 20L1 19ZM16 19L16 21L18 21L18 22L19 22L19 21L18 21L18 20L17 20L17 19ZM6 20L6 21L7 21L7 20ZM37 20L37 21L38 21L38 20ZM14 22L14 23L13 23L13 24L12 24L12 26L14 26L14 23L15 23L15 24L16 24L16 25L15 25L15 26L16 26L16 25L17 25L17 23L16 23L16 22ZM23 22L23 23L24 23L24 22ZM31 22L31 23L32 23L32 24L31 24L31 25L32 25L32 26L31 26L31 27L30 27L30 28L31 28L31 29L29 29L29 27L27 27L27 26L29 26L29 25L30 25L30 24L29 24L29 25L28 25L28 24L27 24L27 23L26 23L26 25L25 25L25 28L26 28L26 30L28 30L28 33L25 33L25 32L26 32L26 31L24 31L24 32L22 32L22 31L23 31L23 30L22 30L22 29L23 29L23 28L24 28L24 27L23 27L23 26L24 26L24 25L22 25L22 24L19 24L19 23L18 23L18 24L19 24L19 25L20 25L20 26L18 26L18 27L19 27L19 28L20 28L20 30L21 30L21 32L20 32L20 33L19 33L19 34L20 34L20 35L19 35L19 37L20 37L20 38L19 38L19 40L20 40L20 38L22 38L22 37L24 37L24 36L25 36L25 35L26 35L26 37L27 37L27 38L28 38L28 39L29 39L29 36L28 36L28 35L26 35L26 34L28 34L28 33L30 33L30 32L31 32L31 29L32 29L32 28L31 28L31 27L33 27L33 25L34 25L34 24L35 24L35 23L34 23L34 24L33 24L33 23L32 23L32 22ZM38 23L38 24L39 24L39 23ZM58 23L58 24L59 24L59 23ZM32 24L32 25L33 25L33 24ZM21 25L21 26L20 26L20 27L21 27L21 29L22 29L22 28L23 28L23 27L22 27L22 25ZM26 27L26 28L27 28L27 29L28 29L28 28L27 28L27 27ZM39 28L39 29L40 29L40 28ZM18 29L18 30L17 30L17 31L18 31L18 30L19 30L19 29ZM33 29L33 30L32 30L32 32L34 32L34 31L33 31L33 30L34 30L34 29ZM49 29L49 30L50 30L50 29ZM6 30L6 31L7 31L7 30ZM29 30L29 31L30 31L30 30ZM58 30L58 31L57 31L57 32L58 32L58 31L59 31L59 30ZM67 31L67 32L66 32L66 33L65 33L65 34L66 34L66 33L67 33L67 34L68 34L68 31ZM2 33L2 35L1 35L1 36L2 36L2 35L3 35L3 34L4 34L4 33ZM5 33L5 36L8 36L8 33ZM22 33L22 34L21 34L21 35L23 35L23 36L24 36L24 35L25 35L25 33ZM33 33L33 36L36 36L36 33ZM61 33L61 36L64 36L64 33ZM6 34L6 35L7 35L7 34ZM23 34L23 35L24 35L24 34ZM34 34L34 35L35 35L35 34ZM62 34L62 35L63 35L63 34ZM15 35L15 38L17 38L17 39L18 39L18 38L17 38L17 36L18 36L18 35ZM59 35L59 37L60 37L60 38L62 38L62 39L65 39L65 37L67 37L67 36L68 36L68 35L67 35L67 36L65 36L65 37L64 37L64 38L62 38L62 37L60 37L60 35ZM3 36L3 37L2 37L2 41L1 41L1 42L3 42L3 40L4 40L4 38L3 38L3 37L4 37L4 36ZM20 36L20 37L22 37L22 36ZM10 38L10 39L9 39L9 40L10 40L10 42L11 42L11 38ZM33 38L33 39L34 39L34 38ZM13 39L13 40L14 40L14 39ZM49 39L49 40L50 40L50 39ZM52 39L52 40L53 40L53 39ZM33 40L33 42L34 42L34 45L35 45L35 47L36 47L36 46L37 46L37 45L36 45L36 44L35 44L35 43L37 43L37 42L34 42L34 41L36 41L36 40ZM37 40L37 41L38 41L38 46L39 46L39 47L40 47L40 46L39 46L39 45L40 45L40 44L41 44L41 43L40 43L40 41L41 41L41 40L39 40L39 41L38 41L38 40ZM56 40L56 41L57 41L57 40ZM62 40L62 41L64 41L64 40ZM67 40L67 42L66 42L66 43L67 43L67 42L68 42L68 40ZM18 41L18 42L19 42L19 41ZM49 42L49 43L48 43L48 44L49 44L49 45L50 45L50 44L49 44L49 43L50 43L50 42ZM1 43L1 45L2 45L2 44L3 44L3 43ZM39 43L39 44L40 44L40 43ZM19 44L19 45L20 45L20 44ZM3 45L3 46L2 46L2 47L3 47L3 48L4 48L4 47L3 47L3 46L4 46L4 45ZM41 45L41 46L42 46L42 45ZM32 46L32 47L33 47L33 46ZM62 48L62 49L63 49L63 48ZM27 49L27 50L28 50L28 49ZM19 50L19 51L20 51L20 50ZM59 50L59 51L60 51L60 50ZM65 50L65 51L66 51L66 50ZM37 52L37 53L38 53L38 52ZM58 52L58 53L59 53L59 52ZM60 52L60 54L61 54L61 52ZM21 53L21 54L22 54L22 53ZM44 53L44 56L43 56L43 57L44 57L44 56L46 56L46 54L45 54L45 53ZM27 54L27 55L26 55L26 56L27 56L27 57L29 57L29 56L27 56L27 55L29 55L29 54ZM2 55L2 56L1 56L1 57L3 57L3 56L4 56L4 55ZM6 55L6 56L7 56L7 55ZM55 55L55 56L54 56L54 57L52 57L52 56L51 56L51 57L52 57L52 58L53 58L53 60L54 60L54 58L56 58L56 59L55 59L55 61L53 61L53 62L55 62L55 61L56 61L56 62L58 62L58 61L56 61L56 59L59 59L59 58L56 58L56 55ZM67 55L67 56L66 56L66 58L68 58L68 57L67 57L67 56L68 56L68 55ZM19 56L19 57L17 57L17 59L20 59L20 58L21 58L21 57L22 57L22 56L21 56L21 57L20 57L20 56ZM57 56L57 57L59 57L59 56ZM5 57L5 58L7 58L7 57ZM19 57L19 58L20 58L20 57ZM0 58L0 61L1 61L1 58ZM2 58L2 59L3 59L3 58ZM45 58L45 59L44 59L44 60L43 60L43 61L42 61L42 60L41 60L41 62L42 62L42 63L43 63L43 62L44 62L44 64L41 64L41 63L39 63L39 64L41 64L41 66L44 66L44 64L45 64L45 66L46 66L46 64L45 64L45 63L46 63L46 62L44 62L44 60L45 60L45 61L46 61L46 60L47 60L47 62L50 62L50 60L51 60L51 58L48 58L48 59L50 59L50 60L47 60L47 59L46 59L46 58ZM61 58L61 59L62 59L62 58ZM63 58L63 59L64 59L64 58ZM45 59L45 60L46 60L46 59ZM3 60L3 61L5 61L5 60ZM6 60L6 61L8 61L8 63L9 63L9 61L8 61L8 60ZM13 60L13 61L14 61L14 63L13 63L13 64L10 64L10 65L9 65L9 64L8 64L8 69L9 69L9 66L10 66L10 65L11 65L11 67L12 67L12 68L11 68L11 69L13 69L13 67L12 67L12 65L13 65L13 66L14 66L14 65L16 65L16 64L15 64L15 60ZM18 61L18 62L17 62L17 63L18 63L18 62L19 62L19 61ZM21 61L21 62L22 62L22 61ZM33 61L33 64L36 64L36 61ZM51 61L51 62L52 62L52 61ZM61 61L61 64L64 64L64 61ZM34 62L34 63L35 63L35 62ZM62 62L62 63L63 63L63 62ZM65 62L65 63L66 63L66 62ZM25 63L25 64L26 64L26 63ZM59 63L59 65L57 65L57 66L60 66L60 63ZM13 64L13 65L14 65L14 64ZM31 65L31 66L32 66L32 65ZM62 65L62 66L61 66L61 68L64 68L64 67L63 67L63 66L64 66L64 65ZM25 67L25 68L26 68L26 67ZM27 67L27 68L28 68L28 67ZM29 67L29 68L30 68L30 67ZM33 68L33 69L34 69L34 68ZM0 0L0 7L7 7L7 0ZM1 1L1 6L6 6L6 1ZM2 2L2 5L5 5L5 2ZM62 0L62 7L69 7L69 0ZM63 1L63 6L68 6L68 1ZM64 2L64 5L67 5L67 2ZM0 62L0 69L7 69L7 62ZM1 63L1 68L6 68L6 63ZM2 64L2 67L5 67L5 64Z" fill="#000000"/></g></g></svg>
