<?xml version="1.0" encoding="UTF-8"?>
<svg xmlns="http://www.w3.org/2000/svg" version="1.1" width="300" height="300" viewBox="0 0 300 300"><rect x="0" y="0" width="300" height="300" fill="#ffffff"/><g transform="scale(4.348)"><g transform="translate(0,0)"><path fill-rule="evenodd" d="M8 0L8 4L9 4L9 5L8 5L8 7L9 7L9 8L10 8L10 7L11 7L11 6L12 6L12 8L11 8L11 9L13 9L13 6L12 6L12 5L14 5L14 4L13 4L13 3L11 3L11 2L10 2L10 1L11 1L11 0L10 0L10 1L9 1L9 0ZM12 0L12 2L13 2L13 1L14 1L14 2L15 2L15 1L14 1L14 0ZM16 0L16 3L15 3L15 4L16 4L16 5L15 5L15 6L14 6L14 7L15 7L15 6L16 6L16 9L19 9L19 8L20 8L20 11L18 11L18 12L17 12L17 13L18 13L18 15L17 15L17 14L16 14L16 13L15 13L15 12L16 12L16 11L15 11L15 12L14 12L14 11L11 11L11 12L10 12L10 11L8 11L8 9L7 9L7 8L4 8L4 9L3 9L3 10L2 10L2 8L0 8L0 9L1 9L1 10L0 10L0 14L4 14L4 13L5 13L5 15L4 15L4 16L3 16L3 19L4 19L4 21L5 21L5 22L3 22L3 21L1 21L1 24L2 24L2 22L3 22L3 24L4 24L4 25L3 25L3 26L2 26L2 27L3 27L3 28L4 28L4 30L3 30L3 29L2 29L2 30L0 30L0 31L3 31L3 32L2 32L2 34L0 34L0 38L4 38L4 40L5 40L5 41L3 41L3 39L2 39L2 40L0 40L0 42L1 42L1 43L0 43L0 46L1 46L1 45L3 45L3 47L2 47L2 48L1 48L1 47L0 47L0 51L1 51L1 49L4 49L4 45L3 45L3 44L5 44L5 46L6 46L6 47L7 47L7 48L6 48L6 49L7 49L7 50L6 50L6 51L5 51L5 50L4 50L4 52L3 52L3 53L4 53L4 54L3 54L3 55L4 55L4 54L5 54L5 52L6 52L6 53L7 53L7 52L6 52L6 51L7 51L7 50L8 50L8 54L9 54L9 55L7 55L7 54L6 54L6 55L5 55L5 57L4 57L4 56L2 56L2 55L1 55L1 52L0 52L0 61L1 61L1 58L2 58L2 59L3 59L3 58L4 58L4 59L7 59L7 60L6 60L6 61L8 61L8 62L12 62L12 66L13 66L13 67L11 67L11 68L10 68L10 67L8 67L8 69L11 69L11 68L13 68L13 69L19 69L19 68L16 68L16 67L17 67L17 66L19 66L19 67L20 67L20 66L21 66L21 65L22 65L22 68L23 68L23 66L25 66L25 68L24 68L24 69L25 69L25 68L26 68L26 69L28 69L28 68L26 68L26 66L27 66L27 67L28 67L28 66L29 66L29 69L31 69L31 68L32 68L32 69L33 69L33 68L34 68L34 69L35 69L35 68L34 68L34 65L35 65L35 66L36 66L36 65L37 65L37 64L38 64L38 66L37 66L37 67L39 67L39 66L40 66L40 63L41 63L41 67L40 67L40 68L38 68L38 69L40 69L40 68L41 68L41 69L42 69L42 67L43 67L43 63L42 63L42 62L44 62L44 69L46 69L46 67L45 67L45 63L46 63L46 64L47 64L47 65L50 65L50 66L49 66L49 67L48 67L48 66L47 66L47 67L48 67L48 69L49 69L49 67L50 67L50 69L52 69L52 68L53 68L53 69L55 69L55 67L56 67L56 66L57 66L57 68L56 68L56 69L57 69L57 68L58 68L58 69L59 69L59 68L60 68L60 67L59 67L59 68L58 68L58 65L59 65L59 66L61 66L61 69L63 69L63 68L62 68L62 67L63 67L63 66L64 66L64 69L65 69L65 63L66 63L66 62L67 62L67 61L69 61L69 59L68 59L68 56L69 56L69 55L68 55L68 53L69 53L69 52L68 52L68 50L67 50L67 49L69 49L69 47L68 47L68 46L67 46L67 44L68 44L68 45L69 45L69 44L68 44L68 41L66 41L66 43L67 43L67 44L66 44L66 46L65 46L65 47L66 47L66 46L67 46L67 47L68 47L68 48L67 48L67 49L65 49L65 54L64 54L64 53L62 53L62 52L63 52L63 51L62 51L62 50L64 50L64 45L65 45L65 42L64 42L64 41L65 41L65 40L64 40L64 39L65 39L65 38L64 38L64 39L62 39L62 37L66 37L66 39L67 39L67 40L68 40L68 38L69 38L69 35L68 35L68 33L69 33L69 31L68 31L68 30L65 30L65 29L66 29L66 27L65 27L65 26L67 26L67 29L68 29L68 28L69 28L69 27L68 27L68 26L67 26L67 25L64 25L64 24L65 24L65 23L62 23L62 22L64 22L64 20L65 20L65 22L66 22L66 23L68 23L68 24L69 24L69 23L68 23L68 22L67 22L67 20L68 20L68 21L69 21L69 20L68 20L68 18L67 18L67 17L68 17L68 16L66 16L66 17L64 17L64 16L65 16L65 13L64 13L64 12L65 12L65 11L68 11L68 10L69 10L69 8L65 8L65 9L64 9L64 8L63 8L63 9L62 9L62 10L64 10L64 11L61 11L61 9L59 9L59 11L60 11L60 12L63 12L63 13L62 13L62 14L61 14L61 13L59 13L59 12L58 12L58 8L59 8L59 4L56 4L56 3L54 3L54 1L55 1L55 2L57 2L57 3L59 3L59 2L58 2L58 1L61 1L61 0L57 0L57 1L56 1L56 0L54 0L54 1L53 1L53 2L52 2L52 1L51 1L51 0L50 0L50 3L52 3L52 4L50 4L50 5L49 5L49 4L48 4L48 5L49 5L49 6L48 6L48 7L49 7L49 8L47 8L47 6L46 6L46 7L45 7L45 6L44 6L44 5L46 5L46 4L47 4L47 2L48 2L48 3L49 3L49 2L48 2L48 1L49 1L49 0L48 0L48 1L46 1L46 0L45 0L45 1L44 1L44 0L41 0L41 1L40 1L40 0L35 0L35 2L34 2L34 3L33 3L33 1L34 1L34 0L32 0L32 1L31 1L31 2L29 2L29 1L30 1L30 0L23 0L23 1L24 1L24 2L23 2L23 3L22 3L22 0ZM17 1L17 2L19 2L19 3L16 3L16 4L17 4L17 8L18 8L18 4L19 4L19 7L20 7L20 8L21 8L21 9L22 9L22 13L21 13L21 12L20 12L20 13L19 13L19 14L20 14L20 16L22 16L22 18L21 18L21 17L19 17L19 16L18 16L18 17L17 17L17 15L15 15L15 13L13 13L13 12L12 12L12 13L11 13L11 14L10 14L10 13L9 13L9 12L8 12L8 11L6 11L6 10L7 10L7 9L4 9L4 10L5 10L5 11L4 11L4 12L5 12L5 13L6 13L6 14L8 14L8 15L6 15L6 16L4 16L4 17L6 17L6 18L7 18L7 17L6 17L6 16L10 16L10 15L12 15L12 16L11 16L11 18L12 18L12 19L14 19L14 18L17 18L17 19L15 19L15 20L14 20L14 21L13 21L13 22L12 22L12 21L11 21L11 19L10 19L10 20L9 20L9 21L8 21L8 20L7 20L7 19L6 19L6 20L5 20L5 21L6 21L6 22L7 22L7 23L6 23L6 24L7 24L7 25L4 25L4 26L9 26L9 27L8 27L8 28L10 28L10 29L9 29L9 31L6 31L6 30L7 30L7 29L6 29L6 28L7 28L7 27L6 27L6 28L5 28L5 30L4 30L4 32L3 32L3 34L2 34L2 35L1 35L1 37L2 37L2 35L3 35L3 36L4 36L4 35L3 35L3 34L4 34L4 32L10 32L10 33L11 33L11 34L10 34L10 39L6 39L6 40L8 40L8 41L9 41L9 40L10 40L10 41L11 41L11 42L10 42L10 43L12 43L12 42L13 42L13 43L14 43L14 45L16 45L16 47L15 47L15 46L13 46L13 47L12 47L12 46L11 46L11 47L12 47L12 48L9 48L9 47L10 47L10 45L9 45L9 44L8 44L8 45L9 45L9 46L8 46L8 48L7 48L7 49L8 49L8 48L9 48L9 52L10 52L10 54L11 54L11 56L10 56L10 57L9 57L9 56L7 56L7 55L6 55L6 56L7 56L7 57L6 57L6 58L7 58L7 59L8 59L8 61L10 61L10 59L12 59L12 62L13 62L13 60L14 60L14 61L16 61L16 62L18 62L18 63L16 63L16 66L15 66L15 65L14 65L14 63L15 63L15 62L14 62L14 63L13 63L13 66L15 66L15 67L13 67L13 68L15 68L15 67L16 67L16 66L17 66L17 65L18 65L18 64L19 64L19 65L20 65L20 64L22 64L22 65L24 65L24 64L25 64L25 65L29 65L29 66L31 66L31 65L32 65L32 66L33 66L33 65L32 65L32 64L31 64L31 63L32 63L32 62L30 62L30 61L27 61L27 64L26 64L26 63L24 63L24 64L22 64L22 63L20 63L20 61L17 61L17 59L19 59L19 58L20 58L20 60L21 60L21 59L22 59L22 58L23 58L23 59L24 59L24 60L22 60L22 61L21 61L21 62L23 62L23 61L25 61L25 62L26 62L26 60L25 60L25 58L26 58L26 59L27 59L27 60L31 60L31 59L32 59L32 60L33 60L33 59L32 59L32 58L34 58L34 59L35 59L35 60L38 60L38 59L39 59L39 58L40 58L40 59L41 59L41 58L40 58L40 57L41 57L41 56L42 56L42 57L44 57L44 54L45 54L45 53L46 53L46 54L47 54L47 57L46 57L46 58L47 58L47 57L48 57L48 55L49 55L49 56L50 56L50 57L51 57L51 56L52 56L52 58L51 58L51 59L49 59L49 58L48 58L48 59L49 59L49 64L52 64L52 65L51 65L51 66L50 66L50 67L51 67L51 66L52 66L52 67L55 67L55 66L56 66L56 65L55 65L55 66L53 66L53 65L54 65L54 64L55 64L55 63L60 63L60 60L59 60L59 59L60 59L60 58L59 58L59 57L60 57L60 56L59 56L59 53L60 53L60 54L61 54L61 52L60 52L60 51L61 51L61 50L62 50L62 49L63 49L63 45L64 45L64 43L63 43L63 42L62 42L62 44L61 44L61 43L60 43L60 41L62 41L62 39L61 39L61 37L60 37L60 36L59 36L59 37L58 37L58 39L57 39L57 40L58 40L58 42L57 42L57 41L56 41L56 39L55 39L55 38L57 38L57 37L56 37L56 35L55 35L55 36L52 36L52 35L53 35L53 33L56 33L56 32L58 32L58 30L59 30L59 29L60 29L60 28L61 28L61 30L62 30L62 31L61 31L61 32L62 32L62 31L63 31L63 32L66 32L66 33L68 33L68 32L67 32L67 31L64 31L64 30L62 30L62 29L63 29L63 28L64 28L64 29L65 29L65 28L64 28L64 27L63 27L63 26L64 26L64 25L63 25L63 24L62 24L62 23L61 23L61 22L62 22L62 21L63 21L63 20L61 20L61 22L59 22L59 21L58 21L58 22L56 22L56 20L57 20L57 19L58 19L58 18L59 18L59 17L61 17L61 18L60 18L60 19L59 19L59 20L60 20L60 19L62 19L62 15L63 15L63 14L64 14L64 13L63 13L63 14L62 14L62 15L61 15L61 16L59 16L59 15L58 15L58 14L59 14L59 13L58 13L58 12L57 12L57 13L58 13L58 14L56 14L56 13L55 13L55 12L54 12L54 11L57 11L57 10L53 10L53 8L54 8L54 9L56 9L56 8L55 8L55 7L56 7L56 4L55 4L55 7L54 7L54 5L52 5L52 6L51 6L51 5L50 5L50 6L49 6L49 7L50 7L50 6L51 6L51 7L52 7L52 10L53 10L53 11L52 11L52 13L51 13L51 15L49 15L49 16L50 16L50 17L49 17L49 18L48 18L48 17L47 17L47 13L46 13L46 12L47 12L47 11L46 11L46 10L47 10L47 8L45 8L45 7L44 7L44 6L43 6L43 5L44 5L44 4L45 4L45 3L46 3L46 1L45 1L45 3L44 3L44 2L43 2L43 3L42 3L42 4L43 4L43 5L41 5L41 7L40 7L40 6L39 6L39 7L40 7L40 9L39 9L39 8L38 8L38 5L37 5L37 10L38 10L38 11L37 11L37 12L36 12L36 13L34 13L34 11L36 11L36 9L35 9L35 10L34 10L34 11L33 11L33 9L32 9L32 11L31 11L31 10L30 10L30 9L31 9L31 8L30 8L30 9L29 9L29 8L28 8L28 6L29 6L29 7L30 7L30 6L31 6L31 7L32 7L32 6L31 6L31 5L32 5L32 4L33 4L33 3L32 3L32 2L31 2L31 3L29 3L29 2L28 2L28 1L25 1L25 2L24 2L24 3L23 3L23 4L24 4L24 3L25 3L25 5L24 5L24 6L23 6L23 5L22 5L22 3L21 3L21 2L20 2L20 1ZM37 1L37 3L36 3L36 4L37 4L37 3L38 3L38 4L39 4L39 5L40 5L40 3L41 3L41 2L42 2L42 1L41 1L41 2L40 2L40 1ZM9 2L9 3L10 3L10 4L11 4L11 3L10 3L10 2ZM25 2L25 3L26 3L26 2ZM39 2L39 3L40 3L40 2ZM19 3L19 4L20 4L20 7L21 7L21 3ZM28 3L28 4L27 4L27 5L26 5L26 7L25 7L25 6L24 6L24 7L23 7L23 6L22 6L22 8L24 8L24 9L23 9L23 11L24 11L24 12L23 12L23 14L22 14L22 16L23 16L23 18L25 18L25 17L26 17L26 18L27 18L27 17L28 17L28 16L26 16L26 15L25 15L25 17L24 17L24 16L23 16L23 15L24 15L24 14L26 14L26 13L27 13L27 14L28 14L28 13L27 13L27 12L29 12L29 13L31 13L31 16L30 16L30 14L29 14L29 17L30 17L30 18L31 18L31 17L32 17L32 15L33 15L33 18L32 18L32 19L31 19L31 20L30 20L30 21L29 21L29 23L30 23L30 21L32 21L32 22L31 22L31 24L30 24L30 25L29 25L29 27L30 27L30 28L29 28L29 29L32 29L32 28L33 28L33 31L34 31L34 30L35 30L35 29L34 29L34 28L35 28L35 27L36 27L36 26L37 26L37 28L36 28L36 29L38 29L38 31L35 31L35 32L32 32L32 31L31 31L31 30L30 30L30 31L31 31L31 32L29 32L29 30L28 30L28 29L27 29L27 28L28 28L28 24L26 24L26 23L25 23L25 24L24 24L24 22L27 22L27 23L28 23L28 20L29 20L29 18L28 18L28 19L27 19L27 20L26 20L26 21L23 21L23 24L22 24L22 23L21 23L21 25L20 25L20 23L19 23L19 20L20 20L20 22L22 22L22 20L24 20L24 19L21 19L21 18L20 18L20 19L17 19L17 20L15 20L15 21L14 21L14 22L13 22L13 23L12 23L12 22L11 22L11 23L10 23L10 21L9 21L9 23L8 23L8 24L9 24L9 25L10 25L10 24L11 24L11 25L13 25L13 26L14 26L14 25L15 25L15 27L16 27L16 26L18 26L18 28L17 28L17 31L16 31L16 32L17 32L17 31L18 31L18 30L19 30L19 32L18 32L18 33L17 33L17 34L16 34L16 33L13 33L13 34L14 34L14 35L12 35L12 34L11 34L11 36L14 36L14 37L15 37L15 38L11 38L11 39L10 39L10 40L11 40L11 41L13 41L13 42L14 42L14 43L15 43L15 44L17 44L17 46L18 46L18 47L17 47L17 48L12 48L12 49L14 49L14 51L12 51L12 52L11 52L11 53L12 53L12 54L13 54L13 52L14 52L14 55L15 55L15 56L16 56L16 55L17 55L17 57L15 57L15 59L14 59L14 56L12 56L12 57L10 57L10 58L9 58L9 57L7 57L7 58L8 58L8 59L10 59L10 58L12 58L12 59L14 59L14 60L15 60L15 59L16 59L16 58L19 58L19 57L20 57L20 58L21 58L21 57L24 57L24 58L25 58L25 57L27 57L27 58L28 58L28 55L30 55L30 54L28 54L28 55L26 55L26 53L31 53L31 52L32 52L32 53L33 53L33 55L31 55L31 56L30 56L30 57L29 57L29 58L31 58L31 56L32 56L32 57L34 57L34 58L35 58L35 59L37 59L37 57L38 57L38 58L39 58L39 57L40 57L40 52L39 52L39 51L40 51L40 48L41 48L41 47L39 47L39 45L40 45L40 46L41 46L41 45L42 45L42 49L41 49L41 52L42 52L42 55L43 55L43 54L44 54L44 53L45 53L45 50L46 50L46 51L47 51L47 52L46 52L46 53L48 53L48 54L49 54L49 55L50 55L50 56L51 56L51 54L52 54L52 52L51 52L51 53L49 53L49 52L48 52L48 51L52 51L52 48L55 48L55 47L56 47L56 49L53 49L53 50L58 50L58 52L57 52L57 51L56 51L56 53L55 53L55 52L54 52L54 51L53 51L53 54L54 54L54 56L55 56L55 54L56 54L56 59L57 59L57 60L56 60L56 61L58 61L58 59L59 59L59 58L58 58L58 57L57 57L57 56L58 56L58 52L59 52L59 50L58 50L58 49L57 49L57 46L58 46L58 47L60 47L60 48L61 48L61 49L60 49L60 50L61 50L61 49L62 49L62 45L60 45L60 46L58 46L58 45L59 45L59 43L58 43L58 44L57 44L57 43L55 43L55 45L54 45L54 47L52 47L52 46L53 46L53 45L52 45L52 44L53 44L53 43L54 43L54 42L56 42L56 41L54 41L54 38L55 38L55 37L52 37L52 36L51 36L51 37L50 37L50 38L51 38L51 39L52 39L52 38L53 38L53 41L52 41L52 40L50 40L50 42L49 42L49 43L48 43L48 42L47 42L47 43L46 43L46 45L45 45L45 44L44 44L44 46L43 46L43 44L41 44L41 43L39 43L39 42L43 42L43 39L45 39L45 40L44 40L44 43L45 43L45 42L46 42L46 37L49 37L49 36L47 36L47 35L49 35L49 31L47 31L47 30L48 30L48 29L50 29L50 30L52 30L52 28L53 28L53 30L56 30L56 29L57 29L57 30L58 30L58 27L59 27L59 28L60 28L60 26L61 26L61 25L62 25L62 26L63 26L63 25L62 25L62 24L61 24L61 23L60 23L60 25L59 25L59 24L58 24L58 25L57 25L57 23L55 23L55 19L54 19L54 20L53 20L53 22L52 22L52 20L50 20L50 24L49 24L49 23L48 23L48 25L47 25L47 22L49 22L49 19L48 19L48 20L47 20L47 19L46 19L46 20L44 20L44 23L45 23L45 24L44 24L44 25L43 25L43 24L42 24L42 25L41 25L41 26L43 26L43 27L45 27L45 28L44 28L44 30L43 30L43 28L42 28L42 27L40 27L40 24L41 24L41 23L42 23L42 22L43 22L43 20L42 20L42 21L41 21L41 23L40 23L40 16L42 16L42 17L41 17L41 18L44 18L44 19L45 19L45 15L46 15L46 13L45 13L45 12L46 12L46 11L43 11L43 9L41 9L41 10L40 10L40 11L39 11L39 12L38 12L38 14L39 14L39 13L40 13L40 14L41 14L41 10L42 10L42 12L44 12L44 14L43 14L43 13L42 13L42 15L39 15L39 16L38 16L38 18L39 18L39 19L37 19L37 21L35 21L35 22L37 22L37 21L38 21L38 20L39 20L39 23L40 23L40 24L39 24L39 25L38 25L38 23L36 23L36 24L35 24L35 23L34 23L34 24L32 24L32 23L33 23L33 21L32 21L32 19L34 19L34 20L36 20L36 17L35 17L35 19L34 19L34 16L37 16L37 15L35 15L35 14L34 14L34 15L33 15L33 12L32 12L32 13L31 13L31 12L30 12L30 11L28 11L28 9L27 9L27 8L26 8L26 7L27 7L27 5L28 5L28 4L29 4L29 6L30 6L30 5L31 5L31 4L32 4L32 3L31 3L31 4L29 4L29 3ZM34 3L34 4L35 4L35 3ZM43 3L43 4L44 4L44 3ZM60 3L60 5L61 5L61 3ZM9 5L9 7L10 7L10 5ZM33 5L33 8L36 8L36 5ZM57 5L57 7L58 7L58 5ZM34 6L34 7L35 7L35 6ZM42 6L42 7L41 7L41 8L43 8L43 6ZM52 6L52 7L53 7L53 6ZM60 6L60 7L61 7L61 6ZM24 7L24 8L25 8L25 9L24 9L24 10L25 10L25 13L26 13L26 8L25 8L25 7ZM14 8L14 10L15 10L15 8ZM44 8L44 9L45 9L45 10L46 10L46 9L45 9L45 8ZM49 8L49 10L50 10L50 8ZM9 9L9 10L10 10L10 9ZM38 9L38 10L39 10L39 9ZM65 9L65 10L67 10L67 9ZM2 11L2 12L1 12L1 13L3 13L3 11ZM6 12L6 13L7 13L7 12ZM49 12L49 14L50 14L50 12ZM66 12L66 13L67 13L67 15L68 15L68 12ZM12 13L12 15L14 15L14 14L13 14L13 13ZM20 13L20 14L21 14L21 13ZM36 13L36 14L37 14L37 13ZM52 13L52 15L53 15L53 18L52 18L52 19L53 19L53 18L56 18L56 17L57 17L57 18L58 18L58 17L57 17L57 16L56 16L56 14L55 14L55 13L54 13L54 15L53 15L53 13ZM0 15L0 16L1 16L1 17L2 17L2 15ZM43 15L43 17L44 17L44 15ZM54 15L54 17L56 17L56 16L55 16L55 15ZM13 16L13 17L12 17L12 18L13 18L13 17L15 17L15 16ZM51 16L51 17L50 17L50 19L51 19L51 17L52 17L52 16ZM8 17L8 19L9 19L9 18L10 18L10 17ZM18 17L18 18L19 18L19 17ZM63 17L63 19L64 19L64 17ZM0 18L0 20L1 20L1 19L2 19L2 18ZM4 18L4 19L5 19L5 18ZM65 18L65 20L67 20L67 18ZM6 20L6 21L7 21L7 22L8 22L8 21L7 21L7 20ZM16 21L16 23L17 23L17 24L15 24L15 25L17 25L17 24L19 24L19 23L18 23L18 21ZM46 21L46 22L47 22L47 21ZM51 22L51 23L52 23L52 25L51 25L51 26L52 26L52 25L53 25L53 27L54 27L54 29L56 29L56 28L57 28L57 27L56 27L56 26L57 26L57 25L55 25L55 24L53 24L53 23L52 23L52 22ZM4 23L4 24L5 24L5 23ZM9 23L9 24L10 24L10 23ZM13 23L13 24L14 24L14 23ZM25 24L25 26L24 26L24 25L21 25L21 26L20 26L20 25L18 25L18 26L19 26L19 27L21 27L21 26L23 26L23 27L22 27L22 30L20 30L20 28L19 28L19 30L20 30L20 32L19 32L19 33L20 33L20 32L21 32L21 31L22 31L22 37L21 37L21 38L20 38L20 36L21 36L21 34L20 34L20 35L18 35L18 34L17 34L17 35L16 35L16 34L15 34L15 35L14 35L14 36L15 36L15 35L16 35L16 39L17 39L17 40L16 40L16 41L15 41L15 40L13 40L13 39L12 39L12 40L13 40L13 41L14 41L14 42L15 42L15 43L16 43L16 42L17 42L17 44L18 44L18 43L19 43L19 45L21 45L21 44L20 44L20 43L19 43L19 42L20 42L20 41L22 41L22 54L21 54L21 55L19 55L19 54L20 54L20 53L19 53L19 54L18 54L18 56L20 56L20 57L21 57L21 55L22 55L22 56L26 56L26 55L24 55L24 54L23 54L23 52L24 52L24 51L28 51L28 50L29 50L29 52L31 52L31 51L32 51L32 52L33 52L33 53L34 53L34 54L36 54L36 55L35 55L35 56L34 56L34 55L33 55L33 56L34 56L34 57L35 57L35 56L37 56L37 55L38 55L38 56L39 56L39 52L38 52L38 53L37 53L37 50L38 50L38 51L39 51L39 50L38 50L38 49L37 49L37 48L36 48L36 47L37 47L37 46L38 46L38 45L39 45L39 44L37 44L37 43L38 43L38 41L36 41L36 40L39 40L39 38L38 38L38 39L34 39L34 42L33 42L33 43L32 43L32 41L33 41L33 39L32 39L32 38L35 38L35 37L32 37L32 38L31 38L31 39L32 39L32 41L31 41L31 40L30 40L30 41L28 41L28 42L27 42L27 45L28 45L28 46L29 46L29 45L30 45L30 46L31 46L31 48L34 48L34 49L36 49L36 51L35 51L35 52L34 52L34 51L33 51L33 49L30 49L30 50L29 50L29 48L30 48L30 47L29 47L29 48L28 48L28 49L27 49L27 50L26 50L26 49L25 49L25 48L24 48L24 49L23 49L23 47L26 47L26 48L27 48L27 46L26 46L26 43L25 43L25 46L23 46L23 44L24 44L24 43L23 43L23 41L24 41L24 42L26 42L26 38L27 38L27 39L28 39L28 38L29 38L29 39L30 39L30 37L29 37L29 34L30 34L30 36L31 36L31 35L32 35L32 34L31 34L31 33L29 33L29 32L28 32L28 31L27 31L27 32L26 32L26 31L25 31L25 30L23 30L23 27L24 27L24 28L25 28L25 29L26 29L26 28L27 28L27 27L26 27L26 26L27 26L27 25L26 25L26 24ZM34 24L34 25L35 25L35 24ZM0 25L0 29L1 29L1 25ZM32 25L32 26L31 26L31 27L33 27L33 28L34 28L34 27L33 27L33 25ZM37 25L37 26L38 26L38 25ZM46 25L46 26L47 26L47 25ZM48 25L48 27L49 27L49 28L50 28L50 29L51 29L51 28L50 28L50 25ZM54 25L54 27L55 27L55 28L56 28L56 27L55 27L55 25ZM58 25L58 26L59 26L59 25ZM11 26L11 27L12 27L12 28L11 28L11 29L10 29L10 32L11 32L11 31L12 31L12 30L13 30L13 28L14 28L14 27L12 27L12 26ZM38 27L38 29L40 29L40 30L42 30L42 28L40 28L40 27ZM61 27L61 28L62 28L62 27ZM15 28L15 29L14 29L14 30L16 30L16 28ZM11 29L11 30L12 30L12 29ZM46 29L46 30L47 30L47 29ZM22 30L22 31L23 31L23 33L24 33L24 34L23 34L23 37L22 37L22 38L21 38L21 39L20 39L20 38L19 38L19 36L18 36L18 35L17 35L17 37L18 37L18 38L17 38L17 39L18 39L18 41L17 41L17 42L18 42L18 41L20 41L20 40L21 40L21 39L22 39L22 40L24 40L24 41L25 41L25 40L24 40L24 39L23 39L23 37L24 37L24 38L25 38L25 37L27 37L27 38L28 38L28 37L27 37L27 35L28 35L28 34L29 34L29 33L24 33L24 32L25 32L25 31L23 31L23 30ZM44 30L44 31L40 31L40 33L44 33L44 34L43 34L43 35L41 35L41 34L38 34L38 33L39 33L39 32L37 32L37 37L36 37L36 38L37 38L37 37L38 37L38 36L39 36L39 37L40 37L40 41L41 41L41 37L42 37L42 36L43 36L43 38L45 38L45 37L46 37L46 34L48 34L48 33L46 33L46 34L45 34L45 33L44 33L44 31L45 31L45 30ZM50 31L50 32L51 32L51 33L50 33L50 34L51 34L51 35L52 35L52 34L51 34L51 33L52 33L52 31ZM53 31L53 32L54 32L54 31ZM0 32L0 33L1 33L1 32ZM59 32L59 33L58 33L58 35L57 35L57 36L58 36L58 35L60 35L60 32ZM5 33L5 36L8 36L8 33ZM33 33L33 36L36 36L36 33ZM61 33L61 36L64 36L64 33ZM6 34L6 35L7 35L7 34ZM24 34L24 37L25 37L25 36L26 36L26 35L27 35L27 34L26 34L26 35L25 35L25 34ZM34 34L34 35L35 35L35 34ZM44 34L44 37L45 37L45 34ZM62 34L62 35L63 35L63 34ZM66 34L66 35L65 35L65 36L67 36L67 37L68 37L68 35L67 35L67 34ZM4 37L4 38L5 38L5 37ZM6 37L6 38L7 38L7 37ZM51 37L51 38L52 38L52 37ZM18 38L18 39L19 39L19 38ZM48 38L48 39L47 39L47 41L49 41L49 38ZM59 38L59 39L58 39L58 40L61 40L61 39L60 39L60 38ZM63 40L63 41L64 41L64 40ZM1 41L1 42L3 42L3 41ZM6 41L6 42L7 42L7 43L5 43L5 42L4 42L4 43L5 43L5 44L7 44L7 43L9 43L9 42L7 42L7 41ZM30 41L30 43L29 43L29 42L28 42L28 45L29 45L29 44L30 44L30 45L31 45L31 46L32 46L32 47L34 47L34 48L35 48L35 47L36 47L36 45L37 45L37 44L36 44L36 45L34 45L34 44L33 44L33 45L31 45L31 44L32 44L32 43L31 43L31 41ZM34 42L34 43L35 43L35 42ZM50 42L50 44L49 44L49 45L50 45L50 44L51 44L51 42ZM1 43L1 44L3 44L3 43ZM30 43L30 44L31 44L31 43ZM47 43L47 44L48 44L48 43ZM11 44L11 45L13 45L13 44ZM6 45L6 46L7 46L7 45ZM33 45L33 46L34 46L34 47L35 47L35 46L34 46L34 45ZM46 45L46 46L44 46L44 48L43 48L43 49L44 49L44 50L45 50L45 49L46 49L46 50L48 50L48 49L47 49L47 48L45 48L45 47L46 47L46 46L47 46L47 45ZM55 45L55 46L56 46L56 45ZM19 46L19 47L20 47L20 46ZM60 46L60 47L61 47L61 46ZM38 47L38 48L39 48L39 47ZM48 47L48 48L49 48L49 49L50 49L50 48L52 48L52 47L50 47L50 48L49 48L49 47ZM18 48L18 49L15 49L15 51L14 51L14 52L16 52L16 54L17 54L17 52L16 52L16 50L17 50L17 51L18 51L18 49L19 49L19 51L20 51L20 50L21 50L21 49L19 49L19 48ZM44 48L44 49L45 49L45 48ZM10 49L10 50L11 50L11 49ZM24 49L24 50L23 50L23 51L24 51L24 50L25 50L25 49ZM2 50L2 51L3 51L3 50ZM30 50L30 51L31 51L31 50ZM42 50L42 51L43 51L43 53L44 53L44 51L43 51L43 50ZM66 51L66 55L64 55L64 54L62 54L62 55L64 55L64 56L63 56L63 57L62 57L62 56L61 56L61 58L62 58L62 60L63 60L63 57L64 57L64 60L66 60L66 61L67 61L67 60L68 60L68 59L65 59L65 57L64 57L64 56L68 56L68 55L67 55L67 51ZM25 52L25 53L26 53L26 52ZM56 53L56 54L57 54L57 53ZM1 56L1 57L2 57L2 58L3 58L3 57L2 57L2 56ZM12 57L12 58L13 58L13 57ZM53 57L53 58L52 58L52 59L51 59L51 60L50 60L50 62L51 62L51 63L52 63L52 64L53 64L53 63L52 63L52 62L55 62L55 60L54 60L54 59L53 59L53 58L55 58L55 57ZM66 57L66 58L67 58L67 57ZM42 58L42 61L44 61L44 59L45 59L45 58ZM57 58L57 59L58 59L58 58ZM46 59L46 60L45 60L45 61L46 61L46 62L47 62L47 61L46 61L46 60L47 60L47 59ZM52 59L52 61L51 61L51 62L52 62L52 61L53 61L53 59ZM3 60L3 61L5 61L5 60ZM39 60L39 62L38 62L38 61L37 61L37 62L38 62L38 64L39 64L39 63L40 63L40 62L41 62L41 60ZM33 61L33 64L36 64L36 61ZM61 61L61 64L64 64L64 61ZM28 62L28 63L29 63L29 65L31 65L31 64L30 64L30 62ZM34 62L34 63L35 63L35 62ZM62 62L62 63L63 63L63 62ZM8 63L8 65L9 65L9 63ZM10 63L10 66L11 66L11 63ZM19 63L19 64L20 64L20 63ZM47 63L47 64L48 64L48 63ZM67 63L67 65L66 65L66 66L69 66L69 64L68 64L68 63ZM57 64L57 65L58 65L58 64ZM59 64L59 65L60 65L60 64ZM61 65L61 66L62 66L62 65ZM32 67L32 68L33 68L33 67ZM36 68L36 69L37 69L37 68ZM66 68L66 69L67 69L67 68ZM68 68L68 69L69 69L69 68ZM0 0L0 7L7 7L7 0ZM1 1L1 6L6 6L6 1ZM2 2L2 5L5 5L5 2ZM62 0L62 7L69 7L69 0ZM63 1L63 6L68 6L68 1ZM64 2L64 5L67 5L67 2ZM0 62L0 69L7 69L7 62ZM1 63L1 68L6 68L6 63ZM2 64L2 67L5 67L5 64Z" fill="#000000"/></g></g></svg>
