<?xml version="1.0" encoding="UTF-8"?>
<svg xmlns="http://www.w3.org/2000/svg" version="1.1" width="300" height="300" viewBox="0 0 300 300"><rect x="0" y="0" width="300" height="300" fill="#ffffff"/><g transform="scale(4.348)"><g transform="translate(0,0)"><path fill-rule="evenodd" d="M8 0L8 4L9 4L9 5L8 5L8 7L9 7L9 8L10 8L10 9L13 9L13 10L15 10L15 9L16 9L16 10L17 10L17 9L18 9L18 11L20 11L20 12L21 12L21 11L22 11L22 9L21 9L21 8L20 8L20 10L19 10L19 6L20 6L20 7L21 7L21 6L20 6L20 5L21 5L21 3L22 3L22 5L25 5L25 6L24 6L24 7L23 7L23 6L22 6L22 8L24 8L24 9L23 9L23 11L24 11L24 12L25 12L25 13L19 13L19 12L17 12L17 13L16 13L16 12L14 12L14 11L12 11L12 10L9 10L9 11L8 11L8 10L6 10L6 9L7 9L7 8L4 8L4 9L5 9L5 10L2 10L2 8L0 8L0 9L1 9L1 10L0 10L0 12L1 12L1 13L0 13L0 15L1 15L1 16L2 16L2 17L1 17L1 19L0 19L0 22L1 22L1 23L0 23L0 24L1 24L1 25L2 25L2 26L4 26L4 27L1 27L1 29L0 29L0 30L1 30L1 31L0 31L0 33L1 33L1 35L2 35L2 36L0 36L0 38L1 38L1 39L2 39L2 41L1 41L1 40L0 40L0 41L1 41L1 42L0 42L0 44L2 44L2 45L1 45L1 47L0 47L0 48L1 48L1 47L2 47L2 49L1 49L1 52L0 52L0 55L1 55L1 58L0 58L0 61L1 61L1 58L2 58L2 59L3 59L3 58L2 58L2 49L3 49L3 47L2 47L2 45L3 45L3 46L4 46L4 49L5 49L5 50L6 50L6 51L7 51L7 50L6 50L6 49L8 49L8 50L9 50L9 49L11 49L11 50L10 50L10 51L11 51L11 52L9 52L9 51L8 51L8 54L9 54L9 56L8 56L8 57L7 57L7 56L6 56L6 55L7 55L7 54L6 54L6 55L5 55L5 54L4 54L4 55L5 55L5 56L3 56L3 57L4 57L4 59L7 59L7 60L6 60L6 61L7 61L7 60L8 60L8 62L9 62L9 63L8 63L8 65L9 65L9 67L8 67L8 69L9 69L9 68L10 68L10 69L11 69L11 68L12 68L12 67L13 67L13 66L14 66L14 68L13 68L13 69L14 69L14 68L17 68L17 69L19 69L19 67L20 67L20 66L21 66L21 67L23 67L23 69L24 69L24 68L25 68L25 69L27 69L27 68L26 68L26 67L28 67L28 66L31 66L31 68L30 68L30 67L29 67L29 68L28 68L28 69L31 69L31 68L32 68L32 69L35 69L35 67L39 67L39 66L40 66L40 63L41 63L41 67L40 67L40 68L38 68L38 69L40 69L40 68L42 68L42 69L43 69L43 68L42 68L42 67L43 67L43 63L44 63L44 69L46 69L46 67L45 67L45 63L44 63L44 62L43 62L43 61L42 61L42 58L45 58L45 59L46 59L46 60L44 60L44 59L43 59L43 60L44 60L44 61L45 61L45 62L46 62L46 61L47 61L47 63L46 63L46 64L47 64L47 65L50 65L50 66L48 66L48 67L50 67L50 66L51 66L51 69L52 69L52 68L54 68L54 69L55 69L55 67L56 67L56 66L57 66L57 64L56 64L56 65L55 65L55 64L54 64L54 65L53 65L53 66L51 66L51 65L52 65L52 64L53 64L53 63L54 63L54 62L55 62L55 61L54 61L54 59L55 59L55 60L56 60L56 61L57 61L57 62L56 62L56 63L58 63L58 65L59 65L59 66L62 66L62 67L60 67L60 68L61 68L61 69L62 69L62 67L63 67L63 68L64 68L64 67L67 67L67 66L69 66L69 65L65 65L65 63L66 63L66 62L67 62L67 63L68 63L68 64L69 64L69 63L68 63L68 62L69 62L69 61L68 61L68 62L67 62L67 60L66 60L66 61L65 61L65 59L68 59L68 58L69 58L69 56L68 56L68 55L67 55L67 54L64 54L64 53L63 53L63 52L65 52L65 53L69 53L69 52L68 52L68 50L67 50L67 52L65 52L65 51L62 51L62 49L63 49L63 50L64 50L64 49L63 49L63 48L65 48L65 47L66 47L66 46L67 46L67 47L68 47L68 46L69 46L69 45L68 45L68 46L67 46L67 44L68 44L68 42L69 42L69 40L67 40L67 41L68 41L68 42L67 42L67 44L66 44L66 46L65 46L65 47L62 47L62 45L63 45L63 46L64 46L64 45L65 45L65 44L64 44L64 45L63 45L63 44L62 44L62 41L63 41L63 43L64 43L64 41L65 41L65 42L66 42L66 40L64 40L64 39L65 39L65 38L66 38L66 35L68 35L68 38L67 38L67 39L68 39L68 38L69 38L69 35L68 35L68 33L69 33L69 31L68 31L68 30L69 30L69 27L68 27L68 26L67 26L67 25L68 25L68 21L69 21L69 20L68 20L68 18L67 18L67 17L69 17L69 15L68 15L68 13L69 13L69 12L65 12L65 11L68 11L68 10L69 10L69 8L65 8L65 9L64 9L64 8L63 8L63 9L62 9L62 10L61 10L61 8L59 8L59 4L58 4L58 9L59 9L59 11L57 11L57 8L56 8L56 9L54 9L54 8L53 8L53 6L54 6L54 7L55 7L55 5L56 5L56 7L57 7L57 5L56 5L56 0L53 0L53 1L52 1L52 0L50 0L50 2L49 2L49 1L48 1L48 0L47 0L47 2L46 2L46 0L45 0L45 1L44 1L44 0L41 0L41 1L40 1L40 0L34 0L34 1L35 1L35 2L34 2L34 3L33 3L33 4L32 4L32 2L33 2L33 0L32 0L32 1L31 1L31 0L30 0L30 1L31 1L31 2L29 2L29 0L23 0L23 1L22 1L22 0L17 0L17 1L15 1L15 0L13 0L13 1L12 1L12 2L13 2L13 4L12 4L12 3L11 3L11 5L13 5L13 6L12 6L12 7L13 7L13 6L14 6L14 7L15 7L15 8L14 8L14 9L13 9L13 8L10 8L10 7L11 7L11 6L10 6L10 4L9 4L9 3L10 3L10 2L11 2L11 1L10 1L10 0ZM57 0L57 1L61 1L61 0ZM9 1L9 2L10 2L10 1ZM17 1L17 2L18 2L18 1ZM19 1L19 3L16 3L16 4L15 4L15 2L14 2L14 4L15 4L15 5L14 5L14 6L15 6L15 7L16 7L16 5L17 5L17 4L18 4L18 5L20 5L20 3L21 3L21 2L20 2L20 1ZM23 1L23 3L25 3L25 2L24 2L24 1ZM27 1L27 2L26 2L26 5L27 5L27 4L28 4L28 6L27 6L27 7L26 7L26 6L25 6L25 7L24 7L24 8L25 8L25 9L24 9L24 10L25 10L25 11L26 11L26 12L27 12L27 10L28 10L28 14L29 14L29 16L28 16L28 17L27 17L27 19L28 19L28 18L29 18L29 19L30 19L30 20L31 20L31 19L32 19L32 21L28 21L28 20L27 20L27 21L28 21L28 23L27 23L27 22L26 22L26 23L27 23L27 25L26 25L26 24L25 24L25 25L26 25L26 28L25 28L25 26L24 26L24 25L21 25L21 23L22 23L22 24L23 24L23 23L25 23L25 22L23 22L23 21L26 21L26 19L25 19L25 18L26 18L26 17L25 17L25 16L24 16L24 17L23 17L23 15L20 15L20 14L19 14L19 15L20 15L20 16L22 16L22 19L23 19L23 20L22 20L22 22L20 22L20 20L19 20L19 19L20 19L20 18L21 18L21 17L19 17L19 16L18 16L18 17L15 17L15 16L16 16L16 15L15 15L15 16L14 16L14 15L13 15L13 16L11 16L11 15L10 15L10 14L9 14L9 13L13 13L13 12L12 12L12 11L11 11L11 12L10 12L10 11L9 11L9 12L7 12L7 11L6 11L6 10L5 10L5 11L3 11L3 12L5 12L5 11L6 11L6 12L7 12L7 13L5 13L5 16L7 16L7 15L6 15L6 14L7 14L7 13L8 13L8 16L9 16L9 18L10 18L10 20L9 20L9 22L7 22L7 21L8 21L8 19L6 19L6 20L5 20L5 18L4 18L4 17L2 17L2 21L1 21L1 22L2 22L2 21L3 21L3 23L4 23L4 22L5 22L5 24L7 24L7 25L6 25L6 26L5 26L5 27L6 27L6 28L8 28L8 26L9 26L9 27L10 27L10 28L9 28L9 29L5 29L5 28L4 28L4 29L2 29L2 30L3 30L3 31L2 31L2 35L4 35L4 32L7 32L7 31L9 31L9 30L10 30L10 31L12 31L12 32L9 32L9 33L10 33L10 34L11 34L11 35L12 35L12 34L11 34L11 33L12 33L12 32L13 32L13 33L14 33L14 32L13 32L13 31L14 31L14 30L15 30L15 28L16 28L16 30L17 30L17 28L19 28L19 29L18 29L18 31L17 31L17 33L16 33L16 31L15 31L15 33L16 33L16 35L15 35L15 34L14 34L14 35L15 35L15 36L14 36L14 40L13 40L13 43L12 43L12 39L13 39L13 38L12 38L12 36L10 36L10 37L9 37L9 38L8 38L8 37L4 37L4 36L3 36L3 38L2 38L2 39L3 39L3 38L4 38L4 39L5 39L5 38L7 38L7 39L6 39L6 40L5 40L5 42L2 42L2 43L5 43L5 45L4 45L4 44L3 44L3 45L4 45L4 46L5 46L5 45L6 45L6 46L7 46L7 45L8 45L8 44L7 44L7 43L8 43L8 42L10 42L10 45L9 45L9 46L8 46L8 49L9 49L9 48L10 48L10 47L11 47L11 46L10 46L10 45L12 45L12 48L11 48L11 49L12 49L12 48L13 48L13 49L14 49L14 47L15 47L15 49L16 49L16 51L15 51L15 50L13 50L13 51L12 51L12 52L13 52L13 53L11 53L11 54L10 54L10 55L11 55L11 54L12 54L12 56L10 56L10 57L8 57L8 58L7 58L7 57L6 57L6 58L7 58L7 59L8 59L8 60L9 60L9 58L11 58L11 57L12 57L12 59L13 59L13 58L14 58L14 57L17 57L17 56L16 56L16 54L18 54L18 56L21 56L21 55L22 55L22 56L23 56L23 54L22 54L22 53L25 53L25 54L24 54L24 56L25 56L25 57L26 57L26 58L24 58L24 57L21 57L21 59L20 59L20 57L19 57L19 58L16 58L16 59L14 59L14 61L13 61L13 60L12 60L12 62L15 62L15 61L16 61L16 64L15 64L15 63L10 63L10 64L9 64L9 65L10 65L10 66L11 66L11 65L10 65L10 64L15 64L15 65L16 65L16 67L17 67L17 65L18 65L18 64L19 64L19 65L20 65L20 64L22 64L22 66L23 66L23 64L24 64L24 63L25 63L25 65L29 65L29 64L28 64L28 62L31 62L31 63L30 63L30 64L31 64L31 65L32 65L32 66L33 66L33 67L32 67L32 68L34 68L34 67L35 67L35 65L32 65L32 64L31 64L31 63L32 63L32 62L31 62L31 61L32 61L32 60L31 60L31 59L33 59L33 60L38 60L38 57L39 57L39 58L40 58L40 59L41 59L41 58L40 58L40 57L41 57L41 56L42 56L42 57L44 57L44 54L45 54L45 53L46 53L46 54L47 54L47 53L46 53L46 52L47 52L47 51L46 51L46 50L48 50L48 51L49 51L49 52L50 52L50 51L51 51L51 52L52 52L52 53L56 53L56 54L55 54L55 55L53 55L53 54L50 54L50 53L48 53L48 55L49 55L49 54L50 54L50 57L46 57L46 58L49 58L49 63L47 63L47 64L50 64L50 65L51 65L51 64L52 64L52 63L51 63L51 62L52 62L52 61L53 61L53 60L52 60L52 57L53 57L53 59L54 59L54 57L56 57L56 56L57 56L57 57L58 57L58 58L55 58L55 59L56 59L56 60L57 60L57 61L58 61L58 63L59 63L59 65L60 65L60 60L59 60L59 59L58 59L58 58L61 58L61 57L62 57L62 59L61 59L61 60L64 60L64 59L65 59L65 57L66 57L66 58L67 58L67 57L66 57L66 56L67 56L67 55L64 55L64 54L61 54L61 53L62 53L62 51L61 51L61 50L60 50L60 49L61 49L61 48L62 48L62 47L61 47L61 46L59 46L59 45L60 45L60 44L59 44L59 43L58 43L58 44L57 44L57 45L56 45L56 43L55 43L55 42L56 42L56 41L55 41L55 38L57 38L57 39L58 39L58 38L59 38L59 39L60 39L60 36L59 36L59 35L60 35L60 32L59 32L59 33L58 33L58 38L57 38L57 37L56 37L56 36L57 36L57 34L56 34L56 33L55 33L55 30L56 30L56 28L57 28L57 29L58 29L58 30L57 30L57 32L58 32L58 31L59 31L59 29L60 29L60 28L61 28L61 30L62 30L62 31L61 31L61 32L62 32L62 31L63 31L63 32L66 32L66 33L65 33L65 35L66 35L66 33L67 33L67 32L68 32L68 31L64 31L64 30L67 30L67 29L68 29L68 28L67 28L67 27L65 27L65 28L64 28L64 26L65 26L65 25L66 25L66 24L67 24L67 22L66 22L66 20L67 20L67 21L68 21L68 20L67 20L67 18L65 18L65 20L64 20L64 17L66 17L66 16L68 16L68 15L67 15L67 13L65 13L65 12L64 12L64 13L63 13L63 14L62 14L62 11L60 11L60 13L59 13L59 12L57 12L57 13L58 13L58 14L59 14L59 15L61 15L61 20L62 20L62 15L63 15L63 14L64 14L64 13L65 13L65 16L64 16L64 17L63 17L63 20L64 20L64 21L63 21L63 22L62 22L62 21L61 21L61 22L60 22L60 23L59 23L59 24L58 24L58 26L57 26L57 25L56 25L56 23L57 23L57 21L58 21L58 22L59 22L59 21L60 21L60 19L59 19L59 21L58 21L58 20L57 20L57 19L58 19L58 18L59 18L59 17L58 17L58 18L56 18L56 19L55 19L55 18L54 18L54 19L55 19L55 21L56 21L56 23L54 23L54 21L53 21L53 19L52 19L52 17L54 17L54 16L55 16L55 17L56 17L56 16L57 16L57 15L56 15L56 13L55 13L55 12L52 12L52 14L51 14L51 15L47 15L47 16L49 16L49 18L47 18L47 17L46 17L46 15L45 15L45 13L44 13L44 12L46 12L46 14L47 14L47 12L46 12L46 10L47 10L47 8L49 8L49 10L50 10L50 11L49 11L49 14L50 14L50 11L52 11L52 9L53 9L53 8L52 8L52 9L51 9L51 10L50 10L50 8L51 8L51 7L52 7L52 6L51 6L51 5L49 5L49 3L48 3L48 2L47 2L47 3L48 3L48 5L49 5L49 7L48 7L48 6L47 6L47 4L46 4L46 5L44 5L44 4L45 4L45 3L46 3L46 2L45 2L45 3L44 3L44 2L43 2L43 3L42 3L42 1L41 1L41 4L40 4L40 1L37 1L37 3L36 3L36 4L37 4L37 3L38 3L38 4L39 4L39 7L38 7L38 5L37 5L37 8L38 8L38 9L37 9L37 11L38 11L38 13L39 13L39 15L38 15L38 16L39 16L39 15L42 15L42 13L44 13L44 15L43 15L43 17L44 17L44 15L45 15L45 17L46 17L46 18L45 18L45 19L44 19L44 18L41 18L41 17L42 17L42 16L40 16L40 19L39 19L39 18L38 18L38 17L36 17L36 18L35 18L35 16L34 16L34 19L32 19L32 18L33 18L33 15L34 15L34 14L35 14L35 15L36 15L36 16L37 16L37 14L35 14L35 13L33 13L33 15L32 15L32 17L31 17L31 18L29 18L29 16L30 16L30 15L31 15L31 13L32 13L32 12L33 12L33 11L34 11L34 9L32 9L32 8L30 8L30 9L27 9L27 10L26 10L26 8L29 8L29 7L30 7L30 6L31 6L31 7L32 7L32 6L31 6L31 5L32 5L32 4L31 4L31 3L29 3L29 2L28 2L28 1ZM51 1L51 2L50 2L50 4L52 4L52 5L53 5L53 4L52 4L52 1ZM53 1L53 2L54 2L54 4L55 4L55 2L54 2L54 1ZM57 2L57 3L59 3L59 2ZM28 3L28 4L29 4L29 3ZM34 3L34 4L35 4L35 3ZM43 3L43 4L41 4L41 5L40 5L40 7L41 7L41 8L43 8L43 6L44 6L44 7L45 7L45 8L44 8L44 9L45 9L45 10L46 10L46 9L45 9L45 8L47 8L47 6L46 6L46 7L45 7L45 6L44 6L44 5L43 5L43 4L44 4L44 3ZM60 3L60 5L61 5L61 3ZM29 5L29 6L28 6L28 7L29 7L29 6L30 6L30 5ZM33 5L33 8L36 8L36 5ZM9 6L9 7L10 7L10 6ZM17 6L17 7L18 7L18 6ZM34 6L34 7L35 7L35 6ZM41 6L41 7L42 7L42 6ZM50 6L50 7L49 7L49 8L50 8L50 7L51 7L51 6ZM60 6L60 7L61 7L61 6ZM16 8L16 9L17 9L17 8ZM30 9L30 10L29 10L29 11L30 11L30 13L29 13L29 14L30 14L30 13L31 13L31 11L32 11L32 9ZM35 9L35 11L36 11L36 9ZM38 9L38 11L39 11L39 13L40 13L40 14L41 14L41 10L42 10L42 12L43 12L43 9ZM65 9L65 10L68 10L68 9ZM1 10L1 12L2 12L2 10ZM30 10L30 11L31 11L31 10ZM53 10L53 11L56 11L56 10ZM63 10L63 11L64 11L64 10ZM36 12L36 13L37 13L37 12ZM1 13L1 14L3 14L3 15L4 15L4 13ZM14 13L14 14L16 14L16 13ZM25 13L25 15L26 15L26 16L27 16L27 13ZM53 13L53 14L52 14L52 15L53 15L53 14L54 14L54 15L55 15L55 16L56 16L56 15L55 15L55 13ZM60 13L60 14L61 14L61 15L62 15L62 14L61 14L61 13ZM17 14L17 15L18 15L18 14ZM9 15L9 16L10 16L10 15ZM13 16L13 17L12 17L12 18L11 18L11 17L10 17L10 18L11 18L11 19L12 19L12 20L10 20L10 22L9 22L9 23L10 23L10 24L11 24L11 23L10 23L10 22L12 22L12 20L14 20L14 21L13 21L13 22L14 22L14 21L15 21L15 23L16 23L16 21L19 21L19 20L18 20L18 19L19 19L19 17L18 17L18 18L15 18L15 17L14 17L14 16ZM50 16L50 19L51 19L51 20L50 20L50 22L51 22L51 23L52 23L52 24L51 24L51 25L50 25L50 23L49 23L49 19L47 19L47 18L46 18L46 20L44 20L44 23L45 23L45 24L44 24L44 25L43 25L43 24L42 24L42 25L41 25L41 26L43 26L43 27L47 27L47 30L48 30L48 29L50 29L50 30L49 30L49 31L46 31L46 28L44 28L44 29L43 29L43 28L42 28L42 27L40 27L40 24L41 24L41 23L40 23L40 24L39 24L39 23L37 23L37 25L35 25L35 27L34 27L34 26L33 26L33 25L34 25L34 24L36 24L36 23L35 23L35 22L37 22L37 21L38 21L38 20L39 20L39 22L41 22L41 21L42 21L42 23L43 23L43 19L41 19L41 21L40 21L40 20L39 20L39 19L37 19L37 21L36 21L36 20L35 20L35 19L34 19L34 20L35 20L35 22L34 22L34 21L33 21L33 22L32 22L32 23L31 23L31 24L30 24L30 25L29 25L29 26L28 26L28 25L27 25L27 27L30 27L30 28L26 28L26 30L25 30L25 29L22 29L22 28L24 28L24 27L23 27L23 26L21 26L21 25L20 25L20 23L17 23L17 25L14 25L14 23L13 23L13 24L12 24L12 25L11 25L11 26L12 26L12 27L11 27L11 28L10 28L10 29L11 29L11 28L12 28L12 27L14 27L14 28L13 28L13 29L12 29L12 30L13 30L13 29L14 29L14 28L15 28L15 27L16 27L16 26L17 26L17 27L19 27L19 28L20 28L20 30L19 30L19 32L18 32L18 33L17 33L17 37L18 37L18 38L16 38L16 37L15 37L15 40L14 40L14 42L15 42L15 41L16 41L16 39L18 39L18 41L17 41L17 42L16 42L16 43L15 43L15 44L14 44L14 43L13 43L13 44L12 44L12 45L13 45L13 44L14 44L14 45L15 45L15 47L16 47L16 45L15 45L15 44L17 44L17 45L20 45L20 46L18 46L18 47L17 47L17 49L18 49L18 51L19 51L19 52L17 52L17 51L16 51L16 52L15 52L15 51L13 51L13 52L15 52L15 54L14 54L14 55L13 55L13 57L14 57L14 56L15 56L15 54L16 54L16 53L20 53L20 54L21 54L21 53L22 53L22 52L24 52L24 51L25 51L25 52L26 52L26 54L25 54L25 55L26 55L26 57L27 57L27 58L26 58L26 61L19 61L19 60L20 60L20 59L19 59L19 60L18 60L18 59L17 59L17 61L19 61L19 62L22 62L22 64L23 64L23 63L24 63L24 62L25 62L25 63L26 63L26 64L27 64L27 62L28 62L28 61L31 61L31 60L29 60L29 59L30 59L30 58L31 58L31 57L32 57L32 58L33 58L33 57L34 57L34 56L35 56L35 58L34 58L34 59L37 59L37 58L36 58L36 57L38 57L38 56L39 56L39 57L40 57L40 55L41 55L41 53L40 53L40 52L42 52L42 55L43 55L43 54L44 54L44 53L45 53L45 50L46 50L46 49L45 49L45 48L47 48L47 49L50 49L50 50L51 50L51 51L52 51L52 52L53 52L53 50L55 50L55 51L54 51L54 52L55 52L55 51L56 51L56 53L57 53L57 54L58 54L58 55L57 55L57 56L58 56L58 57L59 57L59 56L58 56L58 55L59 55L59 54L58 54L58 51L59 51L59 50L58 50L58 48L56 48L56 47L59 47L59 46L58 46L58 45L59 45L59 44L58 44L58 45L57 45L57 46L56 46L56 45L55 45L55 44L53 44L53 42L55 42L55 41L54 41L54 38L55 38L55 37L52 37L52 36L54 36L54 34L55 34L55 36L56 36L56 34L55 34L55 33L53 33L53 35L52 35L52 34L51 34L51 33L52 33L52 32L53 32L53 30L55 30L55 29L54 29L54 27L55 27L55 26L56 26L56 25L54 25L54 23L53 23L53 21L52 21L52 19L51 19L51 17L52 17L52 16ZM6 17L6 18L8 18L8 17ZM13 17L13 19L15 19L15 18L14 18L14 17ZM24 17L24 18L23 18L23 19L24 19L24 18L25 18L25 17ZM16 19L16 20L15 20L15 21L16 21L16 20L17 20L17 19ZM6 20L6 21L7 21L7 20ZM56 20L56 21L57 21L57 20ZM46 21L46 22L48 22L48 21ZM51 21L51 22L52 22L52 21ZM6 22L6 23L7 23L7 22ZM29 22L29 23L30 23L30 22ZM61 22L61 23L62 23L62 22ZM1 23L1 24L2 24L2 25L4 25L4 24L2 24L2 23ZM32 23L32 25L33 25L33 24L34 24L34 23ZM47 23L47 25L46 25L46 26L47 26L47 27L49 27L49 28L50 28L50 29L51 29L51 30L50 30L50 31L51 31L51 32L50 32L50 33L46 33L46 32L45 32L45 33L44 33L44 31L45 31L45 29L44 29L44 31L40 31L40 33L44 33L44 34L43 34L43 35L42 35L42 36L41 36L41 34L38 34L38 33L39 33L39 32L38 32L38 33L37 33L37 37L36 37L36 39L34 39L34 38L35 38L35 37L31 37L31 40L30 40L30 41L28 41L28 40L29 40L29 39L30 39L30 38L29 38L29 36L31 36L31 35L32 35L32 33L31 33L31 35L30 35L30 33L29 33L29 32L30 32L30 31L32 31L32 32L37 32L37 31L38 31L38 29L40 29L40 30L42 30L42 28L40 28L40 27L39 27L39 26L38 26L38 25L37 25L37 26L36 26L36 27L35 27L35 28L34 28L34 27L33 27L33 26L30 26L30 27L33 27L33 28L32 28L32 29L31 29L31 30L30 30L30 29L28 29L28 31L29 31L29 32L26 32L26 31L25 31L25 32L24 32L24 31L23 31L23 30L22 30L22 29L21 29L21 30L20 30L20 31L21 31L21 30L22 30L22 31L23 31L23 32L22 32L22 33L21 33L21 34L20 34L20 35L19 35L19 36L22 36L22 38L23 38L23 36L25 36L25 38L24 38L24 39L23 39L23 40L22 40L22 39L21 39L21 41L22 41L22 43L21 43L21 42L20 42L20 41L18 41L18 42L19 42L19 43L20 43L20 45L21 45L21 46L20 46L20 47L19 47L19 48L18 48L18 49L19 49L19 51L20 51L20 50L21 50L21 51L22 51L22 50L23 50L23 51L24 51L24 50L23 50L23 49L24 49L24 48L22 48L22 49L19 49L19 48L21 48L21 47L22 47L22 45L24 45L24 43L23 43L23 41L24 41L24 42L25 42L25 43L26 43L26 44L25 44L25 46L24 46L24 47L26 47L26 48L27 48L27 45L26 45L26 44L28 44L28 49L27 49L27 50L26 50L26 49L25 49L25 51L26 51L26 52L27 52L27 53L28 53L28 54L29 54L29 53L28 53L28 52L27 52L27 51L28 51L28 50L29 50L29 48L34 48L34 50L35 50L35 49L36 49L36 51L35 51L35 52L34 52L34 51L33 51L33 49L30 49L30 50L31 50L31 51L29 51L29 52L31 52L31 51L32 51L32 54L30 54L30 55L28 55L28 59L27 59L27 61L26 61L26 62L27 62L27 61L28 61L28 59L29 59L29 57L30 57L30 56L31 56L31 55L32 55L32 57L33 57L33 55L35 55L35 56L37 56L37 55L39 55L39 52L38 52L38 53L37 53L37 55L35 55L35 54L36 54L36 53L35 53L35 52L37 52L37 51L39 51L39 50L38 50L38 49L37 49L37 48L36 48L36 47L37 47L37 46L38 46L38 45L39 45L39 47L38 47L38 48L39 48L39 47L41 47L41 48L40 48L40 51L41 51L41 49L42 49L42 45L41 45L41 46L40 46L40 45L39 45L39 44L38 44L38 43L41 43L41 44L43 44L43 45L44 45L44 46L43 46L43 47L44 47L44 48L43 48L43 49L44 49L44 50L45 50L45 49L44 49L44 48L45 48L45 47L47 47L47 48L48 48L48 47L47 47L47 45L46 45L46 46L45 46L45 45L44 45L44 44L45 44L45 43L46 43L46 44L48 44L48 41L47 41L47 39L48 39L48 40L50 40L50 39L51 39L51 40L52 40L52 41L51 41L51 42L50 42L50 41L49 41L49 42L50 42L50 44L49 44L49 45L50 45L50 44L52 44L52 47L51 47L51 48L52 48L52 49L53 49L53 48L54 48L54 45L53 45L53 44L52 44L52 43L51 43L51 42L52 42L52 41L53 41L53 40L52 40L52 38L50 38L50 37L51 37L51 36L52 36L52 35L51 35L51 36L49 36L49 35L50 35L50 33L51 33L51 32L52 32L52 31L51 31L51 30L52 30L52 29L53 29L53 28L52 28L52 27L51 27L51 26L53 26L53 27L54 27L54 25L53 25L53 24L52 24L52 25L51 25L51 26L50 26L50 25L49 25L49 26L47 26L47 25L48 25L48 23ZM63 23L63 25L62 25L62 26L61 26L61 24L60 24L60 25L59 25L59 26L58 26L58 27L61 27L61 28L62 28L62 27L63 27L63 25L64 25L64 24L65 24L65 23ZM9 25L9 26L10 26L10 25ZM12 25L12 26L14 26L14 27L15 27L15 26L14 26L14 25ZM17 25L17 26L19 26L19 27L20 27L20 25ZM6 26L6 27L7 27L7 26ZM37 26L37 27L38 27L38 26ZM21 27L21 28L22 28L22 27ZM50 27L50 28L51 28L51 29L52 29L52 28L51 28L51 27ZM36 28L36 30L37 30L37 28ZM58 28L58 29L59 29L59 28ZM63 28L63 29L62 29L62 30L64 30L64 28ZM33 29L33 31L34 31L34 30L35 30L35 29ZM6 30L6 31L7 31L7 30ZM29 30L29 31L30 31L30 30ZM3 31L3 32L4 32L4 31ZM19 32L19 33L20 33L20 32ZM5 33L5 36L8 36L8 33ZM22 33L22 34L21 34L21 35L22 35L22 36L23 36L23 35L22 35L22 34L27 34L27 35L26 35L26 37L27 37L27 38L25 38L25 39L27 39L27 40L26 40L26 43L28 43L28 44L30 44L30 45L29 45L29 46L30 46L30 45L31 45L31 46L32 46L32 47L33 47L33 45L34 45L34 46L35 46L35 47L36 47L36 46L35 46L35 45L34 45L34 44L35 44L35 43L36 43L36 41L37 41L37 40L36 40L36 41L35 41L35 42L34 42L34 44L33 44L33 45L32 45L32 43L33 43L33 42L32 42L32 41L34 41L34 39L33 39L33 38L32 38L32 40L31 40L31 41L30 41L30 42L28 42L28 41L27 41L27 40L28 40L28 39L27 39L27 38L28 38L28 37L27 37L27 35L28 35L28 34L29 34L29 33ZM33 33L33 36L36 36L36 33ZM45 33L45 34L44 34L44 37L45 37L45 38L43 38L43 37L42 37L42 39L41 39L41 41L40 41L40 38L39 38L39 37L40 37L40 35L39 35L39 36L38 36L38 37L37 37L37 39L38 39L38 38L39 38L39 41L38 41L38 42L43 42L43 39L45 39L45 40L44 40L44 43L43 43L43 44L44 44L44 43L45 43L45 42L46 42L46 37L47 37L47 38L49 38L49 36L47 36L47 34L46 34L46 33ZM61 33L61 36L64 36L64 33ZM6 34L6 35L7 35L7 34ZM34 34L34 35L35 35L35 34ZM45 34L45 37L46 37L46 34ZM62 34L62 35L63 35L63 34ZM10 37L10 38L9 38L9 39L7 39L7 40L6 40L6 41L7 41L7 40L11 40L11 37ZM19 37L19 38L18 38L18 39L20 39L20 37ZM61 37L61 38L62 38L62 39L64 39L64 38L65 38L65 37L63 37L63 38L62 38L62 37ZM24 40L24 41L25 41L25 40ZM57 40L57 41L58 41L58 42L60 42L60 43L61 43L61 41L62 41L62 40L59 40L59 41L58 41L58 40ZM63 40L63 41L64 41L64 40ZM10 41L10 42L11 42L11 41ZM6 42L6 43L7 43L7 42ZM30 42L30 43L32 43L32 42ZM6 44L6 45L7 45L7 44ZM21 44L21 45L22 45L22 44ZM36 44L36 45L37 45L37 44ZM9 46L9 47L10 47L10 46ZM13 46L13 47L14 47L14 46ZM44 46L44 47L45 47L45 46ZM55 46L55 47L56 47L56 46ZM5 47L5 48L7 48L7 47ZM49 47L49 48L50 48L50 47ZM52 47L52 48L53 48L53 47ZM60 47L60 48L61 48L61 47ZM55 48L55 49L56 49L56 48ZM68 48L68 49L69 49L69 48ZM3 50L3 51L4 51L4 50ZM42 50L42 51L43 51L43 53L44 53L44 51L43 51L43 50ZM56 50L56 51L58 51L58 50ZM60 51L60 52L61 52L61 51ZM3 52L3 53L7 53L7 52ZM33 53L33 54L32 54L32 55L33 55L33 54L34 54L34 53ZM26 54L26 55L27 55L27 54ZM60 54L60 55L61 55L61 56L62 56L62 57L63 57L63 58L64 58L64 57L63 57L63 56L64 56L64 55L61 55L61 54ZM51 55L51 57L50 57L50 59L51 59L51 57L52 57L52 56L53 56L53 55ZM22 58L22 59L21 59L21 60L24 60L24 59L23 59L23 58ZM10 59L10 61L9 61L9 62L10 62L10 61L11 61L11 59ZM57 59L57 60L58 60L58 61L59 61L59 60L58 60L58 59ZM3 60L3 61L5 61L5 60ZM39 60L39 62L38 62L38 61L37 61L37 63L38 63L38 64L37 64L37 65L36 65L36 66L37 66L37 65L38 65L38 64L39 64L39 63L40 63L40 62L41 62L41 60ZM50 60L50 62L51 62L51 61L52 61L52 60ZM33 61L33 64L36 64L36 61ZM61 61L61 64L64 64L64 61ZM17 62L17 63L18 63L18 62ZM34 62L34 63L35 63L35 62ZM42 62L42 63L43 63L43 62ZM62 62L62 63L63 63L63 62ZM50 63L50 64L51 64L51 63ZM12 65L12 66L13 66L13 65ZM25 66L25 67L26 67L26 66ZM54 66L54 67L55 67L55 66ZM57 67L57 68L56 68L56 69L57 69L57 68L58 68L58 67ZM36 68L36 69L37 69L37 68ZM47 68L47 69L50 69L50 68ZM68 68L68 69L69 69L69 68ZM0 0L0 7L7 7L7 0ZM1 1L1 6L6 6L6 1ZM2 2L2 5L5 5L5 2ZM62 0L62 7L69 7L69 0ZM63 1L63 6L68 6L68 1ZM64 2L64 5L67 5L67 2ZM0 62L0 69L7 69L7 62ZM1 63L1 68L6 68L6 63ZM2 64L2 67L5 67L5 64Z" fill="#000000"/></g></g></svg>
