<?xml version="1.0" encoding="UTF-8"?>
<svg xmlns="http://www.w3.org/2000/svg" version="1.1" width="300" height="300" viewBox="0 0 300 300"><rect x="0" y="0" width="300" height="300" fill="#ffffff"/><g transform="scale(4.348)"><g transform="translate(0,0)"><path fill-rule="evenodd" d="M8 0L8 1L9 1L9 2L8 2L8 5L9 5L9 4L11 4L11 5L12 5L12 7L13 7L13 8L11 8L11 6L10 6L10 11L8 11L8 10L9 10L9 8L8 8L8 10L6 10L6 9L7 9L7 8L6 8L6 9L5 9L5 10L6 10L6 11L4 11L4 8L0 8L0 10L1 10L1 9L3 9L3 11L0 11L0 12L2 12L2 13L3 13L3 14L2 14L2 17L3 17L3 15L4 15L4 17L5 17L5 18L4 18L4 19L2 19L2 18L0 18L0 21L1 21L1 19L2 19L2 21L3 21L3 22L0 22L0 23L3 23L3 22L4 22L4 23L5 23L5 24L3 24L3 25L4 25L4 26L5 26L5 27L7 27L7 28L5 28L5 29L4 29L4 27L3 27L3 26L2 26L2 24L1 24L1 26L0 26L0 27L3 27L3 28L0 28L0 32L1 32L1 31L2 31L2 34L1 34L1 35L0 35L0 36L1 36L1 37L2 37L2 36L3 36L3 37L4 37L4 38L3 38L3 39L2 39L2 40L1 40L1 38L0 38L0 41L2 41L2 43L1 43L1 42L0 42L0 43L1 43L1 44L0 44L0 45L1 45L1 46L0 46L0 48L1 48L1 46L3 46L3 45L2 45L2 43L3 43L3 44L4 44L4 45L5 45L5 44L6 44L6 45L9 45L9 46L10 46L10 44L9 44L9 43L8 43L8 44L6 44L6 43L7 43L7 42L8 42L8 41L7 41L7 40L6 40L6 39L8 39L8 40L9 40L9 41L10 41L10 42L11 42L11 45L12 45L12 46L11 46L11 47L8 47L8 46L6 46L6 47L5 47L5 49L4 49L4 48L3 48L3 47L2 47L2 49L3 49L3 50L1 50L1 49L0 49L0 51L1 51L1 52L0 52L0 53L1 53L1 52L2 52L2 53L3 53L3 54L2 54L2 55L1 55L1 54L0 54L0 61L1 61L1 57L2 57L2 59L3 59L3 54L4 54L4 59L7 59L7 58L9 58L9 59L8 59L8 62L9 62L9 63L10 63L10 64L9 64L9 65L8 65L8 69L10 69L10 68L11 68L11 66L12 66L12 64L11 64L11 63L14 63L14 64L15 64L15 65L13 65L13 66L15 66L15 67L14 67L14 69L15 69L15 67L16 67L16 69L18 69L18 64L19 64L19 67L20 67L20 68L19 68L19 69L25 69L25 67L26 67L26 64L27 64L27 63L30 63L30 62L31 62L31 65L30 65L30 66L28 66L28 65L27 65L27 68L29 68L29 69L30 69L30 67L32 67L32 68L33 68L33 69L34 69L34 67L33 67L33 66L35 66L35 67L37 67L37 63L39 63L39 66L38 66L38 68L39 68L39 69L43 69L43 68L41 68L41 66L42 66L42 65L40 65L40 64L41 64L41 62L39 62L39 61L40 61L40 60L41 60L41 61L42 61L42 60L41 60L41 59L42 59L42 58L43 58L43 56L41 56L41 55L40 55L40 56L39 56L39 55L37 55L37 56L39 56L39 58L38 58L38 57L36 57L36 56L35 56L35 55L34 55L34 56L33 56L33 54L35 54L35 53L33 53L33 52L31 52L31 51L33 51L33 48L32 48L32 47L31 47L31 48L29 48L29 46L31 46L31 45L30 45L30 44L32 44L32 45L33 45L33 46L34 46L34 47L35 47L35 48L37 48L37 49L36 49L36 50L40 50L40 49L39 49L39 48L37 48L37 47L40 47L40 48L42 48L42 49L44 49L44 48L43 48L43 45L42 45L42 44L41 44L41 45L40 45L40 44L39 44L39 42L40 42L40 43L43 43L43 44L45 44L45 45L44 45L44 46L45 46L45 47L46 47L46 48L45 48L45 50L44 50L44 52L43 52L43 51L42 51L42 52L41 52L41 51L35 51L35 50L34 50L34 51L35 51L35 52L39 52L39 53L38 53L38 54L39 54L39 53L40 53L40 54L42 54L42 55L43 55L43 54L44 54L44 55L46 55L46 54L47 54L47 50L46 50L46 48L47 48L47 49L49 49L49 52L50 52L50 53L52 53L52 51L51 51L51 50L53 50L53 49L54 49L54 48L55 48L55 50L54 50L54 51L55 51L55 52L54 52L54 53L57 53L57 54L56 54L56 55L55 55L55 56L57 56L57 57L56 57L56 59L55 59L55 57L54 57L54 56L51 56L51 55L49 55L49 53L48 53L48 55L47 55L47 57L48 57L48 58L49 58L49 59L48 59L48 60L47 60L47 59L46 59L46 60L45 60L45 61L44 61L44 60L43 60L43 62L45 62L45 63L44 63L44 64L43 64L43 65L45 65L45 63L46 63L46 62L45 62L45 61L46 61L46 60L47 60L47 61L49 61L49 62L48 62L48 64L49 64L49 65L50 65L50 64L51 64L51 65L52 65L52 66L51 66L51 67L50 67L50 66L47 66L47 65L46 65L46 68L45 68L45 69L48 69L48 67L50 67L50 68L49 68L49 69L54 69L54 67L55 67L55 69L56 69L56 65L57 65L57 66L58 66L58 67L57 67L57 69L60 69L60 68L63 68L63 66L64 66L64 65L67 65L67 66L66 66L66 67L67 67L67 66L68 66L68 65L69 65L69 63L65 63L65 61L66 61L66 59L65 59L65 58L64 58L64 59L65 59L65 60L63 60L63 58L62 58L62 57L63 57L63 56L62 56L62 54L61 54L61 52L65 52L65 51L61 51L61 50L63 50L63 49L61 49L61 48L63 48L63 46L62 46L62 45L66 45L66 46L65 46L65 47L64 47L64 49L65 49L65 48L66 48L66 46L67 46L67 48L68 48L68 49L67 49L67 50L66 50L66 53L67 53L67 52L68 52L68 54L67 54L67 56L69 56L69 55L68 55L68 54L69 54L69 52L68 52L68 51L67 51L67 50L68 50L68 49L69 49L69 46L68 46L68 45L69 45L69 43L68 43L68 42L69 42L69 41L67 41L67 39L66 39L66 38L67 38L67 37L68 37L68 38L69 38L69 37L68 37L68 36L69 36L69 32L65 32L65 31L64 31L64 27L65 27L65 28L66 28L66 30L67 30L67 31L68 31L68 28L69 28L69 27L68 27L68 28L67 28L67 26L65 26L65 25L68 25L68 26L69 26L69 21L67 21L67 20L69 20L69 19L68 19L68 18L69 18L69 17L68 17L68 16L69 16L69 15L68 15L68 16L67 16L67 15L66 15L66 14L69 14L69 8L68 8L68 10L65 10L65 9L67 9L67 8L64 8L64 10L63 10L63 11L62 11L62 10L61 10L61 9L62 9L62 8L60 8L60 7L61 7L61 6L60 6L60 7L59 7L59 4L56 4L56 3L57 3L57 2L55 2L55 1L56 1L56 0L53 0L53 1L52 1L52 3L53 3L53 1L54 1L54 3L55 3L55 6L54 6L54 7L53 7L53 6L52 6L52 7L51 7L51 5L53 5L53 4L50 4L50 3L48 3L48 2L46 2L46 1L45 1L45 0L44 0L44 2L43 2L43 3L42 3L42 4L43 4L43 6L42 6L42 5L41 5L41 4L38 4L38 1L37 1L37 3L35 3L35 2L36 2L36 0L33 0L33 1L35 1L35 2L33 2L33 3L35 3L35 4L31 4L31 2L29 2L29 1L30 1L30 0L28 0L28 2L27 2L27 1L25 1L25 0L23 0L23 2L21 2L21 1L19 1L19 0L17 0L17 1L16 1L16 0L14 0L14 1L16 1L16 2L15 2L15 3L16 3L16 2L17 2L17 3L18 3L18 5L19 5L19 6L18 6L18 7L19 7L19 6L20 6L20 7L21 7L21 8L19 8L19 9L18 9L18 8L17 8L17 9L16 9L16 7L17 7L17 5L16 5L16 7L15 7L15 6L14 6L14 5L15 5L15 4L13 4L13 5L12 5L12 3L9 3L9 2L13 2L13 3L14 3L14 2L13 2L13 1L10 1L10 0ZM31 0L31 1L32 1L32 0ZM41 0L41 1L40 1L40 2L42 2L42 1L43 1L43 0ZM48 0L48 1L49 1L49 2L51 2L51 1L50 1L50 0ZM58 0L58 1L61 1L61 0ZM17 1L17 2L18 2L18 3L19 3L19 4L20 4L20 3L21 3L21 4L23 4L23 3L24 3L24 6L23 6L23 7L22 7L22 5L21 5L21 7L22 7L22 8L21 8L21 9L20 9L20 11L21 11L21 15L20 15L20 16L19 16L19 15L17 15L17 12L19 12L19 13L18 13L18 14L19 14L19 13L20 13L20 12L19 12L19 11L18 11L18 9L17 9L17 12L16 12L16 9L14 9L14 8L13 8L13 9L11 9L11 10L13 10L13 11L12 11L12 12L8 12L8 11L6 11L6 12L5 12L5 13L6 13L6 14L5 14L5 15L6 15L6 16L7 16L7 15L6 15L6 14L7 14L7 13L6 13L6 12L8 12L8 13L9 13L9 14L8 14L8 16L9 16L9 15L10 15L10 13L12 13L12 14L11 14L11 15L12 15L12 16L15 16L15 17L11 17L11 18L10 18L10 17L9 17L9 18L8 18L8 17L6 17L6 18L7 18L7 19L5 19L5 21L6 21L6 22L10 22L10 21L11 21L11 18L13 18L13 19L12 19L12 20L15 20L15 22L16 22L16 20L18 20L18 21L17 21L17 23L16 23L16 25L17 25L17 26L15 26L15 23L14 23L14 24L13 24L13 25L14 25L14 26L13 26L13 27L12 27L12 23L13 23L13 22L14 22L14 21L12 21L12 22L11 22L11 23L10 23L10 25L9 25L9 23L8 23L8 25L6 25L6 24L7 24L7 23L6 23L6 24L5 24L5 25L6 25L6 26L7 26L7 27L9 27L9 29L8 29L8 28L7 28L7 29L6 29L6 30L7 30L7 29L8 29L8 31L9 31L9 29L11 29L11 28L12 28L12 29L15 29L15 28L16 28L16 29L18 29L18 30L17 30L17 31L16 31L16 30L10 30L10 32L9 32L9 34L11 34L11 35L12 35L12 36L11 36L11 37L13 37L13 38L11 38L11 40L10 40L10 41L12 41L12 39L13 39L13 40L15 40L15 39L16 39L16 38L17 38L17 40L16 40L16 41L15 41L15 42L14 42L14 41L13 41L13 42L14 42L14 44L13 44L13 43L12 43L12 45L14 45L14 46L13 46L13 47L12 47L12 48L11 48L11 49L14 49L14 51L13 51L13 53L14 53L14 51L16 51L16 52L15 52L15 53L16 53L16 52L17 52L17 55L18 55L18 53L19 53L19 56L18 56L18 57L19 57L19 56L22 56L22 58L21 58L21 57L20 57L20 59L18 59L18 58L17 58L17 59L16 59L16 55L15 55L15 54L12 54L12 53L11 53L11 52L12 52L12 50L11 50L11 51L10 51L10 53L9 53L9 50L8 50L8 49L9 49L9 48L8 48L8 47L6 47L6 48L8 48L8 49L6 49L6 50L7 50L7 51L6 51L6 52L7 52L7 51L8 51L8 54L9 54L9 56L8 56L8 57L9 57L9 56L10 56L10 53L11 53L11 55L12 55L12 56L11 56L11 57L10 57L10 58L12 58L12 59L9 59L9 61L10 61L10 60L13 60L13 59L14 59L14 61L12 61L12 62L15 62L15 63L16 63L16 62L17 62L17 63L19 63L19 64L20 64L20 63L19 63L19 62L17 62L17 60L19 60L19 61L23 61L23 62L24 62L24 63L22 63L22 62L21 62L21 63L22 63L22 65L24 65L24 66L25 66L25 64L26 64L26 62L25 62L25 60L26 60L26 61L28 61L28 62L29 62L29 59L30 59L30 60L31 60L31 62L32 62L32 60L37 60L37 61L39 61L39 60L40 60L40 58L39 58L39 59L36 59L36 58L35 58L35 59L34 59L34 58L29 58L29 57L31 57L31 56L32 56L32 53L31 53L31 52L29 52L29 51L30 51L30 50L31 50L31 49L32 49L32 48L31 48L31 49L29 49L29 48L27 48L27 47L26 47L26 45L27 45L27 46L29 46L29 43L33 43L33 44L34 44L34 43L33 43L33 42L31 42L31 41L33 41L33 39L34 39L34 42L35 42L35 44L36 44L36 45L37 45L37 43L38 43L38 42L39 42L39 41L37 41L37 42L35 42L35 39L37 39L37 40L38 40L38 39L39 39L39 38L40 38L40 39L41 39L41 40L40 40L40 42L41 42L41 41L42 41L42 42L43 42L43 43L44 43L44 42L45 42L45 43L46 43L46 46L47 46L47 44L48 44L48 45L49 45L49 44L48 44L48 43L46 43L46 42L45 42L45 41L43 41L43 40L45 40L45 39L47 39L47 40L46 40L46 41L47 41L47 42L48 42L48 41L49 41L49 42L50 42L50 43L52 43L52 44L54 44L54 45L55 45L55 46L51 46L51 45L50 45L50 46L49 46L49 47L52 47L52 49L53 49L53 48L54 48L54 47L55 47L55 46L56 46L56 50L55 50L55 51L56 51L56 52L58 52L58 53L59 53L59 55L58 55L58 56L59 56L59 57L57 57L57 58L58 58L58 59L56 59L56 61L54 61L54 58L53 58L53 57L52 57L52 58L51 58L51 57L50 57L50 58L51 58L51 59L52 59L52 60L51 60L51 62L50 62L50 63L51 63L51 62L52 62L52 61L53 61L53 63L52 63L52 65L53 65L53 63L55 63L55 64L54 64L54 66L55 66L55 64L57 64L57 65L59 65L59 66L61 66L61 67L62 67L62 66L63 66L63 65L62 65L62 66L61 66L61 65L59 65L59 64L57 64L57 62L58 62L58 63L59 63L59 61L60 61L60 60L59 60L59 58L60 58L60 59L61 59L61 60L62 60L62 59L61 59L61 57L62 57L62 56L59 56L59 55L60 55L60 53L59 53L59 52L61 52L61 51L59 51L59 50L60 50L60 48L59 48L59 46L61 46L61 44L63 44L63 43L64 43L64 44L66 44L66 45L68 45L68 44L67 44L67 43L65 43L65 42L66 42L66 39L65 39L65 42L64 42L64 41L63 41L63 38L65 38L65 37L66 37L66 36L67 36L67 35L66 35L66 36L65 36L65 37L60 37L60 34L59 34L59 33L60 33L60 32L59 32L59 31L61 31L61 32L63 32L63 27L64 27L64 25L65 25L65 24L64 24L64 23L65 23L65 22L66 22L66 24L67 24L67 21L66 21L66 20L67 20L67 19L65 19L65 18L66 18L66 17L67 17L67 18L68 18L68 17L67 17L67 16L66 16L66 17L65 17L65 14L64 14L64 13L68 13L68 12L67 12L67 11L66 11L66 12L65 12L65 10L64 10L64 11L63 11L63 12L62 12L62 13L61 13L61 11L58 11L58 10L59 10L59 9L57 9L57 7L58 7L58 8L59 8L59 7L58 7L58 5L56 5L56 6L55 6L55 7L54 7L54 8L53 8L53 7L52 7L52 8L53 8L53 9L51 9L51 8L49 8L49 7L50 7L50 4L48 4L48 5L47 5L47 3L46 3L46 5L45 5L45 8L44 8L44 6L43 6L43 9L45 9L45 10L46 10L46 11L47 11L47 12L48 12L48 11L47 11L47 9L46 9L46 8L48 8L48 9L49 9L49 10L50 10L50 11L49 11L49 13L46 13L46 12L44 12L44 10L43 10L43 12L41 12L41 13L42 13L42 14L43 14L43 15L41 15L41 14L40 14L40 11L42 11L42 10L40 10L40 9L39 9L39 8L41 8L41 9L42 9L42 8L41 8L41 7L42 7L42 6L41 6L41 7L40 7L40 5L38 5L38 4L37 4L37 7L38 7L38 6L39 6L39 8L37 8L37 9L38 9L38 10L37 10L37 11L38 11L38 12L39 12L39 14L38 14L38 15L37 15L37 12L36 12L36 9L33 9L33 11L32 11L32 13L30 13L30 15L29 15L29 11L30 11L30 12L31 12L31 11L30 11L30 9L28 9L28 8L29 8L29 7L30 7L30 6L29 6L29 7L28 7L28 5L29 5L29 2L28 2L28 5L27 5L27 2L25 2L25 1L24 1L24 2L23 2L23 3L21 3L21 2L20 2L20 3L19 3L19 2L18 2L18 1ZM24 2L24 3L25 3L25 2ZM58 2L58 3L59 3L59 2ZM44 3L44 4L45 4L45 3ZM60 3L60 5L61 5L61 3ZM25 4L25 6L24 6L24 7L23 7L23 8L22 8L22 9L23 9L23 13L22 13L22 16L20 16L20 19L19 19L19 18L18 18L18 19L19 19L19 20L20 20L20 19L21 19L21 23L23 23L23 24L22 24L22 25L23 25L23 27L24 27L24 28L23 28L23 29L22 29L22 27L21 27L21 24L20 24L20 25L19 25L19 24L17 24L17 25L19 25L19 26L17 26L17 27L16 27L16 28L18 28L18 27L21 27L21 28L19 28L19 29L22 29L22 31L21 31L21 30L18 30L18 31L21 31L21 34L19 34L19 33L17 33L17 34L16 34L16 35L15 35L15 32L16 32L16 31L13 31L13 32L12 32L12 31L11 31L11 32L10 32L10 33L11 33L11 32L12 32L12 35L13 35L13 36L14 36L14 37L15 37L15 38L14 38L14 39L15 39L15 38L16 38L16 37L19 37L19 38L18 38L18 39L19 39L19 41L18 41L18 40L17 40L17 41L16 41L16 42L17 42L17 44L16 44L16 45L18 45L18 43L19 43L19 41L21 41L21 42L20 42L20 43L23 43L23 42L25 42L25 41L28 41L28 42L26 42L26 43L24 43L24 44L21 44L21 47L20 47L20 48L21 48L21 50L20 50L20 49L19 49L19 51L18 51L18 48L19 48L19 46L20 46L20 44L19 44L19 46L18 46L18 48L17 48L17 50L16 50L16 49L15 49L15 50L16 50L16 51L17 51L17 52L20 52L20 53L21 53L21 54L20 54L20 55L21 55L21 54L22 54L22 56L23 56L23 57L24 57L24 58L25 58L25 59L26 59L26 58L27 58L27 59L29 59L29 58L27 58L27 57L29 57L29 56L28 56L28 55L29 55L29 54L30 54L30 55L31 55L31 54L30 54L30 53L29 53L29 52L28 52L28 51L29 51L29 50L27 50L27 49L25 49L25 47L24 47L24 46L25 46L25 45L24 45L24 44L27 44L27 43L29 43L29 39L31 39L31 40L30 40L30 41L31 41L31 40L32 40L32 39L33 39L33 38L29 38L29 39L27 39L27 38L28 38L28 35L29 35L29 37L36 37L36 38L37 38L37 37L38 37L38 38L39 38L39 37L38 37L38 35L39 35L39 36L41 36L41 37L42 37L42 35L43 35L43 38L41 38L41 39L43 39L43 38L44 38L44 39L45 39L45 38L46 38L46 37L47 37L47 39L48 39L48 40L50 40L50 41L51 41L51 40L50 40L50 39L52 39L52 40L53 40L53 42L52 42L52 43L55 43L55 42L54 42L54 40L53 40L53 38L51 38L51 36L49 36L49 34L50 34L50 35L51 35L51 34L50 34L50 33L53 33L53 35L52 35L52 36L54 36L54 37L55 37L55 38L54 38L54 39L55 39L55 38L58 38L58 39L59 39L59 38L58 38L58 37L56 37L56 36L59 36L59 34L58 34L58 35L55 35L55 31L56 31L56 32L57 32L57 33L56 33L56 34L57 34L57 33L59 33L59 32L57 32L57 31L59 31L59 30L60 30L60 28L61 28L61 27L60 27L60 26L59 26L59 27L58 27L58 29L57 29L57 28L55 28L55 27L57 27L57 26L58 26L58 25L61 25L61 26L62 26L62 27L63 27L63 25L61 25L61 23L63 23L63 22L62 22L62 21L61 21L61 20L60 20L60 19L61 19L61 18L60 18L60 17L64 17L64 15L63 15L63 13L62 13L62 16L59 16L59 17L57 17L57 16L58 16L58 15L59 15L59 14L58 14L58 13L59 13L59 12L58 12L58 13L57 13L57 14L55 14L55 16L53 16L53 17L52 17L52 16L51 16L51 17L52 17L52 18L50 18L50 16L49 16L49 15L54 15L54 14L53 14L53 13L52 13L52 10L51 10L51 11L50 11L50 13L49 13L49 14L48 14L48 16L49 16L49 18L48 18L48 17L47 17L47 16L46 16L46 15L45 15L45 14L46 14L46 13L44 13L44 12L43 12L43 13L44 13L44 16L43 16L43 18L42 18L42 16L41 16L41 17L40 17L40 14L39 14L39 20L38 20L38 19L37 19L37 18L36 18L36 17L34 17L34 15L35 15L35 16L36 16L36 14L33 14L33 13L36 13L36 12L35 12L35 10L34 10L34 11L33 11L33 13L32 13L32 14L33 14L33 16L32 16L32 15L30 15L30 16L31 16L31 17L30 17L30 18L29 18L29 17L28 17L28 16L29 16L29 15L28 15L28 13L27 13L27 15L28 15L28 16L26 16L26 13L25 13L25 10L24 10L24 9L23 9L23 8L24 8L24 7L25 7L25 8L26 8L26 7L27 7L27 8L28 8L28 7L27 7L27 6L26 6L26 4ZM30 4L30 5L31 5L31 4ZM33 5L33 8L36 8L36 5ZM46 5L46 7L47 7L47 5ZM48 5L48 7L49 7L49 5ZM8 6L8 7L9 7L9 6ZM13 6L13 7L14 7L14 6ZM25 6L25 7L26 7L26 6ZM31 6L31 10L32 10L32 6ZM34 6L34 7L35 7L35 6ZM56 6L56 7L55 7L55 8L54 8L54 9L53 9L53 12L54 12L54 13L56 13L56 12L57 12L57 11L55 11L55 12L54 12L54 10L57 10L57 9L56 9L56 7L57 7L57 6ZM28 10L28 11L29 11L29 10ZM3 11L3 12L4 12L4 11ZM14 11L14 13L13 13L13 12L12 12L12 13L13 13L13 14L12 14L12 15L14 15L14 14L16 14L16 12L15 12L15 11ZM23 13L23 15L25 15L25 13ZM0 14L0 15L1 15L1 14ZM57 14L57 15L56 15L56 16L57 16L57 15L58 15L58 14ZM60 14L60 15L61 15L61 14ZM15 15L15 16L17 16L17 15ZM0 16L0 17L1 17L1 16ZM18 16L18 17L19 17L19 16ZM22 16L22 17L21 17L21 18L23 18L23 19L22 19L22 20L24 20L24 21L25 21L25 20L26 20L26 21L27 21L27 22L26 22L26 23L25 23L25 22L24 22L24 24L26 24L26 25L24 25L24 27L25 27L25 28L24 28L24 30L23 30L23 31L22 31L22 32L23 32L23 31L25 31L25 34L27 34L27 35L26 35L26 38L27 38L27 35L28 35L28 31L29 31L29 32L30 32L30 33L29 33L29 34L30 34L30 33L31 33L31 35L32 35L32 33L31 33L31 31L33 31L33 30L32 30L32 29L33 29L33 28L34 28L34 30L35 30L35 27L38 27L38 28L36 28L36 30L38 30L38 32L37 32L37 33L38 33L38 34L37 34L37 35L38 35L38 34L40 34L40 33L38 33L38 32L40 32L40 31L41 31L41 33L42 33L42 32L43 32L43 35L45 35L45 34L46 34L46 35L47 35L47 36L48 36L48 35L47 35L47 30L44 30L44 29L43 29L43 28L44 28L44 25L46 25L46 26L45 26L45 29L49 29L49 32L48 32L48 33L50 33L50 31L51 31L51 32L52 32L52 31L53 31L53 29L54 29L54 30L55 30L55 28L53 28L53 27L55 27L55 26L57 26L57 25L58 25L58 24L59 24L59 23L57 23L57 24L56 24L56 25L55 25L55 24L53 24L53 22L52 22L52 23L49 23L49 25L48 25L48 24L47 24L47 25L46 25L46 23L48 23L48 22L47 22L47 19L46 19L46 16L45 16L45 17L44 17L44 18L43 18L43 19L41 19L41 21L44 21L44 22L42 22L42 24L39 24L39 25L40 25L40 26L39 26L39 27L38 27L38 26L37 26L37 24L36 24L36 23L38 23L38 22L35 22L35 21L36 21L36 20L35 20L35 18L34 18L34 17L33 17L33 18L32 18L32 17L31 17L31 18L32 18L32 19L33 19L33 18L34 18L34 22L33 22L33 21L32 21L32 22L31 22L31 20L30 20L30 21L27 21L27 20L29 20L29 18L28 18L28 17L26 17L26 16ZM15 17L15 20L16 20L16 17ZM23 17L23 18L24 18L24 19L25 19L25 18L24 18L24 17ZM54 17L54 18L56 18L56 21L55 21L55 22L54 22L54 23L55 23L55 22L57 22L57 18L56 18L56 17ZM9 18L9 19L8 19L8 20L6 20L6 21L8 21L8 20L9 20L9 19L10 19L10 18ZM44 18L44 20L45 20L45 21L46 21L46 19L45 19L45 18ZM62 18L62 20L63 20L63 21L65 21L65 20L64 20L64 19L63 19L63 18ZM26 19L26 20L27 20L27 19ZM51 19L51 20L48 20L48 21L50 21L50 22L51 22L51 20L52 20L52 19ZM53 19L53 21L54 21L54 19ZM58 19L58 22L60 22L60 23L61 23L61 22L60 22L60 21L59 21L59 19ZM19 21L19 23L20 23L20 21ZM22 21L22 22L23 22L23 21ZM28 22L28 23L27 23L27 24L28 24L28 23L29 23L29 24L30 24L30 25L31 25L31 24L30 24L30 22ZM32 22L32 23L33 23L33 24L32 24L32 25L34 25L34 26L35 26L35 25L36 25L36 24L35 24L35 22L34 22L34 23L33 23L33 22ZM39 22L39 23L40 23L40 22ZM43 23L43 24L42 24L42 25L44 25L44 23ZM8 25L8 26L9 26L9 27L10 27L10 26L11 26L11 25L10 25L10 26L9 26L9 25ZM26 25L26 26L27 26L27 28L25 28L25 29L27 29L27 30L25 30L25 31L28 31L28 30L29 30L29 31L31 31L31 30L30 30L30 29L27 29L27 28L28 28L28 27L30 27L30 26L28 26L28 25ZM50 25L50 27L49 27L49 29L51 29L51 30L52 30L52 28L51 28L51 26L52 26L52 27L53 27L53 25ZM31 26L31 28L33 28L33 27L32 27L32 26ZM41 26L41 27L42 27L42 28L41 28L41 29L39 29L39 28L38 28L38 29L39 29L39 31L40 31L40 30L41 30L41 29L42 29L42 28L43 28L43 27L42 27L42 26ZM46 26L46 27L48 27L48 26ZM3 29L3 30L2 30L2 31L4 31L4 32L3 32L3 33L4 33L4 32L5 32L5 30L4 30L4 29ZM56 29L56 31L57 31L57 29ZM43 30L43 31L44 31L44 30ZM61 30L61 31L62 31L62 30ZM6 31L6 32L7 32L7 31ZM35 31L35 32L36 32L36 31ZM13 32L13 33L14 33L14 32ZM26 32L26 33L27 33L27 32ZM45 32L45 33L44 33L44 34L45 34L45 33L46 33L46 32ZM53 32L53 33L54 33L54 32ZM5 33L5 36L8 36L8 33ZM22 33L22 34L23 34L23 35L22 35L22 36L21 36L21 35L20 35L20 36L19 36L19 35L18 35L18 34L17 34L17 36L19 36L19 37L22 37L22 38L21 38L21 41L23 41L23 40L24 40L24 41L25 41L25 40L27 40L27 39L25 39L25 40L24 40L24 39L22 39L22 38L23 38L23 35L24 35L24 38L25 38L25 35L24 35L24 34L23 34L23 33ZM33 33L33 36L36 36L36 33ZM61 33L61 36L64 36L64 33ZM66 33L66 34L68 34L68 33ZM2 34L2 35L3 35L3 34ZM6 34L6 35L7 35L7 34ZM34 34L34 35L35 35L35 34ZM62 34L62 35L63 35L63 34ZM9 35L9 36L10 36L10 35ZM54 35L54 36L55 36L55 35ZM44 36L44 38L45 38L45 36ZM6 37L6 38L8 38L8 39L9 39L9 38L8 38L8 37ZM48 37L48 39L49 39L49 37ZM19 38L19 39L20 39L20 38ZM4 39L4 40L5 40L5 39ZM56 39L56 40L55 40L55 41L57 41L57 42L56 42L56 44L57 44L57 45L56 45L56 46L57 46L57 50L58 50L58 46L57 46L57 45L59 45L59 44L61 44L61 43L62 43L62 42L61 42L61 41L60 41L60 40L59 40L59 41L57 41L57 39ZM61 39L61 40L62 40L62 39ZM68 39L68 40L69 40L69 39ZM4 41L4 44L5 44L5 42L7 42L7 41ZM58 42L58 43L61 43L61 42ZM34 45L34 46L35 46L35 45ZM38 45L38 46L39 46L39 45ZM41 45L41 47L42 47L42 45ZM15 46L15 48L16 48L16 47L17 47L17 46ZM36 46L36 47L37 47L37 46ZM23 47L23 48L22 48L22 49L23 49L23 51L24 51L24 50L25 50L25 49L23 49L23 48L24 48L24 47ZM49 48L49 49L50 49L50 48ZM3 50L3 51L2 51L2 52L4 52L4 53L5 53L5 56L7 56L7 55L6 55L6 54L7 54L7 53L5 53L5 51L4 51L4 50ZM21 51L21 52L22 52L22 53L24 53L24 54L25 54L25 56L24 56L24 57L25 57L25 58L26 58L26 57L27 57L27 55L28 55L28 54L27 54L27 53L24 53L24 52L22 52L22 51ZM26 51L26 52L27 52L27 51ZM45 51L45 53L46 53L46 51ZM58 51L58 52L59 52L59 51ZM40 52L40 53L41 53L41 52ZM42 52L42 54L43 54L43 52ZM36 53L36 54L37 54L37 53ZM63 53L63 54L65 54L65 55L64 55L64 57L66 57L66 56L65 56L65 55L66 55L66 54L65 54L65 53ZM26 54L26 55L27 55L27 54ZM52 54L52 55L54 55L54 54ZM13 55L13 57L14 57L14 58L15 58L15 57L14 57L14 55ZM48 55L48 57L49 57L49 55ZM45 56L45 57L46 57L46 56ZM5 57L5 58L7 58L7 57ZM44 58L44 59L45 59L45 58ZM52 58L52 59L53 59L53 58ZM67 58L67 59L68 59L68 60L67 60L67 61L69 61L69 58ZM15 59L15 62L16 62L16 59ZM21 59L21 60L23 60L23 61L24 61L24 60L23 60L23 59ZM3 60L3 61L5 61L5 60ZM6 60L6 61L7 61L7 60ZM33 61L33 64L36 64L36 61ZM56 61L56 62L55 62L55 63L56 63L56 62L57 62L57 61ZM61 61L61 64L64 64L64 61ZM10 62L10 63L11 63L11 62ZM34 62L34 63L35 63L35 62ZM62 62L62 63L63 63L63 62ZM24 63L24 64L25 64L25 63ZM10 64L10 65L9 65L9 67L10 67L10 66L11 66L11 64ZM67 64L67 65L68 65L68 64ZM15 65L15 66L16 66L16 65ZM20 65L20 67L21 67L21 68L22 68L22 67L21 67L21 65ZM39 66L39 68L40 68L40 66ZM44 66L44 67L45 67L45 66ZM12 67L12 68L13 68L13 67ZM23 67L23 68L24 68L24 67ZM51 67L51 68L53 68L53 67ZM59 67L59 68L60 68L60 67ZM64 67L64 69L66 69L66 68L65 68L65 67ZM68 67L68 68L69 68L69 67ZM0 0L0 7L7 7L7 0ZM1 1L1 6L6 6L6 1ZM2 2L2 5L5 5L5 2ZM62 0L62 7L69 7L69 0ZM63 1L63 6L68 6L68 1ZM64 2L64 5L67 5L67 2ZM0 62L0 69L7 69L7 62ZM1 63L1 68L6 68L6 63ZM2 64L2 67L5 67L5 64Z" fill="#000000"/></g></g></svg>
