<?xml version="1.0" encoding="UTF-8"?>
<svg xmlns="http://www.w3.org/2000/svg" version="1.1" width="300" height="300" viewBox="0 0 300 300"><rect x="0" y="0" width="300" height="300" fill="#ffffff"/><g transform="scale(4.348)"><g transform="translate(0,0)"><path fill-rule="evenodd" d="M10 0L10 1L8 1L8 2L9 2L9 3L8 3L8 4L9 4L9 3L12 3L12 5L11 5L11 6L10 6L10 7L9 7L9 5L8 5L8 7L9 7L9 8L6 8L6 9L7 9L7 10L6 10L6 11L4 11L4 9L5 9L5 8L0 8L0 9L2 9L2 10L3 10L3 12L2 12L2 11L1 11L1 12L2 12L2 13L0 13L0 14L2 14L2 13L3 13L3 16L4 16L4 17L2 17L2 16L1 16L1 17L0 17L0 20L1 20L1 21L2 21L2 20L3 20L3 21L5 21L5 23L4 23L4 22L2 22L2 23L3 23L3 24L1 24L1 27L2 27L2 29L5 29L5 31L8 31L8 32L3 32L3 34L2 34L2 31L1 31L1 33L0 33L0 37L1 37L1 34L2 34L2 39L1 39L1 38L0 38L0 40L1 40L1 42L0 42L0 47L1 47L1 48L2 48L2 49L3 49L3 48L4 48L4 49L5 49L5 50L6 50L6 51L7 51L7 52L6 52L6 53L5 53L5 52L4 52L4 50L1 50L1 49L0 49L0 51L3 51L3 52L0 52L0 61L1 61L1 58L2 58L2 59L3 59L3 57L4 57L4 59L7 59L7 60L6 60L6 61L8 61L8 63L9 63L9 64L8 64L8 69L9 69L9 67L10 67L10 69L11 69L11 68L12 68L12 69L14 69L14 68L15 68L15 69L16 69L16 68L17 68L17 69L19 69L19 67L20 67L20 66L19 66L19 65L20 65L20 63L21 63L21 64L23 64L23 66L25 66L25 69L26 69L26 68L27 68L27 67L28 67L28 68L29 68L29 69L32 69L32 68L30 68L30 67L33 67L33 69L35 69L35 68L36 68L36 69L38 69L38 68L37 68L37 67L39 67L39 66L37 66L37 67L35 67L35 66L36 66L36 65L38 65L38 61L39 61L39 62L40 62L40 59L41 59L41 58L42 58L42 60L41 60L41 62L42 62L42 63L43 63L43 62L44 62L44 59L43 59L43 57L44 57L44 56L46 56L46 57L48 57L48 58L47 58L47 59L50 59L50 60L45 60L45 61L47 61L47 62L45 62L45 63L44 63L44 64L41 64L41 63L39 63L39 64L41 64L41 66L40 66L40 67L41 67L41 66L44 66L44 68L43 68L43 67L42 67L42 68L41 68L41 69L42 69L42 68L43 68L43 69L44 69L44 68L47 68L47 69L49 69L49 68L50 68L50 69L51 69L51 68L50 68L50 64L52 64L52 63L53 63L53 64L54 64L54 63L55 63L55 62L56 62L56 64L55 64L55 65L51 65L51 67L53 67L53 69L56 69L56 68L57 68L57 67L56 67L56 66L55 66L55 65L56 65L56 64L57 64L57 65L59 65L59 64L60 64L60 66L59 66L59 67L60 67L60 69L61 69L61 68L62 68L62 69L68 69L68 68L67 68L67 67L66 67L66 66L67 66L67 65L66 65L66 66L65 66L65 64L67 64L67 63L68 63L68 64L69 64L69 63L68 63L68 62L69 62L69 60L68 60L68 57L69 57L69 56L68 56L68 57L67 57L67 59L66 59L66 57L65 57L65 58L64 58L64 59L65 59L65 60L60 60L60 59L62 59L62 58L63 58L63 57L64 57L64 56L67 56L67 55L68 55L68 54L69 54L69 53L68 53L68 54L67 54L67 55L62 55L62 54L61 54L61 53L62 53L62 52L63 52L63 53L64 53L64 52L63 52L63 51L65 51L65 54L66 54L66 53L67 53L67 52L68 52L68 50L69 50L69 47L68 47L68 46L69 46L69 44L68 44L68 41L69 41L69 40L67 40L67 39L68 39L68 36L69 36L69 35L68 35L68 34L69 34L69 31L68 31L68 30L69 30L69 29L68 29L68 28L69 28L69 27L66 27L66 26L69 26L69 23L68 23L68 22L66 22L66 21L68 21L68 18L69 18L69 16L68 16L68 14L69 14L69 13L68 13L68 14L65 14L65 13L64 13L64 14L62 14L62 13L63 13L63 10L62 10L62 8L61 8L61 6L60 6L60 7L59 7L59 4L56 4L56 3L54 3L54 1L57 1L57 3L59 3L59 2L58 2L58 1L61 1L61 0L58 0L58 1L57 1L57 0L54 0L54 1L53 1L53 3L54 3L54 4L52 4L52 5L49 5L49 4L50 4L50 3L52 3L52 2L50 2L50 0L49 0L49 2L50 2L50 3L48 3L48 2L47 2L47 6L46 6L46 5L44 5L44 3L45 3L45 4L46 4L46 3L45 3L45 2L44 2L44 3L43 3L43 0L41 0L41 1L38 1L38 0L36 0L36 1L34 1L34 0L33 0L33 1L32 1L32 2L31 2L31 1L30 1L30 0L28 0L28 1L27 1L27 2L28 2L28 3L27 3L27 4L24 4L24 3L23 3L23 4L22 4L22 3L20 3L20 4L19 4L19 3L16 3L16 5L15 5L15 4L13 4L13 2L11 2L11 0ZM13 0L13 1L14 1L14 3L15 3L15 1L16 1L16 0ZM17 0L17 2L20 2L20 1L19 1L19 0ZM21 0L21 1L22 1L22 0ZM23 0L23 1L24 1L24 2L25 2L25 3L26 3L26 2L25 2L25 0ZM44 0L44 1L45 1L45 0ZM33 1L33 4L35 4L35 3L36 3L36 2L34 2L34 1ZM41 1L41 3L39 3L39 2L37 2L37 3L38 3L38 4L37 4L37 5L38 5L38 6L37 6L37 7L38 7L38 15L36 15L36 16L37 16L37 17L38 17L38 19L39 19L39 18L41 18L41 17L42 17L42 16L44 16L44 17L43 17L43 20L42 20L42 19L41 19L41 20L39 20L39 21L41 21L41 20L42 20L42 21L43 21L43 20L44 20L44 22L42 22L42 23L43 23L43 24L44 24L44 25L43 25L43 26L46 26L46 28L43 28L43 29L44 29L44 30L42 30L42 27L38 27L38 29L37 29L37 30L40 30L40 31L43 31L43 32L38 32L38 31L35 31L35 32L38 32L38 35L37 35L37 36L38 36L38 37L34 37L34 38L33 38L33 39L34 39L34 38L38 38L38 39L37 39L37 40L33 40L33 41L34 41L34 42L32 42L32 40L31 40L31 39L32 39L32 38L30 38L30 37L29 37L29 36L31 36L31 37L32 37L32 36L31 36L31 35L30 35L30 34L29 34L29 36L28 36L28 35L26 35L26 34L28 34L28 33L29 33L29 32L28 32L28 33L25 33L25 32L26 32L26 31L25 31L25 30L24 30L24 33L23 33L23 32L22 32L22 31L23 31L23 30L22 30L22 31L21 31L21 29L23 29L23 28L24 28L24 27L23 27L23 26L24 26L24 25L22 25L22 24L21 24L21 23L22 23L22 22L23 22L23 20L25 20L25 19L26 19L26 21L25 21L25 23L23 23L23 24L26 24L26 26L27 26L27 27L25 27L25 28L26 28L26 30L27 30L27 31L29 31L29 29L28 29L28 28L31 28L31 29L30 29L30 30L31 30L31 31L30 31L30 32L31 32L31 34L32 34L32 32L34 32L34 31L33 31L33 30L34 30L34 29L35 29L35 30L36 30L36 28L35 28L35 27L36 27L36 26L35 26L35 22L33 22L33 23L32 23L32 25L31 25L31 27L30 27L30 26L29 26L29 25L30 25L30 24L29 24L29 25L27 25L27 24L28 24L28 23L30 23L30 22L31 22L31 21L33 21L33 20L34 20L34 21L38 21L38 20L37 20L37 19L35 19L35 14L36 14L36 13L37 13L37 10L36 10L36 9L35 9L35 10L34 10L34 9L33 9L33 10L32 10L32 8L31 8L31 7L32 7L32 5L30 5L30 6L29 6L29 7L28 7L28 5L29 5L29 3L30 3L30 2L29 2L29 3L28 3L28 4L27 4L27 5L24 5L24 4L23 4L23 5L22 5L22 4L20 4L20 5L19 5L19 4L17 4L17 5L18 5L18 6L17 6L17 7L16 7L16 6L15 6L15 5L14 5L14 6L13 6L13 5L12 5L12 6L11 6L11 7L10 7L10 9L11 9L11 11L6 11L6 12L4 12L4 13L6 13L6 14L9 14L9 15L8 15L8 18L7 18L7 17L6 17L6 16L7 16L7 15L5 15L5 14L4 14L4 16L5 16L5 17L4 17L4 18L3 18L3 20L4 20L4 19L5 19L5 20L7 20L7 21L6 21L6 22L7 22L7 21L9 21L9 23L6 23L6 24L5 24L5 25L4 25L4 26L3 26L3 25L2 25L2 26L3 26L3 28L5 28L5 29L6 29L6 30L8 30L8 31L12 31L12 32L11 32L11 34L10 34L10 33L9 33L9 35L11 35L11 34L12 34L12 35L13 35L13 36L16 36L16 35L15 35L15 34L17 34L17 33L18 33L18 32L17 32L17 31L18 31L18 30L19 30L19 31L20 31L20 33L19 33L19 34L18 34L18 35L17 35L17 36L18 36L18 35L19 35L19 37L20 37L20 38L18 38L18 39L17 39L17 37L14 37L14 39L13 39L13 40L12 40L12 39L11 39L11 38L12 38L12 36L11 36L11 38L10 38L10 37L8 37L8 38L7 38L7 37L6 37L6 38L7 38L7 39L6 39L6 40L4 40L4 39L5 39L5 37L4 37L4 38L3 38L3 43L2 43L2 44L1 44L1 47L4 47L4 48L5 48L5 47L6 47L6 48L7 48L7 49L6 49L6 50L9 50L9 51L8 51L8 53L6 53L6 54L9 54L9 57L6 57L6 58L7 58L7 59L9 59L9 60L8 60L8 61L9 61L9 60L10 60L10 61L11 61L11 63L10 63L10 62L9 62L9 63L10 63L10 65L9 65L9 66L10 66L10 67L12 67L12 68L13 68L13 66L14 66L14 65L16 65L16 67L15 67L15 68L16 68L16 67L17 67L17 65L18 65L18 64L17 64L17 65L16 65L16 64L14 64L14 62L17 62L17 63L18 63L18 62L19 62L19 63L20 63L20 62L21 62L21 63L23 63L23 64L26 64L26 63L23 63L23 60L24 60L24 61L25 61L25 60L26 60L26 62L27 62L27 63L28 63L28 65L25 65L25 66L26 66L26 67L27 67L27 66L28 66L28 65L29 65L29 66L32 66L32 65L29 65L29 64L30 64L30 63L32 63L32 60L33 60L33 59L32 59L32 58L29 58L29 57L30 57L30 56L28 56L28 57L27 57L27 56L26 56L26 55L30 55L30 54L29 54L29 53L28 53L28 52L29 52L29 50L30 50L30 51L33 51L33 52L34 52L34 53L33 53L33 54L32 54L32 53L31 53L31 55L35 55L35 54L36 54L36 52L35 52L35 50L34 50L34 49L36 49L36 50L37 50L37 51L39 51L39 53L42 53L42 52L41 52L41 51L42 51L42 50L41 50L41 49L42 49L42 48L43 48L43 46L44 46L44 49L43 49L43 50L44 50L44 49L45 49L45 52L44 52L44 51L43 51L43 52L44 52L44 53L43 53L43 54L42 54L42 55L43 55L43 56L42 56L42 57L43 57L43 56L44 56L44 53L45 53L45 54L46 54L46 56L50 56L50 59L51 59L51 60L50 60L50 62L47 62L47 63L45 63L45 64L44 64L44 66L45 66L45 67L46 67L46 66L47 66L47 64L48 64L48 63L49 63L49 64L50 64L50 63L51 63L51 61L55 61L55 60L56 60L56 62L59 62L59 63L57 63L57 64L59 64L59 63L60 63L60 62L59 62L59 61L60 61L60 60L58 60L58 61L57 61L57 59L59 59L59 57L60 57L60 58L61 58L61 57L62 57L62 56L61 56L61 54L60 54L60 53L61 53L61 51L63 51L63 50L65 50L65 51L67 51L67 50L66 50L66 49L68 49L68 48L65 48L65 47L66 47L66 44L64 44L64 43L63 43L63 42L65 42L65 41L67 41L67 40L65 40L65 41L63 41L63 40L62 40L62 39L67 39L67 38L66 38L66 36L65 36L65 37L64 37L64 38L63 38L63 37L60 37L60 35L58 35L58 34L59 34L59 33L60 33L60 31L62 31L62 30L63 30L63 32L64 32L64 31L67 31L67 28L66 28L66 27L65 27L65 26L66 26L66 25L68 25L68 23L67 23L67 24L65 24L65 23L63 23L63 21L65 21L65 19L67 19L67 18L66 18L66 16L65 16L65 15L64 15L64 16L62 16L62 14L61 14L61 15L60 15L60 16L59 16L59 14L60 14L60 13L62 13L62 12L61 12L61 11L62 11L62 10L61 10L61 11L60 11L60 10L59 10L59 7L58 7L58 5L56 5L56 6L55 6L55 7L56 7L56 6L57 6L57 7L58 7L58 8L56 8L56 9L55 9L55 8L51 8L51 9L50 9L50 10L51 10L51 9L55 9L55 10L58 10L58 13L57 13L57 12L56 12L56 11L52 11L52 12L51 12L51 13L50 13L50 12L49 12L49 10L47 10L47 7L48 7L48 6L47 6L47 7L46 7L46 6L45 6L45 7L44 7L44 5L43 5L43 7L42 7L42 6L41 6L41 3L42 3L42 1ZM31 3L31 4L32 4L32 3ZM60 3L60 5L61 5L61 3ZM21 5L21 6L20 6L20 8L21 8L21 9L22 9L22 8L21 8L21 6L22 6L22 7L23 7L23 8L24 8L24 9L23 9L23 10L24 10L24 9L25 9L25 11L26 11L26 12L24 12L24 11L23 11L23 13L22 13L22 15L21 15L21 14L20 14L20 13L19 13L19 12L20 12L20 11L22 11L22 10L20 10L20 9L19 9L19 6L18 6L18 9L16 9L16 8L14 8L14 10L13 10L13 12L14 12L14 13L11 13L11 15L10 15L10 16L9 16L9 17L10 17L10 18L11 18L11 17L10 17L10 16L11 16L11 15L15 15L15 14L16 14L16 12L17 12L17 13L18 13L18 14L17 14L17 15L16 15L16 16L13 16L13 17L12 17L12 19L14 19L14 18L13 18L13 17L15 17L15 20L13 20L13 21L12 21L12 20L11 20L11 19L9 19L9 20L10 20L10 22L11 22L11 23L10 23L10 24L11 24L11 25L10 25L10 26L6 26L6 25L7 25L7 24L6 24L6 25L5 25L5 27L10 27L10 26L13 26L13 25L12 25L12 22L13 22L13 23L16 23L16 21L15 21L15 20L16 20L16 17L18 17L18 18L17 18L17 19L18 19L18 20L17 20L17 21L19 21L19 22L18 22L18 23L19 23L19 24L17 24L17 25L16 25L16 24L14 24L14 27L16 27L16 28L14 28L14 29L13 29L13 30L14 30L14 29L19 29L19 30L20 30L20 29L21 29L21 28L22 28L22 25L21 25L21 28L20 28L20 27L18 27L18 26L17 26L17 25L19 25L19 26L20 26L20 23L19 23L19 22L20 22L20 21L21 21L21 20L22 20L22 18L24 18L24 19L25 19L25 18L26 18L26 17L24 17L24 16L26 16L26 15L24 15L24 14L25 14L25 13L26 13L26 14L27 14L27 16L28 16L28 15L31 15L31 16L29 16L29 18L30 18L30 19L29 19L29 20L30 20L30 21L29 21L29 22L30 22L30 21L31 21L31 20L32 20L32 19L31 19L31 18L33 18L33 16L34 16L34 15L33 15L33 16L32 16L32 15L31 15L31 14L30 14L30 13L32 13L32 12L30 12L30 11L32 11L32 10L31 10L31 9L30 9L30 8L28 8L28 9L30 9L30 11L28 11L28 10L27 10L27 11L26 11L26 7L27 7L27 6L26 6L26 7L25 7L25 6L24 6L24 7L23 7L23 6L22 6L22 5ZM33 5L33 8L36 8L36 5ZM39 5L39 6L38 6L38 7L39 7L39 8L40 8L40 7L41 7L41 6L40 6L40 5ZM53 5L53 7L54 7L54 5ZM12 6L12 7L11 7L11 9L12 9L12 7L13 7L13 6ZM14 6L14 7L15 7L15 6ZM30 6L30 7L31 7L31 6ZM34 6L34 7L35 7L35 6ZM39 6L39 7L40 7L40 6ZM49 6L49 8L50 8L50 6ZM51 6L51 7L52 7L52 6ZM45 7L45 9L44 9L44 8L43 8L43 9L39 9L39 12L40 12L40 13L39 13L39 14L40 14L40 15L38 15L38 16L40 16L40 15L42 15L42 14L44 14L44 16L45 16L45 17L49 17L49 18L48 18L48 20L46 20L46 21L48 21L48 22L47 22L47 24L46 24L46 22L44 22L44 23L45 23L45 24L46 24L46 25L47 25L47 26L48 26L48 27L50 27L50 29L49 29L49 28L46 28L46 29L45 29L45 30L44 30L44 32L43 32L43 33L40 33L40 35L41 35L41 34L43 34L43 33L44 33L44 36L41 36L41 37L39 37L39 38L41 38L41 39L39 39L39 40L38 40L38 41L35 41L35 43L34 43L34 44L37 44L37 45L33 45L33 44L32 44L32 43L31 43L31 41L30 41L30 40L28 40L28 39L30 39L30 38L27 38L27 37L28 37L28 36L27 36L27 37L24 37L24 36L23 36L23 35L25 35L25 36L26 36L26 35L25 35L25 33L24 33L24 34L21 34L21 36L23 36L23 39L25 39L25 38L26 38L26 39L27 39L27 40L28 40L28 41L27 41L27 42L26 42L26 40L24 40L24 41L23 41L23 42L20 42L20 41L22 41L22 40L21 40L21 39L22 39L22 37L21 37L21 38L20 38L20 39L18 39L18 40L17 40L17 41L18 41L18 42L20 42L20 43L19 43L19 44L17 44L17 45L19 45L19 46L20 46L20 47L19 47L19 48L20 48L20 47L22 47L22 46L20 46L20 45L21 45L21 44L20 44L20 43L22 43L22 44L24 44L24 45L23 45L23 46L25 46L25 45L26 45L26 46L27 46L27 45L28 45L28 44L29 44L29 46L28 46L28 47L27 47L27 48L29 48L29 49L31 49L31 50L33 50L33 51L34 51L34 50L33 50L33 49L31 49L31 48L30 48L30 47L31 47L31 45L33 45L33 46L32 46L32 47L33 47L33 46L34 46L34 47L35 47L35 48L36 48L36 47L37 47L37 50L38 50L38 49L39 49L39 48L40 48L40 47L41 47L41 48L42 48L42 46L43 46L43 45L44 45L44 46L45 46L45 49L46 49L46 46L45 46L45 45L46 45L46 43L47 43L47 46L50 46L50 48L51 48L51 46L55 46L55 47L54 47L54 48L53 48L53 49L52 49L52 51L53 51L53 50L54 50L54 52L53 52L53 53L54 53L54 54L51 54L51 55L50 55L50 53L49 53L49 52L51 52L51 50L50 50L50 49L49 49L49 48L48 48L48 47L47 47L47 51L46 51L46 52L45 52L45 53L48 53L48 55L50 55L50 56L53 56L53 55L54 55L54 56L55 56L55 57L53 57L53 58L54 58L54 59L55 59L55 58L57 58L57 57L59 57L59 56L60 56L60 57L61 57L61 56L60 56L60 54L59 54L59 55L57 55L57 57L56 57L56 54L55 54L55 53L56 53L56 51L58 51L58 50L57 50L57 49L56 49L56 47L57 47L57 48L58 48L58 49L59 49L59 52L57 52L57 53L59 53L59 52L60 52L60 49L61 49L61 50L63 50L63 48L62 48L62 49L61 49L61 47L62 47L62 45L63 45L63 43L62 43L62 42L63 42L63 41L62 41L62 42L61 42L61 43L59 43L59 42L57 42L57 41L59 41L59 39L58 39L58 40L57 40L57 39L51 39L51 38L52 38L52 37L51 37L51 36L52 36L52 35L51 35L51 34L50 34L50 33L52 33L52 32L53 32L53 33L54 33L54 34L53 34L53 35L54 35L54 34L56 34L56 36L55 36L55 37L53 37L53 38L55 38L55 37L56 37L56 38L57 38L57 37L58 37L58 35L57 35L57 34L58 34L58 33L59 33L59 32L57 32L57 31L56 31L56 30L55 30L55 29L56 29L56 28L55 28L55 25L56 25L56 26L57 26L57 27L58 27L58 29L59 29L59 30L62 30L62 29L63 29L63 28L65 28L65 29L64 29L64 30L65 30L65 29L66 29L66 28L65 28L65 27L64 27L64 26L62 26L62 25L63 25L63 23L62 23L62 21L63 21L63 20L64 20L64 19L63 19L63 18L65 18L65 17L63 17L63 18L62 18L62 16L61 16L61 17L59 17L59 19L57 19L57 21L56 21L56 20L55 20L55 21L51 21L51 23L52 23L52 22L53 22L53 26L52 26L52 28L51 28L51 26L50 26L50 25L49 25L49 24L48 24L48 22L49 22L49 23L50 23L50 19L51 19L51 20L54 20L54 19L51 19L51 18L50 18L50 15L52 15L52 16L53 16L53 15L54 15L54 17L53 17L53 18L55 18L55 19L56 19L56 18L57 18L57 17L58 17L58 14L57 14L57 13L56 13L56 12L55 12L55 13L53 13L53 15L52 15L52 13L51 13L51 14L50 14L50 13L49 13L49 12L47 12L47 11L45 11L45 13L46 13L46 12L47 12L47 14L44 14L44 11L43 11L43 13L42 13L42 14L41 14L41 12L42 12L42 10L45 10L45 9L46 9L46 7ZM60 8L60 9L61 9L61 8ZM63 8L63 9L64 9L64 10L66 10L66 11L64 11L64 12L68 12L68 10L67 10L67 9L68 9L68 8L67 8L67 9L66 9L66 8L65 8L65 9L64 9L64 8ZM15 9L15 11L14 11L14 12L15 12L15 11L16 11L16 9ZM18 9L18 10L17 10L17 11L19 11L19 9ZM35 10L35 11L36 11L36 10ZM11 11L11 12L12 12L12 11ZM33 11L33 12L34 12L34 13L33 13L33 14L34 14L34 13L36 13L36 12L34 12L34 11ZM40 11L40 12L41 12L41 11ZM59 11L59 13L60 13L60 11ZM6 12L6 13L9 13L9 14L10 14L10 12ZM26 12L26 13L27 13L27 14L29 14L29 13L30 13L30 12L29 12L29 13L27 13L27 12ZM55 13L55 14L54 14L54 15L55 15L55 14L56 14L56 17L55 17L55 18L56 18L56 17L57 17L57 14L56 14L56 13ZM18 14L18 15L17 15L17 16L18 16L18 17L21 17L21 18L22 18L22 17L23 17L23 16L22 16L22 17L21 17L21 15L20 15L20 14ZM47 14L47 16L49 16L49 15L50 15L50 14ZM67 16L67 17L68 17L68 16ZM1 17L1 20L2 20L2 17ZM27 17L27 18L28 18L28 17ZM5 18L5 19L7 19L7 20L8 20L8 19L7 19L7 18ZM18 18L18 19L20 19L20 18ZM44 18L44 19L47 19L47 18ZM49 18L49 19L50 19L50 18ZM61 18L61 19L62 19L62 20L63 20L63 19L62 19L62 18ZM27 19L27 21L28 21L28 19ZM59 19L59 20L60 20L60 19ZM19 20L19 21L20 21L20 20ZM11 21L11 22L12 22L12 21ZM58 21L58 22L54 22L54 23L55 23L55 24L56 24L56 25L57 25L57 26L58 26L58 27L59 27L59 29L60 29L60 27L61 27L61 29L62 29L62 27L61 27L61 26L59 26L59 25L61 25L61 24L62 24L62 23L61 23L61 24L60 24L60 23L58 23L58 22L59 22L59 21ZM0 22L0 23L1 23L1 22ZM26 22L26 24L27 24L27 22ZM37 22L37 24L38 24L38 26L41 26L41 25L42 25L42 24L41 24L41 22L40 22L40 23L39 23L39 22ZM38 23L38 24L39 24L39 23ZM56 23L56 24L57 24L57 25L59 25L59 24L57 24L57 23ZM47 24L47 25L48 25L48 26L49 26L49 25L48 25L48 24ZM15 25L15 26L16 26L16 25ZM32 25L32 26L33 26L33 27L31 27L31 28L32 28L32 29L31 29L31 30L33 30L33 29L34 29L34 28L33 28L33 27L34 27L34 26L33 26L33 25ZM28 26L28 27L27 27L27 28L28 28L28 27L29 27L29 26ZM12 27L12 28L13 28L13 27ZM6 28L6 29L8 29L8 28ZM9 28L9 30L10 30L10 28ZM19 28L19 29L20 29L20 28ZM39 28L39 29L40 29L40 28ZM52 28L52 29L54 29L54 28ZM0 29L0 30L1 30L1 29ZM11 29L11 30L12 30L12 29ZM46 29L46 30L45 30L45 32L44 32L44 33L45 33L45 36L44 36L44 37L45 37L45 38L47 38L47 40L45 40L45 39L43 39L43 38L42 38L42 39L41 39L41 40L39 40L39 41L38 41L38 43L37 43L37 44L38 44L38 46L37 46L37 47L38 47L38 48L39 48L39 47L40 47L40 46L39 46L39 45L40 45L40 44L41 44L41 43L40 43L40 41L41 41L41 40L44 40L44 42L43 42L43 43L44 43L44 42L45 42L45 43L46 43L46 42L48 42L48 44L49 44L49 45L50 45L50 46L51 46L51 45L55 45L55 44L56 44L56 45L57 45L57 46L59 46L59 47L58 47L58 48L59 48L59 49L60 49L60 48L59 48L59 47L61 47L61 46L59 46L59 45L62 45L62 43L61 43L61 44L59 44L59 43L57 43L57 42L56 42L56 41L57 41L57 40L54 40L54 41L55 41L55 42L56 42L56 43L55 43L55 44L54 44L54 43L53 43L53 40L51 40L51 39L50 39L50 38L51 38L51 37L50 37L50 34L47 34L47 33L45 33L45 32L46 32L46 30L47 30L47 29ZM48 29L48 30L49 30L49 31L51 31L51 32L52 32L52 31L53 31L53 32L54 32L54 33L55 33L55 30L52 30L52 31L51 31L51 29L50 29L50 30L49 30L49 29ZM15 30L15 31L13 31L13 32L12 32L12 33L13 33L13 32L14 32L14 33L16 33L16 32L15 32L15 31L16 31L16 30ZM31 31L31 32L32 32L32 31ZM49 32L49 33L50 33L50 32ZM56 32L56 34L57 34L57 32ZM66 32L66 33L65 33L65 35L66 35L66 34L68 34L68 33L67 33L67 32ZM5 33L5 36L8 36L8 33ZM33 33L33 36L36 36L36 33ZM61 33L61 36L64 36L64 33ZM3 34L3 35L4 35L4 34ZM6 34L6 35L7 35L7 34ZM13 34L13 35L14 35L14 34ZM19 34L19 35L20 35L20 34ZM34 34L34 35L35 35L35 34ZM62 34L62 35L63 35L63 34ZM67 35L67 36L68 36L68 35ZM45 36L45 37L47 37L47 38L48 38L48 39L49 39L49 38L50 38L50 37L49 37L49 36ZM56 36L56 37L57 37L57 36ZM48 37L48 38L49 38L49 37ZM61 38L61 39L62 39L62 38ZM7 39L7 40L6 40L6 41L7 41L7 40L8 40L8 41L9 41L9 43L8 43L8 42L5 42L5 41L4 41L4 42L5 42L5 43L8 43L8 46L9 46L9 44L10 44L10 45L11 45L11 44L10 44L10 43L11 43L11 42L12 42L12 43L13 43L13 41L14 41L14 43L15 43L15 44L13 44L13 45L12 45L12 47L11 47L11 46L10 46L10 47L11 47L11 48L13 48L13 49L16 49L16 48L17 48L17 49L18 49L18 51L17 51L17 52L16 52L16 50L12 50L12 51L11 51L11 52L10 52L10 51L9 51L9 52L10 52L10 55L11 55L11 52L12 52L12 51L13 51L13 53L12 53L12 54L13 54L13 53L14 53L14 55L13 55L13 56L12 56L12 58L10 58L10 57L9 57L9 58L10 58L10 60L11 60L11 61L16 61L16 60L17 60L17 62L18 62L18 61L19 61L19 62L20 62L20 61L19 61L19 60L18 60L18 59L17 59L17 57L18 57L18 58L19 58L19 59L21 59L21 60L23 60L23 59L24 59L24 60L25 60L25 58L26 58L26 60L27 60L27 61L31 61L31 60L32 60L32 59L31 59L31 60L29 60L29 59L28 59L28 58L27 58L27 57L26 57L26 56L24 56L24 55L26 55L26 51L25 51L25 50L26 50L26 49L24 49L24 48L23 48L23 49L22 49L22 50L23 50L23 51L22 51L22 52L23 52L23 53L24 53L24 54L22 54L22 55L21 55L21 54L20 54L20 53L19 53L19 52L21 52L21 49L18 49L18 48L17 48L17 47L18 47L18 46L16 46L16 48L14 48L14 47L15 47L15 45L16 45L16 43L15 43L15 42L16 42L16 41L14 41L14 40L16 40L16 39L14 39L14 40L13 40L13 41L11 41L11 40L10 40L10 41L9 41L9 40L8 40L8 39ZM19 40L19 41L20 41L20 40ZM47 40L47 41L49 41L49 43L50 43L50 45L51 45L51 43L50 43L50 40ZM60 40L60 41L61 41L61 40ZM10 41L10 42L11 42L11 41ZM24 41L24 42L23 42L23 43L24 43L24 44L26 44L26 45L27 45L27 44L28 44L28 43L27 43L27 44L26 44L26 42L25 42L25 41ZM28 41L28 42L29 42L29 44L30 44L30 41ZM51 41L51 42L52 42L52 41ZM39 43L39 44L40 44L40 43ZM2 44L2 46L6 46L6 47L7 47L7 48L9 48L9 50L11 50L11 49L10 49L10 48L9 48L9 47L7 47L7 46L6 46L6 45L7 45L7 44L6 44L6 45L3 45L3 44ZM44 44L44 45L45 45L45 44ZM57 44L57 45L58 45L58 44ZM67 44L67 46L68 46L68 44ZM41 45L41 46L42 46L42 45ZM13 46L13 47L14 47L14 46ZM35 46L35 47L36 47L36 46ZM38 46L38 47L39 47L39 46ZM63 46L63 47L64 47L64 46ZM25 47L25 48L26 48L26 47ZM27 49L27 50L28 50L28 49ZM19 50L19 51L18 51L18 52L19 52L19 51L20 51L20 50ZM39 50L39 51L41 51L41 50ZM48 50L48 51L47 51L47 52L49 52L49 51L50 51L50 50ZM55 50L55 51L56 51L56 50ZM27 51L27 52L28 52L28 51ZM3 52L3 53L1 53L1 55L2 55L2 57L3 57L3 56L4 56L4 57L5 57L5 56L8 56L8 55L5 55L5 54L3 54L3 53L4 53L4 52ZM14 52L14 53L16 53L16 54L19 54L19 53L16 53L16 52ZM24 52L24 53L25 53L25 52ZM37 52L37 53L38 53L38 52ZM54 52L54 53L55 53L55 52ZM27 53L27 54L28 54L28 53ZM2 54L2 55L3 55L3 54ZM37 54L37 55L38 55L38 56L36 56L36 57L35 57L35 56L33 56L33 58L36 58L36 57L38 57L38 58L37 58L37 61L38 61L38 58L39 58L39 57L41 57L41 56L39 56L39 55L41 55L41 54ZM54 54L54 55L55 55L55 54ZM4 55L4 56L5 56L5 55ZM14 55L14 56L13 56L13 57L14 57L14 59L15 59L15 60L16 60L16 59L15 59L15 58L16 58L16 57L17 57L17 55ZM19 55L19 56L20 56L20 58L21 58L21 57L22 57L22 59L23 59L23 58L24 58L24 57L22 57L22 56L20 56L20 55ZM15 56L15 57L16 57L16 56ZM31 56L31 57L32 57L32 56ZM12 58L12 59L13 59L13 58ZM45 58L45 59L46 59L46 58ZM34 59L34 60L35 60L35 59ZM3 60L3 61L5 61L5 60ZM42 60L42 61L43 61L43 60ZM65 60L65 61L66 61L66 60ZM67 60L67 62L68 62L68 60ZM33 61L33 64L36 64L36 61ZM61 61L61 64L64 64L64 61ZM12 62L12 63L11 63L11 64L13 64L13 65L14 65L14 64L13 64L13 62ZM28 62L28 63L30 63L30 62ZM34 62L34 63L35 63L35 62ZM62 62L62 63L63 63L63 62ZM65 62L65 63L66 63L66 62ZM45 64L45 66L46 66L46 64ZM10 65L10 66L11 66L11 65ZM33 65L33 67L34 67L34 66L35 66L35 65ZM63 65L63 66L64 66L64 67L62 67L62 66L61 66L61 67L62 67L62 68L64 68L64 67L65 67L65 66L64 66L64 65ZM18 66L18 67L19 67L19 66ZM21 66L21 68L20 68L20 69L21 69L21 68L23 68L23 67L22 67L22 66ZM58 68L58 69L59 69L59 68ZM0 0L0 7L7 7L7 0ZM1 1L1 6L6 6L6 1ZM2 2L2 5L5 5L5 2ZM62 0L62 7L69 7L69 0ZM63 1L63 6L68 6L68 1ZM64 2L64 5L67 5L67 2ZM0 62L0 69L7 69L7 62ZM1 63L1 68L6 68L6 63ZM2 64L2 67L5 67L5 64Z" fill="#000000"/></g></g></svg>
