<?xml version="1.0" encoding="UTF-8"?>
<svg xmlns="http://www.w3.org/2000/svg" version="1.1" width="300" height="300" viewBox="0 0 300 300"><rect x="0" y="0" width="300" height="300" fill="#ffffff"/><g transform="scale(4.348)"><g transform="translate(0,0)"><path fill-rule="evenodd" d="M9 0L9 1L8 1L8 2L9 2L9 1L11 1L11 2L10 2L10 3L12 3L12 0ZM15 0L15 1L14 1L14 2L13 2L13 3L14 3L14 4L13 4L13 5L14 5L14 8L16 8L16 7L17 7L17 6L18 6L18 7L19 7L19 6L20 6L20 8L17 8L17 9L19 9L19 10L16 10L16 9L15 9L15 10L13 10L13 11L12 11L12 9L13 9L13 6L12 6L12 5L11 5L11 4L9 4L9 3L8 3L8 4L9 4L9 5L8 5L8 7L9 7L9 6L10 6L10 8L12 8L12 9L11 9L11 10L9 10L9 8L6 8L6 9L5 9L5 8L0 8L0 11L1 11L1 13L0 13L0 15L1 15L1 17L0 17L0 19L1 19L1 20L0 20L0 23L2 23L2 24L0 24L0 28L1 28L1 27L2 27L2 28L3 28L3 27L4 27L4 29L3 29L3 30L5 30L5 31L7 31L7 30L5 30L5 27L7 27L7 28L6 28L6 29L7 29L7 28L8 28L8 30L9 30L9 32L3 32L3 31L2 31L2 30L0 30L0 31L2 31L2 32L1 32L1 34L2 34L2 35L1 35L1 36L0 36L0 37L1 37L1 39L0 39L0 41L1 41L1 45L2 45L2 47L1 47L1 46L0 46L0 50L2 50L2 51L4 51L4 52L3 52L3 53L5 53L5 50L6 50L6 51L7 51L7 52L6 52L6 53L8 53L8 54L5 54L5 56L4 56L4 55L2 55L2 54L1 54L1 52L0 52L0 54L1 54L1 55L2 55L2 56L1 56L1 57L0 57L0 61L1 61L1 58L2 58L2 59L3 59L3 56L4 56L4 59L7 59L7 58L6 58L6 57L8 57L8 56L6 56L6 55L8 55L8 54L9 54L9 51L10 51L10 54L11 54L11 55L9 55L9 56L11 56L11 55L12 55L12 57L13 57L13 59L16 59L16 60L17 60L17 62L16 62L16 63L17 63L17 64L15 64L15 63L14 63L14 62L15 62L15 60L12 60L12 59L11 59L11 58L10 58L10 57L9 57L9 58L8 58L8 59L10 59L10 60L6 60L6 61L8 61L8 63L9 63L9 64L8 64L8 69L11 69L11 68L12 68L12 69L14 69L14 67L15 67L15 68L17 68L17 69L19 69L19 67L20 67L20 66L19 66L19 65L20 65L20 64L22 64L22 63L26 63L26 64L24 64L24 65L23 65L23 66L22 66L22 65L21 65L21 66L22 66L22 67L21 67L21 68L20 68L20 69L21 69L21 68L22 68L22 67L24 67L24 68L25 68L25 69L26 69L26 67L28 67L28 68L27 68L27 69L28 69L28 68L29 68L29 69L32 69L32 68L29 68L29 65L30 65L30 67L33 67L33 69L35 69L35 68L36 68L36 69L38 69L38 68L37 68L37 66L38 66L38 67L39 67L39 66L38 66L38 65L39 65L39 64L41 64L41 66L40 66L40 67L41 67L41 66L44 66L44 68L43 68L43 67L42 67L42 69L44 69L44 68L47 68L47 69L49 69L49 67L48 67L48 66L50 66L50 67L51 67L51 66L52 66L52 65L51 65L51 66L50 66L50 65L49 65L49 64L50 64L50 63L49 63L49 64L48 64L48 63L47 63L47 65L48 65L48 66L46 66L46 64L45 64L45 63L46 63L46 62L45 62L45 61L47 61L47 62L50 62L50 61L49 61L49 60L50 60L50 59L52 59L52 60L53 60L53 62L55 62L55 61L56 61L56 64L55 64L55 63L51 63L51 64L55 64L55 65L54 65L54 66L53 66L53 69L56 69L56 66L57 66L57 65L58 65L58 63L59 63L59 64L60 64L60 66L59 66L59 68L60 68L60 69L62 69L62 65L65 65L65 64L68 64L68 62L69 62L69 61L68 61L68 62L67 62L67 61L66 61L66 60L69 60L69 59L68 59L68 57L67 57L67 56L68 56L68 54L69 54L69 53L66 53L66 52L68 52L68 50L69 50L69 48L68 48L68 46L67 46L67 44L68 44L68 42L69 42L69 39L68 39L68 36L69 36L69 35L68 35L68 34L69 34L69 32L68 32L68 30L69 30L69 27L68 27L68 26L65 26L65 29L66 29L66 28L67 28L67 31L64 31L64 29L63 29L63 30L62 30L62 29L61 29L61 28L62 28L62 27L64 27L64 26L62 26L62 25L63 25L63 24L62 24L62 25L60 25L60 24L61 24L61 23L62 23L62 21L63 21L63 20L64 20L64 19L63 19L63 18L65 18L65 17L63 17L63 18L62 18L62 16L64 16L64 14L65 14L65 16L66 16L66 17L67 17L67 19L65 19L65 20L66 20L66 22L65 22L65 21L64 21L64 22L65 22L65 23L64 23L64 24L65 24L65 25L67 25L67 23L68 23L68 25L69 25L69 23L68 23L68 18L69 18L69 17L68 17L68 16L69 16L69 15L68 15L68 13L69 13L69 11L68 11L68 12L67 12L67 10L69 10L69 9L68 9L68 8L67 8L67 9L66 9L66 8L65 8L65 9L64 9L64 8L63 8L63 11L61 11L61 10L62 10L62 8L61 8L61 6L60 6L60 7L59 7L59 4L57 4L57 6L56 6L56 5L55 5L55 4L56 4L56 3L59 3L59 2L58 2L58 1L61 1L61 0L58 0L58 1L57 1L57 0L56 0L56 3L55 3L55 0L53 0L53 2L54 2L54 3L55 3L55 4L53 4L53 5L51 5L51 6L50 6L50 7L49 7L49 5L50 5L50 3L51 3L51 1L50 1L50 0L47 0L47 4L49 4L49 5L47 5L47 6L46 6L46 5L44 5L44 3L45 3L45 4L46 4L46 3L45 3L45 2L46 2L46 1L45 1L45 0L44 0L44 1L45 1L45 2L44 2L44 3L43 3L43 0L39 0L39 1L38 1L38 0L36 0L36 1L35 1L35 0L33 0L33 2L36 2L36 3L35 3L35 4L32 4L32 3L30 3L30 2L31 2L31 1L30 1L30 0L28 0L28 1L27 1L27 2L23 2L23 1L25 1L25 0L23 0L23 1L21 1L21 3L19 3L19 2L20 2L20 1L19 1L19 0L17 0L17 2L16 2L16 0ZM37 1L37 3L38 3L38 4L37 4L37 5L38 5L38 6L37 6L37 10L36 10L36 9L33 9L33 10L32 10L32 8L31 8L31 7L32 7L32 5L30 5L30 6L29 6L29 8L26 8L26 9L24 9L24 8L23 8L23 7L24 7L24 6L23 6L23 5L22 5L22 6L21 6L21 8L20 8L20 10L19 10L19 13L20 13L20 15L21 15L21 16L19 16L19 14L18 14L18 15L17 15L17 16L18 16L18 17L15 17L15 15L14 15L14 14L17 14L17 12L16 12L16 11L15 11L15 12L16 12L16 13L14 13L14 14L12 14L12 16L14 16L14 17L13 17L13 18L14 18L14 19L12 19L12 18L11 18L11 17L10 17L10 16L11 16L11 11L9 11L9 10L7 10L7 9L6 9L6 10L7 10L7 11L6 11L6 12L5 12L5 10L2 10L2 9L1 9L1 10L2 10L2 11L3 11L3 12L2 12L2 13L1 13L1 14L2 14L2 16L3 16L3 19L2 19L2 17L1 17L1 19L2 19L2 20L1 20L1 22L2 22L2 23L4 23L4 24L7 24L7 23L5 23L5 22L4 22L4 21L5 21L5 20L8 20L8 18L7 18L7 17L6 17L6 18L4 18L4 16L3 16L3 14L4 14L4 15L6 15L6 16L9 16L9 21L10 21L10 22L9 22L9 25L8 25L8 26L10 26L10 28L9 28L9 30L11 30L11 29L10 29L10 28L11 28L11 25L12 25L12 28L15 28L15 30L17 30L17 31L16 31L16 32L15 32L15 31L14 31L14 30L13 30L13 32L14 32L14 33L12 33L12 34L14 34L14 35L13 35L13 36L14 36L14 38L13 38L13 40L11 40L11 41L10 41L10 42L9 42L9 41L6 41L6 40L8 40L8 38L10 38L10 37L5 37L5 38L7 38L7 39L6 39L6 40L5 40L5 39L3 39L3 37L2 37L2 36L4 36L4 35L2 35L2 36L1 36L1 37L2 37L2 39L3 39L3 40L4 40L4 42L3 42L3 41L2 41L2 42L3 42L3 46L4 46L4 43L6 43L6 44L8 44L8 45L6 45L6 46L8 46L8 45L9 45L9 47L10 47L10 46L11 46L11 47L12 47L12 49L11 49L11 48L10 48L10 49L11 49L11 50L10 50L10 51L11 51L11 50L12 50L12 52L11 52L11 54L13 54L13 56L14 56L14 57L15 57L15 58L16 58L16 57L17 57L17 56L18 56L18 54L19 54L19 57L20 57L20 58L19 58L19 59L20 59L20 58L21 58L21 57L22 57L22 59L21 59L21 60L19 60L19 61L18 61L18 62L17 62L17 63L18 63L18 62L19 62L19 64L20 64L20 62L22 62L22 61L23 61L23 62L24 62L24 61L25 61L25 62L27 62L27 63L29 63L29 64L28 64L28 65L25 65L25 66L28 66L28 65L29 65L29 64L31 64L31 63L32 63L32 60L31 60L31 59L33 59L33 58L35 58L35 57L36 57L36 56L35 56L35 55L36 55L36 54L37 54L37 55L38 55L38 56L37 56L37 57L38 57L38 58L37 58L37 61L38 61L38 62L37 62L37 63L38 63L38 64L37 64L37 65L34 65L34 66L33 66L33 67L34 67L34 66L37 66L37 65L38 65L38 64L39 64L39 63L41 63L41 64L44 64L44 66L45 66L45 67L46 67L46 66L45 66L45 64L44 64L44 62L43 62L43 63L42 63L42 62L41 62L41 60L42 60L42 61L43 61L43 60L44 60L44 61L45 61L45 60L44 60L44 59L45 59L45 58L46 58L46 60L49 60L49 59L50 59L50 58L52 58L52 59L53 59L53 58L54 58L54 60L56 60L56 61L57 61L57 62L59 62L59 63L60 63L60 62L59 62L59 61L60 61L60 60L63 60L63 58L65 58L65 59L67 59L67 57L66 57L66 56L61 56L61 54L62 54L62 55L65 55L65 51L66 51L66 50L67 50L67 48L65 48L65 47L66 47L66 44L65 44L65 42L68 42L68 39L67 39L67 41L64 41L64 40L63 40L63 39L65 39L65 37L67 37L67 36L68 36L68 35L67 35L67 34L68 34L68 32L66 32L66 33L67 33L67 34L65 34L65 35L67 35L67 36L65 36L65 37L64 37L64 38L63 38L63 37L62 37L62 39L61 39L61 37L60 37L60 35L59 35L59 33L57 33L57 31L56 31L56 33L55 33L55 32L54 32L54 31L53 31L53 29L55 29L55 28L56 28L56 30L59 30L59 31L58 31L58 32L59 32L59 31L60 31L60 30L59 30L59 29L60 29L60 28L61 28L61 27L60 27L60 28L59 28L59 29L57 29L57 28L58 28L58 27L59 27L59 25L57 25L57 24L56 24L56 23L58 23L58 24L59 24L59 23L61 23L61 22L59 22L59 21L60 21L60 19L62 19L62 20L63 20L63 19L62 19L62 18L59 18L59 17L60 17L60 15L61 15L61 16L62 16L62 15L63 15L63 13L65 13L65 14L67 14L67 13L66 13L66 12L65 12L65 11L66 11L66 10L65 10L65 11L64 11L64 12L63 12L63 13L62 13L62 12L60 12L60 10L59 10L59 9L58 9L58 10L57 10L57 8L58 8L58 6L57 6L57 8L56 8L56 9L55 9L55 7L56 7L56 6L55 6L55 7L54 7L54 6L53 6L53 7L52 7L52 6L51 6L51 7L50 7L50 11L49 11L49 10L47 10L47 7L48 7L48 6L47 6L47 7L46 7L46 6L45 6L45 7L44 7L44 5L43 5L43 7L42 7L42 5L41 5L41 4L43 4L43 3L42 3L42 1L41 1L41 3L39 3L39 2L38 2L38 1ZM48 1L48 2L49 2L49 3L50 3L50 1ZM14 2L14 3L15 3L15 2ZM17 2L17 3L16 3L16 6L15 6L15 7L16 7L16 6L17 6L17 5L18 5L18 4L17 4L17 3L18 3L18 2ZM27 2L27 3L26 3L26 4L27 4L27 5L26 5L26 6L25 6L25 7L26 7L26 6L27 6L27 7L28 7L28 6L27 6L27 5L29 5L29 3L28 3L28 2ZM21 3L21 4L19 4L19 5L21 5L21 4L25 4L25 3ZM27 3L27 4L28 4L28 3ZM60 3L60 5L61 5L61 3ZM14 4L14 5L15 5L15 4ZM33 5L33 8L36 8L36 5ZM39 5L39 6L38 6L38 7L39 7L39 6L40 6L40 8L39 8L39 10L37 10L37 11L39 11L39 12L37 12L37 13L36 13L36 12L33 12L33 14L34 14L34 13L36 13L36 14L35 14L35 15L36 15L36 16L35 16L35 17L36 17L36 18L35 18L35 19L37 19L37 20L35 20L35 21L37 21L37 22L35 22L35 24L33 24L33 25L34 25L34 26L33 26L33 27L31 27L31 28L28 28L28 27L29 27L29 26L32 26L32 25L31 25L31 24L32 24L32 23L31 23L31 22L30 22L30 23L28 23L28 25L26 25L26 24L27 24L27 23L25 23L25 22L26 22L26 20L28 20L28 21L31 21L31 20L32 20L32 21L33 21L33 22L34 22L34 20L32 20L32 19L33 19L33 16L34 16L34 15L33 15L33 16L32 16L32 14L27 14L27 13L32 13L32 12L31 12L31 11L32 11L32 10L31 10L31 9L30 9L30 8L29 8L29 9L30 9L30 11L27 11L27 9L26 9L26 11L25 11L25 12L24 12L24 11L23 11L23 10L24 10L24 9L23 9L23 10L21 10L21 11L20 11L20 12L21 12L21 13L22 13L22 14L23 14L23 17L22 17L22 16L21 16L21 17L18 17L18 18L15 18L15 19L16 19L16 21L15 21L15 20L13 20L13 21L14 21L14 22L17 22L17 23L16 23L16 24L15 24L15 25L14 25L14 24L13 24L13 25L14 25L14 27L16 27L16 28L17 28L17 29L19 29L19 30L18 30L18 31L17 31L17 32L16 32L16 33L14 33L14 34L15 34L15 35L14 35L14 36L15 36L15 37L19 37L19 38L18 38L18 39L19 39L19 38L20 38L20 40L17 40L17 42L18 42L18 41L19 41L19 44L16 44L16 43L15 43L15 42L16 42L16 41L15 41L15 42L13 42L13 41L11 41L11 43L9 43L9 42L6 42L6 43L9 43L9 45L11 45L11 46L13 46L13 48L14 48L14 49L13 49L13 52L12 52L12 53L13 53L13 54L14 54L14 55L17 55L17 54L15 54L15 53L16 53L16 52L17 52L17 53L19 53L19 54L20 54L20 52L22 52L22 51L21 51L21 49L18 49L18 48L17 48L17 47L18 47L18 46L20 46L20 47L24 47L24 48L26 48L26 47L25 47L25 46L27 46L27 47L28 47L28 48L29 48L29 49L30 49L30 50L29 50L29 52L28 52L28 51L26 51L26 52L24 52L24 51L25 51L25 50L26 50L26 49L22 49L22 50L23 50L23 53L21 53L21 54L22 54L22 55L20 55L20 56L22 56L22 57L24 57L24 58L23 58L23 59L24 59L24 60L23 60L23 61L24 61L24 60L25 60L25 61L26 61L26 60L27 60L27 61L29 61L29 63L30 63L30 62L31 62L31 60L27 60L27 59L29 59L29 58L30 58L30 59L31 59L31 56L32 56L32 55L33 55L33 53L34 53L34 52L33 52L33 51L34 51L34 50L36 50L36 51L35 51L35 52L36 52L36 53L37 53L37 54L39 54L39 52L41 52L41 50L42 50L42 52L43 52L43 53L41 53L41 55L39 55L39 56L41 56L41 57L39 57L39 59L38 59L38 61L39 61L39 62L38 62L38 63L39 63L39 62L40 62L40 59L41 59L41 58L42 58L42 60L43 60L43 57L44 57L44 56L46 56L46 57L47 57L47 59L49 59L49 58L50 58L50 56L46 56L46 54L45 54L45 53L47 53L47 55L50 55L50 51L52 51L52 52L53 52L53 53L54 53L54 54L51 54L51 55L52 55L52 56L53 56L53 57L52 57L52 58L53 58L53 57L54 57L54 58L55 58L55 59L56 59L56 58L57 58L57 57L56 57L56 56L57 56L57 55L56 55L56 56L55 56L55 55L54 55L54 54L55 54L55 53L56 53L56 54L58 54L58 55L59 55L59 56L58 56L58 57L59 57L59 58L60 58L60 59L57 59L57 61L59 61L59 60L60 60L60 59L62 59L62 58L63 58L63 57L62 57L62 58L60 58L60 57L61 57L61 56L60 56L60 55L59 55L59 54L58 54L58 52L59 52L59 51L60 51L60 49L59 49L59 50L58 50L58 52L57 52L57 49L58 49L58 48L59 48L59 47L57 47L57 46L56 46L56 44L57 44L57 43L56 43L56 44L55 44L55 42L57 42L57 41L59 41L59 42L60 42L60 43L58 43L58 44L60 44L60 43L61 43L61 44L62 44L62 46L61 46L61 45L60 45L60 47L61 47L61 48L62 48L62 49L61 49L61 50L64 50L64 49L65 49L65 50L66 50L66 49L65 49L65 48L64 48L64 49L63 49L63 48L62 48L62 46L63 46L63 47L65 47L65 46L63 46L63 43L61 43L61 42L60 42L60 41L59 41L59 40L58 40L58 38L57 38L57 37L58 37L58 36L57 36L57 34L55 34L55 33L53 33L53 34L55 34L55 35L54 35L54 36L55 36L55 37L51 37L51 39L50 39L50 40L49 40L49 38L50 38L50 36L52 36L52 35L51 35L51 34L50 34L50 29L52 29L52 28L55 28L55 27L54 27L54 26L56 26L56 24L55 24L55 23L56 23L56 20L53 20L53 19L56 19L56 18L57 18L57 17L58 17L58 14L56 14L56 13L55 13L55 12L57 12L57 10L56 10L56 11L55 11L55 9L51 9L51 10L52 10L52 12L51 12L51 11L50 11L50 12L47 12L47 14L45 14L45 13L46 13L46 11L43 11L43 13L42 13L42 14L41 14L41 12L42 12L42 10L45 10L45 9L46 9L46 7L45 7L45 9L44 9L44 8L43 8L43 9L40 9L40 8L41 8L41 5ZM11 6L11 7L12 7L12 6ZM22 6L22 7L23 7L23 6ZM30 6L30 7L31 7L31 6ZM34 6L34 7L35 7L35 6ZM21 8L21 9L22 9L22 8ZM60 8L60 9L61 9L61 8ZM33 10L33 11L36 11L36 10ZM58 10L58 12L59 12L59 10ZM7 11L7 12L6 12L6 13L5 13L5 12L4 12L4 14L6 14L6 15L7 15L7 14L6 14L6 13L8 13L8 12L9 12L9 11ZM21 11L21 12L22 12L22 13L24 13L24 12L23 12L23 11ZM26 11L26 12L25 12L25 13L27 13L27 11ZM40 11L40 12L39 12L39 13L38 13L38 15L40 15L40 16L38 16L38 18L37 18L37 19L39 19L39 18L41 18L41 17L42 17L42 16L44 16L44 17L43 17L43 19L42 19L42 20L41 20L41 19L40 19L40 20L39 20L39 21L40 21L40 22L37 22L37 24L38 24L38 26L41 26L41 25L42 25L42 24L41 24L41 23L40 23L40 22L41 22L41 21L43 21L43 20L44 20L44 22L43 22L43 24L44 24L44 25L43 25L43 26L46 26L46 27L45 27L45 28L44 28L44 27L43 27L43 28L44 28L44 29L43 29L43 30L42 30L42 27L39 27L39 28L38 28L38 27L37 27L37 29L38 29L38 31L39 31L39 30L40 30L40 31L43 31L43 32L38 32L38 34L37 34L37 36L38 36L38 37L36 37L36 38L38 38L38 39L37 39L37 41L36 41L36 40L32 40L32 39L34 39L34 38L35 38L35 37L34 37L34 38L33 38L33 37L32 37L32 38L30 38L30 37L29 37L29 36L31 36L31 35L32 35L32 33L30 33L30 32L31 32L31 31L30 31L30 29L27 29L27 27L28 27L28 26L29 26L29 25L30 25L30 24L29 24L29 25L28 25L28 26L26 26L26 25L25 25L25 26L26 26L26 27L25 27L25 28L26 28L26 29L25 29L25 30L24 30L24 32L22 32L22 33L21 33L21 32L20 32L20 31L21 31L21 29L22 29L22 31L23 31L23 28L24 28L24 27L20 27L20 26L21 26L21 25L22 25L22 26L24 26L24 25L22 25L22 24L21 24L21 23L22 23L22 22L23 22L23 23L24 23L24 24L25 24L25 23L24 23L24 22L23 22L23 21L25 21L25 20L26 20L26 18L27 18L27 19L28 19L28 20L31 20L31 19L30 19L30 18L32 18L32 16L31 16L31 17L29 17L29 16L28 16L28 15L27 15L27 14L24 14L24 15L26 15L26 16L24 16L24 17L23 17L23 19L22 19L22 17L21 17L21 21L20 21L20 20L19 20L19 19L20 19L20 18L19 18L19 19L17 19L17 20L19 20L19 21L20 21L20 22L18 22L18 23L17 23L17 24L16 24L16 25L15 25L15 26L16 26L16 25L17 25L17 24L19 24L19 25L20 25L20 26L17 26L17 28L19 28L19 29L20 29L20 31L19 31L19 32L20 32L20 33L19 33L19 34L20 34L20 35L17 35L17 36L20 36L20 38L22 38L22 39L21 39L21 40L20 40L20 42L21 42L21 43L20 43L20 46L21 46L21 45L24 45L24 44L25 44L25 45L27 45L27 46L29 46L29 48L30 48L30 46L29 46L29 44L31 44L31 49L32 49L32 48L33 48L33 49L36 49L36 50L37 50L37 47L38 47L38 48L39 48L39 49L38 49L38 51L39 51L39 50L41 50L41 49L42 49L42 48L43 48L43 47L44 47L44 49L43 49L43 50L44 50L44 49L45 49L45 52L44 52L44 51L43 51L43 52L44 52L44 53L43 53L43 56L42 56L42 57L43 57L43 56L44 56L44 53L45 53L45 52L46 52L46 51L47 51L47 52L49 52L49 51L48 51L48 49L47 49L47 47L49 47L49 46L51 46L51 45L52 45L52 47L50 47L50 48L49 48L49 49L50 49L50 50L52 50L52 51L53 51L53 52L54 52L54 51L53 51L53 48L54 48L54 47L55 47L55 48L56 48L56 49L55 49L55 51L56 51L56 49L57 49L57 48L56 48L56 47L55 47L55 46L53 46L53 44L54 44L54 43L53 43L53 41L54 41L54 39L53 39L53 40L50 40L50 43L49 43L49 41L48 41L48 42L47 42L47 40L48 40L48 38L49 38L49 37L45 37L45 36L47 36L47 35L48 35L48 34L47 34L47 33L46 33L46 32L47 32L47 31L46 31L46 32L44 32L44 31L45 31L45 30L47 30L47 28L49 28L49 29L48 29L48 30L49 30L49 29L50 29L50 26L51 26L51 25L53 25L53 26L54 26L54 24L53 24L53 22L54 22L54 23L55 23L55 22L54 22L54 21L53 21L53 20L52 20L52 18L53 18L53 17L55 17L55 16L52 16L52 15L54 15L54 14L52 14L52 15L49 15L49 14L47 14L47 15L45 15L45 14L42 14L42 15L40 15L40 14L39 14L39 13L40 13L40 12L41 12L41 11ZM44 12L44 13L45 13L45 12ZM50 12L50 14L51 14L51 12ZM52 12L52 13L54 13L54 12ZM9 13L9 14L10 14L10 13ZM59 13L59 14L62 14L62 13ZM44 15L44 16L45 16L45 18L44 18L44 19L45 19L45 18L46 18L46 19L47 19L47 20L46 20L46 21L49 21L49 22L47 22L47 24L46 24L46 22L44 22L44 23L45 23L45 24L46 24L46 25L47 25L47 27L49 27L49 26L50 26L50 25L51 25L51 24L52 24L52 22L51 22L51 23L50 23L50 25L49 25L49 24L48 24L48 23L49 23L49 22L50 22L50 20L51 20L51 19L50 19L50 16L45 16L45 15ZM56 15L56 17L57 17L57 15ZM51 16L51 18L52 18L52 16ZM24 17L24 18L26 18L26 17ZM27 17L27 18L28 18L28 17ZM46 17L46 18L47 18L47 19L48 19L48 18L49 18L49 17ZM6 18L6 19L7 19L7 18ZM10 18L10 21L11 21L11 22L10 22L10 24L11 24L11 22L12 22L12 23L13 23L13 22L12 22L12 19L11 19L11 18ZM3 19L3 20L2 20L2 21L3 21L3 20L5 20L5 19ZM23 19L23 20L24 20L24 19ZM58 19L58 20L57 20L57 22L58 22L58 23L59 23L59 22L58 22L58 21L59 21L59 19ZM37 20L37 21L38 21L38 20ZM6 21L6 22L8 22L8 21ZM19 23L19 24L20 24L20 23ZM35 24L35 25L36 25L36 24ZM47 24L47 25L48 25L48 24ZM3 25L3 26L7 26L7 25ZM34 26L34 27L33 27L33 28L34 28L34 29L33 29L33 30L32 30L32 32L34 32L34 31L33 31L33 30L34 30L34 29L35 29L35 30L36 30L36 28L35 28L35 27L36 27L36 26ZM51 27L51 28L52 28L52 27ZM67 27L67 28L68 28L68 27ZM31 28L31 29L32 29L32 28ZM39 28L39 29L40 29L40 28ZM44 29L44 30L45 30L45 29ZM25 30L25 31L26 31L26 32L24 32L24 33L22 33L22 34L21 34L21 36L24 36L24 37L23 37L23 38L25 38L25 39L23 39L23 40L24 40L24 41L23 41L23 42L24 42L24 41L26 41L26 40L27 40L27 41L28 41L28 40L29 40L29 41L30 41L30 42L25 42L25 44L26 44L26 43L28 43L28 44L27 44L27 45L28 45L28 44L29 44L29 43L31 43L31 42L32 42L32 45L34 45L34 47L35 47L35 48L36 48L36 47L37 47L37 46L38 46L38 45L39 45L39 46L40 46L40 47L39 47L39 48L40 48L40 47L41 47L41 48L42 48L42 46L44 46L44 45L43 45L43 44L45 44L45 45L47 45L47 46L49 46L49 45L50 45L50 44L51 44L51 43L52 43L52 41L51 41L51 43L50 43L50 44L48 44L48 43L47 43L47 42L46 42L46 44L45 44L45 42L44 42L44 40L41 40L41 39L45 39L45 40L47 40L47 38L45 38L45 37L44 37L44 36L45 36L45 33L44 33L44 32L43 32L43 33L40 33L40 35L39 35L39 36L41 36L41 37L40 37L40 38L39 38L39 40L41 40L41 41L40 41L40 43L39 43L39 44L38 44L38 45L34 45L34 44L33 44L33 43L35 43L35 44L37 44L37 43L38 43L38 41L37 41L37 43L36 43L36 42L34 42L34 41L30 41L30 40L29 40L29 39L30 39L30 38L28 38L28 39L27 39L27 37L28 37L28 36L29 36L29 34L30 34L30 33L28 33L28 31L29 31L29 32L30 32L30 31L29 31L29 30ZM51 30L51 32L53 32L53 31L52 31L52 30ZM61 30L61 31L62 31L62 30ZM10 31L10 32L9 32L9 34L10 34L10 32L11 32L11 31ZM35 31L35 32L37 32L37 31ZM63 31L63 32L64 32L64 31ZM17 32L17 33L16 33L16 34L17 34L17 33L18 33L18 32ZM5 33L5 36L8 36L8 33ZM25 33L25 34L23 34L23 35L24 35L24 36L25 36L25 35L26 35L26 37L27 37L27 36L28 36L28 35L27 35L27 34L28 34L28 33ZM33 33L33 36L36 36L36 33ZM43 33L43 34L41 34L41 35L43 35L43 36L42 36L42 37L43 37L43 36L44 36L44 33ZM61 33L61 36L64 36L64 33ZM6 34L6 35L7 35L7 34ZM34 34L34 35L35 35L35 34ZM62 34L62 35L63 35L63 34ZM9 35L9 36L10 36L10 35ZM55 35L55 36L56 36L56 37L55 37L55 38L56 38L56 39L57 39L57 38L56 38L56 37L57 37L57 36L56 36L56 35ZM11 36L11 38L12 38L12 36ZM59 37L59 38L60 38L60 37ZM14 38L14 40L15 40L15 39L16 39L16 38ZM9 39L9 40L10 40L10 39ZM25 39L25 40L26 40L26 39ZM21 40L21 41L22 41L22 40ZM55 40L55 41L57 41L57 40ZM61 40L61 41L62 41L62 42L63 42L63 41L62 41L62 40ZM43 42L43 43L44 43L44 42ZM12 43L12 44L11 44L11 45L12 45L12 44L13 44L13 43ZM22 43L22 44L24 44L24 43ZM40 43L40 44L39 44L39 45L40 45L40 44L41 44L41 43ZM14 44L14 45L16 45L16 46L15 46L15 47L17 47L17 45L16 45L16 44ZM41 45L41 46L42 46L42 45ZM32 46L32 47L33 47L33 46ZM35 46L35 47L36 47L36 46ZM4 47L4 49L2 49L2 50L5 50L5 48L7 48L7 47ZM45 47L45 49L46 49L46 47ZM15 48L15 49L14 49L14 50L17 50L17 52L19 52L19 51L20 51L20 50L19 50L19 51L18 51L18 49L17 49L17 48ZM6 49L6 50L7 50L7 49ZM27 49L27 50L28 50L28 49ZM8 50L8 51L9 51L9 50ZM30 50L30 51L31 51L31 52L32 52L32 53L33 53L33 52L32 52L32 50ZM14 51L14 52L15 52L15 51ZM61 51L61 53L62 53L62 54L63 54L63 53L64 53L64 51ZM26 52L26 53L25 53L25 54L23 54L23 56L25 56L25 57L27 57L27 58L25 58L25 60L26 60L26 59L27 59L27 58L29 58L29 57L30 57L30 56L29 56L29 55L30 55L30 54L31 54L31 55L32 55L32 54L31 54L31 53L30 53L30 52L29 52L29 53L27 53L27 52ZM37 52L37 53L38 53L38 52ZM56 52L56 53L57 53L57 52ZM62 52L62 53L63 53L63 52ZM29 53L29 54L25 54L25 55L26 55L26 56L27 56L27 57L28 57L28 56L27 56L27 55L29 55L29 54L30 54L30 53ZM48 53L48 54L49 54L49 53ZM34 54L34 55L35 55L35 54ZM15 56L15 57L16 57L16 56ZM59 56L59 57L60 57L60 56ZM32 57L32 58L33 58L33 57ZM55 57L55 58L56 58L56 57ZM65 57L65 58L66 58L66 57ZM17 58L17 59L18 59L18 58ZM34 59L34 60L35 60L35 59ZM3 60L3 61L5 61L5 60ZM11 60L11 61L12 61L12 60ZM9 61L9 63L10 63L10 66L9 66L9 67L11 67L11 65L12 65L12 66L13 66L13 65L15 65L15 67L17 67L17 68L18 68L18 67L19 67L19 66L18 66L18 67L17 67L17 65L18 65L18 64L17 64L17 65L15 65L15 64L13 64L13 65L12 65L12 64L11 64L11 62L10 62L10 61ZM13 61L13 62L12 62L12 63L13 63L13 62L14 62L14 61ZM19 61L19 62L20 62L20 61ZM33 61L33 64L36 64L36 61ZM51 61L51 62L52 62L52 61ZM61 61L61 64L64 64L64 61ZM34 62L34 63L35 63L35 62ZM62 62L62 63L63 63L63 62ZM65 62L65 63L66 63L66 62ZM56 64L56 65L55 65L55 66L54 66L54 67L55 67L55 66L56 66L56 65L57 65L57 64ZM31 65L31 66L32 66L32 65ZM66 65L66 66L65 66L65 67L63 67L63 68L64 68L64 69L65 69L65 68L67 68L67 69L68 69L68 68L67 68L67 65ZM12 67L12 68L13 68L13 67ZM57 67L57 68L58 68L58 67ZM50 68L50 69L51 69L51 68ZM0 0L0 7L7 7L7 0ZM1 1L1 6L6 6L6 1ZM2 2L2 5L5 5L5 2ZM62 0L62 7L69 7L69 0ZM63 1L63 6L68 6L68 1ZM64 2L64 5L67 5L67 2ZM0 62L0 69L7 69L7 62ZM1 63L1 68L6 68L6 63ZM2 64L2 67L5 67L5 64Z" fill="#000000"/></g></g></svg>
