<?xml version="1.0" encoding="UTF-8"?>
<svg xmlns="http://www.w3.org/2000/svg" version="1.1" width="300" height="300" viewBox="0 0 300 300"><rect x="0" y="0" width="300" height="300" fill="#ffffff"/><g transform="scale(4.348)"><g transform="translate(0,0)"><path fill-rule="evenodd" d="M8 0L8 4L9 4L9 2L12 2L12 1L14 1L14 2L13 2L13 3L12 3L12 4L11 4L11 5L8 5L8 7L9 7L9 8L10 8L10 10L11 10L11 11L10 11L10 13L11 13L11 14L9 14L9 16L11 16L11 14L12 14L12 17L10 17L10 18L12 18L12 19L11 19L11 20L10 20L10 19L9 19L9 20L8 20L8 21L7 21L7 20L5 20L5 19L8 19L8 18L9 18L9 17L7 17L7 16L8 16L8 15L7 15L7 14L5 14L5 13L7 13L7 12L5 12L5 11L7 11L7 10L9 10L9 9L7 9L7 8L4 8L4 10L3 10L3 9L2 9L2 8L0 8L0 11L1 11L1 10L3 10L3 11L2 11L2 12L3 12L3 11L4 11L4 14L5 14L5 16L6 16L6 17L7 17L7 18L5 18L5 17L4 17L4 16L3 16L3 17L2 17L2 15L3 15L3 14L2 14L2 13L1 13L1 12L0 12L0 13L1 13L1 14L2 14L2 15L1 15L1 16L0 16L0 18L1 18L1 17L2 17L2 18L4 18L4 20L3 20L3 21L5 21L5 22L6 22L6 23L8 23L8 24L6 24L6 25L5 25L5 26L4 26L4 25L3 25L3 26L2 26L2 23L3 23L3 24L4 24L4 22L2 22L2 20L1 20L1 19L0 19L0 20L1 20L1 23L0 23L0 26L2 26L2 27L0 27L0 28L3 28L3 26L4 26L4 29L5 29L5 30L6 30L6 31L5 31L5 32L4 32L4 30L3 30L3 32L2 32L2 31L1 31L1 30L2 30L2 29L1 29L1 30L0 30L0 31L1 31L1 32L0 32L0 33L2 33L2 34L0 34L0 35L3 35L3 36L1 36L1 40L2 40L2 39L3 39L3 40L4 40L4 41L2 41L2 42L1 42L1 41L0 41L0 47L1 47L1 48L3 48L3 47L4 47L4 48L6 48L6 49L5 49L5 50L4 50L4 49L3 49L3 51L4 51L4 52L2 52L2 51L0 51L0 54L1 54L1 57L0 57L0 61L1 61L1 58L2 58L2 59L3 59L3 58L2 58L2 57L4 57L4 59L7 59L7 60L6 60L6 61L7 61L7 60L8 60L8 62L9 62L9 61L10 61L10 63L11 63L11 62L12 62L12 63L13 63L13 61L12 61L12 60L11 60L11 59L14 59L14 58L12 58L12 55L13 55L13 54L14 54L14 53L15 53L15 55L14 55L14 57L15 57L15 59L16 59L16 58L17 58L17 59L18 59L18 58L17 58L17 57L20 57L20 59L22 59L22 60L21 60L21 61L20 61L20 60L18 60L18 61L17 61L17 63L16 63L16 60L15 60L15 63L14 63L14 65L13 65L13 64L12 64L12 65L10 65L10 64L9 64L9 63L8 63L8 65L10 65L10 66L9 66L9 67L8 67L8 69L9 69L9 68L10 68L10 67L11 67L11 69L12 69L12 68L13 68L13 69L19 69L19 67L20 67L20 66L21 66L21 67L22 67L22 68L21 68L21 69L22 69L22 68L24 68L24 69L25 69L25 68L24 68L24 67L25 67L25 66L26 66L26 69L29 69L29 67L28 67L28 64L29 64L29 65L32 65L32 67L31 67L31 66L30 66L30 67L31 67L31 68L30 68L30 69L31 69L31 68L32 68L32 69L33 69L33 68L34 68L34 69L38 69L38 68L39 68L39 69L40 69L40 68L41 68L41 69L43 69L43 68L44 68L44 69L46 69L46 68L44 68L44 67L45 67L45 66L46 66L46 67L47 67L47 66L46 66L46 65L45 65L45 64L46 64L46 63L47 63L47 62L48 62L48 63L49 63L49 60L50 60L50 62L51 62L51 63L50 63L50 64L47 64L47 65L50 65L50 66L48 66L48 68L47 68L47 69L50 69L50 68L51 68L51 69L52 69L52 68L53 68L53 69L54 69L54 67L50 67L50 66L51 66L51 65L52 65L52 64L53 64L53 66L55 66L55 65L57 65L57 66L58 66L58 67L57 67L57 68L56 68L56 67L55 67L55 68L56 68L56 69L57 69L57 68L58 68L58 69L59 69L59 68L60 68L60 67L59 67L59 66L58 66L58 64L60 64L60 66L61 66L61 69L62 69L62 67L63 67L63 69L64 69L64 68L65 68L65 69L67 69L67 68L65 68L65 66L69 66L69 65L65 65L65 63L66 63L66 62L67 62L67 63L68 63L68 64L69 64L69 63L68 63L68 61L69 61L69 59L68 59L68 58L69 58L69 56L68 56L68 55L67 55L67 53L69 53L69 52L68 52L68 51L69 51L69 49L68 49L68 48L69 48L69 47L68 47L68 45L69 45L69 43L68 43L68 42L69 42L69 40L68 40L68 38L69 38L69 36L68 36L68 37L65 37L65 33L66 33L66 34L67 34L67 35L68 35L68 33L69 33L69 32L68 32L68 33L66 33L66 32L63 32L63 31L62 31L62 32L59 32L59 34L58 34L58 32L56 32L56 33L54 33L54 32L55 32L55 31L56 31L56 30L55 30L55 29L54 29L54 28L53 28L53 27L56 27L56 26L55 26L55 25L54 25L54 24L53 24L53 26L51 26L51 25L52 25L52 21L51 21L51 19L52 19L52 18L51 18L51 17L52 17L52 16L56 16L56 17L53 17L53 20L55 20L55 18L56 18L56 19L58 19L58 21L57 21L57 20L56 20L56 21L53 21L53 23L54 23L54 22L56 22L56 23L55 23L55 24L56 24L56 25L57 25L57 27L59 27L59 28L56 28L56 29L57 29L57 31L59 31L59 30L60 30L60 31L61 31L61 28L62 28L62 26L64 26L64 24L65 24L65 26L66 26L66 27L63 27L63 29L62 29L62 30L64 30L64 31L68 31L68 29L69 29L69 28L68 28L68 26L67 26L67 24L68 24L68 21L69 21L69 20L68 20L68 18L67 18L67 17L68 17L68 12L67 12L67 16L66 16L66 18L65 18L65 17L64 17L64 16L65 16L65 15L64 15L64 14L65 14L65 13L64 13L64 12L65 12L65 11L68 11L68 10L69 10L69 8L65 8L65 9L64 9L64 8L63 8L63 9L62 9L62 10L61 10L61 9L60 9L60 8L59 8L59 14L58 14L58 13L57 13L57 12L58 12L58 11L56 11L56 13L55 13L55 12L54 12L54 11L53 11L53 10L55 10L55 9L54 9L54 8L53 8L53 6L54 6L54 7L55 7L55 8L56 8L56 9L57 9L57 10L58 10L58 9L57 9L57 6L58 6L58 7L59 7L59 4L58 4L58 5L57 5L57 4L56 4L56 3L59 3L59 2L57 2L57 0L52 0L52 4L50 4L50 5L52 5L52 4L53 4L53 6L52 6L52 7L51 7L51 6L50 6L50 7L49 7L49 5L47 5L47 6L46 6L46 4L45 4L45 6L44 6L44 3L45 3L45 2L46 2L46 0L45 0L45 1L44 1L44 0L41 0L41 1L42 1L42 2L44 2L44 3L43 3L43 4L41 4L41 3L40 3L40 0L37 0L37 1L35 1L35 0L32 0L32 1L30 1L30 0L29 0L29 1L30 1L30 3L33 3L33 2L34 2L34 4L32 4L32 5L31 5L31 4L30 4L30 5L29 5L29 6L28 6L28 4L29 4L29 2L28 2L28 3L27 3L27 2L25 2L25 4L24 4L24 2L22 2L22 0L17 0L17 1L18 1L18 2L19 2L19 1L20 1L20 2L21 2L21 3L20 3L20 5L19 5L19 4L18 4L18 5L16 5L16 4L15 4L15 6L14 6L14 7L13 7L13 6L12 6L12 7L11 7L11 5L13 5L13 3L14 3L14 2L16 2L16 3L17 3L17 2L16 2L16 0L15 0L15 1L14 1L14 0L11 0L11 1L9 1L9 0ZM23 0L23 1L26 1L26 0ZM47 0L47 1L48 1L48 2L49 2L49 3L51 3L51 2L50 2L50 1L51 1L51 0L50 0L50 1L49 1L49 0ZM58 0L58 1L61 1L61 0ZM32 1L32 2L33 2L33 1ZM34 1L34 2L35 2L35 4L37 4L37 8L38 8L38 9L37 9L37 10L36 10L36 9L32 9L32 6L31 6L31 5L30 5L30 6L29 6L29 7L28 7L28 6L27 6L27 7L28 7L28 8L27 8L27 9L26 9L26 8L25 8L25 7L26 7L26 4L27 4L27 3L26 3L26 4L25 4L25 5L22 5L22 3L21 3L21 9L22 9L22 10L21 10L21 12L20 12L20 11L19 11L19 13L21 13L21 14L20 14L20 15L19 15L19 16L18 16L18 17L17 17L17 16L16 16L16 17L17 17L17 18L15 18L15 19L13 19L13 20L11 20L11 22L9 22L9 21L8 21L8 23L9 23L9 24L8 24L8 26L7 26L7 25L6 25L6 26L5 26L5 29L6 29L6 30L7 30L7 29L6 29L6 28L8 28L8 30L9 30L9 31L6 31L6 32L9 32L9 33L10 33L10 35L9 35L9 37L6 37L6 38L5 38L5 37L4 37L4 36L3 36L3 37L2 37L2 38L4 38L4 39L5 39L5 40L7 40L7 41L6 41L6 42L5 42L5 41L4 41L4 44L7 44L7 43L8 43L8 44L9 44L9 47L8 47L8 45L4 45L4 47L5 47L5 46L7 46L7 47L6 47L6 48L7 48L7 49L6 49L6 50L5 50L5 51L6 51L6 52L7 52L7 53L5 53L5 54L4 54L4 53L3 53L3 54L2 54L2 55L3 55L3 56L4 56L4 57L5 57L5 58L7 58L7 57L6 57L6 56L8 56L8 55L9 55L9 54L10 54L10 53L12 53L12 54L13 54L13 53L14 53L14 48L15 48L15 49L16 49L16 50L15 50L15 52L16 52L16 50L18 50L18 49L19 49L19 51L20 51L20 50L21 50L21 52L22 52L22 54L20 54L20 53L16 53L16 54L19 54L19 56L20 56L20 57L21 57L21 58L23 58L23 59L24 59L24 60L22 60L22 61L21 61L21 62L20 62L20 61L18 61L18 63L17 63L17 64L15 64L15 65L16 65L16 66L13 66L13 68L14 68L14 67L16 67L16 66L17 66L17 67L18 67L18 66L17 66L17 65L18 65L18 64L19 64L19 65L20 65L20 64L19 64L19 63L21 63L21 64L22 64L22 65L21 65L21 66L22 66L22 67L24 67L24 66L22 66L22 65L27 65L27 64L26 64L26 63L24 63L24 64L23 64L23 62L22 62L22 61L25 61L25 62L26 62L26 58L27 58L27 57L25 57L25 58L24 58L24 57L21 57L21 56L20 56L20 55L22 55L22 56L27 56L27 55L28 55L28 54L31 54L31 55L29 55L29 56L28 56L28 58L30 58L30 59L28 59L28 60L27 60L27 61L28 61L28 63L30 63L30 64L31 64L31 63L32 63L32 60L31 60L31 59L34 59L34 58L35 58L35 56L36 56L36 59L35 59L35 60L37 60L37 59L38 59L38 61L37 61L37 64L38 64L38 65L37 65L37 66L36 66L36 65L34 65L34 66L35 66L35 67L34 67L34 68L35 68L35 67L37 67L37 68L38 68L38 67L39 67L39 68L40 68L40 67L41 67L41 64L40 64L40 65L39 65L39 64L38 64L38 63L40 63L40 62L38 62L38 61L39 61L39 58L40 58L40 59L41 59L41 60L40 60L40 61L44 61L44 63L43 63L43 62L42 62L42 63L43 63L43 67L44 67L44 63L46 63L46 62L47 62L47 61L46 61L46 60L47 60L47 59L44 59L44 57L43 57L43 54L41 54L41 55L40 55L40 53L42 53L42 52L43 52L43 53L44 53L44 52L45 52L45 51L44 51L44 52L43 52L43 50L42 50L42 51L41 51L41 49L42 49L42 47L44 47L44 48L43 48L43 49L44 49L44 50L45 50L45 49L46 49L46 50L47 50L47 51L46 51L46 54L47 54L47 52L49 52L49 51L50 51L50 52L51 52L51 51L53 51L53 52L52 52L52 54L50 54L50 53L48 53L48 55L49 55L49 54L50 54L50 56L51 56L51 55L52 55L52 58L51 58L51 59L52 59L52 61L51 61L51 62L52 62L52 63L53 63L53 61L56 61L56 62L55 62L55 63L54 63L54 65L55 65L55 63L56 63L56 62L57 62L57 61L58 61L58 63L57 63L57 64L58 64L58 63L59 63L59 61L60 61L60 59L61 59L61 60L62 60L62 59L63 59L63 60L64 60L64 59L63 59L63 56L62 56L62 59L61 59L61 58L60 58L60 56L59 56L59 57L58 57L58 60L57 60L57 57L56 57L56 56L58 56L58 55L64 55L64 58L65 58L65 57L66 57L66 58L68 58L68 57L67 57L67 55L64 55L64 54L66 54L66 53L65 53L65 52L67 52L67 51L68 51L68 49L67 49L67 46L66 46L66 44L67 44L67 45L68 45L68 43L67 43L67 42L66 42L66 41L67 41L67 38L65 38L65 37L60 37L60 39L59 39L59 35L57 35L57 34L55 34L55 35L54 35L54 33L53 33L53 31L55 31L55 30L52 30L52 29L53 29L53 28L52 28L52 27L51 27L51 28L50 28L50 27L49 27L49 26L50 26L50 25L49 25L49 26L47 26L47 25L48 25L48 23L47 23L47 25L46 25L46 26L47 26L47 28L46 28L46 27L45 27L45 29L46 29L46 32L49 32L49 33L46 33L46 35L45 35L45 37L46 37L46 42L44 42L44 40L45 40L45 38L44 38L44 37L43 37L43 35L44 35L44 34L45 34L45 33L44 33L44 30L43 30L43 31L38 31L38 32L39 32L39 33L44 33L44 34L43 34L43 35L42 35L42 37L43 37L43 38L44 38L44 40L43 40L43 39L42 39L42 38L40 38L40 41L41 41L41 40L43 40L43 42L42 42L42 43L41 43L41 42L39 42L39 43L38 43L38 39L39 39L39 38L38 38L38 37L37 37L37 38L36 38L36 37L35 37L35 38L34 38L34 39L33 39L33 38L32 38L32 35L31 35L31 34L32 34L32 33L31 33L31 34L30 34L30 33L27 33L27 36L28 36L28 38L30 38L30 37L29 37L29 36L30 36L30 35L31 35L31 39L28 39L28 42L31 42L31 43L29 43L29 44L31 44L31 45L28 45L28 43L26 43L26 42L27 42L27 41L26 41L26 39L27 39L27 37L26 37L26 35L25 35L25 34L24 34L24 33L26 33L26 32L24 32L24 31L27 31L27 32L30 32L30 31L31 31L31 29L33 29L33 30L32 30L32 32L33 32L33 30L34 30L34 31L35 31L35 32L37 32L37 30L38 30L38 27L39 27L39 28L40 28L40 29L39 29L39 30L41 30L41 29L44 29L44 28L43 28L43 27L44 27L44 26L45 26L45 25L44 25L44 24L45 24L45 22L44 22L44 23L43 23L43 22L42 22L42 23L41 23L41 24L40 24L40 27L39 27L39 26L38 26L38 25L39 25L39 23L38 23L38 21L39 21L39 22L41 22L41 20L43 20L43 21L44 21L44 20L45 20L45 21L46 21L46 22L48 22L48 21L47 21L47 20L46 20L46 19L44 19L44 18L41 18L41 19L40 19L40 21L39 21L39 20L38 20L38 17L39 17L39 18L40 18L40 17L42 17L42 16L40 16L40 15L41 15L41 14L40 14L40 13L44 13L44 12L45 12L45 11L46 11L46 10L47 10L47 8L49 8L49 10L50 10L50 9L51 9L51 10L52 10L52 9L53 9L53 8L52 8L52 9L51 9L51 7L50 7L50 8L49 8L49 7L48 7L48 6L47 6L47 8L45 8L45 9L44 9L44 6L43 6L43 10L44 10L44 12L41 12L41 11L42 11L42 10L40 10L40 13L39 13L39 10L38 10L38 9L42 9L42 8L41 8L41 7L42 7L42 6L41 6L41 7L40 7L40 5L41 5L41 4L40 4L40 3L39 3L39 4L40 4L40 5L39 5L39 7L38 7L38 2L39 2L39 1L37 1L37 2L35 2L35 1ZM54 1L54 2L53 2L53 3L54 3L54 4L55 4L55 7L56 7L56 4L55 4L55 3L54 3L54 2L56 2L56 1ZM60 3L60 5L61 5L61 3ZM33 5L33 8L36 8L36 5ZM9 6L9 7L10 7L10 6ZM15 6L15 7L14 7L14 8L15 8L15 10L16 10L16 9L17 9L17 10L20 10L20 6L19 6L19 9L17 9L17 8L18 8L18 6L17 6L17 8L16 8L16 6ZM22 6L22 8L24 8L24 9L23 9L23 10L22 10L22 12L21 12L21 13L22 13L22 15L21 15L21 16L19 16L19 17L18 17L18 19L16 19L16 20L17 20L17 21L15 21L15 22L14 22L14 24L12 24L12 23L13 23L13 21L12 21L12 22L11 22L11 24L12 24L12 25L10 25L10 24L9 24L9 25L10 25L10 27L9 27L9 26L8 26L8 27L9 27L9 29L10 29L10 28L11 28L11 29L12 29L12 28L13 28L13 30L11 30L11 31L12 31L12 32L14 32L14 31L13 31L13 30L14 30L14 28L13 28L13 27L14 27L14 26L15 26L15 27L16 27L16 26L17 26L17 25L20 25L20 27L21 27L21 25L24 25L24 26L25 26L25 27L26 27L26 29L22 29L22 28L20 28L20 30L19 30L19 26L18 26L18 27L17 27L17 29L18 29L18 30L16 30L16 28L15 28L15 30L16 30L16 31L18 31L18 30L19 30L19 32L18 32L18 33L17 33L17 35L18 35L18 36L17 36L17 38L16 38L16 37L15 37L15 35L16 35L16 33L14 33L14 36L13 36L13 33L12 33L12 36L11 36L11 35L10 35L10 36L11 36L11 37L9 37L9 38L11 38L11 37L12 37L12 38L16 38L16 39L14 39L14 40L13 40L13 39L11 39L11 40L13 40L13 41L16 41L16 39L17 39L17 38L18 38L18 40L17 40L17 42L16 42L16 43L15 43L15 44L14 44L14 42L11 42L11 41L10 41L10 40L9 40L9 41L10 41L10 42L8 42L8 43L9 43L9 44L11 44L11 43L13 43L13 44L12 44L12 45L10 45L10 48L9 48L9 49L10 49L10 50L9 50L9 51L8 51L8 54L6 54L6 55L8 55L8 54L9 54L9 53L10 53L10 52L9 52L9 51L10 51L10 50L11 50L11 49L12 49L12 52L13 52L13 48L14 48L14 47L15 47L15 48L16 48L16 47L17 47L17 49L18 49L18 48L19 48L19 49L22 49L22 44L23 44L23 43L24 43L24 45L23 45L23 47L24 47L24 49L23 49L23 50L22 50L22 51L23 51L23 54L24 54L24 55L25 55L25 52L26 52L26 55L27 55L27 54L28 54L28 53L31 53L31 54L32 54L32 55L31 55L31 56L29 56L29 57L31 57L31 58L32 58L32 57L31 57L31 56L32 56L32 55L36 55L36 54L37 54L37 53L38 53L38 55L39 55L39 56L38 56L38 58L39 58L39 57L40 57L40 58L42 58L42 60L44 60L44 61L45 61L45 62L46 62L46 61L45 61L45 60L44 60L44 59L43 59L43 57L42 57L42 56L41 56L41 57L40 57L40 55L39 55L39 53L40 53L40 50L39 50L39 49L40 49L40 47L39 47L39 49L38 49L38 50L39 50L39 51L37 51L37 49L36 49L36 48L35 48L35 49L34 49L34 47L37 47L37 48L38 48L38 46L40 46L40 45L39 45L39 44L38 44L38 43L37 43L37 41L36 41L36 40L35 40L35 39L34 39L34 40L33 40L33 39L32 39L32 40L29 40L29 41L31 41L31 42L32 42L32 40L33 40L33 41L34 41L34 40L35 40L35 42L33 42L33 43L34 43L34 44L32 44L32 45L34 45L34 46L32 46L32 47L30 47L30 48L28 48L28 45L27 45L27 44L26 44L26 43L25 43L25 42L26 42L26 41L25 41L25 40L24 40L24 41L23 41L23 43L22 43L22 41L21 41L21 39L22 39L22 40L23 40L23 39L25 39L25 37L24 37L24 36L23 36L23 38L22 38L22 35L21 35L21 36L20 36L20 38L19 38L19 35L20 35L20 34L21 34L21 33L22 33L22 31L23 31L23 30L27 30L27 31L30 31L30 29L31 29L31 28L32 28L32 27L34 27L34 28L33 28L33 29L34 29L34 30L35 30L35 31L36 31L36 29L34 29L34 28L35 28L35 27L34 27L34 26L35 26L35 25L36 25L36 26L37 26L37 25L38 25L38 23L37 23L37 25L36 25L36 23L34 23L34 22L33 22L33 21L35 21L35 22L37 22L37 21L38 21L38 20L37 20L37 19L33 19L33 20L32 20L32 19L31 19L31 18L33 18L33 16L32 16L32 13L33 13L33 12L32 12L32 11L31 11L31 10L30 10L30 11L31 11L31 12L29 12L29 13L31 13L31 16L30 16L30 15L29 15L29 14L28 14L28 13L27 13L27 12L28 12L28 11L29 11L29 10L28 10L28 9L27 9L27 10L26 10L26 9L25 9L25 8L24 8L24 7L25 7L25 6L24 6L24 7L23 7L23 6ZM30 6L30 8L29 8L29 9L31 9L31 6ZM34 6L34 7L35 7L35 6ZM45 6L45 7L46 7L46 6ZM60 6L60 7L61 7L61 6ZM12 7L12 8L11 8L11 9L13 9L13 10L14 10L14 9L13 9L13 7ZM5 9L5 10L4 10L4 11L5 11L5 10L7 10L7 9ZM24 9L24 10L25 10L25 11L26 11L26 12L27 12L27 11L26 11L26 10L25 10L25 9ZM45 9L45 10L46 10L46 9ZM65 9L65 10L67 10L67 9ZM33 10L33 11L34 11L34 13L35 13L35 14L36 14L36 11L35 11L35 10ZM37 10L37 11L38 11L38 10ZM60 10L60 13L61 13L61 14L59 14L59 15L58 15L58 16L57 16L57 15L56 15L56 14L57 14L57 13L56 13L56 14L55 14L55 15L56 15L56 16L57 16L57 17L58 17L58 18L59 18L59 17L60 17L60 16L59 16L59 15L61 15L61 18L60 18L60 20L59 20L59 21L58 21L58 24L57 24L57 25L58 25L58 26L60 26L60 28L61 28L61 26L62 26L62 25L63 25L63 24L64 24L64 23L65 23L65 24L67 24L67 23L66 23L66 22L67 22L67 21L68 21L68 20L67 20L67 19L66 19L66 21L65 21L65 20L64 20L64 21L63 21L63 22L62 22L62 20L63 20L63 19L64 19L64 17L63 17L63 19L62 19L62 15L63 15L63 14L64 14L64 13L63 13L63 12L64 12L64 10L62 10L62 11L63 11L63 12L62 12L62 13L61 13L61 10ZM12 11L12 12L13 12L13 13L12 13L12 14L13 14L13 15L14 15L14 17L15 17L15 14L16 14L16 15L18 15L18 13L17 13L17 12L18 12L18 11ZM23 11L23 12L22 12L22 13L25 13L25 14L26 14L26 16L27 16L27 17L25 17L25 16L24 16L24 17L23 17L23 16L21 16L21 17L19 17L19 19L20 19L20 18L21 18L21 17L23 17L23 18L22 18L22 19L23 19L23 18L24 18L24 20L22 20L22 21L21 21L21 20L20 20L20 21L19 21L19 23L20 23L20 25L21 25L21 23L22 23L22 24L23 24L23 21L26 21L26 20L27 20L27 19L29 19L29 20L31 20L31 19L29 19L29 18L31 18L31 17L29 17L29 16L27 16L27 13L25 13L25 12L24 12L24 11ZM48 11L48 12L50 12L50 13L49 13L49 14L48 14L48 13L46 13L46 14L42 14L42 15L43 15L43 17L44 17L44 15L46 15L46 14L48 14L48 15L47 15L47 17L46 17L46 16L45 16L45 17L46 17L46 18L50 18L50 19L48 19L48 20L49 20L49 23L50 23L50 24L51 24L51 23L50 23L50 19L51 19L51 18L50 18L50 17L51 17L51 15L50 15L50 13L51 13L51 14L52 14L52 15L54 15L54 14L53 14L53 13L54 13L54 12L53 12L53 11L52 11L52 13L51 13L51 12L50 12L50 11ZM15 12L15 13L13 13L13 14L15 14L15 13L16 13L16 12ZM31 12L31 13L32 13L32 12ZM38 13L38 15L40 15L40 14L39 14L39 13ZM62 13L62 14L61 14L61 15L62 15L62 14L63 14L63 13ZM6 15L6 16L7 16L7 15ZM34 15L34 16L36 16L36 18L37 18L37 17L38 17L38 16L37 16L37 15ZM48 15L48 17L50 17L50 16L49 16L49 15ZM39 16L39 17L40 17L40 16ZM58 16L58 17L59 17L59 16ZM24 17L24 18L25 18L25 20L26 20L26 18L25 18L25 17ZM27 17L27 18L28 18L28 17ZM34 17L34 18L35 18L35 17ZM43 19L43 20L44 20L44 19ZM35 20L35 21L36 21L36 20ZM60 20L60 21L59 21L59 22L61 22L61 23L62 23L62 24L61 24L61 25L60 25L60 24L58 24L58 25L60 25L60 26L61 26L61 25L62 25L62 24L63 24L63 23L62 23L62 22L61 22L61 20ZM6 21L6 22L7 22L7 21ZM17 21L17 22L15 22L15 24L14 24L14 25L13 25L13 26L14 26L14 25L17 25L17 23L18 23L18 21ZM20 21L20 22L21 22L21 21ZM28 21L28 22L25 22L25 23L24 23L24 24L25 24L25 23L28 23L28 24L27 24L27 25L25 25L25 26L26 26L26 27L27 27L27 28L28 28L28 26L30 26L30 25L28 25L28 24L31 24L31 23L32 23L32 25L31 25L31 27L32 27L32 25L33 25L33 22L31 22L31 21L30 21L30 22L31 22L31 23L28 23L28 22L29 22L29 21ZM56 21L56 22L57 22L57 21ZM27 25L27 26L28 26L28 25ZM41 25L41 27L40 27L40 28L42 28L42 27L43 27L43 26L44 26L44 25ZM6 26L6 27L7 27L7 26ZM11 26L11 28L12 28L12 26ZM22 26L22 27L23 27L23 28L24 28L24 27L23 27L23 26ZM29 27L29 29L28 29L28 30L29 30L29 29L30 29L30 27ZM48 27L48 29L47 29L47 31L48 31L48 30L49 30L49 29L50 29L50 30L51 30L51 29L52 29L52 28L51 28L51 29L50 29L50 28L49 28L49 27ZM66 27L66 29L65 29L65 28L64 28L64 29L65 29L65 30L67 30L67 29L68 29L68 28L67 28L67 27ZM58 29L58 30L59 30L59 29ZM9 31L9 32L10 32L10 33L11 33L11 32L10 32L10 31ZM20 31L20 32L19 32L19 33L20 33L20 32L21 32L21 31ZM49 31L49 32L50 32L50 34L51 34L51 36L50 36L50 35L49 35L49 36L47 36L47 35L46 35L46 37L47 37L47 38L49 38L49 39L50 39L50 38L51 38L51 37L52 37L52 36L53 36L53 38L52 38L52 40L48 40L48 39L47 39L47 41L48 41L48 43L50 43L50 44L46 44L46 45L45 45L45 44L44 44L44 42L43 42L43 43L42 43L42 45L41 45L41 47L42 47L42 46L43 46L43 44L44 44L44 45L45 45L45 48L44 48L44 49L45 49L45 48L46 48L46 49L50 49L50 50L51 50L51 49L50 49L50 48L51 48L51 45L52 45L52 46L53 46L53 47L54 47L54 46L55 46L55 48L54 48L54 49L52 49L52 50L55 50L55 48L56 48L56 50L57 50L57 49L58 49L58 48L62 48L62 44L63 44L63 43L64 43L64 44L65 44L65 43L64 43L64 41L66 41L66 39L65 39L65 38L64 38L64 39L63 39L63 40L62 40L62 38L61 38L61 39L60 39L60 41L61 41L61 42L58 42L58 41L59 41L59 40L58 40L58 41L57 41L57 40L56 40L56 41L57 41L57 43L58 43L58 44L56 44L56 45L57 45L57 46L55 46L55 44L53 44L53 43L54 43L54 42L55 42L55 43L56 43L56 42L55 42L55 41L53 41L53 43L52 43L52 42L51 42L51 41L52 41L52 40L55 40L55 39L54 39L54 38L55 38L55 37L54 37L54 36L53 36L53 33L52 33L52 31L51 31L51 32L50 32L50 31ZM3 32L3 34L4 34L4 32ZM23 32L23 33L24 33L24 32ZM5 33L5 36L8 36L8 33ZM33 33L33 36L36 36L36 33ZM37 33L37 36L38 36L38 35L39 35L39 36L40 36L40 37L41 37L41 35L39 35L39 34L38 34L38 33ZM61 33L61 36L64 36L64 33ZM6 34L6 35L7 35L7 34ZM28 34L28 36L29 36L29 35L30 35L30 34ZM34 34L34 35L35 35L35 34ZM62 34L62 35L63 35L63 34ZM55 35L55 36L56 36L56 37L57 37L57 39L58 39L58 36L56 36L56 35ZM49 36L49 38L50 38L50 36ZM6 38L6 39L8 39L8 38ZM20 38L20 39L21 39L21 38ZM64 39L64 40L63 40L63 41L62 41L62 40L61 40L61 41L62 41L62 43L59 43L59 45L58 45L58 46L59 46L59 45L60 45L60 44L62 44L62 43L63 43L63 41L64 41L64 40L65 40L65 39ZM18 41L18 42L17 42L17 44L18 44L18 43L21 43L21 44L19 44L19 46L20 46L20 45L21 45L21 44L22 44L22 43L21 43L21 42L20 42L20 41ZM24 41L24 42L25 42L25 41ZM49 41L49 42L50 42L50 43L51 43L51 42L50 42L50 41ZM6 42L6 43L7 43L7 42ZM35 43L35 44L34 44L34 45L36 45L36 46L38 46L38 45L37 45L37 43ZM15 44L15 45L14 45L14 46L13 46L13 45L12 45L12 47L14 47L14 46L15 46L15 47L16 47L16 46L17 46L17 47L18 47L18 46L17 46L17 45L16 45L16 44ZM25 44L25 45L26 45L26 47L25 47L25 46L24 46L24 47L25 47L25 48L27 48L27 51L26 51L26 50L25 50L25 51L24 51L24 50L23 50L23 51L24 51L24 52L25 52L25 51L26 51L26 52L27 52L27 53L28 53L28 52L27 52L27 51L28 51L28 50L29 50L29 49L28 49L28 48L27 48L27 45L26 45L26 44ZM50 44L50 45L46 45L46 46L49 46L49 47L48 47L48 48L49 48L49 47L50 47L50 45L51 45L51 44ZM52 44L52 45L53 45L53 44ZM1 45L1 47L3 47L3 45ZM15 45L15 46L16 46L16 45ZM63 45L63 47L64 47L64 48L65 48L65 47L66 47L66 46L64 46L64 45ZM60 46L60 47L61 47L61 46ZM7 47L7 48L8 48L8 47ZM57 47L57 48L58 48L58 47ZM10 48L10 49L11 49L11 48ZM32 48L32 50L31 50L31 49L30 49L30 50L31 50L31 51L29 51L29 52L31 52L31 53L32 53L32 54L33 54L33 48ZM1 49L1 50L2 50L2 49ZM7 49L7 50L6 50L6 51L7 51L7 50L8 50L8 49ZM35 49L35 50L36 50L36 49ZM59 49L59 50L60 50L60 49ZM62 49L62 50L61 50L61 51L60 51L60 53L59 53L59 54L60 54L60 53L62 53L62 54L64 54L64 53L63 53L63 52L64 52L64 49ZM65 49L65 51L66 51L66 50L67 50L67 49ZM62 50L62 51L63 51L63 50ZM31 51L31 52L32 52L32 51ZM35 51L35 52L34 52L34 54L36 54L36 53L37 53L37 51ZM55 51L55 52L53 52L53 53L54 53L54 56L56 56L56 55L57 55L57 54L58 54L58 52L59 52L59 51ZM35 52L35 53L36 53L36 52ZM38 52L38 53L39 53L39 52ZM55 52L55 53L56 53L56 54L55 54L55 55L56 55L56 54L57 54L57 53L56 53L56 52ZM44 54L44 55L45 55L45 54ZM4 55L4 56L5 56L5 55ZM9 56L9 57L8 57L8 58L9 58L9 59L8 59L8 60L9 60L9 59L10 59L10 56ZM15 56L15 57L17 57L17 56ZM33 56L33 57L34 57L34 56ZM46 57L46 58L49 58L49 59L50 59L50 57ZM53 57L53 58L52 58L52 59L54 59L54 58L55 58L55 57ZM65 59L65 61L66 61L66 60L67 60L67 61L68 61L68 59ZM3 60L3 61L5 61L5 60ZM10 60L10 61L11 61L11 60ZM28 60L28 61L29 61L29 62L31 62L31 60ZM56 60L56 61L57 61L57 60ZM58 60L58 61L59 61L59 60ZM33 61L33 64L36 64L36 61ZM61 61L61 64L64 64L64 61ZM34 62L34 63L35 63L35 62ZM62 62L62 63L63 63L63 62ZM50 64L50 65L51 65L51 64ZM38 65L38 66L39 66L39 67L40 67L40 66L39 66L39 65ZM61 65L61 66L62 66L62 65ZM64 65L64 66L63 66L63 67L64 67L64 66L65 66L65 65ZM27 67L27 68L28 68L28 67ZM32 67L32 68L33 68L33 67ZM49 67L49 68L50 68L50 67ZM58 67L58 68L59 68L59 67ZM68 68L68 69L69 69L69 68ZM0 0L0 7L7 7L7 0ZM1 1L1 6L6 6L6 1ZM2 2L2 5L5 5L5 2ZM62 0L62 7L69 7L69 0ZM63 1L63 6L68 6L68 1ZM64 2L64 5L67 5L67 2ZM0 62L0 69L7 69L7 62ZM1 63L1 68L6 68L6 63ZM2 64L2 67L5 67L5 64Z" fill="#000000"/></g></g></svg>
