<?xml version="1.0" encoding="UTF-8"?>
<svg xmlns="http://www.w3.org/2000/svg" version="1.1" width="300" height="300" viewBox="0 0 300 300"><rect x="0" y="0" width="300" height="300" fill="#ffffff"/><g transform="scale(4.348)"><g transform="translate(0,0)"><path fill-rule="evenodd" d="M9 0L9 1L8 1L8 2L9 2L9 3L8 3L8 4L12 4L12 3L13 3L13 1L12 1L12 0L11 0L11 1L12 1L12 3L11 3L11 2L9 2L9 1L10 1L10 0ZM15 0L15 1L14 1L14 2L15 2L15 1L16 1L16 3L17 3L17 5L18 5L18 7L19 7L19 5L20 5L20 7L21 7L21 6L22 6L22 7L23 7L23 6L24 6L24 9L23 9L23 10L22 10L22 11L21 11L21 10L20 10L20 9L22 9L22 8L20 8L20 9L19 9L19 8L17 8L17 9L19 9L19 11L18 11L18 10L16 10L16 9L15 9L15 10L13 10L13 9L14 9L14 8L15 8L15 6L16 6L16 7L17 7L17 6L16 6L16 4L15 4L15 3L14 3L14 5L8 5L8 7L9 7L9 8L6 8L6 9L8 9L8 10L6 10L6 11L4 11L4 10L5 10L5 8L0 8L0 9L1 9L1 13L3 13L3 14L2 14L2 15L1 15L1 16L2 16L2 17L1 17L1 19L2 19L2 21L1 21L1 22L0 22L0 23L1 23L1 24L0 24L0 25L1 25L1 24L2 24L2 23L4 23L4 24L5 24L5 22L3 22L3 18L2 18L2 17L3 17L3 16L5 16L5 18L6 18L6 19L5 19L5 20L6 20L6 21L7 21L7 22L6 22L6 23L7 23L7 24L6 24L6 25L4 25L4 26L6 26L6 27L5 27L5 28L2 28L2 26L3 26L3 25L2 25L2 26L0 26L0 28L1 28L1 29L4 29L4 30L3 30L3 31L4 31L4 32L3 32L3 34L1 34L1 35L3 35L3 36L2 36L2 38L1 38L1 37L0 37L0 38L1 38L1 41L0 41L0 43L1 43L1 44L0 44L0 46L3 46L3 45L4 45L4 44L5 44L5 45L7 45L7 44L5 44L5 43L4 43L4 42L6 42L6 43L7 43L7 42L9 42L9 43L8 43L8 45L9 45L9 44L10 44L10 45L12 45L12 44L11 44L11 43L10 43L10 42L9 42L9 41L11 41L11 42L12 42L12 41L13 41L13 42L14 42L14 44L13 44L13 45L14 45L14 44L15 44L15 45L16 45L16 43L15 43L15 42L16 42L16 41L15 41L15 40L16 40L16 39L17 39L17 38L16 38L16 39L15 39L15 37L14 37L14 38L13 38L13 39L12 39L12 37L13 37L13 36L12 36L12 35L11 35L11 34L10 34L10 33L9 33L9 29L10 29L10 31L11 31L11 29L12 29L12 34L13 34L13 35L14 35L14 36L16 36L16 35L17 35L17 37L18 37L18 39L19 39L19 38L20 38L20 41L19 41L19 40L17 40L17 47L16 47L16 48L15 48L15 47L14 47L14 46L12 46L12 47L11 47L11 46L10 46L10 48L9 48L9 47L7 47L7 46L4 46L4 47L0 47L0 49L1 49L1 50L3 50L3 51L4 51L4 52L3 52L3 54L2 54L2 55L1 55L1 52L2 52L2 51L0 51L0 57L2 57L2 59L3 59L3 57L2 57L2 56L5 56L5 54L6 54L6 55L7 55L7 56L6 56L6 57L9 57L9 59L8 59L8 58L4 58L4 59L8 59L8 60L9 60L9 59L11 59L11 56L10 56L10 57L9 57L9 56L8 56L8 55L11 55L11 54L8 54L8 53L9 53L9 52L10 52L10 51L11 51L11 52L12 52L12 55L13 55L13 56L12 56L12 57L13 57L13 56L14 56L14 57L16 57L16 58L14 58L14 59L16 59L16 60L13 60L13 63L12 63L12 62L10 62L10 61L12 61L12 60L10 60L10 61L8 61L8 63L9 63L9 64L8 64L8 69L9 69L9 66L10 66L10 67L11 67L11 68L10 68L10 69L11 69L11 68L12 68L12 69L15 69L15 68L17 68L17 69L22 69L22 68L18 68L18 67L20 67L20 66L19 66L19 65L20 65L20 64L23 64L23 66L25 66L25 67L24 67L24 68L23 68L23 69L26 69L26 68L27 68L27 67L28 67L28 68L29 68L29 69L32 69L32 68L30 68L30 67L33 67L33 66L34 66L34 67L35 67L35 68L34 68L34 69L35 69L35 68L36 68L36 69L38 69L38 68L37 68L37 67L39 67L39 66L37 66L37 65L38 65L38 64L41 64L41 66L40 66L40 67L41 67L41 68L42 68L42 69L44 69L44 68L48 68L48 69L49 69L49 68L51 68L51 67L50 67L50 65L51 65L51 64L52 64L52 63L53 63L53 65L52 65L52 67L53 67L53 69L55 69L55 68L57 68L57 67L58 67L58 66L57 66L57 65L56 65L56 64L54 64L54 63L56 63L56 60L55 60L55 59L56 59L56 58L57 58L57 59L58 59L58 58L57 58L57 57L58 57L58 56L57 56L57 57L56 57L56 56L55 56L55 55L54 55L54 54L55 54L55 53L56 53L56 52L57 52L57 51L56 51L56 50L55 50L55 49L56 49L56 47L57 47L57 45L58 45L58 44L57 44L57 45L56 45L56 43L57 43L57 42L58 42L58 43L59 43L59 44L62 44L62 45L63 45L63 43L60 43L60 42L61 42L61 41L60 41L60 42L58 42L58 41L56 41L56 38L57 38L57 39L58 39L58 38L57 38L57 37L59 37L59 39L60 39L60 38L61 38L61 39L62 39L62 40L64 40L64 41L62 41L62 42L64 42L64 41L65 41L65 42L66 42L66 43L64 43L64 44L66 44L66 47L65 47L65 46L64 46L64 47L63 47L63 48L62 48L62 46L61 46L61 45L59 45L59 46L61 46L61 48L62 48L62 49L61 49L61 50L60 50L60 49L59 49L59 50L58 50L58 49L57 49L57 50L58 50L58 52L59 52L59 51L61 51L61 52L63 52L63 53L60 53L60 54L63 54L63 53L64 53L64 52L66 52L66 53L67 53L67 54L66 54L66 55L61 55L61 56L60 56L60 55L59 55L59 56L60 56L60 57L59 57L59 59L60 59L60 58L61 58L61 59L62 59L62 58L63 58L63 59L64 59L64 58L63 58L63 57L64 57L64 56L66 56L66 57L65 57L65 58L66 58L66 57L67 57L67 59L65 59L65 60L60 60L60 61L59 61L59 62L58 62L58 61L57 61L57 62L58 62L58 63L57 63L57 64L58 64L58 63L59 63L59 62L60 62L60 66L59 66L59 67L61 67L61 66L62 66L62 67L63 67L63 68L61 68L61 69L64 69L64 68L65 68L65 69L68 69L68 68L67 68L67 67L66 67L66 66L67 66L67 65L66 65L66 66L65 66L65 67L63 67L63 66L64 66L64 65L65 65L65 64L67 64L67 63L68 63L68 64L69 64L69 63L68 63L68 62L67 62L67 60L69 60L69 59L68 59L68 55L67 55L67 54L69 54L69 53L67 53L67 52L68 52L68 50L69 50L69 49L68 49L68 48L69 48L69 47L68 47L68 46L69 46L69 45L68 45L68 44L69 44L69 43L68 43L68 41L67 41L67 39L68 39L68 40L69 40L69 39L68 39L68 36L69 36L69 35L68 35L68 34L69 34L69 31L68 31L68 30L69 30L69 29L68 29L68 28L69 28L69 27L68 27L68 26L65 26L65 25L63 25L63 26L62 26L62 25L61 25L61 23L60 23L60 22L62 22L62 23L63 23L63 24L68 24L68 25L69 25L69 24L68 24L68 23L64 23L64 22L62 22L62 20L61 20L61 18L62 18L62 19L63 19L63 18L65 18L65 20L67 20L67 21L65 21L65 22L69 22L69 21L68 21L68 18L69 18L69 17L68 17L68 16L69 16L69 15L68 15L68 14L69 14L69 11L68 11L68 14L65 14L65 13L67 13L67 11L65 11L65 9L66 9L66 10L69 10L69 9L68 9L68 8L67 8L67 9L66 9L66 8L65 8L65 9L64 9L64 8L63 8L63 9L64 9L64 10L62 10L62 8L61 8L61 6L60 6L60 7L59 7L59 4L56 4L56 3L59 3L59 2L57 2L57 0L56 0L56 3L54 3L54 2L55 2L55 0L52 0L52 1L51 1L51 3L50 3L50 4L49 4L49 1L50 1L50 0L48 0L48 2L47 2L47 1L46 1L46 0L44 0L44 1L46 1L46 2L47 2L47 4L49 4L49 5L48 5L48 7L47 7L47 6L46 6L46 5L44 5L44 3L45 3L45 4L46 4L46 3L45 3L45 2L44 2L44 3L43 3L43 0L41 0L41 1L38 1L38 0L37 0L37 1L35 1L35 0L33 0L33 2L34 2L34 1L35 1L35 2L41 2L41 1L42 1L42 3L41 3L41 6L40 6L40 7L41 7L41 6L42 6L42 7L43 7L43 5L44 5L44 7L45 7L45 9L44 9L44 8L43 8L43 9L40 9L40 10L38 10L38 9L39 9L39 8L38 8L38 7L39 7L39 6L38 6L38 5L37 5L37 4L38 4L38 3L33 3L33 4L31 4L31 3L32 3L32 2L31 2L31 1L32 1L32 0L28 0L28 1L27 1L27 2L26 2L26 1L25 1L25 0L21 0L21 1L23 1L23 2L22 2L22 3L23 3L23 2L26 2L26 3L25 3L25 4L22 4L22 5L20 5L20 4L21 4L21 3L20 3L20 4L19 4L19 2L20 2L20 1L19 1L19 0L17 0L17 1L16 1L16 0ZM58 0L58 1L61 1L61 0ZM17 1L17 3L18 3L18 1ZM29 1L29 3L31 3L31 2L30 2L30 1ZM52 1L52 3L51 3L51 4L50 4L50 6L49 6L49 9L50 9L50 10L47 10L47 7L46 7L46 6L45 6L45 7L46 7L46 9L45 9L45 10L42 10L42 12L41 12L41 10L40 10L40 12L38 12L38 10L36 10L36 9L33 9L33 10L32 10L32 5L30 5L30 4L27 4L27 3L28 3L28 2L27 2L27 3L26 3L26 4L25 4L25 8L26 8L26 9L24 9L24 10L23 10L23 11L22 11L22 12L21 12L21 11L20 11L20 12L21 12L21 13L19 13L19 14L18 14L18 13L17 13L17 11L16 11L16 10L15 10L15 12L16 12L16 13L14 13L14 12L13 12L13 11L12 11L12 9L13 9L13 7L14 7L14 6L13 6L13 7L12 7L12 6L11 6L11 7L10 7L10 6L9 6L9 7L10 7L10 8L11 8L11 10L10 10L10 11L8 11L8 12L7 12L7 11L6 11L6 12L4 12L4 11L2 11L2 12L3 12L3 13L6 13L6 14L5 14L5 16L7 16L7 15L6 15L6 14L7 14L7 13L8 13L8 12L11 12L11 11L12 11L12 12L13 12L13 13L12 13L12 14L11 14L11 13L9 13L9 14L8 14L8 15L9 15L9 16L8 16L8 19L6 19L6 20L7 20L7 21L8 21L8 22L7 22L7 23L8 23L8 24L9 24L9 22L10 22L10 21L8 21L8 19L9 19L9 20L10 20L10 19L9 19L9 17L10 17L10 16L13 16L13 17L14 17L14 18L13 18L13 19L12 19L12 21L11 21L11 22L12 22L12 21L13 21L13 22L14 22L14 20L13 20L13 19L14 19L14 18L16 18L16 17L17 17L17 18L18 18L18 17L22 17L22 18L23 18L23 16L24 16L24 17L26 17L26 19L25 19L25 18L24 18L24 20L20 20L20 22L19 22L19 21L18 21L18 23L17 23L17 22L15 22L15 23L17 23L17 24L16 24L16 25L15 25L15 24L14 24L14 23L12 23L12 24L11 24L11 23L10 23L10 24L11 24L11 25L10 25L10 26L9 26L9 25L8 25L8 26L7 26L7 25L6 25L6 26L7 26L7 27L6 27L6 28L5 28L5 32L8 32L8 31L6 31L6 30L7 30L7 29L6 29L6 28L7 28L7 27L8 27L8 26L9 26L9 28L8 28L8 29L9 29L9 28L10 28L10 29L11 29L11 28L10 28L10 27L12 27L12 25L13 25L13 28L12 28L12 29L13 29L13 31L14 31L14 32L13 32L13 33L16 33L16 34L14 34L14 35L16 35L16 34L17 34L17 35L18 35L18 36L19 36L19 37L20 37L20 38L21 38L21 37L23 37L23 36L21 36L21 35L22 35L22 34L21 34L21 33L25 33L25 34L23 34L23 35L25 35L25 36L26 36L26 37L27 37L27 38L26 38L26 39L27 39L27 40L26 40L26 41L27 41L27 42L29 42L29 43L28 43L28 44L27 44L27 43L26 43L26 42L25 42L25 41L24 41L24 40L25 40L25 38L22 38L22 39L21 39L21 40L22 40L22 41L20 41L20 44L21 44L21 45L20 45L20 47L19 47L19 46L18 46L18 47L17 47L17 48L18 48L18 49L15 49L15 48L14 48L14 49L13 49L13 50L12 50L12 51L13 51L13 53L14 53L14 54L15 54L15 55L18 55L18 54L17 54L17 53L16 53L16 52L15 52L15 53L14 53L14 51L15 51L15 50L18 50L18 51L17 51L17 52L19 52L19 51L20 51L20 50L18 50L18 49L24 49L24 48L23 48L23 47L22 47L22 46L21 46L21 45L24 45L24 44L25 44L25 43L26 43L26 46L25 46L25 47L26 47L26 48L25 48L25 49L26 49L26 50L25 50L25 51L26 51L26 54L25 54L25 56L26 56L26 57L27 57L27 58L26 58L26 59L25 59L25 60L24 60L24 59L23 59L23 58L24 58L24 57L22 57L22 56L21 56L21 55L22 55L22 54L23 54L23 51L24 51L24 50L23 50L23 51L22 51L22 50L21 50L21 52L20 52L20 54L21 54L21 55L19 55L19 56L20 56L20 59L19 59L19 61L18 61L18 62L17 62L17 60L16 60L16 61L15 61L15 62L16 62L16 63L18 63L18 62L19 62L19 64L20 64L20 62L21 62L21 61L23 61L23 62L24 62L24 61L25 61L25 62L27 62L27 61L28 61L28 63L27 63L27 64L28 64L28 65L25 65L25 66L26 66L26 67L25 67L25 68L26 68L26 67L27 67L27 66L28 66L28 65L30 65L30 66L32 66L32 65L30 65L30 64L31 64L31 63L32 63L32 61L28 61L28 60L31 60L31 59L33 59L33 60L35 60L35 59L33 59L33 58L32 58L32 56L33 56L33 57L34 57L34 58L36 58L36 57L37 57L37 58L39 58L39 57L41 57L41 56L39 56L39 57L38 57L38 56L36 56L36 57L35 57L35 56L33 56L33 54L34 54L34 55L35 55L35 49L36 49L36 50L37 50L37 51L39 51L39 53L40 53L40 54L37 54L37 55L41 55L41 53L42 53L42 52L44 52L44 53L43 53L43 54L42 54L42 55L43 55L43 56L42 56L42 57L43 57L43 59L44 59L44 61L45 61L45 62L46 62L46 63L45 63L45 64L44 64L44 62L43 62L43 63L42 63L42 62L41 62L41 60L42 60L42 61L43 61L43 60L42 60L42 58L41 58L41 59L40 59L40 62L39 62L39 61L38 61L38 60L39 60L39 59L38 59L38 60L37 60L37 61L38 61L38 63L37 63L37 64L38 64L38 63L41 63L41 64L44 64L44 66L41 66L41 67L43 67L43 68L44 68L44 66L45 66L45 67L46 67L46 66L47 66L47 64L48 64L48 63L50 63L50 64L51 64L51 62L53 62L53 63L54 63L54 62L53 62L53 61L54 61L54 60L52 60L52 59L55 59L55 58L56 58L56 57L55 57L55 58L52 58L52 59L51 59L51 57L54 57L54 56L51 56L51 55L50 55L50 54L51 54L51 53L53 53L53 54L54 54L54 53L53 53L53 52L54 52L54 50L53 50L53 51L52 51L52 50L51 50L51 49L55 49L55 48L51 48L51 47L53 47L53 43L54 43L54 44L55 44L55 42L53 42L53 43L52 43L52 41L53 41L53 40L54 40L54 41L55 41L55 40L54 40L54 39L53 39L53 37L54 37L54 36L53 36L53 35L52 35L52 34L51 34L51 33L54 33L54 32L55 32L55 31L54 31L54 30L53 30L53 31L54 31L54 32L51 32L51 29L53 29L53 28L54 28L54 29L55 29L55 30L56 30L56 31L57 31L57 32L56 32L56 33L55 33L55 34L54 34L54 35L55 35L55 36L56 36L56 37L57 37L57 35L56 35L56 33L57 33L57 34L60 34L60 33L59 33L59 31L60 31L60 30L59 30L59 29L62 29L62 30L61 30L61 31L62 31L62 30L63 30L63 32L64 32L64 30L65 30L65 31L67 31L67 28L68 28L68 27L67 27L67 28L66 28L66 27L65 27L65 26L64 26L64 27L65 27L65 28L63 28L63 27L62 27L62 26L60 26L60 27L59 27L59 25L60 25L60 24L59 24L59 21L57 21L57 19L58 19L58 20L59 20L59 19L60 19L60 18L59 18L59 17L57 17L57 15L56 15L56 13L57 13L57 14L58 14L58 16L59 16L59 15L60 15L60 14L59 14L59 13L62 13L62 15L61 15L61 16L62 16L62 18L63 18L63 17L65 17L65 18L66 18L66 19L67 19L67 18L66 18L66 16L65 16L65 14L64 14L64 13L65 13L65 12L64 12L64 11L63 11L63 12L64 12L64 13L62 13L62 11L61 11L61 10L59 10L59 9L58 9L58 8L59 8L59 7L58 7L58 5L56 5L56 6L55 6L55 7L56 7L56 9L55 9L55 8L54 8L54 5L53 5L53 4L54 4L54 3L53 3L53 2L54 2L54 1ZM60 3L60 5L61 5L61 3ZM51 4L51 6L50 6L50 9L51 9L51 8L53 8L53 9L52 9L52 10L51 10L51 11L49 11L49 12L47 12L47 11L45 11L45 12L47 12L47 14L49 14L49 16L48 16L48 15L45 15L45 14L44 14L44 16L42 16L42 17L41 17L41 18L39 18L39 19L37 19L37 18L38 18L38 17L32 17L32 16L31 16L31 15L33 15L33 16L34 16L34 15L33 15L33 14L34 14L34 13L35 13L35 15L37 15L37 14L38 14L38 16L40 16L40 15L42 15L42 14L43 14L43 13L44 13L44 11L43 11L43 13L42 13L42 14L41 14L41 12L40 12L40 13L39 13L39 14L38 14L38 12L37 12L37 13L36 13L36 12L34 12L34 11L33 11L33 12L34 12L34 13L33 13L33 14L30 14L30 13L32 13L32 12L31 12L31 11L32 11L32 10L31 10L31 9L30 9L30 8L29 8L29 6L30 6L30 7L31 7L31 6L30 6L30 5L26 5L26 7L27 7L27 9L26 9L26 10L27 10L27 11L25 11L25 12L28 12L28 10L27 10L27 9L28 9L28 8L29 8L29 9L30 9L30 10L29 10L29 11L30 11L30 13L29 13L29 15L30 15L30 16L29 16L29 18L31 18L31 20L28 20L28 19L27 19L27 20L28 20L28 21L33 21L33 22L30 22L30 23L29 23L29 22L27 22L27 23L28 23L28 25L29 25L29 26L30 26L30 28L28 28L28 29L27 29L27 30L26 30L26 28L27 28L27 27L25 27L25 25L26 25L26 20L25 20L25 21L23 21L23 22L22 22L22 21L21 21L21 22L20 22L20 24L22 24L22 25L21 25L21 28L20 28L20 27L19 27L19 28L17 28L17 27L18 27L18 26L20 26L20 25L19 25L19 24L17 24L17 25L16 25L16 26L15 26L15 25L14 25L14 27L16 27L16 28L17 28L17 30L18 30L18 31L17 31L17 32L16 32L16 33L17 33L17 34L18 34L18 35L20 35L20 34L19 34L19 33L20 33L20 31L21 31L21 32L24 32L24 31L26 31L26 32L25 32L25 33L28 33L28 34L27 34L27 35L26 35L26 36L27 36L27 37L28 37L28 36L29 36L29 39L30 39L30 38L31 38L31 36L32 36L32 38L33 38L33 39L32 39L32 41L30 41L30 40L29 40L29 41L30 41L30 43L31 43L31 44L28 44L28 45L27 45L27 48L28 48L28 47L29 47L29 46L28 46L28 45L31 45L31 44L32 44L32 45L34 45L34 48L36 48L36 47L37 47L37 50L38 50L38 48L40 48L40 47L41 47L41 48L42 48L42 49L41 49L41 50L39 50L39 51L40 51L40 52L42 52L42 51L44 51L44 52L45 52L45 53L44 53L44 56L43 56L43 57L44 57L44 56L46 56L46 57L47 57L47 58L48 58L48 59L49 59L49 58L50 58L50 55L49 55L49 54L50 54L50 53L51 53L51 52L52 52L52 51L51 51L51 52L47 52L47 51L49 51L49 50L50 50L50 49L51 49L51 48L50 48L50 47L51 47L51 46L50 46L50 45L51 45L51 44L50 44L50 41L49 41L49 40L47 40L47 38L48 38L48 39L50 39L50 40L51 40L51 38L52 38L52 37L51 37L51 36L52 36L52 35L51 35L51 36L48 36L48 35L49 35L49 34L50 34L50 33L51 33L51 32L46 32L46 31L45 31L45 29L44 29L44 28L45 28L45 27L46 27L46 26L43 26L43 25L44 25L44 24L43 24L43 22L44 22L44 23L45 23L45 24L46 24L46 25L47 25L47 26L48 26L48 27L50 27L50 25L51 25L51 24L53 24L53 25L54 25L54 26L51 26L51 28L50 28L50 29L49 29L49 28L47 28L47 31L50 31L50 29L51 29L51 28L53 28L53 27L54 27L54 26L55 26L55 27L56 27L56 26L55 26L55 25L56 25L56 23L58 23L58 22L56 22L56 20L55 20L55 21L53 21L53 22L54 22L54 24L53 24L53 23L52 23L52 22L50 22L50 21L51 21L51 20L50 20L50 19L51 19L51 18L52 18L52 20L54 20L54 19L53 19L53 18L56 18L56 15L55 15L55 13L56 13L56 12L58 12L58 13L59 13L59 12L61 12L61 11L56 11L56 10L57 10L57 9L56 9L56 10L55 10L55 9L54 9L54 8L53 8L53 5L52 5L52 4ZM22 5L22 6L23 6L23 5ZM33 5L33 8L36 8L36 5ZM27 6L27 7L28 7L28 6ZM34 6L34 7L35 7L35 6ZM37 6L37 7L38 7L38 6ZM51 6L51 7L52 7L52 6ZM56 6L56 7L57 7L57 8L58 8L58 7L57 7L57 6ZM37 8L37 9L38 9L38 8ZM2 9L2 10L4 10L4 9ZM30 10L30 11L31 11L31 10ZM35 10L35 11L36 11L36 10ZM52 10L52 12L50 12L50 13L49 13L49 14L51 14L51 16L50 16L50 17L48 17L48 16L44 16L44 17L43 17L43 20L42 20L42 21L43 21L43 20L44 20L44 22L46 22L46 24L47 24L47 25L48 25L48 26L49 26L49 25L50 25L50 22L49 22L49 23L48 23L48 21L46 21L46 20L47 20L47 19L48 19L48 18L51 18L51 17L52 17L52 18L53 18L53 17L54 17L54 16L52 16L52 14L53 14L53 15L54 15L54 14L53 14L53 13L54 13L54 12L53 12L53 11L55 11L55 12L56 12L56 11L55 11L55 10ZM23 11L23 12L24 12L24 11ZM6 12L6 13L7 13L7 12ZM23 13L23 14L27 14L27 13ZM51 13L51 14L52 14L52 13ZM3 14L3 15L4 15L4 14ZM9 14L9 15L10 15L10 14ZM15 14L15 15L16 15L16 16L15 16L15 17L16 17L16 16L17 16L17 17L18 17L18 16L17 16L17 15L18 15L18 14L17 14L17 15L16 15L16 14ZM19 14L19 15L20 15L20 14ZM21 14L21 15L22 15L22 16L23 16L23 15L22 15L22 14ZM39 14L39 15L40 15L40 14ZM63 14L63 15L62 15L62 16L64 16L64 14ZM13 15L13 16L14 16L14 15ZM25 15L25 16L26 16L26 15ZM6 17L6 18L7 18L7 17ZM27 17L27 18L28 18L28 17ZM19 18L19 19L16 19L16 20L19 20L19 19L20 19L20 18ZM33 18L33 19L32 19L32 20L33 20L33 21L34 21L34 22L35 22L35 20L37 20L37 21L38 21L38 20L37 20L37 19L34 19L34 18ZM44 18L44 19L46 19L46 18ZM40 19L40 20L39 20L39 21L41 21L41 19ZM49 20L49 21L50 21L50 20ZM21 22L21 23L22 23L22 22ZM23 22L23 24L24 24L24 23L25 23L25 22ZM37 22L37 23L39 23L39 22ZM41 22L41 23L42 23L42 22ZM32 23L32 25L31 25L31 27L33 27L33 28L34 28L34 29L33 29L33 30L29 30L29 29L28 29L28 31L32 31L32 32L34 32L34 31L33 31L33 30L34 30L34 29L35 29L35 30L37 30L37 29L36 29L36 28L35 28L35 27L36 27L36 26L35 26L35 25L37 25L37 26L41 26L41 25L42 25L42 24L39 24L39 25L37 25L37 24L35 24L35 23ZM47 23L47 24L48 24L48 25L49 25L49 24L48 24L48 23ZM29 24L29 25L30 25L30 24ZM58 24L58 25L59 25L59 24ZM22 25L22 27L23 27L23 28L21 28L21 29L20 29L20 28L19 28L19 29L20 29L20 30L19 30L19 31L20 31L20 30L21 30L21 31L23 31L23 29L25 29L25 28L24 28L24 27L23 27L23 26L24 26L24 25ZM33 26L33 27L34 27L34 26ZM39 27L39 28L38 28L38 31L39 31L39 30L40 30L40 31L43 31L43 32L38 32L38 34L37 34L37 36L38 36L38 37L34 37L34 38L38 38L38 39L37 39L37 41L36 41L36 40L33 40L33 41L32 41L32 42L31 42L31 43L32 43L32 42L33 42L33 44L34 44L34 45L35 45L35 47L36 47L36 46L37 46L37 44L38 44L38 46L39 46L39 47L40 47L40 46L39 46L39 45L40 45L40 44L41 44L41 43L40 43L40 41L41 41L41 40L44 40L44 42L43 42L43 44L44 44L44 45L43 45L43 46L42 46L42 45L41 45L41 46L42 46L42 48L43 48L43 47L44 47L44 49L43 49L43 50L44 50L44 49L45 49L45 52L46 52L46 51L47 51L47 50L49 50L49 49L50 49L50 48L49 48L49 49L47 49L47 47L50 47L50 46L47 46L47 43L48 43L48 44L49 44L49 45L50 45L50 44L49 44L49 42L48 42L48 41L47 41L47 40L45 40L45 39L43 39L43 38L41 38L41 40L39 40L39 37L42 37L42 36L41 36L41 35L43 35L43 36L44 36L44 37L45 37L45 38L47 38L47 37L48 37L48 38L51 38L51 37L48 37L48 36L47 36L47 33L45 33L45 32L44 32L44 30L42 30L42 27ZM58 27L58 28L57 28L57 29L59 29L59 27ZM60 27L60 28L62 28L62 27ZM31 28L31 29L32 29L32 28ZM39 28L39 29L40 29L40 28ZM55 28L55 29L56 29L56 28ZM65 28L65 29L66 29L66 28ZM14 29L14 31L16 31L16 30L15 30L15 29ZM48 29L48 30L49 30L49 29ZM63 29L63 30L64 30L64 29ZM0 30L0 32L1 32L1 33L2 33L2 32L1 32L1 30ZM57 30L57 31L58 31L58 30ZM35 31L35 32L37 32L37 31ZM17 32L17 33L18 33L18 32ZM28 32L28 33L29 33L29 32ZM43 32L43 33L40 33L40 35L39 35L39 34L38 34L38 35L39 35L39 36L40 36L40 35L41 35L41 34L43 34L43 33L44 33L44 36L45 36L45 37L47 37L47 36L45 36L45 33L44 33L44 32ZM66 32L66 34L68 34L68 32ZM5 33L5 36L8 36L8 33ZM31 33L31 34L29 34L29 36L31 36L31 35L32 35L32 33ZM33 33L33 36L36 36L36 33ZM61 33L61 36L64 36L64 33ZM3 34L3 35L4 35L4 34ZM6 34L6 35L7 35L7 34ZM9 34L9 37L6 37L6 38L4 38L4 37L3 37L3 39L6 39L6 40L7 40L7 39L8 39L8 38L9 38L9 37L12 37L12 36L10 36L10 34ZM34 34L34 35L35 35L35 34ZM62 34L62 35L63 35L63 34ZM27 35L27 36L28 36L28 35ZM59 35L59 37L60 37L60 35ZM67 35L67 36L68 36L68 35ZM20 36L20 37L21 37L21 36ZM65 36L65 37L64 37L64 38L62 38L62 37L61 37L61 38L62 38L62 39L65 39L65 38L66 38L66 39L67 39L67 38L66 38L66 36ZM6 38L6 39L7 39L7 38ZM10 38L10 39L9 39L9 40L11 40L11 41L12 41L12 40L11 40L11 38ZM27 38L27 39L28 39L28 38ZM13 39L13 40L14 40L14 39ZM52 39L52 40L53 40L53 39ZM2 40L2 41L1 41L1 43L2 43L2 44L1 44L1 45L2 45L2 44L4 44L4 43L3 43L3 42L4 42L4 41L5 41L5 40ZM6 41L6 42L7 42L7 41ZM14 41L14 42L15 42L15 41ZM18 41L18 42L19 42L19 41ZM23 41L23 42L21 42L21 44L22 44L22 43L23 43L23 44L24 44L24 43L23 43L23 42L24 42L24 41ZM34 41L34 42L35 42L35 44L37 44L37 42L38 42L38 41L37 41L37 42L35 42L35 41ZM44 42L44 44L45 44L45 42ZM46 42L46 43L47 43L47 42ZM18 43L18 44L19 44L19 43ZM39 43L39 44L40 44L40 43ZM44 45L44 46L46 46L46 47L45 47L45 49L46 49L46 47L47 47L47 46L46 46L46 45ZM67 45L67 46L68 46L68 45ZM32 46L32 47L33 47L33 46ZM5 47L5 49L3 49L3 50L4 50L4 51L5 51L5 52L7 52L7 53L6 53L6 54L7 54L7 53L8 53L8 52L9 52L9 50L10 50L10 49L9 49L9 48L8 48L8 49L9 49L9 50L8 50L8 52L7 52L7 51L5 51L5 49L6 49L6 50L7 50L7 49L6 49L6 48L7 48L7 47ZM12 47L12 48L11 48L11 49L12 49L12 48L13 48L13 47ZM21 47L21 48L22 48L22 47ZM30 47L30 48L29 48L29 49L31 49L31 50L32 50L32 54L33 54L33 53L34 53L34 52L33 52L33 51L34 51L34 50L33 50L33 48L32 48L32 49L31 49L31 47ZM58 47L58 48L59 48L59 47ZM64 47L64 48L65 48L65 49L63 49L63 50L62 50L62 51L63 51L63 50L65 50L65 51L67 51L67 48L68 48L68 47L67 47L67 48L65 48L65 47ZM14 49L14 50L15 50L15 49ZM27 49L27 50L26 50L26 51L27 51L27 52L28 52L28 53L27 53L27 54L26 54L26 55L27 55L27 57L29 57L29 58L28 58L28 59L27 59L27 60L28 60L28 59L29 59L29 58L31 58L31 52L28 52L28 51L27 51L27 50L28 50L28 49ZM65 49L65 50L66 50L66 49ZM41 50L41 51L42 51L42 50ZM37 52L37 53L38 53L38 52ZM15 53L15 54L16 54L16 53ZM28 53L28 54L27 54L27 55L28 55L28 56L29 56L29 57L30 57L30 56L29 56L29 55L30 55L30 53ZM45 53L45 54L46 54L46 56L47 56L47 55L48 55L48 53ZM56 54L56 55L58 55L58 54ZM16 56L16 57L17 57L17 56ZM61 56L61 58L62 58L62 57L63 57L63 56ZM21 57L21 59L20 59L20 60L21 60L21 59L22 59L22 57ZM48 57L48 58L49 58L49 57ZM0 58L0 61L1 61L1 58ZM12 58L12 59L13 59L13 58ZM45 58L45 60L46 60L46 58ZM50 59L50 60L47 60L47 62L50 62L50 61L52 61L52 60L51 60L51 59ZM3 60L3 61L5 61L5 60ZM6 60L6 61L7 61L7 60ZM23 60L23 61L24 61L24 60ZM25 60L25 61L26 61L26 60ZM19 61L19 62L20 62L20 61ZM33 61L33 64L36 64L36 61ZM61 61L61 64L64 64L64 61ZM30 62L30 63L29 63L29 64L30 64L30 63L31 63L31 62ZM34 62L34 63L35 63L35 62ZM62 62L62 63L63 63L63 62ZM65 62L65 63L66 63L66 62ZM10 63L10 64L9 64L9 65L10 65L10 66L12 66L12 68L13 68L13 66L14 66L14 68L15 68L15 66L17 66L17 65L18 65L18 64L17 64L17 65L12 65L12 64L11 64L11 63ZM13 63L13 64L15 64L15 63ZM23 63L23 64L26 64L26 63ZM45 64L45 66L46 66L46 64ZM34 65L34 66L35 66L35 67L36 67L36 66L35 66L35 65ZM48 65L48 66L49 66L49 65ZM53 65L53 66L54 66L54 67L55 67L55 66L56 66L56 65L55 65L55 66L54 66L54 65ZM62 65L62 66L63 66L63 65ZM21 66L21 67L22 67L22 66ZM48 67L48 68L49 68L49 67ZM58 68L58 69L59 69L59 68ZM0 0L0 7L7 7L7 0ZM1 1L1 6L6 6L6 1ZM2 2L2 5L5 5L5 2ZM62 0L62 7L69 7L69 0ZM63 1L63 6L68 6L68 1ZM64 2L64 5L67 5L67 2ZM0 62L0 69L7 69L7 62ZM1 63L1 68L6 68L6 63ZM2 64L2 67L5 67L5 64Z" fill="#000000"/></g></g></svg>
