<?xml version="1.0" encoding="UTF-8"?>
<svg xmlns="http://www.w3.org/2000/svg" version="1.1" width="300" height="300" viewBox="0 0 300 300"><rect x="0" y="0" width="300" height="300" fill="#ffffff"/><g transform="scale(4.348)"><g transform="translate(0,0)"><path fill-rule="evenodd" d="M8 0L8 4L9 4L9 3L10 3L10 2L11 2L11 3L12 3L12 4L13 4L13 5L11 5L11 4L10 4L10 5L8 5L8 7L9 7L9 6L10 6L10 7L11 7L11 8L9 8L9 9L8 9L8 11L7 11L7 10L5 10L5 9L7 9L7 8L4 8L4 10L5 10L5 11L7 11L7 12L6 12L6 13L5 13L5 12L4 12L4 14L3 14L3 12L2 12L2 11L0 11L0 12L1 12L1 13L0 13L0 14L1 14L1 15L3 15L3 18L2 18L2 17L0 17L0 18L2 18L2 19L1 19L1 20L0 20L0 22L3 22L3 21L1 21L1 20L4 20L4 19L5 19L5 20L6 20L6 21L4 21L4 22L6 22L6 23L2 23L2 24L1 24L1 23L0 23L0 30L1 30L1 29L2 29L2 30L4 30L4 29L5 29L5 30L6 30L6 31L5 31L5 32L3 32L3 31L0 31L0 33L1 33L1 32L2 32L2 33L3 33L3 37L5 37L5 38L4 38L4 39L5 39L5 40L3 40L3 39L2 39L2 34L0 34L0 35L1 35L1 36L0 36L0 40L3 40L3 41L2 41L2 42L1 42L1 41L0 41L0 42L1 42L1 43L0 43L0 46L1 46L1 47L0 47L0 48L1 48L1 47L2 47L2 46L4 46L4 48L3 48L3 50L2 50L2 49L0 49L0 50L2 50L2 55L1 55L1 52L0 52L0 55L1 55L1 56L0 56L0 61L1 61L1 58L2 58L2 59L3 59L3 57L4 57L4 59L7 59L7 60L6 60L6 61L7 61L7 60L8 60L8 62L9 62L9 63L8 63L8 65L9 65L9 64L11 64L11 65L10 65L10 66L9 66L9 67L8 67L8 69L9 69L9 67L10 67L10 69L11 69L11 67L10 67L10 66L11 66L11 65L13 65L13 66L14 66L14 67L13 67L13 68L12 68L12 69L16 69L16 68L17 68L17 69L19 69L19 67L20 67L20 66L21 66L21 67L22 67L22 66L21 66L21 65L22 65L22 64L25 64L25 63L26 63L26 64L27 64L27 65L23 65L23 66L27 66L27 67L28 67L28 68L26 68L26 67L25 67L25 68L26 68L26 69L29 69L29 67L28 67L28 64L29 64L29 65L30 65L30 67L31 67L31 65L32 65L32 69L33 69L33 68L35 68L35 69L38 69L38 68L39 68L39 69L40 69L40 68L41 68L41 67L43 67L43 68L42 68L42 69L43 69L43 68L44 68L44 69L46 69L46 68L44 68L44 67L46 67L46 65L47 65L47 66L48 66L48 65L49 65L49 60L50 60L50 62L51 62L51 61L52 61L52 63L50 63L50 64L51 64L51 65L50 65L50 66L49 66L49 67L50 67L50 68L47 68L47 69L52 69L52 68L53 68L53 69L54 69L54 67L55 67L55 65L52 65L52 63L53 63L53 64L54 64L54 62L56 62L56 63L57 63L57 64L56 64L56 65L57 65L57 67L56 67L56 69L57 69L57 68L58 68L58 67L59 67L59 66L61 66L61 67L60 67L60 69L62 69L62 66L63 66L63 68L65 68L65 69L67 69L67 68L65 68L65 66L66 66L66 67L67 67L67 66L69 66L69 64L68 64L68 62L69 62L69 59L68 59L68 58L69 58L69 57L68 57L68 54L67 54L67 57L68 57L68 58L64 58L64 57L66 57L66 56L64 56L64 55L66 55L66 54L64 54L64 53L63 53L63 52L65 52L65 51L67 51L67 53L69 53L69 52L68 52L68 51L69 51L69 47L68 47L68 45L69 45L69 43L68 43L68 42L69 42L69 41L68 41L68 40L66 40L66 41L68 41L68 42L67 42L67 43L68 43L68 44L65 44L65 45L66 45L66 46L64 46L64 43L59 43L59 42L64 42L64 41L65 41L65 40L64 40L64 39L65 39L65 38L66 38L66 39L68 39L68 38L69 38L69 36L68 36L68 38L67 38L67 36L66 36L66 37L65 37L65 34L67 34L67 35L68 35L68 33L66 33L66 32L63 32L63 31L68 31L68 29L69 29L69 27L68 27L68 24L69 24L69 23L68 23L68 22L69 22L69 20L68 20L68 18L67 18L67 20L65 20L65 17L64 17L64 16L65 16L65 13L68 13L68 14L67 14L67 15L68 15L68 14L69 14L69 11L67 11L67 9L69 9L69 8L65 8L65 10L64 10L64 12L63 12L63 9L64 9L64 8L63 8L63 9L62 9L62 11L60 11L60 10L61 10L61 9L59 9L59 10L58 10L58 9L57 9L57 8L56 8L56 9L54 9L54 8L53 8L53 10L52 10L52 7L53 7L53 6L54 6L54 7L55 7L55 4L56 4L56 3L59 3L59 2L58 2L58 1L61 1L61 0L57 0L57 2L54 2L54 3L53 3L53 2L52 2L52 4L50 4L50 5L49 5L49 4L48 4L48 5L49 5L49 6L48 6L48 7L49 7L49 6L50 6L50 10L49 10L49 8L47 8L47 5L46 5L46 4L47 4L47 3L46 3L46 4L44 4L44 2L46 2L46 0L45 0L45 1L44 1L44 0L40 0L40 1L42 1L42 3L43 3L43 4L41 4L41 2L40 2L40 4L41 4L41 6L40 6L40 5L39 5L39 0L38 0L38 1L37 1L37 0L35 0L35 2L34 2L34 0L32 0L32 2L31 2L31 1L30 1L30 0L29 0L29 1L30 1L30 3L31 3L31 4L30 4L30 5L29 5L29 6L28 6L28 4L29 4L29 2L28 2L28 3L27 3L27 1L26 1L26 0L22 0L22 1L23 1L23 2L22 2L22 4L21 4L21 3L20 3L20 5L19 5L19 4L17 4L17 3L19 3L19 1L20 1L20 2L21 2L21 0L16 0L16 1L18 1L18 2L16 2L16 3L15 3L15 1L14 1L14 0ZM47 0L47 2L48 2L48 3L51 3L51 0L50 0L50 2L49 2L49 1L48 1L48 0ZM52 0L52 1L56 1L56 0ZM9 1L9 2L10 2L10 1ZM13 1L13 2L14 2L14 1ZM24 1L24 2L25 2L25 1ZM32 2L32 4L31 4L31 5L30 5L30 6L29 6L29 7L28 7L28 6L27 6L27 7L26 7L26 6L25 6L25 5L26 5L26 4L27 4L27 3L26 3L26 4L25 4L25 5L24 5L24 6L23 6L23 5L20 5L20 6L19 6L19 5L18 5L18 6L17 6L17 7L18 7L18 6L19 6L19 8L20 8L20 6L21 6L21 9L22 9L22 13L21 13L21 12L20 12L20 11L21 11L21 10L20 10L20 9L18 9L18 8L17 8L17 9L16 9L16 10L17 10L17 9L18 9L18 10L20 10L20 11L19 11L19 13L21 13L21 14L22 14L22 13L23 13L23 12L24 12L24 11L23 11L23 9L24 9L24 10L25 10L25 11L26 11L26 12L27 12L27 13L25 13L25 14L26 14L26 16L27 16L27 17L25 17L25 18L24 18L24 19L25 19L25 21L26 21L26 20L27 20L27 19L29 19L29 20L31 20L31 21L30 21L30 22L32 22L32 20L34 20L34 21L33 21L33 23L32 23L32 25L31 25L31 27L32 27L32 28L31 28L31 29L28 29L28 31L27 31L27 30L25 30L25 31L27 31L27 32L28 32L28 31L31 31L31 29L33 29L33 30L32 30L32 32L31 32L31 33L30 33L30 32L29 32L29 33L27 33L27 34L23 34L23 33L26 33L26 32L24 32L24 31L23 31L23 30L22 30L22 31L23 31L23 32L22 32L22 33L21 33L21 34L20 34L20 35L19 35L19 34L17 34L17 33L18 33L18 32L19 32L19 33L20 33L20 32L21 32L21 30L20 30L20 28L21 28L21 29L26 29L26 27L27 27L27 28L28 28L28 26L30 26L30 25L29 25L29 24L31 24L31 23L28 23L28 22L29 22L29 21L28 21L28 22L26 22L26 23L24 23L24 24L25 24L25 25L26 25L26 27L25 27L25 26L24 26L24 25L21 25L21 23L22 23L22 24L23 24L23 21L24 21L24 20L22 20L22 19L23 19L23 17L24 17L24 16L22 16L22 15L21 15L21 16L22 16L22 17L19 17L19 16L20 16L20 14L19 14L19 16L18 16L18 17L17 17L17 16L16 16L16 15L18 15L18 13L17 13L17 12L18 12L18 11L14 11L14 10L15 10L15 9L13 9L13 8L15 8L15 7L16 7L16 6L15 6L15 7L14 7L14 6L13 6L13 8L12 8L12 9L10 9L10 11L9 11L9 13L6 13L6 14L7 14L7 15L6 15L6 16L5 16L5 15L4 15L4 16L5 16L5 17L4 17L4 18L3 18L3 19L4 19L4 18L5 18L5 19L6 19L6 20L8 20L8 21L6 21L6 22L7 22L7 23L6 23L6 24L7 24L7 23L8 23L8 24L9 24L9 25L10 25L10 26L9 26L9 29L8 29L8 28L7 28L7 27L8 27L8 26L7 26L7 25L6 25L6 26L7 26L7 27L5 27L5 24L2 24L2 25L1 25L1 26L2 26L2 27L1 27L1 28L3 28L3 26L4 26L4 27L5 27L5 28L7 28L7 29L6 29L6 30L10 30L10 31L12 31L12 32L11 32L11 33L14 33L14 34L15 34L15 33L14 33L14 32L16 32L16 35L19 35L19 37L17 37L17 36L16 36L16 39L17 39L17 38L18 38L18 39L19 39L19 38L20 38L20 39L21 39L21 40L20 40L20 41L18 41L18 40L16 40L16 41L15 41L15 38L11 38L11 37L14 37L14 36L15 36L15 35L14 35L14 36L12 36L12 35L11 35L11 34L10 34L10 32L9 32L9 34L10 34L10 39L9 39L9 38L8 38L8 37L6 37L6 38L8 38L8 39L6 39L6 40L5 40L5 41L6 41L6 42L8 42L8 43L6 43L6 44L9 44L9 45L5 45L5 46L8 46L8 48L7 48L7 47L5 47L5 48L4 48L4 53L5 53L5 54L4 54L4 55L3 55L3 56L2 56L2 57L3 57L3 56L4 56L4 57L6 57L6 58L8 58L8 59L9 59L9 56L8 56L8 55L10 55L10 54L11 54L11 55L12 55L12 57L17 57L17 56L16 56L16 55L17 55L17 54L18 54L18 56L19 56L19 57L21 57L21 58L19 58L19 59L21 59L21 60L20 60L20 61L18 61L18 59L17 59L17 58L16 58L16 59L14 59L14 58L13 58L13 59L11 59L11 61L12 61L12 62L13 62L13 63L12 63L12 64L13 64L13 65L14 65L14 66L15 66L15 65L14 65L14 64L16 64L16 66L17 66L17 68L18 68L18 67L19 67L19 66L17 66L17 65L18 65L18 64L19 64L19 65L20 65L20 61L21 61L21 62L22 62L22 63L21 63L21 64L22 64L22 63L23 63L23 62L22 62L22 61L25 61L25 62L26 62L26 58L27 58L27 57L26 57L26 55L28 55L28 54L31 54L31 55L29 55L29 56L28 56L28 60L27 60L27 61L28 61L28 63L29 63L29 62L31 62L31 63L30 63L30 64L31 64L31 63L32 63L32 61L29 61L29 58L31 58L31 59L30 59L30 60L31 60L31 59L32 59L32 60L33 60L33 58L34 58L34 57L35 57L35 58L36 58L36 59L35 59L35 60L37 60L37 64L38 64L38 65L37 65L37 66L36 66L36 67L37 67L37 68L38 68L38 67L39 67L39 66L40 66L40 65L41 65L41 63L40 63L40 62L41 62L41 60L42 60L42 61L44 61L44 62L42 62L42 63L43 63L43 67L44 67L44 63L46 63L46 64L45 64L45 65L46 65L46 64L47 64L47 63L48 63L48 62L47 62L47 59L46 59L46 60L45 60L45 61L44 61L44 58L40 58L40 57L42 57L42 56L43 56L43 57L44 57L44 56L45 56L45 54L44 54L44 56L43 56L43 55L42 55L42 53L44 53L44 52L45 52L45 51L46 51L46 54L47 54L47 55L48 55L48 56L49 56L49 55L50 55L50 57L48 57L48 59L51 59L51 60L52 60L52 61L53 61L53 60L54 60L54 61L56 61L56 60L57 60L57 61L58 61L58 63L59 63L59 62L60 62L60 59L61 59L61 58L60 58L60 56L59 56L59 55L61 55L61 54L62 54L62 55L64 55L64 54L62 54L62 53L60 53L60 52L59 52L59 53L58 53L58 54L57 54L57 55L56 55L56 54L55 54L55 55L54 55L54 53L53 53L53 51L52 51L52 53L51 53L51 50L50 50L50 49L49 49L49 51L50 51L50 53L49 53L49 54L48 54L48 53L47 53L47 50L48 50L48 49L47 49L47 48L46 48L46 47L48 47L48 46L47 46L47 44L46 44L46 43L48 43L48 44L50 44L50 45L49 45L49 48L50 48L50 45L51 45L51 46L52 46L52 47L51 47L51 48L52 48L52 49L53 49L53 48L54 48L54 49L55 49L55 51L54 51L54 52L55 52L55 53L56 53L56 51L58 51L58 50L59 50L59 51L60 51L60 49L61 49L61 51L64 51L64 50L65 50L65 49L66 49L66 50L67 50L67 51L68 51L68 48L67 48L67 46L66 46L66 47L65 47L65 49L63 49L63 48L62 48L62 47L63 47L63 46L62 46L62 47L61 47L61 46L60 46L60 47L58 47L58 48L57 48L57 49L56 49L56 48L55 48L55 46L56 46L56 44L57 44L57 45L58 45L58 46L59 46L59 45L60 45L60 44L59 44L59 43L58 43L58 44L57 44L57 41L56 41L56 40L57 40L57 39L55 39L55 38L56 38L56 36L57 36L57 34L56 34L56 36L55 36L55 34L53 34L53 33L56 33L56 32L55 32L55 30L53 30L53 28L52 28L52 30L50 30L50 29L49 29L49 30L47 30L47 29L48 29L48 27L49 27L49 26L50 26L50 28L51 28L51 26L52 26L52 27L54 27L54 25L53 25L53 24L54 24L54 21L53 21L53 18L52 18L52 19L49 19L49 18L47 18L47 17L46 17L46 14L47 14L47 11L46 11L46 10L47 10L47 8L45 8L45 9L44 9L44 8L43 8L43 7L44 7L44 6L45 6L45 7L46 7L46 5L44 5L44 4L43 4L43 7L42 7L42 6L41 6L41 7L40 7L40 6L39 6L39 7L38 7L38 6L37 6L37 10L36 10L36 9L35 9L35 11L36 11L36 13L32 13L32 12L34 12L34 9L32 9L32 10L31 10L31 9L29 9L29 8L30 8L30 6L31 6L31 8L32 8L32 6L31 6L31 5L32 5L32 4L33 4L33 3L34 3L34 4L35 4L35 3L34 3L34 2ZM37 2L37 3L36 3L36 4L37 4L37 5L38 5L38 2ZM23 3L23 4L24 4L24 3ZM54 3L54 4L55 4L55 3ZM60 3L60 5L61 5L61 3ZM14 4L14 5L16 5L16 4ZM52 4L52 6L51 6L51 7L52 7L52 6L53 6L53 4ZM57 4L57 5L56 5L56 7L57 7L57 6L58 6L58 8L61 8L61 6L60 6L60 7L59 7L59 4ZM33 5L33 8L36 8L36 5ZM11 6L11 7L12 7L12 6ZM22 6L22 8L24 8L24 9L25 9L25 8L26 8L26 11L28 11L28 7L27 7L27 8L26 8L26 7L25 7L25 6L24 6L24 7L23 7L23 6ZM34 6L34 7L35 7L35 6ZM41 7L41 9L42 9L42 11L44 11L44 13L43 13L43 12L42 12L42 13L41 13L41 15L40 15L40 16L39 16L39 17L38 17L38 15L37 15L37 17L38 17L38 18L37 18L37 21L38 21L38 23L39 23L39 24L38 24L38 26L37 26L37 25L36 25L36 24L37 24L37 23L36 23L36 24L35 24L35 23L34 23L34 26L33 26L33 25L32 25L32 27L34 27L34 28L33 28L33 29L34 29L34 30L33 30L33 32L32 32L32 37L31 37L31 35L30 35L30 33L29 33L29 34L28 34L28 36L26 36L26 35L25 35L25 36L26 36L26 37L27 37L27 38L25 38L25 37L24 37L24 35L23 35L23 37L24 37L24 39L23 39L23 38L21 38L21 37L22 37L22 35L21 35L21 36L20 36L20 38L21 38L21 39L22 39L22 40L24 40L24 41L23 41L23 42L22 42L22 41L20 41L20 43L21 43L21 45L20 45L20 46L21 46L21 47L20 47L20 48L19 48L19 46L18 46L18 47L17 47L17 49L18 49L18 50L16 50L16 44L17 44L17 45L19 45L19 42L18 42L18 41L17 41L17 42L16 42L16 43L14 43L14 44L13 44L13 45L14 45L14 47L13 47L13 46L12 46L12 45L11 45L11 44L10 44L10 45L11 45L11 47L10 47L10 48L9 48L9 49L7 49L7 48L5 48L5 49L7 49L7 50L5 50L5 51L7 51L7 52L6 52L6 53L7 53L7 54L6 54L6 55L5 55L5 56L6 56L6 57L7 57L7 56L6 56L6 55L7 55L7 54L8 54L8 53L7 53L7 52L8 52L8 51L7 51L7 50L9 50L9 49L10 49L10 51L9 51L9 52L12 52L12 53L11 53L11 54L12 54L12 55L13 55L13 54L15 54L15 55L14 55L14 56L15 56L15 55L16 55L16 53L18 53L18 54L19 54L19 56L20 56L20 54L21 54L21 53L22 53L22 54L25 54L25 53L24 53L24 52L23 52L23 51L24 51L24 50L26 50L26 51L25 51L25 52L26 52L26 54L28 54L28 53L33 53L33 54L32 54L32 55L33 55L33 56L32 56L32 57L31 57L31 56L29 56L29 57L31 57L31 58L32 58L32 57L34 57L34 56L35 56L35 57L36 57L36 55L39 55L39 56L38 56L38 57L37 57L37 60L38 60L38 59L39 59L39 61L38 61L38 62L39 62L39 61L40 61L40 58L39 58L39 57L40 57L40 55L39 55L39 54L40 54L40 53L39 53L39 51L40 51L40 50L41 50L41 51L42 51L42 52L41 52L41 53L42 53L42 52L44 52L44 51L45 51L45 50L46 50L46 48L44 48L44 47L42 47L42 46L43 46L43 44L44 44L44 45L45 45L45 47L46 47L46 45L45 45L45 43L44 43L44 41L45 41L45 42L46 42L46 39L45 39L45 38L46 38L46 36L47 36L47 35L48 35L48 38L49 38L49 39L47 39L47 42L48 42L48 41L49 41L49 39L50 39L50 38L51 38L51 40L50 40L50 42L49 42L49 43L50 43L50 44L51 44L51 45L52 45L52 43L53 43L53 46L55 46L55 45L54 45L54 43L53 43L53 42L55 42L55 43L56 43L56 42L55 42L55 41L52 41L52 38L55 38L55 37L52 37L52 35L53 35L53 36L54 36L54 35L53 35L53 34L52 34L52 35L51 35L51 33L52 33L52 31L53 31L53 30L52 30L52 31L51 31L51 33L50 33L50 32L49 32L49 31L50 31L50 30L49 30L49 31L47 31L47 30L46 30L46 29L47 29L47 27L48 27L48 25L50 25L50 26L51 26L51 25L52 25L52 26L53 26L53 25L52 25L52 22L53 22L53 21L50 21L50 20L49 20L49 19L48 19L48 21L50 21L50 23L48 23L48 22L46 22L46 21L47 21L47 20L46 20L46 19L45 19L45 15L44 15L44 14L46 14L46 13L45 13L45 12L46 12L46 11L44 11L44 10L43 10L43 9L42 9L42 7ZM0 8L0 10L1 10L1 9L2 9L2 10L3 10L3 9L2 9L2 8ZM12 9L12 11L11 11L11 14L12 14L12 15L10 15L10 16L11 16L11 17L10 17L10 18L9 18L9 17L8 17L8 18L6 18L6 17L7 17L7 16L6 16L6 17L5 17L5 18L6 18L6 19L8 19L8 20L9 20L9 19L10 19L10 22L9 22L9 21L8 21L8 23L10 23L10 22L11 22L11 23L12 23L12 24L14 24L14 25L15 25L15 27L16 27L16 26L17 26L17 25L18 25L18 27L19 27L19 28L17 28L17 29L19 29L19 28L20 28L20 27L21 27L21 25L20 25L20 26L19 26L19 24L20 24L20 23L21 23L21 21L22 21L22 20L21 20L21 19L22 19L22 18L20 18L20 19L17 19L17 20L15 20L15 21L14 21L14 22L15 22L15 23L12 23L12 21L13 21L13 20L12 20L12 19L13 19L13 18L12 18L12 17L15 17L15 18L14 18L14 19L15 19L15 18L16 18L16 17L15 17L15 16L14 16L14 15L15 15L15 14L17 14L17 13L14 13L14 15L13 15L13 12L14 12L14 11L13 11L13 9ZM38 9L38 10L40 10L40 9ZM45 9L45 10L46 10L46 9ZM51 10L51 11L52 11L52 14L50 14L50 13L51 13L51 12L50 12L50 11L48 11L48 12L50 12L50 13L49 13L49 14L48 14L48 15L47 15L47 16L49 16L49 17L50 17L50 16L51 16L51 17L54 17L54 15L52 15L52 14L53 14L53 13L54 13L54 12L55 12L55 13L56 13L56 15L55 15L55 18L54 18L54 19L55 19L55 22L56 22L56 23L57 23L57 24L58 24L58 25L56 25L56 24L55 24L55 26L56 26L56 28L54 28L54 29L56 29L56 28L58 28L58 30L56 30L56 31L57 31L57 33L58 33L58 35L59 35L59 32L58 32L58 31L59 31L59 29L61 29L61 31L63 31L63 30L64 30L64 29L65 29L65 30L67 30L67 29L68 29L68 28L67 28L67 27L65 27L65 28L64 28L64 27L63 27L63 26L64 26L64 25L65 25L65 24L68 24L68 23L67 23L67 22L65 22L65 20L64 20L64 21L63 21L63 22L64 22L64 23L65 23L65 24L64 24L64 25L63 25L63 26L62 26L62 25L61 25L61 23L62 23L62 20L63 20L63 19L64 19L64 17L63 17L63 19L62 19L62 15L64 15L64 13L65 13L65 12L67 12L67 11L66 11L66 10L65 10L65 12L64 12L64 13L63 13L63 12L62 12L62 13L61 13L61 12L60 12L60 11L59 11L59 12L58 12L58 11L57 11L57 12L58 12L58 14L59 14L59 15L58 15L58 16L57 16L57 13L56 13L56 10L54 10L54 12L53 12L53 11L52 11L52 10ZM12 11L12 12L13 12L13 11ZM29 11L29 12L28 12L28 13L27 13L27 15L28 15L28 16L29 16L29 19L34 19L34 20L35 20L35 21L36 21L36 17L34 17L34 18L33 18L33 16L32 16L32 13L31 13L31 12L32 12L32 11L31 11L31 12L30 12L30 11ZM37 12L37 13L36 13L36 14L37 14L37 13L38 13L38 14L40 14L40 12L39 12L39 13L38 13L38 12ZM59 12L59 13L60 13L60 15L62 15L62 14L63 14L63 13L62 13L62 14L61 14L61 13L60 13L60 12ZM1 13L1 14L2 14L2 13ZM28 13L28 14L29 14L29 16L31 16L31 13ZM8 14L8 16L9 16L9 14ZM42 14L42 15L43 15L43 17L44 17L44 15L43 15L43 14ZM49 14L49 15L50 15L50 14ZM34 15L34 16L36 16L36 15ZM40 16L40 18L38 18L38 19L39 19L39 20L38 20L38 21L39 21L39 22L40 22L40 23L42 23L42 24L43 24L43 25L44 25L44 26L41 26L41 24L40 24L40 27L41 27L41 28L40 28L40 29L39 29L39 30L40 30L40 33L39 33L39 31L37 31L37 30L36 30L36 29L38 29L38 28L39 28L39 27L38 27L38 28L37 28L37 26L36 26L36 25L35 25L35 28L34 28L34 29L35 29L35 30L34 30L34 31L35 31L35 32L38 32L38 33L37 33L37 35L38 35L38 33L39 33L39 36L40 36L40 37L39 37L39 38L38 38L38 36L37 36L37 39L35 39L35 38L34 38L34 41L33 41L33 39L32 39L32 38L33 38L33 37L32 37L32 38L31 38L31 39L28 39L28 42L27 42L27 43L26 43L26 40L27 40L27 39L26 39L26 40L25 40L25 39L24 39L24 40L25 40L25 41L24 41L24 42L25 42L25 43L26 43L26 44L25 44L25 45L26 45L26 47L25 47L25 46L22 46L22 45L24 45L24 43L23 43L23 44L22 44L22 45L21 45L21 46L22 46L22 49L23 49L23 50L24 50L24 49L25 49L25 48L27 48L27 51L26 51L26 52L27 52L27 53L28 53L28 52L27 52L27 51L28 51L28 50L29 50L29 49L28 49L28 46L30 46L30 48L31 48L31 47L32 47L32 46L33 46L33 45L32 45L32 44L34 44L34 45L35 45L35 46L36 46L36 45L37 45L37 46L38 46L38 45L37 45L37 44L40 44L40 45L42 45L42 44L41 44L41 43L43 43L43 42L39 42L39 43L38 43L38 41L39 41L39 40L38 40L38 39L39 39L39 38L40 38L40 37L44 37L44 38L43 38L43 39L40 39L40 41L42 41L42 40L43 40L43 41L44 41L44 40L45 40L45 39L44 39L44 38L45 38L45 37L44 37L44 34L45 34L45 35L46 35L46 34L47 34L47 32L45 32L45 33L44 33L44 30L45 30L45 31L46 31L46 30L45 30L45 29L46 29L46 28L45 28L45 29L44 29L44 26L45 26L45 25L44 25L44 24L45 24L45 23L46 23L46 22L45 22L45 21L46 21L46 20L45 20L45 19L44 19L44 18L41 18L41 17L42 17L42 16ZM56 16L56 19L57 19L57 20L56 20L56 22L57 22L57 20L58 20L58 17L59 17L59 18L61 18L61 17L59 17L59 16L58 16L58 17L57 17L57 16ZM66 16L66 17L67 17L67 16ZM18 17L18 18L19 18L19 17ZM27 17L27 18L26 18L26 19L27 19L27 18L28 18L28 17ZM10 18L10 19L12 19L12 18ZM40 19L40 20L39 20L39 21L40 21L40 20L43 20L43 19ZM61 19L61 20L62 20L62 19ZM11 20L11 21L12 21L12 20ZM17 20L17 21L18 21L18 23L17 23L17 22L16 22L16 24L15 24L15 25L17 25L17 24L18 24L18 23L19 23L19 22L20 22L20 21L18 21L18 20ZM44 20L44 21L45 21L45 20ZM67 20L67 21L68 21L68 20ZM42 21L42 23L43 23L43 24L44 24L44 23L45 23L45 22L44 22L44 23L43 23L43 21ZM59 21L59 22L61 22L61 21ZM27 23L27 24L26 24L26 25L27 25L27 26L28 26L28 25L27 25L27 24L28 24L28 23ZM47 23L47 25L46 25L46 26L47 26L47 25L48 25L48 23ZM50 23L50 24L51 24L51 23ZM58 23L58 24L59 24L59 23ZM2 25L2 26L3 26L3 25ZM59 25L59 27L60 27L60 26L61 26L61 29L62 29L62 30L63 30L63 29L64 29L64 28L62 28L62 26L61 26L61 25ZM10 26L10 27L11 27L11 29L10 29L10 30L11 30L11 29L13 29L13 32L14 32L14 31L15 31L15 30L16 30L16 28L14 28L14 27L12 27L12 26ZM22 26L22 27L23 27L23 28L24 28L24 27L23 27L23 26ZM29 27L29 28L30 28L30 27ZM41 28L41 30L42 30L42 31L43 31L43 30L44 30L44 29L43 29L43 28ZM14 29L14 30L15 30L15 29ZM17 30L17 31L16 31L16 32L17 32L17 31L18 31L18 30ZM19 30L19 31L20 31L20 30ZM6 31L6 32L7 32L7 31ZM5 33L5 36L8 36L8 33ZM33 33L33 36L36 36L36 33ZM41 33L41 34L40 34L40 35L41 35L41 36L42 36L42 35L43 35L43 34L44 34L44 33ZM45 33L45 34L46 34L46 33ZM49 33L49 34L48 34L48 35L49 35L49 34L50 34L50 33ZM61 33L61 36L64 36L64 33ZM6 34L6 35L7 35L7 34ZM34 34L34 35L35 35L35 34ZM62 34L62 35L63 35L63 34ZM29 35L29 36L28 36L28 38L30 38L30 37L29 37L29 36L30 36L30 35ZM50 35L50 36L51 36L51 35ZM49 37L49 38L50 38L50 37ZM51 37L51 38L52 38L52 37ZM58 37L58 39L59 39L59 38L60 38L60 37ZM63 37L63 38L62 38L62 40L58 40L58 42L59 42L59 41L62 41L62 40L63 40L63 39L64 39L64 38L65 38L65 37ZM8 39L8 40L6 40L6 41L8 41L8 42L9 42L9 43L11 43L11 42L12 42L12 43L13 43L13 42L12 42L12 41L14 41L14 40L13 40L13 39L11 39L11 40L10 40L10 42L9 42L9 41L8 41L8 40L9 40L9 39ZM31 39L31 40L29 40L29 41L31 41L31 42L32 42L32 39ZM43 39L43 40L44 40L44 39ZM53 39L53 40L54 40L54 39ZM35 40L35 41L36 41L36 42L35 42L35 43L34 43L34 44L35 44L35 43L36 43L36 42L37 42L37 41L38 41L38 40L37 40L37 41L36 41L36 40ZM3 41L3 42L4 42L4 41ZM51 41L51 42L50 42L50 43L51 43L51 42L52 42L52 41ZM28 42L28 43L27 43L27 44L26 44L26 45L27 45L27 46L28 46L28 45L27 45L27 44L29 44L29 45L31 45L31 44L30 44L30 43L29 43L29 42ZM3 43L3 44L2 44L2 45L4 45L4 43ZM14 44L14 45L15 45L15 44ZM58 44L58 45L59 45L59 44ZM61 44L61 45L62 45L62 44ZM11 47L11 48L10 48L10 49L13 49L13 47ZM24 47L24 48L23 48L23 49L24 49L24 48L25 48L25 47ZM34 47L34 48L32 48L32 49L30 49L30 50L31 50L31 51L29 51L29 52L32 52L32 51L33 51L33 50L32 50L32 49L35 49L35 50L36 50L36 49L37 49L37 51L35 51L35 52L34 52L34 55L36 55L36 53L37 53L37 54L38 54L38 52L37 52L37 51L39 51L39 50L40 50L40 49L42 49L42 47L40 47L40 49L39 49L39 48L38 48L38 47ZM52 47L52 48L53 48L53 47ZM60 47L60 48L61 48L61 47ZM14 48L14 49L15 49L15 48ZM18 48L18 49L19 49L19 50L18 50L18 51L20 51L20 50L21 50L21 51L22 51L22 50L21 50L21 49L19 49L19 48ZM35 48L35 49L36 49L36 48ZM37 48L37 49L38 49L38 50L39 50L39 49L38 49L38 48ZM43 48L43 49L44 49L44 50L45 50L45 49L44 49L44 48ZM58 48L58 49L57 49L57 50L58 50L58 49L59 49L59 48ZM62 49L62 50L63 50L63 49ZM12 50L12 51L13 51L13 53L12 53L12 54L13 54L13 53L14 53L14 51L13 51L13 50ZM42 50L42 51L43 51L43 50ZM15 51L15 52L16 52L16 51ZM22 52L22 53L23 53L23 52ZM35 52L35 53L36 53L36 52ZM9 53L9 54L10 54L10 53ZM19 53L19 54L20 54L20 53ZM50 53L50 55L51 55L51 53ZM52 53L52 54L53 54L53 53ZM59 53L59 54L58 54L58 55L57 55L57 56L56 56L56 55L55 55L55 56L54 56L54 55L52 55L52 56L51 56L51 57L50 57L50 58L51 58L51 57L52 57L52 56L53 56L53 57L54 57L54 59L56 59L56 57L57 57L57 59L58 59L58 57L59 57L59 56L58 56L58 55L59 55L59 54L60 54L60 53ZM21 55L21 57L24 57L24 58L25 58L25 55L24 55L24 56L22 56L22 55ZM10 56L10 58L11 58L11 56ZM55 56L55 57L56 57L56 56ZM57 56L57 57L58 57L58 56ZM63 56L63 57L64 57L64 56ZM46 57L46 58L47 58L47 57ZM21 58L21 59L23 59L23 60L24 60L24 59L23 59L23 58ZM62 58L62 59L63 59L63 60L64 60L64 59L63 59L63 58ZM13 59L13 61L14 61L14 62L15 62L15 63L16 63L16 64L17 64L17 63L18 63L18 61L17 61L17 62L16 62L16 60L14 60L14 59ZM42 59L42 60L43 60L43 59ZM52 59L52 60L53 60L53 59ZM65 59L65 60L67 60L67 62L66 62L66 63L65 63L65 65L66 65L66 66L67 66L67 62L68 62L68 60L67 60L67 59ZM3 60L3 61L5 61L5 60ZM9 60L9 61L10 61L10 60ZM21 60L21 61L22 61L22 60ZM58 60L58 61L59 61L59 60ZM33 61L33 64L36 64L36 61ZM45 61L45 62L46 62L46 63L47 63L47 62L46 62L46 61ZM61 61L61 64L64 64L64 61ZM34 62L34 63L35 63L35 62ZM62 62L62 63L63 63L63 62ZM38 63L38 64L39 64L39 65L38 65L38 66L37 66L37 67L38 67L38 66L39 66L39 65L40 65L40 63ZM57 64L57 65L58 65L58 66L59 66L59 65L58 65L58 64ZM34 65L34 67L35 67L35 65ZM61 65L61 66L62 66L62 65ZM50 66L50 67L51 67L51 66ZM15 67L15 68L16 68L16 67ZM30 68L30 69L31 69L31 68ZM68 68L68 69L69 69L69 68ZM0 0L0 7L7 7L7 0ZM1 1L1 6L6 6L6 1ZM2 2L2 5L5 5L5 2ZM62 0L62 7L69 7L69 0ZM63 1L63 6L68 6L68 1ZM64 2L64 5L67 5L67 2ZM0 62L0 69L7 69L7 62ZM1 63L1 68L6 68L6 63ZM2 64L2 67L5 67L5 64Z" fill="#000000"/></g></g></svg>
