<?xml version="1.0" encoding="UTF-8"?>
<svg xmlns="http://www.w3.org/2000/svg" version="1.1" width="300" height="300" viewBox="0 0 300 300"><rect x="0" y="0" width="300" height="300" fill="#ffffff"/><g transform="scale(4.348)"><g transform="translate(0,0)"><path fill-rule="evenodd" d="M8 0L8 1L9 1L9 2L8 2L8 5L10 5L10 13L9 13L9 11L7 11L7 10L9 10L9 8L8 8L8 9L7 9L7 8L6 8L6 9L4 9L4 8L0 8L0 9L3 9L3 10L0 10L0 11L2 11L2 12L3 12L3 13L1 13L1 14L0 14L0 16L2 16L2 14L3 14L3 13L4 13L4 14L5 14L5 15L4 15L4 17L3 17L3 18L2 18L2 17L0 17L0 18L2 18L2 20L3 20L3 21L4 21L4 19L5 19L5 24L4 24L4 25L3 25L3 26L4 26L4 27L5 27L5 28L3 28L3 29L4 29L4 30L0 30L0 32L1 32L1 33L3 33L3 35L2 35L2 34L1 34L1 35L0 35L0 40L1 40L1 41L3 41L3 42L2 42L2 44L3 44L3 46L2 46L2 47L1 47L1 48L0 48L0 49L2 49L2 51L1 51L1 52L0 52L0 54L1 54L1 53L2 53L2 54L3 54L3 56L5 56L5 55L4 55L4 53L5 53L5 52L4 52L4 48L5 48L5 46L4 46L4 45L7 45L7 46L6 46L6 47L7 47L7 46L8 46L8 50L9 50L9 48L10 48L10 50L11 50L11 51L10 51L10 52L9 52L9 53L8 53L8 54L9 54L9 55L11 55L11 53L10 53L10 52L11 52L11 51L12 51L12 50L13 50L13 51L14 51L14 49L13 49L13 48L14 48L14 45L16 45L16 44L14 44L14 43L15 43L15 42L13 42L13 41L14 41L14 40L13 40L13 39L15 39L15 38L16 38L16 36L13 36L13 35L15 35L15 32L14 32L14 34L13 34L13 35L12 35L12 34L11 34L11 33L12 33L12 32L13 32L13 31L12 31L12 32L11 32L11 33L9 33L9 32L10 32L10 31L11 31L11 29L12 29L12 27L10 27L10 28L11 28L11 29L8 29L8 30L9 30L9 32L5 32L5 31L7 31L7 30L6 30L6 29L7 29L7 28L8 28L8 27L9 27L9 26L10 26L10 25L11 25L11 26L14 26L14 28L15 28L15 30L14 30L14 31L16 31L16 33L17 33L17 34L16 34L16 35L17 35L17 39L18 39L18 40L19 40L19 39L18 39L18 37L19 37L19 38L21 38L21 37L20 37L20 35L21 35L21 34L22 34L22 35L24 35L24 37L25 37L25 38L26 38L26 36L27 36L27 39L23 39L23 38L22 38L22 39L23 39L23 41L21 41L21 39L20 39L20 41L21 41L21 42L20 42L20 43L19 43L19 42L17 42L17 41L16 41L16 40L15 40L15 41L16 41L16 42L17 42L17 45L18 45L18 48L17 48L17 51L15 51L15 53L16 53L16 54L15 54L15 55L13 55L13 54L12 54L12 56L9 56L9 57L11 57L11 58L12 58L12 59L9 59L9 58L8 58L8 59L9 59L9 60L6 60L6 61L8 61L8 62L9 62L9 65L8 65L8 69L11 69L11 68L12 68L12 69L15 69L15 68L16 68L16 67L15 67L15 66L17 66L17 69L18 69L18 67L20 67L20 68L19 68L19 69L23 69L23 67L22 67L22 68L21 68L21 67L20 67L20 65L22 65L22 66L24 66L24 65L22 65L22 64L20 64L20 62L21 62L21 63L23 63L23 62L22 62L22 61L19 61L19 60L18 60L18 59L20 59L20 60L21 60L21 59L20 59L20 57L18 57L18 56L19 56L19 54L18 54L18 53L17 53L17 51L19 51L19 53L21 53L21 54L20 54L20 55L21 55L21 54L22 54L22 56L21 56L21 58L22 58L22 56L23 56L23 57L24 57L24 58L25 58L25 61L26 61L26 64L25 64L25 62L24 62L24 64L25 64L25 66L26 66L26 64L29 64L29 63L30 63L30 64L31 64L31 65L29 65L29 66L28 66L28 65L27 65L27 67L24 67L24 69L25 69L25 68L29 68L29 69L30 69L30 68L33 68L33 66L35 66L35 67L38 67L38 68L39 68L39 69L42 69L42 67L41 67L41 66L42 66L42 65L40 65L40 64L41 64L41 62L39 62L39 61L40 61L40 60L41 60L41 61L42 61L42 60L41 60L41 59L42 59L42 58L43 58L43 56L41 56L41 55L40 55L40 56L39 56L39 55L37 55L37 52L39 52L39 53L38 53L38 54L42 54L42 53L43 53L43 54L44 54L44 55L46 55L46 54L47 54L47 59L45 59L45 58L44 58L44 59L45 59L45 60L47 60L47 61L49 61L49 62L48 62L48 64L49 64L49 63L50 63L50 65L52 65L52 66L53 66L53 68L52 68L52 67L51 67L51 66L50 66L50 67L51 67L51 68L49 68L49 69L54 69L54 66L53 66L53 65L55 65L55 64L56 64L56 65L57 65L57 66L56 66L56 67L55 67L55 69L56 69L56 67L58 67L58 66L59 66L59 68L58 68L58 69L61 69L61 68L63 68L63 69L64 69L64 68L63 68L63 67L64 67L64 65L65 65L65 66L66 66L66 65L67 65L67 66L68 66L68 64L69 64L69 63L68 63L68 64L67 64L67 63L65 63L65 60L66 60L66 59L65 59L65 58L64 58L64 59L65 59L65 60L63 60L63 55L62 55L62 53L63 53L63 54L66 54L66 53L67 53L67 55L68 55L68 54L69 54L69 52L68 52L68 51L66 51L66 53L63 53L63 51L62 51L62 53L60 53L60 50L58 50L58 47L60 47L60 49L63 49L63 50L64 50L64 48L66 48L66 46L67 46L67 50L68 50L68 48L69 48L69 45L68 45L68 44L69 44L69 43L67 43L67 45L66 45L66 44L65 44L65 43L66 43L66 42L65 42L65 40L69 40L69 39L67 39L67 38L69 38L69 37L68 37L68 36L69 36L69 33L68 33L68 34L67 34L67 38L66 38L66 35L65 35L65 33L67 33L67 32L65 32L65 29L64 29L64 28L65 28L65 27L66 27L66 30L67 30L67 31L68 31L68 32L69 32L69 31L68 31L68 29L69 29L69 27L68 27L68 25L69 25L69 22L67 22L67 20L69 20L69 19L68 19L68 18L69 18L69 15L66 15L66 14L69 14L69 13L67 13L67 12L68 12L68 11L69 11L69 8L68 8L68 9L67 9L67 8L64 8L64 10L63 10L63 11L62 11L62 8L61 8L61 6L60 6L60 8L59 8L59 4L57 4L57 5L55 5L55 6L54 6L54 7L53 7L53 6L52 6L52 7L51 7L51 6L50 6L50 5L51 5L51 3L53 3L53 4L54 4L54 2L53 2L53 1L56 1L56 0L53 0L53 1L52 1L52 2L51 2L51 1L50 1L50 0L47 0L47 1L46 1L46 0L44 0L44 2L42 2L42 1L43 1L43 0L41 0L41 1L40 1L40 2L39 2L39 3L41 3L41 4L43 4L43 6L42 6L42 5L40 5L40 4L38 4L38 0L36 0L36 1L37 1L37 3L36 3L36 2L33 2L33 1L32 1L32 3L29 3L29 6L28 6L28 8L27 8L27 5L28 5L28 4L26 4L26 3L25 3L25 5L23 5L23 4L24 4L24 2L21 2L21 1L19 1L19 0L16 0L16 2L15 2L15 1L14 1L14 0L13 0L13 2L14 2L14 3L12 3L12 2L11 2L11 0L10 0L10 1L9 1L9 0ZM23 0L23 1L25 1L25 0ZM28 0L28 2L27 2L27 1L26 1L26 2L27 2L27 3L28 3L28 2L29 2L29 1L30 1L30 0ZM58 0L58 1L61 1L61 0ZM17 1L17 2L16 2L16 3L15 3L15 4L17 4L17 2L18 2L18 3L19 3L19 1ZM47 1L47 3L46 3L46 5L45 5L45 8L44 8L44 6L43 6L43 9L45 9L45 10L46 10L46 11L47 11L47 12L48 12L48 11L47 11L47 9L46 9L46 8L48 8L48 9L49 9L49 10L50 10L50 11L51 11L51 13L52 13L52 14L50 14L50 15L49 15L49 16L47 16L47 15L48 15L48 14L49 14L49 13L50 13L50 12L49 12L49 13L46 13L46 12L44 12L44 13L43 13L43 12L41 12L41 13L42 13L42 14L43 14L43 15L41 15L41 14L40 14L40 11L38 11L38 12L36 12L36 9L35 9L35 12L36 12L36 13L38 13L38 12L39 12L39 14L36 14L36 15L34 15L34 17L33 17L33 14L35 14L35 13L34 13L34 11L32 11L32 13L31 13L31 14L30 14L30 12L31 12L31 11L30 11L30 12L27 12L27 11L29 11L29 10L30 10L30 9L27 9L27 8L23 8L23 7L24 7L24 6L23 6L23 7L22 7L22 5L21 5L21 7L20 7L20 5L18 5L18 6L17 6L17 5L15 5L15 7L14 7L14 4L12 4L12 3L11 3L11 2L10 2L10 3L9 3L9 4L10 4L10 5L12 5L12 6L11 6L11 7L12 7L12 6L13 6L13 9L12 9L12 8L11 8L11 9L12 9L12 10L11 10L11 15L9 15L9 13L8 13L8 12L7 12L7 11L6 11L6 10L7 10L7 9L6 9L6 10L3 10L3 12L4 12L4 11L5 11L5 12L7 12L7 13L5 13L5 14L7 14L7 15L5 15L5 17L4 17L4 18L9 18L9 19L6 19L6 20L11 20L11 17L12 17L12 19L15 19L15 18L17 18L17 19L18 19L18 21L17 21L17 20L13 20L13 22L12 22L12 21L9 21L9 22L10 22L10 23L11 23L11 22L12 22L12 25L13 25L13 22L14 22L14 23L15 23L15 22L14 22L14 21L16 21L16 23L17 23L17 24L16 24L16 25L17 25L17 26L15 26L15 28L16 28L16 29L18 29L18 30L17 30L17 33L19 33L19 34L17 34L17 35L19 35L19 34L21 34L21 32L20 32L20 31L18 31L18 30L21 30L21 31L22 31L22 32L23 32L23 33L24 33L24 32L23 32L23 31L22 31L22 30L25 30L25 29L24 29L24 27L25 27L25 28L26 28L26 27L25 27L25 26L26 26L26 25L28 25L28 27L27 27L27 28L28 28L28 29L29 29L29 30L27 30L27 29L26 29L26 30L27 30L27 31L25 31L25 34L24 34L24 35L25 35L25 36L26 36L26 34L27 34L27 35L28 35L28 38L29 38L29 36L30 36L30 35L31 35L31 36L32 36L32 32L31 32L31 31L33 31L33 30L32 30L32 29L34 29L34 30L35 30L35 27L37 27L37 28L36 28L36 29L37 29L37 31L35 31L35 32L37 32L37 31L38 31L38 32L40 32L40 31L41 31L41 33L42 33L42 32L43 32L43 35L41 35L41 36L39 36L39 35L38 35L38 34L40 34L40 33L38 33L38 34L37 34L37 35L38 35L38 37L37 37L37 38L35 38L35 37L30 37L30 38L33 38L33 41L34 41L34 42L32 42L32 39L29 39L29 40L28 40L28 41L29 41L29 42L27 42L27 43L26 43L26 44L24 44L24 43L25 43L25 42L26 42L26 41L25 41L25 40L24 40L24 41L25 41L25 42L21 42L21 44L24 44L24 45L25 45L25 49L24 49L24 46L23 46L23 45L20 45L20 44L19 44L19 43L18 43L18 45L20 45L20 46L19 46L19 47L20 47L20 48L18 48L18 50L19 50L19 49L20 49L20 50L21 50L21 48L22 48L22 49L23 49L23 50L24 50L24 51L25 51L25 52L26 52L26 51L27 51L27 50L29 50L29 48L30 48L30 46L31 46L31 47L32 47L32 48L31 48L31 49L32 49L32 50L33 50L33 51L28 51L28 52L29 52L29 55L28 55L28 54L27 54L27 55L28 55L28 56L26 56L26 54L25 54L25 53L24 53L24 52L23 52L23 51L22 51L22 53L24 53L24 55L25 55L25 56L24 56L24 57L25 57L25 58L27 58L27 59L26 59L26 61L28 61L28 62L27 62L27 63L29 63L29 62L30 62L30 63L31 63L31 62L32 62L32 60L31 60L31 59L33 59L33 60L34 60L34 59L33 59L33 58L35 58L35 59L36 59L36 60L37 60L37 59L38 59L38 61L39 61L39 60L40 60L40 58L39 58L39 57L38 57L38 58L37 58L37 59L36 59L36 58L35 58L35 57L33 57L33 54L31 54L31 55L30 55L30 53L31 53L31 52L32 52L32 53L35 53L35 54L34 54L34 56L36 56L36 57L37 57L37 55L35 55L35 54L36 54L36 53L35 53L35 51L34 51L34 50L33 50L33 49L32 49L32 48L34 48L34 49L35 49L35 50L36 50L36 51L37 51L37 50L36 50L36 49L40 49L40 50L39 50L39 51L40 51L40 53L41 53L41 52L44 52L44 50L45 50L45 48L46 48L46 50L47 50L47 53L48 53L48 54L49 54L49 56L48 56L48 59L47 59L47 60L48 60L48 59L52 59L52 60L49 60L49 61L51 61L51 62L50 62L50 63L52 63L52 65L53 65L53 63L54 63L54 64L55 64L55 63L54 63L54 62L55 62L55 61L54 61L54 60L53 60L53 59L55 59L55 58L53 58L53 57L50 57L50 55L51 55L51 56L53 56L53 55L51 55L51 54L54 54L54 55L55 55L55 54L56 54L56 55L58 55L58 56L54 56L54 57L57 57L57 58L58 58L58 59L59 59L59 61L58 61L58 60L57 60L57 59L56 59L56 61L58 61L58 63L57 63L57 65L58 65L58 64L59 64L59 63L60 63L60 55L61 55L61 54L59 54L59 55L58 55L58 53L55 53L55 52L52 52L52 53L51 53L51 51L50 51L50 50L47 50L47 48L46 48L46 47L44 47L44 46L43 46L43 48L44 48L44 49L42 49L42 48L40 48L40 47L37 47L37 46L36 46L36 45L37 45L37 43L35 43L35 39L38 39L38 40L36 40L36 42L38 42L38 46L39 46L39 44L40 44L40 45L41 45L41 47L42 47L42 45L45 45L45 43L46 43L46 46L47 46L47 44L48 44L48 45L50 45L50 47L51 47L51 46L52 46L52 49L51 49L51 48L49 48L49 47L48 47L48 48L49 48L49 49L51 49L51 50L52 50L52 51L55 51L55 49L53 49L53 48L55 48L55 47L53 47L53 45L51 45L51 44L48 44L48 43L50 43L50 42L51 42L51 41L53 41L53 42L52 42L52 44L54 44L54 45L56 45L56 49L57 49L57 47L58 47L58 46L60 46L60 47L61 47L61 48L63 48L63 47L65 47L65 46L66 46L66 45L64 45L64 42L62 42L62 43L61 43L61 39L63 39L63 38L65 38L65 39L66 39L66 38L65 38L65 37L62 37L62 38L61 38L61 39L60 39L60 38L59 38L59 37L60 37L60 34L59 34L59 33L60 33L60 32L63 32L63 30L64 30L64 29L62 29L62 28L63 28L63 27L62 27L62 28L61 28L61 29L60 29L60 30L58 30L58 31L57 31L57 32L55 32L55 31L56 31L56 30L55 30L55 29L54 29L54 30L53 30L53 31L54 31L54 32L53 32L53 33L52 33L52 34L51 34L51 33L49 33L49 32L50 32L50 31L51 31L51 32L52 32L52 31L51 31L51 29L53 29L53 28L55 28L55 27L56 27L56 28L58 28L58 27L59 27L59 24L58 24L58 23L56 23L56 25L58 25L58 26L57 26L57 27L56 27L56 26L55 26L55 23L54 23L54 19L56 19L56 20L55 20L55 22L56 22L56 21L57 21L57 19L61 19L61 20L67 20L67 18L68 18L68 16L66 16L66 18L65 18L65 11L66 11L66 12L67 12L67 11L66 11L66 10L64 10L64 12L63 12L63 14L61 14L61 13L62 13L62 11L61 11L61 10L60 10L60 9L59 9L59 8L58 8L58 5L57 5L57 7L56 7L56 6L55 6L55 7L54 7L54 8L53 8L53 7L52 7L52 8L53 8L53 9L51 9L51 8L49 8L49 7L50 7L50 6L49 6L49 4L50 4L50 3L51 3L51 2L49 2L49 1ZM20 2L20 3L21 3L21 4L23 4L23 3L21 3L21 2ZM41 2L41 3L42 3L42 2ZM55 2L55 4L56 4L56 2ZM58 2L58 3L59 3L59 2ZM32 3L32 4L33 4L33 3ZM35 3L35 4L36 4L36 3ZM44 3L44 4L45 4L45 3ZM47 3L47 5L46 5L46 7L47 7L47 6L48 6L48 7L49 7L49 6L48 6L48 4L49 4L49 3ZM60 3L60 5L61 5L61 3ZM30 4L30 5L31 5L31 4ZM37 4L37 7L38 7L38 6L39 6L39 8L38 8L38 10L41 10L41 11L42 11L42 10L41 10L41 9L42 9L42 8L41 8L41 7L42 7L42 6L41 6L41 7L40 7L40 6L39 6L39 5L38 5L38 4ZM33 5L33 8L36 8L36 5ZM8 6L8 7L9 7L9 6ZM16 6L16 7L15 7L15 9L14 9L14 10L13 10L13 11L14 11L14 13L13 13L13 12L12 12L12 13L13 13L13 15L12 15L12 17L13 17L13 18L14 18L14 15L15 15L15 17L16 17L16 12L17 12L17 13L19 13L19 14L17 14L17 15L19 15L19 14L20 14L20 15L21 15L21 13L19 13L19 10L20 10L20 9L19 9L19 10L18 10L18 9L16 9L16 8L17 8L17 6ZM18 6L18 7L19 7L19 6ZM25 6L25 7L26 7L26 6ZM29 6L29 7L30 7L30 6ZM31 6L31 8L32 8L32 6ZM34 6L34 7L35 7L35 6ZM21 7L21 8L22 8L22 9L23 9L23 10L22 10L22 11L23 11L23 13L22 13L22 14L23 14L23 13L25 13L25 14L24 14L24 17L25 17L25 16L26 16L26 17L28 17L28 18L29 18L29 19L31 19L31 20L32 20L32 21L31 21L31 24L30 24L30 21L29 21L29 22L28 22L28 23L27 23L27 21L23 21L23 19L24 19L24 18L21 18L21 17L22 17L22 16L20 16L20 19L19 19L19 21L18 21L18 22L17 22L17 23L18 23L18 22L20 22L20 23L23 23L23 24L22 24L22 25L23 25L23 27L24 27L24 25L26 25L26 24L28 24L28 25L29 25L29 24L30 24L30 25L31 25L31 27L29 27L29 28L33 28L33 27L32 27L32 25L33 25L33 26L34 26L34 27L35 27L35 26L34 26L34 24L36 24L36 25L37 25L37 26L38 26L38 29L39 29L39 30L38 30L38 31L40 31L40 30L41 30L41 29L42 29L42 28L43 28L43 29L45 29L45 30L44 30L44 31L45 31L45 32L47 32L47 35L46 35L46 34L45 34L45 33L44 33L44 34L45 34L45 35L43 35L43 38L44 38L44 39L45 39L45 40L43 40L43 41L45 41L45 42L44 42L44 43L43 43L43 42L42 42L42 41L41 41L41 42L40 42L40 40L41 40L41 38L39 38L39 37L38 37L38 38L39 38L39 42L40 42L40 43L43 43L43 44L44 44L44 43L45 43L45 42L46 42L46 43L47 43L47 42L49 42L49 41L46 41L46 40L47 40L47 39L48 39L48 40L50 40L50 38L51 38L51 39L52 39L52 40L55 40L55 43L54 43L54 42L53 42L53 43L54 43L54 44L56 44L56 42L57 42L57 39L56 39L56 40L55 40L55 39L54 39L54 38L53 38L53 39L52 39L52 37L51 37L51 36L50 36L50 34L49 34L49 33L48 33L48 32L49 32L49 29L50 29L50 27L52 27L52 28L53 28L53 26L52 26L52 25L49 25L49 23L52 23L52 22L53 22L53 19L54 19L54 17L53 17L53 19L52 19L52 20L51 20L51 22L50 22L50 21L48 21L48 20L49 20L49 19L51 19L51 18L52 18L52 16L55 16L55 17L57 17L57 18L60 18L60 17L57 17L57 16L56 16L56 14L58 14L58 15L59 15L59 16L61 16L61 17L64 17L64 14L63 14L63 15L62 15L62 16L61 16L61 14L60 14L60 12L59 12L59 10L58 10L58 9L57 9L57 11L56 11L56 7L55 7L55 9L53 9L53 10L55 10L55 11L56 11L56 12L55 12L55 14L54 14L54 15L53 15L53 14L52 14L52 16L51 16L51 15L50 15L50 16L49 16L49 18L47 18L47 17L46 17L46 15L47 15L47 14L46 14L46 13L44 13L44 14L46 14L46 15L44 15L44 16L43 16L43 18L42 18L42 16L41 16L41 17L40 17L40 14L39 14L39 15L38 15L38 17L39 17L39 20L38 20L38 19L37 19L37 16L35 16L35 17L34 17L34 19L35 19L35 21L36 21L36 20L37 20L37 22L38 22L38 23L37 23L37 24L36 24L36 23L34 23L34 20L33 20L33 17L32 17L32 15L31 15L31 17L32 17L32 19L31 19L31 18L30 18L30 17L28 17L28 15L30 15L30 14L28 14L28 13L27 13L27 14L28 14L28 15L27 15L27 16L26 16L26 12L25 12L25 11L27 11L27 9L26 9L26 10L24 10L24 9L23 9L23 8L22 8L22 7ZM39 8L39 9L41 9L41 8ZM31 9L31 10L33 10L33 9ZM16 10L16 11L17 11L17 12L18 12L18 11L17 11L17 10ZM43 10L43 11L44 11L44 10ZM52 11L52 12L54 12L54 11ZM57 11L57 12L56 12L56 13L57 13L57 12L58 12L58 11ZM7 13L7 14L8 14L8 13ZM14 13L14 14L15 14L15 13ZM32 13L32 14L33 14L33 13ZM58 13L58 14L59 14L59 13ZM7 15L7 16L6 16L6 17L7 17L7 16L9 16L9 15ZM18 16L18 17L19 17L19 16ZM9 17L9 18L10 18L10 17ZM44 17L44 18L43 18L43 19L42 19L42 21L41 21L41 22L40 22L40 23L39 23L39 24L38 24L38 25L40 25L40 26L39 26L39 29L41 29L41 28L42 28L42 27L44 27L44 25L46 25L46 26L45 26L45 28L46 28L46 29L49 29L49 27L50 27L50 26L49 26L49 25L48 25L48 24L47 24L47 25L46 25L46 23L49 23L49 22L48 22L48 21L47 21L47 19L46 19L46 21L45 21L45 20L44 20L44 18L45 18L45 17ZM50 17L50 18L51 18L51 17ZM25 18L25 20L27 20L27 19L26 19L26 18ZM62 18L62 19L63 19L63 18ZM0 19L0 22L1 22L1 19ZM20 19L20 20L22 20L22 19ZM39 20L39 21L40 21L40 20ZM58 20L58 22L59 22L59 23L60 23L60 27L61 27L61 25L64 25L64 27L65 27L65 25L66 25L66 27L67 27L67 29L68 29L68 27L67 27L67 25L68 25L68 24L67 24L67 23L66 23L66 24L63 24L63 23L64 23L64 22L66 22L66 21L64 21L64 22L63 22L63 21L62 21L62 22L59 22L59 21L60 21L60 20ZM6 21L6 22L7 22L7 23L6 23L6 24L5 24L5 25L4 25L4 26L5 26L5 27L6 27L6 28L7 28L7 27L8 27L8 26L9 26L9 25L6 25L6 24L9 24L9 23L8 23L8 21ZM20 21L20 22L23 22L23 23L24 23L24 24L26 24L26 22L25 22L25 23L24 23L24 22L23 22L23 21ZM32 21L32 24L33 24L33 21ZM42 21L42 23L40 23L40 24L42 24L42 25L44 25L44 23L43 23L43 22L44 22L44 21ZM2 22L2 23L4 23L4 22ZM62 22L62 23L61 23L61 24L62 24L62 23L63 23L63 22ZM0 23L0 24L1 24L1 23ZM28 23L28 24L29 24L29 23ZM42 23L42 24L43 24L43 23ZM53 23L53 24L54 24L54 23ZM14 24L14 25L15 25L15 24ZM17 24L17 25L18 25L18 27L19 27L19 26L21 26L21 24ZM0 25L0 27L2 27L2 25ZM5 25L5 26L6 26L6 27L7 27L7 26L6 26L6 25ZM41 26L41 27L42 27L42 26ZM46 26L46 28L47 28L47 27L48 27L48 26ZM16 27L16 28L17 28L17 27ZM20 27L20 28L19 28L19 29L21 29L21 30L22 30L22 27ZM0 28L0 29L1 29L1 28ZM30 29L30 30L29 30L29 31L28 31L28 35L30 35L30 34L29 34L29 33L30 33L30 31L31 31L31 29ZM4 30L4 31L5 31L5 30ZM46 30L46 31L47 31L47 30ZM54 30L54 31L55 31L55 30ZM60 30L60 31L61 31L61 30ZM1 31L1 32L2 32L2 31ZM26 32L26 33L27 33L27 32ZM57 32L57 33L56 33L56 34L55 34L55 33L53 33L53 34L54 34L54 35L56 35L56 34L57 34L57 33L58 33L58 32ZM5 33L5 36L8 36L8 33ZM33 33L33 36L36 36L36 33ZM61 33L61 36L64 36L64 33ZM6 34L6 35L7 35L7 34ZM9 34L9 35L10 35L10 36L9 36L9 38L8 38L8 37L4 37L4 36L2 36L2 37L1 37L1 38L2 38L2 39L4 39L4 40L3 40L3 41L4 41L4 40L5 40L5 42L3 42L3 44L4 44L4 43L5 43L5 44L8 44L8 45L9 45L9 47L11 47L11 46L12 46L12 45L10 45L10 44L13 44L13 42L12 42L12 40L11 40L11 39L12 39L12 37L13 37L13 36L12 36L12 35L11 35L11 34ZM34 34L34 35L35 35L35 34ZM58 34L58 36L57 36L57 37L56 37L56 36L55 36L55 37L56 37L56 38L58 38L58 39L59 39L59 38L58 38L58 37L59 37L59 34ZM62 34L62 35L63 35L63 34ZM48 35L48 36L49 36L49 35ZM52 35L52 36L53 36L53 35ZM10 36L10 37L12 37L12 36ZM41 36L41 37L42 37L42 36ZM44 36L44 38L45 38L45 39L47 39L47 38L48 38L48 37L46 37L46 38L45 38L45 36ZM2 37L2 38L3 38L3 37ZM5 38L5 39L7 39L7 40L6 40L6 41L7 41L7 42L6 42L6 43L8 43L8 42L9 42L9 41L10 41L10 43L12 43L12 42L11 42L11 40L9 40L9 39L10 39L10 38L9 38L9 39L7 39L7 38ZM7 40L7 41L8 41L8 40ZM30 40L30 41L31 41L31 40ZM59 40L59 41L58 41L58 43L57 43L57 44L58 44L58 45L59 45L59 44L61 44L61 43L60 43L60 40ZM62 40L62 41L63 41L63 40ZM68 41L68 42L69 42L69 41ZM29 42L29 44L30 44L30 43L31 43L31 44L32 44L32 45L33 45L33 47L35 47L35 48L37 48L37 47L36 47L36 46L35 46L35 43L33 43L33 44L32 44L32 43L31 43L31 42ZM0 43L0 46L1 46L1 43ZM58 43L58 44L59 44L59 43ZM27 44L27 46L26 46L26 47L27 47L27 48L29 48L29 47L28 47L28 44ZM41 44L41 45L42 45L42 44ZM62 44L62 45L61 45L61 47L63 47L63 44ZM29 45L29 46L30 46L30 45ZM67 45L67 46L68 46L68 45ZM3 46L3 47L2 47L2 49L3 49L3 48L4 48L4 46ZM15 46L15 50L16 50L16 46ZM21 46L21 47L22 47L22 48L23 48L23 46ZM6 48L6 49L7 49L7 48ZM11 48L11 50L12 50L12 48ZM25 49L25 51L26 51L26 50L27 50L27 49ZM52 49L52 50L53 50L53 49ZM6 50L6 51L7 51L7 52L6 52L6 53L7 53L7 52L8 52L8 51L7 51L7 50ZM56 50L56 52L57 52L57 51L58 51L58 50ZM2 51L2 52L3 52L3 51ZM45 51L45 53L46 53L46 51ZM48 51L48 52L49 52L49 53L50 53L50 51ZM64 51L64 52L65 52L65 51ZM12 52L12 53L13 53L13 52ZM67 52L67 53L68 53L68 52ZM9 53L9 54L10 54L10 53ZM6 54L6 55L7 55L7 54ZM16 54L16 55L15 55L15 57L13 57L13 56L12 56L12 58L13 58L13 59L12 59L12 60L9 60L9 62L11 62L11 61L12 61L12 60L14 60L14 59L16 59L16 62L17 62L17 63L16 63L16 64L17 64L17 63L19 63L19 62L18 62L18 60L17 60L17 59L16 59L16 55L17 55L17 54ZM1 55L1 57L2 57L2 55ZM31 55L31 57L29 57L29 58L33 58L33 57L32 57L32 55ZM64 55L64 56L65 56L65 55ZM6 56L6 57L5 57L5 58L4 58L4 59L7 59L7 58L6 58L6 57L8 57L8 56ZM45 56L45 57L46 57L46 56ZM58 56L58 57L59 57L59 56ZM66 56L66 57L68 57L68 58L67 58L67 61L68 61L68 62L69 62L69 57L68 57L68 56ZM49 57L49 58L50 58L50 57ZM0 58L0 61L1 61L1 58ZM2 58L2 59L3 59L3 58ZM38 58L38 59L39 59L39 58ZM61 58L61 60L62 60L62 58ZM28 59L28 60L29 60L29 61L31 61L31 60L29 60L29 59ZM3 60L3 61L5 61L5 60ZM43 60L43 63L44 63L44 64L43 64L43 65L45 65L45 63L46 63L46 62L45 62L45 61L44 61L44 60ZM13 61L13 62L12 62L12 63L11 63L11 64L10 64L10 65L9 65L9 68L11 68L11 67L12 67L12 66L11 66L11 67L10 67L10 65L11 65L11 64L12 64L12 65L13 65L13 66L15 66L15 64L14 64L14 61ZM33 61L33 64L36 64L36 61ZM61 61L61 64L64 64L64 61ZM34 62L34 63L35 63L35 62ZM44 62L44 63L45 63L45 62ZM62 62L62 63L63 63L63 62ZM38 63L38 65L37 65L37 66L39 66L39 67L40 67L40 68L41 68L41 67L40 67L40 66L39 66L39 63ZM18 64L18 66L19 66L19 64ZM35 65L35 66L36 66L36 65ZM46 65L46 68L45 68L45 69L48 69L48 67L47 67L47 65ZM48 65L48 66L49 66L49 65ZM60 65L60 66L61 66L61 67L60 67L60 68L61 68L61 67L62 67L62 66L63 66L63 65ZM29 66L29 67L31 67L31 66ZM44 66L44 67L45 67L45 66ZM68 67L68 68L69 68L69 67ZM0 0L0 7L7 7L7 0ZM1 1L1 6L6 6L6 1ZM2 2L2 5L5 5L5 2ZM62 0L62 7L69 7L69 0ZM63 1L63 6L68 6L68 1ZM64 2L64 5L67 5L67 2ZM0 62L0 69L7 69L7 62ZM1 63L1 68L6 68L6 63ZM2 64L2 67L5 67L5 64Z" fill="#000000"/></g></g></svg>
