<?xml version="1.0" encoding="UTF-8"?>
<svg xmlns="http://www.w3.org/2000/svg" version="1.1" width="300" height="300" viewBox="0 0 300 300"><rect x="0" y="0" width="300" height="300" fill="#ffffff"/><g transform="scale(4.348)"><g transform="translate(0,0)"><path fill-rule="evenodd" d="M8 0L8 2L9 2L9 4L8 4L8 9L7 9L7 8L5 8L5 9L7 9L7 10L4 10L4 11L8 11L8 12L5 12L5 13L4 13L4 12L3 12L3 10L2 10L2 9L3 9L3 8L0 8L0 9L1 9L1 10L0 10L0 11L2 11L2 12L0 12L0 13L1 13L1 14L0 14L0 18L1 18L1 19L0 19L0 20L1 20L1 21L2 21L2 22L4 22L4 23L3 23L3 24L4 24L4 25L8 25L8 27L9 27L9 28L8 28L8 32L6 32L6 31L7 31L7 30L6 30L6 29L7 29L7 28L6 28L6 27L7 27L7 26L6 26L6 27L5 27L5 26L4 26L4 27L2 27L2 26L3 26L3 25L2 25L2 24L0 24L0 26L1 26L1 27L0 27L0 28L1 28L1 29L2 29L2 30L3 30L3 28L5 28L5 30L4 30L4 31L3 31L3 32L4 32L4 34L3 34L3 33L2 33L2 31L1 31L1 30L0 30L0 31L1 31L1 32L0 32L0 33L2 33L2 34L3 34L3 36L2 36L2 35L1 35L1 36L0 36L0 37L1 37L1 39L3 39L3 40L4 40L4 39L8 39L8 37L9 37L9 38L10 38L10 37L9 37L9 31L10 31L10 32L11 32L11 33L10 33L10 36L11 36L11 37L13 37L13 39L11 39L11 42L10 42L10 41L9 41L9 40L10 40L10 39L9 39L9 40L5 40L5 41L4 41L4 42L5 42L5 43L9 43L9 44L8 44L8 45L7 45L7 44L6 44L6 45L7 45L7 46L6 46L6 47L7 47L7 46L8 46L8 50L6 50L6 49L7 49L7 48L5 48L5 47L4 47L4 46L5 46L5 44L4 44L4 43L3 43L3 45L2 45L2 43L1 43L1 41L2 41L2 42L3 42L3 41L2 41L2 40L1 40L1 41L0 41L0 44L1 44L1 45L0 45L0 48L3 48L3 49L2 49L2 50L0 50L0 53L1 53L1 55L0 55L0 56L1 56L1 57L4 57L4 56L6 56L6 57L7 57L7 58L4 58L4 59L8 59L8 60L6 60L6 61L8 61L8 62L9 62L9 63L8 63L8 64L10 64L10 65L9 65L9 66L8 66L8 69L9 69L9 66L10 66L10 68L11 68L11 69L13 69L13 68L15 68L15 69L17 69L17 68L18 68L18 69L20 69L20 68L18 68L18 67L17 67L17 68L15 68L15 67L14 67L14 65L15 65L15 66L16 66L16 65L17 65L17 66L18 66L18 65L19 65L19 64L20 64L20 65L21 65L21 63L22 63L22 62L23 62L23 63L24 63L24 65L23 65L23 64L22 64L22 66L20 66L20 67L22 67L22 66L24 66L24 67L23 67L23 68L22 68L22 69L23 69L23 68L25 68L25 69L29 69L29 67L30 67L30 69L31 69L31 66L30 66L30 65L31 65L31 64L32 64L32 66L33 66L33 67L34 67L34 68L32 68L32 69L34 69L34 68L35 68L35 69L37 69L37 68L36 68L36 67L37 67L37 64L38 64L38 65L39 65L39 66L40 66L40 65L41 65L41 67L42 67L42 68L43 68L43 67L44 67L44 69L45 69L45 67L44 67L44 65L47 65L47 67L46 67L46 69L47 69L47 68L48 68L48 69L49 69L49 68L52 68L52 69L55 69L55 67L57 67L57 68L56 68L56 69L57 69L57 68L58 68L58 64L57 64L57 63L56 63L56 61L57 61L57 62L58 62L58 61L60 61L60 64L59 64L59 66L60 66L60 67L61 67L61 68L59 68L59 69L61 69L61 68L62 68L62 69L63 69L63 68L62 68L62 67L63 67L63 66L64 66L64 69L67 69L67 68L66 68L66 66L67 66L67 67L69 67L69 66L67 66L67 65L69 65L69 61L68 61L68 60L66 60L66 59L65 59L65 58L67 58L67 57L68 57L68 56L69 56L69 52L68 52L68 51L69 51L69 48L68 48L68 47L69 47L69 46L68 46L68 45L67 45L67 44L66 44L66 43L64 43L64 40L66 40L66 42L67 42L67 41L68 41L68 44L69 44L69 40L68 40L68 39L69 39L69 38L68 38L68 39L67 39L67 36L66 36L66 35L67 35L67 33L66 33L66 34L65 34L65 32L66 32L66 30L67 30L67 29L68 29L68 37L69 37L69 29L68 29L68 28L69 28L69 26L68 26L68 27L67 27L67 29L66 29L66 25L67 25L67 24L68 24L68 23L69 23L69 22L68 22L68 21L69 21L69 20L68 20L68 19L69 19L69 17L67 17L67 16L66 16L66 15L67 15L67 13L68 13L68 16L69 16L69 13L68 13L68 11L69 11L69 8L67 8L67 10L66 10L66 9L65 9L65 8L61 8L61 6L60 6L60 7L59 7L59 4L58 4L58 3L59 3L59 2L58 2L58 1L61 1L61 0L57 0L57 1L56 1L56 0L54 0L54 1L56 1L56 2L57 2L57 4L56 4L56 3L54 3L54 2L53 2L53 1L52 1L52 2L51 2L51 3L50 3L50 5L49 5L49 6L48 6L48 4L46 4L46 5L47 5L47 6L46 6L46 7L47 7L47 8L44 8L44 9L43 9L43 11L41 11L41 10L42 10L42 8L43 8L43 6L42 6L42 5L43 5L43 4L44 4L44 7L45 7L45 4L44 4L44 2L43 2L43 3L42 3L42 2L41 2L41 0L40 0L40 3L39 3L39 0L38 0L38 1L37 1L37 4L35 4L35 3L36 3L36 2L34 2L34 4L32 4L32 8L31 8L31 4L30 4L30 3L33 3L33 2L32 2L32 1L33 1L33 0L32 0L32 1L31 1L31 2L30 2L30 1L28 1L28 2L29 2L29 4L28 4L28 5L27 5L27 4L26 4L26 1L27 1L27 0L24 0L24 2L23 2L23 3L25 3L25 4L24 4L24 5L23 5L23 6L22 6L22 7L21 7L21 6L20 6L20 5L22 5L22 2L20 2L20 1L23 1L23 0L18 0L18 2L19 2L19 4L18 4L18 3L16 3L16 2L17 2L17 1L16 1L16 0L15 0L15 1L16 1L16 2L13 2L13 1L14 1L14 0L13 0L13 1L12 1L12 0L11 0L11 1L9 1L9 0ZM34 0L34 1L35 1L35 0ZM42 0L42 1L44 1L44 0ZM46 0L46 1L47 1L47 2L46 2L46 3L47 3L47 2L48 2L48 1L49 1L49 2L50 2L50 1L51 1L51 0L50 0L50 1L49 1L49 0ZM10 2L10 4L9 4L9 5L11 5L11 8L9 8L9 10L8 10L8 11L9 11L9 15L8 15L8 14L7 14L7 13L5 13L5 14L4 14L4 15L3 15L3 14L2 14L2 17L1 17L1 18L2 18L2 19L1 19L1 20L3 20L3 21L4 21L4 22L5 22L5 23L4 23L4 24L8 24L8 25L9 25L9 27L10 27L10 25L11 25L11 28L12 28L12 30L11 30L11 29L10 29L10 31L12 31L12 33L11 33L11 36L12 36L12 34L13 34L13 32L14 32L14 31L12 31L12 30L15 30L15 29L14 29L14 27L15 27L15 26L14 26L14 24L13 24L13 23L14 23L14 22L16 22L16 21L15 21L15 20L16 20L16 15L17 15L17 23L18 23L18 24L17 24L17 25L18 25L18 24L19 24L19 25L20 25L20 27L21 27L21 29L20 29L20 28L19 28L19 26L18 26L18 28L16 28L16 31L15 31L15 33L14 33L14 34L15 34L15 35L13 35L13 37L14 37L14 38L15 38L15 37L16 37L16 39L13 39L13 40L12 40L12 42L11 42L11 43L10 43L10 44L9 44L9 45L8 45L8 46L9 46L9 48L10 48L10 50L11 50L11 51L9 51L9 52L8 52L8 51L4 51L4 50L2 50L2 51L4 51L4 52L1 52L1 53L4 53L4 52L5 52L5 54L8 54L8 55L6 55L6 56L9 56L9 57L8 57L8 58L9 58L9 59L10 59L10 61L9 61L9 60L8 60L8 61L9 61L9 62L10 62L10 64L11 64L11 65L10 65L10 66L11 66L11 67L13 67L13 65L14 65L14 63L15 63L15 61L14 61L14 60L13 60L13 59L15 59L15 58L14 58L14 57L15 57L15 55L16 55L16 56L17 56L17 57L18 57L18 58L16 58L16 59L18 59L18 60L19 60L19 61L20 61L20 62L22 62L22 59L20 59L20 60L19 60L19 58L23 58L23 60L24 60L24 62L25 62L25 65L24 65L24 66L26 66L26 68L27 68L27 64L29 64L29 65L30 65L30 64L31 64L31 63L29 63L29 62L30 62L30 60L32 60L32 59L31 59L31 58L32 58L32 57L34 57L34 58L33 58L33 60L37 60L37 61L38 61L38 64L39 64L39 65L40 65L40 62L41 62L41 61L42 61L42 62L43 62L43 65L42 65L42 63L41 63L41 65L42 65L42 67L43 67L43 65L44 65L44 62L45 62L45 63L46 63L46 64L47 64L47 65L48 65L48 64L50 64L50 66L49 66L49 67L50 67L50 66L51 66L51 65L52 65L52 66L53 66L53 65L54 65L54 67L52 67L52 68L54 68L54 67L55 67L55 66L56 66L56 65L54 65L54 64L53 64L53 63L52 63L52 64L51 64L51 63L49 63L49 61L50 61L50 62L51 62L51 61L52 61L52 60L51 60L51 57L52 57L52 56L53 56L53 55L54 55L54 57L53 57L53 58L52 58L52 59L54 59L54 60L53 60L53 61L54 61L54 63L55 63L55 61L56 61L56 60L57 60L57 61L58 61L58 60L60 60L60 59L62 59L62 60L63 60L63 59L62 59L62 57L64 57L64 58L65 58L65 57L64 57L64 54L65 54L65 53L66 53L66 56L67 56L67 51L68 51L68 50L67 50L67 47L68 47L68 46L67 46L67 45L64 45L64 43L63 43L63 44L62 44L62 46L61 46L61 47L62 47L62 48L61 48L61 49L60 49L60 50L59 50L59 47L58 47L58 50L59 50L59 51L58 51L58 52L60 52L60 53L61 53L61 55L62 55L62 57L60 57L60 58L59 58L59 57L58 57L58 56L60 56L60 55L58 55L58 54L59 54L59 53L58 53L58 54L56 54L56 52L57 52L57 51L55 51L55 53L54 53L54 52L53 52L53 53L54 53L54 54L52 54L52 50L53 50L53 49L54 49L54 50L57 50L57 49L56 49L56 47L57 47L57 46L56 46L56 44L57 44L57 43L58 43L58 44L59 44L59 43L60 43L60 44L61 44L61 43L62 43L62 42L59 42L59 41L58 41L58 40L60 40L60 39L62 39L62 38L61 38L61 37L60 37L60 39L58 39L58 38L59 38L59 36L60 36L60 34L59 34L59 32L60 32L60 31L61 31L61 32L62 32L62 30L63 30L63 31L64 31L64 30L66 30L66 29L64 29L64 28L65 28L65 27L64 27L64 28L62 28L62 26L64 26L64 25L62 25L62 26L61 26L61 24L60 24L60 22L61 22L61 23L62 23L62 24L63 24L63 23L66 23L66 24L67 24L67 23L68 23L68 22L67 22L67 21L68 21L68 20L67 20L67 19L68 19L68 18L67 18L67 17L65 17L65 19L64 19L64 16L65 16L65 15L66 15L66 13L65 13L65 15L64 15L64 12L65 12L65 11L63 11L63 10L64 10L64 9L62 9L62 11L59 11L59 9L60 9L60 10L61 10L61 9L60 9L60 8L59 8L59 7L58 7L58 4L57 4L57 7L56 7L56 5L54 5L54 3L52 3L52 4L51 4L51 5L52 5L52 6L51 6L51 7L50 7L50 6L49 6L49 7L48 7L48 6L47 6L47 7L48 7L48 8L47 8L47 9L46 9L46 10L45 10L45 11L44 11L44 12L42 12L42 13L41 13L41 11L40 11L40 10L41 10L41 9L40 9L40 4L41 4L41 5L42 5L42 3L40 3L40 4L39 4L39 3L38 3L38 4L39 4L39 5L38 5L38 6L37 6L37 7L38 7L38 6L39 6L39 8L38 8L38 10L39 10L39 11L37 11L37 9L32 9L32 10L31 10L31 8L30 8L30 6L29 6L29 7L28 7L28 6L27 6L27 5L26 5L26 6L25 6L25 9L26 9L26 10L24 10L24 11L26 11L26 12L27 12L27 13L28 13L28 14L27 14L27 15L26 15L26 16L27 16L27 17L26 17L26 18L25 18L25 17L24 17L24 18L25 18L25 19L26 19L26 18L27 18L27 20L29 20L29 21L28 21L28 23L27 23L27 25L26 25L26 23L25 23L25 21L24 21L24 22L23 22L23 21L22 21L22 19L23 19L23 20L24 20L24 19L23 19L23 17L22 17L22 15L23 15L23 16L24 16L24 15L25 15L25 13L24 13L24 15L23 15L23 13L22 13L22 12L23 12L23 9L22 9L22 11L20 11L20 10L21 10L21 7L20 7L20 6L19 6L19 5L17 5L17 7L16 7L16 5L15 5L15 3L14 3L14 4L12 4L12 2ZM60 3L60 5L61 5L61 3ZM13 5L13 6L12 6L12 7L13 7L13 10L11 10L11 9L12 9L12 8L11 8L11 9L10 9L10 12L12 12L12 11L14 11L14 8L15 8L15 9L16 9L16 10L15 10L15 11L16 11L16 10L17 10L17 11L18 11L18 13L17 13L17 12L16 12L16 13L15 13L15 12L14 12L14 13L11 13L11 14L10 14L10 16L13 16L13 17L14 17L14 16L13 16L13 15L16 15L16 14L18 14L18 13L19 13L19 14L20 14L20 16L19 16L19 15L18 15L18 16L19 16L19 19L18 19L18 22L19 22L19 24L20 24L20 23L21 23L21 22L22 22L22 21L21 21L21 19L22 19L22 17L21 17L21 14L20 14L20 12L19 12L19 10L20 10L20 8L18 8L18 7L19 7L19 6L18 6L18 7L17 7L17 8L16 8L16 7L15 7L15 5ZM33 5L33 8L36 8L36 5ZM53 5L53 6L52 6L52 7L51 7L51 9L52 9L52 10L51 10L51 11L48 11L48 9L50 9L50 8L48 8L48 9L47 9L47 10L46 10L46 11L45 11L45 12L44 12L44 13L43 13L43 15L42 15L42 16L40 16L40 17L39 17L39 15L38 15L38 17L37 17L37 16L36 16L36 17L35 17L35 16L34 16L34 17L35 17L35 18L34 18L34 19L33 19L33 21L32 21L32 22L33 22L33 21L34 21L34 19L35 19L35 18L36 18L36 19L37 19L37 20L35 20L35 21L36 21L36 23L35 23L35 22L34 22L34 23L35 23L35 28L34 28L34 27L33 27L33 24L32 24L32 23L31 23L31 18L33 18L33 16L32 16L32 15L33 15L33 14L31 14L31 12L28 12L28 11L29 11L29 10L28 10L28 11L27 11L27 10L26 10L26 11L27 11L27 12L28 12L28 13L29 13L29 14L28 14L28 15L29 15L29 14L30 14L30 18L28 18L28 19L30 19L30 22L29 22L29 23L28 23L28 25L27 25L27 26L26 26L26 27L25 27L25 26L24 26L24 27L25 27L25 28L26 28L26 29L25 29L25 30L24 30L24 28L23 28L23 26L21 26L21 27L22 27L22 29L23 29L23 30L24 30L24 32L25 32L25 30L26 30L26 29L27 29L27 31L26 31L26 32L27 32L27 34L24 34L24 33L23 33L23 32L22 32L22 33L21 33L21 32L20 32L20 33L21 33L21 34L20 34L20 35L21 35L21 36L20 36L20 37L19 37L19 36L18 36L18 39L17 39L17 40L16 40L16 41L17 41L17 42L16 42L16 43L18 43L18 45L19 45L19 43L21 43L21 42L22 42L22 43L23 43L23 44L22 44L22 45L21 45L21 46L20 46L20 47L21 47L21 46L22 46L22 49L23 49L23 48L25 48L25 51L26 51L26 53L25 53L25 52L22 52L22 54L24 54L24 53L25 53L25 54L26 54L26 55L27 55L27 56L26 56L26 57L27 57L27 58L28 58L28 56L29 56L29 59L30 59L30 57L32 57L32 56L34 56L34 57L36 57L36 54L35 54L35 56L34 56L34 53L35 53L35 52L36 52L36 51L37 51L37 59L40 59L40 58L41 58L41 59L43 59L43 60L44 60L44 61L43 61L43 62L44 62L44 61L47 61L47 64L48 64L48 61L49 61L49 60L50 60L50 61L51 61L51 60L50 60L50 59L49 59L49 58L48 58L48 57L50 57L50 56L51 56L51 55L52 55L52 54L51 54L51 55L50 55L50 53L51 53L51 50L52 50L52 49L53 49L53 48L52 48L52 49L51 49L51 50L50 50L50 48L49 48L49 47L48 47L48 45L49 45L49 42L50 42L50 44L51 44L51 43L52 43L52 47L54 47L54 49L55 49L55 46L54 46L54 43L55 43L55 44L56 44L56 43L57 43L57 42L58 42L58 43L59 43L59 42L58 42L58 41L57 41L57 38L58 38L58 37L57 37L57 34L58 34L58 36L59 36L59 34L58 34L58 33L57 33L57 30L58 30L58 31L60 31L60 28L59 28L59 27L60 27L60 25L59 25L59 24L57 24L57 23L58 23L58 21L59 21L59 22L60 22L60 20L62 20L62 21L61 21L61 22L62 22L62 23L63 23L63 22L64 22L64 21L65 21L65 22L66 22L66 21L67 21L67 20L66 20L66 19L67 19L67 18L66 18L66 19L65 19L65 20L64 20L64 19L63 19L63 20L62 20L62 17L63 17L63 15L62 15L62 17L61 17L61 14L62 14L62 13L63 13L63 11L62 11L62 13L61 13L61 14L60 14L60 12L59 12L59 11L57 11L57 10L56 10L56 9L59 9L59 8L58 8L58 7L57 7L57 8L56 8L56 7L55 7L55 6L54 6L54 5ZM9 6L9 7L10 7L10 6ZM13 6L13 7L14 7L14 6ZM23 6L23 7L22 7L22 8L23 8L23 7L24 7L24 6ZM26 6L26 7L27 7L27 8L26 8L26 9L27 9L27 8L28 8L28 7L27 7L27 6ZM34 6L34 7L35 7L35 6ZM41 6L41 8L42 8L42 6ZM53 6L53 8L54 8L54 11L51 11L51 13L50 13L50 12L49 12L49 13L48 13L48 11L46 11L46 12L45 12L45 13L44 13L44 14L45 14L45 16L46 16L46 18L47 18L47 19L46 19L46 20L45 20L45 17L44 17L44 15L43 15L43 17L42 17L42 18L41 18L41 17L40 17L40 19L41 19L41 21L40 21L40 20L38 20L38 21L40 21L40 22L39 22L39 23L40 23L40 24L38 24L38 26L37 26L37 24L36 24L36 26L37 26L37 27L36 27L36 28L38 28L38 30L37 30L37 29L36 29L36 30L34 30L34 31L35 31L35 32L36 32L36 30L37 30L37 31L38 31L38 30L39 30L39 27L38 27L38 26L39 26L39 25L40 25L40 28L43 28L43 27L45 27L45 29L46 29L46 30L47 30L47 31L45 31L45 30L44 30L44 31L43 31L43 29L40 29L40 30L42 30L42 35L41 35L41 34L39 34L39 33L40 33L40 31L39 31L39 33L38 33L38 32L37 32L37 33L38 33L38 34L37 34L37 38L36 38L36 37L33 37L33 38L32 38L32 40L33 40L33 41L34 41L34 42L35 42L35 41L34 41L34 40L35 40L35 39L36 39L36 40L37 40L37 41L38 41L38 42L39 42L39 43L38 43L38 46L37 46L37 45L36 45L36 44L37 44L37 42L36 42L36 44L35 44L35 46L33 46L33 45L34 45L34 43L33 43L33 42L32 42L32 43L31 43L31 44L32 44L32 45L31 45L31 46L32 46L32 47L31 47L31 48L33 48L33 49L34 49L34 48L35 48L35 46L37 46L37 48L36 48L36 49L37 49L37 48L38 48L38 50L37 50L37 51L38 51L38 50L39 50L39 49L40 49L40 51L39 51L39 52L38 52L38 53L39 53L39 54L40 54L40 55L39 55L39 56L38 56L38 58L40 58L40 55L41 55L41 54L40 54L40 52L42 52L42 56L41 56L41 57L42 57L42 58L45 58L45 57L46 57L46 58L47 58L47 61L48 61L48 58L47 58L47 57L48 57L48 56L50 56L50 55L49 55L49 53L48 53L48 52L49 52L49 51L50 51L50 50L49 50L49 51L48 51L48 52L46 52L46 54L47 54L47 53L48 53L48 55L45 55L45 54L44 54L44 51L46 51L46 50L48 50L48 48L47 48L47 45L48 45L48 44L47 44L47 43L48 43L48 42L49 42L49 41L48 41L48 40L49 40L49 37L48 37L48 36L50 36L50 40L51 40L51 41L50 41L50 42L52 42L52 43L53 43L53 42L52 42L52 40L53 40L53 37L52 37L52 36L53 36L53 35L52 35L52 34L53 34L53 33L52 33L52 32L53 32L53 31L54 31L54 30L55 30L55 33L54 33L54 34L55 34L55 35L54 35L54 36L55 36L55 37L54 37L54 38L55 38L55 37L56 37L56 34L57 34L57 33L56 33L56 30L55 30L55 29L56 29L56 28L57 28L57 29L58 29L58 30L59 30L59 29L58 29L58 28L57 28L57 27L59 27L59 25L57 25L57 26L56 26L56 28L54 28L54 30L53 30L53 29L51 29L51 28L50 28L50 27L51 27L51 26L53 26L53 27L54 27L54 26L55 26L55 25L54 25L54 24L55 24L55 23L52 23L52 22L53 22L53 21L52 21L52 20L51 20L51 21L50 21L50 19L52 19L52 15L51 15L51 14L53 14L53 13L52 13L52 12L55 12L55 13L54 13L54 14L56 14L56 10L55 10L55 9L56 9L56 8L55 8L55 7L54 7L54 6ZM17 8L17 10L18 10L18 8ZM39 9L39 10L40 10L40 9ZM32 10L32 11L33 11L33 10ZM34 10L34 11L35 11L35 10ZM67 10L67 11L66 11L66 12L67 12L67 11L68 11L68 10ZM36 11L36 12L37 12L37 13L38 13L38 12L37 12L37 11ZM32 12L32 13L33 13L33 12ZM46 12L46 13L45 13L45 14L46 14L46 15L48 15L48 13L47 13L47 12ZM14 13L14 14L15 14L15 13ZM35 13L35 14L34 14L34 15L35 15L35 14L36 14L36 15L37 15L37 14L36 14L36 13ZM40 13L40 14L41 14L41 13ZM46 13L46 14L47 14L47 13ZM49 13L49 14L50 14L50 13ZM58 13L58 14L59 14L59 13ZM6 14L6 15L7 15L7 14ZM11 14L11 15L13 15L13 14ZM50 15L50 17L51 17L51 15ZM54 15L54 16L55 16L55 17L54 17L54 19L53 19L53 20L54 20L54 22L55 22L55 21L56 21L56 20L57 20L57 19L58 19L58 20L59 20L59 19L61 19L61 17L60 17L60 16L59 16L59 15L56 15L56 16L55 16L55 15ZM5 16L5 17L4 17L4 18L3 18L3 17L2 17L2 18L3 18L3 20L4 20L4 21L5 21L5 20L6 20L6 21L7 21L7 22L6 22L6 23L7 23L7 22L8 22L8 23L9 23L9 22L10 22L10 24L9 24L9 25L10 25L10 24L11 24L11 23L13 23L13 22L14 22L14 20L12 20L12 22L11 22L11 21L10 21L10 19L12 19L12 18L11 18L11 17L9 17L9 16L8 16L8 18L9 18L9 19L7 19L7 18L6 18L6 17L7 17L7 16ZM28 16L28 17L29 17L29 16ZM31 16L31 17L32 17L32 16ZM48 16L48 17L47 17L47 18L48 18L48 19L47 19L47 20L48 20L48 21L49 21L49 22L48 22L48 23L47 23L47 22L46 22L46 21L45 21L45 20L44 20L44 21L43 21L43 22L42 22L42 21L41 21L41 22L42 22L42 23L41 23L41 24L40 24L40 25L41 25L41 26L42 26L42 27L43 27L43 26L42 26L42 25L43 25L43 24L42 24L42 23L44 23L44 21L45 21L45 23L47 23L47 26L46 26L46 25L45 25L45 24L44 24L44 25L45 25L45 27L47 27L47 26L48 26L48 29L47 29L47 30L48 30L48 31L47 31L47 32L48 32L48 33L49 33L49 34L46 34L46 32L45 32L45 31L44 31L44 34L43 34L43 35L42 35L42 36L40 36L40 37L39 37L39 36L38 36L38 37L39 37L39 38L38 38L38 39L37 39L37 40L38 40L38 39L39 39L39 38L40 38L40 41L39 41L39 42L42 42L42 43L41 43L41 44L42 44L42 45L43 45L43 46L44 46L44 47L41 47L41 48L40 48L40 49L41 49L41 51L42 51L42 52L43 52L43 50L42 50L42 49L43 49L43 48L44 48L44 50L46 50L46 49L47 49L47 48L44 48L44 47L46 47L46 43L44 43L44 41L45 41L45 42L46 42L46 41L47 41L47 42L48 42L48 41L47 41L47 39L48 39L48 37L47 37L47 39L46 39L46 35L47 35L47 36L48 36L48 35L49 35L49 34L50 34L50 35L51 35L51 36L52 36L52 35L51 35L51 34L52 34L52 33L51 33L51 32L52 32L52 31L53 31L53 30L52 30L52 31L51 31L51 32L48 32L48 31L50 31L50 28L49 28L49 26L50 26L50 25L51 25L51 24L52 24L52 25L53 25L53 26L54 26L54 25L53 25L53 24L52 24L52 23L51 23L51 22L52 22L52 21L51 21L51 22L50 22L50 21L49 21L49 20L48 20L48 19L49 19L49 16ZM56 16L56 17L55 17L55 19L54 19L54 20L55 20L55 19L56 19L56 18L58 18L58 19L59 19L59 18L60 18L60 17L59 17L59 18L58 18L58 17L57 17L57 16ZM38 17L38 18L39 18L39 17ZM5 18L5 19L4 19L4 20L5 20L5 19L6 19L6 20L7 20L7 21L8 21L8 22L9 22L9 21L8 21L8 20L7 20L7 19L6 19L6 18ZM13 18L13 19L14 19L14 18ZM20 18L20 19L21 19L21 18ZM42 18L42 19L44 19L44 18ZM63 20L63 21L62 21L62 22L63 22L63 21L64 21L64 20ZM65 20L65 21L66 21L66 20ZM20 21L20 22L21 22L21 21ZM49 22L49 25L48 25L48 26L49 26L49 25L50 25L50 24L51 24L51 23L50 23L50 22ZM15 23L15 24L16 24L16 23ZM22 23L22 24L24 24L24 25L25 25L25 23ZM30 23L30 24L31 24L31 23ZM12 24L12 27L13 27L13 24ZM28 25L28 27L29 27L29 25ZM30 25L30 26L31 26L31 25ZM16 26L16 27L17 27L17 26ZM26 27L26 28L27 28L27 27ZM18 28L18 29L17 29L17 31L16 31L16 32L17 32L17 35L16 35L16 37L17 37L17 35L18 35L18 33L19 33L19 32L18 32L18 31L20 31L20 29L19 29L19 28ZM28 28L28 30L31 30L31 29L30 29L30 28ZM32 28L32 29L33 29L33 28ZM61 28L61 30L62 30L62 28ZM5 30L5 31L6 31L6 30ZM21 30L21 31L22 31L22 30ZM28 31L28 32L29 32L29 33L30 33L30 36L29 36L29 37L28 37L28 36L27 36L27 35L26 35L26 36L25 36L25 35L23 35L23 33L22 33L22 36L21 36L21 37L20 37L20 38L19 38L19 40L20 40L20 38L21 38L21 37L22 37L22 38L23 38L23 37L22 37L22 36L24 36L24 39L22 39L22 40L25 40L25 42L24 42L24 43L25 43L25 45L24 45L24 44L23 44L23 45L22 45L22 46L23 46L23 47L24 47L24 46L26 46L26 43L27 43L27 45L28 45L28 46L27 46L27 47L26 47L26 48L27 48L27 49L26 49L26 50L27 50L27 53L26 53L26 54L27 54L27 55L28 55L28 54L29 54L29 51L28 51L28 50L29 50L29 49L30 49L30 48L29 48L29 49L28 49L28 46L29 46L29 47L30 47L30 46L29 46L29 45L30 45L30 42L31 42L31 40L30 40L30 39L31 39L31 37L30 37L30 36L31 36L31 34L32 34L32 33L30 33L30 32L31 32L31 31L30 31L30 32L29 32L29 31ZM32 31L32 32L33 32L33 31ZM5 33L5 36L8 36L8 33ZM15 33L15 34L16 34L16 33ZM33 33L33 36L36 36L36 33ZM50 33L50 34L51 34L51 33ZM61 33L61 36L64 36L64 33ZM6 34L6 35L7 35L7 34ZM28 34L28 35L29 35L29 34ZM34 34L34 35L35 35L35 34ZM44 34L44 35L43 35L43 37L42 37L42 38L41 38L41 41L42 41L42 42L43 42L43 41L44 41L44 40L45 40L45 41L46 41L46 39L45 39L45 38L43 38L43 37L44 37L44 35L46 35L46 34ZM62 34L62 35L63 35L63 34ZM1 36L1 37L2 37L2 36ZM26 36L26 37L25 37L25 38L26 38L26 39L25 39L25 40L26 40L26 42L25 42L25 43L26 43L26 42L28 42L28 40L26 40L26 39L27 39L27 38L28 38L28 37L27 37L27 36ZM4 37L4 38L3 38L3 39L4 39L4 38L7 38L7 37ZM29 37L29 38L30 38L30 37ZM51 37L51 38L52 38L52 37ZM63 37L63 40L64 40L64 38L65 38L65 39L66 39L66 40L67 40L67 39L66 39L66 38L65 38L65 37ZM42 38L42 41L43 41L43 38ZM51 39L51 40L52 40L52 39ZM54 39L54 40L55 40L55 41L54 41L54 42L55 42L55 41L56 41L56 39ZM17 40L17 41L18 41L18 40ZM5 41L5 42L9 42L9 41ZM13 41L13 42L14 42L14 41ZM20 41L20 42L21 42L21 41ZM22 41L22 42L23 42L23 41ZM18 42L18 43L19 43L19 42ZM11 43L11 44L13 44L13 45L15 45L15 46L12 46L12 47L11 47L11 45L10 45L10 48L11 48L11 50L15 50L15 52L16 52L16 48L17 48L17 46L16 46L16 44L14 44L14 43ZM32 43L32 44L33 44L33 43ZM42 43L42 44L43 44L43 45L44 45L44 46L45 46L45 45L44 45L44 43ZM3 45L3 46L2 46L2 47L3 47L3 46L4 46L4 45ZM23 45L23 46L24 46L24 45ZM40 45L40 46L41 46L41 45ZM58 45L58 46L60 46L60 45ZM63 45L63 46L62 46L62 47L65 47L65 48L62 48L62 49L61 49L61 51L60 51L60 52L61 52L61 53L62 53L62 52L63 52L63 54L62 54L62 55L63 55L63 54L64 54L64 53L65 53L65 52L66 52L66 51L67 51L67 50L66 50L66 51L63 51L63 50L64 50L64 49L66 49L66 47L67 47L67 46L64 46L64 45ZM15 46L15 47L16 47L16 46ZM12 47L12 48L13 48L13 49L15 49L15 48L14 48L14 47ZM18 47L18 48L19 48L19 50L17 50L17 52L18 52L18 55L17 55L17 54L16 54L16 53L15 53L15 54L13 54L13 53L14 53L14 51L11 51L11 52L13 52L13 53L12 53L12 54L11 54L11 55L9 55L9 56L11 56L11 58L10 58L10 59L12 59L12 56L11 56L11 55L12 55L12 54L13 54L13 56L14 56L14 55L15 55L15 54L16 54L16 55L17 55L17 56L18 56L18 57L19 57L19 56L21 56L21 54L20 54L20 53L21 53L21 51L20 51L20 50L21 50L21 48L19 48L19 47ZM33 47L33 48L34 48L34 47ZM38 47L38 48L39 48L39 47ZM62 49L62 50L63 50L63 49ZM22 50L22 51L24 51L24 50ZM30 50L30 52L31 52L31 50ZM35 50L35 51L34 51L34 52L35 52L35 51L36 51L36 50ZM6 52L6 53L7 53L7 52ZM9 52L9 53L8 53L8 54L10 54L10 52ZM19 52L19 53L20 53L20 52ZM32 52L32 53L31 53L31 54L32 54L32 55L30 55L30 56L32 56L32 55L33 55L33 54L32 54L32 53L33 53L33 52ZM2 54L2 55L3 55L3 56L4 56L4 54ZM43 54L43 55L44 55L44 57L45 57L45 55L44 55L44 54ZM22 55L22 56L23 56L23 55ZM55 55L55 56L56 56L56 58L58 58L58 59L57 59L57 60L58 60L58 59L59 59L59 58L58 58L58 57L57 57L57 56L56 56L56 55ZM24 56L24 57L25 57L25 56ZM0 58L0 61L1 61L1 58ZM2 58L2 59L3 59L3 58ZM24 58L24 59L26 59L26 62L28 62L28 61L27 61L27 60L28 60L28 59L26 59L26 58ZM34 58L34 59L35 59L35 58ZM68 58L68 59L69 59L69 58ZM44 59L44 60L46 60L46 59ZM64 59L64 60L65 60L65 59ZM3 60L3 61L5 61L5 60ZM11 60L11 64L12 64L12 62L14 62L14 61L13 61L13 60ZM20 60L20 61L21 61L21 60ZM38 60L38 61L41 61L41 60ZM16 61L16 62L17 62L17 61ZM31 61L31 62L32 62L32 61ZM33 61L33 64L36 64L36 61ZM61 61L61 64L64 64L64 61ZM66 61L66 62L67 62L67 61ZM34 62L34 63L35 63L35 62ZM62 62L62 63L63 63L63 62ZM16 63L16 64L17 64L17 63ZM18 63L18 64L19 64L19 63ZM26 63L26 64L27 64L27 63ZM66 63L66 65L65 65L65 66L66 66L66 65L67 65L67 64L68 64L68 63ZM52 64L52 65L53 65L53 64ZM34 65L34 66L35 66L35 67L36 67L36 66L35 66L35 65ZM60 65L60 66L61 66L61 67L62 67L62 65ZM28 66L28 67L29 67L29 66ZM39 67L39 68L38 68L38 69L39 69L39 68L40 68L40 69L41 69L41 68L40 68L40 67ZM68 68L68 69L69 69L69 68ZM0 0L0 7L7 7L7 0ZM1 1L1 6L6 6L6 1ZM2 2L2 5L5 5L5 2ZM62 0L62 7L69 7L69 0ZM63 1L63 6L68 6L68 1ZM64 2L64 5L67 5L67 2ZM0 62L0 69L7 69L7 62ZM1 63L1 68L6 68L6 63ZM2 64L2 67L5 67L5 64Z" fill="#000000"/></g></g></svg>
