<?xml version="1.0" encoding="UTF-8"?>
<svg xmlns="http://www.w3.org/2000/svg" version="1.1" width="300" height="300" viewBox="0 0 300 300"><rect x="0" y="0" width="300" height="300" fill="#ffffff"/><g transform="scale(4.348)"><g transform="translate(0,0)"><path fill-rule="evenodd" d="M8 0L8 1L9 1L9 2L10 2L10 4L9 4L9 6L8 6L8 8L10 8L10 9L11 9L11 10L12 10L12 12L11 12L11 11L10 11L10 10L9 10L9 11L10 11L10 12L11 12L11 13L10 13L10 14L11 14L11 13L12 13L12 14L13 14L13 16L12 16L12 15L11 15L11 16L12 16L12 20L15 20L15 21L11 21L11 23L10 23L10 24L11 24L11 23L13 23L13 25L14 25L14 26L15 26L15 28L14 28L14 27L13 27L13 29L15 29L15 30L14 30L14 31L16 31L16 33L14 33L14 32L13 32L13 30L11 30L11 31L12 31L12 32L13 32L13 33L14 33L14 34L13 34L13 35L14 35L14 34L15 34L15 35L16 35L16 34L17 34L17 35L18 35L18 37L17 37L17 36L16 36L16 37L14 37L14 36L13 36L13 37L14 37L14 38L13 38L13 40L11 40L11 38L12 38L12 37L11 37L11 36L12 36L12 35L10 35L10 31L9 31L9 30L8 30L8 29L10 29L10 28L8 28L8 27L10 27L10 25L9 25L9 24L8 24L8 23L7 23L7 22L9 22L9 21L10 21L10 20L11 20L11 17L10 17L10 18L9 18L9 17L8 17L8 15L9 15L9 12L8 12L8 10L6 10L6 11L5 11L5 8L3 8L3 10L2 10L2 12L1 12L1 9L2 9L2 8L0 8L0 15L1 15L1 16L0 16L0 20L1 20L1 21L2 21L2 22L0 22L0 23L1 23L1 24L0 24L0 27L3 27L3 28L0 28L0 31L1 31L1 29L3 29L3 28L6 28L6 29L4 29L4 30L3 30L3 31L2 31L2 32L3 32L3 31L4 31L4 34L3 34L3 33L1 33L1 32L0 32L0 34L1 34L1 36L0 36L0 38L2 38L2 39L3 39L3 42L2 42L2 43L3 43L3 45L4 45L4 46L5 46L5 47L4 47L4 48L3 48L3 49L2 49L2 46L0 46L0 48L1 48L1 49L0 49L0 51L1 51L1 50L2 50L2 51L3 51L3 52L0 52L0 55L1 55L1 53L2 53L2 54L3 54L3 56L4 56L4 53L7 53L7 54L6 54L6 55L5 55L5 57L3 57L3 58L2 58L2 57L1 57L1 56L0 56L0 57L1 57L1 58L0 58L0 61L1 61L1 58L2 58L2 59L3 59L3 58L4 58L4 59L7 59L7 60L6 60L6 61L8 61L8 62L9 62L9 64L8 64L8 66L10 66L10 67L8 67L8 69L9 69L9 68L11 68L11 67L12 67L12 69L13 69L13 67L14 67L14 69L15 69L15 68L16 68L16 69L19 69L19 68L20 68L20 69L21 69L21 68L22 68L22 69L24 69L24 68L26 68L26 67L24 67L24 66L25 66L25 65L26 65L26 64L24 64L24 63L23 63L23 62L26 62L26 63L27 63L27 62L28 62L28 61L29 61L29 60L30 60L30 61L31 61L31 63L30 63L30 62L29 62L29 63L28 63L28 64L27 64L27 69L31 69L31 68L34 68L34 69L35 69L35 68L36 68L36 69L37 69L37 68L40 68L40 69L41 69L41 68L40 68L40 67L36 67L36 66L35 66L35 65L37 65L37 66L38 66L38 65L39 65L39 66L41 66L41 67L42 67L42 68L44 68L44 65L46 65L46 66L47 66L47 65L49 65L49 66L48 66L48 67L49 67L49 68L47 68L47 67L46 67L46 69L51 69L51 68L50 68L50 67L51 67L51 66L50 66L50 65L49 65L49 64L53 64L53 65L52 65L52 67L53 67L53 65L54 65L54 67L55 67L55 68L57 68L57 69L58 69L58 68L59 68L59 69L61 69L61 68L62 68L62 69L63 69L63 67L61 67L61 65L63 65L63 66L64 66L64 67L65 67L65 68L69 68L69 66L67 66L67 67L66 67L66 64L69 64L69 63L67 63L67 62L68 62L68 60L69 60L69 56L68 56L68 55L69 55L69 51L67 51L67 49L66 49L66 48L68 48L68 47L69 47L69 45L67 45L67 43L66 43L66 41L68 41L68 43L69 43L69 41L68 41L68 40L69 40L69 39L67 39L67 38L69 38L69 34L67 34L67 33L66 33L66 32L68 32L68 31L69 31L69 30L68 30L68 28L69 28L69 27L65 27L65 26L64 26L64 28L65 28L65 29L63 29L63 30L62 30L62 28L63 28L63 27L62 27L62 26L63 26L63 24L62 24L62 23L64 23L64 25L66 25L66 24L69 24L69 21L67 21L67 19L65 19L65 18L64 18L64 19L65 19L65 20L64 20L64 21L63 21L63 19L62 19L62 17L63 17L63 16L61 16L61 15L60 15L60 16L59 16L59 14L61 14L61 13L62 13L62 14L63 14L63 15L64 15L64 16L65 16L65 17L66 17L66 18L68 18L68 20L69 20L69 16L68 16L68 17L67 17L67 14L65 14L65 13L67 13L67 12L68 12L68 11L69 11L69 10L68 10L68 9L69 9L69 8L68 8L68 9L64 9L64 10L63 10L63 8L62 8L62 9L61 9L61 8L60 8L60 7L61 7L61 6L60 6L60 7L59 7L59 4L58 4L58 3L59 3L59 2L58 2L58 1L61 1L61 0L57 0L57 1L56 1L56 0L54 0L54 1L55 1L55 2L52 2L52 1L51 1L51 0L50 0L50 4L49 4L49 0L46 0L46 1L44 1L44 0L42 0L42 2L43 2L43 3L42 3L42 5L39 5L39 4L41 4L41 0L40 0L40 3L38 3L38 2L37 2L37 1L36 1L36 0L32 0L32 1L31 1L31 0L29 0L29 1L28 1L28 2L30 2L30 3L28 3L28 4L30 4L30 5L32 5L32 7L31 7L31 6L30 6L30 7L31 7L31 9L30 9L30 8L28 8L28 7L29 7L29 5L28 5L28 7L27 7L27 6L26 6L26 4L27 4L27 0L24 0L24 2L25 2L25 3L26 3L26 4L24 4L24 7L25 7L25 6L26 6L26 8L28 8L28 9L25 9L25 8L24 8L24 9L23 9L23 8L22 8L22 7L23 7L23 2L22 2L22 1L23 1L23 0L22 0L22 1L21 1L21 0L18 0L18 2L19 2L19 3L17 3L17 1L16 1L16 2L15 2L15 3L13 3L13 1L12 1L12 0L10 0L10 1L9 1L9 0ZM14 0L14 1L15 1L15 0ZM38 0L38 1L39 1L39 0ZM10 1L10 2L12 2L12 1ZM19 1L19 2L20 2L20 4L19 4L19 5L20 5L20 6L19 6L19 7L18 7L18 6L17 6L17 5L16 5L16 6L15 6L15 7L14 7L14 4L13 4L13 3L11 3L11 4L10 4L10 6L9 6L9 7L10 7L10 8L11 8L11 7L12 7L12 8L14 8L14 9L15 9L15 8L16 8L16 10L17 10L17 9L18 9L18 10L19 10L19 11L17 11L17 13L16 13L16 15L14 15L14 16L16 16L16 19L15 19L15 20L17 20L17 17L20 17L20 16L19 16L19 15L21 15L21 18L20 18L20 19L19 19L19 18L18 18L18 19L19 19L19 20L20 20L20 21L21 21L21 22L19 22L19 21L18 21L18 22L19 22L19 23L18 23L18 24L17 24L17 23L16 23L16 22L14 22L14 25L15 25L15 24L17 24L17 25L18 25L18 24L19 24L19 26L18 26L18 27L17 27L17 26L16 26L16 28L15 28L15 29L18 29L18 30L19 30L19 29L18 29L18 28L19 28L19 26L20 26L20 27L21 27L21 26L24 26L24 24L23 24L23 23L22 23L22 20L23 20L23 19L21 19L21 18L22 18L22 17L23 17L23 18L24 18L24 17L26 17L26 18L27 18L27 20L25 20L25 21L26 21L26 22L24 22L24 23L26 23L26 24L30 24L30 23L27 23L27 20L29 20L29 21L30 21L30 22L31 22L31 23L32 23L32 25L31 25L31 26L29 26L29 25L28 25L28 26L27 26L27 25L25 25L25 28L26 28L26 27L28 27L28 26L29 26L29 28L27 28L27 29L25 29L25 30L24 30L24 29L23 29L23 28L24 28L24 27L22 27L22 30L21 30L21 29L20 29L20 31L19 31L19 34L18 34L18 35L19 35L19 38L20 38L20 37L21 37L21 38L22 38L22 36L21 36L21 35L22 35L22 34L21 34L21 35L19 35L19 34L20 34L20 33L22 33L22 30L24 30L24 33L23 33L23 37L25 37L25 38L26 38L26 39L25 39L25 40L26 40L26 39L28 39L28 40L27 40L27 41L26 41L26 42L25 42L25 41L23 41L23 40L22 40L22 41L23 41L23 42L24 42L24 44L23 44L23 43L22 43L22 44L21 44L21 46L23 46L23 45L24 45L24 44L25 44L25 45L28 45L28 44L29 44L29 42L27 42L27 41L31 41L31 42L32 42L32 43L31 43L31 44L33 44L33 46L32 46L32 45L30 45L30 46L28 46L28 47L31 47L31 48L32 48L32 49L30 49L30 48L29 48L29 49L28 49L28 48L27 48L27 47L26 47L26 46L24 46L24 48L25 48L25 47L26 47L26 48L27 48L27 52L28 52L28 50L29 50L29 53L30 53L30 54L32 54L32 55L31 55L31 56L33 56L33 57L31 57L31 58L30 58L30 60L32 60L32 59L33 59L33 60L36 60L36 59L37 59L37 63L39 63L39 65L41 65L41 66L42 66L42 67L43 67L43 66L42 66L42 64L45 64L45 63L44 63L44 62L45 62L45 61L44 61L44 57L47 57L47 58L46 58L46 59L45 59L45 60L46 60L46 63L48 63L48 64L49 64L49 62L50 62L50 63L55 63L55 64L56 64L56 63L60 63L60 61L58 61L58 60L59 60L59 58L57 58L57 59L56 59L56 58L54 58L54 57L53 57L53 58L52 58L52 56L53 56L53 55L55 55L55 57L60 57L60 56L61 56L61 55L62 55L62 54L63 54L63 56L64 56L64 54L63 54L63 53L61 53L61 55L59 55L59 54L60 54L60 53L59 53L59 52L61 52L61 51L62 51L62 52L64 52L64 53L65 53L65 55L68 55L68 52L66 52L66 53L65 53L65 52L64 52L64 50L65 50L65 51L66 51L66 49L65 49L65 48L66 48L66 47L62 47L62 48L63 48L63 50L62 50L62 49L61 49L61 48L60 48L60 47L61 47L61 45L62 45L62 46L63 46L63 45L64 45L64 44L65 44L65 43L64 43L64 42L63 42L63 43L62 43L62 42L61 42L61 41L59 41L59 42L60 42L60 43L58 43L58 44L53 44L53 43L54 43L54 41L55 41L55 43L56 43L56 42L57 42L57 41L56 41L56 40L57 40L57 39L56 39L56 40L54 40L54 39L52 39L52 38L50 38L50 36L51 36L51 37L52 37L52 36L51 36L51 35L52 35L52 34L53 34L53 37L56 37L56 36L57 36L57 37L58 37L58 39L59 39L59 40L61 40L61 39L62 39L62 40L63 40L63 41L64 41L64 40L65 40L65 41L66 41L66 40L65 40L65 39L64 39L64 38L65 38L65 37L68 37L68 35L67 35L67 34L65 34L65 37L63 37L63 38L62 38L62 37L60 37L60 38L59 38L59 37L58 37L58 36L57 36L57 35L60 35L60 33L59 33L59 32L60 32L60 31L61 31L61 32L63 32L63 31L62 31L62 30L60 30L60 28L59 28L59 27L60 27L60 26L59 26L59 25L60 25L60 24L61 24L61 23L60 23L60 22L59 22L59 24L58 24L58 26L59 26L59 27L58 27L58 28L57 28L57 29L55 29L55 28L54 28L54 29L53 29L53 28L50 28L50 26L49 26L49 27L47 27L47 28L46 28L46 27L45 27L45 29L43 29L43 30L42 30L42 31L43 31L43 30L44 30L44 32L41 32L41 33L40 33L40 31L38 31L38 30L39 30L39 28L38 28L38 30L37 30L37 32L39 32L39 33L40 33L40 34L39 34L39 35L37 35L37 37L32 37L32 34L31 34L31 33L28 33L28 34L31 34L31 35L30 35L30 36L29 36L29 35L28 35L28 36L27 36L27 35L25 35L25 34L26 34L26 32L27 32L27 29L30 29L30 27L31 27L31 26L32 26L32 28L31 28L31 29L33 29L33 27L36 27L36 26L35 26L35 25L37 25L37 27L38 27L38 25L37 25L37 24L36 24L36 22L37 22L37 23L38 23L38 24L39 24L39 25L40 25L40 27L41 27L41 28L40 28L40 29L41 29L41 28L42 28L42 27L41 27L41 25L40 25L40 24L42 24L42 22L40 22L40 20L41 20L41 19L42 19L42 17L41 17L41 16L46 16L46 15L48 15L48 16L50 16L50 14L47 14L47 13L48 13L48 12L49 12L49 13L50 13L50 11L51 11L51 13L52 13L52 14L51 14L51 15L52 15L52 14L53 14L53 13L52 13L52 12L54 12L54 13L55 13L55 14L54 14L54 15L53 15L53 16L51 16L51 17L50 17L50 18L49 18L49 17L48 17L48 18L49 18L49 19L48 19L48 20L47 20L47 18L46 18L46 20L43 20L43 21L48 21L48 22L46 22L46 23L45 23L45 22L43 22L43 25L44 25L44 24L45 24L45 25L46 25L46 26L47 26L47 24L49 24L49 23L50 23L50 24L51 24L51 27L53 27L53 26L54 26L54 27L55 27L55 26L54 26L54 24L55 24L55 23L54 23L54 22L52 22L52 23L51 23L51 22L49 22L49 21L50 21L50 20L51 20L51 19L50 19L50 18L52 18L52 19L53 19L53 18L54 18L54 20L55 20L55 21L57 21L57 22L56 22L56 23L58 23L58 21L62 21L62 19L61 19L61 18L60 18L60 17L61 17L61 16L60 16L60 17L59 17L59 19L56 19L56 20L55 20L55 18L54 18L54 17L55 17L55 15L57 15L57 17L56 17L56 18L57 18L57 17L58 17L58 15L57 15L57 14L56 14L56 13L55 13L55 12L54 12L54 11L53 11L53 9L52 9L52 6L51 6L51 7L50 7L50 5L48 5L48 4L46 4L46 2L47 2L47 3L48 3L48 1L46 1L46 2L45 2L45 8L43 8L43 7L44 7L44 5L42 5L42 6L41 6L41 7L40 7L40 6L39 6L39 5L38 5L38 4L37 4L37 5L38 5L38 6L37 6L37 7L38 7L38 6L39 6L39 9L40 9L40 8L41 8L41 9L44 9L44 10L38 10L38 11L37 11L37 10L36 10L36 9L35 9L35 11L36 11L36 12L34 12L34 10L33 10L33 9L31 9L31 10L33 10L33 11L30 11L30 9L29 9L29 11L30 11L30 12L29 12L29 13L28 13L28 12L27 12L27 11L26 11L26 10L25 10L25 9L24 9L24 11L23 11L23 12L25 12L25 11L26 11L26 12L27 12L27 13L25 13L25 14L26 14L26 15L27 15L27 17L26 17L26 16L23 16L23 15L24 15L24 14L22 14L22 15L21 15L21 14L18 14L18 12L19 12L19 13L22 13L22 12L21 12L21 11L22 11L22 10L21 10L21 11L20 11L20 10L19 10L19 9L18 9L18 8L20 8L20 6L21 6L21 7L22 7L22 2L20 2L20 1ZM32 1L32 2L31 2L31 3L32 3L32 2L33 2L33 3L34 3L34 1ZM51 2L51 3L52 3L52 2ZM56 2L56 3L57 3L57 2ZM15 3L15 4L16 4L16 3ZM60 3L60 5L61 5L61 3ZM12 4L12 7L13 7L13 4ZM20 4L20 5L21 5L21 4ZM51 4L51 5L54 5L54 4ZM55 4L55 7L56 7L56 8L55 8L55 9L58 9L58 8L59 8L59 9L60 9L60 8L59 8L59 7L58 7L58 6L57 6L57 7L56 7L56 5L58 5L58 4ZM33 5L33 8L36 8L36 5ZM46 5L46 7L47 7L47 8L45 8L45 10L44 10L44 11L43 11L43 12L44 12L44 14L45 14L45 15L46 15L46 13L47 13L47 12L48 12L48 10L51 10L51 11L52 11L52 9L51 9L51 8L50 8L50 7L49 7L49 6L48 6L48 5ZM10 6L10 7L11 7L11 6ZM16 6L16 7L17 7L17 6ZM34 6L34 7L35 7L35 6ZM42 6L42 7L43 7L43 6ZM47 6L47 7L48 7L48 6ZM53 6L53 8L54 8L54 6ZM6 8L6 9L7 9L7 8ZM37 8L37 9L38 9L38 8ZM49 8L49 9L50 9L50 8ZM45 10L45 11L47 11L47 10ZM57 10L57 13L58 13L58 14L59 14L59 12L60 12L60 13L61 13L61 12L60 12L60 11L63 11L63 10L60 10L60 11L59 11L59 10ZM65 10L65 11L64 11L64 12L62 12L62 13L63 13L63 14L64 14L64 12L66 12L66 11L68 11L68 10ZM6 11L6 12L5 12L5 13L4 13L4 12L2 12L2 13L4 13L4 14L1 14L1 15L2 15L2 17L6 17L6 18L1 18L1 19L2 19L2 21L3 21L3 22L2 22L2 24L1 24L1 26L3 26L3 27L4 27L4 25L5 25L5 24L7 24L7 23L6 23L6 22L7 22L7 21L6 21L6 20L7 20L7 19L8 19L8 20L10 20L10 19L9 19L9 18L7 18L7 17L6 17L6 16L7 16L7 15L8 15L8 14L7 14L7 13L6 13L6 12L7 12L7 11ZM13 11L13 12L12 12L12 13L14 13L14 14L15 14L15 12L16 12L16 11L15 11L15 12L14 12L14 11ZM19 11L19 12L20 12L20 11ZM40 11L40 12L41 12L41 13L40 13L40 14L41 14L41 15L40 15L40 16L41 16L41 15L42 15L42 14L43 14L43 13L42 13L42 12L41 12L41 11ZM30 12L30 14L28 14L28 13L27 13L27 15L29 15L29 16L30 16L30 17L28 17L28 19L29 19L29 20L30 20L30 21L31 21L31 22L33 22L33 25L34 25L34 24L35 24L35 22L33 22L33 20L34 20L34 21L37 21L37 22L38 22L38 23L39 23L39 22L38 22L38 21L39 21L39 20L40 20L40 18L41 18L41 17L39 17L39 16L37 16L37 15L38 15L38 14L39 14L39 13L38 13L38 12L37 12L37 13L38 13L38 14L34 14L34 16L35 16L35 15L36 15L36 17L37 17L37 18L34 18L34 17L31 17L31 16L33 16L33 15L31 15L31 14L33 14L33 12L32 12L32 13L31 13L31 12ZM5 13L5 14L4 14L4 16L5 16L5 15L7 15L7 14L6 14L6 13ZM41 13L41 14L42 14L42 13ZM68 13L68 14L69 14L69 13ZM17 14L17 15L16 15L16 16L17 16L17 15L18 15L18 14ZM30 15L30 16L31 16L31 15ZM13 17L13 18L15 18L15 17ZM38 17L38 18L39 18L39 17ZM43 17L43 18L44 18L44 19L45 19L45 17ZM52 17L52 18L53 18L53 17ZM6 18L6 19L7 19L7 18ZM29 18L29 19L30 19L30 18ZM3 19L3 21L4 21L4 22L6 22L6 21L4 21L4 19ZM31 19L31 21L32 21L32 19ZM34 19L34 20L35 20L35 19ZM37 19L37 20L39 20L39 19ZM60 19L60 20L61 20L61 19ZM48 20L48 21L49 21L49 20ZM65 20L65 24L66 24L66 20ZM48 22L48 23L49 23L49 22ZM4 23L4 24L5 24L5 23ZM20 23L20 26L21 26L21 23ZM46 23L46 24L47 24L47 23ZM52 24L52 26L53 26L53 24ZM6 25L6 26L9 26L9 25ZM11 25L11 28L12 28L12 25ZM61 25L61 26L62 26L62 25ZM67 25L67 26L69 26L69 25ZM43 26L43 28L44 28L44 26ZM56 26L56 27L57 27L57 26ZM6 27L6 28L7 28L7 27ZM34 28L34 31L36 31L36 29L35 29L35 28ZM48 28L48 29L49 29L49 30L48 30L48 31L49 31L49 30L50 30L50 33L49 33L49 32L47 32L47 31L45 31L45 34L47 34L47 35L44 35L44 37L45 37L45 38L44 38L44 40L42 40L42 43L41 43L41 45L42 45L42 46L43 46L43 48L41 48L41 46L40 46L40 49L39 49L39 48L38 48L38 46L39 46L39 42L40 42L40 41L39 41L39 40L38 40L38 41L37 41L37 38L39 38L39 36L38 36L38 37L37 37L37 38L32 38L32 37L31 37L31 36L30 36L30 37L29 37L29 36L28 36L28 37L27 37L27 36L26 36L26 37L27 37L27 38L28 38L28 39L30 39L30 38L31 38L31 39L35 39L35 41L33 41L33 40L32 40L32 42L33 42L33 43L34 43L34 47L33 47L33 48L34 48L34 50L33 50L33 49L32 49L32 50L31 50L31 51L32 51L32 52L30 52L30 53L32 53L32 54L33 54L33 56L34 56L34 57L33 57L33 58L34 58L34 59L35 59L35 57L36 57L36 58L39 58L39 59L38 59L38 62L39 62L39 61L41 61L41 62L40 62L40 63L41 63L41 62L42 62L42 63L43 63L43 61L41 61L41 60L43 60L43 57L42 57L42 56L44 56L44 54L45 54L45 55L48 55L48 54L50 54L50 55L49 55L49 56L47 56L47 57L48 57L48 59L47 59L47 60L48 60L48 61L47 61L47 62L49 62L49 61L50 61L50 62L51 62L51 61L50 61L50 60L52 60L52 61L53 61L53 62L55 62L55 63L56 63L56 62L57 62L57 60L58 60L58 59L57 59L57 60L56 60L56 62L55 62L55 61L53 61L53 60L52 60L52 59L51 59L51 56L52 56L52 55L51 55L51 54L50 54L50 52L51 52L51 51L52 51L52 52L53 52L53 51L52 51L52 50L58 50L58 49L60 49L60 48L59 48L59 47L60 47L60 45L61 45L61 44L62 44L62 45L63 45L63 44L64 44L64 43L63 43L63 44L62 44L62 43L61 43L61 44L60 44L60 45L53 45L53 44L52 44L52 42L50 42L50 41L49 41L49 40L51 40L51 39L50 39L50 38L49 38L49 39L48 39L48 41L45 41L45 39L46 39L46 36L48 36L48 37L49 37L49 35L48 35L48 34L50 34L50 35L51 35L51 31L52 31L52 33L53 33L53 34L55 34L55 33L56 33L56 32L55 32L55 33L54 33L54 32L53 32L53 31L52 31L52 30L50 30L50 29L49 29L49 28ZM58 28L58 29L57 29L57 30L56 30L56 31L57 31L57 34L59 34L59 33L58 33L58 32L59 32L59 31L60 31L60 30L59 30L59 28ZM66 28L66 31L68 31L68 30L67 30L67 28ZM6 29L6 30L7 30L7 31L5 31L5 30L4 30L4 31L5 31L5 32L9 32L9 31L8 31L8 30L7 30L7 29ZM45 29L45 30L47 30L47 29ZM54 29L54 31L55 31L55 29ZM16 30L16 31L17 31L17 30ZM28 30L28 32L29 32L29 31L31 31L31 32L32 32L32 31L31 31L31 30ZM57 30L57 31L58 31L58 30ZM20 31L20 32L21 32L21 31ZM25 31L25 32L26 32L26 31ZM17 32L17 33L18 33L18 32ZM46 32L46 33L47 33L47 32ZM5 33L5 36L8 36L8 33ZM11 33L11 34L12 34L12 33ZM24 33L24 34L25 34L25 33ZM33 33L33 36L36 36L36 33ZM41 33L41 34L40 34L40 35L42 35L42 36L40 36L40 37L41 37L41 38L40 38L40 39L41 39L41 38L43 38L43 35L42 35L42 34L43 34L43 33ZM61 33L61 36L64 36L64 33ZM6 34L6 35L7 35L7 34ZM34 34L34 35L35 35L35 34ZM62 34L62 35L63 35L63 34ZM9 35L9 36L10 36L10 35ZM24 35L24 36L25 36L25 35ZM54 35L54 36L55 36L55 35ZM66 35L66 36L67 36L67 35ZM3 36L3 37L2 37L2 38L3 38L3 37L4 37L4 40L5 40L5 39L6 39L6 40L7 40L7 41L6 41L6 42L5 42L5 41L4 41L4 42L3 42L3 43L5 43L5 44L7 44L7 45L6 45L6 46L7 46L7 45L8 45L8 46L9 46L9 45L10 45L10 44L11 44L11 42L12 42L12 43L13 43L13 44L12 44L12 45L11 45L11 47L12 47L12 49L11 49L11 48L9 48L9 47L8 47L8 48L7 48L7 47L6 47L6 48L5 48L5 49L6 49L6 50L7 50L7 49L8 49L8 48L9 48L9 50L8 50L8 51L9 51L9 54L7 54L7 55L6 55L6 56L7 56L7 55L8 55L8 56L10 56L10 57L11 57L11 56L12 56L12 57L15 57L15 56L16 56L16 55L17 55L17 56L18 56L18 55L20 55L20 56L19 56L19 57L21 57L21 58L19 58L19 59L21 59L21 60L20 60L20 61L18 61L18 62L17 62L17 61L16 61L16 63L15 63L15 62L14 62L14 63L15 63L15 64L14 64L14 65L15 65L15 64L16 64L16 63L18 63L18 62L20 62L20 61L21 61L21 62L22 62L22 60L23 60L23 59L24 59L24 57L23 57L23 56L25 56L25 58L26 58L26 57L28 57L28 56L27 56L27 55L26 55L26 56L25 56L25 54L27 54L27 53L25 53L25 54L24 54L24 53L23 53L23 51L25 51L25 52L26 52L26 51L25 51L25 50L26 50L26 49L25 49L25 50L22 50L22 51L20 51L20 52L19 52L19 50L21 50L21 49L22 49L22 48L23 48L23 47L20 47L20 46L17 46L17 47L16 47L16 50L17 50L17 51L16 51L16 52L15 52L15 51L14 51L14 49L15 49L15 44L16 44L16 45L17 45L17 44L19 44L19 45L20 45L20 43L19 43L19 41L20 41L20 42L21 42L21 39L20 39L20 40L19 40L19 41L18 41L18 40L16 40L16 38L17 38L17 37L16 37L16 38L14 38L14 41L13 41L13 42L12 42L12 41L11 41L11 42L10 42L10 41L9 41L9 42L8 42L8 43L9 43L9 42L10 42L10 44L9 44L9 45L8 45L8 44L7 44L7 43L6 43L6 42L7 42L7 41L8 41L8 40L9 40L9 39L10 39L10 38L11 38L11 37L10 37L10 38L9 38L9 37L8 37L8 38L7 38L7 37L4 37L4 36ZM28 37L28 38L29 38L29 37ZM6 38L6 39L7 39L7 40L8 40L8 39L7 39L7 38ZM60 38L60 39L61 39L61 38ZM53 40L53 41L54 41L54 40ZM14 41L14 42L13 42L13 43L14 43L14 42L15 42L15 41ZM16 41L16 43L18 43L18 42L17 42L17 41ZM38 41L38 42L36 42L36 43L37 43L37 44L38 44L38 42L39 42L39 41ZM44 41L44 43L45 43L45 44L43 44L43 46L44 46L44 45L45 45L45 44L46 44L46 45L47 45L47 44L46 44L46 43L48 43L48 44L49 44L49 43L50 43L50 44L51 44L51 46L48 46L48 47L47 47L47 46L45 46L45 47L44 47L44 48L43 48L43 49L44 49L44 50L43 50L43 52L40 52L40 51L42 51L42 50L41 50L41 49L40 49L40 51L39 51L39 50L38 50L38 49L37 49L37 47L35 47L35 48L36 48L36 50L38 50L38 52L34 52L34 53L35 53L35 54L34 54L34 56L36 56L36 57L37 57L37 56L38 56L38 57L39 57L39 58L41 58L41 57L40 57L40 54L39 54L39 56L38 56L38 55L37 55L37 54L36 54L36 53L41 53L41 55L43 55L43 54L44 54L44 53L43 53L43 52L45 52L45 51L46 51L46 52L47 52L47 54L48 54L48 52L47 52L47 51L48 51L48 50L47 50L47 49L48 49L48 47L49 47L49 48L50 48L50 49L49 49L49 50L50 50L50 51L51 51L51 50L52 50L52 48L54 48L54 49L56 49L56 48L57 48L57 49L58 49L58 48L57 48L57 46L56 46L56 48L54 48L54 47L53 47L53 46L52 46L52 44L51 44L51 43L50 43L50 42L45 42L45 41ZM0 42L0 44L1 44L1 42ZM34 42L34 43L35 43L35 42ZM27 43L27 44L28 44L28 43ZM22 44L22 45L23 45L23 44ZM35 44L35 46L37 46L37 45L36 45L36 44ZM12 45L12 47L13 47L13 49L14 49L14 47L13 47L13 46L14 46L14 45ZM65 45L65 46L66 46L66 45ZM58 46L58 47L59 47L59 46ZM17 47L17 48L18 48L18 47ZM19 47L19 49L18 49L18 50L19 50L19 49L21 49L21 48L20 48L20 47ZM46 47L46 48L44 48L44 49L45 49L45 50L44 50L44 51L45 51L45 50L46 50L46 51L47 51L47 50L46 50L46 49L47 49L47 47ZM50 47L50 48L51 48L51 47ZM6 48L6 49L7 49L7 48ZM50 49L50 50L51 50L51 49ZM3 50L3 51L4 51L4 52L3 52L3 53L4 53L4 52L5 52L5 51L4 51L4 50ZM9 50L9 51L10 51L10 54L9 54L9 55L10 55L10 56L11 56L11 55L12 55L12 54L11 54L11 53L12 53L12 52L13 52L13 53L14 53L14 54L13 54L13 56L15 56L15 55L16 55L16 54L17 54L17 55L18 55L18 54L17 54L17 53L19 53L19 54L20 54L20 55L21 55L21 54L20 54L20 53L21 53L21 52L20 52L20 53L19 53L19 52L16 52L16 54L15 54L15 53L14 53L14 52L13 52L13 50L11 50L11 51L10 51L10 50ZM59 50L59 51L58 51L58 52L59 52L59 51L61 51L61 50ZM6 51L6 52L7 52L7 53L8 53L8 52L7 52L7 51ZM11 51L11 52L12 52L12 51ZM54 51L54 54L55 54L55 53L56 53L56 56L57 56L57 55L58 55L58 54L59 54L59 53L57 53L57 51ZM32 52L32 53L33 53L33 52ZM42 53L42 54L43 54L43 53ZM66 53L66 54L67 54L67 53ZM10 54L10 55L11 55L11 54ZM14 54L14 55L15 55L15 54ZM23 54L23 55L22 55L22 56L23 56L23 55L24 55L24 54ZM28 54L28 55L29 55L29 54ZM36 55L36 56L37 56L37 55ZM29 56L29 57L30 57L30 56ZM65 56L65 58L66 58L66 59L61 59L61 58L63 58L63 57L61 57L61 58L60 58L60 60L66 60L66 61L67 61L67 60L68 60L68 59L67 59L67 56ZM6 57L6 58L7 58L7 59L8 59L8 57ZM16 57L16 58L18 58L18 57ZM22 57L22 58L21 58L21 59L22 59L22 58L23 58L23 57ZM9 58L9 60L8 60L8 61L9 61L9 60L11 60L11 61L12 61L12 62L10 62L10 63L13 63L13 61L15 61L15 58L14 58L14 60L12 60L12 59L13 59L13 58L11 58L11 59L10 59L10 58ZM27 58L27 59L28 59L28 60L27 60L27 61L28 61L28 60L29 60L29 58ZM49 58L49 59L48 59L48 60L50 60L50 58ZM16 59L16 60L18 60L18 59ZM39 59L39 60L40 60L40 59ZM54 59L54 60L55 60L55 59ZM66 59L66 60L67 60L67 59ZM3 60L3 61L5 61L5 60ZM24 60L24 61L26 61L26 60ZM33 61L33 64L36 64L36 61ZM61 61L61 64L64 64L64 61ZM34 62L34 63L35 63L35 62ZM62 62L62 63L63 63L63 62ZM65 62L65 63L66 63L66 62ZM19 63L19 64L21 64L21 65L19 65L19 67L20 67L20 66L22 66L22 67L23 67L23 66L24 66L24 64L23 64L23 63L22 63L22 64L21 64L21 63ZM29 63L29 64L28 64L28 67L35 67L35 66L32 66L32 65L30 65L30 63ZM10 64L10 65L12 65L12 66L13 66L13 65L12 65L12 64ZM46 64L46 65L47 65L47 64ZM58 64L58 65L57 65L57 67L60 67L60 68L61 68L61 67L60 67L60 66L58 66L58 65L60 65L60 64ZM17 65L17 66L18 66L18 65ZM22 65L22 66L23 66L23 65ZM29 65L29 66L30 66L30 65ZM55 65L55 66L56 66L56 65ZM64 65L64 66L65 66L65 65ZM15 66L15 67L16 67L16 66ZM49 66L49 67L50 67L50 66ZM17 67L17 68L18 68L18 67ZM52 68L52 69L53 69L53 68ZM0 0L0 7L7 7L7 0ZM1 1L1 6L6 6L6 1ZM2 2L2 5L5 5L5 2ZM62 0L62 7L69 7L69 0ZM63 1L63 6L68 6L68 1ZM64 2L64 5L67 5L67 2ZM0 62L0 69L7 69L7 62ZM1 63L1 68L6 68L6 63ZM2 64L2 67L5 67L5 64Z" fill="#000000"/></g></g></svg>
