<?xml version="1.0" encoding="UTF-8"?>
<svg xmlns="http://www.w3.org/2000/svg" version="1.1" width="300" height="300" viewBox="0 0 300 300"><rect x="0" y="0" width="300" height="300" fill="#ffffff"/><g transform="scale(4.615)"><g transform="translate(0,0)"><path fill-rule="evenodd" d="M8 0L8 2L9 2L9 3L10 3L10 4L11 4L11 2L10 2L10 1L11 1L11 0ZM14 0L14 1L12 1L12 2L14 2L14 3L12 3L12 5L13 5L13 4L16 4L16 5L15 5L15 6L14 6L14 7L13 7L13 6L12 6L12 7L11 7L11 6L10 6L10 7L9 7L9 4L8 4L8 9L7 9L7 8L5 8L5 10L4 10L4 9L3 9L3 8L0 8L0 9L1 9L1 10L0 10L0 11L1 11L1 14L0 14L0 15L1 15L1 16L0 16L0 17L2 17L2 19L3 19L3 18L4 18L4 17L2 17L2 16L3 16L3 15L1 15L1 14L3 14L3 13L5 13L5 11L8 11L8 12L6 12L6 13L7 13L7 14L4 14L4 16L5 16L5 17L7 17L7 18L5 18L5 19L4 19L4 20L1 20L1 21L3 21L3 22L4 22L4 23L3 23L3 24L4 24L4 23L5 23L5 22L4 22L4 20L5 20L5 19L7 19L7 18L9 18L9 20L11 20L11 21L12 21L12 20L11 20L11 19L13 19L13 18L14 18L14 20L13 20L13 21L14 21L14 20L15 20L15 23L14 23L14 22L13 22L13 23L12 23L12 22L9 22L9 21L8 21L8 20L6 20L6 21L7 21L7 22L6 22L6 23L7 23L7 24L6 24L6 25L2 25L2 23L1 23L1 24L0 24L0 25L1 25L1 26L3 26L3 28L2 28L2 27L1 27L1 28L0 28L0 35L1 35L1 34L3 34L3 35L2 35L2 36L0 36L0 37L2 37L2 36L3 36L3 35L4 35L4 37L3 37L3 38L2 38L2 39L1 39L1 40L0 40L0 41L1 41L1 40L2 40L2 41L3 41L3 40L2 40L2 39L3 39L3 38L5 38L5 39L8 39L8 40L6 40L6 41L5 41L5 42L3 42L3 43L2 43L2 42L1 42L1 43L2 43L2 44L3 44L3 45L1 45L1 46L3 46L3 47L0 47L0 48L3 48L3 47L4 47L4 48L5 48L5 49L3 49L3 50L1 50L1 49L0 49L0 54L2 54L2 55L3 55L3 56L1 56L1 55L0 55L0 56L1 56L1 57L3 57L3 56L4 56L4 57L5 57L5 56L4 56L4 53L5 53L5 55L7 55L7 54L6 54L6 53L7 53L7 52L6 52L6 51L8 51L8 50L9 50L9 51L11 51L11 50L12 50L12 51L16 51L16 53L15 53L15 52L13 52L13 53L15 53L15 54L14 54L14 55L13 55L13 54L12 54L12 53L11 53L11 52L10 52L10 53L9 53L9 56L8 56L8 58L9 58L9 56L10 56L10 59L8 59L8 60L9 60L9 61L11 61L11 60L10 60L10 59L12 59L12 60L13 60L13 61L15 61L15 60L14 60L14 58L15 58L15 59L16 59L16 61L17 61L17 58L18 58L18 59L20 59L20 61L21 61L21 62L20 62L20 63L21 63L21 65L23 65L23 64L22 64L22 62L23 62L23 58L24 58L24 61L25 61L25 59L26 59L26 62L24 62L24 63L25 63L25 65L28 65L28 63L29 63L29 62L30 62L30 65L31 65L31 62L30 62L30 61L34 61L34 63L33 63L33 62L32 62L32 65L34 65L34 63L35 63L35 64L36 64L36 65L37 65L37 63L36 63L36 62L35 62L35 60L36 60L36 61L37 61L37 62L38 62L38 65L39 65L39 64L40 64L40 65L41 65L41 64L42 64L42 63L43 63L43 62L44 62L44 61L45 61L45 62L46 62L46 63L44 63L44 65L47 65L47 64L48 64L48 65L49 65L49 64L50 64L50 65L51 65L51 63L49 63L49 62L46 62L46 60L44 60L44 59L45 59L45 57L46 57L46 56L44 56L44 58L42 58L42 57L43 57L43 56L42 56L42 55L43 55L43 54L42 54L42 53L43 53L43 52L40 52L40 57L39 57L39 58L38 58L38 57L37 57L37 56L36 56L36 59L35 59L35 56L33 56L33 55L32 55L32 52L33 52L33 50L32 50L32 48L33 48L33 49L34 49L34 51L35 51L35 50L36 50L36 51L38 51L38 49L39 49L39 51L40 51L40 49L41 49L41 51L43 51L43 50L44 50L44 51L45 51L45 50L46 50L46 51L48 51L48 53L50 53L50 49L51 49L51 46L50 46L50 45L51 45L51 44L50 44L50 39L54 39L54 41L53 41L53 40L52 40L52 41L53 41L53 42L52 42L52 50L51 50L51 51L53 51L53 50L54 50L54 51L55 51L55 50L56 50L56 52L55 52L55 53L56 53L56 54L58 54L58 56L57 56L57 55L55 55L55 54L54 54L54 52L52 52L52 53L53 53L53 55L52 55L52 57L53 57L53 59L54 59L54 57L56 57L56 59L55 59L55 62L56 62L56 63L55 63L55 64L54 64L54 60L52 60L52 59L50 59L50 61L51 61L51 62L52 62L52 63L53 63L53 64L52 64L52 65L59 65L59 64L58 64L58 63L59 63L59 61L60 61L60 63L61 63L61 64L60 64L60 65L62 65L62 62L63 62L63 63L65 63L65 62L63 62L63 61L65 61L65 60L62 60L62 59L65 59L65 57L63 57L63 56L64 56L64 55L65 55L65 54L64 54L64 55L63 55L63 54L62 54L62 51L63 51L63 53L64 53L64 51L65 51L65 48L64 48L64 47L65 47L65 46L64 46L64 45L65 45L65 44L64 44L64 43L65 43L65 34L64 34L64 35L63 35L63 36L64 36L64 37L63 37L63 39L64 39L64 43L63 43L63 46L64 46L64 47L63 47L63 48L62 48L62 47L61 47L61 46L62 46L62 45L61 45L61 44L62 44L62 42L60 42L60 41L63 41L63 40L62 40L62 38L60 38L60 37L61 37L61 36L62 36L62 34L63 34L63 33L62 33L62 34L61 34L61 32L62 32L62 31L63 31L63 28L62 28L62 26L61 26L61 24L62 24L62 25L63 25L63 24L62 24L62 21L63 21L63 22L64 22L64 25L65 25L65 22L64 22L64 21L63 21L63 20L62 20L62 19L63 19L63 18L64 18L64 20L65 20L65 18L64 18L64 17L65 17L65 16L64 16L64 15L65 15L65 13L63 13L63 14L64 14L64 15L63 15L63 16L62 16L62 15L61 15L61 14L62 14L62 13L61 13L61 11L60 11L60 9L61 9L61 8L55 8L55 5L53 5L53 6L52 6L52 3L53 3L53 4L56 4L56 5L57 5L57 4L56 4L56 3L57 3L57 1L56 1L56 0L55 0L55 1L56 1L56 3L55 3L55 2L54 2L54 1L53 1L53 2L52 2L52 1L51 1L51 0L50 0L50 1L51 1L51 2L49 2L49 3L50 3L50 5L49 5L49 6L48 6L48 7L47 7L47 4L48 4L48 1L47 1L47 0L46 0L46 1L47 1L47 2L45 2L45 0L44 0L44 1L43 1L43 0L42 0L42 1L41 1L41 0L38 0L38 2L39 2L39 3L38 3L38 5L35 5L35 4L36 4L36 1L35 1L35 0L34 0L34 1L35 1L35 3L34 3L34 2L33 2L33 0L32 0L32 2L30 2L30 1L31 1L31 0L30 0L30 1L29 1L29 0L27 0L27 2L26 2L26 3L27 3L27 2L28 2L28 3L29 3L29 4L28 4L28 5L29 5L29 6L28 6L28 8L26 8L26 7L27 7L27 4L26 4L26 5L25 5L25 4L24 4L24 5L25 5L25 6L24 6L24 7L25 7L25 8L26 8L26 9L25 9L25 12L24 12L24 10L23 10L23 6L22 6L22 5L23 5L23 4L22 4L22 5L21 5L21 4L20 4L20 5L21 5L21 6L20 6L20 7L19 7L19 6L18 6L18 7L17 7L17 4L16 4L16 2L15 2L15 0ZM16 0L16 1L17 1L17 0ZM20 0L20 1L19 1L19 2L18 2L18 3L19 3L19 2L20 2L20 3L21 3L21 0ZM24 0L24 1L23 1L23 2L22 2L22 3L23 3L23 2L24 2L24 3L25 3L25 2L24 2L24 1L25 1L25 0ZM28 1L28 2L29 2L29 1ZM40 1L40 2L41 2L41 1ZM42 1L42 3L43 3L43 1ZM51 2L51 3L52 3L52 2ZM30 3L30 4L31 4L31 3ZM32 3L32 4L34 4L34 3ZM40 3L40 4L41 4L41 7L40 7L40 6L39 6L39 5L38 5L38 6L37 6L37 8L38 8L38 6L39 6L39 9L38 9L38 10L39 10L39 11L37 11L37 9L36 9L36 6L35 6L35 9L34 9L34 11L33 11L33 9L32 9L32 11L30 11L30 6L29 6L29 8L28 8L28 11L27 11L27 12L29 12L29 11L30 11L30 12L31 12L31 15L30 15L30 13L29 13L29 14L28 14L28 15L30 15L30 18L32 18L32 19L30 19L30 20L31 20L31 21L30 21L30 22L29 22L29 20L28 20L28 19L29 19L29 17L28 17L28 16L27 16L27 15L26 15L26 16L25 16L25 17L24 17L24 19L23 19L23 17L22 17L22 16L20 16L20 19L19 19L19 17L18 17L18 16L19 16L19 14L18 14L18 12L20 12L20 11L19 11L19 9L20 9L20 10L21 10L21 13L22 13L22 14L20 14L20 15L22 15L22 14L23 14L23 13L22 13L22 12L23 12L23 11L22 11L22 6L21 6L21 9L20 9L20 8L19 8L19 9L18 9L18 8L17 8L17 9L16 9L16 8L14 8L14 10L13 10L13 7L12 7L12 9L11 9L11 8L9 8L9 9L10 9L10 10L11 10L11 11L12 11L12 12L11 12L11 14L10 14L10 13L9 13L9 12L10 12L10 11L9 11L9 10L8 10L8 11L9 11L9 12L8 12L8 13L9 13L9 14L8 14L8 15L6 15L6 16L7 16L7 17L9 17L9 18L10 18L10 19L11 19L11 18L10 18L10 17L9 17L9 16L8 16L8 15L10 15L10 16L11 16L11 15L12 15L12 13L13 13L13 11L14 11L14 12L15 12L15 10L17 10L17 11L18 11L18 12L16 12L16 13L14 13L14 14L16 14L16 16L15 16L15 18L16 18L16 19L15 19L15 20L17 20L17 22L16 22L16 23L18 23L18 24L17 24L17 25L16 25L16 24L15 24L15 25L14 25L14 23L13 23L13 28L12 28L12 27L10 27L10 24L9 24L9 22L8 22L8 26L9 26L9 28L8 28L8 27L6 27L6 26L7 26L7 25L6 25L6 26L5 26L5 28L8 28L8 30L9 30L9 28L10 28L10 30L12 30L12 29L13 29L13 32L12 32L12 31L9 31L9 32L10 32L10 33L9 33L9 34L10 34L10 35L8 35L8 36L9 36L9 38L8 38L8 37L5 37L5 38L8 38L8 39L10 39L10 38L11 38L11 37L12 37L12 39L11 39L11 40L14 40L14 39L13 39L13 37L14 37L14 38L15 38L15 42L14 42L14 41L11 41L11 42L12 42L12 43L10 43L10 41L8 41L8 42L7 42L7 41L6 41L6 42L5 42L5 43L6 43L6 44L8 44L8 45L5 45L5 44L4 44L4 46L5 46L5 47L6 47L6 48L7 48L7 49L6 49L6 50L8 50L8 49L9 49L9 50L10 50L10 49L9 49L9 47L10 47L10 46L12 46L12 50L13 50L13 47L15 47L15 46L13 46L13 45L15 45L15 42L18 42L18 40L17 40L17 39L16 39L16 38L17 38L17 36L16 36L16 34L18 34L18 32L19 32L19 33L20 33L20 35L21 35L21 34L23 34L23 35L22 35L22 36L23 36L23 37L22 37L22 38L21 38L21 36L19 36L19 35L18 35L18 36L19 36L19 37L18 37L18 39L19 39L19 44L21 44L21 46L20 46L20 47L22 47L22 46L23 46L23 45L22 45L22 42L21 42L21 41L22 41L22 40L23 40L23 39L24 39L24 40L25 40L25 41L24 41L24 42L23 42L23 43L24 43L24 44L25 44L25 46L24 46L24 47L26 47L26 48L25 48L25 49L24 49L24 50L23 50L23 49L22 49L22 48L21 48L21 49L20 49L20 50L21 50L21 51L19 51L19 49L18 49L18 47L19 47L19 46L18 46L18 47L17 47L17 46L16 46L16 47L17 47L17 49L16 49L16 48L15 48L15 49L16 49L16 50L17 50L17 53L16 53L16 56L15 56L15 57L16 57L16 58L17 58L17 57L18 57L18 56L17 56L17 55L18 55L18 54L19 54L19 52L20 52L20 54L23 54L23 56L24 56L24 58L25 58L25 57L26 57L26 58L27 58L27 59L28 59L28 60L27 60L27 62L26 62L26 64L27 64L27 63L28 63L28 62L29 62L29 61L30 61L30 59L29 59L29 57L30 57L30 55L31 55L31 54L30 54L30 53L31 53L31 51L32 51L32 50L31 50L31 49L28 49L28 51L27 51L27 49L26 49L26 48L30 48L30 47L31 47L31 48L32 48L32 47L34 47L34 49L36 49L36 43L34 43L34 41L35 41L35 42L36 42L36 40L37 40L37 41L38 41L38 42L37 42L37 43L38 43L38 44L39 44L39 45L38 45L38 46L37 46L37 49L38 49L38 46L39 46L39 45L40 45L40 47L41 47L41 45L40 45L40 44L39 44L39 43L41 43L41 44L43 44L43 43L42 43L42 42L44 42L44 43L45 43L45 45L44 45L44 46L45 46L45 45L46 45L46 47L45 47L45 48L46 48L46 50L48 50L48 51L49 51L49 50L48 50L48 47L50 47L50 46L49 46L49 45L48 45L48 43L47 43L47 42L48 42L48 40L47 40L47 41L46 41L46 43L45 43L45 42L44 42L44 40L46 40L46 39L48 39L48 38L49 38L49 39L50 39L50 38L52 38L52 36L51 36L51 35L53 35L53 36L56 36L56 34L55 34L55 33L54 33L54 34L53 34L53 33L52 33L52 32L53 32L53 31L54 31L54 32L56 32L56 31L55 31L55 29L56 29L56 30L57 30L57 29L58 29L58 30L60 30L60 28L61 28L61 31L62 31L62 28L61 28L61 26L60 26L60 23L61 23L61 21L60 21L60 23L59 23L59 24L58 24L58 22L59 22L59 21L58 21L58 22L57 22L57 19L56 19L56 18L57 18L57 16L58 16L58 18L59 18L59 19L58 19L58 20L59 20L59 19L60 19L60 16L58 16L58 15L57 15L57 13L56 13L56 11L58 11L58 14L59 14L59 11L58 11L58 10L59 10L59 9L58 9L58 10L57 10L57 9L56 9L56 11L55 11L55 9L54 9L54 6L53 6L53 11L54 11L54 12L53 12L53 13L54 13L54 14L53 14L53 15L52 15L52 16L51 16L51 15L50 15L50 16L49 16L49 15L48 15L48 14L49 14L49 13L47 13L47 12L46 12L46 11L45 11L45 10L43 10L43 9L44 9L44 8L46 8L46 10L48 10L48 8L46 8L46 6L45 6L45 5L46 5L46 3L44 3L44 4L43 4L43 5L42 5L42 4L41 4L41 3ZM18 4L18 5L19 5L19 4ZM44 4L44 5L43 5L43 6L42 6L42 7L41 7L41 8L40 8L40 9L39 9L39 10L40 10L40 13L39 13L39 14L38 14L38 13L37 13L37 11L36 11L36 13L35 13L35 14L34 14L34 13L33 13L33 11L32 11L32 14L33 14L33 15L31 15L31 16L32 16L32 17L33 17L33 19L32 19L32 22L30 22L30 23L29 23L29 22L28 22L28 20L27 20L27 19L28 19L28 17L27 17L27 16L26 16L26 17L27 17L27 19L26 19L26 20L27 20L27 22L25 22L25 24L23 24L23 22L24 22L24 21L23 21L23 22L21 22L21 23L20 23L20 20L21 20L21 19L20 19L20 20L19 20L19 19L18 19L18 20L19 20L19 22L18 22L18 23L20 23L20 24L22 24L22 26L20 26L20 25L19 25L19 24L18 24L18 27L21 27L21 28L20 28L20 29L21 29L21 28L22 28L22 29L23 29L23 28L24 28L24 29L25 29L25 30L24 30L24 31L25 31L25 32L26 32L26 34L24 34L24 32L23 32L23 31L22 31L22 33L23 33L23 34L24 34L24 35L23 35L23 36L25 36L25 38L24 38L24 39L25 39L25 38L26 38L26 37L27 37L27 38L28 38L28 39L26 39L26 41L27 41L27 42L26 42L26 43L27 43L27 44L26 44L26 45L27 45L27 46L28 46L28 45L29 45L29 43L30 43L30 44L31 44L31 45L30 45L30 46L29 46L29 47L30 47L30 46L31 46L31 47L32 47L32 44L33 44L33 46L34 46L34 47L35 47L35 46L34 46L34 44L33 44L33 42L32 42L32 41L33 41L33 39L32 39L32 41L30 41L30 42L29 42L29 43L28 43L28 39L30 39L30 38L28 38L28 37L29 37L29 35L28 35L28 33L27 33L27 32L28 32L28 31L29 31L29 30L30 30L30 32L29 32L29 33L30 33L30 36L31 36L31 35L32 35L32 36L33 36L33 37L34 37L34 40L36 40L36 39L35 39L35 38L36 38L36 37L37 37L37 40L38 40L38 41L39 41L39 40L40 40L40 41L41 41L41 42L42 42L42 41L43 41L43 38L42 38L42 37L43 37L43 36L44 36L44 39L46 39L46 37L45 37L45 36L46 36L46 35L47 35L47 36L48 36L48 37L49 37L49 38L50 38L50 37L49 37L49 36L48 36L48 35L47 35L47 34L46 34L46 33L45 33L45 32L44 32L44 33L45 33L45 34L44 34L44 35L43 35L43 34L42 34L42 33L43 33L43 32L42 32L42 31L46 31L46 32L48 32L48 33L49 33L49 35L51 35L51 34L52 34L52 33L51 33L51 34L50 34L50 33L49 33L49 32L50 32L50 31L52 31L52 30L54 30L54 27L55 27L55 28L56 28L56 29L57 29L57 27L58 27L58 29L59 29L59 28L60 28L60 27L59 27L59 26L58 26L58 24L57 24L57 26L56 26L56 23L57 23L57 22L55 22L55 23L54 23L54 25L53 25L53 24L52 24L52 22L50 22L50 19L49 19L49 20L48 20L48 18L50 18L50 17L51 17L51 16L50 16L50 17L49 17L49 16L48 16L48 15L46 15L46 12L45 12L45 11L44 11L44 18L45 18L45 19L46 19L46 16L48 16L48 18L47 18L47 20L44 20L44 19L43 19L43 20L42 20L42 19L41 19L41 20L40 20L40 21L39 21L39 23L38 23L38 20L39 20L39 19L38 19L38 20L36 20L36 21L35 21L35 23L34 23L34 19L35 19L35 18L34 18L34 17L35 17L35 15L36 15L36 13L37 13L37 16L36 16L36 17L37 17L37 18L36 18L36 19L37 19L37 18L38 18L38 17L37 17L37 16L38 16L38 15L39 15L39 16L40 16L40 18L41 18L41 16L42 16L42 17L43 17L43 16L42 16L42 15L41 15L41 16L40 16L40 13L41 13L41 14L42 14L42 13L41 13L41 12L42 12L42 11L43 11L43 10L42 10L42 9L41 9L41 8L42 8L42 7L43 7L43 8L44 8L44 7L45 7L45 6L44 6L44 5L45 5L45 4ZM31 5L31 8L34 8L34 5ZM50 5L50 6L49 6L49 8L50 8L50 10L52 10L52 9L51 9L51 7L52 7L52 6L51 6L51 5ZM15 6L15 7L16 7L16 6ZM25 6L25 7L26 7L26 6ZM32 6L32 7L33 7L33 6ZM43 6L43 7L44 7L44 6ZM50 6L50 7L51 7L51 6ZM56 6L56 7L57 7L57 6ZM63 8L63 9L65 9L65 8ZM2 9L2 10L3 10L3 9ZM6 9L6 10L7 10L7 9ZM17 9L17 10L18 10L18 9ZM26 9L26 10L27 10L27 9ZM35 9L35 10L36 10L36 9ZM40 9L40 10L41 10L41 9ZM64 10L64 12L65 12L65 10ZM2 11L2 13L3 13L3 12L4 12L4 11ZM34 11L34 12L35 12L35 11ZM49 11L49 12L50 12L50 11ZM25 12L25 13L26 13L26 14L27 14L27 13L26 13L26 12ZM54 12L54 13L55 13L55 14L54 14L54 17L55 17L55 18L56 18L56 17L55 17L55 14L56 14L56 13L55 13L55 12ZM16 13L16 14L17 14L17 15L18 15L18 14L17 14L17 13ZM50 13L50 14L52 14L52 13ZM60 13L60 14L61 14L61 13ZM24 14L24 15L25 15L25 14ZM33 15L33 17L34 17L34 15ZM12 16L12 18L13 18L13 17L14 17L14 16ZM16 16L16 18L17 18L17 16ZM52 16L52 18L53 18L53 16ZM61 16L61 19L62 19L62 16ZM63 16L63 17L64 17L64 16ZM0 18L0 19L1 19L1 18ZM22 19L22 20L23 20L23 19ZM24 19L24 20L25 20L25 19ZM51 19L51 20L52 20L52 21L55 21L55 20L56 20L56 19L55 19L55 20L52 20L52 19ZM41 20L41 21L40 21L40 24L38 24L38 26L39 26L39 25L40 25L40 24L42 24L42 27L39 27L39 28L38 28L38 27L35 27L35 26L36 26L36 24L37 24L37 21L36 21L36 23L35 23L35 24L33 24L33 25L34 25L34 27L33 27L33 26L31 26L31 27L30 27L30 26L29 26L29 25L28 25L28 27L30 27L30 28L29 28L29 29L26 29L26 27L25 27L25 26L26 26L26 24L25 24L25 25L24 25L24 26L23 26L23 27L24 27L24 28L25 28L25 29L26 29L26 30L25 30L25 31L26 31L26 32L27 32L27 30L29 30L29 29L30 29L30 28L31 28L31 30L32 30L32 28L34 28L34 30L35 30L35 33L36 33L36 35L33 35L33 36L34 36L34 37L36 37L36 35L37 35L37 36L38 36L38 35L37 35L37 33L38 33L38 34L39 34L39 33L40 33L40 35L39 35L39 37L38 37L38 39L39 39L39 37L40 37L40 39L41 39L41 40L42 40L42 38L41 38L41 37L42 37L42 35L41 35L41 33L42 33L42 32L41 32L41 31L42 31L42 30L45 30L45 29L44 29L44 28L45 28L45 26L44 26L44 24L46 24L46 26L48 26L48 20L47 20L47 21L46 21L46 22L47 22L47 24L46 24L46 23L45 23L45 21L44 21L44 20L43 20L43 21L42 21L42 20ZM32 22L32 23L30 23L30 24L31 24L31 25L32 25L32 23L33 23L33 22ZM43 22L43 23L42 23L42 24L43 24L43 23L44 23L44 22ZM49 22L49 24L50 24L50 26L49 26L49 27L50 27L50 26L51 26L51 27L52 27L52 28L50 28L50 30L48 30L48 27L47 27L47 29L46 29L46 31L47 31L47 30L48 30L48 32L49 32L49 31L50 31L50 30L51 30L51 29L52 29L52 28L53 28L53 27L52 27L52 26L51 26L51 25L52 25L52 24L50 24L50 22ZM11 23L11 25L12 25L12 23ZM27 23L27 24L28 24L28 23ZM15 25L15 26L14 26L14 28L13 28L13 29L14 29L14 32L13 32L13 33L12 33L12 35L10 35L10 37L11 37L11 36L12 36L12 37L13 37L13 36L12 36L12 35L13 35L13 34L14 34L14 36L15 36L15 38L16 38L16 36L15 36L15 34L16 34L16 33L17 33L17 32L18 32L18 31L17 31L17 30L19 30L19 28L16 28L16 27L15 27L15 26L16 26L16 25ZM54 25L54 26L55 26L55 27L56 27L56 26L55 26L55 25ZM64 26L64 27L65 27L65 26ZM34 27L34 28L35 28L35 27ZM43 27L43 28L40 28L40 29L39 29L39 31L41 31L41 30L42 30L42 29L43 29L43 28L44 28L44 27ZM15 28L15 32L14 32L14 34L15 34L15 33L16 33L16 32L17 32L17 31L16 31L16 30L17 30L17 29L16 29L16 28ZM36 28L36 29L37 29L37 30L38 30L38 28ZM1 29L1 30L2 30L2 31L1 31L1 33L3 33L3 34L4 34L4 31L3 31L3 30L5 30L5 29L3 29L3 30L2 30L2 29ZM6 29L6 30L7 30L7 29ZM64 29L64 33L65 33L65 29ZM20 30L20 31L21 31L21 30ZM5 31L5 34L8 34L8 31ZM31 31L31 34L34 34L34 31ZM36 31L36 33L37 33L37 32L38 32L38 31ZM57 31L57 34L60 34L60 31ZM6 32L6 33L7 33L7 32ZM32 32L32 33L33 33L33 32ZM40 32L40 33L41 33L41 32ZM58 32L58 33L59 33L59 32ZM45 34L45 35L46 35L46 34ZM54 34L54 35L55 35L55 34ZM5 35L5 36L7 36L7 35ZM26 35L26 36L27 36L27 37L28 37L28 36L27 36L27 35ZM40 35L40 37L41 37L41 35ZM57 35L57 37L56 37L56 38L57 38L57 40L56 40L56 41L54 41L54 43L53 43L53 44L54 44L54 47L53 47L53 49L54 49L54 50L55 50L55 49L54 49L54 47L57 47L57 48L58 48L58 49L59 49L59 48L58 48L58 46L59 46L59 47L60 47L60 46L61 46L61 45L60 45L60 46L59 46L59 45L58 45L58 42L59 42L59 44L60 44L60 42L59 42L59 41L58 41L58 40L59 40L59 39L58 39L58 38L59 38L59 37L60 37L60 36L58 36L58 35ZM19 37L19 38L20 38L20 39L21 39L21 40L22 40L22 39L21 39L21 38L20 38L20 37ZM31 37L31 38L32 38L32 37ZM54 37L54 39L55 39L55 37ZM57 37L57 38L58 38L58 37ZM60 39L60 40L61 40L61 39ZM6 42L6 43L7 43L7 42ZM13 42L13 43L12 43L12 44L9 44L9 45L8 45L8 47L9 47L9 45L13 45L13 43L14 43L14 42ZM20 42L20 43L21 43L21 42ZM24 42L24 43L25 43L25 42ZM30 42L30 43L31 43L31 44L32 44L32 43L31 43L31 42ZM38 42L38 43L39 43L39 42ZM56 42L56 44L55 44L55 45L57 45L57 42ZM16 43L16 44L17 44L17 45L18 45L18 43ZM46 43L46 44L47 44L47 43ZM42 45L42 47L43 47L43 45ZM6 46L6 47L7 47L7 46ZM47 46L47 47L46 47L46 48L47 48L47 47L48 47L48 46ZM39 48L39 49L40 49L40 48ZM42 48L42 50L43 50L43 48ZM49 48L49 49L50 49L50 48ZM60 48L60 51L58 51L58 50L57 50L57 51L58 51L58 52L57 52L57 53L58 53L58 52L60 52L60 51L61 51L61 50L63 50L63 51L64 51L64 50L63 50L63 49L62 49L62 48ZM25 49L25 50L26 50L26 49ZM3 50L3 51L4 51L4 52L5 52L5 53L6 53L6 52L5 52L5 50ZM30 50L30 51L28 51L28 53L27 53L27 55L26 55L26 54L24 54L24 53L25 53L25 52L24 52L24 53L23 53L23 54L24 54L24 55L26 55L26 57L27 57L27 58L28 58L28 57L29 57L29 55L28 55L28 53L30 53L30 51L31 51L31 50ZM18 51L18 52L19 52L19 51ZM22 51L22 52L23 52L23 51ZM26 51L26 52L27 52L27 51ZM1 52L1 53L2 53L2 54L3 54L3 52ZM36 52L36 53L35 53L35 54L34 54L34 53L33 53L33 54L34 54L34 55L35 55L35 54L36 54L36 55L39 55L39 54L38 54L38 52ZM44 52L44 53L45 53L45 54L44 54L44 55L46 55L46 53L45 53L45 52ZM60 53L60 55L61 55L61 53ZM11 54L11 55L10 55L10 56L11 56L11 55L12 55L12 57L11 57L11 58L12 58L12 57L13 57L13 58L14 58L14 57L13 57L13 55L12 55L12 54ZM41 54L41 55L42 55L42 54ZM47 54L47 56L48 56L48 57L51 57L51 56L50 56L50 55L49 55L49 54ZM19 55L19 57L20 57L20 59L21 59L21 61L22 61L22 58L21 58L21 57L22 57L22 56L21 56L21 55ZM27 55L27 56L28 56L28 55ZM48 55L48 56L49 56L49 55ZM53 55L53 57L54 57L54 56L55 56L55 55ZM62 55L62 56L63 56L63 55ZM6 56L6 57L7 57L7 56ZM16 56L16 57L17 57L17 56ZM20 56L20 57L21 57L21 56ZM41 56L41 57L42 57L42 56ZM31 57L31 60L34 60L34 57ZM57 57L57 60L60 60L60 57ZM61 57L61 59L62 59L62 58L63 58L63 57ZM32 58L32 59L33 59L33 58ZM37 58L37 59L36 59L36 60L37 60L37 61L38 61L38 62L39 62L39 61L40 61L40 60L41 60L41 61L42 61L42 62L43 62L43 61L44 61L44 60L43 60L43 59L42 59L42 60L41 60L41 59L40 59L40 58L39 58L39 61L38 61L38 58ZM47 58L47 59L48 59L48 61L49 61L49 58ZM58 58L58 59L59 59L59 58ZM18 60L18 61L19 61L19 60ZM42 60L42 61L43 61L43 60ZM51 60L51 61L52 61L52 60ZM61 60L61 62L62 62L62 60ZM8 62L8 65L9 65L9 62ZM10 62L10 64L15 64L15 62ZM16 62L16 63L17 63L17 64L18 64L18 65L19 65L19 64L18 64L18 63L19 63L19 62L18 62L18 63L17 63L17 62ZM57 62L57 63L58 63L58 62ZM40 63L40 64L41 64L41 63ZM46 63L46 64L47 64L47 63ZM48 63L48 64L49 64L49 63ZM64 64L64 65L65 65L65 64ZM0 0L0 7L7 7L7 0ZM1 1L1 6L6 6L6 1ZM2 2L2 5L5 5L5 2ZM58 0L58 7L65 7L65 0ZM59 1L59 6L64 6L64 1ZM60 2L60 5L63 5L63 2ZM0 58L0 65L7 65L7 58ZM1 59L1 64L6 64L6 59ZM2 60L2 63L5 63L5 60Z" fill="#000000"/></g></g></svg>
