<?xml version="1.0" encoding="UTF-8"?>
<svg xmlns="http://www.w3.org/2000/svg" version="1.1" width="300" height="300" viewBox="0 0 300 300"><rect x="0" y="0" width="300" height="300" fill="#ffffff"/><g transform="scale(4.348)"><g transform="translate(0,0)"><path fill-rule="evenodd" d="M15 0L15 1L16 1L16 0ZM17 0L17 2L14 2L14 1L13 1L13 2L14 2L14 3L16 3L16 4L14 4L14 7L13 7L13 6L12 6L12 2L10 2L10 1L8 1L8 2L10 2L10 3L8 3L8 4L11 4L11 6L10 6L10 7L9 7L9 5L8 5L8 7L9 7L9 8L6 8L6 9L9 9L9 12L11 12L11 13L12 13L12 12L11 12L11 11L12 11L12 10L11 10L11 11L10 11L10 9L11 9L11 6L12 6L12 7L13 7L13 8L12 8L12 9L13 9L13 11L15 11L15 10L16 10L16 9L19 9L19 10L20 10L20 11L17 11L17 12L16 12L16 13L17 13L17 14L16 14L16 16L15 16L15 12L13 12L13 14L12 14L12 15L13 15L13 14L14 14L14 16L11 16L11 17L10 17L10 15L11 15L11 14L10 14L10 15L7 15L7 14L5 14L5 16L4 16L4 15L1 15L1 14L4 14L4 13L7 13L7 12L5 12L5 10L4 10L4 11L3 11L3 10L1 10L1 12L0 12L0 16L3 16L3 17L2 17L2 18L1 18L1 17L0 17L0 19L2 19L2 20L3 20L3 19L2 19L2 18L3 18L3 17L5 17L5 18L4 18L4 20L5 20L5 21L7 21L7 22L5 22L5 23L4 23L4 22L3 22L3 21L1 21L1 20L0 20L0 24L1 24L1 25L0 25L0 26L1 26L1 27L0 27L0 30L1 30L1 29L3 29L3 30L2 30L2 31L1 31L1 32L2 32L2 31L3 31L3 32L4 32L4 35L0 35L0 41L1 41L1 42L0 42L0 44L2 44L2 43L4 43L4 44L3 44L3 45L1 45L1 46L0 46L0 47L1 47L1 48L2 48L2 49L0 49L0 50L1 50L1 52L0 52L0 56L1 56L1 57L0 57L0 61L1 61L1 57L2 57L2 59L3 59L3 57L4 57L4 59L7 59L7 60L6 60L6 61L8 61L8 63L9 63L9 64L8 64L8 69L13 69L13 68L14 68L14 67L13 67L13 68L11 68L11 67L12 67L12 66L11 66L11 67L10 67L10 65L11 65L11 64L10 64L10 62L12 62L12 61L13 61L13 62L14 62L14 64L12 64L12 65L14 65L14 66L15 66L15 69L16 69L16 67L18 67L18 66L19 66L19 67L20 67L20 66L19 66L19 65L20 65L20 61L21 61L21 62L22 62L22 61L21 61L21 60L23 60L23 61L24 61L24 62L23 62L23 63L24 63L24 64L23 64L23 65L21 65L21 66L22 66L22 67L21 67L21 68L20 68L20 69L21 69L21 68L22 68L22 67L23 67L23 68L24 68L24 69L26 69L26 67L25 67L25 65L28 65L28 66L27 66L27 67L28 67L28 68L27 68L27 69L28 69L28 68L29 68L29 69L32 69L32 67L34 67L34 66L33 66L33 65L37 65L37 66L35 66L35 68L36 68L36 69L38 69L38 68L37 68L37 66L38 66L38 67L39 67L39 66L38 66L38 65L39 65L39 64L41 64L41 66L40 66L40 67L41 67L41 66L44 66L44 68L43 68L43 67L42 67L42 68L41 68L41 69L42 69L42 68L43 68L43 69L44 69L44 68L48 68L48 69L51 69L51 68L52 68L52 66L51 66L51 68L48 68L48 66L46 66L46 64L45 64L45 63L47 63L47 62L50 62L50 61L52 61L52 62L55 62L55 61L56 61L56 60L55 60L55 61L54 61L54 60L53 60L53 59L52 59L52 58L55 58L55 59L56 59L56 58L55 58L55 57L56 57L56 56L57 56L57 57L58 57L58 56L57 56L57 53L58 53L58 52L57 52L57 51L55 51L55 53L54 53L54 52L53 52L53 53L54 53L54 54L52 54L52 56L53 56L53 55L54 55L54 56L55 56L55 57L51 57L51 54L50 54L50 53L49 53L49 52L52 52L52 51L53 51L53 50L58 50L58 51L62 51L62 53L64 53L64 52L65 52L65 53L67 53L67 52L68 52L68 50L69 50L69 47L68 47L68 45L69 45L69 43L68 43L68 41L69 41L69 40L67 40L67 39L68 39L68 36L69 36L69 35L68 35L68 34L69 34L69 31L68 31L68 28L69 28L69 27L67 27L67 26L69 26L69 23L68 23L68 22L69 22L69 21L68 21L68 18L69 18L69 17L67 17L67 15L68 15L68 12L67 12L67 11L68 11L68 10L69 10L69 9L68 9L68 8L67 8L67 10L66 10L66 8L65 8L65 9L64 9L64 8L63 8L63 10L62 10L62 8L59 8L59 4L58 4L58 3L59 3L59 2L56 2L56 0L53 0L53 1L54 1L54 2L56 2L56 3L53 3L53 4L52 4L52 5L50 5L50 4L49 4L49 3L51 3L51 2L52 2L52 0L51 0L51 2L49 2L49 3L47 3L47 4L48 4L48 7L47 7L47 6L46 6L46 5L44 5L44 3L45 3L45 4L46 4L46 3L45 3L45 2L46 2L46 1L45 1L45 0L44 0L44 1L45 1L45 2L44 2L44 3L43 3L43 0L41 0L41 1L38 1L38 0L37 0L37 1L36 1L36 0L35 0L35 1L34 1L34 0L33 0L33 1L32 1L32 0L31 0L31 1L32 1L32 2L30 2L30 0L28 0L28 1L27 1L27 2L28 2L28 3L27 3L27 4L29 4L29 5L26 5L26 3L25 3L25 4L22 4L22 3L20 3L20 4L19 4L19 3L17 3L17 2L18 2L18 1L19 1L19 2L20 2L20 1L19 1L19 0ZM21 0L21 2L22 2L22 1L24 1L24 2L26 2L26 1L25 1L25 0ZM48 0L48 1L47 1L47 2L48 2L48 1L50 1L50 0ZM57 0L57 1L61 1L61 0ZM33 1L33 2L32 2L32 4L33 4L33 3L35 3L35 4L36 4L36 3L38 3L38 4L37 4L37 5L38 5L38 6L37 6L37 7L38 7L38 8L37 8L37 9L38 9L38 10L36 10L36 9L32 9L32 11L31 11L31 10L30 10L30 9L31 9L31 7L32 7L32 5L30 5L30 6L29 6L29 8L28 8L28 9L27 9L27 7L28 7L28 6L27 6L27 7L26 7L26 5L25 5L25 7L26 7L26 9L24 9L24 6L23 6L23 5L22 5L22 4L20 4L20 5L19 5L19 7L18 7L18 5L17 5L17 4L16 4L16 6L15 6L15 7L14 7L14 8L13 8L13 9L15 9L15 7L16 7L16 8L19 8L19 7L20 7L20 5L22 5L22 6L21 6L21 8L20 8L20 10L23 10L23 11L24 11L24 12L25 12L25 11L27 11L27 10L28 10L28 11L31 11L31 12L32 12L32 13L29 13L29 12L26 12L26 13L27 13L27 14L23 14L23 12L21 12L21 13L20 13L20 12L19 12L19 13L20 13L20 15L21 15L21 16L19 16L19 14L18 14L18 15L17 15L17 16L18 16L18 17L15 17L15 16L14 16L14 17L11 17L11 18L9 18L9 19L10 19L10 20L8 20L8 19L5 19L5 20L7 20L7 21L8 21L8 23L6 23L6 24L5 24L5 25L4 25L4 23L2 23L2 22L1 22L1 24L3 24L3 25L2 25L2 26L3 26L3 27L2 27L2 28L5 28L5 26L7 26L7 27L6 27L6 28L8 28L8 30L7 30L7 29L5 29L5 30L7 30L7 31L6 31L6 32L7 32L7 31L8 31L8 30L9 30L9 34L10 34L10 35L11 35L11 34L13 34L13 35L12 35L12 37L13 37L13 39L11 39L11 38L10 38L10 40L9 40L9 38L7 38L7 37L5 37L5 40L4 40L4 38L3 38L3 37L4 37L4 36L3 36L3 37L2 37L2 36L1 36L1 37L2 37L2 38L1 38L1 40L2 40L2 38L3 38L3 41L2 41L2 42L1 42L1 43L2 43L2 42L3 42L3 41L4 41L4 42L5 42L5 40L7 40L7 41L6 41L6 42L7 42L7 43L6 43L6 44L5 44L5 46L3 46L3 48L4 48L4 47L5 47L5 48L7 48L7 47L6 47L6 46L8 46L8 48L9 48L9 49L4 49L4 50L3 50L3 49L2 49L2 51L4 51L4 50L8 50L8 53L9 53L9 54L7 54L7 53L6 53L6 52L7 52L7 51L6 51L6 52L4 52L4 53L3 53L3 52L1 52L1 54L2 54L2 53L3 53L3 55L5 55L5 53L6 53L6 54L7 54L7 55L6 55L6 56L4 56L4 57L6 57L6 58L7 58L7 59L9 59L9 57L10 57L10 58L11 58L11 56L12 56L12 59L10 59L10 60L12 60L12 59L15 59L15 60L13 60L13 61L15 61L15 62L17 62L17 63L16 63L16 64L14 64L14 65L16 65L16 66L17 66L17 65L18 65L18 64L17 64L17 63L18 63L18 62L19 62L19 61L18 61L18 60L16 60L16 59L15 59L15 58L16 58L16 57L17 57L17 55L18 55L18 54L19 54L19 57L20 57L20 58L21 58L21 57L22 57L22 58L24 58L24 57L22 57L22 56L21 56L21 57L20 57L20 54L21 54L21 55L22 55L22 54L21 54L21 53L25 53L25 54L26 54L26 53L28 53L28 54L27 54L27 55L25 55L25 56L26 56L26 57L25 57L25 58L26 58L26 59L25 59L25 60L24 60L24 59L23 59L23 60L24 60L24 61L25 61L25 60L26 60L26 62L29 62L29 61L27 61L27 58L28 58L28 59L29 59L29 60L30 60L30 59L29 59L29 57L30 57L30 56L28 56L28 55L30 55L30 54L29 54L29 53L28 53L28 52L31 52L31 57L32 57L32 50L33 50L33 49L34 49L34 51L33 51L33 52L34 52L34 53L33 53L33 58L34 58L34 59L35 59L35 58L36 58L36 57L38 57L38 58L37 58L37 59L39 59L39 57L41 57L41 56L39 56L39 57L38 57L38 55L39 55L39 54L37 54L37 53L38 53L38 52L35 52L35 49L36 49L36 50L37 50L37 49L38 49L38 51L39 51L39 50L41 50L41 52L39 52L39 53L42 53L42 52L44 52L44 53L43 53L43 56L42 56L42 57L43 57L43 59L44 59L44 61L43 61L43 60L42 60L42 58L41 58L41 59L40 59L40 62L39 62L39 60L38 60L38 64L37 64L37 65L38 65L38 64L39 64L39 63L41 63L41 64L44 64L44 66L45 66L45 67L46 67L46 66L45 66L45 64L44 64L44 63L42 63L42 62L41 62L41 60L42 60L42 61L43 61L43 62L47 62L47 60L49 60L49 61L50 61L50 58L51 58L51 57L50 57L50 56L49 56L49 57L50 57L50 58L48 58L48 59L47 59L47 57L46 57L46 56L47 56L47 55L48 55L48 53L45 53L45 52L46 52L46 51L47 51L47 52L49 52L49 49L48 49L48 48L50 48L50 50L51 50L51 51L52 51L52 49L53 49L53 47L55 47L55 48L54 48L54 49L55 49L55 48L56 48L56 49L58 49L58 50L59 50L59 49L60 49L60 50L62 50L62 51L63 51L63 52L64 52L64 51L67 51L67 49L68 49L68 48L65 48L65 49L64 49L64 48L63 48L63 46L65 46L65 47L66 47L66 44L63 44L63 45L62 45L62 48L63 48L63 49L64 49L64 51L63 51L63 50L62 50L62 49L60 49L60 48L61 48L61 47L59 47L59 45L60 45L60 46L61 46L61 45L60 45L60 44L62 44L62 43L64 43L64 42L65 42L65 43L66 43L66 41L67 41L67 40L65 40L65 41L64 41L64 40L63 40L63 41L64 41L64 42L62 42L62 41L61 41L61 40L62 40L62 39L65 39L65 38L66 38L66 39L67 39L67 38L66 38L66 37L64 37L64 38L63 38L63 37L62 37L62 39L61 39L61 38L60 38L60 39L59 39L59 37L60 37L60 35L59 35L59 36L58 36L58 35L56 35L56 34L60 34L60 32L56 32L56 33L55 33L55 35L54 35L54 34L52 34L52 33L54 33L54 32L53 32L53 31L52 31L52 30L53 30L53 28L56 28L56 29L55 29L55 31L56 31L56 29L57 29L57 30L58 30L58 31L60 31L60 30L59 30L59 29L61 29L61 28L59 28L59 29L57 29L57 28L58 28L58 27L57 27L57 26L60 26L60 25L62 25L62 26L61 26L61 27L62 27L62 28L63 28L63 29L62 29L62 30L61 30L61 31L63 31L63 32L64 32L64 31L67 31L67 32L66 32L66 33L65 33L65 35L67 35L67 36L68 36L68 35L67 35L67 34L68 34L68 31L67 31L67 28L66 28L66 27L64 27L64 28L63 28L63 25L65 25L65 26L67 26L67 25L68 25L68 23L67 23L67 24L64 24L64 23L66 23L66 22L68 22L68 21L67 21L67 20L66 20L66 19L67 19L67 18L63 18L63 17L66 17L66 16L65 16L65 14L67 14L67 13L66 13L66 12L64 12L64 11L63 11L63 13L62 13L62 10L61 10L61 12L60 12L60 13L59 13L59 11L58 11L58 10L59 10L59 8L58 8L58 4L57 4L57 3L56 3L56 4L55 4L55 5L56 5L56 6L55 6L55 7L56 7L56 6L57 6L57 8L55 8L55 10L56 10L56 11L57 11L57 12L56 12L56 13L57 13L57 14L56 14L56 15L55 15L55 16L54 16L54 17L55 17L55 16L56 16L56 18L54 18L54 19L53 19L53 20L52 20L52 18L53 18L53 16L52 16L52 15L51 15L51 13L54 13L54 12L55 12L55 11L53 11L53 10L52 10L52 11L53 11L53 12L50 12L50 11L49 11L49 10L51 10L51 9L54 9L54 6L53 6L53 5L52 5L52 6L51 6L51 7L50 7L50 5L49 5L49 7L50 7L50 9L49 9L49 10L47 10L47 7L46 7L46 6L45 6L45 7L44 7L44 5L43 5L43 7L42 7L42 5L41 5L41 7L40 7L40 5L39 5L39 4L43 4L43 3L42 3L42 1L41 1L41 2L40 2L40 3L39 3L39 2L36 2L36 3L35 3L35 2L34 2L34 1ZM60 3L60 5L61 5L61 3ZM56 4L56 5L57 5L57 4ZM33 5L33 8L36 8L36 5ZM16 6L16 7L17 7L17 6ZM22 6L22 7L23 7L23 6ZM30 6L30 7L31 7L31 6ZM34 6L34 7L35 7L35 6ZM38 6L38 7L39 7L39 6ZM52 6L52 7L53 7L53 6ZM60 6L60 7L61 7L61 6ZM45 7L45 9L44 9L44 8L43 8L43 9L39 9L39 10L38 10L38 12L37 12L37 13L36 13L36 12L34 12L34 11L33 11L33 12L34 12L34 13L33 13L33 14L32 14L32 15L31 15L31 14L29 14L29 15L31 15L31 16L29 16L29 17L31 17L31 18L33 18L33 19L36 19L36 20L38 20L38 21L37 21L37 22L35 22L35 23L37 23L37 25L36 25L36 24L35 24L35 26L34 26L34 24L33 24L33 25L32 25L32 23L31 23L31 22L32 22L32 21L34 21L34 20L32 20L32 19L29 19L29 20L28 20L28 19L26 19L26 17L24 17L24 16L23 16L23 15L22 15L22 13L21 13L21 15L22 15L22 16L23 16L23 17L18 17L18 18L20 18L20 19L19 19L19 20L17 20L17 18L14 18L14 19L12 19L12 20L10 20L10 21L9 21L9 22L12 22L12 24L11 24L11 27L12 27L12 26L13 26L13 23L15 23L15 22L16 22L16 24L14 24L14 26L15 26L15 27L16 27L16 28L13 28L13 29L16 29L16 28L17 28L17 30L16 30L16 31L17 31L17 32L18 32L18 33L17 33L17 34L19 34L19 35L20 35L20 34L19 34L19 33L20 33L20 31L21 31L21 32L23 32L23 30L25 30L25 31L26 31L26 32L25 32L25 33L23 33L23 34L22 34L22 33L21 33L21 34L22 34L22 35L23 35L23 36L25 36L25 37L22 37L22 38L21 38L21 39L20 39L20 37L19 37L19 36L18 36L18 35L16 35L16 34L15 34L15 33L16 33L16 32L15 32L15 30L14 30L14 32L15 32L15 33L13 33L13 30L12 30L12 31L11 31L11 30L10 30L10 31L11 31L11 32L12 32L12 33L13 33L13 34L15 34L15 35L14 35L14 36L13 36L13 37L15 37L15 35L16 35L16 36L17 36L17 37L19 37L19 38L16 38L16 39L15 39L15 38L14 38L14 39L15 39L15 40L16 40L16 39L17 39L17 40L18 40L18 41L17 41L17 45L18 45L18 46L17 46L17 47L16 47L16 48L15 48L15 47L14 47L14 48L13 48L13 47L12 47L12 46L11 46L11 47L10 47L10 46L9 46L9 48L11 48L11 47L12 47L12 48L13 48L13 49L14 49L14 50L15 50L15 52L16 52L16 53L19 53L19 54L20 54L20 53L19 53L19 52L25 52L25 53L26 53L26 52L25 52L25 50L26 50L26 49L25 49L25 48L26 48L26 47L24 47L24 49L23 49L23 50L22 50L22 49L18 49L18 48L17 48L17 47L18 47L18 46L20 46L20 45L21 45L21 43L22 43L22 42L21 42L21 43L19 43L19 42L20 42L20 41L22 41L22 40L21 40L21 39L22 39L22 38L24 38L24 39L23 39L23 40L24 40L24 41L23 41L23 42L24 42L24 41L26 41L26 44L24 44L24 43L23 43L23 46L25 46L25 45L26 45L26 44L27 44L27 43L28 43L28 42L27 42L27 41L26 41L26 40L27 40L27 39L28 39L28 38L27 38L27 37L28 37L28 36L29 36L29 39L30 39L30 38L31 38L31 37L32 37L32 38L34 38L34 37L38 37L38 36L37 36L37 35L38 35L38 32L43 32L43 33L40 33L40 36L41 36L41 34L43 34L43 33L44 33L44 36L43 36L43 35L42 35L42 37L41 37L41 38L39 38L39 40L41 40L41 41L40 41L40 43L39 43L39 44L38 44L38 45L35 45L35 46L34 46L34 47L35 47L35 48L36 48L36 47L37 47L37 48L38 48L38 47L37 47L37 46L38 46L38 45L39 45L39 46L40 46L40 47L39 47L39 48L40 48L40 47L41 47L41 48L42 48L42 49L41 49L41 50L42 50L42 51L44 51L44 52L45 52L45 49L46 49L46 47L47 47L47 48L48 48L48 47L47 47L47 46L50 46L50 48L52 48L52 46L55 46L55 47L56 47L56 48L57 48L57 47L58 47L58 48L59 48L59 47L58 47L58 46L57 46L57 45L56 45L56 44L57 44L57 43L58 43L58 42L57 42L57 41L58 41L58 40L57 40L57 41L56 41L56 38L57 38L57 37L58 37L58 36L57 36L57 37L56 37L56 36L55 36L55 37L53 37L53 38L55 38L55 40L54 40L54 41L53 41L53 42L52 42L52 40L53 40L53 39L52 39L52 40L50 40L50 41L49 41L49 38L50 38L50 39L51 39L51 38L52 38L52 37L51 37L51 38L50 38L50 36L48 36L48 35L51 35L51 36L53 36L53 35L51 35L51 34L49 34L49 33L51 33L51 32L52 32L52 31L51 31L51 30L50 30L50 29L49 29L49 28L50 28L50 27L49 27L49 26L50 26L50 24L48 24L48 23L50 23L50 21L52 21L52 22L53 22L53 23L54 23L54 24L53 24L53 26L54 26L54 27L56 27L56 28L57 28L57 27L56 27L56 26L57 26L57 25L60 25L60 24L61 24L61 23L60 23L60 24L58 24L58 22L56 22L56 20L53 20L53 21L52 21L52 20L51 20L51 18L50 18L50 17L52 17L52 16L51 16L51 15L50 15L50 12L47 12L47 11L46 11L46 13L47 13L47 14L45 14L45 15L44 15L44 16L42 16L42 17L41 17L41 18L39 18L39 19L38 19L38 17L39 17L39 16L40 16L40 15L42 15L42 14L43 14L43 13L44 13L44 12L45 12L45 11L43 11L43 13L42 13L42 14L41 14L41 12L42 12L42 10L45 10L45 9L46 9L46 7ZM0 8L0 9L5 9L5 8ZM21 8L21 9L22 9L22 8ZM29 8L29 9L30 9L30 8ZM23 9L23 10L24 10L24 9ZM56 9L56 10L58 10L58 9ZM6 10L6 11L7 11L7 10ZM35 10L35 11L36 11L36 10ZM40 10L40 12L39 12L39 13L37 13L37 14L39 14L39 15L38 15L38 16L39 16L39 15L40 15L40 14L39 14L39 13L40 13L40 12L41 12L41 10ZM2 11L2 12L1 12L1 13L2 13L2 12L3 12L3 11ZM57 12L57 13L58 13L58 12ZM8 13L8 14L9 14L9 13ZM34 13L34 14L33 14L33 15L32 15L32 16L31 16L31 17L32 17L32 16L33 16L33 17L35 17L35 14L36 14L36 13ZM60 13L60 14L59 14L59 16L60 16L60 17L59 17L59 18L62 18L62 19L61 19L61 20L62 20L62 19L63 19L63 18L62 18L62 16L64 16L64 15L62 15L62 13ZM63 13L63 14L65 14L65 13ZM47 14L47 15L45 15L45 16L44 16L44 17L43 17L43 19L42 19L42 20L41 20L41 19L40 19L40 20L39 20L39 21L40 21L40 22L37 22L37 23L38 23L38 24L39 24L39 25L37 25L37 26L41 26L41 25L42 25L42 24L41 24L41 22L42 22L42 23L43 23L43 24L44 24L44 25L43 25L43 26L46 26L46 28L49 28L49 27L47 27L47 25L48 25L48 24L47 24L47 23L48 23L48 22L49 22L49 21L48 21L48 22L47 22L47 21L46 21L46 20L47 20L47 19L46 19L46 18L49 18L49 19L48 19L48 20L49 20L49 19L50 19L50 18L49 18L49 17L50 17L50 16L49 16L49 14ZM57 14L57 15L56 15L56 16L57 16L57 15L58 15L58 14ZM60 14L60 15L61 15L61 16L62 16L62 15L61 15L61 14ZM6 15L6 16L5 16L5 17L6 17L6 18L8 18L8 17L6 17L6 16L7 16L7 15ZM25 15L25 16L26 16L26 15ZM33 15L33 16L34 16L34 15ZM36 15L36 16L37 16L37 15ZM45 16L45 18L44 18L44 19L45 19L45 18L46 18L46 17L49 17L49 16ZM27 17L27 18L28 18L28 17ZM36 17L36 18L37 18L37 17ZM22 18L22 19L24 19L24 20L25 20L25 19L24 19L24 18ZM15 19L15 21L16 21L16 19ZM57 19L57 20L59 20L59 22L62 22L62 21L60 21L60 20L59 20L59 19ZM12 20L12 22L13 22L13 20ZM19 20L19 21L17 21L17 24L16 24L16 25L15 25L15 26L16 26L16 25L17 25L17 24L19 24L19 25L20 25L20 26L17 26L17 28L19 28L19 29L20 29L20 30L21 30L21 31L22 31L22 29L25 29L25 28L26 28L26 30L27 30L27 32L28 32L28 33L25 33L25 34L26 34L26 35L25 35L25 36L26 36L26 37L27 37L27 36L28 36L28 35L27 35L27 34L28 34L28 33L29 33L29 29L28 29L28 28L31 28L31 29L32 29L32 28L31 28L31 27L33 27L33 28L34 28L34 29L33 29L33 30L31 30L31 31L32 31L32 32L34 32L34 31L33 31L33 30L34 30L34 29L36 29L36 28L35 28L35 27L36 27L36 26L35 26L35 27L34 27L34 26L32 26L32 25L31 25L31 26L29 26L29 25L30 25L30 24L29 24L29 25L27 25L27 24L28 24L28 23L27 23L27 24L26 24L26 23L24 23L24 22L23 22L23 20ZM26 20L26 22L29 22L29 23L30 23L30 22L31 22L31 21L30 21L30 20L29 20L29 21L27 21L27 20ZM43 20L43 21L42 21L42 22L44 22L44 23L45 23L45 24L46 24L46 25L47 25L47 24L46 24L46 22L44 22L44 20ZM65 20L65 21L63 21L63 23L62 23L62 24L63 24L63 23L64 23L64 22L65 22L65 21L66 21L66 20ZM19 21L19 22L20 22L20 21ZM21 21L21 22L22 22L22 23L21 23L21 24L22 24L22 25L21 25L21 26L22 26L22 25L24 25L24 26L23 26L23 27L21 27L21 29L22 29L22 28L23 28L23 27L24 27L24 28L25 28L25 26L26 26L26 28L27 28L27 26L26 26L26 24L23 24L23 22L22 22L22 21ZM29 21L29 22L30 22L30 21ZM33 22L33 23L34 23L34 22ZM54 22L54 23L55 23L55 22ZM19 23L19 24L20 24L20 23ZM56 23L56 25L57 25L57 23ZM6 24L6 25L7 25L7 24ZM54 24L54 25L55 25L55 24ZM3 25L3 26L4 26L4 25ZM8 25L8 26L9 26L9 25ZM28 26L28 27L29 27L29 26ZM37 27L37 28L38 28L38 31L37 31L37 32L38 32L38 31L39 31L39 30L40 30L40 31L43 31L43 32L44 32L44 33L45 33L45 36L44 36L44 37L45 37L45 38L47 38L47 40L45 40L45 39L43 39L43 38L41 38L41 40L44 40L44 42L43 42L43 43L44 43L44 45L45 45L45 46L42 46L42 45L41 45L41 46L42 46L42 48L43 48L43 47L44 47L44 49L43 49L43 50L44 50L44 49L45 49L45 47L46 47L46 46L47 46L47 43L46 43L46 42L49 42L49 43L48 43L48 44L49 44L49 45L50 45L50 46L51 46L51 45L55 45L55 46L56 46L56 45L55 45L55 44L56 44L56 43L57 43L57 42L56 42L56 41L55 41L55 44L54 44L54 43L52 43L52 44L50 44L50 43L51 43L51 41L50 41L50 42L49 42L49 41L47 41L47 40L48 40L48 38L49 38L49 37L48 37L48 36L47 36L47 35L48 35L48 33L46 33L46 32L47 32L47 29L45 29L45 28L43 28L43 29L45 29L45 30L44 30L44 31L43 31L43 30L42 30L42 27ZM52 27L52 28L53 28L53 27ZM10 28L10 29L11 29L11 28ZM39 28L39 29L40 29L40 28ZM65 28L65 29L66 29L66 28ZM27 29L27 30L28 30L28 29ZM48 29L48 30L49 30L49 32L50 32L50 30L49 30L49 29ZM3 30L3 31L4 31L4 32L5 32L5 31L4 31L4 30ZM17 30L17 31L18 31L18 30ZM63 30L63 31L64 31L64 30ZM44 31L44 32L46 32L46 31ZM1 33L1 34L3 34L3 33ZM5 33L5 36L8 36L8 33ZM31 33L31 36L32 36L32 33ZM33 33L33 36L36 36L36 33ZM61 33L61 36L64 36L64 33ZM66 33L66 34L67 34L67 33ZM6 34L6 35L7 35L7 34ZM23 34L23 35L24 35L24 34ZM34 34L34 35L35 35L35 34ZM62 34L62 35L63 35L63 34ZM26 35L26 36L27 36L27 35ZM29 35L29 36L30 36L30 35ZM45 36L45 37L47 37L47 36ZM6 38L6 39L7 39L7 38ZM26 38L26 39L27 39L27 38ZM37 38L37 39L32 39L32 41L30 41L30 40L29 40L29 41L30 41L30 42L29 42L29 43L31 43L31 42L32 42L32 43L33 43L33 42L36 42L36 43L35 43L35 44L37 44L37 43L38 43L38 40L37 40L37 39L38 39L38 38ZM24 39L24 40L25 40L25 39ZM8 40L8 41L7 41L7 42L8 42L8 41L9 41L9 40ZM33 40L33 41L32 41L32 42L33 42L33 41L35 41L35 40ZM36 40L36 41L37 41L37 40ZM10 41L10 42L9 42L9 45L12 45L12 44L10 44L10 42L12 42L12 43L13 43L13 44L14 44L14 46L15 46L15 45L16 45L16 43L15 43L15 42L16 42L16 41L15 41L15 42L14 42L14 41ZM18 41L18 42L19 42L19 41ZM60 41L60 42L61 42L61 43L62 43L62 42L61 42L61 41ZM13 42L13 43L14 43L14 42ZM44 42L44 43L45 43L45 42ZM18 43L18 44L19 44L19 43ZM40 43L40 44L39 44L39 45L40 45L40 44L41 44L41 43ZM6 44L6 45L7 45L7 44ZM29 44L29 46L27 46L27 48L30 48L30 49L29 49L29 50L30 50L30 49L31 49L31 50L32 50L32 49L33 49L33 48L32 48L32 49L31 49L31 46L30 46L30 45L33 45L33 44ZM58 44L58 45L59 45L59 44ZM21 46L21 47L20 47L20 48L23 48L23 47L22 47L22 46ZM32 46L32 47L33 47L33 46ZM35 46L35 47L36 47L36 46ZM14 48L14 49L15 49L15 50L18 50L18 49L15 49L15 48ZM10 49L10 51L11 51L11 52L10 52L10 53L12 53L12 54L11 54L11 55L10 55L10 54L9 54L9 55L10 55L10 56L11 56L11 55L12 55L12 54L13 54L13 55L14 55L14 54L15 54L15 56L13 56L13 57L16 57L16 55L17 55L17 54L15 54L15 53L13 53L13 52L14 52L14 51L13 51L13 50L12 50L12 49ZM27 49L27 50L28 50L28 49ZM19 50L19 51L20 51L20 50ZM16 51L16 52L18 52L18 51ZM27 51L27 52L28 52L28 51ZM56 52L56 53L55 53L55 54L54 54L54 55L55 55L55 56L56 56L56 53L57 53L57 52ZM60 52L60 54L61 54L61 55L59 55L59 56L60 56L60 57L59 57L59 58L60 58L60 59L62 59L62 58L63 58L63 59L64 59L64 58L63 58L63 57L65 57L65 60L60 60L60 62L58 62L58 63L60 63L60 64L59 64L59 65L60 65L60 66L58 66L58 65L57 65L57 66L56 66L56 65L55 65L55 64L57 64L57 62L56 62L56 63L54 63L54 64L53 64L53 65L54 65L54 66L53 66L53 68L54 68L54 69L56 69L56 67L57 67L57 66L58 66L58 67L61 67L61 65L62 65L62 67L63 67L63 68L61 68L61 69L63 69L63 68L64 68L64 69L65 69L65 68L66 68L66 69L68 69L68 68L67 68L67 67L66 67L66 66L67 66L67 65L68 65L68 64L69 64L69 63L68 63L68 62L69 62L69 59L68 59L68 58L67 58L67 59L66 59L66 57L69 57L69 55L68 55L68 54L69 54L69 53L68 53L68 54L67 54L67 55L66 55L66 54L65 54L65 55L63 55L63 56L61 56L61 55L62 55L62 54L61 54L61 52ZM44 53L44 56L43 56L43 57L44 57L44 56L46 56L46 54L45 54L45 53ZM23 54L23 55L24 55L24 54ZM34 54L34 55L35 55L35 57L36 57L36 56L37 56L37 54L36 54L36 55L35 55L35 54ZM40 54L40 55L41 55L41 54ZM49 54L49 55L50 55L50 54ZM7 55L7 56L6 56L6 57L8 57L8 55ZM67 55L67 56L68 56L68 55ZM65 56L65 57L66 57L66 56ZM60 57L60 58L62 58L62 57ZM31 58L31 59L32 59L32 60L31 60L31 63L32 63L32 60L33 60L33 59L32 59L32 58ZM45 58L45 61L46 61L46 60L47 60L47 59L46 59L46 58ZM57 58L57 59L58 59L58 58ZM19 59L19 60L21 60L21 59ZM51 59L51 60L52 60L52 61L53 61L53 60L52 60L52 59ZM67 59L67 62L68 62L68 59ZM3 60L3 61L5 61L5 60ZM8 60L8 61L9 61L9 60ZM15 60L15 61L16 61L16 60ZM17 61L17 62L18 62L18 61ZM33 61L33 64L36 64L36 61ZM61 61L61 64L64 64L64 61ZM34 62L34 63L35 63L35 62ZM62 62L62 63L63 63L63 62ZM65 62L65 63L66 63L66 62ZM25 63L25 64L26 64L26 63ZM27 63L27 64L28 64L28 65L29 65L29 63ZM48 63L48 64L47 64L47 65L49 65L49 66L50 66L50 65L49 65L49 64L50 64L50 63ZM51 63L51 64L52 64L52 63ZM16 64L16 65L17 65L17 64ZM65 64L65 65L64 65L64 66L63 66L63 67L65 67L65 66L66 66L66 65L67 65L67 64ZM30 65L30 66L32 66L32 65ZM54 66L54 67L55 67L55 66ZM29 67L29 68L30 68L30 67ZM17 68L17 69L19 69L19 68ZM33 68L33 69L34 69L34 68ZM57 68L57 69L58 69L58 68ZM0 0L0 7L7 7L7 0ZM1 1L1 6L6 6L6 1ZM2 2L2 5L5 5L5 2ZM62 0L62 7L69 7L69 0ZM63 1L63 6L68 6L68 1ZM64 2L64 5L67 5L67 2ZM0 62L0 69L7 69L7 62ZM1 63L1 68L6 68L6 63ZM2 64L2 67L5 67L5 64Z" fill="#000000"/></g></g></svg>
