<?xml version="1.0" encoding="UTF-8"?>
<svg xmlns="http://www.w3.org/2000/svg" version="1.1" width="300" height="300" viewBox="0 0 300 300"><rect x="0" y="0" width="300" height="300" fill="#ffffff"/><g transform="scale(4.348)"><g transform="translate(0,0)"><path fill-rule="evenodd" d="M8 0L8 4L9 4L9 5L8 5L8 7L9 7L9 5L10 5L10 4L12 4L12 5L13 5L13 4L12 4L12 3L15 3L15 4L16 4L16 5L14 5L14 7L15 7L15 6L16 6L16 9L19 9L19 6L18 6L18 7L17 7L17 6L16 6L16 5L21 5L21 3L22 3L22 5L23 5L23 6L22 6L22 8L24 8L24 9L23 9L23 10L22 10L22 9L21 9L21 6L20 6L20 12L21 12L21 13L19 13L19 12L17 12L17 13L16 13L16 11L17 11L17 10L16 10L16 11L14 11L14 8L13 8L13 6L12 6L12 8L11 8L11 6L10 6L10 9L7 9L7 8L4 8L4 9L2 9L2 8L0 8L0 12L1 12L1 9L2 9L2 10L3 10L3 11L2 11L2 12L5 12L5 14L6 14L6 15L7 15L7 16L6 16L6 17L4 17L4 18L6 18L6 19L7 19L7 18L6 18L6 17L7 17L7 16L8 16L8 17L9 17L9 16L10 16L10 17L11 17L11 16L10 16L10 14L11 14L11 15L12 15L12 14L13 14L13 15L15 15L15 14L16 14L16 15L17 15L17 16L12 16L12 17L13 17L13 18L12 18L12 19L11 19L11 18L10 18L10 19L9 19L9 18L8 18L8 19L9 19L9 20L6 20L6 21L5 21L5 19L3 19L3 17L2 17L2 16L1 16L1 13L0 13L0 16L1 16L1 19L2 19L2 21L1 21L1 22L2 22L2 23L1 23L1 24L0 24L0 26L1 26L1 25L2 25L2 28L1 28L1 27L0 27L0 28L1 28L1 29L0 29L0 30L3 30L3 31L1 31L1 32L0 32L0 36L2 36L2 37L0 37L0 39L1 39L1 40L0 40L0 46L1 46L1 47L2 47L2 46L1 46L1 44L2 44L2 43L1 43L1 42L3 42L3 41L4 41L4 40L6 40L6 41L8 41L8 40L6 40L6 39L8 39L8 38L12 38L12 40L11 40L11 39L9 39L9 40L10 40L10 41L9 41L9 42L8 42L8 43L7 43L7 42L6 42L6 43L5 43L5 42L4 42L4 43L3 43L3 44L4 44L4 46L3 46L3 47L4 47L4 46L5 46L5 49L2 49L2 50L1 50L1 48L0 48L0 51L1 51L1 53L0 53L0 54L1 54L1 55L0 55L0 56L1 56L1 57L0 57L0 61L1 61L1 57L2 57L2 56L1 56L1 55L2 55L2 54L4 54L4 55L7 55L7 56L6 56L6 57L7 57L7 58L5 58L5 56L3 56L3 58L2 58L2 59L3 59L3 58L4 58L4 59L7 59L7 58L8 58L8 56L10 56L10 58L9 58L9 59L8 59L8 60L6 60L6 61L8 61L8 62L9 62L9 63L8 63L8 65L9 65L9 67L8 67L8 69L14 69L14 68L15 68L15 67L14 67L14 66L13 66L13 65L15 65L15 66L16 66L16 63L18 63L18 62L16 62L16 61L15 61L15 60L14 60L14 59L16 59L16 58L17 58L17 57L18 57L18 59L17 59L17 61L20 61L20 62L21 62L21 61L22 61L22 63L26 63L26 64L27 64L27 61L30 61L30 62L32 62L32 63L31 63L31 64L30 64L30 63L29 63L29 62L28 62L28 63L29 63L29 65L25 65L25 64L24 64L24 65L23 65L23 66L22 66L22 67L21 67L21 69L22 69L22 67L23 67L23 68L24 68L24 69L25 69L25 67L26 67L26 66L27 66L27 67L28 67L28 66L31 66L31 67L32 67L32 69L33 69L33 68L34 68L34 69L35 69L35 68L34 68L34 67L37 67L37 66L36 66L36 65L38 65L38 67L39 67L39 68L38 68L38 69L40 69L40 67L39 67L39 66L40 66L40 63L41 63L41 67L43 67L43 63L42 63L42 62L43 62L43 61L42 61L42 58L45 58L45 60L44 60L44 61L45 61L45 60L46 60L46 61L47 61L47 63L46 63L46 64L47 64L47 65L48 65L48 66L47 66L47 67L49 67L49 68L47 68L47 69L49 69L49 68L50 68L50 69L52 69L52 68L53 68L53 67L54 67L54 66L55 66L55 68L54 68L54 69L55 69L55 68L56 68L56 69L58 69L58 68L56 68L56 66L57 66L57 65L58 65L58 64L60 64L60 65L59 65L59 66L61 66L61 68L60 68L60 69L61 69L61 68L62 68L62 66L64 66L64 67L67 67L67 66L69 66L69 63L68 63L68 62L69 62L69 61L68 61L68 60L69 60L69 59L68 59L68 58L69 58L69 57L68 57L68 54L67 54L67 53L69 53L69 52L68 52L68 50L67 50L67 49L66 49L66 51L65 51L65 50L64 50L64 48L65 48L65 47L66 47L66 46L67 46L67 48L68 48L68 49L69 49L69 48L68 48L68 46L69 46L69 45L68 45L68 46L67 46L67 44L68 44L68 40L69 40L69 39L68 39L68 38L69 38L69 35L68 35L68 33L69 33L69 31L68 31L68 30L69 30L69 29L68 29L68 28L69 28L69 27L67 27L67 25L68 25L68 22L69 22L69 20L68 20L68 18L65 18L65 17L64 17L64 16L65 16L65 14L64 14L64 15L62 15L62 14L63 14L63 13L64 13L64 12L65 12L65 11L66 11L66 10L67 10L67 9L69 9L69 8L65 8L65 10L64 10L64 8L63 8L63 9L62 9L62 12L61 12L61 13L60 13L60 11L61 11L61 8L59 8L59 4L57 4L57 5L58 5L58 7L57 7L57 6L56 6L56 5L55 5L55 4L56 4L56 3L59 3L59 2L56 2L56 0L52 0L52 4L50 4L50 5L49 5L49 4L48 4L48 5L49 5L49 6L48 6L48 7L49 7L49 8L47 8L47 6L46 6L46 7L45 7L45 6L44 6L44 5L46 5L46 4L47 4L47 2L46 2L46 0L45 0L45 1L44 1L44 0L41 0L41 1L40 1L40 0L38 0L38 1L40 1L40 4L41 4L41 6L40 6L40 7L39 7L39 4L38 4L38 3L36 3L36 2L37 2L37 1L36 1L36 0L35 0L35 2L34 2L34 1L33 1L33 0L31 0L31 1L30 1L30 0L22 0L22 2L21 2L21 0L17 0L17 1L16 1L16 2L17 2L17 3L15 3L15 1L14 1L14 0L13 0L13 2L12 2L12 0L11 0L11 2L10 2L10 3L9 3L9 1L10 1L10 0ZM48 0L48 3L51 3L51 2L50 2L50 1L51 1L51 0L50 0L50 1L49 1L49 0ZM58 0L58 1L61 1L61 0ZM17 1L17 2L18 2L18 3L17 3L17 4L19 4L19 3L21 3L21 2L20 2L20 1L19 1L19 2L18 2L18 1ZM25 1L25 2L24 2L24 3L23 3L23 2L22 2L22 3L23 3L23 4L25 4L25 3L26 3L26 4L27 4L27 3L28 3L28 5L27 5L27 7L26 7L26 5L25 5L25 7L24 7L24 6L23 6L23 7L24 7L24 8L25 8L25 9L24 9L24 10L26 10L26 11L25 11L25 13L26 13L26 14L25 14L25 15L24 15L24 14L23 14L23 13L24 13L24 11L23 11L23 12L22 12L22 13L21 13L21 14L19 14L19 15L21 15L21 16L22 16L22 18L21 18L21 17L19 17L19 16L18 16L18 17L17 17L17 18L18 18L18 17L19 17L19 19L20 19L20 18L21 18L21 19L25 19L25 18L26 18L26 20L27 20L27 21L25 21L25 22L24 22L24 23L23 23L23 20L22 20L22 21L21 21L21 20L20 20L20 21L19 21L19 27L17 27L17 26L18 26L18 25L17 25L17 24L16 24L16 22L18 22L18 21L16 21L16 22L15 22L15 23L14 23L14 21L15 21L15 20L16 20L16 17L14 17L14 20L13 20L13 23L12 23L12 21L11 21L11 22L10 22L10 21L6 21L6 22L8 22L8 23L9 23L9 24L10 24L10 27L12 27L12 28L9 28L9 26L8 26L8 28L7 28L7 27L6 27L6 26L7 26L7 25L8 25L8 24L7 24L7 23L6 23L6 24L4 24L4 23L5 23L5 21L3 21L3 24L2 24L2 25L4 25L4 26L3 26L3 28L5 28L5 27L6 27L6 28L7 28L7 29L6 29L6 30L5 30L5 31L4 31L4 32L5 32L5 31L6 31L6 32L7 32L7 31L8 31L8 32L9 32L9 33L10 33L10 32L9 32L9 31L8 31L8 30L7 30L7 29L10 29L10 30L11 30L11 32L12 32L12 33L11 33L11 35L12 35L12 36L10 36L10 34L9 34L9 36L10 36L10 37L13 37L13 38L14 38L14 37L16 37L16 38L15 38L15 40L16 40L16 41L14 41L14 43L12 43L12 45L11 45L11 43L10 43L10 42L9 42L9 44L7 44L7 43L6 43L6 44L7 44L7 45L5 45L5 46L7 46L7 47L6 47L6 48L7 48L7 47L8 47L8 48L9 48L9 49L5 49L5 50L8 50L8 51L6 51L6 52L5 52L5 53L6 53L6 54L7 54L7 55L10 55L10 54L11 54L11 55L12 55L12 54L11 54L11 52L12 52L12 53L13 53L13 55L14 55L14 57L17 57L17 56L16 56L16 55L14 55L14 54L15 54L15 53L16 53L16 54L17 54L17 55L18 55L18 54L17 54L17 53L16 53L16 52L19 52L19 51L20 51L20 50L21 50L21 51L22 51L22 50L21 50L21 49L19 49L19 48L18 48L18 49L17 49L17 47L18 47L18 46L19 46L19 47L20 47L20 46L19 46L19 45L21 45L21 44L22 44L22 46L21 46L21 47L22 47L22 46L23 46L23 45L24 45L24 43L23 43L23 44L22 44L22 42L23 42L23 41L24 41L24 42L25 42L25 41L26 41L26 42L27 42L27 45L28 45L28 46L29 46L29 45L30 45L30 47L29 47L29 48L28 48L28 49L27 49L27 50L26 50L26 49L25 49L25 48L24 48L24 47L26 47L26 48L27 48L27 46L24 46L24 47L23 47L23 48L22 48L22 49L23 49L23 50L24 50L24 51L23 51L23 52L22 52L22 54L20 54L20 53L19 53L19 54L20 54L20 55L22 55L22 56L23 56L23 53L24 53L24 51L26 51L26 52L25 52L25 54L24 54L24 55L25 55L25 58L24 58L24 57L21 57L21 59L22 59L22 61L26 61L26 60L25 60L25 58L26 58L26 59L28 59L28 58L29 58L29 60L31 60L31 59L33 59L33 57L32 57L32 58L29 58L29 57L30 57L30 56L31 56L31 55L32 55L32 56L33 56L33 55L34 55L34 54L35 54L35 56L34 56L34 59L35 59L35 60L38 60L38 57L39 57L39 58L40 58L40 59L41 59L41 58L40 58L40 57L41 57L41 56L42 56L42 57L44 57L44 54L45 54L45 53L46 53L46 54L47 54L47 53L46 53L46 52L47 52L47 51L50 51L50 52L49 52L49 53L48 53L48 55L47 55L47 57L46 57L46 58L47 58L47 57L48 57L48 59L49 59L49 63L48 63L48 64L49 64L49 66L50 66L50 68L51 68L51 66L52 66L52 65L53 65L53 63L54 63L54 65L55 65L55 66L56 66L56 64L58 64L58 63L60 63L60 60L58 60L58 62L57 62L57 63L56 63L56 60L57 60L57 59L58 59L58 58L59 58L59 59L61 59L61 60L64 60L64 59L65 59L65 61L66 61L66 60L68 60L68 59L67 59L67 54L65 54L65 52L64 52L64 50L62 50L62 49L63 49L63 48L64 48L64 47L65 47L65 46L66 46L66 44L67 44L67 41L66 41L66 40L68 40L68 39L64 39L64 38L65 38L65 37L66 37L66 38L68 38L68 35L67 35L67 32L68 32L68 31L65 31L65 30L67 30L67 27L65 27L65 26L64 26L64 25L66 25L66 24L67 24L67 22L68 22L68 20L67 20L67 19L65 19L65 20L64 20L64 17L63 17L63 19L62 19L62 15L61 15L61 14L62 14L62 13L63 13L63 12L64 12L64 11L63 11L63 12L62 12L62 13L61 13L61 14L60 14L60 13L59 13L59 12L58 12L58 11L57 11L57 9L56 9L56 6L55 6L55 8L54 8L54 6L53 6L53 8L52 8L52 6L51 6L51 5L50 5L50 6L49 6L49 7L50 7L50 8L49 8L49 12L50 12L50 13L49 13L49 14L50 14L50 15L49 15L49 16L50 16L50 17L48 17L48 15L47 15L47 17L46 17L46 16L45 16L45 17L46 17L46 18L47 18L47 17L48 17L48 19L47 19L47 20L48 20L48 19L49 19L49 20L50 20L50 21L46 21L46 22L48 22L48 23L47 23L47 25L46 25L46 26L47 26L47 27L46 27L46 28L45 28L45 27L43 27L43 26L41 26L41 25L42 25L42 24L43 24L43 25L44 25L44 24L45 24L45 23L44 23L44 20L46 20L46 19L44 19L44 18L41 18L41 17L42 17L42 16L40 16L40 19L39 19L39 18L38 18L38 17L39 17L39 16L38 16L38 13L39 13L39 15L42 15L42 13L43 13L43 12L42 12L42 10L41 10L41 9L43 9L43 11L45 11L45 12L46 12L46 14L45 14L45 13L44 13L44 15L43 15L43 17L44 17L44 15L46 15L46 14L47 14L47 12L46 12L46 10L47 10L47 8L45 8L45 7L44 7L44 6L43 6L43 8L41 8L41 7L42 7L42 6L41 6L41 7L40 7L40 11L41 11L41 14L40 14L40 13L39 13L39 12L38 12L38 11L39 11L39 10L38 10L38 8L37 8L37 12L36 12L36 13L37 13L37 14L35 14L35 13L34 13L34 11L36 11L36 9L35 9L35 10L34 10L34 9L32 9L32 8L30 8L30 9L29 9L29 7L30 7L30 6L31 6L31 7L32 7L32 6L31 6L31 5L32 5L32 4L34 4L34 2L33 2L33 1L32 1L32 4L31 4L31 3L30 3L30 2L28 2L28 1ZM41 1L41 2L42 2L42 3L41 3L41 4L43 4L43 5L44 5L44 4L45 4L45 3L46 3L46 2L45 2L45 3L44 3L44 2L42 2L42 1ZM53 1L53 2L54 2L54 1ZM26 2L26 3L27 3L27 2ZM55 2L55 3L56 3L56 2ZM35 3L35 4L36 4L36 3ZM43 3L43 4L44 4L44 3ZM53 3L53 4L52 4L52 5L53 5L53 4L54 4L54 3ZM60 3L60 5L61 5L61 3ZM30 4L30 5L28 5L28 7L27 7L27 8L26 8L26 10L27 10L27 12L26 12L26 13L27 13L27 16L26 16L26 15L25 15L25 17L23 17L23 18L25 18L25 17L26 17L26 18L27 18L27 17L28 17L28 16L29 16L29 18L28 18L28 19L27 19L27 20L28 20L28 21L27 21L27 23L26 23L26 25L25 25L25 23L24 23L24 24L22 24L22 23L21 23L21 21L20 21L20 24L21 24L21 25L20 25L20 26L21 26L21 28L20 28L20 27L19 27L19 28L17 28L17 29L20 29L20 30L22 30L22 31L21 31L21 32L20 32L20 31L19 31L19 32L18 32L18 33L17 33L17 34L18 34L18 35L20 35L20 34L21 34L21 33L22 33L22 34L23 34L23 36L24 36L24 34L27 34L27 35L28 35L28 34L29 34L29 37L30 37L30 39L29 39L29 38L28 38L28 36L26 36L26 35L25 35L25 37L23 37L23 38L22 38L22 36L21 36L21 37L20 37L20 36L16 36L16 32L17 32L17 31L18 31L18 30L17 30L17 31L16 31L16 32L15 32L15 31L14 31L14 29L15 29L15 30L16 30L16 29L15 29L15 28L13 28L13 29L12 29L12 32L13 32L13 31L14 31L14 32L15 32L15 34L14 34L14 33L13 33L13 34L12 34L12 35L14 35L14 36L13 36L13 37L14 37L14 36L16 36L16 37L17 37L17 41L20 41L20 42L16 42L16 43L15 43L15 44L13 44L13 45L12 45L12 47L11 47L11 46L10 46L10 44L9 44L9 45L8 45L8 46L10 46L10 47L11 47L11 48L10 48L10 49L9 49L9 50L10 50L10 51L8 51L8 52L9 52L9 54L10 54L10 51L11 51L11 50L12 50L12 52L13 52L13 53L15 53L15 52L16 52L16 51L19 51L19 49L18 49L18 50L16 50L16 48L15 48L15 49L14 49L14 48L12 48L12 47L15 47L15 46L16 46L16 47L17 47L17 46L16 46L16 45L15 45L15 44L17 44L17 45L19 45L19 44L20 44L20 43L21 43L21 42L22 42L22 41L20 41L20 40L21 40L21 39L22 39L22 40L23 40L23 39L24 39L24 41L25 41L25 40L26 40L26 41L27 41L27 42L28 42L28 43L29 43L29 42L28 42L28 41L27 41L27 39L26 39L26 38L25 38L25 37L27 37L27 38L28 38L28 39L29 39L29 41L30 41L30 42L31 42L31 41L30 41L30 40L31 40L31 36L30 36L30 34L31 34L31 32L32 32L32 38L33 38L33 39L32 39L32 40L33 40L33 41L32 41L32 44L30 44L30 45L31 45L31 46L32 46L32 47L33 47L33 49L32 49L32 48L31 48L31 47L30 47L30 48L29 48L29 50L28 50L28 51L27 51L27 52L26 52L26 54L25 54L25 55L27 55L27 56L26 56L26 58L28 58L28 57L27 57L27 56L29 56L29 55L30 55L30 54L32 54L32 53L33 53L33 54L34 54L34 53L33 53L33 51L34 51L34 52L35 52L35 51L36 51L36 49L34 49L34 47L33 47L33 45L34 45L34 46L35 46L35 47L36 47L36 48L37 48L37 49L38 49L38 50L39 50L39 51L37 51L37 53L38 53L38 52L39 52L39 55L38 55L38 56L37 56L37 57L36 57L36 58L37 58L37 57L38 57L38 56L39 56L39 57L40 57L40 55L42 55L42 54L44 54L44 53L45 53L45 50L46 50L46 51L47 51L47 50L46 50L46 49L45 49L45 48L47 48L47 49L50 49L50 51L51 51L51 50L52 50L52 52L51 52L51 53L49 53L49 55L48 55L48 57L49 57L49 55L51 55L51 57L50 57L50 58L51 58L51 60L50 60L50 62L51 62L51 63L49 63L49 64L50 64L50 66L51 66L51 65L52 65L52 63L53 63L53 62L55 62L55 60L56 60L56 59L55 59L55 57L54 57L54 59L52 59L52 58L51 58L51 57L52 57L52 56L55 56L55 54L56 54L56 53L57 53L57 55L58 55L58 56L56 56L56 58L58 58L58 57L59 57L59 55L58 55L58 53L59 53L59 54L60 54L60 55L61 55L61 59L62 59L62 58L64 58L64 55L65 55L65 54L64 54L64 53L63 53L63 51L59 51L59 50L61 50L61 48L62 48L62 46L63 46L63 47L64 47L64 45L63 45L63 44L64 44L64 41L65 41L65 40L64 40L64 39L63 39L63 40L64 40L64 41L63 41L63 43L61 43L61 41L62 41L62 38L60 38L60 39L59 39L59 38L58 38L58 37L57 37L57 34L58 34L58 36L59 36L59 37L65 37L65 34L66 34L66 32L63 32L63 31L64 31L64 30L63 30L63 29L64 29L64 27L63 27L63 24L62 24L62 23L61 23L61 21L62 21L62 22L63 22L63 21L64 21L64 20L60 20L60 19L59 19L59 18L61 18L61 17L59 17L59 16L60 16L60 15L59 15L59 14L58 14L58 12L57 12L57 11L56 11L56 13L55 13L55 10L56 10L56 9L52 9L52 8L50 8L50 10L52 10L52 11L50 11L50 12L51 12L51 13L50 13L50 14L51 14L51 15L52 15L52 16L51 16L51 17L50 17L50 18L49 18L49 19L50 19L50 20L51 20L51 21L50 21L50 24L49 24L49 23L48 23L48 25L47 25L47 26L49 26L49 27L47 27L47 28L46 28L46 29L45 29L45 28L44 28L44 29L43 29L43 28L42 28L42 27L40 27L40 24L41 24L41 23L40 23L40 24L39 24L39 23L36 23L36 25L35 25L35 23L34 23L34 22L33 22L33 21L34 21L34 20L35 20L35 21L36 21L36 22L37 22L37 21L38 21L38 20L39 20L39 19L38 19L38 18L37 18L37 20L36 20L36 19L34 19L34 18L36 18L36 17L34 17L34 16L37 16L37 17L38 17L38 16L37 16L37 15L35 15L35 14L34 14L34 15L33 15L33 17L34 17L34 18L33 18L33 19L34 19L34 20L32 20L32 19L31 19L31 20L30 20L30 21L29 21L29 18L31 18L31 17L32 17L32 14L33 14L33 12L32 12L32 13L31 13L31 11L32 11L32 10L31 10L31 9L30 9L30 10L29 10L29 11L30 11L30 12L29 12L29 13L31 13L31 15L28 15L28 13L27 13L27 12L28 12L28 7L29 7L29 6L30 6L30 5L31 5L31 4ZM33 5L33 8L36 8L36 5ZM37 5L37 7L38 7L38 5ZM34 6L34 7L35 7L35 6ZM50 6L50 7L51 7L51 6ZM60 6L60 7L61 7L61 6ZM12 8L12 9L11 9L11 10L7 10L7 9L5 9L5 10L4 10L4 11L6 11L6 12L7 12L7 13L6 13L6 14L9 14L9 13L10 13L10 12L11 12L11 14L12 14L12 13L14 13L14 11L13 11L13 8ZM44 8L44 9L45 9L45 10L46 10L46 9L45 9L45 8ZM58 8L58 10L59 10L59 8ZM6 10L6 11L7 11L7 12L9 12L9 11L7 11L7 10ZM21 10L21 11L22 11L22 10ZM30 10L30 11L31 11L31 10ZM33 10L33 11L34 11L34 10ZM11 11L11 12L12 12L12 11ZM52 11L52 13L51 13L51 14L52 14L52 15L53 15L53 16L52 16L52 17L51 17L51 18L50 18L50 19L51 19L51 18L52 18L52 21L51 21L51 24L50 24L50 25L49 25L49 26L50 26L50 25L51 25L51 24L52 24L52 25L53 25L53 27L54 27L54 24L55 24L55 25L56 25L56 24L57 24L57 25L58 25L58 26L59 26L59 23L60 23L60 24L61 24L61 23L60 23L60 22L59 22L59 19L58 19L58 18L59 18L59 17L58 17L58 16L59 16L59 15L58 15L58 14L57 14L57 13L56 13L56 14L53 14L53 13L54 13L54 12L53 12L53 11ZM37 12L37 13L38 13L38 12ZM66 12L66 13L67 13L67 12ZM68 12L68 14L67 14L67 16L66 16L66 17L67 17L67 16L68 16L68 17L69 17L69 15L68 15L68 14L69 14L69 12ZM3 13L3 14L4 14L4 13ZM17 14L17 15L18 15L18 14ZM21 14L21 15L22 15L22 16L23 16L23 14ZM3 15L3 16L5 16L5 15ZM8 15L8 16L9 16L9 15ZM55 15L55 16L53 16L53 18L54 18L54 19L53 19L53 21L52 21L52 24L53 24L53 21L54 21L54 23L55 23L55 24L56 24L56 22L58 22L58 21L57 21L57 20L58 20L58 19L57 19L57 18L58 18L58 17L57 17L57 16L58 16L58 15L57 15L57 16L56 16L56 15ZM55 16L55 17L56 17L56 16ZM55 18L55 22L56 22L56 18ZM41 19L41 21L42 21L42 23L43 23L43 19ZM31 20L31 21L30 21L30 23L29 23L29 21L28 21L28 26L27 26L27 27L25 27L25 26L24 26L24 25L21 25L21 26L22 26L22 29L23 29L23 27L24 27L24 28L25 28L25 29L26 29L26 28L28 28L28 27L29 27L29 25L30 25L30 24L31 24L31 27L33 27L33 28L32 28L32 29L31 29L31 30L30 30L30 29L27 29L27 31L28 31L28 32L26 32L26 31L25 31L25 30L23 30L23 31L22 31L22 33L23 33L23 34L24 34L24 33L29 33L29 34L30 34L30 33L29 33L29 32L30 32L30 31L32 31L32 32L38 32L38 33L37 33L37 37L36 37L36 38L37 38L37 37L38 37L38 36L39 36L39 35L40 35L40 37L39 37L39 38L38 38L38 39L34 39L34 41L35 41L35 40L37 40L37 42L38 42L38 43L36 43L36 42L34 42L34 43L33 43L33 44L32 44L32 45L33 45L33 44L34 44L34 45L35 45L35 46L36 46L36 47L37 47L37 46L38 46L38 44L39 44L39 43L41 43L41 44L43 44L43 46L44 46L44 44L45 44L45 45L46 45L46 46L45 46L45 47L44 47L44 48L43 48L43 49L44 49L44 50L45 50L45 49L44 49L44 48L45 48L45 47L46 47L46 46L47 46L47 44L48 44L48 43L49 43L49 42L50 42L50 44L49 44L49 45L50 45L50 44L52 44L52 46L51 46L51 48L52 48L52 50L53 50L53 48L54 48L54 47L56 47L56 44L55 44L55 42L54 42L54 43L53 43L53 42L52 42L52 41L53 41L53 40L52 40L52 38L50 38L50 37L48 37L48 35L50 35L50 36L51 36L51 35L52 35L52 34L53 34L53 33L54 33L54 32L53 32L53 31L56 31L56 30L57 30L57 29L56 29L56 28L57 28L57 26L55 26L55 29L56 29L56 30L53 30L53 31L52 31L52 30L50 30L50 29L48 29L48 30L47 30L47 29L46 29L46 30L47 30L47 32L49 32L49 34L48 34L48 33L46 33L46 32L45 32L45 33L44 33L44 31L45 31L45 30L44 30L44 31L40 31L40 33L44 33L44 34L43 34L43 35L42 35L42 36L41 36L41 34L38 34L38 33L39 33L39 32L38 32L38 31L39 31L39 30L38 30L38 29L40 29L40 30L42 30L42 28L40 28L40 27L39 27L39 28L38 28L38 27L37 27L37 26L36 26L36 27L35 27L35 28L34 28L34 27L33 27L33 26L32 26L32 24L33 24L33 25L34 25L34 23L32 23L32 22L31 22L31 21L32 21L32 20ZM66 21L66 22L67 22L67 21ZM9 22L9 23L10 23L10 24L11 24L11 23L10 23L10 22ZM13 23L13 24L12 24L12 25L11 25L11 26L12 26L12 27L13 27L13 26L14 26L14 25L15 25L15 27L16 27L16 26L17 26L17 25L15 25L15 24L14 24L14 23ZM31 23L31 24L32 24L32 23ZM57 23L57 24L58 24L58 23ZM6 24L6 25L5 25L5 26L6 26L6 25L7 25L7 24ZM13 24L13 25L14 25L14 24ZM38 24L38 25L39 25L39 24ZM61 25L61 26L60 26L60 28L59 28L59 27L58 27L58 34L59 34L59 32L62 32L62 31L63 31L63 30L62 30L62 29L61 29L61 30L60 30L60 31L59 31L59 29L60 29L60 28L61 28L61 26L62 26L62 25ZM50 27L50 28L52 28L52 29L53 29L53 28L52 28L52 27ZM62 27L62 28L63 28L63 27ZM36 28L36 29L38 29L38 28ZM3 29L3 30L4 30L4 29ZM33 29L33 31L34 31L34 30L35 30L35 29ZM6 30L6 31L7 31L7 30ZM28 30L28 31L29 31L29 30ZM24 31L24 32L23 32L23 33L24 33L24 32L25 32L25 31ZM49 31L49 32L50 32L50 31ZM51 31L51 33L50 33L50 35L51 35L51 33L52 33L52 31ZM1 32L1 35L2 35L2 36L3 36L3 37L2 37L2 39L3 39L3 40L4 40L4 39L5 39L5 38L8 38L8 37L5 37L5 38L4 38L4 36L3 36L3 35L4 35L4 33L3 33L3 32ZM19 32L19 33L20 33L20 32ZM55 32L55 34L54 34L54 36L52 36L52 37L56 37L56 38L54 38L54 40L55 40L55 39L56 39L56 38L57 38L57 37L56 37L56 32ZM2 33L2 35L3 35L3 33ZM5 33L5 36L8 36L8 33ZM33 33L33 36L36 36L36 33ZM45 33L45 34L44 34L44 37L45 37L45 38L43 38L43 37L40 37L40 38L41 38L41 41L40 41L40 39L39 39L39 40L38 40L38 42L43 42L43 39L45 39L45 40L44 40L44 43L43 43L43 44L44 44L44 43L45 43L45 44L46 44L46 43L45 43L45 42L46 42L46 37L47 37L47 41L48 41L48 42L47 42L47 43L48 43L48 42L49 42L49 41L50 41L50 42L51 42L51 41L52 41L52 40L50 40L50 38L49 38L49 40L48 40L48 37L47 37L47 35L48 35L48 34L46 34L46 33ZM61 33L61 36L64 36L64 33ZM6 34L6 35L7 35L7 34ZM34 34L34 35L35 35L35 34ZM45 34L45 37L46 37L46 34ZM62 34L62 35L63 35L63 34ZM19 37L19 39L20 39L20 37ZM33 37L33 38L35 38L35 37ZM13 39L13 40L14 40L14 39ZM1 40L1 41L2 41L2 40ZM57 40L57 41L58 41L58 42L57 42L57 44L58 44L58 46L57 46L57 47L58 47L58 48L57 48L57 49L55 49L55 50L56 50L56 51L57 51L57 53L58 53L58 52L59 52L59 53L60 53L60 52L59 52L59 51L57 51L57 49L58 49L58 50L59 50L59 49L60 49L60 48L59 48L59 47L61 47L61 46L62 46L62 45L61 45L61 43L59 43L59 42L60 42L60 41L61 41L61 40L59 40L59 41L58 41L58 40ZM11 41L11 42L13 42L13 41ZM35 43L35 45L37 45L37 44L36 44L36 43ZM52 43L52 44L53 44L53 43ZM25 44L25 45L26 45L26 44ZM54 44L54 45L53 45L53 46L55 46L55 44ZM13 45L13 46L14 46L14 45ZM39 45L39 47L38 47L38 48L39 48L39 47L41 47L41 48L40 48L40 54L41 54L41 53L42 53L42 52L43 52L43 53L44 53L44 51L43 51L43 50L42 50L42 51L41 51L41 49L42 49L42 45L41 45L41 46L40 46L40 45ZM58 46L58 47L59 47L59 46ZM47 47L47 48L49 48L49 47ZM52 47L52 48L53 48L53 47ZM11 48L11 49L10 49L10 50L11 50L11 49L12 49L12 48ZM23 48L23 49L24 49L24 50L25 50L25 49L24 49L24 48ZM13 49L13 50L14 50L14 52L15 52L15 50L14 50L14 49ZM30 49L30 50L29 50L29 51L30 51L30 50L31 50L31 51L32 51L32 49ZM2 50L2 53L1 53L1 54L2 54L2 53L4 53L4 52L3 52L3 50ZM66 51L66 53L67 53L67 51ZM6 52L6 53L7 53L7 52ZM27 52L27 53L28 53L28 55L29 55L29 53L28 53L28 52ZM52 52L52 53L53 53L53 54L51 54L51 55L54 55L54 53L53 53L53 52ZM55 52L55 53L56 53L56 52ZM61 52L61 53L62 53L62 54L61 54L61 55L64 55L64 54L63 54L63 53L62 53L62 52ZM11 57L11 59L10 59L10 60L9 60L9 62L10 62L10 63L11 63L11 64L13 64L13 63L12 63L12 62L13 62L13 61L14 61L14 63L15 63L15 61L14 61L14 60L13 60L13 61L12 61L12 62L11 62L11 59L13 59L13 57ZM19 57L19 58L20 58L20 57ZM65 57L65 58L66 58L66 57ZM22 58L22 59L23 59L23 60L24 60L24 59L23 59L23 58ZM18 59L18 60L19 60L19 59ZM46 59L46 60L47 60L47 59ZM3 60L3 61L5 61L5 60ZM39 60L39 62L38 62L38 61L37 61L37 62L38 62L38 63L40 63L40 62L41 62L41 60ZM52 60L52 61L51 61L51 62L52 62L52 61L54 61L54 60ZM33 61L33 64L36 64L36 61ZM61 61L61 64L64 64L64 61ZM67 61L67 62L66 62L66 63L65 63L65 66L66 66L66 65L67 65L67 64L68 64L68 63L67 63L67 62L68 62L68 61ZM34 62L34 63L35 63L35 62ZM62 62L62 63L63 63L63 62ZM19 63L19 64L18 64L18 65L17 65L17 66L19 66L19 67L18 67L18 68L16 68L16 69L20 69L20 68L19 68L19 67L20 67L20 66L21 66L21 65L22 65L22 64L21 64L21 63ZM44 63L44 69L46 69L46 67L45 67L45 63ZM19 64L19 65L20 65L20 64ZM31 64L31 65L32 65L32 66L33 66L33 67L34 67L34 66L35 66L35 65L34 65L34 66L33 66L33 65L32 65L32 64ZM38 64L38 65L39 65L39 64ZM11 65L11 66L10 66L10 67L9 67L9 68L10 68L10 67L11 67L11 68L12 68L12 67L13 67L13 66L12 66L12 65ZM11 66L11 67L12 67L12 66ZM23 66L23 67L25 67L25 66ZM29 67L29 69L31 69L31 68L30 68L30 67ZM26 68L26 69L27 69L27 68ZM36 68L36 69L37 69L37 68ZM41 68L41 69L43 69L43 68ZM68 68L68 69L69 69L69 68ZM0 0L0 7L7 7L7 0ZM1 1L1 6L6 6L6 1ZM2 2L2 5L5 5L5 2ZM62 0L62 7L69 7L69 0ZM63 1L63 6L68 6L68 1ZM64 2L64 5L67 5L67 2ZM0 62L0 69L7 69L7 62ZM1 63L1 68L6 68L6 63ZM2 64L2 67L5 67L5 64Z" fill="#000000"/></g></g></svg>
