<?xml version="1.0" encoding="UTF-8"?>
<svg xmlns="http://www.w3.org/2000/svg" version="1.1" width="300" height="300" viewBox="0 0 300 300"><rect x="0" y="0" width="300" height="300" fill="#ffffff"/><g transform="scale(4.348)"><g transform="translate(0,0)"><path fill-rule="evenodd" d="M11 0L11 2L13 2L13 3L15 3L15 4L13 4L13 5L12 5L12 3L11 3L11 5L12 5L12 7L11 7L11 6L10 6L10 7L9 7L9 5L10 5L10 4L9 4L9 3L10 3L10 1L8 1L8 2L9 2L9 3L8 3L8 4L9 4L9 5L8 5L8 7L9 7L9 8L6 8L6 9L5 9L5 8L0 8L0 9L2 9L2 10L1 10L1 13L0 13L0 14L1 14L1 13L2 13L2 11L3 11L3 10L6 10L6 11L7 11L7 12L6 12L6 13L7 13L7 14L5 14L5 15L4 15L4 13L5 13L5 12L4 12L4 13L3 13L3 14L2 14L2 17L1 17L1 18L0 18L0 19L1 19L1 18L2 18L2 19L3 19L3 18L4 18L4 17L5 17L5 19L4 19L4 20L0 20L0 22L1 22L1 21L4 21L4 22L2 22L2 24L1 24L1 23L0 23L0 25L3 25L3 26L1 26L1 27L2 27L2 28L1 28L1 29L0 29L0 32L1 32L1 30L3 30L3 31L4 31L4 32L3 32L3 34L4 34L4 35L1 35L1 34L2 34L2 33L0 33L0 35L1 35L1 36L0 36L0 37L2 37L2 38L0 38L0 39L3 39L3 38L5 38L5 39L8 39L8 40L6 40L6 41L10 41L10 42L8 42L8 43L10 43L10 42L11 42L11 44L12 44L12 40L11 40L11 41L10 41L10 40L9 40L9 39L8 39L8 38L9 38L9 36L11 36L11 37L10 37L10 38L11 38L11 39L12 39L12 36L11 36L11 35L13 35L13 39L14 39L14 42L16 42L16 41L15 41L15 40L17 40L17 41L18 41L18 42L17 42L17 43L18 43L18 44L17 44L17 46L15 46L15 44L16 44L16 43L15 43L15 44L14 44L14 43L13 43L13 45L14 45L14 47L11 47L11 46L6 46L6 45L8 45L8 44L6 44L6 43L7 43L7 42L5 42L5 44L4 44L4 42L3 42L3 41L4 41L4 40L3 40L3 41L2 41L2 40L0 40L0 41L1 41L1 43L0 43L0 44L1 44L1 43L2 43L2 45L0 45L0 48L1 48L1 46L4 46L4 47L3 47L3 48L4 48L4 49L1 49L1 50L2 50L2 54L4 54L4 53L7 53L7 52L8 52L8 51L10 51L10 52L9 52L9 53L8 53L8 56L9 56L9 59L10 59L10 57L11 57L11 56L9 56L9 55L11 55L11 52L13 52L13 53L14 53L14 52L16 52L16 50L15 50L15 51L14 51L14 52L13 52L13 51L11 51L11 50L14 50L14 49L10 49L10 48L14 48L14 47L15 47L15 48L16 48L16 49L18 49L18 51L17 51L17 53L19 53L19 55L18 55L18 54L17 54L17 57L16 57L16 56L14 56L14 55L13 55L13 54L12 54L12 56L13 56L13 57L12 57L12 58L11 58L11 59L12 59L12 61L13 61L13 62L14 62L14 64L12 64L12 65L14 65L14 64L15 64L15 63L16 63L16 65L15 65L15 67L16 67L16 65L17 65L17 66L19 66L19 67L20 67L20 66L19 66L19 65L20 65L20 64L22 64L22 63L23 63L23 64L24 64L24 63L23 63L23 62L25 62L25 63L26 63L26 64L25 64L25 65L23 65L23 66L21 66L21 68L20 68L20 69L21 69L21 68L23 68L23 67L24 67L24 68L25 68L25 69L26 69L26 68L27 68L27 67L29 67L29 68L28 68L28 69L29 69L29 68L30 68L30 69L32 69L32 67L33 67L33 68L34 68L34 69L39 69L39 68L38 68L38 67L39 67L39 66L44 66L44 67L41 67L41 68L45 68L45 69L49 69L49 68L50 68L50 69L51 69L51 67L50 67L50 65L51 65L51 66L52 66L52 65L51 65L51 64L49 64L49 63L48 63L48 61L49 61L49 62L50 62L50 61L51 61L51 60L53 60L53 59L54 59L54 62L53 62L53 63L54 63L54 64L53 64L53 67L55 67L55 66L57 66L57 67L56 67L56 68L55 68L55 69L56 69L56 68L57 68L57 69L58 69L58 68L59 68L59 67L61 67L61 68L62 68L62 69L65 69L65 68L67 68L67 69L68 69L68 68L67 68L67 66L65 66L65 64L67 64L67 65L68 65L68 62L67 62L67 60L68 60L68 61L69 61L69 59L68 59L68 58L67 58L67 59L65 59L65 60L63 60L63 59L64 59L64 58L63 58L63 59L61 59L61 58L62 58L62 57L63 57L63 56L67 56L67 57L69 57L69 56L68 56L68 54L69 54L69 53L66 53L66 52L68 52L68 51L69 51L69 50L68 50L68 45L69 45L69 43L68 43L68 42L69 42L69 39L68 39L68 36L67 36L67 35L68 35L68 34L69 34L69 33L68 33L68 34L67 34L67 33L66 33L66 32L67 32L67 31L68 31L68 32L69 32L69 31L68 31L68 30L69 30L69 27L68 27L68 26L69 26L69 23L68 23L68 18L69 18L69 16L68 16L68 13L67 13L67 11L68 11L68 10L67 10L67 9L68 9L68 8L67 8L67 9L66 9L66 8L65 8L65 10L64 10L64 8L63 8L63 11L62 11L62 8L61 8L61 6L60 6L60 7L59 7L59 4L58 4L58 3L59 3L59 2L57 2L57 0L56 0L56 2L57 2L57 4L56 4L56 3L55 3L55 0L52 0L52 1L51 1L51 2L53 2L53 1L54 1L54 3L55 3L55 4L52 4L52 5L53 5L53 6L52 6L52 7L51 7L51 6L50 6L50 7L49 7L49 5L50 5L50 4L49 4L49 3L50 3L50 2L49 2L49 3L47 3L47 2L45 2L45 4L44 4L44 3L42 3L42 4L39 4L39 6L38 6L38 4L37 4L37 3L38 3L38 0L35 0L35 1L34 1L34 2L37 2L37 3L35 3L35 4L34 4L34 3L32 3L32 4L31 4L31 3L30 3L30 2L31 2L31 1L32 1L32 0L31 0L31 1L30 1L30 0L29 0L29 1L30 1L30 2L29 2L29 4L30 4L30 5L29 5L29 6L28 6L28 7L27 7L27 5L25 5L25 4L26 4L26 3L27 3L27 4L28 4L28 3L27 3L27 2L28 2L28 0L26 0L26 1L27 1L27 2L26 2L26 3L25 3L25 0L23 0L23 1L22 1L22 2L23 2L23 3L24 3L24 4L22 4L22 3L17 3L17 4L16 4L16 3L15 3L15 1L16 1L16 2L20 2L20 1L19 1L19 0L17 0L17 1L16 1L16 0ZM39 0L39 3L41 3L41 2L40 2L40 1L42 1L42 2L43 2L43 0ZM44 0L44 1L45 1L45 0ZM49 0L49 1L50 1L50 0ZM58 0L58 1L61 1L61 0ZM60 3L60 5L61 5L61 3ZM15 4L15 5L14 5L14 6L13 6L13 7L14 7L14 6L15 6L15 8L14 8L14 9L16 9L16 10L15 10L15 11L16 11L16 12L12 12L12 11L13 11L13 9L12 9L12 8L11 8L11 7L10 7L10 8L9 8L9 9L12 9L12 10L11 10L11 11L10 11L10 12L7 12L7 13L9 13L9 14L10 14L10 15L5 15L5 17L6 17L6 18L7 18L7 17L9 17L9 18L8 18L8 19L5 19L5 20L7 20L7 21L6 21L6 22L4 22L4 23L5 23L5 25L4 25L4 26L5 26L5 27L6 27L6 28L7 28L7 29L6 29L6 30L8 30L8 31L9 31L9 29L11 29L11 28L14 28L14 27L15 27L15 28L16 28L16 29L15 29L15 30L12 30L12 31L15 31L15 32L17 32L17 33L14 33L14 32L10 32L10 33L9 33L9 34L10 34L10 35L11 35L11 34L12 34L12 33L14 33L14 34L13 34L13 35L14 35L14 37L15 37L15 38L14 38L14 39L17 39L17 40L19 40L19 41L20 41L20 42L19 42L19 44L20 44L20 43L21 43L21 42L23 42L23 43L22 43L22 44L21 44L21 45L19 45L19 46L18 46L18 47L17 47L17 48L18 48L18 49L23 49L23 48L25 48L25 50L24 50L24 51L22 51L22 50L21 50L21 52L20 52L20 55L22 55L22 54L23 54L23 52L24 52L24 53L25 53L25 52L26 52L26 56L25 56L25 55L23 55L23 56L25 56L25 57L27 57L27 59L29 59L29 60L31 60L31 61L32 61L32 60L33 60L33 59L32 59L32 57L27 57L27 55L28 55L28 56L29 56L29 55L32 55L32 52L31 52L31 53L27 53L27 51L28 51L28 52L29 52L29 51L33 51L33 50L32 50L32 48L31 48L31 47L32 47L32 46L31 46L31 47L30 47L30 48L29 48L29 49L28 49L28 50L27 50L27 46L30 46L30 45L29 45L29 42L31 42L31 43L32 43L32 40L31 40L31 41L28 41L28 40L27 40L27 38L28 38L28 39L36 39L36 37L35 37L35 38L34 38L34 37L32 37L32 38L30 38L30 37L29 37L29 35L30 35L30 36L32 36L32 35L30 35L30 34L29 34L29 33L28 33L28 31L27 31L27 30L29 30L29 29L30 29L30 32L31 32L31 33L32 33L32 32L33 32L33 29L30 29L30 28L31 28L31 27L32 27L32 28L34 28L34 29L35 29L35 30L37 30L37 31L36 31L36 32L37 32L37 33L38 33L38 34L39 34L39 35L40 35L40 36L38 36L38 38L37 38L37 39L38 39L38 42L37 42L37 41L36 41L36 43L38 43L38 44L35 44L35 43L34 43L34 41L35 41L35 40L34 40L34 41L33 41L33 44L31 44L31 45L33 45L33 49L35 49L35 47L37 47L37 49L38 49L38 50L37 50L37 51L38 51L38 50L39 50L39 53L38 53L38 54L36 54L36 53L37 53L37 52L36 52L36 53L35 53L35 50L34 50L34 52L33 52L33 55L41 55L41 53L43 53L43 54L42 54L42 55L45 55L45 54L46 54L46 56L44 56L44 57L45 57L45 58L43 58L43 59L39 59L39 57L41 57L41 56L39 56L39 57L38 57L38 60L37 60L37 61L38 61L38 63L37 63L37 65L36 65L36 66L37 66L37 65L38 65L38 66L39 66L39 65L41 65L41 64L44 64L44 66L49 66L49 65L47 65L47 64L48 64L48 63L46 63L46 62L47 62L47 61L45 61L45 60L47 60L47 58L48 58L48 57L46 57L46 56L47 56L47 55L50 55L50 56L51 56L51 57L50 57L50 58L49 58L49 61L50 61L50 59L53 59L53 57L54 57L54 55L55 55L55 56L56 56L56 57L55 57L55 58L56 58L56 59L55 59L55 60L56 60L56 61L55 61L55 62L54 62L54 63L55 63L55 64L54 64L54 65L55 65L55 64L56 64L56 65L57 65L57 66L58 66L58 67L57 67L57 68L58 68L58 67L59 67L59 66L60 66L60 63L57 63L57 64L56 64L56 62L59 62L59 61L60 61L60 60L61 60L61 59L60 59L60 60L59 60L59 59L58 59L58 60L59 60L59 61L57 61L57 58L60 58L60 57L62 57L62 56L63 56L63 55L65 55L65 51L68 51L68 50L66 50L66 49L67 49L67 48L65 48L65 47L66 47L66 45L63 45L63 44L62 44L62 45L61 45L61 41L62 41L62 43L64 43L64 44L65 44L65 43L66 43L66 42L65 42L65 41L64 41L64 40L63 40L63 39L67 39L67 42L68 42L68 39L67 39L67 38L66 38L66 36L65 36L65 37L64 37L64 38L62 38L62 37L61 37L61 38L62 38L62 39L60 39L60 40L58 40L58 41L57 41L57 40L55 40L55 38L56 38L56 39L59 39L59 38L60 38L60 35L59 35L59 33L60 33L60 32L59 32L59 31L58 31L58 32L59 32L59 33L57 33L57 32L56 32L56 33L55 33L55 31L53 31L53 32L51 32L51 31L52 31L52 30L51 30L51 29L55 29L55 30L56 30L56 31L57 31L57 30L59 30L59 29L60 29L60 28L61 28L61 29L62 29L62 30L60 30L60 31L63 31L63 32L64 32L64 31L67 31L67 30L68 30L68 28L66 28L66 27L65 27L65 26L64 26L64 25L65 25L65 23L67 23L67 25L68 25L68 23L67 23L67 22L66 22L66 21L65 21L65 18L66 18L66 16L65 16L65 14L67 14L67 13L65 13L65 12L64 12L64 11L63 11L63 12L62 12L62 11L61 11L61 12L60 12L60 13L59 13L59 11L60 11L60 10L59 10L59 9L60 9L60 8L59 8L59 9L57 9L57 7L58 7L58 4L57 4L57 7L56 7L56 6L55 6L55 7L56 7L56 9L55 9L55 10L53 10L53 9L54 9L54 6L53 6L53 7L52 7L52 8L51 8L51 7L50 7L50 10L47 10L47 7L48 7L48 6L47 6L47 7L46 7L46 6L45 6L45 7L44 7L44 4L43 4L43 5L40 5L40 6L39 6L39 7L38 7L38 6L37 6L37 9L38 9L38 10L37 10L37 11L38 11L38 12L36 12L36 11L35 11L35 10L36 10L36 9L35 9L35 10L34 10L34 9L32 9L32 8L31 8L31 7L32 7L32 5L30 5L30 6L29 6L29 7L30 7L30 8L31 8L31 9L27 9L27 7L26 7L26 6L25 6L25 5L22 5L22 4L19 4L19 5L20 5L20 6L19 6L19 7L20 7L20 10L19 10L19 9L18 9L18 8L17 8L17 7L18 7L18 5L17 5L17 7L16 7L16 4ZM45 4L45 5L48 5L48 4ZM55 4L55 5L56 5L56 4ZM21 5L21 6L20 6L20 7L21 7L21 6L22 6L22 7L23 7L23 8L24 8L24 9L23 9L23 10L24 10L24 9L25 9L25 10L26 10L26 11L25 11L25 12L24 12L24 11L22 11L22 10L20 10L20 11L22 11L22 12L24 12L24 13L22 13L22 14L23 14L23 16L24 16L24 17L23 17L23 18L25 18L25 19L24 19L24 20L23 20L23 22L22 22L22 21L21 21L21 22L22 22L22 23L21 23L21 24L22 24L22 25L21 25L21 26L22 26L22 25L24 25L24 26L23 26L23 27L24 27L24 28L23 28L23 29L21 29L21 31L22 31L22 32L21 32L21 33L22 33L22 35L23 35L23 37L21 37L21 38L20 38L20 37L19 37L19 35L20 35L20 34L19 34L19 33L20 33L20 32L19 32L19 30L20 30L20 29L19 29L19 28L20 28L20 27L17 27L17 26L20 26L20 25L19 25L19 24L20 24L20 23L19 23L19 22L20 22L20 21L19 21L19 20L22 20L22 19L21 19L21 18L22 18L22 17L18 17L18 16L15 16L15 15L16 15L16 13L15 13L15 15L14 15L14 14L13 14L13 13L10 13L10 14L11 14L11 15L10 15L10 16L9 16L9 17L10 17L10 16L12 16L12 14L13 14L13 15L14 15L14 16L13 16L13 17L12 17L12 18L10 18L10 19L8 19L8 21L9 21L9 24L8 24L8 22L6 22L6 23L7 23L7 24L6 24L6 25L5 25L5 26L6 26L6 27L7 27L7 26L8 26L8 28L9 28L9 26L10 26L10 25L9 25L9 24L12 24L12 25L11 25L11 26L12 26L12 27L13 27L13 26L15 26L15 27L16 27L16 28L17 28L17 30L16 30L16 31L17 31L17 32L18 32L18 33L17 33L17 39L19 39L19 38L20 38L20 41L22 41L22 40L21 40L21 39L22 39L22 38L24 38L24 39L23 39L23 40L24 40L24 41L23 41L23 42L24 42L24 41L25 41L25 42L26 42L26 43L25 43L25 44L24 44L24 43L23 43L23 44L24 44L24 45L23 45L23 46L21 46L21 47L19 47L19 48L21 48L21 47L26 47L26 46L27 46L27 45L28 45L28 43L27 43L27 42L28 42L28 41L27 41L27 42L26 42L26 40L25 40L25 37L26 37L26 38L27 38L27 37L26 37L26 34L25 34L25 33L26 33L26 32L27 32L27 31L25 31L25 32L24 32L24 30L25 30L25 29L26 29L26 28L27 28L27 29L28 29L28 27L29 27L29 28L30 28L30 27L31 27L31 23L37 23L37 24L36 24L36 26L35 26L35 28L37 28L37 30L38 30L38 31L37 31L37 32L38 32L38 31L39 31L39 30L38 30L38 29L39 29L39 28L38 28L38 27L43 27L43 28L41 28L41 31L40 31L40 32L39 32L39 34L40 34L40 32L43 32L43 33L41 33L41 34L43 34L43 33L44 33L44 35L43 35L43 37L42 37L42 36L41 36L41 37L39 37L39 40L41 40L41 41L40 41L40 44L39 44L39 45L40 45L40 44L41 44L41 47L38 47L38 45L36 45L36 46L37 46L37 47L38 47L38 49L39 49L39 48L42 48L42 49L40 49L40 50L42 50L42 51L45 51L45 53L44 53L44 52L43 52L43 53L44 53L44 54L45 54L45 53L46 53L46 52L47 52L47 54L48 54L48 53L49 53L49 54L50 54L50 52L47 52L47 51L45 51L45 49L50 49L50 48L51 48L51 47L53 47L53 48L54 48L54 49L53 49L53 50L56 50L56 51L57 51L57 52L58 52L58 51L57 51L57 49L56 49L56 48L57 48L57 47L58 47L58 46L57 46L57 45L59 45L59 46L61 46L61 47L62 47L62 48L60 48L60 49L59 49L59 48L58 48L58 49L59 49L59 52L60 52L60 49L61 49L61 52L63 52L63 53L62 53L62 54L61 54L61 53L59 53L59 54L55 54L55 53L56 53L56 52L54 52L54 51L53 51L53 52L54 52L54 53L51 53L51 55L53 55L53 54L55 54L55 55L58 55L58 56L57 56L57 57L56 57L56 58L57 58L57 57L58 57L58 56L59 56L59 55L62 55L62 54L63 54L63 53L64 53L64 51L62 51L62 48L64 48L64 49L63 49L63 50L64 50L64 49L65 49L65 48L64 48L64 46L63 46L63 45L62 45L62 46L61 46L61 45L59 45L59 44L60 44L60 43L58 43L58 42L55 42L55 41L54 41L54 40L53 40L53 39L52 39L52 40L50 40L50 39L51 39L51 38L49 38L49 36L47 36L47 35L46 35L46 36L45 36L45 33L46 33L46 32L47 32L47 33L51 33L51 34L49 34L49 35L51 35L51 34L54 34L54 35L53 35L53 36L54 36L54 37L52 37L52 38L55 38L55 37L56 37L56 38L57 38L57 37L58 37L58 35L57 35L57 34L56 34L56 35L55 35L55 33L51 33L51 32L49 32L49 30L50 30L50 29L49 29L49 28L50 28L50 25L49 25L49 24L48 24L48 23L47 23L47 24L46 24L46 22L44 22L44 19L45 19L45 18L44 18L44 19L43 19L43 17L44 17L44 16L45 16L45 17L47 17L47 18L46 18L46 20L47 20L47 21L49 21L49 23L50 23L50 24L53 24L53 26L57 26L57 27L58 27L58 28L59 28L59 26L62 26L62 25L63 25L63 24L64 24L64 23L65 23L65 21L63 21L63 22L62 22L62 21L61 21L61 20L60 20L60 21L59 21L59 22L58 22L58 20L57 20L57 19L56 19L56 20L55 20L55 21L53 21L53 23L50 23L50 21L51 21L51 20L47 20L47 19L50 19L50 17L51 17L51 18L52 18L52 20L53 20L53 19L55 19L55 17L56 17L56 18L57 18L57 17L56 17L56 15L58 15L58 14L56 14L56 13L53 13L53 14L54 14L54 15L53 15L53 16L55 16L55 17L53 17L53 18L52 18L52 17L51 17L51 16L52 16L52 15L49 15L49 14L50 14L50 13L51 13L51 14L52 14L52 13L51 13L51 12L53 12L53 11L52 11L52 10L50 10L50 13L49 13L49 11L45 11L45 9L46 9L46 7L45 7L45 9L44 9L44 7L43 7L43 6L42 6L42 8L43 8L43 9L40 9L40 8L41 8L41 6L40 6L40 8L39 8L39 10L43 10L43 11L41 11L41 13L39 13L39 15L41 15L41 14L42 14L42 15L43 15L43 14L44 14L44 16L42 16L42 17L41 17L41 19L42 19L42 20L41 20L41 21L39 21L39 20L38 20L38 21L36 21L36 20L35 20L35 21L34 21L34 22L31 22L31 23L26 23L26 22L27 22L27 21L25 21L25 20L26 20L26 18L27 18L27 17L28 17L28 15L29 15L29 14L31 14L31 15L30 15L30 16L29 16L29 17L30 17L30 18L31 18L31 19L29 19L29 18L28 18L28 19L27 19L27 20L28 20L28 21L29 21L29 22L30 22L30 21L33 21L33 20L32 20L32 19L34 19L34 18L35 18L35 19L38 19L38 16L37 16L37 17L36 17L36 16L35 16L35 17L34 17L34 16L33 16L33 18L31 18L31 16L32 16L32 14L34 14L34 15L38 15L38 13L37 13L37 14L34 14L34 13L36 13L36 12L34 12L34 13L32 13L32 11L31 11L31 10L26 10L26 7L25 7L25 6L24 6L24 7L23 7L23 6L22 6L22 5ZM33 5L33 8L36 8L36 5ZM30 6L30 7L31 7L31 6ZM34 6L34 7L35 7L35 6ZM16 8L16 9L17 9L17 11L18 11L18 12L17 12L17 15L18 15L18 14L20 14L20 15L19 15L19 16L22 16L22 15L21 15L21 14L20 14L20 12L19 12L19 10L18 10L18 9L17 9L17 8ZM21 8L21 9L22 9L22 8ZM6 9L6 10L8 10L8 11L9 11L9 10L8 10L8 9ZM43 9L43 10L44 10L44 9ZM56 9L56 10L55 10L55 11L54 11L54 12L57 12L57 13L58 13L58 12L57 12L57 11L59 11L59 10L57 10L57 9ZM33 10L33 11L34 11L34 10ZM56 10L56 11L57 11L57 10ZM65 10L65 11L66 11L66 10ZM26 11L26 12L25 12L25 13L27 13L27 14L26 14L26 16L25 16L25 17L27 17L27 14L29 14L29 13L27 13L27 11ZM29 11L29 12L30 12L30 11ZM39 11L39 12L40 12L40 11ZM43 11L43 12L42 12L42 13L43 13L43 12L44 12L44 14L45 14L45 16L47 16L47 15L48 15L48 16L49 16L49 17L50 17L50 16L49 16L49 15L48 15L48 13L45 13L45 11ZM61 12L61 13L60 13L60 14L59 14L59 19L61 19L61 18L62 18L62 19L63 19L63 18L65 18L65 17L63 17L63 18L62 18L62 16L64 16L64 15L63 15L63 14L65 14L65 13L64 13L64 12L63 12L63 14L62 14L62 12ZM31 13L31 14L32 14L32 13ZM24 14L24 15L25 15L25 14ZM55 14L55 15L56 15L56 14ZM61 14L61 15L60 15L60 16L62 16L62 14ZM0 15L0 16L1 16L1 15ZM3 16L3 17L2 17L2 18L3 18L3 17L4 17L4 16ZM6 16L6 17L7 17L7 16ZM14 17L14 18L13 18L13 19L14 19L14 18L15 18L15 17ZM16 17L16 18L18 18L18 17ZM35 17L35 18L36 18L36 17ZM39 17L39 19L40 19L40 17ZM19 18L19 19L17 19L17 20L19 20L19 19L20 19L20 18ZM10 19L10 21L11 21L11 19ZM15 19L15 21L14 21L14 20L12 20L12 22L11 22L11 23L13 23L13 25L12 25L12 26L13 26L13 25L14 25L14 24L16 24L16 25L15 25L15 26L16 26L16 25L17 25L17 24L16 24L16 23L15 23L15 22L16 22L16 19ZM28 19L28 20L29 20L29 19ZM42 20L42 21L43 21L43 20ZM56 20L56 21L55 21L55 24L56 24L56 25L57 25L57 26L59 26L59 25L62 25L62 22L59 22L59 25L58 25L58 24L57 24L57 23L58 23L58 22L56 22L56 21L57 21L57 20ZM13 21L13 22L14 22L14 21ZM18 21L18 22L17 22L17 23L18 23L18 24L19 24L19 23L18 23L18 22L19 22L19 21ZM38 21L38 22L37 22L37 23L38 23L38 22L39 22L39 21ZM23 22L23 24L24 24L24 23L25 23L25 25L27 25L27 26L26 26L26 27L25 27L25 28L26 28L26 27L28 27L28 26L30 26L30 25L29 25L29 24L26 24L26 23L25 23L25 22ZM41 22L41 23L39 23L39 24L38 24L38 25L37 25L37 26L41 26L41 24L42 24L42 23L43 23L43 24L44 24L44 25L43 25L43 26L44 26L44 27L45 27L45 26L46 26L46 27L48 27L48 28L47 28L47 29L45 29L45 28L43 28L43 29L44 29L44 30L45 30L45 31L48 31L48 30L47 30L47 29L48 29L48 28L49 28L49 27L48 27L48 26L49 26L49 25L48 25L48 24L47 24L47 25L46 25L46 24L44 24L44 22ZM60 23L60 24L61 24L61 23ZM7 24L7 25L6 25L6 26L7 26L7 25L8 25L8 26L9 26L9 25L8 25L8 24ZM32 24L32 25L33 25L33 26L32 26L32 27L33 27L33 26L34 26L34 25L35 25L35 24ZM47 25L47 26L48 26L48 25ZM51 25L51 27L52 27L52 25ZM63 26L63 27L62 27L62 29L63 29L63 31L64 31L64 29L63 29L63 27L64 27L64 26ZM10 27L10 28L11 28L11 27ZM21 27L21 28L22 28L22 27ZM2 28L2 29L5 29L5 28ZM55 28L55 29L56 29L56 28ZM65 28L65 29L66 29L66 28ZM4 30L4 31L5 31L5 30ZM17 30L17 31L18 31L18 30ZM22 30L22 31L23 31L23 30ZM31 30L31 32L32 32L32 30ZM42 30L42 31L43 31L43 32L44 32L44 33L45 33L45 32L44 32L44 31L43 31L43 30ZM6 31L6 32L7 32L7 31ZM34 31L34 32L35 32L35 31ZM22 32L22 33L23 33L23 32ZM5 33L5 36L8 36L8 33ZM10 33L10 34L11 34L11 33ZM27 33L27 34L28 34L28 33ZM33 33L33 36L36 36L36 33ZM61 33L61 36L64 36L64 33ZM6 34L6 35L7 35L7 34ZM15 34L15 35L16 35L16 34ZM24 34L24 35L25 35L25 34ZM34 34L34 35L35 35L35 34ZM62 34L62 35L63 35L63 34ZM65 34L65 35L66 35L66 34ZM56 35L56 37L57 37L57 35ZM2 36L2 37L3 37L3 36ZM24 36L24 37L25 37L25 36ZM44 36L44 38L43 38L43 40L42 40L42 41L43 41L43 40L44 40L44 41L45 41L45 42L44 42L44 43L43 43L43 44L42 44L42 45L43 45L43 47L42 47L42 48L43 48L43 47L44 47L44 49L43 49L43 50L44 50L44 49L45 49L45 47L46 47L46 48L48 48L48 47L47 47L47 46L48 46L48 45L47 45L47 44L48 44L48 43L49 43L49 44L50 44L50 46L54 46L54 48L55 48L55 46L56 46L56 45L57 45L57 43L56 43L56 45L55 45L55 46L54 46L54 45L53 45L53 44L55 44L55 42L54 42L54 43L53 43L53 40L52 40L52 41L50 41L50 40L49 40L49 39L48 39L48 38L47 38L47 37L45 37L45 36ZM50 36L50 37L51 37L51 36ZM6 37L6 38L7 38L7 37ZM41 38L41 39L42 39L42 38ZM44 38L44 40L47 40L47 41L48 41L48 42L49 42L49 43L50 43L50 41L49 41L49 40L47 40L47 38ZM60 40L60 41L61 41L61 40ZM46 42L46 43L44 43L44 44L43 44L43 45L44 45L44 46L45 46L45 45L46 45L46 44L47 44L47 42ZM51 42L51 44L52 44L52 42ZM26 43L26 45L25 45L25 46L26 46L26 45L27 45L27 43ZM67 43L67 44L68 44L68 43ZM3 44L3 45L4 45L4 46L5 46L5 49L4 49L4 50L3 50L3 52L7 52L7 51L8 51L8 50L9 50L9 47L8 47L8 48L7 48L7 47L6 47L6 46L5 46L5 45L4 45L4 44ZM44 44L44 45L45 45L45 44ZM34 46L34 47L35 47L35 46ZM62 46L62 47L63 47L63 46ZM49 47L49 48L50 48L50 47ZM6 48L6 49L5 49L5 50L4 50L4 51L5 51L5 50L6 50L6 51L7 51L7 50L6 50L6 49L7 49L7 48ZM30 48L30 49L29 49L29 50L30 50L30 49L31 49L31 48ZM19 50L19 51L20 51L20 50ZM25 50L25 51L24 51L24 52L25 52L25 51L27 51L27 50ZM48 50L48 51L51 51L51 50ZM0 51L0 52L1 52L1 51ZM40 51L40 52L41 52L41 51ZM0 53L0 55L1 55L1 56L2 56L2 55L1 55L1 53ZM9 53L9 54L10 54L10 53ZM39 53L39 54L40 54L40 53ZM5 54L5 55L7 55L7 54ZM3 56L3 57L1 57L1 58L0 58L0 61L1 61L1 58L2 58L2 59L3 59L3 58L4 58L4 59L7 59L7 58L8 58L8 57L7 57L7 56L5 56L5 57L4 57L4 56ZM19 56L19 57L20 57L20 58L21 58L21 57L22 57L22 58L24 58L24 57L22 57L22 56ZM33 56L33 58L34 58L34 59L35 59L35 58L36 58L36 57L35 57L35 56ZM42 56L42 57L43 57L43 56ZM5 57L5 58L7 58L7 57ZM13 57L13 58L12 58L12 59L14 59L14 60L13 60L13 61L14 61L14 62L16 62L16 63L18 63L18 62L19 62L19 61L20 61L20 63L22 63L22 62L21 62L21 61L25 61L25 62L27 62L27 63L28 63L28 64L27 64L27 65L25 65L25 66L24 66L24 67L27 67L27 66L30 66L30 67L32 67L32 66L34 66L34 67L35 67L35 68L36 68L36 67L35 67L35 65L32 65L32 64L31 64L31 65L29 65L29 63L28 63L28 62L29 62L29 61L27 61L27 60L26 60L26 58L25 58L25 60L24 60L24 59L19 59L19 58L17 58L17 60L16 60L16 59L15 59L15 58L16 58L16 57L15 57L15 58L14 58L14 57ZM30 58L30 59L31 59L31 60L32 60L32 59L31 59L31 58ZM45 58L45 59L46 59L46 58ZM43 59L43 60L41 60L41 61L40 61L40 62L41 62L41 63L43 63L43 62L44 62L44 59ZM3 60L3 61L5 61L5 60ZM6 60L6 61L8 61L8 63L10 63L10 62L11 62L11 60L10 60L10 62L9 62L9 60ZM17 60L17 61L19 61L19 60ZM20 60L20 61L21 61L21 60ZM25 60L25 61L26 61L26 60ZM65 60L65 61L66 61L66 60ZM33 61L33 64L36 64L36 61ZM61 61L61 64L64 64L64 61ZM31 62L31 63L32 63L32 62ZM34 62L34 63L35 63L35 62ZM62 62L62 63L63 63L63 62ZM65 62L65 63L66 63L66 62ZM38 63L38 64L39 64L39 63ZM44 63L44 64L45 64L45 65L46 65L46 64L45 64L45 63ZM8 64L8 69L9 69L9 65L10 65L10 67L14 67L14 66L11 66L11 65L10 65L10 64ZM17 64L17 65L18 65L18 64ZM57 64L57 65L59 65L59 64ZM31 65L31 66L32 66L32 65ZM61 65L61 67L62 67L62 68L63 68L63 67L62 67L62 66L64 66L64 68L65 68L65 66L64 66L64 65ZM17 67L17 68L16 68L16 69L17 69L17 68L18 68L18 69L19 69L19 68L18 68L18 67ZM45 67L45 68L46 68L46 67ZM47 67L47 68L49 68L49 67ZM12 68L12 69L15 69L15 68ZM53 68L53 69L54 69L54 68ZM0 0L0 7L7 7L7 0ZM1 1L1 6L6 6L6 1ZM2 2L2 5L5 5L5 2ZM62 0L62 7L69 7L69 0ZM63 1L63 6L68 6L68 1ZM64 2L64 5L67 5L67 2ZM0 62L0 69L7 69L7 62ZM1 63L1 68L6 68L6 63ZM2 64L2 67L5 67L5 64Z" fill="#000000"/></g></g></svg>
