<?xml version="1.0" encoding="UTF-8"?>
<svg xmlns="http://www.w3.org/2000/svg" version="1.1" width="300" height="300" viewBox="0 0 300 300"><rect x="0" y="0" width="300" height="300" fill="#ffffff"/><g transform="scale(4.348)"><g transform="translate(0,0)"><path fill-rule="evenodd" d="M11 0L11 1L10 1L10 2L13 2L13 1L12 1L12 0ZM14 0L14 3L15 3L15 4L13 4L13 3L12 3L12 4L11 4L11 6L10 6L10 7L11 7L11 6L12 6L12 9L10 9L10 8L6 8L6 9L5 9L5 8L0 8L0 9L1 9L1 11L0 11L0 13L2 13L2 15L1 15L1 14L0 14L0 15L1 15L1 16L0 16L0 23L1 23L1 26L3 26L3 24L2 24L2 23L1 23L1 16L2 16L2 19L3 19L3 20L6 20L6 21L8 21L8 22L9 22L9 23L7 23L7 22L4 22L4 21L3 21L3 23L4 23L4 24L5 24L5 23L7 23L7 24L6 24L6 25L4 25L4 26L6 26L6 27L7 27L7 28L4 28L4 27L3 27L3 28L2 28L2 27L0 27L0 28L1 28L1 29L0 29L0 30L2 30L2 31L3 31L3 32L4 32L4 33L3 33L3 35L4 35L4 37L3 37L3 36L2 36L2 34L0 34L0 39L1 39L1 40L0 40L0 41L1 41L1 42L0 42L0 44L2 44L2 43L1 43L1 42L2 42L2 40L3 40L3 41L4 41L4 42L5 42L5 45L1 45L1 46L0 46L0 47L1 47L1 49L4 49L4 50L5 50L5 52L3 52L3 53L5 53L5 52L6 52L6 53L7 53L7 52L9 52L9 51L10 51L10 50L9 50L9 51L8 51L8 46L6 46L6 47L7 47L7 48L6 48L6 49L7 49L7 50L5 50L5 49L4 49L4 48L5 48L5 45L8 45L8 42L5 42L5 40L6 40L6 41L7 41L7 40L6 40L6 39L8 39L8 37L9 37L9 36L12 36L12 38L11 38L11 37L10 37L10 38L9 38L9 40L10 40L10 41L11 41L11 42L9 42L9 43L13 43L13 44L11 44L11 45L9 45L9 46L10 46L10 47L11 47L11 48L9 48L9 49L12 49L12 50L11 50L11 53L12 53L12 55L13 55L13 56L14 56L14 58L12 58L12 56L11 56L11 54L9 54L9 53L8 53L8 54L6 54L6 55L4 55L4 54L1 54L1 52L2 52L2 51L3 51L3 50L2 50L2 51L1 51L1 50L0 50L0 61L1 61L1 58L2 58L2 59L3 59L3 58L2 58L2 57L3 57L3 56L2 56L2 55L4 55L4 56L5 56L5 58L4 58L4 59L7 59L7 60L6 60L6 61L7 61L7 60L13 60L13 61L12 61L12 63L10 63L10 61L8 61L8 63L10 63L10 64L8 64L8 69L9 69L9 68L10 68L10 69L11 69L11 68L10 68L10 66L9 66L9 65L11 65L11 64L12 64L12 66L11 66L11 67L12 67L12 68L13 68L13 69L15 69L15 68L16 68L16 67L17 67L17 69L21 69L21 68L18 68L18 67L17 67L17 66L19 66L19 67L20 67L20 66L19 66L19 65L20 65L20 64L19 64L19 63L21 63L21 64L23 64L23 63L26 63L26 64L25 64L25 65L23 65L23 66L21 66L21 67L23 67L23 66L25 66L25 65L28 65L28 66L27 66L27 67L24 67L24 68L25 68L25 69L26 69L26 68L27 68L27 67L28 67L28 68L29 68L29 69L32 69L32 68L33 68L33 69L34 69L34 68L33 68L33 65L35 65L35 66L34 66L34 67L35 67L35 68L36 68L36 69L38 69L38 68L37 68L37 67L39 67L39 68L40 68L40 67L41 67L41 69L42 69L42 67L41 67L41 66L44 66L44 68L43 68L43 69L44 69L44 68L47 68L47 69L49 69L49 68L50 68L50 69L51 69L51 68L52 68L52 67L51 67L51 68L50 68L50 65L51 65L51 66L55 66L55 67L54 67L54 68L53 68L53 69L55 69L55 68L57 68L57 67L58 67L58 66L57 66L57 65L60 65L60 66L59 66L59 68L58 68L58 69L59 69L59 68L60 68L60 69L63 69L63 68L64 68L64 67L63 67L63 66L64 66L64 65L65 65L65 64L67 64L67 65L66 65L66 66L67 66L67 65L68 65L68 64L67 64L67 62L69 62L69 61L67 61L67 60L69 60L69 59L68 59L68 54L69 54L69 53L66 53L66 52L68 52L68 50L69 50L69 49L67 49L67 51L61 51L61 50L62 50L62 49L63 49L63 50L64 50L64 49L65 49L65 48L67 48L67 47L68 47L68 48L69 48L69 47L68 47L68 46L69 46L69 44L68 44L68 42L69 42L69 40L68 40L68 38L67 38L67 37L68 37L68 36L69 36L69 35L68 35L68 34L69 34L69 33L68 33L68 34L67 34L67 33L66 33L66 32L69 32L69 31L64 31L64 30L65 30L65 29L63 29L63 28L64 28L64 27L65 27L65 28L67 28L67 27L68 27L68 29L67 29L67 30L69 30L69 27L68 27L68 25L69 25L69 23L68 23L68 22L67 22L67 21L68 21L68 18L69 18L69 17L68 17L68 16L67 16L67 15L68 15L68 14L65 14L65 13L63 13L63 11L64 11L64 12L66 12L66 13L67 13L67 11L66 11L66 10L69 10L69 9L68 9L68 8L67 8L67 9L66 9L66 8L65 8L65 9L64 9L64 8L63 8L63 9L64 9L64 10L63 10L63 11L62 11L62 8L61 8L61 6L60 6L60 7L59 7L59 4L58 4L58 7L57 7L57 6L56 6L56 8L55 8L55 9L51 9L51 8L50 8L50 7L51 7L51 6L52 6L52 7L53 7L53 5L54 5L54 7L55 7L55 5L57 5L57 4L56 4L56 1L55 1L55 0L53 0L53 2L55 2L55 4L53 4L53 5L52 5L52 4L51 4L51 3L50 3L50 4L49 4L49 2L50 2L50 0L49 0L49 2L48 2L48 3L47 3L47 4L49 4L49 6L48 6L48 7L47 7L47 6L46 6L46 5L44 5L44 3L45 3L45 4L46 4L46 3L45 3L45 2L44 2L44 3L43 3L43 0L39 0L39 1L38 1L38 0L36 0L36 1L35 1L35 2L37 2L37 1L38 1L38 2L41 2L41 4L40 4L40 5L39 5L39 6L38 6L38 5L37 5L37 4L38 4L38 3L37 3L37 4L36 4L36 3L35 3L35 4L32 4L32 2L33 2L33 1L32 1L32 2L31 2L31 1L30 1L30 0L28 0L28 1L27 1L27 2L28 2L28 3L29 3L29 4L30 4L30 5L27 5L27 6L26 6L26 2L24 2L24 1L25 1L25 0L21 0L21 1L22 1L22 2L21 2L21 3L19 3L19 2L20 2L20 1L19 1L19 0L17 0L17 1L15 1L15 0ZM44 0L44 1L45 1L45 0ZM47 0L47 1L48 1L48 0ZM51 0L51 2L52 2L52 0ZM57 0L57 1L61 1L61 0ZM8 1L8 2L9 2L9 1ZM41 1L41 2L42 2L42 1ZM15 2L15 3L16 3L16 2ZM17 2L17 3L18 3L18 2ZM22 2L22 3L21 3L21 4L20 4L20 6L19 6L19 7L18 7L18 6L17 6L17 5L18 5L18 4L16 4L16 5L15 5L15 7L16 7L16 8L15 8L15 9L13 9L13 10L11 10L11 12L12 12L12 11L13 11L13 13L12 13L12 14L11 14L11 13L10 13L10 12L8 12L8 11L9 11L9 10L10 10L10 9L9 9L9 10L8 10L8 9L6 9L6 10L5 10L5 9L3 9L3 11L1 11L1 12L3 12L3 15L2 15L2 16L4 16L4 17L5 17L5 18L4 18L4 19L6 19L6 20L7 20L7 19L8 19L8 20L9 20L9 21L10 21L10 20L11 20L11 21L12 21L12 20L14 20L14 21L15 21L15 20L17 20L17 21L16 21L16 25L15 25L15 23L14 23L14 25L13 25L13 23L12 23L12 22L10 22L10 26L9 26L9 24L7 24L7 25L6 25L6 26L7 26L7 27L8 27L8 28L10 28L10 29L8 29L8 30L7 30L7 29L6 29L6 30L7 30L7 31L6 31L6 32L9 32L9 35L10 35L10 32L11 32L11 30L10 30L10 29L11 29L11 28L12 28L12 31L14 31L14 32L16 32L16 33L13 33L13 32L12 32L12 33L11 33L11 35L12 35L12 36L13 36L13 37L15 37L15 38L17 38L17 37L15 37L15 36L14 36L14 35L15 35L15 34L17 34L17 35L16 35L16 36L20 36L20 39L16 39L16 40L15 40L15 39L14 39L14 40L15 40L15 41L16 41L16 42L14 42L14 44L15 44L15 47L14 47L14 49L13 49L13 50L14 50L14 51L12 51L12 52L13 52L13 54L15 54L15 56L16 56L16 57L15 57L15 58L14 58L14 59L13 59L13 60L14 60L14 61L13 61L13 63L12 63L12 64L13 64L13 63L16 63L16 65L15 65L15 64L14 64L14 65L13 65L13 66L12 66L12 67L13 67L13 66L14 66L14 67L16 67L16 66L17 66L17 65L18 65L18 64L17 64L17 63L18 63L18 62L19 62L19 61L18 61L18 60L16 60L16 59L15 59L15 58L16 58L16 57L17 57L17 55L19 55L19 56L20 56L20 58L19 58L19 59L20 59L20 62L22 62L22 63L23 63L23 62L22 62L22 61L23 61L23 60L24 60L24 61L25 61L25 62L30 62L30 61L28 61L28 59L27 59L27 60L26 60L26 58L29 58L29 59L30 59L30 60L35 60L35 59L34 59L34 58L36 58L36 59L38 59L38 60L37 60L37 61L38 61L38 62L37 62L37 64L38 64L38 66L39 66L39 67L40 67L40 66L41 66L41 64L44 64L44 66L45 66L45 67L46 67L46 66L47 66L47 68L49 68L49 67L48 67L48 66L49 66L49 65L50 65L50 64L51 64L51 65L54 65L54 64L53 64L53 63L51 63L51 61L53 61L53 59L52 59L52 58L51 58L51 57L53 57L53 56L51 56L51 55L52 55L52 54L51 54L51 53L53 53L53 54L54 54L54 55L56 55L56 58L54 58L54 59L55 59L55 60L56 60L56 62L55 62L55 63L56 63L56 62L57 62L57 63L58 63L58 62L59 62L59 63L60 63L60 62L59 62L59 61L60 61L60 60L61 60L61 57L60 57L60 56L62 56L62 60L65 60L65 59L67 59L67 56L62 56L62 55L65 55L65 54L66 54L66 53L65 53L65 52L64 52L64 53L63 53L63 52L62 52L62 53L61 53L61 54L62 54L62 55L60 55L60 54L59 54L59 53L60 53L60 52L61 52L61 51L60 51L60 52L59 52L59 50L61 50L61 48L62 48L62 47L63 47L63 49L64 49L64 47L63 47L63 46L65 46L65 47L66 47L66 44L65 44L65 42L66 42L66 43L67 43L67 42L68 42L68 40L66 40L66 39L67 39L67 38L66 38L66 37L64 37L64 38L63 38L63 37L60 37L60 35L58 35L58 36L57 36L57 34L59 34L59 33L60 33L60 32L61 32L61 31L63 31L63 32L64 32L64 31L63 31L63 29L62 29L62 30L59 30L59 29L61 29L61 28L59 28L59 29L57 29L57 28L58 28L58 27L60 27L60 26L59 26L59 25L60 25L60 23L61 23L61 25L62 25L62 26L61 26L61 27L62 27L62 28L63 28L63 27L62 27L62 26L65 26L65 27L67 27L67 25L66 25L66 26L65 26L65 24L63 24L63 25L62 25L62 22L63 22L63 23L67 23L67 22L65 22L65 20L66 20L66 21L67 21L67 20L66 20L66 19L65 19L65 18L63 18L63 17L66 17L66 18L67 18L67 17L66 17L66 16L65 16L65 15L64 15L64 14L63 14L63 13L62 13L62 11L61 11L61 10L59 10L59 9L58 9L58 10L57 10L57 11L58 11L58 12L56 12L56 14L55 14L55 15L56 15L56 17L55 17L55 18L54 18L54 17L53 17L53 16L52 16L52 15L50 15L50 14L51 14L51 13L52 13L52 14L53 14L53 13L55 13L55 12L54 12L54 11L52 11L52 12L50 12L50 11L49 11L49 10L47 10L47 7L46 7L46 6L45 6L45 7L44 7L44 5L40 5L40 6L39 6L39 7L38 7L38 6L37 6L37 9L38 9L38 10L36 10L36 9L32 9L32 8L31 8L31 7L32 7L32 5L30 5L30 6L29 6L29 8L28 8L28 9L27 9L27 7L28 7L28 6L27 6L27 7L26 7L26 6L25 6L25 8L26 8L26 12L25 12L25 9L24 9L24 8L23 8L23 7L24 7L24 4L25 4L25 3L24 3L24 2ZM29 2L29 3L30 3L30 2ZM57 2L57 3L59 3L59 2ZM8 3L8 4L9 4L9 5L8 5L8 7L9 7L9 5L10 5L10 4L9 4L9 3ZM23 3L23 4L21 4L21 6L20 6L20 7L19 7L19 8L16 8L16 9L17 9L17 10L16 10L16 12L17 12L17 13L16 13L16 16L15 16L15 15L14 15L14 16L15 16L15 17L13 17L13 18L12 18L12 16L13 16L13 15L12 15L12 16L11 16L11 14L10 14L10 13L9 13L9 14L8 14L8 12L6 12L6 11L7 11L7 10L6 10L6 11L5 11L5 10L4 10L4 11L3 11L3 12L4 12L4 14L6 14L6 15L7 15L7 16L6 16L6 17L7 17L7 18L6 18L6 19L7 19L7 18L8 18L8 19L9 19L9 20L10 20L10 19L11 19L11 18L12 18L12 19L16 19L16 18L17 18L17 17L18 17L18 19L17 19L17 20L18 20L18 21L17 21L17 25L16 25L16 26L15 26L15 25L14 25L14 27L12 27L12 26L11 26L11 27L10 27L10 28L11 28L11 27L12 27L12 28L13 28L13 30L15 30L15 28L14 28L14 27L16 27L16 28L17 28L17 30L16 30L16 31L17 31L17 32L18 32L18 33L17 33L17 34L18 34L18 35L20 35L20 34L19 34L19 33L20 33L20 32L19 32L19 31L21 31L21 32L24 32L24 33L23 33L23 34L22 34L22 33L21 33L21 36L23 36L23 39L25 39L25 37L26 37L26 39L27 39L27 41L28 41L28 40L29 40L29 41L30 41L30 42L31 42L31 41L32 41L32 42L33 42L33 43L30 43L30 44L29 44L29 46L27 46L27 45L26 45L26 44L28 44L28 43L29 43L29 42L25 42L25 43L26 43L26 44L24 44L24 43L22 43L22 44L24 44L24 45L23 45L23 46L21 46L21 48L23 48L23 51L22 51L22 52L23 52L23 53L24 53L24 54L22 54L22 55L20 55L20 52L21 52L21 50L22 50L22 49L18 49L18 48L17 48L17 47L18 47L18 46L19 46L19 47L20 47L20 46L19 46L19 45L21 45L21 43L20 43L20 44L19 44L19 42L20 42L20 41L22 41L22 40L21 40L21 39L22 39L22 38L21 38L21 39L20 39L20 41L19 41L19 40L17 40L17 43L18 43L18 44L17 44L17 47L15 47L15 48L17 48L17 49L18 49L18 51L17 51L17 50L16 50L16 51L17 51L17 52L16 52L16 53L19 53L19 55L20 55L20 56L22 56L22 57L21 57L21 58L20 58L20 59L21 59L21 61L22 61L22 60L23 60L23 59L24 59L24 60L25 60L25 61L26 61L26 60L25 60L25 58L26 58L26 56L27 56L27 57L29 57L29 58L30 58L30 59L31 59L31 56L32 56L32 59L33 59L33 53L34 53L34 52L32 52L32 51L34 51L34 50L32 50L32 49L33 49L33 48L32 48L32 49L31 49L31 47L30 47L30 48L29 48L29 46L31 46L31 44L32 44L32 45L33 45L33 46L32 46L32 47L33 47L33 46L34 46L34 48L36 48L36 47L37 47L37 50L36 50L36 49L35 49L35 50L36 50L36 51L35 51L35 53L37 53L37 54L39 54L39 51L41 51L41 50L42 50L42 51L44 51L44 52L43 52L43 53L41 53L41 54L40 54L40 55L38 55L38 57L36 57L36 58L38 58L38 59L39 59L39 62L38 62L38 64L41 64L41 63L39 63L39 62L40 62L40 59L41 59L41 58L42 58L42 60L41 60L41 62L42 62L42 63L43 63L43 62L46 62L46 63L47 63L47 62L50 62L50 61L51 61L51 60L52 60L52 59L51 59L51 58L49 58L49 57L51 57L51 56L49 56L49 55L50 55L50 53L49 53L49 52L47 52L47 51L50 51L50 52L51 52L51 51L52 51L52 52L53 52L53 53L54 53L54 54L55 54L55 52L57 52L57 53L58 53L58 52L57 52L57 51L55 51L55 52L53 52L53 51L52 51L52 50L55 50L55 49L56 49L56 47L58 47L58 48L57 48L57 49L59 49L59 48L60 48L60 47L58 47L58 46L57 46L57 45L58 45L58 44L57 44L57 43L58 43L58 42L57 42L57 43L56 43L56 40L55 40L55 37L56 37L56 38L57 38L57 37L56 37L56 35L55 35L55 33L56 33L56 34L57 34L57 33L56 33L56 32L53 32L53 34L52 34L52 33L51 33L51 31L52 31L52 30L53 30L53 31L55 31L55 29L56 29L56 31L57 31L57 29L56 29L56 27L57 27L57 26L56 26L56 27L55 27L55 28L53 28L53 29L52 29L52 30L51 30L51 31L50 31L50 32L49 32L49 30L50 30L50 29L51 29L51 28L52 28L52 27L50 27L50 29L49 29L49 28L46 28L46 26L43 26L43 25L44 25L44 24L43 24L43 23L41 23L41 24L42 24L42 25L41 25L41 26L39 26L39 27L42 27L42 30L44 30L44 28L43 28L43 27L45 27L45 28L46 28L46 29L45 29L45 30L46 30L46 32L45 32L45 31L44 31L44 32L43 32L43 31L40 31L40 30L39 30L39 31L38 31L38 27L37 27L37 26L38 26L38 25L39 25L39 23L37 23L37 22L40 22L40 21L39 21L39 19L40 19L40 20L41 20L41 22L44 22L44 23L45 23L45 24L46 24L46 25L47 25L47 27L49 27L49 26L50 26L50 25L49 25L49 24L48 24L48 23L47 23L47 24L46 24L46 22L44 22L44 20L43 20L43 17L44 17L44 16L45 16L45 17L47 17L47 18L44 18L44 19L47 19L47 20L46 20L46 21L47 21L47 22L48 22L48 21L49 21L49 22L50 22L50 23L51 23L51 22L50 22L50 20L49 20L49 19L47 19L47 18L50 18L50 19L52 19L52 20L54 20L54 18L53 18L53 17L51 17L51 16L45 16L45 15L47 15L47 14L50 14L50 12L46 12L46 13L47 13L47 14L45 14L45 13L44 13L44 12L45 12L45 11L43 11L43 13L42 13L42 14L41 14L41 12L42 12L42 10L45 10L45 9L46 9L46 7L45 7L45 9L44 9L44 8L43 8L43 9L40 9L40 8L41 8L41 6L40 6L40 8L38 8L38 9L40 9L40 10L39 10L39 12L40 12L40 13L39 13L39 14L40 14L40 15L38 15L38 16L37 16L37 14L38 14L38 13L36 13L36 12L33 12L33 14L34 14L34 13L35 13L35 15L36 15L36 16L35 16L35 18L33 18L33 17L32 17L32 15L31 15L31 13L32 13L32 12L31 12L31 11L32 11L32 9L30 9L30 8L29 8L29 9L30 9L30 11L29 11L29 12L28 12L28 10L27 10L27 13L22 13L22 12L24 12L24 11L22 11L22 10L20 10L20 8L21 8L21 9L22 9L22 8L21 8L21 6L22 6L22 7L23 7L23 6L22 6L22 5L23 5L23 4L24 4L24 3ZM42 3L42 4L43 4L43 3ZM60 3L60 5L61 5L61 3ZM12 4L12 5L13 5L13 8L14 8L14 5L13 5L13 4ZM50 4L50 5L51 5L51 4ZM33 5L33 8L36 8L36 5ZM16 6L16 7L17 7L17 6ZM30 6L30 7L31 7L31 6ZM34 6L34 7L35 7L35 6ZM42 6L42 7L43 7L43 6ZM49 6L49 7L50 7L50 6ZM49 8L49 9L50 9L50 10L51 10L51 9L50 9L50 8ZM56 8L56 9L55 9L55 11L56 11L56 9L57 9L57 8ZM60 8L60 9L61 9L61 8ZM23 9L23 10L24 10L24 9ZM13 10L13 11L14 11L14 13L15 13L15 11L14 11L14 10ZM17 10L17 12L19 12L19 13L20 13L20 14L18 14L18 15L17 15L17 16L18 16L18 17L23 17L23 15L24 15L24 14L22 14L22 13L21 13L21 11L20 11L20 10ZM33 10L33 11L36 11L36 10ZM40 10L40 12L41 12L41 10ZM58 10L58 11L59 11L59 10ZM19 11L19 12L20 12L20 11ZM37 11L37 12L38 12L38 11ZM68 11L68 12L69 12L69 11ZM58 12L58 13L60 13L60 14L59 14L59 15L60 15L60 16L59 16L59 18L55 18L55 20L57 20L57 21L58 21L58 19L61 19L61 18L62 18L62 19L63 19L63 18L62 18L62 16L64 16L64 15L62 15L62 16L61 16L61 15L60 15L60 14L62 14L62 13L60 13L60 12ZM6 13L6 14L7 14L7 15L8 15L8 16L9 16L9 17L8 17L8 18L11 18L11 16L10 16L10 14L9 14L9 15L8 15L8 14L7 14L7 13ZM27 13L27 14L25 14L25 15L26 15L26 16L24 16L24 17L26 17L26 18L23 18L23 19L22 19L22 18L21 18L21 20L19 20L19 21L18 21L18 22L19 22L19 23L20 23L20 24L21 24L21 25L20 25L20 26L18 26L18 25L17 25L17 28L19 28L19 29L20 29L20 30L21 30L21 29L22 29L22 30L23 30L23 28L24 28L24 27L23 27L23 26L24 26L24 25L22 25L22 24L21 24L21 23L22 23L22 22L23 22L23 21L25 21L25 23L26 23L26 26L25 26L25 28L26 28L26 29L25 29L25 30L24 30L24 32L26 32L26 31L25 31L25 30L29 30L29 31L28 31L28 33L25 33L25 34L24 34L24 35L25 35L25 36L24 36L24 37L25 37L25 36L26 36L26 37L27 37L27 39L29 39L29 40L30 40L30 41L31 41L31 40L33 40L33 41L35 41L35 42L34 42L34 44L33 44L33 45L34 45L34 46L35 46L35 47L36 47L36 45L37 45L37 46L39 46L39 47L38 47L38 48L39 48L39 49L38 49L38 51L39 51L39 50L41 50L41 49L42 49L42 48L43 48L43 47L44 47L44 49L43 49L43 50L44 50L44 49L45 49L45 52L44 52L44 53L43 53L43 54L41 54L41 55L43 55L43 56L42 56L42 57L43 57L43 60L42 60L42 61L43 61L43 60L44 60L44 61L45 61L45 60L46 60L46 62L47 62L47 60L49 60L49 61L50 61L50 59L47 59L47 57L46 57L46 56L47 56L47 55L48 55L48 54L47 54L47 53L45 53L45 52L46 52L46 51L47 51L47 50L49 50L49 49L50 49L50 50L52 50L52 49L53 49L53 47L50 47L50 46L51 46L51 45L53 45L53 44L54 44L54 45L55 45L55 46L56 46L56 45L57 45L57 44L56 44L56 43L55 43L55 44L54 44L54 43L53 43L53 44L51 44L51 43L52 43L52 42L53 42L53 41L55 41L55 40L54 40L54 39L53 39L53 40L52 40L52 39L51 39L51 37L55 37L55 35L54 35L54 34L53 34L53 35L52 35L52 36L51 36L51 35L50 35L50 34L51 34L51 33L50 33L50 34L49 34L49 33L45 33L45 32L44 32L44 33L43 33L43 32L39 32L39 33L38 33L38 34L37 34L37 36L38 36L38 37L36 37L36 39L37 39L37 40L33 40L33 39L34 39L34 38L35 38L35 37L34 37L34 38L33 38L33 37L32 37L32 38L30 38L30 37L29 37L29 36L28 36L28 35L27 35L27 34L28 34L28 33L29 33L29 32L31 32L31 31L32 31L32 32L34 32L34 31L33 31L33 30L34 30L34 29L35 29L35 30L36 30L36 28L35 28L35 27L36 27L36 26L34 26L34 27L33 27L33 26L32 26L32 24L33 24L33 25L34 25L34 24L35 24L35 25L38 25L38 24L36 24L36 23L35 23L35 22L36 22L36 19L33 19L33 18L32 18L32 20L34 20L34 22L33 22L33 21L30 21L30 20L29 20L29 16L27 16L27 15L30 15L30 16L31 16L31 15L30 15L30 14L29 14L29 13ZM43 13L43 14L42 14L42 15L40 15L40 16L38 16L38 18L37 18L37 19L39 19L39 18L41 18L41 17L42 17L42 16L44 16L44 15L45 15L45 14L44 14L44 13ZM20 14L20 15L19 15L19 16L21 16L21 14ZM56 14L56 15L57 15L57 16L58 16L58 14ZM4 15L4 16L5 16L5 15ZM33 15L33 16L34 16L34 15ZM15 17L15 18L16 18L16 17ZM27 17L27 18L26 18L26 19L27 19L27 20L28 20L28 21L29 21L29 22L30 22L30 23L28 23L28 25L29 25L29 30L30 30L30 29L31 29L31 30L33 30L33 29L34 29L34 28L33 28L33 27L31 27L31 23L33 23L33 24L34 24L34 23L33 23L33 22L30 22L30 21L29 21L29 20L28 20L28 19L27 19L27 18L28 18L28 17ZM50 17L50 18L51 18L51 17ZM19 18L19 19L20 19L20 18ZM52 18L52 19L53 19L53 18ZM23 19L23 20L25 20L25 21L26 21L26 20L25 20L25 19ZM41 19L41 20L42 20L42 19ZM37 20L37 21L38 21L38 20ZM60 20L60 21L59 21L59 22L58 22L58 23L57 23L57 25L58 25L58 23L59 23L59 22L62 22L62 21L61 21L61 20ZM19 21L19 22L20 22L20 21ZM53 21L53 22L52 22L52 23L53 23L53 24L55 24L55 25L54 25L54 26L53 26L53 27L54 27L54 26L55 26L55 25L56 25L56 24L55 24L55 23L54 23L54 22L56 22L56 21ZM63 21L63 22L64 22L64 21ZM23 23L23 24L24 24L24 23ZM11 24L11 25L12 25L12 24ZM29 24L29 25L30 25L30 24ZM47 24L47 25L48 25L48 24ZM21 25L21 26L22 26L22 25ZM8 26L8 27L9 27L9 26ZM20 27L20 28L21 28L21 27ZM26 27L26 28L27 28L27 27ZM30 27L30 28L31 28L31 29L32 29L32 28L31 28L31 27ZM3 28L3 29L2 29L2 30L3 30L3 31L5 31L5 30L3 30L3 29L4 29L4 28ZM39 28L39 29L40 29L40 28ZM46 29L46 30L47 30L47 29ZM48 29L48 30L49 30L49 29ZM8 30L8 31L9 31L9 30ZM17 30L17 31L18 31L18 30ZM35 31L35 32L37 32L37 31ZM0 32L0 33L1 33L1 32ZM5 33L5 36L8 36L8 33ZM12 33L12 34L13 34L13 35L14 35L14 34L13 34L13 33ZM31 33L31 34L32 34L32 33ZM33 33L33 36L36 36L36 33ZM40 33L40 35L39 35L39 36L42 36L42 35L41 35L41 34L43 34L43 33ZM44 33L44 36L43 36L43 37L41 37L41 39L38 39L38 38L37 38L37 39L38 39L38 40L41 40L41 41L40 41L40 43L39 43L39 44L38 44L38 45L39 45L39 46L40 46L40 47L39 47L39 48L40 48L40 47L41 47L41 48L42 48L42 46L44 46L44 47L45 47L45 49L46 49L46 47L47 47L47 46L50 46L50 45L51 45L51 44L50 44L50 45L49 45L49 44L48 44L48 43L49 43L49 42L50 42L50 43L51 43L51 42L52 42L52 40L51 40L51 39L50 39L50 41L49 41L49 38L50 38L50 36L45 36L45 33ZM61 33L61 36L64 36L64 33ZM65 33L65 35L67 35L67 36L68 36L68 35L67 35L67 34L66 34L66 33ZM6 34L6 35L7 35L7 34ZM25 34L25 35L26 35L26 36L27 36L27 37L28 37L28 36L27 36L27 35L26 35L26 34ZM29 34L29 35L30 35L30 34ZM34 34L34 35L35 35L35 34ZM48 34L48 35L49 35L49 34ZM62 34L62 35L63 35L63 34ZM31 35L31 36L32 36L32 35ZM44 36L44 37L45 37L45 38L47 38L47 40L45 40L45 39L41 39L41 40L44 40L44 42L43 42L43 43L44 43L44 42L45 42L45 43L46 43L46 44L43 44L43 45L45 45L45 46L47 46L47 45L46 45L46 44L47 44L47 43L46 43L46 42L47 42L47 40L48 40L48 38L49 38L49 37L45 37L45 36ZM58 36L58 37L59 37L59 36ZM1 37L1 38L3 38L3 40L5 40L5 39L6 39L6 38L7 38L7 37L4 37L4 38L3 38L3 37ZM39 37L39 38L40 38L40 37ZM4 38L4 39L5 39L5 38ZM10 38L10 39L11 39L11 38ZM29 38L29 39L30 39L30 38ZM32 38L32 39L33 39L33 38ZM60 38L60 39L59 39L59 40L58 40L58 39L57 39L57 41L59 41L59 43L62 43L62 40L64 40L64 41L63 41L63 42L64 42L64 41L66 41L66 40L65 40L65 39L66 39L66 38L65 38L65 39L62 39L62 38ZM12 39L12 41L13 41L13 39ZM60 39L60 40L59 40L59 41L60 41L60 40L62 40L62 39ZM24 40L24 41L23 41L23 42L24 42L24 41L26 41L26 40ZM36 41L36 42L35 42L35 45L36 45L36 44L37 44L37 43L38 43L38 41ZM50 41L50 42L51 42L51 41ZM36 42L36 43L37 43L37 42ZM6 43L6 44L7 44L7 43ZM15 43L15 44L16 44L16 43ZM40 43L40 44L39 44L39 45L40 45L40 44L41 44L41 43ZM63 43L63 44L62 44L62 46L61 46L61 47L62 47L62 46L63 46L63 44L64 44L64 43ZM55 44L55 45L56 45L56 44ZM60 44L60 45L61 45L61 44ZM67 44L67 46L68 46L68 44ZM13 45L13 46L14 46L14 45ZM25 45L25 46L24 46L24 47L26 47L26 48L25 48L25 49L26 49L26 50L27 50L27 51L25 51L25 50L24 50L24 51L23 51L23 52L24 52L24 53L25 53L25 54L26 54L26 55L23 55L23 56L26 56L26 55L27 55L27 56L29 56L29 57L30 57L30 56L29 56L29 55L30 55L30 53L27 53L27 51L28 51L28 52L29 52L29 48L27 48L27 46L26 46L26 45ZM41 45L41 46L42 46L42 45ZM3 46L3 47L2 47L2 48L3 48L3 47L4 47L4 46ZM11 46L11 47L12 47L12 46ZM48 47L48 48L47 48L47 49L49 49L49 48L50 48L50 47ZM54 48L54 49L55 49L55 48ZM14 49L14 50L15 50L15 49ZM27 49L27 50L28 50L28 49ZM19 50L19 51L18 51L18 52L19 52L19 51L20 51L20 50ZM30 50L30 52L31 52L31 51L32 51L32 50ZM6 51L6 52L7 52L7 51ZM24 51L24 52L25 52L25 53L26 53L26 54L27 54L27 55L29 55L29 54L27 54L27 53L26 53L26 52L25 52L25 51ZM37 52L37 53L38 53L38 52ZM31 53L31 55L32 55L32 53ZM44 53L44 56L43 56L43 57L44 57L44 56L46 56L46 54L45 54L45 53ZM8 54L8 55L6 55L6 56L7 56L7 57L6 57L6 58L7 58L7 57L9 57L9 59L10 59L10 58L11 58L11 59L12 59L12 58L11 58L11 56L10 56L10 55L9 55L9 54ZM34 54L34 56L35 56L35 55L36 55L36 56L37 56L37 55L36 55L36 54ZM56 54L56 55L57 55L57 56L58 56L58 57L59 57L59 58L60 58L60 57L59 57L59 56L60 56L60 55L59 55L59 56L58 56L58 55L57 55L57 54ZM8 55L8 56L9 56L9 55ZM1 56L1 57L2 57L2 56ZM39 56L39 57L38 57L38 58L39 58L39 57L41 57L41 56ZM22 57L22 58L24 58L24 57ZM65 57L65 58L64 58L64 59L65 59L65 58L66 58L66 57ZM45 58L45 59L46 59L46 58ZM56 58L56 59L57 59L57 58ZM3 60L3 61L5 61L5 60ZM14 61L14 62L15 62L15 61ZM17 61L17 62L16 62L16 63L17 63L17 62L18 62L18 61ZM31 61L31 63L29 63L29 64L28 64L28 63L27 63L27 64L28 64L28 65L29 65L29 66L30 66L30 65L29 65L29 64L31 64L31 63L32 63L32 61ZM33 61L33 64L36 64L36 61ZM61 61L61 64L64 64L64 61ZM34 62L34 63L35 63L35 62ZM62 62L62 63L63 63L63 62ZM65 62L65 63L66 63L66 62ZM44 63L44 64L45 64L45 66L46 66L46 64L45 64L45 63ZM48 63L48 64L47 64L47 66L48 66L48 65L49 65L49 64L50 64L50 63ZM55 64L55 66L56 66L56 67L57 67L57 66L56 66L56 65L57 65L57 64ZM14 65L14 66L15 66L15 65ZM31 65L31 66L32 66L32 65ZM61 65L61 66L63 66L63 65ZM36 66L36 67L37 67L37 66ZM30 67L30 68L32 68L32 67ZM61 67L61 68L63 68L63 67ZM65 67L65 69L68 69L68 68L67 68L67 67ZM0 0L0 7L7 7L7 0ZM1 1L1 6L6 6L6 1ZM2 2L2 5L5 5L5 2ZM62 0L62 7L69 7L69 0ZM63 1L63 6L68 6L68 1ZM64 2L64 5L67 5L67 2ZM0 62L0 69L7 69L7 62ZM1 63L1 68L6 68L6 63ZM2 64L2 67L5 67L5 64Z" fill="#000000"/></g></g></svg>
