<?xml version="1.0" encoding="UTF-8"?>
<svg xmlns="http://www.w3.org/2000/svg" version="1.1" width="300" height="300" viewBox="0 0 300 300"><rect x="0" y="0" width="300" height="300" fill="#ffffff"/><g transform="scale(4.348)"><g transform="translate(0,0)"><path fill-rule="evenodd" d="M8 0L8 1L9 1L9 2L8 2L8 5L9 5L9 4L10 4L10 2L11 2L11 3L12 3L12 7L11 7L11 5L10 5L10 7L9 7L9 6L8 6L8 7L9 7L9 8L8 8L8 9L9 9L9 10L6 10L6 9L7 9L7 8L6 8L6 9L4 9L4 8L0 8L0 9L4 9L4 10L1 10L1 11L0 11L0 13L3 13L3 14L2 14L2 17L3 17L3 20L2 20L2 19L1 19L1 17L0 17L0 22L2 22L2 23L0 23L0 24L2 24L2 26L1 26L1 25L0 25L0 28L3 28L3 26L5 26L5 25L4 25L4 24L5 24L5 23L4 23L4 22L6 22L6 23L8 23L8 25L7 25L7 24L6 24L6 25L7 25L7 26L6 26L6 27L4 27L4 28L5 28L5 29L4 29L4 30L3 30L3 31L1 31L1 30L2 30L2 29L0 29L0 31L1 31L1 32L3 32L3 34L0 34L0 35L2 35L2 36L3 36L3 34L4 34L4 37L1 37L1 36L0 36L0 37L1 37L1 38L4 38L4 39L1 39L1 40L0 40L0 42L1 42L1 43L2 43L2 46L3 46L3 47L4 47L4 49L5 49L5 47L9 47L9 48L10 48L10 49L7 49L7 48L6 48L6 49L7 49L7 50L6 50L6 51L5 51L5 50L3 50L3 48L2 48L2 49L1 49L1 44L0 44L0 49L1 49L1 50L0 50L0 52L1 52L1 53L2 53L2 54L3 54L3 52L4 52L4 51L5 51L5 52L6 52L6 53L5 53L5 54L6 54L6 55L8 55L8 54L9 54L9 53L10 53L10 55L9 55L9 56L6 56L6 57L7 57L7 58L4 58L4 59L7 59L7 60L6 60L6 61L7 61L7 60L8 60L8 62L10 62L10 61L11 61L11 64L9 64L9 65L8 65L8 69L9 69L9 68L10 68L10 67L11 67L11 69L14 69L14 68L15 68L15 69L16 69L16 67L18 67L18 68L17 68L17 69L18 69L18 68L19 68L19 67L20 67L20 69L23 69L23 68L24 68L24 69L25 69L25 68L29 68L29 69L30 69L30 68L33 68L33 69L34 69L34 67L35 67L35 65L36 65L36 67L38 67L38 68L39 68L39 69L41 69L41 68L42 68L42 69L43 69L43 67L41 67L41 66L42 66L42 65L40 65L40 64L41 64L41 62L39 62L39 61L40 61L40 60L41 60L41 61L42 61L42 60L41 60L41 59L42 59L42 58L43 58L43 56L41 56L41 54L42 54L42 55L43 55L43 54L44 54L44 55L46 55L46 54L47 54L47 55L49 55L49 56L51 56L51 57L52 57L52 58L51 58L51 59L50 59L50 60L51 60L51 59L52 59L52 58L54 58L54 59L53 59L53 60L54 60L54 59L55 59L55 64L56 64L56 65L55 65L55 66L54 66L54 65L53 65L53 68L51 68L51 67L50 67L50 66L49 66L49 65L51 65L51 66L52 66L52 64L50 64L50 62L51 62L51 61L49 61L49 59L48 59L48 58L47 58L47 59L48 59L48 60L45 60L45 62L43 62L43 63L44 63L44 64L43 64L43 65L45 65L45 63L47 63L47 62L46 62L46 61L49 61L49 62L48 62L48 63L49 63L49 65L48 65L48 66L47 66L47 65L46 65L46 68L45 68L45 69L48 69L48 68L47 68L47 67L48 67L48 66L49 66L49 68L51 68L51 69L54 69L54 68L57 68L57 67L58 67L58 66L59 66L59 69L60 69L60 67L62 67L62 69L63 69L63 66L65 66L65 67L66 67L66 66L68 66L68 65L69 65L69 64L68 64L68 63L65 63L65 60L66 60L66 59L69 59L69 58L68 58L68 57L69 57L69 56L68 56L68 54L69 54L69 52L68 52L68 51L67 51L67 50L68 50L68 49L69 49L69 48L67 48L67 50L66 50L66 51L65 51L65 50L64 50L64 49L65 49L65 48L66 48L66 46L67 46L67 47L69 47L69 46L68 46L68 45L69 45L69 44L67 44L67 45L66 45L66 46L65 46L65 48L63 48L63 49L62 49L62 48L61 48L61 47L64 47L64 46L61 46L61 44L63 44L63 45L65 45L65 44L64 44L64 43L65 43L65 41L66 41L66 43L68 43L68 42L67 42L67 41L66 41L66 40L68 40L68 39L65 39L65 38L63 38L63 39L62 39L62 40L59 40L59 39L58 39L58 41L57 41L57 40L55 40L55 42L54 42L54 41L53 41L53 42L50 42L50 43L52 43L52 44L49 44L49 41L52 41L52 40L49 40L49 41L46 41L46 40L47 40L47 39L49 39L49 38L51 38L51 39L53 39L53 40L54 40L54 39L53 39L53 38L51 38L51 35L50 35L50 34L49 34L49 36L48 36L48 35L46 35L46 34L45 34L45 33L44 33L44 34L45 34L45 35L43 35L43 32L42 32L42 33L41 33L41 31L40 31L40 30L41 30L41 29L42 29L42 28L43 28L43 31L44 31L44 29L45 29L45 30L47 30L47 31L49 31L49 32L50 32L50 31L49 31L49 29L47 29L47 28L43 28L43 27L42 27L42 26L41 26L41 27L42 27L42 28L41 28L41 29L39 29L39 27L38 27L38 26L40 26L40 25L39 25L39 24L42 24L42 25L44 25L44 27L45 27L45 26L46 26L46 27L47 27L47 26L46 26L46 25L47 25L47 24L48 24L48 26L50 26L50 27L49 27L49 28L50 28L50 29L52 29L52 30L53 30L53 32L51 32L51 34L52 34L52 36L53 36L53 34L52 34L52 33L53 33L53 32L54 32L54 31L56 31L56 32L57 32L57 33L56 33L56 34L55 34L55 33L54 33L54 36L55 36L55 37L56 37L56 36L57 36L57 35L58 35L58 36L59 36L59 38L60 38L60 39L61 39L61 38L60 38L60 37L68 37L68 38L69 38L69 37L68 37L68 36L69 36L69 33L68 33L68 32L65 32L65 30L64 30L64 28L63 28L63 27L65 27L65 29L66 29L66 30L67 30L67 31L68 31L68 30L69 30L69 28L67 28L67 27L65 27L65 25L64 25L64 26L63 26L63 24L62 24L62 23L64 23L64 24L66 24L66 23L67 23L67 25L66 25L66 26L67 26L67 25L68 25L68 26L69 26L69 22L68 22L68 21L67 21L67 22L66 22L66 20L63 20L63 21L65 21L65 22L62 22L62 20L61 20L61 21L59 21L59 22L58 22L58 23L57 23L57 22L56 22L56 21L54 21L54 20L55 20L55 19L54 19L54 17L52 17L52 16L53 16L53 15L54 15L54 16L55 16L55 18L57 18L57 19L56 19L56 20L58 20L58 19L59 19L59 20L60 20L60 19L59 19L59 18L60 18L60 17L64 17L64 15L63 15L63 13L62 13L62 12L64 12L64 10L65 10L65 12L66 12L66 10L67 10L67 13L64 13L64 14L65 14L65 19L67 19L67 20L69 20L69 19L68 19L68 18L69 18L69 17L68 17L68 18L66 18L66 16L67 16L67 15L66 15L66 14L69 14L69 13L68 13L68 12L69 12L69 10L67 10L67 8L64 8L64 9L63 9L63 10L62 10L62 8L61 8L61 9L59 9L59 8L58 8L58 7L59 7L59 4L58 4L58 5L57 5L57 6L56 6L56 7L57 7L57 9L59 9L59 11L60 11L60 12L61 12L61 14L62 14L62 16L61 16L61 15L59 15L59 14L58 14L58 13L59 13L59 12L58 12L58 13L55 13L55 12L54 12L54 10L55 10L55 11L56 11L56 12L57 12L57 11L58 11L58 10L57 10L57 11L56 11L56 10L55 10L55 6L54 6L54 9L53 9L53 6L52 6L52 7L51 7L51 5L52 5L52 4L50 4L50 3L51 3L51 1L50 1L50 0L48 0L48 1L47 1L47 2L45 2L45 0L44 0L44 2L43 2L43 6L42 6L42 7L41 7L41 4L42 4L42 3L41 3L41 2L42 2L42 1L43 1L43 0L39 0L39 1L40 1L40 2L39 2L39 3L41 3L41 4L38 4L38 2L37 2L37 4L36 4L36 0L33 0L33 1L35 1L35 2L33 2L33 3L35 3L35 4L32 4L32 2L31 2L31 3L29 3L29 5L28 5L28 4L27 4L27 5L26 5L26 4L25 4L25 5L24 5L24 7L23 7L23 4L24 4L24 1L25 1L25 0L23 0L23 2L21 2L21 1L19 1L19 0L16 0L16 1L18 1L18 2L19 2L19 3L17 3L17 2L16 2L16 3L15 3L15 2L14 2L14 1L15 1L15 0L14 0L14 1L13 1L13 2L11 2L11 1L12 1L12 0L11 0L11 1L9 1L9 0ZM28 0L28 2L27 2L27 1L26 1L26 2L25 2L25 3L28 3L28 2L29 2L29 0ZM30 0L30 1L32 1L32 0ZM37 0L37 1L38 1L38 0ZM54 0L54 2L55 2L55 1L56 1L56 3L57 3L57 2L58 2L58 3L59 3L59 2L58 2L58 1L61 1L61 0ZM52 1L52 3L53 3L53 4L55 4L55 5L56 5L56 4L55 4L55 3L53 3L53 1ZM20 2L20 3L19 3L19 4L17 4L17 3L16 3L16 4L15 4L15 3L13 3L13 5L14 5L14 6L13 6L13 7L14 7L14 9L15 9L15 8L16 8L16 10L15 10L15 11L14 11L14 10L12 10L12 9L13 9L13 8L12 8L12 9L11 9L11 8L9 8L9 9L10 9L10 10L9 10L9 11L8 11L8 12L9 12L9 13L11 13L11 12L12 12L12 13L13 13L13 12L15 12L15 13L14 13L14 15L15 15L15 18L14 18L14 16L13 16L13 15L12 15L12 14L11 14L11 15L10 15L10 14L7 14L7 13L6 13L6 14L5 14L5 15L3 15L3 16L5 16L5 15L6 15L6 16L7 16L7 17L6 17L6 18L7 18L7 19L6 19L6 20L5 20L5 19L4 19L4 21L6 21L6 22L8 22L8 20L9 20L9 21L10 21L10 22L9 22L9 24L10 24L10 25L11 25L11 28L12 28L12 30L11 30L11 29L10 29L10 30L11 30L11 31L9 31L9 32L11 32L11 34L10 34L10 33L9 33L9 36L10 36L10 38L11 38L11 39L12 39L12 40L9 40L9 41L5 41L5 40L7 40L7 39L6 39L6 38L7 38L7 37L6 37L6 38L5 38L5 40L4 40L4 41L5 41L5 42L7 42L7 43L5 43L5 44L3 44L3 45L6 45L6 46L8 46L8 45L9 45L9 46L10 46L10 45L9 45L9 44L8 44L8 42L9 42L9 41L10 41L10 42L11 42L11 41L12 41L12 42L13 42L13 38L14 38L14 39L15 39L15 40L16 40L16 41L15 41L15 45L14 45L14 46L13 46L13 47L12 47L12 45L11 45L11 47L10 47L10 48L11 48L11 51L10 51L10 52L11 52L11 51L12 51L12 52L14 52L14 53L17 53L17 54L16 54L16 56L14 56L14 58L15 58L15 59L16 59L16 62L14 62L14 61L15 61L15 60L11 60L11 61L12 61L12 65L14 65L14 66L12 66L12 67L14 67L14 66L16 66L16 65L14 65L14 63L15 63L15 64L17 64L17 63L19 63L19 62L18 62L18 60L19 60L19 61L21 61L21 64L22 64L22 65L24 65L24 68L25 68L25 64L26 64L26 66L27 66L27 65L28 65L28 66L29 66L29 67L31 67L31 66L29 66L29 65L31 65L31 64L30 64L30 62L32 62L32 59L33 59L33 60L34 60L34 58L35 58L35 60L40 60L40 58L39 58L39 56L40 56L40 55L39 55L39 54L41 54L41 52L42 52L42 54L43 54L43 52L44 52L44 50L45 50L45 48L46 48L46 50L47 50L47 48L46 48L46 47L47 47L47 45L46 45L46 44L48 44L48 45L49 45L49 44L48 44L48 43L46 43L46 42L45 42L45 41L43 41L43 40L45 40L45 39L47 39L47 37L46 37L46 38L45 38L45 36L44 36L44 38L43 38L43 35L41 35L41 36L40 36L40 35L39 35L39 34L40 34L40 33L38 33L38 34L37 34L37 35L38 35L38 37L37 37L37 39L38 39L38 40L39 40L39 38L38 38L38 37L40 37L40 39L41 39L41 40L40 40L40 42L39 42L39 41L37 41L37 40L36 40L36 42L35 42L35 40L34 40L34 41L33 41L33 40L32 40L32 39L36 39L36 37L32 37L32 35L30 35L30 34L32 34L32 33L31 33L31 31L33 31L33 30L32 30L32 29L33 29L33 28L34 28L34 30L35 30L35 27L37 27L37 25L38 25L38 22L36 22L36 20L37 20L37 19L36 19L36 20L35 20L35 19L34 19L34 20L35 20L35 23L36 23L36 25L35 25L35 27L33 27L33 26L32 26L32 24L33 24L33 23L34 23L34 22L33 22L33 20L32 20L32 23L31 23L31 20L30 20L30 21L29 21L29 19L31 19L31 18L32 18L32 19L33 19L33 18L34 18L34 17L35 17L35 18L36 18L36 17L37 17L37 18L38 18L38 20L41 20L41 22L40 22L40 23L42 23L42 24L43 24L43 23L44 23L44 25L46 25L46 23L47 23L47 22L48 22L48 21L49 21L49 19L50 19L50 18L51 18L51 16L52 16L52 15L53 15L53 14L55 14L55 16L56 16L56 15L57 15L57 14L55 14L55 13L53 13L53 12L52 12L52 11L53 11L53 9L50 9L50 10L51 10L51 14L49 14L49 13L50 13L50 11L49 11L49 13L47 13L47 12L48 12L48 11L47 11L47 9L46 9L46 8L48 8L48 9L49 9L49 8L51 8L51 7L50 7L50 4L49 4L49 5L47 5L47 3L48 3L48 2L47 2L47 3L46 3L46 5L45 5L45 8L44 8L44 6L43 6L43 9L45 9L45 10L46 10L46 11L45 11L45 12L44 12L44 10L43 10L43 12L41 12L41 13L42 13L42 14L43 14L43 13L45 13L45 12L46 12L46 14L47 14L47 17L49 17L49 19L48 19L48 18L46 18L46 21L45 21L45 20L44 20L44 18L45 18L45 17L46 17L46 16L45 16L45 17L44 17L44 18L43 18L43 16L44 16L44 15L45 15L45 14L44 14L44 15L41 15L41 14L40 14L40 11L42 11L42 10L40 10L40 8L39 8L39 9L38 9L38 6L39 6L39 7L40 7L40 5L38 5L38 4L37 4L37 9L38 9L38 10L37 10L37 12L36 12L36 9L33 9L33 11L32 11L32 13L30 13L30 14L29 14L29 12L30 12L30 11L29 11L29 12L27 12L27 11L28 11L28 10L30 10L30 9L28 9L28 8L26 8L26 5L25 5L25 7L24 7L24 8L23 8L23 7L22 7L22 5L21 5L21 7L22 7L22 8L18 8L18 6L19 6L19 7L20 7L20 6L19 6L19 4L20 4L20 3L21 3L21 4L23 4L23 3L21 3L21 2ZM49 2L49 3L50 3L50 2ZM44 3L44 4L45 4L45 3ZM60 3L60 5L61 5L61 3ZM14 4L14 5L15 5L15 6L14 6L14 7L15 7L15 6L16 6L16 7L17 7L17 6L18 6L18 5L15 5L15 4ZM30 4L30 5L31 5L31 4ZM33 5L33 8L36 8L36 5ZM46 5L46 7L47 7L47 5ZM27 6L27 7L28 7L28 6ZM29 6L29 7L30 7L30 6ZM31 6L31 10L32 10L32 6ZM34 6L34 7L35 7L35 6ZM48 6L48 7L49 7L49 6ZM57 6L57 7L58 7L58 6ZM60 6L60 7L61 7L61 6ZM17 8L17 9L18 9L18 11L17 11L17 13L15 13L15 15L16 15L16 19L17 19L17 20L16 20L16 21L15 21L15 19L12 19L12 20L14 20L14 21L13 21L13 22L14 22L14 23L12 23L12 21L11 21L11 23L10 23L10 24L11 24L11 25L12 25L12 24L14 24L14 25L13 25L13 26L12 26L12 27L13 27L13 28L14 28L14 27L15 27L15 26L17 26L17 27L16 27L16 29L13 29L13 30L15 30L15 31L11 31L11 32L14 32L14 33L12 33L12 35L11 35L11 36L12 36L12 37L11 37L11 38L13 38L13 36L14 36L14 35L13 35L13 34L15 34L15 33L17 33L17 34L16 34L16 35L15 35L15 36L16 36L16 35L18 35L18 36L17 36L17 38L16 38L16 37L15 37L15 38L16 38L16 40L19 40L19 38L22 38L22 39L23 39L23 38L22 38L22 37L20 37L20 35L21 35L21 36L22 36L22 35L23 35L23 37L24 37L24 35L25 35L25 33L23 33L23 31L24 31L24 32L25 32L25 31L27 31L27 32L26 32L26 33L27 33L27 32L28 32L28 35L27 35L27 34L26 34L26 35L27 35L27 38L28 38L28 35L29 35L29 39L27 39L27 40L26 40L26 39L25 39L25 38L26 38L26 36L25 36L25 38L24 38L24 40L23 40L23 41L21 41L21 39L20 39L20 41L21 41L21 42L20 42L20 43L23 43L23 42L25 42L25 43L24 43L24 44L27 44L27 42L29 42L29 41L27 41L27 40L29 40L29 39L32 39L32 38L30 38L30 37L31 37L31 36L30 36L30 35L29 35L29 33L30 33L30 32L29 32L29 30L30 30L30 29L27 29L27 28L29 28L29 26L28 26L28 25L26 25L26 24L28 24L28 22L26 22L26 21L25 21L25 20L27 20L27 19L23 19L23 18L24 18L24 17L25 17L25 16L26 16L26 17L28 17L28 18L30 18L30 17L28 17L28 16L30 16L30 15L29 15L29 14L28 14L28 13L27 13L27 14L28 14L28 15L27 15L27 16L26 16L26 13L25 13L25 11L27 11L27 10L26 10L26 9L25 9L25 10L24 10L24 9L23 9L23 8L22 8L22 9L23 9L23 10L22 10L22 11L23 11L23 13L22 13L22 16L21 16L21 10L20 10L20 9L18 9L18 8ZM41 8L41 9L42 9L42 8ZM68 8L68 9L69 9L69 8ZM34 10L34 11L33 11L33 13L32 13L32 14L33 14L33 17L32 17L32 18L33 18L33 17L34 17L34 15L35 15L35 16L36 16L36 14L33 14L33 13L36 13L36 12L35 12L35 10ZM38 10L38 11L39 11L39 10ZM60 10L60 11L61 11L61 12L62 12L62 11L61 11L61 10ZM1 11L1 12L3 12L3 13L5 13L5 12L7 12L7 11ZM15 11L15 12L16 12L16 11ZM18 11L18 12L19 12L19 13L18 13L18 14L19 14L19 13L20 13L20 12L19 12L19 11ZM37 12L37 16L38 16L38 17L39 17L39 19L42 19L42 20L43 20L43 18L42 18L42 16L41 16L41 17L40 17L40 14L39 14L39 13L38 13L38 12ZM23 13L23 15L25 15L25 13ZM52 13L52 14L51 14L51 15L52 15L52 14L53 14L53 13ZM0 14L0 16L1 16L1 14ZM6 14L6 15L7 15L7 16L8 16L8 17L7 17L7 18L9 18L9 19L11 19L11 18L10 18L10 16L9 16L9 15L7 15L7 14ZM16 14L16 15L17 15L17 19L18 19L18 18L19 18L19 19L20 19L20 20L18 20L18 22L17 22L17 21L16 21L16 22L15 22L15 21L14 21L14 22L15 22L15 23L14 23L14 24L16 24L16 25L17 25L17 26L18 26L18 24L17 24L17 23L19 23L19 24L21 24L21 27L20 27L20 28L21 28L21 27L22 27L22 29L19 29L19 27L17 27L17 30L16 30L16 32L17 32L17 33L19 33L19 34L21 34L21 32L22 32L22 31L21 31L21 30L23 30L23 29L24 29L24 30L25 30L25 28L24 28L24 27L25 27L25 25L24 25L24 27L23 27L23 25L22 25L22 24L23 24L23 23L20 23L20 22L21 22L21 19L20 19L20 15L17 15L17 14ZM48 14L48 16L50 16L50 15L49 15L49 14ZM31 15L31 16L32 16L32 15ZM68 15L68 16L69 16L69 15ZM12 16L12 18L13 18L13 16ZM18 16L18 17L19 17L19 16ZM22 16L22 18L23 18L23 17L24 17L24 16ZM58 16L58 17L59 17L59 16ZM4 17L4 18L5 18L5 17ZM62 18L62 19L63 19L63 18ZM22 19L22 20L23 20L23 21L22 21L22 22L23 22L23 21L24 21L24 20L23 20L23 19ZM47 19L47 21L48 21L48 19ZM51 19L51 20L50 20L50 22L51 22L51 20L52 20L52 19ZM53 19L53 20L54 20L54 19ZM1 20L1 21L2 21L2 22L3 22L3 21L2 21L2 20ZM6 20L6 21L7 21L7 20ZM19 21L19 22L20 22L20 21ZM42 21L42 23L43 23L43 22L44 22L44 21ZM16 22L16 23L17 23L17 22ZM25 22L25 23L24 23L24 24L26 24L26 22ZM29 22L29 24L30 24L30 25L31 25L31 24L30 24L30 22ZM52 22L52 23L50 23L50 24L49 24L49 25L50 25L50 24L51 24L51 27L50 27L50 28L51 28L51 27L52 27L52 26L53 26L53 28L52 28L52 29L54 29L54 30L57 30L57 32L63 32L63 28L62 28L62 27L63 27L63 26L61 26L61 25L62 25L62 24L61 24L61 23L62 23L62 22L61 22L61 23L59 23L59 24L58 24L58 26L57 26L57 24L56 24L56 26L55 26L55 24L53 24L53 22ZM65 22L65 23L66 23L66 22ZM2 23L2 24L3 24L3 23ZM59 24L59 25L60 25L60 24ZM14 25L14 26L13 26L13 27L14 27L14 26L15 26L15 25ZM7 26L7 27L6 27L6 28L7 28L7 27L8 27L8 26ZM26 26L26 28L27 28L27 27L28 27L28 26ZM30 26L30 28L33 28L33 27L32 27L32 26ZM54 26L54 28L55 28L55 29L57 29L57 30L60 30L60 31L62 31L62 30L60 30L60 29L61 29L61 28L59 28L59 27L61 27L61 26L58 26L58 27L57 27L57 28L55 28L55 26ZM9 27L9 28L10 28L10 27ZM36 28L36 30L38 30L38 31L37 31L37 32L40 32L40 31L39 31L39 29L37 29L37 28ZM57 28L57 29L58 29L58 28ZM5 29L5 30L9 30L9 29ZM26 29L26 30L27 30L27 29ZM67 29L67 30L68 30L68 29ZM18 30L18 31L20 31L20 32L21 32L21 31L20 31L20 30ZM6 31L6 32L7 32L7 31ZM35 31L35 32L36 32L36 31ZM47 32L47 34L48 34L48 32ZM5 33L5 36L8 36L8 33ZM33 33L33 36L36 36L36 33ZM58 33L58 34L59 34L59 33ZM61 33L61 36L64 36L64 33ZM67 33L67 34L66 34L66 36L67 36L67 34L68 34L68 33ZM6 34L6 35L7 35L7 34ZM34 34L34 35L35 35L35 34ZM62 34L62 35L63 35L63 34ZM12 35L12 36L13 36L13 35ZM59 35L59 36L60 36L60 35ZM49 36L49 37L50 37L50 36ZM57 37L57 38L58 38L58 37ZM8 38L8 39L9 39L9 38ZM17 38L17 39L18 39L18 38ZM42 38L42 39L43 39L43 38ZM44 38L44 39L45 39L45 38ZM24 40L24 41L25 41L25 42L26 42L26 40ZM30 40L30 41L31 41L31 42L30 42L30 43L29 43L29 44L28 44L28 45L29 45L29 46L30 46L30 48L29 48L29 47L28 47L28 46L26 46L26 47L28 47L28 48L29 48L29 50L27 50L27 49L25 49L25 48L24 48L24 49L25 49L25 50L27 50L27 51L24 51L24 50L23 50L23 49L21 49L21 50L20 50L20 49L19 49L19 51L17 51L17 50L18 50L18 48L21 48L21 47L22 47L22 48L23 48L23 47L24 47L24 46L25 46L25 45L23 45L23 44L20 44L20 45L23 45L23 47L22 47L22 46L21 46L21 47L19 47L19 45L18 45L18 44L19 44L19 42L17 42L17 41L16 41L16 42L17 42L17 43L18 43L18 44L16 44L16 45L18 45L18 48L17 48L17 50L16 50L16 46L15 46L15 47L14 47L14 50L13 50L13 49L12 49L12 50L13 50L13 51L14 51L14 52L16 52L16 51L17 51L17 52L19 52L19 53L21 53L21 54L20 54L20 55L21 55L21 54L22 54L22 56L20 56L20 57L18 57L18 56L19 56L19 55L18 55L18 56L16 56L16 59L17 59L17 60L18 60L18 59L19 59L19 60L20 60L20 57L21 57L21 58L22 58L22 59L23 59L23 58L22 58L22 56L23 56L23 57L24 57L24 58L25 58L25 62L26 62L26 64L28 64L28 63L29 63L29 62L27 62L27 61L26 61L26 59L27 59L27 60L28 60L28 61L31 61L31 60L29 60L29 59L30 59L30 58L31 58L31 57L32 57L32 58L33 58L33 57L35 57L35 58L36 58L36 59L38 59L38 58L37 58L37 57L38 57L38 56L39 56L39 55L37 55L37 54L36 54L36 53L33 53L33 52L32 52L32 49L31 49L31 48L32 48L32 47L31 47L31 46L30 46L30 44L31 44L31 45L33 45L33 46L34 46L34 47L33 47L33 48L38 48L38 49L36 49L36 50L37 50L37 51L35 51L35 50L34 50L34 49L33 49L33 50L34 50L34 51L35 51L35 52L39 52L39 53L38 53L38 54L39 54L39 53L40 53L40 52L41 52L41 51L39 51L39 50L40 50L40 49L39 49L39 47L40 47L40 48L42 48L42 49L44 49L44 48L43 48L43 47L46 47L46 46L43 46L43 45L42 45L42 44L41 44L41 45L40 45L40 44L39 44L39 42L38 42L38 44L37 44L37 45L36 45L36 44L35 44L35 42L33 42L33 41L31 41L31 40ZM62 40L62 41L61 41L61 42L62 42L62 43L63 43L63 41L64 41L64 40ZM2 41L2 43L3 43L3 41ZM41 41L41 42L40 42L40 43L43 43L43 44L46 44L46 43L45 43L45 42L44 42L44 43L43 43L43 42L42 42L42 41ZM56 41L56 43L53 43L53 45L50 45L50 46L49 46L49 47L51 47L51 46L53 46L53 45L56 45L56 51L55 51L55 49L53 49L53 48L50 48L50 49L51 49L51 50L49 50L49 49L48 49L48 51L47 51L47 53L48 53L48 54L49 54L49 52L48 52L48 51L50 51L50 54L51 54L51 55L52 55L52 56L53 56L53 55L52 55L52 54L53 54L53 53L54 53L54 55L55 55L55 56L54 56L54 57L57 57L57 58L55 58L55 59L56 59L56 61L57 61L57 62L56 62L56 63L57 63L57 62L58 62L58 63L60 63L60 62L59 62L59 61L60 61L60 59L59 59L59 57L61 57L61 58L62 58L62 57L63 57L63 59L61 59L61 60L65 60L65 59L64 59L64 58L65 58L65 57L66 57L66 58L67 58L67 57L66 57L66 56L67 56L67 55L66 55L66 53L67 53L67 54L68 54L68 52L66 52L66 53L65 53L65 51L64 51L64 50L62 50L62 51L63 51L63 53L65 53L65 54L62 54L62 52L61 52L61 51L58 51L58 50L61 50L61 49L60 49L60 41L59 41L59 42L58 42L58 45L57 45L57 41ZM31 42L31 43L32 43L32 44L34 44L34 43L33 43L33 42ZM36 42L36 43L37 43L37 42ZM10 43L10 44L11 44L11 43ZM12 43L12 44L14 44L14 43ZM6 44L6 45L8 45L8 44ZM38 45L38 47L39 47L39 45ZM41 45L41 47L42 47L42 45ZM36 46L36 47L37 47L37 46ZM54 46L54 48L55 48L55 46ZM57 46L57 47L58 47L58 48L59 48L59 47L58 47L58 46ZM11 47L11 48L12 48L12 47ZM57 49L57 50L58 50L58 49ZM1 50L1 51L2 51L2 50ZM7 50L7 51L6 51L6 52L7 52L7 53L6 53L6 54L8 54L8 51L9 51L9 50ZM14 50L14 51L15 51L15 50ZM51 50L51 51L53 51L53 52L55 52L55 54L57 54L57 53L58 53L58 55L59 55L59 54L60 54L60 53L61 53L61 52L59 52L59 53L58 53L58 51L57 51L57 52L55 52L55 51L54 51L54 50ZM21 51L21 52L22 52L22 53L24 53L24 54L23 54L23 56L24 56L24 57L27 57L27 59L28 59L28 58L29 58L29 57L31 57L31 55L32 55L32 52L31 52L31 51L28 51L28 52L27 52L27 53L26 53L26 54L25 54L25 52L22 52L22 51ZM45 51L45 53L46 53L46 51ZM28 52L28 53L27 53L27 54L26 54L26 55L25 55L25 54L24 54L24 56L28 56L28 54L30 54L30 55L31 55L31 53L29 53L29 52ZM51 52L51 53L52 53L52 52ZM11 53L11 54L12 54L12 55L11 55L11 56L10 56L10 59L8 59L8 60L9 60L9 61L10 61L10 59L11 59L11 58L13 58L13 57L11 57L11 56L13 56L13 54L12 54L12 53ZM0 54L0 56L3 56L3 57L4 57L4 56L5 56L5 55L1 55L1 54ZM14 54L14 55L15 55L15 54ZM33 54L33 55L34 55L34 56L35 56L35 57L37 57L37 55L36 55L36 54L35 54L35 55L34 55L34 54ZM60 55L60 56L62 56L62 55ZM64 55L64 56L63 56L63 57L65 57L65 55ZM32 56L32 57L33 57L33 56ZM45 56L45 57L46 57L46 56ZM47 56L47 57L48 57L48 56ZM49 57L49 58L50 58L50 57ZM0 58L0 61L1 61L1 58ZM2 58L2 59L3 59L3 58ZM17 58L17 59L18 59L18 58ZM44 58L44 59L45 59L45 58ZM57 59L57 60L59 60L59 59ZM3 60L3 61L5 61L5 60ZM23 60L23 61L22 61L22 63L23 63L23 64L25 64L25 63L24 63L24 60ZM43 60L43 61L44 61L44 60ZM68 60L68 61L69 61L69 60ZM33 61L33 64L36 64L36 61ZM52 61L52 62L53 62L53 63L54 63L54 62L53 62L53 61ZM61 61L61 64L64 64L64 61ZM16 62L16 63L17 63L17 62ZM34 62L34 63L35 63L35 62ZM62 62L62 63L63 63L63 62ZM37 63L37 64L38 64L38 66L39 66L39 67L40 67L40 68L41 68L41 67L40 67L40 66L39 66L39 64L38 64L38 63ZM18 64L18 66L19 66L19 64ZM57 64L57 65L56 65L56 66L57 66L57 65L58 65L58 64ZM67 64L67 65L68 65L68 64ZM9 65L9 67L10 67L10 65ZM20 65L20 67L21 67L21 65ZM33 65L33 67L34 67L34 65ZM60 65L60 66L61 66L61 65ZM62 65L62 66L63 66L63 65ZM65 65L65 66L66 66L66 65ZM44 66L44 67L45 67L45 66ZM22 67L22 68L23 68L23 67ZM68 67L68 68L69 68L69 67ZM66 68L66 69L67 69L67 68ZM0 0L0 7L7 7L7 0ZM1 1L1 6L6 6L6 1ZM2 2L2 5L5 5L5 2ZM62 0L62 7L69 7L69 0ZM63 1L63 6L68 6L68 1ZM64 2L64 5L67 5L67 2ZM0 62L0 69L7 69L7 62ZM1 63L1 68L6 68L6 63ZM2 64L2 67L5 67L5 64Z" fill="#000000"/></g></g></svg>
