<?xml version="1.0" encoding="UTF-8"?>
<svg xmlns="http://www.w3.org/2000/svg" version="1.1" width="300" height="300" viewBox="0 0 300 300"><rect x="0" y="0" width="300" height="300" fill="#ffffff"/><g transform="scale(4.615)"><g transform="translate(0,0)"><path fill-rule="evenodd" d="M8 0L8 2L9 2L9 4L8 4L8 9L7 9L7 8L5 8L5 10L4 10L4 9L3 9L3 8L0 8L0 9L2 9L2 10L1 10L1 11L0 11L0 18L3 18L3 19L1 19L1 20L2 20L2 22L3 22L3 23L1 23L1 22L0 22L0 31L2 31L2 32L0 32L0 34L1 34L1 33L2 33L2 32L3 32L3 31L4 31L4 34L2 34L2 35L0 35L0 37L1 37L1 39L0 39L0 40L1 40L1 41L0 41L0 42L1 42L1 44L2 44L2 45L0 45L0 46L1 46L1 47L0 47L0 48L1 48L1 52L0 52L0 54L2 54L2 55L3 55L3 56L1 56L1 55L0 55L0 56L1 56L1 57L3 57L3 56L4 56L4 57L5 57L5 56L4 56L4 54L5 54L5 55L8 55L8 56L6 56L6 57L8 57L8 58L9 58L9 59L8 59L8 60L9 60L9 59L10 59L10 61L13 61L13 60L14 60L14 61L15 61L15 58L16 58L16 57L17 57L17 59L20 59L20 61L21 61L21 62L20 62L20 63L21 63L21 65L23 65L23 63L22 63L22 62L23 62L23 60L22 60L22 59L23 59L23 58L24 58L24 61L25 61L25 62L24 62L24 63L25 63L25 65L27 65L27 64L28 64L28 63L29 63L29 65L31 65L31 64L30 64L30 62L31 62L31 61L32 61L32 63L33 63L33 64L32 64L32 65L34 65L34 63L35 63L35 64L36 64L36 65L37 65L37 63L36 63L36 62L35 62L35 60L36 60L36 61L37 61L37 62L38 62L38 65L39 65L39 63L40 63L40 65L42 65L42 64L43 64L43 63L45 63L45 64L44 64L44 65L47 65L47 64L48 64L48 65L50 65L50 64L52 64L52 65L53 65L53 64L54 64L54 65L55 65L55 64L56 64L56 65L59 65L59 64L58 64L58 63L59 63L59 62L58 62L58 63L57 63L57 61L60 61L60 63L61 63L61 64L60 64L60 65L62 65L62 62L63 62L63 63L65 63L65 62L63 62L63 61L62 61L62 59L63 59L63 60L64 60L64 61L65 61L65 58L64 58L64 59L63 59L63 56L64 56L64 57L65 57L65 56L64 56L64 55L65 55L65 48L64 48L64 47L65 47L65 46L64 46L64 44L65 44L65 42L64 42L64 40L63 40L63 42L64 42L64 44L63 44L63 46L64 46L64 47L63 47L63 48L62 48L62 47L61 47L61 46L62 46L62 45L61 45L61 44L62 44L62 43L61 43L61 42L60 42L60 41L61 41L61 40L62 40L62 39L63 39L63 38L64 38L64 39L65 39L65 37L62 37L62 39L61 39L61 38L60 38L60 37L61 37L61 36L62 36L62 34L63 34L63 33L62 33L62 34L61 34L61 32L62 32L62 31L63 31L63 29L64 29L64 33L65 33L65 29L64 29L64 27L65 27L65 26L64 26L64 25L65 25L65 24L64 24L64 23L65 23L65 21L64 21L64 23L63 23L63 22L62 22L62 21L63 21L63 20L64 20L64 19L65 19L65 18L64 18L64 19L63 19L63 16L64 16L64 17L65 17L65 16L64 16L64 15L65 15L65 10L64 10L64 11L63 11L63 10L62 10L62 11L60 11L60 10L61 10L61 8L57 8L57 11L56 11L56 8L54 8L54 9L53 9L53 6L54 6L54 7L55 7L55 5L54 5L54 4L56 4L56 5L57 5L57 4L56 4L56 3L57 3L57 1L56 1L56 0L55 0L55 1L56 1L56 3L55 3L55 2L54 2L54 0L50 0L50 1L51 1L51 2L50 2L50 3L51 3L51 2L52 2L52 1L53 1L53 4L52 4L52 5L53 5L53 6L52 6L52 7L51 7L51 6L50 6L50 5L51 5L51 4L50 4L50 5L49 5L49 6L48 6L48 5L47 5L47 4L48 4L48 3L49 3L49 2L48 2L48 1L49 1L49 0L46 0L46 1L44 1L44 0L42 0L42 1L44 1L44 3L43 3L43 2L42 2L42 3L41 3L41 0L40 0L40 1L39 1L39 0L38 0L38 1L37 1L37 2L38 2L38 1L39 1L39 3L38 3L38 5L35 5L35 4L36 4L36 1L35 1L35 0L34 0L34 1L35 1L35 3L34 3L34 2L29 2L29 0L28 0L28 2L26 2L26 3L28 3L28 2L29 2L29 3L30 3L30 4L28 4L28 7L27 7L27 6L26 6L26 5L27 5L27 4L26 4L26 5L25 5L25 4L24 4L24 8L26 8L26 9L25 9L25 10L24 10L24 11L23 11L23 10L22 10L22 13L23 13L23 16L22 16L22 17L23 17L23 19L22 19L22 20L24 20L24 21L23 21L23 23L22 23L22 25L21 25L21 26L18 26L18 25L19 25L19 23L20 23L20 24L21 24L21 23L20 23L20 21L21 21L21 20L20 20L20 19L21 19L21 18L20 18L20 16L21 16L21 15L22 15L22 14L21 14L21 10L20 10L20 9L21 9L21 8L20 8L20 7L21 7L21 0L20 0L20 1L19 1L19 2L18 2L18 3L19 3L19 4L18 4L18 7L17 7L17 6L16 6L16 10L15 10L15 14L14 14L14 11L12 11L12 9L13 9L13 10L14 10L14 8L15 8L15 6L14 6L14 7L13 7L13 6L12 6L12 5L11 5L11 4L13 4L13 0L12 0L12 3L11 3L11 4L10 4L10 2L11 2L11 0L10 0L10 1L9 1L9 0ZM14 0L14 1L16 1L16 0ZM24 0L24 1L23 1L23 2L22 2L22 3L23 3L23 2L24 2L24 3L25 3L25 2L24 2L24 1L26 1L26 0ZM30 0L30 1L32 1L32 0ZM46 1L46 2L45 2L45 3L44 3L44 6L43 6L43 5L42 5L42 4L43 4L43 3L42 3L42 4L41 4L41 3L40 3L40 4L41 4L41 7L42 7L42 8L43 8L43 9L42 9L42 12L41 12L41 13L40 13L40 10L41 10L41 9L40 9L40 6L39 6L39 5L38 5L38 6L37 6L37 9L38 9L38 11L37 11L37 13L36 13L36 11L35 11L35 10L36 10L36 6L35 6L35 9L34 9L34 11L35 11L35 12L34 12L34 14L33 14L33 13L32 13L32 11L33 11L33 9L32 9L32 11L30 11L30 6L29 6L29 7L28 7L28 8L27 8L27 9L26 9L26 10L25 10L25 11L24 11L24 12L25 12L25 14L24 14L24 15L25 15L25 14L26 14L26 15L27 15L27 14L26 14L26 12L27 12L27 11L28 11L28 12L29 12L29 11L30 11L30 12L31 12L31 15L30 15L30 13L29 13L29 14L28 14L28 15L30 15L30 17L31 17L31 18L29 18L29 17L28 17L28 19L27 19L27 17L26 17L26 16L25 16L25 17L24 17L24 16L23 16L23 17L24 17L24 18L25 18L25 19L24 19L24 20L25 20L25 21L24 21L24 24L23 24L23 26L21 26L21 27L19 27L19 29L18 29L18 27L16 27L16 28L15 28L15 30L14 30L14 31L15 31L15 32L13 32L13 33L12 33L12 31L13 31L13 30L12 30L12 31L11 31L11 30L9 30L9 31L10 31L10 32L11 32L11 33L12 33L12 35L11 35L11 34L9 34L9 35L11 35L11 37L13 37L13 38L12 38L12 39L11 39L11 38L10 38L10 37L9 37L9 36L8 36L8 35L6 35L6 36L7 36L7 37L5 37L5 40L7 40L7 41L6 41L6 42L4 42L4 41L3 41L3 42L2 42L2 41L1 41L1 42L2 42L2 44L5 44L5 46L4 46L4 45L3 45L3 46L2 46L2 48L3 48L3 46L4 46L4 47L5 47L5 48L9 48L9 51L11 51L11 49L12 49L12 48L11 48L11 47L10 47L10 46L7 46L7 45L6 45L6 44L7 44L7 43L6 43L6 42L8 42L8 43L10 43L10 40L12 40L12 39L13 39L13 38L14 38L14 39L16 39L16 38L17 38L17 41L16 41L16 40L14 40L14 41L13 41L13 42L14 42L14 43L11 43L11 44L12 44L12 45L11 45L11 46L12 46L12 47L13 47L13 45L14 45L14 46L15 46L15 44L17 44L17 45L18 45L18 40L19 40L19 42L22 42L22 39L23 39L23 37L24 37L24 38L25 38L25 39L24 39L24 40L25 40L25 39L26 39L26 40L27 40L27 41L28 41L28 43L27 43L27 44L30 44L30 45L28 45L28 46L27 46L27 45L26 45L26 44L25 44L25 43L26 43L26 42L25 42L25 41L24 41L24 42L23 42L23 43L22 43L22 44L21 44L21 43L20 43L20 44L21 44L21 45L22 45L22 46L20 46L20 47L21 47L21 49L20 49L20 48L19 48L19 49L18 49L18 47L17 47L17 46L16 46L16 47L17 47L17 49L16 49L16 50L17 50L17 53L16 53L16 55L15 55L15 54L14 54L14 53L13 53L13 52L14 52L14 51L15 51L15 52L16 52L16 51L15 51L15 50L14 50L14 49L15 49L15 48L13 48L13 50L12 50L12 51L13 51L13 52L11 52L11 53L10 53L10 52L7 52L7 51L6 51L6 52L7 52L7 53L5 53L5 54L7 54L7 53L10 53L10 55L11 55L11 56L12 56L12 57L10 57L10 58L12 58L12 59L11 59L11 60L13 60L13 59L14 59L14 58L15 58L15 57L16 57L16 55L17 55L17 56L20 56L20 59L22 59L22 58L21 58L21 57L22 57L22 56L21 56L21 55L20 55L20 54L23 54L23 52L24 52L24 54L25 54L25 55L23 55L23 57L24 57L24 58L25 58L25 60L26 60L26 58L27 58L27 57L28 57L28 60L27 60L27 63L26 63L26 62L25 62L25 63L26 63L26 64L27 64L27 63L28 63L28 62L30 62L30 59L29 59L29 57L28 57L28 54L29 54L29 56L30 56L30 54L31 54L31 51L32 51L32 50L33 50L33 51L34 51L34 52L33 52L33 53L32 53L32 54L33 54L33 55L32 55L32 56L35 56L35 59L36 59L36 60L37 60L37 61L38 61L38 62L39 62L39 61L40 61L40 60L42 60L42 62L41 62L41 64L42 64L42 62L43 62L43 61L44 61L44 62L45 62L45 61L46 61L46 64L47 64L47 62L48 62L48 56L47 56L47 57L46 57L46 56L45 56L45 57L44 57L44 55L47 55L47 53L48 53L48 52L49 52L49 54L48 54L48 55L50 55L50 58L51 58L51 57L52 57L52 56L53 56L53 57L54 57L54 60L56 60L56 59L55 59L55 55L57 55L57 56L61 56L61 59L62 59L62 56L63 56L63 55L64 55L64 54L63 54L63 55L62 55L62 56L61 56L61 54L62 54L62 53L63 53L63 52L64 52L64 49L62 49L62 48L59 48L59 47L60 47L60 46L61 46L61 45L60 45L60 46L59 46L59 45L58 45L58 44L56 44L56 43L54 43L54 42L56 42L56 41L54 41L54 42L53 42L53 43L54 43L54 44L56 44L56 45L57 45L57 46L56 46L56 48L57 48L57 47L58 47L58 49L60 49L60 50L63 50L63 51L62 51L62 53L61 53L61 51L60 51L60 52L57 52L57 53L56 53L56 54L55 54L55 49L54 49L54 48L53 48L53 49L54 49L54 52L53 52L53 50L52 50L52 47L51 47L51 46L53 46L53 45L52 45L52 44L51 44L51 43L50 43L50 42L52 42L52 40L56 40L56 37L54 37L54 36L56 36L56 35L54 35L54 36L53 36L53 37L52 37L52 38L53 38L53 39L52 39L52 40L51 40L51 39L49 39L49 38L48 38L48 34L49 34L49 33L48 33L48 32L50 32L50 31L52 31L52 32L51 32L51 33L50 33L50 34L51 34L51 33L52 33L52 32L53 32L53 33L54 33L54 34L56 34L56 33L55 33L55 31L56 31L56 30L57 30L57 29L58 29L58 30L59 30L59 29L58 29L58 27L57 27L57 25L58 25L58 26L59 26L59 27L60 27L60 26L61 26L61 25L62 25L62 26L63 26L63 27L62 27L62 29L63 29L63 27L64 27L64 26L63 26L63 25L64 25L64 24L63 24L63 23L62 23L62 22L61 22L61 21L60 21L60 23L61 23L61 25L60 25L60 24L59 24L59 25L58 25L58 24L54 24L54 23L55 23L55 22L56 22L56 23L57 23L57 21L58 21L58 22L59 22L59 20L58 20L58 19L57 19L57 20L55 20L55 18L57 18L57 12L56 12L56 11L55 11L55 9L54 9L54 11L55 11L55 12L54 12L54 14L55 14L55 12L56 12L56 16L55 16L55 15L52 15L52 14L51 14L51 13L52 13L52 12L53 12L53 11L52 11L52 12L51 12L51 7L50 7L50 6L49 6L49 8L50 8L50 11L49 11L49 13L50 13L50 14L49 14L49 15L46 15L46 14L47 14L47 13L48 13L48 10L49 10L49 9L47 9L47 7L48 7L48 6L47 6L47 7L46 7L46 6L45 6L45 5L46 5L46 4L47 4L47 3L48 3L48 2L47 2L47 1ZM16 2L16 3L17 3L17 2ZM14 3L14 4L15 4L15 3ZM32 3L32 4L34 4L34 3ZM16 4L16 5L17 5L17 4ZM22 4L22 5L23 5L23 4ZM10 5L10 6L9 6L9 7L10 7L10 8L9 8L9 10L8 10L8 11L9 11L9 12L10 12L10 14L7 14L7 13L8 13L8 12L7 12L7 11L6 11L6 10L7 10L7 9L6 9L6 10L5 10L5 12L4 12L4 11L3 11L3 10L2 10L2 12L1 12L1 14L3 14L3 13L6 13L6 14L7 14L7 15L5 15L5 14L4 14L4 15L3 15L3 16L2 16L2 15L1 15L1 16L2 16L2 17L3 17L3 18L4 18L4 19L3 19L3 20L4 20L4 21L3 21L3 22L4 22L4 23L3 23L3 24L2 24L2 25L1 25L1 26L2 26L2 27L1 27L1 29L2 29L2 31L3 31L3 28L4 28L4 29L5 29L5 30L8 30L8 28L9 28L9 29L10 29L10 28L9 28L9 27L8 27L8 25L9 25L9 26L11 26L11 27L12 27L12 28L11 28L11 29L12 29L12 28L13 28L13 25L12 25L12 26L11 26L11 25L10 25L10 24L11 24L11 19L12 19L12 22L13 22L13 24L14 24L14 26L15 26L15 22L13 22L13 20L14 20L14 21L15 21L15 19L16 19L16 18L17 18L17 22L16 22L16 23L19 23L19 21L20 21L20 20L18 20L18 19L19 19L19 17L18 17L18 16L17 16L17 17L16 17L16 18L14 18L14 16L12 16L12 14L11 14L11 13L13 13L13 12L12 12L12 11L11 11L11 9L12 9L12 8L13 8L13 7L12 7L12 6L11 6L11 5ZM19 5L19 7L18 7L18 8L17 8L17 10L19 10L19 12L20 12L20 10L19 10L19 9L20 9L20 8L19 8L19 7L20 7L20 5ZM31 5L31 8L34 8L34 5ZM10 6L10 7L11 7L11 8L12 8L12 7L11 7L11 6ZM22 6L22 9L23 9L23 6ZM25 6L25 7L26 7L26 6ZM32 6L32 7L33 7L33 6ZM38 6L38 8L39 8L39 6ZM42 6L42 7L43 7L43 6ZM44 6L44 7L45 7L45 6ZM56 6L56 7L57 7L57 6ZM18 8L18 9L19 9L19 8ZM44 8L44 10L43 10L43 11L46 11L46 12L44 12L44 13L43 13L43 15L42 15L42 17L41 17L41 15L40 15L40 13L39 13L39 14L38 14L38 13L37 13L37 15L38 15L38 16L36 16L36 17L37 17L37 18L36 18L36 19L38 19L38 20L36 20L36 21L35 21L35 23L34 23L34 19L35 19L35 18L34 18L34 17L35 17L35 15L36 15L36 13L35 13L35 15L34 15L34 17L33 17L33 16L32 16L32 19L31 19L31 20L30 20L30 19L28 19L28 20L27 20L27 19L26 19L26 20L27 20L27 24L26 24L26 22L25 22L25 24L26 24L26 25L25 25L25 27L26 27L26 29L29 29L29 30L27 30L27 32L26 32L26 30L24 30L24 31L25 31L25 32L22 32L22 31L21 31L21 30L23 30L23 28L24 28L24 29L25 29L25 28L24 28L24 27L22 27L22 28L20 28L20 29L21 29L21 30L20 30L20 31L21 31L21 32L19 32L19 31L18 31L18 32L16 32L16 33L15 33L15 34L14 34L14 38L16 38L16 37L17 37L17 38L18 38L18 39L19 39L19 38L20 38L20 37L19 37L19 36L18 36L18 35L20 35L20 36L21 36L21 39L20 39L20 40L21 40L21 39L22 39L22 37L23 37L23 36L24 36L24 37L25 37L25 38L26 38L26 39L28 39L28 37L29 37L29 34L28 34L28 33L27 33L27 32L28 32L28 31L29 31L29 30L30 30L30 32L29 32L29 33L30 33L30 36L31 36L31 37L30 37L30 38L31 38L31 39L30 39L30 40L28 40L28 41L30 41L30 40L31 40L31 43L30 43L30 42L29 42L29 43L30 43L30 44L31 44L31 47L32 47L32 48L27 48L27 46L25 46L25 44L24 44L24 43L23 43L23 44L22 44L22 45L23 45L23 46L22 46L22 47L23 47L23 48L22 48L22 50L24 50L24 49L25 49L25 47L26 47L26 49L27 49L27 50L28 50L28 51L26 51L26 52L27 52L27 54L26 54L26 55L25 55L25 56L24 56L24 57L25 57L25 56L26 56L26 57L27 57L27 56L26 56L26 55L27 55L27 54L28 54L28 51L29 51L29 50L28 50L28 49L31 49L31 50L30 50L30 51L31 51L31 50L32 50L32 48L34 48L34 49L33 49L33 50L34 50L34 51L35 51L35 50L36 50L36 51L38 51L38 49L39 49L39 50L40 50L40 51L41 51L41 50L42 50L42 49L43 49L43 50L44 50L44 54L42 54L42 53L43 53L43 52L40 52L40 53L39 53L39 54L38 54L38 52L36 52L36 53L35 53L35 52L34 52L34 53L33 53L33 54L34 54L34 55L35 55L35 56L36 56L36 57L37 57L37 59L38 59L38 61L39 61L39 59L38 59L38 57L39 57L39 58L40 58L40 59L44 59L44 58L42 58L42 57L41 57L41 56L40 56L40 55L41 55L41 54L42 54L42 55L44 55L44 54L45 54L45 50L46 50L46 51L48 51L48 49L49 49L49 50L50 50L50 49L51 49L51 47L50 47L50 45L51 45L51 44L50 44L50 45L49 45L49 42L50 42L50 41L49 41L49 40L48 40L48 41L49 41L49 42L46 42L46 40L45 40L45 39L46 39L46 37L47 37L47 36L46 36L46 35L47 35L47 34L46 34L46 33L47 33L47 31L46 31L46 32L44 32L44 33L45 33L45 34L44 34L44 37L45 37L45 39L43 39L43 38L42 38L42 37L43 37L43 34L42 34L42 32L43 32L43 31L42 31L42 32L40 32L40 31L41 31L41 30L42 30L42 29L41 29L41 28L42 28L42 27L44 27L44 29L46 29L46 27L47 27L47 28L48 28L48 29L47 29L47 30L48 30L48 31L49 31L49 30L48 30L48 29L51 29L51 30L52 30L52 31L53 31L53 32L54 32L54 31L53 31L53 30L54 30L54 27L53 27L53 28L52 28L52 26L53 26L53 22L52 22L52 26L50 26L50 25L51 25L51 24L50 24L50 20L52 20L52 21L54 21L54 20L52 20L52 18L54 18L54 17L53 17L53 16L52 16L52 15L49 15L49 16L48 16L48 18L50 18L50 17L51 17L51 16L52 16L52 18L51 18L51 19L50 19L50 20L48 20L48 19L47 19L47 20L44 20L44 19L43 19L43 20L42 20L42 19L41 19L41 20L40 20L40 21L39 21L39 23L38 23L38 20L39 20L39 19L40 19L40 17L41 17L41 18L42 18L42 17L43 17L43 16L44 16L44 18L46 18L46 17L47 17L47 16L46 16L46 15L45 15L45 14L46 14L46 13L47 13L47 11L46 11L46 9L45 9L45 8ZM63 8L63 9L65 9L65 8ZM27 9L27 10L26 10L26 11L25 11L25 12L26 12L26 11L27 11L27 10L28 10L28 11L29 11L29 10L28 10L28 9ZM39 9L39 10L40 10L40 9ZM58 9L58 10L60 10L60 9ZM17 11L17 12L16 12L16 14L15 14L15 15L18 15L18 14L19 14L19 13L18 13L18 11ZM58 11L58 14L59 14L59 13L60 13L60 15L61 15L61 13L60 13L60 11ZM62 11L62 12L63 12L63 11ZM2 12L2 13L3 13L3 12ZM6 12L6 13L7 13L7 12ZM50 12L50 13L51 13L51 12ZM17 13L17 14L18 14L18 13ZM41 13L41 14L42 14L42 13ZM62 13L62 14L63 14L63 15L62 15L62 16L63 16L63 15L64 15L64 14L63 14L63 13ZM10 14L10 15L8 15L8 16L9 16L9 17L7 17L7 16L5 16L5 17L4 17L4 16L3 16L3 17L4 17L4 18L5 18L5 17L7 17L7 18L6 18L6 19L7 19L7 20L5 20L5 19L4 19L4 20L5 20L5 22L6 22L6 23L10 23L10 21L9 21L9 22L8 22L8 19L7 19L7 18L9 18L9 20L10 20L10 18L11 18L11 17L12 17L12 16L10 16L10 15L11 15L11 14ZM13 14L13 15L14 15L14 14ZM20 14L20 15L21 15L21 14ZM32 14L32 15L33 15L33 14ZM39 15L39 16L38 16L38 19L39 19L39 17L40 17L40 15ZM58 15L58 18L59 18L59 17L60 17L60 18L61 18L61 19L62 19L62 20L63 20L63 19L62 19L62 17L60 17L60 16L59 16L59 15ZM45 16L45 17L46 17L46 16ZM49 16L49 17L50 17L50 16ZM25 17L25 18L26 18L26 17ZM31 20L31 21L32 21L32 22L31 22L31 23L30 23L30 21L28 21L28 22L29 22L29 23L28 23L28 24L27 24L27 25L26 25L26 26L27 26L27 25L28 25L28 26L29 26L29 27L30 27L30 28L29 28L29 29L30 29L30 28L31 28L31 30L32 30L32 27L33 27L33 28L35 28L35 29L34 29L34 30L35 30L35 33L36 33L36 35L35 35L35 36L34 36L34 38L33 38L33 37L32 37L32 38L33 38L33 39L32 39L32 40L33 40L33 41L32 41L32 43L33 43L33 44L32 44L32 47L34 47L34 48L35 48L35 49L34 49L34 50L35 50L35 49L36 49L36 43L34 43L34 41L35 41L35 42L36 42L36 40L39 40L39 41L38 41L38 42L37 42L37 43L38 43L38 44L39 44L39 45L38 45L38 46L37 46L37 49L38 49L38 46L39 46L39 45L40 45L40 47L41 47L41 49L42 49L42 46L44 46L44 47L45 47L45 49L44 49L44 50L45 50L45 49L46 49L46 50L47 50L47 49L46 49L46 47L47 47L47 46L48 46L48 47L49 47L49 45L48 45L48 44L47 44L47 43L45 43L45 44L46 44L46 47L45 47L45 46L44 46L44 45L43 45L43 44L42 44L42 42L43 42L43 43L44 43L44 42L43 42L43 41L44 41L44 40L43 40L43 41L42 41L42 40L41 40L41 39L42 39L42 38L41 38L41 37L42 37L42 34L41 34L41 33L40 33L40 32L39 32L39 33L38 33L38 34L39 34L39 37L38 37L38 39L37 39L37 37L36 37L36 35L37 35L37 36L38 36L38 35L37 35L37 33L36 33L36 31L39 31L39 29L40 29L40 28L41 28L41 25L40 25L40 23L41 23L41 24L42 24L42 23L43 23L43 25L42 25L42 26L44 26L44 27L45 27L45 25L44 25L44 23L45 23L45 24L46 24L46 22L48 22L48 23L47 23L47 25L46 25L46 26L47 26L47 27L48 27L48 28L51 28L51 29L52 29L52 28L51 28L51 27L50 27L50 26L47 26L47 25L48 25L48 23L49 23L49 21L48 21L48 20L47 20L47 21L46 21L46 22L45 22L45 21L44 21L44 20L43 20L43 21L42 21L42 20L41 20L41 21L40 21L40 23L39 23L39 25L38 25L38 26L37 26L37 25L36 25L36 23L37 23L37 21L36 21L36 23L35 23L35 24L33 24L33 25L34 25L34 27L33 27L33 26L31 26L31 27L30 27L30 26L29 26L29 25L30 25L30 24L31 24L31 25L32 25L32 22L33 22L33 21L32 21L32 20ZM6 21L6 22L7 22L7 21ZM43 21L43 23L44 23L44 21ZM29 23L29 24L28 24L28 25L29 25L29 24L30 24L30 23ZM5 24L5 25L2 25L2 26L3 26L3 27L4 27L4 28L6 28L6 29L7 29L7 28L6 28L6 27L7 27L7 26L6 26L6 25L7 25L7 24ZM17 24L17 25L16 25L16 26L17 26L17 25L18 25L18 24ZM35 25L35 26L36 26L36 25ZM55 25L55 28L56 28L56 29L55 29L55 30L56 30L56 29L57 29L57 27L56 27L56 25ZM59 25L59 26L60 26L60 25ZM4 26L4 27L6 27L6 26ZM38 26L38 28L36 28L36 29L37 29L37 30L38 30L38 28L39 28L39 26ZM27 27L27 28L28 28L28 27ZM16 28L16 29L17 29L17 30L16 30L16 31L17 31L17 30L18 30L18 29L17 29L17 28ZM60 29L60 30L61 30L61 31L62 31L62 30L61 30L61 29ZM44 30L44 31L45 31L45 30ZM5 31L5 34L8 34L8 31ZM31 31L31 34L34 34L34 31ZM57 31L57 34L60 34L60 31ZM6 32L6 33L7 33L7 32ZM21 32L21 33L20 33L20 35L21 35L21 33L22 33L22 34L23 34L23 33L22 33L22 32ZM32 32L32 33L33 33L33 32ZM58 32L58 33L59 33L59 32ZM16 33L16 35L17 35L17 33ZM24 33L24 35L25 35L25 33ZM39 33L39 34L40 34L40 37L39 37L39 39L40 39L40 37L41 37L41 34L40 34L40 33ZM27 34L27 35L26 35L26 36L27 36L27 35L28 35L28 34ZM45 34L45 35L46 35L46 34ZM52 34L52 35L53 35L53 34ZM64 34L64 35L65 35L65 34ZM3 35L3 36L4 36L4 35ZM22 35L22 36L23 36L23 35ZM31 35L31 36L32 36L32 35ZM57 35L57 42L59 42L59 44L60 44L60 42L59 42L59 40L61 40L61 39L60 39L60 38L59 38L59 40L58 40L58 37L60 37L60 35L59 35L59 36L58 36L58 35ZM45 36L45 37L46 37L46 36ZM49 36L49 37L50 37L50 38L51 38L51 36ZM2 37L2 40L4 40L4 39L3 39L3 38L4 38L4 37ZM7 37L7 38L6 38L6 39L7 39L7 40L10 40L10 38L9 38L9 37ZM18 37L18 38L19 38L19 37ZM26 37L26 38L27 38L27 37ZM35 37L35 38L34 38L34 39L33 39L33 40L35 40L35 38L36 38L36 37ZM53 37L53 38L54 38L54 39L55 39L55 38L54 38L54 37ZM8 38L8 39L9 39L9 38ZM47 38L47 39L48 39L48 38ZM40 40L40 42L38 42L38 43L39 43L39 44L40 44L40 45L41 45L41 46L42 46L42 44L41 44L41 42L42 42L42 41L41 41L41 40ZM11 41L11 42L12 42L12 41ZM15 41L15 43L16 43L16 41ZM3 42L3 43L4 43L4 42ZM9 44L9 45L10 45L10 44ZM33 44L33 46L34 46L34 47L35 47L35 46L34 46L34 44ZM54 45L54 47L55 47L55 45ZM5 46L5 47L7 47L7 46ZM24 46L24 47L25 47L25 46ZM29 46L29 47L30 47L30 46ZM58 46L58 47L59 47L59 46ZM9 47L9 48L10 48L10 49L11 49L11 48L10 48L10 47ZM49 48L49 49L50 49L50 48ZM4 49L4 50L3 50L3 51L2 51L2 52L1 52L1 53L2 53L2 52L3 52L3 54L4 54L4 52L5 52L5 50L8 50L8 49ZM19 49L19 51L18 51L18 52L19 52L19 54L20 54L20 53L21 53L21 52L20 52L20 51L21 51L21 50L20 50L20 49ZM13 50L13 51L14 51L14 50ZM51 50L51 51L49 51L49 52L50 52L50 53L51 53L51 52L52 52L52 54L51 54L51 56L52 56L52 54L54 54L54 55L55 55L55 54L54 54L54 53L53 53L53 52L52 52L52 50ZM3 51L3 52L4 52L4 51ZM22 51L22 52L23 52L23 51ZM29 52L29 53L30 53L30 52ZM46 52L46 53L47 53L47 52ZM11 53L11 54L12 54L12 53ZM57 53L57 54L58 54L58 55L60 55L60 54L58 54L58 53ZM17 54L17 55L18 55L18 54ZM35 54L35 55L36 55L36 56L37 56L37 57L38 57L38 55L36 55L36 54ZM39 54L39 55L40 55L40 54ZM13 55L13 58L14 58L14 57L15 57L15 56L14 56L14 55ZM8 56L8 57L9 57L9 56ZM39 56L39 57L40 57L40 56ZM31 57L31 60L34 60L34 57ZM45 57L45 60L44 60L44 61L45 61L45 60L46 60L46 61L47 61L47 60L46 60L46 59L47 59L47 58L46 58L46 57ZM57 57L57 60L60 60L60 57ZM32 58L32 59L33 59L33 58ZM52 58L52 59L53 59L53 58ZM58 58L58 59L59 59L59 58ZM49 59L49 61L50 61L50 63L48 63L48 64L50 64L50 63L52 63L52 64L53 64L53 63L52 63L52 60L51 60L51 59ZM16 60L16 61L17 61L17 62L16 62L16 63L17 63L17 64L18 64L18 65L19 65L19 64L18 64L18 63L19 63L19 62L18 62L18 61L19 61L19 60L18 60L18 61L17 61L17 60ZM50 60L50 61L51 61L51 60ZM33 61L33 63L34 63L34 61ZM54 61L54 63L56 63L56 64L57 64L57 63L56 63L56 62L55 62L55 61ZM61 61L61 62L62 62L62 61ZM8 62L8 65L9 65L9 64L10 64L10 63L11 63L11 64L12 64L12 65L14 65L14 64L15 64L15 62L14 62L14 63L11 63L11 62L10 62L10 63L9 63L9 62ZM17 62L17 63L18 63L18 62ZM64 64L64 65L65 65L65 64ZM0 0L0 7L7 7L7 0ZM1 1L1 6L6 6L6 1ZM2 2L2 5L5 5L5 2ZM58 0L58 7L65 7L65 0ZM59 1L59 6L64 6L64 1ZM60 2L60 5L63 5L63 2ZM0 58L0 65L7 65L7 58ZM1 59L1 64L6 64L6 59ZM2 60L2 63L5 63L5 60Z" fill="#000000"/></g></g></svg>
