<?xml version="1.0" encoding="UTF-8"?>
<svg xmlns="http://www.w3.org/2000/svg" version="1.1" width="300" height="300" viewBox="0 0 300 300"><rect x="0" y="0" width="300" height="300" fill="#ffffff"/><g transform="scale(4.348)"><g transform="translate(0,0)"><path fill-rule="evenodd" d="M10 0L10 1L11 1L11 0ZM12 0L12 2L10 2L10 5L8 5L8 7L9 7L9 8L6 8L6 9L5 9L5 8L0 8L0 9L1 9L1 11L0 11L0 12L1 12L1 11L2 11L2 13L3 13L3 11L2 11L2 10L3 10L3 9L4 9L4 10L5 10L5 11L4 11L4 12L5 12L5 13L4 13L4 16L3 16L3 15L2 15L2 16L3 16L3 17L2 17L2 18L0 18L0 21L1 21L1 22L0 22L0 24L1 24L1 25L0 25L0 27L1 27L1 28L0 28L0 29L1 29L1 30L0 30L0 31L2 31L2 32L1 32L1 33L2 33L2 34L3 34L3 33L2 33L2 32L3 32L3 30L4 30L4 31L7 31L7 32L4 32L4 37L7 37L7 38L6 38L6 39L7 39L7 38L8 38L8 41L7 41L7 40L5 40L5 39L4 39L4 38L1 38L1 39L2 39L2 43L0 43L0 44L1 44L1 47L2 47L2 49L1 49L1 48L0 48L0 54L2 54L2 55L1 55L1 56L0 56L0 57L1 57L1 56L2 56L2 57L3 57L3 54L5 54L5 55L4 55L4 56L6 56L6 57L7 57L7 56L6 56L6 55L10 55L10 54L12 54L12 55L15 55L15 57L14 57L14 56L13 56L13 60L12 60L12 56L11 56L11 57L10 57L10 56L9 56L9 58L5 58L5 57L4 57L4 59L8 59L8 60L6 60L6 61L8 61L8 63L10 63L10 64L11 64L11 65L9 65L9 64L8 64L8 69L9 69L9 68L10 68L10 67L11 67L11 68L12 68L12 69L16 69L16 68L17 68L17 69L21 69L21 68L19 68L19 67L20 67L20 66L19 66L19 65L20 65L20 64L21 64L21 62L25 62L25 63L24 63L24 64L23 64L23 66L22 66L22 65L21 65L21 67L22 67L22 68L23 68L23 67L24 67L24 66L25 66L25 69L26 69L26 67L28 67L28 68L29 68L29 69L32 69L32 67L33 67L33 65L35 65L35 66L34 66L34 68L36 68L36 69L38 69L38 68L37 68L37 67L39 67L39 66L37 66L37 65L38 65L38 63L39 63L39 64L41 64L41 66L40 66L40 67L41 67L41 69L44 69L44 68L47 68L47 69L49 69L49 68L47 68L47 67L49 67L49 66L50 66L50 64L51 64L51 63L53 63L53 62L54 62L54 63L55 63L55 62L56 62L56 63L58 63L58 65L59 65L59 66L58 66L58 67L59 67L59 68L57 68L57 69L59 69L59 68L60 68L60 67L61 67L61 68L62 68L62 69L64 69L64 68L65 68L65 69L68 69L68 68L67 68L67 65L69 65L69 63L68 63L68 61L69 61L69 59L68 59L68 58L69 58L69 57L68 57L68 56L69 56L69 55L63 55L63 57L64 57L64 56L66 56L66 57L65 57L65 58L64 58L64 59L65 59L65 60L63 60L63 59L62 59L62 54L63 54L63 53L64 53L64 51L62 51L62 50L63 50L63 49L65 49L65 51L66 51L66 52L65 52L65 54L69 54L69 53L66 53L66 52L68 52L68 50L69 50L69 48L68 48L68 49L65 49L65 48L67 48L67 47L68 47L68 46L67 46L67 44L68 44L68 43L67 43L67 42L69 42L69 41L67 41L67 39L68 39L68 40L69 40L69 39L68 39L68 36L69 36L69 35L68 35L68 34L69 34L69 33L68 33L68 32L69 32L69 31L68 31L68 29L67 29L67 31L65 31L65 29L66 29L66 28L68 28L68 26L67 26L67 25L65 25L65 27L63 27L63 26L64 26L64 25L63 25L63 26L62 26L62 25L61 25L61 24L62 24L62 19L63 19L63 18L66 18L66 20L65 20L65 22L64 22L64 23L65 23L65 24L67 24L67 23L68 23L68 25L69 25L69 23L68 23L68 22L69 22L69 21L68 21L68 18L69 18L69 17L68 17L68 14L65 14L65 13L64 13L64 12L66 12L66 13L68 13L68 12L69 12L69 11L68 11L68 10L67 10L67 11L64 11L64 12L63 12L63 10L62 10L62 8L61 8L61 6L60 6L60 8L59 8L59 10L62 10L62 13L59 13L59 12L61 12L61 11L57 11L57 9L56 9L56 8L58 8L58 7L59 7L59 4L58 4L58 7L57 7L57 4L56 4L56 3L55 3L55 4L53 4L53 5L54 5L54 7L55 7L55 8L54 8L54 9L52 9L52 10L51 10L51 11L49 11L49 12L47 12L47 11L45 11L45 12L46 12L46 13L47 13L47 14L45 14L45 13L44 13L44 11L43 11L43 13L42 13L42 14L41 14L41 12L42 12L42 10L45 10L45 9L46 9L46 7L47 7L47 10L50 10L50 9L49 9L49 8L50 8L50 7L51 7L51 8L52 8L52 7L53 7L53 6L52 6L52 7L51 7L51 5L52 5L52 4L51 4L51 5L50 5L50 3L52 3L52 2L50 2L50 0L47 0L47 2L48 2L48 3L47 3L47 4L49 4L49 6L48 6L48 7L47 7L47 6L46 6L46 5L44 5L44 3L45 3L45 4L46 4L46 3L45 3L45 2L44 2L44 3L43 3L43 0L41 0L41 1L38 1L38 0L37 0L37 1L36 1L36 0L35 0L35 1L32 1L32 0L31 0L31 1L30 1L30 0L28 0L28 1L26 1L26 3L25 3L25 4L24 4L24 2L25 2L25 0L23 0L23 1L21 1L21 2L23 2L23 4L22 4L22 3L17 3L17 2L16 2L16 1L15 1L15 0L14 0L14 1L13 1L13 0ZM17 0L17 1L19 1L19 2L20 2L20 1L19 1L19 0ZM44 0L44 1L45 1L45 0ZM51 0L51 1L52 1L52 0ZM53 0L53 1L54 1L54 2L57 2L57 3L59 3L59 2L57 2L57 0ZM58 0L58 1L61 1L61 0ZM8 1L8 2L9 2L9 1ZM14 1L14 2L12 2L12 3L11 3L11 4L13 4L13 5L11 5L11 7L10 7L10 6L9 6L9 7L10 7L10 8L9 8L9 9L6 9L6 10L7 10L7 11L5 11L5 12L7 12L7 11L8 11L8 10L11 10L11 11L12 11L12 13L11 13L11 12L9 12L9 13L11 13L11 14L12 14L12 15L11 15L11 16L12 16L12 15L13 15L13 17L12 17L12 18L14 18L14 19L16 19L16 18L17 18L17 20L16 20L16 21L17 21L17 23L16 23L16 25L15 25L15 26L14 26L14 22L15 22L15 21L14 21L14 20L13 20L13 22L12 22L12 19L10 19L10 18L11 18L11 17L9 17L9 16L8 16L8 17L6 17L6 16L7 16L7 15L5 15L5 17L4 17L4 21L3 21L3 18L2 18L2 19L1 19L1 20L2 20L2 21L3 21L3 22L4 22L4 24L7 24L7 23L8 23L8 25L5 25L5 26L7 26L7 27L6 27L6 28L7 28L7 29L6 29L6 30L8 30L8 31L9 31L9 32L10 32L10 34L11 34L11 35L9 35L9 37L8 37L8 38L9 38L9 41L10 41L10 42L8 42L8 44L7 44L7 43L5 43L5 45L2 45L2 46L4 46L4 47L3 47L3 49L2 49L2 50L1 50L1 51L2 51L2 52L1 52L1 53L3 53L3 51L2 51L2 50L3 50L3 49L4 49L4 50L5 50L5 48L4 48L4 47L6 47L6 48L7 48L7 49L6 49L6 50L7 50L7 51L6 51L6 52L5 52L5 51L4 51L4 53L6 53L6 54L7 54L7 53L11 53L11 52L12 52L12 50L10 50L10 49L9 49L9 48L7 48L7 47L6 47L6 46L8 46L8 47L9 47L9 46L10 46L10 45L11 45L11 46L12 46L12 47L13 47L13 46L14 46L14 47L15 47L15 48L16 48L16 49L14 49L14 48L13 48L13 51L14 51L14 53L12 53L12 54L15 54L15 53L16 53L16 54L17 54L17 55L18 55L18 56L19 56L19 57L20 57L20 58L18 58L18 57L17 57L17 56L16 56L16 57L15 57L15 58L14 58L14 59L15 59L15 60L14 60L14 61L15 61L15 63L14 63L14 64L13 64L13 63L11 63L11 64L13 64L13 66L12 66L12 68L16 68L16 67L15 67L15 66L17 66L17 65L18 65L18 64L17 64L17 63L18 63L18 62L19 62L19 61L18 61L18 60L16 60L16 59L15 59L15 58L16 58L16 57L17 57L17 58L18 58L18 59L20 59L20 58L21 58L21 60L20 60L20 62L21 62L21 61L25 61L25 60L26 60L26 62L27 62L27 64L28 64L28 65L25 65L25 66L28 66L28 65L29 65L29 68L31 68L31 67L30 67L30 66L32 66L32 65L29 65L29 64L30 64L30 63L32 63L32 61L31 61L31 62L29 62L29 61L27 61L27 60L26 60L26 58L27 58L27 59L32 59L32 60L33 60L33 59L38 59L38 60L37 60L37 61L38 61L38 62L37 62L37 63L38 63L38 62L39 62L39 63L41 63L41 64L44 64L44 66L41 66L41 67L42 67L42 68L44 68L44 66L45 66L45 67L46 67L46 66L49 66L49 65L47 65L47 64L48 64L48 63L51 63L51 61L54 61L54 59L56 59L56 62L59 62L59 64L60 64L60 60L62 60L62 59L60 59L60 60L59 60L59 61L57 61L57 60L58 60L58 59L59 59L59 58L60 58L60 56L61 56L61 54L62 54L62 53L63 53L63 52L62 52L62 51L61 51L61 50L62 50L62 49L63 49L63 48L62 48L62 47L63 47L63 46L65 46L65 47L64 47L64 48L65 48L65 47L66 47L66 44L65 44L65 43L63 43L63 42L66 42L66 40L65 40L65 41L63 41L63 39L67 39L67 38L66 38L66 37L67 37L67 36L68 36L68 35L67 35L67 36L65 36L65 37L64 37L64 38L63 38L63 37L61 37L61 38L62 38L62 39L60 39L60 40L59 40L59 39L57 39L57 38L59 38L59 37L60 37L60 35L57 35L57 34L60 34L60 32L61 32L61 31L63 31L63 32L64 32L64 31L63 31L63 30L64 30L64 29L65 29L65 28L66 28L66 27L65 27L65 28L63 28L63 27L62 27L62 28L60 28L60 27L59 27L59 25L58 25L58 24L60 24L60 23L59 23L59 22L60 22L60 21L61 21L61 20L60 20L60 19L62 19L62 18L63 18L63 17L66 17L66 18L67 18L67 17L66 17L66 16L65 16L65 14L64 14L64 13L62 13L62 15L61 15L61 16L59 16L59 15L60 15L60 14L59 14L59 13L57 13L57 12L56 12L56 14L54 14L54 13L55 13L55 11L53 11L53 10L52 10L52 12L51 12L51 13L50 13L50 12L49 12L49 13L50 13L50 14L52 14L52 15L50 15L50 16L49 16L49 17L45 17L45 16L47 16L47 15L49 15L49 14L47 14L47 15L45 15L45 14L44 14L44 13L43 13L43 14L42 14L42 15L40 15L40 14L39 14L39 13L40 13L40 12L41 12L41 9L43 9L43 8L44 8L44 9L45 9L45 7L46 7L46 6L45 6L45 7L44 7L44 5L39 5L39 4L43 4L43 3L39 3L39 2L32 2L32 1L31 1L31 2L32 2L32 3L31 3L31 4L32 4L32 3L33 3L33 4L35 4L35 3L38 3L38 4L37 4L37 5L38 5L38 6L37 6L37 7L38 7L38 10L36 10L36 9L35 9L35 10L34 10L34 9L32 9L32 8L31 8L31 7L32 7L32 5L30 5L30 4L29 4L29 3L30 3L30 2L29 2L29 3L28 3L28 2L27 2L27 3L26 3L26 5L24 5L24 4L23 4L23 5L22 5L22 4L19 4L19 5L20 5L20 6L19 6L19 8L20 8L20 10L22 10L22 12L21 12L21 13L20 13L20 12L19 12L19 11L18 11L18 10L19 10L19 9L18 9L18 10L17 10L17 11L16 11L16 10L15 10L15 7L16 7L16 9L17 9L17 8L18 8L18 6L17 6L17 7L16 7L16 5L18 5L18 4L17 4L17 3L16 3L16 2L15 2L15 1ZM41 1L41 2L42 2L42 1ZM14 2L14 3L15 3L15 4L16 4L16 3L15 3L15 2ZM49 2L49 3L50 3L50 2ZM8 3L8 4L9 4L9 3ZM60 3L60 5L61 5L61 3ZM55 4L55 7L56 7L56 4ZM21 5L21 6L20 6L20 7L21 7L21 6L22 6L22 7L23 7L23 6L22 6L22 5ZM26 5L26 7L25 7L25 6L24 6L24 9L23 9L23 10L24 10L24 9L25 9L25 12L24 12L24 11L23 11L23 12L24 12L24 13L23 13L23 16L26 16L26 15L24 15L24 14L27 14L27 13L25 13L25 12L26 12L26 8L27 8L27 9L30 9L30 11L29 11L29 10L27 10L27 11L29 11L29 14L28 14L28 15L27 15L27 16L28 16L28 15L29 15L29 20L28 20L28 19L26 19L26 17L22 17L22 16L21 16L21 17L18 17L18 16L17 16L17 17L18 17L18 18L20 18L20 19L19 19L19 20L17 20L17 21L19 21L19 24L17 24L17 25L16 25L16 26L15 26L15 27L16 27L16 28L15 28L15 29L19 29L19 30L18 30L18 31L17 31L17 32L18 32L18 33L17 33L17 34L15 34L15 33L16 33L16 32L14 32L14 31L16 31L16 30L14 30L14 31L13 31L13 29L14 29L14 28L13 28L13 29L12 29L12 28L11 28L11 27L12 27L12 26L13 26L13 25L10 25L10 26L11 26L11 27L10 27L10 29L8 29L8 30L12 30L12 31L13 31L13 32L11 32L11 33L13 33L13 34L12 34L12 36L10 36L10 37L9 37L9 38L10 38L10 41L11 41L11 43L10 43L10 44L11 44L11 43L12 43L12 42L13 42L13 44L12 44L12 46L13 46L13 45L15 45L15 44L16 44L16 43L15 43L15 42L16 42L16 41L15 41L15 39L16 39L16 38L15 38L15 37L16 37L16 36L17 36L17 39L19 39L19 38L20 38L20 41L19 41L19 40L17 40L17 41L18 41L18 42L19 42L19 43L20 43L20 44L21 44L21 42L20 42L20 41L22 41L22 40L21 40L21 39L22 39L22 37L21 37L21 36L23 36L23 34L24 34L24 35L25 35L25 33L28 33L28 34L27 34L27 35L28 35L28 36L29 36L29 37L30 37L30 38L27 38L27 40L28 40L28 39L30 39L30 38L34 38L34 39L31 39L31 41L30 41L30 40L29 40L29 41L30 41L30 42L29 42L29 43L31 43L31 44L28 44L28 43L27 43L27 42L25 42L25 44L24 44L24 43L23 43L23 42L24 42L24 41L26 41L26 38L25 38L25 37L26 37L26 36L24 36L24 37L23 37L23 38L25 38L25 40L24 40L24 41L23 41L23 42L22 42L22 44L24 44L24 45L23 45L23 46L22 46L22 45L21 45L21 46L20 46L20 45L19 45L19 44L17 44L17 45L18 45L18 46L16 46L16 48L17 48L17 49L18 49L18 51L19 51L19 52L17 52L17 51L16 51L16 53L18 53L18 54L20 54L20 57L21 57L21 58L22 58L22 59L24 59L24 60L25 60L25 57L26 57L26 56L30 56L30 57L29 57L29 58L31 58L31 54L30 54L30 53L31 53L31 52L32 52L32 51L30 51L30 49L31 49L31 50L33 50L33 51L34 51L34 50L36 50L36 51L35 51L35 52L36 52L36 53L35 53L35 54L39 54L39 56L37 56L37 55L34 55L34 54L33 54L33 53L34 53L34 52L33 52L33 53L32 53L32 56L33 56L33 55L34 55L34 56L36 56L36 57L35 57L35 58L38 58L38 57L39 57L39 60L38 60L38 61L39 61L39 62L40 62L40 59L41 59L41 58L42 58L42 60L41 60L41 62L42 62L42 63L44 63L44 64L45 64L45 66L46 66L46 64L45 64L45 63L44 63L44 62L43 62L43 61L44 61L44 59L43 59L43 57L44 57L44 56L46 56L46 57L47 57L47 59L46 59L46 58L45 58L45 61L46 61L46 60L47 60L47 62L46 62L46 63L47 63L47 62L50 62L50 61L49 61L49 60L47 60L47 59L48 59L48 58L50 58L50 57L51 57L51 59L50 59L50 60L51 60L51 59L52 59L52 56L53 56L53 57L54 57L54 58L53 58L53 59L54 59L54 58L56 58L56 59L58 59L58 58L56 58L56 55L58 55L58 54L57 54L57 53L58 53L58 52L57 52L57 51L60 51L60 50L61 50L61 49L60 49L60 50L57 50L57 49L56 49L56 48L58 48L58 49L59 49L59 48L60 48L60 47L58 47L58 46L57 46L57 45L59 45L59 46L61 46L61 47L62 47L62 46L61 46L61 45L59 45L59 44L61 44L61 43L62 43L62 42L63 42L63 41L61 41L61 40L60 40L60 41L59 41L59 40L57 40L57 39L56 39L56 40L53 40L53 39L55 39L55 38L57 38L57 37L56 37L56 34L55 34L55 33L56 33L56 32L57 32L57 33L58 33L58 32L57 32L57 31L56 31L56 30L55 30L55 29L56 29L56 27L57 27L57 26L55 26L55 25L56 25L56 24L57 24L57 23L58 23L58 22L57 22L57 21L58 21L58 19L59 19L59 18L62 18L62 16L64 16L64 14L63 14L63 15L62 15L62 16L61 16L61 17L59 17L59 16L58 16L58 17L59 17L59 18L57 18L57 19L56 19L56 20L54 20L54 19L55 19L55 17L56 17L56 16L54 16L54 17L52 17L52 16L53 16L53 15L54 15L54 14L53 14L53 13L52 13L52 14L53 14L53 15L52 15L52 16L50 16L50 17L49 17L49 18L47 18L47 20L46 20L46 21L48 21L48 22L47 22L47 24L46 24L46 22L44 22L44 20L43 20L43 17L44 17L44 16L45 16L45 15L44 15L44 16L42 16L42 17L41 17L41 18L39 18L39 19L37 19L37 18L38 18L38 17L33 17L33 16L34 16L34 15L33 15L33 16L32 16L32 14L31 14L31 13L32 13L32 12L30 12L30 11L32 11L32 9L30 9L30 8L28 8L28 7L29 7L29 6L30 6L30 7L31 7L31 6L30 6L30 5ZM33 5L33 8L36 8L36 5ZM12 6L12 8L11 8L11 10L12 10L12 11L13 11L13 13L12 13L12 14L13 14L13 15L15 15L15 16L16 16L16 14L17 14L17 15L18 15L18 14L19 14L19 16L20 16L20 15L21 15L21 14L22 14L22 13L21 13L21 14L20 14L20 13L19 13L19 12L18 12L18 11L17 11L17 12L15 12L15 13L14 13L14 11L15 11L15 10L14 10L14 8L13 8L13 6ZM14 6L14 7L15 7L15 6ZM27 6L27 7L28 7L28 6ZM34 6L34 7L35 7L35 6ZM38 6L38 7L39 7L39 8L40 8L40 7L41 7L41 6L40 6L40 7L39 7L39 6ZM42 6L42 7L43 7L43 6ZM49 6L49 7L50 7L50 6ZM12 8L12 9L13 9L13 8ZM21 8L21 9L22 9L22 8ZM63 8L63 9L64 9L64 10L65 10L65 9L66 9L66 8L65 8L65 9L64 9L64 8ZM67 8L67 9L68 9L68 8ZM39 9L39 10L38 10L38 11L37 11L37 13L36 13L36 12L34 12L34 11L33 11L33 12L34 12L34 13L33 13L33 14L34 14L34 13L36 13L36 14L35 14L35 15L37 15L37 14L38 14L38 16L40 16L40 15L39 15L39 14L38 14L38 11L39 11L39 12L40 12L40 11L39 11L39 10L40 10L40 9ZM13 10L13 11L14 11L14 10ZM35 10L35 11L36 11L36 10ZM67 11L67 12L68 12L68 11ZM0 13L0 14L1 14L1 13ZM5 13L5 14L8 14L8 15L9 15L9 14L8 14L8 13ZM13 13L13 14L14 14L14 13ZM15 13L15 14L16 14L16 13ZM57 14L57 15L58 15L58 14ZM0 15L0 17L1 17L1 15ZM31 16L31 18L32 18L32 20L36 20L36 21L38 21L38 20L36 20L36 19L33 19L33 18L32 18L32 16ZM5 17L5 19L7 19L7 20L5 20L5 22L6 22L6 23L7 23L7 22L8 22L8 21L9 21L9 20L10 20L10 19L9 19L9 20L8 20L8 18L6 18L6 17ZM15 17L15 18L16 18L16 17ZM21 17L21 18L22 18L22 19L21 19L21 20L20 20L20 23L22 23L22 22L23 22L23 24L26 24L26 26L25 26L25 28L26 28L26 29L25 29L25 30L27 30L27 31L28 31L28 33L29 33L29 36L31 36L31 37L32 37L32 36L31 36L31 34L32 34L32 32L34 32L34 31L33 31L33 30L34 30L34 29L35 29L35 30L37 30L37 31L35 31L35 32L37 32L37 31L39 31L39 30L40 30L40 31L43 31L43 32L38 32L38 35L37 35L37 36L38 36L38 37L36 37L36 38L35 38L35 37L34 37L34 38L35 38L35 39L34 39L34 40L33 40L33 41L32 41L32 42L31 42L31 43L32 43L32 42L33 42L33 45L32 45L32 44L31 44L31 46L30 46L30 45L28 45L28 44L27 44L27 43L26 43L26 45L27 45L27 46L25 46L25 47L24 47L24 46L23 46L23 47L24 47L24 48L25 48L25 49L26 49L26 50L24 50L24 51L25 51L25 52L26 52L26 53L25 53L25 54L23 54L23 56L26 56L26 55L30 55L30 54L29 54L29 53L30 53L30 52L29 52L29 48L27 48L27 47L28 47L28 46L29 46L29 47L30 47L30 48L31 48L31 49L36 49L36 50L37 50L37 49L38 49L38 51L39 51L39 54L40 54L40 55L43 55L43 56L42 56L42 57L43 57L43 56L44 56L44 53L45 53L45 54L46 54L46 56L47 56L47 53L45 53L45 52L46 52L46 51L51 51L51 52L49 52L49 53L48 53L48 55L50 55L50 56L49 56L49 57L50 57L50 56L52 56L52 55L51 55L51 54L53 54L53 52L54 52L54 51L53 51L53 48L52 48L52 47L53 47L53 46L54 46L54 47L56 47L56 45L57 45L57 43L58 43L58 42L59 42L59 41L57 41L57 40L56 40L56 41L55 41L55 42L54 42L54 41L53 41L53 40L51 40L51 39L53 39L53 38L52 38L52 37L55 37L55 36L54 36L54 35L55 35L55 34L54 34L54 35L53 35L53 34L52 34L52 36L51 36L51 35L50 35L50 36L49 36L49 37L45 37L45 36L47 36L47 35L49 35L49 33L45 33L45 32L44 32L44 31L45 31L45 30L46 30L46 32L47 32L47 28L49 28L49 29L48 29L48 30L49 30L49 29L50 29L50 34L51 34L51 33L55 33L55 30L53 30L53 32L52 32L52 30L51 30L51 29L50 29L50 27L47 27L47 25L48 25L48 24L49 24L49 25L50 25L50 26L51 26L51 28L52 28L52 29L54 29L54 27L55 27L55 26L53 26L53 28L52 28L52 26L51 26L51 25L53 25L53 22L54 22L54 23L55 23L55 24L54 24L54 25L55 25L55 24L56 24L56 23L57 23L57 22L56 22L56 23L55 23L55 22L54 22L54 21L53 21L53 20L52 20L52 19L54 19L54 18L52 18L52 17L50 17L50 19L49 19L49 21L50 21L50 23L48 23L48 24L47 24L47 25L46 25L46 24L45 24L45 23L44 23L44 22L41 22L41 21L42 21L42 20L41 20L41 19L39 19L39 21L40 21L40 22L41 22L41 23L43 23L43 24L44 24L44 25L43 25L43 26L46 26L46 27L44 27L44 29L43 29L43 30L42 30L42 27L39 27L39 28L40 28L40 29L38 29L38 28L37 28L37 29L36 29L36 28L35 28L35 27L36 27L36 26L35 26L35 23L31 23L31 25L32 25L32 26L31 26L31 27L33 27L33 30L32 30L32 32L31 32L31 31L30 31L30 29L28 29L28 28L29 28L29 27L27 27L27 26L29 26L29 25L30 25L30 24L26 24L26 23L30 23L30 22L32 22L32 21L30 21L30 22L29 22L29 21L28 21L28 20L26 20L26 21L28 21L28 22L23 22L23 21L25 21L25 18L22 18L22 17ZM27 17L27 18L28 18L28 17ZM44 18L44 19L46 19L46 18ZM23 19L23 20L24 20L24 19ZM7 20L7 21L6 21L6 22L7 22L7 21L8 21L8 20ZM50 20L50 21L52 21L52 20ZM56 20L56 21L57 21L57 20ZM59 20L59 21L60 21L60 20ZM66 20L66 22L65 22L65 23L66 23L66 22L68 22L68 21L67 21L67 20ZM10 21L10 22L11 22L11 24L12 24L12 22L11 22L11 21ZM21 21L21 22L22 22L22 21ZM33 21L33 22L35 22L35 21ZM1 22L1 23L2 23L2 25L1 25L1 26L2 26L2 27L3 27L3 29L2 29L2 28L1 28L1 29L2 29L2 30L3 30L3 29L4 29L4 30L5 30L5 28L4 28L4 25L3 25L3 23L2 23L2 22ZM37 22L37 23L38 23L38 24L39 24L39 25L38 25L38 26L41 26L41 25L42 25L42 24L39 24L39 22ZM9 23L9 24L10 24L10 23ZM19 24L19 25L20 25L20 26L17 26L17 27L21 27L21 25L22 25L22 26L24 26L24 25L22 25L22 24ZM50 24L50 25L51 25L51 24ZM8 26L8 27L9 27L9 26ZM33 26L33 27L34 27L34 26ZM23 27L23 28L20 28L20 30L19 30L19 31L20 31L20 33L19 33L19 34L17 34L17 35L18 35L18 36L19 36L19 37L20 37L20 38L21 38L21 37L20 37L20 36L21 36L21 35L22 35L22 34L23 34L23 33L24 33L24 32L26 32L26 31L24 31L24 32L23 32L23 30L22 30L22 32L21 32L21 29L23 29L23 28L24 28L24 27ZM58 27L58 28L57 28L57 29L59 29L59 30L58 30L58 31L59 31L59 30L62 30L62 29L59 29L59 27ZM31 28L31 29L32 29L32 28ZM27 29L27 30L28 30L28 31L29 31L29 30L28 30L28 29ZM37 29L37 30L38 30L38 29ZM43 30L43 31L44 31L44 30ZM67 31L67 32L66 32L66 33L65 33L65 35L66 35L66 33L67 33L67 34L68 34L68 33L67 33L67 32L68 32L68 31ZM13 32L13 33L14 33L14 32ZM29 32L29 33L31 33L31 32ZM43 32L43 33L40 33L40 36L42 36L42 35L41 35L41 34L43 34L43 33L44 33L44 36L43 36L43 37L41 37L41 39L39 39L39 40L38 40L38 41L37 41L37 42L38 42L38 43L36 43L36 41L34 41L34 42L35 42L35 43L34 43L34 44L36 44L36 45L37 45L37 46L36 46L36 47L35 47L35 46L32 46L32 47L35 47L35 48L36 48L36 47L37 47L37 48L38 48L38 47L39 47L39 48L40 48L40 47L41 47L41 48L42 48L42 49L41 49L41 50L39 50L39 51L41 51L41 50L42 50L42 53L41 53L41 54L43 54L43 53L44 53L44 52L45 52L45 49L46 49L46 47L47 47L47 49L49 49L49 50L50 50L50 49L49 49L49 48L48 48L48 47L47 47L47 46L49 46L49 47L50 47L50 48L51 48L51 49L52 49L52 48L51 48L51 47L52 47L52 46L53 46L53 45L54 45L54 46L55 46L55 45L56 45L56 44L55 44L55 43L56 43L56 42L55 42L55 43L54 43L54 42L51 42L51 44L52 44L52 43L54 43L54 44L53 44L53 45L52 45L52 46L50 46L50 41L51 41L51 40L50 40L50 39L51 39L51 38L50 38L50 37L49 37L49 38L50 38L50 39L48 39L48 40L47 40L47 38L45 38L45 37L44 37L44 36L45 36L45 33L44 33L44 32ZM5 33L5 36L8 36L8 33ZM33 33L33 36L36 36L36 33ZM61 33L61 36L64 36L64 33ZM0 34L0 35L1 35L1 34ZM6 34L6 35L7 35L7 34ZM13 34L13 36L15 36L15 34ZM19 34L19 35L20 35L20 34ZM34 34L34 35L35 35L35 34ZM62 34L62 35L63 35L63 34ZM0 36L0 37L1 37L1 36ZM2 36L2 37L3 37L3 36ZM10 37L10 38L11 38L11 39L12 39L12 38L14 38L14 39L15 39L15 38L14 38L14 37ZM37 38L37 39L35 39L35 40L37 40L37 39L38 39L38 38ZM42 38L42 39L41 39L41 40L39 40L39 41L38 41L38 42L39 42L39 43L40 43L40 44L38 44L38 46L39 46L39 47L40 47L40 46L39 46L39 45L40 45L40 44L41 44L41 43L40 43L40 41L41 41L41 40L44 40L44 42L43 42L43 43L44 43L44 45L43 45L43 46L42 46L42 45L41 45L41 46L42 46L42 48L43 48L43 46L44 46L44 49L43 49L43 50L44 50L44 49L45 49L45 47L46 47L46 46L47 46L47 45L46 45L46 44L47 44L47 43L46 43L46 42L47 42L47 40L45 40L45 39L43 39L43 38ZM3 39L3 40L4 40L4 41L3 41L3 44L4 44L4 41L5 41L5 40L4 40L4 39ZM11 40L11 41L13 41L13 42L15 42L15 41L13 41L13 40ZM6 41L6 42L7 42L7 41ZM44 42L44 43L45 43L45 42ZM60 42L60 43L61 43L61 42ZM14 43L14 44L15 44L15 43ZM48 43L48 44L49 44L49 43ZM6 44L6 45L7 45L7 44ZM62 44L62 45L63 45L63 44ZM44 45L44 46L45 46L45 45ZM18 46L18 47L17 47L17 48L18 48L18 49L22 49L22 50L21 50L21 51L22 51L22 52L20 52L20 54L21 54L21 55L22 55L22 54L21 54L21 53L24 53L24 52L23 52L23 48L21 48L21 47L20 47L20 46ZM10 47L10 48L11 48L11 49L12 49L12 48L11 48L11 47ZM19 47L19 48L20 48L20 47ZM25 47L25 48L26 48L26 47ZM7 49L7 50L8 50L8 51L7 51L7 52L6 52L6 53L7 53L7 52L9 52L9 51L10 51L10 52L11 52L11 51L10 51L10 50L9 50L9 49ZM27 49L27 50L26 50L26 52L28 52L28 53L27 53L27 54L28 54L28 53L29 53L29 52L28 52L28 51L27 51L27 50L28 50L28 49ZM19 50L19 51L20 51L20 50ZM56 50L56 51L57 51L57 50ZM66 50L66 51L67 51L67 50ZM43 51L43 52L44 52L44 51ZM37 52L37 53L38 53L38 52ZM55 52L55 54L54 54L54 55L53 55L53 56L55 56L55 55L56 55L56 53L57 53L57 52ZM49 53L49 54L50 54L50 53ZM25 54L25 55L26 55L26 54ZM59 54L59 55L60 55L60 54ZM21 56L21 57L22 57L22 58L24 58L24 57L22 57L22 56ZM39 56L39 57L41 57L41 56ZM32 57L32 58L33 58L33 57ZM66 57L66 58L65 58L65 59L67 59L67 58L68 58L68 57ZM0 58L0 61L1 61L1 58ZM2 58L2 59L3 59L3 58ZM9 58L9 60L8 60L8 61L9 61L9 62L10 62L10 61L9 61L9 60L11 60L11 62L12 62L12 60L11 60L11 58ZM3 60L3 61L5 61L5 60ZM15 60L15 61L16 61L16 60ZM42 60L42 61L43 61L43 60ZM67 60L67 61L68 61L68 60ZM17 61L17 62L16 62L16 63L15 63L15 65L17 65L17 64L16 64L16 63L17 63L17 62L18 62L18 61ZM33 61L33 64L36 64L36 61ZM61 61L61 64L64 64L64 61ZM28 62L28 63L29 63L29 62ZM34 62L34 63L35 63L35 62ZM62 62L62 63L63 63L63 62ZM65 62L65 63L66 63L66 62ZM19 63L19 64L20 64L20 63ZM25 63L25 64L26 64L26 63ZM53 64L53 65L54 65L54 66L53 66L53 67L54 67L54 66L55 66L55 69L56 69L56 67L57 67L57 65L56 65L56 64ZM65 64L65 65L64 65L64 66L63 66L63 65L62 65L62 68L63 68L63 67L66 67L66 66L65 66L65 65L67 65L67 64ZM51 65L51 67L52 67L52 65ZM13 66L13 67L14 67L14 66ZM50 68L50 69L51 69L51 68ZM0 0L0 7L7 7L7 0ZM1 1L1 6L6 6L6 1ZM2 2L2 5L5 5L5 2ZM62 0L62 7L69 7L69 0ZM63 1L63 6L68 6L68 1ZM64 2L64 5L67 5L67 2ZM0 62L0 69L7 69L7 62ZM1 63L1 68L6 68L6 63ZM2 64L2 67L5 67L5 64Z" fill="#000000"/></g></g></svg>
