<?xml version="1.0" encoding="UTF-8"?>
<svg xmlns="http://www.w3.org/2000/svg" version="1.1" width="300" height="300" viewBox="0 0 300 300"><rect x="0" y="0" width="300" height="300" fill="#ffffff"/><g transform="scale(4.348)"><g transform="translate(0,0)"><path fill-rule="evenodd" d="M8 0L8 2L9 2L9 3L10 3L10 4L11 4L11 5L12 5L12 7L13 7L13 5L14 5L14 4L15 4L15 6L14 6L14 10L13 10L13 11L10 11L10 10L11 10L11 9L12 9L12 8L11 8L11 6L10 6L10 7L9 7L9 4L8 4L8 9L9 9L9 8L11 8L11 9L10 9L10 10L6 10L6 11L3 11L3 10L2 10L2 9L3 9L3 8L0 8L0 10L2 10L2 12L1 12L1 13L0 13L0 15L1 15L1 17L2 17L2 19L1 19L1 20L0 20L0 21L1 21L1 20L3 20L3 19L5 19L5 18L6 18L6 19L7 19L7 18L6 18L6 17L8 17L8 16L11 16L11 19L8 19L8 22L6 22L6 21L7 21L7 20L6 20L6 21L5 21L5 20L4 20L4 21L2 21L2 23L1 23L1 24L0 24L0 25L3 25L3 24L2 24L2 23L4 23L4 26L5 26L5 27L4 27L4 29L1 29L1 30L0 30L0 34L1 34L1 35L2 35L2 34L3 34L3 33L4 33L4 35L3 35L3 36L4 36L4 37L2 37L2 36L1 36L1 37L2 37L2 38L0 38L0 40L1 40L1 41L2 41L2 42L1 42L1 44L0 44L0 45L2 45L2 44L4 44L4 42L6 42L6 43L7 43L7 44L5 44L5 45L8 45L8 46L9 46L9 45L10 45L10 46L11 46L11 47L14 47L14 48L15 48L15 46L16 46L16 49L15 49L15 50L16 50L16 51L14 51L14 52L16 52L16 53L15 53L15 54L14 54L14 53L13 53L13 52L12 52L12 51L13 51L13 50L14 50L14 49L13 49L13 48L12 48L12 49L11 49L11 48L9 48L9 49L8 49L8 48L5 48L5 47L7 47L7 46L4 46L4 47L2 47L2 49L1 49L1 46L0 46L0 49L1 49L1 50L2 50L2 49L5 49L5 50L3 50L3 51L2 51L2 52L3 52L3 53L4 53L4 54L2 54L2 57L1 57L1 56L0 56L0 61L1 61L1 58L2 58L2 59L3 59L3 58L4 58L4 59L9 59L9 60L10 60L10 59L9 59L9 58L10 58L10 57L11 57L11 55L13 55L13 54L14 54L14 55L15 55L15 57L14 57L14 59L13 59L13 62L12 62L12 63L11 63L11 61L10 61L10 62L9 62L9 61L8 61L8 60L6 60L6 61L8 61L8 62L9 62L9 63L8 63L8 64L9 64L9 65L11 65L11 66L12 66L12 67L10 67L10 66L8 66L8 69L10 69L10 68L12 68L12 67L13 67L13 68L14 68L14 69L15 69L15 68L18 68L18 69L19 69L19 67L18 67L18 65L19 65L19 64L20 64L20 65L21 65L21 64L22 64L22 65L23 65L23 66L22 66L22 67L21 67L21 66L20 66L20 67L21 67L21 69L23 69L23 68L24 68L24 67L23 67L23 66L24 66L24 65L25 65L25 62L24 62L24 61L23 61L23 58L21 58L21 59L20 59L20 58L19 58L19 59L18 59L18 62L16 62L16 61L17 61L17 59L16 59L16 58L17 58L17 56L18 56L18 57L19 57L19 55L20 55L20 53L21 53L21 52L22 52L22 53L23 53L23 55L22 55L22 56L23 56L23 55L25 55L25 56L24 56L24 57L25 57L25 56L26 56L26 57L27 57L27 58L26 58L26 59L25 59L25 58L24 58L24 59L25 59L25 60L26 60L26 61L27 61L27 62L28 62L28 63L30 63L30 62L31 62L31 64L30 64L30 65L29 65L29 64L27 64L27 63L26 63L26 64L27 64L27 66L25 66L25 69L27 69L27 68L28 68L28 69L29 69L29 67L28 67L28 66L30 66L30 67L31 67L31 64L32 64L32 66L34 66L34 65L36 65L36 66L37 66L37 64L38 64L38 65L39 65L39 66L40 66L40 65L41 65L41 67L42 67L42 68L43 68L43 67L44 67L44 69L45 69L45 67L44 67L44 65L47 65L47 67L46 67L46 69L49 69L49 67L50 67L50 69L51 69L51 67L52 67L52 66L54 66L54 69L55 69L55 68L56 68L56 69L63 69L63 68L64 68L64 69L66 69L66 67L69 67L69 66L66 66L66 67L65 67L65 66L64 66L64 65L66 65L66 63L67 63L67 62L66 62L66 61L68 61L68 60L69 60L69 58L68 58L68 59L67 59L67 60L66 60L66 58L67 58L67 57L68 57L68 55L69 55L69 52L68 52L68 51L69 51L69 48L68 48L68 49L66 49L66 47L67 47L67 46L68 46L68 47L69 47L69 46L68 46L68 45L67 45L67 44L68 44L68 43L69 43L69 42L68 42L68 43L67 43L67 41L69 41L69 38L68 38L68 37L69 37L69 32L68 32L68 31L69 31L69 28L68 28L68 27L69 27L69 26L68 26L68 27L67 27L67 25L68 25L68 23L69 23L69 20L68 20L68 19L69 19L69 13L68 13L68 17L67 17L67 16L66 16L66 15L67 15L67 12L66 12L66 10L67 10L67 9L68 9L68 12L69 12L69 8L67 8L67 9L66 9L66 10L65 10L65 8L61 8L61 6L60 6L60 7L59 7L59 4L58 4L58 3L59 3L59 2L58 2L58 1L61 1L61 0L57 0L57 1L56 1L56 0L54 0L54 1L56 1L56 2L55 2L55 4L54 4L54 2L53 2L53 0L52 0L52 3L51 3L51 4L50 4L50 5L49 5L49 4L48 4L48 5L47 5L47 4L46 4L46 5L47 5L47 6L46 6L46 7L47 7L47 8L44 8L44 9L43 9L43 11L41 11L41 10L42 10L42 8L43 8L43 4L44 4L44 7L45 7L45 4L44 4L44 2L43 2L43 3L42 3L42 2L41 2L41 0L40 0L40 2L39 2L39 0L35 0L35 2L34 2L34 4L32 4L32 3L31 3L31 2L30 2L30 1L28 1L28 2L29 2L29 3L28 3L28 5L29 5L29 6L28 6L28 7L27 7L27 5L25 5L25 4L24 4L24 5L23 5L23 6L22 6L22 7L21 7L21 6L20 6L20 7L19 7L19 5L17 5L17 4L18 4L18 3L20 3L20 5L21 5L21 2L20 2L20 1L22 1L22 3L23 3L23 1L22 1L22 0L18 0L18 1L17 1L17 0L16 0L16 1L15 1L15 0L12 0L12 1L11 1L11 2L12 2L12 1L13 1L13 2L14 2L14 3L13 3L13 5L12 5L12 3L10 3L10 2L9 2L9 1L10 1L10 0ZM24 0L24 1L26 1L26 2L27 2L27 0ZM32 0L32 1L34 1L34 0ZM42 0L42 1L44 1L44 0ZM46 0L46 1L45 1L45 2L46 2L46 3L47 3L47 2L48 2L48 1L47 1L47 0ZM50 0L50 1L49 1L49 2L50 2L50 1L51 1L51 0ZM14 1L14 2L15 2L15 4L16 4L16 3L18 3L18 2L17 2L17 1L16 1L16 2L15 2L15 1ZM36 1L36 2L35 2L35 3L36 3L36 4L37 4L37 3L36 3L36 2L37 2L37 1ZM46 1L46 2L47 2L47 1ZM24 2L24 3L25 3L25 2ZM40 2L40 6L39 6L39 5L38 5L38 6L37 6L37 8L38 8L38 9L34 9L34 13L32 13L32 12L33 12L33 11L32 11L32 10L33 10L33 9L32 9L32 8L30 8L30 6L29 6L29 7L28 7L28 8L29 8L29 9L28 9L28 10L31 10L31 13L30 13L30 12L29 12L29 13L28 13L28 16L27 16L27 15L26 15L26 16L27 16L27 17L26 17L26 18L27 18L27 21L26 21L26 19L25 19L25 16L23 16L23 17L22 17L22 15L21 15L21 17L22 17L22 18L20 18L20 19L22 19L22 20L20 20L20 22L21 22L21 23L20 23L20 24L21 24L21 25L20 25L20 26L19 26L19 25L18 25L18 24L19 24L19 23L18 23L18 20L19 20L19 16L18 16L18 15L20 15L20 14L23 14L23 15L24 15L24 14L26 14L26 12L28 12L28 11L27 11L27 9L26 9L26 8L25 8L25 7L26 7L26 6L25 6L25 7L24 7L24 6L23 6L23 7L22 7L22 8L23 8L23 7L24 7L24 8L25 8L25 9L26 9L26 11L25 11L25 10L24 10L24 11L25 11L25 13L24 13L24 12L23 12L23 11L22 11L22 10L23 10L23 9L22 9L22 10L21 10L21 9L20 9L20 10L19 10L19 9L18 9L18 6L17 6L17 5L16 5L16 6L15 6L15 8L16 8L16 9L15 9L15 10L16 10L16 11L13 11L13 12L16 12L16 15L17 15L17 18L14 18L14 17L15 17L15 15L14 15L14 17L12 17L12 19L11 19L11 20L10 20L10 21L9 21L9 22L8 22L8 23L6 23L6 22L5 22L5 21L4 21L4 22L5 22L5 25L6 25L6 26L7 26L7 25L8 25L8 26L9 26L9 27L10 27L10 28L11 28L11 29L9 29L9 28L8 28L8 27L6 27L6 28L8 28L8 29L9 29L9 30L11 30L11 31L6 31L6 30L7 30L7 29L4 29L4 31L3 31L3 30L1 30L1 31L2 31L2 33L1 33L1 34L2 34L2 33L3 33L3 32L4 32L4 31L5 31L5 32L10 32L10 33L12 33L12 32L13 32L13 33L15 33L15 32L16 32L16 35L14 35L14 36L15 36L15 37L13 37L13 36L12 36L12 37L11 37L11 38L10 38L10 37L9 37L9 38L8 38L8 37L4 37L4 38L8 38L8 39L9 39L9 40L8 40L8 41L6 41L6 40L7 40L7 39L6 39L6 40L5 40L5 39L4 39L4 41L3 41L3 39L1 39L1 40L2 40L2 41L3 41L3 42L4 42L4 41L6 41L6 42L7 42L7 43L9 43L9 44L8 44L8 45L9 45L9 44L10 44L10 45L11 45L11 46L15 46L15 45L14 45L14 44L16 44L16 46L17 46L17 49L16 49L16 50L17 50L17 51L16 51L16 52L17 52L17 53L16 53L16 54L17 54L17 55L16 55L16 56L17 56L17 55L18 55L18 52L19 52L19 51L18 51L18 50L19 50L19 48L23 48L23 52L24 52L24 54L26 54L26 51L27 51L27 53L28 53L28 54L27 54L27 55L26 55L26 56L27 56L27 55L28 55L28 60L29 60L29 61L28 61L28 62L30 62L30 58L32 58L32 60L33 60L33 59L34 59L34 58L35 58L35 59L36 59L36 60L38 60L38 62L37 62L37 63L38 63L38 64L39 64L39 65L40 65L40 62L41 62L41 61L42 61L42 62L44 62L44 63L43 63L43 65L42 65L42 63L41 63L41 65L42 65L42 67L43 67L43 65L44 65L44 63L45 63L45 62L44 62L44 59L41 59L41 58L40 58L40 54L41 54L41 53L40 53L40 51L41 51L41 52L42 52L42 54L44 54L44 55L42 55L42 56L41 56L41 57L42 57L42 58L45 58L45 57L46 57L46 58L47 58L47 57L48 57L48 54L49 54L49 53L48 53L48 52L49 52L49 51L51 51L51 49L50 49L50 48L49 48L49 45L48 45L48 44L47 44L47 43L49 43L49 44L50 44L50 43L49 43L49 41L50 41L50 42L51 42L51 43L52 43L52 44L51 44L51 45L50 45L50 47L51 47L51 45L52 45L52 47L53 47L53 45L54 45L54 48L53 48L53 49L54 49L54 52L53 52L53 50L52 50L52 52L50 52L50 54L51 54L51 55L55 55L55 57L54 57L54 59L55 59L55 61L54 61L54 60L53 60L53 59L51 59L51 57L52 57L52 56L50 56L50 57L49 57L49 59L51 59L51 61L50 61L50 60L49 60L49 61L48 61L48 59L46 59L46 60L47 60L47 61L46 61L46 62L47 62L47 61L48 61L48 63L46 63L46 64L47 64L47 65L48 65L48 63L49 63L49 65L50 65L50 67L51 67L51 65L52 65L52 64L53 64L53 61L54 61L54 64L55 64L55 65L54 65L54 66L55 66L55 65L56 65L56 66L57 66L57 65L56 65L56 64L55 64L55 63L56 63L56 62L57 62L57 64L58 64L58 66L59 66L59 67L58 67L58 68L60 68L60 66L61 66L61 65L60 65L60 66L59 66L59 63L60 63L60 61L58 61L58 59L59 59L59 60L60 60L60 59L59 59L59 57L58 57L58 59L57 59L57 57L56 57L56 56L58 56L58 55L55 55L55 53L56 53L56 54L57 54L57 53L58 53L58 54L60 54L60 53L61 53L61 54L62 54L62 52L60 52L60 53L59 53L59 51L60 51L60 50L61 50L61 48L60 48L60 47L62 47L62 50L63 50L63 47L62 47L62 45L61 45L61 44L63 44L63 43L64 43L64 46L67 46L67 45L65 45L65 42L66 42L66 41L65 41L65 40L64 40L64 38L65 38L65 39L66 39L66 40L67 40L67 39L68 39L68 38L67 38L67 37L68 37L68 33L67 33L67 31L68 31L68 30L66 30L66 29L68 29L68 28L67 28L67 27L66 27L66 25L67 25L67 23L68 23L68 22L67 22L67 23L66 23L66 25L65 25L65 27L66 27L66 28L65 28L65 30L66 30L66 32L65 32L65 34L66 34L66 33L67 33L67 35L66 35L66 36L67 36L67 37L66 37L66 38L65 38L65 37L63 37L63 39L62 39L62 38L60 38L60 37L59 37L59 36L60 36L60 34L59 34L59 33L58 33L58 32L59 32L59 31L60 31L60 32L62 32L62 31L61 31L61 29L62 29L62 30L63 30L63 31L64 31L64 27L62 27L62 28L61 28L61 27L60 27L60 28L58 28L58 30L57 30L57 29L56 29L56 28L57 28L57 27L56 27L56 26L55 26L55 25L56 25L56 24L57 24L57 23L58 23L58 24L60 24L60 26L61 26L61 24L62 24L62 26L64 26L64 25L63 25L63 23L64 23L64 22L63 22L63 21L64 21L64 20L65 20L65 19L64 19L64 16L65 16L65 15L66 15L66 12L65 12L65 11L63 11L63 12L62 12L62 14L61 14L61 12L60 12L60 11L59 11L59 12L60 12L60 16L59 16L59 15L57 15L57 13L58 13L58 14L59 14L59 13L58 13L58 12L57 12L57 13L56 13L56 12L54 12L54 10L56 10L56 11L57 11L57 10L56 10L56 8L58 8L58 10L59 10L59 9L60 9L60 10L61 10L61 9L60 9L60 8L59 8L59 7L58 7L58 6L57 6L57 5L58 5L58 4L57 4L57 3L56 3L56 4L55 4L55 5L54 5L54 4L53 4L53 3L52 3L52 5L51 5L51 7L50 7L50 6L49 6L49 5L48 5L48 6L47 6L47 7L48 7L48 8L47 8L47 9L46 9L46 10L45 10L45 12L47 12L47 13L46 13L46 15L45 15L45 16L46 16L46 20L45 20L45 17L44 17L44 11L43 11L43 12L42 12L42 13L41 13L41 11L39 11L39 7L40 7L40 6L41 6L41 8L42 8L42 4L41 4L41 2ZM30 3L30 4L29 4L29 5L30 5L30 4L31 4L31 7L32 7L32 4L31 4L31 3ZM38 3L38 4L39 4L39 3ZM60 3L60 5L61 5L61 3ZM56 4L56 5L55 5L55 6L54 6L54 5L52 5L52 7L51 7L51 8L50 8L50 7L49 7L49 6L48 6L48 7L49 7L49 8L48 8L48 9L47 9L47 10L46 10L46 11L48 11L48 13L47 13L47 16L48 16L48 17L47 17L47 19L49 19L49 18L50 18L50 21L49 21L49 20L48 20L48 21L47 21L47 22L46 22L46 21L45 21L45 20L44 20L44 21L43 21L43 22L42 22L42 21L41 21L41 19L40 19L40 17L41 17L41 18L42 18L42 19L44 19L44 18L42 18L42 17L43 17L43 15L42 15L42 16L40 16L40 17L39 17L39 16L37 16L37 17L35 17L35 16L36 16L36 15L37 15L37 14L38 14L38 15L39 15L39 14L38 14L38 13L37 13L37 14L36 14L36 13L35 13L35 14L34 14L34 15L35 15L35 16L34 16L34 17L32 17L32 15L33 15L33 14L32 14L32 15L31 15L31 14L29 14L29 16L28 16L28 17L29 17L29 16L30 16L30 19L29 19L29 18L28 18L28 19L29 19L29 20L28 20L28 21L27 21L27 22L26 22L26 21L25 21L25 19L24 19L24 17L23 17L23 18L22 18L22 19L24 19L24 21L23 21L23 20L22 20L22 21L23 21L23 23L22 23L22 24L23 24L23 23L24 23L24 21L25 21L25 23L26 23L26 26L28 26L28 27L27 27L27 28L26 28L26 29L25 29L25 30L26 30L26 29L27 29L27 31L26 31L26 32L27 32L27 34L26 34L26 38L25 38L25 40L24 40L24 39L23 39L23 38L22 38L22 37L23 37L23 35L25 35L25 34L24 34L24 33L25 33L25 31L24 31L24 28L23 28L23 26L20 26L20 27L22 27L22 29L21 29L21 28L19 28L19 27L18 27L18 29L17 29L17 27L16 27L16 26L17 26L17 24L18 24L18 23L17 23L17 24L15 24L15 26L14 26L14 25L13 25L13 28L12 28L12 27L11 27L11 26L12 26L12 25L11 25L11 24L10 24L10 22L11 22L11 23L12 23L12 24L13 24L13 22L17 22L17 20L16 20L16 19L14 19L14 20L13 20L13 21L12 21L12 20L11 20L11 21L10 21L10 22L9 22L9 23L8 23L8 25L9 25L9 26L10 26L10 27L11 27L11 28L12 28L12 29L13 29L13 30L14 30L14 31L16 31L16 32L17 32L17 36L16 36L16 37L15 37L15 38L14 38L14 40L13 40L13 38L11 38L11 39L10 39L10 38L9 38L9 39L10 39L10 40L9 40L9 41L10 41L10 40L11 40L11 41L15 41L15 39L16 39L16 41L17 41L17 42L16 42L16 43L17 43L17 42L18 42L18 43L21 43L21 42L22 42L22 47L24 47L24 48L25 48L25 51L24 51L24 52L25 52L25 51L26 51L26 49L27 49L27 48L26 48L26 47L28 47L28 49L29 49L29 46L31 46L31 47L30 47L30 50L28 50L28 51L29 51L29 52L30 52L30 53L29 53L29 54L28 54L28 55L29 55L29 58L30 58L30 57L32 57L32 58L34 58L34 57L36 57L36 59L38 59L38 60L39 60L39 61L41 61L41 60L39 60L39 59L40 59L40 58L39 58L39 59L38 59L38 56L37 56L37 57L36 57L36 55L35 55L35 54L34 54L34 53L37 53L37 55L39 55L39 54L40 54L40 53L38 53L38 52L39 52L39 51L40 51L40 49L41 49L41 51L43 51L43 50L42 50L42 49L43 49L43 48L44 48L44 50L46 50L46 51L44 51L44 54L45 54L45 55L44 55L44 57L45 57L45 55L47 55L47 54L48 54L48 53L47 53L47 54L46 54L46 52L48 52L48 50L46 50L46 49L47 49L47 48L44 48L44 47L45 47L45 46L46 46L46 45L47 45L47 47L48 47L48 45L47 45L47 44L46 44L46 43L45 43L45 44L44 44L44 45L45 45L45 46L44 46L44 47L41 47L41 48L40 48L40 49L39 49L39 50L38 50L38 49L36 49L36 48L38 48L38 47L37 47L37 46L38 46L38 45L37 45L37 46L35 46L35 45L36 45L36 44L34 44L34 43L35 43L35 41L36 41L36 42L38 42L38 43L39 43L39 42L42 42L42 43L41 43L41 44L42 44L42 45L43 45L43 44L42 44L42 43L44 43L44 41L45 41L45 42L46 42L46 41L47 41L47 39L50 39L50 41L51 41L51 39L50 39L50 36L49 36L49 35L51 35L51 36L52 36L52 37L53 37L53 38L52 38L52 41L53 41L53 42L52 42L52 43L53 43L53 44L52 44L52 45L53 45L53 44L54 44L54 45L55 45L55 46L56 46L56 45L57 45L57 48L56 48L56 50L55 50L55 52L54 52L54 53L53 53L53 52L52 52L52 54L54 54L54 53L55 53L55 52L56 52L56 53L57 53L57 52L58 52L58 51L59 51L59 50L58 50L58 49L60 49L60 48L58 48L58 47L59 47L59 46L58 46L58 45L57 45L57 44L58 44L58 40L59 40L59 41L61 41L61 39L60 39L60 38L58 38L58 36L56 36L56 37L57 37L57 38L58 38L58 39L57 39L57 40L56 40L56 38L54 38L54 36L55 36L55 35L59 35L59 34L58 34L58 33L57 33L57 32L58 32L58 31L59 31L59 30L60 30L60 29L61 29L61 28L60 28L60 29L59 29L59 30L58 30L58 31L57 31L57 32L56 32L56 34L54 34L54 33L55 33L55 32L54 32L54 29L53 29L53 28L54 28L54 27L53 27L53 26L54 26L54 25L53 25L53 24L52 24L52 23L54 23L54 21L55 21L55 22L56 22L56 21L59 21L59 22L60 22L60 20L62 20L62 21L61 21L61 22L62 22L62 23L63 23L63 22L62 22L62 21L63 21L63 20L62 20L62 17L63 17L63 15L64 15L64 14L62 14L62 17L61 17L61 16L60 16L60 17L59 17L59 16L56 16L56 13L55 13L55 14L54 14L54 12L53 12L53 11L52 11L52 10L54 10L54 9L53 9L53 8L55 8L55 6L56 6L56 7L57 7L57 6L56 6L56 5L57 5L57 4ZM33 5L33 8L36 8L36 5ZM16 6L16 8L17 8L17 6ZM34 6L34 7L35 7L35 6ZM38 6L38 7L39 7L39 6ZM53 6L53 7L52 7L52 8L51 8L51 9L50 9L50 8L49 8L49 9L48 9L48 11L49 11L49 12L50 12L50 16L49 16L49 13L48 13L48 16L49 16L49 17L48 17L48 18L49 18L49 17L50 17L50 18L52 18L52 19L53 19L53 21L52 21L52 20L51 20L51 21L50 21L50 23L49 23L49 22L48 22L48 23L49 23L49 25L48 25L48 26L47 26L47 23L45 23L45 21L44 21L44 23L42 23L42 22L41 22L41 21L40 21L40 20L38 20L38 21L40 21L40 23L38 23L38 24L39 24L39 25L36 25L36 22L37 22L37 21L36 21L36 20L37 20L37 19L38 19L38 18L39 18L39 17L38 17L38 18L37 18L37 19L36 19L36 18L35 18L35 17L34 17L34 18L32 18L32 17L31 17L31 18L32 18L32 20L33 20L33 19L34 19L34 20L35 20L35 21L33 21L33 22L32 22L32 21L31 21L31 23L30 23L30 24L31 24L31 23L32 23L32 24L33 24L33 27L34 27L34 28L35 28L35 26L34 26L34 24L35 24L35 25L36 25L36 26L37 26L37 27L36 27L36 28L37 28L37 29L38 29L38 30L37 30L37 31L36 31L36 29L35 29L35 30L34 30L34 31L36 31L36 32L38 32L38 34L37 34L37 39L36 39L36 37L33 37L33 38L32 38L32 37L30 37L30 36L32 36L32 32L33 32L33 31L32 31L32 30L31 30L31 31L30 31L30 28L31 28L31 26L32 26L32 25L30 25L30 27L28 27L28 28L27 28L27 29L28 29L28 31L27 31L27 32L28 32L28 31L29 31L29 34L28 34L28 35L29 35L29 37L28 37L28 36L27 36L27 37L28 37L28 39L27 39L27 38L26 38L26 39L27 39L27 41L28 41L28 43L27 43L27 42L26 42L26 43L25 43L25 42L24 42L24 43L25 43L25 45L24 45L24 44L23 44L23 45L24 45L24 47L25 47L25 46L27 46L27 45L26 45L26 43L27 43L27 44L29 44L29 45L28 45L28 46L29 46L29 45L30 45L30 44L29 44L29 42L30 42L30 43L31 43L31 44L32 44L32 45L31 45L31 46L32 46L32 47L31 47L31 48L32 48L32 52L31 52L31 50L30 50L30 52L31 52L31 53L30 53L30 54L32 54L32 55L33 55L33 54L32 54L32 53L33 53L33 50L35 50L35 51L34 51L34 52L35 52L35 51L36 51L36 52L37 52L37 51L36 51L36 50L35 50L35 49L34 49L34 48L35 48L35 46L34 46L34 44L32 44L32 43L34 43L34 42L32 42L32 43L31 43L31 40L30 40L30 39L31 39L31 38L32 38L32 40L33 40L33 38L34 38L34 40L35 40L35 39L36 39L36 41L38 41L38 42L39 42L39 41L40 41L40 39L41 39L41 41L42 41L42 42L43 42L43 41L44 41L44 40L45 40L45 41L46 41L46 39L47 39L47 37L48 37L48 38L49 38L49 37L48 37L48 34L49 34L49 33L50 33L50 34L52 34L52 32L51 32L51 29L52 29L52 31L53 31L53 29L52 29L52 28L53 28L53 27L52 27L52 28L50 28L50 27L51 27L51 25L52 25L52 26L53 26L53 25L52 25L52 24L51 24L51 25L50 25L50 23L52 23L52 22L53 22L53 21L54 21L54 19L55 19L55 21L56 21L56 20L57 20L57 19L55 19L55 18L56 18L56 16L55 16L55 15L54 15L54 16L53 16L53 15L52 15L52 14L53 14L53 13L52 13L52 11L51 11L51 10L52 10L52 8L53 8L53 7L54 7L54 6ZM20 7L20 8L21 8L21 7ZM5 8L5 9L7 9L7 8ZM17 9L17 10L18 10L18 9ZM31 9L31 10L32 10L32 9ZM40 9L40 10L41 10L41 9ZM62 9L62 10L63 10L63 9ZM20 10L20 12L18 12L18 11L16 11L16 12L18 12L18 13L19 13L19 14L20 14L20 12L21 12L21 10ZM6 11L6 12L2 12L2 15L3 15L3 16L4 16L4 17L6 17L6 16L8 16L8 15L10 15L10 14L12 14L12 15L11 15L11 16L13 16L13 14L14 14L14 13L13 13L13 14L12 14L12 12L11 12L11 13L10 13L10 12L9 12L9 13L8 13L8 14L7 14L7 13L6 13L6 12L8 12L8 11ZM36 11L36 12L37 12L37 11ZM50 11L50 12L51 12L51 11ZM22 12L22 13L23 13L23 14L24 14L24 13L23 13L23 12ZM64 12L64 13L65 13L65 12ZM4 13L4 16L5 16L5 15L7 15L7 14L6 14L6 13ZM40 13L40 14L41 14L41 13ZM35 14L35 15L36 15L36 14ZM30 15L30 16L31 16L31 15ZM51 15L51 16L52 16L52 17L53 17L53 18L54 18L54 17L53 17L53 16L52 16L52 15ZM58 17L58 20L60 20L60 19L61 19L61 17L60 17L60 19L59 19L59 17ZM66 17L66 18L67 18L67 19L66 19L66 20L67 20L67 21L68 21L68 20L67 20L67 19L68 19L68 18L67 18L67 17ZM17 18L17 19L18 19L18 18ZM34 18L34 19L35 19L35 20L36 20L36 19L35 19L35 18ZM30 19L30 20L31 20L31 19ZM15 20L15 21L16 21L16 20ZM28 21L28 23L27 23L27 24L28 24L28 26L29 26L29 24L28 24L28 23L29 23L29 21ZM35 21L35 22L36 22L36 21ZM51 21L51 22L52 22L52 21ZM33 23L33 24L34 24L34 23ZM40 23L40 25L39 25L39 31L38 31L38 32L39 32L39 31L40 31L40 33L39 33L39 34L38 34L38 35L39 35L39 34L41 34L41 36L40 36L40 38L42 38L42 41L43 41L43 38L45 38L45 39L46 39L46 35L47 35L47 34L46 34L46 32L47 32L47 30L48 30L48 33L49 33L49 32L50 32L50 33L51 33L51 32L50 32L50 28L49 28L49 26L50 26L50 25L49 25L49 26L48 26L48 29L47 29L47 30L46 30L46 28L44 28L44 27L43 27L43 26L42 26L42 25L43 25L43 24L42 24L42 23ZM55 23L55 24L56 24L56 23ZM6 24L6 25L7 25L7 24ZM24 24L24 25L25 25L25 24ZM44 24L44 25L45 25L45 27L47 27L47 26L46 26L46 25L45 25L45 24ZM10 25L10 26L11 26L11 25ZM40 25L40 28L43 28L43 29L40 29L40 30L42 30L42 36L41 36L41 37L42 37L42 38L43 38L43 37L44 37L44 35L46 35L46 34L44 34L44 30L45 30L45 31L46 31L46 30L45 30L45 29L44 29L44 28L43 28L43 27L42 27L42 26L41 26L41 25ZM58 25L58 26L59 26L59 25ZM0 26L0 28L2 28L2 27L3 27L3 26L2 26L2 27L1 27L1 26ZM24 26L24 27L25 27L25 26ZM14 27L14 28L13 28L13 29L15 29L15 27ZM37 27L37 28L38 28L38 27ZM32 28L32 29L33 29L33 28ZM16 29L16 31L17 31L17 29ZM18 29L18 30L19 30L19 31L18 31L18 32L19 32L19 33L18 33L18 36L17 36L17 37L16 37L16 39L17 39L17 41L18 41L18 38L19 38L19 39L21 39L21 37L22 37L22 36L21 36L21 35L23 35L23 34L21 34L21 33L20 33L20 32L19 32L19 31L22 31L22 32L23 32L23 33L24 33L24 31L22 31L22 30L23 30L23 29L22 29L22 30L21 30L21 29L20 29L20 30L19 30L19 29ZM43 29L43 30L44 30L44 29ZM55 29L55 30L56 30L56 29ZM31 31L31 32L30 32L30 35L31 35L31 32L32 32L32 31ZM5 33L5 36L8 36L8 33ZM33 33L33 36L36 36L36 33ZM61 33L61 36L64 36L64 33ZM6 34L6 35L7 35L7 34ZM10 34L10 36L11 36L11 34ZM12 34L12 35L13 35L13 34ZM20 34L20 35L21 35L21 34ZM34 34L34 35L35 35L35 34ZM43 34L43 35L44 35L44 34ZM53 34L53 35L52 35L52 36L54 36L54 34ZM62 34L62 35L63 35L63 34ZM18 36L18 37L17 37L17 38L18 38L18 37L19 37L19 38L20 38L20 37L21 37L21 36L20 36L20 37L19 37L19 36ZM38 36L38 37L39 37L39 36ZM29 37L29 38L30 38L30 37ZM38 38L38 39L39 39L39 38ZM53 38L53 40L54 40L54 44L55 44L55 45L56 45L56 43L57 43L57 41L56 41L56 40L54 40L54 38ZM66 38L66 39L67 39L67 38ZM22 39L22 40L23 40L23 39ZM28 39L28 41L29 41L29 39ZM59 39L59 40L60 40L60 39ZM19 40L19 42L21 42L21 40ZM48 40L48 41L49 41L49 40ZM62 40L62 41L63 41L63 42L62 42L62 43L63 43L63 42L64 42L64 41L63 41L63 40ZM22 41L22 42L23 42L23 41ZM55 41L55 42L56 42L56 41ZM9 42L9 43L10 43L10 44L12 44L12 45L13 45L13 44L14 44L14 42L13 42L13 44L12 44L12 42L11 42L11 43L10 43L10 42ZM60 43L60 44L59 44L59 45L60 45L60 46L61 46L61 45L60 45L60 44L61 44L61 43ZM66 43L66 44L67 44L67 43ZM18 44L18 45L19 45L19 47L18 47L18 48L19 48L19 47L20 47L20 44ZM45 44L45 45L46 45L46 44ZM40 45L40 46L41 46L41 45ZM33 47L33 48L34 48L34 47ZM64 47L64 48L65 48L65 47ZM48 48L48 49L49 49L49 48ZM54 48L54 49L55 49L55 48ZM6 49L6 50L8 50L8 51L5 51L5 52L7 52L7 53L6 53L6 54L5 54L5 55L6 55L6 56L7 56L7 57L5 57L5 58L7 58L7 57L8 57L8 58L9 58L9 56L8 56L8 54L7 54L7 53L8 53L8 52L10 52L10 51L11 51L11 49L10 49L10 51L9 51L9 50L8 50L8 49ZM12 49L12 50L13 50L13 49ZM64 49L64 51L63 51L63 52L65 52L65 53L64 53L64 54L63 54L63 56L64 56L64 58L65 58L65 57L67 57L67 55L66 55L66 54L67 54L67 51L68 51L68 50L66 50L66 52L65 52L65 49ZM20 50L20 51L22 51L22 50ZM56 50L56 51L57 51L57 50ZM0 51L0 53L1 53L1 51ZM17 51L17 52L18 52L18 51ZM12 53L12 54L13 54L13 53ZM65 53L65 54L64 54L64 56L65 56L65 54L66 54L66 53ZM0 54L0 55L1 55L1 54ZM6 54L6 55L7 55L7 54ZM9 54L9 55L10 55L10 54ZM3 55L3 57L4 57L4 55ZM30 55L30 56L31 56L31 55ZM59 55L59 56L60 56L60 55ZM12 56L12 57L13 57L13 56ZM32 56L32 57L34 57L34 56ZM61 56L61 57L60 57L60 58L61 58L61 60L63 60L63 59L62 59L62 56ZM55 58L55 59L56 59L56 58ZM11 59L11 60L12 60L12 59ZM21 59L21 61L20 61L20 63L22 63L22 64L23 64L23 63L24 63L24 62L23 62L23 63L22 63L22 59ZM64 59L64 60L65 60L65 61L66 61L66 60L65 60L65 59ZM3 60L3 61L5 61L5 60ZM14 60L14 61L16 61L16 60ZM52 60L52 61L53 61L53 60ZM56 60L56 61L55 61L55 62L56 62L56 61L57 61L57 60ZM31 61L31 62L32 62L32 61ZM33 61L33 64L36 64L36 61ZM49 61L49 63L52 63L52 62L50 62L50 61ZM61 61L61 64L64 64L64 61ZM13 62L13 63L12 63L12 65L13 65L13 63L14 63L14 62ZM15 62L15 64L14 64L14 65L16 65L16 66L15 66L15 67L17 67L17 65L16 65L16 62ZM34 62L34 63L35 63L35 62ZM38 62L38 63L39 63L39 62ZM62 62L62 63L63 63L63 62ZM68 62L68 64L67 64L67 65L68 65L68 64L69 64L69 62ZM10 63L10 64L11 64L11 63ZM18 63L18 64L19 64L19 63ZM62 65L62 68L63 68L63 67L64 67L64 68L65 68L65 67L64 67L64 66L63 66L63 65ZM13 66L13 67L14 67L14 66ZM9 67L9 68L10 68L10 67ZM22 67L22 68L23 68L23 67ZM32 67L32 69L37 69L37 68L36 68L36 67L35 67L35 68L34 68L34 67ZM39 67L39 68L38 68L38 69L39 69L39 68L40 68L40 69L41 69L41 68L40 68L40 67ZM56 67L56 68L57 68L57 67ZM30 68L30 69L31 69L31 68ZM52 68L52 69L53 69L53 68ZM68 68L68 69L69 69L69 68ZM0 0L0 7L7 7L7 0ZM1 1L1 6L6 6L6 1ZM2 2L2 5L5 5L5 2ZM62 0L62 7L69 7L69 0ZM63 1L63 6L68 6L68 1ZM64 2L64 5L67 5L67 2ZM0 62L0 69L7 69L7 62ZM1 63L1 68L6 68L6 63ZM2 64L2 67L5 67L5 64Z" fill="#000000"/></g></g></svg>
