<?xml version="1.0" encoding="UTF-8"?>
<svg xmlns="http://www.w3.org/2000/svg" version="1.1" width="300" height="300" viewBox="0 0 300 300"><rect x="0" y="0" width="300" height="300" fill="#ffffff"/><g transform="scale(4.348)"><g transform="translate(0,0)"><path fill-rule="evenodd" d="M8 0L8 1L9 1L9 2L8 2L8 5L9 5L9 6L8 6L8 7L9 7L9 8L8 8L8 9L7 9L7 8L6 8L6 9L4 9L4 8L0 8L0 9L1 9L1 12L0 12L0 14L1 14L1 16L0 16L0 18L1 18L1 17L3 17L3 18L2 18L2 20L1 20L1 19L0 19L0 20L1 20L1 21L0 21L0 22L2 22L2 21L3 21L3 22L4 22L4 23L2 23L2 24L3 24L3 25L1 25L1 26L0 26L0 27L1 27L1 29L3 29L3 30L2 30L2 32L1 32L1 34L0 34L0 35L1 35L1 36L2 36L2 40L3 40L3 41L5 41L5 42L3 42L3 44L1 44L1 42L2 42L2 41L1 41L1 42L0 42L0 44L1 44L1 45L0 45L0 46L1 46L1 45L5 45L5 47L4 47L4 46L2 46L2 47L0 47L0 49L1 49L1 50L0 50L0 51L2 51L2 52L0 52L0 54L1 54L1 55L2 55L2 59L3 59L3 58L4 58L4 59L7 59L7 58L8 58L8 59L10 59L10 60L9 60L9 61L8 61L8 62L9 62L9 61L10 61L10 60L11 60L11 59L10 59L10 58L11 58L11 57L12 57L12 60L15 60L15 63L16 63L16 59L17 59L17 61L18 61L18 62L19 62L19 63L17 63L17 64L15 64L15 65L16 65L16 66L14 66L14 67L13 67L13 64L12 64L12 66L11 66L11 64L10 64L10 63L9 63L9 64L10 64L10 66L9 66L9 65L8 65L8 69L15 69L15 68L14 68L14 67L16 67L16 69L18 69L18 67L20 67L20 69L23 69L23 68L22 68L22 67L20 67L20 65L21 65L21 66L23 66L23 67L24 67L24 64L25 64L25 66L26 66L26 64L27 64L27 69L28 69L28 67L30 67L30 65L28 65L28 64L29 64L29 62L30 62L30 61L31 61L31 64L32 64L32 65L33 65L33 66L32 66L32 67L31 67L31 68L35 68L35 69L36 69L36 68L35 68L35 66L36 66L36 67L38 67L38 66L37 66L37 65L40 65L40 64L41 64L41 63L40 63L40 64L38 64L38 62L39 62L39 60L38 60L38 59L39 59L39 58L40 58L40 59L41 59L41 61L40 61L40 62L41 62L41 61L43 61L43 62L42 62L42 63L44 63L44 64L43 64L43 65L45 65L45 66L44 66L44 67L43 67L43 68L42 68L42 69L43 69L43 68L45 68L45 69L48 69L48 68L49 68L49 69L50 69L50 68L51 68L51 69L53 69L53 68L55 68L55 67L57 67L57 69L59 69L59 68L60 68L60 69L62 69L62 68L63 68L63 67L64 67L64 68L65 68L65 67L64 67L64 65L65 65L65 66L66 66L66 67L67 67L67 66L68 66L68 65L69 65L69 63L68 63L68 65L67 65L67 63L65 63L65 60L66 60L66 59L65 59L65 60L64 60L64 58L61 58L61 57L65 57L65 58L66 58L66 57L65 57L65 55L66 55L66 53L63 53L63 51L61 51L61 50L63 50L63 49L62 49L62 48L61 48L61 47L63 47L63 48L64 48L64 49L65 49L65 50L67 50L67 51L64 51L64 52L68 52L68 54L67 54L67 60L69 60L69 58L68 58L68 57L69 57L69 56L68 56L68 54L69 54L69 52L68 52L68 51L69 51L69 49L68 49L68 48L69 48L69 45L68 45L68 41L66 41L66 43L67 43L67 45L66 45L66 46L65 46L65 47L64 47L64 46L63 46L63 44L64 44L64 45L65 45L65 44L64 44L64 43L62 43L62 42L65 42L65 40L67 40L67 38L69 38L69 37L68 37L68 35L69 35L69 31L68 31L68 30L69 30L69 27L66 27L66 26L69 26L69 24L68 24L68 25L67 25L67 24L66 24L66 23L65 23L65 20L64 20L64 19L63 19L63 18L62 18L62 19L63 19L63 22L64 22L64 24L65 24L65 25L66 25L66 26L65 26L65 27L64 27L64 25L63 25L63 23L62 23L62 25L61 25L61 26L62 26L62 28L63 28L63 29L64 29L64 28L66 28L66 30L67 30L67 31L68 31L68 32L65 32L65 31L64 31L64 30L63 30L63 32L62 32L62 30L61 30L61 32L60 32L60 37L59 37L59 38L58 38L58 37L57 37L57 39L56 39L56 38L55 38L55 39L56 39L56 40L55 40L55 41L57 41L57 42L56 42L56 44L58 44L58 45L59 45L59 47L60 47L60 50L59 50L59 52L58 52L58 53L57 53L57 52L56 52L56 51L57 51L57 50L58 50L58 49L59 49L59 48L58 48L58 46L57 46L57 45L56 45L56 46L57 46L57 49L56 49L56 48L55 48L55 47L52 47L52 46L55 46L55 45L54 45L54 44L55 44L55 43L54 43L54 41L53 41L53 44L52 44L52 43L51 43L51 42L50 42L50 43L49 43L49 41L50 41L50 38L51 38L51 37L49 37L49 36L48 36L48 34L50 34L50 35L52 35L52 34L53 34L53 35L54 35L54 34L55 34L55 33L53 33L53 32L54 32L54 31L55 31L55 32L56 32L56 30L57 30L57 31L58 31L58 30L59 30L59 31L60 31L60 29L59 29L59 28L60 28L60 24L59 24L59 23L58 23L58 22L57 22L57 21L54 21L54 20L58 20L58 19L60 19L60 20L61 20L61 21L59 21L59 22L60 22L60 23L61 23L61 22L62 22L62 20L61 20L61 19L60 19L60 17L57 17L57 16L59 16L59 15L60 15L60 12L59 12L59 11L58 11L58 10L57 10L57 11L56 11L56 12L55 12L55 11L53 11L53 10L55 10L55 9L53 9L53 8L54 8L54 7L55 7L55 8L56 8L56 7L57 7L57 6L58 6L58 7L59 7L59 8L57 8L57 9L59 9L59 10L62 10L62 11L61 11L61 14L62 14L62 16L61 16L61 17L64 17L64 14L63 14L63 13L62 13L62 12L64 12L64 10L62 10L62 8L61 8L61 6L60 6L60 7L59 7L59 4L58 4L58 5L57 5L57 6L56 6L56 7L55 7L55 6L54 6L54 7L53 7L53 5L52 5L52 4L49 4L49 3L53 3L53 2L51 2L51 1L55 1L55 2L54 2L54 3L55 3L55 4L56 4L56 2L57 2L57 1L61 1L61 0L57 0L57 1L55 1L55 0L51 0L51 1L50 1L50 0L49 0L49 1L50 1L50 2L49 2L49 3L48 3L48 2L47 2L47 3L46 3L46 2L45 2L45 0L44 0L44 2L45 2L45 4L44 4L44 3L43 3L43 5L42 5L42 7L43 7L43 8L44 8L44 7L45 7L45 6L46 6L46 7L47 7L47 5L48 5L48 4L49 4L49 6L48 6L48 7L49 7L49 8L50 8L50 9L48 9L48 8L46 8L46 9L47 9L47 11L46 11L46 10L45 10L45 9L42 9L42 11L41 11L41 12L42 12L42 13L43 13L43 15L44 15L44 16L43 16L43 18L42 18L42 16L41 16L41 17L40 17L40 14L41 14L41 13L40 13L40 14L39 14L39 13L38 13L38 12L37 12L37 13L36 13L36 12L35 12L35 10L34 10L34 9L36 9L36 10L37 10L37 11L38 11L38 9L40 9L40 10L41 10L41 8L40 8L40 7L41 7L41 4L40 4L40 7L39 7L39 6L38 6L38 7L37 7L37 5L39 5L39 2L40 2L40 1L41 1L41 3L42 3L42 1L43 1L43 0L39 0L39 2L38 2L38 1L37 1L37 0L34 0L34 1L31 1L31 2L30 2L30 0L29 0L29 2L27 2L27 1L28 1L28 0L26 0L26 2L25 2L25 0L23 0L23 3L24 3L24 4L25 4L25 5L24 5L24 8L25 8L25 6L26 6L26 7L27 7L27 6L28 6L28 8L29 8L29 9L30 9L30 8L31 8L31 6L32 6L32 9L31 9L31 10L32 10L32 11L34 11L34 13L35 13L35 16L37 16L37 15L36 15L36 14L39 14L39 17L40 17L40 18L41 18L41 19L39 19L39 18L38 18L38 20L40 20L40 21L39 21L39 23L40 23L40 21L41 21L41 22L43 22L43 21L41 21L41 19L43 19L43 20L45 20L45 21L44 21L44 22L45 22L45 23L46 23L46 25L44 25L44 24L43 24L43 25L44 25L44 26L46 26L46 27L45 27L45 28L41 28L41 29L40 29L40 27L39 27L39 26L40 26L40 25L39 25L39 24L38 24L38 21L34 21L34 20L33 20L33 19L31 19L31 22L30 22L30 20L29 20L29 24L27 24L27 23L28 23L28 22L27 22L27 23L25 23L25 21L23 21L23 20L25 20L25 18L24 18L24 19L22 19L22 18L21 18L21 17L22 17L22 16L20 16L20 19L17 19L17 16L16 16L16 15L15 15L15 14L16 14L16 13L19 13L19 14L17 14L17 15L19 15L19 14L20 14L20 15L23 15L23 13L22 13L22 14L21 14L21 12L20 12L20 11L19 11L19 10L20 10L20 9L18 9L18 7L19 7L19 6L20 6L20 8L22 8L22 9L23 9L23 12L25 12L25 10L26 10L26 9L25 9L25 10L24 10L24 9L23 9L23 8L22 8L22 7L23 7L23 4L22 4L22 2L21 2L21 1L19 1L19 0L17 0L17 1L18 1L18 2L19 2L19 3L17 3L17 4L15 4L15 3L16 3L16 1L15 1L15 3L14 3L14 4L15 4L15 6L14 6L14 7L15 7L15 9L14 9L14 8L13 8L13 5L10 5L10 4L9 4L9 2L10 2L10 0ZM11 0L11 2L12 2L12 1L13 1L13 2L14 2L14 0ZM47 0L47 1L48 1L48 0ZM35 1L35 3L34 3L34 4L38 4L38 3L36 3L36 2L37 2L37 1ZM20 2L20 3L19 3L19 4L18 4L18 6L17 6L17 7L16 7L16 6L15 6L15 7L16 7L16 9L15 9L15 10L14 10L14 9L13 9L13 8L12 8L12 6L11 6L11 8L10 8L10 9L8 9L8 12L7 12L7 11L6 11L6 10L7 10L7 9L6 9L6 10L4 10L4 11L6 11L6 12L4 12L4 15L5 15L5 14L8 14L8 15L10 15L10 16L8 16L8 18L10 18L10 17L11 17L11 18L12 18L12 19L14 19L14 20L15 20L15 21L13 21L13 20L12 20L12 21L11 21L11 19L10 19L10 21L9 21L9 22L8 22L8 20L9 20L9 19L8 19L8 20L7 20L7 19L6 19L6 18L7 18L7 17L6 17L6 18L5 18L5 19L6 19L6 20L7 20L7 21L6 21L6 22L7 22L7 23L5 23L5 24L4 24L4 26L2 26L2 28L3 28L3 27L4 27L4 26L8 26L8 25L11 25L11 24L12 24L12 23L13 23L13 25L12 25L12 26L13 26L13 27L15 27L15 28L12 28L12 29L11 29L11 26L10 26L10 28L9 28L9 29L8 29L8 30L9 30L9 29L11 29L11 30L10 30L10 32L11 32L11 33L13 33L13 34L12 34L12 35L11 35L11 34L10 34L10 33L9 33L9 37L10 37L10 38L8 38L8 40L9 40L9 39L10 39L10 41L9 41L9 42L8 42L8 41L6 41L6 42L7 42L7 43L4 43L4 44L8 44L8 46L7 46L7 45L6 45L6 46L7 46L7 47L5 47L5 48L4 48L4 47L3 47L3 48L2 48L2 49L3 49L3 48L4 48L4 52L2 52L2 53L1 53L1 54L2 54L2 55L5 55L5 56L4 56L4 58L7 58L7 57L9 57L9 56L10 56L10 57L11 57L11 56L10 56L10 55L12 55L12 54L13 54L13 53L12 53L12 52L15 52L15 51L14 51L14 48L15 48L15 46L17 46L17 47L16 47L16 48L18 48L18 50L17 50L17 49L16 49L16 50L17 50L17 51L16 51L16 52L17 52L17 53L18 53L18 54L17 54L17 55L16 55L16 56L14 56L14 55L15 55L15 53L14 53L14 55L13 55L13 56L14 56L14 57L13 57L13 59L14 59L14 58L15 58L15 59L16 59L16 56L18 56L18 57L19 57L19 58L21 58L21 57L20 57L20 56L22 56L22 58L23 58L23 59L21 59L21 62L20 62L20 64L21 64L21 63L22 63L22 62L23 62L23 60L24 60L24 63L25 63L25 64L26 64L26 61L27 61L27 64L28 64L28 62L29 62L29 61L28 61L28 59L30 59L30 58L31 58L31 61L32 61L32 59L33 59L33 60L34 60L34 59L33 59L33 58L35 58L35 59L36 59L36 60L37 60L37 61L38 61L38 60L37 60L37 59L36 59L36 58L37 58L37 57L38 57L38 58L39 58L39 56L40 56L40 55L42 55L42 54L43 54L43 52L42 52L42 54L40 54L40 55L39 55L39 56L38 56L38 55L37 55L37 54L39 54L39 53L37 53L37 52L36 52L36 58L35 58L35 57L33 57L33 58L32 58L32 57L31 57L31 55L32 55L32 54L30 54L30 53L32 53L32 52L29 52L29 51L30 51L30 50L32 50L32 51L34 51L34 53L35 53L35 51L34 51L34 49L35 49L35 50L36 50L36 51L38 51L38 48L39 48L39 51L40 51L40 53L41 53L41 51L44 51L44 52L47 52L47 54L46 54L46 55L45 55L45 53L44 53L44 55L43 55L43 58L41 58L41 59L43 59L43 58L44 58L44 63L45 63L45 64L46 64L46 65L48 65L48 66L46 66L46 67L47 67L47 68L48 68L48 66L49 66L49 67L50 67L50 66L51 66L51 68L53 68L53 67L52 67L52 65L53 65L53 66L54 66L54 67L55 67L55 66L57 66L57 65L59 65L59 66L58 66L58 68L59 68L59 66L61 66L61 67L63 67L63 65L60 65L60 63L59 63L59 61L60 61L60 59L59 59L59 58L60 58L60 55L61 55L61 54L57 54L57 53L56 53L56 55L57 55L57 56L55 56L55 53L54 53L54 54L53 54L53 52L52 52L52 51L50 51L50 48L49 48L49 50L48 50L48 48L46 48L46 46L47 46L47 47L49 47L49 46L50 46L50 47L51 47L51 50L52 50L52 49L53 49L53 51L54 51L54 52L55 52L55 51L56 51L56 50L55 50L55 49L54 49L54 48L52 48L52 47L51 47L51 46L52 46L52 45L51 45L51 44L49 44L49 43L48 43L48 46L47 46L47 45L46 45L46 44L47 44L47 43L46 43L46 42L45 42L45 43L46 43L46 44L43 44L43 45L44 45L44 47L43 47L43 46L42 46L42 47L43 47L43 48L44 48L44 49L42 49L42 48L41 48L41 47L39 47L39 45L37 45L37 44L38 44L38 42L39 42L39 44L40 44L40 42L41 42L41 43L43 43L43 40L44 40L44 39L45 39L45 38L44 38L44 39L42 39L42 38L43 38L43 36L44 36L44 37L46 37L46 39L47 39L47 40L46 40L46 41L49 41L49 37L47 37L47 36L44 36L44 35L46 35L46 34L47 34L47 32L46 32L46 31L47 31L47 30L44 30L44 29L42 29L42 30L41 30L41 31L40 31L40 29L39 29L39 27L38 27L38 25L37 25L37 22L35 22L35 24L34 24L34 25L33 25L33 22L34 22L34 21L33 21L33 20L32 20L32 24L31 24L31 23L30 23L30 24L31 24L31 25L30 25L30 27L29 27L29 31L27 31L27 29L26 29L26 30L25 30L25 29L24 29L24 30L23 30L23 31L22 31L22 30L21 30L21 26L22 26L22 29L23 29L23 28L24 28L24 27L25 27L25 28L26 28L26 27L28 27L28 26L29 26L29 25L28 25L28 26L27 26L27 24L26 24L26 25L24 25L24 27L23 27L23 25L22 25L22 24L24 24L24 22L23 22L23 21L21 21L21 20L22 20L22 19L20 19L20 22L18 22L18 23L19 23L19 24L21 24L21 26L19 26L19 28L17 28L17 30L16 30L16 34L17 34L17 33L19 33L19 34L18 34L18 35L19 35L19 34L21 34L21 35L20 35L20 37L22 37L22 38L21 38L21 41L19 41L19 40L20 40L20 39L19 39L19 40L17 40L17 39L18 39L18 38L19 38L19 37L17 37L17 35L14 35L14 33L15 33L15 29L16 29L16 27L18 27L18 24L17 24L17 23L15 23L15 22L17 22L17 20L15 20L15 19L16 19L16 16L15 16L15 18L14 18L14 16L13 16L13 15L14 15L14 14L13 14L13 15L12 15L12 12L11 12L11 11L12 11L12 10L13 10L13 11L15 11L15 12L17 12L17 10L18 10L18 9L17 9L17 7L18 7L18 6L19 6L19 4L20 4L20 3L21 3L21 2ZM24 2L24 3L25 3L25 4L26 4L26 5L27 5L27 3L25 3L25 2ZM31 2L31 4L30 4L30 5L31 5L31 4L32 4L32 3L33 3L33 2ZM58 2L58 3L59 3L59 2ZM11 3L11 4L13 4L13 3ZM28 3L28 5L29 5L29 3ZM60 3L60 5L61 5L61 3ZM46 4L46 5L47 5L47 4ZM21 5L21 7L22 7L22 5ZM33 5L33 8L36 8L36 5ZM50 5L50 6L49 6L49 7L50 7L50 6L51 6L51 8L53 8L53 7L52 7L52 6L51 6L51 5ZM9 6L9 7L10 7L10 6ZM29 6L29 8L30 8L30 6ZM34 6L34 7L35 7L35 6ZM43 6L43 7L44 7L44 6ZM11 8L11 10L12 10L12 8ZM37 8L37 9L38 9L38 8ZM59 8L59 9L61 9L61 8ZM64 8L64 9L65 9L65 10L66 10L66 11L65 11L65 12L66 12L66 13L65 13L65 18L66 18L66 19L67 19L67 20L66 20L66 22L67 22L67 23L69 23L69 22L68 22L68 21L67 21L67 20L69 20L69 19L68 19L68 18L69 18L69 17L68 17L68 18L66 18L66 16L69 16L69 15L66 15L66 14L69 14L69 13L67 13L67 12L69 12L69 8L68 8L68 9L67 9L67 8ZM2 9L2 12L1 12L1 14L2 14L2 16L3 16L3 17L5 17L5 16L3 16L3 14L2 14L2 13L3 13L3 9ZM32 9L32 10L33 10L33 9ZM50 9L50 11L51 11L51 12L50 12L50 13L53 13L53 14L51 14L51 16L50 16L50 15L49 15L49 14L48 14L48 13L47 13L47 12L49 12L49 11L47 11L47 12L46 12L46 14L48 14L48 15L49 15L49 16L47 16L47 15L45 15L45 17L44 17L44 18L43 18L43 19L44 19L44 18L45 18L45 17L46 17L46 16L47 16L47 18L49 18L49 16L50 16L50 18L51 18L51 19L53 19L53 20L54 20L54 19L57 19L57 17L55 17L55 16L56 16L56 15L58 15L58 14L59 14L59 12L56 12L56 13L58 13L58 14L55 14L55 12L53 12L53 11L51 11L51 10L52 10L52 9ZM21 10L21 11L22 11L22 10ZM29 10L29 13L32 13L32 12L30 12L30 10ZM43 10L43 11L42 11L42 12L44 12L44 13L45 13L45 12L44 12L44 10ZM67 10L67 11L66 11L66 12L67 12L67 11L68 11L68 10ZM18 11L18 12L19 12L19 13L20 13L20 12L19 12L19 11ZM27 11L27 12L28 12L28 11ZM6 12L6 13L7 13L7 12ZM9 12L9 13L8 13L8 14L9 14L9 13L10 13L10 15L11 15L11 17L13 17L13 16L12 16L12 15L11 15L11 13L10 13L10 12ZM13 12L13 13L14 13L14 12ZM25 13L25 14L24 14L24 15L25 15L25 16L24 16L24 17L25 17L25 16L26 16L26 18L28 18L28 19L29 19L29 17L27 17L27 16L26 16L26 15L25 15L25 14L26 14L26 13ZM27 13L27 14L28 14L28 15L30 15L30 16L32 16L32 17L30 17L30 18L32 18L32 17L33 17L33 18L35 18L35 20L37 20L37 17L36 17L36 18L35 18L35 17L33 17L33 16L32 16L32 15L30 15L30 14L28 14L28 13ZM33 14L33 15L34 15L34 14ZM53 14L53 15L52 15L52 16L51 16L51 17L52 17L52 18L53 18L53 19L54 19L54 17L52 17L52 16L55 16L55 15L54 15L54 14ZM6 15L6 16L7 16L7 15ZM18 16L18 17L19 17L19 16ZM3 18L3 20L4 20L4 18ZM46 19L46 21L45 21L45 22L46 22L46 23L47 23L47 22L48 22L48 21L49 21L49 20L48 20L48 19ZM18 20L18 21L19 21L19 20ZM27 20L27 21L28 21L28 20ZM47 20L47 21L48 21L48 20ZM51 20L51 21L50 21L50 22L52 22L52 23L50 23L50 24L49 24L49 25L51 25L51 26L52 26L52 27L53 27L53 28L52 28L52 29L49 29L49 27L50 27L50 26L48 26L48 24L47 24L47 25L46 25L46 26L47 26L47 27L46 27L46 28L45 28L45 29L46 29L46 28L47 28L47 29L48 29L48 31L49 31L49 32L48 32L48 33L49 33L49 32L50 32L50 31L51 31L51 32L52 32L52 31L53 31L53 30L52 30L52 29L54 29L54 30L56 30L56 29L54 29L54 27L53 27L53 26L55 26L55 28L58 28L58 27L59 27L59 25L58 25L58 24L56 24L56 25L53 25L53 24L55 24L55 23L56 23L56 22L55 22L55 23L54 23L54 21L53 21L53 22L52 22L52 20ZM4 21L4 22L5 22L5 21ZM10 21L10 22L11 22L11 23L12 23L12 22L11 22L11 21ZM20 22L20 23L23 23L23 22ZM14 23L14 26L17 26L17 25L16 25L16 24L15 24L15 23ZM41 23L41 24L42 24L42 23ZM52 23L52 24L53 24L53 23ZM6 24L6 25L8 25L8 24ZM35 24L35 26L34 26L34 27L35 27L35 30L33 30L33 31L32 31L32 27L33 27L33 25L31 25L31 29L30 29L30 31L29 31L29 33L30 33L30 32L31 32L31 35L30 35L30 34L29 34L29 35L28 35L28 32L27 32L27 34L25 34L25 32L26 32L26 31L23 31L23 32L22 32L22 31L21 31L21 30L20 30L20 32L21 32L21 33L22 33L22 35L21 35L21 36L24 36L24 35L23 35L23 34L25 34L25 36L29 36L29 38L28 38L28 37L27 37L27 38L26 38L26 37L25 37L25 38L24 38L24 40L23 40L23 41L21 41L21 42L25 42L25 41L26 41L26 43L24 43L24 44L23 44L23 43L20 43L20 45L21 45L21 46L22 46L22 45L23 45L23 47L22 47L22 48L23 48L23 49L25 49L25 48L26 48L26 47L28 47L28 48L27 48L27 49L26 49L26 50L27 50L27 52L25 52L25 54L24 54L24 53L22 53L22 52L24 52L24 51L25 51L25 50L24 50L24 51L23 51L23 50L22 50L22 49L21 49L21 50L20 50L20 49L19 49L19 53L21 53L21 54L22 54L22 56L23 56L23 57L24 57L24 58L25 58L25 59L26 59L26 57L24 57L24 56L25 56L25 55L26 55L26 56L27 56L27 57L30 57L30 56L27 56L27 55L26 55L26 54L29 54L29 52L28 52L28 51L29 51L29 50L30 50L30 49L31 49L31 48L29 48L29 46L27 46L27 45L30 45L30 47L31 47L31 46L34 46L34 47L32 47L32 49L33 49L33 48L35 48L35 49L37 49L37 48L38 48L38 46L37 46L37 45L35 45L35 44L33 44L33 45L32 45L32 44L31 44L31 45L30 45L30 43L29 43L29 41L28 41L28 40L31 40L31 41L30 41L30 42L31 42L31 41L32 41L32 42L35 42L35 41L37 41L37 40L38 40L38 41L39 41L39 42L40 42L40 40L41 40L41 38L39 38L39 35L38 35L38 34L37 34L37 33L38 33L38 32L39 32L39 33L41 33L41 36L42 36L42 35L43 35L43 32L42 32L42 33L41 33L41 32L40 32L40 31L37 31L37 30L36 30L36 29L37 29L37 28L38 28L38 27L36 27L36 24ZM56 25L56 27L58 27L58 26L57 26L57 25ZM41 26L41 27L42 27L42 26ZM5 27L5 28L4 28L4 29L6 29L6 30L7 30L7 29L6 29L6 28L7 28L7 27ZM47 27L47 28L48 28L48 27ZM33 28L33 29L34 29L34 28ZM13 29L13 31L12 31L12 30L11 30L11 32L13 32L13 33L14 33L14 29ZM18 29L18 31L19 31L19 29ZM43 30L43 31L44 31L44 30ZM3 31L3 32L2 32L2 33L3 33L3 34L4 34L4 33L3 33L3 32L4 32L4 31ZM5 31L5 32L7 32L7 31ZM8 31L8 32L9 32L9 31ZM33 31L33 32L36 32L36 31ZM23 32L23 33L24 33L24 32ZM45 32L45 33L44 33L44 34L45 34L45 33L46 33L46 32ZM57 32L57 33L56 33L56 35L57 35L57 33L59 33L59 32ZM5 33L5 36L8 36L8 33ZM33 33L33 36L36 36L36 33ZM50 33L50 34L52 34L52 33ZM61 33L61 36L64 36L64 33ZM65 33L65 35L66 35L66 36L65 36L65 37L63 37L63 38L62 38L62 37L60 37L60 41L61 41L61 42L62 42L62 40L61 40L61 39L63 39L63 38L65 38L65 39L66 39L66 38L67 38L67 35L66 35L66 34L68 34L68 33ZM1 34L1 35L2 35L2 34ZM6 34L6 35L7 35L7 34ZM34 34L34 35L35 35L35 34ZM58 34L58 36L59 36L59 34ZM62 34L62 35L63 35L63 34ZM10 35L10 36L11 36L11 35ZM13 35L13 36L12 36L12 37L11 37L11 38L10 38L10 39L11 39L11 38L12 38L12 40L11 40L11 41L13 41L13 44L15 44L15 45L17 45L17 46L18 46L18 48L19 48L19 47L20 47L20 46L19 46L19 45L18 45L18 44L15 44L15 42L14 42L14 41L13 41L13 38L14 38L14 39L15 39L15 41L16 41L16 42L17 42L17 43L18 43L18 41L16 41L16 39L15 39L15 38L16 38L16 37L15 37L15 36L14 36L14 35ZM3 36L3 37L4 37L4 36ZM31 36L31 37L30 37L30 38L29 38L29 39L30 39L30 38L33 38L33 40L34 40L34 41L35 41L35 39L34 39L34 38L33 38L33 37L32 37L32 36ZM37 36L37 37L36 37L36 39L37 39L37 37L38 37L38 36ZM55 36L55 37L56 37L56 36ZM0 37L0 40L1 40L1 37ZM5 37L5 38L3 38L3 40L5 40L5 38L7 38L7 37ZM52 37L52 38L53 38L53 37ZM65 37L65 38L66 38L66 37ZM22 38L22 39L23 39L23 38ZM27 38L27 39L26 39L26 40L27 40L27 39L28 39L28 38ZM38 38L38 40L39 40L39 38ZM47 38L47 39L48 39L48 38ZM6 39L6 40L7 40L7 39ZM51 39L51 41L52 41L52 39ZM24 40L24 41L25 41L25 40ZM58 40L58 41L59 41L59 40ZM41 41L41 42L42 42L42 41ZM9 42L9 43L8 43L8 44L9 44L9 46L8 46L8 48L9 48L9 49L8 49L8 50L5 50L5 52L6 52L6 53L5 53L5 55L7 55L7 56L5 56L5 57L7 57L7 56L9 56L9 54L8 54L8 50L13 50L13 49L10 49L10 48L13 48L13 47L11 47L11 46L12 46L12 44L9 44L9 43L12 43L12 42ZM27 42L27 44L24 44L24 45L25 45L25 46L24 46L24 48L25 48L25 46L26 46L26 45L27 45L27 44L29 44L29 43L28 43L28 42ZM57 42L57 43L58 43L58 44L59 44L59 45L61 45L61 46L60 46L60 47L61 47L61 46L62 46L62 45L61 45L61 44L60 44L60 42ZM40 45L40 46L41 46L41 45ZM67 45L67 46L66 46L66 48L65 48L65 49L67 49L67 48L68 48L68 47L67 47L67 46L68 46L68 45ZM9 46L9 47L10 47L10 46ZM36 47L36 48L37 48L37 47ZM6 48L6 49L7 49L7 48ZM27 49L27 50L29 50L29 49ZM45 49L45 50L44 50L44 51L45 51L45 50L46 50L46 49ZM2 50L2 51L3 51L3 50ZM6 51L6 52L7 52L7 51ZM10 51L10 53L11 53L11 51ZM21 51L21 52L22 52L22 51ZM49 51L49 53L48 53L48 55L47 55L47 58L49 58L49 60L48 60L48 59L45 59L45 63L46 63L46 64L47 64L47 63L49 63L49 65L52 65L52 64L50 64L50 62L51 62L51 63L52 63L52 62L51 62L51 61L49 61L49 60L50 60L50 58L49 58L49 57L50 57L50 56L51 56L51 58L53 58L53 59L52 59L52 60L53 60L53 59L54 59L54 61L56 61L56 62L54 62L54 63L53 63L53 64L54 64L54 63L56 63L56 64L55 64L55 65L57 65L57 64L59 64L59 63L58 63L58 62L57 62L57 61L56 61L56 60L55 60L55 59L57 59L57 60L59 60L59 59L57 59L57 57L53 57L53 56L51 56L51 54L50 54L50 53L52 53L52 52L50 52L50 51ZM60 51L60 52L61 52L61 53L62 53L62 55L63 55L63 56L64 56L64 55L65 55L65 54L63 54L63 53L62 53L62 52L61 52L61 51ZM27 52L27 53L28 53L28 52ZM2 53L2 54L3 54L3 53ZM6 53L6 54L7 54L7 55L8 55L8 54L7 54L7 53ZM33 54L33 55L35 55L35 54ZM52 54L52 55L53 55L53 54ZM23 55L23 56L24 56L24 55ZM44 55L44 56L45 56L45 57L44 57L44 58L45 58L45 57L46 57L46 56L45 56L45 55ZM48 55L48 57L49 57L49 55ZM58 55L58 56L59 56L59 55ZM41 56L41 57L42 57L42 56ZM0 57L0 61L1 61L1 57ZM27 58L27 59L28 59L28 58ZM18 59L18 60L19 60L19 61L20 61L20 60L19 60L19 59ZM62 59L62 60L63 60L63 59ZM3 60L3 61L5 61L5 60ZM6 60L6 61L7 61L7 60ZM25 60L25 61L26 61L26 60ZM46 60L46 62L47 62L47 60ZM11 61L11 62L12 62L12 61ZM13 61L13 62L14 62L14 61ZM33 61L33 64L36 64L36 61ZM61 61L61 64L64 64L64 61ZM68 61L68 62L69 62L69 61ZM34 62L34 63L35 63L35 62ZM56 62L56 63L57 63L57 62ZM62 62L62 63L63 63L63 62ZM18 64L18 66L19 66L19 64ZM22 64L22 65L23 65L23 64ZM41 65L41 66L42 66L42 65ZM66 65L66 66L67 66L67 65ZM33 66L33 67L34 67L34 66ZM39 66L39 67L40 67L40 68L37 68L37 69L41 69L41 67L40 67L40 66ZM9 67L9 68L10 68L10 67ZM68 67L68 68L69 68L69 67ZM24 68L24 69L25 69L25 68ZM0 0L0 7L7 7L7 0ZM1 1L1 6L6 6L6 1ZM2 2L2 5L5 5L5 2ZM62 0L62 7L69 7L69 0ZM63 1L63 6L68 6L68 1ZM64 2L64 5L67 5L67 2ZM0 62L0 69L7 69L7 62ZM1 63L1 68L6 68L6 63ZM2 64L2 67L5 67L5 64Z" fill="#000000"/></g></g></svg>
