<?xml version="1.0" encoding="UTF-8"?>
<svg xmlns="http://www.w3.org/2000/svg" version="1.1" width="300" height="300" viewBox="0 0 300 300"><rect x="0" y="0" width="300" height="300" fill="#ffffff"/><g transform="scale(4.348)"><g transform="translate(0,0)"><path fill-rule="evenodd" d="M9 0L9 1L8 1L8 2L10 2L10 3L11 3L11 4L12 4L12 5L11 5L11 6L10 6L10 5L8 5L8 7L9 7L9 8L6 8L6 9L5 9L5 8L0 8L0 9L1 9L1 10L0 10L0 12L1 12L1 13L0 13L0 14L2 14L2 15L1 15L1 16L0 16L0 17L1 17L1 16L2 16L2 17L4 17L4 18L3 18L3 20L2 20L2 19L1 19L1 18L0 18L0 19L1 19L1 20L0 20L0 23L2 23L2 24L3 24L3 25L1 25L1 24L0 24L0 27L1 27L1 26L2 26L2 29L1 29L1 30L2 30L2 32L3 32L3 33L0 33L0 35L1 35L1 36L0 36L0 38L1 38L1 36L2 36L2 35L1 35L1 34L3 34L3 37L2 37L2 38L3 38L3 37L4 37L4 40L5 40L5 38L6 38L6 39L7 39L7 40L6 40L6 41L7 41L7 42L6 42L6 43L7 43L7 44L6 44L6 45L7 45L7 46L6 46L6 47L7 47L7 48L5 48L5 49L4 49L4 50L5 50L5 49L7 49L7 50L6 50L6 51L4 51L4 52L3 52L3 50L2 50L2 47L1 47L1 48L0 48L0 50L1 50L1 52L0 52L0 55L2 55L2 59L3 59L3 58L4 58L4 59L7 59L7 58L8 58L8 63L10 63L10 64L8 64L8 69L10 69L10 68L14 68L14 69L16 69L16 67L15 67L15 66L14 66L14 67L10 67L10 66L9 66L9 65L10 65L10 64L11 64L11 63L10 63L10 62L13 62L13 61L14 61L14 63L13 63L13 64L12 64L12 65L13 65L13 64L14 64L14 63L15 63L15 61L16 61L16 60L18 60L18 61L17 61L17 62L18 62L18 63L17 63L17 64L18 64L18 65L17 65L17 66L18 66L18 67L17 67L17 69L22 69L22 68L19 68L19 67L20 67L20 66L19 66L19 65L20 65L20 63L19 63L19 62L20 62L20 61L19 61L19 60L20 60L20 59L19 59L19 58L18 58L18 59L17 59L17 57L21 57L21 60L23 60L23 63L24 63L24 64L25 64L25 65L23 65L23 66L22 66L22 67L24 67L24 68L25 68L25 69L26 69L26 68L27 68L27 69L28 69L28 68L29 68L29 69L32 69L32 67L33 67L33 69L35 69L35 68L36 68L36 69L38 69L38 68L37 68L37 67L39 67L39 68L41 68L41 66L44 66L44 68L43 68L43 69L44 69L44 68L47 68L47 69L49 69L49 67L48 67L48 68L47 68L47 66L46 66L46 64L45 64L45 63L44 63L44 64L41 64L41 63L39 63L39 64L41 64L41 66L40 66L40 67L39 67L39 66L36 66L36 65L38 65L38 64L37 64L37 63L38 63L38 61L39 61L39 62L40 62L40 59L41 59L41 58L42 58L42 60L41 60L41 62L42 62L42 63L43 63L43 62L44 62L44 59L43 59L43 57L44 57L44 56L46 56L46 57L49 57L49 58L48 58L48 59L50 59L50 57L51 57L51 58L53 58L53 59L52 59L52 60L46 60L46 58L45 58L45 60L46 60L46 61L45 61L45 62L46 62L46 63L47 63L47 65L48 65L48 66L50 66L50 67L51 67L51 68L50 68L50 69L51 69L51 68L52 68L52 67L55 67L55 68L53 68L53 69L55 69L55 68L57 68L57 69L59 69L59 68L58 68L58 66L57 66L57 67L55 67L55 66L56 66L56 63L54 63L54 64L53 64L53 66L50 66L50 65L51 65L51 64L50 64L50 65L49 65L49 63L47 63L47 62L50 62L50 61L52 61L52 62L55 62L55 61L56 61L56 60L55 60L55 59L57 59L57 60L58 60L58 61L57 61L57 62L58 62L58 64L57 64L57 65L60 65L60 66L59 66L59 67L60 67L60 69L64 69L64 68L61 68L61 67L62 67L62 66L61 66L61 65L63 65L63 66L65 66L65 69L68 69L68 68L67 68L67 66L66 66L66 65L65 65L65 64L67 64L67 65L68 65L68 64L69 64L69 63L68 63L68 62L69 62L69 60L68 60L68 62L67 62L67 61L65 61L65 60L67 60L67 59L68 59L68 57L69 57L69 55L68 55L68 54L69 54L69 53L68 53L68 54L67 54L67 53L65 53L65 55L62 55L62 54L63 54L63 53L64 53L64 51L65 51L65 52L68 52L68 50L69 50L69 47L68 47L68 46L69 46L69 45L68 45L68 44L69 44L69 43L68 43L68 42L67 42L67 41L69 41L69 40L67 40L67 39L68 39L68 38L67 38L67 37L68 37L68 36L69 36L69 35L68 35L68 34L69 34L69 32L68 32L68 34L66 34L66 35L65 35L65 33L66 33L66 32L67 32L67 31L68 31L68 30L69 30L69 28L68 28L68 29L67 29L67 31L64 31L64 32L63 32L63 30L62 30L62 29L63 29L63 28L65 28L65 29L66 29L66 28L67 28L67 27L68 27L68 26L67 26L67 25L69 25L69 24L68 24L68 22L66 22L66 21L68 21L68 18L69 18L69 17L68 17L68 16L67 16L67 15L68 15L68 13L67 13L67 14L65 14L65 16L66 16L66 18L67 18L67 19L65 19L65 20L66 20L66 21L65 21L65 22L66 22L66 23L64 23L64 24L62 24L62 19L63 19L63 18L65 18L65 17L63 17L63 18L62 18L62 16L64 16L64 15L63 15L63 14L64 14L64 13L63 13L63 12L64 12L64 8L63 8L63 11L62 11L62 8L61 8L61 9L60 9L60 7L61 7L61 6L60 6L60 7L59 7L59 4L58 4L58 5L57 5L57 4L56 4L56 5L57 5L57 6L56 6L56 7L55 7L55 3L59 3L59 2L58 2L58 1L61 1L61 0L58 0L58 1L57 1L57 0L53 0L53 1L52 1L52 0L51 0L51 1L50 1L50 0L49 0L49 1L48 1L48 0L47 0L47 1L46 1L46 0L44 0L44 1L46 1L46 2L48 2L48 3L47 3L47 4L49 4L49 5L50 5L50 7L49 7L49 6L48 6L48 7L47 7L47 6L46 6L46 5L44 5L44 3L45 3L45 4L46 4L46 3L45 3L45 2L44 2L44 3L43 3L43 0L41 0L41 1L38 1L38 0L37 0L37 1L35 1L35 2L41 2L41 4L39 4L39 6L38 6L38 5L37 5L37 4L38 4L38 3L36 3L36 4L35 4L35 3L33 3L33 4L32 4L32 3L31 3L31 1L32 1L32 2L34 2L34 0L33 0L33 1L32 1L32 0L28 0L28 1L27 1L27 2L24 2L24 1L25 1L25 0L23 0L23 1L21 1L21 2L24 2L24 3L27 3L27 4L22 4L22 3L20 3L20 4L19 4L19 2L20 2L20 1L19 1L19 0L17 0L17 1L19 1L19 2L18 2L18 3L17 3L17 2L16 2L16 0L15 0L15 3L17 3L17 4L15 4L15 6L14 6L14 5L13 5L13 4L12 4L12 3L14 3L14 1L12 1L12 3L11 3L11 2L10 2L10 0ZM41 1L41 2L42 2L42 1ZM49 1L49 2L50 2L50 5L51 5L51 4L52 4L52 6L51 6L51 7L50 7L50 9L49 9L49 10L47 10L47 7L46 7L46 6L45 6L45 7L44 7L44 5L43 5L43 7L42 7L42 5L40 5L40 6L39 6L39 7L38 7L38 6L37 6L37 9L38 9L38 12L37 12L37 10L36 10L36 9L35 9L35 10L34 10L34 11L33 11L33 9L32 9L32 8L31 8L31 7L32 7L32 5L30 5L30 4L29 4L29 3L30 3L30 2L29 2L29 3L28 3L28 2L27 2L27 3L28 3L28 4L27 4L27 5L30 5L30 6L29 6L29 7L28 7L28 6L27 6L27 7L26 7L26 5L22 5L22 4L20 4L20 5L19 5L19 4L17 4L17 5L16 5L16 6L15 6L15 7L14 7L14 6L13 6L13 8L14 8L14 10L13 10L13 9L12 9L12 8L10 8L10 9L11 9L11 10L13 10L13 12L14 12L14 11L15 11L15 12L16 12L16 14L15 14L15 13L13 13L13 14L12 14L12 15L11 15L11 14L10 14L10 13L12 13L12 11L9 11L9 12L7 12L7 11L6 11L6 12L4 12L4 13L3 13L3 10L4 10L4 11L5 11L5 10L4 10L4 9L2 9L2 10L1 10L1 12L2 12L2 14L4 14L4 13L6 13L6 14L7 14L7 13L8 13L8 14L9 14L9 15L6 15L6 16L9 16L9 15L10 15L10 17L9 17L9 19L6 19L6 18L8 18L8 17L5 17L5 16L4 16L4 17L5 17L5 18L4 18L4 19L5 19L5 20L4 20L4 21L2 21L2 20L1 20L1 21L2 21L2 22L3 22L3 24L4 24L4 21L5 21L5 24L7 24L7 23L6 23L6 22L7 22L7 21L8 21L8 20L9 20L9 22L11 22L11 21L13 21L13 22L12 22L12 23L8 23L8 24L9 24L9 26L10 26L10 28L9 28L9 29L5 29L5 28L4 28L4 30L3 30L3 29L2 29L2 30L3 30L3 32L5 32L5 31L6 31L6 32L9 32L9 35L10 35L10 31L9 31L9 29L10 29L10 30L11 30L11 32L12 32L12 30L13 30L13 26L14 26L14 27L15 27L15 28L14 28L14 30L16 30L16 31L14 31L14 32L13 32L13 35L12 35L12 34L11 34L11 38L13 38L13 39L12 39L12 41L13 41L13 42L11 42L11 43L10 43L10 42L9 42L9 43L8 43L8 42L7 42L7 43L8 43L8 46L7 46L7 47L8 47L8 52L10 52L10 53L9 53L9 54L10 54L10 53L12 53L12 54L11 54L11 55L8 55L8 57L9 57L9 58L10 58L10 59L11 59L11 60L12 60L12 61L13 61L13 59L15 59L15 60L16 60L16 59L15 59L15 58L16 58L16 57L17 57L17 56L18 56L18 55L19 55L19 56L21 56L21 57L22 57L22 59L23 59L23 60L24 60L24 61L25 61L25 60L26 60L26 62L28 62L28 63L27 63L27 64L28 64L28 65L25 65L25 66L24 66L24 67L25 67L25 68L26 68L26 67L27 67L27 68L28 68L28 67L27 67L27 66L28 66L28 65L29 65L29 66L32 66L32 65L29 65L29 64L30 64L30 63L32 63L32 59L33 59L33 60L35 60L35 59L36 59L36 58L37 58L37 57L38 57L38 59L39 59L39 57L41 57L41 56L39 56L39 57L38 57L38 56L37 56L37 57L35 57L35 56L33 56L33 54L35 54L35 50L34 50L34 49L36 49L36 50L37 50L37 47L38 47L38 48L39 48L39 49L38 49L38 51L39 51L39 52L40 52L40 53L39 53L39 54L37 54L37 55L39 55L39 54L40 54L40 55L42 55L42 54L40 54L40 53L43 53L43 56L42 56L42 57L43 57L43 56L44 56L44 53L45 53L45 54L46 54L46 56L47 56L47 53L45 53L45 52L46 52L46 51L47 51L47 52L50 52L50 55L49 55L49 57L50 57L50 55L52 55L52 54L51 54L51 53L55 53L55 51L53 51L53 52L52 52L52 51L48 51L48 50L49 50L49 49L50 49L50 50L51 50L51 49L53 49L53 48L55 48L55 47L53 47L53 45L55 45L55 44L56 44L56 46L59 46L59 47L56 47L56 49L55 49L55 50L56 50L56 51L57 51L57 52L56 52L56 54L53 54L53 56L51 56L51 57L53 57L53 56L55 56L55 55L56 55L56 58L57 58L57 59L58 59L58 60L59 60L59 61L58 61L58 62L59 62L59 61L60 61L60 60L61 60L61 58L62 58L62 60L64 60L64 59L65 59L65 56L66 56L66 58L67 58L67 57L68 57L68 55L67 55L67 56L66 56L66 55L65 55L65 56L63 56L63 57L62 57L62 55L61 55L61 54L62 54L62 53L61 53L61 54L59 54L59 53L60 53L60 52L61 52L61 51L64 51L64 50L65 50L65 51L67 51L67 50L65 50L65 49L68 49L68 47L67 47L67 48L64 48L64 47L63 47L63 46L65 46L65 47L66 47L66 44L65 44L65 43L67 43L67 42L66 42L66 40L65 40L65 41L64 41L64 40L63 40L63 39L66 39L66 38L65 38L65 37L66 37L66 36L65 36L65 37L64 37L64 38L62 38L62 37L60 37L60 34L59 34L59 33L57 33L57 32L56 32L56 34L55 34L55 35L56 35L56 38L55 38L55 39L54 39L54 38L53 38L53 39L52 39L52 40L51 40L51 39L50 39L50 43L48 43L48 44L50 44L50 45L49 45L49 46L47 46L47 43L46 43L46 42L47 42L47 40L49 40L49 39L48 39L48 38L51 38L51 37L53 37L53 35L54 35L54 34L52 34L52 33L55 33L55 32L52 32L52 31L51 31L51 28L52 28L52 29L54 29L54 28L52 28L52 27L56 27L56 29L55 29L55 30L53 30L53 31L56 31L56 29L57 29L57 30L59 30L59 31L60 31L60 30L59 30L59 29L62 29L62 27L61 27L61 26L59 26L59 25L60 25L60 24L59 24L59 23L60 23L60 22L59 22L59 21L61 21L61 20L60 20L60 19L59 19L59 17L61 17L61 16L62 16L62 14L63 14L63 13L62 13L62 11L61 11L61 12L60 12L60 11L59 11L59 13L57 13L57 12L55 12L55 13L56 13L56 14L55 14L55 15L54 15L54 14L52 14L52 15L53 15L53 16L51 16L51 12L52 12L52 13L53 13L53 12L52 12L52 11L51 11L51 12L50 12L50 15L49 15L49 14L47 14L47 13L45 13L45 12L49 12L49 10L51 10L51 9L54 9L54 5L53 5L53 2L55 2L55 1L53 1L53 2L52 2L52 3L51 3L51 2L50 2L50 1ZM56 1L56 2L57 2L57 1ZM8 3L8 4L9 4L9 3ZM60 3L60 5L61 5L61 3ZM18 5L18 7L17 7L17 6L16 6L16 7L15 7L15 8L16 8L16 7L17 7L17 9L19 9L19 11L18 11L18 10L17 10L17 13L18 13L18 14L17 14L17 15L16 15L16 16L15 16L15 17L16 17L16 18L15 18L15 22L14 22L14 24L13 24L13 23L12 23L12 24L11 24L11 25L10 25L10 26L11 26L11 27L12 27L12 26L13 26L13 25L14 25L14 24L15 24L15 25L16 25L16 26L15 26L15 27L16 27L16 28L17 28L17 29L19 29L19 30L18 30L18 31L17 31L17 32L18 32L18 33L17 33L17 34L15 34L15 33L16 33L16 32L14 32L14 34L15 34L15 35L16 35L16 36L17 36L17 38L16 38L16 39L19 39L19 40L17 40L17 42L19 42L19 41L22 41L22 40L21 40L21 39L22 39L22 38L23 38L23 39L26 39L26 40L24 40L24 41L23 41L23 42L24 42L24 41L26 41L26 40L27 40L27 39L28 39L28 38L27 38L27 37L26 37L26 36L25 36L25 37L24 37L24 35L25 35L25 33L28 33L28 34L26 34L26 35L28 35L28 36L29 36L29 37L30 37L30 38L29 38L29 39L30 39L30 38L31 38L31 36L32 36L32 41L30 41L30 40L29 40L29 41L30 41L30 42L28 42L28 43L27 43L27 42L25 42L25 44L24 44L24 43L23 43L23 44L24 44L24 45L23 45L23 47L25 47L25 48L26 48L26 47L25 47L25 45L26 45L26 43L27 43L27 45L30 45L30 46L31 46L31 44L32 44L32 45L33 45L33 43L34 43L34 44L35 44L35 45L37 45L37 46L36 46L36 47L35 47L35 46L34 46L34 47L33 47L33 46L32 46L32 47L33 47L33 49L31 49L31 47L30 47L30 48L29 48L29 46L28 46L28 47L27 47L27 48L29 48L29 49L31 49L31 50L33 50L33 51L34 51L34 50L33 50L33 49L34 49L34 48L36 48L36 47L37 47L37 46L38 46L38 45L37 45L37 43L36 43L36 42L38 42L38 41L37 41L37 39L38 39L38 40L41 40L41 41L40 41L40 43L39 43L39 44L40 44L40 45L39 45L39 46L40 46L40 47L39 47L39 48L40 48L40 47L41 47L41 48L42 48L42 49L41 49L41 50L39 50L39 51L40 51L40 52L41 52L41 50L42 50L42 52L43 52L43 53L44 53L44 52L45 52L45 49L46 49L46 47L47 47L47 49L49 49L49 48L51 48L51 46L52 46L52 45L51 45L51 46L49 46L49 47L47 47L47 46L46 46L46 47L45 47L45 49L44 49L44 47L43 47L43 48L42 48L42 46L43 46L43 45L44 45L44 46L45 46L45 45L44 45L44 44L43 44L43 42L44 42L44 43L45 43L45 42L44 42L44 40L41 40L41 39L45 39L45 40L47 40L47 38L45 38L45 37L49 37L49 35L47 35L47 36L45 36L45 33L44 33L44 32L46 32L46 33L49 33L49 34L50 34L50 35L51 35L51 36L50 36L50 37L51 37L51 36L52 36L52 35L51 35L51 34L50 34L50 33L52 33L52 32L50 32L50 31L49 31L49 30L50 30L50 29L49 29L49 28L50 28L50 27L51 27L51 26L52 26L52 25L51 25L51 26L48 26L48 25L50 25L50 23L53 23L53 22L54 22L54 23L55 23L55 22L56 22L56 21L53 21L53 22L50 22L50 21L52 21L52 20L54 20L54 19L55 19L55 20L57 20L57 21L58 21L58 20L59 20L59 19L57 19L57 18L56 18L56 15L57 15L57 14L56 14L56 15L55 15L55 17L54 17L54 16L53 16L53 18L51 18L51 19L50 19L50 21L49 21L49 18L50 18L50 16L49 16L49 15L48 15L48 16L47 16L47 15L46 15L46 14L45 14L45 13L44 13L44 14L45 14L45 15L44 15L44 16L42 16L42 17L41 17L41 18L39 18L39 19L37 19L37 18L38 18L38 16L40 16L40 15L42 15L42 14L43 14L43 13L42 13L42 14L41 14L41 12L42 12L42 10L45 10L45 9L46 9L46 7L45 7L45 9L44 9L44 8L43 8L43 9L40 9L40 8L41 8L41 6L40 6L40 8L39 8L39 12L38 12L38 13L39 13L39 14L35 14L35 15L38 15L38 16L37 16L37 18L36 18L36 17L33 17L33 16L34 16L34 15L33 15L33 16L32 16L32 14L30 14L30 13L32 13L32 12L31 12L31 11L32 11L32 9L30 9L30 8L29 8L29 9L30 9L30 10L31 10L31 11L29 11L29 10L26 10L26 8L25 8L25 6L24 6L24 9L23 9L23 10L20 10L20 9L22 9L22 8L20 8L20 9L19 9L19 5ZM20 5L20 7L21 7L21 6L22 6L22 7L23 7L23 6L22 6L22 5ZM33 5L33 8L36 8L36 5ZM9 6L9 7L10 7L10 6ZM11 6L11 7L12 7L12 6ZM30 6L30 7L31 7L31 6ZM34 6L34 7L35 7L35 6ZM52 6L52 7L51 7L51 8L52 8L52 7L53 7L53 6ZM57 6L57 7L58 7L58 8L59 8L59 7L58 7L58 6ZM27 7L27 8L28 8L28 7ZM55 8L55 9L56 9L56 11L58 11L58 10L60 10L60 9L58 9L58 10L57 10L57 8ZM65 8L65 10L66 10L66 11L65 11L65 12L67 12L67 11L68 11L68 12L69 12L69 11L68 11L68 10L69 10L69 9L68 9L68 8L67 8L67 9L66 9L66 8ZM6 9L6 10L7 10L7 9ZM8 9L8 10L9 10L9 9ZM15 9L15 11L16 11L16 9ZM24 9L24 10L23 10L23 11L20 11L20 14L21 14L21 15L23 15L23 14L22 14L22 13L23 13L23 11L24 11L24 12L25 12L25 9ZM67 9L67 10L68 10L68 9ZM35 10L35 11L36 11L36 10ZM40 10L40 12L39 12L39 13L40 13L40 12L41 12L41 10ZM26 11L26 13L27 13L27 14L25 14L25 15L24 15L24 17L23 17L23 16L19 16L19 14L18 14L18 15L17 15L17 16L16 16L16 17L17 17L17 18L18 18L18 19L16 19L16 20L18 20L18 19L20 19L20 18L18 18L18 17L21 17L21 19L22 19L22 20L20 20L20 22L18 22L18 23L17 23L17 24L16 24L16 22L15 22L15 24L16 24L16 25L17 25L17 26L18 26L18 27L19 27L19 29L20 29L20 33L19 33L19 34L20 34L20 35L19 35L19 36L21 36L21 37L20 37L20 38L19 38L19 39L20 39L20 38L21 38L21 37L23 37L23 38L24 38L24 37L23 37L23 35L22 35L22 33L24 33L24 32L26 32L26 31L24 31L24 32L23 32L23 30L22 30L22 29L25 29L25 30L27 30L27 32L28 32L28 33L29 33L29 34L30 34L30 33L29 33L29 32L31 32L31 35L32 35L32 32L34 32L34 31L33 31L33 30L34 30L34 29L35 29L35 30L37 30L37 29L36 29L36 28L35 28L35 27L36 27L36 26L34 26L34 24L35 24L35 21L38 21L38 20L37 20L37 19L34 19L34 18L32 18L32 20L31 20L31 21L30 21L30 20L29 20L29 19L30 19L30 18L29 18L29 16L27 16L27 15L30 15L30 14L29 14L29 13L30 13L30 12L29 12L29 11ZM43 11L43 12L45 12L45 11ZM6 12L6 13L7 13L7 12ZM21 12L21 13L22 13L22 12ZM33 12L33 14L34 14L34 13L36 13L36 12ZM59 13L59 14L60 14L60 15L59 15L59 16L61 16L61 14L62 14L62 13ZM13 14L13 15L12 15L12 16L11 16L11 17L10 17L10 18L11 18L11 19L9 19L9 20L10 20L10 21L11 21L11 20L12 20L12 19L13 19L13 20L14 20L14 19L13 19L13 17L12 17L12 16L14 16L14 14ZM39 14L39 15L40 15L40 14ZM25 15L25 16L26 16L26 15ZM17 16L17 17L18 17L18 16ZM31 16L31 17L32 17L32 16ZM44 16L44 17L43 17L43 19L41 19L41 20L40 20L40 19L39 19L39 20L40 20L40 22L42 22L42 23L43 23L43 24L44 24L44 25L43 25L43 26L46 26L46 27L43 27L43 28L44 28L44 29L43 29L43 30L42 30L42 27L37 27L37 28L40 28L40 29L38 29L38 30L40 30L40 31L43 31L43 32L39 32L39 33L38 33L38 35L37 35L37 36L38 36L38 37L34 37L34 38L33 38L33 39L34 39L34 40L33 40L33 41L36 41L36 40L35 40L35 39L36 39L36 38L38 38L38 39L39 39L39 38L40 38L40 39L41 39L41 36L42 36L42 37L43 37L43 36L44 36L44 37L45 37L45 36L44 36L44 33L43 33L43 32L44 32L44 30L45 30L45 31L46 31L46 32L47 32L47 28L49 28L49 27L48 27L48 26L47 26L47 25L48 25L48 24L49 24L49 23L50 23L50 22L49 22L49 21L48 21L48 22L49 22L49 23L48 23L48 24L47 24L47 21L46 21L46 20L47 20L47 19L48 19L48 18L49 18L49 17L47 17L47 16ZM57 16L57 17L58 17L58 16ZM24 17L24 18L23 18L23 19L25 19L25 18L26 18L26 17ZM27 17L27 18L28 18L28 17ZM45 17L45 18L44 18L44 19L45 19L45 18L46 18L46 19L47 19L47 18L46 18L46 17ZM55 18L55 19L56 19L56 18ZM61 18L61 19L62 19L62 18ZM26 19L26 20L23 20L23 22L22 22L22 21L21 21L21 22L20 22L20 24L17 24L17 25L18 25L18 26L19 26L19 27L20 27L20 28L21 28L21 29L22 29L22 28L21 28L21 27L24 27L24 28L25 28L25 29L26 29L26 27L27 27L27 26L26 26L26 24L27 24L27 25L28 25L28 24L30 24L30 25L29 25L29 26L30 26L30 27L29 27L29 28L28 28L28 29L30 29L30 31L31 31L31 32L32 32L32 31L31 31L31 30L33 30L33 29L34 29L34 28L33 28L33 27L34 27L34 26L33 26L33 25L32 25L32 26L33 26L33 27L31 27L31 24L32 24L32 23L33 23L33 24L34 24L34 23L33 23L33 22L34 22L34 21L35 21L35 20L33 20L33 21L32 21L32 22L30 22L30 21L29 21L29 20L28 20L28 19ZM51 19L51 20L52 20L52 19ZM5 20L5 21L7 21L7 20ZM26 20L26 21L28 21L28 22L25 22L25 23L30 23L30 22L29 22L29 21L28 21L28 20ZM41 20L41 21L42 21L42 22L44 22L44 23L45 23L45 24L46 24L46 25L47 25L47 24L46 24L46 22L44 22L44 20L43 20L43 21L42 21L42 20ZM21 22L21 23L22 23L22 22ZM23 22L23 23L24 23L24 22ZM37 22L37 23L36 23L36 24L38 24L38 26L41 26L41 25L42 25L42 24L41 24L41 23L39 23L39 22ZM57 22L57 24L58 24L58 25L59 25L59 24L58 24L58 23L59 23L59 22ZM21 24L21 25L20 25L20 27L21 27L21 25L22 25L22 26L24 26L24 25L22 25L22 24ZM53 24L53 26L55 26L55 25L56 25L56 27L57 27L57 29L59 29L59 28L61 28L61 27L58 27L58 26L57 26L57 25L56 25L56 24ZM61 24L61 25L62 25L62 26L64 26L64 27L65 27L65 28L66 28L66 27L67 27L67 26L66 26L66 27L65 27L65 24L64 24L64 25L62 25L62 24ZM4 25L4 26L3 26L3 27L4 27L4 26L7 26L7 27L6 27L6 28L8 28L8 26L7 26L7 25ZM25 26L25 27L26 27L26 26ZM46 27L46 28L47 28L47 27ZM31 28L31 29L32 29L32 28ZM48 29L48 30L49 30L49 29ZM4 30L4 31L5 31L5 30ZM6 30L6 31L7 31L7 30ZM28 30L28 32L29 32L29 30ZM61 30L61 31L62 31L62 30ZM0 31L0 32L1 32L1 31ZM21 32L21 33L22 33L22 32ZM3 33L3 34L4 34L4 33ZM5 33L5 36L8 36L8 33ZM33 33L33 36L36 36L36 33ZM40 33L40 35L39 35L39 36L41 36L41 34L43 34L43 33ZM61 33L61 36L64 36L64 33ZM6 34L6 35L7 35L7 34ZM34 34L34 35L35 35L35 34ZM56 34L56 35L57 35L57 37L59 37L59 38L60 38L60 39L58 39L58 38L56 38L56 40L55 40L55 41L54 41L54 40L53 40L53 41L54 41L54 42L53 42L53 43L54 43L54 44L55 44L55 43L56 43L56 44L57 44L57 45L59 45L59 46L60 46L60 47L62 47L62 48L61 48L61 50L59 50L59 51L58 51L58 50L57 50L57 51L58 51L58 52L59 52L59 51L61 51L61 50L63 50L63 49L64 49L64 48L63 48L63 47L62 47L62 45L63 45L63 44L64 44L64 43L63 43L63 44L62 44L62 40L61 40L61 44L62 44L62 45L61 45L61 46L60 46L60 45L59 45L59 42L60 42L60 41L59 41L59 40L60 40L60 39L62 39L62 38L60 38L60 37L59 37L59 35L57 35L57 34ZM62 34L62 35L63 35L63 34ZM29 35L29 36L30 36L30 35ZM42 35L42 36L43 36L43 35ZM67 35L67 36L68 36L68 35ZM14 36L14 37L15 37L15 36ZM54 36L54 37L55 37L55 36ZM6 37L6 38L7 38L7 39L8 39L8 41L9 41L9 40L11 40L11 39L8 39L8 38L7 38L7 37ZM9 37L9 38L10 38L10 37ZM25 37L25 38L26 38L26 39L27 39L27 38L26 38L26 37ZM14 38L14 39L13 39L13 41L15 41L15 42L13 42L13 43L11 43L11 44L13 44L13 43L15 43L15 44L14 44L14 45L12 45L12 47L11 47L11 49L9 49L9 50L12 50L12 48L13 48L13 51L11 51L11 52L13 52L13 51L14 51L14 52L15 52L15 53L16 53L16 52L15 52L15 51L14 51L14 50L15 50L15 49L16 49L16 48L17 48L17 49L18 49L18 50L20 50L20 51L17 51L17 52L18 52L18 53L17 53L17 54L14 54L14 53L13 53L13 54L12 54L12 55L11 55L11 56L12 56L12 57L11 57L11 59L13 59L13 58L12 58L12 57L13 57L13 56L15 56L15 57L14 57L14 58L15 58L15 57L16 57L16 56L17 56L17 54L18 54L18 53L19 53L19 55L20 55L20 53L19 53L19 52L23 52L23 51L24 51L24 53L23 53L23 54L22 54L22 53L21 53L21 54L22 54L22 55L21 55L21 56L22 56L22 57L24 57L24 58L23 58L23 59L24 59L24 60L25 60L25 59L26 59L26 58L27 58L27 57L29 57L29 58L28 58L28 60L27 60L27 61L29 61L29 63L30 63L30 62L31 62L31 60L30 60L30 59L31 59L31 57L32 57L32 58L33 58L33 59L34 59L34 58L33 58L33 56L31 56L31 53L32 53L32 54L33 54L33 53L34 53L34 52L32 52L32 51L31 51L31 52L30 52L30 50L29 50L29 52L28 52L28 51L27 51L27 50L28 50L28 49L27 49L27 50L26 50L26 49L23 49L23 50L21 50L21 49L18 49L18 48L17 48L17 47L18 47L18 46L16 46L16 48L13 48L13 47L14 47L14 46L15 46L15 44L16 44L16 43L15 43L15 42L16 42L16 41L15 41L15 40L14 40L14 39L15 39L15 38ZM34 38L34 39L35 39L35 38ZM57 39L57 40L56 40L56 41L55 41L55 42L54 42L54 43L55 43L55 42L56 42L56 43L57 43L57 42L59 42L59 41L57 41L57 40L58 40L58 39ZM0 40L0 42L3 42L3 41L1 41L1 40ZM4 41L4 42L5 42L5 41ZM48 41L48 42L49 42L49 41ZM51 41L51 42L52 42L52 41ZM56 41L56 42L57 42L57 41ZM63 41L63 42L64 42L64 41ZM21 42L21 44L17 44L17 45L21 45L21 44L22 44L22 42ZM31 42L31 43L28 43L28 44L31 44L31 43L32 43L32 42ZM34 42L34 43L35 43L35 42ZM0 43L0 45L1 45L1 46L3 46L3 48L4 48L4 44L5 44L5 43ZM40 43L40 44L41 44L41 43ZM50 43L50 44L51 44L51 43ZM1 44L1 45L3 45L3 44ZM9 45L9 46L8 46L8 47L9 47L9 48L10 48L10 46L11 46L11 45ZM41 45L41 46L42 46L42 45ZM67 45L67 46L68 46L68 45ZM20 46L20 47L19 47L19 48L21 48L21 46ZM57 48L57 49L58 49L58 48ZM62 48L62 49L63 49L63 48ZM43 49L43 50L44 50L44 49ZM25 50L25 51L26 51L26 50ZM6 51L6 52L7 52L7 51ZM43 51L43 52L44 52L44 51ZM2 52L2 53L1 53L1 54L2 54L2 55L3 55L3 57L4 57L4 58L7 58L7 57L5 57L5 56L7 56L7 55L6 55L6 54L8 54L8 53L6 53L6 54L5 54L5 53L3 53L3 52ZM26 52L26 54L27 54L27 56L26 56L26 55L25 55L25 54L23 54L23 55L24 55L24 56L25 56L25 57L27 57L27 56L28 56L28 55L30 55L30 54L29 54L29 53L28 53L28 52ZM37 52L37 53L38 53L38 52ZM2 53L2 54L3 54L3 53ZM27 53L27 54L28 54L28 53ZM57 53L57 54L58 54L58 56L57 56L57 57L59 57L59 58L60 58L60 57L61 57L61 56L60 56L60 57L59 57L59 54L58 54L58 53ZM12 55L12 56L13 56L13 55ZM15 55L15 56L16 56L16 55ZM9 56L9 57L10 57L10 56ZM29 56L29 57L30 57L30 56ZM0 58L0 61L1 61L1 58ZM54 58L54 59L55 59L55 58ZM18 59L18 60L19 60L19 59ZM3 60L3 61L5 61L5 60ZM6 60L6 61L7 61L7 60ZM9 60L9 61L10 61L10 60ZM37 60L37 61L38 61L38 60ZM42 60L42 61L43 61L43 60ZM52 60L52 61L54 61L54 60ZM18 61L18 62L19 62L19 61ZM33 61L33 64L36 64L36 61ZM46 61L46 62L47 62L47 61ZM61 61L61 64L64 64L64 61ZM34 62L34 63L35 63L35 62ZM62 62L62 63L63 63L63 62ZM65 62L65 63L66 63L66 62ZM21 63L21 64L22 64L22 63ZM25 63L25 64L26 64L26 63ZM59 63L59 64L60 64L60 63ZM67 63L67 64L68 64L68 63ZM44 64L44 66L45 66L45 67L46 67L46 66L45 66L45 64ZM33 65L33 67L34 67L34 68L35 68L35 67L34 67L34 66L35 66L35 65ZM25 66L25 67L26 67L26 66ZM14 67L14 68L15 68L15 67ZM29 67L29 68L30 68L30 67ZM0 0L0 7L7 7L7 0ZM1 1L1 6L6 6L6 1ZM2 2L2 5L5 5L5 2ZM62 0L62 7L69 7L69 0ZM63 1L63 6L68 6L68 1ZM64 2L64 5L67 5L67 2ZM0 62L0 69L7 69L7 62ZM1 63L1 68L6 68L6 63ZM2 64L2 67L5 67L5 64Z" fill="#000000"/></g></g></svg>
