<?xml version="1.0" encoding="UTF-8"?>
<svg xmlns="http://www.w3.org/2000/svg" version="1.1" width="300" height="300" viewBox="0 0 300 300"><rect x="0" y="0" width="300" height="300" fill="#ffffff"/><g transform="scale(4.348)"><g transform="translate(0,0)"><path fill-rule="evenodd" d="M9 0L9 1L8 1L8 2L9 2L9 3L8 3L8 4L9 4L9 5L8 5L8 7L9 7L9 5L11 5L11 6L10 6L10 7L11 7L11 8L6 8L6 9L5 9L5 8L0 8L0 10L1 10L1 11L2 11L2 13L1 13L1 12L0 12L0 14L1 14L1 15L0 15L0 16L1 16L1 17L0 17L0 18L1 18L1 19L0 19L0 20L1 20L1 21L0 21L0 23L2 23L2 24L1 24L1 25L0 25L0 28L1 28L1 29L2 29L2 28L1 28L1 27L3 27L3 25L4 25L4 26L5 26L5 27L7 27L7 26L9 26L9 27L10 27L10 26L11 26L11 27L12 27L12 26L13 26L13 25L16 25L16 26L14 26L14 27L13 27L13 29L12 29L12 28L11 28L11 29L10 29L10 28L6 28L6 29L9 29L9 32L8 32L8 31L7 31L7 30L6 30L6 31L4 31L4 32L3 32L3 31L1 31L1 30L0 30L0 31L1 31L1 32L0 32L0 33L1 33L1 35L0 35L0 39L1 39L1 41L0 41L0 43L1 43L1 42L2 42L2 40L3 40L3 43L4 43L4 45L3 45L3 44L1 44L1 45L2 45L2 46L3 46L3 47L4 47L4 48L3 48L3 49L2 49L2 47L1 47L1 50L0 50L0 52L3 52L3 53L0 53L0 54L4 54L4 55L3 55L3 56L6 56L6 57L3 57L3 58L2 58L2 55L0 55L0 56L1 56L1 58L0 58L0 61L1 61L1 58L2 58L2 59L3 59L3 58L4 58L4 59L7 59L7 60L6 60L6 61L7 61L7 60L8 60L8 63L9 63L9 64L8 64L8 69L10 69L10 67L9 67L9 66L11 66L11 67L12 67L12 69L16 69L16 68L13 68L13 67L14 67L14 66L11 66L11 65L10 65L10 64L12 64L12 63L11 63L11 62L12 62L12 61L13 61L13 62L15 62L15 65L16 65L16 63L17 63L17 64L18 64L18 65L17 65L17 66L15 66L15 67L17 67L17 69L19 69L19 67L20 67L20 66L19 66L19 65L20 65L20 63L22 63L22 64L23 64L23 67L21 67L21 68L20 68L20 69L21 69L21 68L23 68L23 69L24 69L24 67L25 67L25 68L27 68L27 67L28 67L28 68L29 68L29 69L32 69L32 67L33 67L33 69L35 69L35 68L36 68L36 69L38 69L38 68L37 68L37 67L39 67L39 68L41 68L41 66L44 66L44 68L43 68L43 67L42 67L42 68L43 68L43 69L44 69L44 68L47 68L47 69L49 69L49 67L50 67L50 65L51 65L51 63L49 63L49 64L48 64L48 63L47 63L47 62L50 62L50 61L52 61L52 60L53 60L53 61L54 61L54 62L53 62L53 67L54 67L54 69L56 69L56 68L57 68L57 67L56 67L56 66L55 66L55 65L56 65L56 64L57 64L57 63L56 63L56 64L54 64L54 62L55 62L55 61L56 61L56 59L55 59L55 57L56 57L56 56L57 56L57 57L59 57L59 58L57 58L57 60L59 60L59 58L60 58L60 57L62 57L62 56L63 56L63 57L64 57L64 56L66 56L66 57L67 57L67 59L65 59L65 58L64 58L64 59L65 59L65 60L62 60L62 58L61 58L61 60L60 60L60 62L58 62L58 61L57 61L57 62L58 62L58 63L59 63L59 65L60 65L60 66L58 66L58 65L57 65L57 66L58 66L58 67L59 67L59 68L58 68L58 69L62 69L62 67L63 67L63 68L65 68L65 69L68 69L68 68L67 68L67 67L63 67L63 66L62 66L62 67L61 67L61 65L64 65L64 66L65 66L65 64L68 64L68 62L67 62L67 59L68 59L68 60L69 60L69 59L68 59L68 57L67 57L67 56L68 56L68 54L69 54L69 53L66 53L66 52L68 52L68 50L69 50L69 49L68 49L68 48L69 48L69 47L68 47L68 45L69 45L69 44L68 44L68 41L69 41L69 40L68 40L68 38L67 38L67 37L68 37L68 36L69 36L69 35L68 35L68 34L69 34L69 33L68 33L68 32L69 32L69 31L68 31L68 28L69 28L69 27L68 27L68 26L67 26L67 25L69 25L69 23L68 23L68 22L69 22L69 21L68 21L68 18L69 18L69 16L68 16L68 14L65 14L65 13L63 13L63 14L62 14L62 12L67 12L67 13L69 13L69 11L68 11L68 12L67 12L67 11L61 11L61 13L60 13L60 12L59 12L59 13L60 13L60 14L59 14L59 19L58 19L58 20L57 20L57 21L59 21L59 23L58 23L58 22L56 22L56 19L57 19L57 18L56 18L56 15L58 15L58 14L57 14L57 13L56 13L56 12L57 12L57 11L59 11L59 10L62 10L62 8L61 8L61 6L60 6L60 7L59 7L59 4L57 4L57 6L56 6L56 5L55 5L55 4L56 4L56 3L59 3L59 2L58 2L58 1L61 1L61 0L53 0L53 2L56 2L56 3L55 3L55 4L54 4L54 3L53 3L53 5L52 5L52 4L51 4L51 5L49 5L49 4L50 4L50 3L51 3L51 1L50 1L50 0L49 0L49 1L50 1L50 3L47 3L47 4L48 4L48 5L47 5L47 6L46 6L46 5L44 5L44 3L45 3L45 4L46 4L46 3L45 3L45 2L46 2L46 1L45 1L45 0L44 0L44 1L45 1L45 2L44 2L44 3L43 3L43 0L39 0L39 1L38 1L38 0L37 0L37 1L35 1L35 2L37 2L37 1L38 1L38 2L41 2L41 1L42 1L42 3L41 3L41 6L40 6L40 5L39 5L39 6L38 6L38 5L37 5L37 4L38 4L38 3L36 3L36 4L32 4L32 3L33 3L33 1L34 1L34 0L33 0L33 1L32 1L32 0L31 0L31 1L30 1L30 0L28 0L28 1L27 1L27 2L26 2L26 3L27 3L27 4L24 4L24 2L25 2L25 0L23 0L23 1L21 1L21 2L23 2L23 4L22 4L22 5L21 5L21 6L20 6L20 5L19 5L19 6L18 6L18 5L17 5L17 4L21 4L21 3L18 3L18 2L20 2L20 1L19 1L19 0L17 0L17 1L16 1L16 0L15 0L15 1L13 1L13 0L11 0L11 1L12 1L12 2L10 2L10 0ZM47 1L47 2L48 2L48 1ZM56 1L56 2L57 2L57 1ZM12 2L12 3L9 3L9 4L11 4L11 5L12 5L12 6L11 6L11 7L12 7L12 8L11 8L11 10L8 10L8 11L6 11L6 12L5 12L5 9L3 9L3 10L2 10L2 11L3 11L3 10L4 10L4 12L3 12L3 13L2 13L2 14L3 14L3 15L2 15L2 16L3 16L3 19L2 19L2 20L5 20L5 18L4 18L4 17L5 17L5 16L7 16L7 17L6 17L6 18L7 18L7 19L6 19L6 20L7 20L7 21L6 21L6 22L5 22L5 21L4 21L4 22L3 22L3 24L7 24L7 25L5 25L5 26L7 26L7 25L8 25L8 24L9 24L9 23L10 23L10 25L9 25L9 26L10 26L10 25L13 25L13 24L12 24L12 23L14 23L14 24L15 24L15 22L16 22L16 23L17 23L17 22L18 22L18 21L17 21L17 22L16 22L16 21L14 21L14 20L16 20L16 19L17 19L17 20L18 20L18 19L17 19L17 18L18 18L18 17L22 17L22 18L23 18L23 17L26 17L26 18L25 18L25 20L24 20L24 19L21 19L21 20L19 20L19 21L20 21L20 22L21 22L21 23L20 23L20 24L19 24L19 25L20 25L20 26L18 26L18 27L17 27L17 28L16 28L16 27L15 27L15 30L14 30L14 31L13 31L13 30L12 30L12 29L11 29L11 30L10 30L10 32L12 32L12 33L13 33L13 32L15 32L15 33L14 33L14 34L17 34L17 35L14 35L14 36L13 36L13 34L11 34L11 36L10 36L10 35L9 35L9 37L5 37L5 38L4 38L4 39L3 39L3 40L4 40L4 39L5 39L5 41L4 41L4 43L5 43L5 45L4 45L4 47L5 47L5 48L9 48L9 46L8 46L8 45L6 45L6 44L10 44L10 46L11 46L11 47L14 47L14 48L11 48L11 49L12 49L12 50L14 50L14 52L15 52L15 53L16 53L16 54L15 54L15 55L18 55L18 53L16 53L16 52L17 52L17 51L18 51L18 49L21 49L21 52L19 52L19 53L20 53L20 54L19 54L19 57L20 57L20 58L17 58L17 59L20 59L20 62L19 62L19 61L18 61L18 60L16 60L16 59L15 59L15 58L16 58L16 57L17 57L17 56L16 56L16 57L15 57L15 56L13 56L13 55L14 55L14 54L13 54L13 51L11 51L11 50L10 50L10 49L9 49L9 50L10 50L10 51L6 51L6 52L10 52L10 51L11 51L11 52L12 52L12 53L11 53L11 54L10 54L10 53L9 53L9 55L11 55L11 56L10 56L10 57L12 57L12 58L9 58L9 57L6 57L6 58L9 58L9 59L12 59L12 58L14 58L14 60L15 60L15 62L17 62L17 63L18 63L18 62L19 62L19 63L20 63L20 62L21 62L21 61L22 61L22 63L25 63L25 64L26 64L26 63L25 63L25 62L23 62L23 61L25 61L25 60L26 60L26 62L27 62L27 64L28 64L28 65L25 65L25 67L27 67L27 66L28 66L28 65L29 65L29 64L30 64L30 63L32 63L32 61L31 61L31 62L30 62L30 61L29 61L29 60L26 60L26 58L27 58L27 59L29 59L29 57L30 57L30 56L29 56L29 55L30 55L30 53L27 53L27 52L26 52L26 54L23 54L23 52L25 52L25 50L22 50L22 49L26 49L26 51L28 51L28 52L31 52L31 58L30 58L30 59L32 59L32 57L34 57L34 58L35 58L35 59L34 59L34 60L35 60L35 59L36 59L36 58L35 58L35 56L32 56L32 53L33 53L33 55L36 55L36 53L38 53L38 52L35 52L35 51L36 51L36 50L37 50L37 49L38 49L38 51L39 51L39 54L37 54L37 55L38 55L38 58L37 58L37 61L38 61L38 62L37 62L37 64L38 64L38 65L36 65L36 66L35 66L35 65L33 65L33 66L34 66L34 68L35 68L35 67L37 67L37 66L39 66L39 67L40 67L40 66L41 66L41 64L44 64L44 66L45 66L45 67L46 67L46 66L47 66L47 63L45 63L45 64L44 64L44 62L47 62L47 61L45 61L45 60L49 60L49 59L50 59L50 60L52 60L52 59L50 59L50 58L53 58L53 57L55 57L55 56L56 56L56 55L57 55L57 56L59 56L59 57L60 57L60 56L59 56L59 55L61 55L61 56L62 56L62 55L66 55L66 53L65 53L65 52L66 52L66 51L67 51L67 50L66 50L66 51L65 51L65 49L67 49L67 48L68 48L68 47L67 47L67 48L65 48L65 47L66 47L66 45L63 45L63 46L62 46L62 44L65 44L65 43L63 43L63 42L66 42L66 43L67 43L67 42L66 42L66 41L68 41L68 40L66 40L66 39L67 39L67 38L66 38L66 37L67 37L67 36L68 36L68 35L67 35L67 36L65 36L65 37L64 37L64 38L62 38L62 37L61 37L61 38L62 38L62 39L60 39L60 38L59 38L59 37L60 37L60 35L59 35L59 37L58 37L58 35L56 35L56 33L57 33L57 34L59 34L59 33L60 33L60 32L59 32L59 31L60 31L60 30L59 30L59 29L62 29L62 30L61 30L61 31L63 31L63 32L64 32L64 31L67 31L67 32L66 32L66 33L65 33L65 35L66 35L66 34L68 34L68 33L67 33L67 32L68 32L68 31L67 31L67 28L66 28L66 27L67 27L67 26L66 26L66 25L67 25L67 24L68 24L68 23L67 23L67 24L65 24L65 23L66 23L66 22L65 22L65 23L63 23L63 21L66 21L66 20L65 20L65 19L67 19L67 17L68 17L68 16L67 16L67 17L66 17L66 16L65 16L65 14L63 14L63 15L64 15L64 16L62 16L62 15L61 15L61 14L60 14L60 15L61 15L61 16L62 16L62 18L60 18L60 20L62 20L62 18L63 18L63 19L64 19L64 20L63 20L63 21L62 21L62 23L61 23L61 25L62 25L62 26L59 26L59 25L60 25L60 24L59 24L59 25L57 25L57 24L58 24L58 23L57 23L57 24L54 24L54 22L52 22L52 23L53 23L53 24L50 24L50 25L49 25L49 26L51 26L51 25L52 25L52 27L53 27L53 28L51 28L51 29L50 29L50 27L47 27L47 25L48 25L48 24L49 24L49 22L47 22L47 21L46 21L46 20L47 20L47 17L45 17L45 16L44 16L44 15L45 15L45 14L47 14L47 16L49 16L49 17L50 17L50 18L49 18L49 19L48 19L48 20L49 20L49 21L50 21L50 23L51 23L51 21L53 21L53 20L51 20L51 19L53 19L53 16L52 16L52 14L53 14L53 12L54 12L54 13L55 13L55 14L54 14L54 15L55 15L55 14L56 14L56 13L55 13L55 12L56 12L56 10L59 10L59 9L57 9L57 8L54 8L54 5L53 5L53 7L52 7L52 6L51 6L51 7L50 7L50 6L49 6L49 7L50 7L50 8L49 8L49 9L50 9L50 10L47 10L47 7L48 7L48 6L47 6L47 7L46 7L46 6L45 6L45 7L44 7L44 5L43 5L43 7L42 7L42 6L41 6L41 8L40 8L40 6L39 6L39 7L38 7L38 6L37 6L37 8L38 8L38 10L36 10L36 9L34 9L34 10L33 10L33 9L32 9L32 8L31 8L31 7L32 7L32 5L30 5L30 4L29 4L29 3L28 3L28 2L27 2L27 3L28 3L28 4L27 4L27 5L28 5L28 6L27 6L27 7L26 7L26 5L24 5L24 4L23 4L23 5L22 5L22 6L21 6L21 7L20 7L20 6L19 6L19 7L20 7L20 8L19 8L19 9L20 9L20 11L18 11L18 10L17 10L17 7L18 7L18 6L17 6L17 7L16 7L16 4L17 4L17 2ZM30 2L30 3L32 3L32 2ZM12 3L12 4L13 4L13 6L12 6L12 7L13 7L13 8L15 8L15 4L16 4L16 3L14 3L14 4L13 4L13 3ZM42 3L42 4L43 4L43 3ZM60 3L60 5L61 5L61 3ZM29 5L29 6L28 6L28 7L29 7L29 6L30 6L30 7L31 7L31 6L30 6L30 5ZM33 5L33 8L36 8L36 5ZM13 6L13 7L14 7L14 6ZM22 6L22 7L23 7L23 6ZM24 6L24 9L23 9L23 10L24 10L24 9L26 9L26 10L27 10L27 13L26 13L26 11L25 11L25 12L24 12L24 11L22 11L22 10L21 10L21 11L20 11L20 12L18 12L18 11L16 11L16 12L15 12L15 13L16 13L16 14L17 14L17 15L15 15L15 14L12 14L12 13L9 13L9 14L8 14L8 15L7 15L7 14L5 14L5 13L3 13L3 14L5 14L5 15L3 15L3 16L5 16L5 15L7 15L7 16L8 16L8 15L9 15L9 17L8 17L8 18L9 18L9 19L10 19L10 18L9 18L9 17L10 17L10 16L11 16L11 19L12 19L12 16L13 16L13 15L15 15L15 16L14 16L14 17L13 17L13 18L14 18L14 19L13 19L13 20L14 20L14 19L16 19L16 18L15 18L15 16L17 16L17 17L18 17L18 16L17 16L17 15L18 15L18 14L19 14L19 16L24 16L24 15L25 15L25 16L26 16L26 15L25 15L25 14L27 14L27 15L31 15L31 16L29 16L29 20L30 20L30 21L29 21L29 22L30 22L30 23L25 23L25 22L26 22L26 20L25 20L25 21L23 21L23 22L22 22L22 21L21 21L21 22L22 22L22 23L21 23L21 24L22 24L22 25L21 25L21 26L20 26L20 28L23 28L23 27L24 27L24 28L25 28L25 29L22 29L22 30L23 30L23 33L24 33L24 34L22 34L22 36L23 36L23 38L25 38L25 40L24 40L24 41L23 41L23 42L24 42L24 41L25 41L25 43L26 43L26 44L24 44L24 43L20 43L20 41L19 41L19 40L21 40L21 41L22 41L22 40L21 40L21 39L22 39L22 38L20 38L20 36L19 36L19 35L20 35L20 34L19 34L19 33L20 33L20 32L21 32L21 31L20 31L20 29L19 29L19 28L17 28L17 29L18 29L18 31L16 31L16 33L17 33L17 34L19 34L19 35L18 35L18 36L14 36L14 37L19 37L19 40L17 40L17 44L16 44L16 43L15 43L15 42L16 42L16 41L15 41L15 40L16 40L16 39L17 39L17 38L16 38L16 39L15 39L15 38L12 38L12 39L11 39L11 37L13 37L13 36L11 36L11 37L10 37L10 39L9 39L9 38L5 38L5 39L9 39L9 40L6 40L6 41L7 41L7 42L5 42L5 43L7 43L7 42L9 42L9 43L10 43L10 44L11 44L11 43L12 43L12 44L13 44L13 46L15 46L15 48L14 48L14 50L15 50L15 48L17 48L17 49L18 49L18 48L17 48L17 47L18 47L18 46L19 46L19 48L20 48L20 45L21 45L21 44L24 44L24 45L23 45L23 48L24 48L24 47L25 47L25 48L26 48L26 47L25 47L25 46L27 46L27 47L29 47L29 51L30 51L30 49L31 49L31 50L32 50L32 51L34 51L34 50L36 50L36 49L34 49L34 48L32 48L32 49L31 49L31 46L27 46L27 45L28 45L28 44L29 44L29 45L31 45L31 44L29 44L29 43L27 43L27 41L26 41L26 38L25 38L25 37L26 37L26 36L27 36L27 35L28 35L28 36L29 36L29 37L30 37L30 38L29 38L29 39L28 39L28 40L29 40L29 41L30 41L30 42L32 42L32 45L33 45L33 46L32 46L32 47L35 47L35 48L36 48L36 47L38 47L38 49L39 49L39 48L40 48L40 47L41 47L41 48L42 48L42 49L41 49L41 50L39 50L39 51L41 51L41 50L42 50L42 51L44 51L44 52L43 52L43 53L41 53L41 54L42 54L42 55L39 55L39 56L41 56L41 57L39 57L39 58L38 58L38 60L39 60L39 62L38 62L38 64L41 64L41 63L39 63L39 62L40 62L40 59L41 59L41 58L42 58L42 60L41 60L41 62L42 62L42 63L43 63L43 61L44 61L44 60L45 60L45 59L46 59L46 58L45 58L45 59L44 59L44 60L43 60L43 57L44 57L44 56L46 56L46 57L47 57L47 58L48 58L48 59L49 59L49 58L50 58L50 57L51 57L51 56L49 56L49 55L50 55L50 53L51 53L51 52L52 52L52 51L51 51L51 52L50 52L50 51L49 51L49 50L50 50L50 49L51 49L51 50L52 50L52 49L51 49L51 47L52 47L52 46L50 46L50 44L48 44L48 43L49 43L49 42L50 42L50 43L51 43L51 44L52 44L52 43L51 43L51 42L52 42L52 41L51 41L51 42L50 42L50 40L49 40L49 38L50 38L50 35L49 35L49 34L50 34L50 31L49 31L49 30L50 30L50 29L49 29L49 28L46 28L46 26L43 26L43 25L44 25L44 24L43 24L43 22L44 22L44 23L45 23L45 24L46 24L46 25L47 25L47 24L48 24L48 23L47 23L47 24L46 24L46 22L44 22L44 20L43 20L43 17L44 17L44 16L42 16L42 17L41 17L41 18L39 18L39 19L38 19L38 16L40 16L40 15L42 15L42 14L43 14L43 15L44 15L44 12L47 12L47 14L50 14L50 15L49 15L49 16L50 16L50 15L51 15L51 14L50 14L50 13L51 13L51 11L50 11L50 13L49 13L49 12L47 12L47 11L43 11L43 13L42 13L42 14L41 14L41 12L42 12L42 10L45 10L45 9L46 9L46 7L45 7L45 9L44 9L44 8L43 8L43 9L40 9L40 8L39 8L39 9L40 9L40 10L38 10L38 11L37 11L37 12L38 12L38 11L39 11L39 12L40 12L40 13L39 13L39 14L40 14L40 15L38 15L38 13L37 13L37 14L35 14L35 15L36 15L36 16L35 16L35 17L34 17L34 18L36 18L36 19L37 19L37 20L36 20L36 21L37 21L37 22L35 22L35 24L37 24L37 22L41 22L41 24L42 24L42 25L41 25L41 26L38 26L38 25L35 25L35 26L34 26L34 27L35 27L35 28L36 28L36 29L34 29L34 30L33 30L33 27L30 27L30 26L31 26L31 24L32 24L32 23L33 23L33 22L34 22L34 21L35 21L35 20L34 20L34 21L33 21L33 22L32 22L32 19L33 19L33 17L32 17L32 14L27 14L27 13L32 13L32 12L31 12L31 11L32 11L32 10L31 10L31 9L30 9L30 8L29 8L29 9L30 9L30 10L29 10L29 11L28 11L28 10L27 10L27 9L26 9L26 8L25 8L25 6ZM34 6L34 7L35 7L35 6ZM55 6L55 7L56 7L56 6ZM57 6L57 7L58 7L58 6ZM51 7L51 8L52 8L52 7ZM21 8L21 9L22 9L22 8ZM60 8L60 9L61 9L61 8ZM63 8L63 9L64 9L64 10L65 10L65 9L66 9L66 8L65 8L65 9L64 9L64 8ZM67 8L67 10L69 10L69 9L68 9L68 8ZM6 9L6 10L7 10L7 9ZM51 9L51 10L52 10L52 9ZM53 9L53 10L56 10L56 9ZM11 10L11 11L12 11L12 12L13 12L13 11L12 11L12 10ZM34 10L34 11L36 11L36 10ZM40 10L40 12L41 12L41 10ZM8 11L8 12L6 12L6 13L8 13L8 12L9 12L9 11ZM21 11L21 12L20 12L20 14L21 14L21 15L23 15L23 13L24 13L24 12L22 12L22 11ZM29 11L29 12L30 12L30 11ZM16 12L16 13L17 13L17 14L18 14L18 13L17 13L17 12ZM34 12L34 13L33 13L33 14L34 14L34 13L36 13L36 12ZM21 13L21 14L22 14L22 13ZM9 14L9 15L10 15L10 14ZM11 14L11 16L12 16L12 14ZM33 15L33 16L34 16L34 15ZM1 17L1 18L2 18L2 17ZM27 17L27 18L28 18L28 17ZM31 17L31 19L32 19L32 17ZM36 17L36 18L37 18L37 17ZM51 17L51 18L52 18L52 17ZM63 17L63 18L66 18L66 17ZM19 18L19 19L20 19L20 18ZM44 18L44 19L46 19L46 18ZM54 18L54 21L55 21L55 19L56 19L56 18ZM7 19L7 20L8 20L8 21L7 21L7 22L6 22L6 23L8 23L8 21L10 21L10 23L11 23L11 21L12 21L12 22L14 22L14 21L12 21L12 20L8 20L8 19ZM27 19L27 20L28 20L28 19ZM39 19L39 21L42 21L42 20L41 20L41 19ZM49 19L49 20L50 20L50 19ZM37 20L37 21L38 21L38 20ZM1 21L1 22L2 22L2 21ZM30 21L30 22L31 22L31 23L32 23L32 22L31 22L31 21ZM23 22L23 23L24 23L24 22ZM38 23L38 24L39 24L39 23ZM62 23L62 25L63 25L63 26L62 26L62 29L63 29L63 30L65 30L65 29L66 29L66 28L65 28L65 29L63 29L63 28L64 28L64 26L65 26L65 27L66 27L66 26L65 26L65 25L63 25L63 23ZM16 24L16 25L17 25L17 24ZM26 24L26 26L25 26L25 28L26 28L26 29L25 29L25 30L27 30L27 32L28 32L28 33L25 33L25 32L26 32L26 31L24 31L24 33L25 33L25 35L24 35L24 36L26 36L26 34L28 34L28 33L29 33L29 36L30 36L30 33L29 33L29 29L28 29L28 28L29 28L29 25L30 25L30 24L29 24L29 25L27 25L27 24ZM53 24L53 26L54 26L54 27L56 27L56 26L57 26L57 27L58 27L58 28L60 28L60 27L58 27L58 26L57 26L57 25L54 25L54 24ZM22 25L22 26L21 26L21 27L22 27L22 26L24 26L24 25ZM26 26L26 27L28 27L28 26ZM35 26L35 27L36 27L36 26ZM37 26L37 27L38 27L38 28L40 28L40 29L37 29L37 30L40 30L40 31L43 31L43 32L38 32L38 31L36 31L36 32L38 32L38 34L37 34L37 36L38 36L38 37L36 37L36 38L38 38L38 39L37 39L37 40L36 40L36 41L37 41L37 40L38 40L38 39L39 39L39 37L40 37L40 38L41 38L41 40L39 40L39 41L38 41L38 42L36 42L36 43L38 43L38 44L37 44L37 45L35 45L35 44L33 44L33 45L35 45L35 47L36 47L36 46L37 46L37 45L38 45L38 46L39 46L39 47L40 47L40 46L39 46L39 45L40 45L40 44L41 44L41 43L40 43L40 41L41 41L41 40L44 40L44 42L43 42L43 43L44 43L44 42L45 42L45 44L43 44L43 45L44 45L44 46L42 46L42 45L41 45L41 46L42 46L42 48L43 48L43 47L44 47L44 49L43 49L43 50L44 50L44 49L45 49L45 52L44 52L44 53L43 53L43 56L42 56L42 57L43 57L43 56L44 56L44 53L45 53L45 54L46 54L46 56L47 56L47 55L48 55L48 54L49 54L49 53L50 53L50 52L49 52L49 53L48 53L48 54L47 54L47 53L45 53L45 52L46 52L46 51L47 51L47 50L48 50L48 49L47 49L47 47L48 47L48 48L49 48L49 49L50 49L50 47L49 47L49 46L47 46L47 43L46 43L46 42L47 42L47 40L48 40L48 38L47 38L47 37L45 37L45 36L47 36L47 34L49 34L49 33L45 33L45 32L44 32L44 31L45 31L45 30L46 30L46 32L49 32L49 31L47 31L47 29L45 29L45 28L43 28L43 30L42 30L42 27L38 27L38 26ZM31 28L31 29L32 29L32 28ZM53 28L53 29L51 29L51 30L52 30L52 32L53 32L53 30L54 30L54 33L53 33L53 34L55 34L55 33L56 33L56 32L57 32L57 33L58 33L58 32L57 32L57 30L58 30L58 31L59 31L59 30L58 30L58 29L56 29L56 28ZM3 29L3 30L5 30L5 29ZM44 29L44 30L45 30L45 29ZM48 29L48 30L49 30L49 29ZM55 29L55 31L56 31L56 29ZM11 30L11 31L12 31L12 32L13 32L13 31L12 31L12 30ZM32 30L32 32L31 32L31 31L30 31L30 32L31 32L31 35L32 35L32 32L34 32L34 31L33 31L33 30ZM6 31L6 32L7 32L7 31ZM19 31L19 32L20 32L20 31ZM17 32L17 33L18 33L18 32ZM43 32L43 33L40 33L40 35L39 35L39 34L38 34L38 35L39 35L39 36L40 36L40 35L41 35L41 38L42 38L42 39L45 39L45 40L47 40L47 38L45 38L45 37L44 37L44 36L45 36L45 33L44 33L44 32ZM2 33L2 34L3 34L3 35L2 35L2 36L1 36L1 37L4 37L4 33ZM5 33L5 36L8 36L8 33ZM9 33L9 34L10 34L10 33ZM33 33L33 36L36 36L36 33ZM43 33L43 34L41 34L41 35L43 35L43 36L44 36L44 33ZM61 33L61 36L64 36L64 33ZM6 34L6 35L7 35L7 34ZM34 34L34 35L35 35L35 34ZM62 34L62 35L63 35L63 34ZM48 35L48 36L49 36L49 35ZM53 35L53 36L54 36L54 37L52 37L52 38L54 38L54 39L52 39L52 40L53 40L53 42L54 42L54 43L53 43L53 46L54 46L54 47L55 47L55 45L56 45L56 47L57 47L57 45L59 45L59 46L60 46L60 45L61 45L61 44L62 44L62 42L63 42L63 41L66 41L66 40L65 40L65 39L66 39L66 38L65 38L65 39L62 39L62 40L60 40L60 39L59 39L59 40L58 40L58 39L57 39L57 41L56 41L56 40L55 40L55 38L56 38L56 36L55 36L55 35ZM31 37L31 38L30 38L30 39L29 39L29 40L30 40L30 41L31 41L31 39L33 39L33 38L32 38L32 37ZM34 37L34 41L33 41L33 43L35 43L35 42L34 42L34 41L35 41L35 37ZM1 38L1 39L2 39L2 38ZM10 39L10 40L9 40L9 41L10 41L10 43L11 43L11 39ZM12 39L12 41L13 41L13 42L12 42L12 43L13 43L13 42L15 42L15 41L14 41L14 40L15 40L15 39ZM59 40L59 41L57 41L57 42L55 42L55 43L54 43L54 45L55 45L55 44L56 44L56 45L57 45L57 44L56 44L56 43L57 43L57 42L58 42L58 44L59 44L59 45L60 45L60 44L61 44L61 43L60 43L60 42L62 42L62 41L63 41L63 40L62 40L62 41L60 41L60 40ZM38 42L38 43L39 43L39 44L40 44L40 43L39 43L39 42ZM18 43L18 44L19 44L19 43ZM59 43L59 44L60 44L60 43ZM14 44L14 45L15 45L15 46L17 46L17 45L15 45L15 44ZM26 44L26 45L27 45L27 44ZM67 44L67 45L68 45L68 44ZM5 45L5 46L6 46L6 47L7 47L7 46L6 46L6 45ZM11 45L11 46L12 46L12 45ZM45 46L45 49L46 49L46 46ZM61 46L61 47L62 47L62 49L61 49L61 48L60 48L60 49L59 49L59 50L58 50L58 49L57 49L57 50L55 50L55 49L56 49L56 48L55 48L55 49L53 49L53 50L54 50L54 52L53 52L53 53L52 53L52 56L54 56L54 54L55 54L55 55L56 55L56 54L55 54L55 53L56 53L56 52L59 52L59 51L60 51L60 49L61 49L61 50L62 50L62 49L63 49L63 47L64 47L64 46L63 46L63 47L62 47L62 46ZM58 47L58 48L59 48L59 47ZM21 48L21 49L22 49L22 48ZM4 49L4 50L1 50L1 51L3 51L3 52L5 52L5 50L7 50L7 49ZM27 49L27 50L28 50L28 49ZM33 49L33 50L34 50L34 49ZM19 50L19 51L20 51L20 50ZM57 50L57 51L58 51L58 50ZM22 51L22 52L23 52L23 51ZM55 51L55 52L56 52L56 51ZM61 51L61 52L62 52L62 53L64 53L64 51ZM33 52L33 53L34 53L34 52ZM6 53L6 54L8 54L8 53ZM21 53L21 54L20 54L20 57L21 57L21 58L20 58L20 59L21 59L21 58L22 58L22 57L24 57L24 58L23 58L23 59L22 59L22 60L23 60L23 59L24 59L24 60L25 60L25 57L26 57L26 56L25 56L25 55L24 55L24 56L23 56L23 54L22 54L22 53ZM53 53L53 54L54 54L54 53ZM11 54L11 55L13 55L13 54ZM21 54L21 55L22 55L22 54ZM26 54L26 55L27 55L27 56L28 56L28 55L29 55L29 54ZM61 54L61 55L62 55L62 54ZM6 55L6 56L8 56L8 55ZM12 56L12 57L13 57L13 56ZM21 56L21 57L22 57L22 56ZM14 57L14 58L15 58L15 57ZM3 60L3 61L5 61L5 60ZM9 60L9 61L10 61L10 62L9 62L9 63L10 63L10 62L11 62L11 60ZM42 60L42 61L43 61L43 60ZM54 60L54 61L55 61L55 60ZM65 60L65 61L66 61L66 60ZM17 61L17 62L18 62L18 61ZM33 61L33 64L36 64L36 61ZM61 61L61 64L64 64L64 61ZM34 62L34 63L35 63L35 62ZM62 62L62 63L63 63L63 62ZM65 62L65 63L66 63L66 62ZM13 63L13 65L14 65L14 63ZM28 63L28 64L29 64L29 63ZM45 64L45 66L46 66L46 64ZM30 65L30 66L32 66L32 65ZM66 65L66 66L67 66L67 65ZM48 66L48 67L47 67L47 68L48 68L48 67L49 67L49 66ZM54 66L54 67L55 67L55 68L56 68L56 67L55 67L55 66ZM29 67L29 68L30 68L30 67ZM51 67L51 68L50 68L50 69L51 69L51 68L52 68L52 67ZM0 0L0 7L7 7L7 0ZM1 1L1 6L6 6L6 1ZM2 2L2 5L5 5L5 2ZM62 0L62 7L69 7L69 0ZM63 1L63 6L68 6L68 1ZM64 2L64 5L67 5L67 2ZM0 62L0 69L7 69L7 62ZM1 63L1 68L6 68L6 63ZM2 64L2 67L5 67L5 64Z" fill="#000000"/></g></g></svg>
