<?xml version="1.0" encoding="UTF-8"?>
<svg xmlns="http://www.w3.org/2000/svg" version="1.1" width="300" height="300" viewBox="0 0 300 300"><rect x="0" y="0" width="300" height="300" fill="#ffffff"/><g transform="scale(4.348)"><g transform="translate(0,0)"><path fill-rule="evenodd" d="M9 0L9 1L8 1L8 2L9 2L9 1L10 1L10 0ZM13 0L13 1L14 1L14 2L15 2L15 3L14 3L14 4L15 4L15 5L13 5L13 6L12 6L12 7L13 7L13 6L14 6L14 9L16 9L16 10L15 10L15 12L14 12L14 11L13 11L13 12L14 12L14 13L13 13L13 14L10 14L10 15L9 15L9 17L10 17L10 15L12 15L12 16L13 16L13 17L14 17L14 16L15 16L15 17L16 17L16 16L17 16L17 17L18 17L18 18L20 18L20 19L19 19L19 20L17 20L17 18L15 18L15 19L13 19L13 20L12 20L12 18L10 18L10 19L9 19L9 18L8 18L8 16L6 16L6 15L8 15L8 13L10 13L10 12L8 12L8 11L7 11L7 10L8 10L8 9L9 9L9 11L11 11L11 12L12 12L12 11L11 11L11 10L10 10L10 9L11 9L11 6L10 6L10 4L9 4L9 3L8 3L8 4L9 4L9 5L8 5L8 7L9 7L9 8L6 8L6 9L7 9L7 10L4 10L4 9L5 9L5 8L0 8L0 9L3 9L3 10L0 10L0 18L1 18L1 20L2 20L2 19L3 19L3 21L1 21L1 23L0 23L0 24L1 24L1 25L0 25L0 26L2 26L2 23L3 23L3 25L4 25L4 26L3 26L3 29L2 29L2 28L1 28L1 29L0 29L0 32L1 32L1 29L2 29L2 30L4 30L4 35L3 35L3 34L2 34L2 33L3 33L3 31L2 31L2 33L1 33L1 34L0 34L0 39L1 39L1 40L0 40L0 41L2 41L2 42L1 42L1 43L0 43L0 44L1 44L1 43L2 43L2 46L4 46L4 47L5 47L5 48L3 48L3 47L2 47L2 48L1 48L1 47L0 47L0 48L1 48L1 49L0 49L0 52L2 52L2 53L4 53L4 54L3 54L3 55L2 55L2 54L0 54L0 57L1 57L1 58L0 58L0 61L1 61L1 58L2 58L2 59L3 59L3 57L4 57L4 59L8 59L8 60L9 60L9 61L8 61L8 63L9 63L9 64L8 64L8 69L11 69L11 66L12 66L12 67L16 67L16 68L15 68L15 69L22 69L22 68L19 68L19 67L20 67L20 66L19 66L19 65L20 65L20 61L21 61L21 63L22 63L22 64L23 64L23 63L26 63L26 64L24 64L24 65L23 65L23 66L25 66L25 67L23 67L23 68L24 68L24 69L26 69L26 68L27 68L27 69L32 69L32 68L31 68L31 67L33 67L33 69L35 69L35 68L36 68L36 69L38 69L38 68L37 68L37 67L39 67L39 66L38 66L38 65L39 65L39 64L41 64L41 66L40 66L40 67L41 67L41 66L44 66L44 68L41 68L41 69L44 69L44 68L47 68L47 69L49 69L49 68L50 68L50 69L51 69L51 68L52 68L52 67L51 67L51 66L50 66L50 63L49 63L49 64L47 64L47 65L48 65L48 66L50 66L50 67L49 67L49 68L48 68L48 67L47 67L47 66L46 66L46 64L45 64L45 63L44 63L44 64L41 64L41 63L39 63L39 62L40 62L40 59L41 59L41 58L42 58L42 60L41 60L41 62L42 62L42 63L43 63L43 61L44 61L44 60L43 60L43 57L44 57L44 56L46 56L46 57L47 57L47 58L48 58L48 59L49 59L49 58L50 58L50 57L51 57L51 58L52 58L52 57L51 57L51 56L52 56L52 55L53 55L53 56L55 56L55 57L53 57L53 58L54 58L54 59L55 59L55 57L56 57L56 58L57 58L57 57L56 57L56 56L58 56L58 57L59 57L59 58L60 58L60 59L59 59L59 60L60 60L60 61L59 61L59 62L58 62L58 63L57 63L57 62L56 62L56 63L55 63L55 61L56 61L56 60L55 60L55 61L54 61L54 60L53 60L53 59L52 59L52 60L53 60L53 63L55 63L55 64L57 64L57 65L56 65L56 66L58 66L58 67L57 67L57 68L58 68L58 69L62 69L62 67L63 67L63 66L61 66L61 65L64 65L64 66L65 66L65 67L64 67L64 68L65 68L65 69L68 69L68 68L67 68L67 67L66 67L66 66L67 66L67 65L66 65L66 66L65 66L65 64L68 64L68 60L69 60L69 59L68 59L68 57L69 57L69 56L68 56L68 54L69 54L69 53L67 53L67 52L68 52L68 50L69 50L69 49L68 49L68 48L69 48L69 47L68 47L68 46L69 46L69 45L68 45L68 46L67 46L67 43L68 43L68 44L69 44L69 43L68 43L68 42L69 42L69 41L68 41L68 40L69 40L69 39L68 39L68 36L69 36L69 35L68 35L68 34L69 34L69 33L68 33L68 32L69 32L69 31L64 31L64 30L63 30L63 31L62 31L62 29L63 29L63 27L64 27L64 26L69 26L69 23L68 23L68 22L67 22L67 21L68 21L68 18L69 18L69 17L67 17L67 15L68 15L68 16L69 16L69 15L68 15L68 13L69 13L69 12L68 12L68 10L69 10L69 9L68 9L68 8L67 8L67 9L66 9L66 8L65 8L65 10L64 10L64 11L65 11L65 12L66 12L66 13L67 13L67 14L65 14L65 13L63 13L63 14L62 14L62 12L63 12L63 10L62 10L62 8L61 8L61 6L60 6L60 7L59 7L59 4L58 4L58 5L57 5L57 4L56 4L56 3L54 3L54 4L53 4L53 5L52 5L52 4L51 4L51 6L50 6L50 4L49 4L49 3L52 3L52 2L53 2L53 1L54 1L54 2L55 2L55 1L57 1L57 3L59 3L59 2L58 2L58 1L61 1L61 0L58 0L58 1L57 1L57 0L53 0L53 1L52 1L52 0L51 0L51 1L50 1L50 0L47 0L47 3L48 3L48 4L47 4L47 5L48 5L48 7L47 7L47 6L46 6L46 5L44 5L44 3L45 3L45 4L46 4L46 3L45 3L45 2L44 2L44 3L43 3L43 4L42 4L42 2L43 2L43 0L41 0L41 1L38 1L38 0L36 0L36 1L35 1L35 0L33 0L33 1L32 1L32 0L30 0L30 1L29 1L29 0L28 0L28 1L27 1L27 2L28 2L28 3L27 3L27 4L29 4L29 6L28 6L28 5L26 5L26 1L25 1L25 0L21 0L21 2L22 2L22 1L25 1L25 2L24 2L24 4L22 4L22 5L20 5L20 4L21 4L21 3L20 3L20 4L19 4L19 2L20 2L20 1L19 1L19 0ZM44 0L44 1L45 1L45 0ZM15 1L15 2L16 2L16 3L15 3L15 4L17 4L17 3L18 3L18 2L17 2L17 1ZM31 1L31 3L32 3L32 4L35 4L35 3L36 3L36 2L32 2L32 1ZM41 1L41 2L37 2L37 3L38 3L38 4L37 4L37 5L38 5L38 6L37 6L37 8L40 8L40 9L38 9L38 10L36 10L36 9L33 9L33 10L32 10L32 8L31 8L31 7L32 7L32 5L30 5L30 6L29 6L29 7L28 7L28 6L27 6L27 8L26 8L26 6L25 6L25 8L26 8L26 10L25 10L25 9L24 9L24 8L23 8L23 7L24 7L24 5L22 5L22 6L21 6L21 7L20 7L20 5L19 5L19 7L20 7L20 10L19 10L19 9L18 9L18 8L17 8L17 9L18 9L18 11L17 11L17 10L16 10L16 12L18 12L18 11L19 11L19 13L20 13L20 16L19 16L19 14L18 14L18 13L17 13L17 14L16 14L16 15L17 15L17 16L18 16L18 17L23 17L23 19L24 19L24 17L26 17L26 18L25 18L25 20L19 20L19 21L18 21L18 22L17 22L17 21L16 21L16 20L15 20L15 21L14 21L14 20L13 20L13 21L14 21L14 22L13 22L13 24L12 24L12 25L11 25L11 24L10 24L10 22L12 22L12 21L10 21L10 20L11 20L11 19L10 19L10 20L9 20L9 21L10 21L10 22L9 22L9 23L8 23L8 22L7 22L7 21L8 21L8 18L7 18L7 17L6 17L6 16L5 16L5 15L6 15L6 14L7 14L7 13L6 13L6 12L7 12L7 11L6 11L6 12L5 12L5 11L4 11L4 10L3 10L3 11L4 11L4 12L5 12L5 13L4 13L4 14L1 14L1 16L3 16L3 15L4 15L4 17L6 17L6 18L4 18L4 20L7 20L7 21L5 21L5 22L7 22L7 23L5 23L5 26L8 26L8 28L13 28L13 27L14 27L14 28L16 28L16 29L14 29L14 31L13 31L13 32L14 32L14 31L15 31L15 33L12 33L12 34L11 34L11 32L9 32L9 31L11 31L11 30L13 30L13 29L6 29L6 28L7 28L7 27L4 27L4 30L5 30L5 29L6 29L6 30L7 30L7 31L5 31L5 32L7 32L7 31L8 31L8 32L9 32L9 34L10 34L10 35L11 35L11 36L9 36L9 39L11 39L11 37L13 37L13 39L15 39L15 38L16 38L16 40L14 40L14 42L13 42L13 41L11 41L11 40L9 40L9 41L8 41L8 38L7 38L7 37L4 37L4 36L3 36L3 35L1 35L1 36L2 36L2 37L4 37L4 38L3 38L3 39L2 39L2 41L3 41L3 40L4 40L4 38L5 38L5 40L7 40L7 41L4 41L4 42L3 42L3 43L4 43L4 42L7 42L7 41L8 41L8 42L10 42L10 43L5 43L5 45L6 45L6 46L7 46L7 47L6 47L6 48L7 48L7 49L4 49L4 50L3 50L3 48L2 48L2 49L1 49L1 50L2 50L2 51L3 51L3 52L5 52L5 54L4 54L4 56L8 56L8 57L5 57L5 58L8 58L8 59L9 59L9 58L8 58L8 57L10 57L10 56L8 56L8 55L10 55L10 54L8 54L8 55L5 55L5 54L7 54L7 53L9 53L9 52L10 52L10 51L9 51L9 50L7 50L7 49L8 49L8 48L9 48L9 49L10 49L10 48L11 48L11 50L12 50L12 49L13 49L13 50L14 50L14 49L13 49L13 47L14 47L14 48L15 48L15 50L16 50L16 52L15 52L15 53L13 53L13 52L12 52L12 53L11 53L11 54L14 54L14 55L13 55L13 57L12 57L12 55L11 55L11 57L12 57L12 58L11 58L11 59L10 59L10 60L11 60L11 61L10 61L10 62L9 62L9 63L10 63L10 62L11 62L11 64L10 64L10 65L9 65L9 68L10 68L10 66L11 66L11 65L12 65L12 66L13 66L13 65L14 65L14 64L15 64L15 65L16 65L16 67L17 67L17 65L18 65L18 64L17 64L17 63L18 63L18 62L19 62L19 61L20 61L20 60L21 60L21 61L22 61L22 63L23 63L23 62L24 62L24 61L25 61L25 62L29 62L29 60L30 60L30 59L28 59L28 58L29 58L29 57L30 57L30 56L29 56L29 55L30 55L30 53L28 53L28 52L32 52L32 53L31 53L31 55L32 55L32 57L31 57L31 59L32 59L32 60L31 60L31 62L30 62L30 63L29 63L29 64L28 64L28 65L25 65L25 66L28 66L28 65L30 65L30 66L32 66L32 65L30 65L30 64L31 64L31 63L32 63L32 60L33 60L33 58L34 58L34 59L37 59L37 61L38 61L38 62L37 62L37 64L39 64L39 63L38 63L38 62L39 62L39 61L38 61L38 59L39 59L39 57L41 57L41 56L39 56L39 57L38 57L38 55L39 55L39 54L40 54L40 55L41 55L41 53L42 53L42 50L41 50L41 49L42 49L42 48L43 48L43 46L44 46L44 45L45 45L45 46L46 46L46 49L45 49L45 47L44 47L44 49L43 49L43 50L44 50L44 49L45 49L45 52L44 52L44 51L43 51L43 52L44 52L44 53L43 53L43 54L42 54L42 55L43 55L43 56L42 56L42 57L43 57L43 56L44 56L44 53L45 53L45 54L46 54L46 56L49 56L49 55L50 55L50 56L51 56L51 55L52 55L52 54L53 54L53 52L55 52L55 53L56 53L56 54L54 54L54 55L55 55L55 56L56 56L56 55L57 55L57 54L59 54L59 55L58 55L58 56L59 56L59 57L60 57L60 56L62 56L62 57L61 57L61 58L62 58L62 60L65 60L65 57L66 57L66 58L67 58L67 56L64 56L64 57L63 57L63 56L62 56L62 55L66 55L66 53L65 53L65 52L64 52L64 53L63 53L63 52L61 52L61 49L60 49L60 48L61 48L61 43L60 43L60 40L61 40L61 39L60 39L60 38L59 38L59 37L57 37L57 36L56 36L56 35L57 35L57 34L59 34L59 33L58 33L58 32L59 32L59 28L61 28L61 29L62 29L62 27L61 27L61 26L60 26L60 27L59 27L59 23L58 23L58 22L59 22L59 21L60 21L60 20L62 20L62 22L60 22L60 24L61 24L61 25L62 25L62 26L64 26L64 25L65 25L65 24L63 24L63 21L65 21L65 23L66 23L66 21L65 21L65 19L66 19L66 18L63 18L63 17L66 17L66 16L65 16L65 15L64 15L64 16L62 16L62 14L61 14L61 16L62 16L62 18L61 18L61 19L59 19L59 17L57 17L57 15L56 15L56 17L55 17L55 18L56 18L56 19L54 19L54 20L51 20L51 21L50 21L50 19L49 19L49 18L51 18L51 17L52 17L52 18L53 18L53 17L54 17L54 16L55 16L55 15L53 15L53 16L51 16L51 15L52 15L52 14L53 14L53 13L55 13L55 14L58 14L58 15L59 15L59 16L60 16L60 15L59 15L59 13L57 13L57 12L56 12L56 11L58 11L58 10L59 10L59 11L61 11L61 10L59 10L59 8L57 8L57 7L58 7L58 6L57 6L57 5L56 5L56 6L55 6L55 7L54 7L54 5L53 5L53 8L49 8L49 9L50 9L50 10L47 10L47 7L46 7L46 6L45 6L45 7L44 7L44 5L40 5L40 4L41 4L41 2L42 2L42 1ZM49 1L49 2L48 2L48 3L49 3L49 2L50 2L50 1ZM12 2L12 3L13 3L13 2ZM29 2L29 3L30 3L30 2ZM60 3L60 5L61 5L61 3ZM11 4L11 5L12 5L12 4ZM48 4L48 5L49 5L49 4ZM15 5L15 7L16 7L16 5ZM17 5L17 7L18 7L18 5ZM33 5L33 8L36 8L36 5ZM39 5L39 6L38 6L38 7L39 7L39 6L40 6L40 8L41 8L41 6L40 6L40 5ZM9 6L9 7L10 7L10 6ZM22 6L22 7L23 7L23 6ZM30 6L30 7L31 7L31 6ZM34 6L34 7L35 7L35 6ZM42 6L42 7L43 7L43 6ZM49 6L49 7L50 7L50 6ZM51 6L51 7L52 7L52 6ZM56 6L56 7L55 7L55 8L54 8L54 9L51 9L51 10L54 10L54 11L49 11L49 12L46 12L46 11L44 11L44 12L43 12L43 13L42 13L42 14L41 14L41 12L42 12L42 10L45 10L45 9L46 9L46 7L45 7L45 9L44 9L44 8L43 8L43 9L41 9L41 12L40 12L40 10L39 10L39 12L40 12L40 13L39 13L39 14L40 14L40 15L38 15L38 13L37 13L37 14L35 14L35 15L36 15L36 16L35 16L35 17L33 17L33 16L34 16L34 15L33 15L33 16L32 16L32 14L31 14L31 13L32 13L32 12L29 12L29 11L28 11L28 10L27 10L27 11L25 11L25 12L24 12L24 11L23 11L23 14L27 14L27 16L28 16L28 14L27 14L27 13L30 13L30 14L31 14L31 16L29 16L29 22L27 22L27 23L26 23L26 20L25 20L25 21L23 21L23 22L22 22L22 23L21 23L21 24L20 24L20 23L19 23L19 22L20 22L20 21L19 21L19 22L18 22L18 23L17 23L17 25L16 25L16 24L14 24L14 26L15 26L15 27L16 27L16 28L17 28L17 30L18 30L18 31L17 31L17 32L16 32L16 33L15 33L15 35L16 35L16 33L17 33L17 35L18 35L18 36L17 36L17 37L19 37L19 38L17 38L17 39L19 39L19 38L20 38L20 41L19 41L19 40L17 40L17 42L18 42L18 41L19 41L19 42L20 42L20 43L19 43L19 44L17 44L17 45L18 45L18 46L15 46L15 45L16 45L16 43L13 43L13 44L12 44L12 43L11 43L11 44L12 44L12 45L10 45L10 44L9 44L9 45L10 45L10 46L8 46L8 44L6 44L6 45L7 45L7 46L8 46L8 47L13 47L13 46L12 46L12 45L14 45L14 46L15 46L15 47L16 47L16 49L18 49L18 50L17 50L17 51L18 51L18 52L16 52L16 53L15 53L15 54L16 54L16 56L15 56L15 55L14 55L14 57L13 57L13 58L15 58L15 59L13 59L13 62L12 62L12 63L14 63L14 62L15 62L15 64L16 64L16 65L17 65L17 64L16 64L16 63L17 63L17 62L18 62L18 61L19 61L19 60L20 60L20 59L19 59L19 58L20 58L20 57L19 57L19 56L18 56L18 55L19 55L19 54L20 54L20 55L21 55L21 56L22 56L22 57L21 57L21 58L22 58L22 60L23 60L23 61L24 61L24 60L25 60L25 61L26 61L26 60L27 60L27 61L28 61L28 59L27 59L27 57L26 57L26 56L28 56L28 55L29 55L29 54L28 54L28 53L27 53L27 54L26 54L26 55L24 55L24 54L25 54L25 53L26 53L26 52L28 52L28 51L26 51L26 49L24 49L24 48L26 48L26 47L25 47L25 46L27 46L27 48L29 48L29 49L30 49L30 50L29 50L29 51L30 51L30 50L32 50L32 51L34 51L34 50L35 50L35 52L38 52L38 53L37 53L37 54L33 54L33 53L34 53L34 52L33 52L33 53L32 53L32 54L33 54L33 56L35 56L35 57L36 57L36 58L38 58L38 57L36 57L36 56L37 56L37 54L39 54L39 51L40 51L40 52L41 52L41 50L38 50L38 49L37 49L37 50L36 50L36 49L34 49L34 48L32 48L32 49L31 49L31 46L30 46L30 45L31 45L31 42L32 42L32 45L33 45L33 46L32 46L32 47L33 47L33 46L34 46L34 47L35 47L35 48L36 48L36 47L37 47L37 48L38 48L38 47L39 47L39 48L40 48L40 47L41 47L41 48L42 48L42 46L43 46L43 44L45 44L45 45L46 45L46 44L47 44L47 46L49 46L49 47L48 47L48 48L47 48L47 49L48 49L48 50L47 50L47 51L46 51L46 52L45 52L45 53L49 53L49 54L50 54L50 53L51 53L51 52L50 52L50 53L49 53L49 52L47 52L47 51L48 51L48 50L49 50L49 51L51 51L51 50L53 50L53 51L55 51L55 52L57 52L57 53L59 53L59 54L60 54L60 53L59 53L59 52L60 52L60 49L59 49L59 47L58 47L58 46L56 46L56 44L57 44L57 45L58 45L58 44L57 44L57 43L56 43L56 44L55 44L55 41L56 41L56 42L57 42L57 41L59 41L59 40L57 40L57 41L56 41L56 39L55 39L55 38L57 38L57 37L56 37L56 36L55 36L55 37L53 37L53 39L51 39L51 38L52 38L52 37L51 37L51 36L52 36L52 35L54 35L54 34L55 34L55 33L56 33L56 31L58 31L58 30L57 30L57 29L56 29L56 28L57 28L57 27L58 27L58 28L59 28L59 27L58 27L58 26L57 26L57 27L56 27L56 23L55 23L55 25L53 25L53 26L52 26L52 25L51 25L51 23L52 23L52 22L55 22L55 21L56 21L56 22L57 22L57 21L56 21L56 20L55 20L55 21L51 21L51 23L50 23L50 21L49 21L49 20L48 20L48 18L49 18L49 17L51 17L51 16L49 16L49 15L50 15L50 13L51 13L51 14L52 14L52 13L51 13L51 12L54 12L54 11L56 11L56 10L58 10L58 9L56 9L56 7L57 7L57 6ZM9 8L9 9L10 9L10 8ZM12 8L12 10L13 10L13 8ZM21 8L21 9L22 9L22 8ZM27 8L27 9L28 9L28 8ZM29 8L29 9L30 9L30 11L32 11L32 10L31 10L31 9L30 9L30 8ZM60 8L60 9L61 9L61 8ZM63 8L63 9L64 9L64 8ZM23 9L23 10L24 10L24 9ZM55 9L55 10L56 10L56 9ZM20 10L20 12L22 12L22 11L21 11L21 10ZM34 10L34 11L36 11L36 10ZM66 10L66 11L67 11L67 10ZM1 11L1 12L2 12L2 11ZM37 11L37 12L38 12L38 11ZM25 12L25 13L27 13L27 12ZM34 12L34 13L33 13L33 14L34 14L34 13L36 13L36 12ZM44 12L44 13L43 13L43 14L42 14L42 15L40 15L40 16L38 16L38 15L37 15L37 17L38 17L38 18L37 18L37 19L39 19L39 20L40 20L40 22L37 22L37 21L38 21L38 20L37 20L37 21L36 21L36 20L35 20L35 18L36 18L36 17L35 17L35 18L34 18L34 19L33 19L33 18L32 18L32 20L33 20L33 21L32 21L32 22L31 22L31 21L30 21L30 22L29 22L29 23L30 23L30 22L31 22L31 23L32 23L32 24L31 24L31 26L29 26L29 25L30 25L30 24L29 24L29 25L27 25L27 24L28 24L28 23L27 23L27 24L26 24L26 25L25 25L25 28L24 28L24 27L21 27L21 25L22 25L22 26L24 26L24 25L22 25L22 24L21 24L21 25L20 25L20 24L19 24L19 23L18 23L18 24L19 24L19 25L20 25L20 26L18 26L18 27L19 27L19 29L18 29L18 30L19 30L19 29L20 29L20 31L19 31L19 32L20 32L20 33L19 33L19 34L20 34L20 35L19 35L19 36L20 36L20 38L22 38L22 39L21 39L21 40L22 40L22 41L20 41L20 42L22 42L22 43L20 43L20 44L19 44L19 45L20 45L20 46L18 46L18 47L17 47L17 48L18 48L18 49L21 49L21 51L22 51L22 52L20 52L20 54L21 54L21 55L22 55L22 54L23 54L23 52L24 52L24 53L25 53L25 50L24 50L24 51L23 51L23 50L22 50L22 49L23 49L23 48L24 48L24 46L23 46L23 45L24 45L24 44L25 44L25 43L26 43L26 45L27 45L27 46L28 46L28 47L29 47L29 48L30 48L30 47L29 47L29 45L30 45L30 41L31 41L31 39L32 39L32 36L31 36L31 35L32 35L32 32L34 32L34 31L33 31L33 30L34 30L34 29L35 29L35 30L36 30L36 28L35 28L35 27L36 27L36 26L34 26L34 27L33 27L33 24L35 24L35 25L36 25L36 24L35 24L35 23L34 23L34 22L37 22L37 25L38 25L38 26L37 26L37 27L38 27L38 29L37 29L37 30L40 30L40 31L43 31L43 32L38 32L38 34L37 34L37 36L38 36L38 37L34 37L34 38L33 38L33 43L34 43L34 41L35 41L35 40L36 40L36 41L38 41L38 46L39 46L39 47L40 47L40 46L39 46L39 45L40 45L40 44L41 44L41 43L40 43L40 41L41 41L41 40L44 40L44 42L43 42L43 43L44 43L44 42L45 42L45 43L46 43L46 42L48 42L48 44L50 44L50 46L53 46L53 48L51 48L51 47L50 47L50 48L51 48L51 49L49 49L49 50L51 50L51 49L53 49L53 48L55 48L55 46L53 46L53 45L54 45L54 44L53 44L53 43L54 43L54 42L51 42L51 41L54 41L54 40L51 40L51 39L50 39L50 43L49 43L49 42L48 42L48 41L47 41L47 40L48 40L48 39L47 39L47 40L45 40L45 39L43 39L43 38L42 38L42 35L43 35L43 36L44 36L44 37L45 37L45 38L47 38L47 37L45 37L45 36L48 36L48 35L47 35L47 33L45 33L45 32L44 32L44 31L46 31L46 32L48 32L48 31L47 31L47 28L49 28L49 27L47 27L47 25L48 25L48 24L49 24L49 26L51 26L51 27L50 27L50 28L51 28L51 29L50 29L50 31L49 31L49 33L50 33L50 34L51 34L51 35L49 35L49 38L51 38L51 37L50 37L50 36L51 36L51 35L52 35L52 34L53 34L53 33L55 33L55 32L54 32L54 31L53 31L53 30L52 30L52 29L53 29L53 28L56 28L56 27L53 27L53 28L51 28L51 27L52 27L52 26L51 26L51 25L50 25L50 24L49 24L49 23L48 23L48 24L47 24L47 21L46 21L46 20L47 20L47 17L45 17L45 16L44 16L44 15L49 15L49 14L47 14L47 13L46 13L46 12ZM49 12L49 13L50 13L50 12ZM55 12L55 13L56 13L56 12ZM60 12L60 13L61 13L61 12ZM67 12L67 13L68 13L68 12ZM14 13L14 15L15 15L15 13ZM4 14L4 15L5 15L5 14ZM17 14L17 15L18 15L18 14ZM21 14L21 16L23 16L23 17L24 17L24 16L26 16L26 15L24 15L24 16L23 16L23 15L22 15L22 14ZM42 16L42 17L41 17L41 18L39 18L39 19L40 19L40 20L42 20L42 22L41 22L41 24L42 24L42 25L41 25L41 26L39 26L39 27L42 27L42 30L44 30L44 28L45 28L45 27L46 27L46 26L43 26L43 25L44 25L44 24L43 24L43 23L42 23L42 22L44 22L44 23L45 23L45 24L46 24L46 25L47 25L47 24L46 24L46 22L44 22L44 20L43 20L43 17L44 17L44 16ZM1 17L1 18L2 18L2 17ZM27 17L27 18L26 18L26 19L27 19L27 20L28 20L28 19L27 19L27 18L28 18L28 17ZM6 18L6 19L7 19L7 18ZM44 18L44 19L45 19L45 18ZM62 18L62 19L63 19L63 20L64 20L64 19L63 19L63 18ZM57 19L57 20L58 20L58 21L59 21L59 20L58 20L58 19ZM3 21L3 22L4 22L4 21ZM15 21L15 22L14 22L14 23L16 23L16 21ZM33 21L33 22L34 22L34 21ZM24 22L24 24L25 24L25 22ZM7 23L7 24L6 24L6 25L7 25L7 24L8 24L8 23ZM53 23L53 24L54 24L54 23ZM57 23L57 25L58 25L58 23ZM61 23L61 24L62 24L62 23ZM67 23L67 25L68 25L68 23ZM9 24L9 25L8 25L8 26L11 26L11 25L10 25L10 24ZM38 24L38 25L39 25L39 24ZM12 25L12 26L13 26L13 25ZM15 25L15 26L16 26L16 25ZM26 25L26 26L27 26L27 25ZM28 26L28 27L29 27L29 26ZM20 27L20 29L22 29L22 30L21 30L21 31L20 31L20 32L24 32L24 31L26 31L26 32L25 32L25 33L21 33L21 35L23 35L23 34L25 34L25 37L23 37L23 38L24 38L24 39L23 39L23 40L24 40L24 41L23 41L23 42L24 42L24 41L26 41L26 43L27 43L27 41L28 41L28 39L30 39L30 38L31 38L31 36L30 36L30 35L31 35L31 32L32 32L32 31L31 31L31 30L33 30L33 29L34 29L34 28L33 28L33 27L30 27L30 28L28 28L28 29L27 29L27 30L26 30L26 28L27 28L27 27L26 27L26 28L25 28L25 29L24 29L24 28L23 28L23 29L22 29L22 28L21 28L21 27ZM65 27L65 28L68 28L68 29L67 29L67 30L69 30L69 28L68 28L68 27ZM31 28L31 29L30 29L30 30L31 30L31 29L32 29L32 28ZM39 28L39 29L40 29L40 28ZM23 29L23 30L24 30L24 29ZM28 29L28 30L27 30L27 31L28 31L28 33L25 33L25 34L26 34L26 37L27 37L27 39L26 39L26 41L27 41L27 39L28 39L28 38L30 38L30 37L29 37L29 36L28 36L28 35L27 35L27 34L28 34L28 33L29 33L29 34L30 34L30 33L29 33L29 32L30 32L30 31L28 31L28 30L29 30L29 29ZM48 29L48 30L49 30L49 29ZM55 29L55 31L56 31L56 29ZM15 30L15 31L16 31L16 30ZM60 30L60 31L61 31L61 30ZM35 31L35 32L37 32L37 31ZM51 31L51 32L50 32L50 33L51 33L51 34L52 34L52 33L51 33L51 32L53 32L53 31ZM63 31L63 32L64 32L64 31ZM17 32L17 33L18 33L18 32ZM43 32L43 33L40 33L40 36L41 36L41 34L43 34L43 33L44 33L44 36L45 36L45 33L44 33L44 32ZM66 32L66 33L67 33L67 34L66 34L66 35L67 35L67 36L68 36L68 35L67 35L67 34L68 34L68 33L67 33L67 32ZM5 33L5 36L8 36L8 33ZM33 33L33 36L36 36L36 33ZM61 33L61 36L64 36L64 33ZM6 34L6 35L7 35L7 34ZM12 34L12 36L13 36L13 37L14 37L14 38L15 38L15 36L14 36L14 35L13 35L13 34ZM34 34L34 35L35 35L35 34ZM62 34L62 35L63 35L63 34ZM58 35L58 36L60 36L60 35ZM27 36L27 37L28 37L28 36ZM65 36L65 37L64 37L64 38L63 38L63 37L61 37L61 38L62 38L62 39L65 39L65 40L66 40L66 41L62 41L62 45L63 45L63 46L62 46L62 51L63 51L63 49L64 49L64 50L65 50L65 51L67 51L67 50L65 50L65 49L67 49L67 48L68 48L68 47L67 47L67 48L65 48L65 47L66 47L66 44L65 44L65 43L63 43L63 42L66 42L66 43L67 43L67 42L68 42L68 41L67 41L67 40L66 40L66 39L67 39L67 38L66 38L66 36ZM6 38L6 39L7 39L7 38ZM35 38L35 39L36 39L36 40L38 40L38 38L37 38L37 39L36 39L36 38ZM39 38L39 40L41 40L41 39L42 39L42 38ZM65 38L65 39L66 39L66 38ZM29 40L29 41L30 41L30 40ZM15 41L15 42L16 42L16 41ZM28 42L28 43L29 43L29 42ZM36 42L36 43L37 43L37 42ZM22 43L22 44L24 44L24 43ZM39 43L39 44L40 44L40 43ZM50 43L50 44L51 44L51 43ZM59 43L59 44L60 44L60 43ZM14 44L14 45L15 45L15 44ZM20 44L20 45L21 45L21 46L22 46L22 47L19 47L19 48L21 48L21 49L22 49L22 47L23 47L23 46L22 46L22 45L21 45L21 44ZM27 44L27 45L29 45L29 44ZM33 44L33 45L34 45L34 46L35 46L35 47L36 47L36 46L37 46L37 45L36 45L36 44ZM63 44L63 45L65 45L65 44ZM41 45L41 46L42 46L42 45ZM63 46L63 48L64 48L64 49L65 49L65 48L64 48L64 47L65 47L65 46ZM56 48L56 49L57 49L57 50L55 50L55 51L58 51L58 50L59 50L59 49L58 49L58 48ZM27 49L27 50L28 50L28 49ZM33 49L33 50L34 50L34 49ZM6 50L6 51L5 51L5 52L6 52L6 53L7 53L7 52L8 52L8 51L7 51L7 50ZM19 50L19 51L20 51L20 50ZM37 50L37 51L38 51L38 50ZM6 51L6 52L7 52L7 51ZM16 53L16 54L17 54L17 55L18 55L18 54L19 54L19 53ZM21 53L21 54L22 54L22 53ZM27 54L27 55L28 55L28 54ZM61 54L61 55L62 55L62 54ZM59 55L59 56L60 56L60 55ZM2 56L2 57L3 57L3 56ZM16 56L16 57L15 57L15 58L16 58L16 57L17 57L17 58L18 58L18 57L17 57L17 56ZM22 57L22 58L24 58L24 57ZM32 57L32 58L33 58L33 57ZM25 58L25 60L26 60L26 58ZM45 58L45 61L47 61L47 62L46 62L46 63L47 63L47 62L50 62L50 60L51 60L51 59L50 59L50 60L47 60L47 59L46 59L46 58ZM63 58L63 59L64 59L64 58ZM11 59L11 60L12 60L12 59ZM15 59L15 60L16 60L16 61L15 61L15 62L17 62L17 61L18 61L18 60L16 60L16 59ZM23 59L23 60L24 60L24 59ZM57 59L57 60L58 60L58 59ZM60 59L60 60L61 60L61 59ZM67 59L67 60L68 60L68 59ZM3 60L3 61L5 61L5 60ZM6 60L6 61L7 61L7 60ZM42 60L42 61L43 61L43 60ZM33 61L33 64L36 64L36 61ZM61 61L61 64L64 64L64 61ZM34 62L34 63L35 63L35 62ZM51 62L51 63L52 63L52 62ZM62 62L62 63L63 63L63 62ZM65 62L65 63L66 63L66 62ZM59 63L59 64L58 64L58 66L60 66L60 65L59 65L59 64L60 64L60 63ZM12 64L12 65L13 65L13 64ZM44 64L44 66L45 66L45 67L46 67L46 66L45 66L45 64ZM33 65L33 66L35 66L35 65ZM53 65L53 66L54 66L54 67L55 67L55 69L56 69L56 67L55 67L55 65ZM18 66L18 67L19 67L19 66ZM21 66L21 67L22 67L22 66ZM25 67L25 68L26 68L26 67ZM27 67L27 68L28 68L28 67ZM29 67L29 68L30 68L30 67ZM34 67L34 68L35 68L35 67ZM50 67L50 68L51 68L51 67ZM60 67L60 68L61 68L61 67ZM0 0L0 7L7 7L7 0ZM1 1L1 6L6 6L6 1ZM2 2L2 5L5 5L5 2ZM62 0L62 7L69 7L69 0ZM63 1L63 6L68 6L68 1ZM64 2L64 5L67 5L67 2ZM0 62L0 69L7 69L7 62ZM1 63L1 68L6 68L6 63ZM2 64L2 67L5 67L5 64Z" fill="#000000"/></g></g></svg>
