<?xml version="1.0" encoding="UTF-8"?>
<svg xmlns="http://www.w3.org/2000/svg" version="1.1" width="300" height="300" viewBox="0 0 300 300"><rect x="0" y="0" width="300" height="300" fill="#ffffff"/><g transform="scale(4.348)"><g transform="translate(0,0)"><path fill-rule="evenodd" d="M10 0L10 1L8 1L8 2L9 2L9 3L8 3L8 4L9 4L9 5L8 5L8 7L9 7L9 8L6 8L6 9L8 9L8 10L5 10L5 8L0 8L0 9L1 9L1 10L0 10L0 12L1 12L1 13L0 13L0 15L2 15L2 20L1 20L1 17L0 17L0 20L1 20L1 21L0 21L0 24L1 24L1 25L0 25L0 26L1 26L1 27L0 27L0 29L2 29L2 30L3 30L3 29L5 29L5 28L6 28L6 29L7 29L7 28L6 28L6 27L8 27L8 26L6 26L6 25L8 25L8 24L6 24L6 25L5 25L5 23L4 23L4 22L5 22L5 20L6 20L6 21L7 21L7 22L6 22L6 23L7 23L7 22L9 22L9 21L8 21L8 20L9 20L9 18L11 18L11 19L10 19L10 21L11 21L11 20L12 20L12 19L14 19L14 22L13 22L13 21L12 21L12 22L11 22L11 23L10 23L10 24L9 24L9 25L10 25L10 26L9 26L9 27L10 27L10 28L12 28L12 29L9 29L9 28L8 28L8 30L9 30L9 31L11 31L11 32L10 32L10 33L9 33L9 32L6 32L6 31L7 31L7 30L5 30L5 31L4 31L4 32L3 32L3 33L4 33L4 34L2 34L2 35L1 35L1 34L0 34L0 35L1 35L1 36L0 36L0 37L2 37L2 38L3 38L3 39L4 39L4 38L5 38L5 40L6 40L6 41L9 41L9 42L11 42L11 43L12 43L12 44L11 44L11 45L13 45L13 42L11 42L11 39L12 39L12 38L13 38L13 37L14 37L14 39L15 39L15 40L16 40L16 39L18 39L18 40L17 40L17 43L18 43L18 44L17 44L17 46L13 46L13 47L15 47L15 49L16 49L16 48L17 48L17 49L18 49L18 50L17 50L17 51L18 51L18 53L17 53L17 52L16 52L16 53L13 53L13 54L12 54L12 51L10 51L10 50L9 50L9 47L10 47L10 45L9 45L9 44L10 44L10 43L7 43L7 42L6 42L6 43L5 43L5 42L3 42L3 41L4 41L4 40L2 40L2 39L1 39L1 38L0 38L0 39L1 39L1 42L0 42L0 47L4 47L4 46L5 46L5 47L7 47L7 48L6 48L6 49L7 49L7 50L6 50L6 51L4 51L4 50L5 50L5 48L4 48L4 50L3 50L3 52L4 52L4 53L3 53L3 57L2 57L2 54L1 54L1 53L2 53L2 52L1 52L1 51L2 51L2 50L0 50L0 52L1 52L1 53L0 53L0 54L1 54L1 55L0 55L0 61L1 61L1 57L2 57L2 59L3 59L3 57L4 57L4 59L7 59L7 60L6 60L6 61L7 61L7 60L8 60L8 63L9 63L9 64L8 64L8 69L10 69L10 68L11 68L11 67L12 67L12 66L13 66L13 69L15 69L15 66L14 66L14 65L16 65L16 62L15 62L15 64L13 64L13 63L14 63L14 62L12 62L12 61L11 61L11 60L10 60L10 58L12 58L12 59L13 59L13 60L14 60L14 61L15 61L15 60L14 60L14 58L15 58L15 59L16 59L16 60L18 60L18 61L17 61L17 62L18 62L18 63L17 63L17 64L18 64L18 65L17 65L17 66L18 66L18 67L20 67L20 66L19 66L19 65L20 65L20 64L19 64L19 62L20 62L20 61L22 61L22 62L25 62L25 63L21 63L21 64L23 64L23 67L21 67L21 68L20 68L20 69L21 69L21 68L23 68L23 69L26 69L26 67L28 67L28 68L27 68L27 69L28 69L28 68L29 68L29 69L32 69L32 68L33 68L33 69L34 69L34 68L33 68L33 67L34 67L34 66L33 66L33 65L35 65L35 68L36 68L36 69L38 69L38 68L37 68L37 67L39 67L39 66L37 66L37 65L38 65L38 61L37 61L37 60L38 60L38 57L39 57L39 62L40 62L40 59L41 59L41 58L42 58L42 60L41 60L41 62L42 62L42 63L43 63L43 61L44 61L44 62L45 62L45 61L47 61L47 62L46 62L46 63L47 63L47 62L50 62L50 61L49 61L49 60L47 60L47 59L48 59L48 57L49 57L49 58L50 58L50 56L49 56L49 55L50 55L50 53L51 53L51 52L52 52L52 51L51 51L51 50L52 50L52 49L51 49L51 50L50 50L50 49L49 49L49 48L48 48L48 47L47 47L47 50L48 50L48 49L49 49L49 50L50 50L50 51L46 51L46 52L45 52L45 49L46 49L46 46L45 46L45 45L46 45L46 44L47 44L47 46L49 46L49 47L50 47L50 48L52 48L52 46L50 46L50 43L52 43L52 41L51 41L51 40L49 40L49 39L50 39L50 37L49 37L49 36L50 36L50 35L51 35L51 34L50 34L50 31L49 31L49 30L50 30L50 29L51 29L51 32L53 32L53 31L52 31L52 30L55 30L55 29L56 29L56 31L55 31L55 32L58 32L58 33L59 33L59 34L58 34L58 35L57 35L57 37L58 37L58 35L60 35L60 37L59 37L59 39L60 39L60 38L61 38L61 41L60 41L60 42L58 42L58 38L57 38L57 39L56 39L56 36L55 36L55 35L56 35L56 34L55 34L55 33L53 33L53 34L55 34L55 35L53 35L53 38L54 38L54 39L56 39L56 40L55 40L55 41L53 41L53 44L54 44L54 45L53 45L53 46L54 46L54 47L53 47L53 48L54 48L54 47L56 47L56 48L55 48L55 49L53 49L53 52L54 52L54 51L55 51L55 52L57 52L57 51L58 51L58 52L59 52L59 51L60 51L60 49L61 49L61 48L60 48L60 49L59 49L59 47L58 47L58 46L57 46L57 45L59 45L59 46L60 46L60 47L62 47L62 46L63 46L63 49L62 49L62 50L61 50L61 51L62 51L62 52L63 52L63 53L64 53L64 52L63 52L63 51L64 51L64 50L63 50L63 49L64 49L64 46L63 46L63 45L62 45L62 41L63 41L63 42L64 42L64 41L66 41L66 43L64 43L64 44L66 44L66 47L65 47L65 48L67 48L67 49L65 49L65 55L63 55L63 57L62 57L62 56L60 56L60 55L62 55L62 54L61 54L61 52L60 52L60 54L58 54L58 53L57 53L57 54L56 54L56 55L55 55L55 57L51 57L51 58L54 58L54 59L57 59L57 60L59 60L59 59L57 59L57 58L55 58L55 57L56 57L56 55L57 55L57 56L58 56L58 55L59 55L59 56L60 56L60 57L59 57L59 58L60 58L60 57L62 57L62 58L61 58L61 59L62 59L62 58L63 58L63 59L64 59L64 58L63 58L63 57L64 57L64 56L66 56L66 57L65 57L65 60L60 60L60 61L59 61L59 62L58 62L58 61L57 61L57 62L58 62L58 63L60 63L60 64L57 64L57 63L55 63L55 62L56 62L56 60L54 60L54 61L53 61L53 63L50 63L50 64L47 64L47 66L46 66L46 64L45 64L45 63L44 63L44 64L41 64L41 63L39 63L39 64L41 64L41 66L40 66L40 67L41 67L41 66L44 66L44 68L43 68L43 67L42 67L42 68L41 68L41 69L44 69L44 68L47 68L47 69L49 69L49 66L50 66L50 65L51 65L51 67L50 67L50 69L51 69L51 68L52 68L52 67L55 67L55 68L57 68L57 69L60 69L60 68L62 68L62 67L63 67L63 68L64 68L64 69L68 69L68 68L67 68L67 67L66 67L66 66L67 66L67 65L68 65L68 62L69 62L69 61L68 61L68 60L67 60L67 59L68 59L68 57L69 57L69 56L67 56L67 55L68 55L68 54L69 54L69 53L68 53L68 54L67 54L67 53L66 53L66 52L68 52L68 50L69 50L69 48L68 48L68 46L69 46L69 45L68 45L68 44L67 44L67 43L68 43L68 42L67 42L67 41L69 41L69 40L68 40L68 38L67 38L67 37L68 37L68 36L69 36L69 35L68 35L68 34L69 34L69 33L68 33L68 32L67 32L67 31L68 31L68 30L69 30L69 29L68 29L68 26L66 26L66 25L64 25L64 26L65 26L65 27L66 27L66 28L65 28L65 29L66 29L66 28L67 28L67 31L64 31L64 32L63 32L63 31L62 31L62 29L63 29L63 28L64 28L64 27L62 27L62 29L61 29L61 28L59 28L59 27L60 27L60 26L62 26L62 25L63 25L63 24L67 24L67 25L69 25L69 23L68 23L68 22L69 22L69 21L68 21L68 18L69 18L69 17L67 17L67 15L68 15L68 16L69 16L69 15L68 15L68 14L69 14L69 13L68 13L68 10L69 10L69 9L68 9L68 8L67 8L67 10L66 10L66 8L65 8L65 9L64 9L64 8L63 8L63 11L62 11L62 8L60 8L60 9L59 9L59 8L58 8L58 9L59 9L59 10L61 10L61 11L62 11L62 12L61 12L61 13L59 13L59 14L61 14L61 15L62 15L62 16L59 16L59 15L58 15L58 14L57 14L57 13L56 13L56 12L57 12L57 11L56 11L56 9L55 9L55 8L57 8L57 6L56 6L56 7L55 7L55 4L56 4L56 3L54 3L54 2L55 2L55 0L52 0L52 1L51 1L51 2L50 2L50 0L48 0L48 1L47 1L47 5L50 5L50 7L49 7L49 6L48 6L48 7L47 7L47 6L46 6L46 5L44 5L44 3L45 3L45 4L46 4L46 3L45 3L45 2L44 2L44 3L43 3L43 4L41 4L41 6L40 6L40 5L39 5L39 6L38 6L38 5L37 5L37 4L38 4L38 3L37 3L37 4L32 4L32 3L31 3L31 1L32 1L32 0L30 0L30 1L29 1L29 0L28 0L28 1L25 1L25 0L23 0L23 1L25 1L25 2L21 2L21 3L16 3L16 2L20 2L20 1L19 1L19 0L15 0L15 1L11 1L11 0ZM21 0L21 1L22 1L22 0ZM35 0L35 1L34 1L34 2L35 2L35 1L36 1L36 2L41 2L41 1L42 1L42 2L43 2L43 0L41 0L41 1L38 1L38 0L37 0L37 1L36 1L36 0ZM44 0L44 1L45 1L45 0ZM56 0L56 1L61 1L61 0ZM10 1L10 2L11 2L11 1ZM52 1L52 3L50 3L50 2L48 2L48 3L49 3L49 4L50 4L50 5L51 5L51 4L52 4L52 6L51 6L51 7L52 7L52 6L53 6L53 8L50 8L50 10L47 10L47 7L46 7L46 6L45 6L45 7L44 7L44 5L43 5L43 7L42 7L42 6L41 6L41 8L39 8L39 9L38 9L38 6L37 6L37 9L38 9L38 10L36 10L36 9L35 9L35 10L36 10L36 11L33 11L33 10L32 10L32 9L31 9L31 7L32 7L32 5L30 5L30 4L29 4L29 3L30 3L30 2L29 2L29 3L28 3L28 2L27 2L27 3L26 3L26 2L25 2L25 3L24 3L24 4L23 4L23 3L21 3L21 4L20 4L20 6L19 6L19 7L18 7L18 6L17 6L17 7L16 7L16 5L19 5L19 4L16 4L16 3L15 3L15 4L14 4L14 3L13 3L13 2L12 2L12 4L10 4L10 5L9 5L9 7L10 7L10 6L11 6L11 8L10 8L10 9L9 9L9 10L10 10L10 12L9 12L9 11L8 11L8 12L7 12L7 11L5 11L5 10L4 10L4 11L5 11L5 12L4 12L4 13L3 13L3 15L4 15L4 14L5 14L5 13L6 13L6 14L7 14L7 13L8 13L8 14L9 14L9 13L10 13L10 15L5 15L5 16L7 16L7 17L6 17L6 18L4 18L4 17L3 17L3 19L6 19L6 20L7 20L7 19L8 19L8 18L7 18L7 17L8 17L8 16L10 16L10 15L11 15L11 18L14 18L14 19L16 19L16 20L17 20L17 18L18 18L18 20L19 20L19 19L20 19L20 18L18 18L18 17L21 17L21 18L23 18L23 19L21 19L21 20L20 20L20 22L19 22L19 21L18 21L18 23L20 23L20 24L21 24L21 25L20 25L20 26L19 26L19 25L17 25L17 23L16 23L16 22L14 22L14 23L13 23L13 24L14 24L14 23L15 23L15 24L16 24L16 25L14 25L14 26L12 26L12 23L11 23L11 24L10 24L10 25L11 25L11 26L10 26L10 27L14 27L14 26L16 26L16 25L17 25L17 27L19 27L19 29L20 29L20 31L22 31L22 32L20 32L20 33L19 33L19 34L20 34L20 35L18 35L18 36L19 36L19 37L20 37L20 39L21 39L21 40L20 40L20 43L19 43L19 45L20 45L20 46L18 46L18 47L17 47L17 48L18 48L18 49L21 49L21 50L23 50L23 52L19 52L19 53L18 53L18 54L17 54L17 53L16 53L16 54L13 54L13 56L14 56L14 55L17 55L17 56L16 56L16 57L15 57L15 58L16 58L16 57L17 57L17 59L18 59L18 58L20 58L20 59L22 59L22 61L25 61L25 62L27 62L27 61L28 61L28 62L29 62L29 63L28 63L28 65L25 65L25 66L28 66L28 65L29 65L29 66L30 66L30 65L29 65L29 64L31 64L31 63L32 63L32 57L38 57L38 56L35 56L35 55L41 55L41 54L40 54L40 53L42 53L42 52L44 52L44 53L43 53L43 56L42 56L42 57L43 57L43 60L42 60L42 61L43 61L43 60L44 60L44 61L45 61L45 60L46 60L46 59L47 59L47 57L46 57L46 56L47 56L47 54L49 54L49 53L45 53L45 52L44 52L44 51L42 51L42 50L41 50L41 49L42 49L42 48L43 48L43 46L42 46L42 45L41 45L41 46L42 46L42 48L41 48L41 47L40 47L40 46L39 46L39 45L40 45L40 44L41 44L41 43L40 43L40 41L41 41L41 40L44 40L44 42L43 42L43 43L44 43L44 45L45 45L45 43L46 43L46 42L49 42L49 43L48 43L48 44L49 44L49 43L50 43L50 42L51 42L51 41L50 41L50 42L49 42L49 41L47 41L47 40L48 40L48 39L47 39L47 40L45 40L45 39L43 39L43 38L41 38L41 37L43 37L43 36L44 36L44 37L45 37L45 38L47 38L47 37L45 37L45 36L48 36L48 35L49 35L49 33L45 33L45 32L46 32L46 31L47 31L47 32L49 32L49 31L47 31L47 29L46 29L46 27L47 27L47 28L49 28L49 29L48 29L48 30L49 30L49 29L50 29L50 28L51 28L51 29L54 29L54 28L55 28L55 26L57 26L57 27L56 27L56 29L57 29L57 30L59 30L59 29L57 29L57 28L58 28L58 26L59 26L59 25L60 25L60 23L58 23L58 22L59 22L59 20L60 20L60 21L61 21L61 20L62 20L62 18L63 18L63 21L62 21L62 22L61 22L61 25L62 25L62 24L63 24L63 22L64 22L64 23L66 23L66 22L68 22L68 21L67 21L67 20L65 20L65 18L66 18L66 16L65 16L65 14L68 14L68 13L66 13L66 12L65 12L65 11L64 11L64 12L62 12L62 14L63 14L63 15L64 15L64 16L62 16L62 18L61 18L61 20L60 20L60 19L59 19L59 17L58 17L58 16L56 16L56 13L55 13L55 12L56 12L56 11L55 11L55 10L52 10L52 9L54 9L54 5L53 5L53 4L54 4L54 3L53 3L53 2L54 2L54 1ZM57 2L57 3L59 3L59 2ZM25 3L25 4L24 4L24 5L23 5L23 4L21 4L21 6L20 6L20 7L21 7L21 6L22 6L22 7L23 7L23 6L24 6L24 9L23 9L23 10L24 10L24 9L25 9L25 10L26 10L26 7L27 7L27 6L28 6L28 7L29 7L29 6L30 6L30 7L31 7L31 6L30 6L30 5L29 5L29 6L28 6L28 5L27 5L27 6L26 6L26 5L25 5L25 4L26 4L26 3ZM60 3L60 5L61 5L61 3ZM12 4L12 5L11 5L11 6L12 6L12 7L13 7L13 5L14 5L14 4ZM15 4L15 5L16 5L16 4ZM58 4L58 7L59 7L59 4ZM22 5L22 6L23 6L23 5ZM33 5L33 8L36 8L36 5ZM14 6L14 7L15 7L15 6ZM25 6L25 7L26 7L26 6ZM34 6L34 7L35 7L35 6ZM39 6L39 7L40 7L40 6ZM60 6L60 7L61 7L61 6ZM17 7L17 8L14 8L14 9L13 9L13 8L11 8L11 9L10 9L10 10L11 10L11 13L13 13L13 14L15 14L15 16L13 16L13 17L14 17L14 18L15 18L15 17L16 17L16 18L17 18L17 17L18 17L18 16L16 16L16 15L18 15L18 14L20 14L20 15L19 15L19 16L21 16L21 14L22 14L22 15L23 15L23 14L27 14L27 13L28 13L28 12L30 12L30 13L29 13L29 14L28 14L28 15L27 15L27 16L28 16L28 15L29 15L29 17L31 17L31 18L30 18L30 19L29 19L29 22L28 22L28 24L27 24L27 23L26 23L26 22L27 22L27 21L26 21L26 17L25 17L25 16L26 16L26 15L25 15L25 16L23 16L23 18L25 18L25 19L23 19L23 20L25 20L25 21L23 21L23 22L22 22L22 21L21 21L21 22L22 22L22 23L21 23L21 24L22 24L22 25L21 25L21 26L20 26L20 27L21 27L21 28L23 28L23 27L24 27L24 28L25 28L25 29L23 29L23 30L25 30L25 31L26 31L26 32L24 32L24 31L23 31L23 34L22 34L22 33L21 33L21 34L22 34L22 35L21 35L21 36L23 36L23 37L21 37L21 39L22 39L22 38L25 38L25 39L23 39L23 40L24 40L24 41L23 41L23 42L21 42L21 43L22 43L22 44L24 44L24 45L23 45L23 46L22 46L22 47L20 47L20 48L24 48L24 47L25 47L25 48L26 48L26 47L25 47L25 46L26 46L26 44L27 44L27 45L30 45L30 46L31 46L31 44L28 44L28 43L27 43L27 42L26 42L26 44L24 44L24 43L23 43L23 42L24 42L24 41L26 41L26 40L27 40L27 41L30 41L30 42L31 42L31 41L32 41L32 45L33 45L33 44L34 44L34 43L35 43L35 44L37 44L37 45L34 45L34 47L33 47L33 46L32 46L32 47L33 47L33 48L32 48L32 49L31 49L31 48L29 48L29 52L28 52L28 51L27 51L27 52L28 52L28 53L27 53L27 54L28 54L28 53L29 53L29 54L30 54L30 55L26 55L26 54L25 54L25 53L26 53L26 52L25 52L25 51L26 51L26 49L23 49L23 50L25 50L25 51L24 51L24 52L23 52L23 54L22 54L22 55L20 55L20 53L19 53L19 54L18 54L18 55L19 55L19 56L17 56L17 57L21 57L21 58L22 58L22 57L24 57L24 58L23 58L23 59L24 59L24 60L25 60L25 61L26 61L26 60L25 60L25 59L26 59L26 58L27 58L27 57L29 57L29 58L28 58L28 61L31 61L31 60L29 60L29 59L31 59L31 57L32 57L32 56L34 56L34 55L33 55L33 53L34 53L34 52L33 52L33 51L34 51L34 50L33 50L33 48L36 48L36 47L37 47L37 50L36 50L36 49L35 49L35 50L36 50L36 51L35 51L35 53L36 53L36 54L39 54L39 52L40 52L40 51L41 51L41 52L42 52L42 51L41 51L41 50L39 50L39 51L37 51L37 50L38 50L38 49L39 49L39 48L40 48L40 47L39 47L39 48L38 48L38 47L37 47L37 46L38 46L38 43L35 43L35 42L36 42L36 41L37 41L37 42L38 42L38 40L41 40L41 38L40 38L40 37L39 37L39 39L38 39L38 38L36 38L36 37L38 37L38 36L37 36L37 34L38 34L38 33L39 33L39 32L43 32L43 33L40 33L40 35L39 35L39 36L42 36L42 35L41 35L41 34L43 34L43 33L44 33L44 36L45 36L45 33L44 33L44 32L45 32L45 31L46 31L46 30L45 30L45 31L44 31L44 29L43 29L43 28L45 28L45 27L46 27L46 26L43 26L43 25L44 25L44 24L43 24L43 23L41 23L41 24L42 24L42 25L41 25L41 26L38 26L38 25L33 25L33 24L32 24L32 23L33 23L33 22L34 22L34 23L37 23L37 24L39 24L39 23L40 23L40 22L44 22L44 23L45 23L45 24L46 24L46 25L47 25L47 27L49 27L49 26L50 26L50 25L49 25L49 24L50 24L50 23L51 23L51 24L53 24L53 25L51 25L51 27L52 27L52 28L53 28L53 26L55 26L55 25L56 25L56 23L57 23L57 22L58 22L58 20L57 20L57 19L56 19L56 18L55 18L55 17L56 17L56 16L55 16L55 15L53 15L53 14L55 14L55 13L51 13L51 12L54 12L54 11L52 11L52 10L50 10L50 11L49 11L49 12L46 12L46 11L45 11L45 13L47 13L47 14L49 14L49 15L48 15L48 16L45 16L45 15L46 15L46 14L44 14L44 11L43 11L43 13L42 13L42 14L41 14L41 12L42 12L42 10L45 10L45 9L46 9L46 7L45 7L45 9L44 9L44 8L43 8L43 9L41 9L41 12L40 12L40 10L38 10L38 11L39 11L39 12L38 12L38 13L36 13L36 12L33 12L33 14L34 14L34 13L36 13L36 14L35 14L35 19L37 19L37 20L38 20L38 21L36 21L36 20L33 20L33 22L32 22L32 23L31 23L31 22L30 22L30 21L32 21L32 19L33 19L33 18L34 18L34 17L33 17L33 16L34 16L34 15L33 15L33 16L32 16L32 15L30 15L30 13L32 13L32 12L31 12L31 11L32 11L32 10L31 10L31 9L30 9L30 8L28 8L28 9L27 9L27 11L28 11L28 12L27 12L27 13L26 13L26 11L25 11L25 12L24 12L24 11L22 11L22 10L20 10L20 8L18 8L18 7ZM21 8L21 9L22 9L22 8ZM2 9L2 10L1 10L1 11L3 11L3 9ZM11 9L11 10L12 10L12 11L13 11L13 12L14 12L14 13L15 13L15 14L16 14L16 13L15 13L15 11L16 11L16 12L19 12L19 13L20 13L20 14L21 14L21 13L22 13L22 14L23 14L23 12L21 12L21 11L19 11L19 9L17 9L17 10L14 10L14 11L13 11L13 10L12 10L12 9ZM28 9L28 10L29 10L29 11L30 11L30 9ZM58 11L58 12L60 12L60 11ZM6 12L6 13L7 13L7 12ZM39 12L39 13L38 13L38 14L37 14L37 15L36 15L36 16L38 16L38 18L37 18L37 17L36 17L36 18L37 18L37 19L39 19L39 20L40 20L40 21L39 21L39 22L37 22L37 23L39 23L39 22L40 22L40 21L41 21L41 20L40 20L40 19L39 19L39 18L41 18L41 17L42 17L42 16L44 16L44 17L43 17L43 20L44 20L44 22L46 22L46 24L47 24L47 25L48 25L48 24L49 24L49 23L50 23L50 22L53 22L53 23L54 23L54 22L53 22L53 21L55 21L55 22L56 22L56 21L57 21L57 20L55 20L55 19L54 19L54 20L52 20L52 18L53 18L53 16L52 16L52 15L49 15L49 16L51 16L51 17L50 17L50 19L49 19L49 21L46 21L46 20L47 20L47 19L48 19L48 18L47 18L47 17L45 17L45 16L44 16L44 14L42 14L42 15L40 15L40 14L39 14L39 13L40 13L40 12ZM49 12L49 14L51 14L51 13L50 13L50 12ZM63 13L63 14L65 14L65 13ZM11 14L11 15L12 15L12 14ZM38 15L38 16L40 16L40 15ZM54 16L54 17L55 17L55 16ZM27 17L27 18L28 18L28 17ZM51 17L51 18L52 18L52 17ZM63 17L63 18L65 18L65 17ZM6 18L6 19L7 19L7 18ZM44 18L44 19L47 19L47 18ZM27 19L27 20L28 20L28 19ZM50 19L50 20L51 20L51 21L52 21L52 20L51 20L51 19ZM2 20L2 21L1 21L1 24L3 24L3 22L2 22L2 21L3 21L3 20ZM25 21L25 22L26 22L26 21ZM34 21L34 22L35 22L35 21ZM49 21L49 22L47 22L47 24L48 24L48 23L49 23L49 22L50 22L50 21ZM29 22L29 23L30 23L30 22ZM23 23L23 24L24 24L24 23ZM67 23L67 24L68 24L68 23ZM26 24L26 26L25 26L25 27L26 27L26 30L27 30L27 32L28 32L28 33L25 33L25 34L23 34L23 35L24 35L24 37L27 37L27 38L26 38L26 39L27 39L27 40L30 40L30 41L31 41L31 40L34 40L34 41L33 41L33 42L34 42L34 41L36 41L36 40L34 40L34 39L36 39L36 38L35 38L35 37L34 37L34 39L32 39L32 38L33 38L33 37L32 37L32 38L30 38L30 37L29 37L29 36L28 36L28 35L26 35L26 34L28 34L28 33L29 33L29 32L31 32L31 33L30 33L30 34L31 34L31 35L30 35L30 36L31 36L31 35L32 35L32 32L34 32L34 31L33 31L33 30L34 30L34 29L35 29L35 30L36 30L36 28L35 28L35 27L36 27L36 26L35 26L35 27L33 27L33 25L32 25L32 24L31 24L31 25L32 25L32 26L31 26L31 27L33 27L33 28L34 28L34 29L33 29L33 30L31 30L31 31L30 31L30 30L29 30L29 29L28 29L28 28L27 28L27 27L28 27L28 26L29 26L29 28L30 28L30 26L29 26L29 25L30 25L30 24L28 24L28 25L27 25L27 24ZM22 25L22 26L24 26L24 25ZM4 26L4 27L3 27L3 28L4 28L4 27L6 27L6 26ZM26 26L26 27L27 27L27 26ZM15 27L15 28L16 28L16 27ZM38 27L38 29L37 29L37 30L40 30L40 31L43 31L43 32L44 32L44 31L43 31L43 30L42 30L42 27ZM13 28L13 29L12 29L12 31L13 31L13 35L12 35L12 36L14 36L14 34L17 34L17 33L18 33L18 32L17 32L17 31L18 31L18 30L17 30L17 29L15 29L15 30L16 30L16 31L13 31L13 29L14 29L14 28ZM31 28L31 29L32 29L32 28ZM39 28L39 29L40 29L40 28ZM21 29L21 30L22 30L22 29ZM27 29L27 30L28 30L28 32L29 32L29 30L28 30L28 29ZM60 30L60 31L61 31L61 30ZM0 31L0 33L2 33L2 31ZM31 31L31 32L32 32L32 31ZM36 31L36 32L37 32L37 31ZM58 31L58 32L59 32L59 31ZM11 32L11 34L9 34L9 36L10 36L10 35L11 35L11 34L12 34L12 32ZM16 32L16 33L17 33L17 32ZM66 32L66 34L65 34L65 35L66 35L66 34L68 34L68 33L67 33L67 32ZM5 33L5 36L8 36L8 33ZM33 33L33 36L36 36L36 33ZM61 33L61 36L64 36L64 33ZM6 34L6 35L7 35L7 34ZM34 34L34 35L35 35L35 34ZM62 34L62 35L63 35L63 34ZM3 35L3 36L2 36L2 37L3 37L3 36L4 36L4 35ZM16 35L16 36L15 36L15 39L16 39L16 38L17 38L17 35ZM67 35L67 36L68 36L68 35ZM27 36L27 37L28 37L28 36ZM54 36L54 37L55 37L55 36ZM65 36L65 37L64 37L64 38L63 38L63 37L62 37L62 39L65 39L65 38L66 38L66 36ZM5 37L5 38L9 38L9 37ZM11 37L11 38L12 38L12 37ZM51 37L51 38L52 38L52 37ZM18 38L18 39L19 39L19 38ZM27 38L27 39L28 39L28 38ZM29 38L29 39L30 39L30 38ZM6 39L6 40L8 40L8 39ZM9 39L9 41L10 41L10 39ZM37 39L37 40L38 40L38 39ZM13 40L13 41L14 41L14 40ZM21 40L21 41L22 41L22 40ZM56 40L56 41L55 41L55 42L56 42L56 43L55 43L55 44L56 44L56 45L55 45L55 46L56 46L56 45L57 45L57 44L56 44L56 43L58 43L58 42L57 42L57 40ZM63 40L63 41L64 41L64 40ZM15 41L15 42L14 42L14 43L15 43L15 44L14 44L14 45L16 45L16 43L15 43L15 42L16 42L16 41ZM18 41L18 42L19 42L19 41ZM1 42L1 44L2 44L2 46L3 46L3 44L4 44L4 43L3 43L3 42ZM44 42L44 43L45 43L45 42ZM2 43L2 44L3 44L3 43ZM6 43L6 44L5 44L5 45L6 45L6 46L7 46L7 45L8 45L8 47L9 47L9 45L8 45L8 44L7 44L7 43ZM39 43L39 44L40 44L40 43ZM60 43L60 44L59 44L59 45L61 45L61 46L62 46L62 45L61 45L61 43ZM6 44L6 45L7 45L7 44ZM20 44L20 45L21 45L21 44ZM11 46L11 47L12 47L12 46ZM23 46L23 47L24 47L24 46ZM27 46L27 48L28 48L28 47L29 47L29 46ZM35 46L35 47L36 47L36 46ZM44 47L44 49L43 49L43 50L44 50L44 49L45 49L45 47ZM1 48L1 49L3 49L3 48ZM7 48L7 49L8 49L8 48ZM10 48L10 49L11 49L11 48ZM12 48L12 49L14 49L14 48ZM56 48L56 50L55 50L55 51L57 51L57 50L58 50L58 51L59 51L59 49L57 49L57 48ZM27 49L27 50L28 50L28 49ZM8 50L8 51L6 51L6 52L5 52L5 53L6 53L6 54L7 54L7 55L6 55L6 56L4 56L4 57L5 57L5 58L7 58L7 57L8 57L8 56L9 56L9 58L10 58L10 57L12 57L12 58L14 58L14 57L12 57L12 56L9 56L9 55L10 55L10 53L11 53L11 52L9 52L9 50ZM14 50L14 51L13 51L13 52L14 52L14 51L16 51L16 50ZM19 50L19 51L20 51L20 50ZM30 50L30 52L31 52L31 56L32 56L32 52L31 52L31 51L32 51L32 50ZM62 50L62 51L63 51L63 50ZM50 51L50 52L51 52L51 51ZM6 52L6 53L7 53L7 54L8 54L8 55L7 55L7 56L6 56L6 57L7 57L7 56L8 56L8 55L9 55L9 54L8 54L8 53L9 53L9 52L8 52L8 53L7 53L7 52ZM36 52L36 53L38 53L38 52ZM44 53L44 56L43 56L43 57L44 57L44 56L46 56L46 54L45 54L45 53ZM52 53L52 56L53 56L53 54L55 54L55 53ZM23 54L23 55L25 55L25 57L27 57L27 56L26 56L26 55L25 55L25 54ZM57 54L57 55L58 55L58 54ZM21 56L21 57L22 57L22 56ZM29 56L29 57L30 57L30 56ZM39 56L39 57L41 57L41 56ZM66 57L66 59L67 59L67 57ZM34 58L34 60L35 60L35 58ZM45 58L45 59L46 59L46 58ZM50 59L50 60L51 60L51 61L52 61L52 60L53 60L53 59L52 59L52 60L51 60L51 59ZM3 60L3 61L5 61L5 60ZM65 60L65 61L66 61L66 60ZM18 61L18 62L19 62L19 61ZM33 61L33 64L36 64L36 61ZM61 61L61 64L64 64L64 61ZM67 61L67 62L68 62L68 61ZM11 62L11 63L12 63L12 62ZM34 62L34 63L35 63L35 62ZM62 62L62 63L63 63L63 62ZM65 62L65 63L66 63L66 62ZM25 63L25 64L26 64L26 63ZM53 63L53 64L51 64L51 65L55 65L55 67L57 67L57 66L60 66L60 65L57 65L57 64L54 64L54 63ZM9 64L9 65L10 65L10 66L9 66L9 67L10 67L10 66L11 66L11 65L13 65L13 64L11 64L11 65L10 65L10 64ZM44 64L44 66L45 66L45 67L46 67L46 66L45 66L45 64ZM65 64L65 65L63 65L63 67L65 67L65 65L67 65L67 64ZM21 65L21 66L22 66L22 65ZM31 65L31 66L32 66L32 65ZM48 65L48 66L49 66L49 65ZM56 65L56 66L57 66L57 65ZM61 66L61 67L62 67L62 66ZM23 67L23 68L24 68L24 67ZM30 67L30 68L32 68L32 67ZM47 67L47 68L48 68L48 67ZM58 67L58 68L60 68L60 67ZM16 68L16 69L17 69L17 68ZM18 68L18 69L19 69L19 68ZM53 68L53 69L54 69L54 68ZM0 0L0 7L7 7L7 0ZM1 1L1 6L6 6L6 1ZM2 2L2 5L5 5L5 2ZM62 0L62 7L69 7L69 0ZM63 1L63 6L68 6L68 1ZM64 2L64 5L67 5L67 2ZM0 62L0 69L7 69L7 62ZM1 63L1 68L6 68L6 63ZM2 64L2 67L5 67L5 64Z" fill="#000000"/></g></g></svg>
