<?xml version="1.0" encoding="UTF-8"?>
<svg xmlns="http://www.w3.org/2000/svg" version="1.1" width="300" height="300" viewBox="0 0 300 300"><rect x="0" y="0" width="300" height="300" fill="#ffffff"/><g transform="scale(4.348)"><g transform="translate(0,0)"><path fill-rule="evenodd" d="M9 0L9 1L8 1L8 2L9 2L9 3L8 3L8 4L9 4L9 5L8 5L8 7L9 7L9 8L6 8L6 9L5 9L5 8L0 8L0 9L2 9L2 12L0 12L0 13L2 13L2 14L0 14L0 16L1 16L1 17L0 17L0 21L1 21L1 22L2 22L2 23L0 23L0 24L1 24L1 27L0 27L0 30L1 30L1 31L0 31L0 34L1 34L1 36L0 36L0 38L1 38L1 39L0 39L0 40L1 40L1 41L0 41L0 46L1 46L1 47L0 47L0 50L1 50L1 51L0 51L0 53L2 53L2 54L3 54L3 53L4 53L4 52L5 52L5 54L6 54L6 55L9 55L9 56L8 56L8 58L9 58L9 59L7 59L7 58L5 58L5 57L7 57L7 56L4 56L4 55L2 55L2 57L0 57L0 61L1 61L1 58L2 58L2 59L3 59L3 58L4 58L4 59L7 59L7 60L6 60L6 61L8 61L8 63L9 63L9 62L11 62L11 61L13 61L13 62L12 62L12 63L13 63L13 62L14 62L14 61L15 61L15 60L14 60L14 59L16 59L16 60L17 60L17 61L19 61L19 62L18 62L18 63L16 63L16 62L15 62L15 64L14 64L14 65L15 65L15 64L18 64L18 65L17 65L17 66L16 66L16 67L15 67L15 68L14 68L14 69L15 69L15 68L16 68L16 67L17 67L17 69L21 69L21 68L19 68L19 67L20 67L20 66L19 66L19 65L20 65L20 63L21 63L21 64L23 64L23 63L24 63L24 65L23 65L23 67L24 67L24 68L25 68L25 69L26 69L26 68L25 68L25 67L26 67L26 66L25 66L25 65L28 65L28 66L27 66L27 67L28 67L28 68L27 68L27 69L28 69L28 68L29 68L29 69L32 69L32 68L31 68L31 67L33 67L33 65L36 65L36 66L34 66L34 67L35 67L35 68L36 68L36 69L38 69L38 68L37 68L37 67L39 67L39 66L38 66L38 64L37 64L37 63L38 63L38 59L37 59L37 58L38 58L38 57L39 57L39 62L40 62L40 59L41 59L41 58L42 58L42 60L41 60L41 62L42 62L42 63L43 63L43 62L46 62L46 63L47 63L47 62L50 62L50 60L53 60L53 64L54 64L54 62L55 62L55 61L56 61L56 62L58 62L58 64L57 64L57 63L55 63L55 64L57 64L57 65L52 65L52 66L51 66L51 67L50 67L50 65L51 65L51 63L52 63L52 61L51 61L51 63L50 63L50 65L49 65L49 63L48 63L48 64L47 64L47 65L49 65L49 66L46 66L46 64L45 64L45 63L44 63L44 64L41 64L41 63L39 63L39 64L41 64L41 66L40 66L40 67L41 67L41 66L44 66L44 68L43 68L43 67L42 67L42 69L44 69L44 68L47 68L47 69L49 69L49 67L50 67L50 68L52 68L52 66L57 66L57 65L58 65L58 64L59 64L59 65L60 65L60 66L59 66L59 67L60 67L60 68L62 68L62 67L61 67L61 66L62 66L62 65L65 65L65 68L63 68L63 69L68 69L68 68L67 68L67 65L65 65L65 64L67 64L67 63L68 63L68 64L69 64L69 63L68 63L68 61L66 61L66 60L67 60L67 59L68 59L68 60L69 60L69 59L68 59L68 58L67 58L67 59L65 59L65 58L66 58L66 56L67 56L67 57L68 57L68 56L69 56L69 55L68 55L68 54L69 54L69 53L68 53L68 54L65 54L65 55L63 55L63 56L65 56L65 58L63 58L63 57L62 57L62 56L61 56L61 55L62 55L62 54L63 54L63 53L64 53L64 52L63 52L63 51L64 51L64 50L63 50L63 51L62 51L62 50L57 50L57 49L58 49L58 48L60 48L60 47L61 47L61 49L62 49L62 46L63 46L63 45L64 45L64 44L66 44L66 47L65 47L65 46L64 46L64 47L65 47L65 48L67 48L67 50L66 50L66 52L65 52L65 53L66 53L66 52L68 52L68 50L69 50L69 49L68 49L68 48L69 48L69 47L68 47L68 46L69 46L69 44L68 44L68 41L69 41L69 39L68 39L68 36L69 36L69 35L68 35L68 34L69 34L69 33L68 33L68 32L67 32L67 31L68 31L68 30L67 30L67 31L64 31L64 32L63 32L63 30L65 30L65 29L66 29L66 28L67 28L67 29L68 29L68 28L69 28L69 27L68 27L68 26L69 26L69 23L68 23L68 22L69 22L69 21L68 21L68 18L69 18L69 16L68 16L68 14L69 14L69 13L68 13L68 14L65 14L65 13L67 13L67 12L69 12L69 11L68 11L68 10L69 10L69 9L68 9L68 8L67 8L67 11L65 11L65 13L63 13L63 11L64 11L64 10L65 10L65 9L66 9L66 8L65 8L65 9L64 9L64 8L63 8L63 11L62 11L62 8L61 8L61 9L59 9L59 8L58 8L58 7L59 7L59 4L58 4L58 5L57 5L57 6L56 6L56 3L59 3L59 2L58 2L58 1L61 1L61 0L58 0L58 1L57 1L57 0L53 0L53 1L54 1L54 3L55 3L55 4L52 4L52 5L50 5L50 2L51 2L51 3L52 3L52 1L50 1L50 0L49 0L49 1L50 1L50 2L48 2L48 3L47 3L47 4L49 4L49 5L48 5L48 7L47 7L47 6L46 6L46 5L44 5L44 3L45 3L45 4L46 4L46 3L45 3L45 2L47 2L47 1L45 1L45 0L44 0L44 1L45 1L45 2L44 2L44 3L43 3L43 0L41 0L41 1L38 1L38 0L37 0L37 1L36 1L36 0L34 0L34 2L35 2L35 4L33 4L33 1L32 1L32 0L31 0L31 1L32 1L32 2L30 2L30 1L29 1L29 0L28 0L28 1L27 1L27 2L26 2L26 3L27 3L27 2L28 2L28 3L29 3L29 4L30 4L30 5L29 5L29 6L28 6L28 8L27 8L27 4L22 4L22 3L17 3L17 2L16 2L16 0L13 0L13 1L14 1L14 2L11 2L11 3L10 3L10 2L9 2L9 1L10 1L10 0ZM11 0L11 1L12 1L12 0ZM17 0L17 1L18 1L18 2L20 2L20 1L19 1L19 0ZM23 0L23 1L24 1L24 2L25 2L25 0ZM21 1L21 2L22 2L22 1ZM35 1L35 2L36 2L36 1ZM41 1L41 2L42 2L42 1ZM14 2L14 3L16 3L16 6L15 6L15 8L16 8L16 6L17 6L17 9L15 9L15 10L16 10L16 11L13 11L13 12L12 12L12 10L11 10L11 11L10 11L10 10L9 10L9 9L11 9L11 8L9 8L9 9L8 9L8 10L7 10L7 9L6 9L6 10L7 10L7 11L5 11L5 9L4 9L4 10L3 10L3 12L5 12L5 13L4 13L4 16L5 16L5 15L6 15L6 16L7 16L7 17L6 17L6 18L7 18L7 17L9 17L9 19L8 19L8 20L7 20L7 19L6 19L6 20L7 20L7 21L6 21L6 22L10 22L10 20L11 20L11 22L13 22L13 23L11 23L11 24L10 24L10 23L9 23L9 24L10 24L10 25L11 25L11 28L9 28L9 29L8 29L8 27L9 27L9 25L8 25L8 24L7 24L7 23L5 23L5 24L7 24L7 25L3 25L3 24L4 24L4 23L3 23L3 24L2 24L2 27L3 27L3 28L4 28L4 30L2 30L2 28L1 28L1 30L2 30L2 32L1 32L1 34L2 34L2 35L3 35L3 36L1 36L1 37L2 37L2 38L3 38L3 36L4 36L4 35L3 35L3 34L4 34L4 33L3 33L3 32L4 32L4 31L5 31L5 32L7 32L7 31L9 31L9 30L10 30L10 31L12 31L12 32L11 32L11 34L12 34L12 35L11 35L11 37L10 37L10 34L9 34L9 37L10 37L10 38L11 38L11 37L12 37L12 35L15 35L15 33L16 33L16 36L15 36L15 39L16 39L16 40L14 40L14 39L13 39L13 42L12 42L12 43L11 43L11 44L10 44L10 46L9 46L9 47L8 47L8 46L7 46L7 45L8 45L8 44L9 44L9 43L10 43L10 42L11 42L11 41L12 41L12 40L11 40L11 39L10 39L10 40L9 40L9 41L10 41L10 42L8 42L8 41L6 41L6 40L8 40L8 39L9 39L9 38L8 38L8 37L6 37L6 38L4 38L4 39L3 39L3 40L4 40L4 43L3 43L3 42L2 42L2 43L3 43L3 44L5 44L5 46L4 46L4 47L3 47L3 45L2 45L2 48L1 48L1 50L2 50L2 53L3 53L3 51L5 51L5 52L8 52L8 54L10 54L10 53L11 53L11 54L12 54L12 53L11 53L11 51L12 51L12 52L13 52L13 53L15 53L15 54L19 54L19 53L20 53L20 54L21 54L21 55L20 55L20 56L21 56L21 57L19 57L19 58L20 58L20 59L17 59L17 60L19 60L19 61L20 61L20 62L19 62L19 63L20 63L20 62L21 62L21 61L22 61L22 63L23 63L23 60L24 60L24 61L25 61L25 62L24 62L24 63L25 63L25 64L26 64L26 63L25 63L25 62L26 62L26 61L27 61L27 64L28 64L28 65L29 65L29 66L30 66L30 67L31 67L31 66L32 66L32 65L29 65L29 64L30 64L30 63L32 63L32 56L31 56L31 58L30 58L30 59L31 59L31 62L30 62L30 61L29 61L29 60L28 60L28 61L27 61L27 59L29 59L29 57L30 57L30 56L29 56L29 57L27 57L27 56L26 56L26 55L27 55L27 54L29 54L29 55L30 55L30 54L31 54L31 55L32 55L32 52L34 52L34 53L33 53L33 54L35 54L35 55L34 55L34 56L33 56L33 57L36 57L36 56L35 56L35 55L36 55L36 54L37 54L37 55L41 55L41 54L42 54L42 55L43 55L43 56L42 56L42 57L43 57L43 60L42 60L42 61L43 61L43 60L44 60L44 61L46 61L46 62L47 62L47 60L50 60L50 59L52 59L52 58L53 58L53 57L54 57L54 56L56 56L56 58L55 58L55 60L56 60L56 61L58 61L58 62L59 62L59 63L60 63L60 60L61 60L61 57L60 57L60 56L59 56L59 54L60 54L60 55L61 55L61 54L62 54L62 53L63 53L63 52L62 52L62 51L57 51L57 50L56 50L56 49L57 49L57 48L58 48L58 47L60 47L60 46L61 46L61 45L63 45L63 43L65 43L65 42L66 42L66 41L68 41L68 39L67 39L67 40L65 40L65 41L64 41L64 40L63 40L63 39L66 39L66 38L65 38L65 37L64 37L64 38L62 38L62 37L61 37L61 38L62 38L62 39L60 39L60 40L59 40L59 39L57 39L57 40L55 40L55 42L53 42L53 41L54 41L54 40L51 40L51 41L50 41L50 38L51 38L51 37L55 37L55 35L52 35L52 36L51 36L51 33L52 33L52 34L53 34L53 33L55 33L55 34L59 34L59 35L56 35L56 38L59 38L59 37L60 37L60 34L59 34L59 33L57 33L57 32L56 32L56 33L55 33L55 32L54 32L54 31L55 31L55 30L52 30L52 29L53 29L53 28L54 28L54 29L55 29L55 28L56 28L56 29L57 29L57 30L56 30L56 31L59 31L59 32L62 32L62 30L63 30L63 29L65 29L65 28L66 28L66 27L64 27L64 28L63 28L63 29L62 29L62 27L61 27L61 26L60 26L60 27L61 27L61 29L62 29L62 30L59 30L59 29L60 29L60 28L57 28L57 27L58 27L58 26L59 26L59 25L58 25L58 24L60 24L60 23L61 23L61 22L59 22L59 20L60 20L60 21L62 21L62 24L61 24L61 25L62 25L62 26L64 26L64 25L65 25L65 26L67 26L67 25L68 25L68 23L67 23L67 22L68 22L68 21L67 21L67 20L66 20L66 21L65 21L65 19L67 19L67 18L66 18L66 16L65 16L65 15L64 15L64 14L63 14L63 13L62 13L62 11L61 11L61 10L59 10L59 9L58 9L58 8L56 8L56 9L55 9L55 11L54 11L54 10L52 10L52 9L53 9L53 8L54 8L54 6L53 6L53 5L52 5L52 6L51 6L51 7L50 7L50 6L49 6L49 7L50 7L50 8L49 8L49 9L50 9L50 10L47 10L47 7L46 7L46 6L45 6L45 7L44 7L44 5L43 5L43 7L42 7L42 6L41 6L41 5L40 5L40 4L43 4L43 3L39 3L39 2L37 2L37 3L38 3L38 4L37 4L37 5L38 5L38 6L37 6L37 7L38 7L38 6L39 6L39 7L40 7L40 6L41 6L41 8L38 8L38 10L36 10L36 9L35 9L35 10L34 10L34 9L32 9L32 11L31 11L31 12L32 12L32 13L31 13L31 14L30 14L30 13L29 13L29 12L30 12L30 11L29 11L29 10L30 10L30 9L31 9L31 7L32 7L32 5L30 5L30 6L29 6L29 8L28 8L28 9L27 9L27 8L26 8L26 9L24 9L24 6L25 6L25 7L26 7L26 5L22 5L22 4L17 4L17 3L16 3L16 2ZM11 3L11 4L13 4L13 5L12 5L12 6L11 6L11 7L12 7L12 6L13 6L13 8L12 8L12 9L13 9L13 10L14 10L14 6L13 6L13 5L14 5L14 4L13 4L13 3ZM31 3L31 4L32 4L32 3ZM60 3L60 5L61 5L61 3ZM17 5L17 6L18 6L18 7L19 7L19 8L18 8L18 9L17 9L17 10L18 10L18 11L20 11L20 8L21 8L21 9L22 9L22 8L21 8L21 6L22 6L22 7L23 7L23 6L22 6L22 5L21 5L21 6L20 6L20 5ZM33 5L33 8L36 8L36 5ZM9 6L9 7L10 7L10 6ZM19 6L19 7L20 7L20 6ZM30 6L30 7L31 7L31 6ZM34 6L34 7L35 7L35 6ZM52 6L52 7L51 7L51 8L52 8L52 7L53 7L53 6ZM55 6L55 7L56 7L56 6ZM57 6L57 7L58 7L58 6ZM60 6L60 7L61 7L61 6ZM45 7L45 9L44 9L44 8L43 8L43 9L41 9L41 12L40 12L40 11L39 11L39 10L38 10L38 11L39 11L39 12L40 12L40 13L39 13L39 14L37 14L37 13L38 13L38 12L37 12L37 13L36 13L36 12L34 12L34 11L33 11L33 12L34 12L34 13L33 13L33 14L32 14L32 15L30 15L30 14L27 14L27 13L26 13L26 11L27 11L27 12L29 12L29 11L28 11L28 10L27 10L27 9L26 9L26 11L25 11L25 12L24 12L24 11L23 11L23 10L24 10L24 9L23 9L23 10L21 10L21 11L22 11L22 12L23 12L23 13L22 13L22 14L23 14L23 15L22 15L22 16L23 16L23 17L18 17L18 16L17 16L17 15L18 15L18 14L19 14L19 13L21 13L21 12L16 12L16 13L18 13L18 14L17 14L17 15L16 15L16 14L15 14L15 13L14 13L14 12L13 12L13 13L14 13L14 14L15 14L15 15L16 15L16 16L17 16L17 17L18 17L18 18L15 18L15 17L14 17L14 16L12 16L12 14L11 14L11 13L9 13L9 12L10 12L10 11L9 11L9 10L8 10L8 11L7 11L7 12L6 12L6 13L5 13L5 14L6 14L6 15L8 15L8 16L9 16L9 15L10 15L10 16L12 16L12 18L11 18L11 17L10 17L10 18L11 18L11 20L12 20L12 21L13 21L13 19L14 19L14 18L15 18L15 19L18 19L18 20L16 20L16 21L15 21L15 20L14 20L14 21L15 21L15 23L16 23L16 24L15 24L15 25L16 25L16 26L14 26L14 27L13 27L13 26L12 26L12 27L13 27L13 28L14 28L14 29L13 29L13 32L12 32L12 33L13 33L13 34L14 34L14 33L15 33L15 32L14 32L14 31L15 31L15 30L14 30L14 29L15 29L15 28L14 28L14 27L16 27L16 28L17 28L17 30L18 30L18 31L16 31L16 33L17 33L17 38L19 38L19 39L17 39L17 40L18 40L18 41L17 41L17 44L16 44L16 43L15 43L15 45L13 45L13 43L12 43L12 44L11 44L11 47L10 47L10 48L9 48L9 49L7 49L7 48L6 48L6 47L7 47L7 46L5 46L5 47L4 47L4 48L5 48L5 49L7 49L7 50L5 50L5 51L8 51L8 52L9 52L9 53L10 53L10 52L9 52L9 51L8 51L8 50L9 50L9 49L10 49L10 50L11 50L11 49L10 49L10 48L11 48L11 47L12 47L12 51L14 51L14 50L15 50L15 48L16 48L16 49L18 49L18 51L17 51L17 53L19 53L19 52L22 52L22 51L21 51L21 49L22 49L22 50L23 50L23 49L24 49L24 50L26 50L26 49L24 49L24 48L23 48L23 47L22 47L22 46L26 46L26 43L27 43L27 44L28 44L28 43L30 43L30 44L29 44L29 45L30 45L30 47L29 47L29 46L28 46L28 47L29 47L29 49L31 49L31 50L32 50L32 51L34 51L34 49L33 49L33 48L32 48L32 49L31 49L31 48L30 48L30 47L31 47L31 41L30 41L30 40L29 40L29 39L30 39L30 38L32 38L32 40L36 40L36 41L35 41L35 42L34 42L34 41L32 41L32 45L33 45L33 42L34 42L34 43L36 43L36 44L37 44L37 43L36 43L36 42L38 42L38 41L37 41L37 40L41 40L41 41L40 41L40 43L39 43L39 44L40 44L40 45L39 45L39 46L40 46L40 47L39 47L39 48L40 48L40 47L41 47L41 48L42 48L42 49L41 49L41 50L39 50L39 51L38 51L38 49L37 49L37 50L36 50L36 49L35 49L35 53L37 53L37 54L41 54L41 53L42 53L42 54L43 54L43 53L44 53L44 56L43 56L43 57L44 57L44 56L46 56L46 57L47 57L47 58L48 58L48 59L50 59L50 57L49 57L49 56L50 56L50 55L51 55L51 56L53 56L53 55L54 55L54 54L55 54L55 55L56 55L56 54L55 54L55 53L56 53L56 52L57 52L57 51L56 51L56 52L54 52L54 51L55 51L55 49L56 49L56 48L57 48L57 46L56 46L56 43L57 43L57 42L58 42L58 43L59 43L59 42L60 42L60 43L62 43L62 42L61 42L61 41L62 41L62 40L61 40L61 41L59 41L59 40L58 40L58 41L56 41L56 42L55 42L55 43L54 43L54 44L53 44L53 45L52 45L52 47L51 47L51 46L50 46L50 45L51 45L51 44L50 44L50 45L49 45L49 44L48 44L48 43L49 43L49 42L50 42L50 43L53 43L53 42L52 42L52 41L51 41L51 42L50 42L50 41L49 41L49 38L50 38L50 37L51 37L51 36L50 36L50 37L49 37L49 35L50 35L50 29L51 29L51 28L53 28L53 27L52 27L52 26L51 26L51 28L50 28L50 27L49 27L49 26L50 26L50 25L51 25L51 24L53 24L53 26L54 26L54 27L55 27L55 26L56 26L56 24L57 24L57 23L56 23L56 22L55 22L55 21L56 21L56 20L55 20L55 21L53 21L53 22L50 22L50 21L52 21L52 20L53 20L53 19L56 19L56 18L57 18L57 17L56 17L56 16L55 16L55 15L57 15L57 16L58 16L58 17L59 17L59 18L60 18L60 20L61 20L61 18L62 18L62 19L63 19L63 18L65 18L65 17L63 17L63 18L62 18L62 16L64 16L64 15L63 15L63 14L62 14L62 13L59 13L59 14L62 14L62 16L61 16L61 15L57 15L57 14L56 14L56 13L55 13L55 12L57 12L57 13L58 13L58 12L61 12L61 11L55 11L55 12L54 12L54 13L51 13L51 16L50 16L50 17L49 17L49 16L48 16L48 15L47 15L47 17L48 17L48 18L44 18L44 19L47 19L47 20L46 20L46 21L47 21L47 24L46 24L46 22L44 22L44 20L43 20L43 17L44 17L44 16L45 16L45 17L46 17L46 16L45 16L45 15L46 15L46 14L45 14L45 13L46 13L46 12L47 12L47 14L50 14L50 12L52 12L52 10L51 10L51 11L49 11L49 12L47 12L47 11L45 11L45 13L44 13L44 11L43 11L43 13L42 13L42 14L41 14L41 12L42 12L42 10L45 10L45 9L46 9L46 7ZM29 8L29 9L30 9L30 8ZM18 9L18 10L19 10L19 9ZM0 10L0 11L1 11L1 10ZM35 10L35 11L36 11L36 10ZM6 13L6 14L7 14L7 13ZM8 13L8 15L9 15L9 13ZM34 13L34 14L33 14L33 15L32 15L32 17L31 17L31 18L29 18L29 16L30 16L30 15L28 15L28 16L27 16L27 14L24 14L24 15L26 15L26 16L24 16L24 17L26 17L26 18L25 18L25 19L28 19L28 20L29 20L29 21L27 21L27 20L26 20L26 21L25 21L25 20L23 20L23 18L21 18L21 19L22 19L22 20L19 20L19 21L20 21L20 22L21 22L21 23L20 23L20 24L21 24L21 25L19 25L19 26L18 26L18 28L19 28L19 29L20 29L20 30L21 30L21 31L22 31L22 30L23 30L23 32L20 32L20 31L19 31L19 32L20 32L20 33L19 33L19 34L18 34L18 35L19 35L19 36L20 36L20 39L21 39L21 40L22 40L22 41L20 41L20 40L19 40L19 41L18 41L18 42L19 42L19 41L20 41L20 42L21 42L21 43L18 43L18 44L19 44L19 45L20 45L20 46L18 46L18 47L17 47L17 48L18 48L18 49L21 49L21 48L20 48L20 46L21 46L21 45L23 45L23 43L24 43L24 44L25 44L25 43L26 43L26 42L30 42L30 41L27 41L27 38L28 38L28 39L29 39L29 36L28 36L28 35L27 35L27 34L28 34L28 33L30 33L30 34L29 34L29 35L30 35L30 34L31 34L31 36L32 36L32 33L30 33L30 32L28 32L28 33L25 33L25 35L26 35L26 36L25 36L25 37L27 37L27 38L26 38L26 39L25 39L25 40L26 40L26 42L25 42L25 41L24 41L24 40L23 40L23 36L24 36L24 35L21 35L21 34L23 34L23 32L26 32L26 31L25 31L25 30L23 30L23 28L24 28L24 27L22 27L22 28L21 28L21 29L20 29L20 27L19 27L19 26L21 26L21 25L22 25L22 26L24 26L24 25L22 25L22 24L21 24L21 23L22 23L22 22L23 22L23 21L25 21L25 22L24 22L24 23L26 23L26 27L27 27L27 28L26 28L26 30L27 30L27 29L28 29L28 30L29 30L29 31L30 31L30 30L31 30L31 29L32 29L32 28L31 28L31 29L28 29L28 27L29 27L29 28L30 28L30 27L33 27L33 28L34 28L34 29L33 29L33 30L32 30L32 32L34 32L34 31L33 31L33 30L34 30L34 29L36 29L36 28L35 28L35 27L36 27L36 26L35 26L35 25L33 25L33 24L37 24L37 25L38 25L38 26L37 26L37 28L38 28L38 30L40 30L40 31L43 31L43 32L39 32L39 33L38 33L38 31L35 31L35 32L37 32L37 33L38 33L38 35L37 35L37 36L38 36L38 37L34 37L34 38L33 38L33 37L32 37L32 38L33 38L33 39L34 39L34 38L35 38L35 39L36 39L36 38L38 38L38 39L41 39L41 40L44 40L44 42L43 42L43 43L44 43L44 42L45 42L45 43L46 43L46 46L44 46L44 45L45 45L45 44L43 44L43 46L42 46L42 45L41 45L41 46L42 46L42 48L43 48L43 47L44 47L44 49L43 49L43 50L44 50L44 49L45 49L45 52L44 52L44 51L43 51L43 52L44 52L44 53L45 53L45 54L46 54L46 56L47 56L47 54L49 54L49 55L50 55L50 54L51 54L51 55L52 55L52 54L51 54L51 53L53 53L53 54L54 54L54 53L53 53L53 52L52 52L52 51L54 51L54 50L52 50L52 49L54 49L54 47L55 47L55 48L56 48L56 47L55 47L55 46L54 46L54 45L55 45L55 44L54 44L54 45L53 45L53 46L54 46L54 47L52 47L52 48L51 48L51 49L50 49L50 46L47 46L47 43L46 43L46 42L47 42L47 40L48 40L48 39L47 39L47 40L45 40L45 39L41 39L41 38L40 38L40 37L41 37L41 35L43 35L43 36L42 36L42 37L43 37L43 36L44 36L44 37L45 37L45 38L48 38L48 37L45 37L45 36L48 36L48 35L49 35L49 34L48 34L48 35L47 35L47 33L45 33L45 32L46 32L46 30L47 30L47 29L46 29L46 28L45 28L45 27L43 27L43 28L44 28L44 30L42 30L42 27L38 27L38 26L41 26L41 25L42 25L42 24L37 24L37 23L40 23L40 22L37 22L37 23L32 23L32 25L31 25L31 26L29 26L29 25L30 25L30 24L29 24L29 25L28 25L28 23L30 23L30 22L33 22L33 21L30 21L30 20L29 20L29 19L32 19L32 20L34 20L34 22L35 22L35 20L37 20L37 21L38 21L38 20L37 20L37 19L34 19L34 18L36 18L36 17L35 17L35 16L36 16L36 15L35 15L35 14L36 14L36 13ZM43 13L43 14L42 14L42 15L40 15L40 14L39 14L39 15L40 15L40 16L38 16L38 15L37 15L37 17L38 17L38 19L39 19L39 18L41 18L41 17L42 17L42 16L44 16L44 15L43 15L43 14L44 14L44 13ZM2 14L2 15L1 15L1 16L2 16L2 15L3 15L3 14ZM10 14L10 15L11 15L11 14ZM20 14L20 15L21 15L21 14ZM53 14L53 15L54 15L54 14ZM33 15L33 16L34 16L34 15ZM51 16L51 17L50 17L50 18L48 18L48 19L50 19L50 20L49 20L49 21L48 21L48 22L49 22L49 23L48 23L48 24L47 24L47 25L46 25L46 24L45 24L45 23L44 23L44 22L43 22L43 24L44 24L44 25L43 25L43 26L46 26L46 27L47 27L47 28L49 28L49 27L47 27L47 25L48 25L48 24L49 24L49 25L50 25L50 22L49 22L49 21L50 21L50 20L52 20L52 19L53 19L53 18L51 18L51 17L55 17L55 18L56 18L56 17L55 17L55 16ZM59 16L59 17L61 17L61 16ZM67 16L67 17L68 17L68 16ZM1 17L1 19L2 19L2 20L1 20L1 21L3 21L3 22L5 22L5 20L4 20L4 19L2 19L2 17ZM3 17L3 18L4 18L4 17ZM27 17L27 18L28 18L28 17ZM32 17L32 18L34 18L34 17ZM12 18L12 19L13 19L13 18ZM18 18L18 19L20 19L20 18ZM9 19L9 20L8 20L8 21L9 21L9 20L10 20L10 19ZM40 19L40 20L39 20L39 21L43 21L43 20L42 20L42 19ZM58 19L58 20L57 20L57 22L58 22L58 23L59 23L59 22L58 22L58 20L59 20L59 19ZM3 20L3 21L4 21L4 20ZM62 20L62 21L63 21L63 20ZM17 21L17 23L18 23L18 24L19 24L19 23L18 23L18 21ZM29 21L29 22L30 22L30 21ZM66 21L66 22L67 22L67 21ZM53 22L53 23L54 23L54 24L55 24L55 22ZM63 22L63 23L64 23L64 24L62 24L62 25L64 25L64 24L67 24L67 23L65 23L65 22ZM13 23L13 25L14 25L14 23ZM11 24L11 25L12 25L12 24ZM16 24L16 25L17 25L17 24ZM7 25L7 26L6 26L6 27L7 27L7 26L8 26L8 25ZM32 25L32 26L33 26L33 25ZM4 27L4 28L5 28L5 27ZM6 28L6 29L5 29L5 31L7 31L7 30L6 30L6 29L7 29L7 28ZM11 28L11 29L10 29L10 30L12 30L12 28ZM39 28L39 29L40 29L40 28ZM45 29L45 30L46 30L46 29ZM48 29L48 30L49 30L49 29ZM44 31L44 32L43 32L43 33L40 33L40 35L39 35L39 36L40 36L40 35L41 35L41 34L43 34L43 33L44 33L44 36L45 36L45 33L44 33L44 32L45 32L45 31ZM47 31L47 32L48 32L48 31ZM51 31L51 32L52 32L52 31ZM9 32L9 33L10 33L10 32ZM17 32L17 33L18 33L18 32ZM66 32L66 33L65 33L65 34L68 34L68 33L67 33L67 32ZM5 33L5 36L8 36L8 33ZM33 33L33 36L36 36L36 33ZM61 33L61 36L64 36L64 33ZM6 34L6 35L7 35L7 34ZM19 34L19 35L20 35L20 34ZM34 34L34 35L35 35L35 34ZM62 34L62 35L63 35L63 34ZM65 35L65 36L66 36L66 37L67 37L67 36L68 36L68 35L67 35L67 36L66 36L66 35ZM13 36L13 38L14 38L14 36ZM27 36L27 37L28 37L28 36ZM6 38L6 39L4 39L4 40L6 40L6 39L8 39L8 38ZM21 38L21 39L22 39L22 38ZM53 38L53 39L54 39L54 38ZM1 39L1 40L2 40L2 39ZM10 40L10 41L11 41L11 40ZM15 41L15 42L16 42L16 41ZM23 41L23 42L24 42L24 41ZM58 41L58 42L59 42L59 41ZM6 42L6 43L7 43L7 44L6 44L6 45L7 45L7 44L8 44L8 43L7 43L7 42ZM40 43L40 44L41 44L41 43ZM20 44L20 45L21 45L21 44ZM58 44L58 45L59 45L59 46L60 46L60 45L59 45L59 44ZM12 45L12 47L14 47L14 48L13 48L13 50L14 50L14 48L15 48L15 46L17 46L17 45L15 45L15 46L13 46L13 45ZM34 45L34 48L36 48L36 47L37 47L37 48L38 48L38 47L37 47L37 46L38 46L38 45L36 45L36 47L35 47L35 45ZM67 45L67 46L68 46L68 45ZM32 46L32 47L33 47L33 46ZM46 46L46 47L45 47L45 49L46 49L46 47L47 47L47 46ZM25 47L25 48L26 48L26 47ZM2 48L2 49L3 49L3 48ZM22 48L22 49L23 49L23 48ZM47 48L47 49L49 49L49 50L48 50L48 51L46 51L46 52L45 52L45 53L49 53L49 54L50 54L50 53L51 53L51 51L52 51L52 50L51 50L51 51L50 51L50 52L49 52L49 50L50 50L50 49L49 49L49 48ZM63 48L63 49L64 49L64 48ZM27 49L27 50L28 50L28 49ZM32 49L32 50L33 50L33 49ZM19 50L19 51L20 51L20 50ZM41 50L41 51L40 51L40 52L39 52L39 53L41 53L41 51L42 51L42 50ZM23 51L23 53L24 53L24 54L22 54L22 55L21 55L21 56L22 56L22 57L21 57L21 60L23 60L23 59L24 59L24 60L25 60L25 61L26 61L26 60L25 60L25 59L26 59L26 58L27 58L27 57L25 57L25 56L24 56L24 55L26 55L26 54L27 54L27 53L31 53L31 52L28 52L28 51L25 51L25 53L24 53L24 51ZM26 52L26 53L25 53L25 54L26 54L26 53L27 53L27 52ZM37 52L37 53L38 53L38 52ZM60 52L60 54L61 54L61 52ZM6 53L6 54L7 54L7 53ZM13 54L13 55L12 55L12 58L13 58L13 59L11 59L11 60L10 60L10 59L9 59L9 60L8 60L8 61L9 61L9 60L10 60L10 61L11 61L11 60L13 60L13 59L14 59L14 58L16 58L16 57L17 57L17 56L18 56L18 55L15 55L15 56L14 56L14 58L13 58L13 55L14 55L14 54ZM0 55L0 56L1 56L1 55ZM10 55L10 57L9 57L9 58L11 58L11 55ZM65 55L65 56L66 56L66 55ZM67 55L67 56L68 56L68 55ZM15 56L15 57L16 57L16 56ZM39 56L39 57L41 57L41 56ZM57 56L57 57L58 57L58 56ZM22 57L22 59L23 59L23 58L24 58L24 57ZM48 57L48 58L49 58L49 57ZM59 57L59 58L56 58L56 59L57 59L57 60L58 60L58 59L59 59L59 58L60 58L60 57ZM35 58L35 59L34 59L34 60L35 60L35 59L36 59L36 58ZM45 58L45 59L44 59L44 60L45 60L45 59L46 59L46 58ZM62 58L62 60L63 60L63 58ZM53 59L53 60L54 60L54 59ZM3 60L3 61L5 61L5 60ZM33 61L33 64L36 64L36 61ZM61 61L61 64L64 64L64 61ZM29 62L29 63L28 63L28 64L29 64L29 63L30 63L30 62ZM34 62L34 63L35 63L35 62ZM62 62L62 63L63 63L63 62ZM65 62L65 63L66 63L66 62ZM10 63L10 64L8 64L8 69L9 69L9 68L10 68L10 67L11 67L11 69L13 69L13 66L12 66L12 65L13 65L13 64L11 64L11 63ZM10 64L10 66L11 66L11 64ZM44 64L44 66L45 66L45 67L46 67L46 66L45 66L45 64ZM18 66L18 67L19 67L19 66ZM21 66L21 67L22 67L22 66ZM54 67L54 68L53 68L53 69L54 69L54 68L55 68L55 69L56 69L56 68L57 68L57 67ZM33 68L33 69L34 69L34 68ZM0 0L0 7L7 7L7 0ZM1 1L1 6L6 6L6 1ZM2 2L2 5L5 5L5 2ZM62 0L62 7L69 7L69 0ZM63 1L63 6L68 6L68 1ZM64 2L64 5L67 5L67 2ZM0 62L0 69L7 69L7 62ZM1 63L1 68L6 68L6 63ZM2 64L2 67L5 67L5 64Z" fill="#000000"/></g></g></svg>
