<?xml version="1.0" encoding="UTF-8"?>
<svg xmlns="http://www.w3.org/2000/svg" version="1.1" width="300" height="300" viewBox="0 0 300 300"><rect x="0" y="0" width="300" height="300" fill="#ffffff"/><g transform="scale(4.348)"><g transform="translate(0,0)"><path fill-rule="evenodd" d="M11 0L11 1L10 1L10 2L11 2L11 1L12 1L12 3L10 3L10 4L12 4L12 3L16 3L16 4L19 4L19 5L17 5L17 6L16 6L16 7L15 7L15 4L14 4L14 7L13 7L13 6L12 6L12 5L11 5L11 6L10 6L10 5L8 5L8 7L9 7L9 8L6 8L6 9L7 9L7 10L5 10L5 8L0 8L0 9L1 9L1 10L0 10L0 11L3 11L3 10L4 10L4 11L8 11L8 10L9 10L9 13L10 13L10 14L11 14L11 15L9 15L9 14L8 14L8 15L7 15L7 14L5 14L5 15L7 15L7 16L6 16L6 17L7 17L7 18L5 18L5 16L4 16L4 14L3 14L3 17L4 17L4 18L5 18L5 19L3 19L3 18L2 18L2 15L0 15L0 18L2 18L2 19L1 19L1 20L0 20L0 21L2 21L2 23L1 23L1 22L0 22L0 23L1 23L1 24L2 24L2 25L3 25L3 26L4 26L4 25L8 25L8 24L5 24L5 22L4 22L4 25L3 25L3 21L5 21L5 20L6 20L6 21L7 21L7 22L6 22L6 23L7 23L7 22L12 22L12 21L14 21L14 22L13 22L13 23L12 23L12 24L11 24L11 23L9 23L9 26L6 26L6 27L4 27L4 28L2 28L2 26L1 26L1 25L0 25L0 28L2 28L2 30L1 30L1 29L0 29L0 30L1 30L1 32L0 32L0 35L3 35L3 34L4 34L4 37L8 37L8 38L5 38L5 39L3 39L3 42L2 42L2 41L1 41L1 40L0 40L0 42L1 42L1 43L3 43L3 45L1 45L1 46L0 46L0 47L1 47L1 49L2 49L2 50L0 50L0 52L2 52L2 50L4 50L4 51L5 51L5 52L6 52L6 53L5 53L5 54L4 54L4 52L3 52L3 53L2 53L2 54L3 54L3 55L2 55L2 56L3 56L3 55L5 55L5 56L6 56L6 57L7 57L7 58L5 58L5 57L3 57L3 58L2 58L2 57L1 57L1 56L0 56L0 61L1 61L1 58L2 58L2 59L3 59L3 58L4 58L4 59L8 59L8 57L7 57L7 56L8 56L8 55L10 55L10 56L9 56L9 58L10 58L10 59L9 59L9 60L11 60L11 61L8 61L8 60L6 60L6 61L8 61L8 63L9 63L9 64L8 64L8 69L10 69L10 68L12 68L12 69L13 69L13 68L14 68L14 69L15 69L15 68L14 68L14 64L15 64L15 65L17 65L17 66L18 66L18 67L16 67L16 69L21 69L21 68L18 68L18 67L20 67L20 66L19 66L19 65L20 65L20 63L19 63L19 62L20 62L20 61L21 61L21 63L23 63L23 65L21 65L21 67L23 67L23 69L26 69L26 68L27 68L27 69L28 69L28 68L29 68L29 69L32 69L32 67L35 67L35 68L34 68L34 69L35 69L35 68L36 68L36 69L38 69L38 68L37 68L37 67L39 67L39 66L37 66L37 65L38 65L38 64L41 64L41 66L40 66L40 67L41 67L41 66L44 66L44 68L43 68L43 67L42 67L42 68L41 68L41 69L42 69L42 68L43 68L43 69L44 69L44 68L47 68L47 69L49 69L49 68L48 68L48 67L49 67L49 66L50 66L50 69L51 69L51 68L52 68L52 66L53 66L53 69L54 69L54 68L57 68L57 69L59 69L59 68L58 68L58 67L61 67L61 65L64 65L64 66L66 66L66 67L63 67L63 66L62 66L62 67L63 67L63 68L61 68L61 69L63 69L63 68L66 68L66 69L68 69L68 68L67 68L67 66L66 66L66 65L65 65L65 64L67 64L67 65L68 65L68 62L67 62L67 61L68 61L68 60L67 60L67 59L68 59L68 58L69 58L69 57L68 57L68 56L69 56L69 55L68 55L68 54L69 54L69 53L68 53L68 54L66 54L66 55L62 55L62 53L64 53L64 52L66 52L66 53L67 53L67 52L68 52L68 50L69 50L69 49L68 49L68 46L67 46L67 44L69 44L69 43L68 43L68 41L69 41L69 40L68 40L68 41L67 41L67 39L68 39L68 38L67 38L67 37L68 37L68 36L69 36L69 35L68 35L68 34L69 34L69 33L68 33L68 32L69 32L69 31L68 31L68 30L69 30L69 29L68 29L68 28L69 28L69 27L68 27L68 26L69 26L69 23L68 23L68 22L67 22L67 23L65 23L65 24L67 24L67 27L65 27L65 28L67 28L67 29L68 29L68 30L67 30L67 31L65 31L65 30L64 30L64 29L63 29L63 31L62 31L62 29L61 29L61 28L62 28L62 27L64 27L64 26L66 26L66 25L63 25L63 26L62 26L62 25L61 25L61 24L63 24L63 23L64 23L64 22L62 22L62 20L64 20L64 19L63 19L63 18L65 18L65 20L66 20L66 21L68 21L68 18L69 18L69 17L67 17L67 16L68 16L68 14L69 14L69 13L68 13L68 12L67 12L67 11L68 11L68 10L69 10L69 9L68 9L68 8L67 8L67 9L66 9L66 8L65 8L65 9L64 9L64 8L63 8L63 9L64 9L64 10L66 10L66 11L65 11L65 12L66 12L66 13L68 13L68 14L65 14L65 13L63 13L63 10L62 10L62 8L61 8L61 6L60 6L60 8L58 8L58 7L59 7L59 4L58 4L58 3L59 3L59 2L58 2L58 1L61 1L61 0L53 0L53 1L57 1L57 2L56 2L56 3L55 3L55 4L54 4L54 3L53 3L53 4L51 4L51 2L50 2L50 0L47 0L47 1L45 1L45 0L44 0L44 1L45 1L45 2L44 2L44 3L43 3L43 0L41 0L41 1L37 1L37 0L35 0L35 3L36 3L36 4L34 4L34 3L33 3L33 2L32 2L32 1L31 1L31 2L30 2L30 0L28 0L28 1L26 1L26 2L25 2L25 3L26 3L26 2L28 2L28 3L27 3L27 4L24 4L24 3L23 3L23 4L22 4L22 5L20 5L20 4L21 4L21 3L20 3L20 4L19 4L19 2L20 2L20 1L19 1L19 0ZM21 0L21 2L23 2L23 1L25 1L25 0L23 0L23 1L22 1L22 0ZM51 0L51 1L52 1L52 0ZM8 1L8 2L9 2L9 1ZM13 1L13 2L15 2L15 1ZM16 1L16 2L17 2L17 3L18 3L18 2L19 2L19 1ZM41 1L41 2L37 2L37 3L38 3L38 4L37 4L37 5L38 5L38 6L37 6L37 7L38 7L38 8L39 8L39 9L38 9L38 10L36 10L36 9L35 9L35 10L33 10L33 9L32 9L32 11L31 11L31 12L32 12L32 13L31 13L31 15L30 15L30 13L29 13L29 10L30 10L30 9L31 9L31 7L32 7L32 5L30 5L30 4L29 4L29 3L28 3L28 4L27 4L27 5L30 5L30 6L29 6L29 8L30 8L30 9L27 9L27 8L26 8L26 10L25 10L25 9L24 9L24 8L25 8L25 7L26 7L26 6L25 6L25 7L24 7L24 6L23 6L23 5L24 5L24 4L23 4L23 5L22 5L22 6L21 6L21 8L20 8L20 12L19 12L19 13L20 13L20 14L21 14L21 15L20 15L20 16L19 16L19 14L18 14L18 13L17 13L17 12L18 12L18 11L19 11L19 9L17 9L17 8L16 8L16 9L15 9L15 7L14 7L14 9L13 9L13 8L12 8L12 6L11 6L11 7L10 7L10 6L9 6L9 7L10 7L10 9L11 9L11 10L10 10L10 11L11 11L11 14L12 14L12 15L13 15L13 14L15 14L15 13L17 13L17 14L18 14L18 15L17 15L17 16L14 16L14 17L17 17L17 18L15 18L15 19L16 19L16 20L17 20L17 21L18 21L18 23L17 23L17 24L16 24L16 23L15 23L15 22L14 22L14 25L12 25L12 26L11 26L11 24L10 24L10 26L9 26L9 27L8 27L8 28L7 28L7 27L6 27L6 28L4 28L4 29L5 29L5 30L3 30L3 31L2 31L2 32L1 32L1 34L3 34L3 32L4 32L4 31L5 31L5 30L7 30L7 31L6 31L6 32L7 32L7 31L8 31L8 32L9 32L9 31L8 31L8 30L9 30L9 28L10 28L10 29L12 29L12 26L13 26L13 27L15 27L15 28L16 28L16 29L13 29L13 30L12 30L12 31L11 31L11 30L10 30L10 32L11 32L11 33L9 33L9 35L10 35L10 34L11 34L11 36L10 36L10 37L9 37L9 38L8 38L8 39L5 39L5 41L4 41L4 42L3 42L3 43L4 43L4 45L3 45L3 46L5 46L5 48L7 48L7 49L4 49L4 50L11 50L11 52L8 52L8 53L12 53L12 52L13 52L13 53L14 53L14 52L15 52L15 54L14 54L14 56L16 56L16 57L10 57L10 58L11 58L11 59L12 59L12 61L11 61L11 62L12 62L12 63L11 63L11 64L9 64L9 65L12 65L12 66L13 66L13 64L14 64L14 63L15 63L15 62L17 62L17 63L18 63L18 62L19 62L19 61L20 61L20 60L21 60L21 61L22 61L22 62L23 62L23 63L25 63L25 64L26 64L26 63L25 63L25 62L23 62L23 61L25 61L25 60L26 60L26 62L27 62L27 64L28 64L28 65L25 65L25 68L26 68L26 67L27 67L27 68L28 68L28 67L27 67L27 66L28 66L28 65L29 65L29 66L30 66L30 65L29 65L29 64L31 64L31 63L32 63L32 61L27 61L27 60L28 60L28 59L29 59L29 57L30 57L30 56L25 56L25 57L27 57L27 60L26 60L26 58L25 58L25 60L24 60L24 59L23 59L23 58L24 58L24 57L22 57L22 56L20 56L20 55L22 55L22 54L23 54L23 52L25 52L25 51L23 51L23 50L22 50L22 49L23 49L23 46L21 46L21 45L24 45L24 44L26 44L26 45L27 45L27 46L25 46L25 47L24 47L24 48L25 48L25 49L26 49L26 50L27 50L27 51L28 51L28 52L26 52L26 55L30 55L30 53L28 53L28 52L29 52L29 48L27 48L27 47L28 47L28 46L29 46L29 47L30 47L30 48L31 48L31 49L32 49L32 50L30 50L30 52L34 52L34 53L33 53L33 54L32 54L32 53L31 53L31 56L33 56L33 58L32 58L32 57L31 57L31 59L32 59L32 60L33 60L33 58L35 58L35 59L36 59L36 57L35 57L35 55L36 55L36 53L38 53L38 52L35 52L35 51L36 51L36 50L37 50L37 51L39 51L39 54L37 54L37 56L39 56L39 57L37 57L37 58L39 58L39 57L41 57L41 56L39 56L39 54L40 54L40 55L41 55L41 54L42 54L42 55L43 55L43 56L42 56L42 57L43 57L43 59L44 59L44 61L43 61L43 60L42 60L42 58L41 58L41 59L40 59L40 62L39 62L39 61L38 61L38 59L37 59L37 61L38 61L38 62L37 62L37 64L38 64L38 62L39 62L39 63L41 63L41 64L44 64L44 66L45 66L45 67L46 67L46 66L47 66L47 63L48 63L48 64L49 64L49 63L50 63L50 66L52 66L52 65L53 65L53 66L54 66L54 67L55 67L55 66L54 66L54 65L55 65L55 64L56 64L56 65L57 65L57 67L58 67L58 66L60 66L60 63L58 63L58 62L60 62L60 60L65 60L65 59L67 59L67 58L68 58L68 57L66 57L66 56L61 56L61 55L60 55L60 54L59 54L59 53L60 53L60 52L61 52L61 53L62 53L62 52L61 52L61 49L62 49L62 51L63 51L63 52L64 52L64 50L65 50L65 51L67 51L67 48L65 48L65 47L66 47L66 45L63 45L63 44L65 44L65 43L66 43L66 42L67 42L67 41L66 41L66 40L65 40L65 41L64 41L64 40L63 40L63 39L65 39L65 38L66 38L66 39L67 39L67 38L66 38L66 36L65 36L65 37L64 37L64 38L62 38L62 37L61 37L61 38L60 38L60 39L59 39L59 37L60 37L60 35L57 35L57 36L56 36L56 35L55 35L55 36L56 36L56 37L55 37L55 38L58 38L58 39L55 39L55 40L56 40L56 41L57 41L57 42L54 42L54 41L53 41L53 40L52 40L52 39L53 39L53 38L52 38L52 37L54 37L54 36L53 36L53 35L52 35L52 34L51 34L51 33L54 33L54 32L55 32L55 30L56 30L56 31L58 31L58 32L56 32L56 33L55 33L55 34L56 34L56 33L57 33L57 34L60 34L60 33L59 33L59 32L62 32L62 31L61 31L61 30L59 30L59 29L60 29L60 28L61 28L61 26L60 26L60 27L59 27L59 28L58 28L58 27L57 27L57 26L59 26L59 25L58 25L58 24L59 24L59 23L62 23L62 22L60 22L60 21L61 21L61 20L62 20L62 18L63 18L63 17L65 17L65 18L66 18L66 19L67 19L67 18L66 18L66 16L65 16L65 14L64 14L64 16L62 16L62 15L63 15L63 13L62 13L62 12L60 12L60 11L58 11L58 10L59 10L59 9L58 9L58 10L57 10L57 8L56 8L56 9L55 9L55 10L56 10L56 11L55 11L55 12L56 12L56 13L55 13L55 14L56 14L56 15L54 15L54 16L56 16L56 17L57 17L57 18L53 18L53 16L52 16L52 15L53 15L53 14L52 14L52 15L50 15L50 16L49 16L49 14L47 14L47 12L50 12L50 14L51 14L51 13L54 13L54 12L53 12L53 11L54 11L54 10L53 10L53 9L54 9L54 5L53 5L53 7L52 7L52 6L51 6L51 7L50 7L50 5L51 5L51 4L50 4L50 2L48 2L48 1L47 1L47 2L45 2L45 3L44 3L44 5L43 5L43 7L42 7L42 6L41 6L41 7L40 7L40 5L41 5L41 2L42 2L42 1ZM31 2L31 4L32 4L32 2ZM47 2L47 5L50 5L50 4L49 4L49 3L48 3L48 2ZM8 3L8 4L9 4L9 3ZM42 3L42 4L43 4L43 3ZM45 3L45 4L46 4L46 3ZM56 3L56 4L55 4L55 7L56 7L56 6L57 6L57 7L58 7L58 4L57 4L57 3ZM60 3L60 5L61 5L61 3ZM19 5L19 7L18 7L18 6L17 6L17 7L18 7L18 8L19 8L19 7L20 7L20 5ZM33 5L33 8L36 8L36 5ZM44 5L44 7L45 7L45 9L44 9L44 8L43 8L43 9L39 9L39 10L38 10L38 11L39 11L39 12L37 12L37 13L36 13L36 12L34 12L34 13L33 13L33 14L32 14L32 15L31 15L31 16L30 16L30 15L29 15L29 14L28 14L28 15L29 15L29 19L30 19L30 18L33 18L33 17L32 17L32 15L33 15L33 16L34 16L34 15L33 15L33 14L34 14L34 13L36 13L36 14L35 14L35 15L39 15L39 16L40 16L40 15L42 15L42 14L44 14L44 16L42 16L42 17L41 17L41 18L39 18L39 19L37 19L37 18L38 18L38 17L35 17L35 20L36 20L36 21L37 21L37 22L35 22L35 21L34 21L34 23L37 23L37 24L36 24L36 25L34 25L34 24L32 24L32 23L31 23L31 22L32 22L32 21L31 21L31 20L32 20L32 19L31 19L31 20L28 20L28 19L27 19L27 21L26 21L26 19L22 19L22 20L24 20L24 21L23 21L23 22L22 22L22 21L21 21L21 22L22 22L22 23L21 23L21 24L22 24L22 25L21 25L21 27L20 27L20 28L17 28L17 27L18 27L18 26L20 26L20 23L18 23L18 24L17 24L17 25L16 25L16 24L15 24L15 25L14 25L14 26L15 26L15 27L16 27L16 28L17 28L17 30L18 30L18 31L17 31L17 32L16 32L16 33L13 33L13 31L12 31L12 34L13 34L13 36L12 36L12 39L13 39L13 40L11 40L11 37L10 37L10 38L9 38L9 40L10 40L10 41L11 41L11 43L10 43L10 44L8 44L8 45L9 45L9 46L8 46L8 47L10 47L10 48L8 48L8 49L10 49L10 48L11 48L11 50L13 50L13 48L11 48L11 47L13 47L13 46L10 46L10 44L11 44L11 45L12 45L12 44L11 44L11 43L12 43L12 41L14 41L14 42L16 42L16 41L15 41L15 40L16 40L16 39L14 39L14 38L13 38L13 37L14 37L14 34L15 34L15 36L16 36L16 33L17 33L17 37L19 37L19 40L17 40L17 43L18 43L18 44L17 44L17 47L16 47L16 49L18 49L18 51L19 51L19 52L17 52L17 51L16 51L16 50L14 50L14 51L13 51L13 52L14 52L14 51L16 51L16 53L17 53L17 54L18 54L18 56L17 56L17 57L16 57L16 58L14 58L14 59L13 59L13 58L12 58L12 59L13 59L13 60L14 60L14 61L13 61L13 63L12 63L12 64L13 64L13 63L14 63L14 62L15 62L15 61L16 61L16 60L17 60L17 62L18 62L18 61L19 61L19 59L20 59L20 56L19 56L19 55L20 55L20 53L19 53L19 52L22 52L22 51L21 51L21 49L18 49L18 48L17 48L17 47L18 47L18 46L20 46L20 45L19 45L19 44L20 44L20 43L22 43L22 44L24 44L24 43L22 43L22 42L20 42L20 41L22 41L22 40L21 40L21 39L22 39L22 38L20 38L20 37L19 37L19 35L20 35L20 34L19 34L19 33L20 33L20 32L24 32L24 33L23 33L23 34L22 34L22 35L21 35L21 36L25 36L25 37L23 37L23 38L25 38L25 37L26 37L26 36L25 36L25 35L24 35L24 34L25 34L25 33L28 33L28 34L26 34L26 35L28 35L28 36L27 36L27 37L28 37L28 36L29 36L29 37L30 37L30 38L27 38L27 41L26 41L26 39L24 39L24 41L23 41L23 42L24 42L24 41L26 41L26 42L25 42L25 43L26 43L26 44L28 44L28 45L29 45L29 46L30 46L30 47L31 47L31 46L30 46L30 45L31 45L31 44L28 44L28 43L29 43L29 42L28 42L28 43L27 43L27 41L28 41L28 39L30 39L30 38L31 38L31 35L30 35L30 36L29 36L29 34L30 34L30 33L31 33L31 34L32 34L32 38L33 38L33 39L31 39L31 40L35 40L35 41L32 41L32 45L33 45L33 46L32 46L32 47L33 47L33 48L32 48L32 49L33 49L33 48L36 48L36 47L37 47L37 50L38 50L38 49L39 49L39 48L40 48L40 47L41 47L41 48L42 48L42 49L41 49L41 50L39 50L39 51L41 51L41 52L42 52L42 54L43 54L43 53L44 53L44 56L43 56L43 57L44 57L44 56L46 56L46 57L47 57L47 59L49 59L49 58L50 58L50 53L49 53L49 52L47 52L47 51L46 51L46 52L45 52L45 49L46 49L46 46L45 46L45 49L44 49L44 46L43 46L43 44L46 44L46 43L47 43L47 46L49 46L49 47L47 47L47 49L48 49L48 50L50 50L50 49L49 49L49 47L50 47L50 48L53 48L53 47L54 47L54 49L51 49L51 51L50 51L50 52L51 52L51 51L52 51L52 50L53 50L53 51L56 51L56 52L53 52L53 53L51 53L51 54L52 54L52 55L51 55L51 56L53 56L53 62L52 62L52 61L51 61L51 60L52 60L52 58L51 58L51 60L50 60L50 61L49 61L49 60L46 60L46 58L45 58L45 61L44 61L44 64L45 64L45 66L46 66L46 64L45 64L45 63L46 63L46 62L45 62L45 61L47 61L47 62L50 62L50 61L51 61L51 64L55 64L55 63L54 63L54 62L55 62L55 61L56 61L56 63L57 63L57 64L58 64L58 63L57 63L57 61L56 61L56 60L55 60L55 59L54 59L54 58L55 58L55 57L56 57L56 55L57 55L57 54L58 54L58 55L59 55L59 56L58 56L58 57L59 57L59 58L61 58L61 59L62 59L62 58L63 58L63 59L64 59L64 58L63 58L63 57L61 57L61 56L60 56L60 55L59 55L59 54L58 54L58 53L57 53L57 54L56 54L56 52L57 52L57 51L56 51L56 50L58 50L58 52L59 52L59 51L60 51L60 50L58 50L58 49L59 49L59 48L60 48L60 47L59 47L59 46L61 46L61 48L62 48L62 46L63 46L63 45L61 45L61 44L63 44L63 43L61 43L61 42L60 42L60 41L59 41L59 42L58 42L58 43L57 43L57 45L59 45L59 46L56 46L56 43L54 43L54 42L53 42L53 41L52 41L52 40L50 40L50 39L49 39L49 38L50 38L50 37L51 37L51 36L50 36L50 35L51 35L51 34L50 34L50 33L51 33L51 32L52 32L52 31L53 31L53 30L55 30L55 29L56 29L56 28L57 28L57 27L56 27L56 24L58 24L58 23L55 23L55 22L56 22L56 21L53 21L53 22L54 22L54 23L53 23L53 27L52 27L52 28L51 28L51 27L50 27L50 29L49 29L49 28L47 28L47 30L46 30L46 29L44 29L44 28L43 28L43 27L45 27L45 28L46 28L46 26L43 26L43 25L44 25L44 24L43 24L43 22L44 22L44 23L45 23L45 24L46 24L46 25L47 25L47 26L48 26L48 27L49 27L49 26L50 26L50 25L51 25L51 24L52 24L52 23L50 23L50 21L49 21L49 19L50 19L50 20L51 20L51 18L49 18L49 19L47 19L47 18L48 18L48 17L49 17L49 16L48 16L48 15L47 15L47 16L48 16L48 17L47 17L47 18L44 18L44 19L47 19L47 20L46 20L46 21L47 21L47 24L46 24L46 22L44 22L44 20L43 20L43 21L39 21L39 20L40 20L40 19L43 19L43 17L44 17L44 16L45 16L45 17L46 17L46 16L45 16L45 14L44 14L44 12L47 12L47 11L43 11L43 13L42 13L42 14L41 14L41 12L42 12L42 10L45 10L45 9L46 9L46 7L47 7L47 10L50 10L50 7L49 7L49 6L48 6L48 7L47 7L47 6L46 6L46 5ZM22 6L22 7L23 7L23 8L24 8L24 7L23 7L23 6ZM27 6L27 7L28 7L28 6ZM30 6L30 7L31 7L31 6ZM34 6L34 7L35 7L35 6ZM38 6L38 7L39 7L39 6ZM45 6L45 7L46 7L46 6ZM21 8L21 9L22 9L22 8ZM60 8L60 9L61 9L61 8ZM2 9L2 10L3 10L3 9ZM14 9L14 11L13 11L13 12L17 12L17 10L15 10L15 9ZM23 9L23 10L24 10L24 9ZM21 10L21 12L23 12L23 13L22 13L22 15L21 15L21 16L24 16L24 17L23 17L23 18L26 18L26 17L25 17L25 16L26 16L26 15L25 15L25 14L27 14L27 13L25 13L25 12L26 12L26 11L28 11L28 10L26 10L26 11L25 11L25 12L24 12L24 11L22 11L22 10ZM35 10L35 11L36 11L36 10ZM40 10L40 12L39 12L39 13L37 13L37 14L39 14L39 15L40 15L40 14L39 14L39 13L40 13L40 12L41 12L41 10ZM52 10L52 11L53 11L53 10ZM61 10L61 11L62 11L62 10ZM50 11L50 12L51 12L51 11ZM56 11L56 12L57 12L57 13L58 13L58 12L57 12L57 11ZM0 12L0 14L2 14L2 13L5 13L5 12L2 12L2 13L1 13L1 12ZM6 12L6 13L7 13L7 12ZM59 12L59 13L60 13L60 14L59 14L59 15L58 15L58 14L57 14L57 15L56 15L56 16L57 16L57 17L58 17L58 16L59 16L59 18L57 18L57 19L55 19L55 20L59 20L59 21L60 21L60 20L61 20L61 18L62 18L62 16L60 16L60 15L61 15L61 14L62 14L62 13L60 13L60 12ZM12 13L12 14L13 14L13 13ZM23 14L23 15L24 15L24 14ZM7 16L7 17L8 17L8 18L9 18L9 19L8 19L8 20L7 20L7 19L6 19L6 20L7 20L7 21L8 21L8 20L9 20L9 21L11 21L11 20L9 20L9 19L12 19L12 20L14 20L14 19L13 19L13 17L12 17L12 16L10 16L10 17L8 17L8 16ZM17 16L17 17L18 17L18 18L17 18L17 19L18 19L18 21L19 21L19 22L20 22L20 21L19 21L19 20L21 20L21 17L18 17L18 16ZM50 16L50 17L52 17L52 16ZM10 17L10 18L12 18L12 17ZM27 17L27 18L28 18L28 17ZM18 18L18 19L20 19L20 18ZM52 18L52 20L54 20L54 19L53 19L53 18ZM59 18L59 19L60 19L60 18ZM2 19L2 21L3 21L3 19ZM37 20L37 21L38 21L38 20ZM25 21L25 23L23 23L23 24L25 24L25 25L27 25L27 26L25 26L25 27L27 27L27 26L28 26L28 27L29 27L29 28L30 28L30 27L33 27L33 28L34 28L34 29L33 29L33 30L30 30L30 29L28 29L28 28L26 28L26 29L25 29L25 30L24 30L24 32L26 32L26 31L25 31L25 30L28 30L28 31L27 31L27 32L28 32L28 33L30 33L30 32L29 32L29 31L32 31L32 32L31 32L31 33L32 33L32 32L34 32L34 31L33 31L33 30L34 30L34 29L35 29L35 30L37 30L37 31L35 31L35 32L37 32L37 31L38 31L38 30L40 30L40 31L43 31L43 32L39 32L39 33L38 33L38 35L37 35L37 36L38 36L38 37L36 37L36 39L35 39L35 37L34 37L34 39L35 39L35 40L36 40L36 39L37 39L37 41L38 41L38 43L40 43L40 44L37 44L37 45L35 45L35 42L33 42L33 45L34 45L34 46L33 46L33 47L34 47L34 46L35 46L35 47L36 47L36 46L37 46L37 47L38 47L38 48L39 48L39 47L40 47L40 46L39 46L39 45L40 45L40 44L41 44L41 43L40 43L40 41L41 41L41 40L44 40L44 42L43 42L43 43L44 43L44 42L45 42L45 43L46 43L46 42L47 42L47 40L49 40L49 41L48 41L48 42L49 42L49 43L48 43L48 44L51 44L51 45L49 45L49 46L51 46L51 47L52 47L52 46L51 46L51 45L53 45L53 44L54 44L54 43L52 43L52 44L51 44L51 43L50 43L50 42L52 42L52 41L50 41L50 40L49 40L49 39L47 39L47 40L45 40L45 39L43 39L43 38L41 38L41 37L43 37L43 36L44 36L44 37L45 37L45 38L48 38L48 37L45 37L45 36L47 36L47 34L49 34L49 33L50 33L50 32L51 32L51 31L52 31L52 30L51 30L51 29L50 29L50 30L49 30L49 29L48 29L48 30L49 30L49 33L45 33L45 32L46 32L46 30L44 30L44 29L43 29L43 30L42 30L42 27L37 27L37 29L36 29L36 28L35 28L35 27L36 27L36 26L33 26L33 25L32 25L32 24L31 24L31 25L32 25L32 26L29 26L29 25L30 25L30 24L29 24L29 25L27 25L27 24L28 24L28 23L27 23L27 22L29 22L29 23L30 23L30 22L31 22L31 21L27 21L27 22L26 22L26 21ZM37 22L37 23L39 23L39 25L37 25L37 26L41 26L41 25L42 25L42 24L41 24L41 23L39 23L39 22ZM26 23L26 24L27 24L27 23ZM48 23L48 24L47 24L47 25L48 25L48 26L49 26L49 25L50 25L50 23ZM54 23L54 25L55 25L55 23ZM67 23L67 24L68 24L68 23ZM48 24L48 25L49 25L49 24ZM15 25L15 26L16 26L16 25ZM17 25L17 26L18 26L18 25ZM22 25L22 27L21 27L21 28L20 28L20 30L19 30L19 32L20 32L20 30L21 30L21 31L23 31L23 30L22 30L22 29L24 29L24 27L23 27L23 26L24 26L24 25ZM10 26L10 27L11 27L11 26ZM22 27L22 28L21 28L21 29L22 29L22 28L23 28L23 27ZM53 27L53 28L52 28L52 29L53 29L53 28L54 28L54 27ZM55 27L55 28L56 28L56 27ZM6 28L6 29L7 29L7 30L8 30L8 29L7 29L7 28ZM31 28L31 29L32 29L32 28ZM39 28L39 29L40 29L40 28ZM37 29L37 30L38 30L38 29ZM14 30L14 32L15 32L15 31L16 31L16 30ZM50 30L50 31L51 31L51 30ZM58 30L58 31L59 31L59 30ZM44 31L44 32L43 32L43 33L40 33L40 35L39 35L39 36L40 36L40 35L41 35L41 36L43 36L43 35L41 35L41 34L43 34L43 33L44 33L44 36L45 36L45 33L44 33L44 32L45 32L45 31ZM47 31L47 32L48 32L48 31ZM63 31L63 32L64 32L64 31ZM67 31L67 32L66 32L66 33L67 33L67 34L68 34L68 33L67 33L67 32L68 32L68 31ZM17 32L17 33L18 33L18 32ZM5 33L5 36L8 36L8 33ZM33 33L33 36L36 36L36 33ZM61 33L61 36L64 36L64 33ZM6 34L6 35L7 35L7 34ZM34 34L34 35L35 35L35 34ZM62 34L62 35L63 35L63 34ZM67 35L67 36L68 36L68 35ZM1 36L1 37L0 37L0 39L1 39L1 38L2 38L2 37L3 37L3 36ZM49 36L49 37L50 37L50 36ZM57 36L57 37L59 37L59 36ZM39 37L39 40L41 40L41 38L40 38L40 37ZM17 38L17 39L18 39L18 38ZM37 38L37 39L38 39L38 38ZM61 38L61 39L62 39L62 38ZM6 40L6 41L8 41L8 40ZM29 40L29 41L30 41L30 43L31 43L31 41L30 41L30 40ZM57 40L57 41L58 41L58 40ZM18 41L18 42L19 42L19 41ZM49 41L49 42L50 42L50 41ZM62 41L62 42L64 42L64 41ZM5 42L5 43L7 43L7 42ZM8 42L8 43L9 43L9 42ZM36 42L36 43L37 43L37 42ZM14 43L14 44L13 44L13 45L14 45L14 44L15 44L15 45L16 45L16 43ZM60 43L60 44L59 44L59 45L60 45L60 44L61 44L61 43ZM6 44L6 45L7 45L7 44ZM37 45L37 46L38 46L38 45ZM41 45L41 46L42 46L42 48L43 48L43 46L42 46L42 45ZM1 46L1 47L2 47L2 48L4 48L4 47L2 47L2 46ZM6 46L6 47L7 47L7 46ZM14 46L14 47L15 47L15 46ZM20 47L20 48L21 48L21 47ZM25 47L25 48L26 48L26 47ZM55 47L55 48L56 48L56 49L55 49L55 50L56 50L56 49L58 49L58 48L57 48L57 47ZM63 47L63 48L64 48L64 47ZM14 48L14 49L15 49L15 48ZM27 49L27 50L28 50L28 49ZM35 49L35 50L36 50L36 49ZM43 49L43 50L44 50L44 49ZM65 49L65 50L66 50L66 49ZM19 50L19 51L20 51L20 50ZM32 50L32 51L34 51L34 50ZM41 50L41 51L42 51L42 52L44 52L44 53L45 53L45 54L46 54L46 56L48 56L48 54L49 54L49 53L45 53L45 52L44 52L44 51L42 51L42 50ZM6 51L6 52L7 52L7 51ZM0 53L0 55L1 55L1 53ZM6 53L6 54L7 54L7 53ZM21 53L21 54L22 54L22 53ZM27 53L27 54L28 54L28 53ZM40 53L40 54L41 54L41 53ZM15 54L15 55L16 55L16 54ZM24 54L24 55L25 55L25 54ZM33 54L33 55L35 55L35 54ZM54 54L54 55L53 55L53 56L54 56L54 55L56 55L56 54ZM6 55L6 56L7 56L7 55ZM11 55L11 56L12 56L12 55ZM67 55L67 56L68 56L68 55ZM59 56L59 57L60 57L60 56ZM17 57L17 58L18 58L18 57ZM21 57L21 59L22 59L22 57ZM57 58L57 59L58 59L58 58ZM15 59L15 60L16 60L16 59ZM3 60L3 61L5 61L5 60ZM41 60L41 62L42 62L42 63L43 63L43 61L42 61L42 60ZM58 60L58 61L59 61L59 60ZM33 61L33 64L36 64L36 61ZM61 61L61 64L64 64L64 61ZM34 62L34 63L35 63L35 62ZM62 62L62 63L63 63L63 62ZM65 62L65 63L66 63L66 62ZM17 64L17 65L18 65L18 64ZM31 65L31 66L32 66L32 65ZM33 65L33 66L35 66L35 67L36 67L36 66L35 66L35 65ZM48 65L48 66L49 66L49 65ZM23 66L23 67L24 67L24 66ZM9 67L9 68L10 68L10 67ZM29 67L29 68L30 68L30 67ZM0 0L0 7L7 7L7 0ZM1 1L1 6L6 6L6 1ZM2 2L2 5L5 5L5 2ZM62 0L62 7L69 7L69 0ZM63 1L63 6L68 6L68 1ZM64 2L64 5L67 5L67 2ZM0 62L0 69L7 69L7 62ZM1 63L1 68L6 68L6 63ZM2 64L2 67L5 67L5 64Z" fill="#000000"/></g></g></svg>
