<?xml version="1.0" encoding="UTF-8"?>
<svg xmlns="http://www.w3.org/2000/svg" version="1.1" width="300" height="300" viewBox="0 0 300 300"><rect x="0" y="0" width="300" height="300" fill="#ffffff"/><g transform="scale(4.348)"><g transform="translate(0,0)"><path fill-rule="evenodd" d="M9 0L9 1L8 1L8 2L9 2L9 3L8 3L8 4L9 4L9 5L8 5L8 7L9 7L9 6L10 6L10 8L6 8L6 9L7 9L7 10L6 10L6 11L5 11L5 12L4 12L4 13L5 13L5 15L4 15L4 14L3 14L3 12L2 12L2 13L1 13L1 11L4 11L4 10L5 10L5 8L0 8L0 9L1 9L1 11L0 11L0 17L1 17L1 18L2 18L2 17L4 17L4 16L5 16L5 15L7 15L7 16L6 16L6 17L7 17L7 18L4 18L4 19L3 19L3 20L2 20L2 19L1 19L1 20L0 20L0 21L3 21L3 23L1 23L1 24L2 24L2 25L0 25L0 28L1 28L1 29L0 29L0 30L1 30L1 29L2 29L2 28L3 28L3 26L5 26L5 25L4 25L4 23L5 23L5 22L4 22L4 21L7 21L7 22L6 22L6 23L7 23L7 24L6 24L6 25L8 25L8 26L6 26L6 27L5 27L5 28L4 28L4 29L3 29L3 31L0 31L0 32L1 32L1 33L0 33L0 34L2 34L2 36L1 36L1 35L0 35L0 36L1 36L1 37L0 37L0 39L1 39L1 41L0 41L0 44L1 44L1 45L0 45L0 46L1 46L1 47L0 47L0 50L1 50L1 47L3 47L3 48L2 48L2 52L1 52L1 51L0 51L0 54L2 54L2 56L1 56L1 55L0 55L0 56L1 56L1 57L0 57L0 61L1 61L1 57L2 57L2 56L3 56L3 58L2 58L2 59L3 59L3 58L4 58L4 59L7 59L7 60L6 60L6 61L7 61L7 60L8 60L8 63L9 63L9 64L8 64L8 69L12 69L12 68L11 68L11 65L12 65L12 63L13 63L13 65L14 65L14 66L12 66L12 67L13 67L13 69L14 69L14 68L15 68L15 69L19 69L19 67L20 67L20 66L19 66L19 65L20 65L20 64L23 64L23 67L21 67L21 68L20 68L20 69L21 69L21 68L23 68L23 67L24 67L24 68L25 68L25 69L26 69L26 68L27 68L27 69L28 69L28 68L29 68L29 69L32 69L32 68L33 68L33 69L34 69L34 68L33 68L33 65L37 65L37 66L35 66L35 68L36 68L36 69L38 69L38 68L37 68L37 67L39 67L39 68L42 68L42 67L41 67L41 66L44 66L44 68L43 68L43 69L44 69L44 68L47 68L47 69L49 69L49 68L50 68L50 67L51 67L51 68L52 68L52 67L53 67L53 66L57 66L57 65L59 65L59 66L58 66L58 67L59 67L59 68L60 68L60 69L61 69L61 68L62 68L62 69L64 69L64 67L63 67L63 68L62 68L62 66L63 66L63 65L64 65L64 66L65 66L65 69L68 69L68 68L67 68L67 66L65 66L65 64L68 64L68 65L69 65L69 64L68 64L68 60L67 60L67 59L68 59L68 54L69 54L69 53L67 53L67 52L68 52L68 50L69 50L69 48L68 48L68 49L67 49L67 51L65 51L65 52L66 52L66 53L67 53L67 55L66 55L66 54L65 54L65 55L63 55L63 56L62 56L62 57L63 57L63 56L65 56L65 58L63 58L63 59L62 59L62 58L59 58L59 59L57 59L57 60L58 60L58 61L56 61L56 59L55 59L55 58L57 58L57 57L56 57L56 56L55 56L55 55L53 55L53 54L56 54L56 53L51 53L51 52L53 52L53 51L54 51L54 52L57 52L57 49L59 49L59 47L60 47L60 45L59 45L59 46L56 46L56 44L57 44L57 45L58 45L58 44L57 44L57 42L58 42L58 43L60 43L60 42L58 42L58 41L59 41L59 40L57 40L57 39L56 39L56 40L55 40L55 37L56 37L56 38L57 38L57 37L56 37L56 36L59 36L59 38L60 38L60 39L62 39L62 40L64 40L64 41L65 41L65 42L66 42L66 43L63 43L63 44L66 44L66 47L65 47L65 46L63 46L63 48L64 48L64 49L63 49L63 51L61 51L61 50L62 50L62 49L60 49L60 50L59 50L59 52L60 52L60 53L64 53L64 52L63 52L63 51L64 51L64 49L65 49L65 48L67 48L67 47L68 47L68 45L67 45L67 43L68 43L68 44L69 44L69 43L68 43L68 42L66 42L66 41L65 41L65 40L67 40L67 39L68 39L68 38L67 38L67 37L68 37L68 36L69 36L69 35L68 35L68 34L69 34L69 33L68 33L68 34L67 34L67 33L66 33L66 32L67 32L67 31L68 31L68 32L69 32L69 31L68 31L68 30L69 30L69 28L68 28L68 30L67 30L67 31L64 31L64 29L63 29L63 28L67 28L67 27L68 27L68 25L69 25L69 24L68 24L68 22L66 22L66 23L65 23L65 22L62 22L62 21L63 21L63 20L57 20L57 19L58 19L58 18L57 18L57 19L56 19L56 13L54 13L54 12L57 12L57 9L58 9L58 8L57 8L57 9L56 9L56 8L55 8L55 5L57 5L57 6L56 6L56 7L57 7L57 6L58 6L58 7L59 7L59 8L60 8L60 9L59 9L59 10L58 10L58 12L60 12L60 11L62 11L62 12L61 12L61 13L59 13L59 14L62 14L62 16L60 16L60 15L58 15L58 16L57 16L57 17L59 17L59 18L62 18L62 19L63 19L63 18L66 18L66 17L67 17L67 19L65 19L65 20L66 20L66 21L68 21L68 18L69 18L69 17L67 17L67 16L68 16L68 14L64 14L64 13L63 13L63 14L62 14L62 12L63 12L63 11L65 11L65 12L66 12L66 13L67 13L67 12L68 12L68 10L69 10L69 9L68 9L68 8L67 8L67 9L66 9L66 8L65 8L65 10L64 10L64 8L63 8L63 11L62 11L62 8L61 8L61 6L60 6L60 7L59 7L59 4L56 4L56 3L59 3L59 2L58 2L58 1L61 1L61 0L53 0L53 1L52 1L52 0L51 0L51 1L52 1L52 2L53 2L53 1L55 1L55 2L54 2L54 4L52 4L52 5L51 5L51 6L50 6L50 7L49 7L49 5L50 5L50 4L49 4L49 3L50 3L50 2L49 2L49 1L50 1L50 0L48 0L48 1L45 1L45 0L44 0L44 1L45 1L45 2L44 2L44 3L43 3L43 0L41 0L41 1L35 1L35 2L41 2L41 1L42 1L42 3L43 3L43 4L39 4L39 5L44 5L44 7L45 7L45 9L44 9L44 8L43 8L43 9L41 9L41 12L40 12L40 10L38 10L38 8L41 8L41 6L40 6L40 7L39 7L39 6L38 6L38 5L37 5L37 4L38 4L38 3L37 3L37 4L34 4L34 3L33 3L33 4L32 4L32 3L31 3L31 1L30 1L30 0L28 0L28 1L27 1L27 2L28 2L28 3L29 3L29 4L31 4L31 5L32 5L32 8L31 8L31 9L30 9L30 8L29 8L29 6L30 6L30 7L31 7L31 6L30 6L30 5L29 5L29 6L28 6L28 8L27 8L27 9L26 9L26 7L27 7L27 4L26 4L26 2L25 2L25 3L24 3L24 2L23 2L23 1L25 1L25 0L23 0L23 1L22 1L22 0L21 0L21 3L20 3L20 4L19 4L19 3L18 3L18 2L20 2L20 1L19 1L19 0L16 0L16 1L15 1L15 3L13 3L13 2L12 2L12 1L13 1L13 0L12 0L12 1L11 1L11 2L9 2L9 1L10 1L10 0ZM33 0L33 1L34 1L34 0ZM16 1L16 2L17 2L17 1ZM56 1L56 2L55 2L55 3L56 3L56 2L57 2L57 1ZM29 2L29 3L30 3L30 2ZM45 2L45 3L44 3L44 5L46 5L46 6L45 6L45 7L46 7L46 9L45 9L45 10L42 10L42 12L41 12L41 14L42 14L42 15L40 15L40 14L39 14L39 13L40 13L40 12L38 12L38 11L37 11L37 10L36 10L36 9L33 9L33 10L32 10L32 9L31 9L31 10L32 10L32 11L30 11L30 9L27 9L27 10L26 10L26 9L24 9L24 8L23 8L23 7L24 7L24 6L25 6L25 7L26 7L26 6L25 6L25 5L26 5L26 4L25 4L25 5L24 5L24 6L23 6L23 5L22 5L22 6L21 6L21 4L23 4L23 3L21 3L21 4L20 4L20 5L19 5L19 7L18 7L18 6L17 6L17 5L18 5L18 4L17 4L17 3L15 3L15 4L17 4L17 5L15 5L15 8L20 8L20 11L19 11L19 9L17 9L17 10L16 10L16 9L15 9L15 10L14 10L14 9L13 9L13 10L12 10L12 9L9 9L9 10L10 10L10 11L8 11L8 13L9 13L9 12L10 12L10 13L11 13L11 14L10 14L10 16L9 16L9 15L8 15L8 16L7 16L7 17L8 17L8 18L7 18L7 19L4 19L4 20L7 20L7 21L9 21L9 20L7 20L7 19L10 19L10 20L11 20L11 21L10 21L10 22L9 22L9 25L10 25L10 26L8 26L8 27L6 27L6 28L5 28L5 29L6 29L6 30L7 30L7 31L5 31L5 30L4 30L4 31L5 31L5 32L7 32L7 31L9 31L9 30L10 30L10 29L12 29L12 31L10 31L10 33L9 33L9 34L11 34L11 35L9 35L9 36L10 36L10 39L9 39L9 38L8 38L8 37L4 37L4 32L2 32L2 33L3 33L3 36L2 36L2 37L3 37L3 39L2 39L2 40L3 40L3 41L2 41L2 42L3 42L3 41L4 41L4 43L3 43L3 44L2 44L2 46L3 46L3 47L4 47L4 48L3 48L3 52L2 52L2 53L3 53L3 54L4 54L4 55L5 55L5 56L7 56L7 57L4 57L4 58L7 58L7 59L8 59L8 58L7 58L7 57L9 57L9 58L10 58L10 59L9 59L9 60L10 60L10 59L11 59L11 60L12 60L12 59L13 59L13 58L12 58L12 57L14 57L14 58L16 58L16 57L17 57L17 56L16 56L16 55L17 55L17 54L19 54L19 53L17 53L17 52L19 52L19 51L20 51L20 50L18 50L18 49L21 49L21 50L23 50L23 48L25 48L25 49L26 49L26 54L25 54L25 55L24 55L24 56L25 56L25 57L27 57L27 58L26 58L26 59L27 59L27 58L29 58L29 60L28 60L28 61L27 61L27 60L26 60L26 62L27 62L27 64L28 64L28 65L25 65L25 66L26 66L26 67L27 67L27 68L28 68L28 67L27 67L27 66L28 66L28 65L29 65L29 64L30 64L30 61L29 61L29 60L30 60L30 58L29 58L29 57L30 57L30 56L29 56L29 57L27 57L27 56L28 56L28 55L30 55L30 54L31 54L31 56L32 56L32 57L33 57L33 59L32 59L32 58L31 58L31 63L32 63L32 60L33 60L33 59L34 59L34 58L36 58L36 57L37 57L37 56L35 56L35 55L36 55L36 54L35 54L35 51L36 51L36 50L37 50L37 47L36 47L36 46L37 46L37 44L39 44L39 45L38 45L38 46L39 46L39 47L38 47L38 48L39 48L39 49L38 49L38 51L39 51L39 50L41 50L41 51L42 51L42 50L41 50L41 49L42 49L42 48L43 48L43 47L44 47L44 49L43 49L43 50L44 50L44 49L45 49L45 52L44 52L44 51L43 51L43 52L44 52L44 53L43 53L43 56L42 56L42 57L43 57L43 60L42 60L42 58L41 58L41 59L40 59L40 62L39 62L39 60L38 60L38 59L39 59L39 57L41 57L41 56L39 56L39 55L42 55L42 54L41 54L41 53L42 53L42 52L39 52L39 53L40 53L40 54L37 54L37 55L38 55L38 59L37 59L37 61L38 61L38 62L37 62L37 64L38 64L38 66L39 66L39 67L40 67L40 66L41 66L41 64L44 64L44 66L45 66L45 67L46 67L46 66L47 66L47 68L49 68L49 67L50 67L50 66L52 66L52 65L53 65L53 64L56 64L56 65L57 65L57 64L56 64L56 63L58 63L58 64L60 64L60 63L58 63L58 62L60 62L60 60L62 60L62 59L59 59L59 61L58 61L58 62L56 62L56 61L55 61L55 60L54 60L54 61L55 61L55 62L53 62L53 59L54 59L54 58L53 58L53 59L51 59L51 61L50 61L50 62L47 62L47 60L50 60L50 59L48 59L48 58L52 58L52 57L54 57L54 56L52 56L52 54L51 54L51 53L50 53L50 52L49 52L49 51L48 51L48 50L47 50L47 49L48 49L48 48L51 48L51 49L49 49L49 50L51 50L51 51L53 51L53 50L52 50L52 49L54 49L54 47L53 47L53 46L52 46L52 45L53 45L53 43L51 43L51 41L52 41L52 42L53 42L53 41L54 41L54 39L52 39L52 40L51 40L51 39L50 39L50 38L51 38L51 37L54 37L54 36L51 36L51 35L53 35L53 34L54 34L54 35L55 35L55 36L56 36L56 35L58 35L58 34L59 34L59 33L58 33L58 32L55 32L55 31L56 31L56 29L57 29L57 30L58 30L58 31L60 31L60 30L59 30L59 29L60 29L60 28L59 28L59 29L57 29L57 27L56 27L56 29L55 29L55 26L56 26L56 25L57 25L57 26L58 26L58 27L61 27L61 29L62 29L62 31L63 31L63 32L64 32L64 31L63 31L63 29L62 29L62 27L61 27L61 26L63 26L63 25L67 25L67 24L65 24L65 23L62 23L62 22L61 22L61 23L60 23L60 24L59 24L59 25L57 25L57 23L58 23L58 22L59 22L59 21L57 21L57 20L55 20L55 18L54 18L54 17L53 17L53 16L51 16L51 17L50 17L50 16L49 16L49 17L50 17L50 18L49 18L49 21L50 21L50 23L51 23L51 25L50 25L50 24L49 24L49 23L48 23L48 24L47 24L47 21L46 21L46 20L47 20L47 19L46 19L46 18L48 18L48 17L47 17L47 16L48 16L48 15L53 15L53 14L52 14L52 13L53 13L53 12L54 12L54 11L53 11L53 8L54 8L54 9L55 9L55 11L56 11L56 9L55 9L55 8L54 8L54 6L53 6L53 7L52 7L52 6L51 6L51 7L50 7L50 8L49 8L49 9L50 9L50 10L47 10L47 7L48 7L48 5L49 5L49 4L47 4L47 3L48 3L48 2ZM9 3L9 4L10 4L10 5L11 5L11 3ZM45 3L45 4L46 4L46 3ZM60 3L60 5L61 5L61 3ZM12 4L12 6L11 6L11 7L12 7L12 6L13 6L13 8L14 8L14 4ZM33 5L33 8L36 8L36 5ZM16 6L16 7L17 7L17 6ZM20 6L20 8L21 8L21 9L22 9L22 8L21 8L21 6ZM22 6L22 7L23 7L23 6ZM34 6L34 7L35 7L35 6ZM37 6L37 7L38 7L38 6ZM42 6L42 7L43 7L43 6ZM46 6L46 7L47 7L47 6ZM50 8L50 9L51 9L51 8ZM2 9L2 10L3 10L3 9ZM23 9L23 10L24 10L24 9ZM11 10L11 13L12 13L12 15L11 15L11 16L10 16L10 17L11 17L11 16L12 16L12 17L14 17L14 18L15 18L15 20L16 20L16 16L17 16L17 17L18 17L18 18L17 18L17 19L18 19L18 18L20 18L20 19L19 19L19 20L17 20L17 21L14 21L14 22L12 22L12 23L11 23L11 22L10 22L10 24L12 24L12 23L13 23L13 26L11 26L11 27L10 27L10 28L11 28L11 27L13 27L13 28L12 28L12 29L13 29L13 30L14 30L14 29L15 29L15 28L14 28L14 25L16 25L16 26L15 26L15 27L16 27L16 28L17 28L17 29L18 29L18 31L17 31L17 32L16 32L16 33L15 33L15 34L14 34L14 35L12 35L12 36L11 36L11 37L12 37L12 38L11 38L11 39L10 39L10 40L8 40L8 42L5 42L5 43L8 43L8 45L9 45L9 47L7 47L7 46L6 46L6 45L7 45L7 44L6 44L6 45L4 45L4 46L6 46L6 47L7 47L7 48L4 48L4 49L7 49L7 50L6 50L6 51L7 51L7 50L8 50L8 51L9 51L9 52L8 52L8 53L7 53L7 52L6 52L6 53L7 53L7 54L5 54L5 55L7 55L7 56L9 56L9 57L10 57L10 56L11 56L11 54L13 54L13 55L14 55L14 56L15 56L15 57L16 57L16 56L15 56L15 55L16 55L16 54L15 54L15 55L14 55L14 54L13 54L13 53L16 53L16 52L15 52L15 47L14 47L14 49L12 49L12 48L9 48L9 47L10 47L10 45L11 45L11 47L12 47L12 46L13 46L13 44L14 44L14 45L15 45L15 44L16 44L16 43L15 43L15 44L14 44L14 43L13 43L13 42L12 42L12 41L11 41L11 42L10 42L10 44L9 44L9 41L10 41L10 40L11 40L11 39L12 39L12 40L17 40L17 43L18 43L18 44L17 44L17 45L19 45L19 46L20 46L20 45L21 45L21 46L22 46L22 45L21 45L21 44L20 44L20 43L22 43L22 44L23 44L23 46L24 46L24 47L25 47L25 48L26 48L26 47L25 47L25 46L26 46L26 44L27 44L27 42L26 42L26 40L27 40L27 41L28 41L28 38L26 38L26 39L25 39L25 37L26 37L26 36L27 36L27 37L28 37L28 36L29 36L29 37L30 37L30 38L29 38L29 39L30 39L30 38L31 38L31 36L32 36L32 40L31 40L31 41L30 41L30 40L29 40L29 41L30 41L30 42L29 42L29 43L30 43L30 44L29 44L29 46L30 46L30 45L33 45L33 46L32 46L32 47L33 47L33 46L34 46L34 47L35 47L35 48L36 48L36 47L35 47L35 46L34 46L34 45L33 45L33 44L34 44L34 43L33 43L33 44L32 44L32 43L30 43L30 42L31 42L31 41L32 41L32 42L33 42L33 41L34 41L34 42L35 42L35 44L37 44L37 42L38 42L38 43L39 43L39 44L40 44L40 45L39 45L39 46L40 46L40 47L39 47L39 48L40 48L40 47L41 47L41 48L42 48L42 46L44 46L44 47L45 47L45 49L46 49L46 47L47 47L47 48L48 48L48 47L47 47L47 46L50 46L50 47L51 47L51 48L52 48L52 47L51 47L51 46L50 46L50 45L51 45L51 43L49 43L49 44L48 44L48 42L46 42L46 43L47 43L47 44L45 44L45 42L44 42L44 40L41 40L41 38L43 38L43 39L45 39L45 40L47 40L47 41L49 41L49 42L50 42L50 39L49 39L49 38L50 38L50 36L49 36L49 34L50 34L50 35L51 35L51 34L50 34L50 33L52 33L52 34L53 34L53 33L52 33L52 32L53 32L53 31L55 31L55 29L53 29L53 31L52 31L52 32L51 32L51 31L49 31L49 30L50 30L50 29L51 29L51 28L52 28L52 27L54 27L54 26L55 26L55 25L56 25L56 23L55 23L55 22L56 22L56 21L53 21L53 24L55 24L55 25L54 25L54 26L52 26L52 25L51 25L51 26L50 26L50 25L49 25L49 24L48 24L48 25L47 25L47 24L46 24L46 22L44 22L44 20L43 20L43 17L44 17L44 16L45 16L45 18L44 18L44 19L45 19L45 18L46 18L46 16L47 16L47 14L50 14L50 13L51 13L51 11L50 11L50 13L49 13L49 12L47 12L47 14L44 14L44 12L43 12L43 13L42 13L42 14L44 14L44 16L42 16L42 17L41 17L41 18L39 18L39 19L37 19L37 18L38 18L38 17L37 17L37 16L36 16L36 17L34 17L34 18L33 18L33 16L34 16L34 15L33 15L33 16L32 16L32 14L31 14L31 13L32 13L32 12L27 12L27 13L26 13L26 10L25 10L25 12L24 12L24 11L23 11L23 12L24 12L24 13L21 13L21 14L22 14L22 15L23 15L23 16L26 16L26 15L24 15L24 14L27 14L27 16L28 16L28 14L27 14L27 13L30 13L30 14L29 14L29 15L31 15L31 16L29 16L29 17L31 17L31 16L32 16L32 18L29 18L29 19L30 19L30 20L28 20L28 19L27 19L27 18L28 18L28 17L27 17L27 18L26 18L26 17L22 17L22 16L21 16L21 15L20 15L20 12L22 12L22 11L20 11L20 12L19 12L19 11L18 11L18 10L17 10L17 11L18 11L18 12L15 12L15 11L16 11L16 10L15 10L15 11L14 11L14 10L13 10L13 11L12 11L12 10ZM27 10L27 11L28 11L28 10ZM35 10L35 11L36 11L36 10ZM59 10L59 11L60 11L60 10ZM66 10L66 11L67 11L67 10ZM6 11L6 12L5 12L5 13L6 13L6 14L7 14L7 13L6 13L6 12L7 12L7 11ZM52 11L52 12L53 12L53 11ZM13 12L13 15L14 15L14 16L16 16L16 15L17 15L17 16L18 16L18 17L21 17L21 18L22 18L22 17L21 17L21 16L20 16L20 15L19 15L19 14L18 14L18 13L17 13L17 14L14 14L14 13L15 13L15 12ZM34 12L34 13L33 13L33 14L34 14L34 13L36 13L36 14L35 14L35 15L39 15L39 16L40 16L40 15L39 15L39 14L38 14L38 12L37 12L37 13L36 13L36 12ZM1 14L1 15L2 15L2 16L1 16L1 17L2 17L2 16L4 16L4 15L3 15L3 14ZM17 14L17 15L18 15L18 14ZM54 14L54 16L55 16L55 14ZM63 14L63 15L64 15L64 16L62 16L62 18L63 18L63 17L66 17L66 16L65 16L65 15L64 15L64 14ZM45 15L45 16L46 16L46 15ZM8 16L8 17L9 17L9 16ZM36 17L36 18L35 18L35 19L32 19L32 20L34 20L34 21L32 21L32 22L31 22L31 21L27 21L27 20L26 20L26 21L25 21L25 22L26 22L26 25L25 25L25 28L26 28L26 29L25 29L25 30L22 30L22 29L23 29L23 28L24 28L24 27L23 27L23 26L24 26L24 25L22 25L22 24L20 24L20 22L21 22L21 23L22 23L22 22L23 22L23 20L24 20L24 19L26 19L26 18L23 18L23 20L22 20L22 19L21 19L21 21L20 21L20 20L19 20L19 21L20 21L20 22L18 22L18 21L17 21L17 22L15 22L15 24L16 24L16 25L17 25L17 23L18 23L18 24L19 24L19 25L20 25L20 26L18 26L18 27L17 27L17 28L20 28L20 31L19 31L19 32L20 32L20 33L19 33L19 34L17 34L17 33L18 33L18 32L17 32L17 33L16 33L16 35L17 35L17 36L15 36L15 35L14 35L14 36L15 36L15 38L16 38L16 39L17 39L17 40L19 40L19 41L18 41L18 42L19 42L19 43L20 43L20 42L22 42L22 43L24 43L24 44L26 44L26 43L25 43L25 41L24 41L24 40L25 40L25 39L23 39L23 38L22 38L22 37L25 37L25 36L26 36L26 35L27 35L27 36L28 36L28 35L27 35L27 34L28 34L28 33L29 33L29 30L31 30L31 29L32 29L32 28L31 28L31 29L28 29L28 28L30 28L30 27L33 27L33 28L34 28L34 29L33 29L33 30L32 30L32 32L34 32L34 31L33 31L33 30L34 30L34 29L36 29L36 30L35 30L35 31L36 31L36 30L37 30L37 31L38 31L38 30L40 30L40 31L43 31L43 32L39 32L39 33L38 33L38 32L37 32L37 33L38 33L38 35L37 35L37 36L38 36L38 37L36 37L36 38L35 38L35 37L34 37L34 38L33 38L33 40L32 40L32 41L33 41L33 40L34 40L34 41L35 41L35 39L36 39L36 38L38 38L38 39L37 39L37 40L36 40L36 41L38 41L38 42L39 42L39 43L40 43L40 44L41 44L41 43L40 43L40 41L41 41L41 40L39 40L39 39L40 39L40 38L41 38L41 37L42 37L42 36L44 36L44 37L45 37L45 38L47 38L47 40L49 40L49 39L48 39L48 38L49 38L49 37L48 37L48 38L47 38L47 37L45 37L45 36L48 36L48 35L47 35L47 34L48 34L48 33L46 33L46 32L49 32L49 33L50 33L50 32L49 32L49 31L47 31L47 29L46 29L46 28L49 28L49 27L48 27L48 26L49 26L49 25L48 25L48 26L47 26L47 25L46 25L46 24L45 24L45 23L44 23L44 22L43 22L43 24L44 24L44 25L43 25L43 26L46 26L46 28L43 28L43 30L42 30L42 27L39 27L39 28L40 28L40 29L38 29L38 27L37 27L37 29L36 29L36 28L35 28L35 27L36 27L36 26L35 26L35 27L33 27L33 25L32 25L32 24L34 24L34 25L37 25L37 24L39 24L39 25L38 25L38 26L41 26L41 25L42 25L42 24L39 24L39 23L41 23L41 21L43 21L43 20L42 20L42 19L41 19L41 20L40 20L40 19L39 19L39 20L40 20L40 22L37 22L37 23L33 23L33 22L34 22L34 21L35 21L35 20L37 20L37 21L38 21L38 20L37 20L37 19L36 19L36 18L37 18L37 17ZM50 18L50 19L51 19L51 20L50 20L50 21L51 21L51 22L52 22L52 21L51 21L51 20L53 20L53 19L54 19L54 18L53 18L53 19L52 19L52 18ZM11 19L11 20L12 20L12 21L13 21L13 20L14 20L14 19L13 19L13 20L12 20L12 19ZM21 21L21 22L22 22L22 21ZM7 22L7 23L8 23L8 22ZM27 22L27 23L28 23L28 25L29 25L29 26L28 26L28 27L29 27L29 26L32 26L32 25L31 25L31 24L32 24L32 23L31 23L31 22L30 22L30 23L29 23L29 22ZM23 23L23 24L24 24L24 23ZM61 23L61 24L62 24L62 25L63 25L63 24L62 24L62 23ZM29 24L29 25L30 25L30 24ZM21 25L21 26L22 26L22 25ZM26 25L26 28L27 28L27 25ZM59 25L59 26L61 26L61 25ZM1 26L1 28L2 28L2 26ZM64 26L64 27L67 27L67 26ZM20 27L20 28L22 28L22 27ZM50 27L50 28L51 28L51 27ZM6 28L6 29L8 29L8 28ZM13 28L13 29L14 29L14 28ZM27 29L27 30L25 30L25 31L26 31L26 32L23 32L23 31L22 31L22 30L21 30L21 32L23 32L23 33L22 33L22 35L21 35L21 36L19 36L19 35L20 35L20 34L19 34L19 35L18 35L18 36L17 36L17 38L19 38L19 39L20 39L20 41L19 41L19 42L20 42L20 41L22 41L22 40L21 40L21 39L22 39L22 38L21 38L21 39L20 39L20 37L21 37L21 36L25 36L25 35L26 35L26 34L25 34L25 33L28 33L28 31L27 31L27 30L28 30L28 29ZM37 29L37 30L38 30L38 29ZM48 29L48 30L49 30L49 29ZM15 30L15 31L16 31L16 30ZM12 31L12 32L11 32L11 34L12 34L12 32L13 32L13 33L14 33L14 31ZM44 31L44 32L43 32L43 33L40 33L40 36L41 36L41 34L43 34L43 33L44 33L44 36L45 36L45 33L44 33L44 32L46 32L46 31ZM54 32L54 34L55 34L55 35L56 35L56 34L55 34L55 32ZM5 33L5 36L8 36L8 33ZM31 33L31 34L30 34L30 35L32 35L32 33ZM33 33L33 36L36 36L36 33ZM61 33L61 36L64 36L64 33ZM6 34L6 35L7 35L7 34ZM23 34L23 35L24 35L24 34ZM34 34L34 35L35 35L35 34ZM62 34L62 35L63 35L63 34ZM65 34L65 35L66 35L66 34ZM59 35L59 36L60 36L60 35ZM67 35L67 36L68 36L68 35ZM65 36L65 37L64 37L64 38L63 38L63 37L62 37L62 39L65 39L65 38L66 38L66 39L67 39L67 38L66 38L66 36ZM13 37L13 38L14 38L14 37ZM4 38L4 39L3 39L3 40L4 40L4 41L7 41L7 40L6 40L6 39L8 39L8 38ZM34 38L34 39L35 39L35 38ZM4 39L4 40L5 40L5 39ZM38 40L38 41L39 41L39 40ZM56 40L56 42L57 42L57 40ZM68 40L68 41L69 41L69 40ZM15 41L15 42L16 42L16 41ZM23 41L23 42L24 42L24 41ZM62 41L62 42L61 42L61 43L62 43L62 42L63 42L63 41ZM43 42L43 43L44 43L44 42ZM54 42L54 43L55 43L55 42ZM12 43L12 44L13 44L13 43ZM43 44L43 45L45 45L45 46L47 46L47 45L45 45L45 44ZM49 44L49 45L50 45L50 44ZM54 44L54 45L55 45L55 44ZM41 45L41 46L42 46L42 45ZM61 45L61 48L62 48L62 45ZM16 46L16 49L18 49L18 48L17 48L17 47L18 47L18 46ZM27 46L27 48L29 48L29 51L30 51L30 49L31 49L31 50L32 50L32 51L31 51L31 52L28 52L28 51L27 51L27 52L28 52L28 53L27 53L27 54L26 54L26 55L25 55L25 56L26 56L26 55L27 55L27 54L28 54L28 53L31 53L31 52L33 52L33 53L32 53L32 54L33 54L33 55L34 55L34 54L33 54L33 53L34 53L34 52L33 52L33 51L34 51L34 50L33 50L33 48L32 48L32 49L31 49L31 47L30 47L30 48L29 48L29 47L28 47L28 46ZM55 46L55 48L56 48L56 49L55 49L55 50L56 50L56 49L57 49L57 48L56 48L56 46ZM20 47L20 48L22 48L22 47ZM7 48L7 49L8 49L8 48ZM9 49L9 51L10 51L10 49ZM11 49L11 52L12 52L12 53L13 53L13 52L14 52L14 51L13 51L13 50L12 50L12 49ZM27 49L27 50L28 50L28 49ZM35 49L35 50L36 50L36 49ZM24 50L24 51L23 51L23 52L20 52L20 55L18 55L18 56L20 56L20 59L18 59L18 60L16 60L16 59L14 59L14 61L9 61L9 62L11 62L11 63L12 63L12 62L13 62L13 63L14 63L14 61L15 61L15 63L16 63L16 65L15 65L15 64L14 64L14 65L15 65L15 66L14 66L14 67L16 67L16 68L17 68L17 67L16 67L16 66L17 66L17 65L18 65L18 64L17 64L17 63L18 63L18 62L19 62L19 64L20 64L20 63L25 63L25 64L26 64L26 63L25 63L25 62L23 62L23 61L25 61L25 60L24 60L24 59L22 59L22 58L24 58L24 57L22 57L22 56L20 56L20 55L22 55L22 54L24 54L24 53L25 53L25 52L24 52L24 51L25 51L25 50ZM4 51L4 53L5 53L5 51ZM12 51L12 52L13 52L13 51ZM46 51L46 52L45 52L45 53L44 53L44 56L43 56L43 57L44 57L44 56L46 56L46 57L50 57L50 56L51 56L51 54L50 54L50 53L49 53L49 52L47 52L47 51ZM60 51L60 52L61 52L61 51ZM9 52L9 54L7 54L7 55L9 55L9 54L10 54L10 52ZM23 52L23 53L24 53L24 52ZM36 52L36 53L38 53L38 52ZM45 53L45 54L46 54L46 56L49 56L49 55L50 55L50 54L47 54L47 53ZM57 54L57 56L58 56L58 54ZM59 54L59 55L62 55L62 54ZM65 55L65 56L66 56L66 58L65 58L65 59L67 59L67 56L66 56L66 55ZM60 56L60 57L61 57L61 56ZM21 57L21 58L22 58L22 57ZM45 58L45 59L46 59L46 58ZM3 60L3 61L5 61L5 60ZM15 60L15 61L16 61L16 60ZM18 60L18 61L17 61L17 62L16 62L16 63L17 63L17 62L18 62L18 61L19 61L19 62L20 62L20 61L21 61L21 62L22 62L22 61L21 61L21 60L20 60L20 61L19 61L19 60ZM41 60L41 62L42 62L42 63L43 63L43 61L44 61L44 60L43 60L43 61L42 61L42 60ZM45 60L45 61L46 61L46 60ZM65 60L65 61L67 61L67 60ZM33 61L33 64L36 64L36 61ZM51 61L51 62L52 62L52 63L53 63L53 62L52 62L52 61ZM61 61L61 64L64 64L64 61ZM34 62L34 63L35 63L35 62ZM38 62L38 64L41 64L41 63L39 63L39 62ZM44 62L44 64L45 64L45 66L46 66L46 64L45 64L45 63L46 63L46 62ZM62 62L62 63L63 63L63 62ZM65 62L65 63L66 63L66 62ZM28 63L28 64L29 64L29 63ZM47 63L47 66L48 66L48 67L49 67L49 66L50 66L50 65L49 65L49 64L50 64L50 63ZM9 64L9 66L10 66L10 65L11 65L11 64ZM30 65L30 66L29 66L29 68L32 68L32 67L31 67L31 66L32 66L32 65ZM61 65L61 66L62 66L62 65ZM18 66L18 67L19 67L19 66ZM55 67L55 68L53 68L53 69L55 69L55 68L57 68L57 67ZM0 0L0 7L7 7L7 0ZM1 1L1 6L6 6L6 1ZM2 2L2 5L5 5L5 2ZM62 0L62 7L69 7L69 0ZM63 1L63 6L68 6L68 1ZM64 2L64 5L67 5L67 2ZM0 62L0 69L7 69L7 62ZM1 63L1 68L6 68L6 63ZM2 64L2 67L5 67L5 64Z" fill="#000000"/></g></g></svg>
