<?xml version="1.0" encoding="UTF-8"?>
<svg xmlns="http://www.w3.org/2000/svg" version="1.1" width="300" height="300" viewBox="0 0 300 300"><rect x="0" y="0" width="300" height="300" fill="#ffffff"/><g transform="scale(4.348)"><g transform="translate(0,0)"><path fill-rule="evenodd" d="M8 0L8 4L9 4L9 5L8 5L8 7L9 7L9 5L10 5L10 7L11 7L11 8L12 8L12 10L11 10L11 9L9 9L9 10L11 10L11 11L10 11L10 12L13 12L13 13L8 13L8 14L11 14L11 15L10 15L10 16L9 16L9 15L8 15L8 16L6 16L6 17L7 17L7 18L6 18L6 19L5 19L5 20L2 20L2 19L1 19L1 21L4 21L4 22L1 22L1 23L0 23L0 27L2 27L2 26L1 26L1 25L2 25L2 24L3 24L3 23L4 23L4 25L7 25L7 26L5 26L5 27L7 27L7 28L6 28L6 29L5 29L5 28L4 28L4 29L3 29L3 28L1 28L1 31L2 31L2 32L1 32L1 33L0 33L0 39L2 39L2 37L3 37L3 36L4 36L4 37L8 37L8 39L7 39L7 38L6 38L6 39L7 39L7 40L6 40L6 41L7 41L7 42L5 42L5 41L4 41L4 43L3 43L3 42L2 42L2 41L3 41L3 40L5 40L5 38L3 38L3 40L0 40L0 42L2 42L2 44L1 44L1 43L0 43L0 44L1 44L1 45L0 45L0 48L1 48L1 49L0 49L0 50L4 50L4 52L2 52L2 51L0 51L0 53L1 53L1 52L2 52L2 54L1 54L1 55L0 55L0 61L1 61L1 58L2 58L2 59L3 59L3 57L1 57L1 56L4 56L4 59L10 59L10 58L11 58L11 60L6 60L6 61L8 61L8 62L9 62L9 63L8 63L8 65L11 65L11 68L10 68L10 67L8 67L8 69L9 69L9 68L10 68L10 69L12 69L12 67L15 67L15 68L13 68L13 69L15 69L15 68L17 68L17 69L19 69L19 67L20 67L20 66L21 66L21 67L22 67L22 68L23 68L23 67L25 67L25 68L24 68L24 69L25 69L25 68L26 68L26 69L27 69L27 67L28 67L28 66L30 66L30 65L31 65L31 67L30 67L30 68L29 68L29 69L31 69L31 68L32 68L32 69L33 69L33 68L32 68L32 67L34 67L34 68L35 68L35 66L34 66L34 65L37 65L37 67L39 67L39 66L40 66L40 63L41 63L41 67L40 67L40 68L38 68L38 69L40 69L40 68L41 68L41 67L42 67L42 68L43 68L43 63L44 63L44 69L46 69L46 67L45 67L45 63L44 63L44 62L45 62L45 60L46 60L46 61L47 61L47 63L46 63L46 64L47 64L47 65L49 65L49 59L50 59L50 62L51 62L51 61L52 61L52 60L51 60L51 59L53 59L53 62L52 62L52 63L51 63L51 65L50 65L50 67L48 67L48 66L47 66L47 69L50 69L50 67L51 67L51 69L52 69L52 68L53 68L53 69L54 69L54 67L55 67L55 66L56 66L56 65L57 65L57 66L58 66L58 68L56 68L56 69L59 69L59 66L58 66L58 65L59 65L59 64L60 64L60 66L61 66L61 69L63 69L63 68L64 68L64 69L67 69L67 68L64 68L64 67L67 67L67 66L69 66L69 64L68 64L68 63L67 63L67 65L66 65L66 66L64 66L64 65L65 65L65 63L66 63L66 62L67 62L67 61L68 61L68 60L69 60L69 59L68 59L68 58L69 58L69 55L68 55L68 53L69 53L69 52L68 52L68 50L66 50L66 49L65 49L65 50L64 50L64 48L65 48L65 47L66 47L66 46L67 46L67 49L69 49L69 47L68 47L68 46L69 46L69 45L68 45L68 44L69 44L69 43L68 43L68 42L69 42L69 41L68 41L68 38L69 38L69 35L68 35L68 33L66 33L66 32L63 32L63 31L64 31L64 30L63 30L63 29L64 29L64 28L65 28L65 29L66 29L66 28L65 28L65 26L64 26L64 24L65 24L65 25L68 25L68 24L69 24L69 23L68 23L68 22L69 22L69 20L68 20L68 18L67 18L67 17L68 17L68 16L69 16L69 15L68 15L68 13L69 13L69 12L68 12L68 9L69 9L69 8L65 8L65 9L64 9L64 8L63 8L63 9L60 9L60 8L61 8L61 6L60 6L60 8L58 8L58 9L57 9L57 6L58 6L58 7L59 7L59 4L58 4L58 5L57 5L57 4L56 4L56 3L54 3L54 4L53 4L53 2L55 2L55 0L53 0L53 1L52 1L52 0L50 0L50 5L48 5L48 7L49 7L49 8L47 8L47 6L46 6L46 7L45 7L45 6L44 6L44 5L46 5L46 4L47 4L47 2L48 2L48 3L49 3L49 1L48 1L48 0L47 0L47 2L46 2L46 0L45 0L45 1L44 1L44 0L41 0L41 1L40 1L40 0L34 0L34 1L35 1L35 2L34 2L34 4L32 4L32 5L31 5L31 4L29 4L29 3L27 3L27 4L26 4L26 1L28 1L28 2L30 2L30 1L31 1L31 2L32 2L32 1L33 1L33 0L32 0L32 1L31 1L31 0L30 0L30 1L29 1L29 0L23 0L23 1L21 1L21 0L15 0L15 1L16 1L16 3L17 3L17 4L16 4L16 5L18 5L18 7L17 7L17 6L16 6L16 7L17 7L17 9L16 9L16 8L15 8L15 4L13 4L13 3L12 3L12 2L14 2L14 1L12 1L12 0L10 0L10 1L9 1L9 0ZM57 0L57 1L56 1L56 2L57 2L57 3L59 3L59 2L57 2L57 1L61 1L61 0ZM18 1L18 2L17 2L17 3L18 3L18 5L19 5L19 10L16 10L16 9L15 9L15 8L14 8L14 6L13 6L13 9L15 9L15 10L14 10L14 11L15 11L15 12L14 12L14 13L13 13L13 14L12 14L12 16L14 16L14 17L15 17L15 16L14 16L14 15L15 15L15 14L16 14L16 15L18 15L18 13L17 13L17 12L18 12L18 11L19 11L19 10L20 10L20 4L19 4L19 3L21 3L21 9L22 9L22 10L21 10L21 11L20 11L20 13L19 13L19 14L20 14L20 16L22 16L22 17L19 17L19 16L18 16L18 17L17 17L17 18L15 18L15 20L12 20L12 21L11 21L11 23L12 23L12 25L11 25L11 26L9 26L9 29L8 29L8 28L7 28L7 29L6 29L6 30L7 30L7 31L4 31L4 32L2 32L2 33L1 33L1 34L2 34L2 35L3 35L3 33L4 33L4 32L7 32L7 31L8 31L8 32L10 32L10 31L11 31L11 32L12 32L12 30L10 30L10 28L11 28L11 26L12 26L12 27L13 27L13 28L12 28L12 29L13 29L13 32L14 32L14 33L13 33L13 34L14 34L14 33L16 33L16 35L12 35L12 37L13 37L13 40L14 40L14 41L13 41L13 42L12 42L12 38L11 38L11 35L10 35L10 37L9 37L9 38L11 38L11 39L8 39L8 40L7 40L7 41L8 41L8 40L9 40L9 41L11 41L11 42L12 42L12 43L13 43L13 44L12 44L12 45L11 45L11 44L8 44L8 43L9 43L9 42L7 42L7 43L4 43L4 44L2 44L2 46L1 46L1 47L3 47L3 48L2 48L2 49L3 49L3 48L4 48L4 49L5 49L5 50L7 50L7 51L6 51L6 52L7 52L7 53L5 53L5 55L6 55L6 56L5 56L5 57L6 57L6 58L9 58L9 57L10 57L10 56L11 56L11 58L12 58L12 56L11 56L11 54L13 54L13 55L15 55L15 53L12 53L12 52L10 52L10 51L15 51L15 52L19 52L19 51L20 51L20 50L21 50L21 51L22 51L22 49L24 49L24 48L23 48L23 44L24 44L24 43L23 43L23 44L22 44L22 42L23 42L23 41L24 41L24 42L27 42L27 41L28 41L28 42L29 42L29 43L30 43L30 41L31 41L31 40L32 40L32 39L34 39L34 42L33 42L33 41L32 41L32 42L31 42L31 43L32 43L32 44L31 44L31 45L30 45L30 46L31 46L31 47L30 47L30 48L32 48L32 49L31 49L31 52L32 52L32 49L33 49L33 48L34 48L34 50L35 50L35 49L36 49L36 51L35 51L35 52L34 52L34 51L33 51L33 53L31 53L31 54L30 54L30 55L29 55L29 56L28 56L28 54L29 54L29 53L27 53L27 54L26 54L26 52L25 52L25 50L26 50L26 51L28 51L28 50L29 50L29 52L30 52L30 49L29 49L29 48L28 48L28 47L29 47L29 45L28 45L28 43L27 43L27 45L28 45L28 46L26 46L26 43L25 43L25 47L26 47L26 48L28 48L28 49L27 49L27 50L26 50L26 49L25 49L25 50L23 50L23 52L22 52L22 54L20 54L20 53L19 53L19 54L18 54L18 53L16 53L16 56L13 56L13 59L14 59L14 61L13 61L13 62L12 62L12 60L11 60L11 61L9 61L9 62L12 62L12 63L10 63L10 64L11 64L11 65L12 65L12 66L13 66L13 65L12 65L12 64L14 64L14 62L15 62L15 61L16 61L16 63L17 63L17 65L16 65L16 64L15 64L15 65L16 65L16 66L15 66L15 67L16 67L16 66L17 66L17 67L19 67L19 66L17 66L17 65L18 65L18 64L19 64L19 65L20 65L20 64L21 64L21 63L20 63L20 60L22 60L22 63L24 63L24 62L23 62L23 60L22 60L22 58L23 58L23 59L24 59L24 61L26 61L26 62L27 62L27 64L26 64L26 63L25 63L25 65L29 65L29 64L31 64L31 65L32 65L32 66L33 66L33 65L32 65L32 64L31 64L31 63L32 63L32 62L31 62L31 63L29 63L29 60L28 60L28 59L29 59L29 57L30 57L30 56L31 56L31 55L32 55L32 54L33 54L33 53L34 53L34 57L31 57L31 60L33 60L33 59L34 59L34 60L37 60L37 62L38 62L38 64L37 64L37 65L38 65L38 64L39 64L39 63L40 63L40 62L41 62L41 60L39 60L39 58L40 58L40 59L41 59L41 58L40 58L40 57L41 57L41 56L42 56L42 57L44 57L44 54L45 54L45 53L46 53L46 54L47 54L47 55L48 55L48 54L49 54L49 56L50 56L50 57L51 57L51 55L52 55L52 58L53 58L53 59L54 59L54 56L55 56L55 61L56 61L56 60L57 60L57 61L58 61L58 63L57 63L57 65L58 65L58 63L59 63L59 61L60 61L60 60L59 60L59 61L58 61L58 58L59 58L59 59L60 59L60 58L62 58L62 59L61 59L61 60L64 60L64 59L65 59L65 61L66 61L66 60L67 60L67 58L68 58L68 55L67 55L67 51L66 51L66 50L65 50L65 51L64 51L64 50L63 50L63 49L62 49L62 48L64 48L64 47L63 47L63 46L62 46L62 48L60 48L60 47L61 47L61 46L60 46L60 47L59 47L59 49L58 49L58 46L59 46L59 45L61 45L61 43L64 43L64 46L66 46L66 44L68 44L68 43L67 43L67 42L68 42L68 41L64 41L64 42L61 42L61 41L63 41L63 39L64 39L64 40L67 40L67 39L66 39L66 37L67 37L67 38L68 38L68 35L67 35L67 34L66 34L66 33L65 33L65 37L63 37L63 38L62 38L62 39L61 39L61 38L60 38L60 37L59 37L59 35L58 35L58 39L59 39L59 38L60 38L60 39L61 39L61 41L60 41L60 40L59 40L59 41L58 41L58 40L57 40L57 39L56 39L56 36L57 36L57 35L56 35L56 34L57 34L57 33L56 33L56 32L52 32L52 33L51 33L51 30L50 30L50 29L51 29L51 27L50 27L50 28L49 28L49 29L48 29L48 30L47 30L47 28L46 28L46 27L43 27L43 26L41 26L41 25L42 25L42 24L43 24L43 25L44 25L44 24L45 24L45 23L44 23L44 20L46 20L46 19L48 19L48 20L49 20L49 19L50 19L50 20L51 20L51 19L52 19L52 21L51 21L51 22L50 22L50 21L49 21L49 22L50 22L50 24L49 24L49 25L48 25L48 23L47 23L47 25L46 25L46 26L47 26L47 25L48 25L48 27L49 27L49 26L50 26L50 25L51 25L51 24L52 24L52 27L53 27L53 24L54 24L54 25L56 25L56 27L55 27L55 28L52 28L52 29L56 29L56 28L57 28L57 29L58 29L58 31L59 31L59 29L58 29L58 28L59 28L59 27L58 27L58 26L60 26L60 25L61 25L61 27L60 27L60 28L61 28L61 31L63 31L63 30L62 30L62 29L63 29L63 27L64 27L64 26L63 26L63 27L62 27L62 24L64 24L64 23L65 23L65 24L68 24L68 23L66 23L66 22L68 22L68 20L67 20L67 19L66 19L66 22L64 22L64 21L65 21L65 20L64 20L64 21L63 21L63 22L62 22L62 20L63 20L63 19L64 19L64 17L65 17L65 18L66 18L66 16L67 16L67 13L66 13L66 12L67 12L67 10L66 10L66 11L64 11L64 10L63 10L63 12L61 12L61 10L60 10L60 13L58 13L58 14L56 14L56 12L55 12L55 11L57 11L57 9L56 9L56 6L55 6L55 9L56 9L56 10L53 10L53 12L52 12L52 11L51 11L51 12L50 12L50 13L49 13L49 14L50 14L50 16L51 16L51 15L52 15L52 17L51 17L51 18L50 18L50 17L49 17L49 18L47 18L47 17L46 17L46 15L47 15L47 13L46 13L46 15L45 15L45 17L46 17L46 19L44 19L44 18L41 18L41 17L42 17L42 16L40 16L40 19L39 19L39 18L38 18L38 16L39 16L39 15L42 15L42 13L43 13L43 14L44 14L44 12L42 12L42 10L41 10L41 9L43 9L43 11L45 11L45 12L46 12L46 10L47 10L47 8L45 8L45 7L44 7L44 6L43 6L43 8L40 8L40 10L41 10L41 14L40 14L40 13L39 13L39 15L37 15L37 14L36 14L36 13L37 13L37 12L36 12L36 13L33 13L33 15L32 15L32 14L31 14L31 13L32 13L32 12L34 12L34 10L35 10L35 11L36 11L36 9L34 9L34 10L33 10L33 9L32 9L32 11L31 11L31 13L29 13L29 12L28 12L28 11L27 11L27 10L26 10L26 8L25 8L25 7L26 7L26 6L27 6L27 9L28 9L28 10L29 10L29 11L30 11L30 9L31 9L31 8L32 8L32 6L31 6L31 5L30 5L30 6L29 6L29 4L28 4L28 5L26 5L26 4L25 4L25 3L23 3L23 4L25 4L25 5L24 5L24 6L23 6L23 5L22 5L22 3L21 3L21 2L20 2L20 1ZM24 1L24 2L25 2L25 1ZM37 1L37 2L35 2L35 4L36 4L36 3L38 3L38 4L39 4L39 7L38 7L38 5L37 5L37 7L38 7L38 8L37 8L37 9L38 9L38 8L39 8L39 7L40 7L40 1ZM41 1L41 2L42 2L42 3L44 3L44 4L43 4L43 5L44 5L44 4L45 4L45 3L46 3L46 2L45 2L45 3L44 3L44 2L42 2L42 1ZM51 1L51 2L52 2L52 1ZM10 2L10 3L9 3L9 4L12 4L12 5L13 5L13 4L12 4L12 3L11 3L11 2ZM51 3L51 7L50 7L50 6L49 6L49 7L50 7L50 8L49 8L49 10L50 10L50 8L51 8L51 7L52 7L52 3ZM60 3L60 5L61 5L61 3ZM33 5L33 8L36 8L36 5ZM11 6L11 7L12 7L12 6ZM22 6L22 8L24 8L24 9L23 9L23 10L22 10L22 11L21 11L21 13L20 13L20 14L22 14L22 11L24 11L24 12L25 12L25 13L23 13L23 15L22 15L22 16L23 16L23 15L24 15L24 14L25 14L25 13L27 13L27 15L28 15L28 16L26 16L26 15L25 15L25 17L22 17L22 18L20 18L20 19L19 19L19 17L18 17L18 18L17 18L17 19L16 19L16 20L15 20L15 22L16 22L16 23L17 23L17 22L16 22L16 21L18 21L18 22L19 22L19 24L17 24L17 25L15 25L15 24L14 24L14 25L15 25L15 26L14 26L14 27L16 27L16 26L17 26L17 25L20 25L20 27L19 27L19 26L18 26L18 27L19 27L19 28L17 28L17 29L18 29L18 30L16 30L16 29L14 29L14 31L16 31L16 33L17 33L17 35L16 35L16 37L14 37L14 36L13 36L13 37L14 37L14 39L16 39L16 40L15 40L15 41L16 41L16 40L17 40L17 42L16 42L16 43L15 43L15 46L14 46L14 45L13 45L13 47L12 47L12 46L11 46L11 47L10 47L10 46L8 46L8 45L7 45L7 44L6 44L6 45L7 45L7 46L5 46L5 44L4 44L4 48L6 48L6 49L7 49L7 50L8 50L8 52L9 52L9 53L7 53L7 54L6 54L6 55L7 55L7 56L6 56L6 57L8 57L8 56L10 56L10 52L9 52L9 51L10 51L10 50L8 50L8 48L6 48L6 47L10 47L10 49L11 49L11 50L12 50L12 48L13 48L13 49L14 49L14 48L15 48L15 50L16 50L16 51L18 51L18 50L19 50L19 49L22 49L22 47L21 47L21 46L22 46L22 44L20 44L20 43L18 43L18 44L17 44L17 42L18 42L18 41L20 41L20 42L22 42L22 41L21 41L21 39L22 39L22 40L23 40L23 39L25 39L25 36L24 36L24 37L23 37L23 38L22 38L22 36L23 36L23 35L22 35L22 36L20 36L20 39L18 39L18 38L16 38L16 37L19 37L19 35L20 35L20 34L21 34L21 33L22 33L22 32L23 32L23 34L26 34L26 35L28 35L28 34L29 34L29 37L30 37L30 39L27 39L27 40L24 40L24 41L27 41L27 40L29 40L29 41L30 41L30 40L31 40L31 37L35 37L35 38L34 38L34 39L36 39L36 37L37 37L37 39L38 39L38 38L39 38L39 37L40 37L40 36L42 36L42 37L41 37L41 38L40 38L40 39L39 39L39 41L38 41L38 40L36 40L36 41L38 41L38 43L37 43L37 44L38 44L38 45L36 45L36 46L35 46L35 47L36 47L36 48L37 48L37 49L38 49L38 50L39 50L39 51L37 51L37 52L35 52L35 55L36 55L36 54L37 54L37 53L38 53L38 52L39 52L39 57L38 57L38 58L39 58L39 57L40 57L40 55L43 55L43 54L44 54L44 53L45 53L45 50L46 50L46 51L47 51L47 52L46 52L46 53L47 53L47 54L48 54L48 53L49 53L49 52L50 52L50 51L49 51L49 49L50 49L50 50L51 50L51 51L52 51L52 52L51 52L51 53L50 53L50 54L52 54L52 52L53 52L53 53L54 53L54 55L55 55L55 56L56 56L56 57L57 57L57 58L58 58L58 57L57 57L57 56L56 56L56 53L57 53L57 54L58 54L58 55L59 55L59 56L60 56L60 57L59 57L59 58L60 58L60 57L62 57L62 58L64 58L64 55L66 55L66 54L64 54L64 53L62 53L62 52L64 52L64 51L62 51L62 49L61 49L61 51L59 51L59 50L58 50L58 49L57 49L57 48L56 48L56 50L55 50L55 49L54 49L54 48L55 48L55 47L57 47L57 46L58 46L58 45L59 45L59 44L58 44L58 43L59 43L59 42L58 42L58 41L57 41L57 40L56 40L56 39L54 39L54 38L55 38L55 35L54 35L54 34L56 34L56 33L52 33L52 34L51 34L51 33L50 33L50 34L51 34L51 35L52 35L52 36L50 36L50 35L49 35L49 36L47 36L47 34L46 34L46 33L49 33L49 32L50 32L50 30L49 30L49 32L46 32L46 33L45 33L45 31L44 31L44 30L46 30L46 31L47 31L47 30L46 30L46 29L45 29L45 28L44 28L44 29L43 29L43 28L42 28L42 27L40 27L40 23L41 23L41 21L42 21L42 23L43 23L43 20L41 20L41 19L40 19L40 20L39 20L39 19L38 19L38 18L37 18L37 17L35 17L35 18L34 18L34 16L37 16L37 15L35 15L35 14L34 14L34 15L33 15L33 16L32 16L32 15L31 15L31 14L30 14L30 15L31 15L31 16L29 16L29 15L28 15L28 12L26 12L26 10L24 10L24 9L25 9L25 8L24 8L24 7L25 7L25 6L24 6L24 7L23 7L23 6ZM28 6L28 8L29 8L29 9L30 9L30 8L31 8L31 6L30 6L30 7L29 7L29 6ZM34 6L34 7L35 7L35 6ZM41 6L41 7L42 7L42 6ZM53 6L53 8L52 8L52 9L53 9L53 8L54 8L54 6ZM0 8L0 11L1 11L1 12L0 12L0 16L2 16L2 17L0 17L0 18L3 18L3 19L4 19L4 18L5 18L5 17L4 17L4 16L2 16L2 15L4 15L4 13L3 13L3 12L2 12L2 11L1 11L1 9L2 9L2 8ZM4 8L4 9L5 9L5 10L3 10L3 11L5 11L5 10L6 10L6 11L7 11L7 12L6 12L6 13L5 13L5 15L7 15L7 14L6 14L6 13L7 13L7 12L9 12L9 11L8 11L8 10L6 10L6 9L7 9L7 8ZM44 8L44 9L45 9L45 10L46 10L46 9L45 9L45 8ZM58 9L58 11L59 11L59 9ZM12 10L12 11L13 11L13 10ZM15 10L15 11L16 11L16 12L15 12L15 13L16 13L16 14L17 14L17 13L16 13L16 12L17 12L17 11L16 11L16 10ZM38 11L38 12L39 12L39 11ZM1 12L1 15L2 15L2 12ZM51 12L51 13L50 13L50 14L51 14L51 13L52 13L52 15L53 15L53 14L54 14L54 15L55 15L55 16L54 16L54 17L52 17L52 18L53 18L53 21L52 21L52 22L51 22L51 23L52 23L52 24L53 24L53 23L55 23L55 24L56 24L56 25L57 25L57 26L58 26L58 25L60 25L60 24L61 24L61 21L59 21L59 20L58 20L58 17L57 17L57 16L58 16L58 15L59 15L59 16L60 16L60 17L59 17L59 18L61 18L61 16L60 16L60 15L59 15L59 14L58 14L58 15L57 15L57 16L56 16L56 15L55 15L55 12L53 12L53 13L52 13L52 12ZM60 13L60 14L61 14L61 13ZM62 13L62 14L64 14L64 15L62 15L62 19L63 19L63 17L64 17L64 16L65 16L65 14L64 14L64 13ZM43 15L43 17L44 17L44 15ZM48 15L48 16L49 16L49 15ZM10 16L10 17L11 17L11 18L10 18L10 19L9 19L9 18L7 18L7 19L6 19L6 20L5 20L5 24L9 24L9 25L10 25L10 24L9 24L9 23L6 23L6 22L7 22L7 21L6 21L6 20L8 20L8 22L10 22L10 19L12 19L12 18L13 18L13 19L14 19L14 18L13 18L13 17L11 17L11 16ZM28 16L28 17L27 17L27 19L26 19L26 17L25 17L25 19L23 19L23 18L22 18L22 21L21 21L21 23L20 23L20 24L21 24L21 23L22 23L22 24L24 24L24 23L25 23L25 24L27 24L27 25L25 25L25 26L24 26L24 25L21 25L21 26L22 26L22 28L21 28L21 29L24 29L24 28L25 28L25 29L26 29L26 28L27 28L27 25L28 25L28 26L29 26L29 27L28 27L28 28L29 28L29 27L30 27L30 28L31 28L31 27L33 27L33 28L32 28L32 29L31 29L31 30L30 30L30 29L28 29L28 30L29 30L29 31L27 31L27 32L26 32L26 31L25 31L25 33L29 33L29 32L30 32L30 31L31 31L31 30L32 30L32 32L38 32L38 33L37 33L37 37L38 37L38 36L39 36L39 35L41 35L41 34L39 34L39 35L38 35L38 33L39 33L39 32L38 32L38 31L39 31L39 30L38 30L38 29L40 29L40 30L42 30L42 28L40 28L40 27L39 27L39 26L38 26L38 23L39 23L39 22L40 22L40 21L41 21L41 20L40 20L40 21L39 21L39 20L38 20L38 21L37 21L37 20L36 20L36 21L35 21L35 20L34 20L34 19L33 19L33 17L32 17L32 16L31 16L31 17L32 17L32 20L34 20L34 21L30 21L30 20L31 20L31 18L29 18L29 16ZM55 16L55 17L56 17L56 19L57 19L57 17L56 17L56 16ZM28 18L28 19L27 19L27 20L26 20L26 21L25 21L25 20L23 20L23 22L25 22L25 23L26 23L26 21L27 21L27 23L28 23L28 20L29 20L29 18ZM35 18L35 19L37 19L37 18ZM54 18L54 19L55 19L55 18ZM8 19L8 20L9 20L9 19ZM17 19L17 20L19 20L19 19ZM57 20L57 21L58 21L58 22L57 22L57 23L56 23L56 24L57 24L57 25L58 25L58 24L60 24L60 23L59 23L59 21L58 21L58 20ZM12 21L12 23L13 23L13 22L14 22L14 21ZM19 21L19 22L20 22L20 21ZM29 21L29 23L30 23L30 21ZM36 21L36 22L37 22L37 21ZM46 21L46 22L48 22L48 21ZM55 21L55 22L56 22L56 21ZM31 22L31 24L30 24L30 25L29 25L29 24L28 24L28 25L29 25L29 26L30 26L30 27L31 27L31 25L32 25L32 22ZM52 22L52 23L53 23L53 22ZM63 22L63 23L64 23L64 22ZM34 23L34 28L35 28L35 27L36 27L36 26L37 26L37 25L36 25L36 24L35 24L35 23ZM3 26L3 27L4 27L4 26ZM7 26L7 27L8 27L8 26ZM25 26L25 27L26 27L26 26ZM23 27L23 28L24 28L24 27ZM57 27L57 28L58 28L58 27ZM61 27L61 28L62 28L62 27ZM67 27L67 28L68 28L68 29L67 29L67 30L65 30L65 31L68 31L68 32L69 32L69 31L68 31L68 30L69 30L69 27ZM19 28L19 30L18 30L18 31L17 31L17 33L18 33L18 32L19 32L19 33L20 33L20 32L21 32L21 31L23 31L23 30L21 30L21 31L20 31L20 28ZM36 28L36 29L38 29L38 28ZM2 29L2 31L3 31L3 29ZM7 29L7 30L8 30L8 31L9 31L9 30L8 30L8 29ZM33 29L33 31L34 31L34 30L35 30L35 29ZM53 30L53 31L55 31L55 30ZM56 30L56 31L57 31L57 30ZM40 31L40 33L44 33L44 34L43 34L43 35L42 35L42 36L43 36L43 38L42 38L42 39L43 39L43 42L39 42L39 43L38 43L38 44L39 44L39 43L41 43L41 44L43 44L43 47L44 47L44 48L43 48L43 49L44 49L44 50L45 50L45 49L46 49L46 50L47 50L47 51L48 51L48 49L47 49L47 48L45 48L45 45L46 45L46 46L47 46L47 44L48 44L48 42L49 42L49 46L50 46L50 44L52 44L52 45L53 45L53 44L52 44L52 43L54 43L54 44L55 44L55 46L57 46L57 45L58 45L58 44L57 44L57 41L56 41L56 40L54 40L54 41L55 41L55 42L56 42L56 44L55 44L55 43L54 43L54 42L53 42L53 39L52 39L52 38L53 38L53 36L54 36L54 35L53 35L53 36L52 36L52 37L51 37L51 38L50 38L50 37L48 37L48 39L49 39L49 41L47 41L47 37L46 37L46 34L45 34L45 33L44 33L44 31ZM58 32L58 34L59 34L59 32ZM5 33L5 36L8 36L8 33ZM10 33L10 34L11 34L11 33ZM33 33L33 36L36 36L36 33ZM61 33L61 36L64 36L64 33ZM6 34L6 35L7 35L7 34ZM18 34L18 35L19 35L19 34ZM30 34L30 35L31 35L31 36L32 36L32 35L31 35L31 34ZM34 34L34 35L35 35L35 34ZM44 34L44 37L45 37L45 38L43 38L43 39L45 39L45 40L44 40L44 43L45 43L45 42L46 42L46 37L45 37L45 34ZM62 34L62 35L63 35L63 34ZM26 36L26 37L27 37L27 38L28 38L28 37L27 37L27 36ZM64 38L64 39L65 39L65 38ZM17 39L17 40L18 40L18 39ZM40 39L40 41L41 41L41 39ZM50 39L50 43L51 43L51 41L52 41L52 40L51 40L51 39ZM13 42L13 43L14 43L14 42ZM35 42L35 43L34 43L34 44L33 44L33 45L31 45L31 46L32 46L32 47L33 47L33 45L34 45L34 44L35 44L35 43L36 43L36 42ZM60 42L60 43L61 43L61 42ZM64 42L64 43L66 43L66 42ZM46 43L46 44L47 44L47 43ZM16 44L16 46L15 46L15 48L16 48L16 50L18 50L18 49L19 49L19 48L21 48L21 47L20 47L20 44L19 44L19 48L18 48L18 49L17 49L17 47L18 47L18 46L17 46L17 44ZM44 44L44 45L45 45L45 44ZM56 44L56 45L57 45L57 44ZM62 44L62 45L63 45L63 44ZM39 45L39 47L41 47L41 48L40 48L40 51L39 51L39 52L40 52L40 54L41 54L41 53L44 53L44 51L43 51L43 50L42 50L42 51L41 51L41 49L42 49L42 45L41 45L41 46L40 46L40 45ZM16 46L16 47L17 47L17 46ZM36 46L36 47L37 47L37 48L38 48L38 49L39 49L39 48L38 48L38 47L37 47L37 46ZM51 46L51 47L50 47L50 49L51 49L51 50L52 50L52 49L53 49L53 47L52 47L52 46ZM11 47L11 48L12 48L12 47ZM48 47L48 48L49 48L49 47ZM44 48L44 49L45 49L45 48ZM40 51L40 52L41 52L41 51ZM42 51L42 52L43 52L43 51ZM53 51L53 52L54 52L54 51ZM55 51L55 53L56 53L56 51ZM61 51L61 52L62 52L62 51ZM23 52L23 55L24 55L24 54L25 54L25 56L22 56L22 55L21 55L21 56L19 56L19 55L20 55L20 54L19 54L19 55L18 55L18 54L17 54L17 57L15 57L15 59L16 59L16 58L17 58L17 59L19 59L19 60L18 60L18 61L17 61L17 63L18 63L18 61L19 61L19 60L20 60L20 59L19 59L19 58L17 58L17 57L20 57L20 58L21 58L21 57L24 57L24 58L25 58L25 59L26 59L26 58L28 58L28 56L26 56L26 54L25 54L25 52ZM58 52L58 54L59 54L59 55L64 55L64 54L62 54L62 53L61 53L61 54L60 54L60 52ZM65 52L65 53L66 53L66 52ZM3 53L3 54L4 54L4 53ZM25 56L25 58L26 58L26 56ZM36 56L36 57L34 57L34 58L37 58L37 56ZM65 56L65 58L66 58L66 57L67 57L67 56ZM46 57L46 58L47 58L47 57ZM32 58L32 59L33 59L33 58ZM42 58L42 61L44 61L44 59L45 59L45 58ZM48 58L48 59L49 59L49 58ZM46 59L46 60L47 60L47 59ZM3 60L3 61L5 61L5 60ZM26 60L26 61L27 61L27 62L28 62L28 60ZM33 61L33 64L36 64L36 61ZM38 61L38 62L39 62L39 61ZM61 61L61 64L64 64L64 61ZM34 62L34 63L35 63L35 62ZM42 62L42 63L43 63L43 62ZM53 62L53 63L52 63L52 66L51 66L51 67L52 67L52 66L53 66L53 67L54 67L54 65L56 65L56 62L55 62L55 63L54 63L54 62ZM62 62L62 63L63 63L63 62ZM19 63L19 64L20 64L20 63ZM28 63L28 64L29 64L29 63ZM53 63L53 65L54 65L54 63ZM22 64L22 65L21 65L21 66L22 66L22 67L23 67L23 66L22 66L22 65L23 65L23 64ZM61 65L61 66L62 66L62 68L63 68L63 67L64 67L64 66L62 66L62 65ZM25 66L25 67L27 67L27 66ZM36 68L36 69L37 69L37 68ZM68 68L68 69L69 69L69 68ZM0 0L0 7L7 7L7 0ZM1 1L1 6L6 6L6 1ZM2 2L2 5L5 5L5 2ZM62 0L62 7L69 7L69 0ZM63 1L63 6L68 6L68 1ZM64 2L64 5L67 5L67 2ZM0 62L0 69L7 69L7 62ZM1 63L1 68L6 68L6 63ZM2 64L2 67L5 67L5 64Z" fill="#000000"/></g></g></svg>
