<?xml version="1.0" encoding="UTF-8"?>
<svg xmlns="http://www.w3.org/2000/svg" version="1.1" width="300" height="300" viewBox="0 0 300 300"><rect x="0" y="0" width="300" height="300" fill="#ffffff"/><g transform="scale(4.348)"><g transform="translate(0,0)"><path fill-rule="evenodd" d="M10 0L10 2L9 2L9 1L8 1L8 3L12 3L12 4L11 4L11 5L10 5L10 4L8 4L8 8L6 8L6 9L4 9L4 8L3 8L3 9L2 9L2 8L0 8L0 14L1 14L1 15L0 15L0 16L1 16L1 15L2 15L2 16L3 16L3 17L5 17L5 18L4 18L4 21L3 21L3 22L1 22L1 21L2 21L2 20L3 20L3 19L1 19L1 18L2 18L2 17L0 17L0 19L1 19L1 21L0 21L0 23L1 23L1 24L0 24L0 25L2 25L2 28L3 28L3 29L4 29L4 30L5 30L5 32L4 32L4 31L3 31L3 32L4 32L4 34L3 34L3 33L2 33L2 32L1 32L1 31L2 31L2 30L1 30L1 29L0 29L0 35L1 35L1 36L0 36L0 40L3 40L3 39L4 39L4 38L5 38L5 40L4 40L4 42L3 42L3 41L2 41L2 42L1 42L1 44L3 44L3 45L2 45L2 46L1 46L1 45L0 45L0 46L1 46L1 47L3 47L3 46L4 46L4 45L5 45L5 44L6 44L6 45L8 45L8 46L6 46L6 47L5 47L5 49L4 49L4 50L2 50L2 48L1 48L1 49L0 49L0 51L1 51L1 52L0 52L0 57L2 57L2 55L1 55L1 52L2 52L2 53L3 53L3 52L2 52L2 51L4 51L4 53L5 53L5 54L4 54L4 55L3 55L3 58L2 58L2 59L3 59L3 58L4 58L4 59L7 59L7 60L6 60L6 61L8 61L8 63L9 63L9 65L8 65L8 66L9 66L9 67L8 67L8 69L11 69L11 68L12 68L12 69L13 69L13 68L12 68L12 67L13 67L13 66L15 66L15 68L14 68L14 69L17 69L17 67L18 67L18 69L19 69L19 67L21 67L21 68L20 68L20 69L24 69L24 68L25 68L25 69L26 69L26 67L27 67L27 65L25 65L25 66L24 66L24 65L22 65L22 63L21 63L21 62L20 62L20 63L19 63L19 61L20 61L20 60L21 60L21 58L22 58L22 59L25 59L25 61L26 61L26 62L25 62L25 64L27 64L27 60L28 60L28 59L29 59L29 61L28 61L28 63L30 63L30 62L31 62L31 61L32 61L32 65L31 65L31 64L30 64L30 65L28 65L28 66L29 66L29 68L30 68L30 69L32 69L32 68L30 68L30 67L32 67L32 65L35 65L35 66L33 66L33 68L35 68L35 69L38 69L38 68L35 68L35 66L37 66L37 65L38 65L38 66L39 66L39 67L40 67L40 68L39 68L39 69L44 69L44 68L45 68L45 69L47 69L47 68L46 68L46 65L45 65L45 62L44 62L44 61L45 61L45 60L47 60L47 61L46 61L46 62L47 62L47 67L48 67L48 69L50 69L50 67L49 67L49 66L48 66L48 65L49 65L49 64L51 64L51 65L50 65L50 66L51 66L51 65L52 65L52 68L51 68L51 69L54 69L54 67L55 67L55 69L56 69L56 68L57 68L57 69L59 69L59 68L57 68L57 67L58 67L58 66L56 66L56 67L55 67L55 66L54 66L54 65L52 65L52 64L51 64L51 63L55 63L55 64L56 64L56 65L57 65L57 64L58 64L58 65L59 65L59 63L58 63L58 62L59 62L59 58L58 58L58 59L57 59L57 58L56 58L56 55L55 55L55 56L54 56L54 54L53 54L53 53L55 53L55 54L57 54L57 51L56 51L56 50L57 50L57 49L58 49L58 51L59 51L59 52L61 52L61 53L59 53L59 54L61 54L61 55L60 55L60 56L59 56L59 55L57 55L57 56L59 56L59 57L60 57L60 58L61 58L61 57L60 57L60 56L61 56L61 55L63 55L63 56L64 56L64 57L66 57L66 58L65 58L65 60L62 60L62 59L63 59L63 58L62 58L62 59L60 59L60 65L62 65L62 66L59 66L59 67L61 67L61 68L60 68L60 69L62 69L62 66L63 66L63 65L64 65L64 67L67 67L67 66L68 66L68 67L69 67L69 64L68 64L68 62L69 62L69 58L68 58L68 57L69 57L69 54L68 54L68 53L69 53L69 52L67 52L67 54L66 54L66 53L65 53L65 54L63 54L63 52L64 52L64 50L65 50L65 51L66 51L66 49L64 49L64 47L63 47L63 46L62 46L62 45L63 45L63 44L64 44L64 45L65 45L65 46L66 46L66 47L65 47L65 48L66 48L66 47L67 47L67 51L68 51L68 50L69 50L69 49L68 49L68 48L69 48L69 46L68 46L68 45L69 45L69 44L68 44L68 43L69 43L69 42L66 42L66 41L68 41L68 40L66 40L66 41L65 41L65 38L66 38L66 37L67 37L67 39L68 39L68 37L69 37L69 36L68 36L68 35L69 35L69 29L68 29L68 28L67 28L67 29L66 29L66 27L67 27L67 26L69 26L69 25L67 25L67 26L66 26L66 27L65 27L65 29L66 29L66 30L67 30L67 31L68 31L68 33L65 33L65 32L63 32L63 29L64 29L64 25L65 25L65 24L66 24L66 23L65 23L65 22L64 22L64 21L65 21L65 19L66 19L66 18L65 18L65 17L64 17L64 15L65 15L65 14L66 14L66 15L67 15L67 16L66 16L66 17L69 17L69 15L68 15L68 14L69 14L69 13L68 13L68 14L67 14L67 12L66 12L66 11L65 11L65 10L68 10L68 12L69 12L69 10L68 10L68 8L66 8L66 9L65 9L65 8L62 8L62 9L65 9L65 10L63 10L63 11L65 11L65 12L61 12L61 14L60 14L60 15L59 15L59 13L60 13L60 11L61 11L61 10L60 10L60 11L57 11L57 12L55 12L55 14L50 14L50 13L51 13L51 12L50 12L50 11L52 11L52 13L53 13L53 11L52 11L52 10L50 10L50 11L48 11L48 12L47 12L47 11L46 11L46 10L45 10L45 9L44 9L44 8L43 8L43 6L44 6L44 7L45 7L45 8L46 8L46 9L47 9L47 6L48 6L48 7L49 7L49 8L48 8L48 9L49 9L49 8L50 8L50 9L54 9L54 8L55 8L55 10L54 10L54 11L55 11L55 10L57 10L57 9L56 9L56 8L60 8L60 9L61 9L61 6L60 6L60 7L59 7L59 4L58 4L58 5L57 5L57 4L55 4L55 3L56 3L56 2L55 2L55 0L53 0L53 1L52 1L52 2L51 2L51 3L53 3L53 4L50 4L50 5L55 5L55 6L54 6L54 8L52 8L52 7L53 7L53 6L52 6L52 7L51 7L51 6L50 6L50 7L49 7L49 6L48 6L48 4L47 4L47 6L46 6L46 3L47 3L47 2L49 2L49 3L50 3L50 1L51 1L51 0L48 0L48 1L47 1L47 0L45 0L45 2L44 2L44 3L45 3L45 4L44 4L44 5L43 5L43 2L42 2L42 1L43 1L43 0L38 0L38 1L37 1L37 0L31 0L31 1L30 1L30 0L29 0L29 3L30 3L30 2L31 2L31 4L32 4L32 5L29 5L29 6L28 6L28 0L26 0L26 1L27 1L27 2L25 2L25 0L20 0L20 1L19 1L19 0L16 0L16 2L17 2L17 1L19 1L19 2L20 2L20 1L21 1L21 3L20 3L20 9L21 9L21 6L22 6L22 9L24 9L24 10L25 10L25 11L23 11L23 12L21 12L21 11L22 11L22 10L20 10L20 13L19 13L19 12L17 12L17 10L18 10L18 9L19 9L19 6L18 6L18 7L17 7L17 5L19 5L19 4L17 4L17 5L16 5L16 3L13 3L13 2L11 2L11 1L12 1L12 0ZM13 0L13 1L14 1L14 2L15 2L15 1L14 1L14 0ZM57 0L57 2L58 2L58 3L59 3L59 2L58 2L58 1L61 1L61 0ZM32 1L32 2L33 2L33 1ZM35 1L35 2L36 2L36 3L37 3L37 4L40 4L40 5L39 5L39 7L38 7L38 5L37 5L37 7L38 7L38 8L40 8L40 6L41 6L41 7L42 7L42 6L43 6L43 5L42 5L42 6L41 6L41 3L42 3L42 2L41 2L41 1L40 1L40 2L41 2L41 3L39 3L39 2L37 2L37 1ZM53 1L53 2L54 2L54 3L55 3L55 2L54 2L54 1ZM22 2L22 3L21 3L21 4L27 4L27 3L25 3L25 2L24 2L24 3L23 3L23 2ZM32 3L32 4L35 4L35 3ZM60 3L60 5L61 5L61 3ZM13 4L13 5L12 5L12 6L11 6L11 7L10 7L10 6L9 6L9 7L10 7L10 8L8 8L8 12L7 12L7 11L5 11L5 12L4 12L4 10L2 10L2 12L1 12L1 13L5 13L5 14L4 14L4 15L3 15L3 14L2 14L2 15L3 15L3 16L4 16L4 15L5 15L5 14L7 14L7 15L6 15L6 16L5 16L5 17L6 17L6 18L7 18L7 19L5 19L5 20L8 20L8 17L10 17L10 16L11 16L11 15L12 15L12 13L13 13L13 14L14 14L14 15L13 15L13 17L12 17L12 18L13 18L13 17L14 17L14 16L15 16L15 18L19 18L19 19L21 19L21 20L19 20L19 21L18 21L18 20L16 20L16 19L15 19L15 20L12 20L12 19L11 19L11 20L10 20L10 18L9 18L9 22L8 22L8 23L5 23L5 24L3 24L3 28L4 28L4 27L5 27L5 26L7 26L7 27L6 27L6 28L5 28L5 29L6 29L6 30L9 30L9 31L10 31L10 29L8 29L8 28L7 28L7 27L9 27L9 28L11 28L11 29L12 29L12 30L13 30L13 31L11 31L11 32L9 32L9 35L10 35L10 36L9 36L9 37L6 37L6 38L8 38L8 40L7 40L7 39L6 39L6 40L5 40L5 41L6 41L6 42L4 42L4 43L3 43L3 42L2 42L2 43L3 43L3 44L4 44L4 43L6 43L6 44L8 44L8 45L10 45L10 46L8 46L8 47L6 47L6 48L9 48L9 49L8 49L8 50L10 50L10 49L12 49L12 51L11 51L11 52L10 52L10 51L9 51L9 52L8 52L8 51L6 51L6 52L8 52L8 53L9 53L9 54L7 54L7 53L6 53L6 54L5 54L5 55L6 55L6 56L5 56L5 57L4 57L4 58L5 58L5 57L6 57L6 58L7 58L7 57L6 57L6 56L7 56L7 55L8 55L8 57L9 57L9 59L10 59L10 61L11 61L11 62L10 62L10 63L11 63L11 67L12 67L12 64L13 64L13 65L15 65L15 66L17 66L17 65L18 65L18 66L19 66L19 65L20 65L20 64L21 64L21 63L20 63L20 64L19 64L19 63L15 63L15 64L13 64L13 63L11 63L11 62L12 62L12 61L13 61L13 58L14 58L14 60L16 60L16 56L14 56L14 54L15 54L15 55L17 55L17 54L20 54L20 50L19 50L19 49L20 49L20 47L19 47L19 46L22 46L22 48L25 48L25 49L23 49L23 50L21 50L21 51L23 51L23 52L22 52L22 58L23 58L23 57L24 57L24 58L25 58L25 57L24 57L24 56L23 56L23 55L25 55L25 56L26 56L26 57L27 57L27 58L26 58L26 60L27 60L27 59L28 59L28 58L29 58L29 59L30 59L30 58L31 58L31 57L32 57L32 55L33 55L33 54L35 54L35 55L34 55L34 56L35 56L35 57L34 57L34 59L35 59L35 60L38 60L38 62L37 62L37 64L38 64L38 62L39 62L39 61L40 61L40 60L42 60L42 61L41 61L41 62L43 62L43 63L44 63L44 62L43 62L43 60L44 60L44 59L42 59L42 58L43 58L43 56L44 56L44 58L45 58L45 59L47 59L47 60L48 60L48 56L46 56L46 57L45 57L45 56L44 56L44 55L46 55L46 54L47 54L47 55L49 55L49 54L50 54L50 53L51 53L51 52L52 52L52 53L53 53L53 52L55 52L55 53L56 53L56 51L54 51L54 50L56 50L56 49L54 49L54 47L55 47L55 48L57 48L57 46L58 46L58 48L59 48L59 51L61 51L61 52L62 52L62 51L63 51L63 48L62 48L62 46L61 46L61 45L62 45L62 44L61 44L61 45L59 45L59 44L60 44L60 43L59 43L59 41L60 41L60 42L61 42L61 43L62 43L62 41L63 41L63 43L64 43L64 44L67 44L67 43L65 43L65 41L64 41L64 40L62 40L62 39L63 39L63 37L62 37L62 39L61 39L61 40L62 40L62 41L60 41L60 38L61 38L61 37L60 37L60 38L58 38L58 37L59 37L59 36L60 36L60 35L58 35L58 37L57 37L57 38L55 38L55 37L54 37L54 36L55 36L55 32L54 32L54 33L52 33L52 34L51 34L51 33L48 33L48 32L47 32L47 28L46 28L46 25L47 25L47 27L48 27L48 26L49 26L49 27L52 27L52 29L54 29L54 30L57 30L57 31L56 31L56 34L57 34L57 31L58 31L58 32L59 32L59 33L58 33L58 34L60 34L60 32L61 32L61 31L62 31L62 29L60 29L60 28L59 28L59 29L56 29L56 28L58 28L58 24L57 24L57 26L56 26L56 25L55 25L55 24L53 24L53 25L54 25L54 26L53 26L53 27L52 27L52 26L51 26L51 23L52 23L52 22L53 22L53 23L54 23L54 22L55 22L55 21L57 21L57 23L60 23L60 25L59 25L59 27L60 27L60 26L61 26L61 24L62 24L62 26L63 26L63 24L62 24L62 22L63 22L63 18L62 18L62 16L59 16L59 15L58 15L58 13L56 13L56 14L55 14L55 15L58 15L58 16L59 16L59 17L57 17L57 18L59 18L59 17L60 17L60 19L57 19L57 20L55 20L55 21L54 21L54 18L55 18L55 19L56 19L56 18L55 18L55 17L56 17L56 16L52 16L52 15L51 15L51 16L50 16L50 17L48 17L48 18L50 18L50 17L54 17L54 18L53 18L53 19L52 19L52 18L51 18L51 19L50 19L50 20L49 20L49 21L48 21L48 20L46 20L46 19L47 19L47 17L46 17L46 16L49 16L49 15L50 15L50 14L49 14L49 13L47 13L47 14L48 14L48 15L46 15L46 13L43 13L43 12L45 12L45 11L43 11L43 10L44 10L44 9L43 9L43 8L42 8L42 9L36 9L36 11L35 11L35 9L33 9L33 10L34 10L34 11L33 11L33 12L34 12L34 13L35 13L35 12L36 12L36 14L35 14L35 15L34 15L34 19L32 19L32 18L33 18L33 17L32 17L32 16L33 16L33 15L31 15L31 17L32 17L32 18L31 18L31 19L32 19L32 22L33 22L33 24L32 24L32 23L30 23L30 21L28 21L28 20L27 20L27 19L26 19L26 22L25 22L25 21L22 21L22 22L23 22L23 24L22 24L22 25L23 25L23 24L24 24L24 22L25 22L25 24L26 24L26 22L29 22L29 23L30 23L30 24L28 24L28 23L27 23L27 25L24 25L24 26L23 26L23 27L24 27L24 28L22 28L22 30L23 30L23 29L24 29L24 30L26 30L26 31L25 31L25 32L26 32L26 31L27 31L27 30L29 30L29 31L30 31L30 30L33 30L33 31L32 31L32 32L31 32L31 34L32 34L32 32L37 32L37 34L40 34L40 33L38 33L38 32L37 32L37 31L35 31L35 30L38 30L38 28L39 28L39 31L40 31L40 32L42 32L42 33L41 33L41 35L39 35L39 36L41 36L41 37L37 37L37 38L36 38L36 37L35 37L35 38L36 38L36 39L34 39L34 41L33 41L33 40L32 40L32 42L31 42L31 40L30 40L30 41L28 41L28 42L23 42L23 41L24 41L24 40L25 40L25 41L26 41L26 40L29 40L29 39L32 39L32 38L33 38L33 37L32 37L32 38L31 38L31 37L29 37L29 38L28 38L28 32L27 32L27 33L26 33L26 35L24 35L24 37L20 37L20 38L17 38L17 39L16 39L16 37L15 37L15 36L14 36L14 35L16 35L16 36L17 36L17 35L16 35L16 34L18 34L18 36L19 36L19 35L20 35L20 34L21 34L21 30L20 30L20 28L21 28L21 24L20 24L20 23L21 23L21 20L22 20L22 19L25 19L25 18L26 18L26 17L25 17L25 16L28 16L28 18L30 18L30 17L29 17L29 15L30 15L30 14L33 14L33 13L29 13L29 14L28 14L28 13L27 13L27 14L26 14L26 13L25 13L25 12L23 12L23 14L24 14L24 15L25 15L25 16L23 16L23 15L22 15L22 14L21 14L21 13L20 13L20 14L21 14L21 15L19 15L19 13L18 13L18 14L16 14L16 15L19 15L19 16L18 16L18 17L16 17L16 16L15 16L15 14L14 14L14 13L13 13L13 11L12 11L12 10L14 10L14 11L15 11L15 12L16 12L16 13L17 13L17 12L16 12L16 11L15 11L15 10L14 10L14 9L16 9L16 10L17 10L17 9L18 9L18 8L17 8L17 7L16 7L16 6L15 6L15 7L14 7L14 5L15 5L15 4ZM22 5L22 6L23 6L23 8L24 8L24 6L23 6L23 5ZM25 5L25 7L26 7L26 6L27 6L27 8L26 8L26 9L25 9L25 10L27 10L27 11L26 11L26 12L27 12L27 11L29 11L29 9L30 9L30 12L31 12L31 11L32 11L32 10L31 10L31 9L32 9L32 6L31 6L31 8L29 8L29 9L28 9L28 6L27 6L27 5ZM33 5L33 8L36 8L36 5ZM44 5L44 6L45 6L45 7L46 7L46 6L45 6L45 5ZM12 6L12 8L14 8L14 7L13 7L13 6ZM29 6L29 7L30 7L30 6ZM34 6L34 7L35 7L35 6ZM55 6L55 8L56 8L56 6ZM57 6L57 7L58 7L58 6ZM10 8L10 9L9 9L9 11L10 11L10 9L11 9L11 10L12 10L12 9L11 9L11 8ZM6 9L6 10L7 10L7 9ZM39 10L39 11L38 11L38 12L37 12L37 11L36 11L36 12L37 12L37 13L39 13L39 14L36 14L36 15L35 15L35 17L37 17L37 16L36 16L36 15L39 15L39 16L38 16L38 19L37 19L37 18L35 18L35 19L34 19L34 20L33 20L33 21L34 21L34 20L35 20L35 21L36 21L36 19L37 19L37 20L38 20L38 22L34 22L34 23L36 23L36 25L37 25L37 26L35 26L35 24L34 24L34 26L33 26L33 27L32 27L32 28L28 28L28 27L27 27L27 26L26 26L26 27L25 27L25 26L24 26L24 27L25 27L25 28L26 28L26 30L27 30L27 29L29 29L29 30L30 30L30 29L32 29L32 28L33 28L33 27L34 27L34 26L35 26L35 27L37 27L37 28L36 28L36 29L37 29L37 28L38 28L38 27L39 27L39 26L38 26L38 25L40 25L40 26L41 26L41 24L42 24L42 25L46 25L46 23L44 23L44 22L43 22L43 24L42 24L42 23L41 23L41 24L40 24L40 23L39 23L39 17L40 17L40 11L41 11L41 12L43 12L43 11L42 11L42 10ZM5 12L5 13L7 13L7 14L10 14L10 15L9 15L9 16L10 16L10 15L11 15L11 13L12 13L12 12L10 12L10 13L7 13L7 12ZM41 13L41 14L42 14L42 13ZM62 13L62 14L61 14L61 15L64 15L64 14L65 14L65 13L64 13L64 14L63 14L63 13ZM27 14L27 15L28 15L28 14ZM44 14L44 15L41 15L41 16L42 16L42 17L41 17L41 20L40 20L40 21L41 21L41 20L42 20L42 19L43 19L43 18L45 18L45 14ZM7 15L7 16L6 16L6 17L8 17L8 15ZM19 16L19 17L22 17L22 16ZM43 16L43 17L42 17L42 18L43 18L43 17L44 17L44 16ZM23 17L23 18L24 18L24 17ZM67 18L67 20L66 20L66 21L67 21L67 22L68 22L68 23L67 23L67 24L68 24L68 23L69 23L69 21L68 21L68 19L69 19L69 18ZM29 19L29 20L30 20L30 19ZM61 19L61 21L62 21L62 19ZM15 20L15 21L13 21L13 22L14 22L14 25L15 25L15 24L16 24L16 25L17 25L17 26L18 26L18 25L20 25L20 24L17 24L17 23L19 23L19 22L18 22L18 21L16 21L16 20ZM43 20L43 21L44 21L44 20ZM45 20L45 21L46 21L46 20ZM51 20L51 21L53 21L53 20ZM6 21L6 22L7 22L7 21ZM11 21L11 23L12 23L12 21ZM47 21L47 22L48 22L48 21ZM15 22L15 23L17 23L17 22ZM49 22L49 23L47 23L47 24L48 24L48 25L49 25L49 26L50 26L50 25L49 25L49 24L50 24L50 22ZM60 22L60 23L61 23L61 22ZM6 24L6 25L7 25L7 24ZM10 24L10 25L9 25L9 27L10 27L10 26L11 26L11 24ZM30 24L30 25L31 25L31 24ZM37 24L37 25L38 25L38 24ZM12 25L12 26L13 26L13 25ZM28 25L28 26L29 26L29 25ZM30 26L30 27L31 27L31 26ZM42 26L42 27L41 27L41 28L42 28L42 29L43 29L43 31L44 31L44 32L43 32L43 35L41 35L41 36L42 36L42 37L43 37L43 39L42 39L42 38L39 38L39 40L38 40L38 42L37 42L37 43L39 43L39 47L38 47L38 49L36 49L36 50L34 50L34 51L37 51L37 50L38 50L38 52L37 52L37 53L36 53L36 55L37 55L37 56L38 56L38 55L39 55L39 58L40 58L40 59L38 59L38 58L37 58L37 59L38 59L38 60L40 60L40 59L41 59L41 56L40 56L40 55L42 55L42 53L43 53L43 54L44 54L44 53L45 53L45 51L46 51L46 53L48 53L48 54L49 54L49 53L50 53L50 52L51 52L51 51L53 51L53 50L50 50L50 49L53 49L53 48L50 48L50 49L49 49L49 48L46 48L46 47L45 47L45 45L44 45L44 44L42 44L42 45L40 45L40 44L41 44L41 43L43 43L43 42L42 42L42 41L43 41L43 40L44 40L44 42L45 42L45 44L47 44L47 43L48 43L48 45L49 45L49 46L50 46L50 44L51 44L51 46L53 46L53 45L54 45L54 44L53 44L53 43L54 43L54 42L53 42L53 41L50 41L50 44L49 44L49 43L48 43L48 42L47 42L47 43L46 43L46 42L45 42L45 41L46 41L46 40L47 40L47 41L49 41L49 40L48 40L48 39L45 39L45 36L44 36L44 34L45 34L45 35L46 35L46 34L45 34L45 33L44 33L44 32L45 32L45 31L46 31L46 29L45 29L45 26ZM55 26L55 27L54 27L54 29L55 29L55 27L56 27L56 26ZM0 27L0 28L1 28L1 27ZM13 27L13 30L15 30L15 29L16 29L16 28L18 28L18 29L17 29L17 30L18 30L18 31L19 31L19 27L16 27L16 28L14 28L14 27ZM42 27L42 28L43 28L43 29L44 29L44 30L45 30L45 29L44 29L44 28L43 28L43 27ZM61 27L61 28L63 28L63 27ZM6 28L6 29L7 29L7 28ZM50 28L50 29L49 29L49 31L50 31L50 32L52 32L52 31L53 31L53 30L51 30L51 31L50 31L50 29L51 29L51 28ZM34 29L34 30L35 30L35 29ZM59 29L59 30L58 30L58 31L59 31L59 30L60 30L60 31L61 31L61 30L60 30L60 29ZM40 30L40 31L41 31L41 30ZM64 30L64 31L65 31L65 30ZM6 31L6 32L7 32L7 31ZM13 31L13 33L14 33L14 34L13 34L13 35L12 35L12 32L11 32L11 34L10 34L10 35L11 35L11 36L13 36L13 37L12 37L12 39L11 39L11 38L10 38L10 39L9 39L9 41L7 41L7 40L6 40L6 41L7 41L7 42L6 42L6 43L8 43L8 44L9 44L9 43L10 43L10 44L11 44L11 48L15 48L15 49L14 49L14 50L15 50L15 51L16 51L16 52L14 52L14 53L13 53L13 51L12 51L12 53L11 53L11 54L12 54L12 53L13 53L13 54L14 54L14 53L19 53L19 50L18 50L18 48L19 48L19 47L18 47L18 46L17 46L17 47L16 47L16 46L15 46L15 47L12 47L12 46L13 46L13 45L14 45L14 44L18 44L18 45L25 45L25 47L26 47L26 49L25 49L25 50L24 50L24 51L25 51L25 52L26 52L26 54L25 54L25 55L26 55L26 56L27 56L27 57L31 57L31 56L29 56L29 55L28 55L28 54L27 54L27 53L29 53L29 54L30 54L30 55L31 55L31 54L32 54L32 53L31 53L31 51L30 51L30 49L31 49L31 50L33 50L33 47L35 47L35 48L34 48L34 49L35 49L35 48L37 48L37 46L36 46L36 45L38 45L38 44L35 44L35 43L36 43L36 41L37 41L37 40L36 40L36 41L35 41L35 42L32 42L32 43L31 43L31 42L30 42L30 43L26 43L26 44L25 44L25 43L24 43L24 44L23 44L23 42L21 42L21 41L20 41L20 42L19 42L19 40L21 40L21 38L20 38L20 39L17 39L17 40L18 40L18 41L17 41L17 42L16 42L16 39L14 39L14 41L15 41L15 42L13 42L13 37L14 37L14 36L13 36L13 35L14 35L14 34L16 34L16 31L15 31L15 32L14 32L14 31ZM22 31L22 32L24 32L24 31ZM17 32L17 33L19 33L19 34L20 34L20 32ZM29 32L29 33L30 33L30 32ZM1 33L1 34L2 34L2 36L1 36L1 37L2 37L2 36L3 36L3 38L2 38L2 39L3 39L3 38L4 38L4 36L3 36L3 34L2 34L2 33ZM5 33L5 36L8 36L8 33ZM23 33L23 34L25 34L25 33ZM33 33L33 36L36 36L36 33ZM61 33L61 36L64 36L64 33ZM6 34L6 35L7 35L7 34ZM29 34L29 36L32 36L32 35L30 35L30 34ZM34 34L34 35L35 35L35 34ZM47 34L47 35L50 35L50 37L49 37L49 36L47 36L47 37L46 37L46 38L47 38L47 37L48 37L48 38L49 38L49 39L52 39L52 40L54 40L54 41L55 41L55 40L54 40L54 39L55 39L55 38L53 38L53 36L54 36L54 35L53 35L53 34L52 34L52 35L50 35L50 34ZM62 34L62 35L63 35L63 34ZM65 34L65 35L66 35L66 36L65 36L65 37L66 37L66 36L67 36L67 35L68 35L68 34L67 34L67 35L66 35L66 34ZM21 35L21 36L23 36L23 35ZM26 35L26 36L25 36L25 38L26 38L26 39L25 39L25 40L26 40L26 39L28 39L28 38L27 38L27 35ZM52 35L52 36L53 36L53 35ZM56 35L56 36L57 36L57 35ZM50 37L50 38L51 38L51 37ZM22 38L22 39L23 39L23 40L24 40L24 39L23 39L23 38ZM37 38L37 39L38 39L38 38ZM44 39L44 40L45 40L45 39ZM57 39L57 40L56 40L56 42L57 42L57 43L58 43L58 44L57 44L57 45L58 45L58 44L59 44L59 43L58 43L58 41L59 41L59 39ZM10 40L10 41L9 41L9 42L8 42L8 43L9 43L9 42L10 42L10 41L12 41L12 40ZM40 40L40 41L39 41L39 42L40 42L40 43L41 43L41 42L40 42L40 41L41 41L41 40ZM57 40L57 41L58 41L58 40ZM17 42L17 43L18 43L18 42ZM51 42L51 44L52 44L52 43L53 43L53 42ZM11 43L11 44L12 44L12 45L13 45L13 44L12 44L12 43ZM20 43L20 44L22 44L22 43ZM33 43L33 44L34 44L34 43ZM26 44L26 45L27 45L27 46L29 46L29 45L30 45L30 47L29 47L29 48L30 48L30 47L31 47L31 45L32 45L32 47L33 47L33 46L35 46L35 47L36 47L36 46L35 46L35 45L32 45L32 44L31 44L31 45L30 45L30 44L29 44L29 45L27 45L27 44ZM55 44L55 45L56 45L56 44ZM42 45L42 47L43 47L43 48L44 48L44 47L43 47L43 45ZM66 45L66 46L67 46L67 47L68 47L68 46L67 46L67 45ZM60 46L60 48L61 48L61 46ZM9 47L9 48L10 48L10 47ZM17 47L17 48L18 48L18 47ZM40 47L40 48L41 48L41 50L40 50L40 49L38 49L38 50L39 50L39 52L38 52L38 53L37 53L37 55L38 55L38 54L40 54L40 53L42 53L42 52L43 52L43 53L44 53L44 52L43 52L43 51L41 51L41 50L44 50L44 49L42 49L42 48L41 48L41 47ZM31 48L31 49L32 49L32 48ZM45 48L45 50L46 50L46 48ZM6 49L6 50L7 50L7 49ZM15 49L15 50L16 50L16 49ZM26 49L26 50L25 50L25 51L26 51L26 52L27 52L27 51L26 51L26 50L27 50L27 49ZM60 49L60 50L62 50L62 49ZM1 50L1 51L2 51L2 50ZM4 50L4 51L5 51L5 50ZM47 50L47 51L48 51L48 52L49 52L49 51L50 51L50 50ZM28 51L28 52L29 52L29 51ZM32 51L32 52L33 52L33 51ZM39 52L39 53L40 53L40 52ZM23 53L23 54L24 54L24 53ZM30 53L30 54L31 54L31 53ZM6 54L6 55L7 55L7 54ZM51 54L51 56L52 56L52 55L53 55L53 54ZM10 55L10 59L12 59L12 58L13 58L13 57L12 57L12 56L13 56L13 55ZM19 55L19 56L20 56L20 57L19 57L19 58L17 58L17 59L18 59L18 60L17 60L17 62L18 62L18 60L19 60L19 59L20 59L20 58L21 58L21 56L20 56L20 55ZM27 55L27 56L28 56L28 55ZM64 55L64 56L66 56L66 57L68 57L68 55ZM17 56L17 57L18 57L18 56ZM49 56L49 60L50 60L50 58L51 58L51 60L52 60L52 58L53 58L53 57L52 57L52 58L51 58L51 57L50 57L50 56ZM14 57L14 58L15 58L15 57ZM35 57L35 59L36 59L36 57ZM54 57L54 59L53 59L53 62L55 62L55 63L56 63L56 64L57 64L57 62L55 62L55 60L54 60L54 59L56 59L56 58L55 58L55 57ZM0 58L0 61L1 61L1 58ZM32 58L32 59L31 59L31 60L33 60L33 58ZM67 58L67 59L66 59L66 60L67 60L67 59L68 59L68 58ZM3 60L3 61L5 61L5 60ZM22 60L22 61L23 61L23 62L24 62L24 60ZM14 61L14 62L16 62L16 61ZM33 61L33 64L36 64L36 61ZM47 61L47 62L48 62L48 64L49 64L49 63L51 63L51 62L52 62L52 61L50 61L50 62L49 62L49 61ZM61 61L61 64L64 64L64 61ZM65 61L65 62L68 62L68 61ZM34 62L34 63L35 63L35 62ZM62 62L62 63L63 63L63 62ZM23 63L23 64L24 64L24 63ZM65 63L65 66L67 66L67 65L68 65L68 64L67 64L67 63ZM16 64L16 65L17 65L17 64ZM18 64L18 65L19 65L19 64ZM40 64L40 65L39 65L39 66L40 66L40 67L43 67L43 68L44 68L44 67L45 67L45 66L44 66L44 64L43 64L43 65L42 65L42 66L41 66L41 64ZM21 66L21 67L22 67L22 68L24 68L24 66ZM53 66L53 67L54 67L54 66ZM9 67L9 68L10 68L10 67ZM66 68L66 69L68 69L68 68ZM0 0L0 7L7 7L7 0ZM1 1L1 6L6 6L6 1ZM2 2L2 5L5 5L5 2ZM62 0L62 7L69 7L69 0ZM63 1L63 6L68 6L68 1ZM64 2L64 5L67 5L67 2ZM0 62L0 69L7 69L7 62ZM1 63L1 68L6 68L6 63ZM2 64L2 67L5 67L5 64Z" fill="#000000"/></g></g></svg>
