<?xml version="1.0" encoding="UTF-8"?>
<svg xmlns="http://www.w3.org/2000/svg" version="1.1" width="300" height="300" viewBox="0 0 300 300"><rect x="0" y="0" width="300" height="300" fill="#ffffff"/><g transform="scale(4.348)"><g transform="translate(0,0)"><path fill-rule="evenodd" d="M8 0L8 2L10 2L10 0ZM13 0L13 2L12 2L12 1L11 1L11 2L12 2L12 3L10 3L10 4L11 4L11 5L10 5L10 7L9 7L9 4L8 4L8 9L9 9L9 12L10 12L10 14L9 14L9 13L8 13L8 14L5 14L5 13L3 13L3 11L1 11L1 13L0 13L0 14L1 14L1 17L0 17L0 20L1 20L1 19L2 19L2 21L1 21L1 22L0 22L0 28L1 28L1 27L2 27L2 26L1 26L1 24L2 24L2 23L1 23L1 22L5 22L5 23L3 23L3 24L5 24L5 23L7 23L7 24L6 24L6 25L7 25L7 24L8 24L8 26L6 26L6 27L5 27L5 28L6 28L6 29L7 29L7 30L6 30L6 31L7 31L7 30L8 30L8 31L10 31L10 30L11 30L11 32L4 32L4 33L2 33L2 31L0 31L0 34L1 34L1 35L0 35L0 37L1 37L1 36L3 36L3 35L4 35L4 37L3 37L3 39L2 39L2 38L0 38L0 40L1 40L1 41L0 41L0 42L2 42L2 40L3 40L3 41L4 41L4 42L5 42L5 43L7 43L7 44L6 44L6 45L5 45L5 44L3 44L3 46L4 46L4 48L5 48L5 46L6 46L6 47L7 47L7 46L9 46L9 47L10 47L10 48L9 48L9 49L8 49L8 48L6 48L6 49L8 49L8 52L5 52L5 54L4 54L4 53L3 53L3 52L2 52L2 53L3 53L3 55L2 55L2 56L0 56L0 57L2 57L2 59L3 59L3 58L4 58L4 59L8 59L8 60L6 60L6 61L8 61L8 62L9 62L9 63L8 63L8 64L9 64L9 65L10 65L10 67L13 67L13 66L11 66L11 62L12 62L12 64L13 64L13 65L14 65L14 66L15 66L15 67L16 67L16 65L17 65L17 66L18 66L18 65L19 65L19 64L18 64L18 63L20 63L20 61L19 61L19 60L18 60L18 59L20 59L20 58L19 58L19 56L20 56L20 55L21 55L21 54L20 54L20 53L21 53L21 51L22 51L22 53L23 53L23 55L22 55L22 56L24 56L24 57L25 57L25 58L24 58L24 59L26 59L26 61L25 61L25 62L24 62L24 61L23 61L23 60L21 60L21 62L22 62L22 63L21 63L21 64L20 64L20 65L21 65L21 66L20 66L20 67L21 67L21 69L23 69L23 68L24 68L24 69L25 69L25 68L26 68L26 69L27 69L27 68L28 68L28 65L29 65L29 63L30 63L30 65L31 65L31 67L32 67L32 69L34 69L34 67L36 67L36 66L38 66L38 65L37 65L37 63L38 63L38 61L39 61L39 59L40 59L40 58L41 58L41 60L40 60L40 62L39 62L39 63L40 63L40 62L42 62L42 61L43 61L43 63L42 63L42 65L41 65L41 64L40 64L40 66L39 66L39 67L37 67L37 68L36 68L36 69L37 69L37 68L38 68L38 69L39 69L39 67L40 67L40 69L42 69L42 68L44 68L44 69L45 69L45 68L46 68L46 69L47 69L47 68L48 68L48 69L50 69L50 68L49 68L49 67L50 67L50 63L51 63L51 64L52 64L52 66L51 66L51 68L52 68L52 69L53 69L53 68L52 68L52 66L54 66L54 67L55 67L55 69L57 69L57 68L58 68L58 69L61 69L61 68L62 68L62 69L64 69L64 68L62 68L62 67L63 67L63 66L62 66L62 65L64 65L64 67L65 67L65 68L66 68L66 69L67 69L67 68L66 68L66 67L69 67L69 66L66 66L66 63L67 63L67 62L66 62L66 61L69 61L69 60L68 60L68 59L69 59L69 57L68 57L68 56L67 56L67 57L65 57L65 56L66 56L66 55L67 55L67 54L64 54L64 53L65 53L65 52L66 52L66 53L68 53L68 55L69 55L69 52L68 52L68 49L69 49L69 48L68 48L68 49L67 49L67 50L65 50L65 52L63 52L63 50L64 50L64 49L66 49L66 47L67 47L67 46L68 46L68 47L69 47L69 46L68 46L68 45L69 45L69 44L68 44L68 43L69 43L69 42L68 42L68 39L69 39L69 38L68 38L68 39L67 39L67 42L65 42L65 44L64 44L64 40L65 40L65 39L66 39L66 38L67 38L67 37L65 37L65 36L66 36L66 34L65 34L65 32L66 32L66 30L68 30L68 35L69 35L69 28L68 28L68 29L66 29L66 30L65 30L65 28L64 28L64 29L63 29L63 30L62 30L62 28L63 28L63 27L65 27L65 26L66 26L66 27L67 27L67 26L68 26L68 27L69 27L69 26L68 26L68 25L67 25L67 24L68 24L68 23L69 23L69 20L68 20L68 19L69 19L69 14L68 14L68 13L69 13L69 12L68 12L68 11L69 11L69 8L67 8L67 9L66 9L66 10L63 10L63 11L62 11L62 9L65 9L65 8L61 8L61 11L60 11L60 7L61 7L61 6L60 6L60 7L59 7L59 4L58 4L58 3L59 3L59 2L57 2L57 0L56 0L56 1L55 1L55 0L54 0L54 1L55 1L55 2L54 2L54 3L53 3L53 2L52 2L52 1L53 1L53 0L52 0L52 1L51 1L51 0L50 0L50 1L49 1L49 4L48 4L48 5L47 5L47 4L46 4L46 3L45 3L45 2L41 2L41 0L40 0L40 3L39 3L39 2L38 2L38 1L39 1L39 0L38 0L38 1L37 1L37 0L36 0L36 1L35 1L35 0L34 0L34 1L33 1L33 0L31 0L31 2L32 2L32 3L31 3L31 4L30 4L30 3L29 3L29 2L28 2L28 3L29 3L29 4L28 4L28 5L26 5L26 9L25 9L25 6L24 6L24 5L25 5L25 4L24 4L24 5L23 5L23 6L22 6L22 7L21 7L21 4L22 4L22 3L25 3L25 2L26 2L26 3L27 3L27 2L26 2L26 0L24 0L24 1L23 1L23 0L22 0L22 1L21 1L21 0L18 0L18 1L19 1L19 3L20 3L20 7L19 7L19 5L18 5L18 3L17 3L17 4L16 4L16 2L17 2L17 1L15 1L15 0ZM27 0L27 1L29 1L29 0ZM42 0L42 1L44 1L44 0ZM46 0L46 1L47 1L47 2L48 2L48 1L47 1L47 0ZM58 0L58 1L61 1L61 0ZM14 1L14 2L13 2L13 4L12 4L12 6L11 6L11 7L10 7L10 8L11 8L11 11L10 11L10 12L11 12L11 14L10 14L10 15L11 15L11 16L8 16L8 17L6 17L6 16L7 16L7 15L4 15L4 14L3 14L3 16L2 16L2 19L3 19L3 21L4 21L4 19L3 19L3 16L5 16L5 17L4 17L4 18L5 18L5 17L6 17L6 18L7 18L7 19L6 19L6 20L7 20L7 19L8 19L8 20L9 20L9 19L10 19L10 20L11 20L11 19L12 19L12 20L13 20L13 21L15 21L15 20L16 20L16 19L19 19L19 16L18 16L18 15L19 15L19 14L20 14L20 15L21 15L21 17L22 17L22 19L21 19L21 18L20 18L20 19L21 19L21 21L20 21L20 20L19 20L19 21L20 21L20 23L18 23L18 22L17 22L17 21L16 21L16 22L17 22L17 26L16 26L16 27L17 27L17 28L16 28L16 30L19 30L19 31L18 31L18 32L19 32L19 33L18 33L18 34L19 34L19 40L20 40L20 42L19 42L19 43L18 43L18 42L17 42L17 41L16 41L16 40L18 40L18 36L17 36L17 35L16 35L16 36L15 36L15 37L13 37L13 36L14 36L14 35L13 35L13 34L12 34L12 35L13 35L13 36L12 36L12 37L11 37L11 36L10 36L10 37L9 37L9 38L8 38L8 37L6 37L6 38L8 38L8 39L9 39L9 40L7 40L7 39L6 39L6 40L5 40L5 42L7 42L7 41L8 41L8 44L10 44L10 45L9 45L9 46L12 46L12 47L13 47L13 48L12 48L12 50L13 50L13 51L11 51L11 50L10 50L10 49L11 49L11 48L10 48L10 49L9 49L9 52L8 52L8 53L6 53L6 54L7 54L7 55L6 55L6 56L5 56L5 55L3 55L3 56L5 56L5 57L4 57L4 58L5 58L5 57L6 57L6 58L7 58L7 57L8 57L8 56L9 56L9 58L8 58L8 59L10 59L10 60L11 60L11 61L9 61L9 60L8 60L8 61L9 61L9 62L11 62L11 61L12 61L12 62L13 62L13 64L15 64L15 65L16 65L16 64L17 64L17 63L16 63L16 64L15 64L15 63L14 63L14 62L15 62L15 61L14 61L14 60L13 60L13 61L12 61L12 58L13 58L13 57L14 57L14 58L15 58L15 56L16 56L16 55L17 55L17 54L18 54L18 52L19 52L19 53L20 53L20 52L19 52L19 51L18 51L18 50L19 50L19 48L21 48L21 49L22 49L22 47L24 47L24 48L27 48L27 47L28 47L28 49L24 49L24 50L22 50L22 51L24 51L24 52L25 52L25 53L24 53L24 54L26 54L26 55L24 55L24 56L27 56L27 57L28 57L28 58L30 58L30 60L29 60L29 61L28 61L28 62L27 62L27 61L26 61L26 62L25 62L25 64L24 64L24 62L23 62L23 63L22 63L22 64L21 64L21 65L22 65L22 66L23 66L23 67L22 67L22 68L23 68L23 67L24 67L24 68L25 68L25 67L26 67L26 68L27 68L27 67L26 67L26 66L27 66L27 65L28 65L28 64L26 64L26 63L28 63L28 62L31 62L31 61L30 61L30 60L31 60L31 58L30 58L30 56L31 56L31 54L32 54L32 53L34 53L34 54L35 54L35 55L32 55L32 56L33 56L33 58L34 58L34 59L32 59L32 60L34 60L34 59L36 59L36 60L37 60L37 61L38 61L38 60L37 60L37 59L39 59L39 58L40 58L40 55L39 55L39 54L40 54L40 53L38 53L38 51L39 51L39 50L40 50L40 51L41 51L41 49L40 49L40 48L41 48L41 46L40 46L40 43L41 43L41 45L42 45L42 46L43 46L43 45L44 45L44 48L43 48L43 49L42 49L42 50L43 50L43 51L42 51L42 54L43 54L43 55L41 55L41 57L42 57L42 58L43 58L43 59L44 59L44 60L43 60L43 61L44 61L44 62L45 62L45 63L46 63L46 64L45 64L45 65L44 65L44 63L43 63L43 65L42 65L42 67L43 67L43 65L44 65L44 68L45 68L45 65L46 65L46 66L47 66L47 67L49 67L49 66L48 66L48 63L50 63L50 62L52 62L52 64L54 64L54 66L55 66L55 65L56 65L56 62L57 62L57 65L58 65L58 66L57 66L57 67L60 67L60 68L61 68L61 67L62 67L62 66L61 66L61 65L60 65L60 63L59 63L59 62L60 62L60 61L58 61L58 60L59 60L59 59L60 59L60 58L61 58L61 59L62 59L62 60L63 60L63 59L62 59L62 58L63 58L63 57L64 57L64 58L65 58L65 59L64 59L64 60L65 60L65 59L66 59L66 60L67 60L67 59L68 59L68 57L67 57L67 58L65 58L65 57L64 57L64 54L63 54L63 57L62 57L62 56L61 56L61 57L60 57L60 58L59 58L59 56L60 56L60 55L62 55L62 54L60 54L60 53L59 53L59 52L60 52L60 50L59 50L59 49L58 49L58 47L57 47L57 45L58 45L58 46L60 46L60 48L61 48L61 47L62 47L62 48L63 48L63 49L62 49L62 50L63 50L63 49L64 49L64 48L63 48L63 47L64 47L64 46L67 46L67 45L68 45L68 44L67 44L67 43L68 43L68 42L67 42L67 43L66 43L66 44L67 44L67 45L64 45L64 44L63 44L63 43L62 43L62 42L63 42L63 41L62 41L62 37L60 37L60 38L59 38L59 36L60 36L60 34L59 34L59 32L62 32L62 30L61 30L61 29L60 29L60 31L59 31L59 32L58 32L58 39L60 39L60 38L61 38L61 40L60 40L60 41L62 41L62 42L61 42L61 45L62 45L62 44L63 44L63 45L64 45L64 46L63 46L63 47L62 47L62 46L60 46L60 45L59 45L59 44L60 44L60 43L59 43L59 41L58 41L58 42L56 42L56 44L55 44L55 43L54 43L54 44L55 44L55 45L54 45L54 46L55 46L55 47L54 47L54 48L53 48L53 49L54 49L54 50L52 50L52 49L50 49L50 48L51 48L51 45L52 45L52 46L53 46L53 45L52 45L52 44L53 44L53 42L52 42L52 41L50 41L50 42L52 42L52 44L51 44L51 45L50 45L50 43L49 43L49 42L48 42L48 38L49 38L49 37L48 37L48 36L50 36L50 38L51 38L51 39L52 39L52 38L51 38L51 37L52 37L52 36L53 36L53 35L54 35L54 36L55 36L55 37L54 37L54 38L55 38L55 37L56 37L56 38L57 38L57 37L56 37L56 36L57 36L57 35L56 35L56 36L55 36L55 35L54 35L54 34L55 34L55 33L56 33L56 34L57 34L57 33L56 33L56 32L55 32L55 31L56 31L56 30L57 30L57 31L58 31L58 30L59 30L59 28L60 28L60 27L59 27L59 25L60 25L60 26L61 26L61 28L62 28L62 27L63 27L63 25L62 25L62 26L61 26L61 25L60 25L60 24L61 24L61 21L62 21L62 23L63 23L63 21L64 21L64 23L65 23L65 22L66 22L66 24L67 24L67 23L68 23L68 20L67 20L67 19L68 19L68 18L67 18L67 17L68 17L68 16L67 16L67 15L68 15L68 14L67 14L67 15L66 15L66 13L64 13L64 12L62 12L62 14L61 14L61 12L60 12L60 11L59 11L59 7L58 7L58 5L57 5L57 7L58 7L58 9L57 9L57 10L56 10L56 8L55 8L55 7L56 7L56 5L54 5L54 4L53 4L53 3L52 3L52 4L53 4L53 8L55 8L55 9L54 9L54 10L53 10L53 9L52 9L52 11L51 11L51 13L50 13L50 12L49 12L49 11L50 11L50 10L51 10L51 9L50 9L50 8L51 8L51 7L52 7L52 5L51 5L51 7L50 7L50 6L49 6L49 5L50 5L50 4L51 4L51 1L50 1L50 4L49 4L49 5L48 5L48 6L47 6L47 7L46 7L46 6L45 6L45 7L44 7L44 6L43 6L43 5L46 5L46 4L45 4L45 3L44 3L44 4L43 4L43 5L42 5L42 3L40 3L40 4L39 4L39 3L38 3L38 2L37 2L37 1L36 1L36 3L34 3L34 2L35 2L35 1L34 1L34 2L33 2L33 1L32 1L32 2L33 2L33 3L32 3L32 4L31 4L31 8L32 8L32 4L33 4L33 3L34 3L34 4L36 4L36 3L37 3L37 8L38 8L38 10L39 10L39 11L38 11L38 15L36 15L36 13L37 13L37 11L36 11L36 10L37 10L37 9L35 9L35 11L32 11L32 12L31 12L31 13L30 13L30 8L29 8L29 9L28 9L28 6L29 6L29 7L30 7L30 6L29 6L29 5L28 5L28 6L27 6L27 9L26 9L26 12L27 12L27 13L28 13L28 14L27 14L27 15L26 15L26 14L25 14L25 13L24 13L24 15L23 15L23 14L22 14L22 15L21 15L21 12L19 12L19 9L18 9L18 8L19 8L19 7L18 7L18 6L17 6L17 5L14 5L14 4L15 4L15 1ZM20 1L20 2L21 2L21 3L22 3L22 2L23 2L23 1L22 1L22 2L21 2L21 1ZM24 1L24 2L25 2L25 1ZM55 2L55 3L56 3L56 4L57 4L57 3L56 3L56 2ZM60 3L60 5L61 5L61 3ZM38 4L38 8L39 8L39 6L40 6L40 9L39 9L39 10L40 10L40 11L41 11L41 12L40 12L40 13L39 13L39 14L40 14L40 13L41 13L41 15L38 15L38 17L37 17L37 18L36 18L36 19L37 19L37 18L38 18L38 20L36 20L36 21L35 21L35 20L34 20L34 17L35 17L35 16L36 16L36 15L35 15L35 16L34 16L34 15L33 15L33 12L32 12L32 15L31 15L31 14L30 14L30 13L29 13L29 10L28 10L28 9L27 9L27 12L28 12L28 13L29 13L29 14L28 14L28 15L27 15L27 16L26 16L26 15L24 15L24 16L25 16L25 19L27 19L27 18L28 18L28 17L29 17L29 20L30 20L30 21L29 21L29 22L28 22L28 21L27 21L27 20L26 20L26 21L25 21L25 20L24 20L24 17L23 17L23 15L22 15L22 17L23 17L23 20L22 20L22 21L23 21L23 22L24 22L24 21L25 21L25 23L22 23L22 24L24 24L24 25L25 25L25 24L26 24L26 29L27 29L27 30L25 30L25 31L24 31L24 28L22 28L22 29L21 29L21 28L20 28L20 27L21 27L21 26L20 26L20 24L18 24L18 25L19 25L19 27L18 27L18 29L19 29L19 30L20 30L20 31L19 31L19 32L20 32L20 33L21 33L21 31L22 31L22 30L23 30L23 31L24 31L24 33L23 33L23 32L22 32L22 33L23 33L23 35L22 35L22 38L20 38L20 40L21 40L21 42L22 42L22 45L23 45L23 46L24 46L24 45L25 45L25 44L26 44L26 47L27 47L27 46L28 46L28 47L30 47L30 49L29 49L29 50L28 50L28 51L29 51L29 52L30 52L30 54L28 54L28 52L27 52L27 50L26 50L26 51L25 51L25 50L24 50L24 51L25 51L25 52L26 52L26 54L28 54L28 55L29 55L29 56L28 56L28 57L29 57L29 56L30 56L30 54L31 54L31 52L30 52L30 49L31 49L31 51L32 51L32 52L33 52L33 51L35 51L35 52L34 52L34 53L36 53L36 55L35 55L35 56L34 56L34 58L36 58L36 59L37 59L37 58L38 58L38 57L39 57L39 55L38 55L38 53L37 53L37 52L36 52L36 51L37 51L37 50L38 50L38 48L36 48L36 46L34 46L34 49L32 49L32 48L33 48L33 47L32 47L32 46L33 46L33 44L34 44L34 45L36 45L36 44L35 44L35 43L34 43L34 42L36 42L36 41L37 41L37 43L39 43L39 42L41 42L41 41L43 41L43 42L46 42L46 41L47 41L47 39L46 39L46 35L47 35L47 36L48 36L48 35L49 35L49 33L50 33L50 32L49 32L49 31L51 31L51 30L50 30L50 28L49 28L49 26L50 26L50 27L51 27L51 28L52 28L52 29L53 29L53 30L52 30L52 31L53 31L53 30L54 30L54 31L55 31L55 30L54 30L54 29L55 29L55 28L56 28L56 29L57 29L57 30L58 30L58 28L59 28L59 27L58 27L58 25L59 25L59 24L58 24L58 25L57 25L57 24L56 24L56 26L55 26L55 27L53 27L53 26L50 26L50 20L52 20L52 21L51 21L51 22L52 22L52 21L53 21L53 23L56 23L56 22L57 22L57 23L59 23L59 22L60 22L60 21L61 21L61 20L59 20L59 22L58 22L58 20L56 20L56 19L59 19L59 18L60 18L60 19L62 19L62 21L63 21L63 19L62 19L62 17L63 17L63 15L62 15L62 17L61 17L61 15L60 15L60 12L59 12L59 11L55 11L55 10L54 10L54 11L53 11L53 12L52 12L52 13L51 13L51 14L52 14L52 15L51 15L51 16L50 16L50 15L49 15L49 12L48 12L48 13L47 13L47 12L46 12L46 11L48 11L48 9L49 9L49 10L50 10L50 9L49 9L49 8L48 8L48 7L49 7L49 6L48 6L48 7L47 7L47 8L44 8L44 10L42 10L42 8L43 8L43 6L42 6L42 5L41 5L41 4L40 4L40 5L39 5L39 4ZM33 5L33 8L36 8L36 5ZM12 6L12 7L11 7L11 8L12 8L12 12L14 12L14 10L15 10L15 11L17 11L17 12L15 12L15 13L14 13L14 14L13 14L13 15L12 15L12 14L11 14L11 15L12 15L12 16L13 16L13 18L14 18L14 19L13 19L13 20L15 20L15 18L16 18L16 16L17 16L17 14L15 14L15 13L17 13L17 12L18 12L18 13L19 13L19 12L18 12L18 11L17 11L17 9L16 9L16 10L15 10L15 8L18 8L18 7L17 7L17 6L16 6L16 7L15 7L15 6L14 6L14 7L13 7L13 6ZM23 6L23 7L22 7L22 8L23 8L23 7L24 7L24 6ZM34 6L34 7L35 7L35 6ZM41 6L41 8L42 8L42 6ZM54 6L54 7L55 7L55 6ZM20 7L20 8L21 8L21 7ZM0 8L0 9L2 9L2 10L3 10L3 8ZM5 8L5 9L7 9L7 8ZM47 8L47 9L46 9L46 10L44 10L44 11L46 11L46 10L47 10L47 9L48 9L48 8ZM13 9L13 10L14 10L14 9ZM20 9L20 10L21 10L21 11L22 11L22 10L23 10L23 9L22 9L22 10L21 10L21 9ZM33 9L33 10L34 10L34 9ZM40 9L40 10L41 10L41 11L42 11L42 12L43 12L43 11L42 11L42 10L41 10L41 9ZM6 10L6 11L5 11L5 12L6 12L6 13L7 13L7 12L6 12L6 11L7 11L7 10ZM24 10L24 11L25 11L25 10ZM66 10L66 12L67 12L67 13L68 13L68 12L67 12L67 10ZM54 11L54 15L53 15L53 16L54 16L54 15L55 15L55 17L54 17L54 18L55 18L55 19L56 19L56 18L55 18L55 17L56 17L56 16L57 16L57 17L58 17L58 18L59 18L59 17L60 17L60 18L61 18L61 17L60 17L60 16L59 16L59 15L58 15L58 14L59 14L59 13L58 13L58 12L57 12L57 13L56 13L56 12L55 12L55 11ZM42 13L42 15L41 15L41 16L42 16L42 15L43 15L43 17L42 17L42 18L41 18L41 17L40 17L40 19L39 19L39 21L38 21L38 23L36 23L36 22L37 22L37 21L36 21L36 22L34 22L34 21L33 21L33 17L30 17L30 16L31 16L31 15L30 15L30 16L29 16L29 17L30 17L30 20L31 20L31 21L32 21L32 22L34 22L34 25L32 25L32 28L31 28L31 31L30 31L30 28L29 28L29 29L28 29L28 31L27 31L27 33L26 33L26 32L25 32L25 33L24 33L24 34L26 34L26 35L24 35L24 36L25 36L25 37L24 37L24 40L25 40L25 41L26 41L26 40L25 40L25 37L26 37L26 39L27 39L27 40L28 40L28 39L27 39L27 37L28 37L28 38L30 38L30 40L29 40L29 41L28 41L28 44L27 44L27 42L26 42L26 44L27 44L27 45L28 45L28 46L29 46L29 45L30 45L30 47L31 47L31 45L32 45L32 43L33 43L33 42L32 42L32 43L30 43L30 40L31 40L31 38L32 38L32 35L31 35L31 37L30 37L30 36L29 36L29 35L28 35L28 34L30 34L30 32L31 32L31 31L32 31L32 32L35 32L35 31L36 31L36 29L37 29L37 27L39 27L39 28L38 28L38 30L37 30L37 31L38 31L38 32L37 32L37 36L38 36L38 38L37 38L37 37L36 37L36 40L39 40L39 41L38 41L38 42L39 42L39 41L40 41L40 39L38 39L38 38L41 38L41 39L42 39L42 38L43 38L43 39L44 39L44 40L43 40L43 41L44 41L44 40L45 40L45 41L46 41L46 39L44 39L44 35L46 35L46 34L47 34L47 35L48 35L48 31L49 31L49 29L48 29L48 28L47 28L47 27L46 27L46 28L45 28L45 27L44 27L44 26L43 26L43 25L44 25L44 23L45 23L45 25L46 25L46 26L47 26L47 23L45 23L45 22L44 22L44 23L40 23L40 20L41 20L41 19L42 19L42 20L43 20L43 21L42 21L42 22L43 22L43 21L44 21L44 20L46 20L46 22L48 22L48 23L49 23L49 21L48 21L48 20L50 20L50 19L51 19L51 18L52 18L52 17L49 17L49 19L48 19L48 20L46 20L46 19L47 19L47 17L48 17L48 16L49 16L49 15L48 15L48 14L47 14L47 13L46 13L46 16L45 16L45 17L44 17L44 15L45 15L45 13L44 13L44 15L43 15L43 13ZM52 13L52 14L53 14L53 13ZM55 13L55 14L56 14L56 15L57 15L57 14L58 14L58 13L57 13L57 14L56 14L56 13ZM63 13L63 14L64 14L64 13ZM14 14L14 18L15 18L15 16L16 16L16 15L15 15L15 14ZM32 15L32 16L33 16L33 15ZM65 15L65 16L64 16L64 19L66 19L66 18L65 18L65 17L67 17L67 16L66 16L66 15ZM46 16L46 17L45 17L45 18L46 18L46 17L47 17L47 16ZM58 16L58 17L59 17L59 16ZM8 17L8 18L9 18L9 17ZM38 17L38 18L39 18L39 17ZM42 18L42 19L44 19L44 18ZM54 20L54 22L56 22L56 20ZM64 20L64 21L65 21L65 20ZM6 21L6 22L7 22L7 23L9 23L9 24L10 24L10 23L12 23L12 24L11 24L11 26L10 26L10 25L9 25L9 27L8 27L8 28L7 28L7 27L6 27L6 28L7 28L7 29L9 29L9 27L10 27L10 29L12 29L12 28L11 28L11 27L12 27L12 26L13 26L13 29L15 29L15 26L13 26L13 25L15 25L15 24L14 24L14 23L15 23L15 22L14 22L14 23L13 23L13 22L12 22L12 21ZM26 21L26 22L27 22L27 23L26 23L26 24L28 24L28 26L29 26L29 27L30 27L30 26L31 26L31 25L30 25L30 24L31 24L31 22L30 22L30 24L28 24L28 22L27 22L27 21ZM9 22L9 23L10 23L10 22ZM32 23L32 24L33 24L33 23ZM35 23L35 24L36 24L36 25L38 25L38 24L36 24L36 23ZM39 23L39 24L40 24L40 25L39 25L39 27L40 27L40 25L41 25L41 28L40 28L40 29L39 29L39 31L40 31L40 34L39 34L39 35L38 35L38 36L39 36L39 35L40 35L40 34L41 34L41 36L40 36L40 37L41 37L41 38L42 38L42 37L41 37L41 36L42 36L42 31L40 31L40 29L41 29L41 28L42 28L42 27L43 27L43 28L44 28L44 29L45 29L45 30L44 30L44 34L43 34L43 35L44 35L44 34L46 34L46 32L45 32L45 30L46 30L46 31L48 31L48 29L47 29L47 28L46 28L46 29L45 29L45 28L44 28L44 27L43 27L43 26L42 26L42 24L40 24L40 23ZM51 23L51 24L52 24L52 25L53 25L53 24L52 24L52 23ZM54 24L54 25L55 25L55 24ZM3 25L3 26L4 26L4 25ZM64 25L64 26L65 26L65 25ZM22 26L22 27L23 27L23 26ZM24 26L24 27L25 27L25 26ZM33 26L33 28L34 28L34 30L32 30L32 31L34 31L34 30L35 30L35 29L36 29L36 27L37 27L37 26L36 26L36 27L35 27L35 28L34 28L34 26ZM3 27L3 29L2 29L2 30L4 30L4 27ZM27 27L27 28L28 28L28 27ZM52 27L52 28L53 28L53 27ZM56 27L56 28L58 28L58 27ZM0 29L0 30L1 30L1 29ZM20 29L20 30L21 30L21 29ZM46 29L46 30L47 30L47 29ZM63 30L63 31L64 31L64 30ZM16 31L16 32L15 32L15 34L17 34L17 31ZM29 31L29 32L30 32L30 31ZM13 32L13 33L14 33L14 32ZM38 32L38 33L39 33L39 32ZM52 32L52 33L51 33L51 35L53 35L53 34L54 34L54 32ZM1 33L1 34L2 34L2 33ZM5 33L5 36L8 36L8 33ZM10 33L10 34L9 34L9 35L10 35L10 34L11 34L11 33ZM33 33L33 36L36 36L36 33ZM52 33L52 34L53 34L53 33ZM61 33L61 36L64 36L64 33ZM6 34L6 35L7 35L7 34ZM20 34L20 35L21 35L21 34ZM34 34L34 35L35 35L35 34ZM62 34L62 35L63 35L63 34ZM26 35L26 37L27 37L27 36L28 36L28 37L29 37L29 36L28 36L28 35ZM16 36L16 37L15 37L15 38L11 38L11 37L10 37L10 38L9 38L9 39L10 39L10 41L9 41L9 43L11 43L11 45L14 45L14 44L15 44L15 43L14 43L14 42L15 42L15 41L13 41L13 40L12 40L12 39L14 39L14 40L16 40L16 39L17 39L17 38L16 38L16 37L17 37L17 36ZM68 36L68 37L69 37L69 36ZM63 37L63 40L64 40L64 38L65 38L65 37ZM10 38L10 39L11 39L11 38ZM15 38L15 39L16 39L16 38ZM34 38L34 40L35 40L35 38ZM3 39L3 40L4 40L4 39ZM22 39L22 40L23 40L23 39ZM32 39L32 41L33 41L33 39ZM49 39L49 40L50 40L50 39ZM53 39L53 41L54 41L54 42L55 42L55 39ZM6 40L6 41L7 41L7 40ZM11 40L11 41L12 41L12 42L11 42L11 43L12 43L12 44L13 44L13 43L12 43L12 42L13 42L13 41L12 41L12 40ZM22 41L22 42L23 42L23 41ZM16 42L16 43L17 43L17 42ZM24 42L24 43L25 43L25 42ZM0 43L0 45L2 45L2 44L1 44L1 43ZM43 43L43 44L42 44L42 45L43 45L43 44L44 44L44 45L45 45L45 48L44 48L44 50L46 50L46 51L45 51L45 52L44 52L44 53L45 53L45 54L44 54L44 58L45 58L45 59L46 59L46 60L44 60L44 61L47 61L47 59L48 59L48 62L47 62L47 63L48 63L48 62L50 62L50 60L51 60L51 59L50 59L50 56L52 56L52 57L53 57L53 58L52 58L52 62L53 62L53 63L55 63L55 62L56 62L56 61L57 61L57 60L58 60L58 59L59 59L59 58L58 58L58 57L57 57L57 56L56 56L56 58L55 58L55 59L56 59L56 58L58 58L58 59L57 59L57 60L56 60L56 61L55 61L55 62L54 62L54 55L53 55L53 56L52 56L52 53L53 53L53 52L54 52L54 53L55 53L55 55L56 55L56 53L57 53L57 55L58 55L58 53L57 53L57 51L56 51L56 50L58 50L58 49L57 49L57 48L56 48L56 47L55 47L55 48L56 48L56 49L55 49L55 50L54 50L54 51L53 51L53 52L52 52L52 50L50 50L50 49L49 49L49 47L48 47L48 46L50 46L50 45L49 45L49 44L48 44L48 46L47 46L47 48L46 48L46 45L47 45L47 44L46 44L46 43L45 43L45 44L44 44L44 43ZM57 43L57 44L56 44L56 45L55 45L55 46L56 46L56 45L57 45L57 44L58 44L58 43ZM16 44L16 45L15 45L15 47L14 47L14 51L13 51L13 54L14 54L14 55L12 55L12 56L11 56L11 57L10 57L10 58L12 58L12 57L13 57L13 56L15 56L15 55L16 55L16 53L17 53L17 52L16 52L16 53L15 53L15 50L16 50L16 49L15 49L15 48L17 48L17 47L16 47L16 45L17 45L17 46L18 46L18 45L19 45L19 47L18 47L18 48L19 48L19 47L22 47L22 46L20 46L20 44L18 44L18 45L17 45L17 44ZM23 44L23 45L24 45L24 44ZM28 44L28 45L29 45L29 44ZM30 44L30 45L31 45L31 44ZM37 44L37 47L38 47L38 45L39 45L39 44ZM45 44L45 45L46 45L46 44ZM4 45L4 46L5 46L5 45ZM6 45L6 46L7 46L7 45ZM2 47L2 48L0 48L0 49L2 49L2 50L0 50L0 52L1 52L1 51L2 51L2 50L3 50L3 49L2 49L2 48L3 48L3 47ZM39 47L39 48L40 48L40 47ZM35 48L35 49L34 49L34 50L35 50L35 51L36 51L36 50L37 50L37 49L36 49L36 48ZM47 48L47 49L46 49L46 50L48 50L48 51L47 51L47 53L46 53L46 52L45 52L45 53L46 53L46 54L49 54L49 55L50 55L50 54L51 54L51 53L52 53L52 52L51 52L51 53L50 53L50 54L49 54L49 53L48 53L48 51L49 51L49 52L50 52L50 51L49 51L49 49L48 49L48 48ZM35 49L35 50L36 50L36 49ZM6 50L6 51L7 51L7 50ZM20 50L20 51L21 51L21 50ZM54 51L54 52L55 52L55 53L56 53L56 52L55 52L55 51ZM66 51L66 52L67 52L67 51ZM61 52L61 53L62 53L62 52ZM0 53L0 55L1 55L1 53ZM8 53L8 55L9 55L9 53ZM11 53L11 54L10 54L10 55L11 55L11 54L12 54L12 53ZM19 54L19 55L20 55L20 54ZM59 54L59 55L60 55L60 54ZM36 55L36 56L35 56L35 57L36 57L36 58L37 58L37 57L36 57L36 56L37 56L37 55ZM45 55L45 57L46 57L46 58L47 58L47 57L48 57L48 58L49 58L49 57L48 57L48 55ZM6 56L6 57L7 57L7 56ZM17 56L17 58L16 58L16 59L18 59L18 56ZM0 58L0 61L1 61L1 58ZM26 58L26 59L27 59L27 60L28 60L28 59L27 59L27 58ZM49 59L49 60L50 60L50 59ZM3 60L3 61L5 61L5 60ZM41 60L41 61L42 61L42 60ZM16 61L16 62L17 62L17 61ZM33 61L33 64L36 64L36 61ZM61 61L61 64L64 64L64 61ZM34 62L34 63L35 63L35 62ZM62 62L62 63L63 63L63 62ZM68 62L68 64L67 64L67 65L69 65L69 62ZM9 63L9 64L10 64L10 63ZM22 64L22 65L23 65L23 66L24 66L24 67L25 67L25 66L24 66L24 64ZM46 64L46 65L47 65L47 64ZM32 65L32 67L33 67L33 65ZM34 65L34 66L36 66L36 65ZM8 66L8 69L9 69L9 66ZM60 66L60 67L61 67L61 66ZM65 66L65 67L66 67L66 66ZM29 67L29 69L31 69L31 68L30 68L30 67ZM10 68L10 69L11 69L11 68ZM16 68L16 69L17 69L17 68ZM18 68L18 69L19 69L19 68ZM68 68L68 69L69 69L69 68ZM0 0L0 7L7 7L7 0ZM1 1L1 6L6 6L6 1ZM2 2L2 5L5 5L5 2ZM62 0L62 7L69 7L69 0ZM63 1L63 6L68 6L68 1ZM64 2L64 5L67 5L67 2ZM0 62L0 69L7 69L7 62ZM1 63L1 68L6 68L6 63ZM2 64L2 67L5 67L5 64Z" fill="#000000"/></g></g></svg>
