<?xml version="1.0" encoding="UTF-8"?>
<svg xmlns="http://www.w3.org/2000/svg" version="1.1" width="300" height="300" viewBox="0 0 300 300"><rect x="0" y="0" width="300" height="300" fill="#ffffff"/><g transform="scale(4.348)"><g transform="translate(0,0)"><path fill-rule="evenodd" d="M8 0L8 2L9 2L9 4L8 4L8 10L6 10L6 9L7 9L7 8L5 8L5 9L4 9L4 10L3 10L3 8L0 8L0 9L2 9L2 10L3 10L3 12L4 12L4 10L6 10L6 11L7 11L7 12L5 12L5 13L4 13L4 15L7 15L7 16L3 16L3 14L2 14L2 11L1 11L1 12L0 12L0 14L1 14L1 15L0 15L0 16L1 16L1 17L0 17L0 18L2 18L2 20L1 20L1 19L0 19L0 20L1 20L1 21L0 21L0 22L1 22L1 21L3 21L3 20L4 20L4 23L2 23L2 26L3 26L3 27L1 27L1 24L0 24L0 29L1 29L1 30L0 30L0 32L1 32L1 34L2 34L2 35L3 35L3 33L4 33L4 36L3 36L3 37L4 37L4 38L3 38L3 39L2 39L2 40L0 40L0 41L1 41L1 46L0 46L0 47L1 47L1 50L3 50L3 52L1 52L1 53L0 53L0 55L1 55L1 56L0 56L0 57L1 57L1 58L0 58L0 61L1 61L1 58L2 58L2 59L3 59L3 58L2 58L2 55L3 55L3 57L4 57L4 59L7 59L7 60L6 60L6 61L7 61L7 60L8 60L8 58L5 58L5 57L9 57L9 58L10 58L10 57L11 57L11 59L9 59L9 61L8 61L8 62L9 62L9 63L8 63L8 64L9 64L9 65L10 65L10 67L11 67L11 68L12 68L12 69L13 69L13 67L14 67L14 64L15 64L15 63L14 63L14 64L11 64L11 63L13 63L13 61L14 61L14 59L15 59L15 60L16 60L16 61L15 61L15 62L16 62L16 65L15 65L15 66L16 66L16 67L17 67L17 69L19 69L19 68L18 68L18 67L19 67L19 66L18 66L18 65L19 65L19 64L20 64L20 65L21 65L21 66L20 66L20 67L21 67L21 69L23 69L23 68L22 68L22 67L23 67L23 66L24 66L24 65L25 65L25 62L24 62L24 63L23 63L23 62L22 62L22 61L23 61L23 60L22 60L22 61L21 61L21 60L20 60L20 61L19 61L19 60L18 60L18 62L16 62L16 61L17 61L17 59L18 59L18 57L19 57L19 58L20 58L20 57L21 57L21 56L20 56L20 57L19 57L19 55L21 55L21 54L22 54L22 53L23 53L23 54L24 54L24 52L25 52L25 51L26 51L26 54L25 54L25 55L26 55L26 57L27 57L27 59L26 59L26 58L24 58L24 59L26 59L26 61L27 61L27 60L28 60L28 59L29 59L29 60L30 60L30 61L29 61L29 62L30 62L30 63L31 63L31 64L30 64L30 65L29 65L29 63L28 63L28 62L27 62L27 63L26 63L26 64L27 64L27 63L28 63L28 65L27 65L27 66L25 66L25 69L27 69L27 68L28 68L28 65L29 65L29 66L30 66L30 65L31 65L31 68L30 68L30 67L29 67L29 69L31 69L31 68L32 68L32 69L34 69L34 67L33 67L33 68L32 68L32 65L33 65L33 66L34 66L34 65L35 65L35 66L36 66L36 65L38 65L38 64L40 64L40 65L39 65L39 67L40 67L40 69L43 69L43 68L42 68L42 65L43 65L43 67L44 67L44 65L45 65L45 66L46 66L46 64L45 64L45 62L46 62L46 61L47 61L47 63L48 63L48 66L47 66L47 67L45 67L45 68L44 68L44 69L45 69L45 68L46 68L46 69L47 69L47 68L48 68L48 69L49 69L49 67L48 67L48 66L50 66L50 67L51 67L51 68L50 68L50 69L51 69L51 68L52 68L52 69L55 69L55 68L56 68L56 69L60 69L60 68L58 68L58 67L59 67L59 66L60 66L60 67L61 67L61 69L66 69L66 67L69 67L69 66L67 66L67 65L66 65L66 63L67 63L67 64L68 64L68 65L69 65L69 64L68 64L68 63L69 63L69 62L68 62L68 59L69 59L69 58L68 58L68 55L69 55L69 52L68 52L68 49L69 49L69 42L68 42L68 47L67 47L67 46L64 46L64 45L65 45L65 44L66 44L66 45L67 45L67 44L66 44L66 43L67 43L67 41L69 41L69 38L68 38L68 37L69 37L69 36L68 36L68 37L67 37L67 36L66 36L66 35L67 35L67 34L66 34L66 33L65 33L65 32L66 32L66 30L67 30L67 29L66 29L66 26L68 26L68 27L67 27L67 28L68 28L68 31L69 31L69 28L68 28L68 27L69 27L69 26L68 26L68 24L69 24L69 22L68 22L68 21L69 21L69 20L68 20L68 19L69 19L69 17L68 17L68 16L69 16L69 12L68 12L68 11L69 11L69 8L67 8L67 10L68 10L68 11L67 11L67 12L66 12L66 11L65 11L65 10L66 10L66 9L65 9L65 8L61 8L61 6L60 6L60 8L61 8L61 12L62 12L62 13L63 13L63 11L64 11L64 14L63 14L63 15L62 15L62 17L61 17L61 16L60 16L60 15L61 15L61 14L60 14L60 13L59 13L59 12L60 12L60 9L59 9L59 10L58 10L58 8L59 8L59 4L58 4L58 3L59 3L59 2L57 2L57 1L56 1L56 0L54 0L54 1L53 1L53 0L50 0L50 1L49 1L49 0L48 0L48 1L49 1L49 2L48 2L48 3L47 3L47 4L46 4L46 2L44 2L44 3L43 3L43 2L42 2L42 3L43 3L43 4L42 4L42 5L43 5L43 6L42 6L42 7L41 7L41 4L40 4L40 3L41 3L41 2L40 2L40 1L41 1L41 0L38 0L38 1L37 1L37 3L38 3L38 5L37 5L37 4L34 4L34 3L35 3L35 2L34 2L34 0L31 0L31 1L32 1L32 3L31 3L31 4L30 4L30 3L29 3L29 2L28 2L28 3L29 3L29 4L28 4L28 5L27 5L27 6L26 6L26 7L25 7L25 3L26 3L26 2L25 2L25 1L26 1L26 0L24 0L24 2L22 2L22 1L23 1L23 0L18 0L18 1L17 1L17 0L15 0L15 1L16 1L16 3L17 3L17 4L16 4L16 5L17 5L17 6L16 6L16 7L17 7L17 8L15 8L15 6L14 6L14 5L13 5L13 4L15 4L15 3L12 3L12 2L13 2L13 0L12 0L12 1L11 1L11 0L10 0L10 2L9 2L9 0ZM27 0L27 1L29 1L29 0ZM42 0L42 1L44 1L44 0ZM46 0L46 1L47 1L47 0ZM58 0L58 1L61 1L61 0ZM18 1L18 2L17 2L17 3L18 3L18 4L17 4L17 5L18 5L18 6L17 6L17 7L18 7L18 8L17 8L17 9L16 9L16 12L15 12L15 11L14 11L14 12L15 12L15 13L13 13L13 15L12 15L12 14L8 14L8 13L10 13L10 12L11 12L11 11L12 11L12 10L14 10L14 8L13 8L13 7L14 7L14 6L13 6L13 7L12 7L12 6L11 6L11 7L10 7L10 4L9 4L9 8L12 8L12 9L9 9L9 10L8 10L8 13L6 13L6 14L8 14L8 15L10 15L10 16L8 16L8 17L4 17L4 18L5 18L5 19L4 19L4 20L5 20L5 22L8 22L8 23L4 23L4 24L5 24L5 27L3 27L3 28L4 28L4 29L6 29L6 30L4 30L4 31L1 31L1 32L2 32L2 33L3 33L3 32L5 32L5 31L6 31L6 32L7 32L7 31L6 31L6 30L7 30L7 29L6 29L6 28L9 28L9 27L10 27L10 29L12 29L12 30L9 30L9 29L8 29L8 32L9 32L9 31L14 31L14 30L15 30L15 25L13 25L13 24L14 24L14 23L15 23L15 24L16 24L16 22L17 22L17 25L18 25L18 26L16 26L16 27L20 27L20 31L18 31L18 32L19 32L19 33L18 33L18 34L17 34L17 31L16 31L16 35L17 35L17 37L16 37L16 36L15 36L15 35L12 35L12 34L11 34L11 32L10 32L10 33L9 33L9 34L10 34L10 36L9 36L9 38L8 38L8 37L5 37L5 39L4 39L4 40L2 40L2 44L3 44L3 45L2 45L2 46L1 46L1 47L2 47L2 48L7 48L7 49L5 49L5 50L7 50L7 49L8 49L8 50L9 50L9 51L6 51L6 52L8 52L8 53L6 53L6 54L5 54L5 52L4 52L4 54L3 54L3 53L2 53L2 54L3 54L3 55L5 55L5 56L7 56L7 55L6 55L6 54L10 54L10 55L9 55L9 56L11 56L11 57L12 57L12 54L13 54L13 53L16 53L16 54L15 54L15 56L17 56L17 57L18 57L18 55L19 55L19 53L18 53L18 52L19 52L19 51L18 51L18 50L19 50L19 48L18 48L18 47L19 47L19 46L18 46L18 44L19 44L19 43L18 43L18 42L19 42L19 41L20 41L20 42L21 42L21 41L20 41L20 40L19 40L19 41L18 41L18 39L17 39L17 37L18 37L18 38L19 38L19 37L18 37L18 35L19 35L19 36L21 36L21 37L20 37L20 39L21 39L21 38L23 38L23 37L22 37L22 35L23 35L23 36L24 36L24 34L25 34L25 37L24 37L24 38L26 38L26 34L27 34L27 35L28 35L28 36L27 36L27 37L28 37L28 38L30 38L30 40L29 40L29 41L28 41L28 42L27 42L27 41L26 41L26 40L28 40L28 39L24 39L24 40L25 40L25 41L26 41L26 44L25 44L25 45L24 45L24 44L23 44L23 45L22 45L22 44L21 44L21 43L20 43L20 44L21 44L21 45L20 45L20 48L22 48L22 47L24 47L24 48L23 48L23 49L24 49L24 50L23 50L23 51L24 51L24 50L26 50L26 51L27 51L27 52L28 52L28 54L26 54L26 55L27 55L27 57L28 57L28 58L29 58L29 59L30 59L30 56L31 56L31 54L30 54L30 52L33 52L33 53L34 53L34 54L33 54L33 55L32 55L32 57L31 57L31 58L32 58L32 59L33 59L33 58L32 58L32 57L34 57L34 60L35 60L35 57L36 57L36 58L37 58L37 56L38 56L38 59L36 59L36 60L37 60L37 61L38 61L38 62L37 62L37 64L38 64L38 62L40 62L40 63L41 63L41 65L40 65L40 66L41 66L41 65L42 65L42 63L43 63L43 65L44 65L44 62L43 62L43 61L44 61L44 60L46 60L46 59L45 59L45 57L46 57L46 58L48 58L48 56L50 56L50 59L49 59L49 60L50 60L50 62L49 62L49 61L48 61L48 59L47 59L47 61L48 61L48 63L49 63L49 64L50 64L50 62L51 62L51 63L52 63L52 64L51 64L51 65L50 65L50 66L51 66L51 65L52 65L52 68L53 68L53 67L54 67L54 68L55 68L55 67L56 67L56 68L57 68L57 67L56 67L56 66L57 66L57 65L56 65L56 64L57 64L57 62L56 62L56 63L55 63L55 61L56 61L56 60L57 60L57 59L58 59L58 63L59 63L59 65L58 65L58 66L59 66L59 65L60 65L60 66L61 66L61 67L62 67L62 68L63 68L63 67L62 67L62 66L63 66L63 65L62 65L62 66L61 66L61 65L60 65L60 63L59 63L59 60L60 60L60 59L61 59L61 60L65 60L65 61L66 61L66 62L67 62L67 63L68 63L68 62L67 62L67 59L68 59L68 58L67 58L67 59L66 59L66 56L67 56L67 54L66 54L66 56L65 56L65 57L64 57L64 59L62 59L62 57L63 57L63 56L64 56L64 54L65 54L65 53L64 53L64 54L63 54L63 52L65 52L65 51L64 51L64 50L66 50L66 52L67 52L67 50L66 50L66 49L68 49L68 48L67 48L67 47L66 47L66 49L65 49L65 47L64 47L64 46L63 46L63 45L64 45L64 42L65 42L65 43L66 43L66 41L67 41L67 40L68 40L68 38L67 38L67 37L66 37L66 36L65 36L65 37L63 37L63 40L61 40L61 41L60 41L60 42L61 42L61 44L62 44L62 46L61 46L61 47L62 47L62 48L61 48L61 49L60 49L60 50L59 50L59 49L58 49L58 51L57 51L57 53L58 53L58 54L57 54L57 55L56 55L56 56L55 56L55 54L56 54L56 52L55 52L55 53L54 53L54 51L52 51L52 50L53 50L53 49L52 49L52 48L53 48L53 47L56 47L56 48L54 48L54 50L55 50L55 51L56 51L56 50L55 50L55 49L56 49L56 48L57 48L57 46L55 46L55 45L56 45L56 44L57 44L57 45L58 45L58 46L60 46L60 45L58 45L58 44L57 44L57 43L56 43L56 42L55 42L55 41L56 41L56 38L57 38L57 40L58 40L58 38L60 38L60 37L58 37L58 36L60 36L60 33L59 33L59 32L58 32L58 34L56 34L56 32L57 32L57 31L56 31L56 30L55 30L55 29L56 29L56 28L58 28L58 31L60 31L60 30L61 30L61 32L62 32L62 30L63 30L63 31L65 31L65 30L66 30L66 29L65 29L65 30L64 30L64 28L65 28L65 27L63 27L63 26L64 26L64 25L62 25L62 24L63 24L63 23L62 23L62 24L61 24L61 25L60 25L60 26L59 26L59 23L58 23L58 22L59 22L59 21L60 21L60 23L61 23L61 20L59 20L59 21L58 21L58 22L57 22L57 23L55 23L55 22L56 22L56 20L58 20L58 19L56 19L56 16L57 16L57 17L58 17L58 18L59 18L59 19L60 19L60 18L61 18L61 17L60 17L60 18L59 18L59 17L58 17L58 16L59 16L59 15L60 15L60 14L59 14L59 13L58 13L58 14L57 14L57 13L56 13L56 14L55 14L55 11L56 11L56 10L57 10L57 9L56 9L56 8L54 8L54 6L55 6L55 7L56 7L56 6L57 6L57 7L58 7L58 4L57 4L57 3L56 3L56 4L55 4L55 5L54 5L54 3L52 3L52 4L51 4L51 3L50 3L50 2L53 2L53 1L50 1L50 2L49 2L49 3L48 3L48 4L51 4L51 5L52 5L52 4L53 4L53 5L54 5L54 6L53 6L53 7L52 7L52 6L51 6L51 7L50 7L50 6L49 6L49 7L48 7L48 5L46 5L46 4L45 4L45 3L44 3L44 4L43 4L43 5L46 5L46 6L45 6L45 8L47 8L47 9L46 9L46 10L44 10L44 6L43 6L43 9L42 9L42 10L44 10L44 11L45 11L45 12L46 12L46 14L47 14L47 13L48 13L48 14L49 14L49 13L48 13L48 12L49 12L49 11L53 11L53 10L51 10L51 9L52 9L52 8L54 8L54 14L53 14L53 13L52 13L52 14L51 14L51 12L50 12L50 15L49 15L49 16L50 16L50 18L49 18L49 17L48 17L48 18L47 18L47 16L46 16L46 15L45 15L45 13L44 13L44 15L43 15L43 17L42 17L42 18L41 18L41 19L42 19L42 18L44 18L44 19L43 19L43 20L41 20L41 21L40 21L40 20L38 20L38 18L39 18L39 19L40 19L40 18L39 18L39 17L40 17L40 16L39 16L39 15L41 15L41 16L42 16L42 15L41 15L41 13L40 13L40 14L39 14L39 11L41 11L41 9L40 9L40 8L41 8L41 7L40 7L40 4L39 4L39 5L38 5L38 6L37 6L37 8L38 8L38 6L39 6L39 7L40 7L40 8L39 8L39 9L38 9L38 10L37 10L37 9L34 9L34 10L35 10L35 11L34 11L34 12L35 12L35 13L33 13L33 15L32 15L32 12L33 12L33 11L32 11L32 12L31 12L31 11L30 11L30 8L29 8L29 9L28 9L28 6L29 6L29 7L30 7L30 6L29 6L29 5L28 5L28 6L27 6L27 7L26 7L26 8L25 8L25 7L24 7L24 6L23 6L23 5L24 5L24 3L25 3L25 2L24 2L24 3L22 3L22 2L21 2L21 1L20 1L20 2L21 2L21 7L20 7L20 3L18 3L18 2L19 2L19 1ZM54 1L54 2L56 2L56 1ZM10 2L10 3L11 3L11 4L12 4L12 3L11 3L11 2ZM33 2L33 3L32 3L32 4L31 4L31 10L32 10L32 4L33 4L33 3L34 3L34 2ZM39 2L39 3L40 3L40 2ZM60 3L60 5L61 5L61 3ZM18 4L18 5L19 5L19 4ZM33 5L33 8L36 8L36 5ZM55 5L55 6L56 6L56 5ZM18 6L18 7L19 7L19 8L18 8L18 9L19 9L19 10L20 10L20 11L22 11L22 13L23 13L23 14L24 14L24 13L25 13L25 14L26 14L26 15L25 15L25 18L24 18L24 17L23 17L23 16L24 16L24 15L21 15L21 14L20 14L20 13L21 13L21 12L19 12L19 11L18 11L18 10L17 10L17 12L18 12L18 13L19 13L19 14L20 14L20 15L18 15L18 16L19 16L19 18L17 18L17 17L16 17L16 16L15 16L15 17L14 17L14 15L13 15L13 17L11 17L11 16L10 16L10 17L9 17L9 18L6 18L6 19L7 19L7 20L6 20L6 21L7 21L7 20L8 20L8 21L9 21L9 22L10 22L10 23L8 23L8 24L6 24L6 25L7 25L7 26L6 26L6 27L5 27L5 28L6 28L6 27L9 27L9 26L10 26L10 25L9 25L9 26L8 26L8 24L11 24L11 25L12 25L12 26L13 26L13 25L12 25L12 24L13 24L13 23L14 23L14 22L16 22L16 20L15 20L15 19L18 19L18 25L19 25L19 24L20 24L20 23L21 23L21 22L22 22L22 21L23 21L23 23L22 23L22 24L24 24L24 25L25 25L25 26L24 26L24 27L25 27L25 26L26 26L26 29L27 29L27 28L28 28L28 25L29 25L29 24L30 24L30 25L31 25L31 24L32 24L32 25L33 25L33 28L34 28L34 30L32 30L32 31L31 31L31 28L32 28L32 26L30 26L30 31L29 31L29 32L30 32L30 34L28 34L28 35L29 35L29 36L28 36L28 37L29 37L29 36L30 36L30 37L31 37L31 33L32 33L32 38L31 38L31 40L30 40L30 43L32 43L32 44L30 44L30 45L31 45L31 47L30 47L30 50L28 50L28 51L29 51L29 52L30 52L30 50L31 50L31 51L32 51L32 48L33 48L33 47L34 47L34 49L33 49L33 51L35 51L35 52L34 52L34 53L35 53L35 55L33 55L33 56L34 56L34 57L35 57L35 56L36 56L36 55L40 55L40 58L39 58L39 59L40 59L40 58L41 58L41 57L42 57L42 56L41 56L41 54L42 54L42 52L43 52L43 50L42 50L42 49L43 49L43 48L44 48L44 50L45 50L45 49L46 49L46 48L47 48L47 49L49 49L49 50L50 50L50 49L49 49L49 48L50 48L50 44L49 44L49 42L50 42L50 43L52 43L52 47L53 47L53 44L54 44L54 45L55 45L55 44L54 44L54 43L55 43L55 42L54 42L54 41L53 41L53 40L52 40L52 42L50 42L50 41L49 41L49 40L50 40L50 39L51 39L51 38L52 38L52 39L55 39L55 38L54 38L54 36L55 36L55 35L56 35L56 37L57 37L57 38L58 38L58 37L57 37L57 35L56 35L56 34L55 34L55 35L54 35L54 33L55 33L55 32L56 32L56 31L55 31L55 30L54 30L54 29L55 29L55 28L56 28L56 26L57 26L57 27L58 27L58 28L59 28L59 30L60 30L60 29L61 29L61 30L62 30L62 28L61 28L61 27L60 27L60 28L59 28L59 27L58 27L58 25L57 25L57 24L58 24L58 23L57 23L57 24L56 24L56 26L55 26L55 28L54 28L54 27L53 27L53 28L52 28L52 26L53 26L53 24L52 24L52 26L50 26L50 25L51 25L51 24L50 24L50 21L49 21L49 18L48 18L48 21L47 21L47 20L46 20L46 19L47 19L47 18L46 18L46 16L45 16L45 15L44 15L44 17L45 17L45 18L46 18L46 19L45 19L45 20L44 20L44 21L43 21L43 22L42 22L42 21L41 21L41 22L39 22L39 23L41 23L41 22L42 22L42 23L43 23L43 24L44 24L44 25L45 25L45 26L44 26L44 27L43 27L43 26L42 26L42 25L41 25L41 24L40 24L40 25L39 25L39 27L38 27L38 28L37 28L37 29L36 29L36 27L37 27L37 26L38 26L38 20L37 20L37 21L36 21L36 20L34 20L34 19L35 19L35 18L36 18L36 19L37 19L37 18L38 18L38 15L39 15L39 14L38 14L38 13L36 13L36 15L37 15L37 16L34 16L34 15L33 15L33 16L32 16L32 15L31 15L31 14L30 14L30 13L31 13L31 12L30 12L30 11L29 11L29 12L30 12L30 13L29 13L29 14L28 14L28 12L26 12L26 10L25 10L25 8L22 8L22 7L23 7L23 6L22 6L22 7L21 7L21 8L20 8L20 7L19 7L19 6ZM34 6L34 7L35 7L35 6ZM46 6L46 7L47 7L47 8L48 8L48 9L47 9L47 10L46 10L46 11L47 11L47 12L48 12L48 9L49 9L49 10L50 10L50 9L49 9L49 8L48 8L48 7L47 7L47 6ZM51 7L51 8L52 8L52 7ZM19 8L19 9L20 9L20 10L21 10L21 9L20 9L20 8ZM26 8L26 9L27 9L27 11L28 11L28 9L27 9L27 8ZM22 9L22 11L23 11L23 9ZM39 9L39 10L38 10L38 11L39 11L39 10L40 10L40 9ZM55 9L55 10L56 10L56 9ZM62 9L62 10L64 10L64 9ZM9 10L9 12L10 12L10 10ZM24 10L24 11L25 11L25 10ZM36 10L36 11L37 11L37 10ZM42 11L42 12L43 12L43 11ZM57 11L57 12L58 12L58 11ZM16 13L16 14L15 14L15 15L16 15L16 14L17 14L17 13ZM42 13L42 14L43 14L43 13ZM65 13L65 15L63 15L63 17L62 17L62 19L63 19L63 21L62 21L62 22L64 22L64 20L65 20L65 19L66 19L66 20L67 20L67 21L66 21L66 24L65 24L65 26L66 26L66 24L68 24L68 22L67 22L67 21L68 21L68 20L67 20L67 19L68 19L68 18L67 18L67 17L65 17L65 19L64 19L64 16L65 16L65 15L66 15L66 16L67 16L67 15L68 15L68 13L67 13L67 15L66 15L66 13ZM37 14L37 15L38 15L38 14ZM52 14L52 15L50 15L50 16L51 16L51 17L53 17L53 19L52 19L52 18L50 18L50 19L52 19L52 23L54 23L54 20L56 20L56 19L54 19L54 15L55 15L55 16L56 16L56 15L57 15L57 14L56 14L56 15L55 15L55 14L54 14L54 15L53 15L53 14ZM58 14L58 15L59 15L59 14ZM1 15L1 16L2 16L2 18L3 18L3 16L2 16L2 15ZM20 15L20 16L21 16L21 18L20 18L20 19L21 19L21 21L20 21L20 20L19 20L19 21L20 21L20 22L21 22L21 21L22 21L22 19L21 19L21 18L23 18L23 17L22 17L22 16L21 16L21 15ZM26 15L26 16L27 16L27 15ZM28 15L28 16L29 16L29 17L28 17L28 18L27 18L27 21L26 21L26 19L24 19L24 20L23 20L23 21L24 21L24 24L28 24L28 22L29 22L29 21L30 21L30 20L31 20L31 18L35 18L35 17L30 17L30 16L31 16L31 15L30 15L30 16L29 16L29 15ZM10 17L10 18L9 18L9 19L11 19L11 17ZM13 17L13 18L12 18L12 21L10 21L10 22L11 22L11 23L12 23L12 21L13 21L13 18L14 18L14 17ZM15 17L15 18L16 18L16 17ZM29 17L29 20L30 20L30 17ZM66 18L66 19L67 19L67 18ZM32 19L32 22L30 22L30 24L31 24L31 23L32 23L32 24L33 24L33 25L34 25L34 24L35 24L35 23L36 23L36 21L34 21L34 22L33 22L33 19ZM53 19L53 20L54 20L54 19ZM14 20L14 21L15 21L15 20ZM24 20L24 21L25 21L25 22L26 22L26 21L25 21L25 20ZM27 21L27 22L28 22L28 21ZM44 21L44 23L45 23L45 25L46 25L46 26L47 26L47 27L48 27L48 26L49 26L49 28L50 28L50 30L49 30L49 31L48 31L48 30L47 30L47 28L46 28L46 31L45 31L45 30L44 30L44 28L45 28L45 27L44 27L44 28L43 28L43 27L42 27L42 26L41 26L41 25L40 25L40 27L39 27L39 29L38 29L38 30L37 30L37 31L36 31L36 32L37 32L37 33L38 33L38 34L37 34L37 36L38 36L38 38L39 38L39 39L38 39L38 40L37 40L37 37L35 37L35 38L34 38L34 39L32 39L32 41L31 41L31 42L32 42L32 41L33 41L33 43L34 43L34 44L33 44L33 46L32 46L32 47L33 47L33 46L34 46L34 47L35 47L35 46L36 46L36 48L35 48L35 49L34 49L34 50L35 50L35 49L36 49L36 52L35 52L35 53L36 53L36 54L37 54L37 53L38 53L38 54L39 54L39 53L40 53L40 54L41 54L41 53L40 53L40 52L42 52L42 51L40 51L40 52L37 52L37 51L38 51L38 50L40 50L40 48L41 48L41 47L40 47L40 46L41 46L41 45L42 45L42 46L43 46L43 45L44 45L44 46L45 46L45 47L44 47L44 48L45 48L45 47L47 47L47 46L48 46L48 47L49 47L49 46L48 46L48 42L49 42L49 41L48 41L48 40L49 40L49 39L50 39L50 38L51 38L51 37L52 37L52 36L54 36L54 35L52 35L52 34L53 34L53 33L52 33L52 32L51 32L51 31L50 31L50 30L52 30L52 28L50 28L50 26L49 26L49 25L48 25L48 26L47 26L47 23L48 23L48 22L47 22L47 21L46 21L46 22L45 22L45 21ZM34 22L34 23L33 23L33 24L34 24L34 23L35 23L35 22ZM46 22L46 23L47 23L47 22ZM35 25L35 26L34 26L34 28L35 28L35 27L36 27L36 26L37 26L37 25ZM61 25L61 26L62 26L62 25ZM20 26L20 27L22 27L22 29L21 29L21 30L22 30L22 33L23 33L23 34L24 34L24 33L23 33L23 30L24 30L24 32L26 32L26 33L27 33L27 32L28 32L28 31L27 31L27 30L24 30L24 29L25 29L25 28L24 28L24 29L23 29L23 27L22 27L22 26ZM11 27L11 28L12 28L12 27ZM1 28L1 29L2 29L2 28ZM17 28L17 29L16 29L16 30L19 30L19 29L18 29L18 28ZM40 28L40 30L38 30L38 31L39 31L39 32L40 32L40 33L41 33L41 34L40 34L40 35L38 35L38 36L39 36L39 38L40 38L40 41L39 41L39 42L38 42L38 41L37 41L37 40L36 40L36 38L35 38L35 39L34 39L34 41L36 41L36 42L38 42L38 43L39 43L39 44L40 44L40 45L39 45L39 46L38 46L38 44L37 44L37 45L36 45L36 44L34 44L34 45L36 45L36 46L37 46L37 47L38 47L38 48L36 48L36 49L37 49L37 50L38 50L38 48L40 48L40 47L39 47L39 46L40 46L40 45L41 45L41 43L39 43L39 42L41 42L41 41L42 41L42 40L41 40L41 38L42 38L42 39L44 39L44 41L45 41L45 42L44 42L44 43L42 43L42 45L43 45L43 44L44 44L44 45L45 45L45 44L46 44L46 45L47 45L47 43L45 43L45 42L46 42L46 41L47 41L47 42L48 42L48 41L47 41L47 39L46 39L46 41L45 41L45 38L46 38L46 37L47 37L47 35L49 35L49 36L48 36L48 37L49 37L49 38L48 38L48 39L49 39L49 38L50 38L50 37L51 37L51 36L50 36L50 33L51 33L51 34L52 34L52 33L51 33L51 32L50 32L50 31L49 31L49 32L48 32L48 31L47 31L47 32L45 32L45 31L44 31L44 30L43 30L43 31L44 31L44 34L43 34L43 35L42 35L42 28ZM53 28L53 29L54 29L54 28ZM22 29L22 30L23 30L23 29ZM34 30L34 31L32 31L32 32L35 32L35 30ZM40 30L40 32L41 32L41 30ZM53 30L53 31L54 31L54 30ZM20 31L20 33L21 33L21 31ZM12 32L12 33L13 33L13 34L15 34L15 33L14 33L14 32ZM47 32L47 33L46 33L46 34L47 34L47 33L48 33L48 32ZM49 32L49 33L50 33L50 32ZM67 32L67 33L68 33L68 35L69 35L69 33L68 33L68 32ZM5 33L5 36L8 36L8 33ZM33 33L33 36L36 36L36 33ZM61 33L61 36L64 36L64 33ZM6 34L6 35L7 35L7 34ZM20 34L20 35L22 35L22 34ZM34 34L34 35L35 35L35 34ZM44 34L44 35L45 35L45 37L46 37L46 35L45 35L45 34ZM58 34L58 35L59 35L59 34ZM62 34L62 35L63 35L63 34ZM65 34L65 35L66 35L66 34ZM0 35L0 39L1 39L1 35ZM11 35L11 36L12 36L12 35ZM41 35L41 36L42 36L42 35ZM43 36L43 37L42 37L42 38L43 38L43 37L44 37L44 36ZM49 36L49 37L50 37L50 36ZM11 37L11 39L12 39L12 40L11 40L11 41L10 41L10 40L9 40L9 39L10 39L10 38L9 38L9 39L8 39L8 41L7 41L7 40L6 40L6 39L7 39L7 38L6 38L6 39L5 39L5 40L4 40L4 41L3 41L3 42L4 42L4 43L3 43L3 44L4 44L4 43L5 43L5 45L4 45L4 46L2 46L2 47L4 47L4 46L5 46L5 45L7 45L7 46L6 46L6 47L7 47L7 46L8 46L8 45L9 45L9 44L10 44L10 46L9 46L9 47L8 47L8 49L9 49L9 47L10 47L10 50L11 50L11 51L12 51L12 52L13 52L13 51L12 51L12 49L15 49L15 51L14 51L14 52L16 52L16 49L17 49L17 46L16 46L16 45L17 45L17 44L16 44L16 45L15 45L15 44L14 44L14 43L13 43L13 42L15 42L15 41L14 41L14 40L15 40L15 39L16 39L16 37ZM40 37L40 38L41 38L41 37ZM13 38L13 39L14 39L14 38ZM64 38L64 40L65 40L65 41L66 41L66 39L67 39L67 38L66 38L66 39L65 39L65 38ZM22 39L22 40L23 40L23 39ZM59 39L59 40L60 40L60 39ZM5 40L5 41L6 41L6 42L5 42L5 43L6 43L6 44L7 44L7 43L8 43L8 42L9 42L9 43L10 43L10 44L11 44L11 43L12 43L12 42L9 42L9 41L8 41L8 42L7 42L7 41L6 41L6 40ZM16 40L16 41L17 41L17 42L16 42L16 43L17 43L17 42L18 42L18 41L17 41L17 40ZM22 41L22 42L23 42L23 41ZM58 41L58 42L59 42L59 41ZM62 41L62 44L63 44L63 41ZM6 42L6 43L7 43L7 42ZM24 42L24 43L25 43L25 42ZM34 42L34 43L35 43L35 42ZM27 43L27 44L26 44L26 47L28 47L28 45L27 45L27 44L28 44L28 43ZM12 44L12 45L11 45L11 46L10 46L10 47L11 47L11 48L12 48L12 47L13 47L13 46L12 46L12 45L13 45L13 44ZM21 45L21 46L22 46L22 45ZM23 45L23 46L24 46L24 47L25 47L25 46L24 46L24 45ZM11 46L11 47L12 47L12 46ZM15 46L15 48L16 48L16 46ZM62 46L62 47L63 47L63 46ZM58 47L58 48L59 48L59 47ZM25 48L25 49L28 49L28 48ZM62 48L62 49L61 49L61 50L62 50L62 51L59 51L59 54L58 54L58 55L57 55L57 56L56 56L56 57L55 57L55 59L57 59L57 58L58 58L58 59L60 59L60 58L61 58L61 57L62 57L62 56L61 56L61 54L62 54L62 55L63 55L63 54L62 54L62 52L63 52L63 50L64 50L64 48ZM51 49L51 50L52 50L52 49ZM62 49L62 50L63 50L63 49ZM20 50L20 51L22 51L22 50ZM17 51L17 52L18 52L18 51ZM44 51L44 53L45 53L45 54L44 54L44 55L47 55L47 56L48 56L48 54L46 54L46 53L47 53L47 52L48 52L48 53L49 53L49 55L51 55L51 56L52 56L52 57L53 57L53 58L54 58L54 55L53 55L53 56L52 56L52 54L53 54L53 52L52 52L52 51L51 51L51 52L52 52L52 54L50 54L50 51L49 51L49 52L48 52L48 51L46 51L46 53L45 53L45 51ZM9 52L9 53L10 53L10 54L12 54L12 53L11 53L11 52ZM21 52L21 53L20 53L20 54L21 54L21 53L22 53L22 52ZM36 52L36 53L37 53L37 52ZM60 52L60 54L61 54L61 52ZM17 53L17 54L16 54L16 55L18 55L18 53ZM28 54L28 55L29 55L29 56L28 56L28 57L29 57L29 56L30 56L30 54ZM22 55L22 56L23 56L23 55ZM58 55L58 56L57 56L57 57L58 57L58 58L59 58L59 57L58 57L58 56L60 56L60 55ZM13 56L13 57L14 57L14 58L15 58L15 57L14 57L14 56ZM24 56L24 57L25 57L25 56ZM44 56L44 57L45 57L45 56ZM12 58L12 61L9 61L9 62L10 62L10 63L11 63L11 62L12 62L12 61L13 61L13 58ZM16 58L16 59L17 59L17 58ZM22 58L22 59L23 59L23 58ZM43 58L43 59L41 59L41 60L40 60L40 62L42 62L42 61L43 61L43 60L44 60L44 58ZM51 58L51 59L50 59L50 60L51 60L51 59L52 59L52 58ZM3 60L3 61L5 61L5 60ZM41 60L41 61L42 61L42 60ZM52 60L52 61L53 61L53 62L52 62L52 63L53 63L53 64L52 64L52 65L53 65L53 66L54 66L54 67L55 67L55 66L54 66L54 65L53 65L53 64L55 64L55 63L53 63L53 62L54 62L54 61L55 61L55 60ZM20 61L20 62L19 62L19 63L18 63L18 64L19 64L19 63L20 63L20 64L21 64L21 65L22 65L22 66L23 66L23 65L22 65L22 62L21 62L21 61ZM30 61L30 62L31 62L31 61ZM33 61L33 64L36 64L36 61ZM61 61L61 64L64 64L64 61ZM34 62L34 63L35 63L35 62ZM62 62L62 63L63 63L63 62ZM10 64L10 65L11 65L11 66L12 66L12 67L13 67L13 66L12 66L12 65L11 65L11 64ZM16 65L16 66L17 66L17 67L18 67L18 66L17 66L17 65ZM65 65L65 66L66 66L66 65ZM8 66L8 69L9 69L9 66ZM35 67L35 68L36 68L36 69L39 69L39 68L38 68L38 67L37 67L37 68L36 68L36 67ZM64 67L64 68L65 68L65 67ZM14 68L14 69L15 69L15 68ZM68 68L68 69L69 69L69 68ZM0 0L0 7L7 7L7 0ZM1 1L1 6L6 6L6 1ZM2 2L2 5L5 5L5 2ZM62 0L62 7L69 7L69 0ZM63 1L63 6L68 6L68 1ZM64 2L64 5L67 5L67 2ZM0 62L0 69L7 69L7 62ZM1 63L1 68L6 68L6 63ZM2 64L2 67L5 67L5 64Z" fill="#000000"/></g></g></svg>
