<?xml version="1.0" encoding="UTF-8"?>
<svg xmlns="http://www.w3.org/2000/svg" version="1.1" width="300" height="300" viewBox="0 0 300 300"><rect x="0" y="0" width="300" height="300" fill="#ffffff"/><g transform="scale(4.348)"><g transform="translate(0,0)"><path fill-rule="evenodd" d="M8 0L8 1L12 1L12 0ZM14 0L14 1L13 1L13 4L12 4L12 2L8 2L8 5L9 5L9 6L8 6L8 7L9 7L9 8L8 8L8 9L7 9L7 8L6 8L6 9L7 9L7 10L6 10L6 11L5 11L5 10L4 10L4 8L0 8L0 9L3 9L3 10L2 10L2 11L1 11L1 13L2 13L2 15L1 15L1 16L0 16L0 25L2 25L2 26L1 26L1 27L0 27L0 28L1 28L1 27L4 27L4 29L5 29L5 30L4 30L4 37L3 37L3 28L2 28L2 30L1 30L1 31L2 31L2 32L1 32L1 33L2 33L2 35L1 35L1 34L0 34L0 35L1 35L1 37L0 37L0 41L2 41L2 39L3 39L3 41L4 41L4 42L5 42L5 41L4 41L4 40L6 40L6 41L7 41L7 42L6 42L6 43L7 43L7 44L6 44L6 45L7 45L7 46L6 46L6 47L5 47L5 48L4 48L4 49L2 49L2 51L1 51L1 52L0 52L0 53L1 53L1 54L0 54L0 55L1 55L1 56L0 56L0 61L1 61L1 57L3 57L3 56L4 56L4 59L7 59L7 58L6 58L6 57L7 57L7 56L8 56L8 60L6 60L6 61L8 61L8 62L9 62L9 64L11 64L11 63L12 63L12 65L13 65L13 63L14 63L14 64L15 64L15 66L14 66L14 67L13 67L13 68L12 68L12 67L11 67L11 65L10 65L10 66L9 66L9 65L8 65L8 69L9 69L9 67L11 67L11 69L13 69L13 68L14 68L14 69L18 69L18 68L19 68L19 67L20 67L20 69L23 69L23 68L24 68L24 69L25 69L25 68L27 68L27 69L30 69L30 68L31 68L31 67L32 67L32 68L33 68L33 69L34 69L34 67L35 67L35 65L36 65L36 67L38 67L38 68L39 68L39 69L41 69L41 68L43 68L43 67L41 67L41 66L42 66L42 65L40 65L40 64L41 64L41 62L39 62L39 61L40 61L40 60L41 60L41 61L42 61L42 60L41 60L41 59L42 59L42 58L43 58L43 56L41 56L41 55L40 55L40 54L39 54L39 53L40 53L40 51L39 51L39 50L40 50L40 49L36 49L36 50L37 50L37 51L35 51L35 50L34 50L34 51L35 51L35 53L33 53L33 52L31 52L31 51L33 51L33 50L32 50L32 49L33 49L33 48L37 48L37 47L38 47L38 46L37 46L37 45L36 45L36 44L35 44L35 43L36 43L36 42L34 42L34 41L33 41L33 40L32 40L32 39L34 39L34 38L32 38L32 37L36 37L36 38L35 38L35 39L36 39L36 40L35 40L35 41L37 41L37 37L38 37L38 38L39 38L39 39L38 39L38 40L39 40L39 42L40 42L40 43L43 43L43 44L45 44L45 45L46 45L46 43L48 43L48 44L47 44L47 47L46 47L46 46L44 46L44 45L42 45L42 44L41 44L41 45L40 45L40 44L39 44L39 43L38 43L38 42L37 42L37 44L39 44L39 47L40 47L40 48L42 48L42 49L44 49L44 48L43 48L43 47L46 47L46 48L45 48L45 50L44 50L44 52L43 52L43 51L42 51L42 52L41 52L41 54L42 54L42 52L43 52L43 54L44 54L44 55L46 55L46 54L47 54L47 57L48 57L48 55L49 55L49 58L50 58L50 59L51 59L51 60L52 60L52 58L53 58L53 54L54 54L54 51L55 51L55 50L56 50L56 52L55 52L55 56L54 56L54 60L53 60L53 61L54 61L54 60L55 60L55 61L56 61L56 59L58 59L58 58L56 58L56 59L55 59L55 56L57 56L57 55L58 55L58 54L59 54L59 55L60 55L60 57L59 57L59 60L60 60L60 61L59 61L59 64L58 64L58 65L57 65L57 63L58 63L58 61L57 61L57 62L55 62L55 63L54 63L54 64L53 64L53 68L51 68L51 67L50 67L50 66L49 66L49 65L48 65L48 66L47 66L47 65L46 65L46 68L45 68L45 69L48 69L48 68L49 68L49 69L50 69L50 68L51 68L51 69L55 69L55 66L54 66L54 65L57 65L57 66L56 66L56 68L57 68L57 69L58 69L58 67L61 67L61 68L63 68L63 69L65 69L65 67L64 67L64 68L63 68L63 65L64 65L64 66L66 66L66 67L67 67L67 66L68 66L68 65L69 65L69 63L65 63L65 60L66 60L66 59L65 59L65 58L66 58L66 56L65 56L65 55L64 55L64 56L65 56L65 58L64 58L64 59L65 59L65 60L63 60L63 56L62 56L62 54L61 54L61 55L60 55L60 54L59 54L59 53L60 53L60 50L61 50L61 52L62 52L62 53L63 53L63 54L66 54L66 55L67 55L67 56L68 56L68 54L69 54L69 52L68 52L68 51L65 51L65 50L66 50L66 49L65 49L65 50L64 50L64 49L63 49L63 48L62 48L62 47L63 47L63 45L65 45L65 44L64 44L64 43L67 43L67 45L66 45L66 46L64 46L64 48L66 48L66 46L67 46L67 50L68 50L68 49L69 49L69 48L68 48L68 47L69 47L69 45L68 45L68 44L69 44L69 43L68 43L68 42L69 42L69 39L67 39L67 38L69 38L69 37L68 37L68 36L69 36L69 31L68 31L68 30L67 30L67 26L69 26L69 24L68 24L68 25L67 25L67 24L66 24L66 22L67 22L67 23L69 23L69 21L68 21L68 22L67 22L67 21L66 21L66 20L63 20L63 18L62 18L62 20L63 20L63 22L62 22L62 21L60 21L60 20L61 20L61 19L60 19L60 16L59 16L59 15L62 15L62 16L61 16L61 17L64 17L64 15L62 15L62 14L63 14L63 10L64 10L64 11L65 11L65 13L64 13L64 14L65 14L65 17L66 17L66 16L67 16L67 17L68 17L68 18L67 18L67 20L69 20L69 19L68 19L68 18L69 18L69 15L66 15L66 14L69 14L69 13L68 13L68 12L66 12L66 11L67 11L67 10L68 10L68 11L69 11L69 8L68 8L68 9L67 9L67 8L64 8L64 9L63 9L63 10L62 10L62 8L61 8L61 9L59 9L59 11L58 11L58 10L57 10L57 9L56 9L56 7L57 7L57 8L59 8L59 4L58 4L58 3L59 3L59 2L58 2L58 1L61 1L61 0L58 0L58 1L57 1L57 0L54 0L54 2L55 2L55 3L54 3L54 4L56 4L56 2L58 2L58 3L57 3L57 6L56 6L56 7L55 7L55 6L54 6L54 7L55 7L55 9L54 9L54 8L52 8L52 7L53 7L53 4L51 4L51 3L50 3L50 2L51 2L51 1L50 1L50 0L49 0L49 3L47 3L47 2L48 2L48 1L47 1L47 2L46 2L46 1L45 1L45 0L44 0L44 2L43 2L43 3L42 3L42 1L43 1L43 0L41 0L41 1L40 1L40 3L42 3L42 4L43 4L43 6L42 6L42 5L41 5L41 4L40 4L40 5L41 5L41 6L40 6L40 7L41 7L41 8L39 8L39 6L38 6L38 7L37 7L37 4L38 4L38 5L39 5L39 4L38 4L38 1L37 1L37 2L36 2L36 0L33 0L33 1L35 1L35 2L29 2L29 0L28 0L28 2L27 2L27 1L26 1L26 3L23 3L23 1L24 1L24 2L25 2L25 0L21 0L21 1L19 1L19 0L16 0L16 1L15 1L15 0ZM30 0L30 1L32 1L32 0ZM14 1L14 3L15 3L15 4L16 4L16 5L11 5L11 7L10 7L10 6L9 6L9 7L10 7L10 8L9 8L9 9L8 9L8 10L10 10L10 8L11 8L11 9L12 9L12 10L11 10L11 12L10 12L10 14L7 14L7 13L8 13L8 11L6 11L6 12L7 12L7 13L6 13L6 14L5 14L5 13L4 13L4 15L3 15L3 18L4 18L4 19L2 19L2 18L1 18L1 20L2 20L2 21L1 21L1 22L3 22L3 23L1 23L1 24L2 24L2 25L3 25L3 24L4 24L4 25L5 25L5 24L4 24L4 23L5 23L5 22L3 22L3 21L5 21L5 20L4 20L4 19L5 19L5 18L4 18L4 15L6 15L6 16L5 16L5 17L6 17L6 18L8 18L8 19L6 19L6 20L7 20L7 21L6 21L6 22L7 22L7 23L6 23L6 24L8 24L8 26L7 26L7 25L6 25L6 26L7 26L7 27L6 27L6 28L8 28L8 29L6 29L6 30L5 30L5 32L9 32L9 33L10 33L10 34L9 34L9 36L10 36L10 34L12 34L12 33L10 33L10 32L15 32L15 33L14 33L14 34L13 34L13 37L14 37L14 39L12 39L12 38L10 38L10 37L6 37L6 38L7 38L7 39L6 39L6 40L9 40L9 39L11 39L11 40L10 40L10 41L8 41L8 44L7 44L7 45L11 45L11 46L7 46L7 47L6 47L6 48L5 48L5 49L4 49L4 50L8 50L8 49L6 49L6 48L7 48L7 47L8 47L8 48L9 48L9 47L10 47L10 48L11 48L11 46L12 46L12 45L13 45L13 44L14 44L14 45L15 45L15 46L14 46L14 47L13 47L13 48L12 48L12 49L9 49L9 51L10 51L10 50L12 50L12 51L13 51L13 52L10 52L10 53L8 53L8 54L7 54L7 53L6 53L6 52L8 52L8 51L6 51L6 52L5 52L5 51L3 51L3 53L4 53L4 54L1 54L1 55L4 55L4 56L5 56L5 57L6 57L6 56L7 56L7 55L9 55L9 58L10 58L10 59L9 59L9 60L8 60L8 61L9 61L9 62L10 62L10 61L9 61L9 60L10 60L10 59L11 59L11 58L12 58L12 57L13 57L13 55L14 55L14 54L13 54L13 55L12 55L12 56L11 56L11 54L12 54L12 53L14 53L14 51L13 51L13 50L12 50L12 49L13 49L13 48L14 48L14 47L16 47L16 50L15 50L15 52L16 52L16 53L18 53L18 54L17 54L17 55L15 55L15 58L13 58L13 59L12 59L12 60L11 60L11 62L12 62L12 60L13 60L13 62L15 62L15 64L16 64L16 65L17 65L17 64L16 64L16 62L17 62L17 63L19 63L19 62L17 62L17 60L18 60L18 59L19 59L19 61L20 61L20 60L21 60L21 61L22 61L22 65L20 65L20 67L21 67L21 66L23 66L23 67L22 67L22 68L23 68L23 67L25 67L25 64L26 64L26 67L27 67L27 65L28 65L28 66L29 66L29 67L30 67L30 66L29 66L29 63L31 63L31 62L32 62L32 60L35 60L35 59L34 59L34 58L33 58L33 57L32 57L32 53L31 53L31 52L30 52L30 53L31 53L31 55L30 55L30 54L27 54L27 53L25 53L25 52L24 52L24 55L25 55L25 54L26 54L26 55L27 55L27 56L24 56L24 57L23 57L23 56L22 56L22 54L21 54L21 53L19 53L19 49L20 49L20 50L21 50L21 51L23 51L23 50L24 50L24 51L26 51L26 52L27 52L27 50L29 50L29 45L28 45L28 44L27 44L27 43L29 43L29 44L30 44L30 47L32 47L32 48L31 48L31 49L30 49L30 50L31 50L31 49L32 49L32 48L33 48L33 45L31 45L31 43L32 43L32 42L31 42L31 41L32 41L32 40L31 40L31 39L29 39L29 40L27 40L27 38L26 38L26 39L24 39L24 38L25 38L25 36L24 36L24 35L25 35L25 34L27 34L27 35L26 35L26 37L27 37L27 35L28 35L28 38L29 38L29 36L30 36L30 35L28 35L28 32L29 32L29 33L30 33L30 34L31 34L31 37L30 37L30 38L31 38L31 37L32 37L32 32L30 32L30 30L29 30L29 31L28 31L28 32L27 32L27 31L25 31L25 32L24 32L24 31L21 31L21 29L19 29L19 27L18 27L18 26L14 26L14 25L15 25L15 24L13 24L13 26L12 26L12 25L10 25L10 23L9 23L9 22L10 22L10 21L11 21L11 24L12 24L12 22L13 22L13 23L15 23L15 22L14 22L14 21L16 21L16 23L18 23L18 24L19 24L19 25L21 25L21 27L20 27L20 28L22 28L22 30L23 30L23 28L24 28L24 30L27 30L27 29L29 29L29 28L27 28L27 27L28 27L28 26L30 26L30 27L31 27L31 26L32 26L32 27L33 27L33 28L30 28L30 29L31 29L31 30L32 30L32 31L33 31L33 30L32 30L32 29L34 29L34 30L35 30L35 27L38 27L38 28L36 28L36 30L38 30L38 32L37 32L37 33L38 33L38 34L40 34L40 33L38 33L38 32L40 32L40 31L41 31L41 33L42 33L42 32L43 32L43 35L40 35L40 38L43 38L43 39L41 39L41 40L40 40L40 42L41 42L41 41L42 41L42 42L43 42L43 43L44 43L44 42L45 42L45 43L46 43L46 42L45 42L45 41L43 41L43 40L45 40L45 39L47 39L47 40L46 40L46 41L48 41L48 42L50 42L50 43L51 43L51 44L48 44L48 45L49 45L49 46L50 46L50 47L47 47L47 48L46 48L46 50L47 50L47 54L48 54L48 53L49 53L49 51L50 51L50 54L51 54L51 55L52 55L52 54L53 54L53 52L52 52L52 53L51 53L51 51L50 51L50 48L51 48L51 49L53 49L53 50L52 50L52 51L54 51L54 50L55 50L55 48L54 48L54 47L53 47L53 46L51 46L51 44L52 44L52 43L53 43L53 42L52 42L52 41L53 41L53 39L54 39L54 40L55 40L55 41L54 41L54 42L55 42L55 43L58 43L58 45L57 45L57 44L55 44L55 45L57 45L57 46L56 46L56 47L57 47L57 46L58 46L58 47L59 47L59 45L60 45L60 44L59 44L59 43L58 43L58 42L57 42L57 41L58 41L58 40L57 40L57 41L56 41L56 40L55 40L55 39L56 39L56 38L55 38L55 37L54 37L54 36L56 36L56 37L58 37L58 38L57 38L57 39L60 39L60 41L59 41L59 42L60 42L60 43L61 43L61 42L62 42L62 44L61 44L61 46L62 46L62 45L63 45L63 43L64 43L64 41L63 41L63 42L62 42L62 40L63 40L63 38L67 38L67 34L68 34L68 33L65 33L65 34L66 34L66 37L63 37L63 38L59 38L59 37L60 37L60 32L59 32L59 31L62 31L62 32L63 32L63 31L65 31L65 32L68 32L68 31L67 31L67 30L66 30L66 29L65 29L65 27L66 27L66 26L65 26L65 24L63 24L63 23L65 23L65 22L66 22L66 21L65 21L65 22L63 22L63 23L61 23L61 22L59 22L59 21L58 21L58 19L57 19L57 17L56 17L56 19L57 19L57 20L55 20L55 21L58 21L58 22L59 22L59 23L57 23L57 24L56 24L56 25L57 25L57 24L58 24L58 26L59 26L59 27L62 27L62 28L61 28L61 29L60 29L60 30L58 30L58 32L59 32L59 33L57 33L57 29L58 29L58 27L57 27L57 26L56 26L56 27L54 27L54 26L55 26L55 25L53 25L53 23L54 23L54 24L55 24L55 22L53 22L53 21L52 21L52 20L51 20L51 18L52 18L52 19L53 19L53 20L54 20L54 19L55 19L55 16L56 16L56 15L58 15L58 14L61 14L61 13L62 13L62 11L61 11L61 10L60 10L60 11L59 11L59 12L60 12L60 13L58 13L58 12L56 12L56 11L57 11L57 10L56 10L56 11L55 11L55 13L53 13L53 12L50 12L50 11L53 11L53 9L51 9L51 8L49 8L49 7L50 7L50 6L49 6L49 5L48 5L48 6L47 6L47 7L46 7L46 5L47 5L47 3L46 3L46 5L45 5L45 8L44 8L44 6L43 6L43 9L45 9L45 10L46 10L46 11L44 11L44 10L43 10L43 11L44 11L44 13L43 13L43 12L41 12L41 13L42 13L42 14L43 14L43 15L41 15L41 14L40 14L40 11L42 11L42 10L40 10L40 9L38 9L38 10L39 10L39 14L36 14L36 15L34 15L34 17L33 17L33 14L35 14L35 13L33 13L33 11L35 11L35 12L36 12L36 13L38 13L38 11L37 11L37 12L36 12L36 9L33 9L33 11L32 11L32 13L30 13L30 15L29 15L29 13L28 13L28 17L26 17L26 16L27 16L27 12L26 12L26 13L24 13L24 12L22 12L22 10L23 10L23 9L24 9L24 10L25 10L25 11L26 11L26 10L27 10L27 11L28 11L28 10L30 10L30 12L31 12L31 10L30 10L30 9L28 9L28 8L29 8L29 7L30 7L30 6L29 6L29 7L28 7L28 5L29 5L29 2L28 2L28 3L26 3L26 4L23 4L23 3L22 3L22 4L23 4L23 5L24 5L24 6L23 6L23 7L22 7L22 5L20 5L20 4L19 4L19 7L20 7L20 6L21 6L21 7L22 7L22 8L18 8L18 9L20 9L20 10L18 10L18 11L19 11L19 13L16 13L16 12L13 12L13 11L15 11L15 10L17 10L17 9L15 9L15 8L14 8L14 9L13 9L13 7L14 7L14 6L15 6L15 7L16 7L16 8L17 8L17 7L18 7L18 3L15 3L15 1ZM21 1L21 2L20 2L20 3L21 3L21 2L22 2L22 1ZM52 1L52 3L53 3L53 1ZM55 1L55 2L56 2L56 1ZM9 3L9 5L10 5L10 4L11 4L11 3ZM31 3L31 4L30 4L30 5L31 5L31 4L32 4L32 3ZM33 3L33 4L36 4L36 3ZM44 3L44 4L45 4L45 3ZM49 3L49 4L50 4L50 3ZM60 3L60 5L61 5L61 3ZM26 4L26 7L25 7L25 6L24 6L24 7L23 7L23 8L22 8L22 9L23 9L23 8L28 8L28 7L27 7L27 5L28 5L28 4ZM16 5L16 7L17 7L17 5ZM33 5L33 8L36 8L36 5ZM51 5L51 7L52 7L52 5ZM12 6L12 7L11 7L11 8L12 8L12 7L13 7L13 6ZM31 6L31 9L32 9L32 6ZM34 6L34 7L35 7L35 6ZM41 6L41 7L42 7L42 6ZM48 6L48 7L49 7L49 6ZM57 6L57 7L58 7L58 6ZM60 6L60 7L61 7L61 6ZM41 8L41 9L42 9L42 8ZM46 8L46 9L47 9L47 11L48 11L48 12L47 12L47 13L49 13L49 14L48 14L48 15L47 15L47 14L46 14L46 13L45 13L45 14L44 14L44 16L43 16L43 18L42 18L42 16L41 16L41 17L40 17L40 14L39 14L39 16L38 16L38 15L36 15L36 16L38 16L38 17L39 17L39 20L38 20L38 19L37 19L37 17L34 17L34 18L35 18L35 19L37 19L37 20L36 20L36 21L35 21L35 20L34 20L34 19L32 19L32 18L33 18L33 17L31 17L31 18L30 18L30 17L28 17L28 18L29 18L29 19L31 19L31 22L33 22L33 24L32 24L32 25L34 25L34 26L35 26L35 25L37 25L37 26L40 26L40 25L39 25L39 24L38 24L38 23L39 23L39 21L42 21L42 23L41 23L41 24L42 24L42 25L44 25L44 27L45 27L45 26L46 26L46 28L43 28L43 27L42 27L42 26L41 26L41 27L42 27L42 28L41 28L41 29L39 29L39 31L40 31L40 30L41 30L41 29L42 29L42 28L43 28L43 29L45 29L45 30L47 30L47 31L45 31L45 32L47 32L47 33L48 33L48 31L49 31L49 36L47 36L47 35L48 35L48 34L47 34L47 35L46 35L46 34L45 34L45 33L44 33L44 34L45 34L45 35L43 35L43 36L41 36L41 37L43 37L43 38L44 38L44 39L45 39L45 38L46 38L46 37L49 37L49 39L48 39L48 38L47 38L47 39L48 39L48 40L49 40L49 39L50 39L50 38L51 38L51 36L54 36L54 35L56 35L56 34L55 34L55 33L54 33L54 31L55 31L55 32L56 32L56 29L57 29L57 27L56 27L56 28L55 28L55 30L54 30L54 28L53 28L53 29L52 29L52 28L51 28L51 30L53 30L53 32L51 32L51 31L49 31L49 29L50 29L50 26L52 26L52 27L53 27L53 25L50 25L50 24L49 24L49 23L51 23L51 22L50 22L50 20L49 20L49 21L48 21L48 15L49 15L49 16L50 16L50 17L52 17L52 16L53 16L53 17L54 17L54 16L55 16L55 15L56 15L56 13L55 13L55 14L53 14L53 13L50 13L50 12L49 12L49 11L50 11L50 10L49 10L49 9L48 9L48 8ZM25 9L25 10L26 10L26 9ZM64 9L64 10L67 10L67 9ZM3 10L3 12L4 12L4 10ZM12 10L12 11L13 11L13 10ZM60 11L60 12L61 12L61 11ZM12 12L12 15L11 15L11 14L10 14L10 16L9 16L9 17L8 17L8 18L10 18L10 17L11 17L11 18L12 18L12 19L13 19L13 20L12 20L12 21L13 21L13 20L14 20L14 18L15 18L15 16L13 16L13 17L12 17L12 15L14 15L14 14L15 14L15 15L16 15L16 13L13 13L13 12ZM20 12L20 13L19 13L19 14L17 14L17 15L19 15L19 14L20 14L20 15L23 15L23 16L24 16L24 17L22 17L22 16L20 16L20 19L19 19L19 18L16 18L16 19L15 19L15 20L17 20L17 22L19 22L19 23L20 23L20 21L18 21L18 20L17 20L17 19L19 19L19 20L20 20L20 19L21 19L21 23L23 23L23 24L22 24L22 25L23 25L23 26L22 26L22 28L23 28L23 27L24 27L24 28L25 28L25 29L27 29L27 28L25 28L25 27L27 27L27 26L28 26L28 25L27 25L27 26L26 26L26 25L25 25L25 24L24 24L24 23L25 23L25 22L27 22L27 24L28 24L28 23L29 23L29 24L30 24L30 25L31 25L31 24L30 24L30 20L27 20L27 21L24 21L24 19L23 19L23 20L22 20L22 18L24 18L24 17L25 17L25 16L26 16L26 14L25 14L25 15L23 15L23 13L22 13L22 14L21 14L21 12ZM32 13L32 14L33 14L33 13ZM57 13L57 14L58 14L58 13ZM6 14L6 15L7 15L7 14ZM45 14L45 17L44 17L44 18L43 18L43 20L42 20L42 21L44 21L44 22L43 22L43 23L42 23L42 24L43 24L43 23L44 23L44 25L46 25L46 26L48 26L48 27L47 27L47 29L49 29L49 25L48 25L48 24L47 24L47 25L46 25L46 23L49 23L49 22L47 22L47 19L46 19L46 21L45 21L45 20L44 20L44 18L45 18L45 17L46 17L46 16L47 16L47 15L46 15L46 14ZM49 14L49 15L50 15L50 16L52 16L52 15L51 15L51 14ZM30 15L30 16L32 16L32 15ZM53 15L53 16L54 16L54 15ZM1 16L1 17L2 17L2 16ZM6 16L6 17L7 17L7 16ZM18 16L18 17L19 17L19 16ZM58 16L58 17L59 17L59 16ZM21 17L21 18L22 18L22 17ZM25 18L25 20L26 20L26 18ZM53 18L53 19L54 19L54 18ZM65 18L65 19L66 19L66 18ZM10 19L10 20L8 20L8 21L10 21L10 20L11 20L11 19ZM40 19L40 20L41 20L41 19ZM59 19L59 20L60 20L60 19ZM33 20L33 21L34 21L34 20ZM22 21L22 22L23 22L23 23L24 23L24 22L23 22L23 21ZM27 21L27 22L29 22L29 21ZM34 22L34 23L35 23L35 24L36 24L36 23L38 23L38 22ZM52 22L52 23L53 23L53 22ZM8 23L8 24L9 24L9 23ZM59 23L59 24L60 24L60 23ZM16 24L16 25L17 25L17 24ZM37 24L37 25L38 25L38 24ZM62 24L62 25L61 25L61 26L62 26L62 27L65 27L65 26L64 26L64 25L63 25L63 24ZM9 25L9 26L8 26L8 28L9 28L9 27L10 27L10 25ZM24 25L24 27L25 27L25 25ZM11 26L11 28L10 28L10 30L11 30L11 29L13 29L13 30L12 30L12 31L14 31L14 30L15 30L15 32L16 32L16 33L17 33L17 34L16 34L16 36L17 36L17 37L19 37L19 38L18 38L18 40L19 40L19 39L20 39L20 41L21 41L21 42L20 42L20 43L17 43L17 44L15 44L15 43L14 43L14 44L15 44L15 45L17 45L17 46L16 46L16 47L17 47L17 46L18 46L18 48L17 48L17 50L16 50L16 51L18 51L18 48L19 48L19 47L20 47L20 45L23 45L23 46L25 46L25 45L23 45L23 42L25 42L25 41L27 41L27 42L26 42L26 43L27 43L27 42L29 42L29 41L27 41L27 40L25 40L25 41L24 41L24 40L23 40L23 41L21 41L21 37L20 37L20 35L21 35L21 36L23 36L23 37L22 37L22 39L23 39L23 37L24 37L24 36L23 36L23 35L24 35L24 34L25 34L25 33L24 33L24 32L21 32L21 33L22 33L22 34L19 34L19 33L17 33L17 32L16 32L16 30L17 30L17 27L16 27L16 29L14 29L14 28L15 28L15 27L14 27L14 26L13 26L13 27L14 27L14 28L12 28L12 26ZM68 27L68 28L69 28L69 27ZM62 28L62 29L64 29L64 30L65 30L65 29L64 29L64 28ZM8 29L8 30L6 30L6 31L9 31L9 32L10 32L10 31L9 31L9 29ZM18 29L18 31L19 31L19 29ZM43 30L43 31L44 31L44 30ZM62 30L62 31L63 31L63 30ZM26 32L26 33L27 33L27 32ZM50 32L50 34L51 34L51 32ZM5 33L5 36L8 36L8 33ZM33 33L33 36L36 36L36 33ZM52 33L52 35L53 35L53 33ZM61 33L61 36L64 36L64 33ZM6 34L6 35L7 35L7 34ZM14 34L14 37L15 37L15 39L17 39L17 38L16 38L16 37L15 37L15 34ZM18 34L18 35L17 35L17 36L19 36L19 34ZM34 34L34 35L35 35L35 34ZM57 34L57 36L59 36L59 35L58 35L58 34ZM62 34L62 35L63 35L63 34ZM11 35L11 36L12 36L12 35ZM38 35L38 37L39 37L39 35ZM44 36L44 38L45 38L45 36ZM49 36L49 37L50 37L50 36ZM2 37L2 38L1 38L1 39L2 39L2 38L3 38L3 39L5 39L5 38L3 38L3 37ZM52 37L52 38L53 38L53 37ZM54 38L54 39L55 39L55 38ZM51 39L51 41L52 41L52 39ZM61 39L61 40L62 40L62 39ZM11 40L11 41L10 41L10 42L9 42L9 43L10 43L10 44L11 44L11 43L12 43L12 44L13 44L13 43L12 43L12 42L13 42L13 41L12 41L12 40ZM15 40L15 41L14 41L14 42L15 42L15 41L16 41L16 42L17 42L17 41L16 41L16 40ZM30 40L30 41L31 41L31 40ZM66 40L66 41L67 41L67 40ZM11 41L11 42L10 42L10 43L11 43L11 42L12 42L12 41ZM1 42L1 43L2 43L2 44L4 44L4 43L2 43L2 42ZM30 42L30 43L31 43L31 42ZM51 42L51 43L52 43L52 42ZM21 43L21 44L22 44L22 43ZM24 43L24 44L25 44L25 43ZM0 44L0 45L1 45L1 46L5 46L5 45L1 45L1 44ZM18 44L18 45L20 45L20 44ZM53 44L53 45L54 45L54 44ZM26 45L26 47L27 47L27 48L28 48L28 46L27 46L27 45ZM34 45L34 46L35 46L35 45ZM41 45L41 47L42 47L42 45ZM67 45L67 46L68 46L68 45ZM36 46L36 47L37 47L37 46ZM0 47L0 50L1 50L1 48L2 48L2 47ZM22 47L22 48L24 48L24 49L25 49L25 50L27 50L27 49L25 49L25 48L24 48L24 47ZM52 47L52 48L53 48L53 47ZM47 48L47 50L48 50L48 51L49 51L49 48ZM56 48L56 49L58 49L58 50L57 50L57 52L58 52L58 53L59 53L59 51L58 51L58 50L60 50L60 48L59 48L59 49L58 49L58 48ZM61 48L61 49L62 49L62 51L63 51L63 53L66 53L66 54L68 54L68 52L67 52L67 53L66 53L66 52L64 52L64 51L63 51L63 49L62 49L62 48ZM22 49L22 50L23 50L23 49ZM28 51L28 52L29 52L29 51ZM45 51L45 53L46 53L46 51ZM1 52L1 53L2 53L2 52ZM22 52L22 53L23 53L23 52ZM36 52L36 56L35 56L35 54L34 54L34 56L35 56L35 57L37 57L37 58L36 58L36 60L37 60L37 61L39 61L39 60L40 60L40 58L39 58L39 56L40 56L40 55L39 55L39 54L38 54L38 53L39 53L39 52ZM5 53L5 54L4 54L4 55L5 55L5 56L6 56L6 55L7 55L7 54L6 54L6 53ZM5 54L5 55L6 55L6 54ZM9 54L9 55L10 55L10 54ZM18 54L18 56L16 56L16 59L15 59L15 62L16 62L16 59L17 59L17 58L20 58L20 59L21 59L21 60L23 60L23 63L24 63L24 64L25 64L25 62L24 62L24 60L23 60L23 59L22 59L22 56L21 56L21 58L20 58L20 56L19 56L19 55L20 55L20 54ZM56 54L56 55L57 55L57 54ZM28 55L28 57L29 57L29 59L28 59L28 60L27 60L27 59L25 59L25 61L26 61L26 60L27 60L27 62L26 62L26 64L27 64L27 62L28 62L28 63L29 63L29 62L28 62L28 61L31 61L31 60L30 60L30 58L32 58L32 57L29 57L29 55ZM37 55L37 57L38 57L38 56L39 56L39 55ZM18 56L18 57L19 57L19 56ZM45 56L45 57L46 57L46 56ZM50 56L50 58L51 58L51 56ZM10 57L10 58L11 58L11 57ZM24 57L24 58L27 58L27 57ZM60 57L60 59L61 59L61 58L62 58L62 57ZM67 57L67 61L68 61L68 59L69 59L69 58L68 58L68 57ZM2 58L2 59L3 59L3 58ZM37 58L37 60L38 60L38 58ZM44 58L44 59L43 59L43 61L44 61L44 60L45 60L45 62L46 62L46 63L47 63L47 64L49 64L49 63L50 63L50 62L52 62L52 61L50 61L50 60L49 60L49 59L48 59L48 58L47 58L47 59L45 59L45 58ZM47 59L47 60L48 60L48 59ZM3 60L3 61L5 61L5 60ZM33 61L33 64L36 64L36 61ZM46 61L46 62L47 62L47 63L48 63L48 62L49 62L49 61ZM61 61L61 64L64 64L64 61ZM20 62L20 64L21 64L21 62ZM34 62L34 63L35 63L35 62ZM37 62L37 63L38 63L38 66L39 66L39 67L40 67L40 68L41 68L41 67L40 67L40 66L39 66L39 62ZM62 62L62 63L63 63L63 62ZM44 63L44 64L43 64L43 65L45 65L45 63ZM51 63L51 64L50 64L50 65L52 65L52 63ZM55 63L55 64L56 64L56 63ZM18 64L18 66L19 66L19 64ZM30 64L30 65L31 65L31 64ZM67 64L67 65L66 65L66 66L67 66L67 65L68 65L68 64ZM23 65L23 66L24 66L24 65ZM59 65L59 66L61 66L61 67L62 67L62 65ZM15 66L15 68L18 68L18 67L16 67L16 66ZM44 66L44 67L45 67L45 66ZM57 66L57 67L58 67L58 66ZM47 67L47 68L48 68L48 67ZM49 67L49 68L50 68L50 67ZM68 67L68 68L69 68L69 67ZM59 68L59 69L60 69L60 68ZM0 0L0 7L7 7L7 0ZM1 1L1 6L6 6L6 1ZM2 2L2 5L5 5L5 2ZM62 0L62 7L69 7L69 0ZM63 1L63 6L68 6L68 1ZM64 2L64 5L67 5L67 2ZM0 62L0 69L7 69L7 62ZM1 63L1 68L6 68L6 63ZM2 64L2 67L5 67L5 64Z" fill="#000000"/></g></g></svg>
