<?xml version="1.0" encoding="UTF-8"?>
<svg xmlns="http://www.w3.org/2000/svg" version="1.1" width="300" height="300" viewBox="0 0 300 300"><rect x="0" y="0" width="300" height="300" fill="#ffffff"/><g transform="scale(4.348)"><g transform="translate(0,0)"><path fill-rule="evenodd" d="M9 0L9 1L8 1L8 2L9 2L9 1L10 1L10 0ZM13 0L13 1L11 1L11 3L12 3L12 4L10 4L10 5L11 5L11 6L10 6L10 7L9 7L9 5L8 5L8 7L9 7L9 8L6 8L6 9L5 9L5 8L0 8L0 9L2 9L2 11L4 11L4 13L7 13L7 14L5 14L5 15L1 15L1 14L3 14L3 13L0 13L0 16L1 16L1 17L0 17L0 18L1 18L1 19L0 19L0 20L2 20L2 21L0 21L0 22L2 22L2 24L1 24L1 23L0 23L0 27L1 27L1 28L0 28L0 29L1 29L1 30L0 30L0 33L1 33L1 34L0 34L0 38L2 38L2 40L1 40L1 39L0 39L0 40L1 40L1 41L2 41L2 42L0 42L0 43L1 43L1 45L0 45L0 46L2 46L2 48L0 48L0 49L2 49L2 51L3 51L3 50L4 50L4 47L7 47L7 48L5 48L5 53L8 53L8 54L9 54L9 53L8 53L8 52L9 52L9 51L7 51L7 50L6 50L6 49L7 49L7 48L8 48L8 47L7 47L7 46L6 46L6 45L7 45L7 44L10 44L10 45L9 45L9 46L10 46L10 45L11 45L11 48L13 48L13 50L14 50L14 48L15 48L15 47L13 47L13 44L15 44L15 45L18 45L18 46L17 46L17 47L16 47L16 49L18 49L18 50L15 50L15 53L17 53L17 54L18 54L18 55L17 55L17 57L16 57L16 56L13 56L13 55L11 55L11 54L10 54L10 55L8 55L8 56L9 56L9 57L7 57L7 56L5 56L5 57L4 57L4 53L3 53L3 55L1 55L1 54L2 54L2 52L0 52L0 55L1 55L1 56L0 56L0 57L1 57L1 58L0 58L0 61L1 61L1 58L2 58L2 59L3 59L3 58L4 58L4 59L7 59L7 60L6 60L6 61L7 61L7 60L8 60L8 58L10 58L10 60L9 60L9 61L8 61L8 63L9 63L9 61L10 61L10 60L12 60L12 61L11 61L11 63L12 63L12 62L13 62L13 64L12 64L12 67L11 67L11 64L8 64L8 69L10 69L10 67L11 67L11 69L12 69L12 67L13 67L13 68L14 68L14 66L16 66L16 65L17 65L17 66L18 66L18 68L17 68L17 67L16 67L16 68L15 68L15 69L22 69L22 68L19 68L19 67L20 67L20 66L19 66L19 65L20 65L20 64L19 64L19 63L22 63L22 64L23 64L23 65L21 65L21 66L24 66L24 67L23 67L23 69L24 69L24 68L25 68L25 67L29 67L29 68L28 68L28 69L29 69L29 68L30 68L30 69L32 69L32 68L31 68L31 67L30 67L30 66L32 66L32 67L33 67L33 66L32 66L32 65L36 65L36 68L33 68L33 69L39 69L39 68L38 68L38 67L41 67L41 66L44 66L44 67L42 67L42 68L41 68L41 69L42 69L42 68L43 68L43 69L44 69L44 67L45 67L45 66L44 66L44 64L45 64L45 65L46 65L46 62L43 62L43 61L44 61L44 59L46 59L46 60L45 60L45 61L46 61L46 60L47 60L47 63L48 63L48 61L49 61L49 62L50 62L50 60L51 60L51 58L49 58L49 59L46 59L46 58L45 58L45 57L44 57L44 56L46 56L46 57L47 57L47 56L48 56L48 57L49 57L49 56L50 56L50 57L51 57L51 55L52 55L52 56L53 56L53 54L56 54L56 52L58 52L58 51L56 51L56 50L57 50L57 49L56 49L56 48L55 48L55 47L57 47L57 45L59 45L59 44L60 44L60 45L61 45L61 49L62 49L62 42L63 42L63 43L65 43L65 44L63 44L63 45L65 45L65 44L66 44L66 47L65 47L65 48L64 48L64 49L63 49L63 50L64 50L64 51L62 51L62 50L59 50L59 51L62 51L62 52L60 52L60 53L59 53L59 56L60 56L60 57L61 57L61 58L60 58L60 59L59 59L59 58L57 58L57 57L56 57L56 56L57 56L57 55L56 55L56 56L54 56L54 57L53 57L53 59L52 59L52 60L53 60L53 62L52 62L52 61L51 61L51 62L52 62L52 63L50 63L50 64L47 64L47 66L48 66L48 67L46 67L46 68L45 68L45 69L51 69L51 68L48 68L48 67L50 67L50 64L53 64L53 66L52 66L52 65L51 65L51 67L55 67L55 69L56 69L56 67L55 67L55 66L56 66L56 63L57 63L57 62L56 62L56 63L54 63L54 64L53 64L53 62L55 62L55 61L56 61L56 60L55 60L55 59L54 59L54 58L57 58L57 60L58 60L58 59L59 59L59 60L60 60L60 61L59 61L59 62L58 62L58 63L59 63L59 62L60 62L60 66L59 66L59 67L57 67L57 69L58 69L58 68L59 68L59 67L61 67L61 68L62 68L62 69L63 69L63 68L66 68L66 69L68 69L68 68L67 68L67 65L66 65L66 66L65 66L65 64L67 64L67 63L68 63L68 64L69 64L69 63L68 63L68 62L67 62L67 59L68 59L68 61L69 61L69 59L68 59L68 57L67 57L67 56L68 56L68 54L69 54L69 53L66 53L66 52L68 52L68 51L69 51L69 50L68 50L68 48L67 48L67 47L68 47L68 45L69 45L69 43L68 43L68 42L69 42L69 40L68 40L68 38L67 38L67 37L68 37L68 36L67 36L67 35L68 35L68 34L69 34L69 33L68 33L68 32L69 32L69 31L68 31L68 30L69 30L69 28L67 28L67 27L68 27L68 25L69 25L69 23L68 23L68 22L67 22L67 21L68 21L68 18L69 18L69 17L67 17L67 16L68 16L68 13L69 13L69 11L68 11L68 8L67 8L67 9L66 9L66 8L65 8L65 9L64 9L64 8L63 8L63 9L64 9L64 10L63 10L63 11L61 11L61 10L62 10L62 8L60 8L60 9L59 9L59 8L58 8L58 7L59 7L59 4L56 4L56 1L55 1L55 0L51 0L51 3L50 3L50 0L48 0L48 2L47 2L47 1L46 1L46 0L44 0L44 1L46 1L46 2L45 2L45 3L48 3L48 4L47 4L47 5L46 5L46 7L45 7L45 5L44 5L44 2L43 2L43 0L39 0L39 1L42 1L42 2L43 2L43 3L41 3L41 2L39 2L39 3L41 3L41 4L39 4L39 5L38 5L38 4L37 4L37 3L38 3L38 0L37 0L37 1L35 1L35 3L32 3L32 2L31 2L31 1L32 1L32 0L29 0L29 1L30 1L30 2L29 2L29 4L30 4L30 5L29 5L29 6L28 6L28 7L27 7L27 6L26 6L26 5L27 5L27 4L28 4L28 3L27 3L27 2L28 2L28 0L26 0L26 1L27 1L27 2L25 2L25 4L21 4L21 3L22 3L22 2L23 2L23 1L25 1L25 0L21 0L21 1L22 1L22 2L21 2L21 3L20 3L20 4L19 4L19 3L18 3L18 2L20 2L20 1L19 1L19 0L16 0L16 1L15 1L15 2L14 2L14 3L17 3L17 4L15 4L15 5L14 5L14 4L13 4L13 1L14 1L14 0ZM58 0L58 1L57 1L57 3L59 3L59 2L58 2L58 1L61 1L61 0ZM52 1L52 3L51 3L51 4L50 4L50 3L49 3L49 2L48 2L48 3L49 3L49 4L50 4L50 5L49 5L49 9L50 9L50 10L51 10L51 9L50 9L50 8L52 8L52 9L55 9L55 8L54 8L54 6L53 6L53 8L52 8L52 6L51 6L51 7L50 7L50 5L52 5L52 4L53 4L53 2L54 2L54 3L55 3L55 1ZM30 2L30 3L31 3L31 4L32 4L32 3L31 3L31 2ZM36 2L36 3L37 3L37 2ZM8 3L8 4L9 4L9 3ZM26 3L26 4L25 4L25 5L22 5L22 6L21 6L21 4L20 4L20 5L18 5L18 6L17 6L17 7L16 7L16 5L15 5L15 7L14 7L14 5L12 5L12 6L11 6L11 7L10 7L10 8L11 8L11 9L9 9L9 11L8 11L8 9L6 9L6 10L5 10L5 9L4 9L4 10L5 10L5 12L7 12L7 13L8 13L8 12L9 12L9 11L10 11L10 10L11 10L11 9L13 9L13 11L15 11L15 12L16 12L16 11L17 11L17 10L18 10L18 11L19 11L19 10L18 10L18 9L16 9L16 10L14 10L14 9L15 9L15 8L17 8L17 7L18 7L18 6L19 6L19 7L20 7L20 6L21 6L21 8L19 8L19 9L20 9L20 14L22 14L22 15L20 15L20 16L19 16L19 14L18 14L18 13L16 13L16 14L15 14L15 15L14 15L14 14L13 14L13 13L14 13L14 12L13 12L13 13L12 13L12 14L9 14L9 15L6 15L6 16L5 16L5 17L6 17L6 18L7 18L7 19L4 19L4 16L2 16L2 17L1 17L1 18L2 18L2 20L3 20L3 19L4 19L4 20L7 20L7 19L8 19L8 20L9 20L9 22L8 22L8 21L6 21L6 22L5 22L5 23L6 23L6 24L4 24L4 23L3 23L3 26L2 26L2 25L1 25L1 27L3 27L3 28L1 28L1 29L3 29L3 28L4 28L4 31L3 31L3 30L2 30L2 31L1 31L1 33L2 33L2 32L5 32L5 31L6 31L6 32L9 32L9 33L10 33L10 34L9 34L9 35L10 35L10 36L9 36L9 38L8 38L8 37L5 37L5 38L4 38L4 41L3 41L3 40L2 40L2 41L3 41L3 42L2 42L2 44L3 44L3 45L4 45L4 46L3 46L3 47L4 47L4 46L5 46L5 45L6 45L6 44L7 44L7 43L6 43L6 44L5 44L5 41L6 41L6 42L7 42L7 41L8 41L8 42L9 42L9 43L10 43L10 44L11 44L11 45L12 45L12 43L16 43L16 44L17 44L17 40L18 40L18 39L17 39L17 40L16 40L16 38L18 38L18 37L17 37L17 36L18 36L18 35L17 35L17 33L18 33L18 32L17 32L17 33L15 33L15 34L16 34L16 35L17 35L17 36L15 36L15 35L13 35L13 37L15 37L15 40L14 40L14 39L12 39L12 40L10 40L10 41L11 41L11 43L10 43L10 42L9 42L9 41L8 41L8 40L9 40L9 39L11 39L11 37L12 37L12 36L11 36L11 33L10 33L10 32L11 32L11 31L12 31L12 32L13 32L13 33L12 33L12 34L14 34L14 32L16 32L16 31L18 31L18 30L17 30L17 28L16 28L16 27L10 27L10 26L11 26L11 23L10 23L10 22L11 22L11 21L10 21L10 20L9 20L9 18L10 18L10 19L11 19L11 20L12 20L12 21L14 21L14 24L12 24L12 26L13 26L13 25L14 25L14 24L15 24L15 21L16 21L16 25L15 25L15 26L16 26L16 25L17 25L17 26L18 26L18 28L19 28L19 27L20 27L20 26L21 26L21 27L23 27L23 28L20 28L20 31L19 31L19 32L20 32L20 33L19 33L19 34L20 34L20 35L19 35L19 37L20 37L20 38L19 38L19 39L20 39L20 38L21 38L21 37L22 37L22 39L21 39L21 40L19 40L19 41L18 41L18 42L19 42L19 41L20 41L20 43L21 43L21 42L22 42L22 43L24 43L24 44L25 44L25 43L26 43L26 45L25 45L25 46L23 46L23 44L21 44L21 45L20 45L20 46L18 46L18 47L17 47L17 48L18 48L18 49L21 49L21 52L19 52L19 53L18 53L18 51L20 51L20 50L18 50L18 51L16 51L16 52L17 52L17 53L18 53L18 54L19 54L19 53L20 53L20 54L21 54L21 55L19 55L19 57L20 57L20 58L18 58L18 57L17 57L17 58L18 58L18 59L19 59L19 61L18 61L18 60L16 60L16 59L15 59L15 58L16 58L16 57L15 57L15 58L12 58L12 57L13 57L13 56L10 56L10 57L11 57L11 59L13 59L13 62L14 62L14 59L15 59L15 60L16 60L16 61L15 61L15 62L16 62L16 63L15 63L15 65L16 65L16 64L17 64L17 65L18 65L18 64L17 64L17 63L18 63L18 62L19 62L19 61L20 61L20 62L22 62L22 63L24 63L24 64L26 64L26 63L24 63L24 62L22 62L22 61L25 61L25 62L26 62L26 61L27 61L27 65L25 65L25 66L29 66L29 64L31 64L31 65L32 65L32 64L31 64L31 63L32 63L32 62L29 62L29 61L27 61L27 60L29 60L29 58L30 58L30 60L31 60L31 61L32 61L32 60L36 60L36 59L37 59L37 60L38 60L38 64L37 64L37 66L39 66L39 65L40 65L40 66L41 66L41 64L44 64L44 63L41 63L41 59L42 59L42 60L43 60L43 59L44 59L44 57L43 57L43 54L44 54L44 55L45 55L45 54L46 54L46 56L47 56L47 55L48 55L48 56L49 56L49 55L50 55L50 54L53 54L53 53L55 53L55 52L51 52L51 51L49 51L49 50L48 50L48 49L46 49L46 50L45 50L45 51L44 51L44 53L43 53L43 52L42 52L42 50L41 50L41 49L42 49L42 48L43 48L43 47L44 47L44 49L43 49L43 50L44 50L44 49L45 49L45 48L50 48L50 50L52 50L52 51L53 51L53 50L52 50L52 49L54 49L54 48L50 48L50 46L51 46L51 47L53 47L53 46L54 46L54 47L55 47L55 46L54 46L54 44L56 44L56 45L57 45L57 43L58 43L58 42L59 42L59 43L61 43L61 42L59 42L59 41L60 41L60 40L61 40L61 41L63 41L63 42L68 42L68 40L66 40L66 39L67 39L67 38L66 38L66 37L67 37L67 36L65 36L65 37L64 37L64 38L62 38L62 37L61 37L61 38L59 38L59 37L60 37L60 35L59 35L59 31L57 31L57 30L59 30L59 29L60 29L60 26L59 26L59 25L57 25L57 24L55 24L55 25L56 25L56 26L59 26L59 28L58 28L58 27L55 27L55 26L52 26L52 25L53 25L53 24L54 24L54 23L55 23L55 22L52 22L52 23L51 23L51 21L55 21L55 19L54 19L54 18L53 18L53 20L51 20L51 21L50 21L50 24L49 24L49 23L48 23L48 24L47 24L47 23L46 23L46 24L45 24L45 23L44 23L44 21L45 21L45 22L47 22L47 21L45 21L45 19L48 19L48 18L49 18L49 20L50 20L50 19L52 19L52 17L54 17L54 16L56 16L56 17L55 17L55 18L56 18L56 22L59 22L59 23L61 23L61 24L60 24L60 25L62 25L62 26L61 26L61 27L62 27L62 28L61 28L61 29L62 29L62 30L60 30L60 31L62 31L62 30L63 30L63 29L65 29L65 30L64 30L64 31L63 31L63 32L64 32L64 31L67 31L67 32L66 32L66 33L65 33L65 35L67 35L67 34L68 34L68 33L67 33L67 32L68 32L68 31L67 31L67 30L68 30L68 29L67 29L67 28L64 28L64 27L67 27L67 25L65 25L65 24L64 24L64 23L63 23L63 24L64 24L64 25L62 25L62 22L65 22L65 23L67 23L67 24L68 24L68 23L67 23L67 22L65 22L65 20L66 20L66 21L67 21L67 20L66 20L66 19L65 19L65 18L63 18L63 17L66 17L66 16L65 16L65 14L67 14L67 13L68 13L68 11L67 11L67 13L65 13L65 12L62 12L62 15L61 15L61 14L59 14L59 13L61 13L61 12L60 12L60 10L59 10L59 9L57 9L57 7L58 7L58 5L56 5L56 6L55 6L55 7L56 7L56 10L53 10L53 11L52 11L52 12L50 12L50 16L49 16L49 15L48 15L48 16L47 16L47 15L45 15L45 16L44 16L44 13L45 13L45 14L47 14L47 13L46 13L46 12L47 12L47 11L49 11L49 10L47 10L47 7L48 7L48 6L47 6L47 7L46 7L46 9L45 9L45 7L44 7L44 5L40 5L40 6L39 6L39 7L38 7L38 5L37 5L37 7L38 7L38 8L37 8L37 9L38 9L38 10L37 10L37 12L36 12L36 11L35 11L35 10L36 10L36 9L35 9L35 10L34 10L34 11L33 11L33 9L32 9L32 10L31 10L31 9L29 9L29 8L26 8L26 9L24 9L24 6L25 6L25 7L26 7L26 6L25 6L25 5L26 5L26 4L27 4L27 3ZM60 3L60 5L61 5L61 3ZM30 5L30 6L29 6L29 7L30 7L30 8L32 8L32 5ZM33 5L33 8L36 8L36 5ZM12 6L12 7L11 7L11 8L14 8L14 7L13 7L13 6ZM22 6L22 7L23 7L23 6ZM30 6L30 7L31 7L31 6ZM34 6L34 7L35 7L35 6ZM40 6L40 7L39 7L39 8L40 8L40 7L41 7L41 8L42 8L42 7L43 7L43 6L42 6L42 7L41 7L41 6ZM56 6L56 7L57 7L57 6ZM60 6L60 7L61 7L61 6ZM21 8L21 9L22 9L22 8ZM43 8L43 9L42 9L42 10L41 10L41 9L39 9L39 10L38 10L38 11L41 11L41 14L40 14L40 15L39 15L39 16L38 16L38 17L37 17L37 16L36 16L36 15L37 15L37 14L38 14L38 13L39 13L39 12L37 12L37 14L36 14L36 12L34 12L34 13L32 13L32 11L31 11L31 10L30 10L30 11L29 11L29 12L30 12L30 13L29 13L29 18L28 18L28 19L27 19L27 17L28 17L28 16L27 16L27 17L24 17L24 16L26 16L26 14L27 14L27 13L23 13L23 14L24 14L24 15L22 15L22 16L23 16L23 17L18 17L18 16L17 16L17 17L15 17L15 18L14 18L14 16L13 16L13 17L12 17L12 19L13 19L13 18L14 18L14 19L16 19L16 21L17 21L17 25L19 25L19 26L20 26L20 25L21 25L21 26L22 26L22 25L24 25L24 26L23 26L23 27L24 27L24 29L22 29L22 30L21 30L21 31L20 31L20 32L23 32L23 30L25 30L25 29L26 29L26 28L27 28L27 29L28 29L28 28L29 28L29 29L33 29L33 32L32 32L32 30L27 30L27 31L25 31L25 33L21 33L21 34L22 34L22 35L23 35L23 34L25 34L25 35L24 35L24 37L23 37L23 39L24 39L24 41L23 41L23 42L24 42L24 41L25 41L25 42L26 42L26 43L28 43L28 44L27 44L27 45L26 45L26 46L25 46L25 47L26 47L26 46L27 46L27 47L28 47L28 48L27 48L27 50L26 50L26 52L25 52L25 49L24 49L24 48L23 48L23 49L22 49L22 47L23 47L23 46L21 46L21 47L19 47L19 48L21 48L21 49L22 49L22 50L23 50L23 49L24 49L24 51L22 51L22 52L23 52L23 53L24 53L24 56L23 56L23 54L22 54L22 53L21 53L21 54L22 54L22 55L21 55L21 56L20 56L20 57L21 57L21 58L20 58L20 59L24 59L24 60L25 60L25 61L26 61L26 60L27 60L27 57L28 57L28 55L27 55L27 57L26 57L26 56L25 56L25 55L26 55L26 54L25 54L25 53L26 53L26 52L27 52L27 53L32 53L32 54L33 54L33 53L32 53L32 51L29 51L29 52L28 52L28 51L27 51L27 50L28 50L28 49L29 49L29 50L31 50L31 48L32 48L32 50L33 50L33 52L34 52L34 50L33 50L33 45L34 45L34 47L35 47L35 49L37 49L37 50L36 50L36 51L35 51L35 52L37 52L37 51L38 51L38 53L36 53L36 55L35 55L35 54L34 54L34 55L35 55L35 56L37 56L37 57L38 57L38 56L41 56L41 55L42 55L42 54L43 54L43 53L42 53L42 54L41 54L41 55L40 55L40 54L39 54L39 55L38 55L38 53L39 53L39 52L41 52L41 51L40 51L40 50L38 50L38 49L39 49L39 48L42 48L42 47L43 47L43 46L45 46L45 47L49 47L49 46L50 46L50 45L51 45L51 44L52 44L52 43L49 43L49 42L50 42L50 41L51 41L51 42L52 42L52 40L54 40L54 41L53 41L53 42L56 42L56 40L57 40L57 39L59 39L59 38L57 38L57 37L58 37L58 36L59 36L59 35L57 35L57 34L56 34L56 32L57 32L57 31L56 31L56 30L55 30L55 29L56 29L56 28L55 28L55 27L54 27L54 28L53 28L53 27L52 27L52 26L51 26L51 27L52 27L52 28L53 28L53 30L52 30L52 29L51 29L51 30L52 30L52 31L50 31L50 32L53 32L53 33L54 33L54 34L52 34L52 33L51 33L51 34L52 34L52 35L51 35L51 36L50 36L50 35L48 35L48 34L50 34L50 33L49 33L49 32L47 32L47 33L48 33L48 34L47 34L47 38L45 38L45 37L46 37L46 36L45 36L45 33L44 33L44 32L46 32L46 31L44 31L44 32L43 32L43 31L42 31L42 30L44 30L44 28L43 28L43 26L44 26L44 23L43 23L43 21L44 21L44 19L45 19L45 18L44 18L44 19L43 19L43 17L44 17L44 16L42 16L42 17L41 17L41 22L42 22L42 23L41 23L41 26L38 26L38 25L37 25L37 24L38 24L38 23L40 23L40 21L39 21L39 20L40 20L40 19L38 19L38 20L37 20L37 21L35 21L35 20L32 20L32 19L33 19L33 18L32 18L32 19L29 19L29 18L31 18L31 16L32 16L32 14L34 14L34 15L35 15L35 17L34 17L34 16L33 16L33 17L34 17L34 18L35 18L35 19L37 19L37 18L38 18L38 17L39 17L39 18L40 18L40 17L39 17L39 16L40 16L40 15L41 15L41 14L42 14L42 15L43 15L43 13L44 13L44 12L43 12L43 11L44 11L44 10L45 10L45 9L44 9L44 8ZM23 9L23 10L22 10L22 11L21 11L21 12L24 12L24 11L23 11L23 10L24 10L24 9ZM0 10L0 11L1 11L1 10ZM6 10L6 11L7 11L7 10ZM26 10L26 11L25 11L25 12L26 12L26 11L28 11L28 10ZM42 10L42 11L43 11L43 10ZM56 10L56 12L55 12L55 11L53 11L53 12L55 12L55 13L51 13L51 15L52 15L52 16L54 16L54 14L55 14L55 15L56 15L56 16L57 16L57 15L58 15L58 17L59 17L59 18L57 18L57 17L56 17L56 18L57 18L57 21L59 21L59 22L62 22L62 21L63 21L63 20L64 20L64 19L63 19L63 18L62 18L62 16L64 16L64 13L63 13L63 15L62 15L62 16L61 16L61 15L58 15L58 14L57 14L57 13L56 13L56 12L58 12L58 13L59 13L59 10L58 10L58 11L57 11L57 10ZM64 10L64 11L66 11L66 10ZM45 11L45 12L46 12L46 11ZM42 12L42 13L43 13L43 12ZM30 13L30 14L32 14L32 13ZM34 13L34 14L35 14L35 13ZM48 13L48 14L49 14L49 13ZM55 13L55 14L56 14L56 13ZM12 14L12 15L11 15L11 16L12 16L12 15L13 15L13 14ZM16 14L16 15L15 15L15 16L16 16L16 15L18 15L18 14ZM6 16L6 17L7 17L7 18L9 18L9 17L10 17L10 18L11 18L11 17L10 17L10 16ZM48 16L48 17L47 17L47 18L48 18L48 17L49 17L49 18L50 18L50 17L51 17L51 16L50 16L50 17L49 17L49 16ZM2 17L2 18L3 18L3 17ZM17 17L17 18L18 18L18 17ZM35 17L35 18L36 18L36 17ZM19 18L19 19L17 19L17 20L19 20L19 21L20 21L20 22L19 22L19 23L18 23L18 24L19 24L19 23L20 23L20 24L21 24L21 25L22 25L22 24L21 24L21 23L22 23L22 22L23 22L23 19L24 19L24 20L26 20L26 21L25 21L25 22L27 22L27 23L32 23L32 25L31 25L31 27L32 27L32 28L34 28L34 29L35 29L35 30L36 30L36 29L37 29L37 28L39 28L39 29L38 29L38 30L39 30L39 31L40 31L40 32L39 32L39 33L38 33L38 34L37 34L37 35L38 35L38 36L37 36L37 37L36 37L36 38L35 38L35 39L34 39L34 40L33 40L33 41L32 41L32 42L31 42L31 41L28 41L28 40L26 40L26 41L27 41L27 42L30 42L30 43L29 43L29 44L28 44L28 45L27 45L27 46L28 46L28 47L29 47L29 46L30 46L30 47L32 47L32 46L31 46L31 45L29 45L29 44L30 44L30 43L32 43L32 45L33 45L33 44L34 44L34 45L35 45L35 47L37 47L37 48L39 48L39 47L42 47L42 46L41 46L41 45L45 45L45 46L47 46L47 43L48 43L48 41L47 41L47 40L48 40L48 39L47 39L47 40L44 40L44 39L45 39L45 38L44 38L44 37L45 37L45 36L44 36L44 33L43 33L43 32L41 32L41 30L42 30L42 29L41 29L41 27L40 27L40 28L39 28L39 27L38 27L38 26L37 26L37 28L35 28L35 27L32 27L32 25L33 25L33 26L36 26L36 24L37 24L37 23L34 23L34 22L35 22L35 21L34 21L34 22L33 22L33 21L32 21L32 20L31 20L31 21L30 21L30 22L29 22L29 21L28 21L28 20L29 20L29 19L28 19L28 20L26 20L26 19L24 19L24 18L23 18L23 19L22 19L22 18L21 18L21 21L20 21L20 20L19 20L19 19L20 19L20 18ZM61 18L61 19L58 19L58 20L60 20L60 21L62 21L62 20L61 20L61 19L62 19L62 18ZM21 21L21 22L22 22L22 21ZM37 21L37 22L39 22L39 21ZM6 22L6 23L7 23L7 24L6 24L6 25L5 25L5 26L4 26L4 27L5 27L5 26L6 26L6 27L8 27L8 26L9 26L9 25L10 25L10 24L9 24L9 23L7 23L7 22ZM24 23L24 24L26 24L26 25L25 25L25 26L26 26L26 27L25 27L25 28L26 28L26 27L30 27L30 25L28 25L28 24L26 24L26 23ZM7 24L7 25L6 25L6 26L7 26L7 25L9 25L9 24ZM46 24L46 25L47 25L47 28L46 28L46 26L45 26L45 29L47 29L47 30L48 30L48 31L49 31L49 30L50 30L50 29L49 29L49 28L50 28L50 25L49 25L49 24L48 24L48 25L47 25L47 24ZM63 26L63 27L64 27L64 26ZM9 27L9 32L10 32L10 30L11 30L11 28L10 28L10 27ZM48 27L48 28L49 28L49 27ZM6 28L6 29L8 29L8 28ZM12 28L12 29L14 29L14 30L13 30L13 32L14 32L14 31L15 31L15 28ZM39 29L39 30L40 30L40 29ZM6 30L6 31L8 31L8 30ZM53 30L53 32L55 32L55 31L54 31L54 30ZM27 31L27 32L26 32L26 33L25 33L25 34L27 34L27 36L26 36L26 35L25 35L25 36L26 36L26 37L25 37L25 39L27 39L27 38L28 38L28 39L33 39L33 38L34 38L34 37L32 37L32 38L30 38L30 37L29 37L29 35L30 35L30 36L32 36L32 34L31 34L31 33L32 33L32 32L31 32L31 33L28 33L28 31ZM29 31L29 32L30 32L30 31ZM34 31L34 32L35 32L35 31ZM5 33L5 36L8 36L8 33ZM27 33L27 34L28 34L28 33ZM33 33L33 36L36 36L36 33ZM41 33L41 34L43 34L43 33ZM61 33L61 36L64 36L64 33ZM66 33L66 34L67 34L67 33ZM1 34L1 36L2 36L2 38L3 38L3 36L4 36L4 34ZM6 34L6 35L7 35L7 34ZM30 34L30 35L31 35L31 34ZM34 34L34 35L35 35L35 34ZM39 34L39 35L40 35L40 36L43 36L43 37L41 37L41 38L40 38L40 37L39 37L39 38L40 38L40 39L38 39L38 37L37 37L37 38L36 38L36 39L35 39L35 40L36 40L36 41L37 41L37 43L36 43L36 42L35 42L35 41L33 41L33 42L32 42L32 43L34 43L34 44L35 44L35 43L36 43L36 45L37 45L37 47L38 47L38 45L37 45L37 44L38 44L38 41L39 41L39 40L41 40L41 41L40 41L40 44L39 44L39 45L40 45L40 44L41 44L41 42L44 42L44 43L42 43L42 44L45 44L45 42L44 42L44 40L43 40L43 39L44 39L44 38L43 38L43 37L44 37L44 36L43 36L43 35L40 35L40 34ZM54 34L54 35L52 35L52 36L51 36L51 37L50 37L50 36L49 36L49 38L51 38L51 37L55 37L55 39L54 39L54 40L56 40L56 37L57 37L57 35L55 35L55 34ZM62 34L62 35L63 35L63 34ZM10 36L10 37L11 37L11 36ZM55 36L55 37L56 37L56 36ZM5 38L5 39L8 39L8 38ZM61 38L61 39L62 39L62 38ZM37 39L37 41L38 41L38 39ZM41 39L41 40L42 40L42 41L43 41L43 40L42 40L42 39ZM49 39L49 41L50 41L50 40L52 40L52 39ZM63 39L63 41L66 41L66 40L65 40L65 39ZM6 40L6 41L7 41L7 40ZM12 40L12 42L16 42L16 41L14 41L14 40ZM21 40L21 41L22 41L22 40ZM58 40L58 41L57 41L57 42L58 42L58 41L59 41L59 40ZM34 42L34 43L35 43L35 42ZM46 42L46 43L47 43L47 42ZM18 43L18 44L19 44L19 43ZM53 43L53 44L54 44L54 43ZM67 43L67 45L68 45L68 43ZM4 44L4 45L5 45L5 44ZM49 44L49 45L48 45L48 46L49 46L49 45L50 45L50 44ZM52 45L52 46L53 46L53 45ZM9 47L9 48L10 48L10 47ZM58 48L58 49L59 49L59 48ZM65 48L65 49L64 49L64 50L65 50L65 49L66 49L66 51L65 51L65 52L64 52L64 53L63 53L63 54L62 54L62 53L60 53L60 55L65 55L65 54L66 54L66 53L65 53L65 52L66 52L66 51L68 51L68 50L67 50L67 48ZM8 49L8 50L9 50L9 49ZM11 49L11 51L10 51L10 53L12 53L12 52L13 52L13 54L14 54L14 51L12 51L12 49ZM55 49L55 50L56 50L56 49ZM46 50L46 52L47 52L47 53L48 53L48 54L50 54L50 53L51 53L51 52L47 52L47 50ZM6 51L6 52L7 52L7 51ZM11 51L11 52L12 52L12 51ZM24 52L24 53L25 53L25 52ZM6 54L6 55L7 55L7 54ZM15 54L15 55L16 55L16 54ZM29 55L29 57L31 57L31 58L32 58L32 59L31 59L31 60L32 60L32 59L36 59L36 58L33 58L33 57L32 57L32 55ZM37 55L37 56L38 56L38 55ZM1 56L1 57L2 57L2 58L3 58L3 57L2 57L2 56ZM21 56L21 57L22 57L22 58L24 58L24 57L22 57L22 56ZM62 56L62 58L61 58L61 59L60 59L60 60L61 60L61 59L63 59L63 60L65 60L65 61L66 61L66 60L65 60L65 59L64 59L64 58L65 58L65 57L66 57L66 58L67 58L67 57L66 57L66 56ZM5 57L5 58L7 58L7 57ZM39 57L39 58L37 58L37 59L41 59L41 58L43 58L43 57ZM25 58L25 60L26 60L26 58ZM49 59L49 60L50 60L50 59ZM53 59L53 60L54 60L54 61L55 61L55 60L54 60L54 59ZM3 60L3 61L5 61L5 60ZM20 60L20 61L22 61L22 60ZM17 61L17 62L18 62L18 61ZM33 61L33 64L36 64L36 61ZM39 61L39 62L40 62L40 61ZM61 61L61 64L64 64L64 61ZM28 62L28 63L29 63L29 62ZM34 62L34 63L35 63L35 62ZM62 62L62 63L63 63L63 62ZM65 62L65 63L66 63L66 62ZM39 63L39 64L41 64L41 63ZM13 64L13 66L14 66L14 64ZM54 64L54 65L55 65L55 64ZM57 64L57 65L59 65L59 64ZM48 65L48 66L49 66L49 65ZM62 65L62 66L61 66L61 67L62 67L62 68L63 68L63 67L65 67L65 66L64 66L64 65ZM9 66L9 67L10 67L10 66ZM53 68L53 69L54 69L54 68ZM0 0L0 7L7 7L7 0ZM1 1L1 6L6 6L6 1ZM2 2L2 5L5 5L5 2ZM62 0L62 7L69 7L69 0ZM63 1L63 6L68 6L68 1ZM64 2L64 5L67 5L67 2ZM0 62L0 69L7 69L7 62ZM1 63L1 68L6 68L6 63ZM2 64L2 67L5 67L5 64Z" fill="#000000"/></g></g></svg>
