<?xml version="1.0" encoding="UTF-8"?>
<svg xmlns="http://www.w3.org/2000/svg" version="1.1" width="300" height="300" viewBox="0 0 300 300"><rect x="0" y="0" width="300" height="300" fill="#ffffff"/><g transform="scale(4.348)"><g transform="translate(0,0)"><path fill-rule="evenodd" d="M8 0L8 4L9 4L9 0ZM11 0L11 1L10 1L10 3L14 3L14 0L13 0L13 1L12 1L12 0ZM17 0L17 2L18 2L18 1L20 1L20 2L21 2L21 1L22 1L22 3L19 3L19 4L20 4L20 7L19 7L19 5L17 5L17 6L16 6L16 5L15 5L15 4L17 4L17 3L15 3L15 4L12 4L12 5L8 5L8 7L9 7L9 9L7 9L7 8L4 8L4 9L7 9L7 10L6 10L6 11L5 11L5 10L4 10L4 13L5 13L5 12L6 12L6 13L7 13L7 14L3 14L3 13L2 13L2 11L3 11L3 9L2 9L2 8L0 8L0 9L1 9L1 10L0 10L0 11L1 11L1 12L0 12L0 13L2 13L2 14L3 14L3 15L1 15L1 14L0 14L0 15L1 15L1 17L0 17L0 19L1 19L1 18L2 18L2 21L4 21L4 22L3 22L3 23L4 23L4 24L2 24L2 23L1 23L1 21L0 21L0 25L1 25L1 26L0 26L0 27L1 27L1 28L2 28L2 27L3 27L3 28L4 28L4 30L2 30L2 31L1 31L1 29L0 29L0 31L1 31L1 32L0 32L0 36L1 36L1 37L0 37L0 38L1 38L1 39L0 39L0 44L1 44L1 50L4 50L4 51L2 51L2 52L1 52L1 53L0 53L0 55L1 55L1 54L2 54L2 53L3 53L3 54L6 54L6 55L4 55L4 56L0 56L0 57L2 57L2 59L3 59L3 58L4 58L4 59L7 59L7 60L6 60L6 61L7 61L7 60L11 60L11 61L12 61L12 62L10 62L10 61L8 61L8 62L9 62L9 63L8 63L8 65L9 65L9 66L11 66L11 67L8 67L8 69L10 69L10 68L11 68L11 67L12 67L12 69L14 69L14 68L15 68L15 69L20 69L20 68L19 68L19 67L20 67L20 66L22 66L22 64L24 64L24 63L23 63L23 61L24 61L24 62L25 62L25 63L26 63L26 64L28 64L28 60L29 60L29 65L23 65L23 68L24 68L24 69L25 69L25 68L26 68L26 69L28 69L28 68L27 68L27 67L28 67L28 66L30 66L30 65L31 65L31 67L32 67L32 69L33 69L33 68L34 68L34 69L35 69L35 68L34 68L34 67L36 67L36 66L37 66L37 67L39 67L39 68L38 68L38 69L40 69L40 67L39 67L39 66L40 66L40 63L41 63L41 67L43 67L43 63L44 63L44 69L46 69L46 67L45 67L45 63L46 63L46 64L47 64L47 65L49 65L49 64L51 64L51 65L50 65L50 66L47 66L47 67L50 67L50 66L51 66L51 67L52 67L52 68L47 68L47 69L52 69L52 68L53 68L53 69L55 69L55 68L56 68L56 69L58 69L58 68L59 68L59 69L61 69L61 68L62 68L62 69L63 69L63 68L64 68L64 67L65 67L65 66L66 66L66 67L67 67L67 66L69 66L69 63L67 63L67 65L65 65L65 63L66 63L66 62L67 62L67 61L69 61L69 59L68 59L68 58L69 58L69 55L67 55L67 56L64 56L64 55L66 55L66 54L64 54L64 53L62 53L62 52L65 52L65 51L66 51L66 50L67 50L67 52L66 52L66 53L69 53L69 52L68 52L68 50L67 50L67 49L69 49L69 47L68 47L68 46L69 46L69 44L68 44L68 43L67 43L67 44L65 44L65 45L66 45L66 46L64 46L64 43L60 43L60 41L59 41L59 44L58 44L58 43L57 43L57 41L58 41L58 40L61 40L61 41L62 41L62 42L64 42L64 41L65 41L65 42L66 42L66 41L69 41L69 39L68 39L68 38L69 38L69 35L68 35L68 33L67 33L67 35L68 35L68 37L66 37L66 36L65 36L65 35L66 35L66 34L65 34L65 33L66 33L66 32L63 32L63 31L62 31L62 32L61 32L61 29L59 29L59 32L58 32L58 33L57 33L57 32L56 32L56 33L55 33L55 31L56 31L56 30L58 30L58 28L56 28L56 29L53 29L53 31L54 31L54 33L52 33L52 31L51 31L51 33L50 33L50 34L49 34L49 32L50 32L50 31L49 31L49 32L46 32L46 33L45 33L45 31L44 31L44 29L45 29L45 30L46 30L46 31L47 31L47 30L48 30L48 29L49 29L49 28L50 28L50 27L48 27L48 25L50 25L50 26L52 26L52 27L51 27L51 29L50 29L50 30L52 30L52 28L53 28L53 27L55 27L55 26L56 26L56 27L57 27L57 25L59 25L59 27L61 27L61 28L62 28L62 30L63 30L63 29L64 29L64 31L67 31L67 30L65 30L65 29L64 29L64 27L68 27L68 25L67 25L67 24L69 24L69 23L68 23L68 22L69 22L69 20L68 20L68 18L67 18L67 17L69 17L69 16L68 16L68 14L69 14L69 13L68 13L68 14L67 14L67 16L66 16L66 17L64 17L64 16L65 16L65 15L64 15L64 14L63 14L63 13L64 13L64 12L65 12L65 10L66 10L66 11L67 11L67 12L66 12L66 13L67 13L67 12L69 12L69 11L67 11L67 9L69 9L69 8L65 8L65 9L64 9L64 8L63 8L63 9L62 9L62 10L61 10L61 9L60 9L60 7L61 7L61 6L60 6L60 7L59 7L59 4L58 4L58 8L57 8L57 5L56 5L56 7L55 7L55 4L56 4L56 3L55 3L55 2L57 2L57 3L59 3L59 2L57 2L57 1L55 1L55 0L53 0L53 1L52 1L52 4L53 4L53 6L52 6L52 5L51 5L51 3L50 3L50 5L49 5L49 4L48 4L48 3L49 3L49 2L48 2L48 3L47 3L47 2L46 2L46 3L45 3L45 1L46 1L46 0L45 0L45 1L44 1L44 0L41 0L41 1L40 1L40 0L37 0L37 1L35 1L35 0L34 0L34 1L33 1L33 0L31 0L31 1L30 1L30 0L23 0L23 1L22 1L22 0ZM48 0L48 1L49 1L49 0ZM50 0L50 2L51 2L51 0ZM58 0L58 1L61 1L61 0ZM11 1L11 2L12 2L12 1ZM15 1L15 2L16 2L16 1ZM27 1L27 3L26 3L26 5L24 5L24 3L25 3L25 2L23 2L23 5L21 5L21 7L20 7L20 8L19 8L19 11L17 11L17 12L16 12L16 11L15 11L15 10L14 10L14 9L16 9L16 10L18 10L18 9L17 9L17 8L18 8L18 6L17 6L17 8L14 8L14 6L13 6L13 8L11 8L11 7L12 7L12 6L11 6L11 7L10 7L10 6L9 6L9 7L10 7L10 8L11 8L11 9L13 9L13 10L12 10L12 12L11 12L11 14L10 14L10 13L9 13L9 12L10 12L10 11L9 11L9 10L10 10L10 9L9 9L9 10L7 10L7 11L6 11L6 12L7 12L7 13L8 13L8 14L7 14L7 15L6 15L6 16L7 16L7 17L6 17L6 18L7 18L7 19L5 19L5 20L4 20L4 21L5 21L5 23L6 23L6 24L4 24L4 25L5 25L5 26L4 26L4 28L5 28L5 29L6 29L6 30L7 30L7 31L6 31L6 32L9 32L9 33L12 33L12 32L9 32L9 31L10 31L10 30L9 30L9 31L8 31L8 27L9 27L9 29L10 29L10 28L11 28L11 31L14 31L14 32L13 32L13 39L12 39L12 37L11 37L11 38L10 38L10 36L12 36L12 35L11 35L11 34L9 34L9 35L10 35L10 36L9 36L9 38L10 38L10 39L8 39L8 41L4 41L4 42L9 42L9 43L5 43L5 44L7 44L7 45L6 45L6 46L7 46L7 45L8 45L8 47L6 47L6 48L8 48L8 50L7 50L7 49L5 49L5 48L4 48L4 49L5 49L5 50L7 50L7 51L6 51L6 52L5 52L5 51L4 51L4 52L3 52L3 53L6 53L6 54L10 54L10 55L9 55L9 56L8 56L8 57L5 57L5 56L4 56L4 58L9 58L9 59L10 59L10 58L11 58L11 60L13 60L13 62L12 62L12 63L11 63L11 64L9 64L9 65L11 65L11 64L13 64L13 65L14 65L14 67L13 67L13 66L12 66L12 67L13 67L13 68L14 68L14 67L15 67L15 65L16 65L16 68L18 68L18 67L19 67L19 66L17 66L17 65L18 65L18 64L19 64L19 65L20 65L20 61L21 61L21 60L22 60L22 61L23 61L23 59L24 59L24 61L25 61L25 62L26 62L26 60L27 60L27 59L28 59L28 58L29 58L29 59L30 59L30 58L29 58L29 57L30 57L30 56L31 56L31 57L32 57L32 58L31 58L31 59L33 59L33 56L34 56L34 58L35 58L35 60L37 60L37 65L38 65L38 61L39 61L39 63L40 63L40 62L41 62L41 60L39 60L39 59L36 59L36 57L37 57L37 55L38 55L38 57L39 57L39 58L40 58L40 59L41 59L41 58L40 58L40 57L41 57L41 56L42 56L42 57L44 57L44 54L45 54L45 53L46 53L46 54L47 54L47 57L46 57L46 58L47 58L47 57L48 57L48 55L49 55L49 54L50 54L50 52L52 52L52 55L50 55L50 56L52 56L52 57L56 57L56 56L57 56L57 55L58 55L58 54L59 54L59 56L58 56L58 59L56 59L56 58L53 58L53 59L52 59L52 58L51 58L51 62L50 62L50 61L49 61L49 63L47 63L47 64L49 64L49 63L51 63L51 64L52 64L52 65L51 65L51 66L52 66L52 65L53 65L53 64L54 64L54 63L56 63L56 64L55 64L55 66L54 66L54 67L53 67L53 68L54 68L54 67L55 67L55 66L56 66L56 68L58 68L58 66L59 66L59 67L60 67L60 68L61 68L61 66L63 66L63 67L62 67L62 68L63 68L63 67L64 67L64 66L65 66L65 65L61 65L61 66L60 66L60 65L59 65L59 64L60 64L60 59L61 59L61 58L62 58L62 59L63 59L63 57L64 57L64 60L66 60L66 61L67 61L67 58L68 58L68 56L67 56L67 57L64 57L64 56L63 56L63 57L61 57L61 58L60 58L60 52L59 52L59 53L58 53L58 54L57 54L57 53L56 53L56 52L57 52L57 50L56 50L56 52L54 52L54 51L55 51L55 50L54 50L54 51L53 51L53 52L52 52L52 51L50 51L50 49L47 49L47 48L45 48L45 47L44 47L44 48L43 48L43 49L44 49L44 50L45 50L45 53L44 53L44 51L43 51L43 50L42 50L42 51L41 51L41 49L42 49L42 45L41 45L41 46L40 46L40 45L39 45L39 43L41 43L41 44L43 44L43 46L44 46L44 44L45 44L45 45L46 45L46 46L47 46L47 45L46 45L46 43L47 43L47 44L48 44L48 43L49 43L49 46L50 46L50 43L52 43L52 41L55 41L55 42L53 42L53 44L52 44L52 45L51 45L51 47L49 47L49 48L51 48L51 47L52 47L52 49L51 49L51 50L52 50L52 49L53 49L53 47L54 47L54 48L55 48L55 49L56 49L56 48L58 48L58 51L63 51L63 50L62 50L62 49L63 49L63 47L64 47L64 51L65 51L65 50L66 50L66 49L67 49L67 46L66 46L66 47L64 47L64 46L63 46L63 45L61 45L61 44L59 44L59 45L58 45L58 44L57 44L57 43L56 43L56 44L55 44L55 42L56 42L56 40L58 40L58 39L60 39L60 38L59 38L59 37L60 37L60 36L59 36L59 35L60 35L60 33L58 33L58 34L59 34L59 35L58 35L58 36L57 36L57 35L56 35L56 36L52 36L52 35L53 35L53 34L52 34L52 33L51 33L51 35L50 35L50 36L49 36L49 35L48 35L48 34L47 34L47 33L46 33L46 34L45 34L45 33L44 33L44 31L40 31L40 33L44 33L44 34L43 34L43 36L41 36L41 34L38 34L38 33L39 33L39 32L38 32L38 31L39 31L39 30L38 30L38 28L39 28L39 29L40 29L40 30L42 30L42 28L43 28L43 29L44 29L44 27L43 27L43 26L41 26L41 25L42 25L42 24L43 24L43 25L44 25L44 24L45 24L45 23L44 23L44 20L46 20L46 19L47 19L47 20L49 20L49 22L50 22L50 23L49 23L49 24L50 24L50 25L51 25L51 24L52 24L52 25L53 25L53 24L55 24L55 25L56 25L56 24L57 24L57 23L58 23L58 24L59 24L59 25L60 25L60 24L59 24L59 22L60 22L60 21L61 21L61 23L62 23L62 25L61 25L61 27L64 27L64 26L65 26L65 24L67 24L67 23L65 23L65 22L66 22L66 20L67 20L67 22L68 22L68 20L67 20L67 19L66 19L66 18L65 18L65 20L64 20L64 17L63 17L63 19L62 19L62 11L64 11L64 10L62 10L62 11L61 11L61 10L60 10L60 9L58 9L58 12L57 12L57 13L56 13L56 10L57 10L57 9L56 9L56 8L55 8L55 7L54 7L54 6L53 6L53 8L52 8L52 6L51 6L51 5L50 5L50 6L49 6L49 7L48 7L48 6L47 6L47 4L46 4L46 5L44 5L44 4L45 4L45 3L44 3L44 2L43 2L43 3L42 3L42 1L41 1L41 4L40 4L40 1L37 1L37 2L36 2L36 3L34 3L34 2L35 2L35 1L34 1L34 2L33 2L33 3L32 3L32 1L31 1L31 2L30 2L30 3L29 3L29 2L28 2L28 1ZM53 1L53 2L54 2L54 1ZM27 3L27 5L26 5L26 7L25 7L25 6L24 6L24 9L23 9L23 10L22 10L22 9L21 9L21 8L20 8L20 11L24 11L24 13L23 13L23 14L22 14L22 12L21 12L21 13L20 13L20 12L17 12L17 13L16 13L16 12L15 12L15 11L14 11L14 12L12 12L12 13L14 13L14 15L12 15L12 16L10 16L10 17L9 17L9 16L8 16L8 17L9 17L9 18L10 18L10 17L11 17L11 19L7 19L7 20L5 20L5 21L8 21L8 22L9 22L9 20L10 20L10 21L11 21L11 24L10 24L10 26L9 26L9 23L8 23L8 24L6 24L6 25L7 25L7 26L5 26L5 28L6 28L6 29L7 29L7 28L6 28L6 27L7 27L7 26L9 26L9 27L10 27L10 26L11 26L11 27L12 27L12 28L13 28L13 30L15 30L15 31L16 31L16 32L15 32L15 33L14 33L14 35L15 35L15 33L17 33L17 35L16 35L16 37L15 37L15 36L14 36L14 38L16 38L16 37L18 37L18 38L17 38L17 39L14 39L14 40L12 40L12 39L10 39L10 40L12 40L12 42L10 42L10 41L9 41L9 42L10 42L10 43L9 43L9 44L8 44L8 45L9 45L9 46L10 46L10 45L11 45L11 44L10 44L10 43L12 43L12 44L13 44L13 43L12 43L12 42L15 42L15 41L16 41L16 40L17 40L17 41L20 41L20 42L21 42L21 43L19 43L19 44L18 44L18 43L17 43L17 42L16 42L16 43L15 43L15 45L12 45L12 54L13 54L13 55L12 55L12 56L11 56L11 55L10 55L10 56L9 56L9 58L10 58L10 57L11 57L11 58L13 58L13 59L14 59L14 60L15 60L15 59L16 59L16 58L17 58L17 59L18 59L18 58L19 58L19 57L20 57L20 58L21 58L21 59L22 59L22 58L21 58L21 57L24 57L24 58L25 58L25 60L26 60L26 59L27 59L27 58L28 58L28 57L29 57L29 56L28 56L28 53L29 53L29 55L30 55L30 54L32 54L32 55L31 55L31 56L32 56L32 55L34 55L34 56L35 56L35 55L36 55L36 54L37 54L37 53L38 53L38 52L39 52L39 51L40 51L40 48L41 48L41 47L39 47L39 49L38 49L38 50L37 50L37 53L36 53L36 52L35 52L35 51L36 51L36 49L34 49L34 47L33 47L33 46L35 46L35 47L36 47L36 48L38 48L38 46L39 46L39 45L38 45L38 42L43 42L43 39L45 39L45 40L44 40L44 43L45 43L45 42L46 42L46 37L47 37L47 38L48 38L48 37L49 37L49 36L48 36L48 35L47 35L47 34L46 34L46 37L45 37L45 34L44 34L44 37L45 37L45 38L43 38L43 37L41 37L41 38L39 38L39 37L40 37L40 35L39 35L39 36L38 36L38 37L37 37L37 35L38 35L38 34L37 34L37 33L38 33L38 32L37 32L37 31L38 31L38 30L37 30L37 31L35 31L35 32L32 32L32 30L28 30L28 29L32 29L32 28L33 28L33 27L31 27L31 26L32 26L32 25L33 25L33 26L34 26L34 28L35 28L35 27L36 27L36 26L37 26L37 25L38 25L38 26L39 26L39 27L40 27L40 28L42 28L42 27L40 27L40 23L37 23L37 25L36 25L36 24L35 24L35 22L37 22L37 21L38 21L38 20L39 20L39 21L40 21L40 16L42 16L42 17L41 17L41 18L44 18L44 19L46 19L46 17L49 17L49 16L50 16L50 18L47 18L47 19L49 19L49 20L51 20L51 19L50 19L50 18L51 18L51 17L52 17L52 16L50 16L50 15L49 15L49 13L50 13L50 14L51 14L51 15L52 15L52 14L51 14L51 13L52 13L52 12L55 12L55 11L53 11L53 10L56 10L56 9L55 9L55 8L53 8L53 10L52 10L52 12L51 12L51 11L50 11L50 12L49 12L49 9L50 9L50 10L51 10L51 9L52 9L52 8L51 8L51 9L50 9L50 7L51 7L51 6L50 6L50 7L49 7L49 8L47 8L47 6L46 6L46 7L45 7L45 6L44 6L44 5L43 5L43 4L44 4L44 3L43 3L43 4L41 4L41 5L40 5L40 8L38 8L38 7L39 7L39 4L38 4L38 3L37 3L37 4L34 4L34 3L33 3L33 4L32 4L32 3L31 3L31 4L29 4L29 5L28 5L28 3ZM60 3L60 5L61 5L61 3ZM31 4L31 5L30 5L30 6L29 6L29 7L28 7L28 5L27 5L27 7L26 7L26 8L25 8L25 9L24 9L24 10L25 10L25 11L27 11L27 12L28 12L28 15L27 15L27 13L25 13L25 14L24 14L24 15L23 15L23 16L22 16L22 15L20 15L20 16L22 16L22 18L21 18L21 17L19 17L19 16L18 16L18 17L16 17L16 18L15 18L15 19L13 19L13 17L14 17L14 16L16 16L16 13L15 13L15 15L14 15L14 16L13 16L13 17L12 17L12 20L11 20L11 21L12 21L12 23L13 23L13 22L15 22L15 23L14 23L14 24L11 24L11 26L12 26L12 27L13 27L13 26L15 26L15 25L18 25L18 26L19 26L19 27L17 27L17 26L16 26L16 27L14 27L14 28L15 28L15 29L16 29L16 30L17 30L17 29L16 29L16 28L19 28L19 30L18 30L18 31L17 31L17 33L18 33L18 32L19 32L19 33L20 33L20 31L21 31L21 30L20 30L20 28L21 28L21 29L24 29L24 28L25 28L25 29L26 29L26 28L25 28L25 27L27 27L27 28L29 28L29 27L30 27L30 26L29 26L29 25L30 25L30 24L31 24L31 25L32 25L32 24L33 24L33 25L34 25L34 26L35 26L35 25L34 25L34 22L35 22L35 20L34 20L34 19L33 19L33 15L34 15L34 14L35 14L35 16L34 16L34 17L35 17L35 16L36 16L36 18L35 18L35 19L36 19L36 20L37 20L37 18L38 18L38 19L39 19L39 18L38 18L38 17L37 17L37 16L39 16L39 15L42 15L42 13L44 13L44 12L45 12L45 11L46 11L46 10L47 10L47 8L45 8L45 7L44 7L44 6L43 6L43 5L41 5L41 7L42 7L42 6L43 6L43 8L40 8L40 10L41 10L41 14L40 14L40 13L39 13L39 15L37 15L37 14L35 14L35 13L33 13L33 14L31 14L31 13L32 13L32 12L33 12L33 11L34 11L34 10L35 10L35 11L36 11L36 9L34 9L34 10L32 10L32 9L31 9L31 8L30 8L30 9L29 9L29 7L30 7L30 6L31 6L31 7L32 7L32 6L31 6L31 5L32 5L32 4ZM33 5L33 8L36 8L36 5ZM37 5L37 7L38 7L38 5ZM15 6L15 7L16 7L16 6ZM22 6L22 8L23 8L23 6ZM34 6L34 7L35 7L35 6ZM27 7L27 8L26 8L26 10L27 10L27 11L28 11L28 12L29 12L29 13L31 13L31 11L32 11L32 10L31 10L31 9L30 9L30 10L29 10L29 11L28 11L28 9L27 9L27 8L28 8L28 7ZM37 8L37 11L38 11L38 12L36 12L36 13L38 13L38 12L39 12L39 10L38 10L38 8ZM44 8L44 9L45 9L45 10L46 10L46 9L45 9L45 8ZM41 9L41 10L42 10L42 12L43 12L43 9ZM30 10L30 11L29 11L29 12L30 12L30 11L31 11L31 10ZM8 11L8 12L9 12L9 11ZM59 11L59 12L60 12L60 11ZM46 12L46 14L44 14L44 15L43 15L43 17L44 17L44 15L46 15L46 16L45 16L45 17L46 17L46 16L47 16L47 15L46 15L46 14L47 14L47 12ZM50 12L50 13L51 13L51 12ZM19 13L19 14L20 14L20 13ZM53 13L53 14L55 14L55 16L56 16L56 17L57 17L57 18L56 18L56 19L55 19L55 17L54 17L54 16L53 16L53 22L52 22L52 21L50 21L50 22L52 22L52 24L53 24L53 23L55 23L55 24L56 24L56 23L57 23L57 22L58 22L58 20L59 20L59 21L60 21L60 19L59 19L59 18L61 18L61 15L60 15L60 14L61 14L61 13L59 13L59 14L58 14L58 13L57 13L57 16L56 16L56 13ZM17 14L17 15L18 15L18 14ZM29 14L29 15L28 15L28 16L26 16L26 15L25 15L25 17L24 17L24 16L23 16L23 17L24 17L24 18L25 18L25 17L26 17L26 19L25 19L25 20L24 20L24 21L23 21L23 22L24 22L24 23L25 23L25 24L22 24L22 23L21 23L21 24L20 24L20 23L18 23L18 25L19 25L19 24L20 24L20 26L21 26L21 28L22 28L22 26L21 26L21 25L24 25L24 26L25 26L25 25L27 25L27 26L28 26L28 27L29 27L29 26L28 26L28 24L26 24L26 23L28 23L28 21L29 21L29 23L30 23L30 21L32 21L32 22L31 22L31 23L33 23L33 20L32 20L32 19L31 19L31 18L32 18L32 15L31 15L31 16L29 16L29 15L30 15L30 14ZM4 15L4 17L3 17L3 16L2 16L2 17L3 17L3 18L4 18L4 17L5 17L5 15ZM48 15L48 16L49 16L49 15ZM28 16L28 17L27 17L27 19L28 19L28 18L29 18L29 16ZM18 17L18 18L16 18L16 19L15 19L15 22L16 22L16 23L15 23L15 24L16 24L16 23L17 23L17 22L19 22L19 21L20 21L20 22L21 22L21 21L22 21L22 20L23 20L23 18L22 18L22 20L21 20L21 18L20 18L20 19L19 19L19 17ZM58 17L58 18L59 18L59 17ZM16 19L16 21L17 21L17 19ZM18 19L18 20L19 20L19 19ZM29 19L29 21L30 21L30 20L31 20L31 19ZM41 19L41 23L43 23L43 21L42 21L42 19ZM56 19L56 20L55 20L55 23L56 23L56 20L58 20L58 19ZM12 20L12 21L13 21L13 20ZM25 20L25 23L26 23L26 22L27 22L27 21L26 21L26 20ZM61 20L61 21L62 21L62 23L63 23L63 25L62 25L62 26L63 26L63 25L64 25L64 24L65 24L65 23L64 23L64 20L63 20L63 21L62 21L62 20ZM46 21L46 22L48 22L48 21ZM6 22L6 23L7 23L7 22ZM47 23L47 25L46 25L46 26L47 26L47 25L48 25L48 23ZM50 23L50 24L51 24L51 23ZM38 24L38 25L39 25L39 24ZM12 25L12 26L13 26L13 25ZM19 27L19 28L20 28L20 27ZM23 27L23 28L24 28L24 27ZM36 28L36 29L37 29L37 28ZM45 28L45 29L46 29L46 30L47 30L47 29L46 29L46 28ZM67 28L67 29L69 29L69 28ZM33 29L33 31L34 31L34 30L35 30L35 29ZM4 30L4 31L2 31L2 32L3 32L3 33L2 33L2 34L4 34L4 31L5 31L5 30ZM19 30L19 31L20 31L20 30ZM22 30L22 31L23 31L23 32L22 32L22 33L21 33L21 34L20 34L20 35L19 35L19 34L18 34L18 35L17 35L17 36L21 36L21 35L22 35L22 37L21 37L21 38L22 38L22 37L23 37L23 33L24 33L24 30ZM25 31L25 33L29 33L29 32L31 32L31 33L32 33L32 32L31 32L31 31L29 31L29 32L26 32L26 31ZM68 31L68 32L69 32L69 31ZM5 33L5 36L8 36L8 33ZM33 33L33 36L36 36L36 33ZM56 33L56 34L57 34L57 33ZM61 33L61 36L64 36L64 33ZM6 34L6 35L7 35L7 34ZM24 34L24 35L25 35L25 36L24 36L24 37L26 37L26 38L25 38L25 39L28 39L28 40L27 40L27 41L28 41L28 42L27 42L27 43L26 43L26 44L25 44L25 45L26 45L26 46L23 46L23 45L24 45L24 43L23 43L23 44L22 44L22 45L21 45L21 44L20 44L20 45L19 45L19 48L18 48L18 49L16 49L16 48L17 48L17 47L18 47L18 45L17 45L17 44L16 44L16 47L14 47L14 46L13 46L13 48L14 48L14 49L13 49L13 51L14 51L14 50L15 50L15 49L16 49L16 51L15 51L15 52L16 52L16 54L17 54L17 56L16 56L16 55L14 55L14 56L12 56L12 57L13 57L13 58L15 58L15 57L17 57L17 56L20 56L20 57L21 57L21 56L20 56L20 55L22 55L22 56L25 56L25 58L27 58L27 57L28 57L28 56L27 56L27 57L26 57L26 55L25 55L25 54L26 54L26 51L25 51L25 50L26 50L26 49L25 49L25 50L22 50L22 53L21 53L21 54L20 54L20 53L19 53L19 55L18 55L18 53L17 53L17 52L19 52L19 51L20 51L20 50L21 50L21 49L23 49L23 48L25 48L25 47L26 47L26 48L28 48L28 49L27 49L27 51L28 51L28 50L29 50L29 52L31 52L31 51L32 51L32 54L33 54L33 53L34 53L34 54L36 54L36 53L35 53L35 52L34 52L34 51L32 51L32 50L33 50L33 47L32 47L32 46L30 46L30 45L28 45L28 46L27 46L27 45L26 45L26 44L27 44L27 43L30 43L30 44L32 44L32 45L33 45L33 44L32 44L32 43L34 43L34 45L35 45L35 46L36 46L36 47L37 47L37 46L38 46L38 45L36 45L36 44L37 44L37 42L38 42L38 41L36 41L36 40L37 40L37 39L34 39L34 41L33 41L33 39L32 39L32 38L35 38L35 37L32 37L32 36L31 36L31 35L32 35L32 34L30 34L30 35L29 35L29 34L28 34L28 35L26 35L26 34ZM34 34L34 35L35 35L35 34ZM62 34L62 35L63 35L63 34ZM2 36L2 37L1 37L1 38L3 38L3 36ZM26 36L26 37L27 37L27 38L28 38L28 37L27 37L27 36ZM29 36L29 37L30 37L30 39L29 39L29 40L28 40L28 41L30 41L30 42L32 42L32 40L31 40L31 38L32 38L32 37L31 37L31 36ZM51 36L51 37L50 37L50 38L49 38L49 39L47 39L47 41L49 41L49 40L50 40L50 38L51 38L51 37L52 37L52 36ZM56 36L56 39L58 39L58 37L57 37L57 36ZM5 37L5 38L7 38L7 37ZM19 37L19 38L18 38L18 39L17 39L17 40L19 40L19 38L20 38L20 37ZM36 37L36 38L37 38L37 37ZM53 37L53 38L52 38L52 40L51 40L51 41L50 41L50 42L49 42L49 43L50 43L50 42L51 42L51 41L52 41L52 40L53 40L53 39L54 39L54 40L55 40L55 39L54 39L54 38L55 38L55 37ZM62 37L62 39L61 39L61 40L62 40L62 39L64 39L64 40L65 40L65 41L66 41L66 40L68 40L68 39L67 39L67 38L66 38L66 39L64 39L64 38L65 38L65 37ZM23 38L23 40L22 40L22 39L21 39L21 40L20 40L20 41L22 41L22 42L23 42L23 41L24 41L24 42L25 42L25 41L26 41L26 40L25 40L25 41L24 41L24 38ZM38 38L38 39L39 39L39 38ZM41 38L41 39L40 39L40 41L41 41L41 39L43 39L43 38ZM1 39L1 41L2 41L2 42L1 42L1 43L2 43L2 42L3 42L3 41L2 41L2 40L3 40L3 39ZM4 39L4 40L7 40L7 39ZM30 40L30 41L31 41L31 40ZM34 41L34 42L35 42L35 43L36 43L36 42L35 42L35 41ZM47 42L47 43L48 43L48 42ZM3 43L3 44L4 44L4 43ZM54 44L54 45L52 45L52 47L53 47L53 46L55 46L55 47L58 47L58 48L59 48L59 47L60 47L60 49L59 49L59 50L60 50L60 49L62 49L62 48L61 48L61 47L62 47L62 46L61 46L61 45L60 45L60 46L58 46L58 45L57 45L57 44L56 44L56 46L55 46L55 44ZM2 45L2 46L3 46L3 47L4 47L4 46L3 46L3 45ZM20 45L20 46L21 46L21 47L20 47L20 48L19 48L19 49L18 49L18 51L19 51L19 49L21 49L21 47L22 47L22 48L23 48L23 47L22 47L22 46L21 46L21 45ZM28 46L28 48L29 48L29 49L30 49L30 51L31 51L31 49L32 49L32 48L31 48L31 47L30 47L30 48L29 48L29 46ZM9 47L9 48L10 48L10 49L9 49L9 50L10 50L10 51L9 51L9 53L10 53L10 54L11 54L11 53L10 53L10 52L11 52L11 50L10 50L10 49L11 49L11 47ZM44 48L44 49L45 49L45 50L46 50L46 51L49 51L49 52L46 52L46 53L48 53L48 54L49 54L49 52L50 52L50 51L49 51L49 50L46 50L46 49L45 49L45 48ZM38 50L38 51L39 51L39 50ZM7 51L7 52L6 52L6 53L8 53L8 51ZM16 51L16 52L17 52L17 51ZM23 51L23 52L24 52L24 51ZM13 52L13 54L15 54L15 53L14 53L14 52ZM27 52L27 53L28 53L28 52ZM23 53L23 54L25 54L25 53ZM39 53L39 57L40 57L40 55L41 55L41 53ZM42 53L42 55L43 55L43 54L44 54L44 53ZM53 53L53 55L52 55L52 56L54 56L54 55L55 55L55 54L56 54L56 53ZM62 54L62 55L61 55L61 56L62 56L62 55L64 55L64 54ZM6 55L6 56L7 56L7 55ZM14 56L14 57L15 57L15 56ZM49 57L49 58L48 58L48 59L49 59L49 60L50 60L50 59L49 59L49 58L50 58L50 57ZM0 58L0 61L1 61L1 58ZM42 58L42 61L43 61L43 62L42 62L42 63L43 63L43 62L44 62L44 63L45 63L45 61L46 61L46 62L47 62L47 61L46 61L46 60L47 60L47 59L45 59L45 58ZM59 58L59 59L58 59L58 60L56 60L56 61L58 61L58 60L59 60L59 59L60 59L60 58ZM19 59L19 60L17 60L17 62L16 62L16 61L14 61L14 62L16 62L16 63L14 63L14 64L16 64L16 63L18 63L18 61L20 61L20 59ZM3 60L3 61L5 61L5 60ZM44 60L44 61L45 61L45 60ZM53 60L53 61L52 61L52 62L51 62L51 63L52 63L52 64L53 64L53 63L52 63L52 62L55 62L55 60ZM33 61L33 64L36 64L36 61ZM61 61L61 64L64 64L64 61ZM31 62L31 63L32 63L32 62ZM34 62L34 63L35 63L35 62ZM62 62L62 63L63 63L63 62ZM57 63L57 64L56 64L56 66L58 66L58 65L57 65L57 64L58 64L58 63ZM31 64L31 65L32 65L32 66L33 66L33 65L32 65L32 64ZM34 65L34 66L36 66L36 65ZM25 66L25 67L24 67L24 68L25 68L25 67L27 67L27 66ZM21 67L21 69L22 69L22 67ZM29 67L29 69L31 69L31 68L30 68L30 67ZM36 68L36 69L37 69L37 68ZM42 68L42 69L43 69L43 68ZM65 68L65 69L67 69L67 68ZM68 68L68 69L69 69L69 68ZM0 0L0 7L7 7L7 0ZM1 1L1 6L6 6L6 1ZM2 2L2 5L5 5L5 2ZM62 0L62 7L69 7L69 0ZM63 1L63 6L68 6L68 1ZM64 2L64 5L67 5L67 2ZM0 62L0 69L7 69L7 62ZM1 63L1 68L6 68L6 63ZM2 64L2 67L5 67L5 64Z" fill="#000000"/></g></g></svg>
