<?xml version="1.0" encoding="UTF-8"?>
<svg xmlns="http://www.w3.org/2000/svg" version="1.1" width="300" height="300" viewBox="0 0 300 300"><rect x="0" y="0" width="300" height="300" fill="#ffffff"/><g transform="scale(4.615)"><g transform="translate(0,0)"><path fill-rule="evenodd" d="M8 0L8 1L9 1L9 2L8 2L8 5L12 5L12 4L14 4L14 5L13 5L13 6L12 6L12 7L13 7L13 6L14 6L14 7L15 7L15 6L16 6L16 7L17 7L17 8L15 8L15 9L14 9L14 11L13 11L13 10L12 10L12 9L11 9L11 10L12 10L12 11L10 11L10 10L9 10L9 8L11 8L11 6L10 6L10 7L9 7L9 6L8 6L8 7L9 7L9 8L8 8L8 11L7 11L7 10L5 10L5 11L4 11L4 12L3 12L3 10L2 10L2 9L4 9L4 8L0 8L0 9L1 9L1 10L0 10L0 14L1 14L1 15L2 15L2 17L1 17L1 18L2 18L2 19L3 19L3 21L2 21L2 20L1 20L1 19L0 19L0 21L2 21L2 22L0 22L0 24L1 24L1 25L2 25L2 23L3 23L3 24L4 24L4 23L5 23L5 24L6 24L6 25L5 25L5 26L3 26L3 27L4 27L4 28L3 28L3 29L2 29L2 30L1 30L1 28L0 28L0 30L1 30L1 31L2 31L2 32L1 32L1 33L2 33L2 34L0 34L0 36L2 36L2 39L1 39L1 38L0 38L0 39L1 39L1 40L2 40L2 41L1 41L1 42L2 42L2 43L0 43L0 45L1 45L1 46L2 46L2 47L3 47L3 46L4 46L4 45L3 45L3 44L5 44L5 40L6 40L6 41L7 41L7 40L10 40L10 41L9 41L9 42L12 42L12 41L11 41L11 38L12 38L12 36L11 36L11 35L12 35L12 34L14 34L14 33L17 33L17 34L15 34L15 39L12 39L12 40L13 40L13 43L14 43L14 44L15 44L15 43L17 43L17 42L18 42L18 41L17 41L17 40L16 40L16 39L17 39L17 38L16 38L16 37L17 37L17 36L18 36L18 37L19 37L19 39L18 39L18 40L19 40L19 41L21 41L21 42L22 42L22 43L23 43L23 44L21 44L21 45L20 45L20 44L19 44L19 46L18 46L18 44L16 44L16 47L14 47L14 46L15 46L15 45L14 45L14 46L13 46L13 44L12 44L12 45L11 45L11 44L9 44L9 43L8 43L8 42L6 42L6 43L8 43L8 44L6 44L6 45L8 45L8 44L9 44L9 45L10 45L10 46L5 46L5 47L7 47L7 48L6 48L6 49L4 49L4 50L5 50L5 51L4 51L4 52L2 52L2 53L0 53L0 54L2 54L2 55L3 55L3 56L1 56L1 55L0 55L0 56L1 56L1 57L3 57L3 56L4 56L4 57L5 57L5 56L4 56L4 54L5 54L5 55L7 55L7 56L6 56L6 57L7 57L7 56L8 56L8 58L9 58L9 57L10 57L10 59L9 59L9 60L10 60L10 61L8 61L8 65L9 65L9 62L10 62L10 65L11 65L11 62L10 62L10 61L12 61L12 62L13 62L13 64L15 64L15 65L17 65L17 64L19 64L19 63L17 63L17 62L15 62L15 60L17 60L17 61L20 61L20 62L23 62L23 63L21 63L21 65L22 65L22 64L23 64L23 63L24 63L24 65L30 65L30 64L31 64L31 65L33 65L33 64L31 64L31 63L30 63L30 61L34 61L34 62L33 62L33 63L35 63L35 64L34 64L34 65L35 65L35 64L36 64L36 63L37 63L37 62L40 62L40 63L38 63L38 64L37 64L37 65L40 65L40 64L41 64L41 65L45 65L45 64L44 64L44 62L43 62L43 64L41 64L41 61L38 61L38 60L39 60L39 59L40 59L40 60L42 60L42 59L43 59L43 61L44 61L44 60L45 60L45 59L46 59L46 60L47 60L47 61L48 61L48 62L47 62L47 63L48 63L48 64L49 64L49 63L48 63L48 62L51 62L51 63L52 63L52 62L53 62L53 61L52 61L52 62L51 62L51 59L52 59L52 60L53 60L53 59L54 59L54 58L55 58L55 57L56 57L56 60L55 60L55 62L54 62L54 63L53 63L53 65L54 65L54 64L56 64L56 65L57 65L57 64L56 64L56 63L55 63L55 62L56 62L56 61L57 61L57 62L58 62L58 63L60 63L60 64L61 64L61 65L64 65L64 63L65 63L65 62L64 62L64 63L63 63L63 62L61 62L61 59L64 59L64 55L62 55L62 53L61 53L61 56L59 56L59 55L60 55L60 53L59 53L59 51L60 51L60 52L62 52L62 50L63 50L63 54L64 54L64 51L65 51L65 49L64 49L64 48L65 48L65 47L64 47L64 46L63 46L63 42L65 42L65 40L64 40L64 39L65 39L65 36L64 36L64 34L63 34L63 33L65 33L65 31L64 31L64 32L63 32L63 31L61 31L61 30L60 30L60 29L58 29L58 28L62 28L62 26L63 26L63 28L65 28L65 26L64 26L64 25L62 25L62 24L61 24L61 22L62 22L62 23L63 23L63 24L65 24L65 23L64 23L64 22L65 22L65 21L63 21L63 22L62 22L62 20L63 20L63 19L62 19L62 18L63 18L63 17L64 17L64 16L63 16L63 17L61 17L61 18L59 18L59 15L60 15L60 14L61 14L61 16L62 16L62 15L65 15L65 13L63 13L63 12L65 12L65 11L64 11L64 9L65 9L65 8L64 8L64 9L63 9L63 8L60 8L60 10L62 10L62 11L55 11L55 10L56 10L56 8L55 8L55 5L54 5L54 8L53 8L53 4L56 4L56 5L57 5L57 4L56 4L56 3L57 3L57 1L56 1L56 0L55 0L55 1L56 1L56 3L55 3L55 2L54 2L54 0L51 0L51 1L50 1L50 0L48 0L48 1L50 1L50 2L49 2L49 3L48 3L48 2L45 2L45 1L43 1L43 0L39 0L39 1L40 1L40 3L41 3L41 2L42 2L42 4L43 4L43 5L42 5L42 7L43 7L43 8L39 8L39 9L41 9L41 13L44 13L44 14L46 14L46 12L47 12L47 13L49 13L49 15L48 15L48 16L51 16L51 18L50 18L50 19L49 19L49 22L46 22L46 21L48 21L48 20L46 20L46 19L48 19L48 18L49 18L49 17L47 17L47 16L46 16L46 17L45 17L45 16L44 16L44 15L42 15L42 14L41 14L41 15L38 15L38 14L40 14L40 13L39 13L39 12L38 12L38 11L40 11L40 10L38 10L38 8L37 8L37 10L36 10L36 8L35 8L35 6L36 6L36 7L37 7L37 5L39 5L39 6L38 6L38 7L39 7L39 6L40 6L40 7L41 7L41 6L40 6L40 5L39 5L39 2L38 2L38 4L37 4L37 2L36 2L36 3L33 3L33 4L32 4L32 2L33 2L33 1L32 1L32 0L29 0L29 1L27 1L27 0L22 0L22 1L24 1L24 4L25 4L25 5L24 5L24 7L23 7L23 6L22 6L22 7L23 7L23 8L19 8L19 6L20 6L20 7L21 7L21 5L22 5L22 3L23 3L23 2L21 2L21 1L20 1L20 0L19 0L19 3L18 3L18 0L17 0L17 2L16 2L16 1L15 1L15 0L14 0L14 1L15 1L15 2L14 2L14 3L11 3L11 0ZM35 0L35 1L36 1L36 0ZM37 0L37 1L38 1L38 0ZM12 1L12 2L13 2L13 1ZM25 1L25 4L27 4L27 5L25 5L25 7L26 7L26 6L27 6L27 8L23 8L23 9L20 9L20 10L19 10L19 8L18 8L18 9L16 9L16 10L17 10L17 11L14 11L14 14L15 14L15 15L14 15L14 17L13 17L13 16L12 16L12 18L16 18L16 16L17 16L17 18L18 18L18 19L19 19L19 18L21 18L21 20L20 20L20 22L18 22L18 21L17 21L17 22L18 22L18 24L17 24L17 23L16 23L16 19L14 19L14 21L12 21L12 22L13 22L13 24L12 24L12 23L11 23L11 21L9 21L9 20L10 20L10 18L11 18L11 17L10 17L10 16L9 16L9 15L10 15L10 14L11 14L11 13L10 13L10 11L8 11L8 12L7 12L7 11L6 11L6 12L5 12L5 13L6 13L6 14L7 14L7 15L6 15L6 16L7 16L7 17L4 17L4 16L5 16L5 14L4 14L4 13L3 13L3 14L4 14L4 15L3 15L3 17L2 17L2 18L3 18L3 19L4 19L4 18L7 18L7 19L5 19L5 20L8 20L8 21L3 21L3 23L4 23L4 22L7 22L7 23L6 23L6 24L7 24L7 25L6 25L6 26L5 26L5 27L6 27L6 28L4 28L4 29L3 29L3 30L2 30L2 31L3 31L3 32L4 32L4 29L6 29L6 30L7 30L7 29L8 29L8 30L10 30L10 29L11 29L11 31L12 31L12 27L13 27L13 26L12 26L12 25L14 25L14 26L15 26L15 28L16 28L16 29L14 29L14 30L15 30L15 31L13 31L13 32L10 32L10 31L9 31L9 32L10 32L10 34L9 34L9 35L8 35L8 38L9 38L9 39L10 39L10 38L11 38L11 37L10 37L10 35L11 35L11 33L13 33L13 32L18 32L18 36L19 36L19 37L20 37L20 36L19 36L19 35L23 35L23 34L21 34L21 32L20 32L20 31L22 31L22 32L23 32L23 31L22 31L22 30L28 30L28 32L25 32L25 31L24 31L24 32L25 32L25 33L26 33L26 34L25 34L25 36L22 36L22 38L20 38L20 40L21 40L21 39L23 39L23 40L22 40L22 41L24 41L24 42L23 42L23 43L25 43L25 44L23 44L23 45L24 45L24 46L30 46L30 45L31 45L31 44L33 44L33 45L32 45L32 46L31 46L31 47L29 47L29 48L28 48L28 47L26 47L26 49L28 49L28 52L26 52L26 50L25 50L25 49L24 49L24 48L20 48L20 47L21 47L21 46L19 46L19 48L20 48L20 49L21 49L21 50L22 50L22 51L23 51L23 53L24 53L24 54L23 54L23 55L22 55L22 56L24 56L24 57L26 57L26 58L27 58L27 60L26 60L26 64L29 64L29 63L27 63L27 62L29 62L29 61L28 61L28 58L29 58L29 57L27 57L27 53L29 53L29 55L28 55L28 56L29 56L29 55L30 55L30 56L32 56L32 55L31 55L31 54L33 54L33 56L35 56L35 54L33 54L33 52L31 52L31 53L30 53L30 52L29 52L29 49L30 49L30 51L32 51L32 50L31 50L31 49L30 49L30 48L31 48L31 47L33 47L33 48L32 48L32 49L33 49L33 48L34 48L34 50L36 50L36 51L35 51L35 53L37 53L37 55L36 55L36 57L35 57L35 59L36 59L36 60L37 60L37 59L39 59L39 57L38 57L38 58L37 58L37 56L38 56L38 55L39 55L39 56L41 56L41 52L42 52L42 54L43 54L43 55L42 55L42 56L43 56L43 59L44 59L44 57L45 57L45 56L46 56L46 58L47 58L47 60L48 60L48 59L49 59L49 61L50 61L50 59L49 59L49 58L47 58L47 55L48 55L48 57L50 57L50 58L52 58L52 59L53 59L53 58L52 58L52 57L51 57L51 56L50 56L50 55L52 55L52 56L54 56L54 57L55 57L55 56L58 56L58 55L59 55L59 54L58 54L58 52L55 52L55 53L54 53L54 54L53 54L53 55L52 55L52 53L53 53L53 52L54 52L54 51L55 51L55 49L57 49L57 48L58 48L58 47L59 47L59 45L60 45L60 44L59 44L59 45L58 45L58 47L57 47L57 46L55 46L55 47L57 47L57 48L54 48L54 47L53 47L53 46L52 46L52 47L51 47L51 48L50 48L50 49L48 49L48 48L47 48L47 46L48 46L48 45L49 45L49 44L48 44L48 45L45 45L45 44L46 44L46 43L47 43L47 42L48 42L48 43L50 43L50 42L53 42L53 43L54 43L54 45L55 45L55 44L58 44L58 43L59 43L59 39L61 39L61 38L63 38L63 39L62 39L62 41L64 41L64 40L63 40L63 39L64 39L64 38L63 38L63 37L61 37L61 36L63 36L63 34L62 34L62 33L61 33L61 35L57 35L57 36L59 36L59 37L58 37L58 38L59 38L59 39L57 39L57 43L54 43L54 42L56 42L56 39L54 39L54 38L55 38L55 37L56 37L56 38L57 38L57 37L56 37L56 36L55 36L55 37L53 37L53 36L54 36L54 35L55 35L55 34L56 34L56 33L55 33L55 32L54 32L54 33L55 33L55 34L53 34L53 33L52 33L52 34L51 34L51 32L53 32L53 28L52 28L52 29L51 29L51 26L53 26L53 27L54 27L54 26L55 26L55 25L56 25L56 24L57 24L57 23L58 23L58 24L59 24L59 25L58 25L58 26L59 26L59 27L60 27L60 24L59 24L59 23L58 23L58 22L59 22L59 21L61 21L61 20L60 20L60 19L59 19L59 18L57 18L57 15L58 15L58 14L59 14L59 13L60 13L60 12L59 12L59 13L58 13L58 14L55 14L55 13L53 13L53 11L54 11L54 12L55 12L55 11L54 11L54 10L53 10L53 11L52 11L52 10L51 10L51 9L50 9L50 10L51 10L51 11L49 11L49 7L50 7L50 8L52 8L52 5L51 5L51 7L50 7L50 6L49 6L49 5L48 5L48 6L47 6L47 4L46 4L46 3L45 3L45 2L43 2L43 3L44 3L44 4L46 4L46 6L45 6L45 5L44 5L44 6L43 6L43 7L44 7L44 6L45 6L45 8L43 8L43 10L48 10L48 12L49 12L49 13L51 13L51 11L52 11L52 13L53 13L53 16L52 16L52 17L53 17L53 16L55 16L55 17L54 17L54 18L53 18L53 21L56 21L56 22L53 22L53 23L54 23L54 24L51 24L51 23L50 23L50 22L51 22L51 20L52 20L52 18L51 18L51 20L50 20L50 22L49 22L49 23L50 23L50 24L49 24L49 25L50 25L50 24L51 24L51 26L49 26L49 27L46 27L46 26L47 26L47 24L48 24L48 23L47 23L47 24L46 24L46 23L45 23L45 22L43 22L43 23L45 23L45 24L44 24L44 25L42 25L42 24L41 24L41 23L42 23L42 21L38 21L38 22L37 22L37 23L34 23L34 22L35 22L35 18L37 18L37 19L36 19L36 21L37 21L37 20L41 20L41 19L38 19L38 18L39 18L39 17L38 17L38 16L36 16L36 14L37 14L37 13L35 13L35 12L36 12L36 10L35 10L35 9L32 9L32 10L31 10L31 11L30 11L30 10L29 10L29 9L27 9L27 8L28 8L28 5L29 5L29 4L28 4L28 3L29 3L29 2L30 2L30 4L31 4L31 2L32 2L32 1L29 1L29 2L26 2L26 1ZM51 1L51 2L50 2L50 4L53 4L53 3L54 3L54 2L53 2L53 3L51 3L51 2L52 2L52 1ZM15 2L15 3L14 3L14 4L15 4L15 5L14 5L14 6L15 6L15 5L16 5L16 6L17 6L17 7L18 7L18 5L19 5L19 4L21 4L21 3L19 3L19 4L18 4L18 3L17 3L17 5L16 5L16 4L15 4L15 3L16 3L16 2ZM9 3L9 4L10 4L10 3ZM35 4L35 5L36 5L36 4ZM31 5L31 8L34 8L34 5ZM29 6L29 7L30 7L30 6ZM32 6L32 7L33 7L33 6ZM46 6L46 9L48 9L48 8L47 8L47 6ZM48 6L48 7L49 7L49 6ZM56 6L56 7L57 7L57 6ZM6 8L6 9L7 9L7 8ZM54 8L54 9L55 9L55 8ZM57 8L57 9L58 9L58 8ZM23 9L23 10L22 10L22 11L21 11L21 10L20 10L20 11L21 11L21 12L22 12L22 11L24 11L24 10L25 10L25 11L27 11L27 10L26 10L26 9ZM62 9L62 10L63 10L63 9ZM18 10L18 12L17 12L17 13L16 13L16 12L15 12L15 13L16 13L16 15L15 15L15 16L16 16L16 15L17 15L17 13L19 13L19 14L18 14L18 16L19 16L19 17L22 17L22 20L21 20L21 23L20 23L20 24L18 24L18 26L21 26L21 23L22 23L22 20L23 20L23 25L22 25L22 28L20 28L20 27L19 27L19 29L18 29L18 30L17 30L17 29L16 29L16 30L17 30L17 31L18 31L18 30L19 30L19 31L20 31L20 29L22 29L22 28L25 28L25 29L27 29L27 27L30 27L30 29L28 29L28 30L29 30L29 32L30 32L30 36L28 36L28 37L29 37L29 38L30 38L30 39L28 39L28 40L27 40L27 37L25 37L25 38L24 38L24 40L25 40L25 42L26 42L26 44L27 44L27 43L29 43L29 44L28 44L28 45L30 45L30 44L31 44L31 43L29 43L29 41L28 41L28 40L30 40L30 41L31 41L31 40L32 40L32 41L35 41L35 39L36 39L36 40L37 40L37 41L36 41L36 42L35 42L35 45L36 45L36 44L37 44L37 47L36 47L36 48L35 48L35 49L36 49L36 50L37 50L37 51L36 51L36 52L37 52L37 51L39 51L39 53L40 53L40 51L39 51L39 50L41 50L41 49L38 49L38 48L40 48L40 47L41 47L41 48L43 48L43 49L44 49L44 48L46 48L46 46L45 46L45 45L44 45L44 43L45 43L45 42L47 42L47 41L45 41L45 39L46 39L46 40L47 40L47 39L48 39L48 37L49 37L49 40L50 40L50 41L52 41L52 39L53 39L53 40L54 40L54 39L53 39L53 37L52 37L52 39L51 39L51 40L50 40L50 38L51 38L51 37L49 37L49 36L51 36L51 34L50 34L50 30L49 30L49 29L48 29L48 30L47 30L47 29L45 29L45 28L44 28L44 26L46 26L46 24L45 24L45 25L44 25L44 26L43 26L43 28L41 28L41 31L42 31L42 29L45 29L45 30L47 30L47 31L46 31L46 33L48 33L48 34L49 34L49 36L48 36L48 35L46 35L46 37L45 37L45 39L44 39L44 38L43 38L43 39L42 39L42 38L40 38L40 37L37 37L37 36L39 36L39 34L38 34L38 33L41 33L41 34L40 34L40 35L42 35L42 36L41 36L41 37L44 37L44 35L42 35L42 34L45 34L45 33L41 33L41 32L40 32L40 25L38 25L38 23L37 23L37 24L34 24L34 23L32 23L32 22L33 22L33 21L32 21L32 22L31 22L31 21L29 21L29 22L26 22L26 23L24 23L24 22L25 22L25 21L24 21L24 20L25 20L25 19L28 19L28 20L29 20L29 19L30 19L30 17L31 17L31 18L33 18L33 20L34 20L34 18L35 18L35 17L34 17L34 16L35 16L35 14L34 14L34 12L33 12L33 11L32 11L32 12L30 12L30 11L29 11L29 10L28 10L28 11L29 11L29 12L30 12L30 13L28 13L28 12L27 12L27 13L26 13L26 12L24 12L24 15L21 15L21 14L20 14L20 13L19 13L19 10ZM34 10L34 11L35 11L35 10ZM12 11L12 12L13 12L13 11ZM42 11L42 12L43 12L43 11ZM44 11L44 13L45 13L45 11ZM62 11L62 12L63 12L63 11ZM6 12L6 13L7 13L7 14L8 14L8 15L7 15L7 16L8 16L8 17L9 17L9 16L8 16L8 15L9 15L9 14L10 14L10 13L9 13L9 12L8 12L8 13L7 13L7 12ZM32 12L32 13L33 13L33 12ZM56 12L56 13L57 13L57 12ZM1 13L1 14L2 14L2 13ZM12 13L12 15L13 15L13 13ZM22 13L22 14L23 14L23 13ZM61 13L61 14L63 14L63 13ZM25 14L25 15L24 15L24 16L25 16L25 15L27 15L27 17L26 17L26 18L27 18L27 17L28 17L28 15L29 15L29 14ZM30 14L30 15L32 15L32 16L33 16L33 15L34 15L34 14ZM50 14L50 15L52 15L52 14ZM22 16L22 17L23 17L23 16ZM40 16L40 17L41 17L41 18L42 18L42 20L43 20L43 21L46 21L46 20L45 20L45 19L43 19L43 17L42 17L42 16ZM3 17L3 18L4 18L4 17ZM24 17L24 18L23 18L23 19L25 19L25 17ZM8 18L8 19L9 19L9 18ZM56 18L56 21L59 21L59 20L57 20L57 18ZM11 19L11 20L12 20L12 19ZM54 19L54 20L55 20L55 19ZM64 19L64 20L65 20L65 19ZM26 20L26 21L27 21L27 20ZM8 21L8 22L9 22L9 21ZM14 21L14 22L15 22L15 21ZM30 22L30 24L28 24L28 23L27 23L27 24L26 24L26 25L25 25L25 24L24 24L24 25L23 25L23 26L26 26L26 27L25 27L25 28L26 28L26 27L27 27L27 24L28 24L28 26L30 26L30 27L31 27L31 28L33 28L33 30L34 30L34 28L35 28L35 30L36 30L36 31L37 31L37 32L36 32L36 33L38 33L38 32L39 32L39 31L37 31L37 30L39 30L39 28L38 28L38 26L35 26L35 25L34 25L34 24L32 24L32 26L30 26L30 25L31 25L31 22ZM40 22L40 23L41 23L41 22ZM56 22L56 23L57 23L57 22ZM10 23L10 25L9 25L9 26L8 26L8 27L7 27L7 26L6 26L6 27L7 27L7 28L6 28L6 29L7 29L7 28L9 28L9 29L10 29L10 28L11 28L11 27L12 27L12 26L11 26L11 25L12 25L12 24L11 24L11 23ZM14 23L14 25L15 25L15 26L16 26L16 27L17 27L17 28L18 28L18 27L17 27L17 26L16 26L16 25L17 25L17 24L16 24L16 23ZM54 24L54 25L55 25L55 24ZM33 25L33 26L32 26L32 27L33 27L33 28L34 28L34 27L33 27L33 26L34 26L34 25ZM61 25L61 26L62 26L62 25ZM0 26L0 27L2 27L2 26ZM10 26L10 27L9 27L9 28L10 28L10 27L11 27L11 26ZM41 26L41 27L42 27L42 26ZM36 27L36 28L37 28L37 27ZM55 27L55 28L56 28L56 27ZM31 29L31 30L32 30L32 29ZM54 29L54 31L56 31L56 30L57 30L57 29ZM43 30L43 31L44 31L44 32L45 32L45 31L44 31L44 30ZM48 30L48 33L49 33L49 30ZM51 30L51 31L52 31L52 30ZM5 31L5 34L8 34L8 31ZM31 31L31 34L34 34L34 31ZM57 31L57 34L60 34L60 31ZM6 32L6 33L7 33L7 32ZM19 32L19 34L20 34L20 32ZM32 32L32 33L33 33L33 32ZM58 32L58 33L59 33L59 32ZM2 34L2 35L3 35L3 34ZM26 34L26 35L28 35L28 34ZM37 34L37 35L38 35L38 34ZM52 34L52 36L53 36L53 34ZM4 35L4 37L3 37L3 39L2 39L2 40L3 40L3 41L2 41L2 42L4 42L4 40L3 40L3 39L6 39L6 40L7 40L7 39L6 39L6 38L7 38L7 37L6 37L6 36L7 36L7 35L6 35L6 36L5 36L5 35ZM16 35L16 36L17 36L17 35ZM31 35L31 36L30 36L30 37L31 37L31 36L32 36L32 37L33 37L33 38L31 38L31 39L33 39L33 38L34 38L34 37L33 37L33 35ZM34 35L34 36L36 36L36 35ZM9 37L9 38L10 38L10 37ZM13 37L13 38L14 38L14 37ZM35 37L35 38L37 38L37 37ZM46 37L46 38L47 38L47 37ZM25 39L25 40L26 40L26 39ZM37 39L37 40L38 40L38 39ZM40 39L40 41L37 41L37 43L38 43L38 42L40 42L40 43L41 43L41 41L42 41L42 42L43 42L43 43L42 43L42 44L43 44L43 43L44 43L44 42L45 42L45 41L44 41L44 40L42 40L42 39ZM15 40L15 41L14 41L14 43L15 43L15 41L16 41L16 40ZM60 40L60 42L61 42L61 40ZM26 41L26 42L27 42L27 41ZM43 41L43 42L44 42L44 41ZM48 41L48 42L49 42L49 41ZM53 41L53 42L54 42L54 41ZM19 42L19 43L20 43L20 42ZM32 42L32 43L33 43L33 42ZM61 43L61 45L62 45L62 43ZM64 43L64 44L65 44L65 43ZM1 44L1 45L2 45L2 44ZM38 44L38 46L39 46L39 47L40 47L40 46L41 46L41 47L45 47L45 46L41 46L41 45L39 45L39 44ZM50 44L50 46L49 46L49 47L50 47L50 46L51 46L51 45L52 45L52 44ZM10 46L10 47L11 47L11 48L10 48L10 49L6 49L6 50L7 50L7 51L5 51L5 52L4 52L4 53L5 53L5 52L7 52L7 51L8 51L8 50L9 50L9 51L11 51L11 50L10 50L10 49L11 49L11 48L12 48L12 52L11 52L11 53L12 53L12 54L13 54L13 55L12 55L12 56L15 56L15 57L14 57L14 59L13 59L13 60L12 60L12 58L11 58L11 59L10 59L10 60L12 60L12 61L14 61L14 60L15 60L15 58L16 58L16 59L17 59L17 60L19 60L19 58L17 58L17 54L20 54L20 55L19 55L19 56L18 56L18 57L20 57L20 58L22 58L22 57L21 57L21 54L22 54L22 53L18 53L18 52L20 52L20 50L19 50L19 49L17 49L17 48L18 48L18 47L16 47L16 50L13 50L13 47L11 47L11 46ZM33 46L33 47L34 47L34 46ZM60 46L60 51L61 51L61 50L62 50L62 49L63 49L63 50L64 50L64 49L63 49L63 47L62 47L62 46ZM0 47L0 48L1 48L1 49L0 49L0 51L1 51L1 49L2 49L2 51L3 51L3 49L2 49L2 48L1 48L1 47ZM61 48L61 49L62 49L62 48ZM45 49L45 50L42 50L42 52L43 52L43 53L45 53L45 52L46 52L46 55L47 55L47 54L48 54L48 55L49 55L49 53L52 53L52 51L51 51L51 49L50 49L50 51L49 51L49 50L46 50L46 49ZM52 49L52 50L53 50L53 51L54 51L54 50L53 50L53 49ZM16 50L16 51L13 51L13 52L12 52L12 53L14 53L14 52L16 52L16 53L15 53L15 54L17 54L17 51L19 51L19 50ZM24 50L24 51L25 51L25 50ZM44 51L44 52L45 52L45 51ZM46 51L46 52L47 52L47 53L49 53L49 51L48 51L48 52L47 52L47 51ZM8 52L8 53L6 53L6 54L9 54L9 55L8 55L8 56L11 56L11 55L10 55L10 54L9 54L9 53L10 53L10 52ZM25 52L25 54L24 54L24 55L25 55L25 54L26 54L26 52ZM56 53L56 54L57 54L57 53ZM54 55L54 56L55 56L55 55ZM61 56L61 57L62 57L62 58L63 58L63 56ZM31 57L31 60L34 60L34 57ZM57 57L57 60L60 60L60 57ZM32 58L32 59L33 59L33 58ZM36 58L36 59L37 59L37 58ZM58 58L58 59L59 59L59 58ZM21 59L21 60L20 60L20 61L23 61L23 60L22 60L22 59ZM24 59L24 60L25 60L25 59ZM29 59L29 60L30 60L30 59ZM62 60L62 61L63 61L63 60ZM64 60L64 61L65 61L65 60ZM24 61L24 63L25 63L25 61ZM36 61L36 62L35 62L35 63L36 63L36 62L37 62L37 61ZM14 62L14 63L15 63L15 62ZM45 62L45 63L46 63L46 62ZM60 62L60 63L61 63L61 62ZM16 63L16 64L17 64L17 63ZM62 63L62 64L63 64L63 63ZM51 64L51 65L52 65L52 64ZM0 0L0 7L7 7L7 0ZM1 1L1 6L6 6L6 1ZM2 2L2 5L5 5L5 2ZM58 0L58 7L65 7L65 0ZM59 1L59 6L64 6L64 1ZM60 2L60 5L63 5L63 2ZM0 58L0 65L7 65L7 58ZM1 59L1 64L6 64L6 59ZM2 60L2 63L5 63L5 60Z" fill="#000000"/></g></g></svg>
