<?xml version="1.0" encoding="UTF-8"?>
<svg xmlns="http://www.w3.org/2000/svg" version="1.1" width="300" height="300" viewBox="0 0 300 300"><rect x="0" y="0" width="300" height="300" fill="#ffffff"/><g transform="scale(4.348)"><g transform="translate(0,0)"><path fill-rule="evenodd" d="M8 0L8 2L9 2L9 4L8 4L8 10L6 10L6 9L7 9L7 8L5 8L5 10L4 10L4 9L3 9L3 8L0 8L0 10L2 10L2 11L3 11L3 13L2 13L2 15L3 15L3 20L2 20L2 19L1 19L1 18L2 18L2 16L1 16L1 14L0 14L0 16L1 16L1 17L0 17L0 20L1 20L1 22L0 22L0 23L2 23L2 26L1 26L1 27L0 27L0 28L1 28L1 32L2 32L2 33L3 33L3 32L2 32L2 31L5 31L5 29L7 29L7 28L4 28L4 27L5 27L5 26L6 26L6 27L9 27L9 26L10 26L10 27L11 27L11 31L13 31L13 30L15 30L15 31L14 31L14 32L15 32L15 31L16 31L16 32L17 32L17 34L16 34L16 33L14 33L14 34L13 34L13 35L12 35L12 33L13 33L13 32L12 32L12 33L10 33L10 30L9 30L9 32L4 32L4 34L2 34L2 35L3 35L3 36L4 36L4 37L7 37L7 38L6 38L6 39L5 39L5 40L4 40L4 38L2 38L2 36L0 36L0 37L1 37L1 38L0 38L0 41L1 41L1 42L0 42L0 44L1 44L1 43L2 43L2 46L5 46L5 47L4 47L4 48L5 48L5 49L8 49L8 50L4 50L4 49L3 49L3 48L2 48L2 47L1 47L1 45L0 45L0 47L1 47L1 48L0 48L0 49L1 49L1 50L2 50L2 49L3 49L3 50L4 50L4 51L0 51L0 52L1 52L1 54L0 54L0 61L1 61L1 58L2 58L2 59L3 59L3 56L2 56L2 55L3 55L3 54L4 54L4 55L5 55L5 57L9 57L9 59L10 59L10 58L11 58L11 60L13 60L13 61L10 61L10 60L9 60L9 61L8 61L8 62L9 62L9 63L8 63L8 64L9 64L9 63L11 63L11 64L10 64L10 65L9 65L9 66L8 66L8 69L9 69L9 67L10 67L10 68L11 68L11 69L12 69L12 68L13 68L13 69L14 69L14 68L13 68L13 67L15 67L15 69L16 69L16 67L18 67L18 65L19 65L19 64L18 64L18 63L19 63L19 62L20 62L20 63L22 63L22 62L24 62L24 63L23 63L23 64L22 64L22 66L20 66L20 67L21 67L21 69L23 69L23 67L25 67L25 66L24 66L24 65L25 65L25 64L24 64L24 63L25 63L25 62L26 62L26 61L27 61L27 63L26 63L26 64L27 64L27 67L26 67L26 68L25 68L25 69L29 69L29 67L30 67L30 69L31 69L31 67L30 67L30 66L29 66L29 64L27 64L27 63L28 63L28 61L29 61L29 63L30 63L30 65L31 65L31 64L32 64L32 66L33 66L33 68L32 68L32 69L37 69L37 68L36 68L36 67L38 67L38 63L39 63L39 62L38 62L38 60L36 60L36 59L34 59L34 58L33 58L33 59L32 59L32 57L31 57L31 56L30 56L30 55L32 55L32 54L34 54L34 53L35 53L35 52L36 52L36 51L37 51L37 53L36 53L36 54L35 54L35 56L34 56L34 57L35 57L35 56L36 56L36 57L37 57L37 59L40 59L40 58L41 58L41 59L43 59L43 60L44 60L44 61L43 61L43 62L42 62L42 61L41 61L41 60L39 60L39 61L41 61L41 62L40 62L40 65L39 65L39 66L40 66L40 65L41 65L41 68L40 68L40 67L39 67L39 68L38 68L38 69L39 69L39 68L40 68L40 69L41 69L41 68L42 68L42 65L43 65L43 67L44 67L44 69L45 69L45 67L44 67L44 65L47 65L47 66L48 66L48 69L51 69L51 67L52 67L52 65L53 65L53 66L54 66L54 67L57 67L57 68L56 68L56 69L57 69L57 68L58 68L58 67L57 67L57 66L58 66L58 64L56 64L56 63L55 63L55 64L54 64L54 55L50 55L50 53L51 53L51 52L52 52L52 54L53 54L53 52L54 52L54 53L55 53L55 51L56 51L56 54L57 54L57 55L58 55L58 56L56 56L56 55L55 55L55 56L56 56L56 57L55 57L55 59L57 59L57 60L56 60L56 61L57 61L57 63L58 63L58 56L59 56L59 57L60 57L60 58L59 58L59 59L60 59L60 60L59 60L59 61L60 61L60 62L59 62L59 66L60 66L60 67L62 67L62 66L60 66L60 65L63 65L63 67L65 67L65 69L67 69L67 68L66 68L66 66L67 66L67 67L69 67L69 66L67 66L67 65L66 65L66 63L67 63L67 62L66 62L66 61L67 61L67 60L68 60L68 61L69 61L69 58L68 58L68 56L69 56L69 52L68 52L68 51L69 51L69 45L68 45L68 43L69 43L69 42L68 42L68 41L67 41L67 40L68 40L68 39L69 39L69 38L68 38L68 39L67 39L67 38L66 38L66 39L65 39L65 38L64 38L64 40L65 40L65 41L67 41L67 42L66 42L66 43L65 43L65 42L64 42L64 43L63 43L63 40L62 40L62 39L63 39L63 38L62 38L62 39L61 39L61 38L58 38L58 37L65 37L65 34L66 34L66 35L67 35L67 34L66 34L66 33L65 33L65 32L66 32L66 30L68 30L68 31L69 31L69 30L68 30L68 29L69 29L69 26L68 26L68 25L67 25L67 26L66 26L66 27L67 27L67 28L68 28L68 29L66 29L66 30L65 30L65 26L64 26L64 30L62 30L62 28L63 28L63 26L62 26L62 25L63 25L63 24L62 24L62 23L64 23L64 25L66 25L66 23L67 23L67 24L68 24L68 23L69 23L69 22L68 22L68 23L67 23L67 22L66 22L66 23L65 23L65 22L62 22L62 21L63 21L63 19L62 19L62 17L63 17L63 15L62 15L62 17L61 17L61 16L60 16L60 17L59 17L59 18L58 18L58 17L57 17L57 15L60 15L60 12L62 12L62 13L61 13L61 14L62 14L62 13L63 13L63 14L65 14L65 13L66 13L66 15L65 15L65 16L64 16L64 19L65 19L65 20L64 20L64 21L65 21L65 20L66 20L66 21L67 21L67 20L68 20L68 21L69 21L69 20L68 20L68 19L69 19L69 16L68 16L68 15L69 15L69 14L68 14L68 13L69 13L69 8L67 8L67 10L66 10L66 9L65 9L65 8L61 8L61 6L60 6L60 7L59 7L59 4L58 4L58 3L59 3L59 2L58 2L58 1L61 1L61 0L53 0L53 2L50 2L50 1L52 1L52 0L50 0L50 1L48 1L48 2L47 2L47 0L46 0L46 1L45 1L45 2L46 2L46 3L47 3L47 4L46 4L46 5L48 5L48 7L47 7L47 6L46 6L46 7L47 7L47 8L44 8L44 9L43 9L43 11L41 11L41 10L42 10L42 8L43 8L43 4L44 4L44 7L45 7L45 4L44 4L44 2L43 2L43 4L42 4L42 3L41 3L41 4L42 4L42 8L40 8L40 10L39 10L39 11L41 11L41 13L40 13L40 14L41 14L41 13L42 13L42 12L43 12L43 11L45 11L45 12L44 12L44 13L43 13L43 15L42 15L42 16L40 16L40 17L39 17L39 18L38 18L38 17L37 17L37 16L38 16L38 15L39 15L39 14L38 14L38 13L39 13L39 12L38 12L38 9L37 9L37 8L38 8L38 7L39 7L39 6L40 6L40 7L41 7L41 5L40 5L40 2L41 2L41 0L40 0L40 2L39 2L39 0L38 0L38 1L37 1L37 2L34 2L34 3L33 3L33 4L32 4L32 2L31 2L31 0L30 0L30 2L29 2L29 1L28 1L28 2L29 2L29 4L28 4L28 3L27 3L27 2L26 2L26 1L27 1L27 0L24 0L24 1L23 1L23 0L18 0L18 1L17 1L17 0L16 0L16 3L17 3L17 4L18 4L18 5L17 5L17 6L16 6L16 5L15 5L15 2L14 2L14 1L15 1L15 0L11 0L11 1L10 1L10 0ZM32 0L32 1L33 1L33 0ZM34 0L34 1L35 1L35 0ZM42 0L42 1L44 1L44 0ZM20 1L20 2L21 2L21 7L22 7L22 8L25 8L25 10L24 10L24 11L25 11L25 10L26 10L26 12L25 12L25 13L24 13L24 15L23 15L23 13L22 13L22 11L21 11L21 9L20 9L20 11L19 11L19 10L18 10L18 8L19 8L19 7L20 7L20 3L18 3L18 2L17 2L17 3L18 3L18 4L19 4L19 7L18 7L18 6L17 6L17 7L16 7L16 6L15 6L15 5L14 5L14 4L13 4L13 3L14 3L14 2L11 2L11 3L10 3L10 4L13 4L13 7L12 7L12 5L11 5L11 7L12 7L12 8L9 8L9 10L8 10L8 12L7 12L7 11L6 11L6 12L5 12L5 11L4 11L4 12L5 12L5 13L4 13L4 14L3 14L3 15L4 15L4 14L7 14L7 13L8 13L8 16L10 16L10 17L8 17L8 19L5 19L5 17L6 17L6 18L7 18L7 17L6 17L6 16L7 16L7 15L5 15L5 16L4 16L4 20L3 20L3 22L2 22L2 23L3 23L3 24L4 24L4 25L3 25L3 26L5 26L5 25L6 25L6 26L7 26L7 25L6 25L6 24L8 24L8 25L10 25L10 24L11 24L11 25L12 25L12 26L11 26L11 27L12 27L12 26L14 26L14 25L15 25L15 24L16 24L16 23L17 23L17 26L16 26L16 27L19 27L19 29L18 29L18 28L17 28L17 29L16 29L16 28L15 28L15 27L14 27L14 29L16 29L16 31L17 31L17 30L19 30L19 31L18 31L18 32L19 32L19 33L18 33L18 34L17 34L17 35L18 35L18 36L17 36L17 37L16 37L16 36L15 36L15 35L16 35L16 34L14 34L14 36L11 36L11 34L10 34L10 36L9 36L9 37L10 37L10 36L11 36L11 37L13 37L13 40L14 40L14 41L15 41L15 42L14 42L14 43L13 43L13 41L12 41L12 39L11 39L11 38L10 38L10 39L9 39L9 38L8 38L8 39L6 39L6 40L5 40L5 42L7 42L7 41L6 41L6 40L8 40L8 41L9 41L9 43L10 43L10 44L8 44L8 43L4 43L4 42L3 42L3 40L2 40L2 38L1 38L1 41L2 41L2 42L3 42L3 45L4 45L4 44L8 44L8 45L5 45L5 46L8 46L8 47L5 47L5 48L8 48L8 49L9 49L9 50L8 50L8 51L9 51L9 52L8 52L8 53L5 53L5 52L7 52L7 51L4 51L4 52L3 52L3 53L4 53L4 54L8 54L8 56L9 56L9 57L10 57L10 56L11 56L11 57L12 57L12 56L11 56L11 55L12 55L12 52L14 52L14 53L13 53L13 56L15 56L15 55L14 55L14 53L15 53L15 52L16 52L16 51L17 51L17 53L16 53L16 54L17 54L17 55L18 55L18 56L17 56L17 57L18 57L18 58L16 58L16 59L17 59L17 61L16 61L16 62L14 62L14 63L13 63L13 62L11 62L11 63L12 63L12 65L13 65L13 64L14 64L14 65L16 65L16 66L17 66L17 64L16 64L16 62L18 62L18 58L19 58L19 57L18 57L18 56L20 56L20 58L21 58L21 59L20 59L20 60L22 60L22 58L23 58L23 61L24 61L24 62L25 62L25 61L26 61L26 59L27 59L27 61L28 61L28 59L29 59L29 61L30 61L30 63L31 63L31 62L32 62L32 59L31 59L31 61L30 61L30 59L29 59L29 57L28 57L28 56L29 56L29 55L28 55L28 54L30 54L30 52L31 52L31 54L32 54L32 53L33 53L33 49L34 49L34 50L35 50L35 49L34 49L34 48L33 48L33 47L35 47L35 45L34 45L34 44L35 44L35 42L34 42L34 38L35 38L35 37L32 37L32 35L31 35L31 37L30 37L30 36L29 36L29 37L28 37L28 36L27 36L27 32L28 32L28 31L27 31L27 30L29 30L29 34L28 34L28 35L29 35L29 34L31 34L31 33L30 33L30 28L28 28L28 27L27 27L27 25L26 25L26 24L25 24L25 23L27 23L27 24L28 24L28 23L29 23L29 19L28 19L28 18L29 18L29 17L30 17L30 20L31 20L31 23L30 23L30 24L31 24L31 25L30 25L30 26L29 26L29 25L28 25L28 26L29 26L29 27L30 27L30 26L34 26L34 28L35 28L35 26L34 26L34 25L36 25L36 26L37 26L37 27L36 27L36 28L37 28L37 27L38 27L38 30L39 30L39 25L40 25L40 28L43 28L43 27L45 27L45 25L46 25L46 26L47 26L47 29L46 29L46 28L45 28L45 29L44 29L44 30L43 30L43 29L40 29L40 30L42 30L42 35L41 35L41 34L39 34L39 33L40 33L40 31L39 31L39 32L38 32L38 34L37 34L37 39L36 39L36 40L38 40L38 45L36 45L36 46L37 46L37 47L38 47L38 48L36 48L36 49L38 49L38 50L39 50L39 49L40 49L40 51L39 51L39 52L38 52L38 53L39 53L39 55L37 55L37 54L36 54L36 56L38 56L38 58L40 58L40 51L41 51L41 49L40 49L40 48L41 48L41 47L43 47L43 45L44 45L44 44L45 44L45 47L44 47L44 48L43 48L43 49L42 49L42 50L43 50L43 51L42 51L42 52L41 52L41 53L42 53L42 54L41 54L41 55L42 55L42 56L41 56L41 57L42 57L42 58L45 58L45 57L46 57L46 58L47 58L47 59L44 59L44 60L45 60L45 61L44 61L44 62L43 62L43 65L44 65L44 63L45 63L45 61L46 61L46 64L47 64L47 65L48 65L48 66L49 66L49 68L50 68L50 66L51 66L51 65L52 65L52 62L53 62L53 61L52 61L52 60L53 60L53 59L52 59L52 58L53 58L53 57L52 57L52 56L51 56L51 57L50 57L50 55L49 55L49 53L48 53L48 52L49 52L49 50L48 50L48 49L46 49L46 50L44 50L44 48L47 48L47 45L48 45L48 47L49 47L49 45L48 45L48 44L47 44L47 43L49 43L49 44L50 44L50 52L51 52L51 51L52 51L52 52L53 52L53 51L54 51L54 50L56 50L56 51L57 51L57 52L58 52L58 54L61 54L61 55L62 55L62 58L60 58L60 59L62 59L62 58L63 58L63 59L64 59L64 60L65 60L65 61L66 61L66 60L67 60L67 59L68 59L68 58L67 58L67 59L66 59L66 58L65 58L65 57L64 57L64 54L65 54L65 55L66 55L66 57L67 57L67 56L68 56L68 53L66 53L66 54L65 54L65 53L64 53L64 54L63 54L63 55L62 55L62 53L63 53L63 52L62 52L62 53L61 53L61 52L60 52L60 53L59 53L59 51L61 51L61 49L60 49L60 50L59 50L59 48L58 48L58 50L57 50L57 49L56 49L56 48L55 48L55 49L54 49L54 50L53 50L53 49L52 49L52 48L54 48L54 47L53 47L53 46L52 46L52 44L54 44L54 46L55 46L55 47L57 47L57 46L55 46L55 45L56 45L56 44L57 44L57 45L58 45L58 46L60 46L60 45L58 45L58 44L57 44L57 43L59 43L59 39L58 39L58 38L55 38L55 37L56 37L56 35L55 35L55 34L57 34L57 33L56 33L56 32L54 32L54 30L55 30L55 31L56 31L56 30L57 30L57 29L58 29L58 31L57 31L57 32L58 32L58 36L57 36L57 37L58 37L58 36L60 36L60 33L59 33L59 32L60 32L60 31L61 31L61 29L60 29L60 27L61 27L61 28L62 28L62 27L61 27L61 25L60 25L60 24L61 24L61 23L62 23L62 22L61 22L61 20L62 20L62 19L60 19L60 22L61 22L61 23L60 23L60 24L59 24L59 25L58 25L58 27L59 27L59 29L58 29L58 28L57 28L57 27L56 27L56 26L55 26L55 25L56 25L56 23L55 23L55 21L56 21L56 22L57 22L57 23L59 23L59 20L58 20L58 18L57 18L57 17L56 17L56 15L57 15L57 13L56 13L56 15L52 15L52 16L51 16L51 15L50 15L50 16L49 16L49 17L48 17L48 15L49 15L49 13L50 13L50 14L52 14L52 12L51 12L51 13L50 13L50 12L49 12L49 13L48 13L48 11L51 11L51 9L52 9L52 10L53 10L53 9L54 9L54 12L55 12L55 11L57 11L57 12L58 12L58 11L59 11L59 12L60 12L60 11L63 11L63 9L62 9L62 10L61 10L61 9L60 9L60 8L59 8L59 7L58 7L58 5L57 5L57 1L56 1L56 6L55 6L55 5L54 5L54 3L52 3L52 4L53 4L53 5L54 5L54 6L53 6L53 7L52 7L52 6L51 6L51 5L50 5L50 4L51 4L51 3L48 3L48 5L50 5L50 6L49 6L49 7L48 7L48 8L47 8L47 9L46 9L46 10L45 10L45 11L46 11L46 12L45 12L45 13L44 13L44 14L45 14L45 13L46 13L46 14L47 14L47 13L48 13L48 15L46 15L46 16L47 16L47 17L46 17L46 20L45 20L45 17L44 17L44 15L43 15L43 17L42 17L42 18L41 18L41 17L40 17L40 19L39 19L39 20L38 20L38 21L39 21L39 22L40 22L40 24L39 24L39 25L38 25L38 26L37 26L37 25L36 25L36 22L37 22L37 21L36 21L36 19L34 19L34 18L35 18L35 17L36 17L36 16L37 16L37 15L38 15L38 14L37 14L37 13L38 13L38 12L36 12L36 11L37 11L37 9L35 9L35 10L34 10L34 9L32 9L32 4L31 4L31 2L30 2L30 4L29 4L29 5L30 5L30 4L31 4L31 8L30 8L30 6L29 6L29 9L28 9L28 11L27 11L27 9L26 9L26 8L28 8L28 4L27 4L27 3L26 3L26 4L27 4L27 7L26 7L26 5L25 5L25 7L24 7L24 6L23 6L23 3L24 3L24 2L25 2L25 1L24 1L24 2L23 2L23 1ZM22 2L22 3L23 3L23 2ZM34 3L34 4L35 4L35 3ZM38 3L38 4L39 4L39 3ZM60 3L60 5L61 5L61 3ZM9 5L9 7L10 7L10 5ZM33 5L33 8L36 8L36 5ZM38 5L38 6L37 6L37 7L38 7L38 6L39 6L39 5ZM14 6L14 7L13 7L13 11L15 11L15 12L13 12L13 13L12 13L12 11L10 11L10 10L9 10L9 12L11 12L11 13L10 13L10 14L11 14L11 15L10 15L10 16L11 16L11 17L10 17L10 18L9 18L9 19L8 19L8 21L9 21L9 20L10 20L10 21L12 21L12 22L9 22L9 24L10 24L10 23L11 23L11 24L12 24L12 25L14 25L14 23L12 23L12 22L17 22L17 21L16 21L16 20L17 20L17 19L18 19L18 21L19 21L19 23L20 23L20 21L21 21L21 22L22 22L22 21L23 21L23 22L24 22L24 23L25 23L25 22L24 22L24 20L26 20L26 22L27 22L27 23L28 23L28 20L26 20L26 19L27 19L27 18L26 18L26 17L27 17L27 16L26 16L26 15L30 15L30 17L31 17L31 20L32 20L32 21L33 21L33 22L34 22L34 23L33 23L33 24L32 24L32 23L31 23L31 24L32 24L32 25L34 25L34 23L35 23L35 22L34 22L34 21L35 21L35 20L34 20L34 19L33 19L33 20L32 20L32 18L33 18L33 17L32 17L32 14L28 14L28 13L29 13L29 11L28 11L28 13L27 13L27 12L26 12L26 13L25 13L25 15L24 15L24 17L23 17L23 15L22 15L22 13L21 13L21 15L20 15L20 12L18 12L18 13L19 13L19 15L18 15L18 16L19 16L19 18L17 18L17 8L18 8L18 7L17 7L17 8L16 8L16 7L15 7L15 6ZM22 6L22 7L23 7L23 6ZM34 6L34 7L35 7L35 6ZM50 6L50 8L48 8L48 9L47 9L47 10L46 10L46 11L48 11L48 9L49 9L49 10L50 10L50 9L51 9L51 8L52 8L52 9L53 9L53 8L54 8L54 9L55 9L55 8L54 8L54 7L55 7L55 6L54 6L54 7L53 7L53 8L52 8L52 7L51 7L51 6ZM56 6L56 7L57 7L57 6ZM25 7L25 8L26 8L26 7ZM56 8L56 9L57 9L57 11L58 11L58 8ZM15 9L15 11L16 11L16 9ZM22 9L22 10L23 10L23 9ZM59 9L59 11L60 11L60 9ZM30 10L30 13L31 13L31 10ZM32 10L32 11L33 11L33 12L32 12L32 13L34 13L34 10ZM64 10L64 11L65 11L65 10ZM67 10L67 11L66 11L66 12L68 12L68 10ZM6 12L6 13L7 13L7 12ZM15 12L15 13L16 13L16 12ZM63 12L63 13L64 13L64 12ZM54 13L54 14L55 14L55 13ZM58 13L58 14L59 14L59 13ZM15 14L15 15L13 15L13 16L16 16L16 14ZM34 14L34 15L35 15L35 14ZM36 14L36 15L37 15L37 14ZM67 14L67 15L66 15L66 16L67 16L67 17L66 17L66 18L65 18L65 19L66 19L66 20L67 20L67 19L68 19L68 18L67 18L67 17L68 17L68 16L67 16L67 15L68 15L68 14ZM11 15L11 16L12 16L12 15ZM19 15L19 16L20 16L20 15ZM28 16L28 17L29 17L29 16ZM34 16L34 17L35 17L35 16ZM50 16L50 17L49 17L49 18L48 18L48 17L47 17L47 20L48 20L48 22L46 22L46 21L45 21L45 20L44 20L44 21L43 21L43 20L42 20L42 21L41 21L41 19L40 19L40 21L41 21L41 24L40 24L40 25L41 25L41 26L42 26L42 27L43 27L43 26L42 26L42 25L43 25L43 24L42 24L42 21L43 21L43 23L44 23L44 21L45 21L45 23L47 23L47 26L48 26L48 29L47 29L47 30L46 30L46 29L45 29L45 30L44 30L44 34L43 34L43 35L42 35L42 36L43 36L43 35L44 35L44 37L43 37L43 38L45 38L45 39L46 39L46 41L45 41L45 40L44 40L44 41L43 41L43 39L42 39L42 41L41 41L41 39L40 39L40 41L39 41L39 42L42 42L42 43L41 43L41 44L42 44L42 45L43 45L43 44L44 44L44 41L45 41L45 42L46 42L46 41L47 41L47 39L48 39L48 37L49 37L49 38L50 38L50 39L51 39L51 38L50 38L50 36L52 36L52 37L53 37L53 38L52 38L52 41L53 41L53 42L54 42L54 43L55 43L55 42L54 42L54 41L55 41L55 40L54 40L54 41L53 41L53 39L55 39L55 38L54 38L54 36L55 36L55 35L54 35L54 36L52 36L52 35L53 35L53 34L54 34L54 32L52 32L52 31L53 31L53 30L54 30L54 29L55 29L55 28L56 28L56 29L57 29L57 28L56 28L56 27L55 27L55 28L54 28L54 27L51 27L51 28L50 28L50 27L49 27L49 26L50 26L50 25L51 25L51 24L52 24L52 25L55 25L55 24L54 24L54 20L56 20L56 21L58 21L58 20L56 20L56 18L54 18L54 17L55 17L55 16L52 16L52 18L51 18L51 19L52 19L52 22L50 22L50 21L49 21L49 20L50 20L50 17L51 17L51 16ZM11 17L11 18L10 18L10 20L12 20L12 21L13 21L13 19L14 19L14 21L15 21L15 19L17 19L17 18L16 18L16 17L15 17L15 18L14 18L14 17ZM24 17L24 18L25 18L25 19L26 19L26 18L25 18L25 17ZM60 17L60 18L61 18L61 17ZM12 18L12 19L13 19L13 18ZM20 18L20 19L21 19L21 21L22 21L22 20L23 20L23 19L22 19L22 18ZM42 18L42 19L44 19L44 18ZM52 18L52 19L53 19L53 20L54 20L54 19L53 19L53 18ZM48 19L48 20L49 20L49 19ZM4 20L4 22L3 22L3 23L4 23L4 24L6 24L6 23L7 23L7 22L5 22L5 21L7 21L7 20ZM33 20L33 21L34 21L34 20ZM4 22L4 23L5 23L5 22ZM49 22L49 24L51 24L51 23L50 23L50 22ZM22 23L22 24L23 24L23 23ZM37 23L37 24L38 24L38 23ZM52 23L52 24L53 24L53 23ZM18 24L18 26L19 26L19 24ZM24 24L24 25L25 25L25 26L24 26L24 27L26 27L26 25L25 25L25 24ZM44 24L44 25L45 25L45 24ZM48 25L48 26L49 26L49 25ZM59 25L59 27L60 27L60 25ZM21 26L21 27L22 27L22 29L23 29L23 30L20 30L20 29L21 29L21 28L20 28L20 29L19 29L19 30L20 30L20 31L23 31L23 32L20 32L20 33L21 33L21 34L20 34L20 35L21 35L21 36L22 36L22 37L21 37L21 38L20 38L20 39L19 39L19 38L18 38L18 37L19 37L19 36L18 36L18 37L17 37L17 38L16 38L16 37L15 37L15 38L14 38L14 39L16 39L16 41L17 41L17 42L16 42L16 43L17 43L17 42L18 42L18 43L19 43L19 44L18 44L18 45L17 45L17 46L16 46L16 44L15 44L15 43L14 43L14 44L13 44L13 45L15 45L15 46L13 46L13 47L14 47L14 48L13 48L13 49L12 49L12 50L11 50L11 45L10 45L10 50L9 50L9 51L10 51L10 52L9 52L9 53L8 53L8 54L10 54L10 55L9 55L9 56L10 56L10 55L11 55L11 54L10 54L10 53L11 53L11 51L13 51L13 50L15 50L15 51L16 51L16 49L17 49L17 46L18 46L18 45L19 45L19 47L18 47L18 48L19 48L19 50L18 50L18 53L17 53L17 54L18 54L18 55L21 55L21 54L20 54L20 53L21 53L21 51L20 51L20 50L22 50L22 51L23 51L23 50L24 50L24 51L26 51L26 53L27 53L27 54L28 54L28 53L27 53L27 50L26 50L26 49L27 49L27 48L28 48L28 49L29 49L29 50L28 50L28 51L29 51L29 52L30 52L30 49L31 49L31 51L32 51L32 48L31 48L31 47L32 47L32 46L31 46L31 45L32 45L32 44L31 44L31 43L32 43L32 42L33 42L33 41L32 41L32 42L31 42L31 43L30 43L30 42L29 42L29 46L28 46L28 47L27 47L27 43L28 43L28 41L29 41L29 40L28 40L28 39L27 39L27 40L26 40L26 42L25 42L25 40L24 40L24 39L26 39L26 38L24 38L24 35L25 35L25 34L24 34L24 32L25 32L25 30L26 30L26 29L27 29L27 28L26 28L26 29L25 29L25 30L24 30L24 29L23 29L23 26ZM67 26L67 27L68 27L68 26ZM1 27L1 28L2 28L2 29L4 29L4 28L3 28L3 27ZM9 28L9 29L10 29L10 28ZM12 28L12 29L13 29L13 28ZM32 28L32 29L33 29L33 28ZM53 28L53 29L54 29L54 28ZM35 29L35 30L34 30L34 31L35 31L35 32L36 32L36 30L37 30L37 29ZM50 29L50 30L49 30L49 31L50 31L50 30L51 30L51 31L52 31L52 29ZM59 29L59 31L58 31L58 32L59 32L59 31L60 31L60 29ZM6 30L6 31L7 31L7 30ZM23 30L23 31L24 31L24 30ZM47 30L47 32L46 32L46 34L44 34L44 35L46 35L46 39L47 39L47 35L46 35L46 34L49 34L49 33L48 33L48 30ZM26 31L26 32L27 32L27 31ZM32 31L32 32L33 32L33 31ZM50 32L50 34L51 34L51 35L52 35L52 32ZM68 32L68 37L69 37L69 32ZM5 33L5 36L8 36L8 33ZM33 33L33 36L36 36L36 33ZM61 33L61 36L64 36L64 33ZM0 34L0 35L1 35L1 34ZM6 34L6 35L7 35L7 34ZM18 34L18 35L19 35L19 34ZM22 34L22 36L23 36L23 35L24 35L24 34ZM34 34L34 35L35 35L35 34ZM38 34L38 35L39 35L39 36L38 36L38 37L39 37L39 38L38 38L38 39L39 39L39 38L40 38L40 37L41 37L41 35L39 35L39 34ZM62 34L62 35L63 35L63 34ZM49 35L49 36L50 36L50 35ZM26 36L26 37L27 37L27 38L28 38L28 37L27 37L27 36ZM39 36L39 37L40 37L40 36ZM22 37L22 38L23 38L23 37ZM29 37L29 38L30 38L30 37ZM31 37L31 39L30 39L30 40L31 40L31 39L32 39L32 37ZM17 38L17 41L18 41L18 40L19 40L19 39L18 39L18 38ZM10 39L10 40L11 40L11 39ZM22 39L22 40L23 40L23 39ZM57 39L57 40L56 40L56 41L57 41L57 42L56 42L56 43L57 43L57 42L58 42L58 41L57 41L57 40L58 40L58 39ZM66 39L66 40L67 40L67 39ZM20 40L20 42L21 42L21 40ZM27 40L27 41L28 41L28 40ZM48 40L48 41L49 41L49 42L50 42L50 43L51 43L51 44L52 44L52 42L50 42L50 40ZM61 40L61 42L60 42L60 43L61 43L61 48L62 48L62 50L64 50L64 51L66 51L66 52L67 52L67 51L68 51L68 50L67 50L67 51L66 51L66 49L68 49L68 48L67 48L67 47L68 47L68 45L64 45L64 44L65 44L65 43L64 43L64 44L62 44L62 40ZM10 41L10 42L11 42L11 43L12 43L12 41ZM22 41L22 43L21 43L21 44L19 44L19 45L20 45L20 47L21 47L21 45L22 45L22 46L23 46L23 47L22 47L22 48L21 48L21 49L22 49L22 48L23 48L23 49L24 49L24 50L25 50L25 49L24 49L24 48L25 48L25 46L26 46L26 43L27 43L27 42L26 42L26 43L25 43L25 42L24 42L24 43L25 43L25 45L24 45L24 46L23 46L23 45L22 45L22 43L23 43L23 41ZM42 41L42 42L43 42L43 41ZM67 42L67 43L66 43L66 44L67 44L67 43L68 43L68 42ZM33 43L33 44L34 44L34 43ZM36 43L36 44L37 44L37 43ZM42 43L42 44L43 44L43 43ZM45 43L45 44L46 44L46 43ZM8 45L8 46L9 46L9 45ZM40 45L40 46L41 46L41 45ZM62 45L62 48L64 48L64 45ZM15 46L15 47L16 47L16 46ZM29 46L29 47L28 47L28 48L29 48L29 49L30 49L30 46ZM51 46L51 48L52 48L52 46ZM65 46L65 49L66 49L66 47L67 47L67 46ZM23 47L23 48L24 48L24 47ZM26 47L26 48L27 48L27 47ZM51 49L51 50L52 50L52 51L53 51L53 50L52 50L52 49ZM46 50L46 51L44 51L44 54L43 54L43 55L44 55L44 57L45 57L45 55L47 55L47 54L48 54L48 53L47 53L47 54L46 54L46 52L48 52L48 50ZM58 50L58 51L59 51L59 50ZM34 51L34 52L35 52L35 51ZM22 52L22 54L23 54L23 55L22 55L22 56L23 56L23 55L24 55L24 52ZM42 52L42 53L43 53L43 52ZM18 53L18 54L19 54L19 53ZM25 54L25 56L24 56L24 57L25 57L25 58L24 58L24 59L26 59L26 58L28 58L28 57L27 57L27 55L26 55L26 54ZM44 54L44 55L45 55L45 54ZM6 55L6 56L7 56L7 55ZM48 55L48 57L49 57L49 58L48 58L48 61L47 61L47 60L46 60L46 61L47 61L47 64L48 64L48 65L49 65L49 66L50 66L50 65L51 65L51 62L50 62L50 61L51 61L51 58L52 58L52 57L51 57L51 58L50 58L50 57L49 57L49 55ZM59 55L59 56L60 56L60 55ZM13 57L13 58L12 58L12 59L13 59L13 60L15 60L15 57ZM30 57L30 58L31 58L31 57ZM63 57L63 58L64 58L64 57ZM4 58L4 59L7 59L7 60L6 60L6 61L7 61L7 60L8 60L8 59L7 59L7 58ZM13 58L13 59L14 59L14 58ZM49 58L49 61L48 61L48 64L49 64L49 61L50 61L50 58ZM33 59L33 60L34 60L34 59ZM65 59L65 60L66 60L66 59ZM3 60L3 61L5 61L5 60ZM20 61L20 62L21 62L21 61ZM33 61L33 64L36 64L36 61ZM61 61L61 64L64 64L64 61ZM34 62L34 63L35 63L35 62ZM37 62L37 63L38 63L38 62ZM62 62L62 63L63 63L63 62ZM68 62L68 65L69 65L69 62ZM14 63L14 64L15 64L15 63ZM41 63L41 65L42 65L42 63ZM20 64L20 65L21 65L21 64ZM23 64L23 65L24 65L24 64ZM53 64L53 65L54 65L54 66L56 66L56 64L55 64L55 65L54 65L54 64ZM10 65L10 67L11 67L11 68L12 68L12 67L13 67L13 66L12 66L12 67L11 67L11 65ZM34 65L34 66L35 66L35 67L34 67L34 68L35 68L35 67L36 67L36 66L35 66L35 65ZM22 66L22 67L23 67L23 66ZM28 66L28 67L29 67L29 66ZM46 67L46 69L47 69L47 67ZM18 68L18 69L19 69L19 68ZM52 68L52 69L54 69L54 68ZM59 68L59 69L61 69L61 68ZM68 68L68 69L69 69L69 68ZM0 0L0 7L7 7L7 0ZM1 1L1 6L6 6L6 1ZM2 2L2 5L5 5L5 2ZM62 0L62 7L69 7L69 0ZM63 1L63 6L68 6L68 1ZM64 2L64 5L67 5L67 2ZM0 62L0 69L7 69L7 62ZM1 63L1 68L6 68L6 63ZM2 64L2 67L5 67L5 64Z" fill="#000000"/></g></g></svg>
