<?xml version="1.0" encoding="UTF-8"?>
<svg xmlns="http://www.w3.org/2000/svg" version="1.1" width="300" height="300" viewBox="0 0 300 300"><rect x="0" y="0" width="300" height="300" fill="#ffffff"/><g transform="scale(4.348)"><g transform="translate(0,0)"><path fill-rule="evenodd" d="M9 0L9 1L8 1L8 3L9 3L9 4L8 4L8 8L6 8L6 9L5 9L5 10L6 10L6 11L7 11L7 10L8 10L8 12L6 12L6 13L7 13L7 14L6 14L6 15L5 15L5 14L3 14L3 13L2 13L2 12L4 12L4 13L5 13L5 11L4 11L4 8L3 8L3 9L2 9L2 8L0 8L0 9L1 9L1 10L3 10L3 11L2 11L2 12L1 12L1 11L0 11L0 12L1 12L1 15L0 15L0 19L1 19L1 20L2 20L2 21L1 21L1 22L0 22L0 23L1 23L1 22L3 22L3 21L4 21L4 22L5 22L5 26L4 26L4 25L3 25L3 24L2 24L2 26L0 26L0 28L1 28L1 29L2 29L2 30L4 30L4 28L3 28L3 29L2 29L2 28L1 28L1 27L2 27L2 26L3 26L3 27L5 27L5 30L6 30L6 31L7 31L7 32L5 32L5 31L2 31L2 32L3 32L3 33L1 33L1 30L0 30L0 33L1 33L1 34L0 34L0 37L1 37L1 38L4 38L4 37L7 37L7 38L6 38L6 39L8 39L8 38L9 38L9 42L10 42L10 43L11 43L11 41L12 41L12 42L13 42L13 43L12 43L12 44L14 44L14 40L15 40L15 45L14 45L14 46L13 46L13 49L12 49L12 47L11 47L11 48L10 48L10 49L9 49L9 46L8 46L8 45L7 45L7 44L9 44L9 43L7 43L7 42L8 42L8 40L6 40L6 41L7 41L7 42L6 42L6 43L5 43L5 42L1 42L1 43L2 43L2 44L0 44L0 45L1 45L1 46L0 46L0 48L1 48L1 49L2 49L2 51L0 51L0 52L2 52L2 53L4 53L4 52L2 52L2 51L5 51L5 52L6 52L6 53L7 53L7 54L5 54L5 56L4 56L4 57L3 57L3 58L2 58L2 59L3 59L3 58L4 58L4 59L7 59L7 58L9 58L9 57L11 57L11 58L12 58L12 59L10 59L10 61L9 61L9 59L8 59L8 60L6 60L6 61L8 61L8 63L9 63L9 64L10 64L10 65L12 65L12 66L9 66L9 65L8 65L8 66L9 66L9 67L8 67L8 69L9 69L9 67L11 67L11 68L10 68L10 69L11 69L11 68L13 68L13 69L14 69L14 68L13 68L13 67L15 67L15 68L16 68L16 67L17 67L17 68L18 68L18 69L21 69L21 68L19 68L19 67L22 67L22 69L26 69L26 68L27 68L27 69L29 69L29 68L30 68L30 69L32 69L32 65L38 65L38 66L39 66L39 69L41 69L41 68L40 68L40 66L39 66L39 65L40 65L40 64L41 64L41 66L42 66L42 65L43 65L43 64L44 64L44 66L45 66L45 67L44 67L44 68L43 68L43 69L44 69L44 68L45 68L45 69L47 69L47 68L48 68L48 69L49 69L49 68L48 68L48 67L49 67L49 65L50 65L50 67L51 67L51 68L50 68L50 69L53 69L53 68L54 68L54 69L56 69L56 68L57 68L57 69L59 69L59 67L61 67L61 68L60 68L60 69L62 69L62 67L63 67L63 69L68 69L68 68L64 68L64 67L67 67L67 66L68 66L68 67L69 67L69 64L68 64L68 62L69 62L69 61L68 61L68 60L66 60L66 59L67 59L67 56L64 56L64 55L66 55L66 53L67 53L67 55L69 55L69 54L68 54L68 53L69 53L69 52L65 52L65 51L66 51L66 50L65 50L65 49L64 49L64 48L66 48L66 47L67 47L67 46L68 46L68 47L69 47L69 46L68 46L68 44L69 44L69 41L67 41L67 40L68 40L68 38L66 38L66 39L67 39L67 40L66 40L66 41L67 41L67 42L65 42L65 43L64 43L64 45L65 45L65 46L66 46L66 47L64 47L64 46L63 46L63 45L61 45L61 44L62 44L62 43L63 43L63 42L62 42L62 38L63 38L63 40L64 40L64 41L65 41L65 36L66 36L66 37L69 37L69 36L68 36L68 35L69 35L69 33L68 33L68 31L69 31L69 30L67 30L67 29L66 29L66 27L67 27L67 28L68 28L68 29L69 29L69 28L68 28L68 26L69 26L69 25L68 25L68 23L69 23L69 21L68 21L68 19L69 19L69 18L67 18L67 21L65 21L65 20L66 20L66 18L65 18L65 17L64 17L64 15L65 15L65 14L66 14L66 15L68 15L68 13L69 13L69 10L68 10L68 8L66 8L66 9L65 9L65 8L62 8L62 9L64 9L64 12L63 12L63 13L64 13L64 15L62 15L62 12L61 12L61 14L60 14L60 12L55 12L55 14L57 14L57 13L58 13L58 15L59 15L59 16L60 16L60 17L59 17L59 18L58 18L58 21L59 21L59 22L57 22L57 21L55 21L55 22L53 22L53 20L52 20L52 19L53 19L53 18L54 18L54 20L57 20L57 17L58 17L58 16L56 16L56 17L55 17L55 18L54 18L54 15L52 15L52 16L53 16L53 18L52 18L52 19L50 19L50 20L48 20L48 21L47 21L47 24L48 24L48 26L47 26L47 25L46 25L46 23L44 23L44 22L43 22L43 24L42 24L42 23L41 23L41 20L40 20L40 19L39 19L39 17L40 17L40 11L41 11L41 12L43 12L43 13L44 13L44 14L43 14L43 15L41 15L41 16L42 16L42 17L41 17L41 19L43 19L43 18L45 18L45 15L47 15L47 17L48 17L48 19L49 19L49 15L48 15L48 14L47 14L47 13L49 13L49 14L50 14L50 12L49 12L49 11L52 11L52 10L53 10L53 12L51 12L51 14L52 14L52 13L53 13L53 12L54 12L54 11L59 11L59 10L58 10L58 9L59 9L59 8L60 8L60 9L61 9L61 8L60 8L60 7L61 7L61 6L60 6L60 7L59 7L59 4L55 4L55 2L56 2L56 1L55 1L55 0L54 0L54 4L53 4L53 5L52 5L52 4L51 4L51 3L49 3L49 4L50 4L50 5L49 5L49 6L48 6L48 7L49 7L49 8L48 8L48 9L52 9L52 10L49 10L49 11L48 11L48 12L46 12L46 10L45 10L45 9L44 9L44 8L43 8L43 6L44 6L44 7L45 7L45 8L46 8L46 9L47 9L47 6L46 6L46 3L47 3L47 2L50 2L50 1L51 1L51 2L52 2L52 3L53 3L53 1L52 1L52 0L49 0L49 1L47 1L47 0L45 0L45 2L44 2L44 3L45 3L45 4L44 4L44 5L43 5L43 4L42 4L42 3L41 3L41 2L42 2L42 1L43 1L43 0L41 0L41 2L40 2L40 1L39 1L39 0L36 0L36 1L38 1L38 2L39 2L39 3L41 3L41 4L40 4L40 7L41 7L41 8L39 8L39 4L36 4L36 2L35 2L35 0L32 0L32 2L31 2L31 1L30 1L30 0L29 0L29 3L30 3L30 2L31 2L31 3L32 3L32 2L33 2L33 4L32 4L32 5L28 5L28 0L26 0L26 1L27 1L27 5L26 5L26 7L25 7L25 4L26 4L26 2L25 2L25 0L23 0L23 1L21 1L21 0L20 0L20 1L19 1L19 0L17 0L17 1L16 1L16 0L15 0L15 3L14 3L14 2L12 2L12 1L14 1L14 0ZM57 0L57 1L61 1L61 0ZM10 1L10 2L9 2L9 3L11 3L11 4L12 4L12 6L11 6L11 8L8 8L8 10L9 10L9 12L10 12L10 14L11 14L11 16L10 16L10 17L9 17L9 18L8 18L8 17L6 17L6 16L7 16L7 15L6 15L6 16L5 16L5 15L4 15L4 16L3 16L3 14L2 14L2 15L1 15L1 17L2 17L2 18L1 18L1 19L2 19L2 18L3 18L3 20L4 20L4 19L6 19L6 20L5 20L5 21L6 21L6 22L7 22L7 21L8 21L8 20L9 20L9 22L10 22L10 23L11 23L11 24L9 24L9 23L6 23L6 24L7 24L7 25L6 25L6 26L5 26L5 27L6 27L6 28L7 28L7 27L6 27L6 26L8 26L8 25L12 25L12 26L11 26L11 27L10 27L10 26L9 26L9 28L10 28L10 29L8 29L8 30L7 30L7 29L6 29L6 30L7 30L7 31L8 31L8 32L10 32L10 31L8 31L8 30L10 30L10 29L11 29L11 27L12 27L12 31L11 31L11 32L13 32L13 33L12 33L12 34L10 34L10 33L9 33L9 34L10 34L10 35L9 35L9 38L13 38L13 39L12 39L12 41L13 41L13 40L14 40L14 39L15 39L15 38L16 38L16 37L17 37L17 36L19 36L19 37L18 37L18 40L20 40L20 41L18 41L18 42L17 42L17 40L16 40L16 42L17 42L17 43L18 43L18 42L20 42L20 41L21 41L21 43L22 43L22 42L23 42L23 45L22 45L22 46L24 46L24 47L23 47L23 49L21 49L21 51L23 51L23 50L24 50L24 52L22 52L22 53L21 53L21 54L22 54L22 58L23 58L23 57L24 57L24 58L25 58L25 59L22 59L22 60L20 60L20 58L21 58L21 57L20 57L20 56L21 56L21 55L20 55L20 56L19 56L19 54L20 54L20 53L18 53L18 54L17 54L17 53L15 53L15 54L16 54L16 55L14 55L14 56L13 56L13 57L12 57L12 55L13 55L13 54L14 54L14 53L13 53L13 52L16 52L16 49L17 49L17 48L18 48L18 50L17 50L17 51L19 51L19 52L20 52L20 50L19 50L19 49L20 49L20 46L21 46L21 44L19 44L19 45L18 45L18 44L17 44L17 45L15 45L15 46L14 46L14 49L13 49L13 50L14 50L14 51L13 51L13 52L12 52L12 54L11 54L11 57L12 57L12 58L14 58L14 59L15 59L15 60L13 60L13 59L12 59L12 60L13 60L13 61L10 61L10 62L9 62L9 63L11 63L11 64L13 64L13 61L14 61L14 65L13 65L13 66L12 66L12 67L13 67L13 66L14 66L14 65L15 65L15 66L17 66L17 65L18 65L18 66L19 66L19 65L20 65L20 64L21 64L21 62L26 62L26 61L25 61L25 59L26 59L26 58L27 58L27 59L28 59L28 60L27 60L27 63L28 63L28 64L25 64L25 65L24 65L24 66L25 66L25 65L27 65L27 66L26 66L26 67L24 67L24 68L26 68L26 67L27 67L27 68L29 68L29 67L31 67L31 65L32 65L32 61L31 61L31 65L30 65L30 66L28 66L28 65L29 65L29 62L28 62L28 60L30 60L30 59L31 59L31 60L32 60L32 59L31 59L31 57L33 57L33 58L34 58L34 59L33 59L33 60L35 60L35 59L36 59L36 60L37 60L37 61L38 61L38 63L39 63L39 61L40 61L40 60L42 60L42 61L41 61L41 62L43 62L43 63L44 63L44 62L43 62L43 60L44 60L44 59L42 59L42 58L43 58L43 56L44 56L44 58L45 58L45 65L46 65L46 68L47 68L47 67L48 67L48 66L47 66L47 64L49 64L49 63L50 63L50 65L51 65L51 67L54 67L54 68L56 68L56 67L54 67L54 66L55 66L55 65L56 65L56 66L61 66L61 67L62 67L62 65L60 65L60 64L59 64L59 65L58 65L58 63L59 63L59 62L60 62L60 59L61 59L61 60L62 60L62 57L63 57L63 60L65 60L65 57L64 57L64 56L62 56L62 55L61 55L61 54L60 54L60 52L59 52L59 51L60 51L60 47L61 47L61 49L62 49L62 50L61 50L61 53L62 53L62 54L65 54L65 52L64 52L64 51L65 51L65 50L63 50L63 48L62 48L62 46L61 46L61 45L57 45L57 44L59 44L59 43L61 43L61 42L60 42L60 39L57 39L57 38L58 38L58 37L59 37L59 38L61 38L61 37L60 37L60 35L59 35L59 33L60 33L60 32L62 32L62 31L61 31L61 30L62 30L62 29L60 29L60 31L59 31L59 29L58 29L58 27L57 27L57 26L58 26L58 25L59 25L59 28L63 28L63 29L65 29L65 31L64 31L64 30L63 30L63 32L65 32L65 33L66 33L66 36L67 36L67 35L68 35L68 34L67 34L67 30L66 30L66 29L65 29L65 28L64 28L64 27L66 27L66 26L68 26L68 25L64 25L64 27L61 27L61 26L63 26L63 25L61 25L61 24L62 24L62 22L63 22L63 23L64 23L64 22L63 22L63 18L62 18L62 16L61 16L61 15L60 15L60 14L59 14L59 15L60 15L60 16L61 16L61 17L60 17L60 18L61 18L61 19L60 19L60 20L59 20L59 21L60 21L60 22L59 22L59 23L58 23L58 24L57 24L57 25L53 25L53 26L52 26L52 25L51 25L51 24L53 24L53 23L52 23L52 22L51 22L51 21L48 21L48 22L50 22L50 23L49 23L49 25L50 25L50 26L49 26L49 30L50 30L50 29L51 29L51 27L50 27L50 26L52 26L52 27L53 27L53 28L52 28L52 29L54 29L54 30L55 30L55 29L56 29L56 28L55 28L55 26L56 26L56 27L57 27L57 31L56 31L56 33L57 33L57 34L56 34L56 35L55 35L55 31L54 31L54 33L52 33L52 35L51 35L51 32L49 32L49 31L47 31L47 32L44 32L44 31L43 31L43 29L44 29L44 30L47 30L47 29L46 29L46 28L45 28L45 27L46 27L46 25L42 25L42 24L41 24L41 23L38 23L38 24L37 24L37 23L34 23L34 21L35 21L35 20L34 20L34 18L35 18L35 19L36 19L36 21L37 21L37 22L38 22L38 20L37 20L37 19L38 19L38 17L39 17L39 16L37 16L37 19L36 19L36 18L35 18L35 16L36 16L36 14L37 14L37 12L38 12L38 15L39 15L39 12L38 12L38 10L39 10L39 11L40 11L40 10L39 10L39 9L38 9L38 5L37 5L37 9L36 9L36 11L34 11L34 9L32 9L32 8L29 8L29 9L27 9L27 8L28 8L28 5L27 5L27 7L26 7L26 9L25 9L25 10L24 10L24 9L22 9L22 6L23 6L23 8L25 8L25 7L24 7L24 5L22 5L22 6L21 6L21 5L18 5L18 4L20 4L20 3L21 3L21 1L20 1L20 2L19 2L19 1L17 1L17 2L18 2L18 3L17 3L17 5L16 5L16 6L15 6L15 7L14 7L14 6L13 6L13 4L14 4L14 5L15 5L15 4L14 4L14 3L13 3L13 4L12 4L12 3L11 3L11 1ZM33 1L33 2L34 2L34 1ZM46 1L46 2L47 2L47 1ZM23 2L23 3L22 3L22 4L25 4L25 3L24 3L24 2ZM58 2L58 3L59 3L59 2ZM34 3L34 4L35 4L35 3ZM60 3L60 5L61 5L61 3ZM33 5L33 8L36 8L36 5ZM41 5L41 7L42 7L42 5ZM44 5L44 6L45 6L45 7L46 7L46 6L45 6L45 5ZM53 5L53 7L54 7L54 8L53 8L53 10L55 10L55 9L54 9L54 8L55 8L55 7L56 7L56 6L55 6L55 5ZM9 6L9 7L10 7L10 6ZM12 6L12 8L11 8L11 9L9 9L9 10L10 10L10 12L12 12L12 13L11 13L11 14L12 14L12 13L14 13L14 14L13 14L13 15L12 15L12 17L13 17L13 18L10 18L10 19L9 19L9 20L10 20L10 22L11 22L11 23L12 23L12 24L14 24L14 25L13 25L13 26L12 26L12 27L13 27L13 26L14 26L14 25L15 25L15 24L16 24L16 25L17 25L17 27L16 27L16 29L17 29L17 30L16 30L16 33L19 33L19 34L17 34L17 35L19 35L19 36L20 36L20 37L19 37L19 38L20 38L20 40L21 40L21 38L20 38L20 37L23 37L23 38L22 38L22 39L23 39L23 40L24 40L24 41L23 41L23 42L27 42L27 43L26 43L26 44L25 44L25 43L24 43L24 45L26 45L26 44L27 44L27 45L28 45L28 44L30 44L30 45L29 45L29 46L25 46L25 47L24 47L24 49L25 49L25 50L26 50L26 51L27 51L27 52L26 52L26 53L25 53L25 52L24 52L24 53L23 53L23 54L24 54L24 55L23 55L23 56L24 56L24 57L26 57L26 56L27 56L27 57L31 57L31 56L32 56L32 55L33 55L33 54L32 54L32 52L28 52L28 51L30 51L30 49L31 49L31 50L33 50L33 49L34 49L34 51L37 51L37 50L38 50L38 49L40 49L40 50L41 50L41 52L42 52L42 51L43 51L43 52L44 52L44 53L43 53L43 54L44 54L44 53L45 53L45 51L46 51L46 53L47 53L47 54L46 54L46 55L44 55L44 56L45 56L45 57L46 57L46 56L47 56L47 55L48 55L48 53L50 53L50 55L49 55L49 56L48 56L48 58L47 58L47 59L48 59L48 60L46 60L46 63L48 63L48 62L47 62L47 61L49 61L49 62L50 62L50 61L51 61L51 62L52 62L52 61L53 61L53 60L55 60L55 61L57 61L57 63L58 63L58 62L59 62L59 59L58 59L58 58L55 58L55 59L52 59L52 58L53 58L53 57L54 57L54 56L53 56L53 55L54 55L54 54L53 54L53 53L55 53L55 55L56 55L56 56L55 56L55 57L56 57L56 56L58 56L58 55L59 55L59 57L62 57L62 56L61 56L61 55L59 55L59 54L58 54L58 55L56 55L56 54L57 54L57 51L56 51L56 50L57 50L57 47L55 47L55 48L50 48L50 49L49 49L49 47L48 47L48 48L46 48L46 47L47 47L47 46L45 46L45 45L46 45L46 44L47 44L47 43L48 43L48 45L49 45L49 46L50 46L50 43L51 43L51 42L52 42L52 44L51 44L51 45L53 45L53 44L54 44L54 43L55 43L55 42L54 42L54 41L55 41L55 38L54 38L54 41L52 41L52 39L53 39L53 38L50 38L50 36L51 36L51 37L53 37L53 36L54 36L54 37L57 37L57 36L59 36L59 35L58 35L58 34L57 34L57 35L56 35L56 36L54 36L54 35L53 35L53 36L51 36L51 35L50 35L50 34L49 34L49 36L48 36L48 33L49 33L49 32L48 32L48 33L47 33L47 37L46 37L46 38L47 38L47 37L48 37L48 38L50 38L50 39L45 39L45 36L44 36L44 34L45 34L45 35L46 35L46 34L45 34L45 33L44 33L44 32L43 32L43 35L41 35L41 33L42 33L42 32L40 32L40 31L41 31L41 30L40 30L40 31L37 31L37 30L35 30L35 29L34 29L34 30L35 30L35 31L37 31L37 32L32 32L32 31L33 31L33 30L32 30L32 31L31 31L31 32L30 32L30 33L29 33L29 31L28 31L28 29L29 29L29 30L31 30L31 29L32 29L32 28L33 28L33 27L32 27L32 28L31 28L31 26L34 26L34 25L37 25L37 24L34 24L34 25L31 25L31 24L30 24L30 23L31 23L31 21L33 21L33 20L32 20L32 19L33 19L33 18L32 18L32 19L31 19L31 18L30 18L30 17L32 17L32 16L30 16L30 15L31 15L31 13L33 13L33 14L32 14L32 15L33 15L33 17L34 17L34 15L35 15L35 14L36 14L36 12L37 12L37 11L36 11L36 12L35 12L35 13L33 13L33 10L32 10L32 11L31 11L31 10L30 10L30 9L29 9L29 12L30 12L30 15L29 15L29 13L28 13L28 14L27 14L27 12L26 12L26 11L23 11L23 10L22 10L22 11L21 11L21 10L20 10L20 11L21 11L21 12L20 12L20 13L19 13L19 12L18 12L18 11L19 11L19 10L18 10L18 9L19 9L19 8L20 8L20 9L21 9L21 8L20 8L20 7L21 7L21 6L20 6L20 7L19 7L19 6L18 6L18 7L19 7L19 8L18 8L18 9L15 9L15 10L16 10L16 13L15 13L15 12L14 12L14 10L13 10L13 9L14 9L14 8L13 8L13 6ZM16 6L16 8L17 8L17 6ZM29 6L29 7L30 7L30 6ZM31 6L31 7L32 7L32 6ZM34 6L34 7L35 7L35 6ZM49 6L49 7L50 7L50 8L52 8L52 6L51 6L51 7L50 7L50 6ZM54 6L54 7L55 7L55 6ZM57 6L57 8L56 8L56 9L57 9L57 8L59 8L59 7L58 7L58 6ZM12 8L12 9L11 9L11 11L12 11L12 9L13 9L13 8ZM42 8L42 9L41 9L41 10L42 10L42 11L43 11L43 10L44 10L44 9L43 9L43 8ZM6 9L6 10L7 10L7 9ZM17 10L17 11L18 11L18 10ZM27 10L27 11L28 11L28 10ZM60 10L60 11L63 11L63 10ZM65 10L65 11L66 11L66 12L65 12L65 13L66 13L66 12L67 12L67 11L68 11L68 10ZM22 11L22 12L23 12L23 11ZM30 11L30 12L31 12L31 11ZM44 11L44 12L45 12L45 11ZM16 13L16 14L14 14L14 15L13 15L13 16L14 16L14 18L16 18L16 19L17 19L17 18L19 18L19 19L22 19L22 18L21 18L21 17L19 17L19 16L18 16L18 17L17 17L17 15L19 15L19 13ZM20 13L20 16L21 16L21 15L22 15L22 14L21 14L21 13ZM23 13L23 14L25 14L25 15L23 15L23 16L22 16L22 17L23 17L23 16L28 16L28 18L29 18L29 15L27 15L27 14L26 14L26 13ZM41 13L41 14L42 14L42 13ZM45 13L45 14L46 14L46 13ZM8 14L8 15L9 15L9 14ZM43 16L43 17L42 17L42 18L43 18L43 17L44 17L44 16ZM66 16L66 17L68 17L68 16ZM16 17L16 18L17 18L17 17ZM24 17L24 18L23 18L23 19L25 19L25 20L26 20L26 22L25 22L25 21L24 21L24 20L23 20L23 21L22 21L22 22L25 22L25 23L23 23L23 24L22 24L22 25L23 25L23 24L25 24L25 25L24 25L24 26L23 26L23 27L24 27L24 28L25 28L25 29L24 29L24 30L22 30L22 29L23 29L23 28L22 28L22 29L21 29L21 28L20 28L20 29L19 29L19 31L18 31L18 30L17 30L17 32L19 32L19 31L21 31L21 32L20 32L20 34L19 34L19 35L20 35L20 34L21 34L21 32L23 32L23 31L25 31L25 32L26 32L26 31L27 31L27 33L26 33L26 35L24 35L24 38L23 38L23 39L24 39L24 38L25 38L25 41L26 41L26 40L27 40L27 38L28 38L28 40L29 40L29 39L32 39L32 40L33 40L33 39L34 39L34 42L35 42L35 44L37 44L37 45L35 45L35 47L33 47L33 46L34 46L34 43L33 43L33 45L32 45L32 44L31 44L31 43L32 43L32 42L33 42L33 41L32 41L32 42L31 42L31 40L30 40L30 41L28 41L28 42L29 42L29 43L30 43L30 44L31 44L31 45L30 45L30 46L29 46L29 47L27 47L27 48L30 48L30 47L31 47L31 45L32 45L32 47L33 47L33 48L35 48L35 50L36 50L36 49L38 49L38 46L39 46L39 42L40 42L40 43L41 43L41 44L40 44L40 45L42 45L42 47L43 47L43 48L44 48L44 47L43 47L43 45L42 45L42 44L43 44L43 43L44 43L44 45L45 45L45 44L46 44L46 43L47 43L47 40L46 40L46 41L45 41L45 42L44 42L44 40L45 40L45 39L44 39L44 40L43 40L43 41L42 41L42 42L43 42L43 43L41 43L41 42L40 42L40 41L41 41L41 40L40 40L40 41L39 41L39 38L40 38L40 37L37 37L37 38L36 38L36 37L35 37L35 38L33 38L33 39L32 39L32 37L29 37L29 38L28 38L28 31L27 31L27 30L26 30L26 28L27 28L27 27L28 27L28 28L29 28L29 26L31 26L31 25L30 25L30 24L28 24L28 22L29 22L29 23L30 23L30 22L29 22L29 21L30 21L30 20L31 20L31 19L30 19L30 20L29 20L29 21L27 21L27 20L26 20L26 17ZM50 17L50 18L51 18L51 17ZM6 18L6 19L7 19L7 20L6 20L6 21L7 21L7 20L8 20L8 18ZM46 18L46 20L45 20L45 21L46 21L46 20L47 20L47 18ZM13 19L13 20L12 20L12 23L14 23L14 24L15 24L15 23L14 23L14 21L13 21L13 20L15 20L15 19ZM61 19L61 21L62 21L62 19ZM19 20L19 22L21 22L21 21L20 21L20 20ZM42 20L42 21L44 21L44 20ZM15 21L15 22L16 22L16 23L17 23L17 22L18 22L18 21ZM26 22L26 23L25 23L25 24L26 24L26 25L25 25L25 26L24 26L24 27L25 27L25 28L26 28L26 27L27 27L27 26L29 26L29 25L28 25L28 24L26 24L26 23L27 23L27 22ZM55 22L55 23L54 23L54 24L55 24L55 23L56 23L56 22ZM60 22L60 23L59 23L59 25L60 25L60 23L61 23L61 22ZM65 22L65 23L66 23L66 24L67 24L67 23L68 23L68 22L67 22L67 23L66 23L66 22ZM19 23L19 25L20 25L20 26L18 26L18 27L17 27L17 29L18 29L18 28L19 28L19 27L21 27L21 24L20 24L20 23ZM32 23L32 24L33 24L33 23ZM50 23L50 24L51 24L51 23ZM0 24L0 25L1 25L1 24ZM39 24L39 25L40 25L40 26L41 26L41 24ZM35 26L35 27L39 27L39 26ZM42 26L42 27L41 27L41 28L42 28L42 29L43 29L43 28L44 28L44 29L45 29L45 28L44 28L44 27L45 27L45 26ZM53 26L53 27L54 27L54 26ZM14 27L14 29L13 29L13 32L14 32L14 33L15 33L15 30L14 30L14 29L15 29L15 27ZM42 27L42 28L43 28L43 27ZM36 28L36 29L37 29L37 28ZM54 28L54 29L55 29L55 28ZM20 29L20 30L21 30L21 29ZM38 29L38 30L39 30L39 29ZM25 30L25 31L26 31L26 30ZM37 32L37 34L40 34L40 33L38 33L38 32ZM5 33L5 36L8 36L8 33ZM22 33L22 34L25 34L25 33ZM31 33L31 34L29 34L29 36L32 36L32 35L31 35L31 34L32 34L32 33ZM33 33L33 36L36 36L36 33ZM61 33L61 36L64 36L64 33ZM1 34L1 37L2 37L2 35L3 35L3 37L4 37L4 35L3 35L3 34ZM6 34L6 35L7 35L7 34ZM12 34L12 35L11 35L11 36L10 36L10 37L11 37L11 36L14 36L14 37L13 37L13 38L14 38L14 37L15 37L15 36L16 36L16 35L15 35L15 34ZM34 34L34 35L35 35L35 34ZM62 34L62 35L63 35L63 34ZM21 35L21 36L23 36L23 35ZM26 35L26 36L25 36L25 38L27 38L27 35ZM40 35L40 36L41 36L41 39L42 39L42 38L43 38L43 37L42 37L42 36L41 36L41 35ZM37 38L37 39L38 39L38 38ZM2 39L2 40L0 40L0 41L5 41L5 39ZM50 39L50 40L49 40L49 43L50 43L50 40L51 40L51 39ZM35 40L35 42L36 42L36 43L37 43L37 44L38 44L38 43L37 43L37 42L36 42L36 40ZM37 40L37 41L38 41L38 42L39 42L39 41L38 41L38 40ZM56 40L56 41L57 41L57 40ZM58 40L58 41L59 41L59 40ZM30 42L30 43L31 43L31 42ZM45 42L45 43L46 43L46 42ZM53 42L53 43L54 43L54 42ZM56 42L56 43L58 43L58 42ZM3 43L3 44L2 44L2 45L3 45L3 44L4 44L4 46L5 46L5 49L4 49L4 48L2 48L2 47L1 47L1 48L2 48L2 49L3 49L3 50L7 50L7 51L6 51L6 52L9 52L9 51L8 51L8 50L9 50L9 49L8 49L8 46L7 46L7 45L6 45L6 44L7 44L7 43L6 43L6 44L5 44L5 43ZM65 43L65 45L66 45L66 46L67 46L67 45L66 45L66 44L68 44L68 43ZM10 44L10 45L11 45L11 46L12 46L12 45L11 45L11 44ZM55 44L55 46L57 46L57 45L56 45L56 44ZM6 46L6 47L7 47L7 46ZM16 46L16 47L15 47L15 49L14 49L14 50L15 50L15 49L16 49L16 48L17 48L17 47L18 47L18 48L19 48L19 47L18 47L18 46ZM36 46L36 47L35 47L35 48L37 48L37 46ZM59 46L59 47L60 47L60 46ZM25 47L25 49L26 49L26 50L27 50L27 49L26 49L26 47ZM40 47L40 48L41 48L41 50L44 50L44 49L42 49L42 48L41 48L41 47ZM6 48L6 49L7 49L7 48ZM31 48L31 49L32 49L32 48ZM45 48L45 50L46 50L46 48ZM11 49L11 50L10 50L10 53L9 53L9 55L6 55L6 56L7 56L7 57L5 57L5 58L7 58L7 57L9 57L9 55L10 55L10 53L11 53L11 51L12 51L12 49ZM50 49L50 51L48 51L48 52L50 52L50 53L51 53L51 54L52 54L52 55L53 55L53 54L52 54L52 53L53 53L53 52L56 52L56 51L54 51L54 50L56 50L56 49L53 49L53 51L52 51L52 53L51 53L51 52L50 52L50 51L51 51L51 50L52 50L52 49ZM58 49L58 51L59 51L59 49ZM67 49L67 51L68 51L68 50L69 50L69 49ZM38 51L38 52L36 52L36 54L35 54L35 55L34 55L34 56L33 56L33 57L35 57L35 58L38 58L38 57L39 57L39 58L40 58L40 59L37 59L37 60L38 60L38 61L39 61L39 60L40 60L40 59L41 59L41 56L40 56L40 55L42 55L42 53L40 53L40 51ZM62 51L62 52L63 52L63 51ZM38 52L38 53L37 53L37 55L35 55L35 56L36 56L36 57L37 57L37 56L39 56L39 55L40 55L40 54L39 54L39 52ZM24 53L24 54L25 54L25 56L26 56L26 54L25 54L25 53ZM28 53L28 54L29 54L29 56L31 56L31 55L32 55L32 54L31 54L31 55L30 55L30 53ZM1 54L1 56L0 56L0 57L1 57L1 56L3 56L3 55L4 55L4 54ZM38 54L38 55L39 55L39 54ZM16 55L16 60L15 60L15 61L16 61L16 62L15 62L15 64L16 64L16 65L17 65L17 63L19 63L19 64L18 64L18 65L19 65L19 64L20 64L20 63L19 63L19 61L20 61L20 60L18 60L18 59L19 59L19 58L17 58L17 56L18 56L18 57L19 57L19 56L18 56L18 55ZM49 56L49 57L50 57L50 58L48 58L48 59L49 59L49 61L50 61L50 59L51 59L51 60L52 60L52 59L51 59L51 56ZM68 56L68 57L69 57L69 56ZM0 58L0 61L1 61L1 58ZM29 58L29 59L30 59L30 58ZM68 58L68 59L69 59L69 58ZM3 60L3 61L5 61L5 60ZM22 60L22 61L23 61L23 60ZM17 61L17 62L18 62L18 61ZM33 61L33 64L36 64L36 61ZM61 61L61 64L64 64L64 61ZM65 61L65 62L68 62L68 61ZM11 62L11 63L12 63L12 62ZM34 62L34 63L35 63L35 62ZM54 62L54 63L53 63L53 64L56 64L56 65L57 65L57 64L56 64L56 63L55 63L55 62ZM62 62L62 63L63 63L63 62ZM65 63L65 65L66 65L66 66L67 66L67 65L68 65L68 64L67 64L67 63ZM22 64L22 65L21 65L21 66L23 66L23 64ZM38 64L38 65L39 65L39 64ZM51 64L51 65L52 65L52 66L54 66L54 65L52 65L52 64ZM63 65L63 66L64 66L64 65ZM33 66L33 67L34 67L34 68L33 68L33 69L34 69L34 68L35 68L35 69L38 69L38 68L35 68L35 67L34 67L34 66ZM36 66L36 67L37 67L37 66ZM57 67L57 68L58 68L58 67ZM0 0L0 7L7 7L7 0ZM1 1L1 6L6 6L6 1ZM2 2L2 5L5 5L5 2ZM62 0L62 7L69 7L69 0ZM63 1L63 6L68 6L68 1ZM64 2L64 5L67 5L67 2ZM0 62L0 69L7 69L7 62ZM1 63L1 68L6 68L6 63ZM2 64L2 67L5 67L5 64Z" fill="#000000"/></g></g></svg>
