<?xml version="1.0" encoding="UTF-8"?>
<svg xmlns="http://www.w3.org/2000/svg" version="1.1" width="300" height="300" viewBox="0 0 300 300"><rect x="0" y="0" width="300" height="300" fill="#ffffff"/><g transform="scale(4.348)"><g transform="translate(0,0)"><path fill-rule="evenodd" d="M8 0L8 2L10 2L10 0ZM11 0L11 3L9 3L9 4L8 4L8 9L7 9L7 8L5 8L5 10L6 10L6 11L7 11L7 12L5 12L5 13L8 13L8 14L10 14L10 16L9 16L9 15L8 15L8 16L6 16L6 17L10 17L10 18L9 18L9 21L10 21L10 22L6 22L6 21L8 21L8 18L5 18L5 15L7 15L7 14L4 14L4 10L2 10L2 9L3 9L3 8L0 8L0 11L1 11L1 10L2 10L2 12L3 12L3 13L2 13L2 14L1 14L1 16L0 16L0 19L1 19L1 20L2 20L2 19L4 19L4 21L5 21L5 23L4 23L4 22L3 22L3 21L2 21L2 22L3 22L3 23L4 23L4 24L2 24L2 23L1 23L1 24L0 24L0 27L1 27L1 28L0 28L0 29L1 29L1 28L2 28L2 29L3 29L3 28L2 28L2 25L5 25L5 23L8 23L8 24L6 24L6 25L7 25L7 26L6 26L6 27L5 27L5 28L4 28L4 29L8 29L8 30L2 30L2 31L4 31L4 35L3 35L3 34L2 34L2 33L3 33L3 32L0 32L0 33L1 33L1 34L2 34L2 35L3 35L3 36L4 36L4 37L3 37L3 38L2 38L2 40L1 40L1 39L0 39L0 40L1 40L1 42L0 42L0 43L1 43L1 44L0 44L0 46L1 46L1 45L2 45L2 47L3 47L3 46L4 46L4 48L6 48L6 49L5 49L5 50L6 50L6 51L7 51L7 50L8 50L8 52L5 52L5 51L3 51L3 52L5 52L5 53L4 53L4 55L5 55L5 56L6 56L6 57L8 57L8 59L7 59L7 58L5 58L5 57L4 57L4 59L7 59L7 60L6 60L6 61L8 61L8 62L9 62L9 61L10 61L10 60L9 60L9 61L8 61L8 59L10 59L10 58L9 58L9 57L11 57L11 55L12 55L12 54L9 54L9 53L8 53L8 52L12 52L12 53L14 53L14 52L12 52L12 51L13 51L13 50L15 50L15 51L16 51L16 52L17 52L17 51L18 51L18 53L17 53L17 54L16 54L16 53L15 53L15 54L16 54L16 55L15 55L15 56L13 56L13 58L12 58L12 61L11 61L11 62L10 62L10 63L8 63L8 64L10 64L10 65L11 65L11 66L12 66L12 65L11 65L11 64L12 64L12 63L11 63L11 62L12 62L12 61L13 61L13 63L14 63L14 62L16 62L16 64L13 64L13 65L14 65L14 67L16 67L16 64L17 64L17 66L18 66L18 69L19 69L19 66L18 66L18 65L19 65L19 64L18 64L18 63L19 63L19 60L18 60L18 57L19 57L19 58L20 58L20 57L21 57L21 56L20 56L20 57L19 57L19 56L18 56L18 55L19 55L19 54L20 54L20 53L21 53L21 54L22 54L22 53L23 53L23 54L24 54L24 55L22 55L22 56L24 56L24 57L25 57L25 58L24 58L24 59L25 59L25 58L26 58L26 59L28 59L28 61L27 61L27 60L26 60L26 61L27 61L27 62L28 62L28 61L29 61L29 63L30 63L30 61L31 61L31 59L32 59L32 62L31 62L31 64L30 64L30 65L31 65L31 64L32 64L32 66L33 66L33 67L34 67L34 68L32 68L32 69L34 69L34 68L35 68L35 69L37 69L37 68L36 68L36 67L37 67L37 66L38 66L38 65L39 65L39 66L40 66L40 65L41 65L41 68L40 68L40 69L42 69L42 65L43 65L43 67L44 67L44 69L45 69L45 67L44 67L44 65L47 65L47 64L46 64L46 63L48 63L48 66L49 66L49 67L46 67L46 69L47 69L47 68L48 68L48 69L51 69L51 68L50 68L50 67L51 67L51 66L52 66L52 67L53 67L53 66L54 66L54 68L52 68L52 69L54 69L54 68L56 68L56 69L57 69L57 68L58 68L58 69L59 69L59 68L58 68L58 67L57 67L57 68L56 68L56 67L55 67L55 66L56 66L56 65L57 65L57 64L58 64L58 65L65 65L65 66L64 66L64 68L63 68L63 69L67 69L67 68L66 68L66 67L65 67L65 66L66 66L66 63L67 63L67 64L68 64L68 63L69 63L69 62L68 62L68 61L67 61L67 62L66 62L66 61L65 61L65 60L66 60L66 58L67 58L67 56L68 56L68 59L67 59L67 60L68 60L68 59L69 59L69 56L68 56L68 55L69 55L69 52L68 52L68 51L69 51L69 46L68 46L68 45L69 45L69 44L68 44L68 45L67 45L67 44L66 44L66 43L69 43L69 41L68 41L68 39L69 39L69 38L68 38L68 39L67 39L67 38L66 38L66 39L65 39L65 38L64 38L64 40L65 40L65 41L66 41L66 42L64 42L64 43L65 43L65 44L64 44L64 45L63 45L63 42L62 42L62 44L61 44L61 43L60 43L60 44L58 44L58 43L59 43L59 42L58 42L58 41L60 41L60 40L62 40L62 41L63 41L63 37L65 37L65 36L66 36L66 37L67 37L67 36L66 36L66 35L65 35L65 32L66 32L66 30L68 30L68 32L67 32L67 33L68 33L68 37L69 37L69 33L68 33L68 32L69 32L69 28L67 28L67 29L66 29L66 27L67 27L67 26L68 26L68 27L69 27L69 26L68 26L68 25L66 25L66 23L67 23L67 24L68 24L68 23L69 23L69 20L68 20L68 19L69 19L69 13L68 13L68 12L69 12L69 8L67 8L67 9L66 9L66 10L65 10L65 11L64 11L64 10L62 10L62 9L65 9L65 8L61 8L61 6L60 6L60 8L61 8L61 11L62 11L62 13L61 13L61 14L60 14L60 12L59 12L59 11L60 11L60 10L59 10L59 11L58 11L58 8L57 8L57 6L58 6L58 7L59 7L59 4L58 4L58 3L59 3L59 2L58 2L58 1L61 1L61 0L58 0L58 1L57 1L57 0L56 0L56 1L55 1L55 0L54 0L54 1L53 1L53 0L50 0L50 1L48 1L48 2L46 2L46 1L47 1L47 0L46 0L46 1L45 1L45 2L46 2L46 3L47 3L47 4L46 4L46 5L48 5L48 2L50 2L50 7L51 7L51 8L50 8L50 9L49 9L49 8L48 8L48 7L49 7L49 6L48 6L48 7L47 7L47 6L46 6L46 7L47 7L47 8L44 8L44 9L43 9L43 11L41 11L41 10L42 10L42 8L43 8L43 6L42 6L42 5L43 5L43 4L44 4L44 7L45 7L45 4L44 4L44 2L41 2L41 0L40 0L40 2L39 2L39 0L38 0L38 1L37 1L37 0L32 0L32 2L34 2L34 3L32 3L32 11L33 11L33 12L32 12L32 13L33 13L33 12L34 12L34 11L35 11L35 9L37 9L37 11L36 11L36 12L39 12L39 11L41 11L41 13L40 13L40 14L41 14L41 13L42 13L42 12L43 12L43 13L45 13L45 14L43 14L43 15L42 15L42 16L40 16L40 17L39 17L39 14L38 14L38 13L37 13L37 14L36 14L36 13L35 13L35 14L34 14L34 15L35 15L35 16L34 16L34 18L33 18L33 17L32 17L32 15L33 15L33 14L32 14L32 15L31 15L31 14L30 14L30 13L31 13L31 12L30 12L30 11L31 11L31 10L29 10L29 12L28 12L28 9L29 9L29 6L30 6L30 8L31 8L31 4L30 4L30 3L31 3L31 2L30 2L30 1L31 1L31 0L29 0L29 1L28 1L28 2L29 2L29 3L28 3L28 9L27 9L27 6L26 6L26 9L27 9L27 12L26 12L26 14L24 14L24 13L25 13L25 11L26 11L26 10L25 10L25 8L24 8L24 7L25 7L25 6L24 6L24 7L23 7L23 6L22 6L22 7L21 7L21 6L20 6L20 7L19 7L19 6L18 6L18 7L17 7L17 5L18 5L18 3L20 3L20 5L21 5L21 4L22 4L22 3L23 3L23 2L22 2L22 1L23 1L23 0L18 0L18 2L14 2L14 1L13 1L13 0ZM15 0L15 1L16 1L16 0ZM24 0L24 5L26 5L26 3L27 3L27 2L26 2L26 3L25 3L25 1L27 1L27 0ZM42 0L42 1L44 1L44 0ZM12 1L12 2L13 2L13 3L12 3L12 4L11 4L11 5L10 5L10 4L9 4L9 5L10 5L10 6L9 6L9 7L10 7L10 6L11 6L11 8L10 8L10 9L11 9L11 12L10 12L10 11L9 11L9 9L8 9L8 10L7 10L7 9L6 9L6 10L7 10L7 11L9 11L9 13L10 13L10 14L11 14L11 12L13 12L13 13L12 13L12 14L13 14L13 15L11 15L11 16L10 16L10 17L11 17L11 16L13 16L13 17L12 17L12 18L11 18L11 20L12 20L12 22L11 22L11 23L12 23L12 24L11 24L11 25L10 25L10 23L9 23L9 25L8 25L8 27L9 27L9 28L8 28L8 29L9 29L9 30L10 30L10 31L8 31L8 32L10 32L10 31L12 31L12 33L13 33L13 32L14 32L14 33L15 33L15 32L16 32L16 31L17 31L17 30L19 30L19 31L18 31L18 32L19 32L19 33L18 33L18 35L17 35L17 33L16 33L16 35L15 35L15 34L13 34L13 35L12 35L12 34L11 34L11 33L9 33L9 34L11 34L11 35L10 35L10 36L9 36L9 37L10 37L10 38L11 38L11 39L12 39L12 38L13 38L13 40L14 40L14 38L13 38L13 35L14 35L14 37L15 37L15 36L16 36L16 35L17 35L17 37L16 37L16 38L17 38L17 41L16 41L16 39L15 39L15 43L14 43L14 42L13 42L13 41L12 41L12 42L13 42L13 43L12 43L12 45L13 45L13 46L11 46L11 44L9 44L9 45L8 45L8 44L7 44L7 43L4 43L4 45L6 45L6 46L5 46L5 47L6 47L6 48L7 48L7 47L6 47L6 46L9 46L9 47L8 47L8 49L9 49L9 51L11 51L11 50L13 50L13 49L14 49L14 48L16 48L16 47L17 47L17 49L16 49L16 51L17 51L17 50L18 50L18 51L19 51L19 48L20 48L20 46L21 46L21 47L22 47L22 48L21 48L21 49L22 49L22 48L23 48L23 47L24 47L24 48L25 48L25 47L24 47L24 46L25 46L25 45L26 45L26 46L27 46L27 47L26 47L26 48L27 48L27 49L26 49L26 50L25 50L25 49L24 49L24 51L23 51L23 52L24 52L24 51L25 51L25 53L24 53L24 54L25 54L25 53L26 53L26 54L27 54L27 53L26 53L26 52L28 52L28 55L27 55L27 56L28 56L28 59L29 59L29 61L30 61L30 58L32 58L32 59L33 59L33 60L35 60L35 59L34 59L34 58L36 58L36 60L37 60L37 55L36 55L36 53L34 53L34 54L35 54L35 55L33 55L33 56L32 56L32 55L30 55L30 56L31 56L31 57L30 57L30 58L29 58L29 56L28 56L28 55L29 55L29 54L30 54L30 52L31 52L31 53L32 53L32 52L33 52L33 49L34 49L34 47L35 47L35 46L33 46L33 45L34 45L34 44L37 44L37 41L38 41L38 42L39 42L39 43L38 43L38 44L39 44L39 45L38 45L38 46L39 46L39 47L38 47L38 48L39 48L39 49L38 49L38 50L39 50L39 49L40 49L40 51L39 51L39 52L38 52L38 53L40 53L40 54L39 54L39 56L38 56L38 58L40 58L40 59L39 59L39 60L41 60L41 61L38 61L38 64L37 64L37 65L38 65L38 64L39 64L39 65L40 65L40 62L41 62L41 61L42 61L42 62L43 62L43 61L44 61L44 63L43 63L43 65L44 65L44 63L45 63L45 61L44 61L44 59L41 59L41 58L40 58L40 55L41 55L41 53L40 53L40 52L42 52L42 54L44 54L44 55L42 55L42 56L41 56L41 57L42 57L42 58L45 58L45 57L46 57L46 58L47 58L47 60L46 60L46 59L45 59L45 60L46 60L46 62L47 62L47 61L48 61L48 63L49 63L49 61L48 61L48 59L49 59L49 60L50 60L50 59L51 59L51 61L50 61L50 62L51 62L51 63L50 63L50 66L51 66L51 65L52 65L52 66L53 66L53 65L52 65L52 64L54 64L54 66L55 66L55 65L56 65L56 64L57 64L57 63L58 63L58 64L60 64L60 62L59 62L59 59L60 59L60 58L61 58L61 59L62 59L62 58L63 58L63 56L64 56L64 54L65 54L65 53L67 53L67 51L68 51L68 50L66 50L66 49L68 49L68 48L67 48L67 47L68 47L68 46L67 46L67 45L64 45L64 46L67 46L67 47L66 47L66 49L65 49L65 48L64 48L64 47L63 47L63 48L62 48L62 46L61 46L61 45L60 45L60 46L61 46L61 48L60 48L60 49L59 49L59 45L58 45L58 50L59 50L59 51L60 51L60 49L61 49L61 52L60 52L60 53L59 53L59 52L58 52L58 54L60 54L60 55L61 55L61 57L58 57L58 58L59 58L59 59L56 59L56 60L54 60L54 59L52 59L52 58L51 58L51 57L52 57L52 55L53 55L53 56L54 56L54 58L55 58L55 57L56 57L56 58L57 58L57 57L56 57L56 56L58 56L58 55L56 55L56 54L57 54L57 53L56 53L56 52L55 52L55 51L56 51L56 50L57 50L57 49L56 49L56 47L57 47L57 46L56 46L56 44L57 44L57 43L58 43L58 42L57 42L57 43L56 43L56 36L58 36L58 34L59 34L59 36L60 36L60 34L59 34L59 32L60 32L60 31L61 31L61 32L62 32L62 30L66 30L66 29L64 29L64 28L62 28L62 27L63 27L63 25L64 25L64 26L65 26L65 25L64 25L64 24L65 24L65 23L66 23L66 22L67 22L67 23L68 23L68 20L67 20L67 19L68 19L68 18L67 18L67 17L68 17L68 13L67 13L67 12L68 12L68 11L67 11L67 10L66 10L66 13L64 13L64 12L63 12L63 13L62 13L62 15L61 15L61 16L60 16L60 15L56 15L56 14L57 14L57 13L58 13L58 14L59 14L59 13L58 13L58 11L57 11L57 13L56 13L56 11L55 11L55 13L54 13L54 14L55 14L55 15L54 15L54 18L53 18L53 17L52 17L52 16L53 16L53 13L52 13L52 12L53 12L53 11L54 11L54 10L55 10L55 9L56 9L56 8L54 8L54 6L55 6L55 7L56 7L56 6L57 6L57 5L56 5L56 4L57 4L57 2L56 2L56 4L55 4L55 1L54 1L54 3L52 3L52 1L50 1L50 2L51 2L51 3L52 3L52 4L51 4L51 7L52 7L52 6L53 6L53 8L54 8L54 10L52 10L52 9L50 9L50 10L49 10L49 9L48 9L48 8L47 8L47 9L46 9L46 10L45 10L45 11L46 11L46 10L47 10L47 9L48 9L48 11L47 11L47 12L46 12L46 14L45 14L45 16L46 16L46 18L45 18L45 17L44 17L44 15L43 15L43 17L42 17L42 18L41 18L41 17L40 17L40 19L39 19L39 20L38 20L38 21L39 21L39 23L38 23L38 26L37 26L37 25L36 25L36 26L37 26L37 27L36 27L36 28L37 28L37 29L35 29L35 30L34 30L34 31L35 31L35 32L36 32L36 30L37 30L37 31L39 31L39 32L38 32L38 34L37 34L37 39L36 39L36 37L33 37L33 38L32 38L32 35L31 35L31 34L32 34L32 33L31 33L31 34L30 34L30 35L29 35L29 34L28 34L28 35L29 35L29 37L28 37L28 36L27 36L27 37L26 37L26 35L27 35L27 32L26 32L26 31L27 31L27 29L28 29L28 32L29 32L29 30L30 30L30 32L31 32L31 29L30 29L30 26L33 26L33 27L34 27L34 28L35 28L35 27L34 27L34 24L37 24L37 23L36 23L36 21L37 21L37 20L36 20L36 18L35 18L35 19L34 19L34 20L33 20L33 19L32 19L32 20L31 20L31 17L30 17L30 16L29 16L29 15L30 15L30 14L29 14L29 13L30 13L30 12L29 12L29 13L28 13L28 12L27 12L27 13L28 13L28 14L29 14L29 15L28 15L28 16L27 16L27 15L26 15L26 16L27 16L27 17L26 17L26 18L25 18L25 17L24 17L24 16L25 16L25 15L24 15L24 16L23 16L23 13L24 13L24 12L23 12L23 13L22 13L22 11L23 11L23 9L22 9L22 11L19 11L19 9L20 9L20 10L21 10L21 9L20 9L20 8L21 8L21 7L20 7L20 8L19 8L19 7L18 7L18 8L17 8L17 7L16 7L16 6L15 6L15 8L14 8L14 2L13 2L13 1ZM20 1L20 2L21 2L21 3L22 3L22 2L21 2L21 1ZM34 1L34 2L35 2L35 1ZM36 1L36 3L34 3L34 4L37 4L37 1ZM15 3L15 5L17 5L17 3ZM38 3L38 4L39 4L39 5L38 5L38 6L37 6L37 8L38 8L38 10L40 10L40 6L39 6L39 5L42 5L42 4L43 4L43 3L40 3L40 4L39 4L39 3ZM60 3L60 5L61 5L61 3ZM52 4L52 5L53 5L53 6L54 6L54 5L55 5L55 6L56 6L56 5L55 5L55 4L54 4L54 5L53 5L53 4ZM11 5L11 6L12 6L12 7L13 7L13 5ZM33 5L33 8L36 8L36 5ZM34 6L34 7L35 7L35 6ZM38 6L38 8L39 8L39 6ZM41 6L41 8L42 8L42 6ZM22 7L22 8L23 8L23 7ZM11 8L11 9L12 9L12 10L13 10L13 12L14 12L14 10L15 10L15 14L14 14L14 17L15 17L15 18L12 18L12 19L13 19L13 20L15 20L15 19L16 19L16 20L17 20L17 19L18 19L18 18L17 18L17 19L16 19L16 16L17 16L17 15L16 15L16 12L17 12L17 11L18 11L18 9L19 9L19 8L18 8L18 9L17 9L17 11L16 11L16 9L14 9L14 8L13 8L13 9L12 9L12 8ZM33 9L33 11L34 11L34 9ZM24 10L24 11L25 11L25 10ZM50 10L50 12L49 12L49 11L48 11L48 13L47 13L47 14L46 14L46 16L47 16L47 15L48 15L48 17L47 17L47 18L46 18L46 19L45 19L45 20L44 20L44 21L43 21L43 20L42 20L42 19L44 19L44 18L42 18L42 19L40 19L40 23L39 23L39 24L40 24L40 25L39 25L39 28L38 28L38 27L37 27L37 28L38 28L38 29L37 29L37 30L38 30L38 29L39 29L39 31L40 31L40 33L39 33L39 34L38 34L38 35L39 35L39 36L38 36L38 37L39 37L39 38L38 38L38 39L37 39L37 40L36 40L36 39L34 39L34 38L33 38L33 39L34 39L34 40L31 40L31 39L32 39L32 38L31 38L31 39L30 39L30 40L31 40L31 41L32 41L32 42L31 42L31 43L30 43L30 42L28 42L28 41L29 41L29 38L30 38L30 37L31 37L31 36L30 36L30 37L29 37L29 38L28 38L28 37L27 37L27 40L26 40L26 41L27 41L27 44L26 44L26 42L25 42L25 40L24 40L24 37L23 37L23 36L22 36L22 35L21 35L21 34L22 34L22 33L23 33L23 35L24 35L24 36L25 36L25 35L26 35L26 34L24 34L24 32L25 32L25 30L26 30L26 29L27 29L27 28L28 28L28 25L29 25L29 26L30 26L30 25L32 25L32 23L33 23L33 24L34 24L34 22L35 22L35 21L36 21L36 20L34 20L34 22L32 22L32 21L31 21L31 20L30 20L30 19L29 19L29 18L30 18L30 17L29 17L29 16L28 16L28 17L29 17L29 18L28 18L28 19L29 19L29 20L30 20L30 21L29 21L29 22L28 22L28 20L26 20L26 21L25 21L25 18L24 18L24 17L23 17L23 16L22 16L22 15L21 15L21 16L19 16L19 15L20 15L20 13L21 13L21 14L22 14L22 13L21 13L21 12L20 12L20 13L19 13L19 12L18 12L18 13L17 13L17 14L18 14L18 13L19 13L19 15L18 15L18 16L19 16L19 20L18 20L18 21L19 21L19 23L20 23L20 25L19 25L19 24L18 24L18 25L19 25L19 27L18 27L18 26L17 26L17 24L16 24L16 23L18 23L18 22L17 22L17 21L16 21L16 22L15 22L15 23L14 23L14 21L13 21L13 24L15 24L15 27L14 27L14 26L12 26L12 25L11 25L11 26L12 26L12 29L10 29L10 28L9 28L9 29L10 29L10 30L12 30L12 29L13 29L13 31L14 31L14 30L15 30L15 31L16 31L16 29L17 29L17 27L18 27L18 29L19 29L19 30L20 30L20 29L21 29L21 27L22 27L22 30L21 30L21 31L20 31L20 33L21 33L21 34L20 34L20 35L21 35L21 39L20 39L20 36L18 36L18 37L17 37L17 38L18 38L18 37L19 37L19 39L18 39L18 41L17 41L17 42L16 42L16 43L17 43L17 44L18 44L18 45L19 45L19 46L20 46L20 45L21 45L21 44L22 44L22 47L23 47L23 46L24 46L24 45L25 45L25 44L26 44L26 45L27 45L27 46L28 46L28 45L29 45L29 48L28 48L28 47L27 47L27 48L28 48L28 49L29 49L29 48L30 48L30 50L28 50L28 51L29 51L29 52L30 52L30 50L31 50L31 51L32 51L32 48L31 48L31 47L32 47L32 46L31 46L31 45L32 45L32 44L34 44L34 43L35 43L35 42L36 42L36 41L37 41L37 40L38 40L38 39L39 39L39 38L40 38L40 41L39 41L39 42L42 42L42 43L41 43L41 44L42 44L42 45L45 45L45 46L44 46L44 47L41 47L41 48L40 48L40 49L41 49L41 51L42 51L42 52L43 52L43 50L42 50L42 49L43 49L43 48L44 48L44 50L46 50L46 51L44 51L44 54L45 54L45 55L44 55L44 57L45 57L45 55L47 55L47 56L48 56L48 57L47 57L47 58L49 58L49 59L50 59L50 57L51 57L51 56L50 56L50 57L49 57L49 56L48 56L48 53L49 53L49 54L50 54L50 53L49 53L49 52L48 52L48 51L49 51L49 50L50 50L50 49L51 49L51 51L52 51L52 50L53 50L53 51L54 51L54 49L53 49L53 48L55 48L55 47L56 47L56 46L55 46L55 47L54 47L54 45L55 45L55 44L56 44L56 43L55 43L55 42L54 42L54 41L55 41L55 38L54 38L54 36L56 36L56 34L58 34L58 32L57 32L57 31L60 31L60 25L62 25L62 24L64 24L64 23L65 23L65 20L64 20L64 19L65 19L65 17L67 17L67 16L66 16L66 15L67 15L67 13L66 13L66 15L65 15L65 16L64 16L64 19L62 19L62 17L63 17L63 15L64 15L64 14L63 14L63 15L62 15L62 17L61 17L61 19L59 19L59 18L60 18L60 16L58 16L58 17L57 17L57 16L56 16L56 17L55 17L55 18L54 18L54 20L53 20L53 18L52 18L52 17L51 17L51 16L50 16L50 15L51 15L51 14L52 14L52 13L51 13L51 14L50 14L50 12L52 12L52 11L51 11L51 10ZM48 13L48 15L50 15L50 14L49 14L49 13ZM3 14L3 16L2 16L2 18L1 18L1 19L2 19L2 18L3 18L3 16L4 16L4 14ZM35 14L35 15L36 15L36 14ZM37 14L37 16L38 16L38 14ZM15 15L15 16L16 16L16 15ZM21 16L21 18L20 18L20 19L21 19L21 20L20 20L20 23L21 23L21 25L20 25L20 27L21 27L21 26L23 26L23 29L24 29L24 30L22 30L22 31L23 31L23 32L24 32L24 30L25 30L25 29L26 29L26 28L27 28L27 26L26 26L26 23L27 23L27 25L28 25L28 22L27 22L27 21L26 21L26 22L25 22L25 21L24 21L24 19L23 19L23 18L22 18L22 16ZM35 16L35 17L36 17L36 16ZM38 17L38 18L39 18L39 17ZM48 17L48 18L47 18L47 19L46 19L46 20L45 20L45 21L44 21L44 23L43 23L43 21L42 21L42 20L41 20L41 21L42 21L42 24L43 24L43 25L42 25L42 26L41 26L41 25L40 25L40 28L43 28L43 27L45 27L45 28L46 28L46 30L47 30L47 31L45 31L45 32L46 32L46 34L44 34L44 31L43 31L43 30L45 30L45 29L40 29L40 30L42 30L42 35L41 35L41 34L39 34L39 35L40 35L40 36L39 36L39 37L40 37L40 38L41 38L41 37L42 37L42 38L43 38L43 41L42 41L42 39L41 39L41 41L42 41L42 42L43 42L43 41L44 41L44 43L46 43L46 44L47 44L47 45L46 45L46 46L47 46L47 45L48 45L48 47L49 47L49 45L48 45L48 44L47 44L47 43L48 43L48 40L49 40L49 41L50 41L50 43L49 43L49 44L50 44L50 47L52 47L52 46L53 46L53 45L54 45L54 44L55 44L55 43L54 43L54 42L53 42L53 41L51 41L51 40L50 40L50 38L51 38L51 39L52 39L52 38L53 38L53 40L54 40L54 38L53 38L53 37L52 37L52 35L50 35L50 36L51 36L51 37L50 37L50 38L49 38L49 37L48 37L48 35L46 35L46 34L47 34L47 33L48 33L48 30L47 30L47 29L48 29L48 26L49 26L49 25L48 25L48 26L47 26L47 23L45 23L45 21L46 21L46 22L48 22L48 23L49 23L49 24L50 24L50 26L51 26L51 27L50 27L50 28L49 28L49 29L50 29L50 30L49 30L49 32L50 32L50 30L51 30L51 29L52 29L52 31L54 31L54 35L53 35L53 36L54 36L54 35L55 35L55 31L56 31L56 30L57 30L57 29L56 29L56 27L59 27L59 25L58 25L58 24L57 24L57 25L58 25L58 26L56 26L56 23L57 23L57 22L56 22L56 20L58 20L58 22L59 22L59 20L58 20L58 18L59 18L59 17L58 17L58 18L57 18L57 17L56 17L56 18L55 18L55 19L56 19L56 20L54 20L54 24L53 24L53 23L52 23L52 22L51 22L51 20L49 20L49 19L50 19L50 18L51 18L51 19L52 19L52 18L51 18L51 17L50 17L50 18L49 18L49 17ZM21 18L21 19L22 19L22 21L23 21L23 23L22 23L22 24L23 24L23 23L24 23L24 25L25 25L25 22L24 22L24 21L23 21L23 19L22 19L22 18ZM48 18L48 19L49 19L49 18ZM56 18L56 19L57 19L57 18ZM5 19L5 20L7 20L7 19ZM61 19L61 20L60 20L60 23L61 23L61 24L62 24L62 22L64 22L64 20L63 20L63 21L62 21L62 19ZM48 20L48 22L49 22L49 23L50 23L50 24L51 24L51 23L50 23L50 21L49 21L49 20ZM0 21L0 22L1 22L1 21ZM61 21L61 22L62 22L62 21ZM31 22L31 23L30 23L30 24L31 24L31 23L32 23L32 22ZM55 22L55 23L56 23L56 22ZM40 23L40 24L41 24L41 23ZM1 24L1 25L2 25L2 24ZM44 24L44 25L45 25L45 27L46 27L46 28L47 28L47 26L46 26L46 25L45 25L45 24ZM52 24L52 29L53 29L53 30L54 30L54 31L55 31L55 30L54 30L54 29L53 29L53 28L54 28L54 27L55 27L55 26L54 26L54 25L53 25L53 24ZM9 26L9 27L10 27L10 26ZM16 26L16 27L17 27L17 26ZM24 26L24 27L25 27L25 28L24 28L24 29L25 29L25 28L26 28L26 27L25 27L25 26ZM42 26L42 27L43 27L43 26ZM6 27L6 28L7 28L7 27ZM13 27L13 28L14 28L14 29L16 29L16 28L14 28L14 27ZM19 28L19 29L20 29L20 28ZM32 28L32 29L33 29L33 28ZM58 28L58 30L59 30L59 28ZM61 28L61 30L62 30L62 28ZM0 30L0 31L1 31L1 30ZM6 31L6 32L7 32L7 31ZM32 31L32 32L33 32L33 31ZM21 32L21 33L22 33L22 32ZM5 33L5 36L8 36L8 33ZM33 33L33 36L36 36L36 33ZM50 33L50 34L53 34L53 33ZM61 33L61 36L64 36L64 33ZM6 34L6 35L7 35L7 34ZM34 34L34 35L35 35L35 34ZM43 34L43 35L42 35L42 36L43 36L43 35L44 35L44 37L43 37L43 38L45 38L45 39L46 39L46 41L45 41L45 40L44 40L44 41L45 41L45 42L46 42L46 41L47 41L47 39L48 39L48 37L47 37L47 39L46 39L46 35L44 35L44 34ZM62 34L62 35L63 35L63 34ZM11 35L11 36L10 36L10 37L11 37L11 36L12 36L12 35ZM0 36L0 37L2 37L2 36ZM40 36L40 37L41 37L41 36ZM6 37L6 38L3 38L3 39L5 39L5 41L4 41L4 42L7 42L7 41L8 41L8 42L9 42L9 43L11 43L11 42L9 42L9 41L8 41L8 40L9 40L9 39L8 39L8 37ZM58 37L58 38L59 38L59 39L58 39L58 40L60 40L60 37ZM6 38L6 39L7 39L7 38ZM61 38L61 39L62 39L62 38ZM22 39L22 40L23 40L23 39ZM66 39L66 41L67 41L67 39ZM2 40L2 44L3 44L3 40ZM6 40L6 41L7 41L7 40ZM10 40L10 41L11 41L11 40ZM18 41L18 42L17 42L17 43L18 43L18 42L19 42L19 41ZM20 41L20 44L21 44L21 43L23 43L23 41L22 41L22 42L21 42L21 41ZM24 42L24 43L25 43L25 42ZM33 42L33 43L34 43L34 42ZM28 43L28 44L30 44L30 43ZM31 43L31 44L32 44L32 43ZM42 43L42 44L43 44L43 43ZM51 43L51 44L52 44L52 45L51 45L51 46L52 46L52 45L53 45L53 44L54 44L54 43L53 43L53 44L52 44L52 43ZM6 44L6 45L7 45L7 44ZM14 44L14 47L11 47L11 46L10 46L10 47L9 47L9 48L11 48L11 49L10 49L10 50L11 50L11 49L13 49L13 48L14 48L14 47L16 47L16 44ZM23 44L23 45L24 45L24 44ZM36 45L36 46L37 46L37 45ZM40 45L40 46L41 46L41 45ZM18 47L18 48L19 48L19 47ZM44 47L44 48L47 48L47 49L46 49L46 50L47 50L47 51L48 51L48 50L49 50L49 49L50 49L50 48L49 48L49 49L48 49L48 48L47 48L47 47ZM0 48L0 49L1 49L1 55L2 55L2 56L1 56L1 57L0 57L0 61L1 61L1 57L2 57L2 56L3 56L3 54L2 54L2 49L1 49L1 48ZM36 48L36 49L37 49L37 48ZM61 48L61 49L62 49L62 52L61 52L61 53L62 53L62 52L63 52L63 54L62 54L62 55L63 55L63 54L64 54L64 53L65 53L65 52L66 52L66 50L64 50L64 51L63 51L63 49L62 49L62 48ZM6 49L6 50L7 50L7 49ZM20 50L20 51L21 51L21 53L22 53L22 51L21 51L21 50ZM35 50L35 51L34 51L34 52L35 52L35 51L36 51L36 52L37 52L37 51L36 51L36 50ZM46 52L46 54L47 54L47 53L48 53L48 52ZM52 52L52 53L51 53L51 54L54 54L54 53L55 53L55 54L56 54L56 53L55 53L55 52L54 52L54 53L53 53L53 52ZM6 53L6 54L7 54L7 55L6 55L6 56L7 56L7 55L9 55L9 56L10 56L10 55L9 55L9 54L8 54L8 53ZM18 53L18 54L17 54L17 55L16 55L16 56L17 56L17 57L18 57L18 56L17 56L17 55L18 55L18 54L19 54L19 53ZM13 54L13 55L14 55L14 54ZM66 54L66 56L65 56L65 57L64 57L64 59L63 59L63 60L64 60L64 59L65 59L65 57L66 57L66 56L67 56L67 55L68 55L68 54ZM24 55L24 56L26 56L26 55ZM35 55L35 56L34 56L34 57L36 57L36 55ZM54 55L54 56L56 56L56 55ZM32 57L32 58L33 58L33 57ZM61 57L61 58L62 58L62 57ZM2 58L2 59L3 59L3 58ZM16 58L16 59L17 59L17 58ZM21 58L21 60L22 60L22 61L23 61L23 60L22 60L22 59L23 59L23 58ZM3 60L3 61L5 61L5 60ZM13 60L13 61L16 61L16 62L17 62L17 61L18 61L18 60L17 60L17 61L16 61L16 60ZM52 60L52 61L53 61L53 63L54 63L54 61L53 61L53 60ZM56 60L56 61L55 61L55 62L56 62L56 63L55 63L55 64L56 64L56 63L57 63L57 62L58 62L58 61L57 61L57 60ZM33 61L33 64L36 64L36 61ZM61 61L61 64L64 64L64 61ZM21 62L21 63L22 63L22 65L21 65L21 64L20 64L20 65L21 65L21 66L20 66L20 67L21 67L21 69L25 69L25 68L22 68L22 67L23 67L23 66L24 66L24 67L25 67L25 66L24 66L24 65L25 65L25 64L24 64L24 65L23 65L23 63L22 63L22 62ZM24 62L24 63L25 63L25 62ZM34 62L34 63L35 63L35 62ZM62 62L62 63L63 63L63 62ZM67 62L67 63L68 63L68 62ZM26 63L26 64L27 64L27 66L26 66L26 67L27 67L27 68L26 68L26 69L27 69L27 68L28 68L28 69L29 69L29 67L30 67L30 69L31 69L31 67L30 67L30 66L29 66L29 64L27 64L27 63ZM41 63L41 65L42 65L42 63ZM22 65L22 66L21 66L21 67L22 67L22 66L23 66L23 65ZM34 65L34 67L36 67L36 65ZM8 66L8 69L9 69L9 66ZM28 66L28 67L29 67L29 66ZM60 66L60 67L62 67L62 66ZM67 66L67 67L69 67L69 66ZM10 67L10 68L11 68L11 67ZM12 67L12 68L13 68L13 67ZM16 68L16 69L17 69L17 68ZM38 68L38 69L39 69L39 68ZM68 68L68 69L69 69L69 68ZM0 0L0 7L7 7L7 0ZM1 1L1 6L6 6L6 1ZM2 2L2 5L5 5L5 2ZM62 0L62 7L69 7L69 0ZM63 1L63 6L68 6L68 1ZM64 2L64 5L67 5L67 2ZM0 62L0 69L7 69L7 62ZM1 63L1 68L6 68L6 63ZM2 64L2 67L5 67L5 64Z" fill="#000000"/></g></g></svg>
