<?xml version="1.0" encoding="UTF-8"?>
<svg xmlns="http://www.w3.org/2000/svg" version="1.1" width="300" height="300" viewBox="0 0 300 300"><rect x="0" y="0" width="300" height="300" fill="#ffffff"/><g transform="scale(4.615)"><g transform="translate(0,0)"><path fill-rule="evenodd" d="M8 0L8 4L9 4L9 1L10 1L10 2L13 2L13 3L11 3L11 4L10 4L10 7L11 7L11 6L12 6L12 7L13 7L13 9L14 9L14 10L12 10L12 8L11 8L11 9L9 9L9 10L11 10L11 12L9 12L9 11L8 11L8 9L7 9L7 8L4 8L4 9L2 9L2 8L0 8L0 9L2 9L2 10L1 10L1 15L0 15L0 17L1 17L1 16L3 16L3 17L2 17L2 18L0 18L0 21L1 21L1 22L2 22L2 21L3 21L3 20L4 20L4 21L5 21L5 22L6 22L6 23L7 23L7 22L6 22L6 21L7 21L7 20L6 20L6 21L5 21L5 19L4 19L4 18L5 18L5 17L4 17L4 14L5 14L5 13L7 13L7 12L5 12L5 13L4 13L4 11L8 11L8 12L9 12L9 14L6 14L6 15L5 15L5 16L6 16L6 17L7 17L7 18L6 18L6 19L8 19L8 18L9 18L9 19L10 19L10 20L8 20L8 21L12 21L12 19L14 19L14 20L13 20L13 22L11 22L11 23L10 23L10 22L8 22L8 23L9 23L9 24L10 24L10 25L7 25L7 24L5 24L5 23L3 23L3 24L4 24L4 27L1 27L1 26L2 26L2 24L1 24L1 25L0 25L0 27L1 27L1 29L4 29L4 31L3 31L3 30L2 30L2 33L3 33L3 32L4 32L4 34L3 34L3 35L2 35L2 36L1 36L1 38L0 38L0 40L2 40L2 42L1 42L1 41L0 41L0 42L1 42L1 43L0 43L0 44L2 44L2 43L3 43L3 46L4 46L4 48L6 48L6 49L7 49L7 48L8 48L8 50L10 50L10 48L9 48L9 47L8 47L8 46L9 46L9 45L8 45L8 44L9 44L9 41L8 41L8 43L7 43L7 42L6 42L6 43L7 43L7 44L6 44L6 45L7 45L7 46L6 46L6 47L5 47L5 45L4 45L4 44L5 44L5 42L3 42L3 41L7 41L7 40L9 40L9 39L7 39L7 38L8 38L8 37L9 37L9 38L10 38L10 37L13 37L13 36L12 36L12 34L13 34L13 32L14 32L14 34L16 34L16 35L14 35L14 39L13 39L13 40L11 40L11 39L10 39L10 40L11 40L11 41L12 41L12 42L13 42L13 40L14 40L14 41L15 41L15 42L14 42L14 44L17 44L17 45L15 45L15 47L16 47L16 46L17 46L17 45L18 45L18 46L19 46L19 45L21 45L21 46L20 46L20 47L18 47L18 48L17 48L17 50L16 50L16 48L15 48L15 50L13 50L13 48L11 48L11 51L12 51L12 50L13 50L13 54L8 54L8 53L12 53L12 52L8 52L8 51L7 51L7 50L6 50L6 51L4 51L4 50L5 50L5 49L4 49L4 50L3 50L3 47L2 47L2 50L0 50L0 53L2 53L2 55L3 55L3 56L1 56L1 55L0 55L0 56L1 56L1 57L3 57L3 56L4 56L4 57L5 57L5 56L4 56L4 54L3 54L3 52L5 52L5 55L7 55L7 54L8 54L8 56L6 56L6 57L8 57L8 58L9 58L9 59L8 59L8 61L9 61L9 62L10 62L10 60L9 60L9 59L11 59L11 62L12 62L12 64L11 64L11 63L10 63L10 65L13 65L13 63L14 63L14 62L13 62L13 61L12 61L12 60L14 60L14 59L12 59L12 58L13 58L13 57L12 57L12 55L13 55L13 56L16 56L16 57L15 57L15 61L16 61L16 57L17 57L17 58L18 58L18 59L17 59L17 62L16 62L16 63L15 63L15 64L16 64L16 65L19 65L19 63L20 63L20 62L21 62L21 63L22 63L22 64L21 64L21 65L22 65L22 64L23 64L23 65L24 65L24 63L23 63L23 62L21 62L21 61L22 61L22 60L23 60L23 61L24 61L24 62L25 62L25 65L29 65L29 62L31 62L31 63L32 63L32 64L30 64L30 65L33 65L33 63L32 63L32 61L34 61L34 65L37 65L37 63L38 63L38 65L40 65L40 64L41 64L41 63L42 63L42 62L43 62L43 63L45 63L45 62L46 62L46 64L47 64L47 65L50 65L50 64L51 64L51 65L52 65L52 62L53 62L53 61L52 61L52 60L54 60L54 58L55 58L55 59L56 59L56 61L57 61L57 63L58 63L58 64L57 64L57 65L58 65L58 64L59 64L59 65L61 65L61 64L62 64L62 65L64 65L64 64L65 64L65 62L62 62L62 61L64 61L64 59L65 59L65 56L64 56L64 55L65 55L65 54L64 54L64 53L62 53L62 51L61 51L61 52L59 52L59 50L64 50L64 51L65 51L65 49L63 49L63 48L62 48L62 46L61 46L61 45L62 45L62 43L63 43L63 44L64 44L64 45L63 45L63 46L64 46L64 48L65 48L65 46L64 46L64 45L65 45L65 37L64 37L64 36L63 36L63 38L64 38L64 41L62 41L62 39L61 39L61 40L60 40L60 41L59 41L59 40L58 40L58 39L59 39L59 38L62 38L62 37L61 37L61 36L62 36L62 35L63 35L63 34L62 34L62 31L63 31L63 33L64 33L64 31L65 31L65 28L64 28L64 27L65 27L65 26L64 26L64 25L62 25L62 23L63 23L63 24L64 24L64 23L65 23L65 22L64 22L64 23L63 23L63 22L62 22L62 21L65 21L65 20L62 20L62 17L64 17L64 16L65 16L65 8L61 8L61 9L60 9L60 8L59 8L59 9L60 9L60 10L58 10L58 9L57 9L57 8L56 8L56 10L57 10L57 11L58 11L58 13L57 13L57 12L56 12L56 11L55 11L55 9L54 9L54 7L55 7L55 5L54 5L54 7L53 7L53 3L54 3L54 4L56 4L56 5L57 5L57 4L56 4L56 3L57 3L57 1L56 1L56 0L55 0L55 1L56 1L56 3L55 3L55 2L52 2L52 1L51 1L51 0L50 0L50 1L49 1L49 0L48 0L48 1L47 1L47 3L50 3L50 5L49 5L49 6L48 6L48 5L47 5L47 6L46 6L46 4L45 4L45 6L44 6L44 7L43 7L43 5L44 5L44 3L46 3L46 0L44 0L44 1L45 1L45 2L44 2L44 3L43 3L43 0L38 0L38 2L37 2L37 1L36 1L36 0L35 0L35 3L38 3L38 7L37 7L37 6L36 6L36 4L34 4L34 2L33 2L33 1L34 1L34 0L33 0L33 1L31 1L31 0L29 0L29 1L28 1L28 0L27 0L27 1L26 1L26 0L22 0L22 1L25 1L25 2L22 2L22 3L21 3L21 2L20 2L20 3L19 3L19 4L18 4L18 3L16 3L16 4L15 4L15 1L18 1L18 2L19 2L19 1L21 1L21 0L19 0L19 1L18 1L18 0L12 0L12 1L10 1L10 0ZM53 0L53 1L54 1L54 0ZM13 1L13 2L14 2L14 1ZM27 1L27 2L26 2L26 3L25 3L25 5L23 5L23 4L22 4L22 6L21 6L21 7L20 7L20 6L19 6L19 7L20 7L20 8L19 8L19 10L17 10L17 11L16 11L16 8L17 8L17 7L18 7L18 5L17 5L17 4L16 4L16 6L15 6L15 4L14 4L14 5L12 5L12 4L11 4L11 5L12 5L12 6L13 6L13 7L14 7L14 9L15 9L15 11L14 11L14 12L15 12L15 11L16 11L16 13L15 13L15 15L17 15L17 16L16 16L16 17L15 17L15 16L14 16L14 18L17 18L17 19L16 19L16 20L15 20L15 21L17 21L17 22L16 22L16 23L15 23L15 22L13 22L13 24L12 24L12 25L11 25L11 26L9 26L9 27L10 27L10 28L9 28L9 29L8 29L8 30L9 30L9 29L10 29L10 30L12 30L12 31L13 31L13 30L14 30L14 29L13 29L13 30L12 30L12 28L13 28L13 27L14 27L14 26L15 26L15 25L16 25L16 29L15 29L15 31L16 31L16 30L18 30L18 29L17 29L17 27L18 27L18 26L17 26L17 25L16 25L16 24L17 24L17 23L20 23L20 24L19 24L19 25L21 25L21 24L22 24L22 25L23 25L23 24L25 24L25 25L26 25L26 24L28 24L28 26L29 26L29 28L28 28L28 27L27 27L27 29L26 29L26 26L25 26L25 27L24 27L24 28L25 28L25 29L26 29L26 30L24 30L24 29L23 29L23 26L21 26L21 27L19 27L19 29L20 29L20 28L22 28L22 29L21 29L21 30L20 30L20 31L17 31L17 32L19 32L19 34L18 34L18 35L16 35L16 36L15 36L15 37L16 37L16 38L15 38L15 39L14 39L14 40L15 40L15 41L16 41L16 42L15 42L15 43L16 43L16 42L17 42L17 44L21 44L21 43L20 43L20 40L21 40L21 39L20 39L20 37L19 37L19 38L17 38L17 37L18 37L18 36L20 36L20 35L21 35L21 37L22 37L22 43L24 43L24 44L22 44L22 45L24 45L24 46L25 46L25 45L26 45L26 47L29 47L29 46L31 46L31 47L30 47L30 48L27 48L27 49L28 49L28 50L29 50L29 53L28 53L28 51L27 51L27 52L26 52L26 51L24 51L24 50L23 50L23 49L24 49L24 47L22 47L22 50L20 50L20 48L19 48L19 52L18 52L18 53L17 53L17 51L18 51L18 50L17 50L17 51L16 51L16 50L15 50L15 52L14 52L14 54L13 54L13 55L14 55L14 54L15 54L15 55L16 55L16 54L18 54L18 53L19 53L19 54L20 54L20 51L22 51L22 52L23 52L23 51L24 51L24 52L25 52L25 53L28 53L28 54L30 54L30 52L31 52L31 54L32 54L32 49L33 49L33 51L34 51L34 50L35 50L35 51L36 51L36 52L38 52L38 53L36 53L36 54L35 54L35 52L33 52L33 53L34 53L34 54L33 54L33 56L34 56L34 54L35 54L35 55L37 55L37 56L38 56L38 57L35 57L35 58L38 58L38 57L39 57L39 59L40 59L40 57L41 57L41 56L40 56L40 57L39 57L39 56L38 56L38 55L40 55L40 54L41 54L41 55L42 55L42 56L43 56L43 57L44 57L44 60L43 60L43 58L41 58L41 59L42 59L42 61L44 61L44 62L45 62L45 61L44 61L44 60L45 60L45 59L46 59L46 62L48 62L48 61L47 61L47 59L48 59L48 60L49 60L49 63L47 63L47 64L50 64L50 60L52 60L52 57L53 57L53 56L52 56L52 55L51 55L51 54L53 54L53 52L52 52L52 51L50 51L50 49L55 49L55 50L56 50L56 51L57 51L57 52L58 52L58 50L56 50L56 49L55 49L55 48L56 48L56 47L58 47L58 46L59 46L59 49L62 49L62 48L61 48L61 47L60 47L60 46L59 46L59 45L60 45L60 44L59 44L59 45L58 45L58 46L57 46L57 44L58 44L58 40L56 40L56 38L53 38L53 39L52 39L52 41L51 41L51 40L50 40L50 41L46 41L46 38L48 38L48 39L47 39L47 40L48 40L48 39L49 39L49 38L50 38L50 39L51 39L51 38L52 38L52 37L54 37L54 35L55 35L55 36L56 36L56 37L57 37L57 39L58 39L58 37L59 37L59 36L60 36L60 35L58 35L58 36L56 36L56 35L55 35L55 34L56 34L56 28L55 28L55 27L56 27L56 25L55 25L55 27L52 27L52 29L51 29L51 27L50 27L50 25L51 25L51 24L52 24L52 26L53 26L53 25L54 25L54 24L55 24L55 23L56 23L56 24L58 24L58 30L61 30L61 31L62 31L62 30L63 30L63 31L64 31L64 28L63 28L63 27L64 27L64 26L63 26L63 27L62 27L62 26L59 26L59 24L60 24L60 23L58 23L58 22L59 22L59 21L60 21L60 19L61 19L61 18L60 18L60 19L59 19L59 21L58 21L58 18L59 18L59 17L60 17L60 15L61 15L61 14L62 14L62 13L64 13L64 9L61 9L61 14L60 14L60 13L58 13L58 14L60 14L60 15L59 15L59 16L57 16L57 15L56 15L56 12L55 12L55 11L54 11L54 10L53 10L53 7L52 7L52 6L51 6L51 5L52 5L52 3L51 3L51 1L50 1L50 3L51 3L51 5L50 5L50 6L49 6L49 7L50 7L50 6L51 6L51 7L52 7L52 11L51 11L51 10L50 10L50 8L49 8L49 10L47 10L47 7L48 7L48 6L47 6L47 7L46 7L46 6L45 6L45 7L44 7L44 8L43 8L43 7L42 7L42 5L41 5L41 4L42 4L42 3L41 3L41 4L40 4L40 3L39 3L39 5L41 5L41 8L40 8L40 10L41 10L41 11L40 11L40 15L39 15L39 14L38 14L38 13L39 13L39 11L38 11L38 9L39 9L39 7L40 7L40 6L39 6L39 7L38 7L38 8L37 8L37 9L36 9L36 6L35 6L35 9L34 9L34 11L35 11L35 9L36 9L36 10L37 10L37 15L36 15L36 16L37 16L37 17L38 17L38 16L40 16L40 17L39 17L39 19L41 19L41 20L40 20L40 26L41 26L41 27L43 27L43 26L41 26L41 25L42 25L42 24L43 24L43 25L44 25L44 24L45 24L45 25L46 25L46 26L45 26L45 27L44 27L44 28L43 28L43 29L44 29L44 30L43 30L43 31L44 31L44 32L43 32L43 34L42 34L42 35L43 35L43 34L44 34L44 36L43 36L43 37L44 37L44 38L41 38L41 33L42 33L42 28L40 28L40 29L41 29L41 32L40 32L40 33L39 33L39 34L38 34L38 33L37 33L37 36L38 36L38 35L39 35L39 34L40 34L40 39L39 39L39 40L38 40L38 37L37 37L37 39L36 39L36 38L35 38L35 37L34 37L34 36L35 36L35 35L33 35L33 36L32 36L32 37L31 37L31 38L32 38L32 37L34 37L34 38L35 38L35 39L32 39L32 41L31 41L31 39L30 39L30 37L29 37L29 35L30 35L30 32L28 32L28 31L27 31L27 32L28 32L28 34L26 34L26 30L29 30L29 31L30 31L30 30L32 30L32 28L34 28L34 27L35 27L35 25L34 25L34 27L32 27L32 28L31 28L31 26L33 26L33 25L32 25L32 22L29 22L29 21L27 21L27 20L28 20L28 19L27 19L27 20L26 20L26 19L24 19L24 20L23 20L23 16L24 16L24 15L23 15L23 13L24 13L24 14L25 14L25 15L26 15L26 12L27 12L27 13L29 13L29 14L28 14L28 15L27 15L27 16L28 16L28 18L29 18L29 19L30 19L30 21L31 21L31 19L30 19L30 17L31 17L31 15L32 15L32 12L31 12L31 11L32 11L32 9L30 9L30 6L29 6L29 5L30 5L30 4L31 4L31 3L32 3L32 4L33 4L33 2L31 2L31 1L29 1L29 3L28 3L28 1ZM40 1L40 2L41 2L41 1ZM20 3L20 4L19 4L19 5L20 5L20 4L21 4L21 3ZM27 3L27 4L26 4L26 5L25 5L25 6L24 6L24 8L23 8L23 10L25 10L25 9L24 9L24 8L25 8L25 6L26 6L26 7L27 7L27 8L26 8L26 10L27 10L27 12L29 12L29 11L28 11L28 8L29 8L29 6L28 6L28 3ZM29 3L29 4L30 4L30 3ZM8 5L8 7L9 7L9 5ZM31 5L31 8L34 8L34 5ZM14 6L14 7L15 7L15 8L16 8L16 7L17 7L17 6L16 6L16 7L15 7L15 6ZM22 6L22 7L21 7L21 9L20 9L20 10L19 10L19 11L17 11L17 13L18 13L18 14L19 14L19 13L22 13L22 12L23 12L23 11L22 11L22 7L23 7L23 6ZM27 6L27 7L28 7L28 6ZM32 6L32 7L33 7L33 6ZM56 6L56 7L57 7L57 6ZM41 8L41 10L42 10L42 11L41 11L41 14L42 14L42 15L40 15L40 16L42 16L42 15L43 15L43 14L44 14L44 19L45 19L45 18L46 18L46 16L47 16L47 17L50 17L50 20L48 20L48 19L49 19L49 18L48 18L48 19L46 19L46 21L45 21L45 20L44 20L44 21L43 21L43 20L41 20L41 21L42 21L42 23L43 23L43 24L44 24L44 23L43 23L43 22L44 22L44 21L45 21L45 22L46 22L46 23L45 23L45 24L46 24L46 25L47 25L47 26L48 26L48 25L50 25L50 24L51 24L51 23L50 23L50 24L46 24L46 23L47 23L47 22L48 22L48 21L50 21L50 22L51 22L51 21L52 21L52 22L53 22L53 23L52 23L52 24L53 24L53 23L55 23L55 22L56 22L56 23L57 23L57 22L58 22L58 21L52 21L52 20L53 20L53 19L52 19L52 16L53 16L53 18L54 18L54 19L55 19L55 20L56 20L56 19L57 19L57 18L58 18L58 17L57 17L57 16L56 16L56 18L55 18L55 16L53 16L53 13L54 13L54 15L55 15L55 13L54 13L54 12L53 12L53 11L52 11L52 12L50 12L50 10L49 10L49 11L47 11L47 10L46 10L46 9L45 9L45 8L44 8L44 10L43 10L43 8ZM5 9L5 10L7 10L7 9ZM2 10L2 12L3 12L3 11L4 11L4 10ZM20 10L20 11L19 11L19 12L20 12L20 11L21 11L21 10ZM44 10L44 11L43 11L43 12L42 12L42 13L44 13L44 14L45 14L45 13L46 13L46 15L47 15L47 16L49 16L49 14L50 14L50 15L51 15L51 16L52 16L52 15L51 15L51 14L52 14L52 13L53 13L53 12L52 12L52 13L51 13L51 14L50 14L50 12L49 12L49 13L46 13L46 12L47 12L47 11L46 11L46 10ZM12 11L12 13L13 13L13 11ZM25 11L25 12L24 12L24 13L25 13L25 12L26 12L26 11ZM44 11L44 13L45 13L45 11ZM59 11L59 12L60 12L60 11ZM30 12L30 13L31 13L31 12ZM34 13L34 18L35 18L35 19L36 19L36 20L38 20L38 21L37 21L37 23L36 23L36 24L37 24L37 23L38 23L38 21L39 21L39 20L38 20L38 19L37 19L37 18L36 18L36 17L35 17L35 13ZM2 14L2 15L3 15L3 14ZM9 14L9 15L6 15L6 16L7 16L7 17L9 17L9 18L10 18L10 19L11 19L11 17L12 17L12 18L13 18L13 17L12 17L12 16L13 16L13 14L12 14L12 16L11 16L11 14ZM20 14L20 15L19 15L19 16L17 16L17 18L18 18L18 19L17 19L17 21L18 21L18 22L19 22L19 21L20 21L20 23L22 23L22 24L23 24L23 22L25 22L25 24L26 24L26 22L27 22L27 21L25 21L25 20L24 20L24 21L23 21L23 20L22 20L22 19L21 19L21 17L22 17L22 16L21 16L21 15L22 15L22 14ZM47 14L47 15L48 15L48 14ZM63 14L63 15L62 15L62 16L64 16L64 14ZM9 16L9 17L10 17L10 16ZM20 16L20 17L19 17L19 20L18 20L18 21L19 21L19 20L20 20L20 21L21 21L21 22L23 22L23 21L21 21L21 20L20 20L20 17L21 17L21 16ZM25 16L25 18L26 18L26 16ZM3 17L3 18L4 18L4 17ZM40 17L40 18L41 18L41 19L43 19L43 17ZM32 18L32 19L33 19L33 21L34 21L34 23L33 23L33 24L35 24L35 21L34 21L34 19L33 19L33 18ZM64 18L64 19L65 19L65 18ZM2 19L2 20L1 20L1 21L2 21L2 20L3 20L3 19ZM46 21L46 22L47 22L47 21ZM28 22L28 24L29 24L29 26L30 26L30 25L31 25L31 24L29 24L29 22ZM14 23L14 24L13 24L13 25L12 25L12 27L13 27L13 25L14 25L14 24L15 24L15 23ZM5 25L5 26L7 26L7 25ZM37 25L37 27L36 27L36 28L38 28L38 29L37 29L37 30L38 30L38 29L39 29L39 28L38 28L38 27L39 27L39 26L38 26L38 25ZM4 27L4 29L5 29L5 30L7 30L7 29L6 29L6 28L7 28L7 27L6 27L6 28L5 28L5 27ZM46 27L46 28L47 28L47 30L49 30L49 29L50 29L50 30L51 30L51 31L49 31L49 32L48 32L48 31L47 31L47 34L46 34L46 31L45 31L45 30L46 30L46 29L45 29L45 28L44 28L44 29L45 29L45 30L44 30L44 31L45 31L45 32L44 32L44 34L46 34L46 36L44 36L44 37L45 37L45 38L44 38L44 41L43 41L43 40L42 40L42 39L41 39L41 40L42 40L42 41L41 41L41 42L40 42L40 41L38 41L38 42L37 42L37 40L36 40L36 39L35 39L35 40L33 40L33 41L32 41L32 42L33 42L33 41L34 41L34 43L31 43L31 42L30 42L30 43L29 43L29 42L28 42L28 40L30 40L30 39L28 39L28 36L26 36L26 35L24 35L24 36L23 36L23 33L24 33L24 34L25 34L25 33L24 33L24 31L23 31L23 33L20 33L20 34L19 34L19 35L20 35L20 34L21 34L21 35L22 35L22 36L23 36L23 39L24 39L24 38L25 38L25 40L26 40L26 41L24 41L24 40L23 40L23 41L24 41L24 42L25 42L25 43L26 43L26 45L27 45L27 46L28 46L28 45L27 45L27 44L28 44L28 43L29 43L29 45L30 45L30 43L31 43L31 45L32 45L32 48L30 48L30 50L31 50L31 49L32 49L32 48L33 48L33 46L34 46L34 48L35 48L35 50L36 50L36 49L37 49L37 47L38 47L38 51L40 51L40 52L39 52L39 53L38 53L38 54L40 54L40 52L42 52L42 53L41 53L41 54L43 54L43 55L44 55L44 57L45 57L45 58L46 58L46 59L47 59L47 58L46 58L46 57L45 57L45 55L46 55L46 56L47 56L47 57L48 57L48 59L49 59L49 57L50 57L50 59L51 59L51 57L52 57L52 56L51 56L51 57L50 57L50 56L48 56L48 55L49 55L49 52L50 52L50 54L51 54L51 53L52 53L52 52L50 52L50 51L49 51L49 49L50 49L50 48L51 48L51 47L50 47L50 46L52 46L52 47L53 47L53 48L55 48L55 47L53 47L53 46L56 46L56 44L57 44L57 43L56 43L56 44L55 44L55 45L54 45L54 43L53 43L53 46L52 46L52 44L51 44L51 43L52 43L52 42L55 42L55 41L56 41L56 42L57 42L57 41L56 41L56 40L55 40L55 39L53 39L53 41L52 41L52 42L51 42L51 41L50 41L50 43L48 43L48 42L46 42L46 41L45 41L45 38L46 38L46 37L49 37L49 36L48 36L48 35L50 35L50 38L51 38L51 37L52 37L52 36L53 36L53 34L55 34L55 31L54 31L54 30L55 30L55 28L53 28L53 29L52 29L52 30L51 30L51 29L50 29L50 27ZM60 27L60 28L59 28L59 29L63 29L63 28L62 28L62 27ZM10 28L10 29L11 29L11 28ZM29 28L29 30L30 30L30 29L31 29L31 28ZM33 29L33 30L35 30L35 31L36 31L36 29ZM52 30L52 31L51 31L51 32L52 32L52 33L51 33L51 34L50 34L50 33L49 33L49 34L50 34L50 35L52 35L52 34L53 34L53 32L52 32L52 31L53 31L53 30ZM5 31L5 34L8 34L8 31ZM9 31L9 33L10 33L10 35L6 35L6 36L7 36L7 37L6 37L6 38L7 38L7 37L8 37L8 36L10 36L10 35L11 35L11 33L10 33L10 32L11 32L11 31ZM21 31L21 32L22 32L22 31ZM31 31L31 34L34 34L34 31ZM38 31L38 32L39 32L39 31ZM57 31L57 34L60 34L60 31ZM0 32L0 34L1 34L1 32ZM6 32L6 33L7 33L7 32ZM15 32L15 33L16 33L16 34L17 34L17 33L16 33L16 32ZM32 32L32 33L33 33L33 32ZM58 32L58 33L59 33L59 32ZM61 34L61 35L62 35L62 34ZM64 34L64 35L65 35L65 34ZM3 35L3 36L5 36L5 35ZM16 36L16 37L17 37L17 36ZM2 37L2 38L1 38L1 39L2 39L2 40L7 40L7 39L5 39L5 38L4 38L4 37ZM25 37L25 38L26 38L26 40L27 40L27 38L26 38L26 37ZM2 38L2 39L4 39L4 38ZM16 38L16 39L15 39L15 40L17 40L17 42L18 42L18 41L19 41L19 39L18 39L18 40L17 40L17 38ZM35 41L35 42L36 42L36 41ZM61 41L61 42L59 42L59 43L62 43L62 41ZM10 42L10 43L11 43L11 42ZM27 42L27 43L28 43L28 42ZM38 42L38 44L40 44L40 49L39 49L39 50L40 50L40 49L41 49L41 48L42 48L42 47L41 47L41 45L44 45L44 47L46 47L46 48L45 48L45 49L46 49L46 50L44 50L44 49L43 49L43 50L41 50L41 51L42 51L42 52L43 52L43 54L44 54L44 55L45 55L45 53L46 53L46 55L48 55L48 53L46 53L46 52L45 52L45 51L46 51L46 50L47 50L47 49L46 49L46 48L48 48L48 47L49 47L49 48L50 48L50 47L49 47L49 46L50 46L50 45L51 45L51 44L49 44L49 46L48 46L48 47L46 47L46 46L47 46L47 45L48 45L48 43L46 43L46 42L45 42L45 43L46 43L46 46L45 46L45 45L44 45L44 44L43 44L43 42L41 42L41 43L39 43L39 42ZM63 42L63 43L64 43L64 42ZM41 43L41 44L42 44L42 43ZM10 44L10 45L12 45L12 46L13 46L13 47L14 47L14 46L13 46L13 44ZM24 44L24 45L25 45L25 44ZM32 44L32 45L34 45L34 46L35 46L35 47L37 47L37 46L38 46L38 47L39 47L39 46L38 46L38 45L34 45L34 44ZM0 45L0 46L2 46L2 45ZM10 46L10 47L11 47L11 46ZM6 47L6 48L7 48L7 47ZM0 48L0 49L1 49L1 48ZM25 48L25 49L26 49L26 48ZM57 48L57 49L58 49L58 48ZM2 50L2 51L1 51L1 52L3 52L3 50ZM6 51L6 52L7 52L7 53L6 53L6 54L7 54L7 53L8 53L8 52L7 52L7 51ZM43 51L43 52L44 52L44 53L45 53L45 52L44 52L44 51ZM48 51L48 52L49 52L49 51ZM54 51L54 53L55 53L55 55L54 55L54 57L55 57L55 55L56 55L56 56L57 56L57 55L58 55L58 53L55 53L55 51ZM15 52L15 54L16 54L16 52ZM21 53L21 54L23 54L23 53ZM56 54L56 55L57 55L57 54ZM60 54L60 55L59 55L59 56L61 56L61 57L62 57L62 58L61 58L61 59L62 59L62 60L61 60L61 61L58 61L58 63L60 63L60 64L61 64L61 63L62 63L62 64L63 64L63 63L62 63L62 62L61 62L61 61L62 61L62 60L63 60L63 59L64 59L64 56L63 56L63 55L64 55L64 54L62 54L62 56L61 56L61 54ZM9 55L9 56L8 56L8 57L9 57L9 56L10 56L10 57L11 57L11 58L12 58L12 57L11 57L11 56L10 56L10 55ZM18 55L18 56L19 56L19 55ZM22 55L22 58L23 58L23 55ZM25 55L25 56L26 56L26 55ZM28 55L28 58L27 58L27 57L25 57L25 58L26 58L26 59L24 59L24 60L25 60L25 62L26 62L26 64L28 64L28 62L29 62L29 61L26 61L26 60L27 60L27 59L29 59L29 58L30 58L30 57L29 57L29 56L31 56L31 55ZM20 56L20 57L19 57L19 59L20 59L20 60L19 60L19 61L20 61L20 60L21 60L21 58L20 58L20 57L21 57L21 56ZM62 56L62 57L63 57L63 56ZM31 57L31 60L34 60L34 57ZM57 57L57 60L60 60L60 57ZM32 58L32 59L33 59L33 58ZM58 58L58 59L59 59L59 58ZM62 58L62 59L63 59L63 58ZM35 59L35 60L37 60L37 62L38 62L38 63L39 63L39 64L40 64L40 63L39 63L39 62L38 62L38 59ZM40 60L40 61L41 61L41 60ZM35 61L35 62L36 62L36 61ZM51 61L51 62L52 62L52 61ZM54 61L54 63L53 63L53 64L55 64L55 65L56 65L56 63L55 63L55 61ZM8 63L8 65L9 65L9 63ZM35 63L35 64L36 64L36 63ZM42 64L42 65L43 65L43 64ZM44 64L44 65L45 65L45 64ZM0 0L0 7L7 7L7 0ZM1 1L1 6L6 6L6 1ZM2 2L2 5L5 5L5 2ZM58 0L58 7L65 7L65 0ZM59 1L59 6L64 6L64 1ZM60 2L60 5L63 5L63 2ZM0 58L0 65L7 65L7 58ZM1 59L1 64L6 64L6 59ZM2 60L2 63L5 63L5 60Z" fill="#000000"/></g></g></svg>
