<?xml version="1.0" encoding="UTF-8"?>
<svg xmlns="http://www.w3.org/2000/svg" version="1.1" width="300" height="300" viewBox="0 0 300 300"><rect x="0" y="0" width="300" height="300" fill="#ffffff"/><g transform="scale(4.615)"><g transform="translate(0,0)"><path fill-rule="evenodd" d="M8 0L8 2L9 2L9 3L10 3L10 2L11 2L11 3L12 3L12 5L11 5L11 4L10 4L10 5L9 5L9 4L8 4L8 9L10 9L10 10L9 10L9 12L10 12L10 13L11 13L11 14L10 14L10 15L7 15L7 14L5 14L5 15L3 15L3 14L4 14L4 13L5 13L5 12L4 12L4 11L3 11L3 12L2 12L2 10L4 10L4 9L3 9L3 8L0 8L0 9L1 9L1 12L0 12L0 13L2 13L2 15L1 15L1 14L0 14L0 16L2 16L2 15L3 15L3 18L2 18L2 17L1 17L1 22L2 22L2 23L0 23L0 24L2 24L2 23L3 23L3 25L2 25L2 26L4 26L4 27L3 27L3 28L2 28L2 27L1 27L1 28L0 28L0 29L1 29L1 30L0 30L0 32L2 32L2 31L1 31L1 30L3 30L3 31L4 31L4 33L2 33L2 34L0 34L0 37L3 37L3 34L4 34L4 35L7 35L7 36L6 36L6 37L4 37L4 38L3 38L3 39L2 39L2 41L1 41L1 39L0 39L0 41L1 41L1 42L0 42L0 48L1 48L1 49L0 49L0 52L1 52L1 53L2 53L2 55L3 55L3 56L1 56L1 55L0 55L0 56L1 56L1 57L3 57L3 56L4 56L4 57L5 57L5 56L4 56L4 53L5 53L5 55L8 55L8 58L9 58L9 57L10 57L10 56L11 56L11 55L12 55L12 56L13 56L13 58L12 58L12 57L11 57L11 58L10 58L10 59L8 59L8 60L9 60L9 61L10 61L10 60L11 60L11 59L13 59L13 61L14 61L14 62L12 62L12 61L11 61L11 63L10 63L10 62L8 62L8 65L9 65L9 63L10 63L10 65L11 65L11 64L12 64L12 63L14 63L14 62L15 62L15 60L16 60L16 61L17 61L17 60L16 60L16 59L18 59L18 58L19 58L19 60L18 60L18 61L19 61L19 60L20 60L20 61L21 61L21 62L20 62L20 63L21 63L21 65L23 65L23 64L22 64L22 63L23 63L23 62L22 62L22 61L23 61L23 60L24 60L24 61L25 61L25 58L24 58L24 57L25 57L25 55L24 55L24 56L23 56L23 54L24 54L24 53L25 53L25 52L24 52L24 51L25 51L25 50L26 50L26 49L27 49L27 50L28 50L28 51L26 51L26 52L27 52L27 54L26 54L26 55L27 55L27 56L26 56L26 57L27 57L27 58L26 58L26 62L24 62L24 63L25 63L25 65L27 65L27 64L28 64L28 63L29 63L29 65L34 65L34 63L35 63L35 64L36 64L36 65L37 65L37 63L36 63L36 62L35 62L35 60L36 60L36 61L37 61L37 62L38 62L38 65L39 65L39 63L41 63L41 64L40 64L40 65L41 65L41 64L42 64L42 60L43 60L43 59L44 59L44 58L46 58L46 57L47 57L47 58L48 58L48 59L45 59L45 60L44 60L44 61L43 61L43 62L44 62L44 63L43 63L43 64L44 64L44 65L46 65L46 64L47 64L47 63L49 63L49 62L50 62L50 64L48 64L48 65L50 65L50 64L52 64L52 65L53 65L53 64L54 64L54 63L55 63L55 65L56 65L56 63L57 63L57 64L58 64L58 65L59 65L59 64L58 64L58 61L60 61L60 63L61 63L61 64L60 64L60 65L62 65L62 63L65 63L65 62L63 62L63 61L62 61L62 59L63 59L63 58L64 58L64 60L65 60L65 58L64 58L64 57L65 57L65 54L64 54L64 55L63 55L63 56L62 56L62 54L60 54L60 52L59 52L59 54L58 54L58 55L59 55L59 54L60 54L60 55L61 55L61 56L57 56L57 52L58 52L58 51L59 51L59 50L60 50L60 49L59 49L59 50L58 50L58 49L57 49L57 46L56 46L56 45L58 45L58 47L60 47L60 48L61 48L61 49L63 49L63 50L61 50L61 53L62 53L62 51L63 51L63 53L65 53L65 48L64 48L64 47L65 47L65 46L64 46L64 45L65 45L65 42L64 42L64 45L63 45L63 44L62 44L62 43L63 43L63 42L62 42L62 41L61 41L61 39L63 39L63 38L62 38L62 37L61 37L61 36L62 36L62 34L63 34L63 33L62 33L62 30L61 30L61 29L62 29L62 27L63 27L63 29L64 29L64 33L65 33L65 22L64 22L64 21L63 21L63 20L62 20L62 19L63 19L63 16L64 16L64 20L65 20L65 16L64 16L64 15L65 15L65 8L63 8L63 9L62 9L62 11L61 11L61 10L60 10L60 9L61 9L61 8L56 8L56 7L57 7L57 6L56 6L56 7L55 7L55 5L52 5L52 4L50 4L50 7L49 7L49 6L48 6L48 7L47 7L47 4L46 4L46 1L47 1L47 2L48 2L48 1L49 1L49 0L46 0L46 1L44 1L44 0L42 0L42 1L41 1L41 2L40 2L40 1L39 1L39 0L38 0L38 1L39 1L39 3L38 3L38 5L35 5L35 4L36 4L36 1L35 1L35 0L34 0L34 1L35 1L35 3L34 3L34 2L31 2L31 3L30 3L30 4L29 4L29 2L30 2L30 1L31 1L31 0L30 0L30 1L29 1L29 0L28 0L28 9L27 9L27 8L26 8L26 9L25 9L25 8L24 8L24 9L23 9L23 8L22 8L22 7L23 7L23 6L24 6L24 7L25 7L25 6L26 6L26 7L27 7L27 6L26 6L26 5L27 5L27 4L26 4L26 5L25 5L25 3L23 3L23 2L22 2L22 3L23 3L23 4L22 4L22 5L23 5L23 6L22 6L22 7L21 7L21 6L20 6L20 5L21 5L21 3L20 3L20 2L21 2L21 1L22 1L22 0L20 0L20 2L18 2L18 3L19 3L19 4L18 4L18 7L19 7L19 6L20 6L20 7L21 7L21 8L22 8L22 9L21 9L21 12L20 12L20 9L19 9L19 8L18 8L18 10L17 10L17 9L16 9L16 7L17 7L17 5L15 5L15 6L14 6L14 7L13 7L13 6L12 6L12 5L14 5L14 4L15 4L15 3L16 3L16 2L17 2L17 1L18 1L18 0L17 0L17 1L16 1L16 2L15 2L15 1L14 1L14 2L15 2L15 3L14 3L14 4L13 4L13 2L11 2L11 0ZM12 0L12 1L13 1L13 0ZM24 0L24 2L25 2L25 1L26 1L26 0ZM32 0L32 1L33 1L33 0ZM50 0L50 1L51 1L51 2L49 2L49 3L51 3L51 2L52 2L52 1L53 1L53 4L56 4L56 5L57 5L57 4L56 4L56 3L57 3L57 1L56 1L56 0L55 0L55 1L56 1L56 3L55 3L55 2L54 2L54 0ZM9 1L9 2L10 2L10 1ZM42 1L42 2L44 2L44 4L43 4L43 3L42 3L42 4L41 4L41 3L40 3L40 4L41 4L41 7L40 7L40 6L39 6L39 5L38 5L38 6L37 6L37 7L38 7L38 8L37 8L37 9L38 9L38 10L39 10L39 11L37 11L37 13L36 13L36 9L34 9L34 11L33 11L33 9L32 9L32 11L30 11L30 12L29 12L29 14L28 14L28 15L30 15L30 18L32 18L32 19L33 19L33 17L34 17L34 18L35 18L35 19L34 19L34 23L35 23L35 21L36 21L36 24L33 24L33 25L34 25L34 28L35 28L35 29L34 29L34 30L35 30L35 33L36 33L36 35L35 35L35 36L34 36L34 35L32 35L32 36L31 36L31 37L29 37L29 36L28 36L28 38L27 38L27 37L26 37L26 39L25 39L25 41L24 41L24 42L23 42L23 43L22 43L22 40L23 40L23 39L24 39L24 38L25 38L25 37L24 37L24 38L23 38L23 37L22 37L22 39L21 39L21 40L20 40L20 42L19 42L19 44L20 44L20 42L21 42L21 43L22 43L22 44L21 44L21 45L22 45L22 46L23 46L23 45L22 45L22 44L23 44L23 43L25 43L25 46L24 46L24 47L26 47L26 46L27 46L27 48L31 48L31 49L28 49L28 50L29 50L29 51L28 51L28 54L29 54L29 55L28 55L28 56L27 56L27 57L28 57L28 58L30 58L30 55L31 55L31 56L35 56L35 59L36 59L36 60L37 60L37 61L38 61L38 62L39 62L39 61L40 61L40 60L41 60L41 59L40 59L40 58L39 58L39 57L40 57L40 56L39 56L39 55L42 55L42 56L41 56L41 57L42 57L42 58L44 58L44 55L46 55L46 56L47 56L47 57L48 57L48 56L49 56L49 55L50 55L50 58L51 58L51 60L49 60L49 61L50 61L50 62L51 62L51 63L52 63L52 64L53 64L53 61L54 61L54 62L55 62L55 61L54 61L54 60L56 60L56 57L55 57L55 56L56 56L56 55L55 55L55 52L56 52L56 50L57 50L57 51L58 51L58 50L57 50L57 49L56 49L56 50L55 50L55 48L56 48L56 47L55 47L55 45L54 45L54 44L56 44L56 43L58 43L58 44L60 44L60 47L61 47L61 46L62 46L62 45L61 45L61 44L60 44L60 42L61 42L61 41L60 41L60 42L59 42L59 41L58 41L58 38L59 38L59 36L60 36L60 35L59 35L59 36L58 36L58 35L57 35L57 36L56 36L56 34L55 34L55 33L54 33L54 34L55 34L55 35L53 35L53 33L52 33L52 32L54 32L54 31L56 31L56 30L57 30L57 29L58 29L58 30L60 30L60 28L61 28L61 27L62 27L62 26L63 26L63 27L64 27L64 25L63 25L63 24L64 24L64 22L63 22L63 23L62 23L62 22L61 22L61 21L60 21L60 23L62 23L62 26L61 26L61 27L60 27L60 26L59 26L59 25L58 25L58 23L59 23L59 19L60 19L60 18L61 18L61 19L62 19L62 17L60 17L60 18L59 18L59 15L61 15L61 14L62 14L62 16L63 16L63 15L64 15L64 14L62 14L62 12L63 12L63 11L64 11L64 9L63 9L63 11L62 11L62 12L61 12L61 14L60 14L60 12L59 12L59 11L58 11L58 10L59 10L59 9L58 9L58 10L57 10L57 9L56 9L56 8L55 8L55 9L54 9L54 10L55 10L55 9L56 9L56 10L57 10L57 11L56 11L56 12L55 12L55 11L53 11L53 13L52 13L52 14L51 14L51 13L50 13L50 14L48 14L48 10L49 10L49 9L48 9L48 8L49 8L49 7L48 7L48 8L47 8L47 7L46 7L46 6L45 6L45 7L44 7L44 4L45 4L45 5L46 5L46 4L45 4L45 2L44 2L44 1ZM26 2L26 3L27 3L27 2ZM32 3L32 4L34 4L34 3ZM19 4L19 5L20 5L20 4ZM23 4L23 5L24 5L24 6L25 6L25 5L24 5L24 4ZM42 4L42 5L43 5L43 4ZM48 4L48 5L49 5L49 4ZM31 5L31 8L34 8L34 5ZM51 5L51 7L50 7L50 8L51 8L51 9L50 9L50 11L49 11L49 12L51 12L51 11L52 11L52 10L53 10L53 9L52 9L52 8L54 8L54 6L53 6L53 7L52 7L52 5ZM9 6L9 8L10 8L10 6ZM11 6L11 7L12 7L12 6ZM15 6L15 7L14 7L14 9L12 9L12 8L11 8L11 9L12 9L12 10L10 10L10 12L11 12L11 13L13 13L13 14L11 14L11 15L13 15L13 17L11 17L11 18L8 18L8 17L9 17L9 16L7 16L7 15L6 15L6 16L5 16L5 17L4 17L4 18L3 18L3 20L2 20L2 22L3 22L3 20L5 20L5 22L4 22L4 23L5 23L5 24L4 24L4 25L5 25L5 26L7 26L7 27L4 27L4 28L3 28L3 30L5 30L5 29L6 29L6 30L7 30L7 29L8 29L8 30L9 30L9 31L10 31L10 34L11 34L11 35L10 35L10 36L11 36L11 37L10 37L10 38L11 38L11 39L8 39L8 38L9 38L9 36L8 36L8 38L7 38L7 37L6 37L6 38L5 38L5 39L6 39L6 40L4 40L4 39L3 39L3 41L5 41L5 45L4 45L4 44L3 44L3 43L4 43L4 42L1 42L1 44L3 44L3 46L2 46L2 47L1 47L1 48L2 48L2 50L1 50L1 52L2 52L2 53L3 53L3 48L2 48L2 47L3 47L3 46L4 46L4 50L5 50L5 51L4 51L4 52L7 52L7 53L6 53L6 54L10 54L10 55L11 55L11 53L14 53L14 54L12 54L12 55L14 55L14 56L15 56L15 57L14 57L14 60L15 60L15 57L16 57L16 58L17 58L17 57L18 57L18 56L19 56L19 57L20 57L20 58L21 58L21 57L20 57L20 55L21 55L21 54L23 54L23 52L22 52L22 51L24 51L24 50L25 50L25 49L26 49L26 48L25 48L25 49L24 49L24 48L23 48L23 49L22 49L22 47L21 47L21 46L20 46L20 47L21 47L21 49L20 49L20 50L21 50L21 51L19 51L19 49L18 49L18 48L19 48L19 47L18 47L18 46L16 46L16 47L17 47L17 49L16 49L16 50L14 50L14 49L13 49L13 51L12 51L12 52L10 52L10 51L9 51L9 49L6 49L6 48L10 48L10 47L11 47L11 49L12 49L12 48L15 48L15 47L14 47L14 46L10 46L10 45L11 45L11 44L12 44L12 45L13 45L13 44L14 44L14 45L15 45L15 42L14 42L14 41L15 41L15 40L16 40L16 42L18 42L18 40L19 40L19 39L20 39L20 38L21 38L21 36L19 36L19 35L20 35L20 34L21 34L21 31L22 31L22 32L24 32L24 34L23 34L23 35L22 35L22 36L24 36L24 34L27 34L27 35L26 35L26 36L27 36L27 35L28 35L28 34L29 34L29 35L30 35L30 33L28 33L28 34L27 34L27 33L26 33L26 32L27 32L27 30L29 30L29 31L28 31L28 32L30 32L30 30L29 30L29 29L26 29L26 28L25 28L25 29L24 29L24 27L22 27L22 26L23 26L23 25L24 25L24 26L25 26L25 25L26 25L26 26L27 26L27 27L28 27L28 26L30 26L30 29L32 29L32 28L33 28L33 26L30 26L30 25L32 25L32 22L33 22L33 21L28 21L28 20L29 20L29 17L28 17L28 16L27 16L27 14L26 14L26 11L27 11L27 12L28 12L28 11L27 11L27 9L26 9L26 10L25 10L25 9L24 9L24 12L25 12L25 14L24 14L24 15L25 15L25 14L26 14L26 16L25 16L25 17L24 17L24 19L23 19L23 17L22 17L22 16L23 16L23 13L22 13L22 12L23 12L23 9L22 9L22 12L21 12L21 13L22 13L22 14L20 14L20 15L21 15L21 17L20 17L20 16L19 16L19 14L18 14L18 11L17 11L17 12L16 12L16 11L13 11L13 10L14 10L14 9L15 9L15 10L16 10L16 9L15 9L15 7L16 7L16 6ZM29 6L29 7L30 7L30 6ZM32 6L32 7L33 7L33 6ZM35 6L35 7L36 7L36 6ZM38 6L38 7L39 7L39 6ZM42 6L42 7L41 7L41 8L40 8L40 9L39 9L39 10L40 10L40 13L39 13L39 14L38 14L38 13L37 13L37 16L36 16L36 17L37 17L37 18L36 18L36 19L38 19L38 20L36 20L36 21L37 21L37 24L36 24L36 25L35 25L35 27L37 27L37 25L38 25L38 24L40 24L40 25L41 25L41 26L40 26L40 27L41 27L41 28L40 28L40 29L39 29L39 31L36 31L36 33L37 33L37 35L36 35L36 37L34 37L34 36L33 36L33 37L34 37L34 40L35 40L35 41L34 41L34 43L36 43L36 49L34 49L34 52L33 52L33 50L32 50L32 49L33 49L33 48L34 48L34 47L35 47L35 46L34 46L34 44L33 44L33 43L32 43L32 44L31 44L31 45L30 45L30 43L29 43L29 42L28 42L28 39L29 39L29 41L30 41L30 42L31 42L31 41L30 41L30 38L28 38L28 39L27 39L27 40L26 40L26 43L27 43L27 42L28 42L28 44L26 44L26 45L27 45L27 46L28 46L28 45L30 45L30 46L29 46L29 47L30 47L30 46L31 46L31 47L32 47L32 49L31 49L31 50L30 50L30 51L29 51L29 52L30 52L30 53L31 53L31 55L32 55L32 53L34 53L34 52L35 52L35 50L36 50L36 51L38 51L38 49L39 49L39 50L40 50L40 51L43 51L43 52L40 52L40 53L39 53L39 54L38 54L38 52L36 52L36 53L35 53L35 54L34 54L34 55L35 55L35 56L36 56L36 57L37 57L37 58L36 58L36 59L38 59L38 61L39 61L39 58L38 58L38 57L39 57L39 56L38 56L38 55L39 55L39 54L40 54L40 53L41 53L41 54L42 54L42 55L43 55L43 54L42 54L42 53L43 53L43 52L44 52L44 54L46 54L46 55L47 55L47 54L48 54L48 55L49 55L49 54L48 54L48 53L49 53L49 51L50 51L50 48L51 48L51 47L52 47L52 51L51 51L51 52L52 52L52 55L53 55L53 56L52 56L52 57L53 57L53 58L52 58L52 59L53 59L53 60L52 60L52 61L53 61L53 60L54 60L54 59L55 59L55 58L54 58L54 57L53 57L53 56L55 56L55 55L54 55L54 51L55 51L55 50L54 50L54 49L53 49L53 48L55 48L55 47L54 47L54 45L53 45L53 44L54 44L54 43L56 43L56 42L57 42L57 41L56 41L56 40L57 40L57 39L56 39L56 38L58 38L58 37L56 37L56 36L54 36L54 37L53 37L53 35L52 35L52 33L51 33L51 32L52 32L52 31L53 31L53 29L54 29L54 28L55 28L55 30L56 30L56 28L57 28L57 27L56 27L56 25L57 25L57 24L56 24L56 23L58 23L58 21L57 21L57 20L56 20L56 19L59 19L59 18L58 18L58 16L56 16L56 15L59 15L59 14L58 14L58 11L57 11L57 14L54 14L54 13L53 13L53 14L52 14L52 15L51 15L51 14L50 14L50 15L49 15L49 16L48 16L48 15L47 15L47 16L46 16L46 13L45 13L45 10L46 10L46 11L47 11L47 10L46 10L46 9L47 9L47 8L46 8L46 7L45 7L45 8L44 8L44 9L43 9L43 10L42 10L42 7L43 7L43 6ZM5 8L5 9L7 9L7 8ZM28 9L28 10L30 10L30 9ZM40 9L40 10L41 10L41 13L40 13L40 16L39 16L39 15L38 15L38 19L39 19L39 20L38 20L38 23L39 23L39 21L40 21L40 24L42 24L42 26L44 26L44 23L43 23L43 22L45 22L45 23L46 23L46 25L45 25L45 27L42 27L42 28L41 28L41 31L39 31L39 33L38 33L38 32L37 32L37 33L38 33L38 34L40 34L40 35L39 35L39 37L38 37L38 39L37 39L37 37L36 37L36 38L35 38L35 39L37 39L37 41L36 41L36 42L37 42L37 43L38 43L38 44L39 44L39 45L38 45L38 46L37 46L37 49L38 49L38 46L39 46L39 45L40 45L40 47L41 47L41 45L40 45L40 44L39 44L39 43L38 43L38 42L39 42L39 39L40 39L40 38L41 38L41 39L42 39L42 40L41 40L41 41L42 41L42 43L41 43L41 44L42 44L42 46L44 46L44 47L45 47L45 46L44 46L44 44L43 44L43 43L44 43L44 42L43 42L43 41L44 41L44 40L43 40L43 39L42 39L42 38L45 38L45 37L46 37L46 39L45 39L45 40L46 40L46 44L45 44L45 45L46 45L46 46L49 46L49 45L48 45L48 44L49 44L49 43L50 43L50 42L52 42L52 40L50 40L50 38L51 38L51 37L50 37L50 38L49 38L49 37L48 37L48 36L51 36L51 35L48 35L48 36L47 36L47 35L46 35L46 36L45 36L45 35L44 35L44 34L43 34L43 33L44 33L44 32L47 32L47 33L46 33L46 34L47 34L47 33L48 33L48 32L49 32L49 33L50 33L50 34L51 34L51 33L50 33L50 32L51 32L51 31L52 31L52 28L54 28L54 27L55 27L55 28L56 28L56 27L55 27L55 25L54 25L54 24L55 24L55 23L56 23L56 22L57 22L57 21L56 21L56 20L55 20L55 21L54 21L54 23L52 23L52 24L51 24L51 23L50 23L50 22L51 22L51 21L52 21L52 22L53 22L53 21L52 21L52 20L54 20L54 19L56 19L56 18L57 18L57 17L56 17L56 16L55 16L55 15L54 15L54 14L53 14L53 15L52 15L52 16L51 16L51 17L50 17L50 16L49 16L49 18L47 18L47 17L48 17L48 16L47 16L47 17L46 17L46 16L45 16L45 17L44 17L44 16L42 16L42 15L45 15L45 13L43 13L43 12L42 12L42 10L41 10L41 9ZM44 9L44 10L43 10L43 11L44 11L44 10L45 10L45 9ZM51 9L51 10L52 10L52 9ZM5 10L5 11L7 11L7 12L6 12L6 13L7 13L7 12L8 12L8 10ZM12 11L12 12L13 12L13 13L16 13L16 14L15 14L15 15L16 15L16 16L18 16L18 17L19 17L19 19L18 19L18 20L19 20L19 22L18 22L18 23L20 23L20 25L19 25L19 24L18 24L18 25L19 25L19 26L18 26L18 27L19 27L19 28L16 28L16 27L17 27L17 26L16 26L16 24L17 24L17 23L16 23L16 22L17 22L17 20L16 20L16 18L17 18L17 17L15 17L15 16L14 16L14 18L15 18L15 26L14 26L14 25L13 25L13 24L14 24L14 23L13 23L13 22L14 22L14 21L13 21L13 20L14 20L14 19L13 19L13 18L12 18L12 19L10 19L10 20L11 20L11 21L10 21L10 22L9 22L9 19L7 19L7 18L4 18L4 19L7 19L7 20L6 20L6 21L7 21L7 22L5 22L5 23L7 23L7 24L6 24L6 25L7 25L7 26L9 26L9 27L7 27L7 28L6 28L6 29L7 29L7 28L8 28L8 29L10 29L10 30L11 30L11 28L14 28L14 30L13 30L13 29L12 29L12 30L13 30L13 31L12 31L12 33L11 33L11 34L12 34L12 33L13 33L13 34L14 34L14 35L13 35L13 36L12 36L12 35L11 35L11 36L12 36L12 37L11 37L11 38L14 38L14 39L12 39L12 40L13 40L13 41L12 41L12 42L13 42L13 43L14 43L14 42L13 42L13 41L14 41L14 39L15 39L15 38L16 38L16 39L18 39L18 37L19 37L19 38L20 38L20 37L19 37L19 36L18 36L18 35L19 35L19 34L18 34L18 33L19 33L19 31L18 31L18 33L17 33L17 32L15 32L15 31L14 31L14 30L15 30L15 28L16 28L16 29L17 29L17 30L16 30L16 31L17 31L17 30L19 30L19 28L20 28L20 29L21 29L21 28L22 28L22 29L23 29L23 28L22 28L22 27L21 27L21 26L22 26L22 25L23 25L23 24L24 24L24 25L25 25L25 24L26 24L26 25L27 25L27 26L28 26L28 25L27 25L27 22L28 22L28 21L27 21L27 22L26 22L26 23L25 23L25 24L24 24L24 21L25 21L25 19L24 19L24 20L23 20L23 19L22 19L22 20L23 20L23 22L21 22L21 23L20 23L20 21L21 21L21 20L19 20L19 19L20 19L20 17L19 17L19 16L18 16L18 15L16 15L16 14L17 14L17 13L16 13L16 12L13 12L13 11ZM32 11L32 17L33 17L33 15L34 15L34 17L35 17L35 15L36 15L36 13L35 13L35 12L34 12L34 13L33 13L33 11ZM3 12L3 13L4 13L4 12ZM30 12L30 15L31 15L31 12ZM8 13L8 14L9 14L9 13ZM34 13L34 15L35 15L35 13ZM41 13L41 14L42 14L42 13ZM53 15L53 16L52 16L52 18L51 18L51 19L49 19L49 20L48 20L48 19L47 19L47 20L48 20L48 21L47 21L47 23L48 23L48 27L49 27L49 26L50 26L50 25L49 25L49 24L50 24L50 23L48 23L48 21L49 21L49 22L50 22L50 21L51 21L51 20L52 20L52 18L54 18L54 17L55 17L55 18L56 18L56 17L55 17L55 16L54 16L54 15ZM6 16L6 17L7 17L7 16ZM26 16L26 17L27 17L27 18L28 18L28 17L27 17L27 16ZM40 16L40 17L39 17L39 18L40 18L40 17L41 17L41 20L40 20L40 21L41 21L41 20L42 20L42 21L43 21L43 20L44 20L44 21L45 21L45 20L44 20L44 17L43 17L43 20L42 20L42 16ZM53 16L53 17L54 17L54 16ZM26 19L26 20L28 20L28 19ZM30 19L30 20L31 20L31 19ZM55 21L55 22L56 22L56 21ZM8 22L8 23L9 23L9 22ZM10 22L10 23L11 23L11 24L13 24L13 23L11 23L11 22ZM21 23L21 25L20 25L20 26L19 26L19 27L20 27L20 26L21 26L21 25L22 25L22 23ZM28 23L28 24L29 24L29 25L30 25L30 23ZM9 24L9 25L10 25L10 27L9 27L9 28L11 28L11 27L12 27L12 26L11 26L11 25L10 25L10 24ZM52 24L52 25L51 25L51 26L52 26L52 27L50 27L50 28L48 28L48 29L47 29L47 27L45 27L45 28L44 28L44 29L45 29L45 30L44 30L44 31L42 31L42 32L40 32L40 34L41 34L41 35L40 35L40 37L39 37L39 38L40 38L40 37L41 37L41 38L42 38L42 37L43 37L43 36L44 36L44 37L45 37L45 36L44 36L44 35L43 35L43 34L42 34L42 32L44 32L44 31L45 31L45 30L46 30L46 29L47 29L47 30L48 30L48 31L49 31L49 32L50 32L50 28L52 28L52 27L53 27L53 26L52 26L52 25L53 25L53 24ZM14 27L14 28L15 28L15 27ZM38 27L38 28L36 28L36 29L37 29L37 30L38 30L38 28L39 28L39 27ZM58 27L58 29L59 29L59 27ZM1 28L1 29L2 29L2 28ZM4 28L4 29L5 29L5 28ZM25 29L25 30L24 30L24 31L25 31L25 32L26 32L26 31L25 31L25 30L26 30L26 29ZM20 30L20 31L21 31L21 30ZM5 31L5 34L8 34L8 31ZM31 31L31 34L34 34L34 31ZM57 31L57 34L60 34L60 31ZM6 32L6 33L7 33L7 32ZM32 32L32 33L33 33L33 32ZM58 32L58 33L59 33L59 32ZM14 33L14 34L15 34L15 33ZM16 33L16 35L17 35L17 33ZM61 33L61 34L62 34L62 33ZM64 34L64 36L63 36L63 37L65 37L65 34ZM14 35L14 36L15 36L15 37L16 37L16 38L17 38L17 37L16 37L16 36L15 36L15 35ZM37 35L37 36L38 36L38 35ZM41 35L41 37L42 37L42 35ZM46 36L46 37L47 37L47 38L48 38L48 39L47 39L47 41L48 41L48 42L50 42L50 40L49 40L49 38L48 38L48 37L47 37L47 36ZM31 37L31 38L32 38L32 37ZM52 37L52 38L53 38L53 41L54 41L54 42L55 42L55 41L54 41L54 40L56 40L56 39L54 39L54 38L56 38L56 37L54 37L54 38L53 38L53 37ZM60 37L60 39L61 39L61 37ZM6 38L6 39L7 39L7 38ZM64 38L64 41L65 41L65 38ZM31 39L31 40L32 40L32 39ZM6 40L6 41L7 41L7 40ZM10 40L10 41L9 41L9 42L10 42L10 43L8 43L8 44L6 44L6 45L5 45L5 47L7 47L7 46L6 46L6 45L8 45L8 47L10 47L10 46L9 46L9 45L10 45L10 44L11 44L11 42L10 42L10 41L11 41L11 40ZM37 41L37 42L38 42L38 41ZM6 42L6 43L7 43L7 42ZM58 42L58 43L59 43L59 42ZM16 43L16 44L17 44L17 45L18 45L18 43ZM51 43L51 44L50 44L50 46L52 46L52 44L53 44L53 43ZM32 44L32 47L34 47L34 46L33 46L33 44ZM46 44L46 45L47 45L47 44ZM63 46L63 47L62 47L62 48L63 48L63 47L64 47L64 46ZM39 48L39 49L40 49L40 50L41 50L41 49L42 49L42 50L43 50L43 49L44 49L44 51L46 51L46 52L47 52L47 49L46 49L46 48L45 48L45 49L44 49L44 48L41 48L41 49L40 49L40 48ZM17 49L17 50L16 50L16 51L15 51L15 52L16 52L16 53L15 53L15 54L14 54L14 55L15 55L15 56L16 56L16 57L17 57L17 56L16 56L16 55L18 55L18 54L16 54L16 53L17 53L17 50L18 50L18 49ZM23 49L23 50L24 50L24 49ZM45 49L45 50L46 50L46 49ZM48 49L48 51L49 51L49 49ZM6 50L6 51L7 51L7 52L9 52L9 51L7 51L7 50ZM31 50L31 51L30 51L30 52L31 52L31 53L32 53L32 52L31 52L31 51L32 51L32 50ZM13 51L13 52L14 52L14 51ZM18 51L18 52L19 52L19 55L20 55L20 53L21 53L21 52L19 52L19 51ZM52 51L52 52L53 52L53 51ZM46 53L46 54L47 54L47 53ZM35 54L35 55L36 55L36 56L37 56L37 55L36 55L36 54ZM6 56L6 57L7 57L7 56ZM28 56L28 57L29 57L29 56ZM42 56L42 57L43 57L43 56ZM61 56L61 57L62 57L62 58L63 58L63 57L64 57L64 56L63 56L63 57L62 57L62 56ZM31 57L31 60L34 60L34 57ZM57 57L57 60L60 60L60 57ZM32 58L32 59L33 59L33 58ZM58 58L58 59L59 59L59 58ZM20 59L20 60L21 60L21 61L22 61L22 59ZM27 59L27 62L26 62L26 64L27 64L27 63L28 63L28 62L29 62L29 63L30 63L30 64L32 64L32 61L31 61L31 62L29 62L29 61L30 61L30 59L29 59L29 60L28 60L28 59ZM45 60L45 61L44 61L44 62L45 62L45 61L46 61L46 63L44 63L44 64L46 64L46 63L47 63L47 62L48 62L48 60L47 60L47 61L46 61L46 60ZM33 61L33 63L34 63L34 61ZM16 62L16 63L17 63L17 62ZM18 62L18 65L19 65L19 62ZM21 62L21 63L22 63L22 62ZM61 62L61 63L62 63L62 62ZM15 64L15 65L16 65L16 64ZM64 64L64 65L65 65L65 64ZM0 0L0 7L7 7L7 0ZM1 1L1 6L6 6L6 1ZM2 2L2 5L5 5L5 2ZM58 0L58 7L65 7L65 0ZM59 1L59 6L64 6L64 1ZM60 2L60 5L63 5L63 2ZM0 58L0 65L7 65L7 58ZM1 59L1 64L6 64L6 59ZM2 60L2 63L5 63L5 60Z" fill="#000000"/></g></g></svg>
