<?xml version="1.0" encoding="UTF-8"?>
<svg xmlns="http://www.w3.org/2000/svg" version="1.1" width="300" height="300" viewBox="0 0 300 300"><rect x="0" y="0" width="300" height="300" fill="#ffffff"/><g transform="scale(4.348)"><g transform="translate(0,0)"><path fill-rule="evenodd" d="M10 0L10 1L8 1L8 2L10 2L10 3L12 3L12 2L11 2L11 0ZM17 0L17 1L19 1L19 2L17 2L17 3L16 3L16 5L15 5L15 2L16 2L16 1L15 1L15 2L14 2L14 5L13 5L13 4L12 4L12 7L13 7L13 6L14 6L14 11L12 11L12 12L13 12L13 14L10 14L10 16L9 16L9 15L8 15L8 13L7 13L7 12L3 12L3 15L2 15L2 13L1 13L1 12L0 12L0 13L1 13L1 15L0 15L0 16L1 16L1 15L2 15L2 16L3 16L3 15L5 15L5 13L7 13L7 14L6 14L6 15L7 15L7 16L6 16L6 17L7 17L7 16L9 16L9 17L10 17L10 18L11 18L11 21L10 21L10 20L9 20L9 22L10 22L10 24L8 24L8 26L6 26L6 27L7 27L7 28L5 28L5 25L7 25L7 24L6 24L6 23L7 23L7 22L8 22L8 21L7 21L7 20L8 20L8 19L9 19L9 18L8 18L8 19L7 19L7 18L6 18L6 19L7 19L7 20L6 20L6 21L7 21L7 22L6 22L6 23L5 23L5 22L3 22L3 20L2 20L2 19L5 19L5 17L4 17L4 18L2 18L2 19L1 19L1 18L0 18L0 20L1 20L1 21L2 21L2 23L4 23L4 24L1 24L1 25L0 25L0 30L5 30L5 31L3 31L3 32L4 32L4 33L1 33L1 32L2 32L2 31L0 31L0 33L1 33L1 34L3 34L3 35L2 35L2 37L1 37L1 36L0 36L0 38L1 38L1 39L0 39L0 40L1 40L1 41L0 41L0 47L2 47L2 46L3 46L3 45L2 45L2 46L1 46L1 44L3 44L3 42L4 42L4 43L7 43L7 42L6 42L6 41L8 41L8 39L9 39L9 40L11 40L11 44L10 44L10 41L9 41L9 42L8 42L8 44L4 44L4 46L5 46L5 47L4 47L4 48L2 48L2 49L1 49L1 48L0 48L0 50L2 50L2 53L0 53L0 56L1 56L1 57L0 57L0 61L1 61L1 57L2 57L2 59L3 59L3 58L4 58L4 59L9 59L9 58L10 58L10 60L9 60L9 61L8 61L8 63L10 63L10 66L9 66L9 64L8 64L8 69L10 69L10 68L11 68L11 69L12 69L12 68L13 68L13 69L21 69L21 68L19 68L19 67L20 67L20 66L19 66L19 65L20 65L20 64L23 64L23 66L22 66L22 65L21 65L21 66L22 66L22 67L24 67L24 68L25 68L25 69L26 69L26 68L25 68L25 67L26 67L26 66L25 66L25 65L28 65L28 66L27 66L27 67L28 67L28 68L29 68L29 69L32 69L32 68L29 68L29 65L30 65L30 66L31 66L31 67L33 67L33 69L35 69L35 68L36 68L36 69L38 69L38 68L37 68L37 66L38 66L38 67L39 67L39 66L38 66L38 65L39 65L39 64L41 64L41 66L40 66L40 67L41 67L41 69L42 69L42 68L43 68L43 69L44 69L44 68L47 68L47 69L51 69L51 68L52 68L52 66L53 66L53 69L56 69L56 68L58 68L58 69L60 69L60 68L61 68L61 69L63 69L63 68L66 68L66 69L68 69L68 68L67 68L67 66L66 66L66 67L63 67L63 66L62 66L62 67L63 67L63 68L61 68L61 65L64 65L64 66L65 66L65 64L68 64L68 62L67 62L67 59L68 59L68 61L69 61L69 59L68 59L68 57L67 57L67 56L69 56L69 55L68 55L68 54L69 54L69 53L67 53L67 52L68 52L68 50L69 50L69 48L68 48L68 49L67 49L67 51L65 51L65 50L66 50L66 49L65 49L65 50L63 50L63 49L62 49L62 50L61 50L61 48L62 48L62 46L63 46L63 45L66 45L66 47L65 47L65 46L64 46L64 47L63 47L63 48L64 48L64 47L65 47L65 48L67 48L67 47L68 47L68 46L69 46L69 45L68 45L68 44L69 44L69 43L68 43L68 42L67 42L67 39L68 39L68 41L69 41L69 39L68 39L68 36L69 36L69 35L68 35L68 34L69 34L69 33L68 33L68 32L67 32L67 31L68 31L68 30L69 30L69 29L68 29L68 26L69 26L69 23L68 23L68 22L69 22L69 21L68 21L68 18L69 18L69 17L67 17L67 15L68 15L68 16L69 16L69 15L68 15L68 14L65 14L65 13L63 13L63 14L62 14L62 12L63 12L63 11L61 11L61 10L62 10L62 8L61 8L61 6L60 6L60 7L59 7L59 4L57 4L57 5L56 5L56 7L55 7L55 4L56 4L56 3L59 3L59 2L58 2L58 1L61 1L61 0L57 0L57 1L56 1L56 0L53 0L53 1L51 1L51 3L50 3L50 0L47 0L47 1L46 1L46 0L44 0L44 1L46 1L46 2L47 2L47 5L49 5L49 6L48 6L48 7L47 7L47 6L46 6L46 5L44 5L44 3L45 3L45 4L46 4L46 3L45 3L45 2L44 2L44 3L43 3L43 0L41 0L41 1L38 1L38 0L37 0L37 1L35 1L35 0L33 0L33 1L32 1L32 0L31 0L31 1L30 1L30 0L28 0L28 1L25 1L25 0L21 0L21 3L19 3L19 2L20 2L20 1L19 1L19 0ZM31 1L31 2L30 2L30 3L32 3L32 4L36 4L36 3L38 3L38 4L37 4L37 5L38 5L38 6L37 6L37 9L38 9L38 10L36 10L36 9L34 9L34 10L33 10L33 9L32 9L32 5L30 5L30 6L29 6L29 8L30 8L30 9L28 9L28 8L26 8L26 10L25 10L25 9L24 9L24 8L23 8L23 7L24 7L24 6L25 6L25 7L26 7L26 6L27 6L27 7L28 7L28 6L27 6L27 5L29 5L29 3L28 3L28 2L27 2L27 3L26 3L26 4L25 4L25 3L21 3L21 4L20 4L20 6L19 6L19 4L18 4L18 6L17 6L17 8L15 8L15 9L16 9L16 11L15 11L15 12L14 12L14 13L16 13L16 15L15 15L15 14L13 14L13 15L15 15L15 16L16 16L16 19L17 19L17 20L18 20L18 19L17 19L17 18L18 18L18 17L22 17L22 18L23 18L23 19L25 19L25 20L26 20L26 21L25 21L25 23L26 23L26 25L25 25L25 26L26 26L26 25L27 25L27 26L28 26L28 27L29 27L29 29L28 29L28 28L27 28L27 27L26 27L26 29L25 29L25 30L22 30L22 29L24 29L24 27L23 27L23 26L24 26L24 25L22 25L22 24L21 24L21 23L22 23L22 22L23 22L23 23L24 23L24 22L23 22L23 20L22 20L22 19L21 19L21 20L20 20L20 22L21 22L21 23L20 23L20 24L21 24L21 25L19 25L19 26L18 26L18 25L17 25L17 23L18 23L18 24L19 24L19 23L18 23L18 22L17 22L17 23L16 23L16 20L15 20L15 19L13 19L13 18L15 18L15 17L11 17L11 16L12 16L12 15L11 15L11 16L10 16L10 17L11 17L11 18L12 18L12 20L13 20L13 21L14 21L14 22L13 22L13 24L11 24L11 26L10 26L10 25L9 25L9 26L8 26L8 29L5 29L5 28L4 28L4 27L3 27L3 26L2 26L2 29L3 29L3 28L4 28L4 29L5 29L5 30L8 30L8 31L5 31L5 32L9 32L9 34L11 34L11 36L9 36L9 37L11 37L11 38L10 38L10 39L11 39L11 40L12 40L12 42L15 42L15 43L12 43L12 44L11 44L11 45L10 45L10 44L8 44L8 45L5 45L5 46L7 46L7 47L6 47L6 48L8 48L8 51L9 51L9 52L11 52L11 54L12 54L12 58L11 58L11 60L12 60L12 61L13 61L13 63L14 63L14 62L17 62L17 63L18 63L18 62L19 62L19 61L20 61L20 62L21 62L21 63L23 63L23 64L24 64L24 63L25 63L25 64L26 64L26 63L25 63L25 62L27 62L27 63L28 63L28 65L29 65L29 64L31 64L31 63L32 63L32 60L33 60L33 59L32 59L32 56L33 56L33 58L34 58L34 59L35 59L35 55L36 55L36 54L37 54L37 56L38 56L38 60L39 60L39 57L41 57L41 56L39 56L39 54L37 54L37 53L38 53L38 52L36 52L36 53L35 53L35 50L34 50L34 51L32 51L32 50L33 50L33 49L36 49L36 50L37 50L37 51L39 51L39 50L41 50L41 52L39 52L39 53L41 53L41 52L44 52L44 53L43 53L43 56L42 56L42 57L43 57L43 60L42 60L42 58L41 58L41 59L40 59L40 62L39 62L39 61L38 61L38 62L37 62L37 63L41 63L41 64L44 64L44 66L41 66L41 67L43 67L43 68L44 68L44 66L45 66L45 67L46 67L46 66L47 66L47 63L49 63L49 64L50 64L50 66L49 66L49 67L48 67L48 68L49 68L49 67L50 67L50 68L51 68L51 65L53 65L53 66L54 66L54 68L56 68L56 67L58 67L58 68L59 68L59 64L60 64L60 63L59 63L59 64L58 64L58 65L57 65L57 64L56 64L56 63L58 63L58 62L60 62L60 60L65 60L65 59L67 59L67 57L65 57L65 56L64 56L64 57L63 57L63 58L62 58L62 59L60 59L60 58L61 58L61 57L62 57L62 56L61 56L61 54L62 54L62 55L65 55L65 53L66 53L66 52L64 52L64 51L63 51L63 50L62 50L62 51L61 51L61 50L60 50L60 51L58 51L58 52L57 52L57 51L56 51L56 50L55 50L55 52L54 52L54 51L53 51L53 50L52 50L52 52L51 52L51 51L50 51L50 52L49 52L49 51L47 51L47 50L49 50L49 49L47 49L47 48L48 48L48 47L49 47L49 46L47 46L47 44L46 44L46 45L45 45L45 43L46 43L46 42L47 42L47 43L48 43L48 44L49 44L49 43L50 43L50 42L51 42L51 41L52 41L52 42L53 42L53 37L54 37L54 36L51 36L51 37L50 37L50 36L49 36L49 34L48 34L48 35L47 35L47 33L45 33L45 32L46 32L46 31L47 31L47 32L49 32L49 31L50 31L50 35L53 35L53 33L54 33L54 32L55 32L55 31L56 31L56 29L57 29L57 30L59 30L59 29L57 29L57 28L58 28L58 27L57 27L57 26L59 26L59 28L61 28L61 29L62 29L62 31L63 31L63 32L64 32L64 31L67 31L67 28L66 28L66 27L65 27L65 26L64 26L64 28L63 28L63 29L62 29L62 27L63 27L63 25L65 25L65 24L63 24L63 25L62 25L62 24L59 24L59 23L58 23L58 22L59 22L59 21L60 21L60 20L61 20L61 21L62 21L62 23L67 23L67 25L66 25L66 26L68 26L68 23L67 23L67 22L68 22L68 21L67 21L67 20L66 20L66 19L67 19L67 17L66 17L66 16L65 16L65 15L64 15L64 16L62 16L62 15L61 15L61 14L59 14L59 13L61 13L61 11L60 11L60 10L59 10L59 9L58 9L58 10L57 10L57 12L56 12L56 17L55 17L55 18L54 18L54 19L53 19L53 20L52 20L52 19L51 19L51 18L53 18L53 16L52 16L52 15L53 15L53 14L54 14L54 15L55 15L55 14L54 14L54 12L55 12L55 10L56 10L56 9L57 9L57 8L54 8L54 6L53 6L53 2L52 2L52 3L51 3L51 4L49 4L49 5L51 5L51 7L52 7L52 6L53 6L53 8L51 8L51 9L50 9L50 11L54 11L54 12L50 12L50 14L47 14L47 13L45 13L45 12L44 12L44 14L45 14L45 15L46 15L46 16L44 16L44 15L43 15L43 14L42 14L42 13L43 13L43 11L47 11L47 12L49 12L49 10L47 10L47 7L46 7L46 6L45 6L45 7L44 7L44 5L43 5L43 7L42 7L42 5L41 5L41 2L42 2L42 1L41 1L41 2L35 2L35 1L33 1L33 2L32 2L32 1ZM55 1L55 3L54 3L54 4L55 4L55 3L56 3L56 1ZM48 2L48 3L49 3L49 2ZM8 3L8 4L9 4L9 5L8 5L8 7L9 7L9 8L6 8L6 9L5 9L5 8L0 8L0 11L1 11L1 9L2 9L2 10L3 10L3 9L5 9L5 10L4 10L4 11L5 11L5 10L6 10L6 11L8 11L8 9L9 9L9 11L10 11L10 13L11 13L11 11L10 11L10 8L11 8L11 9L13 9L13 8L11 8L11 4L9 4L9 3ZM42 3L42 4L43 4L43 3ZM60 3L60 5L61 5L61 3ZM21 4L21 6L20 6L20 7L19 7L19 6L18 6L18 9L17 9L17 10L18 10L18 9L19 9L19 10L20 10L20 9L19 9L19 8L20 8L20 7L21 7L21 6L22 6L22 7L23 7L23 6L24 6L24 5L25 5L25 6L26 6L26 5L25 5L25 4ZM39 4L39 6L38 6L38 8L39 8L39 6L40 6L40 7L41 7L41 5L40 5L40 4ZM9 5L9 7L10 7L10 5ZM22 5L22 6L23 6L23 5ZM33 5L33 8L36 8L36 5ZM57 5L57 7L58 7L58 5ZM15 6L15 7L16 7L16 6ZM30 6L30 7L31 7L31 6ZM34 6L34 7L35 7L35 6ZM49 6L49 8L50 8L50 6ZM45 7L45 9L44 9L44 8L43 8L43 9L40 9L40 10L39 10L39 11L38 11L38 13L36 13L36 12L34 12L34 11L33 11L33 12L34 12L34 13L33 13L33 14L34 14L34 13L36 13L36 14L35 14L35 15L37 15L37 14L38 14L38 16L37 16L37 18L36 18L36 17L34 17L34 18L33 18L33 17L32 17L32 14L30 14L30 13L32 13L32 12L31 12L31 11L32 11L32 9L30 9L30 10L28 10L28 12L27 12L27 11L26 11L26 12L24 12L24 11L23 11L23 10L24 10L24 9L23 9L23 10L22 10L22 11L21 11L21 12L20 12L20 11L19 11L19 12L17 12L17 13L18 13L18 14L17 14L17 15L18 15L18 14L20 14L20 15L21 15L21 14L22 14L22 13L21 13L21 12L24 12L24 13L23 13L23 14L24 14L24 15L23 15L23 17L24 17L24 18L25 18L25 19L26 19L26 17L24 17L24 16L26 16L26 15L25 15L25 13L26 13L26 14L27 14L27 15L29 15L29 18L30 18L30 19L31 19L31 20L28 20L28 19L27 19L27 20L28 20L28 21L31 21L31 22L30 22L30 23L29 23L29 22L26 22L26 23L28 23L28 24L27 24L27 25L29 25L29 26L30 26L30 29L29 29L29 30L25 30L25 31L26 31L26 32L24 32L24 33L22 33L22 34L21 34L21 35L23 35L23 34L24 34L24 36L23 36L23 38L25 38L25 39L24 39L24 41L23 41L23 42L24 42L24 41L26 41L26 40L25 40L25 39L27 39L27 41L28 41L28 40L29 40L29 41L30 41L30 42L29 42L29 45L31 45L31 44L32 44L32 45L33 45L33 46L32 46L32 47L33 47L33 46L34 46L34 47L35 47L35 48L36 48L36 47L37 47L37 50L38 50L38 49L39 49L39 48L40 48L40 47L41 47L41 48L42 48L42 49L41 49L41 50L42 50L42 51L44 51L44 52L45 52L45 53L44 53L44 56L43 56L43 57L44 57L44 56L46 56L46 57L47 57L47 59L46 59L46 58L45 58L45 61L46 61L46 60L47 60L47 62L50 62L50 61L51 61L51 62L52 62L52 63L50 63L50 64L53 64L53 65L54 65L54 66L57 66L57 65L56 65L56 64L53 64L53 62L54 62L54 63L55 63L55 61L56 61L56 62L58 62L58 61L56 61L56 60L55 60L55 59L54 59L54 58L56 58L56 59L57 59L57 58L56 58L56 55L57 55L57 54L58 54L58 55L59 55L59 54L61 54L61 53L64 53L64 52L63 52L63 51L62 51L62 52L61 52L61 53L59 53L59 54L58 54L58 53L57 53L57 54L56 54L56 55L53 55L53 54L55 54L55 53L56 53L56 52L55 52L55 53L52 53L52 56L53 56L53 57L51 57L51 59L50 59L50 55L51 55L51 54L50 54L50 53L51 53L51 52L50 52L50 53L49 53L49 52L47 52L47 51L46 51L46 52L45 52L45 49L46 49L46 47L47 47L47 46L45 46L45 45L44 45L44 44L43 44L43 42L44 42L44 43L45 43L45 42L44 42L44 40L41 40L41 39L42 39L42 38L43 38L43 39L45 39L45 40L47 40L47 41L48 41L48 42L50 42L50 41L51 41L51 40L52 40L52 39L51 39L51 40L47 40L47 38L48 38L48 39L49 39L49 38L50 38L50 37L49 37L49 36L45 36L45 33L44 33L44 32L45 32L45 31L44 31L44 30L45 30L45 29L47 29L47 31L49 31L49 30L50 30L50 28L52 28L52 27L54 27L54 28L55 28L55 29L51 29L51 30L52 30L52 32L51 32L51 33L52 33L52 32L53 32L53 30L54 30L54 31L55 31L55 29L56 29L56 28L55 28L55 27L56 27L56 24L55 24L55 21L56 21L56 23L57 23L57 25L59 25L59 26L62 26L62 25L59 25L59 24L58 24L58 23L57 23L57 22L58 22L58 21L59 21L59 20L58 20L58 19L61 19L61 18L62 18L62 21L63 21L63 20L64 20L64 19L63 19L63 18L65 18L65 19L66 19L66 18L65 18L65 17L63 17L63 18L62 18L62 16L61 16L61 15L59 15L59 18L57 18L57 17L56 17L56 18L57 18L57 21L56 21L56 20L55 20L55 21L52 21L52 20L51 20L51 21L52 21L52 22L51 22L51 23L52 23L52 22L53 22L53 23L54 23L54 24L55 24L55 25L51 25L51 24L50 24L50 23L49 23L49 24L48 24L48 23L47 23L47 24L46 24L46 22L44 22L44 20L43 20L43 21L42 21L42 22L40 22L40 21L39 21L39 19L41 19L41 20L42 20L42 19L43 19L43 17L44 17L44 16L42 16L42 17L41 17L41 18L39 18L39 19L37 19L37 18L38 18L38 16L40 16L40 15L42 15L42 14L41 14L41 12L42 12L42 10L45 10L45 9L46 9L46 7ZM21 8L21 9L22 9L22 8ZM63 8L63 10L64 10L64 12L66 12L66 13L69 13L69 12L67 12L67 11L68 11L68 10L69 10L69 9L68 9L68 8L67 8L67 9L68 9L68 10L67 10L67 11L65 11L65 9L66 9L66 8L65 8L65 9L64 9L64 8ZM6 9L6 10L7 10L7 9ZM53 9L53 10L55 10L55 9ZM35 10L35 11L36 11L36 10ZM40 10L40 12L39 12L39 13L38 13L38 14L39 14L39 15L40 15L40 14L39 14L39 13L40 13L40 12L41 12L41 10ZM58 10L58 12L57 12L57 13L58 13L58 12L59 12L59 10ZM29 11L29 12L28 12L28 13L27 13L27 12L26 12L26 13L27 13L27 14L29 14L29 13L30 13L30 11ZM20 13L20 14L21 14L21 13ZM51 13L51 14L50 14L50 15L47 15L47 18L44 18L44 19L47 19L47 20L46 20L46 21L47 21L47 22L48 22L48 21L49 21L49 22L50 22L50 20L49 20L49 19L50 19L50 17L49 17L49 16L50 16L50 15L51 15L51 14L52 14L52 13ZM57 14L57 15L58 15L58 14ZM33 15L33 16L34 16L34 15ZM17 16L17 17L18 17L18 16ZM27 17L27 18L28 18L28 17ZM31 17L31 19L32 19L32 20L31 20L31 21L32 21L32 22L31 22L31 23L32 23L32 24L31 24L31 25L32 25L32 26L31 26L31 27L33 27L33 28L34 28L34 29L33 29L33 30L32 30L32 32L34 32L34 31L33 31L33 30L34 30L34 29L36 29L36 30L37 30L37 29L36 29L36 28L35 28L35 27L36 27L36 26L35 26L35 24L37 24L37 25L38 25L38 26L37 26L37 27L39 27L39 28L38 28L38 31L39 31L39 30L40 30L40 31L43 31L43 32L39 32L39 33L38 33L38 32L37 32L37 33L38 33L38 34L37 34L37 36L38 36L38 37L34 37L34 38L32 38L32 34L30 34L30 33L29 33L29 32L30 32L30 31L27 31L27 32L28 32L28 33L25 33L25 36L24 36L24 37L27 37L27 39L29 39L29 40L30 40L30 41L31 41L31 43L32 43L32 41L33 41L33 43L36 43L36 42L35 42L35 39L36 39L36 38L38 38L38 40L39 40L39 41L38 41L38 43L37 43L37 44L33 44L33 45L34 45L34 46L35 46L35 47L36 47L36 46L35 46L35 45L38 45L38 46L37 46L37 47L38 47L38 48L39 48L39 47L40 47L40 46L39 46L39 45L40 45L40 44L41 44L41 43L40 43L40 41L41 41L41 40L39 40L39 39L40 39L40 38L42 38L42 37L43 37L43 36L44 36L44 37L45 37L45 38L47 38L47 37L45 37L45 36L44 36L44 33L43 33L43 32L44 32L44 31L43 31L43 30L42 30L42 27L39 27L39 26L41 26L41 25L42 25L42 24L41 24L41 23L40 23L40 22L37 22L37 21L38 21L38 20L35 20L35 19L33 19L33 18L32 18L32 17ZM48 17L48 18L47 18L47 19L48 19L48 18L49 18L49 17ZM19 18L19 19L20 19L20 18ZM14 20L14 21L15 21L15 20ZM32 20L32 21L35 21L35 20ZM65 20L65 21L66 21L66 20ZM11 21L11 22L12 22L12 21ZM33 22L33 23L37 23L37 24L38 24L38 25L39 25L39 23L37 23L37 22ZM42 22L42 23L43 23L43 24L44 24L44 25L43 25L43 26L46 26L46 27L43 27L43 28L44 28L44 29L45 29L45 28L49 28L49 27L48 27L48 26L51 26L51 27L52 27L52 26L51 26L51 25L50 25L50 24L49 24L49 25L48 25L48 24L47 24L47 25L46 25L46 24L45 24L45 23L44 23L44 22ZM15 23L15 24L14 24L14 27L16 27L16 28L14 28L14 29L17 29L17 30L14 30L14 31L13 31L13 32L12 32L12 30L13 30L13 29L12 29L12 28L11 28L11 30L10 30L10 26L9 26L9 32L10 32L10 31L11 31L11 34L12 34L12 36L11 36L11 37L12 37L12 38L11 38L11 39L12 39L12 40L13 40L13 41L15 41L15 42L16 42L16 41L15 41L15 39L14 39L14 40L13 40L13 37L14 37L14 38L15 38L15 37L18 37L18 39L19 39L19 40L17 40L17 41L18 41L18 42L17 42L17 43L18 43L18 44L16 44L16 43L15 43L15 45L13 45L13 44L12 44L12 45L11 45L11 46L10 46L10 47L9 47L9 48L10 48L10 49L11 49L11 48L10 48L10 47L12 47L12 45L13 45L13 47L14 47L14 46L15 46L15 45L18 45L18 46L17 46L17 47L15 47L15 48L13 48L13 51L14 51L14 49L15 49L15 48L16 48L16 49L18 49L18 50L17 50L17 51L15 51L15 52L16 52L16 53L17 53L17 54L16 54L16 55L20 55L20 56L17 56L17 57L16 57L16 56L15 56L15 55L13 55L13 57L16 57L16 58L15 58L15 59L13 59L13 58L12 58L12 59L13 59L13 61L14 61L14 60L15 60L15 59L16 59L16 60L17 60L17 61L19 61L19 60L20 60L20 61L21 61L21 62L25 62L25 61L26 61L26 60L29 60L29 62L30 62L30 63L31 63L31 60L32 60L32 59L31 59L31 60L30 60L30 59L29 59L29 58L31 58L31 54L33 54L33 53L34 53L34 52L33 52L33 53L32 53L32 52L31 52L31 51L29 51L29 52L28 52L28 51L27 51L27 53L26 53L26 52L25 52L25 51L26 51L26 49L24 49L24 47L25 47L25 48L26 48L26 47L25 47L25 46L27 46L27 48L29 48L29 50L32 50L32 49L33 49L33 48L32 48L32 49L31 49L31 47L30 47L30 48L29 48L29 47L28 47L28 46L27 46L27 45L28 45L28 44L27 44L27 45L26 45L26 43L27 43L27 42L25 42L25 44L24 44L24 43L23 43L23 46L24 46L24 47L22 47L22 46L21 46L21 47L22 47L22 48L23 48L23 49L22 49L22 50L23 50L23 51L22 51L22 52L23 52L23 54L22 54L22 53L21 53L21 54L22 54L22 55L20 55L20 53L19 53L19 52L21 52L21 49L18 49L18 48L17 48L17 47L18 47L18 46L20 46L20 45L19 45L19 44L20 44L20 43L22 43L22 42L20 42L20 41L19 41L19 40L21 40L21 41L22 41L22 40L21 40L21 39L22 39L22 38L21 38L21 39L20 39L20 37L19 37L19 36L15 36L15 35L16 35L16 34L14 34L14 33L15 33L15 32L16 32L16 33L17 33L17 34L18 34L18 35L20 35L20 34L19 34L19 33L20 33L20 32L21 32L21 31L19 31L19 30L20 30L20 29L22 29L22 28L23 28L23 27L22 27L22 25L21 25L21 26L20 26L20 27L18 27L18 26L17 26L17 25L16 25L16 23ZM4 24L4 25L5 25L5 24ZM29 24L29 25L30 25L30 24ZM32 24L32 25L33 25L33 26L34 26L34 24ZM15 25L15 26L16 26L16 25ZM47 25L47 26L48 26L48 25ZM11 26L11 27L13 27L13 26ZM20 27L20 28L19 28L19 29L20 29L20 28L21 28L21 27ZM31 28L31 29L30 29L30 30L31 30L31 29L32 29L32 28ZM39 28L39 29L40 29L40 28ZM65 28L65 29L66 29L66 28ZM48 29L48 30L49 30L49 29ZM17 30L17 31L18 31L18 30ZM22 31L22 32L23 32L23 31ZM58 31L58 32L59 32L59 31ZM60 31L60 32L61 32L61 31ZM13 32L13 33L12 33L12 34L13 34L13 35L14 35L14 34L13 34L13 33L14 33L14 32ZM17 32L17 33L18 33L18 32ZM56 32L56 33L55 33L55 34L54 34L54 35L56 35L56 37L55 37L55 38L59 38L59 39L60 39L60 40L58 40L58 39L56 39L56 41L55 41L55 40L54 40L54 41L55 41L55 42L56 42L56 43L57 43L57 44L56 44L56 46L57 46L57 48L56 48L56 49L57 49L57 50L59 50L59 49L60 49L60 48L61 48L61 47L60 47L60 46L59 46L59 45L60 45L60 44L62 44L62 45L63 45L63 44L62 44L62 43L64 43L64 44L65 44L65 43L67 43L67 42L66 42L66 40L65 40L65 41L64 41L64 40L62 40L62 39L67 39L67 38L65 38L65 37L66 37L66 36L65 36L65 37L64 37L64 38L63 38L63 37L58 37L58 36L60 36L60 35L59 35L59 33L57 33L57 32ZM66 32L66 33L65 33L65 35L66 35L66 33L67 33L67 34L68 34L68 33L67 33L67 32ZM5 33L5 36L8 36L8 33ZM28 33L28 34L27 34L27 35L26 35L26 36L27 36L27 37L28 37L28 36L29 36L29 39L30 39L30 38L31 38L31 36L29 36L29 33ZM33 33L33 36L36 36L36 33ZM40 33L40 35L39 35L39 36L41 36L41 34L43 34L43 33ZM61 33L61 36L64 36L64 33ZM6 34L6 35L7 35L7 34ZM34 34L34 35L35 35L35 34ZM56 34L56 35L57 35L57 36L58 36L58 34ZM62 34L62 35L63 35L63 34ZM27 35L27 36L28 36L28 35ZM42 35L42 36L43 36L43 35ZM67 35L67 36L68 36L68 35ZM2 37L2 38L3 38L3 37ZM6 37L6 38L5 38L5 39L3 39L3 41L4 41L4 42L5 42L5 41L6 41L6 40L7 40L7 39L6 39L6 38L7 38L7 37ZM39 37L39 38L40 38L40 37ZM51 37L51 38L52 38L52 37ZM16 38L16 39L17 39L17 38ZM34 38L34 39L32 39L32 40L34 40L34 39L35 39L35 38ZM60 38L60 39L62 39L62 38ZM36 40L36 41L37 41L37 40ZM57 40L57 41L58 41L58 40ZM60 40L60 41L59 41L59 42L60 42L60 43L58 43L58 44L60 44L60 43L62 43L62 42L64 42L64 41L62 41L62 40ZM1 41L1 43L2 43L2 41ZM19 42L19 43L20 43L20 42ZM38 43L38 45L39 45L39 44L40 44L40 43ZM52 43L52 44L50 44L50 46L51 46L51 45L52 45L52 46L54 46L54 47L55 47L55 46L54 46L54 45L55 45L55 43L54 43L54 44L53 44L53 43ZM41 45L41 46L42 46L42 48L43 48L43 46L42 46L42 45ZM67 45L67 46L68 46L68 45ZM19 47L19 48L20 48L20 47ZM44 47L44 49L43 49L43 50L44 50L44 49L45 49L45 47ZM50 47L50 50L51 50L51 49L53 49L53 47ZM59 47L59 48L57 48L57 49L59 49L59 48L60 48L60 47ZM6 49L6 50L7 50L7 49ZM23 49L23 50L24 50L24 51L23 51L23 52L24 52L24 51L25 51L25 50L24 50L24 49ZM27 49L27 50L28 50L28 49ZM3 50L3 51L5 51L5 52L4 52L4 53L3 53L3 54L4 54L4 53L6 53L6 54L5 54L5 57L6 57L6 58L7 58L7 57L6 57L6 56L8 56L8 58L9 58L9 57L11 57L11 56L10 56L10 54L9 54L9 55L6 55L6 54L7 54L7 53L8 53L8 52L7 52L7 51L5 51L5 50ZM11 50L11 51L12 51L12 50ZM18 50L18 52L19 52L19 51L20 51L20 50ZM0 51L0 52L1 52L1 51ZM6 52L6 53L7 53L7 52ZM13 53L13 54L15 54L15 53ZM25 53L25 55L24 55L24 54L23 54L23 55L24 55L24 56L26 56L26 58L25 58L25 60L24 60L24 59L23 59L23 58L24 58L24 57L22 57L22 56L20 56L20 58L19 58L19 59L17 59L17 60L19 60L19 59L20 59L20 58L21 58L21 57L22 57L22 59L23 59L23 60L21 60L21 61L25 61L25 60L26 60L26 58L27 58L27 59L28 59L28 58L29 58L29 57L30 57L30 56L29 56L29 55L30 55L30 54L31 54L31 53L30 53L30 54L29 54L29 53L27 53L27 54L26 54L26 53ZM45 53L45 54L46 54L46 56L47 56L47 55L48 55L48 54L49 54L49 55L50 55L50 54L49 54L49 53ZM27 54L27 55L26 55L26 56L27 56L27 55L29 55L29 54ZM41 54L41 55L42 55L42 54ZM2 55L2 57L4 57L4 55ZM58 56L58 57L59 57L59 58L60 58L60 57L61 57L61 56L60 56L60 57L59 57L59 56ZM36 57L36 58L37 58L37 57ZM48 58L48 59L47 59L47 60L49 60L49 61L50 61L50 59L49 59L49 58ZM52 58L52 59L51 59L51 61L54 61L54 59L53 59L53 58ZM63 58L63 59L64 59L64 58ZM52 59L52 60L53 60L53 59ZM59 59L59 60L60 60L60 59ZM3 60L3 61L5 61L5 60ZM6 60L6 61L7 61L7 60ZM41 60L41 62L42 62L42 63L43 63L43 62L44 62L44 60L43 60L43 61L42 61L42 60ZM33 61L33 64L36 64L36 61ZM61 61L61 64L64 64L64 61ZM34 62L34 63L35 63L35 62ZM62 62L62 63L63 63L63 62ZM65 62L65 63L66 63L66 62ZM19 63L19 64L20 64L20 63ZM44 63L44 64L45 64L45 66L46 66L46 64L45 64L45 63ZM11 64L11 66L10 66L10 67L9 67L9 68L10 68L10 67L11 67L11 68L12 68L12 67L13 67L13 66L14 66L14 65L15 65L15 66L16 66L16 67L14 67L14 68L18 68L18 67L19 67L19 66L17 66L17 65L18 65L18 64L17 64L17 65L15 65L15 64L14 64L14 65L12 65L12 64ZM37 64L37 65L38 65L38 64ZM31 65L31 66L32 66L32 65ZM34 65L34 66L33 66L33 67L34 67L34 66L35 66L35 65ZM11 66L11 67L12 67L12 66ZM24 66L24 67L25 67L25 66ZM0 0L0 7L7 7L7 0ZM1 1L1 6L6 6L6 1ZM2 2L2 5L5 5L5 2ZM62 0L62 7L69 7L69 0ZM63 1L63 6L68 6L68 1ZM64 2L64 5L67 5L67 2ZM0 62L0 69L7 69L7 62ZM1 63L1 68L6 68L6 63ZM2 64L2 67L5 67L5 64Z" fill="#000000"/></g></g></svg>
