<?xml version="1.0" encoding="UTF-8"?>
<svg xmlns="http://www.w3.org/2000/svg" version="1.1" width="300" height="300" viewBox="0 0 300 300"><rect x="0" y="0" width="300" height="300" fill="#ffffff"/><g transform="scale(4.348)"><g transform="translate(0,0)"><path fill-rule="evenodd" d="M10 0L10 1L8 1L8 2L9 2L9 3L8 3L8 4L10 4L10 5L8 5L8 7L9 7L9 8L6 8L6 9L5 9L5 8L0 8L0 9L2 9L2 11L1 11L1 10L0 10L0 11L1 11L1 13L0 13L0 16L1 16L1 17L0 17L0 18L2 18L2 20L0 20L0 21L1 21L1 22L0 22L0 26L2 26L2 27L3 27L3 28L2 28L2 29L3 29L3 30L4 30L4 31L3 31L3 32L2 32L2 30L0 30L0 34L3 34L3 35L2 35L2 36L3 36L3 37L4 37L4 38L6 38L6 39L2 39L2 37L1 37L1 39L0 39L0 40L1 40L1 39L2 39L2 41L3 41L3 42L4 42L4 44L0 44L0 47L1 47L1 49L0 49L0 50L1 50L1 53L2 53L2 54L0 54L0 56L1 56L1 57L0 57L0 61L1 61L1 57L2 57L2 59L3 59L3 56L4 56L4 57L7 57L7 58L4 58L4 59L7 59L7 60L6 60L6 61L8 61L8 63L9 63L9 64L8 64L8 69L9 69L9 68L11 68L11 69L12 69L12 68L13 68L13 67L14 67L14 69L16 69L16 68L17 68L17 69L22 69L22 68L23 68L23 69L26 69L26 67L28 67L28 68L29 68L29 69L32 69L32 68L33 68L33 69L35 69L35 68L36 68L36 69L38 69L38 68L37 68L37 67L39 67L39 66L38 66L38 60L37 60L37 59L38 59L38 56L41 56L41 57L39 57L39 62L40 62L40 59L41 59L41 58L42 58L42 60L41 60L41 62L42 62L42 63L43 63L43 62L46 62L46 63L47 63L47 62L50 62L50 61L51 61L51 62L54 62L54 64L53 64L53 65L52 65L52 66L53 66L53 69L56 69L56 68L55 68L55 65L56 65L56 66L57 66L57 67L59 67L59 68L61 68L61 69L62 69L62 67L64 67L64 66L65 66L65 64L67 64L67 63L68 63L68 64L69 64L69 63L68 63L68 62L69 62L69 60L67 60L67 59L68 59L68 58L66 58L66 57L68 57L68 56L69 56L69 55L68 55L68 54L69 54L69 53L68 53L68 54L67 54L67 53L66 53L66 52L68 52L68 50L69 50L69 47L68 47L68 45L69 45L69 43L68 43L68 42L67 42L67 43L65 43L65 44L66 44L66 47L65 47L65 48L64 48L64 46L63 46L63 45L62 45L62 44L60 44L60 45L59 45L59 42L60 42L60 43L62 43L62 42L61 42L61 41L62 41L62 40L64 40L64 41L63 41L63 42L64 42L64 41L66 41L66 40L67 40L67 39L68 39L68 36L69 36L69 35L68 35L68 34L69 34L69 33L68 33L68 34L67 34L67 33L66 33L66 32L67 32L67 31L64 31L64 30L63 30L63 31L62 31L62 29L63 29L63 28L62 28L62 27L64 27L64 28L65 28L65 29L66 29L66 28L67 28L67 30L69 30L69 29L68 29L68 28L69 28L69 27L68 27L68 25L69 25L69 23L68 23L68 22L67 22L67 23L66 23L66 22L65 22L65 21L68 21L68 18L69 18L69 17L68 17L68 12L69 12L69 11L68 11L68 10L67 10L67 9L68 9L68 8L67 8L67 9L66 9L66 8L65 8L65 9L64 9L64 8L63 8L63 9L64 9L64 10L66 10L66 11L64 11L64 12L66 12L66 13L67 13L67 14L65 14L65 16L66 16L66 18L67 18L67 19L65 19L65 21L63 21L63 23L64 23L64 22L65 22L65 24L67 24L67 23L68 23L68 25L67 25L67 26L65 26L65 27L64 27L64 26L61 26L61 25L60 25L60 24L62 24L62 21L59 21L59 20L61 20L61 18L62 18L62 20L64 20L64 19L63 19L63 18L65 18L65 17L63 17L63 18L62 18L62 16L64 16L64 13L63 13L63 10L62 10L62 8L61 8L61 9L60 9L60 7L61 7L61 6L60 6L60 7L59 7L59 4L58 4L58 7L57 7L57 5L56 5L56 7L57 7L57 8L58 8L58 9L60 9L60 10L59 10L59 11L55 11L55 9L56 9L56 8L55 8L55 4L56 4L56 2L53 2L53 1L61 1L61 0L53 0L53 1L52 1L52 0L51 0L51 2L50 2L50 0L48 0L48 2L47 2L47 6L46 6L46 5L44 5L44 3L45 3L45 4L46 4L46 3L45 3L45 2L44 2L44 3L43 3L43 4L42 4L42 2L43 2L43 0L39 0L39 1L38 1L38 0L37 0L37 1L36 1L36 0L35 0L35 1L32 1L32 0L31 0L31 2L35 2L35 1L36 1L36 3L33 3L33 4L32 4L32 3L29 3L29 1L30 1L30 0L28 0L28 1L27 1L27 2L24 2L24 1L25 1L25 0L23 0L23 1L21 1L21 3L20 3L20 4L19 4L19 2L20 2L20 1L19 1L19 0L16 0L16 3L14 3L14 2L15 2L15 1L14 1L14 0L13 0L13 2L11 2L11 1L12 1L12 0ZM44 0L44 1L45 1L45 0ZM17 1L17 3L16 3L16 4L18 4L18 5L19 5L19 7L18 7L18 6L17 6L17 7L18 7L18 8L19 8L19 7L20 7L20 10L22 10L22 11L21 11L21 13L19 13L19 14L18 14L18 13L17 13L17 12L18 12L18 11L19 11L19 12L20 12L20 11L19 11L19 10L18 10L18 11L17 11L17 12L16 12L16 10L15 10L15 12L16 12L16 13L17 13L17 14L15 14L15 13L13 13L13 12L10 12L10 13L11 13L11 14L10 14L10 16L9 16L9 17L8 17L8 15L9 15L9 12L8 12L8 13L6 13L6 14L7 14L7 15L6 15L6 16L7 16L7 17L5 17L5 18L4 18L4 16L5 16L5 15L3 15L3 19L5 19L5 18L7 18L7 17L8 17L8 18L9 18L9 19L10 19L10 18L9 18L9 17L14 17L14 16L15 16L15 17L17 17L17 19L16 19L16 18L15 18L15 21L13 21L13 22L14 22L14 23L15 23L15 24L16 24L16 25L14 25L14 26L13 26L13 24L12 24L12 23L9 23L9 21L10 21L10 22L12 22L12 20L13 20L13 19L14 19L14 18L11 18L11 20L9 20L9 21L8 21L8 26L9 26L9 27L8 27L8 28L7 28L7 27L6 27L6 26L7 26L7 25L6 25L6 24L7 24L7 23L5 23L5 22L7 22L7 21L6 21L6 20L8 20L8 19L6 19L6 20L4 20L4 21L3 21L3 22L1 22L1 24L3 24L3 23L4 23L4 25L2 25L2 26L3 26L3 27L4 27L4 28L3 28L3 29L4 29L4 28L5 28L5 29L6 29L6 30L5 30L5 31L4 31L4 32L7 32L7 31L8 31L8 32L9 32L9 33L10 33L10 34L9 34L9 37L12 37L12 38L11 38L11 39L13 39L13 37L15 37L15 38L18 38L18 39L16 39L16 40L15 40L15 39L14 39L14 41L13 41L13 44L11 44L11 45L10 45L10 46L11 46L11 45L14 45L14 46L13 46L13 48L11 48L11 47L9 47L9 48L8 48L8 49L5 49L5 48L4 48L4 47L5 47L5 45L6 45L6 46L7 46L7 47L6 47L6 48L7 48L7 47L8 47L8 46L9 46L9 44L10 44L10 43L6 43L6 44L4 44L4 45L3 45L3 46L2 46L2 45L1 45L1 47L3 47L3 48L2 48L2 49L1 49L1 50L3 50L3 54L2 54L2 55L1 55L1 56L2 56L2 55L3 55L3 54L4 54L4 55L5 55L5 56L7 56L7 57L10 57L10 54L9 54L9 55L8 55L8 54L7 54L7 53L11 53L11 55L12 55L12 57L11 57L11 58L12 58L12 60L14 60L14 58L16 58L16 57L17 57L17 55L18 55L18 54L17 54L17 53L16 53L16 52L17 52L17 51L18 51L18 49L21 49L21 50L24 50L24 49L26 49L26 50L25 50L25 51L26 51L26 54L25 54L25 56L26 56L26 57L25 57L25 60L24 60L24 59L23 59L23 58L24 58L24 57L22 57L22 56L21 56L21 55L22 55L22 54L21 54L21 53L25 53L25 52L24 52L24 51L23 51L23 52L19 52L19 53L20 53L20 54L19 54L19 56L20 56L20 58L19 58L19 59L18 59L18 58L17 58L17 60L16 60L16 59L15 59L15 60L16 60L16 61L12 61L12 62L10 62L10 64L11 64L11 65L10 65L10 66L9 66L9 67L11 67L11 68L12 68L12 66L13 66L13 65L14 65L14 64L15 64L15 65L16 65L16 66L15 66L15 67L17 67L17 68L22 68L22 67L23 67L23 68L25 68L25 67L26 67L26 66L28 66L28 65L29 65L29 64L28 64L28 65L25 65L25 64L26 64L26 63L23 63L23 62L24 62L24 61L25 61L25 60L26 60L26 62L27 62L27 63L30 63L30 62L29 62L29 60L30 60L30 59L32 59L32 60L33 60L33 59L37 59L37 58L36 58L36 57L37 57L37 56L38 56L38 55L39 55L39 54L40 54L40 55L42 55L42 54L41 54L41 53L43 53L43 56L42 56L42 57L43 57L43 60L42 60L42 61L43 61L43 60L44 60L44 61L46 61L46 62L47 62L47 61L46 61L46 60L50 60L50 59L51 59L51 60L52 60L52 61L55 61L55 60L56 60L56 62L55 62L55 64L56 64L56 65L57 65L57 66L60 66L60 65L57 65L57 64L60 64L60 62L59 62L59 61L60 61L60 60L63 60L63 58L65 58L65 57L66 57L66 56L62 56L62 57L63 57L63 58L62 58L62 59L61 59L61 53L63 53L63 54L62 54L62 55L65 55L65 54L66 54L66 53L65 53L65 52L66 52L66 51L65 51L65 52L64 52L64 53L63 53L63 52L61 52L61 51L59 51L59 50L61 50L61 49L62 49L62 51L64 51L64 50L65 50L65 49L67 49L67 48L68 48L68 47L67 47L67 48L65 48L65 49L64 49L64 48L63 48L63 46L62 46L62 45L61 45L61 46L62 46L62 48L61 48L61 47L59 47L59 48L58 48L58 47L57 47L57 48L56 48L56 50L57 50L57 52L56 52L56 54L57 54L57 55L58 55L58 56L56 56L56 55L55 55L55 54L54 54L54 53L53 53L53 52L54 52L54 51L55 51L55 50L51 50L51 49L54 49L54 48L51 48L51 47L50 47L50 46L52 46L52 47L55 47L55 46L56 46L56 45L57 45L57 46L59 46L59 45L57 45L57 44L56 44L56 43L58 43L58 42L59 42L59 41L60 41L60 40L62 40L62 39L65 39L65 40L66 40L66 39L67 39L67 38L66 38L66 37L64 37L64 38L63 38L63 37L60 37L60 35L58 35L58 36L57 36L57 35L56 35L56 34L59 34L59 33L57 33L57 32L59 32L59 31L60 31L60 30L59 30L59 29L61 29L61 28L56 28L56 27L57 27L57 26L59 26L59 25L58 25L58 24L60 24L60 23L61 23L61 22L60 22L60 23L58 23L58 22L59 22L59 21L58 21L58 20L59 20L59 17L61 17L61 16L62 16L62 15L63 15L63 13L62 13L62 12L59 12L59 13L58 13L58 12L55 12L55 13L57 13L57 14L54 14L54 15L53 15L53 12L50 12L50 10L51 10L51 11L53 11L53 8L54 8L54 9L55 9L55 8L54 8L54 5L53 5L53 4L54 4L54 3L53 3L53 2L51 2L51 3L50 3L50 2L49 2L49 4L50 4L50 6L49 6L49 8L50 8L50 6L51 6L51 7L52 7L52 6L53 6L53 8L51 8L51 9L50 9L50 10L47 10L47 7L48 7L48 6L47 6L47 7L46 7L46 6L45 6L45 7L44 7L44 5L40 5L40 4L41 4L41 2L42 2L42 1L41 1L41 2L40 2L40 3L39 3L39 2L38 2L38 1L37 1L37 3L38 3L38 4L37 4L37 5L38 5L38 6L37 6L37 7L38 7L38 6L39 6L39 7L40 7L40 6L41 6L41 8L39 8L39 9L38 9L38 8L37 8L37 9L38 9L38 10L36 10L36 9L32 9L32 8L31 8L31 7L32 7L32 5L30 5L30 4L29 4L29 3L28 3L28 2L27 2L27 3L26 3L26 4L25 4L25 3L24 3L24 2L22 2L22 3L21 3L21 4L20 4L20 5L19 5L19 4L18 4L18 1ZM10 2L10 4L11 4L11 2ZM57 2L57 3L59 3L59 2ZM23 3L23 4L21 4L21 5L20 5L20 7L21 7L21 6L22 6L22 7L23 7L23 6L24 6L24 9L23 9L23 10L24 10L24 9L26 9L26 10L25 10L25 12L26 12L26 10L27 10L27 13L23 13L23 14L24 14L24 15L21 15L21 16L24 16L24 17L18 17L18 16L17 16L17 15L18 15L18 14L17 14L17 15L16 15L16 16L17 16L17 17L18 17L18 19L17 19L17 20L16 20L16 21L17 21L17 22L15 22L15 23L17 23L17 25L16 25L16 26L14 26L14 27L13 27L13 26L12 26L12 25L11 25L11 24L10 24L10 27L11 27L11 28L9 28L9 32L10 32L10 33L11 33L11 34L10 34L10 36L11 36L11 35L14 35L14 36L17 36L17 37L19 37L19 39L18 39L18 40L17 40L17 41L19 41L19 42L18 42L18 43L19 43L19 44L17 44L17 46L14 46L14 47L16 47L16 48L15 48L15 49L14 49L14 50L15 50L15 52L16 52L16 50L15 50L15 49L18 49L18 48L17 48L17 47L18 47L18 46L20 46L20 47L19 47L19 48L22 48L22 47L24 47L24 48L23 48L23 49L24 49L24 48L26 48L26 47L25 47L25 46L27 46L27 48L30 48L30 49L29 49L29 51L30 51L30 49L31 49L31 50L32 50L32 51L31 51L31 52L28 52L28 51L27 51L27 50L28 50L28 49L27 49L27 50L26 50L26 51L27 51L27 53L29 53L29 54L27 54L27 56L30 56L30 57L29 57L29 58L28 58L28 59L30 59L30 58L32 58L32 57L33 57L33 56L35 56L35 57L36 57L36 56L37 56L37 55L34 55L34 54L33 54L33 53L34 53L34 52L33 52L33 51L34 51L34 50L36 50L36 51L35 51L35 52L36 52L36 53L37 53L37 54L39 54L39 51L41 51L41 52L43 52L43 53L44 53L44 56L43 56L43 57L44 57L44 56L46 56L46 57L47 57L47 59L50 59L50 57L51 57L51 56L52 56L52 55L53 55L53 59L52 59L52 60L53 60L53 59L54 59L54 58L56 58L56 56L55 56L55 55L54 55L54 54L51 54L51 56L50 56L50 57L49 57L49 56L46 56L46 54L45 54L45 53L49 53L49 54L48 54L48 55L49 55L49 54L50 54L50 51L51 51L51 52L53 52L53 51L51 51L51 50L49 50L49 49L51 49L51 48L50 48L50 47L49 47L49 48L47 48L47 49L48 49L48 50L47 50L47 51L46 51L46 52L45 52L45 49L46 49L46 47L47 47L47 46L50 46L50 45L51 45L51 44L50 44L50 43L51 43L51 42L55 42L55 41L56 41L56 42L58 42L58 40L60 40L60 39L62 39L62 38L60 38L60 37L59 37L59 39L57 39L57 38L56 38L56 39L55 39L55 37L56 37L56 35L55 35L55 37L51 37L51 35L54 35L54 34L55 34L55 33L56 33L56 32L57 32L57 29L56 29L56 28L54 28L54 29L53 29L53 30L51 30L51 31L53 31L53 32L54 32L54 33L51 33L51 34L50 34L50 31L49 31L49 30L50 30L50 29L51 29L51 28L50 28L50 29L49 29L49 28L47 28L47 27L46 27L46 26L43 26L43 25L44 25L44 24L43 24L43 22L44 22L44 23L45 23L45 24L46 24L46 25L47 25L47 26L48 26L48 27L49 27L49 26L50 26L50 27L53 27L53 26L55 26L55 27L56 27L56 26L57 26L57 25L56 25L56 24L57 24L57 22L58 22L58 21L56 21L56 19L57 19L57 20L58 20L58 19L57 19L57 17L56 17L56 15L55 15L55 17L54 17L54 16L53 16L53 17L51 17L51 16L52 16L52 15L51 15L51 14L52 14L52 13L51 13L51 14L49 14L49 13L50 13L50 12L47 12L47 14L49 14L49 15L51 15L51 16L50 16L50 17L49 17L49 16L48 16L48 15L47 15L47 16L45 16L45 15L46 15L46 14L45 14L45 15L44 15L44 14L43 14L43 13L44 13L44 12L45 12L45 13L46 13L46 12L45 12L45 11L44 11L44 12L43 12L43 13L42 13L42 14L41 14L41 12L42 12L42 10L45 10L45 9L46 9L46 7L45 7L45 9L44 9L44 8L43 8L43 9L41 9L41 12L40 12L40 11L37 11L37 13L36 13L36 12L34 12L34 13L33 13L33 14L32 14L32 15L29 15L29 14L30 14L30 13L32 13L32 12L31 12L31 11L32 11L32 9L30 9L30 8L29 8L29 9L30 9L30 10L31 10L31 11L29 11L29 10L27 10L27 9L26 9L26 8L27 8L27 6L28 6L28 7L29 7L29 6L30 6L30 7L31 7L31 6L30 6L30 5L29 5L29 6L28 6L28 5L27 5L27 4L26 4L26 5L27 5L27 6L26 6L26 8L25 8L25 4L24 4L24 3ZM60 3L60 5L61 5L61 3ZM13 4L13 7L12 7L12 6L11 6L11 5L10 5L10 6L9 6L9 7L10 7L10 8L11 8L11 9L10 9L10 11L12 11L12 9L13 9L13 7L14 7L14 9L15 9L15 8L16 8L16 6L15 6L15 5L14 5L14 4ZM23 4L23 5L22 5L22 6L23 6L23 5L24 5L24 4ZM33 5L33 8L36 8L36 5ZM51 5L51 6L52 6L52 5ZM10 6L10 7L11 7L11 8L12 8L12 7L11 7L11 6ZM14 6L14 7L15 7L15 6ZM34 6L34 7L35 7L35 6ZM42 6L42 7L43 7L43 6ZM58 7L58 8L59 8L59 7ZM21 8L21 9L22 9L22 8ZM4 9L4 10L5 10L5 11L4 11L4 12L2 12L2 13L1 13L1 15L2 15L2 14L3 14L3 13L4 13L4 12L5 12L5 11L6 11L6 12L7 12L7 11L6 11L6 10L7 10L7 9L6 9L6 10L5 10L5 9ZM39 9L39 10L40 10L40 9ZM51 9L51 10L52 10L52 9ZM35 10L35 11L36 11L36 10ZM60 10L60 11L62 11L62 10ZM23 11L23 12L24 12L24 11ZM28 11L28 12L29 12L29 13L27 13L27 14L25 14L25 15L26 15L26 16L25 16L25 17L26 17L26 18L27 18L27 19L25 19L25 18L23 18L23 19L22 19L22 18L21 18L21 20L20 20L20 22L21 22L21 23L20 23L20 24L19 24L19 25L17 25L17 26L18 26L18 27L20 27L20 30L23 30L23 28L24 28L24 27L23 27L23 26L24 26L24 25L22 25L22 24L21 24L21 23L22 23L22 22L23 22L23 23L24 23L24 24L25 24L25 25L27 25L27 26L26 26L26 30L28 30L28 31L27 31L27 32L28 32L28 33L25 33L25 34L23 34L23 35L21 35L21 34L22 34L22 33L23 33L23 32L22 32L22 31L21 31L21 32L20 32L20 31L19 31L19 32L20 32L20 33L19 33L19 34L20 34L20 35L18 35L18 34L17 34L17 33L18 33L18 32L17 32L17 31L18 31L18 30L19 30L19 29L18 29L18 28L16 28L16 27L15 27L15 28L13 28L13 29L12 29L12 30L10 30L10 32L11 32L11 31L12 31L12 32L13 32L13 34L14 34L14 35L15 35L15 34L16 34L16 35L17 35L17 36L20 36L20 39L21 39L21 40L22 40L22 41L20 41L20 40L19 40L19 41L20 41L20 42L19 42L19 43L20 43L20 44L19 44L19 45L20 45L20 46L21 46L21 45L24 45L24 44L25 44L25 43L26 43L26 45L27 45L27 46L28 46L28 47L29 47L29 46L31 46L31 47L30 47L30 48L31 48L31 49L32 49L32 48L33 48L33 50L34 50L34 49L36 49L36 50L37 50L37 47L38 47L38 48L39 48L39 49L38 49L38 51L39 51L39 50L41 50L41 51L42 51L42 50L41 50L41 49L42 49L42 48L43 48L43 47L44 47L44 49L43 49L43 50L44 50L44 49L45 49L45 46L47 46L47 45L45 45L45 44L44 44L44 42L45 42L45 43L46 43L46 44L47 44L47 43L46 43L46 42L48 42L48 44L49 44L49 45L50 45L50 44L49 44L49 43L50 43L50 42L51 42L51 41L53 41L53 39L51 39L51 37L50 37L50 38L49 38L49 37L48 37L48 39L47 39L47 40L45 40L45 39L42 39L42 38L40 38L40 37L41 37L41 36L40 36L40 33L43 33L43 34L41 34L41 35L43 35L43 36L44 36L44 37L45 37L45 38L47 38L47 37L45 37L45 36L47 36L47 33L45 33L45 32L46 32L46 30L47 30L47 29L46 29L46 28L44 28L44 30L45 30L45 32L44 32L44 31L43 31L43 30L42 30L42 27L38 27L38 26L41 26L41 25L42 25L42 24L41 24L41 23L42 23L42 22L41 22L41 20L40 20L40 19L39 19L39 18L41 18L41 17L42 17L42 16L44 16L44 17L43 17L43 20L44 20L44 22L46 22L46 24L47 24L47 25L48 25L48 26L49 26L49 25L50 25L50 26L53 26L53 25L55 25L55 26L56 26L56 25L55 25L55 24L54 24L54 23L56 23L56 21L55 21L55 22L53 22L53 20L52 20L52 19L54 19L54 20L55 20L55 19L56 19L56 17L55 17L55 18L52 18L52 19L51 19L51 17L50 17L50 18L48 18L48 16L47 16L47 17L45 17L45 16L44 16L44 15L43 15L43 14L42 14L42 15L40 15L40 14L39 14L39 13L40 13L40 12L38 12L38 15L40 15L40 16L37 16L37 17L36 17L36 18L35 18L35 16L36 16L36 15L35 15L35 13L34 13L34 14L33 14L33 15L32 15L32 17L34 17L34 18L35 18L35 19L34 19L34 20L33 20L33 19L32 19L32 18L31 18L31 19L32 19L32 20L31 20L31 21L30 21L30 20L29 20L29 19L30 19L30 18L29 18L29 15L28 15L28 14L29 14L29 13L30 13L30 12L29 12L29 11ZM67 11L67 12L68 12L68 11ZM12 13L12 14L11 14L11 16L13 16L13 13ZM59 13L59 14L60 14L60 15L62 15L62 13ZM14 14L14 15L15 15L15 14ZM19 15L19 16L20 16L20 15ZM33 15L33 16L34 16L34 15ZM57 15L57 16L58 16L58 17L59 17L59 16L58 16L58 15ZM27 17L27 18L28 18L28 17ZM37 17L37 18L36 18L36 19L35 19L35 20L34 20L34 21L33 21L33 20L32 20L32 21L31 21L31 22L30 22L30 21L29 21L29 22L27 22L27 21L28 21L28 19L27 19L27 21L26 21L26 20L25 20L25 19L24 19L24 20L25 20L25 21L23 21L23 22L27 22L27 23L26 23L26 24L30 24L30 25L29 25L29 26L27 26L27 28L28 28L28 27L29 27L29 26L30 26L30 27L31 27L31 28L30 28L30 29L29 29L29 30L30 30L30 29L31 29L31 30L33 30L33 31L34 31L34 32L32 32L32 31L31 31L31 32L29 32L29 31L28 31L28 32L29 32L29 33L28 33L28 34L27 34L27 35L28 35L28 36L29 36L29 37L30 37L30 38L29 38L29 39L28 39L28 38L27 38L27 37L26 37L26 36L25 36L25 35L24 35L24 37L22 37L22 38L21 38L21 39L22 39L22 38L24 38L24 39L23 39L23 40L24 40L24 41L23 41L23 42L24 42L24 41L25 41L25 42L26 42L26 43L27 43L27 42L28 42L28 41L30 41L30 42L29 42L29 44L27 44L27 45L31 45L31 41L30 41L30 40L29 40L29 39L30 39L30 38L32 38L32 39L34 39L34 37L35 37L35 39L36 39L36 40L35 40L35 41L34 41L34 40L33 40L33 41L32 41L32 42L33 42L33 41L34 41L34 42L35 42L35 43L33 43L33 44L32 44L32 45L33 45L33 46L32 46L32 47L33 47L33 46L34 46L34 47L35 47L35 48L36 48L36 47L37 47L37 46L38 46L38 47L39 47L39 48L40 48L40 47L41 47L41 48L42 48L42 46L43 46L43 45L44 45L44 46L45 46L45 45L44 45L44 44L43 44L43 42L44 42L44 40L41 40L41 39L38 39L38 38L37 38L37 39L36 39L36 37L38 37L38 36L37 36L37 34L38 34L38 33L39 33L39 32L43 32L43 33L44 33L44 36L45 36L45 33L44 33L44 32L43 32L43 31L40 31L40 30L39 30L39 31L38 31L38 29L40 29L40 28L38 28L38 27L37 27L37 26L38 26L38 25L39 25L39 24L38 24L38 25L32 25L32 24L31 24L31 23L33 23L33 22L34 22L34 21L35 21L35 24L37 24L37 22L39 22L39 23L41 23L41 22L39 22L39 19L37 19L37 18L38 18L38 17ZM19 18L19 19L20 19L20 18ZM44 18L44 19L47 19L47 20L46 20L46 21L47 21L47 24L48 24L48 25L49 25L49 24L50 24L50 23L49 23L49 22L50 22L50 21L49 21L49 20L48 20L48 18ZM35 20L35 21L38 21L38 20ZM47 20L47 21L48 21L48 20ZM51 20L51 21L52 21L52 20ZM29 22L29 23L30 23L30 22ZM51 22L51 23L53 23L53 22ZM48 23L48 24L49 24L49 23ZM20 24L20 25L19 25L19 26L20 26L20 25L21 25L21 26L22 26L22 25L21 25L21 24ZM4 25L4 26L5 26L5 25ZM31 25L31 27L33 27L33 28L34 28L34 29L33 29L33 30L34 30L34 29L35 29L35 30L36 30L36 28L35 28L35 27L36 27L36 26L35 26L35 27L33 27L33 26L32 26L32 25ZM60 26L60 27L61 27L61 26ZM0 27L0 28L1 28L1 27ZM21 27L21 28L23 28L23 27ZM6 28L6 29L7 29L7 28ZM31 28L31 29L32 29L32 28ZM13 29L13 30L12 30L12 31L13 31L13 32L14 32L14 34L15 34L15 33L16 33L16 32L14 32L14 31L16 31L16 30L14 30L14 29ZM17 29L17 30L18 30L18 29ZM45 29L45 30L46 30L46 29ZM48 29L48 30L49 30L49 29ZM55 29L55 31L56 31L56 29ZM6 30L6 31L7 31L7 30ZM13 30L13 31L14 31L14 30ZM53 30L53 31L54 31L54 30ZM58 30L58 31L59 31L59 30ZM24 31L24 32L26 32L26 31ZM35 31L35 32L37 32L37 33L38 33L38 32L37 32L37 31ZM47 31L47 32L48 32L48 31ZM63 31L63 32L64 32L64 31ZM68 31L68 32L69 32L69 31ZM1 32L1 33L2 33L2 32ZM31 32L31 33L32 33L32 32ZM3 33L3 34L4 34L4 33ZM5 33L5 36L8 36L8 33ZM29 33L29 34L30 34L30 33ZM33 33L33 36L36 36L36 33ZM61 33L61 36L64 36L64 33ZM6 34L6 35L7 35L7 34ZM31 34L31 35L32 35L32 34ZM34 34L34 35L35 35L35 34ZM48 34L48 35L50 35L50 34ZM62 34L62 35L63 35L63 34ZM67 35L67 36L68 36L68 35ZM12 36L12 37L13 37L13 36ZM31 36L31 37L32 37L32 36ZM39 36L39 37L40 37L40 36ZM6 37L6 38L7 38L7 37ZM25 38L25 39L24 39L24 40L25 40L25 39L26 39L26 41L28 41L28 40L27 40L27 38ZM65 38L65 39L66 39L66 38ZM6 39L6 40L5 40L5 41L4 41L4 42L7 42L7 41L8 41L8 42L9 42L9 40L10 40L10 42L12 42L12 41L11 41L11 40L10 40L10 39L8 39L8 40L7 40L7 39ZM49 39L49 40L47 40L47 41L49 41L49 42L50 42L50 41L51 41L51 39ZM54 39L54 40L55 40L55 39ZM56 39L56 41L57 41L57 39ZM6 40L6 41L7 41L7 40ZM39 40L39 41L38 41L38 43L37 43L37 41L35 41L35 42L36 42L36 43L37 43L37 45L36 45L36 44L33 44L33 45L34 45L34 46L35 46L35 47L36 47L36 46L37 46L37 45L38 45L38 46L39 46L39 47L40 47L40 46L39 46L39 45L40 45L40 44L41 44L41 43L40 43L40 41L41 41L41 40ZM49 40L49 41L50 41L50 40ZM68 40L68 41L69 41L69 40ZM0 41L0 42L1 42L1 41ZM15 41L15 42L14 42L14 44L15 44L15 45L16 45L16 43L15 43L15 42L16 42L16 41ZM21 43L21 44L20 44L20 45L21 45L21 44L22 44L22 43ZM23 43L23 44L24 44L24 43ZM39 43L39 44L38 44L38 45L39 45L39 44L40 44L40 43ZM53 43L53 45L52 45L52 46L55 46L55 45L56 45L56 44L54 44L54 43ZM6 44L6 45L7 45L7 46L8 46L8 44ZM35 45L35 46L36 46L36 45ZM41 45L41 46L42 46L42 45ZM9 48L9 49L8 49L8 50L9 50L9 49L10 49L10 50L11 50L11 51L12 51L12 52L11 52L11 53L12 53L12 54L13 54L13 56L14 56L14 57L12 57L12 58L14 58L14 57L16 57L16 55L15 55L15 54L16 54L16 53L13 53L13 50L11 50L11 49L10 49L10 48ZM57 48L57 49L58 49L58 48ZM3 49L3 50L4 50L4 54L5 54L5 55L7 55L7 56L8 56L8 55L7 55L7 54L5 54L5 53L7 53L7 52L6 52L6 51L7 51L7 50L4 50L4 49ZM63 49L63 50L64 50L64 49ZM19 50L19 51L20 51L20 50ZM9 51L9 52L10 52L10 51ZM43 51L43 52L44 52L44 53L45 53L45 52L44 52L44 51ZM47 51L47 52L48 52L48 51ZM31 52L31 53L30 53L30 54L29 54L29 55L30 55L30 54L31 54L31 55L32 55L32 56L33 56L33 54L32 54L32 52ZM37 52L37 53L38 53L38 52ZM57 52L57 53L58 53L58 52ZM60 52L60 53L61 53L61 52ZM20 54L20 55L21 55L21 54ZM23 54L23 55L24 55L24 54ZM14 55L14 56L15 56L15 55ZM59 55L59 56L58 56L58 57L59 57L59 56L60 56L60 55ZM67 55L67 56L68 56L68 55ZM54 56L54 57L55 57L55 56ZM21 57L21 58L20 58L20 60L21 60L21 59L22 59L22 57ZM8 58L8 59L9 59L9 60L10 60L10 61L11 61L11 59L10 59L10 58ZM26 58L26 60L27 60L27 58ZM45 58L45 59L44 59L44 60L45 60L45 59L46 59L46 58ZM59 58L59 59L60 59L60 58ZM57 59L57 60L58 60L58 61L59 61L59 60L58 60L58 59ZM3 60L3 61L5 61L5 60ZM17 60L17 61L19 61L19 62L18 62L18 63L15 63L15 64L16 64L16 65L17 65L17 67L20 67L20 66L19 66L19 65L20 65L20 64L21 64L21 62L20 62L20 61L19 61L19 60ZM23 60L23 61L22 61L22 62L23 62L23 61L24 61L24 60ZM65 60L65 61L67 61L67 62L68 62L68 61L67 61L67 60ZM31 61L31 63L32 63L32 61ZM33 61L33 64L36 64L36 61ZM61 61L61 64L64 64L64 61ZM19 62L19 64L20 64L20 62ZM34 62L34 63L35 63L35 62ZM56 62L56 64L57 64L57 62ZM58 62L58 63L59 63L59 62ZM62 62L62 63L63 63L63 62ZM65 62L65 63L66 63L66 62ZM22 63L22 64L23 64L23 63ZM39 63L39 64L41 64L41 66L40 66L40 67L41 67L41 66L44 66L44 68L41 68L41 69L44 69L44 68L48 68L48 69L49 69L49 68L48 68L48 67L49 67L49 66L50 66L50 69L51 69L51 66L50 66L50 63L49 63L49 64L47 64L47 66L46 66L46 64L45 64L45 63L44 63L44 64L41 64L41 63ZM17 64L17 65L18 65L18 64ZM44 64L44 66L45 66L45 67L46 67L46 66L45 66L45 64ZM11 65L11 66L12 66L12 65ZM23 65L23 66L25 66L25 65ZM31 65L31 66L29 66L29 68L32 68L32 67L31 67L31 66L32 66L32 65ZM33 65L33 67L34 67L34 66L36 66L36 65ZM62 65L62 66L64 66L64 65ZM66 65L66 67L65 67L65 68L64 68L64 69L65 69L65 68L66 68L66 69L68 69L68 68L67 68L67 65ZM21 66L21 67L22 67L22 66ZM57 68L57 69L58 69L58 68ZM0 0L0 7L7 7L7 0ZM1 1L1 6L6 6L6 1ZM2 2L2 5L5 5L5 2ZM62 0L62 7L69 7L69 0ZM63 1L63 6L68 6L68 1ZM64 2L64 5L67 5L67 2ZM0 62L0 69L7 69L7 62ZM1 63L1 68L6 68L6 63ZM2 64L2 67L5 67L5 64Z" fill="#000000"/></g></g></svg>
