<?xml version="1.0" encoding="UTF-8"?>
<svg xmlns="http://www.w3.org/2000/svg" version="1.1" width="300" height="300" viewBox="0 0 300 300"><rect x="0" y="0" width="300" height="300" fill="#ffffff"/><g transform="scale(4.348)"><g transform="translate(0,0)"><path fill-rule="evenodd" d="M8 0L8 2L10 2L10 3L11 3L11 4L8 4L8 9L7 9L7 8L5 8L5 9L4 9L4 10L3 10L3 8L0 8L0 9L1 9L1 10L0 10L0 12L2 12L2 11L1 11L1 10L3 10L3 12L5 12L5 11L4 11L4 10L6 10L6 11L7 11L7 12L6 12L6 13L7 13L7 12L8 12L8 11L7 11L7 10L8 10L8 9L10 9L10 10L11 10L11 11L9 11L9 13L10 13L10 14L4 14L4 13L3 13L3 14L2 14L2 13L1 13L1 15L0 15L0 16L1 16L1 17L2 17L2 18L1 18L1 19L0 19L0 20L1 20L1 19L2 19L2 20L3 20L3 21L5 21L5 22L6 22L6 23L5 23L5 24L4 24L4 22L2 22L2 23L1 23L1 24L2 24L2 23L3 23L3 26L2 26L2 27L3 27L3 28L6 28L6 29L4 29L4 30L3 30L3 29L2 29L2 28L1 28L1 29L2 29L2 30L3 30L3 31L1 31L1 32L0 32L0 34L2 34L2 33L3 33L3 34L4 34L4 36L3 36L3 37L0 37L0 38L2 38L2 39L0 39L0 41L2 41L2 40L4 40L4 41L3 41L3 42L1 42L1 43L0 43L0 44L1 44L1 45L0 45L0 47L1 47L1 46L2 46L2 47L4 47L4 48L1 48L1 49L3 49L3 50L1 50L1 51L0 51L0 52L1 52L1 53L4 53L4 52L5 52L5 53L7 53L7 54L4 54L4 56L2 56L2 57L4 57L4 56L5 56L5 55L7 55L7 56L6 56L6 57L5 57L5 58L4 58L4 59L8 59L8 56L9 56L9 59L10 59L10 62L12 62L12 64L11 64L11 65L10 65L10 64L9 64L9 63L8 63L8 64L9 64L9 65L10 65L10 66L11 66L11 68L9 68L9 66L8 66L8 69L11 69L11 68L13 68L13 69L16 69L16 68L14 68L14 67L15 67L15 66L16 66L16 65L17 65L17 67L18 67L18 65L19 65L19 64L18 64L18 63L19 63L19 60L22 60L22 61L21 61L21 62L20 62L20 65L21 65L21 62L23 62L23 59L22 59L22 58L20 58L20 56L21 56L21 54L20 54L20 53L21 53L21 52L22 52L22 53L23 53L23 54L24 54L24 53L23 53L23 52L26 52L26 54L25 54L25 55L24 55L24 57L25 57L25 58L24 58L24 59L25 59L25 58L26 58L26 59L27 59L27 58L28 58L28 56L26 56L26 55L27 55L27 52L26 52L26 49L27 49L27 48L26 48L26 47L27 47L27 46L26 46L26 45L27 45L27 44L28 44L28 43L30 43L30 46L28 46L28 49L29 49L29 47L30 47L30 46L31 46L31 47L32 47L32 46L31 46L31 44L32 44L32 43L33 43L33 44L34 44L34 45L33 45L33 46L35 46L35 47L34 47L34 49L35 49L35 50L33 50L33 51L32 51L32 48L30 48L30 50L28 50L28 51L29 51L29 52L30 52L30 53L29 53L29 54L28 54L28 55L29 55L29 58L30 58L30 57L31 57L31 59L29 59L29 60L30 60L30 61L31 61L31 60L32 60L32 62L31 62L31 64L30 64L30 65L29 65L29 63L30 63L30 62L28 62L28 61L27 61L27 60L26 60L26 61L25 61L25 62L24 62L24 63L25 63L25 62L26 62L26 61L27 61L27 63L26 63L26 64L27 64L27 66L26 66L26 67L25 67L25 68L26 68L26 69L27 69L27 68L28 68L28 69L29 69L29 67L28 67L28 66L30 66L30 67L31 67L31 66L30 66L30 65L31 65L31 64L32 64L32 66L34 66L34 67L33 67L33 68L32 68L32 69L37 69L37 68L36 68L36 67L37 67L37 63L38 63L38 65L39 65L39 66L40 66L40 65L41 65L41 68L40 68L40 69L41 69L41 68L43 68L43 67L44 67L44 69L45 69L45 67L44 67L44 65L47 65L47 66L48 66L48 67L46 67L46 69L47 69L47 68L48 68L48 69L50 69L50 67L52 67L52 66L53 66L53 64L52 64L52 65L51 65L51 63L52 63L52 61L53 61L53 63L57 63L57 64L56 64L56 65L55 65L55 64L54 64L54 65L55 65L55 66L57 66L57 68L56 68L56 67L54 67L54 68L52 68L52 69L55 69L55 68L56 68L56 69L57 69L57 68L58 68L58 69L59 69L59 68L58 68L58 67L59 67L59 66L58 66L58 63L57 63L57 60L58 60L58 61L59 61L59 63L60 63L60 64L59 64L59 65L66 65L66 63L67 63L67 65L69 65L69 61L68 61L68 60L66 60L66 59L67 59L67 57L68 57L68 56L69 56L69 52L68 52L68 51L69 51L69 49L66 49L66 47L67 47L67 46L64 46L64 44L63 44L63 42L64 42L64 41L63 41L63 38L62 38L62 37L65 37L65 38L64 38L64 40L66 40L66 41L67 41L67 40L68 40L68 39L69 39L69 38L68 38L68 39L67 39L67 40L66 40L66 39L65 39L65 38L67 38L67 36L66 36L66 35L67 35L67 34L66 34L66 33L65 33L65 32L66 32L66 30L68 30L68 32L67 32L67 33L68 33L68 37L69 37L69 33L68 33L68 32L69 32L69 30L68 30L68 29L69 29L69 25L67 25L67 24L68 24L68 23L69 23L69 20L68 20L68 19L69 19L69 12L66 12L66 11L67 11L67 10L68 10L68 11L69 11L69 8L67 8L67 9L65 9L65 8L61 8L61 10L60 10L60 8L59 8L59 4L58 4L58 3L59 3L59 2L58 2L58 1L61 1L61 0L58 0L58 1L57 1L57 0L54 0L54 1L53 1L53 2L52 2L52 0L50 0L50 1L49 1L49 2L48 2L48 1L47 1L47 0L45 0L45 2L46 2L46 3L47 3L47 4L46 4L46 5L47 5L47 4L48 4L48 7L47 7L47 6L46 6L46 7L47 7L47 8L44 8L44 9L43 9L43 11L41 11L41 10L42 10L42 8L43 8L43 6L42 6L42 5L43 5L43 4L44 4L44 7L45 7L45 4L44 4L44 2L43 2L43 4L42 4L42 3L41 3L41 4L42 4L42 5L40 5L40 2L41 2L41 0L40 0L40 2L39 2L39 0L38 0L38 1L37 1L37 3L36 3L36 0L34 0L34 1L35 1L35 2L34 2L34 3L33 3L33 0L31 0L31 1L30 1L30 2L29 2L29 1L28 1L28 2L29 2L29 4L28 4L28 8L26 8L26 7L27 7L27 5L25 5L25 3L26 3L26 1L27 1L27 0L24 0L24 2L23 2L23 0L18 0L18 1L19 1L19 4L18 4L18 2L17 2L17 0L15 0L15 1L16 1L16 3L15 3L15 4L16 4L16 3L17 3L17 5L15 5L15 6L14 6L14 4L13 4L13 6L12 6L12 9L10 9L10 8L11 8L11 5L12 5L12 2L14 2L14 1L11 1L11 2L10 2L10 1L9 1L9 0ZM42 0L42 1L44 1L44 0ZM20 1L20 2L21 2L21 1ZM50 1L50 3L48 3L48 4L49 4L49 7L48 7L48 8L47 8L47 9L46 9L46 10L45 10L45 11L46 11L46 12L47 12L47 13L46 13L46 15L45 15L45 13L44 13L44 11L43 11L43 12L42 12L42 13L41 13L41 11L38 11L38 10L39 10L39 9L40 9L40 8L42 8L42 6L41 6L41 7L40 7L40 5L38 5L38 6L37 6L37 7L38 7L38 10L37 10L37 9L34 9L34 13L32 13L32 12L33 12L33 11L32 11L32 10L33 10L33 9L31 9L31 8L30 8L30 6L29 6L29 8L28 8L28 11L26 11L26 12L27 12L27 13L28 13L28 14L27 14L27 15L26 15L26 16L27 16L27 17L26 17L26 18L27 18L27 20L28 20L28 22L27 22L27 21L26 21L26 19L25 19L25 13L24 13L24 14L23 14L23 13L22 13L22 12L23 12L23 11L21 11L21 9L20 9L20 8L19 8L19 7L20 7L20 6L21 6L21 7L22 7L22 8L23 8L23 7L24 7L24 8L25 8L25 10L24 10L24 11L25 11L25 10L26 10L26 8L25 8L25 7L26 7L26 6L25 6L25 5L24 5L24 6L23 6L23 2L22 2L22 5L20 5L20 6L19 6L19 5L18 5L18 6L17 6L17 8L14 8L14 6L13 6L13 8L14 8L14 9L12 9L12 12L13 12L13 10L14 10L14 12L15 12L15 13L17 13L17 15L15 15L15 14L14 14L14 15L13 15L13 16L12 16L12 15L11 15L11 16L10 16L10 17L11 17L11 18L9 18L9 15L8 15L8 18L7 18L7 17L6 17L6 18L7 18L7 19L6 19L6 20L7 20L7 19L8 19L8 20L10 20L10 21L6 21L6 22L7 22L7 23L6 23L6 24L5 24L5 25L4 25L4 26L5 26L5 25L6 25L6 26L7 26L7 25L6 25L6 24L8 24L8 25L9 25L9 26L8 26L8 28L9 28L9 27L10 27L10 26L11 26L11 25L13 25L13 24L14 24L14 26L13 26L13 27L12 27L12 28L10 28L10 30L9 30L9 29L6 29L6 30L7 30L7 31L6 31L6 32L7 32L7 31L8 31L8 32L10 32L10 31L12 31L12 28L13 28L13 29L14 29L14 30L13 30L13 33L12 33L12 32L11 32L11 33L10 33L10 34L9 34L9 37L6 37L6 38L8 38L8 39L9 39L9 38L10 38L10 37L11 37L11 38L12 38L12 39L13 39L13 40L11 40L11 39L10 39L10 40L9 40L9 43L8 43L8 44L7 44L7 43L5 43L5 42L7 42L7 41L8 41L8 40L7 40L7 39L6 39L6 40L7 40L7 41L4 41L4 42L3 42L3 43L4 43L4 44L3 44L3 45L2 45L2 46L4 46L4 47L6 47L6 48L8 48L8 47L10 47L10 46L11 46L11 49L10 49L10 48L9 48L9 49L8 49L8 52L7 52L7 51L6 51L6 50L7 50L7 49L6 49L6 50L5 50L5 48L4 48L4 50L5 50L5 52L7 52L7 53L8 53L8 55L9 55L9 56L11 56L11 57L12 57L12 58L11 58L11 59L12 59L12 60L13 60L13 61L14 61L14 65L13 65L13 66L12 66L12 67L13 67L13 66L14 66L14 65L16 65L16 64L17 64L17 61L16 61L16 60L15 60L15 57L12 57L12 56L11 56L11 55L12 55L12 53L13 53L13 56L15 56L15 55L17 55L17 58L16 58L16 59L17 59L17 58L18 58L18 55L17 55L17 53L18 53L18 54L19 54L19 53L20 53L20 52L19 52L19 51L18 51L18 52L17 52L17 50L19 50L19 48L20 48L20 46L22 46L22 48L21 48L21 50L20 50L20 51L22 51L22 50L23 50L23 51L24 51L24 50L25 50L25 49L24 49L24 50L23 50L23 49L22 49L22 48L25 48L25 47L23 47L23 45L22 45L22 44L23 44L23 43L22 43L22 42L23 42L23 41L22 41L22 42L21 42L21 40L20 40L20 39L21 39L21 38L23 38L23 39L22 39L22 40L23 40L23 39L24 39L24 40L26 40L26 39L25 39L25 37L26 37L26 38L27 38L27 37L28 37L28 38L29 38L29 39L28 39L28 40L27 40L27 41L28 41L28 42L26 42L26 43L25 43L25 42L24 42L24 43L25 43L25 45L24 45L24 46L25 46L25 45L26 45L26 43L28 43L28 42L30 42L30 43L31 43L31 42L32 42L32 41L33 41L33 42L34 42L34 40L35 40L35 39L36 39L36 41L35 41L35 42L36 42L36 46L37 46L37 47L38 47L38 48L39 48L39 49L38 49L38 50L37 50L37 51L36 51L36 52L35 52L35 51L34 51L34 52L35 52L35 53L34 53L34 54L32 54L32 53L33 53L33 52L32 52L32 51L31 51L31 50L30 50L30 52L32 52L32 53L30 53L30 54L32 54L32 55L30 55L30 56L33 56L33 58L36 58L36 57L38 57L38 58L40 58L40 59L36 59L36 60L38 60L38 62L39 62L39 65L40 65L40 62L41 62L41 61L42 61L42 62L43 62L43 61L44 61L44 63L43 63L43 65L42 65L42 63L41 63L41 65L42 65L42 67L43 67L43 65L44 65L44 63L45 63L45 61L44 61L44 59L41 59L41 58L40 58L40 55L41 55L41 54L40 54L40 55L39 55L39 57L38 57L38 56L37 56L37 53L36 53L36 52L37 52L37 51L38 51L38 50L39 50L39 49L40 49L40 51L41 51L41 49L40 49L40 48L41 48L41 47L43 47L43 45L44 45L44 46L45 46L45 45L46 45L46 47L44 47L44 48L43 48L43 49L42 49L42 50L43 50L43 51L42 51L42 52L43 52L43 53L42 53L42 56L41 56L41 57L42 57L42 58L45 58L45 57L46 57L46 58L47 58L47 61L46 61L46 62L47 62L47 61L48 61L48 64L47 64L47 63L46 63L46 64L47 64L47 65L48 65L48 64L49 64L49 65L50 65L50 66L51 66L51 65L50 65L50 64L49 64L49 61L48 61L48 59L49 59L49 57L50 57L50 58L51 58L51 57L52 57L52 56L55 56L55 57L54 57L54 60L53 60L53 61L54 61L54 62L55 62L55 61L56 61L56 60L57 60L57 59L56 59L56 58L55 58L55 57L56 57L56 52L57 52L57 53L58 53L58 54L57 54L57 56L59 56L59 55L58 55L58 54L60 54L60 55L62 55L62 54L63 54L63 56L62 56L62 57L61 57L61 58L60 58L60 59L59 59L59 60L60 60L60 59L61 59L61 60L63 60L63 59L62 59L62 57L63 57L63 56L64 56L64 58L65 58L65 59L64 59L64 60L65 60L65 61L66 61L66 62L67 62L67 63L68 63L68 61L66 61L66 60L65 60L65 59L66 59L66 57L67 57L67 56L68 56L68 53L67 53L67 51L68 51L68 50L67 50L67 51L66 51L66 49L65 49L65 47L64 47L64 50L65 50L65 51L64 51L64 52L65 52L65 53L64 53L64 54L63 54L63 53L62 53L62 54L61 54L61 53L58 53L58 52L57 52L57 51L56 51L56 48L57 48L57 49L58 49L58 50L59 50L59 52L60 52L60 50L59 50L59 49L58 49L58 48L59 48L59 47L57 47L57 46L56 46L56 44L55 44L55 39L54 39L54 38L56 38L56 39L57 39L57 40L60 40L60 39L61 39L61 38L60 38L60 35L59 35L59 33L60 33L60 31L62 31L62 30L63 30L63 31L65 31L65 30L66 30L66 29L68 29L68 28L67 28L67 27L68 27L68 26L67 26L67 25L66 25L66 26L65 26L65 25L63 25L63 22L64 22L64 23L65 23L65 22L67 22L67 23L66 23L66 24L67 24L67 23L68 23L68 20L67 20L67 19L68 19L68 18L67 18L67 17L68 17L68 16L67 16L67 15L68 15L68 13L67 13L67 15L66 15L66 12L65 12L65 15L63 15L63 14L64 14L64 11L63 11L63 10L64 10L64 9L62 9L62 11L63 11L63 12L62 12L62 13L61 13L61 12L60 12L60 10L59 10L59 8L58 8L58 4L57 4L57 3L56 3L56 5L54 5L54 3L55 3L55 1L54 1L54 3L52 3L52 4L53 4L53 5L52 5L52 6L51 6L51 5L50 5L50 4L51 4L51 1ZM56 1L56 2L57 2L57 1ZM30 2L30 4L31 4L31 7L32 7L32 4L33 4L33 3L32 3L32 2ZM31 3L31 4L32 4L32 3ZM34 3L34 4L35 4L35 3ZM38 3L38 4L39 4L39 3ZM60 3L60 5L61 5L61 3ZM33 5L33 8L36 8L36 5ZM53 5L53 6L52 6L52 7L51 7L51 6L50 6L50 8L48 8L48 9L47 9L47 10L46 10L46 11L48 11L48 13L47 13L47 15L48 15L48 13L49 13L49 16L48 16L48 17L47 17L47 16L46 16L46 17L45 17L45 15L44 15L44 17L45 17L45 20L44 20L44 21L43 21L43 22L42 22L42 19L44 19L44 18L42 18L42 17L43 17L43 15L42 15L42 16L40 16L40 17L39 17L39 18L38 18L38 17L37 17L37 16L38 16L38 15L37 15L37 14L36 14L36 16L34 16L34 17L33 17L33 16L32 16L32 14L31 14L31 12L30 12L30 10L29 10L29 11L28 11L28 13L29 13L29 12L30 12L30 14L29 14L29 16L28 16L28 15L27 15L27 16L28 16L28 17L29 17L29 18L28 18L28 19L29 19L29 22L28 22L28 24L26 24L26 23L27 23L27 22L26 22L26 21L25 21L25 20L24 20L24 21L23 21L23 20L22 20L22 21L21 21L21 19L22 19L22 18L24 18L24 17L23 17L23 16L24 16L24 15L22 15L22 14L20 14L20 16L19 16L19 15L18 15L18 16L19 16L19 18L18 18L18 21L17 21L17 22L16 22L16 23L15 23L15 21L14 21L14 20L16 20L16 16L13 16L13 17L15 17L15 19L14 19L14 18L12 18L12 19L10 19L10 20L11 20L11 21L12 21L12 19L14 19L14 20L13 20L13 23L11 23L11 22L9 22L9 23L8 23L8 24L9 24L9 25L11 25L11 24L13 24L13 23L15 23L15 26L14 26L14 27L15 27L15 30L14 30L14 31L15 31L15 36L13 36L13 37L12 37L12 38L14 38L14 39L15 39L15 40L13 40L13 41L11 41L11 40L10 40L10 42L11 42L11 43L10 43L10 45L12 45L12 43L13 43L13 45L15 45L15 46L16 46L16 48L15 48L15 47L14 47L14 48L13 48L13 49L14 49L14 48L15 48L15 50L14 50L14 52L13 52L13 53L14 53L14 52L16 52L16 51L15 51L15 50L16 50L16 48L17 48L17 46L18 46L18 45L19 45L19 46L20 46L20 44L21 44L21 42L20 42L20 40L19 40L19 39L20 39L20 37L21 37L21 36L20 36L20 37L19 37L19 36L18 36L18 33L19 33L19 32L18 32L18 31L20 31L20 33L21 33L21 34L20 34L20 35L22 35L22 37L23 37L23 35L22 35L22 34L24 34L24 33L23 33L23 32L25 32L25 30L26 30L26 29L27 29L27 30L28 30L28 32L27 32L27 31L26 31L26 32L27 32L27 34L25 34L25 35L26 35L26 37L27 37L27 36L28 36L28 37L29 37L29 38L30 38L30 37L32 37L32 38L31 38L31 39L30 39L30 40L31 40L31 41L32 41L32 40L33 40L33 39L34 39L34 38L33 38L33 37L35 37L35 38L36 38L36 39L37 39L37 44L38 44L38 45L39 45L39 44L38 44L38 43L39 43L39 42L42 42L42 43L41 43L41 44L42 44L42 45L43 45L43 44L42 44L42 43L44 43L44 45L45 45L45 44L46 44L46 45L47 45L47 47L48 47L48 51L47 51L47 50L46 50L46 49L47 49L47 48L44 48L44 50L46 50L46 51L44 51L44 54L43 54L43 55L44 55L44 57L45 57L45 55L47 55L47 54L48 54L48 57L47 57L47 58L48 58L48 57L49 57L49 55L51 55L51 54L52 54L52 53L53 53L53 55L54 55L54 48L55 48L55 46L54 46L54 45L55 45L55 44L54 44L54 45L53 45L53 44L52 44L52 43L50 43L50 41L51 41L51 42L52 42L52 41L53 41L53 42L54 42L54 41L53 41L53 40L54 40L54 39L51 39L51 38L52 38L52 37L53 37L53 38L54 38L54 37L53 37L53 36L54 36L54 35L53 35L53 34L54 34L54 33L55 33L55 31L56 31L56 30L57 30L57 32L56 32L56 34L57 34L57 32L58 32L58 33L59 33L59 32L58 32L58 31L60 31L60 29L61 29L61 30L62 30L62 28L61 28L61 27L60 27L60 28L59 28L59 27L57 27L57 24L58 24L58 25L59 25L59 24L58 24L58 23L60 23L60 24L61 24L61 23L62 23L62 21L63 21L63 19L62 19L62 17L63 17L63 15L62 15L62 17L61 17L61 14L60 14L60 15L59 15L59 14L58 14L58 12L57 12L57 11L59 11L59 10L58 10L58 8L56 8L56 10L57 10L57 11L55 11L55 10L54 10L54 9L53 9L53 8L55 8L55 6L54 6L54 5ZM56 5L56 7L57 7L57 5ZM9 6L9 8L10 8L10 6ZM15 6L15 7L16 7L16 6ZM18 6L18 7L19 7L19 6ZM22 6L22 7L23 7L23 6ZM24 6L24 7L25 7L25 6ZM34 6L34 7L35 7L35 6ZM38 6L38 7L39 7L39 6ZM53 6L53 7L54 7L54 6ZM60 6L60 7L61 7L61 6ZM18 8L18 9L17 9L17 11L16 11L16 9L15 9L15 12L17 12L17 11L19 11L19 12L18 12L18 13L19 13L19 12L20 12L20 11L19 11L19 10L20 10L20 9L19 9L19 8ZM50 8L50 10L49 10L49 9L48 9L48 11L50 11L50 10L51 10L51 11L53 11L53 12L54 12L54 15L53 15L53 16L54 16L54 15L55 15L55 13L56 13L56 16L55 16L55 17L54 17L54 18L52 18L52 17L51 17L51 14L53 14L53 13L52 13L52 12L51 12L51 13L50 13L50 12L49 12L49 13L50 13L50 20L49 20L49 21L48 21L48 22L47 22L47 17L46 17L46 20L45 20L45 21L44 21L44 23L42 23L42 22L40 22L40 19L42 19L42 18L41 18L41 17L40 17L40 19L39 19L39 20L38 20L38 21L39 21L39 22L40 22L40 24L39 24L39 23L38 23L38 26L37 26L37 24L35 24L35 23L36 23L36 22L37 22L37 20L36 20L36 18L37 18L37 17L35 17L35 19L34 19L34 18L32 18L32 16L31 16L31 15L30 15L30 16L29 16L29 17L30 17L30 18L29 18L29 19L30 19L30 20L31 20L31 21L32 21L32 22L31 22L31 23L30 23L30 24L31 24L31 23L32 23L32 26L33 26L33 27L34 27L34 28L35 28L35 26L34 26L34 25L36 25L36 26L37 26L37 27L36 27L36 28L39 28L39 27L38 27L38 26L39 26L39 25L40 25L40 28L43 28L43 29L40 29L40 30L42 30L42 36L41 36L41 34L39 34L39 33L40 33L40 31L39 31L39 29L37 29L37 31L36 31L36 32L37 32L37 33L38 33L38 34L39 34L39 35L37 35L37 39L38 39L38 40L39 40L39 41L38 41L38 42L39 42L39 41L40 41L40 39L38 39L38 38L39 38L39 37L40 37L40 38L41 38L41 37L42 37L42 39L41 39L41 41L42 41L42 42L43 42L43 41L44 41L44 43L49 43L49 45L48 45L48 44L47 44L47 45L48 45L48 47L50 47L50 48L51 48L51 49L50 49L50 50L51 50L51 51L50 51L50 52L51 52L51 53L50 53L50 54L51 54L51 53L52 53L52 51L53 51L53 50L51 50L51 49L52 49L52 48L54 48L54 46L53 46L53 45L52 45L52 44L51 44L51 45L50 45L50 43L49 43L49 41L48 41L48 36L49 36L49 33L48 33L48 32L50 32L50 35L52 35L52 36L50 36L50 38L49 38L49 39L50 39L50 40L51 40L51 41L52 41L52 40L51 40L51 39L50 39L50 38L51 38L51 37L52 37L52 36L53 36L53 35L52 35L52 32L53 32L53 33L54 33L54 30L56 30L56 28L57 28L57 29L58 29L58 30L59 30L59 28L57 28L57 27L56 27L56 28L55 28L55 29L54 29L54 30L53 30L53 31L51 31L51 32L50 32L50 31L48 31L48 30L47 30L47 29L48 29L48 27L45 27L45 25L46 25L46 26L47 26L47 23L48 23L48 22L49 22L49 21L50 21L50 22L51 22L51 24L50 24L50 23L49 23L49 24L50 24L50 26L51 26L51 27L52 27L52 26L51 26L51 25L52 25L52 24L53 24L53 23L54 23L54 22L55 22L55 24L54 24L54 26L53 26L53 28L54 28L54 26L56 26L56 24L57 24L57 23L56 23L56 20L55 20L55 21L54 21L54 18L55 18L55 19L58 19L58 20L59 20L59 21L58 21L58 22L60 22L60 23L61 23L61 21L62 21L62 19L61 19L61 17L60 17L60 16L58 16L58 15L57 15L57 13L56 13L56 12L54 12L54 11L53 11L53 9L52 9L52 8ZM6 9L6 10L7 10L7 9ZM18 9L18 10L19 10L19 9ZM22 9L22 10L23 10L23 9ZM51 9L51 10L52 10L52 9ZM65 10L65 11L66 11L66 10ZM36 11L36 12L37 12L37 13L38 13L38 12L37 12L37 11ZM40 13L40 14L41 14L41 13ZM3 14L3 16L5 16L5 15L4 15L4 14ZM34 14L34 15L35 15L35 14ZM1 15L1 16L2 16L2 15ZM6 15L6 16L7 16L7 15ZM65 15L65 16L64 16L64 19L65 19L65 20L64 20L64 22L65 22L65 20L66 20L66 21L67 21L67 20L66 20L66 19L67 19L67 18L66 18L66 17L67 17L67 16L66 16L66 15ZM21 16L21 17L22 17L22 16ZM30 16L30 17L31 17L31 16ZM56 16L56 17L55 17L55 18L58 18L58 19L60 19L60 17L59 17L59 18L58 18L58 17L57 17L57 16ZM3 17L3 19L4 19L4 17ZM8 18L8 19L9 19L9 18ZM20 18L20 19L21 19L21 18ZM51 18L51 22L52 22L52 23L53 23L53 22L54 22L54 21L53 21L53 19L52 19L52 18ZM65 18L65 19L66 19L66 18ZM31 19L31 20L32 20L32 19ZM33 19L33 20L34 20L34 19ZM35 20L35 21L34 21L34 22L32 22L32 23L34 23L34 22L35 22L35 21L36 21L36 20ZM0 21L0 22L1 22L1 21ZM18 21L18 22L17 22L17 26L16 26L16 27L17 27L17 29L16 29L16 30L18 30L18 27L19 27L19 26L18 26L18 24L19 24L19 25L20 25L20 26L21 26L21 27L22 27L22 28L23 28L23 29L24 29L24 30L22 30L22 32L23 32L23 31L24 31L24 30L25 30L25 29L26 29L26 27L24 27L24 26L25 26L25 25L24 25L24 24L25 24L25 23L24 23L24 22L25 22L25 21L24 21L24 22L23 22L23 21L22 21L22 22L21 22L21 21L20 21L20 22L19 22L19 21ZM45 21L45 23L47 23L47 22L46 22L46 21ZM52 21L52 22L53 22L53 21ZM18 22L18 23L19 23L19 24L20 24L20 23L19 23L19 22ZM10 23L10 24L11 24L11 23ZM22 23L22 24L23 24L23 23ZM41 23L41 24L40 24L40 25L41 25L41 26L42 26L42 27L43 27L43 26L42 26L42 25L43 25L43 24L42 24L42 23ZM44 24L44 25L45 25L45 24ZM28 25L28 26L29 26L29 25ZM30 25L30 27L28 27L28 28L27 28L27 29L28 29L28 30L29 30L29 31L30 31L30 32L29 32L29 34L28 34L28 35L29 35L29 37L30 37L30 36L32 36L32 35L30 35L30 34L31 34L31 33L32 33L32 32L33 32L33 31L32 31L32 30L31 30L31 29L30 29L30 27L31 27L31 25ZM61 25L61 26L62 26L62 25ZM22 26L22 27L23 27L23 26ZM64 26L64 27L63 27L63 28L64 28L64 30L65 30L65 28L64 28L64 27L65 27L65 26ZM66 26L66 27L67 27L67 26ZM6 27L6 28L7 28L7 27ZM44 27L44 29L43 29L43 30L44 30L44 29L45 29L45 31L44 31L44 34L43 34L43 35L44 35L44 37L43 37L43 36L42 36L42 37L43 37L43 38L45 38L45 39L46 39L46 41L45 41L45 40L44 40L44 41L45 41L45 42L46 42L46 41L47 41L47 42L48 42L48 41L47 41L47 39L46 39L46 35L47 35L47 34L48 34L48 33L47 33L47 34L46 34L46 32L48 32L48 31L46 31L46 29L47 29L47 28L46 28L46 29L45 29L45 27ZM19 28L19 29L20 29L20 30L21 30L21 29L20 29L20 28ZM24 28L24 29L25 29L25 28ZM28 28L28 29L29 29L29 30L30 30L30 31L31 31L31 32L30 32L30 33L31 33L31 32L32 32L32 31L31 31L31 30L30 30L30 29L29 29L29 28ZM32 28L32 29L33 29L33 28ZM49 28L49 29L50 29L50 30L51 30L51 29L50 29L50 28ZM4 30L4 32L3 32L3 33L4 33L4 32L5 32L5 30ZM8 30L8 31L9 31L9 30ZM34 30L34 31L35 31L35 30ZM16 31L16 32L17 32L17 31ZM37 31L37 32L39 32L39 31ZM1 32L1 33L2 33L2 32ZM5 33L5 36L8 36L8 33ZM11 33L11 34L10 34L10 35L11 35L11 34L12 34L12 35L14 35L14 34L12 34L12 33ZM16 33L16 34L17 34L17 33ZM33 33L33 36L36 36L36 33ZM61 33L61 36L64 36L64 33ZM6 34L6 35L7 35L7 34ZM34 34L34 35L35 35L35 34ZM44 34L44 35L46 35L46 34ZM62 34L62 35L63 35L63 34ZM65 34L65 35L66 35L66 34ZM0 35L0 36L1 36L1 35ZM55 35L55 36L56 36L56 37L57 37L57 39L59 39L59 38L58 38L58 37L59 37L59 36L58 36L58 35L57 35L57 36L56 36L56 35ZM16 36L16 40L15 40L15 41L14 41L14 42L15 42L15 45L16 45L16 46L17 46L17 45L18 45L18 44L19 44L19 42L17 42L17 41L16 41L16 40L17 40L17 37L18 37L18 38L19 38L19 37L18 37L18 36ZM38 36L38 37L39 37L39 36ZM40 36L40 37L41 37L41 36ZM65 36L65 37L66 37L66 36ZM3 37L3 38L4 38L4 39L5 39L5 38L4 38L4 37ZM14 37L14 38L15 38L15 37ZM31 39L31 40L32 40L32 39ZM42 39L42 41L43 41L43 39ZM28 40L28 41L29 41L29 40ZM61 40L61 41L60 41L60 42L59 42L59 41L57 41L57 43L58 43L58 44L59 44L59 43L60 43L60 42L61 42L61 45L60 45L60 46L61 46L61 48L62 48L62 49L61 49L61 52L62 52L62 49L63 49L63 48L62 48L62 46L61 46L61 45L62 45L62 42L63 42L63 41L62 41L62 40ZM61 41L61 42L62 42L62 41ZM16 42L16 43L17 43L17 44L16 44L16 45L17 45L17 44L18 44L18 43L17 43L17 42ZM65 42L65 44L66 44L66 45L67 45L67 44L68 44L68 43L69 43L69 42L68 42L68 43L67 43L67 44L66 44L66 42ZM1 43L1 44L2 44L2 43ZM4 44L4 46L6 46L6 47L8 47L8 45L7 45L7 44ZM6 45L6 46L7 46L7 45ZM40 45L40 46L41 46L41 45ZM58 45L58 46L59 46L59 45ZM51 46L51 47L53 47L53 46ZM68 46L68 47L69 47L69 46ZM18 47L18 48L19 48L19 47ZM36 48L36 49L37 49L37 48ZM9 49L9 52L8 52L8 53L9 53L9 52L10 52L10 49ZM1 51L1 52L2 52L2 51ZM48 51L48 52L46 52L46 54L47 54L47 53L48 53L48 52L49 52L49 51ZM55 51L55 52L56 52L56 51ZM65 51L65 52L66 52L66 51ZM18 52L18 53L19 53L19 52ZM38 52L38 53L39 53L39 52ZM10 53L10 54L11 54L11 53ZM15 53L15 54L16 54L16 53ZM35 53L35 54L36 54L36 53ZM65 53L65 54L64 54L64 56L66 56L66 55L67 55L67 54L66 54L66 53ZM1 54L1 55L0 55L0 61L1 61L1 55L3 55L3 54ZM44 54L44 55L45 55L45 54ZM65 54L65 55L66 55L66 54ZM19 55L19 56L20 56L20 55ZM22 55L22 56L23 56L23 55ZM33 55L33 56L34 56L34 57L35 57L35 56L34 56L34 55ZM6 57L6 58L7 58L7 57ZM58 57L58 58L59 58L59 57ZM2 58L2 59L3 59L3 58ZM12 58L12 59L13 59L13 60L14 60L14 59L13 59L13 58ZM19 58L19 59L18 59L18 60L19 60L19 59L20 59L20 58ZM68 58L68 59L69 59L69 58ZM33 59L33 60L35 60L35 59ZM50 59L50 60L51 60L51 59ZM3 60L3 61L5 61L5 60ZM6 60L6 61L7 61L7 60ZM8 60L8 62L9 62L9 60ZM39 60L39 61L41 61L41 60ZM15 61L15 63L16 63L16 61ZM33 61L33 64L36 64L36 61ZM50 61L50 62L51 62L51 61ZM61 61L61 64L64 64L64 61ZM34 62L34 63L35 63L35 62ZM62 62L62 63L63 63L63 62ZM22 63L22 65L23 65L23 67L24 67L24 65L25 65L25 64L23 64L23 63ZM34 65L34 66L35 66L35 67L34 67L34 68L35 68L35 67L36 67L36 65ZM20 66L20 67L21 67L21 68L22 68L22 69L24 69L24 68L22 68L22 67L21 67L21 66ZM60 66L60 67L61 67L61 66ZM62 66L62 67L63 67L63 66ZM64 66L64 67L65 67L65 69L66 69L66 66ZM67 66L67 67L69 67L69 66ZM26 67L26 68L27 68L27 67ZM48 67L48 68L49 68L49 67ZM18 68L18 69L19 69L19 68ZM30 68L30 69L31 69L31 68ZM38 68L38 69L39 69L39 68ZM63 68L63 69L64 69L64 68ZM68 68L68 69L69 69L69 68ZM0 0L0 7L7 7L7 0ZM1 1L1 6L6 6L6 1ZM2 2L2 5L5 5L5 2ZM62 0L62 7L69 7L69 0ZM63 1L63 6L68 6L68 1ZM64 2L64 5L67 5L67 2ZM0 62L0 69L7 69L7 62ZM1 63L1 68L6 68L6 63ZM2 64L2 67L5 67L5 64Z" fill="#000000"/></g></g></svg>
